<svg xmlns="http://www.w3.org/2000/svg" width="500" height="550" viewBox="0 0 500 550"><title>s01e07-01</title><path d="M372.14,295.65q-.27,61.74-.62,123.46c-.81,9-2.68,16.41-3.55,25.45-1,10.07,1.34,17-1.5,25.63-.59,1.77-2,1.67-3.35,1.43-17.11-3-44.4-5-49.44-2.65s3.57,24.48,0,27.78-114.15,1.62-126.54,1.63c-5.26,0-2.65-29.68-2.65-29.68-5.25.13-31.85-.87-51,2.09-5.23.6-5.68.28-6.62-4.82-1.35-11.26,1.94-18.53.53-29.31-6.15-46.82-1.39-94.38-3.6-141.53-1.42,2.82-2.94,5.6-4.29,8.45-2.37,10.68-17.5,9.31-11.81,16.19,11.11,8,6.41,21.38,5.15,32.56-.25,3.15-1.35,6.27-.37,9.58.51,8.43-3.19,16.94-4.38,25.31-1.5,8-10.42,41.27-11.86,49.29-.57,3.17-.61,3-3.74,2.05-12.38-3.52-26.09-4.38-38.6-1.18-1.39.34-2.11,0-2.41-1.47-2-7.76.82-16.67-5.49-22.43a6.66,6.66,0,0,1-1.33-3.22c-2.23-11-6.07-22.12-5.72-33.31-1.91-63,2.6-126.93,26.19-186,13.61-35.43,24.56-73.32,48.07-103.67,27.32-18.2,60-23.76,90.46-34.78a3.13,3.13,0,0,1,2.72.43c5,5.55,11.46,8.41,18.56,9.67,19.19,2.42,41.29,5.55,58.65-4.88,2.85-1.27,4.2-6.53,7.87-5,29.12,10.5,61,14.41,87.44,31.59,15.94,14.59,21.63,38,30.45,57.2,27.81,67.49,58,137.4,51.05,212.08-1.19,18.66-.23,37.45-3.28,56-.49,4.66-5.21,7.09-5.56,11.78-1.22,5.28-2.08,10.65-2.91,16-.4,2.6-.41,2.82-3.08,2.32-12.48-2.65-25.26-5.48-37.8-1.58-8.34-.14-8.13-15.55-11.44-21.4-6.28-7.37-3.61-9-5.33-17.63-.9-9.7-4.68-20.27.79-29.27,2-3.53,1.86-7,.51-10.65-4.9-11.29-7.4-23.42-10.45-35.3-1.07-4.3-1.31-8.49,1.61-12.33,1.51-7.24-10.43-8.68-10.93-15.93Z" fill="#f9f9f7" stroke="#262521" stroke-linecap="round" stroke-linejoin="round" stroke-width="3"/><path d="M121.8,184.94s2.11,28.62,0,44.25.11,29.69.11,32.87,1.9,33.07,1.9,33.07" fill="none" stroke="#262521" stroke-linecap="round" stroke-linejoin="round" stroke-width="3"/><path d="M371.33,192.76s-1.25,73.85.81,102.89" fill="none" stroke="#262521" stroke-linecap="round" stroke-linejoin="round" stroke-width="3"/><line x1="73.89" y1="410.04" x2="73.89" y2="430.5" fill="none" stroke="#d6d6d2" stroke-linecap="round" stroke-linejoin="round" stroke-width="4"/><line x1="64.24" y1="410.05" x2="65.23" y2="430.49" fill="none" stroke="#d6d6d2" stroke-linecap="round" stroke-linejoin="round" stroke-width="4"/><line x1="84.38" y1="410.07" x2="82.9" y2="430.48" fill="none" stroke="#d6d6d2" stroke-linecap="round" stroke-linejoin="round" stroke-width="4"/><line x1="94.49" y1="412.23" x2="90.35" y2="432.26" fill="none" stroke="#d6d6d2" stroke-linecap="round" stroke-linejoin="round" stroke-width="4"/><line x1="55.35" y1="411.44" x2="57.39" y2="431.8" fill="none" stroke="#d6d6d2" stroke-linecap="round" stroke-linejoin="round" stroke-width="4"/><line x1="424.82" y1="410.31" x2="424.82" y2="430.77" fill="none" stroke="#d6d6d2" stroke-linecap="round" stroke-linejoin="round" stroke-width="4"/><line x1="414.71" y1="410.35" x2="416.61" y2="430.73" fill="none" stroke="#d6d6d2" stroke-linecap="round" stroke-linejoin="round" stroke-width="4"/><line x1="435.3" y1="410.34" x2="433.82" y2="430.74" fill="none" stroke="#d6d6d2" stroke-linecap="round" stroke-linejoin="round" stroke-width="4"/><line x1="445.41" y1="412.5" x2="441.27" y2="432.53" fill="none" stroke="#d6d6d2" stroke-linecap="round" stroke-linejoin="round" stroke-width="4"/><line x1="404.88" y1="411.83" x2="408.7" y2="431.94" fill="none" stroke="#d6d6d2" stroke-linecap="round" stroke-linejoin="round" stroke-width="4"/><line x1="247.31" y1="471.75" x2="247.31" y2="492.21" fill="none" stroke="#d6d6d2" stroke-linecap="round" stroke-linejoin="round" stroke-width="4"/><line x1="258.37" y1="471.75" x2="258.37" y2="492.21" fill="none" stroke="#d6d6d2" stroke-linecap="round" stroke-linejoin="round" stroke-width="4"/><line x1="269.43" y1="471.75" x2="269.43" y2="492.21" fill="none" stroke="#d6d6d2" stroke-linecap="round" stroke-linejoin="round" stroke-width="4"/><line x1="280.49" y1="471.75" x2="280.49" y2="492.21" fill="none" stroke="#d6d6d2" stroke-linecap="round" stroke-linejoin="round" stroke-width="4"/><line x1="291.56" y1="471.25" x2="291.56" y2="491.71" fill="none" stroke="#d6d6d2" stroke-linecap="round" stroke-linejoin="round" stroke-width="4"/><line x1="302.62" y1="471.25" x2="302.62" y2="491.71" fill="none" stroke="#d6d6d2" stroke-linecap="round" stroke-linejoin="round" stroke-width="4"/><line x1="324.74" y1="439.59" x2="324.74" y2="460.05" fill="none" stroke="#d6d6d2" stroke-linecap="round" stroke-linejoin="round" stroke-width="4"/><line x1="172.37" y1="439.59" x2="172.37" y2="460.05" fill="none" stroke="#d6d6d2" stroke-linecap="round" stroke-linejoin="round" stroke-width="4"/><line x1="192" y1="471.75" x2="192" y2="492.21" fill="none" stroke="#d6d6d2" stroke-linecap="round" stroke-linejoin="round" stroke-width="4"/><line x1="203.06" y1="472.25" x2="203.06" y2="492.71" fill="none" stroke="#d6d6d2" stroke-linecap="round" stroke-linejoin="round" stroke-width="4"/><line x1="137.11" y1="441.61" x2="138.26" y2="462.04" fill="none" stroke="#d6d6d2" stroke-linecap="round" stroke-linejoin="round" stroke-width="4"/><line x1="148.05" y1="440.11" x2="149.44" y2="460.53" fill="none" stroke="#d6d6d2" stroke-linecap="round" stroke-linejoin="round" stroke-width="4"/><line x1="160.31" y1="439.59" x2="160.31" y2="460.05" fill="none" stroke="#d6d6d2" stroke-linecap="round" stroke-linejoin="round" stroke-width="4"/><line x1="214.12" y1="472.25" x2="214.12" y2="492.71" fill="none" stroke="#d6d6d2" stroke-linecap="round" stroke-linejoin="round" stroke-width="4"/><line x1="225.18" y1="471.25" x2="225.18" y2="491.71" fill="none" stroke="#d6d6d2" stroke-linecap="round" stroke-linejoin="round" stroke-width="4"/><line x1="236.24" y1="471.75" x2="236.24" y2="492.21" fill="none" stroke="#d6d6d2" stroke-linecap="round" stroke-linejoin="round" stroke-width="4"/><line x1="336.17" y1="440.6" x2="335.44" y2="461.05" fill="none" stroke="#d6d6d2" stroke-linecap="round" stroke-linejoin="round" stroke-width="4"/><line x1="347.48" y1="441.61" x2="346.25" y2="462.03" fill="none" stroke="#d6d6d2" stroke-linecap="round" stroke-linejoin="round" stroke-width="4"/><line x1="358.34" y1="442.6" x2="357.52" y2="463.04" fill="none" stroke="#d6d6d2" stroke-linecap="round" stroke-linejoin="round" stroke-width="4"/><line x1="293.56" y1="70.56" x2="307.56" y2="74.2" fill="none" stroke="#d6d6d2" stroke-linecap="round" stroke-linejoin="round" stroke-width="4"/><line x1="295.66" y1="62.11" x2="309.65" y2="65.75" fill="none" stroke="#d6d6d2" stroke-linecap="round" stroke-linejoin="round" stroke-width="4"/><line x1="247.67" y1="104.45" x2="247.67" y2="118.91" fill="none" stroke="#d6d6d2" stroke-linecap="round" stroke-linejoin="round" stroke-width="4"/><line x1="257.29" y1="103.72" x2="258.03" y2="118.16" fill="none" stroke="#d6d6d2" stroke-linecap="round" stroke-linejoin="round" stroke-width="4"/><line x1="265.8" y1="101.03" x2="268.21" y2="115.28" fill="none" stroke="#d6d6d2" stroke-linecap="round" stroke-linejoin="round" stroke-width="4"/><line x1="272.91" y1="97.2" x2="278.07" y2="110.71" fill="none" stroke="#d6d6d2" stroke-linecap="round" stroke-linejoin="round" stroke-width="4"/><line x1="279.59" y1="92.17" x2="287.72" y2="104.13" fill="none" stroke="#d6d6d2" stroke-linecap="round" stroke-linejoin="round" stroke-width="4"/><line x1="285.17" y1="85.86" x2="296.69" y2="94.61" fill="none" stroke="#d6d6d2" stroke-linecap="round" stroke-linejoin="round" stroke-width="4"/><line x1="289.39" y1="78.72" x2="302.65" y2="84.49" fill="none" stroke="#d6d6d2" stroke-linecap="round" stroke-linejoin="round" stroke-width="4"/><line x1="201.78" y1="70.56" x2="187.78" y2="74.2" fill="none" stroke="#d6d6d2" stroke-linecap="round" stroke-linejoin="round" stroke-width="4"/><line x1="199.68" y1="62.11" x2="185.69" y2="65.75" fill="none" stroke="#d6d6d2" stroke-linecap="round" stroke-linejoin="round" stroke-width="4"/><line x1="238.05" y1="103.72" x2="237.3" y2="118.16" fill="none" stroke="#d6d6d2" stroke-linecap="round" stroke-linejoin="round" stroke-width="4"/><line x1="229.54" y1="101.03" x2="227.13" y2="115.28" fill="none" stroke="#d6d6d2" stroke-linecap="round" stroke-linejoin="round" stroke-width="4"/><line x1="222.43" y1="97.2" x2="217.27" y2="110.71" fill="none" stroke="#d6d6d2" stroke-linecap="round" stroke-linejoin="round" stroke-width="4"/><line x1="215.74" y1="92.17" x2="207.61" y2="104.13" fill="none" stroke="#d6d6d2" stroke-linecap="round" stroke-linejoin="round" stroke-width="4"/><line x1="210.17" y1="85.86" x2="198.65" y2="94.61" fill="none" stroke="#d6d6d2" stroke-linecap="round" stroke-linejoin="round" stroke-width="4"/><line x1="205.95" y1="78.72" x2="192.68" y2="84.49" fill="none" stroke="#d6d6d2" stroke-linecap="round" stroke-linejoin="round" stroke-width="4"/><path d="M204.41,52.37s4,48.55,43.68,46.73,42.84-45.41,42.84-45.41" fill="none" stroke="#262521" stroke-linecap="round" stroke-linejoin="round" stroke-width="3"/><line x1="183.33" y1="81.6" x2="183.33" y2="462.04" fill="none" stroke="#d6d6d2" stroke-linecap="round" stroke-linejoin="round" stroke-width="4"/><line x1="313.68" y1="78.72" x2="313.68" y2="462.04" fill="none" stroke="#d6d6d2" stroke-linecap="round" stroke-linejoin="round" stroke-width="4"/><path d="M247.67,127.55s-5.45,15.64-5.45,14.85,5.16,15.45,5.45,14.65-5.45,16.64-5.45,16.64l5.45,15.64" fill="none" stroke="#d6d6d2" stroke-linecap="round" stroke-linejoin="round" stroke-width="4"/><path d="M248.2,127.55s5.45,15.64,5.45,14.85-5.16,15.45-5.45,14.65,5.45,16.64,5.45,16.64l-5.45,15.64" fill="none" stroke="#d6d6d2" stroke-linecap="round" stroke-linejoin="round" stroke-width="4"/><path d="M247.67,189.33s-5.45,15.64-5.45,14.85,5.16,15.44,5.45,14.65-5.45,16.63-5.45,16.63l5.45,15.65" fill="none" stroke="#d6d6d2" stroke-linecap="round" stroke-linejoin="round" stroke-width="4"/><path d="M248.2,189.33s5.45,15.64,5.45,14.85-5.16,15.44-5.45,14.65,5.45,16.63,5.45,16.63l-5.45,15.65" fill="none" stroke="#d6d6d2" stroke-linecap="round" stroke-linejoin="round" stroke-width="4"/><path d="M247.67,251.11s-5.45,15.64-5.45,14.85,5.16,15.44,5.45,14.65-5.45,16.63-5.45,16.63l5.45,15.64" fill="none" stroke="#d6d6d2" stroke-linecap="round" stroke-linejoin="round" stroke-width="4"/><path d="M248.2,251.11s5.45,15.64,5.45,14.85-5.16,15.44-5.45,14.65,5.45,16.63,5.45,16.63l-5.45,15.64" fill="none" stroke="#d6d6d2" stroke-linecap="round" stroke-linejoin="round" stroke-width="4"/><path d="M247.67,312.88s-5.45,15.65-5.45,14.85,5.16,15.45,5.45,14.66S242.22,359,242.22,359l5.45,15.64" fill="none" stroke="#d6d6d2" stroke-linecap="round" stroke-linejoin="round" stroke-width="4"/><path d="M248.2,312.88s5.45,15.65,5.45,14.85-5.16,15.45-5.45,14.66S253.65,359,253.65,359l-5.45,15.64" fill="none" stroke="#d6d6d2" stroke-linecap="round" stroke-linejoin="round" stroke-width="4"/><path d="M247.67,374.66s-5.45,15.64-5.45,14.85,5.16,15.45,5.45,14.65-5.45,16.64-5.45,16.64l5.45,15.64" fill="none" stroke="#d6d6d2" stroke-linecap="round" stroke-linejoin="round" stroke-width="4"/><path d="M248.2,374.66s5.45,15.64,5.45,14.85-5.16,15.45-5.45,14.65,5.45,16.64,5.45,16.64l-5.45,15.64" fill="none" stroke="#d6d6d2" stroke-linecap="round" stroke-linejoin="round" stroke-width="4"/><path d="M247.67,437s-5.45,15.64-5.45,14.85,5.16,15.45,5.45,14.65" fill="none" stroke="#d6d6d2" stroke-linecap="round" stroke-linejoin="round" stroke-width="4"/><path d="M239.67,127.55s-5.45,15.64-5.45,14.85,5.16,15.45,5.45,14.65-5.45,16.64-5.45,16.64l5.45,15.64" fill="none" stroke="#d6d6d2" stroke-linecap="round" stroke-linejoin="round" stroke-width="4"/><path d="M239.67,189.33s-5.45,15.64-5.45,14.85,5.16,15.44,5.45,14.65-5.45,16.63-5.45,16.63l5.45,15.65" fill="none" stroke="#d6d6d2" stroke-linecap="round" stroke-linejoin="round" stroke-width="4"/><path d="M239.67,251.11s-5.45,15.64-5.45,14.85,5.16,15.44,5.45,14.65-5.45,16.63-5.45,16.63l5.45,15.64" fill="none" stroke="#d6d6d2" stroke-linecap="round" stroke-linejoin="round" stroke-width="4"/><path d="M239.67,312.88s-5.45,15.65-5.45,14.85,5.16,15.45,5.45,14.66S234.22,359,234.22,359l5.45,15.64" fill="none" stroke="#d6d6d2" stroke-linecap="round" stroke-linejoin="round" stroke-width="4"/><path d="M239.67,374.66s-5.45,15.64-5.45,14.85,5.16,15.45,5.45,14.65-5.45,16.64-5.45,16.64l5.45,15.64" fill="none" stroke="#d6d6d2" stroke-linecap="round" stroke-linejoin="round" stroke-width="4"/><path d="M239.67,437s-5.45,15.64-5.45,14.85,5.16,15.45,5.45,14.65" fill="none" stroke="#d6d6d2" stroke-linecap="round" stroke-linejoin="round" stroke-width="4"/><path d="M248.2,437s5.45,15.64,5.45,14.85-5.16,15.45-5.45,14.65" fill="none" stroke="#d6d6d2" stroke-linecap="round" stroke-linejoin="round" stroke-width="4"/><path d="M255.7,127.55s5.45,15.64,5.45,14.85-5.16,15.45-5.45,14.65,5.45,16.64,5.45,16.64l-5.45,15.64" fill="none" stroke="#d6d6d2" stroke-linecap="round" stroke-linejoin="round" stroke-width="4"/><path d="M255.7,189.33s5.45,15.64,5.45,14.85-5.16,15.44-5.45,14.65,5.45,16.63,5.45,16.63l-5.45,15.65" fill="none" stroke="#d6d6d2" stroke-linecap="round" stroke-linejoin="round" stroke-width="4"/><path d="M255.7,251.11s5.45,15.64,5.45,14.85S256,281.4,255.7,280.61s5.45,16.63,5.45,16.63l-5.45,15.64" fill="none" stroke="#d6d6d2" stroke-linecap="round" stroke-linejoin="round" stroke-width="4"/><path d="M255.7,312.88s5.45,15.65,5.45,14.85-5.16,15.45-5.45,14.66S261.15,359,261.15,359l-5.45,15.64" fill="none" stroke="#d6d6d2" stroke-linecap="round" stroke-linejoin="round" stroke-width="4"/><path d="M255.7,374.66s5.45,15.64,5.45,14.85S256,405,255.7,404.16s5.45,16.64,5.45,16.64l-5.45,15.64" fill="none" stroke="#d6d6d2" stroke-linecap="round" stroke-linejoin="round" stroke-width="4"/><path d="M255.7,437s5.45,15.64,5.45,14.85-5.16,15.45-5.45,14.65" fill="none" stroke="#d6d6d2" stroke-linecap="round" stroke-linejoin="round" stroke-width="4"/><line x1="293.43" y1="123.14" x2="307.95" y2="114.18" fill="none" stroke="#d6d6d2" stroke-linecap="round" stroke-linejoin="round" stroke-width="4"/><line x1="293.43" y1="116.14" x2="307.95" y2="107.18" fill="none" stroke="#d6d6d2" stroke-linecap="round" stroke-linejoin="round" stroke-width="4"/><line x1="293.43" y1="148.04" x2="307.95" y2="139.08" fill="none" stroke="#d6d6d2" stroke-linecap="round" stroke-linejoin="round" stroke-width="4"/><line x1="293.43" y1="180.57" x2="307.95" y2="171.61" fill="none" stroke="#d6d6d2" stroke-linecap="round" stroke-linejoin="round" stroke-width="4"/><line x1="293.43" y1="213.62" x2="307.95" y2="204.66" fill="none" stroke="#d6d6d2" stroke-linecap="round" stroke-linejoin="round" stroke-width="4"/><line x1="293.43" y1="245.65" x2="307.95" y2="236.69" fill="none" stroke="#d6d6d2" stroke-linecap="round" stroke-linejoin="round" stroke-width="4"/><line x1="293.43" y1="278.47" x2="307.95" y2="269.51" fill="none" stroke="#d6d6d2" stroke-linecap="round" stroke-linejoin="round" stroke-width="4"/><line x1="293.43" y1="310.33" x2="307.95" y2="301.37" fill="none" stroke="#d6d6d2" stroke-linecap="round" stroke-linejoin="round" stroke-width="4"/><line x1="293.43" y1="343.31" x2="307.95" y2="334.35" fill="none" stroke="#d6d6d2" stroke-linecap="round" stroke-linejoin="round" stroke-width="4"/><line x1="293.43" y1="375.16" x2="307.95" y2="366.2" fill="none" stroke="#d6d6d2" stroke-linecap="round" stroke-linejoin="round" stroke-width="4"/><line x1="293.43" y1="408.45" x2="307.95" y2="399.49" fill="none" stroke="#d6d6d2" stroke-linecap="round" stroke-linejoin="round" stroke-width="4"/><line x1="293.43" y1="441.69" x2="307.95" y2="432.73" fill="none" stroke="#d6d6d2" stroke-linecap="round" stroke-linejoin="round" stroke-width="4"/><line x1="293.43" y1="155.1" x2="307.95" y2="146.14" fill="none" stroke="#d6d6d2" stroke-linecap="round" stroke-linejoin="round" stroke-width="4"/><line x1="293.43" y1="187.45" x2="307.95" y2="178.49" fill="none" stroke="#d6d6d2" stroke-linecap="round" stroke-linejoin="round" stroke-width="4"/><line x1="293.43" y1="220.48" x2="307.95" y2="211.52" fill="none" stroke="#d6d6d2" stroke-linecap="round" stroke-linejoin="round" stroke-width="4"/><line x1="293.43" y1="252.84" x2="307.95" y2="243.88" fill="none" stroke="#d6d6d2" stroke-linecap="round" stroke-linejoin="round" stroke-width="4"/><line x1="293.43" y1="284.93" x2="307.95" y2="275.97" fill="none" stroke="#d6d6d2" stroke-linecap="round" stroke-linejoin="round" stroke-width="4"/><line x1="293.43" y1="317.29" x2="307.95" y2="308.33" fill="none" stroke="#d6d6d2" stroke-linecap="round" stroke-linejoin="round" stroke-width="4"/><line x1="293.43" y1="350.32" x2="307.95" y2="341.36" fill="none" stroke="#d6d6d2" stroke-linecap="round" stroke-linejoin="round" stroke-width="4"/><line x1="293.43" y1="382.67" x2="307.95" y2="373.71" fill="none" stroke="#d6d6d2" stroke-linecap="round" stroke-linejoin="round" stroke-width="4"/><line x1="293.43" y1="415.75" x2="307.95" y2="406.79" fill="none" stroke="#d6d6d2" stroke-linecap="round" stroke-linejoin="round" stroke-width="4"/><line x1="293.43" y1="448.1" x2="307.95" y2="439.14" fill="none" stroke="#d6d6d2" stroke-linecap="round" stroke-linejoin="round" stroke-width="4"/><line x1="202.91" y1="123.14" x2="188.39" y2="114.18" fill="none" stroke="#d6d6d2" stroke-linecap="round" stroke-linejoin="round" stroke-width="4"/><line x1="202.91" y1="155.1" x2="188.39" y2="146.14" fill="none" stroke="#d6d6d2" stroke-linecap="round" stroke-linejoin="round" stroke-width="4"/><line x1="202.91" y1="187.45" x2="188.39" y2="178.49" fill="none" stroke="#d6d6d2" stroke-linecap="round" stroke-linejoin="round" stroke-width="4"/><line x1="202.91" y1="220.48" x2="188.39" y2="211.52" fill="none" stroke="#d6d6d2" stroke-linecap="round" stroke-linejoin="round" stroke-width="4"/><line x1="202.91" y1="252.84" x2="188.39" y2="243.88" fill="none" stroke="#d6d6d2" stroke-linecap="round" stroke-linejoin="round" stroke-width="4"/><line x1="202.91" y1="284.93" x2="188.39" y2="275.97" fill="none" stroke="#d6d6d2" stroke-linecap="round" stroke-linejoin="round" stroke-width="4"/><line x1="202.91" y1="317.29" x2="188.39" y2="308.33" fill="none" stroke="#d6d6d2" stroke-linecap="round" stroke-linejoin="round" stroke-width="4"/><line x1="202.91" y1="350.32" x2="188.39" y2="341.36" fill="none" stroke="#d6d6d2" stroke-linecap="round" stroke-linejoin="round" stroke-width="4"/><line x1="202.91" y1="382.67" x2="188.39" y2="373.71" fill="none" stroke="#d6d6d2" stroke-linecap="round" stroke-linejoin="round" stroke-width="4"/><line x1="202.91" y1="415.75" x2="188.39" y2="406.79" fill="none" stroke="#d6d6d2" stroke-linecap="round" stroke-linejoin="round" stroke-width="4"/><line x1="202.91" y1="448.1" x2="188.39" y2="439.14" fill="none" stroke="#d6d6d2" stroke-linecap="round" stroke-linejoin="round" stroke-width="4"/><line x1="202.91" y1="116.14" x2="188.39" y2="107.18" fill="none" stroke="#d6d6d2" stroke-linecap="round" stroke-linejoin="round" stroke-width="4"/><line x1="202.91" y1="148.1" x2="188.39" y2="139.14" fill="none" stroke="#d6d6d2" stroke-linecap="round" stroke-linejoin="round" stroke-width="4"/><line x1="202.91" y1="180.45" x2="188.39" y2="171.49" fill="none" stroke="#d6d6d2" stroke-linecap="round" stroke-linejoin="round" stroke-width="4"/><line x1="202.91" y1="213.48" x2="188.39" y2="204.52" fill="none" stroke="#d6d6d2" stroke-linecap="round" stroke-linejoin="round" stroke-width="4"/><line x1="202.91" y1="245.84" x2="188.39" y2="236.88" fill="none" stroke="#d6d6d2" stroke-linecap="round" stroke-linejoin="round" stroke-width="4"/><line x1="202.91" y1="277.93" x2="188.39" y2="268.97" fill="none" stroke="#d6d6d2" stroke-linecap="round" stroke-linejoin="round" stroke-width="4"/><line x1="202.91" y1="310.29" x2="188.39" y2="301.33" fill="none" stroke="#d6d6d2" stroke-linecap="round" stroke-linejoin="round" stroke-width="4"/><line x1="202.91" y1="343.32" x2="188.39" y2="334.36" fill="none" stroke="#d6d6d2" stroke-linecap="round" stroke-linejoin="round" stroke-width="4"/><line x1="202.91" y1="375.67" x2="188.39" y2="366.71" fill="none" stroke="#d6d6d2" stroke-linecap="round" stroke-linejoin="round" stroke-width="4"/><line x1="202.91" y1="408.75" x2="188.39" y2="399.79" fill="none" stroke="#d6d6d2" stroke-linecap="round" stroke-linejoin="round" stroke-width="4"/><line x1="202.91" y1="441.1" x2="188.39" y2="432.14" fill="none" stroke="#d6d6d2" stroke-linecap="round" stroke-linejoin="round" stroke-width="4"/><rect x="270.64" y="138.66" width="12.7" height="24.95" rx="6.35" transform="translate(24.86 340.86) rotate(-65.58)" stroke-width="4" stroke="#d6d6d2" stroke-linecap="round" stroke-linejoin="round" fill="none"/><rect x="270.64" y="124.55" width="12.7" height="24.95" rx="6.35" transform="translate(37.71 332.58) rotate(-65.58)" stroke-width="4" stroke="#d6d6d2" stroke-linecap="round" stroke-linejoin="round" fill="none"/><path d="M285.19,119.89a6.38,6.38,0,0,1,3.16,8.41h0a6.38,6.38,0,0,1-8.41,3.16l-11.15-5.06a6.37,6.37,0,0,1-3.19-3.26" fill="none" stroke="#d6d6d2" stroke-linecap="round" stroke-linejoin="round" stroke-width="4"/><rect x="270.64" y="167.73" width="12.7" height="24.95" rx="6.35" transform="translate(-1.61 357.91) rotate(-65.58)" stroke-width="4" stroke="#d6d6d2" stroke-linecap="round" stroke-linejoin="round" fill="none"/><rect x="270.64" y="153.62" width="12.7" height="24.95" rx="6.35" transform="translate(11.24 349.63) rotate(-65.58)" stroke-width="4" stroke="#d6d6d2" stroke-linecap="round" stroke-linejoin="round" fill="none"/><rect x="270.64" y="195.55" width="12.7" height="24.95" rx="6.35" transform="translate(-26.94 374.22) rotate(-65.58)" stroke-width="4" stroke="#d6d6d2" stroke-linecap="round" stroke-linejoin="round" fill="none"/><rect x="270.64" y="181.44" width="12.7" height="24.95" rx="6.35" transform="translate(-14.09 365.95) rotate(-65.58)" stroke-width="4" stroke="#d6d6d2" stroke-linecap="round" stroke-linejoin="round" fill="none"/><rect x="270.64" y="224.62" width="12.7" height="24.95" rx="6.35" transform="translate(-53.41 391.27) rotate(-65.58)" stroke-width="4" stroke="#d6d6d2" stroke-linecap="round" stroke-linejoin="round" fill="none"/><rect x="270.64" y="210.5" width="12.7" height="24.95" rx="6.35" transform="translate(-40.56 382.99) rotate(-65.58)" stroke-width="4" stroke="#d6d6d2" stroke-linecap="round" stroke-linejoin="round" fill="none"/><rect x="270.64" y="252.98" width="12.7" height="24.95" rx="6.35" transform="translate(-79.23 407.91) rotate(-65.58)" stroke-width="4" stroke="#d6d6d2" stroke-linecap="round" stroke-linejoin="round" fill="none"/><rect x="270.64" y="238.86" width="12.7" height="24.95" rx="6.35" transform="translate(-66.38 399.63) rotate(-65.58)" stroke-width="4" stroke="#d6d6d2" stroke-linecap="round" stroke-linejoin="round" fill="none"/><rect x="270.64" y="282.04" width="12.7" height="24.95" rx="6.35" transform="translate(-105.69 424.95) rotate(-65.58)" stroke-width="4" stroke="#d6d6d2" stroke-linecap="round" stroke-linejoin="round" fill="none"/><rect x="270.64" y="267.93" width="12.7" height="24.95" rx="6.35" transform="translate(-92.84 416.68) rotate(-65.58)" stroke-width="4" stroke="#d6d6d2" stroke-linecap="round" stroke-linejoin="round" fill="none"/><rect x="270.64" y="309.86" width="12.7" height="24.95" rx="6.35" transform="translate(-131.03 441.27) rotate(-65.58)" stroke-width="4" stroke="#d6d6d2" stroke-linecap="round" stroke-linejoin="round" fill="none"/><rect x="270.64" y="295.75" width="12.7" height="24.95" rx="6.35" transform="translate(-118.18 433) rotate(-65.58)" stroke-width="4" stroke="#d6d6d2" stroke-linecap="round" stroke-linejoin="round" fill="none"/><rect x="270.64" y="338.93" width="12.7" height="24.95" rx="6.35" transform="translate(-157.49 458.32) rotate(-65.58)" stroke-width="4" stroke="#d6d6d2" stroke-linecap="round" stroke-linejoin="round" fill="none"/><rect x="270.64" y="324.82" width="12.7" height="24.95" rx="6.35" transform="translate(-144.64 450.04) rotate(-65.58)" stroke-width="4" stroke="#d6d6d2" stroke-linecap="round" stroke-linejoin="round" fill="none"/><rect x="270.64" y="366.85" width="12.7" height="24.95" rx="6.35" transform="translate(-182.92 474.7) rotate(-65.58)" stroke-width="4" stroke="#d6d6d2" stroke-linecap="round" stroke-linejoin="round" fill="none"/><rect x="270.64" y="352.74" width="12.7" height="24.95" rx="6.35" transform="translate(-170.07 466.42) rotate(-65.58)" stroke-width="4" stroke="#d6d6d2" stroke-linecap="round" stroke-linejoin="round" fill="none"/><rect x="270.64" y="395.92" width="12.7" height="24.95" rx="6.35" transform="translate(-209.38 491.75) rotate(-65.58)" stroke-width="4" stroke="#d6d6d2" stroke-linecap="round" stroke-linejoin="round" fill="none"/><rect x="270.64" y="381.81" width="12.7" height="24.95" rx="6.35" transform="matrix(0.41, -0.91, 0.91, 0.41, -196.53, 483.47)" stroke-width="4" stroke="#d6d6d2" stroke-linecap="round" stroke-linejoin="round" fill="none"/><rect x="270.64" y="423.74" width="12.7" height="24.95" rx="6.35" transform="translate(-234.71 508.07) rotate(-65.58)" stroke-width="4" stroke="#d6d6d2" stroke-linecap="round" stroke-linejoin="round" fill="none"/><rect x="270.64" y="409.63" width="12.7" height="24.95" rx="6.35" transform="translate(-221.86 499.79) rotate(-65.58)" stroke-width="4" stroke="#d6d6d2" stroke-linecap="round" stroke-linejoin="round" fill="none"/><path d="M265.53,465.1a6.34,6.34,0,0,1,.11-5h0a6.36,6.36,0,0,1,8.41-3.15L285.19,462" fill="none" stroke="#d6d6d2" stroke-linecap="round" stroke-linejoin="round" stroke-width="4"/><rect x="270.64" y="438.69" width="12.7" height="24.95" rx="6.35" transform="translate(-248.33 516.84) rotate(-65.58)" stroke-width="4" stroke="#d6d6d2" stroke-linecap="round" stroke-linejoin="round" fill="none"/><rect x="212.75" y="138.66" width="12.7" height="24.95" rx="6.35" transform="translate(-9.1 288.14) rotate(-65.58)" stroke-width="4" stroke="#d6d6d2" stroke-linecap="round" stroke-linejoin="round" fill="none"/><rect x="212.75" y="124.55" width="12.7" height="24.95" rx="6.35" transform="translate(3.75 279.87) rotate(-65.58)" stroke-width="4" stroke="#d6d6d2" stroke-linecap="round" stroke-linejoin="round" fill="none"/><path d="M227.3,119.89a6.38,6.38,0,0,1,3.16,8.41h0a6.38,6.38,0,0,1-8.41,3.16L210.9,126.4a6.37,6.37,0,0,1-3.19-3.26" fill="none" stroke="#d6d6d2" stroke-linecap="round" stroke-linejoin="round" stroke-width="4"/><rect x="212.75" y="167.73" width="12.7" height="24.95" rx="6.35" transform="translate(-35.57 305.19) rotate(-65.58)" stroke-width="4" stroke="#d6d6d2" stroke-linecap="round" stroke-linejoin="round" fill="none"/><rect x="212.75" y="153.62" width="12.7" height="24.95" rx="6.35" transform="translate(-22.72 296.92) rotate(-65.58)" stroke-width="4" stroke="#d6d6d2" stroke-linecap="round" stroke-linejoin="round" fill="none"/><rect x="212.75" y="195.55" width="12.7" height="24.95" rx="6.35" transform="translate(-60.9 321.51) rotate(-65.58)" stroke-width="4" stroke="#d6d6d2" stroke-linecap="round" stroke-linejoin="round" fill="none"/><rect x="212.75" y="181.44" width="12.7" height="24.95" rx="6.35" transform="translate(-48.05 313.23) rotate(-65.58)" stroke-width="4" stroke="#d6d6d2" stroke-linecap="round" stroke-linejoin="round" fill="none"/><rect x="212.75" y="224.62" width="12.7" height="24.95" rx="6.35" transform="translate(-87.36 338.56) rotate(-65.58)" stroke-width="4" stroke="#d6d6d2" stroke-linecap="round" stroke-linejoin="round" fill="none"/><rect x="212.75" y="210.5" width="12.7" height="24.95" rx="6.35" transform="translate(-74.51 330.28) rotate(-65.58)" stroke-width="4" stroke="#d6d6d2" stroke-linecap="round" stroke-linejoin="round" fill="none"/><rect x="212.75" y="252.98" width="12.7" height="24.95" rx="6.35" transform="translate(-113.18 355.19) rotate(-65.58)" stroke-width="4" stroke="#d6d6d2" stroke-linecap="round" stroke-linejoin="round" fill="none"/><rect x="212.75" y="238.86" width="12.7" height="24.95" rx="6.35" transform="translate(-100.33 346.92) rotate(-65.58)" stroke-width="4" stroke="#d6d6d2" stroke-linecap="round" stroke-linejoin="round" fill="none"/><rect x="212.75" y="282.04" width="12.7" height="24.95" rx="6.35" transform="translate(-139.65 372.24) rotate(-65.58)" stroke-width="4" stroke="#d6d6d2" stroke-linecap="round" stroke-linejoin="round" fill="none"/><rect x="212.75" y="267.93" width="12.7" height="24.95" rx="6.35" transform="translate(-126.8 363.96) rotate(-65.58)" stroke-width="4" stroke="#d6d6d2" stroke-linecap="round" stroke-linejoin="round" fill="none"/><rect x="212.75" y="309.86" width="12.7" height="24.95" rx="6.35" transform="translate(-164.98 388.56) rotate(-65.58)" stroke-width="4" stroke="#d6d6d2" stroke-linecap="round" stroke-linejoin="round" fill="none"/><rect x="212.75" y="295.75" width="12.7" height="24.95" rx="6.35" transform="translate(-152.13 380.28) rotate(-65.58)" stroke-width="4" stroke="#d6d6d2" stroke-linecap="round" stroke-linejoin="round" fill="none"/><rect x="212.75" y="338.93" width="12.7" height="24.95" rx="6.35" transform="translate(-191.45 405.61) rotate(-65.58)" stroke-width="4" stroke="#d6d6d2" stroke-linecap="round" stroke-linejoin="round" fill="none"/><rect x="212.75" y="324.82" width="12.7" height="24.95" rx="6.35" transform="translate(-178.6 397.33) rotate(-65.58)" stroke-width="4" stroke="#d6d6d2" stroke-linecap="round" stroke-linejoin="round" fill="none"/><rect x="212.75" y="366.85" width="12.7" height="24.95" rx="6.35" transform="translate(-216.87 421.99) rotate(-65.58)" stroke-width="4" stroke="#d6d6d2" stroke-linecap="round" stroke-linejoin="round" fill="none"/><rect x="212.75" y="352.74" width="12.7" height="24.95" rx="6.35" transform="translate(-204.02 413.71) rotate(-65.58)" stroke-width="4" stroke="#d6d6d2" stroke-linecap="round" stroke-linejoin="round" fill="none"/><rect x="212.75" y="395.92" width="12.7" height="24.95" rx="6.35" transform="translate(-243.34 439.04) rotate(-65.58)" stroke-width="4" stroke="#d6d6d2" stroke-linecap="round" stroke-linejoin="round" fill="none"/><rect x="212.75" y="381.81" width="12.7" height="24.95" rx="6.35" transform="translate(-230.49 430.76) rotate(-65.58)" stroke-width="4" stroke="#d6d6d2" stroke-linecap="round" stroke-linejoin="round" fill="none"/><rect x="212.75" y="423.74" width="12.7" height="24.95" rx="6.35" transform="translate(-268.67 455.36) rotate(-65.58)" stroke-width="4" stroke="#d6d6d2" stroke-linecap="round" stroke-linejoin="round" fill="none"/><rect x="212.75" y="409.63" width="12.7" height="24.95" rx="6.35" transform="translate(-255.82 447.08) rotate(-65.58)" stroke-width="4" stroke="#d6d6d2" stroke-linecap="round" stroke-linejoin="round" fill="none"/><path d="M207.63,465.1a6.39,6.39,0,0,1,.11-5h0a6.37,6.37,0,0,1,8.41-3.15L227.3,462" fill="none" stroke="#d6d6d2" stroke-linecap="round" stroke-linejoin="round" stroke-width="4"/><rect x="212.75" y="438.69" width="12.7" height="24.95" rx="6.35" transform="translate(-282.29 464.13) rotate(-65.58)" stroke-width="4" stroke="#d6d6d2" stroke-linecap="round" stroke-linejoin="round" fill="none"/></svg>