<svg xmlns="http://www.w3.org/2000/svg" width="500" height="550" viewBox="0 0 500 550"><path d="M365.91 84.57s-1.72 402.39-5 404.58-151.41 0-167.06-3.28-53.14 5-57.87 4.16-5.46-10.9-3.64-18.54 1.37-386.92 1.37-386.92z" fill="#fff" stroke="#262521" stroke-linecap="round" stroke-linejoin="round" stroke-width="3"/><path d="M372.14 295.65q-.27 61.74-.62 123.46c-.81 9-2.68 16.41-3.55 25.45-1 10.07 1.34 17-1.5 25.63-.59 1.77-2 1.67-3.35 1.43-44.59-7.73-101.66-5.71-146.65-2.92-24.6.58-58.62-1.67-83 2.09-5.23.6-5.68.28-6.62-4.82-1.35-11.26 1.94-18.53.53-29.31-6.15-46.82-1.39-94.38-3.6-141.53-1.42 2.82-2.94 5.6-4.29 8.45-2.37 10.68-17.5 9.31-11.81 16.19 11.11 8 6.41 21.38 5.15 32.56-.25 3.15-1.35 6.27-.37 9.58.51 8.43-3.19 16.94-4.38 25.31-1.5 8-10.42 41.27-11.86 49.29-.57 3.17-.61 3-3.74 2.05-12.38-3.52-26.09-4.38-38.6-1.18-1.39.34-2.11 0-2.41-1.47-2-7.76.82-16.67-5.49-22.43a6.66 6.66 0 01-1.33-3.22c-2.23-11-6.07-22.12-5.72-33.31-1.91-63 2.6-126.93 26.19-186 13.61-35.43 24.56-73.32 48.07-103.67 27.32-18.2 60-23.76 90.46-34.78a3.13 3.13 0 012.72.43c5 5.55 11.46 8.41 18.56 9.67 19.19 2.42 41.29 5.55 58.65-4.88 2.85-1.27 4.2-6.53 7.87-5 29.12 10.5 61 14.41 87.44 31.59 15.94 14.59 21.63 38 30.45 57.2 27.81 67.49 58 137.4 51.05 212.08-1.19 18.66-.23 37.45-3.28 56-.49 4.66-5.21 7.09-5.56 11.78-1.22 5.28-2.08 10.65-2.91 16-.4 2.6-.41 2.82-3.08 2.32-12.48-2.65-25.26-5.48-37.8-1.58-8.34-.14-8.13-15.55-11.44-21.4-6.28-7.37-3.61-9-5.33-17.63-.9-9.7-4.68-20.27.79-29.27 2-3.53 1.86-7 .51-10.65-4.9-11.29-7.4-23.42-10.45-35.3-1.07-4.3-1.31-8.49 1.61-12.33 1.51-7.24-10.43-8.68-10.93-15.93z" fill="#fff" stroke="#262521" stroke-linecap="round" stroke-linejoin="round" stroke-width="3"/><path d="M206 53s3.41 36.21 41.7 34.4S290.32 53 290.32 53" fill="none" stroke="#262521" stroke-linecap="round" stroke-linejoin="round" stroke-width="3"/><path d="M204.41 52.37s4 48.55 43.68 46.73 42.84-45.41 42.84-45.41M121.8 184.94s2.11 28.62 0 44.25.11 29.69.11 32.87 1.9 33.07 1.9 33.07m247.52-102.38s-1.25 73.86.81 102.9" fill="none" stroke="#262521" stroke-linecap="round" stroke-linejoin="round" stroke-width="3"/><path d="M51.32 413.6s28.66-9.48 45.15 2.48m305.71 0s25.94-8.31 43.55 0M197.66 62.63c2.77 14.3 15 47.82 50.14 46.21 36.25-1.66 46.89-34.35 49-46.52" fill="none" stroke="#636363" stroke-linecap="round" stroke-linejoin="round"/><path fill="none" stroke="#636363" stroke-linecap="round" stroke-linejoin="round" d="M231.16 106.67l16.18 25.56 15.15-25.7M287 86.84s56.74 40.56 64.95 66.5M207 86.84s-56.76 40.56-65 66.5m-8.55 285.51s155.28-12.31 227.71 2.37"/></svg>