<svg xmlns="http://www.w3.org/2000/svg" width="500" height="550" viewBox="0 0 500 550"><path d="M215.51 30.26s22.93-8.25 62.34 0l7.28 16.36 61.56 28.11L250 182.77 150.37 69.5l58.1-22.88" fill="#fff" stroke="#262521" stroke-linecap="round" stroke-linejoin="round" stroke-width="3"/><path d="M215.51 30.26S231.37 52.83 246 64l-31.47 21.35s-12.33-34.14-8.44-41.68a66.91 66.91 0 019.42-13.41zm62.34 0S262 52.83 247.4 64l31.42 21.33s13.93-33 10-40.57-10.97-14.5-10.97-14.5zM237.88 69.5v70.33" fill="#fff" stroke="#262521" stroke-linecap="round" stroke-linejoin="round" stroke-width="3"/><circle cx="246.46" cy="71.16" r="3.06" fill="#262521" opacity=".2"/><path d="M52.42 423.69s-3.1 17.41.5 17.41 40.92 2.07 43.75-.5 0-16.91 0-16.91m306.33 2.5s-3.1 17.41.5 17.41 40.92 2.07 43.75-.5 0-16.91 0-16.91M365.94 98.53s-1.73 378.84-5 381-151.4 0-167-3.27-53.14 5-57.87 4.15-5.46-10.89-3.64-18.53 1.36-365 1.36-365z" fill="#fff" stroke="#262521" stroke-linecap="round" stroke-linejoin="round" stroke-width="3"/><path d="M372.14 291.55q-.27 61.74-.62 123.47c-.81 9-2.68 16.41-3.55 25.44-1 10.07 1.34 17.05-1.5 25.63-.59 1.77-2 1.67-3.35 1.44-44.59-7.74-101.66-5.72-146.65-2.92-24.6.57-58.62-1.68-83 2.09-5.23.59-5.68.27-6.62-4.83-1.35-11.26 1.94-18.53.53-29.31-6.15-46.82-1.39-94.37-3.6-141.53-1.42 2.83-2.94 5.6-4.29 8.46-2.37 10.67-17.5 9.3-11.81 16.18 11.11 7.95 6.41 21.38 5.15 32.56-.25 3.15-1.35 6.27-.37 9.58.51 8.44-3.19 16.94-4.38 25.31-1.5 8-2.61 15.83-1.54 23.93a5.1 5.1 0 01-1.13 3.3c-5.71 6.28-3.25 14-4.69 22.06-.57 3.18-.61 3-3.74 2-12.38-3.52-34.59-4.38-47.1-1.18-1.39.34-2.11 0-2.41-1.47-2-7.76 1.82-16.67-4.49-22.43a6.62 6.62 0 01-1.33-3.22A144.46 144.46 0 0139 372.86c-1.91-63 2.6-126.93 26.19-186 13.61-35.43 24.56-73.32 48.07-103.67 27.32-18.2 38.72-19.41 69.15-30.44a3.57 3.57 0 012.72.43c55.3 43.7 97.18 17.13 114.53 6.7 2.86-1.27 4.7-7.53 8.38-6 29.12 10.5 44.53 9.17 70.92 26.34 15.94 14.59 21.63 38 30.45 57.21 27.81 67.48 58 137.39 51.05 212.08-1.19 18.65-.23 37.45-3.28 55.95-.49 4.66-5.21 7.09-5.56 11.78-1.22 5.28-.08 10.65-.91 16-.4 2.6-.41 2.83-3.08 2.33-12.48-2.66-31.76-5.49-44.3-1.58-8.34-.15-3.63-15.56-6.94-21.4-6.28-7.37-3.61-9-5.33-17.64-.9-9.7-4.68-20.27.79-29.26 2-3.53 1.86-7.05.51-10.66-4.9-11.28-7.4-23.41-10.45-35.29-1.07-4.3-1.31-8.49 1.61-12.34 1.51-7.23-10.43-8.68-10.93-15.93z" fill="#262521" stroke="#262521" stroke-linecap="round" stroke-linejoin="round" stroke-width="3"/><path d="M131.45 157.8s57.62-41.25 79.41-83.57" fill="none" stroke="#8e8e8e" stroke-linecap="round" stroke-linejoin="round" stroke-width="2" stroke-dasharray="1 3"/><path d="M212.2 75l-2.52-1.65a1.49 1.49 0 00-1.81.3l-6.27 8.49-.89 1.21a1.52 1.52 0 00.38 2.34l3.67 2.4a1.33 1.33 0 001.31 0h.15l.18-.12.16-.15a1.51 1.51 0 00.18-.26q2.63-4.58 5.27-9.15l.75-1.3a1.53 1.53 0 00-.56-2.11zm-4.64 8L206 85.31a1 1 0 01-1.39.26l-1.25-.84a1 1 0 01-.26-1.39l1.55-2.29a1 1 0 011.39-.27l1.25.85a1 1 0 01.27 1.37z" fill="#84837e"/><rect x="209.16" y="70.74" width="2.36" height="9.43" rx=".68" transform="rotate(34.18 210.326 75.44)" fill="#aaa9a3"/><path d="M364.35 157.26S306.73 116 284.94 73.69" fill="none" stroke="#8e8e8e" stroke-linecap="round" stroke-linejoin="round" stroke-width="2" stroke-dasharray="1 3"/><path d="M283 76.49l.75 1.3q2.63 4.58 5.27 9.15a1.1 1.1 0 00.18.26l.15.15.18.12h.15a1.38 1.38 0 001.32 0l3.66-2.4a1.53 1.53 0 00.39-2.34l-.89-1.21-6.28-8.49a1.49 1.49 0 00-1.81-.3l-2.52 1.65a1.53 1.53 0 00-.55 2.11zm5.51 4.6l1.24-.85a1 1 0 011.39.27l1.56 2.29a1 1 0 01-.27 1.39l-1.24.84a1 1 0 01-1.39-.26l-1.56-2.29a1 1 0 01.27-1.39z" fill="#84837e"/><rect x="284.28" y="70.2" width="2.36" height="9.43" rx=".68" transform="rotate(145.82 285.46 74.931)" fill="#aaa9a3"/></svg>