<svg xmlns="http://www.w3.org/2000/svg" width="500" height="550" viewBox="0 0 500 550"><path d="M383.43 226.65l.93-.52c1.76.91 3.6 1.7 5.26 2.77s3 1.06 4.44-.36c3.37-3.31 6.63-6.77 10.26-9.78q18.76-15.6 37.78-30.91c4.18-3.37 8.62-6.43 13-9.6 1.47-1.06 2.32-2.11 1-3.94a26.8 26.8 0 01-2.23-4c-1-2.1-1.59-4.47-2.9-6.35-8.12-11.59-16.24-23.19-24.64-34.58-13.94-18.92-26.06-39.19-42.38-56.34a10.85 10.85 0 00-5.63-3.17c-4.78-1.23-9.57-2.41-14.27-3.9-4.49-1.41-8.78-3.47-13.31-4.73-10.12-2.82-20.34-5.31-30.51-8-2.59-.68-5.46-1-7.63-2.32a24.14 24.14 0 01-8.54-8.83c-2.86-5.17-6.29-9.91-11.62-13-6-3.45-12.5-3.23-19.06-3.16-11.63.12-23.29.49-34.89-.09-10.54-.52-20.89-.47-31.15 2.2-5.57 1.46-10.59 3.31-13.83 8.82-2.85 4.84-6.65 9.13-10.17 13.55a13.56 13.56 0 01-4.34 3.94 64.06 64.06 0 01-9.37 3.45c-5.55 1.69-11.21 3-16.73 4.82q-15.12 4.88-30.12 10.1c-4.69 1.63-9.68 2.53-12.87 7.29-4.27 6.38-9.39 12.18-13.69 18.54-7.43 11-14.37 22.34-21.79 33.35-5.15 7.65-10.87 14.91-16.1 22.5-3.36 4.88-6.32 10-9.43 15.09a19.3 19.3 0 00-1.43 2.88c-1.24 3.06-2.25 6.24-3.71 9.19-.76 1.54-.74 2.25.73 3.12 3.19 1.89 6.42 3.72 9.4 5.9 9.2 6.74 18.46 13.42 27.37 20.52s18.57 13.58 25.59 22.9c1 1.33 2.1 1.16 3.41.34 3.29-2 6.74-3.57 11-2.65.17 1.42.45 2.85.48 4.28.28 14.18.7 28.35.71 42.52 0 9.45-.59 18.9-.92 28.35Q120.31 342 119 377.26c-.33 8.72-.71 17.44-1.3 26.15-.65 9.71-1.86 19.4-2.25 29.12-.41 9.94-.18 19.91-.08 29.87 0 3.09.67.92.82 4 .17 3.76.08 7.54.17 11.32a3.5 3.5 0 003.27 3.71 43.3 43.3 0 005.19.55c9.66.28 19.13 3.91 28.57 2.17 8.88-1.64 17.74-3.24 26.82-3 12.72.29 25.44.73 38.16.79 14.1.06 28.21-.12 42.31-.43 16.58-.36 33.17-.59 49.71-1.6 19.34-1.17 38.63 3.45 58 5.05a67.2 67.2 0 0011.94-.34c2-.19 4-1.28 4.25-3.72.56-6.44 1.23-12.89 1.4-19.35.44-16.58.82-38.4.87-55q.18-55.32-2.06-110.61c-.83-20.85-.94-41.74-1.36-62.61-.03-2.23 0-4.46 0-6.68z" fill="#fff"/><path d="M383.43 226.65c.7 76.55 5.46 158.3 2.56 234.87-2.45 18.18 4.86 25.1-17.59 23.41-62.66-2.47-125.4-.22-188.15-3.81-20.4-.51-40.13 3.17-60.58.33-6.1-1.57-2.24-10.44-3.45-15-2.27-22.7-.51-40.33 1.52-63 2.13-57.17 6.57-114.56 3.53-171.72-5.35-2.41-12.29 5.53-14.41 2.31-7-9.32-16.63-15.77-25.59-22.9-12-9.13-23.75-18.76-36.77-26.42-1.47-.87-1.49-1.58-.73-3.12 6.57-18.6 19.66-33.6 30.67-49.7 11.45-17.57 22.64-35.3 35.48-51.9 3.19-4.76 8.18-5.66 12.87-7.29 18.43-7.06 37.79-11.49 56.22-18.37C189.81 47 193 30 207.33 28.13c10.26-2.68 20.61-2.73 31.15-2.21 17.82 2.22 37-3.7 54 3.24C301.89 34 303.57 45.94 312.59 51c16.82 5.63 35 8.11 51.45 15 6.52 2.72 14.44 2.2 19.9 7.07 25 28.25 44.6 60.66 67 90.92 2 3.2 2.81 7.25 5.13 10.34 1.29 1.83.44 2.88-1 3.94-17.64 12.56-34 26.85-50.74 40.51-3.63 3-6.89 6.47-10.26 9.78-3 3.12-6.57-1.54-9.7-2.41z" fill="#262521" stroke="#262521" stroke-linecap="round" stroke-linejoin="round" stroke-width="3"/><path d="M198.09 38.23s2.71 30.68 49.73 41.47m48.74-41.47s-.89 32.83-48.1 41.47" fill="none" stroke="#636363" stroke-linecap="round" stroke-linejoin="round"/><path d="M315.63 53.58l-30.32 53.83S267.1 86 248.46 79.7m-11.11 5.22v81.09h19.41" fill="none" stroke="#636363" stroke-linecap="round" stroke-linejoin="round"/><circle cx="248.9" cy="97.74" r="4.51" fill="#636363"/><circle cx="248.9" cy="123.64" r="4.51" fill="#636363"/><circle cx="248.9" cy="149.54" r="4.51" fill="#636363"/><path fill="#fff" stroke="#fff" stroke-linecap="round" stroke-linejoin="round" stroke-width="3" d="M291.2 124.14l28.36 1.15-21.93-17.88 7.75 27.04 9.51-26.42-23.69 16.11zM320 79.82l28.36-1.15-21.93 17.88 7.75-27.03 9.51 26.42L320 79.82zm-171.39 0l28.36-1.15-21.93 17.88 7.75-27.03 9.51 26.42-23.69-16.12zm28.8 44.32l28.35 1.15-21.92-17.88 7.75 27.04 9.51-26.42-23.69 16.11z"/><path d="M181.71 55.07l29.92 52.34S229.18 86 247.82 79.7" fill="none" stroke="#636363" stroke-linecap="round" stroke-linejoin="round"/></svg>