<svg xmlns="http://www.w3.org/2000/svg" width="500" height="550" viewBox="0 0 500 550"><path d="M365.91 84.57s-1.72 402.39-5 404.58-151.41 0-167.06-3.28-53.14 5-57.87 4.16-5.46-10.9-3.64-18.54 1.37-386.92 1.37-386.92z" fill="#fff" stroke="#262521" stroke-linecap="round" stroke-linejoin="round" stroke-width="3"/><path d="M372.14 295.65q-.27 61.74-.62 123.46c-.81 9-2.68 16.41-3.55 25.45-1 10.07 1.34 17-1.5 25.63-.59 1.77-2 1.67-3.35 1.43-44.59-7.73-101.66-5.71-146.65-2.92-24.6.58-58.62-1.67-83 2.09-5.23.6-5.68.28-6.62-4.82-1.35-11.26 1.94-18.53.53-29.31-6.15-46.82-1.39-94.38-3.6-141.53-1.42 2.82-2.94 5.6-4.29 8.45-2.37 10.68-17.5 9.31-11.81 16.19 11.11 8 6.41 21.38 5.15 32.56-.25 3.15-1.35 6.27-.37 9.58.51 8.43-3.19 16.94-4.38 25.31-1.5 8-10.42 41.27-11.86 49.29-.57 3.17-.61 3-3.74 2.05-12.38-3.52-26.09-4.38-38.6-1.18-1.39.34-2.11 0-2.41-1.47-2-7.76.82-16.67-5.49-22.43a6.66 6.66 0 01-1.33-3.22c-2.23-11-6.07-22.12-5.72-33.31-1.91-63 2.6-126.93 26.19-186 13.61-35.43 24.56-73.32 48.07-103.67 27.32-18.2 60-23.76 90.46-34.78a3.13 3.13 0 012.72.43c5 5.55 11.46 8.41 18.56 9.67 19.19 2.42 41.29 5.55 58.65-4.88 2.85-1.27 4.2-6.53 7.87-5 29.12 10.5 61 14.41 87.44 31.59 15.94 14.59 21.63 38 30.45 57.2 27.81 67.49 58 137.4 51.05 212.08-1.19 18.66-.23 37.45-3.28 56-.49 4.66-5.21 7.09-5.56 11.78-1.22 5.28-2.08 10.65-2.91 16-.4 2.6-.41 2.82-3.08 2.32-12.48-2.65-25.26-5.48-37.8-1.58-8.34-.14-8.13-15.55-11.44-21.4-6.28-7.37-3.61-9-5.33-17.63-.9-9.7-4.68-20.27.79-29.27 2-3.53 1.86-7 .51-10.65-4.9-11.29-7.4-23.42-10.45-35.3-1.07-4.3-1.31-8.49 1.61-12.33 1.51-7.24-10.43-8.68-10.93-15.93z" fill="#fff" stroke="#262521" stroke-linecap="round" stroke-linejoin="round" stroke-width="3"/><path d="M206 53s3.41 36.21 41.7 34.4S290.32 53 290.32 53" fill="none" stroke="#262521" stroke-linecap="round" stroke-linejoin="round" stroke-width="3"/><path d="M204.41 52.37s4 48.55 43.68 46.73 42.84-45.41 42.84-45.41M121.8 184.94s2.11 28.62 0 44.25.11 29.69.11 32.87 1.9 33.07 1.9 33.07M371.33 192.75s-1.25 73.86.81 102.9" fill="none" stroke="#262521" stroke-linecap="round" stroke-linejoin="round" stroke-width="3"/><path d="M51.32 413.6s28.66-9.48 45.15 2.48M402.18 416.08s25.94-8.31 43.55 0M197.66 62.63c2.77 14.3 15 47.82 50.14 46.21 36.25-1.66 46.89-34.35 49-46.52" fill="none" stroke="#636363" stroke-linecap="round" stroke-linejoin="round"/><path fill="none" stroke="#636363" stroke-linecap="round" stroke-linejoin="round" d="M231.16 106.67l16.18 25.56 15.15-25.7M287 86.84s56.74 40.56 64.95 66.5M207 86.84s-56.76 40.56-65 66.5M133.45 438.85s155.28-12.31 227.71 2.37"/><path d="M201.37 53.22S209.08 118 247.9 118s45.26-65 45.26-65" fill="none" stroke="#262521" stroke-linecap="round" stroke-linejoin="round" stroke-width="5" stroke-dasharray="1 3"/><path d="M247.08 118.05a1 1 0 010-2h1a1 1 0 011.05 1 1 1 0 01-1 1h-1zm-3-.12H244c-.34 0-.69-.07-1-.12a1 1 0 01.26-2l.95.11a1 1 0 01.91 1.08 1 1 0 01-1.04.93zm7-.18a1 1 0 01-.13-2l1-.14a1 1 0 01.32 2c-.34.06-.67.11-1 .15zm-10.91-.47h-.23c-.34-.08-.67-.16-1-.26a1 1 0 11.54-1.92l.93.24a1 1 0 01.74 1.21 1 1 0 01-1 .73zM255 117a1 1 0 01-.24-2l.93-.25a1 1 0 11.55 1.92l-1 .27a1.07 1.07 0 01-.24.06zm-18.61-.92a.94.94 0 01-.39-.08l-1-.4a1 1 0 11.81-1.83l.89.37a1 1 0 01-.37 1.93zm22.41-.3a1 1 0 01-.36-1.93l.9-.36a1 1 0 01.78 1.84l-1 .39a1.13 1.13 0 01-.35.05zm-26-1.43a1 1 0 01-.5-.13l-.88-.52a1 1 0 111-1.71c.27.17.55.33.83.49a1 1 0 01-.49 1.87zm29.62-.23a1 1 0 01-.47-1.88l.85-.47a1 1 0 011 1.74l-.9.49a1 1 0 01-.5.11zm-33-2a1 1 0 01-.6-.2l-.81-.62a1 1 0 111.23-1.57l.77.59a1 1 0 01.21 1.4 1 1 0 01-.78.44zm36.38-.13a1 1 0 01-.57-1.82c.27-.18.53-.37.79-.56a1 1 0 011.4.22 1 1 0 01-.22 1.4l-.84.59a1 1 0 01-.54.18zm-39.45-2.42a1 1 0 01-.68-.27l-.75-.7a1 1 0 011.39-1.44l.71.67a1 1 0 01-.67 1.74zm42.61 0a1 1 0 01-.65-1.76l.73-.64a1 1 0 011.34 1.49l-.77.67a1 1 0 01-.61.27zm2.9-2.73a1 1 0 01-.69-.28 1 1 0 010-1.41l.67-.71a1 1 0 011.41-.06 1 1 0 01.06 1.42c-.24.25-.47.5-.71.74a1 1 0 01-.72.33zm-48.32-.11a1 1 0 01-.74-.33c-.23-.25-.46-.5-.68-.76a1 1 0 111.51-1.31l.65.73a1 1 0 01-.07 1.42 1 1 0 01-.65.28zm51-2.87a1 1 0 01-.63-.23 1 1 0 01-.14-1.41l.62-.76a1 1 0 111.56 1.24l-.63.79a1 1 0 01-.78.4zm-53.54-.2a1 1 0 01-.79-.39l-.62-.81a1 1 0 011.61-1.2c.19.27.39.53.59.79a1 1 0 01-.18 1.4 1 1 0 01-.61.24zm56-3a1 1 0 01-.58-.18 1 1 0 01-.24-1.39l.56-.81a1 1 0 011.39-.26 1 1 0 01.26 1.39l-.57.83a1 1 0 01-.82.47zm-58.29-.27a1 1 0 01-.83-.45l-.56-.84a1 1 0 111.68-1.04c.17.27.36.55.54.82a1 1 0 01-.83 1.56zm60.48-3.07a1 1 0 01-.52-.14 1 1 0 01-.33-1.38l.51-.85a1 1 0 111.72 1l-.52.86a1 1 0 01-.9.56zM216.58 97a1 1 0 01-.87-.5l-.5-.87a1 1 0 011.73-1l.5.85a1 1 0 01-.36 1.37 1 1 0 01-.54.2zm64.61-3.15a1 1 0 01-.88-1.48l.46-.87a1 1 0 011.35-.43 1 1 0 01.42 1.35c-.15.3-.31.6-.47.9a1 1 0 01-.92.58zm-66.56-.35a1 1 0 01-.88-.53c-.16-.3-.32-.6-.47-.91a1 1 0 111.78-.9c.15.29.3.58.46.87a1 1 0 01-.89 1.47zM283 90.32a.9.9 0 01-.42-.1 1 1 0 01-.48-1.33l.42-.9a1 1 0 111.81.84l-.42.92a1 1 0 01-.91.57zM212.81 90a1 1 0 01-.91-.57l-.42-.92a1 1 0 111.82-.83c.13.3.27.6.41.89a1 1 0 01-.47 1.33 1 1 0 01-.43.1zm71.77-3.3a.84.84 0 01-.38-.08 1 1 0 01-.54-1.31l.38-.91a1 1 0 111.85.75l-.38.94a1 1 0 01-.93.57zm-73.4-.35a1 1 0 01-.92-.61l-.39-.93a1 1 0 011.84-.76l.39.91a1 1 0 01-.53 1.31 1.09 1.09 0 01-.39.04zm74.87-3.37a.91.91 0 01-.35-.07 1 1 0 01-.58-1.28l.34-.93a1 1 0 111.88.67c-.11.32-.23.64-.35 1a1 1 0 01-.94.57zm-76.37-.34a1 1 0 01-.94-.64l-.35-.94a1 1 0 011.87-.71l.35.93a1 1 0 01-.57 1.29.92.92 0 01-.36.03zm77.7-3.44a1.12 1.12 0 01-.31 0 1 1 0 01-.64-1.27c.11-.31.21-.63.31-.94a1 1 0 011.91.61c-.11.32-.21.64-.32 1a1 1 0 01-.95.56zm-79.08-.32a1 1 0 01-1-.67l-.33-1a1 1 0 111.9-.64l.32.94a1 1 0 01-.61 1.27 1 1 0 01-.28.06zm80.28-3.51a1 1 0 01-.29 0 1 1 0 01-.67-1.24l.27-1a1 1 0 011.93.54l-.28 1a1 1 0 01-.96.66zM207 75a1 1 0 01-.95-.7l-.31-1a1 1 0 011.91-.6l.3 1a1 1 0 01-.65 1.26 1 1 0 01-.3.04zm82.62-3.57a1.15 1.15 0 01-.26 0 1 1 0 01-.71-1.22l.24-1a1 1 0 111.94.48c-.08.33-.16.65-.25 1a1 1 0 01-.93.78zm-83.78-.27a1 1 0 01-1-.72l-.28-1a1 1 0 011.92-.54l.28 1a1 1 0 01-.69 1.24.84.84 0 01-.2.06zm84.73-3.62a.91.91 0 01-.23 0 1 1 0 01-.75-1.2l.22-1a1 1 0 112 .43l-.22 1a1 1 0 01-.99.81zm-85.8-.24a1 1 0 01-1-.75l-.25-1a1 1 0 111.94-.5l.25 1a1 1 0 01-.71 1.22.78.78 0 01-.2.07zm86.63-3.69a.62.62 0 01-.19 0 1 1 0 01-.79-1.17l.19-1a1 1 0 012 .38l-.2 1a1 1 0 01-.98.83zm-88.58-1l-.22-1a1 1 0 01.75-1.2 1 1 0 011.2.75l.21.91-1 .29zm89.31-3h-.17a1 1 0 01-.82-1.15c.06-.34.11-.66.16-1a1 1 0 012 .32c-.05.32-.11.65-.17 1a1 1 0 01-.97.93zM203 59.53a1 1 0 01-1-.79l-.2-1a1 1 0 111.95-.4l.21 1a1 1 0 01-.77 1.19zm89.81-3.79h-.13a1 1 0 01-.86-1.13c.05-.35.09-.68.13-1a1 1 0 011.12-.87 1 1 0 01.87 1.12c0 .3-.09.64-.14 1a1 1 0 01-1.04.88zm-90.6-.15a1 1 0 01-1-.81l-.18-1a1 1 0 112-.35l.18 1a1 1 0 01-.81 1.17z" fill="#b7b6b0"/><path d="M199.91 53.61a1 1 0 01-1-.84l-.08-.5a1 1 0 012-.29l.07.48a1 1 0 01-.83 1.14zM248 119.6h-1a1 1 0 11.08-2h1a1 1 0 010 2zm3-.11a1 1 0 01-.08-2l1-.09a1 1 0 011.11.88 1 1 0 01-.88 1.1l-1 .1zm-7-.17h-.13l-1-.16a1 1 0 11.33-2l1 .14a1 1 0 01-.13 2zm10.93-.39a1 1 0 01-.2-2l.94-.21a1 1 0 11.47 1.94l-1 .23zm-14.84-.39a.78.78 0 01-.26 0c-.33-.08-.66-.18-1-.28a1 1 0 11.57-1.91l.93.26a1 1 0 01-.25 2zm18.69-.68a1 1 0 01-.95-.67 1 1 0 01.62-1.27l.9-.34a1 1 0 01.73 1.87l-1 .35a1 1 0 01-.25.06zm-22.48-.59a1.08 1.08 0 01-.38-.08l-.94-.4a1 1 0 11.81-1.83l.89.38a1 1 0 01-.38 1.93zm26.15-1a1 1 0 01-.44-1.89l.85-.45a1 1 0 011 1.76l-.92.48a1 1 0 01-.44.13zm-29.75-.77a1 1 0 01-.48-.12c-.3-.17-.6-.34-.89-.52a1 1 0 111-1.71l.84.48a1 1 0 01-.49 1.87zm33.3-1.2a1 1 0 01-.55-1.84c.27-.17.53-.35.8-.54a1 1 0 111.15 1.63l-.85.58a1 1 0 01-.55.17zm-36.58-.9a1 1 0 01-.58-.19c-.28-.2-.56-.4-.83-.61a1 1 0 111.2-1.6l.79.58a1 1 0 01-.58 1.82zm39.79-1.49a1 1 0 01-.77-.36 1 1 0 01.12-1.4l.75-.64a1 1 0 011.31 1.51l-.78.66a.94.94 0 01-.67.23zm-42.93-1a1 1 0 01-.65-.25l-.77-.68a1 1 0 011.35-1.48l.73.65a1 1 0 01-.66 1.76zm45.87-1.7a1 1 0 01-.71-1.7c.23-.24.46-.47.68-.71a1 1 0 011.42 0 1 1 0 010 1.41l-.72.73a1 1 0 01-.71.27zm-48.76-1.07a1 1 0 01-.72-.3l-.7-.75a1 1 0 011.47-1.35l.67.71a1 1 0 010 1.41 1 1 0 01-.76.28zm51.46-1.89a1 1 0 01-.77-1.64c.21-.25.42-.5.62-.76a1 1 0 011.41-.15 1 1 0 01.15 1.4c-.21.27-.43.53-.64.79a1 1 0 01-.81.36zm-54.11-1.1a1 1 0 01-.78-.36l-.64-.8a1 1 0 011.57-1.24c.2.26.41.51.62.76a1 1 0 01-.14 1.41 1 1 0 01-.67.23zm56.56-2.06a1 1 0 01-.58-.19 1 1 0 01-.23-1.4l.57-.8a1 1 0 111.64 1.14c-.19.28-.39.56-.59.83a1 1 0 01-.85.42zm-59-1.11a1 1 0 01-.82-.42l-.59-.83a1 1 0 011.65-1.14c.18.27.37.53.57.8a1 1 0 01-.23 1.4 1.05 1.05 0 01-.62.21zm61.24-2.21a1 1 0 01-.53-.15 1 1 0 01-.32-1.38l.52-.84a1 1 0 011.37-.34 1 1 0 01.34 1.38l-.54.86a1 1 0 01-.88.47zM216 98.65a1 1 0 01-.84-.46l-.54-.86A1 1 0 01215 96a1 1 0 011.37.33l.53.84a1 1 0 01-.31 1.38 1 1 0 01-.59.1zm65.52-2.33a.91.91 0 01-.48-.13 1 1 0 01-.4-1.35l.48-.87a1 1 0 111.76.94c-.16.3-.32.6-.49.89a1 1 0 01-.86.52zM214 95.21a1 1 0 01-.87-.51c-.17-.29-.33-.59-.49-.88a1 1 0 111.75-1l.48.87a1 1 0 01-.38 1.36 1 1 0 01-.49.16zm69.44-2.45a1 1 0 01-.44-.1 1 1 0 01-.46-1.34c.15-.3.29-.59.43-.89a1 1 0 011.81.86l-.45.91a1 1 0 01-.94.56zm-71.33-1.08a1 1 0 01-.9-.55l-.45-.9a1 1 0 011.79-.89l.45.89a1 1 0 01-.44 1.34.93.93 0 01-.5.11zm73-2.55a1 1 0 01-.4-.09 1 1 0 01-.51-1.32l.39-.91a1 1 0 011.32-.52 1 1 0 01.52 1.31c-.13.31-.26.62-.4.93a1 1 0 01-.96.6zm-74.75-1.06a1 1 0 01-.91-.58c-.15-.31-.28-.61-.42-.92a1 1 0 111.82-.82c.14.3.28.6.41.9a1 1 0 01-.49 1.33 1 1 0 01-.45.09zm76.29-2.64a1.15 1.15 0 01-.36-.07 1 1 0 01-.57-1.3c.12-.31.25-.62.36-.93a1 1 0 011.29-.57 1 1 0 01.58 1.29c-.12.31-.24.63-.37.94a1 1 0 01-.97.64zm-77.9-1a1 1 0 01-.92-.62l-.39-.93a1 1 0 01.55-1.3 1 1 0 011.31.55c.12.3.24.61.37.91a1 1 0 01-.54 1.31.84.84 0 01-.42.05zM288 81.67a1 1 0 01-.34-.06 1 1 0 01-.61-1.27l.33-.94a1 1 0 011.89.65L289 81a1 1 0 01-1 .67zm-80.79-1a1 1 0 01-.93-.64l-.36-1a1 1 0 011.88-.69l.35.93a1 1 0 01-.59 1.29 1 1 0 01-.33.11zm82.06-2.8a1 1 0 01-.3-.05 1 1 0 01-.65-1.26l.3-1a1 1 0 011.91.6l-.31 1a1 1 0 01-.93.71zm-83.42-1a1 1 0 01-.94-.67l-.33-1a1 1 0 011.9-.63l.32.94a1 1 0 01-.62 1.27 1.26 1.26 0 01-.31.12zm84.6-2.87a1 1 0 01-.28 0 1 1 0 01-.68-1.24l.27-1a1 1 0 111.92.53c-.08.32-.18.65-.27 1a1 1 0 01-.96.71zm-85.83-.94a1 1 0 01-1-.7l-.3-1a1 1 0 011.91-.59l.3 1a1 1 0 01-.66 1.26 1 1 0 01-.25.06zm86.88-2.93a.69.69 0 01-.25 0 1 1 0 01-.72-1.21l.24-1a1 1 0 011.94.48l-.25 1a1 1 0 01-.96.76zm-88-.91a1 1 0 01-1-.73l-.27-1a1 1 0 01.7-1.23 1 1 0 011.23.7l.27 1a1 1 0 01-.69 1.23.9.9 0 01-.27.06zm89-3a.91.91 0 01-.23 0 1 1 0 01-.75-1.2l.22-1a1 1 0 011.95.43l-.22 1a1 1 0 01-1.03.81zm-90-.88a1 1 0 01-1-.76l-.25-1a1 1 0 011.94-.49l.25 1a1 1 0 01-.72 1.21.77.77 0 01-.29.08zm90.84-3h-.19a1 1 0 01-.79-1.17l.19-1a1 1 0 112 .37l-.19 1a1 1 0 01-1.09.79zm-91.79-.85a1 1 0 01-1-.78l-.23-1a1 1 0 01.77-1.19 1 1 0 011.19.76l.22 1a1 1 0 01-.75 1.2zM294 58.38h-.17a1 1 0 01-.82-1.16l.17-1a1 1 0 112 .32l-.16 1a1 1 0 01-1.02.84zm-93.36-.83a1 1 0 01-1-.8c-.07-.35-.14-.68-.2-1a1 1 0 01.79-1.17 1 1 0 011.18.8c0 .3.12.63.19 1a1 1 0 01-.78 1.18zM294.6 54.43h-.13a1 1 0 01-.86-1.12l.06-.47a1 1 0 112 .21s0 .18-.06.52a1 1 0 01-1.01.86z" fill="#7f7e78"/><path d="M262.4 114.11a1 1 0 01-.47-1.88l.85-.47a1 1 0 011 1.74l-.9.49a1 1 0 01-.48.12zm-33-2a1 1 0 01-.6-.2l-.81-.62a1 1 0 111.23-1.57l.77.59a1 1 0 01.21 1.4 1 1 0 01-.76.45zm36.38-.13a1 1 0 01-.57-1.82c.27-.18.53-.37.79-.56a1 1 0 011.4.22 1 1 0 01-.22 1.4l-.84.59a1 1 0 01-.52.19zm-39.45-2.42a1 1 0 01-.68-.27l-.75-.7a1 1 0 011.39-1.44l.71.67a1 1 0 01-.67 1.74zm42.61 0a1 1 0 01-.65-1.76l.73-.64a1 1 0 011.34 1.49l-.77.67a1 1 0 01-.59.28zm2.9-2.73a1 1 0 01-.69-.28 1 1 0 010-1.41l.67-.71a1 1 0 011.41-.06 1 1 0 01.06 1.42c-.24.25-.47.5-.71.74a1 1 0 01-.7.34zm-48.32-.11a1 1 0 01-.74-.33c-.23-.25-.46-.5-.68-.76a1 1 0 111.51-1.31l.65.73a1 1 0 01-.07 1.42 1 1 0 01-.63.29zm51-2.87a1 1 0 01-.63-.23 1 1 0 01-.14-1.41l.62-.76a1 1 0 111.56 1.24l-.63.79a1 1 0 01-.76.41zm2.42-3.18a1 1 0 01-.58-.18 1 1 0 01-.24-1.39l.56-.81a1 1 0 011.39-.26 1 1 0 01.26 1.39l-.57.83a1 1 0 01-.76.46z" fill="#fff" opacity=".86"/><g opacity=".86" fill="#fff"><path d="M199.91 53.61a1 1 0 01-1-.84l-.08-.5a1 1 0 012-.29l.07.48a1 1 0 01-.83 1.14zM266 114.3a1 1 0 01-.55-1.84c.27-.17.53-.35.8-.54a1 1 0 111.15 1.63l-.85.58a1 1 0 01-.55.17zm3.21-2.39a1 1 0 01-.77-.36 1 1 0 01.12-1.4l.75-.64a1 1 0 011.31 1.51l-.78.66a.94.94 0 01-.67.23zm-42.93-1a1 1 0 01-.65-.25l-.77-.68a1 1 0 011.35-1.48l.73.65a1 1 0 01-.66 1.76zm45.87-1.7a1 1 0 01-.71-1.7c.23-.24.46-.47.68-.71a1 1 0 011.42 0 1 1 0 010 1.41l-.72.73a1 1 0 01-.71.27zm-48.76-1.07a1 1 0 01-.72-.3l-.7-.75a1 1 0 011.47-1.35l.67.71a1 1 0 010 1.41 1 1 0 01-.76.28zm51.46-1.89a1 1 0 01-.77-1.64c.21-.25.42-.5.62-.76a1 1 0 011.41-.15 1 1 0 01.15 1.4c-.21.27-.43.53-.64.79a1 1 0 01-.81.36zm-54.11-1.1a1 1 0 01-.78-.36l-.64-.8a1 1 0 011.57-1.24c.2.26.41.51.62.76a1 1 0 01-.14 1.41 1 1 0 01-.67.23zM294.6 54.43h-.13a1 1 0 01-.86-1.12l.06-.47a1 1 0 112 .21s0 .18-.06.52a1 1 0 01-1.01.86z"/></g></svg>