<svg xmlns="http://www.w3.org/2000/svg" width="500" height="550" viewBox="0 0 500 550"><path d="M336.09 57.67c-5.35-3.38-4.85-8.67-6.86-12.68s-8.35 1-8.35 1-6.52-9.53-10.7-14.76-55.67 1.23-55.67 1.23h-6c-11-1.37-57.91-4.79-63.07 2.29-5.85 8-7.19 8-7.19 8s-4.85-4.85-8.69 0-21.02 17.45-17.68 23.8S190 84.1 190 84.1l58 23.8s94.95-36.67 96.29-40.85-2.85-6.05-8.2-9.38z" fill="#262521" stroke="#262521" stroke-linecap="round" stroke-linejoin="round" stroke-width="3"/><path d="M205.75 47.78s39.19 30.16 87.35 0l26.9 54.75-77.81 46.2-48.36-65.34z" fill="#9b9b9b" stroke="#262521" stroke-linecap="round" stroke-linejoin="round" stroke-width="3"/><path d="M204.51 48.28s3.53 36.21 43.2 34.39 44.15-34.39 44.15-34.39L365 77.75s-1.73 402.39-5 404.58-151.41 0-167.06-3.28-53.14 5-57.87 4.16-5.46-10.9-3.64-18.54 1.36-386.92 1.36-386.92z" fill="#bababa" stroke="#262521" stroke-linecap="round" stroke-linejoin="round" stroke-width="3"/><path d="M201.3 52.33s7.74 66.84 46.56 66.84 45.26-65 45.26-65" fill="none" stroke="#262521" stroke-linecap="round" stroke-linejoin="round" stroke-width="5" stroke-dasharray="1 3"/><path d="M247 119.26a1 1 0 010-2h1a1 1 0 11.09 2h-1zm-3-.12c-.34 0-.69-.06-1-.11a1 1 0 01.26-2l.95.1a1 1 0 01-.09 2zm7-.18a1 1 0 01-1-.87 1 1 0 01.86-1.12c.32 0 .64-.09 1-.15a1 1 0 01.32 2l-1 .15zm-10.9-.47a1 1 0 01-.24 0l-1-.26a1 1 0 11.54-1.92l.93.24a1 1 0 01-.23 2zm14.81-.29a1 1 0 01-.24-2l.93-.25a1 1 0 11.55 1.92l-1 .27a1 1 0 01-.22.06zm-18.61-.92a1.21 1.21 0 01-.37-.07l-1-.4a1 1 0 01-.51-1.32 1 1 0 011.32-.51l.89.37a1 1 0 01-.37 1.93zm22.41-.3a1 1 0 01-.93-.64 1 1 0 01.57-1.29l.9-.36a1 1 0 011.31.52 1 1 0 01-.53 1.32l-1 .38a.92.92 0 01-.3.09zm-26-1.43a1 1 0 01-.5-.13l-.88-.52a1 1 0 01-.34-1.38 1 1 0 011.38-.33c.27.17.55.33.83.49a1 1 0 01-.49 1.87zm29.62-.23a1 1 0 01-.47-1.88l.85-.47a1 1 0 111 1.73l-.9.5a1 1 0 01-.45.12zm-33-1.95a1 1 0 01-.6-.2l-.81-.62a1 1 0 011.23-1.58l.77.6a1 1 0 01.21 1.39 1 1 0 01-.73.41zm36.38-.13a1 1 0 01-.83-.43 1 1 0 01.26-1.39c.27-.19.53-.37.79-.57a1 1 0 011.4.23 1 1 0 01-.22 1.39l-.84.59a1 1 0 01-.49.18zm-39.45-2.42a1 1 0 01-.68-.27l-.75-.7a1 1 0 010-1.42 1 1 0 011.41 0l.71.67a1 1 0 01-.67 1.74zm42.61 0a1 1 0 01-.65-1.76l.73-.64a1 1 0 011.41.07 1 1 0 01-.07 1.42l-.77.67a1 1 0 01-.58.23zm2.9-2.73a1 1 0 01-.69-.28 1 1 0 010-1.42l.67-.7a1 1 0 011.41-.06 1 1 0 01.06 1.42l-.71.74a1 1 0 01-.67.29zm-48.25-.09a1 1 0 01-.74-.33l-.68-.76a1 1 0 01.1-1.42 1 1 0 011.41.11l.65.73a1 1 0 01-.07 1.41 1 1 0 01-.67.26zm51-2.87a1 1 0 01-.63-.23 1 1 0 01-.14-1.41l.62-.76a1 1 0 111.56 1.24l-.63.79a1 1 0 01-.8.34zM221 104.9a1 1 0 01-.79-.39l-.62-.82a1 1 0 01.21-1.39 1 1 0 011.4.2c.19.27.39.53.59.79a1 1 0 01-.79 1.61zm56-3a1 1 0 01-.58-.18 1 1 0 01-.24-1.4c.19-.26.38-.53.56-.8a1 1 0 111.66 1.12l-.58.84a1 1 0 01-.9.44zm-58.29-.27a1 1 0 01-.83-.45c-.19-.28-.38-.56-.56-.85a1 1 0 111.68-1.08c.17.27.36.55.54.82a1 1 0 01-.28 1.39 1 1 0 01-.63.19zm60.48-3.07a1 1 0 01-.52-.15 1 1 0 01-.33-1.37l.51-.85a1 1 0 011.72 1l-.52.87a1 1 0 01-.94.52zm-62.61-.32a1 1 0 01-.87-.5l-.5-.87a1 1 0 111.73-1l.5.86a1 1 0 01-.36 1.37 1 1 0 01-.58.16zm64.61-3.16a1 1 0 01-.47-.11 1 1 0 01-.41-1.36c.15-.29.31-.58.46-.88a1 1 0 011.77.93c-.15.3-.31.6-.47.9a1 1 0 01-.96.54zm-66.56-.34a1 1 0 01-.88-.54l-.47-.9a1 1 0 01.44-1.34 1 1 0 011.34.43c.15.3.3.59.46.88a1 1 0 01-.89 1.47zm68.36-3.23a1 1 0 01-.42-.1 1 1 0 01-.57-1.31l.42-.9a1 1 0 111.81.84l-.42.91a1 1 0 01-.9.58zm-70.14-.36a1 1 0 01-.9-.58c-.15-.3-.29-.61-.43-.91a1 1 0 111.82-.84c.13.3.27.6.41.9a1 1 0 01-.47 1.33 1 1 0 01-.51.12zm71.77-3.3a1 1 0 01-.92-1.39l.38-.91a1 1 0 111.85.75l-.38.93a1 1 0 01-1.01.64zm-73.4-.35a1 1 0 01-.92-.61l-.39-.93a1 1 0 01.54-1.31 1 1 0 011.3.54l.39.91a1 1 0 01-.53 1.32 1.09 1.09 0 01-.47.1zM286 84.14a1.12 1.12 0 01-.35-.06 1 1 0 01-.58-1.29c.11-.31.23-.62.34-.92a1 1 0 111.88.67c-.11.32-.23.64-.35.95a1 1 0 01-.94.65zm-76.37-.33a1 1 0 01-.94-.64l-.35-1a1 1 0 111.87-.7l.35.93a1 1 0 01-.57 1.29 1.15 1.15 0 01-.35.12zm77.7-3.45a.84.84 0 01-.31 0 1 1 0 01-.64-1.26c.11-.32.21-.63.31-.94a1 1 0 011.91.6c-.11.33-.21.65-.32 1a1 1 0 01-.94.6zm-79.08-.31a1 1 0 01-.95-.68l-.33-1a1 1 0 111.9-.64l.32.94a1 1 0 01-.61 1.27 1 1 0 01-.32.11zm80.28-3.51a1 1 0 01-.29 0 1 1 0 01-.67-1.24l.27-1a1 1 0 011.93.55l-.28 1a1 1 0 01-.95.69z" fill="#b7b6b0"/><path d="M248 120.8h-1a1 1 0 01.08-2h1a1 1 0 010 2zm3-.1a1 1 0 01-.08-2l1-.1a1 1 0 01.23 2l-1 .1zm-7-.18h-.13q-.51-.06-1-.15a1 1 0 11.33-2l1 .14a1 1 0 01.85 1.13 1 1 0 01-1.05.88zm10.93-.38a1 1 0 01-1-.8 1 1 0 01.78-1.18l.94-.22a1 1 0 01.47 2l-1 .22a.76.76 0 01-.18-.02zm-14.84-.39a1.17 1.17 0 01-.26 0l-1-.28a1 1 0 01-.67-1.25 1 1 0 011.24-.66l.93.26a1 1 0 01-.25 2zm18.69-.68a1 1 0 01-.33-1.95l.91-.33a1 1 0 11.72 1.86c-.32.13-.65.25-1 .36a1 1 0 01-.29.06zm-22.48-.6a1.06 1.06 0 01-.38-.07l-.92-.4a1 1 0 11.81-1.82l.89.38a1 1 0 01-.38 1.92zm26.15-1a1 1 0 01-.89-.55 1 1 0 01.45-1.35c.29-.14.57-.29.85-.44a1 1 0 111 1.75c-.3.17-.61.33-.92.48a1 1 0 01-.48.15zm-29.75-.77a.94.94 0 01-.48-.13c-.3-.16-.6-.33-.89-.51a1 1 0 011-1.72l.84.49a1 1 0 01-.49 1.87zm33.21-1.23a1 1 0 01-.55-1.84l.8-.54a1 1 0 111.15 1.63l-.85.58a1 1 0 01-.54.21zm-36.58-.91a1 1 0 01-.58-.18l-.83-.61a1 1 0 111.2-1.6l.79.58a1 1 0 01.23 1.39 1 1 0 01-.8.46zm39.79-1.48a1 1 0 01-.77-.36 1 1 0 01.13-1.41l.74-.63a1 1 0 111.31 1.5c-.25.23-.51.45-.78.67a.94.94 0 01-.62.27zm-42.93-1a1 1 0 01-.65-.25l-.77-.68a1 1 0 01-.06-1.42 1 1 0 011.41-.06l.73.65a1 1 0 01-.66 1.76zm45.87-1.7a1 1 0 01-.71-1.71c.23-.23.46-.46.68-.7a1 1 0 111.46 1.38l-.72.73a1 1 0 01-.7.34zm-48.76-1.07a1 1 0 01-.72-.31l-.7-.74a1 1 0 011.47-1.36l.67.72a1 1 0 010 1.41 1 1 0 01-.71.32zm51.46-1.89a1 1 0 01-.64-.24 1 1 0 01-.13-1.41l.62-.75a1 1 0 011.41-.16 1 1 0 01.15 1.41l-.64.79a1 1 0 01-.76.4zm-54.11-1.1a1 1 0 01-.78-.37c-.21-.26-.43-.52-.64-.79a1 1 0 011.57-1.24l.62.76a1 1 0 01-.14 1.41 1 1 0 01-.62.27zm56.56-2.07a1 1 0 01-.58-.19 1 1 0 01-.23-1.39c.2-.27.38-.54.57-.81a1 1 0 011.64 1.15c-.19.28-.39.55-.59.83a1 1 0 01-.8.45zm-59-1.11a1 1 0 01-.82-.41l-.58-.83a1 1 0 111.64-1.15c.19.27.37.54.57.81a1 1 0 01-.23 1.39 1 1 0 01-.57.23zm61.24-2.2a.92.92 0 01-.53-.16 1 1 0 01-.32-1.38c.17-.27.35-.55.52-.84a1 1 0 011.37-.33 1 1 0 01.34 1.38l-.54.86a1 1 0 01-.83.53zM216 99.86a1 1 0 01-.84-.46l-.54-.87a1 1 0 111.7-1l.53.84a1 1 0 01-.31 1.38 1 1 0 01-.54.11zm65.52-2.33a.91.91 0 01-.48-.13 1 1 0 01-.39-1.36l.47-.87a1 1 0 111.76 1l-.48.89a1 1 0 01-.91.47zm-67.58-1.11a1 1 0 01-.87-.51c-.17-.29-.33-.59-.49-.89a1 1 0 01.39-1.35 1 1 0 011.36.39l.48.87a1 1 0 01-.38 1.36 1 1 0 01-.52.13zM283.35 94a1 1 0 01-.44-.1 1 1 0 01-.46-1.34c.15-.3.29-.6.43-.89a1 1 0 011.33-.48 1 1 0 01.48 1.34l-.45.91a1 1 0 01-.89.56zM212 92.89a1 1 0 01-.9-.55l-.45-.9a1 1 0 011.79-.89l.45.88a1 1 0 01-.44 1.35 1.06 1.06 0 01-.45.11zm73-2.56a1 1 0 01-.4-.08 1 1 0 01-.51-1.32l.39-.91a1 1 0 111.84.79c-.13.31-.26.62-.4.93a1 1 0 01-.92.59zm-74.75-1a1 1 0 01-.91-.58l-.42-.92a1 1 0 01.5-1.33 1 1 0 011.33.51l.4.9a1 1 0 01-.49 1.33 1 1 0 01-.38.04zm76.29-2.65a.92.92 0 01-.36-.07 1 1 0 01-.57-1.3c.13-.3.25-.61.36-.92a1 1 0 111.87.72c-.12.31-.24.62-.37.94a1 1 0 01-.9.58zm-77.9-1a1 1 0 01-.92-.62l-.39-.93a1 1 0 011.86-.76c.12.31.24.62.37.92a1 1 0 01-.92 1.39zm79.36-2.8a1 1 0 01-1-1.34l.33-.94a1 1 0 111.89.66l-.33.95a1 1 0 01-.89.67zm-80.79-1a1 1 0 01-.93-.65l-.36-.94a1 1 0 111.88-.69l.35.93a1 1 0 01-.59 1.29 1 1 0 01-.37.06zm82.06-2.8a1 1 0 01-.3 0 1 1 0 01-.65-1.26l.3-1a1 1 0 111.91.6l-.31 1a1 1 0 01-.97.66z" fill="#7f7e78"/><path d="M262.36 115.32a1 1 0 01-.47-1.88l.85-.47a1 1 0 111 1.73l-.9.5a1 1 0 01-.48.12zm-33-1.95a1 1 0 01-.6-.2l-.81-.62a1 1 0 011.23-1.58l.77.6a1 1 0 01.21 1.39 1 1 0 01-.76.41zm36.38-.13a1 1 0 01-.83-.43 1 1 0 01.26-1.39c.27-.19.53-.37.79-.57a1 1 0 011.4.23 1 1 0 01-.22 1.39l-.84.59a1 1 0 01-.52.18zm-39.45-2.42a1 1 0 01-.68-.27l-.75-.7a1 1 0 010-1.42 1 1 0 011.41 0l.71.67a1 1 0 01-.67 1.74zm42.61 0a1 1 0 01-.65-1.76l.73-.64a1 1 0 011.41.07 1 1 0 01-.07 1.42l-.77.67a1 1 0 01-.61.23zm2.9-2.73a1 1 0 01-.69-.28 1 1 0 010-1.42l.67-.7a1 1 0 011.41-.06 1 1 0 01.06 1.42l-.71.74a1 1 0 01-.7.29zm-48.28-.09a1 1 0 01-.74-.33l-.68-.76a1 1 0 01.1-1.42 1 1 0 011.41.11l.65.73a1 1 0 01-.07 1.41 1 1 0 01-.67.26zm51-2.87a1 1 0 01-.63-.23 1 1 0 01-.14-1.41l.62-.76a1 1 0 111.56 1.24l-.63.79a1 1 0 01-.8.34zm2.42-3.18a1 1 0 01-.58-.18 1 1 0 01-.24-1.4c.19-.26.38-.53.56-.8a1 1 0 111.66 1.12l-.58.84a1 1 0 01-.84.39z" fill="#fff" opacity=".86"/><path d="M265.92 115.51a1 1 0 01-.55-1.84l.8-.54a1 1 0 111.15 1.63l-.85.58a1 1 0 01-.55.17zm3.21-2.39a1 1 0 01-.77-.36 1 1 0 01.13-1.41l.74-.63a1 1 0 111.31 1.5c-.25.23-.51.45-.78.67a.94.94 0 01-.63.23zm-42.93-1a1 1 0 01-.65-.25l-.77-.68a1 1 0 01-.06-1.42 1 1 0 011.41-.06l.73.65a1 1 0 01-.66 1.76zm45.87-1.7a1 1 0 01-.71-1.71c.23-.23.46-.46.68-.7a1 1 0 111.46 1.38l-.72.73a1 1 0 01-.71.3zm-48.76-1.07a1 1 0 01-.72-.31l-.7-.74a1 1 0 011.47-1.36l.67.72a1 1 0 010 1.41 1 1 0 01-.72.28zm51.46-1.89a1 1 0 01-.64-.24 1 1 0 01-.13-1.41l.62-.75a1 1 0 011.41-.16 1 1 0 01.15 1.41l-.64.79a1 1 0 01-.77.36zm-54.11-1.1a1 1 0 01-.78-.37c-.21-.26-.43-.52-.64-.79a1 1 0 011.57-1.24l.62.76a1 1 0 01-.14 1.41 1 1 0 01-.63.23z" fill="#fff" opacity=".86"/><path d="M372.14 291.55q-.27 61.74-.62 123.47c-.81 9-.4 13.05-5.5 20.56-2.9 8.57 2.28 22-.56 30.55-.59 1.77-2 1.67-3.35 1.44-44.59-7.74-100.65-5.76-145.64-3-24.6.57-59.87 1.33-84.22 5.1-5.22.59-5.68.27-6.62-4.82-1.35-11.26 4.11-20-1.29-29.55-7.67-13.53 1.68-97.15-.53-144.31-1.42 2.83-2.94 5.6-4.29 8.46-2.37 10.67-17.5 9.3-11.81 16.18 11.11 7.95 6.41 21.38 5.15 32.56-.25 3.15-1.35 6.27-.37 9.58.51 8.44-3.19 16.94-4.38 25.31-1.5 8-2.61 15.83-1.54 23.93a5.1 5.1 0 01-1.13 3.3c-5.71 6.28-7.75 14-9.19 22.06-.57 3.18-.61 3-3.74 2-12.38-3.52-26.09-4.38-38.6-1.18-1.39.34-2.11 0-2.41-1.47-2-7.76-2.18-16.67-8.49-22.43a6.62 6.62 0 01-1.33-3.22A144.46 144.46 0 0139 372.86c-1.91-63 2.6-126.93 26.19-186 13.61-35.43 24.56-73.32 48.07-103.67C140.54 65 173.58 59.3 204 48.28c.81-.26-.3 78.25 43.71 97.24 50.78-20.28 40.47-98.78 44.14-97.24C321 58.77 352.53 63 378.92 80.21c15.94 14.59 21.63 38 30.45 57.21 27.81 67.48 58 137.39 51.05 212.08-1.19 18.65-.23 37.45-3.28 55.95-.49 4.66-5.21 7.1-5.56 11.78-1.22 5.28-2.08 10.65-2.91 16-.4 2.6-.41 2.83-3.08 2.33-12.48-2.66-25.26-5.49-37.8-1.58-8.34-.15-8.13-15.56-11.44-21.4-6.28-7.37-3.61-9-5.33-17.64-.9-9.7-4.68-20.27.79-29.26 2-3.53 1.86-7.05.51-10.66-4.9-11.28-7.4-23.41-10.45-35.29-1.07-4.3-1.31-8.49 1.61-12.34 1.51-7.23-10.43-8.68-10.93-15.93z" fill="#262521" stroke="#262521" stroke-linecap="round" stroke-linejoin="round" stroke-width="3"/><path d="M195.4 119.76s46.8 20.62 52.32 25.76l3.77 317.23M294.39 115.06s-49.53 35.54-46.55 40.83" fill="none" stroke="#636363" stroke-linecap="round" stroke-linejoin="round"/><path d="M203.33 116.32q1.86 26.52 2.49 53.1t0 53.4q-.36 15-1.11 30c-.1 1.93 2.9 1.93 3 0q1.32-26.55 1.42-53.14T208 146.33q-.66-15-1.71-30c-.14-1.91-3.14-1.93-3 0z" fill="#fff"/><path d="M206.91 238.53a2.45 2.45 0 00-2.3 1.82 2.57 2.57 0 00.63 2.6 2.66 2.66 0 003.16.28 2.79 2.79 0 001.38-2.76 3 3 0 00-.75-1.61 3.27 3.27 0 00-1.35-.88 3.15 3.15 0 00-2.87.39 3.85 3.85 0 00-1.62 2.41 3.92 3.92 0 000 1.6 3.34 3.34 0 00.72 1.4 2.61 2.61 0 003.31.55 2.49 2.49 0 001-3.37 1.55 1.55 0 00-.9-.68 1.49 1.49 0 00-1.15.15 1.52 1.52 0 00-.54 2l.06.12-.15-.36a.76.76 0 01.06.2l-.06-.4a.49.49 0 010 .17l.06-.4a2.17 2.17 0 01-.07.24l.15-.36a1.43 1.43 0 01-.15.27l.23-.31a1.61 1.61 0 01-.22.23l.3-.24a1.29 1.29 0 01-.32.19l.36-.15-.26.07.4-.06a.82.82 0 01-.27 0l.4.05a.84.84 0 01-.27-.08l.36.15a2 2 0 01-.25-.14l.3.23a1.72 1.72 0 01-.27-.27l.23.3a2.32 2.32 0 01-.21-.38l.15.36a2 2 0 01-.14-.53l.05.39a2.53 2.53 0 010-.55l-.05.4a2.12 2.12 0 01.16-.56l-.16.36a3.5 3.5 0 01.31-.53l-.24.31a2.5 2.5 0 01.43-.43l-.31.23a2.2 2.2 0 01.47-.27l-.36.15a1.81 1.81 0 01.47-.13l-.4.05a1.55 1.55 0 01.43 0l-.4-.05a1.91 1.91 0 01.41.11l-.36-.15a1.76 1.76 0 01.42.24l-.3-.23a2.06 2.06 0 01.3.29l-.24-.3a1.65 1.65 0 01.22.36l-.15-.36a2.25 2.25 0 01.09.35l-.05-.4a1.6 1.6 0 010 .31l.06-.4a1.58 1.58 0 01-.09.31l.15-.36a1.56 1.56 0 01-.16.28l.23-.3-.26.26.3-.24a1.5 1.5 0 01-.32.19l.36-.15a1.4 1.4 0 01-.35.1h.4a1.14 1.14 0 01-.32 0l.4.06-.25-.07.35.15a1.18 1.18 0 01-.19-.11l.3.23-.16-.16.23.3a1.18 1.18 0 01-.11-.19l.15.36a1.67 1.67 0 01-.08-.3l.05.4a1.06 1.06 0 010-.31l-.06.4a1.89 1.89 0 01.09-.34l-.15.35a1.35 1.35 0 01.15-.26l-.23.3a.77.77 0 01.18-.18l-.31.23a.69.69 0 01.19-.1l-.36.15.18-.05-.39.05h.11a1.5 1.5 0 000-3zM287.25 115.32c1.24 17.66 1.49 35.36 1.51 53.05s-.2 35.45.13 53.17c.19 10.11.56 20.23 1.24 30.32.13 1.92 3.13 1.93 3 0-1.19-17.76-1.42-35.56-1.43-53.35s.2-35.39-.15-53.08c-.21-10.05-.6-20.09-1.3-30.11-.13-1.91-3.13-1.93-3 0z" fill="#fff"/><path d="M291.84 237.53a2.46 2.46 0 00-2.31 1.82 2.59 2.59 0 00.63 2.6 2.66 2.66 0 003.16.28 2.79 2.79 0 001.39-2.76 3.09 3.09 0 00-.76-1.61 3.2 3.2 0 00-1.35-.88 3.14 3.14 0 00-2.86.39 3.87 3.87 0 00-1.63 2.41 4.1 4.1 0 000 1.6 3.36 3.36 0 00.73 1.4 2.59 2.59 0 003.3.55 2.49 2.49 0 001-3.37 1.56 1.56 0 00-.89-.68 1.5 1.5 0 00-1.7 2.2.75.75 0 01.07.12l-.15-.36a1.46 1.46 0 01.05.2l-.05-.4v.17l.05-.4a1.05 1.05 0 01-.06.24l.15-.36a2.4 2.4 0 01-.16.27l.23-.31a1.2 1.2 0 01-.22.23l.3-.24a1.44 1.44 0 01-.31.19l.35-.15-.26.07.4-.06a.82.82 0 01-.27 0l.4.05a.92.92 0 01-.27-.08l.36.15a2 2 0 01-.25-.14l.3.23a1.72 1.72 0 01-.27-.27l.24.3a1.79 1.79 0 01-.22-.38l.15.36a2.44 2.44 0 01-.14-.53l.06.39a2.53 2.53 0 010-.55l-.06.4a2.58 2.58 0 01.16-.56l-.15.36a2.78 2.78 0 01.3-.53l-.23.31a2.14 2.14 0 01.42-.43l-.3.23a1.92 1.92 0 01.46-.27l-.36.15a1.93 1.93 0 01.47-.13l-.4.05a1.55 1.55 0 01.43 0l-.4-.05a1.91 1.91 0 01.41.11l-.35-.15a1.69 1.69 0 01.41.24l-.3-.23a2.06 2.06 0 01.3.29l-.23-.3a1.62 1.62 0 01.21.36l-.15-.36a1.54 1.54 0 01.1.35l-.06-.4a1.63 1.63 0 010 .31l.05-.4a1.11 1.11 0 01-.09.31l.15-.36a1.12 1.12 0 01-.16.28l.23-.3a1.6 1.6 0 01-.26.26l.3-.24a1.29 1.29 0 01-.32.19l.36-.15a1.4 1.4 0 01-.35.1h.4a1.07 1.07 0 01-.31 0l.4.06-.26-.07.36.15-.2-.11.31.23a.87.87 0 01-.17-.16l.24.3a.76.76 0 01-.12-.19l.15.36a1.09 1.09 0 01-.07-.3l.05.4a1.6 1.6 0 010-.31l-.05.4a1 1 0 01.09-.34l-.16.35a1.35 1.35 0 01.15-.26l-.23.3a.77.77 0 01.18-.18l-.3.23a.69.69 0 01.19-.1l-.36.15.18-.05-.4.05h.12a1.5 1.5 0 000-3z" fill="#fff"/><path fill="#636363" d="M254.26 473.72h-5.49l.86-15.1h3.77l.86 15.1z"/><path d="M254.26 472.22h-5.49l1.5 1.5.75-13.2.1-1.9-1.5 1.5h3.78l-1.5-1.5.75 13.2.11 1.9c.11 1.92 3.11 1.93 3 0l-.75-13.2-.11-1.9a1.52 1.52 0 00-1.5-1.5h-3.78a1.53 1.53 0 00-1.5 1.5l-.75 13.2-.1 1.9a1.51 1.51 0 001.5 1.5h5.49a1.5 1.5 0 000-3z" fill="#636363"/><path d="M249.55 153.52h-3a1.51 1.51 0 00-1.35 1.24c-.19 3.51-.38 7-.58 10.54 0 .5-.05 1-.08 1.5a1.53 1.53 0 001.61 1.75h4.38a1.37 1.37 0 001.12-.69v-.05s0-.07.05-.1l.09-.2v-.06a1.29 1.29 0 00.05-.21 1.08 1.08 0 000-.31c-.2-3.51-.41-7-.62-10.54 0-.5 0-1-.08-1.5a1.54 1.54 0 00-1.59-1.37zm.53 9.25l-.05 2.77a1 1 0 01-1 1h-1.5a1 1 0 01-1-1l.05-2.77a1 1 0 011-1h1.5a1 1 0 011 1z" fill="#84837e"/></svg>