<svg xmlns="http://www.w3.org/2000/svg" width="500" height="550" viewBox="0 0 500 550"><path d="M365.52 416.93s-1.73 60.44-5 62.62-151.41 0-167.06-3.27-53.14 5-57.87 4.15-5.46-10.89-3.64-18.53 1.36-45 1.36-45z" fill="#fff" stroke="#262521" stroke-linecap="round" stroke-linejoin="round" stroke-width="3"/><path d="M372.14 291.55q-.27 61.74-.62 123.47c-.81 9-2.68 16.41-3.55 25.44-1 10.07 1.34 17.05-1.5 25.63-.59 1.77-2 1.67-3.35 1.44-44.59-7.74-101.66-5.72-146.65-2.92-24.6.57-58.62-1.68-83 2.08-5.23.6-5.68.28-6.62-4.82-1.35-11.26 1.94-18.53.53-29.31-6.15-46.82-1.39-94.37-3.6-141.53-1.42 2.83-2.94 5.6-4.29 8.46-2.37 10.67-17.5 9.3-11.81 16.18 11.11 7.95 6.41 21.38 5.15 32.56-.25 3.15-1.35 6.27-.37 9.58.51 8.44-3.19 16.94-4.38 25.31-1.5 8-2.61 15.83-1.54 23.93a5.1 5.1 0 01-1.13 3.3c-5.71 6.28-7.75 14-9.19 22.06-.57 3.18-.61 3-3.74 2-12.38-3.52-26.09-4.38-38.6-1.18-1.39.34-2.11 0-2.41-1.47-2-7.76-2.18-16.67-8.49-22.43a6.62 6.62 0 01-1.33-3.22A144.46 144.46 0 0139 372.86c-1.91-63 2.6-126.93 26.19-186 13.61-35.43 24.56-73.32 48.07-103.67 27.32-18.2 60-23.76 90.46-34.78a3.16 3.16 0 012.72.43c5 5.55 11.46 8.41 18.56 9.67 19.19 2.43 41.29 5.55 58.65-4.88 2.85-1.27 4.2-6.53 7.87-5 29.12 10.49 61 14.41 87.44 31.58 15.94 14.59 21.63 38 30.45 57.21 27.81 67.48 58 137.39 51.05 212.07-1.19 18.66-.23 37.46-3.28 56-.49 4.66-5.21 7.09-5.56 11.78-1.22 5.28-2.08 10.65-2.91 16-.4 2.6-.41 2.83-3.08 2.33-12.48-2.66-25.26-5.49-37.8-1.58-8.34-.15-8.13-15.56-11.44-21.4-6.28-7.37-3.61-9-5.33-17.64-.9-9.7-4.68-20.27.79-29.26 2-3.53 1.86-7.05.51-10.66-4.9-11.28-7.4-23.42-10.45-35.29-1.07-4.3-1.31-8.49 1.61-12.34 1.51-7.23-10.43-8.68-10.93-15.93z" fill="#262521" stroke="#262521" stroke-miterlimit="10" stroke-width="3"/><path d="M242 67.27c15.78-13.72 34.32 1.55 26.85 23.71C246.87 118 231.83 88.42 242 67.27zm-2.57 74.38c-7.69-28.86 18.95-39.68 29.38-15.35 10.19 24.14-24.08 38.84-29.38 15.35z" fill="#221717" opacity=".95"/><path d="M269.94 145.05c-2.76 9.59-15 7.88-21.16 13.42-3.27-.69-10.63 1.37-12.38-1.25-.5-13.34-1-27.33 3.15-40.16 6.21-9.4-.78-18.57-1.83-28.21a153.68 153.68 0 01-.79-22.19c0-13.86 1-8.93 12.76-9.69 6.25 5.52 18.74 4.32 21.23 14.11 2.33 13.53 3.85 28-16.29 31.79-1.65.63-4.42.69-4.53 2.95-1.88 14.83 29.57-.82 19.84 39.23zM241 73.71c-.44 7.91-1 17.29 3.75 24 5 4.74 12 2 17.46-.34 6-2.07 7.12-8.83 7.21-14.44-.19-5.6 0-13.33-5.87-16.15-7.91-3.62-22.33-4.94-22.55 6.93zm.71 73.7c5.3 6.76 22.41 4.64 25.42-3.67 1.9-7.54 3.84-18.49-2.91-24.06-23.69-14.95-26.98 9.99-22.49 27.73z" fill="#3f5443" stroke="#636363" stroke-linecap="round" stroke-linejoin="round"/></svg>