<svg xmlns="http://www.w3.org/2000/svg" width="500" height="550" viewBox="0 0 500 550"><path d="M336.09 57.67c-5.35-3.38-4.85-8.67-6.86-12.68s-8.35 1-8.35 1-6.52-9.53-10.7-14.76-55.67 1.23-55.67 1.23h-6c-11-1.37-57.91-4.79-63.07 2.29-5.85 8-7.19 8-7.19 8s-4.85-4.85-8.69 0-21.02 17.45-17.68 23.8S190 84.1 190 84.1l58 23.8s94.95-36.67 96.29-40.85-2.85-6.05-8.2-9.38z" fill="#262521" stroke="#262521" stroke-miterlimit="10" stroke-width="3"/><path d="M204.51 48.28s3.53 36.21 43.2 34.39 44.15-34.39 44.15-34.39L365 77.75s-2.3 368.48-5.58 370.67-151.4 0-167-3.28-53.14 5-57.87 4.16-5.46-10.9-3.64-18.54 1.93-353 1.93-353z" fill="#262521"/><path d="M204.61 157.78c-22.4-44.73.21-109.76-.6-109.5-30.43 11-63.47 16.7-90.79 34.9-23.51 30.35-34.46 68.24-48.07 103.67-23.59 59.08-28.1 123-26.19 186a144.46 144.46 0 002.72 33.3c.24 1.13 1.29 17.37 3.33 25.13.3 1.47 1 1.47 2.4 1.47 15.64 0 40.06-2.14 52.44 1.38 3.12.94 3.17 1.12 3.74-2.05 1.44-8 3-23.93 3-25-1.07-8.1 0-16 1.54-23.93 1.19-8.37 4.89-16.87 4.38-25.31-1-3.31.12-6.43.37-9.58 1.26-11.18 6-24.61-5.15-32.56-5.69-6.88 9.44-5.51 11.81-16.18 1.35-2.86 2.87-5.63 4.29-8.46 2.21 47.16 2.42 174.82 3.77 186.08.94 5.1 1.39 5.42 6.62 4.82 24.35-3.76 56.57-3 81.17-3.54-.02-.03 8.05-283.01-10.78-320.64zm204.76-20.36c-8.82-19.22-14.51-42.62-30.45-57.21C352.53 63 321 58.77 291.86 48.28c-2.42-1 7.66 65.77-2.33 114.11s-3 288.78-2.52 312.77c16.65-.41 43.93-1.11 77 4.63 1.35.23 2.77.34 3.35-1.43 2.84-8.59 3.31-54.37 4.12-63.34q.3-61.72.62-123.47l.41-.08c.5 7.25 12.44 8.7 10.93 15.93-2.92 3.85-2.68 8-1.61 12.34 3.05 11.87 5.55 24 10.45 35.29 1.35 3.61 1.5 7.13-.51 10.66-5.47 9-1.69 19.56-.79 29.26 1.72 8.67-2.41 37.14 5.93 37.29 12.54-3.91 39.84.29 52.32 2.94 2.67.5 2.68.28 3.09-2.33.83-5.36 4.29-22.74 4.78-27.4 3.05-18.5 2.09-37.3 3.28-55.95 6.99-74.69-23.2-144.6-51.01-212.08z" fill="#262521" stroke="#262521" stroke-miterlimit="10" stroke-width="3"/><path d="M215.85 446.59s7.59-251.18-11.24-288.81c-22.4-44.73.21-109.76-.6-109.5m87.85 0c-2.42-1 7.66 65.77-2.33 114.11s-3.23 262.05-2.78 286.05M156.78 91s44.42 78.64 53.48 157.28M337.75 81s-24.27 22.3-48.53 167.22" fill="none" stroke="#636363" stroke-linecap="round" stroke-linejoin="round"/><path d="M209.51 460.11c.1.58-.16.06 0-.2-.05.08 0 .43 0 .51.05.48.08 1 .11 1.44.07 1.16.11 2.33.13 3.5.05 2.9 0 5.81-.15 8.71-.08 1.44-.18 2.88-.33 4.31 0 .29-.07.59-.1.88s-.09.6 0-.07c0 .16 0 .31-.07.47-.09.53-.17 1.06-.29 1.58s-.21.87-.34 1.3c-.07.24-.34.55 0 .19s-.05.06-.13.18a2.11 2.11 0 01-.41.53c-.26.28-.52.55-.8.81-.63.6-1.32 1.14-2 1.69-3 2.37-5.61 5-5.72 9.06a24.7 24.7 0 001 6 6.59 6.59 0 01.26 2 1.71 1.71 0 01-.4 1.16c-.35.4-.2.18-.07.08a3.1 3.1 0 01-.5.29c.42-.2-.38.08-.53.11-.35.07 0 0 .05 0h-.62a5.52 5.52 0 01-1-.09 10.61 10.61 0 01-4.26-1.94c-3.67-2.41-7.43-4.84-12-3.83-4.29.95-6.94 4.74-10.53 6.68-4 2.17-9.13.74-13.24-.38-3.72-1-5.32 4.76-1.59 5.78 4.59 1.26 9.5 2.31 14.24 1.18a15.79 15.79 0 005.84-2.87c1.57-1.2 2.95-2.52 4.5-3.53a4.86 4.86 0 014.09-1c2 .49 3.69 1.83 5.36 2.94 3.26 2.17 7.37 3.91 11.33 2.69a7.38 7.38 0 004.68-4.17 10.52 10.52 0 00.22-6.52c-.38-1.74-1.11-3.56-.81-5.1 0 .24.12-.37.13-.41.16-.49-.17.32 0-.14a6.41 6.41 0 01.54-.91c-.23.33.06-.07.1-.11s.28-.31.43-.46a13.86 13.86 0 011.05-1c2.48-2.14 5.35-3.94 6.51-7.17a30.32 30.32 0 001.23-7.58c.28-3.44.37-6.9.34-10.35a48.54 48.54 0 00-.5-7.9 3 3 0 00-3.69-2.1 3.07 3.07 0 00-2.09 3.69zm77.38 2.51c.69 6.91-.63 13.85.11 20.75.59 5.43 2.38 10.94 6.25 14.95a16.2 16.2 0 007.41 4.35c2.92.8 6 .83 9 1.2a11.49 11.49 0 016.54 2.58c2 1.87 3.52 4.22 5.37 6.26a16.28 16.28 0 0018.9 4c1.48-.65 1.82-2.82 1.07-4.1a3.06 3.06 0 00-4.1-1.08 9.84 9.84 0 01-6.51.31 11.25 11.25 0 01-5.49-3.83 68.09 68.09 0 00-5-5.84 15.65 15.65 0 00-7.43-3.83c-2.76-.59-5.59-.61-8.38-1a13.19 13.19 0 01-5.85-2.14c-3.5-2.7-5.13-7.19-5.72-11.6a61.81 61.81 0 01-.1-10 75.93 75.93 0 000-11 3.08 3.08 0 00-3-3 3 3 0 00-3 3z" fill="#262521"/><path d="M203 65.83s4 48.55 43.67 46.73 43.68-46.73 43.68-46.73" fill="none" stroke="#636363" stroke-linecap="round" stroke-linejoin="round"/></svg>