<svg xmlns="http://www.w3.org/2000/svg" width="500" height="550" viewBox="0 0 500 550"><path fill="none" stroke="#84837e" stroke-linecap="round" stroke-miterlimit="10" stroke-width="3" d="M371.12 496.3v7.41"/><rect x="358.83" y="494.86" width="24.57" height="15.18" rx="3" fill="none" stroke="#84837e" stroke-miterlimit="10" stroke-width="3"/><path d="M316 56.92s-22.8-23.49-42.58-23.49h-49.7c-19.78 0-48.84 25.75-48.84 25.75l30.7 29.34h85.94z" fill="#262521" stroke="#262521" stroke-linecap="round" stroke-linejoin="round" stroke-width="3"/><path d="M297 49.28s-21.71 9.9-47.18 9.9-40.17-9.9-40.17-9.9l-17.92 66.78 116.12-6.26z" fill="#e5e5e5"/><path d="M297 49.28S279.89 58 252.23 59.1s-42.59-9.82-42.59-9.82" fill="none" stroke="#262521" stroke-linecap="round" stroke-linejoin="round" stroke-width="3"/><path d="M209.64 49.28s4 48.55 43.68 46.73S297 49.28 297 49.28l73.16 29.47s-1.73 406.89-5 409.08-151.4 0-167-3.28-53.14 5-57.87 4.16-5.46-15.4-3.64-23 1.36-386.92 1.36-386.92z" fill="#fff" stroke="#262521" stroke-linecap="round" stroke-linejoin="round" stroke-width="3"/><path d="M235 185.94c0-23.16-20.87-131.56-25.88-137.11a3.16 3.16 0 00-2.72-.43C176 59.42 143.31 65 116 83.18c-23.5 30.35-34.46 68.24-48.06 103.67-23.59 59.08-28.11 123-26.19 186-.36 11.18.74 97.95 2.77 105.72.3 1.47 62.69 2.66 63.26-.52 1.45-8 2.86-179.6 5.23-190.27 1.35-2.86 13.78-67 15.19-69.81 2.21 47.15-8.87 215.89-1.17 247.91.5 2.06 19 4.34 69 4C199.34 442.16 235 209.11 235 185.94z" fill="#262521" stroke="#262521" stroke-linecap="round" stroke-linejoin="round" stroke-width="3"/><path d="M285.07 466.15c0 .5.05 1 .08 1.49l.6 10.55a1.18 1.18 0 00.05.31.8.8 0 00.07.2.14.14 0 000 .06 1.74 1.74 0 00.11.18l.06.1a1.33 1.33 0 001.19.56l4.35-.49a1.54 1.54 0 001.4-1.93c-.09-.49-.17-1-.26-1.47q-.88-5.21-1.78-10.41a1.52 1.52 0 00-1.49-1.08l-3 .34a1.53 1.53 0 00-1.38 1.59zm2.85 6.58l1.49-.2a1 1 0 011.12.86l.37 2.75a1 1 0 01-.87 1.12l-1.49.2a1 1 0 01-1.12-.86l-.36-2.75a1 1 0 01.86-1.12z" fill="#84837e"/><path d="M457.13 336.13c-2.15-75.82-17.9-126.54-45.71-194-8.83-19.22-14.51-42.62-30.46-57.2-26.38-17.18-57.48-25.13-86.6-35.62-3.68-1.54-22.71 114.63-22.71 140.78s16.23 257.08 21.09 281.49c38.05-.76 85.61-1.68 85.78-2.28 6.89-23.52-11.52-249.35-11.38-249.38.51 7.25 17.36 62 19.83 69 2.65 7.45 8.93 187.71 11.53 191.53 3.78 5.55 60 6 60 .13.03-5.46-.85-125.76-1.37-144.45z" fill="#262521" stroke="#262521" stroke-linecap="round" stroke-linejoin="round" stroke-width="3"/><path d="M173.11 61s-20.53 28.45-26.8 37.22c-4.58 6.42 44.51 12.37 72.22 42.39" fill="none" stroke="#636363" stroke-linecap="round" stroke-linejoin="round"/><path d="M201.89 206.26v.5" fill="none" stroke="#8e8e8e" stroke-linecap="round" stroke-linejoin="round" stroke-width="2"/><path d="M202 209.78c1.65 95.24-6.41 237.74-7.48 256.23" fill="none" stroke="#8e8e8e" stroke-linecap="round" stroke-linejoin="round" stroke-width="2" stroke-dasharray="1.01 3.02"/><path d="M194.39 467.52v.49m-2.67-343.17c.11.11.22.24.33.37" fill="none" stroke="#8e8e8e" stroke-linecap="round" stroke-linejoin="round" stroke-width="2"/><path d="M193.61 127.69c2.06 4.24 3.68 11.62 4.93 21.42" fill="none" stroke="#8e8e8e" stroke-linecap="round" stroke-linejoin="round" stroke-width="2" stroke-dasharray="0.98 2.94"/><path d="M198.72 150.58l.06.5" fill="none" stroke="#8e8e8e" stroke-linecap="round" stroke-linejoin="round" stroke-width="2"/><path d="M128.18 218c15.19-69.82-7.73-129.46-7.73-129.46M316 58.06s38.52 39.58 38.9 46.75c0 0-53.54 35.44-54.16 42.32" fill="none" stroke="#636363" stroke-linecap="round" stroke-linejoin="round"/><path d="M331.86 164.72s-40.52 32.95-54.15 111c0 0 5.13 74.57 15.75 191.12" fill="none" stroke="#8e8e8e" stroke-linecap="round" stroke-linejoin="round" stroke-width="2" stroke-dasharray="1 3"/><path d="M378.36 85.12s-13.72 74-9 137.23M397.13 438s30.76 8.08 61.53 0m-413.32 0s30.76 8.08 61.53 0m188.02 8.32s56.33 4.72 84.62-2.73m-187.79 3.55s-26.89 3.39-65.63-1.85m251.69-47.59l-31.21-54.07 14.26-8.24 16 27.71m-251.51 34.6l31.22-54.07-14.26-8.24-16.01 27.71" fill="none" stroke="#636363" stroke-linecap="round" stroke-linejoin="round"/><rect x="284.88" y="453.59" width="5.37" height="13.94" rx="1" transform="rotate(-3.45 287.73 460.828)" stroke-width="3" stroke="#262521" stroke-linecap="round" stroke-linejoin="round" fill="#262521"/><path d="M334.68 163.34s-47.08-19.85-55.07-30.52m-51.47 0c-8 10.67-55.75 31.9-55.75 31.9s38.46 28 52.07 107.6" fill="none" stroke="#636363" stroke-linecap="round" stroke-linejoin="round"/><circle cx="319.83" cy="163.34" r="2.42" fill="#636363"/><circle cx="189.53" cy="164.22" r="2.42" fill="#636363"/><path d="M122.76 79.79s-.18-7.43 4.73-9.93 21.68-8.86 26.16-10.62 11.92 1.9 11.92 1.9l-2.29.65a9.28 9.28 0 00-9.92-1.41c-6 2.43-21.27 8.42-24.84 10.18S124 79.44 124 79.44zM371.91 81s.3-7.43-4.56-10-21.53-9.28-26-11.07-11.95 1.71-11.95 1.71l2.28.68a9.29 9.29 0 019.94-1.24c6 2.53 21.13 8.78 24.67 10.59s4.38 9 4.38 9zM157.6 492.11c-1.38-10.74-5.49-38.77-5.49-38.77h-19.49s2.76 28.91 5.91 42.52c1.07 4.61 13.69 13.1 13.69 13.1s5.78-13.82 5.38-16.85zM142 473.54a3.11 3.11 0 113.11 3.11 3.1 3.1 0 01-3.11-3.11zm1.75 11.26a3.1 3.1 0 113.1 3.1 3.1 3.1 0 01-3.09-3.1zm5.33 15.83a3.11 3.11 0 113.1-3.1 3.1 3.1 0 01-3.09 3.1zm213.09-45.42h17.89v41.84h-17.89z" fill="#262521" stroke="#262521" stroke-linecap="round" stroke-linejoin="round" stroke-width="3"/></svg>