<svg xmlns="http://www.w3.org/2000/svg" width="500" height="550" viewBox="0 0 500 550"><path d="M365.52 416.93s-1.73 60.44-5 62.62-151.41 0-167.06-3.27-53.14 5-57.87 4.15-5.46-10.89-3.64-18.53 1.36-45 1.36-45z" fill="#fff" stroke="#262521" stroke-linecap="round" stroke-linejoin="round" stroke-width="3"/><path d="M372.14 291.55q-.27 61.74-.62 123.47c-.81 9-2.68 16.41-3.55 25.44-1 10.07 1.34 17.05-1.5 25.63-.59 1.77-2 1.67-3.35 1.44-44.59-7.74-101.66-5.72-146.65-2.92-24.6.57-58.62-1.68-83 2.08-5.23.6-5.68.28-6.62-4.82-1.35-11.26 1.94-18.53.53-29.31-6.15-46.82-1.39-94.37-3.6-141.53-1.42 2.83-2.94 5.6-4.29 8.46-2.37 10.67-17.5 9.3-11.81 16.18 11.11 7.95 6.41 21.38 5.15 32.56-.25 3.15-1.35 6.27-.37 9.58.51 8.44-3.19 16.94-4.38 25.31-1.5 8-2.61 15.83-1.54 23.93a5.1 5.1 0 01-1.13 3.3c-5.71 6.28-7.75 14-9.19 22.06-.57 3.18-.61 3-3.74 2-12.38-3.52-26.09-4.38-38.6-1.18-1.39.34-2.11 0-2.41-1.47-2-7.76-2.18-16.67-8.49-22.43a6.62 6.62 0 01-1.33-3.22A144.46 144.46 0 0139 372.86c-1.91-63 2.6-126.93 26.19-186 13.61-35.43 24.56-73.32 48.07-103.67 27.32-18.2 60-23.76 90.46-34.78a3.16 3.16 0 012.72.43c5 5.55 11.46 8.41 18.56 9.67 19.19 2.43 41.29 5.55 58.65-4.88 2.85-1.27 4.2-6.53 7.87-5 29.12 10.49 61 14.41 87.44 31.58 15.94 14.59 21.63 38 30.45 57.21 27.81 67.48 58 137.39 51.05 212.07-1.19 18.66-.23 37.46-3.28 56-.49 4.66-5.21 7.09-5.56 11.78-1.22 5.28-2.08 10.65-2.91 16-.4 2.6-.41 2.83-3.08 2.33-12.48-2.66-25.26-5.49-37.8-1.58-8.34-.15-8.13-15.56-11.44-21.4-6.28-7.37-3.61-9-5.33-17.64-.9-9.7-4.68-20.27.79-29.26 2-3.53 1.86-7.05.51-10.66-4.9-11.28-7.4-23.42-10.45-35.29-1.07-4.3-1.31-8.49 1.61-12.34 1.51-7.23-10.43-8.68-10.93-15.93z" fill="#262521"/><path d="M242 68.77a7.5 7.5 0 015.47-3.66 28.3 28.3 0 0116.37 2.28 8.5 8.5 0 014.58 5.4 37 37 0 011.58 11.7 34.77 34.77 0 01-1.07 8 10.37 10.37 0 01-6.42 7.31 42.9 42.9 0 01-7.28 2.65c-3.86.88-7.73.71-10.81-2.29-1.69-1.64-2.22-4-2.79-6.28a56.7 56.7 0 01-1.1-19.17 46 46 0 011.47-5.94zM239.43 143.15c-.34-6.68-.14-13.31 1.9-19.76.25-.81.61-1.58.9-2.38 1.14-3.21 3.64-4.51 6.82-5.07a16.32 16.32 0 019.45 1.53 47 47 0 016.08 3c2.67 1.64 3.7 4.39 4.23 7.33a37.21 37.21 0 01-1.18 17.84c-1.13 3.65-3.91 5.42-7.38 6.45a31.28 31.28 0 01-13 1.09 8.25 8.25 0 01-6.19-3.69c-.23-.3-1.61-6.05-1.63-6.34z" fill="#221717" opacity=".95"/><path d="M269.94 146.55a11.1 11.1 0 01-6.83 7.28c-2.87 1.16-5.84 2.06-8.79 3-1.71.53-3.38 1-4.4 2.68a1.52 1.52 0 01-1.14.48c-3.74 0-7.47-.08-11.21-.14a1.06 1.06 0 01-1.17-1.11c-.11-1.73-.31-3.46-.32-5.19 0-4.14 0-8.27.14-12.41.14-3.66.41-7.33.78-11a44.2 44.2 0 012.55-11.58c.63-1.62 1.49-3.15 2-4.81a16.85 16.85 0 00-.9-12.11 38.18 38.18 0 01-2.9-11.29 153.68 153.68 0 01-.79-22.19c0-2.77.28-5.54.51-8.31.11-1.34.29-1.45 1.65-1.44 3.53 0 7.07 0 10.6.06a1.9 1.9 0 011.77 1 5.47 5.47 0 003.21 2.07c3.12 1.07 6.28 2 9.32 3.31a11.14 11.14 0 016.93 7.72c0 .14 1.59 10 1.2 16.4a14.81 14.81 0 01-7.59 11.68 51.56 51.56 0 01-9.9 3.71c-1 .28-1.94.58-2.9.9a2.21 2.21 0 00-1.63 2 35.68 35.68 0 000 3.73 2.3 2.3 0 001.73 2.15c2.57.89 5.17 1.7 7.72 2.67a21.4 21.4 0 018 4.72c1.48 1.51 2.16 3.43 3.08 5.26 1.24 2.48.95 5 1.05 7.59.14 4.93-1.71 12.92-1.77 13.17zM241 75.21a52.26 52.26 0 001.06 18.1c.54 2.13 1.06 4.38 2.69 5.93 3 2.83 6.71 3 10.43 2.17a43 43 0 007-2.51 9.84 9.84 0 006.23-6.9 31.64 31.64 0 001-7.55 33.88 33.88 0 00-1.45-11 8.1 8.1 0 00-4.42-5.1 27.94 27.94 0 00-15.8-2.16 7.2 7.2 0 00-5.27 3.46 40.32 40.32 0 00-1.47 5.56zm.71 73.7a7.84 7.84 0 005.91 3.53 29.8 29.8 0 0012.45-1c3.32-1 6-2.68 7.06-6.16a35.5 35.5 0 001.12-17.06c-.5-2.81-1.49-5.43-4-7a44.77 44.77 0 00-5.81-2.87 15.49 15.49 0 00-9-1.46c-3 .53-5.43 1.77-6.52 4.84-.28.77-.62 1.5-.86 2.27-1.94 6.17-2.14 12.51-1.81 18.9-.03.23 1.29 5.73 1.48 6.01z" fill="#3f5443" stroke="#636363" stroke-linecap="round" stroke-linejoin="round"/></svg>