<svg xmlns="http://www.w3.org/2000/svg" width="500" height="550" viewBox="0 0 500 550"><title>s0101-02</title><path d="M276.1,68.25l39.57-11.33s-22.8-23.49-42.58-23.49H223.43c-19.78,0-48.84,25.75-48.84,25.75l45.83,9.07L205.29,88.52l43-12.3,43,12.3Z" fill="#262521" stroke="#262521" stroke-linecap="round" stroke-linejoin="round" stroke-width="3"/><path d="M296.7,49.28s-21.71,9.9-47.18,9.9-40.17-9.9-40.17-9.9l46.49,182.57Z" fill="#e5e5e5"/><path d="M296.7,49.28S279.6,58,251.93,59.1s-42.58-9.82-42.58-9.82" fill="none" stroke="#262521" stroke-linecap="round" stroke-linejoin="round" stroke-width="3"/><path d="M209.35,49.28S213.36,97.83,253,96,296.7,49.28,296.7,49.28l73.16,29.47s-1.73,402.39-5,404.58-151.4,0-167-3.28-53.14,5-57.87,4.16-5.46-10.9-3.64-18.54,1.36-386.92,1.36-386.92Z" fill="#fff" stroke="#262521" stroke-linecap="round" stroke-linejoin="round" stroke-width="3"/><path d="M221.55,95.41c7.06,12,17.34,21.71,32.12,21.71s24.76-9.32,31.58-20.91" fill="none" stroke="#262521" stroke-linecap="round" stroke-linejoin="round" stroke-width="5" stroke-dasharray="1 3"/><path d="M252.85,117.2a1,1,0,0,1,0-2l1,0a1,1,0,0,1,1,1,1,1,0,0,1-.95,1c-.35,0-.69,0-1,0Zm-3-.12h-.09c-.35,0-.69-.07-1-.12a1,1,0,1,1,.25-2l1,.11a1,1,0,0,1,.91,1.08A1,1,0,0,1,249.86,117.08Zm7-.18a1,1,0,0,1-.14-2l1-.14a1,1,0,0,1,.33,2l-1,.15Zm-10.91-.47a1,1,0,0,1-.24,0c-.33-.08-.66-.16-1-.26a1,1,0,1,1,.54-1.92c.31.08.62.17.94.24a1,1,0,0,1,.73,1.21A1,1,0,0,1,245.93,116.43Zm14.82-.29a1,1,0,0,1-.25-2l.94-.25a1,1,0,1,1,.55,1.92c-.33.1-.66.18-1,.27A1.07,1.07,0,0,1,260.75,116.14Zm-18.61-.92a1,1,0,0,1-.38-.07l-.95-.4a1,1,0,1,1,.81-1.83l.89.37a1,1,0,0,1-.37,1.93Zm22.41-.29a1,1,0,0,1-.94-.64,1,1,0,0,1,.58-1.3c.3-.11.6-.24.89-.36a1,1,0,0,1,.78,1.84l-.95.39A1.15,1.15,0,0,1,264.55,114.93Zm-26-1.44a1,1,0,0,1-.49-.13l-.89-.52a1,1,0,0,1,1-1.71l.84.49a1,1,0,0,1-.5,1.87Zm29.62-.23a1,1,0,0,1-.47-1.88c.29-.15.57-.31.85-.47a1,1,0,0,1,1,1.74l-.91.49A1,1,0,0,1,268.17,113.26Zm-33-2a1,1,0,0,1-.59-.2c-.28-.2-.55-.41-.82-.62a1,1,0,1,1,1.24-1.57l.77.59a1,1,0,0,1,.21,1.4A1,1,0,0,1,235.21,111.31Zm36.38-.13a1,1,0,0,1-.56-1.82l.79-.56a1,1,0,0,1,1.4.22,1,1,0,0,1-.22,1.4l-.84.59A1,1,0,0,1,271.59,111.18Zm-39.45-2.42a1,1,0,0,1-.68-.27l-.74-.7a1,1,0,0,1,1.39-1.44l.71.67a1,1,0,0,1,.06,1.42A1,1,0,0,1,232.14,108.76Zm42.62,0a1,1,0,0,1-.76-.35,1,1,0,0,1,.11-1.41l.73-.64a1,1,0,1,1,1.33,1.49c-.25.23-.51.45-.77.67A1,1,0,0,1,274.76,108.75Zm2.9-2.73a1,1,0,0,1-.72-1.69l.68-.71a1,1,0,0,1,1.41-.06,1,1,0,0,1,.05,1.42c-.23.25-.46.5-.7.74A1,1,0,0,1,277.66,106Zm-48.32-.11a1,1,0,0,1-.75-.33c-.22-.25-.45-.5-.67-.76a1,1,0,0,1,1.51-1.31c.21.25.43.49.65.73a1,1,0,0,1-.07,1.42A1,1,0,0,1,229.34,105.91Zm51-2.87a1,1,0,0,1-.77-1.64c.21-.25.41-.5.61-.76a1,1,0,0,1,1.41-.16,1,1,0,0,1,.16,1.4c-.21.27-.42.53-.64.79A1,1,0,0,1,280.32,103Zm-53.54-.2a1,1,0,0,1-.8-.39l-.61-.81a1,1,0,0,1,1.61-1.2c.19.27.39.53.59.79a1,1,0,0,1-.18,1.4A1,1,0,0,1,226.78,102.84Z" fill="#b7b6b0"/><path d="M253.82,118.75h0c-.35,0-.69,0-1,0a1,1,0,0,1-1-1,1,1,0,0,1,1-1c.32,0,.64,0,1,0a1,1,0,0,1,0,2Zm3-.11a1,1,0,0,1-.08-2l1-.09a1,1,0,1,1,.22,2l-1,.1Zm-7-.17h-.13l-1-.16a1,1,0,1,1,.32-2l1,.15a1,1,0,0,1,.86,1.12A1,1,0,0,1,249.83,118.47Zm10.93-.39a1,1,0,0,1-.21-2l.94-.21a1,1,0,0,1,.48,1.94l-1,.23Zm-14.85-.39a.82.82,0,0,1-.26,0c-.33-.08-.66-.18-1-.28a1,1,0,1,1,.58-1.91l.93.26a1,1,0,0,1-.26,2ZM264.6,117a1,1,0,0,1-.33-1.94l.91-.34a1,1,0,0,1,.72,1.87l-1,.35A1,1,0,0,1,264.6,117Zm-22.47-.59a1,1,0,0,1-.38-.08l-.95-.4a1,1,0,0,1,.82-1.83l.89.38a1,1,0,0,1-.38,1.93Zm26.15-1a1,1,0,0,1-.89-.55,1,1,0,0,1,.44-1.34l.86-.45a1,1,0,0,1,1,1.76l-.92.48A1,1,0,0,1,268.28,115.45Zm-29.75-.77a1.07,1.07,0,0,1-.49-.12l-.88-.52a1,1,0,1,1,1-1.71l.84.48a1,1,0,0,1,.38,1.36A1,1,0,0,1,238.53,114.68Zm33.21-1.23a1,1,0,0,1-.84-.45,1,1,0,0,1,.29-1.39c.26-.17.53-.35.79-.54a1,1,0,0,1,1.4.24,1,1,0,0,1-.24,1.39l-.85.58A1,1,0,0,1,271.74,113.45Zm-36.58-.9a1.06,1.06,0,0,1-.59-.19l-.82-.61a1,1,0,0,1,1.2-1.6l.79.58a1,1,0,0,1-.58,1.82Zm39.78-1.49a1,1,0,0,1-.64-1.76c.25-.21.5-.42.74-.64a1,1,0,0,1,1.32,1.51l-.78.66A1,1,0,0,1,274.94,111.06Zm-42.92-1a1,1,0,0,1-.66-.25l-.76-.68a1,1,0,0,1,1.35-1.48c.24.22.48.44.73.65a1,1,0,0,1,.1,1.42A1,1,0,0,1,232,110.06Zm45.87-1.7a1,1,0,0,1-.71-1.7c.23-.24.46-.47.68-.71a1,1,0,0,1,1.42,0,1,1,0,0,1,0,1.41c-.23.25-.47.49-.71.73A1,1,0,0,1,277.89,108.36Zm-48.76-1.07a1,1,0,0,1-.72-.3l-.7-.75a1,1,0,1,1,1.47-1.35c.22.24.44.48.67.71a1,1,0,0,1,0,1.41A1,1,0,0,1,229.13,107.29Zm51.45-1.89a1,1,0,0,1-.64-.23,1,1,0,0,1-.12-1.41c.21-.25.42-.5.62-.76a1,1,0,0,1,1.41-.15,1,1,0,0,1,.15,1.4c-.21.27-.43.53-.65.79A1,1,0,0,1,280.58,105.4Zm-54.11-1.1a1,1,0,0,1-.77-.36l-.64-.8a1,1,0,1,1,1.56-1.24l.62.76a1,1,0,0,1-.13,1.41A1,1,0,0,1,226.47,104.3Z" fill="#7f7e78"/><g opacity="0.86"><path d="M268.17,113.26a1,1,0,0,1-.47-1.88c.29-.15.57-.31.85-.47a1,1,0,0,1,1,1.74l-.91.49A1,1,0,0,1,268.17,113.26Zm-33-2a1,1,0,0,1-.59-.2c-.28-.2-.55-.41-.82-.62a1,1,0,1,1,1.24-1.57l.77.59a1,1,0,0,1,.21,1.4A1,1,0,0,1,235.21,111.31Zm36.38-.13a1,1,0,0,1-.56-1.82l.79-.56a1,1,0,0,1,1.4.22,1,1,0,0,1-.22,1.4l-.84.59A1,1,0,0,1,271.59,111.18Zm-39.45-2.42a1,1,0,0,1-.68-.27l-.74-.7a1,1,0,0,1,1.39-1.44l.71.67a1,1,0,0,1,.06,1.42A1,1,0,0,1,232.14,108.76Zm42.62,0a1,1,0,0,1-.76-.35,1,1,0,0,1,.11-1.41l.73-.64a1,1,0,1,1,1.33,1.49c-.25.23-.51.45-.77.67A1,1,0,0,1,274.76,108.75Zm2.9-2.73a1,1,0,0,1-.72-1.69l.68-.71a1,1,0,0,1,1.41-.06,1,1,0,0,1,.05,1.42c-.23.25-.46.5-.7.74A1,1,0,0,1,277.66,106Zm-48.32-.11a1,1,0,0,1-.75-.33c-.22-.25-.45-.5-.67-.76a1,1,0,0,1,1.51-1.31c.21.25.43.49.65.73a1,1,0,0,1-.07,1.42A1,1,0,0,1,229.34,105.91Zm51-2.87a1,1,0,0,1-.77-1.64c.21-.25.41-.5.61-.76a1,1,0,0,1,1.41-.16,1,1,0,0,1,.16,1.4c-.21.27-.42.53-.64.79A1,1,0,0,1,280.32,103Z" fill="#fff"/></g><g opacity="0.86"><path d="M271.74,113.45a1,1,0,0,1-.84-.45,1,1,0,0,1,.29-1.39c.26-.17.53-.35.79-.54a1,1,0,0,1,1.4.24,1,1,0,0,1-.24,1.39l-.85.58A1,1,0,0,1,271.74,113.45Zm3.2-2.39a1,1,0,0,1-.64-1.76c.25-.21.5-.42.74-.64a1,1,0,0,1,1.32,1.51l-.78.66A1,1,0,0,1,274.94,111.06Zm-42.92-1a1,1,0,0,1-.66-.25l-.76-.68a1,1,0,0,1,1.35-1.48c.24.22.48.44.73.65a1,1,0,0,1,.1,1.42A1,1,0,0,1,232,110.06Zm45.87-1.7a1,1,0,0,1-.71-1.7c.23-.24.46-.47.68-.71a1,1,0,0,1,1.42,0,1,1,0,0,1,0,1.41c-.23.25-.47.49-.71.73A1,1,0,0,1,277.89,108.36Zm-48.76-1.07a1,1,0,0,1-.72-.3l-.7-.75a1,1,0,1,1,1.47-1.35c.22.24.44.48.67.71a1,1,0,0,1,0,1.41A1,1,0,0,1,229.13,107.29Zm51.45-1.89a1,1,0,0,1-.64-.23,1,1,0,0,1-.12-1.41c.21-.25.42-.5.62-.76a1,1,0,0,1,1.41-.15,1,1,0,0,1,.15,1.4c-.21.27-.43.53-.65.79A1,1,0,0,1,280.58,105.4Zm-54.11-1.1a1,1,0,0,1-.77-.36l-.64-.8a1,1,0,1,1,1.56-1.24l.62.76a1,1,0,0,1-.13,1.41A1,1,0,0,1,226.47,104.3Z" fill="#fff"/></g><path d="M240.23,177.79c0-23.16-26.35-123.41-31.36-129a3.16,3.16,0,0,0-2.72-.43C175.73,59.42,143,65,115.69,83.18c-23.5,30.35-34.46,68.24-48.06,103.67-23.59,59.08-28.11,123-26.19,186-.36,11.19.74,97.95,2.77,105.72.3,1.47,62.69,2.66,63.26-.52,1.45-8,2.86-179.6,5.23-190.27,1.35-2.86,13.78-67,15.19-69.81,2.21,47.15-8.87,215.89-1.17,247.91.5,2.06,19,4.34,69,4C199.05,442.16,240.23,201,240.23,177.79Z" fill="#262521" stroke="#262521" stroke-linecap="round" stroke-linejoin="round" stroke-width="3"/><path d="M457.56,331.45c-2.15-75.82-17.9-126.55-45.71-194C403,118.2,397.34,94.8,381.39,80.21,355,63,323.08,59.12,294,48.63c-3.68-1.54-21.88,110.6-21.88,136.75s16.23,257.08,21.09,281.49c38.05-.76,85.61-1.68,85.78-2.28,6.89-23.52-11.52-249.35-11.38-249.38.51,7.25,17.36,62,19.83,69,2.65,7.46,8.93,187.72,11.53,191.54,3.78,5.55,60,6,60,.13C459,470.44,458.08,350.13,457.56,331.45Z" fill="#262521" stroke="#262521" stroke-linecap="round" stroke-linejoin="round" stroke-width="3"/><path d="M172.82,61S152.29,89.43,146,98.2s90.43,19.42,91.06,87.18" fill="none" stroke="#636363" stroke-linecap="round" stroke-linejoin="round"/><path d="M191.43,124.84c.11.11.22.24.33.37" fill="none" stroke="#8e8e8e" stroke-linecap="round" stroke-linejoin="round" stroke-width="2"/><path d="M193.34,127.75c17.9,37.09,2.37,312.11.85,338.27" fill="none" stroke="#8e8e8e" stroke-linecap="round" stroke-linejoin="round" stroke-width="2" stroke-dasharray="1 3.01"/><path d="M194.1,467.52l0,.49" fill="none" stroke="#8e8e8e" stroke-linecap="round" stroke-linejoin="round" stroke-width="2"/><path d="M127.89,218c15.19-69.82-7.73-129.46-7.73-129.46" fill="none" stroke="#636363" stroke-linecap="round" stroke-linejoin="round"/><path d="M215,70.4s-29.31,24-27.77,44.58" fill="none" stroke="#636363" stroke-linecap="round" stroke-linejoin="round"/><path d="M315.67,58.06s38.52,39.58,38.9,46.75" fill="none" stroke="#636363" stroke-linecap="round" stroke-linejoin="round"/><path d="M354.57,104.81c.37,7.17-68.24,7.89-82.49,78,0,0,10.47,167.48,21.09,284" fill="none" stroke="#8e8e8e" stroke-linecap="round" stroke-linejoin="round" stroke-width="2" stroke-dasharray="1 3"/><path d="M289.57,70.4S318.31,94.58,318.31,115" fill="none" stroke="#636363" stroke-linecap="round" stroke-linejoin="round"/><path d="M378.07,85.12s-13.72,74-9,137.23" fill="none" stroke="#636363" stroke-linecap="round" stroke-linejoin="round"/><path d="M396.83,438s30.77,8.08,61.54,0" fill="none" stroke="#636363" stroke-linecap="round" stroke-linejoin="round"/><path d="M45,438s30.77,8.08,61.54,0" fill="none" stroke="#636363" stroke-linecap="round" stroke-linejoin="round"/><path d="M294.6,446.32s56.33,4.72,84.62-2.73" fill="none" stroke="#636363" stroke-linecap="round" stroke-linejoin="round"/><path d="M191.43,447.14s-26.89,3.39-65.63-1.85" fill="none" stroke="#636363" stroke-linecap="round" stroke-linejoin="round"/><polyline points="377.49 397.7 346.27 343.63 360.54 335.39 376.54 363.1" fill="none" stroke="#636363" stroke-linecap="round" stroke-linejoin="round"/><polyline points="125.03 397.7 156.25 343.63 141.98 335.39 125.98 363.1" fill="none" stroke="#636363" stroke-linecap="round" stroke-linejoin="round"/></svg>