<svg xmlns="http://www.w3.org/2000/svg" width="500" height="550" viewBox="0 0 500 550"><path d="M372.39 291.56q-.27 61.72-.62 123.46c-.81 9-3 17.82-8.07 25.33-2.9 8.57-5.74 17.16-8.58 25.75-.58 1.76-2 1.66-3.35 1.43-44.58-7.74-90.06-5.72-135-2.92-24.6.57-49.26 1.33-73.61 5.1-5.23.59-5.68.27-6.62-4.82a119.66 119.66 0 00-8.83-32.33c-5.48-46.9-1.39-94.37-3.6-141.53-1.42 2.83-2.94 5.6-4.29 8.46-2.37 10.68-17.5 9.3-11.81 16.18 11.11 7.95 6.41 21.38 5.15 32.56-.25 3.15-1.35 6.27-.37 9.58.51 8.44-3.19 16.94-4.38 25.31-1.5 8-2.61 15.83-1.54 23.93a5.1 5.1 0 01-1.13 3.3c-5.71 6.28-7.75 14-9.19 22.06-.57 3.18-.61 3-3.74 2-12.38-3.52-26.09-4.38-38.6-1.18-1.39.34-2.11 0-2.41-1.47-2-7.76-2.18-16.67-8.49-22.43a6.62 6.62 0 01-1.33-3.22 144.41 144.41 0 01-2.72-33.3c-1.91-63 2.6-126.93 26.19-186C79 151.42 90 113.53 113.47 83.18c27.32-18.2 60-23.76 90.46-34.78a3.16 3.16 0 012.72.43c5 5.55 11.46 8.41 18.56 9.67 19.19 2.43 41.29 5.55 58.65-4.88 2.85-1.27 4.2-6.53 7.87-5 29.12 10.49 61 14.41 87.44 31.58 15.94 14.59 21.63 38 30.45 57.21 27.81 67.48 58 137.39 51.05 212.08-1.19 18.65-.23 37.45-3.28 55.95-.49 4.66-5.21 7.1-5.56 11.78-1.22 5.28-2.08 10.65-2.91 16-.4 2.6-.41 2.83-3.08 2.33-12.48-2.66-25.26-5.49-37.8-1.58-8.34-.15-8.13-15.56-11.44-21.4-6.28-7.37-3.61-9-5.33-17.64-.9-9.7-4.68-20.27.79-29.26 2-3.53 1.86-7.05.51-10.66-4.9-11.28-7.4-23.41-10.45-35.29-1.07-4.3-1.31-8.49 1.61-12.34 1.51-7.23-10.43-8.68-10.93-15.93z" fill="#262521" stroke="#262521" stroke-linecap="round" stroke-linejoin="round" stroke-width="3"/><path d="M98.09 367.69c-1.71 6.88 4.74 11.31 10.94 11.74 3.51-10.37 3.37-20.75 4.08-31.2 1.26-11.18 6-24.61-5.15-32.56-5.71-6.77 10-5.93 12.06-16.68-4.44-3.91-12.3-22.91-19.22-16.1-4.9 12.14-16.47 23.5-13 37.48 7.73 17.4 14.84 26.89 10.29 47.32z" fill="#514f48"/><path d="M115.16 331.77a26.4 26.4 0 00-.49-5.93c-26.77 1.25-13.08-28.59-12.77-44.23-5.38 10.14-13.24 20.57-14.79 32.23 6.43 8.16 17.51 22.35 28.05 17.93z" fill="#fff" opacity=".5"/><path d="M402.89 376.49c17.35-9.78-.92-36 .86-51.19-.62-20.53 4.39-39-23.25-24.69 7.81 5.72-2 10.79 1.62 19.13 3.05 11.88 5.55 24 10.45 35.29 3.7 7.5-4.11 14-3.4 21.5 4.58.47 9.3 1.08 13.72-.04z" fill="#514f48"/><path d="M392.68 355.38a287.74 287.74 0 0111-40c-.71-6.38 2-19.77-7.39-19.93-2.16 13.58-6.21 26.84-10.24 40a144.16 144.16 0 006.63 19.93z" fill="#fff" opacity=".5"/><path d="M383.47 309.25c3.7-.12 7.15-1.73 10.67-2.72a74.41 74.41 0 0111.07-2.26 1.55 1.55 0 001.5-1.5 1.51 1.51 0 00-1.5-1.5 81.78 81.78 0 00-11.08 2.14c-3.48.94-7 2.72-10.66 2.84-1.92.06-1.93 3.06 0 3zm-1.37 8.52a116.19 116.19 0 0026-3.81 1.5 1.5 0 00-.8-2.89 112.61 112.61 0 01-25.16 3.7c-1.92.07-1.93 3.07 0 3zm2.06 8.23q13.11-1 26.18-2.49c1.9-.21 1.92-3.21 0-3Q397.28 322 384.16 323c-1.91.15-1.93 3.15 0 3zm2.4 9.47a163.83 163.83 0 0021.44-2.09 1.5 1.5 0 10-.79-2.89 157.05 157.05 0 01-20.64 2c-1.93 0-1.94 3 0 3zm2.22 8.7a109.27 109.27 0 0020.08-2.17c1.89-.38 1.09-3.28-.79-2.89a104.23 104.23 0 01-19.29 2c-1.93 0-1.94 3 0 3zm3.76 8.53a177.47 177.47 0 0020.08-1.81 1.5 1.5 0 10-.79-2.89 170.59 170.59 0 01-19.29 1.7c-1.92.06-1.93 3.06 0 3zm2.46 8.42q9-1.26 18.08-2.18a1.54 1.54 0 001.5-1.5 1.52 1.52 0 00-1.5-1.5q-9.45 1-18.87 2.29a1.5 1.5 0 00-1.05 1.85 1.53 1.53 0 001.84 1zm-3.14 8.28q9.33.27 18.66-.27c1.92-.11 1.93-3.11 0-3q-9.33.54-18.66.27c-1.93 0-1.93 3 0 3zM94.08 286.08a77.38 77.38 0 0010 11.42c3.37 3 7.24 5.54 9.76 9.33 1.06 1.61 3.66.11 2.59-1.51-2.56-3.85-6.26-6.53-9.72-9.5a72.39 72.39 0 01-10-11.26 1.55 1.55 0 00-2-.53 1.51 1.51 0 00-.54 2.05zm-6.14 12.65Q97 306 106.76 312.37c1.62 1.06 3.12-1.54 1.51-2.59q-9.4-6.16-18.21-13.17a1.54 1.54 0 00-2.12 0 1.5 1.5 0 000 2.12zm-5.42 13.67l12.52 3c3.85.93 8 2.45 12 1.93a1.54 1.54 0 001.5-1.5 1.5 1.5 0 00-1.5-1.5c-3.88.5-7.94-1-11.67-1.94l-12.06-2.92c-1.88-.45-2.68 2.44-.8 2.89zm4.81 11.53q12.86-.18 25.7.09c1.93 0 1.93-3 0-3q-12.84-.27-25.7-.09a1.5 1.5 0 000 3zm.95 6.56a39.91 39.91 0 0012.34 2.51c4.56.36 9.13.67 13.7 1 1.92.14 1.91-2.86 0-3-4.42-.32-8.84-.63-13.25-1a38.13 38.13 0 01-12-2.4 1.51 1.51 0 00-1.84 1 1.52 1.52 0 001 1.84zM93.9 341c6.17 2.42 12.88 2.64 19.43 2.82 1.93.05 1.93-2.95 0-3-6.3-.17-12.69-.38-18.63-2.71a1.5 1.5 0 10-.8 2.89zm2.53 10.56a92 92 0 0016.34.67c1.92-.09 1.94-3.09 0-3a92 92 0 01-16.34-.67c-.8-.11-1.5.76-1.5 1.5a1.54 1.54 0 001.5 1.5zm-.12 8.5a79.67 79.67 0 0015.69 2.08c1.93.06 1.93-2.94 0-3a75.6 75.6 0 01-14.89-2c-1.87-.44-2.68 2.45-.79 2.89zm-.44 7.34a34.71 34.71 0 0014 4.16 1.51 1.51 0 001.5-1.5 1.53 1.53 0 00-1.5-1.5 31.1 31.1 0 01-12.54-3.75c-1.69-.93-3.21 1.66-1.51 2.59z" fill="#262521"/><path d="M124.06 291c-1.42 2.83-2.94 5.6-4.29 8.46-2.37 10.68-17.5 9.3-11.81 16.18 11.11 7.95 6.41 21.38 5.15 32.56-.25 3.15-1.35 6.27-.37 9.58.51 8.44-3.19 16.94-4.38 25.31M391.27 395c-.9-9.7-4.68-20.27.79-29.26 2-3.53 1.86-7.05.51-10.66-4.9-11.28-7.4-23.41-10.45-35.29-1.07-4.3-1.31-8.49 1.61-12.34 1.51-7.23-10.43-8.68-10.93-15.93" fill="none" stroke="#262521" stroke-linecap="round" stroke-linejoin="round" stroke-width="3"/></svg>