<svg xmlns="http://www.w3.org/2000/svg" width="500" height="550" viewBox="0 0 500 550"><path d="M336.09 57.67c-5.35-3.38-4.85-8.67-6.86-12.68s-8.35 1-8.35 1-6.52-9.53-10.7-14.76-55.67 1.23-55.67 1.23h-6c-11-1.37-57.91-4.79-63.07 2.29-5.85 8-7.19 8-7.19 8s-4.85-4.85-8.69 0-21.02 17.45-17.68 23.8S190 84.1 190 84.1l58 23.8s94.95-36.67 96.29-40.85-2.85-6.05-8.2-9.38z" fill="#262521" stroke="#262521" stroke-linecap="round" stroke-linejoin="round" stroke-width="3"/><path d="M204.85 48.26s39.18 30.17 87.35 0L319.06 103l-77.8 46.2-48.33-65.32z" fill="#e5e5e5" stroke="#262521" stroke-linecap="round" stroke-linejoin="round" stroke-width="3"/><path d="M204.51 48.28s3.53 36.21 43.2 34.39 44.15-34.39 44.15-34.39L365 77.75s-1.73 402.39-5 404.58-151.41 0-167.06-3.28-53.14 5-57.87 4.16-5.46-10.9-3.64-18.54 1.36-386.92 1.36-386.92z" fill="#fff" stroke="#262521" stroke-linecap="round" stroke-linejoin="round" stroke-width="3"/><path d="M204.61 157.78c-22.4-44.73.21-109.76-.6-109.5-30.43 11-63.47 16.7-90.79 34.9-23.51 30.35-34.46 68.24-48.07 103.67-23.59 59.08-28.1 123-26.19 186a144.46 144.46 0 002.72 33.3 6.24 6.24 0 001.32 3.23c3 2.77 0 14.15 2 21.91.3 1.47 1 1.81 2.4 1.47 8.74-2.23 10.39-1.47 19.53-2.11 1.91-18.85 7.53-64 7.53-64 .82.12 6.49 63.91 7.27 64 2.38.42 14.24 2.89 16.11 3.42 3.12.94 3.17 1.12 3.74-2.05 1.44-8-1.86-15.46 3.85-21.74a5.1 5.1 0 001.13-3.3c-1.07-8.1 0-16 1.54-23.93 1.19-8.37 4.89-16.87 4.38-25.31-1-3.31.12-6.43.37-9.58 1.26-11.18 6-24.61-5.15-32.56-5.69-6.88 9.44-5.51 11.81-16.18 1.35-2.86 2.87-5.63 4.29-8.46 2.21 47.16-7.14 130.78.53 144.31 5.4 9.52-.06 18.29 1.29 29.55.94 5.09 1.4 5.41 6.62 4.82 24.35-3.77 56.58-3 81.17-3.54.01.07 10.03-270.69-8.8-308.32zM409.37 137.42c-8.82-19.22-14.51-42.62-30.45-57.21C352.53 63 321 58.77 291.86 48.28c-2.42-1 7.66 65.77-2.33 114.11s-2.42 275.05-2 299.05c16.65-.41 41.44.38 74.55 6.13 1.35.23 2.76.33 3.35-1.44 2.84-8.58-2.34-22 .56-30.55 5.1-7.51 4.69-11.59 5.5-20.56q.3-61.72.62-123.47l.41-.08c.5 7.25 12.44 8.7 10.93 15.93-2.92 3.85-2.68 8-1.61 12.34 3.05 11.88 5.55 24 10.45 35.29 1.35 3.61 1.5 7.13-.51 10.66-5.47 9-1.69 19.56-.79 29.26 1.72 8.67 2.72 8.32 5.33 17.64.6 2.16-7.74 19.5.6 19.65 5.31-1.66 39.71 1.43 39.71 1.43 5.38.8 9 .74 12.61 1.51 2.67.5 2.68.28 3.09-2.33.83-5.36-2-10.34-.78-15.62.35-4.69 5.07-7.12 5.56-11.78 3.05-18.5 2.09-37.3 3.28-55.95 6.98-74.69-23.21-144.6-51.02-212.08z" fill="#262521" stroke="#262521" stroke-linecap="round" stroke-linejoin="round" stroke-width="3"/><path d="M156.78 91s32.93 64.49 43.51 68.7M337.75 91s-32.92 64.49-43.51 68.7" fill="none" stroke="#636363" stroke-linecap="round" stroke-linejoin="round"/><path d="M188.62 134.62q1.86 26.5 2.49 53.09t0 53.41q-.36 15-1.11 30c-.1 1.93 2.9 1.92 3 0q1.32-26.55 1.42-53.14t-1.09-53.39q-.65-15-1.71-30c-.14-1.92-3.14-1.93-3 0z" fill="#636363"/><path d="M192.2 256.82a2.46 2.46 0 00-2.3 1.82 2.61 2.61 0 00.63 2.61 2.65 2.65 0 003.16.27 2.76 2.76 0 001.38-2.75 2.94 2.94 0 00-.75-1.61 3.39 3.39 0 00-1.35-.89 3.17 3.17 0 00-2.86.4 3.81 3.81 0 00-1.63 2.4 4 4 0 000 1.61 3.31 3.31 0 00.72 1.39 2.59 2.59 0 003.31.55 2.48 2.48 0 001-3.36 1.52 1.52 0 00-.9-.69 1.5 1.5 0 00-1.69 2.2l.06.12-.15-.36a.83.83 0 01.06.21l-.06-.4a.43.43 0 010 .16l.06-.4a1 1 0 01-.07.25l.18-.35a1.35 1.35 0 01-.15.26l.23-.3a2.28 2.28 0 01-.22.22l.3-.23a1.65 1.65 0 01-.32.18l.36-.15a1.11 1.11 0 01-.26.07l.4-.05h-.27l.4.05a1.19 1.19 0 01-.27-.07l.36.15a1.28 1.28 0 01-.25-.15l.3.23a1.38 1.38 0 01-.27-.27l.24.31a2.08 2.08 0 01-.22-.38l.15.35a2.44 2.44 0 01-.14-.53v.4a2.1 2.1 0 010-.56l-.06.4a2.23 2.23 0 01.16-.56l-.15.36a2.43 2.43 0 01.3-.52l-.23.3a2.44 2.44 0 01.42-.43l-.31.24a2.25 2.25 0 01.5-.32l-.36.15a2.52 2.52 0 01.47-.13l-.4.06a1.55 1.55 0 01.43 0l-.4-.06a1.91 1.91 0 01.41.11l-.36-.15a2.86 2.86 0 01.42.24l-.3-.23a2.13 2.13 0 01.3.3L192 259a2.6 2.6 0 01.21.36l-.15-.35a1 1 0 01.09.35l-.05-.4a1.5 1.5 0 010 .3l.06-.4a1.58 1.58 0 01-.09.31l.15-.35a1.2 1.2 0 01-.16.27l.23-.3a1.28 1.28 0 01-.26.26l.3-.23a1.69 1.69 0 01-.32.19l.36-.15a1.4 1.4 0 01-.35.1l.4-.05h-.31l.4.05a1.11 1.11 0 01-.26-.07l.35.15-.19-.11.3.24a1.29 1.29 0 01-.16-.17l.23.31a1.28 1.28 0 01-.11-.2l.15.36a1.47 1.47 0 01-.08-.3l.06.4a1.6 1.6 0 010-.31l-.06.4a1.89 1.89 0 01.09-.34l-.15.36a1.43 1.43 0 01.15-.27l-.23.31a1.07 1.07 0 01.18-.19l-.31.24a.93.93 0 01.19-.11l-.35.15.18-.05-.4.06h.11a1.5 1.5 0 000-3zM300.52 134.62c1.24 17.65 1.49 35.35 1.5 53s-.2 35.44.14 53.16c.19 10.12.56 20.23 1.24 30.33.13 1.91 3.13 1.93 3 0-1.19-17.71-1.4-35.51-1.4-53.31s.2-35.39-.15-53.08c-.21-10-.6-20.08-1.3-30.1-.13-1.92-3.14-1.93-3 0z" fill="#636363"/><path d="M305.11 256.82a2.47 2.47 0 00-2.31 1.82 2.61 2.61 0 00.63 2.61 2.65 2.65 0 003.16.27 2.77 2.77 0 001.39-2.75 3 3 0 00-.76-1.61 3.32 3.32 0 00-1.35-.89 3.17 3.17 0 00-2.86.4 3.85 3.85 0 00-1.63 2.4 4 4 0 000 1.61 3.33 3.33 0 00.73 1.39 2.58 2.58 0 003.3.55 2.48 2.48 0 001-3.36 1.53 1.53 0 00-.89-.69 1.56 1.56 0 00-1.16.15 1.52 1.52 0 00-.54 2 .75.75 0 01.07.12l-.15-.36a1.6 1.6 0 01.05.21l-.05-.4v.16l.05-.4a.72.72 0 01-.07.25l.16-.36a2.26 2.26 0 01-.16.26l.23-.3a1.52 1.52 0 01-.22.22l.3-.23a1.92 1.92 0 01-.31.18l.35-.15a1.11 1.11 0 01-.26.07l.4-.05H304l.4.05a1.34 1.34 0 01-.27-.07l.36.15a1.28 1.28 0 01-.25-.15l.3.23a1.38 1.38 0 01-.27-.27l.24.31a2.08 2.08 0 01-.22-.38l.15.35a2.44 2.44 0 01-.14-.53l.06.4a2.1 2.1 0 010-.56l-.06.4a2.75 2.75 0 01.16-.56l-.15.36a2.43 2.43 0 01.3-.52l-.23.3a2.44 2.44 0 01.42-.43l-.3.24a2 2 0 01.46-.28l-.36.15a2.52 2.52 0 01.47-.13l-.4.06a1.55 1.55 0 01.43 0l-.4-.06a1.91 1.91 0 01.41.11l-.35-.15a3.38 3.38 0 01.41.24l-.3-.23a2.13 2.13 0 01.3.3l-.23-.31a1.88 1.88 0 01.21.36L305 259a1.29 1.29 0 01.1.35l-.1-.35a1.51 1.51 0 010 .3l.05-.4a1.58 1.58 0 01-.09.31l.15-.35a1.2 1.2 0 01-.16.27l.23-.3a1.07 1.07 0 01-.26.26l.3-.23a1.69 1.69 0 01-.32.19l.36-.15a1.4 1.4 0 01-.35.1l.4-.05H305l.4.05a1.11 1.11 0 01-.26-.07l.36.15-.2-.11.31.24a.91.91 0 01-.17-.17l.24.31a.82.82 0 01-.12-.2l.15.36a1.47 1.47 0 01-.08-.3l.06.4a1.6 1.6 0 010-.31l-.05.4a1.3 1.3 0 01.08-.34l-.15.36a1.43 1.43 0 01.15-.27l-.23.31a1.07 1.07 0 01.18-.19l-.3.24a.72.72 0 01.19-.11l-.36.15.18-.05-.4.06h.12a1.5 1.5 0 000-3z" fill="#636363"/><path d="M288.76 456.63h-3a1.51 1.51 0 00-1.35 1.24c-.19 3.52-.38 7-.58 10.55 0 .49-.05 1-.08 1.49a1.53 1.53 0 001.61 1.75h4.38a1.35 1.35 0 001.12-.69l.05-.1.09-.2v-.06a1.29 1.29 0 00.05-.21 1.08 1.08 0 000-.31c-.2-3.51-.41-7-.61-10.54l-.09-1.5a1.52 1.52 0 00-1.59-1.42zm.53 9.24v2.77a1 1 0 01-1 1h-1.5a1 1 0 01-1-1l.05-2.77a1 1 0 011-1h1.5a1 1 0 01.95 1z" fill="#84837e"/><path d="M293.22 160.72c-14.21 7.37-4.34 299.56-4.34 299.56M203.87 160.72c18 37.48 8 305 8 305" fill="none" stroke="#8e8e8e" stroke-linecap="round" stroke-linejoin="round" stroke-width="2" stroke-dasharray="1 3"/><path fill="none" stroke="#636363" stroke-linecap="round" stroke-linejoin="round" d="M432.47 431.45l-3.78-108.32-9.8.5 3.78 107.35M427.47 430.92l-3.46-102.66"/><path fill="none" stroke-dasharray="1 3" stroke-linecap="round" stroke-linejoin="round" stroke-width="2" stroke="#8e8e8e" d="M65.78 428.62l7.57-65.5M75.42 364.5l7.32 66.22"/><path fill="none" stroke="#636363" stroke-linecap="round" stroke-linejoin="round" d="M61.09 430.19l8.66-69.84.61-41.11 8.81.08-.03 41.55 8.02 69.85M74.47 362.39l.3-38.22"/><path d="M425.92 432.4c0 .26 0 .52-.05.78-.11 1.84-.21 3.67-.32 5.5a.86.86 0 000 .16v.27a.69.69 0 00.58.37h2.28a.8.8 0 00.84-.91v-.78l-.3-5.5a.8.8 0 00-.71-.65h-1.57a.79.79 0 00-.75.76zM427 436h.79a.54.54 0 01.53.51v1.45a.54.54 0 01-.52.53h-.8a.53.53 0 01-.53-.51v-1.45a.53.53 0 01.53-.53zM75 362.62l-1.57.07a.79.79 0 00-.67.68v6.29a.79.79 0 00.88.87l2.28-.11a.73.73 0 00.57-.39.08.08 0 000-.05.42.42 0 000-.1.36.36 0 000-.11.43.43 0 000-.16c-.19-1.82-.39-3.65-.58-5.47l-.09-.78a.79.79 0 00-.82-.74zm.51 4.8v1.44a.52.52 0 01-.5.54h-.78a.53.53 0 01-.54-.51v-1.44a.53.53 0 01.51-.54h.78a.54.54 0 01.52.51z" fill="#84837e"/></svg>