<svg xmlns="http://www.w3.org/2000/svg" width="500" height="550" viewBox="0 0 500 550"><path d="M307.45 55.16S293 38.7 273.19 38.7L226 37.85c-19.78 0-41 18.37-41 18.37l20.6 32.3h85.94z" fill="#262521" stroke="#262521" stroke-linecap="round" stroke-linejoin="round" stroke-width="3"/><path d="M277.85 31.37c-39.41-8.24-62.34 0-62.34 0l27.33 55.09z" fill="#fff" stroke="#262521" stroke-linecap="round" stroke-linejoin="round" stroke-width="3"/><path fill="#fff" stroke="#262521" stroke-linecap="round" stroke-linejoin="round" stroke-width="3" d="M285.13 47.73l61.56 28.11L247.91 275 150.38 70.61l58.09-22.88"/><path d="M215.51 31.37S231.37 54 246 65.13l-31.46 21.33s-12.34-34.14-8.45-41.67a66.81 66.81 0 019.42-13.42zm62.34 0S262 54 247.4 65.13l31.42 21.33s13.93-33 10-40.56-10.97-14.53-10.97-14.53z" fill="#fff" stroke="#262521" stroke-linecap="round" stroke-linejoin="round" stroke-width="3"/><path d="M239.18 91.51s-5.59 135.71-.3 149.69 21.89 13 21.85-4.13 1.48-17-7.65-145.56z" fill="#262521"/><path d="M248.78 237.88c-20.26-28.18-49.25-182-46.65-188.82C171.7 60.08 143.31 65 116 83.18c-23.5 30.35-34.46 68.24-48.06 103.67-23.59 59.08-28.11 123-26.19 186-.36 11.18.74 97.95 2.77 105.72.3 1.47 62.69 2.66 63.26-.52 1.45-8 2.86-179.6 5.23-190.27 1.35-2.86 13.78-67 15.19-69.81 2.21 47.15-8.87 215.89-1.17 247.91.5 2.06 93.73 19.49 110.49-1.4s11.26-203.48 11.26-226.6z" fill="#262521" stroke="#262521" stroke-linecap="round" stroke-linejoin="round" stroke-width="3"/><path d="M457.13 336.13c-2.15-75.82-17.9-126.54-45.71-194-8.83-19.22-14.51-42.62-30.46-57.2-26.38-17.18-58.59-25.14-87.71-35.64-3.68-1.53-11.93 131.56-44.47 188.62 0 26.15-.55 213.7 15.16 230s114.41 2 114.58 1.44C385.41 445.83 367 220 367.14 219.97c.51 7.25 17.36 62 19.83 69 2.65 7.45 8.93 187.71 11.53 191.53 3.78 5.55 60 6 60 .13.03-5.51-.85-125.81-1.37-144.5z" fill="#262521" stroke="#262521" stroke-linecap="round" stroke-linejoin="round" stroke-width="3"/><path fill="#fff" d="M291.56 171.2l4.06-14.91 54.01 10.56.97 4.35h-59.04z"/><path d="M259.75 209.64c-3.07 7.58-17.19 22.17-18.07 36.52-2.67 43.65 8.57 116.21 8.57 134.67" fill="none" stroke="#636363" stroke-linecap="round" stroke-linejoin="round"/><path d="M252.93 69.3a29.34 29.34 0 00-20.27 4.64 2.49 2.49 0 00-1 1 2.59 2.59 0 000 1.58A81.46 81.46 0 00237.57 93a7.12 7.12 0 002 2.78 6.9 6.9 0 003.69 1 47.31 47.31 0 006.84-.1 4.09 4.09 0 002.18-.64 4.21 4.21 0 001.14-1.79 127.08 127.08 0 004.46-12.73 16.33 16.33 0 00.93-6.25 6.07 6.07 0 00-3.34-5.07" fill="#262521"/><path d="M308.27 57.08S303 195.43 246.51 246.14M187.09 57.62S205.66 199 240.5 230.19" fill="none" stroke="#636363" stroke-linecap="round" stroke-linejoin="round"/><path fill="none" stroke="#636363" stroke-linecap="round" stroke-linejoin="round" d="M288.85 171.2h64.28v14.24h-69.26"/><circle cx="248.78" cy="258.48" r="3.22" fill="none" stroke="#636363" stroke-linecap="round" stroke-linejoin="round"/><circle cx="251.99" cy="313.76" r="3.22" fill="none" stroke="#636363" stroke-linecap="round" stroke-linejoin="round"/><circle cx="241.27" cy="369.53" r="3.22" fill="none" stroke="#636363" stroke-linecap="round" stroke-linejoin="round"/><path d="M364.07 369.53h-58.72a6.92 6.92 0 01-6.9-6.89v-8.84c0-3.8 72.52-3.8 72.52 0v8.84a6.92 6.92 0 01-6.9 6.89zm-166.35 0H139a6.92 6.92 0 01-6.9-6.89v-8.84c0-3.8 72.52-3.8 72.52 0v8.84a6.92 6.92 0 01-6.9 6.89z" fill="none" stroke="#636363" stroke-linecap="round" stroke-linejoin="round"/></svg>