<svg xmlns="http://www.w3.org/2000/svg" width="500" height="550" viewBox="0 0 500 550"><path d="M283.59 29.24S222.83 17 204.41 34c-7.53 6.94 8.19 38.8 8.19 38.8l98.49 22.29-5.28-34s2.08-22.37-22.22-31.85z" fill="#ccc1ac" stroke="#262521" stroke-linecap="round" stroke-linejoin="round" stroke-width="3"/><path d="M291 49.3s-21.71 9.9-47.18 9.9-40.17-9.9-40.17-9.9l-19.29 26.89 34.3 71L295 129.68l2.38-44.54z" fill="#e5e5e5" stroke="#262521" stroke-linecap="round" stroke-linejoin="round" stroke-width="3"/><path d="M203.41 49.23s4 48.55 43.67 46.73 43.68-46.73 43.68-46.73l73.15 29.48s2.33 395.73-1 397.92-151.4 0-167-3.28-53.14 5-57.87 4.16-9.52-83.1-7.7-90.74 1.37-308.06 1.37-308.06z" fill="#fff" stroke="#262521" stroke-linecap="round" stroke-linejoin="round" stroke-width="3"/><path d="M462.91 371.36h-3.27c.18-7.28.32-14.57.78-21.83 6.95-74.69-23.24-144.6-51.05-212.08-8.82-19.22-14.51-42.62-30.45-57.21-21.44-13.98-46.53-19.18-70.81-26.24-5.6-1.64 6.29 50.54-27.58 63.58-22.07 8.5-76-69.41-76.85-69.15-30.43 11-63.14 16.58-90.46 34.78-23.51 30.35-34.46 68.24-48.07 103.67C42.17 244.41 37.29 306.56 38.83 368c0 0-4.66.8-6.25 2.53s-2.56 33.62 1 36.54 73 12.11 75.91 2.24 7.19-40.37 4-41.93h-2a37.42 37.42 0 00.86-9.57c-1-3.31.12-6.43.37-9.58 1.26-11.18 6-24.61-5.15-32.56-5.69-6.88 9.44-5.51 11.81-16.18 1.35-2.86 2.87-5.63 4.29-8.46 2.21 47.16-5.23 177.22 0 176.62 24.34-3.76 68.06-2.47 92.66-3 6.21-.39 12.7-.72 19.41-1L250 244.18l33.4 218.56s61.72 1.24 92 3.81c1.37.12 2.77.34 3.35-1.43 2.84-8.59-6.82-132.41-6.64-173.57l.41-.08c.5 7.25 12.44 8.7 10.93 15.93-2.92 3.85-2.68 8-1.61 12.34 3.05 11.88 5.55 24 10.45 35.29 1.35 3.61 1.5 7.13-.51 10.66a18.9 18.9 0 00-2.13 5h-3c-3 1.57 1.07 30.07 3.85 39.94s68.92 2.67 72.34-.24.07-31.21.07-39.03z" fill="#ccc1ac" stroke="#262521" stroke-linecap="round" stroke-linejoin="round" stroke-width="3"/><path d="M290.93 49.6s-3.17 43.59-42.84 45.4-43.68-46.73-43.68-46.73M124.8 180.84l-.99 110.19m247.52-102.37s0 66 .81 102.89" fill="none" stroke="#262521" stroke-linecap="round" stroke-linejoin="round" stroke-width="3"/><path d="M394.4 370.88s33.26-4.28 59.72 0M44 369s54.2 3.79 61.92-.5M378 86s-19.61 18.31-18 49.53M116.73 88.14s17.88 20.45 17.76 50.6" fill="none" stroke="#91816a" stroke-linecap="round" stroke-linejoin="round"/><path d="M250 244.18c-31.84-44-68.3-143.78-62.84-190.28l15.21-24.66s25.07 68.54 78.79 76.81c0 0 41.56-63.24 2.43-76.81 0 0 39 4.37 35 46.91-4 42.11-37.71 93.76-37.71 93.76" fill="#ccc1ac" stroke="#262521" stroke-linecap="round" stroke-linejoin="round" stroke-width="3"/><path fill="none" stroke="#91816a" stroke-linecap="round" stroke-linejoin="round" d="M238.42 235.94l-15.23 222.13"/><circle cx="246.67" cy="226.82" r="2.73" fill="#91816a"/><circle cx="242.43" cy="258.03" r="2.73" fill="#91816a"/><circle cx="240.2" cy="293.76" r="2.73" fill="#91816a"/><circle cx="237.97" cy="323.3" r="2.73" fill="#91816a"/><circle cx="235.73" cy="355.48" r="2.73" fill="#91816a"/><circle cx="233" cy="390.01" r="2.73" fill="#91816a"/><circle cx="230.97" cy="426.75" r="2.73" fill="#91816a"/><path d="M226.08 125.38s30.24 58.46 62.15-1.68m-85.86-67.53s0 70.55 40.56 160.25" fill="none" stroke="#91816a" stroke-linecap="round" stroke-linejoin="round"/><circle cx="202.25" cy="48.28" r="2.73" fill="#91816a"/><circle cx="194.69" cy="55.28" r="2.73" fill="#91816a"/><path d="M126.51 461.79s47.47-3.25 69.31-2.41a282.83 282.83 0 0036.65-.75m54.53-1.56s78.15 1.25 88.4 4.64M259.73 244.18l34.35 209.55M233 224.09l-43.71-13.19m44.41 18.65l-63.88 2.77m239.01 179.15s50-20.5 51.17-32.27m-424.85 3.95s35.22 24.11 56.5 25.62" fill="none" stroke="#91816a" stroke-linecap="round" stroke-linejoin="round"/></svg>