<svg xmlns="http://www.w3.org/2000/svg" width="500" height="550" viewBox="0 0 500 550"><path d="M372.14 291.56q-.27 61.72-.62 123.46c-.81 9-2.68 16.41-3.55 25.44-1 10.07 1.34 17.05-1.5 25.64-.59 1.76-2 1.66-3.35 1.43-44.59-7.74-101.66-5.72-146.65-2.92-24.6.57-58.62-1.68-83 2.09-5.23.59-5.68.27-6.62-4.83-1.35-11.26 1.94-18.53.53-29.31-6.15-46.82-1.39-94.37-3.6-141.53-1.42 2.83-2.94 5.6-4.29 8.46-2.37 10.68-17.5 9.3-11.81 16.18 11.11 7.95 6.41 21.38 5.15 32.56-.25 3.15-1.35 6.27-.37 9.58.51 8.44-3.19 16.94-4.38 25.31-1.5 8-10.42 41.28-11.86 49.29-.57 3.18-.61 3-3.74 2-12.38-3.52-26.09-4.38-38.6-1.18-1.39.34-2.11 0-2.41-1.47-2-7.76.82-16.67-5.49-22.43a6.62 6.62 0 01-1.33-3.22c-2.23-11-6.07-22.11-5.72-33.3-1.91-63 2.6-126.93 26.19-186 13.61-35.43 24.56-73.32 48.07-103.67 27.32-18.2 60-23.76 90.46-34.78a3.16 3.16 0 012.72.43c5 5.55 11.46 8.41 18.56 9.67 19.19 2.43 41.29 5.55 58.65-4.88 2.85-1.27 4.2-6.53 7.87-5 29.12 10.49 61 14.41 87.44 31.58 15.94 14.59 21.63 38 30.45 57.21 27.81 67.48 58 137.39 51.05 212.08-1.19 18.65-.23 37.45-3.28 55.95-.49 4.66-5.21 7.1-5.56 11.78-1.22 5.28-2.08 10.65-2.91 16-.4 2.6-.41 2.83-3.08 2.33-12.48-2.66-25.26-5.49-37.8-1.58-8.34-.15-8.13-15.56-11.44-21.4-6.28-7.37-3.61-9-5.33-17.64-.9-9.7-4.68-20.27.79-29.26 2-3.53 1.86-7.05.51-10.66-4.9-11.28-7.4-23.41-10.45-35.29-1.07-4.3-1.31-8.49 1.61-12.34 1.51-7.23-10.43-8.68-10.93-15.93z" fill="#fff" stroke="#262521" stroke-linecap="round" stroke-linejoin="round" stroke-width="3"/><path d="M204.41 48.28s4 48.55 43.68 46.73 42.84-45.41 42.84-45.41M121.8 180.85s2.11 28.61 0 44.24.11 29.7.11 32.88 1.9 33.06 1.9 33.06M371.33 188.66s5.79 47.28 0 75.34" fill="none" stroke="#262521" stroke-linecap="round" stroke-linejoin="round" stroke-width="3"/><path d="M51.32 409.51S80 400 96.47 412M402.18 412s25.94-8.31 43.55 0M115.87 87.14s12.67 16.69 11.37 35.32M131 90s40-20.36 71.71-23.25M375.35 84.32S362 95.6 365.52 124.2M290.93 66.71s47.59 11.53 63.31 20.43" fill="none" stroke="#636363" stroke-linecap="round" stroke-linejoin="round"/></svg>