<svg xmlns="http://www.w3.org/2000/svg" width="500" height="550" viewBox="0 0 500 550"><path d="M276.1 68.25l39.57-11.33s-22.8-23.49-42.58-23.49h-49.66c-19.78 0-48.84 25.75-48.84 25.75l45.83 9.07-15.13 20.27 43-12.3 43 12.3z" fill="#262521" stroke="#262521" stroke-linecap="round" stroke-linejoin="round" stroke-width="3"/><path d="M296.7 49.28s-21.71 9.9-47.18 9.9-40.17-9.9-40.17-9.9l46.49 182.57z" fill="#e5e5e5"/><path d="M296.7 49.28S279.6 58 251.93 59.1s-42.58-9.82-42.58-9.82" fill="none" stroke="#262521" stroke-linecap="round" stroke-linejoin="round" stroke-width="3"/><path d="M209.35 49.28S213.36 97.83 253 96s43.7-46.72 43.7-46.72l73.16 29.47s-1.73 402.39-5 404.58-151.4 0-167-3.28-53.14 5-57.87 4.16-5.46-10.9-3.64-18.54 1.36-386.92 1.36-386.92z" fill="#fff" stroke="#262521" stroke-linecap="round" stroke-linejoin="round" stroke-width="3"/><path d="M221.55 95.41c7.06 12 17.34 21.71 32.12 21.71s24.76-9.32 31.58-20.91" fill="none" stroke="#262521" stroke-linecap="round" stroke-linejoin="round" stroke-width="5" stroke-dasharray="1 3"/><path d="M252.85 117.2a1 1 0 010-2h1a1 1 0 011 1 1 1 0 01-.95 1h-1zm-3-.12h-.09c-.35 0-.69-.07-1-.12a1 1 0 11.25-2l1 .11a1 1 0 01.91 1.08 1 1 0 01-1.06.93zm7-.18a1 1 0 01-.14-2l1-.14a1 1 0 01.33 2l-1 .15zm-10.91-.47a1 1 0 01-.24 0c-.33-.08-.66-.16-1-.26a1 1 0 11.54-1.92c.31.08.62.17.94.24a1 1 0 01.73 1.21 1 1 0 01-.98.73zm14.82-.29a1 1 0 01-.25-2l.94-.25a1 1 0 11.55 1.92c-.33.1-.66.18-1 .27a1.07 1.07 0 01-.25.06zm-18.61-.92a1 1 0 01-.38-.07l-.95-.4a1 1 0 11.81-1.83l.89.37a1 1 0 01-.37 1.93zm22.41-.29a1 1 0 01-.94-.64 1 1 0 01.58-1.3c.3-.11.6-.24.89-.36a1 1 0 01.78 1.84l-.95.39a1.15 1.15 0 01-.37.07zm-26-1.44a1 1 0 01-.49-.13l-.89-.52a1 1 0 011-1.71l.84.49a1 1 0 01-.5 1.87zm29.62-.23a1 1 0 01-.47-1.88c.29-.15.57-.31.85-.47a1 1 0 011 1.74l-.91.49a1 1 0 01-.48.12zm-33-2a1 1 0 01-.59-.2c-.28-.2-.55-.41-.82-.62a1 1 0 111.24-1.57l.77.59a1 1 0 01.21 1.4 1 1 0 01-.78.45zm36.38-.13a1 1 0 01-.56-1.82l.79-.56a1 1 0 011.4.22 1 1 0 01-.22 1.4l-.84.59a1 1 0 01-.54.22zm-39.45-2.42a1 1 0 01-.68-.27l-.74-.7a1 1 0 011.39-1.44l.71.67a1 1 0 01.06 1.42 1 1 0 01-.71.37zm42.62 0a1 1 0 01-.76-.35 1 1 0 01.11-1.41l.73-.64a1 1 0 111.33 1.49c-.25.23-.51.45-.77.67a1 1 0 01-.61.28zm2.9-2.73a1 1 0 01-.72-1.69l.68-.71a1 1 0 011.41-.06 1 1 0 01.05 1.42c-.23.25-.46.5-.7.74a1 1 0 01-.69.32zm-48.32-.11a1 1 0 01-.75-.33c-.22-.25-.45-.5-.67-.76a1 1 0 011.51-1.31c.21.25.43.49.65.73a1 1 0 01-.07 1.42 1 1 0 01-.64.29zm51-2.87a1 1 0 01-.77-1.64c.21-.25.41-.5.61-.76a1 1 0 011.41-.16 1 1 0 01.16 1.4c-.21.27-.42.53-.64.79a1 1 0 01-.76.37zm-53.54-.2a1 1 0 01-.8-.39l-.61-.81a1 1 0 011.61-1.2c.19.27.39.53.59.79a1 1 0 01-.18 1.4 1 1 0 01-.6.25z" fill="#b7b6b0"/><path d="M253.82 118.75h-1a1 1 0 01-1-1 1 1 0 011-1h1a1 1 0 010 2zm3-.11a1 1 0 01-.08-2l1-.09a1 1 0 11.22 2l-1 .1zm-7-.17h-.13l-1-.16a1 1 0 11.32-2l1 .15a1 1 0 01.86 1.12 1 1 0 01-1.04.89zm10.93-.39a1 1 0 01-.21-2l.94-.21a1 1 0 01.48 1.94l-1 .23zm-14.85-.39a.82.82 0 01-.26 0c-.33-.08-.66-.18-1-.28a1 1 0 11.58-1.91l.93.26a1 1 0 01-.26 2zm18.7-.69a1 1 0 01-.33-1.94l.91-.34a1 1 0 01.72 1.87l-1 .35a1 1 0 01-.3.06zm-22.47-.59a1 1 0 01-.38-.08l-.95-.4a1 1 0 01.82-1.83l.89.38a1 1 0 01-.38 1.93zm26.15-1a1 1 0 01-.89-.55 1 1 0 01.44-1.34l.86-.45a1 1 0 011 1.76l-.92.48a1 1 0 01-.49.14zm-29.75-.77a1.07 1.07 0 01-.49-.12l-.88-.52a1 1 0 111-1.71l.84.48a1 1 0 01.38 1.36 1 1 0 01-.85.55zm33.21-1.23a1 1 0 01-.84-.45 1 1 0 01.29-1.39c.26-.17.53-.35.79-.54a1 1 0 011.4.24 1 1 0 01-.24 1.39l-.85.58a1 1 0 01-.55.21zm-36.58-.9a1.06 1.06 0 01-.59-.19l-.82-.61a1 1 0 011.2-1.6l.79.58a1 1 0 01-.58 1.82zm39.78-1.49a1 1 0 01-.64-1.76c.25-.21.5-.42.74-.64a1 1 0 011.32 1.51l-.78.66a1 1 0 01-.64.27zm-42.92-1a1 1 0 01-.66-.25l-.76-.68a1 1 0 011.35-1.48c.24.22.48.44.73.65a1 1 0 01.1 1.42 1 1 0 01-.78.38zm45.87-1.7a1 1 0 01-.71-1.7c.23-.24.46-.47.68-.71a1 1 0 011.42 0 1 1 0 010 1.41c-.23.25-.47.49-.71.73a1 1 0 01-.68.31zm-48.76-1.07a1 1 0 01-.72-.3l-.7-.75a1 1 0 111.47-1.35c.22.24.44.48.67.71a1 1 0 010 1.41 1 1 0 01-.72.32zm51.45-1.89a1 1 0 01-.64-.23 1 1 0 01-.12-1.41c.21-.25.42-.5.62-.76a1 1 0 011.41-.15 1 1 0 01.15 1.4c-.21.27-.43.53-.65.79a1 1 0 01-.77.4zm-54.11-1.1a1 1 0 01-.77-.36l-.64-.8a1 1 0 111.56-1.24l.62.76a1 1 0 01-.13 1.41 1 1 0 01-.64.27z" fill="#7f7e78"/><path d="M268.17 113.26a1 1 0 01-.47-1.88c.29-.15.57-.31.85-.47a1 1 0 011 1.74l-.91.49a1 1 0 01-.47.12zm-33-2a1 1 0 01-.59-.2c-.28-.2-.55-.41-.82-.62a1 1 0 111.24-1.57l.77.59a1 1 0 01.21 1.4 1 1 0 01-.77.45zm36.38-.13a1 1 0 01-.56-1.82l.79-.56a1 1 0 011.4.22 1 1 0 01-.22 1.4l-.84.59a1 1 0 01-.53.22zm-39.45-2.42a1 1 0 01-.68-.27l-.74-.7a1 1 0 011.39-1.44l.71.67a1 1 0 01.06 1.42 1 1 0 01-.7.37zm42.62 0a1 1 0 01-.76-.35 1 1 0 01.11-1.41l.73-.64a1 1 0 111.33 1.49c-.25.23-.51.45-.77.67a1 1 0 01-.6.28zm2.9-2.73a1 1 0 01-.72-1.69l.68-.71a1 1 0 011.41-.06 1 1 0 01.05 1.42c-.23.25-.46.5-.7.74a1 1 0 01-.68.32zm-48.32-.11a1 1 0 01-.75-.33c-.22-.25-.45-.5-.67-.76a1 1 0 011.51-1.31c.21.25.43.49.65.73a1 1 0 01-.07 1.42 1 1 0 01-.63.29zm51-2.87a1 1 0 01-.77-1.64c.21-.25.41-.5.61-.76a1 1 0 011.41-.16 1 1 0 01.16 1.4c-.21.27-.42.53-.64.79a1 1 0 01-.75.37z" fill="#fff" opacity=".86"/><path d="M271.74 113.45a1 1 0 01-.84-.45 1 1 0 01.29-1.39c.26-.17.53-.35.79-.54a1 1 0 011.4.24 1 1 0 01-.24 1.39l-.85.58a1 1 0 01-.55.17zm3.2-2.39a1 1 0 01-.64-1.76c.25-.21.5-.42.74-.64a1 1 0 011.32 1.51l-.78.66a1 1 0 01-.64.23zm-42.92-1a1 1 0 01-.66-.25l-.76-.68a1 1 0 011.35-1.48c.24.22.48.44.73.65a1 1 0 01.1 1.42 1 1 0 01-.78.34zm45.87-1.7a1 1 0 01-.71-1.7c.23-.24.46-.47.68-.71a1 1 0 011.42 0 1 1 0 010 1.41c-.23.25-.47.49-.71.73a1 1 0 01-.68.27zm-48.76-1.07a1 1 0 01-.72-.3l-.7-.75a1 1 0 111.47-1.35c.22.24.44.48.67.71a1 1 0 010 1.41 1 1 0 01-.72.28zm51.45-1.89a1 1 0 01-.64-.23 1 1 0 01-.12-1.41c.21-.25.42-.5.62-.76a1 1 0 011.41-.15 1 1 0 01.15 1.4c-.21.27-.43.53-.65.79a1 1 0 01-.77.36zm-54.11-1.1a1 1 0 01-.77-.36l-.64-.8a1 1 0 111.56-1.24l.62.76a1 1 0 01-.13 1.41 1 1 0 01-.64.23z" fill="#fff" opacity=".86"/><path d="M240.23 177.79c0-23.16-26.35-123.41-31.36-129a3.16 3.16 0 00-2.72-.43C175.73 59.42 143 65 115.69 83.18c-23.5 30.35-34.46 68.24-48.06 103.67-23.59 59.08-28.11 123-26.19 186-.36 11.19.74 97.95 2.77 105.72.3 1.47 62.69 2.66 63.26-.52 1.45-8 2.86-179.6 5.23-190.27 1.35-2.86 13.78-67 15.19-69.81 2.21 47.15-8.87 215.89-1.17 247.91.5 2.06 19 4.34 69 4 3.33-27.72 44.51-268.88 44.51-292.09zM457.56 331.45c-2.15-75.82-17.9-126.55-45.71-194-8.85-19.25-14.51-42.65-30.46-57.24C355 63 323.08 59.12 294 48.63c-3.68-1.54-21.88 110.6-21.88 136.75s16.23 257.08 21.09 281.49c38.05-.76 85.61-1.68 85.78-2.28 6.89-23.52-11.52-249.35-11.38-249.38.51 7.25 17.36 62 19.83 69 2.65 7.46 8.93 187.72 11.53 191.54 3.78 5.55 60 6 60 .13.03-5.44-.89-125.75-1.41-144.43z" fill="#262521" stroke="#262521" stroke-linecap="round" stroke-linejoin="round" stroke-width="3"/><path d="M172.82 61S152.29 89.43 146 98.2s90.43 19.42 91.06 87.18" fill="none" stroke="#636363" stroke-linecap="round" stroke-linejoin="round"/><path d="M191.43 124.84c.11.11.22.24.33.37" fill="none" stroke="#8e8e8e" stroke-linecap="round" stroke-linejoin="round" stroke-width="2"/><path d="M193.34 127.75c17.9 37.09 2.37 312.11.85 338.27" fill="none" stroke="#8e8e8e" stroke-linecap="round" stroke-linejoin="round" stroke-width="2" stroke-dasharray="1 3.01"/><path d="M194.1 467.52v.49" fill="none" stroke="#8e8e8e" stroke-linecap="round" stroke-linejoin="round" stroke-width="2"/><path d="M127.89 218c15.19-69.82-7.73-129.46-7.73-129.46M215 70.4s-29.31 24-27.77 44.58M315.67 58.06s38.52 39.58 38.9 46.75" fill="none" stroke="#636363" stroke-linecap="round" stroke-linejoin="round"/><path d="M354.57 104.81c.37 7.17-68.24 7.89-82.49 78 0 0 10.47 167.48 21.09 284" fill="none" stroke="#8e8e8e" stroke-linecap="round" stroke-linejoin="round" stroke-width="2" stroke-dasharray="1 3"/><path d="M289.57 70.4s28.74 24.18 28.74 44.6M378.07 85.12s-13.72 74-9 137.23M396.83 438s30.77 8.08 61.54 0M45 438s30.77 8.08 61.54 0M294.6 446.32s56.33 4.72 84.62-2.73M191.43 447.14s-26.89 3.39-65.63-1.85M377.49 397.7l-31.22-54.07 14.27-8.24 16 27.71M125.03 397.7l31.22-54.07-14.27-8.24-16 27.71" fill="none" stroke="#636363" stroke-linecap="round" stroke-linejoin="round"/></svg>