<svg xmlns="http://www.w3.org/2000/svg" width="500" height="550" viewBox="0 0 500 550"><title>s01e03-04</title><line x1="371.12" y1="496.3" x2="371.12" y2="503.71" fill="none" stroke="#84837e" stroke-linecap="round" stroke-miterlimit="10" stroke-width="3"/><rect x="358.83" y="494.86" width="24.57" height="15.18" rx="3" fill="none" stroke="#84837e" stroke-miterlimit="10" stroke-width="3"/><path d="M316,56.92s-22.8-23.49-42.58-23.49H223.72c-19.78,0-48.84,25.75-48.84,25.75l30.7,29.34h85.94Z" fill="#262521" stroke="#262521" stroke-linecap="round" stroke-linejoin="round" stroke-width="3"/><path d="M297,49.28s-21.71,9.9-47.18,9.9-40.17-9.9-40.17-9.9L190.39,76.17l34.3,71L301,129.66l2.38-44.54Z" fill="#e5e5e5"/><path d="M297,49.28S279.89,58,252.23,59.1s-42.59-9.82-42.59-9.82" fill="none" stroke="#262521" stroke-linecap="round" stroke-linejoin="round" stroke-width="3"/><path d="M209.64,49.28s4,48.55,43.68,46.73S297,49.28,297,49.28l73.16,29.47s-1.73,406.89-5,409.08-151.4,0-167-3.28-53.14,5-57.87,4.16-5.46-15.4-3.64-23,1.36-386.92,1.36-386.92Z" fill="#fff" stroke="#262521" stroke-linecap="round" stroke-linejoin="round" stroke-width="3"/><path d="M207.41,50.28s7.73,66.84,46.55,66.84,45.27-65,45.27-65" fill="none" stroke="#262521" stroke-linecap="round" stroke-linejoin="round" stroke-width="5" stroke-dasharray="1 3"/><path d="M253.14,117.2a1,1,0,0,1,0-2l1,0a1,1,0,0,1,1,1,1,1,0,0,1-.95,1l-1,0Zm-3-.12h-.09c-.35,0-.69-.07-1-.12a1,1,0,0,1-.86-1.11,1,1,0,0,1,1.11-.87l1,.11a1,1,0,0,1,.91,1.08A1,1,0,0,1,250.15,117.08Zm7-.18a1,1,0,0,1-1-.86,1,1,0,0,1,.85-1.13l1-.14a1,1,0,1,1,.33,2q-.51.09-1,.15Zm-10.91-.47a.85.85,0,0,1-.23,0c-.34-.08-.67-.16-1-.26a1,1,0,0,1-.7-1.23,1,1,0,0,1,1.23-.69c.31.08.62.17.94.24a1,1,0,0,1,.73,1.21A1,1,0,0,1,246.22,116.43Zm14.82-.29a1,1,0,0,1-.25-2l.94-.25a1,1,0,1,1,.55,1.92l-1,.27A1.07,1.07,0,0,1,261,116.14Zm-18.61-.92a1,1,0,0,1-.38-.07l-1-.4a1,1,0,1,1,.81-1.83l.89.37a1,1,0,0,1-.37,1.93Zm22.41-.29a1,1,0,0,1-.36-1.94c.3-.11.6-.24.89-.36a1,1,0,0,1,.78,1.84l-.95.39A1.15,1.15,0,0,1,264.84,114.93Zm-26-1.44a1,1,0,0,1-.49-.13l-.89-.52a1,1,0,0,1,1-1.71c.27.17.55.33.83.49a1,1,0,0,1-.5,1.87Zm29.62-.23a1,1,0,0,1-.46-1.88l.84-.47a1,1,0,0,1,1,1.74l-.91.49A1,1,0,0,1,268.46,113.26Zm-33-2a1,1,0,0,1-.59-.2c-.28-.2-.55-.41-.82-.62a1,1,0,1,1,1.24-1.57l.77.59a1,1,0,0,1,.21,1.4A1,1,0,0,1,235.5,111.31Zm36.38-.13a1,1,0,0,1-.56-1.82l.79-.56a1,1,0,0,1,1.4.22,1,1,0,0,1-.22,1.4l-.84.59A1,1,0,0,1,271.88,111.18Zm-39.45-2.42a1,1,0,0,1-.68-.27l-.74-.7a1,1,0,0,1,1.39-1.44l.71.67a1,1,0,0,1,.06,1.42A1,1,0,0,1,232.43,108.76Zm42.62,0a1,1,0,0,1-.76-.35,1,1,0,0,1,.11-1.41l.73-.64a1,1,0,1,1,1.33,1.49l-.76.67A1,1,0,0,1,275.05,108.75ZM278,106a1,1,0,0,1-.72-1.69l.68-.71a1,1,0,0,1,1.41-.06,1,1,0,0,1,.05,1.42c-.23.25-.46.5-.7.74A1,1,0,0,1,278,106Zm-48.32-.11a1,1,0,0,1-.75-.33c-.22-.25-.45-.5-.67-.76a1,1,0,0,1,1.51-1.31c.21.25.43.49.65.73a1,1,0,0,1-.74,1.67Zm51-2.87a1,1,0,0,1-.77-1.64c.21-.25.41-.5.61-.76a1,1,0,0,1,1.41-.16,1,1,0,0,1,.16,1.4c-.21.27-.42.53-.64.79A1,1,0,0,1,280.61,103Zm-53.54-.2a1,1,0,0,1-.8-.39l-.61-.81a1,1,0,0,1,1.61-1.2c.19.27.39.53.59.79a1,1,0,0,1-.79,1.61Zm56-3a1,1,0,0,1-.58-.18,1,1,0,0,1-.24-1.39l.56-.81a1,1,0,1,1,1.65,1.13l-.58.83A1,1,0,0,1,283,99.86Zm-58.29-.27a1,1,0,0,1-.84-.45l-.56-.84A1,1,0,1,1,225,97.21c.18.27.36.55.55.82a1,1,0,0,1-.83,1.56Zm60.48-3.07a1,1,0,0,1-.52-.14,1,1,0,0,1-.33-1.38l.51-.85a1,1,0,0,1,1.72,1l-.52.86A1,1,0,0,1,285.22,96.52Zm-62.61-.32a1,1,0,0,1-.87-.5l-.5-.87a1,1,0,1,1,1.73-1l.5.85a1,1,0,0,1-.36,1.37A1,1,0,0,1,222.61,96.2Zm64.6-3.15a1,1,0,0,1-.47-.12,1,1,0,0,1-.41-1.36l.47-.87a1,1,0,1,1,1.77.92l-.47.9A1,1,0,0,1,287.21,93.05Zm-66.55-.35a1,1,0,0,1-.89-.53c-.15-.3-.31-.6-.46-.91a1,1,0,1,1,1.78-.9l.45.87a1,1,0,0,1-.88,1.47ZM289,89.47a1,1,0,0,1-.43-.1,1,1,0,0,1-.47-1.33l.41-.9a1,1,0,1,1,1.82.84l-.43.92A1,1,0,0,1,289,89.47Zm-70.14-.36a1,1,0,0,1-.91-.57c-.14-.31-.29-.61-.42-.92a1,1,0,0,1,.49-1.33,1,1,0,0,1,1.32.5l.42.89A1,1,0,0,1,219.3,89,1,1,0,0,1,218.88,89.11Zm71.77-3.3a.91.91,0,0,1-.39-.08,1,1,0,0,1-.53-1.3l.38-.92a1,1,0,0,1,1.85.75l-.39.94A1,1,0,0,1,290.65,85.81Zm-73.41-.35a1,1,0,0,1-.92-.61l-.39-.93a1,1,0,0,1,.54-1.3,1,1,0,0,1,1.31.54l.38.91a1,1,0,0,1-.53,1.31A1,1,0,0,1,217.24,85.46Zm74.88-3.37a.91.91,0,0,1-.35-.07,1,1,0,0,1-.59-1.28c.12-.31.23-.62.34-.93a1,1,0,0,1,1.89.67l-.35,1A1,1,0,0,1,292.12,82.09Zm-76.38-.34a1,1,0,0,1-.93-.64l-.36-.94a1,1,0,0,1,.59-1.29,1,1,0,0,1,1.28.58l.36.93a1,1,0,0,1-.58,1.29A.92.92,0,0,1,215.74,81.75Zm77.71-3.44a1.12,1.12,0,0,1-.31,0A1,1,0,0,1,292.5,77c.11-.31.21-.63.31-.94a1,1,0,1,1,1.9.61c-.1.32-.2.64-.31,1A1,1,0,0,1,293.45,78.31ZM214.36,78a1,1,0,0,1-.94-.67l-.33-1a1,1,0,0,1,.62-1.26,1,1,0,0,1,1.27.62l.33.94a1,1,0,0,1-.62,1.27A.92.92,0,0,1,214.36,78Zm80.28-3.51a1,1,0,0,1-.28,0,1,1,0,0,1-.68-1.24l.28-1a1,1,0,0,1,1.24-.69,1,1,0,0,1,.68,1.23l-.28,1A1,1,0,0,1,294.64,74.48Zm-81.54-.29a1,1,0,0,1-1-.7l-.3-1a1,1,0,0,1,1.91-.6l.3.95a1,1,0,0,1-.65,1.26A1,1,0,0,1,213.1,74.19Zm82.61-3.57a1.07,1.07,0,0,1-.25,0,1,1,0,0,1-.72-1.22c.09-.32.17-.64.25-1a1,1,0,1,1,1.94.48c-.08.33-.16.65-.25,1A1,1,0,0,1,295.71,70.62Zm-83.78-.27a1,1,0,0,1-1-.72l-.28-1a1,1,0,0,1,1.93-.54l.27.95a1,1,0,0,1-.68,1.24A.9.9,0,0,1,211.93,70.35Zm84.73-3.62-.22,0a1,1,0,0,1-.75-1.2l.22-1a1,1,0,0,1,1.95.43l-.22,1A1,1,0,0,1,296.66,66.73Zm-85.79-.24a1,1,0,0,1-1-.75l-.25-1a1,1,0,1,1,1.94-.5l.25,1a1,1,0,0,1-.72,1.22A.73.73,0,0,1,210.87,66.49ZM297.5,62.8a.71.71,0,0,1-.2,0,1,1,0,0,1-.78-1.17l.19-1a1,1,0,0,1,2,.38l-.19,1A1,1,0,0,1,297.5,62.8Zm-88.58-1-.23-1a1,1,0,0,1,1.95-.45l.22.91-1,.29Zm89.3-3-.16,0a1,1,0,0,1-.82-1.15c.05-.34.11-.66.16-1a1,1,0,1,1,2,.32c-.05.32-.1.65-.16,1A1,1,0,0,1,298.22,58.86ZM209,58.68a1,1,0,0,1-1-.79l-.21-1a1,1,0,1,1,2-.4l.21,1a1,1,0,0,1-.77,1.19A.75.75,0,0,1,209,58.68Zm89.81-3.79h-.14a1,1,0,0,1-.85-1.13c.05-.35.09-.68.13-1a1,1,0,1,1,2,.25c0,.31-.08.64-.13,1A1,1,0,0,1,298.83,54.89Zm-90.6-.14a1,1,0,0,1-1-.82l-.18-1a1,1,0,0,1,.81-1.16,1,1,0,0,1,1.16.81l.17,1a1,1,0,0,1-.8,1.17Zm-.68-4a1,1,0,0,1-1-.85c-.1-.66-.14-1-.14-1a1,1,0,1,1,2-.27s0,.36.14,1a1,1,0,0,1-.84,1.14Z" fill="#b7b6b0"/><path d="M206,52.77a1,1,0,0,1-1-.85l-.08-.5a1,1,0,0,1,2-.29l.07.48a1,1,0,0,1-.83,1.14Z" fill="#7f7e78"/><path d="M254.11,118.75h0c-.35,0-.69,0-1,0a1,1,0,0,1-1-1,1,1,0,0,1,1-1c.32,0,.64,0,1,0a1,1,0,0,1,0,2Zm3-.11a1,1,0,0,1-.08-2l1-.09a1,1,0,1,1,.22,2l-1,.1Zm-7-.17H250l-1-.16a1,1,0,1,1,.32-2l1,.15a1,1,0,0,1,.86,1.12A1,1,0,0,1,250.12,118.47Zm10.93-.39a1,1,0,0,1-.21-2l1-.21a1,1,0,0,1,.47,1.94l-1,.23Zm-14.85-.39a.73.73,0,0,1-.25,0c-.34-.08-.67-.18-1-.28a1,1,0,1,1,.58-1.91l.93.26a1,1,0,0,1-.26,2Zm18.69-.68a1,1,0,0,1-.33-1.94l.91-.34a1,1,0,0,1,.72,1.87l-1,.35A1,1,0,0,1,264.89,117Zm-22.47-.59a1,1,0,0,1-.38-.08l-.95-.4a1,1,0,0,1,.82-1.83l.89.38a1,1,0,0,1-.38,1.93Zm26.15-1a1,1,0,0,1-.89-.55,1,1,0,0,1,.44-1.34l.86-.45a1,1,0,0,1,1,1.76l-.92.48A1,1,0,0,1,268.57,115.45Zm-29.75-.77a1.11,1.11,0,0,1-.49-.12l-.88-.52a1,1,0,1,1,1-1.71l.84.48a1,1,0,0,1,.38,1.36A1,1,0,0,1,238.82,114.68ZM272,113.45a1,1,0,0,1-.84-.45,1,1,0,0,1,.29-1.39c.27-.17.53-.35.79-.54a1,1,0,0,1,1.4.24,1,1,0,0,1-.24,1.39l-.85.58A1,1,0,0,1,272,113.45Zm-36.58-.9a1,1,0,0,1-.58-.19c-.28-.2-.56-.4-.83-.61a1,1,0,1,1,1.2-1.6l.79.58a1,1,0,0,1-.58,1.82Zm39.78-1.49a1,1,0,0,1-.64-1.76c.25-.21.5-.42.74-.64a1,1,0,0,1,1.32,1.51l-.78.66A1,1,0,0,1,275.23,111.06Zm-42.92-1a1,1,0,0,1-.65-.25l-.77-.68a1,1,0,0,1,1.35-1.48c.24.22.48.44.73.65a1,1,0,0,1,.1,1.42A1,1,0,0,1,232.31,110.06Zm45.87-1.7a1,1,0,0,1-.71-1.7c.23-.24.46-.47.68-.71a1,1,0,0,1,1.42,0,1,1,0,0,1,0,1.41c-.23.25-.47.49-.71.73A1,1,0,0,1,278.18,108.36Zm-48.76-1.07a1,1,0,0,1-.72-.3l-.7-.75a1,1,0,1,1,1.47-1.35l.67.71a1,1,0,0,1,0,1.41A1,1,0,0,1,229.42,107.29Zm51.46-1.89a1.05,1.05,0,0,1-.65-.23,1,1,0,0,1-.12-1.41c.21-.25.42-.5.62-.76a1,1,0,0,1,1.41-.15,1,1,0,0,1,.15,1.4c-.21.27-.43.53-.65.79A1,1,0,0,1,280.88,105.4Zm-54.12-1.1a1,1,0,0,1-.77-.36l-.64-.8a1,1,0,0,1,1.57-1.24c.2.26.41.51.61.76a1,1,0,0,1-.13,1.41A1,1,0,0,1,226.76,104.3Zm56.57-2.06a1,1,0,0,1-.58-.19,1,1,0,0,1-.23-1.4l.57-.8a1,1,0,1,1,1.64,1.14c-.19.28-.39.56-.59.83A1,1,0,0,1,283.33,102.24Zm-59-1.11a1,1,0,0,1-.81-.42l-.59-.83a1,1,0,0,1,.25-1.39,1,1,0,0,1,1.39.25l.57.8a1,1,0,0,1-.22,1.4A1.09,1.09,0,0,1,224.32,101.13Zm61.24-2.21a1,1,0,0,1-.53-.15,1,1,0,0,1-.31-1.38c.17-.28.34-.56.52-.84a1,1,0,1,1,1.7,1c-.17.29-.35.57-.53.86A1,1,0,0,1,285.56,98.92Zm-63.48-1.11a1,1,0,0,1-.85-.47c-.18-.29-.36-.57-.53-.86a1,1,0,1,1,1.7-1l.52.84a1,1,0,0,1-.31,1.38A.94.94,0,0,1,222.08,97.81Zm65.52-2.34a1,1,0,0,1-.49-.13,1,1,0,0,1-.39-1.35l.48-.87a1,1,0,1,1,1.76.94c-.16.3-.32.6-.49.9A1,1,0,0,1,287.6,95.47ZM220,94.36a1,1,0,0,1-.87-.51l-.5-.88a1,1,0,0,1,.4-1.36,1,1,0,0,1,1.35.39l.49.87a1,1,0,0,1-.87,1.49Zm69.43-2.45a1,1,0,0,1-.44-.1,1,1,0,0,1-.45-1.34c.14-.3.29-.59.43-.89a1,1,0,0,1,1.8.86c-.14.31-.29.61-.44.91A1,1,0,0,1,289.45,91.91Zm-71.33-1.08a1,1,0,0,1-.89-.55l-.45-.9a1,1,0,1,1,1.79-.89l.44.89a1,1,0,0,1-.43,1.34A1,1,0,0,1,218.12,90.83Zm73-2.55a1,1,0,0,1-.4-.09,1,1,0,0,1-.51-1.32l.39-.91a1,1,0,0,1,1.31-.52,1,1,0,0,1,.53,1.31l-.4.93A1,1,0,0,1,291.14,88.28Zm-74.76-1.06a1,1,0,0,1-.91-.58c-.14-.31-.28-.61-.41-.92a1,1,0,1,1,1.82-.82l.41.9a1,1,0,0,1-.49,1.33A1.06,1.06,0,0,1,216.38,87.22Zm76.3-2.64a1.21,1.21,0,0,1-.37-.07,1,1,0,0,1-.56-1.3l.36-.93A1,1,0,0,1,294,83c-.12.31-.24.63-.37.94A1,1,0,0,1,292.68,84.58Zm-77.9-1a1,1,0,0,1-.93-.62c-.13-.31-.26-.62-.38-.93a1,1,0,1,1,1.85-.75c.13.3.25.61.38.91a1,1,0,0,1-.54,1.31A.84.84,0,0,1,214.78,83.55Zm79.3-2.73a1,1,0,0,1-.33-.06,1,1,0,0,1-.61-1.27l.33-.94a1,1,0,0,1,1.27-.62,1,1,0,0,1,.62,1.27l-.33,1A1,1,0,0,1,294.08,80.82Zm-80.78-1a1,1,0,0,1-.94-.64l-.35-1a1,1,0,0,1,1.88-.69l.34.93a1,1,0,0,1-.58,1.29A1,1,0,0,1,213.3,79.82ZM295.36,77a1,1,0,0,1-.3,0,1,1,0,0,1-.65-1.25l.29-1a1,1,0,0,1,1.26-.66,1,1,0,0,1,.65,1.25l-.3,1A1,1,0,0,1,295.36,77Zm-83.42-1a1,1,0,0,1-.95-.67l-.32-1a1,1,0,0,1,1.89-.63l.32.94a1,1,0,0,1-.62,1.27A.86.86,0,0,1,211.94,76.05Zm84.58-2.87a.9.9,0,0,1-.28,0,1,1,0,0,1-.68-1.24c.09-.32.18-.63.26-1a1,1,0,1,1,1.93.53l-.27,1A1,1,0,0,1,296.52,73.18Zm-85.83-.94a1,1,0,0,1-1-.7l-.29-1a1,1,0,0,1,1.91-.59l.29,1A1,1,0,0,1,211,72.2,1,1,0,0,1,210.69,72.24Zm86.87-2.93a.77.77,0,0,1-.25,0,1,1,0,0,1-.72-1.21l.25-1a1,1,0,1,1,1.94.48l-.25,1A1,1,0,0,1,297.56,69.31Zm-88-.91a1,1,0,0,1-1-.73l-.27-1a1,1,0,1,1,1.92-.53l.27,1a1,1,0,0,1-.68,1.23A1,1,0,0,1,209.54,68.4Zm89-3-.22,0a1,1,0,0,1-.75-1.2l.22-1a1,1,0,0,1,1.19-.76,1,1,0,0,1,.76,1.19l-.22,1A1,1,0,0,1,298.5,65.41Zm-90-.88a1,1,0,0,1-1-.76l-.25-1a1,1,0,0,1,1.94-.49l.24,1a1,1,0,0,1-.72,1.22A1,1,0,0,1,208.5,64.53Zm90.84-3.05-.2,0a1,1,0,0,1-.78-1.17l.19-1a1,1,0,1,1,2,.37l-.19,1A1,1,0,0,1,299.34,61.48Zm-91.79-.85a1,1,0,0,1-1-.78l-.22-1a1,1,0,1,1,2-.43l.22,1a1,1,0,0,1-.75,1.2A.83.83,0,0,1,207.55,60.63Zm92.52-3.1h-.17a1,1,0,0,1-.82-1.16l.16-1a1,1,0,0,1,2,.32l-.17,1A1,1,0,0,1,300.07,57.53ZM206.7,56.7a1,1,0,0,1-1-.8c-.07-.35-.13-.68-.19-1a1,1,0,1,1,2-.38c.06.3.12.63.19,1a1,1,0,0,1-.78,1.18A.65.65,0,0,1,206.7,56.7Z" fill="#7f7e78"/><path d="M300.67,53.58h-.13a1,1,0,0,1-.86-1.12l.05-.47a1,1,0,1,1,2,.21l-.06.52A1,1,0,0,1,300.67,53.58Z" fill="#7f7e78"/><g opacity="0.86"><path d="M268.46,113.26a1,1,0,0,1-.46-1.88l.84-.47a1,1,0,0,1,1,1.74l-.91.49A1,1,0,0,1,268.46,113.26Zm-33-2a1,1,0,0,1-.59-.2c-.28-.2-.55-.41-.82-.62a1,1,0,1,1,1.24-1.57l.77.59a1,1,0,0,1,.21,1.4A1,1,0,0,1,235.5,111.31Zm36.38-.13a1,1,0,0,1-.56-1.82l.79-.56a1,1,0,0,1,1.4.22,1,1,0,0,1-.22,1.4l-.84.59A1,1,0,0,1,271.88,111.18Zm-39.45-2.42a1,1,0,0,1-.68-.27l-.74-.7a1,1,0,0,1,1.39-1.44l.71.67a1,1,0,0,1,.06,1.42A1,1,0,0,1,232.43,108.76Zm42.62,0a1,1,0,0,1-.76-.35,1,1,0,0,1,.11-1.41l.73-.64a1,1,0,1,1,1.33,1.49l-.76.67A1,1,0,0,1,275.05,108.75ZM278,106a1,1,0,0,1-.72-1.69l.68-.71a1,1,0,0,1,1.41-.06,1,1,0,0,1,.05,1.42c-.23.25-.46.5-.7.74A1,1,0,0,1,278,106Zm-48.32-.11a1,1,0,0,1-.75-.33c-.22-.25-.45-.5-.67-.76a1,1,0,0,1,1.51-1.31c.21.25.43.49.65.73a1,1,0,0,1-.74,1.67Zm51-2.87a1,1,0,0,1-.77-1.64c.21-.25.41-.5.61-.76a1,1,0,0,1,1.41-.16,1,1,0,0,1,.16,1.4c-.21.27-.42.53-.64.79A1,1,0,0,1,280.61,103ZM283,99.86a1,1,0,0,1-.58-.18,1,1,0,0,1-.24-1.39l.56-.81a1,1,0,1,1,1.65,1.13l-.58.83A1,1,0,0,1,283,99.86Z" fill="#fff"/></g><g opacity="0.86"><path d="M206,52.77a1,1,0,0,1-1-.85l-.08-.5a1,1,0,0,1,2-.29l.07.48a1,1,0,0,1-.83,1.14Z" fill="#fff"/><path d="M272,113.45a1,1,0,0,1-.84-.45,1,1,0,0,1,.29-1.39c.27-.17.53-.35.79-.54a1,1,0,0,1,1.4.24,1,1,0,0,1-.24,1.39l-.85.58A1,1,0,0,1,272,113.45Zm3.2-2.39a1,1,0,0,1-.64-1.76c.25-.21.5-.42.74-.64a1,1,0,0,1,1.32,1.51l-.78.66A1,1,0,0,1,275.23,111.06Zm-42.92-1a1,1,0,0,1-.65-.25l-.77-.68a1,1,0,0,1,1.35-1.48c.24.22.48.44.73.65a1,1,0,0,1,.1,1.42A1,1,0,0,1,232.31,110.06Zm45.87-1.7a1,1,0,0,1-.71-1.7c.23-.24.46-.47.68-.71a1,1,0,0,1,1.42,0,1,1,0,0,1,0,1.41c-.23.25-.47.49-.71.73A1,1,0,0,1,278.18,108.36Zm-48.76-1.07a1,1,0,0,1-.72-.3l-.7-.75a1,1,0,1,1,1.47-1.35l.67.71a1,1,0,0,1,0,1.41A1,1,0,0,1,229.42,107.29Zm51.46-1.89a1.05,1.05,0,0,1-.65-.23,1,1,0,0,1-.12-1.41c.21-.25.42-.5.62-.76a1,1,0,0,1,1.41-.15,1,1,0,0,1,.15,1.4c-.21.27-.43.53-.65.79A1,1,0,0,1,280.88,105.4Zm-54.12-1.1a1,1,0,0,1-.77-.36l-.64-.8a1,1,0,0,1,1.57-1.24c.2.26.41.51.61.76a1,1,0,0,1-.13,1.41A1,1,0,0,1,226.76,104.3Z" fill="#fff"/><path d="M300.67,53.58h-.13a1,1,0,0,1-.86-1.12l.05-.47a1,1,0,1,1,2,.21l-.06.52A1,1,0,0,1,300.67,53.58Z" fill="#fff"/></g><path d="M235,185.94c0-23.16-20.87-131.56-25.88-137.11a3.16,3.16,0,0,0-2.72-.43C176,59.42,143.31,65,116,83.18c-23.5,30.35-34.46,68.24-48.06,103.67-23.59,59.08-28.11,123-26.19,186-.36,11.18.74,97.95,2.77,105.72.3,1.47,62.69,2.66,63.26-.52,1.45-8,2.86-179.6,5.23-190.27,1.35-2.86,13.78-67,15.19-69.81,2.21,47.15-8.87,215.89-1.17,247.91.5,2.06,19,4.34,69,4C199.34,442.16,235,209.11,235,185.94Z" fill="#262521" stroke="#262521" stroke-linecap="round" stroke-linejoin="round" stroke-width="3"/><path d="M285.07,466.15c0,.5.05,1,.08,1.49l.6,10.55a1.18,1.18,0,0,0,.05.31.8.8,0,0,0,.07.2.14.14,0,0,0,0,.06,1.74,1.74,0,0,0,.11.18l.06.1s0,0,0,0a1.33,1.33,0,0,0,1.19.56l4.35-.49a1.54,1.54,0,0,0,1.4-1.93c-.09-.49-.17-1-.26-1.47q-.88-5.21-1.78-10.41a1.52,1.52,0,0,0-1.49-1.08l-3,.34A1.53,1.53,0,0,0,285.07,466.15Zm2.85,6.58,1.49-.2a1,1,0,0,1,1.12.86l.37,2.75a1,1,0,0,1-.87,1.12l-1.49.2a1,1,0,0,1-1.12-.86l-.36-2.75A1,1,0,0,1,287.92,472.73Z" fill="#84837e"/><path d="M457.13,336.13c-2.15-75.82-17.9-126.54-45.71-194-8.83-19.22-14.51-42.62-30.46-57.2-26.38-17.18-57.48-25.13-86.6-35.62-3.68-1.54-22.71,114.63-22.71,140.78s16.23,257.08,21.09,281.49c38.05-.76,85.61-1.68,85.78-2.28,6.89-23.52-11.52-249.35-11.38-249.38.51,7.25,17.36,62,19.83,69,2.65,7.45,8.93,187.71,11.53,191.53,3.78,5.55,60,6,60,.13C458.53,475.12,457.65,354.82,457.13,336.13Z" fill="#262521" stroke="#262521" stroke-linecap="round" stroke-linejoin="round" stroke-width="3"/><path d="M173.11,61s-20.53,28.45-26.8,37.22c-4.58,6.42,44.51,12.37,72.22,42.39" fill="none" stroke="#636363" stroke-linecap="round" stroke-linejoin="round"/><path d="M201.89,206.26v.5" fill="none" stroke="#8e8e8e" stroke-linecap="round" stroke-linejoin="round" stroke-width="2"/><path d="M202,209.78c1.65,95.24-6.41,237.74-7.48,256.23" fill="none" stroke="#8e8e8e" stroke-linecap="round" stroke-linejoin="round" stroke-width="2" stroke-dasharray="1.01 3.02"/><path d="M194.39,467.52l0,.49" fill="none" stroke="#8e8e8e" stroke-linecap="round" stroke-linejoin="round" stroke-width="2"/><path d="M191.72,124.84c.11.11.22.24.33.37" fill="none" stroke="#8e8e8e" stroke-linecap="round" stroke-linejoin="round" stroke-width="2"/><path d="M193.61,127.69c2.06,4.24,3.68,11.62,4.93,21.42" fill="none" stroke="#8e8e8e" stroke-linecap="round" stroke-linejoin="round" stroke-width="2" stroke-dasharray="0.98 2.94"/><path d="M198.72,150.58l.06.5" fill="none" stroke="#8e8e8e" stroke-linecap="round" stroke-linejoin="round" stroke-width="2"/><path d="M128.18,218c15.19-69.82-7.73-129.46-7.73-129.46" fill="none" stroke="#636363" stroke-linecap="round" stroke-linejoin="round"/><path d="M316,58.06s38.52,39.58,38.9,46.75c0,0-53.54,35.44-54.16,42.32" fill="none" stroke="#636363" stroke-linecap="round" stroke-linejoin="round"/><path d="M331.86,164.72s-40.52,32.95-54.15,111c0,0,5.13,74.57,15.75,191.12" fill="none" stroke="#8e8e8e" stroke-linecap="round" stroke-linejoin="round" stroke-width="2" stroke-dasharray="1 3"/><path d="M378.36,85.12s-13.72,74-9,137.23" fill="none" stroke="#636363" stroke-linecap="round" stroke-linejoin="round"/><path d="M397.13,438s30.76,8.08,61.53,0" fill="none" stroke="#636363" stroke-linecap="round" stroke-linejoin="round"/><path d="M45.34,438s30.76,8.08,61.53,0" fill="none" stroke="#636363" stroke-linecap="round" stroke-linejoin="round"/><path d="M294.89,446.32s56.33,4.72,84.62-2.73" fill="none" stroke="#636363" stroke-linecap="round" stroke-linejoin="round"/><path d="M191.72,447.14s-26.89,3.39-65.63-1.85" fill="none" stroke="#636363" stroke-linecap="round" stroke-linejoin="round"/><polyline points="377.78 397.7 346.57 343.63 360.83 335.39 376.83 363.1" fill="none" stroke="#636363" stroke-linecap="round" stroke-linejoin="round"/><polyline points="125.32 397.7 156.54 343.63 142.28 335.39 126.27 363.1" fill="none" stroke="#636363" stroke-linecap="round" stroke-linejoin="round"/><rect x="284.88" y="453.59" width="5.37" height="13.94" rx="1" transform="translate(-27.21 18.15) rotate(-3.45)" stroke-width="3" stroke="#262521" stroke-linecap="round" stroke-linejoin="round" fill="#262521"/><path d="M334.68,163.34s-47.08-19.85-55.07-30.52" fill="none" stroke="#636363" stroke-linecap="round" stroke-linejoin="round"/><path d="M228.14,132.82c-8,10.67-55.75,31.9-55.75,31.9s38.46,28,52.07,107.6" fill="none" stroke="#636363" stroke-linecap="round" stroke-linejoin="round"/><circle cx="319.83" cy="163.34" r="2.42" fill="#636363"/><circle cx="189.53" cy="164.22" r="2.42" fill="#636363"/><path d="M122.76,79.79s-.18-7.43,4.73-9.93S149.17,61,153.65,59.24s11.92,1.9,11.92,1.9l-2.29.65a9.28,9.28,0,0,0-9.92-1.41c-6,2.43-21.27,8.42-24.84,10.18S124,79.44,124,79.44Z" fill="#262521" stroke="#262521" stroke-linecap="round" stroke-linejoin="round" stroke-width="3"/><path d="M371.91,81s.3-7.43-4.56-10-21.53-9.28-26-11.07-11.95,1.71-11.95,1.71l2.28.68a9.29,9.29,0,0,1,9.94-1.24c6,2.53,21.13,8.78,24.67,10.59s4.38,9,4.38,9Z" fill="#262521" stroke="#262521" stroke-linecap="round" stroke-linejoin="round" stroke-width="3"/><path d="M157.6,492.11c-1.38-10.74-5.49-38.77-5.49-38.77H132.62s2.76,28.91,5.91,42.52c1.07,4.61,13.69,13.1,13.69,13.1S158,495.14,157.6,492.11ZM142,473.54a3.11,3.11,0,1,1,3.11,3.11A3.1,3.1,0,0,1,142,473.54Zm1.75,11.26a3.1,3.1,0,1,1,3.1,3.1A3.1,3.1,0,0,1,143.76,484.8Zm5.33,15.83a3.11,3.11,0,1,1,3.1-3.1A3.1,3.1,0,0,1,149.09,500.63Z" fill="#262521" stroke="#262521" stroke-linecap="round" stroke-linejoin="round" stroke-width="3"/><rect x="362.17" y="455.21" width="17.89" height="41.84" stroke-width="3" stroke="#262521" stroke-linecap="round" stroke-linejoin="round" fill="#262521"/></svg>