<svg xmlns="http://www.w3.org/2000/svg" width="500" height="550" viewBox="0 0 500 550"><defs><clipPath id="a"><path fill="none" d="M0 0h6.67v4.01H0z"/></clipPath><pattern id="b" width="6.67" height="4.01" patternTransform="matrix(2.06 0 0 2.06 77.85 -70.18)" patternUnits="userSpaceOnUse" viewBox="0 0 6.67 4.01"><path fill="none" d="M0 0h6.67v4.01H0z"/><path fill="#262522" d="M0 0h6.67v4.01H0z"/><g clip-path="url(#a)" opacity=".4"><path fill="#262521" d="M0 0h6.67v4.01H0z"/><path fill="none" stroke="#636363" stroke-linecap="round" stroke-linejoin="round" stroke-width=".6" d="M1.62 1.16l3.43 1.69m-.1-1.69l3.43 1.69m-10.1-1.69l3.44 1.69"/></g></pattern></defs><path d="M204.32 48.28s39.3 14.8 87.35 0L318.53 103l-77.8 46.2-48.33-65.31z" fill="#262521" stroke="#262521" stroke-linecap="round" stroke-linejoin="round" stroke-width="3"/><path d="M204.32 48.28s39.18 30.16 87.35 0L318.53 103 192.4 83.89z" fill="#e5e5e5" stroke="#262521" stroke-linecap="round" stroke-linejoin="round" stroke-width="3"/><path d="M204.51 48.28s3.53 36.21 43.2 34.39 44.15-34.39 44.15-34.39L365 77.75s-1.73 402.39-5 404.58-151.41 0-167.06-3.28-53.14 5-57.87 4.16-2.28-405.46-2.28-405.46z" fill="#fff" stroke="#262521" stroke-linecap="round" stroke-linejoin="round" stroke-width="3"/><path d="M199.54 168c-8.21-49.35 4.78-120 4-119.75C173.08 59.3 140 65 112.72 83.18c-23.51 30.35-34.46 68.24-48.07 103.67-23.59 59.08-28.1 123-26.19 186a144.46 144.46 0 002.72 33.3 6.24 6.24 0 001.33 3.22c3 2.77 0 14.15 2 21.91.3 1.47 1 1.81 2.4 1.47 12.52-3.2 38.06-2.14 50.44 1.38 3.12.94 3.17 1.12 3.74-2.05 1.44-8-1.86-15.46 3.85-21.74a5.1 5.1 0 001.13-3.3c-1.07-8.1 0-16 1.54-23.93 1.19-8.37 4.89-16.87 4.38-25.31-1-3.31.12-6.43.37-9.58 1.26-11.18 6-24.61-5.15-32.56-5.69-6.88 9.44-5.51 11.81-16.18 1.35-2.86 2.87-5.63 4.29-8.46-2.42 55.68 1.1 208.4 2.44 219.66.94 5.1 1.4 5.42 6.62 4.82 24.35-3.76 68.65-11 81.12-34s4-205.5-13.95-313.5z" fill="#262521" stroke="#262521" stroke-linecap="round" stroke-linejoin="round" stroke-width="3"/><path d="M184.43 172.05c-8.2-49.35 5.38-119.37 4.57-119.11-30.42 11-49 12-76.28 30.24-23.51 30.35-34.46 68.24-48.07 103.67-23.59 59.08-28.1 123-26.19 186a144.46 144.46 0 002.72 33.3 6.24 6.24 0 001.33 3.22c3 2.77 0 14.15 2 21.91.3 1.47 1 1.81 2.4 1.47 12.52-3.2 38.06-2.14 50.44 1.38 3.12.94 3.17 1.12 3.74-2.05 1.44-8-1.86-15.46 3.85-21.74a5.1 5.1 0 001.13-3.3c-1.07-8.1 0-16 1.54-23.93 1.19-8.37 4.89-16.87 4.38-25.31-1-3.31.12-6.43.37-9.58 1.26-11.18 6-24.61-5.15-32.56-5.69-6.88 9.44-5.51 11.81-16.18 1.35-2.86 2.87-5.63 4.29-8.46-2.42 55.68.77 193.39 2.12 204.65.93 5.09 1.39 5.41 6.61 4.82 24.35-3.77 56-10 68.45-33s1.9-187.49-16.06-295.44z" stroke="#262521" stroke-miterlimit="10" stroke-width="3" fill="url(#b)"/><path d="M130.84 500.72c24.8-4.31 58.46-12.45 69.08-32.06 12.46-23.05 3-185.4-15-293.39-8.2-49.35 4.78-120 4-119.76" fill="none" stroke="#636363" stroke-linecap="round" stroke-linejoin="round"/><path d="M408.87 137.42c-8.82-19.22-14.51-42.62-30.45-57.21C352 63 320.48 58.77 291.36 48.28c-2.42-1 10.17 62.28 5 138.87s-22.93 280.68-9.36 301 77.49 36.34 82 23.43c2.95-8.55 2.48-178.86 2.66-220l.41-.08c.5 7.25 12.44 8.7 10.93 15.93-2.92 3.85-2.68 8-1.61 12.34 3.05 11.87 5.55 24 10.45 35.29 1.35 3.61 1.5 7.13-.51 10.66-5.47 9-1.69 19.56-.79 29.26 1.72 8.67 2.72 8.32 5.33 17.64.6 2.16-7.74 19.5.6 19.65 12.54-3.91 39.84.29 52.32 2.94 2.67.5 2.68.28 3.09-2.33.83-5.36-2-10.34-.78-15.62.35-4.69 5.07-7.12 5.56-11.78 3.05-18.5 2.09-37.3 3.28-56 6.93-74.67-23.26-144.58-51.07-212.06z" fill="#262521" stroke="#262521" stroke-linecap="round" stroke-linejoin="round" stroke-width="3"/><path d="M408.87 137.42c-8.82-19.22-14.51-42.62-30.45-57.21C352 63 334.73 63.44 305.61 53c-2.42-1 10.44 56.27 5.3 132.86s-24.64 273.62-11.06 293.93 70.7 30.2 70.11 21c-.57-9 1.5-168 1.68-209.17l.41-.08c.5 7.25 12.44 8.7 10.93 15.93-2.92 3.85-2.68 8-1.61 12.34 3.05 11.87 5.55 24 10.45 35.29 1.35 3.61 1.5 7.13-.51 10.66-5.47 9-1.69 19.56-.79 29.26 1.72 8.67 2.72 8.32 5.33 17.64.6 2.16-7.74 19.5.6 19.65 12.54-3.91 39.84.29 52.32 2.94 2.67.5 2.68.28 3.09-2.33.83-5.36-2-10.34-.78-15.62.35-4.69 5.07-7.12 5.56-11.78 3.05-18.5 2.09-37.3 3.28-56 6.95-74.71-23.24-144.62-51.05-212.1z" stroke="#262521" stroke-miterlimit="10" stroke-width="3" fill="url(#b)"/><path d="M305.37 55.51s10.17 62.28 5 138.88-24.13 265-10.55 285.35c9.21 13.8 41.09 23.43 64.39 23.43" fill="none" stroke="#636363" stroke-linecap="round" stroke-linejoin="round"/><circle cx="206.92" cy="289.8" r="5.06" fill="#cec8b2"/><circle cx="210.12" cy="337.27" r="5.06" fill="#cec8b2"/><circle cx="211.98" cy="384.65" r="5.06" fill="#cec8b2"/><circle cx="212.27" cy="434.28" r="5.06" fill="#cec8b2"/></svg>