<svg xmlns="http://www.w3.org/2000/svg" width="500" height="550" viewBox="0 0 500 550"><path d="M372.14 295.65q-.27 61.74-.62 123.46c-.81 9-2.68 16.41-3.55 25.45-1 10.07 1.34 17-1.5 25.63-.59 1.77-2 1.67-3.35 1.43-17.11-3-44.4-5-49.44-2.65s3.57 24.48 0 27.78-114.15 1.62-126.54 1.63c-5.26 0-2.65-29.68-2.65-29.68-5.25.13-31.85-.87-51 2.09-5.23.6-5.68.28-6.62-4.82-1.35-11.26 1.94-18.53.53-29.31-6.15-46.82-1.39-94.38-3.6-141.53-1.42 2.82-2.94 5.6-4.29 8.45-2.37 10.68-17.5 9.31-11.81 16.19 11.11 8 6.41 21.38 5.15 32.56-.25 3.15-1.35 6.27-.37 9.58.51 8.43-3.19 16.94-4.38 25.31-1.5 8-10.42 41.27-11.86 49.29-.57 3.17-.61 3-3.74 2.05-12.38-3.52-26.09-4.38-38.6-1.18-1.39.34-2.11 0-2.41-1.47-2-7.76.82-16.67-5.49-22.43a6.66 6.66 0 01-1.33-3.22c-2.23-11-6.07-22.12-5.72-33.31-1.91-63 2.6-126.93 26.19-186 13.61-35.43 24.56-73.32 48.07-103.67 27.32-18.2 60-23.76 90.46-34.78a3.13 3.13 0 012.72.43c5 5.55 11.46 8.41 18.56 9.67 19.19 2.42 41.29 5.55 58.65-4.88 2.85-1.27 4.2-6.53 7.87-5 29.12 10.5 61 14.41 87.44 31.59 15.94 14.59 21.63 38 30.45 57.2 27.81 67.49 58 137.4 51.05 212.08-1.19 18.66-.23 37.45-3.28 56-.49 4.66-5.21 7.09-5.56 11.78-1.22 5.28-2.08 10.65-2.91 16-.4 2.6-.41 2.82-3.08 2.32-12.48-2.65-25.26-5.48-37.8-1.58-8.34-.14-8.13-15.55-11.44-21.4-6.28-7.37-3.61-9-5.33-17.63-.9-9.7-4.68-20.27.79-29.27 2-3.53 1.86-7 .51-10.65-4.9-11.29-7.4-23.42-10.45-35.3-1.07-4.3-1.31-8.49 1.61-12.33 1.51-7.24-10.43-8.68-10.93-15.93z" fill="#f9f9f7" stroke="#262521" stroke-linecap="round" stroke-linejoin="round" stroke-width="3"/><path d="M121.8 184.94s2.11 28.62 0 44.25.11 29.69.11 32.87 1.9 33.07 1.9 33.07m247.52-102.37s-1.25 73.85.81 102.89" fill="none" stroke="#262521" stroke-linecap="round" stroke-linejoin="round" stroke-width="3"/><path fill="none" stroke="#d6d6d2" stroke-linecap="round" stroke-linejoin="round" stroke-width="4" d="M73.89 410.04v20.46m-9.65-20.45l.99 20.44m19.15-20.42l-1.48 20.41m11.59-18.25l-4.14 20.03m-35-20.82l2.04 20.36m367.43-21.49v20.46m-10.11-20.42l1.9 20.38m18.69-20.39l-1.48 20.4m11.59-18.24l-4.14 20.03m-36.39-20.7l3.82 20.11m-161.39 39.81v20.46m11.06-20.46v20.46m11.06-20.46v20.46m11.06-20.46v20.46m11.07-20.96v20.46m11.06-20.46v20.46m22.12-52.12v20.46m-152.37-20.46v20.46m19.63 11.7v20.46m11.06-19.96v20.46m-65.95-51.1l1.15 20.43m9.79-21.93l1.39 20.42m10.87-20.94v20.46m53.81 12.2v20.46m11.06-21.46v20.46m11.06-19.96v20.46m99.93-51.61l-.73 20.45m12.04-19.44l-1.23 20.42m12.09-19.43l-.82 20.44M293.56 70.56l14 3.64m-11.9-12.09l13.99 3.64m-61.98 38.7v14.46m9.62-15.19l.74 14.44m7.77-17.13l2.41 14.25m4.7-18.08l5.16 13.51m1.52-18.54l8.13 11.96m-2.55-18.27l11.52 8.75m-7.3-15.89l13.26 5.77M201.78 70.56l-14 3.64m11.9-12.09l-13.99 3.64m52.36 37.97l-.75 14.44m-7.76-17.13l-2.41 14.25m-4.7-18.08l-5.16 13.51m-1.53-18.54l-8.13 11.96m2.56-18.27l-11.52 8.75m7.3-15.89l-13.27 5.77"/><path d="M204.41 52.37s4 48.55 43.68 46.73 42.84-45.41 42.84-45.41" fill="none" stroke="#262521" stroke-linecap="round" stroke-linejoin="round" stroke-width="3"/><path fill="none" stroke="#d6d6d2" stroke-linecap="round" stroke-linejoin="round" stroke-width="4" d="M183.33 81.6v380.44M313.68 78.72v383.32m-66.01-334.49s-5.45 15.64-5.45 14.85 5.16 15.45 5.45 14.65-5.45 16.64-5.45 16.64l5.45 15.64m.53-61.78s5.45 15.64 5.45 14.85-5.16 15.45-5.45 14.65 5.45 16.64 5.45 16.64l-5.45 15.64m-.53 0s-5.45 15.64-5.45 14.85 5.16 15.44 5.45 14.65-5.45 16.63-5.45 16.63l5.45 15.65m.53-61.78s5.45 15.64 5.45 14.85-5.16 15.44-5.45 14.65 5.45 16.63 5.45 16.63l-5.45 15.65m-.53 0s-5.45 15.64-5.45 14.85 5.16 15.44 5.45 14.65-5.45 16.63-5.45 16.63l5.45 15.64m.53-61.77s5.45 15.64 5.45 14.85-5.16 15.44-5.45 14.65 5.45 16.63 5.45 16.63l-5.45 15.64m-.53 0s-5.45 15.65-5.45 14.85 5.16 15.45 5.45 14.66-5.45 16.61-5.45 16.61l5.45 15.64m.53-61.76s5.45 15.65 5.45 14.85-5.16 15.45-5.45 14.66 5.45 16.61 5.45 16.61l-5.45 15.64m-.53.02s-5.45 15.64-5.45 14.85 5.16 15.45 5.45 14.65-5.45 16.64-5.45 16.64l5.45 15.64m.53-61.78s5.45 15.64 5.45 14.85-5.16 15.45-5.45 14.65 5.45 16.64 5.45 16.64l-5.45 15.64m-.53.56s-5.45 15.64-5.45 14.85 5.16 15.45 5.45 14.65m-8-338.95s-5.45 15.64-5.45 14.85 5.16 15.45 5.45 14.65-5.45 16.64-5.45 16.64l5.45 15.64m0 0s-5.45 15.64-5.45 14.85 5.16 15.44 5.45 14.65-5.45 16.63-5.45 16.63l5.45 15.65m0 0s-5.45 15.64-5.45 14.85 5.16 15.44 5.45 14.65-5.45 16.63-5.45 16.63l5.45 15.64m0 0s-5.45 15.65-5.45 14.85 5.16 15.45 5.45 14.66-5.45 16.61-5.45 16.61l5.45 15.64m0 .02s-5.45 15.64-5.45 14.85 5.16 15.45 5.45 14.65-5.45 16.64-5.45 16.64l5.45 15.64m0 .56s-5.45 15.64-5.45 14.85 5.16 15.45 5.45 14.65m8.53-29.5s5.45 15.64 5.45 14.85-5.16 15.45-5.45 14.65m7.5-338.95s5.45 15.64 5.45 14.85-5.16 15.45-5.45 14.65 5.45 16.64 5.45 16.64l-5.45 15.64m0 0s5.45 15.64 5.45 14.85-5.16 15.44-5.45 14.65 5.45 16.63 5.45 16.63l-5.45 15.65m0 0s5.45 15.64 5.45 14.85-5.15 15.44-5.45 14.65 5.45 16.63 5.45 16.63l-5.45 15.64m0 0s5.45 15.65 5.45 14.85-5.16 15.45-5.45 14.66 5.45 16.61 5.45 16.61l-5.45 15.64m0 .02s5.45 15.64 5.45 14.85S256 405 255.7 404.16s5.45 16.64 5.45 16.64l-5.45 15.64m0 .56s5.45 15.64 5.45 14.85-5.16 15.45-5.45 14.65m37.73-343.36l14.52-8.96m-14.52 1.96l14.52-8.96m-14.52 40.86l14.52-8.96m-14.52 41.49l14.52-8.96m-14.52 42.01l14.52-8.96m-14.52 40.99l14.52-8.96m-14.52 41.78l14.52-8.96m-14.52 40.82l14.52-8.96m-14.52 41.94l14.52-8.96m-14.52 40.81l14.52-8.96m-14.52 42.25l14.52-8.96m-14.52 42.2l14.52-8.96M293.43 155.1l14.52-8.96m-14.52 41.31l14.52-8.96m-14.52 41.99l14.52-8.96m-14.52 41.32l14.52-8.96m-14.52 41.05l14.52-8.96m-14.52 41.32l14.52-8.96m-14.52 41.99l14.52-8.96m-14.52 41.31l14.52-8.96m-14.52 42.04l14.52-8.96m-14.52 41.31l14.52-8.96m-105.04-316l-14.52-8.96m14.52 40.92l-14.52-8.96m14.52 41.31l-14.52-8.96m14.52 41.99l-14.52-8.96m14.52 41.32l-14.52-8.96m14.52 41.05l-14.52-8.96m14.52 41.32l-14.52-8.96m14.52 41.99l-14.52-8.96m14.52 41.31l-14.52-8.96m14.52 42.04l-14.52-8.96m14.52 41.31l-14.52-8.96m14.52-323l-14.52-8.96m14.52 40.92l-14.52-8.96m14.52 41.31l-14.52-8.96m14.52 41.99l-14.52-8.96m14.52 41.32l-14.52-8.96m14.52 41.05l-14.52-8.96m14.52 41.32l-14.52-8.96m14.52 41.99l-14.52-8.96m14.52 41.31l-14.52-8.96m14.52 42.04l-14.52-8.96m14.52 41.31l-14.52-8.96"/><rect x="270.64" y="138.66" width="12.7" height="24.95" rx="6.35" transform="rotate(-65.58 276.987 151.135)" stroke-width="4" stroke="#d6d6d2" stroke-linecap="round" stroke-linejoin="round" fill="none"/><rect x="270.64" y="124.55" width="12.7" height="24.95" rx="6.35" transform="rotate(-65.58 276.986 137.022)" stroke-width="4" stroke="#d6d6d2" stroke-linecap="round" stroke-linejoin="round" fill="none"/><path d="M285.19 119.89a6.38 6.38 0 013.16 8.41h0a6.38 6.38 0 01-8.41 3.16l-11.15-5.06a6.37 6.37 0 01-3.19-3.26" fill="none" stroke="#d6d6d2" stroke-linecap="round" stroke-linejoin="round" stroke-width="4"/><rect x="270.64" y="167.73" width="12.7" height="24.95" rx="6.35" transform="rotate(-65.58 276.985 180.205)" stroke-width="4" stroke="#d6d6d2" stroke-linecap="round" stroke-linejoin="round" fill="none"/><rect x="270.64" y="153.62" width="12.7" height="24.95" rx="6.35" transform="rotate(-65.58 276.984 166.091)" stroke-width="4" stroke="#d6d6d2" stroke-linecap="round" stroke-linejoin="round" fill="none"/><rect x="270.64" y="195.55" width="12.7" height="24.95" rx="6.35" transform="rotate(-65.58 276.98 208.02)" stroke-width="4" stroke="#d6d6d2" stroke-linecap="round" stroke-linejoin="round" fill="none"/><rect x="270.64" y="181.44" width="12.7" height="24.95" rx="6.35" transform="rotate(-65.58 276.985 193.91)" stroke-width="4" stroke="#d6d6d2" stroke-linecap="round" stroke-linejoin="round" fill="none"/><rect x="270.64" y="224.62" width="12.7" height="24.95" rx="6.35" transform="rotate(-65.58 276.977 237.089)" stroke-width="4" stroke="#d6d6d2" stroke-linecap="round" stroke-linejoin="round" fill="none"/><rect x="270.64" y="210.5" width="12.7" height="24.95" rx="6.35" transform="rotate(-65.58 276.976 222.975)" stroke-width="4" stroke="#d6d6d2" stroke-linecap="round" stroke-linejoin="round" fill="none"/><rect x="270.64" y="252.98" width="12.7" height="24.95" rx="6.35" transform="rotate(-65.58 276.983 265.449)" stroke-width="4" stroke="#d6d6d2" stroke-linecap="round" stroke-linejoin="round" fill="none"/><rect x="270.64" y="238.86" width="12.7" height="24.95" rx="6.35" transform="rotate(-65.58 276.981 251.336)" stroke-width="4" stroke="#d6d6d2" stroke-linecap="round" stroke-linejoin="round" fill="none"/><rect x="270.64" y="282.04" width="12.7" height="24.95" rx="6.35" transform="rotate(-65.58 276.978 294.506)" stroke-width="4" stroke="#d6d6d2" stroke-linecap="round" stroke-linejoin="round" fill="none"/><rect x="270.64" y="267.93" width="12.7" height="24.95" rx="6.35" transform="rotate(-65.58 276.984 280.397)" stroke-width="4" stroke="#d6d6d2" stroke-linecap="round" stroke-linejoin="round" fill="none"/><rect x="270.64" y="309.86" width="12.7" height="24.95" rx="6.35" transform="rotate(-65.58 276.975 322.333)" stroke-width="4" stroke="#d6d6d2" stroke-linecap="round" stroke-linejoin="round" fill="none"/><rect x="270.64" y="295.75" width="12.7" height="24.95" rx="6.35" transform="rotate(-65.58 276.981 308.225)" stroke-width="4" stroke="#d6d6d2" stroke-linecap="round" stroke-linejoin="round" fill="none"/><rect x="270.64" y="338.93" width="12.7" height="24.95" rx="6.35" transform="rotate(-65.58 276.978 351.395)" stroke-width="4" stroke="#d6d6d2" stroke-linecap="round" stroke-linejoin="round" fill="none"/><rect x="270.64" y="324.82" width="12.7" height="24.95" rx="6.35" transform="rotate(-65.58 276.977 337.282)" stroke-width="4" stroke="#d6d6d2" stroke-linecap="round" stroke-linejoin="round" fill="none"/><rect x="270.64" y="366.85" width="12.7" height="24.95" rx="6.35" transform="rotate(-65.58 276.976 379.323)" stroke-width="4" stroke="#d6d6d2" stroke-linecap="round" stroke-linejoin="round" fill="none"/><rect x="270.64" y="352.74" width="12.7" height="24.95" rx="6.35" transform="rotate(-65.58 276.975 365.21)" stroke-width="4" stroke="#d6d6d2" stroke-linecap="round" stroke-linejoin="round" fill="none"/><rect x="270.64" y="395.92" width="12.7" height="24.95" rx="6.35" transform="rotate(-65.58 276.98 408.384)" stroke-width="4" stroke="#d6d6d2" stroke-linecap="round" stroke-linejoin="round" fill="none"/><rect x="270.64" y="381.81" width="12.7" height="24.95" rx="6.35" transform="rotate(-65.8 275.468 394.567)" stroke-width="4" stroke="#d6d6d2" stroke-linecap="round" stroke-linejoin="round" fill="none"/><rect x="270.64" y="423.74" width="12.7" height="24.95" rx="6.35" transform="rotate(-65.58 276.981 436.204)" stroke-width="4" stroke="#d6d6d2" stroke-linecap="round" stroke-linejoin="round" fill="none"/><rect x="270.64" y="409.63" width="12.7" height="24.95" rx="6.35" transform="rotate(-65.58 276.98 422.09)" stroke-width="4" stroke="#d6d6d2" stroke-linecap="round" stroke-linejoin="round" fill="none"/><path d="M265.53 465.1a6.34 6.34 0 01.11-5h0a6.36 6.36 0 018.41-3.15l11.14 5.05" fill="none" stroke="#d6d6d2" stroke-linecap="round" stroke-linejoin="round" stroke-width="4"/><rect x="270.64" y="438.69" width="12.7" height="24.95" rx="6.35" transform="rotate(-65.58 276.978 451.16)" stroke-width="4" stroke="#d6d6d2" stroke-linecap="round" stroke-linejoin="round" fill="none"/><rect x="212.75" y="138.66" width="12.7" height="24.95" rx="6.35" transform="rotate(-65.58 219.089 151.133)" stroke-width="4" stroke="#d6d6d2" stroke-linecap="round" stroke-linejoin="round" fill="none"/><rect x="212.75" y="124.55" width="12.7" height="24.95" rx="6.35" transform="rotate(-65.58 219.095 137.024)" stroke-width="4" stroke="#d6d6d2" stroke-linecap="round" stroke-linejoin="round" fill="none"/><path d="M227.3 119.89a6.38 6.38 0 013.16 8.41h0a6.38 6.38 0 01-8.41 3.16l-11.15-5.06a6.37 6.37 0 01-3.19-3.26" fill="none" stroke="#d6d6d2" stroke-linecap="round" stroke-linejoin="round" stroke-width="4"/><rect x="212.75" y="167.73" width="12.7" height="24.95" rx="6.35" transform="rotate(-65.58 219.087 180.202)" stroke-width="4" stroke="#d6d6d2" stroke-linecap="round" stroke-linejoin="round" fill="none"/><rect x="212.75" y="153.62" width="12.7" height="24.95" rx="6.35" transform="rotate(-65.58 219.093 166.094)" stroke-width="4" stroke="#d6d6d2" stroke-linecap="round" stroke-linejoin="round" fill="none"/><rect x="212.75" y="195.55" width="12.7" height="24.95" rx="6.35" transform="rotate(-65.58 219.089 208.022)" stroke-width="4" stroke="#d6d6d2" stroke-linecap="round" stroke-linejoin="round" fill="none"/><rect x="212.75" y="181.44" width="12.7" height="24.95" rx="6.35" transform="rotate(-65.58 219.087 193.909)" stroke-width="4" stroke="#d6d6d2" stroke-linecap="round" stroke-linejoin="round" fill="none"/><rect x="212.75" y="224.62" width="12.7" height="24.95" rx="6.35" transform="rotate(-65.58 219.092 237.084)" stroke-width="4" stroke="#d6d6d2" stroke-linecap="round" stroke-linejoin="round" fill="none"/><rect x="212.75" y="210.5" width="12.7" height="24.95" rx="6.35" transform="rotate(-65.58 219.09 222.97)" stroke-width="4" stroke="#d6d6d2" stroke-linecap="round" stroke-linejoin="round" fill="none"/><rect x="212.75" y="252.98" width="12.7" height="24.95" rx="6.35" transform="rotate(-65.58 219.09 265.44)" stroke-width="4" stroke="#d6d6d2" stroke-linecap="round" stroke-linejoin="round" fill="none"/><rect x="212.75" y="238.86" width="12.7" height="24.95" rx="6.35" transform="rotate(-65.58 219.095 251.33)" stroke-width="4" stroke="#d6d6d2" stroke-linecap="round" stroke-linejoin="round" fill="none"/><rect x="212.75" y="282.04" width="12.7" height="24.95" rx="6.35" transform="rotate(-65.58 219.087 294.509)" stroke-width="4" stroke="#d6d6d2" stroke-linecap="round" stroke-linejoin="round" fill="none"/><rect x="212.75" y="267.93" width="12.7" height="24.95" rx="6.35" transform="rotate(-65.58 219.086 280.395)" stroke-width="4" stroke="#d6d6d2" stroke-linecap="round" stroke-linejoin="round" fill="none"/><rect x="212.75" y="309.86" width="12.7" height="24.95" rx="6.35" transform="rotate(-65.58 219.09 322.329)" stroke-width="4" stroke="#d6d6d2" stroke-linecap="round" stroke-linejoin="round" fill="none"/><rect x="212.75" y="295.75" width="12.7" height="24.95" rx="6.35" transform="rotate(-65.58 219.088 308.215)" stroke-width="4" stroke="#d6d6d2" stroke-linecap="round" stroke-linejoin="round" fill="none"/><rect x="212.75" y="338.93" width="12.7" height="24.95" rx="6.35" transform="rotate(-65.58 219.087 351.398)" stroke-width="4" stroke="#d6d6d2" stroke-linecap="round" stroke-linejoin="round" fill="none"/><rect x="212.75" y="324.82" width="12.7" height="24.95" rx="6.35" transform="rotate(-65.58 219.086 337.285)" stroke-width="4" stroke="#d6d6d2" stroke-linecap="round" stroke-linejoin="round" fill="none"/><rect x="212.75" y="366.85" width="12.7" height="24.95" rx="6.35" transform="rotate(-65.58 219.09 379.318)" stroke-width="4" stroke="#d6d6d2" stroke-linecap="round" stroke-linejoin="round" fill="none"/><rect x="212.75" y="352.74" width="12.7" height="24.95" rx="6.35" transform="rotate(-65.58 219.09 365.204)" stroke-width="4" stroke="#d6d6d2" stroke-linecap="round" stroke-linejoin="round" fill="none"/><rect x="212.75" y="395.92" width="12.7" height="24.95" rx="6.35" transform="rotate(-65.58 219.089 408.387)" stroke-width="4" stroke="#d6d6d2" stroke-linecap="round" stroke-linejoin="round" fill="none"/><rect x="212.75" y="381.81" width="12.7" height="24.95" rx="6.35" transform="rotate(-65.58 219.087 394.274)" stroke-width="4" stroke="#d6d6d2" stroke-linecap="round" stroke-linejoin="round" fill="none"/><rect x="212.75" y="423.74" width="12.7" height="24.95" rx="6.35" transform="rotate(-65.58 219.09 436.207)" stroke-width="4" stroke="#d6d6d2" stroke-linecap="round" stroke-linejoin="round" fill="none"/><rect x="212.75" y="409.63" width="12.7" height="24.95" rx="6.35" transform="rotate(-65.58 219.09 422.094)" stroke-width="4" stroke="#d6d6d2" stroke-linecap="round" stroke-linejoin="round" fill="none"/><path d="M207.63 465.1a6.39 6.39 0 01.11-5h0a6.37 6.37 0 018.41-3.15L227.3 462" fill="none" stroke="#d6d6d2" stroke-linecap="round" stroke-linejoin="round" stroke-width="4"/><rect x="212.75" y="438.69" width="12.7" height="24.95" rx="6.35" transform="rotate(-65.58 219.087 451.163)" stroke-width="4" stroke="#d6d6d2" stroke-linecap="round" stroke-linejoin="round" fill="none"/></svg>