<svg xmlns="http://www.w3.org/2000/svg" width="500" height="550" viewBox="0 0 500 550"><title>s01e03-02</title><path d="M365.91,84.57s-1.72,402.39-5,404.58-151.41,0-167.06-3.28-53.14,5-57.87,4.16-5.46-10.9-3.64-18.54,1.37-386.92,1.37-386.92Z" fill="#fff" stroke="#262521" stroke-linecap="round" stroke-linejoin="round" stroke-width="3"/><path d="M372.14,295.65q-.27,61.74-.62,123.46c-.81,9-2.68,16.41-3.55,25.45-1,10.07,1.34,17-1.5,25.63-.59,1.77-2,1.67-3.35,1.43-44.59-7.73-101.66-5.71-146.65-2.92-24.6.58-58.62-1.67-83,2.09-5.23.6-5.68.28-6.62-4.82-1.35-11.26,1.94-18.53.53-29.31-6.15-46.82-1.39-94.38-3.6-141.53-1.42,2.82-2.94,5.6-4.29,8.45-2.37,10.68-17.5,9.31-11.81,16.19,11.11,8,6.41,21.38,5.15,32.56-.25,3.15-1.35,6.27-.37,9.58.51,8.43-3.19,16.94-4.38,25.31-1.5,8-10.42,41.27-11.86,49.29-.57,3.17-.61,3-3.74,2.05-12.38-3.52-26.09-4.38-38.6-1.18-1.39.34-2.11,0-2.41-1.47-2-7.76.82-16.67-5.49-22.43a6.66,6.66,0,0,1-1.33-3.22c-2.23-11-6.07-22.12-5.72-33.31-1.91-63,2.6-126.93,26.19-186,13.61-35.43,24.56-73.32,48.07-103.67,27.32-18.2,60-23.76,90.46-34.78a3.13,3.13,0,0,1,2.72.43c5,5.55,11.46,8.41,18.56,9.67,19.19,2.42,41.29,5.55,58.65-4.88,2.85-1.27,4.2-6.53,7.87-5,29.12,10.5,61,14.41,87.44,31.59,15.94,14.59,21.63,38,30.45,57.2,27.81,67.49,58,137.4,51.05,212.08-1.19,18.66-.23,37.45-3.28,56-.49,4.66-5.21,7.09-5.56,11.78-1.22,5.28-2.08,10.65-2.91,16-.4,2.6-.41,2.82-3.08,2.32-12.48-2.65-25.26-5.48-37.8-1.58-8.34-.14-8.13-15.55-11.44-21.4-6.28-7.37-3.61-9-5.33-17.63-.9-9.7-4.68-20.27.79-29.27,2-3.53,1.86-7,.51-10.65-4.9-11.29-7.4-23.42-10.45-35.3-1.07-4.3-1.31-8.49,1.61-12.33,1.51-7.24-10.43-8.68-10.93-15.93Z" fill="#fff" stroke="#262521" stroke-linecap="round" stroke-linejoin="round" stroke-width="3"/><path d="M206,53s3.41,36.21,41.7,34.4S290.32,53,290.32,53" fill="none" stroke="#262521" stroke-linecap="round" stroke-linejoin="round" stroke-width="3"/><path d="M204.41,52.37s4,48.55,43.68,46.73,42.84-45.41,42.84-45.41" fill="none" stroke="#262521" stroke-linecap="round" stroke-linejoin="round" stroke-width="3"/><path d="M121.8,184.94s2.11,28.62,0,44.25.11,29.69.11,32.87,1.9,33.07,1.9,33.07" fill="none" stroke="#262521" stroke-linecap="round" stroke-linejoin="round" stroke-width="3"/><path d="M371.33,192.75s-1.25,73.86.81,102.9" fill="none" stroke="#262521" stroke-linecap="round" stroke-linejoin="round" stroke-width="3"/><path d="M51.32,413.6s28.66-9.48,45.15,2.48" fill="none" stroke="#636363" stroke-linecap="round" stroke-linejoin="round"/><path d="M402.18,416.08s25.94-8.31,43.55,0" fill="none" stroke="#636363" stroke-linecap="round" stroke-linejoin="round"/><path d="M197.66,62.63c2.77,14.3,15,47.82,50.14,46.21,36.25-1.66,46.89-34.35,49-46.52" fill="none" stroke="#636363" stroke-linecap="round" stroke-linejoin="round"/><polyline points="231.16 106.67 247.34 132.23 262.49 106.53" fill="none" stroke="#636363" stroke-linecap="round" stroke-linejoin="round"/><path d="M287,86.84s56.74,40.56,64.95,66.5" fill="none" stroke="#636363" stroke-linecap="round" stroke-linejoin="round"/><path d="M207,86.84S150.24,127.4,142,153.34" fill="none" stroke="#636363" stroke-linecap="round" stroke-linejoin="round"/><path d="M133.45,438.85s155.28-12.31,227.71,2.37" fill="none" stroke="#636363" stroke-linecap="round" stroke-linejoin="round"/><path d="M201.37,53.22S209.08,118,247.9,118s45.26-65,45.26-65" fill="none" stroke="#262521" stroke-linecap="round" stroke-linejoin="round" stroke-width="5" stroke-dasharray="1 3"/><path d="M247.08,118.05a1,1,0,0,1,0-2c.33,0,.65,0,1,0a1,1,0,0,1,1.05,1,1,1,0,0,1-1,1l-1,0Zm-3-.12H244c-.34,0-.69-.07-1-.12a1,1,0,0,1,.26-2l.95.11a1,1,0,0,1,.91,1.08A1,1,0,0,1,244.08,117.93Zm7-.18a1,1,0,0,1-.13-2l1-.14a1,1,0,0,1,.32,2c-.34.06-.67.11-1,.15Zm-10.91-.47-.23,0c-.34-.08-.67-.16-1-.26a1,1,0,1,1,.54-1.92l.93.24a1,1,0,0,1,.74,1.21A1,1,0,0,1,240.15,117.28ZM255,117a1,1,0,0,1-.24-2l.93-.25a1,1,0,1,1,.55,1.92l-1,.27A1.07,1.07,0,0,1,255,117Zm-18.61-.92A.94.94,0,0,1,236,116l-1-.4a1,1,0,1,1,.81-1.83l.89.37a1,1,0,0,1-.37,1.93Zm22.41-.3a1,1,0,0,1-.36-1.93l.9-.36a1,1,0,0,1,.78,1.84l-1,.39A1.13,1.13,0,0,1,258.77,115.77Zm-26-1.43a1,1,0,0,1-.5-.13l-.88-.52a1,1,0,1,1,1-1.71c.27.17.55.33.83.49a1,1,0,0,1-.49,1.87Zm29.62-.23a1,1,0,0,1-.47-1.88l.85-.47a1,1,0,0,1,1,1.74l-.9.49A1,1,0,0,1,262.4,114.11Zm-33-2a1,1,0,0,1-.6-.2l-.81-.62a1,1,0,1,1,1.23-1.57l.77.59a1,1,0,0,1,.21,1.4A1,1,0,0,1,229.44,112.16Zm36.38-.13a1,1,0,0,1-.57-1.82c.27-.18.53-.37.79-.56a1,1,0,0,1,1.4.22,1,1,0,0,1-.22,1.4l-.84.59A1,1,0,0,1,265.82,112Zm-39.45-2.42a1,1,0,0,1-.68-.27l-.75-.7a1,1,0,0,1,1.39-1.44l.71.67a1,1,0,0,1-.67,1.74Zm42.61,0a1,1,0,0,1-.65-1.76l.73-.64a1,1,0,0,1,1.34,1.49l-.77.67A1,1,0,0,1,269,109.6Zm2.9-2.73a1,1,0,0,1-.69-.28,1,1,0,0,1,0-1.41l.67-.71a1,1,0,0,1,1.41-.06,1,1,0,0,1,.06,1.42c-.24.25-.47.5-.71.74A1,1,0,0,1,271.88,106.87Zm-48.32-.11a1,1,0,0,1-.74-.33c-.23-.25-.46-.5-.68-.76a1,1,0,1,1,1.51-1.31l.65.73a1,1,0,0,1-.07,1.42A1,1,0,0,1,223.56,106.76Zm51-2.87a1,1,0,0,1-.63-.23,1,1,0,0,1-.14-1.41l.62-.76a1,1,0,1,1,1.56,1.24l-.63.79A1,1,0,0,1,274.54,103.89Zm-53.54-.2a1,1,0,0,1-.79-.39l-.62-.81a1,1,0,0,1,1.61-1.2c.19.27.39.53.59.79a1,1,0,0,1-.18,1.4A1,1,0,0,1,221,103.69Zm56-3a1,1,0,0,1-.58-.18,1,1,0,0,1-.24-1.39l.56-.81a1,1,0,0,1,1.39-.26,1,1,0,0,1,.26,1.39l-.57.83A1,1,0,0,1,277,100.71Zm-58.29-.27a1,1,0,0,1-.83-.45l-.56-.84A1,1,0,1,1,219,98.06c.17.27.36.55.54.82a1,1,0,0,1-.83,1.56Zm60.48-3.07a1,1,0,0,1-.52-.14,1,1,0,0,1-.33-1.38l.51-.85a1,1,0,1,1,1.72,1l-.52.86A1,1,0,0,1,279.15,97.37Zm-62.61-.32a1,1,0,0,1-.87-.5l-.5-.87a1,1,0,0,1,1.73-1l.5.85a1,1,0,0,1-.36,1.37A1,1,0,0,1,216.54,97.05Zm64.61-3.15a1,1,0,0,1-.88-1.48l.46-.87a1,1,0,0,1,1.35-.43,1,1,0,0,1,.42,1.35c-.15.3-.31.6-.47.9A1,1,0,0,1,281.15,93.9Zm-66.56-.35a1,1,0,0,1-.88-.53c-.16-.3-.32-.6-.47-.91a1,1,0,1,1,1.78-.9c.15.29.3.58.46.87a1,1,0,0,1-.89,1.47ZM283,90.32a.9.9,0,0,1-.42-.1,1,1,0,0,1-.48-1.33l.42-.9a1,1,0,1,1,1.81.84l-.42.92A1,1,0,0,1,283,90.32ZM212.81,90a1,1,0,0,1-.91-.57l-.42-.92a1,1,0,1,1,1.82-.83c.13.3.27.6.41.89a1,1,0,0,1-.47,1.33A1,1,0,0,1,212.81,90Zm71.77-3.3a.84.84,0,0,1-.38-.08,1,1,0,0,1-.54-1.31l.38-.91a1,1,0,1,1,1.85.75l-.38.94A1,1,0,0,1,284.58,86.66Zm-73.4-.35a1,1,0,0,1-.92-.61l-.39-.93a1,1,0,0,1,1.84-.76l.39.91a1,1,0,0,1-.53,1.31A1.09,1.09,0,0,1,211.18,86.31Zm74.87-3.37a.91.91,0,0,1-.35-.07,1,1,0,0,1-.58-1.28l.34-.93a1,1,0,1,1,1.88.67c-.11.32-.23.64-.35,1A1,1,0,0,1,286.05,82.94Zm-76.37-.34a1,1,0,0,1-.94-.64l-.35-.94a1,1,0,0,1,1.87-.71l.35.93a1,1,0,0,1-.57,1.29A.92.92,0,0,1,209.68,82.6Zm77.7-3.44a1.12,1.12,0,0,1-.31,0,1,1,0,0,1-.64-1.27c.11-.31.21-.63.31-.94a1,1,0,0,1,1.91.61c-.11.32-.21.64-.32,1A1,1,0,0,1,287.38,79.16Zm-79.08-.32a1,1,0,0,1-1-.67l-.33-1a1,1,0,1,1,1.9-.64l.32.94a1,1,0,0,1-.61,1.27A1,1,0,0,1,208.3,78.84Zm80.28-3.51a1,1,0,0,1-.29,0,1,1,0,0,1-.67-1.24l.27-1a1,1,0,0,1,1.93.54l-.28,1A1,1,0,0,1,288.58,75.33ZM207,75a1,1,0,0,1-.95-.7l-.31-1a1,1,0,0,1,1.91-.6l.3,1a1,1,0,0,1-.65,1.26A1,1,0,0,1,207,75Zm82.62-3.57a1.15,1.15,0,0,1-.26,0,1,1,0,0,1-.71-1.22l.24-1a1,1,0,1,1,1.94.48c-.08.33-.16.65-.25,1A1,1,0,0,1,289.65,71.47Zm-83.78-.27a1,1,0,0,1-1-.72l-.28-1a1,1,0,0,1,1.92-.54l.28,1a1,1,0,0,1-.69,1.24A.84.84,0,0,1,205.87,71.2Zm84.73-3.62a.91.91,0,0,1-.23,0,1,1,0,0,1-.75-1.2l.22-1a1,1,0,1,1,2,.43l-.22,1A1,1,0,0,1,290.6,67.58Zm-85.8-.24a1,1,0,0,1-1-.75l-.25-1a1,1,0,1,1,1.94-.5l.25,1a1,1,0,0,1-.71,1.22A.78.78,0,0,1,204.8,67.34Zm86.63-3.69a.62.62,0,0,1-.19,0,1,1,0,0,1-.79-1.17l.19-1a1,1,0,0,1,2,.38l-.2,1A1,1,0,0,1,291.43,63.65Zm-88.58-1-.22-1a1,1,0,0,1,.75-1.2,1,1,0,0,1,1.2.75l.21.91-1,.29Zm89.31-3-.17,0a1,1,0,0,1-.82-1.15c.06-.34.11-.66.16-1a1,1,0,0,1,2,.32c-.05.32-.11.65-.17,1A1,1,0,0,1,292.16,59.71ZM203,59.53a1,1,0,0,1-1-.79l-.2-1a1,1,0,1,1,1.95-.4l.21,1a1,1,0,0,1-.77,1.19Zm89.81-3.79h-.13a1,1,0,0,1-.86-1.13c.05-.35.09-.68.13-1a1,1,0,0,1,1.12-.87,1,1,0,0,1,.87,1.12c0,.3-.09.64-.14,1A1,1,0,0,1,292.76,55.74Zm-90.6-.15a1,1,0,0,1-1-.81l-.18-1a1,1,0,1,1,2-.35l.18,1a1,1,0,0,1-.81,1.17Z" fill="#b7b6b0"/><path d="M199.91,53.61a1,1,0,0,1-1-.84l-.08-.5a1,1,0,0,1,2-.29l.07.48a1,1,0,0,1-.83,1.14Z" fill="#7f7e78"/><path d="M248,119.6h0c-.35,0-.69,0-1,0a1,1,0,1,1,.08-2c.32,0,.64,0,1,0a1,1,0,0,1,0,2Zm3-.11a1,1,0,0,1-.08-2l1-.09a1,1,0,0,1,1.11.88,1,1,0,0,1-.88,1.1l-1,.1Zm-7-.17h-.13l-1-.16a1,1,0,1,1,.33-2l1,.14a1,1,0,0,1-.13,2Zm10.93-.39a1,1,0,0,1-.2-2l.94-.21a1,1,0,1,1,.47,1.94l-1,.23Zm-14.84-.39a.78.78,0,0,1-.26,0c-.33-.08-.66-.18-1-.28a1,1,0,1,1,.57-1.91l.93.26a1,1,0,0,1-.25,2Zm18.69-.68a1,1,0,0,1-.95-.67,1,1,0,0,1,.62-1.27l.9-.34a1,1,0,0,1,.73,1.87l-1,.35A1,1,0,0,1,258.83,117.86Zm-22.48-.59a1.08,1.08,0,0,1-.38-.08l-.94-.4a1,1,0,1,1,.81-1.83l.89.38a1,1,0,0,1-.38,1.93Zm26.15-1a1,1,0,0,1-.44-1.89l.85-.45a1,1,0,0,1,1,1.76l-.92.48A1,1,0,0,1,262.5,116.3Zm-29.75-.77a1,1,0,0,1-.48-.12c-.3-.17-.6-.34-.89-.52a1,1,0,1,1,1-1.71l.84.48a1,1,0,0,1-.49,1.87ZM266,114.3a1,1,0,0,1-.55-1.84c.27-.17.53-.35.8-.54a1,1,0,1,1,1.15,1.63l-.85.58A1,1,0,0,1,266,114.3Zm-36.58-.9a1,1,0,0,1-.58-.19c-.28-.2-.56-.4-.83-.61a1,1,0,1,1,1.2-1.6l.79.58a1,1,0,0,1-.58,1.82Zm39.79-1.49a1,1,0,0,1-.77-.36,1,1,0,0,1,.12-1.4l.75-.64a1,1,0,0,1,1.31,1.51l-.78.66A.94.94,0,0,1,269.17,111.91Zm-42.93-1a1,1,0,0,1-.65-.25l-.77-.68a1,1,0,0,1,1.35-1.48l.73.65a1,1,0,0,1-.66,1.76Zm45.87-1.7a1,1,0,0,1-.71-1.7c.23-.24.46-.47.68-.71a1,1,0,0,1,1.42,0,1,1,0,0,1,0,1.41l-.72.73A1,1,0,0,1,272.11,109.21Zm-48.76-1.07a1,1,0,0,1-.72-.3l-.7-.75a1,1,0,0,1,1.47-1.35l.67.71a1,1,0,0,1,0,1.41A1,1,0,0,1,223.35,108.14Zm51.46-1.89a1,1,0,0,1-.77-1.64c.21-.25.42-.5.62-.76a1,1,0,0,1,1.41-.15,1,1,0,0,1,.15,1.4c-.21.27-.43.53-.64.79A1,1,0,0,1,274.81,106.25Zm-54.11-1.1a1,1,0,0,1-.78-.36l-.64-.8a1,1,0,0,1,1.57-1.24c.2.26.41.51.62.76a1,1,0,0,1-.14,1.41A1,1,0,0,1,220.7,105.15Zm56.56-2.06a1,1,0,0,1-.58-.19,1,1,0,0,1-.23-1.4l.57-.8a1,1,0,1,1,1.64,1.14c-.19.28-.39.56-.59.83A1,1,0,0,1,277.26,103.09Zm-59-1.11a1,1,0,0,1-.82-.42l-.59-.83a1,1,0,0,1,1.65-1.14c.18.27.37.53.57.8a1,1,0,0,1-.23,1.4A1.05,1.05,0,0,1,218.26,102Zm61.24-2.21a1,1,0,0,1-.53-.15,1,1,0,0,1-.32-1.38l.52-.84a1,1,0,0,1,1.37-.34,1,1,0,0,1,.34,1.38l-.54.86A1,1,0,0,1,279.5,99.77ZM216,98.65a1,1,0,0,1-.84-.46l-.54-.86A1,1,0,0,1,215,96a1,1,0,0,1,1.37.33l.53.84a1,1,0,0,1-.31,1.38A1,1,0,0,1,216,98.65Zm65.52-2.33a.91.91,0,0,1-.48-.13,1,1,0,0,1-.4-1.35l.48-.87a1,1,0,1,1,1.76.94c-.16.3-.32.6-.49.89A1,1,0,0,1,281.53,96.32ZM214,95.21a1,1,0,0,1-.87-.51c-.17-.29-.33-.59-.49-.88a1,1,0,1,1,1.75-1l.48.87a1,1,0,0,1-.38,1.36A1,1,0,0,1,214,95.21Zm69.44-2.45a1,1,0,0,1-.44-.1,1,1,0,0,1-.46-1.34c.15-.3.29-.59.43-.89a1,1,0,0,1,1.81.86l-.45.91A1,1,0,0,1,283.39,92.76Zm-71.33-1.08a1,1,0,0,1-.9-.55l-.45-.9a1,1,0,0,1,1.79-.89l.45.89a1,1,0,0,1-.44,1.34A.93.93,0,0,1,212.06,91.68Zm73-2.55a1,1,0,0,1-.4-.09,1,1,0,0,1-.51-1.32l.39-.91a1,1,0,0,1,1.32-.52,1,1,0,0,1,.52,1.31c-.13.31-.26.62-.4.93A1,1,0,0,1,285.07,89.13Zm-74.75-1.06a1,1,0,0,1-.91-.58c-.15-.31-.28-.61-.42-.92a1,1,0,1,1,1.82-.82c.14.3.28.6.41.9a1,1,0,0,1-.49,1.33A1,1,0,0,1,210.32,88.07Zm76.29-2.64a1.15,1.15,0,0,1-.36-.07,1,1,0,0,1-.57-1.3c.12-.31.25-.62.36-.93a1,1,0,0,1,1.29-.57,1,1,0,0,1,.58,1.29c-.12.31-.24.63-.37.94A1,1,0,0,1,286.61,85.43Zm-77.9-1a1,1,0,0,1-.92-.62l-.39-.93a1,1,0,0,1,.55-1.3,1,1,0,0,1,1.31.55c.12.3.24.61.37.91a1,1,0,0,1-.54,1.31A.84.84,0,0,1,208.71,84.4ZM288,81.67a1,1,0,0,1-.34-.06,1,1,0,0,1-.61-1.27l.33-.94a1,1,0,0,1,1.89.65L289,81A1,1,0,0,1,288,81.67Zm-80.79-1a1,1,0,0,1-.93-.64l-.36-1a1,1,0,0,1,1.88-.69l.35.93a1,1,0,0,1-.59,1.29A1,1,0,0,1,207.23,80.67Zm82.06-2.8a1,1,0,0,1-.3-.05,1,1,0,0,1-.65-1.26l.3-1a1,1,0,0,1,1.91.6l-.31,1A1,1,0,0,1,289.29,77.87Zm-83.42-1a1,1,0,0,1-.94-.67l-.33-1a1,1,0,0,1,1.9-.63l.32.94a1,1,0,0,1-.62,1.27A1.26,1.26,0,0,1,205.87,76.9ZM290.45,74a1,1,0,0,1-.28,0,1,1,0,0,1-.68-1.24l.27-1a1,1,0,1,1,1.92.53c-.08.32-.18.65-.27,1A1,1,0,0,1,290.45,74Zm-85.83-.94a1,1,0,0,1-1-.7l-.3-1a1,1,0,0,1,1.91-.59l.3,1a1,1,0,0,1-.66,1.26A1,1,0,0,1,204.62,73.09Zm86.88-2.93a.69.69,0,0,1-.25,0,1,1,0,0,1-.72-1.21l.24-1a1,1,0,0,1,1.94.48l-.25,1A1,1,0,0,1,291.5,70.16Zm-88-.91a1,1,0,0,1-1-.73l-.27-1a1,1,0,0,1,.7-1.23,1,1,0,0,1,1.23.7l.27,1a1,1,0,0,1-.69,1.23A.9.9,0,0,1,203.47,69.25Zm89-3a.91.91,0,0,1-.23,0,1,1,0,0,1-.75-1.2l.22-1a1,1,0,0,1,1.95.43l-.22,1A1,1,0,0,1,292.44,66.26Zm-90-.88a1,1,0,0,1-1-.76l-.25-1a1,1,0,0,1,1.94-.49l.25,1a1,1,0,0,1-.72,1.21A.77.77,0,0,1,202.43,65.38Zm90.84-3-.19,0a1,1,0,0,1-.79-1.17l.19-1a1,1,0,1,1,2,.37l-.19,1A1,1,0,0,1,293.27,62.33Zm-91.79-.85a1,1,0,0,1-1-.78l-.23-1a1,1,0,0,1,.77-1.19,1,1,0,0,1,1.19.76l.22,1a1,1,0,0,1-.75,1.2ZM294,58.38h-.17a1,1,0,0,1-.82-1.16l.17-1a1,1,0,1,1,2,.32l-.16,1A1,1,0,0,1,294,58.38Zm-93.36-.83a1,1,0,0,1-1-.8c-.07-.35-.14-.68-.2-1a1,1,0,0,1,.79-1.17,1,1,0,0,1,1.18.8c0,.3.12.63.19,1a1,1,0,0,1-.78,1.18Z" fill="#7f7e78"/><path d="M294.6,54.43h-.13a1,1,0,0,1-.86-1.12l.06-.47a1,1,0,1,1,2,.21s0,.18-.06.52A1,1,0,0,1,294.6,54.43Z" fill="#7f7e78"/><g opacity="0.86"><path d="M262.4,114.11a1,1,0,0,1-.47-1.88l.85-.47a1,1,0,0,1,1,1.74l-.9.49A1,1,0,0,1,262.4,114.11Zm-33-2a1,1,0,0,1-.6-.2l-.81-.62a1,1,0,1,1,1.23-1.57l.77.59a1,1,0,0,1,.21,1.4A1,1,0,0,1,229.44,112.16Zm36.38-.13a1,1,0,0,1-.57-1.82c.27-.18.53-.37.79-.56a1,1,0,0,1,1.4.22,1,1,0,0,1-.22,1.4l-.84.59A1,1,0,0,1,265.82,112Zm-39.45-2.42a1,1,0,0,1-.68-.27l-.75-.7a1,1,0,0,1,1.39-1.44l.71.67a1,1,0,0,1-.67,1.74Zm42.61,0a1,1,0,0,1-.65-1.76l.73-.64a1,1,0,0,1,1.34,1.49l-.77.67A1,1,0,0,1,269,109.6Zm2.9-2.73a1,1,0,0,1-.69-.28,1,1,0,0,1,0-1.41l.67-.71a1,1,0,0,1,1.41-.06,1,1,0,0,1,.06,1.42c-.24.25-.47.5-.71.74A1,1,0,0,1,271.88,106.87Zm-48.32-.11a1,1,0,0,1-.74-.33c-.23-.25-.46-.5-.68-.76a1,1,0,1,1,1.51-1.31l.65.73a1,1,0,0,1-.07,1.42A1,1,0,0,1,223.56,106.76Zm51-2.87a1,1,0,0,1-.63-.23,1,1,0,0,1-.14-1.41l.62-.76a1,1,0,1,1,1.56,1.24l-.63.79A1,1,0,0,1,274.54,103.89Zm2.42-3.18a1,1,0,0,1-.58-.18,1,1,0,0,1-.24-1.39l.56-.81a1,1,0,0,1,1.39-.26,1,1,0,0,1,.26,1.39l-.57.83A1,1,0,0,1,277,100.71Z" fill="#fff"/></g><g opacity="0.86"><path d="M199.91,53.61a1,1,0,0,1-1-.84l-.08-.5a1,1,0,0,1,2-.29l.07.48a1,1,0,0,1-.83,1.14Z" fill="#fff"/><path d="M266,114.3a1,1,0,0,1-.55-1.84c.27-.17.53-.35.8-.54a1,1,0,1,1,1.15,1.63l-.85.58A1,1,0,0,1,266,114.3Zm3.21-2.39a1,1,0,0,1-.77-.36,1,1,0,0,1,.12-1.4l.75-.64a1,1,0,0,1,1.31,1.51l-.78.66A.94.94,0,0,1,269.17,111.91Zm-42.93-1a1,1,0,0,1-.65-.25l-.77-.68a1,1,0,0,1,1.35-1.48l.73.65a1,1,0,0,1-.66,1.76Zm45.87-1.7a1,1,0,0,1-.71-1.7c.23-.24.46-.47.68-.71a1,1,0,0,1,1.42,0,1,1,0,0,1,0,1.41l-.72.73A1,1,0,0,1,272.11,109.21Zm-48.76-1.07a1,1,0,0,1-.72-.3l-.7-.75a1,1,0,0,1,1.47-1.35l.67.71a1,1,0,0,1,0,1.41A1,1,0,0,1,223.35,108.14Zm51.46-1.89a1,1,0,0,1-.77-1.64c.21-.25.42-.5.62-.76a1,1,0,0,1,1.41-.15,1,1,0,0,1,.15,1.4c-.21.27-.43.53-.64.79A1,1,0,0,1,274.81,106.25Zm-54.11-1.1a1,1,0,0,1-.78-.36l-.64-.8a1,1,0,0,1,1.57-1.24c.2.26.41.51.62.76a1,1,0,0,1-.14,1.41A1,1,0,0,1,220.7,105.15Z" fill="#fff"/><path d="M294.6,54.43h-.13a1,1,0,0,1-.86-1.12l.06-.47a1,1,0,1,1,2,.21s0,.18-.06.52A1,1,0,0,1,294.6,54.43Z" fill="#fff"/></g></svg>