<svg xmlns="http://www.w3.org/2000/svg" width="500" height="550" viewBox="0 0 500 550"><path d="M215.51 31.37s22.93-8.24 62.34 0l7.28 16.36 61.56 28.11L250 183.89 150.38 70.61l58.09-22.88" fill="#fff" stroke="#262521" stroke-linecap="round" stroke-linejoin="round" stroke-width="3"/><path d="M215.51 31.37S231.37 54 246 65.13l-31.46 21.33s-12.34-34.14-8.45-41.67a66.81 66.81 0 019.42-13.42zm62.34 0S262 54 247.4 65.13l31.42 21.33s13.93-33 10-40.56-10.97-14.53-10.97-14.53zm-39.97 39.24v70.33" fill="#fff" stroke="#262521" stroke-linecap="round" stroke-linejoin="round" stroke-width="3"/><circle cx="246.46" cy="72.28" r="3.06" fill="#262521" opacity=".2"/><path d="M132 461.24s75.84 21 100.19 21l8.31-45.94zm219.79 0s-75.84 21-100.19 21l-8.31-45.94z" fill="#fff" stroke="#262521" stroke-linecap="round" stroke-linejoin="round" stroke-width="3"/><path d="M291.48 48.63c29.12 10.49 61 14.41 87.44 31.58 15.94 14.59 21.63 38 30.45 57.21 27.81 67.48 58 137.39 51.05 212.07-1.19 18.66-.23 37.46-3.28 56-.49 4.66-5.21 7.09-5.56 11.78-1.22 5.28-2.08 10.65-2.91 16-.4 2.6-.41 2.83-3.08 2.33-12.48-2.66-25.26-5.49-37.8-1.58-8.34-.15-8.13-15.56-11.44-21.4-6.28-7.37-3.61-9-5.33-17.64-.9-9.7-4.68-20.27.79-29.26 2-3.53 1.86-7.05.51-10.66-4.9-11.28-7.4-23.42-10.45-35.29-1.07-4.3-1.31-8.49 1.61-12.34 1.51-7.23-10.43-8.68-10.93-15.93l-.41.08q-.27 61.74-.62 123.47c-.81 9-2.68 16.41-3.55 25.44-1 10.07 1.34 17.05-1.5 25.63-.59 1.77-2 1.67-3.35 1.44-44.59-7.74-101.66-5.72-146.65-2.92-24.6.57-58.62-1.68-83 2.08-5.23.6-5.68.28-6.62-4.82-1.35-11.26 1.94-18.53.53-29.31-6.15-46.82-1.39-94.37-3.6-141.53-1.42 2.83-2.94 5.6-4.29 8.46-2.37 10.67-17.5 9.3-11.81 16.18 11.11 7.95 6.41 21.38 5.15 32.56-.25 3.15-1.35 6.27-.37 9.58.51 8.44-3.19 16.94-4.38 25.31-1.5 8-10.42 41.28-11.86 49.29-.57 3.18-.61 3-3.74 2-12.38-3.52-26.09-4.38-38.6-1.18-1.39.34-2.11 0-2.41-1.47-2-7.76.82-16.67-5.49-22.43a6.62 6.62 0 01-1.33-3.22c-2.23-11-6.07-22.12-5.72-33.3-1.91-63 2.6-126.93 26.19-186 13.61-35.43 24.56-73.32 48.07-103.67 27.32-18.2 60-23.76 90.46-34.78 0 0 4.73 48.43 44.41 46.61s43.42-46.37 43.42-46.37z" fill="#262521" stroke="#262521" stroke-linecap="round" stroke-linejoin="round" stroke-width="3"/><path d="M293 117.79c12.29 12.81 49.05 19.48 67.1 28.66 21.72 10.57 44.24 19.68 65.59 31C389.58 97.18 405 76.46 310.27 54.59 312 78.86 291 113.06 293 117.79z" fill="#514f48"/><path d="M316.85 61.33c11.72 9.4 49.69 15.22 49.37 32.33-.27 4.25-6.25 10.48-1 13.5 3.51-9.21 7.09-19.36 15.21-25.55-20.45-15.1-46.13-19.82-70.12-27 0 .4 0 .81.05 1.21a31.6 31.6 0 006.49 5.51z" fill="#fff" opacity=".2"/><path d="M203.66 119.61c-14 12.08-48.85 17.85-67.33 27.34-22 11-45.83 19.94-67.81 31C97.58 101.64 99.39 73.44 186.18 55.09 184 81.57 207 114.77 203.66 119.61z" fill="#514f48"/><path d="M119.74 89.51c28.63-9.51 43.79-7.51 66.35-32.7 0-.57 0-1.15.09-1.72-24.24 7.41-50.72 11.86-71 27.85a30.18 30.18 0 014.56 6.57z" fill="#fff" opacity=".3"/><path d="M117.19 86.46s28.93 37 28.93 67.62M376.64 85s-20 27.5-21.33 67.44" fill="none" stroke="#262521" stroke-linecap="round" stroke-linejoin="round"/><path d="M65.15 186.85c13.61-35.43 24.56-73.32 48.07-103.67 27.32-18.2 60-23.76 90.46-34.78m87.8.23c29.12 10.49 61 14.41 87.44 31.58 15.94 14.59 21.63 38 30.45 57.21 6.73 16.32 13.6 32.79 20 49.43" fill="none" stroke="#262521" stroke-linecap="round" stroke-linejoin="round" stroke-width="3"/></svg>