<svg xmlns="http://www.w3.org/2000/svg" width="500" height="550" viewBox="0 0 500 550"><path d="M215.51 31.37s22.93-8.24 62.34 0l7.28 16.37 61.56 28.1L250 183.89 150.38 70.61l58.09-22.87" fill="#fff" stroke="#262521" stroke-linecap="round" stroke-linejoin="round" stroke-width="3"/><path d="M215.51 31.37S231.37 54 246 65.13l-31.46 21.33s-12.34-34.13-8.45-41.67a66.81 66.81 0 019.42-13.42zm62.34 0S262 54 247.4 65.13l31.42 21.33s13.93-33 10-40.56-10.97-14.53-10.97-14.53zm-39.97 39.24v70.33" fill="#fff" stroke="#262521" stroke-linecap="round" stroke-linejoin="round" stroke-width="3"/><circle cx="246.46" cy="72.28" r="3.06" fill="#262521" opacity=".2"/><path d="M291.48 48.63c29.12 10.49 61 14.41 87.44 31.58 15.94 14.59 21.63 38 30.45 57.21 27.81 67.48 58 137.39 51.05 212.08-1.19 18.65-.23 37.45-3.28 55.95-.49 4.66-5.21 7.1-5.56 11.78-1.22 5.28-2.08 10.65-2.91 16-.4 2.6-.41 2.83-3.08 2.33-12.48-2.66-25.26-5.49-37.8-1.58-8.34-.15-8.13-15.56-11.44-21.4-6.28-7.37-3.61-9-5.33-17.64-.9-9.7-4.68-20.27.79-29.26 2-3.53 1.86-7.05.51-10.66-4.9-11.28-7.4-23.41-10.45-35.29-1.07-4.3-1.31-8.49 1.61-12.34 1.51-7.23-10.43-8.68-10.93-15.93l-.41.09q-.27 61.72-.62 123.46c-.81 9-2.68 16.41-3.55 25.44-1 10.07 1.34 17.05-1.5 25.63-.59 1.77-2 1.67-3.35 1.44-44.59-7.74-101.66-5.72-146.65-2.92-24.6.57-58.62-1.68-83 2.09-5.23.59-5.68.27-6.62-4.83-1.35-11.26 1.94-18.53.53-29.31-6.15-46.82-1.39-94.37-3.6-141.53-1.42 2.83-2.94 5.6-4.29 8.46-2.37 10.67-17.5 9.3-11.81 16.18 11.11 7.95 6.41 21.38 5.15 32.56-.25 3.15-1.35 6.27-.37 9.58.51 8.44-3.19 16.94-4.38 25.31-1.5 8-10.42 41.28-11.86 49.29-.57 3.18-.61 3-3.74 2-12.38-3.52-26.09-4.38-38.6-1.18-1.39.34-2.11 0-2.41-1.47-2-7.76.82-16.67-5.49-22.43a6.62 6.62 0 01-1.33-3.22c-2.23-11-6.07-22.11-5.72-33.3-1.91-63 2.6-126.93 26.19-186 13.61-35.43 24.56-73.32 48.07-103.67 27.32-18.2 60-23.76 90.46-34.78 0 0 4.73 48.43 44.41 46.61s43.42-46.33 43.42-46.33z" fill="#262521" stroke="#262521" stroke-linecap="round" stroke-linejoin="round" stroke-width="3"/><path d="M120.89 107.89c40.13 7 78.73 20.52 118.34 29.63C274 147 339.9 169.37 370.58 175.11c-4.81-31.09-1.84-63.27 7.21-93.31.3-1.19-17.79-15.8-75.59-29.8-8.94 69.51-101.32 70-109.35-.23-39.34 7.23-80.47 31.4-80.46 31.43 4.01 7.5 6.61 16.44 8.5 24.69z" fill="#33322e"/><path d="M224 101c15.41 18.6 49.46 17 56.82-8.23-12.14 12.68-43.2 16.19-58.85 6 .66.74 1.33 1.49 2.03 2.23z" fill="#fff" opacity=".2"/><path d="M126.24 87.38c10.93-9.91 23-18.41 35.06-26.83a321.65 321.65 0 00-48.91 22.65 77.46 77.46 0 015.22 12.56q4.19-4.32 8.63-8.38z" fill="#fff" opacity=".3"/><path d="M357.19 72.28c6.05 6.52 12.25 13 17.8 20 .95-3.47 1.93-6.94 2.8-10.43.18-.71-6.27-6.23-23.84-13.56 1.05 1.29 2.14 2.71 3.24 3.99z" fill="#fff" opacity=".2"/><path d="M367.83 96.08c-12.51-13.5-20.55-33.49-40.17-37.17 2.21 2.57 38.09 44.42 42.82 55.41.52-8.2 4.26-10.86-2.65-18.24z" fill="#fff" opacity=".3"/><path d="M122 270.93c.47 6.8 1.73 13.4 1.72 20.28l.1-.18c1.69 36.23-.72 72.7.86 108.89 26.2 3.46 286.55-38.54 245.91-224.81-38-7.66-92.86-27.14-131.35-37.59-39.6-9.11-78.21-22.63-118.34-29.63-.09 23.24 2.74 46.44 3 69.78-1.59 11.23-.72 22.57-1 34-2.48 19.71-2.33 39.41-.9 59.26z" fill="#514f48"/><path d="M372.46 239.06c-43 43.84-94.61 77.36-148 107.19-33 19.1-64.53 41.14-99.69 56.23.21 11.35 2.29 22.65 2.58 34 62.82-5.25 186-7.69 241.06 0 7.82-69.24-1.34-124.48 4.05-197.42z" fill="#fff"/><path d="M121.8 180.85s2.11 28.61 0 44.24.11 29.7.11 32.88 1.9 33.06 1.9 33.06" fill="none" stroke="#262521" stroke-linecap="round" stroke-linejoin="round" stroke-width="3"/><path d="M51.32 409.51S80 400 96.47 412m305.71 0s25.94-8.31 43.55 0" fill="none" stroke="#636363" stroke-linecap="round" stroke-linejoin="round"/><path d="M291.48 48.63c29.12 10.49 61 14.41 87.44 31.58m-265.7 2.97c27.32-18.2 60-23.76 90.46-34.78m-75.92 390.75a44.58 44.58 0 00-.35-6.59c-6.15-46.82-1.39-94.37-3.6-141.53m248.33.53q-.27 61.72-.62 123.46c-.81 9-2.68 16.41-3.55 25.44m4.58-148.99l-.41.09" fill="none" stroke="#262521" stroke-linecap="round" stroke-linejoin="round" stroke-width="3"/></svg>