<svg xmlns="http://www.w3.org/2000/svg" width="500" height="550" viewBox="0 0 500 550"><path fill="none" stroke="#84837e" stroke-linecap="round" stroke-miterlimit="10" stroke-width="3" d="M371.12 496.3v7.41"/><rect x="358.83" y="494.86" width="24.57" height="15.18" rx="3" fill="none" stroke="#84837e" stroke-miterlimit="10" stroke-width="3"/><path d="M316 56.92s-22.8-23.49-42.58-23.49h-49.7c-19.78 0-48.84 25.75-48.84 25.75l30.7 29.34h85.94z" fill="#262521" stroke="#262521" stroke-linecap="round" stroke-linejoin="round" stroke-width="3"/><path d="M297 49.28s-21.71 9.9-47.18 9.9-40.17-9.9-40.17-9.9l-19.26 26.89 34.3 71L301 129.66l2.38-44.54z" fill="#e5e5e5"/><path d="M297 49.28S279.89 58 252.23 59.1s-42.59-9.82-42.59-9.82" fill="none" stroke="#262521" stroke-linecap="round" stroke-linejoin="round" stroke-width="3"/><path d="M209.64 49.28s4 48.55 43.68 46.73S297 49.28 297 49.28l73.16 29.47s-1.73 406.89-5 409.08-151.4 0-167-3.28-53.14 5-57.87 4.16-5.46-15.4-3.64-23 1.36-386.92 1.36-386.92z" fill="#fff" stroke="#262521" stroke-linecap="round" stroke-linejoin="round" stroke-width="3"/><path d="M207.41 50.28s7.73 66.84 46.55 66.84 45.27-65 45.27-65" fill="none" stroke="#262521" stroke-linecap="round" stroke-linejoin="round" stroke-width="5" stroke-dasharray="1 3"/><path d="M253.14 117.2a1 1 0 010-2h1a1 1 0 011 1 1 1 0 01-.95 1h-1zm-3-.12h-.09c-.35 0-.69-.07-1-.12a1 1 0 01-.86-1.11 1 1 0 011.11-.87l1 .11a1 1 0 01.91 1.08 1 1 0 01-1.06.91zm7-.18a1 1 0 01-1-.86 1 1 0 01.85-1.13l1-.14a1 1 0 11.33 2q-.51.09-1 .15zm-10.91-.47a.85.85 0 01-.23 0c-.34-.08-.67-.16-1-.26a1 1 0 01-.7-1.23 1 1 0 011.23-.69c.31.08.62.17.94.24a1 1 0 01.73 1.21 1 1 0 01-.98.73zm14.82-.29a1 1 0 01-.25-2l.94-.25a1 1 0 11.55 1.92l-1 .27a1.07 1.07 0 01-.29.06zm-18.61-.92a1 1 0 01-.38-.07l-1-.4a1 1 0 11.81-1.83l.89.37a1 1 0 01-.37 1.93zm22.41-.29a1 1 0 01-.36-1.94c.3-.11.6-.24.89-.36a1 1 0 01.78 1.84l-.95.39a1.15 1.15 0 01-.37.07zm-26-1.44a1 1 0 01-.49-.13l-.89-.52a1 1 0 011-1.71c.27.17.55.33.83.49a1 1 0 01-.5 1.87zm29.62-.23a1 1 0 01-.46-1.88l.84-.47a1 1 0 011 1.74l-.91.49a1 1 0 01-.48.12zm-33-2a1 1 0 01-.59-.2c-.28-.2-.55-.41-.82-.62a1 1 0 111.24-1.57l.77.59a1 1 0 01.21 1.4 1 1 0 01-.78.45zm36.38-.13a1 1 0 01-.56-1.82l.79-.56a1 1 0 011.4.22 1 1 0 01-.22 1.4l-.84.59a1 1 0 01-.54.22zm-39.45-2.42a1 1 0 01-.68-.27l-.74-.7a1 1 0 011.39-1.44l.71.67a1 1 0 01.06 1.42 1 1 0 01-.71.37zm42.62 0a1 1 0 01-.76-.35 1 1 0 01.11-1.41l.73-.64a1 1 0 111.33 1.49l-.76.67a1 1 0 01-.62.28zM278 106a1 1 0 01-.72-1.69l.68-.71a1 1 0 011.41-.06 1 1 0 01.05 1.42c-.23.25-.46.5-.7.74a1 1 0 01-.72.3zm-48.32-.11a1 1 0 01-.75-.33c-.22-.25-.45-.5-.67-.76a1 1 0 011.51-1.31c.21.25.43.49.65.73a1 1 0 01-.74 1.67zm51-2.87a1 1 0 01-.77-1.64c.21-.25.41-.5.61-.76a1 1 0 011.41-.16 1 1 0 01.16 1.4c-.21.27-.42.53-.64.79a1 1 0 01-.84.35zm-53.54-.2a1 1 0 01-.8-.39l-.61-.81a1 1 0 011.61-1.2c.19.27.39.53.59.79a1 1 0 01-.79 1.61zm56-3a1 1 0 01-.58-.18 1 1 0 01-.24-1.39l.56-.81a1 1 0 111.65 1.13l-.58.83a1 1 0 01-.95.46zm-58.29-.27a1 1 0 01-.84-.45l-.56-.84a1 1 0 111.55-1.05c.18.27.36.55.55.82a1 1 0 01-.83 1.56zm60.48-3.07a1 1 0 01-.52-.14 1 1 0 01-.33-1.38l.51-.85a1 1 0 011.72 1l-.52.86a1 1 0 01-.97.55zm-62.61-.32a1 1 0 01-.87-.5l-.5-.87a1 1 0 111.73-1l.5.85a1 1 0 01-.36 1.37 1 1 0 01-.61.19zm64.6-3.15a1 1 0 01-.47-.12 1 1 0 01-.41-1.36l.47-.87a1 1 0 111.77.92l-.47.9a1 1 0 01-1 .57zm-66.55-.35a1 1 0 01-.89-.53c-.15-.3-.31-.6-.46-.91a1 1 0 111.78-.9l.45.87a1 1 0 01-.88 1.47zM289 89.47a1 1 0 01-.43-.1 1 1 0 01-.47-1.33l.41-.9a1 1 0 111.82.84l-.43.92a1 1 0 01-.9.57zm-70.14-.36a1 1 0 01-.91-.57c-.14-.31-.29-.61-.42-.92a1 1 0 01.49-1.33 1 1 0 011.32.5l.42.89a1 1 0 01-.46 1.32 1 1 0 01-.42.11zm71.77-3.3a.91.91 0 01-.39-.08 1 1 0 01-.53-1.3l.38-.92a1 1 0 011.85.75l-.39.94a1 1 0 01-.9.61zm-73.41-.35a1 1 0 01-.92-.61l-.39-.93a1 1 0 01.54-1.3 1 1 0 011.31.54l.38.91a1 1 0 01-.53 1.31 1 1 0 01-.37.08zm74.88-3.37a.91.91 0 01-.35-.07 1 1 0 01-.59-1.28c.12-.31.23-.62.34-.93a1 1 0 011.89.67l-.35 1a1 1 0 01-.92.61zm-76.38-.34a1 1 0 01-.93-.64l-.36-.94a1 1 0 01.59-1.29 1 1 0 011.28.58l.36.93a1 1 0 01-.58 1.29.92.92 0 01-.34.07zm77.71-3.44a1.12 1.12 0 01-.31 0 1 1 0 01-.62-1.31c.11-.31.21-.63.31-.94a1 1 0 111.9.61c-.1.32-.2.64-.31 1a1 1 0 01-.95.64zM214.36 78a1 1 0 01-.94-.67l-.33-1a1 1 0 01.62-1.26 1 1 0 011.27.62l.33.94a1 1 0 01-.62 1.27.92.92 0 01-.33.1zm80.28-3.51a1 1 0 01-.28 0 1 1 0 01-.68-1.24l.28-1a1 1 0 011.24-.69 1 1 0 01.68 1.23l-.28 1a1 1 0 01-.96.69zm-81.54-.29a1 1 0 01-1-.7l-.3-1a1 1 0 011.91-.6l.3.95a1 1 0 01-.65 1.26 1 1 0 01-.26.08zm82.61-3.57a1.07 1.07 0 01-.25 0 1 1 0 01-.72-1.22c.09-.32.17-.64.25-1a1 1 0 111.94.48c-.08.33-.16.65-.25 1a1 1 0 01-.97.73zm-83.78-.27a1 1 0 01-1-.72l-.28-1a1 1 0 011.93-.54l.27.95a1 1 0 01-.68 1.24.9.9 0 01-.24.06zm84.73-3.62h-.22a1 1 0 01-.75-1.2l.22-1a1 1 0 011.95.43l-.22 1a1 1 0 01-.98.76zm-85.79-.24a1 1 0 01-1-.75l-.25-1a1 1 0 111.94-.5l.25 1a1 1 0 01-.72 1.22.73.73 0 01-.22.02zm86.63-3.7a.71.71 0 01-.2 0 1 1 0 01-.78-1.17l.19-1a1 1 0 012 .38l-.19 1a1 1 0 01-1.02.79zm-88.58-1l-.23-1a1 1 0 011.95-.45l.22.91-1 .29zm89.3-3h-.16a1 1 0 01-.82-1.15c.05-.34.11-.66.16-1a1 1 0 112 .32c-.05.32-.1.65-.16 1a1 1 0 01-1.02.89zM209 58.68a1 1 0 01-1-.79l-.21-1a1 1 0 112-.4l.21 1a1 1 0 01-.77 1.19.75.75 0 01-.23 0zm89.81-3.79h-.14a1 1 0 01-.85-1.13c.05-.35.09-.68.13-1a1 1 0 112 .25c0 .31-.08.64-.13 1a1 1 0 01-.99.88zm-90.6-.14a1 1 0 01-1-.82l-.18-1a1 1 0 01.81-1.16 1 1 0 011.16.81l.17 1a1 1 0 01-.8 1.17zm-.68-4a1 1 0 01-1-.85c-.1-.66-.14-1-.14-1a1 1 0 112-.27s0 .36.14 1a1 1 0 01-.84 1.14z" fill="#b7b6b0"/><path d="M206 52.77a1 1 0 01-1-.85l-.08-.5a1 1 0 012-.29l.07.48a1 1 0 01-.83 1.14zM254.11 118.75h-1a1 1 0 01-1-1 1 1 0 011-1h1a1 1 0 010 2zm3-.11a1 1 0 01-.08-2l1-.09a1 1 0 11.22 2l-1 .1zm-7-.17H250l-1-.16a1 1 0 11.32-2l1 .15a1 1 0 01.86 1.12 1 1 0 01-1.06.89zm10.93-.39a1 1 0 01-.21-2l1-.21a1 1 0 01.47 1.94l-1 .23zm-14.85-.39a.73.73 0 01-.25 0c-.34-.08-.67-.18-1-.28a1 1 0 11.58-1.91l.93.26a1 1 0 01-.26 2zm18.69-.68a1 1 0 01-.33-1.94l.91-.34a1 1 0 01.72 1.87l-1 .35a1 1 0 01-.29.05zm-22.47-.59a1 1 0 01-.38-.08l-.95-.4a1 1 0 01.82-1.83l.89.38a1 1 0 01-.38 1.93zm26.15-1a1 1 0 01-.89-.55 1 1 0 01.44-1.34l.86-.45a1 1 0 011 1.76l-.92.48a1 1 0 01-.48.13zm-29.75-.77a1.11 1.11 0 01-.49-.12l-.88-.52a1 1 0 111-1.71l.84.48a1 1 0 01.38 1.36 1 1 0 01-.84.54zm33.19-1.2a1 1 0 01-.84-.45 1 1 0 01.29-1.39c.27-.17.53-.35.79-.54a1 1 0 011.4.24 1 1 0 01-.24 1.39l-.85.58a1 1 0 01-.55.17zm-36.58-.9a1 1 0 01-.58-.19c-.28-.2-.56-.4-.83-.61a1 1 0 111.2-1.6l.79.58a1 1 0 01-.58 1.82zm39.78-1.49a1 1 0 01-.64-1.76c.25-.21.5-.42.74-.64a1 1 0 011.32 1.51l-.78.66a1 1 0 01-.61.23zm-42.92-1a1 1 0 01-.65-.25l-.77-.68a1 1 0 011.35-1.48c.24.22.48.44.73.65a1 1 0 01.1 1.42 1 1 0 01-.73.34zm45.87-1.7a1 1 0 01-.71-1.7c.23-.24.46-.47.68-.71a1 1 0 011.42 0 1 1 0 010 1.41c-.23.25-.47.49-.71.73a1 1 0 01-.65.27zm-48.76-1.07a1 1 0 01-.72-.3l-.7-.75a1 1 0 111.47-1.35l.67.71a1 1 0 010 1.41 1 1 0 01-.69.28zm51.46-1.89a1.05 1.05 0 01-.65-.23 1 1 0 01-.12-1.41c.21-.25.42-.5.62-.76a1 1 0 011.41-.15 1 1 0 01.15 1.4c-.21.27-.43.53-.65.79a1 1 0 01-.73.36zm-54.12-1.1a1 1 0 01-.77-.36l-.64-.8a1 1 0 011.57-1.24c.2.26.41.51.61.76a1 1 0 01-.13 1.41 1 1 0 01-.61.23zm56.57-2.06a1 1 0 01-.58-.19 1 1 0 01-.23-1.4l.57-.8a1 1 0 111.64 1.14c-.19.28-.39.56-.59.83a1 1 0 01-.78.42zm-59-1.11a1 1 0 01-.81-.42l-.59-.83a1 1 0 01.25-1.39 1 1 0 011.39.25l.57.8a1 1 0 01-.22 1.4 1.09 1.09 0 01-.57.19zm61.24-2.21a1 1 0 01-.53-.15 1 1 0 01-.31-1.38c.17-.28.34-.56.52-.84a1 1 0 111.7 1c-.17.29-.35.57-.53.86a1 1 0 01-.83.51zm-63.48-1.11a1 1 0 01-.85-.47c-.18-.29-.36-.57-.53-.86a1 1 0 111.7-1l.52.84a1 1 0 01-.31 1.38.94.94 0 01-.51.11zm65.52-2.34a1 1 0 01-.49-.13 1 1 0 01-.39-1.35l.48-.87a1 1 0 111.76.94c-.16.3-.32.6-.49.9a1 1 0 01-.85.51zM220 94.36a1 1 0 01-.87-.51l-.5-.88a1 1 0 01.4-1.36 1 1 0 011.35.39l.49.87a1 1 0 01-.87 1.49zm69.43-2.45a1 1 0 01-.44-.1 1 1 0 01-.45-1.34c.14-.3.29-.59.43-.89a1 1 0 011.8.86c-.14.31-.29.61-.44.91a1 1 0 01-.88.56zm-71.33-1.08a1 1 0 01-.89-.55l-.45-.9a1 1 0 111.79-.89l.44.89a1 1 0 01-.43 1.34 1 1 0 01-.44.11zm73-2.55a1 1 0 01-.4-.09 1 1 0 01-.51-1.32l.39-.91a1 1 0 011.31-.52 1 1 0 01.53 1.31l-.4.93a1 1 0 01-.88.6zm-74.76-1.06a1 1 0 01-.91-.58c-.14-.31-.28-.61-.41-.92a1 1 0 111.82-.82l.41.9a1 1 0 01-.49 1.33 1.06 1.06 0 01-.38.09zm76.3-2.64a1.21 1.21 0 01-.37-.07 1 1 0 01-.56-1.3l.36-.93A1 1 0 01294 83c-.12.31-.24.63-.37.94a1 1 0 01-.95.64zm-77.9-1a1 1 0 01-.93-.62c-.13-.31-.26-.62-.38-.93a1 1 0 111.85-.75c.13.3.25.61.38.91a1 1 0 01-.54 1.31.84.84 0 01-.34.05zm79.3-2.73a1 1 0 01-.33-.06 1 1 0 01-.61-1.27l.33-.94a1 1 0 011.27-.62 1 1 0 01.62 1.27l-.33 1a1 1 0 01-.91.59zm-80.78-1a1 1 0 01-.94-.64l-.35-1a1 1 0 011.88-.69l.34.93a1 1 0 01-.58 1.29 1 1 0 01-.31.08zm82.1-2.85a1 1 0 01-.3 0 1 1 0 01-.65-1.25l.29-1a1 1 0 011.26-.66 1 1 0 01.65 1.25l-.3 1a1 1 0 01-.95.66zm-83.42-1a1 1 0 01-.95-.67l-.32-1a1 1 0 011.89-.63l.32.94a1 1 0 01-.62 1.27.86.86 0 01-.32.14zm84.58-2.87a.9.9 0 01-.28 0 1 1 0 01-.68-1.24c.09-.32.18-.63.26-1a1 1 0 111.93.53l-.27 1a1 1 0 01-.96.76zm-85.83-.94a1 1 0 01-1-.7l-.29-1a1 1 0 011.91-.59l.29 1a1 1 0 01-.6 1.3 1 1 0 01-.31.04zm86.87-2.93a.77.77 0 01-.25 0 1 1 0 01-.72-1.21l.25-1a1 1 0 111.94.48l-.25 1a1 1 0 01-.97.78zm-88-.91a1 1 0 01-1-.73l-.27-1a1 1 0 111.92-.53l.27 1a1 1 0 01-.68 1.23 1 1 0 01-.26.08zm89-3h-.22a1 1 0 01-.75-1.2l.22-1a1 1 0 011.19-.76 1 1 0 01.76 1.19l-.22 1a1 1 0 01-1.04.83zm-90-.88a1 1 0 01-1-.76l-.25-1a1 1 0 011.94-.49l.24 1a1 1 0 01-.72 1.22 1 1 0 01-.27.09zm90.84-3.05h-.2a1 1 0 01-.78-1.17l.19-1a1 1 0 112 .37l-.19 1a1 1 0 01-1.08.86zm-91.79-.85a1 1 0 01-1-.78l-.22-1a1 1 0 112-.43l.22 1a1 1 0 01-.75 1.2.83.83 0 01-.31.07zm92.52-3.1h-.17a1 1 0 01-.82-1.16l.16-1a1 1 0 012 .32l-.17 1a1 1 0 01-1.06.9zm-93.43-.77a1 1 0 01-1-.8c-.07-.35-.13-.68-.19-1a1 1 0 112-.38c.06.3.12.63.19 1a1 1 0 01-.78 1.18.65.65 0 01-.22 0zM300.67 53.58h-.13a1 1 0 01-.86-1.12l.05-.47a1 1 0 112 .21l-.06.52a1 1 0 01-1 .86z" fill="#7f7e78"/><path d="M268.46 113.26a1 1 0 01-.46-1.88l.84-.47a1 1 0 011 1.74l-.91.49a1 1 0 01-.47.12zm-33-2a1 1 0 01-.59-.2c-.28-.2-.55-.41-.82-.62a1 1 0 111.24-1.57l.77.59a1 1 0 01.21 1.4 1 1 0 01-.77.45zm36.38-.13a1 1 0 01-.56-1.82l.79-.56a1 1 0 011.4.22 1 1 0 01-.22 1.4l-.84.59a1 1 0 01-.53.22zm-39.45-2.42a1 1 0 01-.68-.27l-.74-.7a1 1 0 011.39-1.44l.71.67a1 1 0 01.06 1.42 1 1 0 01-.7.37zm42.62 0a1 1 0 01-.76-.35 1 1 0 01.11-1.41l.73-.64a1 1 0 111.33 1.49l-.76.67a1 1 0 01-.61.28zM278 106a1 1 0 01-.72-1.69l.68-.71a1 1 0 011.41-.06 1 1 0 01.05 1.42c-.23.25-.46.5-.7.74a1 1 0 01-.72.3zm-48.32-.11a1 1 0 01-.75-.33c-.22-.25-.45-.5-.67-.76a1 1 0 011.51-1.31c.21.25.43.49.65.73a1 1 0 01-.74 1.67zm51-2.87a1 1 0 01-.77-1.64c.21-.25.41-.5.61-.76a1 1 0 011.41-.16 1 1 0 01.16 1.4c-.21.27-.42.53-.64.79a1 1 0 01-.84.35zm2.32-3.16a1 1 0 01-.58-.18 1 1 0 01-.24-1.39l.56-.81a1 1 0 111.65 1.13l-.58.83a1 1 0 01-.81.42z" fill="#fff" opacity=".86"/><g opacity=".86" fill="#fff"><path d="M206 52.77a1 1 0 01-1-.85l-.08-.5a1 1 0 012-.29l.07.48a1 1 0 01-.83 1.14zM272 113.45a1 1 0 01-.84-.45 1 1 0 01.29-1.39c.27-.17.53-.35.79-.54a1 1 0 011.4.24 1 1 0 01-.24 1.39l-.85.58a1 1 0 01-.55.17zm3.2-2.39a1 1 0 01-.64-1.76c.25-.21.5-.42.74-.64a1 1 0 011.32 1.51l-.78.66a1 1 0 01-.61.23zm-42.92-1a1 1 0 01-.65-.25l-.77-.68a1 1 0 011.35-1.48c.24.22.48.44.73.65a1 1 0 01.1 1.42 1 1 0 01-.73.34zm45.87-1.7a1 1 0 01-.71-1.7c.23-.24.46-.47.68-.71a1 1 0 011.42 0 1 1 0 010 1.41c-.23.25-.47.49-.71.73a1 1 0 01-.65.27zm-48.76-1.07a1 1 0 01-.72-.3l-.7-.75a1 1 0 111.47-1.35l.67.71a1 1 0 010 1.41 1 1 0 01-.69.28zm51.46-1.89a1.05 1.05 0 01-.65-.23 1 1 0 01-.12-1.41c.21-.25.42-.5.62-.76a1 1 0 011.41-.15 1 1 0 01.15 1.4c-.21.27-.43.53-.65.79a1 1 0 01-.73.36zm-54.12-1.1a1 1 0 01-.77-.36l-.64-.8a1 1 0 011.57-1.24c.2.26.41.51.61.76a1 1 0 01-.13 1.41 1 1 0 01-.61.23zM300.67 53.58h-.13a1 1 0 01-.86-1.12l.05-.47a1 1 0 112 .21l-.06.52a1 1 0 01-1 .86z"/></g><path d="M235 185.94c0-23.16-20.87-131.56-25.88-137.11a3.16 3.16 0 00-2.72-.43C176 59.42 143.31 65 116 83.18c-23.5 30.35-34.46 68.24-48.06 103.67-23.59 59.08-28.11 123-26.19 186-.36 11.18.74 97.95 2.77 105.72.3 1.47 62.69 2.66 63.26-.52 1.45-8 2.86-179.6 5.23-190.27 1.35-2.86 13.78-67 15.19-69.81 2.21 47.15-8.87 215.89-1.17 247.91.5 2.06 19 4.34 69 4C199.34 442.16 235 209.11 235 185.94z" fill="#262521" stroke="#262521" stroke-linecap="round" stroke-linejoin="round" stroke-width="3"/><path d="M285.07 466.15c0 .5.05 1 .08 1.49l.6 10.55a1.18 1.18 0 00.05.31.8.8 0 00.07.2.14.14 0 000 .06 1.74 1.74 0 00.11.18l.06.1a1.33 1.33 0 001.19.56l4.35-.49a1.54 1.54 0 001.4-1.93c-.09-.49-.17-1-.26-1.47q-.88-5.21-1.78-10.41a1.52 1.52 0 00-1.49-1.08l-3 .34a1.53 1.53 0 00-1.38 1.59zm2.85 6.58l1.49-.2a1 1 0 011.12.86l.37 2.75a1 1 0 01-.87 1.12l-1.49.2a1 1 0 01-1.12-.86l-.36-2.75a1 1 0 01.86-1.12z" fill="#84837e"/><path d="M457.13 336.13c-2.15-75.82-17.9-126.54-45.71-194-8.83-19.22-14.51-42.62-30.46-57.2-26.38-17.18-57.48-25.13-86.6-35.62-3.68-1.54-22.71 114.63-22.71 140.78s16.23 257.08 21.09 281.49c38.05-.76 85.61-1.68 85.78-2.28 6.89-23.52-11.52-249.35-11.38-249.38.51 7.25 17.36 62 19.83 69 2.65 7.45 8.93 187.71 11.53 191.53 3.78 5.55 60 6 60 .13.03-5.46-.85-125.76-1.37-144.45z" fill="#262521" stroke="#262521" stroke-linecap="round" stroke-linejoin="round" stroke-width="3"/><path d="M173.11 61s-20.53 28.45-26.8 37.22c-4.58 6.42 44.51 12.37 72.22 42.39" fill="none" stroke="#636363" stroke-linecap="round" stroke-linejoin="round"/><path d="M201.89 206.26v.5" fill="none" stroke="#8e8e8e" stroke-linecap="round" stroke-linejoin="round" stroke-width="2"/><path d="M202 209.78c1.65 95.24-6.41 237.74-7.48 256.23" fill="none" stroke="#8e8e8e" stroke-linecap="round" stroke-linejoin="round" stroke-width="2" stroke-dasharray="1.01 3.02"/><path d="M194.39 467.52v.49M191.72 124.84c.11.11.22.24.33.37" fill="none" stroke="#8e8e8e" stroke-linecap="round" stroke-linejoin="round" stroke-width="2"/><path d="M193.61 127.69c2.06 4.24 3.68 11.62 4.93 21.42" fill="none" stroke="#8e8e8e" stroke-linecap="round" stroke-linejoin="round" stroke-width="2" stroke-dasharray="0.98 2.94"/><path d="M198.72 150.58l.06.5" fill="none" stroke="#8e8e8e" stroke-linecap="round" stroke-linejoin="round" stroke-width="2"/><path d="M128.18 218c15.19-69.82-7.73-129.46-7.73-129.46M316 58.06s38.52 39.58 38.9 46.75c0 0-53.54 35.44-54.16 42.32" fill="none" stroke="#636363" stroke-linecap="round" stroke-linejoin="round"/><path d="M331.86 164.72s-40.52 32.95-54.15 111c0 0 5.13 74.57 15.75 191.12" fill="none" stroke="#8e8e8e" stroke-linecap="round" stroke-linejoin="round" stroke-width="2" stroke-dasharray="1 3"/><path d="M378.36 85.12s-13.72 74-9 137.23M397.13 438s30.76 8.08 61.53 0M45.34 438s30.76 8.08 61.53 0M294.89 446.32s56.33 4.72 84.62-2.73M191.72 447.14s-26.89 3.39-65.63-1.85M377.78 397.7l-31.21-54.07 14.26-8.24 16 27.71M125.32 397.7l31.22-54.07-14.26-8.24-16.01 27.71" fill="none" stroke="#636363" stroke-linecap="round" stroke-linejoin="round"/><rect x="284.88" y="453.59" width="5.37" height="13.94" rx="1" transform="rotate(-3.45 287.73 460.828)" stroke-width="3" stroke="#262521" stroke-linecap="round" stroke-linejoin="round" fill="#262521"/><path d="M334.68 163.34s-47.08-19.85-55.07-30.52M228.14 132.82c-8 10.67-55.75 31.9-55.75 31.9s38.46 28 52.07 107.6" fill="none" stroke="#636363" stroke-linecap="round" stroke-linejoin="round"/><circle cx="319.83" cy="163.34" r="2.42" fill="#636363"/><circle cx="189.53" cy="164.22" r="2.42" fill="#636363"/><path d="M122.76 79.79s-.18-7.43 4.73-9.93 21.68-8.86 26.16-10.62 11.92 1.9 11.92 1.9l-2.29.65a9.28 9.28 0 00-9.92-1.41c-6 2.43-21.27 8.42-24.84 10.18S124 79.44 124 79.44zM371.91 81s.3-7.43-4.56-10-21.53-9.28-26-11.07-11.95 1.71-11.95 1.71l2.28.68a9.29 9.29 0 019.94-1.24c6 2.53 21.13 8.78 24.67 10.59s4.38 9 4.38 9zM157.6 492.11c-1.38-10.74-5.49-38.77-5.49-38.77h-19.49s2.76 28.91 5.91 42.52c1.07 4.61 13.69 13.1 13.69 13.1s5.78-13.82 5.38-16.85zM142 473.54a3.11 3.11 0 113.11 3.11 3.1 3.1 0 01-3.11-3.11zm1.75 11.26a3.1 3.1 0 113.1 3.1 3.1 3.1 0 01-3.09-3.1zm5.33 15.83a3.11 3.11 0 113.1-3.1 3.1 3.1 0 01-3.09 3.1zM362.17 455.21h17.89v41.84h-17.89z" fill="#262521" stroke="#262521" stroke-linecap="round" stroke-linejoin="round" stroke-width="3"/></svg>