<svg xmlns="http://www.w3.org/2000/svg" width="500" height="550" viewBox="0 0 500 550"><path d="M372.39 291.55q-.27 61.74-.62 123.47c-.81 9-3 17.82-8.07 25.33-2.9 8.57-5.74 17.16-8.58 25.74-.58 1.77-2 1.67-3.35 1.44-44.58-7.74-90.06-5.72-135-2.92-24.6.57-49.26 1.33-73.61 5.1-5.23.59-5.68.27-6.62-4.82a119.66 119.66 0 00-8.83-32.33c-5.48-46.9-1.39-94.37-3.6-141.53-1.42 2.83-2.94 5.6-4.29 8.46-2.37 10.67-17.5 9.3-11.81 16.18 11.11 7.95 6.41 21.38 5.15 32.56-.25 3.15-1.35 6.27-.37 9.58.51 8.44-3.19 16.94-4.38 25.31-1.5 8-2.61 15.83-1.54 23.93a5.1 5.1 0 01-1.13 3.3c-5.71 6.28-7.75 14-9.19 22.06-.57 3.18-.61 3-3.74 2-12.38-3.52-26.09-4.38-38.6-1.18-1.39.34-2.11 0-2.41-1.47-2-7.76-2.18-16.67-8.49-22.43a6.62 6.62 0 01-1.33-3.22 144.46 144.46 0 01-2.72-33.3c-1.91-63 2.6-126.93 26.19-186C79 151.42 90 113.53 113.47 83.18c27.32-18.2 60-23.76 90.46-34.78a3.16 3.16 0 012.72.43c5 5.55 11.46 8.41 18.56 9.67 19.19 2.43 41.29 5.55 58.65-4.88 2.85-1.27 4.2-6.53 7.87-5 29.12 10.49 61 14.41 87.44 31.58 15.94 14.59 21.63 38 30.45 57.21 27.81 67.48 58 137.39 51.05 212.08-1.19 18.65-.23 37.45-3.28 55.95-.49 4.66-5.21 7.09-5.56 11.78-1.22 5.28-2.08 10.65-2.91 16-.4 2.6-.41 2.83-3.08 2.33-12.48-2.66-25.26-5.49-37.8-1.58-8.34-.15-8.13-15.56-11.44-21.4-6.28-7.37-3.61-9-5.33-17.64-.9-9.7-4.68-20.27.79-29.26 2-3.53 1.86-7.05.51-10.66-4.9-11.28-7.4-23.41-10.45-35.29-1.07-4.3-1.31-8.49 1.61-12.34 1.51-7.23-10.43-8.68-10.93-15.93z" fill="#262521" stroke="#262521" stroke-linecap="round" stroke-linejoin="round" stroke-width="3"/><path fill="#dbd7c6" stroke="#dbd7c6" stroke-linecap="round" stroke-linejoin="round" d="M365.57 155.31l.43 39.94 49.64-41.72-12.09-30.67-37.98 32.45zm-237.17 0v39.52l-49.65-41.72 11.66-30.25 37.99 32.45zm47.93-98.04l30.17 28.54h83.55l32.69-27.97 36.92 12.34-51.48 48.4H191.07l-51.48-48.47 36.74-12.84z"/><path d="M322.08 58a3.24 3.24 0 00-2.07.8c-.3.27-.49.64-.78.91a11.07 11.07 0 01-1.15.71 25.05 25.05 0 00-2.08 1.8c-.7.62-1.61 1-2.22 1.7a2.07 2.07 0 01-.77.57 1.85 1.85 0 00-.68.49c-.27.33-.24.72-.64 1s-.76.32-1.09.55c-.68.46-1.23 1.06-1.94 1.52a4.11 4.11 0 00-1.6 1.68l.65-.37a2.85 2.85 0 00-1.78.81c-.28.27-.49.61-.77.87a4.38 4.38 0 01-1.12.57c-.73.36-.82.84-1.29 1.41s-1.1.62-1.34 1.41a.76.76 0 001.26.73l2-1.76-1.18-.91c-.68 1.15-2.06 1.28-2.87 2.21-.41.47-.75.49-1.23.84s-.77.84-1.21 1.2C296.33 78.21 294 79 293 81.31c-.38.88.91 1.65 1.29.76 1-2.36 3.87-3.14 5.6-4.88a7.15 7.15 0 011.43-.9c.32-.21.44-.62.62-.79a14.81 14.81 0 011.57-.88 4.21 4.21 0 001.26-1.36.75.75 0 00-1.18-.91l-2 1.76 1.26.73c.09-.3.82-.51 1-.77a2.44 2.44 0 00.28-.43c.3-.58.35-.6.94-.84 1.08-.42 1.56-1.48 2.59-1.93a1.29 1.29 0 00.79-.66 4.45 4.45 0 011.49-1.21 9.71 9.71 0 001.24-1 6.4 6.4 0 011.26-.76 2.41 2.41 0 001-.89c.09-.16.1-.43.19-.55s.12 0 .32-.11a22.14 22.14 0 001.85-1.43c1.1-.76 2-1.79 3.06-2.57.42-.31 1-.48 1.38-.82.66-.6.8-1.34 1.86-1.4s1-1.55 0-1.5z" fill="#dbd7c6"/><path d="M295.24 81h.05l-.15.12a1.28 1.28 0 01.25-.15l-.18.08a1.11 1.11 0 01.3-.08h-.2.1a.48.48 0 00.29-.06.45.45 0 00.24-.16.49.49 0 00.16-.24.48.48 0 00.06-.29v-.2a.82.82 0 00-.2-.33l-.15-.11a.7.7 0 00-.38-.11h-.38l-.2.06-.35.16a2.37 2.37 0 00-.3.23.51.51 0 00-.16.25.45.45 0 00-.06.28.48.48 0 00.06.29.45.45 0 00.16.24l.15.12a.72.72 0 00.38.1h.2a.82.82 0 00.33-.2zm-1.99.35a5.73 5.73 0 00-.8.46 2.09 2.09 0 00-.55.52.85.85 0 00-.15.3.78.78 0 000 .16.51.51 0 000 .3v-.08l.1-.38a.61.61 0 01.71-.25c.06 0 .06 0 0 0a.58.58 0 00-.23-.09.79.79 0 00-.3 0 .86.86 0 00-.74.45 1.6 1.6 0 00-.14.61v-.11a.19.19 0 000 .07c0 .08.08-.16 0-.1l.09-.11c.13-.09.16-.12.1-.09l.38-.1a1.57 1.57 0 00-.68.19l-.15.09s-.14.07 0 0H291.06c-.09 0 0 0 0 0h-.05a.74.74 0 00-.77.12 1 1 0 00-.32.45s-.07.17-.05.21.11-.2.14-.23-.1.09 0 0 0 0-.06 0-.19.08-.28.14a1 1 0 00-.49 1.19.75.75 0 001.44-.4v.22l-.06.13-.08.11c-.12.09 0 0 0 0l.28-.13a1.17 1.17 0 00.35-.27 1.06 1.06 0 00.24-.41.29.29 0 010-.09c.05-.24 0 .1-.24.25h-.75a1.36 1.36 0 00.91.13 2.5 2.5 0 00.5-.23h.07c-.12 0-.14.06-.09 0h.06-.1a.55.55 0 00.28-.06l.13-.06a1 1 0 00.43-.6 1.57 1.57 0 00.05-.3s0-.22 0 0-.1.19-.05.11a.66.66 0 01-.63.31h-.17c-.04 0 .26.12.35.15a.91.91 0 00.65-.09.88.88 0 00.4-1v.4c0-.14-.11.16 0 0s-.12.14-.05.07l.06-.06a.27.27 0 00.08-.07s-.14.1-.05 0l.18-.12.61-.34a.75.75 0 10-.75-1.29z" fill="#dbd7c6"/><path d="M291.08 85.57l-.39-.48c-.48-.58-1.49 0-1.26.73l.15.43 1.26-.72a6 6 0 00-1.61-1.21.75.75 0 00-1.1.44c-.14.65-1.18.12-1.55 0a11.14 11.14 0 00-2.52-.08c-1.9 0-3.81-.13-5.71-.21a25.26 25.26 0 00-5.83 0c-1.11.23-2-.29-3.15.16-1.49.61-3.06-.54-4.66-.18a3 3 0 01-1.36.16c-.34-.1-.63-.37-1-.47a3.91 3.91 0 00-1.8 0 12.09 12.09 0 01-2.37.52c-.81 0-1.62-.32-2.42-.4a9.18 9.18 0 00-2.11.3c-.74.09-1.34-.23-2.1 0A.75.75 0 00252 86c.73-.22 1.49.2 2.25 0a5.94 5.94 0 013 0 5.67 5.67 0 002.25 0 5 5 0 012.47-.39 4.28 4.28 0 002.07.53 6.73 6.73 0 012.57-.13 7 7 0 002.47.38 3.89 3.89 0 00.74-.21.82.82 0 01.85-.25l.4.1A5.28 5.28 0 00273 86a20.17 20.17 0 013 0c2.06 0 4.12.17 6.18.24h3.08a15.35 15.35 0 012.05.31 1.81 1.81 0 002.29-1.36l-1.1.45a4.74 4.74 0 011.3 1 .75.75 0 001.25-.73l-.15-.44-1.25.73.39.48c.62.74 1.67-.32 1.06-1.06z" fill="#dbd7c6"/><path d="M251.77 84.43a11 11 0 01-4.88-.49.79.79 0 00-.76 0c-1 .78-2.23.55-3.46.6a29.09 29.09 0 01-4.07-.12 1.8 1.8 0 00-.92.1c-.24.11-.45.41-.69.49-.64.2-1.54-.71-2.34-.6-.42.06-.77.32-1.19.36a4.85 4.85 0 01-1.59-.29 4.26 4.26 0 00-2.37-.14c-.12 0-.75.45-.48.41s-.18-.2-.31-.27a1.69 1.69 0 00-.41-.19c-.44-.08-.72.2-1.13.29a7.12 7.12 0 01-2.17-.08c-1-.1-1 1.4 0 1.5a6 6 0 003.47-.34h-.76c.52.25.95.78 1.58.67.34-.06.45-.29.7-.46a1.3 1.3 0 011-.06 10.66 10.66 0 002.42.46 6 6 0 001-.19 3.08 3.08 0 011.69.33 1.87 1.87 0 001.69-.16 1.65 1.65 0 011-.27c.61 0 1.2.13 1.81.13 1.26 0 2.51-.09 3.77-.08a3.81 3.81 0 002.45-.79h-.76a12.52 12.52 0 005.64.69.75.75 0 000-1.5z" fill="#dbd7c6"/><path d="M225.74 84.34c-.63 0-2.3.44-2.66-.2a.76.76 0 00-1.3 0c-.39.68-1.95.37-2.64.51a17.23 17.23 0 01-1.76.39c-.66 0-1.09-.35-1.72-.4a10 10 0 00-1.43.27c-.63 0-1.3-.09-1.94-.11a25.86 25.86 0 00-4 .21l.65.37c-1.11-1.57-3.06-1.2-4.36 0-.72.64.34 1.7 1.06 1.06.5-.44 1.5-1 2-.26a.77.77 0 00.65.37 25.57 25.57 0 014.79-.18 8.4 8.4 0 001.31.12c.29 0 .54-.17.81-.21.57-.08 1 .23 1.58.29 1.27.13 2.47-.49 3.73-.5a2.66 2.66 0 002.6-1.13h-1.3c.85 1.5 2.58.83 4 .94 1 .07 1-1.43 0-1.5zm-33.35-11.56c.51-.1 1-.16 1.28.3s.42 1 .74 1.45c.11.16.36.23.45.36a1.32 1.32 0 01.09.39 3.64 3.64 0 00.41 1 4 4 0 001.64 1.54 3.94 3.94 0 001.1.36h.53c-.18-.18-.23-.18-.17 0v.14a2.14 2.14 0 001.16 1.41 2.69 2.69 0 011.13.82c.43.64 1.14.72 1.74 1.14l-.37-.65a2.66 2.66 0 00.67 1.62c.23.28.7.68.6 1.08a.75.75 0 001.44.4 2.06 2.06 0 00-.4-1.82c-.19-.25-.4-.48-.58-.73s-.17-.53-.3-.84c-.28-.67-1.22-.59-1.62-1.14a3.57 3.57 0 00-1.45-1.12 1.14 1.14 0 01-.52-.37c-.15-.26-.09-.62-.26-.9-.45-.72-1.3-.45-2-.77a2.48 2.48 0 01-1.36-1.7 1.6 1.6 0 00-.48-1c-.06-.06-.36-.26-.3-.2s0-.1-.06-.14l-.12-.24a4 4 0 00-1.06-1.59 2.87 2.87 0 00-2.36-.31c-.95.19-.55 1.63.39 1.45z" fill="#dbd7c6"/><path d="M178.26 58.88c.36 0 .65-.05.85.27a4 4 0 01.31 1 .76.76 0 00.73.55c.65 0 .88.45 1 1.05l.72-1a1.35 1.35 0 01-.66-.1c-.82-.32-1.27.93-.58 1.37s1.25.6 1.83 1 .42.91.89 1.29a1.6 1.6 0 00.63.3 2 2 0 00.35.07c.25.05 0-.06.14 0s.28.48.56.65.68.07 1.05.19l-.53-.52c.32 1.18 1.59 1.67 1.82 2.82.28 1.46 1.53 1.4 2.7 1.56l-.53-.53a8.37 8.37 0 00.87 2 2.59 2.59 0 00.77.74 3.43 3.43 0 00.52.23c.14.06.41.26.34.08l1.45-.4a5.36 5.36 0 00-1.22-2 3.73 3.73 0 00-.83-.6c-.28-.15-.68-.2-.92-.36-.41-.27-.61-1-.92-1.36a1.74 1.74 0 00-1.55-.7c-1 .08-1 1.58 0 1.5.38 0 .51.29.69.59a4.07 4.07 0 00.81 1.11c.43.37 1 .37 1.45.7a3.28 3.28 0 011 1.47c.36.87 1.79.52 1.45-.4s-1-.77-1.63-1.25-.66-1.23-.87-1.8a.75.75 0 00-.52-.53 4.76 4.76 0 01-1.42-.14c-.34-.18-.29-.88-.5-1.24a5.57 5.57 0 00-1-1.15 1.81 1.81 0 01-.43-.52c-.15-.28-.15-.54-.45-.73s-.6 0-.8-.16-.28-.4-.46-.55-1-.19-1.12-.36-.12-.56-.35-.82a3.8 3.8 0 00-.7-.57c-.58-.38-1.25-.62-1.83-1l-.58 1.37a2.27 2.27 0 001.06.16.77.77 0 00.73-1 2.54 2.54 0 00-2.46-2.15l.72.55a4.24 4.24 0 00-.72-1.74 2.3 2.3 0 00-1.89-.65c-1 0-1 1.53 0 1.5zm-27.42 23.21c.61 1.5 1.88 1.62 3.1 2.44l-.37-.64a2.63 2.63 0 00.69 1.66c.43.43 1.09.5 1.47.94s.43 1.19 1 1.61c.3.22 1.27.53 1.34.35a.74.74 0 00.52.92c1 .15 1.28 1.37 1.72 2.17a4.18 4.18 0 00.92 1.17c.33.28.74.4 1 .7s.57.86 1 1.2.92.54 1.34 1a46.34 46.34 0 003.81 3.61 7 7 0 01.74.53c.11.11 0-.25 0 .13a1.59 1.59 0 00.29 1 1.11 1.11 0 00.89.35c.27 0 .39-.09.65.08a1.87 1.87 0 01.36.59c.44.77.73 1.54 1.59 1.92.37.17.73.18 1 .48.15.16.23.4.4.56a1.33 1.33 0 001.33.34c.95-.2.55-1.65-.4-1.45.22 0 0-.22-.17-.41a2.09 2.09 0 00-.41-.43c-.48-.36-1.14-.3-1.54-.75-.59-.66-.66-1.62-1.44-2.16-.24-.17-.89-.49-1.18-.33-.25 0-.27 0-.05.19s.17.24.14.06a1.41 1.41 0 000-.54c-.19-1.06-1.5-1.54-2.24-2.2s-1.23-1.15-1.82-1.75a9.68 9.68 0 00-1.61-1.65c-.27-.16-.54-.17-.79-.4a4.09 4.09 0 01-.5-.66 3.71 3.71 0 00-1-.92c-1.56-1-1.49-3.57-3.61-3.86l.52.92a1.25 1.25 0 00-.79-1.67c-.48-.2-.94-.11-1.29-.53s-.37-.94-.72-1.33-.75-.4-1.19-.68-.34-.79-.63-1.21c-.62-.89-2.18-.65-2.63-1.74-.36-.88-1.81-.49-1.44.4z" fill="#dbd7c6"/><path d="M174.66 104.72a2.75 2.75 0 004 1.93l-1.16-.65c-.13 1.88.89 2.78 2.7 2.85l-.64-.37a13.68 13.68 0 001.08 1.9 1.3 1.3 0 01.35.7 3.64 3.64 0 00.26.72 2.84 2.84 0 00.88 1.09c.51.38 1 .34 1.57.58s1 .68 1.51.91c.75.32 1 .45 1.37 1.2.43 1 .74 1.83 1.83 2.17.88.28 1.2-.89.57-1.37a22.21 22.21 0 01-2.87-2.7c-.53-.61-1.37 0-1.25.73a2.82 2.82 0 002 2.23c.89.31 2.37.19 2.16 1.47a.8.8 0 00.35.85c.76.5.7 1.71 1.9 1.62.44 0 .83-.32 1.22-.33.83 0 1.69.22 2.54.21a22.12 22.12 0 002.44-.22c.75-.1.93.2 1.62.46a5 5 0 003.88-.34c.68-.3.34-1.45-.38-1.4l-2.64.19a.75.75 0 000 1.5c4.92.45 9.79-1 14.7-.42 1 .11 1-1.39 0-1.5-4.91-.55-9.78.87-14.7.42v1.5l2.64-.19-.38-1.4a3.51 3.51 0 01-2.38.31c-.53-.15-.91-.62-1.43-.73a7.45 7.45 0 00-2 .22 14 14 0 01-2.33.08 11.52 11.52 0 00-2-.25c-.24 0-1.06.3-.65.6-.11-.08-.23-.77-.39-1a4.32 4.32 0 00-1-.68l.35.85a2.27 2.27 0 00-1.31-2.78c-1.1-.46-2.61-.28-2.87-1.72l-1.26.73a23.29 23.29 0 003.18 2.94l.58-1.37c-.75-.24-.91-1.64-1.33-2.24-.65-.93-1.81-1.07-2.69-1.72s-1.91-.26-2.31-1.53a2.86 2.86 0 00-.49-1.22 9.72 9.72 0 01-1.14-1.88.74.74 0 00-.65-.37c-1 0-1.27-.33-1.2-1.35a.75.75 0 00-1.13-.64 1.26 1.26 0 01-1.76-1c-.15-.95-1.6-.55-1.45.4z" fill="#dbd7c6"/><path d="M213.73 119.83l.47.4a.77.77 0 001.06 0c.84-.65 2.43.12 3.42 0a7 7 0 012-.13 5 5 0 001.58.23 3.35 3.35 0 011.75 0 11.49 11.49 0 001.62.46c.64.09.7 0 1.23-.36a2.8 2.8 0 012-.08 5 5 0 001.33.11c.66-.06 1.13-.31 1.79 0a4.12 4.12 0 002.43.5 6.57 6.57 0 002-.81c.74-.39 1-.51 1.5.29l.85-1.1a48 48 0 00-5.85-.78c-1-.07-1 1.43 0 1.5a43.5 43.5 0 015.45.73.76.76 0 00.85-1.1c-1.1-1.76-2.32-1.46-3.92-.63a3.37 3.37 0 01-1.29.45 4.1 4.1 0 01-1.87-.67 2 2 0 00-1.5-.09 3 3 0 01-1.06.24 7.08 7.08 0 01-1.12-.19 4 4 0 00-1.68 0c-.66.19-.77.56-1.47.36a10.45 10.45 0 00-1.9-.51c-.66-.06-1.25.23-1.89.12a6.39 6.39 0 00-2-.24 5.87 5.87 0 01-2 .14 3.79 3.79 0 00-3.23.49h1.06l-.47-.41c-.73-.62-1.8.43-1.06 1.07z" fill="#dbd7c6"/><path d="M238.71 120.66c1 .37 2.28.16 2.5-1a.78.78 0 00-.53-.92 2.1 2.1 0 00-1.94.28c-.55.41-.43 1.44.38 1.4 2.18-.1 4.53.7 6.52-.55h-.76c.12 0 .2.41.29.52a1.19 1.19 0 00.57.42 1.79 1.79 0 001.23 0c.58-.21 1.42-1.14 2-.79l.38-1.39h-4a.76.76 0 00-.2 1.48 8.44 8.44 0 002.79.21 3.65 3.65 0 011.35.19 4.75 4.75 0 001.24.34 1.71 1.71 0 001.06-.28c.26-.17.39-.59.63-.68s.66.08.91.14a6 6 0 001 .16l-.2-1.48a7.59 7.59 0 01-2.38-.38 2.38 2.38 0 00-2.16.72c-.65.72.41 1.78 1.06 1.06.5-.54 1.22-.25 1.85-.09a4.36 4.36 0 002 .14c.86-.18.62-1.44-.2-1.47-.62 0-1.21-.31-1.84-.31a1.85 1.85 0 00-1 .25c-.25.15-.42.58-.63.68s-.77-.15-1.06-.25a4.7 4.7 0 00-1.24-.24 10.71 10.71 0 01-2.89-.16l-.2 1.47h4a.76.76 0 00.38-1.4 2.24 2.24 0 00-2.42.16 3.61 3.61 0 01-1 .53c-.17 0 0 .16-.08-.07a1.49 1.49 0 00-.32-.54 1 1 0 00-1.29-.12 4 4 0 01-1.78.4c-1.27 0-2.52-.23-3.79-.17l.38 1.4a.73.73 0 01.78-.14l-.52-.92c0 .19-.42 0-.65 0-.9-.35-1.29 1.1-.4 1.45z" fill="#dbd7c6"/><path d="M254.83 120.16c1 .07 2-.66 3-.32.78.26 1.33.77 2.22.56a13.74 13.74 0 011.43-.4 13.29 13.29 0 011.41 0h3.83c2.26 0 4.63-.36 6.86-.13 1 .1 2 .12 3 .23s2.28-.65 3.35-.19c.88.37 1.65-.92.76-1.3a3.88 3.88 0 00-2.45-.22 5 5 0 01-1.84.13 9.19 9.19 0 00-1.39-.1c-.63 0-1.25-.15-1.86-.18a13 13 0 00-1.63.15c-1.27.11-2.56.13-3.84.12-2.37 0-5-.37-7.34.11a7.61 7.61 0 01-.95.33 4 4 0 01-.8-.39 2.48 2.48 0 00-1.05-.36c-1-.05-1.8.54-2.76.48s-1 1.43 0 1.5z" fill="#dbd7c6"/><path d="M264.28 120.17a4.41 4.41 0 00.81.13h.61a1.49 1.49 0 01.54.19 1.13 1.13 0 00.56.21 3.25 3.25 0 00.45-.07 6.86 6.86 0 001.33-.5h.07l.15-.06.33-.1h.16c-.09 0 0 0 0 0a2.55 2.55 0 01.39 0 .75.75 0 000-1.5 3.16 3.16 0 00-1.63.29l-.47.2-.14.06h-.08a2.06 2.06 0 01-.35.12h-.28l.53.22a2.83 2.83 0 00-1.41-.6l-.67-.07h-.21a1.83 1.83 0 01-.32-.07.75.75 0 00-.4 1.45zm16.12-.17c.91.31 1.47.64 2.35.29a8 8 0 012.65-.58 47.27 47.27 0 015.58.4 12.17 12.17 0 005-.44 4.35 4.35 0 012.15 0 1.9 1.9 0 001.67-.59l-.91.11c1.88 1.26 4.75.71 6.83.39a10.89 10.89 0 003.28-.68 13.62 13.62 0 003.53-2.84 8.11 8.11 0 01.54-.73c.28-.22.47-.1.75-.25.5-.27.75-.77 1.18-1.15s1.13-.83 1.66-1.29a12.86 12.86 0 001.25-1.53c.45-.52 1.13-.52 1.69-.89a4.17 4.17 0 001-1c.66-.84 1.22-2.26 2.46-2.2a.76.76 0 00.75-.75 1.14 1.14 0 011-1c.94-.22.54-1.66-.4-1.44a2.62 2.62 0 00-2.06 2.46l.75-.75c-2.52-.13-2.66 2.64-4.51 3.55-.6.29-1.14.22-1.62.78a11.81 11.81 0 01-1.17 1.59c-.48.43-1 .78-1.53 1.19a11.49 11.49 0 01-1.11 1c-.41.23-.78.16-1.13.56a11.56 11.56 0 01-1.54 1.74 7.33 7.33 0 01-3.28 1.82 34.08 34.08 0 01-3.91.56 5.85 5.85 0 01-3.58-.48.73.73 0 00-.9.12c-.43.45-1.53-.12-2.1-.11a9.74 9.74 0 00-1.93.59 14.93 14.93 0 01-4.81 0 29.11 29.11 0 00-4.85-.28 8.89 8.89 0 00-2.05.35 5.49 5.49 0 01-1 .42 6.09 6.09 0 01-1.2-.45c-.92-.31-1.31 1.14-.4 1.45zm54.15-23.79a2.78 2.78 0 001.85-2.45l-.34.45c.8-.51 1.68-.4 1.85-1.58l-.34.45a3 3 0 001.31-1.53c.14-.3.27-.73.55-.91a9.94 9.94 0 011.05-.34 4.07 4.07 0 001.8-1.37c.22-.31.34-.92.66-1.13s.72-.14 1-.32a4.79 4.79 0 001.34-1.48c.42-.57 1.1-.86 1.57-1.42.93-1.13 1.52-2.84 3.12-3.13a.76.76 0 00.55-.72c0-.59.16-.57.74-.62a.8.8 0 00.73-.55c.1-.32.24-.8.65-.83.95-.06 1-1.56 0-1.5a2.36 2.36 0 00-2.1 1.93l.72-.55c-1.42.11-2.12.65-2.24 2.12l.55-.73c-2.05.38-2.7 2.28-3.92 3.68a9.82 9.82 0 01-1.07.86 5.21 5.21 0 00-.82 1 1.56 1.56 0 01-1.1.76 2 2 0 00-1.05.73c-.3.4-.39.9-.74 1.26a3.44 3.44 0 01-1.57.84c-1 .29-1.35.91-1.8 1.84-.23.46-.52.59-.84.93-.15.15-.12.44-.23.56s-.48.14-.62.19a1.3 1.3 0 00-.86.7c-.21.55-.09 1.18-.8 1.4-.91.29-.52 1.74.4 1.45z" fill="#dbd7c6"/><path d="M352.86 78.32a3.09 3.09 0 001.68-1.42c.26-.52.35-1.1.57-1.64 0-.08-.06.1 0 0a1.4 1.4 0 01.1-.16c.1-.17-.1.11 0 0 0 0 .17-.14.05 0a2.27 2.27 0 01.81-.26 1.44 1.44 0 00.91-.78 3.35 3.35 0 00.19-.53v-.11a.18.18 0 01-.07.08l-.37.1c1.61-.18 3.72-1.27 4.1-3 .2-.94-1.24-1.34-1.45-.4a2.65 2.65 0 01-1.5 1.51 4 4 0 01-1.1.38 1.28 1.28 0 00-.67.29 1.52 1.52 0 00-.37.59c-.06.14-.09.3-.15.45s.05 0 .05 0-.13.06 0 0a3.57 3.57 0 00-1.22.4 3 3 0 00-1.06 1.76c0 .16-.09.32-.14.47a1 1 0 01-.17.37.83.83 0 01-.26.33 1.52 1.52 0 01-.45.28.77.77 0 00-.52.92.75.75 0 00.92.52zM325.3 105a1.88 1.88 0 00.85-1.35s.06-.13.07-.14c-.15.08-.18.11-.07.07h.17c.2 0 .41-.08.6-.14 1.11-.31 1.13-1.26.94-2.24l-.92.93a1.65 1.65 0 001.69-.52c.39-.42.6-1 1-1.35s1.06-.69 1.54-1.11a5.21 5.21 0 00.66-.75 1.81 1.81 0 01.44-.44h.43a1.07 1.07 0 00.63-.26 1.32 1.32 0 00.35-1 3.86 3.86 0 00.12-.72.34.34 0 01-.12.12s-.26.11-.16 0-.11 0 .06 0h.16a2.61 2.61 0 00.56.08 1.71 1.71 0 001.22-.53c.69-.68-.37-1.74-1.06-1.06l-.08.08c.07-.06-.24.07 0 0 0 0-.24 0 0 0h-.17a2 2 0 00-1-.06 1.32 1.32 0 00-.84.91 4.43 4.43 0 00-.14.81 1.64 1.64 0 000 .23c-.06.32.07.26.4-.16a.63.63 0 00-.36 0 2.08 2.08 0 00-1.55 1 5.78 5.78 0 01-1.37 1.19 4.52 4.52 0 00-1.35 1.32c-.11.18-.39.81-.64.74a.76.76 0 00-.93.92c0 .17 0 .36.07.52s-.05 0 0 0l.13-.15s-.07 0-.22.06l-.49.11a1.42 1.42 0 00-1 .73c-.09.16-.21.81-.35.89-.84.46-.09 1.76.76 1.29zm-143.82 6.46a9.64 9.64 0 001.46 1.25.49.49 0 00.28.09.51.51 0 00.3 0 .81.81 0 00.45-.34.74.74 0 00.07-.58l-.07-.18a.87.87 0 00-.27-.27l-.31-.23.16.12a8.74 8.74 0 01-1-.91.75.75 0 00-.53-.22.77.77 0 00-.53.22.75.75 0 00-.22.53.81.81 0 00.22.53zm17.63 8.37c2.49.26 4.94-.38 7.43-.46 1 0 1-1.53 0-1.5-2.49.08-4.94.72-7.43.46a.75.75 0 000 1.5zm-47.05-38.61c.15 0 0 0-.06-.15l-.16-.31a2.53 2.53 0 00-.47-.7 1.42 1.42 0 00-.69-.35 1.3 1.3 0 00-.65.06h-.14c-.27.06-.18.15.28.28.08-.48-1-.77-1.3-.86a3.74 3.74 0 01-.5-.16c.08-.1.22.48.18.46a5 5 0 01.38-.45.76.76 0 00-.53-1.28l-1.94-.15.53 1.28a1.2 1.2 0 00.2-1.77 2.06 2.06 0 00-.64-.41 2.72 2.72 0 00-.35-.16c-.13 0 0 0-.09-.06l.08.58a1.88 1.88 0 00-.79-2.22c-.75-.49-1.75-.44-2.42-1.07l.2.73a1.43 1.43 0 00-.51-1.78c-.42-.26-1.16-.25-1.5-.5.09.07 0-.07 0 .06a.39.39 0 010-.18c0 .18 0-.3-.06-.4a2.54 2.54 0 00-.75-1.23c-.69-.66-1.76.4-1.06 1.06a1 1 0 01.38.68v.32a1.79 1.79 0 00.16.44 1.63 1.63 0 00.73.67 3.44 3.44 0 00.76.27 2.11 2.11 0 01.45.1c-.07 0 0-.18-.09.09a.73.73 0 00.19.73 4.45 4.45 0 001.93 1 1.89 1.89 0 01.79.32c.21.19.14.26.1.52a1.19 1.19 0 00.79 1.22 2.09 2.09 0 00.48.22h.08c.02 0 .15-.6-.16-.3a.76.76 0 00.53 1.28l1.94.15-.49-1.25c-.52.54-1.15 1.35-.57 2.07a2.55 2.55 0 001.55.7c.25 0-.18-.09-.09-.15a2.45 2.45 0 00.14.29 1 1 0 00.58.41 1.43 1.43 0 00.68 0c.15 0 .35-.07.15-.19.21.12.33.61.45.81a1.73 1.73 0 00.9.74c.91.33 1.3-1.12.4-1.45zm51.4 2.2a2 2 0 00.46.74 2.46 2.46 0 00.55.41c.31.19.64.34.93.56l-.15-.12a1.66 1.66 0 01.27.26l-.11-.15a1.56 1.56 0 01.16.28l-.08-.18a1 1 0 01.06.16A.75.75 0 10207 85a2.22 2.22 0 00-1-1.28c-.33-.21-.7-.35-1-.59l.16.12a1.48 1.48 0 01-.25-.25l.11.16a1.23 1.23 0 01-.14-.25l.07.18a.78.78 0 00-.34-.44.74.74 0 00-.58-.08.81.81 0 00-.45.34.79.79 0 00-.07.58zm19.88 33.99c0 .13 0 .29-.06.42v.59c0 .12.1.26.16.38a1.46 1.46 0 00.17.24 1.5 1.5 0 00.2.24 3.92 3.92 0 00.32.25h.05l.21.09.2.08a2 2 0 00.5.08 2.09 2.09 0 00.52 0h.06l.2-.08.21-.09a1.13 1.13 0 00.42-.39 1.06 1.06 0 00.27-.51 1.22 1.22 0 000-.6 1.16 1.16 0 00-.18-.56l-.23-.3a1.56 1.56 0 00-.67-.39l-.39-.05a1.45 1.45 0 00-.76.21l.46-.02h-.1.4-.11.4a.5.5 0 01-.13 0l.36.15-.13-.08.31.24a.57.57 0 01-.11-.11l.24.31a.75.75 0 01-.07-.12l.15.36a.53.53 0 010-.12l.05.4v-.1l-.05.4v-.07a1 1 0 000-.6 1.12 1.12 0 00-.18-.55 1 1 0 00-.38-.42 1.06 1.06 0 00-.51-.27l-.4-.06a1.55 1.55 0 00-.76.21l-.3.23a1.47 1.47 0 00-.39.67z" fill="#dbd7c6"/><path d="M206.45 119c.08 1.48 1.67 1.87 2.87 2.11a2.91 2.91 0 001.1.07 2.2 2.2 0 00.85-.39 6.13 6.13 0 00.71-.64l.3-.27c-.15.13 0 0 .07 0l.19-.1-1.1-.85a2.5 2.5 0 01-.07.26.4.4 0 100 .06 1.71 1.71 0 01-.13.23s-.11.17 0 .07a2.57 2.57 0 01-.33.33l-.1.09c.06 0 .06 0 0 0l-.2.13a3.55 3.55 0 01-.43.23h-.13l-.23.08-.46.11H209l.38.1-.25-.15-.15-.11c-.21-.15-.4-.31-.6-.47a3.07 3.07 0 00-1.24-.58.75.75 0 00-.4 1.45h.38c-.06 0-.06 0 0 0a3.66 3.66 0 01.42.26l.09.07.18.14a5.37 5.37 0 00.45.35c.12.08.24.17.37.24a1.08 1.08 0 00.66.08 4.4 4.4 0 001-.18 3.7 3.7 0 002.67-2.56.76.76 0 00-1.1-.85 4.61 4.61 0 00-1.19 1l-.13.12c-.14.13.07 0-.05 0l-.15.09s-.19.07 0 0h-.17c.12 0 0 0 0 0h-.23a10.52 10.52 0 01-1.34-.34c-.07 0-.16-.07 0 0l-.16-.08-.15-.08c-.08-.05-.11-.09 0 0a1.59 1.59 0 00-.29-.02c-.05 0 .08.13 0 0s0 .06 0 0 0 .12 0 0a.75.75 0 00-1.5 0zm29.42 1.55c.42.19.82.42 1.24.64a3 3 0 001.43.47 1.2 1.2 0 00.86-.57 3.9 3.9 0 00.19-.35s.1-.14.09-.17 0-.06-.07 0-.12.09 0 .06l-.84-.35c.26.62.54 1.22.85 1.82s1.15.37 1.37-.18a4.48 4.48 0 01.7-1.29 1.16 1.16 0 01.28-.25.58.58 0 01.18-.08h.19l.37.11h.07l.18.09.37.19a3.31 3.31 0 001.73.47 2.58 2.58 0 001.92-1.44c.5-.83-.8-1.58-1.3-.76a1.55 1.55 0 01-.64.69h-.29c.19 0 0 0 0 0a3.15 3.15 0 01-.65-.26c-.3-.15-.58-.3-.89-.42a2.22 2.22 0 00-1.93.07 4.59 4.59 0 00-1.7 2.45l1.37-.18c-.3-.59-.59-1.2-.85-1.82a.75.75 0 00-.84-.34 1.22 1.22 0 00-.8.57 3.84 3.84 0 00-.18.35c-.12.23-.14.11 0 .08h.4a14.71 14.71 0 01-2-.94.77.77 0 00-1 .26.76.76 0 00.27 1zm34.36-.96c.38 1.11 1.42 1.56 2.14 2.4a.75.75 0 001.25-.33 5.19 5.19 0 01.24-1c0-.09 0 .07 0 0s.07-.1.1-.16-.06.05 0 0l.09-.09s-.13.08 0 0 .09 0 .12 0h-.05a.81.81 0 00.22 0c.08 0-.17 0 0 0h.14c.35.08.68.19 1 .24a2.72 2.72 0 001.57-.2c.62-.29.38-1.2-.18-1.37a16.5 16.5 0 00-3.46-.78 2.2 2.2 0 00-1.72.33.86.86 0 00-.13 1 1.29 1.29 0 00.71.5 4.33 4.33 0 001.86.15 11.48 11.48 0 003.62-1 .77.77 0 00.27-1 .78.78 0 00-1-.27 10.24 10.24 0 01-2.56.77h-.13c.16 0 0 0 0 0h-1.44l-.25-.06h-.1c-.01 0 .2.11.06 0s-.09-.1.08.06c-.06 0 0-.08.07.1a.72.72 0 01-.1.78s-.19.14-.09.08-.21 0-.08 0h.09c.15 0-.18 0 0 0h1.21l.73.14c.64.14 1.27.33 1.9.52l-.18-1.37c.16-.07-.13 0-.19 0s.12 0 0 0h-.29c-.18 0 .15 0 0 0a2.8 2.8 0 01-.28-.06 7.36 7.36 0 00-1.24-.25c-1.33-.09-1.85 1.24-2 2.33l1.26-.33a8 8 0 00-1-.91 5.33 5.33 0 01-.49-.46 1.11 1.11 0 01-.24-.37.77.77 0 00-.92-.52.76.76 0 00-.53.92zm17.89.69a1.73 1.73 0 001.36 1.06 1.45 1.45 0 001.1-.62c.1-.11.18-.24.28-.35s.13-.14.14-.13-.19.12-.08.07a.38.38 0 01-.26.07 1.17 1.17 0 01-.29-.08c.09 0-.16-.16-.05 0s-.07-.16 0 0a1.09 1.09 0 00.08.15c.07.12 0-.15 0 0s.05.14.07.21.11.41.16.61a.76.76 0 001.45 0 6.21 6.21 0 01.14-.62 2.41 2.41 0 01.08-.25c.05-.14 0 0 0-.1l.1-.17c.06-.11-.05 0 0 0s.16-.12.06-.06-.12.05 0 0-.16.06 0 0 .1 0 .13 0c-.19 0-.09 0 0 0a4.11 4.11 0 01.56.19 5 5 0 001.26.4 2 2 0 001.63-.5.75.75 0 00-1.06-1.06c-.14.11.09-.06 0 0s-.14.06 0 0h-.15c-.13 0 .13 0 0 0a.38.38 0 00-.15 0c-.15 0 .13 0 0 0l-.31-.08c-.42-.14-.81-.36-1.24-.47a1.69 1.69 0 00-1.59.3 3.24 3.24 0 00-.86 1.9h1.45a2.76 2.76 0 00-.88-1.78 1.07 1.07 0 00-1.35.27c-.1.11-.18.23-.28.34l-.14.18c-.06 0-.26.21 0 0a.31.31 0 01-.1.05c.22-.1.15-.06.08 0h.32c-.15-.08.06.11 0 0a.38.38 0 00-.09-.09c0-.06 0 0 0 0l-.06-.09-.13-.23c-.46-.85-1.75-.1-1.3.76zm12.59-.75c1.11 1.91 3.27 1.14 4.25-.46l-1.37-.18c.27.87.7 2.36 1.86 2.35.85 0 1.41-.89 1.94-1.43a3.12 3.12 0 011-.77c.52-.2 1.12-.09 1.65-.26a1.75 1.75 0 00.83-.53c.15-.18.44-.52.05-.4s.12.25.32.26a2 2 0 001.39-.64 2.29 2.29 0 00.38-.59l.19-.42c-.08 0 .14 0 0 0l-.28.17c-.13.1-.18-.09 0 .07s.71.54 1 .83c.72.64 1.78-.42 1.06-1.06s-1.95-1.92-2.88-1a1.61 1.61 0 00-.27.36c-.06.13-.17.4-.16.38-.17.34-.24.4-.66.48l.58.07a1.26 1.26 0 00-1.56 0c-.2.18-.2.49-.35.65s-.52.13-.7.14a3.67 3.67 0 00-2.3.93c-.45.39-.9 1-1.3 1.34-.06 0-.08 0 0 0a1.18 1.18 0 00.21 0c.07 0 0 .11 0 0a2.38 2.38 0 00-.24-.43 8.75 8.75 0 01-.3-.86.76.76 0 00-1.37-.18c-.38.62-1.17 1.32-1.67.47a.75.75 0 00-1.29.75z" fill="#dbd7c6"/><path d="M315.32 116.9a14.71 14.71 0 00-.12-2.1.79.79 0 00-.22-.53.75.75 0 00-.53-.22.75.75 0 00-.75.75 14.71 14.71 0 01.12 2.1.75.75 0 101.5 0z" fill="#dbd7c6"/><path d="M314.26 114a1.6 1.6 0 00-.3.13l-.13.07a2 2 0 00-.35.31 1.6 1.6 0 00-.26.38 1.57 1.57 0 00-.16.46.51.51 0 000 .3.49.49 0 00.09.28.63.63 0 00.19.21.6.6 0 00.25.13h.2a.73.73 0 00.38-.11l.15-.11a.82.82 0 00.2-.33.84.84 0 01.07-.26l-.08.18a1.59 1.59 0 01.13-.22l-.11.15a.86.86 0 01.19-.19l-.15.11a1 1 0 01.22-.13l-.18.08h.06a.53.53 0 00.26-.13.55.55 0 00.19-.21.71.71 0 00.09-.28.51.51 0 000-.3.76.76 0 00-.34-.45.74.74 0 00-.58-.07zm5.44-4.24c.75.16 1.68.27 2.17-.46a2.5 2.5 0 00.24-1.3v.04c0-.02.08-.21 0-.06s-.16.19-.05.08l.06-.06-.91.12a2.86 2.86 0 001.34.36 1.14 1.14 0 00.94-.49 1.23 1.23 0 00.1-1 .75.75 0 10-1.44.4v-.04a.13.13 0 010 .06v-.12c0 .14.09-.17 0-.08s.14-.16.06-.09l.11-.08h.12-.08c.2-.07.18 0 .08 0h-.32l-.2-.08c.28.1.06 0 0 0a.77.77 0 00-.91.12 1.76 1.76 0 00-.51 1.39 1.93 1.93 0 000 .24v-.07.11c0 .03 0 0 0 0s.11-.21.05-.12c0 .06.14-.17.07-.1s.18-.11.06 0 .21-.07 0 0h-.33l-.34-.07a.75.75 0 10-.4 1.45zm26.64-24.63a1.88 1.88 0 001.17.11 1.3 1.3 0 00.81-.85 6 6 0 00.09-1.7l-1.13.64a2.59 2.59 0 001.38.59 1.11 1.11 0 001.07-.84 8.66 8.66 0 00.06-2.16.76.76 0 00-.75-.75.77.77 0 00-.75.75v1.45a1.34 1.34 0 010 .2v.15c0 .14.06-.13 0-.08s0 0 0 .06c.06-.15.13-.16.07-.1.18-.17.15-.11.09-.07s.22-.08.1 0 .25 0 .11 0-.07-.06.1 0h-.17c-.11 0 .19.09 0 0A4 4 0 01348 82a.74.74 0 00-.76 0 .78.78 0 00-.37.65v1.04a.61.61 0 000 .14c0 .14 0-.21 0 0v.12c0 .15.08-.17 0 0s.13-.13 0 0 .17-.12.09-.07-.11.06 0 0h.11-.19l-.24-.08a.76.76 0 00-.92.52.78.78 0 00.52.93zm-17.7 15.54a5.17 5.17 0 00.94.39 1.61 1.61 0 00.44.06 1 1 0 00.55-.13 1.07 1.07 0 00.54-.69 2.73 2.73 0 00.07-.7v-.84a.79.79 0 00-.22-.53.75.75 0 00-.53-.22.77.77 0 00-.53.22.75.75 0 00-.22.53v.69a4.35 4.35 0 010 .51v-.19a.67.67 0 01-.05.19l.08-.18a.2.2 0 01-.06.09l.12-.15v.06l.15-.12h-.06l.18-.08h-.1.2-.17.2a1.7 1.7 0 01-.54-.17l.18.08-.38-.17a.81.81 0 00-.57-.08.72.72 0 00-.45.35.76.76 0 00-.08.57.72.72 0 00.35.45zM309.75 68.8c0-.32-.05-.64-.07-1a3.47 3.47 0 010-.72v.2a.9.9 0 01.07-.27l-.08.18a.57.57 0 01.08-.13l-.12.15a.3.3 0 01.08-.08l-.15.12a.41.41 0 01.11-.07l-.18.08a.61.61 0 01.18 0h-.2a1.61 1.61 0 01.38 0h-.2a5.14 5.14 0 011 .28.78.78 0 00.58-.08.75.75 0 00.35-.45.76.76 0 00-.08-.57.79.79 0 00-.45-.35 5.77 5.77 0 00-1.24-.31 1.64 1.64 0 00-1 .17 1.76 1.76 0 00-.67 1.7c0 .38.05.76.08 1.14a.87.87 0 00.22.53.77.77 0 00.53.22.73.73 0 00.53-.22.71.71 0 00.22-.53zm5.94-5.42a.43.43 0 000-.11c0-.16 0 0 0 0a1 1 0 010-.18V63v.09s.06-.2 0 0l-.08.1c.07-.07-.11.08-.1.07s-.17 0-.07 0h.46a4.24 4.24 0 00.71-.05 1.66 1.66 0 00.74-.3 2.4 2.4 0 00.51-1c0-.09.06-.18.1-.27s0-.07 0-.11c-.09.25 0 .09 0 0s.07-.11.1-.16-.15.17-.05.07c.06-.08-.08.06-.09.07l.08-.06c.14-.09-.14.05-.05 0a2 2 0 01.26-.06c.06 0 .27 0 0 0h.7a.75.75 0 000-1.5 3.06 3.06 0 00-2 .55 5.35 5.35 0 00-.82 1.72l.35-.44-.09.05c-.1.06.16-.05.05 0h-.41a5.15 5.15 0 00-.88 0 1.26 1.26 0 00-.85.6 2.07 2.07 0 00-.08 1.41.75.75 0 00.92.53.77.77 0 00.52-.93zm-20.36 14.98h-1.81a.78.78 0 00-.73.55 3.31 3.31 0 00-.09 1c0 .28.05.56.05.84a1.21 1.21 0 010 .19v-.09.17c0 .14.07-.13 0-.08l-.05.08c-.07.13.1-.1.06-.06l-.07.06c-.1.11.11-.07.06 0l-.18.11s.2-.08 0 0h-.26s-.27 0 0 0a.85.85 0 00-.53.22.77.77 0 00-.22.53c0 .37.33.81.75.75a2.4 2.4 0 001.45-.56 1.71 1.71 0 00.48-1.14 5.18 5.18 0 000-.88 3.54 3.54 0 010-.46c0-.08.05-.38 0-.08a2.21 2.21 0 01.05-.25l-.72.55h1.81a.76.76 0 00.75-.75.77.77 0 00-.75-.75zM279.12 85a2 2 0 00-1-2 .77.77 0 00-1.11.45c-.19.53-.34.76-.89.61s-1-.39-1.51-.49a1.85 1.85 0 00-1.75.41c-.54.53-1.24.18-1.91 0a3.48 3.48 0 00-1.16 0c-.3 0-.89.27-1.18.15s-.38-.35-.55-.48a3.27 3.27 0 00-.65-.45 1.62 1.62 0 00-1.55-.11 1.79 1.79 0 00-.74 1.61c0 1 1.47 1 1.5 0a2.45 2.45 0 010-.27c.06-.15.05-.16 0-.06a.25.25 0 01-.16.06h.07c.09.11.43.23.55.33a4.78 4.78 0 00.82.68 2.4 2.4 0 001.3.14 6.09 6.09 0 011.34-.18c.47 0 .93.22 1.4.27a2.31 2.31 0 002.21-1l-.45.35c.79-.27 1.66.41 2.45.51 1.22.17 1.91-.69 2.3-1.74l-1.1.45a.59.59 0 01.27.66c-.1 1 1.4 1 1.5 0zM241 83.93a4.08 4.08 0 01-1.9-.82.75.75 0 00-1.28.53.61.61 0 010 .19c.09-.18 0-.08 0 0s.06-.08 0 0v.07l.05-.06-.11.11c-.12.14.11-.06 0 0s-.16.1-.25.14.12 0 0 0l-.16.06-.33.1-.62.15a2.55 2.55 0 00-1.24.61 1.49 1.49 0 00-.12 1.74.76.76 0 001 .27.78.78 0 00.27-1c-.06-.12 0 .17 0 0a.66.66 0 000-.15c.08.08 0 .19 0 0v.08c0-.13-.1.2 0 0s-.15.17 0 0-.09 0 0 0h.09c.1-.06.15 0 0 0h.13l.27-.08c.2-.06.41-.1.61-.15a3.69 3.69 0 001.29-.54 1.89 1.89 0 00.8-1.57l-1.28.53a5.69 5.69 0 003 1.26.75.75 0 00.75-.75.76.76 0 00-.75-.75z" fill="#dbd7c6"/><path d="M240.51 85.67h.33-.2a1.91 1.91 0 01.47.12l-.18-.07a1.76 1.76 0 01.42.24l-.15-.12.16.15a.77.77 0 00.53.22.73.73 0 00.53-.22.75.75 0 000-1.06 2.69 2.69 0 00-.95-.6 1.64 1.64 0 00-.38-.1 2.78 2.78 0 00-.58 0 .79.79 0 00-.53.22.75.75 0 00-.22.53.73.73 0 00.22.53.75.75 0 00.53.22zm-38.08-4.34a22.08 22.08 0 01-.06-2.3.77.77 0 00-.75-.75 11.49 11.49 0 00-1.18.1 3.82 3.82 0 01-.58 0 .87.87 0 01-.4-.07.88.88 0 01-.32-.28c0-.06-.1-.17-.16-.25s-.21-.19-.3-.3a1.25 1.25 0 01-.25-1 4.61 4.61 0 01.07-.5c.05-.27.09-.55.13-.82a.87.87 0 00-.83-1 2.84 2.84 0 00-1.67.77 2.15 2.15 0 00-.61.73.89.89 0 00.58 1.22.76.76 0 00.92-.52.77.77 0 00-.53-.93.73.73 0 01.43.77c0-.09-.1.2 0 .06s.08-.08.11-.11l.11-.1.08-.07s-.11.08 0 0 .2-.14.3-.21l.3-.16s-.15 0 0 0a.79.79 0 01.13 0h-.08a.85.85 0 01-.53-.31l-.1-.26a4.77 4.77 0 01-.09.52 3.68 3.68 0 00.23 2.53 4.1 4.1 0 00.45.58c.16.16.28.36.43.53a2.31 2.31 0 001.06.61 9.65 9.65 0 002.4 0l-.75-.75a22.08 22.08 0 00.06 2.3.75.75 0 001.5 0zm-17.54-17.49a2.08 2.08 0 01-.92-.34 4.23 4.23 0 01-.82-.67c-.58-.56-1.1-1.19-1.73-1.7l-.33 1.26a3.68 3.68 0 001.8-.83 1.16 1.16 0 00.44-.9 1.14 1.14 0 00-.85-1 2.34 2.34 0 00-.69-.09 1.56 1.56 0 01-.43-.09.75.75 0 01-.19-.09l-.21-.12-.48-.32a4.34 4.34 0 00-2.25-1c-.54 0-.78.5-.72.95a1.51 1.51 0 00.8 1.1c.84.47 1.6-.83.75-1.29-.11-.06-.08 0-.11-.21l-.72 1h.1l.22.06a1.4 1.4 0 01.27.14 7.89 7.89 0 01.77.51 4.49 4.49 0 001.76.88 5.27 5.27 0 00.57 0c.05 0 .05 0 0 0h.11c.09 0-.06-.06 0 0a.63.63 0 01-.23-.43s.08-.3 0-.22c.08-.2.06 0 0 0 .08-.06.08-.06 0 0l-.3.17-.15.07c-.16.08.08 0-.07 0a2.68 2.68 0 01-.63.18.76.76 0 00-.33 1.26c1.46 1.17 2.47 3 4.53 3.14a.75.75 0 000-1.5zm-43.41 8.56a19.51 19.51 0 00-.16 2.41 1.58 1.58 0 00.58 1.39 1.27 1.27 0 001.14 0c.14 0 .28-.11.43-.15l.26-.07h.45c.09 0 .31.06 0 0h.18l.21.06c.08 0 .32.15.06 0a4.09 4.09 0 01.46.25.75.75 0 00.75-1.3 3.41 3.41 0 00-1.75-.55 3.67 3.67 0 00-1.23.23l-.39.14h-.1s.26.06.14 0 .23.12.12.05c.21.12.17.14.11.07l.07.08s.06.19.06.13a.36.36 0 010-.1.13.13 0 010-.06v-.03a15.59 15.59 0 01.13-2.55.75.75 0 00-1.5 0zm17.64 17.13a14.79 14.79 0 01.63 3.49.76.76 0 001.28.53c.56-.46 1.26.64 1.58 1a3.6 3.6 0 002 1.3c1.95.43 2.47 3.21 2.65 4.88a.76.76 0 001.13.65l1.69-.76a.75.75 0 00.15-1.18A1.52 1.52 0 00169 99l.2 1.48a3.3 3.3 0 013.67 4.16.76.76 0 00.53.92l2.56.75a.75.75 0 00.39-1.44l-2.55-.75.52.92a4.83 4.83 0 00-5.52-6c-.82.15-.64 1.58.2 1.47h.17l.16-1.18-1.7.76 1.13.64c-.24-2.26-1-5.62-3.58-6.29a2 2 0 01-1.19-.59c-.38-.38-.71-.82-1.11-1.19a2 2 0 00-2.92-.16l1.28.53a16.87 16.87 0 00-.68-3.88c-.28-.93-1.73-.53-1.45.39zm21.31 20.25v2.81a.76.76 0 001.13.65 3 3 0 01.52-.19l.3-.07h.15a5.23 5.23 0 01.56 0c.09 0 .1 0 0 0h.13l.26.07s.29.11.13 0l.23.11.17.11.1.07c.06.07.13.12.19.19l.09.1a2.78 2.78 0 01.28.47c0 .08 0 .08 0 0a.78.78 0 01.05.14 2.46 2.46 0 01.09.29c0 .1 0 .2.06.3s0 .1 0 0v.16a2.8 2.8 0 00.15 1.29 1.15 1.15 0 001.3.42c.16 0 .3-.1.45-.15l.22-.07c.06 0 .28 0 0 0a.75.75 0 000-1.5 3.66 3.66 0 00-.79.2 1.78 1.78 0 00-.33.09h-.02a.58.58 0 01.23.08c.16.1.15.23.25.35s0 .06 0 0v-.11a2.35 2.35 0 000-.26 4.89 4.89 0 000-.54 4.21 4.21 0 00-.24-1 3.51 3.51 0 00-3-2.32 4.64 4.64 0 00-2.39.49l1.13.65v-2.81a.75.75 0 00-1.5 0z" fill="#dbd7c6"/><path fill="#dbd7c6" stroke="#dbd7c6" stroke-linecap="round" stroke-linejoin="round" d="M128.4 163.1h236.53l.64 35.14h-236.6l-.57-35.14z"/><path d="M402.52 122c-1.42.13-1.87.87-2.79 1.8-.43.43-1.06.71-1.54 1.12s-1.05 1-1.57 1.5-1.28.93-1.86 1.43a2.8 2.8 0 00-.34.45 1.61 1.61 0 01-.57.48c-.39.26-.69.38-.92.81s-.22.6-.59.87-.56.27-.81.43c-.54.33-.85.88-1.36 1.26a15.15 15.15 0 00-1.38 1 9.5 9.5 0 01-.92 1 5.94 5.94 0 00-1.17.91 3.47 3.47 0 01-1.26 1.15 3 3 0 00-1.16.76c-.39.47-.36.87-.86 1.21a1.81 1.81 0 00-.88 1.1.76.76 0 001.26.73l1.89-1.83-1.18-.91c-.63 1.17-2 1.48-2.82 2.42a1.8 1.8 0 01-.67.54 1.92 1.92 0 00-.55.33c-.44.36-.76.89-1.2 1.28-1.81 1.56-4 2.49-4.93 4.85-.35.91 1.1 1.3 1.44.4a6.8 6.8 0 012.75-2.85 22.65 22.65 0 002.75-2.32 7.59 7.59 0 011.19-.73c.32-.23.42-.65.59-.82a11.43 11.43 0 011.48-.9 4.19 4.19 0 001.26-1.47.75.75 0 00-1.17-.9l-1.9 1.83 1.26.73c.08-.31.77-.56 1-.82a2 2 0 00.28-.43c.3-.63.24-.61.88-.9 1-.45 1.41-1.61 2.4-2 .53-.22.56-.18.88-.69a4.45 4.45 0 011.38-1.24 10.6 10.6 0 001.2-1 6.17 6.17 0 011.23-.83 2.54 2.54 0 00.95-.92c.26-.5.1-.46.46-.7.72-.46 1.12-1 1.79-1.5 1-.76 1.85-1.76 2.82-2.58.45-.38 1.08-.59 1.48-1 .65-.63.7-1.4 1.79-1.5s1-1.59 0-1.5zm-111.44 41.22l-.39-.48c-.48-.58-1.49 0-1.26.73l.15.44 1.26-.73a6 6 0 00-1.61-1.21.75.75 0 00-1.1.44c-.14.65-1.18.12-1.55 0a10.59 10.59 0 00-2.52-.07c-1.9 0-3.81-.14-5.71-.22a25.83 25.83 0 00-5.83 0c-1.11.23-2-.29-3.15.16-1.49.61-3.06-.54-4.66-.18a3 3 0 01-1.36.16c-.34-.1-.63-.37-1-.47a3.78 3.78 0 00-1.8 0 12.84 12.84 0 01-2.37.51c-.81 0-1.62-.32-2.42-.4a9.18 9.18 0 00-2.11.3c-.74.09-1.34-.23-2.1 0a.75.75 0 00.4 1.45c.73-.22 1.49.2 2.25 0a5.94 5.94 0 013 0 5.5 5.5 0 002.32-.06 5 5 0 012.47-.39 4.28 4.28 0 002.07.53 7.15 7.15 0 012.57-.13 7 7 0 002.47.38 3.89 3.89 0 00.74-.21.82.82 0 01.85-.25l.4.1a5.28 5.28 0 001.9-.06 20.17 20.17 0 013 0c2.06 0 4.12.17 6.18.24h3.08a15.35 15.35 0 012.05.31 1.81 1.81 0 002.29-1.36l-1.1.45a4.94 4.94 0 011.3 1 .75.75 0 001.25-.73l-.15-.44-1.25.73.39.48c.62.74 1.67-.32 1.06-1.06z" fill="#dbd7c6"/><path d="M251.77 162.08a11 11 0 01-4.88-.49.79.79 0 00-.76 0c-1 .78-2.23.56-3.46.6a29.09 29.09 0 01-4.07-.12 1.92 1.92 0 00-.92.1c-.24.11-.45.41-.69.49-.64.2-1.54-.71-2.34-.6-.42.06-.77.32-1.19.36a4.85 4.85 0 01-1.59-.29 4.26 4.26 0 00-2.37-.14c-.12 0-.75.45-.48.41s-.18-.2-.31-.27a1.69 1.69 0 00-.41-.19c-.44-.07-.72.2-1.13.29a7.12 7.12 0 01-2.16-.08c-1-.1-1 1.4 0 1.5a6 6 0 003.47-.34h-.76c.52.25.95.78 1.58.67.34-.06.45-.29.7-.46a1.3 1.3 0 011-.06 10.66 10.66 0 002.42.46 6 6 0 001-.19 3.08 3.08 0 011.69.33 1.87 1.87 0 001.69-.16 1.65 1.65 0 011-.27c.61 0 1.2.13 1.81.13 1.26 0 2.51-.09 3.77-.08a3.81 3.81 0 002.45-.79h-.76a12.52 12.52 0 005.64.69.75.75 0 000-1.5z" fill="#dbd7c6"/><path d="M225.74 162c-.63-.05-2.3.44-2.66-.2a.77.77 0 00-1.3 0c-.39.68-1.95.37-2.64.51a17.23 17.23 0 01-1.76.39c-.66.05-1.09-.35-1.72-.4a10 10 0 00-1.43.27c-.63 0-1.3-.09-1.94-.11a25.86 25.86 0 00-4 .21l.65.37c-1.11-1.57-3.06-1.2-4.36 0-.72.64.34 1.7 1.06 1.06.5-.44 1.5-1 2-.26a.77.77 0 00.65.37 25.57 25.57 0 014.79-.18 9.85 9.85 0 001.31.13c.29 0 .54-.18.81-.22.57-.08 1 .23 1.58.29 1.27.13 2.47-.49 3.73-.5a2.66 2.66 0 002.6-1.13h-1.3c.85 1.5 2.58.83 4 .94 1 .07 1-1.43 0-1.5zm-120.21-25.56c.53-.14 1-.26 1.37.22a11.56 11.56 0 00.9 1.47c.12.11.34.13.43.24s0 .26.07.32a3.6 3.6 0 00.51 1 4 4 0 001.75 1.39 3.8 3.8 0 001 .27 2.35 2.35 0 00.53 0c-.16-.24-.21-.25-.13 0v.15a2.12 2.12 0 001.22 1.33 2.91 2.91 0 011.22.73c.51.61 1.15.65 1.79 1l-.37-.65a2.62 2.62 0 00.74 1.57c.21.24.81.67.74 1-.18.94 1.26 1.34 1.44.4a2.08 2.08 0 00-.48-1.79 4.43 4.43 0 01-.94-1.22 1.05 1.05 0 00-.73-.82 3.93 3.93 0 01-.93-.37c-.23-.18-.35-.47-.6-.65a3.56 3.56 0 00-.82-.43 2.2 2.2 0 01-.64-.3c-.23-.2-.2-.44-.32-.71-.38-.92-1.12-.65-1.89-.84a2.49 2.49 0 01-1.66-1.39 4.65 4.65 0 00-.33-.93 1.77 1.77 0 00-.94-.65l.45.34a8 8 0 00-1.29-1.9 2.71 2.71 0 00-2.56-.33.75.75 0 00.4 1.45z" fill="#dbd7c6"/><path d="M90.43 123.58c1-.1 1 .33 1.29 1.15a.77.77 0 00.72.55 1.06 1.06 0 011.13.92l.52-.92a.85.85 0 01-.47-.07.75.75 0 00-.58 1.37c.46.25 1 .42 1.44.64a2.45 2.45 0 01.78.42 3 3 0 01.21.48c.42.79 1.18.84 2 .91l-.53-.22c.27.22.39.55.68.75s.72.06 1.12.17l-.52-.53a3.12 3.12 0 001 1.45 2.36 2.36 0 011 1.33c.41 1.44 1.78 1.26 3 1.33l-.65-.37a7.32 7.32 0 001 1.87 2.71 2.71 0 00.79.63c.2.1.84.17.93.36l1.29-.75a5.17 5.17 0 00-1.42-1.82 3.88 3.88 0 00-.88-.51 3.77 3.77 0 01-.91-.32c-.41-.32-.61-.93-1-1.3a1.84 1.84 0 00-1.66-.47c-1 .15-.55 1.6.4 1.45.27 0 .53.5.66.68a3.41 3.41 0 00.92 1c.45.29 1 .26 1.46.57a3.7 3.7 0 011.14 1.46c.44.88 1.69.11 1.29-.75s-1.12-.62-1.7-1.05a4.46 4.46 0 01-1-1.82.76.76 0 00-.65-.37c-.32 0-1.11.15-1.38-.05s-.14-.41-.21-.62a2.56 2.56 0 00-.36-.67 8.43 8.43 0 00-1.11-1c-.4-.35-.49-1-1-1.15-.25-.1-.58.05-.79 0 .19.07-.19-.36-.28-.45a1.21 1.21 0 00-.79-.28c-.1 0-.38 0-.46-.08s-.15-.51-.3-.7a3.08 3.08 0 00-.77-.57c-.61-.35-1.31-.55-1.93-.88l-.58 1.37a2.72 2.72 0 001.27.06.75.75 0 00.52-.92 2.55 2.55 0 00-2.57-2l.73.55a4.55 4.55 0 00-.82-1.7 2.23 2.23 0 00-1.92-.55c-1 .1-1 1.6 0 1.5zm-.11 40.62a3.41 3.41 0 002.12 1.68c.64.25.57.21.85.7a2.53 2.53 0 00.77.95c.33.23.83.26 1.14.49s.48.94.75 1.29 1.69 1.22 1.85.73a.76.76 0 00.72 1c1 .09 1.34 1.6 1.8 2.28.57.84 1.45 1.08 2.1 1.8.89 1 1.92 1.54 2.88 2.44a19.27 19.27 0 003.76 3.11c.5.27.23-.07.32.52a1.43 1.43 0 00.37.88c.34.31.62.18 1 .22.58 0 .67.31 1 .83a3.31 3.31 0 001.85 1.75c1 .33 1.36 1.47 2.52 1.17a.75.75 0 00-.4-1.45c.12 0-.78-.89-.9-.95-.53-.24-1-.17-1.39-.63-.58-.67-.74-1.62-1.59-2.06-.23-.12-1-.4-1.24-.18.16-.15.13.68.26.17a1.65 1.65 0 00-.56-1.33c-.59-.48-1.32-.83-1.93-1.32s-1.25-1.07-1.85-1.63a10.51 10.51 0 00-1.61-1.52c-.31-.18-.61-.19-.89-.43a5.64 5.64 0 01-.54-.65 4.26 4.26 0 00-1.27-.92c-.81-.48-1.08-1.56-1.59-2.3a2.67 2.67 0 00-2.1-1.3l.73.95a1.26 1.26 0 00-.83-1.66c-.39-.15-.86-.08-1.18-.33s-.5-.91-.81-1.28a2.11 2.11 0 00-1-.67c-.79-.31-.57-.8-1-1.34-.75-.89-2.17-.53-2.74-1.72-.41-.87-1.7-.11-1.29.76zm123.41 35.28l.47.4a.76.76 0 001.06 0c.76-.61 2.24.09 3.13.05a13.3 13.3 0 011.9-.2 11.93 11.93 0 001.77.31 12.5 12.5 0 011.75-.24c.62 0 1.23.16 1.85.2a6.69 6.69 0 001.67-.13 4.76 4.76 0 011.79.19 3.22 3.22 0 001.2.07c.44-.07.79-.34 1.22-.27.84.14 1.39.72 2.31.71a4.4 4.4 0 002.11-.49c.84-.44 1.3-1.07 1.91 0l.85-1.1a48 48 0 00-5.85-.78c-1-.07-1 1.43 0 1.5a43.5 43.5 0 015.45.73.76.76 0 00.85-1.1 2.27 2.27 0 00-1.92-1.41c-.82 0-1.44.61-2.15.94-1.09.49-2 0-3-.36a2.14 2.14 0 00-1.29-.19c-.3.07-.5.3-.82.35a3.31 3.31 0 01-1.16-.18c-1.24-.28-2.34.11-3.59 0a13.12 13.12 0 00-2.25-.17 6.71 6.71 0 01-2 0 5.85 5.85 0 00-1.67-.1 7.84 7.84 0 01-2.37.05 3.21 3.21 0 00-2.77.55h1.06l-.47-.4c-.73-.63-1.8.42-1.06 1.06z" fill="#dbd7c6"/><path d="M238.71 200.31c1 .37 2.28.16 2.5-1a.78.78 0 00-.53-.92 2.07 2.07 0 00-1.94.29c-.55.4-.43 1.43.38 1.39 2.18-.1 4.53.7 6.52-.55h-.76c.12.05.2.41.29.52a1.19 1.19 0 00.57.42 1.79 1.79 0 001.23 0c.58-.21 1.42-1.14 2-.79l.38-1.39h-4a.76.76 0 00-.2 1.48 8.18 8.18 0 002.85.24 3.65 3.65 0 011.35.19 4.75 4.75 0 001.24.34 1.71 1.71 0 001.06-.28c.26-.17.39-.59.63-.68s.66.08.91.14a6 6 0 001 .16l-.2-1.48a7.31 7.31 0 01-2.38-.38 2.38 2.38 0 00-2.16.72c-.65.72.41 1.78 1.06 1.06.5-.54 1.22-.25 1.85-.09a4.36 4.36 0 002 .14c.86-.18.62-1.44-.2-1.47-.62 0-1.21-.31-1.84-.31a1.85 1.85 0 00-1 .25c-.25.15-.42.58-.63.68s-.77-.15-1.06-.25a4.32 4.32 0 00-1.24-.23 10.72 10.72 0 01-2.89-.17l-.2 1.47h4a.76.76 0 00.38-1.4 2.24 2.24 0 00-2.42.16 3.61 3.61 0 01-1 .53c-.17 0 0 .16-.08-.07a1.49 1.49 0 00-.32-.54 1 1 0 00-1.29-.12 3.9 3.9 0 01-1.78.4c-1.27 0-2.52-.22-3.79-.17l.38 1.4a.73.73 0 01.78-.14l-.52-.92c0 .19-.42 0-.65 0-.9-.35-1.29 1.1-.4 1.45z" fill="#dbd7c6"/><path d="M254.83 199.81c1 .07 2-.66 3-.32.78.26 1.33.77 2.22.56.51-.11.9-.33 1.43-.4a13.29 13.29 0 011.41-.05h3.83c2.26 0 4.63-.36 6.86-.13 1 .1 2 .12 3 .23s2.28-.65 3.35-.19c.88.37 1.65-.92.76-1.3a3.88 3.88 0 00-2.45-.22 5 5 0 01-1.84.13 9.19 9.19 0 00-1.39-.1c-.63 0-1.25-.15-1.86-.18a13 13 0 00-1.63.15c-1.27.11-2.56.13-3.84.12-2.37 0-5-.37-7.34.11a7.61 7.61 0 01-.95.33 4.52 4.52 0 01-.8-.38 2.5 2.5 0 00-1.05-.37c-1-.05-1.8.54-2.76.48s-1 1.43 0 1.5z" fill="#dbd7c6"/><path d="M264.28 199.82a4.41 4.41 0 00.81.13h.61a1.49 1.49 0 01.54.19 1.13 1.13 0 00.56.21 3.25 3.25 0 00.45-.07 6.86 6.86 0 001.33-.5h.07l.15-.06.33-.1h.16c-.09 0 0 0 0 0a2.55 2.55 0 01.39 0 .75.75 0 000-1.5 3.27 3.27 0 00-1.63.29l-.47.2-.14.06h-.08a2.06 2.06 0 01-.35.12l-.19.05h-.09l.53.22a2.92 2.92 0 00-1.41-.6l-.67-.07h-.21a1.83 1.83 0 01-.32-.07.75.75 0 00-.4 1.45zm124.77-22a2.83 2.83 0 002-2.35l-.35.45c.86-.47 1.67-.27 1.93-1.46l-.34.45a2.94 2.94 0 001.35-1.37c.2-.36.33-.75.73-.92s.78-.17 1.14-.31a4.07 4.07 0 001.76-1.21c.21-.27.39-.86.68-1s.81-.11 1.15-.3a5.37 5.37 0 001.35-1.38c.44-.51 1.11-.75 1.6-1.24 1-1 1.72-2.78 3.25-2.95a.78.78 0 00.72-.55c.11-.7.17-.7.87-.71a.78.78 0 00.72-.55c.15-.35.31-.72.74-.72a.75.75 0 000-1.5c-1.18 0-1.77.81-2.18 1.82l.72-.55c-1.31 0-2.1.46-2.32 1.81l.73-.55c-2.12.24-2.9 1.92-4.23 3.31a10.16 10.16 0 01-1.22.88 4.81 4.81 0 00-.86.94 1.54 1.54 0 01-1.16.72 2 2 0 00-1.14.66c-.35.41-.47.93-.9 1.28a3.57 3.57 0 01-1.56.64c-1 .22-1.39.79-1.89 1.66-.28.5-.59.58-1 .95-.11.11-.14.44-.23.51s-.36.07-.5.11a1.45 1.45 0 00-1 .63c-.33.58-.16 1.19-1 1.39a.75.75 0 00.4 1.45z" fill="#dbd7c6"/><path d="M408.59 161.29a3.11 3.11 0 001.74-1.32 5.38 5.38 0 00.38-.85l.15-.4s.07-.19 0-.11l.06-.13s.2-.31.11-.21l.11-.12.09-.06a.9.9 0 01.3-.11c.16 0 .34 0 .53-.07a1.46 1.46 0 00.94-.74c.08-.16.14-.34.21-.5s-.07.11 0-.1c0 0-.16.11 0 0l-.38.1c1.65-.06 3.76-1 4.27-2.75a.75.75 0 00-1.45-.39c-.25.83-1.44 1.37-2.28 1.57-.26.06-.47 0-.74.1a1.33 1.33 0 00-.71.59 2.71 2.71 0 00-.17.39 1.44 1.44 0 00-.07.18c-.05.1-.13.12 0 .08s-.19 0-.18 0a2.45 2.45 0 00-2.09 1.76c-.3.76-.41 1.32-1.25 1.59s-.53 1.75.4 1.45zm-227.11 29.82a9.64 9.64 0 001.46 1.25.49.49 0 00.28.09.51.51 0 00.3 0 .81.81 0 00.45-.34.74.74 0 00.07-.58l-.07-.18a.87.87 0 00-.27-.27l-.31-.23.16.12a8.74 8.74 0 01-1-.91.75.75 0 00-.53-.22.77.77 0 00-.53.22.75.75 0 00-.22.53.81.81 0 00.22.53zm17.63 8.37c2.49.26 4.94-.38 7.43-.46 1 0 1-1.53 0-1.5-2.49.08-4.94.72-7.43.46a.75.75 0 000 1.5zM91.47 163.14c-.11 0-.23-.39-.28-.48a3.07 3.07 0 00-.45-.62 1.35 1.35 0 00-.91-.37 1.39 1.39 0 00-.46.09c-.27.1-.52.09-.12.26.61.26-.09-.36-.32-.48a3.77 3.77 0 00-.72-.23c-.13 0-.47-.12-.49-.11-.18-.12-.13 0 .14.34a3.43 3.43 0 00.32-.41.76.76 0 00-.53-1.28h-1.94l.53 1.28c.46-.52.74-1.23.17-1.79a2.17 2.17 0 00-.71-.4 1.78 1.78 0 00-.29-.12c-.08 0-.18-.16-.12-.05l.07.57a1.86 1.86 0 00-.85-2.19c-.76-.46-1.78-.35-2.47-.95l.2.73a1.46 1.46 0 00-.62-1.81c-.43-.22-1.13-.18-1.48-.4.08 0 0-.06 0 .06a1.06 1.06 0 010-.19 2.71 2.71 0 00-.09-.41 2.38 2.38 0 00-.77-1.15c-.72-.63-1.79.42-1.06 1.06.5.43.33.85.65 1.41a1.68 1.68 0 00.82.67 3.34 3.34 0 00.68.21 2.57 2.57 0 00.47.08h.2c-.15-.16-.23-.15-.24 0a.75.75 0 00.19.73 4.38 4.38 0 002 .92c.42.09 1 .17 1 .68a1.15 1.15 0 00.71 1.25 2.31 2.31 0 00.56.24s.14.07.15.07c-.17.09 0-.6-.19-.35a.76.76 0 00.54 1.28h1.94l-.53-1.28c-.55.62-1.18 1.57-.36 2.25.47.4 1.15.28 1.64.62l-.34-.45a1 1 0 00.81.84 1.34 1.34 0 00.63-.05c.09 0 .22-.13.31-.13s-.12-.05-.07 0 .29.53.42.71a1.64 1.64 0 00.9.7c.93.3 1.32-1.15.4-1.44zm111.99-2.07a2 2 0 00.46.74 2.86 2.86 0 00.55.42 8.73 8.73 0 01.93.55l-.15-.12a1.66 1.66 0 01.27.26l-.11-.15a1.56 1.56 0 01.16.28l-.08-.18a1 1 0 01.06.16.75.75 0 101.44-.39 2.21 2.21 0 00-1-1.29 10.23 10.23 0 01-1-.59l.16.12a1 1 0 01-.25-.25l.11.16a1.23 1.23 0 01-.14-.25l.07.18v-.05a.78.78 0 00-.34-.44.74.74 0 00-.58-.08.78.78 0 00-.45.35.75.75 0 00-.07.57zm172.07-15.35a1 1 0 00-.93.17 1.29 1.29 0 00-.27.25l-.13.15q-.24.21.3 0l.45.34a1.89 1.89 0 00-1.4-1 1.24 1.24 0 00-1.06.74 5.64 5.64 0 00-.45 1.31c0 .11-.07.21-.09.32s-.1.08 0 0a1.75 1.75 0 01-.57.11 3.5 3.5 0 00-1.62.37 1.3 1.3 0 00-.59.89 1.77 1.77 0 01-.24.61c-.65 1-1.54 1.67-1.27 3l1.11-.85c-1.08-.47-2.46-.79-3.14.45a6 6 0 00-.41 1.14c-.07.18 0 0-.06.13a.53.53 0 01-.06.1c0 .07 0-.12 0 0s.05 0 .05 0h-.21a.75.75 0 00-.72.94l.1.54c.17 1 1.62.55 1.45-.4l-.1-.53-.73.95c1.06 0 1.54-.77 1.82-1.67l.08-.24c0-.05.09-.26 0-.12a2.12 2.12 0 01.11-.21c0-.07 0 0 0 0s.06-.08.08-.08-.09 0 0 0-.06 0 0 0h.16a3 3 0 01.78.24.76.76 0 001.1-.85c-.08-.38.26-.74.48-1a5.08 5.08 0 00.93-1.41 2.3 2.3 0 00.12-.45c.05-.38-.06 0 0 0a2.94 2.94 0 00.53-.09 3.17 3.17 0 001.71-.44 2.06 2.06 0 00.67-1.25c.05-.17.32-1 .33-1s-.38.12-.37.1-.12-.25 0 .07a1.08 1.08 0 00.77.56 1.11 1.11 0 00.85-.29 1.8 1.8 0 00.19-.2l.13-.15c.17-.15.06-.14-.32 0 .91.34 1.3-1.11.4-1.44z" fill="#dbd7c6"/><path d="M370.4 150.91a2.57 2.57 0 01.55-.12h-.2a5.12 5.12 0 01.56 0 .71.71 0 00.53-.22.75.75 0 00.22-.53.81.81 0 00-.22-.53.87.87 0 00-.53-.22 4.77 4.77 0 00-.66.05 2.88 2.88 0 00-.65.13.85.85 0 00-.45.34.71.71 0 00-.09.28.61.61 0 000 .3.77.77 0 00.34.45.78.78 0 00.58.08zm-4.29 5.27a3.82 3.82 0 011.39-2.12l-1.26-.73a11.62 11.62 0 01-.76 2.17l.45-.35a2.17 2.17 0 00-1.59 1.43 1.48 1.48 0 00.21 1.16 1.19 1.19 0 00.29.34q.11.12 0 0a.49.49 0 01.06-.57l-.12.07-.28.14a2.53 2.53 0 00-.58.38 1.16 1.16 0 000 1.7 2.22 2.22 0 00.94.45s.06.06.07 0a.2.2 0 01-.08-.08c0 .07 0 .06 0 0v-.08c0 .07-.1.27 0 .12a3.56 3.56 0 01-.27.51c-.42.76-.83 1.75 0 2.44s1.79-.43 1.06-1.06l-.08-.07c-.07 0 .07 0 0 0s0 0 0 .11 0-.17 0 0a1.8 1.8 0 01.06-.22v-.07l.11-.2c.07-.14.16-.28.23-.42a1.42 1.42 0 00-.44-2.31l-.35-.13c-.19-.05-.18-.07-.2.16s0 .26 0 .25.05 0 0 0 .13-.08.19-.11.3-.14.44-.23a1.21 1.21 0 00.7-1 1 1 0 00-.17-.59 3.73 3.73 0 00-.34-.38l.14-.14a1.06 1.06 0 01.34-.16 1.35 1.35 0 00.74-.81c.31-.67.42-1.4.68-2.08a.76.76 0 00-.34-.85.79.79 0 00-.91.12 5 5 0 00-1.77 2.78c-.23.94 1.21 1.34 1.44.4zm6.8-8.78v1.25a.81.81 0 00.22.53.76.76 0 001.07 0 .8.8 0 00.21-.53v-1.25a.8.8 0 00-.21-.53.76.76 0 00-1.07 0 .81.81 0 00-.22.53zm15.17 28.89a3.77 3.77 0 01-1.58.57c-.52.06-.64.72-.45 1.1s-1.34.75-1.73.9a2.56 2.56 0 00-1 .57c-.36.38-.29.88-.57 1.3-.53.77-1.59 1.09-2.31 1.65a3.42 3.42 0 00-1.35 2.5l1.47-.2-.27-1.36a.75.75 0 00-1.47.2c.11 1.86-2.13 2.37-3 3.71-.12.19-.65 1-.23.68a9.21 9.21 0 01-1 .38 1.32 1.32 0 00-.79 1.73l1.1-.85-.8-.41a.75.75 0 00-1.12.65c0 .34-.49 1.81-1 1.09a.76.76 0 00-1.37.18c-.15.66-1.2.95-1.67 1.39s-.71 2.15-1.75 1.87a.75.75 0 00-.4 1.44c1.46.41 2.37-.47 2.93-1.74s2-1.21 2.34-2.56l-1.38.18c1.38 2.16 3.81.15 3.75-1.85l-1.13.65.79.41c.53.27 1.35-.19 1.1-.85a3.26 3.26 0 001.53-.77c.2-.3.22-.66.46-1a4.63 4.63 0 01.88-.77c1.27-1 2.38-1.86 2.28-3.6l-1.47.2.27 1.36c.17.9 1.38.58 1.47-.2.14-1.21 1.26-1.6 2.16-2.19a4.31 4.31 0 001.17-1c.22-.3.39-1.07.49-1.18.51-.56 1.79-.54 2.43-1a1.65 1.65 0 00.51-2.3l-.45 1.1a4.6 4.6 0 001.93-.71c.82-.52.06-1.82-.75-1.3z" fill="#dbd7c6"/><path d="M372.12 192.35v-.37.2a4.54 4.54 0 01.29-1.08l-.07.18.1-.22a.77.77 0 00.07-.58.72.72 0 00-.34-.44.74.74 0 00-1 .27 5.31 5.31 0 00-.53 2 .75.75 0 101.5 0zm-91.25 7.74l2.47-.05a.81.81 0 00.73-.55 2.5 2.5 0 00.1-1.48l-.92.92c4.08 1.13 8.28.76 12.45.74a19.38 19.38 0 016.13.66c1.1.35 2.21 0 2.43-1.21a.77.77 0 00-.73-1l-.77-.09c-.9-.12-.91 1.19-.2 1.47 1.89.74 3.71.43 5.64 0a8.1 8.1 0 013.28-.26c.87.17 1.7.44 2.59.53a44.35 44.35 0 006.62-.21 15.45 15.45 0 013.33.11 7.28 7.28 0 001.29.29 4.09 4.09 0 001.29-.43 3.53 3.53 0 011.31-.42c.41 0 .9.39 1.32.48a8.23 8.23 0 002.8 0 12.13 12.13 0 013.43.39 8.85 8.85 0 002.86 0c5-.83 9.88.51 14.87.21.79 0 1.08-1.32.2-1.47l-2.22-.39-.2 1.48a67.36 67.36 0 007.52.06c1.15-.07 2.31-.19 3.46-.37.54-.08 3.08-.37 3.16-.75a.76.76 0 00.72 1 1.32 1.32 0 00.59-.11.76.76 0 00-.18-1.37 5.5 5.5 0 00-3.52.14l.75 1.3c.67-.42 1.57 0 2.31-.09a1.87 1.87 0 001.43-1c.56-1.25-.38-2.64-1.2-3.52-.67-.7-1.73.36-1.07 1.06a2.78 2.78 0 01.86 1.29c.07.74-.44.73-1 .7a3.11 3.11 0 00-2 .3.75.75 0 00.75 1.3 4.64 4.64 0 012.37 0l-.17-1.37c.33-.07.39-.1.16-.09l.72.95c.63-3-3.55-1.32-5-1.09a52.69 52.69 0 01-10.58.25c-.83 0-1 1.32-.2 1.47l2.22.39.2-1.48c-4.65.28-9.27-1-13.91-.38a12.53 12.53 0 01-3.86.21 15.69 15.69 0 00-2.58-.51c-1.23 0-2.36.48-3.6.1-.43-.13-.85-.54-1.31-.56a3.8 3.8 0 00-1.29.44 5 5 0 01-1.49.46 12.56 12.56 0 01-1.31-.25 17.09 17.09 0 00-2.95-.08 61.29 61.29 0 01-6.21.26c-2-.12-3.61-.84-5.61-.52s-4 1.06-6.11.23l-.2 1.48.77.09-.72-.95c-.07.45-1.44-.17-1.7-.21-.74-.12-1.48-.21-2.22-.26-1.67-.12-3.35-.09-5-.05-3.44.08-6.88.21-10.22-.72a.76.76 0 00-.92.93l-.11.68.72-.55-2.47.05a.75.75 0 000 1.5zm10.23-36.27a1.57 1.57 0 012 .14c.44.38 1.34.17 1.28-.53a13.75 13.75 0 011.41.55 2.68 2.68 0 001.34.17c1.2-.19 2.34-.76 3.58-.93a33.71 33.71 0 017.58.07l-.38-1.4a4.84 4.84 0 01-4.72.27l-.38 1.4h8.73a.75.75 0 00.64-1.13c-.12.36 0 .53.41.52s.55.16.83.22.85.17 1.27.23a20.25 20.25 0 002.8.18c2.07 0 4.12-.2 6.18-.18a11.32 11.32 0 004.14-.28c1-.35 2.81-1.43 3.59-.24l.27-1a2.35 2.35 0 01-2 0l-.2 1.47a26.11 26.11 0 007.89-.31c1-.18.55-1.62-.4-1.44a25.09 25.09 0 01-7.49.25c-.9-.1-.94 1.2-.2 1.47a3.82 3.82 0 003.14-.18.75.75 0 00.27-1c-1-1.45-2.39-1.45-3.92-.94a15.08 15.08 0 01-2.62.84 31.54 31.54 0 01-3.35-.12c-2.78.06-5.59.43-8.35-.05-.9-.16-2.23-1-3.1-.49a1.27 1.27 0 00-.46 1.83l.65-1.13h-8.73c-.71 0-1.08 1.07-.38 1.4a6.42 6.42 0 006.24-.27.76.76 0 00-.38-1.4c-3.21-.27-6.5-.51-9.65.31-.89.23-1.75.76-2.63.33a3.07 3.07 0 00-1.64-.55 1.49 1.49 0 00-1.49 1.55l1.28-.53a3.12 3.12 0 00-3.79-.38.75.75 0 00.76 1.3z" fill="#dbd7c6"/><path d="M337.7 163.47c.75-1 1.87.65 2.68.95a1.49 1.49 0 001.69-.42 3.12 3.12 0 00.62-1.07c.22-.18.21-.25 0-.21.07.06.13.13.19.19a4.94 4.94 0 00.43.59 1.23 1.23 0 001.22.67 3.33 3.33 0 001-.22c.59-.22 1.1-.7 1.76-.71a4.49 4.49 0 011.48.42c.6.21.9-.21 1.48-.25 1.19-.07 2.31.43 3.5 0 .9-.32.51-1.77-.4-1.45-1.5.53-3.17-.63-4.58.38h.76a4.39 4.39 0 00-3.22-.45c-.78.28-1.3.78-2.17.76l.53.22c-.61-.79-1.41-2.21-2.61-1.45-.58.36-.68 1-1.06 1.49-.11.16 0 .14-.26 0a10.62 10.62 0 00-1.93-1.25 2.16 2.16 0 00-2.41 1c-.58.77.72 1.52 1.3.76z" fill="#dbd7c6"/><path d="M354.58 162.7a2.84 2.84 0 01.19-.75c.07-.15.07-.08.1-.15s0-.07 0 0h.1c-.11 0-.13 0 0 0s-.13-.06.06 0-.12-.06.07 0 0 0 .08 0l.15.16c.09.1-.08-.12 0 .05s0-.15 0-.19c.07-.21.19-.22.34-.34.15.07-.14 0-.18-.05s-.22-.07-.33-.12c-.62-.26-1.47.32-1 1a2.13 2.13 0 002.44 1.05c.65-.15 1.45-.77 2.13-.55l-.45-.34a2.66 2.66 0 003.29 1 9.27 9.27 0 011.43-.41c.48 0 .68.09.94.6.44.86 1.73.1 1.29-.76a2.29 2.29 0 00-2.36-1.32c-.84.09-1.71.59-2.5.59a.78.78 0 01-.73-.39 1.16 1.16 0 00-.82-.52 2.36 2.36 0 00-.88 0 15.07 15.07 0 00-1.47.52c-.47.15-.73.16-1-.29l-1 1c.68.29 1.68.68 2.24 0a1.33 1.33 0 00-.31-1.72 1.86 1.86 0 00-1.74-.61 2.16 2.16 0 00-1.39 2 .77.77 0 00.52.92.75.75 0 00.92-.52zm-239.41 22.79a2 2 0 00.21 1.06.76.76 0 00.85.34l.77-.25-1-.73a2.39 2.39 0 002.28 2.38l-.65-.37a2 2 0 001.3 1.23 2 2 0 00.6 0c.28 0 .26 0 0-.07a2.79 2.79 0 00.18.47 2.32 2.32 0 00.88 1.43 1.19 1.19 0 001 .13c.14 0 .52-.32.62-.28s.19.3.24.43a3 3 0 00.46 1.08 4.16 4.16 0 001.37.93c.88.41 2 .71 2 1.87 0 1 1.46 1 1.5 0a2.78 2.78 0 00-1.66-2.67c-.45-.25-.94-.43-1.4-.67a2.4 2.4 0 01-.51-.31c-.07-.06-.23-.28-.17-.15s0-.07 0-.09a1.8 1.8 0 00-.1-.33 2.47 2.47 0 00-1-1.39 1.49 1.49 0 00-.85-.18 4.69 4.69 0 00-1 .34h.27a1.51 1.51 0 01-.09-.16c-.08-.22-.14-.46-.23-.69a1.8 1.8 0 00-1-1.18 1.22 1.22 0 00-.63-.06 2.06 2.06 0 00-.21 0c-.17-.07-.26-.54-.42-.69s-.71-.14-1-.38a1 1 0 01-.3-.72.75.75 0 00-1-.72l-.77.25.85.35a.44.44 0 010-.3c.06-.41-.38-.75-.75-.75a.78.78 0 00-.75.75z" fill="#dbd7c6"/><path d="M128.46 194.78a1.26 1.26 0 00-1.3.95 2.14 2.14 0 00.15 1.43.73.73 0 00.65.37l.85.06-.37-1.4-1.6.74a.75.75 0 00-.15 1.18 2.91 2.91 0 001.32.64 3 3 0 001.48-.07.76.76 0 00.53-.92.77.77 0 00-.92-.53 2 2 0 01-.41.1h.2a2.72 2.72 0 01-.57 0h.2a2.46 2.46 0 01-.59-.16l.18.07a2.68 2.68 0 01-.49-.28l.16.11-.16 1.18 1.6-.74a.68.68 0 00.31-.36.75.75 0 000-.49.78.78 0 00-.73-.55l-.8-.11.65.38.08.17a1.17 1.17 0 01-.09-.32v.19a1.37 1.37 0 010-.35v.2a.88.88 0 01.07-.23l-.08.18a.57.57 0 01.08-.13l-.12.15a.3.3 0 01.08-.08l-.16.12.1-.06-.18.08h.13-.2.16a.75.75 0 00.53-.22.73.73 0 00.22-.53.69.69 0 00-.27-.55.85.85 0 00-.53-.22z" fill="#dbd7c6"/><path d="M129.48 199.35a3 3 0 003-.57l-1.18-.15c.67 1.58 3 2.12 3.6.22l-1.25.33c1.92 1.59 5.51 2.13 6.34-.87a.75.75 0 00-.52-.92 4.07 4.07 0 00-3.94 1.05.75.75 0 00.33 1.25 15 15 0 003.48.13c1-.09 1.92-.45 2.89-.08a5.81 5.81 0 003.06.32c.49-.08.92-.34 1.41-.39a5.94 5.94 0 011.32.15 4.58 4.58 0 002.35-.14c.3-.11.81-.59 1.1-.58s.78.5 1 .68a2.19 2.19 0 001.76.51c.26-.06 1.55-1.22 1.42-1.29l.38-1.4-2.32.15v1.5c3.54-.28 6.82 2.46 10.37 1.36a.75.75 0 000-1.44l-2.17-.6V200a5.38 5.38 0 002-1.3.76.76 0 00-.15-1.17 3 3 0 00-2.16-.65c-.92.1-1.34.93-2 1.5s.18 1.52.9 1.18c1.72-.81 4-1.66 5.61-.15l.53-1.28-2.31.21a.75.75 0 00-.2 1.47 9.4 9.4 0 003.8.45c1-.07 1-1.57 0-1.5a8.5 8.5 0 01-3.4-.39l-.2 1.47 2.31-.21a.76.76 0 00.53-1.28c-2.13-2-5-1.21-7.42-.09l.91 1.18c.8-.7 1.27-1.42 2.34-.62l-.15-1.18a3.52 3.52 0 01-1.31.91.76.76 0 000 1.45l2.17.59v-1.44c-1.72.53-3.45-.1-5.1-.6a13.13 13.13 0 00-4.87-.82c-1 .08-1 1.57 0 1.5l2.32-.15a.76.76 0 00.38-1.4 1.4 1.4 0 00-1.65.11c-.25.2-.38.52-.62.72-.4.34-.48.25-.91 0a3.64 3.64 0 00-1.84-.91c-.45 0-.6.14-1 .37a2.77 2.77 0 01-1.67.46 20.8 20.8 0 00-2.23-.23c-1.11.09-2 .63-3.17.36-.52-.12-1-.5-1.48-.61a3.38 3.38 0 00-1.25.2 12.75 12.75 0 01-4.4.11l.33 1.26a2.53 2.53 0 012.48-.67l-.52-.92c-.5 1.77-2.8 1.08-3.84.21a.77.77 0 00-1.26.34c-.15.49-.77-.38-.86-.59-.21-.49-.85-.41-1.18-.15a1.52 1.52 0 01-1.55.18c-.91-.32-1.3 1.13-.4 1.45z" fill="#dbd7c6"/><path d="M213.07 197.58c-.24.24-1.29 1.08-1.55.44a.77.77 0 00-1.38-.18c-.77 1.14-2.22.33-3.31.21a3 3 0 00-1.3.06c-.63.22-.8.82-1.55.87a15.43 15.43 0 01-2.08-.32 24.43 24.43 0 00-2.84-.11c-1.73 0-3.45.18-5.17.28l.64.37a2.09 2.09 0 00-1.67-1.19c-.44-.06-2.49.57-2.6 0l-.92.92 5.22 1.52a.75.75 0 00.73-1.25 4.94 4.94 0 00-3.74-1.59 30.71 30.71 0 00-3.78.83 1.92 1.92 0 01-1.89-.48 1.72 1.72 0 00-1.42-.32c-.78.2-1.16 1-2 1a7.38 7.38 0 01-2.5-.75.73.73 0 00-.73.19c-1.15 1-1.33 0-2.49-.22a6.51 6.51 0 00-2.46.36c-2.31.5-4.5 1.05-6.8.19l-.2 1.47a11.85 11.85 0 005.28-.64.76.76 0 000-1.45 6 6 0 00-4.21-.08c-.55.18-.81 1.08-.18 1.37a10 10 0 006.71.64c.94-.23.54-1.67-.4-1.44a8.36 8.36 0 01-5.55-.5l-.18 1.37a4.72 4.72 0 013.41.09v-1.45a10.94 10.94 0 01-4.88.59c-.9-.08-.94 1.2-.2 1.48 2.62 1 5.18.32 7.81-.24a3 3 0 012 0 5.12 5.12 0 001.19.48 2.8 2.8 0 002.26-1l-.73.19c1.2.43 2.47 1.06 3.77.71.56-.15 1.1-.77 1.63-.71s.47.29.81.47a2.32 2.32 0 00.78.17c2.82.31 5.26-2.11 7.72.27l.68-1.2-5.22-1.52a.76.76 0 00-.92.93 1.64 1.64 0 001.43 1.3c.9.18 2.49-.7 3 .24a.71.71 0 00.65.37c2-.12 4.07-.32 6.12-.28a20.41 20.41 0 013.57.38 2.11 2.11 0 001.61-.19c.65-.37.7-.8 1.51-.71.61.07 1.19.29 1.8.37a2.8 2.8 0 002.94-1.31l-1.37-.18c.77 1.88 2.85 1.47 4.06.23.68-.69-.38-1.76-1.06-1.06zm-94.72-50.4a3.49 3.49 0 002.52.22l-.73-.2c-.17-.2-.12.27-.12.42a1.29 1.29 0 00.17.67c.32.52.78.29 1.2.57s.44 1.5.52 2c.12.83.46 1.49 1.39 1.53a4.06 4.06 0 001.15-.18 1.8 1.8 0 00.47-.12h.13c-.16-.2-.21-.2-.16 0l1.28-.53a9.5 9.5 0 00-2.38-2l-.57 1.37a7.64 7.64 0 012.94 1.7 14.65 14.65 0 011.12 1.11c.25.28.92.86 1 1.22s-.16.83-.15 1.19a1.51 1.51 0 00.4 1s.35.29.3.21a2.55 2.55 0 01.11.51 1.17 1.17 0 00.8.8l-.45-1.1a7 7 0 01-1.11 1.25.76.76 0 000 1.06 2 2 0 01.18 2.44c-.51.82.79 1.57 1.3.75a3.52 3.52 0 00-.42-4.25v1.06a8.06 8.06 0 001.35-1.56.76.76 0 00-.45-1.1c.23.32.3.34.21.09 0-.09 0-.18-.05-.26a2 2 0 00-.19-.5c-.1-.15-.43-.32-.48-.42s.06-.41.08-.53a2 2 0 000-1.2 6.52 6.52 0 00-.93-1.23 10.84 10.84 0 00-5.15-3.68.75.75 0 00-.57 1.37 8.28 8.28 0 012.06 1.81.76.76 0 001.29-.53c-.06-.87-.54-1.52-1.47-1.48a5.85 5.85 0 00-1 .21c-.11 0-.4 0-.49.1s-.16 0-.08 0c.14.2.17.21.1 0a5.28 5.28 0 00-.17-1.23 4.54 4.54 0 00-.25-1.09 2.19 2.19 0 00-2.08-1.39l.53.22c.14.13 0 .13.07-.12a2 2 0 000-.43 1.4 1.4 0 00-.36-.79.74.74 0 00-.73-.19 1.83 1.83 0 01-1.36-.07c-.87-.4-1.63.89-.76 1.3z" fill="#dbd7c6"/><path d="M130 164.21a2.88 2.88 0 013.22 0 .77.77 0 001-.27c.54-1.1 1.17-1.57 2.36-1.22.84.25 1.61.66 2.42 1l.4-1.45c-1.35-.2-3.17-1.49-4.42-.3s.75 2.46 2 2.19 2.45-.9 3.89-.74c1.17.13 2 1 3.1.52 2.36-1 5.08.31 7.57-.2a.75.75 0 00.52-.53c.15-.59 1.2-1.51 1.47-.51l.53-.93-1.26.19.4 1.45a3.36 3.36 0 012.79.14c.85.43 1.61-.86.75-1.3a4.84 4.84 0 00-3.94-.29.75.75 0 00.4 1.45l1.26-.19a.75.75 0 00.52-.92c-.67-2.47-3.85-1.59-4.36.51l.52-.52c-2.8.58-5.52-.92-8.21.5h.75a7.43 7.43 0 00-5.49-.61 7.52 7.52 0 00-1.47.51c-.64.31-.63.22.1.37s1.44.54 2.21.66a.75.75 0 00.4-1.45 10.36 10.36 0 00-3.65-1.18 3.24 3.24 0 00-2.83 2.11l1-.27a4.42 4.42 0 00-4.74 0c-.82.5-.07 1.8.76 1.3z" fill="#dbd7c6"/><path d="M156.81 163.73c1.38-.72 3.07-.11 4.52.1a6.45 6.45 0 003.88-.42c.8-.37.22-1.55-.58-1.37a5.85 5.85 0 01-2.82 0l.53.92c.09-.48 0-.48.39-.45s.64.34.89.49a6.08 6.08 0 001.74.84c1 .19 1.65-.75 2.6-.69.54 0 .95.39 1.52.38a4.31 4.31 0 001.23-.23 3.53 3.53 0 011.2-.33c.41 0 .78.47 1.14.66a4.24 4.24 0 002.41.35 13.5 13.5 0 005.49-2.25l-1.1-.45.36 2.1.92-.92-1.2-.23-.2 1.47 4.6-.46c.5 0 1-.62.64-1.13l-.66-.9-.65 1.13a8 8 0 014.16.77l.18-1.37-2.82.63.58 1.37c1.82-1.38 4 .26 6.05 0 .68-.07 4.25-1.1 4.51-.22l1.25-.73-.26-.63-1.1.45a4 4 0 002.81.8.78.78 0 00.72-.55c.21-.22.38-.2.51.08s.69.41 1 .27l1.06-.45c.78-.33.22-1.65-.58-1.38l-1.06.38.58 1.37a18.89 18.89 0 013.1-1.06l-.93-.92a1.71 1.71 0 01-.46.83c-.4.44-.17 1.33.53 1.28l1.55-.12-.53-1.28c-1.33 1.42-4.47.08-6.19.3-.94.12-1 1.62 0 1.5 2.31-.3 5.4 1.25 7.25-.74a.76.76 0 00-.53-1.28l-1.55.12.53 1.28a4.1 4.1 0 00.85-1.49.76.76 0 00-.92-.93 21.51 21.51 0 00-3.46 1.21c-.77.34-.22 1.65.58 1.37l1.06-.37-.58-1.37-1 .45 1 .27a1.76 1.76 0 00-3.24.28l.72-.55a2.82 2.82 0 01-2.06-.59.75.75 0 00-1.1.45 2 2 0 00.65 2.08.76.76 0 001.26-.73c-.64-2.13-3.53-1.29-5.1-1a6.54 6.54 0 01-3.26-.17 4.84 4.84 0 00-4.41.48.76.76 0 00.58 1.38l2.82-.64a.76.76 0 00.18-1.37 9.6 9.6 0 00-4.92-1c-.5 0-1 .63-.64 1.13l.66.9.65-1.13-4.6.46c-.77.08-1.09 1.3-.2 1.47l1.2.24a.77.77 0 00.93-.92l-.36-2.1a.76.76 0 00-1.11-.45c-1.63 1-4.55 2.89-6.52 1.83-.84-.45-1.17-.93-2.22-.75-.49.09-.95.31-1.44.42-.65.15-.91-.09-1.5-.23a2.89 2.89 0 00-1.43.08c-.43.12-.93.57-1.35.59s-1.37-.71-1.85-1c-1.37-.74-2.67-.55-3 1.15a.76.76 0 00.52.92 7.64 7.64 0 003.62 0l-.58-1.37c-2.69 1.26-5.67-1.1-8.4.32-.86.44-.1 1.74.76 1.29zm220.52-18.31v-3.28l-1.28.53c.57.52 1.29 1.27 2.12 1.27 1.14 0 1.33-1.29 1.34-2.16l-.1.37c.12-.21.41-.13.63-.1a2.28 2.28 0 00.9-.08 2.51 2.51 0 001.34-1.08 13 13 0 00.73-1.32c.06-.1.11-.2.18-.3l.11-.16c.08-.12 0 0 0 0a3 3 0 01.25-.25c-.13.1 0 0 0 0l.17-.09a.75.75 0 00.27-1 .76.76 0 00-1-.27 3.15 3.15 0 00-1.33 1.42c-.15.28-.28.56-.43.83s-.15.26-.23.38a.91.91 0 01-.11.16c0 .07 0 0 0 0l-.1.12-.14.12c-.06.06 0 0 0 0l-.1.07a.79.79 0 01-.22.06c-.11 0 .12 0 0 0h-.23a2.32 2.32 0 00-.87 0 1.55 1.55 0 00-1.25 1.11c0 .2 0 .47-.05.65a1.23 1.23 0 01-.05.21c0 .05 0 .08 0 0l.17-.1a.22.22 0 01.16 0c-.07 0-.21-.09-.07 0l-.2-.11a6.5 6.5 0 01-.88-.72.76.76 0 00-1.28.53v3.28a.75.75 0 001.5 0zm14.24-10.53c.09-1.3-.24-2.66.14-3.93l-.19.33c.09-.1 0 0 .05 0l.31-.07a2.78 2.78 0 00.68-.2 1.2 1.2 0 00.52-.45 1.51 1.51 0 00.14-.35.76.76 0 000-.3c-.06-.29 0-.06 0-.06l-.42.33h.1a.85.85 0 00.39 0 4.25 4.25 0 00.62-.12 2.47 2.47 0 00.88-.53 3.53 3.53 0 00.8-1.56c.07-.23.12-.47.2-.7l.06-.16c0 .1-.05.09 0 0a.64.64 0 00.08-.14c.07-.15-.08.13 0 0s.11 0 0 0c.18-.07-.11 0 0 0s.19 0 0 0h.22s.12 0 0 0h.1l.26.08a4.13 4.13 0 01.68.3c.86.44 1.62-.86.76-1.3-1.14-.58-2.8-1.09-3.5.38a12.11 12.11 0 00-.47 1.44c0 .06-.14.34-.06.17-.05.11-.12.22-.18.33s.09-.08 0 0l-.1.12c-.11.11 0 0 0 0l-.17.1c.14-.08-.05 0-.11 0h-.29a1.51 1.51 0 00-.56 0c-.71.19-.86.87-.77 1.5v-.4c0 .17 0 .12.16-.16-.07 0-.08 0 0 0h-.23a3.13 3.13 0 00-.53.12 1.43 1.43 0 00-1 1.28c-.21 1.26 0 2.52-.06 3.79a.75.75 0 101.5 0zm8.61 32.53a2.33 2.33 0 011.69.58c.38.34 1.16.27 1.26-.33a6.08 6.08 0 011.26-3.36 7.62 7.62 0 001.64-1.9 8.27 8.27 0 00.67-2c.07-.35 0-.41.28-.35s.72.2 1.09.27a4.19 4.19 0 003.19-.24c1.21-.84 1-2.55.86-3.82a.74.74 0 00-.92-.52.77.77 0 00-.53.92 4.48 4.48 0 010 1.75.66.66 0 01-.39.51c-1 .36-2.2-.25-3.23-.37a1.54 1.54 0 00-1.73 1.09 12.15 12.15 0 01-.58 2 6.88 6.88 0 01-1.46 1.65 7.23 7.23 0 00-1.6 4l1.25-.33a3.89 3.89 0 00-2.75-1c-1 0-1 1.54 0 1.5zM94 127.58a3.23 3.23 0 013.9 1.72c.34.62 1.47.38 1.4-.38a6.06 6.06 0 010-.85 3.41 3.41 0 00.06-.43.81.81 0 01-.22.12c-.14 0-.13 0 0 0a4.94 4.94 0 011.15 1.47 24.26 24.26 0 00.86 2.34 1.82 1.82 0 001.15.84 3.18 3.18 0 00.62 0c.53 0 0 .09.1-.38l1.1-.45a20.44 20.44 0 01-4.47-3.32l-.91 1.18c1.47.91 2.26 2.6 3.61 3.66a4.22 4.22 0 002.4 1h.36c.03 0-.14.11-.08-.11a2.22 2.22 0 00.1.41 6.3 6.3 0 00.19 1.07c.33.91 1.78.52 1.45-.39s-.06-1.74-.84-2.26c-.42-.28-.85-.16-1.32-.22a2.73 2.73 0 01-1.13-.46c-1.56-1.06-2.35-2.93-4-3.94a.75.75 0 00-.91 1.18 22.13 22.13 0 004.77 3.56c.38.2 1 .05 1.1-.45a1.18 1.18 0 00-.87-1.45c-.44-.12-1 .12-1.22-.33a10 10 0 01-.5-1.55 6.73 6.73 0 00-.73-1.41c-.46-.65-1.16-1.51-2-1.48-1.31 0-1.29 1.73-1.19 2.65l1.39-.38a4.72 4.72 0 00-5.58-2.4.75.75 0 00.39 1.44zm21.32 15.59a7.88 7.88 0 01.83-.24.9.9 0 00.16 0c.08 0-.18 0 0 0h.24c.07 0-.2-.06-.06 0h.1s-.2-.1-.08 0-.15-.13-.07-.05-.1-.19 0 0c0 0-.06-.2 0-.08s0 .06 0 .09v-.08a.34.34 0 000 .1 1.7 1.7 0 010 .22v.52c0 .44-.08.87-.09 1.31l1.4-.38a7.61 7.61 0 00-2.2-2.88 3.82 3.82 0 00-1.63-.76 3.31 3.31 0 00-2.07.34.76.76 0 00-.27 1 .77.77 0 001 .27h.08l.2-.07h.19s.23 0 0 0h.54a2.3 2.3 0 01.35.1c.19.06-.13-.07 0 0l.17.09a1.75 1.75 0 01.29.18l.11.07c-.07-.05.09.07.1.09a4.59 4.59 0 01.55.53l.27.32c-.07-.09 0 0 0 0l.12.17a8.62 8.62 0 01.75 1.32.76.76 0 00.85.35.77.77 0 00.55-.73c0-.48.07-1 .11-1.45a2.84 2.84 0 00-.08-1.16c-.45-1.26-1.92-.91-2.89-.59a.78.78 0 00-.52.93.76.76 0 00.92.52zm-24.41 20.91c1.07.45.73 1.44.73 2.37a2 2 0 001 1.77c1.18.54 2.44-.63 3.64-.05a3.81 3.81 0 011.11 1.08c.31.35.67.65.95 1a4.46 4.46 0 01.8 1.6 7.72 7.72 0 00.59 2.5c.92 1.47 3.22 1.76 4.76 2l-.53-.93-.61 2.1.53-.52c.08 0 .09 0 0 0-.11-.19-.2 0-.27.46a.77.77 0 00.73-.55 1.83 1.83 0 00-.16-1.32l-.84 1.1a1.91 1.91 0 011.7 1.54l1.37-.58a3.19 3.19 0 00-1.84-1.5c-.67-.26-1.63-.42-2.09-1s-1.87 0-1.29.76a4 4 0 002 1.38c.69.26 1.54.43 1.88 1.16s1.54.21 1.37-.58a3.34 3.34 0 00-2.74-2.59.76.76 0 00-.85 1.1v.17l.72-.55a1.14 1.14 0 00-1.17 1.48 1.57 1.57 0 001.82 1 .72.72 0 00.52-.52l.61-2.1a.76.76 0 00-.53-.92c-1.11-.2-3.36-.45-3.91-1.44a2.54 2.54 0 01-.19-.85 7.36 7.36 0 00-.3-1.54 6.06 6.06 0 00-1-1.81c-.27-.36-.58-.66-.88-1a8.49 8.49 0 00-1.14-1.18 3.35 3.35 0 00-2.31-.64c-.6.06-1.19.29-1.77.34-.21 0-.1.05-.16-.15a5.83 5.83 0 010-1.31 2.69 2.69 0 00-1.56-2.61c-.88-.37-1.64.92-.75 1.3z" fill="#dbd7c6"/><path d="M291.73 48.63c29.12 10.49 61 14.41 87.44 31.58 15.94 14.59 21.63 38 30.45 57.21 4.11 10 8.26 20 12.35 30.05M65.4 186.85C79 151.42 90 113.53 113.47 83.18c27.32-18.2 60-23.76 90.46-34.78" fill="none" stroke="#262521" stroke-linecap="round" stroke-linejoin="round" stroke-width="3"/><path d="M206.68 81.33c-3.86 8-20.39 32.63-23.36 42.83m106.54-42.83c3.85 8 19.09 33.34 22.9 40.13m44.95 39.26c3.85 8 8.61 32.94 12.42 39.73M139 157.1c-3.52 7.07-16 38.43-12.14 45.22" fill="none" stroke="#262521" stroke-linecap="round" stroke-linejoin="round" stroke-width=".75" stroke-dasharray="1 1"/></svg>