<svg xmlns="http://www.w3.org/2000/svg" width="500" height="550" viewBox="0 0 500 550"><path d="M132.6 437.61c-.17 14.33-.39 23.18-.65 24.29-1.82 7.64-1.09 17.65 3.64 18.53s42.22-7.43 57.87-4.15 163.78 5.46 167.06 3.27c.64-.43 1.23-16.47 1.75-41.94z" fill="#fff" stroke="#262521" stroke-linecap="round" stroke-linejoin="round" stroke-width="3"/><path d="M372.14 291.56q-.27 61.72-.62 123.46c-.81 9-2.68 16.41-3.55 25.44-1 10.07 1.34 17.05-1.5 25.64-.59 1.76-2 1.66-3.35 1.43-44.59-7.74-101.66-5.72-146.65-2.92-24.6.57-58.62-1.68-83 2.09-5.23.59-5.68.27-6.62-4.83-1.35-11.26 1.94-18.53.53-29.31-6.15-46.82-1.39-94.37-3.6-141.53-1.42 2.83-2.94 5.6-4.29 8.46-2.37 10.67-17.5 9.3-11.81 16.18 11.11 7.95 6.41 21.38 5.15 32.56-.25 3.15-1.35 6.27-.37 9.58.51 8.44-3.19 16.94-4.38 25.31-1.5 8-2.61 15.83-1.54 23.93a5.1 5.1 0 01-1.13 3.3c-5.71 6.28-7.75 14-9.19 22.06-.57 3.18-.61 3-3.74 2-12.38-3.52-26.09-4.38-38.6-1.18-1.39.34-2.11 0-2.41-1.47-2-7.76-2.18-16.67-8.49-22.43a6.62 6.62 0 01-1.33-3.22A144.41 144.41 0 0139 372.86c-1.91-63 2.6-126.93 26.19-186 13.61-35.43 24.56-73.32 48.07-103.67 27.32-18.2 60-23.76 90.46-34.78a3.16 3.16 0 012.72.43c5 5.55 11.46 8.41 18.56 9.67 19.19 2.43 41.29 5.55 58.65-4.88 2.85-1.27 4.2-6.53 7.87-5 29.12 10.49 61 14.41 87.44 31.58 15.94 14.59 21.63 38 30.45 57.21 27.81 67.48 58 137.39 51.05 212.08-1.19 18.65-.23 37.45-3.28 55.95-.49 4.66-5.21 7.1-5.56 11.78-1.22 5.28-2.08 10.65-2.91 16-.4 2.6-.41 2.83-3.08 2.33-12.48-2.66-25.26-5.49-37.8-1.58-8.34-.15-8.13-15.56-11.44-21.4-6.28-7.37-3.61-9-5.33-17.64-.9-9.7-4.68-20.27.79-29.26 2-3.53 1.86-7.05.51-10.66-4.9-11.28-7.4-23.41-10.45-35.29-1.07-4.3-1.31-8.49 1.61-12.34 1.51-7.23-10.43-8.68-10.93-15.93z" fill="#262521" stroke="#262521" stroke-linecap="round" stroke-linejoin="round" stroke-width="3"/><path d="M201.83 49.06s7.71 64.75 46.53 64.75 45.26-65 45.26-65" fill="none" stroke="#262521" stroke-linecap="round" stroke-linejoin="round" stroke-width="5" stroke-dasharray="1 3"/><path d="M247.54 113.89a1 1 0 010-2h1a1 1 0 011 1 1 1 0 01-1 1h-1zm-3-.12h-.09c-.34 0-.69-.07-1-.12a1 1 0 01.26-2l.95.11a1 1 0 01.91 1.08 1 1 0 01-1.03.93zm7-.18a1 1 0 01-.13-2l1-.14a1 1 0 01.32 2c-.34.06-.67.11-1 .15zm-10.9-.47a1 1 0 01-.24 0c-.34-.08-.67-.16-1-.26a1 1 0 11.54-1.92l.93.24a1 1 0 01-.23 2zm14.81-.29a1 1 0 01-.24-2l.93-.25a1 1 0 11.55 1.92l-1 .27a1 1 0 01-.26.06zm-18.61-.92a1 1 0 01-.37-.07l-1-.4a1 1 0 11.81-1.83l.89.37a1 1 0 01-.37 1.93zm22.41-.3a1 1 0 01-.93-.64 1 1 0 01.57-1.29l.9-.36a1 1 0 01.78 1.84l-1 .39a1.13 1.13 0 01-.34.06zm-26-1.43a1 1 0 01-.5-.13l-.88-.52a1 1 0 111-1.71c.27.17.55.33.83.49a1 1 0 01-.49 1.87zm29.62-.23a1 1 0 01-.47-1.88l.85-.47a1 1 0 111 1.73c-.3.18-.6.34-.9.5a1 1 0 01-.49.17zm-33-2a1 1 0 01-.6-.2l-.81-.62a1 1 0 01-.17-1.41 1 1 0 011.4-.16l.77.59a1 1 0 01.21 1.4 1 1 0 01-.77.45zm36.38-.13a1 1 0 01-.83-.43 1 1 0 01.26-1.39c.27-.18.53-.37.79-.56a1 1 0 111.18 1.62l-.84.59a1 1 0 01-.53.22zm-39.45-2.42a1 1 0 01-.68-.27l-.75-.7a1 1 0 011.39-1.44l.71.67a1 1 0 01.06 1.42 1 1 0 01-.7.37zm42.61 0a1 1 0 01-.65-1.76l.73-.64a1 1 0 011.34 1.49l-.77.67a1 1 0 01-.62.28zm2.9-2.73a1 1 0 01-.69-.28 1 1 0 010-1.41l.67-.71a1 1 0 011.41-.06 1 1 0 01.06 1.42c-.24.25-.47.5-.71.74a1 1 0 01-.71.34zM224 102.6a1 1 0 01-.74-.33c-.23-.25-.46-.5-.68-.76a1 1 0 011.51-1.31l.65.73a1 1 0 01-.07 1.42 1 1 0 01-.67.25zm51-2.87a1 1 0 01-.63-.23 1 1 0 01-.14-1.41l.62-.76a1 1 0 111.56 1.24l-.63.79a1 1 0 01-.78.37zm-53.54-.2a1 1 0 01-.79-.39l-.62-.81a1 1 0 011.61-1.2c.19.27.39.53.59.79a1 1 0 01-.18 1.4 1 1 0 01-.61.21zm56-3a1 1 0 01-.58-.18 1 1 0 01-.28-1.35l.56-.81a1 1 0 011.66 1.13l-.58.83a1 1 0 01-.82.4zm-58.29-.27a1 1 0 01-.83-.45c-.19-.28-.38-.56-.56-.84a1 1 0 111.68-1.09c.17.27.36.55.54.82a1 1 0 01-.28 1.39 1 1 0 01-.59.19zm60.48-3.07a1.13 1.13 0 01-.52-.14 1 1 0 01-.33-1.38l.51-.85a1 1 0 111.72 1l-.52.86a1 1 0 01-.9.53zm-62.65-.3a1 1 0 01-.87-.5l-.5-.87a1 1 0 011.73-1l.5.85a1 1 0 01-.36 1.37 1 1 0 01-.5.15zm64.61-3.15a1 1 0 01-.88-1.48l.46-.87a1 1 0 011.35-.43 1 1 0 01.42 1.35c-.15.3-.31.6-.47.9a1 1 0 01-.88.53zm-66.56-.35a1 1 0 01-.88-.54c-.16-.29-.31-.59-.47-.9a1 1 0 111.78-.9c.15.29.3.58.46.87a1 1 0 01-.89 1.47zm68.36-3.23a.9.9 0 01-.42-.1 1 1 0 01-.48-1.33l.42-.9a1 1 0 111.81.84l-.42.92a1 1 0 01-.91.57zm-70.14-.36a1 1 0 01-.9-.57c-.15-.31-.29-.62-.43-.92a1 1 0 111.82-.83c.13.3.27.6.41.89a1 1 0 01-.47 1.33 1 1 0 01-.43.1zM285 82.5a.84.84 0 01-.38-.08 1 1 0 01-.54-1.31l.38-.91a1 1 0 111.85.75l-.38.94a1 1 0 01-.93.61zm-73.4-.35a1 1 0 01-.92-.61l-.39-.93a1 1 0 011.84-.76l.39.91a1 1 0 01-.53 1.31 1.09 1.09 0 01-.35.08zm74.87-3.37a.91.91 0 01-.35-.07 1 1 0 01-.58-1.28l.34-.93a1 1 0 111.88.67c-.11.32-.23.64-.35 1a1 1 0 01-.9.61zm-76.37-.34a1 1 0 01-.94-.64l-.35-1a1 1 0 01.58-1.28 1 1 0 011.29.58l.35.93a1 1 0 01-.57 1.29.92.92 0 01-.32.12zM287.84 75a1.12 1.12 0 01-.31 0 1 1 0 01-.64-1.27c.11-.31.21-.63.31-.94a1 1 0 111.91.61c-.11.32-.21.64-.32 1a1 1 0 01-.95.6zm-79.08-.32a1 1 0 01-.95-.67l-.33-1a1 1 0 111.9-.64l.32.94a1 1 0 01-.61 1.27 1 1 0 01-.33.1zM289 71.17a1 1 0 01-.29 0 1 1 0 01-.67-1.24l.27-1a1 1 0 011.93.54l-.28 1a1 1 0 01-.96.7zm-81.55-.29a1 1 0 01-1-.7l-.31-1a1 1 0 01.66-1.25 1 1 0 011.25.65l.3.95a1 1 0 01-.65 1.26 1 1 0 01-.21.09zm82.62-3.57a1.15 1.15 0 01-.26 0 1 1 0 01-.71-1.22l.24-1a1 1 0 111.94.48c-.08.33-.16.65-.25 1a1 1 0 01-.92.74zM206.33 67a1 1 0 01-1-.72l-.28-1a1 1 0 111.92-.54l.28 1a1 1 0 01-.65 1.26.84.84 0 01-.27 0zm84.73-3.63a.9.9 0 01-.23 0 1 1 0 01-.75-1.2l.22-1a1 1 0 011.95.43l-.22 1a1 1 0 01-.97.81zm-85.8-.23a1 1 0 01-1-.75l-.25-1A1 1 0 11206 61l.25 1a1 1 0 01-.71 1.22.78.78 0 01-.28-.04zm86.63-3.69a.62.62 0 01-.19 0 1 1 0 01-.79-1.17l.19-1a1 1 0 012 .38l-.2 1a1 1 0 01-1.01.83zm-88.57-1l-.23-1a1 1 0 01.75-1.2 1 1 0 011.2.75l.21.91-1 .29zm89.3-3h-.17a1 1 0 01-.82-1.15c.06-.34.11-.66.16-1a1 1 0 012 .32c0 .32-.11.65-.17 1a1 1 0 01-1 .93zm-89.21-.18a1 1 0 01-1-.79l-.2-1a1 1 0 01.77-1.18 1 1 0 011.19.78l.2 1a1 1 0 01-.77 1.19zm89.81-3.79h-.13a1 1 0 01-.86-1.13c0-.35.09-.68.13-1a1 1 0 011.12-.87 1 1 0 01.87 1.12c0 .3-.09.64-.14 1a1 1 0 01-.99.98zm-90.6-.15a1 1 0 01-1-.81l-.18-1a1 1 0 112-.35l.18 1a1 1 0 01-.81 1.17z" fill="#b7b6b0"/><path d="M200.37 49.45a1 1 0 01-1-.84l-.08-.5a1 1 0 012-.29l.07.47a1 1 0 01-.83 1.15zM248.5 115.44h-1a1 1 0 11.08-2h1a1 1 0 010 2zm3-.11a1 1 0 01-.08-2l1-.09a1 1 0 11.23 2l-1 .1zm-7-.17h-.13l-1-.16a1 1 0 01.33-2l1 .14a1 1 0 01-.14 2zm10.93-.39a1 1 0 01-1-.8 1 1 0 01.78-1.18l.94-.21a1 1 0 11.47 1.94l-1 .23zm-14.84-.39a.78.78 0 01-.26 0c-.33-.08-.66-.18-1-.28a1 1 0 11.57-1.91l.93.26a1 1 0 01-.25 2zm18.69-.68a1 1 0 01-.33-1.94l.91-.34a1 1 0 01.72 1.87l-1 .35a1 1 0 01-.29.06zm-22.48-.59a1.08 1.08 0 01-.38-.08l-.94-.4a1 1 0 11.81-1.83l.89.38a1 1 0 01-.38 1.93zm26.15-1a1 1 0 01-.44-1.89l.85-.45a1 1 0 111 1.76l-.92.48a1 1 0 01-.44.13zm-29.75-.77a1 1 0 01-.48-.12c-.3-.17-.6-.34-.89-.52a1 1 0 111-1.71l.84.48a1 1 0 01-.49 1.87zm33.21-1.23a1 1 0 01-.55-1.84c.27-.17.53-.36.8-.54a1 1 0 011.15 1.63l-.81.64a1 1 0 01-.58.14zm-36.58-.91a1 1 0 01-.58-.18c-.28-.2-.56-.4-.83-.61a1 1 0 111.2-1.6l.79.58a1 1 0 01.23 1.4 1 1 0 01-.8.44zm39.79-1.48A1 1 0 01269 106l.74-.64a1 1 0 111.31 1.51l-.78.66a.94.94 0 01-.64.22zm-42.93-1a1 1 0 01-.65-.25l-.77-.68a1 1 0 011.35-1.48l.73.65a1 1 0 01-.66 1.76zm45.87-1.7a1 1 0 01-.71-1.7c.23-.24.46-.47.68-.71a1 1 0 011.42 0 1 1 0 010 1.41l-.72.73a1 1 0 01-.66.3zM223.81 104a1 1 0 01-.72-.31l-.7-.74a1 1 0 011.47-1.35l.67.71a1 1 0 010 1.41 1 1 0 01-.72.28zm51.46-1.89a1 1 0 01-.77-1.64l.62-.76a1 1 0 011.41-.15 1 1 0 01.15 1.4c-.21.27-.43.53-.64.79a1 1 0 01-.77.34zM221.16 101a1 1 0 01-.78-.37c-.21-.26-.43-.52-.64-.79a1 1 0 011.57-1.24c.2.26.41.51.62.76a1 1 0 01-.14 1.41 1 1 0 01-.63.23zm56.56-2.06a1.05 1.05 0 01-.58-.19 1 1 0 01-.23-1.4c.2-.27.38-.53.57-.8a1 1 0 111.64 1.14c-.19.28-.39.56-.59.83a1 1 0 01-.81.41zm-59-1.11a1 1 0 01-.82-.42l-.58-.83a1 1 0 011.68-1.15c.19.27.37.53.57.8a1 1 0 01-.23 1.4 1.05 1.05 0 01-.62.19zM280 95.61a.92.92 0 01-.53-.16 1 1 0 01-.32-1.37l.52-.84a1 1 0 011.33-.34 1 1 0 01.34 1.38l-.54.86a1 1 0 01-.8.47zm-63.49-1.12a1 1 0 01-.84-.46l-.54-.86a1 1 0 01.33-1.38 1 1 0 011.37.33l.53.84a1 1 0 01-.31 1.38 1 1 0 01-.58.15zM282 92.16a.91.91 0 01-.48-.13 1 1 0 01-.39-1.36c.16-.28.31-.57.47-.86a1 1 0 011.76.94l-.48.89a1 1 0 01-.88.52zm-67.58-1.11a1 1 0 01-.87-.51c-.17-.29-.33-.59-.49-.88a1 1 0 111.75-1l.48.87a1 1 0 01-.38 1.36 1 1 0 01-.5.16zm69.44-2.45a1 1 0 01-.44-.1 1 1 0 01-.46-1.34c.15-.3.29-.59.43-.89a1 1 0 011.81.86l-.45.91a1 1 0 01-.9.56zm-71.33-1.08a1 1 0 01-.9-.55l-.45-.9a1 1 0 011.79-.89l.45.89a1 1 0 01-.44 1.34 1.06 1.06 0 01-.46.11zm73-2.55a1 1 0 01-.4-.09 1 1 0 01-.51-1.32l.39-.91a1 1 0 011.32-.52 1 1 0 01.52 1.31c-.13.31-.26.62-.4.93a1 1 0 01-.92.63zm-74.75-1.06a1 1 0 01-.91-.58l-.42-.92a1 1 0 01.5-1.32 1 1 0 011.33.5l.4.9a1 1 0 01-.49 1.33 1 1 0 01-.41.09zm76.29-2.64a.94.94 0 01-.36-.08 1 1 0 01-.57-1.29q.19-.47.36-.93a1 1 0 011.29-.57 1 1 0 01.58 1.29c-.12.31-.24.63-.37.94a1 1 0 01-.93.64zm-77.9-1a1 1 0 01-.92-.62l-.39-.93a1 1 0 011.86-.75c.12.3.24.61.37.91a1 1 0 01-.92 1.39zm79.31-2.73a1 1 0 01-.34-.06 1 1 0 01-.61-1.27l.33-.94a1 1 0 111.89.65l-.33 1a1 1 0 01-.94.59zm-80.79-1a1 1 0 01-.93-.64l-.36-1a1 1 0 011.88-.69l.35.93a1 1 0 01-.59 1.29 1 1 0 01-.35.08zm82.06-2.8a1 1 0 01-.3 0 1 1 0 01-.65-1.26l.3-1a1 1 0 011.91.6l-.31 1a1 1 0 01-.95.63zm-83.42-1a1 1 0 01-.94-.67l-.33-1a1 1 0 011.9-.63l.32.94a1 1 0 01-.62 1.27 1.26 1.26 0 01-.33.09zm84.58-2.87a1 1 0 01-.28 0 1 1 0 01-.68-1.24l.27-1a1 1 0 011.23-.7 1 1 0 01.7 1.23l-.28 1a1 1 0 01-.96.71zm-85.83-.94a1 1 0 01-1-.7l-.3-1a1 1 0 111.91-.59l.3.95a1 1 0 01-.66 1.26 1 1 0 01-.25.08zM292 66a.69.69 0 01-.25 0 1 1 0 01-.72-1.21l.24-1a1 1 0 011.94.48l-.25 1a1 1 0 01-.96.73zm-88-.91a1 1 0 01-1-.73l-.27-1a1 1 0 011.93-.53l.27 1a1 1 0 01-.69 1.24.9.9 0 01-.31.02zm89-3a.91.91 0 01-.23 0 1 1 0 01-.75-1.2l.22-1a1 1 0 011.95.43l-.22 1a1 1 0 01-1.07.78zm-90-.88a1 1 0 01-1-.76l-.25-1a1 1 0 111.94-.49l.25 1a1 1 0 01-.72 1.21.77.77 0 01-.33.05zm90.84-3h-.19a1 1 0 01-.79-1.17l.19-1a1 1 0 012 .37l-.2 1a1 1 0 01-1.12.76zm-91.79-.85a1 1 0 01-1-.78l-.23-1a1 1 0 01.77-1.19 1 1 0 011.19.76l.22 1a1 1 0 01-.75 1.2.91.91 0 01-.31-.03zm92.52-3.1h-.17a1 1 0 01-.82-1.16l.17-1a1 1 0 112 .32l-.16 1a1 1 0 01-1.13.8zm-93.36-.83a1 1 0 01-1-.8c-.07-.35-.14-.68-.2-1a1 1 0 112-.37c.05.3.12.63.19 1a1 1 0 01-.78 1.18zM295.06 50.27h-.13a1 1 0 01-.86-1.12l.06-.47a1 1 0 011.1-.89 1 1 0 01.89 1.1s0 .18-.07.52a1 1 0 01-.99.86z" fill="#7f7e78"/><path d="M262.86 110a1 1 0 01-.47-1.88l.85-.47a1 1 0 111 1.73c-.3.18-.6.34-.9.5a1 1 0 01-.48.12zm-33-2a1 1 0 01-.6-.2l-.81-.62a1 1 0 01-.17-1.41 1 1 0 011.4-.16l.77.59a1 1 0 01.21 1.4 1 1 0 01-.76.4zm36.38-.13a1 1 0 01-.83-.43 1 1 0 01.26-1.39c.27-.18.53-.37.79-.56a1 1 0 111.18 1.62l-.84.59a1 1 0 01-.52.17zm-39.45-2.42a1 1 0 01-.68-.27l-.75-.7a1 1 0 011.39-1.44l.71.67a1 1 0 01.06 1.42 1 1 0 01-.69.32zm42.61 0a1 1 0 01-.65-1.76l.73-.64a1 1 0 011.34 1.49l-.77.67a1 1 0 01-.61.23zm2.9-2.73a1 1 0 01-.69-.28 1 1 0 010-1.41l.67-.71a1 1 0 011.41-.06 1 1 0 01.06 1.42c-.24.25-.47.5-.71.74a1 1 0 01-.7.29zm-48.3-.12a1 1 0 01-.74-.33c-.23-.25-.46-.5-.68-.76a1 1 0 011.51-1.31l.65.73a1 1 0 01-.07 1.42 1 1 0 01-.67.25zm51-2.87a1 1 0 01-.63-.23 1 1 0 01-.14-1.41l.62-.76a1 1 0 111.56 1.24l-.63.79a1 1 0 01-.78.37zm2.42-3.18a1 1 0 01-.58-.18 1 1 0 01-.24-1.37l.56-.81a1 1 0 011.66 1.13l-.58.83a1 1 0 01-.82.4z" fill="#fff" opacity=".86"/><g opacity=".86" fill="#fff"><path d="M200.37 49.45a1 1 0 01-1-.84l-.08-.5a1 1 0 012-.29l.07.47a1 1 0 01-.83 1.15zM266.42 110.14a1 1 0 01-.55-1.84c.27-.17.53-.36.8-.54a1 1 0 011.15 1.63l-.82.61a1 1 0 01-.58.14zm3.21-2.39A1 1 0 01269 106l.74-.64a1 1 0 111.31 1.51l-.78.66a.94.94 0 01-.64.22zm-42.93-1a1 1 0 01-.65-.25l-.77-.68a1 1 0 011.35-1.48l.73.65a1 1 0 01-.66 1.76zm45.87-1.7a1 1 0 01-.71-1.7c.23-.24.46-.47.68-.71a1 1 0 011.42 0 1 1 0 010 1.41l-.72.73a1 1 0 01-.67.27zM223.81 104a1 1 0 01-.72-.31l-.7-.74a1 1 0 011.47-1.35l.67.71a1 1 0 010 1.41 1 1 0 01-.72.28zm51.46-1.89a1 1 0 01-.77-1.64l.62-.76a1 1 0 011.41-.15 1 1 0 01.15 1.4c-.21.27-.43.53-.64.79a1 1 0 01-.77.34zM221.16 101a1 1 0 01-.78-.37c-.21-.26-.43-.52-.64-.79a1 1 0 011.57-1.24c.2.26.41.51.62.76a1 1 0 01-.14 1.41 1 1 0 01-.63.23zM295.06 50.27h-.13a1 1 0 01-.86-1.12l.06-.47a1 1 0 011.1-.89 1 1 0 01.89 1.1s0 .18-.07.52a1 1 0 01-.99.86z"/></g></svg>