<svg xmlns="http://www.w3.org/2000/svg" width="500" height="550" viewBox="0 0 500 550"><title>s02e07-02</title><path d="M276.1,68.25l39.57-11.33s-22.8-23.49-42.58-23.49H223.43c-19.78,0-48.84,25.75-48.84,25.75l45.83,9.07L205.29,88.52l43-12.3,43,12.3Z" fill="#262521" stroke="#262521" stroke-linecap="round" stroke-linejoin="round" stroke-width="3"/><path d="M209.35,49.28s2.91,11.64,42.58,9.82,44.77-9.82,44.77-9.82l73.16,29.47s-1.73,402.39-5,404.58-151.4,0-167-3.28-53.14,5-57.87,4.16-5.46-10.9-3.64-18.54,1.36-386.92,1.36-386.92Z" fill="#262521" stroke="#262521" stroke-linecap="round" stroke-linejoin="round" stroke-width="3"/><path d="M296.7,49.28S279.6,58,251.93,59.1s-42.58-9.82-42.58-9.82" fill="none" stroke="#636363" stroke-linecap="round" stroke-linejoin="round"/><path d="M207.12,50.28s7.73,66.84,46.55,66.84,45.27-65,45.27-65" fill="none" stroke="#262521" stroke-linecap="round" stroke-linejoin="round" stroke-width="5" stroke-dasharray="1 3"/><path d="M252.85,117.2a1,1,0,0,1,0-2l1,0a1,1,0,0,1,1,1,1,1,0,0,1-.95,1c-.35,0-.69,0-1,0Zm-3-.12h-.09c-.35,0-.69-.07-1-.12a1,1,0,1,1,.25-2l1,.11a1,1,0,0,1,.91,1.08A1,1,0,0,1,249.86,117.08Zm7-.18a1,1,0,0,1-.14-2l1-.14a1,1,0,0,1,.33,2l-1,.15Zm-10.91-.47a1,1,0,0,1-.24,0c-.33-.08-.66-.16-1-.26a1,1,0,1,1,.54-1.92c.31.08.62.17.94.24a1,1,0,0,1,.73,1.21A1,1,0,0,1,245.93,116.43Zm14.82-.29a1,1,0,0,1-.25-2l.94-.25a1,1,0,1,1,.55,1.92l-1,.27A1.07,1.07,0,0,1,260.75,116.14Zm-18.61-.92a1,1,0,0,1-.38-.07l-.95-.4a1,1,0,1,1,.81-1.83l.89.37a1,1,0,0,1-.37,1.93Zm22.41-.29a1,1,0,0,1-.94-.64,1,1,0,0,1,.58-1.3c.3-.11.6-.24.89-.36a1,1,0,0,1,.78,1.84l-.95.39A1.15,1.15,0,0,1,264.55,114.93Zm-26-1.44a1,1,0,0,1-.49-.13l-.89-.52a1,1,0,0,1,1-1.71l.84.49a1,1,0,0,1-.5,1.87Zm29.62-.23a1,1,0,0,1-.47-1.88c.29-.15.57-.31.85-.47a1,1,0,0,1,1,1.74l-.91.49A1,1,0,0,1,268.17,113.26Zm-33-2a1,1,0,0,1-.59-.2c-.28-.2-.55-.41-.82-.62a1,1,0,1,1,1.24-1.57l.77.59a1,1,0,0,1,.21,1.4A1,1,0,0,1,235.21,111.31Zm36.38-.13a1,1,0,0,1-.56-1.82l.79-.56a1,1,0,0,1,1.4.22,1,1,0,0,1-.22,1.4l-.84.59A1,1,0,0,1,271.59,111.18Zm-39.45-2.42a1,1,0,0,1-.68-.27l-.74-.7a1,1,0,0,1,1.39-1.44l.71.67a1,1,0,0,1,.06,1.42A1,1,0,0,1,232.14,108.76Zm42.62,0a1,1,0,0,1-.76-.35,1,1,0,0,1,.11-1.41l.73-.64a1,1,0,1,1,1.33,1.49c-.25.23-.51.45-.77.67A1,1,0,0,1,274.76,108.75Zm2.9-2.73a1,1,0,0,1-.72-1.69l.68-.71a1,1,0,0,1,1.41-.06,1,1,0,0,1,.05,1.42c-.23.25-.46.5-.7.74A1,1,0,0,1,277.66,106Zm-48.32-.11a1,1,0,0,1-.75-.33c-.22-.25-.45-.5-.67-.76a1,1,0,0,1,1.51-1.31c.21.25.43.49.65.73a1,1,0,0,1-.07,1.42A1,1,0,0,1,229.34,105.91Zm51-2.87a1,1,0,0,1-.77-1.64c.21-.25.41-.5.61-.76a1,1,0,0,1,1.41-.16,1,1,0,0,1,.16,1.4c-.21.27-.42.53-.64.79A1,1,0,0,1,280.32,103Zm-53.54-.2a1,1,0,0,1-.8-.39l-.61-.81a1,1,0,0,1,1.61-1.2c.19.27.39.53.59.79a1,1,0,0,1-.18,1.4A1,1,0,0,1,226.78,102.84Zm56-3a1,1,0,0,1-.58-.18,1,1,0,0,1-.24-1.39l.56-.81a1,1,0,1,1,1.65,1.13l-.58.83A1,1,0,0,1,282.74,99.86Zm-58.3-.27a1,1,0,0,1-.83-.45l-.56-.84a1,1,0,1,1,1.68-1.09c.18.27.36.55.55.82a1,1,0,0,1-.28,1.39A1,1,0,0,1,224.44,99.59Zm60.49-3.07a1,1,0,0,1-.52-.14,1,1,0,0,1-.33-1.38l.51-.85a1,1,0,0,1,1.72,1c-.18.29-.35.58-.53.86A1,1,0,0,1,284.93,96.52Zm-62.61-.32a1,1,0,0,1-.87-.5l-.51-.87a1,1,0,0,1,1.74-1l.5.85a1,1,0,0,1-.36,1.37A1,1,0,0,1,222.32,96.2Zm64.6-3.15a1,1,0,0,1-.47-.12,1,1,0,0,1-.41-1.36l.47-.87a1,1,0,1,1,1.77.92l-.47.9A1,1,0,0,1,286.92,93.05Zm-66.55-.35a1,1,0,0,1-.89-.53c-.15-.3-.31-.6-.46-.91a1,1,0,0,1,.43-1.34,1,1,0,0,1,1.35.44l.45.87a1,1,0,0,1-.42,1.35A.93.93,0,0,1,220.37,92.7Zm68.36-3.23a1,1,0,0,1-.43-.1,1,1,0,0,1-.48-1.33l.42-.9a1,1,0,1,1,1.82.84l-.43.92A1,1,0,0,1,288.73,89.47Zm-70.14-.36a1,1,0,0,1-.91-.57c-.14-.31-.29-.61-.43-.92a1,1,0,0,1,.5-1.33,1,1,0,0,1,1.32.5l.42.89A1,1,0,0,1,219,89,1.06,1.06,0,0,1,218.59,89.11Zm71.77-3.3a.91.91,0,0,1-.39-.08,1,1,0,0,1-.53-1.3l.38-.92a1,1,0,0,1,1.85.75l-.39.94A1,1,0,0,1,290.36,85.81ZM217,85.46a1,1,0,0,1-.92-.61l-.39-.93a1,1,0,0,1,.54-1.3,1,1,0,0,1,1.31.54l.38.91a1,1,0,0,1-.53,1.31A1,1,0,0,1,217,85.46Zm74.88-3.37a.87.87,0,0,1-.35-.07,1,1,0,0,1-.59-1.28c.12-.31.23-.62.34-.93a1,1,0,0,1,1.89.67l-.35,1A1,1,0,0,1,291.83,82.09Zm-76.38-.34a1,1,0,0,1-.93-.64l-.36-.94a1,1,0,0,1,.58-1.29,1,1,0,0,1,1.29.58l.36.93a1,1,0,0,1-.58,1.29A.92.92,0,0,1,215.45,81.75Zm77.71-3.44a1.12,1.12,0,0,1-.31,0,1,1,0,0,1-.64-1.27c.11-.31.21-.63.31-.94a1,1,0,1,1,1.9.61c-.1.32-.2.64-.31,1A1,1,0,0,1,293.16,78.31ZM214.07,78a1,1,0,0,1-.94-.67l-.33-1a1,1,0,0,1,.62-1.26,1,1,0,0,1,1.27.62l.33.94a1,1,0,0,1-.62,1.27A1,1,0,0,1,214.07,78Zm80.28-3.51a.9.9,0,0,1-.28,0,1,1,0,0,1-.68-1.24l.28-1a1,1,0,1,1,1.92.54l-.28,1A1,1,0,0,1,294.35,74.48Zm-81.54-.29a1,1,0,0,1-1-.7l-.3-1a1,1,0,0,1,1.91-.6l.3.95a1,1,0,0,1-.65,1.26A1.11,1.11,0,0,1,212.81,74.19Zm82.61-3.57a1.07,1.07,0,0,1-.25,0,1,1,0,0,1-.72-1.22c.09-.32.17-.64.25-1a1,1,0,0,1,1.21-.73,1,1,0,0,1,.73,1.21c-.08.33-.16.65-.25,1A1,1,0,0,1,295.42,70.62Zm-83.78-.27a1,1,0,0,1-1-.72l-.28-1a1,1,0,0,1,1.93-.54l.27.95a1,1,0,0,1-.68,1.24A.9.9,0,0,1,211.64,70.35Zm84.73-3.62-.22,0a1,1,0,0,1-.75-1.2l.22-1a1,1,0,0,1,1.95.43l-.22,1A1,1,0,0,1,296.37,66.73Zm-85.79-.24a1,1,0,0,1-1-.75l-.25-1a1,1,0,0,1,.72-1.22,1,1,0,0,1,1.21.72l.25,1a1,1,0,0,1-.71,1.22A.73.73,0,0,1,210.58,66.49Zm86.63-3.69a.71.71,0,0,1-.2,0,1,1,0,0,1-.78-1.17l.19-1a1,1,0,0,1,2,.38l-.19,1A1,1,0,0,1,297.21,62.8Zm-88.58-1-.23-1a1,1,0,0,1,1.95-.45l.22.91-1,.29Zm89.3-3-.16,0a1,1,0,0,1-.82-1.15c.05-.34.11-.66.16-1a1,1,0,1,1,2,.32c-.05.32-.1.65-.16,1A1,1,0,0,1,297.93,58.86Zm-89.2-.18a1,1,0,0,1-1-.79l-.21-1a1,1,0,0,1,2-.4l.2,1a1,1,0,0,1-.76,1.19A.75.75,0,0,1,208.73,58.68Zm89.81-3.79h-.14a1,1,0,0,1-.85-1.13c.05-.35.09-.68.13-1a1,1,0,1,1,2,.25c0,.31-.08.64-.13,1A1,1,0,0,1,298.54,54.89Zm-90.6-.14a1,1,0,0,1-1-.82l-.18-1a1,1,0,1,1,2-.35l.18,1a1,1,0,0,1-.8,1.17Zm-.68-4a1,1,0,0,1-1-.85c-.1-.66-.15-1-.15-1a1,1,0,1,1,2-.27s0,.36.14,1a1,1,0,0,1-.84,1.14Z" fill="#b7b6b0"/><path d="M205.69,52.77a1,1,0,0,1-1-.85l-.07-.5a1,1,0,0,1,2-.29l.07.48a1,1,0,0,1-.83,1.14Z" fill="#7f7e78"/><path d="M253.82,118.75h0c-.35,0-.69,0-1,0a1,1,0,0,1-1-1,1,1,0,0,1,1-1c.32,0,.64,0,1,0a1,1,0,0,1,0,2Zm3-.11a1,1,0,0,1-.08-2l1-.09a1,1,0,1,1,.22,2l-1,.1Zm-7-.17h-.13l-1-.16a1,1,0,1,1,.32-2l1,.14a1,1,0,0,1-.13,2Zm10.93-.39a1,1,0,0,1-.21-2l.94-.21a1,1,0,0,1,.48,1.94l-1,.23Zm-14.85-.39a.82.82,0,0,1-.26,0c-.33-.08-.66-.18-1-.28a1,1,0,1,1,.58-1.91l.93.26a1,1,0,0,1-.26,2ZM264.6,117a1,1,0,0,1-.33-1.94l.91-.34a1,1,0,0,1,.72,1.87l-1,.35A1,1,0,0,1,264.6,117Zm-22.47-.59a1,1,0,0,1-.38-.08l-.95-.4a1,1,0,0,1,.82-1.83l.89.38a1,1,0,0,1-.38,1.93Zm26.15-1a1,1,0,0,1-.89-.55,1,1,0,0,1,.44-1.34l.86-.45a1,1,0,0,1,1,1.76l-.92.48A1,1,0,0,1,268.28,115.45Zm-29.75-.77a1.07,1.07,0,0,1-.49-.12l-.88-.52a1,1,0,1,1,1-1.71l.84.48a1,1,0,0,1,.38,1.36A1,1,0,0,1,238.53,114.68Zm33.21-1.23a1,1,0,0,1-.84-.45,1,1,0,0,1,.29-1.39c.26-.17.53-.35.79-.54a1,1,0,0,1,1.4.24,1,1,0,0,1-.24,1.39l-.85.58A1,1,0,0,1,271.74,113.45Zm-36.58-.9a1.06,1.06,0,0,1-.59-.19l-.82-.61a1,1,0,0,1,1.2-1.6l.79.58a1,1,0,0,1-.58,1.82Zm39.78-1.49a1,1,0,0,1-.64-1.76c.25-.21.5-.42.74-.64a1,1,0,0,1,1.32,1.51l-.78.66A1,1,0,0,1,274.94,111.06Zm-42.92-1a1,1,0,0,1-.66-.25l-.76-.68a1,1,0,0,1,1.35-1.48c.24.22.48.44.73.65a1,1,0,0,1,.1,1.42A1,1,0,0,1,232,110.06Zm45.87-1.7a1,1,0,0,1-.71-1.7c.23-.24.46-.47.68-.71a1,1,0,0,1,1.42,0,1,1,0,0,1,0,1.41c-.23.25-.47.49-.71.73A1,1,0,0,1,277.89,108.36Zm-48.76-1.07a1,1,0,0,1-.72-.3l-.7-.75a1,1,0,1,1,1.47-1.35c.22.24.44.48.67.71a1,1,0,0,1,0,1.41A1,1,0,0,1,229.13,107.29Zm51.45-1.89a1,1,0,0,1-.64-.23,1,1,0,0,1-.12-1.41c.21-.25.42-.5.62-.76a1,1,0,0,1,1.41-.15,1,1,0,0,1,.15,1.4c-.21.27-.43.53-.65.79A1,1,0,0,1,280.58,105.4Zm-54.11-1.1a1,1,0,0,1-.77-.36l-.64-.8a1,1,0,1,1,1.56-1.24l.62.76a1,1,0,0,1-.13,1.41A1,1,0,0,1,226.47,104.3ZM283,102.24a1.09,1.09,0,0,1-.59-.19,1,1,0,0,1-.22-1.4l.57-.8a1,1,0,0,1,1.39-.25,1,1,0,0,1,.25,1.39c-.2.28-.39.56-.59.83A1,1,0,0,1,283,102.24Zm-59-1.11a1,1,0,0,1-.81-.42c-.2-.28-.4-.55-.59-.83a1,1,0,0,1,.25-1.39,1,1,0,0,1,1.39.25l.57.8a1,1,0,0,1-.22,1.4A1.09,1.09,0,0,1,224,101.13Zm61.24-2.21a1,1,0,0,1-.53-.15,1,1,0,0,1-.31-1.38l.51-.84a1,1,0,0,1,1.38-.34,1,1,0,0,1,.33,1.38c-.17.29-.35.57-.53.86A1,1,0,0,1,285.27,98.92Zm-63.48-1.11a1,1,0,0,1-.85-.47l-.54-.86a1,1,0,1,1,1.71-1l.52.84a1,1,0,0,1-.31,1.38A.94.94,0,0,1,221.79,97.81Zm65.52-2.34a1,1,0,0,1-.49-.13,1,1,0,0,1-.39-1.35l.48-.87a1,1,0,0,1,1.76.94c-.16.3-.32.6-.49.89A1,1,0,0,1,287.31,95.47Zm-67.58-1.11a1,1,0,0,1-.87-.51l-.5-.88a1,1,0,0,1,.4-1.36,1,1,0,0,1,1.35.39l.49.87a1,1,0,0,1-.87,1.49Zm69.43-2.45a1,1,0,0,1-.44-.1,1,1,0,0,1-.45-1.34c.14-.3.29-.59.43-.89a1,1,0,0,1,1.8.86c-.14.31-.29.61-.44.91A1,1,0,0,1,289.16,91.91Zm-71.33-1.08a1,1,0,0,1-.89-.55l-.45-.9a1,1,0,1,1,1.79-.89l.44.89a1,1,0,0,1-.43,1.34A1,1,0,0,1,217.83,90.83Zm73-2.55a1,1,0,0,1-.4-.09,1,1,0,0,1-.51-1.32l.39-.91a1,1,0,0,1,1.31-.52,1,1,0,0,1,.53,1.31l-.4.93A1,1,0,0,1,290.85,88.28Zm-74.76-1.06a1,1,0,0,1-.91-.58c-.14-.31-.28-.61-.41-.92a1,1,0,1,1,1.82-.82l.41.9a1,1,0,0,1-.49,1.33A1.06,1.06,0,0,1,216.09,87.22Zm76.3-2.64a1.21,1.21,0,0,1-.37-.07,1,1,0,0,1-.56-1.3l.36-.93a1,1,0,0,1,1.87.72l-.37.94A1,1,0,0,1,292.39,84.58Zm-77.9-1a1,1,0,0,1-.93-.62c-.13-.31-.26-.62-.38-.93a1,1,0,0,1,1.85-.75c.13.3.25.61.38.91a1,1,0,0,1-.54,1.31A.9.9,0,0,1,214.49,83.55Zm79.3-2.73a1,1,0,0,1-.33-.06,1,1,0,0,1-.61-1.27l.33-.94a1,1,0,0,1,1.27-.62,1,1,0,0,1,.62,1.27l-.33,1A1,1,0,0,1,293.79,80.82Zm-80.78-1a1,1,0,0,1-.94-.64l-.35-1a1,1,0,0,1,1.88-.69l.34.93a1,1,0,0,1-.58,1.29A1.07,1.07,0,0,1,213,79.82ZM295.07,77a1,1,0,0,1-.3,0,1,1,0,0,1-.66-1.25l.3-1a1,1,0,1,1,1.91.59l-.3,1A1,1,0,0,1,295.07,77Zm-83.42-1a1,1,0,0,1-1-.67l-.32-1a1,1,0,1,1,1.89-.63l.32.94A1,1,0,0,1,212,76,.86.86,0,0,1,211.65,76.05Zm84.58-2.87a.9.9,0,0,1-.28,0,1,1,0,0,1-.68-1.24c.09-.32.18-.63.26-1a1,1,0,1,1,1.93.53l-.27,1A1,1,0,0,1,296.23,73.18Zm-85.83-.94a1,1,0,0,1-1-.7l-.29-1a1,1,0,0,1,1.91-.59l.29,1a1,1,0,0,1-.65,1.26A1,1,0,0,1,210.4,72.24Zm86.87-2.93a.77.77,0,0,1-.25,0,1,1,0,0,1-.72-1.21l.25-1a1,1,0,0,1,1.94.48l-.25,1A1,1,0,0,1,297.27,69.31Zm-88-.91a1,1,0,0,1-1-.73l-.27-1a1,1,0,1,1,1.92-.53l.27,1a1,1,0,0,1-.68,1.23A1,1,0,0,1,209.25,68.4Zm89-3-.22,0a1,1,0,0,1-.75-1.2l.21-1a1,1,0,0,1,2,.43l-.22,1A1,1,0,0,1,298.21,65.41Zm-90-.88a1,1,0,0,1-1-.76l-.25-1a1,1,0,0,1,1.94-.49l.24,1a1,1,0,0,1-1,1.25Zm90.85-3.05-.2,0a1,1,0,0,1-.78-1.17l.19-1a1,1,0,1,1,2,.37l-.19,1A1,1,0,0,1,299.05,61.48Zm-91.79-.85a1,1,0,0,1-1-.78l-.22-1a1,1,0,1,1,1.95-.43l.22,1a1,1,0,0,1-.75,1.2A.83.83,0,0,1,207.26,60.63Zm92.52-3.1h-.17a1,1,0,0,1-.82-1.16l.16-1a1,1,0,0,1,2,.32l-.17,1A1,1,0,0,1,299.78,57.53Zm-93.37-.83a1,1,0,0,1-1-.8c-.07-.35-.13-.68-.19-1a1,1,0,1,1,2-.38c.06.3.12.63.19,1a1,1,0,0,1-.78,1.18A.65.65,0,0,1,206.41,56.7Z" fill="#7f7e78"/><path d="M300.38,53.58h-.13a1,1,0,0,1-.86-1.12l.05-.47a1,1,0,1,1,2,.21l-.06.52A1,1,0,0,1,300.38,53.58Z" fill="#7f7e78"/><g opacity="0.86"><path d="M268.17,113.26a1,1,0,0,1-.47-1.88c.29-.15.57-.31.85-.47a1,1,0,0,1,1,1.74l-.91.49A1,1,0,0,1,268.17,113.26Zm-33-2a1,1,0,0,1-.59-.2c-.28-.2-.55-.41-.82-.62a1,1,0,1,1,1.24-1.57l.77.59a1,1,0,0,1,.21,1.4A1,1,0,0,1,235.21,111.31Zm36.38-.13a1,1,0,0,1-.56-1.82l.79-.56a1,1,0,0,1,1.4.22,1,1,0,0,1-.22,1.4l-.84.59A1,1,0,0,1,271.59,111.18Zm-39.45-2.42a1,1,0,0,1-.68-.27l-.74-.7a1,1,0,0,1,1.39-1.44l.71.67a1,1,0,0,1,.06,1.42A1,1,0,0,1,232.14,108.76Zm42.62,0a1,1,0,0,1-.76-.35,1,1,0,0,1,.11-1.41l.73-.64a1,1,0,1,1,1.33,1.49c-.25.23-.51.45-.77.67A1,1,0,0,1,274.76,108.75Zm2.9-2.73a1,1,0,0,1-.72-1.69l.68-.71a1,1,0,0,1,1.41-.06,1,1,0,0,1,.05,1.42c-.23.25-.46.5-.7.74A1,1,0,0,1,277.66,106Zm-48.32-.11a1,1,0,0,1-.75-.33c-.22-.25-.45-.5-.67-.76a1,1,0,0,1,1.51-1.31c.21.25.43.49.65.73a1,1,0,0,1-.07,1.42A1,1,0,0,1,229.34,105.91Zm51-2.87a1,1,0,0,1-.77-1.64c.21-.25.41-.5.61-.76a1,1,0,0,1,1.41-.16,1,1,0,0,1,.16,1.4c-.21.27-.42.53-.64.79A1,1,0,0,1,280.32,103Zm2.42-3.18a1,1,0,0,1-.58-.18,1,1,0,0,1-.24-1.39l.56-.81a1,1,0,1,1,1.65,1.13l-.58.83A1,1,0,0,1,282.74,99.86Z" fill="#fff"/></g><g opacity="0.86"><path d="M205.69,52.77a1,1,0,0,1-1-.85l-.07-.5a1,1,0,0,1,2-.29l.07.48a1,1,0,0,1-.83,1.14Z" fill="#fff"/><path d="M271.74,113.45a1,1,0,0,1-.84-.45,1,1,0,0,1,.29-1.39c.26-.17.53-.35.79-.54a1,1,0,0,1,1.4.24,1,1,0,0,1-.24,1.39l-.85.58A1,1,0,0,1,271.74,113.45Zm3.2-2.39a1,1,0,0,1-.64-1.76c.25-.21.5-.42.74-.64a1,1,0,0,1,1.32,1.51l-.78.66A1,1,0,0,1,274.94,111.06Zm-42.92-1a1,1,0,0,1-.66-.25l-.76-.68a1,1,0,0,1,1.35-1.48c.24.22.48.44.73.65a1,1,0,0,1,.1,1.42A1,1,0,0,1,232,110.06Zm45.87-1.7a1,1,0,0,1-.71-1.7c.23-.24.46-.47.68-.71a1,1,0,0,1,1.42,0,1,1,0,0,1,0,1.41c-.23.25-.47.49-.71.73A1,1,0,0,1,277.89,108.36Zm-48.76-1.07a1,1,0,0,1-.72-.3l-.7-.75a1,1,0,1,1,1.47-1.35c.22.24.44.48.67.71a1,1,0,0,1,0,1.41A1,1,0,0,1,229.13,107.29Zm51.45-1.89a1,1,0,0,1-.64-.23,1,1,0,0,1-.12-1.41c.21-.25.42-.5.62-.76a1,1,0,0,1,1.41-.15,1,1,0,0,1,.15,1.4c-.21.27-.43.53-.65.79A1,1,0,0,1,280.58,105.4Zm-54.11-1.1a1,1,0,0,1-.77-.36l-.64-.8a1,1,0,1,1,1.56-1.24l.62.76a1,1,0,0,1-.13,1.41A1,1,0,0,1,226.47,104.3Z" fill="#fff"/><path d="M300.38,53.58h-.13a1,1,0,0,1-.86-1.12l.05-.47a1,1,0,1,1,2,.21l-.06.52A1,1,0,0,1,300.38,53.58Z" fill="#fff"/></g><path d="M137.65,78.75l71.7-29.47S213.36,97.83,253,96,296.7,49.28,296.7,49.28l73.16,29.47" fill="none" stroke="#636363" stroke-linecap="round" stroke-linejoin="round"/><path d="M240.23,177.79c0-23.16-26.35-123.41-31.36-129a3.16,3.16,0,0,0-2.72-.43C175.73,59.42,143,65,115.69,83.18c-23.5,30.35-34.46,68.24-48.06,103.67-23.59,59.08-28.11,123-26.19,186-.36,11.18.74,97.95,2.77,105.72.3,1.47,62.69,2.66,63.26-.52,1.45-8,2.86-179.6,5.23-190.27,1.35-2.86,13.78-67,15.19-69.81,2.21,47.15-8.87,215.89-1.17,247.91.5,2.06,19,4.34,69,4C199.05,442.16,240.23,201,240.23,177.79Z" fill="#262521" stroke="#262521" stroke-linecap="round" stroke-linejoin="round" stroke-width="3"/><path d="M126.72,465.89c.5,2.06,19,4.34,69,4,3.34-27.77,44.52-269,44.52-292.14s-26.35-123.41-31.36-129" fill="none" stroke="#636363" stroke-linecap="round" stroke-linejoin="round"/><path d="M457.56,331.45c-2.15-75.82-17.9-126.55-45.71-194C403,118.2,397.34,94.8,381.39,80.21,355,63,323.08,59.12,294,48.63c-3.68-1.54-21.88,110.6-21.88,136.75s16.23,257.08,21.09,281.49c38.05-.76,85.61-1.68,85.78-2.28,6.89-23.52-11.52-249.35-11.38-249.38.51,7.25,17.36,62,19.83,69,2.65,7.46,8.93,187.72,11.53,191.54,3.78,5.55,60,6,60,.13C459,470.44,458.08,350.13,457.56,331.45Z" fill="#262521" stroke="#262521" stroke-linecap="round" stroke-linejoin="round" stroke-width="3"/><path d="M296.17,466.87c38.05-.76,82.61-1.68,82.78-2.28" fill="none" stroke="#636363" stroke-linecap="round" stroke-linejoin="round"/><path d="M294,48.63c-3.68-1.54-21.88,110.6-21.88,136.75" fill="none" stroke="#636363" stroke-linecap="round" stroke-linejoin="round"/><path d="M172.82,61S152.29,89.43,146,98.2s90.43,19.42,91.06,87.18" fill="none" stroke="#636363" stroke-linecap="round" stroke-linejoin="round"/><path d="M191.43,124.84c.11.11.22.24.33.37" fill="none" stroke="#8e8e8e" stroke-linecap="round" stroke-linejoin="round" stroke-width="2"/><path d="M193.34,127.75c17.9,37.09,2.37,312.11.85,338.27" fill="none" stroke="#8e8e8e" stroke-linecap="round" stroke-linejoin="round" stroke-width="2" stroke-dasharray="1 3.01"/><path d="M194.1,467.52l0,.49" fill="none" stroke="#8e8e8e" stroke-linecap="round" stroke-linejoin="round" stroke-width="2"/><path d="M127.89,218c15.19-69.82-7.73-129.46-7.73-129.46" fill="none" stroke="#636363" stroke-linecap="round" stroke-linejoin="round"/><path d="M215,70.4s-29.31,24-27.77,44.58" fill="none" stroke="#636363" stroke-linecap="round" stroke-linejoin="round"/><path d="M315.67,58.06s38.52,39.58,38.9,46.75" fill="none" stroke="#636363" stroke-linecap="round" stroke-linejoin="round"/><path d="M354.57,104.81c.37,7.17-68.24,7.89-82.49,78,0,0,10.47,167.48,21.09,284" fill="none" stroke="#8e8e8e" stroke-linecap="round" stroke-linejoin="round" stroke-width="2" stroke-dasharray="1 3"/><path d="M289.57,70.4S318.31,94.58,318.31,115" fill="none" stroke="#636363" stroke-linecap="round" stroke-linejoin="round"/><path d="M378.07,85.12s-13.72,74-9,137.23" fill="none" stroke="#636363" stroke-linecap="round" stroke-linejoin="round"/><path d="M396.83,438s30.77,8.08,61.54,0" fill="none" stroke="#636363" stroke-linecap="round" stroke-linejoin="round"/><path d="M45,438s30.77,8.08,61.54,0" fill="none" stroke="#636363" stroke-linecap="round" stroke-linejoin="round"/><path d="M294.6,446.32s56.33,4.72,84.62-2.73" fill="none" stroke="#636363" stroke-linecap="round" stroke-linejoin="round"/><path d="M191.43,447.14s-26.89,3.39-65.63-1.85" fill="none" stroke="#636363" stroke-linecap="round" stroke-linejoin="round"/><polyline points="377.49 397.7 346.27 343.63 360.54 335.39 376.54 363.1" fill="none" stroke="#636363" stroke-linecap="round" stroke-linejoin="round"/><polyline points="125.03 397.7 156.25 343.63 141.98 335.39 125.98 363.1" fill="none" stroke="#636363" stroke-linecap="round" stroke-linejoin="round"/></svg>