<svg xmlns="http://www.w3.org/2000/svg" xmlns:xlink="http://www.w3.org/1999/xlink" width="500" height="550" viewBox="0 0 500 550"><defs><clipPath id="a"><path d="M-244.17,87.25c14.26-14.68,19.54-38,20.09-37.8,30.43,11,59.14,15.58,86.46,33.78-4,20-11.6,68.69-11,105.43-1.81,14.88,1.4,36,1.13,47.78-1.13,49.45,1,56.06.33,54.64-1.48,31.59.51,59.49.71,90.36,0,2.13-44.21,16.57-53.76-11.72C-222.24,282.24-244.17,87.25-244.17,87.25Z" fill="none"/></clipPath></defs><title>s02e10-03</title><g clip-path="url(#a)"><line x1="-345.34" y1="248.07" x2="24.16" y2="233.47" fill="none" stroke="#998f8f" stroke-linecap="round" stroke-linejoin="round"/><line x1="-340.14" y1="221.23" x2="24.59" y2="206.82" fill="none" stroke="#998f8f" stroke-linecap="round" stroke-linejoin="round"/><line x1="-345.19" y1="234.97" x2="24.31" y2="220.36" fill="none" stroke="#998f8f" stroke-linecap="round" stroke-linejoin="round"/><line x1="-339.84" y1="194.64" x2="24.89" y2="180.23" fill="none" stroke="#998f8f" stroke-linecap="round" stroke-linejoin="round"/><line x1="-344.89" y1="208.38" x2="24.61" y2="193.77" fill="none" stroke="#998f8f" stroke-linecap="round" stroke-linejoin="round"/><line x1="-339.54" y1="168.09" x2="25.19" y2="153.67" fill="none" stroke="#998f8f" stroke-linecap="round" stroke-linejoin="round"/><line x1="-344.59" y1="181.82" x2="24.91" y2="167.22" fill="none" stroke="#998f8f" stroke-linecap="round" stroke-linejoin="round"/><line x1="-339.24" y1="141.5" x2="25.49" y2="127.08" fill="none" stroke="#998f8f" stroke-linecap="round" stroke-linejoin="round"/><line x1="-344.29" y1="155.23" x2="25.21" y2="140.63" fill="none" stroke="#998f8f" stroke-linecap="round" stroke-linejoin="round"/><line x1="-345.34" y1="340.66" x2="24.16" y2="326.05" fill="none" stroke="#998f8f" stroke-linecap="round" stroke-linejoin="round"/><line x1="-340.14" y1="313.81" x2="24.59" y2="299.4" fill="none" stroke="#998f8f" stroke-linecap="round" stroke-linejoin="round"/><line x1="-345.19" y1="327.55" x2="24.31" y2="312.95" fill="none" stroke="#998f8f" stroke-linecap="round" stroke-linejoin="round"/><line x1="-339.84" y1="287.22" x2="24.89" y2="272.81" fill="none" stroke="#998f8f" stroke-linecap="round" stroke-linejoin="round"/><line x1="-344.89" y1="300.96" x2="24.61" y2="286.36" fill="none" stroke="#998f8f" stroke-linecap="round" stroke-linejoin="round"/><line x1="-340.14" y1="367.02" x2="24.59" y2="352.6" fill="none" stroke="#998f8f" stroke-linecap="round" stroke-linejoin="round"/><line x1="-345.19" y1="380.75" x2="24.31" y2="366.15" fill="none" stroke="#998f8f" stroke-linecap="round" stroke-linejoin="round"/><line x1="-344.89" y1="354.16" x2="24.61" y2="339.56" fill="none" stroke="#998f8f" stroke-linecap="round" stroke-linejoin="round"/><line x1="-339.54" y1="260.67" x2="25.19" y2="246.26" fill="none" stroke="#998f8f" stroke-linecap="round" stroke-linejoin="round"/><line x1="-344.59" y1="274.41" x2="24.91" y2="259.8" fill="none" stroke="#998f8f" stroke-linecap="round" stroke-linejoin="round"/><line x1="-338.94" y1="114.67" x2="25.79" y2="100.26" fill="none" stroke="#998f8f" stroke-linecap="round" stroke-linejoin="round"/><line x1="-343.99" y1="128.41" x2="25.52" y2="113.81" fill="none" stroke="#998f8f" stroke-linecap="round" stroke-linejoin="round"/><line x1="-338.64" y1="88.08" x2="26.09" y2="73.67" fill="none" stroke="#998f8f" stroke-linecap="round" stroke-linejoin="round"/><line x1="-343.69" y1="101.82" x2="25.82" y2="87.22" fill="none" stroke="#998f8f" stroke-linecap="round" stroke-linejoin="round"/><line x1="-338.48" y1="74.17" x2="26.25" y2="59.76" fill="none" stroke="#998f8f" stroke-linecap="round" stroke-linejoin="round"/><line x1="-343.23" y1="61.32" x2="26.28" y2="46.71" fill="none" stroke="#998f8f" stroke-linecap="round" stroke-linejoin="round"/></g><path d="M409.37,137.42c-8.82-19.22-14.51-42.62-30.45-57.21-26.39-17.17-87-32-87.25-31.52l-.19-.06c-3.67-1.54-5,3.72-7.87,5C266.25,64.05,244.15,60.93,225,58.5c-7.1-1.26-13.56-4.12-18.56-9.67a3.16,3.16,0,0,0-2.72-.43c-1.27.46-2.54.91-3.82,1.35l-.92.32-3.73,1.25-.05,0-3.94,1.28-.8.25-3.8,1.2c-25.28,7.84-51.13,14.27-73.4,29.11-23.51,30.35-34.46,68.24-48.07,103.68-23.59,59.07-28.1,123-26.19,186-.35,11.19,3.49,22.28,5.72,33.31A6.7,6.7,0,0,0,46,409.39c6.31,5.75,3.46,14.66,5.49,22.42.3,1.47,1,1.81,2.41,1.47,12.51-3.2,26.22-2.34,38.6,1.18,3.13,1,3.17,1.13,3.74-2,1.44-8,10.36-41.31,11.86-49.29,1.19-8.37,4.89-16.87,4.38-25.31-1-3.31.12-6.42.37-9.58,1.26-11.18,6-24.61-5.15-32.56-5.69-6.88,9.44-5.5,11.81-16.18,1.35-2.86,2.87-5.63,4.29-8.46,2.21,47.16-2.55,94.72,3.6,141.53,1.41,10.78-1.88,18.06-.53,29.31.94,5.1,1.39,5.42,6.62,4.83,24.35-3.77,58.37-1.52,83-2.09,45-2.8,102.06-4.82,146.65,2.92,1.35.23,2.76.33,3.35-1.43,2.84-8.59.53-15.57,1.5-25.64.87-9,2.74-16.47,3.55-25.44q.3-61.72.62-123.46l.41-.08c.5,7.24,12.44,8.69,10.93,15.92-2.92,3.85-2.68,8-1.61,12.34,3.05,11.88,5.55,24,10.45,35.29,1.35,3.61,1.5,7.13-.51,10.66-5.47,9-1.69,19.56-.79,29.26,1.72,8.67-.95,10.27,5.33,17.64,3.31,5.84,3.1,21.25,11.44,21.4,12.54-3.91,25.32-1.08,37.8,1.58,2.67.5,2.68.27,3.08-2.33.83-5.36,1.69-10.73,2.91-16,.35-4.68,5.07-7.12,5.56-11.78,3.05-18.5,2.09-37.3,3.28-55.95C467.37,274.81,437.18,204.9,409.37,137.42Z" fill="#262521" stroke="#262521" stroke-linecap="round" stroke-linejoin="round" stroke-width="3"/><path d="M372.4,234.25c-15-53.75-54.7-102.31-80.54-150.71-13.41,32.32-67,38.47-86.24,4.38-13.72,24.22-29.14,47.38-41.47,72.57C141.4,201.21,123.47,249.37,123.81,291c2.21,47.16-6.5,105.22,4.55,151.13-4,1.55,230.16,7,239.61-1.7,7.29-49.19,2.51-99.28,4.17-148.9l.38-.08C372.2,288.68,369.83,272.43,372.4,234.25Z" fill="#33322e"/><g opacity="0.2"><path d="M372.14,291.56l.38-.08c-1.17-69.2,1.94-73.26-43.74-146.69,28.32,78.74,31,163.44,30.85,246.25-8.41,39-70,44.15-102.84,47-15.68,1-31.39.38-47.05,1.75-34.46,2.66-68.53,8.51-86.05-28.45a201.34,201.34,0,0,0,4.67,30.86c-4,1.55,230.16,7,239.61-1.7C375.26,391.27,370.48,341.18,372.14,291.56Z" fill="#fff"/></g><g opacity="0.2"><path d="M206,90.35c1,1.91,2.11,3.8,3.15,5.71a51.06,51.06,0,0,0,8.67,11.52c6,6,13.46,11.46,21.81,13.64,7.27,1.9,15.18.67,22.38-1.33,15.59-4.33,28.94-26.13,30-36.16l-.1-.19c-13.41,32.32-67,38.47-86.24,4.38l-.48.84C205.41,89.3,205.7,89.83,206,90.35Z" fill="#fff"/></g><path d="M204.41,48.78s4,48.55,43.68,46.73S290.93,50.1,290.93,50.1" fill="none" stroke="#636363" stroke-linecap="round" stroke-linejoin="round"/><path d="M121.8,180.85s2.11,28.61,0,44.24.11,29.7.11,32.88,1.9,33.06,1.9,33.06" fill="none" stroke="#262521" stroke-linecap="round" stroke-linejoin="round" stroke-width="3"/><path d="M371.33,188.66s1.59,62.14.81,102.9" fill="none" stroke="#262521" stroke-linecap="round" stroke-linejoin="round" stroke-width="3"/><path d="M126.88,461.87c-1.35-11.25,1.94-18.53.53-29.31-6.15-46.81-1.39-94.37-3.6-141.53" fill="none" stroke="#262521" stroke-linecap="round" stroke-linejoin="round" stroke-width="3"/><path d="M372.14,291.56q-.27,61.72-.62,123.46c-.81,9-2.68,16.41-3.55,25.44" fill="none" stroke="#262521" stroke-linecap="round" stroke-linejoin="round" stroke-width="3"/></svg>