<svg xmlns="http://www.w3.org/2000/svg" xmlns:xlink="http://www.w3.org/1999/xlink" width="500" height="550" viewBox="0 0 500 550"><defs><clipPath id="a"><path d="M248.85,237.88c-20.26-28.18-49.25-182-46.65-188.82-30.43,11-58.82,15.92-86.15,34.12C92.55,113.53,81.59,151.42,68,186.85c-23.59,59.08-28.11,123-26.19,186-.36,11.19.74,98,2.77,105.72.3,1.47,62.69,2.66,63.26-.52,1.45-8,2.86-179.6,5.23-190.27,1.35-2.86,13.78-67,15.19-69.81,2.21,47.15-8.87,215.9-1.17,247.91.5,2.06,93.73,19.49,110.48-1.4S248.85,261,248.85,237.88Z" fill="none"/></clipPath><clipPath id="b"><path d="M204.35,70.17,175.94,102C185,124.51,219.85,220.09,247.41,235l.63-4.76C226.5,196.41,210.64,106,204.35,70.17Z" fill="none"/></clipPath><clipPath id="c"><path d="M208.43,39.24s-11.51.26-22.73,20.62C176.23,77,172,80.56,172,80.56l15.43,8.37L204.83,73.2,202.6,49.4Z" fill="none"/></clipPath><clipPath id="d"><path d="M457.2,336.13c-2.15-75.82-17.9-126.54-45.71-194C402.66,122.88,397,99.48,381,84.9c-26.38-17.18-58.6-25.14-87.72-35.64C289.64,47.73,271.49,184.15,239,241.2c0,26.15,9.35,210.38,25.06,226.63s114.41,2.05,114.58,1.44c6.89-23.52-11.52-249.35-11.38-249.37.51,7.24,17.36,62,19.83,69,2.65,7.45,8.93,187.71,11.53,191.53,3.78,5.55,60,6,60,.13C458.6,475.12,457.72,354.82,457.2,336.13Z" fill="none"/></clipPath><clipPath id="e"><path d="M287.77,72.62l32,28.43c-3.4,20-27.73,114.39-79.81,148.62l-1-8.47C256.36,212.52,281.48,108.48,287.77,72.62Z" fill="none"/></clipPath><clipPath id="f"><path d="M287.48,41.6s12.57,0,23.79,20.36c9.47,17.18,12.63,21,12.63,21l-18.24,5.6-17.89-15.9,4-23.36Z" fill="none"/></clipPath></defs><title>s02e12-02</title><path d="M277.92,31.37c-39.41-8.24-62.34,0-62.34,0l27.33,55.09Z" fill="#fff" stroke="#262521" stroke-linecap="round" stroke-linejoin="round" stroke-width="3"/><polyline points="285.2 47.74 346.76 75.84 247.97 275 150.44 70.61 208.53 47.74" fill="#fff" stroke="#262521" stroke-linecap="round" stroke-linejoin="round" stroke-width="3"/><path d="M215.58,31.37S231.44,54,246,65.13L214.6,86.46s-12.33-34.13-8.44-41.67A66.81,66.81,0,0,1,215.58,31.37Z" fill="#fff" stroke="#262521" stroke-linecap="round" stroke-linejoin="round" stroke-width="3"/><path d="M277.92,31.37S262.06,54,247.47,65.13l31.42,21.33s13.93-33,10-40.56S277.92,31.37,277.92,31.37Z" fill="#fff" stroke="#262521" stroke-linecap="round" stroke-linejoin="round" stroke-width="3"/><g clip-path="url(#a)"><rect x="22.18" y="31.37" width="267.44" height="469" fill="#262521"/><rect x="58.45" y="57.62" width="6.96" height="427.13" fill="#3f4954" opacity="0.6"/><rect x="44.53" y="57.62" width="6.96" height="427.13" fill="#3f4954" opacity="0.6"/><rect x="72.42" y="57.62" width="6.96" height="427.13" fill="#3f4954" opacity="0.6"/><rect x="86.33" y="57.62" width="6.96" height="427.13" fill="#3f4954" opacity="0.6"/><rect x="100.3" y="57.62" width="6.96" height="427.13" fill="#3f4954" opacity="0.6"/><rect x="114.73" y="57.62" width="6.96" height="427.13" fill="#3f4954" opacity="0.6"/><rect x="128.7" y="57.62" width="6.96" height="427.13" fill="#3f4954" opacity="0.6"/><rect x="142.61" y="57.62" width="6.96" height="427.13" fill="#3f4954" opacity="0.6"/><rect x="156.58" y="57.62" width="6.96" height="427.13" fill="#3f4954" opacity="0.6"/><rect x="171.05" y="57.62" width="6.96" height="427.13" fill="#3f4954" opacity="0.6"/><rect x="185.01" y="57.62" width="6.96" height="427.13" fill="#3f4954" opacity="0.6"/><rect x="198.92" y="57.62" width="6.96" height="427.13" fill="#3f4954" opacity="0.6"/><rect x="212.89" y="57.62" width="6.96" height="427.13" fill="#3f4954" opacity="0.6"/><rect x="227.11" y="57.62" width="6.96" height="427.13" fill="#3f4954" opacity="0.6"/><rect x="241.08" y="57.62" width="6.96" height="427.13" fill="#3f4954" opacity="0.6"/></g><path d="M239.25,91.51s-5.59,135.71-.3,149.69,21.89,13,21.85-4.13,1.48-17-7.65-145.56Z" fill="#262521"/><g clip-path="url(#b)"><rect x="176.45" y="73" width="83.75" height="205.19" transform="translate(487.65 252.83) rotate(157.19)" fill="#262521"/><rect x="238.94" y="63.21" width="6.96" height="197.75" transform="translate(528.72 217.53) rotate(157.19)" fill="#3f4954" opacity="0.6"/><rect x="226.06" y="68.63" width="6.96" height="197.75" transform="translate(506.07 232.93) rotate(157.19)" fill="#3f4954" opacity="0.6"/><rect x="213.24" y="74.02" width="6.96" height="197.75" transform="translate(483.52 248.25) rotate(157.19)" fill="#3f4954" opacity="0.6"/><rect x="200.37" y="79.43" width="6.96" height="197.75" transform="translate(460.88 263.65) rotate(157.19)" fill="#3f4954" opacity="0.6"/></g><g clip-path="url(#c)"><rect x="167.05" y="24.48" width="57.34" height="74.4" transform="translate(257.4 -134.04) rotate(90)" fill="#262521"/><rect x="191.12" y="5.18" width="6.96" height="71.7" transform="translate(235.63 -153.56) rotate(90)" fill="#3f4954" opacity="0.6"/><rect x="191.12" y="19.62" width="6.96" height="71.7" transform="translate(250.06 -139.13) rotate(90)" fill="#3f4954" opacity="0.6"/><rect x="191.12" y="33.59" width="6.96" height="71.7" transform="translate(264.03 -125.16) rotate(90)" fill="#3f4954" opacity="0.6"/><rect x="191.12" y="47.49" width="6.96" height="71.7" transform="translate(277.94 -111.25) rotate(90)" fill="#3f4954" opacity="0.6"/></g><path d="M248.85,237.88c-20.26-28.18-49.25-182-46.65-188.82l6.4-9.82S195,41.6,188.41,54.07C163.5,62,138.9,68,116.05,83.18,92.55,113.53,81.59,151.42,68,186.85c-23.59,59.08-28.11,123-26.19,186-.36,11.19.74,98,2.77,105.72.3,1.47,62.69,2.66,63.26-.52,1.45-8,2.86-179.6,5.23-190.27,1.35-2.86,13.78-67,15.19-69.81,2.21,47.15-8.87,215.9-1.17,247.91.5,2.06,93.73,19.49,110.48-1.4S248.85,261,248.85,237.88Z" fill="none" stroke="#262521" stroke-linecap="round" stroke-linejoin="round" stroke-width="3"/><g clip-path="url(#d)"><rect x="218.72" y="37.85" width="267.44" height="469" fill="#262521"/><rect x="255" y="39.24" width="6.96" height="451.99" fill="#3f4954" opacity="0.6"/><rect x="241.07" y="39.24" width="6.96" height="451.99" fill="#3f4954" opacity="0.6"/><rect x="268.96" y="39.24" width="6.96" height="451.99" fill="#3f4954" opacity="0.6"/><rect x="282.87" y="39.24" width="6.96" height="451.99" fill="#3f4954" opacity="0.6"/><rect x="296.84" y="39.24" width="6.96" height="451.99" fill="#3f4954" opacity="0.6"/><rect x="311.27" y="39.24" width="6.96" height="451.99" fill="#3f4954" opacity="0.6"/><rect x="325.24" y="39.24" width="6.96" height="451.99" fill="#3f4954" opacity="0.6"/><rect x="339.15" y="39.24" width="6.96" height="451.99" fill="#3f4954" opacity="0.6"/><rect x="353.12" y="39.24" width="6.96" height="451.99" fill="#3f4954" opacity="0.6"/><rect x="367.59" y="39.24" width="6.96" height="451.99" fill="#3f4954" opacity="0.6"/><rect x="381.56" y="39.24" width="6.96" height="451.99" fill="#3f4954" opacity="0.6"/><rect x="395.46" y="39.24" width="6.96" height="451.99" fill="#3f4954" opacity="0.6"/><rect x="409.43" y="39.24" width="6.96" height="451.99" fill="#3f4954" opacity="0.6"/><rect x="423.65" y="39.24" width="6.96" height="451.99" fill="#3f4954" opacity="0.6"/><rect x="437.62" y="39.24" width="6.96" height="451.99" fill="#3f4954" opacity="0.6"/><rect x="451.64" y="39.24" width="6.96" height="451.99" fill="#3f4954" opacity="0.6"/></g><path d="M457.2,336.13c-2.15-75.82-17.9-126.54-45.71-194C402.66,122.88,397,99.48,381,84.9c-22.67-14.77-49.65-22.72-75.27-31.33-9.46-12-18.28-12-18.28-12l4.33,7.66-2.23,12.9c-7.46,35.13-24.35,133-50.63,179,0,26.15,9.35,210.38,25.06,226.63s114.41,2.05,114.58,1.44c6.89-23.52-11.52-249.35-11.38-249.37.51,7.24,17.36,62,19.83,69,2.65,7.45,8.93,187.71,11.53,191.53,3.78,5.55,60,6,60,.13C458.6,475.12,457.72,354.82,457.2,336.13Z" fill="none" stroke="#262521" stroke-linecap="round" stroke-linejoin="round" stroke-width="3"/><g clip-path="url(#e)"><rect x="233.03" y="67.91" width="83.75" height="205.19" transform="translate(87.59 -93.23) rotate(22.81)" fill="#262521"/><rect x="247.33" y="58.12" width="6.96" height="197.75" transform="translate(80.47 -84.95) rotate(22.81)" fill="#3f4954" opacity="0.6"/><rect x="260.2" y="63.54" width="6.96" height="197.75" transform="translate(83.58 -89.52) rotate(22.81)" fill="#3f4954" opacity="0.6"/><rect x="273.02" y="68.93" width="6.96" height="197.75" transform="translate(86.67 -94.06) rotate(22.81)" fill="#3f4954" opacity="0.6"/><rect x="285.9" y="74.34" width="6.96" height="197.75" transform="translate(89.78 -98.63) rotate(22.81)" fill="#3f4954" opacity="0.6"/></g><g clip-path="url(#f)"><rect x="271.52" y="26.84" width="57.34" height="74.4" transform="translate(364.23 -236.15) rotate(90)" fill="#262521"/><rect x="297.84" y="7.54" width="6.96" height="71.7" transform="translate(344.71 -257.93) rotate(90)" fill="#3f4954" opacity="0.6"/><rect x="297.84" y="21.98" width="6.96" height="71.7" transform="translate(359.15 -243.49) rotate(90)" fill="#3f4954" opacity="0.6"/><rect x="297.84" y="35.95" width="6.96" height="71.7" transform="translate(373.12 -229.52) rotate(90)" fill="#3f4954" opacity="0.6"/><rect x="297.84" y="49.85" width="6.96" height="71.7" transform="translate(387.02 -215.62) rotate(90)" fill="#3f4954" opacity="0.6"/></g><path d="M239.51,241.46c0,26.15,8.79,210.12,24.5,226.37" fill="none" stroke="#4c5760" stroke-linecap="round" stroke-linejoin="round"/><path d="M253,69.3A29.28,29.28,0,0,0,232.73,74a2.41,2.41,0,0,0-1,1,2.59,2.59,0,0,0,0,1.58A81.25,81.25,0,0,0,237.64,93a7.12,7.12,0,0,0,2,2.78,6.9,6.9,0,0,0,3.69,1,47.31,47.31,0,0,0,6.84-.1,4.09,4.09,0,0,0,2.18-.64,4.21,4.21,0,0,0,1.14-1.79A127.78,127.78,0,0,0,258,81.49a16.41,16.41,0,0,0,.93-6.26,6.07,6.07,0,0,0-3.34-5.07" fill="#262521"/><path d="M308.34,57.09,323.9,82.92l-18.24,5.6,14.12,12.53C313.07,146,281.94,220.71,240,249.67" fill="none" stroke="#4c5760" stroke-linecap="round" stroke-linejoin="round"/><path d="M187.16,57.62,172,80.82l15.43,8.11L175.94,102s41.64,107.61,64.62,128.18" fill="none" stroke="#4c5760" stroke-linecap="round" stroke-linejoin="round"/><polyline points="298.26 171.2 353.19 171.2 353.19 185.44 291.62 185.44" fill="none" stroke="#4c5760" stroke-linecap="round" stroke-linejoin="round"/><circle cx="245.96" cy="256.44" r="3.22" fill="#262521"/><path d="M364.14,369.53H305.42a6.92,6.92,0,0,1-6.9-6.89V353.8c0-3.79,72.52-3.79,72.52,0v8.84A6.92,6.92,0,0,1,364.14,369.53Z" fill="none" stroke="#4c5760" stroke-linecap="round" stroke-linejoin="round"/><path d="M197.79,369.53H139.07a6.92,6.92,0,0,1-6.9-6.89V353.8c0-3.79,72.52-3.79,72.52,0v8.84A6.92,6.92,0,0,1,197.79,369.53Z" fill="none" stroke="#4c5760" stroke-linecap="round" stroke-linejoin="round"/></svg>