<svg xmlns="http://www.w3.org/2000/svg" width="500" height="550" viewBox="0 0 500 550"><defs><pattern id="a" width="15.02" height="16.06" patternTransform="translate(.08 -.39)" patternUnits="userSpaceOnUse" viewBox="0 0 15.02 16.06"><path fill="none" d="M0 0h15.02v16.06H0z"/><path fill="#262521" d="M0 0h7.51v16.06H0z"/><path fill="#353b3f" d="M7.51 0h7.51v16.06H7.51z"/></pattern><pattern id="b" width="15.02" height="16.06" patternTransform="scale(1 -1) rotate(23 -50.684 12.658)" patternUnits="userSpaceOnUse" viewBox="0 0 15.02 16.06"><path fill="none" d="M0 0h15.02v16.06H0z"/><path fill="#262521" d="M0 0h7.51v16.06H0z"/><path fill="#353b3f" d="M7.51 0h7.51v16.06H7.51z"/></pattern><pattern id="c" width="15.02" height="16.06" patternTransform="rotate(90 5.38 -4.84)" patternUnits="userSpaceOnUse" viewBox="0 0 15.02 16.06"><path fill="none" d="M0 0h15.02v16.06H0z"/><path fill="#262521" d="M0 0h7.51v16.06H0z"/><path fill="#353b3f" d="M7.51 0h7.51v16.06H7.51z"/></pattern><pattern id="d" width="15.02" height="16.06" patternTransform="rotate(-157.19 -.88 -4.105)" patternUnits="userSpaceOnUse" viewBox="0 0 15.02 16.06"><path fill="none" d="M0 0h15.02v16.06H0z"/><path fill="#262521" d="M0 0h7.51v16.06H0z"/><path fill="#353b3f" d="M7.51 0h7.51v16.06H7.51z"/></pattern></defs><path d="M277.92 31.37c-39.41-8.24-62.34 0-62.34 0l27.33 55.09z" fill="#fff" stroke="#262521" stroke-linecap="round" stroke-linejoin="round" stroke-width="3"/><path fill="#fff" stroke="#262521" stroke-linecap="round" stroke-linejoin="round" stroke-width="3" d="M285.2 47.74l61.56 28.1L247.97 275 150.44 70.61l58.09-22.87"/><path d="M215.58 31.37S231.44 54 246 65.13l-31.4 21.33s-12.33-34.13-8.44-41.67a66.81 66.81 0 019.42-13.42zM277.92 31.37S262.06 54 247.47 65.13l31.42 21.33s13.93-33 10-40.56-10.97-14.53-10.97-14.53z" fill="#fff" stroke="#262521" stroke-linecap="round" stroke-linejoin="round" stroke-width="3"/><path d="M248.85 237.88c-20.26-28.18-49.25-182-46.65-188.82l6.4-9.82S195 41.6 188.41 54.07C163.5 62 138.9 68 116.05 83.18 92.55 113.53 81.59 151.42 68 186.85c-23.59 59.08-28.11 123-26.19 186-.36 11.19.74 98 2.77 105.72.3 1.47 62.69 2.66 63.26-.52 1.45-8 2.86-179.6 5.23-190.27 1.35-2.86 13.78-67 15.19-69.81 2.21 47.15-8.87 215.9-1.17 247.91.5 2.06 93.73 19.49 110.48-1.4s11.28-203.48 11.28-226.6z" fill="#262521"/><path d="M457.2 336.13c-2.15-75.82-17.9-126.54-45.71-194C402.66 122.88 397 99.48 381 84.9c-22.67-14.77-49.65-22.72-75.27-31.33-9.46-12-18.28-12-18.28-12l4.33 7.66-2.23 12.9c-7.46 35.13-24.35 133-50.63 179 0 26.15 9.35 210.38 25.06 226.63s114.41 2.05 114.58 1.44c6.89-23.52-11.52-249.35-11.38-249.37.51 7.24 17.36 62 19.83 69 2.65 7.45 8.93 187.71 11.53 191.53 3.78 5.55 60 6 60 .13.06-5.37-.82-125.67-1.34-144.36z" fill="#262521"/><path d="M248.85 237.88c-20.26-28.18-49.25-182-46.65-188.82l6.4-9.82S195 41.6 188.41 54.07C163.5 62 138.9 68 116.05 83.18 92.55 113.53 81.59 151.42 68 186.85c-23.59 59.08-28.11 123-26.19 186-.36 11.19.74 98 2.77 105.72.3 1.47 62.69 2.66 63.26-.52 1.45-8 2.86-179.6 5.23-190.27 1.35-2.86 13.78-67 15.19-69.81 2.21 47.15-8.87 215.9-1.17 247.91.5 2.06 93.73 19.49 110.48-1.4s11.28-203.48 11.28-226.6z" stroke="#262521" stroke-linecap="round" stroke-linejoin="round" stroke-width="3" fill="url(#a)"/><path d="M239.25 91.51s-5.59 135.71-.3 149.69 21.89 13 21.85-4.13 1.48-17-7.65-145.56z" fill="#262521"/><path d="M204.35 70.17L175.94 102c9.06 22.51 43.91 118.09 71.47 133l.63-4.76C226.5 196.41 210.64 106 204.35 70.17z" fill="url(#b)"/><path d="M457.2 336.13c-2.15-75.82-17.9-126.54-45.71-194C402.66 122.88 397 99.48 381 84.9c-22.67-14.77-49.65-22.72-75.27-31.33-9.46-12-18.28-12-18.28-12l4.33 7.66-2.23 12.9c-7.46 35.13-24.35 133-50.63 179 0 26.15 9.35 210.38 25.06 226.63s114.41 2.05 114.58 1.44c6.89-23.52-11.52-249.35-11.38-249.37.51 7.24 17.36 62 19.83 69 2.65 7.45 8.93 187.71 11.53 191.53 3.78 5.55 60 6 60 .13.06-5.37-.82-125.67-1.34-144.36z" stroke="#262521" stroke-linecap="round" stroke-linejoin="round" stroke-width="3" fill="url(#a)"/><path d="M208.43 39.24s-11.51.26-22.73 20.62C176.23 77 172 80.56 172 80.56l15.43 8.37 17.4-15.73-2.23-23.8z" fill="url(#c)"/><path d="M287.77 72.62l32 28.43c-3.4 20-27.73 114.39-79.81 148.62l-1-8.47c17.4-28.68 42.52-132.72 48.81-168.58z" fill="url(#d)"/><path d="M287.48 41.6s12.57 0 23.79 20.36c9.47 17.18 12.63 21 12.63 21l-18.24 5.6-17.89-15.9 4-23.36z" fill="url(#c)"/><path d="M244.14 229.49C224.4 187.36 199.8 55.4 202.2 49.06l6.4-9.82S195 41.6 188.41 54.07" fill="none" stroke="#262521" stroke-linecap="round" stroke-linejoin="round" stroke-width="3"/><path d="M305.76 53.57c-9.46-12-18.28-12-18.28-12l4.33 7.66-2.23 12.9c-7.46 35.13-24.35 133-50.63 179" fill="none" stroke="#262521" stroke-linecap="round" stroke-linejoin="round" stroke-width="3"/><path d="M253 69.3a29.28 29.28 0 00-20.27 4.7 2.41 2.41 0 00-1 1 2.59 2.59 0 000 1.58A81.25 81.25 0 00237.64 93a7.12 7.12 0 002 2.78 6.9 6.9 0 003.69 1 47.31 47.31 0 006.84-.1 4.09 4.09 0 002.18-.64 4.21 4.21 0 001.14-1.79A127.78 127.78 0 00258 81.49a16.41 16.41 0 00.93-6.26 6.07 6.07 0 00-3.34-5.07" fill="#262521"/><circle cx="245.96" cy="256.44" r="3.22" fill="#262521"/><path d="M239.51 241.46c0 26.15 8.79 210.12 24.5 226.37M308.34 57.09l15.56 25.83-18.24 5.6 14.12 12.53C313.07 146 281.94 220.71 240 249.67M187.16 57.62L172 80.82l15.43 8.11L175.94 102s41.64 107.61 64.62 128.18" fill="none" stroke="#546068" stroke-linecap="round" stroke-linejoin="round"/><path fill="none" stroke="#546068" stroke-linecap="round" stroke-linejoin="round" d="M298.26 171.2h54.93v14.24h-61.57M364.14 369.53h-58.72a6.92 6.92 0 01-6.9-6.89v-8.84c0-3.79 72.52-3.79 72.52 0v8.84a6.92 6.92 0 01-6.9 6.89zM197.79 369.53h-58.72a6.92 6.92 0 01-6.9-6.89v-8.84c0-3.79 72.52-3.79 72.52 0v8.84a6.92 6.92 0 01-6.9 6.89z"/></svg>