<svg xmlns="http://www.w3.org/2000/svg" width="500" height="550" viewBox="0 0 500 550"><path d="M184.68 48.65q-7.55.15-15.11-.16a5.75 5.75 0 014 5.08L161 48.28l9.28 9.62-12.78-.39a12.65 12.65 0 015.16 2.15 64 64 0 00-16.82 0 25.86 25.86 0 006.27 6.21 40.53 40.53 0 00-17.4 2.74 22.17 22.17 0 007.62 1.62" fill="#262521"/><path d="M184.68 47.15q-7.55.14-15.11-.16c-1.76-.07-1.93 2.42-.39 2.95a4.28 4.28 0 012.82 3.63l1.9-1.44-12.57-5.3c-1.46-.62-2.41 1.52-1.46 2.51l9.31 9.66 1.06-2.56-12.78-.44c-1.66 0-2.08 2.63-.4 3a12.36 12.36 0 014.81 2l.75-2.79a65.76 65.76 0 00-16.82 0c-1 .13-2.05 1.22-1.3 2.26a29.24 29.24 0 006.81 6.74l.76-2.79a42.57 42.57 0 00-17.8 2.79 1.51 1.51 0 000 2.89 24.5 24.5 0 008 1.68c1.93.09 1.92-2.91 0-3a22.09 22.09 0 01-7.22-1.57v2.89a40.42 40.42 0 0117-2.68c1.61.09 1.87-2 .75-2.8a24.87 24.87 0 01-5.73-5.67l-1.29 2.26a65.76 65.76 0 0116.82 0c1.62.21 1.84-2 .76-2.8a14.61 14.61 0 00-5.52-2.3l-.4 2.95 12.78.39a1.51 1.51 0 001.06-2.56L162 47.22l-1.46 2.5 12.6 5.28a1.5 1.5 0 001.86-1.43 7.41 7.41 0 00-5-6.57l-.4 3q7.56.3 15.11.16c1.93 0 1.94-3 0-3z" fill="#262521"/><path d="M338.6 58.43c-5.35-3.37-4.85-8.67-6.86-12.68s-8.35 1-8.35 1-6.52-9.53-10.7-14.77S257 33.22 257 33.22h-6c-10.95-1.37-57.91-4.79-63.07 2.3-5.85 8-7.19 8-7.19 8s-4.85-4.85-8.69 0-21 17.48-17.66 23.8 38.11 17.55 38.11 17.55l58 23.79S345.45 72 346.79 67.82s-2.79-6.02-8.19-9.39z" fill="#262521" stroke="#262521" stroke-linecap="round" stroke-linejoin="round" stroke-width="3"/><path d="M372.64 291.56q-.27 61.73-.64 123.44c-.81 9-2.68 16.41-3.55 25.44-1 10.07 1.34 17.05-1.5 25.64-.59 1.76-2 1.66-3.35 1.43-44.6-7.72-101.6-5.7-146.6-2.9-24.6.57-58.62-1.68-83 2.09-5.23.59-5.68.27-6.62-4.83-1.35-11.26 1.94-18.53.53-29.31-6.15-46.82-1.39-94.37-3.6-141.53-1.42 2.83-2.94 5.6-4.29 8.46-2.37 10.68-17.5 9.3-11.81 16.18 11.11 7.95 6.41 21.38 5.15 32.56-.25 3.15-1.35 6.27-.37 9.58.51 8.44-3.19 16.94-4.38 25.31-1.5 8-2.61 15.83-1.54 23.93a5.1 5.1 0 01-1.13 3.3c-5.71 6.28-7.75 14-9.19 22.06-.57 3.18-.61 3-3.74 2-12.38-3.52-26.09-4.38-38.6-1.18-1.39.34-2.11 0-2.41-1.47-2-7.76-2.18-16.67-8.49-22.43a6.62 6.62 0 01-1.33-3.21 144.54 144.54 0 01-2.72-33.31c-1.91-63 2.6-126.93 26.19-186 13.61-35.43 24.56-73.32 48.07-103.67C141 65 173.75 59.42 204.18 48.4c.8-.26 84.13-1.31 87.8.23C321.1 59.12 353 63 379.42 80.21c15.94 14.59 21.63 38 30.45 57.21 27.81 67.48 58 137.39 51.05 212.08-1.19 18.65-.23 37.45-3.28 55.95-.49 4.66-5.21 7.1-5.56 11.78-1.22 5.28-2.08 10.65-2.91 16-.4 2.6-.41 2.83-3.08 2.33-12.48-2.66-25.26-5.49-37.8-1.58-8.34-.15-8.13-15.56-11.44-21.4-6.28-7.37-3.61-9-5.33-17.64-.9-9.7-4.68-20.27.79-29.26 2-3.53 1.86-7.05.51-10.66-4.9-11.28-7.4-23.41-10.45-35.29-1.07-4.3-1.31-8.49 1.61-12.34 1.51-7.23-10.43-8.68-10.93-15.93z" fill="#262521" stroke="#262521" stroke-linecap="round" stroke-linejoin="round" stroke-width="3"/><path d="M244.27 92.41c-77.51-40.94-51.11-43.56-36.17-46.34 16.21-3 67.31-4.92 82.68-2.58 16.47 2.51 47.9 7.89-29.18 48.92" fill="none" stroke="#636363" stroke-linecap="round" stroke-linejoin="round" opacity=".95"/><path d="M156.58 68.23c18-2.15 88.89 41.75 97.22 41.75s44.9-37.18 88.06-44" fill="none" stroke="#636363" stroke-linecap="round" stroke-linejoin="round" opacity=".95"/><path d="M243.21 90.66a7.5 7.5 0 015.47-3.66 28.41 28.41 0 0116.37 2.29 8.49 8.49 0 014.57 5.4 36.45 36.45 0 011.51 11.7 34.23 34.23 0 01-1.07 8 10.38 10.38 0 01-6.41 7.31 44.44 44.44 0 01-7.28 2.65c-3.86.88-7.74.71-10.81-2.29-1.69-1.65-2.23-4-2.79-6.29a56.67 56.67 0 01-1.1-19.17 44.66 44.66 0 011.54-5.94zM240.6 165c-.34-6.68-.14-13.31 1.89-19.77.26-.8.62-1.57.9-2.37 1.15-3.21 3.65-4.51 6.82-5.07a16.28 16.28 0 019.46 1.53 47 47 0 016.08 3c2.67 1.64 3.69 4.39 4.22 7.33a37.08 37.08 0 01-1.17 17.84c-1.14 3.65-3.91 5.42-7.39 6.45a31.4 31.4 0 01-13 1.09 8.27 8.27 0 01-6.19-3.69c-.22-.26-1.61-6.01-1.62-6.34z" fill="#221717" stroke="#636363" stroke-miterlimit="10" opacity=".95"/><path d="M241 81.74c-.83 2.9-4.43 19.26-2.13 30.5.79 3.83 1.58 10.23 5.87 14.08 0 0-2.88 4.77.35 8.74-.48 1.65-5.52 4.21-6.93 17-.4 3.65-2.42 17.64 2.12 28.73.28.69.46 1.09 1.17 1.11 3.74 0 6.67.25 7.66-.57s4.84-6.34 5.17-6.77a29.76 29.76 0 01-5.49-.19 7.86 7.86 0 01-5.91-3.53c-.18-.28-1.51-5.78-1.52-6.06-.32-6.38-.13-12.72 1.81-18.89.24-.77.59-1.51.86-2.27 1.1-3.07 3.48-4.31 6.52-4.84a15.75 15.75 0 014.16-.1s.92.06 1-1.19-1.75-1.69-2.24-1.86c-1-.36-3.2-1.55-3.24-2.66s0-2.49 0-3.73c.07-1 2.15-2.22 3.13-2.54.41-.14 2.25-.65 2.11-1.87-.12-1-1.23-1.07-1.28-1.1a10.81 10.81 0 01-8.28-2.56c-1.63-1.55-2.15-3.8-2.7-5.94a52.48 52.48 0 01-1.06-18.1 40.76 40.76 0 011.49-5.59 7.19 7.19 0 015.3-3.54 29.29 29.29 0 016.86-.19 63 63 0 00-6.32-6.81c-1.3-1-3.29-.54-6.82-.72-1.56-.07-1.28.17-1.66 1.46z" fill="#d2d6d3" stroke="#636363" stroke-linecap="round" stroke-linejoin="round"/><path d="M221.14 92.41q1.86 26.52 2.49 53.1t0 53.4q-.36 15-1.11 30c-.1 1.93 2.9 1.92 3 0q1.32-26.55 1.42-53.14t-1.09-53.39q-.66-15-1.71-30c-.14-1.91-3.14-1.93-3 0z" fill="#636363"/><path d="M224.72 214.61a2.47 2.47 0 00-2.3 1.83 2.57 2.57 0 00.63 2.6 2.66 2.66 0 003.16.28 2.8 2.8 0 001.38-2.76 3 3 0 00-.75-1.61 3.27 3.27 0 00-1.35-.88 3.15 3.15 0 00-2.87.39 3.91 3.91 0 00-1.63 2.41 4.11 4.11 0 000 1.6 3.34 3.34 0 00.72 1.4 2.6 2.6 0 003.31.54 2.49 2.49 0 001-3.36 1.6 1.6 0 00-.9-.69 1.5 1.5 0 00-1.69 2.21l.06.11-.15-.35a.65.65 0 010 .2v-.4a.49.49 0 010 .17v-.4a1.05 1.05 0 01-.06.24l.15-.36a1.43 1.43 0 01-.15.27l.23-.31a1.25 1.25 0 01-.23.23l.31-.24a1.5 1.5 0 01-.32.19l.36-.16a1.29 1.29 0 01-.26.08l.4-.06a1.22 1.22 0 01-.27 0l.4.05a1.07 1.07 0 01-.27-.08l.35.15a1.2 1.2 0 01-.24-.15l.3.24a1.72 1.72 0 01-.27-.27l.23.3a1.76 1.76 0 01-.21-.38l.15.36a2 2 0 01-.14-.54l.05.4a2.62 2.62 0 010-.56l-.05.4a2.64 2.64 0 01.15-.55l-.15.35a3.4 3.4 0 01.31-.52l-.24.3a2.44 2.44 0 01.43-.42l-.31.23a2.2 2.2 0 01.47-.27l-.36.15a1.51 1.51 0 01.46-.13l-.39.05a1.48 1.48 0 01.42 0l-.39-.05a2.08 2.08 0 01.41.11l-.36-.15a1.76 1.76 0 01.42.24l-.31-.24a1.77 1.77 0 01.31.3l-.24-.3a1.65 1.65 0 01.22.36l-.15-.36a2 2 0 01.09.35v-.4a1.6 1.6 0 010 .31v-.4a1.09 1.09 0 01-.08.31l.15-.36a1.61 1.61 0 01-.17.28l.24-.31a2.23 2.23 0 01-.26.27l.3-.24a1.5 1.5 0 01-.32.19l.36-.15a1.54 1.54 0 01-.35.1h.4-.32.4a.84.84 0 01-.26-.07l.36.16a1.22 1.22 0 01-.19-.12l.3.24-.16-.16.23.3a1.18 1.18 0 01-.11-.19l.15.35a1 1 0 01-.08-.29l.05.4a1.6 1.6 0 010-.31l-.05.39a2.14 2.14 0 01.09-.34l-.15.36a1.35 1.35 0 01.15-.26l-.24.3a1.07 1.07 0 01.19-.18l-.31.23a1.18 1.18 0 01.19-.11l-.36.16a.61.61 0 01.18-.05l-.4.05h.12a1.5 1.5 0 001.5-1.5 1.54 1.54 0 00-1.5-1.5zM278.49 87.74c1.23 17.66 1.49 35.36 1.5 53.05s-.2 35.45.14 53.17c.19 10.11.56 20.23 1.24 30.32.13 1.92 3.13 1.93 3 0-1.19-17.75-1.43-35.56-1.43-53.35s.2-35.39-.16-53.08c-.2-10-.59-20.08-1.29-30.11-.14-1.91-3.14-1.93-3 0z" fill="#636363"/><path d="M283.07 210a2.46 2.46 0 00-2.3 1.82 2.59 2.59 0 00.63 2.6 2.66 2.66 0 003.16.28 2.78 2.78 0 001.44-2.8 3.09 3.09 0 00-.76-1.62 3.3 3.3 0 00-1.35-.88 3.17 3.17 0 00-2.86.39 3.79 3.79 0 00-1.61 4 3.25 3.25 0 00.73 1.4 2.59 2.59 0 003.3.55 2.48 2.48 0 001-3.36 1.52 1.52 0 00-.9-.69 1.5 1.5 0 00-1.15.15 1.52 1.52 0 00-.54 2.05.67.67 0 01.06.12l-.15-.36a.76.76 0 01.06.2l-.06-.4a.49.49 0 010 .17l.06-.4a1 1 0 01-.07.24l.15-.35a1.35 1.35 0 01-.15.26l.23-.3a1.52 1.52 0 01-.22.22l.3-.24a1.29 1.29 0 01-.32.19l.36-.15-.26.07h.4-.27.4a.84.84 0 01-.27-.08l.36.15a2 2 0 01-.25-.14l.3.23a1.72 1.72 0 01-.27-.27l.24.3a1.57 1.57 0 01-.22-.38l.15.36a2.44 2.44 0 01-.14-.53v.4a2.09 2.09 0 010-.56l-.06.4a2.12 2.12 0 01.16-.56l-.15.36a2.78 2.78 0 01.3-.53l-.23.31a2.44 2.44 0 01.42-.43l-.31.23a2.2 2.2 0 01.47-.27l-.36.15a1.93 1.93 0 01.47-.13h-.4.41-.4a1.91 1.91 0 01.41.11l-.36-.15a1.76 1.76 0 01.42.24l-.3-.23a1.7 1.7 0 01.3.3l-.23-.31a2.12 2.12 0 01.21.36l-.15-.36a1.54 1.54 0 01.1.35l-.06-.4a1.6 1.6 0 010 .31l.06-.4a1.58 1.58 0 01-.09.31l.15-.36a1.56 1.56 0 01-.16.28l.23-.3a1.6 1.6 0 01-.26.26l.3-.23a2.46 2.46 0 01-.32.19l.36-.16a1.42 1.42 0 01-.35.11l.4-.06a.81.81 0 01-.31 0l.4.06-.26-.07.36.15-.2-.11.3.23a1.21 1.21 0 01-.16-.16l.23.3a1.18 1.18 0 01-.11-.19l.15.36a1.67 1.67 0 01-.08-.3l.06.4a1.61 1.61 0 010-.31l-.06.4a1.89 1.89 0 01.09-.34l-.15.36a1.17 1.17 0 01.15-.27l-.23.3a1.53 1.53 0 01.18-.18l-.3.24a.87.87 0 01.18-.11l-.35.15h.18-.4.11a1.5 1.5 0 000-3z" fill="#636363"/><path d="M228.78 39.48a53.55 53.55 0 00-15.33-12.13 24.34 24.34 0 0112.29 2.57l-3.3-6.13a45.66 45.66 0 0111 11.19 128.8 128.8 0 01-9-16.59 32.46 32.46 0 0113.17 14A53 53 0 00234.46 13a226.48 226.48 0 0111.6 23.87l.45-7.86a25.79 25.79 0 014.83 8.69l.46-13.4 3.83 6.5-1.4-9.68 3.93 7.44 2.84-9.84.39 15.13 7.22-13.5-1.91 12.34 8-7.2-4.31 8.34a48.61 48.61 0 0114.56-11.6 33 33 0 01-4.63 8.45 19.3 19.3 0 008.31-2 3.92 3.92 0 01-1.11 4.61" fill="#262521"/><path d="M229.84 38.42a56 56 0 00-15.63-12.37l-.76 2.8A23.33 23.33 0 01225 31.22a1.52 1.52 0 002.06-2L223.73 23l-2 2a44.89 44.89 0 0110.51 10.66c1.09 1.56 3.64.13 2.59-1.52a131.28 131.28 0 01-9-16.58l-2.05 2.05a31.42 31.42 0 0112.62 13.46c.69 1.39 2.77.65 2.8-.75a55.21 55.21 0 00-3.27-19.85l-2.74 1.15a229.86 229.86 0 0111.44 23.52 1.51 1.51 0 002.95-.4L248 29l-2.55 1a24.7 24.7 0 014.44 8 1.51 1.51 0 003-.4l.46-13.4-2.79.76 3.83 6.49c.92 1.57 3 .44 2.74-1.15l-1.4-9.68-2.74 1.16 3.93 7.44a1.51 1.51 0 002.74-.36l2.85-9.79-2.95-.4.39 15.13a1.51 1.51 0 002.79.75l7.23-13.5-2.79-1.05-1.92 12.34a1.51 1.51 0 002.5 1.46l8-7.2-2.36-1.82-4.3 8.34c-.74 1.43 1.19 3.17 2.35 1.82a48.34 48.34 0 0114.26-11.36l-2.21-1.7a32.78 32.78 0 01-4.5 8.04 1.51 1.51 0 001.29 2.26 22 22 0 009.07-2.18l-2.2-.9a2.58 2.58 0 01-.73 3.15c-1.47 1.26.66 3.37 2.12 2.12a5.44 5.44 0 001.5-6.07 1.53 1.53 0 00-2.2-.89 18.53 18.53 0 01-7.56 1.8l1.3 2.25a35.23 35.23 0 004.77-8.8c.5-1.31-1.14-2.25-2.2-1.7a50.74 50.74 0 00-14.86 11.8l2.36 1.82 4.3-8.33a1.5 1.5 0 00-2.35-1.82l-8 7.2 2.51 1.46 1.92-12.35c.24-1.55-1.87-2.77-2.74-1.15l-7.23 13.5 2.8.76-.39-15.13a1.5 1.5 0 00-2.94-.4l-2.86 9.8 2.75-.36-3.93-7.44c-.86-1.63-3-.4-2.74 1.15l1.39 9.68 2.78-1.15-3.83-6.5a1.51 1.51 0 00-2.8.75l-.46 13.4 2.95-.4a28.71 28.71 0 00-5.22-9.35c-.89-1.08-2.49-.13-2.56 1.06l-.45 7.86 2.94-.4a233.1 233.1 0 00-11.74-24.23c-.81-1.45-3.33-.47-2.74 1.15a53.11 53.11 0 013.16 19.06l2.79-.76a34.26 34.26 0 00-13.7-14.54 1.51 1.51 0 00-2.05 2 130.71 130.71 0 009 16.59l2.59-1.52a49.09 49.09 0 00-11.59-11.73c-1.29-.93-2.71.84-2.05 2.06l3.31 6.13 2.05-2.05a26.47 26.47 0 00-13.05-2.78c-1.41.07-2.14 2.06-.76 2.79a53.4 53.4 0 0115 11.9c1.28 1.46 3.39-.67 2.12-2.12z" fill="#262521"/></svg>