<svg xmlns="http://www.w3.org/2000/svg" width="500" height="550" viewBox="0 0 500 550"><path fill="#fff" d="M200.72 70.19h104.81v38.7H200.72z"/><path d="M409.37 141.51c-8.82-19.21-14.51-42.61-30.45-57.2-26.39-17.18-87.83-31.74-87.83-31.74s-3.33 44.71-43 46.53-43.68-46.73-43.68-46.73-63.87 16.71-91.19 34.91C89.71 117.63 78.76 155.52 65.15 191 41.56 250 37.05 313.94 39 377c-.35 11.19 3.49 22.28 5.72 33.31a6.66 6.66 0 001.28 3.17c6.31 5.76 3.46 14.67 5.49 22.43.3 1.47 1 1.81 2.41 1.47 12.51-3.2 26.22-2.34 38.6 1.18 3.13.94 3.17 1.12 3.74-2.05 1.44-8 10.36-41.32 11.86-49.29 1.19-8.37 4.89-16.88 4.38-25.31-1-3.31.12-6.43.37-9.58 1.26-11.18 6-24.61-5.15-32.56-5.69-6.88 9.44-5.51 11.81-16.18 1.35-2.86 2.87-5.64 4.29-8.46 2.21 47.15-2.55 94.71 3.6 141.53 1.41 10.78-1.88 18-.53 29.31.94 5.1 1.39 5.42 6.62 4.82 24.35-3.76 58.37-1.51 83-2.09 45-2.79 102.06-4.81 146.65 2.92 1.35.24 2.76.34 3.35-1.43 2.84-8.59.53-15.56 1.5-25.63.87-9 2.74-16.47 3.55-25.45q.3-61.71.62-123.46l.41-.08c.5 7.25 12.44 8.69 10.93 15.93-2.92 3.84-2.68 8-1.61 12.33 3.05 11.88 5.55 24 10.45 35.3 1.35 3.61 1.5 7.12-.51 10.65-5.47 9-1.69 19.57-.79 29.27 1.72 8.67-.95 10.26 5.33 17.63 3.31 5.85 3.1 21.26 11.44 21.4 12.54-3.9 25.32-1.07 37.8 1.58 2.67.51 2.68.28 3.08-2.32.83-5.36 1.69-10.73 2.91-16 .35-4.69 5.07-7.12 5.56-11.78 3.05-18.51 2.09-37.3 3.28-56 6.93-74.65-23.26-144.56-51.07-212.05z" fill="#d8d8d8" stroke="#262521" stroke-linecap="round" stroke-linejoin="round" stroke-width="3"/><path d="M121.8 184.94s2.11 28.62 0 44.25.11 29.69.11 32.87 1.9 33.07 1.9 33.07M371.33 192.76s-1.25 73.85.81 102.89" fill="none" stroke="#262521" stroke-linecap="round" stroke-linejoin="round" stroke-width="3"/><path d="M51.32 413.6s28.66-9.48 45.15 2.48M402.18 416.08s25.94-8.31 43.55 0M197.66 62.63c2.77 14.3 15 47.82 50.14 46.21 36.25-1.66 46.89-34.35 49-46.52M133.45 438.85s155.28-12.31 227.71 2.37" fill="none" stroke="#636363" stroke-linecap="round" stroke-linejoin="round"/><path d="M283.61 57.72C266.25 68.15 244.15 65 225 62.6c-7.1-1.26-13.56-4.12-18.56-9.67L206 53s3.41 36.22 41.7 34.4S290.32 53 290.32 53a34.54 34.54 0 01-6.71 4.72z" fill="#fff" stroke="#262521" stroke-linecap="round" stroke-linejoin="round" stroke-width="3"/><path d="M288.58 234a28.23 28.23 0 015.07.82c.81.28 1.94 1.63 1.8 2.2a3.6 3.6 0 01-2.25 2.14c-2.7.64-5.49.88-8.24 1.35a6.56 6.56 0 00-2.67.85 9.33 9.33 0 00-1.69 2.27 16.41 16.41 0 002.5 1.13c1.12.3 2.41.15 3.39.66.82.42 1.85.53 1.92 2.29a2.3 2.3 0 01-2.05 1.49 57.87 57.87 0 01-5.9.41c-.48 0-1-.13-1.44.06-1.63.78-4.33 1-3.78 3.47s3.25 1.73 5.1 2.1c.68.14 1.64-.34 2.07 0a4.36 4.36 0 011.77 2.43c.08.55-1.06 1.45-1.82 1.89-3.1 1.8-6.47.83-9.73.73a31.12 31.12 0 01-4.07-.8c-2.49-.44-2.39-2.21-1.88-3.93.75-2.53 1.37-5.22 2.73-7.42a93.13 93.13 0 018.26-11.47c2.08-2.45 5.43-2.12 8.4-2.32.83-.05 1.66-.08 2.49-.12zM245.65 197.66c.51 1.63 1.64 2 3.27 2a11.16 11.16 0 014.41.78c1.59.69 1.32 2.11.11 2.94a7.46 7.46 0 01-3.81 1.5 52.37 52.37 0 01-8.66-.65c-3.6-.55-4.18-1.81-3.78-5.38.61-5.44 4-9.49 6.45-14 1.39-2.63 3.06-5.13 6.16-6.06a21.08 21.08 0 0112 0c1 .28 3 1.66 2.81 2.77s-2.26 1.62-3.35 1.89a10 10 0 01-3.94-.19c-2.77-.5-4.77 1.22-6.93 2.36a2.55 2.55 0 00-.61 2.39 3.05 3.05 0 002.06 1.43c1.56.34 4-.13 3.76 2.07-.08.91-2.7 1.8-4.29 2.32a11.34 11.34 0 01-3.69.11c-1.92-.05-2.61 1.26-3 2.77-.07.28.72.77 1.1 1.15zM222.74 193.09c5.41-5.12 8.13-12.74 14.9-16.64 2.54 2.11 2.76 2.84 1 5.37-3.29 4.78-6.38 9.74-10.17 14.1a28 28 0 01-8.61 6.15c-3.24 1.62-5.63-.51-5.47-4.13.25-5.75.42-11.49.54-17.24.05-2.9 1.25-5.12 3.87-6.24a3.74 3.74 0 013.14.6 3.5 3.5 0 011 2.76c-.4 3.54-1 7-1.62 10.56-.24 1.73-.58 3.45 1.42 4.71zM182.43 171.6a4.64 4.64 0 00-.73-5.75c-1.61-1.63-3.54-1-5.36-.3a7.74 7.74 0 00-4.29 4.4c-3 6.44-6.69 12.59-10.15 18.82-2.9 5.22-5.22 10.57-4.59 16.76.52 5.06 3.06 7.18 8.08 6.18a25.29 25.29 0 0014.34-8 13.91 13.91 0 002.28-4.61 2.81 2.81 0 00-1.57-3.76c-1.32-.57-2.73-.83-4 .24l-5.85 3.42-.89-.61c.65-1.72 1.17-3.51 2-5.15 3.52-7.24 7.15-14.44 10.73-21.64zM203.11 243.94c.3 1.77-.9 2.86-2.73 3.18s-3.72.39-5.27 1.18c-1 .51-1.44 2.13-2.13 3.25a14.6 14.6 0 003.51 1.57c1.31.22 3.39-.6 3.34 1.33 0 1.41-1.43 3.75-2.55 4a48.46 48.46 0 01-10 .5c-2.34 0-2.64-2-2.1-3.6 1.58-4.74 3.43-9.39 5.19-14.07.14-.38.38-.73.53-1.1 2.43-6.09 6.46-8.81 13.07-8.86 1.15 0 2.33-.48 3.43-.3.9.14 3 .69 2.94 1.17a5.23 5.23 0 01-1.95 3.32c-1.35.81-3.13.9-4.68 1.4a18.81 18.81 0 00-4.74 1.9c-.77.51-.92 1.94-1.35 3l2.55.92c.17-.35 2.83.39 2.94 1.21zM341.27 191.74a5.5 5.5 0 00-1.45-2.36 1 1 0 00-.14-.16c-.21-.25-.42-.5-.59-.75 0 .11.07.23.11.34a16.29 16.29 0 00-2.56-1.4c-.93-.33-1.87-.65-2.81-1-4.92-1.59-8.25-.63-11.41 3.51a54.12 54.12 0 00-5.3 7.8 45.89 45.89 0 00-3.62 9.68c-.73 2.95 1.35 6 3.86 6.34 3.95.51 7.92.88 11.9 1.15 3 .2 3.72-.47 4-3.11.36-3.28-.46-4.6-3.28-5.06-2.07-.34-4.18-.55-6.27-.82 0-.23-.11-1.49-.16-1.73.61-.27 1.22.27 1.84.25 1.91-.06 3.82.07 5.73.12 3.57.1 4.6-1 3.37-4.27-.49-1.32-1.72-2-2.95-3a7.86 7.86 0 00-2.55-.8v-1.37a6.19 6.19 0 012.19.21c2.12.32 4.19.92 6.31 1.23 1.05.16 2.93.24 3.1-.19a9 9 0 00.68-4.61z" fill="#fff"/><path d="M296.93 185.43l10.66-10.05c2.85-2.69 6.11-4.36 10.14-3.38 3.46.85 4.9 3.29 3.62 6.61a63.57 63.57 0 01-4 7.95c-1.73 3.1-3.73 6.06-5.39 9.2-3.1 5.87-6 11.84-9.06 17.72-1.11 2.11-2.9 3.48-5.49 3a5.61 5.61 0 01-4.73-5.07 5 5 0 01.67-2.56c1.46-2.5 3.1-4.89 4.6-7.37.8-1.33 1.46-2.74 2.18-4.11l-.55-.41c-2.2 2.48-4.41 5-6.6 7.46-.82.93-1.59 1.92-2.43 2.83a4.85 4.85 0 01-5.9 1.25c-2-.87-2.9-3.25-2.4-5.76.23-1.2.48-2.39.73-3.58l-.57-.32c-.71.92-1.47 1.81-2.11 2.77-1.61 2.42-3.12 4.9-4.77 7.3-1.5 2.18-5.83 3.25-7.85 2.06-2.19-1.3-2.92-4.51-2-7.28 1.59-4.75 4.79-8.46 7.53-12.49 3.17-4.65 5.82-9.64 8.78-14.44 2.42-3.91 5.43-6.91 10.55-6.75 3.16.1 4.67 1.31 4.65 4.48 0 2.06-.43 4.12-.61 6.18-.13 1.54-.19 3.08-.28 4.61zm-10.63 5.32c.78 3.95-.61 7.16-1.69 10.41-.55 1.66-.86 3.2 1 4.35s3.22.69 4.5-.91c2.12-2.66 4.24-5.34 6.5-7.87a36.8 36.8 0 014.56-4.17c.46-.36 1.75-.48 2-.19a2.79 2.79 0 01.41 2.24 21.39 21.39 0 01-1.95 3.73c-2.12 3.6-4.35 7.13-6.35 10.79a2.88 2.88 0 00.49 2.56c1.88 2.13 5 1.58 6.6-1.23 2.1-3.62 4-7.34 6-11 1-1.89 1.86-3.85 2.85-5.75 2.8-5.39 5.71-10.73 8.4-16.17.47-.95.58-2.77 0-3.36a4.57 4.57 0 00-3.58-1c-4.06.7-7.11 3.19-9.85 6.15-2.35 2.54-4.71 5.09-7.26 7.42a3.21 3.21 0 01-3 .23 2.82 2.82 0 01-.93-2.54 23.66 23.66 0 00.21-10.29c-.44-2.41-1-3-3.44-2.7-5 .54-7.11 4.31-9.35 8-2.64 4.34-5.28 8.68-7.85 13.06-2.25 3.84-4.58 7.65-6.49 11.65a4.7 4.7 0 00.66 4.17c1.25 1.48 2.88.33 4.17-.65 4-3.06 6-7.54 8.4-11.74 1.18-2.03 2.04-4.38 4.99-5.19zM196 218.56c2.47-.25 4.8.08 6 2.55s-.06 4.31-1.55 6.12a7.49 7.49 0 01-6.06 2.94c-3.09 0-4.79 1.05-5.79 4.4-2.26 7.51-5.18 14.82-7.88 22.19a40.88 40.88 0 01-2.73 6.58 6 6 0 01-7.46 2.3c-2.19-.91-3.44-3.33-2.69-6.31 1-3.76 2.27-7.43 3.54-11.11 1.5-4.39 3.11-8.74 4.7-13.1.61-1.68 0-2.25-1.71-2.3a27.68 27.68 0 01-4.45-.5c-3-.58-4.81-2.63-4.86-5.19a6.43 6.43 0 014.75-6c3.33-.62 6.7-1 10.05-1.43-.01.15 10.77-.62 16.14-1.14zm-10.12 2.32a54.68 54.68 0 00-5.6.3c-3.5.5-7 1.16-10.44 1.85a2.44 2.44 0 00-2.23 2.8 3 3 0 002.39 3.07c1.52.35 3.06.64 4.6.91 3.57.64 4.59 1.94 3.53 5.3-1.52 4.78-3.26 9.49-5 14.19-.94 2.53-2.18 4.94-3.12 7.46-.7 1.87.21 5.42 1.31 5.93 1.7.78 4.41-.1 5.85-2.17a16.79 16.79 0 002.08-4.2q4.22-12.21 8.27-24.48c.93-2.8 2.64-4.41 5.73-4.69a9.92 9.92 0 004.9-1.55 5.43 5.43 0 002.06-4c-.14-1.48-1.91-1.89-3.64-1.66-3.36.4-6.75.59-10.69.94zM228.17 238c1-1.56 2.2-3.05 3.11-4.69 1.28-2.28 3-3.66 5.72-3.68 3.79 0 5.69 2.29 4.2 5.81-1.15 2.72-3 5.15-4.37 7.78-2.53 4.73-5 9.47-7.4 14.29a6.77 6.77 0 01-6.32 3.83c-2.53-.08-4.08-1.69-4.9-3.95a38.94 38.94 0 01-1-4.3c-.95 1.59-1.76 2.9-2.54 4.25a8.53 8.53 0 01-6.92 4.27c-3.22.34-5.42-2.16-4.16-5.09a126.49 126.49 0 017.1-14.16 57 57 0 016.87-8.75 8 8 0 013.84-2.06c3.21-.82 5.07.56 5.66 3.85.15.8.33 1.37.45 2.41s.49.56.66.19zm-1 5.52h-.53a40.48 40.48 0 00-.5-5.29c-.4-1.84-.2-4.6-2.55-4.85a8.28 8.28 0 00-5.48 1.94 23.7 23.7 0 00-4.84 5.95c-2.65 4.3-5.09 8.74-7.45 13.21a3.45 3.45 0 000 3 3.55 3.55 0 002.9 1.1c3.24-.53 4.85-3.07 6.24-5.74.87-1.68 1.71-3.37 2.57-5.06l.88.18a25.17 25.17 0 01.92 2.65c.36 1.53.26 3.28 1 4.57a7.71 7.71 0 003.46 3.1c1.53.66 2.82-.55 3.61-1.89.86-1.5 1.52-3.11 2.35-4.62 1.53-2.8 3.08-5.59 4.7-8.34 1.75-3 3.73-5.81 5.35-8.85 1.11-2.07 0-3.91-2.28-3.57a7.28 7.28 0 00-4.29 2.74c-2.23 3.06-4.03 6.46-6.03 9.74zM282.58 243.41a27 27 0 003.66.7c1.79 0 3.19.6 3.38 2.54.21 2.15-.47 4.15-2.7 4.79a39.92 39.92 0 01-6.11.83c-1.22.15-2.44.26-3.66.39-.66.56-.17.59 0 .86.93.08 1.86.14 2.79.24 1.23.14 2.71-.07 3.62.55a5.87 5.87 0 012.44 3.39 3.69 3.69 0 01-1.66 3.16 31.51 31.51 0 01-8.13 1.88 46.54 46.54 0 01-7.7-.46c-3.39-.28-5.2-2.67-4.43-6 1.85-8.07 6.29-14.74 11.89-20.63a8.5 8.5 0 015.15-2.2 102.17 102.17 0 0112.62-.1c3.76.16 5.39 3.49 2.42 6.61a6.78 6.78 0 01-6.86 2.33 8.59 8.59 0 00-6.72 1.12zm6-9.2c-.83 0-1.66.07-2.49.12-3 .2-6.32-.13-8.4 2.32a93.13 93.13 0 00-8.26 11.47c-1.36 2.2-2 4.89-2.73 7.42-.51 1.72-.61 3.49 1.88 3.93a31.12 31.12 0 004.07.8c3.26.1 6.63 1.07 9.73-.73.76-.44 1.9-1.34 1.82-1.89a4.36 4.36 0 00-1.77-2.43c-.43-.33-1.39.15-2.07 0-1.85-.37-4.57.36-5.1-2.1s2.15-2.69 3.78-3.47c.4-.19 1 0 1.44-.06a57.87 57.87 0 005.9-.41 1.79 1.79 0 001.5-1.78 2.1 2.1 0 00-1.37-2c-1-.51-2.27-.36-3.39-.66-.87-.24-2.19.16-2.5-1.13s1-1.74 1.69-2.27a6.56 6.56 0 012.67-.85c2.75-.47 5.54-.71 8.24-1.35a3.6 3.6 0 002.25-2.14c.14-.57-1-1.92-1.8-2.2a19.78 19.78 0 00-5.11-.59zM261.34 177.38c-3.3-.2-6.62-.22-9.94-.24a8.87 8.87 0 00-8 4.76c-3.21 5.77-6 11.79-8.65 17.83-1.63 3.67.29 6.35 4.37 6.74 1.49.13 3 .51 4.44.49a63.55 63.55 0 009.37-.54c2.09-.34 3.39-3.23 2.91-5.41s-2.05-2.67-4.13-2.68c-1.59 0-5.37-.29-5.34-.91s1.54-.8 2.53-1c2-.37 4.16-.24 6.11-.79s2.67-2.15 2.33-4.16a3.6 3.6 0 00-3.59-3.18l-2.52-.23-.12-1a27 27 0 014.28-1c1.9-.12 3.82.18 5.72.16 3 0 4.71-1.58 4.81-4.24a4.66 4.66 0 00-4.58-4.6zm-.12 5.93a10 10 0 01-3.94-.19c-2.77-.5-4.77 1.22-6.93 2.36a2.55 2.55 0 00-.61 2.39 3.05 3.05 0 002.06 1.43c1.56.34 4-.12 3.76 2.07-.08.91-2.7 1.8-4.29 2.32a11.34 11.34 0 01-3.69.11c-1.92-.05-2.61 1.26-3 2.77 0 .19-.22.84.14 1.11.69 1.39 2.66 2 4.17 1.94a11 11 0 014.41.77c1.59.69 1.32 2.11.11 2.94a7.46 7.46 0 01-3.81 1.5 52.37 52.37 0 01-8.66-.65c-3.6-.55-4.18-1.81-3.78-5.38.61-5.44 4-9.49 6.45-14 1.39-2.63 3.06-5.13 6.16-6.06a21.08 21.08 0 0112 0 3.37 3.37 0 012.13 2.74c-.01 1-1.59 1.52-2.68 1.83zM223.28 189.3c2.59-3.22 4.95-6.65 7.84-9.58a14.2 14.2 0 016.42-3.79c3.46-.84 5.3 1.7 3.74 4.91a46.72 46.72 0 01-5.15 8.5c-3.33 4.21-6.95 8.19-10.62 12.11-2.39 2.55-5.2 4.39-9 3.59-3.33-.68-4.89-2.93-4.44-6.3.57-4.19 1.07-8.4 1.38-12.62.17-2.29-.35-4.64-.13-6.91a7.44 7.44 0 018.41-6.31c2.43.33 3.57 2.23 3.05 5.3-.62 3.66-1.32 7.3-2 11 .04.29.1.68.5.1zm-.54 3.79c-1.26.2-2-1.77-1.37-4.71.58-3.52 1.22-7 1.62-10.56a3.5 3.5 0 00-1-2.76 3.74 3.74 0 00-3.14-.6c-2.62 1.12-3.82 3.34-3.87 6.24-.12 5.75-.29 11.49-.54 17.24-.16 3.62 2.23 5.75 5.47 4.13a28 28 0 008.61-6.15c3.79-4.36 6.88-9.32 10.17-14.1 1.75-2.53.64-5.1-1.57-4.69-2.85.53-13.12 15.76-14.38 15.96zM316.12 255.23c1.2 1.34 2.57 2.76 3.81 4.28 2.17 2.65 1.48 5.19-1.69 6.48-3.49 1.41-5.51 1-8.05-1.68-1-1-1.9-2.09-2.91-3.07s-2-1.76-3.07-2.74c-1 1.6-2.25 3.32-3.32 5.12-1.44 2.42-3.64 2.07-5.73 1.5s-3.11-2.41-3.31-4.52c-.32-3.36 1.66-6 3.12-8.69 1.74-3.27 4.11-6.25 5.44-9.66 2.62-6.72 7.59-8.18 13.69-7.48 1.48.17 2.94.62 4.42.69 3.61.17 5.27 2.56 6.26 5.5a8 8 0 01-2 8.49c-2.03 2.02-4.32 3.77-6.66 5.78zm-3.62-19.41c-4.32.42-7.49 2-9.39 5.9-.64 1.32-1.63 2.46-2.3 3.77-2.14 4.19-4.32 8.37-6.25 12.66-.76 1.7-.83 3.56 1.5 4.55s3.9.2 4.66-1.81c2-5.44 5.41-5.85 9.08-.59a9.71 9.71 0 001.74 2.08c1.13.9 2.3 2 3.61 2.3a4.37 4.37 0 003.4-1.22 2.37 2.37 0 00-.32-3.71 23.12 23.12 0 01-2.23-2.65c-2.08-2.35-2-2.9.49-4.82a37.32 37.32 0 005-4.72c2.32-2.68 1.59-8-1.54-9.58-2.27-1.15-4.95-1.47-7.45-2.16zM182.43 171.6a4.64 4.64 0 00-.73-5.75c-1.61-1.63-3.54-1-5.36-.3a7.74 7.74 0 00-4.29 4.4c-3 6.44-6.69 12.59-10.15 18.82-2.9 5.22-5.22 10.57-4.59 16.76.52 5.06 3.06 7.18 8.08 6.18a25.29 25.29 0 0014.34-8 13.91 13.91 0 002.28-4.61 2.81 2.81 0 00-1.57-3.76c-1.32-.57-2.73-.83-4 .24l-5.85 3.42c-.89-.61.28-4.12 1.09-5.76 3.54-7.24 7.17-14.44 10.75-21.64zm-13.28 26.21a2 2 0 003.11 1.88c1-.56 4-3.18 4.77-3.39s3.63.37 3.77.95a8.26 8.26 0 01-1.42 4.23c-3.69 4.46-8.86 6.09-14.37 7.1-4.08.75-5.62-.34-6-5.17s1.53-8.85 3.67-12.88c2.42-4.55 4.76-9.14 7.31-13.62 1.82-3.2 3.84-6.31 5.95-9.33 1-1.47 2.44-2.14 4.25-.73s2.19 2.45.55 5.61c-3.38 6.57-7 13-10.27 19.63a14.7 14.7 0 00-1.32 5.72zM341.27 191.74c-.22-1.21-1.93-3-2.18-3.27a30.19 30.19 0 00-5.26-2c-4.92-1.59-8.25-.63-11.41 3.51a54.12 54.12 0 00-5.3 7.8 45.89 45.89 0 00-3.62 9.68c-.73 2.95 1.35 6 3.86 6.34 3.95.51 7.92.88 11.9 1.15 3 .2 3.72-.47 4-3.11.36-3.28-.46-4.6-3.28-5.06-2.07-.34-4.18-.55-6.27-.82 0-.23 0-.28.16-.73a1.75 1.75 0 011.52-.75c1.91-.06 3.82.07 5.73.12 3.57.1 4.6-1 3.37-4.27a7 7 0 00-2.72-3 9.17 9.17 0 00-2.78-.76 1.66 1.66 0 01.37-.71 2.37 2.37 0 011.85-.45c2.12.32 4.19.92 6.31 1.23 1.05.16 2.93.24 3.1-.19a9 9 0 00.65-4.71zm-2.17-3.23l1 4.21c-.84 1.91-2.57.31-3.93.09-.16 0-.3-.17-.46-.18-2.62-.17-5.52-1.6-7.44 1.54-.38.62-1 1.51-.91 1.89.41 1.3 1.32 1.41 2.14 1.85.52.28 1.51-.13 1.88.21.76.69 1.83 1.74 1.84 2.53s-1.52 1.35-2.35 1.35c-1.8.17-3.65-.14-5.46-.06-2.1.09-2.75 1.65-2.81 3.43s1.39 1.94 2.77 2a20.73 20.73 0 012.95.1c2 .31 3.74.93 3.5 3.74-4.41 2.25-8.92 1.49-13.38 0-3-1-3.35-1.78-2.87-4.83 1.07-6.73 4.75-12.14 9.24-16.93a8.36 8.36 0 019.41-2c.78.29 4.41 1.49 4.88 2s1.41 2.42 1.04 3.27z"/><path d="M194.82 251.73h2.83c2.8 0 4.09 1.33 3.49 4.05a29.51 29.51 0 01-1.72 4.49c-2 .28-3.55.52-5.15.73-2.13.29-4.26.68-6.4.79-3 .15-4.61-1.6-4.32-4.65a18.72 18.72 0 011-5.59c2.47-5.79 5.11-11.5 7.86-17.16 1.55-3.16 4.83-3.59 7.86-4a56.65 56.65 0 018.44-.46c3 .05 4.33 2.83 2.67 5.28A8 8 0 01205 239a32.26 32.26 0 00-5.75 1.44c-.72.58-.29.74.17 1a16.43 16.43 0 002.72 0c1.86-.31 2.39.68 2.45 2.25a6 6 0 01-5.35 6.16c-1.52.23-3 .66-4.53 1-.94.47-.22.77.11.88zm2.78-10a2.7 2.7 0 011.35-3 18.81 18.81 0 014.74-1.9c1.55-.5 3.33-.59 4.68-1.4a4.26 4.26 0 001.41-3.06c0-.9-1.5-1.29-2.4-1.43-1.1-.18-2.28.29-3.43.3-6.61.05-10.64 2.77-13.07 8.86-.15.37-.39.72-.53 1.1-1.76 4.68-3.61 9.33-5.19 14.07-.54 1.62-.24 3.56 2.1 3.6a48.46 48.46 0 0010-.5c1.12-.22 2.52-2.56 2.55-4 0-1.93-2-1.11-3.34-1.33s-3.45.15-3.51-1.57a3.92 3.92 0 012.13-3.25c1.55-.79 3.49-.87 5.27-1.18s3-1.41 2.73-3.18c-.09-.74-5.24-.4-5.49-2.12zM262.7 234.11c3.92 2.82 3.09 6.82 1.65 10.62-.84 2.24-2.13 4.3-3.1 6.5-2.86 6.45-17.51 11.7-23.26 10.23-4.28-1.09-6.06-3.25-4.49-7.3 1.36-3.5 3.59-6.68 5.49-10 1.07-1.86 2.46-3.57 3.37-5.51 2.52-5.41 6.9-7.5 12.64-7.41.09-.24 5.5 1.29 7.7 2.87zm-7.7-1.34c-5.89-.84-9.08 3-11.73 7.15a119.68 119.68 0 00-6.69 12.62c-1.48 3.08-.2 5.75 3.09 6.63a10.5 10.5 0 003.59-.21c9.29-1 16-5.51 19-14.59 1.78-5.36 2-9.34-4.41-11.19a19.51 19.51 0 00-2.85-.41zM210 184a22.52 22.52 0 01-13.83 21.38c-4.29 1.88-7.92.86-10.28-2.71a10.94 10.94 0 01-1.26-4.43c-1.3-9.3 4.23-19.47 12.81-23 6.29-2.48 12.93-.42 12.56 8.76zm-1.05-.15c.14-3.65-2.13-7-5.13-7.56a9.48 9.48 0 00-8.82 2.56 45.12 45.12 0 00-4.8 5.44 15.9 15.9 0 00-2.95 14.6c.75 2.92 2.48 4.62 5.37 4.61a11.59 11.59 0 005.93-1.41 21.52 21.52 0 0010.45-18.2z"/><path d="M286.3 190.75c-2.95.81-3.81 3.16-5 5.18-2.4 4.2-4.4 8.68-8.4 11.74-1.29 1-2.92 2.13-4.17.65a4.7 4.7 0 01-.66-4.17c1.91-4 4.24-7.81 6.49-11.65 2.57-4.38 5.21-8.72 7.85-13.06 2.24-3.67 4.36-7.44 9.35-8 2.46-.27 3 .29 3.44 2.7a23.66 23.66 0 01-.21 10.29A2.82 2.82 0 00296 187a3.21 3.21 0 003-.23c2.55-2.33 4.91-4.88 7.26-7.42 2.74-3 5.79-5.45 9.85-6.15a4.57 4.57 0 013.58 1c.58.59.47 2.41 0 3.36-2.69 5.44-5.6 10.78-8.4 16.17-1 1.9-1.85 3.86-2.85 5.75-2 3.69-3.89 7.41-6 11-1.63 2.81-4.72 3.36-6.6 1.23a2.88 2.88 0 01-.49-2.56c2-3.66 4.23-7.19 6.35-10.79a21.39 21.39 0 001.95-3.73 2.79 2.79 0 00-.41-2.24c-.23-.29-1.52-.17-2 .19a36.8 36.8 0 00-4.56 4.17c-2.26 2.53-4.38 5.21-6.5 7.87-1.28 1.6-2.65 2.05-4.5.91s-1.56-2.69-1-4.35c1.01-3.27 2.4-6.48 1.62-10.43zM185.88 220.88c3.94-.35 7.33-.54 10.68-1 1.73-.23 3.5.18 3.64 1.66a5.43 5.43 0 01-2.06 4 9.92 9.92 0 01-4.9 1.55c-3.09.28-4.8 1.89-5.73 4.69q-4.08 12.25-8.27 24.48a16.79 16.79 0 01-2.08 4.2c-1.44 2.07-4.15 3-5.85 2.17-1.1-.51-2-4.06-1.31-5.93.94-2.52 2.18-4.93 3.12-7.46 1.74-4.7 3.48-9.41 5-14.19 1.06-3.36 0-4.66-3.53-5.3-1.54-.27-3.08-.56-4.6-.91a3 3 0 01-2.38-3.07 2.44 2.44 0 012.23-2.8c3.46-.69 6.94-1.35 10.44-1.85a54.68 54.68 0 015.6-.24zM227.2 243.49c2-3.28 3.82-6.68 6.07-9.77a7.28 7.28 0 014.29-2.74c2.28-.34 3.39 1.5 2.28 3.57-1.62 3-3.6 5.88-5.35 8.85-1.62 2.75-3.17 5.54-4.7 8.34-.83 1.51-1.49 3.12-2.35 4.62-.79 1.34-2.08 2.55-3.61 1.89a7.71 7.71 0 01-3.46-3.1c-.73-1.29-.63-3-1-4.57a25.17 25.17 0 00-.92-2.65l-.88-.18c-.86 1.69-1.7 3.38-2.57 5.06-1.39 2.67-3 5.21-6.24 5.74a3.55 3.55 0 01-2.9-1.1 3.45 3.45 0 010-3c2.36-4.47 4.8-8.91 7.45-13.21a23.7 23.7 0 014.84-5.95 8.28 8.28 0 015.48-1.94c2.35.25 2.15 3 2.55 4.85a40.48 40.48 0 01.5 5.29zM312.5 235.82c2.5.69 5.18 1 7.44 2.16 3.13 1.61 3.86 6.9 1.54 9.58a37.32 37.32 0 01-5 4.72c-2.44 1.92-2.57 2.47-.49 4.82a23.12 23.12 0 002.25 2.65 2.37 2.37 0 01.32 3.71 4.37 4.37 0 01-3.4 1.22c-1.31-.27-2.48-1.4-3.61-2.3a9.71 9.71 0 01-1.74-2.08c-3.67-5.26-7-4.85-9.08.59-.76 2-2.41 2.76-4.66 1.81s-2.26-2.85-1.5-4.55c1.93-4.29 4.11-8.47 6.25-12.66.67-1.31 1.66-2.45 2.3-3.77 1.88-3.88 5.06-5.48 9.38-5.9zm-2.3 13.06c3.05 0 6-2.1 5.87-3.7-.16-1.89-1.46-2.73-3.21-2.84-2.12-.13-4.92 2.17-4.53 4 .23 1.09 1.43 1.98 1.87 2.54zM255 232.77a19.51 19.51 0 012.86.41c6.41 1.85 6.19 5.83 4.41 11.19-3 9.08-9.72 13.58-19 14.59a10.5 10.5 0 01-3.59.21c-3.29-.88-4.57-3.55-3.09-6.63a119.68 119.68 0 016.69-12.62c2.61-4.13 5.8-7.99 11.72-7.15zm-7.25 19.52c3.57-.39 7.88-4.19 8.12-9.21.12-2.58-1.87-3.88-4.31-2.87-2.27.95-6.54 7.43-6.19 10 .18 1.53.78 2.26 2.35 2.08zM209 183.89a21.52 21.52 0 01-10.4 18.24 11.59 11.59 0 01-5.93 1.41c-2.89 0-4.62-1.69-5.37-4.61a15.9 15.9 0 012.95-14.6 45.12 45.12 0 014.8-5.44 9.48 9.48 0 018.82-2.56c2.98.6 5.25 3.91 5.13 7.56zm-6.27 1.55c-.22-.43-.65-1.84-1-1.82-1.17.1-2.71.32-3.38 1.11-1.79 2.12-3.19 4.56-4.77 6.85a2.23 2.23 0 00.71 3.44 4.29 4.29 0 003.53.2c3.63-1.96 4.25-5.65 4.89-9.78z" fill="#fff"/><path d="M310.2 248.88c-.44-.56-1.64-1.45-1.87-2.55-.39-1.82 2.41-4.12 4.53-4 1.75.11 3.05.95 3.21 2.84.14 1.61-2.82 3.72-5.87 3.71zm-.95-3c.95 3 3.43 1.13 3.95-.24s-.44-1.31-.83-1.44c-2.06-.71-2.3.44-3.12 1.67zM247.73 252.29c-1.58.18-2.18-.55-2.39-2.1-.35-2.55 3.92-9 6.19-10 2.44-1 4.43.29 4.31 2.87-.24 5.04-4.55 8.84-8.11 9.23zm-1.12-1.35c3.69-1.44 5.91-3.6 7-6.86.17-.52 0-1.58-.31-1.72-.57-.25-1.72-.28-2 .09-1.94 2.41-4.24 4.65-4.69 8.49zM202.71 185.44c-.64 4.13-1.26 7.82-4.87 9.78a4.29 4.29 0 01-3.53-.2 2.23 2.23 0 01-.71-3.44c1.58-2.29 2.5-4.68 4.29-6.8.67-.79 2.69-1.06 3.86-1.16.31-.02.74 1.38.96 1.82zm-2.52-.1c-3.1 1.64-4.23 4.36-5.12 7.2a1.54 1.54 0 00.46 1.42 2 2 0 001.57-.29c2.23-1.4 3.71-5.26 3.09-8.33z"/></svg>