<svg xmlns="http://www.w3.org/2000/svg" xmlns:xlink="http://www.w3.org/1999/xlink" width="500" height="550" viewBox="0 0 500 550"><defs><clipPath id="a"><path d="M222.52,86.25c-14.26-14.68-18-38.48-18.59-38.3-30.43,11-63.14,16.58-90.46,34.78,4,20,8.88,61.37,8.33,98.12,1.8,14.88-2.22,43.36-.91,55.09,5.41,48.52,2.46,56.06,3.17,54.64,1.48,31.59-2.67,62.57-2.07,93.43.07,3.71,58.45,10.3,68-18C212,278.54,222.52,86.25,222.52,86.25Z" fill="none"/></clipPath><clipPath id="b"><path d="M275.83,87.25c14.26-14.68,19.54-38,20.09-37.8,30.43,11,59.14,15.58,86.46,33.78-4,20-11.6,68.69-11.05,105.43-1.81,14.88,1.4,36,1.13,47.78-1.13,49.45,1,56.06.33,54.64-1.48,31.59.51,59.49.71,90.36,0,2.13-44.21,16.57-53.76-11.72C297.76,282.24,275.83,87.25,275.83,87.25Z" fill="none"/></clipPath></defs><title>s02e10-02</title><path d="M365.52,267.36c1.28-44.86-3,210.86-5,212.19-3.28,2.19-151.41,0-167.06-3.27s-53.14,5-57.87,4.15-5.46-19.89-3.64-27.53,1.36-185.54,1.36-185.54Z" fill="#262521" stroke="#262521" stroke-linecap="round" stroke-linejoin="round" stroke-width="3"/><path d="M42.57,391.34c.33,1.23.67,2.62,1,4.24a6.66,6.66,0,0,0,1.33,3.22c6.31,5.75,4.57,25.25,6.6,33,.3,1.47,1,1.81,2.41,1.47,12.51-3.2,26.22-2.34,38.6,1.18,3.13,1,3.17,1.13,3.74-2,1.13-6.28,6.85-28.09,10-41.07Z" fill="#262521"/><path d="M372.6,404.69H122.76c.38,5.33.91,10.77,1.65,16.37,1.41,10.78-1.88,20.56-.53,31.81.94,5.1,1.39,5.42,6.62,4.83,24.35-3.77,61.37-1.52,86-2.09,45-2.8,104.07-4.82,148.65,2.92,1.35.23,2.76.33,3.35-1.43,2.84-8.59.53-25.57,1.5-35.64C370.59,415,371.71,410.18,372.6,404.69Z" fill="#262521"/><path d="M244,122.37c5.32-4,63.28-56.39,47.48-73.74-3.67-1.54-8.75-10-18.88-11.48s-39.05-1.76-50.68.49A31.38,31.38,0,0,0,206,46.2C189.33,63.21,239.63,115.78,244,122.37Z" fill="#262521"/><path d="M391.73,390.92c.27,2.63,1,4.93,4.44,8.9,3.31,5.84,3.28,32.52,11.62,32.67,12.54-3.91,27.32-1.08,39.8,1.58,2.67.5,2.68.27,3.08-2.33.83-5.36,1.51-22,2.73-27.28.35-4.68,3.07-7.12,3.56-11.78C457.06,392.08,391.73,390.92,391.73,390.92Z" fill="#262521"/><path d="M206.32,49s33.81,31.23,82,1.07" fill="none" stroke="#636363" stroke-linecap="round" stroke-linejoin="round"/><path d="M409.62,138c-8.82-19.22-14.51-42.62-30.45-57.2-26.39-17.18-57.31-21.59-86.44-32.09-3.67-1.53,1.85,49.83-44.3,49.83-36.16,0-43.7-49.81-44.5-49.56-30.43,11-63.14,16.58-90.46,34.78C90,114.08,79,152,65.4,187.41c-23.59,59.07-28.1,123-26.19,186-.25,7.85,2.4,17.08,4.27,22.15a13.38,13.38,0,0,0,3.73.9,55.41,55.41,0,0,0,8.64-.34c5.19-.49,10.33-1.25,15.55-1.35a90.14,90.14,0,0,1,13.34.67,54.15,54.15,0,0,1,19.37,6.09c2-7.8,3.66-14.75,4.25-17.86,1.19-8.37,4.89-16.87,4.38-25.31-1-3.31.13-6.42.37-9.58,1.26-11.17,6-24.61-5.15-32.55-5.69-6.89,9.45-5.51,11.81-16.19,1.35-2.85,2.87-5.63,4.29-8.46,2.17,46.44-5.4,81.84.33,127.89l1.56.17a226.46,226.46,0,0,0,25.09,1.9c8.84,0,20.68-.49,29.5-1.06,4.57-.29,12.86-.89,17.42-1.18,2.54-.17-10.69,34.39-12,36.91,1.82-.1,38.87.25,40.69.17,8.89-.39,34.47-172.87,34.47-172.87s26.15,170.42,36.79,170.42h19.75c-4.32-7.72-15.56-35.45-12.46-35.43,11.49.06,21.48.37,32.93,1.42,10,.92,22.12,2.3,31.89,4.86,0-1,.09-1.9.18-2.77.87-9,2.74-15,3.55-23.94.2-41.14-1.56-64.81-1.38-106l.41-.08c.5,7.24,12.44,8.69,10.93,15.92-2.92,3.85-2.67,8-1.61,12.34,3.05,11.88,4.29,20.95,9.19,32.23,1.35,3.61,2.77,8.69.75,12.22-5.47,9-1.87,8.29-1,18,1.64,8.26-.69,10.11,4.53,16.65a38.89,38.89,0,0,0,5.19.14c5.64-.24,11.2-1.27,16.79-2a76.23,76.23,0,0,1,32.71,2.16c1.4.37,2.88.76,4.39,1,.94-2.38,2.19-4.47,2.51-7.51,3.05-18.5,2.27-24.53,3.47-43.18C467.62,275.36,437.43,205.46,409.62,138Z" fill="#d1c8c7"/><g clip-path="url(#a)"><line x1="223.03" y1="23.94" x2="188.64" y2="392.13" fill="none" stroke="#998f8f" stroke-linecap="round" stroke-linejoin="round"/><line x1="208.02" y1="28.82" x2="174.08" y2="392.25" fill="none" stroke="#998f8f" stroke-linecap="round" stroke-linejoin="round"/><line x1="215.88" y1="23.94" x2="181.48" y2="392.13" fill="none" stroke="#998f8f" stroke-linecap="round" stroke-linejoin="round"/><line x1="193.5" y1="28.82" x2="159.55" y2="392.25" fill="none" stroke="#998f8f" stroke-linecap="round" stroke-linejoin="round"/><line x1="201.36" y1="23.94" x2="166.96" y2="392.13" fill="none" stroke="#998f8f" stroke-linecap="round" stroke-linejoin="round"/><line x1="179" y1="28.82" x2="145.05" y2="392.25" fill="none" stroke="#998f8f" stroke-linecap="round" stroke-linejoin="round"/><line x1="186.85" y1="23.94" x2="152.46" y2="392.13" fill="none" stroke="#998f8f" stroke-linecap="round" stroke-linejoin="round"/><line x1="164.48" y1="28.82" x2="130.53" y2="392.25" fill="none" stroke="#998f8f" stroke-linecap="round" stroke-linejoin="round"/><line x1="172.33" y1="23.94" x2="137.94" y2="392.13" fill="none" stroke="#998f8f" stroke-linecap="round" stroke-linejoin="round"/><line x1="149.83" y1="28.82" x2="115.88" y2="392.25" fill="none" stroke="#998f8f" stroke-linecap="round" stroke-linejoin="round"/><line x1="157.68" y1="23.94" x2="123.29" y2="392.13" fill="none" stroke="#998f8f" stroke-linecap="round" stroke-linejoin="round"/><line x1="135.31" y1="28.82" x2="121.84" y2="173.04" fill="none" stroke="#998f8f" stroke-linecap="round" stroke-linejoin="round"/><line x1="143.16" y1="23.94" x2="108.77" y2="392.13" fill="none" stroke="#998f8f" stroke-linecap="round" stroke-linejoin="round"/><line x1="127.71" y1="28.82" x2="93.76" y2="392.25" fill="none" stroke="#998f8f" stroke-linecap="round" stroke-linejoin="round"/><line x1="121.04" y1="23.94" x2="86.65" y2="392.13" fill="none" stroke="#998f8f" stroke-linecap="round" stroke-linejoin="round"/><line x1="324.19" y1="247.57" x2="-45.31" y2="232.97" fill="none" stroke="#998f8f" stroke-linecap="round" stroke-linejoin="round"/><line x1="318.99" y1="220.73" x2="-45.74" y2="206.32" fill="none" stroke="#998f8f" stroke-linecap="round" stroke-linejoin="round"/><line x1="324.04" y1="234.47" x2="-45.46" y2="219.86" fill="none" stroke="#998f8f" stroke-linecap="round" stroke-linejoin="round"/><line x1="318.69" y1="194.14" x2="-46.04" y2="179.73" fill="none" stroke="#998f8f" stroke-linecap="round" stroke-linejoin="round"/><line x1="323.74" y1="207.88" x2="-45.76" y2="193.27" fill="none" stroke="#998f8f" stroke-linecap="round" stroke-linejoin="round"/><line x1="318.39" y1="167.59" x2="-46.34" y2="153.17" fill="none" stroke="#998f8f" stroke-linecap="round" stroke-linejoin="round"/><line x1="323.44" y1="181.32" x2="-46.06" y2="166.72" fill="none" stroke="#998f8f" stroke-linecap="round" stroke-linejoin="round"/><line x1="318.09" y1="141" x2="-46.64" y2="126.58" fill="none" stroke="#998f8f" stroke-linecap="round" stroke-linejoin="round"/><line x1="323.14" y1="154.73" x2="-46.37" y2="140.13" fill="none" stroke="#998f8f" stroke-linecap="round" stroke-linejoin="round"/><line x1="324.19" y1="340.16" x2="-45.31" y2="325.55" fill="none" stroke="#998f8f" stroke-linecap="round" stroke-linejoin="round"/><line x1="318.99" y1="313.31" x2="-45.74" y2="298.9" fill="none" stroke="#998f8f" stroke-linecap="round" stroke-linejoin="round"/><line x1="324.04" y1="327.05" x2="-45.46" y2="312.45" fill="none" stroke="#998f8f" stroke-linecap="round" stroke-linejoin="round"/><line x1="318.69" y1="286.72" x2="-46.04" y2="272.31" fill="none" stroke="#998f8f" stroke-linecap="round" stroke-linejoin="round"/><line x1="323.74" y1="300.46" x2="-45.76" y2="285.86" fill="none" stroke="#998f8f" stroke-linecap="round" stroke-linejoin="round"/><line x1="318.99" y1="366.52" x2="-45.74" y2="352.1" fill="none" stroke="#998f8f" stroke-linecap="round" stroke-linejoin="round"/><line x1="324.04" y1="380.25" x2="-45.46" y2="365.65" fill="none" stroke="#998f8f" stroke-linecap="round" stroke-linejoin="round"/><line x1="323.74" y1="353.66" x2="-45.76" y2="339.06" fill="none" stroke="#998f8f" stroke-linecap="round" stroke-linejoin="round"/><line x1="318.39" y1="260.17" x2="-46.34" y2="245.76" fill="none" stroke="#998f8f" stroke-linecap="round" stroke-linejoin="round"/><line x1="323.44" y1="273.91" x2="-46.06" y2="259.3" fill="none" stroke="#998f8f" stroke-linecap="round" stroke-linejoin="round"/><line x1="317.78" y1="114.17" x2="-46.94" y2="99.76" fill="none" stroke="#998f8f" stroke-linecap="round" stroke-linejoin="round"/><line x1="322.83" y1="127.91" x2="-46.67" y2="113.31" fill="none" stroke="#998f8f" stroke-linecap="round" stroke-linejoin="round"/><line x1="317.48" y1="87.58" x2="-47.25" y2="73.17" fill="none" stroke="#998f8f" stroke-linecap="round" stroke-linejoin="round"/><line x1="322.53" y1="101.32" x2="-46.97" y2="86.72" fill="none" stroke="#998f8f" stroke-linecap="round" stroke-linejoin="round"/><line x1="317.33" y1="73.67" x2="-47.4" y2="59.26" fill="none" stroke="#998f8f" stroke-linecap="round" stroke-linejoin="round"/><line x1="322.08" y1="60.82" x2="-47.43" y2="46.21" fill="none" stroke="#998f8f" stroke-linecap="round" stroke-linejoin="round"/></g><g clip-path="url(#b)"><line x1="275.81" y1="24.44" x2="310.21" y2="392.63" fill="none" stroke="#998f8f" stroke-linecap="round" stroke-linejoin="round"/><line x1="290.82" y1="29.32" x2="324.77" y2="392.75" fill="none" stroke="#998f8f" stroke-linecap="round" stroke-linejoin="round"/><line x1="282.97" y1="24.44" x2="317.36" y2="392.63" fill="none" stroke="#998f8f" stroke-linecap="round" stroke-linejoin="round"/><line x1="305.35" y1="29.32" x2="339.29" y2="392.75" fill="none" stroke="#998f8f" stroke-linecap="round" stroke-linejoin="round"/><line x1="297.49" y1="24.44" x2="331.89" y2="392.63" fill="none" stroke="#998f8f" stroke-linecap="round" stroke-linejoin="round"/><line x1="319.85" y1="29.32" x2="353.8" y2="392.75" fill="none" stroke="#998f8f" stroke-linecap="round" stroke-linejoin="round"/><line x1="311.99" y1="24.44" x2="346.39" y2="392.63" fill="none" stroke="#998f8f" stroke-linecap="round" stroke-linejoin="round"/><line x1="334.37" y1="29.32" x2="368.32" y2="392.75" fill="none" stroke="#998f8f" stroke-linecap="round" stroke-linejoin="round"/><line x1="326.52" y1="24.44" x2="360.91" y2="392.63" fill="none" stroke="#998f8f" stroke-linecap="round" stroke-linejoin="round"/><line x1="349.02" y1="29.32" x2="382.97" y2="392.75" fill="none" stroke="#998f8f" stroke-linecap="round" stroke-linejoin="round"/><line x1="341.17" y1="24.44" x2="375.56" y2="392.63" fill="none" stroke="#998f8f" stroke-linecap="round" stroke-linejoin="round"/><line x1="363.54" y1="29.32" x2="397.49" y2="392.75" fill="none" stroke="#998f8f" stroke-linecap="round" stroke-linejoin="round"/><line x1="355.69" y1="24.44" x2="390.08" y2="392.63" fill="none" stroke="#998f8f" stroke-linecap="round" stroke-linejoin="round"/><line x1="371.14" y1="29.32" x2="405.09" y2="392.75" fill="none" stroke="#998f8f" stroke-linecap="round" stroke-linejoin="round"/><line x1="377.81" y1="24.44" x2="412.2" y2="392.63" fill="none" stroke="#998f8f" stroke-linecap="round" stroke-linejoin="round"/><line x1="174.66" y1="248.07" x2="544.16" y2="233.47" fill="none" stroke="#998f8f" stroke-linecap="round" stroke-linejoin="round"/><line x1="179.86" y1="221.23" x2="544.59" y2="206.82" fill="none" stroke="#998f8f" stroke-linecap="round" stroke-linejoin="round"/><line x1="174.81" y1="234.97" x2="544.31" y2="220.36" fill="none" stroke="#998f8f" stroke-linecap="round" stroke-linejoin="round"/><line x1="180.16" y1="194.64" x2="544.89" y2="180.23" fill="none" stroke="#998f8f" stroke-linecap="round" stroke-linejoin="round"/><line x1="175.11" y1="208.38" x2="544.61" y2="193.77" fill="none" stroke="#998f8f" stroke-linecap="round" stroke-linejoin="round"/><line x1="180.46" y1="168.09" x2="545.19" y2="153.67" fill="none" stroke="#998f8f" stroke-linecap="round" stroke-linejoin="round"/><line x1="175.41" y1="181.82" x2="544.91" y2="167.22" fill="none" stroke="#998f8f" stroke-linecap="round" stroke-linejoin="round"/><line x1="180.76" y1="141.5" x2="545.49" y2="127.08" fill="none" stroke="#998f8f" stroke-linecap="round" stroke-linejoin="round"/><line x1="175.71" y1="155.23" x2="545.21" y2="140.63" fill="none" stroke="#998f8f" stroke-linecap="round" stroke-linejoin="round"/><line x1="174.66" y1="340.66" x2="544.16" y2="326.05" fill="none" stroke="#998f8f" stroke-linecap="round" stroke-linejoin="round"/><line x1="179.86" y1="313.81" x2="544.59" y2="299.4" fill="none" stroke="#998f8f" stroke-linecap="round" stroke-linejoin="round"/><line x1="174.81" y1="327.55" x2="544.31" y2="312.95" fill="none" stroke="#998f8f" stroke-linecap="round" stroke-linejoin="round"/><line x1="180.16" y1="287.22" x2="544.89" y2="272.81" fill="none" stroke="#998f8f" stroke-linecap="round" stroke-linejoin="round"/><line x1="175.11" y1="300.96" x2="544.61" y2="286.36" fill="none" stroke="#998f8f" stroke-linecap="round" stroke-linejoin="round"/><line x1="179.86" y1="367.02" x2="544.59" y2="352.6" fill="none" stroke="#998f8f" stroke-linecap="round" stroke-linejoin="round"/><line x1="174.81" y1="380.75" x2="544.31" y2="366.15" fill="none" stroke="#998f8f" stroke-linecap="round" stroke-linejoin="round"/><line x1="175.11" y1="354.16" x2="544.61" y2="339.56" fill="none" stroke="#998f8f" stroke-linecap="round" stroke-linejoin="round"/><line x1="180.46" y1="260.67" x2="545.19" y2="246.26" fill="none" stroke="#998f8f" stroke-linecap="round" stroke-linejoin="round"/><line x1="175.41" y1="274.41" x2="544.91" y2="259.8" fill="none" stroke="#998f8f" stroke-linecap="round" stroke-linejoin="round"/><line x1="181.06" y1="114.67" x2="545.79" y2="100.26" fill="none" stroke="#998f8f" stroke-linecap="round" stroke-linejoin="round"/><line x1="176.01" y1="128.41" x2="545.52" y2="113.81" fill="none" stroke="#998f8f" stroke-linecap="round" stroke-linejoin="round"/><line x1="181.36" y1="88.08" x2="546.09" y2="73.67" fill="none" stroke="#998f8f" stroke-linecap="round" stroke-linejoin="round"/><line x1="176.31" y1="101.82" x2="545.82" y2="87.22" fill="none" stroke="#998f8f" stroke-linecap="round" stroke-linejoin="round"/><line x1="181.52" y1="74.17" x2="546.25" y2="59.76" fill="none" stroke="#998f8f" stroke-linecap="round" stroke-linejoin="round"/><line x1="176.77" y1="61.32" x2="546.28" y2="46.71" fill="none" stroke="#998f8f" stroke-linecap="round" stroke-linejoin="round"/></g><path d="M130.5,457.7c-5.23.59-5.68.27-6.62-4.83-1.35-11.25,1.94-21,.53-31.81-6.15-46.81,1.61-82.87-.6-130-1.42,2.83-2.94,5.6-4.29,8.46-2.37,10.68-17.5,9.3-11.81,16.18,11.11,7.95,6.41,21.38,5.15,32.56-.25,3.15-1.35,6.27-.37,9.58.51,8.44-3.19,16.94-4.38,25.31-1.5,8-10.42,41.28-11.86,49.29-.57,3.18-.61,3-3.74,2-12.38-3.52-26.09-4.38-38.6-1.18-1.39.34-2.11,0-2.41-1.47-2-7.76-.29-27.26-6.6-33-.76-.77-6.29-14.75-5.94-25.94-1.91-63,2.6-126.93,26.19-186,13.61-35.44,24.56-73.33,48.07-103.68,27.32-18.2,60-23.75,90.46-34.78.8-.26,6.6-8.51,18.24-10.76s40.54-2,50.68-.49,15.21,9.94,18.88,11.48c29.12,10.49,61,14.41,87.44,31.58,15.94,14.59,21.63,38,30.45,57.21,27.81,67.48,58,137.39,51.05,212.08-1.19,18.65-.41,24.68-3.46,43.18-.49,4.66-3.21,7.1-3.56,11.78-1.22,5.28-1.9,21.92-2.73,27.28-.4,2.6-.41,2.83-3.08,2.33-12.48-2.66-27.26-5.49-39.8-1.58-8.34-.15-8.31-26.83-11.62-32.67-6.28-7.37-3.61-9-5.33-17.64-.9-9.7-4.5-9,1-18,2-3.53.6-8.61-.75-12.22-4.9-11.28-6.14-20.35-9.19-32.23-1.07-4.3-1.31-8.49,1.61-12.34,1.51-7.23-10.43-8.68-10.93-15.92l-.41.08c-.18,41.15,1.58,64.81,1.38,106-.81,9-2.68,14.91-3.55,23.94-1,10.07,1.34,27.05-1.5,35.64-.59,1.76-2,1.66-3.35,1.43" fill="none" stroke="#262521" stroke-linecap="round" stroke-linejoin="round" stroke-width="3"/><path d="M183.48,455.51c-17.39-.16-38.42-.07-53,2.19" fill="none" stroke="#636363" stroke-linecap="round" stroke-linejoin="round"/><path d="M368.47,457.1c-.59,1.76-2,1.66-3.35,1.43-13.54-2.35-30.23-3.8-45.38-4.6" fill="none" stroke="#636363" stroke-linecap="round" stroke-linejoin="round"/><path d="M121.8,180.85s2.11,28.61,0,44.24.11,29.7.11,32.88,1.9,33.06,1.9,33.06" fill="none" stroke="#262521" stroke-linecap="round" stroke-linejoin="round" stroke-width="3"/><path d="M371.33,188.66s1.59,62.14.81,102.9" fill="none" stroke="#262521" stroke-linecap="round" stroke-linejoin="round" stroke-width="3"/><path d="M291.48,48.63s-4.1,41.23-41.48,46.2S203.68,48.4,203.68,48.4" fill="none" stroke="#262521" stroke-linecap="round" stroke-linejoin="round" stroke-width="3"/><line x1="250" y1="95.33" x2="250" y2="199.72" fill="none" stroke="#262521" stroke-linecap="round" stroke-linejoin="round" stroke-width="5"/><path d="M252.82,97.35S262.47,49,283.65,42.63l12,10.18S284.31,101.48,252.82,97.35Z" fill="#262521" stroke="#262521" stroke-linecap="round" stroke-linejoin="round" stroke-width="3"/><path d="M247.08,97.6S234.81,47.3,213.63,41l-11.94,9.18S215.59,101.73,247.08,97.6Z" fill="#262521" stroke="#262521" stroke-linecap="round" stroke-linejoin="round" stroke-width="3"/><path d="M252.82,97.35S262.47,49,283.65,42.63" fill="none" stroke="#636363" stroke-linecap="round" stroke-linejoin="round"/><path d="M247.08,97.6S234.81,47.3,213.63,41" fill="none" stroke="#636363" stroke-linecap="round" stroke-linejoin="round"/><path d="M250.5,199.72s-20.63,202.93-44.18,256" fill="none" stroke="#262521" stroke-linecap="round" stroke-linejoin="round" stroke-width="2" stroke-dasharray="1 3"/><path d="M249,198.48s-21.15,204.17-44.7,257.23" fill="none" stroke="#262521" stroke-linecap="round" stroke-linejoin="round" stroke-width="2"/><path d="M249.75,199.72s21.13,200.43,44.68,253.49" fill="none" stroke="#262521" stroke-linecap="round" stroke-linejoin="round" stroke-width="2" stroke-dasharray="1 3"/><path d="M251.23,198.48s21.65,201.67,45.2,254.73" fill="none" stroke="#262521" stroke-linecap="round" stroke-linejoin="round" stroke-width="2"/><path d="M251.45,200.7h-3a1.49,1.49,0,0,0-1.35,1.24c-.2,3.51-.39,7-.59,10.54,0,.5-.05,1-.08,1.5a1.54,1.54,0,0,0,1.61,1.75h4.38a1.36,1.36,0,0,0,1.12-.69l0,0,.05-.1a.88.88,0,0,0,.09-.2.13.13,0,0,0,0-.06,1.6,1.6,0,0,0,0-.21,1.62,1.62,0,0,0,0-.31c-.21-3.52-.42-7-.62-10.55l-.09-1.49A1.54,1.54,0,0,0,251.45,200.7ZM252,210l0,2.77a1,1,0,0,1-1,1l-1.5,0a1,1,0,0,1-1-1l0-2.77a1,1,0,0,1,1-1l1.51,0A1,1,0,0,1,252,210Z" fill="#51504d"/><path d="M251.45,99.42h-3a1.5,1.5,0,0,0-1.35,1.24c-.2,3.52-.39,7-.59,10.55,0,.5-.05,1-.08,1.49a1.54,1.54,0,0,0,1.61,1.75h4.38a1.34,1.34,0,0,0,1.12-.69l0,0a.31.31,0,0,0,.05-.1.72.72,0,0,0,.09-.2.13.13,0,0,0,0-.06,1.08,1.08,0,0,0,0-.21,1.56,1.56,0,0,0,0-.31c-.21-3.51-.42-7-.62-10.54l-.09-1.5A1.53,1.53,0,0,0,251.45,99.42Zm.52,9.24,0,2.77a1,1,0,0,1-1,1l-1.5,0a1,1,0,0,1-1-1l0-2.77a1,1,0,0,1,1-1l1.51,0A1,1,0,0,1,252,108.66Z" fill="#51504d"/><path d="M275.83,89.34s31.54,284.13,50.82,293.07,45.68.25,45.68.25" fill="none" stroke="#262521" stroke-linecap="round" stroke-linejoin="round" stroke-width="2"/><path d="M222.52,88.34S204.76,353.64,186,374s-64,10-64,10" fill="none" stroke="#262521" stroke-linecap="round" stroke-linejoin="round" stroke-width="2"/><line x1="233.33" y1="150.15" x2="225.5" y2="223.6" fill="none" stroke="#262521" stroke-linecap="round" stroke-linejoin="round" stroke-width="5"/><line x1="266.32" y1="150.15" x2="274.15" y2="223.6" fill="none" stroke="#262521" stroke-linecap="round" stroke-linejoin="round" stroke-width="5"/><path d="M226.9,223.24l-3-.23a1.52,1.52,0,0,0-1.44,1.14c-.46,3.49-.91,7-1.37,10.47-.07.49-.13,1-.2,1.48a1.54,1.54,0,0,0,1.47,1.87l4.37.32a1.35,1.35,0,0,0,1.17-.6l0-.05,0-.09a.75.75,0,0,0,.1-.2.08.08,0,0,0,0,0,1.72,1.72,0,0,0,.07-.21,1.63,1.63,0,0,0,0-.31c.06-3.52.13-7,.19-10.56,0-.5,0-1,0-1.5A1.52,1.52,0,0,0,226.9,223.24Zm-.18,9.26-.25,2.76a1,1,0,0,1-1.09.9l-1.5-.14a1,1,0,0,1-.9-1.08l.25-2.76a1,1,0,0,1,1.09-.91l1.49.14A1,1,0,0,1,226.72,232.5Z" fill="#51504d"/><path d="M271.53,224.72l0,1.5.18,10.56a1.1,1.1,0,0,0,0,.31.83.83,0,0,0,.06.21s0,0,0,0a1.24,1.24,0,0,0,.1.2l.06.09,0,.05a1.36,1.36,0,0,0,1.17.6l4.37-.32a1.53,1.53,0,0,0,1.47-1.87c-.06-.49-.13-1-.19-1.48l-1.38-10.47a1.52,1.52,0,0,0-1.44-1.14l-3,.23A1.54,1.54,0,0,0,271.53,224.72Zm2.6,6.69,1.49-.14a1,1,0,0,1,1.09.91l.25,2.76a1,1,0,0,1-.9,1.08l-1.5.14a1,1,0,0,1-1.08-.9l-.26-2.76A1,1,0,0,1,274.13,231.41Z" fill="#51504d"/><path d="M113.67,87.35s8.68,44.27,8.17,88.54" fill="none" stroke="#998f8f" stroke-linecap="round" stroke-linejoin="round"/><path d="M382,87.35s-9.61,52.73-10.12,95.75" fill="none" stroke="#998f8f" stroke-linecap="round" stroke-linejoin="round"/></svg>