<svg xmlns="http://www.w3.org/2000/svg" width="500" height="550" viewBox="0 0 500 550"><title>s02e05-02</title><path d="M372.14,291.55q-.27,61.74-.62,123.47c-.81,9-2.68,16.41-3.55,25.44-1,10.07,1.34,17.05-1.5,25.63-.59,1.77-2,1.67-3.35,1.44-44.59-7.74-101.66-5.72-146.65-2.92-24.6.57-58.62-1.68-83,2.09-5.23.59-5.68.27-6.62-4.83-1.35-11.26,1.94-18.53.53-29.31-6.15-46.82-1.39-94.37-3.6-141.53-1.42,2.83-2.94,5.6-4.29,8.46-2.37,10.67-17.5,9.3-11.81,16.18,11.11,7.95,6.41,21.38,5.15,32.56-.25,3.15-1.35,6.27-.37,9.58.51,8.44-3.19,16.94-4.38,25.31-1.5,8-2.61,15.83-1.54,23.93a5.1,5.1,0,0,1-1.13,3.3c-5.71,6.28-7.75,14-9.19,22.06-.57,3.18-.61,3-3.74,2-12.38-3.52-26.09-4.38-38.6-1.18-1.39.34-2.11,0-2.41-1.47-2-7.76-2.18-16.67-8.49-22.43a6.62,6.62,0,0,1-1.33-3.22A144.46,144.46,0,0,1,39,372.86c-1.91-63,2.6-126.93,26.19-186,13.61-35.43,24.56-73.32,48.07-103.67,27.32-18.2,60-23.76,90.46-34.78a3.16,3.16,0,0,1,2.72.43c5,5.55,11.46,8.41,18.56,9.67,19.19,2.43,41.29,5.55,58.65-4.88,2.85-1.27,4.2-6.53,7.87-5,29.12,10.49,61,14.41,87.44,31.58,15.94,14.59,21.63,38,30.45,57.21,27.81,67.48,58,137.39,51.05,212.08-1.19,18.65-.23,37.45-3.28,55.95-.49,4.66-5.21,7.1-5.56,11.78-1.22,5.28-2.08,10.65-2.91,16-.4,2.6-.41,2.83-3.08,2.33-12.48-2.66-25.26-5.49-37.8-1.58-8.34-.15-8.13-15.56-11.44-21.4-6.28-7.37-3.61-9-5.33-17.64-.9-9.7-4.68-20.27.79-29.26,2-3.53,1.86-7.05.51-10.66-4.9-11.28-7.4-23.41-10.45-35.29-1.07-4.3-1.31-8.49,1.61-12.34,1.51-7.23-10.43-8.68-10.93-15.93Z" fill="#262521" stroke="#262521" stroke-linecap="round" stroke-linejoin="round" stroke-width="3"/><path d="M204.41,52.37s4,48.55,43.68,46.73,42.84-45.41,42.84-45.41" fill="none" stroke="#636363" stroke-linecap="round" stroke-linejoin="round" opacity="0.95"/><path d="M201.83,51.06s7.71,64.75,46.53,64.75,45.26-65,45.26-65" fill="none" stroke="#262521" stroke-linecap="round" stroke-linejoin="round" stroke-width="5" stroke-dasharray="1 3"/><path d="M247.54,115.89a1,1,0,0,1,0-2q.48,0,1,0a1,1,0,0,1,1,1,1,1,0,0,1-1,1c-.34,0-.69,0-1,0Zm-3-.12h-.09c-.34,0-.69-.07-1-.12a1,1,0,0,1,.26-2l.95.11a1,1,0,0,1,.91,1.08A1,1,0,0,1,244.54,115.77Zm7-.18a1,1,0,0,1-.13-2l1-.14a1,1,0,0,1,.32,2c-.34.06-.67.11-1,.15Zm-10.9-.47a1,1,0,0,1-.24,0c-.34-.08-.67-.16-1-.26a1,1,0,1,1,.54-1.92l.93.24a1,1,0,0,1-.23,2Zm14.81-.29a1,1,0,0,1-.24-2l.93-.25a1,1,0,1,1,.55,1.92l-1,.27A1,1,0,0,1,255.43,114.83Zm-18.61-.92a1,1,0,0,1-.37-.07l-1-.4a1,1,0,1,1,.81-1.83l.89.37a1,1,0,0,1-.37,1.93Zm22.41-.3a1,1,0,0,1-.93-.64,1,1,0,0,1,.57-1.29l.9-.36a1,1,0,0,1,.78,1.84l-1,.39A1.13,1.13,0,0,1,259.23,113.61Zm-26-1.43a1,1,0,0,1-.5-.13l-.88-.52a1,1,0,1,1,1-1.71c.27.17.55.33.83.49a1,1,0,0,1-.49,1.87Zm29.62-.23a1,1,0,0,1-.47-1.88l.85-.47a1,1,0,1,1,1,1.73c-.3.18-.6.34-.9.5A1,1,0,0,1,262.86,112Zm-33-2a1,1,0,0,1-.6-.2l-.81-.62a1,1,0,0,1-.17-1.41,1,1,0,0,1,1.4-.16l.77.59a1,1,0,0,1,.21,1.4A1,1,0,0,1,229.9,110Zm36.38-.13a1,1,0,0,1-.83-.43,1,1,0,0,1,.26-1.39l.79-.56a1,1,0,1,1,1.18,1.62l-.84.59A1,1,0,0,1,266.28,109.87Zm-39.45-2.42a1,1,0,0,1-.68-.27l-.75-.7a1,1,0,0,1,1.39-1.44l.71.67a1,1,0,0,1,.06,1.42A1,1,0,0,1,226.83,107.45Zm42.61,0a1,1,0,0,1-.65-1.76l.73-.64a1,1,0,0,1,1.34,1.49l-.77.67A1,1,0,0,1,269.44,107.44Zm2.9-2.73a1,1,0,0,1-.69-.28,1,1,0,0,1,0-1.41l.67-.71a1,1,0,0,1,1.41-.06,1,1,0,0,1,.06,1.42c-.24.25-.47.5-.71.74A1,1,0,0,1,272.34,104.71ZM224,104.6a1,1,0,0,1-.74-.33c-.23-.25-.46-.5-.68-.76a1,1,0,0,1,1.51-1.31l.65.73a1,1,0,0,1-.07,1.42A1,1,0,0,1,224,104.6Zm51-2.87a1,1,0,0,1-.63-.23,1,1,0,0,1-.14-1.41l.62-.76a1,1,0,1,1,1.56,1.24l-.63.79A1,1,0,0,1,275,101.73Zm-53.54-.2a1,1,0,0,1-.79-.39l-.62-.81a1,1,0,0,1,1.61-1.2c.19.27.39.53.59.79a1,1,0,0,1-.18,1.4A1,1,0,0,1,221.46,101.53Zm56-3a1,1,0,0,1-.58-.18A1,1,0,0,1,276.6,97l.56-.81a1,1,0,0,1,1.66,1.13c-.2.27-.39.55-.58.83A1,1,0,0,1,277.42,98.55Zm-58.29-.27a1,1,0,0,1-.83-.45c-.19-.28-.38-.56-.56-.84a1,1,0,1,1,1.68-1.09c.17.27.36.55.54.82a1,1,0,0,1-.28,1.39A1,1,0,0,1,219.13,98.28Zm60.48-3.07a1.13,1.13,0,0,1-.52-.14,1,1,0,0,1-.33-1.38l.51-.85a1,1,0,0,1,1.72,1c-.17.3-.35.59-.52.87A1,1,0,0,1,279.61,95.21ZM217,94.89a1,1,0,0,1-.87-.5l-.5-.87a1,1,0,0,1,1.73-1l.5.85a1,1,0,0,1-.36,1.37A1,1,0,0,1,217,94.89Zm64.61-3.15a1,1,0,0,1-.88-1.48c.15-.29.31-.58.46-.88a1,1,0,0,1,1.35-.42,1,1,0,0,1,.42,1.35c-.15.3-.31.6-.47.9A1,1,0,0,1,281.61,91.74Zm-66.56-.35a1,1,0,0,1-.88-.54c-.16-.29-.31-.59-.47-.9a1,1,0,1,1,1.78-.9c.15.29.3.58.46.87a1,1,0,0,1-.89,1.47Zm68.36-3.23a.9.9,0,0,1-.42-.1,1,1,0,0,1-.48-1.33l.42-.9a1,1,0,1,1,1.81.84l-.42.92A1,1,0,0,1,283.41,88.16Zm-70.14-.36a1,1,0,0,1-.9-.57c-.15-.31-.29-.62-.43-.92a1,1,0,1,1,1.82-.83c.13.3.27.59.41.89a1,1,0,0,1-.47,1.33A1,1,0,0,1,213.27,87.8ZM285,84.5a.84.84,0,0,1-.38-.08,1,1,0,0,1-.54-1.31l.38-.91a1,1,0,1,1,1.85.75l-.38.94A1,1,0,0,1,285,84.5Zm-73.4-.35a1,1,0,0,1-.92-.61l-.39-.93a1,1,0,1,1,1.84-.76l.39.91a1,1,0,0,1-.53,1.31A1.09,1.09,0,0,1,211.64,84.15Zm74.87-3.37a.91.91,0,0,1-.35-.07,1,1,0,0,1-.58-1.28l.34-.93a1,1,0,1,1,1.88.67c-.11.32-.23.64-.35,1A1,1,0,0,1,286.51,80.78Zm-76.37-.34a1,1,0,0,1-.94-.64l-.35-1a1,1,0,0,1,.58-1.28,1,1,0,0,1,1.29.58l.35.93a1,1,0,0,1-.57,1.29A.92.92,0,0,1,210.14,80.44ZM287.84,77a1.12,1.12,0,0,1-.31,0,1,1,0,0,1-.64-1.27c.11-.31.21-.63.31-.94a1,1,0,1,1,1.91.61c-.11.32-.21.64-.32,1A1,1,0,0,1,287.84,77Zm-79.08-.32a1,1,0,0,1-.95-.67l-.33-1a1,1,0,1,1,1.9-.64l.32.94a1,1,0,0,1-.61,1.27A1,1,0,0,1,208.76,76.68ZM289,73.17a1,1,0,0,1-.29,0,1,1,0,0,1-.67-1.24l.27-1a1,1,0,0,1,1.93.54l-.28,1A1,1,0,0,1,289,73.17Zm-81.55-.29a1,1,0,0,1-1-.7l-.31-1a1,1,0,0,1,.66-1.25,1,1,0,0,1,1.25.65l.3.95a1,1,0,0,1-.65,1.26A1,1,0,0,1,207.49,72.88Zm82.62-3.57a1.15,1.15,0,0,1-.26,0,1,1,0,0,1-.71-1.22l.24-1a1,1,0,1,1,1.94.48c-.08.33-.16.65-.25,1A1,1,0,0,1,290.11,69.31ZM206.33,69a1,1,0,0,1-1-.72l-.28-1a1,1,0,1,1,1.92-.54l.28,1A1,1,0,0,1,206.6,69,.84.84,0,0,1,206.33,69Zm84.73-3.63a.9.9,0,0,1-.23,0,1,1,0,0,1-.75-1.2l.22-1a1,1,0,0,1,1.95.43l-.22,1A1,1,0,0,1,291.06,65.41Zm-85.8-.23a1,1,0,0,1-1-.75l-.25-1A1,1,0,1,1,206,63l.25,1a1,1,0,0,1-.71,1.22A.78.78,0,0,1,205.26,65.18Zm86.63-3.69a.62.62,0,0,1-.19,0,1,1,0,0,1-.79-1.17l.19-1a1,1,0,0,1,2,.38l-.2,1A1,1,0,0,1,291.89,61.49Zm-88.57-1-.23-1a1,1,0,0,1,.75-1.2,1,1,0,0,1,1.2.75l.21.91-1,.29Zm89.3-3-.17,0a1,1,0,0,1-.82-1.15c.06-.34.11-.66.16-1a1,1,0,0,1,2,.32c0,.32-.11.65-.17,1A1,1,0,0,1,292.62,57.55Zm-89.21-.18a1,1,0,0,1-1-.79l-.2-1a1,1,0,0,1,.77-1.18,1,1,0,0,1,1.19.78l.2,1a1,1,0,0,1-.77,1.19Zm89.81-3.79h-.13a1,1,0,0,1-.86-1.13c0-.35.09-.68.13-1a1,1,0,0,1,1.12-.87,1,1,0,0,1,.87,1.12c0,.3-.09.64-.14,1A1,1,0,0,1,293.22,53.58Zm-90.6-.15a1,1,0,0,1-1-.81l-.18-1a1,1,0,1,1,2-.35l.18,1a1,1,0,0,1-.81,1.17Z" fill="#b7b6b0"/><path d="M200.37,51.45a1,1,0,0,1-1-.84l-.08-.5a1,1,0,0,1,2-.29l.07.47a1,1,0,0,1-.83,1.15Z" fill="#7f7e78"/><path d="M248.5,117.44h0c-.35,0-.69,0-1,0a1,1,0,1,1,.08-2c.32,0,.64,0,1,0a1,1,0,0,1,0,2Zm3-.11a1,1,0,0,1-.08-2l1-.09a1,1,0,1,1,.23,2l-1,.1Zm-7-.17h-.13l-1-.16a1,1,0,0,1,.33-2l1,.14a1,1,0,0,1-.14,2Zm10.93-.39a1,1,0,0,1-1-.8,1,1,0,0,1,.78-1.18l.94-.21a1,1,0,1,1,.47,1.94l-1,.23Zm-14.84-.39a.78.78,0,0,1-.26,0c-.33-.08-.66-.18-1-.28a1,1,0,1,1,.57-1.91l.93.26a1,1,0,0,1-.25,2Zm18.69-.68a1,1,0,0,1-.33-1.94l.91-.34a1,1,0,0,1,.72,1.87l-1,.35A1,1,0,0,1,259.29,115.7Zm-22.48-.59a1.08,1.08,0,0,1-.38-.08l-.94-.4a1,1,0,1,1,.81-1.83l.89.38a1,1,0,0,1-.38,1.93Zm26.15-1a1,1,0,0,1-.44-1.89l.85-.45a1,1,0,1,1,1,1.76l-.92.48A1,1,0,0,1,263,114.14Zm-29.75-.77a1,1,0,0,1-.48-.12c-.3-.17-.6-.34-.89-.52a1,1,0,1,1,1-1.71l.84.48a1,1,0,0,1-.49,1.87Zm33.21-1.23a1,1,0,0,1-.55-1.84c.27-.17.53-.36.8-.54a1,1,0,0,1,1.15,1.63L267,112A1,1,0,0,1,266.42,112.14Zm-36.58-.91a1,1,0,0,1-.58-.18c-.28-.2-.56-.4-.83-.61a1,1,0,1,1,1.2-1.6l.79.58a1,1,0,0,1,.23,1.4A1,1,0,0,1,229.84,111.23Zm39.79-1.48A1,1,0,0,1,269,108l.74-.64a1,1,0,1,1,1.31,1.51l-.78.66A.94.94,0,0,1,269.63,109.75Zm-42.93-1a1,1,0,0,1-.65-.25l-.77-.68a1,1,0,0,1,1.35-1.48l.73.65a1,1,0,0,1-.66,1.76Zm45.87-1.7a1,1,0,0,1-.71-1.7c.23-.24.46-.47.68-.71a1,1,0,0,1,1.42,0,1,1,0,0,1,0,1.41l-.72.73A1,1,0,0,1,272.57,107.05ZM223.81,106a1,1,0,0,1-.72-.31l-.7-.74a1,1,0,0,1,1.47-1.36c.22.25.45.48.67.72a1,1,0,0,1,0,1.41A1,1,0,0,1,223.81,106Zm51.46-1.89a1,1,0,0,1-.77-1.64l.62-.76a1,1,0,0,1,1.41-.15,1,1,0,0,1,.15,1.4c-.21.27-.43.53-.64.79A1,1,0,0,1,275.27,104.09ZM221.16,103a1,1,0,0,1-.78-.37c-.21-.26-.43-.52-.64-.79a1,1,0,0,1,1.57-1.24c.2.26.41.51.62.76a1,1,0,0,1-.14,1.41A1,1,0,0,1,221.16,103Zm56.56-2.06a1.05,1.05,0,0,1-.58-.19,1,1,0,0,1-.23-1.4c.2-.27.38-.53.57-.8a1,1,0,1,1,1.64,1.14c-.19.28-.39.56-.59.83A1,1,0,0,1,277.72,100.93Zm-59-1.11a1,1,0,0,1-.82-.42l-.58-.83A1,1,0,0,1,219,97.43c.19.27.37.53.57.8a1,1,0,0,1-.23,1.4A1.05,1.05,0,0,1,218.72,99.82ZM280,97.61a.92.92,0,0,1-.53-.16,1,1,0,0,1-.32-1.37l.52-.84A1,1,0,0,1,281,94.9a1,1,0,0,1,.34,1.38l-.54.86A1,1,0,0,1,280,97.61Zm-63.49-1.12a1,1,0,0,1-.84-.46l-.54-.86a1,1,0,0,1,.33-1.38,1,1,0,0,1,1.37.33l.53.84a1,1,0,0,1-.31,1.38A1,1,0,0,1,216.47,96.49ZM282,94.16a.91.91,0,0,1-.48-.13,1,1,0,0,1-.39-1.36c.16-.28.31-.57.47-.86a1,1,0,0,1,1.76.94l-.48.89A1,1,0,0,1,282,94.16Zm-67.58-1.11a1,1,0,0,1-.87-.51c-.17-.29-.33-.59-.49-.88a1,1,0,1,1,1.75-1l.48.87a1,1,0,0,1-.38,1.36A1,1,0,0,1,214.41,93.05Zm69.44-2.45a1,1,0,0,1-.44-.1,1,1,0,0,1-.46-1.34c.15-.3.29-.59.43-.89a1,1,0,0,1,1.81.86l-.45.91A1,1,0,0,1,283.85,90.6Zm-71.33-1.08a1,1,0,0,1-.9-.55l-.45-.9a1,1,0,0,1,1.79-.89l.45.89a1,1,0,0,1-.44,1.34A1.06,1.06,0,0,1,212.52,89.52Zm73-2.55a1,1,0,0,1-.4-.09,1,1,0,0,1-.51-1.32l.39-.91a1,1,0,0,1,1.32-.52,1,1,0,0,1,.52,1.31c-.13.31-.26.62-.4.93A1,1,0,0,1,285.53,87Zm-74.75-1.06a1,1,0,0,1-.91-.58l-.42-.92a1,1,0,0,1,.5-1.32,1,1,0,0,1,1.33.5l.4.9a1,1,0,0,1-.49,1.33A1,1,0,0,1,210.78,85.91Zm76.29-2.65a.92.92,0,0,1-.36-.07,1,1,0,0,1-.57-1.29q.19-.47.36-.93a1,1,0,0,1,1.29-.57,1,1,0,0,1,.58,1.29c-.12.31-.24.63-.37.94A1,1,0,0,1,287.07,83.26Zm-77.9-1a1,1,0,0,1-.92-.62l-.39-.93a1,1,0,0,1,1.86-.75c.12.3.24.61.37.91a1,1,0,0,1-.92,1.39Zm79.31-2.73a1,1,0,0,1-.34-.06,1,1,0,0,1-.61-1.27l.33-.94a1,1,0,0,1,1.89.65l-.33,1A1,1,0,0,1,288.48,79.51Zm-80.79-1a1,1,0,0,1-.93-.64l-.36-1a1,1,0,0,1,1.88-.69l.35.93a1,1,0,0,1-.59,1.29A1,1,0,0,1,207.69,78.51Zm82.06-2.8a1,1,0,0,1-.3,0,1,1,0,0,1-.65-1.26l.3-1a1,1,0,0,1,1.91.6l-.31,1A1,1,0,0,1,289.75,75.71Zm-83.42-1a1,1,0,0,1-.94-.67l-.33-1a1,1,0,1,1,1.9-.63l.32.94a1,1,0,0,1-.62,1.27A1.26,1.26,0,0,1,206.33,74.74Zm84.58-2.87a1,1,0,0,1-.28,0,1,1,0,0,1-.68-1.24l.27-1a1,1,0,0,1,1.23-.7,1,1,0,0,1,.7,1.23l-.28,1A1,1,0,0,1,290.91,71.87Zm-85.83-.94a1,1,0,0,1-1-.7l-.3-1a1,1,0,1,1,1.91-.59l.3.95a1,1,0,0,1-.66,1.26A1,1,0,0,1,205.08,70.93ZM292,68a.69.69,0,0,1-.25,0,1,1,0,0,1-.72-1.21l.24-1a1,1,0,0,1,1.94.48l-.25,1A1,1,0,0,1,292,68Zm-88-.91a1,1,0,0,1-1-.73l-.27-1a1,1,0,0,1,1.93-.53l.27,1a1,1,0,0,1-.69,1.24A.9.9,0,0,1,203.93,67.09Zm89-3a.9.9,0,0,1-.23,0,1,1,0,0,1-.75-1.2l.22-1a1,1,0,0,1,1.95.43l-.22,1A1,1,0,0,1,292.9,64.09Zm-90-.87a1,1,0,0,1-1-.76l-.25-1a1,1,0,1,1,1.94-.49l.25,1a1,1,0,0,1-.72,1.21A.77.77,0,0,1,202.89,63.22Zm90.84-3-.19,0a1,1,0,0,1-.79-1.17l.19-1a1,1,0,0,1,2,.37l-.2,1A1,1,0,0,1,293.73,60.17Zm-91.79-.85a1,1,0,0,1-1-.78l-.23-1a1,1,0,0,1,2-.43l.22,1a1,1,0,0,1-.75,1.2A.91.91,0,0,1,201.94,59.32Zm92.52-3.1h-.17a1,1,0,0,1-.82-1.16l.17-1a1,1,0,1,1,2,.32l-.16,1A1,1,0,0,1,294.46,56.22Zm-93.36-.83a1,1,0,0,1-1-.8c-.07-.35-.14-.68-.2-1a1,1,0,1,1,2-.37c.05.3.12.63.19,1a1,1,0,0,1-.78,1.18Z" fill="#7f7e78"/><path d="M295.06,52.27h-.13a1,1,0,0,1-.86-1.12l.06-.47a1,1,0,0,1,1.1-.89,1,1,0,0,1,.89,1.1s0,.18-.07.52A1,1,0,0,1,295.06,52.27Z" fill="#7f7e78"/><g opacity="0.86"><path d="M262.86,112a1,1,0,0,1-.47-1.88l.85-.47a1,1,0,1,1,1,1.73c-.3.18-.6.34-.9.5A1,1,0,0,1,262.86,112Zm-33-2a1,1,0,0,1-.6-.2l-.81-.62a1,1,0,0,1-.17-1.41,1,1,0,0,1,1.4-.16l.77.59a1,1,0,0,1,.21,1.4A1,1,0,0,1,229.9,110Zm36.38-.13a1,1,0,0,1-.83-.43,1,1,0,0,1,.26-1.39l.79-.56a1,1,0,1,1,1.18,1.62l-.84.59A1,1,0,0,1,266.28,109.87Zm-39.45-2.42a1,1,0,0,1-.68-.27l-.75-.7a1,1,0,0,1,1.39-1.44l.71.67a1,1,0,0,1,.06,1.42A1,1,0,0,1,226.83,107.45Zm42.61,0a1,1,0,0,1-.65-1.76l.73-.64a1,1,0,0,1,1.34,1.49l-.77.67A1,1,0,0,1,269.44,107.44Zm2.9-2.73a1,1,0,0,1-.69-.28,1,1,0,0,1,0-1.41l.67-.71a1,1,0,0,1,1.41-.06,1,1,0,0,1,.06,1.42c-.24.25-.47.5-.71.74A1,1,0,0,1,272.34,104.71ZM224,104.6a1,1,0,0,1-.74-.33c-.23-.25-.46-.5-.68-.76a1,1,0,0,1,1.51-1.31l.65.73a1,1,0,0,1-.07,1.42A1,1,0,0,1,224,104.6Zm51-2.87a1,1,0,0,1-.63-.23,1,1,0,0,1-.14-1.41l.62-.76a1,1,0,1,1,1.56,1.24l-.63.79A1,1,0,0,1,275,101.73Zm2.42-3.18a1,1,0,0,1-.58-.18A1,1,0,0,1,276.6,97l.56-.81a1,1,0,0,1,1.66,1.13c-.2.27-.39.55-.58.83A1,1,0,0,1,277.42,98.55Z" fill="#fff"/></g><g opacity="0.86"><path d="M200.37,51.45a1,1,0,0,1-1-.84l-.08-.5a1,1,0,0,1,2-.29l.07.47a1,1,0,0,1-.83,1.15Z" fill="#fff"/><path d="M266.42,112.14a1,1,0,0,1-.55-1.84c.27-.17.53-.36.8-.54a1,1,0,0,1,1.15,1.63L267,112A1,1,0,0,1,266.42,112.14Zm3.21-2.39A1,1,0,0,1,269,108l.74-.64a1,1,0,1,1,1.31,1.51l-.78.66A.94.94,0,0,1,269.63,109.75Zm-42.93-1a1,1,0,0,1-.65-.25l-.77-.68a1,1,0,0,1,1.35-1.48l.73.65a1,1,0,0,1-.66,1.76Zm45.87-1.7a1,1,0,0,1-.71-1.7c.23-.24.46-.47.68-.71a1,1,0,0,1,1.42,0,1,1,0,0,1,0,1.41l-.72.73A1,1,0,0,1,272.57,107.05ZM223.81,106a1,1,0,0,1-.72-.31l-.7-.74a1,1,0,0,1,1.47-1.36c.22.25.45.48.67.72a1,1,0,0,1,0,1.41A1,1,0,0,1,223.81,106Zm51.46-1.89a1,1,0,0,1-.77-1.64l.62-.76a1,1,0,0,1,1.41-.15,1,1,0,0,1,.15,1.4c-.21.27-.43.53-.64.79A1,1,0,0,1,275.27,104.09ZM221.16,103a1,1,0,0,1-.78-.37c-.21-.26-.43-.52-.64-.79a1,1,0,0,1,1.57-1.24c.2.26.41.51.62.76a1,1,0,0,1-.14,1.41A1,1,0,0,1,221.16,103Z" fill="#fff"/><path d="M295.06,52.27h-.13a1,1,0,0,1-.86-1.12l.06-.47a1,1,0,0,1,1.1-.89,1,1,0,0,1,.89,1.1s0,.18-.07.52A1,1,0,0,1,295.06,52.27Z" fill="#fff"/></g><path d="M346.1,65s-59-23.12-57.35-19.64-5.26,82.28-24,104.91S346.1,65,346.1,65Z" fill="#262521" stroke="#262521" stroke-linecap="round" stroke-linejoin="round" stroke-width="3"/><path d="M288.75,45.38c1.66,3.48-5.26,82.28-24,104.91" fill="none" stroke="#636363" stroke-linecap="round" stroke-linejoin="round" opacity="0.95"/><path d="M240.13,352.4s29,147.34,80.43,145.1,45.81-1.11,46.37-10.61.91-27.86.91-27.86" fill="#262521" stroke="#262521" stroke-linecap="round" stroke-linejoin="round" stroke-width="3"/><path d="M240.13,352.4s29,147.34,80.43,145.1" fill="none" stroke="#636363" stroke-linecap="round" stroke-linejoin="round" opacity="0.95"/><path d="M126.56,455.57s-10.3,57.63,47.75,44.55c39.73-8.95,96.88-183.4,136.13-240s36-208.49,29-208.71-12.74,54.72-71,68.21-65.13-79.19-65.13-79.19-30.84,2.72-36.77,19.7" fill="#262521" stroke="#262521" stroke-linecap="round" stroke-linejoin="round" stroke-width="3"/><path d="M126.56,455.57s-10.3,57.63,47.75,44.55c39.73-8.95,77.63-149.91,116.86-206.48,64.81-93.48,55.24-242,48.29-242.19s-12.74,54.72-71,68.21-65.13-79.19-65.13-79.19" fill="none" stroke="#636363" stroke-linecap="round" stroke-linejoin="round" opacity="0.95"/><path d="M169.05,68s18.25,144.85,45.89,170.45" fill="none" stroke="#636363" stroke-linecap="round" stroke-linejoin="round" opacity="0.95"/><path d="M192,81.8s16,133.94,48.13,189.46" fill="none" stroke="#636363" stroke-linecap="round" stroke-linejoin="round" opacity="0.95"/><path d="M229.21,141.34s69.31,76,97.37-31.67" fill="none" stroke="#636363" stroke-linecap="round" stroke-linejoin="round" opacity="0.95"/></svg>