<svg xmlns="http://www.w3.org/2000/svg" width="500" height="550" viewBox="0 0 500 550"><defs><clipPath id="a"><path d="M248.85 237.88c-20.26-28.18-49.25-182-46.65-188.82-30.43 11-58.82 15.92-86.15 34.12-23.5 30.35-34.46 68.24-48.05 103.67-23.59 59.08-28.11 123-26.19 186-.36 11.19.74 98 2.77 105.72.3 1.47 62.69 2.66 63.26-.52 1.45-8 2.86-179.6 5.23-190.27 1.35-2.86 13.78-67 15.19-69.81 2.21 47.15-8.87 215.9-1.17 247.91.5 2.06 93.73 19.49 110.48-1.4s11.28-203.48 11.28-226.6z" fill="none"/></clipPath><clipPath id="b"><path d="M204.35 70.17L175.94 102c9.06 22.51 43.91 118.09 71.47 133l.63-4.76C226.5 196.41 210.64 106 204.35 70.17z" fill="none"/></clipPath><clipPath id="c"><path d="M208.43 39.24s-11.51.26-22.73 20.62C176.23 77 172 80.56 172 80.56l15.43 8.37 17.4-15.73-2.23-23.8z" fill="none"/></clipPath><clipPath id="d"><path d="M457.2 336.13c-2.15-75.82-17.9-126.54-45.71-194C402.66 122.88 397 99.48 381 84.9c-26.38-17.18-58.6-25.14-87.72-35.64-3.64-1.53-21.79 134.89-54.28 191.94 0 26.15 9.35 210.38 25.06 226.63s114.41 2.05 114.58 1.44c6.89-23.52-11.52-249.35-11.38-249.37.51 7.24 17.36 62 19.83 69 2.65 7.45 8.93 187.71 11.53 191.53 3.78 5.55 60 6 60 .13-.02-5.44-.9-125.74-1.42-144.43z" fill="none"/></clipPath><clipPath id="e"><path d="M287.77 72.62l32 28.43c-3.4 20-27.73 114.39-79.81 148.62l-1-8.47c17.4-28.68 42.52-132.72 48.81-168.58z" fill="none"/></clipPath><clipPath id="f"><path d="M287.48 41.6s12.57 0 23.79 20.36c9.47 17.18 12.63 21 12.63 21l-18.24 5.6-17.89-15.9 4-23.36z" fill="none"/></clipPath></defs><path d="M277.92 31.37c-39.41-8.24-62.34 0-62.34 0l27.33 55.09z" fill="#fff" stroke="#262521" stroke-linecap="round" stroke-linejoin="round" stroke-width="3"/><path fill="#fff" stroke="#262521" stroke-linecap="round" stroke-linejoin="round" stroke-width="3" d="M285.2 47.74l61.56 28.1L247.97 275 150.44 70.61l58.09-22.87"/><path d="M215.58 31.37S231.44 54 246 65.13l-31.4 21.33s-12.33-34.13-8.44-41.67a66.81 66.81 0 019.42-13.42zM277.92 31.37S262.06 54 247.47 65.13l31.42 21.33s13.93-33 10-40.56-10.97-14.53-10.97-14.53z" fill="#fff" stroke="#262521" stroke-linecap="round" stroke-linejoin="round" stroke-width="3"/><g clip-path="url(#a)"><path fill="#262521" d="M22.18 31.37h267.44v469H22.18z"/><path fill="#3f4954" opacity=".6" d="M58.45 57.62h6.96v427.13h-6.96zM44.53 57.62h6.96v427.13h-6.96zM72.42 57.62h6.96v427.13h-6.96zM86.33 57.62h6.96v427.13h-6.96zM100.3 57.62h6.96v427.13h-6.96zM114.73 57.62h6.96v427.13h-6.96zM128.7 57.62h6.96v427.13h-6.96zM142.61 57.62h6.96v427.13h-6.96zM156.58 57.62h6.96v427.13h-6.96zM171.05 57.62h6.96v427.13h-6.96zM185.01 57.62h6.96v427.13h-6.96zM198.92 57.62h6.96v427.13h-6.96zM212.89 57.62h6.96v427.13h-6.96zM227.11 57.62h6.96v427.13h-6.96zM241.08 57.62h6.96v427.13h-6.96z"/></g><path d="M239.25 91.51s-5.59 135.71-.3 149.69 21.89 13 21.85-4.13 1.48-17-7.65-145.56z" fill="#262521"/><g clip-path="url(#b)"><path fill="#262521" d="M296.699 253.944l-77.2 32.468L139.95 97.27l77.2-32.468z"/><path fill="#3f4954" opacity=".6" d="M283.961 251.895l-6.416 2.698-76.663-182.285 6.416-2.698zM271.083 257.305l-6.416 2.699-76.663-182.286 6.416-2.698zM258.26 262.687l-6.415 2.698L175.182 83.1l6.415-2.698zM245.387 268.11l-6.416 2.699-76.663-182.285 6.416-2.699z"/></g><g clip-path="url(#c)"><path fill="#262521" d="M232.92 33.01v57.34h-74.4V33.01z"/><path fill="#3f4954" opacity=".6" d="M230.45 37.56v6.96h-71.7v-6.96zM230.44 51.99v6.96h-71.7v-6.96zM230.44 65.96v6.96h-71.7v-6.96zM230.45 79.87v6.96h-71.7v-6.96z"/></g><path d="M248.85 237.88c-20.26-28.18-49.25-182-46.65-188.82l6.4-9.82S195 41.6 188.41 54.07C163.5 62 138.9 68 116.05 83.18 92.55 113.53 81.59 151.42 68 186.85c-23.59 59.08-28.11 123-26.19 186-.36 11.19.74 98 2.77 105.72.3 1.47 62.69 2.66 63.26-.52 1.45-8 2.86-179.6 5.23-190.27 1.35-2.86 13.78-67 15.19-69.81 2.21 47.15-8.87 215.9-1.17 247.91.5 2.06 93.73 19.49 110.48-1.4s11.28-203.48 11.28-226.6z" fill="none" stroke="#262521" stroke-linecap="round" stroke-linejoin="round" stroke-width="3"/><g clip-path="url(#d)"><path fill="#262521" d="M218.72 37.85h267.44v469H218.72z"/><path fill="#3f4954" opacity=".6" d="M255 39.24h6.96v451.99H255zM241.07 39.24h6.96v451.99h-6.96zM268.96 39.24h6.96v451.99h-6.96zM282.87 39.24h6.96v451.99h-6.96zM296.84 39.24h6.96v451.99h-6.96zM311.27 39.24h6.96v451.99h-6.96zM325.24 39.24h6.96v451.99h-6.96zM339.15 39.24h6.96v451.99h-6.96zM353.12 39.24h6.96v451.99h-6.96zM367.59 39.24h6.96v451.99h-6.96zM381.56 39.24h6.96v451.99h-6.96zM395.46 39.24h6.96v451.99h-6.96zM409.43 39.24h6.96v451.99h-6.96zM423.65 39.24h6.96v451.99h-6.96zM437.62 39.24h6.96v451.99h-6.96zM451.64 39.24h6.96v451.99h-6.96z"/></g><path d="M457.2 336.13c-2.15-75.82-17.9-126.54-45.71-194C402.66 122.88 397 99.48 381 84.9c-22.67-14.77-49.65-22.72-75.27-31.33-9.46-12-18.28-12-18.28-12l4.33 7.66-2.23 12.9c-7.46 35.13-24.35 133-50.63 179 0 26.15 9.35 210.38 25.06 226.63s114.41 2.05 114.58 1.44c6.89-23.52-11.52-249.35-11.38-249.37.51 7.24 17.36 62 19.83 69 2.65 7.45 8.93 187.71 11.53 191.53 3.78 5.55 60 6 60 .13.06-5.37-.82-125.67-1.34-144.36z" fill="none" stroke="#262521" stroke-linecap="round" stroke-linejoin="round" stroke-width="3"/><g clip-path="url(#e)"><path fill="#262521" d="M276.069 59.71l77.2 32.467-79.547 189.144-77.2-32.468z"/><path fill="#3f4954" opacity=".6" d="M285.926 64.509l6.416 2.698-76.663 182.285-6.416-2.698zM298.798 69.924l6.416 2.699-76.663 182.285-6.416-2.699zM311.616 75.323l6.416 2.698-76.663 182.285-6.416-2.698zM324.501 80.733l6.416 2.698-76.663 182.285-6.416-2.698z"/></g><g clip-path="url(#f)"><path fill="#262521" d="M337.39 35.37v57.34h-74.4V35.37z"/><path fill="#3f4954" opacity=".6" d="M337.17 39.91v6.96h-71.7v-6.96zM337.17 54.35v6.96h-71.7v-6.96zM337.17 68.32v6.96h-71.7v-6.96zM337.17 82.22v6.96h-71.7v-6.96z"/></g><path d="M239.51 241.46c0 26.15 8.79 210.12 24.5 226.37" fill="none" stroke="#4c5760" stroke-linecap="round" stroke-linejoin="round"/><path d="M253 69.3a29.28 29.28 0 00-20.27 4.7 2.41 2.41 0 00-1 1 2.59 2.59 0 000 1.58A81.25 81.25 0 00237.64 93a7.12 7.12 0 002 2.78 6.9 6.9 0 003.69 1 47.31 47.31 0 006.84-.1 4.09 4.09 0 002.18-.64 4.21 4.21 0 001.14-1.79A127.78 127.78 0 00258 81.49a16.41 16.41 0 00.93-6.26 6.07 6.07 0 00-3.34-5.07" fill="#262521"/><path d="M308.34 57.09l15.56 25.83-18.24 5.6 14.12 12.53C313.07 146 281.94 220.71 240 249.67M187.16 57.62L172 80.82l15.43 8.11L175.94 102s41.64 107.61 64.62 128.18" fill="none" stroke="#4c5760" stroke-linecap="round" stroke-linejoin="round"/><path fill="none" stroke="#4c5760" stroke-linecap="round" stroke-linejoin="round" d="M298.26 171.2h54.93v14.24h-61.57"/><circle cx="245.96" cy="256.44" r="3.22" fill="#262521"/><path d="M364.14 369.53h-58.72a6.92 6.92 0 01-6.9-6.89v-8.84c0-3.79 72.52-3.79 72.52 0v8.84a6.92 6.92 0 01-6.9 6.89zM197.79 369.53h-58.72a6.92 6.92 0 01-6.9-6.89v-8.84c0-3.79 72.52-3.79 72.52 0v8.84a6.92 6.92 0 01-6.9 6.89z" fill="none" stroke="#4c5760" stroke-linecap="round" stroke-linejoin="round"/></svg>