<svg xmlns="http://www.w3.org/2000/svg" xmlns:xlink="http://www.w3.org/1999/xlink" width="500" height="550" viewBox="0 0 500 550"><defs><clipPath id="a"><path d="M752.52,86.25c-14.26-14.68-18-38.48-18.59-38.3-30.43,11-63.14,16.58-90.46,34.78,4,20,8.88,61.37,8.33,98.12,1.8,14.88-2.22,43.36-.91,55.09,5.41,48.52,2.46,56.06,3.17,54.64,1.48,31.59-2.67,62.57-2.07,93.43.07,3.71,58.45,10.3,68-18C742,278.54,752.52,86.25,752.52,86.25Z" fill="none"/></clipPath></defs><title>s02e10-01</title><path d="M467.36,170.44c-22.24-32.92-75.74-84.54-92.64-94.14S294.07,49,294.07,49c-48.16,30.16-87.35,0-87.35,0s-66.91,17.62-83.34,28.88-90.84,87.42-90.84,94.26,53.44,56.43,62.85,56,35.49-17.11,35.91-12.83c3,106.81,3.39,245.74,2.36,250.07-1.82,7.65-1.09,17.66,3.64,18.54s42.22-7.43,57.87-4.15,176.13,4.51,179.41,2.33c2-1.32.68-149.85-3.54-267.22-.31-8.55,22.75,18,31.33,12.83C410,223.12,470.28,174.77,467.36,170.44Z" fill="#262521" stroke="#262521" stroke-linecap="round" stroke-linejoin="round" stroke-width="3"/><path d="M372,210s-1-15.7-1-25.51-6.46-19.13-4.36-37.34l4.38-3.1" fill="none" stroke="#636363" stroke-linecap="round" stroke-linejoin="round"/><path d="M130.42,212.74s1.68-50.44.88-53.77" fill="none" stroke="#636363" stroke-linecap="round" stroke-linejoin="round"/><path d="M206.72,51.51s4,48.55,43.68,46.73,43.67-46.73,43.67-46.73" fill="none" stroke="#636363" stroke-linecap="round" stroke-linejoin="round"/><g clip-path="url(#a)"><line x1="854.19" y1="247.57" x2="484.69" y2="232.97" fill="none" stroke="#998f8f" stroke-linecap="round" stroke-linejoin="round"/><line x1="848.99" y1="220.73" x2="484.26" y2="206.32" fill="none" stroke="#998f8f" stroke-linecap="round" stroke-linejoin="round"/><line x1="854.04" y1="234.47" x2="484.54" y2="219.86" fill="none" stroke="#998f8f" stroke-linecap="round" stroke-linejoin="round"/><line x1="848.69" y1="194.14" x2="483.96" y2="179.73" fill="none" stroke="#998f8f" stroke-linecap="round" stroke-linejoin="round"/><line x1="853.74" y1="207.88" x2="484.24" y2="193.27" fill="none" stroke="#998f8f" stroke-linecap="round" stroke-linejoin="round"/><line x1="848.39" y1="167.59" x2="483.66" y2="153.17" fill="none" stroke="#998f8f" stroke-linecap="round" stroke-linejoin="round"/><line x1="853.44" y1="181.32" x2="483.94" y2="166.72" fill="none" stroke="#998f8f" stroke-linecap="round" stroke-linejoin="round"/><line x1="848.09" y1="141" x2="483.36" y2="126.58" fill="none" stroke="#998f8f" stroke-linecap="round" stroke-linejoin="round"/><line x1="853.14" y1="154.73" x2="483.63" y2="140.13" fill="none" stroke="#998f8f" stroke-linecap="round" stroke-linejoin="round"/><line x1="854.19" y1="340.16" x2="484.69" y2="325.55" fill="none" stroke="#998f8f" stroke-linecap="round" stroke-linejoin="round"/><line x1="848.99" y1="313.31" x2="484.26" y2="298.9" fill="none" stroke="#998f8f" stroke-linecap="round" stroke-linejoin="round"/><line x1="854.04" y1="327.05" x2="484.54" y2="312.45" fill="none" stroke="#998f8f" stroke-linecap="round" stroke-linejoin="round"/><line x1="848.69" y1="286.72" x2="483.96" y2="272.31" fill="none" stroke="#998f8f" stroke-linecap="round" stroke-linejoin="round"/><line x1="853.74" y1="300.46" x2="484.24" y2="285.86" fill="none" stroke="#998f8f" stroke-linecap="round" stroke-linejoin="round"/><line x1="848.99" y1="366.52" x2="484.26" y2="352.1" fill="none" stroke="#998f8f" stroke-linecap="round" stroke-linejoin="round"/><line x1="854.04" y1="380.25" x2="484.54" y2="365.65" fill="none" stroke="#998f8f" stroke-linecap="round" stroke-linejoin="round"/><line x1="853.74" y1="353.66" x2="484.24" y2="339.06" fill="none" stroke="#998f8f" stroke-linecap="round" stroke-linejoin="round"/><line x1="848.39" y1="260.17" x2="483.66" y2="245.76" fill="none" stroke="#998f8f" stroke-linecap="round" stroke-linejoin="round"/><line x1="853.44" y1="273.91" x2="483.94" y2="259.3" fill="none" stroke="#998f8f" stroke-linecap="round" stroke-linejoin="round"/><line x1="847.78" y1="114.17" x2="483.06" y2="99.76" fill="none" stroke="#998f8f" stroke-linecap="round" stroke-linejoin="round"/><line x1="852.83" y1="127.91" x2="483.33" y2="113.31" fill="none" stroke="#998f8f" stroke-linecap="round" stroke-linejoin="round"/><line x1="847.48" y1="87.58" x2="482.75" y2="73.17" fill="none" stroke="#998f8f" stroke-linecap="round" stroke-linejoin="round"/><line x1="852.53" y1="101.32" x2="483.03" y2="86.72" fill="none" stroke="#998f8f" stroke-linecap="round" stroke-linejoin="round"/><line x1="847.33" y1="73.67" x2="482.6" y2="59.26" fill="none" stroke="#998f8f" stroke-linecap="round" stroke-linejoin="round"/><line x1="852.08" y1="60.82" x2="482.57" y2="46.21" fill="none" stroke="#998f8f" stroke-linecap="round" stroke-linejoin="round"/></g></svg>