<svg xmlns="http://www.w3.org/2000/svg" width="500" height="550" viewBox="0 0 500 550"><title>s02e13-01</title><polygon points="129.63 460.28 130.38 476.53 152.89 474.87 152.89 454.28 129.63 460.28" fill="#fff" stroke="#262521" stroke-linecap="round" stroke-linejoin="round" stroke-width="3"/><polygon points="341.6 478.49 372.64 478.49 371.75 451.61 339.61 447.45 341.6 478.49" fill="#fff" stroke="#262521" stroke-linecap="round" stroke-linejoin="round" stroke-width="3"/><path d="M378.89,86.25c15.94,14.58,21.63,38,30.45,57.2,27.81,67.49,56,137.39,49.06,212.08-1.2,18.65,1.76,37.45-1.29,56-.49,4.67-5.21,7.1-5.56,11.78-1.22,5.28-2.08,10.65-2.91,16-.4,2.61-.41,2.83-3.08,2.33-12.48-2.65-25.26-5.48-37.8-1.58-8.34-.14-8.13-15.56-11.44-21.4-6.28-7.37-3.61-9-5.33-17.63-.9-9.71-2.18-20.28,3.29-29.27,2-3.53,1.86-7.05.51-10.66-4.9-11.28-8.4-23.41-11.45-35.29-1.06-4.3-.81-8.49,2.11-12.34,1.51-7.23-16.76-63.17-22.06-59.75-.17,41.15-12.3,123.19-12.5,164.33" fill="#fff" stroke="#262521" stroke-linecap="round" stroke-linejoin="round" stroke-width="3"/><path d="M155.24,416.17c-6.15-46.82-26.33-161.06-26.33-161.06s-8.07,47.56-9.42,50.41c-2.36,10.68-15.5,9.3-9.81,16.19,11.11,7.94,6.41,21.38,5.15,32.55-.24,3.16-1.35,6.27-.37,9.58.51,8.44-3.19,16.94-4.38,25.31-1.5,8-10.41,41.28-11.86,49.29-.57,3.18-.61,3-3.74,2.05-12.38-3.52-26.09-4.38-38.6-1.18-1.39.35-2.1,0-2.41-1.47-2-7.76.82-16.67-5.49-22.42a6.66,6.66,0,0,1-1.33-3.22c-2.22-11-6.07-22.12-5.72-33.31-1.91-63,2.6-126.93,26.19-186,13.61-35.44,24.57-73.33,48.07-103.68" fill="#fff" stroke="#262521" stroke-linecap="round" stroke-linejoin="round" stroke-width="3"/><path d="M53.29,415.54S82,406.06,98.44,418" fill="none" stroke="#636363" stroke-linecap="round" stroke-linejoin="round"/><path d="M402.15,418s25.94-8.3,43.55,0" fill="none" stroke="#636363" stroke-linecap="round" stroke-linejoin="round"/><path d="M202.67,49S241.85,79.17,290,49l26.86,54.76L239.08,150,190.75,84.62Z" fill="#e5e5e5" stroke="#262521" stroke-linecap="round" stroke-linejoin="round" stroke-width="3"/><path d="M202.67,49s4,48.55,43.67,46.73S290,49,290,49s77.14,26.43,94.05,36S430.81,186.37,442.3,211.2c4,8.62-74.54,24.25-74.24,32.79,4.23,117.37,5.37,215.15,3.4,216.47-.27.17-19.64.93-19.64.93l-2.11,21.67c-44.63.62-146.3-.7-158.6-3.27-15.65-3.28-36.11,3.13-40.84,2.25-2.34-.43-4.24-19-4.24-19s-16.6,3.54-16.33-.43,1.48-116-1.52-222.8c-.42-4.27-66.46-2.94-75.18-22.46-2.79-6.25,45.77-116.89,62.19-128.15S202.67,49,202.67,49Z" fill="#fff" stroke="#262521" stroke-linecap="round" stroke-linejoin="round" stroke-width="3"/><path d="M368.06,244s-2.53-49.69-2.58-59.5,1.81-25.3,1.81-25.3" fill="none" stroke="#262521" stroke-linecap="round" stroke-linejoin="round" stroke-width="3"/><path d="M128.18,239.82s-.13-77.52-.93-80.85" fill="none" stroke="#262521" stroke-linecap="round" stroke-linejoin="round" stroke-width="3"/><path d="M367.7,236.79l-15.88,224.6s18.43,1.87,19.64-.93C373.2,456.4,367.7,236.79,367.7,236.79Z" fill="#262521" stroke="#262521" stroke-linecap="round" stroke-linejoin="round" stroke-width="3"/><path d="M128,236.79l18,226.26s-14.95,2.23-16.15-.58C128.13,458.41,128,236.79,128,236.79Z" fill="#262521" stroke="#262521" stroke-linecap="round" stroke-linejoin="round" stroke-width="3"/></svg>