<svg xmlns="http://www.w3.org/2000/svg" width="500" height="550" viewBox="0 0 500 550"><title>s02e06-03</title><polygon points="133.68 460.28 134.44 476.53 156.94 474.87 156.94 454.28 133.68 460.28" fill="#fff" stroke="#262521" stroke-linecap="round" stroke-linejoin="round" stroke-width="3"/><polygon points="345.65 478.49 376.69 478.49 375.81 451.61 343.67 447.45 345.65 478.49" fill="#fff" stroke="#262521" stroke-linecap="round" stroke-linejoin="round" stroke-width="3"/><path d="M382.94,86.25c15.94,14.58,21.63,38,30.46,57.2,27.81,67.49,56,137.39,49.05,212.08-1.19,18.65,1.76,37.45-1.29,56-.48,4.66-5.2,7.1-5.55,11.78-1.22,5.28-2.08,10.65-2.91,16-.41,2.6-.42,2.83-3.09,2.33-12.47-2.65-25.25-5.48-37.79-1.58-8.34-.14-8.14-15.56-11.45-21.4-6.27-7.37-3.6-9-5.32-17.63-.9-9.71-2.19-20.28,3.29-29.27,2-3.53,1.86-7.05.51-10.66-4.9-11.28-8.4-23.41-11.46-35.29-1.06-4.3-.81-8.49,2.12-12.34,1.5-7.23-16.76-63.17-22.06-59.75-.18,41.15-12.3,123.19-12.5,164.33" fill="#fff" stroke="#262521" stroke-linecap="round" stroke-linejoin="round" stroke-width="3"/><path d="M159.29,416.17C153.14,369.35,133,255.11,133,255.11s-8.07,47.56-9.41,50.41c-2.37,10.68-15.51,9.3-9.81,16.19,11.11,7.94,6.4,21.38,5.15,32.55-.25,3.16-1.35,6.27-.37,9.58.5,8.44-3.2,16.94-4.39,25.31-1.5,8-10.41,41.28-11.85,49.29-.57,3.18-.62,3-3.74,2.05-12.38-3.52-26.09-4.38-38.61-1.18-1.39.35-2.1,0-2.41-1.47-2-7.76.83-16.67-5.48-22.42a6.56,6.56,0,0,1-1.33-3.22c-2.23-11-6.08-22.12-5.72-33.31-1.92-63,2.6-126.93,26.19-186,13.6-35.44,24.56-73.33,48.06-103.68" fill="#fff" stroke="#262521" stroke-linecap="round" stroke-linejoin="round" stroke-width="3"/><path d="M57.34,415.54S86,406.05,102.49,418" fill="none" stroke="#636363" stroke-linecap="round" stroke-linejoin="round"/><path d="M406.21,418s25.94-8.3,43.54,0" fill="none" stroke="#636363" stroke-linecap="round" stroke-linejoin="round"/><path d="M206.72,49s39.19,30.16,87.35,0l26.87,54.76L243.13,150,194.8,84.62Z" fill="#e5e5e5" stroke="#262521" stroke-linecap="round" stroke-linejoin="round" stroke-width="3"/><path d="M206.72,49s4,48.55,43.68,46.73S294.07,49,294.07,49s77.15,26.43,94.05,36,46.75,101.33,58.23,126.16c4,8.62-74.54,24.25-74.23,32.79,4.23,117.37,5.37,215.15,3.39,216.47-.26.17-19.63.93-19.63.93l-2.12,21.67c-44.63.62-146.3-.7-158.59-3.27-15.65-3.28-36.11,3.13-40.85,2.25-2.33-.43-4.24-19-4.24-19s-16.6,3.54-16.32-.43,1.47-116-1.52-222.8c-.43-4.27-66.47-2.94-75.18-22.46-2.79-6.25,45.76-116.89,62.18-128.15S206.72,49,206.72,49Z" fill="#fff" stroke="#262521" stroke-linecap="round" stroke-linejoin="round" stroke-width="3"/><path d="M372.12,244s-2.53-49.69-2.58-59.5,1.81-25.3,1.81-25.3" fill="none" stroke="#262521" stroke-linecap="round" stroke-linejoin="round" stroke-width="3"/><path d="M132.24,239.82s-.14-77.52-.94-80.85" fill="none" stroke="#262521" stroke-linecap="round" stroke-linejoin="round" stroke-width="3"/><path d="M371.76,236.79l-15.88,224.6s18.42,1.87,19.63-.93C377.26,456.4,371.76,236.79,371.76,236.79Z" fill="#262521" stroke="#262521" stroke-linecap="round" stroke-linejoin="round" stroke-width="3"/><path d="M132.1,236.79l18,226.26s-14.94,2.23-16.15-.58C132.19,458.41,132.1,236.79,132.1,236.79Z" fill="#262521" stroke="#262521" stroke-linecap="round" stroke-linejoin="round" stroke-width="3"/></svg>