<svg xmlns="http://www.w3.org/2000/svg" width="500" height="550" viewBox="0 0 500 550"><path d="M372.14 291.55q-.27 61.74-.62 123.47c-.81 9-2.68 16.41-3.55 25.44-1 10.07 1.34 17.05-1.5 25.63-.59 1.77-2 1.67-3.35 1.44-44.59-7.74-101.66-5.72-146.65-2.92-24.6.57-58.62-1.68-83 2.09-5.23.59-5.68.27-6.62-4.83-1.35-11.26 1.94-18.53.53-29.31-6.15-46.82-1.39-94.37-3.6-141.53-1.42 2.83-2.94 5.6-4.29 8.46-2.37 10.67-17.5 9.3-11.81 16.18 11.11 7.95 6.41 21.38 5.15 32.56-.25 3.15-1.35 6.27-.37 9.58.51 8.44-3.19 16.94-4.38 25.31-1.5 8-2.61 15.83-1.54 23.93a5.1 5.1 0 01-1.13 3.3c-5.71 6.28-7.75 14-9.19 22.06-.57 3.18-.61 3-3.74 2-12.38-3.52-26.09-4.38-38.6-1.18-1.39.34-2.11 0-2.41-1.47-2-7.76-2.18-16.67-8.49-22.43a6.62 6.62 0 01-1.33-3.22A144.46 144.46 0 0139 372.86c-1.91-63 2.6-126.93 26.19-186 13.61-35.43 24.56-73.32 48.07-103.67 27.32-18.2 60-23.76 90.46-34.78a3.16 3.16 0 012.72.43c5 5.55 11.46 8.41 18.56 9.67 19.19 2.43 41.29 5.55 58.65-4.88 2.85-1.27 4.2-6.53 7.87-5 29.12 10.49 61 14.41 87.44 31.58 15.94 14.59 21.63 38 30.45 57.21 27.81 67.48 58 137.39 51.05 212.08-1.19 18.65-.23 37.45-3.28 55.95-.49 4.66-5.21 7.09-5.56 11.78-1.22 5.28-2.08 10.65-2.91 16-.4 2.6-.41 2.83-3.08 2.33-12.48-2.66-25.26-5.49-37.8-1.58-8.34-.15-8.13-15.56-11.44-21.4-6.28-7.37-3.61-9-5.33-17.64-.9-9.7-4.68-20.27.79-29.26 2-3.53 1.86-7.05.51-10.66-4.9-11.28-7.4-23.41-10.45-35.29-1.07-4.3-1.31-8.49 1.61-12.34 1.51-7.23-10.43-8.68-10.93-15.93z" fill="#262521" stroke="#262521" stroke-linecap="round" stroke-linejoin="round" stroke-width="3"/><path d="M442.27 222.89c-7.95-26.91-18.59-49.62-31.57-82.43l-44.29 24.15H123.54l-41.69-22.93c-.95 2.54-20.18 48.48-27.73 79.35l67.52 35.65.44 8.63H373l-.15-7.35z" fill="#b5a48e"/><path d="M122.62 175.56s1 32.62-1.09 48.25.11 29.69.11 32.87 1.9 33.07 1.9 33.07M368 177.21s2.86 32.64 4.26 65.44c.76 18 1.09 36.09.25 48.82" fill="none" stroke="#262521" stroke-linecap="round" stroke-linejoin="round" stroke-width="3"/><path fill="#a07e5a" stroke="#916c4a" stroke-miterlimit="10" d="M197.89 111.69h100.6v131.05h-100.6z"/><path d="M284.5 170.85c-8.37 10.83-20.06 20.11-33.78 22.66a45.43 45.43 0 01-20-.86c-7.09-1.88-13.44-5.33-19.49-9.38-4.43-3-9-5.77-13.32-8.84v68.3h100.6v-98.85a90.57 90.57 0 01-14.01 26.97z" fill="#e0d194" opacity=".3"/><path d="M225.15 180.19c-1.42-1.07.41-3.46.41-3.46 1.78-2.16 6.65-5.22 12.4-1.29l-1.37 2.72c-7.21-5.95-8.59 4.17-11.44 2.03zm0-7.46c-1.42-1.07.41-3.46.41-3.46 1.78-2.17 6.65-5.22 12.4-1.29l-1.37 2.72c-7.21-5.96-8.59 4.16-11.44 2.03zM246.38 216l-1.86-78s1.75 2.16 1.77 4 1.78 74 1.78 74z" fill="#262521"/><path d="M239.76 169.82a279.27 279.27 0 00-3.76-30.61l-5 .95c2.86 15 8 55.05-1 66.12l-.19.24c-.17.19-.35.36-.53.53a3.14 3.14 0 01-1.74.79c-2.27.2-3.72-1.39-4.63-2.16 0 0-.65-.76-1.11-.31s.2 1.18.2 1.18c2.23 4.41 10.22 4.69 10.22 4.69 6.39-5.55 8.93-19.49 7.54-41.42z" fill="#262521"/><path d="M280.11 158.87s.71-2.27-3.38-3.76c-6.2-2.8-7.61-12.39-7.62-12.48-.08-.68-.2-1.46-.23-2.17l-34.26 4.62.74 5 29.23-4.31c.86 3.47 3.14 9.56 8.61 13.07-1.41 6.34-5.95 29.84-1.24 51.88a22.17 22.17 0 00-13.69 6.39c-7.82-3.5-27.93-11.4-36.44-4.28-3.76 3.15-4.67 8.34-2.7 15.41 0 0 2 4.79 4.86 4 3.47-.95 1.63-5.83 1.63-5.83-.82-3-1.4-6.81.54-8.44 4.65-3.89 21.25 1.34 31.54 6.28a3.37 3.37 0 004.17-1c5.05-6.79 13.61-5.93 14-5.89a3.37 3.37 0 003.65-4.23c-6.73-24.55.48-53.96.59-54.26z" fill="#262521"/><path fill="#262521" d="M246.14 169.11h28.45v1.68h-28.45zm0 6.56h28.45v1.68h-28.45zm-19.62-42.84c-1.84-.69-6.36-6-6.12-6.24.84-.94-.09-3.14-2.08-4.93s-4.29-2.48-5.13-1.54 0 2.92 1.81 4.66c2 2.3 7.57 8.36 10.93 9.62s5.72 7.22 5.74 7.28l4.3-2.47c-.69-3.47-5.21-4.79-9.45-6.38z"/><path d="M400.48 115.76c3 7.36 5.73 14.78 8.89 21.66 14.34 34.8 29.32 70.24 39.5 106.66M49 240.11a339.35 339.35 0 0116.19-53.26c8-20.76 15-42.36 24.24-62.8" fill="none" stroke="#262521" stroke-linecap="round" stroke-linejoin="round" stroke-width="3"/></svg>