<svg xmlns="http://www.w3.org/2000/svg" xmlns:xlink="http://www.w3.org/1999/xlink" width="500" height="550" viewBox="0 0 500 550"><defs><clipPath id="a"><path d="M177.6,51.88l30.57,53.05S229.5,80.82,245,77.21c15.15,3.61,36.86,27.72,36.86,27.72l30.4-53.82s41.42,11.46,61.18,22.49-2.58,111.68-2.58,111.68V404.86l-245.54,9.19-4-236.58c-4.11,4.17-51.82-42.39-18.77-87C120.42,64.2,177.6,51.88,177.6,51.88Z" fill="none"/></clipPath></defs><title>s02e08-01</title><path d="M378.44,76.3c14.16,10.55,21.63,38,30.46,57.2,26.65,64.67,55.47,131.55,51.73,202.74-.16,3.1-70.86,9.77-71.75,7.16-3.08-9-5.12-18.37-7.49-27.58-1.06-4.3-1.31-8.49,1.62-12.34,1.5-7.23-10.43-8.68-10.94-15.92l-.41.08q-.26,61.73-.61,123.46c-.82,9-2.69,16.41-3.56,25.44-1,10.08,1.35,17-1.5,25.64-.58,1.77-2,1.12-3.34,1.43-44.77,10.45-67.62,8.2-112.62,11-24.6.58-89.37-5.15-117-11.82-5.12-1.24-5.68.27-6.62-4.82-1.35-11.26,1.94-18.54.52-29.32-6.15-46.81-1.39-94.37-3.6-141.53-1.41,2.83-2.94,5.61-4.28,8.46-2.37,10.68-17.51,9.3-11.81,16.19,11.11,7.94,6.4,21.38,5.15,32.55-.25,3.16-73.35,6.06-73.35-3.24,0-53.86,5.52-107.76,25.64-158.13,13.6-35.44,29.93-85.31,48.06-103.68,14.32-14.39,63.43-26.86,63.43-26.86,10.8-7.31,14-24.4,28.33-26.23,10.25-2.67,20.61-2.72,31.14-2.2,17.82,2.22,37-3.7,54,3.24C299.05,32,300.74,44,309.75,49,326.58,54.65,364.28,65.74,378.44,76.3Z" fill="#fff" stroke="#262521" stroke-linecap="round" stroke-linejoin="round" stroke-width="3"/><path d="M121.33,177.47s2.11,28.61,0,44.24.11,29.7.11,32.88,1.89,33.06,1.89,33.06" fill="none" stroke="#262521" stroke-linecap="round" stroke-linejoin="round" stroke-width="3"/><path d="M370.85,185.28s5.8,47.28,0,75.34" fill="none" stroke="#262521" stroke-linecap="round" stroke-linejoin="round" stroke-width="3"/><path d="M380.64,320.93s7.07,29.3,8.67,31.49,72.94-2.19,72.94-4.18,2.31-34.4.31-35.4S379.64,317.55,380.64,320.93Z" fill="#fff" stroke="#262521" stroke-linecap="round" stroke-linejoin="round" stroke-width="3"/><path d="M116.43,326.66s-3.07,29.3-4.67,31.49S37.82,356,37.82,354s-2.31-34.39-.31-35.39S117.43,323.27,116.43,326.66Z" fill="#fff" stroke="#262521" stroke-linecap="round" stroke-linejoin="round" stroke-width="3"/><g clip-path="url(#a)"><rect x="287.98" y="166.49" width="121.99" height="19.77" transform="matrix(0.09, -1, 1, 0.09, 142.62, 508.5)" fill="#262521"/><path d="M341.82,234.59c2.53-5.05,7.74-7.15,12.74-9l5.85-66.3c-2.24-1.72-3.74-11.1-4-8.24-.45,4.36-6.93,5.39-8.53,5.88-2.79,1.38-3.76,5.69-7.51,5l-6.56,74.35,7.06.63A17.91,17.91,0,0,1,341.82,234.59Z" fill="#545350"/><path d="M347.31,197.48l-.57.16c-.33,1.49.73,13.43-2.36,9.07v-8.49c-.18,0-.35.09-.53.12-.6,1.45-1.57,14-3.79,8.79a61.31,61.31,0,0,0,.8-8.34,18.46,18.46,0,0,1-3.79,0l-2.53,28.69c2.93-5,7.8-8.64,13.86-7.73-.71-16.52,4.5-14.37,3.16.63a21.77,21.77,0,0,1,3.34,1.34l2.38-26.93A89.8,89.8,0,0,0,347.31,197.48Z" fill="#cccbca"/><rect x="266.66" y="70.2" width="21.01" height="105.15" transform="translate(-24.94 97.69) rotate(-19.14)" fill="#262521"/><rect x="273.36" y="66.65" width="59.76" height="21.12" transform="translate(69.86 285.66) rotate(-56.06)" fill="#262521"/><rect x="263.22" y="143.75" width="59.76" height="21.12" transform="translate(29.14 354.42) rotate(-64.93)" fill="#545350"/><path d="M301.15,161.21q-.13.66-.24,1.32l14.41-30.81-4.36-2C310.93,141.07,303.77,150.49,301.15,161.21Z" fill="#8e8c86"/><rect x="194.91" y="174.72" width="59.76" height="21.12" transform="translate(-54.43 268.3) rotate(-56.06)" fill="#262521"/><path d="M209.89,188.51l-10.54,15.66L216.87,216l4.13-6.13C217.57,202.58,214,195.41,209.89,188.51Z" fill="#545350"/><rect x="102.37" y="269.77" width="103.05" height="21.12" transform="translate(-155.38 361.64) rotate(-75.96)" fill="#262521"/><path d="M154,322.81c-5.84,4.71-7.7,1.05-6.13-5-5.34,8.75-4.14-3.38-5-7-3.12,6.44-6.24,7.5-7.3-.6l-4.38,17.53,20.48,5.12,2.49-10S154.05,322.82,154,322.81Z" fill="#545350"/><rect x="209.46" y="265.33" width="59.76" height="21.12" transform="translate(-117.3 197.09) rotate(-36.6)" fill="#cccbca"/><path d="M256.65,276.18l13-9.63L257,249.6l-9.47,7C249.23,263.56,252.79,270.1,256.65,276.18Z" fill="#8e8c86"/><path d="M235.52,265.57l-26.47,19.65,12.59,17L236.69,291Q235.67,278.31,235.52,265.57Z" fill="#8e8c86"/><rect x="118.69" y="64.29" width="21.12" height="59.76" transform="translate(-21.04 148.81) rotate(-56.06)" fill="#545350"/><path d="M121.35,88.37c-1.65-7-8.44-11.4-14.5-14.43l-8.28,12.3,22.8,15.35C119.29,97.74,121.89,92.51,121.35,88.37Z" fill="#8e8c86"/><path d="M137,107.81c-3.25-1.61-6.72-1.82-10.22-2.56l21.34,14.36,1.87-2.78C145.93,113.45,141.8,110.1,137,107.81Z" fill="#8e8c86"/><rect x="112.77" y="103.3" width="21.12" height="77.86" transform="translate(-54.59 80.72) rotate(-30)" fill="#8e8c86"/><path d="M101.76,126c3.87,5.51,9.89,20.73,16.56,23.25,7-.78-3.39-14.79,14.31-12l-19.62-34L95.34,113.44C97.63,117.53,99.63,121.81,101.76,126Z" fill="#cccbca"/><path d="M125.05,130.71c6,14.92,13.78,29,20.7,43.53l4.1-2.37c-4-8.42-10.61-15.33-13.32-24.36-4.53-10.53-12.39-19-17.25-29.39C121.18,122.32,123.2,126.47,125.05,130.71Z" fill="#262521"/><path d="M137.14,161.25c-9.69-18.28-17.24-38.67-26.46-56.57l-.05-.07L110,105c11.53,23.35,20.32,47.93,33.25,70.7l.79-.45C141.81,170.53,139.49,165.88,137.14,161.25Z" fill="#262521"/><path d="M126.31,166.9c-7.32-19.55-21.38-35.15-29.44-54.35l-2.15,1.24,38.93,67.43.46-.26A110.09,110.09,0,0,1,126.31,166.9Z" fill="#262521"/><rect x="131.48" y="168.52" width="16.04" height="46.59" transform="translate(-10.31 7.94) rotate(-3.15)" fill="#262521"/><rect x="322.41" y="67.02" width="67.8" height="21.12" transform="translate(92.99 329.85) rotate(-56.06)" fill="#262521"/><path d="M337.45,95.89c6.2-13.43,19-24.25,20.49-39.63L328.62,99.81l7.61,5.12A16.37,16.37,0,0,1,337.45,95.89Z" fill="#545350"/><rect x="334.78" y="85.57" width="19.77" height="70.73" transform="translate(38.77 320.54) rotate(-52.46)" fill="#5e5e5b"/><path d="M324.92,96.44c3.14,7.23,32.73,21.69,29.45,25.22-9.49-.62-16.93-9-24.62-13.9,4.24,5.15,11.57,7.48,14.77,13.42-2.21,6.38-15-7.57-18.57-9,7,7.93,16.74,13.27,25.9,18.37-8.2-9-1.64-9.55,5.29-3.56,0-1.42-1.55-3.69.09-4.48,3-.64,5.63-.13,7.52,2.41,3.93,6.9,12.67,15.17-2.17,8,2.74,3.92,7.93,4.87,11.36,7.87l.43-.56c-2.57-5.06-4.12-10.52-7.77-15l-44-33.78L321.53,93A25.44,25.44,0,0,1,324.92,96.44Z" fill="#8e8c86"/><rect x="377.02" y="175.94" width="19.77" height="70.73" transform="translate(-16.39 389.34) rotate(-52.46)" fill="#262521"/><path d="M359.7,201.81c4.16,1.17,7.4,5,11.49,6.22-1.12-2.65-18.1-13.75-12.82-15,2.84.63,4.61,3.74,7.3,4.55-4.29-6.37-3.8-10.29,3.46-4.43-1.49-1.58-6.12-9-2-9.06a60.43,60.43,0,0,0,6.77,4.75l-9-6.92L352.84,197.6l5.86,4.5A1.07,1.07,0,0,1,359.7,201.81Z" fill="#545350"/><rect x="215.63" y="57.69" width="21.12" height="59.76" transform="translate(-7.61 152.12) rotate(-36.6)" fill="#262521"/><path d="M236.49,100.4a14.12,14.12,0,0,0-1.5,4.11c3-4.08,4.87-9.23,6.54-14l-2.34-3.15A20.5,20.5,0,0,1,236.49,100.4Z" fill="#cccbca"/><rect x="215.63" y="57.69" width="21.12" height="59.76" transform="translate(-7.61 152.12) rotate(-36.6)" fill="#262521"/><rect x="212.53" y="100.86" width="21.12" height="131.13" transform="translate(-55.24 165.82) rotate(-36.6)" fill="#262521"/><path d="M201.88,155c9.61,3.1-2.29-20.35,10.12-21.16l-19.53-26.3-16.95,12.59C176.24,120.46,200.73,155.18,201.88,155Z" fill="#545350"/><rect x="287.18" y="270.7" width="59.76" height="21.12" transform="translate(-32.7 520.64) rotate(-75.96)" fill="#545350"/><path d="M324.53,252.33l-10.47-2.62-6.72,26.89C314,269.11,322.12,261.82,324.53,252.33Z" fill="#8e8c86"/><rect x="340.63" y="291.48" width="21.12" height="59.76" transform="translate(-94.63 154.48) rotate(-21.94)" fill="#262521"/><rect x="169.64" y="82.18" width="99.41" height="21.12" transform="translate(-5.56 171.04) rotate(-42.11)" fill="#8e8c86"/><path d="M199.94,117.27a38,38,0,0,0,2.59-3.59c.33-2.73,3.5-2.88,3.39-6.19-6,3-12.13,4.14-15.85,10.15-1.07,1.64-6.65,7.48-7.55,3.66,6-8.66,14.42-15.84,18.33-26.08l-25.46,23,8.85,9.79C189.23,124,194.81,121.07,199.94,117.27Z" fill="#262521"/><path d="M254.11,57.06c-17.8,28.15-40.28,54.47-68.53,72.44l4,4.4L263.3,67.23Z" fill="#262521"/><rect x="213.95" y="63.79" width="59.76" height="21.12" transform="translate(-7.62 32.47) rotate(-7.5)" fill="#cccbca"/><rect x="126.18" y="107.64" width="59.76" height="21.12" transform="translate(-17.13 209.48) rotate(-64.93)" fill="#262521"/><path d="M171.79,102.07c-5.37,1.25-4.16,8.94-2.54,12.85L175,102.59A8.28,8.28,0,0,0,171.79,102.07Z" fill="#545350"/><rect x="149.55" y="139" width="21.12" height="62.79" transform="translate(-44.03 284.4) rotate(-75.96)" fill="#cccbca"/><path d="M180.61,172.8a49,49,0,0,0,11.11.6l1.41-5.63-60.91-15.23L131.1,157C148.39,159.75,163.36,169.08,180.61,172.8Z" fill="#8e8c86"/><path d="M152.44,170.47c-8.74.36-14.62-7.11-22.3-9.64l-.73,2.93c4.75,4.46,11.11,7.47,14.28,13.41l8.38,2.1C154.44,175.4,162.25,169.33,152.44,170.47Z" fill="#8e8c86"/><path d="M152.07,171.13c-8.8,1.64-15.1-5.47-22.49-8l-.16.62c5.13,5.12,13.74,7,16.64,14l1.86.47c1.47-2.41,3.54-4.45,4.53-7.13Z" fill="#262521"/><path d="M186.63,173.88A40.1,40.1,0,0,0,175,175.16c-3.76,1-11.48-.47-15,1.18-1.6.75,1.11,4.39-.57,4.78L188,188.25l3.46-13.85A37.3,37.3,0,0,0,186.63,173.88Z" fill="#8e8c86"/><rect x="93.32" y="71.32" width="90.75" height="21.12" transform="translate(-17.11 122.69) rotate(-45.23)" fill="#262521"/><path d="M104.19,111.56c4.79-2.26,6.33-9,3.42-13.33l-8.37,8.43Z" fill="#545350"/><path d="M159.07,160.29c11,3.74,21,12.16,32.91,12.08l1.15-4.6-40.44-10.11C154.84,158.48,157,159.38,159.07,160.29Z" fill="#262521"/><path d="M163,170.46c-11.5-1.28-21.34-9.11-32.85-9.69l-.09.37c7,1.37,13,6,20.21,6.92,15.56,3.5,8.36,2.18,2.16,11.3l.91.23c2.22-4.75,7.69-6.31,12-8.74A21.61,21.61,0,0,0,163,170.46Z" fill="#262521"/><path d="M187.28,179.17a20.53,20.53,0,0,0-3.64-.65c2.4,5.13-8.37-1.55-10.28-1.51,1.12,1.77,15.79,6.87,10.42,8.36-6.06-1.2-13.12-6-19.17-3l23.4,5.85,2.16-8.63C189.22,179.4,188.23,179.3,187.28,179.17Z" fill="#262521"/><path d="M223.83,80.72a193,193,0,0,0,40-4" fill="#545350"/><path d="M224.82,84.78c4.79-.46,9.77.76,14.37-.65,7-3.53,14.88-3.63,22.55-4.52" fill="#8e8c86"/><rect x="349.94" y="57.31" width="21.12" height="59.76" transform="translate(43.93 280.45) rotate(-45)" fill="#262521"/><path d="M375,86.75c-8.53.86-8.67,8.76-3.69,14.09,3.76,3.64,4.28,8.83.78,12.86l2.08,2.08,14.93-14.93Z" fill="#5e5e5b"/><path d="M226.73,279.11c-6.32,3.23-.59-4.62.05-7.05l-17.73,13.16,2.86,3.85c4.69-3.7,10.63-5.41,15.11-9.39A1,1,0,0,1,226.73,279.11Z" fill="#262521"/><path d="M249.05,259c-2.78,1.24-5.57,2.9-8.58,2.85L234,266.67c.85,1.3,0,3.1-.68,4.34a1.13,1.13,0,0,1,1.76.74,256.41,256.41,0,0,1,23.75-16.17A49.38,49.38,0,0,0,249.05,259Z" fill="#262521"/><path d="M219.86,287.81c.73-.75,1.39-1.56,2-2.36-2.93,1.68-6.12,3.06-8.83,5.2l1.75,2.34A45.54,45.54,0,0,1,219.86,287.81Z" fill="#262521"/><path d="M247.8,267.47c4.92-3.43,9.33-7.85,14.79-10.39l-.54-.73a162.54,162.54,0,0,0-26.91,18C239.29,272,243.84,270.22,247.8,267.47Z" fill="#262521"/><path d="M229.47,283.72C242,276.84,253.23,268,264.72,260l-.92-1.25c-5.58,2.43-10,7-15,10.48-6,4.2-13.51,6-18.64,11.49a.91.91,0,0,1-1.35,0c-.4.34-.8.68-1.22,1a.93.93,0,0,1-.35,1.28c-2.51,1.51-4,4.21-6,6.25C224,287.35,226.66,285.44,229.47,283.72Z" fill="#262521"/><path d="M234.53,288.61c3.54-2.64,6.61-6,10.21-8.51-7.92,1.56-13.45,7.86-19,13.22C228.72,291.84,231.83,290.62,234.53,288.61Z" fill="#262521"/><path d="M222.2,297.5c-.93.56-1.84,1.13-2.73,1.75l2.17,2.93,6.18-4.59C226,297.61,224.06,297.54,222.2,297.5Z" fill="#262521"/><path d="M230.65,295.49,254.2,278c-1,.29-2,.53-2.95.75-9.32,4.3-15.58,13.45-25.59,16.85A48.7,48.7,0,0,0,230.65,295.49Z" fill="#262521"/></g><circle cx="241.83" cy="104.02" r="2.94" fill="#cccbca"/><circle cx="241.83" cy="167.5" r="2.94" fill="#cccbca"/><circle cx="243.29" cy="249.18" r="2.94" fill="#cccbca"/><circle cx="246.23" cy="332.87" r="2.94" fill="#cccbca"/><circle cx="248.76" cy="416.99" r="2.94" fill="#cccbca"/><path d="M194.63,35.75s2.71,30.67,49.72,41.46" fill="none" stroke="#636363" stroke-linecap="round" stroke-linejoin="round"/><path d="M293.1,35.75S292.2,68.57,245,77.21" fill="none" stroke="#636363" stroke-linecap="round" stroke-linejoin="round"/><path d="M310.6,53.87l-28.75,51.06S263.63,83.55,245,77.21" fill="none" stroke="#636363" stroke-linecap="round" stroke-linejoin="round"/><path d="M180.61,56.72l27.56,48.21s17.54-21.38,36.18-27.72" fill="none" stroke="#636363" stroke-linecap="round" stroke-linejoin="round"/><line x1="233.88" y1="82.44" x2="241.4" y2="469.33" fill="none" stroke="#636363" stroke-linecap="round" stroke-linejoin="round"/><path d="M277.17,100.19c-1.09-1.1-2.25-2.15-3.45-3.14a2.61,2.61,0,0,0-.16,1.2,2.51,2.51,0,0,0-1.16,1l-.51.82a2.53,2.53,0,0,0-.39,1.47,2.45,2.45,0,0,0-1.21.91l-.56.78a2.47,2.47,0,0,0-.49,1.43,2.57,2.57,0,0,0-1.28.82l-.61.72a2.5,2.5,0,0,0-.59,1.38,2.55,2.55,0,0,0-1.34.71l-.66.66a2.46,2.46,0,0,0-.71,1.31,2.53,2.53,0,0,0-1.38.56c-.24.2-.48.4-.73.59a2.48,2.48,0,0,0-.83,1.21,2.64,2.64,0,0,0-1.42.42l-.77.49a2.39,2.39,0,0,0-1,1.1,2.54,2.54,0,0,0-1.45.24l-.84.4a2.43,2.43,0,0,0-1.09,1,2.6,2.6,0,0,0-1.46,0l-.87.28a2.45,2.45,0,0,0-1.21.82,2.38,2.38,0,0,0-1.45-.14l-.9.17a2.47,2.47,0,0,0-1.31.65,2.59,2.59,0,0,0-1.43-.33c-.3,0-.61,0-.92.06a2.49,2.49,0,0,0-1.39.49,2.46,2.46,0,0,0-1.39-.49l-.92-.06a2.5,2.5,0,0,0-1.43.33,2.48,2.48,0,0,0-1.31-.66l-.9-.16a2.41,2.41,0,0,0-1.46.14,2.46,2.46,0,0,0-1.21-.81l-.87-.28a2.44,2.44,0,0,0-1.46,0,2.46,2.46,0,0,0-1.1-1l-.83-.39a2.5,2.5,0,0,0-1.46-.23,2.4,2.4,0,0,0-1-1.09l-.78-.49a2.28,2.28,0,0,0-1.42-.4,2.58,2.58,0,0,0-.86-1.21l-.74-.58a2.52,2.52,0,0,0-1.38-.55,2.5,2.5,0,0,0-.73-1.3l-.68-.65a2.51,2.51,0,0,0-1.34-.69,2.49,2.49,0,0,0-.62-1.37c-.21-.23-.42-.47-.62-.71a2.46,2.46,0,0,0-1.29-.8,2.46,2.46,0,0,0-.51-1.42l-.58-.77a2.4,2.4,0,0,0-1.23-.89,2.55,2.55,0,0,0-.41-1.47c-.18-.27-.36-.54-.53-.81a2.44,2.44,0,0,0-.77-.73q-1.68,1.8-3.29,3.67l.42.63a2.5,2.5,0,0,0,1.3,1,2.54,2.54,0,0,0,.49,1.57l.62.83a2.54,2.54,0,0,0,1.38.91,2.49,2.49,0,0,0,.6,1.53c.23.27.46.53.7.79a2.46,2.46,0,0,0,1.44.8,2.51,2.51,0,0,0,.73,1.49l.76.73a2.57,2.57,0,0,0,1.53.68,2.49,2.49,0,0,0,.87,1.42l.84.66a2.42,2.42,0,0,0,1.59.51,2.51,2.51,0,0,0,1,1.33l.91.57a2.5,2.5,0,0,0,1.65.33,2.46,2.46,0,0,0,1.18,1.2l1,.46a2.45,2.45,0,0,0,1.68.13,2.46,2.46,0,0,0,1.33,1.05c.33.12.68.23,1,.33a2.5,2.5,0,0,0,1.69-.08,2.49,2.49,0,0,0,1.44.87l1.06.19a2.47,2.47,0,0,0,1.66-.29,2.57,2.57,0,0,0,1.54.68c.36,0,.71.05,1.07.06a2.63,2.63,0,0,0,1.61-.49,2.53,2.53,0,0,0,1.5.5h.11c.36,0,.72,0,1.07-.06a2.48,2.48,0,0,0,1.54-.68,2.41,2.41,0,0,0,1.66.29c.36,0,.71-.12,1.06-.19a2.51,2.51,0,0,0,1.45-.88,2.42,2.42,0,0,0,1.68.08c.35-.1.69-.21,1-.33a2.48,2.48,0,0,0,1.32-1,2.54,2.54,0,0,0,1.69-.14l1-.47a2.48,2.48,0,0,0,1.18-1.21,2.54,2.54,0,0,0,1.64-.35l.91-.58a2.45,2.45,0,0,0,1-1.33,2.63,2.63,0,0,0,1.59-.54l.82-.67a2.5,2.5,0,0,0,.86-1.43,2.49,2.49,0,0,0,1.52-.7c.25-.24.51-.49.76-.75a2.52,2.52,0,0,0,.7-1.49,2.45,2.45,0,0,0,1.43-.83c.23-.26.46-.53.68-.8a2.46,2.46,0,0,0,.58-1.55,2.44,2.44,0,0,0,1.36-.93l.61-.84a2.5,2.5,0,0,0,.46-1.58,2.51,2.51,0,0,0,1.29-1l.55-.87a2.49,2.49,0,0,0,.35-1.6A.8.8,0,0,0,277.17,100.19Z" fill="#262521"/><path d="M242.83,120.39a1,1,0,0,1,0-2l1,0a1,1,0,0,1,1.05.95,1,1,0,0,1-1,1l-1,0Zm-3-.12h-.09l-1-.11a1,1,0,0,1,.26-2l.95.11a1,1,0,0,1-.09,2Zm7-.18a1,1,0,0,1-.13-2l1-.14a1,1,0,0,1,.32,2l-1,.16Zm-10.91-.46-.23,0-1-.26a1,1,0,1,1,.54-1.93c.3.09.62.17.93.24a1,1,0,0,1-.24,2Zm14.82-.3a1,1,0,0,1-1-.75,1,1,0,0,1,.73-1.21l.93-.26a1,1,0,0,1,1.24.69A1,1,0,0,1,252,119q-.48.15-1,.27A1.07,1.07,0,0,1,250.72,119.33Zm-18.61-.92a.94.94,0,0,1-.37-.07l-1-.4a1,1,0,1,1,.81-1.83l.89.38a1,1,0,0,1-.37,1.92Zm22.41-.29a1,1,0,0,1-.36-1.94q.45-.17.9-.36a1,1,0,0,1,.78,1.84q-.48.21-1,.39A.92.92,0,0,1,254.52,118.12Zm-26-1.43a1,1,0,0,1-.5-.14c-.3-.16-.59-.34-.88-.52a1,1,0,1,1,1-1.7l.83.49a1,1,0,0,1,.38,1.36A1,1,0,0,1,228.53,116.69Zm29.62-.24a1,1,0,0,1-.47-1.88l.85-.47a1,1,0,0,1,1,1.74l-.9.5A1,1,0,0,1,258.15,116.45Zm-33-2a1,1,0,0,1-.6-.19l-.81-.63a1,1,0,1,1,1.23-1.57l.77.59a1,1,0,0,1,.21,1.4A1,1,0,0,1,225.19,114.5Zm36.38-.12a1,1,0,0,1-.83-.44,1,1,0,0,1,.26-1.39c.27-.18.53-.37.79-.56a1,1,0,1,1,1.18,1.62l-.84.59A1,1,0,0,1,261.57,114.38ZM222.12,112a1,1,0,0,1-.68-.26l-.75-.71a1,1,0,0,1,0-1.41,1,1,0,0,1,1.41,0l.71.67a1,1,0,0,1,.06,1.41A1,1,0,0,1,222.12,112Zm42.61,0a1,1,0,0,1-.76-.35,1,1,0,0,1,.11-1.41l.73-.64a1,1,0,0,1,1.34,1.49l-.77.67A1,1,0,0,1,264.73,111.94Zm2.9-2.72a1,1,0,0,1-.71-1.7l.67-.71a1,1,0,0,1,1.47,1.36c-.24.25-.47.5-.71.74A1,1,0,0,1,267.63,109.22Zm-48.32-.11a1,1,0,0,1-.74-.33c-.23-.26-.46-.51-.68-.77a1,1,0,0,1,1.51-1.31l.65.74a1,1,0,0,1-.07,1.41A1,1,0,0,1,219.31,109.11Zm51-2.88a1,1,0,0,1-.63-.23,1,1,0,0,1-.14-1.4l.62-.76a1,1,0,1,1,1.56,1.24l-.63.79A1,1,0,0,1,270.29,106.23Zm-53.54-.2a1,1,0,0,1-.79-.39l-.62-.81a1,1,0,0,1,1.61-1.19l.59.78a1,1,0,0,1-.18,1.4A1,1,0,0,1,216.75,106Zm56-3a1,1,0,0,1-.58-.19,1,1,0,0,1-.24-1.39l.56-.81a1,1,0,0,1,1.39-.26,1,1,0,0,1,.26,1.39l-.57.83A1,1,0,0,1,272.71,103.06Zm-58.29-.28a1,1,0,0,1-.83-.44l-.56-.85a1,1,0,0,1,.29-1.38,1,1,0,0,1,1.39.29c.17.28.36.55.54.82a1,1,0,0,1-.28,1.39A.94.94,0,0,1,214.42,102.78Z" fill="#b7b6b0"/><path d="M243.79,121.94h0c-.35,0-.69,0-1,0a1,1,0,1,1,.08-2l1,0a1,1,0,0,1,0,2Zm3-.1a1,1,0,0,1-.08-2l1-.09a1,1,0,0,1,1.11.88,1,1,0,0,1-.88,1.11c-.34,0-.68.07-1,.09Zm-7-.18h-.13l-1-.15a1,1,0,0,1,.33-2c.31.06.63.1,1,.15a1,1,0,0,1-.13,2Zm10.93-.39a1,1,0,0,1-1-.79,1,1,0,0,1,.78-1.19c.31-.06.63-.13.94-.21a1,1,0,0,1,1.21.73,1,1,0,0,1-.74,1.21l-1,.23Zm-14.84-.39a1.09,1.09,0,0,1-.26,0l-1-.28a1,1,0,0,1-.67-1.25,1,1,0,0,1,1.24-.67l.93.26a1,1,0,0,1,.71,1.23A1,1,0,0,1,235.89,120.88Zm18.69-.68a1,1,0,0,1-1-.67,1,1,0,0,1,.62-1.27l.9-.34a1,1,0,0,1,1.3.58,1,1,0,0,1-.58,1.29l-1,.36A1.26,1.26,0,0,1,254.58,120.2Zm-22.48-.59a.9.9,0,0,1-.38-.08l-.94-.4a1,1,0,0,1-.51-1.32,1,1,0,0,1,1.32-.51l.89.38a1,1,0,0,1-.38,1.93Zm26.15-1a1,1,0,0,1-.44-1.89c.28-.14.57-.29.85-.45a1,1,0,0,1,1,1.76c-.3.17-.61.32-.92.48A1,1,0,0,1,258.25,118.64Zm-29.75-.76a.94.94,0,0,1-.48-.13l-.89-.51a1,1,0,0,1,1-1.72l.84.48a1,1,0,0,1,.39,1.36A1,1,0,0,1,228.5,117.88Zm33.21-1.24a1,1,0,0,1-.84-.45,1,1,0,0,1,.29-1.38l.8-.55a1,1,0,0,1,1.39.24,1,1,0,0,1-.24,1.4l-.85.58A1,1,0,0,1,261.71,116.64Zm-36.58-.9a1,1,0,0,1-.58-.19c-.28-.2-.56-.4-.83-.61a1,1,0,0,1-.2-1.4,1,1,0,0,1,1.4-.19l.79.57a1,1,0,0,1,.23,1.4A1,1,0,0,1,225.13,115.74Zm39.79-1.48a1,1,0,0,1-.65-1.77l.75-.63a1,1,0,1,1,1.31,1.5c-.25.23-.51.45-.78.67A1,1,0,0,1,264.92,114.26Zm-42.93-1a1,1,0,0,1-.65-.24l-.77-.69a1,1,0,0,1-.06-1.41,1,1,0,0,1,1.41-.06l.73.65a1,1,0,0,1-.66,1.75Zm45.87-1.7a1,1,0,0,1-.7-.29,1,1,0,0,1,0-1.41l.68-.7a1,1,0,0,1,1.42,0,1,1,0,0,1,0,1.41l-.72.74A1,1,0,0,1,267.86,111.55Zm-48.76-1.06a1,1,0,0,1-.72-.31l-.7-.75a1,1,0,1,1,1.47-1.35l.67.71a1,1,0,0,1,0,1.42A1,1,0,0,1,219.1,110.49Zm51.46-1.9a1,1,0,0,1-.64-.23,1,1,0,0,1-.13-1.41c.21-.25.42-.5.62-.76a1,1,0,0,1,1.41-.15,1,1,0,0,1,.15,1.4c-.21.27-.43.53-.64.79A1,1,0,0,1,270.56,108.59Zm-54.11-1.1a1,1,0,0,1-.78-.36l-.64-.79a1,1,0,1,1,1.57-1.25c.2.26.41.51.62.77a1,1,0,0,1-.14,1.4A1,1,0,0,1,216.45,107.49ZM273,105.43a1,1,0,0,1-.58-.19,1,1,0,0,1-.23-1.4l.57-.8a1,1,0,1,1,1.64,1.14c-.19.28-.39.56-.59.83A1,1,0,0,1,273,105.43Zm-59-1.11a1,1,0,0,1-.81-.42c-.2-.27-.39-.55-.59-.83a1,1,0,0,1,1.65-1.14c.18.27.37.54.57.8a1,1,0,0,1-.23,1.4A1,1,0,0,1,214,104.32Zm61.25-2.21a1,1,0,0,1-.54-.15,1,1,0,0,1-.31-1.38l.52-.84a1,1,0,0,1,1.7,1c-.17.29-.35.58-.53.86A1,1,0,0,1,275.25,102.11Z" fill="#7f7e78"/><g opacity="0.86"><path d="M258.15,116.45a1,1,0,0,1-.47-1.88l.85-.47a1,1,0,0,1,1,1.74l-.9.5A1,1,0,0,1,258.15,116.45Zm-33-2a1,1,0,0,1-.6-.19l-.81-.63a1,1,0,1,1,1.23-1.57l.77.59a1,1,0,0,1,.21,1.4A1,1,0,0,1,225.19,114.5Zm36.38-.12a1,1,0,0,1-.83-.44,1,1,0,0,1,.26-1.39c.27-.18.53-.37.79-.56a1,1,0,1,1,1.18,1.62l-.84.59A1,1,0,0,1,261.57,114.38ZM222.12,112a1,1,0,0,1-.68-.26l-.75-.71a1,1,0,0,1,0-1.41,1,1,0,0,1,1.41,0l.71.67a1,1,0,0,1,.06,1.41A1,1,0,0,1,222.12,112Zm42.61,0a1,1,0,0,1-.76-.35,1,1,0,0,1,.11-1.41l.73-.64a1,1,0,0,1,1.34,1.49l-.77.67A1,1,0,0,1,264.73,111.94Zm2.9-2.72a1,1,0,0,1-.71-1.7l.67-.71a1,1,0,0,1,1.47,1.36c-.24.25-.47.5-.71.74A1,1,0,0,1,267.63,109.22Zm-48.32-.11a1,1,0,0,1-.74-.33c-.23-.26-.46-.51-.68-.77a1,1,0,0,1,1.51-1.31l.65.74a1,1,0,0,1-.07,1.41A1,1,0,0,1,219.31,109.11Zm51-2.88a1,1,0,0,1-.63-.23,1,1,0,0,1-.14-1.4l.62-.76a1,1,0,1,1,1.56,1.24l-.63.79A1,1,0,0,1,270.29,106.23Zm2.42-3.17a1,1,0,0,1-.58-.19,1,1,0,0,1-.24-1.39l.56-.81a1,1,0,0,1,1.39-.26,1,1,0,0,1,.26,1.39l-.57.83A1,1,0,0,1,272.71,103.06Z" fill="#fff"/></g><g opacity="0.86"><path d="M261.71,116.64a1,1,0,0,1-.84-.45,1,1,0,0,1,.29-1.38l.8-.55a1,1,0,0,1,1.39.24,1,1,0,0,1-.24,1.4l-.85.58A1,1,0,0,1,261.71,116.64Zm3.21-2.38a1,1,0,0,1-.65-1.77l.75-.63a1,1,0,1,1,1.31,1.5c-.25.23-.51.45-.78.67A1,1,0,0,1,264.92,114.26Zm-42.93-1a1,1,0,0,1-.65-.24l-.77-.69a1,1,0,0,1-.06-1.41,1,1,0,0,1,1.41-.06l.73.65a1,1,0,0,1-.66,1.75Zm45.87-1.7a1,1,0,0,1-.7-.29,1,1,0,0,1,0-1.41l.68-.7a1,1,0,0,1,1.42,0,1,1,0,0,1,0,1.41l-.72.74A1,1,0,0,1,267.86,111.55Zm-48.76-1.06a1,1,0,0,1-.72-.31l-.7-.75a1,1,0,1,1,1.47-1.35l.67.71a1,1,0,0,1,0,1.42A1,1,0,0,1,219.1,110.49Zm51.46-1.9a1,1,0,0,1-.64-.23,1,1,0,0,1-.13-1.41c.21-.25.42-.5.62-.76a1,1,0,0,1,1.41-.15,1,1,0,0,1,.15,1.4c-.21.27-.43.53-.64.79A1,1,0,0,1,270.56,108.59Zm-54.11-1.1a1,1,0,0,1-.78-.36l-.64-.79a1,1,0,1,1,1.57-1.25c.2.26.41.51.62.77a1,1,0,0,1-.14,1.4A1,1,0,0,1,216.45,107.49Z" fill="#fff"/></g></svg>