<svg xmlns="http://www.w3.org/2000/svg" width="500" height="550" viewBox="0 0 500 550"><defs><clipPath id="a"><path d="M429.05 181.51s-6-11-19.68-44.09c-8.82-19.22-14.51-42.62-30.45-57.21-26.39-17.21-44.09-18.79-73.21-29.29 0 0-6.48 62.22-58 61.54-52.8-.7-56.7-61-57.5-60.76-30.43 11-49.63 13.28-76.95 31.48C89.71 113.53 61.11 195 59.69 201.55c.89 1 35.75 24.78 35.75 24.78l24.86-38.53c3.51 33.49 2 59.88 3 62.07.14-.27 1.69 43.93.65 44 1.9 46.22-5.55 92.81.48 138.68 1.41 10.78-1.88 18.05-.53 29.31.94 5.1 1.39 5.42 6.62 4.82 24.35-3.76 61.37-1.51 86-2.08 45-2.8 106.06-4.82 150.65 2.92 1.35.23 2.76.33 3.35-1.44 2.84-8.58.53-15.56 1.5-25.63.87-9 2.74-16.47 3.55-25.44.2-41.15-3.56-82.31-3.38-123.47l.06-39.64c3.94-11-.4-58.95-.4-58.95s46.28 1.05 57.2-11.44z" fill="none"/></clipPath></defs><path d="M409.37 137.42c-8.82-19.22-14.51-42.62-30.45-57.21C352.53 63 320.6 59.12 291.48 48.63c-3.67-1.54-5 3.72-7.87 5-17.36 10.42-39.46 7.3-58.61 4.87-7.1-1.26-13.56-4.12-18.56-9.67a3.16 3.16 0 00-2.72-.43c-30.43 11-63.14 16.58-90.46 34.78-23.51 30.35-31.46 68.24-45.07 103.67-23.59 59.08-31.1 123-29.19 186-.35 11.18 3.49 22.28 5.72 33.3a6.62 6.62 0 001.28 3.23c6.31 5.76 3.46 14.67 5.49 22.43.3 1.47 1 1.81 2.41 1.47 12.51-3.2 26.22-2.34 38.6 1.18 3.13 1 3.17 1.13 3.74-2 1.44-8 10.36-41.32 11.86-49.29 1.19-8.37 4.89-16.87 4.38-25.31-1-3.31.12-6.43.37-9.58 1.26-11.18 6-24.61-5.15-32.56-5.69-6.88 7.44-7.51 9.81-18.18 1.35-2.86 4.87-6.63 6.29-9.46 2.12 45.28-4.94 93.69-.07 138.92h250.16c.63-3.86 1.25-7.73 1.63-11.93.2-41.15-3.56-82.31-3.38-123.47.13 0 .34-8.83.48-8.86.5 7.25 12.37 17.48 10.86 24.71-2.92 3.85-2.68 8-1.61 12.34 3.05 11.87 5.55 24 10.45 35.29 1.35 3.61 1.5 7.13-.51 10.66-5.47 9-1.69 19.56-.79 29.26 1.72 8.67-.95 10.27 5.33 17.64 1.84 3.25 2.59 9.46 4.34 14.36h.3a1 1 0 01.46 1.88c1.35 3 3.26 5.1 6.34 5.16 12.54-3.91 25.32-1.08 37.8 1.58 2.67.5 2.68.27 3.08-2.33.83-5.36 1.69-10.73 2.91-16 .35-4.69 4.07-7.12 4.56-11.78 3.05-18.5 1.09-37.8 2.28-56.46 6.95-74.74-21.24-144.15-49.05-211.63z" fill="#fff" stroke="#262521" stroke-linecap="round" stroke-linejoin="round" stroke-width="3"/><path d="M429.05 181.51s-6-11-19.68-44.09c-8.82-19.22-14.51-42.62-30.45-57.21-26.39-17.17-54-21.4-83.08-31.9 0 0-2.49 54.68-48.17 54.68s-47.19-54.85-48-54.59c-30.43 11-59.14 16.58-86.46 34.78-23.5 30.35-52.1 111.82-53.52 118.37 2.13 2.52 48.92 31.06 63.59 48.32.14-.27 1.69 43.93.65 44 1.9 46.22-5.55 92.81.48 138.68 1.41 10.78-1.88 18.05-.53 29.31.94 5.1 1.39 5.42 6.62 4.82 24.35-3.76 61.37-1.51 86-2.08 45-2.8 106.06-4.82 150.65 2.92 1.35.23 2.76.33 3.35-1.44 2.84-8.58.53-15.56 1.5-25.63.87-9 2.74-16.47 3.55-25.44.2-41.15-3.56-82.31-3.38-123.47l.06-39.64z" fill="#262521" stroke="#262521" stroke-linecap="round" stroke-linejoin="round" stroke-width="3"/><g clip-path="url(#a)" fill="none" stroke-linecap="round" stroke-linejoin="round" stroke-width="1.5"><path stroke="#b6b7b0" d="M227.17 336.72l-1.94 3.36-1.98-3.36m3.92 5.22l-1.94 3.36-1.98-3.36m3.92 5.2l-1.94 3.36-1.98-3.36m0 0l-1.94 3.36-1.98-3.36m0 0l-1.94 3.35m13.69-3.35l-1.93 3.36-1.98-3.36m3.91 4.92l-1.93 3.36-1.98-3.36m7.85 5.23l-1.93 3.36-1.99-3.36m-7.85-5.23l-1.94 3.36-1.98-3.36m0 5.4l-1.94 3.36-1.98-3.36m0 0l-1.94 3.36-1.98-3.36m0 0l-1.94 3.36-1.98-3.36m0 0l-1.94 3.36-1.97-3.36m7.83-5.4l-1.94 3.36-1.98-3.36m0 0l-1.94 3.36-1.97-3.36m0 0l-1.94 3.36-1.98-3.36m50.94 0l-1.94 3.36-1.98-3.36m0 0l-1.94 3.36-1.98-3.36m0 0l-1.94 3.36-1.98-3.36m7.84 5.4l-1.94 3.36-1.98-3.36m0 0l-1.94 3.36-1.98-3.36m0 0l-1.94 3.36-1.98-3.36m7.84 5.32l-1.94 3.36-1.98-3.36m0 0l-1.94 3.36-1.98-3.36m3.94 5.38l-1.94 3.36-1.98-3.36m0 0l-1.93 3.36-1.99-3.36m-.02 0l-1.93 3.36-1.98-3.36m0 0l-1.94 3.36-1.98-3.36m0 0l-1.94 3.36-1.98-3.36m15.69 5.37l-1.93 3.36-1.99-3.36m-.02 0l-1.93 3.36-1.98-3.36m3.91 5.26l-1.93 3.36-1.98-3.36m0-5.26l-1.94 3.36-1.98-3.36m3.92 5.26l-1.94 3.36-1.98-3.36m0 0l-1.94 3.36-1.98-3.36m3.92-5.26l-1.94 3.36-1.98-3.36m0 0l-1.94 3.36-1.98-3.36m3.92-5.37l-1.94 3.36-1.98-3.36m0 0l-1.94 3.36-1.98-3.36m3.92-5.38l-1.94 3.36-1.98-3.36m0 0l-1.94 3.36-1.98-3.36m25.49-12.29l-1.98-3.35m-7.83-10.42l-1.94 3.36-1.98-3.36m0 0l-1.94 3.36-1.98-3.36m0 0l-1.94 3.36-1.98-3.36m0 0l-1.94 3.36-1.98-3.36m3.92 5.22l-1.94 3.36-1.98-3.36m0 0l-1.94 3.36-1.97-3.36m3.91 5.2l-1.94 3.36-1.97-3.36m0-5.2l-1.94 3.36-1.98-3.36m50.94 0l-1.94 3.36-1.98-3.36m0 0l-1.94 3.36-1.98-3.36m3.92 5.2l-1.94 3.36-1.98-3.36m0-5.2l-1.94 3.36-1.98-3.36m3.92-5.22l-1.94 3.36-1.98-3.36m0 0l-1.94 3.36-1.98-3.36m0 0l-1.94 3.36-1.98-3.36m0 0l-1.93 3.36-1.98-3.36m94.06 0l-1.94 3.36-1.98-3.36m3.92 5.22l-1.94 3.36-1.98-3.36m3.92 5.2l-1.94 3.36-1.98-3.36m0 0l-1.94 3.36-1.98-3.36m0 0l-1.93 3.35"/><path stroke="#b6b7b0" d="M325.15 347.14l-1.94 3.36-1.98-3.36m3.92 4.92l-1.94 3.36-1.98-3.36m7.86 5.23l-1.94 3.36-1.98-3.36m-7.86-5.23l-1.94 3.36-1.98-3.36m0 5.4l-1.93 3.36-1.98-3.36"/><path stroke="#b6b7b0" d="M309.48 357.46l-1.94 3.36-1.98-3.36m0 0l-1.94 3.36-1.98-3.36m0 0l-1.94 3.36-1.98-3.36m7.84-5.4l-1.94 3.36-1.98-3.36m0 0l-1.94 3.36-1.98-3.36"/><path stroke="#b6b7b0" d="M297.72 352.06l-1.94 3.36-1.98-3.36m50.94 0l-1.94 3.36-1.98-3.36m0 0l-1.94 3.36-1.98-3.36m0 0l-1.93 3.36-1.98-3.36m7.83 5.4l-1.94 3.36-1.98-3.36m0 0l-1.93 3.36-1.98-3.36"/><path stroke="#b6b7b0" d="M332.99 357.46l-1.94 3.36-1.98-3.36m7.83 5.32l-1.93 3.36-1.98-3.36"/><path stroke="#b6b7b0" d="M332.99 362.78l-1.94 3.36-1.98-3.36m3.94 5.38l-1.94 3.36-1.98-3.36m0 0l-1.94 3.36-1.98-3.36m-.02 0l-1.94 3.36-1.98-3.36"/><path stroke="#b6b7b0" d="M321.23 368.16l-1.94 3.36-1.98-3.36m0 0l-1.94 3.36-1.98-3.36m15.7 5.37l-1.94 3.36-1.98-3.36m-.02 0l-1.94 3.36-1.98-3.36m3.92 5.26l-1.94 3.36-1.98-3.36"/><path stroke="#b6b7b0" d="M321.23 373.53l-1.94 3.36-1.98-3.36m3.92 5.26l-1.94 3.36-1.98-3.36m0 0l-1.94 3.36-1.98-3.36m3.92-5.26l-1.94 3.36-1.98-3.36m0 0l-1.93 3.36-1.98-3.36m3.91-5.37l-1.93 3.36-1.98-3.36"/><path stroke="#b6b7b0" d="M309.48 368.16l-1.94 3.36-1.98-3.36m3.92-5.38l-1.94 3.36-1.98-3.36m0 0l-1.94 3.36-1.98-3.36m25.49-12.29l-1.98-3.35m-7.84-10.42l-1.94 3.36-1.98-3.36m0 0l-1.93 3.36-1.98-3.36"/><path stroke="#b6b7b0" d="M309.48 336.72l-1.94 3.36-1.98-3.36m0 0l-1.94 3.36-1.98-3.36m3.92 5.22l-1.94 3.36-1.98-3.36m0 0l-1.94 3.36-1.98-3.36m3.92 5.2l-1.94 3.36-1.98-3.36"/><path stroke="#b6b7b0" d="M297.72 341.94l-1.94 3.36-1.98-3.36m50.94 0l-1.94 3.36-1.98-3.36m0 0l-1.94 3.36-1.98-3.36m3.92 5.2l-1.94 3.36-1.98-3.36m0-5.2l-1.93 3.36-1.98-3.36m3.91-5.22l-1.93 3.36-1.98-3.36"/><path stroke="#b6b7b0" d="M332.99 336.72l-1.94 3.36-1.98-3.36m0 0l-1.94 3.36-1.98-3.36m0 0l-1.94 3.36-1.98-3.36m94.09 0l-1.94 3.36-1.98-3.36m3.92 5.22l-1.94 3.36-1.98-3.36m3.92 5.2l-1.94 3.36-1.98-3.36m0 0l-1.94 3.36-1.98-3.36m0 0l-1.94 3.35m13.7-3.35l-1.94 3.36-1.98-3.36m3.92 4.92l-1.94 3.36-1.98-3.36m7.86 5.23l-1.94 3.36-1.98-3.36m-7.86-5.23l-1.94 3.36-1.98-3.36m0 5.4l-1.94 3.36-1.98-3.36m0 0l-1.94 3.36-1.98-3.36m0 0l-1.94 3.36-1.98-3.36"/><path stroke="#b6b7b0" d="M395.72 357.46l-1.93 3.36-1.98-3.36m7.83-5.4l-1.94 3.36-1.98-3.36"/><path stroke="#b6b7b0" d="M395.72 352.06l-1.93 3.36-1.98-3.36m0 0l-1.94 3.36-1.98-3.36m50.94 0l-1.94 3.36-1.98-3.36"/><path stroke="#b6b7b0" d="M434.91 352.06l-1.94 3.36-1.98-3.36m0 0l-1.94 3.36-1.98-3.36m7.84 5.4l-1.94 3.36-1.98-3.36m0 0l-1.94 3.36-1.98-3.36m0 0l-1.94 3.36-1.98-3.36m7.84 5.32l-1.94 3.36-1.98-3.36m0 0l-1.94 3.36-1.98-3.36m3.94 5.38l-1.94 3.36-1.97-3.36"/><path stroke="#b6b7b0" d="M423.18 368.16l-1.94 3.36-1.98-3.36m-.02 0l-1.94 3.36-1.98-3.36m0 0l-1.94 3.36-1.98-3.36m0 0l-1.94 3.36-1.98-3.36m15.7 5.37l-1.94 3.36-1.98-3.36m-.02 0l-1.94 3.36-1.98-3.36m3.92 5.26l-1.94 3.36-1.98-3.36m0-5.26l-1.94 3.36-1.98-3.36m3.92 5.26l-1.94 3.36-1.98-3.36m0 0l-1.94 3.36-1.98-3.36m3.92-5.26l-1.94 3.36-1.98-3.36"/><path stroke="#b6b7b0" d="M407.48 373.53l-1.94 3.36-1.98-3.36m3.92-5.37l-1.94 3.36-1.98-3.36m0 0l-1.94 3.36-1.98-3.36m3.92-5.38l-1.94 3.36-1.98-3.36m0 0l-1.94 3.36-1.98-3.36m25.5-12.29l-1.98-3.35m-7.84-10.42l-1.94 3.36-1.98-3.36M407.48 336.72l-1.94 3.36-1.98-3.36m0 0l-1.94 3.36-1.98-3.36m0 0l-1.94 3.36-1.98-3.36m3.92 5.22l-1.94 3.36-1.98-3.36"/><path stroke="#b6b7b0" d="M395.72 341.94l-1.93 3.36-1.98-3.36m3.91 5.2l-1.93 3.36-1.98-3.36m0-5.2l-1.94 3.36-1.98-3.36m50.94 0l-1.94 3.36-1.98-3.36"/><path stroke="#b6b7b0" d="M434.91 341.94l-1.94 3.36-1.98-3.36m3.92 5.2l-1.94 3.36-1.98-3.36m0-5.2l-1.94 3.36-1.98-3.36m3.92-5.22l-1.94 3.36-1.98-3.36m0 0l-1.94 3.36-1.98-3.36m0 0l-1.93 3.36-1.98-3.36"/><path stroke="#b6b7b0" d="M419.24 336.72l-1.94 3.36-1.98-3.36m-168.56 42.07l1.94 3.36 1.98-3.36m-7.84 0l1.94 3.36 1.98-3.36m-7.84 0l1.94 3.36 1.98-3.36m15.67-10.63l1.94 3.36 1.98-3.36m0 0l1.94 3.36 1.98-3.36m-7.84 5.37l1.94 3.36 1.98-3.36m0 0l1.94 3.36 1.98-3.36m7.86 10.45l1.94 3.36 1.98-3.36m-7.86 0l1.94 3.36 1.98-3.36m-25.49-7.09l1.98-3.36m0 0l1.94 3.36 1.97-3.36"/><path stroke="#b6b7b0" d="M254.59 373.53l1.94 3.36 1.98-3.36m7.84-5.37l1.94 3.36 1.98-3.36m-21.57 3.36l1.98-3.36m0 0l1.94 3.36 1.97-3.36m0 0l1.94 3.36 1.98-3.36m-3.92-31.44l1.94 3.36 1.98-3.36"/><path stroke="#b6b7b0" d="M258.51 336.72l1.94 3.36 1.98-3.36m-3.92 5.22l1.94 3.36 1.98-3.36"/><path stroke="#b6b7b0" d="M254.59 341.94l1.94 3.36 1.98-3.36m-7.83 0l1.94 3.36 1.97-3.36m7.84 0l1.94 3.36 1.98-3.36m-3.92 5.2l1.94 3.36 1.98-3.36m0 0l1.94 3.36 1.98-3.36m-3.92 4.92l1.94 3.36 1.98-3.36m0 5.4l1.94 3.36 1.98-3.36m-15.68 0l1.94 3.36 1.98-3.36m3.94 5.32l1.94 3.36 1.98-3.36m-15.7 0l1.94 3.36 1.98-3.36m.03 0l1.93 3.36 1.98-3.36m35.27 16.01l-1.94 3.36-1.98-3.36"/><path stroke="#b6b7b0" d="M301.64 378.79l-1.94 3.36-1.98-3.36m7.84 0l-1.94 3.36-1.98-3.36m-15.68-10.63l-1.93 3.36-1.98-3.36"/><path stroke="#b6b7b0" d="M282.05 368.16l-1.94 3.36-1.98-3.36m7.83 5.37l-1.93 3.36-1.98-3.36"/><path stroke="#b6b7b0" d="M282.05 373.53l-1.94 3.36-1.98-3.36m17.65 3.36l-1.98-3.36m0 0l-1.94 3.36-1.98-3.36m0 0l-1.94 3.36-1.98-3.36m-7.83-5.37l-1.94 3.36-1.98-3.36m21.57 3.36l-1.98-3.36m0 0l-1.94 3.36-1.98-3.36m0 0l-1.94 3.36-1.98-3.36m3.92-31.44l-1.94 3.36-1.98-3.36m0 0l-1.93 3.36-1.98-3.36m3.91 5.22l-1.93 3.36-1.98-3.36m7.83 0l-1.94 3.36-1.98-3.36m7.84 0l-1.94 3.36-1.98-3.36"/><path stroke="#b6b7b0" d="M282.05 341.94l-1.94 3.36-1.98-3.36m3.92 5.2l-1.94 3.36-1.98-3.36m0 0l-1.94 3.36-1.98-3.36m3.92 4.92l-1.94 3.36-1.98-3.36m11.73 5.4l-1.94 3.36-1.98-3.36m-3.91 5.32l-1.94 3.36-1.98-3.36m11.75 0l-1.94 3.36-1.98-3.36m7.86 0l-1.94 3.36-1.98-3.36m54.88 16.01l1.94 3.36 1.98-3.36"/><path stroke="#b6b7b0" d="M336.93 378.79l1.93 3.36 1.98-3.36m-7.83 0l1.94 3.36 1.98-3.36m15.67-10.63l1.94 3.36 1.98-3.36"/><path stroke="#b6b7b0" d="M356.52 368.16l1.94 3.36 1.98-3.36m-7.84 5.37l1.94 3.36 1.98-3.36"/><path stroke="#b6b7b0" d="M356.52 373.53l1.94 3.36 1.98-3.36m7.86 10.45l1.93 3.36 1.98-3.36m-7.85 0l1.93 3.36 1.98-3.36m-25.49-7.09l1.98-3.36m0 0l1.94 3.36 1.98-3.36m0 0l1.94 3.36 1.98-3.36m7.84-5.37l1.94 3.36 1.98-3.36m-21.58 3.36l1.98-3.36m0 0l1.94 3.36 1.98-3.36m0 0l1.94 3.36 1.98-3.36m-3.92-31.44l1.94 3.36 1.98-3.36m0 0l1.94 3.36 1.98-3.36m-3.92 5.22l1.94 3.36 1.98-3.36m-7.84 0l1.94 3.36 1.98-3.36m-7.84 0l1.94 3.36 1.98-3.36"/><path stroke="#b6b7b0" d="M356.52 341.94l1.94 3.36 1.98-3.36m-3.92 5.2l1.94 3.36 1.98-3.36m0 0l1.94 3.36 1.98-3.36m-3.92 4.92l1.94 3.36 1.98-3.36m0 5.4l1.93 3.36 1.98-3.36m-15.67 0l1.94 3.36 1.98-3.36m3.94 5.32l1.94 3.36 1.98-3.36m-15.7 0l1.94 3.36 1.98-3.36m.02 0l1.94 3.36 1.98-3.36m35.27 16.01l-1.94 3.36-1.98-3.36m7.83 0l-1.93 3.36-1.98-3.36"/><path stroke="#b6b7b0" d="M399.64 378.79l-1.94 3.36-1.98-3.36m-15.67-10.63l-1.94 3.36-1.98-3.36m0 0l-1.94 3.36-1.98-3.36m7.84 5.37l-1.94 3.36-1.98-3.36m0 0l-1.94 3.36-1.98-3.36m17.66 3.36l-1.98-3.36m0 0l-1.94 3.36-1.98-3.36"/><path stroke="#b6b7b0" d="M383.97 373.53l-1.94 3.36-1.98-3.36m-7.84-5.37l-1.94 3.36-1.97-3.36m21.57 3.36l-1.98-3.36m0 0l-1.94 3.36-1.98-3.36"/><path stroke="#b6b7b0" d="M383.97 368.16l-1.94 3.36-1.98-3.36m3.92-31.44l-1.94 3.36-1.98-3.36m0 0l-1.94 3.36-1.98-3.36m3.92 5.22l-1.94 3.36-1.98-3.36m7.84 0l-1.94 3.36-1.98-3.36M387.89 341.94l-1.94 3.36-1.98-3.36m-7.84 0l-1.94 3.36-1.98-3.36m3.92 5.2l-1.94 3.36-1.98-3.36m0 0l-1.94 3.36-1.97-3.36m3.91 4.92l-1.94 3.36-1.97-3.36m11.73 5.4l-1.94 3.36-1.98-3.36m-3.92 5.32l-1.94 3.36-1.98-3.36m11.76 0l-1.94 3.36-1.98-3.36m7.86 0l-1.94 3.36-1.98-3.36m-246.97-26.06l-1.94 3.36-1.98-3.36m3.92 5.22l-1.94 3.36-1.98-3.36m3.92 5.2l-1.94 3.36-1.98-3.36m0 0l-1.94 3.36-1.98-3.36m0 0l-1.94 3.35m13.7-3.35l-1.94 3.36-1.98-3.36m3.92 4.92l-1.94 3.36-1.98-3.36m7.86 5.23l-1.94 3.36-1.98-3.36m-7.86-5.23l-1.94 3.36-1.98-3.36m0 5.4l-1.93 3.36-1.99-3.36m0 0l-1.93 3.36-1.98-3.36"/><path stroke="#b6b7b0" d="M117.41 357.46l-1.94 3.36-1.98-3.36m0 0l-1.94 3.36-1.98-3.36m7.84-5.4l-1.94 3.36-1.98-3.36m0 0l-1.94 3.36-1.98-3.36m0 0l-1.94 3.36-1.98-3.36m50.94 0l-1.94 3.36-1.98-3.36m0 0l-1.94 3.36-1.98-3.36m0 0l-1.93 3.36-1.98-3.36m7.83 5.4l-1.94 3.36-1.98-3.36m0 0l-1.93 3.36-1.98-3.36m0 0l-1.94 3.36-1.98-3.36m7.83 5.32l-1.93 3.36-1.98-3.36m0 0l-1.94 3.36-1.98-3.36m3.94 5.38l-1.94 3.36-1.98-3.36m0 0l-1.94 3.36-1.98-3.36m-.02 0l-1.94 3.36-1.98-3.36m0 0l-1.94 3.36-1.98-3.36m0 0l-1.94 3.36-1.98-3.36m15.7 5.37l-1.94 3.36-1.98-3.36m-.02 0l-1.94 3.36-1.98-3.36m3.92 5.26l-1.94 3.36-1.98-3.36m0-5.26l-1.94 3.36-1.98-3.36m3.92 5.26l-1.94 3.36-1.98-3.36m0 0l-1.94 3.36-1.98-3.36m3.92-5.26l-1.94 3.36-1.98-3.36m0 0l-1.93 3.36-1.99-3.36m3.92-5.37l-1.93 3.36-1.99-3.36m0 0l-1.93 3.36-1.98-3.36m3.91-5.38l-1.93 3.36-1.98-3.36M117.41 362.78l-1.94 3.36-1.98-3.36m25.49-12.29l-1.98-3.35m-7.84-10.42l-1.94 3.36-1.98-3.36m0 0l-1.93 3.36-1.99-3.36m0 0l-1.93 3.36-1.98-3.36M117.41 336.72l-1.94 3.36-1.98-3.36m3.92 5.22l-1.94 3.36-1.98-3.36m0 0l-1.94 3.36-1.98-3.36m3.92 5.2l-1.94 3.36-1.98-3.36m0-5.2l-1.94 3.36-1.98-3.36m50.94 0l-1.94 3.36-1.98-3.36m0 0l-1.94 3.36-1.98-3.36m3.92 5.2l-1.94 3.36-1.98-3.36m0-5.2l-1.93 3.36-1.98-3.36m3.91-5.22l-1.93 3.36-1.98-3.36m0 0l-1.94 3.36-1.98-3.36m0 0l-1.94 3.36-1.98-3.36m0 0l-1.94 3.36-1.98-3.36m-74.47 42.07l1.94 3.36 1.98-3.36m-7.84 0l1.94 3.36 1.98-3.36m-7.84 0l1.94 3.36 1.98-3.36m15.67-10.63l1.94 3.36 1.98-3.36m0 0l1.94 3.36 1.98-3.36m-7.84 5.37l1.94 3.36 1.98-3.36m0 0l1.94 3.36 1.98-3.36m7.86 10.45l1.94 3.36 1.98-3.36m-7.86 0l1.94 3.36 1.98-3.36m-25.49-7.09l1.98-3.36m0 0l1.93 3.36 1.98-3.36"/><path stroke="#b6b7b0" d="M66.44 373.53l1.94 3.36 1.98-3.36m7.84-5.37l1.94 3.36 1.98-3.36m-21.57 3.36l1.98-3.36m0 0l1.93 3.36 1.98-3.36M66.44 368.16l1.94 3.36 1.98-3.36m-3.92-31.44l1.94 3.36 1.98-3.36m0 0l1.94 3.36 1.98-3.36m-3.92 5.22l1.94 3.36 1.98-3.36m-7.84 0l1.94 3.36 1.98-3.36M62.53 341.94l1.93 3.36 1.98-3.36m7.84 0l1.94 3.36 1.98-3.36m-3.92 5.2l1.94 3.36 1.98-3.36m0 0l1.94 3.36 1.98-3.36m-3.92 4.92l1.94 3.36 1.98-3.36m0 5.4l1.94 3.36 1.98-3.36m-15.68 0l1.94 3.36 1.98-3.36m3.94 5.32l1.94 3.36 1.98-3.36m-15.7 0l1.94 3.36 1.98-3.36m.02 0l1.94 3.36 1.98-3.36m35.27 16.01l-1.94 3.36-1.98-3.36m7.84 0l-1.94 3.36-1.98-3.36m7.84 0l-1.94 3.36-1.98-3.36m-15.68-10.63l-1.93 3.36-1.99-3.36m0 0l-1.93 3.36-1.98-3.36m7.83 5.37l-1.93 3.36-1.99-3.36m0 0l-1.93 3.36-1.98-3.36m17.65 3.36l-1.98-3.36m0 0l-1.94 3.36-1.98-3.36m0 0l-1.94 3.36-1.98-3.36"/><path stroke="#b6b7b0" d="M89.98 368.16l-1.94 3.36-1.98-3.36m21.57 3.36l-1.98-3.36m0 0l-1.94 3.36-1.98-3.36m0 0l-1.94 3.36-1.98-3.36m3.92-31.44l-1.94 3.36-1.98-3.36m0 0l-1.93 3.36-1.99-3.36m3.92 5.22l-1.93 3.36-1.99-3.36m7.84 0l-1.94 3.36-1.98-3.36m7.84 0l-1.94 3.36-1.98-3.36m-7.84 0l-1.93 3.36-1.98-3.36m3.91 5.2l-1.93 3.36-1.98-3.36"/><path stroke="#b6b7b0" d="M89.98 347.14l-1.94 3.36-1.98-3.36m3.92 4.92l-1.94 3.36-1.98-3.36m11.73 5.4l-1.94 3.36-1.98-3.36m-3.92 5.32l-1.93 3.36-1.98-3.36m11.75 0l-1.94 3.36-1.98-3.36m7.86 0l-1.94 3.36-1.98-3.36m54.88 16.01l1.94 3.36 1.98-3.36m-7.83 0l1.93 3.36 1.98-3.36"/><path stroke="#b6b7b0" d="M144.86 378.79l1.93 3.36 1.99-3.36m15.67-10.63l1.94 3.36 1.98-3.36m0 0l1.94 3.36 1.98-3.36m-7.84 5.37l1.94 3.36 1.98-3.36m0 0l1.94 3.36 1.98-3.36m7.85 10.45l1.94 3.36 1.98-3.36m-7.86 0l1.94 3.36 1.98-3.36m-25.49-7.09l1.98-3.36m0 0l1.94 3.36 1.98-3.36m0 0l1.94 3.36 1.98-3.36m7.84-5.37l1.93 3.36 1.98-3.36m-21.57 3.36l1.98-3.36m0 0l1.94 3.36 1.98-3.36m0 0l1.94 3.36 1.98-3.36m-3.92-31.44l1.94 3.36 1.98-3.36m0 0l1.94 3.36 1.98-3.36m-3.92 5.22l1.94 3.36 1.98-3.36m-7.84 0l1.94 3.36 1.98-3.36m-7.84 0l1.94 3.36 1.98-3.36m7.84 0l1.94 3.36 1.98-3.36m-3.92 5.2l1.94 3.36 1.98-3.36m0 0l1.93 3.36 1.98-3.36m-3.91 4.92l1.93 3.36 1.98-3.36m0 5.4l1.94 3.36 1.98-3.36m-15.67 0l1.94 3.36 1.98-3.36m3.94 5.32l1.94 3.36 1.97-3.36m-15.69 0l1.94 3.36 1.98-3.36m.02 0l1.94 3.36 1.98-3.36m35.27 16.01l-1.94 3.36-1.98-3.36m7.83 0l-1.94 3.36-1.97-3.36m7.83 0l-1.94 3.36-1.98-3.36m-15.67-10.63l-1.94 3.36-1.98-3.36m0 0l-1.94 3.36-1.98-3.36m7.84 5.37l-1.94 3.36-1.98-3.36m0 0l-1.94 3.36-1.98-3.36m17.66 3.36l-1.98-3.36m0 0l-1.94 3.36-1.98-3.36m0 0l-1.94 3.36-1.98-3.36m-7.84-5.37l-1.94 3.36-1.98-3.36m21.58 3.36l-1.98-3.36m0 0l-1.94 3.36-1.98-3.36m0 0l-1.94 3.36-1.98-3.36m3.92-31.44l-1.94 3.36-1.98-3.36m0 0l-1.94 3.36-1.98-3.36m3.92 5.22l-1.94 3.36-1.98-3.36m7.84 0l-1.94 3.36-1.98-3.36m7.84 0l-1.94 3.36-1.98-3.36m-7.84 0l-1.94 3.36-1.98-3.36m3.92 5.2l-1.94 3.36-1.98-3.36m0 0l-1.94 3.36-1.98-3.36m3.92 4.92l-1.94 3.36-1.98-3.36m11.74 5.4l-1.94 3.36-1.98-3.36m-3.92 5.32l-1.94 3.36-1.98-3.36m11.76 0l-1.94 3.36-1.98-3.36m7.86 0l-1.94 3.36-1.98-3.36m35.27 68.31l-1.94-3.36-1.98 3.36m3.92-5.22l-1.94-3.36-1.98 3.36m3.92-5.2l-1.94-3.35-1.98 3.35m0 0l-1.94-3.35-1.98 3.35m0 0l-1.94-3.35m13.69 3.35l-1.93-3.35-1.98 3.35m3.91-4.92l-1.93-3.36-1.98 3.36m7.85-5.23l-1.93-3.36-1.99 3.36m-7.85 5.23l-1.94-3.36-1.98 3.36m0-5.4l-1.94-3.36-1.98 3.36m0 0l-1.94-3.36-1.98 3.36m0 0l-1.94-3.36-1.98 3.36m0 0l-1.94-3.36-1.97 3.36m7.83 5.4l-1.94-3.36-1.98 3.36m0 0l-1.94-3.36-1.97 3.36m0 0l-1.94-3.36-1.98 3.36m50.94 0l-1.94-3.36-1.98 3.36m0 0l-1.94-3.36-1.98 3.36m0 0l-1.94-3.36-1.98 3.36m7.84-5.4l-1.94-3.36-1.98 3.36m0 0l-1.94-3.36-1.98 3.36m0 0l-1.94-3.36-1.98 3.36m7.84-5.32l-1.94-3.36-1.98 3.36m0 0l-1.94-3.36-1.98 3.36m3.94-5.38L237 396.3l-1.98 3.35m0 0l-1.93-3.35-1.99 3.35m-.02 0l-1.93-3.35-1.98 3.35m0 0l-1.94-3.35-1.98 3.35m0 0l-1.94-3.35-1.98 3.35m15.69-5.37l-1.93-3.36-1.99 3.36m-.02 0l-1.93-3.36-1.98 3.36m3.91-5.26l-1.93-3.36-1.98 3.36m0 5.26l-1.94-3.36-1.98 3.36m3.92-5.26l-1.94-3.36-1.98 3.36m0 0l-1.94-3.36-1.98 3.36m3.92 5.26l-1.94-3.36-1.98 3.36m0 0l-1.94-3.36-1.98 3.36m3.92 5.37l-1.94-3.35-1.98 3.35m0 0l-1.94-3.35-1.98 3.35m3.92 5.38l-1.94-3.36-1.98 3.36m0 0l-1.94-3.36-1.98 3.36m25.49 12.29l-1.98 3.35m-7.83 10.42l-1.94-3.36-1.98 3.36m0 0l-1.94-3.36-1.98 3.36m0 0l-1.94-3.36-1.98 3.36m0 0l-1.94-3.36-1.98 3.36m3.92-5.22l-1.94-3.36-1.98 3.36m0 0l-1.94-3.36-1.97 3.36m3.91-5.2l-1.94-3.35-1.97 3.35m0 5.2l-1.94-3.36-1.98 3.36m50.94 0l-1.94-3.36-1.98 3.36m0 0l-1.94-3.36-1.98 3.36m3.92-5.2l-1.94-3.35-1.98 3.35m0 5.2l-1.94-3.36-1.98 3.36m3.92 5.22l-1.94-3.36-1.98 3.36m0 0l-1.94-3.36-1.98 3.36m0 0l-1.94-3.36-1.98 3.36m0 0l-1.93-3.36-1.98 3.36m94.06 0l-1.94-3.36-1.98 3.36m3.92-5.22l-1.94-3.36-1.98 3.36m3.92-5.2l-1.94-3.35-1.98 3.35m0 0l-1.94-3.35-1.98 3.35m0 0l-1.93-3.35"/><path stroke="#b6b7b0" d="M325.15 420.67l-1.94-3.35-1.98 3.35m3.92-4.92l-1.94-3.36-1.98 3.36m7.86-5.23l-1.94-3.36-1.98 3.36m-7.86 5.23l-1.94-3.36-1.98 3.36m0-5.4l-1.93-3.36-1.98 3.36"/><path stroke="#b6b7b0" d="M309.48 410.35l-1.94-3.36-1.98 3.36m0 0l-1.94-3.36-1.98 3.36m0 0l-1.94-3.36-1.98 3.36m7.84 5.4l-1.94-3.36-1.98 3.36m0 0l-1.94-3.36-1.98 3.36"/><path stroke="#b6b7b0" d="M297.72 415.75l-1.94-3.36-1.98 3.36m50.94 0l-1.94-3.36-1.98 3.36m0 0l-1.94-3.36-1.98 3.36m0 0l-1.93-3.36-1.98 3.36m7.83-5.4l-1.94-3.36-1.98 3.36m0 0l-1.93-3.36-1.98 3.36"/><path stroke="#b6b7b0" d="M332.99 410.35l-1.94-3.36-1.98 3.36m7.83-5.32l-1.93-3.36-1.98 3.36"/><path stroke="#b6b7b0" d="M332.99 405.03l-1.94-3.36-1.98 3.36m3.94-5.38l-1.94-3.35-1.98 3.35m0 0l-1.94-3.35-1.98 3.35m-.02 0l-1.94-3.35-1.98 3.35"/><path stroke="#b6b7b0" d="M321.23 399.65l-1.94-3.35-1.98 3.35m0 0l-1.94-3.35-1.98 3.35m15.7-5.37l-1.94-3.36-1.98 3.36m-.02 0l-1.94-3.36-1.98 3.36m3.92-5.26l-1.94-3.36-1.98 3.36"/><path stroke="#b6b7b0" d="M321.23 394.28l-1.94-3.36-1.98 3.36m3.92-5.26l-1.94-3.36-1.98 3.36m0 0l-1.94-3.36-1.98 3.36m3.92 5.26l-1.94-3.36-1.98 3.36m0 0l-1.93-3.36-1.98 3.36m3.91 5.37l-1.93-3.35-1.98 3.35"/><path stroke="#b6b7b0" d="M309.48 399.65l-1.94-3.35-1.98 3.35m3.92 5.38l-1.94-3.36-1.98 3.36m0 0l-1.94-3.36-1.98 3.36m25.49 12.29l-1.98 3.35m-7.84 10.42l-1.94-3.36-1.98 3.36m0 0l-1.93-3.36-1.98 3.36"/><path stroke="#b6b7b0" d="M309.48 431.09l-1.94-3.36-1.98 3.36m0 0l-1.94-3.36-1.98 3.36m3.92-5.22l-1.94-3.36-1.98 3.36m0 0l-1.94-3.36-1.98 3.36m3.92-5.2l-1.94-3.35-1.98 3.35"/><path stroke="#b6b7b0" d="M297.72 425.87l-1.94-3.36-1.98 3.36m50.94 0l-1.94-3.36-1.98 3.36m0 0l-1.94-3.36-1.98 3.36m3.92-5.2l-1.94-3.35-1.98 3.35m0 5.2l-1.93-3.36-1.98 3.36m3.91 5.22l-1.93-3.36-1.98 3.36"/><path stroke="#b6b7b0" d="M332.99 431.09l-1.94-3.36-1.98 3.36m0 0l-1.94-3.36-1.98 3.36m0 0l-1.94-3.36-1.98 3.36m94.09 0l-1.94-3.36-1.98 3.36m3.92-5.22l-1.94-3.36-1.98 3.36m3.92-5.2l-1.94-3.35-1.98 3.35m0 0l-1.94-3.35-1.98 3.35m0 0l-1.94-3.35m13.7 3.35l-1.94-3.35-1.98 3.35m3.92-4.92l-1.94-3.36-1.98 3.36m7.86-5.23l-1.94-3.36-1.98 3.36m-7.86 5.23l-1.94-3.36-1.98 3.36m0-5.4l-1.94-3.36-1.98 3.36m0 0l-1.94-3.36-1.98 3.36m0 0l-1.94-3.36-1.98 3.36"/><path stroke="#b6b7b0" d="M395.72 410.35l-1.93-3.36-1.98 3.36m7.83 5.4l-1.94-3.36-1.98 3.36"/><path stroke="#b6b7b0" d="M395.72 415.75l-1.93-3.36-1.98 3.36m0 0l-1.94-3.36-1.98 3.36m50.94 0l-1.94-3.36-1.98 3.36"/><path stroke="#b6b7b0" d="M434.91 415.75l-1.94-3.36-1.98 3.36m0 0l-1.94-3.36-1.98 3.36m7.84-5.4l-1.94-3.36-1.98 3.36m0 0l-1.94-3.36-1.98 3.36m0 0l-1.94-3.36-1.98 3.36m7.84-5.32l-1.94-3.36-1.98 3.36m0 0l-1.94-3.36-1.98 3.36m3.94-5.38l-1.94-3.35-1.97 3.35"/><path stroke="#b6b7b0" d="M423.18 399.65l-1.94-3.35-1.98 3.35m-.02 0l-1.94-3.35-1.98 3.35m0 0l-1.94-3.35-1.98 3.35m0 0l-1.94-3.35-1.98 3.35m15.7-5.37l-1.94-3.36-1.98 3.36m-.02 0l-1.94-3.36-1.98 3.36m3.92-5.26l-1.94-3.36-1.98 3.36m0 5.26l-1.94-3.36-1.98 3.36m3.92-5.26l-1.94-3.36-1.98 3.36m0 0l-1.94-3.36-1.98 3.36m3.92 5.26l-1.94-3.36-1.98 3.36"/><path stroke="#b6b7b0" d="M407.48 394.28l-1.94-3.36-1.98 3.36m3.92 5.37l-1.94-3.35-1.98 3.35m0 0l-1.94-3.35-1.98 3.35m3.92 5.38l-1.94-3.36-1.98 3.36m0 0l-1.94-3.36-1.98 3.36m25.5 12.29l-1.98 3.35m-7.84 10.42l-1.94-3.36-1.98 3.36"/><path stroke="#b6b7b0" d="M407.48 431.09l-1.94-3.36-1.98 3.36m0 0l-1.94-3.36-1.98 3.36m0 0l-1.94-3.36-1.98 3.36m3.92-5.22l-1.94-3.36-1.98 3.36"/><path stroke="#b6b7b0" d="M395.72 425.87l-1.93-3.36-1.98 3.36m3.91-5.2l-1.93-3.35-1.98 3.35m0 5.2l-1.94-3.36-1.98 3.36m50.94 0l-1.94-3.36-1.98 3.36"/><path stroke="#b6b7b0" d="M434.91 425.87l-1.94-3.36-1.98 3.36m3.92-5.2l-1.94-3.35-1.98 3.35m0 5.2l-1.94-3.36-1.98 3.36m3.92 5.22l-1.94-3.36-1.98 3.36m0 0l-1.94-3.36-1.98 3.36m0 0l-1.93-3.36-1.98 3.36"/><path stroke="#b6b7b0" d="M419.24 431.09l-1.94-3.36-1.98 3.36m-168.56-42.07l1.94-3.36 1.98 3.36m-7.84 0l1.94-3.36 1.98 3.36m-7.84 0l1.94-3.36 1.98 3.36m15.67 10.63l1.94-3.35 1.98 3.35m0 0l1.94-3.35 1.98 3.35m-7.84-5.37l1.94-3.36 1.98 3.36m0 0l1.94-3.36 1.98 3.36m-17.65-3.36l1.98 3.36m0 0l1.94-3.36 1.97 3.36"/><path stroke="#b6b7b0" d="M254.59 394.28l1.94-3.36 1.98 3.36m7.84 5.37l1.94-3.35 1.98 3.35m-21.57-3.36l1.98 3.36m0 0l1.94-3.35 1.97 3.35m0 0l1.94-3.35 1.98 3.35m-3.92 31.44l1.94-3.36 1.98 3.36"/><path stroke="#b6b7b0" d="M258.51 431.09l1.94-3.36 1.98 3.36m-3.92-5.22l1.94-3.36 1.98 3.36"/><path stroke="#b6b7b0" d="M254.59 425.87l1.94-3.36 1.98 3.36m-7.83 0l1.94-3.36 1.97 3.36m7.84 0l1.94-3.36 1.98 3.36m-3.92-5.2l1.94-3.35 1.98 3.35m0 0l1.94-3.35 1.98 3.35m-3.92-4.92l1.94-3.36 1.98 3.36m0-5.4l1.94-3.36 1.98 3.36m-15.68 0l1.94-3.36 1.98 3.36m3.94-5.32l1.94-3.36 1.98 3.36m-15.7 0l1.94-3.36 1.98 3.36m.03 0l1.93-3.36 1.98 3.36m35.27-16.01l-1.94-3.36-1.98 3.36"/><path stroke="#b6b7b0" d="M301.64 389.02l-1.94-3.36-1.98 3.36m7.84 0l-1.94-3.36-1.98 3.36m-15.68 10.63l-1.93-3.35-1.98 3.35"/><path stroke="#b6b7b0" d="M282.05 399.65l-1.94-3.35-1.98 3.35m7.83-5.37l-1.93-3.36-1.98 3.36"/><path stroke="#b6b7b0" d="M282.05 394.28l-1.94-3.36-1.98 3.36m17.65-3.36l-1.98 3.36m0 0l-1.94-3.36-1.98 3.36m0 0l-1.94-3.36-1.98 3.36m-7.83 5.37l-1.94-3.35-1.98 3.35m21.57-3.36l-1.98 3.36m0 0l-1.94-3.35-1.98 3.35m0 0l-1.94-3.35-1.98 3.35m3.92 31.44l-1.94-3.36-1.98 3.36m0 0l-1.93-3.36-1.98 3.36m3.91-5.22l-1.93-3.36-1.98 3.36m7.83 0l-1.94-3.36-1.98 3.36m7.84 0l-1.94-3.36-1.98 3.36"/><path stroke="#b6b7b0" d="M282.05 425.87l-1.94-3.36-1.98 3.36m3.92-5.2l-1.94-3.35-1.98 3.35m0 0l-1.94-3.35-1.98 3.35m3.92-4.92l-1.94-3.36-1.98 3.36m11.73-5.4l-1.94-3.36-1.98 3.36m-3.91-5.32l-1.94-3.36-1.98 3.36m11.75 0l-1.94-3.36-1.98 3.36m7.86 0l-1.94-3.36-1.98 3.36m54.88-16.01l1.94-3.36 1.98 3.36"/><path stroke="#b6b7b0" d="M336.93 389.02l1.93-3.36 1.98 3.36m-7.83 0l1.94-3.36 1.98 3.36m15.67 10.63l1.94-3.35 1.98 3.35"/><path stroke="#b6b7b0" d="M356.52 399.65l1.94-3.35 1.98 3.35m-7.84-5.37l1.94-3.36 1.98 3.36"/><path stroke="#b6b7b0" d="M356.52 394.28l1.94-3.36 1.98 3.36m-17.66-3.36l1.98 3.36m0 0l1.94-3.36 1.98 3.36m0 0l1.94-3.36 1.98 3.36m7.84 5.37l1.94-3.35 1.98 3.35m-21.58-3.36l1.98 3.36m0 0l1.94-3.35 1.98 3.35m0 0l1.94-3.35 1.98 3.35m-3.92 31.44l1.94-3.36 1.98 3.36m0 0l1.94-3.36 1.98 3.36m-3.92-5.22l1.94-3.36 1.98 3.36m-7.84 0l1.94-3.36 1.98 3.36m-7.84 0l1.94-3.36 1.98 3.36"/><path stroke="#b6b7b0" d="M356.52 425.87l1.94-3.36 1.98 3.36m-3.92-5.2l1.94-3.35 1.98 3.35m0 0l1.94-3.35 1.98 3.35m-3.92-4.92l1.94-3.36 1.98 3.36m0-5.4l1.93-3.36 1.98 3.36m-15.67 0l1.94-3.36 1.98 3.36m3.94-5.32l1.94-3.36 1.98 3.36m-15.7 0l1.94-3.36 1.98 3.36m.02 0l1.94-3.36 1.98 3.36m35.27-16.01l-1.94-3.36-1.98 3.36m7.83 0l-1.93-3.36-1.98 3.36"/><path stroke="#b6b7b0" d="M399.64 389.02l-1.94-3.36-1.98 3.36m-15.67 10.63l-1.94-3.35-1.98 3.35m0 0l-1.94-3.35-1.98 3.35m7.84-5.37l-1.94-3.36-1.98 3.36m0 0l-1.94-3.36-1.98 3.36m17.66-3.36l-1.98 3.36m0 0l-1.94-3.36-1.98 3.36"/><path stroke="#b6b7b0" d="M383.97 394.28l-1.94-3.36-1.98 3.36m-7.84 5.37l-1.94-3.35-1.97 3.35m21.57-3.36l-1.98 3.36m0 0l-1.94-3.35-1.98 3.35"/><path stroke="#b6b7b0" d="M383.97 399.65l-1.94-3.35-1.98 3.35m3.92 31.44l-1.94-3.36-1.98 3.36m0 0l-1.94-3.36-1.98 3.36m3.92-5.22l-1.94-3.36-1.98 3.36m7.84 0l-1.94-3.36-1.98 3.36M387.89 425.87l-1.94-3.36-1.98 3.36m-7.84 0l-1.94-3.36-1.98 3.36m3.92-5.2l-1.94-3.35-1.98 3.35m0 0l-1.94-3.35-1.97 3.35m3.91-4.92l-1.94-3.36-1.97 3.36m11.73-5.4l-1.94-3.36-1.98 3.36m-3.92-5.32l-1.94-3.36-1.98 3.36m11.76 0l-1.94-3.36-1.98 3.36m7.86 0l-1.94-3.36-1.98 3.36m-246.97 26.06l-1.94-3.36-1.98 3.36m3.92-5.22l-1.94-3.36-1.98 3.36m3.92-5.2l-1.94-3.35-1.98 3.35m0 0l-1.94-3.35-1.98 3.35m0 0l-1.94-3.35m13.7 3.35l-1.94-3.35-1.98 3.35m3.92-4.92l-1.94-3.36-1.98 3.36m7.86-5.23l-1.94-3.36-1.98 3.36m-7.86 5.23l-1.94-3.36-1.98 3.36m0-5.4l-1.93-3.36-1.99 3.36m0 0l-1.93-3.36-1.98 3.36"/><path stroke="#b6b7b0" d="M117.41 410.35l-1.94-3.36-1.98 3.36m0 0l-1.94-3.36-1.98 3.36m7.84 5.4l-1.94-3.36-1.98 3.36m0 0l-1.94-3.36-1.98 3.36m0 0l-1.94-3.36-1.98 3.36m50.94 0l-1.94-3.36-1.98 3.36m0 0l-1.94-3.36-1.98 3.36m0 0l-1.93-3.36-1.98 3.36m7.83-5.4l-1.94-3.36-1.98 3.36m0 0l-1.93-3.36-1.98 3.36m0 0l-1.94-3.36-1.98 3.36m7.83-5.32l-1.93-3.36-1.98 3.36m0 0l-1.94-3.36-1.98 3.36m3.94-5.38l-1.94-3.35-1.98 3.35m0 0L139 396.3l-1.98 3.35m-.02 0l-1.94-3.35-1.98 3.35m0 0l-1.94-3.35-1.98 3.35m0 0l-1.94-3.35-1.98 3.35m15.7-5.37l-1.94-3.36-1.98 3.36m-.02 0l-1.94-3.36-1.98 3.36m3.92-5.26l-1.94-3.36-1.98 3.36m0 5.26l-1.94-3.36-1.98 3.36m3.92-5.26l-1.94-3.36-1.98 3.36m0 0l-1.94-3.36-1.98 3.36m3.92 5.26l-1.94-3.36-1.98 3.36m0 0l-1.93-3.36-1.99 3.36m3.92 5.37l-1.93-3.35-1.99 3.35m0 0l-1.93-3.35-1.98 3.35m3.91 5.38l-1.93-3.36-1.98 3.36M117.41 405.03l-1.94-3.36-1.98 3.36m25.49 12.29l-1.98 3.35m-7.84 10.42l-1.94-3.36-1.98 3.36m0 0l-1.93-3.36-1.99 3.36m0 0l-1.93-3.36-1.98 3.36M117.41 431.09l-1.94-3.36-1.98 3.36m3.92-5.22l-1.94-3.36-1.98 3.36m0 0l-1.94-3.36-1.98 3.36m3.92-5.2l-1.94-3.35-1.98 3.35m0 5.2l-1.94-3.36-1.98 3.36m50.94 0l-1.94-3.36-1.98 3.36m0 0l-1.94-3.36-1.98 3.36m3.92-5.2l-1.94-3.35-1.98 3.35m0 5.2l-1.93-3.36-1.98 3.36m3.91 5.22l-1.93-3.36-1.98 3.36m0 0l-1.94-3.36-1.98 3.36m0 0l-1.94-3.36-1.98 3.36m0 0l-1.94-3.36-1.98 3.36m-74.47-42.07l1.94-3.36 1.98 3.36m-7.84 0l1.94-3.36 1.98 3.36m-7.84 0l1.94-3.36 1.98 3.36m15.67 10.63l1.94-3.35 1.98 3.35m0 0l1.94-3.35 1.98 3.35m-7.84-5.37l1.94-3.36 1.98 3.36m0 0l1.94-3.36 1.98 3.36m-17.65-3.36l1.98 3.36m0 0l1.93-3.36 1.98 3.36"/><path stroke="#b6b7b0" d="M66.44 394.28l1.94-3.36 1.98 3.36m7.84 5.37l1.94-3.35 1.98 3.35m-21.57-3.36l1.98 3.36m0 0l1.93-3.35 1.98 3.35"/><path stroke="#b6b7b0" d="M66.44 399.65l1.94-3.35 1.98 3.35m-3.92 31.44l1.94-3.36 1.98 3.36m0 0l1.94-3.36 1.98 3.36m-3.92-5.22l1.94-3.36 1.98 3.36m-7.84 0l1.94-3.36 1.98 3.36M62.53 425.87l1.93-3.36 1.98 3.36m7.84 0l1.94-3.36 1.98 3.36m-3.92-5.2l1.94-3.35 1.98 3.35m0 0l1.94-3.35 1.98 3.35m-3.92-4.92l1.94-3.36 1.98 3.36m0-5.4l1.94-3.36 1.98 3.36m-15.68 0l1.94-3.36 1.98 3.36m3.94-5.32l1.94-3.36 1.98 3.36m-15.7 0l1.94-3.36 1.98 3.36m.02 0l1.94-3.36 1.98 3.36m35.27-16.01l-1.94-3.36-1.98 3.36m7.84 0l-1.94-3.36-1.98 3.36m7.84 0l-1.94-3.36-1.98 3.36m-15.68 10.63l-1.93-3.35-1.99 3.35m0 0l-1.93-3.35-1.98 3.35m7.83-5.37l-1.93-3.36-1.99 3.36m0 0l-1.93-3.36-1.98 3.36m17.65-3.36l-1.98 3.36m0 0l-1.94-3.36-1.98 3.36m0 0l-1.94-3.36-1.98 3.36"/><path stroke="#b6b7b0" d="M89.98 399.65l-1.94-3.35-1.98 3.35m21.57-3.36l-1.98 3.36m0 0l-1.94-3.35-1.98 3.35m0 0l-1.94-3.35-1.98 3.35m3.92 31.44l-1.94-3.36-1.98 3.36m0 0l-1.93-3.36-1.99 3.36m3.92-5.22l-1.93-3.36-1.99 3.36m7.84 0l-1.94-3.36-1.98 3.36m7.84 0l-1.94-3.36-1.98 3.36m-7.84 0l-1.93-3.36-1.98 3.36m3.91-5.2l-1.93-3.35-1.98 3.35"/><path stroke="#b6b7b0" d="M89.98 420.67l-1.94-3.35-1.98 3.35m3.92-4.92l-1.94-3.36-1.98 3.36m11.73-5.4l-1.94-3.36-1.98 3.36m-3.92-5.32l-1.93-3.36-1.98 3.36m11.75 0l-1.94-3.36-1.98 3.36m7.86 0l-1.94-3.36-1.98 3.36m54.88-16.01l1.94-3.36 1.98 3.36m-7.83 0l1.93-3.36 1.98 3.36"/><path stroke="#b6b7b0" d="M144.86 389.02l1.93-3.36 1.99 3.36m15.67 10.63l1.94-3.35 1.98 3.35m0 0l1.94-3.35 1.98 3.35m-7.84-5.37l1.94-3.36 1.98 3.36m0 0l1.94-3.36 1.98 3.36m-17.66-3.36l1.98 3.36m0 0l1.94-3.36 1.98 3.36m0 0l1.94-3.36 1.98 3.36m7.84 5.37l1.93-3.35 1.98 3.35m-21.57-3.36l1.98 3.36m0 0l1.94-3.35 1.98 3.35m0 0l1.94-3.35 1.98 3.35m-3.92 31.44l1.94-3.36 1.98 3.36m0 0l1.94-3.36 1.98 3.36m-3.92-5.22l1.94-3.36 1.98 3.36m-7.84 0l1.94-3.36 1.98 3.36m-7.84 0l1.94-3.36 1.98 3.36m7.84 0l1.94-3.36 1.98 3.36m-3.92-5.2l1.94-3.35 1.98 3.35m0 0l1.93-3.35 1.98 3.35m-3.91-4.92l1.93-3.36 1.98 3.36m0-5.4l1.94-3.36 1.98 3.36m-15.67 0l1.94-3.36 1.98 3.36m3.94-5.32l1.94-3.36 1.97 3.36m-15.69 0l1.94-3.36 1.98 3.36m.02 0l1.94-3.36 1.98 3.36m35.27-16.01l-1.94-3.36-1.98 3.36m7.83 0l-1.94-3.36-1.97 3.36m7.83 0l-1.94-3.36-1.98 3.36m-15.67 10.63l-1.94-3.35-1.98 3.35m0 0l-1.94-3.35-1.98 3.35m7.84-5.37l-1.94-3.36-1.98 3.36m0 0l-1.94-3.36-1.98 3.36m17.66-3.36l-1.98 3.36m0 0l-1.94-3.36-1.98 3.36m0 0l-1.94-3.36-1.98 3.36m-7.84 5.37l-1.94-3.35-1.98 3.35m21.58-3.36l-1.98 3.36m0 0l-1.94-3.35-1.98 3.35m0 0l-1.94-3.35-1.98 3.35m3.92 31.44l-1.94-3.36-1.98 3.36m0 0l-1.94-3.36-1.98 3.36m3.92-5.22l-1.94-3.36-1.98 3.36m7.84 0l-1.94-3.36-1.98 3.36m7.84 0l-1.94-3.36-1.98 3.36m-7.84 0l-1.94-3.36-1.98 3.36m3.92-5.2l-1.94-3.35-1.98 3.35m0 0l-1.94-3.35-1.98 3.35m3.92-4.92l-1.94-3.36-1.98 3.36m11.74-5.4l-1.94-3.36-1.98 3.36m-3.92-5.32l-1.94-3.36-1.98 3.36m11.76 0l-1.94-3.36-1.98 3.36m7.86 0l-1.94-3.36-1.98 3.36M226.63 68l-2 3.45-2-3.25m4 4.97l-2 3.45-2-3.25m4 5l-2 3.45-2-3.25m-.04 0l-2 3.47c-.67-1.08-1.35-2.16-2-3.24m-.03 0l-2 3.49m14.1-4.07c-.66 1.14-1.33 2.28-2 3.43l-2-3.28m4 4.77c-.66 1.15-1.33 2.29-2 3.43l-2-3.27m8.06 4.95l-2 3.42-2-3.3m-8.13-4.87l-2 3.47c-.67-1.08-1.35-2.16-2-3.24m-.03 5.4l-2 3.49-2-3.22m-.04 0c-.66 1.17-1.32 2.34-2 3.51l-2-3.19m-.03 0c-.66 1.17-1.32 2.35-2 3.52-.68-1.06-1.35-2.12-2-3.17m-.02 0c-.67 1.18-1.33 2.36-2 3.55l-2-3.16m8.02-6.14l-2 3.53-2-3.18m-.02 0c-.67 1.18-1.33 2.36-2 3.55l-2-3.16m-.03 0c-.66 1.19-1.32 2.38-2 3.57-.67-1-1.35-2.09-2-3.14M250.86 83l-2 3.33-2-3.37m-.04-.05c-.67 1.11-1.33 2.23-2 3.35l-2-3.35m-.04 0l-2 3.37-2-3.33m8.04 5.36c-.67 1.11-1.33 2.23-2 3.35l-2-3.35m-.04 0l-2 3.37-2-3.34m-.04 0l-2 3.4-2-3.32m8.04 5.21l-2 3.37-2-3.33m-.04 0l-2 3.39-2-3.31m4.02 5.25c-.66 1.13-1.33 2.26-2 3.39l-2-3.31m-.04.04l-2 3.41-2-3.29m-.06 0c-.66 1.14-1.33 2.28-2 3.43l-2-3.28m-.03 0l-2 3.45-2-3.25m-.04 0l-2 3.47c-.67-1.08-1.35-2.16-2-3.24m16.13 4.67l-2 3.41-2-3.29m-.06 0l-2 3.43-2-3.27m4 5.1l-2 3.43-2-3.27m-.03-5.26c-.67 1.14-1.33 2.29-2 3.45l-2-3.26m4 5.04l-2 3.45-2-3.25m-.04.03l-2 3.47c-.67-1.08-1.35-2.16-2-3.24m4-5.46c-.66 1.16-1.33 2.31-2 3.47-.67-1.08-1.35-2.16-2-3.23m-.03-.04l-2 3.49-2-3.22m4-5.65l-2 3.49-2-3.21m-.04 0c-.66 1.17-1.32 2.34-2 3.51l-2-3.2m4-5.69c-.66 1.17-1.32 2.34-2 3.51l-2-3.19m-.03-.04l-2 3.53-2-3.18m26.21-13.84l-2-3.29m-8.11-10.07l-2 3.47c-.67-1.08-1.35-2.16-2-3.24m-.03 0l-2 3.49-2-3.21m-.04 0c-.66 1.17-1.32 2.34-2 3.51l-2-3.2m-.03.03l-2 3.53-2-3.18m4 4.84l-2 3.53-2-3.18m-.02 0c-.67 1.18-1.33 2.37-2 3.55l-2-3.15m4 4.8c-.67 1.18-1.33 2.37-2 3.55l-2-3.16m-.03-5.19l-2 3.56-2-3.13m52.42-2.55l-2 3.34-2-3.38m-.04 0l-2 3.36-2-3.36m4 5.22c-.67 1.12-1.33 2.24-2 3.35l-2-3.35m-.04-5.22l-2 3.37-2-3.33m4-5.26c-.67 1.12-1.33 2.25-2 3.38l-2-3.34m-.04 0l-2 3.39-2-3.31m-.04 0c-.66 1.14-1.33 2.27-2 3.41l-2-3.29m-.04 0c-.66 1.14-1.33 2.28-2 3.43l-2-3.28M323.23 75l-2 3-2-3.73m4 5.96l-2 3-2-3.73m4 5.93l-2 3-2-3.73m.01-.02c-.66 1-1.32 2-2 3l-2-3.71m.01.03l-2 3"/><path d="M327.21 86.21c-.66 1-1.32 2-2 3l-2-3.75m4 5.68c-.66 1-1.32 2-2 3l-2-3.75m7.99 6.8l-2 3-2-3.77m-7.96-6.81c-.66 1-1.32 2-2 3-.68-1.23-1.35-2.47-2-3.71m.01 5.4l-2 3c-.67-1.24-1.35-2.47-2-3.69m0 .03l-2 3c-.67-1.23-1.35-2.45-2-3.67m0 .03l-2 3.06-2-3.65m-.01.01l-2 3.08-2-3.63m8.01-4.26l-2 3.06c-.68-1.21-1.35-2.43-2-3.65m-.01-.02l-2 3.09-2-3.64m-.01.02l-2 3.11-2-3.61M347 95.64l-1.95 2.87-2-3.85" stroke="#b6b7b0"/><path d="M343.07 94.66c-.66 1-1.31 1.93-2 2.89l-2-3.83" stroke="#b6b7b0"/><path d="M339.11 93.72l-2 2.91-2-3.81m7.96 7.24c-.66 1-1.31 1.92-2 2.89-.67-1.28-1.33-2.56-2-3.83" stroke="#b6b7b0"/><path d="M339.11 99.12l-2 2.91-2-3.81" stroke="#b6b7b0"/><path d="M335.15 98.22l-2 2.93-2-3.79m7.96 7.08l-2 2.91-2-3.81" stroke="#b6b7b0"/><path d="M335.15 103.54l-2 2.93-2-3.79m4.02 6.24l-2 2.93-2-3.79" stroke="#b6b7b0"/><path d="M331.2 108.06l-2 2.94-2-3.77" stroke="#b6b7b0"/><path d="M327.21 107.23c-.66 1-1.32 2-2 3l-2-3.75" stroke="#b6b7b0"/><path d="M323.23 106.45l-2 3-2-3.73m.01-.02c-.66 1-1.32 2-2 3l-2-3.71m15.96 8.44c-.65 1-1.31 2-2 2.95l-2-3.77" stroke="#b6b7b0"/><path d="M327.21 112.6c-.66 1-1.32 2-2 3l-2-3.75m4 6.02c-.66 1-1.32 2-2 3l-2-3.75" stroke="#b6b7b0"/><path d="M323.23 111.82l-2 3-2-3.73m4 5.99l-2 3-2-3.73" stroke="#b6b7b0"/><path d="M319.24 116.34c-.66 1-1.32 2-2 3-.68-1.23-1.35-2.47-2-3.71m4-4.55c-.66 1-1.32 2-2 3l-2-3.71" stroke="#b6b7b0"/><path d="M315.25 110.37l-2 3-2-3.69m4-4.68l-2 3-2-3.69m0 .02l-2 3c-.67-1.22-1.35-2.44-2-3.67m4-4.66l-2 3-2-3.67m0 0l-2 3.06c-.68-1.21-1.35-2.43-2-3.65M329.22 90l-2-3.77m-7.98-11.97c-.66 1-1.32 2-2 3l-2-3.71" stroke="#b6b7b0"/><path d="M315.25 73.56l-2 3-2-3.69m0 .02l-2 3-2-3.68m0 .05l-2 3.07c-.68-1.22-1.35-2.44-2-3.65m4 5.81l-2 3.06c-.68-1.22-1.35-2.44-2-3.65m-.01 0l-2 3.08-2-3.63m4 5.75l-2 3.08-2-3.63m-.01-5.2l-2 3.1-2-3.61M347 85.52l-1.95 2.86-2-3.84" stroke="#b6b7b0"/><path d="M343.07 84.54c-.66 1-1.31 1.92-2 2.89-.67-1.28-1.33-2.56-2-3.83m4 6.13l-2 2.89-2-3.83" stroke="#b6b7b0"/><path d="M339.11 83.6l-2 2.9c-.67-1.27-1.33-2.54-2-3.8m4-4.32l-2 2.9c-.67-1.27-1.33-2.54-2-3.8" stroke="#b6b7b0"/><path d="M335.15 77.48l-2 2.92-2-3.79" stroke="#b6b7b0"/><path d="M331.18 76.61l-2 3-2-3.77m.03-.05c-.66 1-1.32 2-2 3l-2-3.75m93.34 29.6l-1.87 2.52-1.9-4.21m3.77 6.91l-1.87 2.52-1.9-4.21m3.77 6.89l-1.87 2.52c-.63-1.41-1.27-2.81-1.9-4.21m0 0l-1.87 2.54c-.64-1.4-1.27-2.79-1.91-4.18m0 0l-1.88 2.56m13.18 2.49l-1.85 2.5q-1-2.11-1.9-4.22m3.75 6.65c-.62.83-1.24 1.66-1.85 2.5q-1-2.11-1.9-4.23m7.51 8.73c-.61.83-1.23 1.65-1.85 2.48l-1.89-4.19m-7.54-8.7l-1.87 2.54-1.91-4.19m0 5.4l-1.88 2.56c-.64-1.39-1.27-2.78-1.91-4.16m0 0c-.63.85-1.26 1.71-1.88 2.57q-1-2.07-1.93-4.14m0 0c-.63.86-1.26 1.73-1.88 2.6q-1-2.07-1.93-4.13m0 0c-.63.87-1.27 1.74-1.9 2.62l-1.93-4.11m7.64-2.38c-.63.86-1.26 1.73-1.88 2.6-.65-1.38-1.29-2.75-1.93-4.13m0 .05l-1.9 2.62-1.93-4.11m0-.05l-1.9 2.64c-.65-1.36-1.29-2.73-1.94-4.09m48.95 21.9l-1.82 2.41-1.86-4.32m0 0l-1.83 2.42c-.63-1.44-1.25-2.87-1.87-4.31m0 0l-1.84 2.45-1.88-4.29m7.42 9.12l-1.83 2.43c-.63-1.44-1.25-2.87-1.87-4.31m0 0c-.62.81-1.23 1.63-1.84 2.45l-1.88-4.29m0 0l-1.84 2.46-1.93-4.26m7.49 8.96l-1.84 2.45-1.88-4.28m0 0c-.61.82-1.23 1.64-1.84 2.47l-1.93-4.28m3.79 7.19l-1.79 2.46-1.89-4.27m-.05 0l-1.85 2.49-1.89-4.25m-.02-.01l-1.85 2.5q-1-2.12-1.9-4.22m0 0l-1.87 2.52c-.63-1.41-1.27-2.81-1.9-4.21m0 0l-1.87 2.54c-.64-1.39-1.27-2.79-1.91-4.18M424.06 145l-1.85 2.48-1.89-4.25m-.02-.06c-.62.84-1.24 1.67-1.85 2.51q-1-2.12-1.9-4.23m3.75 6.99c-.62.83-1.24 1.66-1.85 2.5q-1-2.12-1.9-4.23m0-5.26l-1.87 2.55-1.9-4.2m3.77 6.91l-1.87 2.53c-.63-1.41-1.27-2.81-1.9-4.21m0-.03l-1.87 2.54-1.91-4.16m3.78-3.61l-1.87 2.54c-.64-1.4-1.27-2.8-1.91-4.19" stroke="#b6b7b0"/><path d="M409 138.12l-1.88 2.56-1.91-4.17m3.79-3.76l-1.88 2.56-1.91-4.17m0 0l-1.88 2.58c-.65-1.38-1.29-2.77-1.93-4.15m3.81-3.8l-1.88 2.58-1.93-4.15m0 0c-.63.86-1.26 1.73-1.88 2.6-.65-1.38-1.29-2.75-1.93-4.13m24.6-1.67l-1.89-4.25M412.78 103l-1.87 2.54c-.64-1.39-1.27-2.79-1.91-4.18m0-.05l-1.88 2.56-1.91-4.17m0 0l-1.88 2.58q-1-2.07-1.93-4.15m0 0c-.63.87-1.26 1.73-1.88 2.6-.65-1.37-1.29-2.75-1.93-4.12m3.81 6.74l-1.88 2.6-1.93-4.12m0 0l-1.9 2.61c-.64-1.37-1.29-2.73-1.93-4.1m3.83 6.66c-.63.88-1.27 1.75-1.9 2.62-.64-1.37-1.29-2.74-1.93-4.1m0-5.18l-1.9 2.63-1.94-4.08m48.95 21.9l-1.82 2.4-1.86-4.32m0 0l-1.83 2.42c-.63-1.43-1.25-2.87-1.87-4.3m3.7 7.08l-1.83 2.42-1.87-4.3m0-5.19c-.62.81-1.23 1.63-1.84 2.44-.63-1.43-1.25-2.86-1.88-4.28m3.72-3.39c-.62.81-1.23 1.63-1.84 2.44-.63-1.43-1.25-2.86-1.88-4.28m0 0l-1.84 2.46-1.93-4.26m0 0l-1.85 2.48-1.89-4.25" stroke="#b6b7b0"/><path d="M420.3 106.36l-1.85 2.5c-.64-1.41-1.27-2.81-1.9-4.22m-169.73 5l2 3.37 2-3.33m-8.04-.04l2 3.35 2-3.35m-8.04.04l2 3.33 2-3.37m16.19-10.4c.67 1.14 1.34 2.28 2 3.43l2-3.28m.07 0l2 3.45 2-3.25m-8.07 5.02l2 3.43 2-3.27m.07 0c.67 1.14 1.33 2.29 2 3.45l2-3.26m8.1 10.96c.66 1.17 1.32 2.34 2 3.51l2-3.2m-8.1-.58l2 3.48 2-3.21m-26.18-8.17l2-3.34m.04 0l2 3.4 2-3.32m.04 0l2 3.41 2-3.29m8.1-5.02l2 3.47 2-3.24m-22.18 2.55l2-3.33m.04-.04c.66 1.13 1.33 2.26 2 3.39l2-3.31m.04.04l2 3.41 2-3.29m-4-31.56l2 3.41 2-3.29m.03 0c.67 1.14 1.34 2.28 2 3.43L263 68m-4.07 5c.67 1.14 1.34 2.28 2 3.43l2-3.28m-8.03-.25l2 3.41 2-3.29m-8.04-.2c.66 1.13 1.33 2.26 2 3.39l2-3.31m8.14.27l2 3.45 2-3.25m-4 5l2 3.45 2-3.25m0 0l2 3.43 2-3.24m-4 4.74l2 3.5 2-3.24m0 5.37l2 3.49 2-3.22m-16.07-.86l2 3.43 2-3.27m4.07 5.52l2 3.47 2-3.24m-16.1-.7l2 3.41 2-3.3m.1 0c.66 1.15 1.33 2.29 2 3.43l2-3.29m36.23 19.2l-2 3.11-2-3.61m8.01 1.05l-2 3.09-2-3.64m8.01 1.14l-2 3.06-2-3.65m-16.07-12.59c-.67 1-1.33 2.1-2 3.16l-2-3.55m-.03 0l-2 3.18c-.68-1.18-1.36-2.36-2-3.54m8.03 6.12c-.67 1-1.33 2.11-2 3.16l-2-3.55m-.03 0c-.66 1.06-1.32 2.12-2 3.18l-2-3.53m18.1 5.21l-2-3.61m-.03.04l-2 3.12-2-3.59m-.02.04l-2 3.14-2-3.57m-8.07-6.16l-2 3.2c-.68-1.17-1.36-2.34-2-3.51m22.12 5.57l-2-3.61m-.03 0l-2 3.12c-.68-1.2-1.35-2.4-2-3.59m-.02 0l-2 3.14-2-3.57m4-31.01l-2 3.14-2-3.57m-.02 0c-.67 1-1.33 2.1-2 3.16l-2-3.55m4 5.61c-.67 1-1.33 2.1-2 3.16l-2-3.55m8.02.82l-2 3.14-2-3.57m8.02.9l-2 3.12-2-3.59m-8.07-.82l-2 3.18c-.68-1.18-1.36-2.36-2-3.54m4 5.55c-.66 1.06-1.32 2.12-2 3.18-.68-1.17-1.36-2.35-2-3.53m-.02 0l-2 3.2c-.68-1.17-1.36-2.34-2-3.51m4 5.24c-.67 1.06-1.33 2.13-2 3.2-.68-1.17-1.36-2.34-2-3.51m12.03 6.45c-.67 1.05-1.33 2.11-2 3.16l-2-3.55M279.1 95l-2 3.2-2-3.52m12.06 1.1c-.67 1-1.33 2.11-2 3.16l-2-3.55m8.04.83l-2 3.14-2-3.58m55.89 25.62l2 3.84 2-2.86" stroke="#b6b7b0"/><path d="M339.13 120.46c.65 1.27 1.31 2.54 2 3.82l2-2.88" stroke="#b6b7b0"/><path d="M335.17 119.56l2 3.8 2-2.9m15.74-6.64l1.94 3.89 2-2.8" stroke="#b6b7b0"/><path d="M358.83 114.91l1.94 3.92 2-2.78m-7.86 3.14c.64 1.3 1.29 2.6 1.94 3.9l2-2.8" stroke="#b6b7b0"/><path d="M358.83 120.29c.65 1.3 1.29 2.61 1.94 3.91l2-2.78m7.8 12.85c.65 1.32 1.29 2.65 1.93 4l2-2.72" stroke="#b6b7b0"/><path d="M366.65 133.05c.65 1.31 1.29 2.63 1.93 3.95l2-2.74M345 120c.67-1 1.33-1.91 2-2.86m0-.03l2 3.86 2-2.84m0 0l1.95 3.88 2-2.82m7.8-3.14c.64 1.31 1.29 2.62 1.93 3.94l2-2.77M345 114.6l2-2.86m0 0l2 3.86 2-2.84m0 0l1.95 3.88c.66-1 1.33-1.88 2-2.82M351 81.32l1.95 3.88 2-2.82" stroke="#b6b7b0"/><path d="M354.91 82.38c.64 1.3 1.29 2.59 1.94 3.89l2-2.8m-3.94 4.13l1.94 3.89 2-2.79" stroke="#b6b7b0"/><path d="M351 86.54l1.95 3.88c.66-1 1.33-1.88 2-2.82M347 85.52l2 3.86 2-2.84m7.83 2.16c.65 1.3 1.29 2.6 1.94 3.91l2-2.78m-3.94 4.06l1.94 3.92 2-2.78" stroke="#b6b7b0"/><path d="M362.75 95l1.93 4 2-2.76m-3.93 3.76l1.93 3.93 2-2.76m-.03 5.36c.65 1.32 1.29 2.63 1.93 4 .66-.91 1.32-1.82 2-2.74m-15.67-4.67c.64 1.3 1.29 2.6 1.94 3.9l2-2.8m3.92 6.46c.64 1.31 1.29 2.62 1.93 3.94l2-2.76m-15.7-4.47l1.95 3.87 2-2.82" stroke="#b6b7b0"/><path d="M354.93 108.45l1.94 3.9 2-2.8m34.89 27.64l-1.9 2.64c-.65-1.36-1.29-2.73-1.94-4.09m7.67 2.94l-1.9 2.62-1.93-4.11m7.64 3.02c-.63.86-1.26 1.73-1.88 2.6-.65-1.38-1.29-2.75-1.93-4.13m-15.38-16.36L380.3 125l-2-4" stroke="#b6b7b0"/><path d="M378.34 121l-1.92 2.72c-.65-1.34-1.3-2.68-2-4m7.79 7.98c-.64.89-1.27 1.79-1.91 2.69l-2-4" stroke="#b6b7b0"/><path d="M378.34 126.37l-1.92 2.71c-.65-1.34-1.3-2.67-2-4m17.44 9.49c-.65-1.37-1.29-2.73-1.94-4.09m0 0l-1.9 2.66-1.95-4.07m0 0l-1.91 2.68-2-4m-7.7-8.05l-1.92 2.73c-.66-1.33-1.31-2.66-2-4m21.32 10.76l-1.94-4.08m0 0l-1.9 2.65-1.95-4.06m0 0l-1.91 2.67-2-4.05m3.91-30.06l-1.91 2.67-2-4" stroke="#b6b7b0"/><path d="M382.21 90.89c-.64.89-1.27 1.79-1.91 2.69l-2-4m3.91 6.53c-.64.89-1.27 1.79-1.91 2.69l-2-4" stroke="#b6b7b0"/><path d="M386.07 97.48l-1.91 2.67-2-4m7.76 2.74l-1.9 2.65-1.95-4.06m-7.73-2.71l-1.92 2.72c-.65-1.34-1.3-2.67-2-4m3.92 6.51l-1.92 2.72c-.65-1.34-1.3-2.68-2-4" stroke="#b6b7b0"/><path d="M374.46 98.68l-1.92 2.73c-.66-1.33-1.31-2.66-2-4m3.92 6.2l-1.92 2.73-2-4m11.65 9.28l-1.91 2.7c-.65-1.35-1.31-2.69-2-4m-3.84 4l-1.92 2.73c-.66-1.33-1.31-2.66-2-4m11.67 3.89l-1.91 2.7-2-4m7.79 2.68l-1.91 2.68-2-4M130.77 83.47c-.65 1.31-1.3 2.61-1.94 3.92l-2-2.78m3.94 4.09c-.65 1.3-1.3 2.6-1.94 3.91l-2-2.78m3.94 4.06c-.65 1.31-1.3 2.61-1.94 3.92l-2-2.78" stroke="#b6b7b0"/><path d="M126.85 95l-1.93 4-2-2.76m.02-.04c-.64 1.32-1.28 2.64-1.93 4m13.68-7.4c-.65 1.29-1.29 2.59-1.94 3.89l-2-2.8m3.94 3.83l-1.94 3.9-2-2.8m7.89 3.07c-.64 1.29-1.29 2.58-1.94 3.88-.66-1-1.33-1.89-2-2.82m-7.85-2.95l-1.93 3.93-2-2.76m.02 5.36c-.64 1.32-1.28 2.63-1.93 4-.65-.91-1.31-1.82-2-2.74" stroke="#b6b7b0"/><path d="M119.05 107.74c-.65 1.33-1.29 2.65-1.93 4l-2-2.72" stroke="#b6b7b0"/><path d="M115.16 109l-1.92 4-2-2.7" stroke="#b6b7b0"/><path d="M111.28 110.29l-1.92 4-2-2.68m7.8-8.01l-1.92 4-2-2.7" stroke="#b6b7b0"/><path d="M111.28 104.89l-1.92 4-2-2.68" stroke="#b6b7b0"/><path d="M107.41 106.22c-.64 1.35-1.28 2.69-1.91 4l-2-2.66m50.93-14.73c-.66 1.26-1.31 2.53-2 3.8l-2-2.9" stroke="#b6b7b0"/><path d="M150.47 93.73c-.66 1.27-1.31 2.54-2 3.82l-2-2.88" stroke="#b6b7b0"/><path d="M146.51 94.67l-1.95 3.84-2-2.86m7.91 3.47l-2 3.82-2-2.88" stroke="#b6b7b0"/><path d="M146.51 100.06l-1.95 3.84-2-2.86m0-.04l-1.95 3.86-2-2.84m7.9 3.37l-1.95 3.84-2-2.86m0 0l-1.95 3.85c-.66-.94-1.32-1.89-2-2.83m3.97 4.34l-2 3.86-2-2.84" stroke="#b6b7b0"/><path d="M138.64 112.75c-.64 1.29-1.29 2.59-1.94 3.88l-2-2.82m-.01.01c-.65 1.29-1.29 2.59-1.94 3.89l-2-2.8" stroke="#b6b7b0"/><path d="M130.77 114.91c-.65 1.31-1.3 2.61-1.94 3.92l-2-2.78" stroke="#b6b7b0"/><path d="M126.85 116.05c-.64 1.31-1.29 2.62-1.93 3.94q-1-1.39-2-2.76m15.72.9c-.64 1.29-1.29 2.58-1.94 3.87l-2-2.82m-.01.01l-1.94 3.9-2-2.8m3.94 4.16l-1.94 3.9-2-2.8" stroke="#b6b7b0"/><path d="M130.77 120.29c-.65 1.3-1.3 2.61-1.94 3.91l-2-2.78m3.94 4.13c-.65 1.3-1.3 2.61-1.94 3.92l-2-2.78" stroke="#b6b7b0"/><path d="M126.85 126.69l-1.93 3.93-2-2.76m3.93-6.44l-1.93 3.94-2-2.76" stroke="#b6b7b0"/><path d="M122.94 122.6c-.64 1.32-1.28 2.63-1.93 4l-2-2.74m3.93-6.63c-.64 1.31-1.28 2.63-1.93 4-.65-.92-1.31-1.83-2-2.74" stroke="#b6b7b0"/><path d="M119.05 118.44c-.65 1.32-1.29 2.65-1.93 4l-2-2.72m3.93-6.65c-.65 1.32-1.29 2.64-1.93 4l-2-2.72" stroke="#b6b7b0"/><path d="M115.16 114.32l-1.92 4-2-2.7m25.44-20.01l-2-2.81m-7.83-8.19c-.64 1.31-1.29 2.62-1.93 3.94l-2-2.76" stroke="#b6b7b0"/><path d="M122.94 85.79c-.64 1.31-1.28 2.63-1.93 3.95-.65-.92-1.31-1.83-2-2.74" stroke="#b6b7b0"/><path d="M119.05 87c-.65 1.32-1.29 2.65-1.93 4l-2-2.72" stroke="#b6b7b0"/><path d="M115.16 88.25l-1.92 4-2-2.7m3.92 3.92l-1.92 4-2-2.7" stroke="#b6b7b0"/><path d="M111.28 94.77l-1.92 4-2-2.68m3.92 3.91l-1.92 4-2-2.68" stroke="#b6b7b0"/><path d="M107.41 96.1l-1.91 4-2-2.66m50.93-14.74l-2 3.8c-.67-1-1.34-1.93-2-2.9" stroke="#b6b7b0"/><path d="M150.47 83.6c-.66 1.27-1.31 2.55-2 3.82l-2-2.88m4 4.26c-.66 1.27-1.31 2.54-2 3.82l-2-2.88" stroke="#b6b7b0"/><path d="M146.51 84.54l-1.95 3.84-2-2.86m3.95-6.2l-1.95 3.84-2-2.86m0 0l-1.95 3.86c-.66-1-1.32-1.9-2-2.84" stroke="#b6b7b0"/><path d="M138.62 81.32c-.65 1.29-1.29 2.58-1.94 3.88l-2-2.82" stroke="#b6b7b0"/><path d="M134.69 82.38l-1.94 3.89-2-2.8m-72.64 70.37l1.89 2.45q.93-2.14 1.88-4.29m-7.47 3.73l1.83 2.42c.62-1.44 1.25-2.87 1.87-4.31m-7.39 3.81c.61.79 1.22 1.6 1.83 2.4l1.86-4.32M69.3 137.8l1.85 2.5q1-2.12 1.9-4.22m0 0l1.86 2.52c.64-1.41 1.27-2.81 1.91-4.21m-7.52 8.78l1.85 2.51q1-2.12 1.9-4.23m0 0l1.86 2.55 1.91-4.2m7.59 7.2l1.88 2.58 1.93-4.14m-7.62 3.13c.62.85 1.25 1.7 1.87 2.56l1.92-4.13M60 151c.62-1.43 1.25-2.85 1.88-4.28" stroke="#b6b7b0"/><path d="M61.83 146.74l1.84 2.46 1.89-4.26m0 0l1.84 2.48c.63-1.42 1.27-2.83 1.9-4.25m7.52-8.78l1.87 2.54c.63-1.39 1.27-2.79 1.91-4.18M60 145.65q.93-2.15 1.88-4.28" stroke="#b6b7b0"/><path d="M61.83 141.37l1.84 2.46 1.89-4.27m0 0l1.84 2.49c.63-1.42 1.27-2.84 1.9-4.25m-3.74-29.67l1.84 2.48c.63-1.42 1.27-2.83 1.9-4.25" stroke="#b6b7b0"/><path d="M69.3 106.36l1.85 2.5c.64-1.41 1.27-2.81 1.9-4.22m-3.75 6.94l1.85 2.5c.64-1.41 1.27-2.81 1.9-4.22" stroke="#b6b7b0"/><path d="M65.56 113.35l1.84 2.48c.63-1.42 1.27-2.83 1.9-4.25m-7.47 3.57l1.84 2.46 1.89-4.26m7.49-3.49l1.86 2.52c.64-1.4 1.27-2.81 1.91-4.21m-3.77 6.89l1.86 2.52c.64-1.41 1.27-2.81 1.91-4.21m0 0l1.87 2.54q.94-2.1 1.91-4.18m-3.78 6.57l1.87 2.54c.63-1.4 1.27-2.79 1.91-4.19m0 5.4l1.87 2.56 1.92-4.16m-15.09 6.66l1.85 2.5q1-2.12 1.9-4.23m3.79 3.62l1.87 2.54c.64-1.4 1.27-2.79 1.91-4.18m-15.06 6.83l1.84 2.48 1.9-4.24m.02-.01l1.85 2.5q1-2.11 1.9-4.22m34.34 2.3c-.64 1.35-1.28 2.69-1.91 4l-2-2.66" stroke="#b6b7b0"/><path d="M111.28 131.62l-1.92 4-2-2.68" stroke="#b6b7b0"/><path d="M115.16 130.33l-1.92 4-2-2.7m-15.38-5.08L94 130.64c-.65-.87-1.29-1.74-1.94-2.6M92 128l-1.89 4.11q-1-1.31-1.92-2.58m7.67 2.39L94 136l-2-2.59m0 0l-1.89 4.11-1.92-2.58m17.31-3.22l-2-2.66m.05 0l-1.91 4.05-1.94-2.64m0 0c-.63 1.36-1.27 2.72-1.9 4.07l-1.94-2.62" stroke="#b6b7b0"/><path d="M88.22 129.57l-1.89 4.12-1.92-2.56m21.09-4.78l-2-2.66m.05 0l-1.91 4-1.94-2.59m0 0c-.63 1.35-1.27 2.71-1.9 4.07l-1.94-2.62m3.84-32.89c-.63 1.36-1.27 2.71-1.9 4.07l-1.94-2.62m0 0L94 99.2c-.65-.87-1.29-1.74-1.94-2.6m3.8 3.73L94 104.42c-.65-.87-1.29-1.74-1.94-2.6m7.64-2.94c-.63 1.36-1.27 2.71-1.9 4.07l-1.94-2.62m7.69-2.86l-1.91 4-1.94-2.59m-7.7 2.94l-1.89 4.11-1.92-2.58M92 107l-1.89 4.11-1.92-2.59" stroke="#b6b7b0"/><path d="M88.22 108.54l-1.89 4.13-1.92-2.56m3.81 3.36l-1.89 4.13-1.92-2.6m11.43.86L94 120l-2-2.65m-3.8 6.85l-1.89 4.13-1.92-2.56m11.45-4.59L94 125.27l-2-2.6m7.7-2.94c-.63 1.35-1.27 2.71-1.9 4.07l-1.94-2.62m54.63-.73l2 2.91c.66-1.27 1.33-2.54 2-3.81" stroke="#b6b7b0"/><path d="M146.53 121.39l2 2.89c.66-1.28 1.33-2.55 2-3.83" stroke="#b6b7b0"/><path d="M142.58 122.37l2 2.87 2-3.85m15.81-14.16l2 3q1-1.89 2-3.75m-.02-.03l2 3 2-3.73m-7.98 6.88l2 3 2-3.75" stroke="#b6b7b0"/><path d="M166.37 111.82c.66 1 1.32 2 2 3 .67-1.25 1.35-2.49 2-3.73m8 9.06l2 3 2-3.67m-8.02 1.34l2 3c.67-1.23 1.34-2.46 2-3.69m-25.9-2.03c.66-1.27 1.33-2.54 2-3.81m0 0l2 2.93 2-3.79" stroke="#b6b7b0"/><path d="M158.42 113.43l2 2.94 2-3.77m7.94-6.9l2 3 2-3.71m-21.91 7.73c.66-1.27 1.33-2.54 2-3.81m0 0l2 2.93 2-3.79" stroke="#b6b7b0"/><path d="M158.42 108.05l2 3 2-3.77m-4-30.67l2 3 2-3.77m-.03-.05l2 3 2-3.75m-4 5.96l2 3 2-3.75m-7.97 1.58l2 3 2-3.77" stroke="#b6b7b0"/><path d="M154.45 82.7l2 2.92 2-3.79m7.92-1.6l2 3c.67-1.24 1.35-2.48 2-3.73m-4 5.93c.66 1 1.32 2 2 3l2-3.73m-.01-.02l2 3 2-3.71m-4 5.64l2 3 2-3.71m-.01 5.4l2 3c.67-1.24 1.34-2.47 2-3.69m-15.96 2.92l2 3 2-3.75m3.99 4.54l2 3 2-3.71m-15.96 3.07c.65 1 1.31 2 2 2.95l2-3.77" stroke="#b6b7b0"/><path d="M162.41 101.85c.66 1 1.32 2 2 3l2-3.75m36.03 10.69c-.66 1.19-1.32 2.38-2 3.57-.67-1-1.35-2.09-2-3.14m8.03-.82c-.67 1.18-1.33 2.36-2 3.55l-2-3.16m8.02-.74l-2 3.53-2-3.18m-16.1-8.83l-2 3.62-2-3.08m-.01 0l-2 3.65-2-3.06m8.01 4.24l-2 3.62-2-3.07m-.01 0l-2 3.64-2-3.06m18.07 1.03c-.67-1-1.35-2.1-2-3.14m-.03.04l-2 3.59c-.67-1-1.35-2.08-2-3.12m-.02-.04l-2 3.6c-.68-1-1.36-2.06-2-3.09m-8.03-4.24l-2 3.66-2-3m22.08.36l-2-3.13m-.03 0c-.66 1.19-1.32 2.39-2 3.58-.67-1-1.35-2.08-2-3.11m-.02 0l-2 3.6c-.68-1-1.36-2.06-2-3.09m4-31.95l-2 3.6c-.68-1-1.36-2.06-2-3.09m-.01 0l-2 3.62-2-3.08m4 4.68l-2 3.62-2-3.08m8.01-1.05l-2 3.6c-.68-1-1.36-2.06-2-3.09m8.02-.98c-.66 1.19-1.32 2.39-2 3.58-.67-1-1.35-2.08-2-3.11m-8.04 1.05l-2 3.65-2-3.06m4 4.61l-2 3.65-2-3.06m-.01 0l-2 3.66-2-3m4 4.27l-2 3.66-2-3m12 3.6c-.67 1.21-1.33 2.42-2 3.63l-2-3.08m-4.02 5.91l-2 3.66-2-3m12.02-1.8c-.67 1.21-1.33 2.42-2 3.63l-2-3.08m8.03-1.06l-2 3.61-2-3.1m36.23 65.14l-2-3.27-2 3.46m4-5.41l-2-3.27-2 3.46m4-5.39l-2-3.27-2 3.47m-.04 0c-.66-1.09-1.33-2.17-2-3.25-.67 1.16-1.35 2.32-2 3.48m-.03 0l-2-3.23m14.1 2.64l-2-3.28-2 3.44m4-5.08l-2-3.29-2 3.44m8.06-5.5l-2-3.31-2 3.43m-8.13 5.58c-.66-1.09-1.33-2.17-2-3.25-.67 1.16-1.35 2.32-2 3.48m-.03-5.41c-.67-1.08-1.33-2.16-2-3.23l-2 3.5m-.04.02c-.66-1.07-1.32-2.14-2-3.21l-2 3.52m-.03 0c-.66-1.06-1.32-2.13-2-3.19l-2 3.55m-.02.04l-2-3.17-2 3.56m8.02 4.61c-.66-1.06-1.32-2.13-2-3.19l-2 3.54m-.02 0c-.67-1-1.33-2.11-2-3.17l-2 3.56m-.03 0c-.66-1.05-1.32-2.1-2-3.15-.67 1.2-1.35 2.39-2 3.59m52.42-2.55c-.67-1.13-1.33-2.26-2-3.38l-2 3.34m-.04 0l-2-3.36-2 3.36m-.04 0l-2-3.34-2 3.38m8.04-5.44l-2-3.36-2 3.36m-.04 0l-2-3.34-2 3.38m-.04 0c-.67-1.11-1.33-2.22-2-3.32l-2 3.4m8.04-5.44l-2-3.34-2 3.38m-.04 0c-.67-1.11-1.33-2.22-2-3.32l-2 3.4m4.02-5.45c-.66-1.11-1.33-2.22-2-3.33l-2 3.4m-.04 0l-2-3.3-2 3.42m-.06 0l-2-3.28-2 3.44m-.03 0l-2-3.27-2 3.47m-.04 0c-.66-1.09-1.33-2.17-2-3.25-.67 1.16-1.35 2.32-2 3.48m16.13-6.08l-2-3.3-2 3.42m-.06 0l-2-3.29-2 3.45m4-5.42l-2-3.29-2 3.44m-.03 5.27l-2-3.27-2 3.46m4-5.46c-.67-1.09-1.33-2.18-2-3.26l-2 3.46m-.04 0c-.66-1.09-1.33-2.17-2-3.25-.67 1.16-1.35 2.32-2 3.48m4 5.03l-2-3.25-2 3.49m-.03.05c-.67-1.08-1.33-2.16-2-3.23l-2 3.5m4 5.05l-2-3.23-2 3.5m-.04 0c-.66-1.07-1.32-2.14-2-3.2l-2 3.52m4 5.09c-.66-1.07-1.32-2.14-2-3.21l-2 3.52m-.03-.03c-.66-1.06-1.32-2.13-2-3.19l-2 3.54m26.21 10.7l-2 3.42m-8.11 10.77c-.66-1.08-1.33-2.16-2-3.24l-2 3.48m-.03 0l-2-3.23-2 3.5m-.04-.03c-.66-1.07-1.32-2.14-2-3.21l-2 3.53m-.03.03c-.66-1.07-1.32-2.13-2-3.19l-2 3.54m4-5.57c-.66-1.07-1.32-2.13-2-3.19l-2 3.54m-.02 0l-2-3.17-2 3.56m4-5.59l-2-3.17-2 3.56m-.03 5.2c-.66-1.05-1.32-2.1-2-3.15l-2 3.58m52.42-2.54l-2-3.39-2 3.35m-.04 0l-2-3.37-2 3.37m4-5.2l-2-3.36c-.68 1.11-1.36 2.24-2 3.36m-.04 5.2l-2-3.35-2 3.39m4 5.18c-.67-1.12-1.33-2.24-2-3.35l-2 3.39m-.04.02l-2-3.33-2 3.4m-.04-.02c-.66-1.1-1.33-2.2-2-3.3l-2 3.42m-.04 0c-.66-1.1-1.33-2.19-2-3.28l-2 3.44m96.57 7.05l-2-3.73-2 3m4-4.49l-2-3.73-2 3m4-4.43l-2-3.73-2 3m.01-.05l-2-3.71-2 3m.01 0l-2-3.69" stroke="#b6b7b0"/><path d="M327.21 159.75c-.66-1.25-1.32-2.5-2-3.75l-2 3m4-4.18c-.66-1.25-1.32-2.5-2-3.75l-2 3m7.99-3.65l-2-3.77-2 2.94m-7.96 3.7c-.66-1.24-1.32-2.47-2-3.71-.68 1-1.35 2-2 3m.01-5.39c-.66-1.23-1.32-2.47-2-3.69l-2 3m0 .02l-2-3.67-2 3.05m0 0l-2-3.66-2 3.07m-.01 0l-2-3.64-2 3.09m8.01 6.53l-2-3.65-2 3.07m-.01 0l-2-3.64-2 3.09m-.01 0l-2-3.62c-.68 1-1.36 2.07-2 3.11m51.77 9.67l-1.95-3.84-2 2.86" stroke="#b6b7b0"/><path d="M343.07 158.34c-.66-1.27-1.31-2.55-2-3.82l-2 2.88" stroke="#b6b7b0"/><path d="M339.11 157.4c-.65-1.27-1.3-2.54-2-3.8-.67 1-1.33 1.93-2 2.9m7.96-3.5l-2-3.83-2 2.89m.04-.06c-.65-1.27-1.3-2.54-2-3.81l-2 2.91" stroke="#b6b7b0"/><path d="M335.15 151.11c-.65-1.27-1.31-2.53-2-3.79l-2 2.92m7.96-3.55c-.65-1.28-1.3-2.55-2-3.81-.67 1-1.33 1.93-2 2.9" stroke="#b6b7b0"/><path d="M335.15 145.78c-.65-1.26-1.31-2.52-2-3.79l-2 2.93m4.02-4.5c-.65-1.27-1.31-2.53-2-3.79l-2 2.92" stroke="#b6b7b0"/><path d="M331.2 139.55l-2-3.77-2 2.95" stroke="#b6b7b0"/><path d="M327.21 138.73l-2-3.75-2 3m.02-.04l-2-3.73-2 3" stroke="#b6b7b0"/><path d="M319.24 137.2l-2-3.71-2 3m15.96-2.31l-2-3.77-2 3m.01-.06c-.66-1.25-1.32-2.5-2-3.75l-2 3m4-4.51c-.66-1.25-1.32-2.5-2-3.75l-2 3" stroke="#b6b7b0"/><path d="M323.23 132.57l-2-3.73-2 3m4-4.53l-2-3.74-2 3" stroke="#b6b7b0"/><path d="M319.24 126.56c-.66-1.24-1.32-2.47-2-3.71-.68 1-1.35 2-2 3m4 5.97c-.66-1.23-1.32-2.47-2-3.71-.68 1-1.35 2-2 3" stroke="#b6b7b0"/><path d="M315.25 131.12l-2-3.69-2 3m4 6.06l-2-3.69-2 3m0 .03l-2-3.68-2 3m4 6.05l-2-3.67-2 3m0 .04l-2-3.65-2 3.07m25.97 16.81l-2 2.95m-7.98 8.89l-2-3.71-2 3" stroke="#b6b7b0"/><path d="M315.25 167.93l-2-3.69-2 3m0 .03l-2-3.68-2 3m0 .05l-2-3.65-2 3.06m4-4.63l-2-3.65-2 3.06m-.01 0l-2-3.63c-.68 1-1.35 2.05-2 3.08m4-4.65l-2-3.63-2 3.09m-.01 5.19l-2-3.61-2 3.1m51.77 9.68l-1.95-3.85-2 2.87" stroke="#b6b7b0"/><path d="M343.07 168.47l-2-3.83-2 2.89m4-4.26c-.66-1.27-1.31-2.55-2-3.83l-2 2.89" stroke="#b6b7b0"/><path d="M339.11 167.53c-.65-1.27-1.3-2.54-2-3.81l-2 2.91m4 6.12c-.65-1.27-1.3-2.54-2-3.81l-2 2.91" stroke="#b6b7b0"/><path d="M335.15 171.85l-2-3.79-2 2.93" stroke="#b6b7b0"/><path d="M331.18 171l-2-3.77-2 2.95" stroke="#b6b7b0"/><path d="M327.21 170.17l-2-3.76-2 3M416.55 199q-.93-2.1-1.87-4.19l-1.9 2.51m3.77-3.53q-.93-2.1-1.87-4.19l-1.9 2.51m3.77-3.52c-.62-1.4-1.24-2.79-1.87-4.19l-1.9 2.51m0 0l-1.87-4.18-1.91 2.53m0 0c-.63-1.38-1.25-2.77-1.88-4.15m13.18 9.21c-.62-1.41-1.24-2.81-1.85-4.22l-1.9 2.49m3.75-3.2q-.93-2.12-1.85-4.21c-.64.82-1.27 1.66-1.9 2.49m7.51-1.74q-.92-2.12-1.85-4.23l-1.89 2.47m-7.54 1.83c-.62-1.39-1.25-2.78-1.87-4.18l-1.91 2.52m0-5.4l-1.88-4.16-1.91 2.55m0 0l-1.88-4.14-1.93 2.58m0 0c-.63-1.38-1.26-2.75-1.88-4.12-.65.86-1.29 1.72-1.93 2.59m0 0c-.63-1.37-1.27-2.74-1.9-4.1l-1.93 2.61m7.64 8.41l-1.88-4.12-1.93 2.6m0 0c-.63-1.37-1.27-2.74-1.9-4.1-.64.86-1.29 1.73-1.93 2.61m0 0c-.63-1.37-1.27-2.73-1.9-4.08-.65.87-1.29 1.75-1.94 2.63m48.95 21.9q-.9-2.16-1.82-4.32l-1.86 2.4m0 0l-1.83-4.3-1.87 2.42m0 0c-.62-1.43-1.23-2.85-1.84-4.28l-1.88 2.48m7.42-1.72l-1.83-4.28c-.63.8-1.25 1.6-1.87 2.41m0-.01l-1.84-4.27-1.88 2.43m0 0l-1.84-4.26-1.93 2.46m7.49-1.68c-.62-1.43-1.23-2.85-1.84-4.28l-1.88 2.44m0 0l-1.84-4.24-1.93 2.43m3.79-3.56c-.61-1.42-1.23-2.84-1.84-4.25l-1.89 2.45m0 0q-.92-2.12-1.85-4.23l-1.89 2.47m-.02-.01c-.62-1.41-1.24-2.81-1.85-4.22l-1.9 2.49m0 0c-.62-1.4-1.24-2.79-1.87-4.19l-1.9 2.51m0 0c-.62-1.4-1.25-2.79-1.87-4.18l-1.91 2.53m15.06 1.46q-.92-2.13-1.85-4.24l-1.89 2.47m-.02-.01c-.62-1.4-1.24-2.81-1.85-4.21l-1.9 2.49m3.75-3.54q-.93-2.11-1.85-4.21c-.64.82-1.27 1.65-1.9 2.49m0 5.26q-.93-2.1-1.87-4.2l-1.9 2.52m3.77-3.58q-.93-2.1-1.87-4.2l-1.9 2.51m0 0c-.62-1.39-1.25-2.78-1.87-4.18l-1.91 2.54m3.78 6.91c-.62-1.4-1.25-2.79-1.87-4.18l-1.91 2.53M409 158.87l-1.88-4.16-1.91 2.55m3.79 6.98c-.63-1.38-1.25-2.77-1.88-4.15l-1.91 2.55m0 0l-1.88-4.14c-.65.85-1.29 1.71-1.93 2.57m3.81 6.93l-1.88-4.14-1.93 2.57m0 .01l-1.88-4.12-1.93 2.6m24.6 22.93l-1.89 2.47m-7.52 7.01c-.62-1.4-1.25-2.79-1.87-4.18l-1.91 2.53M409 195.68c-.63-1.38-1.25-2.77-1.88-4.16l-1.91 2.56m0 0l-1.88-4.14c-.65.85-1.29 1.71-1.93 2.57m0 0q-.94-2.07-1.88-4.12c-.65.86-1.29 1.73-1.93 2.59m3.81-3.69q-.94-2.07-1.88-4.12c-.65.86-1.29 1.73-1.93 2.59m0 0c-.63-1.37-1.27-2.73-1.9-4.1l-1.93 2.61m3.83-3.71c-.63-1.36-1.27-2.73-1.9-4.1l-1.93 2.61m0 5.2l-1.9-4.08-1.94 2.63m48.95 21.9c-.6-1.44-1.21-2.87-1.82-4.31l-1.86 2.39m0 0l-1.83-4.29c-.63.8-1.25 1.61-1.87 2.41m3.7-3.31l-1.83-4.3c-.63.8-1.25 1.61-1.87 2.42m0 5.19c-.62-1.42-1.23-2.85-1.84-4.27l-1.88 2.43m3.72 7.06c-.62-1.42-1.23-2.85-1.84-4.27l-1.88 2.43m0 0c-.61-1.42-1.23-2.84-1.84-4.25L424 202.5m0 0c-.61-1.41-1.23-2.83-1.85-4.24l-1.89 2.48" stroke="#b6b7b0"/><path d="M420.3 200.74l-1.85-4.22-1.9 2.49m-169.73-79.15c.66-1.12 1.33-2.23 2-3.34l2 3.38m-8.04-.04l2-3.36 2 3.36m-8.04.04c.67-1.13 1.33-2.26 2-3.38l2 3.34m16.19 10.87l2-3.28 2 3.44m.07 0l2-3.27 2 3.47m-8.07-5.73c.67-1.1 1.34-2.19 2-3.29l2 3.45m.07 0l2-3.27 2 3.46m-18.18-3.93l2 3.38m.04 0c.66-1.11 1.33-2.21 2-3.32l2 3.4m.04 0l2-3.3 2 3.42m8.1 5.73c.66-1.09 1.33-2.17 2-3.25l2 3.48m-22.18-4.17l2 3.39m.04 0c.66-1.11 1.33-2.22 2-3.33l2 3.41m.04 0c.66-1.11 1.33-2.21 2-3.31l2 3.42m-4 31.32l2-3.3 2 3.42m.03 0l2-3.28 2 3.44m-4-5.33l2-3.28 2 3.44m-8.03-.33l2-3.3 2 3.42m-8.04-.19c.66-1.12 1.33-2.22 2-3.33l2 3.4m8.14.28l2-3.27 2 3.46m-4-5.39l2-3.27 2 3.47m0 0c.66-1.09 1.33-2.17 2-3.25l2 3.48m-4-5.16c.66-1.09 1.33-2.17 2-3.25l2 3.48m0-5.41c.67-1.08 1.33-2.16 2-3.23.68 1.16 1.35 2.33 2 3.5m-16.07-.84c.67-1.1 1.34-2.19 2-3.29l2 3.44m4.07-5.12l2-3.25 2 3.49m-16.1-.7l2-3.31 2 3.43m.1-.01l2-3.29 2 3.44m36.23-12.83l-2-3.62c-.68 1-1.36 2.07-2 3.11m8.01 1.08l-2-3.64-2 3.09m8.01 1.11l-2-3.65-2 3.07m-16.07 8.67c-.67-1.18-1.33-2.37-2-3.55l-2 3.16m-.03 0c-.66-1.18-1.32-2.36-2-3.54l-2 3.19m8.03-4.63l-2-3.56-2 3.17m-.03 0c-.66-1.18-1.32-2.36-2-3.54-.68 1.06-1.36 2.12-2 3.19m18.1-1.46l-2 3.1m-.03 0l-2-3.59-2 3.12m-.02 0c-.66-1.19-1.33-2.38-2-3.58l-2 3.15m-8.07 4.63l-2-3.52c-.68 1.07-1.36 2.14-2 3.21m22.12-1.15c-.68 1-1.36 2.07-2 3.11m-.03 0c-.66-1.21-1.33-2.4-2-3.6l-2 3.13m-.02 0c-.66-1.2-1.33-2.39-2-3.58l-2 3.14m4 31.87l-2-3.57c-.68 1-1.35 2.09-2 3.14m-.02 0c-.67-1.18-1.33-2.37-2-3.55l-2 3.16m4-4.83c-.67-1.18-1.33-2.37-2-3.55l-2 3.16m8.02.82l-2-3.57c-.68 1-1.35 2.09-2 3.14m8.02.9l-2-3.59-2 3.12m-8.07-.82c-.66-1.18-1.32-2.36-2-3.54l-2 3.19m4-4.85c-.66-1.18-1.32-2.36-2-3.53-.68 1.06-1.36 2.12-2 3.18m-.02 0l-2-3.52c-.68 1.07-1.36 2.14-2 3.21m4-4.62l-2-3.52c-.68 1.07-1.36 2.14-2 3.21m12.03-4.34l-2-3.56-2 3.17m-4.06-5.68c-.66-1.17-1.32-2.35-2-3.52l-2 3.21m12.06 1.03l-2-3.56-2 3.16m8.04.86c-.66-1.2-1.33-2.39-2-3.58l-2 3.15m55.89-6.41l2-2.88 2 3.86" stroke="#b6b7b0"/><path d="M339.13 130.68l2-2.9 2 3.84" stroke="#b6b7b0"/><path d="M335.17 129.78c.65-1 1.31-2 2-2.92l2 3.82m15.74 14.63l1.94-2.82 2 3.92" stroke="#b6b7b0"/><path d="M358.83 146.41l1.94-2.8 2 3.94m-7.86-7.61l1.94-2.82 2 3.92m-.02-.04l1.94-2.8 2 3.93M345 134c.67 1.28 1.33 2.57 2 3.85m0 .01l2-2.86c.67 1.29 1.33 2.59 2 3.88" stroke="#b6b7b0"/><path d="M351 138.88l1.95-2.84 2 3.9m7.8 7.61l1.93-2.79 2 4M345 139.38c.67 1.28 1.33 2.57 2 3.86m0 0l2-2.86c.67 1.29 1.33 2.58 2 3.88m0 0l1.95-2.84 2 3.89M351 175.69l1.95-2.84 2 3.9" stroke="#b6b7b0"/><path d="M354.91 176.75l1.94-2.82 2 3.92m-3.94-6.32l1.94-2.82 2 3.92" stroke="#b6b7b0"/><path d="M351 170.47l1.95-2.84 2 3.9m-7.95-2.07l2-2.86c.67 1.29 1.33 2.58 2 3.87m7.83 2.16l1.94-2.8 2 3.94m-3.94-6.34l1.94-2.8 2 3.94" stroke="#b6b7b0"/><path d="M362.75 168.57l1.93-2.78c.66 1.31 1.32 2.63 2 4m-3.93-6.15l1.93-2.78c.66 1.32 1.32 2.63 2 3.95m-.03-5.39l1.93-2.77c.66 1.33 1.32 2.65 2 4M354.91 156l1.94-2.82 2 3.92m3.92-4.17l1.93-2.79 2 4m-15.7-4.51l1.95-2.84 2 3.9" stroke="#b6b7b0"/><path d="M354.93 150.69l1.94-2.82 2 3.92m34.89-4.37l-1.9-4.08c-.65.87-1.29 1.75-1.94 2.63m7.67 2.94c-.63-1.37-1.27-2.74-1.9-4.1l-1.93 2.61m7.64 3.01l-1.88-4.12-1.93 2.6m-15.38 4.91l-1.91-4-2 2.69" stroke="#b6b7b0"/><path d="M378.34 152.49l-1.92-4-2 2.71m7.79-2.75l-1.91-4-2 2.69" stroke="#b6b7b0"/><path d="M378.34 147.12l-1.92-4c-.65.91-1.3 1.81-2 2.71m17.44 2.77c-.65.87-1.29 1.75-1.94 2.63m0 0l-1.9-4.06-1.95 2.65m0 0c-.63-1.35-1.27-2.7-1.91-4l-2 2.67m-7.7 2.71l-1.92-4-2 2.73m21.32 4.07c-.65.88-1.29 1.76-1.94 2.63m0-.03l-1.9-4.06-1.95 2.65m0 0c-.63-1.35-1.27-2.69-1.91-4l-2 2.67m3.91 32.77c-.63-1.35-1.27-2.69-1.91-4l-2 2.67" stroke="#b6b7b0"/><path d="M382.21 185.26l-1.91-4-2 2.69m3.91-3.95l-1.91-4-2 2.69m7.77 2.72c-.63-1.35-1.27-2.69-1.91-4l-2 2.67m7.76 2.74l-1.9-4.06-1.95 2.65" stroke="#b6b7b0"/><path d="M378.34 178.71l-1.92-4-2 2.71m3.92-3.91l-1.92-4-2 2.71" stroke="#b6b7b0"/><path d="M374.46 172.22l-1.92-4-2 2.73m3.92-3.66l-1.92-4c-.66.9-1.31 1.81-2 2.73m11.65-1.51l-1.91-4-2 2.69m-3.84-6.64l-1.92-4-2 2.73m11.67 3.9c-.64-1.34-1.27-2.69-1.91-4l-2 2.69m7.79 2.69c-.63-1.35-1.27-2.7-1.91-4l-2 2.68m-251.39 18.6l-1.94-2.8-2 3.94m3.94-6.36l-1.94-2.8-2 3.94m3.94-6.34l-1.94-2.8-2 3.94" stroke="#b6b7b0"/><path d="M126.85 168.57l-1.93-2.78-2 4m11.77-3.46l-1.94-2.82-2 3.92m3.94-6.02c-.65-.95-1.29-1.89-1.94-2.82l-2 3.91m7.89-7.39l-1.94-2.84-2 3.9m-7.85 7.47l-1.93-2.78-2 4m.02-5.44c-.64-.93-1.28-1.85-1.93-2.77-.65 1.33-1.31 2.65-2 4" stroke="#b6b7b0"/><path d="M119.05 160.63c-.65-.91-1.29-1.83-1.93-2.74l-2 4" stroke="#b6b7b0"/><path d="M115.16 161.88l-1.92-2.72c-.66 1.34-1.31 2.68-2 4" stroke="#b6b7b0"/><path d="M111.28 163.18l-1.92-2.71-2 4m7.8 2.81l-1.92-2.72c-.66 1.34-1.31 2.67-2 4" stroke="#b6b7b0"/><path d="M111.28 168.58l-1.92-2.71-2 4" stroke="#b6b7b0"/><path d="M107.41 169.91c-.64-.9-1.28-1.79-1.91-2.69l-2 4.06m50.93-14.77l-2-2.92c-.67 1.27-1.34 2.54-2 3.82" stroke="#b6b7b0"/><path d="M150.47 157.41l-2-2.9-2 3.84" stroke="#b6b7b0"/><path d="M146.51 158.35l-1.95-2.88-2 3.86m7.91-7.33l-2-2.9-2 3.84m.04.06l-1.95-2.88-2 3.86m0-.05l-1.95-2.86c-.66 1.29-1.32 2.59-2 3.88m7.9-7.32l-1.95-2.88-2 3.86m0 0l-1.95-2.86-2 3.88m3.97-6.4l-2-2.86c-.66 1.29-1.32 2.59-2 3.88" stroke="#b6b7b0"/><path d="M138.64 144.25c-.64-.95-1.29-1.9-1.94-2.84l-2 3.9m-.01 0l-1.94-2.82-2 3.92" stroke="#b6b7b0"/><path d="M130.77 146.41l-1.94-2.8-2 3.94" stroke="#b6b7b0"/><path d="M126.85 147.55l-1.93-2.79-2 4m15.72-9.88c-.64-.95-1.29-1.9-1.94-2.84l-2 3.89m-.01.01l-1.94-2.82-2 3.92m3.94-6.36c-.65-1-1.29-1.89-1.94-2.82l-2 3.91m.02 5.23l-1.94-2.8-2 3.93" stroke="#b6b7b0"/><path d="M130.77 135.77l-1.94-2.8-2 3.94" stroke="#b6b7b0"/><path d="M126.85 136.91l-1.93-2.78c-.66 1.32-1.32 2.63-2 4m3.93 4.04l-1.93-2.78-2 4" stroke="#b6b7b0"/><path d="M122.94 143.35c-.64-.92-1.28-1.85-1.93-2.76l-2 4m3.93 4.13L121 146c-.65 1.32-1.31 2.65-2 4" stroke="#b6b7b0"/><path d="M119.05 149.94l-1.93-2.75-2 4m3.93 4.12l-1.93-2.74-2 4" stroke="#b6b7b0"/><path d="M115.16 156.56l-1.92-2.72c-.66 1.34-1.31 2.67-2 4m25.44 4.6l-2 3.89M126.85 179l-1.93-2.79-2 4m.02-.05L121 177.4c-.65 1.32-1.31 2.65-2 4" stroke="#b6b7b0"/><path d="M119.05 181.38l-1.93-2.75-2 4" stroke="#b6b7b0"/><path d="M115.16 182.63l-1.92-2.73c-.66 1.34-1.31 2.68-2 4m3.92-6.49l-1.92-2.73c-.66 1.34-1.31 2.68-2 4" stroke="#b6b7b0"/><path d="M111.28 178.7l-1.92-2.7-2 4m3.92-6.5l-1.92-2.7-2 4" stroke="#b6b7b0"/><path d="M107.41 180l-1.91-2.68-2 4.05m50.93-14.74l-2-2.91c-.67 1.27-1.34 2.54-2 3.82" stroke="#b6b7b0"/><path d="M150.47 167.54l-2-2.9-2 3.84m4-6.14l-2-2.9-2 3.84" stroke="#b6b7b0"/><path d="M146.51 168.48q-1-1.46-1.95-2.88c-.67 1.28-1.33 2.57-2 3.86m3.95 4.24q-1-1.45-1.95-2.88c-.67 1.28-1.33 2.57-2 3.86m0 0l-1.95-2.86c-.66 1.29-1.32 2.58-2 3.87" stroke="#b6b7b0"/><path d="M138.62 175.69c-.65-.94-1.29-1.89-1.94-2.84l-2 3.9" stroke="#b6b7b0"/><path d="M134.69 176.75l-1.94-2.82-2 3.92m-72.64-13.78c.61-1.43 1.23-2.85 1.84-4.28l1.88 2.44M54.41 166l1.83-4.3 1.87 2.42m-7.39 3.75l1.83-4.32 1.86 2.4m14.89 3.35l1.85-4.22 1.9 2.49m0 0l1.86-4.19c.64.83 1.27 1.67 1.91 2.51m-7.52-1.97c.62-1.4 1.23-2.81 1.85-4.21l1.9 2.49m0 0l1.86-4.2 1.91 2.52M60 165.06l1.88 2.43m-.05 0q.91-2.13 1.84-4.26l1.89 2.46" stroke="#b6b7b0"/><path d="M65.56 165.69c.61-1.42 1.23-2.83 1.84-4.24l1.9 2.47m7.52 1.97c.62-1.39 1.24-2.79 1.87-4.18l1.91 2.53M60 170.43l1.88 2.43m-.05 0q.91-2.13 1.84-4.25l1.89 2.45m0 0l1.84-4.23c.63.82 1.27 1.64 1.9 2.47m-3.74 33.2l1.84-4.24 1.9 2.48" stroke="#b6b7b0"/><path d="M69.3 200.74c.62-1.41 1.23-2.82 1.85-4.22l1.9 2.49m-3.75-3.49c.62-1.41 1.23-2.82 1.85-4.22l1.9 2.49m-7.49 3.49L67.4 193l1.9 2.48m-7.47 3.6q.91-2.13 1.84-4.25l1.89 2.45m7.49-3.49l1.86-4.19c.64.83 1.27 1.67 1.91 2.51m-3.77-3.52l1.86-4.19c.64.83 1.27 1.67 1.91 2.51m0 0c.62-1.39 1.24-2.79 1.87-4.18.63.85 1.27 1.69 1.91 2.53M76.82 182l1.87-4.18c.63.85 1.27 1.69 1.91 2.54m0-5.42c.62-1.39 1.25-2.77 1.87-4.16l1.92 2.55M69.3 180c.62-1.4 1.23-2.81 1.85-4.21l1.9 2.49m3.79-7.03l1.87-4.17 1.91 2.53m-15.06 6.82l1.84-4.23 1.9 2.47m.02-.01c.62-1.4 1.23-2.81 1.85-4.21l1.9 2.49m34.34-29.76c-.64-.9-1.28-1.79-1.91-2.69l-2 4.06" stroke="#b6b7b0"/><path d="M111.28 141.85l-1.92-2.71-2 4" stroke="#b6b7b0"/><path d="M115.16 140.55l-1.92-2.72c-.66 1.34-1.31 2.68-2 4m-15.38 16.22L94 155.42l-2 4.11m0 0l-1.89-2.6-1.92 4.13m7.67-8.39L94 150c-.65 1.37-1.29 2.75-1.94 4.12m-.06.04l-1.89-2.61-1.92 4.14m17.31-9.93l-2 4.05m.05 0c-.64-.89-1.27-1.78-1.91-2.66-.65 1.35-1.29 2.71-1.94 4.07m0 0l-1.9-2.64c-.65 1.36-1.29 2.72-1.94 4.09" stroke="#b6b7b0"/><path d="M88.22 161.06l-1.89-2.59-1.92 4.16m21.09-11.5l-2 4.06m.05 0l-1.91-2.67-1.94 4.08m0 0c-.63-.89-1.27-1.77-1.9-2.65-.65 1.36-1.29 2.73-1.94 4.1M99.7 188l-1.9-2.64c-.65 1.36-1.29 2.73-1.94 4.09m0 .03L94 186.86 92 191m3.86-6.74L94 181.64l-2 4.11m7.7-2.93c-.63-.89-1.27-1.77-1.9-2.65-.65 1.36-1.29 2.73-1.94 4.09m7.69-2.86l-1.91-2.66-1.94 4.08m-7.7 2.93l-1.89-2.61-1.92 4.14m3.81-6.72L90.14 178l-1.92 4.13m0-.05l-1.89-2.59-1.92 4.16m3.81-6.49l-1.89-2.59-1.92 4.15m11.43-9.97L94 166.12c-.65 1.37-1.29 2.74-1.94 4.12m-3.86-3.8l-1.89-2.59-1.92 4.15m11.45-4.57L94 160.8c-.65 1.37-1.29 2.74-1.94 4.12M99.7 162l-1.9-2.65-1.94 4.1m54.63-32.77c.65-1.28 1.3-2.55 2-3.81l2 2.9" stroke="#b6b7b0"/><path d="M146.53 131.62l2-3.83 2 2.89" stroke="#b6b7b0"/><path d="M142.58 132.59l2-3.84 2 2.87m15.81 7.11c.66-1.26 1.31-2.51 2-3.75l2 3m-.02-.04l2-3.73 2 3m-7.98-3.86l2-3.75 2 3m-.02-.03l2-3.73 2 3m-17.92.29l2 2.91m0-.04c.65-1.27 1.31-2.53 2-3.79l2 2.93" stroke="#b6b7b0"/><path d="M158.42 134.18l2-3.77 2 2.94m7.94 3.85c.66-1.24 1.31-2.48 2-3.71l2 3m-21.91 1.01l2 2.91m0 0l2-3.79 2 2.93" stroke="#b6b7b0"/><path d="M158.42 139.55l2-3.77 2 2.95m-4 32.27l2-3.77 2 2.95" stroke="#b6b7b0"/><path d="M162.39 170.17l2-3.76 2 3m-4-4.41l2-3.76 2 3" stroke="#b6b7b0"/><path d="M158.42 165.77l2-3.77 2 2.95" stroke="#b6b7b0"/><path d="M154.45 166.63l2-3.79 2 2.93m7.92-1.61l2-3.73 2 3m-4-4.43l2-3.73 2 3m-.01-.05c.66-1.24 1.31-2.48 2-3.71l2 3m-4-4.22l2-3.71c.67 1 1.35 2 2 3m-.01-5.39l2-3.69 2 3m-15.96 2.92l2-3.75 2 3m3.99-6.1l2-3.71 2 3m-15.96 3.06l2-3.77 2 2.95" stroke="#b6b7b0"/><path d="M162.41 144.1l2-3.76 2 3M202.44 122c-.66-1.05-1.32-2.1-2-3.15-.67 1.2-1.35 2.39-2 3.59m8.03-.82c-.67-1.05-1.33-2.11-2-3.17l-2 3.56m8.02-.74c-.66-1.06-1.32-2.13-2-3.19l-2 3.54m-16.1 12.44l-2-3.09-2 3.64m-.01 0l-2-3.07-2 3.66m8.01-6.51l-2-3.09c-.67 1.21-1.35 2.42-2 3.64m-.01 0l-2-3.08-2 3.66m18.07-5.69l-2 3.58m-.03 0c-.66-1-1.32-2.09-2-3.13-.67 1.2-1.35 2.4-2 3.6m-.02 0l-2-3.11c-.68 1.2-1.36 2.41-2 3.62m-8.03 6.51l-2-3.06-2 3.68m22.08-6.32l-2 3.58m-.03 0c-.66-1-1.32-2.09-2-3.13-.67 1.2-1.35 2.4-2 3.6m-.02 0l-2-3.11c-.68 1.21-1.36 2.41-2 3.62m4 30.94l-2-3.11c-.68 1.21-1.36 2.41-2 3.62m-.01-.01l-2-3.09c-.67 1.21-1.35 2.42-2 3.64m4-5.77l-2-3.09c-.67 1.21-1.35 2.42-2 3.64m8.01-1.06l-2-3.11c-.68 1.21-1.36 2.41-2 3.62m8.02-.98c-.66-1-1.32-2.09-2-3.13-.67 1.2-1.35 2.4-2 3.6m-8.04 1.06l-2-3.07-2 3.66m4-5.79l-2-3.07-2 3.66m-.01 0l-2-3.06-2 3.68m4-5.55l-2-3-2 3.68m12-7.21c-.67-1-1.33-2.06-2-3.09-.67 1.21-1.35 2.42-2 3.64m-4.02-4.74l-2-3-2 3.68m12.02-1.81l-2-3.09c-.67 1.21-1.35 2.42-2 3.64m8.03-1.06l-2-3.12c-.68 1.21-1.36 2.42-2 3.63" stroke="#b6b7b0"/><path stroke="#efefef" d="M247.86 241.47l-1.94 3.35-1.98-3.35"/><path stroke="#efefef" d="M251.76 241.47l-1.94 3.35-1.98-3.35m-3.9 0l-1.94 3.35-1.98-3.35m23.49 0l-1.93 3.35-1.98-3.35"/><path stroke="#efefef" d="M267.41 241.47l-1.94 3.35-1.98-3.35m-3.89 0l-1.94 3.35-1.98-3.35m19.57 0l-1.94 3.35-1.98-3.35"/><path stroke="#efefef" d="M279.14 241.47l-1.93 3.35-1.98-3.35m-3.9 0l-1.94 3.35-1.98-3.35m-3.9 5.05l-1.93 3.36-1.98-3.36"/><path stroke="#efefef" d="M267.41 246.52l-1.94 3.36-1.98-3.36m-3.89 0l-1.94 3.36-1.98-3.36m19.57 0l-1.94 3.36-1.98-3.36"/><path stroke="#efefef" d="M271.33 246.52l-1.94 3.36-1.98-3.36m-3.9 5.39l-1.93 3.36-1.98-3.36"/><path stroke="#efefef" d="M267.41 251.91l-1.94 3.36-1.98-3.36m-3.89 0l-1.94 3.36-1.98-3.36m0 0l-1.94 3.36-1.98-3.36m3.92 5.16l-1.94 3.36-1.98-3.36m-3.9-5.16l-1.94 3.36-1.98-3.36m3.92 5.16l-1.94 3.36-1.98-3.36m3.92 5.02l-1.94 3.36-1.98-3.36m31.31-10.18l-1.94 3.36-1.98-3.36"/><path stroke="#efefef" d="M271.33 251.91l-1.94 3.36-1.98-3.36m-3.9 10.18l-1.93 3.36-1.98-3.36"/><path stroke="#efefef" d="M267.41 262.09l-1.94 3.36-1.98-3.36m-3.89 0l-1.94 3.36-1.98-3.36m0 0l-1.94 3.36-1.98-3.36m23.49 0l-1.94 3.36-1.98-3.36"/><path stroke="#efefef" d="M271.33 262.09l-1.94 3.36-1.98-3.36m-3.9 4.93l-1.94 3.36-1.98-3.36"/><path stroke="#efefef" d="M267.4 267.02l-1.93 3.36-1.98-3.36m-3.9 0l-1.94 3.36-1.98-3.36m19.57 0l-1.94 3.36-1.98-3.36m0 0l-1.94 3.36-1.98-3.36m-3.89 5.01l-1.94 3.35-1.98-3.35"/><path stroke="#efefef" d="M267.4 272.03l-1.93 3.35-1.98-3.35m-3.9 0l-1.94 3.35-1.98-3.35m19.57 0l-1.94 3.35-1.98-3.35"/><path stroke="#efefef" d="M279.14 272.03l-1.93 3.35-1.98-3.35m-3.91 0l-1.94 3.35-1.98-3.35m-3.89-14.96l-1.93 3.36-1.98-3.36"/><path stroke="#efefef" d="M267.41 257.07l-1.94 3.36-1.98-3.36m11.76 0l-1.94 3.36-1.98-3.36"/><path stroke="#efefef" d="M271.33 257.07l-1.94 3.36-1.98-3.36m-39.18-15.6l1.93 3.35 1.99-3.35"/><path stroke="#efefef" d="M224.33 241.47l1.94 3.35 1.98-3.35m3.9 0l1.93 3.35 1.98-3.35m-19.57 0l1.94 3.35 1.98-3.35"/><path stroke="#efefef" d="M212.59 241.47l1.94 3.35 1.98-3.35m3.9 0l1.94 3.35 1.98-3.35m3.9 5.05l1.93 3.36 1.99-3.36"/><path stroke="#efefef" d="M224.33 246.52l1.94 3.36 1.98-3.36m3.9 0l1.93 3.36 1.98-3.36m-19.57 0l1.94 3.36 1.98-3.36m0 0l1.94 3.36 1.98-3.36m3.9 5.39l1.93 3.36 1.99-3.36"/><path stroke="#efefef" d="M224.33 251.91l1.94 3.36 1.98-3.36m3.9 0l1.93 3.36 1.98-3.36m0 0l1.94 3.36 1.98-3.36m-3.92 5.16l1.94 3.36 1.98-3.36m-23.49-5.16l1.94 3.36 1.98-3.36m0 0l1.94 3.36 1.98-3.36m3.9 10.18l1.93 3.36 1.99-3.36"/><path stroke="#efefef" d="M224.33 262.09l1.94 3.36 1.98-3.36m3.9 0l1.93 3.36 1.98-3.36m0 0l1.94 3.36 1.98-3.36m-23.49 0l1.94 3.36 1.98-3.36m0 0l1.94 3.36 1.98-3.36m3.9 4.93l1.94 3.36 1.98-3.36"/><path stroke="#efefef" d="M224.34 267.02l1.93 3.36 1.98-3.36m3.9 0l1.94 3.36 1.98-3.36m-19.57 0l1.94 3.36 1.98-3.36m0 0l1.93 3.36 1.99-3.36m3.89 5.01l1.94 3.35 1.98-3.35"/><path stroke="#efefef" d="M224.34 272.03l1.93 3.35 1.98-3.35m3.9 0l1.94 3.35 1.98-3.35m-19.57 0l1.94 3.35 1.98-3.35"/><path stroke="#efefef" d="M212.59 272.03l1.94 3.35 1.98-3.35m3.91 0l1.93 3.35 1.99-3.35m3.89-14.96l1.93 3.36 1.99-3.36"/><path stroke="#efefef" d="M224.33 257.07l1.94 3.36 1.98-3.36m-11.76 0l1.94 3.36 1.98-3.36m0 0l1.94 3.36 1.98-3.36m27.43-20.38l-1.94 3.36-1.98-3.36m7.84 0l-1.94 3.36-1.98-3.36m-11.74 0l-1.93 3.36-1.99-3.36m7.84 0l-1.94 3.36-1.98-3.36m11.74-4.91l-1.94 3.36-1.98-3.36m7.84 0l-1.94 3.36-1.98-3.36m-11.74 0l-1.93 3.36-1.99-3.36m7.84 0l-1.94 3.36-1.98-3.36m11.74-5.18l-1.94 3.36-1.98-3.36m7.84 0l-1.94 3.36-1.98-3.36m-11.74 0l-1.93 3.36-1.99-3.36m7.84 0l-1.94 3.36-1.98-3.36"/><path stroke="#efefef" d="M247.86 226.6l-1.94 3.36-1.98-3.36m7.82-4.95l-1.94 3.36-1.98-3.36m7.84 0l-1.94 3.36-1.98-3.36m-11.74 0l-1.93 3.36-1.99-3.36m7.84 0l-1.94 3.36-1.98-3.36"/><path stroke="#efefef" d="M247.86 221.65l-1.94 3.36-1.98-3.36m7.82-5.02l-1.94 3.36-1.98-3.36m7.84 0l-1.94 3.36-1.98-3.36m-11.74 0l-1.93 3.36-1.99-3.36m7.84 0l-1.94 3.36-1.98-3.36"/><path stroke="#efefef" d="M247.86 216.63l-1.94 3.36-1.98-3.36m7.82-4.99l-1.94 3.36-1.98-3.36m7.84 0l-1.94 3.36-1.98-3.36m0-5.03l-1.94 3.36-1.98-3.36m7.84 0l-1.94 3.36-1.98-3.36m-11.74 0l-1.93 3.36-1.99-3.36m19.58-5.06l-1.94 3.36-1.98-3.36m-11.74 0l-1.93 3.36-1.99-3.36m7.84 5.06l-1.94 3.36-1.98-3.36m0 5.03l-1.93 3.36-1.99-3.36m7.84 0L242 215l-1.98-3.36"/><path stroke="#efefef" d="M247.86 211.64l-1.94 3.36-1.98-3.36m3.92 63.74l-1.94-3.35-1.98 3.35"/><path stroke="#efefef" d="M251.76 275.38l-1.94-3.35-1.98 3.35m-3.9 0l-1.94-3.35-1.98 3.35m11.74 4.78l-1.94-3.36-1.98 3.36m7.84 0l-1.94-3.36-1.98 3.36m-11.74 0l-1.93-3.36-1.99 3.36m7.84 0L242 276.8l-1.98 3.36m11.74 4.91l-1.94-3.36-1.98 3.36m7.84 0l-1.94-3.36-1.98 3.36m-11.74 0l-1.93-3.36-1.99 3.36m7.84 0l-1.94-3.36-1.98 3.36m11.74 5.18l-1.94-3.36-1.98 3.36m7.84 0l-1.94-3.36-1.98 3.36m-11.74 0l-1.93-3.36-1.99 3.36m7.84 0l-1.94-3.36-1.98 3.36"/><path stroke="#efefef" d="M247.86 290.25l-1.94-3.36-1.98 3.36m7.82 4.95l-1.94-3.36-1.98 3.36m7.84 0l-1.94-3.36-1.98 3.36m-11.74 0l-1.93-3.36-1.99 3.36m7.84 0l-1.94-3.36-1.98 3.36"/><path stroke="#efefef" d="M247.86 295.2l-1.94-3.36-1.98 3.36m7.82 5.02l-1.94-3.36-1.98 3.36m7.84 0l-1.94-3.36-1.98 3.36m-11.74 0l-1.93-3.36-1.99 3.36m7.84 0l-1.94-3.36-1.98 3.36"/><path stroke="#efefef" d="M247.86 300.22l-1.94-3.36-1.98 3.36m7.82 4.99l-1.94-3.36-1.98 3.36m7.84 0l-1.94-3.36-1.98 3.36m0 5.03l-1.94-3.36-1.98 3.36m7.84 0l-1.94-3.36-1.98 3.36m-11.74 0l-1.93-3.36-1.99 3.36m19.58 5.06l-1.94-3.36-1.98 3.36m-11.74 0l-1.93-3.36-1.99 3.36m7.84-5.06l-1.94-3.36-1.98 3.36m0-5.03l-1.93-3.36-1.99 3.36m7.84 0l-1.94-3.36-1.98 3.36"/><path stroke="#efefef" d="M247.86 305.21l-1.94-3.36-1.98 3.36m124.37-63.74l-1.94 3.35-1.98-3.35"/><path stroke="#efefef" d="M372.2 241.47l-1.94 3.35-1.98-3.35m-3.89 0l-1.94 3.35-1.98-3.35m23.49 0l-1.94 3.35-1.98-3.35"/><path stroke="#efefef" d="M387.86 241.47l-1.94 3.35-1.98-3.35m-3.9 0l-1.94 3.35-1.98-3.35m19.57 0l-1.94 3.35-1.98-3.35"/><path stroke="#efefef" d="M399.59 241.47l-1.94 3.35-1.98-3.35m-3.9 0l-1.93 3.35-1.98-3.35m-3.9 5.05l-1.94 3.36-1.98-3.36"/><path stroke="#efefef" d="M387.86 246.52l-1.94 3.36-1.98-3.36m-3.9 0l-1.94 3.36-1.98-3.36m19.57 0l-1.94 3.36-1.98-3.36"/><path stroke="#efefef" d="M391.77 246.52l-1.93 3.36-1.98-3.36m-3.9 5.39l-1.94 3.36-1.98-3.36"/><path stroke="#efefef" d="M387.86 251.91l-1.94 3.36-1.98-3.36m-3.9 0l-1.94 3.36-1.98-3.36m0 0l-1.94 3.36-1.98-3.36m3.92 5.16l-1.94 3.36-1.98-3.36m-3.89-5.16l-1.94 3.36-1.98-3.36m3.92 5.16l-1.94 3.36-1.98-3.36m3.92 5.02l-1.94 3.36-1.98-3.36m31.3-10.18l-1.94 3.36-1.98-3.36"/><path stroke="#efefef" d="M391.77 251.91l-1.93 3.36-1.98-3.36m-3.9 10.18l-1.94 3.36-1.98-3.36"/><path stroke="#efefef" d="M387.86 262.09l-1.94 3.36-1.98-3.36m-3.9 0l-1.94 3.36-1.98-3.36m0 0l-1.94 3.36-1.98-3.36m23.49 0l-1.94 3.36-1.98-3.36"/><path stroke="#efefef" d="M391.77 262.09l-1.93 3.36-1.98-3.36m-3.91 4.93l-1.94 3.36-1.98-3.36"/><path stroke="#efefef" d="M387.85 267.02l-1.94 3.36-1.98-3.36m-3.9 0l-1.93 3.36-1.98-3.36m19.57 0l-1.94 3.36-1.98-3.36"/><path stroke="#efefef" d="M391.77 267.02l-1.94 3.36-1.98-3.36m-3.9 5.01l-1.94 3.35-1.98-3.35"/><path stroke="#efefef" d="M387.85 272.03l-1.94 3.35-1.98-3.35m-3.9 0l-1.93 3.35-1.98-3.35m19.57 0l-1.94 3.35-1.98-3.35"/><path stroke="#efefef" d="M399.59 272.03l-1.94 3.35-1.98-3.35m-3.9 0l-1.94 3.35-1.98-3.35m-3.89-14.96l-1.94 3.36-1.98-3.36"/><path stroke="#efefef" d="M387.86 257.07l-1.94 3.36-1.98-3.36m11.75 0l-1.94 3.36-1.98-3.36"/><path stroke="#efefef" d="M391.77 257.07l-1.93 3.36-1.98-3.36m-39.19-15.6l1.94 3.35 1.98-3.35"/><path stroke="#efefef" d="M344.77 241.47l1.94 3.35 1.98-3.35m3.9 0l1.94 3.35 1.98-3.35m-19.57 0l1.94 3.35 1.98-3.35"/><path stroke="#efefef" d="M333.04 241.47l1.94 3.35 1.98-3.35m3.9 0l1.93 3.35 1.98-3.35m3.9 5.05l1.94 3.36 1.98-3.36"/><path stroke="#efefef" d="M344.77 246.52l1.94 3.36 1.98-3.36m3.9 0l1.94 3.36 1.98-3.36m-19.57 0l1.94 3.36 1.98-3.36"/><path stroke="#efefef" d="M340.86 246.52l1.93 3.36 1.98-3.36m3.9 5.39l1.94 3.36 1.98-3.36"/><path stroke="#efefef" d="M344.77 251.91l1.94 3.36 1.98-3.36m3.9 0l1.94 3.36 1.98-3.36m0 0l1.94 3.36 1.98-3.36m-3.92 5.16l1.94 3.36 1.98-3.36m-23.49-5.16l1.94 3.36 1.98-3.36"/><path stroke="#efefef" d="M340.86 251.91l1.93 3.36 1.98-3.36m3.9 10.18l1.94 3.36 1.98-3.36"/><path stroke="#efefef" d="M344.77 262.09l1.94 3.36 1.98-3.36m3.9 0l1.94 3.36 1.98-3.36m0 0l1.94 3.36 1.98-3.36m-23.49 0l1.94 3.36 1.98-3.36"/><path stroke="#efefef" d="M340.86 262.09l1.93 3.36 1.98-3.36m3.91 4.93l1.94 3.36 1.98-3.36"/><path stroke="#efefef" d="M344.78 267.02l1.94 3.36 1.98-3.36m3.9 0l1.93 3.36 1.98-3.36m-19.57 0l1.94 3.36 1.98-3.36"/><path stroke="#efefef" d="M340.86 267.02l1.94 3.36 1.98-3.36m3.9 5.01l1.94 3.35 1.98-3.35"/><path stroke="#efefef" d="M344.78 272.03l1.94 3.35 1.98-3.35m3.9 0l1.93 3.35 1.98-3.35m-19.57 0l1.94 3.35 1.98-3.35"/><path stroke="#efefef" d="M333.04 272.03l1.94 3.35 1.98-3.35m3.9 0l1.94 3.35 1.98-3.35m3.89-14.96l1.94 3.36 1.98-3.36"/><path stroke="#efefef" d="M344.77 257.07l1.94 3.36 1.98-3.36m-11.75 0l1.94 3.36 1.98-3.36"/><path stroke="#efefef" d="M340.86 257.07l1.93 3.36 1.98-3.36m27.43-20.38l-1.94 3.36-1.98-3.36m7.84 0l-1.94 3.36-1.98-3.36m-11.73 0l-1.94 3.36-1.98-3.36M364.39 236.69l-1.94 3.36-1.98-3.36m11.73-4.91l-1.94 3.36-1.98-3.36m7.84 0l-1.94 3.36-1.98-3.36m-11.73 0l-1.94 3.36-1.98-3.36M364.39 231.78l-1.94 3.36-1.98-3.36m11.73-5.18l-1.94 3.36-1.98-3.36m7.84 0l-1.94 3.36-1.98-3.36m-11.73 0l-1.94 3.36-1.98-3.36"/><path stroke="#efefef" d="M364.39 226.6l-1.94 3.36-1.98-3.36m7.84 0l-1.94 3.36-1.98-3.36m7.81-4.95l-1.94 3.36-1.98-3.36m7.84 0l-1.94 3.36-1.98-3.36m-11.73 0l-1.94 3.36-1.98-3.36"/><path stroke="#efefef" d="M364.39 221.65l-1.94 3.36-1.98-3.36m7.84 0l-1.94 3.36-1.98-3.36m7.81-5.02l-1.94 3.36-1.98-3.36m7.84 0l-1.94 3.36-1.98-3.36m-11.73 0l-1.94 3.36-1.98-3.36"/><path stroke="#efefef" d="M364.39 216.63l-1.94 3.36-1.98-3.36m7.84 0l-1.94 3.36-1.98-3.36m7.81-4.99l-1.94 3.36-1.98-3.36m7.84 0l-1.94 3.36-1.98-3.36m0-5.03l-1.94 3.36-1.98-3.36m7.84 0l-1.94 3.36-1.98-3.36m-11.73 0l-1.94 3.36-1.98-3.36m19.57-5.06l-1.94 3.36-1.98-3.36m-11.73 0l-1.94 3.36-1.98-3.36M364.39 206.61l-1.94 3.36-1.98-3.36m0 5.03l-1.94 3.36-1.98-3.36"/><path stroke="#efefef" d="M364.39 211.64l-1.94 3.36-1.98-3.36m7.84 0l-1.94 3.36-1.98-3.36m3.92 63.74l-1.94-3.35-1.98 3.35"/><path stroke="#efefef" d="M372.2 275.38l-1.94-3.35-1.98 3.35m-3.89 0l-1.94-3.35-1.98 3.35m11.73 4.78l-1.94-3.36-1.98 3.36m7.84 0l-1.94-3.36-1.98 3.36m-11.73 0l-1.94-3.36-1.98 3.36M364.39 280.16l-1.94-3.36-1.98 3.36m11.73 4.91l-1.94-3.36-1.98 3.36m7.84 0l-1.94-3.36-1.98 3.36m-11.73 0l-1.94-3.36-1.98 3.36M364.39 285.07l-1.94-3.36-1.98 3.36m11.73 5.18l-1.94-3.36-1.98 3.36m7.84 0l-1.94-3.36-1.98 3.36m-11.73 0l-1.94-3.36-1.98 3.36"/><path stroke="#efefef" d="M364.39 290.25l-1.94-3.36-1.98 3.36m7.84 0l-1.94-3.36-1.98 3.36m7.81 4.95l-1.94-3.36-1.98 3.36m7.84 0l-1.94-3.36-1.98 3.36m-11.73 0l-1.94-3.36-1.98 3.36"/><path stroke="#efefef" d="M364.39 295.2l-1.94-3.36-1.98 3.36m7.84 0l-1.94-3.36-1.98 3.36m7.81 5.02l-1.94-3.36-1.98 3.36m7.84 0l-1.94-3.36-1.98 3.36m-11.73 0l-1.94-3.36-1.98 3.36"/><path stroke="#efefef" d="M364.39 300.22l-1.94-3.36-1.98 3.36m7.84 0l-1.94-3.36-1.98 3.36m7.81 4.99l-1.94-3.36-1.98 3.36m7.84 0l-1.94-3.36-1.98 3.36m0 5.03l-1.94-3.36-1.98 3.36m7.84 0l-1.94-3.36-1.98 3.36m-11.73 0l-1.94-3.36-1.98 3.36m19.57 5.06l-1.94-3.36-1.98 3.36m-11.73 0l-1.94-3.36-1.98 3.36M364.39 310.24l-1.94-3.36-1.98 3.36m0-5.03l-1.94-3.36-1.98 3.36"/><path stroke="#efefef" d="M364.39 305.21l-1.94-3.36-1.98 3.36m7.84 0l-1.94-3.36-1.98 3.36m-235.2-63.74l-1.94 3.35-1.98-3.35"/><path stroke="#efefef" d="M133.09 241.47l-1.94 3.35-1.98-3.35m-3.9 0l-1.93 3.35-1.98-3.35m23.49 0l-1.94 3.35-1.98-3.35"/><path stroke="#efefef" d="M148.74 241.47l-1.93 3.35-1.99-3.35m-3.89 0l-1.94 3.35-1.98-3.35m19.57 0l-1.94 3.35-1.98-3.35"/><path stroke="#efefef" d="M160.48 241.47l-1.94 3.35-1.98-3.35m-3.9 0l-1.94 3.35-1.98-3.35m-3.89 5.05l-1.94 3.36-1.98-3.36"/><path stroke="#efefef" d="M148.74 246.52l-1.93 3.36-1.99-3.36m-3.89 0l-1.94 3.36-1.98-3.36m19.57 0l-1.94 3.36-1.98-3.36m0 0l-1.94 3.36-1.98-3.36m-3.89 5.39l-1.94 3.36-1.98-3.36"/><path stroke="#efefef" d="M148.74 251.91l-1.93 3.36-1.99-3.36m-3.89 0l-1.94 3.36-1.98-3.36m0 0l-1.94 3.36-1.98-3.36m3.92 5.16l-1.94 3.36-1.98-3.36m-3.9-5.16l-1.94 3.36-1.98-3.36m3.92 5.16l-1.94 3.36-1.98-3.36m3.92 5.02l-1.94 3.36-1.98-3.36m31.31-10.18l-1.94 3.36-1.98-3.36m0 0l-1.94 3.36-1.98-3.36m-3.89 10.18l-1.94 3.36-1.98-3.36"/><path stroke="#efefef" d="M148.74 262.09l-1.93 3.36-1.99-3.36m-3.89 0l-1.94 3.36-1.98-3.36m0 0l-1.94 3.36-1.98-3.36m23.49 0l-1.94 3.36-1.98-3.36m0 0l-1.94 3.36-1.98-3.36m-3.9 4.93l-1.94 3.36-1.98-3.36"/><path stroke="#efefef" d="M148.74 267.02l-1.94 3.36-1.98-3.36m-3.9 0l-1.94 3.36-1.98-3.36m19.57 0l-1.94 3.36-1.97-3.36m0 0l-1.94 3.36-1.98-3.36m-3.9 5.01l-1.94 3.35-1.98-3.35"/><path stroke="#efefef" d="M148.74 272.03l-1.94 3.35-1.98-3.35m-3.9 0l-1.94 3.35-1.98-3.35m19.57 0l-1.94 3.35-1.97-3.35"/><path stroke="#efefef" d="M160.48 272.03l-1.94 3.35-1.98-3.35m-3.9 0l-1.94 3.35-1.98-3.35m-3.89-14.96l-1.94 3.36-1.98-3.36"/><path stroke="#efefef" d="M148.74 257.07l-1.93 3.36-1.99-3.36m11.76 0l-1.94 3.36-1.98-3.36m0 0l-1.94 3.36-1.98-3.36m-39.18-15.6l1.94 3.35 1.98-3.35"/><path stroke="#efefef" d="M105.66 241.47l1.94 3.35 1.98-3.35m3.9 0l1.94 3.35 1.97-3.35m-19.57 0l1.94 3.35 1.98-3.35"/><path stroke="#efefef" d="M93.93 241.47l1.93 3.35 1.98-3.35m3.9 0l1.94 3.35 1.98-3.35m3.9 5.05l1.94 3.36 1.98-3.36"/><path stroke="#efefef" d="M105.66 246.52l1.94 3.36 1.98-3.36m3.9 0l1.94 3.36 1.97-3.36m-19.57 0l1.94 3.36 1.98-3.36m0 0l1.94 3.36 1.98-3.36m3.9 5.39l1.94 3.36 1.98-3.36"/><path stroke="#efefef" d="M105.66 251.91l1.94 3.36 1.98-3.36m3.9 0l1.94 3.36 1.97-3.36m0 0l1.94 3.36 1.98-3.36m-3.92 5.16l1.94 3.36 1.98-3.36m-23.49-5.16l1.94 3.36 1.98-3.36m0 0l1.94 3.36 1.98-3.36m3.9 10.18l1.94 3.36 1.98-3.36"/><path stroke="#efefef" d="M105.66 262.09l1.94 3.36 1.98-3.36m3.9 0l1.94 3.36 1.97-3.36m0 0l1.94 3.36 1.98-3.36m-23.49 0l1.94 3.36 1.98-3.36m0 0l1.94 3.36 1.98-3.36m3.9 4.93l1.94 3.36 1.98-3.36"/><path stroke="#efefef" d="M105.67 267.02l1.94 3.36 1.98-3.36m3.89 0l1.94 3.36 1.98-3.36m-19.57 0l1.94 3.36 1.98-3.36m0 0l1.94 3.36 1.98-3.36m3.89 5.01l1.94 3.35 1.98-3.35"/><path stroke="#efefef" d="M105.67 272.03l1.94 3.35 1.98-3.35m3.89 0l1.94 3.35 1.98-3.35m-19.57 0l1.94 3.35 1.98-3.35"/><path stroke="#efefef" d="M93.93 272.03l1.93 3.35 1.98-3.35m3.91 0l1.94 3.35 1.98-3.35m3.89-14.96l1.94 3.36 1.98-3.36"/><path stroke="#efefef" d="M105.66 257.07l1.94 3.36 1.98-3.36m-11.76 0l1.94 3.36 1.98-3.36m0 0l1.94 3.36 1.98-3.36m27.43-20.38l-1.94 3.36-1.98-3.36m7.84 0l-1.94 3.36-1.98-3.36m-11.73 0l-1.94 3.36-1.98-3.36"/><path stroke="#efefef" d="M125.27 236.69l-1.93 3.36-1.98-3.36m11.73-4.91l-1.94 3.36-1.98-3.36m7.84 0l-1.94 3.36-1.98-3.36m-11.73 0l-1.94 3.36-1.98-3.36"/><path stroke="#efefef" d="M125.27 231.78l-1.93 3.36-1.98-3.36m11.73-5.18l-1.94 3.36-1.98-3.36m7.84 0l-1.94 3.36-1.98-3.36m-11.73 0l-1.94 3.36-1.98-3.36"/><path stroke="#efefef" d="M125.27 226.6l-1.93 3.36-1.98-3.36m7.83 0l-1.94 3.36-1.98-3.36m7.82-4.95l-1.94 3.36-1.98-3.36m7.84 0l-1.94 3.36-1.98-3.36m-11.73 0l-1.94 3.36-1.98-3.36"/><path stroke="#efefef" d="M125.27 221.65l-1.93 3.36-1.98-3.36m7.83 0l-1.94 3.36-1.98-3.36m7.82-5.02l-1.94 3.36-1.98-3.36m7.84 0l-1.94 3.36-1.98-3.36m-11.73 0l-1.94 3.36-1.98-3.36"/><path stroke="#efefef" d="M125.27 216.63l-1.93 3.36-1.98-3.36m7.83 0l-1.94 3.36-1.98-3.36m7.82-4.99l-1.94 3.36-1.98-3.36m7.84 0l-1.94 3.36-1.98-3.36m0-5.03l-1.94 3.36-1.98-3.36m7.84 0l-1.94 3.36-1.98-3.36m-11.73 0l-1.94 3.36-1.98-3.36m19.57-5.06l-1.94 3.36-1.98-3.36m-11.73 0l-1.94 3.36-1.98-3.36"/><path stroke="#efefef" d="M125.27 206.61l-1.93 3.36-1.98-3.36m0 5.03l-1.94 3.36-1.98-3.36M125.27 211.64l-1.93 3.36-1.98-3.36m7.83 0l-1.94 3.36-1.98-3.36m3.92 63.74l-1.94-3.35-1.98 3.35"/><path stroke="#efefef" d="M133.09 275.38l-1.94-3.35-1.98 3.35m-3.9 0l-1.93-3.35-1.98 3.35m11.73 4.78l-1.94-3.36-1.98 3.36m7.84 0l-1.94-3.36-1.98 3.36m-11.73 0l-1.94-3.36-1.98 3.36"/><path stroke="#efefef" d="M125.27 280.16l-1.93-3.36-1.98 3.36m11.73 4.91l-1.94-3.36-1.98 3.36m7.84 0l-1.94-3.36-1.98 3.36m-11.73 0l-1.94-3.36-1.98 3.36M125.27 285.07l-1.93-3.36-1.98 3.36m11.73 5.18l-1.94-3.36-1.98 3.36m7.84 0l-1.94-3.36-1.98 3.36m-11.73 0l-1.94-3.36-1.98 3.36"/><path stroke="#efefef" d="M125.27 290.25l-1.93-3.36-1.98 3.36m7.83 0l-1.94-3.36-1.98 3.36m7.82 4.95l-1.94-3.36-1.98 3.36m7.84 0l-1.94-3.36-1.98 3.36m-11.73 0l-1.94-3.36-1.98 3.36"/><path stroke="#efefef" d="M125.27 295.2l-1.93-3.36-1.98 3.36m7.83 0l-1.94-3.36-1.98 3.36m7.82 5.02l-1.94-3.36-1.98 3.36m7.84 0l-1.94-3.36-1.98 3.36m-11.73 0l-1.94-3.36-1.98 3.36"/><path stroke="#efefef" d="M125.27 300.22l-1.93-3.36-1.98 3.36m7.83 0l-1.94-3.36-1.98 3.36m7.82 4.99l-1.94-3.36-1.98 3.36m7.84 0l-1.94-3.36-1.98 3.36m0 5.03l-1.94-3.36-1.98 3.36m7.84 0l-1.94-3.36-1.98 3.36m-11.73 0l-1.94-3.36-1.98 3.36m19.57 5.06l-1.94-3.36-1.98 3.36m-11.73 0l-1.94-3.36-1.98 3.36"/><path stroke="#efefef" d="M125.27 310.24l-1.93-3.36-1.98 3.36m0-5.03l-1.94-3.36-1.98 3.36M125.27 305.21l-1.93-3.36-1.98 3.36m7.83 0l-1.94-3.36-1.98 3.36"/></g><path d="M204.41 48.28s4 48.55 43.68 46.73 42.84-45.41 42.84-45.41M122.11 185.86s1.8 23.6-.31 39.23.11 29.7.11 32.87 1.9 33.07 1.9 33.07m247.52-102.37s5.79 47.28 0 75.34m57.72-82.49s-6-11-19.68-44.09c-8.82-19.22-14.51-42.62-30.45-57.21" fill="none" stroke="#262521" stroke-linecap="round" stroke-linejoin="round" stroke-width="3"/><path d="M372 440.46c.87-9 2.74-16.47 3.55-25.44.2-41.15-3.56-82.31-3.38-123.47l.06-39.64m-248.95-2.04c.14-.27 1.69 43.93.65 44 1.9 46.22-5.55 92.81.48 138.68M199.68 48.4c-30.43 11-59.14 16.58-86.46 34.78C89.71 113.53 61.11 195 59.69 201.55" fill="none" stroke="#262521" stroke-linecap="round" stroke-linejoin="round" stroke-width="3"/></svg>