<svg xmlns="http://www.w3.org/2000/svg" width="500" height="550" viewBox="0 0 500 550"><defs><clipPath id="a"><path d="M177.6 51.88l30.57 53.05S229.5 80.82 245 77.21c15.15 3.61 36.86 27.72 36.86 27.72l30.4-53.82s41.42 11.46 61.18 22.49-2.58 111.68-2.58 111.68v219.58l-245.54 9.19-4-236.58c-4.11 4.17-51.82-42.39-18.77-87 17.87-26.27 75.05-38.59 75.05-38.59z" fill="none"/></clipPath></defs><path d="M378.44 76.3c14.16 10.55 21.63 38 30.46 57.2 26.65 64.67 55.47 131.55 51.73 202.74-.16 3.1-70.86 9.77-71.75 7.16-3.08-9-5.12-18.37-7.49-27.58-1.06-4.3-1.31-8.49 1.62-12.34 1.5-7.23-10.43-8.68-10.94-15.92l-.41.08q-.26 61.73-.61 123.46c-.82 9-2.69 16.41-3.56 25.44-1 10.08 1.35 17-1.5 25.64-.58 1.77-2 1.12-3.34 1.43-44.77 10.45-67.62 8.2-112.62 11-24.6.58-89.37-5.15-117-11.82-5.12-1.24-5.68.27-6.62-4.82-1.35-11.26 1.94-18.54.52-29.32-6.15-46.81-1.39-94.37-3.6-141.53-1.41 2.83-2.94 5.61-4.28 8.46-2.37 10.68-17.51 9.3-11.81 16.19 11.11 7.94 6.4 21.38 5.15 32.55-.25 3.16-73.35 6.06-73.35-3.24 0-53.86 5.52-107.76 25.64-158.13 13.6-35.44 29.93-85.31 48.06-103.68 14.32-14.39 63.43-26.86 63.43-26.86 10.8-7.31 14-24.4 28.33-26.23 10.25-2.67 20.61-2.72 31.14-2.2 17.82 2.22 37-3.7 54 3.24C299.05 32 300.74 44 309.75 49c16.83 5.65 54.53 16.74 68.69 27.3z" fill="#fff" stroke="#262521" stroke-linecap="round" stroke-linejoin="round" stroke-width="3"/><path d="M121.33 177.47s2.11 28.61 0 44.24.11 29.7.11 32.88 1.89 33.06 1.89 33.06m247.52-102.37s5.8 47.28 0 75.34" fill="none" stroke="#262521" stroke-linecap="round" stroke-linejoin="round" stroke-width="3"/><path d="M380.64 320.93s7.07 29.3 8.67 31.49 72.94-2.19 72.94-4.18 2.31-34.4.31-35.4-82.92 4.71-81.92 8.09zm-264.21 5.73s-3.07 29.3-4.67 31.49S37.82 356 37.82 354s-2.31-34.39-.31-35.39 79.92 4.66 78.92 8.05z" fill="#fff" stroke="#262521" stroke-linecap="round" stroke-linejoin="round" stroke-width="3"/><g clip-path="url(#a)"><path fill="#262521" d="M335.028 235.504l10.98-121.99 19.77 1.78-10.98 121.99z"/><path d="M341.82 234.59c2.53-5.05 7.74-7.15 12.74-9l5.85-66.3c-2.24-1.72-3.74-11.1-4-8.24-.45 4.36-6.93 5.39-8.53 5.88-2.79 1.38-3.76 5.69-7.51 5l-6.56 74.35 7.06.63a17.91 17.91 0 01.95-2.32z" fill="#545350"/><path d="M347.31 197.48l-.57.16c-.33 1.49.73 13.43-2.36 9.07v-8.49c-.18 0-.35.09-.53.12-.6 1.45-1.57 14-3.79 8.79a61.31 61.31 0 00.8-8.34 18.46 18.46 0 01-3.79 0l-2.53 28.69c2.93-5 7.8-8.64 13.86-7.73-.71-16.52 4.5-14.37 3.16.63a21.77 21.77 0 013.34 1.34l2.38-26.93a89.8 89.8 0 00-9.97 2.69z" fill="#cccbca"/><path fill="#262521" d="M249.996 76.578l19.849-6.89 34.476 99.338-19.849 6.889z"/><path fill="#262521" d="M277.778 96.087l33.365-49.579L328.665 58.3 295.3 107.878z"/><path fill="#545350" d="M270.88 176.908l25.322-54.13 19.13 8.95-25.321 54.13z"/><path d="M301.15 161.21q-.13.66-.24 1.32l14.41-30.81-4.36-2c-.03 11.35-7.19 20.77-9.81 31.49z" fill="#8e8c86"/><path fill="#262521" d="M199.345 204.149l33.365-49.579 17.522 11.792-33.366 49.578z"/><path d="M209.89 188.51l-10.54 15.66L216.87 216l4.13-6.13c-3.43-7.29-7-14.46-11.11-21.36z" fill="#545350"/><path fill="#262521" d="M131.166 327.774l25-99.971 20.489 5.123-25 99.972z"/><path d="M154 322.81c-5.84 4.71-7.7 1.05-6.13-5-5.34 8.75-4.14-3.38-5-7-3.12 6.44-6.24 7.5-7.3-.6l-4.38 17.53 20.48 5.12 2.49-10s-.11-.04-.16-.05z" fill="#545350"/><path fill="#cccbca" d="M209.054 285.216l47.977-35.63 12.592 16.955-47.976 35.63z"/><path d="M256.65 276.18l13-9.63L257 249.6l-9.47 7c1.7 6.96 5.26 13.5 9.12 19.58zm-21.13-10.61l-26.47 19.65 12.59 17L236.69 291q-1.02-12.69-1.17-25.43z" fill="#8e8c86"/><path fill="#545350" d="M98.564 86.237l11.792-17.522 49.578 33.366-11.792 17.521z"/><path d="M121.35 88.37c-1.65-7-8.44-11.4-14.5-14.43l-8.28 12.3 22.8 15.35c-2.08-3.85.52-9.08-.02-13.22zM137 107.81c-3.25-1.61-6.72-1.82-10.22-2.56l21.34 14.36 1.87-2.78c-4.06-3.38-8.19-6.73-12.99-9.02zm-42.278 5.985l18.29-10.56 38.93 67.43-18.29 10.56z" fill="#8e8c86"/><path d="M101.76 126c3.87 5.51 9.89 20.73 16.56 23.25 7-.78-3.39-14.79 14.31-12l-19.62-34-17.67 10.19c2.29 4.09 4.29 8.37 6.42 12.56z" fill="#cccbca"/><path d="M125.05 130.71c6 14.92 13.78 29 20.7 43.53l4.1-2.37c-4-8.42-10.61-15.33-13.32-24.36-4.53-10.53-12.39-19-17.25-29.39 1.9 4.2 3.92 8.35 5.77 12.59zm12.09 30.54c-9.69-18.28-17.24-38.67-26.46-56.57l-.05-.07-.63.39c11.53 23.35 20.32 47.93 33.25 70.7l.79-.45c-2.23-4.72-4.55-9.37-6.9-14zm-10.83 5.65c-7.32-19.55-21.38-35.15-29.44-54.35l-2.15 1.24 38.93 67.43.46-.26a110.09 110.09 0 01-7.8-14.06z" fill="#262521"/><path fill="#262521" d="M130.232 168.98l16.015-.88 2.56 46.519-16.015.881zM328.6 99.79l37.855-56.248 17.522 11.792-37.855 56.248z"/><path d="M337.45 95.89c6.2-13.43 19-24.25 20.49-39.63l-29.32 43.55 7.61 5.12a16.37 16.37 0 011.22-9.04z" fill="#545350"/><path fill="#5e5e5b" d="M310.607 107.223l12.047-15.677 56.083 43.097-12.046 15.676z"/><path d="M324.92 96.44c3.14 7.23 32.73 21.69 29.45 25.22-9.49-.62-16.93-9-24.62-13.9 4.24 5.15 11.57 7.48 14.77 13.42-2.21 6.38-15-7.57-18.57-9 7 7.93 16.74 13.27 25.9 18.37-8.2-9-1.64-9.55 5.29-3.56 0-1.42-1.55-3.69.09-4.48 3-.64 5.63-.13 7.52 2.41 3.93 6.9 12.67 15.17-2.17 8 2.74 3.92 7.93 4.87 11.36 7.87l.43-.56c-2.57-5.06-4.12-10.52-7.77-15l-44-33.78-1.07 1.55a25.44 25.44 0 013.39 3.44z" fill="#8e8c86"/><path fill="#262521" d="M352.842 197.593l12.046-15.676 56.084 43.097-12.046 15.676z"/><path d="M359.7 201.81c4.16 1.17 7.4 5 11.49 6.22-1.12-2.65-18.1-13.75-12.82-15 2.84.63 4.61 3.74 7.3 4.55-4.29-6.37-3.8-10.29 3.46-4.43-1.49-1.58-6.12-9-2-9.06a60.43 60.43 0 006.77 4.75l-9-6.92-12.06 15.68 5.86 4.5a1.07 1.07 0 011-.29z" fill="#545350"/><path fill="#262521" d="M199.898 69.87l16.955-12.592 35.63 47.977-16.955 12.592z"/><path d="M236.49 100.4a14.12 14.12 0 00-1.5 4.11c3-4.08 4.87-9.23 6.54-14l-2.34-3.15a20.5 20.5 0 01-2.7 13.04z" fill="#cccbca"/><path fill="#262521" d="M199.898 69.87l16.955-12.592 35.63 47.977-16.955 12.592zm-24.38 50.206l16.956-12.592 78.183 105.274L253.7 225.35z"/><path d="M201.88 155c9.61 3.1-2.29-20.35 10.12-21.16l-19.53-26.3-16.95 12.59c.72.33 25.21 35.05 26.36 34.87zm97.703 152.71l14.498-57.974 20.489 5.124-14.498 57.974z" fill="#545350"/><path d="M324.53 252.33l-10.47-2.62-6.72 26.89c6.66-7.49 14.78-14.78 17.19-24.27z" fill="#8e8c86"/><path fill="#262521" d="M330.237 297.578l19.59-7.89 22.33 55.431-19.591 7.891z"/><path fill="#8e8c86" d="M175.395 118.253l73.748-66.66 14.163 15.668-73.749 66.66z"/><path d="M199.94 117.27a38 38 0 002.59-3.59c.33-2.73 3.5-2.88 3.39-6.19-6 3-12.13 4.14-15.85 10.15-1.07 1.64-6.65 7.48-7.55 3.66 6-8.66 14.42-15.84 18.33-26.08l-25.46 23 8.85 9.79c4.99-4.01 10.57-6.94 15.7-10.74z" fill="#262521"/><path d="M254.11 57.06c-17.8 28.15-40.28 54.47-68.53 72.44l4 4.4 73.72-66.67z" fill="#262521"/><path fill="#cccbca" d="M212.826 67.788l59.249-7.8 2.756 20.94-59.248 7.8z"/><path fill="#262521" d="M133.835 140.797l25.322-54.13 19.13 8.95-25.322 54.13z"/><path d="M171.79 102.07c-5.37 1.25-4.16 8.94-2.54 12.85l5.75-12.33a8.28 8.28 0 00-3.21-.52z" fill="#545350"/><path fill="#cccbca" d="M127.098 173.039l5.124-20.49 60.914 15.234-5.123 20.489z"/><path d="M180.61 172.8a49 49 0 0011.11.6l1.41-5.63-60.91-15.23-1.12 4.46c17.29 2.75 32.26 12.08 49.51 15.8zm-28.17-2.33c-8.74.36-14.62-7.11-22.3-9.64l-.73 2.93c4.75 4.46 11.11 7.47 14.28 13.41l8.38 2.1c2.37-3.87 10.18-9.94.37-8.8z" fill="#8e8c86"/><path d="M152.07 171.13c-8.8 1.64-15.1-5.47-22.49-8l-.16.62c5.13 5.12 13.74 7 16.64 14l1.86.47c1.47-2.41 3.54-4.45 4.53-7.13z" fill="#262521"/><path d="M186.63 173.88a40.1 40.1 0 00-11.63 1.28c-3.76 1-11.48-.47-15 1.18-1.6.75 1.11 4.39-.57 4.78l28.57 7.13 3.46-13.85a37.3 37.3 0 00-4.83-.52z" fill="#8e8c86"/><path fill="#262521" d="M99.245 106.666l63.912-64.427 14.993 14.874-63.911 64.427z"/><path d="M104.19 111.56c4.79-2.26 6.33-9 3.42-13.33l-8.37 8.43z" fill="#545350"/><path d="M159.07 160.29c11 3.74 21 12.16 32.91 12.08l1.15-4.6-40.44-10.11c2.15.82 4.31 1.72 6.38 2.63zm3.93 10.17c-11.5-1.28-21.34-9.11-32.85-9.69l-.09.37c7 1.37 13 6 20.21 6.92 15.56 3.5 8.36 2.18 2.16 11.3l.91.23c2.22-4.75 7.69-6.31 12-8.74a21.61 21.61 0 00-2.34-.39zm24.28 8.71a20.53 20.53 0 00-3.64-.65c2.4 5.13-8.37-1.55-10.28-1.51 1.12 1.77 15.79 6.87 10.42 8.36-6.06-1.2-13.12-6-19.17-3l23.4 5.85 2.16-8.63c-.95-.19-1.94-.29-2.89-.42z" fill="#262521"/><path d="M223.83 80.72a193 193 0 0040-4" fill="#545350"/><path d="M224.82 84.78c4.79-.46 9.77.76 14.37-.65 7-3.53 14.88-3.63 22.55-4.52" fill="#8e8c86"/><path fill="#262521" d="M331.9 73.53l14.933-14.935 42.257 42.257-14.934 14.934z"/><path d="M375 86.75c-8.53.86-8.67 8.76-3.69 14.09 3.76 3.64 4.28 8.83.78 12.86l2.08 2.08 14.93-14.93z" fill="#5e5e5b"/><path d="M226.73 279.11c-6.32 3.23-.59-4.62.05-7.05l-17.73 13.16 2.86 3.85c4.69-3.7 10.63-5.41 15.11-9.39a1 1 0 01-.29-.57zM249.05 259c-2.78 1.24-5.57 2.9-8.58 2.85l-6.47 4.82c.85 1.3 0 3.1-.68 4.34a1.13 1.13 0 011.76.74 256.41 256.41 0 0123.75-16.17 49.38 49.38 0 00-9.78 3.42zm-29.19 28.81c.73-.75 1.39-1.56 2-2.36-2.93 1.68-6.12 3.06-8.83 5.2l1.75 2.34a45.54 45.54 0 015.08-5.18zm27.94-20.34c4.92-3.43 9.33-7.85 14.79-10.39l-.54-.73a162.54 162.54 0 00-26.91 18c4.15-2.35 8.7-4.13 12.66-6.88zm-18.33 16.25C242 276.84 253.23 268 264.72 260l-.92-1.25c-5.58 2.43-10 7-15 10.48-6 4.2-13.51 6-18.64 11.49a.91.91 0 01-1.35 0c-.4.34-.8.68-1.22 1a.93.93 0 01-.35 1.28c-2.51 1.51-4 4.21-6 6.25 2.76-1.9 5.42-3.81 8.23-5.53zm5.06 4.89c3.54-2.64 6.61-6 10.21-8.51-7.92 1.56-13.45 7.86-19 13.22 2.98-1.48 6.09-2.7 8.79-4.71zm-12.33 8.89c-.93.56-1.84 1.13-2.73 1.75l2.17 2.93 6.18-4.59c-1.82.02-3.76-.05-5.62-.09zm8.45-2.01L254.2 278c-1 .29-2 .53-2.95.75-9.32 4.3-15.58 13.45-25.59 16.85a48.7 48.7 0 004.99-.11z" fill="#262521"/></g><circle cx="241.83" cy="104.02" r="2.94" fill="#cccbca"/><circle cx="241.83" cy="167.5" r="2.94" fill="#cccbca"/><circle cx="243.29" cy="249.18" r="2.94" fill="#cccbca"/><circle cx="246.23" cy="332.87" r="2.94" fill="#cccbca"/><circle cx="248.76" cy="416.99" r="2.94" fill="#cccbca"/><path d="M194.63 35.75s2.71 30.67 49.72 41.46m48.75-41.46s-.9 32.82-48.1 41.46" fill="none" stroke="#636363" stroke-linecap="round" stroke-linejoin="round"/><path d="M310.6 53.87l-28.75 51.06S263.63 83.55 245 77.21m-64.39-20.49l27.56 48.21s17.54-21.38 36.18-27.72m-10.47 5.23l7.52 386.89" fill="none" stroke="#636363" stroke-linecap="round" stroke-linejoin="round"/></svg>