<svg xmlns="http://www.w3.org/2000/svg" width="500" height="550" viewBox="0 0 500 550"><defs><clipPath id="a"><path d="M372.14 291.55q-.27 61.74-.62 123.47c-.81 9-2.68 16.41-3.55 25.44-.44 4.56-48.36 4.35-101.94 4.33-64.71 0-137.18-.59-137.67-2.63-11.05-45.91-2.34-104-4.55-151.13-1.42 2.83 18.95-140.71-10.59-207.85C140.54 65 162.7 63 193.13 52c.8-.25 3.29 53.77 52.53 52.47 58.13-1.53 54.9-53.59 54.9-53.59 29.12 10.5 52 12.16 78.36 29.33-20.6 67.5-5.87 218.51-6.37 211.26z" fill="none"/></clipPath></defs><path d="M203.52 97.3c8.68 9.61 67.43 10.58 79.89 10.78 13 .21 32.67-43.61 34.06-50 .1-.45.18-.91.28-1.37-8.86-2.46-17.68-5-26.27-8.07-3.67-1.54-5 3.72-7.87 5-17.36 10.41-39.46 7.29-58.61 4.86-7.1-1.26-13.56-4.12-18.56-9.67a3.16 3.16 0 00-2.72-.43c-5.64 2-11.36 3.9-17.1 5.68.76 3.28 11.49 37.21 16.9 43.22z" fill="#262521"/><path d="M372.14 291.55q-.27 61.74-.62 123.47c-.81 9-2.68 16.41-3.55 25.44-1 10.07 1.34 17.05-1.5 25.63-.59 1.77-2 1.67-3.35 1.44-44.59-7.74-101.66-5.72-146.65-2.92-24.6.57-58.62-1.68-83 2.09-5.23.59-5.68.27-6.62-4.83-1.35-11.26 1.94-18.53.53-29.31-6.15-46.82-1.39-94.37-3.6-141.53-1.42 2.83-2.94 5.6-4.29 8.46-2.37 10.67-17.5 9.3-11.81 16.18 11.11 7.95 6.41 21.38 5.15 32.56-.25 3.15-1.35 6.27-.37 9.58.51 8.44-3.19 16.94-4.38 25.31-1.5 8-10.42 41.28-11.86 49.29-.57 3.18-.61 3-3.74 2-12.38-3.52-26.09-4.38-38.6-1.18-1.39.34-2.11 0-2.41-1.47-2-7.76.82-16.67-5.49-22.43a6.62 6.62 0 01-1.33-3.22c-2.23-11-6.07-22.12-5.72-33.3-1.91-63 2.6-126.93 26.19-186 13.61-35.43 24.56-73.32 48.07-103.67 27.32-18.2 60-23.76 90.46-34.78.8-.26 4.93 46.66 41.09 46.66 46.16 0 44-48.47 47.71-46.93 29.12 10.49 60 14.91 86.44 32.08 15.94 14.59 21.63 38 30.45 57.21 27.81 67.48 58 137.39 51.05 212.08-1.19 18.65-.23 37.45-3.28 55.95-.49 4.66-5.21 7.09-5.56 11.78-1.22 5.28-2.08 10.65-2.91 16-.4 2.6-.41 2.83-3.08 2.33-12.48-2.66-25.26-5.49-37.8-1.58-8.34-.15-8.13-15.56-11.44-21.4-6.28-7.37-3.61-9-5.33-17.64-.9-9.7-4.68-20.27.79-29.26 2-3.53 1.86-7.05.51-10.66-4.9-11.28-7.4-23.41-10.45-35.29-1.07-4.3-1.31-8.49 1.61-12.34 1.51-7.23-10.43-8.68-10.93-15.93z" fill="#262521"/><g clip-path="url(#a)" fill="#353430"><path d="M90.25 123.65h310.02v6.26H90.25zM90.25 114.64h310.02v6.26H90.25zM90.25 105.77h310.02v6.26H90.25zM90.25 96.68h310.02v6.26H90.25zM90.25 87.82h310.02v6.26H90.25zM90.25 78.73h310.02v6.26H90.25zM90.25 69.87h310.02v6.26H90.25zM90.25 60.78h310.02v6.26H90.25zM90.25 51.92h310.02v6.26H90.25zM90.25 195.24h310.02v6.26H90.25zM90.25 186.22h310.02v6.26H90.25zM90.25 177.36h310.02v6.26H90.25zM90.25 168.27h310.02v6.26H90.25zM90.25 159.41h310.02v6.26H90.25zM90.25 150.32h310.02v6.26H90.25zM90.25 141.45h310.02v6.26H90.25zM90.25 132.36h310.02v6.26H90.25zM90.25 266.76h310.02v6.26H90.25zM90.25 257.75h310.02v6.26H90.25zM90.25 248.88h310.02v6.26H90.25zM90.25 239.79h310.02v6.26H90.25zM90.25 230.93h310.02v6.26H90.25zM90.25 221.84h310.02v6.26H90.25zM90.25 212.98h310.02v6.26H90.25zM90.25 203.89h310.02v6.26H90.25zM90.25 338.35h310.02v6.26H90.25zM90.25 329.33h310.02v6.26H90.25zM90.25 320.47h310.02v6.26H90.25zM90.25 311.38h310.02v6.26H90.25zM90.25 302.51h310.02v6.26H90.25zM90.25 293.42h310.02v6.26H90.25zM90.25 284.56h310.02v6.26H90.25zM90.25 275.47h310.02v6.26H90.25zM90.25 347.71h310.02v6.26H90.25zM90.25 419.23h310.02v6.26H90.25zM90.25 410.21h310.02v6.26H90.25zM90.25 401.35h310.02v6.26H90.25zM90.25 392.26h310.02v6.26H90.25zM90.25 383.4h310.02v6.26H90.25zM90.25 374.31h310.02v6.26H90.25zM90.25 365.45h310.02v6.26H90.25zM90.25 356.35h310.02v6.26H90.25zM90.25 490.82h310.02v6.26H90.25zM90.25 481.8h310.02v6.26H90.25zM90.25 472.94h310.02v6.26H90.25zM90.25 463.85h310.02v6.26H90.25zM90.25 454.98h310.02v6.26H90.25zM90.25 445.89h310.02v6.26H90.25zM90.25 437.03h310.02v6.26H90.25zM90.25 427.94h310.02v6.26H90.25z"/></g><path d="M372.14 291.55q-.27 61.74-.62 123.47c-.81 9-2.68 16.41-3.55 25.44-1 10.07 1.34 17.05-1.5 25.63-.59 1.77-2 1.67-3.35 1.44-44.59-7.74-101.66-5.72-146.65-2.92-24.6.57-58.62-1.68-83 2.09-5.23.59-5.68.27-6.62-4.83-1.35-11.26 1.94-18.53.53-29.31-6.15-46.82-1.39-94.37-3.6-141.53-1.42 2.83-2.94 5.6-4.29 8.46-2.37 10.67-17.5 9.3-11.81 16.18 11.11 7.95 6.41 21.38 5.15 32.56-.25 3.15-1.35 6.27-.37 9.58.51 8.44-3.19 16.94-4.38 25.31-1.5 8-10.42 41.28-11.86 49.29-.57 3.18-.61 3-3.74 2-12.38-3.52-26.09-4.38-38.6-1.18-1.39.34-2.11 0-2.41-1.47-2-7.76.82-16.67-5.49-22.43a6.62 6.62 0 01-1.33-3.22c-2.23-11-6.07-22.12-5.72-33.3-1.91-63 2.6-126.93 26.19-186 13.61-35.43 24.56-73.32 48.07-103.67 27.32-18.2 60-23.76 90.46-34.78a3.16 3.16 0 012.72.43c5 5.55 11.46 8.41 18.56 9.67 19.19 2.43 41.29 5.55 58.65-4.88 2.85-1.27 4.2-6.53 7.87-5 29.12 10.49 61 14.41 87.44 31.58 15.94 14.59 21.63 38 30.45 57.21 27.81 67.48 58 137.39 51.05 212.08-1.19 18.65-.23 37.45-3.28 55.95-.49 4.66-5.21 7.09-5.56 11.78-1.22 5.28-2.08 10.65-2.91 16-.4 2.6-.41 2.83-3.08 2.33-12.48-2.66-25.26-5.49-37.8-1.58-8.34-.15-8.13-15.56-11.44-21.4-6.28-7.37-3.61-9-5.33-17.64-.9-9.7-4.68-20.27.79-29.26 2-3.53 1.86-7.05.51-10.66-4.9-11.28-7.4-23.41-10.45-35.29-1.07-4.3-1.31-8.49 1.61-12.34 1.51-7.23-10.43-8.68-10.93-15.93z" fill="none" stroke="#262521" stroke-linecap="round" stroke-linejoin="round" stroke-width="3"/><path d="M204.41 48.28s4 48.55 43.68 46.73 42.84-45.41 42.84-45.41" fill="none" stroke="#636363" stroke-linecap="round" stroke-linejoin="round"/></svg>