<svg xmlns="http://www.w3.org/2000/svg" width="500" height="550" viewBox="0 0 500 550"><defs><clipPath id="a"><path d="M222.52 86.25c-14.26-14.68-18-38.48-18.59-38.3-30.43 11-63.14 16.58-90.46 34.78 4 20 8.88 61.37 8.33 98.12 1.8 14.88-2.22 43.36-.91 55.09 5.41 48.52 2.46 56.06 3.17 54.64 1.48 31.59-2.67 62.57-2.07 93.43.07 3.71 58.45 10.3 68-18C212 278.54 222.52 86.25 222.52 86.25z" fill="none"/></clipPath><clipPath id="b"><path d="M275.83 87.25c14.26-14.68 19.54-38 20.09-37.8 30.43 11 59.14 15.58 86.46 33.78-4 20-11.6 68.69-11.05 105.43-1.81 14.88 1.4 36 1.13 47.78-1.13 49.45 1 56.06.33 54.64-1.48 31.59.51 59.49.71 90.36 0 2.13-44.21 16.57-53.76-11.72-21.98-87.48-43.91-282.47-43.91-282.47z" fill="none"/></clipPath></defs><path d="M365.52 267.36c1.28-44.86-3 210.86-5 212.19-3.28 2.19-151.41 0-167.06-3.27s-53.14 5-57.87 4.15-5.46-19.89-3.64-27.53 1.36-185.54 1.36-185.54z" fill="#262521" stroke="#262521" stroke-linecap="round" stroke-linejoin="round" stroke-width="3"/><path d="M42.57 391.34c.33 1.23.67 2.62 1 4.24a6.66 6.66 0 001.33 3.22c6.31 5.75 4.57 25.25 6.6 33 .3 1.47 1 1.81 2.41 1.47 12.51-3.2 26.22-2.34 38.6 1.18 3.13 1 3.17 1.13 3.74-2 1.13-6.28 6.85-28.09 10-41.07zm330.03 13.35H122.76c.38 5.33.91 10.77 1.65 16.37 1.41 10.78-1.88 20.56-.53 31.81.94 5.1 1.39 5.42 6.62 4.83 24.35-3.77 61.37-1.52 86-2.09 45-2.8 104.07-4.82 148.65 2.92 1.35.23 2.76.33 3.35-1.43 2.84-8.59.53-25.57 1.5-35.64.59-6.46 1.71-11.28 2.6-16.77zM244 122.37c5.32-4 63.28-56.39 47.48-73.74-3.67-1.54-8.75-10-18.88-11.48s-39.05-1.76-50.68.49A31.38 31.38 0 00206 46.2c-16.67 17.01 33.63 69.58 38 76.17zm147.73 268.55c.27 2.63 1 4.93 4.44 8.9 3.31 5.84 3.28 32.52 11.62 32.67 12.54-3.91 27.32-1.08 39.8 1.58 2.67.5 2.68.27 3.08-2.33.83-5.36 1.51-22 2.73-27.28.35-4.68 3.07-7.12 3.56-11.78.1-.6-65.23-1.76-65.23-1.76z" fill="#262521"/><path d="M206.32 49s33.81 31.23 82 1.07" fill="none" stroke="#636363" stroke-linecap="round" stroke-linejoin="round"/><path d="M409.62 138c-23.13-73.74-52-67.48-116.89-89.29-3.67-1.53 1.85 49.83-44.3 49.83-36.16 0-43.7-49.81-44.5-49.56-30.43 11-63.14 16.58-90.46 34.78C57.23 174.08 26 289.79 43.48 395.56c9.06 2.67 18.66-1 27.92-.79 11.19-.23 22.84 1.26 32.71 6.76 5-20.71 8.64-33.16 9-52.75 1.26-11.17 6-24.61-5.15-32.55-5.69-6.89 9.45-5.51 11.81-16.19 1.35-2.85 2.87-5.63 4.29-8.46 2.17 46.44-5.4 81.84.33 127.89 24.18 3.58 49.3 1.56 73.57-.17 2.54-.17-10.69 34.39-12 36.91 1.82-.1 38.87.25 40.69.17 8.89-.39 34.47-172.87 34.47-172.87s26.15 170.42 36.79 170.42h19.75c-4.32-7.72-15.56-35.45-12.46-35.43 21.65.21 43.65 1.26 64.82 6.28 7.68-47.68 1.19-84.73 2.35-132.67l.41-.08c.5 7.24 12.44 8.69 10.93 15.92-6.39 7.55 4.34 35.14 7.58 44.57 1.35 3.61 2.77 8.69.75 12.22-5.47 9-1.87 8.29-1 18 1.64 8.26-.69 10.11 4.53 16.65 19.83-.38 39.62-5.82 59.08 1.35 22.14-90.08-8.95-180.59-45.03-262.74z" fill="#d1c8c7"/><g clip-path="url(#a)" fill="none" stroke="#998f8f" stroke-linecap="round" stroke-linejoin="round"><path d="M223.03 23.94l-34.39 368.19m19.38-363.31l-33.94 363.43m41.8-368.31l-34.4 368.19M193.5 28.82l-33.95 363.43m41.81-368.31l-34.4 368.19M179 28.82l-33.95 363.43m41.8-368.31l-34.39 368.19m12.02-363.31l-33.95 363.43m41.8-368.31l-34.39 368.19m11.89-363.31l-33.95 363.43m41.8-368.31l-34.39 368.19m12.02-363.31l-13.47 144.22m21.32-149.1l-34.39 368.19m18.94-363.31L93.76 392.25m27.28-368.31L86.65 392.13m237.54-144.56l-369.5-14.6m364.3-12.24l-364.73-14.41m369.78 28.15l-369.5-14.61m364.15-25.72l-364.73-14.41m369.78 28.15l-369.5-14.61m364.15-25.68l-364.73-14.42m369.78 28.15l-369.5-14.6M318.09 141l-364.73-14.42m369.78 28.15l-369.51-14.6m370.56 200.03l-369.5-14.61m364.3-12.24L-45.74 298.9m369.78 28.15l-369.5-14.6m364.15-25.73l-364.73-14.41m369.78 28.15l-369.5-14.6m364.75 80.66L-45.74 352.1m369.78 28.15l-369.5-14.6m369.2-11.99l-369.5-14.6m364.15-78.89l-364.73-14.41m369.78 28.15l-369.5-14.61m363.84-145.13L-46.94 99.76m369.77 28.15l-369.5-14.6m364.15-25.73L-47.25 73.17m369.78 28.15l-369.5-14.6m364.3-13.05L-47.4 59.26m369.48 1.56L-47.43 46.21"/></g><g clip-path="url(#b)" fill="none" stroke="#998f8f" stroke-linecap="round" stroke-linejoin="round"><path d="M275.81 24.44l34.4 368.19M290.82 29.32l33.95 363.43m-41.8-368.31l34.39 368.19M305.35 29.32l33.94 363.43m-41.8-368.31l34.4 368.19M319.85 29.32l33.95 363.43M311.99 24.44l34.4 368.19M334.37 29.32l33.95 363.43m-41.8-368.31l34.39 368.19M349.02 29.32l33.95 363.43m-41.8-368.31l34.39 368.19M363.54 29.32l33.95 363.43m-41.8-368.31l34.39 368.19M371.14 29.32l33.95 363.43M377.81 24.44l34.39 368.19M174.66 248.07l369.5-14.6m-364.3-12.24l364.73-14.41m-369.78 28.15l369.5-14.61m-364.15-25.72l364.73-14.41m-369.78 28.15l369.5-14.61m-364.15-25.68l364.73-14.42m-369.78 28.15l369.5-14.6M180.76 141.5l364.73-14.42m-369.78 28.15l369.5-14.6M174.66 340.66l369.5-14.61m-364.3-12.24l364.73-14.41m-369.78 28.15l369.5-14.6m-364.15-25.73l364.73-14.41m-369.78 28.15l369.5-14.6m-364.75 80.66l364.73-14.42m-369.78 28.15l369.5-14.6m-369.2-11.99l369.5-14.6m-364.15-78.89l364.73-14.41m-369.78 28.15l369.5-14.61M181.06 114.67l364.73-14.41m-369.78 28.15l369.51-14.6M181.36 88.08l364.73-14.41m-369.78 28.15l369.51-14.6m-364.3-13.05l364.73-14.41m-369.48 1.56l369.51-14.61"/></g><path d="M130.5 457.7c-5.23.59-5.68.27-6.62-4.83-1.35-11.25 1.94-21 .53-31.81-6.15-46.81 1.61-82.87-.6-130-1.42 2.83-2.94 5.6-4.29 8.46-2.37 10.68-17.5 9.3-11.81 16.18 11.11 7.95 6.41 21.38 5.15 32.56-.25 3.15-1.35 6.27-.37 9.58.51 8.44-3.19 16.94-4.38 25.31-1.5 8-10.42 41.28-11.86 49.29-.57 3.18-.61 3-3.74 2-12.38-3.52-26.09-4.38-38.6-1.18-1.39.34-2.11 0-2.41-1.47-2-7.76-.29-27.26-6.6-33-.76-.77-6.29-14.75-5.94-25.94-1.91-63 2.6-126.93 26.19-186 13.61-35.44 24.56-73.33 48.07-103.68 27.32-18.2 60-23.75 90.46-34.78.8-.26 6.6-8.51 18.24-10.76s40.54-2 50.68-.49 15.21 9.94 18.88 11.48c29.12 10.49 61 14.41 87.44 31.58 15.94 14.59 21.63 38 30.45 57.21 27.81 67.48 58 137.39 51.05 212.08-1.19 18.65-.41 24.68-3.46 43.18-.49 4.66-3.21 7.1-3.56 11.78-1.22 5.28-1.9 21.92-2.73 27.28-.4 2.6-.41 2.83-3.08 2.33-12.48-2.66-27.26-5.49-39.8-1.58-8.34-.15-8.31-26.83-11.62-32.67-6.28-7.37-3.61-9-5.33-17.64-.9-9.7-4.5-9 1-18 2-3.53.6-8.61-.75-12.22-4.9-11.28-6.14-20.35-9.19-32.23-1.07-4.3-1.31-8.49 1.61-12.34 1.51-7.23-10.43-8.68-10.93-15.92l-.41.08c-.18 41.15 1.58 64.81 1.38 106-.81 9-2.68 14.91-3.55 23.94-1 10.07 1.34 27.05-1.5 35.64-.59 1.76-2 1.66-3.35 1.43" fill="none" stroke="#262521" stroke-linecap="round" stroke-linejoin="round" stroke-width="3"/><path d="M183.48 455.51c-17.39-.16-38.42-.07-53 2.19m237.99-.6c-.59 1.76-2 1.66-3.35 1.43-13.54-2.35-30.23-3.8-45.38-4.6" fill="none" stroke="#636363" stroke-linecap="round" stroke-linejoin="round"/><path d="M121.8 180.85s2.11 28.61 0 44.24.11 29.7.11 32.88 1.9 33.06 1.9 33.06m247.52-102.37s1.59 62.14.81 102.9M291.48 48.63s-4.1 41.23-41.48 46.2-46.32-46.43-46.32-46.43" fill="none" stroke="#262521" stroke-linecap="round" stroke-linejoin="round" stroke-width="3"/><path fill="none" stroke="#262521" stroke-linecap="round" stroke-linejoin="round" stroke-width="5" d="M250 95.33v104.39"/><path d="M252.82 97.35s9.65-48.35 30.83-54.72l12 10.18s-11.34 48.67-42.83 44.54zm-5.74.25S234.81 47.3 213.63 41l-11.94 9.18s13.9 51.55 45.39 47.42z" fill="#262521" stroke="#262521" stroke-linecap="round" stroke-linejoin="round" stroke-width="3"/><path d="M252.82 97.35s9.65-48.35 30.83-54.72M247.08 97.6S234.81 47.3 213.63 41" fill="none" stroke="#636363" stroke-linecap="round" stroke-linejoin="round"/><path d="M250.5 199.72s-20.63 202.93-44.18 256" fill="none" stroke="#262521" stroke-linecap="round" stroke-linejoin="round" stroke-width="2" stroke-dasharray="1 3"/><path d="M249 198.48s-21.15 204.17-44.7 257.23" fill="none" stroke="#262521" stroke-linecap="round" stroke-linejoin="round" stroke-width="2"/><path d="M249.75 199.72s21.13 200.43 44.68 253.49" fill="none" stroke="#262521" stroke-linecap="round" stroke-linejoin="round" stroke-width="2" stroke-dasharray="1 3"/><path d="M251.23 198.48s21.65 201.67 45.2 254.73" fill="none" stroke="#262521" stroke-linecap="round" stroke-linejoin="round" stroke-width="2"/><path d="M251.45 200.7h-3a1.49 1.49 0 00-1.35 1.24c-.2 3.51-.39 7-.59 10.54 0 .5-.05 1-.08 1.5a1.54 1.54 0 001.61 1.75h4.38a1.36 1.36 0 001.12-.69l.05-.1a.88.88 0 00.09-.2.13.13 0 000-.06 1.6 1.6 0 000-.21 1.62 1.62 0 000-.31c-.21-3.52-.42-7-.62-10.55l-.09-1.49a1.54 1.54 0 00-1.52-1.42zm.55 9.3v2.77a1 1 0 01-1 1h-1.5a1 1 0 01-1-1V210a1 1 0 011-1h1.51a1 1 0 01.99 1zm-.55-110.58h-3a1.5 1.5 0 00-1.35 1.24c-.2 3.52-.39 7-.59 10.55 0 .5-.05 1-.08 1.49a1.54 1.54 0 001.61 1.75h4.38a1.34 1.34 0 001.12-.69.31.31 0 00.05-.1.72.72 0 00.09-.2.13.13 0 000-.06 1.08 1.08 0 000-.21 1.56 1.56 0 000-.31c-.21-3.51-.42-7-.62-10.54l-.09-1.5a1.53 1.53 0 00-1.52-1.42zm.52 9.24v2.77a1 1 0 01-1 1h-1.5a1 1 0 01-1-1v-2.77a1 1 0 011-1h1.51a1 1 0 011.02 1z" fill="#51504d"/><path d="M275.83 89.34s31.54 284.13 50.82 293.07 45.68.25 45.68.25M222.52 88.34S204.76 353.64 186 374s-64 10-64 10" fill="none" stroke="#262521" stroke-linecap="round" stroke-linejoin="round" stroke-width="2"/><path fill="none" stroke="#262521" stroke-linecap="round" stroke-linejoin="round" stroke-width="5" d="M233.33 150.15l-7.83 73.45m40.82-73.45l7.83 73.45"/><path d="M226.9 223.24l-3-.23a1.52 1.52 0 00-1.44 1.14c-.46 3.49-.91 7-1.37 10.47-.07.49-.13 1-.2 1.48a1.54 1.54 0 001.47 1.87l4.37.32a1.35 1.35 0 001.17-.6v-.14a.75.75 0 00.1-.2 1.72 1.72 0 00.07-.21 1.63 1.63 0 000-.31c.06-3.52.13-7 .19-10.56v-1.5a1.52 1.52 0 00-1.36-1.53zm-.18 9.26l-.25 2.76a1 1 0 01-1.09.9l-1.5-.14a1 1 0 01-.9-1.08l.25-2.76a1 1 0 011.09-.91l1.49.14a1 1 0 01.91 1.09zm44.81-7.78v1.5l.18 10.56a1.1 1.1 0 000 .31.83.83 0 00.06.21 1.24 1.24 0 00.1.2l.06.09v.05a1.36 1.36 0 001.17.6l4.37-.32a1.53 1.53 0 001.47-1.87c-.06-.49-.13-1-.19-1.48l-1.38-10.47a1.52 1.52 0 00-1.44-1.14l-3 .23a1.54 1.54 0 00-1.4 1.53zm2.6 6.69l1.49-.14a1 1 0 011.09.91l.25 2.76a1 1 0 01-.9 1.08l-1.5.14a1 1 0 01-1.08-.9l-.26-2.76a1 1 0 01.91-1.09z" fill="#51504d"/><path d="M113.67 87.35s8.68 44.27 8.17 88.54M382 87.35s-9.61 52.73-10.12 95.75" fill="none" stroke="#998f8f" stroke-linecap="round" stroke-linejoin="round"/></svg>