<svg xmlns="http://www.w3.org/2000/svg" width="500" height="550" viewBox="0 0 500 550"><defs><clipPath id="a"><path d="M429.05 181.51s-6-11-19.68-44.09c-8.82-19.22-14.51-42.62-30.45-57.21-26.39-17.21-44.09-18.79-73.21-29.29 0 0-6.48 62.22-58 61.54-52.8-.7-56.7-61-57.5-60.76-30.43 11-49.63 13.28-76.95 31.48C89.71 113.53 61.11 195 59.69 201.55c.89 1 35.75 24.78 35.75 24.78l24.86-38.53c3.51 33.49 2 59.88 3 62.07.14-.27 1.69 43.93.65 44 1.9 46.22-5.55 92.81.48 138.68 1.41 10.78-1.88 18.05-.53 29.31.94 5.1 1.39 5.42 6.62 4.82 24.35-3.76 61.37-1.51 86-2.08 45-2.8 106.06-4.82 150.65 2.92 1.35.23 2.76.33 3.35-1.44 2.84-8.58.53-15.56 1.5-25.63.87-9 2.74-16.47 3.55-25.44.2-41.15-3.56-82.31-3.38-123.47l.06-39.64c3.94-11-.4-58.95-.4-58.95s46.28 1.05 57.2-11.44z" fill="none"/></clipPath></defs><path d="M409.37 137.42c-8.82-19.22-14.51-42.62-30.45-57.21C352.53 63 320.6 59.12 291.48 48.63c-3.67-1.54-5 3.72-7.87 5-17.36 10.42-39.46 7.3-58.61 4.87-7.1-1.26-13.56-4.12-18.56-9.67a3.16 3.16 0 00-2.72-.43c-30.43 11-63.14 16.58-90.46 34.78-23.51 30.35-31.46 68.24-45.07 103.67-23.59 59.08-31.1 123-29.19 186-.35 11.18 3.49 22.28 5.72 33.3a6.62 6.62 0 001.28 3.23c6.31 5.76 3.46 14.67 5.49 22.43.3 1.47 1 1.81 2.41 1.47 12.51-3.2 26.22-2.34 38.6 1.18 3.13 1 3.17 1.13 3.74-2 1.44-8 10.36-41.32 11.86-49.29 1.19-8.37 4.89-16.87 4.38-25.31-1-3.31.12-6.43.37-9.58 1.26-11.18 6-24.61-5.15-32.56-5.69-6.88 7.44-7.51 9.81-18.18 1.35-2.86 4.87-6.63 6.29-9.46 2.12 45.28-4.94 93.69-.07 138.92h250.16c.63-3.86 1.25-7.73 1.63-11.93.2-41.15-3.56-82.31-3.38-123.47.13 0 .34-8.83.48-8.86.5 7.25 12.37 17.48 10.86 24.71-2.92 3.85-2.68 8-1.61 12.34 3.05 11.87 5.55 24 10.45 35.29 1.35 3.61 1.5 7.13-.51 10.66-5.47 9-1.69 19.56-.79 29.26 1.72 8.67-.95 10.27 5.33 17.64 1.84 3.25 2.59 9.46 4.34 14.36h.3a1 1 0 01.46 1.88c1.35 3 3.26 5.1 6.34 5.16 12.54-3.91 25.32-1.08 37.8 1.58 2.67.5 2.68.27 3.08-2.33.83-5.36 1.69-10.73 2.91-16 .35-4.69 4.07-7.12 4.56-11.78 3.05-18.5 1.09-37.8 2.28-56.46 6.95-74.74-21.24-144.15-49.05-211.63z" fill="#fff" stroke="#262521" stroke-linecap="round" stroke-linejoin="round" stroke-width="3"/><path d="M429.05 181.51s-6-11-19.68-44.09c-8.82-19.22-14.51-42.62-30.45-57.21-26.39-17.17-54-21.4-83.08-31.9 0 0-2.49 54.68-48.17 54.68s-47.19-54.85-48-54.59c-30.43 11-59.14 16.58-86.46 34.78-23.5 30.35-52.1 111.82-53.52 118.37 2.13 2.52 48.92 31.06 63.59 48.32.14-.27 1.69 43.93.65 44 1.9 46.22-5.55 92.81.48 138.68 1.41 10.78-1.88 18.05-.53 29.31.94 5.1 1.39 5.42 6.62 4.82 24.35-3.76 61.37-1.51 86-2.08 45-2.8 106.06-4.82 150.65 2.92 1.35.23 2.76.33 3.35-1.44 2.84-8.58.53-15.56 1.5-25.63.87-9 2.74-16.47 3.55-25.44.2-41.15-3.56-82.31-3.38-123.47l.06-39.64z" fill="#262521" stroke="#262521" stroke-linecap="round" stroke-linejoin="round" stroke-width="3"/><g clip-path="url(#a)" fill="none" stroke-linecap="round" stroke-linejoin="round" stroke-width="1.5"><path stroke="#b6b7b0" d="M227.17 336.72l-1.94 3.36-1.98-3.36M227.17 341.94l-1.94 3.36-1.98-3.36M227.17 347.14l-1.94 3.36-1.98-3.36M223.25 347.14l-1.94 3.36-1.98-3.36M219.33 347.14l-1.94 3.35M231.08 347.14l-1.93 3.36-1.98-3.36M231.08 352.06l-1.93 3.36-1.98-3.36M235.02 357.29l-1.93 3.36-1.99-3.36M223.25 352.06l-1.94 3.36-1.98-3.36M219.33 357.46l-1.94 3.36-1.98-3.36M215.41 357.46l-1.94 3.36-1.98-3.36M211.49 357.46l-1.94 3.36-1.98-3.36M207.57 357.46l-1.94 3.36-1.97-3.36M211.49 352.06l-1.94 3.36-1.98-3.36M207.57 352.06l-1.94 3.36-1.97-3.36M203.66 352.06l-1.94 3.36-1.98-3.36M250.68 352.06l-1.94 3.36-1.98-3.36M246.76 352.06l-1.94 3.36-1.98-3.36M242.84 352.06l-1.94 3.36-1.98-3.36M246.76 357.46l-1.94 3.36-1.98-3.36M242.84 357.46l-1.94 3.36-1.98-3.36M238.92 357.46l-1.94 3.36-1.98-3.36M242.84 362.78l-1.94 3.36-1.98-3.36M238.92 362.78l-1.94 3.36-1.98-3.36M238.94 368.16l-1.94 3.36-1.98-3.36M235.02 368.16l-1.93 3.36-1.99-3.36M231.08 368.16l-1.93 3.36-1.98-3.36M227.17 368.16l-1.94 3.36-1.98-3.36M223.25 368.16l-1.94 3.36-1.98-3.36M235.02 373.53l-1.93 3.36-1.99-3.36M231.08 373.53l-1.93 3.36-1.98-3.36M231.08 378.79l-1.93 3.36-1.98-3.36M227.17 373.53l-1.94 3.36-1.98-3.36M227.17 378.79l-1.94 3.36-1.98-3.36M223.25 378.79l-1.94 3.36-1.98-3.36M223.25 373.53l-1.94 3.36-1.98-3.36M219.33 373.53l-1.94 3.36-1.98-3.36M219.33 368.16l-1.94 3.36-1.98-3.36M215.41 368.16l-1.94 3.36-1.98-3.36M215.41 362.78l-1.94 3.36-1.98-3.36M211.49 362.78l-1.94 3.36-1.98-3.36M233.06 350.49l-1.98-3.35M223.25 336.72l-1.94 3.36-1.98-3.36M219.33 336.72l-1.94 3.36-1.98-3.36M215.41 336.72l-1.94 3.36-1.98-3.36M211.49 336.72l-1.94 3.36-1.98-3.36M211.49 341.94l-1.94 3.36-1.98-3.36M207.57 341.94l-1.94 3.36-1.97-3.36M207.57 347.14l-1.94 3.36-1.97-3.36M203.66 341.94l-1.94 3.36-1.98-3.36M250.68 341.94l-1.94 3.36-1.98-3.36M246.76 341.94l-1.94 3.36-1.98-3.36M246.76 347.14l-1.94 3.36-1.98-3.36M242.84 341.94l-1.94 3.36-1.98-3.36M242.84 336.72l-1.94 3.36-1.98-3.36M238.92 336.72l-1.94 3.36-1.98-3.36M235 336.72l-1.94 3.36-1.98-3.36M231.08 336.72l-1.93 3.36-1.98-3.36M321.23 336.72l-1.94 3.36-1.98-3.36M321.23 341.94l-1.94 3.36-1.98-3.36M321.23 347.14l-1.94 3.36-1.98-3.36M317.31 347.14l-1.94 3.36-1.98-3.36M313.39 347.14l-1.93 3.35"/><path stroke="#b6b7b0" d="M325.15 347.14l-1.94 3.36-1.98-3.36M325.15 352.06l-1.94 3.36-1.98-3.36M329.09 357.29l-1.94 3.36-1.98-3.36M317.31 352.06l-1.94 3.36-1.98-3.36M313.39 357.46l-1.93 3.36-1.98-3.36"/><path stroke="#b6b7b0" d="M309.48 357.46l-1.94 3.36-1.98-3.36M305.56 357.46l-1.94 3.36-1.98-3.36M301.64 357.46l-1.94 3.36-1.98-3.36M305.56 352.06l-1.94 3.36-1.98-3.36M301.64 352.06l-1.94 3.36-1.98-3.36"/><path stroke="#b6b7b0" d="M297.72 352.06l-1.94 3.36-1.98-3.36M344.74 352.06l-1.94 3.36-1.98-3.36M340.82 352.06l-1.94 3.36-1.98-3.36M336.9 352.06l-1.93 3.36-1.98-3.36M340.82 357.46l-1.94 3.36-1.98-3.36M336.9 357.46l-1.93 3.36-1.98-3.36"/><path stroke="#b6b7b0" d="M332.99 357.46l-1.94 3.36-1.98-3.36M336.9 362.78l-1.93 3.36-1.98-3.36"/><path stroke="#b6b7b0" d="M332.99 362.78l-1.94 3.36-1.98-3.36M333.01 368.16l-1.94 3.36-1.98-3.36M329.09 368.16l-1.94 3.36-1.98-3.36M325.15 368.16l-1.94 3.36-1.98-3.36"/><path stroke="#b6b7b0" d="M321.23 368.16l-1.94 3.36-1.98-3.36M317.31 368.16l-1.94 3.36-1.98-3.36M329.09 373.53l-1.94 3.36-1.98-3.36M325.15 373.53l-1.94 3.36-1.98-3.36M325.15 378.79l-1.94 3.36-1.98-3.36"/><path stroke="#b6b7b0" d="M321.23 373.53l-1.94 3.36-1.98-3.36M321.23 378.79l-1.94 3.36-1.98-3.36M317.31 378.79l-1.94 3.36-1.98-3.36M317.31 373.53l-1.94 3.36-1.98-3.36M313.39 373.53l-1.93 3.36-1.98-3.36M313.39 368.16l-1.93 3.36-1.98-3.36"/><path stroke="#b6b7b0" d="M309.48 368.16l-1.94 3.36-1.98-3.36M309.48 362.78l-1.94 3.36-1.98-3.36M305.56 362.78l-1.94 3.36-1.98-3.36M327.13 350.49l-1.98-3.35M317.31 336.72l-1.94 3.36-1.98-3.36M313.39 336.72l-1.93 3.36-1.98-3.36"/><path stroke="#b6b7b0" d="M309.48 336.72l-1.94 3.36-1.98-3.36M305.56 336.72l-1.94 3.36-1.98-3.36M305.56 341.94l-1.94 3.36-1.98-3.36M301.64 341.94l-1.94 3.36-1.98-3.36M301.64 347.14l-1.94 3.36-1.98-3.36"/><path stroke="#b6b7b0" d="M297.72 341.94l-1.94 3.36-1.98-3.36M344.74 341.94l-1.94 3.36-1.98-3.36M340.82 341.94l-1.94 3.36-1.98-3.36M340.82 347.14l-1.94 3.36-1.98-3.36M336.9 341.94l-1.93 3.36-1.98-3.36M336.9 336.72l-1.93 3.36-1.98-3.36"/><path stroke="#b6b7b0" d="M332.99 336.72l-1.94 3.36-1.98-3.36M329.07 336.72l-1.94 3.36-1.98-3.36M325.15 336.72l-1.94 3.36-1.98-3.36M415.32 336.72l-1.94 3.36-1.98-3.36M415.32 341.94l-1.94 3.36-1.98-3.36M415.32 347.14l-1.94 3.36-1.98-3.36M411.4 347.14l-1.94 3.36-1.98-3.36M407.48 347.14l-1.94 3.35M419.24 347.14l-1.94 3.36-1.98-3.36M419.24 352.06l-1.94 3.36-1.98-3.36M423.18 357.29l-1.94 3.36-1.98-3.36M411.4 352.06l-1.94 3.36-1.98-3.36M407.48 357.46l-1.94 3.36-1.98-3.36M403.56 357.46l-1.94 3.36-1.98-3.36M399.64 357.46l-1.94 3.36-1.98-3.36"/><path stroke="#b6b7b0" d="M395.72 357.46l-1.93 3.36-1.98-3.36M399.64 352.06l-1.94 3.36-1.98-3.36"/><path stroke="#b6b7b0" d="M395.72 352.06l-1.93 3.36-1.98-3.36M391.81 352.06l-1.94 3.36-1.98-3.36M438.83 352.06l-1.94 3.36-1.98-3.36"/><path stroke="#b6b7b0" d="M434.91 352.06l-1.94 3.36-1.98-3.36M430.99 352.06l-1.94 3.36-1.98-3.36M434.91 357.46l-1.94 3.36-1.98-3.36M430.99 357.46l-1.94 3.36-1.98-3.36M427.07 357.46l-1.94 3.36-1.98-3.36M430.99 362.78l-1.94 3.36-1.98-3.36M427.07 362.78l-1.94 3.36-1.98-3.36M427.09 368.16l-1.94 3.36-1.97-3.36"/><path stroke="#b6b7b0" d="M423.18 368.16l-1.94 3.36-1.98-3.36M419.24 368.16l-1.94 3.36-1.98-3.36M415.32 368.16l-1.94 3.36-1.98-3.36M411.4 368.16l-1.94 3.36-1.98-3.36M423.18 373.53l-1.94 3.36-1.98-3.36M419.24 373.53l-1.94 3.36-1.98-3.36M419.24 378.79l-1.94 3.36-1.98-3.36M415.32 373.53l-1.94 3.36-1.98-3.36M415.32 378.79l-1.94 3.36-1.98-3.36M411.4 378.79l-1.94 3.36-1.98-3.36M411.4 373.53l-1.94 3.36-1.98-3.36"/><path stroke="#b6b7b0" d="M407.48 373.53l-1.94 3.36-1.98-3.36M407.48 368.16l-1.94 3.36-1.98-3.36M403.56 368.16l-1.94 3.36-1.98-3.36M403.56 362.78l-1.94 3.36-1.98-3.36M399.64 362.78l-1.94 3.36-1.98-3.36M421.22 350.49l-1.98-3.35M411.4 336.72l-1.94 3.36-1.98-3.36"/><path stroke="#b6b7b0" d="M407.48 336.72l-1.94 3.36-1.98-3.36M403.56 336.72l-1.94 3.36-1.98-3.36M399.64 336.72l-1.94 3.36-1.98-3.36M399.64 341.94l-1.94 3.36-1.98-3.36"/><path stroke="#b6b7b0" d="M395.72 341.94l-1.93 3.36-1.98-3.36M395.72 347.14l-1.93 3.36-1.98-3.36M391.81 341.94l-1.94 3.36-1.98-3.36M438.83 341.94l-1.94 3.36-1.98-3.36"/><path stroke="#b6b7b0" d="M434.91 341.94l-1.94 3.36-1.98-3.36M434.91 347.14l-1.94 3.36-1.98-3.36M430.99 341.94l-1.94 3.36-1.98-3.36M430.99 336.72l-1.94 3.36-1.98-3.36M427.07 336.72l-1.94 3.36-1.98-3.36M423.15 336.72l-1.93 3.36-1.98-3.36"/><path stroke="#b6b7b0" d="M419.24 336.72l-1.94 3.36-1.98-3.36M246.76 378.79l1.94 3.36 1.98-3.36M242.84 378.79l1.94 3.36 1.98-3.36M238.92 378.79l1.94 3.36 1.98-3.36M258.51 368.16l1.94 3.36 1.98-3.36M262.43 368.16l1.94 3.36 1.98-3.36M258.51 373.53l1.94 3.36 1.98-3.36M262.43 373.53l1.94 3.36 1.98-3.36M274.21 383.98l1.94 3.36 1.98-3.36M270.27 383.98l1.94 3.36 1.98-3.36M248.7 376.89l1.98-3.36M250.68 373.53l1.94 3.36 1.97-3.36"/><path stroke="#b6b7b0" d="M254.59 373.53l1.94 3.36 1.98-3.36M266.35 368.16l1.94 3.36 1.98-3.36M248.7 371.52l1.98-3.36M250.68 368.16l1.94 3.36 1.97-3.36M254.59 368.16l1.94 3.36 1.98-3.36M254.59 336.72l1.94 3.36 1.98-3.36"/><path stroke="#b6b7b0" d="M258.51 336.72l1.94 3.36 1.98-3.36M258.51 341.94l1.94 3.36 1.98-3.36"/><path stroke="#b6b7b0" d="M254.59 341.94l1.94 3.36 1.98-3.36M250.68 341.94l1.94 3.36 1.97-3.36M262.43 341.94l1.94 3.36 1.98-3.36M262.43 347.14l1.94 3.36 1.98-3.36M266.35 347.14l1.94 3.36 1.98-3.36M266.35 352.06l1.94 3.36 1.98-3.36M270.27 357.46l1.94 3.36 1.98-3.36M258.51 357.46l1.94 3.36 1.98-3.36M266.37 362.78l1.94 3.36 1.98-3.36M254.59 362.78l1.94 3.36 1.98-3.36M258.54 362.78l1.93 3.36 1.98-3.36M297.72 378.79l-1.94 3.36-1.98-3.36"/><path stroke="#b6b7b0" d="M301.64 378.79l-1.94 3.36-1.98-3.36M305.56 378.79l-1.94 3.36-1.98-3.36M285.96 368.16l-1.93 3.36-1.98-3.36"/><path stroke="#b6b7b0" d="M282.05 368.16l-1.94 3.36-1.98-3.36M285.96 373.53l-1.93 3.36-1.98-3.36"/><path stroke="#b6b7b0" d="M282.05 373.53l-1.94 3.36-1.98-3.36M295.78 376.89l-1.98-3.36M293.8 373.53l-1.94 3.36-1.98-3.36M289.88 373.53l-1.94 3.36-1.98-3.36M278.13 368.16l-1.94 3.36-1.98-3.36M295.78 371.52l-1.98-3.36M293.8 368.16l-1.94 3.36-1.98-3.36M289.88 368.16l-1.94 3.36-1.98-3.36M289.88 336.72l-1.94 3.36-1.98-3.36M285.96 336.72l-1.93 3.36-1.98-3.36M285.96 341.94l-1.93 3.36-1.98-3.36M289.88 341.94l-1.94 3.36-1.98-3.36M293.8 341.94l-1.94 3.36-1.98-3.36"/><path stroke="#b6b7b0" d="M282.05 341.94l-1.94 3.36-1.98-3.36M282.05 347.14l-1.94 3.36-1.98-3.36M278.13 347.14l-1.94 3.36-1.98-3.36M278.13 352.06l-1.94 3.36-1.98-3.36M285.94 357.46l-1.94 3.36-1.98-3.36M278.11 362.78l-1.94 3.36-1.98-3.36M285.94 362.78l-1.94 3.36-1.98-3.36M289.88 362.78l-1.94 3.36-1.98-3.36M340.84 378.79l1.94 3.36 1.98-3.36"/><path stroke="#b6b7b0" d="M336.93 378.79l1.93 3.36 1.98-3.36M333.01 378.79l1.94 3.36 1.98-3.36M352.6 368.16l1.94 3.36 1.98-3.36"/><path stroke="#b6b7b0" d="M356.52 368.16l1.94 3.36 1.98-3.36M352.6 373.53l1.94 3.36 1.98-3.36"/><path stroke="#b6b7b0" d="M356.52 373.53l1.94 3.36 1.98-3.36M368.3 383.98l1.93 3.36 1.98-3.36M364.36 383.98l1.93 3.36 1.98-3.36M342.78 376.89l1.98-3.36M344.76 373.53l1.94 3.36 1.98-3.36M348.68 373.53l1.94 3.36 1.98-3.36M360.44 368.16l1.94 3.36 1.98-3.36M342.78 371.52l1.98-3.36M344.76 368.16l1.94 3.36 1.98-3.36M348.68 368.16l1.94 3.36 1.98-3.36M348.68 336.72l1.94 3.36 1.98-3.36M352.6 336.72l1.94 3.36 1.98-3.36M352.6 341.94l1.94 3.36 1.98-3.36M348.68 341.94l1.94 3.36 1.98-3.36M344.76 341.94l1.94 3.36 1.98-3.36"/><path stroke="#b6b7b0" d="M356.52 341.94l1.94 3.36 1.98-3.36M356.52 347.14l1.94 3.36 1.98-3.36M360.44 347.14l1.94 3.36 1.98-3.36M360.44 352.06l1.94 3.36 1.98-3.36M364.36 357.46l1.93 3.36 1.98-3.36M352.6 357.46l1.94 3.36 1.98-3.36M360.46 362.78l1.94 3.36 1.98-3.36M348.68 362.78l1.94 3.36 1.98-3.36M352.62 362.78l1.94 3.36 1.98-3.36M391.81 378.79l-1.94 3.36-1.98-3.36M395.72 378.79l-1.93 3.36-1.98-3.36"/><path stroke="#b6b7b0" d="M399.64 378.79l-1.94 3.36-1.98-3.36M380.05 368.16l-1.94 3.36-1.98-3.36M376.13 368.16l-1.94 3.36-1.98-3.36M380.05 373.53l-1.94 3.36-1.98-3.36M376.13 373.53l-1.94 3.36-1.98-3.36M389.87 376.89l-1.98-3.36M387.89 373.53l-1.94 3.36-1.98-3.36"/><path stroke="#b6b7b0" d="M383.97 373.53l-1.94 3.36-1.98-3.36M372.21 368.16l-1.94 3.36-1.97-3.36M389.87 371.52l-1.98-3.36M387.89 368.16l-1.94 3.36-1.98-3.36"/><path stroke="#b6b7b0" d="M383.97 368.16l-1.94 3.36-1.98-3.36M383.97 336.72l-1.94 3.36-1.98-3.36M380.05 336.72l-1.94 3.36-1.98-3.36M380.05 341.94l-1.94 3.36-1.98-3.36M383.97 341.94l-1.94 3.36-1.98-3.36"/><path stroke="#b6b7b0" d="M387.89 341.94l-1.94 3.36-1.98-3.36M376.13 341.94l-1.94 3.36-1.98-3.36M376.13 347.14l-1.94 3.36-1.98-3.36M372.21 347.14l-1.94 3.36-1.97-3.36M372.21 352.06l-1.94 3.36-1.97-3.36M380.03 357.46l-1.94 3.36-1.98-3.36M372.19 362.78l-1.94 3.36-1.98-3.36M380.03 362.78l-1.94 3.36-1.98-3.36M383.97 362.78l-1.94 3.36-1.98-3.36M133.08 336.72l-1.94 3.36-1.98-3.36M133.08 341.94l-1.94 3.36-1.98-3.36M133.08 347.14l-1.94 3.36-1.98-3.36M129.16 347.14l-1.94 3.36-1.98-3.36M125.24 347.14l-1.94 3.35M137 347.14l-1.94 3.36-1.98-3.36M137 352.06l-1.94 3.36-1.98-3.36M140.94 357.29l-1.94 3.36-1.98-3.36M129.16 352.06l-1.94 3.36-1.98-3.36M125.24 357.46l-1.93 3.36-1.99-3.36M121.32 357.46l-1.93 3.36-1.98-3.36"/><path stroke="#b6b7b0" d="M117.41 357.46l-1.94 3.36-1.98-3.36M113.49 357.46l-1.94 3.36-1.98-3.36M117.41 352.06l-1.94 3.36-1.98-3.36M113.49 352.06l-1.94 3.36-1.98-3.36M109.57 352.06l-1.94 3.36-1.98-3.36M156.59 352.06l-1.94 3.36-1.98-3.36M152.67 352.06l-1.94 3.36-1.98-3.36M148.75 352.06l-1.93 3.36-1.98-3.36M152.67 357.46l-1.94 3.36-1.98-3.36M148.75 357.46l-1.93 3.36-1.98-3.36M144.84 357.46l-1.94 3.36-1.98-3.36M148.75 362.78l-1.93 3.36-1.98-3.36M144.84 362.78l-1.94 3.36-1.98-3.36M144.86 368.16l-1.94 3.36-1.98-3.36M140.94 368.16l-1.94 3.36-1.98-3.36M137 368.16l-1.94 3.36-1.98-3.36M133.08 368.16l-1.94 3.36-1.98-3.36M129.16 368.16l-1.94 3.36-1.98-3.36M140.94 373.53l-1.94 3.36-1.98-3.36M137 373.53l-1.94 3.36-1.98-3.36M137 378.79l-1.94 3.36-1.98-3.36M133.08 373.53l-1.94 3.36-1.98-3.36M133.08 378.79l-1.94 3.36-1.98-3.36M129.16 378.79l-1.94 3.36-1.98-3.36M129.16 373.53l-1.94 3.36-1.98-3.36M125.24 373.53l-1.93 3.36-1.99-3.36M125.24 368.16l-1.93 3.36-1.99-3.36M121.32 368.16l-1.93 3.36-1.98-3.36M121.32 362.78l-1.93 3.36-1.98-3.36"/><path stroke="#b6b7b0" d="M117.41 362.78l-1.94 3.36-1.98-3.36M138.98 350.49l-1.98-3.35M129.16 336.72l-1.94 3.36-1.98-3.36M125.24 336.72l-1.93 3.36-1.99-3.36M121.32 336.72l-1.93 3.36-1.98-3.36"/><path stroke="#b6b7b0" d="M117.41 336.72l-1.94 3.36-1.98-3.36M117.41 341.94l-1.94 3.36-1.98-3.36M113.49 341.94l-1.94 3.36-1.98-3.36M113.49 347.14l-1.94 3.36-1.98-3.36M109.57 341.94l-1.94 3.36-1.98-3.36M156.59 341.94l-1.94 3.36-1.98-3.36M152.67 341.94l-1.94 3.36-1.98-3.36M152.67 347.14l-1.94 3.36-1.98-3.36M148.75 341.94l-1.93 3.36-1.98-3.36M148.75 336.72l-1.93 3.36-1.98-3.36M144.84 336.72l-1.94 3.36-1.98-3.36M140.92 336.72l-1.94 3.36-1.98-3.36M137 336.72l-1.94 3.36-1.98-3.36M58.61 378.79l1.94 3.36 1.98-3.36M54.69 378.79l1.94 3.36 1.98-3.36M50.77 378.79l1.94 3.36 1.98-3.36M70.36 368.16l1.94 3.36 1.98-3.36M74.28 368.16l1.94 3.36 1.98-3.36M70.36 373.53l1.94 3.36 1.98-3.36M74.28 373.53l1.94 3.36 1.98-3.36M86.06 383.98l1.94 3.36 1.98-3.36M82.12 383.98l1.94 3.36 1.98-3.36M60.55 376.89l1.98-3.36M62.53 373.53l1.93 3.36 1.98-3.36"/><path stroke="#b6b7b0" d="M66.44 373.53l1.94 3.36 1.98-3.36M78.2 368.16l1.94 3.36 1.98-3.36M60.55 371.52l1.98-3.36M62.53 368.16l1.93 3.36 1.98-3.36"/><path stroke="#b6b7b0" d="M66.44 368.16l1.94 3.36 1.98-3.36M66.44 336.72l1.94 3.36 1.98-3.36M70.36 336.72l1.94 3.36 1.98-3.36M70.36 341.94l1.94 3.36 1.98-3.36M66.44 341.94l1.94 3.36 1.98-3.36"/><path stroke="#b6b7b0" d="M62.53 341.94l1.93 3.36 1.98-3.36M74.28 341.94l1.94 3.36 1.98-3.36M74.28 347.14l1.94 3.36 1.98-3.36M78.2 347.14l1.94 3.36 1.98-3.36M78.2 352.06l1.94 3.36 1.98-3.36M82.12 357.46l1.94 3.36 1.98-3.36M70.36 357.46l1.94 3.36 1.98-3.36M78.22 362.78l1.94 3.36 1.98-3.36M66.44 362.78l1.94 3.36 1.98-3.36M70.38 362.78l1.94 3.36 1.98-3.36M109.57 378.79l-1.94 3.36-1.98-3.36M113.49 378.79l-1.94 3.36-1.98-3.36M117.41 378.79l-1.94 3.36-1.98-3.36M97.81 368.16l-1.93 3.36-1.99-3.36M93.89 368.16l-1.93 3.36-1.98-3.36M97.81 373.53l-1.93 3.36-1.99-3.36M93.89 373.53l-1.93 3.36-1.98-3.36M107.63 376.89l-1.98-3.36M105.65 373.53l-1.94 3.36-1.98-3.36M101.73 373.53l-1.94 3.36-1.98-3.36"/><path stroke="#b6b7b0" d="M89.98 368.16l-1.94 3.36-1.98-3.36M107.63 371.52l-1.98-3.36M105.65 368.16l-1.94 3.36-1.98-3.36M101.73 368.16l-1.94 3.36-1.98-3.36M101.73 336.72l-1.94 3.36-1.98-3.36M97.81 336.72l-1.93 3.36-1.99-3.36M97.81 341.94l-1.93 3.36-1.99-3.36M101.73 341.94l-1.94 3.36-1.98-3.36M105.65 341.94l-1.94 3.36-1.98-3.36M93.89 341.94l-1.93 3.36-1.98-3.36M93.89 347.14l-1.93 3.36-1.98-3.36"/><path stroke="#b6b7b0" d="M89.98 347.14l-1.94 3.36-1.98-3.36M89.98 352.06l-1.94 3.36-1.98-3.36M97.79 357.46l-1.94 3.36-1.98-3.36M89.95 362.78l-1.93 3.36-1.98-3.36M97.79 362.78l-1.94 3.36-1.98-3.36M101.73 362.78l-1.94 3.36-1.98-3.36M152.69 378.79l1.94 3.36 1.98-3.36M148.78 378.79l1.93 3.36 1.98-3.36"/><path stroke="#b6b7b0" d="M144.86 378.79l1.93 3.36 1.99-3.36M164.45 368.16l1.94 3.36 1.98-3.36M168.37 368.16l1.94 3.36 1.98-3.36M164.45 373.53l1.94 3.36 1.98-3.36M168.37 373.53l1.94 3.36 1.98-3.36M180.14 383.98l1.94 3.36 1.98-3.36M176.2 383.98l1.94 3.36 1.98-3.36M154.63 376.89l1.98-3.36M156.61 373.53l1.94 3.36 1.98-3.36M160.53 373.53l1.94 3.36 1.98-3.36M172.29 368.16l1.93 3.36 1.98-3.36M154.63 371.52l1.98-3.36M156.61 368.16l1.94 3.36 1.98-3.36M160.53 368.16l1.94 3.36 1.98-3.36M160.53 336.72l1.94 3.36 1.98-3.36M164.45 336.72l1.94 3.36 1.98-3.36M164.45 341.94l1.94 3.36 1.98-3.36M160.53 341.94l1.94 3.36 1.98-3.36M156.61 341.94l1.94 3.36 1.98-3.36M168.37 341.94l1.94 3.36 1.98-3.36M168.37 347.14l1.94 3.36 1.98-3.36M172.29 347.14l1.93 3.36 1.98-3.36M172.29 352.06l1.93 3.36 1.98-3.36M176.2 357.46l1.94 3.36 1.98-3.36M164.45 357.46l1.94 3.36 1.98-3.36M172.31 362.78l1.94 3.36 1.97-3.36M160.53 362.78l1.94 3.36 1.98-3.36M164.47 362.78l1.94 3.36 1.98-3.36M203.66 378.79l-1.94 3.36-1.98-3.36M207.57 378.79l-1.94 3.36-1.97-3.36M211.49 378.79l-1.94 3.36-1.98-3.36M191.9 368.16l-1.94 3.36-1.98-3.36M187.98 368.16l-1.94 3.36-1.98-3.36M191.9 373.53l-1.94 3.36-1.98-3.36M187.98 373.53l-1.94 3.36-1.98-3.36M201.72 376.89l-1.98-3.36M199.74 373.53l-1.94 3.36-1.98-3.36M195.82 373.53l-1.94 3.36-1.98-3.36M184.06 368.16l-1.94 3.36-1.98-3.36M201.72 371.52l-1.98-3.36M199.74 368.16l-1.94 3.36-1.98-3.36M195.82 368.16l-1.94 3.36-1.98-3.36M195.82 336.72l-1.94 3.36-1.98-3.36M191.9 336.72l-1.94 3.36-1.98-3.36M191.9 341.94l-1.94 3.36-1.98-3.36M195.82 341.94l-1.94 3.36-1.98-3.36M199.74 341.94l-1.94 3.36-1.98-3.36M187.98 341.94l-1.94 3.36-1.98-3.36M187.98 347.14l-1.94 3.36-1.98-3.36M184.06 347.14l-1.94 3.36-1.98-3.36M184.06 352.06l-1.94 3.36-1.98-3.36M191.88 357.46l-1.94 3.36-1.98-3.36M184.04 362.78l-1.94 3.36-1.98-3.36M191.88 362.78l-1.94 3.36-1.98-3.36M195.82 362.78l-1.94 3.36-1.98-3.36M227.17 431.09l-1.94-3.36-1.98 3.36M227.17 425.87l-1.94-3.36-1.98 3.36M227.17 420.67l-1.94-3.35-1.98 3.35M223.25 420.67l-1.94-3.35-1.98 3.35M219.33 420.67l-1.94-3.35M231.08 420.67l-1.93-3.35-1.98 3.35M231.08 415.75l-1.93-3.36-1.98 3.36M235.02 410.52l-1.93-3.36-1.99 3.36M223.25 415.75l-1.94-3.36-1.98 3.36M219.33 410.35l-1.94-3.36-1.98 3.36M215.41 410.35l-1.94-3.36-1.98 3.36M211.49 410.35l-1.94-3.36-1.98 3.36M207.57 410.35l-1.94-3.36-1.97 3.36M211.49 415.75l-1.94-3.36-1.98 3.36M207.57 415.75l-1.94-3.36-1.97 3.36M203.66 415.75l-1.94-3.36-1.98 3.36M250.68 415.75l-1.94-3.36-1.98 3.36M246.76 415.75l-1.94-3.36-1.98 3.36M242.84 415.75l-1.94-3.36-1.98 3.36M246.76 410.35l-1.94-3.36-1.98 3.36M242.84 410.35l-1.94-3.36-1.98 3.36M238.92 410.35l-1.94-3.36-1.98 3.36M242.84 405.03l-1.94-3.36-1.98 3.36M238.92 405.03l-1.94-3.36-1.98 3.36M238.94 399.65L237 396.3l-1.98 3.35M235.02 399.65l-1.93-3.35-1.99 3.35M231.08 399.65l-1.93-3.35-1.98 3.35M227.17 399.65l-1.94-3.35-1.98 3.35M223.25 399.65l-1.94-3.35-1.98 3.35M235.02 394.28l-1.93-3.36-1.99 3.36M231.08 394.28l-1.93-3.36-1.98 3.36M231.08 389.02l-1.93-3.36-1.98 3.36M227.17 394.28l-1.94-3.36-1.98 3.36M227.17 389.02l-1.94-3.36-1.98 3.36M223.25 389.02l-1.94-3.36-1.98 3.36M223.25 394.28l-1.94-3.36-1.98 3.36M219.33 394.28l-1.94-3.36-1.98 3.36M219.33 399.65l-1.94-3.35-1.98 3.35M215.41 399.65l-1.94-3.35-1.98 3.35M215.41 405.03l-1.94-3.36-1.98 3.36M211.49 405.03l-1.94-3.36-1.98 3.36M233.06 417.32l-1.98 3.35M223.25 431.09l-1.94-3.36-1.98 3.36M219.33 431.09l-1.94-3.36-1.98 3.36M215.41 431.09l-1.94-3.36-1.98 3.36M211.49 431.09l-1.94-3.36-1.98 3.36M211.49 425.87l-1.94-3.36-1.98 3.36M207.57 425.87l-1.94-3.36-1.97 3.36M207.57 420.67l-1.94-3.35-1.97 3.35M203.66 425.87l-1.94-3.36-1.98 3.36M250.68 425.87l-1.94-3.36-1.98 3.36M246.76 425.87l-1.94-3.36-1.98 3.36M246.76 420.67l-1.94-3.35-1.98 3.35M242.84 425.87l-1.94-3.36-1.98 3.36M242.84 431.09l-1.94-3.36-1.98 3.36M238.92 431.09l-1.94-3.36-1.98 3.36M235 431.09l-1.94-3.36-1.98 3.36M231.08 431.09l-1.93-3.36-1.98 3.36M321.23 431.09l-1.94-3.36-1.98 3.36M321.23 425.87l-1.94-3.36-1.98 3.36M321.23 420.67l-1.94-3.35-1.98 3.35M317.31 420.67l-1.94-3.35-1.98 3.35M313.39 420.67l-1.93-3.35"/><path stroke="#b6b7b0" d="M325.15 420.67l-1.94-3.35-1.98 3.35M325.15 415.75l-1.94-3.36-1.98 3.36M329.09 410.52l-1.94-3.36-1.98 3.36M317.31 415.75l-1.94-3.36-1.98 3.36M313.39 410.35l-1.93-3.36-1.98 3.36"/><path stroke="#b6b7b0" d="M309.48 410.35l-1.94-3.36-1.98 3.36M305.56 410.35l-1.94-3.36-1.98 3.36M301.64 410.35l-1.94-3.36-1.98 3.36M305.56 415.75l-1.94-3.36-1.98 3.36M301.64 415.75l-1.94-3.36-1.98 3.36"/><path stroke="#b6b7b0" d="M297.72 415.75l-1.94-3.36-1.98 3.36M344.74 415.75l-1.94-3.36-1.98 3.36M340.82 415.75l-1.94-3.36-1.98 3.36M336.9 415.75l-1.93-3.36-1.98 3.36M340.82 410.35l-1.94-3.36-1.98 3.36M336.9 410.35l-1.93-3.36-1.98 3.36"/><path stroke="#b6b7b0" d="M332.99 410.35l-1.94-3.36-1.98 3.36M336.9 405.03l-1.93-3.36-1.98 3.36"/><path stroke="#b6b7b0" d="M332.99 405.03l-1.94-3.36-1.98 3.36M333.01 399.65l-1.94-3.35-1.98 3.35M329.09 399.65l-1.94-3.35-1.98 3.35M325.15 399.65l-1.94-3.35-1.98 3.35"/><path stroke="#b6b7b0" d="M321.23 399.65l-1.94-3.35-1.98 3.35M317.31 399.65l-1.94-3.35-1.98 3.35M329.09 394.28l-1.94-3.36-1.98 3.36M325.15 394.28l-1.94-3.36-1.98 3.36M325.15 389.02l-1.94-3.36-1.98 3.36"/><path stroke="#b6b7b0" d="M321.23 394.28l-1.94-3.36-1.98 3.36M321.23 389.02l-1.94-3.36-1.98 3.36M317.31 389.02l-1.94-3.36-1.98 3.36M317.31 394.28l-1.94-3.36-1.98 3.36M313.39 394.28l-1.93-3.36-1.98 3.36M313.39 399.65l-1.93-3.35-1.98 3.35"/><path stroke="#b6b7b0" d="M309.48 399.65l-1.94-3.35-1.98 3.35M309.48 405.03l-1.94-3.36-1.98 3.36M305.56 405.03l-1.94-3.36-1.98 3.36M327.13 417.32l-1.98 3.35M317.31 431.09l-1.94-3.36-1.98 3.36M313.39 431.09l-1.93-3.36-1.98 3.36"/><path stroke="#b6b7b0" d="M309.48 431.09l-1.94-3.36-1.98 3.36M305.56 431.09l-1.94-3.36-1.98 3.36M305.56 425.87l-1.94-3.36-1.98 3.36M301.64 425.87l-1.94-3.36-1.98 3.36M301.64 420.67l-1.94-3.35-1.98 3.35"/><path stroke="#b6b7b0" d="M297.72 425.87l-1.94-3.36-1.98 3.36M344.74 425.87l-1.94-3.36-1.98 3.36M340.82 425.87l-1.94-3.36-1.98 3.36M340.82 420.67l-1.94-3.35-1.98 3.35M336.9 425.87l-1.93-3.36-1.98 3.36M336.9 431.09l-1.93-3.36-1.98 3.36"/><path stroke="#b6b7b0" d="M332.99 431.09l-1.94-3.36-1.98 3.36M329.07 431.09l-1.94-3.36-1.98 3.36M325.15 431.09l-1.94-3.36-1.98 3.36M415.32 431.09l-1.94-3.36-1.98 3.36M415.32 425.87l-1.94-3.36-1.98 3.36M415.32 420.67l-1.94-3.35-1.98 3.35M411.4 420.67l-1.94-3.35-1.98 3.35M407.48 420.67l-1.94-3.35M419.24 420.67l-1.94-3.35-1.98 3.35M419.24 415.75l-1.94-3.36-1.98 3.36M423.18 410.52l-1.94-3.36-1.98 3.36M411.4 415.75l-1.94-3.36-1.98 3.36M407.48 410.35l-1.94-3.36-1.98 3.36M403.56 410.35l-1.94-3.36-1.98 3.36M399.64 410.35l-1.94-3.36-1.98 3.36"/><path stroke="#b6b7b0" d="M395.72 410.35l-1.93-3.36-1.98 3.36M399.64 415.75l-1.94-3.36-1.98 3.36"/><path stroke="#b6b7b0" d="M395.72 415.75l-1.93-3.36-1.98 3.36M391.81 415.75l-1.94-3.36-1.98 3.36M438.83 415.75l-1.94-3.36-1.98 3.36"/><path stroke="#b6b7b0" d="M434.91 415.75l-1.94-3.36-1.98 3.36M430.99 415.75l-1.94-3.36-1.98 3.36M434.91 410.35l-1.94-3.36-1.98 3.36M430.99 410.35l-1.94-3.36-1.98 3.36M427.07 410.35l-1.94-3.36-1.98 3.36M430.99 405.03l-1.94-3.36-1.98 3.36M427.07 405.03l-1.94-3.36-1.98 3.36M427.09 399.65l-1.94-3.35-1.97 3.35"/><path stroke="#b6b7b0" d="M423.18 399.65l-1.94-3.35-1.98 3.35M419.24 399.65l-1.94-3.35-1.98 3.35M415.32 399.65l-1.94-3.35-1.98 3.35M411.4 399.65l-1.94-3.35-1.98 3.35M423.18 394.28l-1.94-3.36-1.98 3.36M419.24 394.28l-1.94-3.36-1.98 3.36M419.24 389.02l-1.94-3.36-1.98 3.36M415.32 394.28l-1.94-3.36-1.98 3.36M415.32 389.02l-1.94-3.36-1.98 3.36M411.4 389.02l-1.94-3.36-1.98 3.36M411.4 394.28l-1.94-3.36-1.98 3.36"/><path stroke="#b6b7b0" d="M407.48 394.28l-1.94-3.36-1.98 3.36M407.48 399.65l-1.94-3.35-1.98 3.35M403.56 399.65l-1.94-3.35-1.98 3.35M403.56 405.03l-1.94-3.36-1.98 3.36M399.64 405.03l-1.94-3.36-1.98 3.36M421.22 417.32l-1.98 3.35M411.4 431.09l-1.94-3.36-1.98 3.36"/><path stroke="#b6b7b0" d="M407.48 431.09l-1.94-3.36-1.98 3.36M403.56 431.09l-1.94-3.36-1.98 3.36M399.64 431.09l-1.94-3.36-1.98 3.36M399.64 425.87l-1.94-3.36-1.98 3.36"/><path stroke="#b6b7b0" d="M395.72 425.87l-1.93-3.36-1.98 3.36M395.72 420.67l-1.93-3.35-1.98 3.35M391.81 425.87l-1.94-3.36-1.98 3.36M438.83 425.87l-1.94-3.36-1.98 3.36"/><path stroke="#b6b7b0" d="M434.91 425.87l-1.94-3.36-1.98 3.36M434.91 420.67l-1.94-3.35-1.98 3.35M430.99 425.87l-1.94-3.36-1.98 3.36M430.99 431.09l-1.94-3.36-1.98 3.36M427.07 431.09l-1.94-3.36-1.98 3.36M423.15 431.09l-1.93-3.36-1.98 3.36"/><path stroke="#b6b7b0" d="M419.24 431.09l-1.94-3.36-1.98 3.36M246.76 389.02l1.94-3.36 1.98 3.36M242.84 389.02l1.94-3.36 1.98 3.36M238.92 389.02l1.94-3.36 1.98 3.36M258.51 399.65l1.94-3.35 1.98 3.35M262.43 399.65l1.94-3.35 1.98 3.35M258.51 394.28l1.94-3.36 1.98 3.36M262.43 394.28l1.94-3.36 1.98 3.36M248.7 390.92l1.98 3.36M250.68 394.28l1.94-3.36 1.97 3.36"/><path stroke="#b6b7b0" d="M254.59 394.28l1.94-3.36 1.98 3.36M266.35 399.65l1.94-3.35 1.98 3.35M248.7 396.29l1.98 3.36M250.68 399.65l1.94-3.35 1.97 3.35M254.59 399.65l1.94-3.35 1.98 3.35M254.59 431.09l1.94-3.36 1.98 3.36"/><path stroke="#b6b7b0" d="M258.51 431.09l1.94-3.36 1.98 3.36M258.51 425.87l1.94-3.36 1.98 3.36"/><path stroke="#b6b7b0" d="M254.59 425.87l1.94-3.36 1.98 3.36M250.68 425.87l1.94-3.36 1.97 3.36M262.43 425.87l1.94-3.36 1.98 3.36M262.43 420.67l1.94-3.35 1.98 3.35M266.35 420.67l1.94-3.35 1.98 3.35M266.35 415.75l1.94-3.36 1.98 3.36M270.27 410.35l1.94-3.36 1.98 3.36M258.51 410.35l1.94-3.36 1.98 3.36M266.37 405.03l1.94-3.36 1.98 3.36M254.59 405.03l1.94-3.36 1.98 3.36M258.54 405.03l1.93-3.36 1.98 3.36M297.72 389.02l-1.94-3.36-1.98 3.36"/><path stroke="#b6b7b0" d="M301.64 389.02l-1.94-3.36-1.98 3.36M305.56 389.02l-1.94-3.36-1.98 3.36M285.96 399.65l-1.93-3.35-1.98 3.35"/><path stroke="#b6b7b0" d="M282.05 399.65l-1.94-3.35-1.98 3.35M285.96 394.28l-1.93-3.36-1.98 3.36"/><path stroke="#b6b7b0" d="M282.05 394.28l-1.94-3.36-1.98 3.36M295.78 390.92l-1.98 3.36M293.8 394.28l-1.94-3.36-1.98 3.36M289.88 394.28l-1.94-3.36-1.98 3.36M278.13 399.65l-1.94-3.35-1.98 3.35M295.78 396.29l-1.98 3.36M293.8 399.65l-1.94-3.35-1.98 3.35M289.88 399.65l-1.94-3.35-1.98 3.35M289.88 431.09l-1.94-3.36-1.98 3.36M285.96 431.09l-1.93-3.36-1.98 3.36M285.96 425.87l-1.93-3.36-1.98 3.36M289.88 425.87l-1.94-3.36-1.98 3.36M293.8 425.87l-1.94-3.36-1.98 3.36"/><path stroke="#b6b7b0" d="M282.05 425.87l-1.94-3.36-1.98 3.36M282.05 420.67l-1.94-3.35-1.98 3.35M278.13 420.67l-1.94-3.35-1.98 3.35M278.13 415.75l-1.94-3.36-1.98 3.36M285.94 410.35l-1.94-3.36-1.98 3.36M278.11 405.03l-1.94-3.36-1.98 3.36M285.94 405.03l-1.94-3.36-1.98 3.36M289.88 405.03l-1.94-3.36-1.98 3.36M340.84 389.02l1.94-3.36 1.98 3.36"/><path stroke="#b6b7b0" d="M336.93 389.02l1.93-3.36 1.98 3.36M333.01 389.02l1.94-3.36 1.98 3.36M352.6 399.65l1.94-3.35 1.98 3.35"/><path stroke="#b6b7b0" d="M356.52 399.65l1.94-3.35 1.98 3.35M352.6 394.28l1.94-3.36 1.98 3.36"/><path stroke="#b6b7b0" d="M356.52 394.28l1.94-3.36 1.98 3.36M342.78 390.92l1.98 3.36M344.76 394.28l1.94-3.36 1.98 3.36M348.68 394.28l1.94-3.36 1.98 3.36M360.44 399.65l1.94-3.35 1.98 3.35M342.78 396.29l1.98 3.36M344.76 399.65l1.94-3.35 1.98 3.35M348.68 399.65l1.94-3.35 1.98 3.35M348.68 431.09l1.94-3.36 1.98 3.36M352.6 431.09l1.94-3.36 1.98 3.36M352.6 425.87l1.94-3.36 1.98 3.36M348.68 425.87l1.94-3.36 1.98 3.36M344.76 425.87l1.94-3.36 1.98 3.36"/><path stroke="#b6b7b0" d="M356.52 425.87l1.94-3.36 1.98 3.36M356.52 420.67l1.94-3.35 1.98 3.35M360.44 420.67l1.94-3.35 1.98 3.35M360.44 415.75l1.94-3.36 1.98 3.36M364.36 410.35l1.93-3.36 1.98 3.36M352.6 410.35l1.94-3.36 1.98 3.36M360.46 405.03l1.94-3.36 1.98 3.36M348.68 405.03l1.94-3.36 1.98 3.36M352.62 405.03l1.94-3.36 1.98 3.36M391.81 389.02l-1.94-3.36-1.98 3.36M395.72 389.02l-1.93-3.36-1.98 3.36"/><path stroke="#b6b7b0" d="M399.64 389.02l-1.94-3.36-1.98 3.36M380.05 399.65l-1.94-3.35-1.98 3.35M376.13 399.65l-1.94-3.35-1.98 3.35M380.05 394.28l-1.94-3.36-1.98 3.36M376.13 394.28l-1.94-3.36-1.98 3.36M389.87 390.92l-1.98 3.36M387.89 394.28l-1.94-3.36-1.98 3.36"/><path stroke="#b6b7b0" d="M383.97 394.28l-1.94-3.36-1.98 3.36M372.21 399.65l-1.94-3.35-1.97 3.35M389.87 396.29l-1.98 3.36M387.89 399.65l-1.94-3.35-1.98 3.35"/><path stroke="#b6b7b0" d="M383.97 399.65l-1.94-3.35-1.98 3.35M383.97 431.09l-1.94-3.36-1.98 3.36M380.05 431.09l-1.94-3.36-1.98 3.36M380.05 425.87l-1.94-3.36-1.98 3.36M383.97 425.87l-1.94-3.36-1.98 3.36"/><path stroke="#b6b7b0" d="M387.89 425.87l-1.94-3.36-1.98 3.36M376.13 425.87l-1.94-3.36-1.98 3.36M376.13 420.67l-1.94-3.35-1.98 3.35M372.21 420.67l-1.94-3.35-1.97 3.35M372.21 415.75l-1.94-3.36-1.97 3.36M380.03 410.35l-1.94-3.36-1.98 3.36M372.19 405.03l-1.94-3.36-1.98 3.36M380.03 405.03l-1.94-3.36-1.98 3.36M383.97 405.03l-1.94-3.36-1.98 3.36M133.08 431.09l-1.94-3.36-1.98 3.36M133.08 425.87l-1.94-3.36-1.98 3.36M133.08 420.67l-1.94-3.35-1.98 3.35M129.16 420.67l-1.94-3.35-1.98 3.35M125.24 420.67l-1.94-3.35M137 420.67l-1.94-3.35-1.98 3.35M137 415.75l-1.94-3.36-1.98 3.36M140.94 410.52l-1.94-3.36-1.98 3.36M129.16 415.75l-1.94-3.36-1.98 3.36M125.24 410.35l-1.93-3.36-1.99 3.36M121.32 410.35l-1.93-3.36-1.98 3.36"/><path stroke="#b6b7b0" d="M117.41 410.35l-1.94-3.36-1.98 3.36M113.49 410.35l-1.94-3.36-1.98 3.36M117.41 415.75l-1.94-3.36-1.98 3.36M113.49 415.75l-1.94-3.36-1.98 3.36M109.57 415.75l-1.94-3.36-1.98 3.36M156.59 415.75l-1.94-3.36-1.98 3.36M152.67 415.75l-1.94-3.36-1.98 3.36M148.75 415.75l-1.93-3.36-1.98 3.36M152.67 410.35l-1.94-3.36-1.98 3.36M148.75 410.35l-1.93-3.36-1.98 3.36M144.84 410.35l-1.94-3.36-1.98 3.36M148.75 405.03l-1.93-3.36-1.98 3.36M144.84 405.03l-1.94-3.36-1.98 3.36M144.86 399.65l-1.94-3.35-1.98 3.35M140.94 399.65L139 396.3l-1.98 3.35M137 399.65l-1.94-3.35-1.98 3.35M133.08 399.65l-1.94-3.35-1.98 3.35M129.16 399.65l-1.94-3.35-1.98 3.35M140.94 394.28l-1.94-3.36-1.98 3.36M137 394.28l-1.94-3.36-1.98 3.36M137 389.02l-1.94-3.36-1.98 3.36M133.08 394.28l-1.94-3.36-1.98 3.36M133.08 389.02l-1.94-3.36-1.98 3.36M129.16 389.02l-1.94-3.36-1.98 3.36M129.16 394.28l-1.94-3.36-1.98 3.36M125.24 394.28l-1.93-3.36-1.99 3.36M125.24 399.65l-1.93-3.35-1.99 3.35M121.32 399.65l-1.93-3.35-1.98 3.35M121.32 405.03l-1.93-3.36-1.98 3.36"/><path stroke="#b6b7b0" d="M117.41 405.03l-1.94-3.36-1.98 3.36M138.98 417.32l-1.98 3.35M129.16 431.09l-1.94-3.36-1.98 3.36M125.24 431.09l-1.93-3.36-1.99 3.36M121.32 431.09l-1.93-3.36-1.98 3.36"/><path stroke="#b6b7b0" d="M117.41 431.09l-1.94-3.36-1.98 3.36M117.41 425.87l-1.94-3.36-1.98 3.36M113.49 425.87l-1.94-3.36-1.98 3.36M113.49 420.67l-1.94-3.35-1.98 3.35M109.57 425.87l-1.94-3.36-1.98 3.36M156.59 425.87l-1.94-3.36-1.98 3.36M152.67 425.87l-1.94-3.36-1.98 3.36M152.67 420.67l-1.94-3.35-1.98 3.35M148.75 425.87l-1.93-3.36-1.98 3.36M148.75 431.09l-1.93-3.36-1.98 3.36M144.84 431.09l-1.94-3.36-1.98 3.36M140.92 431.09l-1.94-3.36-1.98 3.36M137 431.09l-1.94-3.36-1.98 3.36M58.61 389.02l1.94-3.36 1.98 3.36M54.69 389.02l1.94-3.36 1.98 3.36M50.77 389.02l1.94-3.36 1.98 3.36M70.36 399.65l1.94-3.35 1.98 3.35M74.28 399.65l1.94-3.35 1.98 3.35M70.36 394.28l1.94-3.36 1.98 3.36M74.28 394.28l1.94-3.36 1.98 3.36M60.55 390.92l1.98 3.36M62.53 394.28l1.93-3.36 1.98 3.36"/><path stroke="#b6b7b0" d="M66.44 394.28l1.94-3.36 1.98 3.36M78.2 399.65l1.94-3.35 1.98 3.35M60.55 396.29l1.98 3.36M62.53 399.65l1.93-3.35 1.98 3.35"/><path stroke="#b6b7b0" d="M66.44 399.65l1.94-3.35 1.98 3.35M66.44 431.09l1.94-3.36 1.98 3.36M70.36 431.09l1.94-3.36 1.98 3.36M70.36 425.87l1.94-3.36 1.98 3.36M66.44 425.87l1.94-3.36 1.98 3.36"/><path stroke="#b6b7b0" d="M62.53 425.87l1.93-3.36 1.98 3.36M74.28 425.87l1.94-3.36 1.98 3.36M74.28 420.67l1.94-3.35 1.98 3.35M78.2 420.67l1.94-3.35 1.98 3.35M78.2 415.75l1.94-3.36 1.98 3.36M82.12 410.35l1.94-3.36 1.98 3.36M70.36 410.35l1.94-3.36 1.98 3.36M78.22 405.03l1.94-3.36 1.98 3.36M66.44 405.03l1.94-3.36 1.98 3.36M70.38 405.03l1.94-3.36 1.98 3.36M109.57 389.02l-1.94-3.36-1.98 3.36M113.49 389.02l-1.94-3.36-1.98 3.36M117.41 389.02l-1.94-3.36-1.98 3.36M97.81 399.65l-1.93-3.35-1.99 3.35M93.89 399.65l-1.93-3.35-1.98 3.35M97.81 394.28l-1.93-3.36-1.99 3.36M93.89 394.28l-1.93-3.36-1.98 3.36M107.63 390.92l-1.98 3.36M105.65 394.28l-1.94-3.36-1.98 3.36M101.73 394.28l-1.94-3.36-1.98 3.36"/><path stroke="#b6b7b0" d="M89.98 399.65l-1.94-3.35-1.98 3.35M107.63 396.29l-1.98 3.36M105.65 399.65l-1.94-3.35-1.98 3.35M101.73 399.65l-1.94-3.35-1.98 3.35M101.73 431.09l-1.94-3.36-1.98 3.36M97.81 431.09l-1.93-3.36-1.99 3.36M97.81 425.87l-1.93-3.36-1.99 3.36M101.73 425.87l-1.94-3.36-1.98 3.36M105.65 425.87l-1.94-3.36-1.98 3.36M93.89 425.87l-1.93-3.36-1.98 3.36M93.89 420.67l-1.93-3.35-1.98 3.35"/><path stroke="#b6b7b0" d="M89.98 420.67l-1.94-3.35-1.98 3.35M89.98 415.75l-1.94-3.36-1.98 3.36M97.79 410.35l-1.94-3.36-1.98 3.36M89.95 405.03l-1.93-3.36-1.98 3.36M97.79 405.03l-1.94-3.36-1.98 3.36M101.73 405.03l-1.94-3.36-1.98 3.36M152.69 389.02l1.94-3.36 1.98 3.36M148.78 389.02l1.93-3.36 1.98 3.36"/><path stroke="#b6b7b0" d="M144.86 389.02l1.93-3.36 1.99 3.36M164.45 399.65l1.94-3.35 1.98 3.35M168.37 399.65l1.94-3.35 1.98 3.35M164.45 394.28l1.94-3.36 1.98 3.36M168.37 394.28l1.94-3.36 1.98 3.36M154.63 390.92l1.98 3.36M156.61 394.28l1.94-3.36 1.98 3.36M160.53 394.28l1.94-3.36 1.98 3.36M172.29 399.65l1.93-3.35 1.98 3.35M154.63 396.29l1.98 3.36M156.61 399.65l1.94-3.35 1.98 3.35M160.53 399.65l1.94-3.35 1.98 3.35M160.53 431.09l1.94-3.36 1.98 3.36M164.45 431.09l1.94-3.36 1.98 3.36M164.45 425.87l1.94-3.36 1.98 3.36M160.53 425.87l1.94-3.36 1.98 3.36M156.61 425.87l1.94-3.36 1.98 3.36M168.37 425.87l1.94-3.36 1.98 3.36M168.37 420.67l1.94-3.35 1.98 3.35M172.29 420.67l1.93-3.35 1.98 3.35M172.29 415.75l1.93-3.36 1.98 3.36M176.2 410.35l1.94-3.36 1.98 3.36M164.45 410.35l1.94-3.36 1.98 3.36M172.31 405.03l1.94-3.36 1.97 3.36M160.53 405.03l1.94-3.36 1.98 3.36M164.47 405.03l1.94-3.36 1.98 3.36M203.66 389.02l-1.94-3.36-1.98 3.36M207.57 389.02l-1.94-3.36-1.97 3.36M211.49 389.02l-1.94-3.36-1.98 3.36M191.9 399.65l-1.94-3.35-1.98 3.35M187.98 399.65l-1.94-3.35-1.98 3.35M191.9 394.28l-1.94-3.36-1.98 3.36M187.98 394.28l-1.94-3.36-1.98 3.36M201.72 390.92l-1.98 3.36M199.74 394.28l-1.94-3.36-1.98 3.36M195.82 394.28l-1.94-3.36-1.98 3.36M184.06 399.65l-1.94-3.35-1.98 3.35M201.72 396.29l-1.98 3.36M199.74 399.65l-1.94-3.35-1.98 3.35M195.82 399.65l-1.94-3.35-1.98 3.35M195.82 431.09l-1.94-3.36-1.98 3.36M191.9 431.09l-1.94-3.36-1.98 3.36M191.9 425.87l-1.94-3.36-1.98 3.36M195.82 425.87l-1.94-3.36-1.98 3.36M199.74 425.87l-1.94-3.36-1.98 3.36M187.98 425.87l-1.94-3.36-1.98 3.36M187.98 420.67l-1.94-3.35-1.98 3.35M184.06 420.67l-1.94-3.35-1.98 3.35M184.06 415.75l-1.94-3.36-1.98 3.36M191.88 410.35l-1.94-3.36-1.98 3.36M184.04 405.03l-1.94-3.36-1.98 3.36M191.88 405.03l-1.94-3.36-1.98 3.36M195.82 405.03l-1.94-3.36-1.98 3.36M226.63 68l-2 3.45-2-3.25M226.63 73.17l-2 3.45-2-3.25M226.63 78.37l-2 3.45-2-3.25M222.59 78.57l-2 3.47-2-3.24M218.56 78.8l-2 3.49M230.66 78.22c-.66 1.14-1.33 2.28-2 3.43l-2-3.28M230.66 83.14c-.66 1.15-1.33 2.29-2 3.43l-2-3.27M234.72 88.25l-2 3.42-2-3.3M222.59 83.5l-2 3.47-2-3.24M218.56 89.13l-2 3.49-2-3.22M214.52 89.4c-.66 1.17-1.32 2.34-2 3.51l-2-3.19M210.49 89.72c-.66 1.17-1.32 2.35-2 3.52l-2-3.17M206.47 90.07c-.67 1.18-1.33 2.36-2 3.55l-2-3.16M210.49 84.32l-2 3.53-2-3.18M206.47 84.67c-.67 1.18-1.33 2.36-2 3.55l-2-3.16M202.44 85.06c-.66 1.19-1.32 2.38-2 3.57-.67-1-1.35-2.09-2-3.14M250.86 83l-2 3.33-2-3.37M246.82 82.91c-.67 1.11-1.33 2.23-2 3.35l-2-3.35M242.78 82.91l-2 3.37-2-3.33M246.82 88.31c-.67 1.11-1.33 2.23-2 3.35l-2-3.35M242.78 88.31l-2 3.37-2-3.33M238.74 88.35c-.67 1.12-1.33 2.26-2 3.39l-2-3.32M242.78 93.63l-2 3.37-2-3.33M238.74 93.67l-2 3.39-2-3.31M238.76 99c-.66 1.13-1.33 2.26-2 3.39l-2-3.31M234.72 99.12l-2 3.41-2-3.29M230.66 99.24c-.66 1.14-1.33 2.28-2 3.43l-2-3.28M226.63 99.39l-2 3.45-2-3.25M222.59 99.59l-2 3.47-2-3.24M234.72 104.49l-2 3.41-2-3.29M230.66 104.61l-2 3.43-2-3.27M230.66 109.87c-.66 1.15-1.33 2.29-2 3.43l-2-3.27M226.63 104.77l-2 3.45-2-3.26M226.63 110l-2 3.45-2-3.25M222.59 110.23l-2 3.47-2-3.24M222.59 105l-2 3.47-2-3.23M218.56 105.2l-2 3.49-2-3.22M218.56 99.82l-2 3.49-2-3.21M214.52 100.1c-.66 1.17-1.32 2.34-2 3.51l-2-3.2M214.52 94.72c-.66 1.17-1.32 2.34-2 3.51l-2-3.19M210.49 95l-2 3.53-2-3.18M232.7 81.51l-2-3.29M222.59 68.15l-2 3.47-2-3.24M218.56 68.38l-2 3.49-2-3.21M214.52 68.66c-.66 1.17-1.32 2.34-2 3.51l-2-3.2M210.49 69l-2 3.53-2-3.18M210.49 74.19l-2 3.53-2-3.18M206.47 74.54l-2 3.55-2-3.15M206.47 79.74c-.67 1.18-1.33 2.37-2 3.55l-2-3.16M202.44 74.94l-2 3.56-2-3.13M250.86 72.82l-2 3.34-2-3.38M246.82 72.78l-2 3.36-2-3.36M246.82 78c-.67 1.12-1.33 2.24-2 3.35l-2-3.35M242.78 72.78l-2 3.38-2-3.34M242.78 67.56l-2 3.38-2-3.34M238.74 67.6l-2 3.39-2-3.31M234.7 67.68c-.66 1.14-1.33 2.27-2 3.41l-2-3.29M230.66 67.8c-.66 1.14-1.33 2.28-2 3.43l-2-3.28M323.23 75l-2 3-2-3.73M323.23 80.23l-2 3-2-3.73M323.23 85.43l-2 3-2-3.73M319.24 84.68c-.66 1-1.32 2-2 3l-2-3.71M315.25 84l-2 3"/><path d="M327.21 86.21c-.66 1-1.32 2-2 3l-2-3.75M327.21 91.14c-.66 1-1.32 2-2 3l-2-3.75M331.2 97.19l-2 3-2-3.77M319.24 89.61c-.66 1-1.32 2-2 3-.68-1.23-1.35-2.47-2-3.71M315.25 94.3l-2 3c-.67-1.24-1.35-2.47-2-3.69M311.25 93.64l-2 3c-.67-1.23-1.35-2.45-2-3.67M307.25 93l-2 3.06-2-3.65M303.24 92.42l-2 3.08-2-3.63M307.25 87.61l-2 3.06c-.68-1.21-1.35-2.43-2-3.65M303.24 87l-2 3.09-2-3.64M299.23 86.47l-2 3.11-2-3.61M347 95.64l-1.95 2.87-2-3.85" stroke="#b6b7b0"/><path d="M343.07 94.66c-.66 1-1.31 1.93-2 2.89l-2-3.83" stroke="#b6b7b0"/><path d="M339.11 93.72l-2 2.91c-.66-1.27-1.33-2.54-2-3.81M343.07 100.06c-.66 1-1.31 1.92-2 2.89-.67-1.28-1.33-2.56-2-3.83" stroke="#b6b7b0"/><path d="M339.11 99.12l-2 2.91c-.66-1.27-1.33-2.54-2-3.81" stroke="#b6b7b0"/><path d="M335.15 98.22l-2 2.93-2-3.79M339.11 104.44l-2 2.91c-.66-1.27-1.33-2.54-2-3.81" stroke="#b6b7b0"/><path d="M335.15 103.54l-2 2.93-2-3.79M335.17 108.92l-2 2.93-2-3.79" stroke="#b6b7b0"/><path d="M331.2 108.06l-2 2.94-2-3.77" stroke="#b6b7b0"/><path d="M327.21 107.23c-.66 1-1.32 2-2 3l-2-3.75" stroke="#b6b7b0"/><path d="M323.23 106.45l-2 3-2-3.73M319.24 105.7c-.66 1-1.32 2-2 3l-2-3.71M331.2 113.43c-.65 1-1.31 2-2 2.95l-2-3.77" stroke="#b6b7b0"/><path d="M327.21 112.6c-.66 1-1.32 2-2 3l-2-3.75M327.21 117.87c-.66 1-1.32 2-2 3l-2-3.75" stroke="#b6b7b0"/><path d="M323.23 111.82l-2 3-2-3.73M323.23 117.08l-2 3-2-3.73" stroke="#b6b7b0"/><path d="M319.24 116.34c-.66 1-1.32 2-2 3-.68-1.23-1.35-2.47-2-3.71M319.24 111.08c-.66 1-1.32 2-2 3l-2-3.71" stroke="#b6b7b0"/><path d="M315.25 110.37l-2 3-2-3.69M315.25 105l-2 3-2-3.69M311.25 104.33l-2 3c-.67-1.22-1.35-2.44-2-3.67M311.25 99l-2 3-2-3.67M307.25 98.33l-2 3.06c-.68-1.21-1.35-2.43-2-3.65M329.22 90l-2-3.77M319.24 74.26c-.66 1-1.32 2-2 3l-2-3.71" stroke="#b6b7b0"/><path d="M315.25 73.56l-2 3-2-3.69M311.25 72.89l-2 3c-.67-1.23-1.35-2.45-2-3.67M307.25 72.27c-.66 1-1.32 2-2 3.06-.68-1.22-1.35-2.44-2-3.65M307.25 77.49c-.66 1-1.32 2-2 3.06-.68-1.22-1.35-2.44-2-3.65M303.24 76.9l-2 3.08-2-3.63M303.24 82.1l-2 3.08-2-3.63M299.23 76.35l-2 3.1-2-3.61M347 85.52l-1.95 2.87c-.66-1.29-1.33-2.57-2-3.85" stroke="#b6b7b0"/><path d="M343.07 84.54c-.66 1-1.31 1.92-2 2.89-.67-1.28-1.33-2.56-2-3.83M343.07 89.73l-2 2.89c-.67-1.27-1.33-2.55-2-3.83" stroke="#b6b7b0"/><path d="M339.11 83.6l-2 2.9c-.66-1.27-1.33-2.54-2-3.8M339.11 78.38l-2 2.9c-.66-1.27-1.33-2.54-2-3.8" stroke="#b6b7b0"/><path d="M335.15 77.48l-2 2.92-2-3.79" stroke="#b6b7b0"/><path d="M331.18 76.61l-2 3-2-3.77M327.21 75.79c-.66 1-1.32 2-2 3l-2-3.75M416.55 104.64l-1.87 2.52-1.9-4.21M416.55 109.86l-1.87 2.52-1.9-4.21M416.55 115.06l-1.87 2.52c-.63-1.41-1.27-2.81-1.9-4.21M412.78 113.37l-1.87 2.54c-.64-1.4-1.27-2.79-1.91-4.18M409 111.73l-1.88 2.56M420.3 116.78l-1.85 2.5q-1-2.11-1.9-4.22M420.3 121.71c-.62.83-1.24 1.66-1.85 2.5q-1-2.11-1.9-4.23M424.06 128.71c-.61.83-1.23 1.65-1.85 2.48l-1.89-4.19M412.78 118.3l-1.87 2.54-1.91-4.19M409 122.05l-1.88 2.56-1.91-4.16M405.21 120.45c-.63.85-1.26 1.71-1.88 2.57q-1-2.07-1.93-4.14M401.4 118.88l-1.89 2.6-1.92-4.13M397.59 117.35a250 250 0 00-1.9 2.62l-1.93-4.11M401.4 113.48l-1.89 2.6-1.92-4.08M397.59 112c-.64.87-1.27 1.75-1.9 2.62l-1.93-4.11M393.76 110.46l-1.9 2.64c-.65-1.36-1.29-2.73-1.94-4.09M438.87 130.91l-1.82 2.41-1.86-4.32M435.19 129l-1.83 2.43c-.62-1.44-1.25-2.87-1.87-4.31M431.49 127.11l-1.84 2.45-1.88-4.29M435.19 134.39l-1.83 2.43c-.62-1.44-1.25-2.87-1.87-4.31M431.49 132.51l-1.84 2.49-1.88-4.29M427.77 130.67l-1.84 2.46-1.93-4.26M431.49 137.83l-1.84 2.45-1.88-4.28M427.77 136c-.61.82-1.23 1.64-1.84 2.47l-1.93-4.28M427.79 141.38l-1.79 2.46-1.89-4.27M424.06 139.57l-1.85 2.49-1.89-4.25M420.3 137.8l-1.85 2.5q-1-2.12-1.9-4.22M416.55 136.08l-1.87 2.52c-.63-1.41-1.27-2.81-1.9-4.21M412.78 134.39l-1.87 2.54c-.64-1.39-1.27-2.79-1.91-4.18M424.06 145l-1.85 2.48-1.89-4.25M420.3 143.17c-.62.84-1.24 1.67-1.85 2.51q-1-2.12-1.9-4.23M420.3 148.44c-.62.83-1.24 1.66-1.85 2.5q-1-2.12-1.9-4.23M416.55 141.45l-1.87 2.55-1.9-4.2M416.55 146.71l-1.87 2.52-1.9-4.2M412.78 145l-1.87 2.54-1.91-4.16M412.78 139.77l-1.87 2.54c-.64-1.4-1.27-2.8-1.91-4.19" stroke="#b6b7b0"/><path d="M409 138.12l-1.88 2.56q-1-2.09-1.91-4.17M409 132.75l-1.88 2.56q-1-2.09-1.91-4.17M405.21 131.14l-1.88 2.58c-.65-1.38-1.29-2.77-1.93-4.15M405.21 125.77c-.63.86-1.26 1.71-1.88 2.58l-1.93-4.15M401.4 124.2l-1.89 2.6-1.92-4.13M422.19 121l-1.89-4.24M412.78 103l-1.87 2.54c-.64-1.39-1.27-2.79-1.91-4.18M409 101.31l-1.88 2.56q-1-2.09-1.91-4.17M405.21 99.7l-1.88 2.58c-.65-1.38-1.29-2.77-1.93-4.15M401.4 98.13l-1.89 2.6-1.92-4.12M401.4 103.35l-1.89 2.6-1.92-4.12M397.59 101.83l-1.9 2.61c-.64-1.37-1.29-2.73-1.93-4.1M397.59 107l-1.9 2.62c-.64-1.37-1.29-2.74-1.93-4.1M393.76 100.34l-1.9 2.63-1.94-4.08M438.87 120.79l-1.82 2.4-1.86-4.32M435.19 118.87l-1.83 2.42-1.87-4.3M435.19 124.07l-1.83 2.42c-.62-1.44-1.25-2.87-1.87-4.3M431.49 117l-1.84 2.44c-.63-1.43-1.25-2.86-1.88-4.28M431.49 111.77l-1.84 2.44c-.63-1.43-1.25-2.86-1.88-4.28M427.77 109.93l-1.84 2.46-1.93-4.26M424 108.13l-1.85 2.48-1.89-4.25" stroke="#b6b7b0"/><path d="M420.3 106.36l-1.85 2.5c-.64-1.41-1.27-2.81-1.9-4.22M246.82 109.64l2 3.37 2-3.33M242.78 109.64l2 3.35 2-3.35M238.74 109.68l2 3.33 2-3.37M258.93 99.24c.67 1.14 1.34 2.28 2 3.43l2-3.28M263 99.39l2 3.45 2-3.25M258.93 104.61l2 3.43 2-3.27M263 104.77l2 3.45 2-3.26M275.1 115.92c.66 1.17 1.32 2.34 2 3.51l2-3.2M271 115.65l2 3.48c.68-1.07 1.36-2.14 2-3.21M248.82 107.75l2-3.34M250.86 104.41l2 3.4 2-3.32M254.9 104.49l2 3.41c.69-1.1 1.36-2.19 2-3.29M267 99.59l2 3.47 2-3.24M248.82 102.37l2-3.33M250.86 99c.66 1.13 1.33 2.26 2 3.39l2-3.31M254.9 99.12l2 3.41c.69-1.1 1.36-2.2 2-3.29M254.9 67.68l2 3.41c.69-1.1 1.36-2.2 2-3.29M258.93 67.8c.67 1.14 1.34 2.28 2 3.43L263 68M258.93 73c.67 1.14 1.34 2.28 2 3.43l2-3.28M254.9 72.9l2 3.41c.69-1.1 1.36-2.2 2-3.29M250.86 72.82c.66 1.13 1.33 2.26 2 3.39l2-3.31M263 73.17l2 3.45 2-3.25M263 78.37l2 3.45 2-3.25M267 78.57l2 3.43 2-3.24M267 83.5l2 3.5 2-3.24M271 89.13l2 3.49 2-3.22M258.93 88.54l2 3.43 2-3.27M267 94.22l2 3.47 2-3.24M254.9 93.75l2 3.41c.69-1.1 1.36-2.2 2-3.3M259 93.86l2 3.44 2-3.3M299.23 113.2l-2 3.11-2-3.61M303.24 113.75l-2 3.09-2-3.64M307.25 114.34l-2 3.06c-.68-1.21-1.35-2.43-2-3.65M287.18 101.16c-.67 1-1.33 2.1-2 3.16l-2-3.55M283.15 100.77l-2 3.18c-.68-1.18-1.36-2.36-2-3.54M287.18 106.53c-.67 1-1.33 2.11-2 3.16l-2-3.55M283.15 106.14c-.66 1.06-1.32 2.12-2 3.18l-2-3.53M297.25 111l-2-3.61M295.22 107.43l-2 3.12c-.68-1.19-1.35-2.39-2-3.59M291.2 107l-2 3.14c-.68-1.19-1.36-2.38-2-3.57M279.13 100.41l-2 3.2c-.68-1.17-1.36-2.34-2-3.51M297.25 105.67l-2-3.61M295.22 102.06l-2 3.12c-.68-1.2-1.35-2.4-2-3.59M291.2 101.59l-2 3.14c-.68-1.19-1.36-2.38-2-3.57M291.2 70.15l-2 3.14c-.68-1.19-1.36-2.38-2-3.57M287.18 69.72c-.67 1-1.33 2.1-2 3.16l-2-3.55M287.18 74.94c-.67 1-1.33 2.1-2 3.16l-2-3.55M291.2 75.37l-2 3.14c-.68-1.19-1.36-2.38-2-3.57M295.22 75.84l-2 3.12c-.68-1.2-1.35-2.4-2-3.59M283.15 74.55l-2 3.18c-.68-1.18-1.36-2.36-2-3.54M283.15 79.74c-.66 1.06-1.32 2.12-2 3.18-.68-1.18-1.36-2.35-2-3.53M279.13 79.39l-2 3.2c-.68-1.17-1.36-2.34-2-3.51M279.13 84.32c-.67 1.06-1.33 2.13-2 3.2-.68-1.17-1.36-2.34-2-3.51M287.16 90.46c-.67 1.05-1.33 2.1-2 3.16l-2-3.55M279.1 95l-2 3.2-2-3.52M287.16 95.78c-.67 1-1.33 2.11-2 3.16l-2-3.55M291.2 96.22l-2 3.14-2-3.58M343.09 121.4l2 3.84 2-2.86" stroke="#b6b7b0"/><path d="M339.13 120.46c.65 1.27 1.31 2.54 2 3.82l2-2.88" stroke="#b6b7b0"/><path d="M335.17 119.56l2 3.8 2-2.9M354.91 113.82l1.94 3.89 2-2.8" stroke="#b6b7b0"/><path d="M358.83 114.91l1.94 3.92 2-2.78M354.91 119.19c.64 1.3 1.29 2.6 1.94 3.9l2-2.8" stroke="#b6b7b0"/><path d="M358.83 120.29c.65 1.3 1.29 2.61 1.94 3.91l2-2.78M370.57 134.27c.65 1.32 1.29 2.65 1.93 4l2-2.72" stroke="#b6b7b0"/><path d="M366.65 133.05c.65 1.31 1.29 2.63 1.93 3.95l2-2.74M345 120c.67-1 1.33-1.91 2-2.86M347 117.11l2 3.86 2-2.84M351 118.13l1.95 3.88 2-2.82M362.75 116.05l1.93 3.93 2-2.75M345 114.6l2-2.86M347 111.74l2 3.86 2-2.84M351 112.76l1.95 3.88c.66-1 1.33-1.89 2-2.82M351 81.32l1.95 3.88 2-2.82" stroke="#b6b7b0"/><path d="M354.91 82.38c.64 1.3 1.29 2.59 1.94 3.89l2-2.8M354.91 87.6l1.94 3.89 2-2.8" stroke="#b6b7b0"/><path d="M351 86.54l1.95 3.88c.66-1 1.33-1.88 2-2.82M347 85.52l2 3.86 2-2.84M358.83 88.69l1.94 3.92 2-2.78M358.83 93.89l1.94 3.92 2-2.78" stroke="#b6b7b0"/><path d="M362.75 95l1.93 4 2-2.76M362.75 100l1.93 3.93 2-2.76M366.65 106.53c.65 1.32 1.29 2.63 1.93 4 .66-.91 1.32-1.82 2-2.74M354.91 103.12c.64 1.3 1.29 2.6 1.94 3.9l2-2.8M362.77 110.68c.64 1.31 1.29 2.62 1.93 3.94l2-2.76M351 107.39l1.95 3.87 2-2.82" stroke="#b6b7b0"/><path d="M354.93 108.45l1.94 3.9 2-2.8M393.76 137.19l-1.9 2.64c-.65-1.36-1.29-2.73-1.94-4.09M397.59 138.68c-.64.87-1.27 1.75-1.9 2.62l-1.93-4.11M401.4 140.21l-1.89 2.6-1.92-4.13M382.21 122.33c-.64.89-1.27 1.79-1.91 2.69l-2-4" stroke="#b6b7b0"/><path d="M378.34 121l-1.92 2.72c-.65-1.34-1.3-2.68-2-4M382.21 127.7l-1.91 2.69-2-4" stroke="#b6b7b0"/><path d="M378.34 126.37l-1.92 2.71c-.65-1.34-1.3-2.67-2-4M391.86 134.57c-.65-1.37-1.29-2.73-1.94-4.09M389.92 130.48l-1.9 2.66-1.95-4.07M386.07 129.07l-1.91 2.68-2-4M374.46 119.7l-1.92 2.73c-.66-1.33-1.31-2.66-2-4M391.86 129.19l-1.94-4.08M389.92 125.11l-1.9 2.65-1.95-4.06M386.07 123.7l-1.91 2.67-2-4M386.07 92.26l-1.91 2.67-2-4" stroke="#b6b7b0"/><path d="M382.21 90.89c-.64.89-1.27 1.79-1.91 2.69-.65-1.34-1.31-2.68-2-4M382.21 96.11c-.64.89-1.27 1.79-1.91 2.69l-2-4" stroke="#b6b7b0"/><path d="M386.07 97.48l-1.91 2.67-2-4M389.92 98.89l-1.9 2.65-1.95-4.06M378.34 94.77l-1.92 2.72c-.65-1.34-1.3-2.68-2-4M378.34 100l-1.92 2.72c-.65-1.34-1.3-2.68-2-4" stroke="#b6b7b0"/><path d="M374.46 98.68l-1.92 2.73c-.66-1.33-1.31-2.66-2-4M374.46 103.61l-1.92 2.73-2-4M382.19 111.62l-1.91 2.7c-.65-1.35-1.31-2.69-2-4M374.44 114.32l-1.92 2.73c-.66-1.33-1.31-2.66-2-4M382.19 116.94l-1.91 2.7-2-4M386.07 118.32l-1.91 2.68-2-4M130.77 83.47c-.65 1.31-1.3 2.61-1.94 3.92l-2-2.78M130.77 88.69c-.65 1.31-1.3 2.61-1.94 3.92l-2-2.78M130.77 93.89c-.65 1.31-1.3 2.61-1.94 3.92l-2-2.78" stroke="#b6b7b0"/><path d="M126.85 95l-1.93 4-2-2.76M122.94 96.2c-.64 1.32-1.28 2.64-1.93 4M134.69 92.8c-.65 1.29-1.29 2.59-1.94 3.89l-2-2.8M134.69 97.72l-1.94 3.9-2-2.8M138.64 101.89c-.64 1.29-1.29 2.58-1.94 3.88-.66-1-1.33-1.89-2-2.82M126.85 100l-1.93 3.93-2-2.76M122.94 106.53c-.64 1.32-1.28 2.63-1.93 4-.65-.91-1.31-1.82-2-2.74" stroke="#b6b7b0"/><path d="M119.05 107.74c-.65 1.33-1.29 2.65-1.93 4l-2-2.72" stroke="#b6b7b0"/><path d="M115.16 109l-1.92 4-2-2.7" stroke="#b6b7b0"/><path d="M111.28 110.29l-1.92 4-2-2.68M115.16 103.6l-1.92 4-2-2.7" stroke="#b6b7b0"/><path d="M111.28 104.89l-1.92 4-2-2.68" stroke="#b6b7b0"/><path d="M107.41 106.23l-1.91 4-2-2.66M154.43 92.83c-.66 1.26-1.31 2.53-2 3.8l-2-2.9" stroke="#b6b7b0"/><path d="M150.47 93.73c-.66 1.27-1.31 2.54-2 3.82l-2-2.88" stroke="#b6b7b0"/><path d="M146.51 94.67l-1.95 3.84-2-2.86M150.47 99.13c-.66 1.27-1.31 2.54-2 3.81-.67-1-1.33-1.92-2-2.87" stroke="#b6b7b0"/><path d="M146.51 100.07l-1.95 3.83-2-2.86M142.56 101l-1.95 3.86-2-2.84M146.51 105.39l-1.95 3.84-2-2.86M142.56 106.37l-1.95 3.85c-.66-.94-1.32-1.89-2-2.83M142.58 111.73c-.65 1.29-1.3 2.57-1.94 3.86l-2-2.84M138.64 112.75c-.64 1.29-1.29 2.59-1.94 3.88l-2-2.82M134.69 113.82c-.65 1.29-1.29 2.59-1.94 3.89l-2-2.8" stroke="#b6b7b0"/><path d="M130.77 114.91c-.65 1.31-1.3 2.61-1.94 3.92l-2-2.78" stroke="#b6b7b0"/><path d="M126.85 116.05l-1.93 3.95-2-2.75M138.64 118.13c-.64 1.29-1.29 2.58-1.94 3.87l-2-2.82M134.69 119.19l-1.94 3.9-2-2.8M134.69 124.45l-1.94 3.9-2-2.8" stroke="#b6b7b0"/><path d="M130.77 120.29c-.65 1.3-1.3 2.61-1.94 3.91l-2-2.78M130.77 125.55c-.65 1.3-1.3 2.61-1.94 3.92l-2-2.78" stroke="#b6b7b0"/><path d="M126.85 126.69l-1.93 3.93-2-2.76M126.85 121.42c-.64 1.31-1.29 2.62-1.93 3.94l-2-2.76" stroke="#b6b7b0"/><path d="M122.94 122.6c-.64 1.32-1.28 2.63-1.93 4-.65-.91-1.31-1.82-2-2.74M122.94 117.23c-.64 1.31-1.28 2.63-1.93 4-.65-.92-1.31-1.83-2-2.74" stroke="#b6b7b0"/><path d="M119.05 118.44c-.65 1.32-1.29 2.65-1.93 4l-2-2.72M119.05 113.07c-.65 1.32-1.29 2.64-1.93 4l-2-2.72" stroke="#b6b7b0"/><path d="M115.16 114.32l-1.92 4-2-2.7M136.68 95.61l-2-2.81M126.85 84.61c-.64 1.31-1.29 2.62-1.93 3.94q-1-1.39-2-2.76" stroke="#b6b7b0"/><path d="M122.94 85.79c-.64 1.31-1.28 2.63-1.93 3.95l-2-2.74" stroke="#b6b7b0"/><path d="M119.05 87c-.65 1.32-1.29 2.65-1.93 4l-2-2.72" stroke="#b6b7b0"/><path d="M115.16 88.25l-1.92 4-2-2.7M115.16 93.47l-1.92 4-2-2.7" stroke="#b6b7b0"/><path d="M111.28 94.77l-1.92 4-2-2.68M111.28 100l-1.92 4-2-2.68" stroke="#b6b7b0"/><path d="M107.41 96.1c-.64 1.34-1.28 2.69-1.91 4l-2-2.66M154.43 82.7c-.66 1.26-1.31 2.53-2 3.8-.67-1-1.34-1.93-2-2.9" stroke="#b6b7b0"/><path d="M150.47 83.6c-.66 1.27-1.31 2.55-2 3.82l-2-2.88M150.47 88.8c-.66 1.27-1.31 2.54-2 3.82l-2-2.88" stroke="#b6b7b0"/><path d="M146.51 84.54l-1.95 3.84-2-2.86M146.51 79.32l-1.95 3.84-2-2.86M142.56 80.3l-1.95 3.86c-.66-1-1.32-1.9-2-2.84" stroke="#b6b7b0"/><path d="M138.62 81.32c-.65 1.29-1.29 2.58-1.94 3.88l-2-2.82" stroke="#b6b7b0"/><path d="M134.69 82.38l-1.94 3.89-2-2.8M58.11 153.84l1.89 2.45q.93-2.14 1.88-4.29M54.41 155.72l1.83 2.43c.62-1.44 1.25-2.87 1.87-4.31M50.72 157.64l1.83 2.41 1.86-4.33M69.3 137.8l1.85 2.5q1-2.12 1.9-4.22M73.05 136.08l1.86 2.52c.64-1.41 1.27-2.81 1.91-4.21M69.3 143.17l1.85 2.51q1-2.12 1.9-4.23M73.05 141.45l1.86 2.55 1.91-4.2M84.41 147l1.88 2.58 1.93-4.14M80.6 148.57c.62.85 1.25 1.7 1.87 2.56l1.92-4.13M60 151c.62-1.43 1.25-2.85 1.88-4.28" stroke="#b6b7b0"/><path d="M61.83 146.74l1.84 2.46 1.89-4.26M65.56 144.94l1.84 2.48c.63-1.42 1.27-2.83 1.9-4.25M76.82 134.39l1.87 2.54c.64-1.39 1.27-2.79 1.91-4.18M60 145.65q.93-2.15 1.88-4.28" stroke="#b6b7b0"/><path d="M61.83 141.37l1.84 2.46 1.89-4.27M65.56 139.56l1.84 2.49c.63-1.42 1.27-2.84 1.9-4.25M65.56 108.13l1.84 2.48c.63-1.42 1.27-2.83 1.9-4.25" stroke="#b6b7b0"/><path d="M69.3 106.36l1.85 2.5c.64-1.41 1.27-2.81 1.9-4.22M69.3 111.58l1.85 2.5c.64-1.41 1.27-2.81 1.9-4.22" stroke="#b6b7b0"/><path d="M65.56 113.35l1.84 2.48c.63-1.42 1.27-2.83 1.9-4.25M61.83 115.15l1.84 2.46 1.89-4.26M73.05 109.86l1.86 2.52c.64-1.4 1.27-2.81 1.91-4.21M73.05 115.06l1.86 2.52c.64-1.41 1.27-2.81 1.91-4.21M76.82 113.37l1.87 2.54c.64-1.4 1.27-2.79 1.91-4.18M76.82 118.3l1.87 2.54 1.91-4.19M80.6 122.05l1.87 2.56 1.92-4.16M69.3 127.11l1.85 2.5q1-2.12 1.9-4.23M76.84 129l1.87 2.54q.95-2.1 1.91-4.18M65.56 134.19l1.84 2.48 1.9-4.24M69.32 132.42l1.85 2.5q1-2.11 1.9-4.22M107.41 133l-1.91 4-2-2.66" stroke="#b6b7b0"/><path d="M111.28 131.62l-1.92 4-2-2.68" stroke="#b6b7b0"/><path d="M115.16 130.33l-1.92 4-2-2.7M95.86 126.55L94 130.64c-.65-.87-1.29-1.74-1.94-2.6M92 128l-1.89 4.11q-1-1.31-1.92-2.58M95.86 131.92L94 136l-2-2.59M92 133.41l-1.89 4.11-1.92-2.58M105.5 131.72l-2-2.66M103.55 129.06l-1.91 4.05-1.94-2.64M99.7 130.47c-.63 1.36-1.27 2.72-1.9 4.07l-1.94-2.62" stroke="#b6b7b0"/><path d="M88.22 129.57l-1.89 4.12-1.92-2.56M105.5 126.35l-2-2.66M103.55 123.69l-1.91 4-1.94-2.59M99.7 125.1c-.63 1.35-1.27 2.71-1.9 4.07l-1.94-2.62M99.7 93.66c-.63 1.36-1.27 2.71-1.9 4.07l-1.94-2.62M95.86 95.11L94 99.2c-.65-.87-1.29-1.74-1.94-2.6M95.86 100.33L94 104.42c-.65-.87-1.29-1.74-1.94-2.6M99.7 98.88c-.63 1.36-1.27 2.71-1.9 4.07l-1.94-2.62M103.55 97.47l-1.91 4-1.94-2.59M92 101.82l-1.89 4.11-1.92-2.58M92 107c-.63 1.37-1.26 2.73-1.89 4.11l-1.92-2.59" stroke="#b6b7b0"/><path d="M88.22 108.54l-1.89 4.13-1.92-2.56M88.22 113.47l-1.89 4.13-1.92-2.6M95.84 115.86L94 120l-2-2.65M88.2 124.2l-1.89 4.13-1.92-2.56M95.84 121.18L94 125.27c-.65-.86-1.29-1.73-1.94-2.6M99.7 119.73c-.63 1.35-1.27 2.71-1.9 4.07l-1.94-2.62M150.49 120.45l2 2.91c.66-1.27 1.33-2.54 2-3.81" stroke="#b6b7b0"/><path d="M146.53 121.39l2 2.89c.66-1.28 1.33-2.55 2-3.83" stroke="#b6b7b0"/><path d="M142.58 122.37l2 2.87 2-3.85M162.39 107.23l2 3q1-1.89 2-3.75M166.37 106.45l2 3 2-3.73M162.39 112.6l2 3 2-3.75" stroke="#b6b7b0"/><path d="M166.37 111.82c.66 1 1.32 2 2 3 .67-1.25 1.35-2.49 2-3.73M178.37 120.15l2 3 2-3.67M174.35 120.82l2 3c.67-1.23 1.34-2.46 2-3.69M152.45 118.1c.66-1.27 1.33-2.54 2-3.81M154.45 114.29l2 2.93 2-3.79" stroke="#b6b7b0"/><path d="M158.42 113.43l2 2.94 2-3.77M170.36 105.7l2 3 2-3.71M152.45 112.72c.66-1.27 1.33-2.54 2-3.81M154.45 108.91l2 2.93 2-3.79" stroke="#b6b7b0"/><path d="M158.42 108.05l2 3 2-3.77M158.42 76.61l2 3 2-3.77M162.39 75.79l2 3 2-3.75M162.39 81l2 3 2-3.75M158.42 81.83l2 3 2-3.77" stroke="#b6b7b0"/><path d="M154.45 82.7l2 2.92 2-3.79M166.37 80.23l2 3c.67-1.24 1.35-2.48 2-3.73M166.37 85.43c.66 1 1.32 2 2 3l2-3.73M170.36 84.68l2 3 2-3.71M170.36 89.61l2 3c.68-1.23 1.35-2.47 2-3.71M174.35 94.3l2 3c.67-1.24 1.34-2.47 2-3.69M162.39 96.53l2 3 2-3.75M170.38 100.32l2 3 2-3.71M158.42 102.68c.65 1 1.31 2 2 2.95l2-3.77" stroke="#b6b7b0"/><path d="M162.41 101.85c.66 1 1.32 2 2 3l2-3.75M202.44 111.79c-.66 1.19-1.32 2.38-2 3.57-.67-1-1.35-2.09-2-3.14M206.47 111.4c-.67 1.18-1.33 2.36-2 3.55l-2-3.16M210.49 111.05l-2 3.53-2-3.18M190.39 102.57l-2 3.62-2-3.08M186.38 103.11l-2 3.65-2-3.06M190.39 107.94l-2 3.62-2-3.07M186.38 108.49c-.66 1.21-1.32 2.43-2 3.64l-2-3.06M200.45 110.1c-.67-1-1.35-2.1-2-3.14M198.42 107l-2 3.59c-.67-1-1.35-2.08-2-3.12M194.4 107.43l-2 3.61-2-3.1M182.37 103.7l-2 3.66-2-3M200.45 104.72l-2-3.13M198.42 101.59c-.66 1.19-1.32 2.39-2 3.58-.67-1-1.35-2.08-2-3.11M194.4 102.06l-2 3.6c-.68-1-1.36-2.06-2-3.09M194.4 70.62l-2 3.6c-.68-1-1.36-2.06-2-3.09M190.39 71.13l-2 3.62-2-3.08M190.39 76.35l-2 3.62-2-3.08M194.4 75.84l-2 3.6c-.68-1-1.36-2.06-2-3.09M198.42 75.37c-.66 1.19-1.32 2.39-2 3.58-.67-1-1.35-2.08-2-3.11M186.38 76.89l-2 3.65-2-3.06M186.38 82.09l-2 3.65-2-3.06M182.37 82.68l-2 3.66-2-3M182.37 87.61l-2 3.66c-.67-1-1.35-2-2-3M190.37 91.87c-.67 1.21-1.33 2.42-2 3.63l-2-3.08M182.35 98.33l-2 3.66-2-3M190.37 97.19c-.67 1.21-1.33 2.42-2 3.63l-2-3.08M194.4 96.68l-2 3.61-2-3.1M226.63 162.33l-2-3.27-2 3.46M226.63 157.11l-2-3.27-2 3.46M226.63 151.91l-2-3.27-2 3.47M222.59 152.11c-.66-1.09-1.33-2.17-2-3.25l-2 3.48M218.56 152.34l-2-3.23M230.66 151.75l-2-3.28-2 3.44M230.66 146.83l-2-3.29-2 3.44M234.72 141.48l-2-3.31c-.68 1.14-1.37 2.28-2 3.43M222.59 147.18c-.66-1.09-1.33-2.17-2-3.25l-2 3.48M218.56 142c-.67-1.08-1.33-2.16-2-3.23l-2 3.5M214.52 142.29c-.66-1.07-1.32-2.14-2-3.21l-2 3.52M210.49 142.6l-2-3.19-2 3.55M206.47 143l-2-3.17-2 3.56M210.49 148c-.66-1.06-1.32-2.13-2-3.19l-2 3.54M206.47 148.35c-.67-1-1.33-2.11-2-3.17l-2 3.57M202.44 148.75c-.66-1.06-1.32-2.11-2-3.16-.67 1.2-1.35 2.39-2 3.59M250.86 146.63c-.67-1.13-1.33-2.26-2-3.38l-2 3.34M246.82 146.59l-2-3.36-2 3.36M242.78 146.59l-2-3.34-2 3.38M246.82 141.19l-2-3.36-2 3.36M242.78 141.19l-2-3.34-2 3.38M238.74 141.23c-.67-1.11-1.33-2.22-2-3.32l-2 3.4M242.78 135.87l-2-3.34-2 3.38M238.74 135.91c-.67-1.11-1.33-2.22-2-3.32l-2 3.4M238.76 130.54c-.66-1.11-1.33-2.22-2-3.33l-2 3.4M234.72 130.61l-2-3.3-2 3.42M230.66 130.73l-2-3.28-2 3.44M226.63 130.89l-2-3.27-2 3.47M222.59 131.09c-.66-1.09-1.33-2.17-2-3.25l-2 3.48M234.72 125.24l-2-3.3-2 3.42M230.66 125.36l-2-3.29-2 3.45M230.66 120.1l-2-3.29-2 3.44M226.63 125.52l-2-3.27-2 3.46M226.63 120.25c-.67-1.09-1.33-2.18-2-3.26l-2 3.46M222.59 120.45c-.66-1.09-1.33-2.17-2-3.25l-2 3.48M222.59 125.71c-.66-1.08-1.33-2.16-2-3.25l-2 3.49M218.56 126c-.67-1.08-1.33-2.16-2-3.23l-2 3.5M218.56 131.32l-2-3.23-2 3.5M214.52 131.59c-.66-1.07-1.32-2.14-2-3.2l-2 3.52M214.52 137c-.66-1.07-1.32-2.14-2-3.21l-2 3.52M210.49 137.28c-.66-1.06-1.32-2.13-2-3.19l-2 3.54M232.7 148.33l-2 3.42M222.59 162.52l-2-3.24-2 3.48M218.56 162.76l-2-3.23-2 3.5M214.52 163c-.66-1.07-1.32-2.14-2-3.21l-2 3.53M210.49 163.35c-.66-1.07-1.32-2.13-2-3.19l-2 3.54M210.49 158.13c-.66-1.07-1.32-2.13-2-3.19l-2 3.54M206.47 158.48l-2-3.17-2 3.56M206.47 153.28l-2-3.17-2 3.56M202.44 158.87c-.66-1.05-1.32-2.1-2-3.15l-2 3.58M250.86 156.76l-2-3.39-2 3.35M246.82 156.72l-2-3.37-2 3.37M246.82 151.52l-2-3.36c-.68 1.11-1.36 2.24-2 3.36M242.78 156.72l-2-3.35-2 3.39M242.78 161.94l-2-3.35-2 3.39M238.74 162l-2-3.33-2 3.4M234.7 162.05c-.66-1.1-1.33-2.2-2-3.3l-2 3.42M230.66 162.17c-.66-1.1-1.33-2.19-2-3.28l-2 3.44M323.23 169.38l-2-3.73-2 3M323.23 164.16l-2-3.73-2 3M323.23 159l-2-3.73-2 3M319.24 158.22l-2-3.71-2 3M315.25 157.51l-2-3.69" stroke="#b6b7b0"/><path d="M327.21 159.75c-.66-1.25-1.32-2.5-2-3.75l-2 3M327.21 154.82c-.66-1.25-1.32-2.5-2-3.75l-2 3M331.2 150.42l-2-3.77-2 2.95M319.24 153.29c-.66-1.24-1.32-2.47-2-3.71-.68 1-1.35 2-2 3M315.25 147.19l-2-3.69-2 3M311.25 146.52l-2-3.67-2 3.05M307.25 145.9l-2-3.66-2 3.07M303.24 145.31l-2-3.64-2 3.09M307.25 151.29l-2-3.65-2 3.07M303.24 150.71l-2-3.64-2 3.09M299.23 150.16l-2-3.62c-.68 1-1.36 2.07-2 3.11M347 159.32l-1.95-3.84-2 2.87" stroke="#b6b7b0"/><path d="M343.07 158.35l-2-3.83-2 2.89" stroke="#b6b7b0"/><path d="M339.11 157.41c-.65-1.28-1.3-2.55-2-3.81l-2 2.9M343.07 153l-2-3.83-2 2.89M339.11 152c-.65-1.27-1.3-2.54-2-3.81l-2 2.91" stroke="#b6b7b0"/><path d="M335.15 151.11c-.65-1.27-1.31-2.53-2-3.79l-2 2.92M339.11 146.69c-.65-1.28-1.3-2.55-2-3.81l-2 2.9" stroke="#b6b7b0"/><path d="M335.15 145.78c-.65-1.26-1.31-2.52-2-3.79l-2 2.93M335.17 140.42c-.65-1.27-1.31-2.53-2-3.79l-2 2.92" stroke="#b6b7b0"/><path d="M331.2 139.55l-2-3.77-2 2.95" stroke="#b6b7b0"/><path d="M327.21 138.73l-2-3.75-2 3M323.23 137.94l-2-3.73-2 3" stroke="#b6b7b0"/><path d="M319.24 137.2l-2-3.71-2 3M331.2 134.18l-2-3.77-2 3M327.21 133.35c-.66-1.25-1.32-2.5-2-3.75l-2 3M327.21 128.09c-.66-1.25-1.32-2.5-2-3.75l-2 3" stroke="#b6b7b0"/><path d="M323.23 132.57l-2-3.73-2 3M323.23 127.31l-2-3.74-2 3" stroke="#b6b7b0"/><path d="M319.24 126.56c-.66-1.24-1.32-2.47-2-3.71-.68 1-1.35 2-2 3M319.24 131.83c-.66-1.24-1.32-2.48-2-3.72-.68 1-1.35 2-2 3" stroke="#b6b7b0"/><path d="M315.25 131.12l-2-3.69-2 3M315.25 136.49l-2-3.69-2 3M311.25 135.83l-2-3.68-2 3M311.25 141.2l-2-3.67-2 3M307.25 140.57l-2-3.65-2 3.07M329.22 156.8l-2 2.95M319.24 168.64l-2-3.71-2 3" stroke="#b6b7b0"/><path d="M315.25 167.93l-2-3.69-2 3M311.25 167.27l-2-3.68-2 3M307.25 166.64l-2-3.65-2 3.06M307.25 161.42l-2-3.65-2 3.06M303.24 160.83l-2-3.63c-.68 1-1.35 2.05-2 3.08M303.24 155.63l-2-3.63-2 3.09M299.23 160.28l-2-3.61-2 3.1M347 169.45l-1.95-3.85-2 2.87" stroke="#b6b7b0"/><path d="M343.07 168.47l-2-3.83-2 2.89M343.07 163.27c-.66-1.27-1.31-2.55-2-3.83l-2 2.89" stroke="#b6b7b0"/><path d="M339.11 167.53c-.65-1.27-1.3-2.54-2-3.81l-2 2.91M339.11 172.75c-.65-1.27-1.3-2.54-2-3.81l-2 2.91" stroke="#b6b7b0"/><path d="M335.15 171.85c-.65-1.27-1.31-2.53-2-3.79l-2 2.93" stroke="#b6b7b0"/><path d="M331.18 171l-2-3.77-2 2.95" stroke="#b6b7b0"/><path d="M327.21 170.17l-2-3.76-2 3M416.55 199q-.93-2.1-1.87-4.19l-1.9 2.51M416.55 193.79q-.93-2.1-1.87-4.19l-1.9 2.51M416.55 188.59c-.62-1.4-1.24-2.79-1.87-4.19l-1.9 2.51M412.78 186.91l-1.87-4.18-1.91 2.53M409 185.26c-.63-1.38-1.25-2.77-1.88-4.15M420.3 190.32c-.62-1.41-1.24-2.81-1.85-4.22l-1.9 2.49M420.3 185.39c-.62-1.41-1.24-2.81-1.85-4.22-.64.83-1.27 1.66-1.9 2.5M424.06 181.93q-.92-2.12-1.85-4.23l-1.89 2.47M412.78 182c-.62-1.39-1.25-2.78-1.87-4.18l-1.91 2.52M409 174.94l-1.88-4.16-1.91 2.55M405.21 173.33l-1.88-4.14-1.93 2.58M401.4 171.77l-1.89-4.12-1.92 2.59M397.59 170.24q-1-2.06-1.9-4.1l-1.93 2.61M401.4 177.16l-1.89-4.16-1.92 2.6M397.59 175.64c-.64-1.37-1.27-2.74-1.9-4.1-.64.86-1.29 1.73-1.93 2.61M393.76 174.15c-.63-1.37-1.27-2.73-1.9-4.08-.65.87-1.29 1.75-1.94 2.63M438.87 194.6q-.9-2.16-1.82-4.32l-1.86 2.4M435.19 192.68l-1.83-4.3-1.87 2.42M431.49 190.8c-.61-1.43-1.23-2.85-1.84-4.28l-1.88 2.48M435.19 187.28l-1.83-4.28c-.62.8-1.25 1.6-1.87 2.41M431.49 185.4c-.61-1.43-1.23-2.85-1.84-4.27-.63.8-1.25 1.62-1.88 2.43M427.77 183.56l-1.84-4.26-1.93 2.46M431.49 180.08c-.61-1.43-1.23-2.85-1.84-4.28l-1.88 2.44M427.77 178.24l-1.84-4.24-1.93 2.43M427.79 172.87c-.61-1.42-1.23-2.84-1.84-4.25l-1.89 2.45M424.06 171.07q-.92-2.12-1.85-4.24l-1.89 2.48M420.3 169.3c-.62-1.41-1.24-2.81-1.85-4.22l-1.9 2.49M416.55 167.57q-.93-2.1-1.87-4.19l-1.9 2.51M412.78 165.89l-1.87-4.18-1.91 2.53M424.06 165.7q-.92-2.13-1.85-4.24l-1.89 2.47M420.3 163.92c-.62-1.4-1.24-2.81-1.85-4.21l-1.9 2.49M420.3 158.66c-.62-1.41-1.24-2.81-1.85-4.22-.64.83-1.27 1.66-1.9 2.5M416.55 162.2q-.93-2.1-1.87-4.2l-1.9 2.52M416.55 156.94q-.93-2.1-1.87-4.2l-1.9 2.51M412.78 155.25c-.62-1.39-1.25-2.78-1.87-4.18l-1.91 2.54M412.78 160.52c-.62-1.4-1.25-2.79-1.87-4.18l-1.91 2.53" stroke="#b6b7b0"/><path d="M409 158.87l-1.88-4.16-1.91 2.55M409 164.24c-.63-1.38-1.25-2.77-1.88-4.15-.64.84-1.28 1.69-1.91 2.55M405.21 162.64l-1.88-4.14c-.65.85-1.29 1.71-1.93 2.57M405.21 168l-1.88-4.14-1.93 2.57M401.4 166.44l-1.89-4.12-1.92 2.6M422.19 187.85l-1.89 2.47M412.78 197.33c-.62-1.4-1.25-2.79-1.87-4.18l-1.91 2.53" stroke="#b6b7b0"/><path d="M409 195.68c-.63-1.38-1.25-2.77-1.88-4.16-.64.85-1.28 1.7-1.91 2.56M405.21 194.08l-1.88-4.14c-.65.85-1.29 1.71-1.93 2.57M401.4 192.51l-1.89-4.12-1.92 2.61M401.4 187.29l-1.89-4.12-1.92 2.59M397.59 185.76c-.64-1.37-1.27-2.73-1.9-4.1l-1.93 2.61M397.59 180.56q-1-2-1.9-4.1l-1.93 2.61M393.76 184.27l-1.9-4.08-1.94 2.63M438.87 204.72c-.6-1.44-1.21-2.87-1.82-4.31l-1.86 2.39M435.19 202.8l-1.83-4.29-1.87 2.41M435.19 197.61l-1.83-4.3-1.87 2.42M431.49 200.92l-1.84-4.27-1.88 2.43M431.49 206.14l-1.84-4.27-1.88 2.43M427.77 204.3c-.61-1.42-1.23-2.84-1.84-4.25L424 202.5M424 202.5c-.61-1.41-1.23-2.83-1.85-4.24l-1.89 2.48" stroke="#b6b7b0"/><path d="M420.3 200.74l-1.85-4.22-1.9 2.49M246.82 119.86c.66-1.12 1.33-2.23 2-3.34l2 3.38M242.78 119.86c.66-1.12 1.33-2.24 2-3.36l2 3.36M238.74 119.9c.67-1.13 1.33-2.26 2-3.38l2 3.34M258.93 130.73l2-3.28 2 3.44M263 130.89l2-3.27 2 3.47M258.93 125.36c.67-1.1 1.34-2.19 2-3.29l2 3.45M263 125.52l2-3.27 2 3.46M248.82 121.78l2 3.38M250.86 125.16c.66-1.11 1.33-2.21 2-3.32l2 3.4M254.9 125.24l2-3.3c.69 1.14 1.36 2.28 2 3.42M267 131.09c.66-1.09 1.33-2.17 2-3.25l2 3.48M248.82 127.15l2 3.39M250.86 130.54c.66-1.11 1.33-2.22 2-3.33l2 3.41M254.9 130.62c.66-1.11 1.33-2.21 2-3.31.69 1.14 1.36 2.28 2 3.42M254.9 162.05l2-3.3c.69 1.14 1.36 2.28 2 3.42M258.93 162.17l2-3.28 2 3.44M258.93 157l2-3.28 2 3.44M254.9 156.83l2-3.3c.69 1.14 1.36 2.28 2 3.42M250.86 156.76c.66-1.11 1.33-2.22 2-3.33l2 3.4M263 157.11l2-3.27 2 3.46M263 151.91l2-3.27 2 3.47M267 152.11c.66-1.09 1.33-2.17 2-3.25l2 3.48M267 147.18c.66-1.09 1.33-2.17 2-3.25l2 3.48M271 142c.67-1.08 1.33-2.16 2-3.23.68 1.16 1.36 2.33 2 3.5M258.93 141.43c.67-1.1 1.34-2.19 2-3.29l2 3.44M267 136.46l2-3.25 2 3.48M254.9 136l2-3.31c.69 1.14 1.36 2.28 2 3.43M259 136.11l2-3.29 2 3.44M299.23 123.43l-2-3.62c-.68 1-1.36 2.07-2 3.11M303.24 124l-2-3.64-2 3.09M307.25 124.56l-2-3.65-2 3.07M287.18 132.65c-.67-1.18-1.33-2.37-2-3.55l-2 3.16M283.15 132.26c-.66-1.18-1.32-2.36-2-3.54l-2 3.19M287.18 127.28l-2-3.56-2 3.17M283.15 126.89c-.66-1.18-1.32-2.36-2-3.54-.68 1.06-1.36 2.12-2 3.19M297.25 125.08l-2 3.1M295.22 128.18l-2-3.59-2 3.12M291.2 127.71c-.66-1.19-1.33-2.38-2-3.58-.68 1.05-1.36 2.1-2 3.15M279.13 131.91l-2-3.52c-.68 1.07-1.36 2.14-2 3.21M297.25 130.45c-.68 1-1.36 2.07-2 3.11M295.22 133.56l-2-3.6-2 3.13M291.2 133.09c-.66-1.2-1.33-2.39-2-3.58-.68 1.05-1.36 2.09-2 3.14M291.2 164.52l-2-3.57c-.68 1-1.36 2.09-2 3.14M287.18 164.09c-.67-1.18-1.33-2.37-2-3.55l-2 3.16M287.18 158.87c-.67-1.18-1.33-2.37-2-3.55l-2 3.16M291.2 159.3l-2-3.57c-.68 1-1.36 2.09-2 3.14M295.22 159.77l-2-3.59-2 3.12M283.15 158.48c-.66-1.18-1.32-2.36-2-3.54l-2 3.19M283.15 153.28c-.66-1.18-1.32-2.36-2-3.53-.68 1.06-1.36 2.12-2 3.18M279.13 152.93l-2-3.52c-.68 1.07-1.36 2.14-2 3.21M279.13 148l-2-3.52c-.68 1.07-1.36 2.14-2 3.21M287.16 143.35l-2-3.56-2 3.17M279.1 137.28l-2-3.52-2 3.21M287.16 138l-2-3.56-2 3.16M291.2 138.46c-.66-1.2-1.33-2.39-2-3.58-.68 1.05-1.36 2.1-2 3.15M343.09 131.62l2-2.88 2 3.86" stroke="#b6b7b0"/><path d="M339.13 130.68l2-2.9 2 3.84" stroke="#b6b7b0"/><path d="M335.17 129.78c.65-1 1.31-2 2-2.92l2 3.82M354.91 145.31l1.94-2.82 2 3.92" stroke="#b6b7b0"/><path d="M358.83 146.41l1.94-2.8 2 3.94M354.91 139.94l1.94-2.82 2 3.92M358.83 141l1.94-2.8 2 3.93M345 134l2 3.86M347 137.86l2-2.86c.67 1.29 1.33 2.59 2 3.88" stroke="#b6b7b0"/><path d="M351 138.88l1.95-2.84 2 3.9M362.75 147.55l1.93-2.79 2 4M345 139.38c.67 1.28 1.33 2.57 2 3.86M347 143.24l2-2.86c.67 1.29 1.33 2.58 2 3.88M351 144.26l1.95-2.84 2 3.89M351 175.69l1.95-2.84 2 3.9" stroke="#b6b7b0"/><path d="M354.91 176.75l1.94-2.82 2 3.92M354.91 171.53l1.94-2.82 2 3.92" stroke="#b6b7b0"/><path d="M351 170.47l1.95-2.84 2 3.9M347 169.46l2-2.86c.67 1.29 1.33 2.58 2 3.87M358.83 172.63l1.94-2.8 2 3.94M358.83 167.43l1.94-2.8 2 3.94" stroke="#b6b7b0"/><path d="M362.75 168.57l1.93-2.79 2 4M362.75 163.64l1.93-2.78c.66 1.31 1.32 2.63 2 3.95M366.65 159.42l1.93-2.77c.66 1.33 1.32 2.65 2 4M354.91 156l1.94-2.82 2 3.92M362.77 152.93l1.93-2.79 2 4M351 149.63l1.95-2.84 2 3.9" stroke="#b6b7b0"/><path d="M354.93 150.69l1.94-2.82 2 3.92M393.76 147.42c-.63-1.37-1.27-2.73-1.9-4.08-.65.87-1.29 1.75-1.94 2.63M397.59 148.91c-.64-1.37-1.27-2.74-1.9-4.1-.64.86-1.29 1.73-1.93 2.61M401.4 150.43l-1.89-4.12-1.92 2.6M382.21 153.82l-1.91-4-2 2.69" stroke="#b6b7b0"/><path d="M378.34 152.49l-1.92-4-2 2.71M382.21 148.45l-1.91-4-2 2.69" stroke="#b6b7b0"/><path d="M378.34 147.12l-1.92-4c-.65.91-1.3 1.81-2 2.71M391.86 148.6l-1.94 2.63M389.92 151.23l-1.9-4.06-1.95 2.65M386.07 149.82c-.64-1.35-1.27-2.7-1.91-4l-2 2.67M374.46 151.2l-1.92-4-2 2.73M391.86 154c-.65.88-1.29 1.76-1.94 2.63M389.92 156.6l-1.9-4.06-1.95 2.65M386.07 155.19l-1.91-4-2 2.67M386.07 186.63l-1.91-4-2 2.67" stroke="#b6b7b0"/><path d="M382.21 185.26l-1.91-4-2 2.69M382.21 180l-1.91-4-2 2.69M386.07 181.41l-1.91-4-2 2.67M389.92 182.82l-1.9-4.06-1.95 2.65" stroke="#b6b7b0"/><path d="M378.34 178.71l-1.92-4-2 2.71M378.34 173.51l-1.92-4-2 2.71" stroke="#b6b7b0"/><path d="M374.46 172.22l-1.92-4-2 2.73M374.46 167.29l-1.92-4c-.66.9-1.31 1.81-2 2.73M382.19 164.51l-1.91-4-2 2.69M374.44 156.56l-1.92-4-2 2.73M382.19 159.19c-.64-1.34-1.27-2.69-1.91-4l-2 2.69M386.07 160.57l-1.91-4-2 2.68M130.77 177.85l-1.94-2.8-2 3.94M130.77 172.63l-1.94-2.8-2 3.94M130.77 167.43l-1.94-2.8-2 3.94" stroke="#b6b7b0"/><path d="M126.85 168.57l-1.93-2.78-2 4M134.69 166.33l-1.94-2.82-2 3.92M134.69 161.41c-.65-.95-1.29-1.89-1.94-2.82l-2 3.91M138.64 155.11l-1.94-2.84-2 3.9M126.85 163.64l-1.93-2.78-2 4M122.94 159.42c-.64-.93-1.28-1.85-1.93-2.77-.65 1.33-1.31 2.65-2 4" stroke="#b6b7b0"/><path d="M119.05 160.63c-.65-.91-1.29-1.83-1.93-2.74-.65 1.33-1.31 2.66-2 4" stroke="#b6b7b0"/><path d="M115.16 161.89l-1.92-2.73c-.66 1.34-1.31 2.68-2 4" stroke="#b6b7b0"/><path d="M111.28 163.18l-1.92-2.71-2 4M115.16 167.28l-1.92-2.72c-.66 1.34-1.31 2.68-2 4" stroke="#b6b7b0"/><path d="M111.28 168.58l-1.92-2.71-2 4" stroke="#b6b7b0"/><path d="M107.41 169.91c-.64-.9-1.28-1.79-1.91-2.69l-2 4.06M154.43 156.51l-2-2.92-2 3.82" stroke="#b6b7b0"/><path d="M150.47 157.41l-2-2.9-2 3.84" stroke="#b6b7b0"/><path d="M146.51 158.35l-1.95-2.88-2 3.86M150.47 152l-2-2.9-2 3.84M146.51 153l-1.95-2.88-2 3.86M142.56 153.93l-1.95-2.86c-.66 1.29-1.32 2.59-2 3.88M146.51 147.63l-1.95-2.88-2 3.86M142.56 148.61l-1.95-2.86-2 3.88M142.58 143.23l-1.94-2.86-2 3.88M138.64 144.25c-.64-.95-1.29-1.9-1.94-2.84l-2 3.9M134.69 145.31l-1.94-2.82-2 3.92" stroke="#b6b7b0"/><path d="M130.77 146.41l-1.94-2.8-2 3.94" stroke="#b6b7b0"/><path d="M126.85 147.55l-1.93-2.79-2 4M138.64 138.88c-.64-.95-1.29-1.9-1.94-2.84l-2 3.89M134.69 139.94l-1.94-2.82-2 3.92M134.69 134.68c-.65-1-1.29-1.89-1.94-2.82l-2 3.91M130.77 141l-1.94-2.8-2 3.93" stroke="#b6b7b0"/><path d="M130.77 135.77l-1.94-2.8-2 3.94" stroke="#b6b7b0"/><path d="M126.85 136.91l-1.93-2.78-2 4M126.85 142.17l-1.93-2.78-2 4" stroke="#b6b7b0"/><path d="M122.94 143.35c-.64-.92-1.28-1.85-1.93-2.76l-2 4M122.94 148.72L121 146c-.65 1.32-1.31 2.65-2 4" stroke="#b6b7b0"/><path d="M119.05 149.94l-1.93-2.75-2 4M119.05 155.31l-1.93-2.74-2 4" stroke="#b6b7b0"/><path d="M115.16 156.56l-1.92-2.72c-.66 1.34-1.31 2.68-2 4M136.68 162.44c-.67 1.29-1.33 2.59-2 3.89M126.85 179l-1.93-2.79-2 4M122.94 180.16L121 177.4c-.65 1.32-1.31 2.65-2 4" stroke="#b6b7b0"/><path d="M119.05 181.38l-1.93-2.75c-.65 1.33-1.31 2.66-2 4" stroke="#b6b7b0"/><path d="M115.16 182.63l-1.92-2.73c-.66 1.34-1.31 2.68-2 4M115.16 177.41l-1.92-2.73c-.66 1.34-1.31 2.68-2 4" stroke="#b6b7b0"/><path d="M111.28 178.7l-1.92-2.7-2 4M111.28 173.5l-1.92-2.7-2 4" stroke="#b6b7b0"/><path d="M107.41 180l-1.91-2.68-2 4.05M154.43 166.63l-2-2.91c-.67 1.27-1.34 2.54-2 3.82" stroke="#b6b7b0"/><path d="M150.47 167.54l-2-2.9-2 3.84M150.47 162.34l-2-2.9-2 3.84" stroke="#b6b7b0"/><path d="M146.51 168.48l-1.95-2.88c-.67 1.28-1.33 2.57-2 3.86M146.51 173.7c-.65-1-1.3-1.92-1.95-2.88-.67 1.28-1.33 2.57-2 3.86M142.56 174.68l-1.95-2.86c-.66 1.29-1.32 2.58-2 3.87" stroke="#b6b7b0"/><path d="M138.62 175.69c-.65-.94-1.29-1.89-1.94-2.84-.67 1.3-1.33 2.6-2 3.9" stroke="#b6b7b0"/><path d="M134.69 176.75l-1.94-2.82-2 3.92M58.11 164.07c.61-1.43 1.23-2.85 1.84-4.28l1.88 2.44M54.41 166l1.83-4.3 1.87 2.42M50.72 167.87l1.83-4.32 1.86 2.4M69.3 169.3l1.85-4.22 1.9 2.49M73.05 167.57l1.86-4.19c.64.83 1.27 1.67 1.91 2.51M69.3 163.92c.62-1.4 1.23-2.81 1.85-4.21l1.9 2.49M73.05 162.2l1.86-4.2 1.91 2.52M60 165.06l1.88 2.43M61.83 167.49q.91-2.13 1.84-4.26l1.89 2.46" stroke="#b6b7b0"/><path d="M65.56 165.69c.61-1.42 1.23-2.83 1.84-4.24l1.9 2.47M76.82 165.89c.62-1.39 1.24-2.79 1.87-4.18l1.91 2.53M60 170.43l1.88 2.43M61.83 172.86c.61-1.42 1.22-2.83 1.84-4.25l1.89 2.45M65.56 171.06l1.84-4.23c.63.82 1.27 1.64 1.9 2.47M65.56 202.5l1.84-4.24 1.9 2.48" stroke="#b6b7b0"/><path d="M69.3 200.74c.62-1.41 1.23-2.82 1.85-4.22l1.9 2.49M69.3 195.52c.62-1.41 1.23-2.82 1.85-4.22l1.9 2.49M65.56 197.28L67.4 193l1.9 2.48M61.83 199.08q.91-2.13 1.84-4.25l1.89 2.45M73.05 193.79l1.86-4.19c.64.83 1.27 1.67 1.91 2.51M73.05 188.6l1.86-4.2c.64.83 1.27 1.67 1.91 2.51M76.82 186.91c.62-1.39 1.24-2.79 1.87-4.18l1.91 2.53M76.82 182q.93-2.08 1.87-4.17l1.91 2.53M80.6 174.94c.62-1.39 1.25-2.77 1.87-4.16l1.92 2.55M69.3 180c.62-1.4 1.23-2.81 1.85-4.21l1.9 2.49M76.84 171.25l1.87-4.17 1.91 2.53M65.56 176.43l1.84-4.23 1.9 2.47M69.32 174.66q.92-2.11 1.85-4.21c.64.82 1.27 1.66 1.9 2.49M107.41 143.18c-.64-.9-1.28-1.79-1.91-2.69l-2 4.06" stroke="#b6b7b0"/><path d="M111.28 141.85l-1.92-2.71-2 4" stroke="#b6b7b0"/><path d="M115.16 140.55l-1.92-2.72c-.66 1.34-1.31 2.68-2 4M95.86 158.05L94 155.42l-2 4.11M92 159.53l-1.89-2.6-1.92 4.13M95.86 152.67L94 150c-.65 1.38-1.29 2.75-1.94 4.12M92 154.16l-1.89-2.61-1.92 4.14M105.5 145.76l-2 4.05M103.55 149.81c-.64-.89-1.27-1.78-1.91-2.66-.65 1.35-1.29 2.71-1.94 4.07M99.7 151.22l-1.9-2.64c-.65 1.36-1.29 2.73-1.94 4.09" stroke="#b6b7b0"/><path d="M88.22 161.06l-1.89-2.59-1.92 4.16M105.5 151.13l-2 4.06M103.55 155.19l-1.91-2.67-1.94 4.08M99.7 156.6c-.63-.89-1.27-1.77-1.9-2.65-.65 1.36-1.29 2.73-1.94 4.1M99.7 188l-1.9-2.64c-.65 1.36-1.29 2.73-1.94 4.09M95.86 189.48L94 186.86 92 191M95.86 184.26L94 181.64l-2 4.11M99.7 182.81l-1.9-2.64c-.65 1.36-1.29 2.73-1.94 4.09M103.55 181.4l-1.91-2.66c-.65 1.36-1.29 2.72-1.94 4.07M92 185.75l-1.89-2.6-1.92 4.13M92 180.56L90.14 178l-1.92 4.13M88.22 182.08l-1.89-2.59-1.92 4.16M88.22 177.16l-1.89-2.59-1.92 4.15M95.84 168.75L94 166.12c-.65 1.37-1.29 2.74-1.94 4.12M88.2 166.44l-1.89-2.58-1.92 4.14M95.84 163.43L94 160.8c-.65 1.37-1.29 2.74-1.94 4.12M99.7 162l-1.9-2.65-1.94 4.1M150.49 130.68c.65-1.28 1.3-2.55 2-3.81l2 2.9" stroke="#b6b7b0"/><path d="M146.53 131.62l2-3.83 2 2.89" stroke="#b6b7b0"/><path d="M142.58 132.59c.66-1.28 1.31-2.56 2-3.84l2 2.87M162.39 138.73c.66-1.26 1.31-2.51 2-3.75l2 3M166.37 137.94l2-3.73 2 3M162.39 133.35l2-3.75 2 3M166.37 132.57l2-3.73 2 3M152.45 132.13l2 2.91M154.45 135c.65-1.27 1.31-2.53 2-3.79l2 2.93" stroke="#b6b7b0"/><path d="M158.42 134.18l2-3.77 2 2.94M170.36 137.2c.66-1.24 1.31-2.48 2-3.71l2 3M152.45 137.5l2 2.91M154.45 140.41l2-3.79 2 2.93" stroke="#b6b7b0"/><path d="M158.42 139.55l2-3.77 2 2.95M158.42 171l2-3.77 2 2.95" stroke="#b6b7b0"/><path d="M162.39 170.17l2-3.76 2 3M162.39 165l2-3.76 2 3" stroke="#b6b7b0"/><path d="M158.42 165.77l2-3.77 2 2.95" stroke="#b6b7b0"/><path d="M154.45 166.63l2-3.79 2 2.93M166.37 164.16l2-3.73 2 3M166.37 159l2-3.73 2 3M170.36 158.22c.66-1.24 1.31-2.48 2-3.71l2 3M170.36 153.29l2-3.71c.68 1 1.35 2 2 3M174.35 147.19l2-3.69 2 3M162.39 149.42l2-3.75 2 3M170.38 142.57l2-3.71 2 3M158.42 144.92l2-3.77 2 2.95" stroke="#b6b7b0"/><path d="M162.41 144.1l2-3.76 2 3M202.44 122c-.66-1.05-1.32-2.1-2-3.15-.67 1.2-1.35 2.39-2 3.59M206.47 121.62l-2-3.17-2 3.56M210.49 121.27c-.66-1.06-1.32-2.13-2-3.19l-2 3.54M190.39 134.06c-.66-1-1.32-2.06-2-3.09-.67 1.21-1.35 2.42-2 3.64M186.38 134.61c-.66-1-1.32-2.05-2-3.07l-2 3.66M190.39 128.69c-.66-1-1.32-2.06-2-3.09-.67 1.21-1.35 2.42-2 3.64M186.38 129.24l-2-3.08-2 3.66M200.45 124.13l-2 3.58M198.42 127.71c-.66-1-1.32-2.09-2-3.13-.67 1.2-1.35 2.4-2 3.6M194.4 128.18l-2-3.11c-.68 1.2-1.36 2.41-2 3.62M182.37 135.2l-2-3.06-2 3.68M200.45 129.5l-2 3.58M198.42 133.08c-.66-1-1.32-2.09-2-3.13-.67 1.2-1.35 2.4-2 3.6M194.4 133.55l-2-3.11c-.68 1.21-1.36 2.41-2 3.62M194.4 165l-2-3.11c-.68 1.2-1.36 2.41-2 3.62M190.39 165.5c-.66-1-1.32-2.06-2-3.09-.67 1.21-1.35 2.42-2 3.64M190.39 160.28c-.66-1-1.32-2.06-2-3.09-.67 1.21-1.35 2.42-2 3.64M194.4 159.77l-2-3.11c-.68 1.21-1.36 2.41-2 3.62M198.42 159.3c-.66-1-1.32-2.09-2-3.13-.67 1.2-1.35 2.4-2 3.6M186.38 160.83c-.66-1-1.32-2.05-2-3.07-.67 1.21-1.35 2.43-2 3.66M186.38 155.63c-.66-1-1.32-2-2-3.07l-2 3.66M182.37 156.22l-2-3.06-2 3.69M182.37 151.29l-2-3-2 3.68M190.37 144.76c-.67-1-1.33-2.06-2-3.09-.67 1.21-1.35 2.42-2 3.64M182.35 140.57l-2-3-2 3.68M190.37 139.44c-.67-1-1.33-2.06-2-3.09-.67 1.21-1.35 2.42-2 3.64M194.4 138.93l-2-3.12c-.68 1.21-1.36 2.42-2 3.63" stroke="#b6b7b0"/><path stroke="#efefef" d="M247.86 241.47l-1.94 3.35-1.98-3.35"/><path stroke="#efefef" d="M251.76 241.47l-1.94 3.35-1.98-3.35M243.94 241.47l-1.94 3.35-1.98-3.35M263.51 241.47l-1.93 3.35-1.98-3.35"/><path stroke="#efefef" d="M267.41 241.47l-1.94 3.35-1.98-3.35M259.6 241.47l-1.94 3.35-1.98-3.35M275.25 241.47l-1.94 3.35-1.98-3.35"/><path stroke="#efefef" d="M279.14 241.47l-1.93 3.35-1.98-3.35M271.33 241.47l-1.94 3.35-1.98-3.35M263.51 246.52l-1.93 3.36-1.98-3.36"/><path stroke="#efefef" d="M267.41 246.52l-1.94 3.36-1.98-3.36M259.6 246.52l-1.94 3.36-1.98-3.36M275.25 246.52l-1.94 3.36-1.98-3.36"/><path stroke="#efefef" d="M271.33 246.52l-1.94 3.36-1.98-3.36M263.51 251.91l-1.93 3.36-1.98-3.36"/><path stroke="#efefef" d="M267.41 251.91l-1.94 3.36-1.98-3.36M259.6 251.91l-1.94 3.36-1.98-3.36M255.68 251.91l-1.94 3.36-1.98-3.36M255.68 257.07l-1.94 3.36-1.98-3.36M247.86 251.91l-1.94 3.36-1.98-3.36M247.86 257.07l-1.94 3.36-1.98-3.36M247.86 262.09l-1.94 3.36-1.98-3.36M275.25 251.91l-1.94 3.36-1.98-3.36"/><path stroke="#efefef" d="M271.33 251.91l-1.94 3.36-1.98-3.36M263.51 262.09l-1.93 3.36-1.98-3.36"/><path stroke="#efefef" d="M267.41 262.09l-1.94 3.36-1.98-3.36M259.6 262.09l-1.94 3.36-1.98-3.36M255.68 262.09l-1.94 3.36-1.98-3.36M275.25 262.09l-1.94 3.36-1.98-3.36"/><path stroke="#efefef" d="M271.33 262.09l-1.94 3.36-1.98-3.36M263.51 267.02l-1.94 3.36-1.98-3.36"/><path stroke="#efefef" d="M267.4 267.02l-1.93 3.36-1.98-3.36M259.59 267.02l-1.94 3.36-1.98-3.36M275.24 267.02l-1.94 3.36-1.98-3.36M271.32 267.02l-1.94 3.36-1.98-3.36M263.51 272.03l-1.94 3.35-1.98-3.35"/><path stroke="#efefef" d="M267.4 272.03l-1.93 3.35-1.98-3.35M259.59 272.03l-1.94 3.35-1.98-3.35M275.24 272.03l-1.94 3.35-1.98-3.35"/><path stroke="#efefef" d="M279.14 272.03l-1.93 3.35-1.98-3.35M271.32 272.03l-1.94 3.35-1.98-3.35M263.51 257.07l-1.93 3.36-1.98-3.36"/><path stroke="#efefef" d="M267.41 257.07l-1.94 3.36-1.98-3.36M275.25 257.07l-1.94 3.36-1.98-3.36"/><path stroke="#efefef" d="M271.33 257.07l-1.94 3.36-1.98-3.36M228.23 241.47l1.93 3.35 1.99-3.35"/><path stroke="#efefef" d="M224.33 241.47l1.94 3.35 1.98-3.35M232.15 241.47l1.93 3.35 1.98-3.35M216.49 241.47l1.94 3.35 1.98-3.35"/><path stroke="#efefef" d="M212.59 241.47l1.94 3.35 1.98-3.35M220.41 241.47l1.94 3.35 1.98-3.35M228.23 246.52l1.93 3.36 1.99-3.36"/><path stroke="#efefef" d="M224.33 246.52l1.94 3.36 1.98-3.36M232.15 246.52l1.93 3.36 1.98-3.36M216.49 246.52l1.94 3.36 1.98-3.36M220.41 246.52l1.94 3.36 1.98-3.36M228.23 251.91l1.93 3.36 1.99-3.36"/><path stroke="#efefef" d="M224.33 251.91l1.94 3.36 1.98-3.36M232.15 251.91l1.93 3.36 1.98-3.36M236.06 251.91l1.94 3.36 1.98-3.36M236.06 257.07l1.94 3.36 1.98-3.36M216.49 251.91l1.94 3.36 1.98-3.36M220.41 251.91l1.94 3.36 1.98-3.36M228.23 262.09l1.93 3.36 1.99-3.36"/><path stroke="#efefef" d="M224.33 262.09l1.94 3.36 1.98-3.36M232.15 262.09l1.93 3.36 1.98-3.36M236.06 262.09l1.94 3.36 1.98-3.36M216.49 262.09l1.94 3.36 1.98-3.36M220.41 262.09l1.94 3.36 1.98-3.36M228.23 267.02l1.94 3.36 1.98-3.36"/><path stroke="#efefef" d="M224.34 267.02l1.93 3.36 1.98-3.36M232.15 267.02l1.94 3.36 1.98-3.36M216.5 267.02l1.94 3.36 1.98-3.36M220.42 267.02l1.93 3.36 1.99-3.36M228.23 272.03l1.94 3.35 1.98-3.35"/><path stroke="#efefef" d="M224.34 272.03l1.93 3.35 1.98-3.35M232.15 272.03l1.94 3.35 1.98-3.35M216.5 272.03l1.94 3.35 1.98-3.35"/><path stroke="#efefef" d="M212.59 272.03l1.94 3.35 1.98-3.35M220.42 272.03l1.93 3.35 1.99-3.35M228.23 257.07l1.93 3.36 1.99-3.36"/><path stroke="#efefef" d="M224.33 257.07l1.94 3.36 1.98-3.36M216.49 257.07l1.94 3.36 1.98-3.36M220.41 257.07l1.94 3.36 1.98-3.36M251.76 236.69l-1.94 3.36-1.98-3.36M255.68 236.69l-1.94 3.36-1.98-3.36M240.02 236.69l-1.93 3.36-1.99-3.36M243.94 236.69l-1.94 3.36-1.98-3.36M251.76 231.78l-1.94 3.36-1.98-3.36M255.68 231.78l-1.94 3.36-1.98-3.36M240.02 231.78l-1.93 3.36-1.99-3.36M243.94 231.78l-1.94 3.36-1.98-3.36M251.76 226.6l-1.94 3.36-1.98-3.36M255.68 226.6l-1.94 3.36-1.98-3.36M240.02 226.6l-1.93 3.36-1.99-3.36M243.94 226.6l-1.94 3.36-1.98-3.36"/><path stroke="#efefef" d="M247.86 226.6l-1.94 3.36-1.98-3.36M251.76 221.65l-1.94 3.36-1.98-3.36M255.68 221.65l-1.94 3.36-1.98-3.36M240.02 221.65l-1.93 3.36-1.99-3.36M243.94 221.65l-1.94 3.36-1.98-3.36"/><path stroke="#efefef" d="M247.86 221.65l-1.94 3.36-1.98-3.36M251.76 216.63l-1.94 3.36-1.98-3.36M255.68 216.63l-1.94 3.36-1.98-3.36M240.02 216.63l-1.93 3.36-1.99-3.36M243.94 216.63l-1.94 3.36-1.98-3.36"/><path stroke="#efefef" d="M247.86 216.63l-1.94 3.36-1.98-3.36M251.76 211.64l-1.94 3.36-1.98-3.36M255.68 211.64l-1.94 3.36-1.98-3.36M251.76 206.61l-1.94 3.36-1.98-3.36M255.68 206.61l-1.94 3.36-1.98-3.36M240.02 206.61l-1.93 3.36-1.99-3.36M255.68 201.55l-1.94 3.36-1.98-3.36M240.02 201.55l-1.93 3.36-1.99-3.36M243.94 206.61l-1.94 3.36-1.98-3.36M240.02 211.64l-1.93 3.36-1.99-3.36M243.94 211.64L242 215l-1.98-3.36"/><path stroke="#efefef" d="M247.86 211.64l-1.94 3.36-1.98-3.36M247.86 275.38l-1.94-3.35-1.98 3.35"/><path stroke="#efefef" d="M251.76 275.38l-1.94-3.35-1.98 3.35M243.94 275.38l-1.94-3.35-1.98 3.35M251.76 280.16l-1.94-3.36-1.98 3.36M255.68 280.16l-1.94-3.36-1.98 3.36M240.02 280.16l-1.93-3.36-1.99 3.36M243.94 280.16L242 276.8l-1.98 3.36M251.76 285.07l-1.94-3.36-1.98 3.36M255.68 285.07l-1.94-3.36-1.98 3.36M240.02 285.07l-1.93-3.36-1.99 3.36M243.94 285.07l-1.94-3.36-1.98 3.36M251.76 290.25l-1.94-3.36-1.98 3.36M255.68 290.25l-1.94-3.36-1.98 3.36M240.02 290.25l-1.93-3.36-1.99 3.36M243.94 290.25l-1.94-3.36-1.98 3.36"/><path stroke="#efefef" d="M247.86 290.25l-1.94-3.36-1.98 3.36M251.76 295.2l-1.94-3.36-1.98 3.36M255.68 295.2l-1.94-3.36-1.98 3.36M240.02 295.2l-1.93-3.36-1.99 3.36M243.94 295.2l-1.94-3.36-1.98 3.36"/><path stroke="#efefef" d="M247.86 295.2l-1.94-3.36-1.98 3.36M251.76 300.22l-1.94-3.36-1.98 3.36M255.68 300.22l-1.94-3.36-1.98 3.36M240.02 300.22l-1.93-3.36-1.99 3.36M243.94 300.22l-1.94-3.36-1.98 3.36"/><path stroke="#efefef" d="M247.86 300.22l-1.94-3.36-1.98 3.36M251.76 305.21l-1.94-3.36-1.98 3.36M255.68 305.21l-1.94-3.36-1.98 3.36M251.76 310.24l-1.94-3.36-1.98 3.36M255.68 310.24l-1.94-3.36-1.98 3.36M240.02 310.24l-1.93-3.36-1.99 3.36M255.68 315.3l-1.94-3.36-1.98 3.36M240.02 315.3l-1.93-3.36-1.99 3.36M243.94 310.24l-1.94-3.36-1.98 3.36M240.02 305.21l-1.93-3.36-1.99 3.36M243.94 305.21l-1.94-3.36-1.98 3.36"/><path stroke="#efefef" d="M247.86 305.21l-1.94-3.36-1.98 3.36M368.31 241.47l-1.94 3.35-1.98-3.35"/><path stroke="#efefef" d="M372.2 241.47l-1.94 3.35-1.98-3.35M364.39 241.47l-1.94 3.35-1.98-3.35M383.96 241.47l-1.94 3.35-1.98-3.35"/><path stroke="#efefef" d="M387.86 241.47l-1.94 3.35-1.98-3.35M380.04 241.47l-1.94 3.35-1.98-3.35M395.69 241.47l-1.94 3.35-1.98-3.35"/><path stroke="#efefef" d="M399.59 241.47l-1.94 3.35-1.98-3.35M391.77 241.47l-1.93 3.35-1.98-3.35M383.96 246.52l-1.94 3.36-1.98-3.36"/><path stroke="#efefef" d="M387.86 246.52l-1.94 3.36-1.98-3.36M380.04 246.52l-1.94 3.36-1.98-3.36M395.69 246.52l-1.94 3.36-1.98-3.36"/><path stroke="#efefef" d="M391.77 246.52l-1.93 3.36-1.98-3.36M383.96 251.91l-1.94 3.36-1.98-3.36"/><path stroke="#efefef" d="M387.86 251.91l-1.94 3.36-1.98-3.36M380.04 251.91l-1.94 3.36-1.98-3.36M376.12 251.91l-1.94 3.36-1.98-3.36M376.12 257.07l-1.94 3.36-1.98-3.36M368.31 251.91l-1.94 3.36-1.98-3.36M368.31 257.07l-1.94 3.36-1.98-3.36M368.31 262.09l-1.94 3.36-1.98-3.36M395.69 251.91l-1.94 3.36-1.98-3.36"/><path stroke="#efefef" d="M391.77 251.91l-1.93 3.36-1.98-3.36M383.96 262.09l-1.94 3.36-1.98-3.36"/><path stroke="#efefef" d="M387.86 262.09l-1.94 3.36-1.98-3.36M380.04 262.09l-1.94 3.36-1.98-3.36M376.12 262.09l-1.94 3.36-1.98-3.36M395.69 262.09l-1.94 3.36-1.98-3.36"/><path stroke="#efefef" d="M391.77 262.09l-1.93 3.36-1.98-3.36M383.95 267.02l-1.94 3.36-1.98-3.36"/><path stroke="#efefef" d="M387.85 267.02l-1.94 3.36-1.98-3.36M380.03 267.02l-1.93 3.36-1.98-3.36M395.69 267.02l-1.94 3.36-1.98-3.36"/><path stroke="#efefef" d="M391.77 267.02l-1.94 3.36-1.98-3.36M383.95 272.03l-1.94 3.35-1.98-3.35"/><path stroke="#efefef" d="M387.85 272.03l-1.94 3.35-1.98-3.35M380.03 272.03l-1.93 3.35-1.98-3.35M395.69 272.03l-1.94 3.35-1.98-3.35"/><path stroke="#efefef" d="M399.59 272.03l-1.94 3.35-1.98-3.35M391.77 272.03l-1.94 3.35-1.98-3.35M383.96 257.07l-1.94 3.36-1.98-3.36"/><path stroke="#efefef" d="M387.86 257.07l-1.94 3.36-1.98-3.36M395.69 257.07l-1.94 3.36-1.98-3.36"/><path stroke="#efefef" d="M391.77 257.07l-1.93 3.36-1.98-3.36M348.67 241.47l1.94 3.35 1.98-3.35"/><path stroke="#efefef" d="M344.77 241.47l1.94 3.35 1.98-3.35M352.59 241.47l1.94 3.35 1.98-3.35M336.94 241.47l1.94 3.35 1.98-3.35"/><path stroke="#efefef" d="M333.04 241.47l1.94 3.35 1.98-3.35M340.86 241.47l1.93 3.35 1.98-3.35M348.67 246.52l1.94 3.36 1.98-3.36"/><path stroke="#efefef" d="M344.77 246.52l1.94 3.36 1.98-3.36M352.59 246.52l1.94 3.36 1.98-3.36M336.94 246.52l1.94 3.36 1.98-3.36"/><path stroke="#efefef" d="M340.86 246.52l1.93 3.36 1.98-3.36M348.67 251.91l1.94 3.36 1.98-3.36"/><path stroke="#efefef" d="M344.77 251.91l1.94 3.36 1.98-3.36M352.59 251.91l1.94 3.36 1.98-3.36M356.51 251.91l1.94 3.36 1.98-3.36M356.51 257.07l1.94 3.36 1.98-3.36M336.94 251.91l1.94 3.36 1.98-3.36"/><path stroke="#efefef" d="M340.86 251.91l1.93 3.36 1.98-3.36M348.67 262.09l1.94 3.36 1.98-3.36"/><path stroke="#efefef" d="M344.77 262.09l1.94 3.36 1.98-3.36M352.59 262.09l1.94 3.36 1.98-3.36M356.51 262.09l1.94 3.36 1.98-3.36M336.94 262.09l1.94 3.36 1.98-3.36"/><path stroke="#efefef" d="M340.86 262.09l1.93 3.36 1.98-3.36M348.68 267.02l1.94 3.36 1.98-3.36"/><path stroke="#efefef" d="M344.78 267.02l1.94 3.36 1.98-3.36M352.6 267.02l1.93 3.36 1.98-3.36M336.94 267.02l1.94 3.36 1.98-3.36"/><path stroke="#efefef" d="M340.86 267.02l1.94 3.36 1.98-3.36M348.68 272.03l1.94 3.35 1.98-3.35"/><path stroke="#efefef" d="M344.78 272.03l1.94 3.35 1.98-3.35M352.6 272.03l1.93 3.35 1.98-3.35M336.94 272.03l1.94 3.35 1.98-3.35"/><path stroke="#efefef" d="M333.04 272.03l1.94 3.35 1.98-3.35M340.86 272.03l1.94 3.35 1.98-3.35M348.67 257.07l1.94 3.36 1.98-3.36"/><path stroke="#efefef" d="M344.77 257.07l1.94 3.36 1.98-3.36M336.94 257.07l1.94 3.36 1.98-3.36"/><path stroke="#efefef" d="M340.86 257.07l1.93 3.36 1.98-3.36M372.2 236.69l-1.94 3.36-1.98-3.36M376.12 236.69l-1.94 3.36-1.98-3.36M360.47 236.69l-1.94 3.36-1.98-3.36"/><path stroke="#efefef" d="M364.39 236.69l-1.94 3.36-1.98-3.36M372.2 231.78l-1.94 3.36-1.98-3.36M376.12 231.78l-1.94 3.36-1.98-3.36M360.47 231.78l-1.94 3.36-1.98-3.36"/><path stroke="#efefef" d="M364.39 231.78l-1.94 3.36-1.98-3.36M372.2 226.6l-1.94 3.36-1.98-3.36M376.12 226.6l-1.94 3.36-1.98-3.36M360.47 226.6l-1.94 3.36-1.98-3.36"/><path stroke="#efefef" d="M364.39 226.6l-1.94 3.36-1.98-3.36M368.31 226.6l-1.94 3.36-1.98-3.36M372.2 221.65l-1.94 3.36-1.98-3.36M376.12 221.65l-1.94 3.36-1.98-3.36M360.47 221.65l-1.94 3.36-1.98-3.36"/><path stroke="#efefef" d="M364.39 221.65l-1.94 3.36-1.98-3.36M368.31 221.65l-1.94 3.36-1.98-3.36M372.2 216.63l-1.94 3.36-1.98-3.36M376.12 216.63l-1.94 3.36-1.98-3.36M360.47 216.63l-1.94 3.36-1.98-3.36"/><path stroke="#efefef" d="M364.39 216.63l-1.94 3.36-1.98-3.36M368.31 216.63l-1.94 3.36-1.98-3.36M372.2 211.64l-1.94 3.36-1.98-3.36M376.12 211.64l-1.94 3.36-1.98-3.36M372.2 206.61l-1.94 3.36-1.98-3.36M376.12 206.61l-1.94 3.36-1.98-3.36M360.47 206.61l-1.94 3.36-1.98-3.36M376.12 201.55l-1.94 3.36-1.98-3.36M360.47 201.55l-1.94 3.36-1.98-3.36"/><path stroke="#efefef" d="M364.39 206.61l-1.94 3.36-1.98-3.36M360.47 211.64l-1.94 3.36-1.98-3.36"/><path stroke="#efefef" d="M364.39 211.64l-1.94 3.36-1.98-3.36M368.31 211.64l-1.94 3.36-1.98-3.36M368.31 275.38l-1.94-3.35-1.98 3.35"/><path stroke="#efefef" d="M372.2 275.38l-1.94-3.35-1.98 3.35M364.39 275.38l-1.94-3.35-1.98 3.35M372.2 280.16l-1.94-3.36-1.98 3.36M376.12 280.16l-1.94-3.36-1.98 3.36M360.47 280.16l-1.94-3.36-1.98 3.36"/><path stroke="#efefef" d="M364.39 280.16l-1.94-3.36-1.98 3.36M372.2 285.07l-1.94-3.36-1.98 3.36M376.12 285.07l-1.94-3.36-1.98 3.36M360.47 285.07l-1.94-3.36-1.98 3.36"/><path stroke="#efefef" d="M364.39 285.07l-1.94-3.36-1.98 3.36M372.2 290.25l-1.94-3.36-1.98 3.36M376.12 290.25l-1.94-3.36-1.98 3.36M360.47 290.25l-1.94-3.36-1.98 3.36"/><path stroke="#efefef" d="M364.39 290.25l-1.94-3.36-1.98 3.36M368.31 290.25l-1.94-3.36-1.98 3.36M372.2 295.2l-1.94-3.36-1.98 3.36M376.12 295.2l-1.94-3.36-1.98 3.36M360.47 295.2l-1.94-3.36-1.98 3.36"/><path stroke="#efefef" d="M364.39 295.2l-1.94-3.36-1.98 3.36M368.31 295.2l-1.94-3.36-1.98 3.36M372.2 300.22l-1.94-3.36-1.98 3.36M376.12 300.22l-1.94-3.36-1.98 3.36M360.47 300.22l-1.94-3.36-1.98 3.36"/><path stroke="#efefef" d="M364.39 300.22l-1.94-3.36-1.98 3.36M368.31 300.22l-1.94-3.36-1.98 3.36M372.2 305.21l-1.94-3.36-1.98 3.36M376.12 305.21l-1.94-3.36-1.98 3.36M372.2 310.24l-1.94-3.36-1.98 3.36M376.12 310.24l-1.94-3.36-1.98 3.36M360.47 310.24l-1.94-3.36-1.98 3.36M376.12 315.3l-1.94-3.36-1.98 3.36M360.47 315.3l-1.94-3.36-1.98 3.36"/><path stroke="#efefef" d="M364.39 310.24l-1.94-3.36-1.98 3.36M360.47 305.21l-1.94-3.36-1.98 3.36"/><path stroke="#efefef" d="M364.39 305.21l-1.94-3.36-1.98 3.36M368.31 305.21l-1.94-3.36-1.98 3.36M129.19 241.47l-1.94 3.35-1.98-3.35"/><path stroke="#efefef" d="M133.09 241.47l-1.94 3.35-1.98-3.35M125.27 241.47l-1.93 3.35-1.98-3.35M144.85 241.47l-1.94 3.35-1.98-3.35"/><path stroke="#efefef" d="M148.74 241.47l-1.93 3.35-1.99-3.35M140.93 241.47l-1.94 3.35-1.98-3.35M156.58 241.47l-1.94 3.35-1.98-3.35"/><path stroke="#efefef" d="M160.48 241.47l-1.94 3.35-1.98-3.35M152.66 241.47l-1.94 3.35-1.98-3.35M144.85 246.52l-1.94 3.36-1.98-3.36"/><path stroke="#efefef" d="M148.74 246.52l-1.93 3.36-1.99-3.36M140.93 246.52l-1.94 3.36-1.98-3.36M156.58 246.52l-1.94 3.36-1.98-3.36M152.66 246.52l-1.94 3.36-1.98-3.36M144.85 251.91l-1.94 3.36-1.98-3.36"/><path stroke="#efefef" d="M148.74 251.91l-1.93 3.36-1.99-3.36M140.93 251.91l-1.94 3.36-1.98-3.36M137.01 251.91l-1.94 3.36-1.98-3.36M137.01 257.07l-1.94 3.36-1.98-3.36M129.19 251.91l-1.94 3.36-1.98-3.36M129.19 257.07l-1.94 3.36-1.98-3.36M129.19 262.09l-1.94 3.36-1.98-3.36M156.58 251.91l-1.94 3.36-1.98-3.36M152.66 251.91l-1.94 3.36-1.98-3.36M144.85 262.09l-1.94 3.36-1.98-3.36"/><path stroke="#efefef" d="M148.74 262.09l-1.93 3.36-1.99-3.36M140.93 262.09l-1.94 3.36-1.98-3.36M137.01 262.09l-1.94 3.36-1.98-3.36M156.58 262.09l-1.94 3.36-1.98-3.36M152.66 262.09l-1.94 3.36-1.98-3.36M144.84 267.02l-1.94 3.36-1.98-3.36"/><path stroke="#efefef" d="M148.74 267.02l-1.94 3.36-1.98-3.36M140.92 267.02l-1.94 3.36-1.98-3.36M156.57 267.02l-1.94 3.36-1.97-3.36M152.66 267.02l-1.94 3.36-1.98-3.36M144.84 272.03l-1.94 3.35-1.98-3.35"/><path stroke="#efefef" d="M148.74 272.03l-1.94 3.35-1.98-3.35M140.92 272.03l-1.94 3.35-1.98-3.35M156.57 272.03l-1.94 3.35-1.97-3.35"/><path stroke="#efefef" d="M160.48 272.03l-1.94 3.35-1.98-3.35M152.66 272.03l-1.94 3.35-1.98-3.35M144.85 257.07l-1.94 3.36-1.98-3.36"/><path stroke="#efefef" d="M148.74 257.07l-1.93 3.36-1.99-3.36M156.58 257.07l-1.94 3.36-1.98-3.36M152.66 257.07l-1.94 3.36-1.98-3.36M109.56 241.47l1.94 3.35 1.98-3.35"/><path stroke="#efefef" d="M105.66 241.47l1.94 3.35 1.98-3.35M113.48 241.47l1.94 3.35 1.97-3.35M97.82 241.47l1.94 3.35 1.98-3.35"/><path stroke="#efefef" d="M93.93 241.47l1.93 3.35 1.98-3.35M101.74 241.47l1.94 3.35 1.98-3.35M109.56 246.52l1.94 3.36 1.98-3.36"/><path stroke="#efefef" d="M105.66 246.52l1.94 3.36 1.98-3.36M113.48 246.52l1.94 3.36 1.97-3.36M97.82 246.52l1.94 3.36 1.98-3.36M101.74 246.52l1.94 3.36 1.98-3.36M109.56 251.91l1.94 3.36 1.98-3.36"/><path stroke="#efefef" d="M105.66 251.91l1.94 3.36 1.98-3.36M113.48 251.91l1.94 3.36 1.97-3.36M117.39 251.91l1.94 3.36 1.98-3.36M117.39 257.07l1.94 3.36 1.98-3.36M97.82 251.91l1.94 3.36 1.98-3.36M101.74 251.91l1.94 3.36 1.98-3.36M109.56 262.09l1.94 3.36 1.98-3.36"/><path stroke="#efefef" d="M105.66 262.09l1.94 3.36 1.98-3.36M113.48 262.09l1.94 3.36 1.97-3.36M117.39 262.09l1.94 3.36 1.98-3.36M97.82 262.09l1.94 3.36 1.98-3.36M101.74 262.09l1.94 3.36 1.98-3.36M109.56 267.02l1.94 3.36 1.98-3.36"/><path stroke="#efefef" d="M105.67 267.02l1.94 3.36 1.98-3.36M113.48 267.02l1.94 3.36 1.98-3.36M97.83 267.02l1.94 3.36 1.98-3.36M101.75 267.02l1.94 3.36 1.98-3.36M109.56 272.03l1.94 3.35 1.98-3.35"/><path stroke="#efefef" d="M105.67 272.03l1.94 3.35 1.98-3.35M113.48 272.03l1.94 3.35 1.98-3.35M97.83 272.03l1.94 3.35 1.98-3.35"/><path stroke="#efefef" d="M93.93 272.03l1.93 3.35 1.98-3.35M101.75 272.03l1.94 3.35 1.98-3.35M109.56 257.07l1.94 3.36 1.98-3.36"/><path stroke="#efefef" d="M105.66 257.07l1.94 3.36 1.98-3.36M97.82 257.07l1.94 3.36 1.98-3.36M101.74 257.07l1.94 3.36 1.98-3.36M133.09 236.69l-1.94 3.36-1.98-3.36M137.01 236.69l-1.94 3.36-1.98-3.36M121.36 236.69l-1.94 3.36-1.98-3.36"/><path stroke="#efefef" d="M125.27 236.69l-1.93 3.36-1.98-3.36M133.09 231.78l-1.94 3.36-1.98-3.36M137.01 231.78l-1.94 3.36-1.98-3.36M121.36 231.78l-1.94 3.36-1.98-3.36"/><path stroke="#efefef" d="M125.27 231.78l-1.93 3.36-1.98-3.36M133.09 226.6l-1.94 3.36-1.98-3.36M137.01 226.6l-1.94 3.36-1.98-3.36M121.36 226.6l-1.94 3.36-1.98-3.36"/><path stroke="#efefef" d="M125.27 226.6l-1.93 3.36-1.98-3.36M129.19 226.6l-1.94 3.36-1.98-3.36M133.09 221.65l-1.94 3.36-1.98-3.36M137.01 221.65l-1.94 3.36-1.98-3.36M121.36 221.65l-1.94 3.36-1.98-3.36"/><path stroke="#efefef" d="M125.27 221.65l-1.93 3.36-1.98-3.36M129.19 221.65l-1.94 3.36-1.98-3.36M133.09 216.63l-1.94 3.36-1.98-3.36M137.01 216.63l-1.94 3.36-1.98-3.36M121.36 216.63l-1.94 3.36-1.98-3.36"/><path stroke="#efefef" d="M125.27 216.63l-1.93 3.36-1.98-3.36M129.19 216.63l-1.94 3.36-1.98-3.36M133.09 211.64l-1.94 3.36-1.98-3.36M137.01 211.64l-1.94 3.36-1.98-3.36M133.09 206.61l-1.94 3.36-1.98-3.36M137.01 206.61l-1.94 3.36-1.98-3.36M121.36 206.61l-1.94 3.36-1.98-3.36M137.01 201.55l-1.94 3.36-1.98-3.36M121.36 201.55l-1.94 3.36-1.98-3.36"/><path stroke="#efefef" d="M125.27 206.61l-1.93 3.36-1.98-3.36M121.36 211.64l-1.94 3.36-1.98-3.36"/><path stroke="#efefef" d="M125.27 211.64l-1.93 3.36-1.98-3.36M129.19 211.64l-1.94 3.36-1.98-3.36M129.19 275.38l-1.94-3.35-1.98 3.35"/><path stroke="#efefef" d="M133.09 275.38l-1.94-3.35-1.98 3.35M125.27 275.38l-1.93-3.35-1.98 3.35M133.09 280.16l-1.94-3.36-1.98 3.36M137.01 280.16l-1.94-3.36-1.98 3.36M121.36 280.16l-1.94-3.36-1.98 3.36"/><path stroke="#efefef" d="M125.27 280.16l-1.93-3.36-1.98 3.36M133.09 285.07l-1.94-3.36-1.98 3.36M137.01 285.07l-1.94-3.36-1.98 3.36M121.36 285.07l-1.94-3.36-1.98 3.36"/><path stroke="#efefef" d="M125.27 285.07l-1.93-3.36-1.98 3.36M133.09 290.25l-1.94-3.36-1.98 3.36M137.01 290.25l-1.94-3.36-1.98 3.36M121.36 290.25l-1.94-3.36-1.98 3.36"/><path stroke="#efefef" d="M125.27 290.25l-1.93-3.36-1.98 3.36M129.19 290.25l-1.94-3.36-1.98 3.36M133.09 295.2l-1.94-3.36-1.98 3.36M137.01 295.2l-1.94-3.36-1.98 3.36M121.36 295.2l-1.94-3.36-1.98 3.36"/><path stroke="#efefef" d="M125.27 295.2l-1.93-3.36-1.98 3.36M129.19 295.2l-1.94-3.36-1.98 3.36M133.09 300.22l-1.94-3.36-1.98 3.36M137.01 300.22l-1.94-3.36-1.98 3.36M121.36 300.22l-1.94-3.36-1.98 3.36"/><path stroke="#efefef" d="M125.27 300.22l-1.93-3.36-1.98 3.36M129.19 300.22l-1.94-3.36-1.98 3.36M133.09 305.21l-1.94-3.36-1.98 3.36M137.01 305.21l-1.94-3.36-1.98 3.36M133.09 310.24l-1.94-3.36-1.98 3.36M137.01 310.24l-1.94-3.36-1.98 3.36M121.36 310.24l-1.94-3.36-1.98 3.36M137.01 315.3l-1.94-3.36-1.98 3.36M121.36 315.3l-1.94-3.36-1.98 3.36"/><path stroke="#efefef" d="M125.27 310.24l-1.93-3.36-1.98 3.36M121.36 305.21l-1.94-3.36-1.98 3.36"/><path stroke="#efefef" d="M125.27 305.21l-1.93-3.36-1.98 3.36M129.19 305.21l-1.94-3.36-1.98 3.36"/></g><path d="M204.41 48.28s4 48.55 43.68 46.73 42.84-45.41 42.84-45.41M122.11 185.86s1.8 23.6-.31 39.23.11 29.7.11 32.87 1.9 33.07 1.9 33.07M371.33 188.66s5.79 47.28 0 75.34M429.05 181.51s-6-11-19.68-44.09c-8.82-19.22-14.51-42.62-30.45-57.21" fill="none" stroke="#262521" stroke-linecap="round" stroke-linejoin="round" stroke-width="3"/><path d="M372 440.46c.87-9 2.74-16.47 3.55-25.44.2-41.15-3.56-82.31-3.38-123.47l.06-39.64M123.28 249.87c.14-.27 1.69 43.93.65 44 1.9 46.22-5.55 92.81.48 138.68M199.68 48.4c-30.43 11-59.14 16.58-86.46 34.78C89.71 113.53 61.11 195 59.69 201.55" fill="none" stroke="#262521" stroke-linecap="round" stroke-linejoin="round" stroke-width="3"/></svg>