<svg xmlns="http://www.w3.org/2000/svg" xmlns:xlink="http://www.w3.org/1999/xlink" width="500" height="550" viewBox="0 0 500 550"><defs><clipPath id="a"><rect width="9.18" height="7.93" fill="none"/></clipPath><pattern id="b" width="9.18" height="7.93" patternUnits="userSpaceOnUse" viewBox="0 0 9.18 7.93"><rect width="9.18" height="7.93" fill="none"/><g clip-path="url(#a)"><rect width="9.18" height="7.93" fill="#262521"/><polyline points="0 0.92 1.51 3.54 3.06 0.92" fill="none" stroke="#636363" stroke-linecap="round" stroke-linejoin="round"/><polyline points="3.06 0.92 4.57 3.54 6.12 0.92" fill="none" stroke="#636363" stroke-linecap="round" stroke-linejoin="round"/><polyline points="6.12 0.92 7.63 3.54 9.18 0.92" fill="none" stroke="#636363" stroke-linecap="round" stroke-linejoin="round"/></g></pattern></defs><title>s02e06-02</title><path d="M203.52,97.3c8.68,9.61,67.43,10.58,79.89,10.78,13,.21,33.31-44.88,34.7-51.28.1-.46-18-5.08-26.63-8.17-3.67-1.54-5,3.72-7.87,5C266.25,64.05,244.15,60.93,225,58.5c-7.1-1.26-13.56-4.12-18.56-9.67-.49-.54-14.08,3.47-19.82,5.25C187.38,57.36,198.11,91.29,203.52,97.3Z" fill="#262521"/><path d="M372.14,291.55q-.27,61.74-.62,123.47c-.81,9-2.68,16.41-3.55,25.44-1,10.07,1.34,17.05-1.5,25.63-.59,1.77-2,1.67-3.35,1.44-44.59-7.74-101.66-5.72-146.65-2.92-24.6.57-58.62-1.68-83,2.08-5.23.6-5.68.28-6.62-4.82-1.35-11.26,1.94-18.53.53-29.31-6.15-46.82-1.39-94.37-3.6-141.53-1.42,2.83-2.94,5.6-4.29,8.46-2.37,10.67-17.5,9.3-11.81,16.18,11.11,7.95,6.41,21.38,5.15,32.56-.25,3.15-1.35,6.27-.37,9.58.51,8.44-3.19,16.94-4.38,25.31-1.5,8-10.42,41.28-11.86,49.29-.57,3.18-.61,3-3.74,2-12.38-3.52-26.09-4.38-38.6-1.18-1.39.34-2.11,0-2.41-1.47-2-7.76.82-16.67-5.49-22.43a6.62,6.62,0,0,1-1.33-3.22c-2.23-11-6.07-22.12-5.72-33.3-1.91-63,2.6-126.93,26.19-186,13.61-35.43,24.56-73.32,48.07-103.67,27.32-18.2,60-23.76,90.46-34.78.8-.26,4.93,46.66,41.09,46.66,46.16,0,44-48.47,47.71-46.93,29.12,10.49,60,14.91,86.44,32.08,15.94,14.59,21.63,38,30.45,57.21,27.81,67.48,58,137.39,51.05,212.07-1.19,18.66-.23,37.46-3.28,56-.49,4.66-5.21,7.09-5.56,11.78-1.22,5.28-2.08,10.65-2.91,16-.4,2.6-.41,2.83-3.08,2.33-12.48-2.66-25.26-5.49-37.8-1.58-8.34-.15-8.13-15.56-11.44-21.4-6.28-7.37-3.61-9-5.33-17.64-.9-9.7-4.68-20.27.79-29.26,2-3.53,1.86-7.05.51-10.66-4.9-11.28-7.4-23.42-10.45-35.29-1.07-4.3-1.31-8.49,1.61-12.34,1.51-7.23-10.43-8.68-10.93-15.93Z" fill="url(#b)"/><path d="M372.14,291.55q-.27,61.74-.62,123.47c-.81,9-2.68,16.41-3.55,25.44-1,10.07,1.34,17.05-1.5,25.63-.59,1.77-2,1.67-3.35,1.44-44.59-7.74-101.66-5.72-146.65-2.92-24.6.57-58.62-1.68-83,2.08-5.23.6-5.68.28-6.62-4.82-1.35-11.26,1.94-18.53.53-29.31-6.15-46.82-1.39-94.37-3.6-141.53-1.42,2.83-2.94,5.6-4.29,8.46-2.37,10.67-17.5,9.3-11.81,16.18,11.11,7.95,6.41,21.38,5.15,32.56-.25,3.15-1.35,6.27-.37,9.58.51,8.44-3.19,16.94-4.38,25.31-1.5,8-10.42,41.28-11.86,49.29-.57,3.18-.61,3-3.74,2-12.38-3.52-26.09-4.38-38.6-1.18-1.39.34-2.11,0-2.41-1.47-2-7.76.82-16.67-5.49-22.43a6.62,6.62,0,0,1-1.33-3.22c-2.23-11-6.07-22.12-5.72-33.3-1.91-63,2.6-126.93,26.19-186,13.61-35.43,24.56-73.32,48.07-103.67,27.32-18.2,60-23.76,90.46-34.78a3.16,3.16,0,0,1,2.72.43c5,5.55,11.46,8.41,18.56,9.67,19.19,2.43,41.29,5.55,58.65-4.88,2.85-1.27,4.2-6.53,7.87-5,29.12,10.49,61,14.41,87.44,31.58,15.94,14.59,21.63,38,30.45,57.21,27.81,67.48,58,137.39,51.05,212.07-1.19,18.66-.23,37.46-3.28,56-.49,4.66-5.21,7.09-5.56,11.78-1.22,5.28-2.08,10.65-2.91,16-.4,2.6-.41,2.83-3.08,2.33-12.48-2.66-25.26-5.49-37.8-1.58-8.34-.15-8.13-15.56-11.44-21.4-6.28-7.37-3.61-9-5.33-17.64-.9-9.7-4.68-20.27.79-29.26,2-3.53,1.86-7.05.51-10.66-4.9-11.28-7.4-23.42-10.45-35.29-1.07-4.3-1.31-8.49,1.61-12.34,1.51-7.23-10.43-8.68-10.93-15.93Z" fill="none" stroke="#262521" stroke-linecap="round" stroke-linejoin="round" stroke-width="3"/><path d="M204.41,48.28s4,48.55,43.68,46.73S290.93,49.6,290.93,49.6" fill="none" stroke="#636363" stroke-linecap="round" stroke-linejoin="round"/><path d="M121.8,180.84s2.11,28.62,0,44.25.11,29.7.11,32.87,1.9,33.07,1.9,33.07" fill="none" stroke="#262521" stroke-linecap="round" stroke-linejoin="round" stroke-width="3"/><path d="M371.33,188.66s5.79,47.28,0,75.34" fill="none" stroke="#262521" stroke-linecap="round" stroke-linejoin="round" stroke-width="3"/><path d="M195,56.27s4.64,52.18,55,48c48.07-4,50.56-48,50.56-48" fill="none" stroke="#636363" stroke-linecap="round" stroke-linejoin="round"/></svg>