<svg xmlns="http://www.w3.org/2000/svg" width="500" height="550" viewBox="0 0 500 550"><defs><clipPath id="a"><path fill="none" d="M0 99.91h100v100H0z"/></clipPath><clipPath id="b"><path fill="none" d="M0-.09h100v100H0z"/></clipPath><pattern id="c" width="100" height="100" patternTransform="translate(221.99 -519.39)" patternUnits="userSpaceOnUse" viewBox="0 0 100 100"><path fill="none" d="M0 0h100v100H0z"/><g clip-path="url(#a)"><path fill="#262521" d="M.05 99.92h100v100H.05z"/><path fill="none" stroke="#7a7a7a" stroke-linejoin="round" d="M0 200.09h50l-50-100v64.02l50 35.98m50 0H50l50-100v64.02l-50 35.98m.05-100l24.9 17.04 25-17.04m-99.81 0l24.91 17.04 25-17.04"/><path fill="none" stroke="#7a7a7a" stroke-linejoin="round" d="M50.09 100.09l-25 50 25-17.05L75 150.09l-24.91-50m-50.09 0h100m-100 100h50l-50-100v64.02l50 35.98"/><path fill="none" stroke="#7a7a7a" stroke-linejoin="round" d="M100 200.09H50l50-100v64.02l-50 35.98m.05-100l24.9 17.04 25-17.04m-99.81 0l24.91 17.04 25-17.04"/><path fill="none" stroke="#7a7a7a" stroke-linejoin="round" d="M50.09 100.09l-25 50 25-17.05L75 150.09l-24.91-50m-50.09 0h100"/><circle cx="50.05" cy="100.09" r=".69" fill="#fff"/><circle cx="50.05" cy="100.09" r="1.27" fill="#fff" opacity=".4"/><circle cx="100" cy="100.09" r=".69" fill="#fff"/><circle cx="100" cy="100.09" r="1.27" fill="#fff" opacity=".4"/><circle cy="100.09" r=".69" fill="#fff"/><circle cy="100.09" r="1.27" fill="#fff" opacity=".4"/></g><g clip-path="url(#b)"><path fill="#262521" d="M.05-.08h100v100H.05z"/><path fill="none" stroke="#7a7a7a" stroke-linejoin="round" d="M0 100.09h50L0 .09v64.02l50 35.98m50 0H50l50-100v64.02l-50 35.98m25-50H25.09L50 67.13l25-17.04zM50 67.13v32.96m.05-100l24.9 17.04 25-17.04M74.96 17.13v32.96"/><path fill="none" stroke="#7a7a7a" stroke-linejoin="round" d="M.14.09l24.91 17.04 25-17.04m-25 17.04v32.96m25.04-50l-25 50 25-17.04L75 50.09 50.09.09m0 32.96V.09M0 .09h100m-100 100h50L0 .09v64.02l50 35.98"/><path fill="none" stroke="#7a7a7a" stroke-linejoin="round" d="M100 100.09H50l50-100v64.02l-50 35.98m25-50H25.09L50 67.13l25-17.04zM50 67.13v32.96m.05-100l24.9 17.04 25-17.04M74.96 17.13v32.96"/><path fill="none" stroke="#7a7a7a" stroke-linejoin="round" d="M.14.09l24.91 17.04 25-17.04m-25 17.04v32.96m25.04-50l-25 50 25-17.04L75 50.09 50.09.09m0 32.96V.09M0 .09h100"/><circle cx="50.05" cy=".09" r=".69" fill="#fff"/><circle cx="50.05" cy=".09" r="1.27" fill="#fff" opacity=".4"/><circle cx="100" cy=".09" r=".69" fill="#fff"/><circle cx="100" cy=".09" r="1.27" fill="#fff" opacity=".4"/><circle cy=".09" r=".69" fill="#fff"/><circle cy=".09" r="1.27" fill="#fff" opacity=".4"/><circle cx="50.05" cy="99.91" r=".69" fill="#fff"/><circle cx="50.05" cy="99.91" r="1.27" fill="#fff" opacity=".4"/><path d="M74.93 51.34l1-2.06a1.23 1.23 0 00-1-.46 1.26 1.26 0 00-.07 2.52z" fill="#fff" opacity=".4"/><path d="M75 50.77a1 1 0 00.24 0l.41-.83a.68.68 0 00-.65-.5.69.69 0 00-.69.69.68.68 0 00.69.64z" fill="#fff"/><path d="M25.07 51.34l-1-2.06a1.23 1.23 0 011-.46 1.26 1.26 0 01.07 2.52z" fill="#fff" opacity=".4"/><path d="M25 50.77a.86.86 0 01-.24 0l-.41-.83a.67.67 0 01.65-.5.68.68 0 01.68.69.67.67 0 01-.68.64z" fill="#fff"/></g></pattern></defs><path d="M372.14 291.55q-.27 61.74-.62 123.47c-.81 9-2.68 16.41-3.55 25.44-1 10.07 1.34 17.05-1.5 25.63-.59 1.77-2 1.67-3.35 1.44-44.59-7.74-101.66-5.72-146.65-2.92-24.6.57-58.62-1.68-83 2.09-5.23.59-5.68.27-6.62-4.83-1.35-11.26 1.94-18.53.53-29.31-6.15-46.82-1.39-94.37-3.6-141.53-1.42 2.83-2.94 5.6-4.29 8.46-2.37 10.67-17.5 9.3-11.81 16.18 11.11 7.95 6.41 21.38 5.15 32.56-.25 3.15-1.35 6.27-.37 9.58.51 8.44-3.19 16.94-4.38 25.31-1.5 8-2.61 15.83-1.54 23.93a5.1 5.1 0 01-1.13 3.3c-5.71 6.28-7.75 14-9.19 22.06-.57 3.18-.61 3-3.74 2-12.38-3.52-26.09-4.38-38.6-1.18-1.39.34-2.11 0-2.41-1.47-2-7.76-2.18-16.67-8.49-22.43a6.62 6.62 0 01-1.33-3.22A144.46 144.46 0 0139 372.86c-1.91-63 2.6-126.93 26.19-186 13.61-35.43 24.56-73.32 48.07-103.67 27.32-18.2 60-23.76 90.46-34.78a3.16 3.16 0 012.72.43c5 5.55 11.46 8.41 18.56 9.67 19.19 2.43 41.29 5.55 58.65-4.88 2.85-1.27 4.2-6.53 7.87-5 29.12 10.49 61 14.41 87.44 31.58 15.94 14.59 21.63 38 30.45 57.21 27.81 67.48 58 137.39 51.05 212.08-1.19 18.65-.23 37.45-3.28 55.95-.49 4.66-5.21 7.09-5.56 11.78-1.22 5.28-2.08 10.65-2.91 16-.4 2.6-.41 2.83-3.08 2.33-12.48-2.66-25.26-5.49-37.8-1.58-8.34-.15-8.13-15.56-11.44-21.4-6.28-7.37-3.61-9-5.33-17.64-.9-9.7-4.68-20.27.79-29.26 2-3.53 1.86-7.05.51-10.66-4.9-11.28-7.4-23.41-10.45-35.29-1.07-4.3-1.31-8.49 1.61-12.34 1.51-7.23-10.43-8.68-10.93-15.93z" fill="#262521" stroke="#262521" stroke-linecap="round" stroke-linejoin="round" stroke-width="3"/><path d="M128.3 118.84c4.07 15 7 30.46 6.5 46a113.14 113.14 0 01-3.3 22.93c-1.84 7.77-3.13 15.69-2.62 23.7.5 7.64 2 15.32.76 23-1.23 7.36-2.82 14.64-3.86 22a162.08 162.08 0 00-1.6 22.55c0 4.35 0 8.7-.33 13 2.09 46.81-2.55 94 3.56 140.49a46.13 46.13 0 01.31 7.85H129c9 .21 18 .71 27 .8 4.57 0 9.14 0 13.71-.26 4.38-.25 8.74-.76 13.12-1.13a127.65 127.65 0 0123.78.14c9.33 1 18.77 2.25 28.14 1 17.47-2.36 34.92-5.28 52.58-5.6a132.63 132.63 0 0125.67 2.57c8.1 1.42 16.2 2.7 24.45 2.46 7.14-.21 14.26-1 21.42-.88a59.12 59.12 0 019.09.78c.88-8.93 2.72-16.32 3.53-25.22q.28-58.36.58-116.76c-.49-5.76-1.21-11.51-2.11-17.22-.69-4.34-1.61-8.64-2.25-13a127.71 127.71 0 01-1.17-13.4c-.38-9-.19-18-.95-27-.74-8.82-2.57-17.54-3.61-26.33a215.19 215.19 0 01-.18-50.79c1-8.73 1-17.56 1.46-26.33a135.71 135.71 0 013.34-25.72 130.35 130.35 0 013.81-12.69 30.92 30.92 0 014.25-8.14c-25.52-15-47-16.14-74.61-26.08 0 0-11.22 14.18-14.07 15.46-17.36 10.42-43.32 7.31-62.51 4.88-15.39-1.51-28.18-20.58-29-20.32-30.09 10.89-53.29 13.3-80.47 31.08l1.45 1.93a40.54 40.54 0 015.78 10.23c1.42 3.82 2.51 7.75 3.57 11.68 1.14 4.13 2.37 8.22 3.5 12.34z" fill="url(#c)"/><path d="M372.55 291.47l-.41.08q-.27 61.74-.62 123.47c-.81 9-2.68 16.41-3.55 25.44m-240.51 3.64a50.68 50.68 0 000-11.54c-6.15-46.82-1.39-94.37-3.6-141.53M113.22 83.18c27.32-18.2 60-23.76 90.46-34.78m87.8.23c29.12 10.49 61 14.41 87.44 31.58A66.56 66.56 0 01391.78 97" fill="none" stroke="#262521" stroke-linecap="round" stroke-linejoin="round" stroke-width="3"/></svg>