<svg xmlns="http://www.w3.org/2000/svg" width="500" height="550" viewBox="0 0 500 550"><path fill="#fff" d="M305.16 104.06h-104.8V62.2l57.02 8.16 37.34-19.25 10.44 52.95z"/><path d="M283.25 52.88c-17.36 10.43-39.46 7.31-58.65 4.88-7.1-1.26-20.92-9.36-20.92-9.36s5.36 36 43.65 34.16 45.15-34.43 45.15-34.43-6.38 3.48-9.23 4.75z" fill="#fff" stroke="#262521" stroke-linecap="round" stroke-linejoin="round" stroke-width="3"/><path d="M141 68.93a148.51 148.51 0 00-27.82 14.25c-23.51 30.35-34.46 68.24-48.07 103.67-23.59 59.08-28.1 123-26.19 186-.35 11.19 3.49 22.28 5.72 33.31a6.7 6.7 0 001.36 3.23 12.65 12.65 0 013.82 6.84H100c3.13-12.57 7.12-28 8.08-33.11 1.19-8.37 4.89-16.87 4.38-25.31-1-3.31.12-6.42.37-9.58 1.26-11.18 6-24.61-5.15-32.56-5.69-6.88 9.44-5.5 11.81-16.18 1.35-2.86 2.87-5.63 4.29-8.46.9 19.24.64 38.55.44 57.84 8.94-8.69 128.08-117.66 141.59-141C257.22 196.66 152.23 88.64 141 68.93z" fill="#606060"/><path d="M94.91 407.75a61.89 61.89 0 00-16.23-1.42A78.75 78.75 0 0062.91 408c-4.66 1.08-10.21 2.93-15.42 3.06 4.33 5.72 2.16 13.72 4 20.78.3 1.47 1 1.81 2.41 1.47 12.51-3.2 26.22-2.34 38.6 1.18 3.13 1 3.17 1.13 3.74-2 .67-3.71 2.94-12.85 5.34-22.39a39.21 39.21 0 00-6.67-2.35zm314.46-270.33c-8.82-19.22-14.51-42.62-30.45-57.21C352.53 63 321.6 58.62 292.48 48.13c-3.67-1.54-.2 42.08-46.36 42.08-36.16 0-41.64-42.07-42.44-41.81-25.57 9.26-52.74 14.67-77 26.95C131 82.24 238.52 189 258.18 213.25c.36.45-127.29 130.6-133.95 137.21-.29 27.47-.39 54.91 3.18 82.1 1.41 10.78-1.88 18.06-.53 29.31.94 5.1 1.39 5.42 6.62 4.83 24.35-3.77 58.37-1.52 83-2.09 45-2.8 102.06-4.82 146.65 2.92 1.35.23 2.76.33 3.35-1.43 2.84-8.59.53-15.57 1.5-25.64.87-9 2.74-16.47 3.55-25.44q.3-61.72.62-123.46l.41-.08c.5 7.24 12.44 8.69 10.93 15.92-2.92 3.85-2.68 8-1.61 12.34 3.05 11.88 5.55 24 10.45 35.29 1.35 3.61 1.5 7.13-.51 10.66-5.47 9-1.69 19.56-.79 29.26 1.72 8.67-.95 10.27 5.33 17.64 3.31 5.84 3.1 21.25 11.44 21.4 12.54-3.91 25.32-1.08 37.8 1.58 2.67.5 2.68.27 3.08-2.33.83-5.36 1.69-10.73 2.91-16 .35-4.68 5.07-7.12 5.56-11.78 3.05-18.5 2.09-37.3 3.28-55.95 6.92-74.7-23.27-144.61-51.08-212.09z" fill="#262521" stroke="#262521" stroke-linecap="round" stroke-linejoin="round" stroke-width="3"/><path d="M154.53 64c-13 4.37-25.67 9.48-37.44 16.71L233 209.39 124.41 314.71c.15 18.2-.29 36.43-.31 54.64l163-158.14z" fill="#33322e"/><path d="M164.23 85.3c6.21 3.48 11.36 8.51 16.82 13 4.42 3.64 9 7 13.71 10.38L154.53 64c-13 4.37-21.06 7.43-32.83 14.65" fill="#fff" opacity=".2"/><path d="M121.8 180.85s2.11 28.61 0 44.24.11 29.7.11 32.88 1.9 33.06 1.9 33.06" fill="none" stroke="#262521" stroke-linecap="round" stroke-linejoin="round" stroke-width="3"/><path d="M51.5 431.81c-2-7.76.82-16.67-5.49-22.42a6.7 6.7 0 01-1.33-3.22c-2.23-11-6.07-22.12-5.72-33.31-1.91-63 2.6-126.93 26.19-186 13.61-35.44 24.56-73.33 48.07-103.68 15.72-10.47 33.23-16.76 51.06-22.31m-36.87 371.69c-6.15-46.81-1.39-94.37-3.6-141.53-1.42 2.83-2.94 5.6-4.29 8.46-2.37 10.68-17.5 9.3-11.81 16.18 11.11 7.95 6.41 21.38 5.15 32.56-.25 3.15-1.35 6.27-.37 9.58.51 8.44-3.19 16.94-4.38 25.31-1.5 8-10.42 41.28-11.86 49.29" fill="none" stroke="#262521" stroke-linecap="round" stroke-linejoin="round" stroke-width="3"/></svg>