<svg xmlns="http://www.w3.org/2000/svg" width="500" height="550" viewBox="0 0 500 550"><path fill="#fff" d="M200.72 70.19h104.81v38.7H200.72z"/><path d="M409.37 141.51c-8.82-19.21-14.51-42.61-30.45-57.2-26.39-17.18-87.83-31.74-87.83-31.74s-3.33 44.71-43 46.53-43.68-46.73-43.68-46.73-63.87 16.71-91.19 34.91C89.71 117.63 78.76 155.52 65.15 191 41.56 250 37.05 313.94 39 377c-.35 11.19 3.49 22.28 5.72 33.31a6.66 6.66 0 001.28 3.17c6.31 5.76 3.46 14.67 5.49 22.43.3 1.47 1 1.81 2.41 1.47 12.51-3.2 26.22-2.34 38.6 1.18 3.13.94 3.17 1.12 3.74-2.05 1.44-8 10.36-41.32 11.86-49.29 1.19-8.37 4.89-16.88 4.38-25.31-1-3.31.12-6.43.37-9.58 1.26-11.18 6-24.61-5.15-32.56-5.69-6.88 9.44-5.51 11.81-16.18 1.35-2.86 2.87-5.64 4.29-8.46 2.21 47.15-2.55 94.71 3.6 141.53 1.41 10.78-1.88 18-.53 29.31.94 5.1 1.39 5.42 6.62 4.82 24.35-3.76 58.37-1.51 83-2.09 45-2.79 102.06-4.81 146.65 2.92 1.35.24 2.76.34 3.35-1.43 2.84-8.59.53-15.56 1.5-25.63.87-9 2.74-16.47 3.55-25.45q.3-61.71.62-123.46l.41-.08c.5 7.25 12.44 8.69 10.93 15.93-2.92 3.84-2.68 8-1.61 12.33 3.05 11.88 5.55 24 10.45 35.3 1.35 3.61 1.5 7.12-.51 10.65-5.47 9-1.69 19.57-.79 29.27 1.72 8.67-.95 10.26 5.33 17.63 3.31 5.85 3.1 21.26 11.44 21.4 12.54-3.9 25.32-1.07 37.8 1.58 2.67.51 2.68.28 3.08-2.32.83-5.36 1.69-10.73 2.91-16 .35-4.69 5.07-7.12 5.56-11.78 3.05-18.51 2.09-37.3 3.28-56 6.93-74.65-23.26-144.56-51.07-212.05z" fill="#d8d8d8" stroke="#262521" stroke-linecap="round" stroke-linejoin="round" stroke-width="3"/><path d="M121.8 184.94s2.11 28.62 0 44.25.11 29.69.11 32.87 1.9 33.07 1.9 33.07M371.33 192.76s-1.25 73.85.81 102.89" fill="none" stroke="#262521" stroke-linecap="round" stroke-linejoin="round" stroke-width="3"/><path d="M51.32 413.6s28.66-9.48 45.15 2.48M402.18 416.08s25.94-8.31 43.55 0M197.66 62.63c2.77 14.3 15 47.82 50.14 46.21 36.25-1.66 46.89-34.35 49-46.52M133.45 438.85s155.28-12.31 227.71 2.37" fill="none" stroke="#636363" stroke-linecap="round" stroke-linejoin="round"/><path d="M283.61 57.72C266.25 68.15 244.15 65 225 62.6c-7.1-1.26-13.56-4.12-18.56-9.67L206 53s3.41 36.22 41.7 34.4S290.32 53 290.32 53a34.54 34.54 0 01-6.71 4.72z" fill="#fff" stroke="#262521" stroke-linecap="round" stroke-linejoin="round" stroke-width="3"/><path d="M324.78 241c-1-5.18-6.16-5.65-10.68-6.19-11.22-2.65-14.18 9.46-19.13 17.14-2.47 3.67-5.72 11 .19 13.21 4.75 2.25 6.85-3.54 9-6.62 4.61 3.16 7.49 10.72 14 7.49 6.37-2.48.63-7.9-2.12-10.76 4.43-3.89 11.16-7.62 8.74-14.27zm-11.58 4.67c-.52 1.37-3 3.25-3.95.24.82-1.23 1.06-2.38 3.12-1.68.39.09 1.35.04.83 1.4zM282.58 243.41c3 1.16 6.41-.32 7 3.24.21 2.15-.47 4.15-2.7 4.79-3.15.77-6.53.78-9.77 1.22-.66.56-.17.59 0 .86 3.45.23 8.05-.08 8.84 4.18-.12 4.62-6.44 4.32-9.79 5-22.51 2.67-8.14-18.65-.24-27.1 3.2-3.53 28.21-5.15 20.19 4.31-3.88 4.96-8.57.17-13.53 3.5zM262.7 234.11c-2.2-1.58-7.61-3.08-7.7-2.84-12.38-.66-16.09 14.24-21.5 22.89-3.33 14.59 24.75 5 27.74-2.93 2.34-5.23 7.6-12.44 1.46-17.12zm-9.12 10c-1.06 3.26-3.28 5.42-7 6.86-.21-2.97 6.61-13.12 7-6.89zM228.17 238c2.65-3.16 3.88-8.47 8.83-8.37 3.79 0 5.69 2.29 4.2 5.81-3.91 7.3-8.21 14.53-11.77 22.07-4 7.21-12.27 3.36-12.26-4.42-2.32 4-4.37 8.3-9.46 8.52-3.22.34-5.42-2.16-4.16-5.09 2.31-7.11 19.47-39.1 23.92-18.71.12 1.01.53.56.7.19zM194.82 251.73c7.45-1 7.45 3.23 4.6 8.53-27.14 7.11-12.79-12.11-7-25.88 1.44-4.95 24-7.77 19 .82-1.12 4.47-14.65 4.06-12 6.22 8.19-1.76 5.79 7.53-.18 8.38-.9.3-6.51.76-4.42 1.93zM261.34 177.38c-6.07 0-14.66-2-17.92 4.52-1.85 5.89-16.25 23.25-4.28 24.57a46.33 46.33 0 0013.81-.05c4.22-1 4-8.94-1.22-8.08-11.74-.8-.78-2.23 3.3-2.7 5.38-2.43 1.16-8.51-3.78-7.57l-.12-1c3.27-1.23 6.59-1 10-.82 6.34.32 6.26-8.6.21-8.87zM223.28 189.3c4.17-4.92 7.62-11.62 14.26-13.37 3.46-.84 5.3 1.7 3.74 4.91-3.66 8-9.93 14.22-15.77 20.61-2.39 2.55-5.2 4.39-9 3.59-8.45-2.08-2.4-12.91-3.06-18.92-.87-6 .29-14.14 8.28-13.22 6.51 1.61 1.05 11.56 1.07 16.25.02.34.08.73.48.15zM197.47 175.31c-8.58 3.5-14.11 13.67-12.81 23C188.6 217.62 212.15 198 210 184c.37-9.18-6.27-11.24-12.53-8.69zm-.37 18.36c-5 1.84.46-7.77 3.09-8.33.62 3.07-.86 6.93-3.09 8.33z"/><path d="M293.65 234.81c6.68 5.7-8.76 4.63-11.36 6.54-5 3.33 1.91 3.36 4.2 4.06.82.42 1.35.53 1.42 2.29-1.64 3.12-6.06 1.22-8.89 2-1.63.78-4.33 1-3.78 3.47 1.27 4.16 8.21-.29 8.94 4.53-3.1 4.91-10.87 2.59-15.62 1.81-7.1-3.05 6.09-19 9.11-22.82 2.7-3 7.22-2 10.89-2.44a19.78 19.78 0 015.09.56zM248.92 199.61c2.12-.21 7.8 1 4.52 3.72-3.64 2.67-8.35 1.2-12.47.85-9.47-2.16.28-14.58 2.67-19.42 2.79-7.15 11.6-8 18.12-6.11 5.81 2.93-.85 5.89-4.48 4.47-3.28-.81-11.6 4-5.48 6.18 1.56.34 4-.13 3.76 2.07-.88 1.8-5.6 2.87-8 2.43-4.93.71-3.15 6.31 1.36 5.81zM222.74 193.09c5.41-5.12 8.13-12.74 14.9-16.64 2.54 2.11 2.76 2.84 1 5.37-2.58 5-21.73 31.49-24.25 16.12 1.67-7.34-2.92-18.95 4.41-23.48a3.22 3.22 0 014.18 3.36c.37 4.81-4.08 11.54-.24 15.27zM203.11 243.94c0 5.71-9 1.23-10.13 7.61a14.6 14.6 0 003.51 1.57c1.31.22 3.39-.6 3.34 1.33-.74 6.25-8.15 4.1-12.57 4.47-6.17-.76 2.66-13.88 3.09-17.67 2.44-6.42 6.47-10.05 13.6-10 3.91-.84 9.08.09 4.42 4.19-3.65 1.93-10 1-10.77 6.26l2.55.92c.19-.24 2.85.5 2.96 1.32z" fill="#fff"/><path d="M341.27 191.74c-.22-1.22-1.45-2.24-2.18-3.27 0 .11.07.23.11.34-5.79-3.45-12.52-5-16.78 1.15-3.84 5.34-14.83 20-5.06 23.82 4.2-.39 15.58 4.3 15.9-2 1.17-6.35-5.58-5-9.55-5.88 0-.23-.11-1.49-.16-1.73 3.48-.25 13.75 2.82 10.94-3.9a7.34 7.34 0 00-5.5-3.78v-1.37c4.82-.25 13.79 5.41 12.28-3.38zM296.93 185.43c6.48-4.78 11.6-15.13 20.8-13.43 3.46.85 4.9 3.29 3.62 6.61-5.74 11.8-12.89 22.93-18.45 34.87-2 5.2-10.17 3.06-10.22-2.07 1-5.2 5.58-9.09 7.45-14l-.55-.41c-3 3.41-6.07 6.82-9 10.29-6 5.38-10.3-2.23-7.57-8.09l-.57-.32c-2.61 3.13-4.55 6.73-6.88 10.07-4.25 5.22-12.44 1.77-9.84-5.22 4.31-9.62 11.52-17.51 16.31-26.93 2-5.51 14.49-11.1 15.2-2.27-.18 3.59-.84 7.18-.89 10.79zM196 218.56c5.45-1.25 8.54 5 4.42 8.67-3.16 4.88-10.46.6-11.85 7.34-3.18 9.66-6.49 19.47-10.61 28.77a6 6 0 01-7.46 2.3c-6.35-3.27-.26-12.31.85-17.42.09-3 8.05-15.69 3-15.4-8.58 1.1-13.53-8.14-4.56-11.67 3.33-.62 6.7-1 10.05-1.43.01.13 10.79-.64 16.16-1.16zM182.43 171.6a4.39 4.39 0 00-6.09-6c-7.05 5.07-9.17 16.13-14.44 23.22-12 20.45 0 31.94 17.83 15 3.54-3.86 3.4-11-3.31-8.13l-5.83 3.31c-.15-8 8.85-19.37 11.84-27.4z"/><path d="M334.22 187.48c-10.51-3.23-16.67 10.58-18.65 18.94-1.75 7 12.11 7.16 16.25 4.81.58-6.69-8.83-1.22-9.22-5.82-.21-4.8 5.22-3.08 8.27-3.37s2.69-2.27.55-3.92c-2.1-.09-5.56-1.11-3.11-4 2-3.18 5.23-1.79 7.9-1.36 3.68 1.87 5.23 0 2.89-3.3-.47-.46-4.1-1.69-4.88-1.98zM286.3 189.88c-5.92 1.26-10.16 21.24-17.55 17.57-2.85-5.47 3.9-10.87 5.84-15.81 5.49-7 7.53-18.78 17.2-21 5.66-.76 3.78 9.51 3.23 13 1.38 10.58 14.44-12.6 21-11.26 2.74-.47 5 1.47 3.58 4.32-5.74 11-11.16 22.15-17.24 33-1.63 2.81-4.72 3.37-6.6 1.23-1.82-4.4 4.34-9.19 5.86-13.35 1.38-1.61 3.84-7.45-.44-5.77-5.24 2.21-10.31 15.84-15.56 12.94-1.87-1.15-1.56-2.69-1-4.34 1.07-3.41 2.46-6.58 1.68-10.53zM185.88 220.88c4.21.49 12.55-3.15 14.32.68.06 3.54-3.72 5.51-7 5.59-8.18.48-10.16 22.29-14 29.17-1.26 6.87-11 10.24-9.24.44 1.06-5.12 14.41-27.09 4.59-26.95-2.62-.68-6.93-.3-7-4-.04-4.81 14.73-4.4 18.33-4.93zM227.2 243.49c3.1-4.24 4.78-11.06 10.36-12.51 8.32-.27-7.1 16.85-7.77 20.76-2 5-5.14 10-9.42 3.41-1-2.18-.71-5-1.91-7.22l-.88-.18c-2.35 4-3.59 9.79-8.81 10.8-8.64-.57 3.24-13.42 4.52-17.32 6.21-9.75 13.83-12.3 13.38 2.25zM312.5 235.82c6.28.6 13.72 4.7 9 11.74-1.71 3.35-9.93 5.52-5.5 9.54a23.12 23.12 0 002.25 2.65c2.85 2.34-.57 5.34-3.08 4.93a11.12 11.12 0 01-5.35-4.38c-8.69-11.11-6.81 5.28-13.73 2.4-5.59-3.05 3.62-12.82 4.74-17.21 2.65-4.86 5.38-9.56 11.67-9.67zm-2.3 13.06c5.58.21 8.34-5.88 2.66-6.54-4.07.15-6.1 4.26-2.66 6.54zM255 232.77c7.3.21 10.11 5.19 7.27 11.6-3 9.08-9.72 13.58-19 14.59-4.23 1.38-9.1-1.83-6.68-6.42 4.47-7.54 7.26-20.54 18.41-19.77zm-7.25 19.52c4.89.93 13.52-13.77 3.81-12.08-2.63 1.13-10.07 11.64-3.84 12.08zM209 183.89a21.52 21.52 0 01-10.4 18.24c-12.39 6.83-15.06-10.35-8.35-17.8 3.87-7.86 18.05-13.19 18.75-.44zm-6.27 1.55c-.22-.43-.65-1.84-1-1.82-1.17.1-2.71.32-3.38 1.11-1.41 2.75-7.6 7.55-4.06 10.29 5.76 2.28 7.91-4.84 8.42-9.58zM180.2 166.85c-5-3-7.52 7.16-10.2 10.06-4 8.58-11.11 16.62-11 26.5-.53 12 22.68 1.34 21.79-6.16-3.08-2.6-5.82.54-8.54 2.44-12.6 1.48 15.48-30.21 7.95-32.84z" fill="#fff"/></svg>