<svg xmlns="http://www.w3.org/2000/svg" width="500" height="550" viewBox="0 0 500 550"><path d="M206.72 49s39.19 30.16 87.35 0l26.87 54.76-126.53 15.63z" fill="#e5e5e5" stroke="#262521" stroke-linecap="round" stroke-linejoin="round" stroke-width="3"/><path d="M206.72 49s4 48.55 43.68 46.73S294.07 49 294.07 49s63.74 17.7 80.65 27.3 70.4 61.22 92.64 94.14c2.92 4.33-57.35 52.68-65 57.29-8.58 5.17-31.64-21.38-31.33-12.83 4.22 117.37 5.52 265.9 3.54 267.22-3.28 2.18-163.76.94-179.41-2.33s-53.14 5-57.87 4.15-5.46-10.89-3.64-18.54c1-4.33.64-143.26-2.36-250.07-.42-4.28-26.5 12.4-35.91 12.83s-62.85-49.17-62.85-56 74.42-83 90.84-94.26S206.72 49 206.72 49z" fill="#fff" stroke="#262521" stroke-linecap="round" stroke-linejoin="round" stroke-width="3"/><path d="M371 214.9v-30.41c0-9.81-6.46-19.13-4.36-37.34l4.38-3.1M131.3 215.33s.8-53 0-56.36" fill="none" stroke="#262521" stroke-linecap="round" stroke-linejoin="round" stroke-width="3"/><path d="M163.34 161h13.55c12.26 0 22.68 5.16 22.68 22.39 0 17.85-10.59 23-22.68 23h-13.55zm14.16 35.52c8.41 0 10.92-3.8 10.92-13 0-8.4-2.56-12.32-11-12.32h-3v25.33zm25.85-12.87c0-16.62 10.31-23.56 20.29-23.56s20.23 6.94 20.23 23.56-10.31 23.55-20.23 23.55-20.29-6.93-20.29-23.55zm29.37 0c0-8.34-3.29-13.43-9.08-13.43s-9.14 5.09-9.14 13.43 3.29 13.74 9.14 13.74 9.08-5.39 9.08-13.74zM249.6 161h11l15.1 25.46h.11V161H286v45.39h-10.32L259.91 181h-.11v25.39h-10.2zm46.4 11h-3.68v-11h11v10l-5 11.77h-5.13zm22.64-.86h-11.87V161h34.89v10.19h-11.87v35.2h-11.15z" fill="#262521"/></svg>