<svg xmlns="http://www.w3.org/2000/svg" width="500" height="550" viewBox="0 0 500 550"><path d="M372.14 291.55q-.27 61.74-.62 123.47c-.81 9-2.68 16.41-3.55 25.44-1 10.07 1.34 17.05-1.5 25.63-.59 1.77-2 1.67-3.35 1.44-44.59-7.74-101.66-5.72-146.65-2.92-24.6.57-58.62-1.68-83 2.08-5.23.6-5.68.28-6.62-4.82-1.35-11.26 1.94-18.53.53-29.31-6.15-46.82-1.39-94.37-3.6-141.53-1.42 2.83-2.94 5.6-4.29 8.46-2.37 10.67-17.5 9.3-11.81 16.18 11.11 7.95 6.41 21.38 5.15 32.56-.25 3.15-1.35 6.27-.37 9.58.51 8.44-3.19 16.94-4.38 25.31-1.5 8-10.42 41.28-11.86 49.29-.57 3.18-.61 3-3.74 2-12.38-3.52-26.09-4.38-38.6-1.18-1.39.34-2.11 0-2.41-1.47-2-7.76.82-16.67-5.49-22.43a6.62 6.62 0 01-1.33-3.22c-2.23-11-6.07-22.12-5.72-33.3-1.91-63 2.6-126.93 26.19-186 13.61-35.43 24.56-73.32 48.07-103.67 27.32-18.2 60-23.76 90.46-34.78a3.16 3.16 0 012.72.43c5 5.55 11.46 8.41 18.56 9.67 19.19 2.43 41.29 5.55 58.65-4.88 2.85-1.27 4.2-6.53 7.87-5 29.12 10.49 61 14.41 87.44 31.58 15.94 14.59 21.63 38 30.45 57.21 27.81 67.48 58 137.39 51.05 212.07-1.19 18.66-.23 37.46-3.28 56-.49 4.66-5.21 7.09-5.56 11.78-1.22 5.28-2.08 10.65-2.91 16-.4 2.6-.41 2.83-3.08 2.33-12.48-2.66-25.26-5.49-37.8-1.58-8.34-.15-8.13-15.56-11.44-21.4-6.28-7.37-3.61-9-5.33-17.64-.9-9.7-4.68-20.27.79-29.26 2-3.53 1.86-7.05.51-10.66-4.9-11.28-7.4-23.42-10.45-35.29-1.07-4.31-1.31-8.5 1.61-12.34 1.51-7.23-10.43-8.68-10.93-15.93z" fill="#fff" stroke="#262521" stroke-linecap="round" stroke-linejoin="round" stroke-width="3"/><path d="M190.82 56.76c2.77 14.3 16 53.54 57.32 53.54s53.07-41.3 55.22-53.48" fill="none" stroke="#636363" stroke-linecap="round" stroke-linejoin="round"/><path d="M121.8 180.84s2.11 28.62 0 44.25.11 29.7.11 32.87 1.9 33.07 1.9 33.07m247.52-102.37s5.79 47.28 0 75.34" fill="none" stroke="#262521" stroke-linecap="round" stroke-linejoin="round" stroke-width="3"/><path d="M51.32 409.51S80 400 96.47 412m305.71 0s25.94-8.31 43.55 0" fill="none" stroke="#636363" stroke-linecap="round" stroke-linejoin="round"/><path d="M259.51 303.72c-.07 15.24-23.23 15.23-23.29 0s23.22-15.23 23.29 0z" fill="none" stroke="#262521" stroke-linecap="round" stroke-linejoin="round"/><path d="M247.86 323.47c38.92-.9 16.78-46.13 0-46-16.8-.1-38.86 45.1 0 46z" fill="none" stroke="#262521" stroke-linecap="round" stroke-linejoin="round"/><path d="M247.89 327.75c43.58 4.56 19.92-60.53 0-61.25-20.51.15-42.75 66.19 0 61.25z" fill="none" stroke="#262521" stroke-linecap="round" stroke-linejoin="round"/><path d="M248 332.52c11.65 0 24.16-6.57 29.28-19.48 3.18-8-4.23-22.44-7.4-33.35-11.3-34.29-32.45-34.28-43.75 0-3.13 10.91-10.56 25.36-7.39 33.31 5.13 13 17.64 19.52 29.26 19.52zm32.31-195.32c.24 21.93-64.82 21.92-64.57 0-.25-21.92 64.82-21.92 64.57 0z" fill="none" stroke="#262521" stroke-linecap="round" stroke-linejoin="round"/><path d="M269.36 324.43c31.27-1.76 4.27-38.29-3.45-63.29-11.36-23.52-24.59-23.5-35.77 0-7.73 25-34.72 61.51-3.46 63.29" fill="none" stroke="#262521" stroke-linecap="round" stroke-linejoin="round"/><path d="M277.21 323.07c11.94 1.38 12.75-10.69 10.31-15.95s-15.39-40.35-22-56.87-17.7-17.46-17.7-17.46c-17.9-.88-34.49 68.53-39.33 74.33-2.44 5.26-1.64 17.33 10.3 15.95" fill="none" stroke="#262521" stroke-linecap="round" stroke-linejoin="round"/><path d="M281 323c5.76 4.11 15.14-2.77 11.2-13.09s-20.82-54.41-27.2-71.47-17-16-17-16-10.59-1.1-17 16-23.27 61.17-27.22 71.5 5.44 17.2 11.2 13.09" fill="none" stroke="#262521" stroke-linecap="round" stroke-linejoin="round"/><path d="M285.72 324.24c10.24 6.24 11.72-8.15 9-14.8s-24.21-67.75-30.26-83.75-16.59-15.8-16.59-15.8-10.22-.2-16.26 15.8-27.53 77.09-30.27 83.75-1.24 21 9 14.8" fill="none" stroke="#262521" stroke-linecap="round" stroke-linejoin="round"/><path d="M291.57 325.77c3.91 5.05 12.88 1.39 5.66-16.17s-24.78-71.81-30.89-92.3-18.48-24.19-18.48-24.19-12 3.7-18.15 24.19-23.71 74.7-30.9 92.3 1.76 21.22 5.66 16.17" fill="none" stroke="#262521" stroke-linecap="round" stroke-linejoin="round"/><path d="M299.78 318.48c-11.38-50-26.65-74.85-38.1-130.75-5.59-22.92-13.68-20.81-13.68-20.81s-8.07-2.11-13.65 20.81c-11.43 55.83-26.77 80.84-38.11 130.75" fill="none" stroke="#262521" stroke-linecap="round" stroke-linejoin="round"/><path d="M213.85 99s-24.35 20.75-24.35 38.2-1.71 25.17 14.8 29.67 27.65 6.86 23.34 33.67c-4.55 39.06-37.77 99.11-31.55 120.72" fill="none" stroke="#262521" stroke-linecap="round" stroke-linejoin="round"/><path d="M204.84 88.33s-30.23 23.67-31.48 47.41-.36 34.95 15.74 35.89 31.26.43 34.9 14.67-7.65 52.7-12.45 63.7-22.86 43.38-22.1 61.79 8.77 27.74 6.64 42.58-16.24 35.58 5.41 48.58c0 0-11.87 4.93-12.05 9.71s.76 15.93 6 19.25" fill="none" stroke="#262521" stroke-linecap="round" stroke-linejoin="round"/><path d="M165.46 112.8c-7.84 21.7-10.2 59.77 5.09 62s47.13-.93 49 10c16.72 35.54-44.44 107.72-37.76 136.52.93 16.1 5.62 26.71 5.3 37.32s-15.12 31 6.45 44.07c0 0-12 4.26-12.18 10s6.06 21.85 6.06 21.85" fill="none" stroke="#262521" stroke-linecap="round" stroke-linejoin="round"/><path fill="none" stroke="#262521" stroke-linecap="round" stroke-linejoin="round" stroke-width=".95" d="M165.36 435.71L134 466.19m65.94-31.71l-32.67 30.8m62.59-30.66l-32.52 30.66m54.36-30.8l-32.16 30.35m53.35-29.71l-28.86 28.06m52.35-27.96l-28.76 27.96m46.04-27.86L285 463.18m43.79-27.33l-28.11 27.33m47.99-26.8l-27.56 26.8m42.11-26.16l-26.43 26.16m31.36-13.88l-15.68 15.24"/><path d="M150.08 133.6C131.86 207.76 206 163.16 218 191.15c10.85 53.23-52.75 71.92-43.46 154.78 3 12.36 5.42 16 3.62 24.42s-3.28 23.48 6.24 32.3c0 0-10.36 3-10.36 8.14s1.51 16.4 5.47 21.59" fill="none" stroke="#262521" stroke-linecap="round" stroke-linejoin="round"/><path d="M137.74 160.23c-3.22 40.72 61 12.43 73.82 27.47 27.12 39-43.66 66.47-41.45 112.78-1.08 31.12-2.72 45.06 0 53.86s-1.86 21.05-1.34 27 1.91 16.33 8.84 20.27c0 0-11.88 5-11.51 9.14s0 14.32 3.58 21.59M143.35 71s16.55 26.93 14 50.21M177.61 71s2.11 11.68 5.76 15m-45.66 98.57c20.22 1.39-8.13 12.84 9.84 13.16" fill="none" stroke="#262521" stroke-linecap="round" stroke-linejoin="round"/><path d="M130.26 210.11c11.08-18.16 46.68-19.49 60.34-6.32 4.59 12.89-56 19.26-56.88 17m4.79.23L152 240.13m8.59-45.54l12.38-11.25" fill="none" stroke="#262521" stroke-linecap="round" stroke-linejoin="round"/><path d="M173 195.78s11.61-3.62 12.77-2.67 6.94 5.36 6.56 2.67-5.7-9.63-2.85-9.63 7.14 3.31 10.68 7c9.6 9.8 1 15.47-5.13 7.5V207s-12.92 9.45-19.86 12.15-16.58 5.95 3.47 11.46c-55.88 38.24-24.43 78.61-17.26 130.79 0 25.9-7.43 56.08 0 73.11" fill="none" stroke="#262521" stroke-linecap="round" stroke-linejoin="round"/><path d="M187.67 182.68s20.78 4.24 23.88 14.27 3.62 23.85-7 31.88-39.82 32-42.52 50.83 3.89 55.33 3.89 63c2.64 19.7-7.82 43.69 5.86 61.93m61.43-75.68c1.14 11.79 27.18 8.87 28.91.36m-28.91-.36c1.42 16.27 26.66 14.16 28.91.36m-28.91-.36c1.18 19.09 26.75 16.95 28.91.36" fill="none" stroke="#262521" stroke-linecap="round" stroke-linejoin="round"/><path d="M265.62 326.81s2.42 11-4.9 15.79c-11.42 7.43-9.16 2.62-13.05 2.62S246 350 234.61 342.6c-7.32-4.76-4.9-15.79-4.9-15.79M247.34 398c20.4 0 24.34-15.63 24.34-19.68s-12.89-18.57-12.89-18.57c-5.11 14.53-9.15 12.57-11.29 12.57s-6.18 2-11.29-12.57c0 0-12.89 14.53-12.89 18.57S227.26 398 247.67 398m14.48 34.38c4.79-1.73 10.68-12.92 10.68-12.92l-14.06-11h-23.68l-14.05 11s5.88 11.19 10.67 12.92" fill="none" stroke="#262521" stroke-linecap="round" stroke-linejoin="round"/><path d="M274.15 324.07c5.19 10.91-11.91 19-3.56 32.47 4.46 8.18 12 15.23 12 22.32 0 10.85-7.65 25.77-34.52 25.77s-34.53-14.92-34.52-25.77c0-7.09 7.49-14.14 12-22.32 8.35-13.41-8.76-21.63-3.57-32.47" fill="none" stroke="#262521" stroke-linecap="round" stroke-linejoin="round"/><path d="M201.5 327.75c38.46 16-27.36 65.34 24 76.88 0 0-17.73 8.46-17.73 12.41-.92 9 2.21 10.75 6.79 15.34" fill="none" stroke="#262521" stroke-linecap="round" stroke-linejoin="round"/><path d="M198.06 326.81c17.8 35-21.91 64.15 15.42 76.67 0 0-15.17 5.61-15.36 11s-1.17 12.89 6.39 17.9M148.8 235.6c-32.57 37.62 4.4 94.65 7.44 132.34 0 17.31-6.84 53.81 0 66.54" fill="none" stroke="#262521" stroke-linecap="round" stroke-linejoin="round"/><path d="M145.12 230.39c-33.28 42.54.87 93.49 7.52 135.68 1.86 13.67-8 50.26-.14 68.91" fill="none" stroke="#262521" stroke-linecap="round" stroke-linejoin="round"/><path d="M141.91 225.84c-37.45 45 1 101.28 8.77 142.17.15 11.73-7.6 51.77-.29 67" fill="none" stroke="#262521" stroke-linecap="round" stroke-linejoin="round"/><path d="M126 297.13s23 62.94 22.81 69.34-7.59 54.53-.76 68.53" fill="none" stroke="#262521" stroke-linecap="round" stroke-linejoin="round"/><path d="M126 302.72s21.54 57.45 21.31 63.84-7.71 54-.87 68.06" fill="none" stroke="#262521" stroke-linecap="round" stroke-linejoin="round"/><path d="M125 304.22s21 55.95 20.81 62.34-7.71 54.52-.87 68.56" fill="none" stroke="#262521" stroke-linecap="round" stroke-linejoin="round"/><path d="M125 308s19.54 52.45 19.31 58.84-7.71 54-.87 68" fill="none" stroke="#262521" stroke-linecap="round" stroke-linejoin="round"/><path d="M142 435.22c-6.83-14 .82-61.77 1.05-68.17s-17.28-53-17.28-53-3.46 90.62 2.1 121.05z" fill="#262521" stroke="#262521" stroke-linecap="round" stroke-linejoin="round"/><path d="M282.37 99s24.36 20.79 24.36 38.24 1.71 25.17-14.8 29.67-27.66 6.86-23.34 33.67c4.55 39.06 37.77 99.11 31.55 120.72" fill="none" stroke="#262521" stroke-linecap="round" stroke-linejoin="round"/><path d="M291.39 88.33s30.23 23.69 31.48 47.41.36 34.95-15.74 35.89-31.26.43-34.9 14.67 7.64 52.7 12.44 63.7 22.87 43.38 22.11 61.79-8.77 27.74-6.64 42.58 16.24 35.58-5.42 48.58c0 0 11.88 4.93 12.06 9.71s-.76 15.93-6 19.25" fill="none" stroke="#262521" stroke-linecap="round" stroke-linejoin="round"/><path d="M330.77 112.8c7.84 21.7 10.2 59.77-5.09 62s-47.13-.93-49 10c-16.68 35.48 44.44 107.66 37.76 136.46-.94 16.1-5.62 26.71-5.31 37.32s15.13 31-6.44 44.07c0 0 12 4.26 12.18 10s-6.07 21.85-6.07 21.85" fill="none" stroke="#262521" stroke-linecap="round" stroke-linejoin="round"/><path d="M346.15 133.6c18.21 74.16-55.89 29.56-67.89 57.55-10.85 53.23 52.74 71.92 43.46 154.78-3 12.36-5.43 16-3.62 24.42s3.28 23.48-6.25 32.3c0 0 10.36 3 10.36 8.14s-1.5 16.4-5.46 21.59" fill="none" stroke="#262521" stroke-linecap="round" stroke-linejoin="round"/><path d="M358.48 160.23c3.22 40.72-61 12.43-73.81 27.47-27.12 39 43.65 66.47 41.44 112.78 1.09 31.12 2.72 45.06 0 53.86s1.87 21.05 1.35 27-1.92 16.33-8.84 20.27c0 0 11.88 5 11.5 9.14s0 14.32-3.57 21.59M352.87 71s-16.55 27-13.94 50.25M318.62 71s-2.11 11.68-5.77 15m45.66 98.57c-20.22 1.39 8.14 12.84-9.84 13.16" fill="none" stroke="#262521" stroke-linecap="round" stroke-linejoin="round"/><path d="M366 210.11c-11.08-18.16-46.68-19.49-60.34-6.32-4.59 12.89 56 19.26 56.87 17m-4.81.23l-13.49 19.11m-8.59-45.54l-12.38-11.25" fill="none" stroke="#262521" stroke-linecap="round" stroke-linejoin="round"/><path d="M323.26 195.78s-11.62-3.62-12.77-2.67-6.94 5.36-6.56 2.67 5.69-9.63 2.85-9.63-7.14 3.31-10.68 7c-9.6 9.8-1 15.47 5.13 7.5V207s12.92 9.45 19.86 12.15 16.58 5.95-3.47 11.46c55.88 38.24 24.42 78.61 17.26 130.79 0 25.9 7.43 56.08 0 73.11" fill="none" stroke="#262521" stroke-linecap="round" stroke-linejoin="round"/><path d="M308.56 182.68s-20.78 4.24-23.89 14.27-3.61 23.85 7.05 31.88 39.82 32 42.51 50.83-3.89 55.33-3.89 63c-2.63 19.7 7.83 43.69-5.85 61.93m-29.77-76.84c-38.46 16 27.37 65.34-24 76.88 0 0 17.73 8.46 17.73 12.41.92 9-2.21 10.75-6.79 15.34" fill="none" stroke="#262521" stroke-linecap="round" stroke-linejoin="round"/><path d="M298.17 326.81c-17.8 35 21.91 64.15-15.42 76.67 0 0 15.17 5.61 15.36 11s1.17 12.89-6.39 17.9m55.71-196.78C380 273.22 343 330.25 340 367.94c0 17.31 6.84 53.81 0 66.54" fill="none" stroke="#262521" stroke-linecap="round" stroke-linejoin="round"/><path d="M351.11 230.39c33.27 42.54-.87 93.49-7.52 135.68-1.86 13.67 8 50.26.14 68.91" fill="none" stroke="#262521" stroke-linecap="round" stroke-linejoin="round"/><path d="M354.32 225.84c37.44 45-1 101.28-8.78 142.17-.14 11.73 7.61 51.77.29 67" fill="none" stroke="#262521" stroke-linecap="round" stroke-linejoin="round"/><path d="M370.27 297.13s-23 62.94-22.81 69.34S355 421 348.17 435" fill="none" stroke="#262521" stroke-linecap="round" stroke-linejoin="round"/><path d="M370.27 302.72s-21.54 57.45-21.27 63.84 7.7 54 .87 68.06" fill="none" stroke="#262521" stroke-linecap="round" stroke-linejoin="round"/><path d="M371.27 304.22s-21 55.95-20.81 62.34 7.7 54.52.87 68.56" fill="none" stroke="#262521" stroke-linecap="round" stroke-linejoin="round"/><path d="M371.27 308s-19.54 52.46-19.27 58.85 7.7 54 .87 68" fill="none" stroke="#262521" stroke-linecap="round" stroke-linejoin="round"/><path d="M354.18 435.22c6.84-14-.81-61.77-1-68.17s17.28-53 17.28-53 4.87 94.28-2.1 121.05z" fill="#262521" stroke="#262521" stroke-linecap="round" stroke-linejoin="round"/><path d="M377 79.71s-23.54 48.29-17.64 65.73 5.52 39.23 24.51 37.63S430 188 430 188m-55.6 24.09c15.11-3.59 50 14.58 68.66 12.25m-68.66 4.74s9.18 8.59 19.78 17.89 56.95 4.59 56.95 4.59m-78.01 5.49s10 18.34 18.11 19.44 59.83-.36 65.57 5m-82.4 0s9.08 20.5 32.72 17.4 53.88 7.62 53.88 7.62m-79 6a23 23 0 0020.68 6.49c13-2.32 52.08 4.24 58.29 9.87m-75.15 2.31a60.57 60.57 0 0028.12 4.72c16.29-1.08 47.46 8.6 47.46 8.6m-69.13 7.34s3.76 7 19.16 4.65 43-1.56 49.06 3.07M392.27 370a22 22 0 0018.44 1.58c10.21-3.76 43.27-1.78 49.3 5.73m-69.46 11.61c22.72 8.79 38.19-12.32 66.9 10.91m-37.78 9.84s-7 16.85-19.34 10m26.05-10.38s-6.48 20.22-23.7 21.59m27.02-21.21s-6.09 19.93-11.82 23.33m15.22-23.33c-1.59 5.18-3.35 18.16-9.49 22.58m17.04-21.19s-6.41 5.6-6 9.52-4.74 12.17-4.74 12.17m13.69-20.86s-5.67 5.5-5.67 9.43-4.83 11.8-4.83 11.8m11.47-20.43c-4.62 5.33-7.25 16.87-2.46 23.25M447.6 413a24.21 24.21 0 00-3 22.65m6.05-20.15s-8.06 9.69-2.15 17.25M123.42 210.09c-15.1-3.59-50 14.58-68.65 12.25m67.65 6.74s-7.67 6.59-18.28 15.89-56.94 4.59-56.94 4.59m74.87 12.19c-3.66 5.36-9.14 12.09-14 12.74-8.14 1.09-59.83-.36-65.57 5m80.92 1s-7.57 19.5-31.21 16.4-52.35 7.62-52.35 7.62M108.89 316a23 23 0 01-12.24 1c-13-2.32-52.08 4.24-58.29 9.87m75.15 2.31a60.57 60.57 0 01-28.12 4.72c-16.29-1.08-47.46 8.6-47.46 8.6m74.93 5.73s-9.56 8.59-25 6.26-43-1.56-49.06 3.07m73.08 8.49s-13.06 7.25-23.26 3.49-43.27-1.78-49.31 5.73m67.96 11.65c-22.21 8.81-36.19-12.47-65.4 10.91m37.79 9.84s7 16.85 19.34 10m-26-10.38s6.48 20.22 23.7 21.59m-27.07-21.21S75.72 427.6 81.45 431m-15.22-23.33c1.58 5.18 3.35 18.16 9.49 22.58m-17.04-21.19s6.41 5.6 6.05 9.52 4.74 12.17 4.74 12.17m-13.74-20.86s5.66 5.5 5.66 9.43 4.84 11.8 4.84 11.8m-11.47-20.43c4.62 5.33 7.25 16.87 2.46 23.25M51.72 411a24.2 24.2 0 013 22.65m-6.04-20.15s8.06 9.69 2.15 17.25m67.91-351.04c8.49 15.25 23.58 89.42-13.48 101.13-18.8 6.2-41.78 10.31-41.78 10.31" fill="none" stroke="#262521" stroke-linecap="round" stroke-linejoin="round"/><path d="M204.41 48.28s4 48.54 43.68 46.73 42.84-45.41 42.84-45.41" fill="none" stroke="#262521" stroke-linecap="round" stroke-linejoin="round" stroke-width="3"/><path d="M143.09 435.44s99.35-3.06 208.74.68" fill="none" stroke="#636363" stroke-linecap="round" stroke-linejoin="round"/></svg>