<svg xmlns="http://www.w3.org/2000/svg" width="500" height="550" viewBox="0 0 500 550"><path d="M301.85 52.3h0c-4.21-7.64-22.61-13.45-52.31-13.54s-49.64 5.53-54.22 13.3l-62.51 25.69s9.46 340.92 7.64 348.56-.12 15.94 4.62 16.81 40.22 5.83 55.87 9.11 155.23-1.63 158.5-3.81S365 77.75 365 77.75z" fill="#262521" stroke="#262521" stroke-linecap="round" stroke-linejoin="round" stroke-width="3"/><path d="M203.81 57.84s5.11 40.48 44.78 38.66 45.57-38.66 45.57-38.66" fill="none" stroke="#636363" stroke-linecap="round" stroke-linejoin="round"/><path d="M203.11 157.78c-11-64.76 3-104.09 3-104.09s-1.7-5.53-2.07-5.41c-30.43 11-63.47 16.7-90.79 34.9-23.51 30.35-34.46 68.24-48.07 103.68-23.59 59.07-28.1 123-26.19 186a144.54 144.54 0 002.72 33.31c.24 1.12 1.29 17.36 3.33 25.12.3 1.47 1 1.47 2.4 1.47 15.64 0 40.06-2.14 52.44 1.38 3.12.94 3.17 1.12 3.74-2.05 1.44-8 3-23.93 3-25-1.07-8.1 0-15.95 1.54-23.93 1.19-8.37 4.89-16.87 4.38-25.31-1-3.31.12-6.43.37-9.58 1.26-11.18 6-24.61-5.15-32.56-5.69-6.88 9.44-5.5 11.81-16.18 1.35-2.86 2.87-5.63 4.29-8.46 2.21 47.16 3.58 57.77 3.58 112.17 0 78.16 64.22 88.06 88.82 87.48-.05-.04-1.79-292.42-13.15-332.94zM409.37 137.42c-8.82-19.22-14.51-42.62-30.45-57.21C352.53 63 317.16 58.75 288 48.26c-2.43-1 13.81 4 4 114.13-6.35 49-5.22 306.88-4.77 330.88 16.65-.42 86.9-24.57 84.26-78.25q.3-61.72.62-123.46l.41-.08c.5 7.24 12.44 8.69 10.93 15.92-2.92 3.85-2.68 8-1.61 12.34 3.05 11.88 5.55 24 10.45 35.29 1.35 3.61 1.5 7.13-.51 10.66-5.47 9-1.69 19.56-.79 29.26 1.72 8.67-2.41 37.14 5.93 37.29 12.54-3.91 39.84.29 52.32 2.94 2.67.5 2.68.28 3.09-2.32.83-5.36 4.29-22.75 4.78-27.41 3.05-18.5 2.09-37.3 3.28-55.95 6.98-74.69-23.21-144.6-51.02-212.08z" fill="#262521" stroke="#262521" stroke-linecap="round" stroke-linejoin="round" stroke-width="3"/><path d="M216.21 451.76s8-213-9.15-277c-18.91-70.48-.17-121.32-1-121.06M289.81 54.86c7.68 4.63 5.85 69.91.52 122.47S286.43 427 286.88 451" fill="none" stroke="#636363" stroke-linecap="round" stroke-linejoin="round"/></svg>