<svg xmlns="http://www.w3.org/2000/svg" width="500" height="550" viewBox="0 0 500 550"><defs><clipPath id="a"><path fill="none" d="M.02 0h46.34v28.36H.02z"/></clipPath><pattern id="b" width="46.39" height="28.36" patternUnits="userSpaceOnUse" viewBox="0 0 46.39 28.36"><path fill="none" d="M0 0h46.39v28.36H0z"/><path fill="#7f7f7f" d="M.02 0h46.39v28.36H.02z"/><g clip-path="url(#a)" opacity=".2"><path fill="#757572" d="M.02 0h46.34v28.36H.02z"/><path d="M4.17 11.8H8a1.13 1.13 0 100-2.25H4.17A1.14 1.14 0 003 10.67a1.16 1.16 0 001.17 1.13zM26 16.82h5.52a1.14 1.14 0 001.13-1.12 1.16 1.16 0 00-1.13-1.13H26a1.13 1.13 0 100 2.25zm7-11.6h3.79a1.13 1.13 0 100-2.25H33a1.14 1.14 0 00-1.13 1.12A1.16 1.16 0 0033 5.22zM19.23 10.8a9.35 9.35 0 012 .06h-.3c.2 0 .4.06.59.09a1.13 1.13 0 001.39-.78 1.15 1.15 0 00-.12-.87 1.11 1.11 0 00-.67-.51 10.63 10.63 0 00-2.87-.2 1.17 1.17 0 00-.79.33 1.15 1.15 0 00-.33.8 1.11 1.11 0 00.33.79 1.13 1.13 0 00.79.33zM4.5 2.3c.92 0 1.83.05 2.75.14l.69.07h.45c.47.06.93.14 1.39.22A1.15 1.15 0 0011.16 2a1.14 1.14 0 00-.78-1.38A33.18 33.18 0 004.5.05a1.12 1.12 0 00-1.12 1.12A1.14 1.14 0 004.5 2.3zm11.11 17.76h1.78a1.13 1.13 0 001.13-1.13 1.16 1.16 0 00-.33-.79 1.18 1.18 0 00-.8-.33h-1.78a1.14 1.14 0 00-.8.33 1.11 1.11 0 00-.33.79 1.14 1.14 0 00.33.8 1.18 1.18 0 00.8.33zM2 23.93q3.6.09 7.2 0a1.15 1.15 0 001.12-1.13 1.13 1.13 0 00-1.12-1.12q-3.6.1-7.2 0a1.13 1.13 0 100 2.25zm12.43 4.19c1.49-.05 3-.15 4.47-.32a1.19 1.19 0 00.79-.33 1.11 1.11 0 00.33-.79 1.13 1.13 0 00-1.12-1.13c-1.49.17-3 .27-4.47.32a1.13 1.13 0 000 2.25zm13.15-3.21c1.28.24 2.54.5 3.8.8a1.12 1.12 0 10.62-2.17c-1.25-.3-2.52-.56-3.79-.8a1.22 1.22 0 00-.86.12 1.09 1.09 0 00-.52.67 1.13 1.13 0 00.78 1.38zm15.15 2.7c.44 0 .88-.1 1.31-.16h-.29a.42.42 0 01.16 0h-.3.14l-.27-.11c.41.17.82.36 1.24.51a1.11 1.11 0 00.87-.11 1.14 1.14 0 00.4-1.54l-.18-.2a1.14 1.14 0 00-.49-.28c-.18-.07-.37-.14-.54-.22l.26.11-.37-.16a2.49 2.49 0 00-.45-.18 1.49 1.49 0 00-.47 0c-.22 0-.43.06-.65.09h.3l-.67.07a1.18 1.18 0 00-.8.33 1.11 1.11 0 00-.33.79 1.15 1.15 0 00.33.8 1.14 1.14 0 00.8.33zm-2.48-5.47c1.49-.06 3-.07 4.47 0a1.13 1.13 0 000-2.25h-4.47a1.13 1.13 0 000 2.25zm2.75-7.6h2.29a1.13 1.13 0 100-2.25H43a1.17 1.17 0 00-.79.33 1.15 1.15 0 00-.33.8A1.14 1.14 0 0043 14.54zM37.7 9.7h2.51a1.14 1.14 0 00.8-.33 1.12 1.12 0 00-.8-1.92H37.7a1.16 1.16 0 00-.79.33 1.11 1.11 0 00-.33.8 1.07 1.07 0 00.33.79 1.11 1.11 0 00.79.33zm4.14-7.24h3A1.14 1.14 0 0046 1.34 1.16 1.16 0 0044.85.21h-3a1.15 1.15 0 00-1.13 1.13 1.15 1.15 0 001.13 1.12zm-13.68 8.06h.95a.91.91 0 00.43-.1.86.86 0 00.36-.23 1 1 0 00.24-.36.83.83 0 00.09-.44v-.3a1.07 1.07 0 00-.29-.49l-.22-.18a1.16 1.16 0 00-.57-.15h-.95a.8.8 0 00-.43.09 1 1 0 00-.37.24.86.86 0 00-.23.36.8.8 0 00-.09.43v.3a1.18 1.18 0 00.28.5l.23.17a1.17 1.17 0 00.57.16zM7.27 15.57a2 2 0 00.18.39v.06c.06.09.14.19.21.28l.1.09a2.78 2.78 0 00.34.26 2.71 2.71 0 00.39.17h.14a2.1 2.1 0 00.43.05 1.61 1.61 0 00.44-.05.82.82 0 00.38-.2.86.86 0 00.29-.31.8.8 0 00.13-.42.77.77 0 000-.45l-.11-.27a1.1 1.1 0 00-.4-.4l-.27-.12a1.22 1.22 0 00-.6 0h.29H9h.3a.79.79 0 01-.22-.06l.27.11a1.18 1.18 0 01-.19-.11l.23.17a.67.67 0 01-.15-.14l.18.22-.1-.15.12.26a.78.78 0 00-.2-.38.78.78 0 00-.31-.29.81.81 0 00-.42-.14 1 1 0 00-.45 0l-.27.12a1.1 1.1 0 00-.4.4l-.12.34a1.22 1.22 0 000 .6z" fill="#cecec6"/><path d="M2.22 6.4a20.67 20.67 0 012.61 0c.43 0 .86.07 1.28.12h.11l.3.05.71.13a1.12 1.12 0 10.59-2.17 20.63 20.63 0 00-5.6-.38 1.16 1.16 0 00-1.13 1.13A1.14 1.14 0 002.22 6.4zM13.6 14h3.12a1.13 1.13 0 100-2.25H13.6a1.13 1.13 0 100 2.25zm2.56-6.5h3.63a1.14 1.14 0 001.13-1.12 1.16 1.16 0 00-1.13-1.13h-3.63a1.13 1.13 0 000 2.25zm-1.34-4.86h3a1.14 1.14 0 001.13-1.12A1.16 1.16 0 0017.78.39h-3a1.14 1.14 0 00-1.08 1.13 1.14 1.14 0 001.12 1.12zm6.08 13.65c.8 0 1.61.05 2.41 0a1.13 1.13 0 00.79-.29 1.11 1.11 0 00.33-.79 1.13 1.13 0 00-1.12-1.13H20.9a1.09 1.09 0 00-.79.33 1.11 1.11 0 00-.33.79 1.15 1.15 0 00.33.8 1.22 1.22 0 00.79.33zm10.16 4.38h4.35a1.14 1.14 0 001.13-1.12 1.16 1.16 0 00-1.13-1.13h-4.35a1.13 1.13 0 000 2.25zm4.41-7.98h.6a8.55 8.55 0 00.87-.09.81.81 0 00.39-.2 1 1 0 00.29-.31.9.9 0 00.13-.42.86.86 0 000-.45l-.13-.22a1.12 1.12 0 00-.41-.4l-.27-.12a1.22 1.22 0 00-.6 0h.3a5.53 5.53 0 01-1.15 0 .8.8 0 00-.43.09 1 1 0 00-.37.24 1 1 0 00-.23.36.8.8 0 00-.09.43v.3a1.18 1.18 0 00.28.5l.23.17a1.07 1.07 0 00.57.16zm-8.65-5.1h3.07A1.12 1.12 0 0031 6.44a1.15 1.15 0 00-1.12-1.13h-3.07a1.13 1.13 0 00-1.13 1.13 1.15 1.15 0 001.13 1.12zm5.8-5.33h3.74a1.15 1.15 0 001.13-1.13A1.15 1.15 0 0036.36 0h-3.74a1.14 1.14 0 00-1.12 1.13 1.15 1.15 0 001.12 1.13zm9.94 3.65h2.84a1.18 1.18 0 00.8-.33 1.2 1.2 0 00.33-.8 1.14 1.14 0 00-1.13-1.09h-2.84a1.13 1.13 0 100 2.25zm-.84 11.72c.85 0 1.71-.05 2.57 0a1.13 1.13 0 001.12-1.13 1.14 1.14 0 00-1.12-1.12h-2.57a1.25 1.25 0 00-.8.33 1.13 1.13 0 000 1.6 1.14 1.14 0 00.8.32zm-4.07 7.65l2.84.07a1.14 1.14 0 001.13-1.12 1.16 1.16 0 00-1.13-1.13l-2.84-.1a1.13 1.13 0 00-1.13 1.12 1.15 1.15 0 001.13 1.13zm-4.58 2.93h3.07a1.13 1.13 0 000-2.25h-3.07a1.13 1.13 0 000 2.25zm-9.54-.56h1.62a1.13 1.13 0 001.12-1.13 1.11 1.11 0 00-.33-.79 1.13 1.13 0 00-.79-.33h-1.62a1.13 1.13 0 00-1.13 1.12 1.2 1.2 0 00.33.8 1.18 1.18 0 00.8.33zM20 22.53c.32-.07.65-.13 1-.17h-.3a12.27 12.27 0 011.71-.11 1.18 1.18 0 00.8-.33 1.2 1.2 0 00.33-.8A1.15 1.15 0 0022.41 20a13.6 13.6 0 00-3 .32 1.18 1.18 0 00-.67.51 1.13 1.13 0 001.26 1.7zm-7.63 1.91h3.18a1.13 1.13 0 000-2.25h-3.18a1.13 1.13 0 00-1.13 1.12 1.16 1.16 0 001.13 1.13zm-4.91 3.21h2a1.13 1.13 0 001.13-1.13 1.16 1.16 0 00-.33-.79 1.14 1.14 0 00-.8-.33h-2a1.13 1.13 0 00-1.13 1.12 1.2 1.2 0 00.33.8 1.18 1.18 0 00.8.33zM.8 15.38a9.35 9.35 0 011.45.45.77.77 0 00.45 0 .8.8 0 00.42-.13.86.86 0 00.31-.29.82.82 0 00.2-.38 1.15 1.15 0 00-.11-.87L3.34 14a1.16 1.16 0 00-.49-.29 9.35 9.35 0 00-1.45-.45 1.19 1.19 0 00-.87.12.81.81 0 00-.32.29A1 1 0 000 14a1.15 1.15 0 00.12.87 1.08 1.08 0 00.67.51zM2.39 19H3c.07 0 .32.06 0 0h.25l1 .18c.69.13 1.37.3 2.05.49a1.13 1.13 0 10.6-2.17 26.68 26.68 0 00-4.52-.85 1.14 1.14 0 00-1.13 1.13A1.15 1.15 0 002.39 19z" fill="#262521"/></g><path fill="#7f7f7f" d="M-46.37 0H.02v28.36h-46.39z"/></pattern></defs><path d="M369.22 77.8c-16.91-9.6-80.65-27.29-80.65-27.29-48.16 30.16-87.35 0-87.35 0s-65.41 21.12-81.84 32.38S243 240 242 244.37C240.17 252 386.12 87.4 369.22 77.8z" fill="#262521" stroke="#262521" stroke-linecap="round" stroke-linejoin="round" stroke-width="3"/><path d="M201.22 50.51s4 48.55 43.68 46.73 43.67-46.73 43.67-46.73" fill="none" stroke="#636363" stroke-linecap="round" stroke-linejoin="round"/><path d="M372.14 291.55q-.27 61.74-.62 123.47c-.81 9-2.68 37.34-3.55 46.37-1 10.08 1.34 17.05-1.5 25.64-.59 1.77-2 1.66-3.35 1.43-44.59-7.73-101.66-5.71-146.65-2.92-24.6.58-58.62-1.68-83 2.09-5.23.6-5.68.27-6.62-4.82-1.35-11.26 1.94-39.47.53-50.25-6.15-46.82-1.39-94.37-3.6-141.53-1.42 2.82-2.94 5.6-4.29 8.46-2.37 10.67-17.5 9.3-11.81 16.18 11.11 7.95 6.41 21.38 5.15 32.56-.25 3.15-1.35 6.27-.37 9.58.51 8.44-3.19 16.94-4.38 25.31-1.5 8-2.61 15.83-1.54 23.93a5.1 5.1 0 01-1.13 3.3c-5.71 6.28-3.25 14-4.69 22.06-.57 3.18-.61 3-3.74 2-12.38-3.52-34.59-4.38-47.1-1.18-1.39.34-2.11 0-2.41-1.47-2-7.76 1.82-16.67-4.49-22.43a6.62 6.62 0 01-1.33-3.22A144.46 144.46 0 0139 372.86c-1.91-63 2.6-126.93 26.19-186 13.61-35.43 24.56-73.32 48.07-103.67 27.32-18.2 53.27-25.67 53.7-25.07 75.55 105.34 161.59.4 165.27 1.94 29.12 10.49 20.34 3 46.73 20.16 15.94 14.59 21.63 38 30.45 57.21 27.81 67.48 58 137.39 51.05 212.07-1.19 18.66-.23 37.46-3.28 56-.49 4.66-5.21 7.09-5.56 11.78-1.22 5.28-.08 10.65-.91 16-.4 2.6-.41 2.83-3.08 2.33-12.48-2.66-31.76-5.49-44.3-1.58-8.34-.15-3.63-15.56-6.94-21.41-6.28-7.36-3.61-9-5.33-17.63-.9-9.7-4.68-20.27.79-29.26 2-3.53 1.86-7.05.51-10.66-4.9-11.29-7.4-23.42-10.45-35.29-1.07-4.31-1.31-8.5 1.61-12.34 1.51-7.23-10.43-8.68-10.93-15.93z" stroke="#262521" stroke-linecap="round" stroke-linejoin="round" stroke-width="3" fill="url(#b)"/><path d="M121.8 180.84s2.11 28.62 0 44.25.11 29.7.11 32.87 1.9 33.07 1.9 33.07m247.52-102.37s5.79 47.28 0 75.34" fill="none" stroke="#262521" stroke-linecap="round" stroke-linejoin="round" stroke-width="3"/></svg>