<svg xmlns="http://www.w3.org/2000/svg" width="500" height="550" viewBox="0 0 500 550"><title>s03e10-03</title><path d="M276.1,68.25l39.57-11.33s-22.8-23.49-42.58-23.49H223.43c-19.78,0-48.84,25.75-48.84,25.75l45.83,9.07L205.29,88.52l43-12.3,43,12.3Z" fill="#262521" stroke="#262521" stroke-linecap="round" stroke-linejoin="round" stroke-width="3"/><path d="M209.35,49.28s2.91,11.64,42.58,9.82,44.77-9.82,44.77-9.82l73.16,29.47s-1.73,402.39-5,404.58-151.4,0-167-3.28-53.14,5-57.87,4.16-5.46-10.9-3.64-18.54,1.36-386.92,1.36-386.92Z" fill="#262521" stroke="#262521" stroke-linecap="round" stroke-linejoin="round" stroke-width="3"/><path d="M296.7,49.28S279.6,58,251.93,59.1s-42.58-9.82-42.58-9.82" fill="none" stroke="#636363" stroke-linecap="round" stroke-linejoin="round"/><path d="M137.65,78.75l71.7-29.47S213.36,97.83,253,96,296.7,49.28,296.7,49.28l73.16,29.47" fill="none" stroke="#636363" stroke-linecap="round" stroke-linejoin="round"/><path d="M240.23,177.79c0-23.16-26.35-123.41-31.36-129a3.16,3.16,0,0,0-2.72-.43C175.73,59.42,143,65,115.69,83.18c-23.5,30.35-34.46,68.24-48.06,103.67-23.59,59.08-28.11,123-26.19,186-.36,11.19.74,97.95,2.77,105.72.3,1.47,62.69,2.66,63.26-.52,1.45-8,2.86-179.6,5.23-190.27,1.35-2.86,13.78-67,15.19-69.81,2.21,47.15-8.87,215.9-1.17,247.91.5,2.06,19,4.34,69,4C199.05,442.16,240.23,201,240.23,177.79Z" fill="#262521" stroke="#262521" stroke-linecap="round" stroke-linejoin="round" stroke-width="3"/><path d="M126.72,465.89c.5,2.06,19,4.34,69,4,3.34-27.77,44.52-269,44.52-292.14s-26.35-123.41-31.36-129" fill="none" stroke="#636363" stroke-linecap="round" stroke-linejoin="round"/><path d="M457.56,331.45c-2.15-75.82-17.9-126.55-45.71-194C403,118.2,397.34,94.8,381.39,80.21,355,63,323.08,59.12,294,48.63c-3.68-1.54-21.88,110.6-21.88,136.75s16.23,257.08,21.09,281.49c38.05-.76,85.61-1.68,85.78-2.28,6.89-23.52-11.52-249.35-11.38-249.38.51,7.25,17.36,62,19.83,69,2.65,7.46,8.93,187.72,11.53,191.54,3.78,5.55,60,6,60,.13C459,470.44,458.08,350.13,457.56,331.45Z" fill="#262521" stroke="#262521" stroke-linecap="round" stroke-linejoin="round" stroke-width="3"/><path d="M296.17,466.87c38.05-.76,82.61-1.68,82.78-2.28" fill="none" stroke="#636363" stroke-linecap="round" stroke-linejoin="round"/><path d="M294,48.63c-3.68-1.54-21.88,110.6-21.88,136.75" fill="none" stroke="#636363" stroke-linecap="round" stroke-linejoin="round"/><path d="M172.82,61S152.29,89.43,146,98.2s90.43,19.42,91.06,87.18" fill="none" stroke="#636363" stroke-linecap="round" stroke-linejoin="round"/><path d="M191.43,124.84c.11.11.22.24.33.37" fill="none" stroke="#8e8e8e" stroke-linecap="round" stroke-linejoin="round" stroke-width="2"/><path d="M193.34,127.75c17.9,37.09,2.37,312.11.85,338.27" fill="none" stroke="#8e8e8e" stroke-linecap="round" stroke-linejoin="round" stroke-width="2" stroke-dasharray="1 3.01"/><path d="M194.1,467.52l0,.49" fill="none" stroke="#8e8e8e" stroke-linecap="round" stroke-linejoin="round" stroke-width="2"/><path d="M127.89,218c15.19-69.82-7.73-129.46-7.73-129.46" fill="none" stroke="#636363" stroke-linecap="round" stroke-linejoin="round"/><path d="M215,70.4s-29.31,24-27.77,44.58" fill="none" stroke="#636363" stroke-linecap="round" stroke-linejoin="round"/><path d="M315.67,58.06s38.52,39.58,38.9,46.75" fill="none" stroke="#636363" stroke-linecap="round" stroke-linejoin="round"/><path d="M354.57,104.81c.37,7.17-68.24,7.89-82.49,78,0,0,10.47,167.48,21.09,284" fill="none" stroke="#8e8e8e" stroke-linecap="round" stroke-linejoin="round" stroke-width="2" stroke-dasharray="1 3"/><path d="M289.57,70.4S318.31,94.58,318.31,115" fill="none" stroke="#636363" stroke-linecap="round" stroke-linejoin="round"/><path d="M378.07,85.12s-13.72,74-9,137.23" fill="none" stroke="#636363" stroke-linecap="round" stroke-linejoin="round"/><path d="M396.83,438s30.77,8.08,61.54,0" fill="none" stroke="#636363" stroke-linecap="round" stroke-linejoin="round"/><path d="M45,438s30.77,8.08,61.54,0" fill="none" stroke="#636363" stroke-linecap="round" stroke-linejoin="round"/><path d="M294.6,446.32s56.33,4.72,84.62-2.73" fill="none" stroke="#636363" stroke-linecap="round" stroke-linejoin="round"/><path d="M191.43,447.14s-26.89,3.39-65.63-1.85" fill="none" stroke="#636363" stroke-linecap="round" stroke-linejoin="round"/><polyline points="377.49 397.7 346.27 343.63 360.54 335.39 376.54 363.1" fill="none" stroke="#636363" stroke-linecap="round" stroke-linejoin="round"/><polyline points="125.03 397.7 156.25 343.63 141.98 335.39 125.98 363.1" fill="none" stroke="#636363" stroke-linecap="round" stroke-linejoin="round"/></svg>