<svg xmlns="http://www.w3.org/2000/svg" xmlns:xlink="http://www.w3.org/1999/xlink" width="500" height="550" viewBox="0 0 500 550"><defs><clipPath id="a"><path d="M372.14,291.56q-.27,61.72-.62,123.46c-.81,9-2.68,16.41-3.55,25.44-.44,4.56-48.36,4.35-101.94,4.33-64.71,0-137.18-.59-137.67-2.63-11.05-45.91-2.34-104-4.55-151.13-1.42,2.83,18.95-140.71-10.59-207.85C140.54,65,162.7,63,193.13,52c.8-.26,3.29,53.77,52.53,52.47,58.13-1.54,54.9-53.6,54.9-53.6,29.12,10.5,52,12.16,78.36,29.33-20.6,67.5-5.87,218.51-6.37,211.27Z" fill="none"/></clipPath></defs><title>s03e10-01</title><path d="M409.37,137.42c-8.82-19.22-14.51-42.62-30.45-57.21-26.39-17.17-87-32-87.24-31.52l-.2-.06c-3.67-1.54-5,3.72-7.87,5C266.25,64.05,244.14,60.93,225,58.5c-7.1-1.26-13.56-4.12-18.56-9.67a3.16,3.16,0,0,0-2.72-.43c-1.27.46-15.8,5.27-17.07,5.67-25.27,7.84-51.12,14.28-73.39,29.11-23.51,30.35-34.46,68.24-48.07,103.68-23.59,59.07-28.1,123-26.19,186-.35,11.19,3.49,22.28,5.72,33.31A6.7,6.7,0,0,0,46,409.39c6.31,5.75,3.46,14.66,5.49,22.42.3,1.47,1,1.81,2.41,1.47,12.51-3.2,26.22-2.34,38.6,1.18,3.13,1,3.17,1.13,3.74-2,1.44-8,10.36-41.31,11.86-49.29,1.19-8.37,4.89-16.87,4.38-25.31-1-3.31.12-6.42.37-9.58,1.26-11.18,6-24.61-5.15-32.56-5.69-6.88,9.44-5.5,11.81-16.18,1.35-2.86,2.87-5.63,4.29-8.46,2.21,47.16-2.55,94.72,3.6,141.53,1.41,10.78-1.88,18.06-.53,29.31.94,5.1,1.39,5.42,6.62,4.83,24.35-3.77,58.37-1.52,83-2.09,45-2.8,102.06-4.82,146.65,2.92,1.35.23,2.76.33,3.35-1.43,2.84-8.59.53-15.57,1.5-25.64.87-9,2.74-16.47,3.55-25.44q.3-61.72.62-123.46l.41-.08c.5,7.24,12.44,8.69,10.93,15.92-2.92,3.85-2.68,8-1.61,12.34,3.05,11.88,5.55,24,10.45,35.29,1.35,3.61,1.5,7.13-.51,10.66-5.47,9-1.69,19.56-.79,29.26,1.72,8.67-.95,10.27,5.33,17.64,3.31,5.84,3.1,21.25,11.44,21.4,12.54-3.91,25.32-1.08,37.8,1.58,2.67.5,2.68.27,3.08-2.33.83-5.36,1.69-10.73,2.91-16,.35-4.68,5.07-7.12,5.56-11.78,3.05-18.5,2.09-37.3,3.28-55.95C467.37,274.81,437.18,204.91,409.37,137.42Z" fill="#262521" stroke="#262521" stroke-linecap="round" stroke-linejoin="round" stroke-width="3"/><g clip-path="url(#a)"><rect x="90.25" y="123.66" width="310.02" height="6.26" fill="#353430"/><rect x="90.25" y="114.64" width="310.02" height="6.26" fill="#353430"/><rect x="90.25" y="105.78" width="310.02" height="6.26" fill="#353430"/><rect x="90.25" y="96.69" width="310.02" height="6.26" fill="#353430"/><rect x="90.25" y="87.82" width="310.02" height="6.26" fill="#353430"/><rect x="90.25" y="78.73" width="310.02" height="6.26" fill="#353430"/><rect x="90.25" y="69.87" width="310.02" height="6.26" fill="#353430"/><rect x="90.25" y="60.78" width="310.02" height="6.26" fill="#353430"/><rect x="90.25" y="51.92" width="310.02" height="6.26" fill="#353430"/><rect x="90.25" y="195.24" width="310.02" height="6.26" fill="#353430"/><rect x="90.25" y="186.22" width="310.02" height="6.26" fill="#353430"/><rect x="90.25" y="177.36" width="310.02" height="6.26" fill="#353430"/><rect x="90.25" y="168.27" width="310.02" height="6.26" fill="#353430"/><rect x="90.25" y="159.41" width="310.02" height="6.26" fill="#353430"/><rect x="90.25" y="150.32" width="310.02" height="6.26" fill="#353430"/><rect x="90.25" y="141.45" width="310.02" height="6.26" fill="#353430"/><rect x="90.25" y="132.36" width="310.02" height="6.26" fill="#353430"/><rect x="90.25" y="266.76" width="310.02" height="6.26" fill="#353430"/><rect x="90.25" y="257.75" width="310.02" height="6.26" fill="#353430"/><rect x="90.25" y="248.88" width="310.02" height="6.26" fill="#353430"/><rect x="90.25" y="239.79" width="310.02" height="6.26" fill="#353430"/><rect x="90.25" y="230.93" width="310.02" height="6.26" fill="#353430"/><rect x="90.25" y="221.84" width="310.02" height="6.26" fill="#353430"/><rect x="90.25" y="212.98" width="310.02" height="6.26" fill="#353430"/><rect x="90.25" y="203.89" width="310.02" height="6.26" fill="#353430"/><rect x="90.25" y="338.35" width="310.02" height="6.26" fill="#353430"/><rect x="90.25" y="329.33" width="310.02" height="6.26" fill="#353430"/><rect x="90.25" y="320.47" width="310.02" height="6.26" fill="#353430"/><rect x="90.25" y="311.38" width="310.02" height="6.26" fill="#353430"/><rect x="90.25" y="302.52" width="310.02" height="6.26" fill="#353430"/><rect x="90.25" y="293.43" width="310.02" height="6.26" fill="#353430"/><rect x="90.25" y="284.56" width="310.02" height="6.26" fill="#353430"/><rect x="90.25" y="275.47" width="310.02" height="6.26" fill="#353430"/><rect x="90.25" y="347.71" width="310.02" height="6.26" fill="#353430"/><rect x="90.25" y="419.23" width="310.02" height="6.26" fill="#353430"/><rect x="90.25" y="410.22" width="310.02" height="6.26" fill="#353430"/><rect x="90.25" y="401.35" width="310.02" height="6.26" fill="#353430"/><rect x="90.25" y="392.26" width="310.02" height="6.26" fill="#353430"/><rect x="90.25" y="383.4" width="310.02" height="6.26" fill="#353430"/><rect x="90.25" y="374.31" width="310.02" height="6.26" fill="#353430"/><rect x="90.25" y="365.45" width="310.02" height="6.26" fill="#353430"/><rect x="90.25" y="356.36" width="310.02" height="6.26" fill="#353430"/><rect x="90.25" y="490.82" width="310.02" height="6.26" fill="#353430"/><rect x="90.25" y="481.8" width="310.02" height="6.26" fill="#353430"/><rect x="90.25" y="472.94" width="310.02" height="6.26" fill="#353430"/><rect x="90.25" y="463.85" width="310.02" height="6.26" fill="#353430"/><rect x="90.25" y="454.98" width="310.02" height="6.26" fill="#353430"/><rect x="90.25" y="445.89" width="310.02" height="6.26" fill="#353430"/><rect x="90.25" y="437.03" width="310.02" height="6.26" fill="#353430"/><rect x="90.25" y="427.94" width="310.02" height="6.26" fill="#353430"/></g><path d="M291.68,48.69C320.8,59.19,352.53,63,378.92,80.21a61.55,61.55,0,0,1,9.69,11.55" fill="none" stroke="#262521" stroke-linecap="round" stroke-linejoin="round" stroke-width="3"/><path d="M101.84,99.94a167.45,167.45,0,0,1,11.38-16.76c27.32-18.2,60-23.75,90.46-34.78" fill="none" stroke="#262521" stroke-linecap="round" stroke-linejoin="round" stroke-width="3"/><path d="M127.05,448.17c.51-5,1.12-9.77.36-15.61-6.15-46.81-1.39-94.37-3.6-141.53" fill="none" stroke="#262521" stroke-linecap="round" stroke-linejoin="round" stroke-width="3"/><path d="M372.14,291.56q-.27,61.72-.62,123.46c-.81,9-2.68,16.41-3.55,25.44" fill="none" stroke="#262521" stroke-linecap="round" stroke-linejoin="round" stroke-width="3"/><path d="M204.41,48.28s4,48.55,43.68,46.73S290.93,49.6,290.93,49.6" fill="none" stroke="#636363" stroke-linecap="round" stroke-linejoin="round"/></svg>