<svg xmlns="http://www.w3.org/2000/svg" width="500" height="550" viewBox="0 0 500 550"><path d="M369.65 426.11l-3 .45a1.5 1.5 0 00-1.15 1.43c.34 3.5.67 7 1 10.51.05.5.09 1 .14 1.49a1.53 1.53 0 001.85 1.49l4.33-.66a1.37 1.37 0 001-.86.42.42 0 000-.1 1.6 1.6 0 00.05-.21.15.15 0 000-.07.7.7 0 000-.21 1.63 1.63 0 000-.31l-2.19-10.33c-.1-.49-.21-1-.31-1.47a1.53 1.53 0 00-1.72-1.15zm1.9 9.06l.37 2.74a1 1 0 01-.85 1.13l-1.49.2a1 1 0 01-1.13-.85l-.37-2.75a1 1 0 01.86-1.13l1.49-.2a1 1 0 011.12.86zM125.09 428.87c-.1.49-.2 1-.31 1.47l-2.19 10.33a1.55 1.55 0 000 .31.74.74 0 000 .21.13.13 0 000 .06 1.29 1.29 0 000 .21.49.49 0 000 .11v.05a1.39 1.39 0 001 .86l4.33.66a1.53 1.53 0 001.85-1.49c.05-.5.09-1 .14-1.49.34-3.51.67-7 1-10.51a1.5 1.5 0 00-1.15-1.43l-3-.46a1.54 1.54 0 00-1.67 1.11zm1 7.1l1.49.2a1 1 0 01.86 1.13l-.34 2.7a1 1 0 01-1.13.86l-1.49-.2a1 1 0 01-.85-1.13l.37-2.75a1 1 0 011.12-.78z" fill="#84837e"/><path d="M365.52 416.93s-1.73 60.44-5 62.62-151.41 0-167.06-3.27-53.14 5-57.87 4.15-5.46-10.89-3.64-18.53 1.36-45 1.36-45z" fill="#596166" stroke="#262521" stroke-linecap="round" stroke-linejoin="round" stroke-width="3"/><path d="M372.14 291.55q-.27 61.74-.62 123.47c-.81 9-2.68 16.41-3.55 25.44-1 10.07 1.34 17.05-1.5 25.63-.59 1.77-2 1.67-3.35 1.44-44.59-7.74-101.66-5.72-146.65-2.92-24.6.57-58.62-1.68-83 2.08-5.23.6-5.68.28-6.62-4.82-1.35-11.26 1.94-18.53.53-29.31-6.15-46.82-1.39-94.37-3.6-141.53-1.42 2.83-2.94 5.6-4.29 8.46-2.37 10.67-17.5 9.3-11.81 16.18 11.11 7.95 6.41 21.38 5.15 32.56-.25 3.15-1.35 6.27-.37 9.58.51 8.44-3.19 16.94-4.38 25.31-1.5 8-2.61 15.83-1.54 23.93a5.1 5.1 0 01-1.13 3.3c-5.71 6.28-7.75 14-9.19 22.06-.57 3.18-.61 3-3.74 2-12.38-3.52-26.09-4.38-38.6-1.18-1.39.34-2.11 0-2.41-1.47-2-7.76-2.18-16.67-8.49-22.43a6.62 6.62 0 01-1.33-3.22A144.46 144.46 0 0139 372.86c-1.91-63 2.6-126.93 26.19-186 13.61-35.43 24.56-73.32 48.07-103.67 27.32-18.2 60-23.76 90.46-34.78a3.16 3.16 0 012.72.43c5 5.55 11.46 8.41 18.56 9.67 19.19 2.43 41.29 5.55 58.65-4.88 2.85-1.27 4.2-6.53 7.87-5 29.12 10.49 61 14.41 87.44 31.58 15.94 14.59 21.63 38 30.45 57.21 27.81 67.48 58 137.39 51.05 212.07-1.19 18.66-.23 37.46-3.28 56-.49 4.66-5.21 7.09-5.56 11.78-1.22 5.28-2.08 10.65-2.91 16-.4 2.6-.41 2.83-3.08 2.33-12.48-2.66-25.26-5.49-37.8-1.58-8.34-.15-8.13-15.56-11.44-21.4-6.28-7.37-3.61-9-5.33-17.64-.9-9.7-4.68-20.27.79-29.26 2-3.53 1.86-7.05.51-10.66-4.9-11.28-7.4-23.42-10.45-35.29-1.07-4.3-1.31-8.5 1.61-12.34 1.51-7.23-10.43-8.68-10.93-15.93z" fill="#262521"/><path fill="#565c63" d="M210.55 184.13l-1.71-9.19-1.11 9.12 2.82.07zM202.62 185.62l-8.73-6.08 6.87 7.52 1.86-1.44zM198.26 189.98l-8.84.69 8.2 1.23.64-1.92zM197.62 193.92l-6.28 1.49 6.28.37v-1.86z"/><path d="M212.33 183.8c-6.24-2.22-19.78 5.25-14.07 15.48a6.24 6.24 0 00-.64 3.09c.24 1.3-1.56 4.18-1.56 4.18s-2.61-1.44-2.17-2.52a3.65 3.65 0 000-2.38s.14-3.45-1.23-3.45-1.13-2.81-2.4-2.74c-16.61-5.86-19.9 30.42-8.91 25.7 0 0-1.94 4.18-1.15 4.54a31.46 31.46 0 015 4.61c-2.45 5.3 2.17 4.25-.22 7.92a2.6 2.6 0 001.37 4c2 .57 4.4 7.84 4.4 7.84-.93 1.7-10.89 22.48 1 21.38 1.39 3.59-4.44 11.47-1.44 16.35 2.83 3.67 3.9 19.7 2.66 23.39-.57 1.08-1.15 3.67.29 4.39-3.68 7.23-.06 21.26-1.15 26.64-.79.72-2.23 2.45-.07 5.18 0 0-1.19 9-5.9 13.16h28.43v-5H216z" fill="#d3d3d3"/><path d="M179.39 205.17c-1.51 2.81-3.93 5.89-3.27 9.09 2.2-1.68 2.44 1.51 2.66 3 2.65-1.61 3.14-5 4.5-7.52 2.3-4.19 5.84-9.58 4.82-14.62a10.08 10.08 0 00-6 1 22.6 22.6 0 01-2.71 9.05z" fill="#a7aaaf"/><path d="M190.67 250s-.35.72-.86 1.87c-.63 9.28-1.82 10.35 1.37 19.56a3.13 3.13 0 00.49 0 5.14 5.14 0 01.12.55c1.69-4.87 1.8-10.17 4.62-14.66-4.73 7.11-3.39-1.76-1.06-4.57 5.49-8 13.66-13.95 18-22.85l-.7-32.53h-1.24c-.61 1.88-.42 4.24-.93 6.27a5.94 5.94 0 01.71 3.75.74.74 0 01.77.73c.08 3.37-4.86 2.23-6.74 1.24-2.09-1.8-2.83-5.85-1.31-8.2 1-1.57 3.1-.58 4.31-1.6 0-.33 0-.67-.05-1-6.54 1.94-4.93-1.13 0-2.24 1.28-.68 3-.27 4.48-.38v-1.35a21.8 21.8 0 01-3.46-1.87c-1 1.23-4.26 6.23-5.68 3.83-.81-6.14 3.62-8.29 9-7l-.07-3.21c-2.58-1.9-6.86 1.25-8.5-1.59-4.9 1.64-9 8.49-5.61 14.54a6.24 6.24 0 00-.64 3.09c.24 1.3-1.56 4.18-1.56 4.18s-2.61-1.44-2.17-2.52a3.65 3.65 0 000-2.38s.14-3.45-1.23-3.45c-1.58-.28-1.07-3.22-3.05-2.82.05 5.72-4.28 29.44-14 22.37 1.42 4.44 4.88 4.77 5.76 3.41 0 0-1.94 4.18-1.15 4.54a32.77 32.77 0 014.95 4.56c1.57-1.19 1.33-15.49 3.59-11.77 0 3.24-1.23 6.27-1.2 9.5-.19 1.76-2.05 3.55-1.58 5.32.65 1.36-1.66 1.32-1.54-.05 0 2.14 2.51 2.38.53 5a2.6 2.6 0 001.37 4c1.88.49 4.26 7.73 4.26 7.73zm7.62-26c.85-1.1-.54-9.74 1.83-6.55.12 1.31.21 10.26-1.83 6.62zm1.22 15.52c3.16-6.34-.32-18.51 7.83-21.23a.74.74 0 011.06 1c-2.58 4.8-2.08 10.47-3.79 15.55-.58 2.21-5.85 15.14-8.18 12.26-.16-2.97 1.92-4.94 3.08-7.51zm-13.79-.19c-.78-2.22 2.65-4.12 3.62-6-1-2.65 2.5-5.81 2.75-8.74.8-1.15.33-14 2.23-8.66 3.65-3.85.82 9.2.1 10.66.34 4.79 2.59 9.29 1.7 14.17-.25 2.94-1.27 7.72-5.29 6.58-1.88-3.83.48-9.11.76-13.36-.22 1.68-5.05 9.27-5.87 5.42z" fill="#a7aaaf"/><path d="M195.3 287.45c3.09-17.4 11.34-33.35 18.18-49.53v-2.37c-2.89 6-8.55 9.9-12.42 15.16-.88 8.86-4.37 17.5-6.72 26.11-1.15 3.84.15 9.73-3.46 12.28a36.78 36.78 0 011.86 6 44.45 44.45 0 002.56-7.65zM197 325.71c.93-.19 1.44-1.22 1.81-2 1.94-6.45 7.93-11.49 7.62-18.58-.05-.94 1.4-.93 1.45 0 .31 5.54-3.2 10.18-5.82 14.76-3 6.12-6 12-7.41 18.77 14.81.89 14.33-40 19.92-50.09l-.75-34.74a97.78 97.78 0 00-6.52 23.62c-.75 7 .32 14.85-4 20.93-1.13 8.3-3 12.15-10.74 16.49a1.41 1.41 0 00.65.67v.07c5.62-1.49 1.79 3.4-1 4-.24 1.06-.47 2.25-.64 3.46 1.56 1.05 3.35 2.79 5.43 2.64zm9.94-34c6-5.09 3.65-27.91 6.25-22.91 0 8.08-.09 16.79-5 23.64-.54.74-1.79.01-1.25-.75zM205.78 343.67v.13a9.31 9.31 0 001.11-4.05c-.52 1.25-.72 2.61-1.11 3.92z" fill="#a7aaaf"/><path d="M214.65 292.51c-.4 1.24-.83 2.49-1.11 3.77-3 12.5-.1 27.83-7.35 38.89-3.58 3.9-5.07 9.22-9.73 12.33-2.12 5.37-6.71 8.9-10.4 13h4.24a41.86 41.86 0 006.36-10c1.61-1.5 1.64.66.79 1.73.19 2.89-.92 5.76-2.17 8.32h7a51.63 51.63 0 008.69-27.21c4.13-4.21-.73 25.87-3.13 27.21h6.69v-5H216zM205.74 347c-.72 1.05-4.49 8.22-4.93 4.56 3.19-4.49 3.29-9.73 4.7-14.7 4.94-.97 2.01 7.95.23 10.14z" fill="#a7aaaf"/><path d="M195.55 355.87a36.14 36.14 0 01-1.76 3.59.9.9 0 01.28.27 21.49 21.49 0 001.48-3.86zM196.53 253.57a15.53 15.53 0 00-1.51 3.19c2.51-3.42 4.61-7.16 7.5-10.25a.53.53 0 01-.14-.12 44.24 44.24 0 00-5.85 7.18z" fill="#a7aaaf"/><path d="M190.83 196.93c.08.45-.11 1.72.3 1.93 1.29 0 1.69 1.55 1.32 2.61-2.12 5.13 3.19 2.26-3.9 11.29 5.73-1.36.85 8.33 4 7.25 4.1-6.53 10.64-4.08 7.54 3.64 1.76-1.73 1.57-5 3.37-6.5.49-.14.57.88 1.22.49s-.36-1.91.2-2.24 1.92 1.92 2.62 1.81-1-3-.77-4.13c1.87-4.12 5.36 2 6.32 3.95l-.16-7.53c-11.25 2.31-7.77-5.33-9.57-12.21-5.82 3-3.34-4-.3-5.69a13 13 0 01-1.67-3.48c-3.53 2.34-5.52 7.17-3.07 11.16a6.24 6.24 0 00-.64 3.09c.24 1.3-1.56 4.18-1.56 4.18s-2.61-1.44-2.17-2.52a3.65 3.65 0 000-2.38s.14-3.45-1.23-3.45-1.16-2.37-2.12-2.7a13.53 13.53 0 01.27 1.43zM181 204.86c-.51 1.43-1.83 2.35-2.83 3.41a6.11 6.11 0 00-1.29 1.89 4.28 4.28 0 00-.13 2.48c.14.69 1.19.4 1-.29a3.09 3.09 0 01.22-2 6.36 6.36 0 011.27-1.61 9.81 9.81 0 002.76-3.54c.24-.66-.81-1-1-.29z" fill="#565c63"/><path d="M181.05 205c-.83 4.12-3.78 8.22-2.37 12.55.22.67 1.27.38 1-.29-1.33-4.06 1.58-8.09 2.37-12 .14-.69-.91-1-1-.29z" fill="#565c63"/><path d="M180.52 208.21q-.11.79-.15 1.59a6.49 6.49 0 00.06 1.32 1 1 0 00.63.89 1 1 0 001-.47 9.22 9.22 0 001.1-1.9.56.56 0 00.06-.42.64.64 0 00-.25-.33.56.56 0 00-.75.2 9.76 9.76 0 01-1 1.76l.08-.11a1.43 1.43 0 01-.27.28l.11-.09a.26.26 0 01-.11.07l.13-.05h-.07H181.5h-.05l.11.08h-.05l.09.11a.24.24 0 01-.06-.11l.05.13a1.62 1.62 0 01-.09-.38v.15a8.36 8.36 0 010-2c0-.24.05-.47.08-.71a.52.52 0 00-.16-.38.51.51 0 00-.38-.16.57.57 0 00-.39.16l-.08.11a.5.5 0 00-.08.27z" fill="#565c63"/><path d="M173.16 166.11s.2 17.19 3.54 23.27c0 0 3.22 8.12 3.22 9.31s0 6.81 1.44 7.05c0 0-1 5 0 6s9.31-12.42 9.31-14.33c-1.82-6.18-6.53-22.33-8.76-28.41-.79-2.62-2.81-15.95-2.81-15.95z" fill="#d3d3d3"/><path d="M178.12 167.23c2.93 11.88 5.64 23.55 10.38 34.85 4-5.83 1.07-5.93-.22-12.46-.48-3.58-5.57-18-6.37-20.65S179.1 153 179.1 153l-3.67 8.1c0 6.61 1.29 3.24 2.69 6.13z" fill="#565c63"/><path fill="#474640" d="M185.91 108.37l-22.72 34.96 7.17 4.38-7.84 22.6 10.37.93 13.82-40.54-9.41 2.85 8.61-25.18z"/><path d="M166.81 155.6a4.68 4.68 0 001.6-.82c.08-.05.18 0-.1 0l.22-.06h-.13a2.65 2.65 0 01.27 0c-.1 0-.22 0 0 0a2.46 2.46 0 011.21.48c.45.92 2.83 0 1.63-1.45a4.64 4.64 0 00-3.06-1.23c-.67-.08-1.77.76-2 .88.18-.08 0 0 0 0a1.09 1.09 0 10.36 2.2z" fill="#cfd1d3"/><path d="M168.27 152.62a9.82 9.82 0 011.09.06 10.53 10.53 0 011.72.46c.06 0 .4.13.13.05a7.16 7.16 0 011.38.77 1.09 1.09 0 001.1-1.88c-1.56-.9-5.68-3-6.5-.55a1.09 1.09 0 001.08 1.09z" fill="#cfd1d3"/><path d="M168.92 150c.12-.08.26-.13.38-.2-.27.11.37-.13.52-.15l.29-.05h-.08.82a5.34 5.34 0 011 .26s-.2-.09-.06 0 .92.55.63.35a1.11 1.11 0 001.54 0c1.25-1.74-1.76-2.64-3.07-2.75s-4.19.36-3.43 2.18a1.11 1.11 0 001.46.36z" fill="#cfd1d3"/><path d="M169.54 153.77c-1.42-.06-2.74.64-4.07 1.06.49 1.42 2.1.6 2.92 0h-.08.27c1.08.1 2.53 1.87 3.15.09a3.74 3.74 0 00-2.19-1.15zm.23 1.45s-.1-.09 0 0zM171.19 152.09a12.54 12.54 0 00-4-.32c.44 1.43 3.34.73 4 1.42.87.27 1.7 1.41 2.62.67a7 7 0 00-2.62-1.77zM173.75 150.35a5.82 5.82 0 00-6.42-.95 1.18 1.18 0 001.89.47h.08a3.38 3.38 0 012.5 0c.13 0 .88.55.59.34a1.1 1.1 0 001.36.14z" fill="#a7aaaf"/><path d="M174.75 148.25c3.78 3.14 3.52 8.7 3.51 13.18 4.47 5.69 1.73-14.47-2.41-15.06a1.09 1.09 0 00-1.1 1.88z" fill="#565c63"/><path d="M176.86 149.42a3 3 0 00-2.61-2.4c.11 1.71 2.51 2.56 2.83 4.42a6.53 6.53 0 00-.22-2.02z" fill="#a7aaaf"/><path fill="#d3d3d3" d="M181.34 360.52h77.06v6.77h-77.06z"/><path fill="#a2a7aa" d="M181.34 366.08h77.06v.48h-77.06z"/><path fill="#565c63" d="M177.4 369.66l2.48 2.82h78.53v-5.19h-77.07l-3.94 2.37z"/><path fill="#474b4f" d="M181.33 371.03h77.08v-.51h-77.07l-.01.51z"/><path fill="#a7aaaf" d="M179.88 372.48h78.53v6.66h-78.53z"/><path fill="#a8abaf" d="M178.16 379.14h80.25v6.66h-80.25z"/><path fill="#565c63" d="M178.16 380.32h80.25v.58h-80.25zM189.02 381.85h69.39v1.03h-69.39z"/><path fill="#a7aaaf" d="M169.55 385.79h88.86v6.66h-88.86z"/><path fill="#a7aaaf" d="M169.55 392.45h88.86v4.73h-88.86z"/><path fill="#565c63" d="M169.55 385.79h88.86v1.22h-88.86zM169.55 393.96h88.86v1.22h-88.86z"/><path fill="#97999b" d="M169.55 392.45h88.86v1.51h-88.86z"/><path fill="#a7aaaf" d="M169.55 384.33h2.88v8.12h-2.88zM202.86 384.33h2.88v8.12h-2.88z"/><path fill="#565c63" d="M172.4 385.79h.87v6.66h-.87zM205.74 385.79h.87v6.66h-.87z"/><path fill="#a7aaaf" d="M185.5 384.33h2.88v8.12h-2.88zM169.55 384.33h2.88v8.12h-2.88z"/><path fill="#565c63" d="M196.96 375.97l4.31 2.44v7.27h-1.55"/><path fill="#a8abaf" d="M199.72 385.68v-7.27l-5.53-4.88-5.81 4.88v7.27h11.34z"/><path fill="#565c63" d="M191.14 379.6h5.81v5.07h-5.81zM188.38 384.4h.87v8.05h-.87zM210.77 186.38V189a.55.55 0 001.09 0v-2.64a.55.55 0 00-.54-.55.56.56 0 00-.55.55zM208.2 186.25v3a.55.55 0 00.54.54.54.54 0 00.54-.54v-3a.54.54 0 00-1.08 0zM205.75 186.57a16.42 16.42 0 00.2 3 .55.55 0 00.67.38.56.56 0 00.38-.67V189c0-.07 0-.08 0 0v-.12a1 1 0 010-.17q0-.35-.06-.69v-1.39a.55.55 0 00-.54-.55.55.55 0 00-.54.55zM203 187.6l1.1 2.69a.56.56 0 00.67.38.55.55 0 00.38-.67l-1.1-2.69a.56.56 0 00-.67-.38.55.55 0 00-.38.67zM201.3 188.85l1.23 2.46a.55.55 0 00.75.2.56.56 0 00.19-.75l-1.23-2.46a.56.56 0 00-.75-.19.55.55 0 00-.19.74zM208.24 192.46c-.83 2.9-4.54 3.31-6.31 5.42a.54.54 0 00.77.77 13.25 13.25 0 013.56-2.44 6.2 6.2 0 003-3.46.54.54 0 00-1-.29z"/><path d="M208.59 192.62a8.82 8.82 0 003.32 2.67.56.56 0 00.75-.2.55.55 0 00-.2-.74 7.84 7.84 0 01-.86-.45l-.43-.28-.18-.13-.11-.07c-.07-.06 0 0 0 0-.25-.21-.49-.41-.72-.64l-.33-.36-.17-.19-.06-.08v-.05a.55.55 0 00-.74-.2.55.55 0 00-.2.75zM212.09 197.4c-1.51.22-1.64 2-1.6 3.2 0 .8.14 1.6.21 2.39a5.89 5.89 0 010 1.92l.25-.32a2.89 2.89 0 01-1.36.45l.27 1c.6-.32 2.07-1.12 1.41-2-.53-.7-1.87-.39-2.57-.24a.55.55 0 00.14 1.07c.73 0 1.56-.47 2.27-.22l-.38-.38a3.23 3.23 0 01.25 1.81c-.15.64-.72.71-1.3.65s-.69 1 0 1.09a2.23 2.23 0 001.86-.55 2.27 2.27 0 00.57-1.69c0-.51-.1-1.62-.58-1.92-.79-.49-1.86.07-2.69.12l.15 1.07a5.28 5.28 0 011-.14l.51.05s-.16-.33-.13-.33a.59.59 0 01-.11.1 6.53 6.53 0 01-.92.58.55.55 0 00.28 1 3.68 3.68 0 001.91-.6 1.33 1.33 0 00.35-1 15.18 15.18 0 00-.15-2.43 11.61 11.61 0 01-.1-2.5c.06-.57.21-1 .78-1.11s.39-1.14-.29-1zM204.54 200.53c.48-.33 1-.66 1.46-.94l.39-.2.2-.09h.1a3.73 3.73 0 01.81-.22l-.61-.25.08.14v.06c0 .05 0 0 0 0a.6.6 0 01.06.19c0 .09 0-.16 0 0s0 .14 0 0c0 .13.08-.12 0 0s.12-.12 0-.05.12-.06.06 0h-.07c0-.07.14 0 0 0h-.15c-.09 0 .16 0 0 0H206.07c-.15 0 .09 0 0 0l-.76-.11a.55.55 0 00-.67.38.54.54 0 00.38.66 13.42 13.42 0 001.55.21c.56 0 1.25-.12 1.41-.75a1.51 1.51 0 00-.26-1.14.57.57 0 00-.62-.25 8.37 8.37 0 00-3.24 1.61.56.56 0 00-.19.75.55.55 0 00.74.19zM190.88 198.38a9.43 9.43 0 01-1.9 4.45.56.56 0 000 .77.55.55 0 00.77 0 10.48 10.48 0 002.18-4.93.58.58 0 00-.38-.67.55.55 0 00-.67.38zM189.62 204.8c-1.63 4.93-4 10.18-8.49 13.17-.58.39 0 1.34.55.94 4.7-3.16 7.26-8.6 9-13.82.22-.67-.83-1-1-.29z" fill="#565c63"/><path d="M189.34 211.77a31.11 31.11 0 00-2.94 3.71c-.9 1.1-2.05 2.14-3.59 1.87-.68-.13-1 .92-.29 1 3.91.7 5.25-3.73 7.59-5.85.52-.48-.25-1.24-.77-.77z" fill="#565c63"/><path d="M185.46 216.5a17.3 17.3 0 01-3.06 3.5.54.54 0 00.77.77 18.56 18.56 0 003.23-3.73.54.54 0 10-.94-.55zM191.62 211.91c-3.37 4-5.79 8.62-9.39 12.38-.48.5.28 1.28.77.77 3.6-3.76 6-8.43 9.39-12.38.46-.53-.31-1.3-.77-.77z" fill="#565c63"/><path d="M185.65 220.29c-.16 1-.16 2-.32 3a3.33 3.33 0 01-1.26 2.37c-.59.38 0 1.32.55.94 2.06-1.33 1.75-4 2.08-6.06a.54.54 0 00-1-.29zM187.86 218.58c2 1.17 0 4-.37 5.65-.26 1.21.18 2.42.07 3.64a7.44 7.44 0 01-1.79 4.09c-.45.53.32 1.3.77.76a8.55 8.55 0 002-4.27 9.32 9.32 0 000-2.36 4.63 4.63 0 010-2c.63-2.11 2.32-4.93-.26-6.42a.54.54 0 00-.54.94z" fill="#565c63"/><path d="M191.55 213.39c-2 2.08-2 5-2.86 7.64l1.07.14c.14-1.57-.3-3.36.51-4.81a.54.54 0 00-.94-.55 12.84 12.84 0 00-1 1.85.55.55 0 00.19.74.56.56 0 00.75-.19 12 12 0 011-1.85l-.94-.55c-.92 1.66-.49 3.56-.66 5.36 0 .64.89.71 1.07.15.76-2.39.74-5.26 2.58-7.16.49-.5-.28-1.27-.77-.77zM194 218.49c-.13.35-.24.69-.35 1-.06.17-.11.34-.18.51l-.09.27s-.07.15 0 .08v.09a5.06 5.06 0 01-.24.46l-.14.22c-.08.11.07-.08 0 0l-.09.1-.18.18s-.13.1 0 0l-.11.07a1.13 1.13 0 01-.21.12h-.06c.05 0 .06 0 0 0l-.15.06a.56.56 0 00-.38.67.54.54 0 00.66.38c1.79-.57 2.1-2.5 2.68-4a.55.55 0 00-.38-.67.57.57 0 00-.67.38z" fill="#565c63"/><path d="M195.64 215.41a34.41 34.41 0 01-9.43 24.3.55.55 0 00.65.86c4.18-2.19 5.73-6.92 7-11.14a.55.55 0 00-1.05-.29c-1.2 4-2.59 8.44-6.5 10.49l.65.85a35.44 35.44 0 009.76-25.07.55.55 0 00-1.09 0z" fill="#565c63"/><path d="M195.44 220.82a37.51 37.51 0 01-6.4 12.63c-.43.55.51 1.1.94.55a38.16 38.16 0 006.51-12.89.55.55 0 00-1.05-.29zM198.1 215.57v4.28a.55.55 0 001.09 0v-4.28a.55.55 0 00-1.09 0zM199.85 216.52a20.62 20.62 0 01-.32 6.83c-.15.69.89 1 1 .29a21.29 21.29 0 00.37-7.12.57.57 0 00-.55-.54c-.26 0-.58.25-.54.54zM195.56 234.46a34.34 34.34 0 010 6.57.55.55 0 001.09 0 35.17 35.17 0 000-6.57c0-.7-1.13-.7-1.09 0zM189.93 239.8a59.1 59.1 0 01-.08 6.52c0 .69 1 .69 1.09 0a61.67 61.67 0 00.08-6.52c0-.69-1.12-.7-1.09 0zM188.26 240.33v2.07a.55.55 0 001.09 0v-2.07a.55.55 0 00-1.09 0zM212.69 225.05c-6 8.24-12.13 16.44-16.47 25.7-.3.63.64 1.18.94.55 4.34-9.26 10.49-17.46 16.47-25.71.41-.56-.54-1.11-.94-.54z" fill="#565c63"/><path d="M212.74 225c-1.73 5.09-5.33 9.35-9.13 13-.5.49.27 1.25.77.77 3.94-3.83 7.62-8.25 9.41-13.52.22-.66-.83-1-1-.29zM213.09 234c-2.53 9-12.5 12.46-16.46 20.53-.31.63.63 1.18.94.55 4-8.18 14-11.65 16.57-20.8a.54.54 0 00-1-.28z" fill="#565c63"/><path d="M213.47 233.32c-1.81 5.74-4.77 11.92-10.92 13.92-.67.21-.38 1.26.29 1 6.54-2.13 9.74-8.55 11.67-14.68.22-.67-.83-1-1-.29zM214.67 249.19c-2.42 9.73-5.45 19.33-6.76 29.3-.1.69 1 .68 1.08 0 1.3-9.87 4.34-19.38 6.72-29 .17-.68-.88-1-1-.29zM213.1 268.12a44.72 44.72 0 01-4.1 22.79c-.3.63.64 1.18.94.55a45.9 45.9 0 004.22-23.34c-.06-.69-1.15-.7-1.09 0zM206 252.61c-7.16 11.49-9.2 25.16-12.47 38.06a.54.54 0 001 .29c3.25-12.81 5.25-26.4 12.36-37.8.37-.59-.57-1.14-.94-.55z" fill="#565c63"/><path d="M203.88 256.64c-2.75 6.41-4.18 13.29-6.84 19.73-.27.64.78.93 1 .29 2.64-6.36 4-13.15 6.74-19.47.28-.64-.66-1.19-.94-.55zM196 256.67c-3.22 4.05-4.39 9.14-4.9 14.19-.07.7 1 .7 1.09 0 .48-4.73 1.56-9.62 4.58-13.42.43-.55-.33-1.32-.77-.77z" fill="#565c63"/><path d="M192.22 265.33a11.49 11.49 0 01-.16-7.1.54.54 0 00-1.05-.29 15 15 0 00-.24 6.3c.22 2.07.5 4.21-.26 6.2l.8-.32c-1.85-1.43-2.24-4.07-2.56-6.23a.55.55 0 00-1.05 0c-.5 2.9.1 7.21 3.8 7.35.7 0 .7-1.06 0-1.09-2.87-.11-3.13-3.82-2.75-6h-1.05c.37 2.52.93 5.23 3.06 6.88.31.23.69 0 .8-.33 1.55-4.05-.83-8.42.5-12.5l-1.05-.29a12.52 12.52 0 00.16 7.68c.23.65 1.29.37 1.05-.29zM196.44 267.63c-1.7 7.43-5 14.53-5 22.27l1-.27a15.29 15.29 0 01-1.68-4l-.91.53c.47.59.92 1.19 1.36 1.8s1.35 0 .94-.55-1-1.36-1.53-2c-.36-.44-1 0-.91.53a15.63 15.63 0 001.8 4.25.54.54 0 001-.27c0-7.64 3.28-14.66 4.95-22 .16-.68-.89-1-1-.29zM216.21 284.68c-1.73 2.63-3.3 5.36-5 8-.85 1.33-1.72 2.64-2.66 3.89s-2.1 2.4-3 3.68c-2.88 3.94-3.81 9.59-8.51 11.94-.53.27-.2 1 .28 1 4.11.49 5.71-5.26 7-8.11a17.55 17.55 0 014-5.35c1.73-1.68 3.35-3.44 3.6-5.94.07-.69-1-.69-1.09 0-.25 2.51-2.3 4.21-4 5.86a15.61 15.61 0 00-3.28 4.42c-1.18 2.48-2.63 8.47-6.27 8l.27 1c4.72-2.35 5.81-7.75 8.53-11.81.84-1.25 1.95-2.32 2.88-3.52s1.94-2.65 2.83-4c1.83-2.82 3.51-5.74 5.35-8.55.39-.59-.55-1.14-.94-.55z" fill="#565c63"/><path d="M206 301c-1.66 5.14-2.89 10.18-6.38 14.47a20.77 20.77 0 01-4.53 8.25c5.71-4 8-10.48 10.47-16.66.1-.94.75-4.22 1.89-2.82.72 2.13-.44 4.4-.55 6.64 2.59-3 2.25-6.66 2.48-10.27.34-1.31 1.26-2.71.66-4.08" fill="#565c63"/><path d="M205.51 300.9c-1.29 4-2.36 8.09-4.51 11.71-.53.89-1.37 1.72-1.82 2.62s-.56 1.68-.88 2.47a19.45 19.45 0 01-3.56 5.67c-.4.43.13 1.23.65.86 4.26-3 6.78-7.49 8.79-12.21a38.59 38.59 0 002.15-6c.07-.3.17-1 .43-1.25.57-.44.4 1.48.35 1.87-.17 1.44-.61 2.82-.73 4.27a.55.55 0 00.93.38 11.85 11.85 0 002.47-7.05 17.69 17.69 0 01.39-4.18c.4-1.26.88-2.33.43-3.64-.23-.66-1.28-.38-1 .29.45 1.31-.32 2.36-.61 3.6a17.21 17.21 0 00-.2 3.13c-.13 2.57-.52 5.05-2.2 7.08l.93.39c.11-1.4 2.09-7-.3-7.5-1.71-.38-1.88 2.73-2.17 3.71a49.32 49.32 0 01-3.82 8.68 21.57 21.57 0 01-6.33 7.48l.65.85a20.52 20.52 0 003.47-5.26c.41-.92.68-1.9 1.08-2.83a24.77 24.77 0 011.78-2.71c2.27-3.74 3.39-8 4.72-12.15.22-.67-.83-1-1-.29zM202.73 319.87c.23 5.35-3.43 9.83-4 15.06-.07.7 1 .69 1.08 0 .54-5.25 4.2-9.66 4-15.06 0-.7-1.11-.7-1.08 0zM215.3 319.9c-.67 4.29-2.16 8.6-2.54 13.05-2 8.45 1.33 19.29-4.71 26.27q3 0 6-.35c.12-1.8-.4-3.37 1.94-3.47-.26-6.71-.42-30.07-.56-35.28" fill="#565c63"/><path d="M214.77 319.76c-.62 3.84-1.8 7.58-2.35 11.44a73.9 73.9 0 00-.95 9.27c-.12 6.22.47 13.28-3.81 18.37a.55.55 0 00.39.93c2 0 4-.15 6-.36a.57.57 0 00.54-.54c.07-1.31-.32-2.78 1.4-2.92a.55.55 0 00.54-.55c-.36-9.85-.33-19.72-.46-29.58 0-1.9 0-3.8-.1-5.7a.55.55 0 00-1.09 0c.25 9.6.24 19.21.41 28.81 0 2.16.08 4.32.16 6.47l.54-.54c-2.52.21-2.38 1.95-2.49 4l.55-.55q-3 .31-6 .36l.38.93c4.16-4.95 4-11.53 4.1-17.65 0-1.6 0-3.2.16-4.8s.49-3.11.66-4.67c.45-4.22 1.79-8.27 2.47-12.44.11-.69-.93-1-1-.29z" fill="#565c63"/><path d="M213.22 330.28c-2.68 3.08-7.07 4.17-9.37 7.64-.59.9-.78 2.14-1.49 2.91s-1.71 1.44-2.53 2.19a5 5 0 00-1.64 2.49 9.84 9.84 0 01-1.66 3.91c-.42.56.52 1.11.94.55a9.2 9.2 0 001.61-3.42 4.91 4.91 0 01.61-1.77 7 7 0 011.19-1.24 18.89 18.89 0 002.5-2.22 23.2 23.2 0 001.29-2.65c2.16-3.49 6.67-4.57 9.32-7.62.46-.53-.31-1.3-.77-.77zM197.94 350.12c-.34 1.37-.73 2.73-1.18 4.07a.55.55 0 00.38.67.54.54 0 00.67-.38c.45-1.34.84-2.7 1.18-4.08a.55.55 0 00-.38-.66.54.54 0 00-.67.38z" fill="#565c63"/><path d="M201 342.19a8.6 8.6 0 00-.73 4.37 11.5 11.5 0 01-.34 4.45c-.25.66.8.94 1 .29a10.82 10.82 0 00.4-4.31 8.47 8.47 0 01.57-4.26c.33-.62-.61-1.17-.94-.54zM208.14 334.61c-.68 6.1-2.36 12.26-6.23 17.14-.43.54.34 1.32.77.77 4.07-5.14 5.83-11.49 6.55-17.91.08-.7-1-.69-1.09 0z" fill="#565c63"/><path d="M204.24 348.69c0 2.09-.08 4.31-1.36 6.06a.54.54 0 10.94.55c1.38-1.9 1.53-4.34 1.5-6.61a.54.54 0 00-1.08 0z" fill="#565c63"/><path d="M206.66 347.34c.5 4 .07 8.34-3.25 11.08-.54.45.24 1.21.77.77 3.53-2.91 4.11-7.56 3.57-11.85-.09-.68-1.18-.69-1.09 0zM205.48 337.71c.38-.2 1-.57 1.43-.46a.21.21 0 01.06.1 2 2 0 01.08.45c.07 1-.16 2-.08 3.06h1.08c-.14-1.76 1.44-4.2-.47-5.48l.19.75a.93.93 0 01.62-.38l-.55-.55v1.41a.55.55 0 00.93.39 7.71 7.71 0 002.36-3.3c.21-.56-.54-.85-.91-.53a4.63 4.63 0 00-1.27 1.73.54.54 0 00.94.55 9.51 9.51 0 013.69-3.57c.64-.28.09-1.22-.55-.94-1.79.78-3 2.41-4.08 4l.94.55A3.93 3.93 0 01211 334l-.91-.53a6.61 6.61 0 01-2.08 2.82l.93.38v-1.41a.55.55 0 00-.54-.54 2.1 2.1 0 00-1.56.92.55.55 0 00.2.74c.63.42.41 1.41.29 2a9.26 9.26 0 00-.35 2.5c.05.7 1.13.71 1.08 0-.08-1.2.31-2.5 0-3.69-.41-1.59-2.13-1-3.15-.43-.62.33-.07 1.27.55.94zM200.24 233.48l.08.46a.51.51 0 00.19.28.54.54 0 00.86-.28 1.31 1.31 0 01.09-.28l-.06.13a1.7 1.7 0 01.26-.43l-.09.11a2.16 2.16 0 01.37-.37l-.11.09a1.86 1.86 0 01.43-.25l-.13.05a1.89 1.89 0 01.48-.13h-.15a.57.57 0 00.39-.16.54.54 0 00.15-.38.56.56 0 00-.15-.39.57.57 0 00-.39-.16 2.57 2.57 0 00-.82.23 2.53 2.53 0 00-.62.4 2.46 2.46 0 00-.75 1.24h1.05l-.09-.46a.5.5 0 00-.25-.32.53.53 0 00-.41-.06.52.52 0 00-.33.25.61.61 0 000 .42zM204.26 224.36a18.11 18.11 0 002.09 2.69.54.54 0 10.76-.77l-.53-.59-.25-.31a1.83 1.83 0 01-.13-.16l-.06-.07s-.09-.11 0-.06L206 225l-.12-.17-.24-.32-.45-.68a.55.55 0 00-.74-.2.56.56 0 00-.2.75zM205.45 220.48a7.68 7.68 0 002.6 4.61.56.56 0 00.77 0 .54.54 0 000-.77 6.74 6.74 0 01-2.32-4.13.54.54 0 10-1.05.29zM208 221.9l1.66 1.86a.54.54 0 00.77 0 .57.57 0 000-.77l-1.66-1.86a.55.55 0 00-.77 0 .56.56 0 000 .77zM208.57 216.55c-.33 2.3 1.25 4.09 2.77 5.61.49.5 1.26-.27.77-.77-1.18-1.17-2.75-2.72-2.49-4.55a.54.54 0 00-1.05-.29zM211.43 213.92a30 30 0 011 5 .55.55 0 001.09 0 56.87 56.87 0 00-.43-7.94.57.57 0 00-.54-.55c-.27 0-.59.26-.55.55a55.38 55.38 0 01.43 7.94h1.09a31.43 31.43 0 00-1-5.27.54.54 0 00-1 .29zM214.05 295l-.09 28.6c0 .72 1 .67 1.09 0a75.16 75.16 0 00.52-10.28.55.55 0 00-1.09 0 75.16 75.16 0 01-.52 10.28h1.09l.08-28.6a.54.54 0 00-1.08 0zM285.81 184.13l1.71-9.19 1.11 9.12-2.82.07zM293.74 185.62l8.73-6.08-6.86 7.52-1.87-1.44zM298.11 189.98l8.83.69-8.19 1.23-.64-1.92zM298.75 193.92l6.27 1.49-6.27.37v-1.86z" fill="#565c63"/><path d="M284 183.8c6.25-2.22 19.79 5.25 14.08 15.48a6.16 6.16 0 01.63 3.09c-.24 1.3 1.56 4.18 1.56 4.18s2.61-1.44 2.17-2.52a3.73 3.73 0 010-2.38s-.13-3.45 1.24-3.45 1.12-2.81 2.39-2.74c16.61-5.86 19.91 30.42 8.91 25.7 0 0 1.94 4.18 1.15 4.54a31.46 31.46 0 00-5 4.61c2.45 5.3-2.17 4.25.22 7.92a2.6 2.6 0 01-1.37 4c-2 .57-4.39 7.84-4.39 7.84.92 1.7 10.88 22.48-1 21.38-1.39 3.59 4.45 11.47 1.44 16.35-2.82 3.67-3.9 19.7-2.66 23.39.58 1.08 1.15 3.67-.29 4.39 3.68 7.23.07 21.26 1.15 26.64.8.72 2.24 2.45.08 5.18 0 0 1.19 9 5.9 13.16h-28.34v-5h-1.51z" fill="#d3d3d3"/><path d="M317 205.17c1.52 2.81 3.94 5.89 3.27 9.09-2.19-1.68-2.43 1.51-2.66 3-2.65-1.61-3.13-5-4.5-7.52-2.3-4.19-5.83-9.58-4.81-14.62a10.08 10.08 0 016 1 22.75 22.75 0 002.7 9.05z" fill="#a7aaaf"/><path d="M310.09 242.19c4.51-1.64-1.21-5.37 1.44-7.42a1.54 1.54 0 00.46-1.51c.12 1.36-2.18 1.42-1.54.05.48-1.77-1.38-3.56-1.57-5.32 0-3.23-1.23-6.26-1.21-9.5 2.26-3.75 2 10.59 3.6 11.77a32.2 32.2 0 014.94-4.56c.79-.36-1.15-4.54-1.15-4.54.89 1.36 4.34 1 5.76-3.41-9.74 7.06-14.06-16.61-14-22.37-2-.4-1.47 2.54-3.05 2.82-1.37 0-1.24 3.45-1.24 3.45a3.73 3.73 0 000 2.38c.44 1.08-2.17 2.52-2.17 2.52s-1.8-2.88-1.56-4.18a6.16 6.16 0 00-.63-3.09c3.39-6.05-.71-12.9-5.61-14.54-1.64 2.84-5.92-.31-8.51 1.59l-.07 3.21c5.42-1.32 9.85.84 9 7-1.43 2.4-4.66-2.6-5.68-3.83a22.24 22.24 0 01-3.46 1.87v1.35c1.44.11 3.19-.3 4.48.38 4.91 1.12 6.49 4.18 0 2.24 0 .33 0 .67-.05 1 1.21 1 3.28 0 4.3 1.6 1.53 2.35.78 6.4-1.31 8.2-1.87 1-6.81 2.12-6.74-1.24a.76.76 0 01.77-.73 6.08 6.08 0 01.71-3.75c-.5-2-.31-4.39-.92-6.27h-1.24l-.7 32.53c4.3 8.9 12.46 14.84 18 22.85 2.32 2.79 3.68 11.7-1.06 4.57 2.82 4.49 2.93 9.79 4.61 14.66a5.14 5.14 0 01.12-.55 3.17 3.17 0 00.5 0c3.2-9.22 2-10.29 1.36-19.56-.5-1.15-.85-1.87-.85-1.87s2.26-7.23 4.27-7.8zm-13.41-17.73c-.39-1.2-1.38-10 1-6.94-.54 1.21 1.5 9.6-1 6.94zm3.26 22.67c-3.59 3-10.05-16.53-9.74-19.9.59-1.81-4-10-1.17-8.87 8.15 2.74 4.66 14.88 7.82 21.23 1.15 2.57 3.25 4.54 3.09 7.54zm9.87-6.68c-2.69-.87-4-4-5-6.39.28 4.25 2.64 9.53.75 13.36-4 1.14-5-3.64-5.29-6.58-.88-4.88 1.36-9.38 1.7-14.17-.72-1.5-3.55-14.47.11-10.66 1.89-5.36 1.43 7.5 2.23 8.66.25 2.93 3.74 6.09 2.74 8.74 1 1.87 4.41 3.77 3.62 6a.74.74 0 01-.86 1.04z" fill="#a7aaaf"/><path d="M301.07 287.45c-3.09-17.4-11.35-33.35-18.18-49.53l.05-2.37c2.89 6 8.54 9.9 12.41 15.16.88 8.86 4.37 17.5 6.72 26.11 1.15 3.84-.14 9.73 3.47 12.28a35.83 35.83 0 00-1.86 6 43.62 43.62 0 01-2.61-7.65zM302.49 324.68c.84-.49 1.62-1 2.4-1.6-.16-1.21-.39-2.4-.63-3.46-2.85-.61-6.67-5.5-1.06-4v-.07a1.48 1.48 0 00.66-.67c-7.79-4.4-9.59-8.14-10.74-16.49-4.35-6.08-3.28-13.89-4-20.93a98.26 98.26 0 00-6.53-23.62l-.74 34.74c5.59 10.1 5.09 50.95 19.91 50.09-1.41-6.8-4.41-12.65-7.4-18.77-2.63-4.57-6.13-9.22-5.83-14.76.06-.93 1.51-.94 1.45 0-.31 7.09 5.69 12.13 7.62 18.58.65 2.49 3.16 2.28 4.89.96zm-14.32-32.26c-3.32-1.07-7.58-28.27-3.55-23.64 0 7.84 0 16.26 4.8 22.91.58.76-.71 1.49-1.25.73zM290.58 343.67v.13a9.6 9.6 0 01-1.11-4.05c.53 1.25.72 2.61 1.11 3.92z" fill="#a7aaaf"/><path d="M280.36 355.5h1.51v5h6.7c-2.37-1.21-7.28-31.44-3.13-27.21a51.45 51.45 0 008.69 27.21h7c-1.25-2.56-2.37-5.43-2.17-8.32-.85-1.07-.83-3.24.79-1.73a41.83 41.83 0 006.35 10h4.25c-3.69-4.12-8.29-7.66-10.41-13-4.66-3.11-6.15-8.42-9.72-12.33-7.26-11.07-4.32-26.39-7.36-38.89a35.39 35.39 0 00-1.11-3.77zm7.74-15.95a3.45 3.45 0 011.76-3c2.7.17 1.51 4.72 2.09 6.59a41.61 41.61 0 003.6 8.37c-.55 4.8-8.55-10.15-7.45-11.96z" fill="#a7aaaf"/><path d="M300.81 355.87c.57 1.21 1.08 2.45 1.76 3.59a.87.87 0 00-.27.27 21.53 21.53 0 01-1.49-3.86zM299.83 253.57a14.55 14.55 0 011.51 3.19c-2.5-3.42-4.61-7.16-7.49-10.25a.53.53 0 00.14-.12 44.18 44.18 0 015.84 7.18z" fill="#a7aaaf"/><path d="M305.53 196.93c-.07.45.11 1.72-.3 1.93-1.29 0-1.69 1.55-1.31 2.61 2.11 5.13-3.19 2.26 3.9 11.29-5.73-1.36-.86 8.33-4 7.25-4.09-6.53-10.63-4.08-7.53 3.64-1.77-1.73-1.58-5-3.37-6.5-.49-.14-.57.88-1.23.49s.37-1.91-.19-2.24-1.93 1.92-2.63 1.81 1-3 .78-4.13c-1.87-4.12-5.37 2-6.33 3.95l.17-7.53c11.25 2.31 7.77-5.33 9.56-12.21 5.83 3 3.34-4 .31-5.69a13.6 13.6 0 001.67-3.48c3.53 2.34 5.52 7.17 3.07 11.16a6.16 6.16 0 01.63 3.09c-.24 1.3 1.56 4.18 1.56 4.18s2.61-1.44 2.17-2.52a3.73 3.73 0 010-2.38s-.13-3.45 1.24-3.45 1.15-2.37 2.12-2.7a11.47 11.47 0 00-.29 1.43zM314.31 205.15a9.84 9.84 0 002.77 3.54 6.36 6.36 0 011.27 1.61 3.08 3.08 0 01.21 2c-.14.69.91 1 1.05.29a4.37 4.37 0 00-.14-2.48 5.91 5.91 0 00-1.28-1.89c-1-1.06-2.33-2-2.83-3.41-.23-.65-1.28-.37-1.05.29z" fill="#565c63"/><path d="M314.27 205.32c.78 3.88 3.69 7.91 2.36 12-.21.67.84 1 1.05.29 1.42-4.33-1.53-8.43-2.37-12.55-.13-.69-1.18-.4-1 .29z" fill="#565c63"/><path d="M314.75 208.21a14.11 14.11 0 01.16 2.25 3.67 3.67 0 010 .46v-.15a1.64 1.64 0 01-.1.38l.06-.13-.06.11.08-.11a.12.12 0 01-.05 0l.11-.08h.28-.06.15-.07l.13.05a.29.29 0 01-.12-.07l.11.09a1.79 1.79 0 01-.27-.28l.09.11a9.81 9.81 0 01-1-1.76.5.5 0 00-.32-.25.56.56 0 00-.42 0 .55.55 0 00-.25.33.61.61 0 00.05.42 10.72 10.72 0 00.94 1.69c.24.33.56.72 1 .71a.92.92 0 00.8-.82A5.8 5.8 0 00316 210a17.43 17.43 0 00-.16-1.76.59.59 0 00-.16-.38.51.51 0 00-.38-.16.57.57 0 00-.39.16.55.55 0 00-.16.38z" fill="#565c63"/><path d="M323.2 166.11s-.19 17.19-3.53 23.27c0 0-3.23 8.12-3.23 9.31s0 6.81-1.43 7.05c0 0 .95 5 0 6s-9.31-12.42-9.31-14.33c1.81-6.18 6.53-22.33 8.75-28.41.8-2.62 2.81-15.95 2.81-15.95z" fill="#d3d3d3"/><path d="M318.25 167.23c-2.94 11.88-5.64 23.55-10.39 34.85-4-5.83-1.07-5.93.23-12.46.47-3.58 5.56-18 6.36-20.65s2.81-15.97 2.81-15.97l3.68 8.1c0 6.61-1.3 3.24-2.69 6.13z" fill="#565c63"/><path fill="#474640" d="M310.45 108.37l22.73 34.96-7.18 4.38 7.84 22.6-10.36.93-13.83-40.54 9.42 2.85-8.62-25.18z"/><path d="M329.55 155.6a4.63 4.63 0 01-1.59-.82c-.09-.05-.18 0 .09 0l-.22-.06h.14a2.64 2.64 0 00-.28 0h.06a2.49 2.49 0 00-1.22.48c-.44.92-2.83 0-1.62-1.45a4.62 4.62 0 013.06-1.23c.66-.08 1.76.76 2 .88-.17-.08 0 0 0 0a1.09 1.09 0 11-.42 2.13z" fill="#cfd1d3"/><path d="M328.09 152.62a9.77 9.77 0 00-1.08.06 10.57 10.57 0 00-1.73.46s-.4.13-.13.05a7.81 7.81 0 00-1.38.77 1.09 1.09 0 01-1.1-1.88c1.57-.9 5.69-3 6.51-.55a1.11 1.11 0 01-1.09 1.09z" fill="#cfd1d3"/><path d="M327.44 150c-.12-.08-.25-.13-.38-.2.27.11-.37-.13-.52-.15l-.28-.05h.07-.82a5.34 5.34 0 00-1 .26c.06 0 .2-.09.07 0s-.92.55-.64.35a1.11 1.11 0 01-1.54 0c-1.25-1.74 1.77-2.64 3.08-2.75s4.19.36 3.42 2.18a1.11 1.11 0 01-1.49.39z" fill="#cfd1d3"/><path d="M324.64 154.87c.62 1.78 2.06 0 3.15-.09h.26-.08c.82.64 2.43 1.46 2.92 0-2.03-.69-4.51-1.85-6.25.09zm1.92.38c.14-.12.05-.03 0 0zM325.17 152.09a12.57 12.57 0 014-.32c-.44 1.43-3.34.73-4 1.42-.86.27-1.69 1.41-2.62.67a7 7 0 012.62-1.77zM322.61 150.35a5.83 5.83 0 016.43-.95 1.19 1.19 0 01-1.9.47h-.08a3.38 3.38 0 00-2.5 0 .58.58 0 10-.06 0c-.14 0-.88.55-.6.34a1.1 1.1 0 01-1.29.14z" fill="#a7aaaf"/><path d="M321.61 148.25c-3.77 3.14-3.51 8.7-3.5 13.18-4.48 5.69-1.73-14.47 2.41-15.06 1.19-.73 2.3 1.16 1.09 1.88z" fill="#565c63"/><path d="M319.51 149.42a3 3 0 012.6-2.4c-.11 1.71-2.51 2.56-2.83 4.42a6.54 6.54 0 01.23-2.02z" fill="#a7aaaf"/><path fill="#d3d3d3" d="M237.96 360.52h77.06v6.77h-77.06z"/><path fill="#a2a7aa" d="M237.96 366.08h77.06v.48h-77.06z"/><path fill="#565c63" d="M318.97 369.66l-2.48 2.82h-78.53v-5.19h77.06l3.95 2.37z"/><path fill="#474b4f" d="M315.04 371.03h-77.08v-.51h77.06l.02.51z"/><path fill="#a7aaaf" d="M237.96 372.48h78.53v6.66h-78.53z"/><path fill="#a8abaf" d="M237.96 379.14h80.25v6.66h-80.25z"/><path fill="#565c63" d="M237.96 380.32h80.25v.58h-80.25zM237.96 381.85h69.39v1.03h-69.39z"/><path fill="#a7aaaf" d="M237.96 385.79h88.86v6.66h-88.86z"/><path fill="#a7aaaf" d="M237.96 392.45h88.86v4.73h-88.86z"/><path fill="#565c63" d="M237.96 385.79h88.86v1.22h-88.86zM237.96 393.96h88.86v1.22h-88.86z"/><path fill="#97999b" d="M237.96 392.45h88.86v1.51h-88.86z"/><path fill="#a7aaaf" d="M323.94 384.33h2.88v8.12h-2.88zM290.63 384.33h2.88v8.12h-2.88z"/><path fill="#565c63" d="M323.09 385.79h.87v6.66h-.87zM289.75 385.79h.87v6.66h-.87z"/><path fill="#a7aaaf" d="M307.99 384.33h2.88v8.12h-2.88zM323.94 384.33h2.88v8.12h-2.88z"/><path fill="#565c63" d="M299.41 375.97l-4.31 2.44v7.27h1.55"/><path fill="#a8abaf" d="M296.65 385.68v-7.27l5.52-4.88 5.82 4.88v7.27h-11.34z"/><path fill="#565c63" d="M299.41 379.6h5.81v5.07h-5.81zM307.11 384.4h.87v8.05h-.87zM284.5 186.38V189a.56.56 0 00.55.54.55.55 0 00.54-.54v-2.64a.55.55 0 00-.54-.55.56.56 0 00-.55.55zM287.08 186.25v3a.55.55 0 001.09 0v-3a.55.55 0 00-1.09 0zM289.53 186.57v1.39l-.06.66v.63a.55.55 0 00.38.67.54.54 0 00.66-.38 16.43 16.43 0 00.21-3 .55.55 0 10-1.09 0zM292.28 187.31l-1.11 2.69a.54.54 0 001.05.29l1.1-2.69a.54.54 0 00-.38-.67.56.56 0 00-.66.38zM294.13 188.3l-1.24 2.46a.57.57 0 00.2.75.55.55 0 00.74-.2l1.24-2.46a.56.56 0 00-.2-.74.55.55 0 00-.74.19zM287.08 192.75a6.17 6.17 0 003 3.46 13.41 13.41 0 013.56 2.44.54.54 0 00.77-.77c-1.78-2.11-5.49-2.52-6.32-5.42a.54.54 0 00-1 .29z"/><path d="M286.84 192.07c0-.06 0 0 0 0l-.08.1-.15.17q-.15.18-.33.36a9.4 9.4 0 01-.74.66c-.07.06.06 0 0 0l-.1.08-.21.14c-.13.1-.27.18-.41.27a8.13 8.13 0 01-.88.46.54.54 0 00-.19.74.56.56 0 00.74.2 8.74 8.74 0 003.32-2.67.54.54 0 00-.19-.75.56.56 0 00-.74.2zM284 198.45c.56.08.7.51.77 1.07a12 12 0 01-.09 2.54 17.45 17.45 0 00-.16 2.39 1.38 1.38 0 00.35 1.08 3.81 3.81 0 001.92.6.55.55 0 00.27-1 7.92 7.92 0 01-.92-.58l-.1-.1s-.09.37-.14.33l.51-.05a5.51 5.51 0 011 .14l.14-1.07c-.84 0-1.79-.56-2.62-.15-.54.27-.63 1.41-.65 2a2.36 2.36 0 00.54 1.66 2.26 2.26 0 001.9.58c.69-.07.69-1.16 0-1.09s-1.15 0-1.31-.65a3.15 3.15 0 01.26-1.81l-.38.38c.71-.25 1.53.18 2.26.22a.55.55 0 00.15-1.07c-.71-.15-2-.46-2.57.24-.66.89.8 1.69 1.4 2l.28-1a2.89 2.89 0 01-1.37-.45l.25.32a6.17 6.17 0 010-1.87c.07-.81.18-1.62.21-2.44.05-1.2-.08-3-1.59-3.2-.69-.09-1 .95-.29 1zM292.37 199.59a8.37 8.37 0 00-3.24-1.61.57.57 0 00-.61.25 1.69 1.69 0 00-.3.94.92.92 0 00.51.78 3 3 0 001.71.09l.78-.13a.54.54 0 00.38-.66.56.56 0 00-.67-.38l-.76.11c-.1 0 .15 0 0 0h-.81c-.13 0 .12 0 0 0h-.15c-.1 0 0-.05 0 0h-.06c-.07 0 .11.1.05 0s.07.12 0 .05-.05-.13 0 .05v-.05c0 .18 0 .1 0 0s0 .12 0 0a.6.6 0 01.06-.19c0 .08 0 .09 0 0v-.06a.64.64 0 01.08-.14l-.62.25a4 4 0 01.82.22h.1l.19.09c.14.06.26.13.39.2a15.79 15.79 0 011.46.94.56.56 0 00.75-.19.57.57 0 00-.2-.75zM304.44 198.67a10.38 10.38 0 002.18 4.93.55.55 0 00.77 0 .57.57 0 000-.77 9.33 9.33 0 01-1.9-4.45.55.55 0 00-.67-.38.57.57 0 00-.38.67zM305.69 205.09c1.74 5.22 4.29 10.66 9 13.82.59.4 1.13-.55.55-.94-4.45-3-6.85-8.24-8.49-13.17-.22-.66-1.27-.38-1.05.29z" fill="#565c63"/><path d="M306.26 212.54c2.33 2.12 3.67 6.55 7.58 5.85.69-.12.4-1.17-.29-1-1.53.27-2.68-.77-3.59-1.87a30.13 30.13 0 00-2.94-3.71c-.51-.47-1.28.29-.76.77z" fill="#565c63"/><path d="M310 217.05a18.24 18.24 0 003.23 3.73.55.55 0 00.77 0 .56.56 0 000-.77 17 17 0 01-3.06-3.51.57.57 0 00-.75-.2.55.55 0 00-.19.75zM304 212.68c3.37 3.95 5.8 8.62 9.4 12.38.48.5 1.25-.26.77-.77-3.6-3.76-6-8.43-9.4-12.38-.46-.53-1.22.24-.77.77z" fill="#565c63"/><path d="M309.66 220.58c.33 2.08 0 4.73 2.09 6.06.59.38 1.13-.56.54-.94a3.29 3.29 0 01-1.25-2.37c-.17-1-.17-2-.33-3a.55.55 0 00-.67-.38.57.57 0 00-.38.67zM308 217.64c-2.58 1.49-.88 4.31-.26 6.42a4.15 4.15 0 01.06 1.92 9.18 9.18 0 000 2.4 8.53 8.53 0 002 4.34c.46.54 1.22-.23.77-.76a7.41 7.41 0 01-1.77-4c-.14-1.26.32-2.51.05-3.75-.34-1.61-2.38-4.48-.36-5.65a.54.54 0 00-.55-.94z" fill="#565c63"/><path d="M304.05 214.16c1.84 1.9 1.81 4.77 2.57 7.16.18.55 1.13.49 1.07-.15-.16-1.8.27-3.7-.66-5.36l-.93.55a13.88 13.88 0 011 1.85c.29.63 1.23.08.94-.55a12.9 12.9 0 00-1-1.85.54.54 0 00-.93.55c.8 1.45.36 3.24.5 4.81l1.07-.14c-.83-2.6-.84-5.56-2.85-7.64-.49-.5-1.26.27-.77.77zM301.31 218.78c.58 1.53.88 3.46 2.67 4a.54.54 0 10.29-1.05h-.14c-.12 0 .07 0 0 0l-.23-.13-.11-.07c.11.07 0 0 0 0a1.07 1.07 0 01-.19-.18l-.08-.1c-.08-.08.05.08 0 0l-.14-.21c-.09-.15-.17-.31-.25-.47a.54.54 0 00-.05-.11c.05.11 0 0 0 0l-.1-.26c-.03-.08-.13-.36-.18-.54-.12-.35-.22-.69-.35-1a.57.57 0 00-.67-.38.55.55 0 00-.38.67z" fill="#565c63"/><path d="M299.63 215.41a35.53 35.53 0 009.76 25.07l.66-.85c-3.91-2-5.31-6.54-6.5-10.49-.21-.67-1.26-.38-1.05.29 1.28 4.22 2.83 8.95 7 11.14a.55.55 0 00.66-.86c-6.26-6.31-9.55-15.48-9.44-24.3a.55.55 0 00-1.09 0z" fill="#565c63"/><path d="M299.87 221.11a38.37 38.37 0 006.52 12.89c.42.55 1.37 0 .94-.55a37.35 37.35 0 01-6.41-12.63.55.55 0 00-1.05.29zM297.17 215.57v4.28a.55.55 0 001.09 0v-4.28a.55.55 0 00-1.09 0zM295.43 216.52a21 21 0 00.36 7.12c.15.69 1.2.4 1-.29a20.1 20.1 0 01-.32-6.83.55.55 0 00-1.09 0zM299.71 234.46a35.17 35.17 0 000 6.57.57.57 0 00.55.54c.26 0 .58-.25.54-.54a35.17 35.17 0 010-6.57c0-.7-1-.7-1.09 0zM305.35 239.8a56.74 56.74 0 00.08 6.52c.05.69 1.13.7 1.09 0a59.1 59.1 0 01-.09-6.52c0-.7-1.05-.69-1.08 0zM307 240.33v2.07a.55.55 0 001.09 0v-2.07a.55.55 0 00-1.09 0zM282.74 225.59c6 8.25 12.13 16.45 16.47 25.71.3.63 1.23.08.94-.55-4.34-9.26-10.5-17.46-16.47-25.7-.41-.57-1.35 0-.94.54z" fill="#565c63"/><path d="M282.58 225.24c1.79 5.27 5.47 9.69 9.41 13.52.5.48 1.27-.28.77-.77-3.81-3.69-7.41-8-9.13-13-.23-.66-1.28-.38-1.05.29zM282.22 234.25c2.59 9.15 12.56 12.62 16.58 20.8.31.63 1.25.08.94-.55-4-8.07-13.94-11.57-16.47-20.53a.54.54 0 00-1 .28z" fill="#565c63"/><path d="M281.85 233.61c1.93 6.13 5.13 12.55 11.68 14.68.67.21 1-.84.29-1-6.15-2-9.11-8.18-10.92-13.92-.21-.67-1.26-.38-1 .29zM280.65 249.48c2.39 9.63 5.42 19.14 6.72 29 .09.68 1.18.69 1.09 0-1.31-10-4.35-19.57-6.76-29.3a.54.54 0 00-1.05.29zM282.18 268.12a45.69 45.69 0 004.22 23.34c.29.63 1.23.08.94-.55a44.61 44.61 0 01-4.07-22.79c.06-.7-1-.69-1.09 0zM289.44 253.16c7.11 11.4 9.11 25 12.36 37.8a.54.54 0 001.05-.29c-3.28-12.9-5.31-26.57-12.47-38.06-.37-.59-1.32 0-.94.55z" fill="#565c63"/><path d="M291.54 257.19c2.72 6.32 4.11 13.11 6.74 19.47.27.64 1.32.36 1.05-.29-2.67-6.44-4.1-13.32-6.85-19.73-.28-.64-1.21-.09-.94.55zM299.6 257.44c3 3.8 4.1 8.69 4.57 13.42.07.69 1.16.7 1.09 0-.5-5.05-1.67-10.14-4.9-14.19-.43-.55-1.2.22-.76.77z" fill="#565c63"/><path d="M305.19 265.62a12.37 12.37 0 00.16-7.68l-1.05.29c1.33 4.08-1 8.45.5 12.5.11.29.5.56.8.33 2.13-1.65 2.7-4.36 3.07-6.88h-1.05c.37 2.15.12 5.86-2.75 6-.7 0-.71 1.12 0 1.09 3.7-.14 4.3-4.45 3.8-7.35a.55.55 0 00-1.05 0c-.32 2.16-.72 4.8-2.57 6.23l.8.32c-.76-2-.47-4.13-.25-6.2a14.87 14.87 0 00-.25-6.3.54.54 0 00-1.05.29 11.34 11.34 0 01-.16 7.1c-.23.66.82.94 1.05.29zM298.88 267.92c1.67 7.32 5 14.34 5 22a.55.55 0 001 .27 16.27 16.27 0 001.8-4.25c.12-.49-.56-1-.91-.53-.53.66-1 1.34-1.54 2s.54 1.12.94.55.9-1.21 1.37-1.8l-.91-.53a15 15 0 01-1.69 4l1 .27c0-7.74-3.29-14.84-5-22.27-.16-.68-1.21-.4-1.05.29zM279.21 285.23c1.81 2.75 3.45 5.61 5.24 8.37.93 1.45 1.9 2.86 2.95 4.21.92 1.2 2 2.27 2.88 3.52 2.71 4.06 3.81 9.46 8.52 11.81l.28-1c-1.93.23-3.09-1.41-3.93-2.92s-1.54-3.42-2.35-5.11a15.58 15.58 0 00-3.27-4.42c-1.69-1.65-3.74-3.35-4-5.86-.07-.69-1.15-.69-1.08 0 .25 2.5 1.87 4.26 3.59 5.94a17.31 17.31 0 014 5.35c1.29 2.85 2.89 8.6 7 8.11.48-.06.81-.75.27-1-4.7-2.35-5.62-8-8.5-11.94-.89-1.22-2-2.29-2.9-3.5s-1.83-2.56-2.68-3.89c-1.74-2.71-3.35-5.5-5.12-8.19-.38-.59-1.32 0-.94.55z" fill="#565c63"/><path d="M290.34 301c1.66 5.14 2.88 10.18 6.38 14.47a20.52 20.52 0 004.53 8.25c-5.71-4-8-10.48-10.48-16.66-.09-.94-.75-4.22-1.89-2.82-.72 2.13.44 4.4.56 6.64-2.6-3-2.25-6.66-2.49-10.27-.33-1.31-1.26-2.71-.66-4.08" fill="#565c63"/><path d="M289.81 301.19c1.33 4.13 2.45 8.41 4.72 12.15a24.87 24.87 0 011.79 2.71c.4.93.66 1.91 1.08 2.83a20.22 20.22 0 003.46 5.26l.66-.85a21.58 21.58 0 01-6.25-7.31 48.78 48.78 0 01-3.9-8.85c-.3-1-.44-4-2.1-3.72-2.49.39-.48 6.16-.38 7.51l.93-.39c-1.68-2-2.07-4.51-2.2-7.08a20.75 20.75 0 00-.14-2.95c-.25-1.32-1.14-2.38-.66-3.78.23-.66-.82-1-1.05-.29a4.92 4.92 0 00.36 3.45 16 16 0 01.45 4.37 11.85 11.85 0 002.47 7.05.55.55 0 00.93-.38c-.1-1.33-.48-2.61-.68-3.93-.05-.32-.27-2.53.25-2.3.24.1.39 1 .45 1.22a19.94 19.94 0 00.75 2.58c.47 1.18.94 2.36 1.44 3.53 2 4.72 4.53 9.17 8.78 12.21.53.37 1-.42.66-.86a19.45 19.45 0 01-3.56-5.67c-.33-.79-.5-1.7-.88-2.47s-1.3-1.73-1.83-2.62c-2.15-3.62-3.22-7.73-4.5-11.71-.21-.67-1.26-.38-1.05.29zM292.55 319.87c-.23 5.4 3.42 9.81 4 15.06.07.69 1.16.7 1.09 0-.54-5.23-4.19-9.71-4-15.06 0-.7-1.06-.7-1.09 0zM281.07 319.9c.67 4.29 2.15 8.6 2.53 13.05 2 8.45-1.33 19.29 4.72 26.27-2 0-4-.14-6-.35-.13-1.8.4-3.37-2-3.47.26-6.71.43-30.07.57-35.28" fill="#565c63"/><path d="M280.54 320.05c.68 4.17 2 8.22 2.48 12.44.17 1.56.54 3.09.65 4.67s.15 3.2.16 4.8c.05 6.12-.06 12.7 4.11 17.65l.38-.93c-2 0-4-.15-6-.36l.54.55c-.11-2.06 0-3.8-2.49-4l.55.54c.37-9.85.33-19.72.46-29.58 0-1.9 0-3.8.1-5.7a.55.55 0 00-1.09 0c-.25 9.6-.23 19.21-.4 28.81 0 2.16-.08 4.32-.16 6.47a.57.57 0 00.54.55c1.72.14 1.34 1.61 1.41 2.92a.55.55 0 00.54.54c2 .21 4 .32 6 .36a.55.55 0 00.38-.93c-4.28-5.09-3.68-12.15-3.8-18.37a78.2 78.2 0 00-.92-9c-.54-3.94-1.75-7.75-2.39-11.67-.11-.69-1.16-.4-1 .29z" fill="#565c63"/><path d="M282.37 331.05c2.65 3.05 7.17 4.13 9.33 7.62a21.59 21.59 0 001.28 2.65 19.54 19.54 0 002.5 2.22 7.17 7.17 0 011.13 1.14 4.83 4.83 0 01.67 1.87 9.22 9.22 0 001.62 3.45c.41.55 1.36 0 .94-.55a9.46 9.46 0 01-1.64-3.76 4.92 4.92 0 00-1.57-2.55c-.82-.76-1.76-1.37-2.54-2.18s-1-2.07-1.58-3c-2.3-3.47-6.69-4.56-9.37-7.64-.46-.53-1.22.24-.77.77zM297.38 350.4q.51 2.07 1.17 4.08a.56.56 0 00.67.38.54.54 0 00.38-.67c-.44-1.34-.83-2.7-1.17-4.07a.54.54 0 00-1.05.28z" fill="#565c63"/><path d="M294.43 342.73A8.25 8.25 0 01295 347a11 11 0 00.4 4.31c.24.65 1.3.37 1.05-.29a11.31 11.31 0 01-.34-4.45 8.6 8.6 0 00-.74-4.37c-.32-.63-1.26-.08-.94.54zM287.14 334.61c.71 6.42 2.48 12.77 6.54 17.91.44.55 1.2-.22.77-.77-3.87-4.88-5.55-11-6.22-17.14-.08-.69-1.17-.7-1.09 0z" fill="#565c63"/><path d="M291 348.69c0 2.27.12 4.71 1.5 6.61a.56.56 0 00.75.2.55.55 0 00.19-.75c-1.27-1.75-1.37-4-1.35-6.06a.55.55 0 00-1.09 0z" fill="#565c63"/><path d="M288.62 347.34c-.54 4.29 0 8.94 3.56 11.85.54.44 1.31-.32.77-.77-3.32-2.74-3.75-7.06-3.24-11.08.08-.69-1-.68-1.09 0zM291.44 336.77c-1-.55-2.74-1.15-3.16.43-.31 1.18.09 2.49 0 3.69 0 .71 1 .7 1.09 0a9.67 9.67 0 00-.35-2.5c-.12-.63-.35-1.62.29-2a.55.55 0 00.19-.74 2.1 2.1 0 00-1.55-.92.55.55 0 00-.55.54v1.41l.93-.38a6.7 6.7 0 01-2.08-2.82l-.91.53a4 4 0 011.11 1.51l.94-.55c-1.1-1.55-2.29-3.18-4.09-4-.63-.28-1.19.66-.55.94a9.47 9.47 0 013.7 3.57.54.54 0 00.94-.55 4.66 4.66 0 00-1.28-1.73c-.37-.32-1.12 0-.91.53a7.71 7.71 0 002.36 3.3.55.55 0 00.93-.39v-1.41l-.54.55a.91.91 0 01.61.38l.2-.75c-1.92 1.28-.34 3.72-.48 5.48h1.09c.07-1-.15-2-.09-3.06a1.45 1.45 0 01.09-.46c0-.05.08-.12.1-.12a.3.3 0 01.16 0 1.17 1.17 0 01.26 0 5.2 5.2 0 011 .43c.61.33 1.16-.61.55-.94zM295.08 233.19l-.08.46h1.05a2.51 2.51 0 00-1.37-1.64 2.63 2.63 0 00-.83-.23.55.55 0 00-.54.55.55.55 0 00.16.38.59.59 0 00.38.16h-.14a2.14 2.14 0 01.48.13l-.13-.05a1.79 1.79 0 01.42.25l-.11-.09a1.85 1.85 0 01.37.37l-.08-.11a2 2 0 01.25.43v-.13l.09.28a.55.55 0 00.52.4.69.69 0 00.28-.08.54.54 0 00.25-.32l.08-.46a.61.61 0 00-.05-.42.59.59 0 00-.33-.25.55.55 0 00-.67.38zM291.16 223.81l-.44.66c-.07.11-.15.21-.23.32l-.12.17-.06.07v.06l-.06.07c0 .06-.09.11-.13.16l-.25.31c-.08.1-.36.41-.55.61a.54.54 0 10.77.77 17.41 17.41 0 002.08-2.69.54.54 0 10-.94-.55zM289.87 220.19a6.75 6.75 0 01-2.33 4.13.56.56 0 000 .77.55.55 0 00.77 0 7.65 7.65 0 002.61-4.61.57.57 0 00-.38-.67.55.55 0 00-.67.38zM287.63 221.13L286 223a.54.54 0 00.77.77l1.65-1.86a.54.54 0 10-.76-.77zM286.74 216.84c.27 1.83-1.3 3.38-2.48 4.55a.54.54 0 00.77.77c1.52-1.52 3.09-3.31 2.76-5.61a.55.55 0 00-.67-.38.56.56 0 00-.38.67zM283.88 213.63a31.41 31.41 0 00-1 5.27H284a56.87 56.87 0 01.43-7.94.55.55 0 00-.54-.55.56.56 0 00-.54.55 55.38 55.38 0 00-.43 7.94.54.54 0 001.08 0 30 30 0 011-5 .55.55 0 00-1.05-.29zM281.23 295l.09 28.6h1.09a73.6 73.6 0 01-.52-10.28.55.55 0 00-1.09 0 73.6 73.6 0 00.52 10.28c.08.67 1.09.72 1.09 0l-.09-28.6a.55.55 0 00-1.09 0z" fill="#565c63"/><path fill="#a7aaaf" d="M216 329.83h64.36v26.06H216z"/><path fill="#878b8e" d="M214.39 283.15h67.58v11.05h-67.58z"/><path fill="#d3d3d3" d="M215.4 320.54h65.56v7.99H215.4zM214.77 293.36h66.82v24.53h-66.82zM213.82 250.72h68.73v32.45h-68.73zM213.06 223.65h70.24v8.08h-70.24zM212.94 215.57h70.49v7.28h-70.49zM213.34 238.17h69.68v8.94h-69.68zM213.34 233.7h69.68v3.41h-69.68zM212.33 183.8h71.7v1.54h-71.7z"/><path fill="#a7aaaf" d="M212.33 185.33h71.7v1.54h-71.7zM212.33 192.34h71.7v4.35h-71.7zM212.33 201.5h71.7v1.88h-71.7z"/><path fill="#878b8e" d="M212.33 203.38h71.7v1.88h-71.7zM213.82 247.11h68.73v3.61h-68.73zM215.55 328.58h65.26v1.25h-65.26zM214.86 317.89h66.65v2.65h-66.65z"/><path fill="#a7aaaf" d="M212.33 205.25h71.7v1.88h-71.7zM212.89 214.25h70.58v2.11h-70.58zM212.89 222.85h70.58v1.42h-70.58zM213.26 231.18h69.86v2.93h-69.86zM213.73 258.66h68.91v1.47h-68.91z"/><path fill="#c6c9ce" d="M213.73 261.89h68.91V263h-68.91z"/><path fill="#a7aaaf" d="M214.18 268.08h68v.73h-68z"/><path fill="#878b8e" d="M214.18 274.53h68v.73h-68z"/><path fill="#a7aaaf" d="M214.31 270.35h67.75v.73h-67.75z"/><path fill="#c6c9ce" d="M214.31 272.36h67.75v1.51h-67.75z"/><path fill="#c6c9ce" opacity=".19" d="M214.31 286.04h67.75v4.81h-67.75z"/><path fill="#878b8e" d="M213.26 237.18h69.86v1.45h-69.86z"/><path fill="#a7aaaf" d="M213.26 225.46h69.86v.71h-69.86z"/><path fill="#d3d3d3" d="M212.58 207.13h71.21v1.88h-71.21z"/><path fill="#878b8e" d="M212.33 196.7h71.7v4.81h-71.7zM212.78 209.01h70.8v5.24h-70.8z"/><path fill="#d3d3d3" d="M212.33 186.85h71.7v5.75h-71.7z"/><path fill="#a7aaaf" d="M214.77 313.26h66.82v3.41h-66.82z"/><path fill="#d3d3d3" d="M215.4 320.54h65.56v7.99H215.4z"/><path fill="#a7aaaf" d="M215.47 326.51h65.43v2.07h-65.43z"/><path fill="#d3d3d3" d="M214.57 355.9h67.23v7.99h-67.23z"/><path fill="#878b8e" d="M216.09 346.38h64.18v.96h-64.18zM216.09 348.87h64.18v.96h-64.18zM216.09 351.23h64.18v.96h-64.18zM216.09 353.03h64.18v.96h-64.18zM216.09 354.93h64.18v.96h-64.18z"/></svg>