<svg xmlns="http://www.w3.org/2000/svg" width="500" height="550" viewBox="0 0 500 550"><path d="M372.14 291.56q-.27 61.72-.62 123.46c-.81 9-2.68 16.41-3.55 25.44-1 10.07 1.34 17.05-1.5 25.63-.59 1.77-2 1.67-3.35 1.44-44.59-7.74-101.66-5.72-146.65-2.92-24.6.57-58.62-1.68-83 2.09-5.23.59-5.68.27-6.62-4.83-1.35-11.26 1.94-18.53.53-29.31-6.15-46.82-1.39-94.37-3.6-141.53-1.42 2.83-2.94 5.6-4.29 8.46-2.37 10.67-17.5 9.3-11.81 16.18 11.11 7.95 6.41 21.38 5.15 32.56-.25 3.15-1.35 6.27-.37 9.58.51 8.44-3.19 16.94-4.38 25.31-1.5 8-2.61 15.83-1.54 23.93a5.1 5.1 0 01-1.13 3.3c-5.71 6.28-7.75 14-9.19 22.06-.57 3.18-.61 3-3.74 2-12.38-3.52-26.09-4.38-38.6-1.18-1.39.34-2.11 0-2.41-1.47-2-7.76-2.18-16.67-8.49-22.43a6.62 6.62 0 01-1.33-3.22A144.41 144.41 0 0139 372.86c-1.91-63 2.6-126.93 26.19-186 13.61-35.43 24.56-73.32 48.07-103.67 27.32-18.2 60-23.76 90.46-34.78a3.16 3.16 0 012.72.43c5 5.55 11.46 8.41 18.56 9.67 19.19 2.43 41.29 5.55 58.65-4.88 2.85-1.27 4.2-6.53 7.87-5 29.12 10.49 61 14.41 87.44 31.58 15.94 14.59 21.63 38 30.45 57.21 27.81 67.48 58 137.39 51.05 212.08-1.19 18.65-.23 37.45-3.28 55.95-.49 4.66-5.21 7.1-5.56 11.78-1.22 5.28-2.08 10.65-2.91 16-.4 2.6-.41 2.83-3.08 2.33-12.48-2.66-25.26-5.49-37.8-1.58-8.34-.15-8.13-15.56-11.44-21.4-6.28-7.37-3.61-9-5.33-17.64-.9-9.7-4.68-20.27.79-29.26 2-3.53 1.86-7.05.51-10.66-4.9-11.28-7.4-23.41-10.45-35.29-1.07-4.3-1.31-8.49 1.61-12.34 1.51-7.23-10.43-8.68-10.93-15.93z" fill="#8e8e8e" stroke="#262521" stroke-miterlimit="10" stroke-width="3"/><path fill="#fff" d="M122.81 274.23l75.84-1.33.97 88.6h-75.85"/><path fill="none" stroke="#262521" stroke-linejoin="round" stroke-width="12" d="M122.81 274.23l75.84-1.33-.03 88.6h-74.85"/><path fill="#fff" d="M371.32 274.23l-75.84-1.33-.97 88.6h75.84"/><path fill="none" stroke="#262521" stroke-linejoin="round" stroke-width="12" d="M371.32 274.23l-75.84-1.33.03 88.6h74.84"/><path d="M193.57 51.86c-27.45 8.94-56 15.12-80.35 31.32-23.51 30.35-34.46 68.24-48.07 103.67-23.59 59.08-28.1 123-26.19 186a144.41 144.41 0 002.72 33.3 6.62 6.62 0 001.32 3.23c6.31 5.76 6.46 14.67 8.49 22.43.3 1.47 1 1.81 2.41 1.47a69.3 69.3 0 0123.49-1.65c-3-16.06-5.79-106-.53-143.88s32.24-150.6 56.58-176.64 61.69-37.08 66.17-39c-2.47-6.59-5.26-13.22-6.04-20.25zm215.8 85.56c-8.82-19.22-14.51-42.62-30.45-57.21-26.39-17.17-76.4-28.78-76.4-28.78s-5 17.51-8.51 25.11c.51.12 1 .24 1.53.38 11.52 3.22 51.26 16 72.09 41.87s60.27 132.9 60.83 196-4.54 90.62-4.62 117.37c7.28.33 14.56 1.91 21.75 3.44 2.67.5 2.68.27 3.08-2.33.83-5.36 1.69-10.73 2.91-16 .35-4.68 5.07-7.12 5.56-11.78 3.05-18.5 2.09-37.3 3.28-55.95 6.95-74.73-23.24-144.64-51.05-212.12z" fill="#262521"/><path d="M45.15 268.31c-4.95 29.06-6.28 40-6.33 69.56 3.34.25 73.79 13.51 74 10.36 1.26-11.18 6-24.61-5.15-32.56-5.69-6.88 9.44-5.51 11.81-16.18 1.35-2.86 2.87-5.63 4.29-8.46.11 2.34.2-8.82.2-8.82s-70.06-15.11-78.82-13.9zm336.72 51.43c2.64 10.29 4.88 20.76 8.61 30.71 4.25-.24 69.73-10.67 70.63-10.87 1.21-24.23-1.33-47.95-6.27-71.26-1.68-7.93-82.72 13.89-82.72 13.89v9.34l.41-.08c.5 7.25 12.44 8.7 10.93 15.93-2.9 3.85-2.66 8.04-1.59 12.34z" fill="#fff"/><path d="M391.81 365.69c2-3.53 1.86-7.05.51-10.66-4.9-11.28-7.4-23.41-10.45-35.29-1.07-4.3-1.31-8.49 1.61-12.34 1.51-7.23-10.43-8.68-10.93-15.93l-.41.09q-.27 61.72-.62 123.46m82.07-152.45c6.49 28.32 9.59 57.24 6.83 86.93M39 372.86c-1.91-63 2.6-126.93 26.19-186m62.22 245.7c-6.15-46.82-1.39-94.37-3.6-141.53-1.42 2.83-2.94 5.6-4.29 8.46-2.37 10.67-17.5 9.3-11.81 16.18 11.11 7.95 6.41 21.38 5.15 32.56-.25 3.15-1.35 6.27-.37 9.58" fill="none" stroke="#262521" stroke-linecap="round" stroke-linejoin="round" stroke-width="3"/><path d="M51.32 409.51S80 400 96.47 412m305.71 0s25.94-8.31 43.55 0m-312.28 26.85s155.28-12.31 227.71 2.37" fill="none" stroke="#636363" stroke-linecap="round" stroke-linejoin="round"/><path d="M121.8 180.84s2.11 28.62 0 44.25.11 29.7.11 32.87 1.9 33.07 1.9 33.07" fill="none" stroke="#262521" stroke-linecap="round" stroke-linejoin="round" stroke-width="3"/><path d="M194.62 56.1c2.77 14.3 15 50.28 52.49 50.23 39.57 0 51.53-38 53.68-50.23" fill="none" stroke="#636363" stroke-linecap="round" stroke-linejoin="round"/><path d="M204.38 48.27s4 48.55 43.67 46.73 42.85-45.4 42.85-45.4m80.43 139.06s5.79 47.28 0 75.34l.81 27.56" fill="none" stroke="#262521" stroke-linecap="round" stroke-linejoin="round" stroke-width="3"/><path fill="none" stroke="#262521" stroke-linejoin="round" stroke-width="12" d="M124.01 282.21l-78.86-13.9m66.92 83.43l-73.25-13.87m333.3-55.66l82.72-13.89m-64.31 81.88l70.7-13.39"/></svg>