<svg xmlns="http://www.w3.org/2000/svg" width="500" height="550" viewBox="0 0 500 550"><path d="M365.26 416.93s-1.72 60.44-5 62.62-151.41 0-167.06-3.27-53.13 5-57.87 4.15-5.46-10.89-3.64-18.53 1.37-45 1.37-45z" fill="#262521" stroke="#262521" stroke-linecap="round" stroke-linejoin="round" stroke-width="3"/><path d="M409.63 137.31c-8.83-19.21-14.52-42.61-30.46-57.2-26.38-17.18-58.31-21.11-87.43-31.59-3.68-1.53-5 3.73-7.88 5-17.35 10.48-39.46 7.3-58.65 4.88-7.09-1.26-13.56-4.12-18.56-9.67a3.13 3.13 0 00-2.72-.43c-30.43 11-63.14 16.58-90.46 34.78C90 113.43 79 151.32 65.41 186.75c-23.59 59.07-28.11 123-26.2 186a145.1 145.1 0 002.72 33.31 6.67 6.67 0 001.34 3.22c6.31 5.76 6.45 14.67 8.48 22.43.31 1.47 1 1.81 2.41 1.47 12.52-3.2 26.23-2.34 38.61 1.18 3.12.94 3.16 1.12 3.74-2.05 1.44-8 3.47-15.79 9.18-22.06a5.17 5.17 0 001.14-3.3c-1.07-8.1 0-16 1.53-23.93l.12-.75c-.6-1.16-1.2-2.33-1.76-3.52-9.88-20.56-2.85-110.34 8.06-130 11.55-20.75 273.74 16.88 276.58 27.45 5.9 21.89 4.6 97.42-1.11 111.24.39 2.5.8 5 1 7.41 1.72 8.67-1 10.26 5.32 17.63 3.31 5.85 3.11 21.26 11.45 21.4 12.54-3.9 25.31-1.07 37.79 1.58 2.67.51 2.68.28 3.09-2.32.83-5.36 1.69-10.73 2.91-16 .35-4.69 5.07-7.12 5.55-11.78 3.05-18.51 2.09-37.3 3.29-56 6.97-74.65-23.21-144.56-51.02-212.05z" fill="#262521" stroke="#262521" stroke-linecap="round" stroke-linejoin="round" stroke-width="3"/><path d="M335.33 107s-56.5 5.59-169-1.49c-33.08 11.82-43.71 188.29-42.3 185.47 2.21 47.15-2.55 94.71 3.6 141.53 1.42 10.78-1.87 18.05-.52 29.31.94 5.1 1.39 5.42 6.62 4.82 24.34-3.76 58.37-1.51 83-2.09 45-2.79 102.07-4.81 146.65 2.92 1.36.24 2.77.34 3.35-1.43 2.85-8.59.53-15.56 1.5-25.63.87-9 2.74-16.47 3.55-25.45q.3-61.71.62-123.46l.41-.08C373 294.31 361 122.82 335.33 107z" fill="#b5b5b5"/><path d="M204.39 51.38c.81-.26 4.45 39.77 42.44 41.81s45.37-41.58 45.37-41.58" fill="none" stroke="#636363" stroke-linecap="round" stroke-linejoin="round"/><path d="M364.81 101.51c-26.38-17.18-38.23-19.71-67-27.2-4.21 1.54-11.4 31.69-49.06 31.69s-50.9-33.89-51.7-33.63c-30.43 11-41.72 10.74-69 28.94-23.5 30.35-70 164.56-69 261.33 0 5.22-1.09 35.28 2.43 39.61S106 404 106 403.45c-1.07-8.1.88-12.46 2.38-20.43 1.19-8.37 4.89-16.88 4.39-25.31-1-3.31.12-6.43.37-9.58 1.25-11.18 6-24.61-5.16-32.56-5.69-6.88 9.45-5.51 11.82-16.19 1.34-2.85 2.87-5.63 4.28-8.45 1.16 24.64.41 49.39.31 74.09 10.2-24.56 27.65-74.33 25.8-123.59-2.59-69.16-22.37-169.82 98.13-108.81 112.56-65.42 100.86 39.65 98.27 108.81-1.83 48.71 15.22 97.93 25.46 122.77q.18-36.37.35-72.75l.41-.08c.51 7.25 12.44 8.69 10.93 15.93-2.92 3.84-2.67 8-1.61 12.33 3.06 11.88 5.55 24 10.45 35.3 1.36 3.61 1.51 7.12-.5 10.65-5.48 9-2.7 31.59.17 40.9 1.89 6.13 39.75 1.1 42.07-1.94s2-44.41 3.2-63.07c6.94-74.68-56.77-225.37-72.71-239.96z" fill="#fff"/><path d="M123.94 354.64c10.44-25.15 23.28-64.73 21.39-115.17-2.65-70.81-20.4-173.87 103-111.4 115.25-67 105.78 40.59 103.12 111.4-1.87 49.88 9.69 86.14 20.17 111.58" fill="none" stroke="#b5b5b5" stroke-linecap="round" stroke-linejoin="round" stroke-width="1.02"/><path d="M396.09 412.59c-6.27-7.37-3.6-9-5.32-17.64-.9-9.7-4.69-20.27.79-29.26 2-3.53 1.86-7.05.51-10.66-4.9-11.28-7.4-23.42-10.46-35.29-1.06-4.31-1.31-8.5 1.62-12.34 1.5-7.23-10.43-8.68-10.94-15.93l-.41.08q-.25 61.74-.61 123.47c-.82 9-2.69 16.41-3.56 25.44-1 10.07 1.35 17.05-1.5 25.63-.58 1.77-2 1.67-3.35 1.44-44.58-7.74-101.65-5.72-146.65-2.92-24.59.57-58.61-1.68-83 2.08-5.23.6-5.68.28-6.62-4.82-1.35-11.26 1.94-18.53.52-29.31-6.15-46.82-1.39-94.37-3.6-141.53-1.41 2.83-2.94 5.6-4.28 8.46-2.37 10.67-17.51 9.3-11.82 16.18 11.12 7.95 6.41 21.38 5.16 32.56-.25 3.15-1.35 6.27-.37 9.58.5 8.44-3.2 16.94-4.39 25.31-1.5 8-2.6 15.83-1.53 23.93m15.52-226.21s2.11 28.62 0 44.25.11 29.7.11 32.87 1.9 33.07 1.9 33.07m247.52-102.37s5.79 47.28 0 75.34" fill="none" stroke="#262521" stroke-linecap="round" stroke-linejoin="round" stroke-width="3"/><path d="M133.45 438.85s155.28-12.31 227.71 2.37" fill="none" stroke="#636363" stroke-linecap="round" stroke-linejoin="round"/></svg>