<svg xmlns="http://www.w3.org/2000/svg" width="500" height="550" viewBox="0 0 500 550"><defs><clipPath id="a"><path d="M372.14 291.55q-.27 61.74-.62 123.47c-.81 9-2.68 16.41-3.55 25.44-1 10.07 1.34 17.05-1.5 25.63-.59 1.77-2 1.67-3.35 1.44-44.59-7.74-101.66-5.72-146.65-2.92-24.6.57-58.62-1.68-83 2.09-5.23.59-5.68.27-6.62-4.83-1.35-11.26 1.94-18.53.53-29.31-6.15-46.82-1.39-94.37-3.6-141.53-1.42 2.83-2.94 5.6-4.29 8.46-2.37 10.67-17.5 9.3-11.81 16.18 11.11 7.95 6.41 21.38 5.15 32.56-.25 3.15-1.35 6.27-.37 9.58.51 8.44-3.19 16.94-4.38 25.31-1.5 8-2.61 15.83-1.54 23.93a5.1 5.1 0 01-1.13 3.3c-5.71 6.28-7.75 14-9.19 22.06-.57 3.18-.61 3-3.74 2-12.38-3.52-26.09-4.38-38.6-1.18-1.39.34-2.11 0-2.41-1.47-2-7.76-2.18-16.67-8.49-22.43a6.62 6.62 0 01-1.33-3.22A144.46 144.46 0 0139 372.86c-1.91-63 2.6-126.93 26.19-186 13.61-35.43 24.56-73.32 48.07-103.67 27.32-18.2 49.66-20.4 80.09-31.43.81-.26 5.74 54.58 53.74 54.58s54.74-54.58 54.74-54.58c29.08 10.48 50.7 11.24 77.09 28.45 15.94 14.59 21.63 38 30.45 57.21 27.81 67.48 58 137.39 51.05 212.08-1.19 18.65-.23 37.45-3.28 55.95-.49 4.66-5.21 7.1-5.56 11.78-1.22 5.28-2.08 10.65-2.91 16-.4 2.6-.41 2.83-3.08 2.33-12.48-2.66-25.26-5.49-37.8-1.58-8.34-.15-8.13-15.56-11.44-21.4-6.28-7.37-3.61-9-5.33-17.64-.9-9.7-4.68-20.27.79-29.26 2-3.53 1.86-7.05.51-10.66-4.9-11.28-7.4-23.41-10.45-35.29-1.07-4.3-1.31-8.49 1.61-12.34 1.51-7.23-10.43-8.68-10.93-15.93z" fill="none"/></clipPath></defs><path d="M372.14 291.55q-.27 61.74-.62 123.47c-.81 9-2.68 16.41-3.55 25.44-1 10.07 1.34 17.05-1.5 25.63-.59 1.77-2 1.67-3.35 1.44-44.59-7.74-101.66-5.72-146.65-2.92-24.6.57-58.62-1.68-83 2.09-5.23.59-5.68.27-6.62-4.83-1.35-11.26 1.94-18.53.53-29.31-6.15-46.82-1.39-94.37-3.6-141.53-1.42 2.83-2.94 5.6-4.29 8.46-2.37 10.67-17.5 9.3-11.81 16.18 11.11 7.95 6.41 21.38 5.15 32.56-.25 3.15-1.35 6.27-.37 9.58.51 8.44-3.19 16.94-4.38 25.31-1.5 8-2.61 15.83-1.54 23.93a5.1 5.1 0 01-1.13 3.3c-5.71 6.28-7.75 14-9.19 22.06-.57 3.18-.61 3-3.74 2-12.38-3.52-26.09-4.38-38.6-1.18-1.39.34-2.11 0-2.41-1.47-2-7.76-2.18-16.67-8.49-22.43a6.62 6.62 0 01-1.33-3.22A144.46 144.46 0 0139 372.86c-1.91-63 2.6-126.93 26.19-186 13.61-35.43 24.56-73.32 48.07-103.67 27.32-18.2 60-23.76 90.46-34.78a3.16 3.16 0 012.72.43c5 5.55 11.46 8.41 18.56 9.67 19.19 2.43 41.29 5.55 58.65-4.88 2.85-1.27 4.2-6.53 7.87-5 29.12 10.49 61 14.41 87.44 31.58 15.94 14.59 21.63 38 30.45 57.21 27.81 67.48 58 137.39 51.05 212.08-1.19 18.65-.23 37.45-3.28 55.95-.49 4.66-5.21 7.1-5.56 11.78-1.22 5.28-2.08 10.65-2.91 16-.4 2.6-.41 2.83-3.08 2.33-12.48-2.66-25.26-5.49-37.8-1.58-8.34-.15-8.13-15.56-11.44-21.4-6.28-7.37-3.61-9-5.33-17.64-.9-9.7-4.68-20.27.79-29.26 2-3.53 1.86-7.05.51-10.66-4.9-11.28-7.4-23.41-10.45-35.29-1.07-4.3-1.31-8.49 1.61-12.34 1.51-7.23-10.43-8.68-10.93-15.93z" fill="#f4f4ed" stroke="#262521" stroke-linecap="round" stroke-linejoin="round" stroke-width="3"/><g clip-path="url(#a)" fill="#262521"><path d="M365.34 245.93c3.44-5.13 4.06-11.35 5.67-17.22-11.58 1.59 6.41-29.27-2-40.49-3.29-3.76.13-10.6-6.2-11.76h-.07c2.6-8-5.34-25-15.5-25.08-1-.38-3.12-3.91-4.88-4.6-.73 3.9-3.72 3.2-7.37 2.23 11.23 11.31 21.72 21.23 24.5 36.53 2.33 10.36 9 22.2 4.43 32.46-6.32 1.65 4.19 7-1 23.32a42.94 42.94 0 002.42 4.61zm-6.14-71.08c0-2-3.21-4 .15-6.33l3.37 8c-2.17 1.36-3.54 1.12-3.52-1.67zm11.85 207.64V372.3c-2.83-.52-8.15-6.73-9.79-2.33a2 2 0 01-1.55.85c-5.11-3.47-12.71-.8-17.51-4.74-15.36-8.7-30.19-18.9-47.48-24-6.56 2.63-14.65-5.42-19.85-.18 13.85 11.28 27.81 6.51 40.62 14.59 3.93 1.76 7.68 4.07 11.39 6.18.64 4.87 5.94 3.77 8.76 5.83 1.81 1.2 4.23 3.76 6.41 3.69 4.84-2.08 8.61 1.51 12.77 2.3 4.28 1.6 7.6 8.32 11 11.82l1.34-.81c-1.52-2.66-3.88-5-4.09-8.13a9.62 9.62 0 017.98 5.12zM54.17 264.61c2.57 1.56 4.18 3.88 10 2.39 5.45.89.62 4.33 10.09 2.8 6.19-.91 4.88 3.21 15.8 3.33 6.69.21 2.51 1.24 5 2.64 5.89-.4 7.88 2.14 12 4.14 4.92.26 9.92 1.09 14.91.6a88.71 88.71 0 01-.32-9.51c-6.78-1.05-14.22-2.07-20.48-4.1l-.23.1v-.2a7.28 7.28 0 01-1.45-.89A37.72 37.72 0 0183 261.23c-4-2.1-10.8-2.19-13-5.11-1.7-1.33-.21-5.44-5.17-3.47-4.76 1.83-5.63-3.14-8.82-4.2-14.17.11-29.47 19.76-23.45 25.11 1.44-3.22 13.51-10.32 21.61-8.95zM117.4 286c.53.76 2.61 1.17 2.24 2.16a7.79 7.79 0 013.24.83 60.2 60.2 0 01-.41-6.3c-2.09-.07-6.78.64-5.07 3.31z"/><path d="M114.81 306.23c4.14-.86 7.8-12.09 8.19-16.3-1.42.73-3.52.09-4.7-.25a2.55 2.55 0 01-.21.28c-3.92-1.11-10.51.45-13.61-.72s-6.31-1.6-9.24-2.47C88 285 78.91 285.48 73.11 282.3c.15-4.63-13.89-.49-13.45-5.4-.08-.66-4.1-1.16-4.87-1.52-1.15-3.18-3.32-1.24-5.5-.21-8.77-.49-14.07 10.73-11.38 16.45 3.26-1.19 6.85-2.16 9.39-3.77 2.33 1.62.15 4.86 6.17 3.79a5.12 5.12 0 014.64 1.22c5.66 4.58 19.92 3.74 29.91 3.7 1.28-.09 3.84.47 3.82.76-.12 2.12 4 2.55 5.5 3.86 3.6 3.34 12.59 3.49 17.47 5.05z"/><path d="M39.5 311.31c3.9 2 1.67-.18 4.69-1.1 3.59 1.51 2.12 4.18 5.93 5.66 6.89-3.66 10.5 1.33 17.63 1.72 11.3 1 22.62.08 34.17.73 1.53 1.8 6.91 2.88 10.54 4.2-.5-4.71-9.44-6.63-5.64-11.54-5.63.36-11.85-.4-13.14-3.23-4.8.9-8.12-2.23-13.08-.87-3.71 1.46-2.09-1.19-5.17-1.08-8.67.39-23.72 2-26.56-7.74-2.6-11.7-19.37 8.66-9.37 13.25zm73.65 27.89c-14.84.34-39.46-1.14-48.4-7 4.43-.74 10.78-.28 14.78.28 1.43 2.34 5.32 1.28 8.31 1.58 9.37.82 15.16 4.28 25.33 4.73.18-3.82.35-7.64.48-11.46-3.51 1.86-6-1.66-9.76-.87-6.45 1.74-11.17-.31-17-1-3.4-.26-1.58-3.22-5.14-1.33-4.2 1.83-19.41-4.8-28.62-4.54-3.74-.76-9.75-4.35-12.53-.95-3 4.36-7.33 8.67-4.83 13.54 2.62-.77 2.59-2.8 7.37-2.88 3.61 0 3.16.83 2.48 1.26-6.44 7-14.15 5.53-9.07 13.58 3-2 2.62-5.32 8.62-5.41v.05c5.39-1.65 7.58 2.06 7.11-2.52 14.06 7 27.18 3.72 26.37 6.61-.17 1-.3 1.6-3 1.1-2-.15-6.14-.17-6.78 1.26a7.08 7.08 0 001.88.37c5.62-1.76 7.43 2.18 12.07 2.66 22.44 5.54 26.61.81 29.59 9.82.13-6.27.44-12.58.74-18.88zm-13.55 5.69c-4.44-1-9.25 1.56-13.23-.62-1.85-.42-4.72-.3-6.46-1.13 1.42-1.06 3.57-2.23 6-1.37 5.19 3.48 25.58 0 25.37 4-.84 4.23-8.21-.11-11.68-.88zm6.8-79.53c4.93.77 10.11 1.25 15 2.22 0-1.65-.57-3.45-.13-5-1.84-.33-6-.66-5.77-.95-1.17-3.15-6.75-1.9-10.17-2.62-8.06-.81-13.7-4-23.54-3.36 9.84 6.85 15.63 4.44 19.06 7.65 1.9.63 3.7 1.37 5.55 2.06z"/><path d="M35.49 251.88c4.36-1.57 16.28-13.17 21-8.47.34.25 3.35-.42 5.17-.66 1.59 1.1 2.88 2.84 5.4 3.54 5 .71 7 7.48 11 6.31 4-1.89 8-.9 12.05-.43 4.13 1.17 10.78-.43 12.61 2.19 4 1.63 12.12 1 13.93 4.33a3.25 3.25 0 001.72.57c.43-.55 1.68-.29 2.42-.21-.1-3.46 0-6.94 0-10.41-14.66-2.85-30.29-4.84-43.41-11.45-5.38 1.45-4.81-1.16-6.51-2.24-6.06-3.29-10.81-7.49-12.84-11.88 10.36.07 17.84 4.84 26 7.31C91.33 232 102 228.79 107 233a116.47 116.47 0 0114.29 4.9c.59-4.39 1.45-8.75 1.1-13.22-2.44-1.13-6.45.27-9.11-.27-2.25-2.44-8.37-3.52-8.68-6.64.28-3.32-2.31-2.1-6.94-1.07-6.62-.91-14.08-1.2-16.91-4.66-3.86-2.53-12.64-3.06-15.26-6.08-5.12-1.47-4.49-5.43-2-7.47 1.32-.07 3.79.27 3.85.59.47 2.79 6 3.24 8.27 5.23 11.64-6.69 15.34 3.35 28.21.93 3.88-.22 7.73-.71 11.61-.89 4.75 1.27 9.82 1.95 8.2-1.8-4.06-2.67-19.17-16.17-23.28-7.47 3 1.51 3.16 4.27 8.12 5 .61 1.46-4.93 1.45-6.36 1.17-15.3-2.58-3.11-10.79-16.11-10.16-9.79-4.8-17.14-2.68-22.24-9.65-2.19-1.44-31.14 57.39-28.27 70.44zm336.41 90.36c-4.31-1.66-9.55-3-12.29-7v.74c-5.65-7.49-12.88-16.21-23.5-15.79.23.71.4 2 .71 2.05 4.46.39 5.34 4.39 8 6.57-17.79-.82-31.58-15-49.58-12.44-3.4.88-4.14-2.31-6.86-2.77-1.64.15-2.7.44-1.34-1.67.89-1.37-.57-2-1.7-1.33-2.71 1.56-11.63-1.89-12.17-4.69-4 2-5-3.18-8.26-3-11.8-9.05-12.1-3-16.66 6.61-3.38-1.54-8.48-4.35-12.59-4.26-3.5 3.87-8.91-1.63-12.64 3-5 3.19-11.83-1.92-15.26 4.82-5.81 7.33-16.93.84-21.92 8.88-.48.55-1.43 1.27-2 1.16-6.32-1.27-8.38 5.42-13.6 6.12-1.27 4.56.91 2.39 4 2.75a35.38 35.38 0 00-1.94 3.9c-13.22 5.37-30.19 8.32-38.66 19.76-1.35-6.59-1-6.39 3-12.23 4.17-4 1.55-15.39 9.64-14.51.68.15 1.95-.89 2.51-1.65 2.8-4.95 8.76-5.2 13.18-8.43 6-2.79 13.74-.33 18.61-4.79 1.2-1.42 3.25-2.15 5.88-1.63 4.2 1.06 9.37-5.66 12.43-.7 3.74 4.58 3.56-5.77 9-4.89 3.69-.76 7-6 11.41-3.24a3.28 3.28 0 002.93-.7c3-5 9.92.39 13.77-4.21 9.19-1.59 8.3-9.12 12.18-15.06 2.52 2.67 4.72 5.47 7.58 7.88.57-1.77 1.24-3.85 1.92-5.93h.95c3.86 18.47 6.23 4.28 11.79 11.73 3.46 6 10.39.95 13.56 5.56a2.27 2.27 0 001.75.47c3-3.46 6.95-1 10.41-1.41 1.76-.19 3.95-.56 4.36 2.12 8 .58 7.35 3.56 16.05.46 1.1 4.35 5.27 2 7.85 2.94 36.12 5.76 27.91 27.1 47.47 32.67-.08-2.41-.14-4.83-.2-7.25-6-1.24-10.76-6.47-13.85-11.13-8-9.87-18.47-16.53-30.45-22l.24-.91c4.13.35 8.24 1 12.39.64.61 2.2 1.94 3.48 4.55 4.12 12.37 5.48 13.77 23.35 27.07 27.16q-.1-5.55-.13-11.1c-12.12-5.89-16-21.92-31.53-20.28-5.26-3.2-.14-5.86-10.18-5.6-2.32-.08-5.62-1.78-6.44 1.34-1.35 3.91-4.34-1.27-7.41-.12-.74-5.35-12.83-3.64-17.2-4.17-8.65-.37.65-9.76-11.55-3.29 10.08-13.47-22.65 8.62-25.9-19.67.42-4.09-3.26-5-6.42-3.53 0 3-4.18 3-4.7 5.59-.1.49-1 1.32-1.3 1.24-5.11-1.39-6.46 3.14-9.48 5-4.76 4.33-11.45 1.41-17.35 1.88-3.19-.88-3.86-5.53-6.43-7.62.47-.17 1.84-.28 2.35-.95 3.28-4.09 9.83.5 12.24-4.86 2.12-2.06 7.55.57 9.32-2.74 1.57-2 4.68-2.69 6.7-4 1.77-1.89 3.16-3.3 4.63.15a1.81 1.81 0 001.49 0c10.3-11 3.3 4.09 12.36 2.42 8.72 1.22-1.06 8.28 21.78 7.94 10-.88 11.46 12.21 22.06 12.36 4.14.91 10.14.6 13.27 3.24.53 7 6.3-1.65 8.43 2.48 27.34 5.78 22.81 17.29 41.76 26.85-1.17-9.6.25-19.25.42-28.88-4.55.45-7.78-4.26-10.7-7.15a10.54 10.54 0 01-.29 1.71c-3.05-2.31-6.57-3.9-7.91-7.66-.24-.58-1.85-.94-2.84-.95-2.31 0-4.2-.31-4.52-2.93-4.15-4.21-12.48-11.5-18.87-7 4.07 5.88 12.32 7.77 17.59 12.29.52 1.15.69 2.38 2.4 1 5.48 1.92 42.48 40.72 6 17.44-5.28-6-9.42-12.42-16.86-16.63-5.36-4-9.5-9.42-16.19-11.62-4.8-1.36-10.39-1.73-14.17-5.22-6.17.83-9.07-4.83-14.19-6-2.21.38-15.11-4.39-15.53-6.16 3.2-3.89-5.62-2.13-7.82-3.7a2.3 2.3 0 01-1.14-1.7c-.53-5.83-5.41-1.07-7.28-7.21-5.65 1.51-3.26 5.84-7.86 1-.47 3.65-4.81 3.7-5.42 7.1-.08.9-1.1 1.52-2.79 1.83-4.44-.05-11.06 8.55-14.15 4.63-.47-.51-4.34-1-5.53 1.67-5.5 4.06-12.91 6.24-19.13 9.47-4.63 1.18.83-6.6 3.85-4.9 3.88.77 4.79-3 7.67-3.51-.27-1-.17-2.55-.86-2.95-6.47-3.57 1.93-13.23 6.72-11.86 8.27.49 15-5.44 22.39-6.88 2.89 3.79-2-9 10.6-8.6 6.1-3.33 5.57 7.73 11.32 3.94 7-3.19 3.11 5.73 10.93 4 1 .05 2.74 0 2.87.35 1.78 4.67 7.37 3.48 10.71 5.65 2.15 3.46 6.34 4.75 9.07 7.22 5.53 5.3 13.22 4 19.17 7.15 3.07 4.85 9.35 4.16 14 5 4.34 3.57 10.82 2.21 15.13 5.55 4.52 4.53 11.5 9.36 12.76 15.58 3.27 2.56 5.43 6.7 9.59 8a10 10 0 011-4.35c-13.13-8.76-16.75-25.01-30.07-33.62-3.39-3.92-9.35-2.47-12.25-6.34-3.26-4.35-7.69-7.52-12.29-10.56-3.4-4.31-.7-7.51-8.33-8.87-3.89-1.45-5.7-5.11-10.53-6-3.61-1.06-5.11.49-7.05-3.83-3.6 2.82-2.85-2.8-9.45-1.06 3.76 3.21 6 6.93 10.67 8.33 10 5.68.09 7.1-2.36 5.76-3.83-2.53-6.93-6.44-10.68-8.93-4.19 1-4.83-3-7.27-4.43-1.4-2-.58-7.59-4.8-4.74-1.72 2.2-2.16 1-3.47-.43-3.09-6.29-6.5-.57-5.94-6.47-7.3 1.45-10.95 9.53-16.37 13.95-2.32 8.85-3.2 4-8.91 5.42-4.48 2.82-4.27-2.33-7.6 4.54-4.9 2.87-7.12-.46-10.29 5.93-3.4-2.68-3.28 1.56-5 2.15-3 2-7.63.46-8.88 4.47a1.79 1.79 0 01-1.47.84c-5.78-2.19-8.91 4.55-10.76 2.4-2.71-.29-5.12 2.63-7.62 3.56-2.91.71-5.38-.7-8.32 1.15-4 1-5.64 5.21-9.56 5.18-6.16-2.14-6.83 3.31-11.46 4.91-2.2.7-4.8.77-5.25 3.63-2.64 2.26-4.47-1.51-6.75 5.29-.76 3.95-4.14 6.35-5.89 9.88-.35 5.15-6.46 7.69-10.36 9.8-1.32 8 10.43.42 12.55-2.1a3 3 0 01.88-1.56c4.09-3 4.69-7.95 8.32-11.37 2.24 2.39 3-.53 4.34-1.12 4.85-3.74 11.34-4.3 17.07-5.93 3.22 1.82 5.66-1.25 8.59-1.07 1.36-3.8 5.93-.45 8.15-3 .43-.51 3.42.83 5.23 1.32-1.61 2.6-2.29 5.62-6.25 5.33-7 1.72-12.73 5.28-20 4.11-.81 0-2.08.21-2.34.69-1.61 3-4.79 3.8-7.8 4.69-7.3 1.1-8.52 7.63-15.42 9.89-.79.6-12.33 7.45-13.08 8.1.16 3-.8 5 .44 7.86 4.74-3 18.52-13.8 22.59-17.21 4.61 1.13 6.82-3.59 10.91-3.8 5.9-5.64 7.41-5.2 15.32-6.9 9.17-4.55 19.62-4 28.63-8.63 0 .78.1 1.37 0 1.41-4.76 1.61-7.53 6.94-14 5.6-4.65-1.07-8.9 2.67-12.53 5.07-11.07 5.34 8 10.37-16.74 13.08-1.72 2.09-4.07 1.74-6.41 1.67-1 3.45-4.91 3.15-7.27 4.86-14.19 5.94-18.5 17.18-20.47 29.25-.36 7.58 22.05-11.47 26.37-11.47l.58.57c-30.65 32.47-13.18 11.17-21.26 46.63.18 3.88-4.27 7.14-5.63 10.65-.86 2.19-.36 6 0 8.32.11-1.74 2.71-4.16 4.34-4.95 4-5.38 6.88-11.24 12.7-15.55.68-4.29 5.75-3 8.44-5.48 6.5-5.92 17.65-4.77 22.26-12.87 3.94-1.49 8.54-1.33 12.47-2.3 3-3.38 7.16-3.1 11.16-3.1 6.7 1.07 6.75-5.32 11.68-4 4.09 4.58 6.25-2.65 10.45-1.35 1.36.32 3.39-1.13 4.42-1.35 4.56 3.14 6.61-3.27 10.95-1.52 4.78 2.66 5.34-3.28 9.24-3.43 1.62-.42 4.22.83 4.84-2.1.21-1 8.88-1.45 9.18-.55.39 1.2.5 3.19-.27 3.87-7.68 10.4-20.55.27-22.8 8.22 0 .42-1.08 1.15-1.61 1.12-7.49 0-13.05 5.47-20.2 7.09-5.57-.8-12.43-1.94-17.17 2.31 1.46 1 3.06 3.51 5.14 2.34 2.18-2.56 24.13-2.18 26.92-.24-8.86 5.08-21.08 2.85-30 7-2.32 2.48-5.34 3-8.4 3.64-1.89 7.71-13.07-1-12.74 12-5.71-5.42-17.91 7.4-28.79 5-6-.68-1.76 7.4-7.6 7.38.11-1.39.22-2.79.35-4.18-4.55-.77-10.57 4.28-14.64 6.35-.17.06-.56 8.75 0 9.93 5-4.24 22.28-9.61 28.27-12.51 3.71-1.78 7.41-4.07 11.78-4.2 10.54-4.44 21.5-10.71 31.76-16.12 9.52-.47 18.63-7.36 28-8.16 4.35.55 6-3.79 9.85-3.54.7 0 1.79-1.27 2.21-2.15 4.45-6.84 16.51-14.17 24.74-10.4a19.84 19.84 0 002.46-2.14c5.37 4.6 12 10.91 20.3 8.57.91-.26 2.81-.05 3 .37 2.33 4.38 19.41 2.1 23.72-.42-2.73-1-5.2-2.7-7.57-2.59-7.36.55-13.35-3-20.21-4.18-2.45-.79-5.36-1.06-6.24-4-3.68-.89-5.52-2.87-8-6.29 5.23-.11 6.93 4 11.78 3a1.43 1.43 0 011.18.28c3 4.39 8.34 2.2 12.3 4.34 8.05 6.82 15.31-.06 18 4 16.86-2.33 27.78 14.76 41.51 21.54 8.46 6.33 5.43 11.76 19.44 16-.56-9.13-.99-18.22-1.29-27.3zM219.59 291c2.67.47 11.57-1.83 11.39 1.23a13.69 13.69 0 01-2.15 1.34c-4.38-.17-7 .45-10.41-.44.39-.79.73-2.13 1.17-2.13zm86.57-20.38c3.74 2.91 8.6 2.71 12.73 3.12 4.32.44 7.6 4 12.14 2.78 3.73 2.26 7.15 5.23 10.77 7.74l-.81.84c-9.13-2.65-18.38-7.21-27.74-8.51-5.3.63-7.46-3.24-10.81-6.05 1.26-.05 2.98-.54 3.72.03zm-3.48-46.68a36.82 36.82 0 014.32 2.54l-2.54 3.51c-.88-1.99-5.41-4.94-1.78-6.1zm-94.82 19.83l2.7 1.9-3.37 3.11c-2.43-1.7-.35-2.85.67-5.06zm-11.72 59.94l3.32-2.11 3.77 1.29c-1.23 4.93-3.93 2.85-7.09.77zm5-20.44c-.11-2.74 8.29-3.19 10.56-2 .66.32 2-.51 3.43-.95-1.32 3.55-11.47 6.02-13.97 2.9zm12.58-19c1.73-2.13 3.77-1.58 5.85-1.26-3.42 3.06-9 7.35-12.27 1.83 1.92-.06 4.97.42 6.44-.58zm-25.68-18.13c5.32-7.78 13.58-1.95 1.69.63zm6.78 11.75c-8.77-4.55 4.83-5.1 6.8-8.23.57-.61 2.16-.39 3.29-.54-1.46 4.28-6.58 5.8-10.07 8.76zm7.62 15a33.42 33.42 0 016.11 1.86c-6.12 6.74-16 4.3-24 7.17-1.41.39-3.57-.38-5.18-.32 5.44-5.67 16.04-4.9 23.09-8.75zm-51.88 26.64c-2.36 3.31-7 3.37-9.85 5.8-1.42 1.2-9.42 8.09-11.27 6.41-2.22-2 7.34-7.7 8.91-8.91 2.86-2.25 5.68-5.55 9.23-6.68 10-2.1 18.87-6.62 29.48-6.05 3.21-2.85 16.81-6.31 20.17-4.2-3.47 2.14-8.12 1.52-11.19 4.88-2.66 2.25-8.44 0-10.15 3.88-.23.56-1.93.62-3.27 1-3.41-1.85-3.28-2.22-6.32.2-3.74 2.37-11.3 4.89-15.72 3.63zm31.84-.07c-1.92 1-2.6 2.89-5.15 1.72-1.88.43-4.73 1.92-7.15 1.77.29-2.8 9.9-5.2 12.32-3.53zM167 305c-.29 2.42-8.71 3.78-10.39 2 1.38-2.58 4.41-2.09 7-2.56v.22a7.86 7.86 0 013.39.34zm-6.51 4.72c7-1.82 14.55-3.14 21.55-5 1.7-1.8 13-4.22 12 .1-.36 1-.47 3.09-3 2.15-6.54.36-13 3.63-19.8 4-4.82.37-17.36 9.39-20.49 6.6.59-2.71 6.42-7.85 9.78-7.9zm-25.46 21.45c3.27-2.49 5.58-6.88 9.84-7.78-.95 6.45-10 10.84-10.54 18.27l-.65-.17c.51-3.42-1.28-7.65 1.39-10.37zm91.21-12c-3.87-.88-4.43-4.41-.24-3.83 1.48.28 4.14-1.25 4 1.63 0 .63-2.2 1.26-3.72 2.11zm120.24 23.06c-4-2.79-7.53-6.1-12-8.2l.58-.84c5.83.8 12.73 3.75 14.05 9.53-.87-.24-1.96-.14-2.59-.58zm2.69-8.17a6.54 6.54 0 01-4.14-5c2.39.18 6.82 2.83 4.18 4.94zm14.27 22.53c-3.06-1.55-2.28-4.25-2.25-6.94l.88-.18c1.71 2.31 3.82 4.28 1.41 7.03z"/><path d="M129.55 270.06c-.34 1.89-5.25 5-5.88 6.8 1.87-1.28 7.68-.58 9-7 1-10.35 11.06-18.25 17.9-25.85 5.75-4.68 6.2-15.6 16-11.48 7 2.87 2.2-8.73 16.88-7.37 1.41 0 2.11.26 2.61-1.39.34-1.12 2-2.69 3-2.71 6.35-.32 11.71-3.77 17.69-5.25 9-3 15.44-12.73 25.51-11.73 1.74.49 4.3-2.32 6.64-2.6 3.42-.41 6.15-1.71 7.13-4.46 1.45-4.07 5.81-5.62 7.94-9 2.91-3.49 3.26 6.57 7.61 1.34.34-.38 1.16-.4 1.76-.59-.9 3.67 4.49 2.48 4.8 5.26a1.6 1.6 0 00.85 1.21c4.1 1.09 5.63 4.56 7.87 7.29 1 1.18 1.22 1.16 2.66.57 4.77-1.95 10.09-.63 15 .13.4.06 1.08.22 1.11.4 1 4.73 9.43 3.47 11.87 8.46 7.27 6.15 17 11.09 23.41 18.44 1.06 1.46 2.87 1.77 4.66 1.8-1.22-10.28-13.34-13.5-18.6-21.89-2.33-1.65-5.78-4.06-3.84-7.3 3-2-.26-2.93-1-3a183.1 183.1 0 01-31.3-16.46c-4-1.56-6.58-1.29-8.74-4.5-1.79-2-2.32-5.33-6.26-5.17-.28 0-.92-.85-.83-1.19.72-2.91-2.7-3.74-3.46-5.91-1.07-.53-3.19-1.24-4.12-2.41 4.7-6.46 17 3.14 22.83 5.15 5.69 7.28 16.53-1.86 21.66 6 3.93 1.15 7.63 4.51 10 7.67 6.69 1.19 8.34 12 13.8 16.47 5.95 1.21 9 7.36 10.6 12.35-.68 10 13.94 5.63 15.32 14.75a2.76 2.76 0 002.76 2.2 42.64 42.64 0 000-5.18l3.6 2.8c-1.14-8.3-6.05-16.67-4-25.47-2.13-3.35-1.62-7.62-5.19-10.62-5.57-5.86-9.66-15.22-17.8-18.3-1 3.17 3.32 4.46 2.7 7.67-4.77-.66-7.14-5.73-10.39-8.51-3.67.24-5.05-2.53-7.23-4.38-4.73-5.05-5.41.43-9.55-3.68-12.34-8.39 3.92-9.19-14.29-10.5a34.82 34.82 0 00-6.21 0c-5.07-.22-.29-7.65-9.28-6.11a3.08 3.08 0 01-2.28-1c-2.31-4.2-8 1.66-8.39-2.36-1.41-5.45-7.41 1.12-6.27-8.62 0-2.86.8-3.52 3.68-3.07 12.2.45 1.29 7.21 12.16 4.38 1.76 3.61 3.89 1.43 6.42.8 12.21-2.8 6.64 6.27 30 3.6 14.67 6-4.26-10.3-6.87-13.4-12.08-1.72-2.82 5.39.77 9-15.77 3.82-7.3-11.84-17.69-12.69-6.41-2-12.84-4.74-19.51-5.3-1.75-4.9-8.25-5.2-10.7-9.41a1.66 1.66 0 00-1.29-.38c-2 2.43-3-.83-4.48-.7-2.91.24-2-1.87-2.35-3.16-.43-1.65-1.07-1.88-2.56-.78-6.16 1.71-6.33-4.34-16 3.19-3 3.31-7.5 1.46-10.6 4.21-2.72 2.74-4.56 6.44-9.35 6.71-4.22 6.53-13.84-.93-17.21 6.61-1.15 2.18-1.89 5.23-5.69 5.5-1.29.56-2.15 4.18.44 4.44 6.52-.29 3.85-6.87 14.26-7 2.88-3.78 8.29-2.71 11.84-5 3.14 1.49 5.81 1.42 7.82-1.68 2.36-.06 4.52 2.84 6.19 4.28 6 4.26 6-6.2 12.16-5.94 3.38-.48 3.35-3.83 4-6.19.5-1.7 1-3.4 3-2.39 3.39 2.9.87 8.86-.81 12.12-4.34 7.63 10.89 11 4.42 18.68-2.11 1.92-6-.83-7.45 2.43-1.94.88-4.2 2.64-6.25 3.32-3.63.77-5.62 5.13-10.22 3.75-5.3-1.49-3.24 6.76-9.07 5.56-3.2-.48-8 3-10.94.75-3.47-5.6-6.66 8.32-14.45 4.44-1.89 1.86-6.11-.5-7 3.35a2.91 2.91 0 01-2.3 1.47c-13.19.05-20.74 12.2-28 20.28-6.23 7.47-2.47 19.66-8.46 27.82s-20.26 21.2-25.69 27.15c-1.27 1.6-.75 3.86-1.18 5.75 8-5.24 26.69-19.59 30.5-30 4.62-2.29 6.13-7.79 7.5-11.51 1.69-.27 4.68-.42 5.05.31 1.79 3.52 4.86.59 5.24.24 2.1-1.92 5.63-2.91 5.67-6.46a3.76 3.76 0 011.42-2.27c2.5-1.43 2.57-10.05-.62-9a11.26 11.26 0 01-8.39 2.77c-2.1 0-4.25 2.84-6.75 2.95-.72-5.78 10-4.6 10.78-8.83 0-2.58 1.34-2.39 3.21-1.89 3.43.56 6.2 2.55 9.13-.46 4.76-3.9 10.23-6.92 15.15-10.69 1.33 5.65 12.62 1 17.35 1.9 4.52-5 7.28 1 11.6 1.44-6 5.72-8.83-1.29-14.54 4.62-3.85 6-7.9 2.66-9.63 7.56-.91 2.65-1.44 3.61-4.88 3.26-.73 5.17-9.8 3.5-9.47 9.78 0 .58-3.15 2.15-4.27 1.78-6.25-2.86-8.56 16.73-12.71 12.55-2.24-2.53-4.43-2.19-6.4.67-6.12 6.46-13.83 12.44-18.07 20.13-.13 5.59-6.71 8.86-8.84 14.07-4.05 5.97-7.88 12.6-9.33 19.81zm208.34-87.37c7.7 5.79 12 17 11.16 25.73-.59-.44-1.6-.81-1.7-1.32-1.3-4.44-6.32-6.51-7.71-10.94-7.28-5.56-17.56-10.48-22.83-17.15 7.12-5.79 23.54 21.91 21.08 3.68zm-97.65-69.88c-1.26 1.94-3.94 2.94-5.88 4.26-1.51-3.24 1.14-6.85 5.44-6 .12.36.68 1.21.44 1.74zm-33.15 54.88c-1.14.74-3.51-1.17-3.84 1.48l-3.06-1.9c3-1.31 5.87-3.85 8.55-1.39a9.53 9.53 0 01-1.65 1.81zm24.91 5.94c4.62 1.91 5.13-3.64 9-3.48 4.6 3.85 3.77-4.4 7.59-5.13 5.08-1.45 2.56 5.79-.68 6.74-4.42.81-2.64 4.26-5.83 6.73 4.58 1.67 5 5.39 1 6.82-.18-3.06-3.32-.88-4.58-2.15-.32-.32-1.26-.11-1.91-.14.79-3.17 4.54-4.51 4.5-8-5.72-1.37-9.73 4.85-11.37-.07.82-.5 1.82-1.5 2.28-1.32zm-28.41 32c2.26-2 1.86-6.25 6.35-6.28.08-3.85 25.25-22.76 25.55-13.11-1 .79-.83 3.51-4 2-1.74-.84-5.54 1.12-5.81 3.06s-1.64 2.41-3.1 3.13-2.71 2.42-4.4 2.82c-4.83.56-5.08 1.18-6.93 5-.9 2.52-9.25 10.86-7.62 3.34z"/><path d="M371.73 260c-2.09-3.78-4.5-7.21-6.81-10.85a1.12 1.12 0 01-.85-1.36c-.72-1.2-1.42-2.41-2.05-3.65v.14c-1.17-1.41-1.36-5-4.3-2.07-.75-.16-1.13-1.36-1.05-2.06.1-5-3.58-9.67-8.1-11.74-.08.83-.57 2.07-.17 2.41 10.34 11.09 2.72 27.94 23.66 44.78a8.47 8.47 0 01.66-3.37 58.39 58.39 0 01-.99-12.23zM170 330.17c-10 11.07-10.38.6-14.61 8.2-3.48 7.24-12.35.67-12 9.21l.14-.12c-3.11-2.26.37-5.29 1.27-7.88 4.59-1.29 10-1.21 12.77-6 1.67-2 6.73-2.05 8.74-3.85 1.94-2.26 2.67-.58 3.69.6zM152.93 70c7.34-2.48 23.65 1.85 27.67-5.47-.25-4.1-5-6-8-1.07-1.81 2.54-7.6 3.83-9.6 1.86.39-1.4 4.79-2.31.74-2.51-19-3.28-37.74 11.48-48.74 24.74 10.13-2.62 20-18 31.13-12.8 1.22 4.26 12.17 2.39 8.37 6.15-9 9-22.4 13-31.67 22-3.63 5.6-11.45 9-13.37 14.94-.21 4.7-5.72 3.38-9.25 4.74.71-3 1-6.17 2.64-8.9-2.49.38-4.54-.5-6.65-1.64 4-4.54 4-4.9-.52-8.7 1.79-7.68-24.88 56-23.54 56.39 1.53.43 3.35.74 4.41 1.7 4.08 4.54 6.33 1.72 9.29 3.8 1.26 3.86 6.87 3.51 8.18 7.36.25.74 1.7 1.13 2.6 1.68-6.1 1.34-12.33-8-15.15.35-1.06.86-1 3.32-.4 4 3.36 1.76 5.38-2.93 8.54.29 8.76 8.43 20.08 13.42 31.79 17.75a9.39 9.39 0 01-.11-3.3c-7.25-9.6-13.76-19.62-25-25.55-2.16-1.35-3.55-2.62-3.87-5.05-.77-3.59-6.74-4.32-9.76-4.2-2.49.46-4-4.07-6.46-.67-1.38-1.86 6.77-8.18 7.73-8.42 2.77 1.85 12.67 1.59 13.14-2.22.61-7.42 16.24 6.61 20.16 7.58 2.26-4.57-3.35-6.86-4.63-10.62-.31-.93-3.44-1.05-5.27-1.56-.66-.18-1.72-.28-1.89-.68-7.89-8.15-9.68-1.82-16.37-16.38 3.08 1 6.15 2 9.15 3.11 2.72 1.48.86 6.32 5 3 .73-.49 1.92-3.1 2.11.27 14.11 8.69 8.06 11.24 17.08-4.24 4.21-10.23 6.65-13.75 17.24-18.62 13-12.7 19.82-30.1 37.39-38.29-7-1.36-13.23 4.78-19.51 7.19l-.84-1.13c1.92-1.63 4.17-2.88 3.58-5.63-2.92-.24-6.93 3.5-8.74.2-.08-.29.8-1.26 1.4-1.45zm-59.82 69.56c-4.82 3.85-7.86-1.47-11.22-3.79-5.43-3.68 3-9.78 4.39-3.31 2.09 2.41 4.72 3.68 6.83 7.1zm29-18c-5.32 2.79-5 7.51-7.76 12-2.05-3.1-2.52-5.9-3.35-9.67 1.12-3.14 13.2-15.91 15.49-10.23-3.65 1.64-2.14 5.68-4.36 7.94zm7.08-14.54c2.67-5.66 5.92-7.22 10.94-5.08zm18.94-38.54c1.41-3.49 8.44-6.69 12.08-6-2.07 2.49-5.84 1.64-7.08 5-1.43.68-3.37.63-4.98 1.04zm267.78 84.71a.42.42 0 010-.1c-.42 1.74-1.94 3.6-2.83 4.8-2.43-3.4-4 1.13-6.46.67-3-.12-9 .61-9.75 4.2-.32 2.43-1.72 3.7-3.88 5.05-9.59 5.05-15.73 13.07-21.82 21.27a24.77 24.77 0 011.5 5.74c10-3.94 19.42-8.65 27-15.91 3.16-3.22 5.17 1.47 8.54-.29.6-.69.66-3.15-.41-4-2.82-8.37-9 1-15.14-.35.9-.55 2.34-.94 2.6-1.68 1.3-3.85 6.92-3.5 8.18-7.35.15-.47 1.44-1 2.08-.87 3.19.51 5.13-1.07 7.21-2.94 1.35-1.54 4.6-.79 5.53-2.95-.71-1.83-1.63-3.58-2.35-5.29zm-6.18-10.88c-2.42 1.5-3.54 4.63-4.28 7.27 1.2.62 2.34 4 3 4.41 3.33.27 5-.16 6.61-3.13a38.47 38.47 0 00-2.48-6.53c-1 .84-1.5.6-1.05-1.57a1.47 1.47 0 00-1.8-.45zM253.94 344c-4.72-.06-7.08 5.31-14.44 2.28 1-2.75 4-3.79 6.59-5 9.22-6.82 4-11.36 18.07-4.8 4.55 2.29 3.71 8.44 10 8 5.25 0 4.14 4.69-.12 4.71a42.79 42.79 0 01-9.39-2.1l-.57 1c5.53 3.46 11.24 6.91 16.69 10.38 2.86 6.89 11.37-.6 15.26 5.15 3.71 1.73 8.62 3.26 12.12 6.05-5.82 1.1-11.45 1.09-16.94-1.23-4.1 1.91-8.07-.39-11.92-.28-8.55.2-14.65-4.52-21.48-7.64-.68-3.35-3.75-2.22-5.8-2.42-5.47-.86-7.8 4.12-9.5 8.05 18.56-1.07 15.09-1.36 26 12.77.73-1.45 1.5-2.24 1.34-2.79-2.19-8.4 13.23-5.13 15.49-.78 2 3.21 5.44 2.6 7.81 4.17 2.85 2.41 6.27 1.54 9.31 2.88-2.77 5.69-10.19 1.91-14.57 4.91 3.2 3.24 7.89.19 11.58 2.69-1.41 6.26-9.42 5.7-14.54 5.43-8.69 1.47-14.64-6.58-22.47-8 1.4 2.44.43 5.36.21 8-1.85 2.22-5.21-.56-7.53-.82-3.84-.87-5.49-4-6.87-6.65-1-2.22 1.87-6 1.81-8.87-3.72.65-3.16 5-4.72 7.52-.53 1.27.46 3.95-3.16 2.72-1.73.66-5 4.69-7.8 5.3-4.38 1.92-.13 5-7.77 4-7.79 1.1-3.67-2.54-13.84-5.31 1.1-3.53 4.68-2 6.57-4.77a7.34 7.34 0 004.78-2c-3.23-3.8-15.33 2.15-14-4.6 3-3.18 8.27 1.39 11.43-2.58a1.9 1.9 0 011.51-.11c2.74 1 2.73 1 3.55-1.46.93-1.69 1.09-2.63-1.14-3.29-1.39 2.3-2 1-1.83-.49.28-2.22-2.38-4.44.06-6.59-6.09-4.53-18.21 5-23.44 9.2-1.42-8.7 7.85-10.89 14.1-14.12 2.11 2.91 2.54.17 3.76-.79 3.88-2.13 8.91-3.08 12.83-5.05 8.67-1.24 15.6-7.95 23.24-12zm18 35.17l-.39.58c3 2.79 7.06 8.23 11.77 5.76a64.09 64.09 0 00-11.41-6.39zm-36.55 3.43c-3.1 1.27-6.48 2.11-8.92 4.4l1.23 1.12c2.11-4.76 4.66 5.76 7.66-5.57z"/><path d="M234.1 95.88c-8.7 2.56-18.28 4.47-26.53 8.28-6 1.22.68 9.14-5.8 8.42-10.48-1.73-4.43 4.52-9.6 3.41-3.24-1.13-3.57 2.29-5.53 3.26-2.2 1.13-3.66 4.33-5.14 6.13-2.32.49-3.18 2-4.29 3.76-5.05 2.19-8.74 6.83-12.51 10.56-10.29.57-15 8.6-22.73 13.38-7.13 2-7.21 7.46-8.22 13-3.91 2.2-4 6.39-5.88 9.61-4.13 5.47 4.75 10.9 2.08 16.26-3.51-2.48-4.18-6.79-9.84-7-9.89-8.12-11.74-15.64-24.9-22.29 4.1-1.45 7.44-1.78 10.35 2 2.35 3 6.53 4.62 8.31 8.46.37.79 4 .38 6.07.28.25 0 .62-1.51.6-2.31-.06-2-.41-3.64 1.82-5.43 5.27-6.55 4.74-22.26 14.71-25.08 5.69.93.73-6.84 7-6.33 6.55-1.32 4.95-11.13 12.67-11.25 5.52-1.61 2.77-7.79 11.2-7.19-1.28 7.64-12.68 9-15.22 16.78 3.66-1.5 6.16-2.21 8.87-3.49 4.29-7.88 16.6-1.3 20-16.12-2.86.58-5.09 2.07-7.65.44.47-.68.79-1.82 1.42-2 8.67-1.32 7.14-9.21 12.91-12.9 1.91-.8 3.94-1 4.29-3.47 7-1.73 11.11-8.66 19.48-8.64 5.7-.05 24.73 10.7 22.06 9.47zm-102.52 61c1.57-.66 2.78-.82 3-1.33 1.41-3.38 4.62-5.23 7-7.77 6.42-7.5 7.19-1.91 9.38-14.9-2.82-.23-4.84 2.26-6.17 4.14-2 3.85-7.42 5.45-7.83 10.37-1.06 3.4-7.1 5.32-5.38 9.46zm55.5-50.88h1.23c-2.67 5 4.09 2.57 5.58 1.19 2.15-2.94 5.23-.82 7.87-1.2 6.14-7.28-4.09-2.51-6.84-5.63-3.19.36-5.74 3.5-7.84 5.64zm29.16-12.86c-5.2-2.12-10.77-1.2-13 2 4.67-.34 10 2.71 13-2.01zM45.14 338.82c2.67 2.74 12.1 2.19 14 5.06.85 4.07 10.27 1.85 14.87 3.79-4.72 4.06-12.67 1.29-20.35 1.61 16.77 7.64 38.77 7.13 54.57 13.69 6.71 2.22 2.24 6.45 3.18 9.86h-1.57c-.11-3.3 2.84-6.48-5.63-7.21-6.4-.73-11.54-3.74-18.64-1.93-3.82-.33-9.36-3.34-13-.47 4.35 2.27 10.76 2.94 14.69 5.71 4.47 2.31 12.55 2.58 17.29 4.93-4.49 3.59-13.44-.65-17.65 2.59 2.53 2 14.69-.26 13.63 2.85-2.92 3.7-13.09 3.32-17.38 2.52-7.57 1.66-29.35-8.18-27.53-3.36 2.48 8.08-16.71 4.31-12.63-1.66a3 3 0 00.16-3.33l-3.63 8.76-1 .06c-2.87-7.57-2.16-15.73-3.4-23.52-.63-3.59 3.12-6 7.18-9.06-3.09.93-4.05 1.28-6.73 2.15-.57-4.8 7.46-8.61 9.67-13.12zm-7.4 26.91c13.42-7.15 15.39 1.16 24.23 3.8.25-.43.91-.94.68-1.28-2.46-3.2 5-3.14 7.68-5.39-7-2.19-16.22-1.43-23.07-4-8.65-2.36-8.32 3.6-9.52 6.87zM76.45 370c-6.51 3-6.77-.83-12.18.35 1.52 1.59 5.61 2.07 7.43 3.44 2.22 1.69 4.48 1.2 8.13.38-3.66-1.01-5.83-2.07-3.38-4.17z"/><path d="M141.11 211.23c.22-2.17.45-4.33.68-6.5l-.46-.07q-1.94 4.08-3.86 8.15l-1.07-.13c1.38-4.92-1.41-10.06 1.76-14.86-4.2-3.38 1.47-7.82-1.62-11.7-1.43-1.8-.09-4.79 3.22-5.69 10.44-3 4.57-3.26 9.19-10.15l2.58 1.32c3.55-2.7 4.49-7.11 8.73-8.9 3.9-1.12 7 .35 7.64-4.5 1.41-2.45.07-7.57 3.69-8 1.53 0 2.4-.17 2.44 1.53 8.72 4 4.62-2.86 9.86-2.8a2.75 2.75 0 002-1.46c.81-3.25 3.92-4.75 6.48-5.48 5.44-1.76 6.26-8.62 12.9-6.8 3.57.41 2.08 5.45 4.71.11 3.9-5.9 13.68-1 18.56-5 2.27-1.66 14.47-4.71 11.4.24-2.58 2.45-4.11 6-9 6.22-2.71.13-5.3 2.24-8 3.42-1.69.76-3.51 2.18-4.74-.63-2.1-1.57-13.19 6-12.52 9.7-3.65 4-7.3-1.64-11.31 5-7.89.77-10.68 11.88-19.09 9.44-.37-.24-1.7.29-2.2.79-7.49 6.88-11.15 6.69-15.93 16.37-4.93 2.49-6.11 6.63-6.32 11.34-.28 1.18-2.66 2.71-2.56 3.92.71 2.32-.64 3.85-1.7 5.7-1.78 3.12-2.24 6.83-4.48 9.78zm265.02-73.54c-1.46-7 5.86-11.57 2.79-18.23-2.43-3.27-12.13-21.35-13.7-18.09-1.36 3.36-4.69 8.34.57 10.25 3.69 1.67 2.42 1.62 1.21 5-3.41 8-10.3 8.52-11.09 18.66 4.87-1.83 11.52 1 11.42-6.3 0-.51 1.86-1.13 2.86-1.7-.72 3.87 1.46 8-1.3 11.24-2.5 3.2-4.55 8-7.88 10.21-3.6.86-7 11.49-10.49 7.78 1.45-19.39 1.58-7.21-7.47-18.47-3.23-5.12 3.59-11.67-7.32-10.92-5.57.25 2 10.61 2.95 13.3 13.23 18.66.48 31.81 5.23 37.67 3-7.24-2.33-5.59 7.39-14.4.66-3.88 5.47-3.11 8-5.07 7-6.64 16.95-12.19 21-20.81-1.15.19-3.36.46-4.17-.12zm-9.7-38.42c2.66 2.35.4-12.55-5.18-14.93C378.62 79.1 366 73.8 353.37 68.59c-2.67-1.14-3.77.26-4 2.64 10 .51 17.25 5.54 25.16 10.71 7.71 5.06 18.26 9.06 21.9 17.33z"/><path d="M324 69.56c-1-4.3-9.43-4.81-7.75-8.62 1.79-.73 1.14-3.19 1.14-3.19l11 1.46c4.83 2.69 9 5.61 11.43 10.52 4.54.36 6 4.12 8.79 6.46 2.83 2.08 7.47 2.31 10.37 4.51 4.16 7.75 17 11.12 19.21 15.68 1.29 1.78 1.38 4.35 4.4 5 4 3.13 2.51 10 7.36 13.2.46.39.48 1.46.34 2.16-.71 1.43-.8 8.53-3.23 6-11.12-9.78-20.24-21.2-33-29-5.78-4.19-9.81-12.93-16.84-14.58 3 5.06 9.47 9.13 9.91 14.81-7.82-4.49-11.25-14.41-20.74-17.55C320.55 74.72 314.68 73 310 69c.18-8 8.81-1.1 14 .56zm48.41 31.78c4.66-5.86-13.3-13.73-17.77-15.53 3.58 6.54 11.52 10.5 17.73 15.53zM230.87 407.56c-.08-10.46 7.48-9.85 15.34-14.77 6.06-1.57-.09 7.69 5 9 3.23.55 3.17-6.57 6.49-2.24 13.23 10 6.31 2.38 9.28-6 4.27 2.77 16.11 3.85 12.59 10.43-2.6 1.67-2.92 5.88-7.26 5.61-3.25 5.32-4.26 2.76-8.87 3.28-1.87.89-3.15 1.46-5.34.69-5.51-1.22-4.69 4.49-12.79.62-.54-.14-1.23-.66-1.55-.5-3.19 1.65-3.77-1.39-5-2.61-.15-5.78-2.53-3.65-7.89-3.51zM340.4 118.92c2.45 3 4.61 6.22 8.8 7.74 4.15 3.74 8.15 9 13.3 11.78 2.66 1.45 1.75 3.8 3.41 5.32 2.61 2.33 6.21 12.3 5 15-5.53-6.27-5.48-17.05-14.9-20.49-7.83-2.88-11.79-9.5-18.07-14-3-2.27-7.12-3.42-8-7.69-.16-.79-2-1.23-3-2-2-3.23 3.31-1.09 4.55 0 1.41 1.81 2.87 2.28 5.25 1.84-1.85-5.39-8.74-10-15-9.6 1 1.82 3.42 2.66 3.73 4.68-2.59 1.23-6.75-2.92-7.13-4.5.54-3.39-3.22-1.89-3.71-3.24-3.31-4.13-9.25-5.36-13.51-8.73-1.84-1.18-5.56-.62-5.64-3.39 2.82-2.46 8.82 1.58 12 2.3 6.85-.19 7.05 3.84 10.94 7.06 4.08 2.26 15 1.61 15.46 6.46a3.45 3.45 0 001.65 2.6c10.13 4.83 19.48 10.38 22.63 21.21-5-5.12-11.48-8.78-17.27-13.11zm-45.06-16.12c-1.15-5.49-9.8-3.76-11.57-8.79-1.11-2.17-17.21-1.18-13.17-4.63 1.76-5 1.65-.93 6-.79 15.14.53 9 1.89 19.28 8.56 4 2.93 8 6 11.92 9.12-.13.68-1.88 3.33-1.29 4.21 2.8 2.27 4.78-1.69 6.67 2.9 14.73 11.71 5.29 8.88 4 8.38-9.42-3.22-19.29-7.43-27-13.18-3.54-7.73-9.55-.56-14.92-3.79 10.78-12.86 7.24-2.13 20.26-2.1-.3 2.86 3.24 7.54 5.94 3.92-2.01-1.38-2.46-4.77-6.12-3.81zM44.66 382.83c.4 1.89-1.75 4.33 1.18 5.74 3.83-5.8 3.92-.14 10.6-.05 2.57-2-2.53-8.94 5.49-7.3 4.7.89 7.82 3.27 13.43 3.23-.26 1 0 2.72-.88 2.91-4.52 1-4.66 4.29-10.15 4.65a1.93 1.93 0 00-1.33 1.41c-.78 3.73-8.13-.36-13.32 4.46a30.34 30.34 0 01-4 1.6c-6.1-4.72-8.64-11.38-2.69-16.84zM367 119.13c-2.18 2.73-2.73 8.58-6.57 5.75-1.17-3.89-5.8-5.14-7.44-8.51-1.93-6.14-11.92-5.05-11.66-11.87-.17-3.76-7.07-5.91-8.16-9.11 2-1.4 6.74 1.33 7.92 2.57 5.48 6.25 14.72 8.08 18.44 15.69 2.74.96 5.31 3.45 7.47 5.48zM194.7 73.3c-10.29 3.26-20.14 8.62-29.07 14.32-3.53 1.82-7.55 14.75-11.52 11.07 1.39-7.36 36.07-42.21 40.59-25.39zm-71.84 137.25c-2.87.9-5.82 3.7-6.14-1.47 0-.2-.35-.56-.53-.56-3.88 0-3.87-3.57-5.87-5.22-2.1-1.28-5-3.33-7.71-2.68 14.52 15.07 17.54 10.57 18.9 32.45l.65.11c.51-1.47.78-16.53.7-22.63zM299 73.68c4.12-2.41 7.68-.57 11.43.41 3.05 1 17.57 8.38 14.8 11.41-38.31-21.5-19.46 1.85-48-5.56-.07 0 15.15-2.42 21.77-6.26zm85 75.23c-6.46-4.19 15.79-18.5 9.33-7-3.58 2-7.51 3.09-9.33 7zM69.13 168c4.2-2.33 12 2.92 8.37 7.33a11.83 11.83 0 01-8.37-7.33zm376.21 96.61c-2.56 1.56-4.18 3.88-10 2.39-5.45.89-.62 4.33-10.08 2.8-6.2-.91-4.89 3.21-15.81 3.33-6.69.21-2.51 1.24-5 2.64-5.9-.4-7.89 2.14-12 4.14-6.35.38-14 1.13-20.43 1.7 0-.1.33-6.45.33-9.51 7.92-1.31 18.62-2.94 26-5.2l.23.1a1.41 1.41 0 000-.2 7.28 7.28 0 001.45-.89 37.72 37.72 0 0016.46-4.68c4-2.1 10.81-2.19 13.05-5.11 1.7-1.33.21-5.44 5.17-3.47 4.77 1.83 5.64-3.14 8.82-4.2 14.17.11 29.47 19.76 23.45 25.11-1.47-3.22-13.54-10.32-21.64-8.95z"/><path d="M384.7 306.23c-3.11-1.37-10.91-8.57-11.58-12.52 4-3.11 2.77-3.19 8.09-4a1.79 1.79 0 00.22.28c3.91-1.11 10.5.45 13.61-.72s6.3-1.6 9.24-2.47c7.27-1.75 16.33-1.29 22.12-4.47-.15-4.63 13.9-.49 13.45-5.4.09-.66 4.11-1.16 4.87-1.52 1.15-3.18 3.32-1.24 5.51-.21 8.77-.49 14.07 10.73 11.37 16.45-3.26-1.19-6.85-2.16-9.39-3.77-2.33 1.62-.15 4.86-6.16 3.79a5.11 5.11 0 00-4.64 1.22c-5.66 4.58-19.93 3.74-29.91 3.7-1.28-.09-3.84.47-3.83.76.12 2.12-3.94 2.55-5.5 3.86-3.6 3.31-12.59 3.46-17.47 5.02z"/><path d="M460 311.31c-3.9 2-1.67-.18-4.69-1.1-3.59 1.51-2.12 4.18-5.93 5.66-6.89-3.66-10.49 1.33-17.63 1.72-11.29 1-22.61.08-34.17.73-1.53 1.8-11.39 2.88-15 4.2.26-.64-.5-8.38-.75-8.75 5.63.36 22.73-3.19 24-6 4.8.9 8.12-2.23 13.08-.87 3.71 1.46 2.09-1.19 5.17-1.08 8.67.39 23.73 2 26.56-7.74 2.61-11.72 19.36 8.64 9.36 13.23zm-72.86 46.81c3-9 7.14-4.28 29.59-9.82 4.63-.48 6.44-4.42 12.07-2.66a7.09 7.09 0 001.87-.37c-.64-1.43-4.79-1.41-6.78-1.26-2.7.5-2.83-.11-3-1.1-.8-2.89 12.31.36 26.37-6.61-.46 4.58 1.72.87 7.12 2.52v-.05c6 .09 5.61 3.4 8.61 5.41 5.09-8.05-2.62-6.61-9.07-13.58-.68-.43-1.12-1.31 2.48-1.26 4.79.08 4.75 2.11 7.37 2.88 2.5-4.87-1.88-9.18-4.82-13.54-2.78-3.4-8.79.19-12.54.95-9.2-.26-24.42 6.37-28.62 4.54-3.55-1.89-1.74 1.07-5.14 1.33-5.81.68-10.54 2.73-17 1a7.66 7.66 0 00-4 .37c-1.73 1.48-6 1.26-7.81.63.12 3.83 2.35 7.51 2.53 11.33 10.18-.45 16-3.91 25.34-4.73 3-.3 6.87.76 8.3-1.58 4-.56 10.36-1 14.78-.28-8.88 5.82-33.61 7.31-48.4 7 .27 6.26.61 12.57.75 18.88zm1.07-12.37c-.21-3.95 20.18-.5 25.37-4 2.45-.86 4.6.31 6 1.37-1.73.83-4.6.71-6.46 1.13-4 2.18-8.79-.42-13.23.62-3.45.79-10.82 5.13-11.68.88zm-16.87-76.88l.13-5s6-.66 5.78-.95c1.16-3.14 6.75-1.89 10.17-2.62 8.06-.8 13.69-3.94 23.54-3.36-9.84 6.86-15.63 4.45-19.07 7.66-4.52 2.75-20.55 4.27-20.55 4.27z"/><path d="M432.44 182.73c-5.1 7-12.45 4.84-22.25 9.64-13-.62-.82 7.59-16.13 10.12-1.42.28-7 .29-6.35-1.17 5-.7 5.07-3.46 8.12-5-4.11-8.7-19.23 4.8-23.29 7.48-1.61 3.74 3.45 3.07 8.21 1.79 3.88.18 7.73.67 11.61.89 12.87 2.43 16.57-7.61 28.21-.93 2.31-2 7.8-2.43 8.27-5.22.06-.32 2.53-.66 3.84-.59 2.48 2 3.11 6-2 7.47-2.62 3-11.39 3.55-15.25 6.07-2.83 3.47-10.3 3.76-16.91 4.67-4.64-1-7.22-2.26-6.95 1.07-.3 3.12-6.43 4.19-8.67 6.63-2.66.54-9.11.27-9.11.27l1.1 13.23s9.25-3.44 14.29-4.91c5-4.18 15.69-.94 22.89-2.59 8.21-2.48 15.68-7.25 26-7.31-2 4.39-6.77 8.58-12.83 11.87-1.7 1.08-1.13 3.69-6.51 2.25-13.5 6.78-45.55 12-45.55 12l-.08 9.84s6.21-.09 6.35-.33c1.81-3.33 9.89-2.7 13.93-4.33 1.82-2.62 8.48-1 12.6-2.19 4.05-.46 8.11-1.46 12.06.43 4.05 1.17 6-5.6 11-6.3 2.51-.7 3.8-2.45 5.4-3.55 1.82.25 4.83.92 5.17.66 4.76-4.7 16.69 6.9 21 8.48 2.95-13.05-25.99-71.92-28.17-70.44zm20.62 49.85c-4.57.66-6.11-3-9.07-5.46l1.73-1.12c4.75 1.48 4.28 4.48 7.34 6.58zm1.28 106.19c2.2 4.51 10.23 8.32 9.67 13.12-2.68-.87-3.65-1.22-6.73-2.15 4.05 3.09 7.8 5.47 7.17 9.06-1.23 7.79-.52 15.95-3.39 23.52l-1-.06-3.63-8.76a3 3 0 00.17 3.33c4.07 6-15.12 9.74-12.63 1.66 1.81-4.82-20 5-27.54 3.36-4.28.8-14.44 1.19-17.38-2.52-1.06-3.11 11.11-.82 13.63-2.85-4.21-3.24-13.16 1-17.64-2.59 4.73-2.35 12.82-2.62 17.28-4.93 3.93-2.77 10.34-3.44 14.69-5.71-3.63-2.87-9.16.14-13 .47-7.1-1.81-12.23 1.2-18.64 1.93-8.47.73-5.52 3.91-5.63 7.21h-1.57c.94-3.41-3.53-7.64 3.19-9.86 15.8-6.56 37.79-6.05 54.56-13.69-7.67-.32-15.63 2.45-20.35-1.61 4.6-1.94 14 .28 14.87-3.79 1.86-2.87 11.29-2.32 14-5.06zm-2.09 20.1c-6.85 2.56-16.08 1.8-23.06 4 2.65 2.25 10.13 2.19 7.68 5.39-.23.34.43.85.68 1.28 8.84-2.64 10.8-10.95 24.22-3.8-1.2-3.28-.87-9.24-9.52-6.87zm-32.56 15.25c3.64.82 5.9 1.31 8.12-.38 1.82-1.37 5.91-1.85 7.44-3.44-5.42-1.18-5.67 2.66-12.19-.35 2.43 2.15.28 3.21-3.37 4.17z"/><path d="M454.85 382.83c-.4 1.89 1.75 4.33-1.18 5.74-3.82-5.8-3.92-.14-10.6-.05-2.57-2 2.53-8.94-5.48-7.3-4.7.89-7.83 3.27-13.43 3.23.26 1 0 2.72.87 2.91 4.52 1 4.66 4.29 10.16 4.65a2 2 0 011.33 1.41c.78 3.73 8.12-.36 13.31 4.46a30.34 30.34 0 003.95 1.6c6.1-4.72 8.65-11.38 2.7-16.84zM373.92 211c2.87.9 5.82 3.7 6.14-1.47a.79.79 0 01.53-.55c3.88 0 3.87-3.58 5.87-5.23 2.1-1.28 5.05-3.33 7.71-2.67-14.52 15.06-17.54 10.57-18.9 32.45l-.66.11c-.5-1.52-.77-16.57-.69-22.64zm50.44-37.75c-4.2-2.34-12 2.91-8.37 7.33a11.86 11.86 0 008.37-7.33zm-117.28-48c4.75 0 8.13 1.67 10.43 5.48 1.21 1.4 4.07 1.79 5.05 3.72-5.76 1.81-10.68-6.18-15.48-9.2zm28.76 21.44c-3.39-1.6-9.57-6.52-2.37-6.8 4.03 1.41 8.53 4.4 2.37 6.8zm-246.76 5.76c6.36-.81 11 8.62 6.18 6.56-2.54-2.15-7.11-2.8-8.45-5.79zM287.42 82.7c3.5 1.74 8.5 1.21 8.21 5.62a24.48 24.48 0 01-10.8-4.32zm-127.99 22.63c-2.91 2-4.13 4.8-7.24 5-.64-3.61 2.58-5.83 7.24-5zm-45.36-15.11c-6.94 2.46-8.18 2-1.61-1.73a19.57 19.57 0 011.61 1.73zM327.23 260.5c-3 3.72-3.31-2.49-4.72-4.23 3.08-1.71 7.13 1.46 4.61 4.34zm-5.5-5.65c-1 3.28-6.87-2.11-7.65-3.7 1.46-2.32 7.46 1.77 7.65 3.7z"/></g><path d="M51.32 409.51S80 400 96.47 412m305.71 0s25.94-8.31 43.55 0" fill="none" stroke="#636363" stroke-linecap="round" stroke-linejoin="round"/><path d="M204.38 48.27s4 48.55 43.67 46.73 42.85-45.4 42.85-45.4" fill="none" stroke="#262521" stroke-linecap="round" stroke-linejoin="round" stroke-width="3"/><path d="M133.45 438.85s155.28-12.31 227.71 2.37" fill="none" stroke="#636363" stroke-linecap="round" stroke-linejoin="round"/><path d="M121.8 180.84s2.11 28.62 0 44.25.11 29.7.11 32.87 1.9 33.07 1.9 33.07m247.52-102.37s5.79 47.28 0 75.34l.81 27.55" fill="none" stroke="#262521" stroke-linecap="round" stroke-linejoin="round" stroke-width="3"/><path d="M194.62 56.1c2.77 14.3 15 50.28 52.49 50.23 39.57 0 51.53-38 53.68-50.23" fill="none" stroke="#636363" stroke-linecap="round" stroke-linejoin="round"/></svg>