<svg xmlns="http://www.w3.org/2000/svg" width="500" height="550" viewBox="0 0 500 550"><path d="M365.52 416.93s-1.73 60.44-5 62.62-151.41 0-167.06-3.27-53.14 5-57.87 4.15-5.46-10.89-3.64-18.53 1.36-45 1.36-45z" fill="#fff" stroke="#262521" stroke-linecap="round" stroke-linejoin="round" stroke-width="3"/><path d="M372.64 291.45q-.25 61.74-.61 123.46c-.81 9-2.68 16.41-3.55 25.45-1 10.07 1.34 17-1.5 25.63-.59 1.77-2 1.67-3.35 1.43C319 459.69 262 461.71 217 464.5c-24.59.58-58.61-1.67-83 2.09-5.23.6-5.68.28-6.62-4.82-1.35-11.26 1.94-18.53.52-29.31-6.14-46.82-1.38-94.38-3.6-141.53-1.41 2.82-2.93 5.6-4.28 8.46-2.37 10.67-17.5 9.3-11.81 16.18 11.11 7.95 6.4 21.38 5.15 32.56-.25 3.15-1.35 6.27-.37 9.58.5 8.43-3.19 16.94-4.38 25.31-1.5 8-2.61 15.83-1.54 23.93a5.1 5.1 0 01-1.13 3.3c-5.71 6.28-7.75 14-9.19 22.06-.57 3.17-.61 3-3.74 2.05-12.38-3.52-26.09-4.38-38.6-1.18-1.39.34-2.11 0-2.41-1.47-2-7.71-2.17-16.71-8.48-22.43a6.66 6.66 0 01-1.33-3.22 144.54 144.54 0 01-2.72-33.31c-1.91-63 2.6-126.93 26.19-186 13.61-35.43 24.56-73.32 48.06-103.67 27.33-18.2 60-23.76 90.46-34.78a3.15 3.15 0 012.73.43c5 5.55 11.46 8.41 18.56 9.67 19.18 2.42 41.29 5.55 58.64-4.88 2.86-1.27 4.21-6.53 7.88-5C321.11 59 353 62.93 379.42 80.11c15.95 14.59 21.63 38 30.46 57.2 27.81 67.49 58 137.4 51.05 212.08-1.19 18.66-.23 37.45-3.28 56-.49 4.66-5.21 7.09-5.56 11.78-1.22 5.28-2.08 10.65-2.91 16-.4 2.6-.41 2.83-3.09 2.32-12.47-2.65-25.25-5.48-37.79-1.58-8.34-.14-8.13-15.55-11.44-21.4-6.28-7.36-3.61-9-5.33-17.63-.9-9.7-4.68-20.27.79-29.26 2-3.54 1.86-7 .51-10.66-4.9-11.29-7.4-23.42-10.45-35.3-1.07-4.3-1.31-8.49 1.61-12.33 1.51-7.24-10.43-8.68-10.93-15.93z" fill="#262521" stroke="#262521" stroke-linecap="round" stroke-linejoin="round" stroke-width="3"/><path d="M405.53 130.6c-8.82-20.21-10.16-35.9-26.11-50.49-26.42-17.18-73.09-26.67-73.09-26.67l.82 8-3 3 .72 4.62-3.3 2.82.21 4.33-3.78 2.05V83l-3.74 1.35-.86 4.79-4.11 1.44-1.06 4.61L284 96.3l-1.81 4-4.68.59-2.27 3.85-4.07-.51-2.89 3.24-4.2-1.21-3.58 2.85-3.93-1.11-3.66 2.33-3.52-2.11-4.7 1.93-3.54-1.87-3.51 1.16-3.78-2.84-4.53 1.2-2.7-3.61-4.36.2-2-3.39-4.37-1-2.32-3.6-4.24-1-1.34-4.18-4.42-1.8-.5-3.36-3.95-2.53v-4.18l-3.92-2.77.06-4.26-3.21-3.32.26-3.88-3.18-3.42 2.22-9.15c-30.43 11-50.31 12.31-77.64 30.51-18 23.22-28.86 51.5-28.86 51.5l5.07 23.95 20.26 4.63 4.09 17 19.35 1.86 7.63 16.6 18-.5 10.59 15.62 18.73-2.19 12.94 14.19 18.51-5.3 13.41 11.79 16.56-8.89 15.61 8.93 14.26-12.15 17.4 4.65 11.57-13.47 18.73 1.72 7.95-13.39 18.75-2 6.42-17 17.13-.93 4.91-17.44 18.68-4.9z" fill="#7c7c7c"/><path fill="#262521" stroke="#bfbfaf" stroke-linecap="round" stroke-linejoin="round" stroke-width="2" d="M241.29 169.79l8.3-12.56 5.5 12.26 16.74-.64-15.39 7.76 8.89 4.09-14.51.31-10.28 9.03-.14-6.66-9.27.92 6.99-6.82-11.2-7.9 14.37.21zm41.43-8.62l-9.9 7.81 15.19-.91 13.75 10.16.77-16.23 10.47-6.14-12.61.51 4.22-7.56-13.58 5.8-9.56-6.52 1.99 7.78-8.11-.14 7.37 5.44zm-67.31 1.21l10.51 6.99-15.22.32-12.9 11.22-2.06-16.11-10.93-5.29 12.61-.5-4.81-7.19 14 4.69 9-7.26-1.35 7.91 8.06-.79-6.91 6.01z"/><path fill="none" stroke="#bfbfaf" stroke-linecap="round" stroke-linejoin="round" stroke-width="2" d="M190.12 57.85l-.93 4.24 3.13 3.05-.47 4.34 3.4 2.74-.06 4.36 3.64 2.41.37 4.35 3.87 2.02.84 4.29 4.07 1.57 1.36 4.15 4.24 1.03 1.9 3.93 4.35.44 2.44 3.62 4.36-.2 2.94 3.23 4.29-.82 3.36 2.79 4.14-1.39 3.7 2.33 3.94-1.89 3.91 1.89 3.66-2.33 4.11 1.39 3.33-2.79 4.26.82 2.9-3.24 4.33.18 2.38-3.64 4.31-.47L284 96.3l4.2-1.09 1.24-4.16 4.02-1.64.72-4.28 3.79-2.11.23-4.33 3.55-2.5-.21-4.33 3.3-2.82-.61-4.31 3.01-3.11-1.08-4.18"/><path fill="none" stroke="#bfbfaf" stroke-linecap="round" stroke-linejoin="round" stroke-width="4" d="M162.39 67.54l-3.94 7.1 7.65 2.87-3.07 7.58 7.9 2.08-2.3 7.84 8.06 1.3-1.49 8.03 8.16.43-.6 8.15 8.16-.51.37 8.16 8.03-1.51 1.41 8.05 7.77-2.53 2.44 7.8 7.37-3.53 3.43 7.42 6.87-4.43 4.31 6.94 6.3-5.21 5.07 6.41 5.71-5.85 5.68 5.86 5.04-6.41 6.27 5.22 4.29-6.92 6.84 4.44 3.42-7.4 7.34 3.54 2.43-7.78 7.74 2.55 1.39-8.03 8.01 1.53.35-8.15 8.14.52-.63-8.13 8.14-.42-1.53-8.01 8.05-1.3-2.36-7.8 7.88-2.11-3.12-7.52 7.62-2.9-4-7.03"/><path fill="none" stroke="#51504c" stroke-linecap="round" stroke-linejoin="round" stroke-width="4" d="M99.89 115.02l-2.13 13.6 13.83.76-.75 13.83 13.85-.39.36 13.85 13.77-1.49 1.49 13.77 13.6-2.64 2.68 13.59 13.3-3.86 3.95 13.28 12.86-5.15 5.29 12.8 12.24-6.48 6.67 12.14 11.43-7.83 8.02 11.3 10.44-9.11 9.29 10.27 9-10.29 10.26 9.03 7.58-11.38 11.33 7.64 6.09-12.24 12.18 6.2 4.61-12.87 12.81 4.79 3.2-13.29 13.22 3.46 1.91-13.54 13.48 2.24.73-13.65 13.62 1.11-.37-13.67 13.67.04-1.44-13.6 13.64-1.04-2.74-13.31"/><path fill="none" stroke="#bfbfaf" stroke-linecap="round" stroke-linejoin="round" stroke-width="4" d="M87.66 141.21l3.63 18.34 18.48 3.52 5.85 17.88 18.74 1.49 7.8 17.12 18.79-.7 9.87 16.01 18.53-3.23 12.11 14.4 17.77-6.12 14.38 12.12 16.39-9.22 15.87 9.17 13.67-12.21 17.35 5.9 11.22-14.52 18.1 2.9 8.85-16.07 18.33.34 6.72-17.07 18.25-1.82 4.79-17.71 17.94-3.78 2.62-18.04"/><path d="M204.65 51.38c.8-.26 4.44 39.77 42.44 41.81s45.37-41.58 45.37-41.58" fill="none" stroke="#636363" stroke-linecap="round" stroke-linejoin="round"/><path fill="#262521" stroke="#bfbfaf" stroke-linecap="round" stroke-linejoin="round" stroke-width="2" d="M337.69 127.67l-4.14 5.47-14.93-1.92 5.68 12.17-11.42 12.25 15.93-6.58-2.71 9.41 9.72-10.78 13.55-1.88-4.95-4.47 2.51-2.38"/><path fill="none" stroke="#bfbfaf" stroke-linecap="round" stroke-linejoin="round" stroke-width="2" d="M344.58 135.49l-3.14.28.36-3.66"/><path fill="#262521" stroke="#bfbfaf" stroke-linecap="round" stroke-linejoin="round" stroke-width="2" d="M159.14 126.62l6.23 8.59 15.02-1.01-6.42 11.81 10.66 12.92-15.5-7.54 2.13 9.55-9.04-11.35-13.41-2.71 5.21-4.15-4.53-4.87"/><path fill="none" stroke="#bfbfaf" stroke-linecap="round" stroke-linejoin="round" stroke-width="2" d="M150.61 136.28l6.72.85-.32-8.55"/><path fill="#262521" stroke="#bfbfaf" stroke-linecap="round" stroke-linejoin="round" stroke-width="2" d="M337.92 125.34l.77-2.19-4.79-12.82 6.28 2.23 2.43-8.99 3.89 8.96 11.36-7.67-5.29 13.36 8.79 12.22-13.41.79-1.53 4.54m20.93-62.14l-.52 3.68-13.36 1.43 9.36 11.79-4.66 13.6 10.98-8.21 4.31 8.77 2.01-9.1 6.38 1.94-5.4-12.58.98-5.69M157.25 126.6l-.46-1.45 4.8-12.82-6.28 2.23-2.43-8.99-3.89 8.96-11.36-7.67 5.29 13.36-8.79 12.22 13.41.79 1.03 4.04M117.22 81.3l1.14 3.43.67 2.22-5.39 12.58 6.38-1.94 2 9.1 4.31-8.77 10.99 8.21-4.66-13.6 9.36-11.79-13.36-1.43-2.65-3.15"/><path d="M213 74.86s-75.77 59.57-84.41 100l-5.52 23.65M282.93 74.86s75.77 59.57 84.42 100l4.82 21.67" fill="none" stroke="#636363" stroke-linecap="round" stroke-linejoin="round"/><path d="M291.48 48.63c29.12 10.49 61 14.41 87.44 31.58 15.94 14.59 21.63 38 30.45 57.21M65.15 186.85c13.61-35.43 24.56-73.32 48.07-103.67 27.32-18.2 60-23.76 90.46-34.78" fill="none" stroke="#262521" stroke-linecap="round" stroke-linejoin="round" stroke-width="3"/></svg>