<svg xmlns="http://www.w3.org/2000/svg" xmlns:xlink="http://www.w3.org/1999/xlink" width="500" height="550" viewBox="0 0 500 550"><defs><clipPath id="a"><path d="M372.14,291.55c-.18,41.16-.42,68.82-.62,110-.81,9-2.68,16.41-3.55,25.44-1,10.07,1.34,17.05-1.5,25.63-.59,1.77-2,1.67-3.35,1.44-44.59-7.74-101.66-5.72-146.65-2.92-24.6.57-58.62-1.68-83,2.08-5.23.6-5.68.28-6.62-4.82-1.35-11.26,1.94-18.53.53-29.31-6.15-46.82-1.39-80.87-3.6-128-1.42,2.83-2.94,5.6-4.29,8.46-2.37,10.67-17.5,9.3-11.81,16.18,11.11,7.95,6.41,21.38,5.15,32.56-.25,3.15-1.35,6.27-.37,9.58.51,8.44-3.19,16.94-4.38,25.31-1.5,8-2.61,15.83-1.54,23.93a5.1,5.1,0,0,1-1.13,3.3c-5.71,6.28-7.75,14-9.19,22.06-.57,3.18-.61,3-3.74,2-12.38-3.52-26.09-4.38-38.6-1.18-1.39.34-2.11,0-2.41-1.47-2-7.76-2.18-16.67-8.49-22.43a6.62,6.62,0,0,1-1.33-3.22A144.46,144.46,0,0,1,39,372.86c-1.91-63,2.6-126.93,26.19-186,13.61-35.43,24.56-73.32,48.07-103.67,27.32-18.2,60-23.76,90.46-34.78a3.16,3.16,0,0,1,2.72.43c5,5.55,11.46,8.41,18.56,9.67,19.19,2.43,41.29,5.55,58.65-4.88,2.85-1.27,4.2-6.53,7.87-5,29.12,10.49,61,14.4,87.44,31.58,15.94,14.59,21.63,38,30.45,57.21,27.81,67.48,58,137.39,51.05,212.07-1.19,18.66-.23,37.46-3.28,56-.49,4.66-5.21,7.09-5.56,11.78-1.22,5.28-2.08,10.65-2.91,16-.4,2.6-.41,2.83-3.08,2.33-12.48-2.66-25.26-5.49-37.8-1.58-8.34-.15-8.13-15.56-11.44-21.4-6.28-7.37-3.61-9-5.33-17.64-.9-9.7-4.68-20.27.79-29.26,2-3.53,1.86-7.05.51-10.66-4.9-11.28-7.4-23.42-10.45-35.29-1.07-4.31-1.31-8.5,1.61-12.34,1.51-7.23-10.43-8.68-10.93-15.93Z" fill="none"/></clipPath></defs><title>s03e02-04</title><g clip-path="url(#a)"><rect x="21.8" y="20.25" width="459.18" height="487.05" fill="#262521"/><path d="M226.73,150.78c-2.08-.58-12.62,1.77-12.35-2.29.61-2.06-1.78-11.61,2.29-11.39,2.08.59,12.62-1.76,12.35,2.29C228.41,141.46,230.8,151,226.73,150.78Z" fill="#fff"/><path d="M213.35,126.41c-2,.55-10.53-1.66-10.35,2.29.61,2.07-1.77,11.61,2.29,11.39,12.54-.42,12.84,3.1,12.36-11.06A20.11,20.11,0,0,1,213.35,126.41Z" fill="#fff"/><path d="M226.11,130.89c.47,2-1.49,9.33,2.3,9.2h10.06c3,.06,2.19-4.11,2.29-6C235.78,133.46,230.75,132.87,226.11,130.89Z" fill="#fff"/><path d="M250.39,134.24c.09,1.87-.69,5.9,2.3,5.85h10.06c4,.22,1.73-8.86,2.29-10.9C262.71,130,253.05,133.64,250.39,134.24Z" fill="#fff"/><path d="M250.38,150.78c-2.08-.58-12.62,1.77-12.35-2.29.62-2.06-1.78-11.61,2.29-11.39,2.08.59,12.62-1.76,12.36,2.29C252.06,141.46,254.45,151,250.38,150.78Z" fill="#fff"/><path d="M215.35,162.82c-2.07-.59-12.62,1.76-12.35-2.29.62-2.07-1.78-11.61,2.29-11.39,2.08.59,12.62-1.76,12.36,2.29C217,153.5,219.42,163,215.35,162.82Z" fill="#fff"/><path d="M238.47,162.82c-2.08-.59-12.62,1.76-12.36-2.29.62-2.07-1.77-11.61,2.3-11.39,2.07.59,12.62-1.76,12.35,2.29C240.14,153.5,242.54,163,238.47,162.82Z" fill="#fff"/><path d="M226.73,172.17c-2.08-.58-12.62,1.77-12.35-2.29.61-2.06-1.78-11.61,2.29-11.39,2.08.59,12.62-1.76,12.35,2.29C228.41,162.85,230.8,172.4,226.73,172.17Z" fill="#fff"/><path d="M249.93,172.17c-2.08-.58-12.62,1.77-12.35-2.29.62-2.38-2-11.8,2.74-11.39h10.06a2.28,2.28,0,0,1,1.85,2.3C251.61,162.85,254,172.4,249.93,172.17Z" fill="#fff"/><path d="M215.35,184.21c-2.07-.59-12.62,1.76-12.35-2.29.62-2.07-1.78-11.61,2.29-11.39,2.08.59,12.62-1.76,12.36,2.29C217,174.89,219.42,184.43,215.35,184.21Z" fill="#fff"/><path d="M238.47,184.21c-2.08-.59-12.62,1.76-12.36-2.29.62-2.07-1.77-11.61,2.3-11.39,2.07.59,12.62-1.76,12.35,2.29C240.14,174.89,242.54,184.43,238.47,184.21Z" fill="#fff"/><path d="M226.73,194.11c-2.08-.59-12.62,1.76-12.35-2.3.61-2.06-1.78-11.61,2.29-11.39,2.08.59,12.62-1.76,12.35,2.3C228.41,184.78,230.8,194.33,226.73,194.11Z" fill="#fff"/><path d="M250.38,194.11c-2.08-.59-12.62,1.76-12.35-2.3.62-2.06-1.78-11.61,2.29-11.39,2.08.59,12.62-1.76,12.36,2.3C252.06,184.78,254.45,194.33,250.38,194.11Z" fill="#fff"/><path d="M215.35,206.14c-2.07-.58-12.62,1.77-12.35-2.29.62-2.06-1.78-11.61,2.29-11.39,2.08.59,12.62-1.76,12.36,2.3C217,196.82,219.42,206.37,215.35,206.14Z" fill="#fff"/><path d="M204.94,194.11c-2.08-.59-12.62,1.76-12.35-2.3.62-2.06-1.78-11.61,2.29-11.39,2.08.59,12.62-1.76,12.36,2.3C206.62,184.78,209,194.33,204.94,194.11Z" fill="#fff"/><path d="M193.57,206.14c-2.08-.58-12.62,1.77-12.36-2.29.62-2.06-1.78-11.61,2.29-11.39,2.08.59,12.63-1.76,12.36,2.3C195.24,196.82,197.64,206.37,193.57,206.14Z" fill="#fff"/><path d="M238.47,206.14c-2.08-.58-12.62,1.77-12.36-2.29.62-2.06-1.77-11.61,2.3-11.39,2.07.59,12.62-1.76,12.35,2.3C240.14,196.82,242.54,206.37,238.47,206.14Z" fill="#fff"/><path d="M226.73,217.18c-2.08-.59-12.62,1.76-12.35-2.29.61-2.07-1.78-11.61,2.29-11.39,2.08.58,12.62-1.76,12.35,2.29C228.41,207.85,230.8,217.4,226.73,217.18Z" fill="#fff"/><path d="M250.38,217.18c-2.08-.59-12.62,1.76-12.35-2.29.62-2.07-1.78-11.61,2.29-11.39,2.08.58,12.62-1.76,12.36,2.29C252.06,207.85,254.45,217.4,250.38,217.18Z" fill="#fff"/><path d="M215.35,229.22c-2.07-.59-12.62,1.76-12.35-2.3.62-2.06-1.78-11.61,2.29-11.38,2.08.58,12.62-1.77,12.36,2.29C217,219.89,219.42,229.44,215.35,229.22Z" fill="#fff"/><path d="M204.94,217.18c-2.08-.59-12.62,1.76-12.35-2.29.62-2.07-1.78-11.61,2.29-11.39,2.08.58,12.62-1.76,12.36,2.29C206.62,207.85,209,217.4,204.94,217.18Z" fill="#fff"/><path d="M182.18,217.18c-2.07-.59-12.62,1.76-12.35-2.29.62-2.07-1.78-11.61,2.29-11.39,2.08.58,12.62-1.76,12.36,2.29C183.86,207.85,186.25,217.4,182.18,217.18Z" fill="#fff"/><path d="M193.57,229.22c-2.08-.59-12.62,1.76-12.36-2.3.62-2.06-1.78-11.61,2.29-11.38,2.08.58,12.63-1.77,12.36,2.29C195.24,219.89,197.64,229.44,193.57,229.22Z" fill="#fff"/><path d="M238.47,229.22c-2.08-.59-12.62,1.76-12.36-2.3.62-2.06-1.77-11.61,2.3-11.38,2.07.58,12.62-1.77,12.35,2.29C240.14,219.89,242.54,229.44,238.47,229.22Z" fill="#fff"/><path d="M265.32,150.78c2.08-.58,12.62,1.77,12.36-2.29-.62-2.06,1.77-11.61-2.3-11.39-2.07.59-12.62-1.76-12.35,2.29C263.65,141.46,261.25,151,265.32,150.78Z" fill="#fff"/><path d="M276.7,140.09c2.08-.59,12.62,1.76,12.35-2.29-.61-2.07,1.78-11.61-2.29-11.39-2.08.58-12.62-1.76-12.35,2.29C275,130.76,272.63,140.31,276.7,140.09Z" fill="#fff"/><path d="M276.7,162.82c2.08-.59,12.62,1.76,12.35-2.29-.61-2.07,1.78-11.61-2.29-11.39-2.08.59-12.62-1.76-12.35,2.29C275,153.5,272.63,163,276.7,162.82Z" fill="#fff"/><path d="M252.69,162.82c2.07-.59,12.62,1.76,12.35-2.29-.62-2.07,1.78-11.61-2.29-11.39-2.08.59-12.62-1.76-12.36,2.29C251,153.5,248.62,163,252.69,162.82Z" fill="#fff"/><path d="M265.32,172.17c2.08-.58,12.62,1.77,12.36-2.29-.62-2.06,1.77-11.61-2.3-11.39-2.07.59-12.62-1.76-12.35,2.29C263.65,162.85,261.25,172.4,265.32,172.17Z" fill="#fff"/><path d="M275.8,184.21c2.08-.59,12.62,1.76,12.35-2.29-.61-2.07,1.78-11.61-2.29-11.39-2.08.59-12.62-1.76-12.35,2.29C274.12,174.89,271.73,184.43,275.8,184.21Z" fill="#fff"/><path d="M252.69,184.21c2.07-.59,12.62,1.76,12.35-2.29-.62-2.07,1.78-11.61-2.29-11.39-2.08.59-12.62-1.76-12.36,2.29C251,174.89,248.62,184.43,252.69,184.21Z" fill="#fff"/><path d="M264.42,194.11c2.08-.59,12.62,1.76,12.36-2.3-.62-2.06,1.77-11.61-2.3-11.39-2.07.59-12.62-1.76-12.35,2.3C262.75,184.78,260.35,194.33,264.42,194.11Z" fill="#fff"/><path d="M275.8,206.14c2.08-.58,12.62,1.77,12.35-2.29-.61-2.06,1.78-11.61-2.29-11.39-2.08.59-12.62-1.76-12.35,2.3C274.12,196.82,271.73,206.37,275.8,206.14Z" fill="#fff"/><path d="M286.21,194.11c2.08-.59,12.62,1.76,12.35-2.3-.61-2.06,1.78-11.61-2.29-11.39-2.08.59-12.62-1.76-12.35,2.3C284.53,184.78,282.14,194.33,286.21,194.11Z" fill="#fff"/><path d="M297.59,206.14c2.08-.58,12.62,1.77,12.35-2.29-.62-2.06,1.78-11.61-2.29-11.39-2.08.59-12.62-1.76-12.36,2.3C295.91,196.82,293.52,206.37,297.59,206.14Z" fill="#fff"/><path d="M252.69,206.14c2.07-.58,12.62,1.77,12.35-2.29-.62-2.06,1.78-11.61-2.29-11.39-2.08.59-12.62-1.76-12.36,2.3C251,196.82,248.62,206.37,252.69,206.14Z" fill="#fff"/><path d="M264.42,217.18c2.08-.59,12.62,1.76,12.36-2.29-.62-2.07,1.77-11.61-2.3-11.39-2.07.58-12.62-1.76-12.35,2.29C262.75,207.85,260.35,217.4,264.42,217.18Z" fill="#fff"/><path d="M275.8,229.22c2.08-.59,12.62,1.76,12.35-2.3-.61-2.06,1.78-11.61-2.29-11.38-2.08.58-12.62-1.77-12.35,2.29C274.12,219.89,271.73,229.44,275.8,229.22Z" fill="#fff"/><path d="M286.21,217.18c2.08-.59,12.62,1.76,12.35-2.29-.61-2.07,1.78-11.61-2.29-11.39-2.08.58-12.62-1.76-12.35,2.29C284.53,207.85,282.14,217.4,286.21,217.18Z" fill="#fff"/><path d="M252.69,229.22c2.07-.59,12.62,1.76,12.35-2.3-.62-2.06,1.78-11.61-2.29-11.38-2.08.58-12.62-1.77-12.36,2.29C251,219.89,248.62,229.44,252.69,229.22Z" fill="#fff"/><path d="M309,217.18c2.08-.59,12.62,1.76,12.35-2.29-.61-2.07,1.78-11.61-2.29-11.39-2.08.58-12.62-1.76-12.35,2.29C307.29,207.85,304.9,217.4,309,217.18Z" fill="#fff"/><path d="M297.59,229.22c2.08-.59,12.62,1.76,12.35-2.3-.62-2.06,1.78-11.61-2.29-11.38-2.08.58-12.62-1.77-12.36,2.29C295.91,219.89,293.52,229.44,297.59,229.22Z" fill="#fff"/><path d="M198.92,128.36s6.38,56.09-35.29,82.68c2.36,4.29-2.61,7.37-2.61,7.37L172,237.06s31.74-7.93,60.48,0c0,0,4.3-5.77,13.52-5.77" fill="none" stroke="#fff" stroke-linecap="round" stroke-linejoin="round" stroke-width="5.4"/><path d="M293,128.36s-8.4,60.84,40.17,85.65L320,237.06s-31.74-7.93-60.48,0c0,0-4.29-5.77-13.51-5.77" fill="none" stroke="#fff" stroke-linecap="round" stroke-linejoin="round" stroke-width="5.4"/><path d="M251.38,108.81c.12,8.47-13.18,8.47-13.06,0C238.2,100.34,251.51,100.34,251.38,108.81Z" fill="none" stroke="#fff" stroke-linecap="round" stroke-miterlimit="10" stroke-width="0.9"/><path d="M250.39,108.9c.11,7.19-11.19,7.19-11.08,0C239.2,101.71,250.5,101.71,250.39,108.9Z" fill="none" stroke="#fff" stroke-linecap="round" stroke-miterlimit="10" stroke-width="0.9"/><line x1="244.85" y1="99.65" x2="244.85" y2="105.14" fill="none" stroke="#fff" stroke-linecap="round" stroke-miterlimit="10" stroke-width="1.8"/><path d="M178.11,162.86C157.3,220,107.72,202.57,127.2,145,148,87.87,197.59,105.28,178.11,162.86Z" fill="none" stroke="#fff" stroke-linecap="round" stroke-miterlimit="10" stroke-width="6.3"/><path d="M168.76,159.93c-14.45,39.75-47,28.32-33.41-11.73C149.79,108.44,182.34,119.88,168.76,159.93Z" fill="none" stroke="#fff" stroke-linecap="round" stroke-miterlimit="10" stroke-width="3.6"/><path d="M158.89,154.74c-6.39,18-21.45,12.72-15.18-5.33S165.17,136.69,158.89,154.74Z" fill="none" stroke="#fff" stroke-linecap="round" stroke-miterlimit="10" stroke-width="3.6"/><line x1="149.14" y1="127.33" x2="171.76" y2="139.9" fill="none" stroke="#fff" stroke-linecap="round" stroke-miterlimit="10" stroke-width="0.9"/><line x1="145.64" y1="132.77" x2="170.98" y2="146.86" fill="none" stroke="#fff" stroke-linecap="round" stroke-miterlimit="10" stroke-width="0.9"/><line x1="141.24" y1="137.6" x2="169.9" y2="153.53" fill="none" stroke="#fff" stroke-linecap="round" stroke-miterlimit="10" stroke-width="0.9"/><line x1="138.98" y1="142.51" x2="167.64" y2="158.44" fill="none" stroke="#fff" stroke-linecap="round" stroke-miterlimit="10" stroke-width="0.9"/><line x1="136.07" y1="148.57" x2="164.73" y2="164.5" fill="none" stroke="#fff" stroke-linecap="round" stroke-miterlimit="10" stroke-width="0.9"/><line x1="134.17" y1="154.63" x2="162.82" y2="170.55" fill="none" stroke="#fff" stroke-linecap="round" stroke-miterlimit="10" stroke-width="0.9"/><line x1="131.12" y1="160.78" x2="159.78" y2="176.71" fill="none" stroke="#fff" stroke-linecap="round" stroke-miterlimit="10" stroke-width="0.9"/><line x1="133.96" y1="168.07" x2="157.25" y2="181.01" fill="none" stroke="#fff" stroke-linecap="round" stroke-miterlimit="10" stroke-width="0.9"/><path d="M112.1,89.82s9.23,37.87,13.44,33.93c21.86-33.33,41.34-4.55,20.06-49.94" fill="none" stroke="#fff" stroke-linecap="round" stroke-miterlimit="10" stroke-width="0.9"/><path d="M121.11,83.49s7.28,28.7,10.4,32.17" fill="none" stroke="#fff" stroke-linecap="round" stroke-miterlimit="10" stroke-width="0.9"/><path d="M128.42,79.51s8.64,28.08,10.48,30" fill="none" stroke="#fff" stroke-linecap="round" stroke-miterlimit="10" stroke-width="0.9"/><path d="M136.89,75.85s8,23.37,9.93,29.12" fill="none" stroke="#fff" stroke-linecap="round" stroke-miterlimit="10" stroke-width="0.9"/><polyline points="116.03 143.33 100.67 157.87 108.35 185.67" fill="none" stroke="#fff" stroke-linecap="round" stroke-linejoin="round" stroke-width="1.8"/><path d="M313.36,162.86C334.17,220,383.75,202.57,364.27,145,343.46,87.87,293.88,105.28,313.36,162.86Z" fill="none" stroke="#fff" stroke-linecap="round" stroke-miterlimit="10" stroke-width="6.3"/><path d="M322.71,159.93c14.45,39.75,47,28.32,33.41-11.73C341.68,108.44,309.13,119.88,322.71,159.93Z" fill="none" stroke="#fff" stroke-linecap="round" stroke-miterlimit="10" stroke-width="3.6"/><path d="M332.58,154.74c6.39,18,21.45,12.72,15.18-5.33S326.3,136.69,332.58,154.74Z" fill="none" stroke="#fff" stroke-linecap="round" stroke-miterlimit="10" stroke-width="3.6"/><line x1="345.83" y1="132.77" x2="320.49" y2="146.86" fill="none" stroke="#fff" stroke-linecap="round" stroke-miterlimit="10" stroke-width="0.9"/><line x1="350.23" y1="137.6" x2="321.57" y2="153.53" fill="none" stroke="#fff" stroke-linecap="round" stroke-miterlimit="10" stroke-width="0.9"/><line x1="352.49" y1="142.51" x2="323.83" y2="158.44" fill="none" stroke="#fff" stroke-linecap="round" stroke-miterlimit="10" stroke-width="0.9"/><line x1="355.4" y1="148.57" x2="326.74" y2="164.5" fill="none" stroke="#fff" stroke-linecap="round" stroke-miterlimit="10" stroke-width="0.9"/><line x1="357.3" y1="154.63" x2="328.65" y2="170.55" fill="none" stroke="#fff" stroke-linecap="round" stroke-miterlimit="10" stroke-width="0.9"/><line x1="360.35" y1="160.78" x2="331.69" y2="176.71" fill="none" stroke="#fff" stroke-linecap="round" stroke-miterlimit="10" stroke-width="0.9"/><line x1="341.78" y1="127.33" x2="319.16" y2="139.9" fill="none" stroke="#fff" stroke-linecap="round" stroke-miterlimit="10" stroke-width="0.9"/><line x1="356.87" y1="169.06" x2="334.92" y2="181.26" fill="none" stroke="#fff" stroke-linecap="round" stroke-miterlimit="10" stroke-width="0.9"/><path d="M379.37,89.82s-9.23,37.87-13.44,33.93c-21.86-33.33-41.34-4.55-20.06-49.94" fill="none" stroke="#fff" stroke-linecap="round" stroke-miterlimit="10" stroke-width="0.9"/><path d="M370.88,83s-7.8,29.2-10.92,32.67" fill="none" stroke="#fff" stroke-linecap="round" stroke-miterlimit="10" stroke-width="0.9"/><path d="M364.07,78s-9.65,29.58-11.5,31.49" fill="none" stroke="#fff" stroke-linecap="round" stroke-miterlimit="10" stroke-width="0.9"/><path d="M355.77,74.9s-9.2,24.32-11.12,30.07" fill="none" stroke="#fff" stroke-linecap="round" stroke-miterlimit="10" stroke-width="0.9"/><polyline points="375.44 143.33 390.8 157.87 383.12 185.67" fill="none" stroke="#fff" stroke-linecap="round" stroke-linejoin="round" stroke-width="1.8"/><path d="M135.42,273.42h15.71C148.52,301,140.05,295.8,135.42,273.42Z" fill="#fff"/><path d="M148,273.42h15.71C161.12,301,152.65,295.8,148,273.42Z" fill="#fff"/><path d="M160.62,273.42h15.71C173.72,301,165.25,295.8,160.62,273.42Z" fill="#fff"/><path d="M173.25,273.42H189C186.35,301,177.88,295.8,173.25,273.42Z" fill="#fff"/><path d="M185.85,273.42h15.71C199,301,190.48,295.8,185.85,273.42Z" fill="#fff"/><path d="M198.25,273.42H214C211.35,301,202.88,295.8,198.25,273.42Z" fill="#fff"/><path d="M210.85,273.42h15.71C224,301,215.48,295.8,210.85,273.42Z" fill="#fff"/><path d="M223.48,273.42h15.71C236.58,301,228.11,295.8,223.48,273.42Z" fill="#fff"/><path d="M236.08,273.42h15.71C249.18,301,240.71,295.8,236.08,273.42Z" fill="#fff"/><path d="M261.63,273.42h15.71C274.73,301,266.26,295.8,261.63,273.42Z" fill="#fff"/><path d="M248.63,273.42h15.71C261.73,301,253.26,295.8,248.63,273.42Z" fill="#fff"/><path d="M274.23,273.42h15.71C287.33,301,278.86,295.8,274.23,273.42Z" fill="#fff"/><path d="M286.63,273.42h15.71C299.73,301,291.26,295.8,286.63,273.42Z" fill="#fff"/><path d="M299.23,273.42h15.71C312.33,301,303.86,295.8,299.23,273.42Z" fill="#fff"/><path d="M311.86,273.42h15.71C325,301,316.49,295.8,311.86,273.42Z" fill="#fff"/><path d="M324.46,273.42h15.71C337.56,301,329.09,295.8,324.46,273.42Z" fill="#fff"/><path d="M337.11,273.42h15.71C350.21,301,341.74,295.8,337.11,273.42Z" fill="#fff"/><path d="M349.74,273.42h15.71C362.84,301,354.37,295.8,349.74,273.42Z" fill="#fff"/><path d="M128.36,256.47c6.85,18.1,1.37,80.85,3,99.32,0,5.74-3.38,15.88-9.46,15.88" fill="none" stroke="#fff" stroke-linecap="round" stroke-linejoin="round" stroke-width="11.7"/><path d="M134.19,297.2c2.07,0,2.07,10.8,4.15,10.8s2.08-10.8,4.15-10.8,2.08,10.8,4.16,10.8,2.08-10.8,4.15-10.8S152.88,308,155,308s2.07-10.8,4.15-10.8,2.08,10.8,4.16,10.8,2.07-10.8,4.15-10.8,2.08,10.8,4.15,10.8,2.08-10.8,4.16-10.8,2.07,10.8,4.15,10.8S182,297.2,184,297.2s2.08,10.8,4.15,10.8,2.08-10.8,4.16-10.8,2.07,10.8,4.15,10.8,2.08-10.8,4.16-10.8,2.07,10.8,4.15,10.8,2.07-10.8,4.15-10.8S211,308,213.09,308s2.08-10.8,4.15-10.8,2.08,10.8,4.16,10.8,2.08-10.8,4.15-10.8,2.08,10.8,4.16,10.8,2.07-10.8,4.15-10.8S235.94,308,238,308s2.08-10.8,4.16-10.8,2.08,10.8,4.16,10.8,2.07-10.8,4.15-10.8,2.08,10.8,4.16,10.8,2.07-10.8,4.15-10.8S260.87,308,263,308s2.08-10.8,4.15-10.8,2.08,10.8,4.16,10.8,2.08-10.8,4.16-10.8,2.07,10.8,4.15,10.8,2.08-10.8,4.16-10.8,2.08,10.8,4.16,10.8S290,297.2,292,297.2s2.08,10.8,4.16,10.8,2.08-10.8,4.16-10.8,2.08,10.8,4.16,10.8,2.07-10.8,4.15-10.8,2.08,10.8,4.16,10.8,2.07-10.8,4.15-10.8,2.08,10.8,4.16,10.8,2.08-10.8,4.15-10.8,2.08,10.8,4.16,10.8,2.08-10.8,4.16-10.8,2.08,10.8,4.16,10.8,2.08-10.8,4.16-10.8S344,308,346.09,308s2.08-10.8,4.16-10.8,2.08,10.8,4.16,10.8,2.09-10.8,4.17-10.8,2.08,10.8,4.17,10.8" fill="none" stroke="#fff" stroke-linecap="round" stroke-linejoin="round" stroke-width="0.9"/><path d="M114.41,395.62c2.06,0,2.06,10.8,4.13,10.8s2.07-10.8,4.13-10.8,2.07,10.8,4.13,10.8,2.07-10.8,4.13-10.8,2.06,10.8,4.13,10.8,2.06-10.8,4.13-10.8,2.06,10.8,4.13,10.8,2.06-10.8,4.13-10.8,2.06,10.8,4.13,10.8,2.06-10.8,4.13-10.8,2.06,10.8,4.13,10.8,2.06-10.8,4.13-10.8,2.06,10.8,4.13,10.8,2.06-10.8,4.13-10.8,2.07,10.8,4.13,10.8,2.06-10.8,4.13-10.8,2.06,10.8,4.13,10.8,2.07-10.8,4.13-10.8,2.07,10.8,4.13,10.8,2.06-10.8,4.13-10.8,2.06,10.8,4.12,10.8,2.07-10.8,4.13-10.8,2.06,10.8,4.12,10.8,2.07-10.8,4.13-10.8,2.07,10.8,4.13,10.8,2.07-10.8,4.13-10.8,2.07,10.8,4.13,10.8,2.07-10.8,4.13-10.8,2.06,10.8,4.13,10.8,2.06-10.8,4.12-10.8,2.07,10.8,4.14,10.8,2.06-10.8,4.13-10.8,2.06,10.8,4.13,10.8,2.06-10.8,4.13-10.8,2.06,10.8,4.13,10.8,2.06-10.8,4.13-10.8,2.06,10.8,4.13,10.8,2.06-10.8,4.13-10.8,2.06,10.8,4.13,10.8,2.07-10.8,4.13-10.8,2.07,10.8,4.13,10.8,2.07-10.8,4.13-10.8,2.07,10.8,4.14,10.8,2.06-10.8,4.13-10.8,2.07,10.8,4.13,10.8,2.07-10.8,4.13-10.8,2.07,10.8,4.14,10.8,2.06-10.8,4.13-10.8,2.07,10.8,4.13,10.8,2.07-10.8,4.14-10.8,2.06,10.8,4.13,10.8,2.07-10.8,4.13-10.8,2.07,10.8,4.13,10.8,2.07-10.8,4.13-10.8,2.07,10.8,4.14,10.8,2.06-10.8,4.13-10.8,2.07,10.8,4.13,10.8,2.07-10.8,4.14-10.8,2.07,10.8,4.14,10.8,2.06-10.8,4.13-10.8,2.07,10.8,4.14,10.8,2.06-10.8,4.13-10.8,2.07,10.8,4.14,10.8,2.07-10.8,4.14-10.8,2.07,10.8,4.14,10.8" fill="none" stroke="#fff" stroke-linecap="round" stroke-linejoin="round" stroke-width="0.9"/><path d="M188.1,256.18a1.71,1.71,0,0,0-1.92-1.85v-.45a47,47,0,0,0,6.39,0v.45c-2.91-.3-1.77,4-2,5.59,1.06-1.2,6.63-4.6,3.09-5.59v-.45a35.34,35.34,0,0,0,5.91,0v.45c-2.53.29-4.18,2.43-6.06,3.91,1.63,1.74,3.93,7.35,6.71,7.43v.44c-2.22-.1-4.43-.1-6.65,0v-.37c3.67-.52-1.14-4.43-1.83-6.06l-1.17.93c.2,1.64-.9,5.37,1.94,5.06v.44c-2.13-.09-4.23-.1-6.35,0v-.44C189.6,266.29,187.61,257.9,188.1,256.18Z" fill="#fff" stroke="#fff" stroke-linecap="round" stroke-linejoin="round" stroke-width="1.35"/><path d="M212.94,257.75c-.27-2.27-1.89-3.23-4-3.05v8.85c-.16,1.51.52,2.22,2,2.19v.37c-2.19-.1-4.35-.09-6.56,0v-.37c1.53,0,2.2-.68,2-2.19V254.7c-2.14-.18-3.75.78-4,3.05h-.48a34.75,34.75,0,0,0,.18-3.87c3.7.14,7.35.14,11,0a37.34,37.34,0,0,0,.18,3.87Z" fill="#fff" stroke="#fff" stroke-linecap="round" stroke-linejoin="round" stroke-width="1.35"/><path d="M217.22,257.85a13.6,13.6,0,0,1,.29-4c3.44.09,6.84.2,10.27,0l.2.45c-3.21,3.39-5.79,7.29-8.69,10.95,3.07.34,7-.1,8.12-3.45h.46a18.06,18.06,0,0,1-1.59,4.28c-3.34-.1-6.67-.1-10,0l-.31-.39,8.72-11.17c-2.84.07-6.8-.38-7,3.3Z" fill="#fff" stroke="#fff" stroke-linecap="round" stroke-linejoin="round" stroke-width="1.35"/><path d="M273,257.75c-.27-2.27-1.88-3.23-4-3.05v8.85c-.16,1.51.52,2.22,2,2.19v.37c-2.2-.1-4.36-.09-6.56,0v-.37c1.52,0,2.2-.68,2-2.19V254.7c-2.14-.18-3.76.78-4,3.05H262a37.29,37.29,0,0,0,.19-3.87c3.69.14,7.35.14,11,0a37.29,37.29,0,0,0,.19,3.87Z" fill="#fff" stroke="#fff" stroke-linecap="round" stroke-linejoin="round" stroke-width="1.35"/><path d="M275.56,253.88a34,34,0,0,0,5.43,0v.45c-3.33-.19,1.38,6.85,1.42,8.72h0l2-5.17c-.68-1.55-.82-3.28-2.55-3.55v-.45a39.12,39.12,0,0,0,5.83,0v.45c-4-.15.86,6.79,1.08,8.84.32-2.15,5.05-8.34,1.28-8.84v-.45a23.52,23.52,0,0,0,4.44,0v.45c-3.84,1.86-4.3,8.36-6.35,11.95h-.65l-2.74-7.54c-1,2.58-2.08,5-3.14,7.54h-.55c-1.08-1.59-3-12.08-5.54-11.95Z" fill="#fff" stroke="#fff" stroke-linecap="round" stroke-linejoin="round" stroke-width="1.35"/><path d="M307.25,257.75c-.27-2.27-1.89-3.23-4-3.05v8.85c-.16,1.51.52,2.22,2,2.19v.37c-2.19-.1-4.35-.09-6.56,0v-.37c1.52,0,2.2-.68,2-2.19V254.7c-2.14-.18-3.75.78-4,3.05h-.48a37.34,37.34,0,0,0,.18-3.87c3.7.14,7.35.14,11.05,0a37.34,37.34,0,0,0,.18,3.87Z" fill="#fff" stroke="#fff" stroke-linecap="round" stroke-linejoin="round" stroke-width="1.35"/><path d="M321.59,258.79c-.36-4.75-7.34-6.13-8.13-.87-2,6.2,6.14,10,9.35,4.3l.45.46c-12,13.78-20.27-13.64-1.37-8.41a26.26,26.26,0,0,0,.16,4.52Z" fill="#fff" stroke="#fff" stroke-linecap="round" stroke-linejoin="round" stroke-width="1.35"/><path d="M148.05,326.65c-2-.54-11.55,1.65-11.32-2.19.53-2-1.65-11.55,2.18-11.32,2,.54,11.56-1.64,11.33,2.19C149.7,317.31,151.88,326.88,148.05,326.65Z" fill="#fff"/><path d="M167.34,326.65c-2-.54-11.55,1.65-11.32-2.19.54-2-1.64-11.55,2.19-11.32,2,.54,11.55-1.64,11.32,2.19C169,317.31,171.18,326.88,167.34,326.65Z" fill="#fff"/><path d="M158,335.91c-2-.54-11.56,1.65-11.33-2.19.54-2-1.64-11.55,2.19-11.32,2,.54,11.56-1.64,11.32,2.19C159.68,326.57,161.86,336.14,158,335.91Z" fill="#fff"/><path d="M341.65,326.65c-2-.54-11.55,1.65-11.32-2.19.54-2-1.64-11.55,2.19-11.32,2,.54,11.55-1.64,11.32,2.19C343.3,317.31,345.48,326.88,341.65,326.65Z" fill="#fff"/><path d="M361,326.65c-2-.54-11.56,1.65-11.33-2.19.54-2-1.64-11.55,2.19-11.32,2,.54,11.56-1.64,11.33,2.19C362.6,317.31,364.78,326.88,361,326.65Z" fill="#fff"/><path d="M351.63,335.91c-2-.54-11.56,1.65-11.33-2.19.54-2-1.64-11.55,2.19-11.32,2,.54,11.56-1.64,11.33,2.19C353.28,326.57,355.46,336.14,351.63,335.91Z" fill="#fff"/><path d="M224.33,326.65c-2-.54-11.56,1.65-11.32-2.19.53-2-1.65-11.55,2.18-11.32,2,.54,11.56-1.64,11.33,2.19C226,317.31,228.16,326.88,224.33,326.65Z" fill="#fff"/><path d="M243.62,326.65c-2-.54-11.55,1.65-11.32-2.19.54-2-1.64-11.55,2.19-11.32,2,.54,11.55-1.64,11.32,2.19C245.27,317.31,247.46,326.88,243.62,326.65Z" fill="#fff"/><path d="M234.3,335.91c-2-.54-11.55,1.65-11.32-2.19.54-2-1.64-11.55,2.19-11.32,2,.54,11.55-1.64,11.32,2.19C236,326.57,238.14,336.14,234.3,335.91Z" fill="#fff"/><path d="M214.33,335.91c-2-.54-11.55,1.65-11.32-2.19.53-2-1.65-11.55,2.18-11.32,2,.54,11.56-1.64,11.33,2.19C216,326.57,218.16,336.14,214.33,335.91Z" fill="#fff"/><path d="M264.11,326.65c-2-.54-11.55,1.65-11.32-2.19.54-2-1.64-11.55,2.19-11.32,2,.54,11.55-1.64,11.32,2.19C265.76,317.31,268,326.88,264.11,326.65Z" fill="#fff"/><path d="M283.41,326.65c-2-.54-11.56,1.65-11.33-2.19.54-2-1.64-11.55,2.19-11.32,2,.54,11.56-1.64,11.33,2.19C285.06,317.31,287.24,326.88,283.41,326.65Z" fill="#fff"/><path d="M274.09,335.91c-2-.54-11.55,1.65-11.32-2.19.54-2-1.65-11.55,2.18-11.32,2,.54,11.56-1.64,11.33,2.19C275.74,326.57,277.92,336.14,274.09,335.91Z" fill="#fff"/><path d="M293,335.91c-2-.54-11.55,1.65-11.32-2.19.53-2-1.65-11.55,2.18-11.32,2,.54,11.56-1.64,11.33,2.19C294.66,326.57,296.84,336.14,293,335.91Z" fill="#fff"/><path d="M254.11,335.91c-2-.54-11.55,1.65-11.32-2.19.54-2-1.64-11.55,2.19-11.32,2,.54,11.55-1.64,11.32,2.19C255.76,326.57,258,336.14,254.11,335.91Z" fill="#fff"/><path d="M297.21,316.32a28.56,28.56,0,0,0,5,0v.44c-2.35.22.53,3.14.88,4.18.43-1.12,3.11-4,.57-4.18v-.44a17.72,17.72,0,0,0,3.92,0v.44c-2.17.31-3,3.09-4.17,4.67,1.24,1.51,2.81,6.35,5.07,6.54v.44a54.66,54.66,0,0,0-5.58,0V328c3.05-.25-.32-3.48-.82-4.89-.57,1.38-3.88,4.78-.63,4.89v.44a33.18,33.18,0,0,0-4.46,0v-.51c2.42-.39,3.44-3.58,4.79-5.29-1.11-1.26-2.69-5.71-4.55-5.85Z" fill="#fff" stroke="#fff" stroke-linecap="round" stroke-linejoin="round" stroke-width="1.35"/><path d="M310,316.32a32.46,32.46,0,0,0,5.31,0v.44c-1.27-.06-1.8.82-1.7,2,.48,1.41-1.39,9.72,1.66,9.19l0,.44a49.32,49.32,0,0,0-5.3,0V328c1.1-.08,1.65-.34,1.66-1.43-.49-1.59,1.39-10.05-1.6-9.78Z" fill="#fff" stroke="#fff" stroke-linecap="round" stroke-linejoin="round" stroke-width="1.35"/><path d="M316.89,316.32a29.6,29.6,0,0,0,5.07,0v.44c-3.33.59,1.13,6.75,1.26,9.07.16-2.35,4.46-8.52,1.08-9.07v-.44a16.26,16.26,0,0,0,3.69,0v.44c-3.22,2.6-3.46,8.09-5.1,11.73h-.82c-1.93-3.53-1.83-9.46-5.18-11.73Z" fill="#fff" stroke="#fff" stroke-linecap="round" stroke-linejoin="round" stroke-width="1.35"/><path d="M171.05,316.32a32.46,32.46,0,0,0,5.31,0v.44c-2.49.18.54,3.13.94,4.18.49-1.13,3.29-4,.61-4.18v-.44a20.14,20.14,0,0,0,4.18,0v.44c-2.25.28-3.18,3.07-4.45,4.67,1.32,1.53,3.06,6.4,5.41,6.54v.44c-2-.1-4-.09-6,0V328c3.21-.21-.31-3.47-.88-4.89-.65,1.4-4.1,4.82-.67,4.89v.44a37.79,37.79,0,0,0-4.76,0v-.51c2.52-.34,3.67-3.55,5.11-5.29-1.18-1.28-2.91-5.74-4.85-5.85Z" fill="#fff" stroke="#fff" stroke-linecap="round" stroke-linejoin="round" stroke-width="1.35"/><path d="M184.68,316.32a36.88,36.88,0,0,0,5.66,0v.44c-3.29-.51-1.32,8.13-1.82,9.78,0,1.12.64,1.35,1.77,1.43l0,.44a56,56,0,0,0-5.65,0V328c1.13-.08,1.75-.31,1.77-1.43-.51-1.64,1.45-10.12-1.7-9.78Z" fill="#fff" stroke="#fff" stroke-linecap="round" stroke-linejoin="round" stroke-width="1.35"/><path d="M190.41,316.32a36.88,36.88,0,0,0,5.66,0v.44c-3.29-.51-1.32,8.13-1.82,9.78,0,1.12.64,1.35,1.77,1.43l0,.44a56,56,0,0,0-5.65,0V328c1.13-.08,1.75-.31,1.77-1.43-.51-1.64,1.44-10.12-1.7-9.78Z" fill="#fff" stroke="#fff" stroke-linecap="round" stroke-linejoin="round" stroke-width="1.35"/><path d="M195.91,316.32a36.88,36.88,0,0,0,5.66,0v.44c-3.28-.51-1.31,8.13-1.82,9.78,0,1.12.64,1.35,1.78,1.43l0,.44a56,56,0,0,0-5.65,0V328c1.14-.08,1.75-.31,1.78-1.43-.51-1.64,1.44-10.12-1.71-9.78Z" fill="#fff" stroke="#fff" stroke-linecap="round" stroke-linejoin="round" stroke-width="1.35"/><rect x="108.64" y="412.17" width="272.58" height="8.74" fill="#fff"/><polyline points="138.98 370.35 147.06 379.35 155.13 370.35 163.21 379.35 171.28 370.35 179.36 379.35 187.43 370.35 195.51 379.35 203.59 370.35 211.66 379.35 219.74 370.35 227.82 379.35 235.9 370.35 243.97 379.35 252.05 370.35 260.13 379.35 268.21 370.35 276.29 379.35 284.37 370.35 292.45 379.35 300.53 370.35 308.61 379.35 316.69 370.35 324.77 379.35 332.85 370.35 340.94 379.35 349.02 370.35 357.11 379.35 365.19 370.35" fill="none" stroke="#fff" stroke-linecap="round" stroke-linejoin="round" stroke-width="0.9"/><polygon points="350.38 367.8 357.06 375.3 363.89 367.87 350.38 367.8" fill="#fff"/><polygon points="350.38 367.8 357.06 375.3 363.89 367.87 350.38 367.8" fill="none" stroke="#fff" stroke-linecap="round" stroke-linejoin="round" stroke-width="1.8"/><polygon points="336.41 367.8 340.64 372.03 344.97 367.84 336.41 367.8" fill="#fff"/><polygon points="336.41 367.8 340.64 372.03 344.97 367.84 336.41 367.8" fill="none" stroke="#fff" stroke-linecap="round" stroke-linejoin="round" stroke-width="1.8"/><polygon points="317.98 367.8 324.66 375.3 331.49 367.87 317.98 367.8" fill="#fff"/><polygon points="317.98 367.8 324.66 375.3 331.49 367.87 317.98 367.8" fill="none" stroke="#fff" stroke-linecap="round" stroke-linejoin="round" stroke-width="1.8"/><polygon points="304 367.8 308.23 372.03 312.56 367.84 304 367.8" fill="#fff"/><polygon points="304 367.8 308.23 372.03 312.56 367.84 304 367.8" fill="none" stroke="#fff" stroke-linecap="round" stroke-linejoin="round" stroke-width="1.8"/><polygon points="285.72 367.8 292.4 375.3 299.23 367.87 285.72 367.8" fill="#fff"/><polygon points="285.72 367.8 292.4 375.3 299.23 367.87 285.72 367.8" fill="none" stroke="#fff" stroke-linecap="round" stroke-linejoin="round" stroke-width="1.8"/><polygon points="271.74 367.8 275.98 372.03 280.31 367.84 271.74 367.8" fill="#fff"/><polygon points="271.74 367.8 275.98 372.03 280.31 367.84 271.74 367.8" fill="none" stroke="#fff" stroke-linecap="round" stroke-linejoin="round" stroke-width="1.8"/><polygon points="253.51 367.8 260.19 375.3 267.02 367.87 253.51 367.8" fill="#fff"/><polygon points="253.51 367.8 260.19 375.3 267.02 367.87 253.51 367.8" fill="none" stroke="#fff" stroke-linecap="round" stroke-linejoin="round" stroke-width="1.8"/><polygon points="239.83 367.8 244.07 372.03 248.4 367.84 239.83 367.8" fill="#fff"/><polygon points="239.83 367.8 244.07 372.03 248.4 367.84 239.83 367.8" fill="none" stroke="#fff" stroke-linecap="round" stroke-linejoin="round" stroke-width="1.8"/><polygon points="221.16 367.8 227.84 375.3 234.66 367.87 221.16 367.8" fill="#fff"/><polygon points="221.16 367.8 227.84 375.3 234.66 367.87 221.16 367.8" fill="none" stroke="#fff" stroke-linecap="round" stroke-linejoin="round" stroke-width="1.8"/><polygon points="207.72 367.8 211.96 372.03 216.29 367.84 207.72 367.8" fill="#fff"/><polygon points="207.72 367.8 211.96 372.03 216.29 367.84 207.72 367.8" fill="none" stroke="#fff" stroke-linecap="round" stroke-linejoin="round" stroke-width="1.8"/><polygon points="188.85 367.8 195.53 375.3 202.36 367.87 188.85 367.8" fill="#fff"/><polygon points="188.85 367.8 195.53 375.3 202.36 367.87 188.85 367.8" fill="none" stroke="#fff" stroke-linecap="round" stroke-linejoin="round" stroke-width="1.8"/><polygon points="175.42 367.8 179.65 372.03 183.98 367.84 175.42 367.8" fill="#fff"/><polygon points="175.42 367.8 179.65 372.03 183.98 367.84 175.42 367.8" fill="none" stroke="#fff" stroke-linecap="round" stroke-linejoin="round" stroke-width="1.8"/><polygon points="156.34 367.8 163.02 375.3 169.85 367.87 156.34 367.8" fill="#fff"/><polygon points="156.34 367.8 163.02 375.3 169.85 367.87 156.34 367.8" fill="none" stroke="#fff" stroke-linecap="round" stroke-linejoin="round" stroke-width="1.8"/><polygon points="142.91 367.8 147.14 372.03 151.47 367.84 142.91 367.8" fill="#fff"/><polygon points="142.91 367.8 147.14 372.03 151.47 367.84 142.91 367.8" fill="none" stroke="#fff" stroke-linecap="round" stroke-linejoin="round" stroke-width="1.8"/><path d="M148.68,206.47h.25v6.71l.11.17,1,.05v.45H147v-.46l1.05-.07.11-.18v-5.81l-1.43.3v-.45Z" fill="#fff" stroke="#fff" stroke-linecap="round" stroke-linejoin="round" stroke-width="0.9"/><path d="M154.71,210c2.64.22,1.69,4.2-.71,3.93-1.17.33-2.79-1.79-1-1.68l.29.91c2.36,1.46,3.21-3.51.37-2.75v-.64c2.54.42,1.73-4-.42-2.47v1c-1.89.47-.29-2.32,1.06-1.88C156.39,206.36,156.72,209.55,154.71,210Z" fill="#fff" stroke="#fff" stroke-linecap="round" stroke-linejoin="round" stroke-width="0.9"/><path d="M162.51,64.61c43,92.13,127.45,83.18,162.5-3.17" fill="none" stroke="#fff" stroke-linecap="round" stroke-miterlimit="10" stroke-width="0.9"/><path d="M131.32,237c6.37,10.41,14,22.05,16.56,23" fill="none" stroke="#fff" stroke-linecap="round" stroke-linejoin="round" stroke-width="0.9"/><line x1="138.53" y1="215.87" x2="138.53" y2="248.08" fill="none" stroke="#fff" stroke-linecap="round" stroke-linejoin="round" stroke-width="0.9"/><line x1="146.7" y1="219.19" x2="146.7" y2="247.21" fill="none" stroke="#fff" stroke-linecap="round" stroke-linejoin="round" stroke-width="0.9"/><path d="M155.89,253c.12,8.07-12.55,8.07-12.43,0C143.35,244.91,156,244.91,155.89,253Z" fill="none" stroke="#fff" stroke-linecap="round" stroke-linejoin="round" stroke-width="0.9"/><path d="M148.4,253.66c-3.36-7.21-2.26,11.06,3.17,3.13" fill="none" stroke="#fff" stroke-linecap="round" stroke-miterlimit="10" stroke-width="1.8"/><path d="M149.68,260.43s8.8,3.46,14.86.81" fill="none" stroke="#fff" stroke-linecap="round" stroke-miterlimit="10" stroke-width="4.5"/><path d="M371.89,256.47c-6.85,18.1-1.37,80.85-3,99.32,0,5.74,3.38,15.88,9.46,15.88" fill="none" stroke="#fff" stroke-linecap="round" stroke-linejoin="round" stroke-width="11.7"/><path d="M368.89,237c-6.36,10.4-13.95,22-16.52,22.95" fill="none" stroke="#fff" stroke-linecap="round" stroke-linejoin="round" stroke-width="0.9"/><line x1="361.73" y1="215.87" x2="361.73" y2="248.08" fill="none" stroke="#fff" stroke-linecap="round" stroke-linejoin="round" stroke-width="0.9"/><line x1="353.55" y1="219.19" x2="353.55" y2="247.21" fill="none" stroke="#fff" stroke-linecap="round" stroke-linejoin="round" stroke-width="0.9"/><path d="M344.36,253c-.12,8.07,12.55,8.07,12.43,0C356.91,244.91,344.24,244.91,344.36,253Z" fill="none" stroke="#fff" stroke-linecap="round" stroke-linejoin="round" stroke-width="0.9"/><path d="M351.85,253.66c3.36-7.21,2.27,11.06-3.17,3.13" fill="none" stroke="#fff" stroke-linecap="round" stroke-miterlimit="10" stroke-width="1.8"/><path d="M350.57,260.43s-8.8,3.46-14.86.81" fill="none" stroke="#fff" stroke-linecap="round" stroke-miterlimit="10" stroke-width="4.5"/><polygon points="286.69 114.45 288.21 107.05 290.22 114.45 286.69 114.45" fill="#fff" stroke="#fff" stroke-linecap="round" stroke-linejoin="round" stroke-width="0.9"/><polygon points="290.22 114.43 288.7 121.83 286.69 114.43 290.22 114.43" fill="#fff" stroke="#fff" stroke-linecap="round" stroke-linejoin="round" stroke-width="0.9"/><polygon points="288.45 112.68 295.85 114.2 288.45 116.2 288.45 112.68" fill="#fff" stroke="#fff" stroke-linecap="round" stroke-linejoin="round" stroke-width="0.9"/><polygon points="288.46 116.2 281.06 114.68 288.46 112.68 288.46 116.2" fill="#fff" stroke="#fff" stroke-linecap="round" stroke-linejoin="round" stroke-width="0.9"/><polygon points="289.23 113.66 291.84 117.62 287.66 115.23 289.23 113.66" fill="#fff" stroke="#fff" stroke-linecap="round" stroke-linejoin="round" stroke-width="0.9"/><polygon points="287.67 115.23 285.06 111.28 289.24 113.67 287.67 115.23" fill="#fff" stroke="#fff" stroke-linecap="round" stroke-linejoin="round" stroke-width="0.9"/><polygon points="289.24 115.23 285.27 117.84 287.67 113.66 289.24 115.23" fill="#fff" stroke="#fff" stroke-linecap="round" stroke-linejoin="round" stroke-width="0.9"/><polygon points="287.66 113.67 291.62 111.06 289.23 115.23 287.66 113.67" fill="#fff" stroke="#fff" stroke-linecap="round" stroke-linejoin="round" stroke-width="0.9"/><path d="M169,248.43a1.37,1.37,0,0,1-1.35-1.33c-1.44,2.72-3.18-.85-3.69-2.24a1.35,1.35,0,0,1,2.43-1.18c.15.42,1.38,2.57,1.32,3C171.57,242.35,176.33,247,169,248.43ZM324,247.72c-3.1.19-4.42-3.82-.64-2.94C325.93,242.37,326.89,247.23,324,247.72Zm-90.58-1.33c-5.46-.39-5-5,.4-2.64l-.39,1.28.74,1.15A1.44,1.44,0,0,1,233.43,246.39Zm-58.54-.06c-4.32-1.25,2.89-5.28,3.9-2.46C179.18,245.91,176.16,245.87,174.89,246.33Zm144,0c-1.36-.46-4.24-.28-3.93-2.34C315.81,241.16,323.39,245,318.91,246.31ZM257.15,246c-1.27-.59-4.23-1.58-3.47-3.41C255.1,240.13,261.08,245.19,257.15,246Zm3.21-.75c-3.41-1.13.2-3.29,2.16-3.51a1.35,1.35,0,0,1,1.69.89C264.65,244.61,261.63,244.71,260.36,245.22Zm52.43-.4c-1.37-.43-4.2-.12-4-2.19C309.57,239.75,317.32,243.38,312.79,244.82Zm-85.42-.06c-1.36-.44-4.21-.15-4-2.21a1.36,1.36,0,0,1,1.6-1.05C227,241.5,230.92,243.42,227.37,244.76Zm9.26-.06c-4.22-1.1,2.7-5.51,3.79-2.76C240.89,243.92,237.93,244.14,236.63,244.7Zm-55.65,0c-4.53-1.42,3.18-5.09,4-2.2C185.19,244.54,182.28,244.26,181,244.69Zm145.32-1c-2.66-.28-.5-3.2.17-4.36a1.35,1.35,0,0,1,2.35,1.34C328.26,241.41,327.5,243.87,326.3,243.72Zm-19.68-.15c-1.38-.39-4.15,0-4-2a1.36,1.36,0,0,1,1.55-1.12c1.29.37,4,0,3.77,2A1.35,1.35,0,0,1,306.62,243.57Zm-85.42-.07c-1.37-.38-4.13.1-4-2C217.8,238.54,225.8,241.94,221.2,243.5Zm-34-.05a1.36,1.36,0,0,1-1.33-1.13c-.17-2,2.45-1.62,3.81-2a1.35,1.35,0,0,1,1.53,1.14C191.29,243.55,188.48,243.07,187.15,243.45Zm79.24,0c-4.53-1.43,3.21-5.1,4-2.17C270.59,243.29,267.66,243,266.39,243.41Zm-14.85-.22c-1.31-.51-4.08-.07-4-2.08C248.24,238,256,241.75,251.54,243.19Zm-8.91-.37c-4.69-1.67,3.62-4.95,4-1.74C246.61,243.1,244,242.4,242.63,242.82ZM215,242.63c-1.38-.32-4,.34-4-1.72C211.35,237.87,219.71,240.87,215,242.63Zm-21.56,0c-4.76-1.76,3.6-4.75,4-1.7C197.44,242.94,194.73,242.29,193.4,242.59Zm107,0c-1.39-.34-4.09.22-4-1.84C296.9,237.74,305.09,240.92,300.4,242.58Zm-136.84-.19c-1.27.16-3.59-4.47-1.78-5,1.72-.9,2.38,2.08,3,3A1.36,1.36,0,0,1,163.56,242.39Zm109-.13c-4.69-1.67,3.5-4.85,4-1.81C276.67,242.5,273.88,241.92,272.58,242.26Zm-63.9-.12c-1.38-.23-3.94.57-4.05-1.46.2-2,2.72-1.13,4.11-1.23A1.35,1.35,0,0,1,208.68,242.14Zm-9,0a1.35,1.35,0,0,1-1.35-1.29c.07-2.05,2.66-1.3,4-1.49a1.35,1.35,0,0,1,1.35,1.33C203.62,242.71,201,241.9,199.68,242.13Zm94.45-.24c-1.38-.29-4,.41-4-1.64C290.44,237.2,298.93,240.05,294.13,241.89Zm-15.28-.25a1.36,1.36,0,0,1-1.35-1.27c.05-2,2.6-1.35,4-1.55a1.33,1.33,0,0,1,1.4,1.3C282.82,242.16,280.16,241.39,278.85,241.64Zm9-.12c-1.4-.22-3.91.62-4.05-1.41.17-2,2.68-1.17,4.09-1.29A1.35,1.35,0,0,1,287.85,241.52Zm41.58-3.26c-2.66-.28-.49-3.21.18-4.37a1.35,1.35,0,0,1,2.34,1.35C331.39,236,330.63,238.41,329.43,238.26ZM160.8,236.72c-1.27.17-3.59-4.46-1.77-5,1.72-.89,2.37,2.08,3,3.05A1.35,1.35,0,0,1,160.8,236.72Zm171.77-3.93c-2.66-.28-.5-3.2.17-4.36a1.35,1.35,0,0,1,2.34,1.34C334.53,230.48,333.77,232.94,332.57,232.79ZM158,231.06c-1.28.15-1.87-2.42-2.39-3.19a1.35,1.35,0,0,1,2.43-1.18C158.63,227.88,160.62,230.83,158,231.06Zm177.66-3.73c-2.66-.28-.49-3.21.18-4.37a1.35,1.35,0,0,1,2.34,1.35C337.66,225,336.9,227.48,335.7,227.33Zm-180.41-1.94c-1.27.17-3.59-4.46-1.77-5,1.72-.89,2.37,2.08,3,3A1.35,1.35,0,0,1,155.29,225.39Zm183.55-3.53c-2.67-.28-.5-3.2.17-4.36a1.35,1.35,0,0,1,2.34,1.34C340.79,219.55,340,222,338.84,221.86Zm-186.28-6.5c.39,1.08,2.33,3.42.56,4.23s-2.38-2.08-3-3.05M342,216.4c-2.66-.28-.5-3.21.17-4.36a1.35,1.35,0,0,1,2.35,1.34C343.93,214.09,343.17,216.55,342,216.4Zm2.7-5.29a16.83,16.83,0,0,1-3-1,1.35,1.35,0,0,1,.95-2.52C345.07,208.15,347.88,209.93,344.67,211.11Zm-5.9-2.27c-1.25-.47-4.42-1.15-3.65-3.12C336.5,203.36,342.83,207.9,338.77,208.84ZM157.4,204.17c4.86-4.51,5.91,1,.79,2.44m175-.63c-1.29-.5-4.41-1.57-3.47-3.45C331.18,200.37,337.05,205.19,333.15,206Zm-169.94-3.16c-3.64-.57,1.45-5.79,3.12-3.94C167.51,200.58,164.54,202.32,163.21,202.82Zm164.61-.21c-1.3-.49-4.36-2-3.26-3.75C326.17,196.9,331.56,202,327.82,202.61Zm-5-3.84c-1.31-.46-4.28-2.4-3-4.05C321.53,193,326.4,198.25,322.82,198.77Zm-154.82,0c-4.9-1.24,5.15-7.81,2.91-2.22C170,197.22,169.23,198.58,168,198.73Zm150.22-4.26c-1.34-.42-4.16-2.82-2.74-4.33C317.3,188.62,321.61,194.07,318.22,194.47Zm-145.7-.12c-3.39-.41.94-5.88,2.75-4.33C176.67,191.53,173.88,193.9,172.52,194.35Zm141.54-4.6c-2.88-.65-4.34-6.65-.54-4.29C314.47,186.67,316.85,189.25,314.06,189.75Zm-137.33-.09c-3.26-.34.64-5.9,2.52-4.52C180.76,186.53,178.1,189.25,176.73,189.66Zm3.83-5c-3.1-.26.33-5.9,2.25-4.71C184.43,181.2,182,184.3,180.56,184.66Zm129.84,0c-1.44-.32-3.78-3.65-2.09-4.82C310.26,178.74,313.4,184.41,310.4,184.63ZM184,179.37c-2.94-.2,0-5.89,1.95-4.9C187.65,175.56,185.44,179.06,184,179.37Zm123.3-.2c-1.51-.27-3.53-4-1.73-5C307.54,173.32,310.08,179,307.27,179.17Zm-120.38-5.38c-2.76-.14-.4-5.84,1.61-5.06C190.33,169.64,188.43,173.53,186.89,173.79Zm117.81-.36c-1.6-.22-3.26-4.37-1.37-5.16C305.36,167.64,307.33,173.32,304.7,173.43ZM189.27,168c-2.57-.1-.8-5.76,1.23-5.21C192.43,163.48,190.91,167.76,189.27,168Zm113.42-.51c-1.7-.17-3-4.66-1-5.27C303.73,161.77,305.16,167.38,302.69,167.46Zm-111.63-5.52c-2.39.07-1.15-5.78.83-5.32S192.82,161.78,191.06,161.94Zm110.17-.6c-1.8-.13-2.68-4.91-.67-5.34S303.54,161.42,301.23,161.34Zm-109-5.59c-2.19.08-1.57-5.63.42-5.38S194.11,155.63,192.22,155.75Zm108.08-.63c-1.89,0-2.37-5.29-.34-5.39S302.46,155.2,300.3,155.12Zm-107.57-5.65c-2,.08-2-5.44,0-5.4S194.78,149.38,192.73,149.47Zm107-.62c-1.8.13-2.43-5.31-.46-5.38C301.26,143.07,301.92,149,299.72,148.85ZM192.6,143.18c-1.85,0-2.35-5.22-.4-5.38C194.3,137.64,194.81,143.1,192.6,143.18ZM299,142.59c-1.94-.11-2.35-5.17-.29-5.39S301.16,142.67,299,142.59Zm-107.18-5.66c-1.71,0-2.69-5-.78-5.33C193.18,131.23,194.21,136.85,191.85,136.93Zm106.87-.63c-2.12-.08-1.91-5.46.2-5.39C300.86,131,300.66,136.36,298.72,136.3Zm-108.2-5.53c-1.6,0-3-4.71-1.13-5.23C191.49,125,193,130.68,190.52,130.77ZM299.21,130c-2.34-.07-1.38-5.68.74-5.33C301.86,125,300.93,130.05,299.21,130Zm-110.55-5.27c-1.57-.22-3.24-4.29-1.45-5.14C189.29,118.88,191.32,124.64,188.66,124.76Zm111.86-.88c-2.54-.09-.93-5.82,1.18-5.22C303.56,119.22,302.09,123.84,300.52,123.88Zm-114.2-5c-1.5-.26-3.44-4-1.72-5C186.65,113,189.13,118.76,186.32,118.91Zm116.15-1c-2.69-.12-.58-5.88,1.5-5.11C305.76,113.67,304,117.68,302.47,117.9Zm-118.9-4.65c-1.45-.31-3.62-3.79-2-4.89C183.62,107.29,186.5,113.06,183.57,113.25Zm121.32-1.16c-2.81-.15-.32-5.92,1.72-5C308.35,108.07,306.37,111.83,304.89,112.09Zm-124.45-4.31c-1.4-.34-3.76-3.55-2.17-4.77C180.24,101.81,183.49,107.54,180.44,107.78Zm127.19-1.36c-2.9-.18-.13-5.93,1.89-4.93C311.21,102.57,309.08,106.14,307.63,106.42ZM177,102.51c-1.38-.38-3.88-3.34-2.36-4.64C176.58,96.54,180.16,102.23,177,102.51Zm133.62-1.63c-3-.2,0-5.94,2-4.86C314.29,97.16,312.05,100.57,310.62,100.88ZM173.28,97.43c-1.36-.4-4-3.13-2.52-4.52C172.65,91.47,176.53,97.1,173.28,97.43Zm140.51-2c-3-.22.12-5.94,2.11-4.8C317.52,91.82,315.2,95.12,313.79,95.44Zm-144.48-2.9c-1.3-.13-1.86-1.7-2.78-2.5a1.35,1.35,0,0,1,2-1.79C169.66,89.37,172.16,92,169.31,92.54ZM317.1,90.09c-3.06-.24.22-6,2.19-4.76C320.89,86.55,318.5,89.75,317.1,90.09Zm-152-2.26c-2.33-.27-5.14-6-.88-4.25C165.43,84.64,168,87.25,165.13,87.83Zm155.39-3c-3.09-.25.3-6,2.25-4.71C324.35,81.34,321.92,84.45,320.52,84.8ZM160.76,83.29c-1.31-.47-4.17-2.61-2.89-4.19C159.64,77.39,164.25,82.83,160.76,83.29ZM324,79.58c-2.73-.46-.48-3.1.42-4.34a1.35,1.35,0,0,1,2.22,1.53C325.83,77.7,325.42,79.46,324,79.58Zm-167.81-.67c-1.31-.48-4.21-2.45-3-4.08a1.36,1.36,0,0,1,1.91-.09C156.45,75.7,159.21,78.27,156.23,78.91Zm171.4-4.51c-3.15-.27.41-5.94,2.34-4.65C331.52,71.05,329,74,327.63,74.4Z" fill="none" stroke="#fff" stroke-linecap="round" stroke-linejoin="round" stroke-width="0.9"/><path d="M143.85,343.57c.07,5.18-8.06,5.18-8,0S143.92,338.39,143.85,343.57Z" fill="none" stroke="#fff" stroke-linecap="round" stroke-linejoin="round" stroke-width="0.9"/><path d="M149.08,343.57c.08,5.18-8.06,5.18-8,0C141,338.39,149.16,338.39,149.08,343.57Z" fill="none" stroke="#fff" stroke-linecap="round" stroke-linejoin="round" stroke-width="0.9"/><path d="M154.27,343.57c.08,5.18-8.06,5.18-8,0C146.21,338.39,154.35,338.39,154.27,343.57Z" fill="none" stroke="#fff" stroke-linecap="round" stroke-linejoin="round" stroke-width="0.9"/><path d="M159.51,343.57c.07,5.18-8.07,5.18-8,0C151.45,338.39,159.58,338.39,159.51,343.57Z" fill="none" stroke="#fff" stroke-linecap="round" stroke-linejoin="round" stroke-width="0.9"/><path d="M165,343.57c.08,5.18-8.06,5.18-8,0C157,338.39,165.11,338.39,165,343.57Z" fill="none" stroke="#fff" stroke-linecap="round" stroke-linejoin="round" stroke-width="0.9"/><path d="M170.26,343.57c.08,5.18-8.06,5.18-8,0C162.2,338.39,170.34,338.39,170.26,343.57Z" fill="none" stroke="#fff" stroke-linecap="round" stroke-linejoin="round" stroke-width="0.9"/><path d="M175.46,343.57c.07,5.18-8.06,5.18-8,0S175.53,338.39,175.46,343.57Z" fill="none" stroke="#fff" stroke-linecap="round" stroke-linejoin="round" stroke-width="0.9"/><path d="M180.69,343.57c.07,5.18-8.06,5.18-8,0S180.76,338.39,180.69,343.57Z" fill="none" stroke="#fff" stroke-linecap="round" stroke-linejoin="round" stroke-width="0.9"/><path d="M186.06,343.57c.07,5.18-8.07,5.18-8,0S186.13,338.39,186.06,343.57Z" fill="none" stroke="#fff" stroke-linecap="round" stroke-linejoin="round" stroke-width="0.9"/><path d="M191.29,343.57c.07,5.18-8.06,5.18-8,0S191.36,338.39,191.29,343.57Z" fill="none" stroke="#fff" stroke-linecap="round" stroke-linejoin="round" stroke-width="0.9"/><path d="M196.48,343.57c.08,5.18-8.06,5.18-8,0C188.42,338.39,196.56,338.39,196.48,343.57Z" fill="none" stroke="#fff" stroke-linecap="round" stroke-linejoin="round" stroke-width="0.9"/><path d="M201.71,343.57c.08,5.18-8.06,5.18-8,0C193.65,338.39,201.79,338.39,201.71,343.57Z" fill="none" stroke="#fff" stroke-linecap="round" stroke-linejoin="round" stroke-width="0.9"/><path d="M207.36,343.57c.08,5.18-8.06,5.18-8,0C199.3,338.39,207.44,338.39,207.36,343.57Z" fill="none" stroke="#fff" stroke-linecap="round" stroke-linejoin="round" stroke-width="0.9"/><path d="M212.59,343.57c.08,5.18-8.06,5.18-8,0C204.53,338.39,212.67,338.39,212.59,343.57Z" fill="none" stroke="#fff" stroke-linecap="round" stroke-linejoin="round" stroke-width="0.9"/><path d="M217.79,343.57c.07,5.18-8.06,5.18-8,0S217.86,338.39,217.79,343.57Z" fill="none" stroke="#fff" stroke-linecap="round" stroke-linejoin="round" stroke-width="0.9"/><path d="M223,343.57c.07,5.18-8.06,5.18-8,0S223.09,338.39,223,343.57Z" fill="none" stroke="#fff" stroke-linecap="round" stroke-linejoin="round" stroke-width="0.9"/><path d="M228.54,343.57c.08,5.18-8.06,5.18-8,0C220.48,338.39,228.62,338.39,228.54,343.57Z" fill="none" stroke="#fff" stroke-linecap="round" stroke-linejoin="round" stroke-width="0.9"/><path d="M233.77,343.57c.08,5.18-8.06,5.18-8,0C225.71,338.39,233.85,338.39,233.77,343.57Z" fill="none" stroke="#fff" stroke-linecap="round" stroke-linejoin="round" stroke-width="0.9"/><path d="M239,343.57c.07,5.18-8.06,5.18-8,0S239,338.39,239,343.57Z" fill="none" stroke="#fff" stroke-linecap="round" stroke-linejoin="round" stroke-width="0.9"/><path d="M244.2,343.57c.07,5.18-8.06,5.18-8,0S244.28,338.39,244.2,343.57Z" fill="none" stroke="#fff" stroke-linecap="round" stroke-linejoin="round" stroke-width="0.9"/><path d="M249.57,343.57c.07,5.18-8.06,5.18-8,0S249.64,338.39,249.57,343.57Z" fill="none" stroke="#fff" stroke-linecap="round" stroke-linejoin="round" stroke-width="0.9"/><path d="M254.8,343.57c.07,5.18-8.06,5.18-8,0S254.87,338.39,254.8,343.57Z" fill="none" stroke="#fff" stroke-linecap="round" stroke-linejoin="round" stroke-width="0.9"/><path d="M260,343.57c.08,5.18-8.06,5.18-8,0C251.93,338.39,260.07,338.39,260,343.57Z" fill="none" stroke="#fff" stroke-linecap="round" stroke-linejoin="round" stroke-width="0.9"/><path d="M265.22,343.57c.08,5.18-8.06,5.18-8,0C257.16,338.39,265.3,338.39,265.22,343.57Z" fill="none" stroke="#fff" stroke-linecap="round" stroke-linejoin="round" stroke-width="0.9"/><path d="M270.75,343.57c.08,5.18-8.06,5.18-8,0C262.69,338.39,270.83,338.39,270.75,343.57Z" fill="none" stroke="#fff" stroke-linecap="round" stroke-linejoin="round" stroke-width="0.9"/><path d="M276,343.57c.08,5.18-8.06,5.18-8,0C267.92,338.39,276.06,338.39,276,343.57Z" fill="none" stroke="#fff" stroke-linecap="round" stroke-linejoin="round" stroke-width="0.9"/><path d="M281.18,343.57c.07,5.18-8.07,5.18-8,0S281.25,338.39,281.18,343.57Z" fill="none" stroke="#fff" stroke-linecap="round" stroke-linejoin="round" stroke-width="0.9"/><path d="M286.41,343.57c.07,5.18-8.06,5.18-8,0S286.48,338.39,286.41,343.57Z" fill="none" stroke="#fff" stroke-linecap="round" stroke-linejoin="round" stroke-width="0.9"/><path d="M291.93,343.57c.08,5.18-8.06,5.18-8,0C283.87,338.39,292,338.39,291.93,343.57Z" fill="none" stroke="#fff" stroke-linecap="round" stroke-linejoin="round" stroke-width="0.9"/><path d="M297.16,343.57c.08,5.18-8.06,5.18-8,0C289.1,338.39,297.24,338.39,297.16,343.57Z" fill="none" stroke="#fff" stroke-linecap="round" stroke-linejoin="round" stroke-width="0.9"/><path d="M302.36,343.57c.07,5.18-8.06,5.18-8,0S302.43,338.39,302.36,343.57Z" fill="none" stroke="#fff" stroke-linecap="round" stroke-linejoin="round" stroke-width="0.9"/><path d="M307.59,343.57c.07,5.18-8.06,5.18-8,0S307.66,338.39,307.59,343.57Z" fill="none" stroke="#fff" stroke-linecap="round" stroke-linejoin="round" stroke-width="0.9"/><path d="M313,343.57c.07,5.18-8.06,5.18-8,0S313,338.39,313,343.57Z" fill="none" stroke="#fff" stroke-linecap="round" stroke-linejoin="round" stroke-width="0.9"/><path d="M318.19,343.57c.07,5.18-8.06,5.18-8,0S318.26,338.39,318.19,343.57Z" fill="none" stroke="#fff" stroke-linecap="round" stroke-linejoin="round" stroke-width="0.9"/><path d="M323.38,343.57c.08,5.18-8.06,5.18-8,0C315.32,338.39,323.46,338.39,323.38,343.57Z" fill="none" stroke="#fff" stroke-linecap="round" stroke-linejoin="round" stroke-width="0.9"/><path d="M328.61,343.57c.08,5.18-8.06,5.18-8,0C320.55,338.39,328.69,338.39,328.61,343.57Z" fill="none" stroke="#fff" stroke-linecap="round" stroke-linejoin="round" stroke-width="0.9"/><path d="M334,343.57c.07,5.18-8.06,5.18-8,0S334.05,338.39,334,343.57Z" fill="none" stroke="#fff" stroke-linecap="round" stroke-linejoin="round" stroke-width="0.9"/><path d="M339.21,343.57c.07,5.18-8.06,5.18-8,0S339.28,338.39,339.21,343.57Z" fill="none" stroke="#fff" stroke-linecap="round" stroke-linejoin="round" stroke-width="0.9"/><path d="M344.4,343.57c.08,5.18-8.06,5.18-8,0C336.34,338.39,344.48,338.39,344.4,343.57Z" fill="none" stroke="#fff" stroke-linecap="round" stroke-linejoin="round" stroke-width="0.9"/><path d="M349.63,343.57c.08,5.18-8.06,5.18-8,0C341.57,338.39,349.71,338.39,349.63,343.57Z" fill="none" stroke="#fff" stroke-linecap="round" stroke-linejoin="round" stroke-width="0.9"/><path d="M355.16,343.57c.07,5.18-8.06,5.18-8,0S355.23,338.39,355.16,343.57Z" fill="none" stroke="#fff" stroke-linecap="round" stroke-linejoin="round" stroke-width="0.9"/><path d="M360.39,343.57c.07,5.18-8.06,5.18-8,0C352.33,338.39,360.47,338.39,360.39,343.57Z" fill="none" stroke="#fff" stroke-linecap="round" stroke-linejoin="round" stroke-width="0.9"/><path d="M365.58,343.57c.08,5.18-8.06,5.18-8,0C357.52,338.39,365.66,338.39,365.58,343.57Z" fill="none" stroke="#fff" stroke-linecap="round" stroke-linejoin="round" stroke-width="0.9"/><rect x="70.01" y="341.21" width="7.54" height="75.24" transform="matrix(0.07, -1, 1, 0.07, -309.17, 426.82)" fill="#fff"/><path d="M77.74,200.42c-3.24,38.14-60,34.29-58.11-3.94C22.87,158.33,79.68,162.19,77.74,200.42Z" fill="none" stroke="#fff" stroke-linecap="round" stroke-miterlimit="10" stroke-width="5.43"/><path d="M68.51,199.44c-2.25,26.5-41.72,23.83-40.38-2.74C30.39,170.2,69.86,172.88,68.51,199.44Z" fill="none" stroke="#fff" stroke-linecap="round" stroke-miterlimit="10" stroke-width="5.43"/><path d="M61,198.86c-1.19,16.43-26.19,14.73-25.14-1.71S62.08,182.41,61,198.86Z" fill="#fff"/><path d="M80.58,194.78c1.82.12,1.19,9.41,3,9.53s2.45-9.16,4.26-9,1.19,9.41,3,9.53,2.45-9.16,4.26-9,1.19,9.41,3,9.53,2.45-9.16,4.27-9,1.18,9.4,3,9.53,2.44-9.16,4.26-9,1.19,9.4,3,9.53,2.45-9.16,4.26-9,1.19,9.41,3,9.53,2.45-9.16,4.27-9" fill="none" stroke="#fff" stroke-linecap="round" stroke-linejoin="round" stroke-width="0.75"/><path d="M88.72,215.66c-1.21-.47-7.32.6-7-1.85.47-1.22-.6-7.33,1.85-7,1.22.47,7.33-.6,7,1.86C90.11,209.86,91.18,216,88.72,215.66Z" fill="#fff"/><path d="M81.67,222.07c-1.21-.47-7.32.6-7-1.86.47-1.21-.6-7.32,1.86-7,1.21.47,7.32-.6,7,1.86C83.06,216.27,84.13,222.38,81.67,222.07Z" fill="#fff"/><path d="M101.57,216.53c-1.21-.47-7.32.6-7-1.85.47-1.22-.6-7.33,1.86-7,1.21.46,7.32-.61,7,1.85C103,210.73,104,216.84,101.57,216.53Z" fill="#fff"/><path d="M94.53,222.94c-1.22-.47-7.33.6-7-1.86.47-1.21-.6-7.32,1.86-7,1.21.47,7.32-.6,7,1.86C95.91,217.14,97,223.25,94.53,222.94Z" fill="#fff"/><path d="M114.59,217.41c-1.22-.47-7.33.61-7-1.85.47-1.21-.6-7.32,1.86-7,1.21.47,7.32-.6,7,1.85C116,211.61,117,217.72,114.59,217.41Z" fill="#fff"/><path d="M107.54,223.82c-1.22-.47-7.33.6-7-1.85.47-1.22-.6-7.33,1.86-7,1.21.47,7.32-.6,7,1.86C108.92,218,110,224.13,107.54,223.82Z" fill="#fff"/><path d="M127.6,218.3c-1.22-.47-7.33.6-7-1.86.47-1.21-.6-7.32,1.86-7,1.21.47,7.32-.6,7,1.85C129,212.5,130.05,218.61,127.6,218.3Z" fill="#fff"/><path d="M120.55,224.7c-1.22-.47-7.33.6-7-1.85.46-1.21-.61-7.32,1.85-7,1.21.47,7.32-.61,7,1.85C121.93,218.9,123,225,120.55,224.7Z" fill="#fff"/><path d="M36.36,229.46c45.41-3.79,42.85,57,25.51,79-5.2,5.77-22.59,5.18-22.59,5.18" fill="none" stroke="#fff" stroke-linecap="round" stroke-miterlimit="10" stroke-width="5.43"/><path d="M35.8,237.77s19.68-3.12,25.67,15.09" fill="none" stroke="#fff" stroke-linecap="round" stroke-miterlimit="10" stroke-width="5.43"/><path d="M59,289.4c-2.31,15-11.76,15.51-23.35,16.21" fill="none" stroke="#fff" stroke-linecap="round" stroke-miterlimit="10" stroke-width="5.43"/><path d="M61.18,224.75c35.08,35,13.95,47.66,15.68,88.66,2.52,15.75,15,46.35,33.91,47.91" fill="none" stroke="#fff" stroke-linecap="round" stroke-miterlimit="10" stroke-width="5.43"/><path d="M106.87,351.65c-2.07-.2-4.39-3.73-1-3.14C107.37,349,109.45,351.21,106.87,351.65Zm-4.22-2.72c-1.12-.51-3.68-1.76-2.7-3.28C101.39,344,106,348.53,102.65,348.93Zm-4.23-3.39c-1.12-.5-3.58-2.2-2.44-3.59C97.53,340.5,101.57,345.26,98.42,345.54Zm-3.81-3.87c-1.14-.45-3.43-2.65-2.12-3.87C94.13,336.59,97.56,341.51,94.61,341.67Zm-3.3-4.3c-1.19-.4-3.22-3.09-1.77-4.12C91.25,332.29,94.05,337.31,91.31,337.37Zm-2.75-4.68c-1.25-.35-3-3.49-1.39-4.33C88.92,327.64,91.1,332.69,88.56,332.69Zm-2.15-5c-1.33-.3-2.66-3.84-1-4.48S88.75,327.76,86.41,327.71Zm-1.58-5.19c-1.42-.26-2.36-4.13-.65-4.58S87,322.58,84.83,322.52Zm-1-5.34c-1.53-.23-2.07-4.36-.32-4.63S85.83,317.26,83.81,317.18Zm-.51-5.4c-1.63-.22-1.79-4.54,0-4.65S85.19,311.85,83.3,311.78Zm-.06-5.43c-1.73-.21-1.53-4.69.25-4.65S85,306.4,83.24,306.35Zm.36-5.42c-1.83-.21-1.29-4.8.5-4.63S85.29,301,83.6,300.93Zm.73-5.39c-1.93-.2-1.06-4.88.72-4.59S86,295.54,84.33,295.54Zm1.08-5.32c-2-.22-.82-5,1-4.55S87,290.18,85.41,290.22ZM86.84,285c-2.32-.35-.17-5.37,1.25-4.46C89.47,280.64,88.46,285,86.84,285Z" fill="none" stroke="#fff" stroke-miterlimit="10" stroke-width="0.78"/><path d="M89.36,291.46s-9.2,28.85,18,52.94" fill="none" stroke="#fff" stroke-linecap="round" stroke-linejoin="round" stroke-width="0.78"/><line x1="94.91" y1="299.35" x2="92.68" y2="325.13" fill="none" stroke="#fff" stroke-linecap="round" stroke-linejoin="round" stroke-width="0.78"/><line x1="99.76" y1="310.77" x2="97.32" y2="333.2" fill="none" stroke="#fff" stroke-linecap="round" stroke-linejoin="round" stroke-width="0.78"/><line x1="105.3" y1="317.71" x2="102.48" y2="339.62" fill="none" stroke="#fff" stroke-linecap="round" stroke-linejoin="round" stroke-width="0.78"/><path d="M116,228.47l13.52.91C125.63,252.93,118.64,248,116,228.47Z" fill="#fff"/><path d="M106.08,227.8l13.51.91C115.74,252.26,108.75,247.32,106.08,227.8Z" fill="#fff"/><path d="M87.16,226.51l13.51.92C96.82,251,89.83,246,87.16,226.51Z" fill="#fff"/><path d="M71.76,225.47l19,1.29C86.15,254.91,79.59,238.74,71.76,225.47Z" fill="#fff"/><path d="M96.16,227.12l13.51.92C105.82,251.59,98.84,246.64,96.16,227.12Z" fill="#fff"/><path d="M128.46,254.93s-25.75-3.35-34.14-6,1.15,52.13,19.76,61" fill="none" stroke="#fff" stroke-linecap="round" stroke-miterlimit="10" stroke-width="8.53"/><path d="M116.69,285.4c-.43,8-13,7.18-12.38-.84C104.73,276.52,117.35,277.37,116.69,285.4Z" fill="#fff"/><path d="M111.24,275.19c-1.34-.42-6.44.59-6.17-2L105.9,261c.07-2.56,5-.91,6.38-1.13a1.56,1.56,0,0,1,1.44,1.66l-.82,12.17A1.56,1.56,0,0,1,111.24,275.19Z" fill="#fff"/><path d="M101.33,274.52c-1.35-.42-6.44.59-6.17-2L96,260.37c.07-2.57,5-.92,6.38-1.13a1.56,1.56,0,0,1,1.44,1.66L103,273.07A1.56,1.56,0,0,1,101.33,274.52Z" fill="#fff"/><path d="M121,275.85c-1.35-.42-6.44.59-6.17-2l.83-12.18c.07-2.56,5-.91,6.38-1.12a1.55,1.55,0,0,1,1.44,1.65l-.82,12.18A1.56,1.56,0,0,1,121,275.85Z" fill="#fff"/><line x1="42.91" y1="256.81" x2="61.12" y2="258.05" fill="none" stroke="#fff" stroke-linecap="round" stroke-miterlimit="10" stroke-width="3.88"/><line x1="41.07" y1="283.97" x2="59.28" y2="285.21" fill="none" stroke="#fff" stroke-linecap="round" stroke-miterlimit="10" stroke-width="3.88"/><line x1="58.93" y1="257.9" x2="57.13" y2="284.39" fill="none" stroke="#fff" stroke-linecap="round" stroke-miterlimit="10" stroke-width="3.88"/><line x1="53.77" y1="257.55" x2="51.98" y2="284.04" fill="none" stroke="#fff" stroke-linecap="round" stroke-miterlimit="10" stroke-width="3.88"/><line x1="48.59" y1="257.2" x2="46.79" y2="283.69" fill="none" stroke="#fff" stroke-linecap="round" stroke-miterlimit="10" stroke-width="3.88"/><path d="M40,390.29l13.51.91C49.69,414.76,42.71,409.81,40,390.29Z" fill="#fff"/><path d="M50.87,391l13.51.92C60.53,415.49,53.54,410.54,50.87,391Z" fill="#fff"/><path d="M61.7,391.76l13.51.91C71.37,416.22,64.38,411.28,61.7,391.76Z" fill="#fff"/><path d="M72.57,392.49l13.51.92C82.23,417,75.25,412,72.57,392.49Z" fill="#fff"/><path d="M83.41,393.23l13.51.91C93.07,417.69,86.08,412.75,83.41,393.23Z" fill="#fff"/><path d="M94.07,394l13.51.92C103.73,418.42,96.75,413.47,94.07,394Z" fill="#fff"/><path d="M104.91,394.68l13.51.92C114.57,419.15,107.59,414.2,104.91,394.68Z" fill="#fff"/><path d="M119.24,392l-2-.13a1.17,1.17,0,0,1,.16-2.33l1.93.14A1.16,1.16,0,0,1,119.24,392Zm-5-.34c-.1,0-2.3-.16-2.4-.16a1.16,1.16,0,0,1,.16-2.32l2.32.15A1.17,1.17,0,0,1,114.21,391.68Zm-5.41-.37c-.11,0-2.31-.16-2.41-.16a1.16,1.16,0,0,1,.16-2.32l2.32.16A1.16,1.16,0,0,1,108.8,391.31Zm-5.42-.36-2.41-.17a1.16,1.16,0,0,1,.16-2.32l2.32.16A1.17,1.17,0,0,1,103.38,391ZM98,390.58l-2.4-.16a1.16,1.16,0,0,1,.15-2.32l2.33.15A1.17,1.17,0,0,1,98,390.58Zm-5.42-.37c-.11,0-2.3-.16-2.4-.16a1.16,1.16,0,0,1,.15-2.32l2.33.16A1.16,1.16,0,0,1,92.54,390.21Zm-5.42-.37c-.11,0-2.3-.16-2.4-.16a1.16,1.16,0,0,1,.16-2.32l2.32.16A1.16,1.16,0,0,1,87.12,389.84Zm-5.42-.36c-1-.19-3.62.29-3.48-1.4s2.57-.89,3.56-.93A1.17,1.17,0,0,1,81.7,389.48Zm-5.42-.37-2.4-.16a1.16,1.16,0,0,1,.16-2.32l2.32.15A1.17,1.17,0,0,1,76.28,389.11Zm-5.42-.37c-1-.18-3.62.29-3.48-1.4s2.58-.88,3.56-.92A1.16,1.16,0,0,1,70.86,388.74Zm-5.41-.37c-.11,0-2.3-.16-2.41-.16a1.16,1.16,0,0,1,.16-2.32l2.32.16A1.16,1.16,0,0,1,65.45,388.37ZM60,388c-1-.19-3.63.29-3.49-1.4s2.58-.89,3.56-.93A1.17,1.17,0,0,1,60,388Zm-5.42-.37c-1-.18-3.63.29-3.49-1.4s2.58-.88,3.57-.93A1.17,1.17,0,0,1,54.61,387.64Zm-5.42-.37c-.11,0-2.3-.16-2.4-.16a1.16,1.16,0,0,1,.15-2.32l2.33.16A1.16,1.16,0,0,1,49.19,387.27Zm-5.42-.36c-1-.19-3.62.29-3.48-1.4s2.57-.89,3.56-.93A1.17,1.17,0,0,1,43.77,386.91Zm-5.42-.37c-1-.18-3.62.29-3.48-1.4s2.57-.89,3.56-.93A1.17,1.17,0,0,1,38.35,386.54Z" fill="none" stroke="#fff" stroke-linecap="round" stroke-linejoin="round" stroke-width="0.98"/><path d="M59.47,328.85c-1.42-.55-8.58.71-8.21-2.17.55-1.42-.71-8.58,2.17-8.21,1.42.55,8.58-.71,8.21,2.17C61.09,322.06,62.35,329.22,59.47,328.85Z" fill="#fff"/><path d="M51.21,336.36c-1.42-.55-8.57.7-8.21-2.17.55-1.42-.7-8.58,2.17-8.22,1.42.55,8.58-.7,8.22,2.18C52.84,329.57,54.09,336.72,51.21,336.36Z" fill="#fff"/><path d="M74.81,329.89c-1.42-.55-8.58.71-8.22-2.17.55-1.42-.7-8.58,2.18-8.21,1.42.55,8.57-.71,8.21,2.17C76.43,323.1,77.68,330.26,74.81,329.89Z" fill="#fff"/><path d="M44.43,327.83c-1.42-.55-8.58.71-8.21-2.17.55-1.42-.71-8.58,2.17-8.21,1.42.55,8.57-.71,8.21,2.17C46.05,321,47.3,328.2,44.43,327.83Z" fill="#fff"/><path d="M66.55,337.4c-1.42-.55-8.58.7-8.21-2.18.55-1.42-.71-8.57,2.17-8.21,1.42.55,8.58-.7,8.21,2.17C68.17,330.6,69.43,337.76,66.55,337.4Z" fill="#fff"/><path d="M58.34,345.59c-1.42-.55-8.58.71-8.22-2.17.55-1.42-.7-8.58,2.18-8.21,1.42.55,8.57-.71,8.21,2.17C60,338.8,61.21,346,58.34,345.59Z" fill="#fff"/><path d="M50.08,353.1c-1.42-.55-8.58.7-8.21-2.18.55-1.42-.71-8.57,2.17-8.21,1.42.55,8.58-.7,8.21,2.17C51.7,346.3,53,353.46,50.08,353.1Z" fill="#fff"/><path d="M73.67,346.63c-1.42-.55-8.58.71-8.21-2.17.55-1.42-.71-8.58,2.17-8.21,1.42.55,8.58-.71,8.21,2.17C75.29,339.84,76.55,347,73.67,346.63Z" fill="#fff"/><path d="M43.29,344.57c-1.42-.55-8.57.71-8.21-2.17.55-1.42-.7-8.58,2.17-8.21,1.42.55,8.58-.71,8.22,2.17C44.92,337.78,46.17,344.94,43.29,344.57Z" fill="#fff"/><path d="M65.41,354.14c-1.41-.55-8.57.7-8.21-2.18.55-1.42-.7-8.57,2.18-8.21,1.42.55,8.57-.7,8.21,2.17C67,347.34,68.29,354.5,65.41,354.14Z" fill="#fff"/><path d="M81.13,355.2c-1.42-.55-8.58.71-8.22-2.17.55-1.42-.7-8.58,2.18-8.21,1.42.55,8.57-.71,8.21,2.17C82.75,348.41,84,355.57,81.13,355.2Z" fill="#fff"/><path d="M57.28,361.11c-1.42-.55-8.57.71-8.21-2.17.55-1.42-.7-8.58,2.17-8.21,1.42.55,8.58-.71,8.22,2.17C58.91,354.32,60.16,361.48,57.28,361.11Z" fill="#fff"/><path d="M49,368.62c-1.42-.55-8.58.7-8.21-2.18.55-1.42-.71-8.57,2.17-8.21,1.42.55,8.57-.7,8.21,2.17C50.65,361.82,51.91,369,49,368.62Z" fill="#fff"/><path d="M72.62,362.15c-1.42-.55-8.58.71-8.21-2.17.55-1.42-.71-8.58,2.17-8.21,1.42.55,8.58-.71,8.21,2.17C74.24,355.36,75.5,362.51,72.62,362.15Z" fill="#fff"/><path d="M88.07,363.2c-1.42-.55-8.58.7-8.21-2.17.55-1.43-.71-8.58,2.17-8.22,1.42.55,8.58-.7,8.21,2.17C89.69,356.41,91,363.56,88.07,363.2Z" fill="#fff"/><path d="M42.24,360.09c-1.42-.55-8.58.71-8.21-2.17.55-1.42-.71-8.58,2.17-8.21,1.42.55,8.58-.71,8.21,2.17C43.86,353.3,45.12,360.46,42.24,360.09Z" fill="#fff"/><path d="M64.36,369.65c-1.42-.55-8.57.71-8.21-2.17.55-1.42-.7-8.57,2.17-8.21,1.42.55,8.58-.7,8.22,2.17C66,362.86,67.24,370,64.36,369.65Z" fill="#fff"/><path d="M79.86,370.7c-1.42-.54-8.58.71-8.21-2.17.55-1.42-.71-8.57,2.17-8.21,1.42.55,8.57-.7,8.21,2.17C81.48,363.91,82.74,371.07,79.86,370.7Z" fill="#fff"/><path d="M95.19,371.74c-1.42-.55-8.57.71-8.21-2.17.55-1.42-.7-8.57,2.17-8.21,1.42.55,8.58-.71,8.22,2.17C96.82,365,98.07,372.11,95.19,371.74Z" fill="#fff"/><rect x="389.19" y="375.41" width="75.45" height="7.56" transform="matrix(1, -0.07, 0.07, 1, -25.08, 30.28)" fill="#fff"/><path d="M422.73,200.28c3.29,38.25,60.26,34.31,58.27-4C477.7,158,420.73,161.94,422.73,200.28Z" fill="none" stroke="#fff" stroke-linecap="round" stroke-miterlimit="10" stroke-width="5.45"/><path d="M432,199.29c2.29,26.57,41.87,23.84,40.49-2.8C470.18,169.91,430.6,172.65,432,199.29Z" fill="none" stroke="#fff" stroke-linecap="round" stroke-miterlimit="10" stroke-width="5.45"/><path d="M439.48,198.69c1.21,16.48,26.27,14.75,25.21-1.74S438.41,182.2,439.48,198.69Z" fill="#fff"/><path d="M420.45,203.94c-1.86.11-2.39-9.21-4.26-9.11s-1.34,9.43-3.21,9.54-2.39-9.22-4.26-9.11-1.34,9.43-3.21,9.53-2.4-9.22-4.27-9.11-1.34,9.43-3.2,9.54-2.4-9.22-4.27-9.11-1.34,9.43-3.21,9.53-2.4-9.22-4.27-9.11-1.34,9.43-3.21,9.54-2.4-9.22-4.27-9.11-1.34,9.43-3.22,9.53" fill="none" stroke="#fff" stroke-linecap="round" stroke-linejoin="round" stroke-width="0.78"/><path d="M411.73,215.58c1.22-.47,7.35.59,7-1.87-.47-1.22.6-7.35-1.87-7-1.21.47-7.34-.59-7,1.87C410.34,209.76,409.27,215.89,411.73,215.58Z" fill="#fff"/><path d="M418.81,222c1.21-.48,7.34.59,7-1.87-.47-1.22.59-7.35-1.87-7-1.22.47-7.34-.6-7,1.87C417.41,216.18,416.35,222.31,418.81,222Z" fill="#fff"/><path d="M398.84,216.47c1.22-.48,7.35.59,7-1.87-.47-1.22.6-7.35-1.87-7-1.21.47-7.34-.6-7,1.87C397.45,210.65,396.38,216.78,398.84,216.47Z" fill="#fff"/><path d="M405.92,222.88c1.21-.47,7.34.6,7-1.86-.47-1.22.59-7.35-1.87-7-1.22.47-7.34-.6-7,1.87C404.52,217.07,403.46,223.2,405.92,222.88Z" fill="#fff"/><path d="M385.8,217.37c1.21-.48,7.34.59,7-1.87-.47-1.22.6-7.35-1.86-7-1.22.47-7.35-.6-7,1.87C384.4,211.55,383.33,217.68,385.8,217.37Z" fill="#fff"/><path d="M392.87,223.78c1.22-.47,7.35.6,7-1.86-.47-1.22.6-7.35-1.87-7-1.21.47-7.34-.6-7,1.87C391.48,218,390.41,224.1,392.87,223.78Z" fill="#fff"/><path d="M372.75,218.27c1.21-.48,7.34.59,7-1.87-.47-1.22.59-7.35-1.87-7-1.22.47-7.35-.6-7,1.87C371.35,212.45,370.28,218.58,372.75,218.27Z" fill="#fff"/><path d="M379.83,224.68c1.21-.47,7.34.6,7-1.86-.47-1.22.6-7.35-1.86-7-1.22.47-7.35-.6-7,1.87C378.43,218.87,377.36,225,379.83,224.68Z" fill="#fff"/><path d="M464.26,229.36c-45.55-3.75-42.91,57.25-25.49,79.26,5.22,5.78,22.67,5.16,22.67,5.16" fill="none" stroke="#fff" stroke-linecap="round" stroke-miterlimit="10" stroke-width="5.45"/><path d="M464.83,237.69s-19.74-3.1-25.73,15.16" fill="none" stroke="#fff" stroke-linecap="round" stroke-miterlimit="10" stroke-width="5.45"/><path d="M441.63,289.49c2.34,15.08,11.81,15.54,23.43,16.24" fill="none" stroke="#fff" stroke-linecap="round" stroke-miterlimit="10" stroke-width="5.45"/><path d="M439.37,224.66c-35.15,35.15-13.94,47.82-15.62,88.94-2.52,15.79-15,46.49-33.95,48.08" fill="none" stroke="#fff" stroke-linecap="round" stroke-miterlimit="10" stroke-width="5.45"/><path d="M393.7,352c-2.59-.44-.51-2.67.94-3.15C398.1,348.23,395.77,351.78,393.7,352Zm4.23-2.73c-3.35-.4,1.25-5,2.69-3.29C401.61,347.48,399,348.73,397.93,349.25Zm4.23-3.41c-3.16-.27.89-5.06,2.44-3.6C405.75,343.63,403.29,345.34,402.16,345.84ZM406,342c-3-.16.48-5.1,2.12-3.88C409.41,339.3,407.12,341.5,406,342Zm3.31-4.32c-2.75-.06,0-5.1,1.76-4.14C412.51,334.54,410.47,337.24,409.29,337.64Zm2.74-4.7c-2.54,0-.37-5.06,1.39-4.34C415,329.44,413.28,332.59,412,332.94Zm2.16-5c-2.35.05-.77-5,1-4.49S415.52,327.65,414.19,328Zm1.57-5.21c-2.18.07-1.14-4.89.65-4.59S417.19,322.48,415.76,322.74Zm1-5.35c-2,.07-1.46-4.76.31-4.65C418.85,313,418.31,317.15,416.78,317.39Zm.51-5.43c-1.9.08-1.75-4.63,0-4.66S418.92,311.75,417.29,312Zm0-5.44c-1.8.05-2-4.5-.26-4.67S419.08,306.31,417.34,306.52Zm-.37-5.44c-1.7,0-2.21-4.34-.5-4.64S418.81,300.88,417,301.08Zm-.74-5.4c-1.62,0-2.4-4.19-.73-4.6S418.17,295.48,416.23,295.68Zm-1.09-5.33c-1.56,0-2.58-4-.95-4.56S417.17,290.12,415.14,290.35Zm-1.44-5.26c-1.63,0-2.64-4.34-1.25-4.47C413.86,279.71,416,284.74,413.7,285.09Z" fill="none" stroke="#fff" stroke-miterlimit="10" stroke-width="0.78"/><path d="M411.18,291.59s9.27,28.93-18,53.12" fill="none" stroke="#fff" stroke-linecap="round" stroke-linejoin="round" stroke-width="0.78"/><line x1="405.63" y1="299.52" x2="407.9" y2="325.37" fill="none" stroke="#fff" stroke-linecap="round" stroke-linejoin="round" stroke-width="0.78"/><line x1="400.78" y1="310.97" x2="403.25" y2="333.47" fill="none" stroke="#fff" stroke-linecap="round" stroke-linejoin="round" stroke-width="0.78"/><line x1="395.23" y1="317.95" x2="398.09" y2="339.91" fill="none" stroke="#fff" stroke-linecap="round" stroke-linejoin="round" stroke-width="0.78"/><path d="M384.43,228.45l-13.55.94C374.77,253,381.76,248,384.43,228.45Z" fill="#fff"/><path d="M394.34,227.77l-13.55.93C384.68,252.32,391.68,247.35,394.34,227.77Z" fill="#fff"/><path d="M413.31,226.46l-13.55.93C403.65,251,410.65,246,413.31,226.46Z" fill="#fff"/><path d="M428.75,225.39l-19.07,1.32C414.36,254.93,420.92,238.71,428.75,225.39Z" fill="#fff"/><path d="M404.28,227.08l-13.54.94C394.62,251.63,401.62,246.66,404.28,227.08Z" fill="#fff"/><path d="M371.93,255s25.81-3.39,34.22-6-1.08,52.28-19.74,61.19" fill="none" stroke="#fff" stroke-linecap="round" stroke-miterlimit="10" stroke-width="8.56"/><path d="M383.77,285.55c.44,8.06,13.09,7.19,12.42-.86C395.75,276.63,383.09,277.5,383.77,285.55Z" fill="#fff"/><path d="M389.22,275.3c1.35-.42,6.46.59,6.18-2l-.84-12.21c-.07-2.57-5-.91-6.4-1.12a1.56,1.56,0,0,0-1.44,1.66l.84,12.21A1.56,1.56,0,0,0,389.22,275.3Z" fill="#fff"/><path d="M399.16,274.62c1.35-.42,6.46.58,6.18-2l-.84-12.21c-.07-2.57-5-.91-6.4-1.12a1.58,1.58,0,0,0-1.45,1.66l.85,12.21A1.56,1.56,0,0,0,399.16,274.62Z" fill="#fff"/><path d="M379.42,276c1.35-.42,6.46.58,6.18-2l-.84-12.21c-.07-2.57-5-.91-6.4-1.12a1.56,1.56,0,0,0-1.44,1.66l.84,12.21A1.56,1.56,0,0,0,379.42,276Z" fill="#fff"/><line x1="447.42" y1="257.5" x2="439.46" y2="258.05" fill="none" stroke="#fff" stroke-linecap="round" stroke-miterlimit="10" stroke-width="3.89"/><line x1="449.3" y1="284.74" x2="441.34" y2="285.29" fill="none" stroke="#fff" stroke-linecap="round" stroke-miterlimit="10" stroke-width="3.89"/><line x1="461.95" y1="256.5" x2="453.99" y2="257.05" fill="none" stroke="#fff" stroke-linecap="round" stroke-miterlimit="10" stroke-width="3.89"/><line x1="463.83" y1="283.74" x2="455.87" y2="284.29" fill="none" stroke="#fff" stroke-linecap="round" stroke-miterlimit="10" stroke-width="3.89"/><path d="M460.78,390.65l-13.55.93C451.12,415.2,458.11,410.23,460.78,390.65Z" fill="#fff"/><path d="M449.91,391.4l-13.55.93C440.25,416,447.25,411,449.91,391.4Z" fill="#fff"/><path d="M439,392.15l-13.55.93C429.38,416.7,436.38,411.73,439,392.15Z" fill="#fff"/><path d="M428.15,392.9l-13.55.93C418.49,417.45,425.48,412.48,428.15,392.9Z" fill="#fff"/><path d="M417.28,393.65l-13.55.93C407.62,418.2,414.62,413.23,417.28,393.65Z" fill="#fff"/><path d="M406.58,394.39l-13.55.93C396.92,418.94,403.92,414,406.58,394.39Z" fill="#fff"/><path d="M395.71,395.14l-13.55.93C386.05,419.69,393.05,414.72,395.71,395.14Z" fill="#fff"/><path d="M381.33,392.48a1.17,1.17,0,0,1-.08-2.33l1.94-.13a1.17,1.17,0,0,1,.16,2.33Zm5.05-.35a1.17,1.17,0,0,1-.08-2.33l2.33-.16a1.17,1.17,0,0,1,.16,2.33C388.67,392,386.5,392.14,386.38,392.13Zm5.43-.37a1.17,1.17,0,0,1-.08-2.33l2.33-.16a1.17,1.17,0,0,1,.16,2.33Zm5.43-.38a1.17,1.17,0,0,1-.07-2.33l2.32-.16a1.17,1.17,0,0,1,.16,2.33C399.54,391.22,397.37,391.39,397.24,391.38Zm5.44-.37a1.17,1.17,0,0,1-.08-2.33l2.33-.16a1.17,1.17,0,0,1,.16,2.33Zm5.43-.38a1.17,1.17,0,0,1-.08-2.33l2.33-.16a1.17,1.17,0,0,1,.16,2.33C410.41,390.47,408.23,390.64,408.11,390.63Zm5.44-.37a1.17,1.17,0,0,1-.08-2.33l2.33-.16a1.17,1.17,0,0,1,.16,2.33Zm5.43-.38a1.17,1.17,0,0,1-.08-2.33l2.33-.16a1.17,1.17,0,0,1,.16,2.33C421.28,389.72,419.1,389.89,419,389.88Zm5.43-.37a1.17,1.17,0,0,1-.07-2.33l2.32-.16a1.17,1.17,0,0,1,.16,2.33Zm5.44-.37a1.17,1.17,0,0,1-.08-2.34l2.33-.16a1.17,1.17,0,0,1,.16,2.33Zm5.43-.38a1.17,1.17,0,0,1-.08-2.33l2.33-.16a1.17,1.17,0,0,1,.16,2.33Zm5.44-.37a1.17,1.17,0,0,1-.08-2.34l2.33-.16a1.17,1.17,0,0,1,.16,2.33Zm5.43-.38a1.17,1.17,0,0,1-.08-2.33l2.33-.16a1.17,1.17,0,0,1,.16,2.33Zm5.43-.37a1.17,1.17,0,0,1-.08-2.34l2.33-.16a1.17,1.17,0,0,1,.16,2.33Zm5.44-.38a1.17,1.17,0,0,1-.08-2.33l2.33-.16a1.17,1.17,0,0,1,.16,2.33Zm5.43-.37a1.17,1.17,0,0,1-.08-2.34c1,0,3.49-.74,3.58.93S463.45,386.71,462.45,386.89Z" fill="none" stroke="#fff" stroke-linecap="round" stroke-linejoin="round" stroke-width="0.98"/><path d="M441.2,329.06c1.43-.55,8.61.7,8.24-2.19-.56-1.42.69-8.6-2.19-8.23-1.43.55-8.6-.7-8.23,2.19C439.57,322.25,438.32,329.43,441.2,329.06Z" fill="#fff"/><path d="M449.49,336.58c1.43-.56,8.6.69,8.24-2.19-.56-1.43.69-8.6-2.19-8.23-1.43.55-8.6-.7-8.24,2.18C447.86,329.77,446.61,337,449.49,336.58Z" fill="#fff"/><path d="M425.83,330.12c1.42-.55,8.6.7,8.23-2.19-.55-1.42.7-8.6-2.19-8.23-1.42.55-8.6-.7-8.23,2.19C424.19,323.31,422.94,330.49,425.83,330.12Z" fill="#fff"/><path d="M456.29,328c1.42-.55,8.6.7,8.23-2.19-.55-1.42.7-8.6-2.19-8.23-1.42.55-8.6-.7-8.23,2.19C454.65,321.21,453.4,328.39,456.29,328Z" fill="#fff"/><path d="M434.11,337.64c1.43-.56,8.61.69,8.24-2.19-.56-1.42.69-8.6-2.19-8.23-1.42.55-8.6-.7-8.23,2.18C432.48,330.83,431.23,338,434.11,337.64Z" fill="#fff"/><path d="M442.36,345.85c1.43-.56,8.6.69,8.23-2.19-.55-1.43.7-8.6-2.18-8.24-1.43.56-8.61-.69-8.24,2.19C440.73,339,439.48,346.22,442.36,345.85Z" fill="#fff"/><path d="M450.65,353.36c1.42-.55,8.6.7,8.23-2.19-.55-1.42.7-8.6-2.18-8.23-1.43.55-8.61-.7-8.24,2.19C449,346.55,447.77,353.73,450.65,353.36Z" fill="#fff"/><path d="M427,346.91c1.43-.56,8.61.69,8.24-2.19-.56-1.42.69-8.6-2.19-8.23-1.43.55-8.6-.7-8.23,2.18C425.35,340.1,424.1,347.28,427,346.91Z" fill="#fff"/><path d="M457.45,344.81c1.42-.56,8.6.69,8.23-2.19-.55-1.43.7-8.6-2.19-8.24-1.42.56-8.6-.69-8.23,2.19C455.81,338,454.56,345.17,457.45,344.81Z" fill="#fff"/><path d="M435.27,354.42c1.43-.55,8.6.7,8.24-2.18-.56-1.43.69-8.61-2.19-8.24-1.43.56-8.6-.69-8.24,2.19C433.64,347.61,432.39,354.79,435.27,354.42Z" fill="#fff"/><path d="M419.52,355.51c1.42-.55,8.6.7,8.23-2.19-.55-1.42.7-8.6-2.19-8.23-1.42.55-8.6-.7-8.23,2.19C417.88,348.7,416.63,355.88,419.52,355.51Z" fill="#fff"/><path d="M443.44,361.41c1.42-.55,8.6.69,8.23-2.19-.55-1.42.69-8.6-2.19-8.23-1.42.55-8.6-.7-8.23,2.19C441.8,354.6,440.55,361.78,443.44,361.41Z" fill="#fff"/><path d="M451.72,368.92c1.43-.55,8.61.7,8.24-2.18-.56-1.43.69-8.61-2.19-8.24-1.42.56-8.6-.69-8.23,2.19C450.09,362.11,448.84,369.29,451.72,368.92Z" fill="#fff"/><path d="M428.06,362.47c1.42-.55,8.6.7,8.23-2.19-.55-1.42.7-8.6-2.19-8.23-1.42.55-8.6-.7-8.23,2.19C426.42,355.66,425.17,362.84,428.06,362.47Z" fill="#fff"/><path d="M412.56,363.54c1.43-.56,8.61.69,8.24-2.19-.56-1.42.69-8.6-2.19-8.23-1.43.55-8.6-.7-8.23,2.18C410.93,356.73,409.68,363.91,412.56,363.54Z" fill="#fff"/><path d="M458.52,360.37c1.42-.56,8.6.69,8.23-2.19-.55-1.42.7-8.6-2.19-8.23-1.42.55-8.6-.7-8.23,2.18C456.88,353.56,455.64,360.74,458.52,360.37Z" fill="#fff"/><path d="M436.35,370c1.42-.56,8.6.69,8.23-2.19-.55-1.43.7-8.61-2.19-8.24-1.42.56-8.6-.69-8.23,2.19C434.71,363.18,433.46,370.35,436.35,370Z" fill="#fff"/><path d="M420.81,371.06c1.42-.56,8.6.69,8.23-2.19-.55-1.42.7-8.6-2.19-8.23-1.42.55-8.6-.7-8.23,2.18C419.17,364.25,417.92,371.43,420.81,371.06Z" fill="#fff"/><path d="M405.43,372.12c1.42-.56,8.6.69,8.23-2.19-.55-1.42.7-8.6-2.19-8.23-1.42.55-8.6-.7-8.23,2.18C403.79,365.31,402.55,372.49,405.43,372.12Z" fill="#fff"/><line x1="443.44" y1="257.78" x2="459.85" y2="284.01" fill="none" stroke="#fff" stroke-linecap="round" stroke-miterlimit="10" stroke-width="3.89"/><line x1="457.97" y1="256.77" x2="445.32" y2="285.01" fill="none" stroke="#fff" stroke-linecap="round" stroke-miterlimit="10" stroke-width="3.89"/><rect x="131.41" y="355.17" width="238.45" height="8.74" fill="#fff"/><line x1="134.19" y1="352.48" x2="368.84" y2="352.48" fill="none" stroke="#fff" stroke-linecap="round" stroke-linejoin="round" stroke-width="0.9"/><line x1="138.98" y1="384.76" x2="366.54" y2="384.76" fill="none" stroke="#fff" stroke-linecap="round" stroke-linejoin="round" stroke-width="0.9"/><line x1="114.41" y1="389.35" x2="382.94" y2="389.35" fill="none" stroke="#fff" stroke-linecap="round" stroke-linejoin="round" stroke-width="0.9"/><path d="M318.9,59.22c-4.91,37-66.5,70-74.43,70" fill="none" stroke="#fff" stroke-linecap="round" stroke-linejoin="round" stroke-width="0.9"/><path d="M313.53,58c-7.57,33.42-52.07,59.5-65.94,63.88" fill="none" stroke="#fff" stroke-linecap="round" stroke-linejoin="round" stroke-width="0.9"/><path d="M170.16,59.22c4.91,37,66.49,70,74.43,70" fill="none" stroke="#fff" stroke-linecap="round" stroke-linejoin="round" stroke-width="0.9"/><path d="M175.53,58c7.58,33.51,52.32,59.65,66.05,63.92" fill="none" stroke="#fff" stroke-linecap="round" stroke-linejoin="round" stroke-width="0.9"/><path d="M241,123.29c.41-3.45,5.51-3.51,7.14-.72" fill="none" stroke="#fff" stroke-linecap="round" stroke-miterlimit="10" stroke-width="0.9"/><path d="M249.76,121.12s-6.11,5.59,2.25,5.52" fill="none" stroke="#fff" stroke-linecap="round" stroke-miterlimit="10" stroke-width="0.9"/><path d="M256.22,118.26s-6,5.35,2.4,5.28" fill="none" stroke="#fff" stroke-linecap="round" stroke-miterlimit="10" stroke-width="0.9"/><path d="M262.88,114.68s-5.64,5,2.73,4.94" fill="none" stroke="#fff" stroke-linecap="round" stroke-miterlimit="10" stroke-width="0.9"/><path d="M270.66,109.87s-5.21,6.91,3.43,4.32" fill="none" stroke="#fff" stroke-linecap="round" stroke-miterlimit="10" stroke-width="0.9"/><path d="M278.48,104.49s-5.21,6.92,3.42,4.32" fill="none" stroke="#fff" stroke-linecap="round" stroke-miterlimit="10" stroke-width="0.9"/><path d="M285.82,98.53s-5.21,6.91,3.43,4.32" fill="none" stroke="#fff" stroke-linecap="round" stroke-miterlimit="10" stroke-width="0.9"/><path d="M292.37,92.49s-4.58,6.59,4.06,4" fill="none" stroke="#fff" stroke-linecap="round" stroke-miterlimit="10" stroke-width="0.9"/><path d="M298.62,85.84s-4.58,6.58,4.05,4" fill="none" stroke="#fff" stroke-linecap="round" stroke-miterlimit="10" stroke-width="0.9"/><path d="M303.89,78.94s-3.27,6.9,5,3.39" fill="none" stroke="#fff" stroke-linecap="round" stroke-miterlimit="10" stroke-width="0.9"/><path d="M308.76,70.88s-2.69,9,5.49,2.7" fill="none" stroke="#fff" stroke-linecap="round" stroke-miterlimit="10" stroke-width="0.9"/><path d="M312.69,61.23s-.35,10.05,5.31,2.35" fill="none" stroke="#fff" stroke-linecap="round" stroke-miterlimit="10" stroke-width="0.9"/><path d="M239.26,121.12s6.12,5.59-2.25,5.52" fill="none" stroke="#fff" stroke-linecap="round" stroke-miterlimit="10" stroke-width="0.9"/><path d="M232.81,118.26s6,5.35-2.4,5.28" fill="none" stroke="#fff" stroke-linecap="round" stroke-miterlimit="10" stroke-width="0.9"/><path d="M226.15,114.68s5.63,5-2.74,4.94" fill="none" stroke="#fff" stroke-linecap="round" stroke-miterlimit="10" stroke-width="0.9"/><path d="M218.36,109.87s5.21,6.91-3.42,4.32" fill="none" stroke="#fff" stroke-linecap="round" stroke-miterlimit="10" stroke-width="0.9"/><path d="M210.55,104.49s5.21,6.92-3.43,4.32" fill="none" stroke="#fff" stroke-linecap="round" stroke-miterlimit="10" stroke-width="0.9"/><path d="M203.2,98.53s5.21,6.91-3.42,4.32" fill="none" stroke="#fff" stroke-linecap="round" stroke-miterlimit="10" stroke-width="0.9"/><path d="M196.65,92.49s4.58,6.59-4.05,4" fill="none" stroke="#fff" stroke-linecap="round" stroke-miterlimit="10" stroke-width="0.9"/><path d="M190.4,85.84s4.59,6.58-4.05,4" fill="none" stroke="#fff" stroke-linecap="round" stroke-miterlimit="10" stroke-width="0.9"/><path d="M185.13,78.94s3.28,6.9-5,3.39" fill="none" stroke="#fff" stroke-linecap="round" stroke-miterlimit="10" stroke-width="0.9"/><path d="M180.27,70.88s2.68,9-5.49,2.7" fill="none" stroke="#fff" stroke-linecap="round" stroke-miterlimit="10" stroke-width="0.9"/><path d="M176.33,61.23s.36,10.05-5.3,2.35" fill="none" stroke="#fff" stroke-linecap="round" stroke-miterlimit="10" stroke-width="0.9"/><line x1="241.39" y1="124.38" x2="245.73" y2="126.97" fill="none" stroke="#fff" stroke-linecap="round" stroke-linejoin="round" stroke-width="0.9"/><line x1="247.61" y1="124.38" x2="243.27" y2="126.97" fill="none" stroke="#fff" stroke-linecap="round" stroke-linejoin="round" stroke-width="0.9"/></g><path d="M206.72,51.51s4,48.55,43.68,46.73,43.67-46.73,43.67-46.73" fill="none" stroke="#636363" stroke-linecap="round" stroke-linejoin="round"/><path d="M372.14,291.55c-.18,41.16-.42,69.32-.62,110.47-.81,9-2.68,16.41-3.55,25.44-1,10.07,1.34,17.05-1.5,25.63-.59,1.77-2,1.67-3.35,1.44-44.59-7.74-101.66-5.72-146.65-2.92-24.6.57-58.62-1.68-83,2.08-5.23.6-5.68-.22-6.62-5.32-1.35-11.26,1.94-18,.53-28.81-6.15-46.82-1.39-81.37-3.6-128.53-1.42,2.83-2.94,5.6-4.29,8.46-2.37,10.67-17.5,9.3-11.81,16.18,11.11,7.95,6.41,21.38,5.15,32.56-.25,3.15-1.35,6.27-.37,9.58.51,8.44-3.19,16.94-4.38,25.31-1.5,8-2.61,15.83-1.54,23.93a5.1,5.1,0,0,1-1.13,3.3c-5.71,6.28-7.75,14-9.19,22.06-.57,3.18-.61,3-3.74,2-12.38-3.52-26.09-4.38-38.6-1.18-1.39.34-2.11,0-2.41-1.47-2-7.76-2.18-16.67-8.49-22.43a6.62,6.62,0,0,1-1.33-3.22A144.46,144.46,0,0,1,39,372.86c-1.91-63,2.6-126.93,26.19-186,13.61-35.43,24.56-73.32,48.07-103.67,27.32-18.2,60-23.76,90.46-34.78a3.16,3.16,0,0,1,2.72.43c5,5.55,11.46,8.41,18.56,9.67,19.19,2.43,41.29,5.55,58.65-4.88,2.85-1.27,4.2-6.53,7.87-5,29.12,10.49,61,14.4,87.44,31.58,15.94,14.59,21.63,38,30.45,57.21,27.81,67.48,58,137.39,51.05,212.07-1.19,18.66-.23,37.46-3.28,56-.49,4.66-5.21,7.09-5.56,11.78-1.22,5.28-2.08,10.65-2.91,16-.4,2.6-.41,2.83-3.08,2.33-12.48-2.66-25.26-5.49-37.8-1.58-8.34-.15-8.13-15.56-11.44-21.4-6.28-7.37-3.61-9-5.33-17.64-.9-9.7-4.68-20.27.79-29.26,2-3.53,1.86-7.05.51-10.66-4.9-11.28-7.4-23.42-10.45-35.29-1.07-4.31-1.31-8.5,1.61-12.34,1.51-7.23-10.43-8.68-10.93-15.93Z" fill="none" stroke="#262521" stroke-linecap="round" stroke-linejoin="round" stroke-width="3"/></svg>