<svg xmlns="http://www.w3.org/2000/svg" xmlns:xlink="http://www.w3.org/1999/xlink" width="500" height="550" viewBox="0 0 500 550"><defs><clipPath id="a"><path d="M372.37,188.66H121.11s1.24-87.8-6.89-106.63c27.32-16.56,59-23.61,89.46-33.64.8-.24,1.56,47.32,44.41,46.62s39.72-47.81,43.39-46.42c29.12,9.55,60,14.61,86.44,30.24C363.57,95.05,372.37,188.66,372.37,188.66Z" fill="none"/></clipPath></defs><title>s03e01-02</title><path d="M372.14,291.55q-.27,61.74-.62,123.47c-.81,9-2.68,16.41-3.55,25.44-1,10.07,1.34,17.05-1.5,25.63-.59,1.77-2,1.67-3.35,1.44-44.59-7.74-101.66-5.72-146.65-2.92-24.6.57-58.62-1.68-83,2.08-5.23.6-5.68.28-6.62-4.82-1.35-11.26,1.94-18.53.53-29.31-6.15-46.82-1.39-94.37-3.6-141.53-1.42,2.83-2.94,5.6-4.29,8.46-2.37,10.67-17.5,9.3-11.81,16.18,11.11,7.95,6.41,21.38,5.15,32.56-.25,3.15-1.35,6.27-.37,9.58.51,8.44-3.19,16.94-4.38,25.31-1.5,8-10.42,41.28-11.86,49.29-.57,3.18-.61,3-3.74,2-12.38-3.52-26.09-4.38-38.6-1.18-1.39.34-2.11,0-2.41-1.47-2-7.76.82-16.67-5.49-22.43a6.62,6.62,0,0,1-1.33-3.22c-2.23-11-6.07-22.12-5.72-33.3-1.91-63,2.6-126.93,26.19-186,13.61-35.43,24.56-73.32,48.07-103.67,27.32-18.2,60-23.76,90.46-34.78a3.16,3.16,0,0,1,2.72.43c5,5.55,11.46,8.41,18.56,9.67,19.19,2.43,41.29,5.55,58.65-4.88,2.85-1.27,4.2-6.53,7.87-5,29.12,10.49,61,14.41,87.44,31.58,15.94,14.59,21.63,38,30.45,57.21,27.81,67.48,58,137.39,51.05,212.07-1.19,18.66-.23,37.46-3.28,56-.49,4.66-5.21,7.09-5.56,11.78-1.22,5.28-2.08,10.65-2.91,16-.4,2.6-.41,2.83-3.08,2.33-12.48-2.66-25.26-5.49-37.8-1.58-8.34-.15-8.13-15.56-11.44-21.4-6.28-7.37-3.61-9-5.33-17.64-.9-9.7-4.68-20.27.79-29.26,2-3.53,1.86-7.05.51-10.66-4.9-11.28-7.4-23.42-10.45-35.29-1.07-4.3-1.31-8.5,1.61-12.34,1.51-7.23-10.43-8.68-10.93-15.93Z" fill="#fff" stroke="#262521" stroke-miterlimit="10" stroke-width="3"/><g clip-path="url(#a)"><rect x="99.69" y="26.84" width="279.28" height="175.74" fill="#a3a3a3"/><rect x="84.62" y="73.25" width="315.32" height="13.93" fill="#262521"/><rect x="84.62" y="45.37" width="315.32" height="13.93" fill="#262521"/><rect x="84.62" y="128.72" width="315.32" height="13.93" fill="#262521"/><rect x="84.62" y="156.01" width="315.32" height="13.93" fill="#262521"/><rect x="84.62" y="89.94" width="315.32" height="2.37" fill="#262521"/><rect x="39.12" y="105.96" width="153.59" height="14.38" transform="translate(229.07 -2.76) rotate(90)" fill="#262521"/><rect x="50.84" y="108.63" width="153.59" height="9.05" transform="translate(240.79 -14.48) rotate(90)" fill="#fff" opacity="0.6"/><rect x="137.83" y="108.63" width="153.59" height="9.05" transform="translate(327.78 -101.47) rotate(90)" fill="#fff" opacity="0.6"/><rect x="94.7" y="108.63" width="153.59" height="9.05" transform="translate(284.66 -58.35) rotate(90)" fill="#fff" opacity="0.6"/><rect x="181.77" y="108.63" width="153.59" height="9.05" transform="translate(371.73 -145.42) rotate(90)" fill="#fff" opacity="0.6"/><rect x="268.4" y="108.63" width="153.59" height="9.05" transform="translate(458.35 -232.04) rotate(90)" fill="#fff" opacity="0.6"/><rect x="226.05" y="108.63" width="153.59" height="9.05" transform="translate(416 -189.7) rotate(90)" fill="#fff" opacity="0.6"/><rect x="27.85" y="111.93" width="153.59" height="2.45" transform="translate(217.8 8.51) rotate(90)" fill="#262521"/><rect x="62.55" y="105.96" width="153.59" height="14.38" transform="translate(252.5 -26.19) rotate(90)" fill="#262521"/><rect x="73.82" y="111.93" width="153.59" height="2.45" transform="translate(263.77 -37.46) rotate(90)" fill="#262521"/><rect x="126.12" y="105.96" width="153.59" height="14.38" transform="translate(316.07 -89.76) rotate(90)" fill="#262521"/><rect x="114.85" y="111.93" width="153.59" height="2.45" transform="translate(304.8 -78.49) rotate(90)" fill="#262521"/><rect x="149.55" y="105.96" width="153.59" height="14.38" transform="translate(339.5 -113.19) rotate(90)" fill="#262521"/><rect x="160.82" y="111.93" width="153.59" height="2.45" transform="translate(350.77 -124.46) rotate(90)" fill="#262521"/><rect x="214.34" y="105.96" width="153.59" height="14.38" transform="translate(404.29 -177.98) rotate(90)" fill="#262521"/><rect x="203.07" y="111.93" width="153.59" height="2.45" transform="translate(393.02 -166.71) rotate(90)" fill="#262521"/><rect x="299.27" y="105.96" width="153.59" height="14.38" transform="translate(489.22 -262.91) rotate(90)" fill="#262521"/><rect x="288" y="111.93" width="153.59" height="2.45" transform="translate(477.95 -251.64) rotate(90)" fill="#262521"/><rect x="237.77" y="105.96" width="153.59" height="14.38" transform="translate(427.72 -201.41) rotate(90)" fill="#262521"/><rect x="249.04" y="111.93" width="153.59" height="2.45" transform="translate(438.99 -212.68) rotate(90)" fill="#262521"/><rect x="84.62" y="123.38" width="315.32" height="2.37" fill="#262521"/><rect x="84.62" y="59.29" width="315.32" height="13.93" fill="#fff" opacity="0.6"/><rect x="84.62" y="142.65" width="315.32" height="13.36" fill="#fff" opacity="0.6"/><path d="M401.68,142.26A17.77,17.77,0,0,0,390,140.69c-2,.41-4,1.7-6,1.2-1-.23-1.89-.64-2.85-.9a16.54,16.54,0,0,0-3.2-.51,15.47,15.47,0,0,0-6.11.9,11.51,11.51,0,0,1-2.92.91,6.22,6.22,0,0,1-2.63-.42c-1.65-.57-3.15-1.49-4.77-2.13a10.23,10.23,0,0,0-5.1-.71c-3.79.45-7.77,3.07-11.62,1.77a.86.86,0,0,0-1.09.43l-4.3-.85-6.67-1.32a60,60,0,0,0-6.52-1.13,11.45,11.45,0,0,0-5.76.9c-1.86.84-3.46,2-5.5,2.42a32.19,32.19,0,0,1-6.51.29q-3.19-.06-6.37-.37a97.83,97.83,0,0,1-12.95-2.43,28.87,28.87,0,0,0-6.2-.94,22.6,22.6,0,0,0-6.06.83c-4,1-7.76,2.59-11.92,2.64-4.39,0-8.77-.87-13.14-1.25a124.26,124.26,0,0,0-29.91,1.06h0l-15.28-1.7c-4.72-.53-9.49-1.1-14.23-.41a24.72,24.72,0,0,0-3.29.71,9.82,9.82,0,0,1-3.5.69,17.53,17.53,0,0,1-3.19-.8,16.14,16.14,0,0,0-3.52-.49,56.11,56.11,0,0,0-7,.55,28.86,28.86,0,0,1-7.07-.21,25.51,25.51,0,0,0-6.92-.35,40.38,40.38,0,0,0-6.51,1.58,27.85,27.85,0,0,1-6.82,1.4,17.58,17.58,0,0,1-7-1.23c-3.61-1.38-7.9-3.81-11.7-1.56-.8.47-1.46,1.12-2.21,1.65a3.78,3.78,0,0,1-3.18.64c-2.18-.43-4.31-1.13-6.48-1.62-9.45-2.15-19.8-3.15-28.75,1.28a.85.85,0,0,0-.38,1.22h-.28v.21H400v.93l.72.35C401.81,144.51,402.82,142.84,401.68,142.26Z" fill="#fff" opacity="0.4"/><path d="M401.68,58.9A17.77,17.77,0,0,0,390,57.33c-2,.41-4,1.7-6,1.2-1-.23-1.89-.64-2.85-.9a15.79,15.79,0,0,0-3.2-.5,15.28,15.28,0,0,0-6.11.89,11.51,11.51,0,0,1-2.92.91,6.22,6.22,0,0,1-2.63-.42c-1.65-.57-3.15-1.49-4.77-2.13a10.23,10.23,0,0,0-5.1-.71c-3.79.45-7.77,3.07-11.62,1.77a.86.86,0,0,0-1.09.43l-4.3-.85-6.67-1.32a62.57,62.57,0,0,0-6.52-1.13,11.45,11.45,0,0,0-5.76.9c-1.86.84-3.46,2-5.5,2.42a32.19,32.19,0,0,1-6.51.29q-3.19-.06-6.37-.37a97.83,97.83,0,0,1-12.95-2.43,28.87,28.87,0,0,0-6.2-.94,22.6,22.6,0,0,0-6.06.83c-4,1-7.76,2.59-11.92,2.64-4.39.05-8.77-.87-13.14-1.25a124.26,124.26,0,0,0-29.91,1.06h0L206.58,56c-4.72-.53-9.49-1.1-14.23-.41a24.72,24.72,0,0,0-3.29.71,9.82,9.82,0,0,1-3.5.69,17.53,17.53,0,0,1-3.19-.8,16.14,16.14,0,0,0-3.52-.49,56.11,56.11,0,0,0-7,.55,28.86,28.86,0,0,1-7.07-.21,25.51,25.51,0,0,0-6.92-.35,40.38,40.38,0,0,0-6.51,1.58,27.85,27.85,0,0,1-6.82,1.4,17.58,17.58,0,0,1-7-1.23c-3.61-1.38-7.9-3.81-11.7-1.56-.8.47-1.46,1.12-2.21,1.65a3.78,3.78,0,0,1-3.18.64c-2.18-.43-4.31-1.13-6.48-1.62-9.45-2.15-19.8-3.15-28.75,1.28a.85.85,0,0,0-.38,1.22h-.28v.21H400v.94c.24.1.48.22.72.34C401.81,61.15,402.82,59.48,401.68,58.9Z" fill="#fff" opacity="0.4"/><rect x="84.62" y="104.12" width="315.32" height="7.33" fill="#fff" opacity="0.6"/><rect x="84.62" y="182.63" width="315.32" height="7.33" fill="#fff" opacity="0.6"/><g opacity="0.84"><path d="M150.7,192.46a96.68,96.68,0,0,0,16.78-10.22c6.3-4.6,13.37-6.41,21.21-7.32,9-1,9.19-.15,16.48-5.39,1.65-1.18,3.16-2.62,5.11-3.25,3.52-1.13,7.68-2.14,10.59-4.37,1.23-.94,1.9-2.42,3-3.44,2.8-2.46,11-2.46,11-2.46h42.55s15.11,13.37,23.46,15.15c4.31.92,10.78-.11,14.68,1.89,5.31,2.72,4.21,4.29,10.2,4.69,4.07.26,21.63,12.34,18.24,12.33-16.78,0-193.36,2.39-193.36,2.39" fill="#fff"/></g><path d="M216.29,208.86l0-10.79a9.2,9.2,0,0,0-.21-2.51,15.44,15.44,0,0,0-.68-1.7c-1.39-3.32-1.38-7-1.34-10.59a14.88,14.88,0,0,1,.56-4.75,12.25,12.25,0,0,1,2.74-4.15,31.3,31.3,0,0,1,12.13-8.08,38,38,0,0,0,5.14-2,6.9,6.9,0,0,0,3.53-3.95c.26-1,.32-2.22,1.26-2.68a11.8,11.8,0,0,0,1.83-1.64h31s5.76,11.12,8.79,14.6a22,22,0,0,1,3.49,5.91,50,50,0,0,1,3.93,23.93,5.21,5.21,0,0,1-.62,2.39c-.73,1.17-2.21,1.65-3.58,2A44.82,44.82,0,0,1,271.41,206" fill="#fff"/><rect x="246.07" y="142.65" width="26.2" height="13.36" fill="#fff"/></g><path d="M204.41,48.28s4,48.54,43.68,46.73S290.93,49.6,290.93,49.6" fill="none" stroke="#262521" stroke-linecap="round" stroke-linejoin="round" stroke-width="3"/><path d="M200,54.59c2.77,14.31,13,47.82,48.15,46.21,36.24-1.66,45.38-34.35,47.53-46.52" fill="none" stroke="#636363" stroke-linecap="round" stroke-linejoin="round"/><path d="M121.8,180.84s2.11,28.62,0,44.25.11,29.7.11,32.87,1.9,33.07,1.9,33.07" fill="none" stroke="#262521" stroke-linecap="round" stroke-linejoin="round" stroke-width="3"/><path d="M371.33,188.66s5.79,47.28,0,75.34" fill="none" stroke="#262521" stroke-linecap="round" stroke-linejoin="round" stroke-width="3"/><path d="M51.32,409.51S80,400,96.47,412" fill="none" stroke="#636363" stroke-linecap="round" stroke-linejoin="round"/><path d="M402.18,412s25.94-8.31,43.55,0" fill="none" stroke="#636363" stroke-linecap="round" stroke-linejoin="round"/><path d="M133.45,438.85s155.28-12.31,227.71,2.37" fill="none" stroke="#636363" stroke-linecap="round" stroke-linejoin="round"/><path d="M291.48,48.63c29.12,10.49,61,14.41,87.44,31.58,15.94,14.59,21.63,38,30.45,57.21" fill="none" stroke="#262521" stroke-linecap="round" stroke-linejoin="round" stroke-width="3"/><path d="M65.15,186.85c13.61-35.43,24.56-73.32,48.07-103.67,27.32-18.2,60-23.76,90.46-34.78" fill="none" stroke="#262521" stroke-linecap="round" stroke-linejoin="round" stroke-width="3"/></svg>