<svg xmlns="http://www.w3.org/2000/svg" width="500" height="550" viewBox="0 0 500 550"><title>s03e03-02</title><path d="M301.85,52.3h0c-4.21-7.64-22.61-13.45-52.31-13.54s-49.64,5.53-54.22,13.3L132.81,77.75s9.46,340.92,7.64,348.56-.12,15.94,4.62,16.81,40.22,5.83,55.87,9.11,155.23-1.63,158.5-3.81S365,77.75,365,77.75Z" fill="#262521"/><path d="M203.81,57.84s5.11,40.48,44.78,38.66,45.57-38.66,45.57-38.66" fill="none" stroke="#636363" stroke-linecap="round" stroke-linejoin="round"/><path d="M201.83,54.84s7.71,64.75,46.53,64.75,45.26-65,45.26-65" fill="none" stroke="#262521" stroke-linecap="round" stroke-linejoin="round" stroke-width="5" stroke-dasharray="1 3"/><path d="M247.54,119.67a1,1,0,0,1,0-2q.48,0,1,0a1,1,0,0,1,1,1,1,1,0,0,1-1,1c-.34,0-.69,0-1,0Zm-3-.12h-.09c-.34,0-.69-.07-1-.12a1,1,0,0,1,.26-2l.95.11a1,1,0,0,1,.91,1.08A1,1,0,0,1,244.54,119.55Zm7-.18a1,1,0,0,1-.13-2l1-.14a1,1,0,0,1,.32,2c-.34.06-.67.11-1,.15Zm-10.9-.47a1,1,0,0,1-.24,0c-.34-.08-.67-.16-1-.26a1,1,0,1,1,.54-1.92l.93.24a1,1,0,0,1-.23,2Zm14.81-.29a1,1,0,0,1-.24-2l.93-.25a1,1,0,1,1,.55,1.92l-1,.27A1,1,0,0,1,255.43,118.61Zm-18.61-.92a1,1,0,0,1-.37-.07l-1-.4a1,1,0,1,1,.81-1.83l.89.37a1,1,0,0,1-.37,1.93Zm22.41-.3a1,1,0,0,1-.93-.64,1,1,0,0,1,.57-1.29l.9-.36a1,1,0,0,1,.78,1.84l-1,.39A1.13,1.13,0,0,1,259.23,117.39Zm-26-1.43a1,1,0,0,1-.5-.13l-.88-.52a1,1,0,1,1,1-1.71c.27.17.55.33.83.49a1,1,0,0,1-.49,1.87Zm29.62-.23a1,1,0,0,1-.47-1.88l.85-.47a1,1,0,1,1,1,1.73c-.3.18-.6.34-.9.5A1,1,0,0,1,262.86,115.73Zm-33-2a1,1,0,0,1-.6-.2l-.81-.62a1,1,0,0,1-.17-1.41,1,1,0,0,1,1.4-.16l.77.59a1,1,0,0,1,.21,1.4A1,1,0,0,1,229.9,113.78Zm36.38-.13a1,1,0,0,1-.83-.43,1,1,0,0,1,.26-1.39l.79-.56a1,1,0,1,1,1.18,1.62l-.84.59A1,1,0,0,1,266.28,113.65Zm-39.45-2.42a1,1,0,0,1-.68-.27l-.75-.7a1,1,0,0,1,1.39-1.44l.71.67a1,1,0,0,1,.06,1.42A1,1,0,0,1,226.83,111.23Zm42.61,0a1,1,0,0,1-.65-1.76l.73-.64a1,1,0,0,1,1.34,1.49l-.77.67A1,1,0,0,1,269.44,111.22Zm2.9-2.73a1,1,0,0,1-.69-.28,1,1,0,0,1,0-1.41l.67-.71a1,1,0,0,1,1.41-.06,1,1,0,0,1,.06,1.42c-.24.25-.47.5-.71.74A1,1,0,0,1,272.34,108.49ZM224,108.38a1,1,0,0,1-.74-.33c-.23-.25-.46-.5-.68-.76a1,1,0,0,1,1.51-1.31l.65.73a1,1,0,0,1-.07,1.42A1,1,0,0,1,224,108.38Zm51-2.87a1,1,0,0,1-.63-.23,1,1,0,0,1-.14-1.41l.62-.76a1,1,0,1,1,1.56,1.24l-.63.79A1,1,0,0,1,275,105.51Zm-53.54-.2a1,1,0,0,1-.79-.39l-.62-.81a1,1,0,0,1,1.61-1.2c.19.27.39.53.59.79a1,1,0,0,1-.18,1.4A1,1,0,0,1,221.46,105.31Zm56-3a1,1,0,0,1-.58-.18,1,1,0,0,1-.24-1.39l.56-.81a1,1,0,0,1,1.66,1.13c-.2.27-.39.55-.58.83A1,1,0,0,1,277.42,102.33Zm-58.29-.27a1,1,0,0,1-.83-.45c-.19-.28-.38-.56-.56-.84a1,1,0,1,1,1.68-1.09c.17.27.36.55.54.82a1,1,0,0,1-.28,1.39A1,1,0,0,1,219.13,102.06ZM279.61,99a1.13,1.13,0,0,1-.52-.14,1,1,0,0,1-.33-1.38l.51-.85a1,1,0,0,1,1.72,1c-.17.3-.35.58-.52.87A1,1,0,0,1,279.61,99ZM217,98.67a1,1,0,0,1-.87-.5l-.5-.87a1,1,0,1,1,1.73-1l.5.85a1,1,0,0,1-.36,1.37A1,1,0,0,1,217,98.67Zm64.61-3.15a1,1,0,0,1-.88-1.48c.15-.29.31-.58.46-.88a1,1,0,0,1,1.35-.42,1,1,0,0,1,.42,1.35c-.15.3-.31.6-.47.9A1,1,0,0,1,281.61,95.52Zm-66.56-.35a1,1,0,0,1-.88-.54c-.16-.29-.31-.59-.47-.9a1,1,0,1,1,1.78-.9c.15.29.3.58.46.87a1,1,0,0,1-.89,1.47Zm68.36-3.23a.9.9,0,0,1-.42-.1,1,1,0,0,1-.48-1.33l.42-.9a1,1,0,1,1,1.81.84l-.42.92A1,1,0,0,1,283.41,91.94Zm-70.14-.36a1,1,0,0,1-.9-.57c-.15-.31-.29-.62-.43-.92a1,1,0,1,1,1.82-.83c.13.3.27.59.41.89a1,1,0,0,1-.47,1.33A1,1,0,0,1,213.27,91.58ZM285,88.28a.84.84,0,0,1-.38-.08,1,1,0,0,1-.54-1.31l.38-.91a1,1,0,1,1,1.85.75l-.38.94A1,1,0,0,1,285,88.28Zm-73.4-.35a1,1,0,0,1-.92-.61l-.39-.93a1,1,0,1,1,1.84-.76l.39.91a1,1,0,0,1-.53,1.31A1.09,1.09,0,0,1,211.64,87.93Zm74.87-3.37a.91.91,0,0,1-.35-.07,1,1,0,0,1-.58-1.29c.11-.3.23-.61.34-.92a1,1,0,1,1,1.88.67c-.11.32-.23.64-.35,1A1,1,0,0,1,286.51,84.56Zm-76.37-.34a1,1,0,0,1-.94-.64l-.35-1a1,1,0,0,1,.58-1.28,1,1,0,0,1,1.29.58l.35.93a1,1,0,0,1-.57,1.29A.92.92,0,0,1,210.14,84.22Zm77.7-3.44a1.12,1.12,0,0,1-.31,0,1,1,0,0,1-.64-1.27c.11-.31.21-.63.31-.94a1,1,0,1,1,1.91.61c-.11.32-.21.64-.32,1A1,1,0,0,1,287.84,80.78Zm-79.08-.32a1,1,0,0,1-.95-.67l-.33-1a1,1,0,1,1,1.9-.64l.32.94a1,1,0,0,1-.61,1.27A1,1,0,0,1,208.76,80.46ZM289,77a1,1,0,0,1-.29,0,1,1,0,0,1-.67-1.24l.27-1a1,1,0,0,1,1.93.54l-.28,1A1,1,0,0,1,289,77Zm-81.55-.29a1,1,0,0,1-1-.7l-.31-1a1,1,0,0,1,.66-1.25,1,1,0,0,1,1.25.65l.3.95a1,1,0,0,1-.65,1.26A1,1,0,0,1,207.49,76.66Zm82.62-3.57a1.15,1.15,0,0,1-.26,0,1,1,0,0,1-.71-1.22l.24-1a1,1,0,1,1,1.94.48c-.08.33-.16.65-.25,1A1,1,0,0,1,290.11,73.09Zm-83.78-.27a1,1,0,0,1-1-.72l-.28-1a1,1,0,1,1,1.92-.54l.28,1a1,1,0,0,1-.69,1.24A.84.84,0,0,1,206.33,72.82Zm84.73-3.63a.9.9,0,0,1-.23,0,1,1,0,0,1-.75-1.2l.22-1a1,1,0,0,1,1.95.43l-.22,1A1,1,0,0,1,291.06,69.19ZM205.26,69a1,1,0,0,1-1-.75l-.25-1a1,1,0,1,1,1.94-.5l.25,1a1,1,0,0,1-.71,1.22A.78.78,0,0,1,205.26,69Zm86.63-3.69a.62.62,0,0,1-.19,0,1,1,0,0,1-.79-1.17l.19-1a1,1,0,0,1,2,.38l-.2,1A1,1,0,0,1,291.89,65.27Zm-88.57-1-.23-1a1,1,0,0,1,.75-1.2,1,1,0,0,1,1.2.75l.21.91-.62,1.73Zm89.3-3-.17,0a1,1,0,0,1-.82-1.15c.06-.34.11-.66.16-1a1,1,0,0,1,2,.32c0,.32-.11.65-.17,1A1,1,0,0,1,292.62,61.33Zm-89.21-.18a1,1,0,0,1-1-.79l-.2-1a1,1,0,0,1,.77-1.18,1,1,0,0,1,1.19.78l.2,1a1,1,0,0,1-.77,1.19Zm89.81-3.79h-.13a1,1,0,0,1-.86-1.13c0-.35.09-.68.13-1a1,1,0,0,1,1.12-.87,1,1,0,0,1,.87,1.12c0,.3-.09.64-.14,1A1,1,0,0,1,293.22,57.36Zm-90.6-.15a1,1,0,0,1-1-.81l-.18-1a1,1,0,1,1,2-.35l.18,1a1,1,0,0,1-.81,1.17Z" fill="#b7b6b0"/><path d="M200.37,55.23a1,1,0,0,1-1-.84l-.08-.5a1,1,0,0,1,2-.29l.07.47a1,1,0,0,1-.83,1.15Z" fill="#7f7e78"/><path d="M248.5,121.22h0l-1,0a1,1,0,1,1,.08-2c.32,0,.64,0,1,0a1,1,0,0,1,0,2Zm3-.11a1,1,0,0,1-.08-2l1-.09a1,1,0,1,1,.23,2l-1,.1Zm-7-.17h-.13l-1-.16a1,1,0,0,1,.33-2l1,.14a1,1,0,0,1-.14,2Zm10.93-.39a1,1,0,0,1-1-.8,1,1,0,0,1,.78-1.18l.94-.21a1,1,0,1,1,.47,1.94l-1,.23Zm-14.84-.39a.78.78,0,0,1-.26,0c-.33-.08-.66-.18-1-.28a1,1,0,1,1,.57-1.91l.93.26a1,1,0,0,1-.25,2Zm18.69-.68a1,1,0,0,1-.33-1.94l.91-.34a1,1,0,0,1,.72,1.87l-1,.35A1,1,0,0,1,259.29,119.48Zm-22.48-.59a1.08,1.08,0,0,1-.38-.08l-.94-.4a1,1,0,1,1,.81-1.83l.89.38a1,1,0,0,1-.38,1.93Zm26.15-1a1,1,0,0,1-.44-1.89l.85-.45a1,1,0,1,1,1,1.76l-.92.48A1,1,0,0,1,263,117.92Zm-29.75-.77a1,1,0,0,1-.48-.12c-.3-.17-.6-.34-.89-.52a1,1,0,1,1,1-1.71l.84.48a1,1,0,0,1-.49,1.87Zm33.21-1.23a1,1,0,0,1-.55-1.84c.27-.17.53-.36.8-.54a1,1,0,0,1,1.15,1.63l-.85.58A1,1,0,0,1,266.42,115.92ZM229.84,115a1,1,0,0,1-.58-.18c-.28-.2-.56-.4-.83-.61a1,1,0,1,1,1.2-1.6l.79.58a1,1,0,0,1,.23,1.4A1,1,0,0,1,229.84,115Zm39.79-1.48a1,1,0,0,1-.64-1.76l.74-.64a1,1,0,1,1,1.31,1.51l-.78.66A.94.94,0,0,1,269.63,113.53Zm-42.93-1a1,1,0,0,1-.65-.25l-.77-.68a1,1,0,0,1-.06-1.42,1,1,0,0,1,1.41-.06l.73.65a1,1,0,0,1-.66,1.76Zm45.87-1.7a1,1,0,0,1-.71-1.7c.23-.24.46-.47.68-.71a1,1,0,0,1,1.42,0,1,1,0,0,1,0,1.41l-.72.73A1,1,0,0,1,272.57,110.83Zm-48.76-1.07a1,1,0,0,1-.72-.31l-.7-.74a1,1,0,0,1,1.47-1.36c.22.25.45.48.67.72a1,1,0,0,1,0,1.41A1,1,0,0,1,223.81,109.76Zm51.46-1.89a1,1,0,0,1-.77-1.64l.62-.76a1,1,0,0,1,1.41-.15,1,1,0,0,1,.15,1.4c-.21.27-.43.53-.64.79A1,1,0,0,1,275.27,107.87Zm-54.11-1.1a1,1,0,0,1-.78-.37c-.21-.26-.43-.52-.64-.79a1,1,0,0,1,1.57-1.24c.2.26.41.51.62.76a1,1,0,0,1-.14,1.41A1,1,0,0,1,221.16,106.77Zm56.56-2.06a1.05,1.05,0,0,1-.58-.19,1,1,0,0,1-.23-1.4c.2-.27.38-.53.57-.8a1,1,0,1,1,1.64,1.14c-.19.28-.39.56-.59.83A1,1,0,0,1,277.72,104.71Zm-59-1.11a1,1,0,0,1-.82-.42l-.58-.83a1,1,0,1,1,1.64-1.14c.19.27.37.53.57.8a1,1,0,0,1-.23,1.4A1.05,1.05,0,0,1,218.72,103.6ZM280,101.39a.92.92,0,0,1-.53-.16,1,1,0,0,1-.32-1.37l.52-.84a1,1,0,0,1,1.37-.34,1,1,0,0,1,.34,1.38l-.54.86A1,1,0,0,1,280,101.39Zm-63.49-1.12a1,1,0,0,1-.84-.46l-.54-.86a1,1,0,0,1,.33-1.38,1,1,0,0,1,1.37.33l.53.84a1,1,0,0,1-.31,1.38A1,1,0,0,1,216.47,100.27ZM282,97.94a.91.91,0,0,1-.48-.13,1,1,0,0,1-.39-1.36c.16-.28.31-.57.47-.86a1,1,0,0,1,1.76.94l-.48.89A1,1,0,0,1,282,97.94Zm-67.58-1.11a1,1,0,0,1-.87-.51c-.17-.29-.33-.59-.49-.88a1,1,0,1,1,1.75-1l.48.87a1,1,0,0,1-.38,1.36A1,1,0,0,1,214.41,96.83Zm69.44-2.45a1,1,0,0,1-.44-.1,1,1,0,0,1-.46-1.34c.15-.3.29-.59.43-.89a1,1,0,0,1,1.81.86l-.45.91A1,1,0,0,1,283.85,94.38ZM212.52,93.3a1,1,0,0,1-.9-.55l-.45-.9A1,1,0,1,1,213,91l.45.89a1,1,0,0,1-.44,1.34A1.06,1.06,0,0,1,212.52,93.3Zm73-2.55a1,1,0,0,1-.4-.09,1,1,0,0,1-.51-1.32l.39-.91a1,1,0,0,1,1.32-.52,1,1,0,0,1,.52,1.31c-.13.31-.26.62-.4.93A1,1,0,0,1,285.53,90.75Zm-74.75-1.06a1,1,0,0,1-.91-.58l-.42-.92a1,1,0,0,1,.5-1.32,1,1,0,0,1,1.33.5l.4.9a1,1,0,0,1-.49,1.33A1,1,0,0,1,210.78,89.69ZM287.07,87a.92.92,0,0,1-.36-.07,1,1,0,0,1-.57-1.29q.19-.47.36-.93a1,1,0,0,1,1.29-.57,1,1,0,0,1,.58,1.29c-.12.31-.24.63-.37.94A1,1,0,0,1,287.07,87Zm-77.9-1a1,1,0,0,1-.92-.62l-.39-.93a1,1,0,0,1,1.86-.75c.12.3.24.61.37.91a1,1,0,0,1-.92,1.39Zm79.31-2.73a1,1,0,0,1-.34-.06,1,1,0,0,1-.61-1.27l.33-.94a1,1,0,0,1,1.89.65l-.33,1A1,1,0,0,1,288.48,83.29Zm-80.79-1a1,1,0,0,1-.93-.64l-.36-1a1,1,0,0,1,1.88-.69l.35.93a1,1,0,0,1-.59,1.29A1,1,0,0,1,207.69,82.29Zm82.06-2.8a1,1,0,0,1-.3,0,1,1,0,0,1-.65-1.26l.3-1a1,1,0,0,1,1.91.6l-.31,1A1,1,0,0,1,289.75,79.49Zm-83.42-1a1,1,0,0,1-.94-.67l-.33-1a1,1,0,1,1,1.9-.63l.32.94a1,1,0,0,1-.62,1.27A1.26,1.26,0,0,1,206.33,78.52Zm84.58-2.87a1,1,0,0,1-.28,0,1,1,0,0,1-.68-1.24l.27-1a1,1,0,0,1,1.23-.7,1,1,0,0,1,.7,1.23l-.28,1A1,1,0,0,1,290.91,75.65Zm-85.83-.94a1,1,0,0,1-1-.7l-.3-1a1,1,0,0,1,.66-1.25,1,1,0,0,1,1.25.66l.3,1a1,1,0,0,1-.66,1.26A1,1,0,0,1,205.08,74.71ZM292,71.78a.69.69,0,0,1-.25,0,1,1,0,0,1-.72-1.21l.24-1a1,1,0,0,1,1.94.48l-.25,1A1,1,0,0,1,292,71.78Zm-88-.91a1,1,0,0,1-1-.73l-.27-1a1,1,0,0,1,1.93-.53l.27,1a1,1,0,0,1-.69,1.24A.9.9,0,0,1,203.93,70.87Zm89-3a.9.9,0,0,1-.23,0,1,1,0,0,1-.75-1.2l.22-1a1,1,0,0,1,1.95.43l-.22,1A1,1,0,0,1,292.9,67.87Zm-90-.87a1,1,0,0,1-1-.76l-.25-1a1,1,0,1,1,1.94-.49l.25,1a1,1,0,0,1-.72,1.21A.77.77,0,0,1,202.89,67Zm90.84-3-.19,0a1,1,0,0,1-.79-1.17l.19-1a1,1,0,0,1,2,.37l-.2,1A1,1,0,0,1,293.73,64Zm-91.79-.85a1,1,0,0,1-1-.78l-.23-1a1,1,0,0,1,2-.43l.22,1a1,1,0,0,1-.75,1.2A.91.91,0,0,1,201.94,63.1ZM294.46,60h-.17a1,1,0,0,1-.82-1.16l.17-1a1,1,0,1,1,2,.32l-.16,1A1,1,0,0,1,294.46,60Zm-93.36-.83a1,1,0,0,1-1-.8c-.07-.35-.14-.68-.2-1a1,1,0,1,1,2-.37c.05.3.12.63.19,1a1,1,0,0,1-.78,1.18Z" fill="#7f7e78"/><path d="M295.06,56.05h-.13a1,1,0,0,1-.86-1.12l.06-.47a1,1,0,0,1,1.1-.89,1,1,0,0,1,.89,1.1s0,.18-.07.52A1,1,0,0,1,295.06,56.05Z" fill="#7f7e78"/><g opacity="0.86"><path d="M262.86,115.73a1,1,0,0,1-.47-1.88l.85-.47a1,1,0,1,1,1,1.73c-.3.18-.6.34-.9.5A1,1,0,0,1,262.86,115.73Zm-33-2a1,1,0,0,1-.6-.2l-.81-.62a1,1,0,0,1-.17-1.41,1,1,0,0,1,1.4-.16l.77.59a1,1,0,0,1,.21,1.4A1,1,0,0,1,229.9,113.78Zm36.38-.13a1,1,0,0,1-.83-.43,1,1,0,0,1,.26-1.39l.79-.56a1,1,0,1,1,1.18,1.62l-.84.59A1,1,0,0,1,266.28,113.65Zm-39.45-2.42a1,1,0,0,1-.68-.27l-.75-.7a1,1,0,0,1,1.39-1.44l.71.67a1,1,0,0,1,.06,1.42A1,1,0,0,1,226.83,111.23Zm42.61,0a1,1,0,0,1-.65-1.76l.73-.64a1,1,0,0,1,1.34,1.49l-.77.67A1,1,0,0,1,269.44,111.22Zm2.9-2.73a1,1,0,0,1-.69-.28,1,1,0,0,1,0-1.41l.67-.71a1,1,0,0,1,1.41-.06,1,1,0,0,1,.06,1.42c-.24.25-.47.5-.71.74A1,1,0,0,1,272.34,108.49ZM224,108.38a1,1,0,0,1-.74-.33c-.23-.25-.46-.5-.68-.76a1,1,0,0,1,1.51-1.31l.65.73a1,1,0,0,1-.07,1.42A1,1,0,0,1,224,108.38Zm51-2.87a1,1,0,0,1-.63-.23,1,1,0,0,1-.14-1.41l.62-.76a1,1,0,1,1,1.56,1.24l-.63.79A1,1,0,0,1,275,105.51Zm2.42-3.18a1,1,0,0,1-.58-.18,1,1,0,0,1-.24-1.39l.56-.81a1,1,0,0,1,1.66,1.13c-.2.27-.39.55-.58.83A1,1,0,0,1,277.42,102.33Z" fill="#fff"/></g><g opacity="0.86"><path d="M200.37,55.23a1,1,0,0,1-1-.84l-.08-.5a1,1,0,0,1,2-.29l.07.47a1,1,0,0,1-.83,1.15Z" fill="#fff"/><path d="M266.42,115.92a1,1,0,0,1-.55-1.84c.27-.17.53-.36.8-.54a1,1,0,0,1,1.15,1.63l-.85.58A1,1,0,0,1,266.42,115.92Zm3.21-2.39a1,1,0,0,1-.64-1.76l.74-.64a1,1,0,1,1,1.31,1.51l-.78.66A.94.94,0,0,1,269.63,113.53Zm-42.93-1a1,1,0,0,1-.65-.25l-.77-.68a1,1,0,0,1-.06-1.42,1,1,0,0,1,1.41-.06l.73.65a1,1,0,0,1-.66,1.76Zm45.87-1.7a1,1,0,0,1-.71-1.7c.23-.24.46-.47.68-.71a1,1,0,0,1,1.42,0,1,1,0,0,1,0,1.41l-.72.73A1,1,0,0,1,272.57,110.83Zm-48.76-1.07a1,1,0,0,1-.72-.31l-.7-.74a1,1,0,0,1,1.47-1.36c.22.25.45.48.67.72a1,1,0,0,1,0,1.41A1,1,0,0,1,223.81,109.76Zm51.46-1.89a1,1,0,0,1-.77-1.64l.62-.76a1,1,0,0,1,1.41-.15,1,1,0,0,1,.15,1.4c-.21.27-.43.53-.64.79A1,1,0,0,1,275.27,107.87Zm-54.11-1.1a1,1,0,0,1-.78-.37c-.21-.26-.43-.52-.64-.79a1,1,0,0,1,1.57-1.24c.2.26.41.51.62.76a1,1,0,0,1-.14,1.41A1,1,0,0,1,221.16,106.77Z" fill="#fff"/><path d="M295.06,56.05h-.13a1,1,0,0,1-.86-1.12l.06-.47a1,1,0,0,1,1.1-.89,1,1,0,0,1,.89,1.1s0,.18-.07.52A1,1,0,0,1,295.06,56.05Z" fill="#fff"/></g><path d="M203.11,157.78c-11-64.76,3-104.09,3-104.09s-1.7-5.53-2.07-5.41c-30.43,11-63.47,16.7-90.79,34.9-23.51,30.35-34.46,68.24-48.07,103.68-23.59,59.07-28.1,123-26.19,186a144.54,144.54,0,0,0,2.72,33.31c.24,1.12,1.29,17.36,3.33,25.12.3,1.47,1,1.47,2.4,1.47,15.64,0,40.06-2.14,52.44,1.38,3.12.94,3.17,1.12,3.74-2.05,1.44-8,3-23.93,3-25-1.07-8.1,0-15.95,1.54-23.93,1.19-8.37,4.89-16.87,4.38-25.31-1-3.31.12-6.43.37-9.58,1.26-11.18,6-24.61-5.15-32.56-5.69-6.88,9.44-5.5,11.81-16.18,1.35-2.86,2.87-5.63,4.29-8.46,2.21,47.16,3.58,57.77,3.58,112.17,0,78.16,64.22,88.06,88.82,87.48C216.21,490.68,214.47,198.3,203.11,157.78Z" fill="#262521"/><path d="M409.37,137.42c-8.82-19.22-14.51-42.62-30.45-57.21C352.53,63,317.16,58.75,288,48.26c-2.43-1,13.81,4,4,114.13-6.35,49-5.22,306.88-4.77,330.88,16.65-.42,86.9-24.57,84.26-78.25q.3-61.72.62-123.46l.41-.08c.5,7.24,12.44,8.69,10.93,15.92-2.92,3.85-2.68,8-1.61,12.34,3.05,11.88,5.55,24,10.45,35.29,1.35,3.61,1.5,7.13-.51,10.66-5.47,9-1.69,19.56-.79,29.26,1.72,8.67-2.41,37.14,5.93,37.29,12.54-3.91,39.84.29,52.32,2.94,2.67.5,2.68.28,3.09-2.32.83-5.36,4.29-22.75,4.78-27.41,3.05-18.5,2.09-37.3,3.28-55.95C467.37,274.81,437.18,204.9,409.37,137.42Z" fill="#262521"/><path d="M215.85,446.59s8.4-207.81-8.79-271.84c-18.91-70.48-.17-121.32-1-121.06" fill="none" stroke="#636363" stroke-linecap="round" stroke-linejoin="round"/><path d="M289.81,54.86c7.68,4.63,5.85,69.91.52,122.47s-4,247.11-3.58,271.11" fill="none" stroke="#636363" stroke-linecap="round" stroke-linejoin="round"/></svg>