<svg xmlns="http://www.w3.org/2000/svg" width="500" height="550" viewBox="0 0 500 550"><path d="M372.14 291.56q-.27 61.72-.62 123.46c-.81 9-2.68 16.41-3.55 25.44-1 10.07 1.34 17.05-1.5 25.64-.59 1.76-2 1.66-3.35 1.43-44.59-7.74-101.66-5.72-146.65-2.92-24.6.57-58.62-1.68-83 2.09-5.23.59-5.68.27-6.62-4.83-1.35-11.26 1.94-18.53.53-29.31-6.15-46.82-1.39-94.37-3.6-141.53-1.42 2.83-2.94 5.6-4.29 8.46-2.37 10.68-17.5 9.3-11.81 16.18 11.11 7.95 6.41 21.38 5.15 32.56-.25 3.15-1.35 6.27-.37 9.58.51 8.44-3.19 16.94-4.38 25.31-1.5 8-2.61 15.83-1.54 23.93a5.1 5.1 0 01-1.13 3.3c-5.71 6.28-7.75 14-9.19 22.06-.57 3.18-.61 3-3.74 2-12.38-3.52-26.09-4.38-38.6-1.18-1.39.34-2.11 0-2.41-1.47-2-7.76-2.18-16.67-8.49-22.43a6.62 6.62 0 01-1.33-3.21A144.54 144.54 0 0139 372.86c-1.91-63 2.6-126.93 26.19-186 13.61-35.43 24.56-73.32 48.07-103.67 27.32-18.2 60-23.76 90.46-34.78a3.16 3.16 0 012.72.43c5 5.55 11.46 8.41 18.56 9.67 19.19 2.43 41.29 5.55 58.65-4.88 2.85-1.27 4.2-6.53 7.87-5 29.12 10.49 61 14.41 87.44 31.58 15.94 14.59 21.63 38 30.45 57.21 27.81 67.48 58 137.39 51.05 212.08-1.19 18.65-.23 37.45-3.28 55.95-.49 4.66-5.21 7.1-5.56 11.78-1.22 5.28-2.08 10.65-2.91 16-.4 2.6-.41 2.83-3.08 2.33-12.48-2.66-25.26-5.49-37.8-1.58-8.34-.15-8.13-15.56-11.44-21.4-6.28-7.37-3.61-9-5.33-17.64-.9-9.7-4.68-20.27.79-29.26 2-3.53 1.86-7.05.51-10.66-4.9-11.28-7.4-23.41-10.45-35.29-1.07-4.3-1.31-8.49 1.61-12.34 1.51-7.23-10.43-8.68-10.93-15.92z" fill="#d8d8d8" stroke="#262521" stroke-linecap="round" stroke-linejoin="round" stroke-width="3"/><path d="M51.32 409.51S80 400 96.47 412m305.71 0s25.94-8.31 43.55 0m-312.28 26.85s155.28-12.31 227.71 2.37" fill="none" stroke="#636363" stroke-linecap="round" stroke-linejoin="round"/><path d="M121.8 180.84s2.11 28.62 0 44.25.11 29.7.11 32.87 1.9 33.07 1.9 33.07" fill="none" stroke="#262521" stroke-linecap="round" stroke-linejoin="round" stroke-width="3"/><path d="M194.62 56.1c2.77 14.3 15 50.28 52.49 50.23 39.57 0 51.53-38 53.68-50.23" fill="none" stroke="#636363" stroke-linecap="round" stroke-linejoin="round"/><path d="M204.38 48.28s4 48.54 43.67 46.73S290.9 49.6 290.9 49.6m80.43 139.06s5.79 47.28 0 75.34" fill="none" stroke="#262521" stroke-linecap="round" stroke-linejoin="round" stroke-width="3"/><path fill="#636363" stroke="#262521" stroke-linecap="round" stroke-linejoin="round" stroke-width=".76" d="M307.18 56.91l7.74-9.49.42 12.23-8.16-2.74z"/><path fill="#fff" opacity=".6" d="M314.33 49.82l-3.19 7.34 3.46 1.15-.27-8.49z"/><path fill="#636363" stroke="#262521" stroke-linecap="round" stroke-linejoin="round" stroke-width=".76" d="M326.43 62.35l7.65-9.56.54 12.23-8.19-2.67z"/><path fill="#fff" opacity=".6" d="M333.51 55.2l-3.12 7.37 3.48 1.12-.36-8.49z"/><path fill="#636363" stroke="#262521" stroke-linecap="round" stroke-linejoin="round" stroke-width=".76" d="M363.74 75.57l8.95-8.36-1.24 12.18-7.71-3.82z"/><path fill="#fff" opacity=".6" d="M371.77 69.51l-4.15 6.85 3.28 1.61.87-8.46z"/><path fill="#636363" stroke="#262521" stroke-linecap="round" stroke-linejoin="round" stroke-width=".76" d="M381.6 87.73l12.01-2.37-7.47 9.7-4.54-7.33z"/><path fill="#fff" opacity=".6" d="M391.63 86.83l-7.14 3.63 1.94 3.09 5.2-6.72z"/><path fill="#636363" stroke="#262521" stroke-linecap="round" stroke-linejoin="round" stroke-width=".76" d="M391.74 105.8l12.19-1.08-8.46 8.84-3.73-7.76z"/><path fill="#fff" opacity=".6" d="M401.8 105.97l-7.49 2.85 1.6 3.28 5.89-6.13z"/><path fill="#636363" stroke="#262521" stroke-linecap="round" stroke-linejoin="round" stroke-width=".76" d="M401.03 126.3l12.24-.39-8.95 8.35-3.29-7.96z"/><path fill="#fff" opacity=".6" d="M411.07 127.04l-7.63 2.42 1.41 3.36 6.22-5.78z"/><path fill="#636363" stroke="#262521" stroke-linecap="round" stroke-linejoin="round" stroke-width=".76" d="M411.07 149.29l12.24-.4-8.95 8.36-3.29-7.96z"/><path fill="#fff" opacity=".6" d="M421.11 150.02l-7.63 2.42 1.4 3.37 6.23-5.79z"/><path fill="#636363" stroke="#262521" stroke-linecap="round" stroke-linejoin="round" stroke-width=".76" d="M421.11 174.55l12.24-.4-8.95 8.36-3.29-7.96z"/><path fill="#fff" opacity=".6" d="M431.14 175.28l-7.63 2.42 1.41 3.37 6.22-5.79z"/><path fill="#636363" stroke="#262521" stroke-linecap="round" stroke-linejoin="round" stroke-width=".76" d="M431.51 200.12l12.24.48-9.53 7.7-2.71-8.18z"/><path fill="#fff" opacity=".6" d="M441.47 201.57l-7.78 1.87 1.16 3.46 6.62-5.33z"/><path fill="#636363" stroke="#262521" stroke-linecap="round" stroke-linejoin="round" stroke-width=".76" d="M439.97 225.53l12.18 1.32-10.03 7.02-2.15-8.34z"/><path fill="#fff" opacity=".6" d="M449.81 227.66l-7.89 1.33.92 3.53 6.97-4.86z"/><path fill="#636363" stroke="#262521" stroke-linecap="round" stroke-linejoin="round" stroke-width=".76" d="M448.48 253.25l12.05 2.21-10.52 6.27-1.53-8.48z"/><path fill="#fff" opacity=".6" d="M458.14 256.09l-7.97.75.66 3.59 7.31-4.34z"/><path fill="#636363" stroke="#262521" stroke-linecap="round" stroke-linejoin="round" stroke-width=".76" d="M454.67 283.14l11.92 2.78-10.8 5.76-1.12-8.54z"/><path fill="#fff" opacity=".6" d="M464.17 286.45l-7.99.36.49 3.62 7.5-3.98z"/><path fill="#636363" stroke="#262521" stroke-linecap="round" stroke-linejoin="round" stroke-width=".76" d="M457.83 309.24l11.66 3.74-11.24 4.86-.42-8.6z"/><path fill="#fff" opacity=".6" d="M467.04 313.3l-8-.28.19 3.64 7.81-3.36z"/><path fill="#636363" stroke="#262521" stroke-linecap="round" stroke-linejoin="round" stroke-width=".76" d="M458.07 340.22l11 5.39-11.82 3.19.82-8.58z"/><path fill="#fff" opacity=".6" d="M466.6 345.57l-7.88-1.43-.33 3.63 8.21-2.2z"/><path fill="#636363" stroke="#262521" stroke-linecap="round" stroke-linejoin="round" stroke-width=".76" d="M457.11 371.31l11.32 4.67-11.6 3.94.28-8.61z"/><path fill="#fff" opacity=".6" d="M465.96 376.1l-7.95-.93-.1 3.65 8.05-2.72z"/><path fill="#636363" stroke="#262521" stroke-linecap="round" stroke-linejoin="round" stroke-width=".76" d="M455.02 401.18l9.17 8.12-12.25-.08 3.08-8.04z"/><path fill="#fff" opacity=".6" d="M461.81 408.61l-7.21-3.48-1.29 3.41 8.5.07z"/><path fill="#636363" stroke="#262521" stroke-linecap="round" stroke-linejoin="round" stroke-width=".76" d="M344.26 67.89l8.32-8.99-.35 12.24-7.97-3.25z"/><path fill="#fff" opacity=".6" d="M351.83 61.26l-3.64 7.13 3.39 1.36.25-8.49z"/><path fill="#636363" stroke="#262521" stroke-linecap="round" stroke-linejoin="round" stroke-width=".76" d="M187.12 56.91l-7.74-9.49-.43 12.23 8.17-2.74z"/><path fill="#fff" opacity=".6" d="M179.97 49.82l3.19 7.34-3.47 1.15.28-8.49z"/><path fill="#636363" stroke="#262521" stroke-linecap="round" stroke-linejoin="round" stroke-width=".76" d="M167.86 62.35l-7.65-9.56-.53 12.23 8.18-2.67z"/><path fill="#fff" opacity=".6" d="M160.78 55.2l3.12 7.37-3.47 1.12.35-8.49z"/><path fill="#636363" stroke="#262521" stroke-linecap="round" stroke-linejoin="round" stroke-width=".76" d="M131.06 76.89l-8.95-8.36 1.24 12.18 7.71-3.82z"/><path fill="#fff" opacity=".6" d="M123.02 70.83l4.15 6.85-3.27 1.6-.88-8.45z"/><path fill="#636363" stroke="#262521" stroke-linecap="round" stroke-linejoin="round" stroke-width=".76" d="M112.69 87.73l-12.01-2.37 7.48 9.7 4.53-7.33z"/><path fill="#fff" opacity=".6" d="M102.67 86.83l7.14 3.63-1.94 3.09-5.2-6.72z"/><path fill="#636363" stroke="#262521" stroke-linecap="round" stroke-linejoin="round" stroke-width=".76" d="M101.55 105.17l-12.19-1.08 8.46 8.85 3.73-7.77z"/><path fill="#fff" opacity=".6" d="M91.49 105.34l7.48 2.85-1.59 3.28-5.89-6.13z"/><path fill="#636363" stroke="#262521" stroke-linecap="round" stroke-linejoin="round" stroke-width=".76" d="M92.13 126.15l-12.24-.4 8.95 8.36 3.29-7.96z"/><path fill="#fff" opacity=".6" d="M82.09 126.88l7.63 2.42-1.41 3.37-6.22-5.79z"/><path fill="#636363" stroke="#262521" stroke-linecap="round" stroke-linejoin="round" stroke-width=".76" d="M82.73 148.79l-12.24-.4 8.95 8.36 3.29-7.96z"/><path fill="#fff" opacity=".6" d="M72.69 149.52l7.63 2.42-1.41 3.37-6.22-5.79z"/><path fill="#636363" stroke="#262521" stroke-linecap="round" stroke-linejoin="round" stroke-width=".76" d="M73.19 174.55l-12.24-.4 8.95 8.36 3.29-7.96z"/><path fill="#fff" opacity=".6" d="M63.15 175.28l7.63 2.42-1.41 3.37-6.22-5.79z"/><path fill="#636363" stroke="#262521" stroke-linecap="round" stroke-linejoin="round" stroke-width=".76" d="M63.66 200.15l-12.23.48 9.52 7.69 2.71-8.17z"/><path fill="#fff" opacity=".6" d="M53.71 201.6l7.78 1.87-1.16 3.45-6.62-5.32z"/><path fill="#636363" stroke="#262521" stroke-linecap="round" stroke-linejoin="round" stroke-width=".76" d="M55.94 225.53l-12.17 1.32 10.03 7.02 2.14-8.34z"/><path fill="#fff" opacity=".6" d="M46.11 227.66l7.89 1.33-.92 3.53-6.97-4.86z"/><path fill="#636363" stroke="#262521" stroke-linecap="round" stroke-linejoin="round" stroke-width=".76" d="M49.79 254.03l-12.04 2.2 10.51 6.27 1.53-8.47z"/><path fill="#fff" opacity=".6" d="M40.14 256.87l7.97.75-.67 3.58-7.3-4.33z"/><path fill="#636363" stroke="#262521" stroke-linecap="round" stroke-linejoin="round" stroke-width=".76" d="M44.9 283.73l-11.69 3.63 11.19 4.96.5-8.59z"/><path fill="#fff" opacity=".6" d="M35.66 287.71l8-.21-.23 3.64-7.77-3.43z"/><path fill="#636363" stroke="#262521" stroke-linecap="round" stroke-linejoin="round" stroke-width=".76" d="M42.8 309.24l-11.66 3.74 11.23 4.86.43-8.6z"/><path fill="#fff" opacity=".6" d="M33.59 313.3l8-.28-.2 3.64-7.8-3.36z"/><path fill="#636363" stroke="#262521" stroke-linecap="round" stroke-linejoin="round" stroke-width=".76" d="M41.33 340.53l-11.29 4.76 11.63 3.84-.34-8.6z"/><path fill="#fff" opacity=".6" d="M32.52 345.39l7.94-.99.13 3.65-8.07-2.66z"/><path fill="#636363" stroke="#262521" stroke-linecap="round" stroke-linejoin="round" stroke-width=".76" d="M41.75 370.21l-11.31 4.67 11.59 3.94-.28-8.61z"/><path fill="#fff" opacity=".6" d="M32.91 375.01l7.95-.94.1 3.65-8.05-2.71z"/><path fill="#636363" stroke="#262521" stroke-linecap="round" stroke-linejoin="round" stroke-width=".76" d="M43.12 399.46l-9.49 7.73 12.24.43-2.75-8.16z"/><path fill="#fff" opacity=".6" d="M36.03 406.6l7.35-3.18 1.15 3.46-8.5-.28z"/><path fill="#636363" stroke="#262521" stroke-linecap="round" stroke-linejoin="round" stroke-width=".76" d="M150.26 68.37l-8.32-8.98.35 12.24 7.97-3.26z"/><path fill="#fff" opacity=".6" d="M142.69 61.75l3.64 7.13-3.39 1.36-.25-8.49z"/></svg>