<svg xmlns="http://www.w3.org/2000/svg" width="500" height="550" viewBox="0 0 500 550"><path d="M372.14 291.55q-.27 61.74-.62 123.47c-.81 9-2.68 16.41-3.55 25.44-1 10.07 1.34 17.05-1.5 25.63-.59 1.77-2 1.67-3.35 1.44-44.59-7.74-101.66-5.72-146.65-2.93-24.6.58-58.62-1.67-83 2.09-5.23.6-5.68.28-6.62-4.82-1.35-11.26 1.94-18.53.53-29.31-6.15-46.82-1.39-94.37-3.6-141.53-1.42 2.82-2.94 5.6-4.29 8.46-2.37 10.67-17.5 9.3-11.81 16.18 11.11 7.95 6.41 21.38 5.15 32.56-.25 3.15-1.35 6.27-.37 9.58.51 8.44-3.19 16.94-4.38 25.31-1.5 8-2.61 15.83-1.54 23.93a5.1 5.1 0 01-1.13 3.3c-5.71 6.28-7.75 14-9.19 22.06-.57 3.18-.61 3-3.74 2-12.38-3.52-26.09-4.38-38.6-1.18-1.39.34-2.11 0-2.41-1.47-2-7.76-2.18-16.67-8.49-22.43a6.62 6.62 0 01-1.33-3.22A144.46 144.46 0 0139 372.86c-1.91-63 2.6-126.93 26.19-186 13.61-35.43 24.56-73.32 48.07-103.67 27.32-18.2 60-23.76 90.46-34.78a3.16 3.16 0 012.72.43c5 5.55 11.46 8.41 18.56 9.67 19.19 2.43 41.29 5.55 58.65-4.88 2.85-1.27 4.2-6.53 7.87-5 29.12 10.49 61 14.4 87.44 31.58 15.94 14.59 21.63 38 30.45 57.21 27.81 67.48 58 137.39 51.05 212.07-1.19 18.66-.23 37.46-3.28 56-.49 4.66-5.21 7.09-5.56 11.78-1.22 5.28-2.08 10.65-2.91 16-.4 2.6-.41 2.83-3.08 2.33-12.48-2.66-25.26-5.49-37.8-1.58-8.34-.15-8.13-15.56-11.44-21.41-6.28-7.36-3.61-9-5.33-17.63-.9-9.7-4.68-20.27.79-29.26 2-3.53 1.86-7.05.51-10.66-4.9-11.29-7.4-23.42-10.45-35.29-1.07-4.31-1.31-8.5 1.61-12.34 1.51-7.23-10.43-8.68-10.93-15.93z" fill="#262521" stroke="#262521" stroke-linecap="round" stroke-linejoin="round" stroke-width="3"/><path d="M207.78 170.54l-3.16-7.73h-1.73v7.73h-3.63v-19h5.26c4.37 0 6.44 2.1 6.44 5.68 0 2.37-.84 4.08-2.86 4.84l3.57 8.47zm-4.89-10.73h1.87a2.63 2.63 0 000-5.26h-1.87zM214.7 170.54l4.71-19h4.65l4.58 19h-3.47l-.92-4h-5l-1 4zm5.18-7.21h3.61l-1.77-7.68h-.05zM232.72 151.55h5.05c4.15 0 6.47 1.79 6.63 6.58V164c-.16 4.78-2.48 6.57-6.63 6.57h-5.05zm3.63 15.78h1.26c2 0 3.16-.94 3.16-3.79v-5c0-2.69-.9-3.79-3.16-3.79h-1.26zM249.66 170.54v-19h3.63v19zM262.18 164.91c0 2.11.92 2.69 2.37 2.69s2.36-.58 2.36-2.69v-1.26h3.64v.79c0 4.68-2.48 6.37-6 6.37s-6-1.69-6-6.37v-6.79c0-4.68 2.47-6.36 6-6.36s6 1.68 6 6.36v.06h-3.64v-.53c0-2.11-.92-2.68-2.36-2.68s-2.37.57-2.37 2.68zM274.31 170.54l4.7-19h4.66l4.58 19h-3.47l-.92-4h-5l-1 4zm5.18-7.21h3.6l-1.76-7.68h-.05zM292.33 170.54v-19H296v15.78h5.84v3.21zM209.59 201.9v-14.73h7.35v2.49h-4.53v3.39H216v2.49h-3.55v6.36zM219.06 201.9v-14.73h7.71v2.49h-4.89v3.39h3.73v2.49h-3.73v3.87H227v2.49zM229.83 201.9v-14.73h3.94l2.55 9.67 2.55-9.67h3.94v14.73h-2.41v-11.59l-3 11.59h-2.12l-3-11.59v11.59zM246.11 201.9v-14.73h2.82v14.73zM252.19 201.9v-14.73h3.08l3.92 8.73v-8.73h2.57v14.73h-2.69l-4.3-9.5h-.05v9.5zM265.07 201.9v-14.73h2.81v14.73zM277.21 191.27c-.47-1.38-1.09-2-2.06-2a1.46 1.46 0 00-1.56 1.62c0 2.22 6.29 2.38 6.29 7 0 2.53-1.74 4.21-4.69 4.21-2.29 0-4.06-1.25-4.82-4.15l2.78-.59c.32 1.78 1.34 2.41 2.18 2.41a1.65 1.65 0 001.73-1.75c0-2.78-6.28-2.82-6.28-6.94 0-2.53 1.51-4.12 4.43-4.12a4.38 4.38 0 014.53 3.57zM291.26 187.17v2.49H288v12.24h-2.82v-12.24h-3.28v-2.49z" fill="#fff"/></svg>