<svg xmlns="http://www.w3.org/2000/svg" width="500" height="550" viewBox="0 0 500 550"><path d="M372.14 291.56q-.27 61.72-.62 123.46c-.81 9-2.68 16.41-3.55 25.44-1 10.07 1.34 17.05-1.5 25.64-.59 1.76-2 1.66-3.35 1.43-44.59-7.74-101.66-5.72-146.65-2.92-24.6.57-58.62-1.68-83 2.09-5.23.59-5.68.27-6.62-4.83-1.35-11.25 1.94-18.53.53-29.31-6.15-46.81-1.39-94.37-3.6-141.53-1.42 2.83-2.94 5.6-4.29 8.46-2.37 10.68-17.5 9.3-11.81 16.18 11.11 7.95 6.41 21.38 5.15 32.56-.25 3.15-1.35 6.27-.37 9.58.51 8.44-3.19 16.94-4.38 25.31-1.5 8-2.61 15.83-1.54 23.93a5.1 5.1 0 01-1.13 3.3c-5.71 6.28-7.75 14-9.19 22.06-.57 3.18-.61 3-3.74 2-12.38-3.52-26.09-4.38-38.6-1.18-1.39.34-2.11 0-2.41-1.47-2-7.76-2.18-16.67-8.49-22.43a6.62 6.62 0 01-1.33-3.21A144.54 144.54 0 0139 372.86c-1.91-63 2.6-126.93 26.19-186 13.61-35.44 24.56-73.33 48.07-103.68 27.32-18.2 60-23.75 90.46-34.78a3.16 3.16 0 012.72.43c5 5.55 11.46 8.41 18.56 9.67 19.19 2.43 41.29 5.55 58.65-4.88 2.85-1.27 4.2-6.53 7.87-5 29.12 10.49 61 14.41 87.44 31.58 15.94 14.59 21.63 38 30.45 57.21 27.81 67.48 58 137.39 51.05 212.08-1.19 18.65-.23 37.45-3.28 55.95-.49 4.66-5.21 7.1-5.56 11.78-1.22 5.28-2.08 10.65-2.91 16-.4 2.6-.41 2.83-3.08 2.33-12.48-2.66-25.26-5.49-37.8-1.58-8.34-.15-8.13-15.56-11.44-21.4-6.28-7.37-3.61-9-5.33-17.64-.9-9.7-4.68-20.27.79-29.26 2-3.53 1.86-7.05.51-10.66-4.9-11.28-7.4-23.41-10.45-35.29-1.07-4.3-1.31-8.49 1.61-12.34 1.51-7.23-10.43-8.68-10.93-15.92z" fill="#262521" stroke="#262521" stroke-linecap="round" stroke-linejoin="round" stroke-width="3"/><path fill="#fff" stroke="#fff" stroke-linecap="round" stroke-linejoin="round" stroke-width="3" d="M231.93 137.17l28.36-1.15-21.93 17.88 7.75-27.04 9.51 26.42-23.69-16.11zM231.93 314.72l28.36-1.15-21.93 17.88 7.75-27.04 9.51 26.42-23.69-16.11zM320.44 228.94l28.35-1.14-21.93 17.88 7.75-27.04 9.52 26.42-23.69-16.12zM144.15 228.94l28.36-1.14-21.93 17.88 7.75-27.04 9.51 26.42-23.69-16.12zM154.41 182.88l28.36-1.15-21.93 17.88 7.75-27.04 9.51 26.42-23.69-16.11zM187.77 153.69l28.36-1.15-21.93 17.88 7.75-27.04 9.51 26.42-23.69-16.11zM339.08 182.88l-28.36-1.15 21.93 17.88-7.75-27.04-9.51 26.42 23.69-16.11zM154.41 267.76l28.36-1.15-21.93 17.88 7.75-27.04 9.51 26.42-23.69-16.11zM339.08 268.27l-28.36-1.14L332.65 285l-7.75-27.03-9.51 26.42 23.69-16.12zM305.72 153.69l-28.35-1.15 21.92 17.88-7.75-27.04-9.51 26.42 23.69-16.11zM182.77 302.87l28.36-1.15-21.93 17.88 7.75-27.04 9.51 26.42-23.69-16.11zM310.72 302.87l-28.36-1.15 21.93 17.88-7.75-27.04-9.51 26.42 23.69-16.11z"/></svg>