<svg xmlns="http://www.w3.org/2000/svg" width="500" height="550" viewBox="0 0 500 550"><defs><clipPath id="a"><path fill="none" d="M0 0h46.34v28.36H0z"/></clipPath><pattern id="b" width="46.34" height="28.36" patternUnits="userSpaceOnUse" viewBox="0 0 46.34 28.36"><path fill="none" d="M0 0h46.34v28.36H0z"/><g clip-path="url(#a)"><path fill="#757572" d="M0 0h46.34v28.36H0z"/><path d="M4.14 11.8h3.8a1.13 1.13 0 000-2.25h-3.8a1.13 1.13 0 000 2.25zM26 16.82h5.52a1.13 1.13 0 000-2.25H26a1.13 1.13 0 100 2.25zM32.93 5.22h3.8a1.13 1.13 0 000-2.25h-3.8a1.13 1.13 0 00-1.12 1.12 1.15 1.15 0 001.12 1.13zM19.21 10.8a9.37 9.37 0 012 .06h-.3c.2 0 .39.06.59.09a1.17 1.17 0 00.86-.11 1.12 1.12 0 00.52-.67 1.15 1.15 0 00-.11-.87 1.11 1.11 0 00-.67-.51 10.66 10.66 0 00-2.87-.2 1.13 1.13 0 00-1.13 1.13 1.16 1.16 0 00.33.79 1.14 1.14 0 00.8.33zM4.48 2.3c.91 0 1.83.05 2.74.14l.7.07h.45c.46.06.92.14 1.38.22A1.16 1.16 0 0011.14 2a1.15 1.15 0 00-.79-1.38A33.07 33.07 0 004.48.05a1.13 1.13 0 00-1.13 1.12A1.16 1.16 0 004.48 2.3zM15.58 20.06h1.79a1.17 1.17 0 00.79-.33 1.15 1.15 0 00.33-.8 1.11 1.11 0 00-.33-.79 1.17 1.17 0 00-.79-.33h-1.79a1.11 1.11 0 00-.79.33 1.07 1.07 0 00-.33.79 1.09 1.09 0 00.33.8 1.17 1.17 0 00.79.33zM1.92 23.93q3.6.09 7.2 0a1.13 1.13 0 100-2.25q-3.6.1-7.2 0a1.13 1.13 0 000 2.25zM14.41 28.12c1.49-.05 3-.15 4.46-.32a1.2 1.2 0 00.8-.33 1.16 1.16 0 00.33-.79c0-.56-.5-1.2-1.13-1.13-1.48.17-3 .27-4.46.32a1.13 1.13 0 100 2.25zM27.56 24.91c1.27.24 2.53.5 3.79.8a1.13 1.13 0 10.6-2.17c-1.26-.3-2.52-.56-3.79-.8a1.26 1.26 0 00-.87.12 1.17 1.17 0 00-.52.67 1.14 1.14 0 00.79 1.38zM42.7 27.61c.44 0 .88-.1 1.32-.16h-.3a.43.43 0 01.16 0h-.3.15l-.27-.11c.41.17.82.36 1.23.51a1.11 1.11 0 00.87-.11 1.11 1.11 0 00.4-1.54l-.17-.2a1.18 1.18 0 00-.5-.28l-.54-.22.27.11-.38-.16a2.39 2.39 0 00-.44-.18 1.55 1.55 0 00-.48 0l-.64.09h.3l-.68.07a1.17 1.17 0 00-.79.33 1.07 1.07 0 00-.33.79 1.13 1.13 0 001.12 1.13zM40.23 22.14c1.48-.06 3-.07 4.46 0a1.13 1.13 0 100-2.25h-4.46A1.14 1.14 0 0039.1 21a1.16 1.16 0 001.13 1.13zM43 14.54h2.29a1.11 1.11 0 00.79-.33 1.07 1.07 0 00.33-.79 1.14 1.14 0 00-1.12-1.13H43a1.13 1.13 0 00-1.13 1.13A1.15 1.15 0 0043 14.54zM37.68 9.7h2.51a1.11 1.11 0 00.81-.35 1.07 1.07 0 00.33-.79 1.15 1.15 0 00-1.12-1.13H37.7a1.18 1.18 0 00-.8.33 1.2 1.2 0 00-.33.8 1.11 1.11 0 00.33.79 1.15 1.15 0 00.8.33zM41.81 2.46h3A1.12 1.12 0 0046 1.34 1.14 1.14 0 0044.83.21h-3a1.14 1.14 0 00-1.12 1.13 1.14 1.14 0 001.12 1.12zM28.14 10.52h.94a1 1 0 00.44-.1.86.86 0 00.36-.23.82.82 0 00.23-.36.84.84 0 00.1-.44v-.3a1.07 1.07 0 00-.29-.49l-.23-.18a1.1 1.1 0 00-.57-.15h-.94a.83.83 0 00-.44.09.88.88 0 00-.36.24.77.77 0 00-.23.36.8.8 0 00-.1.43v.3a1.1 1.1 0 00.29.5l.23.17a1.11 1.11 0 00.57.16zM7.25 15.57a2.71 2.71 0 00.17.39v.06c.07.09.14.19.22.28l.1.09a2.18 2.18 0 00.34.26 3.17 3.17 0 00.38.17h.15a2 2 0 00.43.05 1.54 1.54 0 00.43-.05.81.81 0 00.39-.2.86.86 0 00.29-.31.9.9 0 00.13-.42.86.86 0 000-.45l-.11-.27a1.12 1.12 0 00-.41-.4l-.27-.12a1.18 1.18 0 00-.59 0h.3H9h.3l-.21-.06.27.11a1.18 1.18 0 01-.19-.11l.22.17a.93.93 0 01-.14-.14l.17.22a1.19 1.19 0 01-.09-.15l.11.26a.87.87 0 00-.2-.38.81.81 0 00-.32-.29.81.81 0 00-.42-.14.93.93 0 00-.44 0l-.27.12a1.12 1.12 0 00-.41.4l-.13.34a1.22 1.22 0 000 .6z" fill="#cecec6"/><path d="M2.19 6.4a20.82 20.82 0 012.62 0c.43 0 .85.07 1.27.12h.11l.31.05.7.13a1.13 1.13 0 10.6-2.17 20.7 20.7 0 00-5.61-.38 1.13 1.13 0 000 2.25zM13.57 14h3.13a1.13 1.13 0 001.12-1.12 1.15 1.15 0 00-1.12-1.13h-3.13a1.13 1.13 0 000 2.25zM16.14 7.5h3.63a1.13 1.13 0 001.12-1.12 1.15 1.15 0 00-1.12-1.13h-3.63a1.13 1.13 0 100 2.25zM14.8 2.64h3a1.12 1.12 0 001.12-1.12A1.15 1.15 0 0017.76.39h-3a1.15 1.15 0 00-1.13 1.13 1.15 1.15 0 001.17 1.12zM20.88 16.29c.8 0 1.6.05 2.4 0a1.14 1.14 0 00.8-.33 1.16 1.16 0 00.33-.79 1.13 1.13 0 00-1.13-1.13h-2.4a1.11 1.11 0 00-1.12 1.12 1.14 1.14 0 00.32.8 1.25 1.25 0 00.8.33zM31 20.67h4.35a1.13 1.13 0 000-2.25H31a1.13 1.13 0 100 2.25zM35.45 12.69h.6a8.55 8.55 0 00.87-.09.82.82 0 00.38-.2.86.86 0 00.29-.31.8.8 0 00.13-.42.77.77 0 000-.45l-.13-.22a1.1 1.1 0 00-.4-.4l-.27-.12a1.22 1.22 0 00-.6 0h.3a5.53 5.53 0 01-1.15 0 .83.83 0 00-.44.09.88.88 0 00-.36.24.77.77 0 00-.23.36.91.91 0 00-.1.43v.3a1.1 1.1 0 00.29.5l.23.17a1 1 0 00.57.16zM26.8 7.59h3.07A1.12 1.12 0 0031 6.44a1.15 1.15 0 00-1.12-1.13h-3.07a1.18 1.18 0 00-.8.33 1.12 1.12 0 00.8 1.92zM32.6 2.26h3.74a1.13 1.13 0 001.12-1.13A1.13 1.13 0 0036.34 0H32.6a1.15 1.15 0 00-1.13 1.12 1.16 1.16 0 001.13 1.14zM42.53 5.91q1.42.06 2.85 0a1.17 1.17 0 00.79-.33 1.11 1.11 0 00.33-.8 1.12 1.12 0 00-1.12-1.12h-2.85a1.13 1.13 0 000 2.25zM41.69 17.63c.86 0 1.72-.05 2.57 0a1.14 1.14 0 001.13-1.13 1.15 1.15 0 00-1.13-1.12h-2.57a1.22 1.22 0 00-.79.33 1.13 1.13 0 000 1.6 1.12 1.12 0 00.79.32zM37.62 25.28l2.85.07a1.12 1.12 0 001.12-1.12 1.15 1.15 0 00-1.12-1.13l-2.85-.1a1.12 1.12 0 00-1.12 1.12 1.14 1.14 0 001.12 1.13zM33.05 28.21h3.07a1.13 1.13 0 000-2.25h-3.07a1.14 1.14 0 00-1.13 1.12 1.16 1.16 0 001.13 1.13zM23.5 27.65h1.62a1.13 1.13 0 001.13-1.13 1.16 1.16 0 00-.33-.79 1.14 1.14 0 00-.8-.33H23.5a1.13 1.13 0 00-.79.33 1.11 1.11 0 00-.33.79 1.15 1.15 0 00.33.8 1.17 1.17 0 00.79.33zM20 22.53c.32-.07.64-.13 1-.17h-.3a12.27 12.27 0 011.71-.11 1.16 1.16 0 00.79-.33 1.11 1.11 0 00.33-.8A1.13 1.13 0 0022.39 20a13.6 13.6 0 00-3 .32 1.12 1.12 0 00-.67.51 1.21 1.21 0 00-.12.87 1.16 1.16 0 001.39.79zM12.34 24.44h3.18a1.13 1.13 0 100-2.25h-3.18a1.12 1.12 0 00-1.12 1.12 1.15 1.15 0 001.12 1.13zM7.43 27.65h2a1.13 1.13 0 001.12-1.13 1.11 1.11 0 00-.33-.79 1.13 1.13 0 00-.79-.33h-2a1.13 1.13 0 00-.79.33 1.11 1.11 0 00-.33.79 1.15 1.15 0 00.33.8 1.17 1.17 0 00.79.33zM.77 15.38a9.46 9.46 0 011.46.45.73.73 0 00.44 0 .8.8 0 00.42-.13.89.89 0 00.32-.29.93.93 0 00.2-.38 1.2 1.2 0 00-.11-.87L3.32 14a1.2 1.2 0 00-.5-.29 9 9 0 00-1.45-.45 1.17 1.17 0 00-.86.12.75.75 0 00-.32.29A.78.78 0 000 14a1.15 1.15 0 00.11.87 1.13 1.13 0 00.67.51zM2.36 19l.57.06c.07 0 .32.06 0 0h.24c.35.05.7.11 1 .18.69.13 1.38.3 2.06.49a1.13 1.13 0 00.6-2.17 26.79 26.79 0 00-4.53-.85 1.12 1.12 0 00-1.12 1.13A1.14 1.14 0 002.36 19z" fill="#262521"/></g></pattern></defs><path d="M369.22 77.8c-16.91-9.6-80.65-27.29-80.65-27.29-48.16 30.16-87.35 0-87.35 0s-65.41 21.12-81.84 32.38S243 240 242 244.37C240.17 252 386.12 87.4 369.22 77.8z" fill="#262521" stroke="#262521" stroke-linecap="round" stroke-linejoin="round" stroke-width="3"/><path d="M201.22 50.51s4 48.55 43.68 46.73 43.67-46.73 43.67-46.73" fill="none" stroke="#636363" stroke-linecap="round" stroke-linejoin="round"/><path d="M372.14 291.55q-.27 61.74-.62 123.47c-.81 9-2.68 37.34-3.55 46.37-1 10.08 1.34 17.05-1.5 25.64-.59 1.77-2 1.66-3.35 1.43-44.59-7.73-101.66-5.71-146.65-2.92-24.6.58-58.62-1.68-83 2.09-5.23.6-5.68.27-6.62-4.82-1.35-11.26 1.94-39.47.53-50.25-6.15-46.82-1.39-94.37-3.6-141.53-1.42 2.82-2.94 5.6-4.29 8.46-2.37 10.67-17.5 9.3-11.81 16.18 11.11 7.95 6.41 21.38 5.15 32.56-.25 3.15-1.35 6.27-.37 9.58.51 8.44-3.19 16.94-4.38 25.31-1.5 8-2.61 15.83-1.54 23.93a5.1 5.1 0 01-1.13 3.3c-5.71 6.28-3.25 14-4.69 22.06-.57 3.18-.61 3-3.74 2-12.38-3.52-34.59-4.38-47.1-1.18-1.39.34-2.11 0-2.41-1.47-2-7.76 1.82-16.67-4.49-22.43a6.62 6.62 0 01-1.33-3.22A144.46 144.46 0 0139 372.86c-1.91-63 2.6-126.93 26.19-186 13.61-35.43 24.56-73.32 48.07-103.67 27.32-18.2 53.27-25.67 53.7-25.07 75.55 105.34 161.59.4 165.27 1.94 29.12 10.49 20.34 3 46.73 20.16 15.94 14.59 21.63 38 30.45 57.21 27.81 67.48 58 137.39 51.05 212.07-1.19 18.66-.23 37.46-3.28 56-.49 4.66-5.21 7.09-5.56 11.78-1.22 5.28-.08 10.65-.91 16-.4 2.6-.41 2.83-3.08 2.33-12.48-2.66-31.76-5.49-44.3-1.58-8.34-.15-3.63-15.56-6.94-21.41-6.28-7.36-3.61-9-5.33-17.63-.9-9.7-4.68-20.27.79-29.26 2-3.53 1.86-7.05.51-10.66-4.9-11.29-7.4-23.42-10.45-35.29-1.07-4.31-1.31-8.5 1.61-12.34 1.51-7.23-10.43-8.68-10.93-15.93z" fill="#7f7f7f"/><path d="M372.14 291.55q-.27 61.74-.62 123.47c-.81 9-2.68 37.34-3.55 46.37-1 10.08 1.34 17.05-1.5 25.64-.59 1.77-2 1.66-3.35 1.43-44.59-7.73-101.66-5.71-146.65-2.92-24.6.58-58.62-1.68-83 2.09-5.23.6-5.68.27-6.62-4.82-1.35-11.26 1.94-39.47.53-50.25-6.15-46.82-1.39-94.37-3.6-141.53-1.42 2.82-2.94 5.6-4.29 8.46-2.37 10.67-17.5 9.3-11.81 16.18 11.11 7.95 6.41 21.38 5.15 32.56-.25 3.15-1.35 6.27-.37 9.58.51 8.44-3.19 16.94-4.38 25.31-1.5 8-2.61 15.83-1.54 23.93a5.1 5.1 0 01-1.13 3.3c-5.71 6.28-3.25 14-4.69 22.06-.57 3.18-.61 3-3.74 2-12.38-3.52-34.59-4.38-47.1-1.18-1.39.34-2.11 0-2.41-1.47-2-7.76 1.82-16.67-4.49-22.43a6.62 6.62 0 01-1.33-3.22A144.46 144.46 0 0139 372.86c-1.91-63 2.6-126.93 26.19-186 13.61-35.43 24.56-73.32 48.07-103.67 27.32-18.2 53.27-25.67 53.7-25.07 75.55 105.34 161.59.4 165.27 1.94 29.12 10.49 20.34 3 46.73 20.16 15.94 14.59 21.63 38 30.45 57.21 27.81 67.48 58 137.39 51.05 212.07-1.19 18.66-.23 37.46-3.28 56-.49 4.66-5.21 7.09-5.56 11.78-1.22 5.28-.08 10.65-.91 16-.4 2.6-.41 2.83-3.08 2.33-12.48-2.66-31.76-5.49-44.3-1.58-8.34-.15-3.63-15.56-6.94-21.41-6.28-7.36-3.61-9-5.33-17.63-.9-9.7-4.68-20.27.79-29.26 2-3.53 1.86-7.05.51-10.66-4.9-11.29-7.4-23.42-10.45-35.29-1.07-4.31-1.31-8.5 1.61-12.34 1.51-7.23-10.43-8.68-10.93-15.93z" fill="url(#b)" opacity=".2"/><path d="M372.14 291.55q-.27 61.74-.62 123.47c-.81 9-2.68 37.34-3.55 46.37-1 10.08 1.34 17.05-1.5 25.64-.59 1.77-2 1.66-3.35 1.43-44.59-7.73-101.66-5.71-146.65-2.92-24.6.58-58.62-1.68-83 2.09-5.23.6-5.68.27-6.62-4.82-1.35-11.26 1.94-39.47.53-50.25-6.15-46.82-1.39-94.37-3.6-141.53-1.42 2.82-2.94 5.6-4.29 8.46-2.37 10.67-17.5 9.3-11.81 16.18 11.11 7.95 6.41 21.38 5.15 32.56-.25 3.15-1.35 6.27-.37 9.58.51 8.44-3.19 16.94-4.38 25.31-1.5 8-2.61 15.83-1.54 23.93a5.1 5.1 0 01-1.13 3.3c-5.71 6.28-3.25 14-4.69 22.06-.57 3.18-.61 3-3.74 2-12.38-3.52-34.59-4.38-47.1-1.18-1.39.34-2.11 0-2.41-1.47-2-7.76 1.82-16.67-4.49-22.43a6.62 6.62 0 01-1.33-3.22A144.46 144.46 0 0139 372.86c-1.91-63 2.6-126.93 26.19-186 13.61-35.43 24.56-73.32 48.07-103.67 27.32-18.2 53.27-25.67 53.7-25.07 75.55 105.34 161.59.4 165.27 1.94 29.12 10.49 20.34 3 46.73 20.16 15.94 14.59 21.63 38 30.45 57.21 27.81 67.48 58 137.39 51.05 212.07-1.19 18.66-.23 37.46-3.28 56-.49 4.66-5.21 7.09-5.56 11.78-1.22 5.28-.08 10.65-.91 16-.4 2.6-.41 2.83-3.08 2.33-12.48-2.66-31.76-5.49-44.3-1.58-8.34-.15-3.63-15.56-6.94-21.41-6.28-7.36-3.61-9-5.33-17.63-.9-9.7-4.68-20.27.79-29.26 2-3.53 1.86-7.05.51-10.66-4.9-11.29-7.4-23.42-10.45-35.29-1.07-4.31-1.31-8.5 1.61-12.34 1.51-7.23-10.43-8.68-10.93-15.93z" fill="none" stroke="#262521" stroke-linecap="round" stroke-linejoin="round" stroke-width="3"/><path d="M121.8 180.84s2.11 28.62 0 44.25.11 29.7.11 32.87 1.9 33.07 1.9 33.07M371.33 188.66s5.79 47.28 0 75.34" fill="none" stroke="#262521" stroke-linecap="round" stroke-linejoin="round" stroke-width="3"/></svg>