<svg xmlns="http://www.w3.org/2000/svg" width="500" height="550" viewBox="0 0 500 550"><path d="M336.09 57.67c-5.35-3.37-4.85-8.67-6.86-12.67s-8.35 1-8.35 1-6.52-9.52-10.7-14.76-55.67 1.23-55.67 1.23h-6c-11-1.37-57.91-4.79-63.07 2.29-5.85 8-7.19 8-7.19 8s-4.85-4.85-8.69 0-21.02 17.44-17.68 23.79S190 84.11 190 84.11l58 23.79s94.95-36.67 96.29-40.84-2.85-6.06-8.2-9.39z" fill="#c1bfbd"/><path d="M291.86 48.28s-4.48 32.58-44.15 34.39S204 49.28 204 49.28s-71.3 373.84-73.12 381.48-1.1 17.66 3.64 18.54 42.22-7.43 57.87-4.16 163.78 5.46 167.05 3.28z" fill="#828282" stroke="#262521" stroke-linecap="round" stroke-linejoin="round" stroke-width="3"/><path d="M202.43 54.53s4.55 59.85 44.22 58 47-59.2 47-59.2" fill="none" stroke="#262521" stroke-linecap="round" stroke-miterlimit="10" stroke-width="3"/><path d="M204.61 157.78c-16-45.17.21-109.76-.6-109.5-30.43 11-63.47 16.7-90.79 34.9-23.51 30.35-34.46 68.24-48.07 103.68-23.59 59.07-28.1 123-26.19 186a144.54 144.54 0 002.72 33.31c.24 1.12 1.29 17.36 3.33 25.12.3 1.47 1 1.47 2.4 1.47 15.64 0 40.06-2.14 52.44 1.38 3.12.94 3.17 1.12 3.74-2.05 1.44-8 3-23.93 3-25-1.07-8.1 0-15.95 1.54-23.93 1.19-8.37 4.89-16.87 4.38-25.31-1-3.31.12-6.42.37-9.58 1.26-11.18 6-24.61-5.15-32.56-5.69-6.88 9.44-5.5 11.81-16.18 1.35-2.86 2.87-5.63 4.29-8.46 2.21 47.16 2.44 141.33 3.79 152.59-.08 17.58 62.31 46.66 86.91 46.09-.02-.04 4.15-292.31-9.92-331.97zm204.76-20.36c-8.82-19.22-14.51-42.62-30.45-57.21C352.53 63 321 58.77 291.86 48.28c-2.42-1 7.66 65.78-2.33 114.11s-3 302.06-2.53 326.06c44.23 10.42 83.75-47.43 84.33-49.2 2.85-8.59.63-106.54.81-147.69l.41-.08c.5 7.24 12.44 8.69 10.93 15.92-2.92 3.85-2.68 8-1.61 12.34 3.05 11.88 5.55 24 10.45 35.29 1.35 3.61 1.5 7.13-.51 10.66-5.47 9-1.69 19.56-.79 29.26 1.72 8.67-2.41 37.14 5.93 37.29 12.54-3.91 39.84.29 52.32 2.94 2.67.5 2.68.28 3.09-2.32.83-5.36 4.29-22.75 4.78-27.41 3.05-18.5 2.09-37.3 3.28-55.95 6.95-74.69-23.24-144.6-51.05-212.08z" fill="#c1bfbd"/><path d="M151.37 65.09c-13.37 4.64-26.29 10.19-38.15 18.09-23.51 30.35-34.46 68.24-48.07 103.68-23.59 59.07-28.1 123-26.19 186a144.54 144.54 0 002.72 33.31c.24 1.12 1.29 17.36 3.33 25.12.3 1.47 1 1.47 2.4 1.47 15.64 0 40.06-2.14 52.44 1.38 3.12.94 3.17 1.12 3.74-2.05 1.44-8 3-23.93 3-25-1.07-8.1 0-15.95 1.54-23.93 1.19-8.37 4.89-16.87 4.38-25.31-1-3.31.12-6.42.37-9.58 1.26-11.18 6-24.61-5.15-32.56-5.69-6.88 9.44-5.5 11.81-16.18 1.35-2.86 2.87-5.63 4.29-8.46 2.21 47.16 2.44 141.33 3.79 152.59-.08 17.58 62.31 46.66 86.91 46.09 0 0 4.17-292.27-9.9-331.93-16-45.17-.6-109.5-.6-109.5m87.83-.04s7.66 65.78-2.33 114.11-3 302.06-2.53 326.06c44.23 10.42 83.75-47.43 84.33-49.2 2.85-8.59.63-106.54.81-147.69l.41-.08c.5 7.24 12.44 8.69 10.93 15.92-2.92 3.85-2.68 8-1.61 12.34 3.05 11.88 5.55 24 10.45 35.29 1.35 3.61 1.5 7.13-.51 10.66-5.47 9-1.69 19.56-.79 29.26 1.72 8.67-2.41 37.14 5.93 37.29 12.54-3.91 39.84.29 52.32 2.94 2.67.5 2.68.28 3.09-2.32.83-5.36 4.29-22.75 4.78-27.41 3.05-18.5 2.09-37.3 3.28-55.95 6.95-74.69-23.24-144.6-51.05-212.08-8.82-19.22-14.51-42.62-30.45-57.21C368.07 73.15 355.64 68 343.58 64" fill="none" stroke="#262521" stroke-linecap="round" stroke-linejoin="round" stroke-width="3"/><path d="M160.52 87s38.58 86.72 49.74 161.26M337.75 81s-23.21 26.87-48.53 167.21" fill="none" stroke="#636363" stroke-linecap="round" stroke-linejoin="round"/><path d="M341 75.06c3.3-10.81 2.93-12.92-2.42-16.29S331.24 49 329.23 45s-8.35 1-8.35 1-6.52-9.52-10.7-14.76-55.67 1.23-55.67 1.23h-6c-11-1.37-57.91-4.79-63.07 2.29-5.85 8-7.19 8-7.19 8s-4.85-4.85-8.69 0-21.02 17.44-17.68 23.79l4.9 9.73" fill="none" stroke="#262521" stroke-linecap="round" stroke-linejoin="round" stroke-width="3"/><path fill="none" stroke="#636363" stroke-linecap="round" stroke-linejoin="round" d="M313.613 343.678l14.188-3.61 13.7 53.823-14.188 3.611zm-137.763 53.8l-14.188-3.611 13.7-53.824 14.187 3.611z"/><path d="M121.8 180.84s2.11 28.62 0 44.25.11 29.7.11 32.87 1.9 33.07 1.9 33.07m247.52-102.37s5.79 47.28 0 75.34" fill="none" stroke="#262521" stroke-linecap="round" stroke-linejoin="round" stroke-width="3"/></svg>