<svg xmlns="http://www.w3.org/2000/svg" width="500" height="550" viewBox="0 0 500 550"><title>s03e07-01</title><path d="M372.14,291.56q-.27,61.72-.62,123.46c-.81,9-2.68,16.41-3.55,25.44-1,10.07,1.34,17.05-1.5,25.64-.59,1.76-2,1.66-3.35,1.43-44.59-7.74-101.66-5.72-146.65-2.92-24.6.57-58.62-1.68-83,2.09-5.23.59-5.68.27-6.62-4.83-1.35-11.26,1.94-18.53.53-29.31-6.15-46.82-1.39-94.37-3.6-141.53-1.42,2.83-2.94,5.6-4.29,8.46-2.37,10.68-17.5,9.3-11.81,16.18,11.11,7.95,6.41,21.38,5.15,32.56-.25,3.15-1.35,6.27-.37,9.58.51,8.44-3.19,16.94-4.38,25.31-1.5,8-2.61,15.83-1.54,23.93a5.1,5.1,0,0,1-1.13,3.3c-5.71,6.28-7.75,14-9.19,22.06-.57,3.18-.61,3-3.74,2-12.38-3.52-26.09-4.38-38.6-1.18-1.39.34-2.11,0-2.41-1.47-2-7.76-2.18-16.67-8.49-22.43a6.62,6.62,0,0,1-1.33-3.21A144.54,144.54,0,0,1,39,372.86c-1.91-63,2.6-126.93,26.19-186,13.61-35.43,24.56-73.32,48.07-103.67,27.32-18.2,60-23.76,90.46-34.78a3.16,3.16,0,0,1,2.72.43c5,5.55,11.46,8.41,18.56,9.67,19.19,2.43,41.29,5.55,58.65-4.88,2.85-1.27,4.2-6.53,7.87-5,29.12,10.49,61,14.41,87.44,31.58,15.94,14.59,21.63,38,30.45,57.21,27.81,67.48,58,137.39,51.05,212.08-1.19,18.65-.23,37.45-3.28,55.95-.49,4.66-5.21,7.1-5.56,11.78-1.22,5.28-2.08,10.65-2.91,16-.4,2.6-.41,2.83-3.08,2.33-12.48-2.66-25.26-5.49-37.8-1.58-8.34-.15-8.13-15.56-11.44-21.4-6.28-7.37-3.61-9-5.33-17.64-.9-9.7-4.68-20.27.79-29.26,2-3.53,1.86-7.05.51-10.66-4.9-11.28-7.4-23.41-10.45-35.29-1.07-4.3-1.31-8.49,1.61-12.34,1.51-7.23-10.43-8.68-10.93-15.92Z" fill="#d8d8d8" stroke="#262521" stroke-linecap="round" stroke-linejoin="round" stroke-width="3"/><path d="M51.32,409.51S80,400,96.47,412" fill="none" stroke="#636363" stroke-linecap="round" stroke-linejoin="round"/><path d="M402.18,412s25.94-8.31,43.55,0" fill="none" stroke="#636363" stroke-linecap="round" stroke-linejoin="round"/><path d="M133.45,438.85s155.28-12.31,227.71,2.37" fill="none" stroke="#636363" stroke-linecap="round" stroke-linejoin="round"/><path d="M121.8,180.84s2.11,28.62,0,44.25.11,29.7.11,32.87,1.9,33.07,1.9,33.07" fill="none" stroke="#262521" stroke-linecap="round" stroke-linejoin="round" stroke-width="3"/><path d="M194.62,56.1c2.77,14.3,15,50.28,52.49,50.23,39.57,0,51.53-38,53.68-50.23" fill="none" stroke="#636363" stroke-linecap="round" stroke-linejoin="round"/><path d="M204.38,48.28s4,48.54,43.67,46.73S290.9,49.6,290.9,49.6" fill="none" stroke="#262521" stroke-linecap="round" stroke-linejoin="round" stroke-width="3"/><path d="M371.33,188.66s5.79,47.28,0,75.34" fill="none" stroke="#262521" stroke-linecap="round" stroke-linejoin="round" stroke-width="3"/><polygon points="307.18 56.91 314.92 47.42 315.34 59.65 307.18 56.91" fill="#636363" stroke="#262521" stroke-linecap="round" stroke-linejoin="round" stroke-width="0.76"/><polygon points="314.33 49.82 311.14 57.16 314.6 58.31 314.33 49.82" fill="#fff" opacity="0.6"/><polygon points="326.43 62.35 334.08 52.79 334.62 65.02 326.43 62.35" fill="#636363" stroke="#262521" stroke-linecap="round" stroke-linejoin="round" stroke-width="0.76"/><polygon points="333.51 55.2 330.39 62.57 333.87 63.69 333.51 55.2" fill="#fff" opacity="0.6"/><polygon points="363.74 75.57 372.69 67.21 371.45 79.39 363.74 75.57" fill="#636363" stroke="#262521" stroke-linecap="round" stroke-linejoin="round" stroke-width="0.76"/><polygon points="371.77 69.51 367.62 76.36 370.9 77.97 371.77 69.51" fill="#fff" opacity="0.6"/><polygon points="381.6 87.73 393.61 85.36 386.14 95.06 381.6 87.73" fill="#636363" stroke="#262521" stroke-linecap="round" stroke-linejoin="round" stroke-width="0.76"/><polygon points="391.63 86.83 384.49 90.46 386.43 93.55 391.63 86.83" fill="#fff" opacity="0.6"/><polygon points="391.74 105.8 403.93 104.72 395.47 113.56 391.74 105.8" fill="#636363" stroke="#262521" stroke-linecap="round" stroke-linejoin="round" stroke-width="0.76"/><polygon points="401.8 105.97 394.31 108.82 395.91 112.1 401.8 105.97" fill="#fff" opacity="0.6"/><polygon points="401.03 126.3 413.27 125.91 404.32 134.26 401.03 126.3" fill="#636363" stroke="#262521" stroke-linecap="round" stroke-linejoin="round" stroke-width="0.76"/><polygon points="411.07 127.04 403.44 129.46 404.85 132.82 411.07 127.04" fill="#fff" opacity="0.6"/><polygon points="411.07 149.29 423.31 148.89 414.36 157.25 411.07 149.29" fill="#636363" stroke="#262521" stroke-linecap="round" stroke-linejoin="round" stroke-width="0.76"/><polygon points="421.11 150.02 413.48 152.44 414.88 155.81 421.11 150.02" fill="#fff" opacity="0.6"/><polygon points="421.11 174.55 433.35 174.15 424.4 182.51 421.11 174.55" fill="#636363" stroke="#262521" stroke-linecap="round" stroke-linejoin="round" stroke-width="0.76"/><polygon points="431.14 175.28 423.51 177.7 424.92 181.07 431.14 175.28" fill="#fff" opacity="0.6"/><polygon points="431.51 200.12 443.75 200.6 434.22 208.3 431.51 200.12" fill="#636363" stroke="#262521" stroke-linecap="round" stroke-linejoin="round" stroke-width="0.76"/><polygon points="441.47 201.57 433.69 203.44 434.85 206.9 441.47 201.57" fill="#fff" opacity="0.6"/><polygon points="439.97 225.53 452.15 226.85 442.12 233.87 439.97 225.53" fill="#636363" stroke="#262521" stroke-linecap="round" stroke-linejoin="round" stroke-width="0.76"/><polygon points="449.81 227.66 441.92 228.99 442.84 232.52 449.81 227.66" fill="#fff" opacity="0.6"/><polygon points="448.48 253.25 460.53 255.46 450.01 261.73 448.48 253.25" fill="#636363" stroke="#262521" stroke-linecap="round" stroke-linejoin="round" stroke-width="0.76"/><polygon points="458.14 256.09 450.17 256.84 450.83 260.43 458.14 256.09" fill="#fff" opacity="0.6"/><polygon points="454.67 283.14 466.59 285.92 455.79 291.68 454.67 283.14" fill="#636363" stroke="#262521" stroke-linecap="round" stroke-linejoin="round" stroke-width="0.76"/><polygon points="464.17 286.45 456.18 286.81 456.67 290.43 464.17 286.45" fill="#fff" opacity="0.6"/><polygon points="457.83 309.24 469.49 312.98 458.25 317.84 457.83 309.24" fill="#636363" stroke="#262521" stroke-linecap="round" stroke-linejoin="round" stroke-width="0.76"/><polygon points="467.04 313.3 459.04 313.02 459.23 316.66 467.04 313.3" fill="#fff" opacity="0.6"/><polygon points="458.07 340.22 469.07 345.61 457.25 348.8 458.07 340.22" fill="#636363" stroke="#262521" stroke-linecap="round" stroke-linejoin="round" stroke-width="0.76"/><polygon points="466.6 345.57 458.72 344.14 458.39 347.77 466.6 345.57" fill="#fff" opacity="0.6"/><polygon points="457.11 371.31 468.43 375.98 456.83 379.92 457.11 371.31" fill="#636363" stroke="#262521" stroke-linecap="round" stroke-linejoin="round" stroke-width="0.76"/><polygon points="465.96 376.1 458.01 375.17 457.91 378.82 465.96 376.1" fill="#fff" opacity="0.6"/><polygon points="455.02 401.18 464.19 409.3 451.94 409.22 455.02 401.18" fill="#636363" stroke="#262521" stroke-linecap="round" stroke-linejoin="round" stroke-width="0.76"/><polygon points="461.81 408.61 454.6 405.13 453.31 408.54 461.81 408.61" fill="#fff" opacity="0.6"/><polygon points="344.26 67.89 352.58 58.9 352.23 71.14 344.26 67.89" fill="#636363" stroke="#262521" stroke-linecap="round" stroke-linejoin="round" stroke-width="0.76"/><polygon points="351.83 61.26 348.19 68.39 351.58 69.75 351.83 61.26" fill="#fff" opacity="0.6"/><path d="M123,188.66s-5.8,47.28,0,75.34" fill="none" stroke="#262521" stroke-linecap="round" stroke-linejoin="round" stroke-width="3"/><polygon points="187.12 56.91 179.38 47.42 178.95 59.65 187.12 56.91" fill="#636363" stroke="#262521" stroke-linecap="round" stroke-linejoin="round" stroke-width="0.76"/><polygon points="179.97 49.82 183.16 57.16 179.69 58.31 179.97 49.82" fill="#fff" opacity="0.6"/><polygon points="167.86 62.35 160.21 52.79 159.68 65.02 167.86 62.35" fill="#636363" stroke="#262521" stroke-linecap="round" stroke-linejoin="round" stroke-width="0.76"/><polygon points="160.78 55.2 163.9 62.57 160.43 63.69 160.78 55.2" fill="#fff" opacity="0.6"/><polygon points="131.06 76.89 122.11 68.53 123.35 80.71 131.06 76.89" fill="#636363" stroke="#262521" stroke-linecap="round" stroke-linejoin="round" stroke-width="0.76"/><polygon points="123.02 70.83 127.17 77.68 123.9 79.28 123.02 70.83" fill="#fff" opacity="0.6"/><polygon points="112.69 87.73 100.68 85.36 108.16 95.06 112.69 87.73" fill="#636363" stroke="#262521" stroke-linecap="round" stroke-linejoin="round" stroke-width="0.76"/><polygon points="102.67 86.83 109.81 90.46 107.87 93.55 102.67 86.83" fill="#fff" opacity="0.6"/><polygon points="101.55 105.17 89.36 104.09 97.82 112.94 101.55 105.17" fill="#636363" stroke="#262521" stroke-linecap="round" stroke-linejoin="round" stroke-width="0.76"/><polygon points="91.49 105.34 98.97 108.19 97.38 111.47 91.49 105.34" fill="#fff" opacity="0.6"/><polygon points="92.13 126.15 79.89 125.75 88.84 134.11 92.13 126.15" fill="#636363" stroke="#262521" stroke-linecap="round" stroke-linejoin="round" stroke-width="0.76"/><polygon points="82.09 126.88 89.72 129.3 88.31 132.67 82.09 126.88" fill="#fff" opacity="0.6"/><polygon points="82.73 148.79 70.49 148.39 79.44 156.75 82.73 148.79" fill="#636363" stroke="#262521" stroke-linecap="round" stroke-linejoin="round" stroke-width="0.76"/><polygon points="72.69 149.52 80.32 151.94 78.91 155.31 72.69 149.52" fill="#fff" opacity="0.6"/><polygon points="73.19 174.55 60.95 174.15 69.9 182.51 73.19 174.55" fill="#636363" stroke="#262521" stroke-linecap="round" stroke-linejoin="round" stroke-width="0.76"/><polygon points="63.15 175.28 70.78 177.7 69.37 181.07 63.15 175.28" fill="#fff" opacity="0.6"/><polygon points="63.66 200.15 51.43 200.63 60.95 208.32 63.66 200.15" fill="#636363" stroke="#262521" stroke-linecap="round" stroke-linejoin="round" stroke-width="0.76"/><polygon points="53.71 201.6 61.49 203.47 60.33 206.92 53.71 201.6" fill="#fff" opacity="0.6"/><polygon points="55.94 225.53 43.77 226.85 53.8 233.87 55.94 225.53" fill="#636363" stroke="#262521" stroke-linecap="round" stroke-linejoin="round" stroke-width="0.76"/><polygon points="46.11 227.66 54 228.99 53.08 232.52 46.11 227.66" fill="#fff" opacity="0.6"/><polygon points="49.79 254.03 37.75 256.23 48.26 262.5 49.79 254.03" fill="#636363" stroke="#262521" stroke-linecap="round" stroke-linejoin="round" stroke-width="0.76"/><polygon points="40.14 256.87 48.11 257.62 47.44 261.2 40.14 256.87" fill="#fff" opacity="0.6"/><polygon points="44.9 283.73 33.21 287.36 44.4 292.32 44.9 283.73" fill="#636363" stroke="#262521" stroke-linecap="round" stroke-linejoin="round" stroke-width="0.76"/><polygon points="35.66 287.71 43.66 287.5 43.43 291.14 35.66 287.71" fill="#fff" opacity="0.6"/><polygon points="42.8 309.24 31.14 312.98 42.37 317.84 42.8 309.24" fill="#636363" stroke="#262521" stroke-linecap="round" stroke-linejoin="round" stroke-width="0.76"/><polygon points="33.59 313.3 41.59 313.02 41.39 316.66 33.59 313.3" fill="#fff" opacity="0.6"/><polygon points="41.33 340.53 30.04 345.29 41.67 349.13 41.33 340.53" fill="#636363" stroke="#262521" stroke-linecap="round" stroke-linejoin="round" stroke-width="0.76"/><polygon points="32.52 345.39 40.46 344.4 40.59 348.05 32.52 345.39" fill="#fff" opacity="0.6"/><polygon points="41.75 370.21 30.44 374.88 42.03 378.82 41.75 370.21" fill="#636363" stroke="#262521" stroke-linecap="round" stroke-linejoin="round" stroke-width="0.76"/><polygon points="32.91 375.01 40.86 374.07 40.96 377.72 32.91 375.01" fill="#fff" opacity="0.6"/><polygon points="43.12 399.46 33.63 407.19 45.87 407.62 43.12 399.46" fill="#636363" stroke="#262521" stroke-linecap="round" stroke-linejoin="round" stroke-width="0.76"/><polygon points="36.03 406.6 43.38 403.42 44.53 406.88 36.03 406.6" fill="#fff" opacity="0.6"/><polygon points="150.26 68.37 141.94 59.39 142.29 71.63 150.26 68.37" fill="#636363" stroke="#262521" stroke-linecap="round" stroke-linejoin="round" stroke-width="0.76"/><polygon points="142.69 61.75 146.33 68.88 142.94 70.24 142.69 61.75" fill="#fff" opacity="0.6"/></svg>