<svg xmlns="http://www.w3.org/2000/svg" width="500" height="550" viewBox="0 0 500 550"><defs><clipPath id="a"><path d="M372.14 291.55c-.18 41.16-.42 68.82-.62 110-.81 9-2.68 16.41-3.55 25.44-1 10.07 1.34 17.05-1.5 25.63-.59 1.77-2 1.67-3.35 1.44-44.59-7.74-101.66-5.72-146.65-2.92-24.6.57-58.62-1.68-83 2.08-5.23.6-5.68.28-6.62-4.82-1.35-11.26 1.94-18.53.53-29.31-6.15-46.82-1.39-80.87-3.6-128-1.42 2.83-2.94 5.6-4.29 8.46-2.37 10.67-17.5 9.3-11.81 16.18 11.11 7.95 6.41 21.38 5.15 32.56-.25 3.15-1.35 6.27-.37 9.58.51 8.44-3.19 16.94-4.38 25.31-1.5 8-2.61 15.83-1.54 23.93a5.1 5.1 0 01-1.13 3.3c-5.71 6.28-7.75 14-9.19 22.06-.57 3.18-.61 3-3.74 2-12.38-3.52-26.09-4.38-38.6-1.18-1.39.34-2.11 0-2.41-1.47-2-7.76-2.18-16.67-8.49-22.43a6.62 6.62 0 01-1.33-3.22A144.46 144.46 0 0139 372.86c-1.91-63 2.6-126.93 26.19-186 13.61-35.43 24.56-73.32 48.07-103.67 27.32-18.2 60-23.76 90.46-34.78a3.16 3.16 0 012.72.43c5 5.55 11.46 8.41 18.56 9.67 19.19 2.43 41.29 5.55 58.65-4.88 2.85-1.27 4.2-6.53 7.87-5 29.12 10.49 61 14.4 87.44 31.58 15.94 14.59 21.63 38 30.45 57.21 27.81 67.48 58 137.39 51.05 212.07-1.19 18.66-.23 37.46-3.28 56-.49 4.66-5.21 7.09-5.56 11.78-1.22 5.28-2.08 10.65-2.91 16-.4 2.6-.41 2.83-3.08 2.33-12.48-2.66-25.26-5.49-37.8-1.58-8.34-.15-8.13-15.56-11.44-21.4-6.28-7.37-3.61-9-5.33-17.64-.9-9.7-4.68-20.27.79-29.26 2-3.53 1.86-7.05.51-10.66-4.9-11.28-7.4-23.42-10.45-35.29-1.07-4.31-1.31-8.5 1.61-12.34 1.51-7.23-10.43-8.68-10.93-15.93z" fill="none"/></clipPath></defs><g clip-path="url(#a)"><path fill="#262521" d="M21.8 20.25h459.18V507.3H21.8z"/><path d="M226.73 150.78c-2.08-.58-12.62 1.77-12.35-2.29.61-2.06-1.78-11.61 2.29-11.39 2.08.59 12.62-1.76 12.35 2.29-.61 2.07 1.78 11.61-2.29 11.39z" fill="#fff"/><path d="M213.35 126.41c-2 .55-10.53-1.66-10.35 2.29.61 2.07-1.77 11.61 2.29 11.39 12.54-.42 12.84 3.1 12.36-11.06a20.11 20.11 0 01-4.3-2.62zm12.76 4.48c.47 2-1.49 9.33 2.3 9.2h10.06c3 .06 2.19-4.11 2.29-6-4.98-.63-10.01-1.22-14.65-3.2zm24.28 3.35c.09 1.87-.69 5.9 2.3 5.85h10.06c4 .22 1.73-8.86 2.29-10.9-2.33.81-11.99 4.45-14.65 5.05z" fill="#fff"/><path d="M250.38 150.78c-2.08-.58-12.62 1.77-12.35-2.29.62-2.06-1.78-11.61 2.29-11.39 2.08.59 12.62-1.76 12.36 2.29-.62 2.07 1.77 11.61-2.3 11.39zm-35.03 12.04c-2.07-.59-12.62 1.76-12.35-2.29.62-2.07-1.78-11.61 2.29-11.39 2.08.59 12.62-1.76 12.36 2.29-.65 2.07 1.77 11.57-2.3 11.39z" fill="#fff"/><path d="M238.47 162.82c-2.08-.59-12.62 1.76-12.36-2.29.62-2.07-1.77-11.61 2.3-11.39 2.07.59 12.62-1.76 12.35 2.29-.62 2.07 1.78 11.57-2.29 11.39z" fill="#fff"/><path d="M226.73 172.17c-2.08-.58-12.62 1.77-12.35-2.29.61-2.06-1.78-11.61 2.29-11.39 2.08.59 12.62-1.76 12.35 2.29-.61 2.07 1.78 11.62-2.29 11.39zm23.2 0c-2.08-.58-12.62 1.77-12.35-2.29.62-2.38-2-11.8 2.74-11.39h10.06a2.28 2.28 0 011.85 2.3c-.62 2.06 1.77 11.61-2.3 11.38z" fill="#fff"/><path d="M215.35 184.21c-2.07-.59-12.62 1.76-12.35-2.29.62-2.07-1.78-11.61 2.29-11.39 2.08.59 12.62-1.76 12.36 2.29-.65 2.07 1.77 11.61-2.3 11.39zm23.12 0c-2.08-.59-12.62 1.76-12.36-2.29.62-2.07-1.77-11.61 2.3-11.39 2.07.59 12.62-1.76 12.35 2.29-.62 2.07 1.78 11.61-2.29 11.39z" fill="#fff"/><path d="M226.73 194.11c-2.08-.59-12.62 1.76-12.35-2.3.61-2.06-1.78-11.61 2.29-11.39 2.08.59 12.62-1.76 12.35 2.3-.61 2.06 1.78 11.61-2.29 11.39zm23.65 0c-2.08-.59-12.62 1.76-12.35-2.3.62-2.06-1.78-11.61 2.29-11.39 2.08.59 12.62-1.76 12.36 2.3-.62 2.06 1.77 11.61-2.3 11.39z" fill="#fff"/><path d="M215.35 206.14c-2.07-.58-12.62 1.77-12.35-2.29.62-2.06-1.78-11.61 2.29-11.39 2.08.59 12.62-1.76 12.36 2.3-.65 2.06 1.77 11.61-2.3 11.38z" fill="#fff"/><path d="M204.94 194.11c-2.08-.59-12.62 1.76-12.35-2.3.62-2.06-1.78-11.61 2.29-11.39 2.08.59 12.62-1.76 12.36 2.3-.62 2.06 1.76 11.61-2.3 11.39z" fill="#fff"/><path d="M193.57 206.14c-2.08-.58-12.62 1.77-12.36-2.29.62-2.06-1.78-11.61 2.29-11.39 2.08.59 12.63-1.76 12.36 2.3-.62 2.06 1.78 11.61-2.29 11.38zm44.9 0c-2.08-.58-12.62 1.77-12.36-2.29.62-2.06-1.77-11.61 2.3-11.39 2.07.59 12.62-1.76 12.35 2.3-.62 2.06 1.78 11.61-2.29 11.38z" fill="#fff"/><path d="M226.73 217.18c-2.08-.59-12.62 1.76-12.35-2.29.61-2.07-1.78-11.61 2.29-11.39 2.08.58 12.62-1.76 12.35 2.29-.61 2.06 1.78 11.61-2.29 11.39zm23.65 0c-2.08-.59-12.62 1.76-12.35-2.29.62-2.07-1.78-11.61 2.29-11.39 2.08.58 12.62-1.76 12.36 2.29-.62 2.06 1.77 11.61-2.3 11.39z" fill="#fff"/><path d="M215.35 229.22c-2.07-.59-12.62 1.76-12.35-2.3.62-2.06-1.78-11.61 2.29-11.38 2.08.58 12.62-1.77 12.36 2.29-.65 2.06 1.77 11.61-2.3 11.39z" fill="#fff"/><path d="M204.94 217.18c-2.08-.59-12.62 1.76-12.35-2.29.62-2.07-1.78-11.61 2.29-11.39 2.08.58 12.62-1.76 12.36 2.29-.62 2.06 1.76 11.61-2.3 11.39zm-22.76 0c-2.07-.59-12.62 1.76-12.35-2.29.62-2.07-1.78-11.61 2.29-11.39 2.08.58 12.62-1.76 12.36 2.29-.62 2.06 1.77 11.61-2.3 11.39z" fill="#fff"/><path d="M193.57 229.22c-2.08-.59-12.62 1.76-12.36-2.3.62-2.06-1.78-11.61 2.29-11.38 2.08.58 12.63-1.77 12.36 2.29-.62 2.06 1.78 11.61-2.29 11.39zm44.9 0c-2.08-.59-12.62 1.76-12.36-2.3.62-2.06-1.77-11.61 2.3-11.38 2.07.58 12.62-1.77 12.35 2.29-.62 2.06 1.78 11.61-2.29 11.39zm26.85-78.44c2.08-.58 12.62 1.77 12.36-2.29-.62-2.06 1.77-11.61-2.3-11.39-2.07.59-12.62-1.76-12.35 2.29.62 2.07-1.78 11.61 2.29 11.39z" fill="#fff"/><path d="M276.7 140.09c2.08-.59 12.62 1.76 12.35-2.29-.61-2.07 1.78-11.61-2.29-11.39-2.08.58-12.62-1.76-12.35 2.29.59 2.06-1.78 11.61 2.29 11.39zm0 22.73c2.08-.59 12.62 1.76 12.35-2.29-.61-2.07 1.78-11.61-2.29-11.39-2.08.59-12.62-1.76-12.35 2.29.59 2.07-1.78 11.57 2.29 11.39zm-24.01 0c2.07-.59 12.62 1.76 12.35-2.29-.62-2.07 1.78-11.61-2.29-11.39-2.08.59-12.62-1.76-12.36 2.29.61 2.07-1.77 11.57 2.3 11.39z" fill="#fff"/><path d="M265.32 172.17c2.08-.58 12.62 1.77 12.36-2.29-.62-2.06 1.77-11.61-2.3-11.39-2.07.59-12.62-1.76-12.35 2.29.62 2.07-1.78 11.62 2.29 11.39z" fill="#fff"/><path d="M275.8 184.21c2.08-.59 12.62 1.76 12.35-2.29-.61-2.07 1.78-11.61-2.29-11.39-2.08.59-12.62-1.76-12.35 2.29.61 2.07-1.78 11.61 2.29 11.39zm-23.11 0c2.07-.59 12.62 1.76 12.35-2.29-.62-2.07 1.78-11.61-2.29-11.39-2.08.59-12.62-1.76-12.36 2.29.61 2.07-1.77 11.61 2.3 11.39z" fill="#fff"/><path d="M264.42 194.11c2.08-.59 12.62 1.76 12.36-2.3-.62-2.06 1.77-11.61-2.3-11.39-2.07.59-12.62-1.76-12.35 2.3.62 2.06-1.78 11.61 2.29 11.39z" fill="#fff"/><path d="M275.8 206.14c2.08-.58 12.62 1.77 12.35-2.29-.61-2.06 1.78-11.61-2.29-11.39-2.08.59-12.62-1.76-12.35 2.3.61 2.06-1.78 11.61 2.29 11.38z" fill="#fff"/><path d="M286.21 194.11c2.08-.59 12.62 1.76 12.35-2.3-.61-2.06 1.78-11.61-2.29-11.39-2.08.59-12.62-1.76-12.35 2.3.61 2.06-1.78 11.61 2.29 11.39z" fill="#fff"/><path d="M297.59 206.14c2.08-.58 12.62 1.77 12.35-2.29-.62-2.06 1.78-11.61-2.29-11.39-2.08.59-12.62-1.76-12.36 2.3.62 2.06-1.77 11.61 2.3 11.38zm-44.9 0c2.07-.58 12.62 1.77 12.35-2.29-.62-2.06 1.78-11.61-2.29-11.39-2.08.59-12.62-1.76-12.36 2.3.61 2.06-1.77 11.61 2.3 11.38z" fill="#fff"/><path d="M264.42 217.18c2.08-.59 12.62 1.76 12.36-2.29-.62-2.07 1.77-11.61-2.3-11.39-2.07.58-12.62-1.76-12.35 2.29.62 2.06-1.78 11.61 2.29 11.39z" fill="#fff"/><path d="M275.8 229.22c2.08-.59 12.62 1.76 12.35-2.3-.61-2.06 1.78-11.61-2.29-11.38-2.08.58-12.62-1.77-12.35 2.29.61 2.06-1.78 11.61 2.29 11.39z" fill="#fff"/><path d="M286.21 217.18c2.08-.59 12.62 1.76 12.35-2.29-.61-2.07 1.78-11.61-2.29-11.39-2.08.58-12.62-1.76-12.35 2.29.61 2.06-1.78 11.61 2.29 11.39zm-33.52 12.04c2.07-.59 12.62 1.76 12.35-2.3-.62-2.06 1.78-11.61-2.29-11.38-2.08.58-12.62-1.77-12.36 2.29.61 2.06-1.77 11.61 2.3 11.39zM309 217.18c2.08-.59 12.62 1.76 12.35-2.29-.61-2.07 1.78-11.61-2.29-11.39-2.08.58-12.62-1.76-12.35 2.29.58 2.06-1.81 11.61 2.29 11.39z" fill="#fff"/><path d="M297.59 229.22c2.08-.59 12.62 1.76 12.35-2.3-.62-2.06 1.78-11.61-2.29-11.38-2.08.58-12.62-1.77-12.36 2.29.62 2.06-1.77 11.61 2.3 11.39z" fill="#fff"/><path d="M198.92 128.36s6.38 56.09-35.29 82.68c2.36 4.29-2.61 7.37-2.61 7.37L172 237.06s31.74-7.93 60.48 0c0 0 4.3-5.77 13.52-5.77m47-102.93s-8.4 60.84 40.17 85.65L320 237.06s-31.74-7.93-60.48 0c0 0-4.29-5.77-13.51-5.77" fill="none" stroke="#fff" stroke-linecap="round" stroke-linejoin="round" stroke-width="5.4"/><path d="M251.38 108.81c.12 8.47-13.18 8.47-13.06 0-.12-8.47 13.19-8.47 13.06 0z" fill="none" stroke="#fff" stroke-linecap="round" stroke-miterlimit="10" stroke-width=".9"/><path d="M250.39 108.9c.11 7.19-11.19 7.19-11.08 0-.11-7.19 11.19-7.19 11.08 0z" fill="none" stroke="#fff" stroke-linecap="round" stroke-miterlimit="10" stroke-width=".9"/><path fill="none" stroke="#fff" stroke-linecap="round" stroke-miterlimit="10" stroke-width="1.8" d="M244.85 99.65v5.49"/><path d="M178.11 162.86C157.3 220 107.72 202.57 127.2 145c20.8-57.13 70.39-39.72 50.91 17.86z" fill="none" stroke="#fff" stroke-linecap="round" stroke-miterlimit="10" stroke-width="6.3"/><path d="M168.76 159.93c-14.45 39.75-47 28.32-33.41-11.73 14.44-39.76 46.99-28.32 33.41 11.73z" fill="none" stroke="#fff" stroke-linecap="round" stroke-miterlimit="10" stroke-width="3.6"/><path d="M158.89 154.74c-6.39 18-21.45 12.72-15.18-5.33s21.46-12.72 15.18 5.33z" fill="none" stroke="#fff" stroke-linecap="round" stroke-miterlimit="10" stroke-width="3.6"/><path fill="none" stroke="#fff" stroke-linecap="round" stroke-miterlimit="10" stroke-width=".9" d="M149.14 127.33l22.62 12.57m-26.12-7.13l25.34 14.09m-29.74-9.26l28.66 15.93m-30.92-11.02l28.66 15.93m-31.57-9.87l28.66 15.93m-30.56-9.87l28.65 15.92m-31.7-9.77l28.66 15.93m-25.82-8.64l23.29 12.94M112.1 89.82s9.23 37.87 13.44 33.93c21.86-33.33 41.34-4.55 20.06-49.94m-24.49 9.68s7.28 28.7 10.4 32.17m-3.09-36.15s8.64 28.08 10.48 30m-2.01-33.66s8 23.37 9.93 29.12"/><path fill="none" stroke="#fff" stroke-linecap="round" stroke-linejoin="round" stroke-width="1.8" d="M116.03 143.33l-15.36 14.54 7.68 27.8"/><path d="M313.36 162.86c20.81 57.14 70.39 39.71 50.91-17.86-20.81-57.13-70.39-39.72-50.91 17.86z" fill="none" stroke="#fff" stroke-linecap="round" stroke-miterlimit="10" stroke-width="6.3"/><path d="M322.71 159.93c14.45 39.75 47 28.32 33.41-11.73-14.44-39.76-46.99-28.32-33.41 11.73z" fill="none" stroke="#fff" stroke-linecap="round" stroke-miterlimit="10" stroke-width="3.6"/><path d="M332.58 154.74c6.39 18 21.45 12.72 15.18-5.33s-21.46-12.72-15.18 5.33z" fill="none" stroke="#fff" stroke-linecap="round" stroke-miterlimit="10" stroke-width="3.6"/><path fill="none" stroke="#fff" stroke-linecap="round" stroke-miterlimit="10" stroke-width=".9" d="M345.83 132.77l-25.34 14.09m29.74-9.26l-28.66 15.93m30.92-11.02l-28.66 15.93m31.57-9.87l-28.66 15.93m30.56-9.87l-28.65 15.92m31.7-9.77l-28.66 15.93m10.09-49.38l-22.62 12.57m37.71 29.16l-21.95 12.2m44.45-91.44s-9.23 37.87-13.44 33.93c-21.86-33.33-41.34-4.55-20.06-49.94M370.88 83s-7.8 29.2-10.92 32.67M364.07 78s-9.65 29.58-11.5 31.49m3.2-34.59s-9.2 24.32-11.12 30.07"/><path fill="none" stroke="#fff" stroke-linecap="round" stroke-linejoin="round" stroke-width="1.8" d="M375.44 143.33l15.36 14.54-7.68 27.8"/><path d="M135.42 273.42h15.71c-2.61 27.58-11.08 22.38-15.71 0z" fill="#fff"/><path d="M148 273.42h15.71c-2.59 27.58-11.06 22.38-15.71 0z" fill="#fff"/><path d="M160.62 273.42h15.71c-2.61 27.58-11.08 22.38-15.71 0z" fill="#fff"/><path d="M173.25 273.42H189c-2.65 27.58-11.12 22.38-15.75 0z" fill="#fff"/><path d="M185.85 273.42h15.71c-2.56 27.58-11.08 22.38-15.71 0z" fill="#fff"/><path d="M198.25 273.42H214c-2.65 27.58-11.12 22.38-15.75 0z" fill="#fff"/><path d="M210.85 273.42h15.71c-2.56 27.58-11.08 22.38-15.71 0z" fill="#fff"/><path d="M223.48 273.42h15.71c-2.61 27.58-11.08 22.38-15.71 0z" fill="#fff"/><path d="M236.08 273.42h15.71c-2.61 27.58-11.08 22.38-15.71 0zm25.55 0h15.71c-2.61 27.58-11.08 22.38-15.71 0z" fill="#fff"/><path d="M248.63 273.42h15.71c-2.61 27.58-11.08 22.38-15.71 0zm25.6 0h15.71c-2.61 27.58-11.08 22.38-15.71 0z" fill="#fff"/><path d="M286.63 273.42h15.71c-2.61 27.58-11.08 22.38-15.71 0z" fill="#fff"/><path d="M299.23 273.42h15.71c-2.61 27.58-11.08 22.38-15.71 0z" fill="#fff"/><path d="M311.86 273.42h15.71c-2.57 27.58-11.08 22.38-15.71 0z" fill="#fff"/><path d="M324.46 273.42h15.71c-2.61 27.58-11.08 22.38-15.71 0z" fill="#fff"/><path d="M337.11 273.42h15.71c-2.61 27.58-11.08 22.38-15.71 0z" fill="#fff"/><path d="M349.74 273.42h15.71c-2.61 27.58-11.08 22.38-15.71 0z" fill="#fff"/><path d="M128.36 256.47c6.85 18.1 1.37 80.85 3 99.32 0 5.74-3.38 15.88-9.46 15.88" fill="none" stroke="#fff" stroke-linecap="round" stroke-linejoin="round" stroke-width="11.7"/><path d="M134.19 297.2c2.07 0 2.07 10.8 4.15 10.8s2.08-10.8 4.15-10.8 2.08 10.8 4.16 10.8 2.08-10.8 4.15-10.8 2.08 10.8 4.2 10.8 2.07-10.8 4.15-10.8 2.08 10.8 4.16 10.8 2.07-10.8 4.15-10.8 2.08 10.8 4.15 10.8 2.08-10.8 4.16-10.8 2.07 10.8 4.15 10.8 2.08-10.8 4.08-10.8 2.08 10.8 4.15 10.8 2.08-10.8 4.16-10.8 2.07 10.8 4.15 10.8 2.08-10.8 4.16-10.8 2.07 10.8 4.15 10.8 2.07-10.8 4.15-10.8S211 308 213.09 308s2.08-10.8 4.15-10.8 2.08 10.8 4.16 10.8 2.08-10.8 4.15-10.8 2.08 10.8 4.16 10.8 2.07-10.8 4.15-10.8S235.94 308 238 308s2.08-10.8 4.16-10.8 2.08 10.8 4.16 10.8 2.07-10.8 4.15-10.8 2.08 10.8 4.16 10.8 2.07-10.8 4.15-10.8S260.87 308 263 308s2.08-10.8 4.15-10.8 2.08 10.8 4.16 10.8 2.08-10.8 4.16-10.8 2.07 10.8 4.15 10.8 2.08-10.8 4.16-10.8 2.08 10.8 4.16 10.8 2.06-10.8 4.06-10.8 2.08 10.8 4.16 10.8 2.08-10.8 4.16-10.8 2.08 10.8 4.16 10.8 2.07-10.8 4.15-10.8 2.08 10.8 4.16 10.8 2.07-10.8 4.15-10.8 2.08 10.8 4.16 10.8 2.08-10.8 4.15-10.8 2.08 10.8 4.16 10.8 2.08-10.8 4.16-10.8 2.08 10.8 4.16 10.8 2.08-10.8 4.16-10.8 2.11 10.8 4.2 10.8 2.08-10.8 4.16-10.8 2.08 10.8 4.16 10.8 2.09-10.8 4.17-10.8 2.08 10.8 4.17 10.8m-248.34 87.62c2.06 0 2.06 10.8 4.13 10.8s2.07-10.8 4.13-10.8 2.07 10.8 4.13 10.8 2.07-10.8 4.13-10.8 2.06 10.8 4.13 10.8 2.06-10.8 4.13-10.8 2.06 10.8 4.13 10.8 2.06-10.8 4.13-10.8 2.06 10.8 4.13 10.8 2.06-10.8 4.13-10.8 2.06 10.8 4.13 10.8 2.06-10.8 4.13-10.8 2.06 10.8 4.13 10.8 2.06-10.8 4.13-10.8 2.07 10.8 4.13 10.8 2.06-10.8 4.13-10.8 2.06 10.8 4.13 10.8 2.07-10.8 4.13-10.8 2.07 10.8 4.13 10.8 2.06-10.8 4.13-10.8 2.06 10.8 4.12 10.8 2.07-10.8 4.13-10.8 2.06 10.8 4.12 10.8 2.07-10.8 4.13-10.8 2.07 10.8 4.13 10.8 2.07-10.8 4.13-10.8 2.07 10.8 4.13 10.8 2.07-10.8 4.13-10.8 2.06 10.8 4.13 10.8 2.06-10.8 4.12-10.8 2.07 10.8 4.14 10.8 2.06-10.8 4.13-10.8 2.06 10.8 4.13 10.8 2.06-10.8 4.13-10.8 2.06 10.8 4.13 10.8 2.06-10.8 4.13-10.8 2.06 10.8 4.13 10.8 2.06-10.8 4.13-10.8 2.06 10.8 4.13 10.8 2.07-10.8 4.13-10.8 2.07 10.8 4.13 10.8 2.07-10.8 4.13-10.8 2.07 10.8 4.14 10.8 2.06-10.8 4.13-10.8 2.07 10.8 4.13 10.8 2.07-10.8 4.13-10.8 2.07 10.8 4.14 10.8 2.06-10.8 4.13-10.8 2.07 10.8 4.13 10.8 2.07-10.8 4.14-10.8 2.06 10.8 4.13 10.8 2.07-10.8 4.13-10.8 2.07 10.8 4.13 10.8 2.07-10.8 4.13-10.8 2.07 10.8 4.14 10.8 2.06-10.8 4.13-10.8 2.07 10.8 4.13 10.8 2.07-10.8 4.14-10.8 2.07 10.8 4.14 10.8 2.06-10.8 4.13-10.8 2.07 10.8 4.14 10.8 2.06-10.8 4.13-10.8 2.07 10.8 4.14 10.8 2.07-10.8 4.14-10.8 2.07 10.8 4.14 10.8" fill="none" stroke="#fff" stroke-linecap="round" stroke-linejoin="round" stroke-width=".9"/><path d="M188.1 256.18a1.71 1.71 0 00-1.92-1.85v-.45a47 47 0 006.39 0v.45c-2.91-.3-1.77 4-2 5.59 1.06-1.2 6.63-4.6 3.09-5.59v-.45a35.34 35.34 0 005.91 0v.45c-2.53.29-4.18 2.43-6.06 3.91 1.63 1.74 3.93 7.35 6.71 7.43v.44c-2.22-.1-4.43-.1-6.65 0v-.37c3.67-.52-1.14-4.43-1.83-6.06l-1.17.93c.2 1.64-.9 5.37 1.94 5.06v.44c-2.13-.09-4.23-.1-6.35 0v-.44c3.44.62 1.45-7.77 1.94-9.49zm24.84 1.57c-.27-2.27-1.89-3.23-4-3.05v8.85c-.16 1.51.52 2.22 2 2.19v.37c-2.19-.1-4.35-.09-6.56 0v-.37c1.53 0 2.2-.68 2-2.19v-8.85c-2.14-.18-3.75.78-4 3.05h-.48a34.75 34.75 0 00.18-3.87c3.7.14 7.35.14 11 0a37.34 37.34 0 00.18 3.87zm4.28.1a13.6 13.6 0 01.29-4c3.44.09 6.84.2 10.27 0l.2.45c-3.21 3.39-5.79 7.29-8.69 10.95 3.07.34 7-.1 8.12-3.45h.46a18.06 18.06 0 01-1.59 4.28c-3.34-.1-6.67-.1-10 0l-.31-.39 8.72-11.17c-2.84.07-6.8-.38-7 3.3zm55.78-.1c-.27-2.27-1.88-3.23-4-3.05v8.85c-.16 1.51.52 2.22 2 2.19v.37c-2.2-.1-4.36-.09-6.56 0v-.37c1.52 0 2.2-.68 2-2.19v-8.85c-2.14-.18-3.76.78-4 3.05H262a37.29 37.29 0 00.19-3.87c3.69.14 7.35.14 11 0a37.29 37.29 0 00.19 3.87zm2.56-3.87a34 34 0 005.43 0v.45c-3.33-.19 1.38 6.85 1.42 8.72h0l2-5.17c-.68-1.55-.82-3.28-2.55-3.55v-.45a39.12 39.12 0 005.83 0v.45c-4-.15.86 6.79 1.08 8.84.32-2.15 5.05-8.34 1.28-8.84v-.45a23.52 23.52 0 004.44 0v.45c-3.84 1.86-4.3 8.36-6.35 11.95h-.65l-2.74-7.54c-1 2.58-2.08 5-3.14 7.54h-.55c-1.08-1.59-3-12.08-5.54-11.95zm31.69 3.87c-.27-2.27-1.89-3.23-4-3.05v8.85c-.16 1.51.52 2.22 2 2.19v.37c-2.19-.1-4.35-.09-6.56 0v-.37c1.52 0 2.2-.68 2-2.19v-8.85c-2.14-.18-3.75.78-4 3.05h-.48a37.34 37.34 0 00.18-3.87c3.7.14 7.35.14 11.05 0a37.34 37.34 0 00.18 3.87zm14.34 1.04c-.36-4.75-7.34-6.13-8.13-.87-2 6.2 6.14 10 9.35 4.3l.45.46c-12 13.78-20.27-13.64-1.37-8.41a26.26 26.26 0 00.16 4.52z" fill="#fff" stroke="#fff" stroke-linecap="round" stroke-linejoin="round" stroke-width="1.35"/><path d="M148.05 326.65c-2-.54-11.55 1.65-11.32-2.19.53-2-1.65-11.55 2.18-11.32 2 .54 11.56-1.64 11.33 2.19-.54 1.98 1.64 11.55-2.19 11.32zm19.29 0c-2-.54-11.55 1.65-11.32-2.19.54-2-1.64-11.55 2.19-11.32 2 .54 11.55-1.64 11.32 2.19-.53 1.98 1.65 11.55-2.19 11.32z" fill="#fff"/><path d="M158 335.91c-2-.54-11.56 1.65-11.33-2.19.54-2-1.64-11.55 2.19-11.32 2 .54 11.56-1.64 11.32 2.19-.5 1.98 1.68 11.55-2.18 11.32zm183.65-9.26c-2-.54-11.55 1.65-11.32-2.19.54-2-1.64-11.55 2.19-11.32 2 .54 11.55-1.64 11.32 2.19-.54 1.98 1.64 11.55-2.19 11.32zm19.35 0c-2-.54-11.56 1.65-11.33-2.19.54-2-1.64-11.55 2.19-11.32 2 .54 11.56-1.64 11.33 2.19-.59 1.98 1.59 11.55-2.19 11.32z" fill="#fff"/><path d="M351.63 335.91c-2-.54-11.56 1.65-11.33-2.19.54-2-1.64-11.55 2.19-11.32 2 .54 11.56-1.64 11.33 2.19-.54 1.98 1.64 11.55-2.19 11.32zm-127.3-9.26c-2-.54-11.56 1.65-11.32-2.19.53-2-1.65-11.55 2.18-11.32 2 .54 11.56-1.64 11.33 2.19-.52 1.98 1.64 11.55-2.19 11.32zm19.29 0c-2-.54-11.55 1.65-11.32-2.19.54-2-1.64-11.55 2.19-11.32 2 .54 11.55-1.64 11.32 2.19-.54 1.98 1.65 11.55-2.19 11.32z" fill="#fff"/><path d="M234.3 335.91c-2-.54-11.55 1.65-11.32-2.19.54-2-1.64-11.55 2.19-11.32 2 .54 11.55-1.64 11.32 2.19-.49 1.98 1.65 11.55-2.19 11.32zm-19.97 0c-2-.54-11.55 1.65-11.32-2.19.53-2-1.65-11.55 2.18-11.32 2 .54 11.56-1.64 11.33 2.19-.52 1.98 1.64 11.55-2.19 11.32zm49.78-9.26c-2-.54-11.55 1.65-11.32-2.19.54-2-1.64-11.55 2.19-11.32 2 .54 11.55-1.64 11.32 2.19-.54 1.98 1.7 11.55-2.19 11.32zm19.3 0c-2-.54-11.56 1.65-11.33-2.19.54-2-1.64-11.55 2.19-11.32 2 .54 11.56-1.64 11.33 2.19-.54 1.98 1.64 11.55-2.19 11.32z" fill="#fff"/><path d="M274.09 335.91c-2-.54-11.55 1.65-11.32-2.19.54-2-1.65-11.55 2.18-11.32 2 .54 11.56-1.64 11.33 2.19-.54 1.98 1.64 11.55-2.19 11.32zm18.91 0c-2-.54-11.55 1.65-11.32-2.19.53-2-1.65-11.55 2.18-11.32 2 .54 11.56-1.64 11.33 2.19-.53 1.98 1.65 11.55-2.19 11.32zm-38.89 0c-2-.54-11.55 1.65-11.32-2.19.54-2-1.64-11.55 2.19-11.32 2 .54 11.55-1.64 11.32 2.19-.54 1.98 1.7 11.55-2.19 11.32z" fill="#fff"/><path d="M297.21 316.32a28.56 28.56 0 005 0v.44c-2.35.22.53 3.14.88 4.18.43-1.12 3.11-4 .57-4.18v-.44a17.72 17.72 0 003.92 0v.44c-2.17.31-3 3.09-4.17 4.67 1.24 1.51 2.81 6.35 5.07 6.54v.44a54.66 54.66 0 00-5.58 0V328c3.05-.25-.32-3.48-.82-4.89-.57 1.38-3.88 4.78-.63 4.89v.44a33.18 33.18 0 00-4.46 0v-.51c2.42-.39 3.44-3.58 4.79-5.29-1.11-1.26-2.69-5.71-4.55-5.85zm12.79 0a32.46 32.46 0 005.31 0v.44c-1.27-.06-1.8.82-1.7 2 .48 1.41-1.39 9.72 1.66 9.19v.44a49.32 49.32 0 00-5.3 0V328c1.1-.08 1.65-.34 1.66-1.43-.49-1.59 1.39-10.05-1.6-9.78zm6.89 0a29.6 29.6 0 005.07 0v.44c-3.33.59 1.13 6.75 1.26 9.07.16-2.35 4.46-8.52 1.08-9.07v-.44a16.26 16.26 0 003.69 0v.44c-3.22 2.6-3.46 8.09-5.1 11.73h-.82c-1.93-3.53-1.83-9.46-5.18-11.73zm-145.84 0a32.46 32.46 0 005.31 0v.44c-2.49.18.54 3.13.94 4.18.49-1.13 3.29-4 .61-4.18v-.44a20.14 20.14 0 004.18 0v.44c-2.25.28-3.18 3.07-4.45 4.67 1.32 1.53 3.06 6.4 5.41 6.54v.44c-2-.1-4-.09-6 0V328c3.21-.21-.31-3.47-.88-4.89-.65 1.4-4.1 4.82-.67 4.89v.44a37.79 37.79 0 00-4.76 0v-.51c2.52-.34 3.67-3.55 5.11-5.29-1.18-1.28-2.91-5.74-4.85-5.85zm13.63 0a36.88 36.88 0 005.66 0v.44c-3.29-.51-1.32 8.13-1.82 9.78 0 1.12.64 1.35 1.77 1.43v.44a56 56 0 00-5.65 0V328c1.13-.08 1.75-.31 1.77-1.43-.51-1.64 1.45-10.12-1.7-9.78zm5.73 0a36.88 36.88 0 005.66 0v.44c-3.29-.51-1.32 8.13-1.82 9.78 0 1.12.64 1.35 1.77 1.43v.44a56 56 0 00-5.65 0V328c1.13-.08 1.75-.31 1.77-1.43-.51-1.64 1.44-10.12-1.7-9.78z" fill="#fff" stroke="#fff" stroke-linecap="round" stroke-linejoin="round" stroke-width="1.35"/><path d="M195.91 316.32a36.88 36.88 0 005.66 0v.44c-3.28-.51-1.31 8.13-1.82 9.78 0 1.12.64 1.35 1.78 1.43v.44a56 56 0 00-5.65 0V328c1.14-.08 1.75-.31 1.78-1.43-.51-1.64 1.44-10.12-1.71-9.78z" fill="#fff" stroke="#fff" stroke-linecap="round" stroke-linejoin="round" stroke-width="1.35"/><path fill="#fff" d="M108.64 412.17h272.58v8.74H108.64z"/><path fill="none" stroke="#fff" stroke-linecap="round" stroke-linejoin="round" stroke-width=".9" d="M138.98 370.35l8.08 9 8.07-9 8.08 9 8.07-9 8.08 9 8.07-9 8.08 9 8.08-9 8.07 9 8.08-9 8.08 9 8.08-9 8.07 9 8.08-9 8.08 9 8.08-9 8.08 9 8.08-9 8.08 9 8.08-9 8.08 9 8.08-9 8.08 9 8.08-9 8.09 9 8.08-9 8.09 9 8.08-9"/><path fill="#fff" d="M350.38 367.8l6.68 7.5 6.83-7.43-13.51-.07z"/><path fill="none" stroke="#fff" stroke-linecap="round" stroke-linejoin="round" stroke-width="1.8" d="M350.38 367.8l6.68 7.5 6.83-7.43-13.51-.07z"/><path fill="#fff" d="M336.41 367.8l4.23 4.23 4.33-4.19-8.56-.04z"/><path fill="none" stroke="#fff" stroke-linecap="round" stroke-linejoin="round" stroke-width="1.8" d="M336.41 367.8l4.23 4.23 4.33-4.19-8.56-.04z"/><path fill="#fff" d="M317.98 367.8l6.68 7.5 6.83-7.43-13.51-.07z"/><path fill="none" stroke="#fff" stroke-linecap="round" stroke-linejoin="round" stroke-width="1.8" d="M317.98 367.8l6.68 7.5 6.83-7.43-13.51-.07z"/><path fill="#fff" d="M304 367.8l4.23 4.23 4.33-4.19-8.56-.04z"/><path fill="none" stroke="#fff" stroke-linecap="round" stroke-linejoin="round" stroke-width="1.8" d="M304 367.8l4.23 4.23 4.33-4.19-8.56-.04z"/><path fill="#fff" d="M285.72 367.8l6.68 7.5 6.83-7.43-13.51-.07z"/><path fill="none" stroke="#fff" stroke-linecap="round" stroke-linejoin="round" stroke-width="1.8" d="M285.72 367.8l6.68 7.5 6.83-7.43-13.51-.07z"/><path fill="#fff" d="M271.74 367.8l4.24 4.23 4.33-4.19-8.57-.04z"/><path fill="none" stroke="#fff" stroke-linecap="round" stroke-linejoin="round" stroke-width="1.8" d="M271.74 367.8l4.24 4.23 4.33-4.19-8.57-.04z"/><path fill="#fff" d="M253.51 367.8l6.68 7.5 6.83-7.43-13.51-.07z"/><path fill="none" stroke="#fff" stroke-linecap="round" stroke-linejoin="round" stroke-width="1.8" d="M253.51 367.8l6.68 7.5 6.83-7.43-13.51-.07z"/><path fill="#fff" d="M239.83 367.8l4.24 4.23 4.33-4.19-8.57-.04z"/><path fill="none" stroke="#fff" stroke-linecap="round" stroke-linejoin="round" stroke-width="1.8" d="M239.83 367.8l4.24 4.23 4.33-4.19-8.57-.04z"/><path fill="#fff" d="M221.16 367.8l6.68 7.5 6.82-7.43-13.5-.07z"/><path fill="none" stroke="#fff" stroke-linecap="round" stroke-linejoin="round" stroke-width="1.8" d="M221.16 367.8l6.68 7.5 6.82-7.43-13.5-.07z"/><path fill="#fff" d="M207.72 367.8l4.24 4.23 4.33-4.19-8.57-.04z"/><path fill="none" stroke="#fff" stroke-linecap="round" stroke-linejoin="round" stroke-width="1.8" d="M207.72 367.8l4.24 4.23 4.33-4.19-8.57-.04z"/><path fill="#fff" d="M188.85 367.8l6.68 7.5 6.83-7.43-13.51-.07z"/><path fill="none" stroke="#fff" stroke-linecap="round" stroke-linejoin="round" stroke-width="1.8" d="M188.85 367.8l6.68 7.5 6.83-7.43-13.51-.07z"/><path fill="#fff" d="M175.42 367.8l4.23 4.23 4.33-4.19-8.56-.04z"/><path fill="none" stroke="#fff" stroke-linecap="round" stroke-linejoin="round" stroke-width="1.8" d="M175.42 367.8l4.23 4.23 4.33-4.19-8.56-.04z"/><path fill="#fff" d="M156.34 367.8l6.68 7.5 6.83-7.43-13.51-.07z"/><path fill="none" stroke="#fff" stroke-linecap="round" stroke-linejoin="round" stroke-width="1.8" d="M156.34 367.8l6.68 7.5 6.83-7.43-13.51-.07z"/><path fill="#fff" d="M142.91 367.8l4.23 4.23 4.33-4.19-8.56-.04z"/><path fill="none" stroke="#fff" stroke-linecap="round" stroke-linejoin="round" stroke-width="1.8" d="M142.91 367.8l4.23 4.23 4.33-4.19-8.56-.04z"/><path d="M148.68 206.47h.25v6.71l.11.17 1 .05v.45H147v-.46l1.05-.07.11-.18v-5.81l-1.43.3v-.45zm6.03 3.53c2.64.22 1.69 4.2-.71 3.93-1.17.33-2.79-1.79-1-1.68l.29.91c2.36 1.46 3.21-3.51.37-2.75v-.64c2.54.42 1.73-4-.42-2.47v1c-1.89.47-.29-2.32 1.06-1.88 2.09-.06 2.42 3.13.41 3.58z" fill="#fff" stroke="#fff" stroke-linecap="round" stroke-linejoin="round" stroke-width=".9"/><path d="M162.51 64.61c43 92.13 127.45 83.18 162.5-3.17" fill="none" stroke="#fff" stroke-linecap="round" stroke-miterlimit="10" stroke-width=".9"/><path d="M131.32 237c6.37 10.41 14 22.05 16.56 23m-9.35-44.13v32.21m8.17-28.89v28.02" fill="none" stroke="#fff" stroke-linecap="round" stroke-linejoin="round" stroke-width=".9"/><path d="M155.89 253c.12 8.07-12.55 8.07-12.43 0-.11-8.09 12.54-8.09 12.43 0z" fill="none" stroke="#fff" stroke-linecap="round" stroke-linejoin="round" stroke-width=".9"/><path d="M148.4 253.66c-3.36-7.21-2.26 11.06 3.17 3.13" fill="none" stroke="#fff" stroke-linecap="round" stroke-miterlimit="10" stroke-width="1.8"/><path d="M149.68 260.43s8.8 3.46 14.86.81" fill="none" stroke="#fff" stroke-linecap="round" stroke-miterlimit="10" stroke-width="4.5"/><path d="M371.89 256.47c-6.85 18.1-1.37 80.85-3 99.32 0 5.74 3.38 15.88 9.46 15.88" fill="none" stroke="#fff" stroke-linecap="round" stroke-linejoin="round" stroke-width="11.7"/><path d="M368.89 237c-6.36 10.4-13.95 22-16.52 22.95m9.36-44.08v32.21m-8.18-28.89v28.02" fill="none" stroke="#fff" stroke-linecap="round" stroke-linejoin="round" stroke-width=".9"/><path d="M344.36 253c-.12 8.07 12.55 8.07 12.43 0 .12-8.09-12.55-8.09-12.43 0z" fill="none" stroke="#fff" stroke-linecap="round" stroke-linejoin="round" stroke-width=".9"/><path d="M351.85 253.66c3.36-7.21 2.27 11.06-3.17 3.13" fill="none" stroke="#fff" stroke-linecap="round" stroke-miterlimit="10" stroke-width="1.8"/><path d="M350.57 260.43s-8.8 3.46-14.86.81" fill="none" stroke="#fff" stroke-linecap="round" stroke-miterlimit="10" stroke-width="4.5"/><path fill="#fff" stroke="#fff" stroke-linecap="round" stroke-linejoin="round" stroke-width=".9" d="M286.69 114.45l1.52-7.4 2.01 7.4h-3.53z"/><path fill="#fff" stroke="#fff" stroke-linecap="round" stroke-linejoin="round" stroke-width=".9" d="M290.22 114.43l-1.52 7.4-2.01-7.4h3.53z"/><path fill="#fff" stroke="#fff" stroke-linecap="round" stroke-linejoin="round" stroke-width=".9" d="M288.45 112.68l7.4 1.52-7.4 2v-3.52z"/><path fill="#fff" stroke="#fff" stroke-linecap="round" stroke-linejoin="round" stroke-width=".9" d="M288.46 116.2l-7.4-1.52 7.4-2v3.52z"/><path fill="#fff" stroke="#fff" stroke-linecap="round" stroke-linejoin="round" stroke-width=".9" d="M289.23 113.66l2.61 3.96-4.18-2.39 1.57-1.57z"/><path fill="#fff" stroke="#fff" stroke-linecap="round" stroke-linejoin="round" stroke-width=".9" d="M287.67 115.23l-2.61-3.95 4.18 2.39-1.57 1.56z"/><path fill="#fff" stroke="#fff" stroke-linecap="round" stroke-linejoin="round" stroke-width=".9" d="M289.24 115.23l-3.97 2.61 2.4-4.18 1.57 1.57z"/><path fill="#fff" stroke="#fff" stroke-linecap="round" stroke-linejoin="round" stroke-width=".9" d="M287.66 113.67l3.96-2.61-2.39 4.17-1.57-1.56z"/><path d="M169 248.43a1.37 1.37 0 01-1.35-1.33c-1.44 2.72-3.18-.85-3.69-2.24a1.35 1.35 0 012.43-1.18c.15.42 1.38 2.57 1.32 3 3.86-4.33 8.62.32 1.29 1.75zm155-.71c-3.1.19-4.42-3.82-.64-2.94 2.57-2.41 3.53 2.45.64 2.94zm-90.58-1.33c-5.46-.39-5-5 .4-2.64l-.39 1.28.74 1.15a1.44 1.44 0 01-.74.21zm-58.54-.06c-4.32-1.25 2.89-5.28 3.9-2.46.4 2.04-2.62 2-3.89 2.46zm144 0c-1.36-.46-4.24-.28-3.93-2.34.86-2.83 8.44 1.01 3.96 2.32zm-61.73-.33c-1.27-.59-4.23-1.58-3.47-3.41 1.42-2.46 7.4 2.6 3.47 3.41zm3.21-.75c-3.41-1.13.2-3.29 2.16-3.51a1.35 1.35 0 011.69.89c.44 1.98-2.58 2.08-3.85 2.59zm52.43-.4c-1.37-.43-4.2-.12-4-2.19.78-2.91 8.53.72 4 2.16zm-85.42-.06c-1.36-.44-4.21-.15-4-2.21a1.36 1.36 0 011.6-1.05c2.03-.03 5.95 1.89 2.4 3.23zm9.26-.06c-4.22-1.1 2.7-5.51 3.79-2.76.47 1.95-2.49 2.17-3.79 2.73zm-55.65 0c-4.53-1.42 3.18-5.09 4-2.2.21 2.01-2.7 1.73-3.98 2.16zm145.32-1c-2.66-.28-.5-3.2.17-4.36a1.35 1.35 0 012.35 1.34c-.56.7-1.32 3.16-2.52 3.01zm-19.68-.15c-1.38-.39-4.15 0-4-2a1.36 1.36 0 011.55-1.12c1.29.37 4 0 3.77 2a1.35 1.35 0 01-1.32 1.11zm-85.42-.07c-1.37-.38-4.13.1-4-2 .6-2.97 8.6.43 4 1.99zm-34-.05a1.36 1.36 0 01-1.33-1.13c-.17-2 2.45-1.62 3.81-2a1.35 1.35 0 011.53 1.14c.08 2.08-2.73 1.6-4.06 1.98zm79.24 0c-4.53-1.43 3.21-5.1 4-2.17.15 2-2.78 1.71-4.05 2.12zm-14.85-.22c-1.31-.51-4.08-.07-4-2.08.65-3.16 8.41.59 3.95 2.03zm-8.91-.37c-4.69-1.67 3.62-4.95 4-1.74-.07 1.97-2.68 1.27-4.05 1.69zm-27.68-.24c-1.38-.32-4 .34-4-1.72.35-3.04 8.71-.04 4 1.72zm-21.56 0c-4.76-1.76 3.6-4.75 4-1.7 0 2.01-2.71 1.36-4.04 1.66zm107 0c-1.39-.34-4.09.22-4-1.84.46-3.05 8.65.13 3.96 1.79zm-136.84-.19c-1.27.16-3.59-4.47-1.78-5 1.72-.9 2.38 2.08 3 3a1.36 1.36 0 01-1.26 1.95zm109-.13c-4.69-1.67 3.5-4.85 4-1.81.07 2-2.72 1.42-4.02 1.76zm-63.9-.12c-1.38-.23-3.94.57-4.05-1.46.2-2 2.72-1.13 4.11-1.23a1.35 1.35 0 01-.08 2.64zm-9 0a1.35 1.35 0 01-1.35-1.29c.07-2.05 2.66-1.3 4-1.49a1.35 1.35 0 011.35 1.33c-.08 1.97-2.7 1.16-4.02 1.39zm94.45-.24c-1.38-.29-4 .41-4-1.64.29-3.11 8.78-.26 3.98 1.58zm-15.28-.25a1.36 1.36 0 01-1.35-1.27c.05-2 2.6-1.35 4-1.55a1.33 1.33 0 011.4 1.3c-.1 1.98-2.76 1.21-4.07 1.46zm9-.12c-1.4-.22-3.91.62-4.05-1.41.17-2 2.68-1.17 4.09-1.29a1.35 1.35 0 01-.06 2.64zm41.58-3.26c-2.66-.28-.49-3.21.18-4.37a1.35 1.35 0 012.34 1.35c-.58.7-1.34 3.11-2.54 2.96zm-168.65-1.6c-1.27.17-3.59-4.46-1.77-5 1.72-.89 2.37 2.08 3 3.05a1.35 1.35 0 01-1.23 1.95zm171.77-3.93c-2.66-.28-.5-3.2.17-4.36a1.35 1.35 0 012.34 1.34c-.55.71-1.31 3.17-2.51 3.02zM158 231.06c-1.28.15-1.87-2.42-2.39-3.19a1.35 1.35 0 012.43-1.18c.59 1.19 2.58 4.14-.04 4.37zm177.66-3.73c-2.66-.28-.49-3.21.18-4.37a1.35 1.35 0 012.34 1.35c-.52.69-1.28 3.17-2.48 3.02zm-180.41-1.94c-1.27.17-3.59-4.46-1.77-5 1.72-.89 2.37 2.08 3 3a1.35 1.35 0 01-1.19 2zm183.55-3.53c-2.67-.28-.5-3.2.17-4.36a1.35 1.35 0 012.34 1.34c-.52.71-1.31 3.16-2.47 3.02zm-186.28-6.5c.39 1.08 2.33 3.42.56 4.23s-2.38-2.08-3-3.05M342 216.4c-2.66-.28-.5-3.21.17-4.36a1.35 1.35 0 012.35 1.34c-.59.71-1.35 3.17-2.52 3.02zm2.7-5.29a16.83 16.83 0 01-3-1 1.35 1.35 0 01.95-2.52c2.42.56 5.23 2.34 2.02 3.52zm-5.9-2.27c-1.25-.47-4.42-1.15-3.65-3.12 1.35-2.36 7.68 2.18 3.62 3.12zm-181.4-4.67c4.86-4.51 5.91 1 .79 2.44m175-.63c-1.29-.5-4.41-1.57-3.47-3.45 1.46-2.16 7.33 2.66 3.43 3.47zm-169.94-3.16c-3.64-.57 1.45-5.79 3.12-3.94 1.14 1.7-1.83 3.44-3.16 3.94zm164.61-.21c-1.3-.49-4.36-2-3.26-3.75 1.57-1.96 6.96 3.14 3.22 3.75zm-5-3.84c-1.31-.46-4.28-2.4-3-4.05 1.67-1.72 6.54 3.53 2.96 4.05zm-154.82 0c-4.9-1.24 5.15-7.81 2.91-2.22-.95.67-1.72 2.03-2.95 2.18zm150.22-4.26c-1.34-.42-4.16-2.82-2.74-4.33 1.78-1.56 6.09 3.89 2.7 4.29zm-145.7-.12c-3.39-.41.94-5.88 2.75-4.33 1.36 1.47-1.43 3.84-2.79 4.29zm141.54-4.6c-2.88-.65-4.34-6.65-.54-4.29.91 1.17 3.29 3.75.5 4.25zm-137.33-.09c-3.26-.34.64-5.9 2.52-4.52 1.47 1.35-1.19 4.07-2.56 4.48zm3.83-5c-3.1-.26.33-5.9 2.25-4.71 1.58 1.21-.85 4.31-2.29 4.67zm129.84 0c-1.44-.32-3.78-3.65-2.09-4.82 1.91-1.14 5.05 4.53 2.05 4.75zM184 179.37c-2.94-.2 0-5.89 1.95-4.9 1.7 1.09-.51 4.59-1.95 4.9zm123.3-.2c-1.51-.27-3.53-4-1.73-5 1.97-.85 4.51 4.83 1.7 5zm-120.38-5.38c-2.76-.14-.4-5.84 1.61-5.06 1.8.91-.1 4.8-1.64 5.06zm117.81-.36c-1.6-.22-3.26-4.37-1.37-5.16 2-.63 3.97 5.05 1.34 5.16zM189.27 168c-2.57-.1-.8-5.76 1.23-5.21 1.93.69.41 4.97-1.23 5.21zm113.42-.51c-1.7-.17-3-4.66-1-5.27 2.04-.45 3.47 5.16 1 5.24zm-111.63-5.52c-2.39.07-1.15-5.78.83-5.32s.93 5.13-.83 5.29zm110.17-.6c-1.8-.13-2.68-4.91-.67-5.34s2.98 5.39.67 5.31zm-109-5.59c-2.19.08-1.57-5.63.42-5.38s1.46 5.23-.43 5.35zm108.08-.63c-1.89 0-2.37-5.29-.34-5.39s2.49 5.44.33 5.36zm-107.57-5.65c-2 .08-2-5.44 0-5.4s2.04 5.28-.01 5.37zm107-.62c-1.8.13-2.43-5.31-.46-5.38 1.98-.43 2.64 5.5.44 5.35zm-107.14-5.7c-1.85 0-2.35-5.22-.4-5.38 2.1-.16 2.61 5.3.4 5.38zm106.4-.59c-1.94-.11-2.35-5.17-.29-5.39s2.45 5.47.29 5.39zm-107.18-5.66c-1.71 0-2.69-5-.78-5.33 2.14-.37 3.17 5.25.81 5.33zm106.87-.63c-2.12-.08-1.91-5.46.2-5.39 1.97.09 1.77 5.45-.17 5.39zm-108.2-5.53c-1.6 0-3-4.71-1.13-5.23 2.13-.54 3.64 5.14 1.16 5.23zm108.72-.77c-2.34-.07-1.38-5.68.74-5.33 1.91.33.98 5.38-.74 5.33zm-110.55-5.27c-1.57-.22-3.24-4.29-1.45-5.14 2.08-.71 4.11 5.05 1.45 5.17zm111.86-.88c-2.54-.09-.93-5.82 1.18-5.22 1.86.59.39 5.21-1.18 5.25zm-114.2-5c-1.5-.26-3.44-4-1.72-5 2.05-.85 4.53 4.91 1.72 5.06zm116.15-1c-2.69-.12-.58-5.88 1.5-5.11 1.79.93.03 4.94-1.5 5.16zm-118.9-4.65c-1.45-.31-3.62-3.79-2-4.89 2.05-1.02 4.93 4.75 2 4.94zm121.32-1.16c-2.81-.15-.32-5.92 1.72-5 1.74 1.03-.24 4.79-1.72 5.05zm-124.45-4.31c-1.4-.34-3.76-3.55-2.17-4.77 1.97-1.15 5.22 4.58 2.17 4.82zm127.19-1.36c-2.9-.18-.13-5.93 1.89-4.93 1.69 1.13-.44 4.7-1.89 4.98zM177 102.51c-1.38-.38-3.88-3.34-2.36-4.64 1.94-1.33 5.52 4.36 2.36 4.64zm133.62-1.63c-3-.2 0-5.94 2-4.86 1.67 1.14-.57 4.55-2 4.86zm-137.34-3.45c-1.36-.4-4-3.13-2.52-4.52 1.89-1.44 5.77 4.19 2.52 4.52zm140.51-2c-3-.22.12-5.94 2.11-4.8 1.62 1.19-.7 4.49-2.11 4.81zm-144.48-2.9c-1.3-.13-1.86-1.7-2.78-2.5a1.35 1.35 0 012-1.79c1.13 1.13 3.63 3.76.78 4.3zm147.79-2.44c-3.06-.24.22-6 2.19-4.76 1.6 1.22-.79 4.42-2.19 4.76zm-152-2.26c-2.33-.27-5.14-6-.88-4.25 1.21 1.06 3.78 3.67.91 4.25zm155.39-3c-3.09-.25.3-6 2.25-4.71 1.61 1.22-.82 4.33-2.22 4.68zm-159.73-1.54c-1.31-.47-4.17-2.61-2.89-4.19 1.77-1.71 6.38 3.73 2.89 4.19zM324 79.58c-2.73-.46-.48-3.1.42-4.34a1.35 1.35 0 012.22 1.53c-.81.93-1.22 2.69-2.64 2.81zm-167.81-.67c-1.31-.48-4.21-2.45-3-4.08a1.36 1.36 0 011.91-.09c1.35.96 4.11 3.53 1.13 4.17zm171.4-4.51c-3.15-.27.41-5.94 2.34-4.65 1.59 1.3-.93 4.25-2.3 4.65zM143.85 343.57c.07 5.18-8.06 5.18-8 0s8.07-5.18 8 0z" fill="none" stroke="#fff" stroke-linecap="round" stroke-linejoin="round" stroke-width=".9"/><path d="M149.08 343.57c.08 5.18-8.06 5.18-8 0-.08-5.18 8.08-5.18 8 0z" fill="none" stroke="#fff" stroke-linecap="round" stroke-linejoin="round" stroke-width=".9"/><path d="M154.27 343.57c.08 5.18-8.06 5.18-8 0-.06-5.18 8.08-5.18 8 0z" fill="none" stroke="#fff" stroke-linecap="round" stroke-linejoin="round" stroke-width=".9"/><path d="M159.51 343.57c.07 5.18-8.07 5.18-8 0-.06-5.18 8.07-5.18 8 0z" fill="none" stroke="#fff" stroke-linecap="round" stroke-linejoin="round" stroke-width=".9"/><path d="M165 343.57c.08 5.18-8.06 5.18-8 0 0-5.18 8.11-5.18 8 0z" fill="none" stroke="#fff" stroke-linecap="round" stroke-linejoin="round" stroke-width=".9"/><path d="M170.26 343.57c.08 5.18-8.06 5.18-8 0-.06-5.18 8.08-5.18 8 0z" fill="none" stroke="#fff" stroke-linecap="round" stroke-linejoin="round" stroke-width=".9"/><path d="M175.46 343.57c.07 5.18-8.06 5.18-8 0s8.07-5.18 8 0z" fill="none" stroke="#fff" stroke-linecap="round" stroke-linejoin="round" stroke-width=".9"/><path d="M180.69 343.57c.07 5.18-8.06 5.18-8 0s8.07-5.18 8 0z" fill="none" stroke="#fff" stroke-linecap="round" stroke-linejoin="round" stroke-width=".9"/><path d="M186.06 343.57c.07 5.18-8.07 5.18-8 0s8.07-5.18 8 0z" fill="none" stroke="#fff" stroke-linecap="round" stroke-linejoin="round" stroke-width=".9"/><path d="M191.29 343.57c.07 5.18-8.06 5.18-8 0s8.07-5.18 8 0z" fill="none" stroke="#fff" stroke-linecap="round" stroke-linejoin="round" stroke-width=".9"/><path d="M196.48 343.57c.08 5.18-8.06 5.18-8 0-.06-5.18 8.08-5.18 8 0z" fill="none" stroke="#fff" stroke-linecap="round" stroke-linejoin="round" stroke-width=".9"/><path d="M201.71 343.57c.08 5.18-8.06 5.18-8 0-.06-5.18 8.08-5.18 8 0z" fill="none" stroke="#fff" stroke-linecap="round" stroke-linejoin="round" stroke-width=".9"/><path d="M207.36 343.57c.08 5.18-8.06 5.18-8 0-.06-5.18 8.08-5.18 8 0z" fill="none" stroke="#fff" stroke-linecap="round" stroke-linejoin="round" stroke-width=".9"/><path d="M212.59 343.57c.08 5.18-8.06 5.18-8 0-.06-5.18 8.08-5.18 8 0z" fill="none" stroke="#fff" stroke-linecap="round" stroke-linejoin="round" stroke-width=".9"/><path d="M217.79 343.57c.07 5.18-8.06 5.18-8 0s8.07-5.18 8 0z" fill="none" stroke="#fff" stroke-linecap="round" stroke-linejoin="round" stroke-width=".9"/><path d="M223 343.57c.07 5.18-8.06 5.18-8 0s8.09-5.18 8 0z" fill="none" stroke="#fff" stroke-linecap="round" stroke-linejoin="round" stroke-width=".9"/><path d="M228.54 343.57c.08 5.18-8.06 5.18-8 0-.06-5.18 8.08-5.18 8 0z" fill="none" stroke="#fff" stroke-linecap="round" stroke-linejoin="round" stroke-width=".9"/><path d="M233.77 343.57c.08 5.18-8.06 5.18-8 0-.06-5.18 8.08-5.18 8 0z" fill="none" stroke="#fff" stroke-linecap="round" stroke-linejoin="round" stroke-width=".9"/><path d="M239 343.57c.07 5.18-8.06 5.18-8 0s8-5.18 8 0z" fill="none" stroke="#fff" stroke-linecap="round" stroke-linejoin="round" stroke-width=".9"/><path d="M244.2 343.57c.07 5.18-8.06 5.18-8 0s8.08-5.18 8 0z" fill="none" stroke="#fff" stroke-linecap="round" stroke-linejoin="round" stroke-width=".9"/><path d="M249.57 343.57c.07 5.18-8.06 5.18-8 0s8.07-5.18 8 0z" fill="none" stroke="#fff" stroke-linecap="round" stroke-linejoin="round" stroke-width=".9"/><path d="M254.8 343.57c.07 5.18-8.06 5.18-8 0s8.07-5.18 8 0z" fill="none" stroke="#fff" stroke-linecap="round" stroke-linejoin="round" stroke-width=".9"/><path d="M260 343.57c.08 5.18-8.06 5.18-8 0-.07-5.18 8.07-5.18 8 0z" fill="none" stroke="#fff" stroke-linecap="round" stroke-linejoin="round" stroke-width=".9"/><path d="M265.22 343.57c.08 5.18-8.06 5.18-8 0-.06-5.18 8.08-5.18 8 0z" fill="none" stroke="#fff" stroke-linecap="round" stroke-linejoin="round" stroke-width=".9"/><path d="M270.75 343.57c.08 5.18-8.06 5.18-8 0-.06-5.18 8.08-5.18 8 0z" fill="none" stroke="#fff" stroke-linecap="round" stroke-linejoin="round" stroke-width=".9"/><path d="M276 343.57c.08 5.18-8.06 5.18-8 0-.08-5.18 8.06-5.18 8 0z" fill="none" stroke="#fff" stroke-linecap="round" stroke-linejoin="round" stroke-width=".9"/><path d="M281.18 343.57c.07 5.18-8.07 5.18-8 0s8.07-5.18 8 0z" fill="none" stroke="#fff" stroke-linecap="round" stroke-linejoin="round" stroke-width=".9"/><path d="M286.41 343.57c.07 5.18-8.06 5.18-8 0s8.07-5.18 8 0z" fill="none" stroke="#fff" stroke-linecap="round" stroke-linejoin="round" stroke-width=".9"/><path d="M291.93 343.57c.08 5.18-8.06 5.18-8 0-.06-5.18 8.07-5.18 8 0z" fill="none" stroke="#fff" stroke-linecap="round" stroke-linejoin="round" stroke-width=".9"/><path d="M297.16 343.57c.08 5.18-8.06 5.18-8 0-.06-5.18 8.08-5.18 8 0z" fill="none" stroke="#fff" stroke-linecap="round" stroke-linejoin="round" stroke-width=".9"/><path d="M302.36 343.57c.07 5.18-8.06 5.18-8 0s8.07-5.18 8 0z" fill="none" stroke="#fff" stroke-linecap="round" stroke-linejoin="round" stroke-width=".9"/><path d="M307.59 343.57c.07 5.18-8.06 5.18-8 0s8.07-5.18 8 0z" fill="none" stroke="#fff" stroke-linecap="round" stroke-linejoin="round" stroke-width=".9"/><path d="M313 343.57c.07 5.18-8.06 5.18-8 0s8-5.18 8 0z" fill="none" stroke="#fff" stroke-linecap="round" stroke-linejoin="round" stroke-width=".9"/><path d="M318.19 343.57c.07 5.18-8.06 5.18-8 0s8.07-5.18 8 0z" fill="none" stroke="#fff" stroke-linecap="round" stroke-linejoin="round" stroke-width=".9"/><path d="M323.38 343.57c.08 5.18-8.06 5.18-8 0-.06-5.18 8.08-5.18 8 0z" fill="none" stroke="#fff" stroke-linecap="round" stroke-linejoin="round" stroke-width=".9"/><path d="M328.61 343.57c.08 5.18-8.06 5.18-8 0-.06-5.18 8.08-5.18 8 0z" fill="none" stroke="#fff" stroke-linecap="round" stroke-linejoin="round" stroke-width=".9"/><path d="M334 343.57c.07 5.18-8.06 5.18-8 0s8.05-5.18 8 0z" fill="none" stroke="#fff" stroke-linecap="round" stroke-linejoin="round" stroke-width=".9"/><path d="M339.21 343.57c.07 5.18-8.06 5.18-8 0s8.07-5.18 8 0z" fill="none" stroke="#fff" stroke-linecap="round" stroke-linejoin="round" stroke-width=".9"/><path d="M344.4 343.57c.08 5.18-8.06 5.18-8 0-.06-5.18 8.08-5.18 8 0z" fill="none" stroke="#fff" stroke-linecap="round" stroke-linejoin="round" stroke-width=".9"/><path d="M349.63 343.57c.08 5.18-8.06 5.18-8 0-.06-5.18 8.08-5.18 8 0z" fill="none" stroke="#fff" stroke-linecap="round" stroke-linejoin="round" stroke-width=".9"/><path d="M355.16 343.57c.07 5.18-8.06 5.18-8 0s8.07-5.18 8 0z" fill="none" stroke="#fff" stroke-linecap="round" stroke-linejoin="round" stroke-width=".9"/><path d="M360.39 343.57c.07 5.18-8.06 5.18-8 0-.06-5.18 8.08-5.18 8 0z" fill="none" stroke="#fff" stroke-linecap="round" stroke-linejoin="round" stroke-width=".9"/><path d="M365.58 343.57c.08 5.18-8.06 5.18-8 0-.06-5.18 8.08-5.18 8 0z" fill="none" stroke="#fff" stroke-linecap="round" stroke-linejoin="round" stroke-width=".9"/><path fill="#fff" d="M36.94 380.695l.528-7.54 75.24 5.267-.527 7.54z"/><path d="M77.74 200.42c-3.24 38.14-60 34.29-58.11-3.94 3.24-38.15 60.05-34.29 58.11 3.94z" fill="none" stroke="#fff" stroke-linecap="round" stroke-miterlimit="10" stroke-width="5.43"/><path d="M68.51 199.44c-2.25 26.5-41.72 23.83-40.38-2.74 2.26-26.5 41.73-23.82 40.38 2.74z" fill="none" stroke="#fff" stroke-linecap="round" stroke-miterlimit="10" stroke-width="5.43"/><path d="M61 198.86c-1.19 16.43-26.19 14.73-25.14-1.71s26.22-14.74 25.14 1.71z" fill="#fff"/><path d="M80.58 194.78c1.82.12 1.19 9.41 3 9.53s2.45-9.16 4.26-9 1.19 9.41 3 9.53 2.45-9.16 4.26-9 1.19 9.41 3 9.53 2.45-9.16 4.27-9 1.18 9.4 3 9.53 2.44-9.16 4.26-9 1.19 9.4 3 9.53 2.45-9.16 4.26-9 1.19 9.41 3 9.53 2.45-9.16 4.27-9" fill="none" stroke="#fff" stroke-linecap="round" stroke-linejoin="round" stroke-width=".75"/><path d="M88.72 215.66c-1.21-.47-7.32.6-7-1.85.47-1.22-.6-7.33 1.85-7 1.22.47 7.33-.6 7 1.86-.46 1.19.61 7.33-1.85 6.99z" fill="#fff"/><path d="M81.67 222.07c-1.21-.47-7.32.6-7-1.86.47-1.21-.6-7.32 1.86-7 1.21.47 7.32-.6 7 1.86-.47 1.2.6 7.31-1.86 7zm19.9-5.54c-1.21-.47-7.32.6-7-1.85.47-1.22-.6-7.33 1.86-7 1.21.46 7.32-.61 7 1.85-.43 1.2.57 7.31-1.86 7z" fill="#fff"/><path d="M94.53 222.94c-1.22-.47-7.33.6-7-1.86.47-1.21-.6-7.32 1.86-7 1.21.47 7.32-.6 7 1.86-.48 1.2.61 7.31-1.86 7zm20.06-5.53c-1.22-.47-7.33.61-7-1.85.47-1.21-.6-7.32 1.86-7 1.21.47 7.32-.6 7 1.85-.45 1.2.55 7.31-1.86 7z" fill="#fff"/><path d="M107.54 223.82c-1.22-.47-7.33.6-7-1.85.47-1.22-.6-7.33 1.86-7 1.21.47 7.32-.6 7 1.86-.48 1.17.6 7.3-1.86 6.99zm20.06-5.52c-1.22-.47-7.33.6-7-1.86.47-1.21-.6-7.32 1.86-7 1.21.47 7.32-.6 7 1.85-.46 1.21.59 7.32-1.86 7.01z" fill="#fff"/><path d="M120.55 224.7c-1.22-.47-7.33.6-7-1.85.46-1.21-.61-7.32 1.85-7 1.21.47 7.32-.61 7 1.85-.47 1.2.6 7.3-1.85 7z" fill="#fff"/><path d="M36.36 229.46c45.41-3.79 42.85 57 25.51 79-5.2 5.77-22.59 5.18-22.59 5.18m-3.48-75.87s19.68-3.12 25.67 15.09M59 289.4c-2.31 15-11.76 15.51-23.35 16.21" fill="none" stroke="#fff" stroke-linecap="round" stroke-miterlimit="10" stroke-width="5.43"/><path d="M61.18 224.75c35.08 35 13.95 47.66 15.68 88.66 2.52 15.75 15 46.35 33.91 47.91" fill="none" stroke="#fff" stroke-linecap="round" stroke-miterlimit="10" stroke-width="5.43"/><path d="M106.87 351.65c-2.07-.2-4.39-3.73-1-3.14 1.5.49 3.58 2.7 1 3.14zm-4.22-2.72c-1.12-.51-3.68-1.76-2.7-3.28 1.44-1.65 6.05 2.88 2.7 3.28zm-4.23-3.39c-1.12-.5-3.58-2.2-2.44-3.59 1.55-1.45 5.59 3.31 2.44 3.59zm-3.81-3.87c-1.14-.45-3.43-2.65-2.12-3.87 1.64-1.21 5.07 3.71 2.12 3.87zm-3.3-4.3c-1.19-.4-3.22-3.09-1.77-4.12 1.71-.96 4.51 4.06 1.77 4.12zm-2.75-4.68c-1.25-.35-3-3.49-1.39-4.33 1.75-.72 3.93 4.33 1.39 4.33zm-2.15-5c-1.33-.3-2.66-3.84-1-4.48s3.34 4.55 1 4.5zm-1.58-5.19c-1.42-.26-2.36-4.13-.65-4.58s2.82 4.66.65 4.6zm-1-5.34c-1.53-.23-2.07-4.36-.32-4.63s2.32 4.73.3 4.65zm-.51-5.4c-1.63-.22-1.79-4.54 0-4.65s1.87 4.74-.02 4.67zm-.06-5.43c-1.73-.21-1.53-4.69.25-4.65s1.49 4.72-.27 4.67zm.36-5.42c-1.83-.21-1.29-4.8.5-4.63s1.17 4.72-.52 4.65zm.73-5.39c-1.93-.2-1.06-4.88.72-4.59s.93 4.61-.74 4.61zm1.08-5.32c-2-.22-.82-5 1-4.55s.57 4.53-1.02 4.57zm1.41-5.2c-2.32-.35-.17-5.37 1.25-4.46 1.38.1.37 4.46-1.25 4.46z" fill="none" stroke="#fff" stroke-miterlimit="10" stroke-width=".78"/><path d="M89.36 291.46s-9.2 28.85 18 52.94m-12.45-45.05l-2.23 25.78m7.08-14.36l-2.44 22.43m7.98-15.49l-2.82 21.91" fill="none" stroke="#fff" stroke-linecap="round" stroke-linejoin="round" stroke-width=".78"/><path d="M116 228.47l13.52.91c-3.89 23.55-10.88 18.62-13.52-.91z" fill="#fff"/><path d="M106.08 227.8l13.51.91c-3.85 23.55-10.84 18.61-13.51-.91zm-18.92-1.29l13.51.92C96.82 251 89.83 246 87.16 226.51z" fill="#fff"/><path d="M71.76 225.47l19 1.29c-4.61 28.15-11.17 11.98-19-1.29zm24.4 1.65l13.51.92c-3.85 23.55-10.83 18.6-13.51-.92z" fill="#fff"/><path d="M128.46 254.93s-25.75-3.35-34.14-6 1.15 52.13 19.76 61" fill="none" stroke="#fff" stroke-linecap="round" stroke-miterlimit="10" stroke-width="8.53"/><path d="M116.69 285.4c-.43 8-13 7.18-12.38-.84.42-8.04 13.04-7.19 12.38.84zm-5.45-10.21c-1.34-.42-6.44.59-6.17-2l.83-12.19c.07-2.56 5-.91 6.38-1.13a1.56 1.56 0 011.44 1.66l-.82 12.17a1.56 1.56 0 01-1.66 1.49zm-9.91-.67c-1.35-.42-6.44.59-6.17-2l.84-12.15c.07-2.57 5-.92 6.38-1.13a1.56 1.56 0 011.44 1.66l-.82 12.17a1.56 1.56 0 01-1.67 1.45zm19.67 1.33c-1.35-.42-6.44.59-6.17-2l.83-12.18c.07-2.56 5-.91 6.38-1.12a1.55 1.55 0 011.44 1.65l-.82 12.18a1.56 1.56 0 01-1.66 1.47z" fill="#fff"/><path fill="none" stroke="#fff" stroke-linecap="round" stroke-miterlimit="10" stroke-width="3.88" d="M42.91 256.81l18.21 1.24m-20.05 25.92l18.21 1.24m-.35-27.31l-1.8 26.49m-3.36-26.84l-1.79 26.49m-3.39-26.84l-1.8 26.49"/><path d="M40 390.29l13.51.91c-3.82 23.56-10.8 18.61-13.51-.91z" fill="#fff"/><path d="M50.87 391l13.51.92c-3.85 23.57-10.84 18.62-13.51-.92z" fill="#fff"/><path d="M61.7 391.76l13.51.91c-3.84 23.55-10.83 18.61-13.51-.91z" fill="#fff"/><path d="M72.57 392.49l13.51.92C82.23 417 75.25 412 72.57 392.49z" fill="#fff"/><path d="M83.41 393.23l13.51.91c-3.85 23.55-10.84 18.61-13.51-.91z" fill="#fff"/><path d="M94.07 394l13.51.92c-3.85 23.5-10.83 18.55-13.51-.92z" fill="#fff"/><path d="M104.91 394.68l13.51.92c-3.85 23.55-10.83 18.6-13.51-.92z" fill="#fff"/><path d="M119.24 392l-2-.13a1.17 1.17 0 01.16-2.33l1.93.14a1.16 1.16 0 01-.09 2.32zm-5-.34c-.1 0-2.3-.16-2.4-.16a1.16 1.16 0 01.16-2.32l2.32.15a1.17 1.17 0 01-.11 2.35zm-5.41-.37c-.11 0-2.31-.16-2.41-.16a1.16 1.16 0 01.16-2.32l2.32.16a1.16 1.16 0 01-.1 2.34zm-5.42-.36l-2.41-.17a1.16 1.16 0 01.16-2.32l2.32.16a1.17 1.17 0 01-.1 2.4zm-5.41-.35l-2.4-.16a1.16 1.16 0 01.15-2.32l2.33.15a1.17 1.17 0 01-.08 2.33zm-5.42-.37c-.11 0-2.3-.16-2.4-.16a1.16 1.16 0 01.15-2.32l2.33.16a1.16 1.16 0 01-.12 2.32zm-5.42-.37c-.11 0-2.3-.16-2.4-.16a1.16 1.16 0 01.16-2.32l2.32.16a1.16 1.16 0 01-.12 2.32zm-5.42-.36c-1-.19-3.62.29-3.48-1.4s2.57-.89 3.56-.93a1.17 1.17 0 01-.12 2.33zm-5.42-.37l-2.4-.16a1.16 1.16 0 01.16-2.32l2.32.15a1.17 1.17 0 01-.12 2.33zm-5.42-.37c-1-.18-3.62.29-3.48-1.4s2.58-.88 3.56-.92a1.16 1.16 0 01-.12 2.32zm-5.41-.37c-.11 0-2.3-.16-2.41-.16a1.16 1.16 0 01.16-2.32l2.32.16a1.16 1.16 0 01-.11 2.32zM60 388c-1-.19-3.63.29-3.49-1.4s2.58-.89 3.56-.93A1.17 1.17 0 0160 388zm-5.42-.37c-1-.18-3.63.29-3.49-1.4s2.58-.88 3.57-.93a1.17 1.17 0 01-.05 2.34zm-5.42-.37c-.11 0-2.3-.16-2.4-.16a1.16 1.16 0 01.15-2.32l2.33.16a1.16 1.16 0 01-.05 2.33zm-5.42-.36c-1-.19-3.62.29-3.48-1.4s2.57-.89 3.56-.93a1.17 1.17 0 01-.05 2.34zm-5.42-.37c-1-.18-3.62.29-3.48-1.4s2.57-.89 3.56-.93a1.17 1.17 0 01-.05 2.34z" fill="none" stroke="#fff" stroke-linecap="round" stroke-linejoin="round" stroke-width=".98"/><path d="M59.47 328.85c-1.42-.55-8.58.71-8.21-2.17.55-1.42-.71-8.58 2.17-8.21 1.42.55 8.58-.71 8.21 2.17-.55 1.42.71 8.58-2.17 8.21z" fill="#fff"/><path d="M51.21 336.36c-1.42-.55-8.57.7-8.21-2.17.55-1.42-.7-8.58 2.17-8.22 1.42.55 8.58-.7 8.22 2.18-.55 1.42.7 8.57-2.18 8.21zm23.6-6.47c-1.42-.55-8.58.71-8.22-2.17.55-1.42-.7-8.58 2.18-8.21 1.42.55 8.57-.71 8.21 2.17-.55 1.42.7 8.58-2.17 8.21z" fill="#fff"/><path d="M44.43 327.83c-1.42-.55-8.58.71-8.21-2.17.55-1.42-.71-8.58 2.17-8.21 1.42.55 8.57-.71 8.21 2.17-.55 1.38.7 8.58-2.17 8.21zm22.12 9.57c-1.42-.55-8.58.7-8.21-2.18.55-1.42-.71-8.57 2.17-8.21 1.42.55 8.58-.7 8.21 2.17-.55 1.42.71 8.58-2.17 8.22z" fill="#fff"/><path d="M58.34 345.59c-1.42-.55-8.58.71-8.22-2.17.55-1.42-.7-8.58 2.18-8.21 1.42.55 8.57-.71 8.21 2.17-.51 1.42.7 8.62-2.17 8.21z" fill="#fff"/><path d="M50.08 353.1c-1.42-.55-8.58.7-8.21-2.18.55-1.42-.71-8.57 2.17-8.21 1.42.55 8.58-.7 8.21 2.17-.55 1.42.75 8.58-2.17 8.22zm23.59-6.47c-1.42-.55-8.58.71-8.21-2.17.55-1.42-.71-8.58 2.17-8.21 1.42.55 8.58-.71 8.21 2.17-.55 1.42.71 8.58-2.17 8.21z" fill="#fff"/><path d="M43.29 344.57c-1.42-.55-8.57.71-8.21-2.17.55-1.42-.7-8.58 2.17-8.21 1.42.55 8.58-.71 8.22 2.17-.55 1.42.7 8.58-2.18 8.21zm22.12 9.57c-1.41-.55-8.57.7-8.21-2.18.55-1.42-.7-8.57 2.18-8.21 1.42.55 8.57-.7 8.21 2.17-.59 1.42.7 8.58-2.18 8.22zm15.72 1.06c-1.42-.55-8.58.71-8.22-2.17.55-1.42-.7-8.58 2.18-8.21 1.42.55 8.57-.71 8.21 2.17-.55 1.42.7 8.58-2.17 8.21z" fill="#fff"/><path d="M57.28 361.11c-1.42-.55-8.57.71-8.21-2.17.55-1.42-.7-8.58 2.17-8.21 1.42.55 8.58-.71 8.22 2.17-.55 1.42.7 8.58-2.18 8.21z" fill="#fff"/><path d="M49 368.62c-1.42-.55-8.58.7-8.21-2.18.55-1.42-.71-8.57 2.17-8.21 1.42.55 8.57-.7 8.21 2.17-.52 1.42.74 8.6-2.17 8.22zm23.62-6.47c-1.42-.55-8.58.71-8.21-2.17.55-1.42-.71-8.58 2.17-8.21 1.42.55 8.58-.71 8.21 2.17-.55 1.42.71 8.57-2.17 8.21zm15.45 1.05c-1.42-.55-8.58.7-8.21-2.17.55-1.43-.71-8.58 2.17-8.22 1.42.55 8.58-.7 8.21 2.17-.55 1.43.76 8.58-2.17 8.22z" fill="#fff"/><path d="M42.24 360.09c-1.42-.55-8.58.71-8.21-2.17.55-1.42-.71-8.58 2.17-8.21 1.42.55 8.58-.71 8.21 2.17-.55 1.42.71 8.58-2.17 8.21zm22.12 9.56c-1.42-.55-8.57.71-8.21-2.17.55-1.42-.7-8.57 2.17-8.21 1.42.55 8.58-.7 8.22 2.17-.54 1.42.7 8.56-2.18 8.21zm15.5 1.05c-1.42-.54-8.58.71-8.21-2.17.55-1.42-.71-8.57 2.17-8.21 1.42.55 8.57-.7 8.21 2.17-.55 1.42.71 8.58-2.17 8.21zm15.33 1.04c-1.42-.55-8.57.71-8.21-2.17.55-1.42-.7-8.57 2.17-8.21 1.42.55 8.58-.71 8.22 2.17-.55 1.47.7 8.58-2.18 8.21zm295.199 6.707l75.45-5.282.529 7.56-75.45 5.282z" fill="#fff"/><path d="M422.73 200.28c3.29 38.25 60.26 34.31 58.27-4-3.3-38.28-60.27-34.34-58.27 4z" fill="none" stroke="#fff" stroke-linecap="round" stroke-miterlimit="10" stroke-width="5.45"/><path d="M432 199.29c2.29 26.57 41.87 23.84 40.49-2.8-2.31-26.58-41.89-23.84-40.49 2.8z" fill="none" stroke="#fff" stroke-linecap="round" stroke-miterlimit="10" stroke-width="5.45"/><path d="M439.48 198.69c1.21 16.48 26.27 14.75 25.21-1.74s-26.28-14.75-25.21 1.74z" fill="#fff"/><path d="M420.45 203.94c-1.86.11-2.39-9.21-4.26-9.11s-1.34 9.43-3.21 9.54-2.39-9.22-4.26-9.11-1.34 9.43-3.21 9.53-2.4-9.22-4.27-9.11-1.34 9.43-3.2 9.54-2.4-9.22-4.27-9.11-1.34 9.43-3.21 9.53-2.4-9.22-4.27-9.11-1.34 9.43-3.21 9.54-2.4-9.22-4.27-9.11-1.34 9.43-3.22 9.53" fill="none" stroke="#fff" stroke-linecap="round" stroke-linejoin="round" stroke-width=".78"/><path d="M411.73 215.58c1.22-.47 7.35.59 7-1.87-.47-1.22.6-7.35-1.87-7-1.21.47-7.34-.59-7 1.87.48 1.18-.59 7.31 1.87 7z" fill="#fff"/><path d="M418.81 222c1.21-.48 7.34.59 7-1.87-.47-1.22.59-7.35-1.87-7-1.22.47-7.34-.6-7 1.87.47 1.18-.59 7.31 1.87 7zm-19.97-5.53c1.22-.48 7.35.59 7-1.87-.47-1.22.6-7.35-1.87-7-1.21.47-7.34-.6-7 1.87.48 1.18-.59 7.31 1.87 7z" fill="#fff"/><path d="M405.92 222.88c1.21-.47 7.34.6 7-1.86-.47-1.22.59-7.35-1.87-7-1.22.47-7.34-.6-7 1.87.47 1.18-.59 7.31 1.87 6.99zm-20.12-5.51c1.21-.48 7.34.59 7-1.87-.47-1.22.6-7.35-1.86-7-1.22.47-7.35-.6-7 1.87.46 1.18-.61 7.31 1.86 7z" fill="#fff"/><path d="M392.87 223.78c1.22-.47 7.35.6 7-1.86-.47-1.22.6-7.35-1.87-7-1.21.47-7.34-.6-7 1.87.48 1.21-.59 7.31 1.87 6.99zm-20.12-5.51c1.21-.48 7.34.59 7-1.87-.47-1.22.59-7.35-1.87-7-1.22.47-7.35-.6-7 1.87.47 1.18-.6 7.31 1.87 7z" fill="#fff"/><path d="M379.83 224.68c1.21-.47 7.34.6 7-1.86-.47-1.22.6-7.35-1.86-7-1.22.47-7.35-.6-7 1.87.46 1.18-.61 7.31 1.86 6.99z" fill="#fff"/><path d="M464.26 229.36c-45.55-3.75-42.91 57.25-25.49 79.26 5.22 5.78 22.67 5.16 22.67 5.16m3.39-76.09s-19.74-3.1-25.73 15.16m2.53 36.64c2.34 15.08 11.81 15.54 23.43 16.24" fill="none" stroke="#fff" stroke-linecap="round" stroke-miterlimit="10" stroke-width="5.45"/><path d="M439.37 224.66c-35.15 35.15-13.94 47.82-15.62 88.94-2.52 15.79-15 46.49-33.95 48.08" fill="none" stroke="#fff" stroke-linecap="round" stroke-miterlimit="10" stroke-width="5.45"/><path d="M393.7 352c-2.59-.44-.51-2.67.94-3.15 3.46-.62 1.13 2.93-.94 3.15zm4.23-2.73c-3.35-.4 1.25-5 2.69-3.29.99 1.5-1.62 2.75-2.69 3.27zm4.23-3.41c-3.16-.27.89-5.06 2.44-3.6 1.15 1.37-1.31 3.08-2.44 3.58zM406 342c-3-.16.48-5.1 2.12-3.88 1.29 1.18-1 3.38-2.12 3.88zm3.31-4.32c-2.75-.06 0-5.1 1.76-4.14 1.44 1-.6 3.7-1.78 4.1zm2.74-4.7c-2.54 0-.37-5.06 1.39-4.34 1.56.8-.16 3.95-1.44 4.3zm2.16-5c-2.35.05-.77-5 1-4.49s.31 4.16-1.02 4.51zm1.57-5.21c-2.18.07-1.14-4.89.65-4.59s.76 4.3-.67 4.56zm1-5.35c-2 .07-1.46-4.76.31-4.65 1.76.23 1.22 4.38-.31 4.62zm.51-5.43c-1.9.08-1.75-4.63 0-4.66s1.63 4.42 0 4.67zm0-5.44c-1.8.05-2-4.5-.26-4.67s2.05 4.43.31 4.64zm-.37-5.44c-1.7 0-2.21-4.34-.5-4.64s2.39 4.41.58 4.61zm-.74-5.4c-1.62 0-2.4-4.19-.73-4.6s2.72 4.37.78 4.57zm-1.09-5.33c-1.56 0-2.58-4-.95-4.56s3.03 4.3 1 4.53zm-1.44-5.26c-1.63 0-2.64-4.34-1.25-4.47 1.46-.94 3.6 4.09 1.3 4.44z" fill="none" stroke="#fff" stroke-miterlimit="10" stroke-width=".78"/><path d="M411.18 291.59s9.27 28.93-18 53.12m12.45-45.19l2.27 25.85m-7.12-14.4l2.47 22.5m-8.02-15.52l2.86 21.96" fill="none" stroke="#fff" stroke-linecap="round" stroke-linejoin="round" stroke-width=".78"/><path d="M384.43 228.45l-13.55.94c3.89 23.61 10.88 18.61 13.55-.94z" fill="#fff"/><path d="M394.34 227.77l-13.55.93c3.89 23.62 10.89 18.65 13.55-.93zm18.97-1.31l-13.55.93c3.89 23.61 10.89 18.61 13.55-.93z" fill="#fff"/><path d="M428.75 225.39l-19.07 1.32c4.68 28.22 11.24 12 19.07-1.32zm-24.47 1.69l-13.54.94c3.88 23.61 10.88 18.64 13.54-.94z" fill="#fff"/><path d="M371.93 255s25.81-3.39 34.22-6-1.08 52.28-19.74 61.19" fill="none" stroke="#fff" stroke-linecap="round" stroke-miterlimit="10" stroke-width="8.56"/><path d="M383.77 285.55c.44 8.06 13.09 7.19 12.42-.86-.44-8.06-13.1-7.19-12.42.86zm5.45-10.25c1.35-.42 6.46.59 6.18-2l-.84-12.21c-.07-2.57-5-.91-6.4-1.12a1.56 1.56 0 00-1.44 1.66l.84 12.21a1.56 1.56 0 001.66 1.46zm9.94-.68c1.35-.42 6.46.58 6.18-2l-.84-12.21c-.07-2.57-5-.91-6.4-1.12a1.58 1.58 0 00-1.45 1.66l.85 12.21a1.56 1.56 0 001.66 1.46zM379.42 276c1.35-.42 6.46.58 6.18-2l-.84-12.21c-.07-2.57-5-.91-6.4-1.12a1.56 1.56 0 00-1.44 1.66l.84 12.21a1.56 1.56 0 001.66 1.46z" fill="#fff"/><path fill="none" stroke="#fff" stroke-linecap="round" stroke-miterlimit="10" stroke-width="3.89" d="M447.42 257.5l-7.96.55m9.84 26.69l-7.96.55m20.61-28.79l-7.96.55m9.84 26.69l-7.96.55"/><path d="M460.78 390.65l-13.55.93c3.89 23.62 10.88 18.65 13.55-.93z" fill="#fff"/><path d="M449.91 391.4l-13.55.93c3.89 23.67 10.89 18.67 13.55-.93z" fill="#fff"/><path d="M439 392.15l-13.55.93c3.93 23.62 10.93 18.65 13.55-.93z" fill="#fff"/><path d="M428.15 392.9l-13.55.93c3.89 23.62 10.88 18.65 13.55-.93z" fill="#fff"/><path d="M417.28 393.65l-13.55.93c3.89 23.62 10.89 18.65 13.55-.93z" fill="#fff"/><path d="M406.58 394.39l-13.55.93c3.89 23.62 10.89 18.68 13.55-.93z" fill="#fff"/><path d="M395.71 395.14l-13.55.93c3.89 23.62 10.89 18.65 13.55-.93z" fill="#fff"/><path d="M381.33 392.48a1.17 1.17 0 01-.08-2.33l1.94-.13a1.17 1.17 0 01.16 2.33zm5.05-.35a1.17 1.17 0 01-.08-2.33l2.33-.16a1.17 1.17 0 01.16 2.33c-.12.03-2.29.17-2.41.16zm5.43-.37a1.17 1.17 0 01-.08-2.33l2.33-.16a1.17 1.17 0 01.16 2.33zm5.43-.38a1.17 1.17 0 01-.07-2.33l2.32-.16a1.17 1.17 0 01.16 2.33c-.11 0-2.28.17-2.41.16zm5.44-.37a1.17 1.17 0 01-.08-2.33l2.33-.16a1.17 1.17 0 01.16 2.33zm5.43-.38a1.17 1.17 0 01-.08-2.33l2.33-.16a1.17 1.17 0 01.16 2.33c-.11 0-2.29.17-2.41.16zm5.44-.37a1.17 1.17 0 01-.08-2.33l2.33-.16a1.17 1.17 0 01.16 2.33zm5.43-.38a1.17 1.17 0 01-.08-2.33l2.33-.16a1.17 1.17 0 01.16 2.33c-.11 0-2.29.17-2.39.16zm5.43-.37a1.17 1.17 0 01-.07-2.33l2.32-.16a1.17 1.17 0 01.16 2.33zm5.44-.37a1.17 1.17 0 01-.08-2.34l2.33-.16a1.17 1.17 0 01.16 2.33zm5.43-.38a1.17 1.17 0 01-.08-2.33l2.33-.16a1.17 1.17 0 01.16 2.33zm5.44-.37a1.17 1.17 0 01-.08-2.34l2.33-.16a1.17 1.17 0 01.16 2.33zm5.43-.38a1.17 1.17 0 01-.08-2.33l2.33-.16a1.17 1.17 0 01.16 2.33zm5.43-.37a1.17 1.17 0 01-.08-2.34l2.33-.16a1.17 1.17 0 01.16 2.33zm5.44-.38a1.17 1.17 0 01-.08-2.33l2.33-.16a1.17 1.17 0 01.16 2.33zm5.43-.37a1.17 1.17 0 01-.08-2.34c1 0 3.49-.74 3.58.93s-2.5 1.23-3.5 1.41z" fill="none" stroke="#fff" stroke-linecap="round" stroke-linejoin="round" stroke-width=".98"/><path d="M441.2 329.06c1.43-.55 8.61.7 8.24-2.19-.56-1.42.69-8.6-2.19-8.23-1.43.55-8.6-.7-8.23 2.19.55 1.42-.7 8.6 2.18 8.23z" fill="#fff"/><path d="M449.49 336.58c1.43-.56 8.6.69 8.24-2.19-.56-1.43.69-8.6-2.19-8.23-1.43.55-8.6-.7-8.24 2.18.56 1.43-.69 8.66 2.19 8.24zm-23.66-6.46c1.42-.55 8.6.7 8.23-2.19-.55-1.42.7-8.6-2.19-8.23-1.42.55-8.6-.7-8.23 2.19.55 1.42-.7 8.6 2.19 8.23z" fill="#fff"/><path d="M456.29 328c1.42-.55 8.6.7 8.23-2.19-.55-1.42.7-8.6-2.19-8.23-1.42.55-8.6-.7-8.23 2.19.55 1.44-.7 8.62 2.19 8.23zm-22.18 9.64c1.43-.56 8.61.69 8.24-2.19-.56-1.42.69-8.6-2.19-8.23-1.42.55-8.6-.7-8.23 2.18.55 1.43-.7 8.6 2.18 8.24z" fill="#fff"/><path d="M442.36 345.85c1.43-.56 8.6.69 8.23-2.19-.55-1.43.7-8.6-2.18-8.24-1.43.56-8.61-.69-8.24 2.19.56 1.39-.69 8.61 2.19 8.24z" fill="#fff"/><path d="M450.65 353.36c1.42-.55 8.6.7 8.23-2.19-.55-1.42.7-8.6-2.18-8.23-1.43.55-8.61-.7-8.24 2.19.54 1.42-.69 8.6 2.19 8.23zM427 346.91c1.43-.56 8.61.69 8.24-2.19-.56-1.42.69-8.6-2.19-8.23-1.43.55-8.6-.7-8.23 2.18.53 1.43-.72 8.61 2.18 8.24z" fill="#fff"/><path d="M457.45 344.81c1.42-.56 8.6.69 8.23-2.19-.55-1.43.7-8.6-2.19-8.24-1.42.56-8.6-.69-8.23 2.19.55 1.43-.7 8.6 2.19 8.24zm-22.18 9.61c1.43-.55 8.6.7 8.24-2.18-.56-1.43.69-8.61-2.19-8.24-1.43.56-8.6-.69-8.24 2.19.56 1.42-.69 8.6 2.19 8.23zm-15.75 1.09c1.42-.55 8.6.7 8.23-2.19-.55-1.42.7-8.6-2.19-8.23-1.42.55-8.6-.7-8.23 2.19.55 1.42-.7 8.6 2.19 8.23z" fill="#fff"/><path d="M443.44 361.41c1.42-.55 8.6.69 8.23-2.19-.55-1.42.69-8.6-2.19-8.23-1.42.55-8.6-.7-8.23 2.19.55 1.42-.7 8.6 2.19 8.23z" fill="#fff"/><path d="M451.72 368.92c1.43-.55 8.61.7 8.24-2.18-.56-1.43.69-8.61-2.19-8.24-1.42.56-8.6-.69-8.23 2.19.55 1.42-.7 8.6 2.18 8.23zm-23.66-6.45c1.42-.55 8.6.7 8.23-2.19-.55-1.42.7-8.6-2.19-8.23-1.42.55-8.6-.7-8.23 2.19.55 1.42-.7 8.6 2.19 8.23zm-15.5 1.07c1.43-.56 8.61.69 8.24-2.19-.56-1.42.69-8.6-2.19-8.23-1.43.55-8.6-.7-8.23 2.18.55 1.43-.7 8.61 2.18 8.24z" fill="#fff"/><path d="M458.52 360.37c1.42-.56 8.6.69 8.23-2.19-.55-1.42.7-8.6-2.19-8.23-1.42.55-8.6-.7-8.23 2.18.55 1.43-.69 8.61 2.19 8.24zM436.35 370c1.42-.56 8.6.69 8.23-2.19-.55-1.43.7-8.61-2.19-8.24-1.42.56-8.6-.69-8.23 2.19.55 1.42-.7 8.59 2.19 8.24zm-15.54 1.06c1.42-.56 8.6.69 8.23-2.19-.55-1.42.7-8.6-2.19-8.23-1.42.55-8.6-.7-8.23 2.18.55 1.43-.7 8.61 2.19 8.24zm-15.38 1.06c1.42-.56 8.6.69 8.23-2.19-.55-1.42.7-8.6-2.19-8.23-1.42.55-8.6-.7-8.23 2.18.55 1.43-.69 8.61 2.19 8.24z" fill="#fff"/><path fill="none" stroke="#fff" stroke-linecap="round" stroke-miterlimit="10" stroke-width="3.89" d="M443.44 257.78l16.41 26.23m-1.88-27.24l-12.65 28.24"/><path fill="#fff" d="M131.41 355.17h238.45v8.74H131.41z"/><path fill="none" stroke="#fff" stroke-linecap="round" stroke-linejoin="round" stroke-width=".9" d="M134.19 352.48h234.65m-229.86 32.28h227.56m-252.13 4.59h268.53M318.9 59.22c-4.91 37-66.5 70-74.43 70M313.53 58c-7.57 33.42-52.07 59.5-65.94 63.88m-77.43-62.66c4.91 37 66.49 70 74.43 70M175.53 58c7.58 33.51 52.32 59.65 66.05 63.92"/><path d="M241 123.29c.41-3.45 5.51-3.51 7.14-.72m1.62-1.45s-6.11 5.59 2.25 5.52m4.21-8.38s-6 5.35 2.4 5.28m4.26-8.86s-5.64 5 2.73 4.94m5.05-9.75s-5.21 6.91 3.43 4.32m4.39-9.7s-5.21 6.92 3.42 4.32m3.92-10.28s-5.21 6.91 3.43 4.32m3.12-10.36s-4.58 6.59 4.06 4m2.19-10.65s-4.58 6.58 4.05 4m1.22-10.9s-3.27 6.9 5 3.39m-.13-11.45s-2.69 9 5.49 2.7m-1.56-12.35s-.35 10.05 5.31 2.35m-78.74 57.54s6.12 5.59-2.25 5.52m-4.2-8.38s6 5.35-2.4 5.28m-4.26-8.86s5.63 5-2.74 4.94m-5.05-9.75s5.21 6.91-3.42 4.32m-4.39-9.7s5.21 6.92-3.43 4.32m-3.92-10.28s5.21 6.91-3.42 4.32m-3.13-10.36s4.58 6.59-4.05 4m-2.2-10.65s4.59 6.58-4.05 4m-1.22-10.9s3.28 6.9-5 3.39m.14-11.45s2.68 9-5.49 2.7m1.55-12.35s.36 10.05-5.3 2.35" fill="none" stroke="#fff" stroke-linecap="round" stroke-miterlimit="10" stroke-width=".9"/><path fill="none" stroke="#fff" stroke-linecap="round" stroke-linejoin="round" stroke-width=".9" d="M241.39 124.38l4.34 2.59m1.88-2.59l-4.34 2.59"/></g><path d="M206.72 51.51s4 48.55 43.68 46.73 43.67-46.73 43.67-46.73" fill="none" stroke="#636363" stroke-linecap="round" stroke-linejoin="round"/><path d="M372.14 291.55c-.18 41.16-.42 69.32-.62 110.47-.81 9-2.68 16.41-3.55 25.44-1 10.07 1.34 17.05-1.5 25.63-.59 1.77-2 1.67-3.35 1.44-44.59-7.74-101.66-5.72-146.65-2.92-24.6.57-58.62-1.68-83 2.08-5.23.6-5.68-.22-6.62-5.32-1.35-11.26 1.94-18 .53-28.81-6.15-46.82-1.39-81.37-3.6-128.53-1.42 2.83-2.94 5.6-4.29 8.46-2.37 10.67-17.5 9.3-11.81 16.18 11.11 7.95 6.41 21.38 5.15 32.56-.25 3.15-1.35 6.27-.37 9.58.51 8.44-3.19 16.94-4.38 25.31-1.5 8-2.61 15.83-1.54 23.93a5.1 5.1 0 01-1.13 3.3c-5.71 6.28-7.75 14-9.19 22.06-.57 3.18-.61 3-3.74 2-12.38-3.52-26.09-4.38-38.6-1.18-1.39.34-2.11 0-2.41-1.47-2-7.76-2.18-16.67-8.49-22.43a6.62 6.62 0 01-1.33-3.22A144.46 144.46 0 0139 372.86c-1.91-63 2.6-126.93 26.19-186 13.61-35.43 24.56-73.32 48.07-103.67 27.32-18.2 60-23.76 90.46-34.78a3.16 3.16 0 012.72.43c5 5.55 11.46 8.41 18.56 9.67 19.19 2.43 41.29 5.55 58.65-4.88 2.85-1.27 4.2-6.53 7.87-5 29.12 10.49 61 14.4 87.44 31.58 15.94 14.59 21.63 38 30.45 57.21 27.81 67.48 58 137.39 51.05 212.07-1.19 18.66-.23 37.46-3.28 56-.49 4.66-5.21 7.09-5.56 11.78-1.22 5.28-2.08 10.65-2.91 16-.4 2.6-.41 2.83-3.08 2.33-12.48-2.66-25.26-5.49-37.8-1.58-8.34-.15-8.13-15.56-11.44-21.4-6.28-7.37-3.61-9-5.33-17.64-.9-9.7-4.68-20.27.79-29.26 2-3.53 1.86-7.05.51-10.66-4.9-11.28-7.4-23.42-10.45-35.29-1.07-4.31-1.31-8.5 1.61-12.34 1.51-7.23-10.43-8.68-10.93-15.93z" fill="none" stroke="#262521" stroke-linecap="round" stroke-linejoin="round" stroke-width="3"/></svg>