<svg xmlns="http://www.w3.org/2000/svg" width="500" height="550" viewBox="0 0 500 550"><path d="M372.14 291.56q-.27 61.72-.62 123.46c-.81 9-2.68 16.41-3.55 25.44-1 10.07 1.34 17.05-1.5 25.64-.59 1.76-2 1.66-3.35 1.43-44.59-7.74-101.66-5.72-146.65-2.92-24.6.57-58.62-1.68-83 2.09-5.23.59-5.68.27-6.62-4.83-1.35-11.26 1.94-18.53.53-29.31-6.15-46.82-1.39-94.37-3.6-141.53-1.42 2.83-2.94 5.6-4.29 8.46-2.37 10.68-17.5 9.3-11.81 16.18 11.11 7.95 6.41 21.38 5.15 32.56-.25 3.15-1.35 6.27-.37 9.58.51 8.44-3.19 16.94-4.38 25.31-1.5 8-2.61 15.83-1.54 23.93a5.1 5.1 0 01-1.13 3.3c-5.71 6.28-7.75 14-9.19 22.06-.57 3.18-.61 3-3.74 2-12.38-3.52-26.09-4.38-38.6-1.18-1.39.34-2.11 0-2.41-1.47-2-7.76-2.18-16.67-8.49-22.43a6.62 6.62 0 01-1.33-3.22A144.41 144.41 0 0139 372.86c-1.91-63 2.6-126.93 26.19-186 13.61-35.43 24.56-73.32 48.07-103.67 27.32-18.2 60-23.76 90.46-34.78a3.16 3.16 0 012.72.43c5 5.55 11.46 8.41 18.56 9.67 19.19 2.43 41.29 5.55 58.65-4.88 2.85-1.27 4.2-6.53 7.87-5 29.12 10.49 61 14.41 87.44 31.58 15.94 14.59 21.63 38 30.45 57.21 27.81 67.48 58 137.39 51.05 212.08-1.19 18.65-.23 37.45-3.28 55.95-.49 4.66-5.21 7.1-5.56 11.78-1.22 5.28-2.08 10.65-2.91 16-.4 2.6-.41 2.83-3.08 2.33-12.48-2.66-25.26-5.49-37.8-1.58-8.34-.15-8.13-15.56-11.44-21.4-6.28-7.37-3.61-9-5.33-17.64-.9-9.7-4.68-20.27.79-29.26 2-3.53 1.86-7.05.51-10.66-4.9-11.28-7.4-23.41-10.45-35.29-1.07-4.3-1.31-8.49 1.61-12.34 1.51-7.23-10.43-8.68-10.93-15.93z" fill="#bfbfbf" stroke="#262521" stroke-miterlimit="10" stroke-width="3"/><path d="M124.35 309.43c.08-10 1-58.83-10.31-58.52-3.22.18-4-10.63-9.07-7.36-3.59 2.76-6.29 6.59-10 9.21-.66.5-1.46-.19-1.5-.86-.09-1.31-1.23-2.32-2.14-3.35-13.94 21.45-5.97 8.74-15.81-2.55-3.25 1.85-6.3 15-9.56 14-3.33-2.83-6.17-7.09-10.76-7.66-.62 5.71 3.08 11 2.61 16.81-1 2.37-5.6-.54-7.72-.39 2.62 3.77-1 13.91-2.53 15.58-2 0-3.83.51-5.76 0-3.43 40.28-5.8 81.66-.12 121.83.21 2.14 1.58 3.5 2.93 4.91 35.18-11.21 51.86-.79 57.66 3.48 1.25-2.53 4.38-4.38 4.3-7.51-1.07-8.1 0-16 1.54-23.93 1.19-8.37 4.89-16.87 4.38-25.31-1-3.31.12-6.43.37-9.58 1.26-11.18 6-24.61-5.15-32.56-5.69-6.88 9.44-5.51 11.81-16.18 1.35-2.86 2.87-5.63 4.29-8.46.28 6.04.45 12.19.54 18.4z" fill="#f9f9f9"/><path d="M40.27 397.93c13.64-19.65 10.73-43.54 12.52-66.07 1.7-10.2 7.78-18.92 9.88-29.06 2.67-10.25 6.07-16.77 17.59-11.62 13.91 2.94 5.5-16.08 13.33-21 6.2-4.13 15-2.73 18.67-10.53 1.29-1.73.64-8.59.41-9.08-1.15-2.36-1.37-11.58-2.49-10.84-1.59 1.05-13.16 11.45-15.26 13-.66.5-1.49-6.93-2.4-8-5.34 3.29-10.42 15.6-10.68 15-1.76-4.08-2.54-11.21-6.32-13.76-3.25 1.85-6.3 15-9.56 14-3.33-2.83-6.33-10.46-10.92-11-.62 5.72 3.24 12.91 2.77 18.68-.06.66-7.76-2.93-9.91-3.39-2.57 3.15 2.43 7.19 2.16 9.35-.34 4.08-.48 14.79-8.26 10.7-3.67 37.61-4.65 75.95-1.53 113.62zM373 225.94c1.3-10.46-2.21-21.09-2.15-31.68-3.62-13.7-10.24-27.75-8.12-42.51 1.52-11-4.55-51.84-8.83-60.5-4.34-9.17-52.9-33.15-56.49-22.92-15.39 43.57-68 53.76-96 10.3 2.31 3.58-6.93 5.05-9.15 8.87-2.56 3.64-15.61 22.69-19.77 28.51-48.06 18.54-26.51 100-49.7 89.22-2.86 26.92.21 53.87 1.06 80.87.29 9.81-1.46 113.56 3.59 152 89.26-4 192-6.84 240.56 4.9 8.54-71.9 1.1-144.83 5-217.06z" fill="#e5e5e5"/><path d="M149.22 401.16c8.48-14.38.44-29-3.64-43.23-4.19-30.27 2.18-58.1-22.07-82.17 2.64 19.72-1.82 114.81 3.9 162.3l8.53-.38c5.46-11.8 6.53-25.12 13.28-36.52zm217.3-89.76c1.77 19.67-7.45 37.24-12.91 55.53-4.5 24.24-6.54 53.32 7.86 74.61q3.39.68 6.5 1.42c6.83-51.3 3.25-103.51 3.74-155.2-4.15 7.24-5.32 15.43-5.19 23.64zm8.48-81.04c0 3.91.86 8-.24 11.74-6.53 22.4-1.5 35.32-.8 53 3.2 4.41 10.78 6.48 9.56 12.33-6.68 8.27 5.5 37.5 8.84 47.63 1.35 3.61 1.5 7.13-.51 10.66-5.47 9-1.69 19.56-.79 29.26 1.64 8.72-.8 10.61 5.57 18 18.43-4.69 38.38-8.43 55.92 1.21 1.81-100.27-74.44-175.94-77.55-183.83z" fill="#f9f9f9"/><path d="M439.05 280.91c-5.09-7.39-10.23-9.39-10.48-19.32-1.93-3.92-7.12-1.24-9.73-4.41-2.84-3.41-4-9.65-9.71-8.91-3.19 1.09-4.45 4.92-7.76 6-14.45 2.89-6-8.53-8.55-15-4.62-5.33-14.71-.94-17.86-8.83 0 4-.12 7.92-.24 11.88 7.27 4.83 10.79 13.15 16.2 19.7 5.2 5.62 11.75 10.29 14.78 17.6 6.84 13.17-.72 29.56 7.74 41.85 26.75 28.38 20.18 54.48 5.91 87.34 11.57-2.39 22.69.36 33.16 5.39 1.49-2.91 4.26-5.15 4.63-8.67 3.31-26.6-12.98-115.07-18.09-124.62z" fill="#e5e5e5"/><path d="M51.32 409.51S80 400 96.47 412m305.71 0s25.94-8.31 43.55 0" fill="none" stroke="#636363" stroke-linecap="round" stroke-linejoin="round"/><path d="M204.38 48.28s4 48.54 43.67 46.73S290.9 49.6 290.9 49.6" fill="none" stroke="#262521" stroke-linecap="round" stroke-linejoin="round" stroke-width="3"/><path d="M291.66 168.08c-9.38 1.59-19.5-2.2-28.31 1.41-14 7.73-22.15 23.16-32 35.34-2.7 2.94-3.1 6.61-3.09 10.41-2 8.67-8.35 16-14.9 21.72-12.48 8.64-27.47 19.12-19.43 36.21 6.95 22.69-7 47.71-.81 70.48 6.61 9 25.64 9.46 35.32 5.52 10.57-6.94 16.15-19.68 21.7-30.66 4.3-10.9 10.08-21.38 22.19-22.37 17.3-11.51 16-44.44 18.75-63.54.83-10.18 1.64-20.53-.52-30.51-1-4.69-2.69-9.6-1.18-14.16 2.2-5.1 10-13.91 2.16-17.56" fill="#f9f9f9"/><path d="M54.67 287.28c-2-5.75.5-13.61 1.58-19.37l-8.35-3.64s2.23 8.21 1.65 11c-.24 1.14-3.88 2.16-4.19 3.49-.37 1.59 4.45 5 4.11 5.77-.68 1.5-6.56 1.05-7.7 2.95-.2 4.84-3.05 64.69-3 73.44 1.3 1.69 3.87 1.06 5.61.52 11.58-4 9.7-14.89 9.63-24.22 1.93-11.47 1.73-14.05-2.69-24.55 3.91-12.67 12.07-8.5 3.35-25.39z" fill="#aaa"/><path d="M56.13 286.88c-2-6 .45-12.63 1.58-18.56a1.56 1.56 0 00-.7-1.72l-8.35-3.6a1.54 1.54 0 00-2.22 1.72 45.51 45.51 0 011.65 8.49 9.86 9.86 0 010 1.72c.07-.48.27-.19 0-.07a3.32 3.32 0 00-.41.28c-.46.3-.95.55-1.43.84-1.47.89-2.87 2.13-2.21 4 .56 1.6 2.07 2.85 3.22 4a7 7 0 00.74.8c-.13-.09.07.14.09.14.43.19-.21-1.3.26-1.26a5.26 5.26 0 00-.7.3c-.43.12-.88.21-1.32.29-1.71.33-3.72.5-5.11 1.66a2.82 2.82 0 00-1 2.34c-.48 11-1 22-1.5 33-.54 12.43-1.19 24.87-1.45 37.31 0 .69-.05 1.39 0 2.09.06 2.12 2.5 3 4.32 2.92a15.09 15.09 0 0011.2-6.37c2.2-3.19 2.77-7.2 2.89-11 .06-2 0-4-.07-6a27.67 27.67 0 010-3c.12-1.44.47-2.88.66-4.32a30.78 30.78 0 00-.38-12.28 56.08 56.08 0 00-2.37-6.66c-.13-.32-.32-.66-.42-1-.16-.6-.17.36-.05-.47a7.51 7.51 0 01.55-1.5 20.64 20.64 0 011.16-2.36c1.3-2.3 3.27-4.13 4.46-6.48 1.36-2.7 1-5.64 0-8.42a54.11 54.11 0 00-3.22-7.2c-.89-1.73-3.51-.2-2.62 1.53 1.46 2.85 3.09 5.91 3.58 9.12a5.46 5.46 0 01-.8 4.11c-1 1.55-2.17 2.82-3.2 4.37a23.13 23.13 0 00-1.72 3.07c-.58 1.25-1.72 3.23-1.29 4.6.57 1.75 1.43 3.43 2 5.17a34.36 34.36 0 011.25 4.32 25.94 25.94 0 01.17 8.25c-.21 1.86-.53 3.71-.82 5.56a24.94 24.94 0 000 4.49 47.88 47.88 0 01-.21 8.38 12.87 12.87 0 01-3.54 7.69 12.71 12.71 0 01-4.32 2.63c-1.34.51-3.55 1.35-4.67.07l.45 1.07c0-5.61.29-11.24.51-16.85.35-8.95.75-17.9 1.14-26.85Q42.46 305.62 43 294c.09-2 .26-4 .27-6a2 2 0 000-.35v-.14l-.22.75q.06-.17.15-.12a6.58 6.58 0 001.15-.44c.6-.16 1.22-.28 1.84-.39 1.59-.3 4.77-.64 4.81-2.86a3.93 3.93 0 00-1.45-2.45 24.25 24.25 0 01-2.34-2.52c-.08-.11-.23-.47-.34-.54-.34-.21.43.16 0 .28.34-.08.87-.62 1.19-.81a6.78 6.78 0 002.8-2.21 6.22 6.22 0 00.3-3.29c-.12-1.35-.34-2.69-.59-4-.33-1.69-.71-3.36-1.16-5l-2.23 1.71 8.35 3.64-.7-1.71c-1.28 6.45-3.83 13.58-1.62 20.13.61 1.84 3.54 1.05 2.92-.8zm55.92 61.81c2.09-14.64 4.85-22.44-6.33-34.13-1-6.53 8-8.5 10.84-13.37 9.89-14.25 4.59-36.85 2.94-53.1-21.86 14.59-11 31.57-23.22 46.84-1 3.22 1.64 6.49 3.55 9.62 8.61 10.05 2.73 40.55 12.22 44.14z" fill="#aaa"/><path d="M113.52 349.09c.88-6.18 2.44-12.58 1.83-18.85-.64-6.6-4.08-12-8.56-16.75l.44 1.07c-.52-4 3.35-6.07 6.1-8.11a17.58 17.58 0 004.27-4.07 33.49 33.49 0 003.39-6.33c3.92-9.73 3.22-20.83 2.1-31-.62-5.65-1.49-11.27-2.07-16.93-.11-1-1.24-2-2.28-1.31a38.2 38.2 0 00-10.87 10.55 34.45 34.45 0 00-4.47 10.8c-1.76 7.34-2 15.13-5.65 21.88a28.06 28.06 0 01-1.55 2.5 6.66 6.66 0 00-1.6 3.16c-.28 2.57 1 5 2.31 7.09 1 1.61 2.2 3.11 3.11 4.76a19.85 19.85 0 011.65 4.19c2 7 2.07 14.33 2.8 21.48a47.09 47.09 0 002 10.68c1 2.72 2.46 5.19 5.23 6.28 1.82.72 2.6-2.21.81-2.92a4.87 4.87 0 01-1.75-1.46 10.7 10.7 0 01-1.46-3 41.92 41.92 0 01-1.67-8.88c-.75-7-.9-14.1-2.46-21a23.25 23.25 0 00-3.34-8.31 37.24 37.24 0 01-3.5-5.6 5.14 5.14 0 01-.63-3.31 19.13 19.13 0 011.72-2.49c4.06-6.32 4.9-13.63 6.24-20.83a38.5 38.5 0 013.72-11.57 33.27 33.27 0 0110.94-11.41l-2.32-1.31c.79 7.77 2.11 15.47 2.64 23.26s.47 15.87-2.31 23.24a20 20 0 01-5.17 8.18c-2.21 1.9-4.89 3.28-6.83 5.49a8.35 8.35 0 00-2 3.74 7.27 7.27 0 00-.15 2.13c.1 1.25.85 1.85 1.65 2.75a26.35 26.35 0 015.58 9c2.4 7.21.25 15.14-.79 22.4a1.56 1.56 0 001.06 1.86 1.53 1.53 0 001.84-1.05zm40.79-225.43l-19 4c-.57 8.58 5.67 16.4 5.09 25.36.33 8.46-1.86 57.39-17.14 46.69-.82 21.16 11.93 41.19 9.41 62-2.37 10.33 7.23 10.87 9.7 1.18 3.8-15.22 1.4-31.31 3.56-46.85 4.35-29.91 27.44-63.65 8.38-92.38z" fill="#aaa"/><path d="M153.79 121.76l-19 3.95a2 2 0 00-1.45 1.91c-.26 4.8 1.36 9.34 2.88 13.82a48.63 48.63 0 011.94 6.89 30.51 30.51 0 01.29 5.14c0 4-.12 7.93-.4 11.88a141.37 141.37 0 01-2 16.47c-.92 4.86-2.08 10-4.44 14-.28.46-.57.91-.89 1.35-.18.25.3-.36 0 0l-.23.28c-.16.18-.32.36-.49.52s-.34.31-.51.47.28-.14-.23.16l-.54.32c-.49.29.14 0-.2.09l-.59.17c-.55.16.17 0-.2 0h-.62c-.38 0 .33.12-.25 0l-.67-.18-.34-.13c.24.09.19.1 0 0a11 11 0 01-1.52-.89c-1.29-.89-2.92.32-3 1.71-.58 16.7 6.86 32.09 9.16 48.37a53.69 53.69 0 01.42 12c-.25 3-1.15 6 .42 8.89a5.45 5.45 0 005.72 2.76 8.62 8.62 0 005.64-4.31c2-3.32 2.5-7.56 3-11.33a124.6 124.6 0 001-13.64c.25-9-.09-18.05 1.33-26.94 2.4-15 8.5-29.12 12.34-43.76 3.8-14.48 5.37-30-1.4-43.87a46.64 46.64 0 00-3-5.13c-1.38-2.11-4.8-.14-3.4 2a42.91 42.91 0 016.94 19.68 68.7 68.7 0 01-1.7 20.9c-3.12 14.31-8.87 27.89-12.23 42.14A113.34 113.34 0 00143 231c-.19 8.66 0 17.42-1.39 26-.49 3-.87 6.74-2.92 9.2a7 7 0 01-.88.87 5.16 5.16 0 01-.63.4.9.9 0 01-.43.18 5.29 5.29 0 01-.54.13c.38-.06-.13 0-.26 0s.22.07-.15 0l-.32-.1c-.28-.1.28.12 0 0s0 .07-.23-.14a3.41 3.41 0 01-.37-.39c.19.24-.13-.25-.16-.33s0-.05 0 0a4.68 4.68 0 01-.17-.53 7.61 7.61 0 010-3.36 44.63 44.63 0 00.33-11.66c-1.35-15.56-8.33-30.05-9.42-45.64a55.84 55.84 0 01-.1-5.93l-3 1.7c3.61 2.5 7.93 2.3 10.9-1.07 3.24-3.69 4.71-8.84 5.82-13.52a139.21 139.21 0 003.41-31.92 39.18 39.18 0 00-1.4-11.44c-1.55-5.18-4-10.27-3.72-15.8l-1.45 1.9 19-4c2.4-.55 1.35-4.31-1.13-3.79zm91.58-13.67c0 5.45 1.25 11.08.41 16.45-10.55 11.88-29.21 12.47-41.95 21.61-3.28 1.64-1.76 5.14 1.33 6.24 7.09 3.07 15 .8 22.75.35 33.69-2 14.89 35.14 12.69 37.25s-4.14 5-3.66 8c6.51 3.69 26.86-25.44 36.52-28.5 4.51-2.69 11.47-3.61 14.81 1.24 1.54 2.3 2 5.78 4.57 6.65 2.27.76 4.67-1.23 5.43-3.5 1.42-4.29-1.25-10.38 2.87-13.59 3.41-2.49 9.53 0 11.68-3.64 2.08-10-11.37-14.95-17.64-20.75-18.52-13.55-12.06-37.55-21.52-33.65-8.77 2.66-19.14 6.24-28.29 5.85" fill="#aaa"/><path d="M243.85 108.09c0 2.61.28 5.19.48 7.78.1 1.26.19 2.52.21 3.78a13.87 13.87 0 01-.15 4v.06c.11.11 0 .22-.2.32a4.74 4.74 0 01-.49.51c-.33.34-.67.66-1 1a25.6 25.6 0 01-2.12 1.78 37.66 37.66 0 01-4.88 3.11c-6.94 3.76-14.66 5.77-21.93 8.78a59.55 59.55 0 00-10.43 5.47c-1.47 1-2.84 2-2.88 4a5.3 5.3 0 002.32 4.23 14.72 14.72 0 006.14 2.26 30.79 30.79 0 006.92.35c4.68-.25 9.31-1.18 14-1.24s10.06.64 13.38 4.22c2.47 2.65 3.14 6.4 3 10a38.76 38.76 0 01-2.38 11.5 42.24 42.24 0 01-3.7 8c-.19.32-.39.63-.61.93.35-.48.11-.12 0 0a14.18 14.18 0 00-2.23 2.59 9.47 9.47 0 00-1.93 6.07c.11 1.49 1.1 2.08 2.46 2.21a8.22 8.22 0 004.82-1.49 37.87 37.87 0 005.61-4.34c4.49-4 8.58-8.46 12.84-12.72 3.49-3.5 7.17-7.53 11.63-9.82.91-.46 2-1 3.18-1.5a13.64 13.64 0 014.91-1.13 7.69 7.69 0 014.74 1.28c1.47 1.05 2.11 2.67 2.82 4.26a8.31 8.31 0 002.9 4 5.13 5.13 0 005.61-.23c3.42-2.35 3.4-6.37 3.33-10.08a11.2 11.2 0 01.61-5 4.48 4.48 0 013.75-2.38c3.17-.46 7.05.16 9.23-2.75.91-1.22.84-3.15.65-4.6a11.66 11.66 0 00-1.49-4.35 23.84 23.84 0 00-6.62-6.77c-5.49-4.13-11.57-7.53-16-12.9-4-4.88-6.2-10.86-7.79-16.9-.6-2.28-1.1-4.59-1.86-6.82a8.53 8.53 0 00-2.75-4.47c-1.54-1.08-3.21-.79-4.89-.23-4.53 1.5-9.16 2.88-13.8 4a51.63 51.63 0 01-13.88 1.73c-2-.07-2 3 0 3a55.48 55.48 0 0015.57-2.06c4.68-1.18 9.21-2.84 13.86-4.11l.55-.12c-.36.05.2 0 .28 0a1 1 0 01.46.14c.12.07.39.29.14.08a3.32 3.32 0 01.38.37c.21.24 0-.1.17.25.13.2.24.39.35.6a30.94 30.94 0 011.93 6.19c1.66 6.54 3.67 13 7.69 18.57 4.58 6.28 11.16 10.2 17.33 14.69 2.64 1.92 5.5 4.21 6.81 7.29.49 1.16 1 3.2.53 4.42s-2.91 1.37-4.12 1.45c-3.9.25-7.81.73-9.43 4.86a15.06 15.06 0 00-.68 5.74c0 1.83.26 3.89-.45 5.63s-2.83 3.35-4.38 1.65c-1.19-1.32-1.59-3.27-2.45-4.79-2-3.56-6.11-5.06-10.06-4.66a17.57 17.57 0 00-5.76 1.62c-1.09.5-2.21 1-3.27 1.57a35.56 35.56 0 00-6.27 4.73c-4.93 4.39-9.39 9.29-14.07 13.93a87.63 87.63 0 01-6.67 6.11 15.47 15.47 0 01-5 2.93c-.27.07-.42.07-.27.06h-.51c-.23 0 .23.08-.13 0s.16.12-.22-.08l.75 1.31c-.49-3.95 3.06-6.15 4.79-9.27a51.92 51.92 0 003.4-7.62c2.25-6.21 4-13.84 1.56-20.25-3.55-9.23-14.15-10.25-22.74-9.42-4.14.4-8.28 1.13-12.46 1a20.3 20.3 0 01-6-1c-1.22-.4-3.06-1-3.44-2.4-.34-1.26 1.49-2 2.34-2.51a42.82 42.82 0 014.31-2.47 85.79 85.79 0 019.12-3.84c6.31-2.32 12.81-4.35 18.69-7.68a35.43 35.43 0 007.85-5.92 4 4 0 001.43-2.17 21.23 21.23 0 00.27-3.19 63.25 63.25 0 00-.31-6.6c-.19-2.2-.37-4.39-.38-6.6a1.52 1.52 0 00-3 0zm81.34-34.02c20.86-4 59.27 9.59 49.33 36.45-3.6 6.16-8.86 11.2-10 18.14-3.95 1.2-7.08-4.45-7.29-7.91 1.51-10-7.46-6.68-8-14.53-.81-4.31-.54-9-2.39-13-3-4.06-8.12-6.78-12.81-8.44-5.61-.36-14.27-3.54-9.41-10.16" fill="#aaa"/><path d="M325.59 75.54a47 47 0 0115.88 0 58 58 0 0116.66 5.14c9.3 4.59 17.88 12.91 16.29 24.16a18.36 18.36 0 01-1.26 5 39.07 39.07 0 01-4 5.93c-2.69 3.82-5.31 7.81-6.14 12.5l1.06-1.06c-2.29.6-3.95-2.06-4.7-3.85a6.44 6.44 0 01-.58-3.31 11.18 11.18 0 00-.15-3.56 7.69 7.69 0 00-3.08-4.5 28.91 28.91 0 01-3.52-2.54c-1.53-1.58-1.54-4.14-1.77-6.19-.37-3.4-.53-6.89-1.84-10.09-1.13-2.75-4.2-4.9-6.64-6.42s-5.61-3.26-8.59-3.59a14.87 14.87 0 01-6.88-2.31c-2.16-1.55-1.86-3.49-.44-5.5 1.13-1.6-1.5-3.11-2.62-1.53-1.47 2.07-2.23 4.66-1 7 1.21 2.18 3.54 3.4 5.73 4.18a19.56 19.56 0 003.61.94c.62.11 1.27.14 1.89.25a10 10 0 012.07.73 25.8 25.8 0 018.71 5.57 6.53 6.53 0 011.42 1.85 13.64 13.64 0 01.82 2.87c.38 1.84.52 3.72.72 5.59.27 2.56.33 5.61 1.89 7.79 1.91 2.66 6.18 3.46 6.69 7 .21 1.5-.22 2.95.05 4.44a12.83 12.83 0 001.59 4.13c1.57 2.63 4.25 4.78 7.46 3.93a1.49 1.49 0 001.06-1.06c.77-4.38 3.2-8 5.72-11.61 1.27-1.8 2.56-3.59 3.71-5.47a15.69 15.69 0 001.7-5 22.4 22.4 0 00-2.74-16.41c-6.24-10.17-18.8-15.46-30.06-17.61a52.58 52.58 0 00-19.53-.39c-1.91.36-1.1 3.28.81 2.93z" fill="#aaa"/><path d="M322.72 173.06c.4-6.19-5-11.06-7.26-16.84-7.57-22 9.56-10.55 16.7-1.34 20.85 28 27.62 65.56 18.06 98.21-2.11 7.41-2.61 15.55-5.8 22.55-3.33 2.91-5.85 6.11-6.87 10.56-3.55 8.8-12.71 13.8-21.3 17.8-9.29 1.39-6.57-13.93-5.24-19.5 0-16 3.65-31.12 8.25-46.41 4.25-21.54-3.4-43.5-11.66-63.85-4.79-8.08 1.92-17.05 9.39-8.38 2 2.51 3.48 5.62 6.22 7.31" fill="#c6c6c6"/><path d="M323.93 173.06c.31-6.8-5.22-11.38-7.37-17.36a26.54 26.54 0 01-1.77-7.65 6.1 6.1 0 01.21-2.17 1.81 1.81 0 01.54-.86 1.39 1.39 0 011.07-.26 5.47 5.47 0 011.59.32 16.89 16.89 0 014.25 2.27 39.61 39.61 0 018.46 7.89 95.11 95.11 0 0110.64 17.31 114.45 114.45 0 0111.27 60.32A110.71 110.71 0 01349 253c-1 3.62-1.64 7.33-2.39 11-.39 1.87-.8 3.74-1.31 5.59-.24.84-.49 1.68-.77 2.51a9.62 9.62 0 01-1.26 3c-1 1.25-2.35 2.25-3.36 3.55a18.59 18.59 0 00-2.37 3.88c-.68 1.51-1 3.14-1.71 4.62a20.77 20.77 0 01-2.56 4c-4.1 5-9.91 8.18-15.61 10.95a5 5 0 01-3.17.86 3.35 3.35 0 01-1.88-.9c-1.22-1.18-1.58-3.12-1.72-4.73a39.55 39.55 0 011.17-11.91 27.9 27.9 0 00.24-4.84q.12-3 .4-6.09c.37-4.07 1-8.11 1.71-12.13 1.49-7.92 3.7-15.63 5.88-23.38a48.45 48.45 0 001.37-11.58 79.56 79.56 0 00-.62-11.95 124.24 124.24 0 00-5.5-23.31c-1.25-3.82-2.63-7.6-4.08-11.35q-1.11-2.85-2.25-5.68a26.82 26.82 0 01-1.84-4.67c-.44-2.15-.09-5.12 2-6.37 2.6-1.55 5.6 1.22 7.07 3.12 1.95 2.53 3.43 5.35 6.18 7.13 1.31.85 2.53-1.24 1.22-2.09-3.12-2-4.43-5.76-7.07-8.27-2-1.87-4.79-3.4-7.57-2.46a6.89 6.89 0 00-4.25 5.6 10.84 10.84 0 00.18 4.32 36 36 0 002 5c6.34 15.76 12.26 32.4 12.12 49.61 0 4.11-.19 8.59-1.37 12.54-1.23 4.13-2.41 8.28-3.45 12.47a151.69 151.69 0 00-4.28 24.86c-.27 3.34 0 6.81-.69 10.08a56.57 56.57 0 00-1 6.48c-.31 3.77-.44 9.11 2.86 11.72a5.94 5.94 0 006.17.67 84.69 84.69 0 009-4.8c5.68-3.58 10.54-8.26 12.59-14.78 1.08-3.43 3.34-6 5.9-8.42 1.22-1.16 1.73-3.5 2.22-5.08.59-1.89 1.05-3.82 1.47-5.75.85-4 1.48-8 2.55-11.89.95-3.53 1.89-7 2.56-10.64a115.81 115.81 0 00-16.64-83.48 54.41 54.41 0 00-9.84-11.85c-2.65-2.29-5.89-4.89-9.42-5.58a4.62 4.62 0 00-3.86.66 5.24 5.24 0 00-1.65 4.07c-.22 6.11 2.93 11.73 6 16.74 1.71 2.8 3.3 5.73 3.15 9.1-.08 1.56 2.34 1.55 2.42 0zm-94.53 34.45c3.55 17.5-8 37.72-27.64 34.61 19.56-8.34 20.61-13.09 25-33 .4-1.12 1.46-2.47 2.5-1.87" fill="#c6c6c6"/><path d="M228.23 207.83c2.39 12.06-2.63 27.29-14.9 32a22 22 0 01-11.25 1.17l.29 2.21c5.77-2.46 11.93-5.18 16.34-9.79 3.6-3.75 5.44-8.61 6.77-13.55.49-1.79.91-3.59 1.33-5.4.2-.88 1-6.45 2.12-6 1.44.59 2.07-1.76.64-2.34-2-.82-3.63 1.36-4.07 3.08-.47 1.88-.83 3.8-1.27 5.7a75.48 75.48 0 01-2.57 9.07 22.86 22.86 0 01-9.4 11.56 74 74 0 01-11.11 5.59 1.22 1.22 0 00.29 2.22 24 24 0 0019.89-5.62 30.9 30.9 0 009.49-18.29 35.4 35.4 0 00-.25-12.19c-.3-1.53-2.64-.88-2.34.64zm34.56 76.58c-6.82-1.93-17.48-10.85-23.8-5.64-4.18 2.66-14.22-.76-13.88 6.8.8 7.26 44.27 8.74 37.37-.47" fill="#c6c6c6"/><path d="M263.12 283.24c-4.46-1.3-8.41-4-12.71-5.75a18.61 18.61 0 00-6.56-1.54 9.45 9.45 0 00-2.75.36 12.58 12.58 0 00-2.88 1.52 10.8 10.8 0 01-4.55 1 28.58 28.58 0 00-5.22.67c-2.94.79-5.53 3.73-4.35 7 .68 1.89 2.84 2.87 4.57 3.55a36.53 36.53 0 007.91 1.92 66.46 66.46 0 0019.41.23c2.39-.36 5.17-.88 7.07-2.49a3.64 3.64 0 00.46-5.17c-.91-1.25-3 0-2.09 1.22.12.16.23.33.34.5s.09.17.13.25-.12-.25 0 0 .11.2.09.66c0-.34 0 .07-.07.17.15-.31-.05.07-.09.13s.08-.09-.13.15c-.06.07-.45.4-.28.28a12.11 12.11 0 01-5.26 1.79 60.37 60.37 0 01-17 .16 47.18 47.18 0 01-7.81-1.48 11.33 11.33 0 01-4.7-2.26c-.23-.24-.12-.09-.34-.51.15.28 0-.08 0-.18v-.14a5.26 5.26 0 01.05-.89 3.06 3.06 0 012.31-2.45c3-1 6.32-.4 9.34-1.4 1.79-.59 3-2 5-2.13a14.49 14.49 0 016.44 1.3c4.43 1.73 8.44 4.53 13 5.87a1.21 1.21 0 00.65-2.33zm-71.47-16.59c10.39 4.06 4.06 11.36 5.63 18.25 1.9 2.9 5.94 5 3.72 8.9-6.68 17.64 9.42 8.64 8.52 19.49-.56 2.56-3.84 9.11-6.9 6-3.86-3.33-10.16.4-9.11 5.38.34 1.81 1.57 3.51 1.27 5.32-6.86 11.9-1.45 15.35-4.38 21.15-2.44 1.5-4.63-1.29-6-3-6.53-6.05-17.34-7-22-15.5-4.92-6.51-1.43-13.92-1.17-21 5.29-6.57 11.23 7 22.29-6.44 17.57-15.67.69-20 7.81-38.25" fill="#c6c6c6"/><path d="M191.32 267.82c2.64 1.06 5 2.76 5.22 5.79.19 2.47-.49 4.93-.68 7.38a12.83 12.83 0 00.2 4c.33 1.38 1.79 2.55 2.7 3.58s1.94 2.21 1.61 3.64a23 23 0 01-.93 2.38c-.25.73-.49 1.48-.68 2.23-.95 3.63-1 7.73 2.61 9.81 2.13 1.23 5.37 1.5 6.51 3.62a5.49 5.49 0 01-.29 4.92 9 9 0 01-2.25 3.28c-1.14.91-1.58.11-2.59-.57a6.91 6.91 0 00-10.27 7.7c.25.9.66 1.75.92 2.65a3 3 0 01.21 1.39 7.66 7.66 0 01-.78 1.43 30.28 30.28 0 00-2.06 5 21 21 0 00-.82 7.61 16.85 16.85 0 01-.08 5.58c-.08.29-.22.95-.42 1.1-.53.38-1.56-.28-2-.62-1.26-1-2.09-2.37-3.33-3.36-4.95-4-11.3-5.55-16.34-9.36a16.77 16.77 0 01-3.36-3.37 18.92 18.92 0 01-2.82-5c-1.18-3.67-.44-7.57.16-11.28a49.05 49.05 0 00.66-5.66l-.35.86a3.55 3.55 0 013.48-1.51c1.58.22 3.08.89 4.62 1.25 5 1.18 9.34-.95 12.81-4.61 3.78-4 8.44-7.85 9.7-13.48.84-3.73-.17-7.36-1-11a29.88 29.88 0 01-1-6.85 24.64 24.64 0 011.82-9.05c.55-1.46-1.79-2.09-2.34-.65a26.18 26.18 0 00-1.68 12.8c.42 3.26 1.55 6.37 2 9.62a13 13 0 01-2.36 9.38c-1.64 2.4-3.85 4.17-5.76 6.3-1.72 1.91-3.53 3.83-5.94 4.84-3.07 1.29-5.89.22-8.9-.61a8.11 8.11 0 00-4-.28c-1.24.31-3 1.36-3.45 2.65a8.51 8.51 0 00-.15 1.9c-.07.75-.18 1.5-.29 2.25-.23 1.52-.5 3-.71 4.56a22.74 22.74 0 00.06 8.06 19.27 19.27 0 003.86 7.37 20.88 20.88 0 005.08 4.52c4 2.59 8.5 4.14 12.51 6.66a18.54 18.54 0 012.74 2c.92.86 1.61 1.93 2.58 2.74 1.46 1.22 4.6 2.35 5.81.15 1.5-2.73.88-5.86.77-8.8a18.16 18.16 0 01.69-5.77 23.46 23.46 0 011.33-3.53c.64-1.36 1.74-2.66 1.69-4.22-.08-2.46-2.17-4.7-1.11-7.18a4.77 4.77 0 014.57-2.8c2 .13 3.07 2.27 5.17 2.07 1.9-.19 3.28-1.91 4.21-3.42 1.64-2.64 2.73-6 1.06-8.93-1.11-1.94-3.22-2.75-5.2-3.49-1.72-.65-3.45-1.31-4-3.15a9 9 0 01.22-4.43 21.93 21.93 0 011.05-3.37 6.65 6.65 0 00.78-3.45c-.26-2.17-1.92-3.74-3.3-5.28a3.79 3.79 0 01-1.27-2.75 18.29 18.29 0 01.13-3c.4-3.56 1.45-7.5-.82-10.68a12.07 12.07 0 00-5.58-3.88c-1.45-.58-2.08 1.76-.65 2.33zm91.94 38.61c-1.42-.95-2.23-2.57-3.4-3.83-4.74-4.48-7.51 1.31-3.81 5.49a61.32 61.32 0 0110.78 37c.84 10.54-22.81 9.73-30.42 13-10.05 3.18-23.69-29.22-41.58-17.52-11.55 12.15 1.79 30.53 8.32 42.23 2.31 16.81-4.83 35.79 2.48 51.79 25.78-2.27 71.18.68 72.44-2.12 3.93-8.5 4.37-18.22 6.42-27.2 6.8-22 25.4-40.87 30.78-62.93-.44-5.74-5.85-9.74-8.16-15-2.84-6.5-1.33-15.45-7.15-19.52-5.12 8.72-9.89 28.16-23.52 22.31-5.69-6.86-8-16.27-12.35-24.08" fill="#c6c6c6"/><path d="M283.87 305.39c-2.1-1.53-2.92-4.14-5.45-5.23a3.62 3.62 0 00-4.31.81c-3.12 3.68 1.41 8.3 3.2 11.32a60.31 60.31 0 018.34 32 7.05 7.05 0 01-.66 3.77 7.28 7.28 0 01-2.54 2.33 28.64 28.64 0 01-8.9 3c-3.39.72-6.83 1.2-10.25 1.79-1.48.26-3 .53-4.41.89-1.11.27-2.18.79-3.28 1-1.69.34-3.67-.77-5.2-1.83a52.67 52.67 0 01-6.33-5.53c-4.53-4.35-9.17-9.13-15.08-11.58a15 15 0 00-13.35.56 11.12 11.12 0 00-4.35 4.61c-4.49 7.93-1.36 17.37 2.31 24.95 2 4.11 4.34 8 6.64 12 .48.81.95 1.62 1.41 2.44a8.16 8.16 0 01.62 3.48 76.82 76.82 0 01.05 8.45c-.47 11-2.57 22.22-.23 33.16a38.25 38.25 0 002.48 7.49 1.19 1.19 0 001 .6c13.65-1.2 27.43-1 41.13-.9 6.2 0 12.4.12 18.59.05a63.29 63.29 0 0011.43-.65 3 3 0 002.52-1.63 56.65 56.65 0 003.81-13.09c.85-4.51 1.4-9.1 2.45-13.57a57.81 57.81 0 014.5-11.46c7.26-15.05 17.88-28.36 23.89-44a65.07 65.07 0 001.93-5.77 8.33 8.33 0 00.56-2.76 10 10 0 00-.6-2.71c-1.26-3.55-3.86-6.33-5.91-9.41a24.69 24.69 0 01-3.49-10c-.55-3.24-1-6.64-2.65-9.55a11.3 11.3 0 00-3.21-3.53 1.22 1.22 0 00-1.66.43c-3.44 5.92-5.36 12.75-9.69 18.15-1.84 2.29-4.28 4.38-7.33 4.61-1.44.11-3.81-.07-4.86-1a14.29 14.29 0 01-2.15-3.06c-.75-1.22-1.44-2.48-2.08-3.75-2.76-5.48-4.72-11.33-7.67-16.71-.75-1.37-2.84-.15-2.09 1.22 2.82 5.14 4.73 10.71 7.3 16a42.82 42.82 0 004.53 7.48 4.72 4.72 0 002.63 1.71 13.32 13.32 0 002.93.57c7.65.6 12.23-7 15.18-12.91 1.83-3.66 3.33-7.51 5.39-11.05l-1.66.44c2.67 1.93 3.57 5.21 4.17 8.28.64 3.31.94 6.74 2.18 9.9 1.33 3.41 3.74 6.13 5.77 9.13a15.53 15.53 0 012.34 4.76c.48 1.87-.42 3.84-1 5.62-5.06 15.47-15.3 28.56-22.82 42.82a105 105 0 00-5 10.71 38.22 38.22 0 00-1.9 5.74c-.47 2.16-.85 4.35-1.22 6.53a127.53 127.53 0 01-2.61 13.13c-.27 1-.57 2-.91 3a28.59 28.59 0 00-1.3 3.26c.05.06.18-.33.17-.17s-.45.13 0 0l-.27.1c-2.88.75-6.35.67-9.51.72-5.68.11-11.36.05-17 0-13.45-.09-26.93-.3-40.36.54l-4.41.33 1 .6c-4.52-10.07-3.25-21.44-2.4-32.11a104.11 104.11 0 00.4-16.18 11.57 11.57 0 00-.55-3.63 27.72 27.72 0 00-1.45-2.54c-1.08-1.84-2.18-3.68-3.24-5.54a80.16 80.16 0 01-6-12.28c-1.41-3.91-2.43-8.22-1.72-12.38a14.85 14.85 0 012.2-5.67 8.64 8.64 0 014.33-3.53 12.48 12.48 0 018.31-.32c5.81 1.74 10.43 6.42 14.68 10.51 2.08 2 4.12 4 6.38 5.82a14.48 14.48 0 006 3.24c2.28.45 4.19-.6 6.36-1.11 3.07-.72 6.21-1.14 9.31-1.66a68.58 68.58 0 009.84-2.19c2.57-.83 5.35-2 7.16-4.07 2.22-2.57 1.9-5.89 1.82-9.09a62.69 62.69 0 00-8.89-30.59 38.4 38.4 0 00-2.18-3.35 6.15 6.15 0 01-1.4-2.76c-.22-1.32.29-2.88 1.87-2.22 2.25.94 3.24 3.7 5.18 5.11 1.26.92 2.47-1.18 1.22-2.09z" fill="#c6c6c6"/><path d="M459.93 337.71c-3.58-8.43-7.57-17.6-14-24.29-14-7.54-3.15-13.88-6.3-24.24-2.93-5.87-10.91 7.21-11.51-3.94.73-3.44-.14-6.25-2.92-8.37-3.1-4-5.58-17.82-11-13.95-2.47-17.53-17.1-6.86-7.55 8.07 3.1 3 4.81-.53 6.84-2.43 8.7-2.45.65 16.89 10.41 27.19 6.73 5.82-9.23 19 13.81 29.87 2.41.8 10.15 13.48 1.3 20-1.41 10.38 8.58 19.53 11.39 29.38 2.65 7.46 3.18 16 6.05 23.15.07-2.6 3.03-42.88 3.48-60.44z" fill="#aaa"/><path d="M461.23 337a139.55 139.55 0 00-6.73-14.27 56.21 56.21 0 00-4.31-6.6c-.74-1-1.51-1.92-2.33-2.83a15.16 15.16 0 00-3.3-2.42c-2.74-1.8-4.69-4.1-4.42-7.5.23-3 1.35-5.79 1.59-8.76.22-2.79.06-7.31-3.18-8.33-2.32-.73-4.57.91-6.6 1.79a6.18 6.18 0 01-1.14.36c-.16 0-.22.12-.48-.1.13.11 0 0-.08-.18a4.77 4.77 0 01-.26-.66 6.92 6.92 0 01-.19-3 9.19 9.19 0 00-1.28-6.31 15.08 15.08 0 00-2.09-2.2 7.07 7.07 0 01-1-1.72c-1.93-3.83-5.27-17.21-12-12.64l2.22.91c-.44-3-1.32-6.52-3.68-8.68a5.19 5.19 0 00-5.94-1c-5.11 2.57-4.61 10.14-2.88 14.56.73 1.89 1.64 4.18 3.34 5.38a4.1 4.1 0 004.85 0 10.81 10.81 0 001.78-1.67l.81-.91a4.37 4.37 0 01.42-.44c-.44.36-.15.05.11.06.64 0 .93-.13 1.27.42-.14-.23.14.27.18.35s.07.17.14.38a10.12 10.12 0 01.37 1.63 36.78 36.78 0 01.3 3.78 67.39 67.39 0 001 10 21.6 21.6 0 004.43 9.62c.39.48.87.88 1.26 1.36 0 0 .45.8.42.73a4.73 4.73 0 01.33 2.26c-.09 4.36-1.73 8.74-.57 13.3a16.08 16.08 0 004.72 7.61 29.38 29.38 0 005.07 3.72c1 .59 2 1.15 3.11 1.65.24.12.54.23.78.36-.39-.22-.17-.08-.11 0 .33.22-.06-.11.28.2a14.13 14.13 0 013.54 6.25c.9 3 1 6.31-.91 8.94a12.58 12.58 0 01-1.85 1.87c-.9.8-.87 1.94-.89 3.09a19.77 19.77 0 00.9 6c1.23 4.07 3.43 7.76 5.55 11.41a60 60 0 015.55 11.91c1.55 4.83 2.31 9.87 3.47 14.79a53 53 0 002.15 7.11 1.52 1.52 0 003-.4c.18-5.58.72-11.17 1.09-16.74.65-9.87 1.28-19.74 1.8-29.62.24-4.7.47-9.4.59-14.11.05-1.95-3-1.95-3 0-.47 18-1.88 36-3.08 54-.14 2.15-.33 4.31-.4 6.47l3-.41a71.28 71.28 0 01-3.15-11.69 118.3 118.3 0 00-2.94-11.62c-2.09-6.56-6.3-12-9.2-18.2a19.43 19.43 0 01-2.09-10.65l-.75 1.31c4.57-3.47 5.78-8.86 4.15-14.24a19.51 19.51 0 00-2.89-5.92 10.58 10.58 0 00-1.63-1.84 16.94 16.94 0 00-3-1.64c-4.46-2.38-9-5.75-10-11-.68-3.4.26-6.76.68-10.12a11.06 11.06 0 00-.16-4.4c-.52-1.83-1.86-2.82-2.95-4.28-3.24-4.28-3.82-9.85-4.1-15a66.17 66.17 0 00-.51-6.6 6.31 6.31 0 00-2.15-4.31 4.23 4.23 0 00-5.1.24c-.85.84-1.56 2.09-2.63 2.66-1.32.71-2.15-1.22-2.64-2.15-1.72-3.34-3.09-8.76-.43-11.88.13-.15.56-.56.52-.52a2.71 2.71 0 01.68-.41 1.55 1.55 0 011.36 0c1.19.39 2.25 2.18 2.78 3.64a21.85 21.85 0 011 4.23 1.52 1.52 0 002.23.9 2.37 2.37 0 011.1-.47 1.48 1.48 0 01.78.33 9.08 9.08 0 012.21 3.16c1.42 2.81 2.37 5.83 3.79 8.63a12.56 12.56 0 00.86 1.47c.62.89 1.57 1.44 2.19 2.35a5.73 5.73 0 011 2.65c.11 1.1-.22 2.16-.19 3.24.08 2.58 1.09 6.06 4.27 5.83 2.19-.16 4-1.77 5.95-2.25a1.35 1.35 0 01.73 0 1 1 0 01.64.63 10.15 10.15 0 01.45 4.68c-.21 2.94-1.3 5.74-1.58 8.67a9.75 9.75 0 003.06 8.1c1.88 1.83 4.37 2.82 6.08 4.8a47.93 47.93 0 014.89 6.94 128.84 128.84 0 017.47 15.53 1.52 1.52 0 002.07.54 1.54 1.54 0 00.43-2.11z" fill="#aaa"/><path d="M197.91 72.16c-2.57 11.1-13.53 5.19-14.52 19.32.37 2.34 3.19 4.84 1.55 7.22-1.31 1.71-4 .7-6.12 1s-3.95 2-6.11 2c-.93 0-2-.33-2.67.35-.64 4.71-2.67 4-5.15 7.27-1.78 3.6 4.77 9.32-.45 11.56-5.51.14-5.07-11.15-9.38-12.32-3.28 5.51-2.6 13.36-6.72 18.4-5.46-1.58-2.83-13.77-.65-17.74-6.92-1.89-6.29 9.77-12.24 11.44-1.68.91-3.75 1.59-4.52 3.35-.31 7.31.56 15.1-3.25 21.9 2.23 1.21 3.89-1.46 4.61-3.27 2.82-5.46 8.86-11.14 15.25-10.94 2.51 3.24-2.31 12.82 1 15.22 2.92-1.35 2.85-5.81 3.2-8.7-.13-4.93 2-12.7 8.27-11.41 1.62.55 4 2.31 5.37.44 1.16-7.89 11.43-4.54 16.51-8 1.91-2.91-1.08-6.81.23-9.86 1.49-4.07 7.48-4.16 10.3-7.45 2.47-2.87 2.08-7.72 5.14-10 12.22-3.87 4.59-11.94.39-19.79" fill="#797a7a"/><path d="M196.7 71.83a9.32 9.32 0 01-4 6c-1.82 1.18-3.89 1.94-5.64 3.24a11.46 11.46 0 00-4.26 6.35c-.47 1.72-.93 3.77-.28 5.48.49 1.27 2.44 3.66 1.46 5s-3.83.38-5.13.52c-2 .24-3.71 1.77-5.73 2a14.08 14.08 0 00-2.83 0c-1.09.33-1.36 1-1.57 2a5.32 5.32 0 01-2.14 3.38c-1.17 1-2.65 2.07-3.06 3.59a6.89 6.89 0 00.35 4 27.56 27.56 0 011.36 4 2.34 2.34 0 01-.08 1.31 1.56 1.56 0 01-.46.53 1.53 1.53 0 01-.44.27c-.26.11.17.06-.2 0-2.34-.25-3.29-4.14-4-5.91-.91-2.42-1.93-5.52-4.68-6.36a1.27 1.27 0 00-1.41.58 31.73 31.73 0 00-3 9.12c-.71 3.13-1.44 6.45-3.47 9l1.22-.32c-2.66-.84-2.43-5-2.25-7.18a23 23 0 012.35-8.72A1.27 1.27 0 00148 108c-5.63-1.42-7.34 4.32-9.53 8.16a8.41 8.41 0 01-2.07 2.62 31.59 31.59 0 01-3.77 1.89c-1.46.81-2.9 2-3 3.74-.12 2.1-.07 4.21-.1 6.3-.09 5-.51 10.07-3 14.56a1.26 1.26 0 00.45 1.71 3.9 3.9 0 005-1.41 15.34 15.34 0 001.48-2.62 19.56 19.56 0 011.93-3c2.86-3.74 7.16-7.08 12.07-7l-1.08-.62a5.06 5.06 0 01.54 3.36c-.11 1.55-.41 3.07-.63 4.6-.34 2.36-.92 5.8 1.24 7.52a1.34 1.34 0 001.52.2c3.46-1.77 3.81-6.86 3.82-10.29 0-3.05.74-7.33 3.5-9.15 1.67-1.1 3.23-.52 4.9.18s4.44 1 5.22-1.32c.54-1.59.85-2.76 2.44-3.61a13.38 13.38 0 014.49-1.18c1.68-.24 3.37-.39 5-.75 1.39-.3 3.5-.8 4.4-2 2.72-3.63-2.18-8.71 1.66-11.85 3-2.46 7.21-2.74 9.45-6.25 1.13-1.77 1.55-3.88 2.27-5.83a6.23 6.23 0 011.49-2.56c.79-.7 2.09-.91 3.06-1.4 3.62-1.84 5.28-5.16 4.12-9.1-1.21-4.1-4-7.61-6-11.33-.77-1.42-2.93-.15-2.17 1.27 1.76 3.25 4.08 6.29 5.41 9.75a6.69 6.69 0 01.53 4 5.67 5.67 0 01-3.32 3.29 13.67 13.67 0 00-3.06 1.39 7.68 7.68 0 00-1.8 2.36c-.92 1.83-1.26 3.86-2.09 5.72-1.69 3.8-6 4.19-9.09 6.43a6.76 6.76 0 00-2.84 4.51c-.3 2.2.67 4.26.69 6.43 0 1-.08 1.51-.85 1.9a9.65 9.65 0 01-2.16.73 47.14 47.14 0 01-4.88.76c-3 .42-6.39 1.09-8.18 3.86a8.11 8.11 0 00-.91 2.19c-.12.41 0 .56-.47.64a3 3 0 01-1.48-.37 11.46 11.46 0 00-2.62-1 6.86 6.86 0 00-2.85.16c-3.85 1.09-5.59 5.42-6.14 9-.3 1.88-.28 3.79-.48 5.69s-.42 4.47-2.36 5.46l1.52.2c-1.48-1.18-.75-4.08-.51-5.66.36-2.39 1-4.92.53-7.34-.17-1-.61-2.35-1.7-2.57a9.9 9.9 0 00-4.83.75 20.39 20.39 0 00-8.3 5.9 22.38 22.38 0 00-3.29 4.73c-.49 1-1.45 3.69-3 3l.45 1.71a28.22 28.22 0 003.13-11.6c.15-2 .18-3.94.2-5.91v-2.94c0-.94-.14-1.72.55-2.39a14 14 0 014-2.18 7.38 7.38 0 002.54-2 33.12 33.12 0 003.36-5.91c1-2 2.28-3.81 4.75-3.18l-.75-1.84a25.85 25.85 0 00-2.74 10.81c-.15 3.35.47 7.6 4.14 8.77a1.24 1.24 0 001.22-.32c4.32-5.46 3.53-12.81 6.91-18.66l-1.41.58c2 .61 2.72 4.11 3.36 5.78.85 2.24 1.86 5 4.16 6.1a3.52 3.52 0 004.07-.44 4.05 4.05 0 001.41-3.59 16 16 0 00-1.21-4.07c-.37-1-1.09-2.6-.51-3.64.73-1.31 2.34-2.06 3.35-3.13a6 6 0 001.15-1.69 7.9 7.9 0 00.43-1.18 4.2 4.2 0 01.17-.7c.36-.66-.22-.23.51-.34.46-.07 1 .1 1.47.07a6.3 6.3 0 001.43-.25 28.58 28.58 0 003-1.26c1.94-.82 3.83-.19 5.83-.49a3.79 3.79 0 003.37-3.45c.17-2-1.15-3.6-1.83-5.38-.57-1.49.17-3.78.73-5.21a8.4 8.4 0 012.1-3.11c1.82-1.7 4.28-2.47 6.34-3.82a11.87 11.87 0 005.1-7.43c.37-1.57-2-2.24-2.42-.67zM246.85 107c-.13 3.72-1.35 7.66-.87 11.3 4 1.68 4.7-7.44 5-10.11-.57 3.6.34 9.32 5 9.12 2.65-.3 4-3.43 6.5-4.46 3.35-1.39 7 1.31 10.36.59s3.54-3.69 2.24-6.16c-.29-2.2 2.29-3.72 2.81-5.88" fill="#797a7a"/><path d="M245.64 107c-.18 3.78-1.3 7.5-.87 11.3a1.31 1.31 0 00.89 1.17c5.51 2.12 6.18-8.12 6.56-11.28.16-1.34-2.18-1.67-2.38-.32-.39 2.69-.26 5.84 1.32 8.18a5.24 5.24 0 007.52 1.4c1.36-1 2.36-2.45 3.82-3.27 1.86-1 4-.28 6 .16 3.06.69 7.48.71 8.39-3.11a5.69 5.69 0 000-2.43c-.13-.69-.66-1.49-.61-2.1.07-.88.94-1.75 1.43-2.42a8.34 8.34 0 001.35-2.55 1.22 1.22 0 00-2.34-.65c-.4 1.37-1.52 2.35-2.2 3.57a4 4 0 00-.23 3.79c.38 1 .55 2.39-.34 3.2-1.2 1.1-3.22.72-4.63.41-3.14-.7-6.18-1.47-8.94.68-1.74 1.36-3.9 4.7-6.41 2.83-2-1.46-2.09-4.86-1.77-7.05l-2.38-.32c-.2 1.66-.72 10-3.5 8.94l.89 1.17c-.43-3.8.69-7.52.87-11.3.08-1.56-2.34-1.55-2.42 0zm54.9-41.94c6.18-.29 36.39-2.62 36 5.81-4 6.29 7.55 2.64 10.69 3.38a9.62 9.62 0 017.82 2.49c2.26 1 5-2.11 7.15-.89 1.81 1 1.1 3.81-.13 5.48-2.45 2.69-2.76 4.9-1.07 7.84-.95 4.67-8.23 6.93-7.06 12.39 2.81 1.16 6.92-3.67 8.22 1.69 3.27 8-5.65 12.4-4.68 18.59 5.9 7.5 7.38 17.36 5.79 26.87-3.38-7.38-2.27-15.47-2.65-23.18-2.71-3.44-4.55-7.2-2-11.49 2.54-3.8 4.72-12.24-1.85-12.67-1.38.29-3.08.66-3.41-1.08-1-2.72.46-5.22 1.49-7.61-.59-9.11-11.31-12.6-19.12-13.16-14.89-4-29.14 9.92-40.95-2 2.62-6.65 3.93-7.62 5.36-12.19" fill="#797a7a"/><path d="M300.54 66.32c4.62-.23 9.23-.5 13.85-.52 5.55 0 11.47 0 16.82 1.64 1.54.47 3.41 1.21 4 2.58a4.48 4.48 0 01.12.65c0-.33-.09 0-.26.34a5.32 5.32 0 00-.42 1.06 2.73 2.73 0 00.72 2.86c1.7 1.51 4.78 1 6.82.77 1.24-.12 2.48-.28 3.73-.3.36 0 .86 0 1 .06a25.81 25.81 0 013.51.19 8.4 8.4 0 013.46 1.71 3.42 3.42 0 002.75.8 11.76 11.76 0 002.82-.91c.7-.27 2-.85 2.48 0s-.11 2-.5 2.74c-.61 1.07-1.55 1.89-2.08 3a7.11 7.11 0 00.64 6.81l-.13-1c-1 4.18-6.16 5.86-7.08 10.19a4.94 4.94 0 00.14 3.16c.55.92 2.05.87 3 .73a19.37 19.37 0 002.58-.72c.64-.19 1.45-.53 2 0a4.36 4.36 0 01.7 1.71 11 11 0 01.44 1.59 7.6 7.6 0 01-.17 3.32 22.58 22.58 0 01-2.81 5.54 14.57 14.57 0 00-2.32 5.58 4 4 0 00.68 3.19 28 28 0 012.55 4.18c3.23 6.47 3.76 14 2.61 21.06l2.29-.3C362 142.71 362 136.79 362 131v-4.19a6 6 0 00-.09-1.64 8.61 8.61 0 00-1.24-1.82c-1.48-2.21-2.48-4.74-1.51-7.37.63-1.69 1.76-3.14 2.39-4.86a14.25 14.25 0 00.94-4.83c0-3.21-2.08-6.3-5.6-6.2-.58 0-1.63.54-2.13.12-.34-.29-.37-1.68-.36-2.06a7.13 7.13 0 01.47-2.08c.37-1.09 1.26-2.28 1.35-3.42a8.56 8.56 0 00-.55-3 14.53 14.53 0 00-7.45-8.11A31.29 31.29 0 00337 78.36c-2.2-.23-4.31-.79-6.54-.83a35.31 35.31 0 00-6.73.59c-4.9.84-9.67 2.5-14.63 3a15.84 15.84 0 01-13.29-4.47l.32 1.22c1.64-4.13 4-8 5.36-12.19.49-1.54-1.93-2.2-2.42-.66-1.34 4.22-3.72 8.06-5.36 12.18a1.22 1.22 0 00.32 1.22 17.48 17.48 0 009.92 5.13 30.91 30.91 0 0010.79-.85c3.81-.83 7.57-1.92 11.44-2.4a29.41 29.41 0 016.08-.14c1.78.16 3.53.58 5.31.8 6 .75 14 3.27 15.83 9.8a3.13 3.13 0 01.09 2.27 20.83 20.83 0 00-1.27 3.23c-.47 1.74-.56 4.45.83 5.84s2.84.4 4.38.62a2.83 2.83 0 012.36 2c.85 2.73-.54 6.12-1.94 8.42a9.47 9.47 0 00-1.43 6.75 15.7 15.7 0 003.41 6.54l-.36-.89c.36 8.06-.56 16.23 2.82 23.81a1.27 1.27 0 002.29-.3 41.6 41.6 0 00-.13-15 32.86 32.86 0 00-2.38-7.22 26.83 26.83 0 00-1.64-3c-.5-.81-1.58-2-1.67-2.65-.18-1.49.67-3.08 1.37-4.32.8-1.42 1.72-2.76 2.48-4.21a12 12 0 00.53-10.66 3.61 3.61 0 00-4.2-2.4c-1.44.25-3.11 1.37-4.57.85l.87.88c-.69-3.74 3.83-6.26 5.73-8.87a8.12 8.12 0 001.16-2.45c.41-1.33-.58-2.23-.82-3.51-.5-2.63 2.14-4.26 2.93-6.55.69-2 .4-4.48-1.77-5.36s-3.93.8-6 1.09c-1 .14-1.76-.92-2.59-1.38a10.54 10.54 0 00-3.49-1.19c-1.13-.18-2.24-.08-3.35-.15a16.67 16.67 0 00-1.87 0c-2.56.15-5.62.91-8 .22-.22-.07-.19-.06-.16-.15a9.13 9.13 0 00.83-2.25 4.35 4.35 0 00-1-2.88c-1.53-1.88-4.13-2.7-6.4-3.24a53.8 53.8 0 00-10-1.21c-6.61-.3-13.2.08-19.81.4-1.6.08-1.61 2.58 0 2.51zm153.82 247.6c-.49-1.87 4.59-5.48 5.57-7.15 0 0-2.2-40.47-11.12-37.31-2.44 2.08 2.26 10.68 2 16.2-3.92 10 5.15 16 .29 18.91-3.92 1.77-.25-9.71-8.73-2.89-1.54-2.62.64-5.77 1.31-8.74 2.33-9.77-12.34-14.52-15.75-4.92 1.11 2 13.18-3.07 7.78 10.43-1.37 2.28-4.41 3.24-5.55 5.64-1.69 5.12 3.61 10.82 6.52 14.69 8.16-3.33 5 13.65 10 2.91 7.08-10.29 6 17.05 14 14.35 1.41-3.87 2.03-21.36-6.32-22.12z" fill="#797a7a"/><path d="M455.57 313.59c-.08-.45 1.08-1.56 1.4-1.9.86-.92 1.8-1.77 2.68-2.66s1.54-1.52 1.51-2.63c-.07-2.14-.31-4.28-.51-6.41-.71-7.53-1.6-15.22-3.75-22.5-.81-2.74-1.82-5.85-3.87-7.94-1.81-1.85-5.43-2.39-6.07.85-.45 2.28.44 4.82 1 7 .39 1.42.79 2.83 1.1 4.27a9.81 9.81 0 01.4 3.87 30.45 30.45 0 00-.92 4.26 15.62 15.62 0 00.23 4 40.46 40.46 0 002 6.16c.4 1.12 1 2.52 0 3.33l-.3.19c-.21.13-.12.06-.12 0s.14.14.11 0c.06.21-.14-.28-.14-.27s-.16-.51-.23-.73a7.67 7.67 0 00-1.42-3.37c-1.14-1.21-2.78-1-4.16-.39a15.23 15.23 0 00-3 2l2 .26c-1-1.86.23-4.12.86-5.9a12.28 12.28 0 00.85-4.71 9 9 0 00-3.35-6.53c-3.81-3.1-10-3.37-13.3.6-.75.88-2.21 2.78-1.73 4a2.16 2.16 0 001.54 1.16 23.63 23.63 0 004.21.24c1.21.09 2.59.39 3.05 1.41a5.12 5.12 0 01.13 2.85c-.29 1.61-.74 3.51-1.94 4.67-1.43 1.39-3.27 2.33-4.38 4.05s-1 3.88-.49 5.7c1.08 4.16 4.16 7.48 6.69 10.83a1.27 1.27 0 001.35.65c2.23-.87 3.29 0 4.15 2 .56 1.32.86 4 2.53 4.47 2.44.76 3.46-3.41 4.5-4.7a7 7 0 01.93-.95c.15-.12.34-.2.23-.15.39-.17-.07.05.25-.05-.19.06-.19-.06 0 0s.06.08-.06 0c.26.23.11 0 .2.13a2.51 2.51 0 01.56.74c2.4 4 2.48 9.27 5.13 13.3 1.16 1.76 2.94 3.11 5.15 2.59 1.34-.31 1.52-1.56 1.73-2.74a32.7 32.7 0 00.44-4.19c.25-6.06-.53-16.91-8.38-17.76-1.6-.18-1.59 2.33 0 2.51 4.08.44 5.24 6 5.65 9.27.44 3.53.66 7.84-.57 11.26l.87-.88a1.54 1.54 0 01-1.34 0 3.39 3.39 0 01-1.06-.89 13.9 13.9 0 01-1.93-3.85c-1.14-3.14-1.76-6.58-3.33-9.55a4.22 4.22 0 00-2.56-2.39c-1.42-.33-2.7.66-3.57 1.68a15.44 15.44 0 00-1.7 2.78 9 9 0 01-.69 1.15l-.13.22c-.2.25-.12.11-.11.13a.44.44 0 01-.1.06c.08 0 .28-.12.39-.11s.48.13.37.09c.25.09.21.3 0-.13a3.07 3.07 0 01-.19-.46c-.11-.31-.22-.62-.32-.93a10.47 10.47 0 00-2.29-4.25 4.92 4.92 0 00-5.41-.78l1.41.57c-2.45-3.24-5.75-6.61-6.55-10.73a5.33 5.33 0 01.12-2.83 6.35 6.35 0 012.15-2.28c1.57-1.23 3-2.32 3.72-4.25.91-2.45 1.91-5.79.41-8.23-1-1.7-3-2.24-4.85-2.41-.93-.08-1.87-.05-2.8-.08h-.88c-.1 0-.4 0-.25-.06s-.1.06 0 0 .22.22.23.22l.12 1c1.72-4.62 7.3-5.55 11-2.6a6.6 6.6 0 012.49 6c-.42 3.63-3.28 6.92-1.34 10.59a1.27 1.27 0 002 .26 9.56 9.56 0 012.71-1.69 1.64 1.64 0 01.73-.13.35.35 0 01.15.1 3 3 0 01.47 1c.18.55.3 1.13.48 1.69.37 1.17 1 2.39 2.39 2.49a3.68 3.68 0 003.44-2.57 7 7 0 00-.54-4.46 33.15 33.15 0 01-1.9-6.15 12.89 12.89 0 010-3.67c.21-1.49 1-2.85.91-4.35a35.92 35.92 0 00-1.64-8.07c-.31-1.1-.61-2.21-.84-3.34a10.55 10.55 0 01-.21-1.48 8.6 8.6 0 00.12-1.29c0-.05.09-.16.09-.17-.12.65-.52 0-.11.12.24.08 0-.05.39 0a1.39 1.39 0 01.81.28 4.05 4.05 0 01.89.83 10 10 0 01.92 1.4 22.83 22.83 0 011.67 4c2.26 7 3.16 14.48 3.88 21.77.25 2.47.35 5 .61 7.44v.47c-1.65 0 .8-.77 0-.35a3.15 3.15 0 00-.52.57c-.44.46-.91.91-1.37 1.35-1.53 1.49-4 3.52-3.62 5.93.21 1.33 2.63.66 2.34-.92zm-413.8-26.07l5.89-.78c.91-.12 2.07-.09 2.62-.93a3.14 3.14 0 00-.57-3.69c-.78-1-2-1.65-2.66-2.69-.27-.44-.31-.29 0-.59a12.51 12.51 0 011.95-1.18c2.64-1.63 3.16-4 1.67-6.68-.67-1.18-1.56-2.23-2.21-3.43-.5-.92-.67-1.38.21-2l-1.16.16L57.3 269a1.53 1.53 0 001.87-1.86q-2.19-9.32-3.94-18.73l-1.46 1.92c2.81-.22 5 2.56 6.63 4.47 2 2.36 3.79 5 6.28 6.86 1 .77 2.19-.31 2.28-1.31.5-5.33 3.63-9.84 7.63-13.21l-2.38-.31a52.72 52.72 0 016.74 15 1.52 1.52 0 003-.4c.39-6.32 4.36-11.7 9.35-15.33l-2.23-.9a58.56 58.56 0 012.93 9.15 1.52 1.52 0 002.53.67l15-15.39L109 239a27.51 27.51 0 011.38 14.94 1.53 1.53 0 002.54 1.48l9-7.34c1.52-1.23-.64-3.37-2.14-2.14l-9 7.33 2.54 1.48a30.52 30.52 0 00-1.38-16.55 1.54 1.54 0 00-2.54-.67l-15 15.39 2.53.67A57.59 57.59 0 0094 244.4c-.33-.81-1.35-1.55-2.23-.91-5.91 4.3-10.4 10.47-10.86 17.95l3-.41a55.38 55.38 0 00-7-15.76 1.55 1.55 0 00-2.38-.31 23 23 0 00-8.52 15.36l2.2-1.32c-2.58-2-4.36-5-6.52-7.36S57 247 53.77 247.27a1.54 1.54 0 00-1.46 1.92q1.74 9.41 3.94 18.72l1.86-1.86-6.54-2.16c-1-.33-2-.73-3-1a2.25 2.25 0 00-2.3.75c-1.73 1.63-1.34 3.86-.25 5.72.54.92 1.2 1.77 1.76 2.68a6.3 6.3 0 01.62 1.14 1.8 1.8 0 01.17.8c-.23.89-1.76 1.41-2.52 1.9a4 4 0 00-2.2 3.19 4.93 4.93 0 001.89 3.36c.46.44 1 .85 1.4 1.32.15.16.47.7.55.53l1.31-.75-7.2 1a1.57 1.57 0 00-1.55 1.47 1.52 1.52 0 001.52 1.52zm346.94-54.2c-.36-2.22 1.76-5.35-.79-6.94-1.6-.9-3.45.54-5.25.89-7 1.07-3.52-7.94-8.15-8.68l-.43 30.11c3.55.69 6.63-2.63 9.36 2.45 2.87 4.76 6.73 1.12 4.94-3.12-1.3-4.11.7-7.3 3.85-9.65 2.67-4.77-1.92-3.22-3.53-5.06z" fill="#797a7a"/><path d="M390 233.32c-.33-2.77 1.81-6.16-1.42-8-2.79-1.61-5.59 2-8.22.55-1.38-.77-1.51-3-1.88-4.39-.53-1.89-1.52-3.67-3.6-4.07a1.28 1.28 0 00-1.59 1.21l-.37 26.35-.05 3.76a1.26 1.26 0 00.92 1.21 12.29 12.29 0 004.27-.23c1.25-.22 2.37-.31 3.32.65 1.33 1.33 1.78 3.18 3.64 4a3.37 3.37 0 003.65-.55 4.93 4.93 0 001.44-3.93c-.1-1.88-1.12-3.46-.74-5.4a7.91 7.91 0 012.66-4.26 5.83 5.83 0 001.74-2 5.6 5.6 0 00.57-2 2.75 2.75 0 00-2-2.69c-.88-.34-2.06-.37-2.74-1.08-1.12-1.17-2.89.61-1.78 1.77a5.33 5.33 0 002.44 1.31 11.22 11.22 0 011.17.33c.16.07.4.26.37.17.11.32-.24 1-.38 1.23a8 8 0 01-1.58 1.54 10.82 10.82 0 00-2.53 3.74 8.44 8.44 0 00-.47 4.34c.21 1.42 1.14 2.9.58 4.35-.44 1.13-1.32 1.11-2.13.32-1.19-1.18-1.63-2.79-3.09-3.75-2.54-1.65-5.11.15-7.78-.29l.92 1.21.38-26.35v-3.76l-1.59 1.21c1.54.29 1.77 2 2.09 3.27.41 1.65.85 3.43 2.23 4.54 2.14 1.73 4.73.79 7 0 .67-.23 1.45-.52 2 0a2.09 2.09 0 01.34 1.79 16.21 16.21 0 00-.44 3.86c.29 1.62 2.8 1.64 2.65.04zm-86.48-84.8A52.46 52.46 0 00282.3 117l2.08 12c-36.66.31-24.13-14.18-67.35 7.08 2.65 2.93 7.26 2.54 11.18 2.14a103.86 103.86 0 0137.6 3.06c13.15 1.14 21.6 19.28 27.53 11.21 2.56-1.67 10.33 1.72 9.66-3.57" fill="#797a7a"/><path d="M304.68 148.2a53.92 53.92 0 00-21.76-32.2c-1-.66-1.94.43-1.78 1.37l2.07 12 1.17-1.53a95.59 95.59 0 01-16.65-1.15c-3.37-.57-6.65-1.45-10-2.27a32.09 32.09 0 00-8.38-1.11 38.55 38.55 0 00-11.27 2.32 183 183 0 00-21.7 9.45 1.22 1.22 0 00-.24 1.9c2.65 2.78 6.61 2.95 10.21 2.67 4.64-.37 9.23-.76 13.9-.69a101.18 101.18 0 0114.54 1.25c2.42.38 4.83.86 7.21 1.41 1.15.27 2.29.67 3.45.87.76.14 1.53.2 2.29.38 5.65 1.34 10 5.49 14.44 9 2.94 2.35 7.26 5.74 10.89 2.68a6.64 6.64 0 00.55-.51c.14-.16.66-.73.51-.63s.29-.05.36-.07c.26 0 .51-.08.77-.1 1.32-.09 2.65.08 4 .07 2.77 0 5.27-1.16 4.94-4.35-.15-1.53-2.58-1.55-2.42 0 .09.89.07 1.49-.84 1.76a9.49 9.49 0 01-3.1.14 18.52 18.52 0 00-3.33 0 3.85 3.85 0 00-2.57 1.43c-2.64 2.83-6.64-1-8.81-2.81-4.17-3.4-8.37-7.07-13.61-8.69-1.49-.47-3-.59-4.54-1-2.22-.58-4.46-1.07-6.71-1.5a107.56 107.56 0 00-13.49-1.66 105.09 105.09 0 00-15.16.22c-3.76.33-8.8 1.43-11.74-1.65l-.24 1.9a194.14 194.14 0 0119.58-8.67 41.32 41.32 0 0111.37-2.73c6-.36 11.73 2 17.62 3.1a97.76 97.76 0 0018.16 1.39 1.23 1.23 0 001.17-1.53l-2.08-12.05-1.78 1.36a51.46 51.46 0 0120.66 30.76c.34 1.52 2.68.88 2.33-.64zm15.94 18.06c-4.33-2.5-8.51-7-13.38-7.88-3 2.87.25 7.4 2.17 10.33 15.3 26.22 14.63 59 17.22 88.51 2.84 9.4 12.08-12.89 12.89-16 3.55-10 6.5-20.62 4.57-31-1.23-9-7.62-16-10.46-24.35-1.42-8.82-1.11-18.17-5.95-26.11-1.6-3-3.59-1.24-3.1 1.63A4 4 0 01321 165" fill="#797a7a"/><path d="M321.23 165.22c-3.83-2.26-7-5.56-11.17-7.26a6.45 6.45 0 00-3-.77c-.87.15-1.5 1.2-1.83 1.94a6.87 6.87 0 00.38 5.52 55.54 55.54 0 003.05 5.22c1.18 2 2.26 4.15 3.26 6.3a96.77 96.77 0 015 13.3c5.5 18.47 6.33 37.9 7.65 57 .16 2.36.33 4.7.52 7.05.14 1.77 0 3.7.86 5.31a2.9 2.9 0 004.13 1.47c1.76-.94 3-2.9 4-4.54a60.34 60.34 0 003.74-7.12 108.23 108.23 0 006-17.21c2.53-9.72 3.12-20.1-1-29.48-1.81-4.14-4.24-8-6.22-12-.48-1-.93-2-1.33-3a14.7 14.7 0 01-.86-3.65c-.31-2.37-.54-4.76-.82-7.13a48.87 48.87 0 00-3.18-13.67c-.75-1.74-1.73-4.42-3.53-5.32a2.5 2.5 0 00-3.44 1.79 22.76 22.76 0 00-.2 2.71 2.81 2.81 0 01-2.34 2.1c-1.53.17-1.54 2.59 0 2.42a5.36 5.36 0 004.16-2.61 4.74 4.74 0 00.66-2.28 6 6 0 010-1.41 1.28 1.28 0 01.13-.39c.14-.2.17-.14 0-.17.53.11 1.13 1.65 1.36 2.08a26.12 26.12 0 011.46 3.18 38.54 38.54 0 011.66 6.06c.81 4.1 1.1 8.29 1.63 12.43a25.53 25.53 0 00.43 3 18.12 18.12 0 001 2.68c.78 1.83 1.69 3.59 2.63 5.34a86.71 86.71 0 015.36 10.74 35.47 35.47 0 012 12.64c-.11 8.37-2.76 16.28-5.38 24.13a65.37 65.37 0 01-5 11 20.35 20.35 0 01-3.36 4.84 5.21 5.21 0 01-.63.53 1 1 0 01-.51.25h-.11l-.13-.12a2.58 2.58 0 01-.23-.35c-.67-1.23-.52-2.92-.63-4.29-.16-2.07-.32-4.14-.46-6.21-.29-4.2-.56-8.4-.86-12.59-.59-8.43-1.31-16.85-2.52-25.21a139.91 139.91 0 00-5.55-24.25 97.8 97.8 0 00-4.64-11.44c-.88-1.82-1.81-3.62-2.83-5.36-.9-1.53-2-2.94-2.74-4.56s-1.14-3.32.17-4.66l-1.18.31c5.08 1 8.78 5.21 13.09 7.76a1.21 1.21 0 001.22-2.09zm-34.65 16.59c-8.24-1.62-10.78 7.46-15.87 11.52-11.66 3-6.67 14.18-7.74 22.79-7.68 13.17 23.11 22.63 32.55 24 18.6 4.69 21-21.39 17.29-33.83-5.38-10.66-17.65-16-26.53-23.44" fill="#797a7a"/><path d="M286.91 180.64a10.15 10.15 0 00-9 2.57c-2.33 2.09-3.94 4.83-6 7.17a18.9 18.9 0 01-1.52 1.58 8.24 8.24 0 01-2.34 1 10.57 10.57 0 00-3.9 2.73 12.59 12.59 0 00-2.62 7.9c-.12 3.18.32 6.35.32 9.54 0 .73 0 1.47-.08 2.2a4.71 4.71 0 010 .54c0-.12.08-.32-.09.05s-.29.61-.43.92a9.15 9.15 0 00-.73 3.3c-.12 5 4.18 8.77 8 11.29a64.65 64.65 0 0016.35 7.34c2.47.78 5 1.47 7.51 2a36.58 36.58 0 007.19 1.11c12.33.13 15.9-14.21 15.94-24.08a44.87 44.87 0 00-.7-8.26 21.71 21.71 0 00-.81-3.48 19 19 0 00-3.14-5c-5.06-6.48-12.34-10.69-18.94-15.39a73.544 73.544 0 01-4.78-3.65c-1.19-1-2.91.71-1.71 1.71 5.87 4.91 12.65 8.61 18.45 13.61a32.54 32.54 0 017.37 8.62c1.13 2 1.38 4.71 1.61 7a40.19 40.19 0 01-1.3 15.81c-1.28 4.21-3.77 8.66-8.19 10.16-2.55.87-5 .55-7.6.06-1.95-.37-3.89-.74-5.82-1.24a78.91 78.91 0 01-15.32-5.58c-4.06-2-9-4.73-11-9a6.49 6.49 0 01-.14-5.27 10.25 10.25 0 00.68-1.52 11.48 11.48 0 00.18-2.34c0-1.46 0-2.92-.12-4.37-.3-5.32-1-11.87 4.84-14.41a17 17 0 002.39-.88 8.93 8.93 0 001.6-1.47 39.84 39.84 0 002.79-3.41c1.7-2.23 3.48-4.82 6.12-6a7.23 7.23 0 014.31-.42c1.53.27 2.18-2.06.65-2.34zM242 226c-.35 2.43 1.35 6.51 4.24 4.82 1.36-1.09.73-3.64 2.19-4.59 4.58 1.15 4.15 7 5.22 10.62 2.21 4.48 8.55 14.33.25 15.85-3.27-.52-9.78-8.27-10.22-.43-.6 5.39-9.83 7.15-9.28 12.54 1.22 3.18.74 6.91-2.75 8.48-6.42 3.2-17.85-1.88-11.88-9.74 2.39-4.2 7-5.66 11-7.71 3.62-9.79.31-23.12 11-30.08" fill="#797a7a"/><path d="M240.79 226c-.27 2.32.79 5.64 3.31 6.32a3.34 3.34 0 003.57-1.3 6 6 0 00.73-1.93c.13-.54.17-1.45.65-1.81l-.94.12c2.35.66 3 2.92 3.45 5.07s.61 4.17 1.62 6.11a57.86 57.86 0 012.67 5.49c.61 1.58 1.39 3.64.83 5.34a2.7 2.7 0 01-1.5 1.64 3.69 3.69 0 01-1.29.42c.37 0 0 0-.16-.06s-.42-.17-.63-.27c-1.73-.84-3.21-2.12-5-2.93-1.44-.67-3.21-1-4.44.24-1.51 1.56-.82 4-2 5.67-2.27 3.26-6.9 4.54-8.24 8.53-.78 2.33.85 4.46.14 6.83s-3.21 3.35-5.46 3.54c-3.17.26-8.66-1.1-8.81-5.09a5.07 5.07 0 01.76-2.67 14.49 14.49 0 012.85-3.66c2.06-1.83 4.7-2.9 7.15-4.08.73-.36 1.47-.58 1.83-1.36a14.24 14.24 0 00.65-2 38.66 38.66 0 00.82-4c.45-2.76.69-5.55 1.1-8.32.87-5.92 2.69-11.55 7.9-15 1.3-.86.08-3-1.22-2.09-5 3.33-7.55 8.44-8.65 14.23-1 5.51-1 11.26-2.94 16.58l.56-.72a59.09 59.09 0 00-7.27 3.81 15.63 15.63 0 00-5.15 6c-1.81 3.75-.17 7.51 3.4 9.41s8.6 2.16 12.09-.17a7 7 0 003-6.17c0-1.14-.58-2.23-.62-3.33a3.61 3.61 0 01.86-2.21c2.39-3.09 6.71-4.43 8.11-8.33.35-1 0-3.94 1.5-3.76s3.21 1.65 4.52 2.46a12.6 12.6 0 002.15 1.13 3.87 3.87 0 002.91-.13 5.3 5.3 0 003.48-3.83c.78-3.8-1.54-7.88-3.24-11.12a13.3 13.3 0 01-1.19-2.5c-.33-1.18-.46-2.42-.68-3.63-.43-2.3-1.1-4.78-3-6.27-.9-.68-2.33-1.52-3.37-.77s-1.29 2.16-1.6 3.39c-.14.53-.27 1.16-.91 1.24a1.23 1.23 0 01-1.14-.65 4.79 4.79 0 01-.74-3.34c.18-1.55-2.25-1.53-2.42 0zm15.76 39c-2.38 7.69 7.59 5.76 10.83 2.21l-10.25-2.68" fill="#797a7a"/><path d="M255.38 264.65a6.51 6.51 0 00-.13 4.09 4.1 4.1 0 002.53 2.42c2.29.84 5 .11 7.16-.85a10.18 10.18 0 003.29-2.28 1.22 1.22 0 00-.53-2l-10.25-2.67a1.21 1.21 0 00-.64 2.33l10.25 2.68-.54-2a5.44 5.44 0 01-.48.48l-.27.23s-.15.11 0 0-.07.05-.1.07a12.38 12.38 0 01-1.31.8l-.71.34c-.05 0-.22.09 0 0l-.19.07-.37.14a11.06 11.06 0 01-1.59.45l-.33.06c-.09 0-.44.06-.15 0a7.18 7.18 0 01-.79.06h-1.15c-.13 0-.38-.1-.58-.16s.1.08-.06 0l-.3-.16s-.31-.22-.14-.09-.06-.05-.1-.09l-.2-.22c.23.24 0 0 0-.08s-.16-.36-.07-.09c0-.11-.08-.23-.11-.34s-.06-.25-.08-.38c.05.3 0-.08 0-.19v-.45a1.49 1.49 0 000-.21v-.07c.07-.39.17-.78.28-1.17a1.21 1.21 0 00-2.33-.64zm-31.66 26.42c-.44-2-2.09-4.62-3.87-3.57-2 2.87-3.49 6.53-7.7 3.55a18.79 18.79 0 00-1.15 11.06 13.88 13.88 0 0111.12 0c1-1.56-.34-4.07 1-5.33 3-1.86 4.56 2.59 3.78 5a15.85 15.85 0 016.7 2.81c2.11-3.2 6.44-1 9.51-1.16 5.8 0 7.7-7.39 12-10.16 2-.46 3.43 2.21 2.73 4.09-1.45 3.82-7.33 4.13-8.53 8.12-.56 2.21.71 6.36-2.45 6.88-1.58-7.49-13-6.82-13.7.8-9.93-18.05-18.15 5.11-7.9 3.84 10.07 1.24 7.88 14.42 2.23 19.89-3.63 5.87-10.76 9.13-14.13 14.84 7 24.83 29.68 23.84 29.54-4 5-27.44 21.82-14.75 29.22-23.55 2.6-10.94-18.07-12-17.52-21.3.6-2.37 3.35-3.66 5.78-3.44 6.26-.19 13.62 11.43 19.07 6.2.93-5.64-13.28-19.28-18.82-17.64-2 1.21-1.8 5.21-4.14 5.23-.2-3.88-3.59-9.76-7.91-6.86-2.77 2.35.1 9.07-4.35 10 .19-3.85-2.34-8.69-6.36-9.35-3.42 1.84-2.08 7.88-3.23 11.26-1.81-1.72-2.32-4.43-3.91-6.37s-5.47-2.33-6 .12" fill="#797a7a"/><path d="M224.89 290.75a7.14 7.14 0 00-2.33-4 2.7 2.7 0 00-3.75.13c-.89 1.07-1.4 2.41-2.43 3.38-1.2 1.11-2.39.56-3.62-.27a1.24 1.24 0 00-1.78.73 20.44 20.44 0 00-1.12 11.7 1.23 1.23 0 001.78.72 12.74 12.74 0 019.9 0 1.23 1.23 0 001.65-.44 5.65 5.65 0 00.57-3.06c0-.67-.27-2.34.9-2.11 1.37.26 1.41 3 1.14 3.92a1.21 1.21 0 00.84 1.49 15.92 15.92 0 016.4 2.69 1.24 1.24 0 001.66-.43c1.1-1.53 3.17-1.2 4.79-1a15.47 15.47 0 004.89.28c3.23-.52 5.35-3.14 7.21-5.6a27.77 27.77 0 013.13-3.79c.55-.51 1-1 1.58-.32a2.23 2.23 0 01.36 2.33c-.61 1.39-2.14 2.21-3.37 2.94a15 15 0 00-3.79 2.75 6.61 6.61 0 00-1.53 4.58c0 1.34.29 3.42-1.39 3.77l1.49.85a8.19 8.19 0 00-16.07 1.19l2.26-.61c-1.88-3.36-5.45-8.69-10.09-7.31-3 .9-4.69 4.3-4.78 7.27a6 6 0 001.34 4.18c1.18 1.32 2.71 1.52 4.38 1.55 5.15.06 6.57 5.55 5.75 9.71a16.71 16.71 0 01-2.78 6.48c-.76 1.06-1.63 2-2.41 3.07a27.69 27.69 0 01-3.61 3.81c-2.55 2.31-5.35 4.37-7.62 7-.85 1-2.48 2.54-2.15 3.93a29.32 29.32 0 001.56 4.48c3 7.34 10.34 16.53 19.45 13.49 3.91-1.3 6.69-4.63 8.31-8.31a29.13 29.13 0 002.13-7.79 42.06 42.06 0 00.4-4.88 23.28 23.28 0 01.93-5.49c1.23-4.52 3.27-9.31 7.43-11.86 2.86-1.76 6.22-2.17 9.5-2.55 3.12-.35 6.46-.71 9.1-2.58a8.46 8.46 0 001.86-1.67 5 5 0 00.63-3.21 8.73 8.73 0 00-2.32-5.23c-2.79-3.15-6.9-4.87-10.38-7.09a13.63 13.63 0 01-4.12-3.54 5.07 5.07 0 01-.89-2.16 2.81 2.81 0 012.05-2.85c2.44-1 4.94 0 7.05 1.27 2.28 1.39 4.35 3.13 6.69 4.44 2 1.1 4.3 2 6.52 1.14 1.08-.39 2.4-1.15 2.54-2.38a6 6 0 00-.3-2.37c-1.36-4.46-5.19-8.37-8.65-11.32a27.44 27.44 0 00-6.07-4.07c-1.54-.71-3.65-1.52-5.36-.9a4.61 4.61 0 00-2.23 2.61c-.28.63-.72 2.52-1.58 2.58l1.21 1.21c-.3-4.31-3.94-10.91-9.15-8.25-2.07 1.07-2.44 3.39-2.61 5.5-.15 1.7 0 4.21-2 4.7l1.53 1.17a11.62 11.62 0 00-2.13-7 9.67 9.67 0 00-2.5-2.44c-.86-.56-2.37-1.36-3.41-1-2 .72-2.82 3.36-3.09 5.23-.33 2.25-.14 4.63-.83 6.82l2-.54c-2.28-2.3-2.53-6.2-5.69-7.7-2.26-1.07-5.48-.79-6.25 2a1.21 1.21 0 002.33.65c.49-1.74 3.26-.46 4 .42 1.6 1.95 2.09 4.53 3.91 6.36a1.22 1.22 0 002-.53 26.4 26.4 0 00.73-5.75c.14-1.69.32-3.84 1.94-4.79l-.94.13c3.65.7 5.59 4.74 5.48 8.18a1.23 1.23 0 001.53 1.17c4.33-1 3.19-5.69 4.1-8.93a2.38 2.38 0 014-1.08 8.43 8.43 0 012.66 5.72 1.23 1.23 0 001.21 1.21c1.92-.14 2.73-1.57 3.42-3.18.26-.62.56-1.75 1.18-2.11a2.22 2.22 0 011.13 0c2.88.41 5.65 2.59 7.79 4.41a31.69 31.69 0 016.91 7.83 8.87 8.87 0 011.35 3.38v.31c0 .26-.15.38.05.12s-.55.24-.7.31a3.43 3.43 0 01-1.87.29 10.81 10.81 0 01-4.33-2c-1.59-1-3.09-2.18-4.68-3.21-3.06-2-6.75-3.31-10.26-1.58a5.14 5.14 0 00-3.11 4.48 7.35 7.35 0 001.09 3.55c1.48 2.37 4 4 6.31 5.36 4.13 2.48 10.93 5.18 10.26 11 0 .1-.13.48.1.06a1.38 1.38 0 01-.23.26c-.2.2-.4.4-.61.59a8.58 8.58 0 01-1.22.85 10.58 10.58 0 01-2.72 1.05 52 52 0 01-6.45 1c-5.36.69-10.06 2.49-13.3 7a30.18 30.18 0 00-4.47 11.15 60.23 60.23 0 00-.67 7.11 31.41 31.41 0 01-1.14 5.84c-1.49 4.95-5.05 10.23-10.82 10-6.07-.21-10.42-6-12.8-11a38.07 38.07 0 01-2.18-5.94l-.12.93c1.88-3.11 4.76-5.39 7.48-7.72a47.51 47.51 0 004-3.68c1.12-1.19 2-2.58 3.08-3.79a17.47 17.47 0 004.35-14 8.7 8.7 0 00-3.48-5.72 9.16 9.16 0 00-3.63-1.47 17.9 17.9 0 01-2.75-.23 2.72 2.72 0 01-1.66-2.58 6.53 6.53 0 011.09-4 3.14 3.14 0 013.45-1.58c2.73.73 4.55 3.95 5.82 6.21a1.22 1.22 0 002.25-.61 5.78 5.78 0 0111.32-.48 1.24 1.24 0 001.49.85 3.93 3.93 0 003.06-3.72c.19-1.52-.24-3.37.57-4.74.93-1.6 2.89-2.4 4.4-3.34a8.45 8.45 0 003.69-3.79 4.59 4.59 0 00-1.47-5.3c-1.87-1.32-3.48-.23-4.86 1.18-2.45 2.51-4.13 6.63-7.53 8-2.09.85-4.41.07-6.55-.15-2.38-.26-4.48.27-5.92 2.27l1.66-.43a17.52 17.52 0 00-7-2.93l.84 1.49c.65-2.31-.06-6.09-2.72-6.87a3.25 3.25 0 00-3.64 1.38c-.87 1.53.13 3.42-.67 4.87l1.66-.44a15.51 15.51 0 00-12.35 0l1.78.72a18.21 18.21 0 011.13-10.41l-1.78.72c2.31 1.56 4.85 1.75 6.83-.41.83-.9 1.32-2.22 2.18-3.05.36-.35 0-.23.3-.12a1.83 1.83 0 01.69.61 5.91 5.91 0 011 2.27 1.21 1.21 0 002.33-.64z" fill="#797a7a"/><path d="M202 294.37c.46 5.15-2.36 17 6.5 11.3 3.76-.47 5 4.11 4.84 7.12-.36 1.76 1.63 7.09-1.64 6-3.87-2.58-3.43 4.22-5.82 5.65-3.19 2.59-6.49-1.28-3.56-4.09 9.29-7.73-12.25-14.37-.48-27.69" fill="#797a7a"/><path d="M200.74 294.37c.22 2.71-.19 5.43-.05 8.15.11 2.18.54 5.13 3.06 5.76a6 6 0 004.05-.84c.8-.41 1.17-.82 2.09-.41a3.37 3.37 0 011.51 1.75 10.39 10.39 0 01.63 4.58c0 1.38.41 2.74.31 4.13 0 .08-.17.56 0 .32s.25.16 0-.1l-.31-.13a4.56 4.56 0 00-2.09-.58 3.5 3.5 0 00-2.75 2.38c-.53 1.18-.8 2.66-1.63 3.68s-3.34 1.55-3.2-.47c.09-1.31 1.93-2.37 2.62-3.46a5.8 5.8 0 00.9-3.16c0-2.21-1.27-4.21-2.43-6-1.46-2.27-3.13-4.52-3.79-7.17-.88-3.5.73-6.69 3-9.29 1-1.17-.69-2.89-1.71-1.72-2.31 2.65-4.18 5.88-4 9.51a16.54 16.54 0 003 7.73c1.22 1.92 2.87 3.88 3.4 6.14a3.4 3.4 0 01-.34 2.52c-.79 1.41-2.33 2.13-2.87 3.74a3.83 3.83 0 001.93 4.7 4.58 4.58 0 005.17-1.32c1-1.13 1.4-2.7 2-4.08.14-.34.39-1.14.78-1.29s1.13.47 1.56.59a2.39 2.39 0 003.13-2c.26-1.53-.24-3-.24-4.56 0-3.15-.4-7.74-4.15-8.83a3.67 3.67 0 00-3.19.44 5.53 5.53 0 01-2.4.9c-1 0-1.26-.9-1.45-1.92-.61-3.17.15-6.47-.11-9.67-.13-1.54-2.55-1.56-2.42 0zm115.9 74.34c-4.49 11.75-13.52 21.15-19.44 32.25-2.63 4.93-4.7 10.26-8.38 14.46-6.63 8.26-31.36 17.51-22.62-2.35 14.79-17.57 35.39-31.16 46-52.16-13.43 2-25.59 9.37-38.49-.45-6.18-5.21-19.28-16.6-23.28-4-2.14 18.41-7.49 14.86-18.65 25.22-4.88 11.48 3.43 11.75 10.89 5.88 3-2.62 7-3.07 10.76-2.09 4.8.79 9.09-2.33 13.84-2.4 4.58 4.15-9.79 15.34-10.64 20.92-1.74 5.5-8 11.91-12.2 4.44-.69-1.27-1.35-4-3.38-3.24-3.38 2-3.95 7-6.88 9.55-3.17 1.35-1.38-4.57-3.21-5.46-1.54.37-1.95 2.9-3.4 3.56-.33 6.49-.66 14-1 20.47 0 .64 58.6-.89 63.65-.24 6-8.05 7.29-17.69 11.2-26.66 11.44-15.47 23.75-31.77 22.77-52.2-4.29 3.48-5.58 9.35-7.54 14.5z" fill="#797a7a"/><path d="M315.47 368.39c-2.44 6.3-6.21 11.95-10 17.48A141.43 141.43 0 00294.78 403c-2.4 4.83-4.72 10-8.83 13.62a31.59 31.59 0 01-8.56 5.23c-2.63 1.1-5.77 2.18-8.66 1.79a3.72 3.72 0 01-2.41-1.1 4.45 4.45 0 01-.74-3.13 13.27 13.27 0 011.73-5.81 29.29 29.29 0 013.09-3.51q1.59-1.74 3.22-3.43c4.31-4.46 8.83-8.7 13.3-13 10-9.61 20-19.66 26.31-32.17a1.22 1.22 0 00-1.36-1.77c-6.44 1-12.62 3.23-19.07 4.15-6.62.94-13.32-.25-18.59-4.58-3.52-2.9-7-5.95-11.11-8-3.54-1.78-8.1-2.9-11.26.24a9.34 9.34 0 00-1.86 2.75 15 15 0 00-1 4.28 35.05 35.05 0 01-1.8 7.5 14.92 14.92 0 01-5.86 7c-1.57 1.08-3.18 2.1-4.73 3.2-.91.66-1.81 1.34-2.69 2a18.9 18.9 0 00-3 2.54 11 11 0 00-1.5 4.09 10 10 0 00-.23 3.57 4.49 4.49 0 002.76 3.69 8.31 8.31 0 005.88-.41 19.6 19.6 0 003.62-1.85 37.29 37.29 0 014.17-2.83 10.44 10.44 0 015.06-.85c1.9.12 3.63.71 5.57.51 3.77-.39 7.21-2.34 11-2.46l-.86-.35c1.39 1.32-.18 3.72-1 5a84.91 84.91 0 01-5.42 7.11c-1.63 2.06-3.49 4.25-4.32 6.79-.93 2.82-2.33 6-5.18 7.35a3.11 3.11 0 01-3.86-.78c-1.21-1.28-1.52-3-2.6-4.36-2.69-3.36-6 .95-7.24 3.35a24.91 24.91 0 01-2.8 4.79c-.35.4-.69.38-.41.66-.29-.29-.29-1-.33-1.35a8.43 8.43 0 00-.75-3.4c-.89-1.47-2.43-1.12-3.46 0a23.12 23.12 0 00-1.33 1.95 5 5 0 01-.75.71 1.69 1.69 0 00-.62 1.48c-.17 2.56-.25 5.14-.37 7.7l-.36 7.65-.18 3.59c0 .78-.24 1.68.55 2.15a4.53 4.53 0 002.14.28h4.05c10.33 0 20.65-.23 31-.38 8.65-.12 17.39-.51 26-.1.36 0 .71 0 1.06.08a1.21 1.21 0 001-.6c3.49-4.76 5.53-10.29 7.36-15.85.92-2.79 1.8-5.6 2.85-8.35a15 15 0 011.95-3.75q1.32-1.78 2.63-3.58c6.62-9 13.05-18.48 16.64-29.2a51.87 51.87 0 002.71-18.74 1.22 1.22 0 00-2.06-.86c-4.54 3.75-5.88 9.74-7.87 15-.55 1.46 1.79 2.09 2.33.64 1.85-4.88 3-10.45 7.25-13.93l-2.07-.85c.49 11.37-3.32 22-9 31.75a165.91 165.91 0 01-9.2 13.83l-2.27 3.1a19 19 0 00-2.49 3.69c-1.1 2.62-2 5.32-2.91 8-2 6.24-4 12.5-8 17.85l1.05-.59a78.64 78.64 0 00-9.83-.16c-6 0-11.94.11-17.91.19-11.05.16-22.12.49-33.17.36h-1.9a5.65 5.65 0 00-.58 0s.28.13.15 0h-.06l.27.12q.75 1.17.63.15a8.14 8.14 0 00.11-2.22l.12-2.5c.08-1.63.15-3.25.23-4.87.16-3.34.31-6.67.48-10l-.6 1.05a5 5 0 001.7-1.7c.37-.55.73-1.52 1.41-1.74l-.93-.12c.54.31.48 2.5.59 3.15.2 1.21.76 2.46 2.11 2.64 1.88.25 3.1-1.59 4-3 1.06-1.72 1.76-3.66 3-5.29.31-.42 1.23-1.71 1.85-1.56s1 1.44 1.17 1.9a8.4 8.4 0 003.83 4.36c3.48 1.61 6.82-1.14 8.76-3.82 1.81-2.5 2.26-5.51 4-8 1.87-2.77 4.13-5.27 6.15-8 1.59-2.11 3.64-4.74 3.68-7.52a3.84 3.84 0 00-1.26-3c-.83-.67-2.21-.29-3.18-.12a31.88 31.88 0 00-3.73 1c-2.38.74-4.93 1.65-7.46 1.24s-4.75-.76-7.24-.1c-3.95 1.05-6.57 4.54-10.54 5.63a4.77 4.77 0 01-3.31 0 2.67 2.67 0 01-1.13-2.64 10.78 10.78 0 01.48-2.63c.16-.54.34-1.08.55-1.61a3.11 3.11 0 011.09-1.35 52.23 52.23 0 014.13-3.29c4.37-3.11 9.07-5.51 11.31-10.68a26.67 26.67 0 001.5-4.69c.23-1 .42-2 .58-3a21.19 21.19 0 01.66-3.82c1.09-3.05 3.43-4.73 6.66-4 7.37 1.64 12 8.48 18.46 11.81a25.34 25.34 0 0014.1 2.56c4.87-.44 9.59-1.81 14.33-3 2.36-.58 4.74-1.1 7.14-1.47l-1.37-1.78c-6 11.85-15.3 21.44-24.78 30.58-4.66 4.49-9.39 8.9-13.9 13.53-2.28 2.34-4.5 4.73-6.61 7.21a13.76 13.76 0 00-2.55 6.67c-.45 2.95.24 6.06 3.25 7.29 2.73 1.12 6 .47 8.72-.37a34.93 34.93 0 009.9-4.9 29.67 29.67 0 008.79-10.23c1.93-3.51 3.53-7.2 5.54-10.67s4.23-6.72 6.48-10c4.48-6.48 9-12.95 11.84-20.34.57-1.41-1.8-1.99-2.33-.6zm1.89-77.83c-.33 5.82 3.35 11.6 2 17.78 3.29 10 11-11-1.83-17.88" fill="#797a7a"/><path d="M316.15 290.56c-.25 5.5 2.72 10.62 2.21 16.12a7.42 7.42 0 00-.21 2 5.34 5.34 0 00.42 1.09 5.6 5.6 0 00.89 1.46 2.62 2.62 0 002.58.94c2-.5 2.91-3 3.34-4.8a17.84 17.84 0 00-.14-8.83 14.73 14.73 0 00-7.13-9.11c-1.37-.74-2.6 1.35-1.23 2.09 5 2.75 7.24 8.59 6.41 14a14.56 14.56 0 01-.35 1.59 5.83 5.83 0 01-.22.71l-.12.33c-.11.28 0 .08-.1.23a6.36 6.36 0 01-.53 1c-.18.26.08-.06-.19.22 0 .06-.11.11-.17.17s.16-.22 0 0a.64.64 0 01-.18.1c.38-.14.13 0 .06 0h.08-.17.2-.12c-.06.06.2 0 .05 0a.62.62 0 01-.17-.11c.24.28 0 0 0-.07s-.22-.27 0 0a2.2 2.2 0 01-.17-.25c-.11-.19-.22-.39-.32-.59a3.14 3.14 0 01-.18-.46c-.1-.35-.16.47 0-.24a7.28 7.28 0 00.17-1.23c.57-5.58-2.45-10.73-2.2-16.27.08-1.56-2.35-1.55-2.42 0z" fill="#797a7a"/><path d="M235.06 240.79c-2 5.69-.37 14.05-6.5 17-2.79 5.13 5.46 13.23-8.23 9.18-4.85 6.83 8.2 10.69 10.91 4.23 1.39-3.63.3-8.09 4-10.47 3.62-5.4 2.72-15.15-1.1-20.27" fill="#c6c6c6"/><path d="M233.9 240.47c-1 2.92-1.1 6-1.63 9.07a14.26 14.26 0 01-1.27 4.23 7.72 7.72 0 01-2.91 2.9c-1.6 1.1-1.46 3.85-1.24 5.56.16 1.31.74 3.18.38 4.25a.41.41 0 01-.26.24 4 4 0 01-1 .14 19.2 19.2 0 01-5.28-1.06 1.24 1.24 0 00-1.36.56c-1.82 2.66-1.54 5.84 1.14 7.77a9 9 0 008.26 1 6.49 6.49 0 003.4-2.94c1-1.91 1-4.17 1.42-6.25a8.17 8.17 0 01.91-2.72c.62-1 1.68-1.53 2.28-2.59a16.19 16.19 0 001.89-6.11c.6-5-.41-10.61-3.4-14.71-.91-1.24-3 0-2.09 1.22a18.59 18.59 0 013.23 10.85 17.38 17.38 0 01-.91 5.77 6.62 6.62 0 01-1.07 2.18 16.63 16.63 0 00-1.85 1.9 12.32 12.32 0 00-1.58 5.2c-.22 1.53-.33 3.39-1.31 4.66-1.43 1.84-4.19 2-6.23 1.31a4.37 4.37 0 01-2.66-2c-.57-1.17 0-2.35.66-3.35l-1.37.56c2.32.67 6 2 8.29.61 1.63-1 1.52-2.93 1.28-4.57s-.7-3.5-.2-5.24c.14-.5.49-.45 1.11-.9a8.74 8.74 0 001.66-1.61 12 12 0 002-4.31c1-3.62.83-7.45 2-11 .5-1.48-1.83-2.11-2.33-.64zm24.48 12.87a21 21 0 01-11.33-1.53c-.25 3.76 5.67 4.89 7.07 8.06 1.66 3.33 2 7.71 6.15 8.87 7.73 4.15 10.46-6.4 9.36-12.17-1.55-5.38-7.34-8.53-11.61-11.74-2.17.57-1.35 4.33-.33 5.74.64.92 1.62 2 1.18 3" fill="#c6c6c6"/><path d="M258.38 252.13a20.37 20.37 0 01-10.72-1.37 1.24 1.24 0 00-1.83 1.05c-.07 2.53 1.85 4.12 3.74 5.45a17.24 17.24 0 012.72 2.09 8.78 8.78 0 011.63 3.19c.91 2.45 1.82 5.08 4.15 6.55a14.24 14.24 0 003.73 1.56 6.5 6.5 0 003.13.08c4.39-1 5.88-6.54 6.11-10.43a11.54 11.54 0 00-1.5-6.9 23 23 0 00-6.4-6.37c-1.36-1-2.76-1.95-4.12-3s-2.64 0-3.22 1.23a5.66 5.66 0 00-.07 3.81 7.29 7.29 0 00.7 1.74c.37.64 1.5 1.58 1.28 2.38a1.21 1.21 0 002.33.64c.56-2-1.06-3.06-1.75-4.72-.27-.64-1-2.82 0-3.16l-.93-.12c3.45 2.59 7.62 4.85 10 8.61 1.79 2.88 1.55 6.56.52 9.69-.88 2.66-2.79 5-5.83 4a7.19 7.19 0 01-4.5-3.18c-.91-1.65-1.37-3.51-2.15-5.22a10.24 10.24 0 00-3.94-4.16c-1.33-.93-3.27-2-3.21-3.83l-1.83 1a22.68 22.68 0 0011.95 1.7c1.52-.2 1.54-2.62 0-2.42zm-53.11-104.97c-34.64 23.4-38 72.93-36.75 111.26 1.16 1.41 3.33-.32 4.15-1.95 11-27.05 4.73-60.66 22.83-85.39 5.16-6.94 17.05-11.7 16-21.53-.68-2.13-3.48-3.6-5.28-2.27" fill="#c6c6c6"/><path d="M204.66 146.12c-13.65 9.27-23 23.07-28.63 38.41-5.78 15.69-8 32.56-8.69 49.2-.34 8-.44 16.17-.05 24.21.12 2.26 2.5 2.65 4.18 1.6 1.91-1.19 2.59-3.23 3.32-5.24a97.36 97.36 0 003.74-13.65c3.75-18.47 3.62-37.91 10.68-55.62a60.64 60.64 0 016.64-12.37c2.21-3.16 5.23-5.54 8.14-8s5.64-4.87 7.34-8.13c1.59-3 2.62-7.64-.61-10a4.47 4.47 0 00-5.07-.32c-1.31.84-.09 2.94 1.22 2.09 1.53-1 3.49.52 3.52 2.17a10 10 0 01-1.08 4.67c-1.53 3-4.15 5.3-6.67 7.46a58.53 58.53 0 00-7.48 6.94 51.77 51.77 0 00-6.64 11c-7.38 15.86-8.22 33.61-10.8 50.65a146.64 146.64 0 01-2.81 14.41c-.6 2.34-1.28 4.67-2.07 7a30.16 30.16 0 01-1.2 3.21c-.25.53-1.57 2.48-2.26 1.77l.35.86c-.52-15.75-.26-31.63 2.14-47.23s6.88-31.07 15.63-44.27a67.91 67.91 0 0118.38-18.71c1.28-.87.07-3-1.22-2.09zm100.19 54.16c-9.2-7.36-6.71 16.79-9.87 20.26-8.36 2.37-17.55-3.78-25.77-.95-12.36 8.66 25.22 25.51 36.64 17.25 10.41-5.62 9.93-33.6-2.12-37.65" fill="#c6c6c6"/><path d="M305.7 199.42c-1.52-1.19-3.5-2.33-5.44-1.39-1.6.79-2.39 2.58-2.91 4.19-1.45 4.46-1.42 9.29-2.19 13.89a17.48 17.48 0 01-.6 2.65 5.34 5.34 0 01-.31.73c-.11.28-.21.14 0 0a13.59 13.59 0 01-1.52.23c-4.41.55-8.79-.82-13.09-1.57a29 29 0 00-6.3-.57c-1.79.08-4 .25-5.4 1.42a6 6 0 00-2.39 4.35c-.15 3.92 3.76 7 6.65 9a48.24 48.24 0 0014.95 6.49c4.86 1.26 10.28 2 15.24.82a14.66 14.66 0 009.89-8.93 32.8 32.8 0 001.81-17c-.71-5.17-2.61-10.84-6.93-14.11a11.35 11.35 0 00-3.1-1.63c-1.48-.52-2.11 1.82-.65 2.33 4.41 1.54 6.62 6.38 7.68 10.58a32.14 32.14 0 010 15.83c-1.1 4.22-3.24 8-7.33 9.91-3.86 1.78-8.7 1.32-12.75.57a49.62 49.62 0 01-14.46-5.08c-3-1.62-7.09-4-8.31-7.32a2.93 2.93 0 01.41-3.1c1.8-2.33 5.95-1.84 8.55-1.5 4 .51 7.87 1.7 11.9 2a17.25 17.25 0 005.86-.43 2.62 2.62 0 001.76-1.86 21 21 0 001.11-5.28c.29-2.19.49-4.4.8-6.59a25.35 25.35 0 011.34-6 4.82 4.82 0 011-1.65 1.34 1.34 0 011-.38 4.71 4.71 0 012.08 1c1.21 1 2.94-.75 1.71-1.71zm-150.16-10.06c-22 48.06-9.86 81.6 2.93 129.85.52 5.06 6.24 6.68 7.76 1.18-11.73-39.29-13.1-81.12-4.86-122.06.5-2.91 1-6.19-.77-8.6s-6.54-2.14-6.8.8" fill="#c6c6c6"/><path d="M154.5 188.75c-8.18 17.91-12.85 37.06-12.29 56.81.52 18.49 5.06 36.57 9.81 54.35q2 7.56 4.08 15.12l1 3.59a19.45 19.45 0 00.78 2.93 5.8 5.8 0 003 3.12 4.4 4.4 0 004-.26 5.59 5.59 0 002.57-4 16.11 16.11 0 00-1-3.72c-.38-1.36-.76-2.72-1.12-4.09-.69-2.65-1.35-5.31-1.95-8a247.09 247.09 0 01-5.79-64.68 261.26 261.26 0 013.46-33c.46-2.76 1-5.5 1.52-8.25a18.48 18.48 0 00.34-6.46c-.62-3.57-3.85-6.24-7.53-5a3.82 3.82 0 00-2.71 3c-.2 1.53 2.13 2.18 2.34.65.18-1.33 1.46-1.69 2.66-1.51 1.89.28 2.72 1.93 2.93 3.7a21.73 21.73 0 01-.69 6.61c-.48 2.51-.94 5-1.35 7.54a264.09 264.09 0 00-3.28 30.35 251.07 251.07 0 004.21 60.32q1.45 7.5 3.39 14.9c.3 1.14.6 2.28.92 3.41s.88 2.56 1.1 3.85a2.46 2.46 0 01-2.15 2.58 3 3 0 01-2.67-2 17.24 17.24 0 01-.59-2.38l-1-3.81c-1.24-4.62-2.5-9.24-3.74-13.86-4.49-16.75-8.9-33.73-9.9-51.12a122 122 0 018.68-52.16c1-2.46 2-4.88 3.12-7.28.64-1.41-1.44-2.64-2.09-1.22z" fill="#c6c6c6"/><path d="M244.28 132.7c-66.48-6.07-121.71 79.63-96.62 144.3 11.24 22.5 11.23 33.36 12.49 42.17s33.87 40.59 80.83 41 74-21.75 76.2-28.87.22-15.79 5.39-20.88C373.5 260.16 350.18 135 244.28 132.7z" fill="none" stroke="#fdfdfd" stroke-linecap="round" stroke-linejoin="round" stroke-width="3.23"/><path d="M159.57 314.53s13.76-61.14 15.25-98.46c1.43-35.87 16.31-93.57 110.38-74.64m20.87 11.84c43 47 46 78.73 4.15 135.49-6.33 12.69-57.88 45.24-69.24 71.4" fill="none" stroke="#fdfdfd" stroke-linecap="round" stroke-linejoin="round" stroke-width="1.61"/><path d="M332.69 217.57s6.66 2.89 8.14 6.84c0 0 4.25-.72 6.49 1.35m-15.16.98s5.23 1.62 6.48 9.37c0 0 4.95.54 7.19 2.6m-16.13 0s4.71-.86 5.95 6.9c0 0 5 2.29 7.19 4.36m-18.04-2.64a12.72 12.72 0 015.94 8.34s4.41 3.73 6.65 5.79m-17.08-4.24c.74-.14 4.3 5.18 4.12 9.09 0 0 4.31.78 4.85 3.31m0-63.48s4.48-4 10.73 4.36c0 0 1.32-1.58 4.69-.94m-17.24-13.03s4.71-3 9.19 3.1c0 0 1.7-2.34 4-1.92m-16.39-12.18s2-2.77 7.46 3.53a3.72 3.72 0 013.54-2.07m-16.9-10.92s1.65-2 6.44 1.36l2.66-3.33m-16.03-8.01s4.43-.28 6.93 2.15l1.8-2.63m-17.61-8.39a10.18 10.18 0 0110.8 2.77m-21.19-8.18s7.14-3.29 10.53-.92" fill="none" stroke="#fdfdfd" stroke-linecap="round" stroke-linejoin="round" stroke-width="2.42"/><path d="M315.58 266.65s2.35 7.33 1.6 10.84c0 0 3.67.05 4.92 2.27m-11.1-4.05s2.1 5.1 1.74 8.6c0 0 3.53 2.94 3.53 4.88m-10.27-4.3s1.73 5.1 1.52 7.75c0 0 4.64 2.23 4.92 5.42m-14.32-6.33s1.24 7.25 0 10c0 0 5.4.57 6.24 2.72m-15.64-5.79a19.12 19.12 0 011.5 9.9 7.64 7.64 0 016.5 2.13" fill="none" stroke="#fdfdfd" stroke-linecap="round" stroke-linejoin="round" stroke-width="1.61"/><path d="M279.79 304.94c1.54.88 2.36 2.73 2.9 4.33a12.09 12.09 0 01.83 4.44.92.92 0 00.91.91 9.7 9.7 0 015.86 2.36c.87.76 2.16-.52 1.28-1.29a11.63 11.63 0 00-7.14-2.89l.91.91a14.09 14.09 0 00-1-5.2c-.7-2-1.76-4.06-3.64-5.14a.91.91 0 00-.92 1.57zm-9.59 8.7a11.65 11.65 0 013.57 9.38.91.91 0 00.91.91 16.4 16.4 0 017.52 1.23.92.92 0 001.24-.32.91.91 0 00-.32-1.24 18.26 18.26 0 00-8.44-1.48l.91.9a13.41 13.41 0 00-4.11-10.66c-.85-.81-2.13.47-1.28 1.28zm-8.47 6.92a11.81 11.81 0 014.2 8.81 1.23 1.23 0 001.21 1.21 13.92 13.92 0 017.62 2.09c1.33.83 2.54-1.27 1.22-2.09a16.38 16.38 0 00-8.84-2.42l1.22 1.21a14.22 14.22 0 00-4.92-10.52 1.24 1.24 0 00-1.71 0 1.22 1.22 0 000 1.71zm-8.22 9.61a25.68 25.68 0 013.49 3.18 3.37 3.37 0 01.9 3.59c-.4 1 .7 1.59 1.49 1.49a23.81 23.81 0 017.2.11 1.25 1.25 0 001.49-.84 1.22 1.22 0 00-.85-1.49 27.78 27.78 0 00-8.49-.12l1.49 1.49c1.58-3.87-2.4-7-5-9.12a1.25 1.25 0 00-1.71 0 1.21 1.21 0 000 1.71zm-7.07 8.21c1.16 2 2.44 4.42 4.49 5.68 1.46.89 3.21.86 4.87.95a27.54 27.54 0 014.05.53 1.25 1.25 0 001.49-.85 1.23 1.23 0 00-.85-1.49 54.67 54.67 0 00-6.51-.71h-.5l-.27-.05-.47-.13-.22-.08s.19.1 0 0a3.3 3.3 0 01-.41-.23l-.21-.14c-.16-.1.14.14-.06 0a9.35 9.35 0 01-.89-.89c-.24-.29-.27-.33-.46-.59s-.39-.56-.57-.84a46.8 46.8 0 01-1.37-2.26 1.21 1.21 0 00-2.09 1.23zm-5.72 6.28a17.65 17.65 0 003.75 4.33 8 8 0 005.54 1.72 1.24 1.24 0 001.21-1.21 1.22 1.22 0 00-1.21-1.21 5 5 0 01-2.31-.24l-.32-.11c-.21-.08.05 0-.07 0a4.18 4.18 0 01-.56-.28l-.48-.29-.27-.2c-.18-.12 0 0-.08-.05a12.71 12.71 0 01-1.72-1.72 2.11 2.11 0 00-.19-.23l-.1-.13-.36-.48c-.25-.36-.5-.72-.74-1.09a1.25 1.25 0 00-1.66-.43 1.22 1.22 0 00-.43 1.66zm-3.92 4.73a13 13 0 006.24 5 1.21 1.21 0 001.49-.84 1.24 1.24 0 00-.84-1.49l-.21-.08c-.17-.07-.06-.07 0 0-.07-.08-.29-.13-.39-.18-.26-.12-.52-.26-.77-.4s-.49-.3-.73-.47l-.36-.25-.08-.06c.15.11-.07-.06-.08-.07a10.36 10.36 0 01-1.23-1.16c-.1-.1-.2-.21-.29-.32l-.14-.17s-.17-.23-.07-.08 0-.06-.06-.09l-.13-.17-.27-.4a1.21 1.21 0 00-2.09 1.23z" fill="#fdfdfd"/><path d="M244.75 355.78a19.62 19.62 0 005-.23.9.9 0 00.63-1.12.92.92 0 00-1.11-.63l-.59.09h-.45c-.38 0-.76.07-1.14.08a18 18 0 01-2.32-.06.91.91 0 00-.91.91.94.94 0 00.91.91zm-11.89-1.33a26.49 26.49 0 007.95 5.37 1.25 1.25 0 001.66-.44 1.22 1.22 0 00-.44-1.65 24.26 24.26 0 01-7.46-5 1.23 1.23 0 00-1.71 0 1.24 1.24 0 000 1.72zm45.54-214.26a36.81 36.81 0 013.1 2.89c.24.26.47.52.7.79l.13.17c.22.27-.14-.19.07.09l.28.38a11.37 11.37 0 011.05 1.86 1.22 1.22 0 001.66.43 1.23 1.23 0 00.43-1.65c-1.21-2.72-3.49-4.77-5.71-6.67a1.21 1.21 0 10-1.71 1.71zm-9.08.04a11 11 0 01.86 1l.12.15c.1.12-.14-.2-.05-.07l.18.24c.13.19.26.37.38.56a12.17 12.17 0 01.63 1.11l.27.58c.07.15 0 0 0-.08a.78.78 0 00.05.14l.14.35a1.34 1.34 0 00.55.73 1.28 1.28 0 00.94.12 1.23 1.23 0 00.84-1.49 13.81 13.81 0 00-3.16-5 1.21 1.21 0 00-1.72 1.71zm-11.93-6.3a3.93 3.93 0 01-1.74 2 1.2 1.2 0 00-.57 1.21 1.22 1.22 0 00.86 1 17.86 17.86 0 012.08 1 20.07 20.07 0 012.08 1.36l.77.63c.31.28.62.56.91.85a19.07 19.07 0 011.69 1.91 1.23 1.23 0 001.72 0 1.24 1.24 0 000-1.71 20.31 20.31 0 00-8.6-6.38l.29 2.21a6.18 6.18 0 002.6-2.89 1.26 1.26 0 00-.43-1.66 1.22 1.22 0 00-1.66.43zm-12.32-.09a6.06 6.06 0 01-.94 2.45 1.21 1.21 0 000 1.22 1.26 1.26 0 001.05.6c-.14 0 0 0 0 0l.25.05a4.21 4.21 0 01.48.12 4 4 0 01.79.32 6.66 6.66 0 01.85.52l.13.09.12.1c.14.12.28.24.41.37l.35.36a1.46 1.46 0 00.16.19s.11.15 0 .05a7.4 7.4 0 01.53.84c.08.14.15.29.22.44-.06-.15 0 .06 0 .11s.05.16.08.23a7.36 7.36 0 01.25 1 1.23 1.23 0 001.49.84 1.24 1.24 0 00.84-1.49 8.24 8.24 0 00-7.08-6.61l1 1.82a8.52 8.52 0 001.27-3.67 1.22 1.22 0 00-1.21-1.21 1.23 1.23 0 00-1.21 1.21zm-13.39.73a9.67 9.67 0 002.38 3.44 24.26 24.26 0 003.07 2.26l.67.46.35.24s.39.3.17.12a9 9 0 011.1 1v-.06l.11.15c.07.11.14.21.2.32a2.53 2.53 0 01.16.33c-.13-.29 0 .09 0 .15s.06.26.09.38 0 .13 0 0v.21a3.23 3.23 0 010 .44v.26a1.26 1.26 0 00.85 1.49 1.22 1.22 0 001.49-.84 5.77 5.77 0 00-.33-3.21 6 6 0 00-1.55-2 22 22 0 00-2.35-1.7c-.39-.26-.79-.52-1.17-.8l-.28-.2-.13-.1c-.2-.15-.39-.31-.58-.48s-.41-.38-.6-.58-.43-.47-.5-.56-.31-.45-.43-.65-.15-.26-.22-.39l-.15-.32a1.25 1.25 0 00-1.49-.84 1.21 1.21 0 00-.84 1.49zm-10.43 3.18a6.09 6.09 0 011.51 1.94c.2.39.35.83.58 1.21a1.53 1.53 0 001.21.63 11.63 11.63 0 013.38 1.15 7.87 7.87 0 011.43.94 4.17 4.17 0 011 1.19 1.67 1.67 0 01.28.6 3.37 3.37 0 01.12.48c.05.26 0-.08 0 .17a4.05 4.05 0 01-.39 1.88 1.21 1.21 0 00.84 1.49 1.24 1.24 0 001.49-.84 5.75 5.75 0 00-1.63-6.64 12.56 12.56 0 00-6.41-2.83l.72.56A9.81 9.81 0 00223 136a1.21 1.21 0 00-1.71 1.71zM207.07 141c.65 2.42 1.59 5.82 4.36 6.58a9.92 9.92 0 002.61.17 10 10 0 011.34.07h.17l.36.09a5.74 5.74 0 01.8.26l.33.15.47.26a7.21 7.21 0 01.92.64 15.49 15.49 0 012.33 2.39 1.21 1.21 0 001.71-1.71c-1.91-2.34-4.28-4.29-7.38-4.56-.83-.08-1.66 0-2.48 0h-.27s.24 0 0 0a5.44 5.44 0 01-.54-.15s.18.11 0 0l-.23-.14c-.23-.14.09.11-.06 0l-.26-.25-.12-.15c-.09-.12-.18-.24-.26-.37a10.28 10.28 0 01-.49-.93 20.08 20.08 0 01-.95-2.9 1.21 1.21 0 00-2.33.65zm-8.22 5.05a23.59 23.59 0 013.83 5.81 1.23 1.23 0 001.37.56 5.87 5.87 0 017.65 3.2c.7 1.39 2.79.17 2.09-1.22a8.27 8.27 0 00-10.38-4.32l1.36.56a26.14 26.14 0 00-4.2-6.3c-1-1.16-2.75.56-1.72 1.71zm-10.12 10.25a7.23 7.23 0 013.92 2.61c.6.7.95 1.4 2 1.34.63 0 1.27-.07 1.9-.08 2.17 0 5 .18 5.75 2.62.47 1.48 2.81.85 2.34-.64-1.41-4.5-6.39-4.54-10.3-4.3l.86.36c-1.5-1.94-3.33-3.71-5.81-4.25-1.52-.33-2.16 2-.64 2.34zm-6.51 10.91a8.9 8.9 0 013.11 2.68 1.2 1.2 0 001.18.31c4-1.48 8.89-.69 11.52 2.9a1.24 1.24 0 001.65.43 1.21 1.21 0 00.44-1.65 12.32 12.32 0 00-14.25-4l1.17.31a11.1 11.1 0 00-4.18-3.29 1.22 1.22 0 00-1.49.84 1.25 1.25 0 00.85 1.49zm-4.9 12.53a17.17 17.17 0 012.71 2.94 1.23 1.23 0 001.65.43c2.8-1.69 7-3.26 9.88-.94a1.24 1.24 0 001.71 0 1.22 1.22 0 000-1.71c-3.86-3.08-8.92-1.79-12.81.56l1.66.44A19.73 19.73 0 00179 178c-1.17-1-2.89.69-1.71 1.71zm-4.87 12.49a23.78 23.78 0 013.52 4 1.23 1.23 0 002.09 0 8.73 8.73 0 019.29-3.36 1.21 1.21 0 00.64-2.34A11.22 11.22 0 00176 195h2.09a27.19 27.19 0 00-3.89-4.47c-1.15-1.06-2.87.65-1.72 1.71zM170 205.68q2.3 1.71 4.41 3.63a1.23 1.23 0 001.72 0c1.93-2.19 4.66-4.95 7.87-4.07a1.21 1.21 0 00.65-2.33c-4.15-1.14-7.67 1.78-10.24 4.69h1.72a64.288 64.288 0 00-4.9-4 1.22 1.22 0 00-1.66.43 1.25 1.25 0 00.43 1.66zm-1.25 11.74a26.82 26.82 0 015 3.71 1.22 1.22 0 001.9-.24l.14-.22c.14-.21-.12.15 0 0l.12-.14c.2-.22.4-.44.61-.65a20.46 20.46 0 011.62-1.47 13.24 13.24 0 011.57-1.14 7.29 7.29 0 01.78-.42c-.25.11 0 0 .14 0s-.25 0 0 0a1.21 1.21 0 000-2.42c-1.49 0-2.93 1.27-4 2.15a12.87 12.87 0 00-3.06 3.1l1.9-.24a29.38 29.38 0 00-5.51-4.09 1.21 1.21 0 00-1.22 2.09zm-1.28 10.36a23.76 23.76 0 014.75 4.75 1.23 1.23 0 002.09 0 9.49 9.49 0 015.05-4 1.21 1.21 0 00-.65-2.33 12 12 0 00-6.49 5.13h2.09a27.72 27.72 0 00-5.62-5.62 1.21 1.21 0 00-1.65.43 1.25 1.25 0 00.43 1.66zm-.09 10.92c-.26 0-.33-.06-.21 0-.21-.09-.25-.11-.14-.05a2 2 0 00.19.12 5.81 5.81 0 01.57.4l.24.19.31.26.78.66c.93.82 1.85 1.66 2.73 2.55a1.23 1.23 0 001.9-.25 6.49 6.49 0 015.75-2.41 1.21 1.21 0 000-2.42 8.9 8.9 0 00-7.84 3.61l1.9-.25c-1-1-2-1.92-3.07-2.83-.88-.76-1.9-1.83-3.11-2a1.21 1.21 0 00-1.21 1.21 1.25 1.25 0 001.21 1.21zm-1.09 10.44a27.88 27.88 0 014 3.05 1.26 1.26 0 001.47.19 8.49 8.49 0 016.58-.33 1.21 1.21 0 00.64-2.34 11 11 0 00-8.44.58l1.47.19a31.35 31.35 0 00-4.53-3.43c-1.33-.83-2.54 1.27-1.22 2.09zm-2.75 10.25c1.27 1.87 2.63 3.68 4.06 5.43a1.24 1.24 0 001.47.19 6.59 6.59 0 016.73.38 1.21 1.21 0 001.2-2.09 9 9 0 00-9.17-.38l1.47.19a68.17 68.17 0 01-3.69-4.94 1.24 1.24 0 00-1.65-.44 1.22 1.22 0 00-.44 1.66zm.19 12.8c-.2-.15.15.16.19.2a4.4 4.4 0 01.35.39c.21.25.39.51.6.81.39.57.75 1.16 1.1 1.75a3.37 3.37 0 00.94 1.26 2.41 2.41 0 001.25.23c1.26 0 2.53-.09 3.79-.08.75 0 1.5 0 2.24.09a7 7 0 01.84.13l.45.11c.05 0 .48.17.21.06a1.25 1.25 0 001.65-.44 1.21 1.21 0 00-.43-1.65c-2.6-1.1-5.66-.69-8.41-.64h-.59c-.16 0-.32-.09.06 0h-.07a1.08 1.08 0 01.63.5 5.85 5.85 0 00-.69-1.15 12.55 12.55 0 00-2.84-3.66 1.21 1.21 0 00-1.65.44 1.23 1.23 0 00.43 1.65zm-1.02 7.47c.1 2 .36 4.43 2.22 5.59 1.35.84 3.1.8 4.6 1.14a11 11 0 013.41 1.39c1 .62 1.91-.95.91-1.56a14.54 14.54 0 00-5.61-1.9 10.13 10.13 0 01-2.05-.45h.06l-.12-.06-.17-.09-.2-.12c-.17-.1.07.08-.07-.06a3 3 0 01-.31-.31c.12.13 0 0-.06-.08l-.15-.26a1.69 1.69 0 01-.2-.46 7.1 7.1 0 01-.22-.79 12.24 12.24 0 01-.22-2c-.06-1.16-1.88-1.17-1.82 0zm-1.9 9.59a25.64 25.64 0 002 6.29.91.91 0 001.24.33.93.93 0 00.33-1.24 23.76 23.76 0 01-1.83-5.86.91.91 0 10-1.75.48z" fill="#fdfdfd"/><path d="M163.41 295.6a12.41 12.41 0 008.18 1.84.94.94 0 00.91-.91.92.92 0 00-.91-.91 10.85 10.85 0 01-7.26-1.59c-1-.63-1.9.94-.92 1.57zm-1.15 6.3a11.16 11.16 0 009.64 4.71c1.16-.07 1.16-1.88 0-1.81a9.32 9.32 0 01-8.07-3.82.91.91 0 10-1.57.92zm-1.53 4.8a14.63 14.63 0 008.84 6.34c1.14.27 1.62-1.48.49-1.75a12.73 12.73 0 01-7.76-5.5c-.63-1-2.2-.08-1.57.91zm-1.34 5.3c1.46 2.75 3.26 5.64 6.42 6.59a.91.91 0 00.48-1.75l-.51-.18c-.2-.07.05 0-.11 0l-.24-.12a7.34 7.34 0 01-.89-.55c-.23-.16.12.11-.1-.07l-.2-.17-.39-.35a10.41 10.41 0 01-.71-.78l-.17-.21c-.12-.14 0 .07-.08-.1l-.31-.43c-.2-.3-.4-.6-.59-.91-.36-.6-.7-1.22-1-1.84a.9.9 0 10-1.56.91z" fill="#fdfdfd"/><path d="M325.53 111.38c-3.78 5.53-7.17 22.4 4.63 15.73.31 3.16-3.1 21.07 3.68 12.43 4.29 6 4.49 14.48 12 17.13 2.34 7.4.6 13.59 10.72 16.58-1.16-8.68 2.35-28.81-5.52-33.36-4.3-2.13 3.25-17.32-4-14-9.46 1.21-3.68-13-9.8-16.13-2.77-1.44-7.32-.31-8.3-3.28a30.35 30.35 0 01-2.89 5.24" fill="#f9f9f9"/><path d="M133.45 438.85s155.28-12.31 227.71 2.37" fill="none" stroke="#636363" stroke-linecap="round" stroke-linejoin="round"/><path d="M121.8 180.84s2.11 28.62 0 44.25.11 29.7.11 32.87 1.9 33.07 1.9 33.07m247.52-102.37s5.79 47.28 0 75.34l.81 27.56M126.88 461.87c-1.35-11.26 1.94-18.53.53-29.31-6.15-46.82-1.39-94.37-3.6-141.53" fill="none" stroke="#262521" stroke-linecap="round" stroke-linejoin="round" stroke-width="3"/><path d="M451.48 253.83c7.9 31.1 12 62.92 8.94 95.67-1.19 18.65-.23 37.45-3.28 55.95-.49 4.66-5.21 7.1-5.56 11.78-1.22 5.28-2.08 10.65-2.91 16-.4 2.6-.41 2.83-3.08 2.33-12.48-2.66-25.26-5.49-37.8-1.58-8.34-.15-8.13-15.56-11.44-21.4-6.28-7.37-3.61-9-5.33-17.64-.9-9.7-4.68-20.27.79-29.26 2-3.53 1.86-7.05.51-10.66-4.9-11.28-7.4-23.41-10.45-35.29-1.07-4.3-1.31-8.49 1.61-12.34 1.51-7.23-10.43-8.68-10.93-15.93l-.41.09q-.27 61.72-.62 123.46c-.81 9-2.68 16.41-3.55 25.44-1 10.07 1.34 17.05-1.5 25.64M51.5 431.81c-2-7.76-2.18-16.67-8.49-22.43a6.62 6.62 0 01-1.33-3.22 144.41 144.41 0 01-2.68-33.3c-1.33-43.85.45-88.13 9.6-130.91m64.26 106.28c-.25 3.15-1.35 6.27-.37 9.58.51 8.44-3.19 16.94-4.38 25.31-1.5 8-2.61 15.83-1.54 23.93a5.1 5.1 0 01-1.13 3.3c-5.71 6.28-7.75 14-9.19 22.06" fill="none" stroke="#262521" stroke-linecap="round" stroke-linejoin="round" stroke-width="3"/><path d="M194.62 56.1c2.77 14.3 15 50.28 52.49 50.23 39.57 0 51.53-38 53.68-50.23" fill="none" stroke="#636363" stroke-linecap="round" stroke-linejoin="round"/></svg>