<svg xmlns="http://www.w3.org/2000/svg" width="500" height="550" viewBox="0 0 500 550"><title>s03e01-01</title><path d="M365.52,416.93s-1.73,60.44-5,62.62-151.41,0-167.06-3.27-53.14,5-57.87,4.15-5.46-10.89-3.64-18.53,1.36-45,1.36-45Z" fill="#fff" stroke="#262521" stroke-linecap="round" stroke-linejoin="round" stroke-width="3"/><path d="M372.64,291.45q-.25,61.74-.61,123.46c-.81,9-2.68,16.41-3.55,25.45-1,10.07,1.34,17-1.5,25.63-.59,1.77-2,1.67-3.35,1.43C319,459.69,262,461.71,217,464.5c-24.59.58-58.61-1.67-83,2.09-5.23.6-5.68.28-6.62-4.82-1.35-11.26,1.94-18.53.52-29.31-6.14-46.82-1.38-94.38-3.6-141.53-1.41,2.82-2.93,5.6-4.28,8.46-2.37,10.67-17.5,9.3-11.81,16.18,11.11,7.95,6.4,21.38,5.15,32.56-.25,3.15-1.35,6.27-.37,9.58.5,8.43-3.19,16.94-4.38,25.31-1.5,8-2.61,15.83-1.54,23.93a5.1,5.1,0,0,1-1.13,3.3c-5.71,6.28-7.75,14-9.19,22.06-.57,3.17-.61,3-3.74,2.05-12.38-3.52-26.09-4.38-38.6-1.18-1.39.34-2.11,0-2.41-1.47C50,424,49.83,415,43.52,409.28a6.66,6.66,0,0,1-1.33-3.22,144.54,144.54,0,0,1-2.72-33.31c-1.91-63,2.6-126.93,26.19-186,13.61-35.43,24.56-73.32,48.06-103.67,27.33-18.2,60-23.76,90.46-34.78a3.15,3.15,0,0,1,2.73.43c5,5.55,11.46,8.41,18.56,9.67,19.18,2.42,41.29,5.55,58.64-4.88,2.86-1.27,4.21-6.53,7.88-5C321.11,59,353,62.93,379.42,80.11c15.95,14.59,21.63,38,30.46,57.2,27.81,67.49,58,137.4,51.05,212.08-1.19,18.66-.23,37.45-3.28,56-.49,4.66-5.21,7.09-5.56,11.78-1.22,5.28-2.08,10.65-2.91,16-.4,2.6-.41,2.83-3.09,2.32-12.47-2.65-25.25-5.48-37.79-1.58-8.34-.14-8.13-15.55-11.44-21.4-6.28-7.36-3.61-9-5.33-17.63-.9-9.7-4.68-20.27.79-29.26,2-3.54,1.86-7,.51-10.66-4.9-11.29-7.4-23.42-10.45-35.3-1.07-4.3-1.31-8.49,1.61-12.33,1.51-7.24-10.43-8.68-10.93-15.93Z" fill="#262521" stroke="#262521" stroke-linecap="round" stroke-linejoin="round" stroke-width="3"/><path d="M405.53,130.6c-8.82-20.21-10.16-35.9-26.11-50.49C353,62.93,306.33,53.44,306.33,53.44l.82,8-3,3,.72,4.62-3.3,2.82.21,4.33L298,78.26,298,83l-3.74,1.35-.86,4.79-4.11,1.44-1.06,4.61L284,96.3l-1.81,4-4.68.59-2.27,3.85-4.07-.51-2.89,3.24-4.2-1.21-3.58,2.85L256.57,108l-3.66,2.33-3.52-2.11-4.7,1.93-3.54-1.87-3.51,1.16-3.78-2.84-4.53,1.2-2.7-3.61-4.36.2-2-3.39-4.37-1-2.32-3.6-4.24-1L208,91.22l-4.42-1.8-.5-3.36-3.95-2.53V79.35l-3.92-2.77.06-4.26L192.06,69l.26-3.88-3.18-3.42,2.22-9.15c-30.43,11-50.31,12.31-77.64,30.51-18,23.22-28.86,51.5-28.86,51.5l5.07,23.95,20.26,4.63,4.09,17L133.63,182l7.63,16.6,18-.5,10.59,15.62,18.73-2.19,12.94,14.19,18.51-5.3,13.41,11.79L250,223.32l15.61,8.93,14.26-12.15,17.4,4.65,11.57-13.47L327.57,213l7.95-13.39,18.75-2,6.42-17,17.13-.93,4.91-17.44,18.68-4.9Z" fill="#7c7c7c"/><polygon points="241.29 169.79 249.59 157.23 255.09 169.49 271.83 168.85 256.44 176.61 265.33 180.7 250.82 181.01 240.54 190.04 240.4 183.38 231.13 184.3 238.12 177.48 226.92 169.58 241.29 169.79" fill="#262521" stroke="#bfbfaf" stroke-linecap="round" stroke-linejoin="round" stroke-width="2"/><polygon points="282.72 161.17 272.82 168.98 288.01 168.07 301.76 178.23 302.53 162 313 155.86 300.39 156.37 304.61 148.81 291.03 154.61 281.47 148.09 283.46 155.87 275.35 155.73 282.72 161.17" fill="#262521" stroke="#bfbfaf" stroke-linecap="round" stroke-linejoin="round" stroke-width="2"/><polygon points="215.41 162.38 225.92 169.37 210.7 169.69 197.8 180.91 195.74 164.8 184.81 159.51 197.42 159.01 192.61 151.82 206.61 156.51 215.61 149.25 214.26 157.16 222.32 156.37 215.41 162.38" fill="#262521" stroke="#bfbfaf" stroke-linecap="round" stroke-linejoin="round" stroke-width="2"/><polyline points="190.12 57.85 189.19 62.09 192.32 65.14 191.85 69.48 195.25 72.22 195.19 76.58 198.83 78.99 199.2 83.34 203.07 85.36 203.91 89.65 207.98 91.22 209.34 95.37 213.58 96.4 215.48 100.33 219.83 100.77 222.27 104.39 226.63 104.19 229.57 107.42 233.86 106.6 237.22 109.39 241.36 108 245.06 110.33 249 108.44 252.91 110.33 256.57 108 260.68 109.39 264.01 106.6 268.27 107.42 271.17 104.18 275.5 104.36 277.88 100.72 282.19 100.25 284 96.3 288.2 95.21 289.44 91.05 293.46 89.41 294.18 85.13 297.97 83.02 298.2 78.69 301.75 76.19 301.54 71.86 304.84 69.04 304.23 64.73 307.24 61.62 306.16 57.44" fill="none" stroke="#bfbfaf" stroke-linecap="round" stroke-linejoin="round" stroke-width="2"/><polyline points="162.39 67.54 158.45 74.64 166.1 77.51 163.03 85.09 170.93 87.17 168.63 95.01 176.69 96.31 175.2 104.34 183.36 104.77 182.76 112.92 190.92 112.41 191.29 120.57 199.32 119.06 200.73 127.11 208.5 124.58 210.94 132.38 218.31 128.85 221.74 136.27 228.61 131.84 232.92 138.78 239.22 133.57 244.29 139.98 250 134.13 255.68 139.99 260.72 133.58 266.99 138.8 271.28 131.88 278.12 136.32 281.54 128.92 288.88 132.46 291.31 124.68 299.05 127.23 300.44 119.2 308.45 120.73 308.8 112.58 316.94 113.1 316.31 104.97 324.45 104.55 322.92 96.54 330.97 95.24 328.61 87.44 336.49 85.33 333.37 77.81 340.99 74.91 336.99 67.88" fill="none" stroke="#bfbfaf" stroke-linecap="round" stroke-linejoin="round" stroke-width="4"/><polyline points="99.89 115.02 97.76 128.62 111.59 129.38 110.84 143.21 124.69 142.82 125.05 156.67 138.82 155.18 140.31 168.95 153.91 166.31 156.59 179.9 169.89 176.04 173.84 189.32 186.7 184.17 191.99 196.97 204.23 190.49 210.9 202.63 222.33 194.8 230.35 206.1 240.79 196.99 250.08 207.26 259.08 196.97 269.34 206 276.92 194.62 288.25 202.26 294.34 190.02 306.52 196.22 311.13 183.35 323.94 188.14 327.14 174.85 340.36 178.31 342.27 164.77 355.75 167.01 356.48 153.36 370.1 154.47 369.73 140.8 383.4 140.84 381.96 127.24 395.6 126.2 392.86 112.89" fill="none" stroke="#51504c" stroke-linecap="round" stroke-linejoin="round" stroke-width="4"/><polyline points="87.66 141.21 91.29 159.55 109.77 163.07 115.62 180.95 134.36 182.44 142.16 199.56 160.95 198.86 170.82 214.87 189.35 211.64 201.46 226.04 219.23 219.92 233.61 232.04 250 222.82 265.87 231.99 279.54 219.78 296.89 225.68 308.11 211.16 326.21 214.06 335.06 197.99 353.39 198.33 360.11 181.26 378.36 179.44 383.15 161.73 401.09 157.95 403.71 139.91" fill="none" stroke="#bfbfaf" stroke-linecap="round" stroke-linejoin="round" stroke-width="4"/><path d="M204.65,51.38c.8-.26,4.44,39.77,42.44,41.81s45.37-41.58,45.37-41.58" fill="none" stroke="#636363" stroke-linecap="round" stroke-linejoin="round"/><polyline points="337.69 127.67 333.55 133.14 318.62 131.22 324.3 143.39 312.88 155.64 328.81 149.06 326.1 158.47 335.82 147.69 349.37 145.81 344.42 141.34 346.93 138.96" fill="#262521" stroke="#bfbfaf" stroke-linecap="round" stroke-linejoin="round" stroke-width="2"/><polyline points="344.58 135.49 341.44 135.77 341.8 132.11" fill="none" stroke="#bfbfaf" stroke-linecap="round" stroke-linejoin="round" stroke-width="2"/><polyline points="159.14 126.62 165.37 135.21 180.39 134.2 173.97 146.01 184.63 158.93 169.13 151.39 171.26 160.94 162.22 149.59 148.81 146.88 154.02 142.73 149.49 137.86" fill="#262521" stroke="#bfbfaf" stroke-linecap="round" stroke-linejoin="round" stroke-width="2"/><polyline points="150.61 136.28 157.33 137.13 157.01 128.58" fill="none" stroke="#bfbfaf" stroke-linecap="round" stroke-linejoin="round" stroke-width="2"/><polyline points="337.92 125.34 338.69 123.15 333.9 110.33 340.18 112.56 342.61 103.57 346.5 112.53 357.86 104.86 352.57 118.22 361.36 130.44 347.95 131.23 346.42 135.77" fill="#262521" stroke="#bfbfaf" stroke-linecap="round" stroke-linejoin="round" stroke-width="2"/><polyline points="367.35 73.63 366.83 77.31 353.47 78.74 362.83 90.53 358.17 104.13 369.15 95.92 373.46 104.69 375.47 95.59 381.85 97.53 376.45 84.95 377.43 79.26" fill="#262521" stroke="#bfbfaf" stroke-linecap="round" stroke-linejoin="round" stroke-width="2"/><polyline points="157.25 126.6 156.79 125.15 161.59 112.33 155.31 114.56 152.88 105.57 148.99 114.53 137.63 106.86 142.92 120.22 134.13 132.44 147.54 133.23 148.57 137.27" fill="#262521" stroke="#bfbfaf" stroke-linecap="round" stroke-linejoin="round" stroke-width="2"/><polyline points="117.22 81.3 118.36 84.73 119.03 86.95 113.64 99.53 120.02 97.59 122.02 106.69 126.33 97.92 137.32 106.13 132.66 92.53 142.02 80.74 128.66 79.31 126.01 76.16" fill="#262521" stroke="#bfbfaf" stroke-linecap="round" stroke-linejoin="round" stroke-width="2"/><path d="M213,74.86s-75.77,59.57-84.41,100l-5.52,23.65" fill="none" stroke="#636363" stroke-linecap="round" stroke-linejoin="round"/><path d="M282.93,74.86s75.77,59.57,84.42,100l4.82,21.67" fill="none" stroke="#636363" stroke-linecap="round" stroke-linejoin="round"/><path d="M291.48,48.63c29.12,10.49,61,14.41,87.44,31.58,15.94,14.59,21.63,38,30.45,57.21" fill="none" stroke="#262521" stroke-linecap="round" stroke-linejoin="round" stroke-width="3"/><path d="M65.15,186.85c13.61-35.43,24.56-73.32,48.07-103.67,27.32-18.2,60-23.76,90.46-34.78" fill="none" stroke="#262521" stroke-linecap="round" stroke-linejoin="round" stroke-width="3"/></svg>