<svg xmlns="http://www.w3.org/2000/svg" width="500" height="550" viewBox="0 0 500 550"><path d="M365.26 416.93s-1.72 60.44-5 62.62-63.83-3.88-83.59-1.09c-15.83 2.23-134.44 25.09-139.17 24.21s-7.63-33.13-5.81-40.77 1.37-45 1.37-45z" fill="#fff" stroke="#262521" stroke-linecap="round" stroke-linejoin="round" stroke-width="3"/><path d="M371.88 291.55q-.25 61.74-.61 123.47c-.82 9-2.69 16.41-3.56 25.44-1 10.07 1.35 18.55-1.5 27.13-.58 1.77-2 1.67-3.35 1.44-44.58-7.74-129.42 4.61-138.19-4.3-2.16-2.19 1.07-25-5.91-25-26.35 0-88 7.49-91.34 0-6.14-46.82-1.66-101.53-3.87-148.69-1.41 2.83-2.94 5.6-4.28 8.46-2.37 10.67-17.51 9.3-11.82 16.18 11.12 7.95 6.41 21.38 5.16 32.56-.25 3.15-1.35 6.27-.37 9.58.5 8.44-3.2 16.94-4.39 25.31-1.5 8-2.6 15.83-1.53 23.93a5.17 5.17 0 01-1.14 3.3c-5.71 6.28-7.74 14-9.18 22.06-.57 3.18-.62 3-3.74 2-12.38-3.52-26.09-4.38-38.61-1.18-1.39.34-2.1 0-2.41-1.47-2-7.76-2.17-16.67-8.48-22.43a6.52 6.52 0 01-1.33-3.22 143.91 143.91 0 01-2.72-33.3c-1.92-63 2.6-126.93 26.19-186 13.6-35.4 24.56-73.29 48.1-103.64C140.28 65 173 59.42 203.42 48.4a3.16 3.16 0 012.72.43c5 5.55 11.47 8.41 18.56 9.67 19.19 2.43 41.3 5.55 58.65-4.88 2.86-1.27 4.2-6.53 7.88-5 29.12 10.49 61 14.41 87.43 31.58 15.94 14.59 21.63 38 30.46 57.21 27.81 67.48 58 137.39 51.05 212.07-1.19 18.66-.24 37.46-3.29 56-.48 4.66-5.2 7.09-5.55 11.78-1.22 5.28-2.08 10.65-2.91 16-.41 2.6-.42 2.83-3.09 2.33-12.47-2.66-25.25-5.49-37.79-1.58-8.34-.15-8.14-15.56-11.45-21.4-6.27-7.37-3.6-9-5.32-17.64-.9-9.7-4.69-20.27.79-29.26 2-3.53 1.86-7.05.51-10.66-4.9-11.28-7.4-23.42-10.46-35.29-1.06-4.3-1.31-8.5 1.62-12.34 1.5-7.23-10.43-8.68-10.94-15.93z" fill="#fff" stroke="#262521" stroke-linecap="round" stroke-linejoin="round" stroke-width="3"/><path d="M204.38 48.28s4 48.54 43.67 46.73S290.9 49.6 290.9 49.6" fill="none" stroke="#262521" stroke-linecap="round" stroke-linejoin="round" stroke-width="3"/><path d="M194.62 56.1c2.77 14.3 15 50.28 52.49 50.23 39.57 0 51.53-38 53.68-50.23M51.32 409.51S80 400 96.47 412m305.71 0s25.94-8.31 43.55 0m-218.22 28.19c45.64-.91 100.89-5.31 134.65 1.53" fill="none" stroke="#636363" stroke-linecap="round" stroke-linejoin="round"/><path d="M257.23 305L328 251.15l-70.76-53.79v-11.42L328 238.09v-60.36l-20.41-14.51L328 152.53v-21.45l-56.67 29.68L309 187.53v12.94l-61.23-45.15-61.27 45.15v-12.94l37.67-26.77-56.67-29.68v21.45l20.41 10.69-20.41 14.51v60.36l70.73-52.15v11.44l-70.18 53.77 70.18 53.77v11.84L167.5 264.6V325l20.41 14.51-20.41 10.66v21.45l56.67-29.68-37.67-26.78v-12.94l61.23 45.15L309 302.22v12.94l-37.67 26.78L328 371.62v-21.45l-20.41-10.69L328 325v-60.4l-70.73 52.16zm39.36-53.8l-39.36 29.93v-12l23.62-18-23.62-18v-12zm-97.3 0l38.94-29.83v11.83l-23.62 18 23.62 18V281z" fill="#262521"/><path d="M121.8 180.84s2.11 28.62 0 44.25.11 29.7.11 32.87 1.9 33.07 1.9 33.07m247.52-102.37s5.79 47.28 0 75.34" fill="none" stroke="#262521" stroke-linecap="round" stroke-linejoin="round" stroke-width="3"/></svg>