<svg xmlns="http://www.w3.org/2000/svg" width="500" height="550" viewBox="0 0 500 550"><path d="M299.56 67.36s64 410 60.7 412.19-151.41 0-167.06-3.27-53.13 5-57.87 4.15-5.46-10.89-3.64-18.53 66-394.54 66-394.54z" fill="#898989" stroke="#262521" stroke-linecap="round" stroke-linejoin="round" stroke-width="3"/><path d="M409.37 141.51c-8.82-19.21-14.51-42.61-30.45-57.2-26.39-17.18-87.83-31.74-87.83-31.74s-3.33 44.71-43 46.53-43.68-46.73-43.68-46.73-63.87 16.71-91.19 34.91C89.71 117.63 78.76 155.52 65.15 191 41.56 250 37.05 313.94 39 377c-.35 11.19 3.49 22.28 5.72 33.31a6.66 6.66 0 001.28 3.17c6.31 5.76 3.46 14.67 5.49 22.43.3 1.47 1 1.81 2.41 1.47 12.51-3.2 26.22-2.34 38.6 1.18 3.13.94 3.17 1.12 3.74-2.05 1.44-8 10.36-41.32 11.86-49.29 1.19-8.37 4.89-16.88 4.38-25.31-1-3.31.12-6.43.37-9.58 1.26-11.18 6-24.61-5.15-32.56-5.69-6.88 9.44-5.51 11.81-16.19 1.35-2.85 2.87-5.63 4.29-8.45 2.21 47.15-2.55 94.71 3.6 141.53 1.41 10.78-1.88 18-.53 29.31.94 5.1 1.39 5.42 6.62 4.82 24.35-3.76 58.37-1.51 83-2.09 45-2.79 102.06-4.81 146.65 2.92 1.35.24 2.76.34 3.35-1.43 2.84-8.59.53-15.56 1.5-25.63.87-9 2.74-16.47 3.55-25.45q.3-61.71.62-123.46l.41-.08c.5 7.25 12.44 8.69 10.93 15.93-2.92 3.84-2.68 8-1.61 12.33 3.05 11.88 5.55 24 10.45 35.3 1.35 3.61 1.5 7.12-.51 10.65-5.47 9-1.69 19.57-.79 29.27 1.72 8.67-.95 10.26 5.33 17.63 3.31 5.85 3.1 21.26 11.44 21.4 12.54-3.9 25.32-1.07 37.8 1.58 2.67.5 2.68.28 3.08-2.32.83-5.36 1.69-10.73 2.91-16 .35-4.69 5.07-7.12 5.56-11.78 3.05-18.51 2.09-37.3 3.28-56 6.93-74.65-23.26-144.56-51.07-212.05z" fill="#d8d8d8" stroke="#262521" stroke-linecap="round" stroke-linejoin="round" stroke-width="3"/><path d="M179 76.15s8.57 19.16 12.06 21.37 5.63.3 5.81-.17 1.79-7.25 1.63-9.18-1.77-10.28-1.77-10.28A56.65 56.65 0 01202.27 90c1.88 6.32 3.26 13.14 2.5 15.2s-5 5.88-5 5.88L199 116s-8.25-2.15-11.11-2.46-6.58 1-9.35.34-10.78-9.49-12.67-14-3-10.31-2.62-10.53c0 0 3.6 9.51 9.31 12.71s7.42 3.71 9.12 1.42 1.26-4.86-.25-7-12.29-16.73-12-17.78 7.43 11.3 11.17 11.58 1.14-4.18.77-5.44-3.56-8.61-2.37-8.69zm-34.28 41.02s1 21 3.48 24.3 5.14 2.32 5.48 1.95 4.29-6.12 4.84-8 2.09-10.23 2.09-10.23a57.09 57.09 0 01.74 13.32c-.55 6.56-1.73 13.42-3.19 15.07s-6.83 3.66-6.83 3.66l-2.46 4.24s-6.91-5-9.46-6.33-6.5-1.43-8.83-3.07-6.6-12.75-6.73-17.65.89-10.72 1.38-10.77c0 0-.09 10.17 4.07 15.23s5.56 6.14 8 4.63 2.94-4.08 2.31-6.64-5.38-20-4.73-20.92 2.81 13.32 6.2 14.92 2.58-3.48 2.69-4.8-.21-9.27.95-8.91z" fill="#262521" stroke="#262521" stroke-linecap="round" stroke-linejoin="round" stroke-width=".87"/><path d="M220.79 163.47s14.65 11.56 18.32 11.86 4.56-2.08 4.51-2.53-1.59-6.45-2.51-7.9-5.63-7.37-5.63-7.37a50 50 0 019.36 7.29c4.08 4.2 8 9 8.24 10.94s-1.54 6.71-1.54 6.71l1.41 4.14s-7.39 1.7-9.77 2.64-4.76 3.52-7.23 4.12-12.41-3-15.76-5.8-6.67-6.87-6.41-7.22c0 0 6.76 6 12.58 6.17s7.37-.14 7.77-2.64-1-4.35-3.1-5.43-16.58-8.11-16.79-9 10.57 5.89 13.63 4.56-.83-3.77-1.65-4.61-6.35-5.4-5.43-5.93zM146.6 282.63s15.46-10.47 16.86-13.88-.61-5-1.05-5.06-6.63-.44-8.29 0-8.73 3.13-8.73 3.13a50.17 50.17 0 019.78-6.71c5.24-2.62 11-4.88 12.92-4.53s5.94 3.49 5.94 3.49l4.36-.08s-.61 7.56-.44 10.1 1.92 5.61 1.74 8.14-6.64 10.91-10.31 13.27-8.56 4.27-8.82 3.92c0 0 7.78-4.62 9.7-10.12s2.1-7.07-.17-8.21-4.45-.35-6.11 1.31-12.76 13.35-13.72 13.26 8.83-8.29 8.48-11.61-3.84-.35-4.89.18-6.99 4.44-7.25 3.4z" fill="#262521" stroke="#262521" stroke-linecap="round" stroke-linejoin="round" stroke-width=".77"/><path d="M119.41 339.61s24.85-7.75 28.09-11.73 1.19-6.89.64-7.18-8.68-3.26-11.07-3.35-12.92.68-12.92.68a70.15 70.15 0 0115.77-5c8.05-1.38 16.65-2.09 19.08-.85s6.51 7.06 6.51 7.06l5.86 1.65s-3.86 9.84-4.66 13.31.3 8.26-1 11.57-13.26 11.89-19.11 13.56-13.1 2.23-13.3 1.67c0 0 12.23-3 17-9.6s5.65-8.6 3.08-11-5.81-2.26-8.69-.72-22.4 12.69-23.65 12.18 15.12-7.51 16-12.08-5-2-6.6-1.74-11.11 3.08-11.03 1.57zm54.31 79.12s1.31-7 .51-9.6-7.32-8.27-13.93-13.06a70.24 70.24 0 00-14.61-7.78s7.9 7 9.5 8.78 5.17 9.67 5.34 10.26-.48 4.1-5.59 4.56-28-11.92-28-11.92c-1.12 1 7.56 5.81 8.88 6.77s7.24 3.37 3.36 5.94c-2.37 1.57-9.41-.36-14.42-1.82.05.38.11.77.17 1.16 6.76 2.29 17.54 5.4 19.67 6.07 3.12 1 5.5 3.19 5.55 6.72s-2 4.34-10 5.5c-4.43.64-9.66-1.09-13.47-2.76 0 .76.06 1.52.11 2.27a53.63 53.63 0 005.13 3.4c5.27 3 19.8 5.62 23 4.21s5.91-5.54 8.95-7.4 12.79-6 12.79-6z" fill="#262521" stroke="#262521" stroke-linecap="round" stroke-linejoin="round" stroke-width="1.07"/><path d="M239 266.83s17 16.24 21.62 17.05 6-2.09 6-2.65-1.24-8.29-2.22-10.22-6.21-9.92-6.21-9.92A63.77 63.77 0 01269 271.34c4.63 5.76 9 12.25 9.05 14.71s-2.71 8.25-2.71 8.25l1.28 5.36s-9.48 1.27-12.58 2.17-6.39 3.86-9.56 4.33-15.22-5.26-19.11-9.14-7.56-9.4-7.2-9.82c0 0 7.78 8.34 15.07 9.23s9.28.69 10.07-2.41-.76-5.58-3.25-7.18-19.88-12.13-20-13.34 12.59 8.65 16.58 7.33-.6-4.83-1.52-6-7.37-7.4-6.12-8z" fill="#262521" stroke="#262521" stroke-linecap="round" stroke-linejoin="round" stroke-width=".97"/><path d="M107.13 391.56l1.09-6.2-7.67-6.84s4.53 6.92 5.38 8.59a38 38 0 011.2 4.45zm-1.5 6.59a6 6 0 01-2.94.12c-4-.7-18.73-14.78-18.73-14.78-1.06.53 4.51 5.95 5.32 6.95s4.78 4 1.32 5.18-14.5-7.39-14.37-6.35 15.2 10.18 17.35 11.56 3.51 3.54 2.82 6.23-2.4 2.86-8.72 2.09-13.07-8-13.07-8c-.31.36 2.87 5.14 6.24 8.5s13.82 8.33 16.57 7.93a12.57 12.57 0 004-1.67c.46-1.77 3.23-13.61 4.21-17.76z" fill="#262521" stroke="#262521" stroke-linecap="round" stroke-linejoin="round" stroke-width=".84"/><path d="M370.75 337.16c-.19 2.15-3.28 9.35-3.57 9.83s-3 2.18-6.45-.94-9.2-25.95-9.2-25.95c-1.35-.14.75 8.59.92 10s2.18 6.89-1.9 5.87-9.6-16.13-10.12-15 8.58 19.28 9.83 22 1.24 5.6-1.08 7.81-4.11 1.31-9.8-3.33-7.83-15.85-7.83-15.85c-.53.16-.36 6.78.86 12.15s8.37 16.62 11.29 17.92 7.3.54 10.4 1.43 11.79 4.9 11.79 4.9l1.78-5.21 4-2.82z" fill="#262521" stroke="#262521" stroke-linecap="round" stroke-linejoin="round" stroke-width=".97"/><path d="M425.35 387.25c.16-2.27-3.22-8.65-6.93-14.38a58.74 58.74 0 00-9.05-10.46s4.05 7.84 4.77 9.71 1.12 9.09 1.07 9.61-1.6 3-5.73 1.86c-3.34-.95-13.27-12-16.9-16.16-.14.35-.27.69-.42 1 1.35 2.06 3.49 4.68 3.94 5.37.74 1.15 4.63 4.81.83 5.65-1.53.33-4.2-1.14-6.84-2.94 0 .46 0 .91-.07 1.37 4.06 3.23 8.43 6.56 9.51 7.42 2.14 1.71 3.33 4.13 2.31 6.91s-2.84 2.79-9.49 1.29a12.38 12.38 0 01-2.12-.73c0 .51.62 4.23.85 5.58 4.11 2.8 8.86 5.23 10.69 5.16 3-.13 6.27-2.55 9.2-3.08s11.77-.8 11.77-.8l-.66-5.05s3.12-5.06 3.27-7.33z" fill="#262521" stroke="#262521" stroke-linecap="round" stroke-linejoin="round" stroke-width=".9"/><path d="M168.69 140.1s20.73 11.93 25.44 11.63 5.39-3.49 5.24-4-3.21-7.88-4.65-9.55-8.51-8.29-8.51-8.29a64.11 64.11 0 0113.22 7.49c6 4.57 11.8 9.93 12.48 12.34s-.7 8.8-.7 8.8l2.55 5s-9 3.53-11.89 5.16-5.38 5.36-8.39 6.58-16.29-1.53-21.07-4.43-9.72-7.46-9.47-7.95c0 0 9.69 6.35 17.1 5.48s9.33-1.55 9.36-4.8-2.09-5.33-4.94-6.31-22.53-7.19-23-8.35 14.5 5.51 18.13 3.25-1.75-4.62-3-5.54-8.96-5.61-7.9-6.51z" fill="#262521" stroke="#262521" stroke-linecap="round" stroke-linejoin="round" stroke-width=".99"/><path d="M166.92 203.28s-5.25-7.68-8.4-9.35-14.41-.9-25 .77a75.55 75.55 0 00-10.38 2.47 30.22 30.22 0 00.29 3.29c2.72-.11 5.19-.17 6.3-.12 3.12.16 13.7 4.18 14.41 4.57s3.34 4.24-1 9.38c-2.25 2.7-12.25 6.63-21.28 9.77v2.86c2.92-.78 8.44-2.43 7.39 2.68-.44 2.14-3.5 4.66-7.17 7 0 .7 0 1.4.07 2.1 7.32-3.81 15.15-8.11 17.12-9.13 3.8-2 8-2.13 11.34 1.1s2.15 5.86-4.22 14.36-22.43 12.25-22.43 12.25c.27.76 9.82.11 17.5-2s23.52-13.08 25.22-17.39.35-10.57 1.45-15.1 6.33-17.33 6.33-17.33zm-70.87-15.61c-1.24-4.46-6.1-8.64-8-12.92s-5.41-17.64-5.41-17.64l-5.29 2c-.21.71-14.46 39.31-16.1 44.87 2 6-9.29 25.15-7.62 24.73s13.63-27.3 15.47-31.16 5.12-6.54 9.71-6 5.25 3.37 5.3 14-10.49 23.3-10.49 23.3c.66.44 7.9-5.83 12.76-12.12s10.92-24.6 9.67-29.06z" fill="#262521" stroke="#262521" stroke-linecap="round" stroke-linejoin="round" stroke-width="1.41"/><path d="M266.77 113.41s27.08 26.14 34.38 27.48 9.57-3.27 9.56-4.17-1.9-13.27-3.45-16.36-9.82-15.92-9.82-15.92a101.41 101.41 0 0117.32 16.5c7.34 9.25 14.22 19.67 14.32 23.61s-4.42 13.16-4.42 13.16l2 8.58s-15.17 1.93-20.13 3.33-10.26 6.12-15.33 6.83-24.29-8.56-30.46-14.81-12-15.11-11.42-15.77c0 0 12.36 13.41 24 14.91s14.82 1.2 16.12-3.75-1.16-8.93-5.12-11.51-31.65-19.6-31.88-21.53 20 14 26.43 11.88-.91-7.72-2.38-9.57-11.68-11.93-9.72-12.89zM424.21 265.9c-.11-3.93-7-14.36-14.32-23.6a101.68 101.68 0 00-17.33-16.5s8.28 12.83 9.83 15.92 3.44 15.46 3.44 16.36-2.25 5.51-9.55 4.17c-4.54-.83-16.76-11.28-25.33-19v3.71c.28.31.5.56.64.74 1.47 1.85 8.78 7.5 2.37 9.57a5.86 5.86 0 01-2.84 0l.09 4.44c3.9 2.46 7.05 4.43 8.2 5.19 4 2.58 6.42 6.56 5.13 11.51-1.17 4.45-3.88 5.14-12.9 4.14a59 59 0 01-.2 10.47c6.22 3 12.31 5.16 14.85 4.81 5.06-.71 10.37-5.42 15.32-6.83s20.13-3.34 20.13-3.34l-2-8.57s4.58-9.25 4.47-13.19zm35.94 39.64C454 315.68 434.28 336 434.28 336c1 2 11.07-8.22 12.92-9.68s7.54-8.75 9.58-2.34-13.91 26.6-12 26.38c1.29-.15 9.32-12.47 15.31-21.84.35-2.78.16-21.95.06-22.98zm-2.39-13.4c.19 0-.9-11.74-1.7-14.07A152.17 152.17 0 00442 288a101.6 101.6 0 00-16.57 17.26s12.86-8.23 16-9.76 15.43-3.35 16.33-3.36z" fill="#262521" stroke="#262521" stroke-linecap="round" stroke-linejoin="round" stroke-width="1.55"/><path d="M364 84.82s-13.68 15.92-17.66 17-5.48-1.31-5.52-1.81.36-7.47 1.06-9.27 4.62-9.35 4.62-9.35a56.9 56.9 0 00-8.76 10.07c-3.59 5.51-6.86 11.66-6.72 13.85s3.14 7.08 3.14 7.08l-.65 4.86s8.52.28 11.35.8 6 2.87 8.86 3 13-6 16.14-9.81 5.87-9 5.51-9.34c0 0-6.16 8.08-12.54 9.53s-8.17 1.43-9.15-1.25.18-5 2.25-6.66S372.51 91 372.54 89.94s-10.39 8.79-14.05 8 .1-4.34.82-5.44 5.86-7.25 4.69-7.68zm-68.08 99.32s-5.49 20.26-8.6 23-5.51 1.17-5.76.74-2.89-6.9-3-8.82.15-10.43.15-10.43a56.81 56.81 0 00-3.57 12.85c-.87 6.53-1.17 13.48-.1 15.4s5.88 5 5.88 5l1.5 4.68s7.82-3.42 10.59-4.16 6.66 0 9.29-1.12 9.18-11.05 10.34-15.81 1.42-10.66.95-10.81c0 0-2.07 10-7.22 14s-6.75 4.81-8.79 2.81-2-4.6-.84-7 9.54-18.44 9.1-19.43-5.6 12.41-9.25 13.25-1.78-3.95-1.6-5.26 2.14-9.03.93-8.89zm101.37-47.49s-20.59 4.06-24.42 2.49-3.49-4.43-3.21-4.85 4.89-5.64 6.56-6.62 9.41-4.49 9.41-4.49a56.64 56.64 0 00-13.1 2.49c-6.24 2.12-12.61 4.92-13.85 6.73s-1.91 7.51-1.91 7.51l-3.52 3.42s6.52 5.49 8.42 7.64 3 6 5.12 7.84 14 3.33 18.75 2.26 10.19-3.45 10.12-3.93c0 0-9.85 2.54-15.76-.27s-7.31-3.92-6.42-6.63 3.24-3.84 5.88-3.85 20.75.38 21.44-.45-13.6.48-16-2.42 2.76-3.35 4-3.77 9.12-2.06 8.49-3.1zm38.51 71.75a14.77 14.77 0 01-4.11-3.1c-4.32-4.92-5.17-6.49-3.28-8.63a8.83 8.83 0 012.89-1.67s-9.12-20.73-9.47-20.51c-1.85 1.18-4.71 6.15-4.71 6.15l-4.58 1.75s3.83 7.62 4.72 10.35.37 6.65 1.62 9.21 11.52 8.57 16.34 9.48c.54.1 1.09.18 1.64.26-.33-1.13-.69-2.21-1.06-3.29zm-65.23-.7a3.33 3.33 0 01-2.88-2.19c0-.5.65-7.45 1.42-9.21s5-9.17 5-9.17a56.67 56.67 0 00-9.14 9.72c-3.8 5.38-7.31 11.39-7.24 13.59s2.87 7.19 2.87 7.19l-.85 4.83s8.51.61 11.31 1.24h0c-.24-5.33-.43-10.7-.49-16zm45.53 101.39s-14.27 15.38-18.29 16.36-5.43-1.53-5.45-2 .64-7.45 1.41-9.22 5-9.16 5-9.16a56.38 56.38 0 00-9.13 9.72c-3.81 5.37-7.31 11.39-7.25 13.58s2.87 7.19 2.87 7.19l.16 4.34s7.5 1.11 10.31 1.74 5.9 3.09 8.74 3.32 13.26-5.51 16.5-9.18 6.21-8.78 5.87-9.13c0 0-6.46 7.84-12.9 9s-8.22 1.12-9.09-1.59.37-5 2.49-6.57 17-11.89 17.08-13-10.71 8.39-14.34 7.43.26-4.33 1-5.4 6.14-6.96 5.02-7.43z" fill="#262521" stroke="#262521" stroke-linecap="round" stroke-linejoin="round" stroke-width=".87"/><path d="M82.05 352.66s-4.6 13.88-12.62 18.82-10.43 5.77-13 2.58-2.1-6.9 0-10.1S73 339.18 72.54 337.7s-10 16.81-15.39 17.41-1.89-5.94-1.42-7.78 4.6-12.58 2.85-12.63c0 0-11.16 28.05-16 31.44-1.74 1.2-2.75 1.64-4 1.69a151.55 151.55 0 002.18 23.26c3.3-.93 5.45-1.89 7.38-2.18 4.09-.61 9.52 1.08 13.46-.08S76.47 374.56 78.92 368s3.78-15 3.13-15.34zm-41.3-49.79c-.2 1.52-.4 3.05-.58 4.57 5 3.45 10.42 6.11 10.82 5.67a54 54 0 01-10.24-10.24zm9.6-31.52c-1.71-5.69 1.76-7.91 2.48-8s10.75.33 13.35 1.29 13.56 6.42 13.56 6.42a81.58 81.58 0 00-14.69-12.34c-6.24-3.92-13-7.53-17.2-8.83-.44 3.66-4.06 29.62-4.31 32a9.89 9.89 0 014.62 3.28c2.41 2.93 18.43 23.49 20 23.5s-12.9-14.73-11.82-20 6.24 0 7.84 1 10.55 8.26 11.14 6.61c-.01.04-23.25-19.23-24.97-24.93z" fill="#262521" stroke="#262521" stroke-linecap="round" stroke-linejoin="round" stroke-width="1.25"/><path d="M122.31 280.88c-.53-.25-1-.49-1.36-.69-2.66-1.52-5-5-7.86-6.12s-15.22 1.46-19.67 4.19-9.07 7-8.83 7.46c0 0 9-6 16-5.17s8.71 1.42 8.75 4.46-1.94 5-4.59 5.9-21 6.79-21.44 7.87 13.53-5.19 16.92-3.08-1.62 4.32-2.73 5.17-8.44 5.21-7.45 6c0 0 19.34-11.2 23.74-10.93s5 3.25 4.91 3.77-3 7.38-4.32 8.94-7.93 7.77-7.93 7.77a60.45 60.45 0 0012.34-7c1.53-1.18 3-2.42 4.46-3.64-.33-8.3-.88-16.59-.94-24.9z" fill="#262521" stroke="#262521" stroke-linecap="round" stroke-linejoin="round" stroke-width=".92"/><path d="M459.64 368c-3.25 3-6.4 5.61-8 6-4 1-5.42-1.53-5.45-2s.65-7.44 1.42-9.21 5-9.17 5-9.17a56.67 56.67 0 00-9.14 9.72c-3.8 5.38-7.31 11.39-7.24 13.59s2.87 7.19 2.87 7.19l-.85 4.83s8.51.61 11.31 1.24 5.83 3 8.64 3.31c.07-1.36 1.21-22.68 1.44-25.5zM352.3 246.43s-11.79 17.36-15.62 18.93-5.59-.69-5.69-1.18-.48-7.46 0-9.32 3.54-9.82 3.54-9.82A56.58 56.58 0 00327 256c-2.94 5.89-5.5 12.36-5.11 14.52s3.92 6.68 3.92 6.68l-.1 4.91s8.5-.68 11.36-.49 6.3 2.17 9.15 2 12.27-7.45 14.93-11.57 4.81-9.61 4.42-9.91c0 0-5.21 8.74-11.39 10.89s-7.95 2.35-9.23-.2-.39-5 1.48-6.87 15-14.32 14.93-15.4-9.33 9.91-13.06 9.51-.39-4.32.2-5.5 4.98-7.84 3.8-8.14z" fill="#262521" stroke="#262521" stroke-linecap="round" stroke-linejoin="round" stroke-width=".87"/><path d="M340.3 167.71s6.51 17 9.43 19.06 4.86.53 5 .13 1.88-6.19 1.84-7.86-1.05-9-1.05-9a49 49 0 014.21 10.77c1.32 5.55 2.2 11.52 1.44 13.26s-4.63 4.86-4.63 4.86l-.89 4.16s-7-2.26-9.49-2.66-5.75.57-8.11-.15-8.88-8.72-10.3-12.72-2.16-9.07-1.77-9.24c0 0 2.67 8.4 7.46 11.44s6.24 3.56 7.82 1.66 1.32-4.15.12-6.09-9.84-15.06-9.55-15.95 5.95 10.23 9.17 10.62 1.18-3.56.91-4.67-2.66-7.61-1.61-7.62z" fill="#262521" stroke="#262521" stroke-linecap="round" stroke-linejoin="round" stroke-width=".75"/><path d="M195.59 225.76s22.54-8 25.37-11.76.86-6.37.34-6.62-8.08-2.68-10.28-2.68-11.84 1.08-11.84 1.08a64.86 64.86 0 0114.3-5.18c7.34-1.55 15.21-2.5 17.48-1.45s6.23 6.25 6.23 6.25l5.44 1.3s-3.2 9.18-3.81 12.4.57 7.57-.46 10.65-11.76 11.38-17.06 13.12-12 2.54-12.21 2c0 0 11.13-3.23 15.29-9.42s4.89-8.09 2.44-10.23-5.41-1.88-8-.36-20.12 12.44-21.28 12 13.61-7.43 14.25-11.65-4.65-1.68-6.12-1.37-10.1 3.3-10.08 1.92zm-1.46 106.74s18 15.73 22.69 16.35 6-2.38 5.94-3-1.63-8.36-2.71-10.28-6.74-9.79-6.74-9.79a64.43 64.43 0 0111.52 9.93c4.95 5.63 9.64 12 9.84 14.52s-2.39 8.5-2.39 8.5l1.53 5.38s-9.57 1.71-12.67 2.75-6.32 4.21-9.51 4.82-15.69-4.66-19.8-8.44-8.09-9.2-7.75-9.64c0 0 8.27 8.12 15.71 8.7s9.45.29 10.11-2.89-1-5.63-3.61-7.14-20.71-11.44-20.91-12.66 13.15 8.22 17.14 6.71-.82-4.88-1.81-6-7.79-7.16-6.58-7.82z" fill="#262521" stroke="#262521" stroke-linecap="round" stroke-linejoin="round" stroke-width=".99"/><path d="M195.25 376.85s-5.24 15.58-7.79 17.57-4.37.65-4.55.3-1.93-5.52-1.95-7 .6-8.15.6-8.15a44.19 44.19 0 00-3.39 9.88c-1 5.06-1.55 10.49-.8 12s4.36 4.21 4.36 4.21l1 3.73s6.26-2.31 8.47-2.76 5.2.31 7.31-.44 7.69-8.2 8.83-11.87 1.61-8.26 1.25-8.4c0 0-2.09 7.68-6.31 10.61s-5.5 3.44-7 1.78-1.34-3.69-.33-5.49 8.32-14 8-14.76-5 9.44-7.85 9.93-1.2-3.18-1-4.19 2.1-6.98 1.15-6.95z" fill="#262521" stroke="#262521" stroke-linecap="round" stroke-linejoin="round" stroke-width=".68"/><path d="M121.8 184.94s2.11 28.62 0 44.25.11 29.69.11 32.87 1.9 33.07 1.9 33.07m247.52-102.38s-1.25 73.86.81 102.9" fill="none" stroke="#262521" stroke-linecap="round" stroke-linejoin="round" stroke-width="3"/><path d="M51.32 413.6s28.66-9.48 45.15 2.48m305.71 0s25.94-8.31 43.55 0M197.66 62.63c2.77 14.3 15 47.82 50.14 46.21 36.25-1.66 46.89-34.35 49-46.52M133.45 438.85s155.28-12.31 227.71 2.37" fill="none" stroke="#636363" stroke-linecap="round" stroke-linejoin="round"/><path d="M283.61 57.72C266.25 68.15 244.14 65 225 62.6c-7.1-1.26-13.56-4.12-18.56-9.67L206 53s3.41 36.21 41.7 34.4S290.32 53 290.32 53a34.54 34.54 0 01-6.71 4.72z" fill="#898989" stroke="#262521" stroke-linecap="round" stroke-linejoin="round" stroke-width="3"/></svg>