<svg xmlns="http://www.w3.org/2000/svg" width="500" height="550" viewBox="0 0 500 550"><path d="M206.72 49s39.19 30.16 87.35 0l20.12 63.08-128.44 3.59z" fill="#e5e5e5" stroke="#262521" stroke-linecap="round" stroke-linejoin="round" stroke-width="3"/><path d="M206.72 49s4 48.55 43.68 46.73S294.07 49 294.07 49s63.74 17.7 80.65 27.3 70.4 61.22 92.64 94.14c2.92 4.33-57.35 52.68-65 57.29-8.58 5.17-31.64-21.38-31.33-12.84 4.22 117.38 5.52 265.91 3.54 267.23-3.28 2.18-163.76.94-179.41-2.33s-53.14 5-57.87 4.15-5.46-10.89-3.64-18.54c1-4.33.64-143.26-2.36-250.07-.42-4.28-26.5 12.4-35.91 12.83s-62.85-49.17-62.85-56 74.42-83 90.84-94.26S206.72 49 206.72 49z" fill="#fff" stroke="#262521" stroke-linecap="round" stroke-linejoin="round" stroke-width="3"/><path d="M371 214.89v-30.4c0-9.81-6.46-19.13-4.36-37.34l4.38-3.1M131.3 215.33s.8-53 0-56.36" fill="none" stroke="#262521" stroke-linecap="round" stroke-linejoin="round" stroke-width="3"/><path d="M183.13 256.17s1.45-71.09 23.21-93.57 33-19.59 40.62-16.33 8.71 9.8 8.71 9.8 5.44-8.71 18.49-8.71 31.92 27.2 38.09 49.69 6.89 54.4 4 61.66c0 0-10.51-78.52-35.88-87.77l.59-2.74a58.35 58.35 0 00-6.86-.2c-2 .2-2.15 3.13-4.31 3.53s-3.5-.4-5.76-.4-2.46 1.77-4.62 2-5.48-1.56-7.25-1.56-2.93 1.17-5.68-.4-11.36-7.44-13.51-7.44-20.18 12.54-21.36 14.69-5.68 4.9-6.26 6.47-21.69 52.88-22.22 71.28z" fill="#262521"/><path d="M285.07 194.17A52.94 52.94 0 00287 187c.43-2.81 1.11-5.78 0-6.72s.09-1.44.09-1.44-8.25-7.22-9.69-7.22a9.23 9.23 0 00-3.57 1.27V190s2.29-3 3.14-3 2.38 3.23 3 3.23 2.12-1.95 2.8-1.78 2.3 5.72 2.3 5.72z" fill="#262521"/><path d="M273.42 193.15s-2 23.3-4.16 25.42c0 0 13.94-18.62 14.87-21.51s-1.36-2.89-1.36-2.89l-.34-3-2 2-2.46-.93-.6-2.13zm-36.21-23.37s-1.27 15.38-1.61 17.25-.34 3.06-1.36 3.06-1.28-3.48-3.32-3.65-3.23 5.52-4.76 5.44-3.14-8.5-2.8-10.63a8.69 8.69 0 011.95-8.92 38.73 38.73 0 017.14-6.37s1.36 3.91 4.76 3.82z" fill="#262521"/><path d="M230.67 189.33s.34 4.08 3.82 3.4c0 0-4.67 18.28-10.11 25.84 0 0 2.21-20.91 1-24.4.02 0 3.67 1.02 5.29-4.84zM185.37 261l2.82 2.36s2.45-5 4.81-4.69 2.81 7.6 3.54 7.87 20.7 10.17 30.32 11.8 27 3 39.76 1.64 47.57-19.43 47.57-19.43a13.1 13.1 0 01-5.36-2.45c-2.54-2-15-4.9-26.05-5.27s-15.34 3-17.61 3.72-6.36-.36-9.26 1-6.36 3.23-7 1.12-3.63-4.71-11.53-5.86-33.22-5.11-52.01 8.19zm36.95-35.63s3 12.07 4.18 14.88.72 6.63-1.55 6.81-3.81-3.08-3.81-3.08-.91 3.37-3.27 3.09-4.63-4-2.81-6.27 7.26-12.35 7.26-15.43z" fill="#262521"/><path d="M192.73 258.23s3.39 15.83 4.73 19.52.82 8.68-1.75 8.92-4.32-4-4.32-4-1 4.42-3.7 4.05-5.24-5.24-3.18-8.22 8.22-16.23 8.22-20.27zm.98 41.04s4.09 13 5.58 15.94 1.14 7.2-1.85 7.49c-2.57.25-4-3.13-4-3.13s-.83 3.72-3.52 3.56-5.46-4.07-3.54-6.65 7.51-13.85 7.33-17.21z" fill="#262521"/></svg>