<svg xmlns="http://www.w3.org/2000/svg" width="500" height="550" viewBox="0 0 500 550"><defs><clipPath id="a"><path d="M372 291.55q-.27 61.74-.62 123.47c-.81 9-3.68 27-3.68 27s-51.21-9.66-123.84-8c-29 0-117.57 4.5-116.23 5.1-6.15-46.82-1.75-100.93-4-148.09-1.41 2.83-2.94 5.6-4.29 8.46-2.36 10.67-17.5 9.3-11.81 16.18 11.11 7.95 6.41 21.38 5.15 32.56-.24 3.15-1.35 6.27-.37 9.58.51 8.44-3.19 16.94-4.38 25.31-1.5 8-2.61 15.83-1.54 23.93 0 1.11-4.06 7.49-4.78 8.29-9.51-7.7-26.71-14-57.13-4.23a17.38 17.38 0 01-3-4.95 145 145 0 01-2.72-33.3c-1.91-63 2.6-126.93 26.19-186C78.58 151.42 89.54 113.53 113 83.18c27.32-18.2 49.84-20.11 80.27-31.13.81-.26 8 54.28 53.62 54.28 48.54 0 54.68-54.58 54.68-54.58 29.12 10.5 50.75 11.29 77.13 28.46 15.94 14.59 21.63 38 30.45 57.21 27.82 67.48 58 137.39 51.06 212.08-1.2 18.65-.24 37.45-3.29 55.95-.49 4.66-4 5-4.37 9.67-19.37-10.52-39.78-6.83-56.42-1.53-6.28-7.37-3.61-10-5.33-18.64-.9-9.7-4.68-20.27.79-29.26 2-3.53 1.86-7.05.51-10.66-4.9-11.28-7.4-23.41-10.45-35.29-1.06-4.3-1.31-8.49 1.61-12.34 1.51-7.23-10.43-8.68-10.93-15.93z" fill="none"/></clipPath></defs><path d="M372 291.55q-.27 61.74-.62 123.47c-.81 9-2.68 16.41-3.55 25.44-1 10.07 1.34 17.05-1.5 25.63-.59 1.77-2 1.67-3.35 1.44-44.58-7.74-101.65-5.72-146.65-2.92-24.6.57-58.62-1.68-83 2.09-5.22.59-5.68.27-6.62-4.83-1.35-11.26 1.94-18.53.53-29.31-6.15-46.82-1.39-94.37-3.6-141.53-1.41 2.83-2.94 5.6-4.29 8.46-2.36 10.67-17.5 9.3-11.81 16.18 11.11 7.95 6.41 21.38 5.15 32.56-.24 3.15-1.35 6.27-.37 9.58.51 8.44-3.19 16.94-4.38 25.31-1.5 8-2.61 15.83-1.54 23.93a5.1 5.1 0 01-1.13 3.3c-5.71 6.28-7.74 14-9.19 22.06-.57 3.18-.61 3-3.74 2-12.38-3.52-26.09-4.38-38.6-1.18-1.39.34-2.1 0-2.41-1.47-2-7.76-2.18-16.67-8.49-22.43a6.62 6.62 0 01-1.33-3.22 145 145 0 01-2.72-33.3c-1.91-63 2.6-126.93 26.19-186 13.6-35.39 24.56-73.28 48.02-103.63 27.32-18.2 60-23.76 90.46-34.78a3.16 3.16 0 012.72.43c5 5.55 11.46 8.41 18.56 9.67 19.19 2.43 41.29 5.55 58.65-4.88 2.85-1.27 4.2-6.53 7.88-5 29.16 10.5 61.09 14.38 87.47 31.59 15.94 14.59 21.63 38 30.45 57.21 27.82 67.48 58 137.39 51.06 212.08-1.2 18.65-.24 37.45-3.29 55.95-.49 4.66-5.21 7.1-5.56 11.78-1.22 5.28-2.08 10.65-2.91 16-.4 2.6-.41 2.83-3.08 2.33-12.48-2.66-25.25-5.49-37.8-1.58-8.34-.15-8.13-15.56-11.44-21.4-6.28-7.37-3.61-9-5.33-17.64-.9-9.7-4.68-20.27.79-29.26 2-3.53 1.86-7.05.51-10.66-4.9-11.28-7.4-23.41-10.45-35.29-1.06-4.3-1.31-8.49 1.61-12.34 1.51-7.23-10.43-8.68-10.93-15.93z" fill="#fff" stroke="#262521" stroke-linecap="round" stroke-linejoin="round" stroke-width="3"/><path d="M51.14 409.51S79.8 400 96.29 412M402 412s25.94-8.31 43.55 0" fill="none" stroke="#636363" stroke-linecap="round" stroke-linejoin="round"/><path d="M204.2 48.27s4 48.55 43.68 46.73 42.84-45.4 42.84-45.4" fill="none" stroke="#262521" stroke-linecap="round" stroke-linejoin="round" stroke-width="3"/><path d="M133.27 438.85s155.28-12.31 227.73 2.37" fill="none" stroke="#636363" stroke-linecap="round" stroke-linejoin="round"/><path d="M121.62 180.84s2.11 28.62 0 44.25.11 29.7.11 32.87 1.9 33.07 1.9 33.07m247.52-102.37s5.8 47.28 0 75.34l.81 27.55" fill="none" stroke="#262521" stroke-linecap="round" stroke-linejoin="round" stroke-width="3"/><path d="M194.44 56.1c2.77 14.3 15 50.28 52.49 50.23 39.57 0 51.53-38 53.68-50.23" fill="none" stroke="#636363" stroke-linecap="round" stroke-linejoin="round"/><g clip-path="url(#a)" fill="#262521" fill-rule="evenodd"><path d="M263 183.92c-2.31-1.24-.19-4.09-.26-6.23 0-.56-.56-1.16-.6-1.76-.09-1.74-.39-3.43-.36-5.07 0-.47.69-.71.81-1.15.05-.18-.71-.6-.66-.79s.74-.29.75-.57-.27-.72-.27-1.17c0-4.54-.81-9.27.59-13.6-1.09-3.23-1-7-1.38-11.12-.19-2-.57-3.87-.67-6 0-.74-.46-1.39-.57-2.15-.28-1.79-.13-3.67-.36-5.26-.86-5.56 2.19-10.76.32-15.74 1.6-.93.22-2.18.22-3.49 0-1.7.73-3.11.33-5.24a21.62 21.62 0 00-.23-2.33c-.27-.76-1.27-1.37-1.33-2.11.21-.67 1.19-.92 1.87-1.35 2.79.42 3.11 3.15 3.34 4.86.4 2.84-.43 6.07-.19 9 0 .36-.5.91.64 1.18-1.34 1.58-.41 3.17-.67 4.66-.37 2.27-1.74 4.79-.48 7.19a10.43 10.43 0 00-1 4.84c.15 2.52.73 5 .92 7.6.24 3.21 1 6.34 1.47 9.95.07.53-.15 1-.1 1.56 0 .3.65.71.65 1 0 1.68-.8 3.36-.71 5 0 .54.52 1 .61 1.57.53 3.21-.92 6.43-.67 9.51 0 .42.62 1 .62 1.38 0 1.51-.61 3-.68 4.46-.15 3 1 5.88.44 9a1.68 1.68 0 01.68.6c-1.6.6-.35 1.73-3.07 1.77zm1.7 257.3c-2.32-.89-.2-2.92-.27-4.44 0-.4-.57-.83-.6-1.26-.09-1.24-.39-2.44-.36-3.61 0-.33.69-.51.8-.82.05-.13-.7-.43-.66-.56s.75-.21.76-.4-.28-.52-.28-.84c0-3.23-.81-6.6.59-9.69-1.09-2.3-1-5-1.39-7.92-.19-1.4-.57-2.76-.67-4.3 0-.53-.46-1-.58-1.53-.28-1.28-.12-2.62-.36-3.75-.86-4 2.19-7.67.31-11.2 1.6-.68.22-1.56.22-2.49 0-1.21.73-2.22.32-3.73-.16-.57 0-1.19-.22-1.65s-1.28-1-1.33-1.5c.21-.47 1.19-.67 1.87-1 2.78.27 3.1 2.22 3.33 3.43.41 2-.42 4.34-.18 6.39 0 .26-.5.65.64.84-1.34 1.13-.41 2.26-.66 3.32-.38 1.63-1.74 3.42-.47 5.13a5.72 5.72 0 00-1.05 3.45c.16 1.79.74 3.59.93 5.42.25 2.28 1 4.51 1.48 7.09.07.37-.15.73-.11 1.1 0 .22.65.51.66.7 0 1.2-.8 2.4-.71 3.6 0 .38.52.74.61 1.12.53 2.28-.92 4.58-.67 6.78 0 .29.62.68.63 1 0 1.08-.61 2.16-.68 3.18-.15 2.16 1 4.19.44 6.39a1.45 1.45 0 01.68.43c-1.55.48-.3 1.29-3.02 1.32zm.08-71.17c-3.44-1.05-1.79-6.13-1.94-9.34-.07-1.54-.87-3.66-.92-5.77s.57-4-.22-5.4c.95-26.32-.1-50.85.16-73.35.06-5.71-.28-10.5 0-16.12.26-4.73-.48-9.27-.55-14 0-2.1.29-4.22.29-6.3s-.15-4-.2-6c0-1.69.19-3.28.23-5 .06-2.1-.43-4.26-.42-6.35 0-1.71.25-3.47.24-5.36 0-5.06 1.51-14.39.42-20.81.9-1.47 2-2.61 2.79-4.23 2.69 8.16.19 19 1.24 27.61-.91 3.29-.21 7.44-.28 11.36-.09 5.42-.53 11.14.72 15.56-.73 2.45.05 4.83.14 7.28.05 1.47-.22 2.91-.21 4.41 0 2.86.53 5.74.56 8.58 0 1.73-.55 3.63-.49 5.34.09 2.64.6 5.05.6 7.64s-.44 5.44-.39 8.19c0 1.29.46 2.56.54 3.84.28 4.82-.07 9.94 0 14.86 0 1.37.29 2.8.28 4.14 0 2.54-.59 5-.6 7.54 0 3.6.52 7.13.44 10.79-.1 4.74-.16 9.13-.43 13.88-.13 2.26.21 6.07-.14 7.9-.99 5.28-.05 13.37-1.86 19.11zm86.99 30.43c-3.44-1-1.8-6.12-1.94-9.33-.07-1.54-.87-3.66-.92-5.77s.57-4-.22-5.4c.95-26.32-.1-50.85.16-73.35.06-5.72-.28-10.5 0-16.12.26-4.74-.49-9.28-.55-14 0-2.1.29-4.22.29-6.3s-.16-4-.2-6c0-1.7.19-3.28.23-5.05.06-2.1-.43-4.26-.43-6.35 0-1.71.25-3.47.25-5.36 0-5.06 1.51-14.39.42-20.81.9-1.48 2-2.61 2.79-4.24 2.69 8.17.19 19 1.24 27.62-.91 3.28-.21 7.44-.28 11.36-.1 5.42-.53 11.13.72 15.55-.73 2.46.05 4.83.14 7.29.05 1.47-.22 2.91-.21 4.41 0 2.86.53 5.73.56 8.58 0 1.73-.55 3.63-.49 5.34.09 2.64.59 5.05.6 7.64s-.44 5.44-.39 8.19c0 1.29.46 2.56.53 3.84.29 4.82-.07 9.93 0 14.86 0 1.37.29 2.79.29 4.14 0 2.54-.59 5-.6 7.54 0 3.6.52 7.13.44 10.79-.1 4.74-.17 9.13-.43 13.88-.13 2.26.21 6.07-.14 7.89-.99 5.34-.05 13.43-1.86 19.16zM303.3 55.74c2.33 2.16.22 7.23.3 11 0 1 .57 2 .6 3.11.1 3.08.4 6.06.37 9 0 .84-.68 1.27-.79 2 0 .32.7 1.07.66 1.4s-.75.51-.76 1c0 .66.28 1.27.28 2.07 0 8 .82 16.39-.57 24.06 1.1 5.71 1 12.46 1.4 19.67.19 3.48.57 6.86.67 10.69 0 1.32.45 2.47.57 3.8.28 3.17.12 6.5.36 9.31.85 9.85-2.21 19-.35 27.86-1.61 1.64-.24 3.87-.25 6.18 0 3-.75 5.5-.35 9.28.15 1.43 0 3 .2 4.13.26 1.37 1.25 2.48 1.29 3.84-.22 1.2-1.21 1.61-1.89 2.34-2.78-.93-3-5.69-3.26-8.72-.38-5 .47-10.71.24-15.82 0-.63.51-1.61-.63-2.09 1.34-2.79.42-5.6.68-8.23.38-4 1.75-8.47.49-12.72a30.86 30.86 0 001.05-8.56c-.16-4.46-.73-8.92-.92-13.45-.25-5.68-1-11.21-1.48-17.6-.07-.94.15-1.83.1-2.75 0-.54-.65-1.26-.65-1.74 0-3 .79-6 .7-8.93 0-1-.52-1.83-.61-2.77-.54-5.68.91-11.39.65-16.84 0-.73-.62-1.7-.63-2.43 0-2.67.6-5.37.67-7.89.14-5.37-1-10.4-.47-15.85a2.46 2.46 0 01-.68-1c1.55-1.26.29-3.24 3.01-3.35zm-18.67 280.73c-3.44-.54-1.8-3.07-1.95-4.68-.06-.77-.86-1.83-.91-2.89s.57-2-.22-2.69c.95-13.16-.1-25.43.16-36.68.06-2.85-.28-5.25 0-8.06.26-2.36-.48-4.63-.55-7 0-1.05.29-2.11.29-3.15s-.16-2-.2-3c0-.85.19-1.64.23-2.52.06-1.05-.43-2.13-.43-3.18 0-.85.25-1.73.24-2.67 0-2.53 1.5-7.21.42-10.39a35.15 35.15 0 002.8-2.15c2.67 4.06.19 9.51 1.24 13.81-.91 1.64-.21 3.72-.28 5.68-.1 2.71-.53 5.57.72 7.78-.73 1.23.06 2.41.14 3.64.05.74-.22 1.46-.21 2.21 0 1.43.53 2.86.56 4.29 0 .86-.55 1.81-.49 2.67.09 1.32.6 2.52.6 3.82s-.44 2.72-.39 4.09c0 .65.46 1.28.53 1.92.29 2.42-.07 5 0 7.44 0 .68.29 1.39.28 2.07 0 1.26-.59 2.5-.6 3.77 0 1.8.51 3.56.44 5.39-.1 2.37-.17 4.57-.43 6.94-.13 1.13.21 3-.15 3.95-.97 2.68-.03 6.73-1.84 9.59zm9.58-27.47c-3.44-1.37-1.79-8.11-1.94-12.36-.07-2-.86-4.84-.92-7.64s.57-5.28-.21-7.14c.95-34.86-.1-67.34.15-97.14.06-7.56-.28-13.9 0-21.35.27-6.26-.48-12.27-.55-18.48 0-2.78.29-5.59.3-8.34s-.16-5.29-.2-8c0-2.24.18-4.34.23-6.68.05-2.78-.44-5.64-.43-8.41 0-2.26.25-4.6.24-7.1 0-6.7 1.51-19.06.43-27.57.9-2 2-3.44 2.78-5.59 2.7 10.82.19 25.17 1.24 36.57-.91 4.35-.21 9.85-.28 15-.09 7.18-.53 14.75.72 20.6-.73 3.25.06 6.39.14 9.64.05 1.95-.22 3.85-.21 5.84 0 3.79.53 7.6.56 11.37 0 2.29-.55 4.81-.49 7.07.09 3.49.6 6.68.6 10.11s-.44 7.21-.39 10.85c0 1.71.46 3.39.54 5.08.29 6.39-.07 13.16 0 19.68 0 1.81.29 3.7.28 5.48 0 3.36-.59 6.64-.6 10 0 4.77.52 9.43.44 14.28-.1 6.28-.16 12.09-.43 18.39-.12 3 .21 8-.14 10.45-.98 7.05-.07 17.76-1.86 25.39zm32.94-25.5c-3.44-1.38-1.79-8.11-1.94-12.37-.07-2-.86-4.84-.92-7.63s.57-5.29-.22-7.15c.95-34.86-.09-67.34.16-97.14.06-7.56-.28-13.9 0-21.35.27-6.26-.48-12.27-.55-18.48 0-2.78.29-5.59.3-8.34s-.16-5.29-.21-8c0-2.24.19-4.34.24-6.68.05-2.78-.44-5.64-.43-8.41 0-2.26.25-4.6.24-7.1 0-6.7 1.51-19.06.43-27.57.89-1.95 2-3.44 2.78-5.58 2.7 10.81.19 25.16 1.24 36.56-.91 4.35-.21 9.85-.28 15-.09 7.18-.53 14.75.72 20.6-.73 3.25.06 6.39.14 9.64.05 1.95-.22 3.86-.21 5.84 0 3.8.53 7.6.56 11.37 0 2.29-.55 4.81-.49 7.07.09 3.49.6 6.68.6 10.11s-.44 7.21-.39 10.85c0 1.71.46 3.39.54 5.08.28 6.39-.07 13.16 0 19.68 0 1.81.29 3.7.28 5.48 0 3.36-.59 6.64-.6 10 0 4.77.52 9.44.44 14.29-.1 6.27-.16 12.08-.43 18.38-.12 3 .21 8-.14 10.45-1.01 7.09-.01 17.8-1.86 25.4zm12.04 163.03c-2.58-1.22-1.34-7.24-1.45-11-.05-1.82-.65-4.32-.69-6.82s.43-4.72-.16-6.38c.73-31.14-.05-60.16.14-86.77.05-6.76-.21-12.43 0-19.07.2-5.6-.36-11-.41-16.51 0-2.48.22-5 .22-7.46s-.12-4.72-.15-7.12c0-2 .14-3.88.17-6 .05-2.49-.32-5-.32-7.52 0-2 .19-4.11.18-6.34 0-6 1.13-17 .3-24.63.68-1.74 1.49-3.08 2.08-5 2.05 9.66.17 22.49 1 32.66-.68 3.89-.15 8.8-.21 13.44-.07 6.41-.39 13.17.55 18.4-.55 2.9 0 5.71.1 8.61 0 1.74-.16 3.44-.16 5.22 0 3.39.4 6.78.42 10.15 0 2.05-.41 4.3-.37 6.32.07 3.12.45 6 .45 9s-.33 6.44-.29 9.69c0 1.53.34 3 .4 4.54.21 5.7-.06 11.75 0 17.58 0 1.62.22 3.3.21 4.89 0 3-.44 5.93-.45 8.92 0 4.26.39 8.43.33 12.77-.08 5.6-.13 10.79-.33 16.41-.09 2.67.16 7.18-.11 9.34-.79 6.33-.08 15.9-1.45 22.68zm-65.01-112.14c3.44.62 1.8 3.56 1.94 5.42.07.9.87 2.12.92 3.35s-.57 2.31.22 3.13c-.95 15.26.1 29.48-.16 42.52-.06 3.31.28 6.09 0 9.35-.26 2.74.48 5.37.55 8.09 0 1.21-.29 2.44-.29 3.65s.16 2.32.2 3.49c0 1-.19 1.9-.23 2.92-.06 1.22.43 2.47.43 3.69 0 1-.25 2-.24 3.1 0 2.93-1.51 8.35-.43 12a36.34 36.34 0 00-2.79 2.48c-2.68-4.72-.19-11-1.24-16 .91-1.91.21-4.32.28-6.59.1-3.14.53-6.45-.72-9 .73-1.42-.05-2.8-.14-4.22-.05-.85.22-1.69.21-2.56 0-1.66-.53-3.32-.56-5 0-1 .55-2.11.49-3.1-.09-1.53-.6-2.93-.6-4.43s.44-3.15.39-4.75c0-.75-.46-1.48-.53-2.22-.29-2.8.07-5.76 0-8.62 0-.79-.29-1.62-.28-2.4 0-1.47.59-2.91.6-4.37 0-2.09-.51-4.14-.44-6.26.1-2.75.17-5.29.43-8.05.13-1.3-.21-3.52.15-4.57.97-3.03.03-7.73 1.84-11.05zm-3.75-179.28c-2.33-.86-.22-2.88-.3-4.39 0-.39-.56-.81-.6-1.24a34.89 34.89 0 01-.37-3.57c0-.33.68-.5.79-.81.05-.13-.7-.42-.66-.55s.75-.21.76-.41-.28-.5-.28-.82c0-3.2-.82-6.53.57-9.59-1.09-2.27-1-5-1.4-7.83-.19-1.39-.57-2.73-.67-4.26 0-.52-.45-1-.57-1.52-.28-1.26-.12-2.58-.36-3.7-.85-3.92 2.21-7.59.36-11.1 1.6-.66.23-1.54.24-2.46 0-1.2.75-2.19.35-3.7-.15-.57 0-1.18-.2-1.65s-1.25-1-1.29-1.52c.22-.48 1.21-.65 1.89-.94 2.78.37 3 2.27 3.27 3.48.37 2-.48 4.27-.25 6.3 0 .25-.5.64.64.83-1.35 1.11-.43 2.23-.68 3.28-.39 1.6-1.76 3.38-.5 5.07a5.58 5.58 0 00-1.05 3.41c.16 1.77.73 3.55.92 5.36.25 2.26 1 4.46 1.48 7 .07.37-.15.73-.1 1.09s.65.5.65.7c0 1.18-.79 2.36-.7 3.55 0 .38.52.73.61 1.11.54 2.26-.9 4.53-.65 6.7 0 .29.62.68.63 1 0 1.07-.6 2.14-.67 3.14-.14 2.14 1 4.15.47 6.32a1.5 1.5 0 01.68.42c-1.55.47-.29 1.26-3.01 1.3zm11.15-65.78c2.32 2.17.22 7.24.3 11 0 1 .56 2.05.6 3.12.09 3.07.4 6.06.37 9 0 .84-.69 1.27-.8 2-.05.32.71 1.07.66 1.39s-.74.52-.75 1c0 .67.28 1.28.27 2.07 0 8 .83 16.4-.56 24.07 1.09 5.7 1 12.46 1.4 19.67.18 3.48.56 6.86.66 10.69 0 1.31.46 2.46.58 3.8.28 3.17.12 6.5.36 9.3.85 9.85-2.21 19.05-.36 27.86-1.61 1.65-.23 3.87-.24 6.19 0 3-.75 5.5-.36 9.28.15 1.43 0 3 .2 4.13.26 1.37 1.26 2.48 1.3 3.84-.22 1.2-1.21 1.61-1.89 2.34-2.78-.93-3.05-5.69-3.27-8.72-.37-5 .47-10.72.25-15.82 0-.63.5-1.61-.64-2.09 1.35-2.79.43-5.6.68-8.23.39-4 1.75-8.48.49-12.72a30.49 30.49 0 001.06-8.56c-.16-4.46-.73-8.92-.93-13.45-.24-5.69-1-11.21-1.48-17.61-.06-.93.15-1.82.11-2.74 0-.54-.65-1.26-.65-1.75 0-3 .79-5.94.7-8.92 0-1-.52-1.83-.61-2.77-.54-5.68.9-11.39.65-16.84 0-.73-.62-1.7-.63-2.43 0-2.68.6-5.37.67-7.89.14-5.38-1-10.4-.47-15.85a2.35 2.35 0 01-.68-1.06c1.54-1.2.29-3.19 3.01-3.3zM350 60.4c2.32 2.16.21 7.23.29 11 0 1 .57 2 .6 3.11.1 3.08.4 6.06.37 9 0 .84-.68 1.27-.79 2-.05.32.7 1.07.66 1.39s-.74.52-.76 1c0 .67.28 1.28.28 2.08 0 8 .83 16.39-.57 24.06 1.1 5.71 1 12.46 1.4 19.67.19 3.48.57 6.86.67 10.69 0 1.32.46 2.47.57 3.8.28 3.17.12 6.5.36 9.31.85 9.85-2.2 19-.35 27.86-1.61 1.64-.23 3.86-.24 6.18 0 3-.75 5.5-.36 9.28.15 1.43 0 3 .2 4.13.26 1.37 1.25 2.48 1.29 3.84-.22 1.2-1.2 1.61-1.89 2.34-2.77-.93-3-5.69-3.26-8.72-.38-5 .47-10.71.25-15.82 0-.63.5-1.61-.64-2.09 1.34-2.79.42-5.6.68-8.23.38-4 1.75-8.48.49-12.72a30.86 30.86 0 001-8.56c-.15-4.46-.73-8.92-.92-13.45-.25-5.68-1-11.21-1.48-17.61-.07-.93.15-1.82.1-2.74 0-.54-.65-1.26-.65-1.74 0-3 .79-5.95.71-8.93 0-1-.52-1.83-.62-2.77-.54-5.68.91-11.39.65-16.84 0-.73-.62-1.7-.63-2.43 0-2.68.61-5.37.67-7.89.15-5.37-1-10.4-.47-15.85a2.46 2.46 0 01-.68-1.05c1.57-1.21.31-3.19 3.07-3.3zm11.67 68.18c2.33 2.17.22 7.24.3 11 0 1 .56 2.05.6 3.12.1 3.07.4 6.06.37 9 0 .84-.68 1.27-.79 2 0 .32.7 1.07.66 1.39s-.75.52-.76 1c0 .67.28 1.28.28 2.07 0 8 .82 16.4-.57 24.07 1.09 5.7 1 12.46 1.4 19.66.19 3.49.57 6.87.67 10.7 0 1.31.45 2.46.57 3.8.28 3.17.12 6.5.36 9.3.85 9.85-2.21 19.05-.36 27.86-1.6 1.65-.23 3.87-.24 6.19 0 3-.75 5.5-.35 9.28.15 1.43 0 3 .2 4.13.26 1.37 1.25 2.47 1.29 3.83-.22 1.21-1.21 1.62-1.89 2.35-2.78-.93-3-5.69-3.27-8.72-.37-5 .48-10.72.25-15.82 0-.63.5-1.61-.64-2.09 1.35-2.79.43-5.6.68-8.23.39-4 1.76-8.48.5-12.72a30.9 30.9 0 001.05-8.56c-.16-4.46-.73-8.92-.92-13.46-.25-5.68-1-11.2-1.48-17.6-.07-.93.15-1.82.1-2.75 0-.54-.65-1.25-.65-1.74 0-3 .79-5.94.7-8.92 0-1-.52-1.83-.61-2.78-.54-5.67.9-11.38.65-16.83 0-.73-.62-1.7-.63-2.43 0-2.68.6-5.37.67-7.89.14-5.38-1-10.4-.47-15.85a2.43 2.43 0 01-.68-1.06c1.55-1.2.34-3.19 3.01-3.3zm-46.01 19.14c2.33 2.63.22 8.79.3 13.38 0 1.21.56 2.49.6 3.79.1 3.73.4 7.36.37 10.88 0 1-.69 1.54-.8 2.47-.05.4.71 1.3.67 1.7-.05.55-.75.63-.76 1.22 0 .81.28 1.55.28 2.52 0 9.75.82 19.91-.57 29.22 1.09 6.93 1 15.13 1.4 23.88.18 4.23.57 8.33.67 13 0 1.6.45 3 .57 4.63.28 3.84.12 7.89.36 11.29.85 12-2.21 23.12-.36 33.83-1.61 2-.23 4.7-.24 7.52 0 3.65-.75 6.67-.36 11.26.15 1.74 0 3.61.2 5 .26 1.66 1.26 3 1.3 4.65-.22 1.47-1.21 2-1.89 2.85-2.78-1.12-3-6.91-3.27-10.59-.37-6.1.47-13 .25-19.21 0-.76.5-1.95-.64-2.53 1.35-3.39.43-6.81.68-10 .39-4.89 1.75-10.29.49-15.44a44.69 44.69 0 001.06-10.4c-.16-5.42-.73-10.83-.93-16.34-.24-6.9-1-13.6-1.48-21.37-.06-1.14.15-2.22.11-3.34 0-.66-.65-1.52-.65-2.11 0-3.62.79-7.22.7-10.84 0-1.16-.52-2.23-.61-3.37-.54-6.89.9-13.83.65-20.44 0-.89-.62-2.07-.63-3 0-3.25.6-6.52.67-9.58.14-6.52-1-12.63-.47-19.24a3 3 0 01-.68-1.28c1.54-1.47.29-3.87 3.01-4.01zm-2.28-6.41c-3.1-1.33-.29-4.45-.39-6.77 0-.61-.76-1.26-.81-1.91-.12-1.89-.53-3.73-.49-5.51 0-.51.91-.78 1.06-1.25.07-.2-.94-.65-.88-.86s1-.31 1-.62-.38-.78-.37-1.27c0-4.93-1.1-10.07.76-14.78-1.46-3.5-1.36-7.65-1.87-12.08-.25-2.14-.76-4.21-.89-6.57a19.83 19.83 0 00-.77-2.33c-.37-2-.16-4-.47-5.72-1.14-6 2.94-11.69.47-17.11 2.14-1 .31-2.38.32-3.8 0-1.85 1-3.38.48-5.7a20.42 20.42 0 00-.27-2.54c-.35-.84-1.68-1.52-1.73-2.35.3-.74 1.61-1 2.53-1.44 3.7.57 4.05 3.49 4.35 5.35.5 3.09-.63 6.58-.33 9.72 0 .39-.67 1 .85 1.28-1.8 1.72-.57 3.44-.91 5.06-.51 2.47-2.33 5.21-.65 7.81a9.61 9.61 0 00-1.37 5.26c.21 2.74 1 5.48 1.23 8.26.33 3.49 1.37 6.89 2 10.82.09.57-.2 1.12-.14 1.68 0 .34.86.77.87 1.07 0 1.83-1.06 3.65-.94 5.48 0 .59.69 1.13.82 1.71.71 3.49-1.21 7-.87 10.34 0 .45.83 1 .83 1.49 0 1.65-.8 3.3-.89 4.85-.19 3.3 1.35 6.39.63 9.74a2.15 2.15 0 01.91.64c-2.11.74-.45 1.98-4.07 2.05zm-7.96 296.31c-2.32-2.73-.22-9.12-.3-13.88 0-1.25-.56-2.58-.6-3.93-.09-3.86-.4-7.62-.37-11.28 0-1 .69-1.6.8-2.56.05-.41-.7-1.35-.66-1.76 0-.58.74-.65.75-1.27 0-.84-.28-1.61-.27-2.61 0-10.11-.83-20.65.56-30.31-1.09-7.18-1-15.68-1.4-24.76-.18-4.38-.56-8.64-.66-13.46 0-1.66-.46-3.11-.58-4.79-.28-4-.12-8.19-.36-11.72-.85-12.4 2.21-24 .36-35.08 1.61-2.08.23-4.87.24-7.79 0-3.8.75-6.92.36-11.68-.15-1.81 0-3.75-.2-5.21-.26-1.72-1.26-3.12-1.3-4.83.22-1.51 1.21-2 1.9-2.95 2.77 1.17 3 7.17 3.26 11 .37 6.33-.47 13.49-.25 19.92 0 .79-.5 2 .64 2.63-1.35 3.52-.43 7.06-.68 10.37-.38 5.07-1.75 10.67-.49 16a48 48 0 00-1.06 10.79c.16 5.61.73 11.23.93 16.94.24 7.15 1 14.11 1.48 22.16.06 1.18-.15 2.3-.11 3.46 0 .68.65 1.58.66 2.2 0 3.74-.8 7.48-.71 11.23 0 1.21.52 2.31.61 3.5.54 7.15-.9 14.34-.65 21.2 0 .92.63 2.14.63 3.06 0 3.37-.6 6.76-.67 9.94-.14 6.77 1 13.09.47 19.95a3.23 3.23 0 01.68 1.33c-1.54 1.57-.29 4.05-3.01 4.19zm-10.94-122.74c2.33 1.76.22 5.89.3 9 0 .81.56 1.67.6 2.54.1 2.5.4 4.93.37 7.29 0 .69-.68 1-.8 1.66 0 .27.71.87.67 1.14s-.75.42-.76.82.28 1 .28 1.69c0 6.53.82 13.35-.57 19.59 1.09 4.64 1 10.14 1.4 16 .19 2.83.57 5.58.67 8.7 0 1.07.45 2 .57 3.1.28 2.57.12 5.29.36 7.57.85 8-2.21 15.5-.36 22.68-1.6 1.34-.23 3.15-.24 5 0 2.46-.75 4.48-.35 7.55.15 1.17 0 2.42.2 3.37.26 1.11 1.25 2 1.29 3.12-.22 1-1.21 1.32-1.89 1.91-2.78-.75-3-4.64-3.27-7.1-.37-4.09.48-8.72.25-12.88 0-.51.5-1.3-.64-1.7 1.35-2.27.43-4.56.68-6.7.39-3.27 1.76-6.9.5-10.35a20.77 20.77 0 001.05-7c-.16-3.63-.73-7.26-.92-10.95-.25-4.63-1-9.12-1.48-14.33-.07-.76.15-1.49.1-2.24 0-.44-.65-1-.65-1.42 0-2.42.79-4.83.7-7.26 0-.78-.52-1.49-.61-2.26-.54-4.62.9-9.27.65-13.7 0-.6-.62-1.39-.63-2 0-2.18.6-4.37.67-6.42.14-4.38-1-8.47-.47-12.91a2 2 0 01-.68-.86c1.53-.94.29-2.53 3.01-2.65zm-21.05-28.96c-2.33-1.78-.22-5.95-.3-9.06 0-.81-.56-1.68-.6-2.56-.1-2.53-.4-5-.37-7.37 0-.69.68-1 .79-1.67.05-.27-.7-.88-.66-1.15s.75-.43.76-.83-.28-1-.28-1.7c0-6.6-.82-13.48.57-19.79-1.09-4.69-1-10.24-1.4-16.16-.19-2.87-.57-5.64-.67-8.79 0-1.09-.45-2-.57-3.13-.28-2.6-.12-5.34-.36-7.65-.85-8.1 2.21-15.65.36-22.9 1.6-1.36.23-3.18.24-5.09 0-2.47.75-4.52.35-7.62-.15-1.18 0-2.45-.2-3.4-.26-1.13-1.25-2-1.29-3.15.22-1 1.21-1.33 1.89-1.93 2.78.76 3 4.68 3.27 7.17.37 4.13-.48 8.81-.25 13 0 .52-.5 1.33.64 1.72-1.35 2.3-.43 4.61-.68 6.77-.39 3.31-1.76 7-.5 10.45a21.18 21.18 0 00-1.05 7c.16 3.67.73 7.34.92 11.06.25 4.67 1 9.21 1.48 14.47.07.77-.15 1.5-.1 2.26 0 .45.65 1 .65 1.43 0 2.45-.79 4.89-.7 7.34 0 .79.52 1.51.61 2.28.54 4.67-.9 9.36-.65 13.84 0 .6.62 1.4.63 2 0 2.2-.6 4.41-.67 6.48-.14 4.42 1 8.56.47 13a2.07 2.07 0 01.68.87c-1.55 1.09-.29 2.72-3.01 2.81zm55.11 155.3c-2.33-2.15-.22-7.17-.3-10.91 0-1-.56-2-.6-3.09-.1-3-.4-6-.37-8.87 0-.83.69-1.26.8-2 .05-.32-.71-1.05-.67-1.38s.75-.51.76-1c0-.66-.28-1.26-.28-2.05 0-7.95-.82-16.23.57-23.83-1.09-5.64-1-12.32-1.4-19.46-.18-3.45-.57-6.79-.67-10.59 0-1.3-.45-2.44-.57-3.76-.28-3.14-.12-6.44-.36-9.21-.85-9.75 2.21-18.85.36-27.58 1.61-1.64.23-3.83.24-6.13 0-3 .75-5.44.36-9.18-.15-1.42 0-2.94-.2-4.1-.26-1.35-1.26-2.44-1.3-3.79.22-1.19 1.21-1.6 1.89-2.32 2.78.92 3 5.64 3.27 8.63.37 5-.47 10.61-.25 15.66 0 .63-.5 1.59.64 2.07-1.35 2.76-.43 5.55-.68 8.15-.39 4-1.75 8.39-.49 12.59a30 30 0 00-1.06 8.48c.16 4.41.73 8.83.93 13.32.24 5.62 1 11.09 1.48 17.42.06.93-.15 1.81-.11 2.72 0 .54.65 1.24.65 1.73 0 2.94-.79 5.88-.7 8.83 0 .95.52 1.82.61 2.75.54 5.62-.9 11.27-.65 16.67 0 .72.62 1.68.63 2.4 0 2.65-.6 5.32-.67 7.81-.14 5.33 1 10.3.47 15.69a2.42 2.42 0 01.68 1.05c-1.55 1.2-.29 3.17-3.01 3.28zm34.25 0c-2.32-2.15-.22-7.17-.3-10.91 0-1-.56-2-.6-3.09-.09-3-.4-6-.37-8.87 0-.83.69-1.26.8-2 .05-.32-.71-1.05-.66-1.38s.74-.51.75-1c0-.66-.28-1.26-.27-2.05 0-7.95-.83-16.23.56-23.83-1.09-5.64-1-12.32-1.4-19.46-.18-3.45-.57-6.79-.66-10.59 0-1.3-.46-2.44-.58-3.76-.28-3.14-.12-6.44-.36-9.21-.85-9.75 2.21-18.85.36-27.58 1.61-1.64.23-3.83.24-6.13 0-3 .75-5.44.36-9.18-.15-1.42 0-2.94-.2-4.1-.26-1.35-1.26-2.44-1.3-3.79.22-1.19 1.21-1.6 1.89-2.32 2.78.92 3.05 5.64 3.27 8.63.37 5-.47 10.61-.25 15.66 0 .63-.5 1.59.64 2.07-1.35 2.76-.43 5.55-.68 8.15-.39 4-1.75 8.39-.49 12.59a30 30 0 00-1.06 8.48c.16 4.41.73 8.83.93 13.32.24 5.62 1 11.09 1.48 17.42.06.93-.15 1.81-.11 2.72 0 .54.65 1.24.65 1.73 0 2.94-.79 5.88-.7 8.83 0 .95.52 1.82.61 2.75.54 5.62-.9 11.27-.65 16.67 0 .72.62 1.68.63 2.4 0 2.65-.6 5.32-.67 7.81-.14 5.33 1 10.3.47 15.69a2.42 2.42 0 01.68 1.05c-1.54 1.2-.29 3.17-3.01 3.28zM275.1 327.7c-2.58-.19-1.36-1.12-1.48-1.7-.05-.28-.65-.67-.7-1.05s.43-.73-.17-1c.68-4.8-.12-9.28.06-13.38a14.43 14.43 0 010-2.94c.2-.87-.36-1.69-.41-2.55 0-.38.22-.77.22-1.15s-.12-.73-.15-1.1a5.15 5.15 0 01.18-.92c0-.38-.32-.77-.32-1.16s.19-.63.19-1c0-.93 1.15-2.63.37-3.8.67-.27 1.52-.48 2.13-.77 1.93 1.49.06 3.47.83 5-.68.6-.16 1.35-.21 2.07-.08 1-.4 2 .53 2.84-.55.44 0 .88.11 1.32 0 .27-.17.54-.16.81 0 .52.4 1.05.42 1.56 0 .32-.41.67-.37 1 .08.48.45.92.46 1.39s-.33 1-.29 1.5c0 .23.35.46.41.7a16.34 16.34 0 010 2.71c0 .25.22.51.22.75 0 .47-.44.92-.44 1.38 0 .66.39 1.3.34 2a18.39 18.39 0 01-.31 2.53c-.09.41.17 1.11-.1 1.44-.73 1-.02 2.47-1.36 3.52zm9.39 48.4c-2.59-.19-1.36-1.12-1.48-1.7-.05-.28-.65-.67-.7-1s.42-.73-.17-1c.68-4.8-.13-9.28.05-13.38a15.19 15.19 0 010-2.94c.2-.87-.36-1.69-.41-2.55 0-.38.22-.77.22-1.15s-.12-.73-.15-1.1a5.15 5.15 0 01.18-.92c0-.38-.33-.77-.32-1.16s.19-.63.19-1c0-.93 1.15-2.63.37-3.8.67-.27 1.52-.48 2.13-.77 1.93 1.49.06 3.47.83 5-.69.59-.16 1.35-.22 2.07-.07 1-.4 2 .54 2.84-.55.44 0 .88.1 1.32 0 .27-.16.53-.15.81 0 .52.4 1.05.42 1.56 0 .32-.41.67-.37 1 .07.48.45.92.46 1.39s-.33 1-.29 1.5c0 .23.35.46.4.7a15.32 15.32 0 010 2.71c0 .25.22.51.22.75 0 .46-.44.92-.45 1.38 0 .66.4 1.3.34 2a18.36 18.36 0 01-.3 2.53c-.09.41.16 1.11-.1 1.44-.72.95 0 2.42-1.34 3.47zm.14 61.52c-2.58-.32-1.36-1.89-1.47-2.88-.06-.47-.66-1.12-.7-1.77s.42-1.23-.17-1.66c.67-8.11-.13-15.67 0-22.6a41.18 41.18 0 010-5c.19-1.45-.37-2.85-.42-4.29 0-.65.22-1.3.22-1.95s-.11-1.23-.15-1.85.15-1 .18-1.55-.32-1.32-.32-2 .2-1.07.19-1.65c0-1.56 1.15-4.43.37-6.42.68-.45 1.52-.8 2.13-1.29 1.94 2.51.06 5.85.84 8.5-.69 1-.16 2.29-.22 3.5-.08 1.67-.4 3.43.54 4.79-.55.76 0 1.49.1 2.24 0 .46-.16.9-.16 1.36 0 .88.4 1.77.43 2.65 0 .53-.42 1.11-.37 1.64.07.81.45 1.55.45 2.35s-.32 1.68-.29 2.52c0 .4.35.79.41 1.19.22 1.48-.05 3.06 0 4.58 0 .42.22.86.21 1.27 0 .78-.43 1.54-.44 2.32 0 1.11.39 2.2.34 3.33-.07 1.45-.11 2.81-.31 4.27-.09.7.17 1.87-.09 2.43-.67 1.71.07 4.2-1.3 5.97zM138.25 334.39c3.45.62 1.85 3.57 2 5.43.08.89.89 2.12 1 3.34s-.54 2.31.26 3.13c-.76 15.25.45 29.45.34 42.48 0 3.31.34 6.08.06 9.34-.24 2.75.53 5.36.62 8.08.05 1.21-.26 2.44-.25 3.65s.18 2.31.23 3.48c0 1-.17 1.91-.21 2.93 0 1.22.45 2.46.46 3.67 0 1-.24 2-.22 3.11 0 2.93-1.45 8.38-.38 12.08-.89.88-2 1.58-2.81 2.52-2.63-4.64-.19-11-1.27-16 .9-1.93.17-4.32.22-6.6.08-3.14.48-6.47-.8-9 .72-1.43-.08-2.8-.18-4.22-.06-.85.2-1.69.18-2.56 0-1.66-.56-3.32-.6-5 0-1 .53-2.12.46-3.11-.11-1.53-.63-2.92-.65-4.42s.4-3.17.33-4.76c0-.75-.47-1.48-.56-2.22-.31-2.8 0-5.77-.1-8.63 0-.79-.31-1.61-.32-2.39 0-1.48.56-2.92.55-4.39 0-2.09-.56-4.13-.51-6.26.07-2.75.1-5.29.33-8.05.11-1.31-.26-3.52.08-4.58.98-3.03-.02-7.73 1.74-11.05zm-3.76-179.28c-2.32-.86-.22-2.88-.3-4.39 0-.39-.56-.81-.6-1.24-.09-1.22-.4-2.41-.37-3.57 0-.33.69-.5.8-.81 0-.13-.7-.42-.66-.55s.74-.21.75-.41-.28-.5-.27-.82c0-3.2-.83-6.53.57-9.59-1.1-2.27-1-5-1.4-7.83-.19-1.39-.57-2.73-.67-4.26 0-.52-.46-1-.58-1.52-.28-1.26-.12-2.58-.35-3.7-.86-3.92 2.2-7.59.35-11.1 1.61-.66.23-1.54.24-2.46 0-1.2.75-2.19.36-3.7-.15-.57 0-1.18-.2-1.65s-1.26-1-1.3-1.52c.22-.48 1.21-.65 1.9-.94 2.77.37 3 2.27 3.26 3.48.37 2-.47 4.27-.25 6.3 0 .25-.5.64.64.83-1.35 1.11-.43 2.23-.68 3.28-.38 1.6-1.75 3.38-.49 5.07a5.52 5.52 0 00-1.05 3.41c.15 1.77.73 3.55.92 5.36.24 2.26 1 4.46 1.48 7 .07.37-.15.73-.11 1.09s.65.5.66.7c0 1.18-.79 2.36-.71 3.55 0 .38.52.73.62 1.11.53 2.26-.91 4.53-.66 6.7 0 .29.63.68.63 1 0 1.07-.6 2.14-.67 3.14-.14 2.14 1 4.15.48 6.32a1.46 1.46 0 01.67.42c-1.5.47-.28 1.26-3.01 1.3zm3 130.81c-2.32-1.78-.22-5.95-.3-9.06 0-.81-.56-1.68-.6-2.56-.09-2.53-.4-5-.37-7.37 0-.69.69-1 .8-1.67 0-.27-.7-.88-.66-1.15s.74-.43.75-.83-.28-1-.27-1.7c0-6.6-.83-13.48.57-19.79-1.1-4.69-1-10.24-1.4-16.16-.19-2.87-.57-5.64-.67-8.79 0-1.09-.46-2-.58-3.13-.28-2.6-.12-5.34-.35-7.65-.86-8.1 2.2-15.65.35-22.9 1.61-1.36.23-3.18.24-5.09 0-2.47.75-4.52.36-7.62-.15-1.18 0-2.45-.2-3.4-.26-1.13-1.26-2-1.3-3.15.22-1 1.21-1.33 1.9-1.93 2.77.76 3 4.68 3.26 7.17.37 4.13-.47 8.81-.25 13 0 .52-.5 1.33.64 1.72-1.35 2.3-.43 4.61-.68 6.77-.38 3.31-1.75 7-.49 10.45a20.93 20.93 0 00-1.05 7c.15 3.67.73 7.34.92 11.06.24 4.67 1 9.21 1.48 14.47.07.77-.15 1.5-.11 2.26 0 .45.65 1 .66 1.43 0 2.45-.79 4.89-.71 7.34 0 .79.52 1.51.62 2.28.53 4.67-.91 9.36-.66 13.84 0 .6.63 1.4.63 2 0 2.2-.6 4.41-.67 6.48-.14 4.42 1 8.56.48 13a2 2 0 01.67.87c-1.5 1.09-.28 2.72-3.01 2.81zm-6.07 155.79c-2.34-2.38-.26-8-.37-12.22 0-1.1-.57-2.27-.62-3.45-.11-3.41-.44-6.72-.43-9.93 0-.94.68-1.42.79-2.27.05-.36-.71-1.18-.67-1.54s.74-.58.75-1.13c0-.74-.29-1.41-.29-2.29 0-8.91-.93-18.19.41-26.7-1.13-6.32-1.09-13.81-1.52-21.8-.21-3.86-.61-7.61-.74-11.86 0-1.46-.47-2.73-.59-4.22-.3-3.51-.17-7.2-.42-10.31-.92-10.92 2.08-21.13.18-30.9 1.6-1.84.2-4.3.2-6.87 0-3.34.71-6.1.3-10.29-.16-1.59 0-3.29-.23-4.58-.27-1.52-1.27-2.74-1.32-4.25.21-1.33 1.2-1.79 1.88-2.6 2.78 1 3.08 6.29 3.32 9.64.41 5.58-.4 11.89-.15 17.55 0 .7-.49 1.79.65 2.32-1.33 3.1-.39 6.21-.63 9.13-.35 4.47-1.69 9.41-.41 14.11a37.42 37.42 0 00-1 9.5c.18 4.95.78 9.89 1 14.92.28 6.3 1.1 12.42 1.59 19.51.08 1-.13 2-.08 3.05 0 .6.65 1.39.66 1.93 0 3.3-.75 6.6-.65 9.9 0 1.06.53 2 .63 3.08.58 6.29-.83 12.63-.54 18.67 0 .81.63 1.89.64 2.7 0 3-.56 6-.62 8.75-.11 6 1.08 11.53.58 17.58a2.79 2.79 0 01.68 1.16c-1.53 1.38-.26 3.58-2.98 3.71zm7.74-114.01c-2.58-.19-1.36-1.12-1.47-1.7-.06-.28-.66-.67-.7-1.05s.42-.73-.17-1c.68-4.8-.13-9.28.05-13.38a14.43 14.43 0 010-2.94c.19-.87-.37-1.69-.42-2.55 0-.38.22-.77.22-1.15a8.53 8.53 0 00-.15-1.1 6.22 6.22 0 01.18-.92c0-.38-.32-.77-.32-1.16s.2-.63.19-1c0-.93 1.15-2.63.37-3.8.68-.27 1.52-.48 2.13-.77 1.94 1.49.06 3.47.84 5-.69.6-.16 1.35-.22 2.07-.08 1-.4 2 .54 2.84-.55.44 0 .88.1 1.32 0 .27-.16.54-.15.81 0 .52.39 1.05.42 1.56 0 .32-.42.67-.37 1 .07.48.45.92.45 1.39s-.32 1-.29 1.5c0 .23.35.46.41.7a16.33 16.33 0 010 2.71c0 .25.22.51.21.75 0 .47-.43.92-.44 1.38 0 .66.4 1.3.34 2a17 17 0 01-.31 2.53c-.09.41.17 1.11-.09 1.44-.72 1-.01 2.47-1.35 3.52zM350.7 446.53c-2.59-.23-1.36-1.38-1.48-2.09-.05-.35-.65-.82-.7-1.3s.43-.89-.17-1.21c.68-5.9-.13-11.4 0-16.45a23 23 0 010-3.62c.2-1.06-.36-2.07-.41-3.13 0-.47.22-.94.22-1.41s-.12-.9-.15-1.35a7.58 7.58 0 01.18-1.13c0-.47-.33-1-.32-1.43s.19-.78.19-1.2c0-1.13 1.15-3.23.37-4.67.67-.33 1.52-.58 2.13-.94 1.93 1.83.06 4.26.83 6.19-.68.74-.16 1.67-.21 2.55-.08 1.21-.4 2.49.53 3.49-.55.55 0 1.08.11 1.63 0 .33-.17.65-.16 1 0 .64.4 1.28.42 1.92 0 .39-.41.82-.37 1.2.07.59.45 1.13.46 1.71s-.33 1.22-.29 1.84c0 .29.35.57.4.86a23.12 23.12 0 010 3.33c0 .31.22.63.22.93 0 .57-.44 1.13-.45 1.69 0 .81.4 1.6.35 2.42a27.46 27.46 0 01-.31 3.12c-.09.5.17 1.36-.1 1.77-.66 1.18.01 2.99-1.29 4.28zM304.54 240.6c-2.59-.16-1.37-1-1.48-1.47-.05-.24-.65-.57-.7-.9s.42-.63-.17-.85c.68-4.14-.13-8 .05-11.53a11.25 11.25 0 010-2.53c.2-.75-.37-1.46-.41-2.2 0-.33.21-.66.22-1s-.12-.63-.15-.95.14-.51.18-.79-.33-.67-.32-1 .19-.54.18-.84c0-.79 1.15-2.26.38-3.27.67-.23 1.51-.41 2.13-.66 1.93 1.28.06 3 .83 4.34-.69.51-.16 1.17-.22 1.78-.07.85-.4 1.75.54 2.45-.55.38 0 .75.1 1.14 0 .23-.16.46-.15.69 0 .45.4.9.42 1.35 0 .27-.41.57-.37.84s.45.79.46 1.2-.33.86-.29 1.29c0 .2.35.4.4.6a11.43 11.43 0 010 2.34c0 .21.22.44.22.65 0 .4-.44.79-.45 1.18 0 .57.4 1.12.34 1.7a13.76 13.76 0 01-.3 2.18c-.09.35.16 1-.1 1.24-.72.85 0 2.12-1.34 3.02zM317 446.53c-3.44-.65-1.79-3.79-1.94-5.78-.07-.95-.86-2.26-.92-3.56s.57-2.47-.22-3.34c.95-16.27-.09-31.44.16-45.34.06-3.54-.28-6.5 0-10 .27-2.93-.48-5.73-.55-8.63 0-1.29.29-2.61.3-3.89s-.16-2.47-.2-3.73c0-1 .18-2 .23-3.11.05-1.3-.43-2.63-.43-3.93 0-1.05.25-2.14.24-3.31 0-3.13 1.5-8.9.42-12.86a33 33 0 002.79-2.63c2.68 5 .19 11.76 1.24 17.07-.91 2-.21 4.6-.28 7-.09 3.36-.52 6.89.73 9.62-.74 1.52.05 3 .13 4.51.06.9-.21 1.79-.2 2.72 0 1.77.52 3.55.55 5.31 0 1.07-.55 2.24-.49 3.3.1 1.63.6 3.12.6 4.72s-.44 3.37-.39 5.07c0 .8.46 1.58.54 2.37.29 3-.07 6.14 0 9.19 0 .84.29 1.73.28 2.56 0 1.57-.59 3.1-.6 4.66 0 2.23.52 4.41.44 6.67-.1 2.93-.16 5.64-.43 8.58-.13 1.4.21 3.76-.14 4.88-1.03 3.35-.09 8.35-1.86 11.88zm20.54-313.08c-2.31-1.24-.19-4.09-.26-6.23 0-.56-.56-1.16-.6-1.77-.09-1.74-.39-3.42-.35-5.06 0-.48.68-.72.8-1.15.05-.18-.71-.61-.66-.79s.74-.29.75-.57-.27-.72-.27-1.17c0-4.54-.81-9.27.59-13.61-1.09-3.22-1-7-1.38-11.11-.19-2-.57-3.88-.67-6 0-.75-.46-1.4-.57-2.15-.28-1.79-.13-3.68-.36-5.26-.86-5.56 2.19-10.76.32-15.74 1.6-.94.22-2.19.22-3.49 0-1.7.73-3.11.33-5.24a21.37 21.37 0 00-.23-2.33c-.27-.77-1.27-1.37-1.33-2.12.21-.66 1.19-.92 1.87-1.35 2.79.42 3.11 3.16 3.34 4.86.4 2.85-.43 6.07-.19 9 0 .35-.5.91.64 1.18-1.34 1.58-.41 3.17-.67 4.65-.37 2.28-1.74 4.8-.48 7.19a10.49 10.49 0 00-1 4.85c.15 2.51.73 5 .92 7.6.24 3.21 1 6.33 1.47 10 .07.53-.15 1-.1 1.55 0 .31.65.71.65 1 0 1.68-.8 3.36-.71 5 0 .54.52 1 .61 1.57.53 3.21-.92 6.44-.67 9.52 0 .41.62 1 .62 1.38 0 1.51-.61 3-.68 4.45-.15 3 1 5.89.44 9a1.61 1.61 0 01.68.6c-1.61.56-.34 1.69-3.07 1.74zm1.72 58.55c-2.58-.23-1.36-1.42-1.48-2.16 0-.36-.65-.85-.69-1.34s.42-.92-.18-1.25c.68-6.1-.12-11.79.06-17a23.33 23.33 0 010-3.74c.2-1.1-.36-2.15-.41-3.24 0-.48.22-1 .22-1.46s-.12-.92-.15-1.39a9.76 9.76 0 01.18-1.17c0-.49-.32-1-.32-1.48s.19-.8.19-1.24c0-1.17 1.15-3.33.37-4.83.68-.34 1.52-.6 2.13-1 1.93 1.89.06 4.4.84 6.4-.69.76-.17 1.72-.22 2.63-.08 1.26-.4 2.58.53 3.61-.55.57 0 1.12.11 1.69 0 .34-.17.67-.16 1 0 .66.4 1.33.42 2 0 .4-.41.84-.37 1.24a14.89 14.89 0 01.46 1.77c0 .61-.33 1.26-.29 1.89 0 .3.35.6.41.89a28.34 28.34 0 010 3.45c0 .32.22.65.21 1 0 .59-.44 1.16-.44 1.75 0 .83.39 1.65.34 2.5a27.18 27.18 0 01-.31 3.22c-.09.52.17 1.4-.09 1.83-.73 1.23-.02 3.1-1.36 4.43zm30.96-120.34c2.59.41 1.37 2.43 1.48 3.7.06.61.66 1.45.7 2.29s-.42 1.58.17 2.14c-.68 10.43.13 20.15-.05 29.07 0 2.26.21 4.16 0 6.39-.2 1.87.37 3.67.42 5.53 0 .83-.22 1.67-.23 2.5s.12 1.58.15 2.38-.14 1.3-.17 2 .32 1.69.31 2.52c0 .68-.19 1.38-.18 2.12 0 2-1.15 5.71-.38 8.26-.67.58-1.51 1-2.13 1.66-1.93-3.23-.06-7.53-.83-10.94.69-1.3.16-2.95.22-4.5.07-2.15.4-4.41-.54-6.16.55-1 0-1.92-.1-2.89 0-.58.16-1.15.15-1.75 0-1.13-.39-2.27-.42-3.4 0-.68.42-1.44.37-2.11-.07-1-.45-2-.45-3s.32-2.16.28-3.25c0-.51-.34-1-.4-1.52-.22-1.91 0-3.94 0-5.89 0-.54-.22-1.1-.21-1.64 0-1 .43-2 .44-3 0-1.42-.4-2.82-.34-4.27.07-1.88.11-3.62.3-5.5a19.73 19.73 0 01.1-3.13c.72-2.13 0-5.33 1.34-7.61zm-8.81 47.68c-2.59-.34-1.37-2-1.48-3.09-.05-.51-.66-1.21-.7-1.91s.42-1.32-.17-1.79c.68-8.71-.13-16.83.05-24.28a50 50 0 010-5.34c.2-1.57-.37-3.07-.41-4.62 0-.7.21-1.4.22-2.09s-.12-1.32-.15-2a16.3 16.3 0 01.17-1.67c0-.7-.32-1.41-.31-2.11s.19-1.14.18-1.77c0-1.68 1.15-4.76.38-6.89.67-.49 1.51-.87 2.13-1.39 1.93 2.7.06 6.29.83 9.13-.69 1.09-.16 2.47-.22 3.76-.07 1.8-.4 3.69.54 5.15-.55.82 0 1.6.1 2.41 0 .49-.16 1-.15 1.46 0 1 .39 1.9.42 2.85 0 .57-.42 1.2-.37 1.76.07.88.45 1.67.45 2.53s-.32 1.8-.28 2.71c0 .43.34.85.4 1.27.22 1.6 0 3.29 0 4.92 0 .46.22.93.22 1.37 0 .84-.44 1.66-.45 2.5 0 1.19.4 2.36.34 3.57-.07 1.57-.11 3-.3 4.6a13.81 13.81 0 01-.1 2.61c-.75 1.77 0 4.45-1.34 6.35zm-236.87 14.05c-2.59-.34-1.37-2-1.48-3.09 0-.51-.65-1.21-.7-1.91s.42-1.32-.17-1.79c.68-8.71-.13-16.83 0-24.28a50 50 0 010-5.34c.2-1.57-.37-3.07-.41-4.62 0-.7.21-1.4.22-2.09s-.12-1.32-.15-2a14 14 0 01.18-1.67c0-.7-.33-1.41-.32-2.11s.19-1.14.18-1.77c0-1.68 1.15-4.76.38-6.9.67-.48 1.51-.86 2.13-1.38 1.93 2.7.06 6.29.83 9.13-.69 1.09-.16 2.47-.22 3.76-.07 1.8-.4 3.69.54 5.15-.55.82 0 1.6.1 2.41 0 .49-.16 1-.15 1.46 0 1 .4 1.9.42 2.85 0 .57-.41 1.2-.37 1.76.07.88.45 1.67.46 2.53s-.33 1.8-.29 2.71c0 .43.35.85.4 1.27.22 1.6 0 3.29 0 4.92 0 .46.22.93.22 1.37 0 .84-.44 1.66-.45 2.5 0 1.19.4 2.36.34 3.57-.07 1.57-.11 3-.3 4.6a13 13 0 01-.1 2.61c-.67 1.77.05 4.45-1.29 6.35zm214.72 89.55c-2.58-.12-1.36-.71-1.48-1.09 0-.17-.65-.42-.69-.66s.42-.47-.18-.63c.68-3.05-.12-5.89.06-8.5 0-.66-.22-1.22 0-1.87s-.36-1.07-.41-1.62c0-.24.22-.49.22-.73a6.28 6.28 0 00-.15-.7c0-.19.15-.38.18-.58s-.32-.49-.32-.74.19-.4.19-.62c0-.59 1.15-1.67.37-2.41.68-.17 1.52-.31 2.13-.49 1.93.95.06 2.2.84 3.2-.69.38-.17.86-.22 1.32-.08.62-.4 1.29.53 1.8-.55.28 0 .56.11.84s-.17.34-.16.51c0 .34.4.67.42 1s-.41.42-.37.62.46.58.46.88-.33.63-.29.95c0 .15.35.3.41.45.21.56-.05 1.15 0 1.72 0 .16.22.32.21.48s-.44.58-.44.87.39.83.34 1.25a7 7 0 01-.31 1.61c-.09.26.17.71-.09.92-.73.61-.02 1.55-1.36 2.22zm-96.84 177.54c-3.44-1-1.79-6.12-1.94-9.33-.07-1.54-.86-3.66-.92-5.77s.57-4-.22-5.4c.95-26.32-.1-50.85.16-73.35.06-5.72-.28-10.5 0-16.12.26-4.74-.48-9.28-.55-14 0-2.1.29-4.22.29-6.3s-.15-4-.2-6c0-1.7.19-3.28.24-5.05.05-2.1-.44-4.26-.43-6.35 0-1.71.25-3.47.24-5.36 0-5.06 1.51-14.39.42-20.81.9-1.48 2-2.61 2.79-4.24 2.7 8.17.19 19 1.24 27.62-.91 3.28-.21 7.44-.28 11.36-.09 5.42-.53 11.13.72 15.55-.73 2.46.06 4.83.14 7.29.05 1.47-.22 2.91-.21 4.41 0 2.86.53 5.73.56 8.58 0 1.73-.55 3.63-.49 5.34.09 2.64.6 5.05.6 7.64s-.44 5.44-.39 8.19c0 1.29.46 2.56.54 3.84.28 4.82-.07 9.93 0 14.86 0 1.37.29 2.79.28 4.14 0 2.54-.59 5-.6 7.54 0 3.6.52 7.13.44 10.79-.1 4.74-.16 9.13-.43 13.88-.13 2.26.21 6.07-.14 7.89-.99 5.34-.05 13.43-1.86 19.16zM193 51.74c2.34 2.2.26 7.43.37 11.31 0 1 .58 2.1.62 3.2.12 3.15.44 6.21.43 9.19 0 .86-.68 1.31-.78 2.1 0 .33.71 1.09.67 1.42-.05.48-.74.54-.75 1.05 0 .68.29 1.3.29 2.12 0 8.24.93 16.83-.41 24.71 1.13 5.85 1.09 12.78 1.53 20.18.21 3.57.61 7 .74 11 0 1.35.47 2.53.6 3.9.3 3.25.16 6.67.42 9.55.91 10.1-2.08 19.56-.17 28.6-1.6 1.7-.21 4-.2 6.35 0 3.09-.72 5.65-.3 9.52.16 1.48 0 3.05.23 4.25.27 1.4 1.27 2.53 1.32 3.92-.21 1.24-1.2 1.67-1.88 2.42-2.78-.93-3.08-5.82-3.32-8.93-.41-5.16.4-11 .14-16.24 0-.64.49-1.65-.65-2.14 1.33-2.87.39-5.75.63-8.45.35-4.14 1.69-8.72.41-13.06a32.58 32.58 0 001-8.8c-.18-4.57-.79-9.15-1-13.8-.28-5.83-1.1-11.5-1.6-18.06-.07-1 .14-1.88.09-2.82 0-.56-.66-1.29-.67-1.79 0-3 .76-6.1.65-9.16 0-1-.53-1.88-.63-2.85-.58-5.82.83-11.69.54-17.28 0-.75-.64-1.75-.65-2.5 0-2.74.57-5.51.62-8.1.11-5.52-1.08-10.67-.58-16.26a2.56 2.56 0 01-.68-1.08c1.47-1.31.2-3.34 2.97-3.47zm-8.62 150.11c3.46 1.4 1.9 8.25 2.1 12.56.1 2.07.93 4.91 1 7.75s-.51 5.37.3 7.25c-.52 35.39.91 68.35 1 98.58 0 7.69.43 14.11.2 21.67-.2 6.37.62 12.45.75 18.75.06 2.82-.23 5.68-.21 8.47s.22 5.37.29 8.09c.06 2.28-.14 4.42-.16 6.78 0 2.83.49 5.72.51 8.54 0 2.29-.2 4.67-.17 7.2.09 6.81-1.33 19.39-.2 28-.88 2-2 3.57-2.77 5.73-2.7-10.88-.36-25.54-1.52-37.08.87-4.44.11-10 .13-15.28 0-7.29.37-15-.94-20.9.7-3.32-.12-6.5-.24-9.79-.08-2 .17-3.92.14-5.94-.06-3.85-.61-7.7-.68-11.53 0-2.33.5-4.89.41-7.19-.13-3.55-.67-6.78-.71-10.26s.35-7.33.26-11c0-1.74-.5-3.44-.59-5.16-.37-6.48-.09-13.37-.24-20-.05-1.84-.34-3.75-.35-5.56 0-3.42.51-6.75.48-10.15 0-4.85-.63-9.58-.61-14.51 0-6.38 0-12.28.21-18.67.09-3-.31-8.16 0-10.62.97-7.14-.1-18.03 1.61-25.73zm45.46 244.68c-2.58-1.22-1.34-7.24-1.45-11 0-1.82-.64-4.32-.68-6.82s.43-4.72-.16-6.38c.72-31.14-.06-60.16.13-86.77 0-6.76-.2-12.43 0-19.07.2-5.6-.36-11-.41-16.51 0-2.48.21-5 .22-7.46s-.12-4.72-.16-7.12c0-2 .15-3.88.18-6 0-2.49-.33-5-.33-7.52 0-2 .19-4.11.18-6.34 0-6 1.13-17 .31-24.63.67-1.74 1.48-3.08 2.07-5 2.05 9.66.17 22.49 1 32.66-.68 3.89-.15 8.8-.2 13.44-.07 6.41-.4 13.17.54 18.4-.55 2.9 0 5.71.1 8.61 0 1.74-.16 3.44-.15 5.22 0 3.39.39 6.78.41 10.15 0 2.05-.41 4.3-.37 6.32.07 3.12.45 6 .45 9s-.33 6.44-.29 9.69c0 1.53.35 3 .4 4.54.22 5.7 0 11.75 0 17.58 0 1.62.21 3.3.21 4.89 0 3-.45 5.93-.45 8.92 0 4.26.38 8.43.32 12.77-.07 5.6-.12 10.79-.32 16.41-.1 2.67.15 7.18-.11 9.34-.77 6.33-.07 15.9-1.44 22.68zM240.62 60.4c2.32 2.16.22 7.23.29 11 0 1 .57 2 .61 3.11.09 3.08.4 6.06.37 9 0 .84-.69 1.27-.8 2-.05.32.7 1.07.66 1.39s-.74.52-.75 1c0 .67.28 1.28.27 2.08 0 8 .83 16.39-.57 24.06 1.1 5.71 1 12.46 1.4 19.67.19 3.48.57 6.86.67 10.69 0 1.32.46 2.47.58 3.8.28 3.17.12 6.5.35 9.31.86 9.85-2.2 19-.35 27.86-1.61 1.64-.23 3.86-.24 6.18 0 3-.75 5.5-.36 9.28.15 1.43 0 3 .2 4.13.26 1.37 1.26 2.48 1.3 3.84-.22 1.2-1.21 1.61-1.9 2.34-2.77-.93-3-5.69-3.26-8.72-.38-5 .47-10.71.25-15.82 0-.63.5-1.61-.64-2.09 1.35-2.79.43-5.6.68-8.23.38-4 1.75-8.48.49-12.72a30.48 30.48 0 001-8.56c-.15-4.46-.73-8.92-.92-13.45-.24-5.68-1-11.21-1.48-17.61-.07-.93.15-1.82.11-2.74 0-.54-.65-1.26-.66-1.74 0-3 .79-5.95.71-8.93 0-1-.52-1.83-.62-2.77-.53-5.68.91-11.39.65-16.84 0-.73-.62-1.7-.62-2.43 0-2.68.6-5.37.67-7.89.14-5.37-1-10.4-.48-15.85a2.44 2.44 0 01-.67-1.05c1.59-1.21.33-3.19 3.06-3.3zm11.71 68.18c2.32 2.17.21 7.24.29 11 0 1 .57 2.05.6 3.12.1 3.07.4 6.06.38 9 0 .84-.69 1.27-.8 2-.05.32.7 1.07.66 1.39s-.74.52-.76 1c0 .67.28 1.28.28 2.07 0 8 .83 16.4-.57 24.07 1.1 5.7 1 12.46 1.4 19.66.19 3.49.57 6.87.67 10.7 0 1.31.46 2.46.57 3.8.28 3.17.12 6.5.36 9.3.85 9.85-2.2 19.05-.35 27.86-1.61 1.65-.23 3.87-.24 6.19 0 3-.75 5.5-.36 9.28.15 1.43 0 3 .2 4.13.26 1.37 1.26 2.47 1.29 3.83-.22 1.21-1.2 1.62-1.89 2.35-2.77-.93-3-5.69-3.26-8.72-.38-5 .47-10.72.25-15.82 0-.63.5-1.61-.64-2.09 1.35-2.79.42-5.6.68-8.23.38-4 1.75-8.48.49-12.72a30.9 30.9 0 001-8.56c-.15-4.46-.73-8.92-.92-13.46-.24-5.68-1-11.2-1.48-17.6-.07-.93.15-1.82.1-2.75 0-.54-.65-1.25-.65-1.74 0-3 .79-5.94.71-8.92 0-1-.52-1.83-.62-2.78-.54-5.67.91-11.38.65-16.83 0-.73-.62-1.7-.62-2.43 0-2.68.6-5.37.66-7.89.15-5.38-1-10.4-.47-15.85a2.43 2.43 0 01-.68-1.06c1.6-1.2.34-3.19 3.07-3.3zm-46.02 19.14c2.33 2.63.22 8.79.3 13.38 0 1.21.57 2.49.6 3.79.1 3.73.4 7.36.37 10.88 0 1-.68 1.54-.79 2.47 0 .4.7 1.3.66 1.7 0 .55-.75.63-.76 1.22 0 .81.28 1.55.28 2.52 0 9.75.82 19.91-.57 29.22 1.1 6.93 1 15.13 1.4 23.88.19 4.23.57 8.33.67 13 0 1.6.46 3 .57 4.63.28 3.84.12 7.89.36 11.29.85 12-2.21 23.12-.35 33.83-1.61 2-.24 4.7-.24 7.52 0 3.65-.75 6.67-.36 11.26.15 1.74 0 3.61.2 5 .26 1.66 1.25 3 1.29 4.65-.22 1.47-1.21 2-1.89 2.85-2.78-1.12-3-6.91-3.26-10.59-.38-6.1.47-13 .24-19.21 0-.76.51-1.95-.63-2.53 1.34-3.39.42-6.81.68-10 .38-4.89 1.75-10.29.49-15.44a45.23 45.23 0 001.05-10.4c-.16-5.42-.73-10.83-.92-16.34-.25-6.9-1-13.6-1.48-21.37-.07-1.14.15-2.22.1-3.34 0-.66-.65-1.52-.65-2.11 0-3.62.79-7.22.71-10.84 0-1.16-.53-2.23-.62-3.37-.54-6.89.91-13.83.65-20.44 0-.89-.62-2.07-.63-3 0-3.25.6-6.52.67-9.58.15-6.52-1-12.63-.47-19.24a3.14 3.14 0 01-.68-1.28c1.55-1.47.29-3.87 3.01-4.01zm-2.31-6.41c-3.09-1.33-.29-4.45-.39-6.77 0-.61-.76-1.26-.8-1.91-.13-1.89-.54-3.73-.5-5.51 0-.51.92-.78 1.06-1.25.07-.2-.93-.65-.88-.86s1-.31 1-.62-.37-.78-.37-1.27c0-4.93-1.1-10.07.76-14.78-1.46-3.5-1.35-7.65-1.87-12.08-.25-2.14-.76-4.21-.89-6.57a21.78 21.78 0 00-.76-2.33c-.38-2-.16-4-.48-5.72-1.14-6 2.94-11.69.47-17.11 2.15-1 .31-2.38.32-3.8 0-1.85 1-3.38.48-5.7a18.68 18.68 0 00-.27-2.54c-.34-.84-1.67-1.52-1.72-2.35.29-.74 1.61-1 2.52-1.44 3.7.57 4.05 3.49 4.35 5.35.5 3.09-.63 6.58-.33 9.72 0 .39-.67 1 .85 1.28-1.8 1.72-.57 3.44-.9 5.06-.52 2.47-2.34 5.21-.66 7.81a9.52 9.52 0 00-1.4 5.26c.2 2.74 1 5.48 1.23 8.26.32 3.49 1.36 6.89 2 10.82.09.57-.2 1.12-.14 1.68 0 .34.87.77.87 1.07 0 1.83-1.05 3.65-.94 5.48 0 .59.69 1.13.82 1.71.72 3.49-1.21 7-.87 10.34 0 .45.83 1 .84 1.49 0 1.65-.8 3.3-.89 4.85-.19 3.3 1.34 6.39.63 9.74a2 2 0 01.9.64c-2.04.74-.37 1.98-4.04 2.05zm-7.93 296.31c-2.32-2.73-.21-9.12-.29-13.88 0-1.25-.57-2.58-.6-3.93-.1-3.86-.4-7.62-.38-11.28 0-1 .69-1.6.8-2.56.05-.41-.7-1.35-.66-1.76.05-.58.74-.65.75-1.27 0-.84-.27-1.61-.27-2.61 0-10.11-.83-20.65.57-30.31-1.1-7.18-1-15.68-1.4-24.76-.19-4.38-.57-8.64-.67-13.46 0-1.66-.46-3.11-.57-4.79-.28-4-.12-8.19-.36-11.72-.85-12.4 2.2-24 .35-35.08 1.61-2.08.23-4.87.24-7.79 0-3.8.75-6.92.36-11.68-.15-1.81 0-3.75-.2-5.21-.26-1.72-1.26-3.12-1.29-4.83.22-1.51 1.2-2 1.89-2.95 2.77 1.17 3 7.17 3.26 11 .38 6.33-.47 13.49-.25 19.92 0 .79-.5 2 .64 2.63-1.35 3.52-.42 7.06-.68 10.37-.38 5.07-1.75 10.67-.49 16a48 48 0 00-1 10.79c.15 5.61.73 11.23.92 16.94.24 7.15 1 14.11 1.48 22.16.07 1.18-.15 2.3-.1 3.46 0 .68.65 1.58.65 2.2 0 3.74-.79 7.48-.71 11.23 0 1.21.52 2.31.62 3.5.54 7.15-.91 14.34-.65 21.2 0 .92.62 2.14.62 3.06 0 3.37-.6 6.76-.66 9.94-.15 6.77 1 13.09.47 19.95a3.21 3.21 0 01.67 1.33c-1.59 1.57-.33 4.05-3.06 4.19zm-12.46-241.69c-2.34-2.07-.27-7-.37-10.63 0-1-.58-2-.62-3-.12-3-.45-5.85-.44-8.65 0-.81.68-1.23.79-2 .05-.31-.71-1-.67-1.34s.74-.5.75-1c0-.64-.29-1.23-.29-2 0-7.75-.94-15.82.4-23.23-1.13-5.49-1.09-12-1.53-19-.21-3.36-.61-6.62-.73-10.31-.05-1.28-.48-2.38-.6-3.67-.3-3.06-.17-6.27-.42-9-.92-9.5 2.08-18.39.17-26.89 1.59-1.6.2-3.73.2-6 0-2.9.71-5.31.29-8.95-.16-1.39 0-2.87-.23-4C180 55.09 179 54 179 52.72c.22-1.16 1.2-1.57 1.88-2.27 2.78.87 3.08 5.47 3.32 8.39.41 4.84-.4 10.34-.14 15.26 0 .61-.49 1.56.65 2-1.33 2.7-.39 5.41-.62 7.95-.36 3.88-1.7 8.19-.41 12.27a28.54 28.54 0 00-1 8.27c.19 4.3.79 8.6 1 13 .28 5.48 1.1 10.8 1.59 17 .08.91-.14 1.77-.09 2.66 0 .52.66 1.2.67 1.67 0 2.87-.75 5.74-.65 8.62 0 .92.54 1.76.64 2.67.57 5.48-.83 11-.54 16.25 0 .71.63 1.64.64 2.35 0 2.58-.56 5.18-.62 7.61-.1 5.19 1.08 10 .58 15.29a2.44 2.44 0 01.69 1c-1.53 1.19-.26 3.1-2.98 3.22zm35.58 245.29c-2.32-2.15-.22-7.17-.29-10.91 0-1-.57-2-.61-3.09-.09-3-.4-6-.37-8.87 0-.83.69-1.26.8-2 .05-.32-.7-1.05-.66-1.38s.74-.51.75-1c0-.66-.28-1.26-.27-2.05 0-7.95-.83-16.23.57-23.83-1.1-5.64-1-12.32-1.4-19.46-.19-3.45-.57-6.79-.67-10.59 0-1.3-.46-2.44-.58-3.76-.27-3.14-.12-6.44-.35-9.21-.86-9.75 2.2-18.85.35-27.58 1.61-1.64.23-3.83.24-6.13 0-3 .75-5.44.36-9.18-.15-1.42 0-2.94-.2-4.1-.26-1.35-1.26-2.44-1.3-3.79.22-1.19 1.21-1.6 1.9-2.32 2.77.92 3 5.64 3.26 8.63.38 5-.47 10.61-.25 15.66 0 .63-.5 1.59.64 2.07-1.35 2.76-.42 5.55-.68 8.15-.38 4-1.75 8.39-.49 12.59a30 30 0 00-1.05 8.48c.15 4.41.73 8.83.92 13.32.24 5.62 1 11.09 1.48 17.42.07.93-.15 1.81-.11 2.72 0 .54.65 1.24.66 1.73 0 2.94-.79 5.88-.71 8.83 0 .95.52 1.82.62 2.75.53 5.62-.91 11.27-.65 16.67 0 .72.62 1.68.62 2.4 0 2.65-.6 5.32-.67 7.81-.14 5.33 1 10.3.48 15.69a2.5 2.5 0 01.67 1.05c-1.54 1.2-.28 3.17-3.01 3.28zm34.25 0c-2.32-2.15-.22-7.17-.29-10.91 0-1-.57-2-.6-3.09-.1-3-.41-6-.38-8.87 0-.83.69-1.26.8-2 .05-.32-.7-1.05-.66-1.38s.74-.51.75-1c0-.66-.27-1.26-.27-2.05 0-7.95-.83-16.23.57-23.83-1.1-5.64-1-12.32-1.4-19.46-.19-3.45-.57-6.79-.67-10.59 0-1.3-.46-2.44-.58-3.76-.27-3.14-.12-6.44-.35-9.21-.86-9.75 2.2-18.85.35-27.58 1.61-1.64.23-3.83.24-6.13 0-3 .75-5.44.36-9.18-.15-1.42 0-2.94-.2-4.1-.26-1.35-1.26-2.44-1.3-3.79.22-1.19 1.21-1.6 1.9-2.32 2.77.92 3 5.64 3.26 8.63.38 5-.47 10.61-.25 15.66 0 .63-.5 1.59.64 2.07-1.35 2.76-.42 5.55-.68 8.15-.38 4-1.75 8.39-.49 12.59a30 30 0 00-1.05 8.48c.15 4.41.73 8.83.92 13.32.24 5.62 1 11.09 1.48 17.42.07.93-.15 1.81-.11 2.72 0 .54.65 1.24.66 1.73 0 2.94-.79 5.88-.71 8.83 0 .95.52 1.82.62 2.75.54 5.62-.91 11.27-.65 16.67 0 .72.62 1.68.62 2.4 0 2.65-.6 5.32-.66 7.81-.15 5.33 1 10.3.47 15.69a2.41 2.41 0 01.67 1.05c-1.54 1.2-.28 3.17-3.01 3.28zm-12.09 5.31c-2.58-.23-1.36-1.38-1.47-2.09-.06-.35-.66-.82-.7-1.3s.42-.89-.18-1.21c.68-5.9-.12-11.4.06-16.45a23 23 0 010-3.62c.2-1.06-.36-2.07-.41-3.13 0-.47.22-.94.22-1.41s-.12-.9-.15-1.35a9.14 9.14 0 01.18-1.13c0-.47-.32-1-.32-1.43s.19-.78.19-1.2c0-1.13 1.15-3.23.37-4.67.68-.33 1.52-.58 2.13-.94 1.94 1.83.06 4.26.84 6.19-.69.74-.17 1.67-.22 2.55-.08 1.21-.4 2.49.53 3.49-.55.55 0 1.08.11 1.63 0 .33-.16.65-.16 1 0 .64.4 1.28.42 1.92 0 .39-.41.82-.36 1.2a16 16 0 01.45 1.71c0 .6-.33 1.22-.29 1.84 0 .29.35.57.41.86a24.65 24.65 0 010 3.33c0 .31.22.63.21.93 0 .57-.44 1.13-.44 1.69 0 .81.39 1.6.34 2.42a25.35 25.35 0 01-.31 3.12c-.09.5.17 1.36-.09 1.77-.71 1.18-.02 2.99-1.36 4.28zM195.19 240.6c-2.58-.16-1.36-1-1.48-1.47-.05-.24-.65-.57-.7-.9s.43-.63-.17-.85c.68-4.14-.12-8 .06-11.53a10.7 10.7 0 010-2.53c.2-.75-.36-1.46-.41-2.2 0-.33.22-.66.22-1s-.12-.63-.15-.95a4.05 4.05 0 01.18-.79c0-.33-.32-.67-.32-1s.19-.54.19-.84c0-.79 1.15-2.26.37-3.27.68-.23 1.52-.41 2.13-.66 1.93 1.28.06 3 .83 4.34-.68.51-.16 1.17-.21 1.78-.08.85-.4 1.75.53 2.45-.55.38 0 .75.11 1.14 0 .23-.17.46-.16.69 0 .45.4.9.42 1.35 0 .27-.41.57-.37.84s.46.79.46 1.2-.33.86-.29 1.29c0 .2.35.4.41.6a12.19 12.19 0 010 2.34c0 .21.22.44.22.65 0 .4-.44.79-.44 1.18 0 .57.39 1.12.34 1.7a13.79 13.79 0 01-.31 2.18c-.09.35.17 1-.1 1.24-.73.85-.02 2.12-1.36 3.02zm12.43 205.93c-3.44-.65-1.8-3.79-2-5.78-.06-.95-.86-2.26-.92-3.56s.57-2.47-.21-3.34c1-16.27-.1-31.44.15-45.34.07-3.54-.27-6.5.05-10 .26-2.93-.49-5.73-.55-8.63 0-1.29.29-2.61.29-3.89s-.16-2.47-.2-3.73c0-1 .19-2 .23-3.11.06-1.3-.43-2.63-.43-3.93 0-1.05.25-2.14.24-3.31 0-3.13 1.5-8.9.43-12.86a36.35 36.35 0 002.79-2.63c2.68 5 .19 11.76 1.24 17.07-.92 2-.21 4.6-.28 7-.1 3.36-.53 6.89.72 9.62-.74 1.52.05 3 .14 4.51 0 .9-.22 1.79-.21 2.72 0 1.77.53 3.55.56 5.31 0 1.07-.56 2.24-.5 3.3.1 1.63.6 3.12.61 4.72s-.44 3.37-.39 5.07c0 .8.46 1.58.53 2.37.29 3-.07 6.14 0 9.19 0 .84.29 1.73.29 2.56 0 1.57-.59 3.1-.61 4.66 0 2.23.52 4.41.44 6.67-.1 2.93-.16 5.64-.43 8.58-.12 1.4.22 3.76-.14 4.88-.97 3.35-.03 8.35-1.84 11.88zm11.02-256.2c-2.32-1.47-.2-4.89-.27-7.45 0-.67-.56-1.39-.59-2.11-.09-2.08-.39-4.1-.36-6.06 0-.56.69-.85.8-1.37.05-.22-.7-.73-.66-1s.74-.35.76-.68-.28-.86-.28-1.4c0-5.43-.8-11.09.6-16.27-1.09-3.86-1-8.43-1.39-13.3-.19-2.36-.57-4.64-.67-7.23 0-.89-.45-1.67-.57-2.57-.28-2.14-.12-4.4-.36-6.29-.86-6.66 2.19-12.88.32-18.84 1.61-1.11.23-2.61.23-4.18 0-2 .73-3.71.32-6.26a27.52 27.52 0 00-.22-2.79c-.3-.87-1.3-1.61-1.3-2.53.2-.79 1.19-1.09 1.86-1.6 2.79.52 3.11 3.79 3.35 5.83.4 3.4-.43 7.26-.2 10.71 0 .42-.49 1.09.65 1.41-1.35 1.89-.42 3.79-.67 5.57-.38 2.72-1.74 5.73-.48 8.6a14.61 14.61 0 00-1 5.79c.16 3 .73 6 .92 9.1.25 3.84 1 7.58 1.48 11.9.06.63-.15 1.24-.11 1.86 0 .37.65.85.65 1.18 0 2-.79 4-.71 6 0 .65.52 1.24.61 1.88.54 3.84-.91 7.7-.67 11.38 0 .5.62 1.16.63 1.65 0 1.81-.61 3.63-.68 5.33-.16 3.64 1 7 .44 10.73a1.71 1.71 0 01.67.72c-1.63.89-.38 2.24-3.1 2.29zm.13 54.74c-2.59-.23-1.36-1.42-1.48-2.16 0-.36-.65-.85-.7-1.34s.42-.92-.17-1.25c.68-6.1-.13-11.79.05-17a24.55 24.55 0 010-3.74c.2-1.1-.36-2.15-.41-3.24 0-.48.22-1 .22-1.46s-.12-.92-.15-1.39a8.09 8.09 0 01.18-1.17c0-.49-.33-1-.32-1.48s.19-.8.19-1.24c0-1.17 1.15-3.33.37-4.83.67-.34 1.52-.6 2.13-1 1.93 1.89.06 4.4.83 6.4-.69.76-.16 1.72-.22 2.63-.07 1.26-.4 2.58.54 3.61-.55.57 0 1.12.1 1.69 0 .34-.16.67-.15 1 0 .66.4 1.33.42 2 0 .4-.41.84-.37 1.24.07.61.45 1.17.46 1.77s-.29 1.3-.29 1.89c0 .3.35.6.4.89a24.81 24.81 0 010 3.45c0 .32.22.65.22 1 0 .59-.44 1.16-.45 1.75 0 .83.4 1.65.35 2.5a29.46 29.46 0 01-.31 3.22c-.09.52.16 1.4-.1 1.83-.71 1.23 0 3.1-1.34 4.43zm33.29-125.73c-2.58-.34-1.36-2-1.48-3.09-.05-.51-.65-1.21-.7-1.91s.43-1.32-.17-1.79c.68-8.71-.13-16.83.06-24.28a47.53 47.53 0 010-5.34c.2-1.57-.36-3.07-.41-4.62 0-.7.22-1.4.22-2.09s-.12-1.32-.15-2a16.36 16.36 0 01.18-1.67c0-.7-.32-1.41-.32-2.11s.19-1.14.19-1.77c0-1.68 1.15-4.76.37-6.89.67-.49 1.52-.87 2.13-1.39 1.93 2.7.06 6.29.83 9.13-.68 1.09-.16 2.47-.21 3.76-.08 1.8-.4 3.69.53 5.15-.55.82 0 1.6.11 2.41 0 .49-.17 1-.16 1.46 0 1 .4 1.9.42 2.85 0 .57-.41 1.2-.37 1.76.08.88.45 1.67.46 2.53s-.33 1.8-.29 2.71c0 .43.35.85.4 1.27.22 1.6 0 3.29 0 4.92 0 .46.22.93.22 1.37 0 .84-.44 1.66-.44 2.5 0 1.19.39 2.36.34 3.57-.07 1.57-.12 3-.31 4.6a12.32 12.32 0 01-.1 2.61c-.72 1.77-.01 4.45-1.35 6.35zM230 228.31c-2.59-.73-1.37-4.36-1.48-6.64 0-1.09-.65-2.6-.7-4.1s.42-2.84-.17-3.84c.68-18.72-.13-36.16.05-52.16.05-4.07-.21-7.47 0-11.47.2-3.37-.37-6.59-.41-9.93 0-1.49.21-3 .22-4.48s-.12-2.84-.15-4.28c0-1.2.14-2.33.18-3.59 0-1.49-.33-3-.32-4.52 0-1.21.19-2.47.18-3.81 0-3.6 1.15-10.23.38-14.81.67-1.05 1.51-1.86 2.13-3 1.93 5.8.06 13.5.83 19.62-.69 2.34-.16 5.29-.22 8.08-.07 3.85-.4 7.92.54 11.06-.55 1.75 0 3.44.1 5.18 0 1.05-.16 2.07-.15 3.14 0 2 .4 4.08.42 6.1 0 1.23-.41 2.58-.37 3.8.07 1.87.45 3.59.46 5.43s-.33 3.87-.29 5.82c0 .92.35 1.82.4 2.73.22 3.43 0 7.07 0 10.57 0 1 .22 2 .22 2.94 0 1.81-.44 3.57-.45 5.37 0 2.56.4 5.07.34 7.67-.07 3.37-.11 6.49-.3 9.87-.09 1.61.16 4.32-.1 5.61-.73 3.81-.01 9.56-1.34 13.64zm-11.23 50.29c-2.59-.12-1.36-.71-1.48-1.08 0-.18-.65-.42-.7-.67s.42-.46-.17-.62c.68-3.06-.13-5.9.05-8.51.05-.66-.21-1.21 0-1.87s-.36-1.07-.41-1.61c0-.25.22-.49.22-.73a5.44 5.44 0 00-.15-.7c0-.2.14-.38.18-.59s-.33-.49-.32-.73.19-.41.19-.62c0-.59 1.15-1.67.37-2.42.67-.17 1.52-.3 2.13-.48 1.93.94.06 2.2.83 3.19-.69.38-.16.87-.22 1.32-.07.63-.4 1.29.54 1.8-.55.29 0 .56.1.85s-.16.34-.15.51c0 .33.4.66.42 1s-.41.42-.37.62.45.59.46.89-.33.63-.29.95c0 .15.35.29.4.44.22.56 0 1.15 0 1.72 0 .16.22.33.22.48s-.44.59-.45.88.4.82.35 1.25a7.63 7.63 0 01-.31 1.61c-.09.26.16.7-.1.91-.71.61 0 1.55-1.34 2.21zm152.3-107.74c-2.58-.12-1.36-.71-1.47-1.08-.06-.18-.66-.43-.7-.67s.42-.46-.17-.63c.68-3-.13-5.89 0-8.5.05-.66-.21-1.22 0-1.87s-.37-1.07-.42-1.62c0-.24.22-.48.23-.73a5.67 5.67 0 00-.15-.69c0-.2.14-.38.17-.59s-.32-.49-.31-.74.19-.4.18-.62c0-.58 1.15-1.66.37-2.41.68-.17 1.52-.3 2.13-.49 1.94.95.07 2.2.84 3.2-.69.38-.16.86-.22 1.32-.08.63-.4 1.29.54 1.8-.55.29 0 .56.1.85s-.16.33-.15.51.39.66.42 1-.42.42-.37.62.45.59.45.89-.32.63-.28.94c0 .15.34.3.4.45.22.56-.05 1.15 0 1.72 0 .16.22.33.21.48s-.43.58-.44.88.4.82.34 1.25a7.72 7.72 0 01-.3 1.61c-.1.26.16.7-.1.91-.67.61.04 1.54-1.3 2.21zm9.3-61.86c-2.59-.12-1.37-.71-1.48-1.08-.05-.18-.66-.43-.7-.67s.42-.47-.17-.63c.68-3-.13-5.89.05-8.5.05-.66-.21-1.22 0-1.87s-.37-1.07-.41-1.62c0-.24.21-.49.22-.73a6.28 6.28 0 00-.15-.7c0-.19.14-.38.17-.58s-.32-.49-.31-.74.19-.4.18-.62c0-.58 1.15-1.67.38-2.41.67-.17 1.51-.3 2.13-.49 1.93 1 .06 2.2.83 3.2-.69.38-.16.86-.22 1.32-.07.63-.4 1.29.54 1.8-.55.28 0 .56.1.84s-.16.34-.15.52.39.66.42 1-.41.42-.37.62.45.58.45.88-.32.64-.28 1c0 .15.34.3.4.45.22.56 0 1.15 0 1.72 0 .16.22.32.22.48s-.44.58-.45.87.4.83.34 1.26a7.63 7.63 0 01-.3 1.6c-.09.27.16.71-.1.92-.71.57 0 1.51-1.34 2.16zM134.11 89.64c-2.59-.12-1.36-.71-1.48-1.08 0-.18-.65-.43-.7-.67s.42-.46-.17-.63c.68-3.05-.13-5.89.05-8.5.05-.66-.21-1.22 0-1.87s-.36-1.07-.41-1.62c0-.24.22-.48.22-.73a5.67 5.67 0 00-.15-.69c0-.2.14-.38.18-.59s-.33-.49-.32-.74.19-.4.19-.62c0-.58 1.15-1.66.37-2.41.67-.17 1.52-.3 2.13-.49 1.93 1 .06 2.2.83 3.2-.69.38-.16.86-.22 1.32-.07.63-.4 1.29.54 1.8-.55.29 0 .56.11.85s-.17.33-.16.51.4.66.42 1-.41.42-.37.62.45.59.46.89-.33.63-.29.94c0 .15.35.3.4.45.22.56 0 1.15 0 1.72 0 .16.22.33.22.48 0 .3-.44.58-.45.88s.4.82.35 1.25a7.75 7.75 0 01-.31 1.61c-.09.26.16.7-.1.91-.71.57 0 1.57-1.34 2.21zm-7.47 74.98c-2.59-.12-1.37-.71-1.48-1.08-.06-.18-.66-.42-.7-.67s.42-.46-.17-.62c.68-3.05-.13-5.9 0-8.51 0-.66-.21-1.21 0-1.86s-.37-1.08-.42-1.62c0-.25.22-.49.23-.73a5.83 5.83 0 00-.15-.7c0-.2.14-.38.17-.59s-.32-.49-.31-.73.19-.4.18-.62c0-.59 1.15-1.67.38-2.42.67-.17 1.51-.3 2.13-.48 1.93.94.06 2.2.83 3.2-.69.38-.16.86-.22 1.31-.07.63-.4 1.29.54 1.8-.55.29 0 .56.1.85s-.16.34-.15.51c0 .33.39.67.42 1s-.42.42-.37.61.45.59.45.89-.32.63-.28 1c0 .15.34.29.4.44.22.56 0 1.16 0 1.73 0 .15.22.32.22.48s-.44.58-.45.87.4.83.34 1.25a7.6 7.6 0 01-.3 1.61c-.1.26.16.7-.1.91-.67.55.07 1.55-1.29 2.17zm1.41 103.66c-2.58-.54-1.36-3.27-1.47-5-.06-.82-.66-1.95-.7-3.08s.42-2.13-.17-2.88c.67-14-.13-27.14.05-39.15 0-3.05-.21-5.61 0-8.61.2-2.52-.36-5-.41-7.45 0-1.12.22-2.25.22-3.36s-.12-2.13-.15-3.22c0-.9.15-1.75.18-2.69 0-1.12-.32-2.27-.32-3.39 0-.91.19-1.85.19-2.86 0-2.71 1.15-7.68.37-11.12.68-.78 1.52-1.39 2.13-2.24 1.94 4.35.06 10.14.84 14.73-.69 1.76-.17 4-.22 6.07-.08 2.89-.4 5.94.53 8.3-.55 1.31 0 2.58.11 3.89 0 .78-.16 1.55-.16 2.35 0 1.53.4 3.06.42 4.58 0 .92-.41 1.94-.36 2.85.07 1.41.45 2.7.45 4.08s-.33 2.9-.29 4.37c0 .69.35 1.36.41 2.05.22 2.57-.05 5.3 0 7.93 0 .73.22 1.49.21 2.21 0 1.35-.44 2.68-.44 4 0 1.92.39 3.8.34 5.75-.07 2.53-.11 4.88-.31 7.41a33.94 33.94 0 01-.09 4.22c-.73 2.88-.02 7.2-1.36 10.26zm259.45-161.8c2.62-.38 2.59 2.86 3.38 4.58.39.83 1.4 1.77 1.9 2.91s.46 2.34 1.32 2.89c5 14.69 11.08 27.85 15.76 40.25 1.19 3.16 2.46 5.69 3.45 8.86.83 2.66 2.34 4.95 3.39 7.5.47 1.14.71 2.39 1.15 3.54s1 2.15 1.44 3.25c.39.92.57 1.85.92 2.83.42 1.17 1.22 2.22 1.67 3.37.36.94.57 2 1 3 1.1 2.78 2 8.32 4.14 11.56-.31 1.06-.85 2-1.08 3.08-3.55-3.76-4.15-10.39-6.72-14.83-.07-2.05-1.45-4.14-2.25-6.31-1.09-3-2-6.25-3.85-8.33 0-1.55-1.08-2.64-1.66-4-.36-.79-.48-1.65-.81-2.47-.63-1.57-1.61-3-2.24-4.56-.39-.94-.4-2.14-.81-3.06-.63-1.42-1.51-2.6-2.07-4s-.87-3.11-1.5-4.6c-.29-.7-.87-1.27-1.2-2-1.24-2.56-2.1-5.46-3.22-8.14-.31-.74-.81-1.45-1.09-2.19-.54-1.39-.68-2.91-1.21-4.3-.77-2-1.91-3.76-2.65-5.79-.95-2.62-1.86-5.05-2.7-7.72-.4-1.28-1.47-3.27-1.61-4.37-.46-3.14-2.86-7.31-2.85-10.95zM377 170c2.55-.78 2.95 2.47 3.93 4.06.47.77 1.58 1.59 2.2 2.67s.69 2.28 1.6 2.74c6.38 14.08 12.75 27 17 39.58.53 1.59 1.09 3 1.63 4.47s.95 2.92 1.34 4.53A26 26 0 00406 232c.48 1.28 1 2.55 1.38 3.87s.45 2.46.77 3.64.69 2.26 1 3.42c.25 1 .29 1.92.49 2.94.24 1.22.88 2.38 1.15 3.6.17 1 .17 2.06.37 3.15.27 1.48.36 3.62.56 5.84a24.15 24.15 0 00.87 6.4c-.57.93-1.33 1.68-1.83 2.65a18.79 18.79 0 01-1.79-7.77 36.73 36.73 0 00-1.35-8c.39-2-.75-4.26-1.18-6.49-.33-1.54-.55-3.15-1-4.64a13.52 13.52 0 00-1.77-4c.15-1.52-.77-2.7-1.23-4-.3-.8-.36-1.66-.63-2.49-.51-1.58-1.38-3-1.89-4.62-.3-1-.3-2.12-.66-3-.57-1.42-1.4-2.61-1.9-4s-.78-3.08-1.38-4.56c-.29-.69-.86-1.26-1.18-1.93-1.17-2.55-2.09-5.37-3.24-8-.32-.73-.81-1.42-1.12-2.13-.59-1.35-.77-2.84-1.36-4.19-.82-1.93-2.05-3.62-2.9-5.56-1.07-2.54-2.17-4.84-3.2-7.41-.49-1.22-1.73-3.07-2-4.13-.65-3.23-3.47-7.05-3.98-10.59zm52.55 40.64c2.53.16 1.31 3.08 1.92 4.69.16.43.83.72 1 1.18.53 1.31 1.25 2.53 1.62 3.81.11.37-.48.77-.48 1.14 0 .16.82.26.83.41s-.64.45-.59.67.44.48.55.83c1.08 3.53 3 7 2.59 10.78 1.77 2.23 2.49 5.26 3.7 8.38.58 1.51 1.32 2.94 1.84 4.63.18.59.72 1 1 1.58.6 1.37.79 2.91 1.31 4.13.92 2.14.81 4.43.84 6.61s.05 4.3 1.34 6.15c-1.46 1 .05 1.81.21 2.88.19 1.39-.32 2.63.28 4.32a15.93 15.93 0 00.43 1.88c.34.6 1.39 1 1.51 1.63-.15.58-1.11.88-1.75 1.29-2.81-.14-3.34-2.26-3.73-3.59-.62-2.22-.26-4.9-.82-7.17-.06-.28.38-.81-.79-.84 1.1-1.48 0-2.59 0-3.81.07-1.88 1-4.16-.66-5.81a6.76 6.76 0 00.18-4.06c-.61-2-1.61-3.84-2.32-5.8-.84-2.48-2.25-4.73-3.43-7.44-.18-.4-.07-.85-.23-1.24-.09-.23-.78-.38-.84-.6-.39-1.3 0-2.83-.42-4.12-.15-.41-.73-.66-.94-1.05-1.23-2.33-.6-5.25-1.57-7.56-.13-.31-.83-.56-.93-.88-.38-1.16-.16-2.52-.45-3.64-.62-2.39-2.43-4.21-2.72-6.72a1.52 1.52 0 01-.8-.24c1.26-1.06-.23-1.46 2.32-2.42zM384 207.08c2.52.14 1.34 3.07 2 4.69.16.42.84.71 1 1.16.54 1.32 1.27 2.53 1.66 3.81.11.37-.47.77-.47 1.14 0 .16.82.25.83.41s-.64.46-.58.68.45.47.56.82c1.11 3.53 3.05 7 2.69 10.78 1.79 2.21 2.55 5.24 3.78 8.36.59 1.51 1.34 2.94 1.88 4.63.18.59.73 1 1 1.58.61 1.36.81 2.91 1.34 4.12.94 2.14.83 4.44.87 6.63s.08 4.3 1.37 6.16c-1.46 1 .06 1.81.22 2.88.2 1.4-.3 2.64.29 4.33a14.27 14.27 0 00.44 1.89c.34.6 1.39 1 1.51 1.63-.15.58-1.11.88-1.75 1.29-2.81-.14-3.34-2.26-3.74-3.6-.61-2.22-.27-4.9-.83-7.18-.06-.27.37-.81-.79-.82 1.09-1.5-.06-2.6 0-3.83.06-1.88.93-4.16-.69-5.81a6.78 6.78 0 00.15-4.07c-.62-2-1.64-3.83-2.35-5.8-.87-2.47-2.29-4.72-3.5-7.42-.18-.4-.08-.85-.24-1.24-.09-.23-.78-.38-.85-.59-.39-1.3 0-2.84-.45-4.12-.15-.42-.74-.66-1-1.05-1.25-2.33-.65-5.25-1.64-7.56-.14-.31-.83-.55-.94-.87-.39-1.16-.19-2.52-.49-3.64-.64-2.38-2.47-4.19-2.8-6.71a1.57 1.57 0 01-.8-.22c1.32-1.06-.21-1.46 2.32-2.46zm-9 17.41c1.29 0 1.8.84 2.05 1.92a17.55 17.55 0 00.73 3.28c.23.49.95.8 1.2 1.31a46.08 46.08 0 012.14 4.36c.16.42-.41.88-.37 1.31 0 .18.85.3.87.48s-.6.52-.52.77.49.55.63 1c.73 2 1.58 4.08 2.28 6.15a17.55 17.55 0 011 6.36 20.65 20.65 0 012.19 4.58c.56 1.69 1.05 3.51 1.68 5.37s1.28 3.51 1.79 5.53a19.09 19.09 0 001 1.92c.57 1.64.68 3.46 1.16 4.92.89 2.58.64 5.23.53 7.77a25.67 25.67 0 000 3.73 9.39 9.39 0 00.92 3.55c-1.52 1 0 2.1.06 3.36.17 1.63-.55 3 0 5a21.07 21.07 0 00.31 2.23c.31.72 1.33 1.28 1.41 2-.19.66-1.16.92-1.82 1.33-2.8-.4-3.21-2.92-3.51-4.52a18.23 18.23 0 01-.16-4.2 23.63 23.63 0 00-.19-4.23c-.06-.33.42-.9-.74-1 1.19-1.6.19-3 .25-4.43.12-2.16 1.17-4.72-.36-6.8a9.05 9.05 0 00.32-4.68 33.47 33.47 0 00-1-3.47c-.41-1.15-.83-2.29-1.16-3.46-.77-2.95-2.24-5.64-3.43-8.84-.17-.47-.09-1-.26-1.44-.1-.27-.79-.48-.86-.73-.43-1.51 0-3.25-.54-4.75-.17-.48-.78-.79-1-1.24-1.33-2.72-.89-6-2.07-8.69-.16-.35-.89-.64-1-1-.47-1.32-.39-2.87-.82-4.13-.89-2.72-3-4.69-3.71-7.47a1.48 1.48 0 01-.84-.2c.99-1.32-.57-1.61 1.84-2.95zm27.37 56.79c2.38.79.41 3.15.59 4.79 0 .44.61.86.68 1.32.18 1.34.56 2.62.6 3.89 0 .37-.65.6-.74 1 0 .14.73.41.7.56s-.73.28-.73.49.31.54.33.89c.2 3.5 1.26 7.11.07 10.54 1.24 2.43 1.34 5.38 1.91 8.51.28 1.51.75 3 1 4.63.07.57.52 1 .67 1.63.37 1.36.29 2.83.61 4 1.11 4.26-1.71 8.44.37 12.2-1.56.8-.12 1.7-.07 2.71.07 1.32-.61 2.44-.12 4.07.19.62.06 1.3.31 1.8s1.32 1 1.4 1.61c-.19.54-1.17.77-1.83 1.12-2.8-.27-3.19-2.34-3.49-3.65-.51-2.17.19-4.7-.17-6.91 0-.28.46-.73-.69-.88 1.27-1.29.28-2.47.46-3.63.28-1.78 1.53-3.8.16-5.58a6.5 6.5 0 00.82-3.8c-.27-1.93-1-3.85-1.27-5.82-.39-2.46-1.32-4.83-1.94-7.59-.09-.4.1-.81 0-1.21 0-.23-.68-.5-.7-.72-.09-1.29.64-2.64.47-3.93-.05-.42-.56-.77-.68-1.18-.69-2.44.6-5 .2-7.38 0-.32-.66-.7-.68-1-.08-1.17.45-2.38.45-3.49 0-2.35-1.28-4.47-.88-6.88a1.53 1.53 0 01-.71-.42c1.53-.67.19-1.45 2.9-1.69zM377.1 141.45c2.57-.06 1.8 3.16 2.69 4.83.23.44.95.68 1.22 1.15.75 1.35 1.67 2.57 2.27 3.89.17.39-.35.87-.28 1.27 0 .17.86.18.89.35s-.56.55-.46.78.52.46.69.82c1.7 3.65 4.23 7.11 4.56 11.19 2.18 2.14 3.5 5.27 5.32 8.41.88 1.53 1.91 2.93 2.77 4.65.3.59.92 1 1.3 1.53.88 1.35 1.39 3 2.17 4.16 2.73 4.23 1.66 9.67 5 13.09-1.19 1.37.5 1.9.92 3 .54 1.42.32 2.84 1.35 4.48a17.63 17.63 0 00.91 1.89c.49.55 1.62.73 1.9 1.36 0 .64-.85 1.18-1.37 1.75-2.77.52-3.85-1.61-4.59-2.95-1.21-2.22-1.49-5.16-2.62-7.46-.13-.28.17-.93-1-.73.73-1.79-.66-2.75-.91-4.07-.39-2 0-4.59-2-6.06a8.13 8.13 0 00-.7-4.36c-1-2-2.43-3.82-3.53-5.82-1.36-2.51-3.2-4.72-4.92-7.45-.26-.4-.24-.89-.47-1.29-.14-.24-.86-.31-1-.53-.63-1.34-.51-3-1.2-4.35-.23-.42-.86-.62-1.14-1-1.68-2.36-1.58-5.55-3-7.91-.19-.32-.93-.51-1.09-.84-.58-1.2-.6-2.68-1.09-3.85-1-2.49-3.15-4.25-3.86-6.93a1.54 1.54 0 01-.84-.17c1.26-1.28-.31-1.58 2.11-2.83zm33.78 77.32c1.68.62 2.8 2.86 3.49 5.38s1.09 5.44 1.89 7.75c.37 1.23 1.25 2.4 1.65 3.74.3 1 .59 1.9.89 2.84s.52 1.89.78 2.82c.51 1.88 1 3.73 1.41 5.57.2 1.07-.36 1.76-.28 2.76 0 .42.94 1.22 1 1.65.06.59-.6.8-.5 1.43.14.85.58 1.57.77 2.58.5 2.56.87 5.16 1.35 7.76s1 5.19 1.25 7.81.61 5.2.8 7.78c.09 1.28.17 2.56.2 3.83s0 2.54-.09 3.8a112.06 112.06 0 012 11.87c.39 4.27.81 8.78 1.24 13.43s1 8.87 1.24 13.83c.1 1.71.57 3.19.74 4.92.21 2.05.32 4.16.4 6.21s.08 4 .21 5.86a122.9 122.9 0 01-.44 18.59c-.51 6-.89 11.84-.05 17.57-1.65 2.11-.26 5-.4 8-.15 3.91-1 7.1-.79 12 .09 1.87-.16 3.85 0 5.37.2 1.78 1.14 3.26 1.12 5-.28 1.56-1.28 2-2 2.95-2.73-1.32-2.78-7.49-2.86-11.41-.07-3.25.17-6.71.43-10.18a99.93 99.93 0 00.46-10.26c0-.81.53-2.07-.6-2.71 1.4-3.58.53-7.24.83-10.63.23-2.6.71-5.34 1-8.12a27.12 27.12 0 00-.44-8.33 50.63 50.63 0 00.95-11.09c-.07-2.89-.38-5.77-.66-8.66s-.58-5.79-.77-8.72c-.12-1.83-.28-3.65-.45-5.48s-.47-3.65-.72-5.5c-.5-3.72-1-7.54-1.52-11.64-.12-1.2 0-2.36-.18-3.54-.09-.69-.79-1.56-.85-2.18-.36-3.81.14-7.7-.32-11.52-.18-1.22-.8-2.29-1-3.48a88.58 88.58 0 01-1.13-10.88 94.16 94.16 0 00-1.2-10.66c-.21-.91-1-2-1.2-3-.65-3.36-.65-6.89-1.36-10q-.53-2.53-1.23-4.95l-1.61-4.74c-.5-1.6-1.14-3.12-1.67-4.71s-1.09-3.15-1.56-4.8a3.75 3.75 0 01-1.11-1 4.6 4.6 0 00-.07-2.76 2.07 2.07 0 010-1.16 2.61 2.61 0 01.96-.99zm-30.72-101.54c2.94 1 2.86 6.17 4.31 9.41.38.85 1.27 1.55 1.69 2.47 1.21 2.62 2.57 5.09 3.59 7.62.3.73-.18 1.36 0 2.07.07.3 1 .66 1.11 1s-.5.73-.33 1.16c.22.59.71 1 1 1.69 2.86 7 6.61 13.94 8 21.15 3 4.56 5.28 10.48 8.12 16.65 1.37 3 2.85 5.81 4.24 9.13.48 1.15 1.26 2 1.83 3.14 1.31 2.69 2.26 5.68 3.4 8.07 2.05 4.18 3 8.62 4.1 12.85s2.14 8.36 4.35 12c-1.06 2 .89 3.55 1.55 5.65.89 2.7.8 5.18 2.16 8.51.51 1.27.78 2.7 1.22 3.74.55 1.21 1.76 2 2.09 3.31.05 1.18-.83 1.76-1.35 2.56-1.46-.17-2.5-1.31-3.29-2.74a37.85 37.85 0 01-1.79-4.47 57.06 57.06 0 01-2-7.07c-.64-2.44-1.26-4.89-2.09-7.13-.2-.55 0-1.59-1.2-1.65.43-2.9-1.3-5.1-1.86-7.51-.84-3.7-1-8.07-3.55-11.39a25.81 25.81 0 00-1.81-7.9c-1.6-3.88-3.63-7.59-5.35-11.48-2.12-4.9-4.77-9.43-7.38-14.84-.39-.8-.5-1.65-.86-2.44-.22-.46-1-.85-1.21-1.27-1.06-2.58-1.34-5.47-2.46-8-.37-.82-1.13-1.4-1.55-2.18-2.5-4.73-3.19-10.24-5.38-14.87-.29-.62-1.18-1.24-1.45-1.87-1-2.31-1.38-4.88-2.22-7.09-1.81-4.71-4.71-8.61-6.2-13.52a2.3 2.3 0 01-1-.64c.99-1.74-.89-2.95 1.57-4.12zm71.22 188.62c-2.59.17-1.44-.55-1.59-.91-.08-.17-.7-.35-.77-.59s.36-.5-.25-.6c.33-3.11-.79-5.84-.91-8.45 0-.66-.35-1.19-.18-1.86s-.49-1-.6-1.56c-.05-.24.16-.51.14-.75a4.54 4.54 0 00-.23-.68c0-.19.1-.39.11-.6s-.37-.45-.4-.7.15-.42.12-.63c-.08-.59.95-1.79.1-2.45.65-.24 1.47-.47 2.06-.72 2 .72.31 2.18 1.19 3.08-.64.46-.07.88-.07 1.34 0 .63-.25 1.32.74 1.73-.52.34.1.55.2.82s-.13.36-.1.53c.05.33.47.61.53.94s-.36.47-.29.66.51.53.55.82-.25.67-.18 1c0 .15.38.26.45.4.28.53.09 1.15.22 1.71 0 .15.25.29.26.45s-.36.63-.34.92.49.77.48 1.2a7 7 0 01-.12 1.63c-.06.27.25.68 0 .92-.68.68.13 1.5-1.12 2.35z"/><path d="M415.47 295.62c-2.58.18-1.43-.55-1.59-.9-.07-.18-.7-.35-.77-.59s.37-.51-.24-.6c.33-3.11-.8-5.84-.91-8.46 0-.66-.35-1.18-.19-1.86s-.48-1-.59-1.56c-.05-.23.16-.51.13-.75a5.82 5.82 0 00-.22-.67c0-.2.1-.4.11-.6s-.38-.46-.4-.7.14-.42.11-.64c-.07-.58 1-1.79.1-2.44.65-.24 1.47-.47 2.06-.72 2 .72.31 2.18 1.19 3.08-.64.46-.06.88-.06 1.33 0 .64-.26 1.33.73 1.73-.51.35.11.55.2.83s-.12.35-.09.53.46.61.53.94-.37.46-.3.65.51.53.55.83-.25.66-.18 1c0 .14.38.25.46.39.28.53.08 1.15.21 1.71 0 .16.26.3.27.45 0 .3-.37.63-.34.92s.48.78.48 1.21a7.55 7.55 0 01-.12 1.63c-.07.27.24.68 0 .92-.69.72.13 1.53-1.13 2.34zm-39.42-4.3c-2.56.36-1.47-.44-1.65-.79-.08-.16-.72-.29-.81-.52s.33-.54-.28-.59c.1-3.12-1.22-5.77-1.53-8.36-.07-.66-.43-1.16-.32-1.84s-.55-1-.7-1.52c-.07-.23.12-.52.08-.76a4.55 4.55 0 00-.28-.65c-.05-.19.08-.4.07-.61s-.41-.43-.45-.67.12-.43.07-.64c-.12-.58.82-1.85-.08-2.44.63-.3 1.43-.58 2-.88 2.08.57.47 2.16 1.42 3-.61.5 0 .88 0 1.34.05.63-.15 1.34.87 1.67-.49.38.14.54.25.81s-.09.36-.05.53c.07.32.51.58.59.9s-.32.49-.24.68.55.49.61.78-.21.68-.11 1c0 .14.4.23.48.36.32.51.17 1.14.34 1.69 0 .15.27.28.3.43s-.32.65-.27.94.54.74.56 1.17a7.49 7.49 0 010 1.64c0 .27.29.66.07.91-.62.73.26 1.52-.94 2.42zm7.65 4.34c-2.52-.59-1.18-1.66-1.23-2.49 0-.39-.6-.95-.61-1.47s.46-1-.11-1.34a38.11 38.11 0 000-9.43c-.23-1.5-.39-3-.69-4.4-.12-.71-.25-1.42-.37-2.12s-.28-1.38-.4-2.06c-.22-1.4-.8-2.45-.94-3.85-.09-1.19-1-2.06-1.44-3.11-.19-.48-.13-1.05-.29-1.53s-.5-.85-.73-1.28a10.51 10.51 0 01-.32-1.2c-.18-.48-.68-.83-.93-1.26s-.23-.82-.45-1.22a21.92 21.92 0 01-.75-2.34 4.14 4.14 0 00-1.55-2.16c.35-.68.88-1.41 1.15-2.11a4.07 4.07 0 012.65 2.45c.59 1.11.87 2.39 1.76 3.18a2 2 0 00.34 1.4 11 11 0 01.73 1.35c.24.66.44 1.35.73 2a3.23 3.23 0 001.25 1.58c-.31.78.45 1.17.73 1.76.17.35.05.77.17 1.15.21.71.78 1.33 1 2 .14.43-.15 1 0 1.44a20.23 20.23 0 01.85 1.84c.16.68 0 1.45.12 2.15.06.33.44.6.55.92a19.62 19.62 0 01.52 3.84c.06.35.3.7.33 1.05 0 .66-.34 1.34-.3 2a25.78 25.78 0 01.47 2.79 24.37 24.37 0 01-.27 3.61c-.09.58.12 1.58-.16 2-.85 1.38-.28 3.53-1.81 4.86zm-3.22-92.38c-2.45.81-1.52-.18-1.76-.48s-.77-.16-.9-.37.23-.59-.38-.53c-.47-3.09-2.24-5.45-3-8-.19-.63-.63-1.06-.65-1.75s-.72-.88-1-1.36c-.11-.22 0-.54-.06-.77a6.66 6.66 0 00-.39-.59c-.09-.18 0-.41 0-.61s-.48-.35-.57-.58 0-.44 0-.64c-.23-.55.47-2-.52-2.39.56-.4 1.3-.83 1.81-1.22 2.14.19.85 2 1.93 2.69-.51.6.16.86.27 1.3.15.62.09 1.35 1.15 1.49-.42.47.23.51.4.75s0 .38 0 .54.61.47.75.77-.23.54-.12.71.64.39.75.67-.08.7.07 1 .43.16.54.27c.4.45.37 1.1.63 1.61.08.14.33.22.38.37s-.2.7-.1 1 .66.63.77 1a7.73 7.73 0 01.29 1.62c0 .27.41.59.24.88-.52.9.48 1.51-.53 2.62zM420 410.85c-2.59-.07-1.39-.85-1.52-1.31-.06-.22-.67-.51-.73-.82s.41-.59-.19-.77c.55-3.85-.37-7.38-.3-10.66a9.66 9.66 0 01-.05-2.34c.18-.69-.4-1.33-.47-2 0-.31.19-.62.19-.92a8.38 8.38 0 00-.18-.87c0-.25.13-.49.15-.74s-.34-.61-.34-.92.17-.51.16-.78c0-.73 1.08-2.13.27-3 .67-.23 1.51-.42 2.11-.67 2 1.12.15 2.75 1 4-.68.5-.13 1.08-.17 1.65 0 .79-.35 1.63.61 2.24-.54.38.06.7.14 1.06 0 .21-.15.43-.14.64 0 .42.43.82.46 1.24 0 .25-.39.54-.34.78s.48.72.49 1.1-.3.8-.25 1.2c0 .18.36.36.42.54a9.14 9.14 0 01.09 2.16c0 .2.24.4.24.59 0 .37-.42.74-.41 1.11s.43 1 .39 1.56a11.6 11.6 0 01-.24 2c-.08.33.19.88-.06 1.15-.77.75-.02 1.93-1.33 2.78zM397.59 336c-2.58-.06-1.39-.84-1.52-1.3-.06-.22-.67-.51-.72-.82s.4-.59-.2-.78c.56-3.84-.36-7.38-.29-10.65a9.66 9.66 0 01-.05-2.34c.18-.69-.41-1.34-.48-2 0-.31.2-.62.19-.93a7 7 0 00-.17-.87c0-.24.13-.48.15-.73s-.34-.61-.35-.92.18-.51.17-.78c0-.74 1.08-2.13.27-3 .67-.23 1.5-.43 2.11-.68 2 1.13.15 2.76 1 4-.67.49-.13 1.08-.16 1.65-.05.79-.35 1.63.61 2.24-.54.38.06.7.13 1.06.05.21-.14.42-.13.64 0 .42.42.82.46 1.23 0 .26-.4.55-.34.79s.47.72.49 1.1-.3.8-.25 1.19c0 .19.36.36.42.55a10.34 10.34 0 01.09 2.16c0 .19.23.39.23.59 0 .37-.41.74-.4 1.11 0 .52.43 1 .39 1.56a11.71 11.71 0 01-.24 2c-.08.33.19.88-.06 1.15-.78.71-.03 1.86-1.35 2.78zm-9.51 1c-2.59-.07-1.39-.85-1.52-1.31-.06-.23-.67-.51-.72-.82s.4-.59-.2-.78c.56-3.84-.35-7.38-.27-10.65a9.66 9.66 0 01-.05-2.34c.18-.7-.4-1.34-.47-2 0-.3.2-.62.19-.92s-.14-.58-.18-.87.13-.48.16-.74-.34-.61-.35-.91.18-.51.16-.78c0-.74 1.09-2.13.28-3 .67-.24 1.51-.43 2.11-.68 2 1.13.15 2.76 1 4-.67.49-.13 1.08-.17 1.65-.05.79-.35 1.63.61 2.24-.54.38.06.71.14 1.06s-.15.43-.14.64c0 .42.42.83.46 1.24 0 .25-.4.54-.34.78s.47.72.48 1.1-.3.8-.25 1.2c0 .19.36.36.42.54a10.39 10.39 0 01.09 2.16c0 .2.23.4.23.59 0 .37-.41.75-.41 1.11 0 .53.43 1 .39 1.56a11.6 11.6 0 01-.24 2c-.08.33.19.88-.06 1.15-.79.71-.04 1.86-1.35 2.78zm64.65-23.62c2.33 1.48.19 4.91.23 7.47 0 .67.54 1.4.56 2.13.07 2.08.32 4.11.24 6.08 0 .57-.7.85-.83 1.36-.05.22.69.75.64 1s-.75.33-.78.66.26.87.24 1.41c-.17 5.44.44 11.16-1.22 16.29.93 3.91.56 8.48.62 13.39 0 2.38.23 4.69.13 7.3 0 .9.31 1.71.34 2.63.08 2.17-.26 4.42-.22 6.35.13 6.81-3.62 12.62-2.81 18.84-1.78.85-.67 2.57-.95 4.14-.42 2-1.52 3.55-1.67 6.17 0 1-.54 2-.53 2.82s.74 2 .52 2.94c-.44.76-1.46.73-2.25 1-2.46-1.48-1.87-4.58-1.54-6.57.34-3.35 2-6.89 2.32-10.34.05-.42.68-1-.39-1.49a4.16 4.16 0 001.19-2.65 17 17 0 01.3-2.72c.75-2.62 2.52-5.45 1.55-8.45a13.94 13.94 0 001.66-5.66c.1-3-.16-6.08-.13-9.16 0-3.85-.46-7.63-.68-12 0-.64.23-1.23.22-1.85 0-.37-.6-.88-.58-1.21.08-2 1-4 1-6 0-.64-.46-1.26-.52-1.9-.39-3.85 1.21-7.65 1.06-11.34 0-.5-.59-1.17-.58-1.67.06-1.8.7-3.61.81-5.31.23-3.63-.88-7.05-.3-10.72a1.75 1.75 0 01-.67-.71c1.55-.82.29-2.16 3.02-2.23zm-54.07 29.82c2.4.89.51 3.58.74 5.46.06.49.64 1 .72 1.5.22 1.52.65 3 .74 4.43 0 .42-.63.69-.71 1.08 0 .16.74.47.71.64s-.72.32-.71.56.33.61.36 1c.21 2.7.82 5.45.85 8.16v.07a.15.15 0 010 .07 13.56 13.56 0 01-1.44 3.61c.55 3-.15 6.3-.43 9.9-.13 1.75-.07 3.47-.32 5.37a17.08 17.08 0 00.21 2 11.71 11.71 0 01-.09 1.32v-1c.3 1.12.49 2.26.86 3.22 1.8 4.65-.29 9.75 2.39 13.7-1.41 1.13.15 1.94.37 3.08.29 1.47-.19 2.84.56 4.61a17.34 17.34 0 00.61 2c.39.62 1.47 1 1.64 1.62-.09.64-1 1-1.62 1.52-2.81.1-3.54-2.18-4.06-3.62-.86-2.39-.59-5.34-1.31-7.79-.09-.31.33-.89-.83-.9 1.05-1.63-.14-2.82-.14-4.16 0-2.05.88-4.49-.77-6.32a8.28 8.28 0 00.19-4.4c-.19-.66-.41-1.32-.65-2v-.09c.05-1.55 0-3.12.18-4.69.29-2.83 0-5.68.17-8.9 0-.48.31-.87.35-1.33 0-.27-.52-.74-.48-1 .25-1.46 1.32-2.77 1.51-4.25.06-.47-.34-1-.35-1.47v-.68.78c-.44-2.58.55-5.28.12-7.76-.06-.36-.69-.8-.73-1.16-.11-1.33.38-2.72.35-4-.08-2.69-1.43-5.09-1.11-7.85a1.46 1.46 0 01-.72-.47c1.46-.7.18-1.58 2.84-1.86zm38.43 68.85c-3.31-1.33-1.2-5.54-1-8.35.08-1.35-.51-3.26-.37-5.1s.84-3.42.15-4.71c.33-2.85.65-5.68.92-8.49s.38-5.61.53-8.37c.08-1.39.15-2.77.22-4.14s.07-2.74.11-4.1q.06-4.08.14-8.09c0-2.67 0-5.32-.05-7.94s0-5.21-.1-7.78c-.12-5.13-.22-10.15-.33-15.07 0-2.49-.2-4.79-.31-7.07s-.27-4.55-.22-7c.08-4.15-.93-8.07-1.25-12.15-.13-1.82.06-3.7-.07-5.51s-.42-3.47-.59-5.24c-.13-1.47 0-2.87-.11-4.41-.1-1.84-.74-3.68-.89-5.5-.12-1.49 0-3-.17-4.69-.4-4.42.3-12.67-1.26-18.23.76-1.36 1.82-2.51 2.54-3.9 1.5 3.42 2 7.55 2.22 11.76s.28 8.5 1.14 12.21c-.65 2.95.33 6.53.55 10 .25 4.75.22 9.78 1.69 13.58-.6 2.19.31 4.23.53 6.38.14 1.28-.08 2.56 0 3.88.14 2.51.78 5 .93 7.51.1 1.52-.44 3.22-.32 4.71.17 2.32.74 4.42.82 6.7s-.34 4.8-.24 7.21c0 1.14.49 2.25.59 3.38.4 4.24-.06 8.75 0 13.08 0 1.21.29 2.47.26 3.65-.07 2.24-.7 4.41-.77 6.63-.09 3.17.39 6.3.12 9.52-.16 2.09-.31 4.1-.46 6.1s-.33 4-.65 6.1-.2 5.35-.68 6.93a27.36 27.36 0 00-.78 3.84c-.24 1.39-.44 2.87-.67 4.35a29.21 29.21 0 01-2.17 8.32zm-17.89-33.34c-3.38-.8-1.58-2.79-1.62-4.19 0-.66-.75-1.62-.78-2.52s.64-1.68-.12-2.31a94.76 94.76 0 00.31-16.36c-.27-5.26-.75-10.31-.94-15.16-.1-2.47-.58-4.51-.45-6.95.11-2.06-.8-4-1-6-.11-.9.14-1.84.06-2.74s-.3-1.71-.42-2.58.07-1.43 0-2.19c0-.92-.59-1.8-.67-2.71-.06-.73.12-1.52 0-2.33-.22-2.2.95-6.34-.28-9.1.86-.73 2-1.28 2.73-2 2.74 3.31.72 8.16 2.08 11.8-.79 1.5.08 3.23.16 4.93.1 2.35-.11 4.86 1.29 6.67-.65 1.12.22 2.08.4 3.14.1.63-.12 1.28-.06 1.93.11 1.24.71 2.45.83 3.68.07.75-.44 1.62-.33 2.35.17 1.14.75 2.16.83 3.28s-.3 2.4-.19 3.59c.06.56.53 1.09.63 1.64.4 2.09.13 4.34.31 6.48 0 .6.33 1.21.34 1.8 0 1.11-.53 2.21-.51 3.31 0 1.57.56 3.11.51 4.72a56.94 56.94 0 01-.47 6.09c-.12 1 .14 2.67-.25 3.46a14.93 14.93 0 00-.87 4.1 8 8 0 01-1.52 4.17zm-8.46 38.68c-3.45-.23-1.9-2.13-2.1-3.27-.09-.55-.92-1.28-1-2s.51-1.45-.3-1.92c.52-9.49-.9-18.25-1-26.34 0-2.05-.43-3.76-.19-5.79.19-1.71-.62-3.31-.75-5-.06-.75.23-1.52.2-2.27s-.21-1.43-.28-2.16a14.61 14.61 0 01.16-1.82c0-.75-.49-1.51-.51-2.26s.2-1.26.17-1.93c-.09-1.82 1.33-5.23.2-7.5.88-.56 2-1 2.78-1.62 2.69 2.83.35 6.82 1.5 9.86-.87 1.22-.11 2.68-.12 4.09 0 1.95-.38 4 .93 5.56-.7.91.12 1.73.24 2.61.08.52-.17 1-.14 1.59.06 1 .61 2 .68 3.06 0 .62-.5 1.32-.41 1.93.13.95.67 1.79.71 2.72s-.35 2-.26 3c0 .46.49.9.59 1.35.36 1.72.08 3.57.24 5.34 0 .49.33 1 .34 1.47 0 .91-.51 1.82-.48 2.73 0 1.3.63 2.54.61 3.86 0 1.7 0 3.28-.21 5-.1.81.3 2.17 0 2.83-.96 1.88.11 4.75-1.6 6.88zM117.51 108.52c-2.59-.12-1.36-.71-1.48-1.08 0-.18-.65-.43-.7-.67s.42-.47-.17-.63c.68-3-.13-5.89 0-8.5.05-.66-.21-1.22 0-1.87s-.36-1.07-.41-1.62c0-.24.22-.49.22-.73a6.28 6.28 0 00-.15-.7c0-.19.14-.38.18-.58s-.33-.49-.32-.74.19-.4.19-.62c0-.58 1.15-1.67.37-2.41.67-.17 1.52-.3 2.13-.49 1.93 1 .06 2.2.83 3.2-.69.38-.16.86-.22 1.32-.07.63-.4 1.29.54 1.8-.55.28 0 .56.1.84s-.16.34-.15.52.4.66.42 1-.41.42-.37.62.45.58.46.88-.33.64-.29 1c0 .15.35.3.4.45.22.56 0 1.15 0 1.72 0 .16.22.32.22.48s-.44.58-.45.87.4.83.35 1.26a8.36 8.36 0 01-.31 1.6c-.09.27.16.71-.1.92-.67.55.05 1.49-1.29 2.16zm-9.34-4.76c2.19 1.5 0 3.86-.64 5.66-.28.86-.17 2.24-.59 3.42s-1.25 2-1 3c-6.31 14.19-10.84 27.93-15.86 40.21-1.27 3.12-2.07 5.84-3.5 8.83-1.2 2.52-1.66 5.22-2.62 7.81-.43 1.16-1.11 2.23-1.57 3.37s-.75 2.24-1.16 3.36c-.34.94-.84 1.75-1.25 2.7-.49 1.14-.62 2.46-1.07 3.6-.37.94-.93 1.84-1.33 2.87-1.08 2.79-4.17 7.47-4.84 11.29-.94.56-2 .88-2.88 1.52 0-5.18 4-10.44 5.17-15.44 1.35-1.55 1.75-4 2.65-6.15 1.24-2.94 2.77-6 2.85-8.72 1-1.15 1-2.67 1.48-4 .28-.82.77-1.53 1.09-2.36.61-1.57.87-3.29 1.46-4.86.36-.95 1.17-1.84 1.49-2.79.5-1.48.67-2.94 1.22-4.36s1.48-2.86 2-4.38c.26-.72.23-1.53.45-2.26.83-2.72 2.18-5.43 3.18-8.16.28-.75.4-1.61.69-2.34.56-1.39 1.49-2.59 2-4 .79-2 1.17-4.05 2-6 1.09-2.57 2.07-5 3.28-7.5.57-1.2 1.15-3.39 1.79-4.29 1.95-2.68 3.03-7.38 5.51-10.03zm11.11 65.31c1.93 1.8-.55 3.78-1.34 5.49-.38.81-.42 2.18-1 3.29s-1.43 1.87-1.28 2.86c-7.53 13.35-12.39 26.85-16.88 39.08-.57 1.56-1 3-1.5 4.45a45 45 0 01-1.48 4.42 26.11 26.11 0 00-1.11 3.9c-.23 1.32-.44 2.65-.78 4-.3 1.17-.85 2.29-1.18 3.45s-.44 2.27-.68 3.42c-.19 1-.56 1.82-.82 2.8-.32 1.18-.24 2.47-.51 3.65-.18 1-.54 1.93-.73 3-.25 1.44-.89 3.43-1.47 5.55a22.88 22.88 0 00-.64 6.28c-.77.77-1.69 1.35-2.41 2.22-.68-2.46-.36-5.26.1-8s1.37-5.53 1.41-8.1c1-1.78 1.08-4.23 1.62-6.47.41-1.54.82-3.12 1.21-4.63a13.45 13.45 0 00.53-4.36c.92-1.24.7-2.75 1-4.16.22-.83.67-1.58.93-2.42.49-1.61.63-3.34 1.12-4.94.27-1 1.08-1.89 1.36-2.85.44-1.49.56-2.95 1.06-4.39s1.4-2.89 1.94-4.41c.26-.72.22-1.53.44-2.25.78-2.74 2.2-5.41 3.24-8.12.3-.74.42-1.6.74-2.32.61-1.37 1.59-2.53 2.19-3.89.85-1.93 1.35-4 2.31-5.91 1.22-2.5 2.4-4.8 3.8-7.22a37 37 0 012.17-4.1c2.19-2.51 3.78-7.05 6.64-9.32zm-52.39 40.86c1.86 1.71-.89 3.21-1.36 4.9-.12.44.24 1.07.12 1.55-.34 1.37-.48 2.76-.9 4-.13.37-.83.35-1 .66-.1.13.52.68.44.81s-.79 0-.86.22.09.64 0 1c-1.09 3.53-1.38 7.44-3.67 10.45.34 2.82-.54 5.79-1 9.09-.21 1.59-.2 3.19-.53 4.91a12.89 12.89 0 00.15 1.83c-.05 1.47-.54 2.92-.6 4.21a17.6 17.6 0 01-1.88 6.28c-.82 2-1.48 4-.94 6.1-1.7.47-.5 1.7-.67 2.74-.2 1.35-1.16 2.36-1 4.13a13.55 13.55 0 000 1.89c.18.65 1.11 1.26 1.07 1.87-.28.51-1.29.59-2 .85-2.71-.71-2.7-2.94-2.75-4.37-.12-2.38 1.21-4.85 1.33-7.22 0-.3.61-.65-.47-1.07 1.56-1 .89-2.47 1.36-3.63.7-1.77 2.49-3.49 1.64-5.66a7.61 7.61 0 001.88-3.63c.3-2 .19-4.17.52-6.25.38-2.6.27-5.26.59-8.24 0-.44.36-.78.43-1.2 0-.25-.47-.73-.41-.95.35-1.33 1.5-2.44 1.79-3.79.09-.43-.27-1-.23-1.4.2-2.68 2.35-4.8 2.84-7.28.07-.33-.36-.94-.26-1.26.36-1.19 1.31-2.2 1.73-3.28.9-2.32.52-4.9 1.86-7.12a1.45 1.45 0 01-.48-.68c1.55-.03.68-1.33 3.26-.46zm45.11 2.26c1.79 1.73-1 2.9-1.46 4.44-.14.4.21 1 .09 1.44-.36 1.25-.53 2.53-1 3.68-.12.33-.82.27-1 .54-.09.11.51.66.43.77s-.78 0-.86.15.08.6 0 .92c-1.13 3.2-1.46 6.8-3.74 9.48.31 2.62-.56 5.33-1 8.35-.21 1.47-.21 2.94-.54 4.51a14.67 14.67 0 00.18 1.7c0 1.35-.54 2.66-.59 3.86 0 2.1-1 3.91-1.82 5.72s-1.46 3.62-.86 5.6c-1.7.4-.49 1.56-.65 2.51-.2 1.24-1.14 2.15-.93 3.78.08.61-.17 1.23 0 1.74s1.12 1.17 1.09 1.73c-.28.47-1.28.53-2 .76-2.71-.67-2.72-2.73-2.78-4-.14-2.2 1.14-4.47 1.25-6.65 0-.27.6-.59-.49-1 1.54-.94.87-2.27 1.33-3.33.69-1.62 2.42-3.17 1.59-5.2a6.49 6.49 0 001.84-3.3c.31-1.86.17-3.85.5-5.75.39-2.39.25-4.87.6-7.61 0-.4.36-.71.43-1.1 0-.23-.48-.7-.41-.9.35-1.22 1.51-2.19 1.8-3.43.09-.39-.26-.9-.22-1.31.24-2.48 2.38-4.33 2.9-6.6.07-.31-.35-.89-.25-1.19.38-1.08 1.35-1.95 1.78-2.94.93-2.09.61-4.52 2-6.49a1.49 1.49 0 01-.45-.68c1.49.06.66-1.22 3.24-.2zm9.53 11.5c.74 1.07.38 1.92-.29 2.8a13.56 13.56 0 00-2 2.69c-.19.5.09 1.24-.09 1.78-.57 1.54-.83 3.15-1.42 4.58-.18.41-.88.39-1.13.74-.1.15.47.78.37.93s-.79 0-.89.26 0 .73-.12 1.13c-.73 2-1.18 4.19-1.82 6.26a20.41 20.41 0 01-2.54 5.91 20.72 20.72 0 01-.32 5c-.24 1.76-.58 3.6-.82 5.52s-.16 3.7-.47 5.72a18.65 18.65 0 00.18 2.08c0 1.71-.44 3.43-.44 4.93a26.54 26.54 0 01-1.6 7.46 22 22 0 00-.85 3.57 9.19 9.19 0 00.29 3.6c-1.68.73-.42 2-.54 3.26-.17 1.59-.94 2.87-.67 4.9a21.7 21.7 0 00.08 2.21c.22.74 1.19 1.37 1.19 2.09-.26.63-1.25.81-2 1.17-2.75-.58-2.88-3.17-3-4.82a19.33 19.33 0 01.29-4.25 25.54 25.54 0 00.56-4.26c0-.34.58-.82-.53-1.18 1.49-1.38.66-3 1.11-4.36.65-2.13 2.31-4.31 1.34-6.75a9.7 9.7 0 001.76-4.39c.12-1.2.12-2.41.14-3.63s.09-2.44.23-3.66c.31-3.06.25-6.12.58-9.62 0-.51.39-.93.47-1.42.05-.29-.46-.82-.39-1.08.4-1.57 1.56-2.93 1.93-4.51.12-.5-.22-1.09-.16-1.61.33-3.14 2.68-5.67 3.39-8.54.1-.39-.28-1.08-.15-1.46.48-1.38 1.56-2.55 2.13-3.8 1.17-2.67 1.2-5.66 3-8.17a1.66 1.66 0 01-.33-.77c1.68.05 1.1-1.55 3.53-.31zM94 280.74c2.26 1.11 0 3.17 0 4.83 0 .44.51.93.52 1.4 0 1.35.24 2.68.14 3.94 0 .37-.72.51-.85.84-.06.13.67.51.62.65s-.75.18-.78.39.25.58.22.92c-.22 3.51.4 7.21-1.2 10.48 1 2.55.69 5.5.88 8.67.1 1.53.39 3 .39 4.7 0 .58.39 1.11.47 1.7.2 1.39 0 2.84.11 4.07.6 4.35-2.7 8.19-1.08 12.14-1.65.64-.33 1.68-.4 2.69-.09 1.31-.9 2.36-.6 4 .11.63-.1 1.29.09 1.81s1.19 1.14 1.19 1.74c-.25.51-1.25.64-2 .93-2.75-.54-2.89-2.64-3-4-.25-2.22.75-4.66.66-6.9 0-.28.54-.68-.58-.95 1.42-1.15.57-2.42.89-3.56.49-1.74 2-3.6.83-5.53a6.57 6.57 0 001.27-3.68c0-1.95-.49-3.93-.56-5.93-.1-2.49-.73-4.95-1-7.77 0-.42.2-.79.18-1.2 0-.24-.62-.59-.61-.8.06-1.3 1-2.55.94-3.85 0-.42-.47-.84-.54-1.26-.39-2.51 1.21-4.91 1.09-7.31 0-.32-.57-.79-.56-1.11.07-1.16.74-2.3.88-3.4.28-2.34-.74-4.61-.06-7A1.46 1.46 0 0191 282c1.52-.45.32-1.4 3-1.26zm25.37-140.07c1.61 2-1.4 3.35-2.15 5.1-.2.46.06 1.17-.14 1.67-.58 1.43-1 2.91-1.6 4.21-.18.37-.89.28-1.15.58-.12.12.4.78.3.91s-.79-.08-.9.14 0 .7-.2 1.05c-1.72 3.65-2.73 7.79-5.59 10.71-.19 3.06-1.65 6.1-2.77 9.56-.53 1.67-.86 3.37-1.54 5.17a15.61 15.61 0 00-.23 2c-.37 1.56-1.17 3-1.5 4.41-1.14 4.85-5.72 7.93-5.65 12.72-1.8.17-.92 1.71-1.35 2.78-.54 1.4-1.71 2.28-2 4.19a17.83 17.83 0 00-.54 2c0 .73.75 1.6.55 2.24-.42.49-1.42.34-2.19.44-2.44-1.38-1.85-3.72-1.53-5.23.52-2.51 2.39-4.86 3.11-7.33.09-.31.76-.57-.2-1.21 1.78-.8 1.45-2.46 2.18-3.59 1.11-1.73 3.25-3.26 2.91-5.71a8.58 8.58 0 002.64-3.54c.74-2.12 1.09-4.4 1.84-6.56.91-2.71 1.33-5.56 2.23-8.68.13-.46.51-.78.67-1.22.08-.26-.34-.84-.24-1.06.6-1.37 2-2.4 2.5-3.79.18-.45-.09-1.06 0-1.53.7-2.82 3.22-4.81 4.15-7.4.13-.34-.19-1 0-1.37.57-1.22 1.69-2.18 2.3-3.29 1.29-2.38 1.35-5.16 3-7.39a1.52 1.52 0 01-.37-.77c1.68.12.99-1.37 3.46-.21zM87.12 218c.32 1.81-.56 3.85-1.71 6.2-.55 1.17-1.25 2.37-1.8 3.6a31.17 31.17 0 00-1.45 3.63c-.41 1.22-.21 2.71-.56 4-1 3.83-1.58 7.68-2.49 11.3-.27 1.05-1 1.45-1.34 2.41-.13.4.42 1.5.3 1.91-.17.57-.86.5-1 1.13-.19.84 0 1.67-.25 2.68-.55 2.54-.91 5.15-1.27 7.76s-.75 5.21-1.12 7.81-.68 5.19-1.12 7.73-1 5-1.58 7.47a112 112 0 01-.19 12c-.22 4.27-.37 8.79-.51 13.45 0 2.26-.08 4.48-.06 6.76s.07 4.61 0 7.09c0 1.7.34 3.2.39 4.94.06 2 0 4.14 0 6.18s0 4 .06 5.84c.36 6.37-.3 12.5-.75 18.5s-.58 11.82.41 17.51c-1.56 2.16-.21 5-.1 8 .14 3.9-.49 7.13.08 12 .21 1.85.11 3.85.39 5.34.32 1.76 1.37 3.15 1.47 4.9-.17 1.57-1.13 2.14-1.78 3.11-2.82-1.06-3.31-7.24-3.67-11.15-.3-3.26-.31-6.74-.3-10.23v-5.22c0-1.73 0-3.43-.08-5.09 0-.81.48-2.09-.67-2.7 1.3-3.64.33-7.28.55-10.69.17-2.62.52-5.37.79-8.15a27.27 27.27 0 00-.26-8.36 51.25 51.25 0 001.18-11.09c0-5.78-.3-11.58-.28-17.47V310c0-3.77-.11-7.65 0-11.82 0-1.22.37-2.36.44-3.55 0-.71-.49-1.69-.43-2.32a56.44 56.44 0 01.94-5.75c.36-1.91.73-3.81 1-5.74.13-1.24-.22-2.44-.15-3.67.33-7.43 3-14.58 4-21.61.16-.94-.17-2.3 0-3.24.34-1.72.83-3.41 1.32-5.07s1.12-3.28 1.53-4.87c1.76-6.79 2.49-13.5 5.64-20.11a3.18 3.18 0 01-.07-1.58c1.06-.47 1.5-1.43 2.13-2.16a2.33 2.33 0 011-.8 1.73 1.73 0 011.37.29zm29.18-101.51c1.33 2.78-2.46 6.33-3.77 9.64-.35.86-.23 2-.58 2.93-1 2.7-1.83 5.4-2.9 7.9-.31.73-1.09.84-1.47 1.47-.16.26.26 1.19.11 1.46s-.88.16-1.06.59-.21 1.21-.49 1.9c-2.89 7-5.08 14.55-9.06 20.71-1 5.38-3.4 11.24-5.51 17.68-1 3.11-1.79 6.21-3 9.59-.41 1.17-.41 2.33-.75 3.54-.78 2.88-2 5.74-2.72 8.29a74.84 74.84 0 01-5.1 12.4c-1.84 3.95-3.49 7.85-3.93 12-2 1-1.32 3.37-2 5.42-.9 2.67-2.22 4.69-2.81 8.18a31.38 31.38 0 00-.81 3.76c0 1.29.71 2.5.47 3.7-.46 1-1.51 1.19-2.34 1.72-1.26-.67-1.71-2.13-1.78-3.79a20.11 20.11 0 01.52-4.91 53.56 53.56 0 012.12-7.16c.9-2.37 1.83-4.75 2.46-7.07.15-.58.93-1.29 0-2.08 2.13-2.06 2.12-4.86 3.17-7.12 1.56-3.47 4.33-6.91 4.48-11.1a28.87 28.87 0 003.78-7.14c1.31-4 2.26-8.1 3.62-12.14 1.68-5.07 2.87-10.18 4.65-16 .25-.84.77-1.54 1.05-2.36.16-.48-.16-1.33 0-1.76 1-2.61 2.82-4.89 3.78-7.53.31-.84.17-1.79.41-2.64 1.51-5.15 4.88-9.58 6.6-14.41.23-.64 0-1.71.29-2.35 1-2.33 2.49-4.43 3.46-6.59 2.08-4.61 2.85-9.41 5.35-13.92a2.24 2.24 0 01-.24-1.18c1.88-.4 1.46-2.61 4-1.63zM48 305.44c-2.55-.41-1.27-.86-1.34-1.24 0-.18-.6-.49-.62-.74s.47-.41-.1-.64c1-3 .54-5.87 1-8.45.12-.65-.08-1.23.24-1.85s-.25-1.11-.23-1.65c0-.25.27-.46.3-.7a4.27 4.27 0 00-.07-.71c0-.2.19-.37.24-.57s-.26-.52-.23-.76.24-.38.26-.6c0-.58 1.33-1.53.64-2.36.69-.09 1.54-.12 2.17-.24 1.82 1.16-.19 2.2.47 3.28-.73.3-.26.83-.37 1.28-.14.61-.54 1.24.33 1.85-.58.22 0 .56 0 .85s-.2.32-.21.49c0 .33.32.71.3 1s-.46.37-.43.57.38.63.35.93-.4.59-.4.91c0 .15.32.34.36.49.15.58-.18 1.14-.18 1.71 0 .16.18.35.16.5 0 .3-.5.53-.54.82s.3.87.2 1.28a8.37 8.37 0 01-.49 1.57c-.12.25.08.72-.2.9-.81.56-.21 1.57-1.61 2.08z"/><path d="M82.4 295.22c-2.56-.41-1.27-.86-1.35-1.24 0-.19-.6-.5-.61-.75s.47-.41-.1-.64c1-2.95.54-5.87 1-8.44.12-.65-.07-1.23.24-1.85s-.24-1.11-.23-1.66c0-.24.28-.46.31-.7s-.07-.47-.07-.71.18-.36.24-.56-.26-.53-.23-.77.23-.38.25-.59c.06-.59 1.34-1.53.65-2.36.69-.09 1.54-.13 2.17-.24 1.81 1.16-.19 2.19.47 3.27-.73.3-.26.84-.37 1.29-.15.61-.54 1.23.33 1.85-.58.22 0 .56 0 .85s-.2.31-.22.49c0 .33.32.7.31 1s-.46.38-.44.58.38.63.35.93-.39.59-.39.91c0 .15.31.33.35.49.16.58-.17 1.14-.17 1.71 0 .16.18.35.15.5s-.5.53-.54.82.3.86.2 1.28a7.39 7.39 0 01-.48 1.56c-.13.25.08.72-.2.9-.82.56-.21 1.57-1.62 2.08zm33.11 9.78c-2.6.05-1.51-1.4-1.68-2.17-.08-.38-.71-.87-.79-1.41s.37-1-.24-1.35c.2-3.34.21-6.53.27-9.62.06-1.54.07-3.06.21-4.54.06-.74.13-1.47.19-2.2s.21-1.43.34-2.13a20.14 20.14 0 01.72-4c.4-1.14.15-2.37.38-3.55.11-.53.47-1 .6-1.51s.18-1 .3-1.52a10.3 10.3 0 01.54-1.18c.21-.5 0-1.15.2-1.65s.49-.77.66-1.23a13.63 13.63 0 011.34-2.19 4.54 4.54 0 001.07-2.59c.77-.05 1.64.07 2.35 0a3.77 3.77 0 01-.61 3.38 6.77 6.77 0 00-1.24 3.16c-1 .51-.75 1.66-1.08 2.55-.22.63-.52 1.25-.68 1.88a2.71 2.71 0 00.19 1.91c-.68.45-.24 1.15-.32 1.74 0 .36-.3.66-.37 1-.11.69.13 1.44 0 2.12-.07.42-.58.8-.59 1.22a18.17 18.17 0 01.18 1.9 17.31 17.31 0 00-.54 1.94c0 .31.28.65.31 1 .08 1.18-.29 2.39-.29 3.59 0 .33.17.69.14 1 0 .61-.48 1.19-.52 1.81 0 .88.34 1.74.28 2.63-.09 1.14-.11 2.21-.28 3.37-.09.55.22 1.46 0 1.92-.71 1.29.13 3.19-1.04 4.72zm-.68-98.93c-2.36-1-1-1.16-1-1.54 0-.19-.46-.63-.42-.88s.56-.28.07-.64c1.73-2.61 2-5.55 3.1-7.92.28-.6.24-1.21.7-1.73s0-1.14.2-1.66c.06-.24.38-.38.47-.6s0-.48.11-.71.27-.3.37-.48-.12-.58 0-.8.32-.31.4-.51c.2-.56 1.67-1.15 1.21-2.12.7.08 1.53.26 2.17.31 1.46 1.58-.74 2.07-.37 3.28-.78.11-.47.75-.68 1.15-.3.56-.84 1.06-.15 1.88-.62.07-.16.54-.21.82s-.27.26-.32.43.13.76 0 1.07-.54.25-.56.45.21.71.1 1-.53.47-.61.78c0 .15.22.4.22.56 0 .6-.46 1.06-.6 1.62 0 .15.09.38 0 .52s-.62.39-.73.66.07.91-.13 1.29a8.23 8.23 0 01-.87 1.39c-.18.21-.1.71-.42.82-.88.29-.56 1.42-2.05 1.56zm-36.95 204.3c-2.58-.23-1.34-.93-1.44-1.4 0-.22-.63-.55-.67-.86s.44-.57-.14-.79c.8-3.8.11-7.39.39-10.65a9.63 9.63 0 01.11-2.34c.22-.68-.33-1.36-.35-2 0-.3.24-.6.25-.91s-.1-.58-.12-.88.16-.47.2-.72-.3-.63-.29-.94.21-.49.21-.77c0-.73 1.22-2.05.47-3 .69-.19 1.53-.33 2.15-.54 1.9 1.25 0 2.76.71 4-.71.46-.2 1.08-.27 1.65-.11.78-.46 1.6.46 2.27-.56.34 0 .7.07 1.06s-.18.42-.18.64c0 .41.37.84.38 1.26 0 .25-.43.51-.39.76s.43.75.42 1.13-.35.78-.33 1.18c0 .18.34.38.39.57a10.32 10.32 0 010 2.15c0 .2.2.42.19.61 0 .37-.46.72-.48 1.08 0 .53.37 1 .29 1.58a10.91 10.91 0 01-.37 2c-.1.32.14.88-.13 1.14-.84.74-.17 1.93-1.53 2.72zm23.4-75.89c-2.58-.23-1.33-.93-1.43-1.4 0-.23-.64-.55-.67-.86s.44-.57-.15-.79c.8-3.8.11-7.39.4-10.65a9.15 9.15 0 01.1-2.34c.22-.68-.32-1.36-.35-2 0-.31.24-.61.25-.91s-.1-.58-.12-.88.16-.47.2-.72-.3-.63-.29-.94.21-.5.22-.77c0-.74 1.21-2.05.47-3 .68-.19 1.53-.33 2.15-.54 1.89 1.24 0 2.76.7 4-.7.46-.2 1.08-.27 1.64-.1.79-.45 1.61.46 2.28-.56.34 0 .7.07 1.06s-.17.42-.17.64c0 .41.37.84.38 1.26 0 .25-.43.51-.4.76s.43.75.42 1.12-.35.78-.32 1.18c0 .19.33.39.38.57a9.76 9.76 0 010 2.16c0 .2.21.42.2.61 0 .37-.46.71-.48 1.08 0 .52.36 1.05.29 1.58a11.71 11.71 0 01-.37 2c-.11.33.13.89-.14 1.15-.81.72-.16 1.92-1.53 2.71zm5.81 43.7c-2.56-.46-1.25-2-1.31-3 0-.48-.59-1.17-.6-1.83s.49-1.21-.07-1.68c1.13-8.11.75-15.75 1.33-22.7a43.27 43.27 0 01.3-5c.28-1.46-.2-2.89-.17-4.35 0-.65.29-1.29.33-1.93s0-1.25 0-1.88.2-1 .26-1.55-.24-1.34-.2-2 .25-1.07.28-1.65c.07-1.57 1.4-4.39.73-6.43.7-.42 1.56-.72 2.2-1.18 1.79 2.64-.27 5.89.35 8.59-.74 1-.29 2.3-.41 3.51-.17 1.67-.59 3.42.26 4.84-.59.73 0 1.5 0 2.26 0 .46-.21.89-.23 1.36 0 .89.3 1.8.27 2.68 0 .53-.48 1.1-.46 1.63 0 .82.36 1.59.32 2.39s-.42 1.67-.43 2.52c0 .4.3.81.34 1.21.13 1.51-.22 3.07-.24 4.6 0 .43.17.88.14 1.29 0 .79-.52 1.53-.57 2.31-.08 1.12.27 2.23.15 3.36-.15 1.47-.27 2.82-.55 4.28a11.56 11.56 0 01-.23 2.44c-.88 1.66-.35 4.21-1.79 5.91zm-59.16-63.32c2.22 1.59-.09 4.82-.14 7.34 0 .66.49 1.39.49 2.1 0 2.05.21 4 .1 6 0 .55-.73.81-.86 1.32-.06.21.68.74.63 1s-.76.32-.79.64.25.86.23 1.39c-.21 5.34.48 10.91-1 16 1 3.81.93 8.29 1.36 13.07.2 2.31.63 4.55.79 7.08.06.87.5 1.62.64 2.5.35 2.08.28 4.29.61 6.12.6 3.22.24 6.37.09 9.45s-.11 6.07 1.2 8.8c-1.42 1.3.15 2.54.42 4 .35 1.91 0 3.67 1 5.92.42.82.48 1.85 1 2.44s1.67 1 2.06 1.65c.09.7-.69 1.36-1.09 2.1a3.17 3.17 0 01-3.34-1 10.62 10.62 0 01-1.81-3.14c-1.38-3.26-1.32-7.23-2-10.58-.1-.42.33-1.14-.84-1.31 1.08-2-.07-3.79 0-5.58.1-2.74 1.23-5.79-.21-8.53a14.79 14.79 0 00.74-5.75c-.29-3-1-5.91-1.22-8.93-.33-3.78-1.13-7.46-1.58-11.74-.06-.62.16-1.22.12-1.83 0-.36-.65-.84-.65-1.17 0-2 .84-4 .79-5.95 0-.64-.5-1.24-.58-1.87-.46-3.8 1.09-7.58 1-11.21 0-.49-.58-1.16-.57-1.65.06-1.79.75-3.56.89-5.23.31-3.58-.67-7 .09-10.6a1.74 1.74 0 01-.64-.74c1.52-.81.35-2.22 3.07-2.11zm52.82 26.8c2.25 1.24 0 3.62-.08 5.51 0 .5.49 1.06.49 1.6 0 1.54.19 3.05.06 4.49 0 .42-.73.59-.87 1-.06.15.67.58.62.74s-.76.21-.79.45.23.66.2 1.05c-.29 4 .26 8.24-1.4 12 .9 2.92.58 6.28.72 9.91.07 1.75.33 3.46.3 5.38a15.29 15.29 0 00.44 1.93c.16 1.6-.11 3.25 0 4.67.51 5-2.86 9.35-1.32 13.87-1.66.71-.36 1.92-.45 3.07-.11 1.51-.94 2.69-.68 4.61a17.05 17.05 0 00.06 2.07c.21.7 1.17 1.32 1.16 2-.26.59-1.26.73-2 1-2.74-.65-2.84-3.05-3-4.57-.2-2.54.85-5.32.8-7.88 0-.31.56-.77-.56-1.08 1.44-1.3.61-2.77 1-4.06.52-2 2-4.11.93-6.31a8.32 8.32 0 001.34-4.2c0-2.24-.41-4.5-.45-6.78 0-2.85-.64-5.66-.87-8.88 0-.47.21-.9.2-1.37 0-.27-.6-.67-.59-.91.08-1.48 1-2.91 1-4.4 0-.48-.45-.95-.51-1.43-.35-2.87 1.29-5.62 1.23-8.35 0-.37-.56-.89-.54-1.26.08-1.33.78-2.64.94-3.89.32-2.67-.65-5.26.07-7.94a1.57 1.57 0 01-.64-.57c1.66-.53.44-1.61 3.19-1.47zm-39.7 69.75c-3.51-.45-2.4-5.13-2.86-7.91-.23-1.34-1.23-3.11-1.49-5s.28-3.55-.61-4.72c-1-23.19-2.19-44.76-1.32-64.56.12-2.51.12-4.83.16-7.13s.17-4.58.45-7c.44-4.15 0-8.17.15-12.3.07-1.84.52-3.68.67-5.51s.09-3.51.18-5.29c.08-1.49.42-2.87.59-4.41.21-1.83-.11-3.77.05-5.6.13-1.5.53-3 .67-4.67.37-4.44 2.76-12.45 2.25-18.14a35.43 35.43 0 003.12-3.43c1.06 3.73.6 7.87 0 12s-1.35 8.38-1.17 12.18c-1.19 2.78-.77 6.47-1.14 9.89-.45 4.72-1.28 9.68-.25 13.62-.87 2.1-.21 4.23-.26 6.37 0 1.29-.35 2.53-.41 3.84-.1 2.51.29 5 .2 7.53-.06 1.5-.66 3.14-.65 4.64 0 2.31.45 4.43.38 6.69s-.52 4.75-.52 7.15c0 1.13.43 2.24.49 3.36.18 4.21-.07 8.67 0 13 0 1.19.29 2.43.32 3.6 0 2.22-.47 4.39-.42 6.6.07 3.14.66 6.2.79 9.38 0 2.07.11 4.06.16 6s.08 4 .12 6.06.64 5.25.42 6.87a24.24 24.24 0 00-.16 3.89c.07 1.39.21 2.86.31 4.34a29.49 29.49 0 01-.22 8.66zM79 378.09c-3.47-.07-2-2.49-2.3-3.87-.15-.66-1-1.54-1.09-2.47s.48-1.77-.34-2.36c.25-5.8.21-11.34.26-16.69s.09-10.47.52-15.35c.23-2.48 0-4.59.53-7 .41-2-.18-4.06-.07-6.1.05-.91.44-1.81.52-2.71s0-1.74 0-2.62.32-1.41.43-2.16c.14-.91-.26-1.88-.17-2.79.07-.74.39-1.48.46-2.29.18-2.18 2.1-6.08 1.26-8.89a26.23 26.23 0 002.93-1.65c2.4 3.76-.56 8.26.14 12.06-1 1.33-.51 3.19-.73 4.87-.31 2.33-1 4.76.13 6.77-.82 1-.12 2.09-.12 3.15 0 .64-.31 1.24-.35 1.89-.08 1.23.34 2.51.28 3.74 0 .74-.66 1.52-.64 2.26 0 1.15.45 2.22.38 3.33s-.56 2.32-.58 3.51c0 .56.4 1.13.45 1.68.19 2.09-.25 4.27-.26 6.4 0 .59.27 1.21.24 1.78 0 1.09-.64 2.14-.67 3.23 0 1.55.49 3.07.41 4.64-.13 2-.12 3.9-.36 5.94-.12 1 .3 2.59 0 3.38a11.38 11.38 0 00-.42 4.05 8 8 0 01-.84 4.27zm8.41 38.81c-3.42-.51-1.72-2.27-1.83-3.43 0-.56-.82-1.35-.85-2.11s.62-1.41-.15-1.94c1.28-9.42.55-18.27 1.11-26.34.15-2-.13-3.78.27-5.78.33-1.69-.36-3.35-.35-5 0-.76.35-1.51.38-2.26s-.1-1.44-.11-2.17a15.09 15.09 0 01.31-1.8c.08-.75-.37-1.54-.34-2.3s.31-1.23.33-1.91c.06-1.82 1.74-5.1.79-7.46.92-.49 2.06-.85 2.9-1.39 2.46 3-.19 6.82.72 9.95-1 1.14-.32 2.67-.45 4.07-.18 1.94-.7 4 .49 5.61-.77.85 0 1.74 0 2.62a14.91 14.91 0 01-.27 1.58c0 1 .45 2.08.44 3.1 0 .62-.6 1.28-.56 1.9 0 .95.52 1.83.49 2.76s-.51 1.94-.5 2.93c0 .46.43.93.49 1.4.22 1.74-.21 3.56-.19 5.33 0 .49.25 1 .23 1.5-.05.91-.66 1.78-.7 2.68-.06 1.29.43 2.58.3 3.89-.16 1.7-.28 3.27-.6 5-.16.81.13 2.19-.25 2.83-1.06 1.84-.23 4.75-2.1 6.74z"/></g></svg>