<svg xmlns="http://www.w3.org/2000/svg" width="500" height="550" viewBox="0 0 500 550"><title>s03e09-01</title><path d="M372.14,291.56q-.27,61.72-.62,123.46c-.81,9-2.68,16.41-3.55,25.44-1,10.07,1.34,17.05-1.5,25.64-.59,1.76-2,1.66-3.35,1.43-44.59-7.74-101.66-5.72-146.65-2.92-24.6.57-58.62-1.68-83,2.09-5.23.59-5.68.27-6.62-4.83-1.35-11.26,1.94-18.53.53-29.31-6.15-46.82-1.39-94.37-3.6-141.53-1.42,2.83-2.94,5.6-4.29,8.46-2.37,10.68-17.5,9.3-11.81,16.18,11.11,7.95,6.41,21.38,5.15,32.56-.25,3.15-1.35,6.27-.37,9.58.51,8.44-3.19,16.94-4.38,25.31-1.5,8-2.61,15.83-1.54,23.93a5.1,5.1,0,0,1-1.13,3.3c-5.71,6.28-7.75,14-9.19,22.06-.57,3.18-.61,3-3.74,2-12.38-3.52-26.09-4.38-38.6-1.18-1.39.34-2.11,0-2.41-1.47-2-7.76-2.18-16.67-8.49-22.43a6.62,6.62,0,0,1-1.33-3.22A144.41,144.41,0,0,1,39,372.86c-1.91-63,2.6-126.93,26.19-186,13.61-35.43,24.56-73.32,48.07-103.67,27.32-18.2,60-23.76,90.46-34.78a3.16,3.16,0,0,1,2.72.43c5,5.55,11.46,8.41,18.56,9.67,19.19,2.43,41.29,5.55,58.65-4.88,2.85-1.27,4.2-6.53,7.87-5,29.12,10.49,61,14.41,87.44,31.58,15.94,14.59,21.63,38,30.45,57.21,27.81,67.48,58,137.39,51.05,212.08-1.19,18.65-.23,37.45-3.28,55.95-.49,4.66-5.21,7.1-5.56,11.78-1.22,5.28-2.08,10.65-2.91,16-.4,2.6-.41,2.83-3.08,2.33-12.48-2.66-25.26-5.49-37.8-1.58-8.34-.15-8.13-15.56-11.44-21.4-6.28-7.37-3.61-9-5.33-17.64-.9-9.7-4.68-20.27.79-29.26,2-3.53,1.86-7.05.51-10.66-4.9-11.28-7.4-23.41-10.45-35.29-1.07-4.3-1.31-8.49,1.61-12.34,1.51-7.23-10.43-8.68-10.93-15.93Z" fill="#bfbfbf"/><path d="M124.35,309.43a84.36,84.36,0,0,0,.27-10.3c-.14-5.21-.58-10.41-1-15.6s-.75-10.38-1.14-15.57c-.63-8.47-4.93-19-8.43-17a1,1,0,0,1-1.36-.35c-1.15-2.36-2.39-5.3-4.49-7a2.42,2.42,0,0,0-3.21,0,27.12,27.12,0,0,0-4.2,4,53,53,0,0,1-5.85,5.25c-.66.5-1.46-.19-1.5-.86-.09-1.31-1.23-2.32-2.14-3.35-3,3.53-4.59,8.1-7.87,11.46a1,1,0,0,1-1.57-.21c-1.76-4.08-2.54-11.21-6.32-13.76-3.08,3-5.65,10.18-8,13.76A1,1,0,0,1,66,260c-3.33-2.83-6.17-7.09-10.76-7.66-.62,5.71,3.08,11,2.61,16.81a1,1,0,0,1-1.27,1c-2.14-.52-4.3-.91-6.45-1.36a11.55,11.55,0,0,1,.89,6.12c-.38,3-3,9.44-3.42,9.46-2,0-3.83.51-5.76,0-3.22,29.32-3.74,59-2.84,88.54a144.41,144.41,0,0,0,2.72,33.3A6.62,6.62,0,0,0,43,409.38a17,17,0,0,1,1.6,1.7c35.18-11.21,51.86-.79,57.66,3.48a29,29,0,0,1,3.17-4.21,5.1,5.1,0,0,0,1.13-3.3c-1.07-8.1,0-16,1.54-23.93,1.19-8.37,4.89-16.87,4.38-25.31-1-3.31.12-6.43.37-9.58,1.26-11.18,6-24.61-5.15-32.56-5.69-6.88,9.44-5.51,11.81-16.18,1.35-2.86,2.87-5.63,4.29-8.46C124.09,297.07,124.26,303.22,124.35,309.43Z" fill="#f9f9f9"/><path d="M40.27,397.93c1.06-2.08,2.19-4.14,3.31-6.23a61.76,61.76,0,0,0,4.84-10.91,69.52,69.52,0,0,0,2.43-11.86,208.88,208.88,0,0,0,1.17-25,79.75,79.75,0,0,1,.77-12.06,45.53,45.53,0,0,1,3.6-11.73,73,73,0,0,0,3.5-8.08c1-3.07,1.84-6.17,2.78-9.25a63.4,63.4,0,0,1,3.13-8.59c1.1-2.33,2.47-4.2,5.16-4.72,3.22-.61,6.25.92,9.29,1.68A7.38,7.38,0,0,0,85,291.1a7.16,7.16,0,0,0,3.55-3.66c1.3-2.88.85-6.2,1.07-9.26s1.26-6.08,3.94-8a21.39,21.39,0,0,1,8.58-3.31c2.41-.44,4.48-1,6.33-2.68a32.73,32.73,0,0,0,3.76-4.54c1.29-1.73.64-8.59.41-9.08-1.15-2.36-1.37-11.58-2.49-10.84-1.59,1.05-13.16,11.45-15.26,13-.66.5-1.49-6.93-2.4-8-5.34,3.29-10.42,15.6-10.68,15-1.76-4.08-2.54-11.21-6.32-13.76-3.08,3-5.65,10.18-8,13.76A1,1,0,0,1,66,260c-3.33-2.83-6.33-10.46-10.92-11-.62,5.72,3.24,12.91,2.77,18.68-.06.66-7.76-2.93-9.91-3.39-2.57,3.15,2.43,7.19,2.16,9.35-.23,1.82-.32,8.18-2.5,10.73-1.43,1.66-5,.18-5.76,0-3.22,29.32-3.74,59-2.84,88.54A146.89,146.89,0,0,0,40.27,397.93Z" fill="#e5e5e5"/><path d="M373,225.94c-3.1-10.35-2.21-21.09-2.15-31.68-3.62-13.7-10.24-27.75-8.12-42.51,1.52-11-.37-21.77-2.19-32.58-1.38-9.44-2.36-19.26-6.64-27.92-4.34-9.17-15-11.1-23.92-13.22-10.54-2.61-29-19.93-32.57-9.7-15.39,43.57-68,53.76-96,10.3,2.31,3.58-6.93,5.05-9.15,8.87-2.56,3.64-4.42,7.7-6.82,11.43-4.34,5.68-8.79,11.26-12.95,17.08-7.12,8.22-19.55,8.17-27,16.2-5.24,4.83,5.77,8.15,3,14.67-7.32,17.43-2.55,69.11-25.74,58.35-.71,9.09-1.46,18.26-1.61,27.38,2,17.76,1.27,35.65,2.67,53.49.29,9.81-1.46,113.56,3.59,152,89.26-4,192-6.84,240.56,4.9C376.54,371.1,369.1,298.17,373,225.94Z" fill="#e5e5e5"/><path d="M149.22,401.16a51.48,51.48,0,0,0,3.52-10.55,27.24,27.24,0,0,0-.34-11.19c-1.65-7.36-5.3-14.1-6.81-21.49-1.71-8.3-1.78-16.8-2-25.24-.22-7.32-.27-14.73-1.68-21.95a71.8,71.8,0,0,0-6.1-18c-3-6-8.19-11.66-12.27-17,.26,3.45.52,6.89.81,10.34.83,10-2,113.56,3.09,152l8.53-.38c2.77-5,4.08-10.45,5.2-16C142.61,414.43,146.29,407.88,149.22,401.16Z" fill="#f9f9f9"/><path d="M366.52,311.4c0,6.5.06,12.89-1.22,19.3a120.67,120.67,0,0,1-5.56,18.18c-2.21,6-4.51,11.9-6.12,18.05A99.78,99.78,0,0,0,350.79,386a155,155,0,0,0,.13,20.1c.24,3.45.59,6.9,1.05,10.33a72.77,72.77,0,0,0,1.74,9.63,51.86,51.86,0,0,0,7.76,15.48q3.39.68,6.5,1.42c.87-9,2.74-19,3.55-27.94q.28-57.93.58-115.89c-.21-3.79-.32-7.58-.39-11.37-.51,1-1,2-1.5,3C367.13,297.24,366.49,304.32,366.52,311.4Z" fill="#f9f9f9"/><path d="M447,311.59c-7.37-9-2.83-21.13-7.94-30.68-5.09-7.39-10.23-9.39-10.48-19.32-1.93-3.92-7.12-1.24-9.73-4.41-2.84-3.41-4-9.65-9.71-8.91-3.19,1.09-4.45,4.92-7.76,6-14.45,2.89-6-8.53-8.55-15-4.62-5.33-14.71-.94-17.86-8.83,0,3.91.86,8-.24,11.74-6.53,22.4-1.5,35.32-.8,53,3.2,4.41,10.78,6.48,9.56,12.33-6.68,8.27,5.5,37.5,8.84,47.63,1.35,3.61,1.5,7.13-.51,10.66-5.47,9-1.69,19.56-.79,29.26,1.64,8.72-.8,10.61,5.57,18,18.43-4.69,38.38-8.43,55.92,1.21,1.49-2.91,4.26-5.15,4.63-8.67,3.31-26.52,3.07-53.64,4.26-80.29A39.9,39.9,0,0,1,447,311.59Z" fill="#f9f9f9"/><path d="M447,311.59A34.14,34.14,0,0,1,442.48,301c-.88-3.82-.58-7.67-.84-11.55a18,18,0,0,0-2.59-8.58,43.38,43.38,0,0,0-3.42-4.59c-1.07-1.29-2.39-2.35-3.47-3.62a12.54,12.54,0,0,1-2.8-5.21c-.39-1.9.06-4.12-.79-5.9-1-2.15-3-2.35-5.09-2.49a6.77,6.77,0,0,1-4.64-1.92,14.45,14.45,0,0,1-2.65-4.37,6.9,6.9,0,0,0-3.08-3.58,6.13,6.13,0,0,0-4-1,4.8,4.8,0,0,0-2.35,1.5c-1.68,1.7-3.09,3.59-5.41,4.47s-6,.9-7.77-1.05c-1.64-1.75-1.16-4.45-.79-6.58s1.32-5.29,0-7.42c-1.86-3-6.25-2.76-9.32-3.19a10.62,10.62,0,0,1-8.12-4.92l-.42-.72c0,3.91-.12,7.83-.24,11.74v.14l0,0c4.75,3.17,8,8,11.12,12.63a81.17,81.17,0,0,0,5,7,76.4,76.4,0,0,0,6.1,6,37.23,37.23,0,0,1,8.68,11.63,46.38,46.38,0,0,1,3.3,15.08,92,92,0,0,1,.28,10.1,37.65,37.65,0,0,0,.32,8.15,23.87,23.87,0,0,0,3.84,8.52c1.91,2.85,3.89,5.6,6.07,8.27,4.08,5,8.27,10.09,10.11,16.41a58.93,58.93,0,0,1,1.84,23.26c-1.57,13.77-6.86,26.67-12.11,39.4l.8-.08a75.11,75.11,0,0,1,13.14-.71c4.51.32,8.63,2,12.81,3.62q3.22,1.21,6.41,2.56c1.49-2.91,4.26-5.15,4.63-8.67,3.05-18.5,2.09-37.3,3.28-55.95a239.93,239.93,0,0,0,1-24.34A39.9,39.9,0,0,1,447,311.59Z" fill="#e5e5e5"/><path d="M51.32,409.51S80,400,96.47,412" fill="none" stroke="#636363" stroke-linecap="round" stroke-linejoin="round"/><path d="M402.18,412s25.94-8.31,43.55,0" fill="none" stroke="#636363" stroke-linecap="round" stroke-linejoin="round"/><path d="M204.38,48.28s4,48.54,43.67,46.73S290.9,49.6,290.9,49.6" fill="none" stroke="#262521" stroke-linecap="round" stroke-linejoin="round" stroke-width="3"/><path d="M291.66,168.08c-9.38,1.59-19.5-2.2-28.31,1.41-14,7.73-22.15,23.16-32,35.34-2.7,2.94-3.1,6.61-3.09,10.41-2,8.67-8.35,16-14.9,21.72-12.48,8.64-27.47,19.12-19.43,36.21,6.95,22.69-7,47.71-.81,70.48,6.61,9,25.64,9.46,35.32,5.52,10.57-6.94,16.15-19.68,21.7-30.66,4.3-10.9,10.08-21.38,22.19-22.37,17.3-11.51,16-44.44,18.75-63.54.83-10.18,1.64-20.53-.52-30.51-1-4.69-2.69-9.6-1.18-14.16,2.2-5.1,10-13.91,2.16-17.56" fill="#f9f9f9"/><path d="M54.67,287.28c-2-5.75.5-13.61,1.58-19.37l-8.35-3.64s2.23,8.21,1.65,11c-.24,1.14-3.88,2.16-4.19,3.49-.37,1.59,4.45,5,4.11,5.77-.68,1.5-6.56,1.05-7.7,2.95-.2,4.84-3.05,64.69-3,73.44,1.3,1.69,3.87,1.06,5.61.52,11.58-4,9.7-14.89,9.63-24.22,1.93-11.47,1.73-14.05-2.69-24.55C55.23,300,63.39,304.17,54.67,287.28Z" fill="#aaa"/><path d="M56.13,286.88c-2-6,.45-12.63,1.58-18.56a1.56,1.56,0,0,0-.7-1.72L48.66,263a1.54,1.54,0,0,0-2.22,1.72,45.51,45.51,0,0,1,1.65,8.49,9.86,9.86,0,0,1,0,1.72c.07-.48.27-.19,0-.07a3.32,3.32,0,0,0-.41.28c-.46.3-.95.55-1.43.84-1.47.89-2.87,2.13-2.21,4,.56,1.6,2.07,2.85,3.22,4a7,7,0,0,0,.74.8c-.13-.09.07.14.09.14.43.19-.21-1.3.26-1.26a5.26,5.26,0,0,0-.7.3c-.43.12-.88.21-1.32.29-1.71.33-3.72.5-5.11,1.66a2.82,2.82,0,0,0-1,2.34c-.48,11-1,22-1.5,33-.54,12.43-1.19,24.87-1.45,37.31,0,.69-.05,1.39,0,2.09.06,2.12,2.5,3,4.32,2.92a15.09,15.09,0,0,0,11.2-6.37c2.2-3.19,2.77-7.2,2.89-11,.06-2,0-4-.07-6a27.67,27.67,0,0,1,0-3c.12-1.44.47-2.88.66-4.32a30.78,30.78,0,0,0-.38-12.28,56.08,56.08,0,0,0-2.37-6.66c-.13-.32-.32-.66-.42-1-.16-.6-.17.36-.05-.47a7.51,7.51,0,0,1,.55-1.5,20.64,20.64,0,0,1,1.16-2.36c1.3-2.3,3.27-4.13,4.46-6.48,1.36-2.7,1-5.64,0-8.42A54.11,54.11,0,0,0,56,286.51c-.89-1.73-3.51-.2-2.62,1.53,1.46,2.85,3.09,5.91,3.58,9.12a5.46,5.46,0,0,1-.8,4.11c-1,1.55-2.17,2.82-3.2,4.37a23.13,23.13,0,0,0-1.72,3.07c-.58,1.25-1.72,3.23-1.29,4.6.57,1.75,1.43,3.43,2,5.17a34.36,34.36,0,0,1,1.25,4.32,25.94,25.94,0,0,1,.17,8.25c-.21,1.86-.53,3.71-.82,5.56a24.94,24.94,0,0,0,0,4.49,47.88,47.88,0,0,1-.21,8.38,12.87,12.87,0,0,1-3.54,7.69,12.71,12.71,0,0,1-4.32,2.63c-1.34.51-3.55,1.35-4.67.07l.45,1.07c0-5.61.29-11.24.51-16.85.35-8.95.75-17.9,1.14-26.85Q42.46,305.62,43,294c.09-2,.26-4,.27-6a2,2,0,0,0,0-.35s0-.11,0-.14l-.22.75q.06-.17.15-.12a6.58,6.58,0,0,0,1.15-.44c.6-.16,1.22-.28,1.84-.39,1.59-.3,4.77-.64,4.81-2.86A3.93,3.93,0,0,0,49.55,282a24.25,24.25,0,0,1-2.34-2.52c-.08-.11-.23-.47-.34-.54-.34-.21.43.16,0,.28.34-.08.87-.62,1.19-.81a6.78,6.78,0,0,0,2.8-2.21,6.22,6.22,0,0,0,.3-3.29c-.12-1.35-.34-2.69-.59-4-.33-1.69-.71-3.36-1.16-5l-2.23,1.71,8.35,3.64-.7-1.71C53.55,274,51,281.13,53.21,287.68,53.82,289.52,56.75,288.73,56.13,286.88Z" fill="#aaa"/><path d="M112.05,348.69c2.09-14.64,4.85-22.44-6.33-34.13-1-6.53,8-8.5,10.84-13.37,9.89-14.25,4.59-36.85,2.94-53.1-21.86,14.59-11,31.57-23.22,46.84-1,3.22,1.64,6.49,3.55,9.62C108.44,314.6,102.56,345.1,112.05,348.69Z" fill="#aaa"/><path d="M113.52,349.09c.88-6.18,2.44-12.58,1.83-18.85-.64-6.6-4.08-12-8.56-16.75l.44,1.07c-.52-4,3.35-6.07,6.1-8.11a17.58,17.58,0,0,0,4.27-4.07,33.49,33.49,0,0,0,3.39-6.33c3.92-9.73,3.22-20.83,2.1-31-.62-5.65-1.49-11.27-2.07-16.93-.11-1-1.24-2-2.28-1.31a38.2,38.2,0,0,0-10.87,10.55,34.45,34.45,0,0,0-4.47,10.8c-1.76,7.34-2,15.13-5.65,21.88a28.06,28.06,0,0,1-1.55,2.5,6.66,6.66,0,0,0-1.6,3.16c-.28,2.57,1,5,2.31,7.09,1,1.61,2.2,3.11,3.11,4.76a19.85,19.85,0,0,1,1.65,4.19c2,7,2.07,14.33,2.8,21.48a47.09,47.09,0,0,0,2,10.68c1,2.72,2.46,5.19,5.23,6.28,1.82.72,2.6-2.21.81-2.92a4.87,4.87,0,0,1-1.75-1.46,10.7,10.7,0,0,1-1.46-3,41.92,41.92,0,0,1-1.67-8.88c-.75-7-.9-14.1-2.46-21a23.25,23.25,0,0,0-3.34-8.31,37.24,37.24,0,0,1-3.5-5.6,5.14,5.14,0,0,1-.63-3.31,19.13,19.13,0,0,1,1.72-2.49c4.06-6.32,4.9-13.63,6.24-20.83a38.5,38.5,0,0,1,3.72-11.57,33.27,33.27,0,0,1,10.94-11.41L118,248.09c.79,7.77,2.11,15.47,2.64,23.26s.47,15.87-2.31,23.24a20,20,0,0,1-5.17,8.18c-2.21,1.9-4.89,3.28-6.83,5.49a8.35,8.35,0,0,0-2,3.74,7.27,7.27,0,0,0-.15,2.13c.1,1.25.85,1.85,1.65,2.75a26.35,26.35,0,0,1,5.58,9c2.4,7.21.25,15.14-.79,22.4a1.56,1.56,0,0,0,1.06,1.86A1.53,1.53,0,0,0,113.52,349.09Z" fill="#aaa"/><path d="M154.31,123.66l-19,4c-.57,8.58,5.67,16.4,5.09,25.36.33,8.46-1.86,57.39-17.14,46.69-.82,21.16,11.93,41.19,9.41,62-2.37,10.33,7.23,10.87,9.7,1.18,3.8-15.22,1.4-31.31,3.56-46.85C150.28,186.13,173.37,152.39,154.31,123.66Z" fill="#aaa"/><path d="M153.79,121.76l-19,3.95a2,2,0,0,0-1.45,1.91c-.26,4.8,1.36,9.34,2.88,13.82a48.63,48.63,0,0,1,1.94,6.89,30.51,30.51,0,0,1,.29,5.14c0,4-.12,7.93-.4,11.88a141.37,141.37,0,0,1-2,16.47c-.92,4.86-2.08,10-4.44,14-.28.46-.57.91-.89,1.35-.18.25.3-.36,0,0l-.23.28c-.16.18-.32.36-.49.52s-.34.31-.51.47.28-.14-.23.16l-.54.32c-.49.29.14,0-.2.09l-.59.17c-.55.16.17,0-.2,0-.2,0-.42,0-.62,0-.38,0,.33.12-.25,0l-.67-.18-.34-.13c.24.09.19.1,0,0a11,11,0,0,1-1.52-.89c-1.29-.89-2.92.32-3,1.71-.58,16.7,6.86,32.09,9.16,48.37a53.69,53.69,0,0,1,.42,12c-.25,3-1.15,6,.42,8.89a5.45,5.45,0,0,0,5.72,2.76,8.62,8.62,0,0,0,5.64-4.31c2-3.32,2.5-7.56,3-11.33a124.6,124.6,0,0,0,1-13.64c.25-9-.09-18.05,1.33-26.94,2.4-15,8.5-29.12,12.34-43.76,3.8-14.48,5.37-30-1.4-43.87a46.64,46.64,0,0,0-3-5.13c-1.38-2.11-4.8-.14-3.4,2a42.91,42.91,0,0,1,6.94,19.68,68.7,68.7,0,0,1-1.7,20.9c-3.12,14.31-8.87,27.89-12.23,42.14A113.34,113.34,0,0,0,143,231c-.19,8.66,0,17.42-1.39,26-.49,3-.87,6.74-2.92,9.2a7,7,0,0,1-.88.87,5.16,5.16,0,0,1-.63.4.9.9,0,0,1-.43.18,5.29,5.29,0,0,1-.54.13c.38-.06-.13,0-.26,0s.22.07-.15,0l-.32-.1c-.28-.1.28.12,0,0s0,.07-.23-.14a3.41,3.41,0,0,1-.37-.39c.19.24-.13-.25-.16-.33s0-.05,0,0a4.68,4.68,0,0,1-.17-.53,7.61,7.61,0,0,1,0-3.36,44.63,44.63,0,0,0,.33-11.66c-1.35-15.56-8.33-30.05-9.42-45.64a55.84,55.84,0,0,1-.1-5.93l-3,1.7c3.61,2.5,7.93,2.3,10.9-1.07,3.24-3.69,4.71-8.84,5.82-13.52a139.21,139.21,0,0,0,3.41-31.92,39.18,39.18,0,0,0-1.4-11.44c-1.55-5.18-4-10.27-3.72-15.8l-1.45,1.9,19-4C157.32,125,156.27,121.24,153.79,121.76Z" fill="#aaa"/><path d="M245.37,108.09c0,5.45,1.25,11.08.41,16.45-10.55,11.88-29.21,12.47-41.95,21.61-3.28,1.64-1.76,5.14,1.33,6.24,7.09,3.07,15,.8,22.75.35,33.69-2,14.89,35.14,12.69,37.25s-4.14,5-3.66,8c6.51,3.69,26.86-25.44,36.52-28.5,4.51-2.69,11.47-3.61,14.81,1.24,1.54,2.3,2,5.78,4.57,6.65,2.27.76,4.67-1.23,5.43-3.5,1.42-4.29-1.25-10.38,2.87-13.59,3.41-2.49,9.53,0,11.68-3.64,2.08-10-11.37-14.95-17.64-20.75-18.52-13.55-12.06-37.55-21.52-33.65-8.77,2.66-19.14,6.24-28.29,5.85" fill="#aaa"/><path d="M243.85,108.09c0,2.61.28,5.19.48,7.78.1,1.26.19,2.52.21,3.78a13.87,13.87,0,0,1-.15,4l0,.06c.11.11,0,.22-.2.32a4.74,4.74,0,0,1-.49.51c-.33.34-.67.66-1,1a25.6,25.6,0,0,1-2.12,1.78,37.66,37.66,0,0,1-4.88,3.11c-6.94,3.76-14.66,5.77-21.93,8.78a59.55,59.55,0,0,0-10.43,5.47c-1.47,1-2.84,2-2.88,4a5.3,5.3,0,0,0,2.32,4.23,14.72,14.72,0,0,0,6.14,2.26,30.79,30.79,0,0,0,6.92.35c4.68-.25,9.31-1.18,14-1.24s10.06.64,13.38,4.22c2.47,2.65,3.14,6.4,3,10A38.76,38.76,0,0,1,243.84,180a42.24,42.24,0,0,1-3.7,8c-.19.32-.39.63-.61.93.35-.48.11-.12,0,0a14.18,14.18,0,0,0-2.23,2.59,9.47,9.47,0,0,0-1.93,6.07c.11,1.49,1.1,2.08,2.46,2.21a8.22,8.22,0,0,0,4.82-1.49,37.87,37.87,0,0,0,5.61-4.34c4.49-4,8.58-8.46,12.84-12.72,3.49-3.5,7.17-7.53,11.63-9.82.91-.46,2-1,3.18-1.5a13.64,13.64,0,0,1,4.91-1.13,7.69,7.69,0,0,1,4.74,1.28c1.47,1.05,2.11,2.67,2.82,4.26a8.31,8.31,0,0,0,2.9,4,5.13,5.13,0,0,0,5.61-.23c3.42-2.35,3.4-6.37,3.33-10.08a11.2,11.2,0,0,1,.61-5,4.48,4.48,0,0,1,3.75-2.38c3.17-.46,7.05.16,9.23-2.75.91-1.22.84-3.15.65-4.6a11.66,11.66,0,0,0-1.49-4.35,23.84,23.84,0,0,0-6.62-6.77c-5.49-4.13-11.57-7.53-16-12.9-4-4.88-6.2-10.86-7.79-16.9-.6-2.28-1.1-4.59-1.86-6.82a8.53,8.53,0,0,0-2.75-4.47c-1.54-1.08-3.21-.79-4.89-.23-4.53,1.5-9.16,2.88-13.8,4a51.63,51.63,0,0,1-13.88,1.73c-2-.07-2,3,0,3a55.48,55.48,0,0,0,15.57-2.06c4.68-1.18,9.21-2.84,13.86-4.11l.55-.12c-.36.05.2,0,.28,0a1,1,0,0,1,.46.14c.12.07.39.29.14.08a3.32,3.32,0,0,1,.38.37c.21.24,0-.1.17.25.13.2.24.39.35.6a30.94,30.94,0,0,1,1.93,6.19c1.66,6.54,3.67,13,7.69,18.57,4.58,6.28,11.16,10.2,17.33,14.69,2.64,1.92,5.5,4.21,6.81,7.29.49,1.16,1,3.2.53,4.42s-2.91,1.37-4.12,1.45c-3.9.25-7.81.73-9.43,4.86a15.06,15.06,0,0,0-.68,5.74c0,1.83.26,3.89-.45,5.63s-2.83,3.35-4.38,1.65c-1.19-1.32-1.59-3.27-2.45-4.79-2-3.56-6.11-5.06-10.06-4.66a17.57,17.57,0,0,0-5.76,1.62c-1.09.5-2.21,1-3.27,1.57a35.56,35.56,0,0,0-6.27,4.73c-4.93,4.39-9.39,9.29-14.07,13.93a87.63,87.63,0,0,1-6.67,6.11,15.47,15.47,0,0,1-5,2.93c-.27.07-.42.07-.27.06h-.51c-.23,0,.23.08-.13,0s.16.12-.22-.08l.75,1.31c-.49-3.95,3.06-6.15,4.79-9.27a51.92,51.92,0,0,0,3.4-7.62c2.25-6.21,4-13.84,1.56-20.25-3.55-9.23-14.15-10.25-22.74-9.42-4.14.4-8.28,1.13-12.46,1a20.3,20.3,0,0,1-6-1c-1.22-.4-3.06-1-3.44-2.4-.34-1.26,1.49-2,2.34-2.51a42.82,42.82,0,0,1,4.31-2.47,85.79,85.79,0,0,1,9.12-3.84c6.31-2.32,12.81-4.35,18.69-7.68a35.43,35.43,0,0,0,7.85-5.92,4,4,0,0,0,1.43-2.17,21.23,21.23,0,0,0,.27-3.19,63.25,63.25,0,0,0-.31-6.6c-.19-2.2-.37-4.39-.38-6.6a1.52,1.52,0,0,0-3,0Z" fill="#aaa"/><path d="M325.19,74.07c20.86-4,59.27,9.59,49.33,36.45-3.6,6.16-8.86,11.2-10,18.14-3.95,1.2-7.08-4.45-7.29-7.91,1.51-10-7.46-6.68-8-14.53-.81-4.31-.54-9-2.39-13-3-4.06-8.12-6.78-12.81-8.44-5.61-.36-14.27-3.54-9.41-10.16" fill="#aaa"/><path d="M325.59,75.54a47,47,0,0,1,15.88,0,58,58,0,0,1,16.66,5.14c9.3,4.59,17.88,12.91,16.29,24.16a18.36,18.36,0,0,1-1.26,5,39.07,39.07,0,0,1-4,5.93c-2.69,3.82-5.31,7.81-6.14,12.5l1.06-1.06c-2.29.6-3.95-2.06-4.7-3.85a6.44,6.44,0,0,1-.58-3.31,11.18,11.18,0,0,0-.15-3.56,7.69,7.69,0,0,0-3.08-4.5,28.91,28.91,0,0,1-3.52-2.54c-1.53-1.58-1.54-4.14-1.77-6.19-.37-3.4-.53-6.89-1.84-10.09-1.13-2.75-4.2-4.9-6.64-6.42s-5.61-3.26-8.59-3.59a14.87,14.87,0,0,1-6.88-2.31c-2.16-1.55-1.86-3.49-.44-5.5,1.13-1.6-1.5-3.11-2.62-1.53-1.47,2.07-2.23,4.66-1,7C323.48,83,325.81,84.22,328,85a19.56,19.56,0,0,0,3.61.94c.62.11,1.27.14,1.89.25a10,10,0,0,1,2.07.73,25.8,25.8,0,0,1,8.71,5.57,6.53,6.53,0,0,1,1.42,1.85,13.64,13.64,0,0,1,.82,2.87c.38,1.84.52,3.72.72,5.59.27,2.56.33,5.61,1.89,7.79,1.91,2.66,6.18,3.46,6.69,7,.21,1.5-.22,2.95.05,4.44a12.83,12.83,0,0,0,1.59,4.13c1.57,2.63,4.25,4.78,7.46,3.93a1.49,1.49,0,0,0,1.06-1.06c.77-4.38,3.2-8,5.72-11.61,1.27-1.8,2.56-3.59,3.71-5.47a15.69,15.69,0,0,0,1.7-5,22.4,22.4,0,0,0-2.74-16.41c-6.24-10.17-18.8-15.46-30.06-17.61a52.58,52.58,0,0,0-19.53-.39c-1.91.36-1.1,3.28.81,2.93Z" fill="#aaa"/><path d="M322.72,173.06c.4-6.19-5-11.06-7.26-16.84-7.57-22,9.56-10.55,16.7-1.34,20.85,28,27.62,65.56,18.06,98.21-2.11,7.41-2.61,15.55-5.8,22.55-3.33,2.91-5.85,6.11-6.87,10.56C334,295,324.84,300,316.25,304c-9.29,1.39-6.57-13.93-5.24-19.5,0-16,3.65-31.12,8.25-46.41,4.25-21.54-3.4-43.5-11.66-63.85-4.79-8.08,1.92-17.05,9.39-8.38,2,2.51,3.48,5.62,6.22,7.31" fill="#c6c6c6"/><path d="M323.93,173.06c.31-6.8-5.22-11.38-7.37-17.36a26.54,26.54,0,0,1-1.77-7.65,6.1,6.1,0,0,1,.21-2.17,1.81,1.81,0,0,1,.54-.86,1.39,1.39,0,0,1,1.07-.26,5.47,5.47,0,0,1,1.59.32,16.89,16.89,0,0,1,4.25,2.27,39.61,39.61,0,0,1,8.46,7.89,95.11,95.11,0,0,1,10.64,17.31,114.45,114.45,0,0,1,11.27,60.32A110.71,110.71,0,0,1,349,253c-1,3.62-1.64,7.33-2.39,11-.39,1.87-.8,3.74-1.31,5.59-.24.84-.49,1.68-.77,2.51a9.62,9.62,0,0,1-1.26,3c-1,1.25-2.35,2.25-3.36,3.55a18.59,18.59,0,0,0-2.37,3.88c-.68,1.51-1,3.14-1.71,4.62a20.77,20.77,0,0,1-2.56,4c-4.1,5-9.91,8.18-15.61,10.95a5,5,0,0,1-3.17.86,3.35,3.35,0,0,1-1.88-.9c-1.22-1.18-1.58-3.12-1.72-4.73a39.55,39.55,0,0,1,1.17-11.91,27.9,27.9,0,0,0,.24-4.84q.12-3,.4-6.09c.37-4.07,1-8.11,1.71-12.13,1.49-7.92,3.7-15.63,5.88-23.38a48.45,48.45,0,0,0,1.37-11.58,79.56,79.56,0,0,0-.62-11.95,124.24,124.24,0,0,0-5.5-23.31c-1.25-3.82-2.63-7.6-4.08-11.35q-1.11-2.85-2.25-5.68a26.82,26.82,0,0,1-1.84-4.67c-.44-2.15-.09-5.12,2-6.37,2.6-1.55,5.6,1.22,7.07,3.12,1.95,2.53,3.43,5.35,6.18,7.13,1.31.85,2.53-1.24,1.22-2.09-3.12-2-4.43-5.76-7.07-8.27-2-1.87-4.79-3.4-7.57-2.46a6.89,6.89,0,0,0-4.25,5.6,10.84,10.84,0,0,0,.18,4.32,36,36,0,0,0,2,5c6.34,15.76,12.26,32.4,12.12,49.61,0,4.11-.19,8.59-1.37,12.54-1.23,4.13-2.41,8.28-3.45,12.47a151.69,151.69,0,0,0-4.28,24.86c-.27,3.34,0,6.81-.69,10.08a56.57,56.57,0,0,0-1,6.48c-.31,3.77-.44,9.11,2.86,11.72a5.94,5.94,0,0,0,6.17.67,84.69,84.69,0,0,0,9-4.8c5.68-3.58,10.54-8.26,12.59-14.78,1.08-3.43,3.34-6,5.9-8.42,1.22-1.16,1.73-3.5,2.22-5.08.59-1.89,1.05-3.82,1.47-5.75.85-4,1.48-8,2.55-11.89.95-3.53,1.89-7,2.56-10.64a115.81,115.81,0,0,0-16.64-83.48,54.41,54.41,0,0,0-9.84-11.85c-2.65-2.29-5.89-4.89-9.42-5.58a4.62,4.62,0,0,0-3.86.66,5.24,5.24,0,0,0-1.65,4.07c-.22,6.11,2.93,11.73,6,16.74,1.71,2.8,3.3,5.73,3.15,9.1-.08,1.56,2.34,1.55,2.42,0Z" fill="#c6c6c6"/><path d="M229.4,207.51c3.55,17.5-8,37.72-27.64,34.61,19.56-8.34,20.61-13.09,25-33,.4-1.12,1.46-2.47,2.5-1.87" fill="#c6c6c6"/><path d="M228.23,207.83c2.39,12.06-2.63,27.29-14.9,32A22,22,0,0,1,202.08,241l.29,2.21c5.77-2.46,11.93-5.18,16.34-9.79,3.6-3.75,5.44-8.61,6.77-13.55.49-1.79.91-3.59,1.33-5.4.2-.88,1-6.45,2.12-6,1.44.59,2.07-1.76.64-2.34-2-.82-3.63,1.36-4.07,3.08-.47,1.88-.83,3.8-1.27,5.7a75.48,75.48,0,0,1-2.57,9.07,22.86,22.86,0,0,1-9.4,11.56,74,74,0,0,1-11.11,5.59,1.22,1.22,0,0,0,.29,2.22,24,24,0,0,0,19.89-5.62,30.9,30.9,0,0,0,9.49-18.29,35.4,35.4,0,0,0-.25-12.19c-.3-1.53-2.64-.88-2.34.64Z" fill="#c6c6c6"/><path d="M262.79,284.41c-6.82-1.93-17.48-10.85-23.8-5.64-4.18,2.66-14.22-.76-13.88,6.8.8,7.26,44.27,8.74,37.37-.47" fill="#c6c6c6"/><path d="M263.12,283.24c-4.46-1.3-8.41-4-12.71-5.75a18.61,18.61,0,0,0-6.56-1.54,9.45,9.45,0,0,0-2.75.36,12.58,12.58,0,0,0-2.88,1.52,10.8,10.8,0,0,1-4.55,1,28.58,28.58,0,0,0-5.22.67c-2.94.79-5.53,3.73-4.35,7,.68,1.89,2.84,2.87,4.57,3.55a36.53,36.53,0,0,0,7.91,1.92,66.46,66.46,0,0,0,19.41.23c2.39-.36,5.17-.88,7.07-2.49a3.64,3.64,0,0,0,.46-5.17c-.91-1.25-3,0-2.09,1.22.12.16.23.33.34.5s.09.17.13.25-.12-.25,0,0,.11.2.09.66c0-.34,0,.07-.07.17.15-.31-.05.07-.09.13s.08-.09-.13.15c-.06.07-.45.4-.28.28a12.11,12.11,0,0,1-5.26,1.79,60.37,60.37,0,0,1-17,.16,47.18,47.18,0,0,1-7.81-1.48,11.33,11.33,0,0,1-4.7-2.26c-.23-.24-.12-.09-.34-.51.15.28,0-.08,0-.18,0,.41,0-.08,0-.14a5.26,5.26,0,0,1,.05-.89,3.06,3.06,0,0,1,2.31-2.45c3-1,6.32-.4,9.34-1.4,1.79-.59,3-2,5-2.13a14.49,14.49,0,0,1,6.44,1.3c4.43,1.73,8.44,4.53,13,5.87a1.21,1.21,0,0,0,.65-2.33Z" fill="#c6c6c6"/><path d="M191.65,266.65c10.39,4.06,4.06,11.36,5.63,18.25,1.9,2.9,5.94,5,3.72,8.9-6.68,17.64,9.42,8.64,8.52,19.49-.56,2.56-3.84,9.11-6.9,6-3.86-3.33-10.16.4-9.11,5.38.34,1.81,1.57,3.51,1.27,5.32-6.86,11.9-1.45,15.35-4.38,21.15-2.44,1.5-4.63-1.29-6-3-6.53-6.05-17.34-7-22-15.5-4.92-6.51-1.43-13.92-1.17-21,5.29-6.57,11.23,7,22.29-6.44,17.57-15.67.69-20,7.81-38.25" fill="#c6c6c6"/><path d="M191.32,267.82c2.64,1.06,5,2.76,5.22,5.79.19,2.47-.49,4.93-.68,7.38a12.83,12.83,0,0,0,.2,4c.33,1.38,1.79,2.55,2.7,3.58s1.94,2.21,1.61,3.64a23,23,0,0,1-.93,2.38c-.25.73-.49,1.48-.68,2.23-.95,3.63-1,7.73,2.61,9.81,2.13,1.23,5.37,1.5,6.51,3.62a5.49,5.49,0,0,1-.29,4.92,9,9,0,0,1-2.25,3.28c-1.14.91-1.58.11-2.59-.57a6.91,6.91,0,0,0-10.27,7.7c.25.9.66,1.75.92,2.65a3,3,0,0,1,.21,1.39,7.66,7.66,0,0,1-.78,1.43,30.28,30.28,0,0,0-2.06,5,21,21,0,0,0-.82,7.61,16.85,16.85,0,0,1-.08,5.58c-.08.29-.22.95-.42,1.1-.53.38-1.56-.28-2-.62-1.26-1-2.09-2.37-3.33-3.36-4.95-4-11.3-5.55-16.34-9.36a16.77,16.77,0,0,1-3.36-3.37,18.92,18.92,0,0,1-2.82-5c-1.18-3.67-.44-7.57.16-11.28a49.05,49.05,0,0,0,.66-5.66l-.35.86a3.55,3.55,0,0,1,3.48-1.51c1.58.22,3.08.89,4.62,1.25,5,1.18,9.34-.95,12.81-4.61,3.78-4,8.44-7.85,9.7-13.48.84-3.73-.17-7.36-1-11a29.88,29.88,0,0,1-1-6.85,24.64,24.64,0,0,1,1.82-9.05c.55-1.46-1.79-2.09-2.34-.65a26.18,26.18,0,0,0-1.68,12.8c.42,3.26,1.55,6.37,2,9.62a13,13,0,0,1-2.36,9.38c-1.64,2.4-3.85,4.17-5.76,6.3-1.72,1.91-3.53,3.83-5.94,4.84-3.07,1.29-5.89.22-8.9-.61a8.11,8.11,0,0,0-4-.28c-1.24.31-3,1.36-3.45,2.65a8.51,8.51,0,0,0-.15,1.9c-.07.75-.18,1.5-.29,2.25-.23,1.52-.5,3-.71,4.56a22.74,22.74,0,0,0,.06,8.06,19.27,19.27,0,0,0,3.86,7.37,20.88,20.88,0,0,0,5.08,4.52c4,2.59,8.5,4.14,12.51,6.66a18.54,18.54,0,0,1,2.74,2c.92.86,1.61,1.93,2.58,2.74,1.46,1.22,4.6,2.35,5.81.15,1.5-2.73.88-5.86.77-8.8a18.16,18.16,0,0,1,.69-5.77,23.46,23.46,0,0,1,1.33-3.53c.64-1.36,1.74-2.66,1.69-4.22-.08-2.46-2.17-4.7-1.11-7.18a4.77,4.77,0,0,1,4.57-2.8c2,.13,3.07,2.27,5.17,2.07,1.9-.19,3.28-1.91,4.21-3.42,1.64-2.64,2.73-6,1.06-8.93-1.11-1.94-3.22-2.75-5.2-3.49-1.72-.65-3.45-1.31-4-3.15a9,9,0,0,1,.22-4.43,21.93,21.93,0,0,1,1.05-3.37,6.65,6.65,0,0,0,.78-3.45c-.26-2.17-1.92-3.74-3.3-5.28a3.79,3.79,0,0,1-1.27-2.75,18.29,18.29,0,0,1,.13-3c.4-3.56,1.45-7.5-.82-10.68a12.07,12.07,0,0,0-5.58-3.88c-1.45-.58-2.08,1.76-.65,2.33Z" fill="#c6c6c6"/><path d="M283.26,306.43c-1.42-.95-2.23-2.57-3.4-3.83-4.74-4.48-7.51,1.31-3.81,5.49a61.32,61.32,0,0,1,10.78,37c.84,10.54-22.81,9.73-30.42,13-10.05,3.18-23.69-29.22-41.58-17.52-11.55,12.15,1.79,30.53,8.32,42.23,2.31,16.81-4.83,35.79,2.48,51.79,25.78-2.27,71.18.68,72.44-2.12,3.93-8.5,4.37-18.22,6.42-27.2,6.8-22,25.4-40.87,30.78-62.93-.44-5.74-5.85-9.74-8.16-15-2.84-6.5-1.33-15.45-7.15-19.52-5.12,8.72-9.89,28.16-23.52,22.31-5.69-6.86-8-16.27-12.35-24.08" fill="#c6c6c6"/><path d="M283.87,305.39c-2.1-1.53-2.92-4.14-5.45-5.23a3.62,3.62,0,0,0-4.31.81c-3.12,3.68,1.41,8.3,3.2,11.32a60.31,60.31,0,0,1,8.34,32,7.05,7.05,0,0,1-.66,3.77,7.28,7.28,0,0,1-2.54,2.33,28.64,28.64,0,0,1-8.9,3c-3.39.72-6.83,1.2-10.25,1.79-1.48.26-3,.53-4.41.89-1.11.27-2.18.79-3.28,1-1.69.34-3.67-.77-5.2-1.83a52.67,52.67,0,0,1-6.33-5.53c-4.53-4.35-9.17-9.13-15.08-11.58a15,15,0,0,0-13.35.56,11.12,11.12,0,0,0-4.35,4.61c-4.49,7.93-1.36,17.37,2.31,24.95,2,4.11,4.34,8,6.64,12,.48.81.95,1.62,1.41,2.44a8.16,8.16,0,0,1,.62,3.48,76.82,76.82,0,0,1,.05,8.45c-.47,11-2.57,22.22-.23,33.16a38.25,38.25,0,0,0,2.48,7.49,1.19,1.19,0,0,0,1,.6c13.65-1.2,27.43-1,41.13-.9,6.2,0,12.4.12,18.59.05a63.29,63.29,0,0,0,11.43-.65,3,3,0,0,0,2.52-1.63,56.65,56.65,0,0,0,3.81-13.09c.85-4.51,1.4-9.1,2.45-13.57a57.81,57.81,0,0,1,4.5-11.46c7.26-15.05,17.88-28.36,23.89-44,.73-1.89,1.38-3.82,1.93-5.77a8.33,8.33,0,0,0,.56-2.76,10,10,0,0,0-.6-2.71c-1.26-3.55-3.86-6.33-5.91-9.41a24.69,24.69,0,0,1-3.49-10c-.55-3.24-1-6.64-2.65-9.55a11.3,11.3,0,0,0-3.21-3.53,1.22,1.22,0,0,0-1.66.43c-3.44,5.92-5.36,12.75-9.69,18.15-1.84,2.29-4.28,4.38-7.33,4.61-1.44.11-3.81-.07-4.86-1a14.29,14.29,0,0,1-2.15-3.06c-.75-1.22-1.44-2.48-2.08-3.75-2.76-5.48-4.72-11.33-7.67-16.71-.75-1.37-2.84-.15-2.09,1.22,2.82,5.14,4.73,10.71,7.3,16a42.82,42.82,0,0,0,4.53,7.48,4.72,4.72,0,0,0,2.63,1.71,13.32,13.32,0,0,0,2.93.57c7.65.6,12.23-7,15.18-12.91,1.83-3.66,3.33-7.51,5.39-11.05l-1.66.44c2.67,1.93,3.57,5.21,4.17,8.28.64,3.31.94,6.74,2.18,9.9,1.33,3.41,3.74,6.13,5.77,9.13a15.53,15.53,0,0,1,2.34,4.76c.48,1.87-.42,3.84-1,5.62-5.06,15.47-15.3,28.56-22.82,42.82a105,105,0,0,0-5,10.71,38.22,38.22,0,0,0-1.9,5.74c-.47,2.16-.85,4.35-1.22,6.53a127.53,127.53,0,0,1-2.61,13.13c-.27,1-.57,2-.91,3A28.59,28.59,0,0,0,297,431.9c.05.06.18-.33.17-.17s-.45.13,0,0l-.27.1c-2.88.75-6.35.67-9.51.72-5.68.11-11.36.05-17,0-13.45-.09-26.93-.3-40.36.54l-4.41.33,1,.6c-4.52-10.07-3.25-21.44-2.4-32.11a104.11,104.11,0,0,0,.4-16.18,11.57,11.57,0,0,0-.55-3.63,27.72,27.72,0,0,0-1.45-2.54c-1.08-1.84-2.18-3.68-3.24-5.54a80.16,80.16,0,0,1-6-12.28c-1.41-3.91-2.43-8.22-1.72-12.38a14.85,14.85,0,0,1,2.2-5.67,8.64,8.64,0,0,1,4.33-3.53,12.48,12.48,0,0,1,8.31-.32c5.81,1.74,10.43,6.42,14.68,10.51,2.08,2,4.12,4,6.38,5.82a14.48,14.48,0,0,0,6,3.24c2.28.45,4.19-.6,6.36-1.11,3.07-.72,6.21-1.14,9.31-1.66a68.58,68.58,0,0,0,9.84-2.19c2.57-.83,5.35-2,7.16-4.07,2.22-2.57,1.9-5.89,1.82-9.09a62.69,62.69,0,0,0-8.89-30.59,38.4,38.4,0,0,0-2.18-3.35,6.15,6.15,0,0,1-1.4-2.76c-.22-1.32.29-2.88,1.87-2.22,2.25.94,3.24,3.7,5.18,5.11,1.26.92,2.47-1.18,1.22-2.09Z" fill="#c6c6c6"/><path d="M456.76,390.31c.88-17.55,2.72-35,3.17-52.6-3.58-8.43-7.57-17.6-14-24.29-14-7.54-3.15-13.88-6.3-24.24-2.93-5.87-10.91,7.21-11.51-3.94.73-3.44-.14-6.25-2.92-8.37-3.1-4-.42-16.78-8.86-13.46l-2.17-.49c-.12-19.4-17.1-6.86-7.55,8.07,3.1,3,4.81-.53,6.84-2.43,8.7-2.45.65,16.89,10.41,27.19,1.66,2.23,3.7,4.34,4.3,7.06-.77,10.53-2.27,17.53,9.51,22.81,2.41.8,4.27,2.49,4.44,5.14.21,4,3,8.86,1.09,12.57-1.11,1.19-3.22,1-4.23,2.28C437.6,356,447.59,365.15,450.4,375c2.65,7.46,3.18,16,6.05,23.15C456.52,395.55,456.63,392.93,456.76,390.31Z" fill="#aaa"/><path d="M458.28,390.31c.84-16.55,2.51-33.05,3.07-49.61a17.59,17.59,0,0,0,.09-3,9.08,9.08,0,0,0-.84-2.26q-1.05-2.46-2.16-4.91a91.61,91.61,0,0,0-4.78-9.3,50.57,50.57,0,0,0-5.8-8c-1.93-2.15-4.91-3-6.63-5.43-2.22-3.18-.53-7.05.11-10.47s1.37-10.18-3.06-11.18c-1.59-.36-3.16.34-4.56,1-.64.3-1.27.65-1.93.92.06,0-.41.14-.55.18a3,3,0,0,1-.43.11c-.26.05.13,0-.28,0,.29,0,0,0-.1,0,.29.05,0,0-.1-.08.17.14-.09-.16-.21-.42a6.51,6.51,0,0,1-.32-3.39,9.14,9.14,0,0,0-2.64-8,4.21,4.21,0,0,1-1.08-1.15,6.67,6.67,0,0,1-.41-1.06,26,26,0,0,1-.64-3,30.09,30.09,0,0,0-1.31-6.11,5.41,5.41,0,0,0-4-3.76c-.37-.07-3.56,0-3.49.41,0,0,.84.18.28,0l-.83-.18-1.08-.25,1.11,1.46c-.05-3.94-.92-11.63-6.46-11.43-4.46.17-6.65,5.39-7,9.15a17.14,17.14,0,0,0,1.66,8.54c.77,1.69,1.66,3.35,3.44,4.13a4.17,4.17,0,0,0,4.5-.87,15,15,0,0,0,1.66-1.72,10.55,10.55,0,0,0,.72-.78c.26-.34-.36.06-.06,0,0,0,.41-.06.23-.06.55,0,.54-.12.94.06-.26-.12.09.05.16.11a.74.74,0,0,1,.22.25c-.14-.23.11.2.15.29a2.23,2.23,0,0,1,.15.36,10,10,0,0,1,.34,1.41,28.19,28.19,0,0,1,.32,3.44c.35,6.29.54,13,4.1,18.45,1,1.58,2.35,3,3.5,4.46a17.56,17.56,0,0,1,1.77,2.66,4.58,4.58,0,0,1,.51,2.74,57,57,0,0,0-.33,9.24,14.58,14.58,0,0,0,2.67,7.65,19.82,19.82,0,0,0,8.38,6.07c1.58.64,3,1.58,3.3,3.38.34,2,.66,4,1.16,6a21.09,21.09,0,0,1,.6,3,5,5,0,0,1-.29,2.82c-.41.61-1.51.73-2.17,1a4.22,4.22,0,0,0-2.2,1.59,6.62,6.62,0,0,0-.34,2.91,19.74,19.74,0,0,0,.26,2.86,23.75,23.75,0,0,0,1.63,5.47A98.57,98.57,0,0,0,445,366.76,51.7,51.7,0,0,1,449.75,378c1.34,4.59,2.07,9.32,3.19,13.95a50,50,0,0,0,2,6.68,1.52,1.52,0,0,0,3-.4q.12-3.94.32-7.87c.09-2-2.94-1.95-3,0q-.19,3.93-.31,7.87l3-.41a71.28,71.28,0,0,1-3.15-11.69,118.3,118.3,0,0,0-2.94-11.62c-2.09-6.56-6.3-12-9.2-18.2a19.43,19.43,0,0,1-2.09-10.65l-.45,1.07c.85-.93,2.38-1,3.43-1.63a4.75,4.75,0,0,0,1.86-3.78c.34-3.1-.94-6.1-1.52-9.09A15.37,15.37,0,0,0,443,328a7.3,7.3,0,0,0-2.67-2.87c-1.21-.78-2.64-1.2-3.9-1.88a19.23,19.23,0,0,1-3.21-2.13c-3.27-2.82-4.07-6.58-4-10.74.05-2.43.42-4.85.48-7.28.07-3-2.7-5.94-4.48-8.16a19.76,19.76,0,0,1-3.75-6.36,31.63,31.63,0,0,1-1.37-7c-.2-2.18-.26-4.37-.4-6.55a18.8,18.8,0,0,0-.78-5.06,4.48,4.48,0,0,0-2.87-3,5.17,5.17,0,0,0-2.38,0c-1.23.23-1.88,1.19-2.68,2.08-.49.55-1.3,1.7-2.17,1.59-1.19-.16-1.84-2.05-2.26-3a14.44,14.44,0,0,1-1.3-6.07,9.83,9.83,0,0,1,1.39-5,5.54,5.54,0,0,1,1.29-1.46,2.9,2.9,0,0,1,1.34-.58c-.39.06.6,0,.43,0l.43.16a2.87,2.87,0,0,1,1.21,1.27c1.19,2,1.32,4.66,1.35,7a1.54,1.54,0,0,0,1.11,1.47c.68.15,1.36.33,2.05.46,1,.19,1.88-.44,2.9-.47,1.18,0,1.74.76,2.18,2,1.24,3.4.83,7.28,2.53,10.53.54,1,1.54,1.6,2.24,2.51a5.82,5.82,0,0,1,1.18,3.62c0,.75-.21,1.46-.24,2.2a10.47,10.47,0,0,0,.21,2,6.62,6.62,0,0,0,1,2.73c2.11,3,5.59.55,8-.48a6.5,6.5,0,0,1,.75-.27,4.58,4.58,0,0,1,.66-.13c.37,0,.56,0,.84.48.92,1.57.68,4.27.44,6-.54,3.72-2.29,7.56-1.14,11.35a11,11,0,0,0,3.8,5.25c1.23,1,2.74,1.62,3.92,2.63a23.32,23.32,0,0,1,3.38,4.15c3.88,5.44,6.65,11.56,9.27,17.67a11.09,11.09,0,0,1,.48,1.12,4.48,4.48,0,0,1,.07,1.47l-.12,3.48c-.09,2.32-.21,4.64-.33,6.95-.24,4.47-.54,8.93-.86,13.39-.64,9.1-1.35,18.18-1.82,27.29C455.15,392.26,458.18,392.25,458.28,390.31Z" fill="#aaa"/><path d="M197.91,72.16c-2.57,11.1-13.53,5.19-14.52,19.32.37,2.34,3.19,4.84,1.55,7.22-1.31,1.71-4,.7-6.12,1s-3.95,2-6.11,2c-.93,0-2-.33-2.67.35-.64,4.71-2.67,4-5.15,7.27-1.78,3.6,4.77,9.32-.45,11.56-5.51.14-5.07-11.15-9.38-12.32-3.28,5.51-2.6,13.36-6.72,18.4-5.46-1.58-2.83-13.77-.65-17.74-6.92-1.89-6.29,9.77-12.24,11.44-1.68.91-3.75,1.59-4.52,3.35-.31,7.31.56,15.1-3.25,21.9,2.23,1.21,3.89-1.46,4.61-3.27,2.82-5.46,8.86-11.14,15.25-10.94,2.51,3.24-2.31,12.82,1,15.22,2.92-1.35,2.85-5.81,3.2-8.7-.13-4.93,2-12.7,8.27-11.41,1.62.55,4,2.31,5.37.44,1.16-7.89,11.43-4.54,16.51-8,1.91-2.91-1.08-6.81.23-9.86,1.49-4.07,7.48-4.16,10.3-7.45,2.47-2.87,2.08-7.72,5.14-10,12.22-3.87,4.59-11.94.39-19.79" fill="#797a7a"/><path d="M196.7,71.83a9.32,9.32,0,0,1-4,6c-1.82,1.18-3.89,1.94-5.64,3.24a11.46,11.46,0,0,0-4.26,6.35c-.47,1.72-.93,3.77-.28,5.48.49,1.27,2.44,3.66,1.46,5s-3.83.38-5.13.52c-2,.24-3.71,1.77-5.73,2a14.08,14.08,0,0,0-2.83,0c-1.09.33-1.36,1-1.57,2a5.32,5.32,0,0,1-2.14,3.38c-1.17,1-2.65,2.07-3.06,3.59a6.89,6.89,0,0,0,.35,4,27.56,27.56,0,0,1,1.36,4,2.34,2.34,0,0,1-.08,1.31,1.56,1.56,0,0,1-.46.53,1.53,1.53,0,0,1-.44.27c-.26.11.17.06-.2,0-2.34-.25-3.29-4.14-4-5.91-.91-2.42-1.93-5.52-4.68-6.36a1.27,1.27,0,0,0-1.41.58,31.73,31.73,0,0,0-3,9.12c-.71,3.13-1.44,6.45-3.47,9l1.22-.32c-2.66-.84-2.43-5-2.25-7.18a23,23,0,0,1,2.35-8.72A1.27,1.27,0,0,0,148,108c-5.63-1.42-7.34,4.32-9.53,8.16a8.41,8.41,0,0,1-2.07,2.62,31.59,31.59,0,0,1-3.77,1.89c-1.46.81-2.9,2-3,3.74-.12,2.1-.07,4.21-.1,6.3-.09,5-.51,10.07-3,14.56a1.26,1.26,0,0,0,.45,1.71,3.9,3.9,0,0,0,5-1.41,15.34,15.34,0,0,0,1.48-2.62,19.56,19.56,0,0,1,1.93-3c2.86-3.74,7.16-7.08,12.07-7l-1.08-.62a5.06,5.06,0,0,1,.54,3.36c-.11,1.55-.41,3.07-.63,4.6-.34,2.36-.92,5.8,1.24,7.52a1.34,1.34,0,0,0,1.52.2c3.46-1.77,3.81-6.86,3.82-10.29,0-3.05.74-7.33,3.5-9.15,1.67-1.1,3.23-.52,4.9.18s4.44,1,5.22-1.32c.54-1.59.85-2.76,2.44-3.61a13.38,13.38,0,0,1,4.49-1.18c1.68-.24,3.37-.39,5-.75,1.39-.3,3.5-.8,4.4-2,2.72-3.63-2.18-8.71,1.66-11.85,3-2.46,7.21-2.74,9.45-6.25,1.13-1.77,1.55-3.88,2.27-5.83a6.23,6.23,0,0,1,1.49-2.56c.79-.7,2.09-.91,3.06-1.4,3.62-1.84,5.28-5.16,4.12-9.1-1.21-4.1-4-7.61-6-11.33-.77-1.42-2.93-.15-2.17,1.27,1.76,3.25,4.08,6.29,5.41,9.75a6.69,6.69,0,0,1,.53,4,5.67,5.67,0,0,1-3.32,3.29,13.67,13.67,0,0,0-3.06,1.39,7.68,7.68,0,0,0-1.8,2.36c-.92,1.83-1.26,3.86-2.09,5.72-1.69,3.8-6,4.19-9.09,6.43a6.76,6.76,0,0,0-2.84,4.51c-.3,2.2.67,4.26.69,6.43,0,1-.08,1.51-.85,1.9a9.65,9.65,0,0,1-2.16.73,47.14,47.14,0,0,1-4.88.76c-3,.42-6.39,1.09-8.18,3.86a8.11,8.11,0,0,0-.91,2.19c-.12.41,0,.56-.47.64a3,3,0,0,1-1.48-.37,11.46,11.46,0,0,0-2.62-1,6.86,6.86,0,0,0-2.85.16c-3.85,1.09-5.59,5.42-6.14,9-.3,1.88-.28,3.79-.48,5.69s-.42,4.47-2.36,5.46l1.52.2c-1.48-1.18-.75-4.08-.51-5.66.36-2.39,1-4.92.53-7.34-.17-1-.61-2.35-1.7-2.57a9.9,9.9,0,0,0-4.83.75,20.39,20.39,0,0,0-8.3,5.9,22.38,22.38,0,0,0-3.29,4.73c-.49,1-1.45,3.69-3,3l.45,1.71a28.22,28.22,0,0,0,3.13-11.6c.15-2,.18-3.94.2-5.91,0-1,0-2,0-2.94s-.14-1.72.55-2.39a14,14,0,0,1,4-2.18,7.38,7.38,0,0,0,2.54-2,33.12,33.12,0,0,0,3.36-5.91c1-2,2.28-3.81,4.75-3.18l-.75-1.84a25.85,25.85,0,0,0-2.74,10.81c-.15,3.35.47,7.6,4.14,8.77a1.24,1.24,0,0,0,1.22-.32c4.32-5.46,3.53-12.81,6.91-18.66l-1.41.58c2,.61,2.72,4.11,3.36,5.78.85,2.24,1.86,5,4.16,6.1a3.52,3.52,0,0,0,4.07-.44,4.05,4.05,0,0,0,1.41-3.59,16,16,0,0,0-1.21-4.07c-.37-1-1.09-2.6-.51-3.64.73-1.31,2.34-2.06,3.35-3.13a6,6,0,0,0,1.15-1.69,7.9,7.9,0,0,0,.43-1.18,4.2,4.2,0,0,1,.17-.7c.36-.66-.22-.23.51-.34.46-.07,1,.1,1.47.07a6.3,6.3,0,0,0,1.43-.25,28.58,28.58,0,0,0,3-1.26c1.94-.82,3.83-.19,5.83-.49a3.79,3.79,0,0,0,3.37-3.45c.17-2-1.15-3.6-1.83-5.38-.57-1.49.17-3.78.73-5.21a8.4,8.4,0,0,1,2.1-3.11c1.82-1.7,4.28-2.47,6.34-3.82a11.87,11.87,0,0,0,5.1-7.43c.37-1.57-2-2.24-2.42-.67Z" fill="#797a7a"/><path d="M246.85,107c-.13,3.72-1.35,7.66-.87,11.3,4,1.68,4.7-7.44,5-10.11-.57,3.6.34,9.32,5,9.12,2.65-.3,4-3.43,6.5-4.46,3.35-1.39,7,1.31,10.36.59s3.54-3.69,2.24-6.16c-.29-2.2,2.29-3.72,2.81-5.88" fill="#797a7a"/><path d="M245.64,107c-.18,3.78-1.3,7.5-.87,11.3a1.31,1.31,0,0,0,.89,1.17c5.51,2.12,6.18-8.12,6.56-11.28.16-1.34-2.18-1.67-2.38-.32-.39,2.69-.26,5.84,1.32,8.18a5.24,5.24,0,0,0,7.52,1.4c1.36-1,2.36-2.45,3.82-3.27,1.86-1,4-.28,6,.16,3.06.69,7.48.71,8.39-3.11a5.69,5.69,0,0,0,0-2.43c-.13-.69-.66-1.49-.61-2.1.07-.88.94-1.75,1.43-2.42a8.34,8.34,0,0,0,1.35-2.55,1.22,1.22,0,0,0-2.34-.65c-.4,1.37-1.52,2.35-2.2,3.57a4,4,0,0,0-.23,3.79c.38,1,.55,2.39-.34,3.2-1.2,1.1-3.22.72-4.63.41-3.14-.7-6.18-1.47-8.94.68-1.74,1.36-3.9,4.7-6.41,2.83-2-1.46-2.09-4.86-1.77-7.05l-2.38-.32c-.2,1.66-.72,10-3.5,8.94l.89,1.17c-.43-3.8.69-7.52.87-11.3.08-1.56-2.34-1.55-2.42,0Z" fill="#797a7a"/><path d="M300.54,65.06c6.18-.29,36.39-2.62,36,5.81-4,6.29,7.55,2.64,10.69,3.38a9.62,9.62,0,0,1,7.82,2.49c2.26,1,5-2.11,7.15-.89,1.81,1,1.1,3.81-.13,5.48-2.45,2.69-2.76,4.9-1.07,7.84-.95,4.67-8.23,6.93-7.06,12.39,2.81,1.16,6.92-3.67,8.22,1.69,3.27,8-5.65,12.4-4.68,18.59,5.9,7.5,7.38,17.36,5.79,26.87-3.38-7.38-2.27-15.47-2.65-23.18-2.71-3.44-4.55-7.2-2-11.49,2.54-3.8,4.72-12.24-1.85-12.67-1.38.29-3.08.66-3.41-1.08-1-2.72.46-5.22,1.49-7.61-.59-9.11-11.31-12.6-19.12-13.16-14.89-4-29.14,9.92-40.95-2,2.62-6.65,3.93-7.62,5.36-12.19" fill="#797a7a"/><path d="M300.54,66.32c4.62-.23,9.23-.5,13.85-.52,5.55,0,11.47,0,16.82,1.64,1.54.47,3.41,1.21,4,2.58a4.48,4.48,0,0,1,.12.65c0-.33-.09,0-.26.34a5.32,5.32,0,0,0-.42,1.06,2.73,2.73,0,0,0,.72,2.86c1.7,1.51,4.78,1,6.82.77,1.24-.12,2.48-.28,3.73-.3.36,0,.86,0,1,.06a25.81,25.81,0,0,1,3.51.19,8.4,8.4,0,0,1,3.46,1.71,3.42,3.42,0,0,0,2.75.8,11.76,11.76,0,0,0,2.82-.91c.7-.27,2-.85,2.48,0s-.11,2-.5,2.74c-.61,1.07-1.55,1.89-2.08,3A7.11,7.11,0,0,0,360,89.8l-.13-1c-1,4.18-6.16,5.86-7.08,10.19a4.94,4.94,0,0,0,.14,3.16c.55.92,2.05.87,3,.73a19.37,19.37,0,0,0,2.58-.72c.64-.19,1.45-.53,2,0a4.36,4.36,0,0,1,.7,1.71,11,11,0,0,1,.44,1.59,7.6,7.6,0,0,1-.17,3.32,22.58,22.58,0,0,1-2.81,5.54,14.57,14.57,0,0,0-2.32,5.58,4,4,0,0,0,.68,3.19,28,28,0,0,1,2.55,4.18c3.23,6.47,3.76,14,2.61,21.06l2.29-.3C362,142.71,362,136.79,362,131c0-1.39,0-2.79,0-4.19a6,6,0,0,0-.09-1.64,8.61,8.61,0,0,0-1.24-1.82c-1.48-2.21-2.48-4.74-1.51-7.37.63-1.69,1.76-3.14,2.39-4.86a14.25,14.25,0,0,0,.94-4.83c0-3.21-2.08-6.3-5.6-6.2-.58,0-1.63.54-2.13.12-.34-.29-.37-1.68-.36-2.06a7.13,7.13,0,0,1,.47-2.08c.37-1.09,1.26-2.28,1.35-3.42a8.56,8.56,0,0,0-.55-3,14.53,14.53,0,0,0-7.45-8.11A31.29,31.29,0,0,0,337,78.36c-2.2-.23-4.31-.79-6.54-.83a35.31,35.31,0,0,0-6.73.59c-4.9.84-9.67,2.5-14.63,3a15.84,15.84,0,0,1-13.29-4.47l.32,1.22c1.64-4.13,4-8,5.36-12.19.49-1.54-1.93-2.2-2.42-.66-1.34,4.22-3.72,8.06-5.36,12.18a1.22,1.22,0,0,0,.32,1.22,17.48,17.48,0,0,0,9.92,5.13,30.91,30.91,0,0,0,10.79-.85c3.81-.83,7.57-1.92,11.44-2.4a29.41,29.41,0,0,1,6.08-.14c1.78.16,3.53.58,5.31.8,6,.75,14,3.27,15.83,9.8a3.13,3.13,0,0,1,.09,2.27,20.83,20.83,0,0,0-1.27,3.23c-.47,1.74-.56,4.45.83,5.84s2.84.4,4.38.62a2.83,2.83,0,0,1,2.36,2c.85,2.73-.54,6.12-1.94,8.42a9.47,9.47,0,0,0-1.43,6.75,15.7,15.7,0,0,0,3.41,6.54l-.36-.89c.36,8.06-.56,16.23,2.82,23.81a1.27,1.27,0,0,0,2.29-.3,41.6,41.6,0,0,0-.13-15,32.86,32.86,0,0,0-2.38-7.22,26.83,26.83,0,0,0-1.64-3c-.5-.81-1.58-2-1.67-2.65-.18-1.49.67-3.08,1.37-4.32.8-1.42,1.72-2.76,2.48-4.21a12,12,0,0,0,.53-10.66,3.61,3.61,0,0,0-4.2-2.4c-1.44.25-3.11,1.37-4.57.85l.87.88c-.69-3.74,3.83-6.26,5.73-8.87A8.12,8.12,0,0,0,362.13,90c.41-1.33-.58-2.23-.82-3.51-.5-2.63,2.14-4.26,2.93-6.55.69-2,.4-4.48-1.77-5.36s-3.93.8-6,1.09c-1,.14-1.76-.92-2.59-1.38a10.54,10.54,0,0,0-3.49-1.19c-1.13-.18-2.24-.08-3.35-.15a16.67,16.67,0,0,0-1.87,0c-2.56.15-5.62.91-8,.22-.22-.07-.19-.06-.16-.15a9.13,9.13,0,0,0,.83-2.25,4.35,4.35,0,0,0-1-2.88c-1.53-1.88-4.13-2.7-6.4-3.24a53.8,53.8,0,0,0-10-1.21c-6.61-.3-13.2.08-19.81.4-1.6.08-1.61,2.58,0,2.51Z" fill="#797a7a"/><path d="M453,272.64a4.39,4.39,0,0,0-4.19-3.18c-2,5.14,2.26,10.68,2,16.2-.11,2.13-.89,4.23-.63,6.35.61,3.84,5.78,9.68.92,12.56-3.92,1.77-.25-9.71-8.73-2.89-1.54-2.62.64-5.77,1.31-8.74,2.33-9.77-12.34-14.52-15.75-4.92,1.11,2,3.47-.1,5-.33,4.94.17,4.31,7.58,2.78,10.76-1.37,2.28-4.41,3.24-5.55,5.64-1.69,5.12,3.61,10.82,6.52,14.69.89.24,1.49-.88,2.3-1.33,4.16-1.3,3.49,5.05,4.78,7.32,1.49-.07,2.3-1.73,2.94-3.08,7.08-10.29,6.51,17.05,14.46,14.35,1.44-3.87-.13-13-1.23-17.19-1.36-2.13-4.92-2.48-5.56-4.93-.49-1.87,1.1-3.55,2.07-5.22,3.42-5.83-.49-13.15-.12-19.9,2.38-8.57-2.6-10.83-3.69-17.8" fill="#797a7a"/><path d="M454.21,272.31a5.79,5.79,0,0,0-5.4-4.11,1.29,1.29,0,0,0-1.21.92c-1.71,4.68.88,9.24,1.74,13.79.5,2.68-.34,5.09-.47,7.74a12.66,12.66,0,0,0,1.53,5.68c.68,1.54,1.72,3.46,1.49,5.2a2.6,2.6,0,0,1-1.29,1.86c-.46.3.15-.07-.23.11-.2.09,0,0,0,0-.05.2-.2-.39.05,0-.12-.2.07.16.16.11-.07,0-.25-.4-.26-.44a10.33,10.33,0,0,1-.33-1.12,8.15,8.15,0,0,0-.93-2.43c-2-3-5.62-.4-7.58,1.15l2,.26c-1-2,.35-4.39,1-6.28a11.17,11.17,0,0,0,.68-4.82,9.24,9.24,0,0,0-4-6.57c-4.46-3.11-11.05-2.25-13.71,2.75a3.55,3.55,0,0,0-.69,2.23,2.71,2.71,0,0,0,2,1.71,4.06,4.06,0,0,0,2.35-.33,5.63,5.63,0,0,1,2.24-.76c2.7.22,2.41,4.61,2.07,6.39a6,6,0,0,1-1.82,3.7c-1.4,1.27-3.09,2.19-4.14,3.82-2.14,3.31,0,7.89,1.91,10.78,1.22,1.87,2.64,3.6,4,5.37a1.94,1.94,0,0,0,2.56.81c.72-.32,1.28-1.32,2.09-1.32,1.14,0,1.39,1.91,1.57,2.74a16.33,16.33,0,0,0,1.14,4.13,1.23,1.23,0,0,0,1.09.62,3.92,3.92,0,0,0,2.68-1.42c.67-.81,1-1.79,1.59-2.63a5.76,5.76,0,0,1,.94-1,1.9,1.9,0,0,1,.64-.34c-.12,0,0,0,.1.07a5.6,5.6,0,0,1,.49.49,10.52,10.52,0,0,1,1.19,2.34c.9,2.31,1.56,4.7,2.44,7,.77,2,1.66,4.34,3.35,5.8a4.44,4.44,0,0,0,2.67,1.16,4,4,0,0,0,1.5-.18c1-.32,1.15-1.17,1.33-2.07.83-4.14.08-8.68-.68-12.77-.32-1.72-.45-3.87-1.73-5.16a11.07,11.07,0,0,0-2.36-1.64,5.15,5.15,0,0,1-2.19-1.71c-.57-1.12.35-2.36,1-3.27a15.38,15.38,0,0,0,1.8-3.43,16.7,16.7,0,0,0,.39-7.54c-.39-2.95-1.13-5.87-1.28-8.86-.15-2.74.88-5.31.5-8.09-.6-4.3-3.52-7.79-4.24-12.08-.27-1.59-2.69-.92-2.42.67.66,3.92,3.16,7.09,4,10.92a10.92,10.92,0,0,1,.23,3.07c-.08,1.32-.58,2.57-.63,3.88a38.66,38.66,0,0,0,.92,8.16c.46,2.64,1,5.44.39,8.09s-2.85,4.43-3.26,7c-.37,2.27,1.07,3.85,2.89,4.95a12.53,12.53,0,0,1,2.4,1.53,4.9,4.9,0,0,1,.88,2.59,56.5,56.5,0,0,1,1.1,7.42,16.76,16.76,0,0,1-.42,6.73l.87-.88a1.63,1.63,0,0,1-1.6-.11,5,5,0,0,1-1.45-1.62,28.17,28.17,0,0,1-2.49-6A48.09,48.09,0,0,0,453,321c-.69-1.38-1.79-2.92-3.51-2.89a3.92,3.92,0,0,0-2.57,1.31,8.84,8.84,0,0,0-1.25,1.55c-.45.72-.89,2.41-1.92,2.54l1.08.62c-1-1.94-.71-4.36-1.85-6.3a3.46,3.46,0,0,0-2.62-1.78,3.92,3.92,0,0,0-1.73.19c-.61.23-1.37,1.35-2,1.29l1.08.62c-2-2.69-4.33-5.27-5.76-8.36a7.65,7.65,0,0,1-.81-4.71c.34-1.53,1.93-2.48,3.08-3.38a8.15,8.15,0,0,0,2.82-3.29,13.2,13.2,0,0,0,.83-3.27c.32-2.32.24-5-1.3-6.94a4.67,4.67,0,0,0-3.42-1.74,4.72,4.72,0,0,0-2.1.55c-.48.21-1.7,1-2.08.38l.12,1c1.72-4.62,7.3-5.55,11-2.6a6.6,6.6,0,0,1,2.49,6c-.42,3.63-3.28,6.92-1.34,10.59a1.27,1.27,0,0,0,2,.26,12.29,12.29,0,0,1,2.24-1.49,4,4,0,0,1,.81-.3c.08,0,.45,0,.3,0,.23,0,.23.1.19.06l.14.15a2.88,2.88,0,0,1,.4.93c.5,1.56.77,4,2.85,4.12a4.29,4.29,0,0,0,3.55-2.26,6.3,6.3,0,0,0,.3-5c-.56-1.92-1.56-3.66-2.22-5.53-.91-2.54.12-5,.24-7.57.25-5.32-3.95-10.63-2-15.87l-1.21.92a3.19,3.19,0,0,1,3,2.26c.48,1.54,2.9.88,2.42-.66Z" fill="#797a7a"/><path d="M41.77,287.52l5.89-.78c.91-.12,2.07-.09,2.62-.93a3.14,3.14,0,0,0-.57-3.69c-.78-1-2-1.65-2.66-2.69-.27-.44-.31-.29,0-.59A12.51,12.51,0,0,1,49,277.66c2.64-1.63,3.16-4,1.67-6.68-.67-1.18-1.56-2.23-2.21-3.43-.5-.92-.67-1.38.21-2l-1.16.16L57.3,269a1.53,1.53,0,0,0,1.87-1.86q-2.19-9.32-3.94-18.73l-1.46,1.92c2.81-.22,5,2.56,6.63,4.47,2,2.36,3.79,5,6.28,6.86,1,.77,2.19-.31,2.28-1.31.5-5.33,3.63-9.84,7.63-13.21l-2.38-.31a52.72,52.72,0,0,1,6.74,15,1.52,1.52,0,0,0,3-.4c.39-6.32,4.36-11.7,9.35-15.33l-2.23-.9A58.56,58.56,0,0,1,94,254.35a1.52,1.52,0,0,0,2.53.67l15-15.39L109,239a27.51,27.51,0,0,1,1.38,14.94,1.53,1.53,0,0,0,2.54,1.48l9-7.34c1.52-1.23-.64-3.37-2.14-2.14l-9,7.33,2.54,1.48a30.52,30.52,0,0,0-1.38-16.55,1.54,1.54,0,0,0-2.54-.67l-15,15.39,2.53.67A57.59,57.59,0,0,0,94,244.4c-.33-.81-1.35-1.55-2.23-.91-5.91,4.3-10.4,10.47-10.86,17.95l3-.41a55.38,55.38,0,0,0-7-15.76,1.55,1.55,0,0,0-2.38-.31,23,23,0,0,0-8.52,15.36L68.21,259c-2.58-2-4.36-5-6.52-7.36S57,247,53.77,247.27a1.54,1.54,0,0,0-1.46,1.92q1.74,9.41,3.94,18.72l1.86-1.86-6.54-2.16c-1-.33-2-.73-3-1a2.25,2.25,0,0,0-2.3.75c-1.73,1.63-1.34,3.86-.25,5.72.54.92,1.2,1.77,1.76,2.68a6.3,6.3,0,0,1,.62,1.14,1.8,1.8,0,0,1,.17.8c-.23.89-1.76,1.41-2.52,1.9a4,4,0,0,0-2.2,3.19,4.93,4.93,0,0,0,1.89,3.36c.46.44,1,.85,1.4,1.32.15.16.47.7.55.53l1.31-.75-7.2,1A1.57,1.57,0,0,0,40.25,286a1.52,1.52,0,0,0,1.52,1.52Z" fill="#797a7a"/><path d="M374.52,218.59c4.63.74,1.13,9.75,8.15,8.68,1.8-.35,3.65-1.79,5.25-.89,2.55,1.59.43,4.72.79,6.94,1.61,1.84,6.2.29,3.53,5.06-3.15,2.35-5.15,5.54-3.85,9.64,1.79,4.25-2.07,7.89-4.94,3.13-2.73-5.08-4.31-1.76-7.86-2.45-3.76-7,2.23-20.35-.94-29.79" fill="#797a7a"/><path d="M374.18,219.8c1.41.27,1.69,1.67,2,2.89a10,10,0,0,0,1.81,4.44,5.37,5.37,0,0,0,5.38,1.26c1.07-.26,2.8-1.49,3.92-.93s.51,2.54.34,3.5-.5,2.39.19,3.24a4.62,4.62,0,0,0,2.35,1.28c.38.11,1.49.21,1.69.58-.09-.17-.07.17-.08.24a2.65,2.65,0,0,1-.72,1.42,22.72,22.72,0,0,0-2.85,3,8.65,8.65,0,0,0-1.39,3.69,9.64,9.64,0,0,0,.49,4.26c.29.94.55,2.37-.28,3.15s-2-.58-2.5-1.33c-.76-1.2-1.45-2.49-2.79-3.14-1.94-.95-3.83.44-5.82.11l.75.57c-2.1-4.1-1-9.55-.45-13.91.6-5.14,1.27-10.55-.36-15.57-.5-1.53-2.92-.88-2.42.67,1.84,5.67.58,11.86,0,17.64a34.63,34.63,0,0,0-.19,8,13.12,13.12,0,0,0,.82,3.39,2.33,2.33,0,0,0,2.62,1.76c1.57,0,3.47-1.22,4.69.16.92,1,1.36,2.38,2.42,3.32a3.88,3.88,0,0,0,3.34,1.05c2.31-.51,3.2-3.1,2.93-5.21-.19-1.46-.89-2.73-.78-4.25a6.73,6.73,0,0,1,1.54-3.67,11.52,11.52,0,0,1,1.76-1.73,4.37,4.37,0,0,0,1.38-2,3.43,3.43,0,0,0,.05-3c-1-1.69-3.19-1.09-4.38-2.34l.37.89c-.33-2.77,1.81-6.16-1.42-8-2.79-1.61-5.59,2-8.22.55-1.38-.77-1.51-3-1.88-4.39-.53-1.89-1.52-3.67-3.6-4.07-1.58-.3-2.25,2.12-.67,2.42Z" fill="#797a7a"/><path d="M303.52,148.52A52.46,52.46,0,0,0,282.3,117l2.08,12c-36.66.31-24.13-14.18-67.35,7.08,2.65,2.93,7.26,2.54,11.18,2.14a103.86,103.86,0,0,1,37.6,3.06c13.15,1.14,21.6,19.28,27.53,11.21,2.56-1.67,10.33,1.72,9.66-3.57" fill="#797a7a"/><path d="M304.68,148.2A53.92,53.92,0,0,0,282.92,116c-1-.66-1.94.43-1.78,1.37l2.07,12,1.17-1.53a95.59,95.59,0,0,1-16.65-1.15c-3.37-.57-6.65-1.45-10-2.27a32.09,32.09,0,0,0-8.38-1.11,38.55,38.55,0,0,0-11.27,2.32,183,183,0,0,0-21.7,9.45,1.22,1.22,0,0,0-.24,1.9c2.65,2.78,6.61,2.95,10.21,2.67,4.64-.37,9.23-.76,13.9-.69a101.18,101.18,0,0,1,14.54,1.25c2.42.38,4.83.86,7.21,1.41,1.15.27,2.29.67,3.45.87.76.14,1.53.2,2.29.38,5.65,1.34,10,5.49,14.44,9,2.94,2.35,7.26,5.74,10.89,2.68a6.64,6.64,0,0,0,.55-.51c.14-.16.66-.73.51-.63s.29-.05.36-.07c.26,0,.51-.08.77-.1,1.32-.09,2.65.08,4,.07,2.77,0,5.27-1.16,4.94-4.35-.15-1.53-2.58-1.55-2.42,0,.09.89.07,1.49-.84,1.76a9.49,9.49,0,0,1-3.1.14,18.52,18.52,0,0,0-3.33,0,3.85,3.85,0,0,0-2.57,1.43c-2.64,2.83-6.64-1-8.81-2.81-4.17-3.4-8.37-7.07-13.61-8.69-1.49-.47-3-.59-4.54-1-2.22-.58-4.46-1.07-6.71-1.5a107.56,107.56,0,0,0-13.49-1.66,105.09,105.09,0,0,0-15.16.22c-3.76.33-8.8,1.43-11.74-1.65l-.24,1.9a194.14,194.14,0,0,1,19.58-8.67,41.32,41.32,0,0,1,11.37-2.73c6-.36,11.73,2,17.62,3.1a97.76,97.76,0,0,0,18.16,1.39,1.23,1.23,0,0,0,1.17-1.53l-2.08-12.05-1.78,1.36a51.46,51.46,0,0,1,20.66,30.76c.34,1.52,2.68.88,2.33-.64Z" fill="#797a7a"/><path d="M320.62,166.26c-4.33-2.5-8.51-7-13.38-7.88-3,2.87.25,7.4,2.17,10.33,15.3,26.22,14.63,59,17.22,88.51,2.84,9.4,12.08-12.89,12.89-16,3.55-10,6.5-20.62,4.57-31-1.23-9-7.62-16-10.46-24.35-1.42-8.82-1.11-18.17-5.95-26.11-1.6-3-3.59-1.24-3.1,1.63A4,4,0,0,1,321,165" fill="#797a7a"/><path d="M321.23,165.22c-3.83-2.26-7-5.56-11.17-7.26a6.45,6.45,0,0,0-3-.77c-.87.15-1.5,1.2-1.83,1.94a6.87,6.87,0,0,0,.38,5.52,55.54,55.54,0,0,0,3.05,5.22c1.18,2,2.26,4.15,3.26,6.3a96.77,96.77,0,0,1,5,13.3c5.5,18.47,6.33,37.9,7.65,57,.16,2.36.33,4.7.52,7.05.14,1.77,0,3.7.86,5.31a2.9,2.9,0,0,0,4.13,1.47c1.76-.94,3-2.9,4-4.54a60.34,60.34,0,0,0,3.74-7.12,108.23,108.23,0,0,0,6-17.21c2.53-9.72,3.12-20.1-1-29.48-1.81-4.14-4.24-8-6.22-12-.48-1-.93-2-1.33-3a14.7,14.7,0,0,1-.86-3.65c-.31-2.37-.54-4.76-.82-7.13a48.87,48.87,0,0,0-3.18-13.67c-.75-1.74-1.73-4.42-3.53-5.32a2.5,2.5,0,0,0-3.44,1.79,22.76,22.76,0,0,0-.2,2.71,2.81,2.81,0,0,1-2.34,2.1c-1.53.17-1.54,2.59,0,2.42a5.36,5.36,0,0,0,4.16-2.61,4.74,4.74,0,0,0,.66-2.28,6,6,0,0,1,0-1.41,1.28,1.28,0,0,1,.13-.39c.14-.2.17-.14,0-.17.53.11,1.13,1.65,1.36,2.08a26.12,26.12,0,0,1,1.46,3.18,38.54,38.54,0,0,1,1.66,6.06c.81,4.1,1.1,8.29,1.63,12.43a25.53,25.53,0,0,0,.43,3,18.12,18.12,0,0,0,1,2.68c.78,1.83,1.69,3.59,2.63,5.34a86.71,86.71,0,0,1,5.36,10.74,35.47,35.47,0,0,1,2,12.64c-.11,8.37-2.76,16.28-5.38,24.13a65.37,65.37,0,0,1-5,11,20.35,20.35,0,0,1-3.36,4.84,5.21,5.21,0,0,1-.63.53,1,1,0,0,1-.51.25l-.11,0s0,0-.13-.12a2.58,2.58,0,0,1-.23-.35c-.67-1.23-.52-2.92-.63-4.29-.16-2.07-.32-4.14-.46-6.21-.29-4.2-.56-8.4-.86-12.59-.59-8.43-1.31-16.85-2.52-25.21a139.91,139.91,0,0,0-5.55-24.25,97.8,97.8,0,0,0-4.64-11.44c-.88-1.82-1.81-3.62-2.83-5.36-.9-1.53-2-2.94-2.74-4.56s-1.14-3.32.17-4.66l-1.18.31c5.08,1,8.78,5.21,13.09,7.76a1.21,1.21,0,0,0,1.22-2.09Z" fill="#797a7a"/><path d="M286.58,181.81c-8.24-1.62-10.78,7.46-15.87,11.52-11.66,3-6.67,14.18-7.74,22.79-7.68,13.17,23.11,22.63,32.55,24,18.6,4.69,21-21.39,17.29-33.83-5.38-10.66-17.65-16-26.53-23.44" fill="#797a7a"/><path d="M286.91,180.64a10.15,10.15,0,0,0-9,2.57c-2.33,2.09-3.94,4.83-6,7.17a18.9,18.9,0,0,1-1.52,1.58,8.24,8.24,0,0,1-2.34,1,10.57,10.57,0,0,0-3.9,2.73,12.59,12.59,0,0,0-2.62,7.9c-.12,3.18.32,6.35.32,9.54,0,.73,0,1.47-.08,2.2a4.71,4.71,0,0,1,0,.54c0-.12.08-.32-.09.05s-.29.61-.43.92a9.15,9.15,0,0,0-.73,3.3c-.12,5,4.18,8.77,8,11.29a64.65,64.65,0,0,0,16.35,7.34c2.47.78,5,1.47,7.51,2a36.58,36.58,0,0,0,7.19,1.11c12.33.13,15.9-14.21,15.94-24.08a44.87,44.87,0,0,0-.7-8.26,21.71,21.71,0,0,0-.81-3.48,19,19,0,0,0-3.14-5c-5.06-6.48-12.34-10.69-18.94-15.39-1.64-1.16-3.24-2.36-4.78-3.65-1.19-1-2.91.71-1.71,1.71,5.87,4.91,12.65,8.61,18.45,13.61a32.54,32.54,0,0,1,7.37,8.62c1.13,2,1.38,4.71,1.61,7a40.19,40.19,0,0,1-1.3,15.81c-1.28,4.21-3.77,8.66-8.19,10.16-2.55.87-5,.55-7.6.06-1.95-.37-3.89-.74-5.82-1.24a78.91,78.91,0,0,1-15.32-5.58c-4.06-2-9-4.73-11-9a6.49,6.49,0,0,1-.14-5.27,10.25,10.25,0,0,0,.68-1.52,11.48,11.48,0,0,0,.18-2.34c0-1.46,0-2.92-.12-4.37-.3-5.32-1-11.87,4.84-14.41a17,17,0,0,0,2.39-.88,8.93,8.93,0,0,0,1.6-1.47,39.84,39.84,0,0,0,2.79-3.41c1.7-2.23,3.48-4.82,6.12-6a7.23,7.23,0,0,1,4.31-.42c1.53.27,2.18-2.06.65-2.34Z" fill="#797a7a"/><path d="M242,226c-.35,2.43,1.35,6.51,4.24,4.82,1.36-1.09.73-3.64,2.19-4.59,4.58,1.15,4.15,7,5.22,10.62,2.21,4.48,8.55,14.33.25,15.85-3.27-.52-9.78-8.27-10.22-.43-.6,5.39-9.83,7.15-9.28,12.54,1.22,3.18.74,6.91-2.75,8.48-6.42,3.2-17.85-1.88-11.88-9.74,2.39-4.2,7-5.66,11-7.71,3.62-9.79.31-23.12,11-30.08" fill="#797a7a"/><path d="M240.79,226c-.27,2.32.79,5.64,3.31,6.32a3.34,3.34,0,0,0,3.57-1.3,6,6,0,0,0,.73-1.93c.13-.54.17-1.45.65-1.81l-.94.12c2.35.66,3,2.92,3.45,5.07s.61,4.17,1.62,6.11a57.86,57.86,0,0,1,2.67,5.49c.61,1.58,1.39,3.64.83,5.34a2.7,2.7,0,0,1-1.5,1.64,3.69,3.69,0,0,1-1.29.42c.37,0,0,0-.16-.06s-.42-.17-.63-.27c-1.73-.84-3.21-2.12-5-2.93-1.44-.67-3.21-1-4.44.24-1.51,1.56-.82,4-2,5.67-2.27,3.26-6.9,4.54-8.24,8.53-.78,2.33.85,4.46.14,6.83s-3.21,3.35-5.46,3.54c-3.17.26-8.66-1.1-8.81-5.09a5.07,5.07,0,0,1,.76-2.67,14.49,14.49,0,0,1,2.85-3.66c2.06-1.83,4.7-2.9,7.15-4.08.73-.36,1.47-.58,1.83-1.36a14.24,14.24,0,0,0,.65-2,38.66,38.66,0,0,0,.82-4c.45-2.76.69-5.55,1.1-8.32.87-5.92,2.69-11.55,7.9-15,1.3-.86.08-3-1.22-2.09-5,3.33-7.55,8.44-8.65,14.23-1,5.51-1,11.26-2.94,16.58l.56-.72a59.09,59.09,0,0,0-7.27,3.81,15.63,15.63,0,0,0-5.15,6c-1.81,3.75-.17,7.51,3.4,9.41s8.6,2.16,12.09-.17a7,7,0,0,0,3-6.17c0-1.14-.58-2.23-.62-3.33a3.61,3.61,0,0,1,.86-2.21c2.39-3.09,6.71-4.43,8.11-8.33.35-1,0-3.94,1.5-3.76s3.21,1.65,4.52,2.46a12.6,12.6,0,0,0,2.15,1.13,3.87,3.87,0,0,0,2.91-.13,5.3,5.3,0,0,0,3.48-3.83c.78-3.8-1.54-7.88-3.24-11.12a13.3,13.3,0,0,1-1.19-2.5c-.33-1.18-.46-2.42-.68-3.63-.43-2.3-1.1-4.78-3-6.27-.9-.68-2.33-1.52-3.37-.77s-1.29,2.16-1.6,3.39c-.14.53-.27,1.16-.91,1.24a1.23,1.23,0,0,1-1.14-.65,4.79,4.79,0,0,1-.74-3.34c.18-1.55-2.25-1.53-2.42,0Z" fill="#797a7a"/><path d="M256.55,265c-2.38,7.69,7.59,5.76,10.83,2.21l-10.25-2.68" fill="#797a7a"/><path d="M255.38,264.65a6.51,6.51,0,0,0-.13,4.09,4.1,4.1,0,0,0,2.53,2.42c2.29.84,5,.11,7.16-.85a10.18,10.18,0,0,0,3.29-2.28,1.22,1.22,0,0,0-.53-2l-10.25-2.67a1.21,1.21,0,0,0-.64,2.33l10.25,2.68-.54-2a5.44,5.44,0,0,1-.48.48l-.27.23s-.15.11,0,0-.07.05-.1.07a12.38,12.38,0,0,1-1.31.8l-.71.34c-.05,0-.22.09,0,0l-.19.07-.37.14a11.06,11.06,0,0,1-1.59.45l-.33.06c-.09,0-.44.06-.15,0a7.18,7.18,0,0,1-.79.06h-.67l-.35,0c.3,0,0,0-.13,0s-.38-.1-.58-.16.1.08-.06,0l-.3-.16s-.31-.22-.14-.09-.06-.05-.1-.09l-.2-.22c.23.24,0,0,0-.08s-.16-.36-.07-.09c0-.11-.08-.23-.11-.34s-.06-.25-.08-.38c.05.3,0-.08,0-.19s0-.3,0-.45a1.49,1.49,0,0,0,0-.21c0-.23,0,.08,0-.07.07-.39.17-.78.28-1.17a1.21,1.21,0,0,0-2.33-.64Z" fill="#797a7a"/><path d="M223.72,291.07c-.44-2-2.09-4.62-3.87-3.57-2,2.87-3.49,6.53-7.7,3.55A18.79,18.79,0,0,0,211,302.11a13.88,13.88,0,0,1,11.12,0c1-1.56-.34-4.07,1-5.33,3-1.86,4.56,2.59,3.78,5a15.85,15.85,0,0,1,6.7,2.81c2.11-3.2,6.44-1,9.51-1.16,5.8,0,7.7-7.39,12-10.16,2-.46,3.43,2.21,2.73,4.09-1.45,3.82-7.33,4.13-8.53,8.12-.56,2.21.71,6.36-2.45,6.88-1.58-7.49-13-6.82-13.7.8-9.93-18.05-18.15,5.11-7.9,3.84,10.07,1.24,7.88,14.42,2.23,19.89-3.63,5.87-10.76,9.13-14.13,14.84,7,24.83,29.68,23.84,29.54-4,5-27.44,21.82-14.75,29.22-23.55,2.6-10.94-18.07-12-17.52-21.3.6-2.37,3.35-3.66,5.78-3.44,6.26-.19,13.62,11.43,19.07,6.2.93-5.64-13.28-19.28-18.82-17.64-2,1.21-1.8,5.21-4.14,5.23-.2-3.88-3.59-9.76-7.91-6.86-2.77,2.35.1,9.07-4.35,10,.19-3.85-2.34-8.69-6.36-9.35-3.42,1.84-2.08,7.88-3.23,11.26-1.81-1.72-2.32-4.43-3.91-6.37s-5.47-2.33-6,.12" fill="#797a7a"/><path d="M224.89,290.75a7.14,7.14,0,0,0-2.33-4,2.7,2.7,0,0,0-3.75.13c-.89,1.07-1.4,2.41-2.43,3.38-1.2,1.11-2.39.56-3.62-.27a1.24,1.24,0,0,0-1.78.73,20.44,20.44,0,0,0-1.12,11.7,1.23,1.23,0,0,0,1.78.72,12.74,12.74,0,0,1,9.9,0,1.23,1.23,0,0,0,1.65-.44,5.65,5.65,0,0,0,.57-3.06c0-.67-.27-2.34.9-2.11,1.37.26,1.41,3,1.14,3.92a1.21,1.21,0,0,0,.84,1.49,15.92,15.92,0,0,1,6.4,2.69,1.24,1.24,0,0,0,1.66-.43c1.1-1.53,3.17-1.2,4.79-1a15.47,15.47,0,0,0,4.89.28c3.23-.52,5.35-3.14,7.21-5.6a27.77,27.77,0,0,1,3.13-3.79c.55-.51,1-1,1.58-.32a2.23,2.23,0,0,1,.36,2.33c-.61,1.39-2.14,2.21-3.37,2.94a15,15,0,0,0-3.79,2.75,6.61,6.61,0,0,0-1.53,4.58c0,1.34.29,3.42-1.39,3.77l1.49.85A8.19,8.19,0,0,0,232,313.18l2.26-.61c-1.88-3.36-5.45-8.69-10.09-7.31-3,.9-4.69,4.3-4.78,7.27a6,6,0,0,0,1.34,4.18c1.18,1.32,2.71,1.52,4.38,1.55,5.15.06,6.57,5.55,5.75,9.71a16.71,16.71,0,0,1-2.78,6.48c-.76,1.06-1.63,2-2.41,3.07a27.69,27.69,0,0,1-3.61,3.81c-2.55,2.31-5.35,4.37-7.62,7-.85,1-2.48,2.54-2.15,3.93a29.32,29.32,0,0,0,1.56,4.48c3,7.34,10.34,16.53,19.45,13.49,3.91-1.3,6.69-4.63,8.31-8.31a29.13,29.13,0,0,0,2.13-7.79,42.06,42.06,0,0,0,.4-4.88,23.28,23.28,0,0,1,.93-5.49c1.23-4.52,3.27-9.31,7.43-11.86,2.86-1.76,6.22-2.17,9.5-2.55,3.12-.35,6.46-.71,9.1-2.58a8.46,8.46,0,0,0,1.86-1.67,5,5,0,0,0,.63-3.21,8.73,8.73,0,0,0-2.32-5.23c-2.79-3.15-6.9-4.87-10.38-7.09a13.63,13.63,0,0,1-4.12-3.54,5.07,5.07,0,0,1-.89-2.16,2.81,2.81,0,0,1,2.05-2.85c2.44-1,4.94,0,7.05,1.27,2.28,1.39,4.35,3.13,6.69,4.44,2,1.1,4.3,2,6.52,1.14,1.08-.39,2.4-1.15,2.54-2.38a6,6,0,0,0-.3-2.37c-1.36-4.46-5.19-8.37-8.65-11.32a27.44,27.44,0,0,0-6.07-4.07c-1.54-.71-3.65-1.52-5.36-.9a4.61,4.61,0,0,0-2.23,2.61c-.28.63-.72,2.52-1.58,2.58l1.21,1.21c-.3-4.31-3.94-10.91-9.15-8.25-2.07,1.07-2.44,3.39-2.61,5.5-.15,1.7,0,4.21-2,4.7l1.53,1.17a11.62,11.62,0,0,0-2.13-7,9.67,9.67,0,0,0-2.5-2.44c-.86-.56-2.37-1.36-3.41-1-2,.72-2.82,3.36-3.09,5.23-.33,2.25-.14,4.63-.83,6.82l2-.54c-2.28-2.3-2.53-6.2-5.69-7.7-2.26-1.07-5.48-.79-6.25,2a1.21,1.21,0,0,0,2.33.65c.49-1.74,3.26-.46,4,.42,1.6,1.95,2.09,4.53,3.91,6.36a1.22,1.22,0,0,0,2-.53,26.4,26.4,0,0,0,.73-5.75c.14-1.69.32-3.84,1.94-4.79l-.94.13c3.65.7,5.59,4.74,5.48,8.18a1.23,1.23,0,0,0,1.53,1.17c4.33-1,3.19-5.69,4.1-8.93a2.38,2.38,0,0,1,4-1.08,8.43,8.43,0,0,1,2.66,5.72,1.23,1.23,0,0,0,1.21,1.21c1.92-.14,2.73-1.57,3.42-3.18.26-.62.56-1.75,1.18-2.11a2.22,2.22,0,0,1,1.13,0c2.88.41,5.65,2.59,7.79,4.41a31.69,31.69,0,0,1,6.91,7.83,8.87,8.87,0,0,1,1.35,3.38c0,.1,0,.21,0,.31,0,.26-.15.38.05.12s-.55.24-.7.31a3.43,3.43,0,0,1-1.87.29,10.81,10.81,0,0,1-4.33-2c-1.59-1-3.09-2.18-4.68-3.21-3.06-2-6.75-3.31-10.26-1.58a5.14,5.14,0,0,0-3.11,4.48,7.35,7.35,0,0,0,1.09,3.55c1.48,2.37,4,4,6.31,5.36,4.13,2.48,10.93,5.18,10.26,11,0,.1-.13.48.1.06a1.38,1.38,0,0,1-.23.26c-.2.2-.4.4-.61.59a8.58,8.58,0,0,1-1.22.85,10.58,10.58,0,0,1-2.72,1.05,52,52,0,0,1-6.45,1c-5.36.69-10.06,2.49-13.3,7a30.18,30.18,0,0,0-4.47,11.15,60.23,60.23,0,0,0-.67,7.11,31.41,31.41,0,0,1-1.14,5.84c-1.49,4.95-5.05,10.23-10.82,10-6.07-.21-10.42-6-12.8-11a38.07,38.07,0,0,1-2.18-5.94l-.12.93c1.88-3.11,4.76-5.39,7.48-7.72a47.51,47.51,0,0,0,4-3.68c1.12-1.19,2-2.58,3.08-3.79a17.47,17.47,0,0,0,4.35-14,8.7,8.7,0,0,0-3.48-5.72,9.16,9.16,0,0,0-3.63-1.47,17.9,17.9,0,0,1-2.75-.23,2.72,2.72,0,0,1-1.66-2.58,6.53,6.53,0,0,1,1.09-4,3.14,3.14,0,0,1,3.45-1.58c2.73.73,4.55,3.95,5.82,6.21a1.22,1.22,0,0,0,2.25-.61,5.78,5.78,0,0,1,11.32-.48,1.24,1.24,0,0,0,1.49.85,3.93,3.93,0,0,0,3.06-3.72c.19-1.52-.24-3.37.57-4.74.93-1.6,2.89-2.4,4.4-3.34a8.45,8.45,0,0,0,3.69-3.79,4.59,4.59,0,0,0-1.47-5.3c-1.87-1.32-3.48-.23-4.86,1.18-2.45,2.51-4.13,6.63-7.53,8-2.09.85-4.41.07-6.55-.15-2.38-.26-4.48.27-5.92,2.27l1.66-.43a17.52,17.52,0,0,0-7-2.93l.84,1.49c.65-2.31-.06-6.09-2.72-6.87a3.25,3.25,0,0,0-3.64,1.38c-.87,1.53.13,3.42-.67,4.87l1.66-.44a15.51,15.51,0,0,0-12.35,0l1.78.72a18.21,18.21,0,0,1,1.13-10.41l-1.78.72c2.31,1.56,4.85,1.75,6.83-.41.83-.9,1.32-2.22,2.18-3.05.36-.35,0-.23.3-.12a1.83,1.83,0,0,1,.69.61,5.91,5.91,0,0,1,1,2.27,1.21,1.21,0,0,0,2.33-.64Z" fill="#797a7a"/><path d="M202,294.37c.46,5.15-2.36,17,6.5,11.3,3.76-.47,5,4.11,4.84,7.12-.36,1.76,1.63,7.09-1.64,6-3.87-2.58-3.43,4.22-5.82,5.65-3.19,2.59-6.49-1.28-3.56-4.09,9.29-7.73-12.25-14.37-.48-27.69" fill="#797a7a"/><path d="M200.74,294.37c.22,2.71-.19,5.43-.05,8.15.11,2.18.54,5.13,3.06,5.76a6,6,0,0,0,4.05-.84c.8-.41,1.17-.82,2.09-.41a3.37,3.37,0,0,1,1.51,1.75,10.39,10.39,0,0,1,.63,4.58c0,1.38.41,2.74.31,4.13,0,.08-.17.56,0,.32s.25.16,0-.1l-.31-.13a4.56,4.56,0,0,0-2.09-.58,3.5,3.5,0,0,0-2.75,2.38c-.53,1.18-.8,2.66-1.63,3.68s-3.34,1.55-3.2-.47c.09-1.31,1.93-2.37,2.62-3.46a5.8,5.8,0,0,0,.9-3.16c0-2.21-1.27-4.21-2.43-6-1.46-2.27-3.13-4.52-3.79-7.17-.88-3.5.73-6.69,3-9.29,1-1.17-.69-2.89-1.71-1.72-2.31,2.65-4.18,5.88-4,9.51a16.54,16.54,0,0,0,3,7.73c1.22,1.92,2.87,3.88,3.4,6.14a3.4,3.4,0,0,1-.34,2.52c-.79,1.41-2.33,2.13-2.87,3.74a3.83,3.83,0,0,0,1.93,4.7,4.58,4.58,0,0,0,5.17-1.32c1-1.13,1.4-2.7,2-4.08.14-.34.39-1.14.78-1.29s1.13.47,1.56.59a2.39,2.39,0,0,0,3.13-2c.26-1.53-.24-3-.24-4.56,0-3.15-.4-7.74-4.15-8.83a3.67,3.67,0,0,0-3.19.44,5.53,5.53,0,0,1-2.4.9c-1,0-1.26-.9-1.45-1.92-.61-3.17.15-6.47-.11-9.67-.13-1.54-2.55-1.56-2.42,0Z" fill="#797a7a"/><path d="M316.64,368.71c-4.49,11.75-13.52,21.15-19.44,32.25-2.63,4.93-4.7,10.26-8.38,14.46-6.63,8.26-31.36,17.51-22.62-2.35,14.79-17.57,35.39-31.16,46-52.16-13.43,2-25.59,9.37-38.49-.45-6.18-5.21-19.28-16.6-23.28-4-2.14,18.41-7.49,14.86-18.65,25.22-4.88,11.48,3.43,11.75,10.89,5.88,3-2.62,7-3.07,10.76-2.09,4.8.79,9.09-2.33,13.84-2.4,4.58,4.15-9.79,15.34-10.64,20.92-1.74,5.5-8,11.91-12.2,4.44-.69-1.27-1.35-4-3.38-3.24-3.38,2-3.95,7-6.88,9.55-3.17,1.35-1.38-4.57-3.21-5.46-1.54.37-1.95,2.9-3.4,3.56-.33,6.49-.66,14-1,20.47,0,.64,58.6-.89,63.65-.24,6-8.05,7.29-17.69,11.2-26.66,11.44-15.47,23.75-31.77,22.77-52.2C319.89,357.69,318.6,363.56,316.64,368.71Z" fill="#797a7a"/><path d="M315.47,368.39c-2.44,6.3-6.21,11.95-10,17.48A141.43,141.43,0,0,0,294.78,403c-2.4,4.83-4.72,10-8.83,13.62a31.59,31.59,0,0,1-8.56,5.23c-2.63,1.1-5.77,2.18-8.66,1.79a3.72,3.72,0,0,1-2.41-1.1,4.45,4.45,0,0,1-.74-3.13,13.27,13.27,0,0,1,1.73-5.81,29.29,29.29,0,0,1,3.09-3.51q1.59-1.74,3.22-3.43c4.31-4.46,8.83-8.7,13.3-13,10-9.61,20-19.66,26.31-32.17a1.22,1.22,0,0,0-1.36-1.77c-6.44,1-12.62,3.23-19.07,4.15-6.62.94-13.32-.25-18.59-4.58-3.52-2.9-7-5.95-11.11-8-3.54-1.78-8.1-2.9-11.26.24a9.34,9.34,0,0,0-1.86,2.75,15,15,0,0,0-1,4.28,35.05,35.05,0,0,1-1.8,7.5,14.92,14.92,0,0,1-5.86,7c-1.57,1.08-3.18,2.1-4.73,3.2-.91.66-1.81,1.34-2.69,2a18.9,18.9,0,0,0-3,2.54,11,11,0,0,0-1.5,4.09,10,10,0,0,0-.23,3.57,4.49,4.49,0,0,0,2.76,3.69,8.31,8.31,0,0,0,5.88-.41,19.6,19.6,0,0,0,3.62-1.85,37.29,37.29,0,0,1,4.17-2.83,10.44,10.44,0,0,1,5.06-.85c1.9.12,3.63.71,5.57.51,3.77-.39,7.21-2.34,11-2.46l-.86-.35c1.39,1.32-.18,3.72-1,5a84.91,84.91,0,0,1-5.42,7.11c-1.63,2.06-3.49,4.25-4.32,6.79-.93,2.82-2.33,6-5.18,7.35a3.11,3.11,0,0,1-3.86-.78c-1.21-1.28-1.52-3-2.6-4.36-2.69-3.36-6,.95-7.24,3.35a24.91,24.91,0,0,1-2.8,4.79c-.35.4-.69.38-.41.66-.29-.29-.29-1-.33-1.35a8.43,8.43,0,0,0-.75-3.4c-.89-1.47-2.43-1.12-3.46,0a23.12,23.12,0,0,0-1.33,1.95,5,5,0,0,1-.75.71,1.69,1.69,0,0,0-.62,1.48c-.17,2.56-.25,5.14-.37,7.7l-.36,7.65-.18,3.59c0,.78-.24,1.68.55,2.15a4.53,4.53,0,0,0,2.14.28c1.35,0,2.7,0,4.05,0,10.33,0,20.65-.23,31-.38,8.65-.12,17.39-.51,26-.1.36,0,.71,0,1.06.08a1.21,1.21,0,0,0,1-.6c3.49-4.76,5.53-10.29,7.36-15.85.92-2.79,1.8-5.6,2.85-8.35a15,15,0,0,1,1.95-3.75q1.32-1.78,2.63-3.58c6.62-9,13.05-18.48,16.64-29.2a51.87,51.87,0,0,0,2.71-18.74,1.22,1.22,0,0,0-2.06-.86c-4.54,3.75-5.88,9.74-7.87,15-.55,1.46,1.79,2.09,2.33.64,1.85-4.88,3-10.45,7.25-13.93l-2.07-.85c.49,11.37-3.32,22-9,31.75a165.91,165.91,0,0,1-9.2,13.83l-2.27,3.1a19,19,0,0,0-2.49,3.69c-1.1,2.62-2,5.32-2.91,8-2,6.24-4,12.5-8,17.85l1.05-.59a78.64,78.64,0,0,0-9.83-.16c-6,0-11.94.11-17.91.19-11.05.16-22.12.49-33.17.36-.63,0-1.27,0-1.9,0a5.65,5.65,0,0,0-.58,0s.28.13.15,0l-.06,0,.27.12q.75,1.17.63.15a8.14,8.14,0,0,0,.11-2.22l.12-2.5c.08-1.63.15-3.25.23-4.87.16-3.34.31-6.67.48-10l-.6,1.05a5,5,0,0,0,1.7-1.7c.37-.55.73-1.52,1.41-1.74l-.93-.12c.54.31.48,2.5.59,3.15.2,1.21.76,2.46,2.11,2.64,1.88.25,3.1-1.59,4-3,1.06-1.72,1.76-3.66,3-5.29.31-.42,1.23-1.71,1.85-1.56s1,1.44,1.17,1.9a8.4,8.4,0,0,0,3.83,4.36c3.48,1.61,6.82-1.14,8.76-3.82,1.81-2.5,2.26-5.51,4-8,1.87-2.77,4.13-5.27,6.15-8,1.59-2.11,3.64-4.74,3.68-7.52a3.84,3.84,0,0,0-1.26-3c-.83-.67-2.21-.29-3.18-.12a31.88,31.88,0,0,0-3.73,1c-2.38.74-4.93,1.65-7.46,1.24s-4.75-.76-7.24-.1c-3.95,1.05-6.57,4.54-10.54,5.63a4.77,4.77,0,0,1-3.31,0,2.67,2.67,0,0,1-1.13-2.64,10.78,10.78,0,0,1,.48-2.63c.16-.54.34-1.08.55-1.61a3.11,3.11,0,0,1,1.09-1.35,52.23,52.23,0,0,1,4.13-3.29c4.37-3.11,9.07-5.51,11.31-10.68a26.67,26.67,0,0,0,1.5-4.69c.23-1,.42-2,.58-3a21.19,21.19,0,0,1,.66-3.82c1.09-3.05,3.43-4.73,6.66-4,7.37,1.64,12,8.48,18.46,11.81a25.34,25.34,0,0,0,14.1,2.56c4.87-.44,9.59-1.81,14.33-3,2.36-.58,4.74-1.1,7.14-1.47l-1.37-1.78c-6,11.85-15.3,21.44-24.78,30.58-4.66,4.49-9.39,8.9-13.9,13.53-2.28,2.34-4.5,4.73-6.61,7.21a13.76,13.76,0,0,0-2.55,6.67c-.45,2.95.24,6.06,3.25,7.29,2.73,1.12,6,.47,8.72-.37a34.93,34.93,0,0,0,9.9-4.9A29.67,29.67,0,0,0,293.94,410c1.93-3.51,3.53-7.2,5.54-10.67s4.23-6.72,6.48-10c4.48-6.48,9-12.95,11.84-20.34C318.37,367.58,316,367,315.47,368.39Z" fill="#797a7a"/><path d="M317.36,290.56c-.33,5.82,3.35,11.6,2,17.78,3.29,10,11-11-1.83-17.88" fill="#797a7a"/><path d="M316.15,290.56c-.25,5.5,2.72,10.62,2.21,16.12a7.42,7.42,0,0,0-.21,2,5.34,5.34,0,0,0,.42,1.09,5.6,5.6,0,0,0,.89,1.46,2.62,2.62,0,0,0,2.58.94c2-.5,2.91-3,3.34-4.8a17.84,17.84,0,0,0-.14-8.83,14.73,14.73,0,0,0-7.13-9.11c-1.37-.74-2.6,1.35-1.23,2.09,5,2.75,7.24,8.59,6.41,14a14.56,14.56,0,0,1-.35,1.59,5.83,5.83,0,0,1-.22.71l-.12.33c-.11.28,0,.08-.1.23a6.36,6.36,0,0,1-.53,1c-.18.26.08-.06-.19.22,0,.06-.11.11-.17.17s.16-.22,0,0a.64.64,0,0,1-.18.1c.38-.14.13,0,.06,0-.26,0,0,0,.08,0h-.17l.2,0-.12,0c-.06.06.2,0,.05,0a.62.62,0,0,1-.17-.11c.24.28,0,0,0-.07s-.22-.27,0,0a2.2,2.2,0,0,1-.17-.25c-.11-.19-.22-.39-.32-.59a3.14,3.14,0,0,1-.18-.46c-.1-.35-.16.47,0-.24a7.28,7.28,0,0,0,.17-1.23c.57-5.58-2.45-10.73-2.2-16.27.08-1.56-2.35-1.55-2.42,0Z" fill="#797a7a"/><path d="M235.06,240.79c-2,5.69-.37,14.05-6.5,17-2.79,5.13,5.46,13.23-8.23,9.18-4.85,6.83,8.2,10.69,10.91,4.23,1.39-3.63.3-8.09,4-10.47,3.62-5.4,2.72-15.15-1.1-20.27" fill="#c6c6c6"/><path d="M233.9,240.47c-1,2.92-1.1,6-1.63,9.07a14.26,14.26,0,0,1-1.27,4.23,7.72,7.72,0,0,1-2.91,2.9c-1.6,1.1-1.46,3.85-1.24,5.56.16,1.31.74,3.18.38,4.25a.41.41,0,0,1-.26.24,4,4,0,0,1-1,.14,19.2,19.2,0,0,1-5.28-1.06,1.24,1.24,0,0,0-1.36.56c-1.82,2.66-1.54,5.84,1.14,7.77a9,9,0,0,0,8.26,1,6.49,6.49,0,0,0,3.4-2.94c1-1.91,1-4.17,1.42-6.25a8.17,8.17,0,0,1,.91-2.72c.62-1,1.68-1.53,2.28-2.59a16.19,16.19,0,0,0,1.89-6.11c.6-5-.41-10.61-3.4-14.71-.91-1.24-3,0-2.09,1.22a18.59,18.59,0,0,1,3.23,10.85,17.38,17.38,0,0,1-.91,5.77,6.62,6.62,0,0,1-1.07,2.18,16.63,16.63,0,0,0-1.85,1.9,12.32,12.32,0,0,0-1.58,5.2c-.22,1.53-.33,3.39-1.31,4.66-1.43,1.84-4.19,2-6.23,1.31a4.37,4.37,0,0,1-2.66-2c-.57-1.17,0-2.35.66-3.35l-1.37.56c2.32.67,6,2,8.29.61,1.63-1,1.52-2.93,1.28-4.57s-.7-3.5-.2-5.24c.14-.5.49-.45,1.11-.9a8.74,8.74,0,0,0,1.66-1.61,12,12,0,0,0,2-4.31c1-3.62.83-7.45,2-11,.5-1.48-1.83-2.11-2.33-.64Z" fill="#c6c6c6"/><path d="M258.38,253.34a21,21,0,0,1-11.33-1.53c-.25,3.76,5.67,4.89,7.07,8.06,1.66,3.33,2,7.71,6.15,8.87,7.73,4.15,10.46-6.4,9.36-12.17-1.55-5.38-7.34-8.53-11.61-11.74-2.17.57-1.35,4.33-.33,5.74.64.92,1.62,2,1.18,3" fill="#c6c6c6"/><path d="M258.38,252.13a20.37,20.37,0,0,1-10.72-1.37,1.24,1.24,0,0,0-1.83,1.05c-.07,2.53,1.85,4.12,3.74,5.45a17.24,17.24,0,0,1,2.72,2.09,8.78,8.78,0,0,1,1.63,3.19c.91,2.45,1.82,5.08,4.15,6.55a14.24,14.24,0,0,0,3.73,1.56,6.5,6.5,0,0,0,3.13.08c4.39-1,5.88-6.54,6.11-10.43a11.54,11.54,0,0,0-1.5-6.9,23,23,0,0,0-6.4-6.37c-1.36-1-2.76-1.95-4.12-3s-2.64,0-3.22,1.23a5.66,5.66,0,0,0-.07,3.81,7.29,7.29,0,0,0,.7,1.74c.37.64,1.5,1.58,1.28,2.38a1.21,1.21,0,0,0,2.33.64c.56-2-1.06-3.06-1.75-4.72-.27-.64-1-2.82,0-3.16l-.93-.12c3.45,2.59,7.62,4.85,10,8.61,1.79,2.88,1.55,6.56.52,9.69-.88,2.66-2.79,5-5.83,4a7.19,7.19,0,0,1-4.5-3.18c-.91-1.65-1.37-3.51-2.15-5.22a10.24,10.24,0,0,0-3.94-4.16c-1.33-.93-3.27-2-3.21-3.83l-1.83,1a22.68,22.68,0,0,0,11.95,1.7c1.52-.2,1.54-2.62,0-2.42Z" fill="#c6c6c6"/><path d="M205.27,147.16c-34.64,23.4-38,72.93-36.75,111.26,1.16,1.41,3.33-.32,4.15-1.95,11-27.05,4.73-60.66,22.83-85.39,5.16-6.94,17.05-11.7,16-21.53-.68-2.13-3.48-3.6-5.28-2.27" fill="#c6c6c6"/><path d="M204.66,146.12c-13.65,9.27-23,23.07-28.63,38.41-5.78,15.69-8,32.56-8.69,49.2-.34,8-.44,16.17-.05,24.21.12,2.26,2.5,2.65,4.18,1.6,1.91-1.19,2.59-3.23,3.32-5.24a97.36,97.36,0,0,0,3.74-13.65c3.75-18.47,3.62-37.91,10.68-55.62a60.64,60.64,0,0,1,6.64-12.37c2.21-3.16,5.23-5.54,8.14-8s5.64-4.87,7.34-8.13c1.59-3,2.62-7.64-.61-10a4.47,4.47,0,0,0-5.07-.32c-1.31.84-.09,2.94,1.22,2.09,1.53-1,3.49.52,3.52,2.17a10,10,0,0,1-1.08,4.67c-1.53,3-4.15,5.3-6.67,7.46a58.53,58.53,0,0,0-7.48,6.94,51.77,51.77,0,0,0-6.64,11c-7.38,15.86-8.22,33.61-10.8,50.65a146.64,146.64,0,0,1-2.81,14.41c-.6,2.34-1.28,4.67-2.07,7a30.16,30.16,0,0,1-1.2,3.21c-.25.53-1.57,2.48-2.26,1.77l.35.86c-.52-15.75-.26-31.63,2.14-47.23s6.88-31.07,15.63-44.27a67.91,67.91,0,0,1,18.38-18.71c1.28-.87.07-3-1.22-2.09Z" fill="#c6c6c6"/><path d="M304.85,200.28c-9.2-7.36-6.71,16.79-9.87,20.26-8.36,2.37-17.55-3.78-25.77-.95-12.36,8.66,25.22,25.51,36.64,17.25,10.41-5.62,9.93-33.6-2.12-37.65" fill="#c6c6c6"/><path d="M305.7,199.42c-1.52-1.19-3.5-2.33-5.44-1.39-1.6.79-2.39,2.58-2.91,4.19-1.45,4.46-1.42,9.29-2.19,13.89a17.48,17.48,0,0,1-.6,2.65,5.34,5.34,0,0,1-.31.73c-.11.28-.21.14,0,0a13.59,13.59,0,0,1-1.52.23c-4.41.55-8.79-.82-13.09-1.57a29,29,0,0,0-6.3-.57c-1.79.08-4,.25-5.4,1.42a6,6,0,0,0-2.39,4.35c-.15,3.92,3.76,7,6.65,9a48.24,48.24,0,0,0,14.95,6.49c4.86,1.26,10.28,2,15.24.82a14.66,14.66,0,0,0,9.89-8.93,32.8,32.8,0,0,0,1.81-17c-.71-5.17-2.61-10.84-6.93-14.11a11.35,11.35,0,0,0-3.1-1.63c-1.48-.52-2.11,1.82-.65,2.33,4.41,1.54,6.62,6.38,7.68,10.58a32.14,32.14,0,0,1,0,15.83c-1.1,4.22-3.24,8-7.33,9.91-3.86,1.78-8.7,1.32-12.75.57a49.62,49.62,0,0,1-14.46-5.08c-3-1.62-7.09-4-8.31-7.32a2.93,2.93,0,0,1,.41-3.1c1.8-2.33,5.95-1.84,8.55-1.5,4,.51,7.87,1.7,11.9,2a17.25,17.25,0,0,0,5.86-.43,2.62,2.62,0,0,0,1.76-1.86,21,21,0,0,0,1.11-5.28c.29-2.19.49-4.4.8-6.59a25.35,25.35,0,0,1,1.34-6,4.82,4.82,0,0,1,1-1.65,1.34,1.34,0,0,1,1-.38,4.71,4.71,0,0,1,2.08,1c1.21,1,2.94-.75,1.71-1.71Z" fill="#c6c6c6"/><path d="M155.54,189.36c-22,48.06-9.86,81.6,2.93,129.85.52,5.06,6.24,6.68,7.76,1.18-11.73-39.29-13.1-81.12-4.86-122.06.5-2.91,1-6.19-.77-8.6s-6.54-2.14-6.8.8" fill="#c6c6c6"/><path d="M154.5,188.75c-8.18,17.91-12.85,37.06-12.29,56.81.52,18.49,5.06,36.57,9.81,54.35q2,7.56,4.08,15.12l1,3.59a19.45,19.45,0,0,0,.78,2.93,5.8,5.8,0,0,0,3,3.12,4.4,4.4,0,0,0,4-.26,5.59,5.59,0,0,0,2.57-4,16.11,16.11,0,0,0-1-3.72c-.38-1.36-.76-2.72-1.12-4.09-.69-2.65-1.35-5.31-1.95-8a247.09,247.09,0,0,1-5.79-64.68,261.26,261.26,0,0,1,3.46-33c.46-2.76,1-5.5,1.52-8.25a18.48,18.48,0,0,0,.34-6.46c-.62-3.57-3.85-6.24-7.53-5a3.82,3.82,0,0,0-2.71,3c-.2,1.53,2.13,2.18,2.34.65.18-1.33,1.46-1.69,2.66-1.51,1.89.28,2.72,1.93,2.93,3.7a21.73,21.73,0,0,1-.69,6.61c-.48,2.51-.94,5-1.35,7.54a264.09,264.09,0,0,0-3.28,30.35,251.07,251.07,0,0,0,4.21,60.32q1.45,7.5,3.39,14.9c.3,1.14.6,2.28.92,3.41s.88,2.56,1.1,3.85a2.46,2.46,0,0,1-2.15,2.58,3,3,0,0,1-2.67-2,17.24,17.24,0,0,1-.59-2.38l-1-3.81c-1.24-4.62-2.5-9.24-3.74-13.86-4.49-16.75-8.9-33.73-9.9-51.12a122,122,0,0,1,8.68-52.16c1-2.46,2-4.88,3.12-7.28.64-1.41-1.44-2.64-2.09-1.22Z" fill="#c6c6c6"/><path d="M244.28,132.7C177.8,126.63,122.57,212.33,147.66,277c11.24,22.5,11.23,33.36,12.49,42.17s33.87,40.59,80.83,41,74-21.75,76.2-28.87.22-15.79,5.39-20.88C373.5,260.16,350.18,135,244.28,132.7Z" fill="none" stroke="#fdfdfd" stroke-linecap="round" stroke-linejoin="round" stroke-width="3.23"/><path d="M159.57,314.53s13.76-61.14,15.25-98.46c1.43-35.87,16.31-93.57,110.38-74.64" fill="none" stroke="#fdfdfd" stroke-linecap="round" stroke-linejoin="round" stroke-width="1.61"/><path d="M306.07,153.27c43,47,46,78.73,4.15,135.49-6.33,12.69-57.88,45.24-69.24,71.4" fill="none" stroke="#fdfdfd" stroke-linecap="round" stroke-linejoin="round" stroke-width="1.61"/><path d="M332.69,217.57s6.66,2.89,8.14,6.84c0,0,4.25-.72,6.49,1.35" fill="none" stroke="#fdfdfd" stroke-linecap="round" stroke-linejoin="round" stroke-width="2.42"/><path d="M332.16,226.74s5.23,1.62,6.48,9.37c0,0,4.95.54,7.19,2.6" fill="none" stroke="#fdfdfd" stroke-linecap="round" stroke-linejoin="round" stroke-width="2.42"/><path d="M329.7,238.71s4.71-.86,5.95,6.9c0,0,5,2.29,7.19,4.36" fill="none" stroke="#fdfdfd" stroke-linecap="round" stroke-linejoin="round" stroke-width="2.42"/><path d="M324.8,247.33a12.72,12.72,0,0,1,5.94,8.34s4.41,3.73,6.65,5.79" fill="none" stroke="#fdfdfd" stroke-linecap="round" stroke-linejoin="round" stroke-width="2.42"/><path d="M320.31,257.22c.74-.14,4.3,5.18,4.12,9.09,0,0,4.31.78,4.85,3.31" fill="none" stroke="#fdfdfd" stroke-linecap="round" stroke-linejoin="round" stroke-width="2.42"/><path d="M329.28,206.14s4.48-4,10.73,4.36c0,0,1.32-1.58,4.69-.94" fill="none" stroke="#fdfdfd" stroke-linecap="round" stroke-linejoin="round" stroke-width="2.42"/><path d="M327.46,196.53s4.71-3,9.19,3.1c0,0,1.7-2.34,4-1.92" fill="none" stroke="#fdfdfd" stroke-linecap="round" stroke-linejoin="round" stroke-width="2.42"/><path d="M324.26,185.53s2-2.77,7.46,3.53a3.72,3.72,0,0,1,3.54-2.07" fill="none" stroke="#fdfdfd" stroke-linecap="round" stroke-linejoin="round" stroke-width="2.42"/><path d="M318.36,176.07s1.65-2,6.44,1.36l2.66-3.33" fill="none" stroke="#fdfdfd" stroke-linecap="round" stroke-linejoin="round" stroke-width="2.42"/><path d="M311.43,166.09s4.43-.28,6.93,2.15l1.8-2.63" fill="none" stroke="#fdfdfd" stroke-linecap="round" stroke-linejoin="round" stroke-width="2.42"/><path d="M302.55,157.22a10.18,10.18,0,0,1,10.8,2.77" fill="none" stroke="#fdfdfd" stroke-linecap="round" stroke-linejoin="round" stroke-width="2.42"/><path d="M292.16,151.81s7.14-3.29,10.53-.92" fill="none" stroke="#fdfdfd" stroke-linecap="round" stroke-linejoin="round" stroke-width="2.42"/><path d="M315.58,266.65s2.35,7.33,1.6,10.84c0,0,3.67.05,4.92,2.27" fill="none" stroke="#fdfdfd" stroke-linecap="round" stroke-linejoin="round" stroke-width="1.61"/><path d="M311,275.71s2.1,5.1,1.74,8.6c0,0,3.53,2.94,3.53,4.88" fill="none" stroke="#fdfdfd" stroke-linecap="round" stroke-linejoin="round" stroke-width="1.61"/><path d="M306,284.89s1.73,5.1,1.52,7.75c0,0,4.64,2.23,4.92,5.42" fill="none" stroke="#fdfdfd" stroke-linecap="round" stroke-linejoin="round" stroke-width="1.61"/><path d="M298.12,291.73s1.24,7.25,0,10c0,0,5.4.57,6.24,2.72" fill="none" stroke="#fdfdfd" stroke-linecap="round" stroke-linejoin="round" stroke-width="1.61"/><path d="M288.72,298.66a19.12,19.12,0,0,1,1.5,9.9,7.64,7.64,0,0,1,6.5,2.13" fill="none" stroke="#fdfdfd" stroke-linecap="round" stroke-linejoin="round" stroke-width="1.61"/><path d="M279.79,304.94c1.54.88,2.36,2.73,2.9,4.33a12.09,12.09,0,0,1,.83,4.44.92.92,0,0,0,.91.91,9.7,9.7,0,0,1,5.86,2.36c.87.76,2.16-.52,1.28-1.29a11.63,11.63,0,0,0-7.14-2.89l.91.91a14.09,14.09,0,0,0-1-5.2c-.7-2-1.76-4.06-3.64-5.14a.91.91,0,0,0-.92,1.57Z" fill="#fdfdfd"/><path d="M270.2,313.64a11.65,11.65,0,0,1,3.57,9.38.91.91,0,0,0,.91.91,16.4,16.4,0,0,1,7.52,1.23.92.92,0,0,0,1.24-.32.91.91,0,0,0-.32-1.24,18.26,18.26,0,0,0-8.44-1.48l.91.9a13.41,13.41,0,0,0-4.11-10.66c-.85-.81-2.13.47-1.28,1.28Z" fill="#fdfdfd"/><path d="M261.73,320.56a11.81,11.81,0,0,1,4.2,8.81,1.23,1.23,0,0,0,1.21,1.21,13.92,13.92,0,0,1,7.62,2.09c1.33.83,2.54-1.27,1.22-2.09a16.38,16.38,0,0,0-8.84-2.42l1.22,1.21a14.22,14.22,0,0,0-4.92-10.52,1.24,1.24,0,0,0-1.71,0,1.22,1.22,0,0,0,0,1.71Z" fill="#fdfdfd"/><path d="M253.51,330.17a25.68,25.68,0,0,1,3.49,3.18,3.37,3.37,0,0,1,.9,3.59c-.4,1,.7,1.59,1.49,1.49a23.81,23.81,0,0,1,7.2.11,1.25,1.25,0,0,0,1.49-.84,1.22,1.22,0,0,0-.85-1.49,27.78,27.78,0,0,0-8.49-.12l1.49,1.49c1.58-3.87-2.4-7-5-9.12a1.25,1.25,0,0,0-1.71,0,1.21,1.21,0,0,0,0,1.71Z" fill="#fdfdfd"/><path d="M246.44,338.38c1.16,2,2.44,4.42,4.49,5.68,1.46.89,3.21.86,4.87.95a27.54,27.54,0,0,1,4.05.53,1.25,1.25,0,0,0,1.49-.85,1.23,1.23,0,0,0-.85-1.49,54.67,54.67,0,0,0-6.51-.71l-.26,0s-.32,0-.12,0-.07,0-.12,0l-.27-.05-.47-.13-.22-.08s.19.1,0,0a3.3,3.3,0,0,1-.41-.23l-.21-.14c-.16-.1.14.14-.06,0a9.35,9.35,0,0,1-.89-.89c-.24-.29-.27-.33-.46-.59s-.39-.56-.57-.84c-.48-.74-.93-1.49-1.37-2.26a1.21,1.21,0,0,0-2.09,1.23Z" fill="#fdfdfd"/><path d="M240.72,344.66a17.65,17.65,0,0,0,3.75,4.33,8,8,0,0,0,5.54,1.72,1.24,1.24,0,0,0,1.21-1.21,1.22,1.22,0,0,0-1.21-1.21,5,5,0,0,1-2.31-.24l-.32-.11c-.21-.08.05,0-.07,0a4.18,4.18,0,0,1-.56-.28l-.48-.29-.27-.2c-.18-.12,0,0-.08-.05a12.71,12.71,0,0,1-1.72-1.72,2.11,2.11,0,0,0-.19-.23l-.1-.13-.36-.48c-.25-.36-.5-.72-.74-1.09a1.25,1.25,0,0,0-1.66-.43,1.22,1.22,0,0,0-.43,1.66Z" fill="#fdfdfd"/><path d="M236.8,349.39a13,13,0,0,0,6.24,5,1.21,1.21,0,0,0,1.49-.84,1.24,1.24,0,0,0-.84-1.49l-.21-.08c-.17-.07-.06-.07,0,0-.07-.08-.29-.13-.39-.18-.26-.12-.52-.26-.77-.4s-.49-.3-.73-.47l-.36-.25-.08-.06c.15.11-.07-.06-.08-.07a10.36,10.36,0,0,1-1.23-1.16c-.1-.1-.2-.21-.29-.32l-.14-.17s-.17-.23-.07-.08,0-.06-.06-.09l-.13-.17-.27-.4a1.21,1.21,0,0,0-2.09,1.23Z" fill="#fdfdfd"/><path d="M244.75,355.78a19.62,19.62,0,0,0,5-.23.9.9,0,0,0,.63-1.12.92.92,0,0,0-1.11-.63l-.59.09h0l-.18,0-.27,0c-.38,0-.76.07-1.14.08a18,18,0,0,1-2.32-.06.91.91,0,0,0-.91.91.94.94,0,0,0,.91.91Z" fill="#fdfdfd"/><path d="M232.86,354.45a26.49,26.49,0,0,0,7.95,5.37,1.25,1.25,0,0,0,1.66-.44,1.22,1.22,0,0,0-.44-1.65,24.26,24.26,0,0,1-7.46-5,1.23,1.23,0,0,0-1.71,0,1.24,1.24,0,0,0,0,1.72Z" fill="#fdfdfd"/><path d="M278.4,140.19a36.81,36.81,0,0,1,3.1,2.89c.24.26.47.52.7.79l.13.17c.22.27-.14-.19.07.09l.28.38a11.37,11.37,0,0,1,1.05,1.86,1.22,1.22,0,0,0,1.66.43,1.23,1.23,0,0,0,.43-1.65c-1.21-2.72-3.49-4.77-5.71-6.67a1.21,1.21,0,1,0-1.71,1.71Z" fill="#fdfdfd"/><path d="M269.32,140.23a11,11,0,0,1,.86,1l.12.15c.1.12-.14-.2-.05-.07l.18.24c.13.19.26.37.38.56a12.17,12.17,0,0,1,.63,1.11l.27.58c.07.15,0,0,0-.08a.78.78,0,0,0,.05.14l.14.35a1.34,1.34,0,0,0,.55.73,1.28,1.28,0,0,0,.94.12,1.23,1.23,0,0,0,.84-1.49,13.81,13.81,0,0,0-3.16-5,1.21,1.21,0,0,0-1.72,1.71Z" fill="#fdfdfd"/><path d="M257.39,133.93a3.93,3.93,0,0,1-1.74,2,1.2,1.2,0,0,0-.57,1.21,1.22,1.22,0,0,0,.86,1,17.86,17.86,0,0,1,2.08,1,20.07,20.07,0,0,1,2.08,1.36l.77.63c.31.28.62.56.91.85a19.07,19.07,0,0,1,1.69,1.91,1.23,1.23,0,0,0,1.72,0,1.24,1.24,0,0,0,0-1.71,20.31,20.31,0,0,0-8.6-6.38l.29,2.21a6.18,6.18,0,0,0,2.6-2.89,1.26,1.26,0,0,0-.43-1.66,1.22,1.22,0,0,0-1.66.43Z" fill="#fdfdfd"/><path d="M245.07,133.84a6.06,6.06,0,0,1-.94,2.45,1.21,1.21,0,0,0,0,1.22,1.26,1.26,0,0,0,1.05.6c-.14,0,0,0,0,0l.25.05a4.21,4.21,0,0,1,.48.12,4,4,0,0,1,.79.32,6.66,6.66,0,0,1,.85.52l.13.09.12.1c.14.12.28.24.41.37l.35.36a1.46,1.46,0,0,0,.16.19s.11.15,0,.05a7.4,7.4,0,0,1,.53.84c.08.14.15.29.22.44-.06-.15,0,.06,0,.11s.05.16.08.23a7.36,7.36,0,0,1,.25,1,1.23,1.23,0,0,0,1.49.84,1.24,1.24,0,0,0,.84-1.49,8.24,8.24,0,0,0-7.08-6.61l1,1.82a8.52,8.52,0,0,0,1.27-3.67,1.22,1.22,0,0,0-1.21-1.21,1.23,1.23,0,0,0-1.21,1.21Z" fill="#fdfdfd"/><path d="M231.68,134.57a9.67,9.67,0,0,0,2.38,3.44,24.26,24.26,0,0,0,3.07,2.26l.67.46.35.24s.39.3.17.12a9,9,0,0,1,1.1,1l0-.06.11.15c.07.11.14.21.2.32a2.53,2.53,0,0,1,.16.33c-.13-.29,0,.09,0,.15s.06.26.09.38,0,.13,0,0c0,.07,0,.14,0,.21a3.23,3.23,0,0,1,0,.44s0,.49,0,.26a1.26,1.26,0,0,0,.85,1.49,1.22,1.22,0,0,0,1.49-.84,5.77,5.77,0,0,0-.33-3.21,6,6,0,0,0-1.55-2,22,22,0,0,0-2.35-1.7c-.39-.26-.79-.52-1.17-.8l-.28-.2-.13-.1c-.2-.15-.39-.31-.58-.48s-.41-.38-.6-.58-.43-.47-.5-.56-.31-.45-.43-.65-.15-.26-.22-.39l-.15-.32a1.25,1.25,0,0,0-1.49-.84,1.21,1.21,0,0,0-.84,1.49Z" fill="#fdfdfd"/><path d="M221.25,137.75a6.09,6.09,0,0,1,1.51,1.94c.2.39.35.83.58,1.21a1.53,1.53,0,0,0,1.21.63,11.63,11.63,0,0,1,3.38,1.15,7.87,7.87,0,0,1,1.43.94,4.17,4.17,0,0,1,1,1.19,1.67,1.67,0,0,1,.28.6,3.37,3.37,0,0,1,.12.48c.05.26,0-.08,0,.17a4.05,4.05,0,0,1-.39,1.88,1.21,1.21,0,0,0,.84,1.49,1.24,1.24,0,0,0,1.49-.84,5.75,5.75,0,0,0-1.63-6.64,12.56,12.56,0,0,0-6.41-2.83l.72.56A9.81,9.81,0,0,0,223,136a1.21,1.21,0,0,0-1.71,1.71Z" fill="#fdfdfd"/><path d="M207.07,141c.65,2.42,1.59,5.82,4.36,6.58a9.92,9.92,0,0,0,2.61.17,10,10,0,0,1,1.34.07c-.31,0,.11,0,.17,0l.36.09a5.74,5.74,0,0,1,.8.26l.33.15.47.26a7.21,7.21,0,0,1,.92.64,15.49,15.49,0,0,1,2.33,2.39,1.21,1.21,0,0,0,1.71-1.71c-1.91-2.34-4.28-4.29-7.38-4.56-.83-.08-1.66,0-2.48,0l-.27,0s.24,0,0,0a5.44,5.44,0,0,1-.54-.15s.18.11,0,0l-.23-.14c-.23-.14.09.11-.06,0l-.26-.25-.12-.15c-.09-.12-.18-.24-.26-.37a10.28,10.28,0,0,1-.49-.93,20.08,20.08,0,0,1-.95-2.9,1.21,1.21,0,0,0-2.33.65Z" fill="#fdfdfd"/><path d="M198.85,146.05a23.59,23.59,0,0,1,3.83,5.81,1.23,1.23,0,0,0,1.37.56,5.87,5.87,0,0,1,7.65,3.2c.7,1.39,2.79.17,2.09-1.22a8.27,8.27,0,0,0-10.38-4.32l1.36.56a26.14,26.14,0,0,0-4.2-6.3c-1-1.16-2.75.56-1.72,1.71Z" fill="#fdfdfd"/><path d="M188.73,156.3a7.23,7.23,0,0,1,3.92,2.61c.6.7.95,1.4,2,1.34.63,0,1.27-.07,1.9-.08,2.17,0,5,.18,5.75,2.62.47,1.48,2.81.85,2.34-.64-1.41-4.5-6.39-4.54-10.3-4.3l.86.36c-1.5-1.94-3.33-3.71-5.81-4.25-1.52-.33-2.16,2-.64,2.34Z" fill="#fdfdfd"/><path d="M182.22,167.21a8.9,8.9,0,0,1,3.11,2.68,1.2,1.2,0,0,0,1.18.31c4-1.48,8.89-.69,11.52,2.9a1.24,1.24,0,0,0,1.65.43,1.21,1.21,0,0,0,.44-1.65,12.32,12.32,0,0,0-14.25-4l1.17.31a11.1,11.1,0,0,0-4.18-3.29,1.22,1.22,0,0,0-1.49.84,1.25,1.25,0,0,0,.85,1.49Z" fill="#fdfdfd"/><path d="M177.32,179.74a17.17,17.17,0,0,1,2.71,2.94,1.23,1.23,0,0,0,1.65.43c2.8-1.69,7-3.26,9.88-.94a1.24,1.24,0,0,0,1.71,0,1.22,1.22,0,0,0,0-1.71c-3.86-3.08-8.92-1.79-12.81.56l1.66.44A19.73,19.73,0,0,0,179,178c-1.17-1-2.89.69-1.71,1.71Z" fill="#fdfdfd"/><path d="M172.45,192.23a23.78,23.78,0,0,1,3.52,4,1.23,1.23,0,0,0,2.09,0,8.73,8.73,0,0,1,9.29-3.36,1.21,1.21,0,0,0,.64-2.34A11.22,11.22,0,0,0,176,195h2.09a27.19,27.19,0,0,0-3.89-4.47c-1.15-1.06-2.87.65-1.72,1.71Z" fill="#fdfdfd"/><path d="M170,205.68q2.3,1.71,4.41,3.63a1.23,1.23,0,0,0,1.72,0c1.93-2.19,4.66-4.95,7.87-4.07a1.21,1.21,0,0,0,.65-2.33c-4.15-1.14-7.67,1.78-10.24,4.69h1.72c-1.57-1.42-3.21-2.75-4.9-4a1.22,1.22,0,0,0-1.66.43,1.25,1.25,0,0,0,.43,1.66Z" fill="#fdfdfd"/><path d="M168.75,217.42a26.82,26.82,0,0,1,5,3.71,1.22,1.22,0,0,0,1.9-.24l.14-.22c.14-.21-.12.15,0,0l.12-.14c.2-.22.4-.44.61-.65a20.46,20.46,0,0,1,1.62-1.47,13.24,13.24,0,0,1,1.57-1.14,7.29,7.29,0,0,1,.78-.42c-.25.11,0,0,.14,0s-.25,0,0,0a1.21,1.21,0,0,0,0-2.42c-1.49,0-2.93,1.27-4,2.15a12.87,12.87,0,0,0-3.06,3.1l1.9-.24a29.38,29.38,0,0,0-5.51-4.09,1.21,1.21,0,0,0-1.22,2.09Z" fill="#fdfdfd"/><path d="M167.47,227.78a23.76,23.76,0,0,1,4.75,4.75,1.23,1.23,0,0,0,2.09,0,9.49,9.49,0,0,1,5.05-4,1.21,1.21,0,0,0-.65-2.33,12,12,0,0,0-6.49,5.13h2.09a27.72,27.72,0,0,0-5.62-5.62,1.21,1.21,0,0,0-1.65.43,1.25,1.25,0,0,0,.43,1.66Z" fill="#fdfdfd"/><path d="M167.38,238.7c-.26,0-.33-.06-.21,0-.21-.09-.25-.11-.14-.05a2,2,0,0,0,.19.12,5.81,5.81,0,0,1,.57.4l.24.19.31.26.78.66c.93.82,1.85,1.66,2.73,2.55a1.23,1.23,0,0,0,1.9-.25,6.49,6.49,0,0,1,5.75-2.41,1.21,1.21,0,0,0,0-2.42,8.9,8.9,0,0,0-7.84,3.61l1.9-.25c-1-1-2-1.92-3.07-2.83-.88-.76-1.9-1.83-3.11-2a1.21,1.21,0,0,0-1.21,1.21,1.25,1.25,0,0,0,1.21,1.21Z" fill="#fdfdfd"/><path d="M166.29,249.14a27.88,27.88,0,0,1,4,3.05,1.26,1.26,0,0,0,1.47.19,8.49,8.49,0,0,1,6.58-.33,1.21,1.21,0,0,0,.64-2.34,11,11,0,0,0-8.44.58l1.47.19a31.35,31.35,0,0,0-4.53-3.43c-1.33-.83-2.54,1.27-1.22,2.09Z" fill="#fdfdfd"/><path d="M163.54,259.39c1.27,1.87,2.63,3.68,4.06,5.43a1.24,1.24,0,0,0,1.47.19,6.59,6.59,0,0,1,6.73.38A1.21,1.21,0,0,0,177,263.3a9,9,0,0,0-9.17-.38l1.47.19c-1.31-1.59-2.53-3.24-3.69-4.94a1.24,1.24,0,0,0-1.65-.44,1.22,1.22,0,0,0-.44,1.66Z" fill="#fdfdfd"/><path d="M163.73,272.19c-.2-.15.15.16.19.2a4.4,4.4,0,0,1,.35.39c.21.25.39.51.6.81.39.57.75,1.16,1.1,1.75a3.37,3.37,0,0,0,.94,1.26,2.41,2.41,0,0,0,1.25.23c1.26,0,2.53-.09,3.79-.08.75,0,1.5,0,2.24.09a7,7,0,0,1,.84.13l.45.11c.05,0,.48.17.21.06a1.25,1.25,0,0,0,1.65-.44,1.21,1.21,0,0,0-.43-1.65c-2.6-1.1-5.66-.69-8.41-.64h-.59c-.16,0-.32-.09.06,0l-.07,0a1.08,1.08,0,0,1,.63.5,5.85,5.85,0,0,0-.69-1.15A12.55,12.55,0,0,0,165,270.1a1.21,1.21,0,0,0-1.65.44,1.23,1.23,0,0,0,.43,1.65Z" fill="#fdfdfd"/><path d="M162.71,279.66c.1,2,.36,4.43,2.22,5.59,1.35.84,3.1.8,4.6,1.14a11,11,0,0,1,3.41,1.39c1,.62,1.91-.95.91-1.56a14.54,14.54,0,0,0-5.61-1.9,10.13,10.13,0,0,1-2.05-.45c-.09,0,.06,0,.06,0l-.12-.06-.17-.09-.2-.12c-.17-.1.07.08-.07-.06a3,3,0,0,1-.31-.31c.12.13,0,0-.06-.08l-.15-.26a1.69,1.69,0,0,1-.2-.46,7.1,7.1,0,0,1-.22-.79,12.24,12.24,0,0,1-.22-2c-.06-1.16-1.88-1.17-1.82,0Z" fill="#fdfdfd"/><path d="M160.81,289.25a25.64,25.64,0,0,0,2,6.29.91.91,0,0,0,1.24.33.93.93,0,0,0,.33-1.24,23.76,23.76,0,0,1-1.83-5.86.91.91,0,1,0-1.75.48Z" fill="#fdfdfd"/><path d="M163.41,295.6a12.41,12.41,0,0,0,8.18,1.84.94.94,0,0,0,.91-.91.92.92,0,0,0-.91-.91,10.85,10.85,0,0,1-7.26-1.59c-1-.63-1.9.94-.92,1.57Z" fill="#fdfdfd"/><path d="M162.26,301.9a11.16,11.16,0,0,0,9.64,4.71c1.16-.07,1.16-1.88,0-1.81a9.32,9.32,0,0,1-8.07-3.82.91.91,0,1,0-1.57.92Z" fill="#fdfdfd"/><path d="M160.73,306.7a14.63,14.63,0,0,0,8.84,6.34c1.14.27,1.62-1.48.49-1.75a12.73,12.73,0,0,1-7.76-5.5c-.63-1-2.2-.08-1.57.91Z" fill="#fdfdfd"/><path d="M159.39,312c1.46,2.75,3.26,5.64,6.42,6.59a.91.91,0,0,0,.48-1.75l-.51-.18c-.2-.07.05,0-.11,0l-.24-.12a7.34,7.34,0,0,1-.89-.55c-.23-.16.12.11-.1-.07l-.2-.17-.39-.35a10.41,10.41,0,0,1-.71-.78l-.17-.21c-.12-.14,0,.07-.08-.1l-.31-.43c-.2-.3-.4-.6-.59-.91-.36-.6-.7-1.22-1-1.84a.9.9,0,1,0-1.56.91Z" fill="#fdfdfd"/><path d="M325.53,111.38c-3.78,5.53-7.17,22.4,4.63,15.73.31,3.16-3.1,21.07,3.68,12.43,4.29,6,4.49,14.48,12,17.13,2.34,7.4.6,13.59,10.72,16.58-1.16-8.68,2.35-28.81-5.52-33.36-4.3-2.13,3.25-17.32-4-14-9.46,1.21-3.68-13-9.8-16.13-2.77-1.44-7.32-.31-8.3-3.28a30.35,30.35,0,0,1-2.89,5.24" fill="#f9f9f9"/><path d="M133.45,438.85s155.28-12.31,227.71,2.37" fill="none" stroke="#636363" stroke-linecap="round" stroke-linejoin="round"/><path d="M121.8,180.84s2.11,28.62,0,44.25.11,29.7.11,32.87,1.9,33.07,1.9,33.07" fill="none" stroke="#262521" stroke-linecap="round" stroke-linejoin="round" stroke-width="3"/><path d="M371.33,188.66s5.79,47.28,0,75.34l.81,27.56" fill="none" stroke="#262521" stroke-linecap="round" stroke-linejoin="round" stroke-width="3"/><path d="M372.14,291.56q-.27,61.72-.62,123.46c-.81,9-2.68,16.41-3.55,25.44-1,10.07,1.34,17.05-1.5,25.64-.59,1.76-2,1.66-3.35,1.43-44.59-7.74-101.66-5.72-146.65-2.92-24.6.57-58.62-1.68-83,2.09-5.23.59-5.68.27-6.62-4.83-1.35-11.26,1.94-18.53.53-29.31-6.15-46.82-1.39-94.37-3.6-141.53-1.42,2.83-2.94,5.6-4.29,8.46-2.37,10.68-17.5,9.3-11.81,16.18,11.11,7.95,6.41,21.38,5.15,32.56-.25,3.15-1.35,6.27-.37,9.58.51,8.44-3.19,16.94-4.38,25.31-1.5,8-2.61,15.83-1.54,23.93a5.1,5.1,0,0,1-1.13,3.3c-5.71,6.28-7.75,14-9.19,22.06-.57,3.18-.61,3-3.74,2-12.38-3.52-26.09-4.38-38.6-1.18-1.39.34-2.11,0-2.41-1.47-2-7.76-2.18-16.67-8.49-22.43a6.62,6.62,0,0,1-1.33-3.22A144.41,144.41,0,0,1,39,372.86c-1.91-63,2.6-126.93,26.19-186,13.61-35.43,24.56-73.32,48.07-103.67,27.32-18.2,60-23.76,90.46-34.78a3.16,3.16,0,0,1,2.72.43c5,5.55,11.46,8.41,18.56,9.67,19.19,2.43,41.29,5.55,58.65-4.88,2.85-1.27,4.2-6.53,7.87-5,29.12,10.49,61,14.41,87.44,31.58,15.94,14.59,21.63,38,30.45,57.21,27.81,67.48,58,137.39,51.05,212.08-1.19,18.65-.23,37.45-3.28,55.95-.49,4.66-5.21,7.1-5.56,11.78-1.22,5.28-2.08,10.65-2.91,16-.4,2.6-.41,2.83-3.08,2.33-12.48-2.66-25.26-5.49-37.8-1.58-8.34-.15-8.13-15.56-11.44-21.4-6.28-7.37-3.61-9-5.33-17.64-.9-9.7-4.68-20.27.79-29.26,2-3.53,1.86-7.05.51-10.66-4.9-11.28-7.4-23.41-10.45-35.29-1.07-4.3-1.31-8.49,1.61-12.34,1.51-7.23-10.43-8.68-10.93-15.93Z" fill="none" stroke="#262521" stroke-linecap="round" stroke-linejoin="round" stroke-width="3"/><path d="M194.62,56.1c2.77,14.3,15,50.28,52.49,50.23,39.57,0,51.53-38,53.68-50.23" fill="none" stroke="#636363" stroke-linecap="round" stroke-linejoin="round"/></svg>