<svg xmlns="http://www.w3.org/2000/svg" width="500" height="550" viewBox="0 0 500 550"><defs><clipPath id="a"><path d="M409.37 141.51c-8.82-19.21-14.51-42.61-30.45-57.2-26.39-17.18-87.83-31.74-87.83-31.74s-3.33 44.71-43 46.53-43.68-46.73-43.68-46.73-63.87 16.71-91.19 34.91C89.71 117.63 78.76 155.52 65.15 191 41.56 250 37.05 313.94 39 377c-.35 11.19 3.49 22.28 5.72 33.31a6.66 6.66 0 001.28 3.17c6.31 5.76 3.46 14.67 5.49 22.43.3 1.47 1 1.81 2.41 1.47 12.51-3.2 26.22-2.34 38.6 1.18 3.13.94 3.17 1.12 3.74-2.05 1.44-8 10.36-41.32 11.86-49.29 1.19-8.37 4.89-16.88 4.38-25.31-1-3.31.12-6.43.37-9.58 1.26-11.18 6-24.61-5.15-32.56-5.69-6.88 9.44-5.51 11.81-16.19 1.35-2.85 2.87-5.63 4.29-8.45 2.21 47.15-2.55 94.71 3.6 141.53 1.41 10.78-1.88 18-.53 29.31.94 5.1 1.39 5.42 6.62 4.82 24.35-3.76 58.37-1.51 83-2.09 45-2.79 102.06-4.81 146.65 2.92 1.35.24 2.76.34 3.35-1.43 2.84-8.59.53-15.56 1.5-25.63.87-9 2.74-16.47 3.55-25.45q.3-61.71.62-123.46l.41-.08c.5 7.25 12.44 8.69 10.93 15.93-2.92 3.84-2.68 8-1.61 12.33 3.05 11.88 5.55 24 10.45 35.3 1.35 3.61 1.5 7.12-.51 10.65-5.47 9-1.69 19.57-.79 29.27 1.72 8.67-.95 10.26 5.33 17.63 3.31 5.85 3.1 21.26 11.44 21.4 12.54-3.9 25.32-1.07 37.8 1.58 2.67.5 2.68.28 3.08-2.32.83-5.36 1.69-10.73 2.91-16 .35-4.69 5.07-7.12 5.56-11.78 3.05-18.51 2.09-37.3 3.28-56 6.93-74.65-23.26-144.56-51.07-212.05z" fill="none"/></clipPath></defs><path d="M365.26 416.93s-1.72 60.44-5 62.62-151.41 0-167.06-3.27-53.13 5-57.87 4.15-5.46-10.89-3.64-18.53 1.37-45 1.37-45z" fill="#898989" stroke="#262521" stroke-linecap="round" stroke-linejoin="round" stroke-width="3"/><path fill="#898989" d="M200.72 70.19h104.81v38.7H200.72z"/><path d="M409.37 141.51c-8.82-19.21-14.51-42.61-30.45-57.2-26.39-17.18-87.83-31.74-87.83-31.74s-3.33 44.71-43 46.53-43.68-46.73-43.68-46.73-63.87 16.71-91.19 34.91C89.71 117.63 78.76 155.52 65.15 191 41.56 250 37.05 313.94 39 377c-.35 11.19 3.49 22.28 5.72 33.31a6.66 6.66 0 001.28 3.17c6.31 5.76 3.46 14.67 5.49 22.43.3 1.47 1 1.81 2.41 1.47 12.51-3.2 26.22-2.34 38.6 1.18 3.13.94 3.17 1.12 3.74-2.05 1.44-8 10.36-41.32 11.86-49.29 1.19-8.37 4.89-16.88 4.38-25.31-1-3.31.12-6.43.37-9.58 1.26-11.18 6-24.61-5.15-32.56-5.69-6.88 9.44-5.51 11.81-16.19 1.35-2.85 2.87-5.63 4.29-8.45 2.21 47.15-2.55 94.71 3.6 141.53 1.41 10.78-1.88 18-.53 29.31.94 5.1 1.39 5.42 6.62 4.82 24.35-3.76 58.37-1.51 83-2.09 45-2.79 102.06-4.81 146.65 2.92 1.35.24 2.76.34 3.35-1.43 2.84-8.59.53-15.56 1.5-25.63.87-9 2.74-16.47 3.55-25.45q.3-61.71.62-123.46l.41-.08c.5 7.25 12.44 8.69 10.93 15.93-2.92 3.84-2.68 8-1.61 12.33 3.05 11.88 5.55 24 10.45 35.3 1.35 3.61 1.5 7.12-.51 10.65-5.47 9-1.69 19.57-.79 29.27 1.72 8.67-.95 10.26 5.33 17.63 3.31 5.85 3.1 21.26 11.44 21.4 12.54-3.9 25.32-1.07 37.8 1.58 2.67.5 2.68.28 3.08-2.32.83-5.36 1.69-10.73 2.91-16 .35-4.69 5.07-7.12 5.56-11.78 3.05-18.51 2.09-37.3 3.28-56 6.93-74.65-23.26-144.56-51.07-212.05z" fill="#d8d8d8" stroke="#262521" stroke-linecap="round" stroke-linejoin="round" stroke-width="3"/><g clip-path="url(#a)" fill="#262521" stroke="#262521" stroke-linecap="round" stroke-linejoin="round"><path d="M179 76.15s8.57 19.16 12.06 21.37 5.63.3 5.81-.17 1.79-7.25 1.63-9.18-1.77-10.28-1.77-10.28A56.65 56.65 0 01202.27 90c1.88 6.32 3.26 13.14 2.5 15.2s-5 5.88-5 5.88L199 116s-8.25-2.15-11.11-2.46-6.58 1-9.35.34-10.78-9.49-12.67-14-3-10.31-2.62-10.53c0 0 3.6 9.51 9.31 12.71s7.42 3.71 9.12 1.42 1.26-4.86-.25-7-12.29-16.73-12-17.78 7.43 11.3 11.17 11.58 1.14-4.18.77-5.44-3.56-8.61-2.37-8.69zM144.72 117.17s1 21 3.48 24.3 5.14 2.32 5.48 1.95 4.29-6.12 4.84-8 2.09-10.23 2.09-10.23a57.09 57.09 0 01.74 13.32c-.55 6.56-1.73 13.42-3.19 15.07s-6.83 3.66-6.83 3.66l-2.46 4.24s-6.91-5-9.46-6.33-6.5-1.43-8.83-3.07-6.6-12.75-6.73-17.65.89-10.72 1.38-10.77c0 0-.09 10.17 4.07 15.23s5.56 6.14 8 4.63 2.94-4.08 2.31-6.64-5.38-20-4.73-20.92 2.81 13.32 6.2 14.92 2.58-3.48 2.69-4.8-.21-9.27.95-8.91z" stroke-width=".87"/><path d="M220.79 163.47s14.65 11.56 18.32 11.86 4.56-2.08 4.51-2.53-1.59-6.45-2.51-7.9-5.63-7.37-5.63-7.37a50 50 0 019.36 7.29c4.08 4.2 8 9 8.24 10.94s-1.54 6.71-1.54 6.71l1.41 4.14s-7.39 1.7-9.77 2.64-4.76 3.52-7.23 4.12-12.41-3-15.76-5.8-6.67-6.87-6.41-7.22c0 0 6.76 6 12.58 6.17s7.37-.14 7.77-2.64-1-4.35-3.1-5.43-16.58-8.11-16.79-9 10.57 5.89 13.63 4.56-.83-3.77-1.65-4.61-6.35-5.4-5.43-5.93zM146.6 282.63s15.46-10.47 16.86-13.88-.61-5-1.05-5.06-6.63-.44-8.29 0-8.73 3.13-8.73 3.13a50.17 50.17 0 019.78-6.71c5.24-2.62 11-4.88 12.92-4.53s5.94 3.49 5.94 3.49l4.36-.08s-.61 7.56-.44 10.1 1.92 5.61 1.74 8.14-6.64 10.91-10.31 13.27-8.56 4.27-8.82 3.92c0 0 7.78-4.62 9.7-10.12s2.1-7.07-.17-8.21-4.45-.35-6.11 1.31-12.76 13.35-13.72 13.26 8.83-8.29 8.48-11.61-3.84-.35-4.89.18-6.99 4.44-7.25 3.4z" stroke-width=".77"/><path d="M119.41 339.61s24.85-7.75 28.09-11.73 1.19-6.89.64-7.18-8.68-3.26-11.07-3.35-12.92.68-12.92.68a70.15 70.15 0 0115.77-5c8.05-1.38 16.65-2.09 19.08-.85s6.51 7.06 6.51 7.06l5.86 1.65s-3.86 9.84-4.66 13.31.3 8.26-1 11.57-13.26 11.89-19.11 13.56-13.1 2.23-13.3 1.67c0 0 12.23-3 17-9.6s5.65-8.6 3.08-11-5.81-2.26-8.69-.72-22.4 12.69-23.65 12.18 15.12-7.51 16-12.08-5-2-6.6-1.74-11.11 3.08-11.03 1.57zM126.92 400s22.91 12.38 28 11.92 5.76-4 5.59-4.56-3.73-8.49-5.34-10.26-9.5-8.78-9.5-8.78a70.24 70.24 0 0114.61 7.78c6.61 4.79 13.12 10.46 13.93 13.06s-.51 9.6-.51 9.6l2.92 5.34s-9.75 4.11-12.79 6-5.7 6-8.95 7.4-17.77-1.19-23-4.21-10.8-7.84-10.53-8.39c0 0 10.72 6.64 18.76 5.48s10.1-2 10-5.5-2.43-5.73-5.55-6.72-24.73-7.18-25.24-8.42 15.94 5.58 19.82 3-2-5-3.36-5.94-9.98-5.8-8.86-6.8z" stroke-width="1.07"/><path d="M239 266.83s17 16.24 21.62 17.05 6-2.09 6-2.65-1.24-8.29-2.22-10.22-6.21-9.92-6.21-9.92A63.77 63.77 0 01269 271.34c4.63 5.76 9 12.25 9.05 14.71s-2.71 8.25-2.71 8.25l1.28 5.36s-9.48 1.27-12.58 2.17-6.39 3.86-9.56 4.33-15.22-5.26-19.11-9.14-7.56-9.4-7.2-9.82c0 0 7.78 8.34 15.07 9.23s9.28.69 10.07-2.41-.76-5.58-3.25-7.18-19.88-12.13-20-13.34 12.59 8.65 16.58 7.33-.6-4.83-1.52-6-7.37-7.4-6.12-8z" stroke-width=".97"/><path d="M84 383.49s14.77 14.08 18.73 14.78 5.18-1.81 5.17-2.3-1.07-7.19-1.93-8.86-5.38-8.59-5.38-8.59a55.17 55.17 0 019.41 8.88c4 5 7.78 10.62 7.85 12.75s-2.35 7.15-2.35 7.15l1.1 4.64s-8.21 1.11-10.9 1.88-5.54 3.36-8.28 3.76-13.2-4.56-16.57-7.93-6.55-8.14-6.24-8.5c0 0 6.75 7.22 13.07 8s8 .6 8.72-2.09-.66-4.84-2.82-6.23-17.22-10.51-17.35-11.56 10.9 7.5 14.37 6.35-.52-4.18-1.32-5.18S82.9 384 84 383.49z" stroke-width=".84"/><path d="M351.53 320.1s5.77 22.83 9.2 25.95 6.16 1.42 6.45.94 3.38-7.68 3.57-9.83 0-11.71 0-11.71a63.59 63.59 0 013.76 14.49c.85 7.33 1.06 15.14-.19 17.27s-6.69 5.53-6.69 5.53l-1.74 5.26s-8.69-4-11.79-4.87-7.47-.13-10.4-1.43-10.08-12.56-11.29-17.92-1.39-12-.86-12.15c0 0 2.14 11.2 7.83 15.85s7.48 5.53 9.8 3.33 2.33-5.13 1.08-7.81-10.35-20.86-9.83-22 6 14 10.12 15 2.07-4.4 1.9-5.87-2.27-10.13-.92-10.03z" stroke-width=".97"/><path d="M391.21 365.87s14.14 16.55 18.27 17.72 5.69-1.35 5.73-1.86-.35-7.75-1.07-9.61-4.77-9.71-4.77-9.71a58.74 58.74 0 019.05 10.46c3.71 5.73 7.09 12.11 6.93 14.38s-3.27 7.33-3.27 7.33l.66 5.05s-8.84.27-11.77.8-6.25 2.95-9.2 3.08-13.5-6.28-16.71-10.22-6.06-9.36-5.69-9.71c0 0 6.36 8.4 13 9.92s8.47 1.51 9.49-1.27-.17-5.2-2.31-6.91-17.12-13-17.15-14.16 10.75 9.14 14.55 8.31-.09-4.5-.83-5.65-6.12-7.51-4.91-7.95z" stroke-width=".9"/><path d="M168.69 140.1s20.73 11.93 25.44 11.63 5.39-3.49 5.24-4-3.21-7.88-4.65-9.55-8.51-8.29-8.51-8.29a64.11 64.11 0 0113.22 7.49c6 4.57 11.8 9.93 12.48 12.34s-.7 8.8-.7 8.8l2.55 5s-9 3.53-11.89 5.16-5.38 5.36-8.39 6.58-16.29-1.53-21.07-4.43-9.72-7.46-9.47-7.95c0 0 9.69 6.35 17.1 5.48s9.33-1.55 9.36-4.8-2.09-5.33-4.94-6.31-22.53-7.19-23-8.35 14.5 5.51 18.13 3.25-1.75-4.62-3-5.54-8.96-5.61-7.9-6.51z" stroke-width=".99"/><path d="M166.92 203.28s-5.25-7.68-8.4-9.35-14.41-.9-25 .77a75.55 75.55 0 00-10.38 2.47 30.22 30.22 0 00.29 3.29c2.72-.11 5.19-.17 6.3-.12 3.12.16 13.7 4.18 14.41 4.57s3.34 4.24-1 9.38c-2.25 2.7-12.25 6.63-21.28 9.77v2.86c2.92-.78 8.44-2.43 7.39 2.68-.44 2.14-3.5 4.66-7.17 7 0 .7 0 1.4.07 2.1 7.32-3.81 15.15-8.11 17.12-9.13 3.8-2 8-2.13 11.34 1.1s2.15 5.86-4.22 14.36-22.43 12.25-22.43 12.25c.27.76 9.82.11 17.5-2s23.52-13.08 25.22-17.39.35-10.57 1.45-15.1 6.33-17.33 6.33-17.33zM42.48 217.13S62.66 189.71 63 183s-4.08-8.18-4.89-8.07-11.68 3.3-14.26 5.07-13.09 10.72-13.09 10.72a92 92 0 0112.71-17.52c7.41-7.69 15.93-15.1 19.44-15.67s12.33 2.39 12.33 2.39l7.45-2.81s3.55 13.36 5.41 17.64 6.71 8.46 8 12.92-4.75 22.8-9.62 29.08-12.1 12.56-12.76 12.12c0 0 10.54-12.68 10.49-23.3s-.71-13.43-5.3-14-7.87 2.11-9.71 6-13.82 30.69-15.52 31.13 10.1-19.63 7.48-25.12-6.81 1.74-8.3 3.28-9.29 11.91-10.38 10.27z" stroke-width="1.41"/><path d="M266.77 113.41s27.08 26.14 34.38 27.48 9.57-3.27 9.56-4.17-1.9-13.27-3.45-16.36-9.82-15.92-9.82-15.92a101.41 101.41 0 0117.32 16.5c7.34 9.25 14.22 19.67 14.32 23.61s-4.42 13.16-4.42 13.16l2 8.58s-15.17 1.93-20.13 3.33-10.26 6.12-15.33 6.83-24.29-8.56-30.46-14.81-12-15.11-11.42-15.77c0 0 12.36 13.41 24 14.91s14.82 1.2 16.12-3.75-1.16-8.93-5.12-11.51-31.65-19.6-31.88-21.53 20 14 26.43 11.88-.91-7.72-2.38-9.57-11.68-11.93-9.72-12.89zM424.21 265.9c-.11-3.93-7-14.36-14.32-23.6a101.68 101.68 0 00-17.33-16.5s8.28 12.83 9.83 15.92 3.44 15.46 3.44 16.36-2.25 5.51-9.55 4.17c-4.54-.83-16.76-11.28-25.33-19v3.71c.28.31.5.56.64.74 1.47 1.85 8.78 7.5 2.37 9.57a5.86 5.86 0 01-2.84 0l.09 4.44c3.9 2.46 7.05 4.43 8.2 5.19 4 2.58 6.42 6.56 5.13 11.51-1.17 4.45-3.88 5.14-12.9 4.14a59 59 0 01-.2 10.47c6.22 3 12.31 5.16 14.85 4.81 5.06-.71 10.37-5.42 15.32-6.83s20.13-3.34 20.13-3.34l-2-8.57s4.58-9.25 4.47-13.19zM434.28 336s26.24-27 27.61-34.29-3.24-9.57-4.13-9.57-13.28 1.85-16.38 3.39-16 9.76-16 9.76A101.6 101.6 0 01442 288c9.27-7.31 19.72-14.14 23.66-14.23s13.14 4.47 13.14 4.47l8.59-1.95s1.88 15.17 3.26 20.14 6.08 10.28 6.77 15.35-8.65 24.26-14.93 30.41-15.15 11.93-15.81 11.35c0 0 13.46-12.31 15-23.95s1.25-14.82-3.7-16.13-8.93 1.12-11.53 5.08-19.72 31.57-21.65 31.79 14-20 12-26.38-7.72.88-9.58 2.34S435.23 338 434.28 336z" stroke-width="1.55"/><path d="M364 84.82s-13.68 15.92-17.66 17-5.48-1.31-5.52-1.81.36-7.47 1.06-9.27 4.62-9.35 4.62-9.35a56.9 56.9 0 00-8.76 10.07c-3.59 5.51-6.86 11.66-6.72 13.85s3.14 7.08 3.14 7.08l-.65 4.86s8.52.28 11.35.8 6 2.87 8.86 3 13-6 16.14-9.81 5.87-9 5.51-9.34c0 0-6.16 8.08-12.54 9.53s-8.17 1.43-9.15-1.25.18-5 2.25-6.66S372.51 91 372.54 89.94s-10.39 8.79-14.05 8 .1-4.34.82-5.44 5.86-7.25 4.69-7.68zM295.92 184.14s-5.49 20.26-8.6 23-5.51 1.17-5.76.74-2.89-6.9-3-8.82.15-10.43.15-10.43a56.81 56.81 0 00-3.57 12.85c-.87 6.53-1.17 13.48-.1 15.4s5.88 5 5.88 5l1.5 4.68s7.82-3.42 10.59-4.16 6.66 0 9.29-1.12 9.18-11.05 10.34-15.81 1.42-10.66.95-10.81c0 0-2.07 10-7.22 14s-6.75 4.81-8.79 2.81-2-4.6-.84-7 9.54-18.44 9.1-19.43-5.6 12.41-9.25 13.25-1.78-3.95-1.6-5.26 2.14-9.03.93-8.89zM397.29 136.65s-20.59 4.06-24.42 2.49-3.49-4.43-3.21-4.85 4.89-5.64 6.56-6.62 9.41-4.49 9.41-4.49a56.64 56.64 0 00-13.1 2.49c-6.24 2.12-12.61 4.92-13.85 6.73s-1.91 7.51-1.91 7.51l-3.52 3.42s6.52 5.49 8.42 7.64 3 6 5.12 7.84 14 3.33 18.75 2.26 10.19-3.45 10.12-3.93c0 0-9.85 2.54-15.76-.27s-7.31-3.92-6.42-6.63 3.24-3.84 5.88-3.85 20.75.38 21.44-.45-13.6.48-16-2.42 2.76-3.35 4-3.77 9.12-2.06 8.49-3.1zM455.64 193.57s-20.53-4.38-23.42-7.34-1.46-5.44-1.05-5.72 6.73-3.26 8.64-3.5 10.43-.42 10.43-.42a57.1 57.1 0 00-13-2.87c-6.56-.51-13.53-.44-15.38.73s-4.71 6.15-4.71 6.15l-4.58 1.75s3.83 7.62 4.72 10.35.37 6.65 1.62 9.21 11.52 8.57 16.34 9.48 10.72.84 10.85.36c0 0-10.05-1.53-14.38-6.45s-5.17-6.49-3.28-8.63 4.49-2.24 6.92-1.21 18.92 8.53 19.88 8-12.69-4.92-13.73-8.52 3.86-2 5.17-1.88 9.13 1.72 8.96.51zM370.57 207.7a3.33 3.33 0 01-2.88-2.19c0-.5.65-7.45 1.42-9.21s5-9.17 5-9.17a56.67 56.67 0 00-9.14 9.72c-3.8 5.38-7.31 11.39-7.24 13.59s2.87 7.19 2.87 7.19l-.85 4.83s8.51.61 11.31 1.24h0c-.24-5.33-.43-10.7-.49-16zM416.1 309.09s-14.27 15.38-18.29 16.36-5.43-1.53-5.45-2 .64-7.45 1.41-9.22 5-9.16 5-9.16a56.38 56.38 0 00-9.13 9.72c-3.81 5.37-7.31 11.39-7.25 13.58s2.87 7.19 2.87 7.19l-.84 4.84s8.5.61 11.31 1.24 5.9 3.09 8.74 3.32 13.26-5.51 16.5-9.18 6.21-8.78 5.87-9.13c0 0-6.46 7.84-12.9 9s-8.22 1.12-9.09-1.59.37-5 2.49-6.57 17-11.89 17.08-13-10.71 8.39-14.34 7.43.26-4.33 1-5.4 6.14-6.96 5.02-7.43z" stroke-width=".87"/><path d="M58.58 334.7s-11.16 28.05-16 31.44-8.08.77-8.37.11-3-10.33-2.88-13.1 1.92-14.88 1.92-14.88A81.47 81.47 0 0026 356.05c-2.31 9.19-3.89 19.07-2.67 22s7.58 8.15 7.58 8.15l1.38 6.93s11.73-3.6 15.81-4.21 9.52 1.08 13.46-.08S76.47 374.56 78.92 368s3.78-15 3.13-15.29c0 0-4.6 13.88-12.62 18.82s-10.43 5.77-13 2.58-2.1-6.9 0-10.1S73 339.18 72.54 337.7s-10 16.81-15.39 17.41-1.89-5.94-1.42-7.78 4.6-12.58 2.85-12.63zM75.31 296.32s-23.24-19.27-25-25 1.76-7.91 2.48-8 10.75.33 13.35 1.29 13.56 6.42 13.56 6.42a81.58 81.58 0 00-14.69-12.34c-8-5-16.94-9.59-20.09-9.33s-10.1 4.7-10.1 4.7l-7-.82s-.2 12.26-.87 16.34-4 8.72-4.08 12.82 9 18.6 14.51 23 13.1 8.22 13.58 7.7c0 0-11.79-8.66-14-17.81s-2.27-11.71 1.56-13.18 7.22.13 9.63 3.06 18.43 23.49 20 23.5-12.9-14.73-11.82-20 6.24 0 7.84 1 10.55 8.33 11.14 6.65z" stroke-width="1.25"/><path d="M122.31 280.88c-.53-.25-1-.49-1.36-.69-2.66-1.52-5-5-7.86-6.12s-15.22 1.46-19.67 4.19-9.07 7-8.83 7.46c0 0 9-6 16-5.17s8.71 1.42 8.75 4.46-1.94 5-4.59 5.9-21 6.79-21.44 7.87 13.53-5.19 16.92-3.08-1.62 4.32-2.73 5.17-8.44 5.21-7.45 6c0 0 19.34-11.2 23.74-10.93s5 3.25 4.91 3.77-3 7.38-4.32 8.94-7.93 7.77-7.93 7.77a60.45 60.45 0 0012.34-7c1.53-1.18 3-2.42 4.46-3.64-.33-8.3-.88-16.59-.94-24.9z" stroke-width=".92"/><path d="M470 357.66s-14.28 15.39-18.3 16.36-5.42-1.53-5.45-2 .65-7.44 1.42-9.21 5-9.17 5-9.17a56.67 56.67 0 00-9.14 9.72c-3.8 5.38-7.31 11.39-7.24 13.59s2.87 7.19 2.87 7.19l-.85 4.83s8.51.61 11.31 1.24 5.9 3.09 8.75 3.33 13.25-5.52 16.5-9.19 6.21-8.78 5.87-9.13c0 0-6.47 7.85-12.91 9s-8.21 1.13-9.09-1.59.37-5 2.5-6.57 17-11.89 17.08-13-10.72 8.39-14.35 7.44.27-4.33 1-5.41 6.11-6.96 5.03-7.43zM352.3 246.43s-11.79 17.36-15.62 18.93-5.59-.69-5.69-1.18-.48-7.46 0-9.32 3.54-9.82 3.54-9.82A56.58 56.58 0 00327 256c-2.94 5.89-5.5 12.36-5.11 14.52s3.92 6.68 3.92 6.68l-.1 4.91s8.5-.68 11.36-.49 6.3 2.17 9.15 2 12.27-7.45 14.93-11.57 4.81-9.61 4.42-9.91c0 0-5.21 8.74-11.39 10.89s-7.95 2.35-9.23-.2-.39-5 1.48-6.87 15-14.32 14.93-15.4-9.33 9.91-13.06 9.51-.39-4.32.2-5.5 4.98-7.84 3.8-8.14z" stroke-width=".87"/><path d="M340.3 167.71s6.51 17 9.43 19.06 4.86.53 5 .13 1.88-6.19 1.84-7.86-1.05-9-1.05-9a49 49 0 014.21 10.77c1.32 5.55 2.2 11.52 1.44 13.26s-4.63 4.86-4.63 4.86l-.89 4.16s-7-2.26-9.49-2.66-5.75.57-8.11-.15-8.88-8.72-10.3-12.72-2.16-9.07-1.77-9.24c0 0 2.67 8.4 7.46 11.44s6.24 3.56 7.82 1.66 1.32-4.15.12-6.09-9.84-15.06-9.55-15.95 5.95 10.23 9.17 10.62 1.18-3.56.91-4.67-2.66-7.61-1.61-7.62z" stroke-width=".75"/><path d="M195.59 225.76s22.54-8 25.37-11.76.86-6.37.34-6.62-8.08-2.68-10.28-2.68-11.84 1.08-11.84 1.08a64.86 64.86 0 0114.3-5.18c7.34-1.55 15.21-2.5 17.48-1.45s6.23 6.25 6.23 6.25l5.44 1.3s-3.2 9.18-3.81 12.4.57 7.57-.46 10.65-11.76 11.38-17.06 13.12-12 2.54-12.21 2c0 0 11.13-3.23 15.29-9.42s4.89-8.09 2.44-10.23-5.41-1.88-8-.36-20.12 12.44-21.28 12 13.61-7.43 14.25-11.65-4.65-1.68-6.12-1.37-10.1 3.3-10.08 1.92zM194.13 332.5s18 15.73 22.69 16.35 6-2.38 5.94-3-1.63-8.36-2.71-10.28-6.74-9.79-6.74-9.79a64.43 64.43 0 0111.52 9.93c4.95 5.63 9.64 12 9.84 14.52s-2.39 8.5-2.39 8.5l1.53 5.38s-9.57 1.71-12.67 2.75-6.32 4.21-9.51 4.82-15.69-4.66-19.8-8.44-8.09-9.2-7.75-9.64c0 0 8.27 8.12 15.71 8.7s9.45.29 10.11-2.89-1-5.63-3.61-7.14-20.71-11.44-20.91-12.66 13.15 8.22 17.14 6.71-.82-4.88-1.81-6-7.79-7.16-6.58-7.82z" stroke-width=".99"/><path d="M195.25 376.85s-5.24 15.58-7.79 17.57-4.37.65-4.55.3-1.93-5.52-1.95-7 .6-8.15.6-8.15a44.19 44.19 0 00-3.39 9.88c-1 5.06-1.55 10.49-.8 12s4.36 4.21 4.36 4.21l1 3.73s6.26-2.31 8.47-2.76 5.2.31 7.31-.44 7.69-8.2 8.83-11.87 1.61-8.26 1.25-8.4c0 0-2.09 7.68-6.31 10.61s-5.5 3.44-7 1.78-1.34-3.69-.33-5.49 8.32-14 8-14.76-5 9.44-7.85 9.93-1.2-3.18-1-4.19 2.1-6.98 1.15-6.95z" stroke-width=".68"/></g><path d="M121.8 184.94s2.11 28.62 0 44.25.11 29.69.11 32.87 1.9 33.07 1.9 33.07M371.33 192.75s-1.25 73.86.81 102.9" fill="none" stroke="#262521" stroke-linecap="round" stroke-linejoin="round" stroke-width="3"/><path d="M51.32 413.6s28.66-9.48 45.15 2.48M402.18 416.08s25.94-8.31 43.55 0M197.66 62.63c2.77 14.3 15 47.82 50.14 46.21 36.25-1.66 46.89-34.35 49-46.52M133.45 438.85s155.28-12.31 227.71 2.37" fill="none" stroke="#636363" stroke-linecap="round" stroke-linejoin="round"/><path d="M283.61 57.72C266.25 68.15 244.14 65 225 62.6c-7.1-1.26-13.56-4.12-18.56-9.67L206 53s3.41 36.21 41.7 34.4S290.32 53 290.32 53a34.54 34.54 0 01-6.71 4.72z" fill="#898989" stroke="#262521" stroke-linecap="round" stroke-linejoin="round" stroke-width="3"/></svg>