<svg xmlns="http://www.w3.org/2000/svg" width="500" height="550" viewBox="0 0 500 550"><path d="M427.08 429.09h-3a1.5 1.5 0 00-1.35 1.24c-.19 3.52-.39 7-.58 10.55 0 .49-.05 1-.08 1.49a1.53 1.53 0 001.6 1.75H428a1.35 1.35 0 001.13-.69v-.05a.93.93 0 00.05-.1l.09-.2a.13.13 0 010-.06 1.08 1.08 0 000-.21 1.61 1.61 0 000-.31c-.2-3.51-.41-7-.62-10.54 0-.5-.05-1-.08-1.5a1.53 1.53 0 00-1.49-1.37zm.53 9.24l-.05 2.77a1 1 0 01-1 1h-1.5a1 1 0 01-1-1v-2.77a1 1 0 011-1h1.5a1 1 0 011.05 1zm-352.87-9.24h-3a1.49 1.49 0 00-1.35 1.24c-.19 3.52-.39 7-.58 10.55 0 .49-.06 1-.08 1.49a1.53 1.53 0 001.6 1.75h4.37a1.32 1.32 0 001.12-.69v-.15a1.19 1.19 0 00.08-.2v-.06a1.08 1.08 0 000-.21 1.61 1.61 0 000-.31c-.21-3.51-.41-7-.62-10.54l-.09-1.5a1.53 1.53 0 00-1.45-1.37zm.52 9.24v2.77a1 1 0 01-1 1h-1.51a1 1 0 01-1-1v-2.77a1 1 0 011-1h1.5a1 1 0 011.01 1z" fill="#7a7977"/><path d="M365.23 282.8s-1.73 202.07-5 204.25-151.41 0-167.06-3.27-53.14 5-57.87 4.15-5.46-18.39-3.64-26S133 282.8 133 282.8zM283.21 52.88c-17.35 10.43-39.46 7.31-58.64 4.88-7.1-1.26-13.57-4.12-18.57-9.67l-.4.07s-9.79 63.59 44.87 63.59 39.45-63.59 39.45-63.59a34.2 34.2 0 01-6.71 4.72z" fill="#999" stroke="#262521" stroke-linecap="round" stroke-linejoin="round" stroke-width="3"/><path d="M205.6 48.16s3.41 36.22 41.7 34.4 42.62-34.4 42.62-34.4" fill="none" stroke="#262521" stroke-linecap="round" stroke-linejoin="round" stroke-width="3"/><path d="M242.71 288.31s-19.89 176.23-26.28 176.3c-24.6.24-58.61-1.68-83 2.08-5.23.6-5.68.28-6.62-4.82-1.35-11.26 1.94-18.53.52-29.31-6.14-46.82-1.39-94.37-3.6-141.53-1.41 2.83-2.93 5.6-4.28 8.46-2.37 10.67-17.51 9.3-11.81 16.18 11.11 7.95 6.4 21.38 5.15 32.56-.25 3.15-1.35 6.27-.37 9.58.5 8.44-3.2 16.94-4.38 25.31-1.51 8-10.42 41.28-11.86 49.29-.57 3.18-.61 3-3.74 2-12.38-3.52-26.09-4.38-38.61-1.18-1.39.34-2.1 0-2.4-1.47-2-7.76.82-16.67-5.49-22.43a6.62 6.62 0 01-1.33-3.22c-2.23-11-6.08-22.12-5.72-33.3-1.92-63 2.6-126.93 26.19-186 13.6-35.43 24.56-73.32 48.06-103.67 27.33-18.2 60-23.76 90.46-34.78.81-.26 4.45 39.77 42.44 41.81s45.37-41.58 45.37-41.58C320.57 59.12 352.5 63 378.88 80.21c15.94 14.59 21.63 38 30.46 57.21 27.81 67.48 58 137.39 51.05 212.07-1.19 18.66-.23 37.46-3.28 56-.49 4.66-5.21 7.09-5.56 11.78-1.22 5.28-2.08 10.65-2.91 16-.4 2.6-.42 2.83-3.09 2.33-12.47-2.66-25.25-5.49-37.79-1.58-8.34-.15-8.14-15.56-11.45-21.4-6.27-7.37-3.6-9-5.32-17.64-.9-9.7-4.69-20.27.79-29.26 2-3.53 1.86-7.05.51-10.66-4.9-11.28-7.4-23.42-10.46-35.29-1.06-4.3-1.3-8.49 1.62-12.34 1.5-7.23-10.43-8.68-10.93-15.93l-.42.08q-.25 61.74-.61 123.47c-.82 9-2.69 16.41-3.56 25.44-1 10.07 1.35 17.05-1.49 25.63-.59 1.77-2 1.67-3.35 1.44-27.94-4.85-56.68-5.93-88.38-5.33" fill="#484c42" stroke="#262521" stroke-linecap="round" stroke-linejoin="round" stroke-width="3"/><path d="M121.77 180.84s2.11 28.62 0 44.25.11 29.7.11 32.87 1.89 33.04 1.89 33.04M371.3 188.66s1.59 62.14.8 102.89" fill="none" stroke="#262521" stroke-linecap="round" stroke-linejoin="round" stroke-width="3"/><path d="M276.39 434.17c31.5.51 62.17 2.47 84.77 7.05m-227.71-2.37s37-2.93 83.3-4.23M51.32 409.51S80 400 96.47 412m305.71 0s25.94-8.31 43.55 0M194.62 56.1c2.77 14.3 15 50.28 52.49 50.23 39.57 0 51.53-38 53.68-50.23" fill="none" stroke="#32352d" stroke-linecap="round" stroke-linejoin="round"/><path d="M210.19 100.36s18.34 123.15 29.06 171.54 35.46 190.3 35.46 190.3" fill="none" stroke="#262521" stroke-linecap="round" stroke-linejoin="round" stroke-width="3"/><path d="M217.42 105.26S235 223.51 245.75 271.9 280 455.36 280 455.36" fill="none" stroke="#32352d" stroke-linecap="round" stroke-linejoin="round"/></svg>