<svg xmlns="http://www.w3.org/2000/svg" width="500" height="550" viewBox="0 0 500 550"><path d="M372.14 291.55q-.27 61.74-.62 123.47c-.81 9-2.68 16.41-3.55 25.44-1 10.07 1.34 17.05-1.5 25.63-.59 1.77-2 1.67-3.35 1.44-44.59-7.74-101.66-5.72-146.65-2.92-24.6.57-58.62-1.68-83 2.09-5.23.59-5.68.27-6.62-4.83-1.35-11.26 1.94-18.53.53-29.31-6.15-46.82-1.39-94.37-3.6-141.53-1.42 2.83-2.94 5.6-4.29 8.46-2.37 10.67-17.5 9.3-11.81 16.18 11.11 7.95 6.41 21.38 5.15 32.56-.25 3.15-1.35 6.27-.37 9.58.51 8.44-3.19 16.94-4.38 25.31-1.5 8-2.61 15.83-1.54 23.93a5.1 5.1 0 01-1.13 3.3c-5.71 6.28-7.75 14-9.19 22.06-.57 3.18-.61 3-3.74 2-12.38-3.52-26.09-4.38-38.6-1.18-1.39.34-2.11 0-2.41-1.47-2-7.76-2.18-16.67-8.49-22.43a6.62 6.62 0 01-1.33-3.22A144.46 144.46 0 0139 372.86c-1.91-63 2.6-126.93 26.19-186 13.61-35.43 24.56-73.32 48.07-103.67 27.32-18.2 60-23.76 90.46-34.78a3.16 3.16 0 012.72.43c5 5.55 11.46 8.41 18.56 9.67 19.19 2.43 41.29 5.55 58.65-4.88 2.85-1.27 4.2-6.53 7.87-5 29.12 10.49 61 14.41 87.44 31.58 15.94 14.59 21.63 38 30.45 57.21 27.81 67.48 58 137.39 51.05 212.08-1.19 18.65-.23 37.45-3.28 55.95-.49 4.66-5.21 7.1-5.56 11.78-1.22 5.28-2.08 10.65-2.91 16-.4 2.6-.41 2.83-3.08 2.33-12.48-2.66-25.26-5.49-37.8-1.58-8.34-.15-8.13-15.56-11.44-21.4-6.28-7.37-3.61-9-5.33-17.64-.9-9.7-4.68-20.27.79-29.26 2-3.53 1.86-7.05.51-10.66-4.9-11.28-7.4-23.41-10.45-35.29-1.07-4.3-1.31-8.49 1.61-12.34 1.51-7.23-10.43-8.68-10.93-15.93z" fill="#262521" stroke="#262521" stroke-miterlimit="10" stroke-width="3"/><path d="M203.68 50.9s4.7 45.92 44.37 44.1 43.43-43.87 43.43-43.87" fill="none" stroke="#636363" stroke-linecap="round" stroke-linejoin="round"/><path fill="#262521" d="M153.37 145.32h85.22v3.21h-85.22z"/><path fill="#262521" d="M212.68 143.65l-4.12 6.12 3.79.45 3.82-5.47-3.49-1.1z"/><path fill="#fff" d="M172.46 98.4l30.12-20.02 8.95 10.37-37.59 15.93-1.48-6.28zm-9.97-37.66l-5.02 22.28 4.96.65 16.32-27.69-16.26 4.76zM125 76.22l15.94 10.18-4.47 2.27-22.18-7.4L125 76.22zm47.24 41.2l-1.83 2.54L213 133.01l2.37-9.77-43.13-5.82zm-10.55 8.9l2.97-.93 20.51 32.72-12.55 7.13-10.93-38.92zm-11.57-.41l2.8.37-4.07 31.25-8.63-1.12 9.9-30.5zm-58.02-9.04s-10.77 25.67-12.76 30.23l32.12-27.33.78-14.37zm25.84 34.25l-23.5 85.21 24.22 1.65 4.12-84.6-4.84-2.26zm51.31 76.1l15.67-11.25 34.71 31.92-26.5 22.71-23.88-43.38zM322.81 98.4l-30.12-20.02-8.95 10.37 37.6 15.93 1.47-6.28zm9.78-38.51l5.22 23.13-4.96.65-16.33-27.69 16.07 3.91zm39.68 15.06L354.34 86.4l4.46 2.27 22.18-7.4-8.71-6.32zm-49.24 42.47l1.83 2.54-42.58 13.05-2.37-9.77 43.12-5.82zm10.56 8.9l-2.97-.93-20.51 32.72 12.55 7.13 10.93-38.92zm11.56-.41l-2.8.37 4.08 31.25 8.62-1.12-9.9-30.5zm55.68-10.38L383 105.4l.78 14.37 29.42 25c-.54-1.84-10.49-24.14-12.37-29.24zm-23.5 35.59l23.5 85.21-24.21 1.65-4.13-84.6 4.84-2.26zm-51.3 76.1l-15.67-11.25-34.89 32.07 26.57 22.75 23.99-43.57z"/><path fill="#262521" d="M341.9 148.53h-85.22v-3.21h85.22z"/><path fill="#262521" d="M282.6 143.65l4.12 6.12-3.79.45-3.82-5.47 3.49-1.1z"/><path fill="none" stroke="#494949" stroke-linecap="round" stroke-linejoin="round" d="M169.61 121.36l44.76 14.78-13.53 18.48-32.18-31.95.95-1.31zm3.82-8.88l42.51-6.95-.57 15.33-42.16-5.37.22-3.01zm1.13-6.12l38.14-15.77 2.67 12.05-41.13 7.65.32-3.93zm-7.39 17.89l27.37 27.91-7.1 4.68-21.43-31.95 1.16-.64zm-9.11 2.79h2.07l9.04 33.72-10.49.98-.62-34.7zm-3.56-.39h1.5l.06 31.57-5.37-.69 3.81-30.88zm14.91-35.62l2.61 4.95 29.34-19.56-9.35-10.82-22.6 25.43zm-5.22-6.19l3.42 4.3 22.57-24.79-11.43-5.52-14.56 26.01zm-15.18-1.17l6.5-.89 4.69-20.33-15.24 4.96 4.05 16.26zm-20.86-9.05l14.47-6.32 5 15.86-5.1 1.67-14.37-11.21zM146 93.5c-3.59 3-6.38 7-6.38 12A14.48 14.48 0 10154.06 91v-4.23s-9.52.44-16.17 5.81l-10.28-1-.87 8.91 8.71 1v-2.15l-6.24-.67.43-5.17 9.14 1s7.4-5 12.77-5.32l.14 2.39S148 91.8 146 93.5z"/><circle cx="154.06" cy="105.4" r="11.9" fill="none" stroke="#494949" stroke-linecap="round" stroke-linejoin="round" stroke-width=".82"/><path fill="none" stroke="#494949" stroke-linecap="round" stroke-linejoin="round" d="M152.2 145.32h95.47m-7.9 3.21h7.9m-95.47 0h84.65m-15.44-49.68s5.14 23.74-4.47 42.87l-2.18-1.17-11.9 17.67-2.54-1.38-17.1 9.07-1.16-1.65-15.28 7.46-.82-3-17.44 3v-2.82l-17.76-3v-3.15l-6.8-3.65"/><path d="M224.69 98.85s5.34 27.89-6.35 47.08l-2.17-1.18-12.58 18-2.59-1.37-17.9 9.3L182 169l-17.54 7.79-.83-3-17.78 2.21v-2.82l-18.17-4.28v-3.15l-3.68-1.7m-9.71-35.98L60 240.64l58.4 4.36m-5.22-119.78l-35.17 69.33-11.95-11.34" fill="none" stroke="#494949" stroke-linecap="round" stroke-linejoin="round"/><path fill="none" stroke="#494949" stroke-linecap="round" stroke-linejoin="round" d="M115.62 131.82L64.64 237.98l53.76 3.74m88.39-40.94l-19.81 13.31 36.4 33.89m24.25-10.8l20.07 18.06m-60.91-54.46l34.77 30.99m-17.82 23.47l23.86 21.27m-20.11-21.39l21.92 19.55m-51.15-4.08l49.34 43.98m-45.23-43.78l45.35 40.45m-51.43-35.14l51.31 45.73m-51.58-49.45l51.61 46.04m-120.52-18.94l53.98 48.11M127.11 296l54.1 48.26m-53.65-37.13l53.53 47.72 49.7-44.32"/><path fill="none" stroke="#494949" stroke-linecap="round" stroke-linejoin="round" d="M127.56 303.66l53.56 47.78 47.46-42.57m68.58-38.33l-49.41 44.03m45.33-43.87l-45.45 40.54m-24.88-4.03l-41.54 36.99m45.34-36.99l-45.34 40.38m117.89-71.53l-51.35 45.77m51.42-49.3l-51.45 45.89m-57.82-40.59l32.85 29.38m-28.68-29.03l32.48 29.03m141.37-7.73l-53.98 48.11M367.92 296l-54.1 48.26m53.65-37.13l-53.53 47.72-49.7-44.32"/><path fill="none" stroke="#494949" stroke-linecap="round" stroke-linejoin="round" d="M367.47 303.66l-53.56 47.78-47.46-42.57m5.83-1.66l41.54 36.99m-45.34-36.99l45.34 40.38m-8.63-69.89l-32.91 29.51m28.94-29.26l-32.74 29.26m3.1-51.97l-23.86 21.27m19.98-21.27l-21.79 19.43m-.27-42.69l-43.41-38.67-25.16 16.08-1.72-2.89-12.92 6.44-1.14-3.3-15.68 2.66v-3.89l-14.48.09v-3.32l-6.47-1.95m146.92 52.01l-23.95-21.49"/><path fill="none" stroke="#494949" stroke-linecap="round" stroke-linejoin="round" d="M247.63 230.21l-45-40.08-24.03 14.95-1.99-2.74-12.57 6.48-.83-2.57-14.74 2.44v-2.82l-14.17-.09v-2.72l-9.64-2.58m168.42 70.22L250 232.32m51.22 45.63l-4.07-3.63m-49.52-47.95l-30.03-26.78 22.16-51.06m65.43 129.17l-53.25-47.49m-37.64-29.73l23.91-55.07m-109.07 99.08l37.13-18.58L192.56 275m133.1-153.64l-44.75 14.78 13.52 18.48 32.18-31.95-.95-1.31zm-3.81-8.88l-42.52-6.95.58 15.33 42.15-5.37-.21-3.01zm-1.13-6.12l-38.15-15.77-2.66 12.05 41.12 7.65-.31-3.93zm7.39 17.89l-27.37 27.91 7.1 4.68 21.42-31.95-1.15-.64zm9.11 2.79h-2.08l-9.04 33.72 10.49.98.63-34.7zm3.56-.39h-1.51l-.05 31.57 5.36-.69-3.8-30.88zm-14.92-35.62l-2.61 4.95-29.34-19.56 9.35-10.82 22.6 25.43zm5.22-6.19l-3.42 4.3-22.57-24.79 11.43-5.52 14.56 26.01zm15.18-1.17l-6.5-.89-4.69-20.33 15.24 4.96-4.05 16.26zm20.86-9.05l-14.47-6.32-5 15.86 5.1 1.67 14.37-11.21zM349.31 93.5c3.59 3 6.38 7 6.38 12A14.48 14.48 0 11341.22 91v-4.23s9.52.44 16.17 5.81l10.27-1 .87 8.91-8.7 1v-2.15l6.24-.67-.44-5.17-9.14 1s-7.4-5-12.77-5.32l-.14 2.39s3.65.23 5.73 1.93z"/><circle cx="341.22" cy="105.4" r="11.9" fill="none" stroke="#494949" stroke-linecap="round" stroke-linejoin="round" stroke-width=".82"/><path fill="none" stroke="#494949" stroke-linecap="round" stroke-linejoin="round" d="M343.08 145.32H247.6m7.91 3.21h-7.91m95.48 0h-84.66m15.44-49.68s-5.14 23.74 4.47 42.87l2.18-1.17 11.9 17.67 2.55-1.38 17.1 9.07 1.16-1.65 15.27 7.46.83-3 17.43 3v-2.82l17.76-3v-3.15l6.81-3.65"/><path d="M270.59 98.85s-5.35 27.89 6.34 47.08l2.18-1.18 12.57 18 2.55-1.38 17.91 9.3 1.16-1.67 17.53 7.79.83-3 17.76 2.21v-2.82l18.18-4.28v-3.15l3.72-1.73m-82.83 36.76l19.8 13.31-36.07 33.59m-24.59-10.5l-20.14 17.94m61-54.34l-34.57 31.2" fill="none" stroke="#494949" stroke-linecap="round" stroke-linejoin="round"/><path fill="none" stroke="#494949" stroke-linecap="round" stroke-linejoin="round" d="M223.63 255.12l69.42-61.81 25.15 16.08 1.72-2.89 12.93 6.44 1.14-3.3 15.68 2.66v-3.89l14.47.09v-3.32l6.47-1.95"/><path fill="none" stroke="#494949" stroke-linecap="round" stroke-linejoin="round" d="M202.23 270.63l90.41-80.5 24.04 14.95 1.99-2.74 12.56 6.48.84-2.57 14.73 2.44v-2.82l14.18-.09v-2.72l9.63-2.58m-176.54 77.7l4.12-3.86m49.44-47.95l30.04-26.78-22.16-51.06m-65.61 129.3l53.59-47.77m37.48-29.58l-23.94-55.16M366.5 247.05l-37.67-20.82-23.43 43.74M112.23 123l-35.25 66.61-9.77-9.1m51.19 67.59l-46.74-3.62m46.74 6.75l-46.74-3.62m309.08-119.54l54.28 112.57-58.4 4.36m5.22-119.78l35.17 69.33 11.95-11.34"/><path fill="none" stroke="#494949" stroke-linecap="round" stroke-linejoin="round" d="M379.4 131.82l50.98 106.16-53.76 3.74M382.79 123l35.26 66.61 9.76-9.1m-51.19 67.59l46.74-3.62m-46.74 6.75l46.74-3.62"/><path d="M65.15 186.85c13.61-35.43 24.56-73.32 48.07-103.67 27.32-18.2 60-23.76 90.46-34.78m87.8.23c29.12 10.49 61 14.41 87.44 31.58 15.94 14.59 21.63 38 30.45 57.21 9.28 22.51 18.82 45.3 27.16 68.44" fill="none" stroke="#262521" stroke-linecap="round" stroke-linejoin="round" stroke-width="3"/></svg>