<svg xmlns="http://www.w3.org/2000/svg" xmlns:xlink="http://www.w3.org/1999/xlink" width="500" height="550" viewBox="0 0 500 550"><defs><clipPath id="a"><path d="M892.14,291.56C892,332.71,646,338.19,643.81,291c-1.42,2.83-2.94,5.6-4.29,8.46-2.37,10.68-17.5,9.3-11.81,16.18,11.11,7.95,6.41,21.38,5.15,32.56-.25,3.15-1.35,6.27-.37,9.58.51,8.44-3.19,16.94-4.38,25.31-1.5,8-69.5.93-69.15-10.26-1.91-63,2.6-126.93,26.19-186,4.21-11,24.24-90.24,69.07-99.29,100-20.2,269.06,36.59,275.15,49.86,27.81,67.48,58,137.39,51,212.08-1.19,18.65-.23,37.45-3.28,55.95-.49,4.66-64.4-1.83-66.12-10.5-.9-9.7-4.68-20.27.79-29.26,2-3.53,1.86-7.05.51-10.66-4.9-11.28-7.4-23.41-10.45-35.29-1.07-4.3-1.31-8.49,1.61-12.34,1.51-7.23-10.43-8.68-10.93-15.92Z" fill="none"/></clipPath><clipPath id="b"><path d="M540.11,371.55l2.71-22.12L553,351.82l8.13-80.48,1.67.47L550.38,373l12.25,2.79,12.16-100.49,1.57.44-8.45,81.39,12.69,1.55,9.12-79.12,2.33.67-5.8,94.16,11,5.64,1.45-11.83,7.21-1.55,3.18-25.93,1.53.33-2.87,29.26,12.09-3.39,3.83-25,9.72,1.19,11-47.88.62.17-10.29,63.89,13.07-.55,5.61-38.78-6,58.75,12.6-3.61,8-71-2.88,44.56,8.69-3.23,3.87-40.84,5.12.62,2-16.71-5.13-.58,1.39-11.4-8.49-1,3.42-23.1L667,248.5l1.31-7.47-9.89-9.41-15.83,63.09-1-.29,12.49-58.8-9.72-8.25-8.21,34.24-2.75-.34s1.8-13.75,2.51-15.84,1.51-4.85,1.51-4.85c1.46.29,1.62-6.67,1.73-8.49s1.94-7.43,2.82-8.05,2-6.93,3.18-6.33a4.8,4.8,0,0,0,3.94.49c1.67-.49,2.15-5.35,2.15-5.35,2.63,0,1.28-4,1.27-5.68s1.26-3.74,2.58-5.18-.87-2.17-.87-2.17a3.14,3.14,0,0,1,2-2.5s-1.93-.12-1.61-.77,1.86-1.26,1.86-1.26c.25-2-3.43-3.74-3.43-3.74,2-4.11.18-5.25.18-5.25l.54-4.4c.37-3-3.94-8-3.94-8l-.46-2.8s.65.31,1.35-.75-3.19-2.91-3.19-2.91l-2.34-1.2-17,124.37-1.2-.34,17.59-125.48-1-.72a7.59,7.59,0,0,0-3.26-7,6.26,6.26,0,0,0-7.34.13L615.31,286.85l10.61-117.48c-2.11-3.31-4.33-3-4.33-3a6.42,6.42,0,0,0-2.89-1.61,5.14,5.14,0,0,0-4.22-2.9l2.23-19.21c-2.93-.36-5.28,2-5.28,2a6.67,6.67,0,0,0-7.79-4.39L587.77,279h0l-1.54-.44,14.21-119.37c-2-.24-6.35,5.1-6.35,5.1-.93-5.06-6.8-2.69-6.8-2.69L573.66,274.92l-1.42-.4h0l13.29-122.47a10.85,10.85,0,0,0-8.54,7.78s-1.44-2.19-4.27-.53l-6.44,65.17s-.29,3.68,4,3.58c0,0-.82,14.92.45,19.72s-.46,7.53-.46,7.53L562.71,260l-.57,6-6.37,3.72h0l-6.21,3.83-.74,6.06-11.94,6.4-6.48,84.44ZM654.33,298h0l4.28-17.31-2.88,17.71Zm-44.8-93.31-6.38,78.72-2.66-.76ZM532,301.2l-2.3,75.94-11.77,7.43,2.53-83.79Zm-38.13,67.26L502.2,311l4.18-2.66,3.07-25.05,12.39-4.21L515,354.89l-9.46-1-2.24,23Zm67.2-143.7c-1.54-3.13-3.22-11.08-3.8-12.69s-.51-8.43-.51-8.43c-2.81-1.12.66-8,.66-8-2-5,.73-5.95,1.49-7.09s-.26-4.21-.26-4.21C557,180,560,179.43,560,179.43c.26-2.14,4.41-6.9,4.41-6.9,1-8.08,6.29-8.36,6.29-8.36L564.66,233C561.09,231.77,561.07,224.76,561.07,224.76Z" fill="none"/></clipPath></defs><title>s04e10-02</title><path d="M297.53,42.78c-3.45-4.33-98.67-2.91-102.93,2.94-4.83,6.62-8.31,22.49-5.55,27.73s57.15,32.62,57.15,32.62,60.06-27.94,61.17-31.39S301,47.1,297.53,42.78Z" fill="#262521"/><path d="M205.75,47.78s39.19,30.16,87.35,0L320,102.53,248.05,170,193.83,83.39Z" fill="#262521"/><path d="M132.81,77.75l70.12-23.11s5.7,33.24,45.38,31.42,46.42-32.91,46.42-32.91L365,77.75" fill="none" stroke="#636363" stroke-linecap="round" stroke-linejoin="round"/><path d="M217.89,86.58c6.94,10.37,16.62,18.27,30,18.27,13.56,0,23.18-7.94,29.94-18.27" fill="none" stroke="#262521" stroke-linecap="round" stroke-linejoin="round" stroke-width="5" stroke-dasharray="1 3"/><path d="M247,104.94a1,1,0,0,1,0-2c.32,0,.64,0,1,0a1,1,0,1,1,.09,2l-1,0Zm-3-.12H244l-1-.11a1,1,0,0,1,.26-2l.95.1a1,1,0,0,1-.09,2Zm7-.18a1,1,0,0,1-1-.87,1,1,0,0,1,.86-1.12c.32-.05.64-.09,1-.15a1,1,0,0,1,1.14.83,1,1,0,0,1-.82,1.15l-1,.15Zm-10.9-.47a1,1,0,0,1-.24,0l-1-.26a1,1,0,0,1,.54-1.93l.93.25a1,1,0,0,1-.23,2Zm14.81-.29a1,1,0,0,1-.24-2l.93-.26a1,1,0,1,1,.55,1.93l-1,.27A1,1,0,0,1,254.93,103.88ZM236.32,103a1.21,1.21,0,0,1-.37-.07l-1-.4a1,1,0,0,1-.51-1.32,1,1,0,0,1,1.32-.51l.89.37a1,1,0,0,1-.37,1.93Zm22.41-.3a1,1,0,0,1-.93-.64,1,1,0,0,1,.57-1.29l.9-.36a1,1,0,0,1,1.31.52,1,1,0,0,1-.53,1.32l-1,.38A.92.92,0,0,1,258.73,102.66Zm-26-1.43a1,1,0,0,1-.5-.13l-.88-.52A1,1,0,0,1,231,99.2a1,1,0,0,1,1.38-.33c.27.17.55.33.83.49a1,1,0,0,1-.49,1.87Zm29.62-.23a1,1,0,0,1-.47-1.89l.85-.46a1,1,0,0,1,1,1.73l-.9.5A1,1,0,0,1,262.36,101Zm-33-2a1,1,0,0,1-.6-.2l-.81-.62a1,1,0,0,1,1.23-1.58c.26.21.52.4.77.59a1,1,0,0,1-.59,1.81Zm36.38-.13a1,1,0,0,1-.83-.43,1,1,0,0,1,.26-1.39l.79-.57a1,1,0,0,1,1.4.23,1,1,0,0,1-.22,1.39l-.84.59A1,1,0,0,1,265.78,98.92Zm-39.45-2.43a1,1,0,0,1-.68-.26l-.75-.7a1,1,0,0,1,0-1.42,1,1,0,0,1,1.41,0l.71.67a1,1,0,0,1-.67,1.73Zm42.61,0a1,1,0,0,1-.65-1.76l.73-.64a1,1,0,0,1,1.41.07,1,1,0,0,1-.07,1.42l-.77.67A1,1,0,0,1,268.94,96.49Zm2.9-2.73a1,1,0,0,1-.69-.28,1,1,0,0,1,0-1.42l.67-.7a1,1,0,0,1,1.41-.06,1,1,0,0,1,.06,1.42l-.71.74A1,1,0,0,1,271.84,93.76Zm-48.32-.11a1,1,0,0,1-.74-.33l-.68-.76a1,1,0,0,1,.1-1.42,1,1,0,0,1,1.41.11l.65.73a1,1,0,0,1-.07,1.41A1,1,0,0,1,223.52,93.65Zm51-2.87a1,1,0,0,1-.63-.23,1,1,0,0,1-.14-1.41l.62-.76a1,1,0,1,1,1.56,1.24l-.63.79A1,1,0,0,1,274.5,90.78ZM221,90.58a1,1,0,0,1-.79-.39l-.62-.82a1,1,0,0,1,.21-1.39,1,1,0,0,1,1.4.2c.19.27.39.53.59.79a1,1,0,0,1-.79,1.61Zm-4-6.78a1,1,0,0,1-.5.14" fill="#b6b5af"/><path d="M248,106.48h0l-1,0a1,1,0,1,1,.08-2l1,0a1,1,0,0,1,0,2Zm3-.1a1,1,0,0,1-1-.92,1,1,0,0,1,.92-1.08c.32,0,.65,0,1-.09a1,1,0,0,1,.23,2l-1,.1Zm-7-.18h-.13q-.51-.06-1-.15a1,1,0,1,1,.33-2l1,.14a1,1,0,0,1,.85,1.13A1,1,0,0,1,244,106.2Zm10.93-.38a1,1,0,0,1-1-.8,1,1,0,0,1,.78-1.18l.94-.22a1,1,0,1,1,.47,1.95l-1,.22A.76.76,0,0,1,254.94,105.82Zm-14.84-.4a1.15,1.15,0,0,1-.26,0l-1-.28a1,1,0,0,1-.67-1.25,1,1,0,0,1,1.24-.66l.93.26a1,1,0,0,1-.25,2Zm18.69-.67a1,1,0,0,1-.33-2l.91-.33a1,1,0,0,1,.72,1.86c-.32.13-.65.25-1,.36A1,1,0,0,1,258.79,104.75Zm-22.48-.6a1.06,1.06,0,0,1-.38-.07l-.94-.41a1,1,0,1,1,.81-1.82l.89.38a1,1,0,0,1-.38,1.92Zm26.15-1a1,1,0,0,1-.89-.55,1,1,0,0,1,.45-1.35c.29-.14.57-.29.85-.44a1,1,0,1,1,1,1.75c-.3.17-.61.33-.92.48A1,1,0,0,1,262.46,103.19Zm-29.75-.77a.94.94,0,0,1-.48-.13c-.3-.16-.6-.33-.89-.51a1,1,0,1,1,1-1.72l.84.49a1,1,0,0,1-.49,1.87Zm33.21-1.23a1,1,0,0,1-.55-1.84l.8-.54a1,1,0,0,1,1.15,1.63l-.85.58A1,1,0,0,1,265.92,101.19Zm-36.58-.91a1,1,0,0,1-.58-.19c-.28-.19-.56-.4-.83-.6a1,1,0,1,1,1.2-1.6l.79.58a1,1,0,0,1,.23,1.39A1,1,0,0,1,229.34,100.28Zm39.79-1.48a1,1,0,0,1-.77-.36,1,1,0,0,1,.13-1.41l.74-.63a1,1,0,1,1,1.31,1.5c-.25.23-.51.45-.78.67A.94.94,0,0,1,269.13,98.8Zm-42.93-1a1,1,0,0,1-.65-.25l-.77-.68a1,1,0,0,1-.06-1.42,1,1,0,0,1,1.41-.06l.73.65a1,1,0,0,1-.66,1.76Zm45.87-1.7a1,1,0,0,1-.71-1.71c.23-.23.46-.46.68-.7a1,1,0,1,1,1.46,1.38l-.72.73A1,1,0,0,1,272.07,96.1ZM223.31,95a1,1,0,0,1-.72-.31l-.7-.74a1,1,0,0,1,1.47-1.36l.67.72a1,1,0,0,1,0,1.41A1,1,0,0,1,223.31,95Zm51.46-1.89a1,1,0,0,1-.64-.24,1,1,0,0,1-.13-1.41l.62-.75a1,1,0,0,1,1.41-.16,1,1,0,0,1,.15,1.41l-.64.79A1,1,0,0,1,274.77,93.14ZM220.66,92a1,1,0,0,1-.78-.37c-.21-.26-.43-.52-.64-.79a1,1,0,0,1,1.57-1.24l.62.76a1,1,0,0,1-.14,1.41A1,1,0,0,1,220.66,92Z" fill="#7f7e78"/><g opacity="0.86"><path d="M262.36,101a1,1,0,0,1-.47-1.89l.85-.46a1,1,0,0,1,1,1.73l-.9.5A1,1,0,0,1,262.36,101Zm-33-2a1,1,0,0,1-.6-.2l-.81-.62a1,1,0,0,1,1.23-1.58c.26.21.52.4.77.59a1,1,0,0,1-.59,1.81Zm36.38-.13a1,1,0,0,1-.83-.43,1,1,0,0,1,.26-1.39l.79-.57a1,1,0,0,1,1.4.23,1,1,0,0,1-.22,1.39l-.84.59A1,1,0,0,1,265.78,98.92Zm-39.45-2.43a1,1,0,0,1-.68-.26l-.75-.7a1,1,0,0,1,0-1.42,1,1,0,0,1,1.41,0l.71.67a1,1,0,0,1-.67,1.73Zm42.61,0a1,1,0,0,1-.65-1.76l.73-.64a1,1,0,0,1,1.41.07,1,1,0,0,1-.07,1.42l-.77.67A1,1,0,0,1,268.94,96.49Zm2.9-2.73a1,1,0,0,1-.69-.28,1,1,0,0,1,0-1.42l.67-.7a1,1,0,0,1,1.41-.06,1,1,0,0,1,.06,1.42l-.71.74A1,1,0,0,1,271.84,93.76Zm-48.32-.11a1,1,0,0,1-.74-.33l-.68-.76a1,1,0,0,1,.1-1.42,1,1,0,0,1,1.41.11l.65.73a1,1,0,0,1-.07,1.41A1,1,0,0,1,223.52,93.65Zm51-2.87a1,1,0,0,1-.63-.23,1,1,0,0,1-.14-1.41l.62-.76a1,1,0,1,1,1.56,1.24l-.63.79A1,1,0,0,1,274.5,90.78Z" fill="#fff"/></g><g opacity="0.86"><path d="M265.92,101.19a1,1,0,0,1-.55-1.84l.8-.54a1,1,0,0,1,1.15,1.63l-.85.58A1,1,0,0,1,265.92,101.19Zm3.21-2.39a1,1,0,0,1-.77-.36,1,1,0,0,1,.13-1.41l.74-.63a1,1,0,1,1,1.31,1.5c-.25.23-.51.45-.78.67A.94.94,0,0,1,269.13,98.8Zm-42.93-1a1,1,0,0,1-.65-.25l-.77-.68a1,1,0,0,1-.06-1.42,1,1,0,0,1,1.41-.06l.73.65a1,1,0,0,1-.66,1.76Zm45.87-1.7a1,1,0,0,1-.71-1.71c.23-.23.46-.46.68-.7a1,1,0,1,1,1.46,1.38l-.72.73A1,1,0,0,1,272.07,96.1ZM223.31,95a1,1,0,0,1-.72-.31l-.7-.74a1,1,0,0,1,1.47-1.36l.67.72a1,1,0,0,1,0,1.41A1,1,0,0,1,223.31,95Zm51.46-1.89a1,1,0,0,1-.64-.24,1,1,0,0,1-.13-1.41l.62-.75a1,1,0,0,1,1.41-.16,1,1,0,0,1,.15,1.41l-.64.79A1,1,0,0,1,274.77,93.14ZM220.66,92a1,1,0,0,1-.78-.37c-.21-.26-.43-.52-.64-.79a1,1,0,0,1,1.57-1.24l.62.76a1,1,0,0,1-.14,1.41A1,1,0,0,1,220.66,92Z" fill="#fff"/></g><path d="M372.14,291.55c-.18,41.16-.42,101.32-.62,142.47-.81,9-.4,13.05-5.5,20.56-2.9,8.57,2.28,22-.56,30.55-.59,1.77-2,1.67-3.35,1.44-44.59-7.74-100.65-5.76-145.64-3-24.6.57-59.87,1.33-84.22,5.1-5.22.59-5.68.27-6.62-4.82-1.35-11.26,4.11-20-1.29-29.55-7.67-13.53,1.68-116.15-.53-163.31-1.42,2.83-2.94,5.6-4.29,8.46-2.37,10.67-17.5,9.3-11.81,16.18,11.11,7.95,6.41,21.38,5.15,32.56-.25,3.15-1.35,6.27-.37,9.58.51,8.44-3.19,16.94-4.38,25.31-1.5,8-2.61,15.83-1.54,23.93a5.1,5.1,0,0,1-1.13,3.3c-5.71,6.28-7.75,14-9.19,22.06-.57,3.18-.61,3-3.74,2-12.38-3.52-26.09-4.38-38.6-1.18-1.39.34-2.11,0-2.41-1.47-2-7.76-2.18-16.67-8.49-22.43a6.62,6.62,0,0,1-1.33-3.22A144.46,144.46,0,0,1,39,372.86c-1.91-63,2.6-126.93,26.19-186,13.61-35.43,24.56-73.32,48.07-103.67C140.54,65,171.5,59.77,201.93,48.75c.34-.11,1.61,18.07,30.35,29.82C235.56,80.9,248.05,170,248.05,170l8.82-76.73s-9,.53-8.93-.78c.57-6.84,1.55-13.67,1.55-13.67C290.18,67.43,293,48.72,294.36,49.28,323.48,59.77,352.53,63,378.92,80.21c15.94,14.59,21.63,38,30.45,57.21,27.81,67.48,58,137.39,51.05,212.08-1.19,18.65-.23,37.45-3.28,55.95-.49,4.66-5.21,7.09-5.56,11.78-1.22,5.28-2.08,10.65-2.91,16-.4,2.6-.41,2.83-3.08,2.33-12.48-2.66-25.26-5.49-37.8-1.58-8.34-.15-8.13-15.56-11.44-21.4-6.28-7.37-3.61-9-5.33-17.64-.9-9.7-4.68-20.27.79-29.26,2-3.53,1.86-7.05.51-10.66-4.9-11.28-7.4-23.41-10.45-35.29-1.07-4.3-1.31-8.49,1.61-12.34,1.51-7.23-10.43-8.68-10.93-15.93Z" fill="#262521"/><path d="M203.06,53.15c.34-.11.48,13.67,29.22,25.42,3.28,2.33,15.77,92.49,15.77,92.49l8.82-77.76s-8.2.21-8.93-.78S249,79,249.49,78.85c39.6-10.51,43.9-28.65,43.9-28.65" fill="none" stroke="#636363" stroke-linecap="round" stroke-linejoin="round"/><circle cx="253.94" cy="86.37" r="2.66" fill="#8d8d8d"/><circle cx="227.2" cy="84.6" r="2.66" fill="#8d8d8d"/><line x1="257.79" y1="95.72" x2="249.71" y2="170.03" fill="none" stroke-dasharray="1 3" stroke-linecap="round" stroke-linejoin="round" stroke-width="2" stroke="#95875a"/><path d="M234.6,92c3,17.09,11.93,78,11.93,78" fill="none" stroke="#95875a" stroke-linecap="round" stroke-linejoin="round" stroke-width="2" stroke-dasharray="1 3"/><line x1="247.71" y1="171.06" x2="251.71" y2="452.12" fill="none" stroke-dasharray="1 3" stroke-linecap="round" stroke-linejoin="round" stroke-width="2" stroke="#95875a"/><path d="M249.55,167h-3a1.51,1.51,0,0,0-1.35,1.24q-.28,5.28-.58,10.54c0,.5-.05,1-.08,1.5a1.53,1.53,0,0,0,1.61,1.75h4.38a1.35,1.35,0,0,0,1.12-.69l0-.05s0-.07.05-.1l.09-.2s0,0,0-.06a1.29,1.29,0,0,0,.05-.21,1.08,1.08,0,0,0,0-.31c-.2-3.51-.41-7-.62-10.54,0-.5,0-1-.08-1.5A1.52,1.52,0,0,0,249.55,167Zm.53,9.24L250,179a1,1,0,0,1-1,1l-1.5,0a1,1,0,0,1-1-1l.05-2.77a1,1,0,0,1,1-1l1.5,0A1,1,0,0,1,250.08,176.27Z" fill="#a9a8a4"/><polyline points="335.92 145.15 276.19 145.15 276.19 233.12" fill="none" stroke="#636363" stroke-linecap="round" stroke-linejoin="round"/><line x1="274.73" y1="147.37" x2="274.73" y2="233.12" fill="none" stroke-dasharray="1 3" stroke-linecap="round" stroke-linejoin="round" stroke-width="2" stroke="#95875a"/><path d="M276.43,146.12h-3a1.51,1.51,0,0,0-1.35,1.24c-.19,3.51-.38,7-.58,10.54,0,.5-.05,1-.08,1.5a1.53,1.53,0,0,0,1.61,1.75h4.38a1.37,1.37,0,0,0,1.12-.69l0-.05.05-.1.09-.2s0,0,0-.06a1.6,1.6,0,0,0,.05-.21,1.08,1.08,0,0,0,0-.31c-.2-3.52-.41-7-.61-10.54l-.09-1.5A1.54,1.54,0,0,0,276.43,146.12Zm.53,9.25,0,2.77a1,1,0,0,1-1,1l-1.5,0a1,1,0,0,1-1-1l0-2.78a1,1,0,0,1,1-1l1.5,0A1,1,0,0,1,277,155.37Z" fill="#a9a8a4"/><rect x="247.11" y="165.6" width="2.19" height="6.59" rx="0.68" transform="translate(496.41 337.78) rotate(180)" fill="#cbcac5"/><rect x="273.99" y="145.15" width="2.19" height="6.59" rx="0.68" transform="translate(550.17 296.89) rotate(180)" fill="#cbcac5"/><g clip-path="url(#a)"><g clip-path="url(#b)"><rect x="492.44" y="129.76" width="200.08" height="281.56" transform="translate(1147.68 611.1) rotate(-173.02)" fill="#e1e2e5"/><path d="M497.23,330.89l-.22-2.46c4,8.83,4.82,2.31,8,4.13.55-1.9.29-4.32,1.35-5.95,1.13-.37,1.34,1.17,1.09,2-.67,4.47,1.72,8.79,2.3,13.28.4,3.1,1.46,2.52,3.68,1.91,1,.22.92,1.74,1.74,2.28s1.84.08,2.37.74c.47,4.71-.18,12.95-7.1,9.82-.73-.39-1.33.07-1.88.55-1.48,1-3.5-.46-4.06-2-3.9,4.69-.84,14.89-6.9,17.36-1.53-.47-1.27-2.42-.9-3.64,1.34-6.5-.14-13.4,2.1-19.8A41.51,41.51,0,0,1,497.23,330.89Z" fill="#535a68"/><path d="M497.55,330.89l-.22-2.46-.59.16c.7,1.53,2,5,4.25,4.91,1.45-.08,2.33-1.48,3.86-.67a.32.32,0,0,0,.47-.18,21.86,21.86,0,0,0,.44-2.77,12.51,12.51,0,0,1,.32-1.83c.05-.17.21-.87.37-1,.68-.41.77.44.78.81,0,.94-.24,1.89-.2,2.85a17.41,17.41,0,0,0,.48,3.29c.55,2.44,1.43,4.8,1.84,7.27.17,1,.19,2.76,1.4,3.2a2.41,2.41,0,0,0,1.25,0c.32-.06.64-.23,1-.26.78-.06,1,.5,1.29,1.11a2.09,2.09,0,0,0,1.12,1.16,9.56,9.56,0,0,0,1,.17c.81.2.84.44.88,1.14.14,2.58.15,6.12-1.73,8.14-1.39,1.5-3.28,1-5,.39a1.85,1.85,0,0,0-1.92.31,2,2,0,0,1-2.33.17,3.59,3.59,0,0,1-1.55-1.78c-.08-.19-.36-.35-.53-.14-1.74,2.19-2.12,5-2.46,7.71-.38,2.86-.52,6.57-2.82,8.65-.69.62-1.7,1.35-2.17,0-.33-.95.15-2.07.32-3a44.87,44.87,0,0,0,.54-6.85c.06-2.43.06-4.86.33-7.27a24.59,24.59,0,0,1,.69-3.7,6.6,6.6,0,0,0,.42-1.4,6.78,6.78,0,0,0-.48-1.57,42.24,42.24,0,0,1-1.09-16.6c0-.4-.59-.4-.64,0a44.21,44.21,0,0,0,.76,15.47c.16.65.39,1.29.55,1.94a3.56,3.56,0,0,1-.13,2,25.25,25.25,0,0,0-.69,3.65c-.32,2.71-.3,5.44-.37,8.17,0,1.28-.09,2.57-.22,3.85s-.48,2.59-.66,3.91c-.13,1,.05,2.85,1.41,2.94,1,.08,2.3-1.44,2.8-2.16a11,11,0,0,0,1.53-4.22c.69-3.62.42-8,2.83-11.07l-.53-.14c.65,1.55,2.39,3.11,4.18,2.41.94-.38.83-.93,2.22-.6.38.09.74.29,1.11.39a5.24,5.24,0,0,0,2.26.14c3-.58,3.78-4.29,4-6.86a21.19,21.19,0,0,0,0-2.52c0-.62.11-1.43-.44-1.83-.93-.69-2-.05-2.71-1.32-.3-.58-.57-1.5-1.37-1.57s-1.57.72-2.36.47c-1-.32-1-2.16-1.15-3-.55-3.15-1.86-6.13-2.19-9.32a11,11,0,0,1,0-2.36,8.68,8.68,0,0,0,.16-1.6,1.43,1.43,0,0,0-1-1.39c-1.88-.35-1.88,5.19-2.14,6.23l.46-.19c-1.3-.7-2.22-.18-3.45.35-2.35,1-3.71-2.8-4.44-4.37a.32.32,0,0,0-.59.16l.22,2.46C497,331.3,497.58,331.3,497.55,330.89Z" fill="#535a68"/><path d="M507.67,352.11,505,373.87a1.12,1.12,0,0,1-.19.6,1.06,1.06,0,0,1-.92.26,9.89,9.89,0,0,1-4-1,4.43,4.43,0,0,1-1.82-1.46c-.75-1.17-.52-2.69-.26-4.05l1.1-5.86c.36-1.88.7-3.86,0-5.66a12.71,12.71,0,0,1-.71-1.86,5.68,5.68,0,0,1,0-1.84l.67-5.2a1.2,1.2,0,0,1,.32-.81c.35-.3.9-.09,1.24.21a4.13,4.13,0,0,0,1,.9,5,5,0,0,0,1.35.14,3,3,0,0,1,2.16,1.6,8.75,8.75,0,0,1,.82,2.66" fill="#262521"/></g></g></svg>