<svg xmlns="http://www.w3.org/2000/svg" width="500" height="550" viewBox="0 0 500 550"><title>s04e03-01</title><rect x="200.72" y="65.79" width="104.81" height="38.7" fill="#fff"/><path d="M409.37,137.11c-8.82-19.22-14.51-42.62-30.45-57.2-26.39-17.18-87.83-31.75-87.83-31.75s-3.33,44.72-43,46.54S204.41,48,204.41,48s-63.87,16.7-91.19,34.9c-23.51,30.35-34.46,68.24-48.07,103.68-23.59,59.07-28.1,123-26.19,186-.35,11.19,3.49,22.28,5.72,33.31A6.66,6.66,0,0,0,46,409.08c6.31,5.75,3.46,14.66,5.49,22.42.3,1.48,1,1.82,2.41,1.47,12.51-3.19,26.22-2.34,38.6,1.19,3.13.94,3.17,1.12,3.74-2.06,1.44-8,10.36-41.31,11.86-49.29,1.19-8.37,4.89-16.87,4.38-25.31-1-3.31.12-6.42.37-9.58,1.26-11.17,6-24.61-5.15-32.55-5.69-6.89,9.44-5.51,11.81-16.19,1.35-2.85,2.87-5.63,4.29-8.46,2.21,47.16-2.55,94.72,3.6,141.53,1.41,10.79-1.88,18.06-.53,29.32.94,5.09,1.39,5.42,6.62,4.82,24.35-3.77,58.37-1.51,83-2.09,45-2.79,102.06-4.81,146.65,2.92,1.35.23,2.76.34,3.35-1.43,2.84-8.59.53-15.56,1.5-25.64.87-9,2.74-16.46,3.55-25.44q.3-61.71.62-123.46l.41-.08c.5,7.25,12.44,8.69,10.93,15.92-2.92,3.85-2.68,8-1.61,12.34,3.05,11.88,5.55,24,10.45,35.29,1.35,3.61,1.5,7.13-.51,10.66-5.47,9-1.69,19.56-.79,29.27,1.72,8.67-.95,10.26,5.33,17.63,3.31,5.84,3.1,21.26,11.44,21.4,12.54-3.9,25.32-1.07,37.8,1.58,2.67.5,2.68.28,3.08-2.33.83-5.36,1.69-10.72,2.91-16,.35-4.68,5.07-7.11,5.56-11.78,3.05-18.5,2.09-37.3,3.28-55.95C467.37,274.5,437.18,204.6,409.37,137.11Z" fill="#d7d7d7" stroke="#262521" stroke-linecap="round" stroke-linejoin="round" stroke-width="3"/><path d="M121.8,180.54s2.11,28.62,0,44.24.11,29.7.11,32.88,1.9,33.06,1.9,33.06" fill="none" stroke="#262521" stroke-linecap="round" stroke-linejoin="round" stroke-width="3"/><path d="M371.33,188.35s-1.25,73.86.81,102.9" fill="none" stroke="#262521" stroke-linecap="round" stroke-linejoin="round" stroke-width="3"/><path d="M51.32,409.2s28.66-9.48,45.15,2.47" fill="none" stroke="#636363" stroke-linecap="round" stroke-linejoin="round"/><path d="M402.18,411.67s25.94-8.3,43.55,0" fill="none" stroke="#636363" stroke-linecap="round" stroke-linejoin="round"/><path d="M193.66,55.82c2.77,14.3,16.38,51.12,55.14,51.12s49.93-37.69,52.08-49.86" fill="none" stroke="#636363" stroke-linecap="round" stroke-linejoin="round"/><path d="M133.45,434.45s155.28-12.31,227.71,2.36" fill="none" stroke="#636363" stroke-linecap="round" stroke-linejoin="round"/><path d="M283.61,53.32c-17.36,10.42-39.47,7.3-58.65,4.87-7.1-1.26-13.56-4.12-18.56-9.67l-.41.07s3.41,36.22,41.7,34.4,42.63-34.4,42.63-34.4A34.87,34.87,0,0,1,283.61,53.32Z" fill="#fff" stroke="#262521" stroke-linecap="round" stroke-linejoin="round" stroke-width="3"/><rect x="173.47" y="148.76" width="156.3" height="156.3" stroke-width="2.73" stroke="#262521" stroke-linecap="round" stroke-linejoin="round" fill="#262521"/><path d="M220.08,297.26c-15.16-16.15-10.84-37.05-23.17-43.21-2.93,17.45,5.53,34.15,8.6,51h20.1C223.81,302.43,221.94,299.85,220.08,297.26Z" fill="#fff" stroke="#fff" stroke-linecap="round" stroke-linejoin="round" stroke-width="2.73" opacity="0.3"/><path d="M295.51,286.79c9.36-45.53,18.91-91.5,21.23-138h-9.19c-8.79,21.94-5.7,46.18-8.28,69.19-3,30-6.9,61.92-24.79,87.11h15.81Q293.25,296,295.51,286.79Z" fill="#fff" stroke="#fff" stroke-linecap="round" stroke-linejoin="round" stroke-width="2.73" opacity="0.3"/><path d="M319.43,242.25c-3.57,9.74-3,20.47-6,30.39-2.52,10.6-5.73,21.45-5.83,32.42h16.87c0-12.78-.56-25.55.44-38.31.35-8.89.72-19.07-3.47-27.23A6.28,6.28,0,0,0,319.43,242.25Z" fill="#fff" stroke="#fff" stroke-linecap="round" stroke-linejoin="round" stroke-width="2.73" opacity="0.3"/><path d="M202.87,209.69s17.37,2.66,31.36,20" fill="none" stroke="#fff" stroke-linecap="round" stroke-linejoin="round" stroke-width="6.46"/><path d="M236.72,207s-8.3,16.3-21.87,26.4" fill="none" stroke="#fff" stroke-linecap="round" stroke-linejoin="round" stroke-width="6.46"/><path d="M242.92,209.69s24.1,16.66,28.17,20.91" fill="none" stroke="#fff" stroke-linecap="round" stroke-linejoin="round" stroke-width="6.46"/><path d="M276.06,204.91s-8.87,4.08-15.42,15.33-17.72,19.4-17.72,19.4" fill="none" stroke="#fff" stroke-linecap="round" stroke-linejoin="round" stroke-width="6.46"/><path d="M186.21,233.44s122.27,14,130.78,13.64" fill="none" stroke="#fff" stroke-linecap="round" stroke-linejoin="round" stroke-width="6.46"/></svg>