<svg xmlns="http://www.w3.org/2000/svg" xmlns:xlink="http://www.w3.org/1999/xlink" width="500" height="550" viewBox="0 0 500 550"><defs><clipPath id="a"><path d="M409.82,137.31C401,118.1,395.31,94.7,379.37,80.11,353,62.93,321.06,59,291.94,48.52c-3.68-1.53-5,3.73-7.88,5C266.7,64,244.6,60.82,225.41,58.39c-7.1-1.25-13.56-4.11-18.56-9.66a3.13,3.13,0,0,0-2.72-.43c-30.43,11-63.14,16.58-90.46,34.78-23.5,30.35-34.46,68.24-48.07,103.67-23.59,59.07-28.1,123-26.19,186a145.1,145.1,0,0,0,2.72,33.31,6.66,6.66,0,0,0,1.33,3.22C49.78,415,49.92,424,52,431.71c.31,1.47,1,1.81,2.41,1.46C66.87,430,80.59,430.84,93,434.36c3.12.94,3.16,1.12,3.73-2.05,1.45-8,3.48-15.79,9.19-22.06A5.17,5.17,0,0,0,107,407c-1.08-8.1,0-16,1.53-23.93,1.19-8.37,4.89-16.88,4.38-25.31-1-3.31.13-6.43.37-9.58,1.26-11.18,6-24.61-5.15-32.56-5.69-6.89,9.45-5.51,11.81-16.19,1.35-2.85,2.88-5.63,4.29-8.45q.21,4.56.34,9.12c0,.15,0,.3,0,.44.09,2.9.15,5.79.19,8.69,0,.27,0,.53,0,.8,0,2.78.07,5.55.08,8.33v1.13c0,2.65,0,5.3,0,7.95V329c0,2.46,0,4.91-.06,7.36,0,1,0,1.9,0,2.85,0,1.25,0,2.51,0,3.77-.31,29.94-.79,59.87,3.1,89.5,1.41,10.78-1.87,18.05-.53,29.31.94,5.1,1.4,5.42,6.62,4.82,24.35-3.76,58.38-1.51,83-2.09,45-2.79,102.07-4.81,146.65,2.92,1.35.24,2.77.34,3.35-1.43,2.84-8.59.53-15.56,1.5-25.63.87-9,2.74-16.47,3.55-25.45q.12-25.35.26-50.71h0v-.62q.18-36.06.35-72.13l.41-.08h0c.51,7.25,12.44,8.69,10.93,15.93-2.92,3.84-2.67,8-1.61,12.33,3.05,11.88,5.55,24,10.45,35.3,1.35,3.61,1.51,7.12-.51,10.65-5.47,9-2.69,31.59.18,40.9a2.29,2.29,0,0,0,1.06,1.21,22.49,22.49,0,0,0,3.3,4.79c3.31,5.85,3.1,21.26,11.44,21.4,12.55-3.9,25.32-1.07,37.8,1.58,2.67.5,2.68.28,3.08-2.32.83-5.36,1.69-10.73,2.91-16,.35-4.69,5.07-7.12,5.56-11.78,3.05-18.51,2.09-37.3,3.29-56C467.82,274.71,437.64,204.8,409.82,137.31Z" fill="none"/></clipPath></defs><title>s04e13-04</title><g clip-path="url(#a)"><rect x="21.71" y="5.14" width="478.49" height="501.56" fill="#7f8183"/></g><path d="M121,146.25l48.11-54.93L195,206.66l35.51-87.13,46.66,115.35s55.29-162.37,71-170.3l23.34,39.61V278.44l-42.61-61.38,20.8,164.84-64.93-82.17-10.65,129.2-25.36-45.54-20.29,45.54L203.13,303.69l-19.28,6.43L164.58,442.3,124,389.82Z" fill="#262521"/><path d="M121,153.66l44.05-46.36L194.51,225,229,137.85l48.69,115.59S333,87.85,348.7,79.93l22.83,43.79s-.81,59.69,2.57,112.87l-2.57,41.85L320.21,204.5l21.46,167.22-65.78-83.26-7.77,129.66-21.69-38.95-19.89,40.11-24.6-121.45-26.87,10-16.27,127-34.8-45Z" fill="#6e7072"/><path d="M203.62,48.4c.8-.26,5.41,42.75,43.41,44.79S291.94,49,291.94,49" fill="none" stroke="#262521" stroke-linecap="round" stroke-linejoin="round" stroke-width="3"/><path d="M372.08,291.55q-.27,61.74-.62,123.47c-.81,9-2.68,16.41-3.55,25.44-1,10.07,1.34,17-1.5,25.63-.58,1.77-2,1.67-3.35,1.44-44.58-7.74-101.65-5.72-146.65-2.93-24.59.58-58.62-1.67-83,2.09-5.22.6-5.68.28-6.62-4.82-1.34-11.26,1.94-18.53.53-29.31-6.15-46.82-1.39-94.38-3.6-141.53-1.41,2.82-2.94,5.6-4.28,8.46-2.37,10.67-17.51,9.3-11.82,16.18,11.12,7.95,6.41,21.38,5.15,32.56-.24,3.15-1.34,6.27-.37,9.58.51,8.43-3.19,16.94-4.38,25.31-1.5,8-2.61,15.83-1.53,23.93a5.17,5.17,0,0,1-1.14,3.3c-5.71,6.28-7.74,14-9.19,22.06-.57,3.18-.61,3-3.73,2-12.38-3.52-26.1-4.38-38.61-1.18-1.39.34-2.1,0-2.41-1.47-2-7.76-2.17-16.67-8.49-22.43a6.62,6.62,0,0,1-1.33-3.22,145,145,0,0,1-2.72-33.3c-1.91-63,2.61-126.93,26.2-186,13.6-35.43,24.56-73.32,48.06-103.67,27.32-18.2,60-23.76,90.46-34.78a3.16,3.16,0,0,1,2.72.43c5,5.55,11.46,8.41,18.56,9.67,19.19,2.43,41.29,5.55,58.65-4.88,2.86-1.27,4.2-6.53,7.88-5,29.12,10.49,61.05,14.4,87.43,31.58,15.94,14.59,21.63,38,30.45,57.21,27.82,67.48,58,137.39,51.06,212.07-1.2,18.66-.24,37.46-3.29,56-.48,4.66-5.2,7.09-5.56,11.78-1.21,5.28-2.07,10.65-2.9,16-.41,2.6-.42,2.83-3.09,2.33-12.48-2.66-25.25-5.49-37.8-1.58-8.33-.15-8.13-15.56-11.44-21.41-6.28-7.36-3.61-9-5.33-17.63-.9-9.7-4.68-20.27.79-29.26,2-3.53,1.87-7.05.51-10.66-4.9-11.29-7.4-23.42-10.45-35.29-1.06-4.31-1.31-8.5,1.61-12.34,1.49-7.15-10.43-8.7-10.93-15.93Z" fill="none" stroke="#262521" stroke-linecap="round" stroke-linejoin="round" stroke-width="3"/><path d="M121.09,171.92s3,37.54.91,53.17.11,29.7.11,32.87S123.75,291,123.75,291" fill="none" stroke="#262521" stroke-linecap="round" stroke-linejoin="round" stroke-width="3"/><path d="M371.53,188.66s5.79,47.28,0,75.34l1,27.47" fill="none" stroke="#262521" stroke-linecap="round" stroke-linejoin="round" stroke-width="3"/></svg>