<svg xmlns="http://www.w3.org/2000/svg" width="500" height="550" viewBox="0 0 500 550"><defs><clipPath id="a"><path d="M409.63 137.31c-8.83-19.21-14.52-42.61-30.46-57.2-26.38-17.18-58.31-21.11-87.43-31.59-3.68-1.53-5 3.73-7.88 5-17.35 10.43-39.46 7.3-58.65 4.87-7.09-1.25-13.56-4.11-18.56-9.66a3.13 3.13 0 00-2.72-.43c-30.43 11-63.14 16.58-90.46 34.78C90 113.43 79 151.32 65.41 186.75c-23.59 59.07-28.11 123-26.2 186a145.1 145.1 0 002.72 33.31 6.67 6.67 0 001.34 3.22c6.31 5.76 6.45 14.67 8.48 22.43.31 1.47 1 1.81 2.41 1.46 12.52-3.19 26.23-2.33 38.61 1.19 3.12.94 3.16 1.12 3.74-2.05 1.44-8 3.47-15.79 9.18-22.06a5.17 5.17 0 001.14-3.3c-1.07-8.1 0-16 1.53-23.93 1.19-8.37 4.89-16.88 4.39-25.31-1-3.31.12-6.43.37-9.58 1.25-11.18 6-24.61-5.16-32.56-5.69-6.89 9.45-5.51 11.82-16.19 1.34-2.85 2.87-5.63 4.28-8.45.14 3 .26 6.08.34 9.12v.44c.08 2.9.14 5.79.18 8.69v.8c0 2.78.06 5.55.07 8.33v10.67q0 3.69-.05 7.36v6.62c-.31 29.94-.79 59.87 3.1 89.5 1.42 10.78-1.87 18.05-.52 29.31.94 5.1 1.39 5.42 6.62 4.82 24.34-3.76 58.37-1.51 83-2.09 45-2.79 102.07-4.81 146.65 2.92 1.36.24 2.77.34 3.35-1.43 2.85-8.59.53-15.56 1.5-25.63.87-9 2.74-16.47 3.55-25.45l.15-50.71v-.62q.18-36.06.35-72.13l.41-.08c.51 7.25 12.44 8.69 10.93 15.93-2.92 3.84-2.67 8-1.61 12.33 3.06 11.88 5.55 24 10.45 35.3 1.36 3.61 1.51 7.12-.5 10.65-5.48 9-2.7 31.59.17 40.9a2.34 2.34 0 001.06 1.21 22.49 22.49 0 003.3 4.79c3.31 5.85 3.11 21.26 11.45 21.4 12.54-3.9 25.31-1.07 37.79 1.58 2.67.5 2.68.28 3.09-2.32.83-5.36 1.69-10.73 2.91-16 .35-4.69 5.07-7.12 5.55-11.78 3.05-18.51 2.09-37.3 3.29-56 6.98-74.65-23.2-144.56-51.01-212.05z" fill="none"/></clipPath></defs><g clip-path="url(#a)"><path fill="#262521" d="M21.51 5.14H500V506.7H21.51z"/></g><path fill="none" stroke="#838180" stroke-miterlimit="10" stroke-width="6" d="M393.8 408.9h60.98m-64.48-15.5h68.48m-69.98-15.51h70.98m-67.48-15.51h67.48"/><path fill="#838180" d="M460.28 349.88H390.3l-2.5-6h72.48v6zm1-15.51H384.8l-1.5-6h78.48l-.5 6z"/><path fill="none" stroke="#838180" stroke-miterlimit="10" stroke-width="6" d="M380.3 315.86h81.48"/><path fill="#838180" d="M460.28 303.36h-78.62l-7-6h85.62v6z"/><path fill="none" stroke="#838180" stroke-miterlimit="10" stroke-width="6" d="M371.61 284.85h86.67m-86.76-15.51h82.39m-81.29-15.5h78.05m-77.34-15.51h73.64m-73.45-15.51h68.13m-67.75-15.5h62.15m-62.15-15.51h56.33m-56.47-15.51h51.53"/><path fill="#838180" d="M105.11 411.9H43.63l-3-6h66.48l-2 6z"/><path fill="none" stroke="#838180" stroke-miterlimit="10" stroke-width="6" d="M106.28 393.4H39.46m69.4-15.51H38.63m72.62-15.51H38.31m74.94-15.5H37.82m77.55-15.51H38.01m69.45-15.51H38.31m80.96-15.5H40.05m83.75-15.51H41.49m81.36-15.51H43.5m79.3-15.5H44.74m77.34-15.51H48.44m73.45-15.51H53.76m67.75-15.5H59.36m62.15-15.51H65.18m56.48-15.51H70.12m57.54 255.47h241.19m-243.03-17.03h245.95m-245.95-17.03h245.51m-246.91-17.03h246.91m-246.96-17.04h247.17m-247.73-17.03h247.52m-247-17.03h247m-246.91-17.03h247.37m-247.98-17.03h247.52m-248.48-17.03h248.48m-248.94-17.03H371.9m-251.01-17.03h251.94M121.8 227.4h251.6m-250.55-17.04h248.98M121.8 193.33h251.1M122.35 176.3h248.98"/><path d="M204.39 51.38c.81-.26 4.45 39.77 42.44 41.81s45.37-41.58 45.37-41.58" fill="none" stroke="#636363" stroke-linecap="round" stroke-linejoin="round"/><path d="M371.88 291.55q-.25 61.74-.61 123.47c-.82 9-2.69 16.41-3.56 25.44-1 10.07 1.35 17-1.5 25.63-.58 1.77-2 1.67-3.35 1.44-44.58-7.74-101.65-5.72-146.65-2.93-24.59.58-58.61-1.67-83 2.09-5.23.6-5.68.28-6.62-4.82-1.35-11.26 1.94-18.53.52-29.31-6.15-46.82-1.39-94.38-3.6-141.53-1.41 2.82-2.94 5.6-4.28 8.46-2.37 10.67-17.51 9.3-11.82 16.18 11.12 7.95 6.41 21.38 5.16 32.56-.25 3.15-1.35 6.27-.37 9.58.5 8.43-3.2 16.94-4.39 25.31-1.5 8-2.6 15.83-1.53 23.93a5.17 5.17 0 01-1.14 3.3c-5.71 6.28-7.74 14-9.18 22.06-.57 3.18-.62 3-3.74 2-12.38-3.52-26.09-4.38-38.61-1.18-1.39.34-2.1 0-2.41-1.47-2-7.76-2.17-16.67-8.48-22.43a6.52 6.52 0 01-1.33-3.22 143.91 143.91 0 01-2.72-33.3c-1.92-63 2.6-126.93 26.19-186C78.5 151.42 89.46 113.53 113 83.18 140.28 65 173 59.42 203.42 48.4a3.16 3.16 0 012.72.43c5 5.55 11.47 8.41 18.56 9.67 19.19 2.43 41.3 5.55 58.65-4.88 2.86-1.27 4.2-6.53 7.88-5 29.12 10.49 61 14.4 87.43 31.58 15.94 14.59 21.63 38 30.46 57.21 27.81 67.48 58 137.39 51.05 212.07-1.19 18.66-.24 37.46-3.29 56-.48 4.66-5.2 7.09-5.55 11.78-1.22 5.28-2.08 10.65-2.91 16-.41 2.6-.42 2.83-3.09 2.33-12.47-2.66-25.25-5.49-37.79-1.58-8.34-.15-8.14-15.56-11.45-21.41-6.27-7.36-3.6-9-5.32-17.63-.9-9.7-4.69-20.27.79-29.26 2-3.53 1.86-7.05.51-10.66-4.9-11.29-7.4-23.42-10.46-35.29-1.06-4.31-1.31-8.5 1.62-12.34 1.49-7.15-10.43-8.7-10.94-15.93z" fill="none" stroke="#262521" stroke-linecap="round" stroke-linejoin="round" stroke-width="3"/><path d="M120.89 171.92s3 37.54.91 53.17.11 29.7.11 32.87 1.9 33.07 1.9 33.07m247.52-102.37s5.79 47.28 0 75.34l1 27.47" fill="none" stroke="#262521" stroke-linecap="round" stroke-linejoin="round" stroke-width="3"/><path d="M76.1 175.57a.75.75 0 000-1.5.75.75 0 000 1.5zm35.35.28a.75.75 0 000-1.5.75.75 0 000 1.5zm-17 2.15a.75.75 0 000-1.5.75.75 0 000 1.5zm-11.78-1.18a.75.75 0 000-1.5.75.75 0 000 1.5zm20.73 16.33a.75.75 0 000-1.5.75.75 0 000 1.5zm-13.12-1.93a.75.75 0 000-1.5.75.75 0 000 1.5zm-15.77 2.44a.75.75 0 000-1.5.75.75 0 000 1.5z" fill="#fff"/><path d="M82.67 176.82a.75.75 0 000-1.5.75.75 0 000 1.5zm44.33-.61a.75.75 0 000-1.5.75.75 0 000 1.5zm15 18.99a.75.75 0 000-1.5.75.75 0 000 1.5zm14.62-18.52a.75.75 0 000-1.5.75.75 0 000 1.5zm18.52 1.62a.75.75 0 000-1.5.75.75 0 000 1.5zM63.28 207.48a.75.75 0 000-1.5.75.75 0 000 1.5zm12.04 1.62a.75.75 0 000-1.5.75.75 0 000 1.5zM91.3 207a.75.75 0 000-1.5.75.75 0 000 1.5zm25.25.25a.75.75 0 000-1.5.75.75 0 000 1.5zm-1.62 18.06a.75.75 0 000-1.5.75.75 0 000 1.5zm-6.03-2.08a.75.75 0 000-1.5.75.75 0 000 1.5zm-31.26 2.08a.75.75 0 000-1.5.75.75 0 000 1.5zm-9.04-2.08a.75.75 0 000-1.5.75.75 0 000 1.5zm-9.49 15.98a.75.75 0 000-1.5.75.75 0 000 1.5zm15.75.93a.75.75 0 000-1.5.75.75 0 000 1.5zm9.49-1.39a.75.75 0 000-1.5.75.75 0 000 1.5zm14.83-.23a.75.75 0 000-1.5.75.75 0 000 1.5zm17.82 1.85a.75.75 0 000-1.5.75.75 0 000 1.5zM115.16 255a.75.75 0 000-1.5.75.75 0 000 1.5zm-12.05-1a.75.75 0 000-1.5.75.75 0 000 1.5zm-26.86 1.89a.75.75 0 000-1.5.75.75 0 000 1.5zM68.37 254a.75.75 0 000-1.5.75.75 0 000 1.5zM51 253.57a.75.75 0 000-1.5.75.75 0 000 1.5zm37.52 15.98a.75.75 0 000-1.5.75.75 0 000 1.5zm-27.79 2.09a.75.75 0 000-1.5.75.75 0 000 1.5zm-4.63-2.32a.75.75 0 000-1.5.75.75 0 000 1.5zm54.19 2.08a.75.75 0 000-1.5.75.75 0 000 1.5zm7.42 14.13a.75.75 0 000-1.5.75.75 0 000 1.5zm-13.9-1.16a.75.75 0 000-1.5.75.75 0 000 1.5zm-28.26 2.09a.75.75 0 000-1.5.75.75 0 000 1.5zm-6.95-.7a.75.75 0 000-1.5.75.75 0 000 1.5zm-22.46-.92a.75.75 0 000-1.5.75.75 0 000 1.5zm.46 15.75a.75.75 0 000-1.5.75.75 0 000 1.5zm17.6 1.16a.75.75 0 000-1.5.75.75 0 000 1.5zm17.8-1.39a.75.75 0 000-1.5.75.75 0 000 1.5zm4 1.64a.75.75 0 000-1.5.75.75 0 000 1.5zm22.21-1.18a.75.75 0 000-1.5.75.75 0 000 1.5zM101 317a.75.75 0 000-1.5.75.75 0 000 1.5zm-7.38-.66a.75.75 0 000-1.5.75.75 0 000 1.5zm-24.55 0a.75.75 0 000-1.5.75.75 0 000 1.5zm-19.69.46a.75.75 0 000-1.5.75.75 0 000 1.5zm-5.33-1.39a.75.75 0 000-1.5.75.75 0 000 1.5zM82 331.16a.75.75 0 000-1.5.75.75 0 000 1.5zM97.09 333a.75.75 0 000-1.5.75.75 0 000 1.5zm9.5-.68a.75.75 0 000-1.5.75.75 0 000 1.5zm-51.19.46a.75.75 0 000-1.5.75.75 0 000 1.5zm-9.96-2.08a.75.75 0 000-1.5.75.75 0 000 1.5zm5.79 17.83a.75.75 0 000-1.5.75.75 0 000 1.5zM73 346.91a.75.75 0 000-1.5.75.75 0 000 1.5zm7.18 1.39a.75.75 0 000-1.5.75.75 0 000 1.5zm20.82-.93a.75.75 0 000-1.5.75.75 0 000 1.5zm-54.86 15.75a.75.75 0 000-1.5.75.75 0 000 1.5zm15.75-.92a.75.75 0 000-1.5.75.75 0 000 1.5zm7.18.46a.75.75 0 000-1.5.75.75 0 000 1.5zm19.45.93a.75.75 0 000-1.5.75.75 0 000 1.5zm9.48-.93a.75.75 0 000-1.5.75.75 0 000 1.5zm9.75 1.16a.75.75 0 000-1.5.75.75 0 000 1.5zM102 379.57a.75.75 0 000-1.5.75.75 0 000 1.5zm-13-1.39a.75.75 0 000-1.5.75.75 0 000 1.5zm-12.52 1.16a.75.75 0 000-1.5.75.75 0 000 1.5zm-18.76-1.63a.75.75 0 000-1.5.75.75 0 000 1.5zm-12.97.93a.75.75 0 000-1.5.75.75 0 000 1.5zM54 392.77a.75.75 0 000-1.5.75.75 0 000 1.5zm20.39 2.31a.75.75 0 000-1.5.75.75 0 000 1.5zm19.23-1.38a.75.75 0 000-1.5.75.75 0 000 1.5zm1.16 15.98a.75.75 0 000-1.5.75.75 0 000 1.5zm-9.04-.47a.75.75 0 000-1.5.75.75 0 000 1.5zm-29.18 1.16a.75.75 0 000-1.5.75.75 0 000 1.5zm9.03-1.85a.75.75 0 000-1.5.75.75 0 000 1.5zm354.14-232.95a.75.75 0 000-1.5.75.75 0 000 1.5zm-35.35.28a.75.75 0 000-1.5.75.75 0 000 1.5zm16.99 2.15a.75.75 0 000-1.5.75.75 0 000 1.5zm11.78-1.18a.75.75 0 000-1.5.75.75 0 000 1.5zm-20.72 16.33a.75.75 0 000-1.5.75.75 0 000 1.5zm13.12-1.93a.75.75 0 000-1.5.75.75 0 000 1.5zm15.77 2.44a.75.75 0 000-1.5.75.75 0 000 1.5z" fill="#fff"/><path d="M413.15 176.82a.75.75 0 000-1.5.75.75 0 000 1.5zm19.4 30.66a.75.75 0 000-1.5.75.75 0 000 1.5zm-12.04 1.62a.75.75 0 000-1.5.75.75 0 000 1.5zm-15.99-2.1a.75.75 0 000-1.5.75.75 0 000 1.5zm-25.24.25a.75.75 0 000-1.5.75.75 0 000 1.5zm1.62 18.06a.75.75 0 000-1.5.75.75 0 000 1.5zm6.02-2.08a.75.75 0 000-1.5.75.75 0 000 1.5zm31.27 2.08a.75.75 0 000-1.5.75.75 0 000 1.5zm9.03-2.08a.75.75 0 000-1.5.75.75 0 000 1.5zm9.5 15.98a.75.75 0 000-1.5.75.75 0 000 1.5zm-15.72.93a.75.75 0 000-1.5.75.75 0 000 1.5zm-9.53-1.39a.75.75 0 000-1.5.75.75 0 000 1.5zm-14.82-.23a.75.75 0 000-1.5.75.75 0 000 1.5zm-17.83 1.85a.75.75 0 000-1.5.75.75 0 000 1.5zm1.85 14.63a.75.75 0 000-1.5.75.75 0 000 1.5zm12.04-1a.75.75 0 000-1.5.75.75 0 000 1.5zm26.87 1.89a.75.75 0 000-1.5.75.75 0 000 1.5zm7.87-1.89a.75.75 0 000-1.5.75.75 0 000 1.5zm17.38-.43a.75.75 0 000-1.5.75.75 0 000 1.5zm-37.53 15.98a.75.75 0 000-1.5.75.75 0 000 1.5zm27.8 2.09a.75.75 0 000-1.5.75.75 0 000 1.5zm4.63-2.32a.75.75 0 000-1.5.75.75 0 000 1.5zm-54.2 2.08a.75.75 0 000-1.5.75.75 0 000 1.5zm-7.41 14.13a.75.75 0 000-1.5.75.75 0 000 1.5zm13.88-1.16a.75.75 0 000-1.5.75.75 0 000 1.5zm28.27 2.09a.75.75 0 000-1.5.75.75 0 000 1.5zm6.95-.7a.75.75 0 000-1.5.75.75 0 000 1.5zm22.47-.92a.75.75 0 000-1.5.75.75 0 000 1.5zm-.46 15.75a.75.75 0 000-1.5.75.75 0 000 1.5zm-17.61 1.16a.75.75 0 000-1.5.75.75 0 000 1.5zm-17.83-1.39a.75.75 0 000-1.5.75.75 0 000 1.5zm-3.94 1.64a.75.75 0 000-1.5.75.75 0 000 1.5zm-22.23-1.18a.75.75 0 000-1.5.75.75 0 000 1.5zM394.8 317a.75.75 0 000-1.5.75.75 0 000 1.5zm7.41-.66a.75.75 0 000-1.5.75.75 0 000 1.5zm24.55 0a.75.75 0 000-1.5.75.75 0 000 1.5zm19.69.46a.75.75 0 000-1.5.75.75 0 000 1.5zm5.32-1.39a.75.75 0 000-1.5.75.75 0 000 1.5zm-37.98 15.75a.75.75 0 000-1.5.75.75 0 000 1.5zM398.73 333a.75.75 0 000-1.5.75.75 0 000 1.5zm-9.49-.68a.75.75 0 000-1.5.75.75 0 000 1.5zm51.18.46a.75.75 0 000-1.5.75.75 0 000 1.5zm9.96-2.08a.75.75 0 000-1.5.75.75 0 000 1.5zm3.53 16.23a.75.75 0 000-1.5.75.75 0 000 1.5zm-31.09-.02a.75.75 0 000-1.5.75.75 0 000 1.5zm-7.18 1.39a.75.75 0 000-1.5.75.75 0 000 1.5zm-20.84-.93a.75.75 0 000-1.5.75.75 0 000 1.5zm54.89 15.75a.75.75 0 000-1.5.75.75 0 000 1.5zm-15.75-.92a.75.75 0 000-1.5.75.75 0 000 1.5zm-7.18.46a.75.75 0 000-1.5.75.75 0 000 1.5zm-19.46.93a.75.75 0 000-1.5.75.75 0 000 1.5zm-9.49-.93a.75.75 0 000-1.5.75.75 0 000 1.5zm-3.94 16.91a.75.75 0 000-1.5.75.75 0 000 1.5zm12.97-1.39a.75.75 0 000-1.5.75.75 0 000 1.5zm12.51 1.16a.75.75 0 000-1.5.75.75 0 000 1.5zm18.76-1.63a.75.75 0 000-1.5.75.75 0 000 1.5zm12.97.93a.75.75 0 000-1.5.75.75 0 000 1.5zm-9.27 14.13a.75.75 0 000-1.5.75.75 0 000 1.5zm-20.38 2.31a.75.75 0 000-1.5.75.75 0 000 1.5zm-19.22-1.38a.75.75 0 000-1.5.75.75 0 000 1.5zm-1.16 15.98a.75.75 0 000-1.5.75.75 0 000 1.5zm9.03-.47a.75.75 0 000-1.5.75.75 0 000 1.5zm29.19 1.16a.75.75 0 000-1.5.75.75 0 000 1.5zm-9.04-1.85a.75.75 0 000-1.5.75.75 0 000 1.5zM155.74 193.38a.75.75 0 000-1.5.75.75 0 000 1.5zm-25.91 0a.75.75 0 000-1.5.75.75 0 000 1.5zm53.31 1.88a.75.75 0 000-1.5.75.75 0 000 1.5zm25.91-1.5a.75.75 0 000-1.5.75.75 0 000 1.5zM197 177.24a.75.75 0 000-1.5.75.75 0 000 1.5zm34.57-.75a.75.75 0 000-1.5.75.75 0 000 1.5zm30.43.75a.75.75 0 000-1.5.75.75 0 000 1.5zm35.27-.38a.75.75 0 000-1.5.75.75 0 000 1.5zm9.01 1.14a.75.75 0 000-1.5.75.75 0 000 1.5zm51.05-1.14a.75.75 0 000-1.5.75.75 0 000 1.5zm-16.14.76a.75.75 0 000-1.5.75.75 0 000 1.5zm5.26 17.64a.75.75 0 000-1.5.75.75 0 000 1.5zm5.63-1.13a.75.75 0 000-1.5.75.75 0 000 1.5zm-29.66 0a.75.75 0 000-1.5.75.75 0 000 1.5zm-36.79.75a.75.75 0 000-1.5.75.75 0 000 1.5zm-40.54-1.12a.75.75 0 000-1.5.75.75 0 000 1.5zm10.13 1.12a.75.75 0 000-1.5.75.75 0 000 1.5zM199.29 211a.75.75 0 000-1.5.75.75 0 000 1.5zm24.4 1.15a.75.75 0 000-1.5.75.75 0 000 1.5zm26.65-2.62a.75.75 0 000-1.5.75.75 0 000 1.5zm17.27 1.87a.75.75 0 000-1.5.75.75 0 000 1.5zm10.51 0a.75.75 0 000-1.5.75.75 0 000 1.5zm43.55-.4a.75.75 0 000-1.5.75.75 0 000 1.5zm-9.01 0a.75.75 0 000-1.5.75.75 0 000 1.5zm42.8.78a.75.75 0 000-1.5.75.75 0 000 1.5zm12.76-1.13a.75.75 0 000-1.5.75.75 0 000 1.5zm-188.08 1.5a.75.75 0 000-1.5.75.75 0 000 1.5zm-15.39-1.87a.75.75 0 000-1.5.75.75 0 000 1.5zm-33.41 1.87a.75.75 0 000-1.5.75.75 0 000 1.5zM128 228.67a.75.75 0 000-1.5.75.75 0 000 1.5zm17.23-1.88a.75.75 0 000-1.5.75.75 0 000 1.5zm9.01 1.88a.75.75 0 000-1.5.75.75 0 000 1.5zm29.65-.37a.75.75 0 000-1.5.75.75 0 000 1.5zm33.04.75a.75.75 0 000-1.5.75.75 0 000 1.5zm-7.13-1.13a.75.75 0 000-1.5.75.75 0 000 1.5zm37.2 1.5a.75.75 0 000-1.5.75.75 0 000 1.5zm30-1.88a.75.75 0 000-1.5.75.75 0 000 1.5zm10.88 1.88a.75.75 0 000-1.5.75.75 0 000 1.5zm33.79-.75a.75.75 0 000-1.5.75.75 0 000 1.5zm26.33-1.13a.75.75 0 000-1.5.75.75 0 000 1.5zm9.71 1.51a.75.75 0 000-1.5.75.75 0 000 1.5zm5.63 16.51a.75.75 0 000-1.5.75.75 0 000 1.5zm-24.4.38a.75.75 0 000-1.5.75.75 0 000 1.5zm-7.13-1.88a.75.75 0 000-1.5.75.75 0 000 1.5zm-31.91.75a.75.75 0 000-1.5.75.75 0 000 1.5zm-35.67.75a.75.75 0 000-1.5.75.75 0 000 1.5zm-39.79 1.13a.75.75 0 000-1.5.75.75 0 000 1.5zm-12.01-2.63a.75.75 0 000-1.5.75.75 0 000 1.5zm-31.54 1.88a.75.75 0 000-1.5.75.75 0 000 1.5zm-25.15 0a.75.75 0 000-1.5.75.75 0 000 1.5zm-15.02-1.13a.75.75 0 000-1.5.75.75 0 000 1.5zM357 262.83a.75.75 0 000-1.5.75.75 0 000 1.5zm-19.56-1.12a.75.75 0 000-1.5.75.75 0 000 1.5zm-21.03 1.87a.75.75 0 000-1.5.75.75 0 000 1.5zm-57.81-1.87a.75.75 0 000-1.5.75.75 0 000 1.5zm18.02 0a.75.75 0 000-1.5.75.75 0 000 1.5zm-78.09 1.5a.75.75 0 000-1.5.75.75 0 000 1.5zM180.51 261a.75.75 0 000-1.5.75.75 0 000 1.5zm-21.77 1.46a.75.75 0 000-1.5.75.75 0 000 1.5zm-28.53-.75a.75.75 0 000-1.5.75.75 0 000 1.5zM137 278.6a.75.75 0 000-1.5.75.75 0 000 1.5zm15 1.88a.75.75 0 000-1.5.75.75 0 000 1.5zm26.64-1.13a.75.75 0 000-1.5.75.75 0 000 1.5zm27.78-1.12a.75.75 0 000-1.5.75.75 0 000 1.5zm22.9 2.62a.75.75 0 000-1.5.75.75 0 000 1.5zm9.76-1.85a.75.75 0 000-1.5.75.75 0 000 1.5zm42.42 0a.75.75 0 000-1.5.75.75 0 000 1.5zm27.03 1.1a.75.75 0 000-1.5.75.75 0 000 1.5zm27.78.38a.75.75 0 000-1.5.75.75 0 000 1.5zm9.01-1.88a.75.75 0 000-1.5.75.75 0 000 1.5zm19.52.75a.75.75 0 000-1.5.75.75 0 000 1.5zm1.16 18.4a.75.75 0 000-1.5.75.75 0 000 1.5zm-16.17-2.63a.75.75 0 000-1.5.75.75 0 000 1.5zm-5.26 1.88a.75.75 0 000-1.5.75.75 0 000 1.5zm-32.66-1.51a.75.75 0 000-1.5.75.75 0 000 1.5zm-24.4 1.13a.75.75 0 000-1.5.75.75 0 000 1.5zm-29.28-1.13a.75.75 0 000-1.5.75.75 0 000 1.5zm-25.91 1.88a.75.75 0 000-1.5.75.75 0 000 1.5zm-21.4-1.12a.75.75 0 000-1.5.75.75 0 000 1.5zm-5.25-1.13a.75.75 0 000-1.5.75.75 0 000 1.5zm-36.04.75a.75.75 0 000-1.5.75.75 0 000 1.5zm-25.53.38a.75.75 0 000-1.5.75.75 0 000 1.5zm-12.01 18.39a.75.75 0 000-1.5.75.75 0 000 1.5zm14.64-1.5a.75.75 0 000-1.5.75.75 0 000 1.5zm19.89.75a.75.75 0 000-1.5.75.75 0 000 1.5zM185 312a.75.75 0 000-1.5.75.75 0 000 1.5zm6.78 1.51a.75.75 0 000-1.5.75.75 0 000 1.5zm26.28 0a.75.75 0 000-1.5.75.75 0 000 1.5zm35.66 0a.75.75 0 000-1.5.75.75 0 000 1.5zm9.01-.37a.75.75 0 000-1.5.75.75 0 000 1.5zm27.03-1.5a.75.75 0 000-1.5.75.75 0 000 1.5zm18.4 2.63a.75.75 0 000-1.5.75.75 0 000 1.5zm28.15-1.13a.75.75 0 000-1.5.75.75 0 000 1.5zm24.78.37a.75.75 0 000-1.5.75.75 0 000 1.5zm5.25 18.02a.75.75 0 000-1.5.75.75 0 000 1.5zm-10.13-2.25a.75.75 0 000-1.5.75.75 0 000 1.5zm-33.79.72a.75.75 0 000-1.5.75.75 0 000 1.5zm-33.04.78a.75.75 0 000-1.5.75.75 0 000 1.5zm-13.89-1.12a.75.75 0 000-1.5.75.75 0 000 1.5zm-26.65 1.12a.75.75 0 000-1.5.75.75 0 000 1.5zm-25.53-.78a.75.75 0 000-1.5.75.75 0 000 1.5zm-22.9.78a.75.75 0 000-1.5.75.75 0 000 1.5zm-25.53-1.12a.75.75 0 000-1.5.75.75 0 000 1.5zm-19.14.75a.75.75 0 000-1.5.75.75 0 000 1.5zm-17.65-.75a.75.75 0 000-1.5.75.75 0 000 1.5zm-6.38 16.89a.75.75 0 000-1.5.75.75 0 000 1.5zm12.77 2.25a.75.75 0 000-1.5.75.75 0 000 1.5zm19.14-2.62a.75.75 0 000-1.5.75.75 0 000 1.5zm25.9 1.5a.75.75 0 000-1.5.75.75 0 000 1.5zm15.4-.75a.75.75 0 000-1.5.75.75 0 000 1.5zm27.08.37a.75.75 0 000-1.5.75.75 0 000 1.5zm22.47 0a.75.75 0 000-1.5.75.75 0 000 1.5zm18.02.38a.75.75 0 000-1.5.75.75 0 000 1.5zm22.51-1.5a.75.75 0 000-1.5.75.75 0 000 1.5zm21.41 2.25a.75.75 0 000-1.5.75.75 0 000 1.5zm13.14-1.5a.75.75 0 000-1.5.75.75 0 000 1.5zm23.28.37a.75.75 0 000-1.5.75.75 0 000 1.5zm2.63 16.9a.75.75 0 000-1.5.75.75 0 000 1.5zm8.26.37a.75.75 0 000-1.5.75.75 0 000 1.5zm-39.8-1.5a.75.75 0 000-1.5.75.75 0 000 1.5zM285.26 365a.75.75 0 000-1.5.75.75 0 000 1.5zm-25.53-.8a.75.75 0 000-1.5.75.75 0 000 1.5zm-15.02 1.5a.75.75 0 000-1.5.75.75 0 000 1.5zm-31.91-1.5a.75.75 0 000-1.5.75.75 0 000 1.5zm-22.9 0a.75.75 0 000-1.5.75.75 0 000 1.5zm-11.26 1.12a.75.75 0 000-1.5.75.75 0 000 1.5zm-25.53-1.88a.75.75 0 000-1.5.75.75 0 000 1.5zM134 364.57a.75.75 0 000-1.5.75.75 0 000 1.5zm200.81 16.52a.75.75 0 000-1.5.75.75 0 000 1.5zm17.64.75a.75.75 0 000-1.5.75.75 0 000 1.5zm-48.45-.38a.75.75 0 000-1.5.75.75 0 000 1.5zm-48.4.76a.75.75 0 000-1.5.75.75 0 000 1.5zm-28.53-1.88a.75.75 0 000-1.5.75.75 0 000 1.5zm-30.07.75a.75.75 0 000-1.5.75.75 0 000 1.5zm-27 1.5a.75.75 0 000-1.5.75.75 0 000 1.5zm-25.15-1.5a.75.75 0 000-1.5.75.75 0 000 1.5zM140 398.36a.75.75 0 000-1.5.75.75 0 000 1.5zm7.48 1.87a.75.75 0 000-1.5.75.75 0 000 1.5zm34.16-1.5a.75.75 0 000-1.5.75.75 0 000 1.5zm39.42-1.5a.75.75 0 000-1.5.75.75 0 000 1.5zm14.64 1.88a.75.75 0 000-1.5.75.75 0 000 1.5zm36.42-.75a.75.75 0 000-1.5.75.75 0 000 1.5zm9.76 0a.75.75 0 000-1.5.75.75 0 000 1.5zm42.79-1.13a.75.75 0 000-1.5.75.75 0 000 1.5zm23.33 2.25a.75.75 0 000-1.5.75.75 0 000 1.5zm14.21-1.12a.75.75 0 000-1.5.75.75 0 000 1.5zm-.37 16.89a.75.75 0 000-1.5.75.75 0 000 1.5zm-19.15.75a.75.75 0 000-1.5.75.75 0 000 1.5zM313 416a.75.75 0 000-1.5.75.75 0 000 1.5zm-14.23.75a.75.75 0 000-1.5.75.75 0 000 1.5zm-9.77-1.87a.75.75 0 000-1.5.75.75 0 000 1.5zm-42.79.75a.75.75 0 000-1.5.75.75 0 000 1.5zm-28.53 1.12a.75.75 0 000-1.5.75.75 0 000 1.5zm-8.26-2.25a.75.75 0 000-1.5.75.75 0 000 1.5zm-34.54 1.5a.75.75 0 000-1.5.75.75 0 000 1.5zm-24.02 0a.75.75 0 000-1.5.75.75 0 000 1.5zm-16.86.38a.75.75 0 000-1.5.75.75 0 000 1.5zm0 15.39a.75.75 0 000-1.5.75.75 0 000 1.5zm18.73 2.23a.75.75 0 000-1.5.75.75 0 000 1.5zm19.15-3a.75.75 0 000-1.5.75.75 0 000 1.5zm9.39 1.9a.75.75 0 000-1.5.75.75 0 000 1.5z" fill="#fff"/><path d="M181.27 432.9a.75.75 0 000-1.5.75.75 0 000 1.5zm29.28-1.13a.75.75 0 000-1.5.75.75 0 000 1.5zm28.53.37a.75.75 0 000-1.5.75.75 0 000 1.5zm25.53 1.51a.75.75 0 000-1.5.75.75 0 000 1.5zm36.04-3.01a.75.75 0 000-1.5.75.75 0 000 1.5zm15.76 2.26a.75.75 0 000-1.5.75.75 0 000 1.5zm31.16-1.13a.75.75 0 000-1.5.75.75 0 000 1.5z" fill="#fff"/></svg>