<svg xmlns="http://www.w3.org/2000/svg" width="500" height="550" viewBox="0 0 500 550"><title>s04e10-01</title><path d="M365.91,301.32s-1.72,182.64-5,184.83-151.41,0-167.06-3.28-53.14,5-57.87,4.16-5.46-10.9-3.64-18.54,1.37-167.17,1.37-167.17Z" fill="#fff" stroke="#262521" stroke-linecap="round" stroke-linejoin="round" stroke-width="3"/><path d="M372.14,295.65q-.27,61.74-.62,123.46c-.81,9-2.68,16.41-3.55,25.45-1,10.07,1.34,17-1.5,25.63-.59,1.77-2,1.67-3.35,1.43-44.59-7.73-101.66-5.71-146.65-2.92-24.6.58-58.62-1.67-83,2.09-5.23.6-5.68.28-6.62-4.82-1.35-11.26,1.94-18.53.53-29.31-6.15-46.82-1.39-94.38-3.6-141.53-1.42,2.82-2.94,5.6-4.29,8.45-2.37,10.68-17.5,9.3-11.81,16.19,11.11,8,6.41,21.38,5.15,32.56-.25,3.15-1.35,6.27-.37,9.58.51,8.43-3.19,16.94-4.38,25.31-1.5,8-10.42,41.27-11.86,49.29-.57,3.17-.61,3-3.74,2.05-12.38-3.52-26.09-4.38-38.6-1.19-1.39.35-2.11,0-2.41-1.46-2-7.76.82-16.67-5.49-22.43a6.66,6.66,0,0,1-1.33-3.22c-2.23-11-6.07-22.12-5.72-33.31-1.91-63,2.6-126.93,26.19-186,13.61-35.44,24.56-73.32,48.07-103.67,27.32-18.2,60-23.76,90.46-34.78a3.13,3.13,0,0,1,2.72.43c5,5.55,11.46,8.41,18.56,9.66,19.19,2.43,41.29,5.56,58.65-4.87,2.85-1.28,4.2-6.53,7.87-5,29.12,10.5,61,14.41,87.44,31.59,15.94,14.59,21.63,38,30.45,57.2,27.81,67.49,58,137.4,51.05,212.08-1.19,18.66-.23,37.45-3.28,56-.49,4.66-5.21,7.09-5.56,11.78-1.22,5.28-2.08,10.65-2.91,16-.4,2.6-.41,2.82-3.08,2.32-12.48-2.65-25.26-5.48-37.8-1.58-8.34-.14-8.13-15.55-11.44-21.4-6.28-7.37-3.61-9-5.33-17.63-.9-9.7-4.68-20.27.79-29.27,2-3.53,1.86-7,.51-10.65-4.9-11.29-7.4-23.42-10.45-35.3-1.07-4.3-1.31-8.49,1.61-12.33,1.51-7.24-10.43-8.68-10.93-15.93Z" fill="#fff" stroke="#262521" stroke-linecap="round" stroke-linejoin="round" stroke-width="3"/><path d="M206,53s3.41,36.21,41.7,34.39S290.32,53,290.32,53" fill="none" stroke="#262521" stroke-linecap="round" stroke-linejoin="round" stroke-width="3"/><path d="M204.41,52.37s4,48.55,43.68,46.73,42.84-45.41,42.84-45.41" fill="none" stroke="#262521" stroke-linecap="round" stroke-linejoin="round" stroke-width="3"/><path d="M121.8,184.94s2.11,28.62,0,44.25.11,29.69.11,32.87,1.9,33.07,1.9,33.07" fill="none" stroke="#262521" stroke-linecap="round" stroke-linejoin="round" stroke-width="3"/><path d="M371.33,192.75s-1.25,73.86.81,102.9" fill="none" stroke="#262521" stroke-linecap="round" stroke-linejoin="round" stroke-width="3"/><path d="M51.32,413.6s28.66-9.48,45.15,2.48" fill="none" stroke="#636363" stroke-linecap="round" stroke-linejoin="round"/><path d="M402.18,416.08s25.94-8.31,43.55,0" fill="none" stroke="#636363" stroke-linecap="round" stroke-linejoin="round"/><path d="M197.66,62.63c2.77,14.3,15,47.82,50.14,46.21,36.25-1.66,46.89-34.35,49-46.52" fill="none" stroke="#636363" stroke-linecap="round" stroke-linejoin="round"/><path d="M287,86.84s56.74,40.56,64.95,66.5" fill="none" stroke="#636363" stroke-linecap="round" stroke-linejoin="round"/><path d="M207,86.84S150.24,127.4,142,153.34" fill="none" stroke="#636363" stroke-linecap="round" stroke-linejoin="round"/><path d="M133.45,438.85s155.28-12.31,227.71,2.37" fill="none" stroke="#636363" stroke-linecap="round" stroke-linejoin="round"/><path d="M167.69,176.44c0,.13-.26.2-.77.21a1.24,1.24,0,0,0-1.15.56,18.93,18.93,0,0,0-.87,2.28c-.68,2-1.28,3.77-1.81,5.19-.9,2.44-1.73,4.8-2.46,7.07-.07.2-.14.29-.24.29s-.15-.07-.22-.22-.27-.66-.61-1.55c-.42-1.16-.88-2.33-1.37-3.51-.4-.92-.78-1.87-1.15-2.86-1,2.52-2.1,5.14-3.13,7.88-.06.18-.14.26-.23.26s-.17-.12-.27-.37Q152.7,190,148.2,178a6.34,6.34,0,0,0-.47-1.06c-.11-.14-.37-.22-.8-.23-.72,0-1.08-.13-1.08-.31s.12-.2.36-.2a1.06,1.06,0,0,1,.27,0c.8,0,1.66.07,2.58.07l.94-.05c.45,0,1,0,1.73,0H152c.26,0,.39.06.39.2s-.24.26-.7.27c-.93,0-1.39.16-1.39.37q0,.63,4.15,11.62c1-2.51,1.77-4.36,2.26-5.55l-2.23-5.71a1.13,1.13,0,0,0-.42-.6,2.2,2.2,0,0,0-.88-.16c-.42,0-.64-.08-.64-.2s.16-.24.48-.24.53,0,.88,0,1,.05,1.81.05h4.21c.56,0,1.23,0,2-.08h.31c.36,0,.55.08.55.23s-.13.21-.39.21H162a3.43,3.43,0,0,0-1.54.27,4.73,4.73,0,0,0-.84,1.6c-.18.42-.49,1.13-.91,2.12-.09.23-.23.56-.4,1,.1.3.43,1.12,1,2.48.71,1.72,1.3,3.19,1.77,4.43l3-8.54a21.49,21.49,0,0,0,.91-2.92c0-.28-.26-.42-.79-.42-.74,0-1.11-.08-1.11-.25s.15-.22.45-.22a5.11,5.11,0,0,1,.62,0,7.54,7.54,0,0,0,.9.06h1.81a2.41,2.41,0,0,1,.75.05A.15.15,0,0,1,167.69,176.44Zm-9.58.26h-.65c-.55,0-.82.13-.82.29s.45,1.32,1.33,3.88c.35-.74.75-1.73,1.22-3,.06-.16.16-.38.28-.64l.05-.18C159.52,176.83,159.05,176.7,158.11,176.7Z"/><path d="M173.55,191.56c0,.13-.09.19-.28.19h-.22c-.09,0-1.12-.06-3.08-.06-.38,0-.75,0-1.13,0-.2,0-.5,0-.91,0-.19,0-.29-.06-.29-.2s.2-.18.59-.2c.6,0,1-.08,1.06-.21a2.74,2.74,0,0,0,.16-1.29V178.09a3.45,3.45,0,0,0-.11-1.23q-.15-.23-1.26-.27c-.29,0-.44-.07-.44-.16s.09-.18.27-.18H171l1.32,0,.87,0c.24,0,.37.07.37.19s-.34.19-1,.21c-.38,0-.62.09-.7.21a2,2,0,0,0-.13.93V189.7a3.74,3.74,0,0,0,.12,1.39,2.7,2.7,0,0,0,1.47.29C173.46,191.38,173.55,191.44,173.55,191.56Z"/><path d="M186.67,190c0,.39,0,1-.07,1.92h-.24l-.66,0c-.35,0-.74-.05-1.17-.05l-9.4-.07c-.26,0-.38-.06-.38-.2s.2-.17.61-.2a2.23,2.23,0,0,0,1-.19c.11-.09.17-.37.17-.83V177.79c0-.55-.06-.87-.17-1a2.93,2.93,0,0,0-1.21-.13c-.29,0-.43-.08-.43-.25s.09-.2.27-.2h.2c.5.05,1.49.07,3,.07l.79,0c.39,0,.71,0,1,0h.25c.27,0,.41.08.41.23a.15.15,0,0,1-.13.16,4.8,4.8,0,0,1-.78.06c-.44,0-.7.09-.78.21a3.14,3.14,0,0,0-.12,1.17v13.16c.4,0,1,0,1.69,0a18.62,18.62,0,0,0,3.74-.26,2.14,2.14,0,0,0,1.47-1,4.91,4.91,0,0,0,.45-2c0-.2.1-.29.26-.29s.28.11.26.33V190Z"/><path d="M202.17,184a7.36,7.36,0,0,1-2.78,6.12,8.52,8.52,0,0,1-5.45,1.61H187.8c-.28,0-.43-.07-.43-.22s.24-.2.73-.2,1-.11,1.15-.33a2.32,2.32,0,0,0,.09-.85v-12c0-.73-.05-1.16-.17-1.27s-.5-.18-1.16-.18c-.35,0-.52-.08-.52-.25s.12-.18.38-.18h3.94a20.76,20.76,0,0,1,5.77.56,6.19,6.19,0,0,1,3.33,2.65A8.31,8.31,0,0,1,202.17,184Zm-2.53-.09q0-3.72-1.47-5.45a5.69,5.69,0,0,0-4.6-1.74,3.11,3.11,0,0,0-1.83.32,2.24,2.24,0,0,0-.14,1.07V190a4.64,4.64,0,0,0,0,.76.38.38,0,0,0,.19.23,6.12,6.12,0,0,0,2.29.27,5,5,0,0,0,3.93-1.7C199.11,188.39,199.64,186.51,199.64,183.93Z"/><path d="M222,191.61c0,.13-.11.19-.34.19l-.41,0-2.87-.09-2.87.09-.34,0c-.31,0-.46-.08-.46-.23s.21-.26.62-.26c1.32,0,2-.15,2-.4l-.05-.17-.18-.59-.12-.31c-.14-.46-.47-1.48-1-3.06h-4.83a23.66,23.66,0,0,0-1.36,4.1.34.34,0,0,0,.27.38,10.69,10.69,0,0,0,1.13.09c.44,0,.66.09.66.23s-.2.22-.59.22c-.69,0-1.5,0-2.42-.09l-.7,0a3.2,3.2,0,0,0-.7.07,1.24,1.24,0,0,1-.3,0c-.21,0-.31-.07-.31-.2s.23-.21.71-.23a2.15,2.15,0,0,0,1-.21,1.3,1.3,0,0,0,.5-.73q2.91-8.24,4.74-13.22a2.11,2.11,0,0,1,.21-.59l.09-.41c0-.16.11-.25.18-.25s.09,0,.12.14c.19.58.64,1.79,1.33,3.63.54,1.45,1.9,5.07,4,10.86a1.07,1.07,0,0,0,.47.65,3.49,3.49,0,0,0,1.16.16C221.75,191.41,222,191.48,222,191.61Zm-6.13-5.34c-.25-.67-.65-1.78-1.22-3.33l-1.09-3.09c-.63,1.65-1.4,3.79-2.29,6.42Z"/><path d="M233.47,190c0,.39,0,1-.07,1.92h-.25l-.65,0c-.35,0-.74-.05-1.18-.05l-9.39-.07c-.26,0-.39-.06-.39-.2s.21-.17.61-.2a2.16,2.16,0,0,0,1-.19c.12-.09.17-.37.17-.83V177.79c0-.55,0-.87-.17-1a2.86,2.86,0,0,0-1.21-.13c-.28,0-.43-.08-.43-.25s.09-.2.27-.2H222c.5.05,1.48.07,3,.07l.79,0c.4,0,.72,0,1,0H227c.27,0,.4.08.4.23a.15.15,0,0,1-.12.16,4.8,4.8,0,0,1-.78.06c-.44,0-.7.09-.78.21a3.05,3.05,0,0,0-.13,1.17v13.16c.41,0,1,0,1.7,0A18.43,18.43,0,0,0,231,191a2.14,2.14,0,0,0,1.48-1,5.08,5.08,0,0,0,.45-2c0-.2.1-.29.26-.29s.27.11.26.33V190Z"/><path d="M249,184.1a8.19,8.19,0,0,1-2,5.62,6.33,6.33,0,0,1-5,2.3,6.78,6.78,0,0,1-5.25-2.33,8.19,8.19,0,0,1-2.13-5.74,8.06,8.06,0,0,1,2.05-5.7A6.79,6.79,0,0,1,242,176a6.44,6.44,0,0,1,5.05,2.32A8.39,8.39,0,0,1,249,184.1Zm-2.54.12a10.52,10.52,0,0,0-1.69-6.38,3.5,3.5,0,0,0-3-1.43,3.58,3.58,0,0,0-2.8,1.1q-1.84,2-1.84,6.55a10.32,10.32,0,0,0,1.28,5.59,4,4,0,0,0,3.59,2,3.49,3.49,0,0,0,3.23-1.88A11,11,0,0,0,246.5,184.22Z"/><path d="M265.33,184.1a8.18,8.18,0,0,1-2,5.62,6.35,6.35,0,0,1-5,2.3,6.81,6.81,0,0,1-5.25-2.33A8.19,8.19,0,0,1,251,184a8.06,8.06,0,0,1,2-5.7,6.8,6.8,0,0,1,5.24-2.22,6.42,6.42,0,0,1,5,2.32A8.39,8.39,0,0,1,265.33,184.1Zm-2.53.12a10.52,10.52,0,0,0-1.7-6.38,3.5,3.5,0,0,0-3-1.43,3.59,3.59,0,0,0-2.8,1.1q-1.83,2-1.83,6.55a10.33,10.33,0,0,0,1.27,5.59,4,4,0,0,0,3.59,2,3.52,3.52,0,0,0,3.24-1.88A11,11,0,0,0,262.8,184.22Z"/><path d="M278.57,180c0,.21-.08.31-.23.31s-.25-.19-.31-.56a4.06,4.06,0,0,0-1.11-2.38,3,3,0,0,0-1.68-.58c-.27,0-.87-.05-1.81-.05-.69,0-1.52,0-2.49.07v6.56a9.43,9.43,0,0,0,3.58-.37c.45-.26.72-1,.81-2.2q0-.51.27-.51c.16,0,.23.11.23.33a3,3,0,0,1,0,.34c-.05,1-.07,2-.07,2.85,0,1.13,0,2,.07,2.68a1.65,1.65,0,0,1,0,.27c0,.17-.07.26-.22.26s-.2,0-.23-.13-.08-.43-.16-1c-.12-.9-.35-1.47-.71-1.69a4.41,4.41,0,0,0-2.1-.34c-.56,0-1.05,0-1.47.05v6.65a.77.77,0,0,0,.52.82,3.88,3.88,0,0,0,1.09.07q.36,0,.36.18c0,.13-.15.2-.45.2H267.3c-.29,0-.43-.06-.43-.18s.26-.2.78-.23.83-.1.92-.21a2.25,2.25,0,0,0,.13-1V177.28c0-.27-.09-.43-.24-.5a4.09,4.09,0,0,0-1.18-.13c-.24,0-.37-.07-.37-.22s.14-.2.41-.2h6.2a45.78,45.78,0,0,0,4.69-.13c0,.19.06.75.13,1.67.05.62.11,1.18.18,1.67A4,4,0,0,1,278.57,180Z"/><path d="M296.22,191.09c0,.62-.53.93-1.58.93a3.18,3.18,0,0,1-2.77-1.45,3.45,3.45,0,0,1-.55-1.2c-.08-.39-.21-1.37-.37-3a2.67,2.67,0,0,0-.93-2,4.54,4.54,0,0,0-2.58-.64v7c0,.29.24.48.72.55.14,0,.49,0,1,.05q.3,0,.3.18c0,.13-.13.2-.39.2H283.8c-.34,0-.5-.07-.5-.2s.22-.17.65-.18c.71,0,1.1-.11,1.16-.27a2.12,2.12,0,0,0,.09-.87V178a1.8,1.8,0,0,0-.19-1.07,2.21,2.21,0,0,0-1.17-.2c-.38,0-.56-.07-.56-.2s.12-.23.36-.23l.2,0,3,.06,1.27,0c.6,0,1-.06,1.27-.06a5.4,5.4,0,0,1,3.33.93,3,3,0,0,1,1.24,2.51,3.16,3.16,0,0,1-1.27,2.57,6.19,6.19,0,0,1-3.44,1.2c-.14,0-.21,0-.23.06s.08.09.23.09a4.85,4.85,0,0,1,3.27,1.65,9.62,9.62,0,0,1,1.19,4.48c.12,1.22.54,1.84,1.26,1.84.23,0,.34-.05.34-.14a0,0,0,0,0,0,0,1.15,1.15,0,0,1-.11-.4c0-.32.16-.47.5-.47S296.22,190.71,296.22,191.09Zm-4.68-11.18c0-2.12-.94-3.19-2.81-3.19a1.86,1.86,0,0,0-1,.2.85.85,0,0,0-.27.72v5.66a4.73,4.73,0,0,0,3.13-.78A3.21,3.21,0,0,0,291.54,179.91Z"/><path d="M308.8,188.16c0,.06,0,.43,0,1.1s-.05,1.3-.05,1.91v.74c-1.48-.09-4.4-.13-8.78-.13H297.1c-.28,0-.43-.06-.43-.18a.14.14,0,0,1,.14-.14l.86-.06c.39,0,.63-.11.71-.25a2.57,2.57,0,0,0,.13-1.05V177.53c0-.43-.07-.69-.2-.77a3.09,3.09,0,0,0-1.23-.13c-.24,0-.36-.06-.36-.19s.16-.19.5-.19h9.59a8.07,8.07,0,0,0,1.25-.09c0,.64.09,1.53.2,2.66l.09,1a2.07,2.07,0,0,1,0,.29c0,.15-.07.22-.2.22s-.29-.19-.36-.56a3.63,3.63,0,0,0-1.41-2.56,10.32,10.32,0,0,0-3.8-.4h-1.85v6.55h.54a7.07,7.07,0,0,0,3.09-.38c.37-.25.62-1,.76-2.2,0-.32.11-.47.24-.47s.25.13.25.4,0,.66,0,1.18,0,.92,0,1.18c0,1.6,0,2.69.08,3.28,0,.15,0,.28,0,.38s-.08.29-.24.29-.18-.06-.22-.19a12,12,0,0,1-.19-1.24,1.77,1.77,0,0,0-1.1-1.62,9.31,9.31,0,0,0-2.12-.14h-1v7.47a45.4,45.4,0,0,0,5.83-.19c1-.22,1.57-1.16,1.7-2.82,0-.37.13-.55.3-.55S308.8,187.85,308.8,188.16Z"/><path d="M321.13,187.7a3.57,3.57,0,0,1-2.1,3.36,7.52,7.52,0,0,1-2.92.67c-.35,0-1.37,0-3.08,0h-2.76c-.25,0-.38-.06-.38-.19s.23-.18.7-.18.86-.06,1-.17a2,2,0,0,0,.15-1V178.13a3.67,3.67,0,0,0-.09-1.14c-.11-.18-.49-.28-1.16-.29-.4,0-.61-.08-.61-.24s.19-.21.57-.21h.27a1.6,1.6,0,0,0,.45.07h4.41a7,7,0,0,1,3.65.8,3,3,0,0,1,1.4,2.66,3.08,3.08,0,0,1-1.15,2.48,6,6,0,0,1-3.24,1.22v.13a7.07,7.07,0,0,1,3.21.85A3.55,3.55,0,0,1,321.13,187.7Zm-3-7.7q0-2.15-1-2.85a3.54,3.54,0,0,0-2-.38q-.39,0-1.2.06v6.47h.2l1.25,0a2.57,2.57,0,0,0,2-.91A3.58,3.58,0,0,0,318.1,180Zm.66,7.45q0-2.8-2.31-3.48a10.56,10.56,0,0,0-2.51-.2v6.65c0,.43,0,.67.13.73a2.84,2.84,0,0,0,1.27.16,3.28,3.28,0,0,0,2.49-1A4.06,4.06,0,0,0,318.76,187.45Z"/><path d="M334.89,188.16c0,.06,0,.43,0,1.1s-.05,1.3-.05,1.91v.74c-1.48-.09-4.4-.13-8.78-.13h-2.83c-.28,0-.43-.06-.43-.18a.14.14,0,0,1,.14-.14l.86-.06c.39,0,.63-.11.71-.25a2.4,2.4,0,0,0,.13-1.05V177.53c0-.43-.07-.69-.2-.77a3.06,3.06,0,0,0-1.23-.13c-.24,0-.36-.06-.36-.19s.16-.19.5-.19h9.59a8.07,8.07,0,0,0,1.25-.09c0,.64.09,1.53.2,2.66l.09,1a1.19,1.19,0,0,1,0,.29c0,.15-.06.22-.2.22s-.29-.19-.36-.56a3.63,3.63,0,0,0-1.41-2.56,10.32,10.32,0,0,0-3.8-.4h-1.85v6.55h.54a7.07,7.07,0,0,0,3.09-.38c.37-.25.62-1,.76-2.2,0-.32.11-.47.25-.47s.24.13.24.4,0,.66,0,1.18-.05.92-.05,1.18c0,1.6,0,2.69.08,3.28,0,.15,0,.28,0,.38s-.08.29-.24.29-.18-.06-.22-.19-.1-.54-.19-1.24a1.77,1.77,0,0,0-1.1-1.62,9.31,9.31,0,0,0-2.12-.14h-1v7.47a45.61,45.61,0,0,0,5.84-.19c1-.22,1.56-1.16,1.69-2.82,0-.37.13-.55.3-.55S334.89,187.85,334.89,188.16Z"/><path d="M347.88,190c0,.39,0,1-.07,1.92h-.24l-.66,0c-.35,0-.74-.05-1.17-.05l-9.4-.07c-.26,0-.38-.06-.38-.2s.2-.17.61-.2a2.23,2.23,0,0,0,1-.19c.11-.09.17-.37.17-.83V177.79c0-.55-.06-.87-.17-1a2.93,2.93,0,0,0-1.21-.13c-.29,0-.43-.08-.43-.25s.09-.2.27-.2h.2c.5.05,1.49.07,3,.07l.79,0c.39,0,.71,0,1,0h.25c.27,0,.41.08.41.23a.15.15,0,0,1-.13.16,4.8,4.8,0,0,1-.78.06c-.44,0-.7.09-.78.21a3.14,3.14,0,0,0-.12,1.17v13.16c.4,0,1,0,1.69,0a18.62,18.62,0,0,0,3.74-.26,2.14,2.14,0,0,0,1.47-1,4.74,4.74,0,0,0,.45-2c0-.2.1-.29.26-.29s.28.11.26.33V190Z"/></svg>