<svg xmlns="http://www.w3.org/2000/svg" width="500" height="550" viewBox="0 0 500 550"><path d="M372.08 291.55q-.27 61.74-.62 123.47c-.81 9-2.68 16.41-3.55 25.44-1 10.07 1.34 17-1.5 25.63-.58 1.77-2 1.67-3.35 1.44-44.58-7.74-101.65-5.72-146.65-2.93-24.59.58-58.62-1.67-83 2.09-5.22.6-5.68.28-6.62-4.82-1.34-11.26 1.94-18.53.53-29.31-6.15-46.82-1.39-94.38-3.6-141.53-1.41 2.82-2.94 5.6-4.28 8.46-2.37 10.67-17.51 9.3-11.82 16.18 11.12 7.95 6.41 21.38 5.15 32.56-.24 3.15-1.34 6.27-.37 9.58.51 8.43-3.19 16.94-4.38 25.31-1.5 8-2.61 15.83-1.53 23.93a5.17 5.17 0 01-1.14 3.3c-5.71 6.28-7.74 14-9.19 22.06-.57 3.18-.61 3-3.73 2-12.38-3.52-26.1-4.38-38.61-1.18-1.39.34-2.1 0-2.41-1.47-2-7.76-2.17-16.67-8.49-22.43a6.62 6.62 0 01-1.33-3.22 145 145 0 01-2.72-33.3c-1.91-63 2.61-126.93 26.2-186 13.6-35.43 24.56-73.32 48.06-103.67 27.32-18.2 60-23.76 90.46-34.78a3.16 3.16 0 012.72.43c5 5.55 11.46 8.41 18.56 9.67 19.19 2.43 41.29 5.55 58.65-4.88 2.86-1.27 4.2-6.53 7.88-5 29.12 10.49 61.05 14.4 87.43 31.58 15.94 14.59 21.63 38 30.45 57.21 27.82 67.48 58 137.39 51.06 212.07-1.2 18.66-.24 37.46-3.29 56-.48 4.66-5.2 7.09-5.56 11.78-1.21 5.28-2.07 10.65-2.9 16-.41 2.6-.42 2.83-3.09 2.33-12.48-2.66-25.25-5.49-37.8-1.58-8.33-.15-8.13-15.56-11.44-21.41-6.28-7.36-3.61-9-5.33-17.63-.9-9.7-4.68-20.27.79-29.26 2-3.53 1.87-7.05.51-10.66-4.9-11.29-7.4-23.42-10.45-35.29-1.06-4.31-1.31-8.5 1.61-12.34 1.49-7.15-10.43-8.7-10.93-15.93z" fill="#7f8183" stroke="#262521" stroke-linecap="round" stroke-linejoin="round" stroke-width="3"/><path d="M121 146.25l48.11-54.93L195 206.66l35.51-87.13 46.66 115.35s55.29-162.37 71-170.3l23.34 39.61v174.25l-42.61-61.38 20.8 164.84-64.93-82.17-10.65 129.2-25.36-45.54-20.29 45.54-25.34-125.24-19.28 6.43-19.27 132.18L124 389.82z" fill="#262521"/><path d="M121 153.66l44.05-46.36L194.51 225 229 137.85l48.69 115.59S333 87.85 348.7 79.93l22.83 43.79s-.81 59.69 2.57 112.87l-2.57 41.85-51.32-73.94 21.46 167.22-65.78-83.26-7.77 129.66-21.69-38.95-19.89 40.11-24.6-121.45-26.87 10-16.27 127-34.8-45z" fill="#6e7072"/><path d="M203.62 48.4c.8-.26 5.41 42.75 43.41 44.79S291.94 49 291.94 49M121.09 171.92s3 37.54.91 53.17.11 29.7.11 32.87 1.64 33.04 1.64 33.04m247.78-102.34s5.79 47.28 0 75.34l1 27.47M127.35 432.56c-6.15-46.82-1.39-94.38-3.6-141.53" fill="none" stroke="#262521" stroke-linecap="round" stroke-linejoin="round" stroke-width="3"/></svg>