<svg xmlns="http://www.w3.org/2000/svg" width="500" height="550" viewBox="0 0 500 550"><path d="M372.14 291.56q-.27 61.72-.62 123.46c-.81 9-2.68 16.41-3.55 25.44-1 10.07 1.34 17.05-1.5 25.64-.59 1.76-2 1.66-3.35 1.43-44.59-7.74-101.66-5.72-146.65-2.92-24.6.57-58.62-1.68-83 2.09-5.23.59-5.68.27-6.62-4.83-1.35-11.26 1.94-18.53.53-29.31-6.15-46.81-1.39-94.37-3.6-141.53-1.42 2.83-2.94 5.6-4.29 8.46-2.37 10.68-17.5 9.3-11.81 16.18 11.11 7.95 6.41 21.38 5.15 32.56-.25 3.15-1.35 6.27-.37 9.58.51 8.44-3.19 16.94-4.38 25.31-1.5 8-2.61 15.83-1.54 23.93a5.1 5.1 0 01-1.13 3.3c-5.71 6.28-7.75 14-9.19 22.06-.57 3.18-.61 3-3.74 2-12.38-3.52-26.09-4.38-38.6-1.18-1.39.34-2.11 0-2.41-1.47-2-7.76-2.18-16.67-8.49-22.43a6.62 6.62 0 01-1.33-3.21A144.54 144.54 0 0139 372.86c-1.91-63 2.6-126.93 26.19-186 13.61-35.43 24.56-73.32 48.07-103.67 27.32-18.2 60-23.76 90.46-34.78a3.16 3.16 0 012.72.43c5 5.55 11.46 8.41 18.56 9.67 19.19 2.43 41.29 5.55 58.65-4.88 2.85-1.27 4.2-6.53 7.87-5 29.12 10.49 61 14.41 87.44 31.58 15.94 14.59 21.63 38 30.45 57.21 27.81 67.48 58 137.39 51.05 212.08-1.19 18.65-.23 37.45-3.28 55.95-.49 4.66-5.21 7.1-5.56 11.78-1.22 5.28-2.08 10.65-2.91 16-.4 2.6-.41 2.83-3.08 2.33-12.48-2.66-25.26-5.49-37.8-1.58-8.34-.15-8.13-15.56-11.44-21.4-6.28-7.37-3.61-9-5.33-17.64-.9-9.7-4.68-20.27.79-29.26 2-3.53 1.86-7.05.51-10.66-4.9-11.28-7.4-23.41-10.45-35.29-1.07-4.3-1.31-8.49 1.61-12.34 1.51-7.23-10.43-8.68-10.93-15.92z" fill="#262521"/><path d="M460.81 353.2s4.74-43.81-4.54-82.81-39.56-125.51-40.79-118.83c-.76 4.11-.51 8.4 2.29 11.55 3.8 4.26 5.08 5.61 5.43 5.92l3 6.41s-11-7.93-11.75-11.1c0 0-3.22-.79-3 3 0 0-9.7 1.47-8.49 8.77 0 0-9.68 1.7-8.89 6.35.7 4.08 3 9.82 4.59 10.66-3.07-.13-16.41-.13-15.85 9.7 0 0-5.06 3.89.35 6 0 0 6.69 10.77 17.69 4.47a8.45 8.45 0 00-1.11 8.18s-4.91 6.57 7.27 7.07c0 0 6.33 9 12.08 7.89s4.6-12 9.76-14.06l5.17-2.1 1.38 1s-11.75 11.8-11.42 17.59.28 18.79 7.12 22.86c0 0 4.45 8.67-2.61 9.89 0 0-2.91 4.67 2.26 7.15 0 0-6.07 9.49-5.61 12.89 0 0-10.68 2.71-10.36 8.24 0 0-11.67-.66-11.38 9.1 0 0-10.69-16-20.19-11.26a12.87 12.87 0 00-3.42 2.41 28.38 28.38 0 013.3 5.29c1.86-2.49 7.12-2.85 9.52-.31 3.09 3.26 7.26 11.47 7.26 11.47l-4.88 2.4s-16.22-1.72-9.15 15.58c0 0 7.11 20.44 7.4 25.44-8.78 23.19 1.52 50.3 1.52 50.3l21.55-.05s-.13-20.87-5.67-25.31l8.5 5.33s1.38 11.81-.82 13.52c0 0 8.52 1.1 8.37-1.53l6.08 4.67 2-10.95 2.4 9.65 20-.14 3.49-27.68a14.39 14.39 0 01-12.62.51l8.19-4.7s-3.24-5.89-5.61-5.76l-.27-9.23s-3.11 5.59-11.92 4c0 0-3.81-6.58-5.69-7l-.16-2.9s7.68 4.85 12.73 5.35 15.5-4.89 15.5-4.89zm-88.58-59.97c-3.87-11.81 0-30 .16-34.12-4.58-1.71-12.25-2.14-19 9.14 0 0-2.73 1.56-.75-3.69 0 0-3.16-2.6-5.3 2.49 0 0-5.37-4.71.63-11.34 0 0 .71-5.9-7.92-5.85 0 0-3.26-6.6-6-7.11s-9.82 5.46-9.82 5.46-8.62-.59-10 5.14c0 0 4.42 3.89.18 10.55 0 0-1.7-4.34-4.89-4.38l-.72 5.74s-5.23-15.41-19.15-13.51l.52-3.35-3.69 1.39s1.34-17.24-20-7.94c0 0-3-6.4-9.28-6l-.39 91.6 10.74 1.33 1.82-10.65s9.53-1.49 9.89-9.62c0 0 7.06-2.11 5.22-4.42s-6.66-2-6.66-2-10.77-6.07-9.4-14 3.21 1.06 3.21 1.06 5.26 12.27 17.61 14.05 18.43-9.67 18.43-9.67 10.36-1.48 9.21 8.51c0 0 6.72-.05 4.91-5.47s-8.8-8.46-8.8-8.46l8.52-3.46s-2.94 8.49 2.69 14.9 5.61 7.1 5.61 7.1 8.15-9 8.63-12.5a34.73 34.73 0 00-.26-8.28l8.4 4.75a10.91 10.91 0 00-9.36 10.92s-6.49 1.67-6.56 7.31 3.6 12.22 3.6 12.22-.18 13.36 5.28 13.43c0 0-5.42 11.91-3.87 24s4.5 22.7 7.34 19.48 3.22-9.11-.06-7.29c0 0-7.56-15.14-.22-30.39 0 0 1.32 5.44 4 5.16v1.87s-3.44 2.12-.05 3.56v2s-1.53-.95-1.56 1.22 1.52 2.19 1.52 2.19v1.86s-1.55 0-1.42 2 1.38 1.57 1.38 1.57v1.71s-.65 2.32 0 2.79 1.87-.91 1.87-.91-.2 3.41.73 3.42 1.75-3.54 1.75-3.54.68 3.28 1.66 3.29 1.18-3.46 1.18-3.46h1s-1.16 2.32 0 2.34 2.13-1.41 2.13-1.41h1.74s-1.56 3.45-.5 3.54a4.25 4.25 0 002.35-.95s-1.39 2.48-.33 2.57 2.73-1.25 2.73-1.25v2.41s-8.57 12.65-11.94 12.49-3-10.5-4-10.52-3.19 3.68-2.43 7.76 1.87 7.82 5.48 7.87 15.64-13.29 15.64-13.29-3.53 8.93 6.7 8.6c-.31.08-.12-91.32-.13-91.96zm-100.57-24l-.69-4.48 3.42-4.51-3.93-5.08-3.22 1.84-2.44-3s5.23-2.8 5.71-2.8 3.9 6.93 8.55 6c0 0-7.06 9.33-7.4 12.04zm27.78-52.14zm.27-1.65c-.25-.24-.53-.46-.8-.68a9.3 9.3 0 00-.81-.59c-.09-1.73-.32-3.37-.32-3.37a47.69 47.69 0 00-5.55-4c.86-.78.49-2.24 0-3.13a3.72 3.72 0 00-1.95-1.78 34 34 0 00-.07-6.37 16.55 16.55 0 00-5.14-1.38 2.21 2.21 0 00.62-.89 4 4 0 000-2.16 1.71 1.71 0 00-1.31-1.39 3.5 3.5 0 00-1-.06h-.34a50.84 50.84 0 00.21-11.2 27.37 27.37 0 00-10.85 1.1 4 4 0 00-.4-1.54 2.88 2.88 0 00-.64-.83 1.9 1.9 0 00-1.19-.4 7.58 7.58 0 00-3.21.43c-.46-2.53-1.1-4.77-1.1-4.77a44 44 0 00-7 .55 3.3 3.3 0 00-.39-1.52 3.92 3.92 0 00-2-1.39.62.62 0 00-.77.42.65.65 0 00.43.77l.12.06.23.11c.15.08.3.16.44.25a1.18 1.18 0 01.19.11l.08.06.07.07.05.06a.22.22 0 010 .08s.05.11.08.16a.36.36 0 010 .09c0 .13.06.27.08.4s0 .06 0 .09v.35c-.75.13-1.2.23-1.2.23l-.58 44.08 41.92.56a4.75 4.75 0 00.44-2.29c.21.17.43.34.63.53s.21.21.31.31.11.13.16.19l.06.08.1.18.05.09c0 .05 0 .05 0 0s0 .12.05.17 0 .06 0 .09a.64.64 0 00.61.63.63.63 0 00.63-.61 3 3 0 00-.94-1.95zm-32.58-37a5.7 5.7 0 012.62-.49 1.69 1.69 0 01.71.06 1.34 1.34 0 01.4.51 2.89 2.89 0 01.32 1.46 33.57 33.57 0 00-3.82 1.46 20.27 20.27 0 00-.23-3zM282.81 191a2.26 2.26 0 00.26 0 7.22 7.22 0 01.8 0h.35c-.12 0 0 0 0 0h.07s.05.08.06.1 0 .1 0 .12.05.26.08.39v.36a3 3 0 010 .42 1.15 1.15 0 010 .19v.11s0 .1-.05.15v.16l-.08.13-.11.11h-.23a.61.61 0 00-.45.62c-1.16-.13-2-.19-2-.19a7.9 7.9 0 001.3-2.67zm7.31 12.25a1.83 1.83 0 01.26.16 2.78 2.78 0 01.77.91 3.13 3.13 0 01.23.54l.09.31v.15a1.38 1.38 0 010 .29.34.34 0 010 .1v.17l-.11.1a.49.49 0 00-.11.14c-1.08-.64-1.8-1-1.8-1a5.42 5.42 0 00.67-1.92zm-32.71-31.05s-.05-.09 0 0zm72.39 47.69s3.09-10.43 2.22-14.64a15.27 15.27 0 00-3-6.65 6.64 6.64 0 014.25 6.16S341 203 341 201.08a14.07 14.07 0 00-1-4.4s2.47-2.78 1.07-2.86-5.88 2.36-11.87.6c0 0 7.44-1.9 11.56-2s3.75-5.15 2.09-6.58-3.7-2.54-4.58-1.84-3.25 4.61-8.31 6.55c0 0 4.42-7.2 7.14-8a17.07 17.07 0 01-3.91-2.81c-1.18-1.37-2.55-.31-3.3-.43s-2.44.24-2.39.78.51 5.8-.09 6.61 1.81-2-2.43-9.13-12.28-8.34-12.28-8.34 1.81-2.47 2.51-1.59 1.48 2.35 1.87 2 .79-3 .79-3 5.12 1.91 7.7-.61-.15-8.77-.15-8.77.79-9.21-2.19-12.51-10.19-1.29-10.19-1.29-8.41-5-11.34-.15-1.12 8.58-1.12 8.58-1.6-2.2-2.3-2.05 0 3.07 0 3.07l-.85 2.88a17.22 17.22 0 00-5.13-9.94c-4.57-4.24-6.31-4.53-6.31-4.53s3.22-5.88 2.53-6.35-2.42-1.52-2.42-1.52.26-2.58-.67-2.64-1.78 2.83-10 6.1c0 0 6.15-7.21 8.48-8.07s-1-2-1-2 .38-2.54-.89-3.37-4.07-.06-4.07-.06l-2.33.44a37.6 37.6 0 01-1 6 30 30 0 01-2.87 6 13 13 0 011.77-10.43s-.69-.88-3.65-1.05c0 0-1.89-2.41-3.75-2.18s-2.39 4.4-2.39 4.4l-2.35 1.91s6.12 3.38 6.3 6.87c0 0-5.42-6.23-12.48-5V147s4.17.64 5.46.19c0 0 2.09 9 12.5 4.35 0 0 5.49 7.08 12.82-1.85 0 0 8.44 3.64 10.79 10.65l.2 2.39s-2.43-1.14-3.13-.92-.14 2.21 3 2.25c0 0 1.46 3.5 2.67 4.45s4.13.76 4.13.76-1.21 3.42 0 3.58 1.79-3.56 1.79-3.56h2.79s8.63 6.72 9.62 11.05c0 0-7.85 4.79-3.29 11.94 0 0-4.3 8.23 2.29 11.27 0 0-.58 9 9.33 6.56 0 0 3.58 2.37 3.07 5.39a7 7 0 01-2.27 4.35z" fill="#e0e0e0"/><path d="M248 183.64l8.14.11-1.17-79s-3.71-.63-9.58 3.83l-.55-2 3.85-1.32s-39.32 3.75-52.55-45c-3.28 1.67-10.48 5.56-13.6 10.64 0 0-1.81-1.33-1.14-2.75a15.84 15.84 0 00-5.46 3.45s-7.91-3.61-1-5.72c0 0 .64-4.37-9.64-.69a49.12 49.12 0 00-9.36-2.19c-3.6-.28-31.65 10.28-21.66 10.64 0 0 .33 2-2.17 1.83s-8.45 1.29-8.45 1.29-6 2.36-7.72 3.74c-6.38 5.13-13 17.61-13 17.61s17.92-.81 22-13.31c0 0 2.52 2.7 5.78 2.63s3.76 5.63 4.79 6.69 6.73-.21 5.31-2.66a78.23 78.23 0 00-5.36-7.19l5.75-.36s-3.19 1.86-1.57 4.17 12.57 10.64 15 10.62 12.77-7.72 13-10.3a7 7 0 00-1.35-4.55l4.87.12s-2.41 3-1.48 3.28 2.59-2.53 2.59-2.53l5.23.31s-9.83 4.17-10.2 5.79a21 21 0 00-.39 3.72s-9.78.57-11.26 6.94 6.75 8.58 6.75 8.58-1.65 10.45 9.74 10.48c0 0-10.35 9.52-10.47 18.47s2.2 18.4 9.31 16.52 6.5-7.59 4.06-8-2.6 3.1-2.6 3.1-8.16-7.32-4.1-14.7 11.46-13.57 11.46-13.57a4.41 4.41 0 003.77 4.81s-3.31 4.15-1.69 4.52a17.59 17.59 0 003.25.39 5.06 5.06 0 01-2.58 1.82 1.29 1.29 0 00.2 2.57 19.38 19.38 0 012.32.14 1.4 1.4 0 01-1.3 1.61c-1.51.22-3.17 2.75-1.2 2.78a8.5 8.5 0 002.56-.2s.22 1.51-.95 1.85a1.9 1.9 0 00-.51 3.36c1.49 1.19 3.76-3.09 3.76-3.09l1.05-.1s-.29 4.42 1.46 4 1.21-3.59 1.21-3.59h2.32s0 3 1.83 2.69 2-3.92 2-3.92h1.16s-.15 2.68 1.13 2.69 1.76-1.49 1.76-1.49l3.14.05a7.16 7.16 0 004.6 3.78s-5.46 8.65-15.5 11.54-13.53-2.57-13.53-2.57a2.5 2.5 0 001.32-3.47c-1.13-2.46-6.17.84-6.79 3.63s.12 8.49 12.68 8.65 27-13.59 27-13.59 0 9.88 13.73 8.08c0 0 2.25 6.2 14.12 5.31 0 0 6.72 10.79 11.86 13.53.02 0-6.16-1.83-5.98 5.5z" fill="#e0e0e0"/><path d="M234.79 109.87s-11.62 14.25-12.27 20.59-8.21 20.76-8.21 20.76" fill="none" stroke="#262521" stroke-linecap="round" stroke-linejoin="round" stroke-width=".9" stroke-dasharray="0.83 1.65"/><path d="M223.15 128s5.1 17.64 12.86 17.75c5.36.07 7.45-17.1 7.45-17.1" fill="none" stroke="#262521" stroke-linecap="round" stroke-linejoin="round" stroke-width=".9" stroke-dasharray="0.83 1.65"/><path d="M229.72 116.61s-3.4 13.35-.88 16.71 4.12 5.87 5.56 5.88 5.44-4.79 5-9-6.1-11.54 2-21.23m-7.87 14.75l-.09 6.94" fill="none" stroke="#262521" stroke-linecap="round" stroke-linejoin="round" stroke-width=".9" stroke-dasharray="0.83 1.65"/><path d="M245.34 108.6a15.3 15.3 0 00-5.63 12.25c.37 7.8 15.4 18.63 15.4 18.63m-.79-29.04s-2.5.8-2.44 4.76" fill="none" stroke="#262521" stroke-linecap="round" stroke-linejoin="round" stroke-width=".9" stroke-dasharray="0.83 1.65"/><path d="M254.35 115.24s-5.33-.55-6.79 2.58.11 8.42 2.52 10.52 5.12 4.34 5.12 4.34" fill="none" stroke="#262521" stroke-linecap="round" stroke-linejoin="round" stroke-width=".9" stroke-dasharray="0.83 1.65"/><path d="M254.2 106.86s-10.52 4.62-10.16 12.07 10.53 17.47 10.53 17.47" fill="none" stroke="#262521" stroke-linecap="round" stroke-linejoin="round" stroke-width=".9" stroke-dasharray="0.83 1.65"/><path d="M254.92 120.45a2 2 0 00-1.62-.58c-1 .1-.75 1.77 0 2m-14.05-17.18c-4.55 2.7-8.6 3.34-14.56-.83-4.88-3.42-5.71-4.16-6.12-7.11" fill="none" stroke="#262521" stroke-linecap="round" stroke-linejoin="round" stroke-width=".9" stroke-dasharray="0.83 1.65"/><path d="M214.31 93.12c-.28 2.24-.13 3.34.69 6.24 2.33 8.29 17.78 11.46 22.07 10.55 2.39-.51 4.41-1.33 8-4.19m9.88 45.52l-5 3.16m-8.58 10.26a10.34 10.34 0 005.71-10.3m8.35-.69s-9.22 9-9.32 11.05S256 177.3 256 177.3" fill="none" stroke="#262521" stroke-linecap="round" stroke-linejoin="round" stroke-width=".9" stroke-dasharray="0.83 1.65"/><path d="M256.16 161.25s-5.31.84-5.57 4.17 5.21 4.94 5.21 4.94" fill="none" stroke="#262521" stroke-linecap="round" stroke-linejoin="round" stroke-width=".9" stroke-dasharray="0.83 1.65"/><path d="M255.66 164.39s-1.67-.1-1.48 1.39a1.12 1.12 0 001.54 1M250 183.25s.61-3.05 2.78-3m-.78 4s.05-2.74 4.4-2.44" fill="none" stroke="#262521" stroke-linecap="round" stroke-linejoin="round" stroke-width=".9" stroke-dasharray="0.83 1.65"/><circle cx="224.02" cy="149.58" r="2.3" fill="none" stroke="#262521" stroke-linecap="round" stroke-linejoin="round" stroke-width=".9" stroke-dasharray="0.83 1.65"/><circle cx="210.63" cy="138.11" r="2.3" fill="none" stroke="#262521" stroke-linecap="round" stroke-linejoin="round" stroke-width=".9" stroke-dasharray="0.83 1.65"/><circle cx="188.12" cy="121.06" r="2.3" fill="none" stroke="#262521" stroke-linecap="round" stroke-linejoin="round" stroke-width=".9" stroke-dasharray="0.83 1.65"/><circle cx="173.77" cy="111.87" r="2.3" fill="none" stroke="#262521" stroke-linecap="round" stroke-linejoin="round" stroke-width=".9" stroke-dasharray="0.83 1.65"/><circle cx="177.47" cy="92.14" r="2.3" fill="none" stroke="#262521" stroke-linecap="round" stroke-linejoin="round" stroke-width=".9" stroke-dasharray="0.83 1.65"/><circle cx="177.47" cy="92.14" r="2.3" fill="none" stroke="#262521" stroke-linecap="round" stroke-linejoin="round" stroke-width=".9" stroke-dasharray="0.83 1.65"/><circle cx="166.42" cy="101.66" r="2.3" fill="none" stroke="#262521" stroke-linecap="round" stroke-linejoin="round" stroke-width=".9" stroke-dasharray="0.83 1.65"/><circle cx="196.59" cy="131.91" r="3.11" fill="none" stroke="#262521" stroke-linecap="round" stroke-linejoin="round" stroke-width=".9" stroke-dasharray="0.83 1.65"/><circle cx="237.42" cy="155.27" r="2.3" fill="none" stroke="#262521" stroke-linecap="round" stroke-linejoin="round" stroke-width=".9" stroke-dasharray="0.83 1.65"/><circle cx="248.19" cy="144.46" r="2.3" fill="none" stroke="#262521" stroke-linecap="round" stroke-linejoin="round" stroke-width=".9" stroke-dasharray="0.83 1.65"/><path fill="none" stroke-dasharray="0.83 1.65" stroke-linecap="round" stroke-linejoin="round" stroke-width=".9" stroke="#262521" d="M236.64 155.26l1.45.02m-14.83-5.71l1.45.02m22.87-5.14l1.13.01m-6.71-8.23l4.4 5.91m-10.39 3.6l.66 7.32m-8.9-14.09l-2.61 8.33m-8.25-.96s.11 8.24 4.29 9.59 9.28-.75 9.28-.75 1.34 6 7.53 5.83 7.29-11.15 7.29-11.15 4.46 1.86 7.2-1.07.53-8.49.53-8.49m-8.45-6.01l4.56 5.11m-8.21 2.04l2.75 3.93m-5.46-.07l2.59 5.3m-7.72-5.74l-.24 6.09m-3.47-9.66l-1.06 6.05m-1.77-10.76l-3.22 7.55"/><path d="M221.33 146.4s-3.74 5.75 1.48 7.64 5.48-4.75 5.48-4.75m4.88 3.63s0 7.58 4.63 6.5 3-7.32 3-7.32m3.61-5.4s4.38 3.81 6.93 1-.43-7-.43-7" fill="none" stroke="#262521" stroke-linecap="round" stroke-linejoin="round" stroke-width=".9" stroke-dasharray="0.83 1.65"/><path d="M215.89 151.77s.39 8.48 12.78 5.69c0 0 4.34 8.28 11 5.2s6.65-10.49 6.65-10.49 5.68 1.79 9.14-4.47m-28.54-38.9s-11.52 17.44-14.58 26m6.81-29.93s-16.22 18.51-19.33 21.88m20.8-20.88l-20.83 23.58M215 99.36s-14.77 14.26-23.44 18.88m23.97-17.51s-17.84 14.35-24 19.4m37.29-10.99s-12.36 17.7-14.29 25.7M195 126.2s-6.63 2-4.56 5.63c0 0-3.07 6.71 3 6.06 0 0 8.51.56 8.57-4.16m8.62 4.38l.37.01m-15.14-6.95l1.41 1.43m-9.88-11.86l1.42.33m24.03-23.85s-25 17.56-27 18.83-4.86 3.91-5.36 6.07" fill="none" stroke="#262521" stroke-linecap="round" stroke-linejoin="round" stroke-width=".9" stroke-dasharray="0.83 1.65"/><path d="M223.43 107.33s-15.9 25.41-16.63 27.41-4.83 7.15-12.26 8-9.75.8-8.91-6.67.49-8.54.49-8.54 4.26-2.64 9.87-6.64 21-18 21-18m-13.01 39.95l-.2-4.19m6.06 6.74a13.63 13.63 0 007.16-7.69c2.44-6 7.19-19 8.22-19.84s6.59-7.85 6.59-7.85" fill="none" stroke="#262521" stroke-linecap="round" stroke-linejoin="round" stroke-width=".9" stroke-dasharray="0.83 1.65"/><path d="M178.09 155s-2.39 2.26 1.11 5.23 14.5.93 20.2-1.21 13.89-12.14 15.55-14.79 4.49-8.31 4.49-8.31m-38.86-17.83s-12 5.18-14.73 16.53-.72 18.95 7.92 17.16m18.72-59.5s-16.14 7.18-16.29 9.51 6.32 3.93 6.32 3.93m26.97-17.12c-3.9 2.76-8.3 5.15-12.59 4.42-7.15-1.22-15.83-5.34-15.84-11.23s11.05-5.18 11.05-5.18-10.85 1.49-9.94-5.94m11.19 4.91a4.65 4.65 0 012.68-.53c1.7.1 3 1.09 1.6 1.64a17.92 17.92 0 01-4.3.64m1.11 1.87s-1.27 4.23-2.89 4.2" fill="none" stroke="#262521" stroke-linecap="round" stroke-linejoin="round" stroke-width=".9" stroke-dasharray="0.83 1.65"/><path d="M195.78 62.6s-11 5.4-9.44 9.79 5.89.7 5.89.7M191 79.62s-5.72.54-5.76 3.7 8.76 6.38 12.6 6.28c1.93 0 6.26-1.89 10.2-4.8" fill="none" stroke="#262521" stroke-linecap="round" stroke-linejoin="round" stroke-width=".9" stroke-dasharray="0.83 1.65"/><path d="M205.15 82.72a16.57 16.57 0 01-8.69 2.85 7.82 7.82 0 01-7.14-3.67m-.55-9.79s-1.78-2.49 5.14-5.2a31.74 31.74 0 003.32-1.44m-2.96 6.72s6.29-.62 6.3 4.07-3.49 3.44-3.49 3.44m5.97-.08c-1.2 2.06-2.85 2.59-6.55 3.1m-5.42-11.94s4.1-2.9 7.15-2.09m-3.99 26.04s-12.18 4.55-11.65 6.44 9.73 3.79 9.73 3.79m-.53-4.54s15.39-3.67 20.1-9.49M193.87 103a62.6 62.6 0 017.14-2.44" fill="none" stroke="#262521" stroke-linecap="round" stroke-linejoin="round" stroke-width=".9" stroke-dasharray="0.83 1.65"/><path d="M183.63 89.87a8.88 8.88 0 00-8.41-1.87c-4.9 1.51-5 8-5 8S160 97 160 101.27s7.34 7 7.34 7-4.85 5.8 6 10.48c0 0 8.15-4.81 12.68-6.29s27.58-19.27 27.58-19.27m-36.66-1.11l1.21.01m-12.9 9.56l1.81.02m6.29 10.19l1.14.02m-5.77-10.19l7.48.1" fill="none" stroke="#262521" stroke-linecap="round" stroke-linejoin="round" stroke-width=".9" stroke-dasharray="0.83 1.65"/><path d="M171.52 108.38s-4 2.24-2.29 5 5.15 4.36 7.4 2m.6-5.29l8.55-5.22m-.89 2.65l4.08 1.09m-11.08 3.06l5.99-3.13m-13.63-5.42l4.77.06m4.72-9.15l2.46 2.79m-1.08-3.93l2.93 3.27M174 91a8 8 0 00-.46 3.78m-10.34 4.66a2.83 2.83 0 00-.49 3.58M150 86.29s3.68-1.54.92-2.43-9.09-.48-9.13 2.32 12.51 10.27 12.51 10.27 12.43-5.52 11.17-8.62-6.52-7.43-9.13-2.78" fill="none" stroke="#262521" stroke-linecap="round" stroke-linejoin="round" stroke-width=".9" stroke-dasharray="0.83 1.65"/><path d="M148.17 87.19s2.09 6.14 5.39 6 6.58-5.44 6.58-5.44l-1.63-2.69" fill="none" stroke="#262521" stroke-linecap="round" stroke-linejoin="round" stroke-width=".9" stroke-dasharray="0.83 1.65"/><path d="M153.64 86.85s.38-5.59-3.06-5.46l2.8-2.13 3.62 2.16s-3.58.03-3.36 5.43zm-2.49 1.7s1.19 2.24 3 2.15 2.82-3 2.82-3m-27.66-3.02s9.19.94 9.12 5.82m-13.7-13.15s-.86 3.65-2.47 3.65c0 0 4.14 1.76 4.12 5m-17.82 7.79c3.85-.29 8.14-1.18 9.87-3.56a7 7 0 00.11-8.66l3.78-5.18M106.14 92s9.37-.81 10.89-5.6m49.57-18.13s6.2 5.61 8.82 4.76a17.09 17.09 0 004.63-2.39" fill="none" stroke="#262521" stroke-linecap="round" stroke-linejoin="round" stroke-width=".9" stroke-dasharray="0.83 1.65"/><path d="M180 74.42s-1.43 2.27-7.2 1.47-11.15-8.43-11.15-8.43m-3.07-.04s.1 5.08-6.33 2.85A37.55 37.55 0 00142 68m13.35.12l-6.9-2.05m4.74 6.67S145.47 71 141.1 71.5l-7 1m-6.83 7.94s13.94-4.62 20.4-5.39m-11.94.15s6.31-1 8.57-1.25m-17.82 4.36l6.49-1.78m22.26.29s19.09 10.16 25.83 5m-20.72-8.89s9.78 6.65 20.77 5.17m-21.76-3.55l5.73 3.34m4.92 1.59s5.05 1.7 8.29 1m-26.98-4.4s-2.78 5.83-18 7.79m-3.97-1.69s15.85-3.91 17.35-5.13m3.98-2.61s1.94-1.5 5.87.36" fill="none" stroke="#262521" stroke-linecap="round" stroke-linejoin="round" stroke-width=".9" stroke-dasharray="0.83 1.65"/><path d="M299.43 66.64a67.74 67.74 0 01-2.06 6.53 5.44 5.44 0 00.78 1.67c1 1.06 6.74-.21 5.31-2.67a57 57 0 00-4.03-5.53z" fill="#e0e0e0"/><path d="M378.92 80.21c-6.8-7.21-77-29.31-77.05-28.39a86 86 0 01-2 13.06l4-.25s-3.19 1.85-1.57 4.17 12.57 10.63 15 10.62 12.77-7.72 13-10.3a7 7 0 00-1.35-4.55l4.87.11s-2.41 3-1.48 3.28 2.59-2.52 2.59-2.52l5.23.3s-9.83 4.18-10.2 5.8a20.83 20.83 0 00-.39 3.71s-9.78.57-11.26 7 6.69 8.53 6.69 8.53-1.65 10.44 9.74 10.48c0 0-10.35 9.51-10.47 18.46s2.2 18.41 9.31 16.52 6.5-7.59 4.06-8-2.6 3.11-2.6 3.11-8.16-7.32-4.1-14.71 11.46-13.57 11.46-13.57a4.42 4.42 0 003.77 4.82s-3.31 4.14-1.69 4.51a17.59 17.59 0 003.25.39 5 5 0 01-2.58 1.83 1.29 1.29 0 00.2 2.56 17.78 17.78 0 012.32.15 1.4 1.4 0 01-1.3 1.61c-1.51.21-3.17 2.75-1.2 2.77a8.38 8.38 0 002.56-.19s.22 1.51-.95 1.84a1.91 1.91 0 00-.51 3.37c1.5 1.18 3.76-3.09 3.76-3.09l1.05-.1s-.29 4.41 1.46 4 1.21-3.59 1.21-3.59h2.32s0 3 1.83 2.7 2-3.93 2-3.93h1.16s-.15 2.67 1.13 2.69S364 124 364 124h3.14a7.13 7.13 0 004.6 3.78s-5.46 8.65-15.5 11.54-13.57-2.62-13.57-2.62a2.5 2.5 0 001.32-3.47c-1.13-2.46-6.17.85-6.79 3.63s.12 8.49 12.68 8.66 27-13.6 27-13.6 0 9.89 13.73 8.09c0 0 2.25 6.19 14.12 5.3 0 0 6.72 10.79 11.86 13.53 0 0-6.2-1.82-6.07 5.51l9.64.1s-25.09-72.06-41.24-84.24z" fill="#e0e0e0"/><path d="M392.35 97.32s-6.55 7.51-7.2 13.85-8.21 20.76-8.21 20.76" fill="none" stroke="#262521" stroke-linecap="round" stroke-linejoin="round" stroke-width=".9" stroke-dasharray="0.83 1.65"/><path d="M385.78 108.7s5.1 17.65 12.86 17.75c1.93 0 3.44-2.19 4.58-5" fill="none" stroke="#262521" stroke-linecap="round" stroke-linejoin="round" stroke-width=".9" stroke-dasharray="0.83 1.65"/><path d="M392.35 97.32s-3.4 13.36-.88 16.72 4.12 5.86 5.56 5.88c.81 0 2.39-1.47 3.57-3.5m3.4 28.95s6.2-1 5.71-8.62m1.44 4.98s-2.31 1.67-2.41 3.7 9.84 12.57 9.84 12.57m-5.98 6s.61-3.06 2.78-3m-.71 4s.05-2.74 4.4-2.44" fill="none" stroke="#262521" stroke-linecap="round" stroke-linejoin="round" stroke-width=".9" stroke-dasharray="0.83 1.65"/><circle cx="386.65" cy="130.3" r="2.3" fill="none" stroke="#262521" stroke-linecap="round" stroke-linejoin="round" stroke-width=".9" stroke-dasharray="0.83 1.65"/><circle cx="373.26" cy="118.83" r="2.3" fill="none" stroke="#262521" stroke-linecap="round" stroke-linejoin="round" stroke-width=".9" stroke-dasharray="0.83 1.65"/><circle cx="350.75" cy="101.77" r="2.3" fill="none" stroke="#262521" stroke-linecap="round" stroke-linejoin="round" stroke-width=".9" stroke-dasharray="0.83 1.65"/><circle cx="336.4" cy="92.58" r="2.3" fill="none" stroke="#262521" stroke-linecap="round" stroke-linejoin="round" stroke-width=".9" stroke-dasharray="0.83 1.65"/><circle cx="340.1" cy="72.85" r="2.3" fill="none" stroke="#262521" stroke-linecap="round" stroke-linejoin="round" stroke-width=".9" stroke-dasharray="0.83 1.65"/><circle cx="340.1" cy="72.85" r="2.3" fill="none" stroke="#262521" stroke-linecap="round" stroke-linejoin="round" stroke-width=".9" stroke-dasharray="0.83 1.65"/><circle cx="329.05" cy="82.38" r="2.3" fill="none" stroke="#262521" stroke-linecap="round" stroke-linejoin="round" stroke-width=".9" stroke-dasharray="0.83 1.65"/><circle cx="359.22" cy="112.63" r="3.11" fill="none" stroke="#262521" stroke-linecap="round" stroke-linejoin="round" stroke-width=".9" stroke-dasharray="0.83 1.65"/><circle cx="400.05" cy="135.99" r="2.3" fill="none" stroke="#262521" stroke-linecap="round" stroke-linejoin="round" stroke-width=".9" stroke-dasharray="0.83 1.65"/><path fill="none" stroke-dasharray="0.83 1.65" stroke-linecap="round" stroke-linejoin="round" stroke-width=".9" stroke="#262521" d="M399.27 135.98l1.45.02m-14.83-5.71l1.45.02m11.3-3.86l.66 7.33m-8.9-14.1l-2.61 8.34m-8.25-.96s.11 8.23 4.29 9.59 9.28-.75 9.28-.75 1.34 6 7.53 5.83 6.84-8.58 6.84-8.58m-3.92-10.99l2.75 3.93m-5.46-.07l2.59 5.29m-7.72-5.74l-.24 6.1m-3.47-9.67l-1.06 6.06m-1.77-10.76l-3.22 7.54"/><path d="M384 127.11s-3.74 5.76 1.48 7.65 5.48-4.75 5.48-4.75m4.84 3.63s0 7.57 4.63 6.5 3-7.32 3-7.32" fill="none" stroke="#262521" stroke-linecap="round" stroke-linejoin="round" stroke-width=".9" stroke-dasharray="0.83 1.65"/><path d="M378.52 132.49s.39 8.48 12.78 5.68c0 0 4.34 8.28 10.95 5.21s6.34-8.19 6.34-8.19m-20.1-44.04S378 107 375 115.53m6.78-29.94s-16.22 18.5-19.33 21.87m20.8-20.88l-20.83 23.59m15.21-30.09S362.86 94.34 354.19 99m23.97-17.55s-17.84 14.34-24 19.4m35.59-8.49s-10.65 15.2-12.59 23.19m-19.54-8.63s-6.63 2-4.56 5.63c0 0-3.07 6.7 3 6 0 0 8.51.56 8.57-4.16m8.63 4.44h.37m-15.14-6.94l1.41 1.43m-9.88-11.86l1.42.32m24.03-23.84s-25 17.56-27 18.83-4.86 3.9-5.36 6.06" fill="none" stroke="#262521" stroke-linecap="round" stroke-linejoin="round" stroke-width=".9" stroke-dasharray="0.83 1.65"/><path d="M386.06 88s-15.9 25.42-16.63 27.41-4.83 7.15-12.26 8-9.75.79-8.91-6.68.49-8.54.49-8.54 4.26-2.63 9.87-6.64 21-18 21-18m-13.01 40l-.2-4.18m6.06 6.74a13.63 13.63 0 007.18-7.69c2.44-6 7.19-19 8.22-19.85a39.58 39.58 0 003.58-4.1" fill="none" stroke="#262521" stroke-linecap="round" stroke-linejoin="round" stroke-width=".9" stroke-dasharray="0.83 1.65"/><path d="M340.72 135.73s-2.39 2.26 1.11 5.23 14.5.92 20.2-1.21 13.89-12.14 15.55-14.79 4.49-8.31 4.49-8.31m-38.85-17.84s-12 5.18-14.74 16.52-.72 19 7.92 17.17M355.12 73s-16.12 7.18-16.29 9.51 6.32 3.93 6.32 3.93m20.32-13.59a11.7 11.7 0 01-5.93.88c-6.21-1-13.56-4.29-15.41-9" fill="none" stroke="#262521" stroke-linecap="round" stroke-linejoin="round" stroke-width=".9" stroke-dasharray="0.83 1.65"/><path d="M356.87 75.44s-12.18 4.56-11.65 6.44 9.78 3.79 9.78 3.79m-.58-4.53s8.87-2.15 15.26-5.78M356.5 83.7a62.6 62.6 0 017.14-2.44" fill="none" stroke="#262521" stroke-linecap="round" stroke-linejoin="round" stroke-width=".9" stroke-dasharray="0.83 1.65"/><path d="M346.26 70.59a8.88 8.88 0 00-8.41-1.91c-4.9 1.51-5 8-5 8s-10.22 1-10.28 5.29 7.36 7.03 7.36 7.03-4.85 5.8 6 10.48c0 0 8.15-4.82 12.68-6.29s24-16.57 24-16.57m-33.04-3.82l1.21.01m-12.9 9.55l1.81.03m6.29 10.19l1.14.01m-5.77-10.18l7.48.1" fill="none" stroke="#262521" stroke-linecap="round" stroke-linejoin="round" stroke-width=".9" stroke-dasharray="0.83 1.65"/><path d="M334.15 89.1s-4 2.23-2.29 5 5.16 4.35 7.4 2m.6-5.3l8.55-5.21m-.89 2.65l4.08 1.09m-11.08 3.06l5.99-3.13m-13.63-5.42l4.77.06m4.72-9.15l2.46 2.78m-1.08-3.92l2.93 3.27m-10.01-5.2a8 8 0 00-.46 3.78m-10.38 4.7a2.83 2.83 0 00-.49 3.58M312.59 67s3.68-1.54.92-2.43-9.09-.48-9.13 2.32 12.51 10.26 12.51 10.26 12.44-5.51 11.17-8.61-6.52-7.44-9.13-2.79" fill="none" stroke="#262521" stroke-linecap="round" stroke-linejoin="round" stroke-width=".9" stroke-dasharray="0.83 1.65"/><path d="M310.8 67.9s2.09 6.15 5.39 6 6.58-5.44 6.58-5.44l-1.63-2.69" fill="none" stroke="#262521" stroke-linecap="round" stroke-linejoin="round" stroke-width=".9" stroke-dasharray="0.83 1.65"/><path d="M316.27 67.56s.38-5.59-3.06-5.46L316 60l3.63 2.15s-3.58.01-3.36 5.41zm-2.49 1.71s1.19 2.23 3 2.15 2.82-3 2.82-3m-20.55.24a4.83 4.83 0 012 3.72l-2.7-1.13M302 57.54a69.48 69.48 0 018.3-1.78m-8.21-.41c1.79-.27 3.77-.56 4.84-.68m10.93 2.87s19.09 10.15 25.83 5m-29.75-5.75s-2.2 4.62-13.4 7m1.2-3.46c3.58-1 6.93-2 7.58-2.57m-41.63 77.62s1.86 9.07-7 11.77m26.91-6.22s-8-1.27-12.23.48-4.8 6.53-2.19 10.09m.2-14.77s7.69-8.16 7.79-9.28-2-2.84-2.87-2-4.92 11.28-4.92 11.28zm-4.17-1.96s2.36-7 1.38-8.08-4.46-.87-5.64 1.87c-.52 1.19 4.26 6.21 4.26 6.21z" fill="none" stroke="#262521" stroke-linecap="round" stroke-linejoin="round" stroke-width=".9" stroke-dasharray="0.83 1.65"/><path d="M255.41 132.15s8.42.2 9.4 4.47-2 8-4.1 8.08-5.6-1-5.43-2.87.52-6.39 3.24-6.14 2.3.87 2.3.87-4.85 2.08-3 3.84 3.89-.48 3.89-.48m33.86 14.58s-6.09-11.67-11.7-11.93-9.63 2-9.66 4.76 5.65 5.68 8.5.66 12.86 6.51 12.86 6.51z" fill="none" stroke="#262521" stroke-linecap="round" stroke-linejoin="round" stroke-width=".9" stroke-dasharray="0.83 1.65"/><path d="M283.66 144.47s-5.88.1-6 2.37 6-2.37 6-2.37zm-8.25-5.82l8.39-4.65a5.28 5.28 0 011.28 2.85v2.84zM263 146.2s2 6.6 9.3 3.72m-7.38-5.28a4.65 4.65 0 006.67 2.73" fill="none" stroke="#262521" stroke-linecap="round" stroke-linejoin="round" stroke-width=".9" stroke-dasharray="0.83 1.65"/><circle cx="269.73" cy="143.82" r="1.45" fill="none" stroke="#262521" stroke-linecap="round" stroke-linejoin="round" stroke-width=".9" stroke-dasharray="0.83 1.65"/><path d="M268.36 137.88s4.36.39 5.93 3.52m26.58 9.67s4.47-2.57 6.6.88a12.24 12.24 0 012.09 5.9s8.33-.07 7.14 7.7" fill="none" stroke="#262521" stroke-linecap="round" stroke-linejoin="round" stroke-width=".9" stroke-dasharray="0.83 1.65"/><path d="M308.1 158.92s-2.15-9.18-6.49-5.7-2.07 13.78-2.07 13.78 15.31 1.93 15-2.24-6.44-5.84-6.44-5.84z" fill="none" stroke="#262521" stroke-linecap="round" stroke-linejoin="round" stroke-width=".9" stroke-dasharray="0.83 1.65"/><path d="M305.39 158.34s-2.64-5.83-3.86.49-.4 6.7 3.41 6.57 8.09-2.52 4.3-3.66-3.85-3.4-3.85-3.4z" fill="none" stroke="#262521" stroke-linecap="round" stroke-linejoin="round" stroke-width=".9" stroke-dasharray="0.83 1.65"/><path fill="none" stroke="#262521" stroke-linecap="round" stroke-linejoin="round" stroke-width=".9" stroke-dasharray="0.83 1.65" d="M303.64 160.65l-.02 1.74 1.72.02m.73-15.64l3.42 10.31 11.08 3.8"/><path fill="none" stroke="#262521" stroke-linecap="round" stroke-linejoin="round" stroke-width=".9" stroke-dasharray="0.83 1.65" d="M310.85 152.53l.82 3.47 4.24 1.3m-.61-3.45l6.35-6.85m-4.6-.09l.46 4.56 4.07.4m-.07 5.51s3.41 3.29 2.86 6.15m-19.65-19.61s3.51-.62 5.74 3.46m2.69 24.53s11 3.77 11 10.28-2.92 9.43-4.89 9.2-6.43-2.27-.71-7.78c4.45-4.28-5.4-11.7-5.4-11.7z"/><path d="M321.21 180.38s-.21 4.43-1.75 6.62 3.54 3.51 1.75-6.62z" fill="none" stroke="#262521" stroke-linecap="round" stroke-linejoin="round" stroke-width=".9" stroke-dasharray="0.83 1.65"/><path d="M327 181.8s-1.61 11.44-5.56 11.85a11.9 11.9 0 01-7.27-1.9m3.09 11.8a7 7 0 017.63-5.43c6.39.55 5.69 1.37 5.69 1.37" fill="none" stroke="#262521" stroke-linecap="round" stroke-linejoin="round" stroke-width=".9" stroke-dasharray="0.83 1.65"/><path d="M330.44 211.91s2.07-9.16-2.1-10.37-10.34-.38-9.41 3.53 7.77 1.38 7.77 1.38" fill="none" stroke="#262521" stroke-linecap="round" stroke-linejoin="round" stroke-width=".9" stroke-dasharray="0.83 1.65"/><path d="M324.91 204.51s-4.2 1.93-3.12 0 4.44-2 5.69.08 1.43 8.77 1.43 8.77m-13.47-20.9s-1.63 6.09 2.36 9" fill="none" stroke="#262521" stroke-linecap="round" stroke-linejoin="round" stroke-width=".9" stroke-dasharray="0.83 1.65"/><circle cx="322.66" cy="195.83" r="1.23" fill="none" stroke="#262521" stroke-linecap="round" stroke-linejoin="round" stroke-width=".9" stroke-dasharray="0.83 1.65"/><path d="M317.9 193.67s-1.81 2.35 1.11 5.88m7.9-8.96l6.44-7.13s-2.16-2.12-2.06-2.12-2 .49-2 .49zm1.43 2.04s9.38-6.19 10.43-5.71 2.43.59 2.42 1.06a5.74 5.74 0 01-2.59 2.76c-.93.26-10.26 1.89-10.26 1.89zm1.66 3.3s6.41.89 7.23.93-.27 2.46-.85 2.92-6.38-3.85-6.38-3.85zm-5.9-4.48s3.58.88 2.71 6.34m-59.03-15.89l-10.11 16.88m23.08-4.27l-18.61 13.59m26.61-2.78l-19.99 11.82" fill="none" stroke="#262521" stroke-linecap="round" stroke-linejoin="round" stroke-width=".9" stroke-dasharray="0.83 1.65"/><circle cx="260.2" cy="181.19" r="2.3" fill="none" stroke="#262521" stroke-linecap="round" stroke-linejoin="round" stroke-width=".9" stroke-dasharray="0.83 1.65"/><circle cx="273.67" cy="187.93" r="2.3" fill="none" stroke="#262521" stroke-linecap="round" stroke-linejoin="round" stroke-width=".9" stroke-dasharray="0.83 1.65"/><circle cx="282.99" cy="201.46" r="2.3" fill="none" stroke="#262521" stroke-linecap="round" stroke-linejoin="round" stroke-width=".9" stroke-dasharray="0.83 1.65"/><circle cx="289.25" cy="214.66" r="2.3" fill="none" stroke="#262521" stroke-linecap="round" stroke-linejoin="round" stroke-width=".9" stroke-dasharray="0.83 1.65"/><path fill="none" stroke-dasharray="0.83 1.65" stroke-linecap="round" stroke-linejoin="round" stroke-width=".9" stroke="#262521" d="M280.7 201.43l-16.46 10.6m17.13-8.95l-17.16 11.25m7.39-24.48l-12.13 13.6m14.17-13.22l-13.26 14.71m-1.97-.67s6.73 7.71 6.84 14.11m-6.33-8.46s3.34 2.14 3.44 8.42m-1.35-32.11l-3.9 6.64m-.8-16.24s6.09-1.55 7.14-1.54 1.1 7.23.95 8.45m-5.95 17.6s10.56-16.55 13.37-17.5a53.09 53.09 0 018.28-1.58s.55 8.48-1.14 9.92-18.22 14.6-18.22 14.6"/><path d="M263.22 210s16.7-13.57 19.84-13.44a22.48 22.48 0 015.79 1.08s-1.27 5.3-2.08 6.19-21.49 11.89-21.49 11.89m8.88 2.78s13.22-9.72 15.16-9.58 5.52 1.88 5.62 2.84-.75 4.47-1.12 6.2" fill="none" stroke="#262521" stroke-linecap="round" stroke-linejoin="round" stroke-width=".9" stroke-dasharray="0.83 1.65"/><path d="M147.73 216.18l.2 2.39s-2.43-1.14-3.13-.92c-.38.12-.38.75.17 1.32h32.67a15.67 15.67 0 00-1.25-5.86s.8-9.22-2.18-12.51-10.21-1.3-10.21-1.3-8.41-5-11.34-.15-1.12 8.59-1.12 8.59-1.6-2.2-2.3-2.05 0 3.07 0 3.07l-.85 2.88a17.22 17.22 0 00-5.13-9.94c-4.57-4.25-6.31-4.53-6.31-4.53s3.22-5.89 2.53-6.35-2.48-1.52-2.48-1.52.26-2.59-.67-2.64-1.78 2.83-10 6.1c0 0 6.15-7.21 8.48-8.07s-1-2-1-2 .38-2.55-.89-3.38-4.07 0-4.07 0l-2.33.43a37.42 37.42 0 01-1 6 26.31 26.31 0 01-2.34 5.09q0 8.43.08 16.87l.81-.34s5.49 7.08 12.82-1.85c.05.02 8.49 3.66 10.84 10.67z" fill="#e0e0e0"/><path d="M138.54 196.81s-8-1.27-12.23.48a5.89 5.89 0 00-3.23 3m1.24-7.68s7.69-8.16 7.79-9.28-2-2.84-2.87-2-4.92 11.28-4.92 11.28z" fill="none" stroke="#262521" stroke-linecap="round" stroke-linejoin="round" stroke-width=".9" stroke-dasharray="0.83 1.65"/><path d="M146.51 210.37s-6.09-11.67-11.7-11.92-9.63 2-9.66 4.76 5.65 5.67 8.5.66 12.86 6.5 12.86 6.5z" fill="none" stroke="#262521" stroke-linecap="round" stroke-linejoin="round" stroke-width=".9" stroke-dasharray="0.83 1.65"/><path d="M134.6 200.35s-5.88.1-6 2.36 6-2.36 6-2.36zm-8.25-5.82l8.39-4.62a5.28 5.28 0 011.28 2.85v2.83zM151.81 207s4.47-2.57 6.6.88a12.21 12.21 0 012.09 5.9s5.8 0 7 4.45" fill="none" stroke="#262521" stroke-linecap="round" stroke-linejoin="round" stroke-width=".9" stroke-dasharray="0.83 1.65"/><path d="M164.55 218.18c-1.79-2.4-5.51-3.38-5.51-3.38s-2.15-9.18-6.49-5.7c-2.4 1.91-2.78 5.89-2.64 9.08" fill="none" stroke="#262521" stroke-linecap="round" stroke-linejoin="round" stroke-width=".9" stroke-dasharray="0.83 1.65"/><path d="M160.18 217.62c-3.79-1.14-3.85-3.4-3.85-3.4s-2.64-5.83-3.86.49a31.54 31.54 0 00-.5 3.47" fill="none" stroke="#262521" stroke-linecap="round" stroke-linejoin="round" stroke-width=".9" stroke-dasharray="0.83 1.65"/><path fill="none" stroke="#262521" stroke-linecap="round" stroke-linejoin="round" stroke-width=".9" stroke-dasharray="0.83 1.65" d="M154.58 216.53l-.02 1.74 1.72.02m.73-15.64l3.42 10.31 11.08 3.79"/><path fill="none" stroke="#262521" stroke-linecap="round" stroke-linejoin="round" stroke-width=".9" stroke-dasharray="0.83 1.65" d="M161.79 208.41l.82 3.47 4.24 1.3m-.61-3.45l6.35-6.85m-4.6-.09l.46 4.56 4.07.4m-.07 5.5s3.41 3.3 2.86 6.16m-19.65-19.61s3.51-.62 5.74 3.46"/><path d="M299.44 436zm.27-1.64c-.25-.24-.53-.46-.8-.68a7.5 7.5 0 00-.81-.58c-.09-1.74-.32-3.38-.32-3.38a48.8 48.8 0 00-5.55-3.94c.86-.79.49-2.25 0-3.14a3.76 3.76 0 00-1.95-1.78 33.89 33.89 0 00-.07-6.36 16.28 16.28 0 00-5.14-1.38 2.24 2.24 0 00.62-.9 3.93 3.93 0 000-2.15 1.68 1.68 0 00-1.31-1.39 3.16 3.16 0 00-1-.07h-.34a50.93 50.93 0 00.21-11.21 27.55 27.55 0 00-10.85 1.1 4 4 0 00-.46-1.66 2.88 2.88 0 00-.64-.83 2 2 0 00-1.19-.4 7.59 7.59 0 00-3.21.44c-.46-2.54-1.1-4.78-1.1-4.78a44 44 0 00-7 .55 3.33 3.33 0 00-.39-1.52 4 4 0 00-2-1.39.62.62 0 00-.77.42.65.65 0 00.43.77l.12.05.23.11c.15.08.3.16.44.25l.19.12a.24.24 0 01.08.06l.07.07.05.07a.41.41 0 010 .09s.05.11.08.16a.3.3 0 010 .1c0 .13.06.26.08.4s0 .06 0 .09v.34c-.75.13-1.2.23-1.2.23l-.58 44.08 41.92.56a4.72 4.72 0 00.44-2.29c.21.18.43.35.63.53s.21.21.31.32l.16.18.06.08.1.18.05.09c0 .06 0 .05 0 0s0 .13.05.17 0 .07 0 .09a.63.63 0 00.61.63.62.62 0 00.63-.61 3 3 0 00-.88-1.89zm-32.58-37a5.7 5.7 0 012.62-.49 1.69 1.69 0 01.71.07 1.24 1.24 0 01.4.5 2.9 2.9 0 01.32 1.47 34.94 34.94 0 00-3.82 1.45 20.27 20.27 0 00-.23-3zm15.68 12.52h.26a5.4 5.4 0 01.8 0h.35c-.12 0 0 0 0 0h.07v.05s.05.07.06.1 0 .09 0 .12.05.26.08.39v.36a3 3 0 010 .42 1.28 1.28 0 010 .19v.11s0 .1-.05.15l-.08.13-.11.11h-.07a.76.76 0 01-.16 0 .62.62 0 00-.45.63c-1.16-.14-2-.2-2-.2a7.85 7.85 0 001.3-2.56zm7.31 12.24l.26.16a2.89 2.89 0 01.77.91 4 4 0 01.23.54l.09.32v.14a1.41 1.41 0 010 .29.41.41 0 010 .11v.06a1 1 0 010 .1.09.09 0 010 .06l-.11.09a.42.42 0 00-.11.15c-1.08-.65-1.8-1.05-1.8-1.05a5.42 5.42 0 00.67-1.88z" fill="#e0e0e0"/><path d="M257.41 391.12c-.01-.05-.05-.12 0 0zm72.39 47.69s3.09-10.43 2.22-14.64a15.35 15.35 0 00-3-6.65 6.64 6.64 0 014.25 6.17s7.73-1.8 7.73-3.69a14.07 14.07 0 00-1-4.4s2.47-2.78 1.07-2.85-5.88 2.35-11.87.6c0 0 7.44-1.91 11.56-2s3.75-5.14 2.09-6.57-3.7-2.54-4.58-1.85-3.25 4.61-8.31 6.55c0 0 4.42-7.2 7.14-8a16.74 16.74 0 01-3.91-2.81c-1.18-1.37-2.55-.31-3.3-.42s-2.44.23-2.39.78.51 5.8-.09 6.6 1.81-2-2.43-9.13-12.28-8.34-12.28-8.34 1.81-2.46 2.51-1.59 1.48 2.35 1.87 2 .79-3 .79-3 5.12 1.91 7.7-.6-.15-8.78-.15-8.78.79-9.21-2.19-12.51-10.19-1.29-10.19-1.29-8.41-5-11.34-.15-1.12 8.59-1.12 8.59-1.6-2.21-2.3-2.06 0 3.07 0 3.07l-.85 2.88a17.18 17.18 0 00-5.13-9.93c-4.57-4.25-6.31-4.54-6.31-4.54s3.22-5.88 2.53-6.34-2.42-1.53-2.42-1.53.26-2.58-.67-2.64-1.78 2.84-10 6.1c0 0 6.15-7.21 8.48-8.07s-1-2-1-2 .38-2.54-.89-3.37-4.07-.06-4.07-.06l-2.33.44a37.42 37.42 0 01-1 6 30 30 0 01-2.87 6 13 13 0 011.77-10.43s-.69-.88-3.65-1.05c0 0-1.89-2.41-3.75-2.18s-2.39 4.4-2.39 4.4l-2.35 1.92s6.12 3.37 6.3 6.86c0 0-5.42-6.23-12.48-5v16.58s4.17.64 5.46.19c0 0 2.09 9 12.5 4.35 0 0 5.49 7.08 12.82-1.85 0 0 8.44 3.65 10.79 10.65l.2 2.4s-2.43-1.15-3.13-.92-.14 2.2 3 2.25c0 0 1.46 3.49 2.67 4.44s4.13.76 4.13.76-1.21 3.42 0 3.58 1.79-3.55 1.79-3.55h2.79s8.63 6.73 9.62 11.05c0 0-7.85 4.79-3.29 11.95 0 0-4.3 8.22 2.29 11.26 0 0-.58 9 9.33 6.56 0 0 3.58 2.38 3.07 5.39a7 7 0 01-2.27 4.35z" fill="#e0e0e0"/><path d="M267.69 354.3s1.86 9.08-7 11.77m26.91-6.22s-8-1.27-12.23.49-4.8 6.53-2.19 10.08m.2-14.77s7.69-8.16 7.79-9.28-2-2.83-2.87-2-4.92 11.28-4.92 11.28zm-4.17-1.95s2.36-7 1.38-8.09-4.46-.87-5.64 1.87c-.52 1.19 4.26 6.22 4.26 6.22z" fill="none" stroke="#262521" stroke-linecap="round" stroke-linejoin="round" stroke-width=".9" stroke-dasharray="0.83 1.65"/><path d="M255.41 351.07s8.42.2 9.4 4.47-2 8-4.1 8.08-5.6-1-5.43-2.87.52-6.39 3.24-6.14 2.3.88 2.3.88-4.85 2.07-3 3.83 3.89-.47 3.89-.47m33.86 14.57s-6.09-11.67-11.7-11.93-9.63 2-9.66 4.76 5.65 5.68 8.5.66 12.86 6.51 12.86 6.51z" fill="none" stroke="#262521" stroke-linecap="round" stroke-linejoin="round" stroke-width=".9" stroke-dasharray="0.83 1.65"/><path d="M283.66 363.39s-5.88.11-6 2.37 6-2.37 6-2.37zm-8.25-5.81l8.39-4.58a5.33 5.33 0 011.28 2.86v2.83zM263 365.13s2 6.59 9.3 3.71m-7.38-5.28a4.65 4.65 0 006.67 2.73" fill="none" stroke="#262521" stroke-linecap="round" stroke-linejoin="round" stroke-width=".9" stroke-dasharray="0.83 1.65"/><circle cx="269.73" cy="362.74" r="1.45" fill="none" stroke="#262521" stroke-linecap="round" stroke-linejoin="round" stroke-width=".9" stroke-dasharray="0.83 1.65"/><path d="M268.36 356.81s4.36.39 5.93 3.51m26.58 9.68s4.47-2.57 6.6.89a12.19 12.19 0 012.09 5.89s8.33-.07 7.14 7.7" fill="none" stroke="#262521" stroke-linecap="round" stroke-linejoin="round" stroke-width=".9" stroke-dasharray="0.83 1.65"/><path d="M308.1 377.84s-2.15-9.17-6.49-5.7-2.07 13.74-2.07 13.74 15.31 1.92 15-2.25-6.44-5.79-6.44-5.79z" fill="none" stroke="#262521" stroke-linecap="round" stroke-linejoin="round" stroke-width=".9" stroke-dasharray="0.83 1.65"/><path d="M305.39 377.26s-2.64-5.83-3.86.49-.4 6.7 3.41 6.57 8.09-2.52 4.3-3.66-3.85-3.4-3.85-3.4z" fill="none" stroke="#262521" stroke-linecap="round" stroke-linejoin="round" stroke-width=".9" stroke-dasharray="0.83 1.65"/><path fill="none" stroke="#262521" stroke-linecap="round" stroke-linejoin="round" stroke-width=".9" stroke-dasharray="0.83 1.65" d="M303.64 379.58l-.02 1.73 1.72.03m.73-15.65l3.42 10.31 11.08 3.8"/><path fill="none" stroke="#262521" stroke-linecap="round" stroke-linejoin="round" stroke-width=".9" stroke-dasharray="0.83 1.65" d="M310.85 371.45l.82 3.47 4.24 1.3m-.61-3.45l6.35-6.84m-4.6-.1l.46 4.56 4.07.4m-.07 5.51s3.41 3.29 2.86 6.15m-19.65-19.61s3.51-.61 5.74 3.46m2.69 24.54s11 3.77 11 10.27-2.92 9.43-4.89 9.2-6.43-2.27-.71-7.77c4.45-4.29-5.4-11.7-5.4-11.7z"/><path d="M321.21 399.31s-.21 4.42-1.75 6.61 3.54 3.52 1.75-6.61z" fill="none" stroke="#262521" stroke-linecap="round" stroke-linejoin="round" stroke-width=".9" stroke-dasharray="0.83 1.65"/><path d="M327 400.72s-1.61 11.44-5.56 11.86a12 12 0 01-7.27-1.91m3.09 11.81a7 7 0 017.63-5.44c6.39.55 5.69 1.38 5.69 1.38" fill="none" stroke="#262521" stroke-linecap="round" stroke-linejoin="round" stroke-width=".9" stroke-dasharray="0.83 1.65"/><path d="M330.44 430.84s2.07-9.16-2.1-10.38-10.34-.37-9.41 3.54 7.77 1.38 7.77 1.38" fill="none" stroke="#262521" stroke-linecap="round" stroke-linejoin="round" stroke-width=".9" stroke-dasharray="0.83 1.65"/><path d="M324.91 423.44s-4.2 1.92-3.12 0 4.44-2 5.69.07 1.43 8.78 1.43 8.78m-13.47-20.91s-1.63 6.1 2.36 9.06" fill="none" stroke="#262521" stroke-linecap="round" stroke-linejoin="round" stroke-width=".9" stroke-dasharray="0.83 1.65"/><circle cx="322.66" cy="414.76" r="1.23" fill="none" stroke="#262521" stroke-linecap="round" stroke-linejoin="round" stroke-width=".9" stroke-dasharray="0.83 1.65"/><path d="M317.9 412.59s-1.81 2.36 1.11 5.88m7.9-8.96l6.44-7.13s-2.16-2.12-2.06-2.12-2 .49-2 .49zm1.43 2.04s9.38-6.19 10.43-5.71 2.43.6 2.42 1.06a5.74 5.74 0 01-2.59 2.76c-.93.22-10.26 1.89-10.26 1.89zm1.66 3.3s6.41.89 7.23.93-.27 2.47-.85 2.92-6.38-3.85-6.38-3.85zm-5.9-4.48s3.58.88 2.71 6.34m-59.03-15.89l-10.11 16.88m23.08-4.27l-18.61 13.6m26.61-2.79l-19.99 11.83" fill="none" stroke="#262521" stroke-linecap="round" stroke-linejoin="round" stroke-width=".9" stroke-dasharray="0.83 1.65"/><circle cx="260.2" cy="400.11" r="2.3" fill="none" stroke="#262521" stroke-linecap="round" stroke-linejoin="round" stroke-width=".9" stroke-dasharray="0.83 1.65"/><circle cx="273.67" cy="406.85" r="2.3" fill="none" stroke="#262521" stroke-linecap="round" stroke-linejoin="round" stroke-width=".9" stroke-dasharray="0.83 1.65"/><circle cx="282.99" cy="420.38" r="2.3" fill="none" stroke="#262521" stroke-linecap="round" stroke-linejoin="round" stroke-width=".9" stroke-dasharray="0.83 1.65"/><circle cx="289.25" cy="433.58" r="2.3" fill="none" stroke="#262521" stroke-linecap="round" stroke-linejoin="round" stroke-width=".9" stroke-dasharray="0.83 1.65"/><path fill="none" stroke-dasharray="0.83 1.65" stroke-linecap="round" stroke-linejoin="round" stroke-width=".9" stroke="#262521" d="M280.7 420.35l-16.46 10.61m17.13-8.96l-17.16 11.25m7.39-24.47l-12.13 13.59m14.17-13.22l-13.26 14.71m-1.97-.66s6.73 7.7 6.84 14.1m-6.33-8.46s3.34 2.14 3.44 8.42m-1.35-32.11l-3.9 6.64m-.8-16.24s6.09-1.55 7.14-1.53 1.1 7.22.95 8.44m-5.95 17.6s10.56-16.55 13.37-17.5a54.38 54.38 0 018.28-1.56s.55 8.48-1.14 9.92-18.22 14.6-18.22 14.6"/><path d="M263.22 428.9s16.7-13.57 19.84-13.43a22.23 22.23 0 015.79 1.07s-1.27 5.3-2.08 6.19-21.49 11.9-21.49 11.9m8.88 2.79s13.22-9.72 15.16-9.57 5.52 1.87 5.62 2.84-.75 4.46-1.12 6.19" fill="none" stroke="#262521" stroke-linecap="round" stroke-linejoin="round" stroke-width=".9" stroke-dasharray="0.83 1.65"/><path d="M79.85 355.82zm.32-1.65a8.65 8.65 0 00-.78-.7 9.24 9.24 0 00-.79-.61c0-1.74-.22-3.38-.22-3.38a48.44 48.44 0 00-5.44-4.1c.88-.76.55-2.23.11-3.14a3.7 3.7 0 00-1.89-1.83 34.11 34.11 0 00.11-6.36 16.41 16.41 0 00-5.1-1.53 2.16 2.16 0 00.64-.88 3.83 3.83 0 000-2.15 1.7 1.7 0 00-1.27-1.43 3.51 3.51 0 00-1-.09h-.34a50.33 50.33 0 00.52-11.19 27.56 27.56 0 00-10.87.79 4 4 0 00-.42-1.67 2.71 2.71 0 00-.61-.85 1.92 1.92 0 00-1.18-.43 7.64 7.64 0 00-3.22.34c-.38-2.55-1-4.81-1-4.81a45.24 45.24 0 00-7.05.36l-2.28 44.41 39.89 1.74a4.64 4.64 0 00.5-2.27c.21.18.42.35.62.55a3 3 0 01.3.32.9.9 0 01.15.19l.06.08a1.62 1.62 0 01.1.18.3.3 0 010 .1c0 .06 0 .06 0 0a1.67 1.67 0 010 .18v.08a.63.63 0 00.59.64.62.62 0 00.64-.59 3 3 0 00-.77-1.95zm-27.51-36.25a36.7 36.7 0 00-3.86 1.34 19.74 19.74 0 00-.15-3 5.9 5.9 0 012.64-.42 1.8 1.8 0 01.7.09 1.2 1.2 0 01.39.52 2.87 2.87 0 01.28 1.47zm13 13.09v.11l-.06.14a.57.57 0 00-.08.13l-.12.1h-.23a.6.6 0 00-.47.61c-1.15-.17-2-.25-2-.25a7.89 7.89 0 001.3-2.81h.27a7.09 7.09 0 01.8 0h.2l.14.05c-.11 0 0 0 0 0h.07v.27c0 .02 0 .26.07.4v.36a2.94 2.94 0 010 .42 1.37 1.37 0 01.16.46zm6.55 12.8v.46a1 1 0 010 .1v.05a.31.31 0 01-.11.09.53.53 0 00-.11.15c-1.06-.68-1.77-1.1-1.77-1.1a5.43 5.43 0 00.8-1.94 2.2 2.2 0 01.25.17 2.68 2.68 0 01.75.93 2.74 2.74 0 01.22.55c0 .11.06.21.08.32s0 .09 0 .14zm-33.09-34.06c-.01-.05-.05-.09 0 0zm75.61 23.38v-4.79a16 16 0 01-3.58 1.8 50.25 50.25 0 013.44-4.57c-.34-.51-3.61-5.66-4.13-6.69-.73.09-1.49.34-1.47.71 0 .54.35 5.81-.27 6.6s1.87-2-2.17-9.19-12-8.69-12-8.69 1.89-2.41 2.56-1.52 1.42 2.39 1.81 2.08.88-3 .88-3 5.07 2.05 7.71-.39.1-8.77.1-8.77 1.06-9.19-1.83-12.57-10.15-1.58-10.15-1.58-8.26-5.23-11.33-.48-1.36 8.56-1.36 8.56-1.54-2.25-2.24-2.12-.13 3.07-.13 3.07l-.93 2.85a17.23 17.23 0 00-4.85-10.08c-4.44-4.37-6.18-4.71-6.18-4.71s3.39-5.79 2.71-6.27-2.38-1.59-2.38-1.59.34-2.58-.59-2.66-1.86 2.78-10.13 5.81c0 0 6.35-7 8.71-7.82s-1-2-1-2 .45-2.53-.79-3.4-4.07-.17-4.07-.17l-2.34.37a37.68 37.68 0 01-1.18 6 29.83 29.83 0 01-3 5.89 13 13 0 012.06-10.38s-.66-.9-3.62-1.15c0 0-1.81-2.46-3.68-2.29s-2.51 4.33-2.51 4.33l-2.4 1.85s6 3.55 6.1 7.05a17.49 17.49 0 00-6.63-4.69c-1.68-.63-2 16.66-.71 16.25 0 0 1.83 9 12.37 4.71 0 0 5.28 7.23 12.86-1.49 0 0 8.34 3.88 10.49 11l.13 2.4s-2.39-1.21-3.1-1-.21 2.2 2.93 2.34c0 0 1.35 3.53 2.54 4.52s4.1.87 4.1.87-1.31 3.39-.15 3.58 1.89-3.5 1.89-3.5l2.79.11s8.44 7 9.3 11.32c0 0-8 4.56-3.63 11.84 0 0-4.53 8.11 2 11.33 0 0-.84 9 9.14 6.83 0 0 3.51 2.47 2.92 5.47a7 7 0 01-2.39 4.28l2.86.12s3.39-10.33 2.64-14.57a15.27 15.27 0 00-2.86-6.73 6.57 6.57 0 014 5.08c0-.31.41-6.88.4-8.51a15.13 15.13 0 01-4-.74s1.87-.48 4.34-.91z" fill="#e0e0e0"/><path d="M50.44 273.24s1.6 9.12-7.34 11.56m27.08-5.45s-7.93-1.5-12.23.13-5 6.39-2.48 10m.61-14.73s7.92-7.94 8.06-9.06-2-2.89-2.82-2-5.24 11.06-5.24 11.06zM52 272.67s2.55-7 1.6-8-4.43-1-5.69 1.71c-.57 1.14 4.09 6.29 4.09 6.29z" fill="none" stroke="#262521" stroke-linecap="round" stroke-linejoin="round" stroke-width=".9" stroke-dasharray="0.83 1.65"/><path d="M44.59 271.18a4.86 4.86 0 012.93 3.21c.85 4.29-2.19 7.95-4.32 8m34.57 10.75S72 281.3 66.4 280.88s-9.67 1.76-9.79 4.48 5.49 5.84 8.48.91 12.68 6.87 12.68 6.87z" fill="none" stroke="#262521" stroke-linecap="round" stroke-linejoin="round" stroke-width=".9" stroke-dasharray="0.83 1.65"/><path d="M66.14 282.78s-5.88-.07-6.07 2.19 6.07-2.19 6.07-2.19zm-8.08-6.05l8.52-4.39a5.25 5.25 0 011.19 2.89c0 1.45-.12 2.83-.12 2.83zm-12.66 7.19s1.79 6.65 9.2 4m-7.2-5.51a4.65 4.65 0 006.6 2.92" fill="none" stroke="#262521" stroke-linecap="round" stroke-linejoin="round" stroke-width=".9" stroke-dasharray="0.83 1.65"/><circle cx="52.24" cy="281.73" r="1.45" fill="none" stroke="#262521" stroke-linecap="round" stroke-linejoin="round" stroke-width=".9" stroke-dasharray="0.83 1.65"/><path d="M51 275.76s4.34.51 5.82 3.68m26.34 10.42s4.54-2.44 6.57 1.07a12.08 12.08 0 011.92 6s8.33.16 6.93 7.9" fill="none" stroke="#262521" stroke-linecap="round" stroke-linejoin="round" stroke-width=".9" stroke-dasharray="0.83 1.65"/><path d="M90.16 297.91s-1.88-9.23-6.32-5.88-2.46 13.67-2.46 13.67 15.25 2.36 15.06-1.82-6.28-5.97-6.28-5.97z" fill="none" stroke="#262521" stroke-linecap="round" stroke-linejoin="round" stroke-width=".9" stroke-dasharray="0.83 1.65"/><path d="M87.47 297.26s-2.47-5.91-3.87.38-.59 6.68 3.22 6.66 8.16-2.29 4.4-3.54-3.75-3.5-3.75-3.5z" fill="none" stroke="#262521" stroke-linecap="round" stroke-linejoin="round" stroke-width=".9" stroke-dasharray="0.83 1.65"/><path fill="none" stroke="#262521" stroke-linecap="round" stroke-linejoin="round" stroke-width=".9" stroke-dasharray="0.83 1.65" d="M85.66 299.52l-.08 1.73 1.72.08m1.18-15.62l3.12 10.4 10.97 4.11"/><path fill="none" stroke="#262521" stroke-linecap="round" stroke-linejoin="round" stroke-width=".9" stroke-dasharray="0.83 1.65" d="M93.09 291.6l.72 3.5 4.2 1.42m-.5-3.47l6.53-6.66m-4.59-.23l.33 4.57 4.06.52m-.23 5.5s3.32 3.39 2.69 6.23m-19.09-20.16s3.53-.51 5.64 3.62m2 24.61s10.88 4.08 10.72 10.58-3.18 9.34-5.15 9.05-6.36-2.44-.48-7.79c4.58-4.16-5.09-11.84-5.09-11.84z"/><path d="M102.65 319.74s-.33 4.42-1.93 6.56 3.4 3.62 1.93-6.56z" fill="none" stroke="#262521" stroke-linecap="round" stroke-linejoin="round" stroke-width=".9" stroke-dasharray="0.83 1.65"/><path d="M108.43 321.32s-1.94 11.39-5.9 11.69a11.93 11.93 0 01-7.21-2.11m2.74 11.89a7 7 0 017.78-5.22c6.37.73 5.64 1.54 5.64 1.54" fill="none" stroke="#262521" stroke-linecap="round" stroke-linejoin="round" stroke-width=".9" stroke-dasharray="0.83 1.65"/><path d="M111 351.52s2.33-9.1-1.81-10.43-10.32-.67-9.5 3.27 7.72 1.6 7.72 1.6" fill="none" stroke="#262521" stroke-linecap="round" stroke-linejoin="round" stroke-width=".9" stroke-dasharray="0.83 1.65"/><path d="M105.67 344s-4.25 1.8-3.12-.13 4.5-1.91 5.69.23 1.18 8.82 1.18 8.82m-12.87-21.27s-1.8 6 2.1 9.11" fill="none" stroke="#262521" stroke-linecap="round" stroke-linejoin="round" stroke-width=".9" stroke-dasharray="0.83 1.65"/><circle cx="103.67" cy="335.22" r="1.23" fill="none" stroke="#262521" stroke-linecap="round" stroke-linejoin="round" stroke-width=".9" stroke-dasharray="0.83 1.65"/><path d="M99 332.93s-1.88 2.3.93 5.91m8.13-8.74l6.64-6.94s-2.09-2.18-2-2.18-2 .43-2 .43zm6.86 1.25l-5.48.83s2.72-1.68 5.42-3.18m-3.86 6.53l2.81.46c1.83.3 1.75 2.88.33 1.88-1.57-1.11-3.14-2.34-3.14-2.34zm-5.76-4.65s3.55 1 2.52 6.42m-58.55-17.56l-10.59 16.58m23.2-3.61l-18.99 13.06m26.67-2.03L49.19 355" fill="none" stroke="#262521" stroke-linecap="round" stroke-linejoin="round" stroke-width=".9" stroke-dasharray="0.83 1.65"/><circle cx="41.65" cy="318.81" r="2.3" fill="none" stroke="#262521" stroke-linecap="round" stroke-linejoin="round" stroke-width=".9" stroke-dasharray="0.83 1.65"/><circle cx="54.92" cy="325.93" r="2.3" fill="none" stroke="#262521" stroke-linecap="round" stroke-linejoin="round" stroke-width=".9" stroke-dasharray="0.83 1.65"/><circle cx="63.86" cy="339.72" r="2.3" fill="none" stroke="#262521" stroke-linecap="round" stroke-linejoin="round" stroke-width=".9" stroke-dasharray="0.83 1.65"/><circle cx="69.73" cy="353.1" r="2.3" fill="none" stroke="#262521" stroke-linecap="round" stroke-linejoin="round" stroke-width=".9" stroke-dasharray="0.83 1.65"/><path fill="none" stroke-dasharray="0.83 1.65" stroke-linecap="round" stroke-linejoin="round" stroke-width=".9" stroke="#262521" d="M61.56 339.63l-16.75 10.13m17.38-8.46l-17.47 10.75m8.08-24.25l-12.51 13.24m14.54-12.81l-13.67 14.33m-1.95-.72s6.51 6.76 6.43 13.16m-6.08-7.5s3.28 2.23 3.19 8.51m-.44-32.14l-4.08 6.53m.98-16.54a52.2 52.2 0 015.86-1.05c1 .05.9 7.26.71 8.47"/><path d="M39.34 338.7s11-16.24 13.86-17.11a54 54 0 018.32-1.34s.31 8.49-1.42 9.88-18.63 14.08-18.63 14.08m2.38 3.47s17.08-13.09 20.21-12.87a22.12 22.12 0 015.76 1.24s-1.42 5.26-2.25 6.13-21.82 11.28-21.82 11.28M56.4 355s11.6-7.84 13.6-7.64 5.47 2 5.54 3-.88 4.44-1.3 6.16m185.23-116.2s1.89-.93 2.62 0-2.68 4.12-2.68 4.12m.76 6.6l4.63 2.93m-2.73-4.19s7.54-9.07 15.5-7.35 5.1 9.54 3.17 9.84-5.64-3.75-8.72-3.79a72.87 72.87 0 00-9.95 1.3z" fill="none" stroke="#262521" stroke-linecap="round" stroke-linejoin="round" stroke-width=".9" stroke-dasharray="0.83 1.65"/><path d="M271.22 245.91s7.23-1 8.89 1.36-8.89-1.36-8.89-1.36zm-11.96 10.39s7.78 3.3 7.68 11-3.3 15-10 19.36m11.31-28.97l2.72 7.07.91-5.58-3.63-1.49zm2.63 13.94s.2 10.07-13.59 19.47m1-31.94a6.61 6.61 0 011.7 5.46" fill="none" stroke="#262521" stroke-linecap="round" stroke-linejoin="round" stroke-width=".9" stroke-dasharray="0.83 1.65"/><path d="M258.22 264.59s4.94 1.51 4.25 3.57-4.94 4.41-4.94 4.41m.05-3.99l2.88.04m-1.46 3.06s3.33 8-.05 9.62m21.22-24.73s3.9-3.9 6-4.21m-21.78 32.69s.8 17.82 14 23.11m-10.06-18.04s.52 14.24 12.33 15.51m-19.11-16.39s6 20.53 10.11 20.59.74 4.16.74 4.16-5.73-7.1-8.57-13.21a102.58 102.58 0 00-5-9.66m-1.59 3.5s12.22 18.86 12.08 20.45m-12.4-13.58l10.54 15.47" fill="none" stroke="#262521" stroke-linecap="round" stroke-linejoin="round" stroke-width=".9" stroke-dasharray="0.83 1.65"/><circle cx="261.5" cy="321.34" r="3.02" fill="none" stroke="#262521" stroke-linecap="round" stroke-linejoin="round" stroke-width=".9" stroke-dasharray="0.83 1.65"/><path fill="none" stroke-dasharray="0.83 1.65" stroke-linecap="round" stroke-linejoin="round" stroke-width=".9" stroke="#262521" d="M261.5 321.34l1.56.02m-5.53-4.53s4.63-2.81 6.45-.55 4 6.2 2.21 8.14-5.48 4.28-7.76 1.37-3.73-6.12-2.32-7.54zm-1.28-8.96l3.72 5.96m-4.28-4.05l2.88 5.58m13.56-40.68s5.3-15.43 14-17.39 18.51 2 18.73 9 .83 10.39-2.67 8.75l-3.49-1.64s2.73-.93 2.27-2.53-5.24-2.63-5.61 1 1.35 7.05 5.82 6.95 9.51-5.94 8-12.2c0 0 5.74-1.19 5.87-3.75"/><path d="M301.93 267.93c-.1-4.92-5.86-4.43-5.86-4.43s-7.87-7.28-12.16 2c0 0-7.07.46-6 9.42 0 0-6.43-.06-5.89 6.25s6.52 19.47 16.58 19.6c14.25.19 19.72-10.71 17.39-15.08s-6.5-.18-6.5-.18 2.76 5.07-3.77 2.91 1.09-9.89 5.4-9.52 9.84 5.56 7.18 12.88c0 0 9.25-1.56 10.51 6.06" fill="none" stroke="#262521" stroke-linecap="round" stroke-linejoin="round" stroke-width=".9" stroke-dasharray="0.83 1.65"/><path d="M298.69 288.94s3.56 2.76-4.81 6.16-11.56-5.58-11.56-5.58c-14.29-6.26.57-14.69.57-14.69.51-8.95 9.29-7 9.29-7 1.78-1.85 5.27.07 5.27.07m-2.13 4.1s-17.22 6.64-2.11 13.23m2.7-9.23s-10 2.92-.07 5.19m-5.01-10.89s-4.28-.06-4.64 3.29" fill="none" stroke="#262521" stroke-linecap="round" stroke-linejoin="round" stroke-width=".9" stroke-dasharray="0.83 1.65"/><path d="M285.85 275s-7.89 3.47-3.07 8.38c0 0-.84 6.56 5.49 7s5.71-3 5.71-3m-7.92-3.94s1.86 5.51 4.51 3.63m-2.87 5.4s2.19 3.22 6.24-.88m-5.36-24.67s3.11-4.52 3.6.88m12.38 9.99s24.91-8.47 26.06-14.28c0 0 13.76 16.1 21.61 17.27" fill="none" stroke="#262521" stroke-linecap="round" stroke-linejoin="round" stroke-width=".9" stroke-dasharray="0.83 1.65"/><path d="M351.8 276.7s-19.23-13.61-20.91-19.38c0 0-8.37 12.39-21.67 15.52m1.03-3.09s10.48-7.05 10.51-9.67" fill="none" stroke="#262521" stroke-linecap="round" stroke-linejoin="round" stroke-width=".9" stroke-dasharray="0.83 1.65"/><path d="M326.34 262.66s-7.25-7.84-8.9-8.44.45-4.37 5.87-2.84c0 0 6.58-6.12 9-6.09s5.15 6.77 5.15 6.77a7.11 7.11 0 018.31 2.72l-9.33 8m4.94 1.65s5.43 7.86 9.31 8.34" fill="none" stroke="#262521" stroke-linecap="round" stroke-linejoin="round" stroke-width=".9" stroke-dasharray="0.83 1.65"/><path d="M348.31 268.54a4 4 0 013.54 4.24c-.05 3.92-.7 9.06 3.38 8.87s7.07.53 7-3.84-3.42-6.26-4.42-3.45-3.08-2.3.56-5.69 9.18-4.84 13.41-1.25" fill="none" stroke="#262521" stroke-linecap="round" stroke-linejoin="round" stroke-width=".9" stroke-dasharray="0.83 1.65"/><path d="M368.88 261.83c-3.68-.29-13.22 1.93-14 8.51s.75 9 3.89 7.13M309 286.54s19.2-8.54 20.16-10.94c0 0 14.38 12.51 18.89 12.64" fill="none" stroke="#262521" stroke-linecap="round" stroke-linejoin="round" stroke-width=".9" stroke-dasharray="0.83 1.65"/><ellipse cx="311.33" cy="282.11" rx="3.31" ry="2.24" transform="rotate(-89.24 311.352 282.107)" fill="none" stroke-dasharray="0.83 1.65" stroke-linecap="round" stroke-linejoin="round" stroke-width=".9" stroke="#262521"/><ellipse cx="317.56" cy="278.85" rx="3.31" ry="2.24" transform="rotate(-89.24 317.577 278.85)" fill="none" stroke-dasharray="0.83 1.65" stroke-linecap="round" stroke-linejoin="round" stroke-width=".9" stroke="#262521"/><ellipse cx="324.4" cy="275.53" rx="3.31" ry="2.24" transform="rotate(-89.24 324.421 275.532)" fill="none" stroke-dasharray="0.83 1.65" stroke-linecap="round" stroke-linejoin="round" stroke-width=".9" stroke="#262521"/><ellipse cx="334.98" cy="276.48" rx="3.31" ry="2.24" transform="rotate(-89.24 334.993 276.484)" fill="none" stroke-dasharray="0.83 1.65" stroke-linecap="round" stroke-linejoin="round" stroke-width=".9" stroke="#262521"/><ellipse cx="341.16" cy="281.47" rx="3.31" ry="2.24" transform="rotate(-89.24 341.172 281.461)" fill="none" stroke-dasharray="0.83 1.65" stroke-linecap="round" stroke-linejoin="round" stroke-width=".9" stroke="#262521"/><ellipse cx="346.65" cy="284.85" rx="3.31" ry="2.24" transform="rotate(-89.24 346.666 284.853)" fill="none" stroke-dasharray="0.83 1.65" stroke-linecap="round" stroke-linejoin="round" stroke-width=".9" stroke="#262521"/><path fill="none" stroke="#262521" stroke-linecap="round" stroke-linejoin="round" stroke-width=".9" stroke-dasharray="0.83 1.65" d="M329.16 275.6l-.99-4.81 2.41-1.26 1.11 2.49-2.53 3.58zm31.04 9.4c9.18-2.07 2.07-7.22 2.07-7.22m.38-1.78s14 6.31-1.87 12.36m9.46.17s-.75 9.27-11.05 2.81M361 273.5s6-1.48 9.21 1.35m1.67 58.41l-14.99 18.11"/><path d="M356.47 286s-2.86 5.25-.07 5.28 6.42-4.45 2-8.57-10.75 2.18-10.32 5.51 4.58 18.73 13.41 19.31c3.31.22 6.72-1.42 9.7-3.55" fill="none" stroke="#262521" stroke-linecap="round" stroke-linejoin="round" stroke-width=".9" stroke-dasharray="0.83 1.65"/><path d="M370.46 293.69s-.8 7.3-6.09 6.61-4.28-6.74-4.28-6.74-4.84 5.75-4.85-3.08m8.96-18.03s2-6.38 5.68-3.62m-40.3 19.79s-6.55-6.2-6.63-.72 6.57 14.55 6.57 14.55 8.56-9.48 6.29-13.69-6.23-.14-6.23-.14z" fill="none" stroke="#262521" stroke-linecap="round" stroke-linejoin="round" stroke-width=".9" stroke-dasharray="0.83 1.65"/><path fill="none" stroke="#262521" stroke-linecap="round" stroke-linejoin="round" stroke-width=".9" stroke-dasharray="0.83 1.65" d="M327.91 290.12l-1.48 1.9 3.78 5.36 2.32-5.28m16.24 1.9s-8.35-1.86-9.07 6m-.02 1.45s-9.17 3.83-7.4 9.74a32 32 0 004.35 9.36s-3.14 9.42 6.1 11.25m12.34-28.53s-12.76 4.6-12.1 10.14 12.68 11.12 12.68 11.12"/><path d="M359 306.67s-9.78 2.07-9.62 6.82 5.09 7.61 8.67 6.11 15.73-10.73 15.73-10.73m-17.99 5.03s11.64-.68 16.11-7.57" fill="none" stroke="#262521" stroke-linecap="round" stroke-linejoin="round" stroke-width=".9" stroke-dasharray="0.83 1.65"/><circle cx="345.5" cy="299.96" r="2.38" fill="none" stroke="#262521" stroke-linecap="round" stroke-linejoin="round" stroke-width=".9" stroke-dasharray="0.83 1.65"/><circle cx="338.54" cy="310.23" r="2.38" fill="none" stroke="#262521" stroke-linecap="round" stroke-linejoin="round" stroke-width=".9" stroke-dasharray="0.83 1.65"/><circle cx="341.75" cy="324.34" r="2.38" fill="none" stroke="#262521" stroke-linecap="round" stroke-linejoin="round" stroke-width=".9" stroke-dasharray="0.83 1.65"/><path fill="none" stroke-dasharray="0.83 1.65" stroke-linecap="round" stroke-linejoin="round" stroke-width=".9" stroke="#262521" d="M347.96 319.9l-3.83 4.47m2.08-5.93l-2.77 3.55m-.47-8.58l-2.77-1.48m2.76.04l-2.05-1.7m7.24-4.3l-2.68-3.63m4 3.52l-1.59-4.3m-9.27 3.2s4.44.78 3.37 3.14m-5.88 6.94s1.94 2.44 4.14 1.17m-1.85 4.88s.68-2.23 3.59-1.5m.75 10.08s5.06-2.88 4.82-5.05m-5.83-21.81s-1.1 1.11 2.66 2.23m27.27 7.16s-14.76 13-19.29 15-11.21 7.37-11.21 7.37"/><circle cx="349.05" cy="337.72" r="2.38" fill="none" stroke="#262521" stroke-linecap="round" stroke-linejoin="round" stroke-width=".9" stroke-dasharray="0.83 1.65"/><circle cx="354.42" cy="352.88" r="2.38" fill="none" stroke="#262521" stroke-linecap="round" stroke-linejoin="round" stroke-width=".9" stroke-dasharray="0.83 1.65"/><circle cx="363.85" cy="360.61" r="2.38" fill="none" stroke="#262521" stroke-linecap="round" stroke-linejoin="round" stroke-width=".9" stroke-dasharray="0.83 1.65"/><path fill="none" stroke-dasharray="0.83 1.65" stroke-linecap="round" stroke-linejoin="round" stroke-width=".9" stroke="#262521" d="M371.48 318.41l-20.03 16.97m20.03-15.13l-20.06 17.5m20.23-12.46l-23.57 20.84m23.57-15.41l-14.72 17.7m14.88-8.77s-8.24 14.08-15.15 23.24m14.99-15.14l-6.47 10.89m6.47-7.18l-5.19 7.79m5.35-.79s-7 10.17-8.07 10.83"/><path d="M371.9 362.42s-13.78 21.37-17 22.88-4.88 3-7.75-.11-1-7.82-1-7.82m21.27-4.62s-.88 10.39 3.57 9.81m-17.81-35.17s-3.87-.26-3.3 3.06-1.23 7.69 1.27 8 6.52 1.39 7.2-3.15" fill="none" stroke="#262521" stroke-linecap="round" stroke-linejoin="round" stroke-width=".9" stroke-dasharray="0.83 1.65"/><path d="M372.65 314.13s-26.72 18.44-28.92 21.15-5.59 9.48-5.76 18-.81 21.45 4.78 20.64" fill="none" stroke="#262521" stroke-linecap="round" stroke-linejoin="round" stroke-width=".9" stroke-dasharray="0.83 1.65"/><path d="M118.89 221c-.35-5.7-6.31-10.45-6.31-10.45l8-1a.5.5 0 01.4-.22h.8v-23.54a12.62 12.62 0 01-1.56 1.7s-.52-4.63-3.6-5.5l-2.17 5.37s-1.07-16.24-15-18l1.38-3.1-3.93.39s5.76-16.3-17.29-12.85a12.47 12.47 0 00-1.09-3.08c-1-2-28.4 84.05-28.4 84.05l8 3.25 4.51-9.81s9.59 1 12-6.74c0 0 7.37-.21 6.2-2.91S75 214.92 75 214.92s-8.83-8.65-5.44-16 2.82 1.85 2.82 1.85 1.89 13.23 13.36 18.16 20.3-4.57 20.3-4.57 10.39 1.25 6.7 10.6c0 .04 6.5 1.69 6.15-3.96zm-41.35-39.42l.5-4.51 4.46-3.47-2.5-5.93-3.59 1-1.56-3.59a62.16 62.16 0 016.24-1.23c.46.13 2 7.7 6.7 8 .02.01-9.25 7.15-10.25 9.73z" fill="#e0e0e0"/><path d="M74.31 160.3s8.63-6.81 15.88-3.09 2.46 10.54.51 10.32-4.47-5.08-7.43-5.91a64.14 64.14 0 00-8.96-1.32z" fill="none" stroke="#262521" stroke-linecap="round" stroke-linejoin="round" stroke-width=".9" stroke-dasharray="0.83 1.65"/><path d="M83.16 158.93s7.26.85 8.23 3.62-8.23-3.62-8.23-3.62zM72 169.39a11 11 0 011.51 9.06 23.82 23.82 0 01-10.16 14m13.88-22.91l.81 7.53 2.32-5.15-3.13-2.38zm-1.06 14.14S73.76 193.46 58 199m31-27.45s4.78-2.77 6.87-2.53M66.43 195s-3.84 17.39 7.57 25.91m-5.08-20.03s-3.18 13.89 7.89 18.18M62.6 198.28s.45 21.38 4.44 22.5-.37 4.22-.37 4.22-3.7-8.35-4.86-15a101.36 101.36 0 00-2.36-10.62M58 206.12s6 17.62 5.41 19.12m-7.48-13.54l5.2 14.89m-6.07-.22a3 3 0 11-1.63 5.8m.82-2.9l1.49.42" fill="none" stroke="#262521" stroke-linecap="round" stroke-linejoin="round" stroke-width=".9" stroke-dasharray="0.83 1.65"/><path d="M53.79 223.49c1.57-.13 3.5 0 4.15 1.53 1.17 2.66 2.26 7 0 8.44s-6.39 2.72-7.85-.68M76.58 187s9.12-13.53 18-13.19 17.36 6.73 15.76 13.58-1.9 10.25-4.85 7.76l-3-2.49s2.88-.19 2.85-1.85-4.38-3.9-5.68-.45-.53 7.16 3.82 8.22 10.72-3.28 10.87-9.71c0 0 5.86.32 6.64-2.11" fill="none" stroke="#262521" stroke-linecap="round" stroke-linejoin="round" stroke-width=".9" stroke-dasharray="0.83 1.65"/><path d="M107.12 188.14c1.18-4.77-4.51-5.79-4.51-5.79s-5.72-9.07-12.27-1.21c0 0-6.94-1.39-8.21 7.55 0 0-6.2-1.73-7.31 4.5s1.26 20.5 10.94 23.23c13.72 3.88 21.83-5.24 20.7-10.06s-6.23-1.86-6.23-1.86 1.35 5.61-4.39 1.83 3.61-9.27 7.68-7.79 8.06 7.92 3.6 14.3c0 0 9.34.89 8.58 8.57" fill="none" stroke="#262521" stroke-linecap="round" stroke-linejoin="round" stroke-width=".9" stroke-dasharray="0.83 1.65"/><path d="M98.56 207.6s2.72 3.59-6.25 4.71-9.72-8.39-9.72-8.39c-12.18-9.74 4.36-14 4.36-14 2.8-8.5 10.79-4.38 10.79-4.38 2.2-1.33 5.07 1.43 5.07 1.43m-3.11 3.35s-18.36 2-5.47 12.24m4.99-8.21s-10.36.25-1.41 5m-2.03-11.79s-4.11-1.16-5.33 2" fill="none" stroke="#262521" stroke-linecap="round" stroke-linejoin="round" stroke-width=".9" stroke-dasharray="0.83 1.65"/><path d="M89.76 190.84s-8.52 1.3-5.14 7.29c0 0-2.51 6.12 3.49 8.16s6.28-1.38 6.28-1.38M87.78 199s.37 5.81 3.41 4.67M87 208.16s1.28 3.68 6.25.77m1.23-25.22s4.18-3.55 3.26 1.79m9.37 12.85s6.56-.43 13.45-1.53m.52-2.94a30.82 30.82 0 01-8.19.89m1.79-2.71s3-1 6.07-2.36M109.17 208s6.66-1.05 12.72-2.34" fill="none" stroke="#262521" stroke-linecap="round" stroke-linejoin="round" stroke-width=".9" stroke-dasharray="0.83 1.65"/><ellipse cx="112.53" cy="204.28" rx="3.31" ry="2.24" transform="rotate(-74.24 112.535 204.28)" fill="none" stroke-dasharray="0.83 1.65" stroke-linecap="round" stroke-linejoin="round" stroke-width=".9" stroke="#262521"/><ellipse cx="119.39" cy="202.74" rx="3.31" ry="2.24" transform="rotate(-74.24 119.402 202.743)" fill="none" stroke-dasharray="0.83 1.65" stroke-linecap="round" stroke-linejoin="round" stroke-width=".9" stroke="#262521"/><path d="M427.3 182.75c-2.11 5.64-9.44 19.31-9.44 19.31s14.75 14.07 15.72 17 5.35 3.92 6.67 2.61" fill="none" stroke="#262521" stroke-linecap="round" stroke-linejoin="round" stroke-width=".9" stroke-dasharray="0.83 1.65"/><path d="M427.72 188.41c-3.42 9.51-4.86 11.46-4.86 11.46s12.55 18.62 14.74 19a9.13 9.13 0 004-.23" fill="none" stroke="#262521" stroke-linecap="round" stroke-linejoin="round" stroke-width=".9" stroke-dasharray="0.83 1.65"/><path fill="none" stroke="#262521" stroke-linecap="round" stroke-linejoin="round" stroke-width=".9" stroke-dasharray="0.83 1.65" d="M429.53 197.78l4.08.12 1.89 3.15-5.11.29-.86-3.56zM411 168.28s12.72 13.41 17.14 12.63m-1.67 3.65c-5.1.57-15.89-11.63-15.89-11.63l-2.39 4s14.62 9.22 17.45 9.39m-22.27-9.56l21.12 11.98m-25.23 4.37l23.24.49"/><circle cx="401.97" cy="185.05" r="2.63" fill="none" stroke="#262521" stroke-linecap="round" stroke-linejoin="round" stroke-width=".9" stroke-dasharray="0.83 1.65"/><circle cx="397.7" cy="202.51" r="2.63" fill="none" stroke="#262521" stroke-linecap="round" stroke-linejoin="round" stroke-width=".9" stroke-dasharray="0.83 1.65"/><circle cx="405.77" cy="218.92" r="2.63" fill="none" stroke="#262521" stroke-linecap="round" stroke-linejoin="round" stroke-width=".9" stroke-dasharray="0.83 1.65"/><path fill="none" stroke-dasharray="0.83 1.65" stroke-linecap="round" stroke-linejoin="round" stroke-width=".9" stroke="#262521" d="M400.36 212.49l22.56-5.48m-5.06-4.95l-17.53.3m.8-2.28l16.62.18M404.6 184.9l17.8 6.89-17.69-4.87"/><path d="M407.15 183.14s-3.75-3.23-6.2-2.65-4.34 2.84-4.23 4.86 1.47 6.69 5.6 5.64m-2.26 6.76s-6.27-1-6.71 2.09c0 0-3.6 4.94-.61 5.59 0 0 6.18 7.53 10.37-.59m5.19 12.17l16.59-8.02" fill="none" stroke="#262521" stroke-linecap="round" stroke-linejoin="round" stroke-width=".9" stroke-dasharray="0.83 1.65"/><path d="M392.18 195.72s-3.73 5.27-3.93 7.33 4.91 9.85 4.91 9.85" fill="none" stroke="#262521" stroke-linecap="round" stroke-linejoin="round" stroke-width=".9" stroke-dasharray="0.83 1.65"/><path d="M390 195.84s-6.14 6.57-5.2 9.54 5.53 7 5.53 7m18.53 14.53l16.87-16.53-17.33 8.39" fill="none" stroke="#262521" stroke-linecap="round" stroke-linejoin="round" stroke-width=".9" stroke-dasharray="0.83 1.65"/><path d="M406.25 213.81s-5.5 1.45-5.07 3.6c0 0-.69 9.57 3.07 7.38 0 0 6.67-1.38 6.36-4.16m18.53-7.2l-16.44 14.78 4.94 3.17S423.31 220 430 214.73m2.81 3.03s-12.14 9.05-13 18.21m14.84-12.91s-8.85 9.28-8.68 20.58 8.63 15.45 8.63 15.45" fill="none" stroke="#262521" stroke-linecap="round" stroke-linejoin="round" stroke-width=".9" stroke-dasharray="0.83 1.65"/><path d="M442.23 229.2s-3.08-2.39-5.26-2.38-4.51 10.7-4.51 10.7-4.5.57-2.63 5.9 5.06 12.29 5.06 12.29l3.1-.18s2.7 6.5 6.05 5.4" fill="none" stroke="#262521" stroke-linecap="round" stroke-linejoin="round" stroke-width=".9" stroke-dasharray="0.83 1.65"/><path d="M433.21 262.4s5.7 1.52 6-3.57c0 0 4.86 22.44 9.41 23.11m-6.83-46.81s-3.32-6.54-5.28-.11m-4.39 8.27c1.28 2.57 1.8 3.93 1.8 3.93l3-5.14s1.51-.39 1.92-.11m5.71.61s-4.81-5.26-7.84-4m1.35 10.06s-.53 9.71 6.44 6.68m-3.5-8.5s5.69 2.63 2.52 4.28l-3.3-1.13m3.18 13.38s1.72 11.14 4.87 11.84m-16.84 2.15s.05-2.49 4.57-2.28m-.53-9.14s.27 5.74-4.19 8.63m-49.13 26.54a7.24 7.24 0 014-1c6.68.09 14.16 8.67 19.11 19.26s11.89 31.46 17.18 34.42m-18.39-42.57s3.94 3.79 7.24 15.33 13.19 27.14 13.19 27.14m13.47-80.74l3.95 7.23m-2.61 3.72s-2.81-7-5.09-4.06-6.4 12.18-6.4 12.18 4.9 10.28 7.29 8.28m-8.89-6.34s4.65 2.53 4.14 10m6.3-1.28s-.87 4.87-6.31-1.19" fill="none" stroke="#262521" stroke-linecap="round" stroke-linejoin="round" stroke-width=".9" stroke-dasharray="0.83 1.65"/><path d="M436.57 285.12s-6.1 2.05-5.73 5.76 3.27 6.18 3.93 3.81 1.33-6.25-.28-4.85m5.03-1.94s1.13 4-.34 6.54m4.07-7.37s-.37.64-1.13 6-5.15 7.28-4.41 12.06m7.49-4.51l-4.04-2.41m4.14-1.5l-4.08-.68m5.21-6.87l-3.02.17m3.33-4.17a99.25 99.25 0 014.67 23.34m-3.56-8.03s-4.14 7.22-3.89 12.64m-9.32-8.61s1.11 8.93.36 11.3m-29.35-2.52c-1-11.59 10.92-8.54 10.92-8.54s1.5-6.3 4.69-7.57 7.19 3.7 7.19 3.7l.42 7.5s3.72-4.72 4.84 9l-5.8 6.47s-2.37-8.87-6.63-7.23-8.28 14.83-8.28 14.83" fill="none" stroke="#262521" stroke-linecap="round" stroke-linejoin="round" stroke-width=".9" stroke-dasharray="0.83 1.65"/><circle cx="422.58" cy="304.4" r="1.99" fill="none" stroke="#262521" stroke-linecap="round" stroke-linejoin="round" stroke-width=".9" stroke-dasharray="0.83 1.65"/><circle cx="411.16" cy="312.97" r="1.99" fill="none" stroke="#262521" stroke-linecap="round" stroke-linejoin="round" stroke-width=".9" stroke-dasharray="0.83 1.65"/><circle cx="392.46" cy="332.61" r="1.99" fill="none" stroke="#262521" stroke-linecap="round" stroke-linejoin="round" stroke-width=".9" stroke-dasharray="0.83 1.65"/><path d="M407.46 311.18s2.33-5.43 7.62-2.63m11.56-6.87s-5.83-4.29-7.8 2.09m4.56 10.52l-.71-7.91m-9.43 8.49l3.59 5.69m-5.58-5.61l4.58 7.07m8.05-16.15l1.36 10.49m6.85 16.38c.48-10.28 6.85-5.67 6.85-5.67s-3.62 7.35 1.08 5.21 5.51-12.42 1.74-13.14-10.18-1.4-13.49 11.42a28.4 28.4 0 003 21.95" fill="none" stroke="#262521" stroke-linecap="round" stroke-linejoin="round" stroke-width=".9" stroke-dasharray="0.83 1.65"/><path d="M416.6 335.33s4.44-12.06 6.14-12.15 5.55 7.38 5.55 7.38m-5.93.87s-1.41 13 4.06 18.56m4.5-38.15a21.33 21.33 0 01-1.56 5.06m31.27 1.59s-17.35-2.12-16.64 7.34 8 6.39 7.26 1.62m-2.63.15s-2.78-6.54 12.19-4.11M441.75 331s2.18 8.29 5.23.84" fill="none" stroke="#262521" stroke-linecap="round" stroke-linejoin="round" stroke-width=".9" stroke-dasharray="0.83 1.65"/><path d="M440 332.28s-1.15 8 5.38 6.37 4.21-6.91 4.21-6.91" fill="none" stroke="#262521" stroke-linecap="round" stroke-linejoin="round" stroke-width=".9" stroke-dasharray="0.83 1.65"/><path d="M436.6 335.38s2.63 8.37 8.37 7.65c7.72-1 11.3-19.85 11.3-19.85" fill="none" stroke="#262521" stroke-linecap="round" stroke-linejoin="round" stroke-width=".9" stroke-dasharray="0.83 1.65"/><path d="M434.59 332.75s-6.95 8.69 1.26 10.83c0 0 1.7 17.42 9.75 5.31 0 0 7.78 5.08 7.79-5.72 0 0 4.36 3.14 3.39-5.89 0 0 7.85-4.22 2.2-11.16" fill="none" stroke="#262521" stroke-linecap="round" stroke-linejoin="round" stroke-width=".9" stroke-dasharray="0.83 1.65"/><path fill="none" stroke="#262521" stroke-linecap="round" stroke-linejoin="round" stroke-width=".9" stroke-dasharray="0.83 1.65" d="M440.57 344.68l.15 2.63 2.12-1.31m4.89-.97l1.97 1.77-.15-2.63m-15.37-5.6l2.06 1.46M431 346s7.18 19.48 25.84 3.5m-8.52-40.83l.34 10.12m-17.11 36.55s-8.93-6.44-17.72 4.39-2.26 23.41-2.26 23.41m7.53 7.09a15 15 0 0115.65 5.71"/><path fill="none" stroke="#262521" stroke-linecap="round" stroke-linejoin="round" stroke-width=".9" stroke-dasharray="0.83 1.65" d="M421.95 391.75l.54 9.35 4.85-4.73 2.77 5.05 1.47-8.72m6.82-30.07s.39 2 1.16 4.62c1.2 4.06 3.33 9.57 6.35 11.11"/><path fill="none" stroke="#262521" stroke-linecap="round" stroke-linejoin="round" stroke-width=".9" stroke-dasharray="0.83 1.65" d="M444.56 376.19l8.13-4.22-4.77-3.11.86-5.49-9.22 3.88"/><circle cx="425.84" cy="372.19" r="10.12" fill="none" stroke="#262521" stroke-linecap="round" stroke-linejoin="round" stroke-width=".9" stroke-dasharray="0.83 1.65"/><path fill="none" stroke="#262521" stroke-linecap="round" stroke-linejoin="round" stroke-width=".9" stroke-dasharray="0.83 1.65" d="M423.94 366.85l.24 4.21-3.39.19m6.64-3.49l.21 3.57 2.97-.17m-9.63 3.56l3.39-.2.2 3.56m3.44-.2l-.2-3.55 2.71-.16"/><path d="M457.67 382.76s-13.77 5.11-17.5-4.82-5.06-22.62-14.28-20-16.7 8.34-13.73 19.08 16 10.45 19.43 11.38 9.14 8.12 9.09 14.32m-4.44-17.04l1.39-4.03m-4.45 2.23l8.06-.46" fill="none" stroke="#262521" stroke-linecap="round" stroke-linejoin="round" stroke-width=".9" stroke-dasharray="0.83 1.65"/><circle cx="442.66" cy="388.12" r="2.8" fill="none" stroke="#262521" stroke-linecap="round" stroke-linejoin="round" stroke-width=".9" stroke-dasharray="0.83 1.65"/><path fill="none" stroke-dasharray="0.83 1.65" stroke-linecap="round" stroke-linejoin="round" stroke-width=".9" stroke="#262521" d="M455.82 385.87l3.41 5.26m-16.41-.22l2.17 5.34 8.71 1.76-.44-7.69-7.8-2.36"/><path fill="none" stroke="#262521" stroke-linecap="round" stroke-linejoin="round" stroke-width=".9" stroke-dasharray="0.83 1.65" d="M447.52 394.04l3-.17-1.63-2.15m-58.75-9.07s6.66-13.34 18 .68M393 358.46s9.91 7.79 15.19 14.73m-18.62-3.99l5.11 2.22m-5.43 2.75s14.95 1.5 12.58-.61-9.89-9.79-9.89-9.79m-1.32 27.31l5.16-.29s.31-5.08 3.53-5 3.76 5.79 3.76 5.79 5.19-2.45 5.7 2.4-3.74 7.91-3.74 7.91 5.37 1.76 4.52 5.75-11.19.64-11.19.64m-6.27-7.9s4.23-1.6 2.63 9.88m-.2-11.13s1.25-.92 1.42-5.54m1.77 3.29s7.77 4.07-1.21 6.46"/><path d="M390.35 386.32s4.3-6.16 8.69-5.28 18.15 8.66 14 28.17m-18.93-87.31s.41 3 7.25 15.67a91.1 91.1 0 0014.35 20.11m-13.57-31.34s9.62 26.23 16.69 28.9m-29.58-14.56s14.94 22.65 21.3 24.7m-20.9-17.8s11.8 19.39 18.29 21.29M391.27 327s-3.4 1.75-3.39 3.92m25.95 28.81c-3.56-.17-18.94-24-18.94-24m-2.19.96S406 360.54 412 361.9m39.41-105.65s-7.05 16.26 4.86 25.69m2.96 9.23l-5.53-2s-.27 20.89 6.93 25" fill="none" stroke="#262521" stroke-linecap="round" stroke-linejoin="round" stroke-width=".9" stroke-dasharray="0.83 1.65"/><path d="M372.14 291.56q-.27 61.72-.62 123.46c-.81 9-2.68 16.41-3.55 25.44-1 10.07 1.34 17.05-1.5 25.64-.59 1.76-2 1.66-3.35 1.43-44.59-7.74-101.66-5.72-146.65-2.92-24.6.57-58.62-1.68-83 2.09-5.23.59-5.68.27-6.62-4.83-1.35-11.26 1.94-18.53.53-29.31-6.15-46.81-1.39-94.37-3.6-141.53-1.42 2.83-2.94 5.6-4.29 8.46-2.37 10.68-17.5 9.3-11.81 16.18 11.11 7.95 6.41 21.38 5.15 32.56-.25 3.15-1.35 6.27-.37 9.58.51 8.44-3.19 16.94-4.38 25.31-1.5 8-2.61 15.83-1.54 23.93a5.1 5.1 0 01-1.13 3.3c-5.71 6.28-7.75 14-9.19 22.06-.57 3.18-.61 3-3.74 2-12.38-3.52-26.09-4.38-38.6-1.18-1.39.34-2.11 0-2.41-1.47-2-7.76-2.18-16.67-8.49-22.43a6.62 6.62 0 01-1.33-3.21A144.54 144.54 0 0139 372.86c-1.91-63 2.6-126.93 26.19-186 13.61-35.43 24.56-73.32 48.07-103.67 27.32-18.2 60-23.76 90.46-34.78a3.16 3.16 0 012.72.43c5 5.55 11.46 8.41 18.56 9.67 19.19 2.43 41.29 5.55 58.65-4.88 2.85-1.27 4.2-6.53 7.87-5 29.12 10.49 61 14.41 87.44 31.58 15.94 14.59 21.63 38 30.45 57.21 27.81 67.48 58 137.39 51.05 212.08-1.19 18.65-.23 37.45-3.28 55.95-.49 4.66-5.21 7.1-5.56 11.78-1.22 5.28-2.08 10.65-2.91 16-.4 2.6-.41 2.83-3.08 2.33-12.48-2.66-25.26-5.49-37.8-1.58-8.34-.15-8.13-15.56-11.44-21.4-6.28-7.37-3.61-9-5.33-17.64-.9-9.7-4.68-20.27.79-29.26 2-3.53 1.86-7.05.51-10.66-4.9-11.28-7.4-23.41-10.45-35.29-1.07-4.3-1.31-8.49 1.61-12.34 1.51-7.23-10.43-8.68-10.93-15.92z" fill="none" stroke="#262521" stroke-linecap="round" stroke-linejoin="round" stroke-width="3"/><path d="M122.35 173.14s1.56 35.48-.55 51.11.11 29.7.11 32.88 1.9 33.06 1.9 33.06m246.56-113.96s5.79 71.93 0 100" fill="none" stroke="#262521" stroke-linecap="round" stroke-linejoin="round" stroke-width="3"/><path d="M204.41 48.28s4 48.55 43.68 46.73 42.84-45.41 42.84-45.41" fill="none" stroke="#636363" stroke-linecap="round" stroke-linejoin="round"/><path d="M122.35 173.14s1.56 35.48-.55 51.11.11 29.7.11 32.88 1.9 33.06 1.9 33.06m246.56-113.96s5.79 71.93 0 100" fill="none" stroke="#262521" stroke-linecap="round" stroke-linejoin="round" stroke-width="3"/><path d="M372.14 291.56q-.27 61.72-.62 123.46c-.81 9-2.68 16.41-3.55 25.44-1 10.07 1.34 17.05-1.5 25.64-.59 1.76-2 1.66-3.35 1.43-44.59-7.74-101.66-5.72-146.65-2.92-24.6.57-58.62-1.68-83 2.09-5.23.59-5.68.27-6.62-4.83-1.35-11.26 1.94-18.53.53-29.31-6.15-46.81-1.39-94.37-3.6-141.53-1.42 2.83-2.94 5.6-4.29 8.46-2.37 10.68-17.5 9.3-11.81 16.18 11.11 7.95 6.41 21.38 5.15 32.56-.25 3.15-1.35 6.27-.37 9.58.51 8.44-3.19 16.94-4.38 25.31-1.5 8-2.61 15.83-1.54 23.93a5.1 5.1 0 01-1.13 3.3c-5.71 6.28-7.75 14-9.19 22.06-.57 3.18-.61 3-3.74 2-12.38-3.52-26.09-4.38-38.6-1.18-1.39.34-2.11 0-2.41-1.47-2-7.76-2.18-16.67-8.49-22.43a6.62 6.62 0 01-1.33-3.21A144.54 144.54 0 0139 372.86c-1.91-63 2.6-126.93 26.19-186 13.61-35.43 24.56-73.32 48.07-103.67 27.32-18.2 60-23.76 90.46-34.78a3.16 3.16 0 012.72.43c5 5.55 11.46 8.41 18.56 9.67 19.19 2.43 41.29 5.55 58.65-4.88 2.85-1.27 4.2-6.53 7.87-5 29.12 10.49 61 14.41 87.44 31.58 15.94 14.59 21.63 38 30.45 57.21 27.81 67.48 58 137.39 51.05 212.08-1.19 18.65-.23 37.45-3.28 55.95-.49 4.66-5.21 7.1-5.56 11.78-1.22 5.28-2.08 10.65-2.91 16-.4 2.6-.41 2.83-3.08 2.33-12.48-2.66-25.26-5.49-37.8-1.58-8.34-.15-8.13-15.56-11.44-21.4-6.28-7.37-3.61-9-5.33-17.64-.9-9.7-4.68-20.27.79-29.26 2-3.53 1.86-7.05.51-10.66-4.9-11.28-7.4-23.41-10.45-35.29-1.07-4.3-1.31-8.49 1.61-12.34 1.51-7.23-10.43-8.68-10.93-15.92z" fill="none" stroke="#262521" stroke-linecap="round" stroke-linejoin="round" stroke-width="3"/></svg>