<svg xmlns="http://www.w3.org/2000/svg" width="500" height="550" viewBox="0 0 500 550"><path d="M400.5 462.47s-1.14 13.23 1.14 15.52 50.19 1.82 53.15 0 1.14-19.17 1.14-19.17m-408.15.72s-1.14 13.23 1.14 15.51 50.18 1.83 53.15 0 1.14-19.16 1.14-19.16" fill="#fff" stroke="#262521" stroke-linecap="round" stroke-linejoin="round" stroke-width="3"/><path d="M307.52 55.16S293 38.7 273.26 38.7L226 37.85c-19.78 0-41 18.37-41 18.37l20.6 32.3h85.94z" fill="#262521" stroke="#262521" stroke-linecap="round" stroke-linejoin="round" stroke-width="3"/><path d="M277.92 31.37c-39.41-8.24-62.34 0-62.34 0l27.33 55.09z" fill="#fff" stroke="#262521" stroke-linecap="round" stroke-linejoin="round" stroke-width="3"/><path fill="#fff" stroke="#262521" stroke-linecap="round" stroke-linejoin="round" stroke-width="3" d="M285.2 47.74l61.56 28.1L247.97 275 150.44 70.61l58.09-22.87"/><path fill="none" stroke="#636363" stroke-linecap="round" stroke-linejoin="round" d="M240.28 72.09v160.54"/><path d="M215.58 31.37S231.44 54 246 65.13l-31.4 21.33s-12.33-34.13-8.44-41.67a66.81 66.81 0 019.42-13.42zm62.34 0S262.06 54 247.47 65.13l31.42 21.33s13.93-33 10-40.56-10.97-14.53-10.97-14.53z" fill="#fff" stroke="#262521" stroke-linecap="round" stroke-linejoin="round" stroke-width="3"/><circle cx="246.92" cy="170" r="3.08" fill="none" stroke="#636363" stroke-linecap="round" stroke-linejoin="round"/><circle cx="246.92" cy="117.81" r="3.08" fill="none" stroke="#636363" stroke-linecap="round" stroke-linejoin="round"/><path d="M248.85 237.88c-20.26-28.18-49.25-182-46.65-188.82-30.43 11-58.82 15.92-86.15 34.12-23.5 30.35-34.46 68.24-48.05 103.68-23.59 59.07-28.11 123-26.19 186-.36 11.19.74 88 2.77 95.75.3 1.48 62.69 2.66 63.26-.51 1.45-8 2.86-169.64 5.23-180.31 1.35-2.86 13.78-67 15.19-69.81 2.21 47.15-8.87 215.9-1.17 247.91.5 2.06 93.73 19.49 110.48-1.4S248.85 261 248.85 237.88z" fill="#262521" stroke="#262521" stroke-linecap="round" stroke-linejoin="round" stroke-width="3"/><path d="M457.2 336.13c-2.15-75.82-17.9-126.54-45.71-194C402.66 122.88 397 99.48 381 84.9c-26.38-17.18-58.6-25.14-87.72-35.64-3.67-1.53-11.92 131.56-44.46 188.62 0 26.15-.55 213.7 15.16 230s114.41 2.05 114.58 1.44c6.89-23.52-11.52-249.35-11.38-249.37.51 7.24 17.36 62 19.83 69 2.65 7.45 8.93 176.4 11.53 180.22 3.78 5.55 60 6 60 .14.06-5.5-.82-114.49-1.34-133.18z" fill="#262521" stroke="#262521" stroke-linecap="round" stroke-linejoin="round" stroke-width="3"/><path fill="#fff" d="M294.78 171.2l6.33-14.24 35.71 4.41.63 3.9 13.22 5.93h-55.89z"/><path d="M248 237.56c-7.43 20.92 2.33 124.82 2.33 143.27m58.01-323.74l22.36 21.37-24.81 8 18.25 12s-36.8 106-71.86 145.45M187.16 57.62l-20 20.57 23.33 7.27-16 11.91s42.74 111.87 66.14 132.82" fill="none" stroke="#636363" stroke-linecap="round" stroke-linejoin="round"/><path fill="none" stroke="#636363" stroke-linecap="round" stroke-linejoin="round" d="M294.78 171.2h58.41v14.24h-65.12"/><circle cx="252.35" cy="257.98" r="3.22" fill="none" stroke="#636363" stroke-linecap="round" stroke-linejoin="round"/><circle cx="254.06" cy="333.41" r="3.22" fill="none" stroke="#636363" stroke-linecap="round" stroke-linejoin="round"/><path d="M364.14 369.53h-58.72a6.92 6.92 0 01-6.9-6.89v-8.84c0-3.79 72.52-3.79 72.52 0v8.84a6.92 6.92 0 01-6.9 6.89zm-166.35 0h-58.72a6.92 6.92 0 01-6.9-6.89v-8.84c0-3.79 72.52-3.79 72.52 0v8.84a6.92 6.92 0 01-6.9 6.89z" fill="none" stroke="#636363" stroke-linecap="round" stroke-linejoin="round"/><path d="M240.73 82.46c-4.17 28.11-21.62 29.8-21.62 29.8C203 94.42 210.23 64 210.23 64c12.81-3 32.22 7.49 32.22 7.49s6.44-2.51 10 0c0 0 19.41-10.5 32.22-7.49 0 0 7.2 30.43-8.88 48.27 0 0-17.45-1.69-21.62-29.8a11.38 11.38 0 01-13.48 0z" fill="#b67284" stroke="#262521" stroke-linecap="round" stroke-linejoin="round" stroke-width="3"/><path d="M255.05 76.67s5.62-2.4 7.45 0m-23.44.63a10.54 10.54 0 00-8.68 0" fill="none" stroke="#262521" stroke-linecap="round" stroke-linejoin="round"/><path d="M273.58 78.37a21.44 21.44 0 00-3.11 2.34c-.35.33-1.84 1.85-.9 2.09.48.12 1.32-.33 1.75-.5.66-.29 1.31-.62 1.95-1a13.27 13.27 0 013.26-1.42 1 1 0 011.27 1 1.85 1.85 0 00.16.58 4.53 4.53 0 014.12-2 17.13 17.13 0 014.22 1.18 80.79 80.79 0 00-.52-10 2.4 2.4 0 00-.28 0 3.21 3.21 0 00-2 2.4 1 1 0 01-1.47.59c-1.32-.92-2.46-2.27-3.85-3.12a9.64 9.64 0 00-.4 1.92 1 1 0 01-1.27 1c-2-.54-3.93-1.42-5.94-2a2.81 2.81 0 01-1.71 2.7l-.37.23c.25.23.63.73.81.86a10 10 0 004 1.32c.95.16.93 1.4.28 1.83zm-51.78-8.72c-.73 0-1.42 1.14-1.8 1.65-1.07 1.45-2 3.51-3.86 4.13a1 1 0 01-1.23-.7c-.38-1-1-2.1-2.16-2.28a5.33 5.33 0 00-3 .74c-.3.15-.58.32-.87.49a75.65 75.65 0 000 12.58 8.52 8.52 0 004.54 2.16 4 4 0 003.13-.72 4.87 4.87 0 001.33-3.76 1 1 0 011.26-1c1.84.3 6 1.08 6.69-1.39.51-1.88-2.2-2.44-3.1-3.64-1.45-2 .23-4.45.31-6.54.07-.64-.37-1.77-1.24-1.72z" fill="#262521" stroke="#262521" stroke-linecap="round" stroke-linejoin="round" stroke-width="3"/><path d="M253.88 74.61s2.6 2.78.33 7.85m-14.41-7.85a10.81 10.81 0 00.93 7.85m14.41-3.93s3.47-.69 4.37 1.31m-20.06-.78s-2.89-.86-4.73.07" fill="none" stroke="#262521" stroke-linecap="round" stroke-linejoin="round"/><path d="M301.62 117.07c-.49-.61-6.62-2-8.83-1.49s-1.29 2.11-.05 2c.45-.06 1-.1 1.51-.12v2.92c-.11 2-1.63 1.07-1.6 1.47s.5.61.88.61h.06a2.57 2.57 0 00.66-.14v4.55c-.52 0-2.39.4-2.39.76s1.58.06 3.58.29a17.52 17.52 0 013.92 1.12c.75.15-.26-.83-.26-.83a3.9 3.9 0 002.27-.84l.25-.23-.19-9.32s.67-.13.19-.75zm-1.62 3.07a3.88 3.88 0 01-4.23 0v-2.71c1.72 0 3.44.32 4.19 1zm0 .84l.05 2a4.58 4.58 0 00-4.29-.08v-2a5.12 5.12 0 002.24.56 4.32 4.32 0 002-.46zm-4.24 5.85v-3a3.88 3.88 0 014.3.07l.06 2.52a15.52 15.52 0 01-4.37.41z" fill="#d7b98a"/></svg>