<svg xmlns="http://www.w3.org/2000/svg" width="500" height="550" viewBox="0 0 500 550"><path d="M372.14 291.55q-.27 61.74-.62 123.47c-.81 9-2.68 16.41-3.55 25.44-1 10.07 1.34 17.05-1.5 25.63-.59 1.77-2 1.67-3.35 1.44-44.59-7.74-101.66-5.72-146.65-2.92-24.6.57-58.62-1.68-83 2.09-5.23.59-5.68.27-6.62-4.83-1.35-11.26 1.94-18.53.53-29.31-6.15-46.82-1.39-94.37-3.6-141.53-1.42 2.83-2.94 5.6-4.29 8.46-2.37 10.67-17.5 9.3-11.81 16.18 11.11 7.95 6.41 21.38 5.15 32.56-.25 3.15-1.35 6.27-.37 9.58.51 8.44-3.19 16.94-4.38 25.31-1.5 8-2.61 15.83-1.54 23.93a5.1 5.1 0 01-1.13 3.3c-5.71 6.28-7.75 14-9.19 22.06-.57 3.18-.61 3-3.74 2-12.38-3.52-26.09-4.38-38.6-1.18-1.39.34-2.11 0-2.41-1.47-2-7.76-2.18-16.67-8.49-22.43a6.62 6.62 0 01-1.33-3.22A144.46 144.46 0 0139 372.86c-1.91-63 2.6-126.93 26.19-186 13.61-35.43 24.56-73.32 48.07-103.67 27.32-18.2 60-23.76 90.46-34.78a3.16 3.16 0 012.72.43c5 5.55 11.46 8.41 18.56 9.67 19.19 2.43 41.29 5.55 58.65-4.88 2.85-1.27 4.2-6.53 7.87-5 29.12 10.49 61 14.41 87.44 31.58 15.94 14.59 21.63 38 30.45 57.21 27.81 67.48 58 137.39 51.05 212.08-1.19 18.65-.23 37.45-3.28 55.95-.49 4.66-5.21 7.1-5.56 11.78-1.22 5.28-2.08 10.65-2.91 16-.4 2.6-.41 2.83-3.08 2.33-12.48-2.66-25.26-5.49-37.8-1.58-8.34-.15-8.13-15.56-11.44-21.4-6.28-7.37-3.61-9-5.33-17.64-.9-9.7-4.68-20.27.79-29.26 2-3.53 1.86-7.05.51-10.66-4.9-11.28-7.4-23.41-10.45-35.29-1.07-4.3-1.31-8.49 1.61-12.34 1.51-7.23-10.43-8.68-10.93-15.93z" fill="#262521" stroke="#262521" stroke-miterlimit="10" stroke-width="3"/><path d="M203.68 50.9s4.7 45.92 44.37 44.1 43.43-43.87 43.43-43.87" fill="none" stroke="#636363" stroke-linecap="round" stroke-linejoin="round"/><path fill="#262521" d="M153.37 145.32h85.22v3.21h-85.22z"/><path fill="#262521" d="M212.68 143.65l-4.12 6.12 3.79.45 3.82-5.47-3.49-1.1z"/><path fill="#fff" d="M172.46 98.4l30.12-20.02 8.95 10.37-37.59 15.93-1.48-6.28zM162.49 60.74l-5.02 22.28 4.96.65 16.32-27.69-16.26 4.76zM125 76.22l15.94 10.18-4.47 2.27-22.18-7.4L125 76.22zM172.24 117.42l-1.83 2.54L213 133.01l2.37-9.77-43.13-5.82zM161.69 126.32l2.97-.93 20.51 32.72-12.55 7.13-10.93-38.92zM150.12 125.91l2.8.37-4.07 31.25-8.63-1.12 9.9-30.5zM92.1 116.87s-10.77 25.67-12.76 30.23l32.12-27.33.78-14.37zM117.94 151.12l-23.5 85.21 24.22 1.65 4.12-84.6-4.84-2.26zM169.25 227.22l15.67-11.25 34.71 31.92-26.5 22.71-23.88-43.38zM322.81 98.4l-30.12-20.02-8.95 10.37 37.6 15.93 1.47-6.28zM332.59 59.89l5.22 23.13-4.96.65-16.33-27.69 16.07 3.91zM372.27 74.95L354.34 86.4l4.46 2.27 22.18-7.4-8.71-6.32zM323.03 117.42l1.83 2.54-42.58 13.05-2.37-9.77 43.12-5.82zM333.59 126.32l-2.97-.93-20.51 32.72 12.55 7.13 10.93-38.92zM345.15 125.91l-2.8.37 4.08 31.25 8.62-1.12-9.9-30.5zM400.83 115.53L383 105.4l.78 14.37 29.42 25c-.54-1.84-10.49-24.14-12.37-29.24zM377.33 151.12l23.5 85.21-24.21 1.65-4.13-84.6 4.84-2.26zM326.03 227.22l-15.67-11.25-34.89 32.07 26.57 22.75 23.99-43.57z"/><path fill="#262521" d="M341.9 148.53h-85.22v-3.21h85.22z"/><path fill="#262521" d="M282.6 143.65l4.12 6.12-3.79.45-3.82-5.47 3.49-1.1z"/><path fill="none" stroke="#494949" stroke-linecap="round" stroke-linejoin="round" d="M169.61 121.36l44.76 14.78-13.53 18.48-32.18-31.95.95-1.31zM173.43 112.48l42.51-6.95-.57 15.33-42.16-5.37.22-3.01zM174.56 106.36l38.14-15.77 2.67 12.05-41.13 7.65.32-3.93zM167.17 124.25l27.37 27.91-7.1 4.68-21.43-31.95 1.16-.64zM158.06 127.04h2.07l9.04 33.72-10.49.98-.62-34.7zM154.5 126.65h1.5l.06 31.57-5.37-.69 3.81-30.88zM169.41 91.03l2.61 4.95 29.34-19.56-9.35-10.82-22.6 25.43zM164.19 84.84l3.42 4.3 22.57-24.79-11.43-5.52-14.56 26.01zM149.01 83.67l6.5-.89 4.69-20.33-15.24 4.96 4.05 16.26zM128.15 74.62l14.47-6.32 5 15.86-5.1 1.67-14.37-11.21zM146 93.5c-3.59 3-6.38 7-6.38 12A14.48 14.48 0 10154.06 91v-4.23s-9.52.44-16.17 5.81l-10.28-1-.87 8.91 8.71 1v-2.15l-6.24-.67.43-5.17 9.14 1s7.4-5 12.77-5.32l.14 2.39S148 91.8 146 93.5z"/><circle cx="154.06" cy="105.4" r="11.9" fill="none" stroke="#494949" stroke-linecap="round" stroke-linejoin="round" stroke-width=".82"/><path fill="none" stroke="#494949" stroke-linecap="round" stroke-linejoin="round" d="M152.2 145.32h95.47M239.77 148.53h7.9M152.2 148.53h84.65M221.41 98.85s5.14 23.74-4.47 42.87l-2.18-1.17-11.9 17.67-2.54-1.38-17.1 9.07-1.16-1.65-15.28 7.46-.82-3-17.44 3v-2.82l-17.76-3v-3.15l-6.8-3.65"/><path d="M224.69 98.85s5.34 27.89-6.35 47.08l-2.17-1.18-12.58 18-2.59-1.37-17.9 9.3L182 169l-17.54 7.79-.83-3-17.78 2.21v-2.82l-18.17-4.28v-3.15l-3.68-1.7M114.29 128.07L60 240.64l58.4 4.36M113.18 125.22l-35.17 69.33-11.95-11.34" fill="none" stroke="#494949" stroke-linecap="round" stroke-linejoin="round"/><path fill="none" stroke="#494949" stroke-linecap="round" stroke-linejoin="round" d="M115.62 131.82L64.64 237.98l53.76 3.74M206.79 200.78l-19.81 13.31 36.4 33.89M247.63 237.18l20.07 18.06M206.79 200.78l34.77 30.99M223.74 255.24l23.86 21.27M227.49 255.12l21.92 19.55M198.26 270.59l49.34 43.98M202.37 270.79l45.35 40.45M196.29 276.1l51.31 45.73M196.02 272.38l51.61 46.04M127.11 299.48l53.98 48.11M127.11 296l54.1 48.26M127.56 307.13l53.53 47.72 49.7-44.32"/><path fill="none" stroke="#494949" stroke-linecap="round" stroke-linejoin="round" d="M127.56 303.66l53.56 47.78 47.46-42.57M297.16 270.54l-49.41 44.03M293.08 270.7l-45.45 40.54M222.75 307.21l-41.54 36.99M226.55 307.21l-45.34 40.38M299.1 276.06l-51.35 45.77M299.17 272.53l-51.45 45.89M189.9 277.83l32.85 29.38M194.07 278.18l32.48 29.03M367.92 299.48l-53.98 48.11M367.92 296l-54.1 48.26M367.47 307.13l-53.53 47.72-49.7-44.32"/><path fill="none" stroke="#494949" stroke-linecap="round" stroke-linejoin="round" d="M367.47 303.66l-53.56 47.78-47.46-42.57M272.28 307.21l41.54 36.99M268.48 307.21l45.34 40.38M305.19 277.7l-32.91 29.51M301.22 277.95l-32.74 29.26M271.58 255.24l-23.86 21.27M267.7 255.24l-21.79 19.43M245.64 231.98l-43.41-38.67-25.16 16.08-1.72-2.89-12.92 6.44-1.14-3.3-15.68 2.66v-3.89l-14.48.09v-3.32l-6.47-1.95M271.58 255.24l-23.95-21.49"/><path fill="none" stroke="#494949" stroke-linecap="round" stroke-linejoin="round" d="M247.63 230.21l-45-40.08-24.03 14.95-1.99-2.74-12.57 6.48-.83-2.57-14.74 2.44v-2.82l-14.17-.09v-2.72l-9.64-2.58M293.08 270.7L250 232.32M301.22 277.95l-4.07-3.63M247.63 226.37l-30.03-26.78 22.16-51.06M305.19 277.7l-53.25-47.49M214.3 200.48l23.91-55.07M129.14 244.49l37.13-18.58L192.56 275M325.66 121.36l-44.75 14.78 13.52 18.48 32.18-31.95-.95-1.31zM321.85 112.48l-42.52-6.95.58 15.33 42.15-5.37-.21-3.01zM320.72 106.36l-38.15-15.77-2.66 12.05 41.12 7.65-.31-3.93zM328.11 124.25l-27.37 27.91 7.1 4.68 21.42-31.95-1.15-.64zM337.22 127.04h-2.08l-9.04 33.72 10.49.98.63-34.7zM340.78 126.65h-1.51l-.05 31.57 5.36-.69-3.8-30.88zM325.86 91.03l-2.61 4.95-29.34-19.56 9.35-10.82 22.6 25.43zM331.08 84.84l-3.42 4.3-22.57-24.79 11.43-5.52 14.56 26.01zM346.26 83.67l-6.5-.89-4.69-20.33 15.24 4.96-4.05 16.26zM367.12 74.62l-14.47-6.32-5 15.86 5.1 1.67 14.37-11.21zM349.31 93.5c3.59 3 6.38 7 6.38 12A14.48 14.48 0 11341.22 91v-4.23s9.52.44 16.17 5.81l10.27-1 .87 8.91-8.7 1v-2.15l6.24-.67-.44-5.17-9.14 1s-7.4-5-12.77-5.32l-.14 2.39s3.65.23 5.73 1.93z"/><circle cx="341.22" cy="105.4" r="11.9" fill="none" stroke="#494949" stroke-linecap="round" stroke-linejoin="round" stroke-width=".82"/><path fill="none" stroke="#494949" stroke-linecap="round" stroke-linejoin="round" d="M343.08 145.32H247.6M255.51 148.53h-7.91M343.08 148.53h-84.66M273.86 98.85s-5.14 23.74 4.47 42.87l2.18-1.17 11.9 17.67 2.55-1.38 17.1 9.07 1.16-1.65 15.27 7.46.83-3 17.43 3v-2.82l17.76-3v-3.15l6.81-3.65"/><path d="M270.59 98.85s-5.35 27.89 6.34 47.08l2.18-1.18 12.57 18 2.55-1.38 17.91 9.3 1.16-1.67 17.53 7.79.83-3 17.76 2.21v-2.82l18.18-4.28v-3.15l3.72-1.73M288.49 200.78l19.8 13.31-36.07 33.59M247.63 237.18l-20.14 17.94M288.49 200.78l-34.57 31.2" fill="none" stroke="#494949" stroke-linecap="round" stroke-linejoin="round"/><path fill="none" stroke="#494949" stroke-linecap="round" stroke-linejoin="round" d="M223.63 255.12l69.42-61.81 25.15 16.08 1.72-2.89 12.93 6.44 1.14-3.3 15.68 2.66v-3.89l14.47.09v-3.32l6.47-1.95"/><path fill="none" stroke="#494949" stroke-linecap="round" stroke-linejoin="round" d="M202.23 270.63l90.41-80.5 24.04 14.95 1.99-2.74 12.56 6.48.84-2.57 14.73 2.44v-2.82l14.18-.09v-2.72l9.63-2.58M194.07 278.18l4.12-3.86M247.63 226.37l30.04-26.78-22.16-51.06M189.9 277.83l53.59-47.77M280.97 200.48l-23.94-55.16M366.5 247.05l-37.67-20.82-23.43 43.74M112.23 123l-35.25 66.61-9.77-9.1M118.4 248.1l-46.74-3.62M118.4 251.23l-46.74-3.62M380.74 128.07l54.28 112.57-58.4 4.36M381.84 125.22l35.17 69.33 11.95-11.34"/><path fill="none" stroke="#494949" stroke-linecap="round" stroke-linejoin="round" d="M379.4 131.82l50.98 106.16-53.76 3.74M382.79 123l35.26 66.61 9.76-9.1M376.62 248.1l46.74-3.62M376.62 251.23l46.74-3.62"/><path d="M65.15 186.85c13.61-35.43 24.56-73.32 48.07-103.67 27.32-18.2 60-23.76 90.46-34.78M291.48 48.63c29.12 10.49 61 14.41 87.44 31.58 15.94 14.59 21.63 38 30.45 57.21 9.28 22.51 18.82 45.3 27.16 68.44" fill="none" stroke="#262521" stroke-linecap="round" stroke-linejoin="round" stroke-width="3"/></svg>