<svg xmlns="http://www.w3.org/2000/svg" xmlns:xlink="http://www.w3.org/1999/xlink" width="500" height="550" viewBox="0 0 500 550"><defs><clipPath id="a"><path d="M372.64,294.25Q372.37,356,372,417.71c-.81,9-2.68,16.41-3.55,25.44-1,10.08,1.34,17.05-1.5,25.64-.59,1.77-2,1.66-3.35,1.43-17.11-3-44.4-5-49.44-2.65S185,467.3,185,467.3c-5.26.12-31.86-.87-51,2.09-5.23.59-5.68.27-6.62-4.82-1.35-11.26,1.94-18.54.53-29.32-6.15-46.81-1.39-94.37-3.6-141.53-1.42,2.83-2.94,5.61-4.29,8.46-2.36,10.68-17.5,9.3-11.81,16.19,11.11,7.94,6.41,21.38,5.15,32.55-.24,3.16-1.35,6.27-.37,9.58.51,8.44-3.19,16.94-4.38,25.31-1.5,8-10.41,41.28-11.86,49.29-.57,3.18-.61,3-3.74,2-12.38-3.52-26.09-4.38-38.6-1.18-1.39.35-2.1,0-2.41-1.47-2-7.76.82-16.67-5.49-22.42a6.66,6.66,0,0,1-1.33-3.22c-2.23-11-6.07-22.12-5.72-33.31-1.91-63,2.6-126.93,26.19-186,13.61-35.44,24.56-73.33,48.07-103.68,27.32-18.2,53.76-21.56,84.19-32.59.8-.26,2.08-9.27,10.21-10.83,5.62-1.08,61.29-.38,83.31.47,5.76,1.58,8.5,11,9.63,11.45,29.12,10.5,52,11.36,78.36,28.54,15.94,14.58,21.63,38,30.45,57.2,27.81,67.49,58,137.39,51.06,212.08-1.2,18.65-.24,37.45-3.29,55.95-.49,4.66-5.21,7.1-5.56,11.78-1.22,5.28-2.08,10.65-2.91,16-.4,2.61-.41,2.83-3.08,2.33-12.48-2.65-25.26-5.48-37.8-1.58-8.34-.14-8.13-15.56-11.44-21.4-6.28-7.37-3.61-9-5.33-17.63-.9-9.71-4.68-20.28.79-29.27,2-3.53,1.86-7.05.51-10.66-4.9-11.28-7.4-23.41-10.45-35.29-1.06-4.3-1.31-8.49,1.61-12.34,1.51-7.23-10.43-8.68-10.93-15.92Z" fill="none"/></clipPath><clipPath id="b"><rect x="122.85" y="142.56" width="248.6" height="97.58" fill="none"/></clipPath><clipPath id="c"><rect x="371.45" y="160.9" width="76.33" height="72.88" fill="none"/></clipPath><clipPath id="d"><rect x="46.51" y="160.9" width="76.33" height="72.88" transform="translate(169.36 394.68) rotate(-180)" fill="none"/></clipPath></defs><title>s04e13-02</title><g clip-path="url(#a)"><rect x="29.87" y="26.11" width="445.15" height="463.73" fill="#eeeee9"/><polyline points="389.78 360.08 403.78 380.08 417.78 360.08 431.78 380.08 445.78 360.08 459.79 380.08" fill="none" stroke="#813b4a" stroke-linecap="round" stroke-linejoin="round" stroke-width="8"/><polyline points="389.78 370.08 403.78 390.08 417.78 370.08 431.78 390.08 445.78 370.08 459.79 390.08" fill="none" stroke="#262521" stroke-linecap="round" stroke-linejoin="round" stroke-width="7"/><polyline points="122.14 387.82 139 407.82 155.86 387.82 172.71 407.82 189.57 387.82 206.43 407.82 223.29 387.82 240.15 407.82 257.01 387.82 273.88 407.82 290.74 387.82 307.6 407.82 324.46 387.82 341.33 407.82 358.2 387.82 375.06 407.82" fill="none" stroke="#813b4a" stroke-linecap="round" stroke-linejoin="round" stroke-width="8"/><polyline points="122.14 397.32 139 417.32 155.86 397.32 172.71 417.32 189.57 397.32 206.43 417.32 223.29 397.32 240.15 417.32 257.01 397.32 273.88 417.32 290.74 397.32 307.6 417.32 324.46 397.32 341.33 417.32 358.2 397.32 375.06 417.32" fill="none" stroke="#262521" stroke-linecap="round" stroke-linejoin="round" stroke-width="7"/><polyline points="114.07 380.08 99.14 360.08 84.2 380.08 69.27 360.08 54.33 380.08 39.39 360.08" fill="none" stroke="#813b4a" stroke-linecap="round" stroke-linejoin="round" stroke-width="8"/><polyline points="114.07 390.08 99.14 370.08 84.2 390.08 69.27 370.08 54.33 390.08 39.39 370.08" fill="none" stroke="#262521" stroke-linecap="round" stroke-linejoin="round" stroke-width="7"/><g clip-path="url(#b)"><polyline points="122.14 192.03 138.8 212.03 155.46 192.03 172.11 212.03 188.77 192.03 205.43 212.03 222.09 192.03 238.75 212.03 255.41 192.03 272.08 212.03 288.74 192.03 305.4 212.03 322.06 192.03 338.73 212.03 355.4 192.03 372.06 212.03" fill="none" stroke="#813b4a" stroke-linecap="round" stroke-linejoin="round" stroke-width="8"/><polyline points="122.14 201.53 138.76 221.53 155.39 201.53 172.01 221.53 188.64 201.53 205.26 221.53 221.89 201.53 238.52 221.53 255.15 201.53 271.78 221.53 288.41 201.53 305.03 221.53 321.66 201.53 338.3 221.53 354.93 201.53 371.56 221.53" fill="none" stroke="#262521" stroke-linecap="round" stroke-linejoin="round" stroke-width="7"/></g><g clip-path="url(#c)"><polyline points="367.31 203.29 388.93 214.62 392.17 190.42 413.79 201.75 417.04 177.55 438.67 188.88" fill="none" stroke="#813b4a" stroke-linecap="round" stroke-linejoin="round" stroke-width="8"/><polyline points="371.9 212.17 393.52 223.5 396.77 199.3 418.39 210.63 421.64 186.43 443.27 197.76" fill="none" stroke="#262521" stroke-linecap="round" stroke-linejoin="round" stroke-width="7"/></g><g clip-path="url(#d)"><polyline points="129.79 225.37 125.44 200.62 102.76 211.43 98.41 186.68 75.71 197.48 71.35 172.73" fill="none" stroke="#813b4a" stroke-linecap="round" stroke-linejoin="round" stroke-width="8"/><polyline points="125.2 234.25 120.85 209.5 98.16 220.31 93.81 195.56 71.12 206.36 66.76 181.61" fill="none" stroke="#262521" stroke-linecap="round" stroke-linejoin="round" stroke-width="7"/></g><path d="M86.67,136.66s72.29,25,162.5,25,160.7-25,160.7-25" fill="none" stroke="#262521" stroke-miterlimit="10" stroke-width="11" stroke-dasharray="15 5"/><polyline points="400.54 116.52 383.02 99.66 373.13 121.84 356.15 104.46 345.68 126.38 329.18 108.56 318.09 130.16 302.15 111.84 290.31 133.06 275.1 114.12 262.29 134.76 248.17 115.01 234.24 134.76 221.61 114.14 206.58 133.08 194.93 111.88 179.15 130.21 168.27 108.61 151.91 126.42 141.67 104.52 124.82 121.87 115.19 99.69 107.02 99.68" fill="none" stroke="#813b4a" stroke-linecap="round" stroke-linejoin="round" stroke-width="8"/><path d="M100.15,84.62l4.39-2.79S195.24,100,248.17,100c66.27,0,133.4-14.7,133.4-14.7s11.58,12.44,13.15,19-13.18-3.23-13.18-3.23l-9.86,16.25-15.53-12.85-9.25,18.85-16.57-14.68-13.25,17.05-14.93-13.84-11.27,18.41L275.1,114.12,261.38,131.2l-12.21-16.57-14.94,17.83-13.57-17.67-13.41,16.72-11.36-19.72-16.1,14.52-13.25-15.15-13.73,12.62-12.17-18.85-14.43,12.39L113.37,103l-15.22,9.63-9.42-13Z" fill="#813b4a"/><path d="M86.67,81.49s77.79,24.1,162.41,24.1c90.21,0,161.83-22.13,161.83-22.13" fill="none" stroke="#262521" stroke-miterlimit="10" stroke-width="11" stroke-dasharray="15 5"/></g><path d="M205.91,51s4.76,10.86,44.43,9.64,42.09-8.75,42.09-8.75" fill="none" stroke="#262521" stroke-linecap="round" stroke-linejoin="round" stroke-width="3"/><path d="M372.64,294.25Q372.37,356,372,417.71c-.81,9-2.68,16.41-3.55,25.44-1,10.08,1.34,17.05-1.5,25.64-.59,1.77-2,1.66-3.35,1.43-17.11-3-44.4-5-49.44-2.65S185,467.3,185,467.3c-5.26.12-31.86-.87-51,2.09-5.23.59-5.68.27-6.62-4.82-1.35-11.26,1.94-18.54.53-29.32-6.15-46.81-1.39-94.37-3.6-141.53-1.42,2.83-2.94,5.61-4.29,8.46-2.36,10.68-17.5,9.3-11.81,16.19,11.11,7.94,6.41,21.38,5.15,32.55-.24,3.16-1.35,6.27-.37,9.58.51,8.44-3.19,16.94-4.38,25.31-1.5,8-10.41,41.28-11.86,49.29-.57,3.18-.61,3-3.74,2-12.38-3.52-26.09-4.38-38.6-1.18-1.39.35-2.1,0-2.41-1.47-2-7.76.82-16.67-5.49-22.42a6.66,6.66,0,0,1-1.33-3.22c-2.23-11-6.07-22.12-5.72-33.31-1.91-63,2.6-126.93,26.19-186,13.61-35.44,24.56-73.33,48.07-103.68,27.32-18.2,53.76-21.56,84.19-32.59.2-.06,3.24-11.1,12.76-11.13,19.57-.06,58.27-.3,77.55.13,8.62.19,12,11.74,12.84,12.09,29.12,10.5,52,11.36,78.36,28.54,15.94,14.58,21.63,38,30.45,57.2,27.81,67.49,58,137.39,51.06,212.08-1.2,18.65-.24,37.45-3.29,55.95-.49,4.66-5.21,7.1-5.56,11.78-1.22,5.28-2.08,10.65-2.91,16-.4,2.61-.41,2.83-3.08,2.33-12.48-2.65-25.26-5.48-37.8-1.58-8.34-.14-8.13-15.56-11.44-21.4-6.28-7.37-3.61-9-5.33-17.63-.9-9.71-4.68-20.28.79-29.27,2-3.53,1.86-7.05.51-10.66-4.9-11.28-7.4-23.41-10.45-35.29-1.06-4.3-1.31-8.49,1.61-12.34,1.51-7.23-10.43-8.68-10.93-15.92Z" fill="none" stroke="#262521" stroke-linecap="round" stroke-linejoin="round" stroke-width="3"/><line x1="248.17" y1="67.37" x2="248.17" y2="81.83" fill="none" stroke="#d5d5d1" stroke-linecap="round" stroke-linejoin="round" stroke-width="4"/><line x1="258.29" y1="67.13" x2="259.04" y2="81.57" fill="none" stroke="#d5d5d1" stroke-linecap="round" stroke-linejoin="round" stroke-width="4"/><line x1="267.3" y1="65.94" x2="269.71" y2="80.2" fill="none" stroke="#d5d5d1" stroke-linecap="round" stroke-linejoin="round" stroke-width="4"/><line x1="276.49" y1="64.79" x2="281.65" y2="78.3" fill="none" stroke="#d5d5d1" stroke-linecap="round" stroke-linejoin="round" stroke-width="4"/><line x1="286.17" y1="62.89" x2="294.3" y2="74.85" fill="none" stroke="#d5d5d1" stroke-linecap="round" stroke-linejoin="round" stroke-width="4"/><line x1="294.8" y1="59.01" x2="306.32" y2="67.76" fill="none" stroke="#d5d5d1" stroke-linecap="round" stroke-linejoin="round" stroke-width="4"/><line x1="238.05" y1="67.13" x2="237.3" y2="81.57" fill="none" stroke="#d5d5d1" stroke-linecap="round" stroke-linejoin="round" stroke-width="4"/><line x1="228.54" y1="66.97" x2="226.13" y2="81.23" fill="none" stroke="#d5d5d1" stroke-linecap="round" stroke-linejoin="round" stroke-width="4"/><line x1="218.85" y1="65.81" x2="213.69" y2="79.32" fill="none" stroke="#d5d5d1" stroke-linecap="round" stroke-linejoin="round" stroke-width="4"/><line x1="209.98" y1="62.89" x2="201.85" y2="74.85" fill="none" stroke="#d5d5d1" stroke-linecap="round" stroke-linejoin="round" stroke-width="4"/><line x1="202.58" y1="57.69" x2="191.06" y2="66.44" fill="none" stroke="#d5d5d1" stroke-linecap="round" stroke-linejoin="round" stroke-width="4"/><path d="M122.3,183.54s2.11,28.61,0,44.24.11,29.7.11,32.88,1.9,33.06,1.9,33.06" fill="none" stroke="#262521" stroke-linecap="round" stroke-linejoin="round" stroke-width="3"/><path d="M371.83,191.35s-1.25,73.86.81,102.9" fill="none" stroke="#262521" stroke-linecap="round" stroke-linejoin="round" stroke-width="3"/><line x1="74.39" y1="408.64" x2="74.39" y2="429.1" fill="none" stroke="#d5d5d1" stroke-linecap="round" stroke-linejoin="round" stroke-width="4"/><line x1="64.75" y1="408.65" x2="65.73" y2="429.09" fill="none" stroke="#d5d5d1" stroke-linecap="round" stroke-linejoin="round" stroke-width="4"/><line x1="84.88" y1="408.66" x2="83.4" y2="429.07" fill="none" stroke="#d5d5d1" stroke-linecap="round" stroke-linejoin="round" stroke-width="4"/><line x1="94.99" y1="410.82" x2="90.85" y2="430.86" fill="none" stroke="#d5d5d1" stroke-linecap="round" stroke-linejoin="round" stroke-width="4"/><line x1="55.85" y1="410.03" x2="57.89" y2="430.39" fill="none" stroke="#d5d5d1" stroke-linecap="round" stroke-linejoin="round" stroke-width="4"/><line x1="425.32" y1="408.9" x2="425.32" y2="429.37" fill="none" stroke="#d5d5d1" stroke-linecap="round" stroke-linejoin="round" stroke-width="4"/><line x1="415.21" y1="408.95" x2="417.11" y2="429.32" fill="none" stroke="#d5d5d1" stroke-linecap="round" stroke-linejoin="round" stroke-width="4"/><line x1="435.8" y1="408.93" x2="434.32" y2="429.34" fill="none" stroke="#d5d5d1" stroke-linecap="round" stroke-linejoin="round" stroke-width="4"/><line x1="445.91" y1="411.09" x2="441.77" y2="431.13" fill="none" stroke="#d5d5d1" stroke-linecap="round" stroke-linejoin="round" stroke-width="4"/><line x1="405.38" y1="410.43" x2="409.2" y2="430.53" fill="none" stroke="#d5d5d1" stroke-linecap="round" stroke-linejoin="round" stroke-width="4"/><line x1="247.81" y1="440.19" x2="247.81" y2="460.65" fill="none" stroke="#d5d5d1" stroke-linecap="round" stroke-linejoin="round" stroke-width="4"/><line x1="258.87" y1="440.19" x2="258.87" y2="460.65" fill="none" stroke="#d5d5d1" stroke-linecap="round" stroke-linejoin="round" stroke-width="4"/><line x1="269.93" y1="440.19" x2="269.93" y2="460.65" fill="none" stroke="#d5d5d1" stroke-linecap="round" stroke-linejoin="round" stroke-width="4"/><line x1="280.99" y1="440.19" x2="280.99" y2="460.65" fill="none" stroke="#d5d5d1" stroke-linecap="round" stroke-linejoin="round" stroke-width="4"/><line x1="292.06" y1="440.19" x2="292.06" y2="460.65" fill="none" stroke="#d5d5d1" stroke-linecap="round" stroke-linejoin="round" stroke-width="4"/><line x1="303.12" y1="439.69" x2="303.12" y2="460.15" fill="none" stroke="#d5d5d1" stroke-linecap="round" stroke-linejoin="round" stroke-width="4"/><line x1="314.08" y1="439.19" x2="314.08" y2="459.65" fill="none" stroke="#d5d5d1" stroke-linecap="round" stroke-linejoin="round" stroke-width="4"/><line x1="325.24" y1="438.19" x2="325.24" y2="458.65" fill="none" stroke="#d5d5d1" stroke-linecap="round" stroke-linejoin="round" stroke-width="4"/><line x1="171.95" y1="438.69" x2="171.95" y2="459.15" fill="none" stroke="#d5d5d1" stroke-linecap="round" stroke-linejoin="round" stroke-width="4"/><line x1="192.5" y1="439.69" x2="192.5" y2="460.15" fill="none" stroke="#d5d5d1" stroke-linecap="round" stroke-linejoin="round" stroke-width="4"/><line x1="182.54" y1="439.69" x2="182.54" y2="460.15" fill="none" stroke="#d5d5d1" stroke-linecap="round" stroke-linejoin="round" stroke-width="4"/><line x1="203.56" y1="440.19" x2="203.56" y2="460.65" fill="none" stroke="#d5d5d1" stroke-linecap="round" stroke-linejoin="round" stroke-width="4"/><line x1="137.61" y1="440.2" x2="138.76" y2="460.63" fill="none" stroke="#d5d5d1" stroke-linecap="round" stroke-linejoin="round" stroke-width="4"/><line x1="148.55" y1="438.71" x2="149.94" y2="459.12" fill="none" stroke="#d5d5d1" stroke-linecap="round" stroke-linejoin="round" stroke-width="4"/><line x1="160.81" y1="438.19" x2="160.81" y2="458.65" fill="none" stroke="#d5d5d1" stroke-linecap="round" stroke-linejoin="round" stroke-width="4"/><line x1="214.62" y1="440.19" x2="214.62" y2="460.65" fill="none" stroke="#d5d5d1" stroke-linecap="round" stroke-linejoin="round" stroke-width="4"/><line x1="225.68" y1="439.69" x2="225.68" y2="460.15" fill="none" stroke="#d5d5d1" stroke-linecap="round" stroke-linejoin="round" stroke-width="4"/><line x1="236.75" y1="440.19" x2="236.75" y2="460.65" fill="none" stroke="#d5d5d1" stroke-linecap="round" stroke-linejoin="round" stroke-width="4"/><line x1="336.67" y1="439.19" x2="335.94" y2="459.64" fill="none" stroke="#d5d5d1" stroke-linecap="round" stroke-linejoin="round" stroke-width="4"/><line x1="347.98" y1="440.2" x2="346.75" y2="460.63" fill="none" stroke="#d5d5d1" stroke-linecap="round" stroke-linejoin="round" stroke-width="4"/><line x1="358.84" y1="441.19" x2="358.02" y2="461.64" fill="none" stroke="#d5d5d1" stroke-linecap="round" stroke-linejoin="round" stroke-width="4"/><polyline points="259.63 85.72 261.24 87.33 262.81 85.76" fill="none" stroke="#262521" stroke-linecap="round" stroke-linejoin="round" stroke-width="2" stroke-dasharray="15 5"/><polyline points="264.44 89.03 266.06 90.64 267.63 89.07" fill="none" stroke="#262521" stroke-linecap="round" stroke-linejoin="round" stroke-width="2" stroke-dasharray="15 5"/><polyline points="269.43 92.27 271.04 93.88 272.62 92.31" fill="none" stroke="#262521" stroke-linecap="round" stroke-linejoin="round" stroke-width="2" stroke-dasharray="15 5"/><polyline points="274.21 95.33 275.82 96.94 277.39 95.37" fill="none" stroke="#262521" stroke-linecap="round" stroke-linejoin="round" stroke-width="2" stroke-dasharray="15 5"/><polyline points="239.79 86.53 241.4 88.14 242.97 86.57" fill="none" stroke="#262521" stroke-linecap="round" stroke-linejoin="round" stroke-width="2" stroke-dasharray="15 5"/><polyline points="244.61 89.83 246.22 91.44 247.79 89.87" fill="none" stroke="#262521" stroke-linecap="round" stroke-linejoin="round" stroke-width="2" stroke-dasharray="15 5"/><polyline points="249.6 93.07 251.21 94.68 252.78 93.11" fill="none" stroke="#262521" stroke-linecap="round" stroke-linejoin="round" stroke-width="2" stroke-dasharray="15 5"/><polyline points="254.37 96.14 255.98 97.75 257.55 96.17" fill="none" stroke="#262521" stroke-linecap="round" stroke-linejoin="round" stroke-width="2" stroke-dasharray="15 5"/><polyline points="220.03 86.16 221.64 87.77 223.21 86.2" fill="none" stroke="#262521" stroke-linecap="round" stroke-linejoin="round" stroke-width="2" stroke-dasharray="15 5"/><polyline points="224.84 89.46 226.46 91.07 228.03 89.5" fill="none" stroke="#262521" stroke-linecap="round" stroke-linejoin="round" stroke-width="2" stroke-dasharray="15 5"/><polyline points="229.83 92.7 231.44 94.31 233.01 92.74" fill="none" stroke="#262521" stroke-linecap="round" stroke-linejoin="round" stroke-width="2" stroke-dasharray="15 5"/><polyline points="234.61 95.77 236.22 97.38 237.79 95.81" fill="none" stroke="#262521" stroke-linecap="round" stroke-linejoin="round" stroke-width="2" stroke-dasharray="15 5"/><polyline points="139.05 76.5 140.66 78.11 142.23 76.54" fill="none" stroke="#262521" stroke-linecap="round" stroke-linejoin="round" stroke-width="2" stroke-dasharray="15 5"/><polyline points="143.37 79.8 144.98 81.41 146.55 79.84" fill="none" stroke="#262521" stroke-linecap="round" stroke-linejoin="round" stroke-width="2" stroke-dasharray="15 5"/><polyline points="147.86 83.05 149.47 84.65 151.04 83.08" fill="none" stroke="#262521" stroke-linecap="round" stroke-linejoin="round" stroke-width="2" stroke-dasharray="15 5"/><polyline points="152.63 86.61 154.24 88.22 155.82 86.65" fill="none" stroke="#262521" stroke-linecap="round" stroke-linejoin="round" stroke-width="2" stroke-dasharray="15 5"/><polyline points="128.92 80.06 130.53 81.67 132.1 80.1" fill="none" stroke="#262521" stroke-linecap="round" stroke-linejoin="round" stroke-width="2" stroke-dasharray="15 5"/><polyline points="133.69 83.63 135.3 85.23 136.87 83.66" fill="none" stroke="#262521" stroke-linecap="round" stroke-linejoin="round" stroke-width="2" stroke-dasharray="15 5"/><polyline points="278.46 84.92 280.07 86.53 281.64 84.96" fill="none" stroke="#262521" stroke-linecap="round" stroke-linejoin="round" stroke-width="2" stroke-dasharray="15 5"/><polyline points="283.28 88.22 284.89 89.83 286.46 88.26" fill="none" stroke="#262521" stroke-linecap="round" stroke-linejoin="round" stroke-width="2" stroke-dasharray="15 5"/><polyline points="288.27 91.46 289.88 93.07 291.45 91.5" fill="none" stroke="#262521" stroke-linecap="round" stroke-linejoin="round" stroke-width="2" stroke-dasharray="15 5"/><polyline points="293.04 94.53 294.65 96.14 296.22 94.56" fill="none" stroke="#262521" stroke-linecap="round" stroke-linejoin="round" stroke-width="2" stroke-dasharray="15 5"/><polyline points="297.94 82.22 299.54 83.83 301.12 82.26" fill="none" stroke="#262521" stroke-linecap="round" stroke-linejoin="round" stroke-width="2" stroke-dasharray="15 5"/><polyline points="302.75 85.53 304.36 87.14 305.94 85.57" fill="none" stroke="#262521" stroke-linecap="round" stroke-linejoin="round" stroke-width="2" stroke-dasharray="15 5"/><polyline points="307.74 88.77 309.35 90.38 310.92 88.81" fill="none" stroke="#262521" stroke-linecap="round" stroke-linejoin="round" stroke-width="2" stroke-dasharray="15 5"/><polyline points="312.52 91.83 314.13 93.44 315.7 91.87" fill="none" stroke="#262521" stroke-linecap="round" stroke-linejoin="round" stroke-width="2" stroke-dasharray="15 5"/><polyline points="354.74 74.2 356.35 75.81 357.92 74.24" fill="none" stroke="#262521" stroke-linecap="round" stroke-linejoin="round" stroke-width="2" stroke-dasharray="15 5"/><polyline points="359.56 77.5 361.17 79.11 362.74 77.54" fill="none" stroke="#262521" stroke-linecap="round" stroke-linejoin="round" stroke-width="2" stroke-dasharray="15 5"/><polyline points="364.55 80.75 366.15 82.36 367.73 80.78" fill="none" stroke="#262521" stroke-linecap="round" stroke-linejoin="round" stroke-width="2" stroke-dasharray="15 5"/><polyline points="369.32 83.81 370.93 85.42 372.5 83.85" fill="none" stroke="#262521" stroke-linecap="round" stroke-linejoin="round" stroke-width="2" stroke-dasharray="15 5"/><polyline points="318.37 79.81 319.98 81.42 321.55 79.85" fill="none" stroke="#262521" stroke-linecap="round" stroke-linejoin="round" stroke-width="2" stroke-dasharray="15 5"/><polyline points="313.02 76.53 314.63 78.14 316.2 76.57" fill="none" stroke="#262521" stroke-linecap="round" stroke-linejoin="round" stroke-width="2" stroke-dasharray="15 5"/><polyline points="308.52 73.07 310.13 74.68 311.71 73.11" fill="none" stroke="#262521" stroke-linecap="round" stroke-linejoin="round" stroke-width="2" stroke-dasharray="15 5"/><polyline points="323.19 83.11 324.8 84.72 326.37 83.15" fill="none" stroke="#262521" stroke-linecap="round" stroke-linejoin="round" stroke-width="2" stroke-dasharray="15 5"/><polyline points="328.18 86.35 329.79 87.96 331.36 86.39" fill="none" stroke="#262521" stroke-linecap="round" stroke-linejoin="round" stroke-width="2" stroke-dasharray="15 5"/><polyline points="332.95 89.42 334.56 91.03 336.13 89.46" fill="none" stroke="#262521" stroke-linecap="round" stroke-linejoin="round" stroke-width="2" stroke-dasharray="15 5"/><polyline points="336.74 77 338.35 78.61 339.92 77.04" fill="none" stroke="#262521" stroke-linecap="round" stroke-linejoin="round" stroke-width="2" stroke-dasharray="15 5"/><polyline points="331.38 73.72 332.99 75.33 334.56 73.76" fill="none" stroke="#262521" stroke-linecap="round" stroke-linejoin="round" stroke-width="2" stroke-dasharray="15 5"/><polyline points="326.89 70.27 328.5 71.87 330.07 70.3" fill="none" stroke="#262521" stroke-linecap="round" stroke-linejoin="round" stroke-width="2" stroke-dasharray="15 5"/><polyline points="341.56 80.31 343.17 81.92 344.74 80.35" fill="none" stroke="#262521" stroke-linecap="round" stroke-linejoin="round" stroke-width="2" stroke-dasharray="15 5"/><polyline points="346.55 83.55 348.16 85.16 349.73 83.59" fill="none" stroke="#262521" stroke-linecap="round" stroke-linejoin="round" stroke-width="2" stroke-dasharray="15 5"/><polyline points="351.32 86.61 352.93 88.22 354.5 86.65" fill="none" stroke="#262521" stroke-linecap="round" stroke-linejoin="round" stroke-width="2" stroke-dasharray="15 5"/><polyline points="180.63 82.36 182.24 83.97 183.81 82.4" fill="none" stroke="#262521" stroke-linecap="round" stroke-linejoin="round" stroke-width="2" stroke-dasharray="15 5"/><polyline points="175.28 79.08 176.89 80.69 178.46 79.12" fill="none" stroke="#262521" stroke-linecap="round" stroke-linejoin="round" stroke-width="2" stroke-dasharray="15 5"/><polyline points="170.78 75.62 172.4 77.23 173.97 75.66" fill="none" stroke="#262521" stroke-linecap="round" stroke-linejoin="round" stroke-width="2" stroke-dasharray="15 5"/><polyline points="160.08 80.38 161.69 81.98 163.26 80.41" fill="none" stroke="#262521" stroke-linecap="round" stroke-linejoin="round" stroke-width="2" stroke-dasharray="15 5"/><polyline points="154.72 77.09 156.34 78.7 157.91 77.13" fill="none" stroke="#262521" stroke-linecap="round" stroke-linejoin="round" stroke-width="2" stroke-dasharray="15 5"/><polyline points="150.23 73.64 151.84 75.25 153.41 73.67" fill="none" stroke="#262521" stroke-linecap="round" stroke-linejoin="round" stroke-width="2" stroke-dasharray="15 5"/><polyline points="164.9 83.68 166.51 85.29 168.08 83.72" fill="none" stroke="#262521" stroke-linecap="round" stroke-linejoin="round" stroke-width="2" stroke-dasharray="15 5"/><polyline points="169.89 86.92 171.5 88.53 173.07 86.96" fill="none" stroke="#262521" stroke-linecap="round" stroke-linejoin="round" stroke-width="2" stroke-dasharray="15 5"/><polyline points="174.66 89.98 176.27 91.59 177.84 90.02" fill="none" stroke="#262521" stroke-linecap="round" stroke-linejoin="round" stroke-width="2" stroke-dasharray="15 5"/><polyline points="166.33 71.76 167.94 73.37 169.51 71.8" fill="none" stroke="#262521" stroke-linecap="round" stroke-linejoin="round" stroke-width="2" stroke-dasharray="15 5"/><polyline points="162.17 68.06 163.78 69.67 165.35 68.1" fill="none" stroke="#262521" stroke-linecap="round" stroke-linejoin="round" stroke-width="2" stroke-dasharray="15 5"/><polyline points="185.45 85.66 187.06 87.27 188.63 85.7" fill="none" stroke="#262521" stroke-linecap="round" stroke-linejoin="round" stroke-width="2" stroke-dasharray="15 5"/><polyline points="190.44 88.9 192.05 90.51 193.62 88.94" fill="none" stroke="#262521" stroke-linecap="round" stroke-linejoin="round" stroke-width="2" stroke-dasharray="15 5"/><polyline points="195.22 91.97 196.82 93.58 198.4 92.01" fill="none" stroke="#262521" stroke-linecap="round" stroke-linejoin="round" stroke-width="2" stroke-dasharray="15 5"/><polyline points="199.54 84.48 201.15 86.09 202.72 84.52" fill="none" stroke="#262521" stroke-linecap="round" stroke-linejoin="round" stroke-width="2" stroke-dasharray="15 5"/><polyline points="194.19 81.2 195.8 82.81 197.37 81.23" fill="none" stroke="#262521" stroke-linecap="round" stroke-linejoin="round" stroke-width="2" stroke-dasharray="15 5"/><polyline points="189.69 77.74 191.3 79.35 192.88 77.78" fill="none" stroke="#262521" stroke-linecap="round" stroke-linejoin="round" stroke-width="2" stroke-dasharray="15 5"/><polyline points="185.24 73.88 186.85 75.49 188.42 73.92" fill="none" stroke="#262521" stroke-linecap="round" stroke-linejoin="round" stroke-width="2" stroke-dasharray="15 5"/><polyline points="180.63 69.94 182.24 71.55 183.81 69.97" fill="none" stroke="#262521" stroke-linecap="round" stroke-linejoin="round" stroke-width="2" stroke-dasharray="15 5"/><polyline points="176.25 66.14 177.86 67.75 179.44 66.17" fill="none" stroke="#262521" stroke-linecap="round" stroke-linejoin="round" stroke-width="2" stroke-dasharray="15 5"/><polyline points="204.36 87.78 205.97 89.39 207.54 87.82" fill="none" stroke="#262521" stroke-linecap="round" stroke-linejoin="round" stroke-width="2" stroke-dasharray="15 5"/><polyline points="209.35 91.02 210.96 92.63 212.53 91.06" fill="none" stroke="#262521" stroke-linecap="round" stroke-linejoin="round" stroke-width="2" stroke-dasharray="15 5"/><polyline points="214.12 94.09 215.73 95.7 217.31 94.13" fill="none" stroke="#262521" stroke-linecap="round" stroke-linejoin="round" stroke-width="2" stroke-dasharray="15 5"/></svg>