<svg xmlns="http://www.w3.org/2000/svg" width="500" height="550" viewBox="0 0 500 550"><defs><clipPath id="a"><path d="M892.14 291.56C892 332.71 646 338.19 643.81 291c-1.42 2.83-2.94 5.6-4.29 8.46-2.37 10.68-17.5 9.3-11.81 16.18 11.11 7.95 6.41 21.38 5.15 32.56-.25 3.15-1.35 6.27-.37 9.58.51 8.44-3.19 16.94-4.38 25.31-1.5 8-69.5.93-69.15-10.26-1.91-63 2.6-126.93 26.19-186 4.21-11 24.24-90.24 69.07-99.29 100-20.2 269.06 36.59 275.15 49.86 27.81 67.48 58 137.39 51 212.08-1.19 18.65-.23 37.45-3.28 55.95-.49 4.66-64.4-1.83-66.12-10.5-.9-9.7-4.68-20.27.79-29.26 2-3.53 1.86-7.05.51-10.66-4.9-11.28-7.4-23.41-10.45-35.29-1.07-4.3-1.31-8.49 1.61-12.34 1.51-7.23-10.43-8.68-10.93-15.92z" fill="none"/></clipPath><clipPath id="b"><path d="M540.11 371.55l2.71-22.12 10.18 2.39 8.13-80.48 1.67.47L550.38 373l12.25 2.79 12.16-100.49 1.57.44-8.45 81.39 12.69 1.55 9.12-79.12 2.33.67-5.8 94.16 11 5.64 1.45-11.83 7.21-1.55 3.18-25.93 1.53.33-2.87 29.26 12.09-3.39 3.83-25 9.72 1.19 11-47.88.62.17-10.29 63.89 13.07-.55 5.61-38.78-6 58.75 12.6-3.61 8-71-2.88 44.56 8.69-3.23 3.87-40.84 5.12.62 2-16.71-5.13-.58 1.39-11.4-8.49-1 3.42-23.1-8.99-3.92 1.31-7.47-9.89-9.41-15.83 63.09-1-.29 12.49-58.8-9.72-8.25-8.21 34.24-2.75-.34s1.8-13.75 2.51-15.84 1.51-4.85 1.51-4.85c1.46.29 1.62-6.67 1.73-8.49s1.94-7.43 2.82-8.05 2-6.93 3.18-6.33a4.8 4.8 0 003.94.49c1.67-.49 2.15-5.35 2.15-5.35 2.63 0 1.28-4 1.27-5.68s1.26-3.74 2.58-5.18-.87-2.17-.87-2.17a3.14 3.14 0 012-2.5s-1.93-.12-1.61-.77 1.86-1.26 1.86-1.26c.25-2-3.43-3.74-3.43-3.74 2-4.11.18-5.25.18-5.25l.54-4.4c.37-3-3.94-8-3.94-8l-.46-2.8s.65.31 1.35-.75-3.19-2.91-3.19-2.91l-2.34-1.2-17 124.37-1.2-.34 17.59-125.48-1-.72a7.59 7.59 0 00-3.26-7 6.26 6.26 0 00-7.34.13l-17.66 129.65 10.61-117.48c-2.11-3.31-4.33-3-4.33-3a6.42 6.42 0 00-2.89-1.61 5.14 5.14 0 00-4.22-2.9l2.23-19.21c-2.93-.36-5.28 2-5.28 2a6.67 6.67 0 00-7.79-4.39L587.77 279l-1.54-.44 14.21-119.37c-2-.24-6.35 5.1-6.35 5.1-.93-5.06-6.8-2.69-6.8-2.69l-13.63 113.32-1.42-.4 13.29-122.47a10.85 10.85 0 00-8.54 7.78s-1.44-2.19-4.27-.53l-6.44 65.17s-.29 3.68 4 3.58c0 0-.82 14.92.45 19.72s-.46 7.53-.46 7.53l-7.56 4.7-.57 6-6.37 3.72-6.21 3.83-.74 6.06-11.94 6.4-6.48 84.44zM654.33 298l4.28-17.31-2.88 17.71zm-44.8-93.31l-6.38 78.72-2.66-.76zM532 301.2l-2.3 75.94-11.77 7.43 2.53-83.79zm-38.13 67.26L502.2 311l4.18-2.66 3.07-25.05 12.39-4.21-6.84 75.81-9.46-1-2.24 23zm67.2-143.7c-1.54-3.13-3.22-11.08-3.8-12.69s-.51-8.43-.51-8.43c-2.81-1.12.66-8 .66-8-2-5 .73-5.95 1.49-7.09s-.26-4.21-.26-4.21C557 180 560 179.43 560 179.43c.26-2.14 4.41-6.9 4.41-6.9 1-8.08 6.29-8.36 6.29-8.36L564.66 233c-3.57-1.23-3.59-8.24-3.59-8.24z" fill="none"/></clipPath></defs><path d="M297.53 42.78c-3.45-4.33-98.67-2.91-102.93 2.94-4.83 6.62-8.31 22.49-5.55 27.73s57.48 126.14 57.48 126.14 59.73-121.46 60.84-124.91-6.37-27.58-9.84-31.9z" fill="#262521" stroke="#262521" stroke-linecap="round" stroke-linejoin="round" stroke-width="3"/><path d="M372.14 291.55c-.18 41.16-.42 101.32-.62 142.47-.81 9-.4 13.05-5.5 20.56-2.9 8.57 2.28 22-.56 30.55-.59 1.77-2 1.67-3.35 1.44-44.59-7.74-100.65-5.76-145.64-3-24.6.57-59.87 1.33-84.22 5.1-5.22.59-5.68.27-6.62-4.82-1.35-11.26 4.11-20-1.29-29.55-7.67-13.53 1.68-116.15-.53-163.31-1.42 2.83-2.94 5.6-4.29 8.46-2.37 10.67-17.5 9.3-11.81 16.18 11.11 7.95 6.41 21.38 5.15 32.56-.25 3.15-1.35 6.27-.37 9.58.51 8.44-3.19 16.94-4.38 25.31-1.5 8-2.61 15.83-1.54 23.93a5.1 5.1 0 01-1.13 3.3c-5.71 6.28-7.75 14-9.19 22.06-.57 3.18-.61 3-3.74 2-12.38-3.52-26.09-4.38-38.6-1.18-1.39.34-2.11 0-2.41-1.47-2-7.76-2.18-16.67-8.49-22.43a6.62 6.62 0 01-1.33-3.22A144.46 144.46 0 0139 372.86c-1.91-63 2.6-126.93 26.19-186 13.61-35.43 24.56-73.32 48.07-103.67C140.54 65 171.5 59.77 201.93 48.75c.34-.11 1.61 18.07 30.35 29.82 3.28 2.33 15.77 91.43 15.77 91.43l8.82-76.73s-9 .53-8.93-.78c.57-6.84 1.55-13.67 1.55-13.67 40.69-11.39 43.51-30.1 44.87-29.54 29.12 10.49 58.17 13.72 84.56 30.93 15.94 14.59 21.63 38 30.45 57.21 27.81 67.48 58 137.39 51.05 212.08-1.19 18.65-.23 37.45-3.28 55.95-.49 4.66-5.21 7.09-5.56 11.78-1.22 5.28-2.08 10.65-2.91 16-.4 2.6-.41 2.83-3.08 2.33-12.48-2.66-25.26-5.49-37.8-1.58-8.34-.15-8.13-15.56-11.44-21.4-6.28-7.37-3.61-9-5.33-17.64-.9-9.7-4.68-20.27.79-29.26 2-3.53 1.86-7.05.51-10.66-4.9-11.28-7.4-23.41-10.45-35.29-1.07-4.3-1.31-8.49 1.61-12.34 1.51-7.23-10.43-8.68-10.93-15.93z" fill="#262521" stroke="#262521" stroke-linecap="round" stroke-linejoin="round"/><path d="M203.06 53.15c.34-.11.48 13.67 29.22 25.42 3.28 2.33 15.77 92.49 15.77 92.49l8.82-77.76s-8.2.21-8.93-.78S249 79 249.49 78.85c39.6-10.51 43.9-28.65 43.9-28.65" fill="none" stroke="#636363" stroke-linecap="round" stroke-linejoin="round"/><circle cx="253.94" cy="86.37" r="2.66" fill="#8d8d8d"/><circle cx="227.2" cy="84.6" r="2.66" fill="#8d8d8d"/><path fill="none" stroke-dasharray="1 3" stroke-linecap="round" stroke-linejoin="round" stroke-width="2" stroke="#95875a" d="M257.79 95.72l-8.08 74.31M234.6 92c3 17.09 11.93 78 11.93 78M247.71 171.06l4 281.06"/><path d="M249.55 167h-3a1.51 1.51 0 00-1.35 1.24q-.28 5.28-.58 10.54c0 .5-.05 1-.08 1.5a1.53 1.53 0 001.61 1.75h4.38a1.35 1.35 0 001.12-.69v-.05s0-.07.05-.1l.09-.2v-.06a1.29 1.29 0 00.05-.21 1.08 1.08 0 000-.31c-.2-3.51-.41-7-.62-10.54 0-.5 0-1-.08-1.5a1.52 1.52 0 00-1.59-1.37zm.53 9.24L250 179a1 1 0 01-1 1h-1.5a1 1 0 01-1-1l.05-2.77a1 1 0 011-1h1.5a1 1 0 011.03 1.04z" fill="#a9a8a4"/><path fill="none" stroke="#636363" stroke-linecap="round" stroke-linejoin="round" d="M335.92 145.15h-59.73v87.97"/><path fill="none" stroke-dasharray="1 3" stroke-linecap="round" stroke-linejoin="round" stroke-width="2" stroke="#95875a" d="M274.73 147.37v85.75"/><path d="M276.43 146.12h-3a1.51 1.51 0 00-1.35 1.24c-.19 3.51-.38 7-.58 10.54 0 .5-.05 1-.08 1.5a1.53 1.53 0 001.61 1.75h4.38a1.37 1.37 0 001.12-.69v-.05l.05-.1.09-.2v-.06a1.6 1.6 0 00.05-.21 1.08 1.08 0 000-.31c-.2-3.52-.41-7-.61-10.54l-.09-1.5a1.54 1.54 0 00-1.59-1.37zm.53 9.25v2.77a1 1 0 01-1 1h-1.5a1 1 0 01-1-1v-2.78a1 1 0 011-1h1.5a1 1 0 011.04 1.01z" fill="#a9a8a4"/><rect x="247.11" y="165.6" width="2.19" height="6.59" rx=".68" transform="rotate(180 248.205 168.89)" fill="#cbcac5"/><rect x="273.99" y="145.15" width="2.19" height="6.59" rx=".68" transform="rotate(180 275.085 148.445)" fill="#cbcac5"/><g clip-path="url(#a)"><g clip-path="url(#b)"><path fill="#e1e2e5" d="M674.658 422.459l-198.597-24.314 34.216-279.474 198.597 24.315z"/><path d="M497.23 330.89l-.22-2.46c4 8.83 4.82 2.31 8 4.13.55-1.9.29-4.32 1.35-5.95 1.13-.37 1.34 1.17 1.09 2-.67 4.47 1.72 8.79 2.3 13.28.4 3.1 1.46 2.52 3.68 1.91 1 .22.92 1.74 1.74 2.28s1.84.08 2.37.74c.47 4.71-.18 12.95-7.1 9.82-.73-.39-1.33.07-1.88.55-1.48 1-3.5-.46-4.06-2-3.9 4.69-.84 14.89-6.9 17.36-1.53-.47-1.27-2.42-.9-3.64 1.34-6.5-.14-13.4 2.1-19.8a41.51 41.51 0 01-1.57-18.22z" fill="#535a68"/><path d="M497.55 330.89l-.22-2.46-.59.16c.7 1.53 2 5 4.25 4.91 1.45-.08 2.33-1.48 3.86-.67a.32.32 0 00.47-.18 21.86 21.86 0 00.44-2.77 12.51 12.51 0 01.32-1.83c.05-.17.21-.87.37-1 .68-.41.77.44.78.81 0 .94-.24 1.89-.2 2.85a17.41 17.41 0 00.48 3.29c.55 2.44 1.43 4.8 1.84 7.27.17 1 .19 2.76 1.4 3.2a2.41 2.41 0 001.25 0c.32-.06.64-.23 1-.26.78-.06 1 .5 1.29 1.11a2.09 2.09 0 001.12 1.16 9.56 9.56 0 001 .17c.81.2.84.44.88 1.14.14 2.58.15 6.12-1.73 8.14-1.39 1.5-3.28 1-5 .39a1.85 1.85 0 00-1.92.31 2 2 0 01-2.33.17 3.59 3.59 0 01-1.55-1.78c-.08-.19-.36-.35-.53-.14-1.74 2.19-2.12 5-2.46 7.71-.38 2.86-.52 6.57-2.82 8.65-.69.62-1.7 1.35-2.17 0-.33-.95.15-2.07.32-3a44.87 44.87 0 00.54-6.85c.06-2.43.06-4.86.33-7.27a24.59 24.59 0 01.69-3.7 6.6 6.6 0 00.42-1.4 6.78 6.78 0 00-.48-1.57 42.24 42.24 0 01-1.09-16.6c0-.4-.59-.4-.64 0a44.21 44.21 0 00.76 15.47c.16.65.39 1.29.55 1.94a3.56 3.56 0 01-.13 2 25.25 25.25 0 00-.69 3.65c-.32 2.71-.3 5.44-.37 8.17 0 1.28-.09 2.57-.22 3.85s-.48 2.59-.66 3.91c-.13 1 .05 2.85 1.41 2.94 1 .08 2.3-1.44 2.8-2.16a11 11 0 001.53-4.22c.69-3.62.42-8 2.83-11.07l-.53-.14c.65 1.55 2.39 3.11 4.18 2.41.94-.38.83-.93 2.22-.6.38.09.74.29 1.11.39a5.24 5.24 0 002.26.14c3-.58 3.78-4.29 4-6.86a21.19 21.19 0 000-2.52c0-.62.11-1.43-.44-1.83-.93-.69-2-.05-2.71-1.32-.3-.58-.57-1.5-1.37-1.57s-1.57.72-2.36.47c-1-.32-1-2.16-1.15-3-.55-3.15-1.86-6.13-2.19-9.32a11 11 0 010-2.36 8.68 8.68 0 00.16-1.6 1.43 1.43 0 00-1-1.39c-1.88-.35-1.88 5.19-2.14 6.23l.46-.19c-1.3-.7-2.22-.18-3.45.35-2.35 1-3.71-2.8-4.44-4.37a.32.32 0 00-.59.16l.22 2.46c.08.43.66.43.63.02z" fill="#535a68"/><path d="M507.67 352.11L505 373.87a1.12 1.12 0 01-.19.6 1.06 1.06 0 01-.92.26 9.89 9.89 0 01-4-1 4.43 4.43 0 01-1.82-1.46c-.75-1.17-.52-2.69-.26-4.05l1.1-5.86c.36-1.88.7-3.86 0-5.66a12.71 12.71 0 01-.71-1.86 5.68 5.68 0 010-1.84l.67-5.2a1.2 1.2 0 01.32-.81c.35-.3.9-.09 1.24.21a4.13 4.13 0 001 .9 5 5 0 001.35.14 3 3 0 012.16 1.6 8.75 8.75 0 01.82 2.66" fill="#262521"/></g></g></svg>