<svg xmlns="http://www.w3.org/2000/svg" width="500" height="550" viewBox="0 0 500 550"><title>s04e09-01</title><path d="M203.52,97.3c8.68,9.61,67.43,10.59,79.89,10.78,13,.21,32.67-43.61,34.06-50,.1-.45.18-.91.28-1.37-8.86-2.46-17.68-5-26.27-8.07-3.67-1.54-5,3.72-7.87,5C266.25,64.05,244.15,60.93,225,58.5c-7.1-1.26-13.56-4.12-18.56-9.67a3.16,3.16,0,0,0-2.72-.43c-5.64,2-11.36,3.9-17.1,5.68C187.38,57.36,198.11,91.29,203.52,97.3Z" fill="#262521"/><path d="M372.14,291.56q-.27,61.72-.62,123.46c-.81,9-2.68,16.41-3.55,25.44-1,10.07,1.34,19.05-1.5,27.64-.59,1.76-2,1.66-3.35,1.43-44.59-7.74-101.66-5.72-146.65-2.92-24.6.57-57.12-1.68-81.47,2.09-5.23.59-5.68.27-6.62-4.83-1.35-11.25.44-20.53-1-31.31-6.15-46.81-1.39-94.37-3.6-141.53-1.42,2.83-2.94,5.6-4.29,8.46-2.37,10.68-17.5,9.3-11.81,16.18,11.11,7.95,6.41,21.38,5.15,32.56-.25,3.15-1.35,6.27-.37,9.58.51,8.44-3.19,16.94-4.38,25.31-1.22,6.46-10.14,39.72-11.86,49.29-.57,3.18-.61,3-3.74,2-12.38-3.52-26.09-4.38-38.6-1.18-1.39.34-2.11,0-2.41-1.47-2-7.76.82-18.17-5.49-23.93a6.62,6.62,0,0,1-1.33-3.21c-2.23-11-6.07-20.62-5.72-31.81-1.91-63,2.6-126.93,26.19-186,13.61-35.43,24.56-73.32,48.07-103.67,27.32-18.2,60-23.76,90.46-34.78.8-.26,4.93,46.66,41.09,46.66,46.16,0,44-48.47,47.71-46.93,29.12,10.49,60,14.91,86.44,32.08,15.94,14.59,21.63,38,30.45,57.21,27.81,67.48,58,137.39,51.05,212.08-1.19,18.65-.23,35.45-3.28,53.95-.49,4.66-7.64,24.43-8.47,29.79-.4,2.6-.41,2.83-3.08,2.33-12.48-2.66-25.26-5.49-37.8-1.58-8.34-.15-8.13-17.56-11.44-23.4-6.28-7.37-3.61-9-5.33-17.64-.9-9.7-4.68-18.27.79-27.26,2-3.53,1.86-7.05.51-10.66-4.9-11.28-7.4-23.41-10.45-35.29-1.07-4.3-1.31-8.49,1.61-12.34,1.51-7.23-10.43-8.68-10.93-15.92Z" fill="#262521"/><path d="M372.14,291.56c-.18,41.15-.42,74.31-.62,115.46-.81,9-2.68,15.41-3.55,24.44-5.46,6.81-105.75,5.8-149,5.81-24.59.58-90.6-3.11-90.6-3.11-6.15-46.82-2.34-96-4.55-143.13-1.42,2.83-2.94,5.6-4.29,8.46-2.37,10.68-17.5,9.3-11.81,16.18,11.11,7.95,6.41,21.38,5.15,32.56-.25,3.15-1.35,6.27-.37,9.58.51,8.44-3.19,16.94-4.38,25.31-1.5,8-3.79,13.57-5.23,21.59-.57,3.17-58,1.08-58.2,0-2.23-11-6.07-20.62-5.72-31.81-1.91-63,2.6-126.93,26.19-186,13.61-35.43,24.56-73.32,48.07-103.67,27.32-18.2,76-29.93,76-29.93s8,56.76,56.84,57.53c50.52.8,59.31-57.62,59.31-57.62,29.12,10.5,47.15,9.88,73.54,27.05,15.94,14.59,21.63,38,30.45,57.21,27.81,67.48,58,137.39,51.05,212.08-1.19,18.65-.73,55.12-5,58.78-1,1.47-60,2.46-61.41-1.06-3.56-9-1.25-5.6-3-14.27-.9-9.7-4.68-18.27.79-27.26,2-3.53,1.86-7.05.51-10.66-4.9-11.28-7.4-23.41-10.45-35.29-1.07-4.3-1.31-8.49,1.61-12.34,1.51-7.23-10.43-8.68-10.93-15.92Z" fill="#33322e"/><path d="M447.47,335.49a91.69,91.69,0,0,1-15.9,2.15,165.81,165.81,0,0,1-16.83-.52c-2.8-.18-5.62-.24-8.4-.53-2.6-.27-5.18-.71-7.75-1.18a74.78,74.78,0,0,0-13-1.57,161.43,161.43,0,0,0,5,16.3c4.72.63,9.34,1.82,14,2.68a91,91,0,0,0,16.66,1c5.09,0,10.2.06,15.29-.21,8.05-.44,16.33-1.67,23.9-4.61h0c.55-5.82.84-11.61.94-17.37A141.38,141.38,0,0,1,447.47,335.49Z" fill="#fff"/><path d="M98.06,371.54a150.77,150.77,0,0,1-32.18-2c-5.65-1-11.49-1.87-16.93-3.69a102.88,102.88,0,0,0-10.24-3.35q.09,5.19.25,10.36c-.35,11.19,3.49,20.78,5.72,31.81.24,1.12,57.63,3.21,58.2,0,1.44-8,3.73-13.61,5.23-21.59.6-4.22,1.83-8.47,2.85-12.74C106.68,371,102.37,371.35,98.06,371.54Z" fill="#fff"/><path d="M97.75,339.58a129,129,0,0,1-31.48-4.77c-9-2.43-18.1-5.45-27.42-6.37q-.24,8.34-.27,16.67c4.18.81,8.32,1.89,12.43,3,10.4,2.91,20.82,6.41,31.67,7.12,9.88.64,19.73-.33,29.49-1.81.17-1.76.55-3.49.69-5.23.35-3.07,1-6.31,1.42-9.56A106.21,106.21,0,0,1,97.75,339.58Z" fill="#fff"/><path d="M447.14,369.11a149,149,0,0,1-28.48,1c-9.35-.46-18.67-1.41-28-2.24C387,376.09,390.19,384,391,393c1.72,8.67-.59,5.27,3,14.27,1.39,3.52,60.39,2.53,61.41,1.06,3.16-2.7,3.74-23.23,4.31-41.32C455.53,367.76,451.35,368.51,447.14,369.11Z" fill="#fff"/><path d="M94.62,384.53c-10.18.66-20.21.83-30.32-.74-8.43-1.31-16.73-3.35-25.14-4.8.83,8.69,3.71,16.71,5.52,25.68.24,1.12,57.63,3.21,58.2,0,1.4-7.79,3.59-13.31,5.09-20.92C103.51,383.93,99.06,384.24,94.62,384.53Z" fill="#ae3333"/><path d="M447.71,385.84a147.31,147.31,0,0,1-15.25,1.73c-5.2.29-10.44.18-15.65.12s-10.41-.24-15.6-.64c-3.7-.29-7.46-1.05-11.19-1,.39,2.26.78,4.56,1,6.93,1.72,8.67-.59,5.27,3,14.27,1.39,3.52,60.39,2.53,61.41,1.06,2.19-1.87,3.14-12.27,3.71-24.49C455.31,384.52,451.52,385.23,447.71,385.84Z" fill="#ae3333"/><g opacity="0.2"><path d="M372.14,288.06l.38-.08c-1.17-69.2-1.19-102.82-1.19-102.82s-15.94,62.64-11.7,198.38c1.25,39.86-70,44.15-102.84,47-15.68,1-31.39.38-47.05,1.75-34.46,2.66-67,8.51-84.55-28.45.86,10.69.81,21.05,3.17,30.86-4,1.55,230.16,6,239.61-2.7C375.26,382.77,370.48,337.68,372.14,288.06Z" fill="#fff"/></g><g opacity="0.2"><path d="M206.1,100.06c1,1.91,2.12,3.8,3.15,5.71a51.06,51.06,0,0,0,8.67,11.52c6,6,13.46,11.46,21.82,13.64,7.26,1.9,15.17.67,22.37-1.33,15.59-4.33,28.94-26.13,30-36.16l-.1-.19C276.65,124,226.76,130,205.74,97.63l-.48.84C205.53,99,205.82,99.54,206.1,100.06Z" fill="#fff"/></g><path d="M372.14,291.56q-.27,61.72-.62,123.46c-.81,9-2.68,16.41-3.55,25.44-1,10.07,1.34,19.05-1.5,27.64-.59,1.76-2,1.66-3.35,1.43-44.59-7.74-101.66-5.72-146.65-2.92-24.6.57-57.12-1.68-81.47,2.09-5.23.59-5.68.27-6.62-4.83-1.35-11.25.44-20.53-1-31.31-6.15-46.81-1.39-94.37-3.6-141.53-1.42,2.83-2.94,5.6-4.29,8.46-2.37,10.68-17.5,9.3-11.81,16.18,11.11,7.95,6.41,21.38,5.15,32.56-.25,3.15-1.35,6.27-.37,9.58.51,8.44-3.19,16.94-4.38,25.31-1.22,6.46-10.14,39.72-11.86,49.29-.57,3.18-.61,3-3.74,2-12.38-3.52-26.09-4.38-38.6-1.18-1.39.34-2.11,0-2.41-1.47-2-7.76.82-18.17-5.49-23.93a6.62,6.62,0,0,1-1.33-3.21c-2.23-11-6.07-20.62-5.72-31.81-1.91-63,2.6-126.93,26.19-186,13.61-35.43,24.56-73.32,48.07-103.67,27.32-18.2,60-23.76,90.46-34.78a3.16,3.16,0,0,1,2.72.43c5,5.55,11.46,8.41,18.56,9.67,19.19,2.43,41.29,5.55,58.65-4.88,2.85-1.27,4.2-6.53,7.87-5,29.12,10.49,61,14.41,87.44,31.58,15.94,14.59,21.63,38,30.45,57.21,27.81,67.48,58,137.39,51.05,212.08-1.19,18.65-.23,35.45-3.28,53.95-.49,4.66-7.64,24.43-8.47,29.79-.4,2.6-.41,2.83-3.08,2.33-12.48-2.66-25.26-5.49-37.8-1.58-8.34-.15-8.13-17.56-11.44-23.4-6.28-7.37-3.61-9-5.33-17.64-.9-9.7-4.68-18.27.79-27.26,2-3.53,1.86-7.05.51-10.66-4.9-11.28-7.4-23.41-10.45-35.29-1.07-4.3-1.31-8.49,1.61-12.34,1.51-7.23-10.43-8.68-10.93-15.92Z" fill="none" stroke="#262521" stroke-linecap="round" stroke-linejoin="round" stroke-width="3"/><path d="M204.41,48.28s4,48.55,43.68,46.73S290.93,49.6,290.93,49.6" fill="none" stroke="#636363" stroke-linecap="round" stroke-linejoin="round"/><path d="M121.8,180.85s2.11,28.61,0,44.24.11,29.7.11,32.88,1.9,33.06,1.9,33.06" fill="none" stroke="#262521" stroke-linecap="round" stroke-linejoin="round" stroke-width="3"/><path d="M371.33,188.66s1.59,62.14.81,102.9" fill="none" stroke="#262521" stroke-linecap="round" stroke-linejoin="round" stroke-width="3"/><line x1="247.67" y1="112.56" x2="247.67" y2="435.63" fill="none" stroke="#636363" stroke-linecap="round" stroke-linejoin="round" opacity="0.43"/><polygon points="291.2 124.14 319.56 125.29 297.63 107.41 305.38 134.45 314.89 108.03 291.2 124.14" fill="#fff" stroke="#fff" stroke-linecap="round" stroke-linejoin="round" stroke-width="3"/><polygon points="320 79.82 348.36 78.67 326.43 96.55 334.18 69.52 343.69 95.94 320 79.82" fill="#fff" stroke="#fff" stroke-linecap="round" stroke-linejoin="round" stroke-width="3"/><polygon points="233.49 136.31 261.85 135.16 239.92 153.04 247.67 126 257.18 152.43 233.49 136.31" fill="#fff" stroke="#fff" stroke-linecap="round" stroke-linejoin="round" stroke-width="3"/><polygon points="148.61 79.82 176.97 78.67 155.04 96.55 162.79 69.52 172.3 95.94 148.61 79.82" fill="#fff" stroke="#fff" stroke-linecap="round" stroke-linejoin="round" stroke-width="3"/><polygon points="177.41 124.14 205.76 125.29 183.84 107.41 191.59 134.45 201.1 108.03 177.41 124.14" fill="#fff" stroke="#fff" stroke-linecap="round" stroke-linejoin="round" stroke-width="3"/></svg>