<svg xmlns="http://www.w3.org/2000/svg" width="500" height="550" viewBox="0 0 500 550"><defs><clipPath id="a"><path d="M-147.86 291.56C-148 332.71-394 338.19-396.19 291c-1.42 2.83-2.94 5.6-4.29 8.46-2.37 10.68-17.5 9.3-11.81 16.18 11.11 7.95 6.41 21.38 5.15 32.56-.25 3.15-1.35 6.27-.37 9.58.51 8.44-3.19 16.94-4.38 25.31-1.5 8-69.5.93-69.15-10.26-1.91-63 2.6-126.93 26.19-186 4.21-11 24.24-90.24 69.07-99.29 100-20.2 269.06 36.59 275.15 49.86 27.81 67.48 58 137.39 51.05 212.08-1.19 18.65-.23 37.45-3.28 55.95-.49 4.66-64.4-1.83-66.12-10.5-.9-9.7-4.68-20.27.79-29.26 2-3.53 1.86-7.05.51-10.66-4.9-11.28-7.4-23.41-10.45-35.29-1.07-4.3-1.31-8.49 1.61-12.34 1.51-7.23-10.43-8.68-10.93-15.92z" fill="none"/></clipPath><clipPath id="b"><path d="M-31.71 369.27l-10.7-84-12.24-5.8-1.05-6-6.39-3.51-6.54-3.39-.88-5.93-7.76-4.27s-1.86-2.64-.83-7.5-.54-19.71-.54-19.71c4.27-.12 3.79-3.78 3.79-3.78l-9.68-64.77c-2.92-1.52-4.24.74-4.24.74A10.86 10.86 0 00-97.7 154l19.39 121.65-1.4.48L-99 163.57s-6-2.08-6.65 3c0 0-4.63-5.13-6.6-4.78l20.16 118.51-1.51.52-22.79-137.72a6.68 6.68 0 00-7.56 4.77 7.15 7.15 0 00-5.37-1.72l3.18 19.08a5.12 5.12 0 00-4.06 3.1 6.51 6.51 0 00-2.81 1.76s-2.23-.22-4.17 3.19l16.47 116.81-24.19-128.69a6.25 6.25 0 00-7.34.24 7.58 7.58 0 00-2.9 7.19l-1 .77 23.84 124.44-1.18.41-23.2-123.37-2.28 1.31s-3.79 2.05-3 3.07 1.39.68 1.39.68l-.32 2.82s-4.06 5.21-3.53 8.23l.76 4.37s-1.75 1.22.44 5.23c0 0-3.59 1.89-3.24 3.9 0 0 1.57.54 1.92 1.17s-1.57.85-1.57.85a3.15 3.15 0 012.13 2.4s-2.15.83-.75 2.21 2.76 3.32 2.83 5-1.08 5.72 1.55 5.61c0 0 .73 4.84 2.41 5.24a4.84 4.84 0 003.92-.68c1.15-.67 2.59 5.59 3.49 6.16s3 6.09 3.22 7.9.71 8.75 2.15 8.39c0 0 .93 2.72 1.75 4.77s3.3 15.69 3.3 15.69l-2.72.47-9.92-33.78-9.3 8.73 15.42 58.1-1 .34-19-62.22L-176 247l1.68 7.39-8.72 4.34 4.58 22.9-8.44 1.47 2 11.3-5.09.84 2.88 16.59 5.11-.83 5.9 40.6 8.84 2.79-5.1-44.35 11.51 70.47 12.76 3-9-58.38 7.54 38.46 13.08-.11-13.47-63.29.61-.2 13.33 47.18 9.65-1.67 5.07 24.76L-109 373l-4.33-29 1.51-.4 4.47 25.73 7.28 1.19 2 11.75 10.76-6.27-10.5-93.75 2.3-.79 13.07 78.57 12.59-2.19L-82.36 277l1.54-.52 17.18 99.75 12.09-3.39L-69 272.47l1.64-.56 12.15 80 10-2.89 3.81 22zm-128.79-65.65l-3.76-17.55 5.14 17.08zm54.39-18.5l-2.63.9-10.3-78.3zm80.83 14.17l6.73 83.54-12.14-6.83-6.09-75.74zm-47.53-65.51l-9.5-68.43s5.31 0 6.7 8c0 0 4.37 4.55 4.74 6.67 0 0 3 .41 1.63 4.86 0 0-.87 3.12-.05 4.22s3.6 1.87 1.84 7c0 0 3.81 6.67 1.06 7.93 0 0 .4 6.79-.09 8.44s-1.77 9.67-3.16 12.87c0 .05.33 7.05-3.17 8.44z" fill="none"/></clipPath></defs><g clip-path="url(#a)"><g clip-path="url(#b)"><path d="M-24.23 116.87l-197.13 34.22 48.16 277.41 197.13-34.22z" fill="#e1e2e5"/><path d="M-.57 328.19l.1-2.46c-3.58 9-4.7 2.55-7.79 4.52-.64-1.87-.5-4.3-1.64-5.88-1.15-.31-1.28 1.24-1 2 .89 4.44-1.28 8.88-1.64 13.38-.24 3.12-1.33 2.6-3.57 2.1-.95.26-.83 1.78-1.63 2.37s-1.84.16-2.32.85c-.24 4.72.82 12.92 7.58 9.45.7-.42 1.32 0 1.9.45 1.52.9 3.47-.63 4-2.23 4.12 4.5 1.58 14.83 7.75 17 1.51-.55 1.15-2.48.72-3.68-1.66-6.42-.53-13.39-3.09-19.67a41.39 41.39 0 00.63-18.2z" fill="#535a68"/><path d="M-.25 328.19l.1-2.46c0-.39-.5-.4-.63-.09-.64 1.59-1.81 5.41-4.19 4.52-1.24-.46-2.19-.94-3.45-.19l.47.19c-.37-1.17-.48-2.39-.74-3.59-.14-.65-.44-2.18-1.12-2.51-1.61-.75-1.48 1.9-1.35 2.64.59 3.2-.45 6.42-1.12 9.52-.28 1.31-.43 2.61-.6 3.94s-.55 1.93-1.88 1.69c-.61-.11-1.23-.48-1.8-.1-1 .66-.61 2-1.91 2.45-.58.2-1.52.06-1.86.74a5.82 5.82 0 00-.05 2.32c.11 2.68.56 6.7 3.3 8.06a4 4 0 002.33.33c1.23-.16 2.53-1.14 3.72-.59a2.67 2.67 0 002.7.2 4.21 4.21 0 002-2.4l-.53.14c2.28 2.58 2.47 6.42 3.11 9.65.55 2.76 1.44 5.91 4.23 7.2 1.24.57 2-.65 2.05-1.82a6.76 6.76 0 00-.39-2 27.07 27.07 0 01-.77-4.48c-.29-2.65-.37-5.33-.66-8-.12-1.13-.28-2.25-.51-3.37-.28-1.32-1.17-3-1-4.33s.66-2.85.85-4.31a40.51 40.51 0 00.33-4.4 50.42 50.42 0 00-.7-9c-.07-.4-.68-.23-.61.17a43.25 43.25 0 010 15.39 13.65 13.65 0 00-.66 2.83 8.54 8.54 0 00.6 1.69c.17.57.32 1.14.45 1.72a51.31 51.31 0 01.92 7.62 60.13 60.13 0 00.7 6.7c.17.93 1.82 6.1-.65 4.9-2.71-1.31-3.3-5-3.78-7.63-.57-3.08-.94-6.51-3.09-8.95a.32.32 0 00-.53.14c-.44 1.23-1.71 2.57-3.13 2.15-.77-.23-1.28-.93-2.16-.74s-1.64.78-2.58.92a3.41 3.41 0 01-2.15-.34c-2.5-1.4-2.77-5.42-2.82-7.93a5.57 5.57 0 010-1.08c.12-.55.33-.62.88-.76s1.17-.16 1.62-.69.52-2 1.48-1.94c.58 0 1.14.31 1.73.29 1.11 0 1.54-.85 1.72-1.85s.24-2.17.45-3.24c.24-1.31.57-2.6.85-3.9a18.16 18.16 0 00.42-7.37 3.3 3.3 0 01-.09-.63c0-.29.25-.95.71-.76s.6 1.53.69 1.92c.26 1.2.37 2.42.73 3.59a.32.32 0 00.47.19c1.52-.9 2.48.49 3.95.47 2.24 0 3.34-3.59 4-5.18l-.63-.08-.1 2.46c.03.38.66.38.68-.03z" fill="#535a68"/><path d="M-9.93 349.9l3.75 21.6a1.25 1.25 0 00.22.6 1.08 1.08 0 00.93.21 9.94 9.94 0 003.94-1.21 4.28 4.28 0 001.74-1.55c.69-1.2.38-2.71.06-4.06l-1.4-5.79c-.44-1.86-.89-3.83-.31-5.65a12 12 0 00.62-1.9 5.93 5.93 0 00-.12-1.83l-.93-5.17a1.19 1.19 0 00-.36-.79 1 1 0 00-1.23.28 4.16 4.16 0 01-1 .94 4.58 4.58 0 01-1.34.21 3 3 0 00-2.07 1.71 8.52 8.52 0 00-.69 2.7" fill="#262521"/></g></g><path d="M372.14 291.56q-.27 61.72-.62 123.46c-.81 9-2.68 16.41-3.55 25.44-1 10.07 1.34 17.05-1.5 25.64-.59 1.76-2 1.66-3.35 1.43-44.59-7.74-101.66-5.72-146.65-2.92-24.6.57-58.62-1.68-83 2.09-5.23.59-5.68.27-6.62-4.83-1.35-11.26 1.94-18.53.53-29.31-6.15-46.81-1.39-94.37-3.6-141.53-1.42 2.83-2.94 5.6-4.29 8.46-2.37 10.68-17.5 9.3-11.81 16.18 11.11 7.95 6.41 21.38 5.15 32.56-.25 3.15-1.35 6.27-.37 9.58.51 8.44-3.19 16.94-4.38 25.31-1.5 8-2.61 15.83-1.54 23.93a5.1 5.1 0 01-1.13 3.3c-5.71 6.28-7.75 14-9.19 22.06-.57 3.18-.61 3-3.74 2-12.38-3.52-26.09-4.38-38.6-1.18-1.39.34-2.11 0-2.41-1.47-2-7.76-2.18-16.67-8.49-22.43a6.62 6.62 0 01-1.33-3.21A144.54 144.54 0 0139 372.86c-1.91-63 2.6-126.93 26.19-186 13.61-35.43 24.56-73.32 48.07-103.67 27.32-18.2 60-23.76 90.46-34.78a3.16 3.16 0 012.72.43c5 5.55 11.46 8.41 18.56 9.67 19.19 2.43 41.29 5.55 58.65-4.88 2.85-1.27 4.2-6.53 7.87-5 29.12 10.49 61 14.41 87.44 31.58 15.94 14.59 21.63 38 30.45 57.21 27.81 67.48 58 137.39 51.05 212.08-1.19 18.65-.23 37.45-3.28 55.95-.49 4.66-5.21 7.1-5.56 11.78-1.22 5.28-2.08 10.65-2.91 16-.4 2.6-.41 2.83-3.08 2.33-12.48-2.66-25.26-5.49-37.8-1.58-8.34-.15-8.13-15.56-11.44-21.4-6.28-7.37-3.61-9-5.33-17.64-.9-9.7-4.68-20.27.79-29.26 2-3.53 1.86-7.05.51-10.66-4.9-11.28-7.4-23.41-10.45-35.29-1.07-4.3-1.31-8.49 1.61-12.34 1.51-7.23-10.43-8.68-10.93-15.92z" fill="#262521" stroke="#262521" stroke-linecap="round" stroke-linejoin="round" stroke-width="3"/><path d="M190.25 91.52V91.98q-.13.84-.3 1.68a42.22 42.22 0 01-1.5 5.42c-1.72 4.9-4.5 9.63-8.81 12.66-.79.55 0 1.85.75 1.3 4.53-3.18 7.48-8 9.35-13.13a36.8 36.8 0 002.08-8.39c.1-1-1.4-1-1.5 0z" fill="#44433f"/><path d="M180.43 97.79a54.54 54.54 0 01.12 6.52 32.06 32.06 0 01-.57 5.27 8.71 8.71 0 01-1.59 4c-1 1.13-2.27 1-3.56.26-.85-.47-1.61.83-.76 1.29 8 4.37 8.11-10.16 8-14.52 0-.93-.06-1.86-.14-2.78s-1.58-1-1.5 0z" fill="#44433f"/><path d="M175.94 98.09a54.93 54.93 0 01-.28 7.59 26.28 26.28 0 01-1.12 5.62 8.62 8.62 0 01-1 2.1 3.24 3.24 0 01-1.24 1.13 1.88 1.88 0 01-.87.16 3.06 3.06 0 01-1.1-.26 9.63 9.63 0 01-2.94-2.18c-.69-.68-1.75.38-1.06 1.06 1.42 1.41 3.36 3.07 5.51 2.86a4.7 4.7 0 003.55-3c1.72-3.6 2-8 2.05-11.89v-3.19c0-1.06-1.54-1-1.5 0z" fill="#44433f"/><path d="M172.21 97.47a45.19 45.19 0 01-2.18 7.46 21.06 21.06 0 01-2.69 5.15c-.88 1.17-2.1 2.27-3.49 2.29-2.37 0-4.29-2.6-5.5-4.39-.54-.8-1.84 0-1.3.75 1.36 2 3.17 4.39 5.67 5a5.14 5.14 0 004.83-1.62 16.35 16.35 0 003.27-5.19 44 44 0 002-5.81c.3-1.07.58-2.15.8-3.24s-1.26-1.35-1.45-.4z" fill="#44433f"/><path d="M166.15 92.27a64.58 64.58 0 01-3.26 7.78 30.19 30.19 0 01-3.26 5.43 9.33 9.33 0 01-1.72 1.72 5.05 5.05 0 01-.82.47 1.79 1.79 0 01-.79.14 2 2 0 01-.76-.25 3.44 3.44 0 01-.89-.83 12.52 12.52 0 01-1.78-3.81c-.29-.92-1.74-.53-1.44.39.66 2.07 1.65 4.94 3.89 5.8 1.64.62 3.25-.36 4.39-1.48a21.85 21.85 0 003.74-5.39 63.17 63.17 0 002.84-6.14c.46-1.13.91-2.27 1.3-3.43.32-.91-1.13-1.31-1.44-.4z" fill="#44433f"/><path d="M162.18 88.46a43.55 43.55 0 01-3.82 6.88 21.37 21.37 0 01-3.87 4.5 5.33 5.33 0 01-4.22 1.51c-2.59-.52-4.06-3.62-5-5.78-.39-.88-1.68-.12-1.3.76 1 2.34 2.49 5 4.95 6.14a5.6 5.6 0 005.21-.54c3.54-2.12 5.95-6.15 7.86-9.7.53-1 1-2 1.49-3 .38-.88-.91-1.64-1.29-.76z" fill="#44433f"/><path d="M156.23 82.48a24.69 24.69 0 01-5.72 9.74 9 9 0 01-7.23 3c-2.17-.23-3-1.76-2.83-3.79a11.22 11.22 0 01.63-2.81 10.93 10.93 0 01.49-1.25c.42-.87-.88-1.63-1.29-.76-1.38 2.89-2.63 8 1.14 9.67 2.79 1.21 6.22.17 8.54-1.57a20.44 20.44 0 005.51-6.77 30.46 30.46 0 002.21-5c.29-.92-1.15-1.31-1.45-.39z" fill="#44433f"/><path d="M152.48 76a37.91 37.91 0 01-4 5.18 21.24 21.24 0 01-3.91 3.49 5.89 5.89 0 01-4 1.24c-2.07-.31-3.17-2.56-3.82-4.31-.33-.9-1.78-.51-1.44.4.73 2 1.81 4.12 3.83 5a5.7 5.7 0 004.77-.29c3.35-1.55 5.95-4.7 8.13-7.58.59-.78 1.18-1.58 1.7-2.41s-.77-1.57-1.29-.75z" fill="#44433f"/><path d="M149.52 71.08a51.89 51.89 0 01-5.25 5.13 26.9 26.9 0 01-4.57 3.22c-1.15.61-2.68 1.28-4 .88-1.86-.58-2.14-3.24-2.24-4.87-.06-1-1.56-1-1.5 0 .12 2 .48 4.49 2.24 5.78a4.87 4.87 0 004.56.25c3.69-1.35 6.84-4.29 9.58-7 .76-.75 1.51-1.52 2.21-2.32s-.42-1.78-1.06-1.06zM181.81 110.69c2.19 3.6 2.2 8.6 2.29 12.66a163.5 163.5 0 01-.81 17.84c-.48 5.27-1.1 10.53-1.71 15.79a30 30 0 00-.05 8.09 39 39 0 002.69 9.1 57.48 57.48 0 006.2 11.3c.34.47 1.23.51 1.37-.18a117 117 0 001.81-17.72c.34-7.5.41-15 .38-22.52-.06-12.25-.41-24.49-1-36.73a25.14 25.14 0 00-.15-3.13c-.12-.72-.8-1.25-1.27-1.78l-2.56-2.94c-.64-.72-1.7.34-1.06 1.06l2.15 2.42a18.52 18.52 0 001.25 1.41c.54.5-.15 0 0-.21-.24.26.1 2.09.12 2.42q.32 6.93.54 13.85c.46 14.45.73 28.93.19 43.38-.25 6.69-.53 13.51-1.86 20.09l1.37-.18a55.85 55.85 0 01-5.33-9.32 43.35 43.35 0 01-3.1-9 26.73 26.73 0 01-.29-8.74c1.28-11.08 2.74-22.23 2.61-33.4a57.32 57.32 0 00-.61-8.38 16.34 16.34 0 00-1.89-5.94.75.75 0 00-1.3.76z" fill="#44433f"/><path d="M172.05 168.62c3.35 2.67 2.22 7.94 1.78 11.58-.66 5.52-1.28 11.21-.57 16.76a13.42 13.42 0 002.56 7 .75.75 0 001.06 0 11.61 11.61 0 002.18-3.82 58.82 58.82 0 003.59-14.74c.72-5.14 1.09-10.32 1.3-15.5 0-1-1.47-1-1.5 0a119.81 119.81 0 01-2.73 23.2 30.81 30.81 0 01-3.27 8.93l-.3.45c-.08.13-.19.34-.13.19a.72.72 0 01-.2.23h1.06c-1.51-1.82-2-4.43-2.2-6.71a50.86 50.86 0 01-.06-8.55c.17-2.72.46-5.42.79-8.12.31-2.54.74-5.08.13-7.62a8.18 8.18 0 00-2.43-4.37c-.75-.59-1.82.46-1.06 1.06z" fill="#44433f"/><path d="M175.69 115.12c.06 6.93-.23 13.87-.61 20.78a365.89 365.89 0 01-5.21 46 203.62 203.62 0 01-6.8 27.33l.92-.52c-2.23-.72-4.08-3.3-4.74-5.66-.91-3.23-.32-6.72.21-10 .45-2.77 1.1-5.51 1.38-8.3a11.43 11.43 0 00-1.37-7.26.75.75 0 00-1.3.75 10.57 10.57 0 011.13 6.94c-.38 3.2-1.16 6.35-1.6 9.54-.66 4.87-.77 10.46 3.36 13.9a7.59 7.59 0 002.54 1.5.76.76 0 00.92-.52c5.26-15.9 8.1-32.56 10-49.17a417.32 417.32 0 002.59-38c.06-2.43.1-4.86.08-7.29a.75.75 0 00-1.5 0z" fill="#44433f"/><path d="M171.56 115.55a141.69 141.69 0 01-1.72 18.27 174.75 174.75 0 01-10.7 40.33A120.39 120.39 0 01146 198.43l1.37.18a60.29 60.29 0 01-2.37-11.89c-.23-2.85.4-5.58.4-8.42a5.64 5.64 0 00-.51-3.06c-.58-.76-1.88 0-1.3.76a1.6 1.6 0 01.18.57 10.78 10.78 0 01.1 2.78c-.08 1.47-.38 2.91-.44 4.37a26.05 26.05 0 00.16 3.95 66.28 66.28 0 002.3 11.34.76.76 0 001.37.18c9.25-13.06 15.44-28.08 19.56-43.48A189.28 189.28 0 00172.7 122c.17-2.13.33-4.27.36-6.4a.75.75 0 00-1.5 0z" fill="#44433f"/><path d="M166.14 112.58c-1.34 5.93-3 11.8-4.75 17.62a249.14 249.14 0 01-13.61 36.1 109.14 109.14 0 01-11.15 18.8h1.3a36.17 36.17 0 01-2.83-7c-1.32-4.45-2-9.53-.12-13.93.38-.87-.91-1.64-1.29-.75-3.06 7.07-.61 15.94 2.94 22.43a.77.77 0 001.3 0c8-10.55 13.48-23 18.16-35.29a308.42 308.42 0 009.91-31.3c.55-2.08 1.09-4.17 1.56-6.28.22-.94-1.23-1.34-1.44-.4z" fill="#44433f"/><path d="M152.36 117c-1.48 4.85-3.12 9.65-4.81 14.44a200.58 200.58 0 01-10.55 25.5c-1.67 3.21-3.5 6.79-6.3 9.2h1.06a13.35 13.35 0 01-3-12.89c.28-.92-1.17-1.32-1.45-.4a14.89 14.89 0 003.37 14.35.76.76 0 001.06 0c2.42-2.08 4.11-5 5.63-7.81a126.21 126.21 0 005.76-12.3c3.33-8 6.24-16.13 8.93-24.34.59-1.79 1.17-3.58 1.72-5.37a.75.75 0 00-1.45-.4z" fill="#44433f"/><path d="M151.43 102.92c-3.06 7.62-6.34 15.15-9.77 22.61-2.72 5.91-5.54 11.79-8.67 17.49-2.3 4.2-4.7 8.8-8.14 12.2a9.07 9.07 0 01-.92.83c-.14.11-.29.19-.42.29s.42 0 .17 0a7.67 7.67 0 01-1.71-.51c-3.67-1.64-5.53-5.65-6.52-9.32a.75.75 0 00-1.45.4c1 3.62 2.68 7.25 5.85 9.44 1 .65 2.85 1.79 4.11 1.47a5.31 5.31 0 001.86-1.41 22.83 22.83 0 001.89-2.16 59.54 59.54 0 004.33-6.49c6.65-11.2 11.92-23.27 17-35.23 1.3-3 2.59-6.11 3.82-9.19.36-.89-1.09-1.28-1.44-.39zM132.55 77.35a70.9 70.9 0 00-10.15 14 28.31 28.31 0 00-3.32 9.8 40.63 40.63 0 01-1.8 6.85 186.31 186.31 0 01-7.86 19.6 134.15 134.15 0 01-9.22 17.52c-.94 1.44-2.12 3.57-3.74 4.34-2.93 1.38-5.79-.78-6.94-3.42-.38-.88-1.67-.12-1.29.76a7.57 7.57 0 005.16 4.48 6 6 0 005.84-2.3c3.83-4.5 6.47-10.2 9-15.46a226.1 226.1 0 009-20.82 86.38 86.38 0 002.72-8.44c.69-2.66.82-5.38 1.79-8a50.29 50.29 0 017.09-12.06c1.51-2 3.09-4 4.78-5.82.66-.7-.4-1.77-1.06-1.06z" fill="#44433f"/><path d="M135.53 81.26a40.32 40.32 0 00-7.77 10.49 17.53 17.53 0 00-2 8c0 3.23.45 6.45.74 9.66a68.43 68.43 0 01.37 10.9 27.32 27.32 0 01-2.73 10.17 90.39 90.39 0 01-5.3 9.71 30.09 30.09 0 01-5.26 6.81c-.64.56-1.2 1-2.05.71a12.62 12.62 0 01-3.46-2.22 51.22 51.22 0 01-4.55-4.16c-.67-.69-1.73.37-1.06 1.06a52 52 0 004 3.71c1.46 1.22 3.69 3.35 5.76 3.25 1.88-.09 3.51-2.3 4.55-3.6a62.76 62.76 0 005.6-8.57 56.55 56.55 0 004.88-10.18 32.66 32.66 0 001.24-10.5c-.07-3.77-.5-7.51-.85-11.26-.28-3-.71-6.23 0-9.18 1.34-5.21 5.13-10 8.91-13.78.69-.68-.37-1.74-1.06-1.06zM141.44 101.91a104.9 104.9 0 00-7.5 10.42 7.11 7.11 0 00-1.15 2.65c-.11 1 1.39 1 1.5 0 0 .27 0-.11.07-.19a1.66 1.66 0 01.15-.38c.2-.41.42-.8.65-1.19.62-1 1.31-2 2-3 1.41-2 2.89-4 4.39-6l.95-1.23c.59-.75-.46-1.82-1.06-1.06z" fill="#44433f"/><path d="M136.43 91a43.81 43.81 0 00-2.91 4c-1.35 2.06-2.82 4.45-3 7-.07 1 1.43 1 1.5 0a8.69 8.69 0 011-3 27.87 27.87 0 011.91-3.31 42.83 42.83 0 012.61-3.55c.62-.74-.44-1.81-1.06-1.06zM303.86 87.56a36.66 36.66 0 001.71 8.49c1.64 5.21 4.38 10.13 8.76 13.51.76.59 1.51-.71.76-1.3-4.17-3.22-6.72-8.1-8.21-13.06a34.26 34.26 0 01-1.52-7.64c-.06-1-1.56-1-1.5 0z" fill="#44433f"/><path d="M313.39 94.27a52.58 52.58 0 00-.42 7.42 28.88 28.88 0 00.55 5.72 7.84 7.84 0 002 4.18c1.44 1.32 3.33 1.07 5 .27.87-.42.11-1.72-.75-1.29-1.13.55-2.35.75-3.25-.14a7.06 7.06 0 01-1.58-3.73 37.43 37.43 0 01-.25-10c.06-.8.13-1.6.24-2.4.12-1-1.38-1-1.5 0z" fill="#44433f"/><path d="M317.86 94.78a52.9 52.9 0 000 8.35 23.2 23.2 0 001.13 6.12c.55 1.52 1.45 3.14 3.09 3.68 2.31.75 4.64-1.06 6.23-2.5.72-.65-.34-1.71-1.06-1.06a10.27 10.27 0 01-2.78 1.93 2.92 2.92 0 01-1.82.23 2.45 2.45 0 01-1.34-1 7.26 7.26 0 01-.94-1.89c-1.2-3.47-1.22-7.37-1.13-11 0-1 .06-1.92.14-2.88s-1.42-1-1.5 0z" fill="#44433f"/><path d="M321.66 94.72a43.71 43.71 0 002.1 8.3c1.12 3.14 3.27 8.29 7.37 8.1 2.88-.14 5.05-2.73 6.63-4.86.58-.77-.73-1.52-1.3-.75-1.2 1.63-3 3.81-5.08 4.09-1.48.19-2.69-.75-3.63-2-2.27-2.92-3.29-6.88-4.09-10.43-.21-.95-.41-1.92-.56-2.88s-1.59-.55-1.44.39z" fill="#44433f"/><path d="M328 89.8a66.93 66.93 0 003.33 8.93 26.62 26.62 0 003.42 5.83c1 1.25 2.5 2.55 4.24 2.3 2.61-.37 3.89-3.64 4.68-5.76.33-.9-1.12-1.3-1.45-.4a13.25 13.25 0 01-1.76 3.48 3.09 3.09 0 01-1.58 1.19 2.15 2.15 0 01-.62 0 2.07 2.07 0 01-.8-.32 6.62 6.62 0 01-1.68-1.59 24.81 24.81 0 01-3.08-5.33c-.85-1.84-1.58-3.73-2.25-5.65-.36-1-.7-2-1-3.07a.75.75 0 00-1.44.39z" fill="#44433f"/><path d="M332.15 86.36a44.19 44.19 0 004 7.91c1.93 3 5.24 7.38 9.38 6.34 2.86-.71 4.65-3.7 5.86-6.14.42-.87-.87-1.63-1.3-.76-1 2-2.36 4.57-4.62 5.36a4.51 4.51 0 01-4.21-1.07c-3-2.34-4.93-6.07-6.52-9.43-.46-1-.81-1.73-1.14-2.6s-1.79-.5-1.45.4z" fill="#44433f"/><path d="M338.3 80.47a25 25 0 006.32 11.36 9.86 9.86 0 008.38 2.94c2.46-.45 3.61-2.54 3.58-4.9a13.64 13.64 0 00-1.13-5c-.38-.88-1.67-.12-1.3.76-.16-.39 0 0 .05.13.1.27.2.55.28.83a12.36 12.36 0 01.54 2.41c.2 1.73-.07 3.69-2 4.22-2.66.72-5.48-.65-7.38-2.46a21 21 0 01-4.33-6.44 27 27 0 01-1.61-4.26.75.75 0 00-1.44.4z" fill="#44433f"/><path d="M342.48 74.51a39.39 39.39 0 004.45 6.2c2.12 2.45 5.45 5.76 9 4.9 2.34-.56 3.74-2.85 4.61-4.91.37-.87-.92-1.64-1.29-.75-.69 1.6-1.69 3.61-3.5 4.16a4.89 4.89 0 01-3.93-.92c-2.77-1.77-4.9-4.6-6.72-7.28-.48-.71-.94-1.42-1.37-2.15a.75.75 0 00-1.29.75z" fill="#44433f"/><path d="M345.88 70.06a51 51 0 005.74 6 22.09 22.09 0 005 3.54c1.46.7 3.22 1.2 4.77.46 2.16-1 2.69-3.8 2.92-5.94.1-1-1.4-.95-1.5 0-.17 1.52-.5 3.86-2.09 4.6-1.15.54-2.63 0-3.73-.61-3.19-1.68-5.84-4.41-8.24-7.05-.61-.68-1.21-1.36-1.79-2.07s-1.66.31-1.06 1.06zM311.65 106.34c-2.28 3.4-2.66 8.09-3 12a145.74 145.74 0 00-.15 17.61c.21 5.41.58 10.8 1 16.2a34.17 34.17 0 010 7.83 35.6 35.6 0 01-2.92 9.2 61.52 61.52 0 01-4.47 8c-.69 1-1.72 2.52-2.32 3.28l1.26.33a112.77 112.77 0 01-1-17.52c0-7.47.26-14.93.64-22.38.6-12.11 1.49-24.2 2.59-36.27.06-.75.13-1.51.2-2.26a4.65 4.65 0 00.12-1.17c-.09-.45.41.6-.19.37a8.77 8.77 0 001.08-1.11l2.74-2.82c.67-.69-.39-1.75-1.06-1.06l-2.43 2.49c-.55.57-1.44 1.2-1.63 2a15.63 15.63 0 00-.21 2.17q-.63 6.8-1.15 13.6c-1.14 14.66-2.09 29.37-2.19 44.08a126 126 0 001 20.28.75.75 0 001.25.33 57.47 57.47 0 005.79-9.08c2.81-5.38 5-11.35 4.55-17.5-.75-11-1.72-22.12-1.23-33.19a61.34 61.34 0 01.9-8.77 16.11 16.11 0 012.09-5.93c.54-.8-.76-1.55-1.29-.76z" fill="#44433f"/><path d="M319.18 164.25c-3.45 2.49-3.34 7.36-3.05 11.11.43 5.46.85 11 .2 16.48-.3 2.61-.84 5.67-2.67 7.68h1.06c-.16-.17 0 .06-.05-.05s-.29-.42-.4-.62a15.57 15.57 0 01-1.25-2.76 58.19 58.19 0 01-2.85-14.67c-.46-5-.59-10.11-.56-15.17a.75.75 0 00-1.5 0 121.06 121.06 0 001.75 23.82 31.31 31.31 0 003 9.34 6.21 6.21 0 00.8 1.17.75.75 0 001.06 0c3.26-3.57 3.37-9.53 3.42-14.08 0-2.82-.11-5.63-.3-8.44a41.36 41.36 0 01-.33-7.29 9.09 9.09 0 011.4-4.06 6.38 6.38 0 01.78-.94c.11-.11.38-.33.24-.23.78-.56 0-1.86-.75-1.29z" fill="#44433f"/><path d="M317.34 111.8c-.38 7-.4 14-.33 21a370.65 370.65 0 003.13 46.13 204.8 204.8 0 005.6 27.86.77.77 0 00.92.53 9.35 9.35 0 005.55-5.14c2.63-5.74.55-12.6-.07-18.56-.29-2.79-.25-5.52 1.36-7.93.54-.8-.76-1.55-1.29-.75-2.86 4.27-1.42 9.64-.82 14.37.64 5 1.59 11.52-2.8 15.23a6.43 6.43 0 01-2.33 1.33l.92.52c-4.54-16.13-6.63-32.91-7.76-49.59a419.25 419.25 0 01-.83-37.85c.06-2.38.12-4.76.25-7.13.05-1-1.45-1-1.5 0z" fill="#44433f"/><path d="M321.44 112.41a143.93 143.93 0 00.93 18.68 175.12 175.12 0 009 41.22 120.7 120.7 0 0012 24.81.76.76 0 001.37-.17 64.61 64.61 0 002.79-11.18 28.76 28.76 0 00.35-3.7c0-1.45-.21-2.88-.24-4.33a12.39 12.39 0 01.19-3c0-.12.15-.53.13-.48 0-.1.23-.34 0-.06.61-.74-.44-1.8-1.06-1.06a5.15 5.15 0 00-.73 2.93c-.18 2.86.37 5.66 0 8.53a60.55 60.55 0 01-2.9 11.93l1.37-.18c-8.62-13.42-14.08-28.63-17.48-44.15a187 187 0 01-4.22-33.5c-.07-2.1-.13-4.21-.07-6.31 0-1-1.47-1-1.5 0z" fill="#44433f"/><path d="M327 110.1c1.09 6.08 2.51 12.11 4 18.1a250.92 250.92 0 0012 36.66 109.33 109.33 0 0010.32 19.37.76.76 0 001.3 0 38.1 38.1 0 003.44-7.65c1.54-4.6 2.32-9.8.55-14.44-.34-.9-1.79-.51-1.44.39 1.71 4.52.87 9.5-.65 13.95a36.25 36.25 0 01-3.2 7h1.3c-7.52-10.9-12.43-23.54-16.52-36.06a311.08 311.08 0 01-8.43-31.5c-.44-2.07-.87-4.14-1.24-6.22-.17-1-1.62-.55-1.45.4z" fill="#44433f"/><path d="M340.6 115.11c1.3 5 2.75 10 4.27 15a200.18 200.18 0 009.51 26.19c1.55 3.34 3.28 7 6 9.57a.77.77 0 001.06 0 14.85 14.85 0 004-14.19.75.75 0 00-1.44.4 13.35 13.35 0 01-3.6 12.73h1.06c-2.31-2.19-3.83-5.25-5.19-8.07a125.33 125.33 0 01-5.15-12.53c-2.88-8-5.35-16.07-7.62-24.23-.49-1.75-1-3.51-1.43-5.27a.75.75 0 00-1.45.4z" fill="#44433f"/><path d="M342.17 101.1c2.92 8.36 6.1 16.64 9.46 24.83 2.57 6.26 5.25 12.48 8.33 18.51a76.62 76.62 0 004.05 7.17 20.06 20.06 0 003.69 4.56 1.89 1.89 0 001.63.62 8.22 8.22 0 002.65-.85c3.74-1.85 5.84-5.81 7.06-9.62.29-.93-1.15-1.32-1.45-.4-1.08 3.4-2.91 6.93-6.21 8.65a8.35 8.35 0 01-2.23.74 2.39 2.39 0 01-.3 0c.2 0 .24.16.1-.07a2.12 2.12 0 00-.36-.3 20.19 20.19 0 01-3.49-4.42c-1.41-2.21-2.66-4.53-3.85-6.86-5.65-11.07-10.17-22.74-14.51-34.38-1.06-2.85-2.12-5.72-3.12-8.6-.32-.9-1.77-.51-1.45.4zM362.55 77.09a66.26 66.26 0 019.89 15.43 25.33 25.33 0 011.86 5.76c.21 1.18.22 2.39.4 3.57a61.33 61.33 0 001.93 7.89 207 207 0 007.61 20.9c2.44 5.83 5 11.85 8.48 17.12 1.33 2 2.68 3.64 5.23 3.94 2.93.35 5.6-1.76 6.85-4.29.42-.87-.87-1.63-1.3-.76-1.08 2.21-3.38 4.08-5.95 3.46-1.84-.44-2.82-2-3.81-3.52-3.41-5.29-5.93-11.22-8.33-17a209.08 209.08 0 01-7.33-20.25 60.36 60.36 0 01-1.88-7.58c-.19-1.11-.2-2.23-.37-3.34a23.47 23.47 0 00-1.53-5.32A65.18 65.18 0 00363.61 76c-.62-.74-1.68.32-1.06 1.06z" fill="#44433f"/><path d="M359.4 80.86a36.23 36.23 0 017.6 11.87 19.21 19.21 0 01.6 9c-.42 3.61-1.05 7.19-1.43 10.8a43.3 43.3 0 000 10.91 38.82 38.82 0 003.62 10.24 77.06 77.06 0 005.25 9.66c1.19 1.83 2.62 4.18 4.61 5.26s4.54-.92 6.1-2.05a52 52 0 005-4.15c.71-.67-.36-1.72-1.06-1.06a51.29 51.29 0 01-4 3.38 23.82 23.82 0 01-3.21 2.13c-.63.33-1.39.77-2.09.45a6.7 6.7 0 01-2.13-2 32.23 32.23 0 01-2.48-3.55 80.48 80.48 0 01-5-9.36c-1.53-3.35-3-6.73-3.35-10.43a49.12 49.12 0 01.33-10.77c.41-3.43 1-6.83 1.37-10.26a18.79 18.79 0 00-.64-8.3 37.38 37.38 0 00-8.09-12.83c-.65-.71-1.71.35-1.06 1.06zM352.45 101.07a110.27 110.27 0 016.74 10.29c.27.49.54 1 .76 1.5 0 .08.11.26.17.43a2.5 2.5 0 01.07.26c.05.17 0 0 0 0 .07 1 1.57 1 1.5 0a6.14 6.14 0 00-.83-2.29c-.57-1.09-1.21-2.14-1.86-3.18-1.36-2.17-2.8-4.29-4.26-6.38l-1-1.44c-.56-.78-1.86 0-1.29.76z" fill="#44433f"/><path d="M357.94 90.43a41.22 41.22 0 012.52 3.77 27.16 27.16 0 011.77 3.38 8.76 8.76 0 01.83 3.12c0 1 1.53 1 1.5 0-.07-2.5-1.43-4.94-2.67-7a42.45 42.45 0 00-2.65-4 .78.78 0 00-1-.26.75.75 0 00-.27 1z" fill="#44433f"/></svg>