<svg xmlns="http://www.w3.org/2000/svg" width="500" height="550" viewBox="0 0 500 550"><path d="M372.14 291.56q-.27 61.72-.62 123.46c-.81 9-2.68 16.41-3.55 25.44-1 10.07 1.34 17.05-1.5 25.64-.59 1.76-2 1.66-3.35 1.43-44.59-7.74-101.66-5.72-146.65-2.92-24.6.57-58.62-1.68-83 2.09-5.23.59-5.68.27-6.62-4.83-1.35-11.25 1.94-18.53.53-29.31-6.15-46.81-1.39-94.37-3.6-141.53-1.42 2.83-2.94 5.6-4.29 8.46-2.37 10.68-17.5 9.3-11.81 16.18 11.11 7.95 6.41 21.38 5.15 32.56-.25 3.15-1.35 6.27-.37 9.58.51 8.44-3.19 16.94-4.38 25.31-1.5 8-2.61 15.83-1.54 23.93a5.1 5.1 0 01-1.13 3.3c-5.71 6.28-7.75 14-9.19 22.06-.57 3.18-.61 3-3.74 2-12.38-3.52-26.09-4.38-38.6-1.18-1.39.34-2.11 0-2.41-1.47-2-7.76-2.18-16.67-8.49-22.43a6.62 6.62 0 01-1.33-3.21A144.54 144.54 0 0139 372.86c-1.91-63 2.6-126.93 26.19-186 13.61-35.43 24.56-73.32 48.07-103.67 27.32-18.2 60-23.76 90.46-34.78a3.16 3.16 0 012.72.43c5 5.55 11.46 8.41 18.56 9.67 19.19 2.43 41.29 5.55 58.65-4.88 2.85-1.27 4.2-6.53 7.87-5 29.12 10.49 61 14.41 87.44 31.58 15.94 14.59 21.63 38 30.45 57.21 27.81 67.48 58 137.39 51.05 212.08-1.19 18.65-.23 37.45-3.28 55.95-.49 4.66-5.21 7.1-5.56 11.78-1.22 5.28-2.08 10.65-2.91 16-.4 2.6-.41 2.83-3.08 2.33-12.48-2.66-25.26-5.49-37.8-1.58-8.34-.15-8.13-15.56-11.44-21.4-6.28-7.37-3.61-9-5.33-17.64-.9-9.7-4.68-20.27.79-29.26 2-3.53 1.86-7.05.51-10.66-4.9-11.28-7.4-23.41-10.45-35.29-1.07-4.3-1.31-8.49 1.61-12.34 1.51-7.23-10.43-8.68-10.93-15.92z" fill="#262521" stroke="#262521" stroke-linecap="round" stroke-linejoin="round" stroke-width="3"/><path d="M265.27 186c1.54 2.73 12.65-5.48 15.26-6.8.77-.36 4-.06 3.61 1.22-1.11 6.15-9.14 29 4.62 18.37a1 1 0 00.22-1.33c-1.51-3.51-1.09-7.59.13-11.12 1.54-6.15 12-13.46 16.24-6.16 3.23 8.2-6.2 14-10.07 18.87 11 6.48 10.93-1.27 13.06-9.66 1.24-3.15 1.49-7.52 3.63-10 2.92.4 2.86.63 1.86 3.29l.13.07c3.81-5.45 11.31-7.45 9.84 1.78-.59 5.52-4.94 10.61-4.1 16.2 1.1 1.89 3.43.45 4.23-1 .21-.3.33-.64.77-.35 1.22 1.61-2.13 3.81-3.56 4.33-9.72.58-1.5-13.61-.41-18.25s-1.1-6.8-4.59-2.69c-5.52 5.67-5.8 14.39-8.42 21a21.74 21.74 0 01-2.28-.58c-.38-.66-.79-.32-1.25-.09-4.4 1.85-10.37.95-13.52-2.81-1-1.08-3.8 3.32-6 3.4-12.51 2.93-6.11-14-5.18-20.44-3.62 1.23-7.09 3.27-10.6 4.88-.4 1.19 2.42 2.31 2.93 3.58 8.34 11.26-17.6 18.6-14.32 4.33-6.89 11.57-19.67 11.52-16.13-4.29-3.51 4.57-9.48 2.1-10.88-2.91-6.7 1.75-4.2 9.38-8.53 13.47-2.82 2.82-8.48 3.8-10.73-.2-.29-.44-.37-.44-.75-.06-20 12.9-17.42-26.68 1.44-14.46 1.63-13.42-4.76-3.13-6.53-5.92-.31-.82-1.79-2-.66-2.66 21.61-10.32 2.93 26.32 13.45 22.65 5.55-4.59 3.63-17.46 7.31-22.45 4.78-.33 1.82 4.45 1.71 7.32-.07 1.1 1.59-.09 2.19-.14a.89.89 0 00.68-1c-.08-3.34 1.33-8.19 5.37-8.29 2.37.1 2.21 3.38 1.35 5-.42 1.95-3.16 2.92-2.95 4.85 1.3 5.93 8.24 3.95 8.86-1.26 1.26-3-.16-8 4.51-6.1 1 4.88-2.63 11.5-2.59 17-.14 11.49 10.71-.07 13.26-4.19 4.92-6.13 3.91-2.43.75-8.56-1.16-10.76 14.14-8.28 6.64 2.16zm-53.81 7.59a5 5 0 00-9.12-3.66c-2.83 3.43-3.39 11.55 2 12.5 4.96.47 7.06-4.74 7.12-8.81zm82.17 3.27c5-1.82 13.5-17.65 3.56-16.48-5.69 2.92-6.76 11.44-3.56 16.51zm-29 5.12c6.61-.27 5.89-9.95.34-10.81-3.91 2.36-6.88 10.2-.32 10.83zm-2.17-19.67c.6 4.77 3-.58 1.66-1.61-.95-.4-1.71.79-1.64 1.64zm-1.25 8.89l.13.13c.61-.67 2.06-1 2.06-2-.98-.05-1.48 1.29-2.17 1.9zM180.67 183.23c-.74 4.53-1.68 17.05-1.8 21.24.16 1.86-3.53.24-3.38-.87.22-4.7 2.06-36 2.21-40.91.61-2.42-.94-6.77 1.81-7.88 3.38-1.18 2.72-.64 2.57 2.41 13.61-10.6 21.77 7.57 16 19.05-2 6.68-12.17 15.52-17.23 7zm8.4-26.49c-9.69.24-10.74 22.91-4.3 26.7 10.73 1.74 15.32-25.28 4.3-26.7z" fill="#fff"/><path d="M249.86 175c0 3.71-5.76 3.86-5.57-.11-.05-3.89 5.71-3.66 5.57.11zM281 174.69a2.76 2.76 0 115.52-.17c.2 3.74-5.64 3.83-5.52.17z" fill="#fff"/></svg>