<svg xmlns="http://www.w3.org/2000/svg" width="500" height="550" viewBox="0 0 500 550"><title>s04e05-01</title><path d="M372.14,289.22c-.18,41.15-.42,83.82-.62,125-.81,9,.79,42.49-2,51.08-.59,1.77-2,1.66-3.35,1.43C321.53,459,261.46,461,216.47,463.77c-24.6.58-58.62-1.68-83,2.09-5.23.59-5.68.27-6.62-4.82-1.35-11.26,1.94-18.54.53-29.32-6.15-46.81-1.39-94.37-3.6-141.53-1.42,2.83-2.94,5.61-4.29,8.46-2.37,10.68-17.5,9.3-11.81,16.19,11.11,7.94,6.41,21.38,5.15,32.55-.25,3.16-1.35,6.27-.37,9.58.51,8.44-3.19,16.94-4.38,25.31-1.5,8-.34,84.86-1.78,92.87-.57,3.18-.61,3-3.74,2.05-12.38-3.52-35.43,3.37-52.11-1.18-1.38-.38-2.1,0-2.4-1.47C46,466.79,38.61,383.21,39,372c-1.91-63,2.6-126.93,26.19-186,13.61-35.44,24.56-73.33,48.07-103.68,27.32-18.2,60-23.75,90.46-34.78a3.16,3.16,0,0,1,2.72.43c5,5.55,11.46,8.41,18.56,9.67,19.19,2.43,41.29,5.55,58.65-4.88,2.85-1.27,4.2-6.53,7.87-5,29.12,10.49,61,14.41,87.44,31.59,15.94,14.58,21.63,38,30.45,57.2,27.81,67.49,58,137.39,51.05,212.08-1.19,18.65,1.77,37.45-1.28,55.95-.49,4.67-5.93,68-6.76,73.35-.4,2.61-.41,2.83-3.09,2.33-12.47-2.65-37.66-1.88-51.79-1.58-8.34.18-4.76-75.92-6.48-84.59-.9-9.71-4.68-20.28.79-29.27,2-3.53,1.86-7.05.51-10.66-4.9-11.28-7.4-23.41-10.45-35.29-1.07-4.3-1.31-8.49,1.61-12.34,1.51-7.23-10.43-10.18-10.93-17.42Z" fill="#f9f9f4" stroke="#262521" stroke-linecap="round" stroke-linejoin="round" stroke-width="3"/><path d="M194.24,58.12c2.77,14.31,15.85,48.76,53.9,48.76,38.69,0,51.67-37.71,53.82-49.88" fill="none" stroke="#ccc" stroke-linecap="round" stroke-linejoin="round"/><path d="M196.67,67.05s-43.58,22.28-52.79,33.29-19.54,35.41-21.53,72.8" fill="none" stroke="#ccc" stroke-linecap="round" stroke-linejoin="round"/><path d="M195,62.36s-45.47,22.78-54.75,33.73c-15.24,18-20.34,40.73-22.33,78.12" fill="none" stroke="#ccc" stroke-linecap="round" stroke-linejoin="round"/><path d="M299.58,67.05s43.58,22.28,52.79,33.29,15.86,38.49,17.85,75.89" fill="none" stroke="#ccc" stroke-linecap="round" stroke-linejoin="round"/><line x1="248.64" y1="106.88" x2="248.64" y2="458.37" fill="none" stroke="#ccc" stroke-linecap="round" stroke-linejoin="round"/><line x1="255.22" y1="106.88" x2="255.22" y2="456.87" fill="none" stroke="#ccc" stroke-linecap="round" stroke-linejoin="round"/><line x1="261.8" y1="105.38" x2="261.8" y2="456.87" fill="none" stroke="#ccc" stroke-linecap="round" stroke-linejoin="round"/><line x1="268.39" y1="102.86" x2="268.39" y2="456.87" fill="none" stroke="#ccc" stroke-linecap="round" stroke-linejoin="round"/><line x1="274.97" y1="99.36" x2="274.97" y2="456.87" fill="none" stroke="#ccc" stroke-linecap="round" stroke-linejoin="round"/><line x1="281.55" y1="94.35" x2="281.55" y2="456.87" fill="none" stroke="#ccc" stroke-linecap="round" stroke-linejoin="round"/><line x1="288.13" y1="88.09" x2="288.13" y2="456.87" fill="none" stroke="#ccc" stroke-linecap="round" stroke-linejoin="round"/><line x1="294.72" y1="77.15" x2="294.72" y2="456.87" fill="none" stroke="#ccc" stroke-linecap="round" stroke-linejoin="round"/><line x1="301.3" y1="68.55" x2="301.3" y2="456.87" fill="none" stroke="#ccc" stroke-linecap="round" stroke-linejoin="round"/><line x1="307.88" y1="71.42" x2="307.88" y2="456.87" fill="none" stroke="#ccc" stroke-linecap="round" stroke-linejoin="round"/><line x1="314.46" y1="75.02" x2="314.46" y2="456.87" fill="none" stroke="#ccc" stroke-linecap="round" stroke-linejoin="round"/><line x1="321.05" y1="78.72" x2="321.05" y2="456.87" fill="none" stroke="#ccc" stroke-linecap="round" stroke-linejoin="round"/><line x1="327.63" y1="82.91" x2="327.63" y2="458.33" fill="none" stroke="#ccc" stroke-linecap="round" stroke-linejoin="round"/><line x1="334.21" y1="87.05" x2="334.21" y2="458.33" fill="none" stroke="#ccc" stroke-linecap="round" stroke-linejoin="round"/><line x1="340.79" y1="90.87" x2="340.79" y2="459.11" fill="none" stroke="#ccc" stroke-linecap="round" stroke-linejoin="round"/><line x1="347.38" y1="95.68" x2="347.38" y2="459.88" fill="none" stroke="#ccc" stroke-linecap="round" stroke-linejoin="round"/><line x1="353.96" y1="102.44" x2="353.96" y2="460.53" fill="none" stroke="#ccc" stroke-linecap="round" stroke-linejoin="round"/><line x1="143.32" y1="101.35" x2="143.32" y2="460.92" fill="none" stroke="#ccc" stroke-linecap="round" stroke-linejoin="round"/><line x1="149.9" y1="94.88" x2="149.9" y2="460.14" fill="none" stroke="#ccc" stroke-linecap="round" stroke-linejoin="round"/><line x1="156.48" y1="90.38" x2="156.48" y2="459.37" fill="none" stroke="#ccc" stroke-linecap="round" stroke-linejoin="round"/><line x1="163.06" y1="85.94" x2="163.06" y2="459.14" fill="none" stroke="#ccc" stroke-linecap="round" stroke-linejoin="round"/><path d="M130.15,127.63s.5,191.5,1.19,274.23c.17,20.82,1.5,31.07,1.5,33.95,0,14.32-2.69,16.31-1.35,25.11" fill="none" stroke="#ccc" stroke-linecap="round" stroke-linejoin="round"/><line x1="136.73" y1="111.44" x2="136.73" y2="461.56" fill="none" stroke="#ccc" stroke-linecap="round" stroke-linejoin="round"/><line x1="169.65" y1="81.94" x2="169.65" y2="459.14" fill="none" stroke="#ccc" stroke-linecap="round" stroke-linejoin="round"/><line x1="176.23" y1="78.57" x2="176.23" y2="459.64" fill="none" stroke="#ccc" stroke-linecap="round" stroke-linejoin="round"/><line x1="182.81" y1="74.59" x2="182.81" y2="460.14" fill="none" stroke="#ccc" stroke-linecap="round" stroke-linejoin="round"/><line x1="189.39" y1="70.83" x2="189.39" y2="460.14" fill="none" stroke="#ccc" stroke-linecap="round" stroke-linejoin="round"/><line x1="195.98" y1="67.64" x2="195.98" y2="460.14" fill="none" stroke="#ccc" stroke-linecap="round" stroke-linejoin="round"/><line x1="202.56" y1="80.43" x2="202.56" y2="460.14" fill="none" stroke="#ccc" stroke-linecap="round" stroke-linejoin="round"/><line x1="209.14" y1="89.53" x2="209.14" y2="460.14" fill="none" stroke="#ccc" stroke-linecap="round" stroke-linejoin="round"/><line x1="215.72" y1="96.05" x2="215.72" y2="459.37" fill="none" stroke="#ccc" stroke-linecap="round" stroke-linejoin="round"/><line x1="222.31" y1="100.44" x2="222.31" y2="459.37" fill="none" stroke="#ccc" stroke-linecap="round" stroke-linejoin="round"/><line x1="228.89" y1="103.46" x2="228.89" y2="458.87" fill="none" stroke="#ccc" stroke-linecap="round" stroke-linejoin="round"/><line x1="235.47" y1="105.48" x2="235.47" y2="458.37" fill="none" stroke="#ccc" stroke-linecap="round" stroke-linejoin="round"/><line x1="242.05" y1="106.88" x2="242.05" y2="458.37" fill="none" stroke="#ccc" stroke-linecap="round" stroke-linejoin="round"/><line x1="360.54" y1="116.28" x2="360.54" y2="461.3" fill="none" stroke="#ccc" stroke-linecap="round" stroke-linejoin="round"/><path d="M367.12,145.4s.81,198.27-.89,280.38c-.42,20.4.53,33.5-.5,34.75" fill="none" stroke="#ccc" stroke-linecap="round" stroke-linejoin="round"/><path d="M194.24,56.35S140.69,82.94,134.12,93s-16.39,37.82-19,55.49c-4.12,27.78.46,43.5,1.12,51.87s-1.64,26.76-1.64,33.16,2.46,34.65,2.79,39,2.69,12.85,2.69,12.85-3.55,6.16-5.64,10.36S97.36,305.27,98,310.06s11.38,9.89,11.38,16.77c0,4.28-2.08,13.41-3.59,20.51-.91,4.32-.8,7.34-.42,8.54,1.65,5.13-4.81,115.26-4.81,115.26" fill="none" stroke="#ccc" stroke-linecap="round" stroke-linejoin="round"/><path d="M186.86,57S140,76.11,131.49,88.67c0,0-14.27,30.55-17,42.63s-8.41,41-5.57,56.14.36,45.67,1.77,58.62,4.22,34.92,3.66,38.86S91.27,302.1,91.27,308s13.8,13.23,12.67,20.55-8.59,141.28-8.59,141.28" fill="none" stroke="#ccc" stroke-linecap="round" stroke-linejoin="round"/><path d="M62.06,206.26s-19.9,206.42-2.62,264.88" fill="none" stroke="#ccc" stroke-linecap="round" stroke-linejoin="round"/><path d="M69.63,186.67S54,406.49,63.61,470.84" fill="none" stroke="#ccc" stroke-linecap="round" stroke-linejoin="round"/><path d="M52.4,242.81s-15,157.63.31,227" fill="none" stroke="#ccc" stroke-linecap="round" stroke-linejoin="round"/><path d="M95.44,120.09s-11.46,118.24-12,137,3.35,35.52,0,40.53-6.69,14-5,19.25-2,146.8-1.33,153.93" fill="none" stroke="#ccc" stroke-linecap="round" stroke-linejoin="round"/><path d="M87.33,141.16s-10,104-10,123,3.26,22.92-2.83,35.74-.32,32.33-2.5,42.92.24,128,.24,128" fill="none" stroke="#ccc" stroke-linecap="round" stroke-linejoin="round"/><path d="M77.87,166.37S63.14,404.24,67.56,470.84" fill="none" stroke="#ccc" stroke-linecap="round" stroke-linejoin="round"/><path d="M101.36,109.7s-14.64,148.64-10.09,164-5,26.4-7.09,31.93.29,12.52,0,16S82,469.84,82,469.84" fill="none" stroke="#ccc" stroke-linecap="round" stroke-linejoin="round"/><path d="M85.76,469.84S89,368.58,89.71,340.54a29.71,29.71,0,0,0-2.38-13.39c-.94-4.36-.24-13.39,0-20.18s8.5-13,10-16.78,0-44,0-72.49S111,99.36,111,99.36s1.7-8.28,6.37-12.31,12.82-9.9,12.82-9.9" fill="none" stroke="#ccc" stroke-linecap="round" stroke-linejoin="round"/><path d="M90.9,469.84s5.8-125.51,6.67-135.3-6.4-8.84-8.15-20.78,12.23-25,16-32.28-2.91-73.1-2.33-94.81,14.83-86.23,14.83-86.23,5.57-13.35,12.22-18.5,28.46-16.45,28.46-16.45" fill="none" stroke="#ccc" stroke-linecap="round" stroke-linejoin="round"/><path d="M300.69,62.36s52.25,23.86,57.88,37,18.39,40.18,19.14,86.36,2.26,82.55,0,89.89-.37,15.6-.37,15.6" fill="none" stroke="#ccc" stroke-linecap="round" stroke-linejoin="round"/><line x1="372.62" y1="267.01" x2="372.9" y2="285.44" fill="none" stroke="#ccc" stroke-linecap="round" stroke-linejoin="round"/><path d="M302,58.81s51.44,25.77,56.4,30.11c10.53,9.22,23.45,57.63,24.66,76.57s3,114.79-.73,129.57" fill="none" stroke="#ccc" stroke-linecap="round" stroke-linejoin="round"/><path d="M317.69,61.07s42.65,19.65,46.62,25.71c0,0,23.05,41.52,23.85,79.64s3.38,121.36,1,131.29a16.1,16.1,0,0,1-3.42,14.17" fill="none" stroke="#ccc" stroke-linecap="round" stroke-linejoin="round"/><path d="M340.79,67.64s21.62,5.79,32.11,22.23c6.22,13.59,20.53,56,20.53,71.21s10.45,144.49-5.22,154.5" fill="none" stroke="#ccc" stroke-linecap="round" stroke-linejoin="round"/><path d="M400.49,473.45c-4.83-5.13-6.49-91.19-7-98.82s4.65-8.29,5.64-13.93-9.46-29-10.45-34.68,8.15-10.44,8.15-10.44c8.7-27.2,4.36-85.61,4.36-85.61,0-56.44,1.5-74.77-11.06-108.33-8.42-22.51-14.51-35-17.23-39.57-.57-1-4.09-3.35-4.09-3.35" fill="none" stroke="#ccc" stroke-linecap="round" stroke-linejoin="round"/><path d="M382.07,89.53s23.37,46.85,23.37,61.06,2.29,76.5,2.29,88.87,1.37,65.65-3.21,76.12S393.26,321,395,327.42s10.89,30.24,10,35.74-5.41,4.14-6,10.53c-1.56,18.3,5.61,99.43,5.61,99.43" fill="none" stroke="#ccc" stroke-linecap="round" stroke-linejoin="round"/><path d="M455.35,294.34s-.17,136.79-9.69,179.11" fill="none" stroke="#ccc" stroke-linecap="round" stroke-linejoin="round"/><path d="M451.45,270.62s-3.88,190.23-10.68,202.5" fill="none" stroke="#ccc" stroke-linecap="round" stroke-linejoin="round"/><path d="M446.94,249.67c1.8,5.87-6.24,213.64-11.63,223.78" fill="none" stroke="#ccc" stroke-linecap="round" stroke-linejoin="round"/><path d="M441.26,229.72c3.31,14.68-3.8,218.84-10.81,243.1" fill="none" stroke="#ccc" stroke-linecap="round" stroke-linejoin="round"/><path d="M433.24,209.15c5,14.34.68,239.18-7.26,264.67" fill="none" stroke="#ccc" stroke-linecap="round" stroke-linejoin="round"/><path d="M428.59,197.4s3.05,78.47.67,134.85-7.15,141.2-7.15,141.2" fill="none" stroke="#ccc" stroke-linecap="round" stroke-linejoin="round"/><path d="M409.8,149.61s7.15,135.39,4,156.83-11.46,17.07-11.49,20.25S411,358.85,411,364s-7.94,6-4.76,28.59,1.08,81.22,1.08,81.22" fill="none" stroke="#ccc" stroke-linecap="round" stroke-linejoin="round"/><path d="M414.59,163.5S424.49,289,420.92,308s-11.82,14.1-11.43,23.63,8.31,19.84,6.15,35.32-10.51,55.31-3.84,106.84" fill="none" stroke="#ccc" stroke-linecap="round" stroke-linejoin="round"/><path d="M421.7,176.94s6.64,130.94,2.42,143.41,0,31.75-1.21,40.77-4.57,111.7-4.57,111.7" fill="none" stroke="#ccc" stroke-linecap="round" stroke-linejoin="round"/><path d="M419.13,322.66s-5.95,6.63-3.54,13.71c3.83,11.31,4.26,18.83,3.54,24.75,0,0-5,91.89-3.7,112.2" fill="none" stroke="#ccc" stroke-linecap="round" stroke-linejoin="round"/><path d="M290.71,65l5.76,1.59" fill="none" stroke="#ccc" stroke-linecap="round" stroke-linejoin="round"/><path d="M292.68,56.5l6.1,1.69" fill="none" stroke="#ccc" stroke-linecap="round" stroke-linejoin="round"/><path d="M247.4,98.85v5.33" fill="none" stroke="#ccc" stroke-linecap="round" stroke-linejoin="round"/><path d="M256.48,98.11c.1,2.06.2,3.62.3,5.68" fill="none" stroke="#ccc" stroke-linecap="round" stroke-linejoin="round"/><path d="M264.51,95.42c.36,2.26.72,3.52,1.08,5.78" fill="none" stroke="#ccc" stroke-linecap="round" stroke-linejoin="round"/><path d="M271.22,91.59,273.54,98" fill="none" stroke="#ccc" stroke-linecap="round" stroke-linejoin="round"/><path d="M277.53,86.57l3.36,5.24" fill="none" stroke="#ccc" stroke-linecap="round" stroke-linejoin="round"/><path d="M282.79,80.25,287.41,84" fill="none" stroke="#ccc" stroke-linecap="round" stroke-linejoin="round"/><path d="M286.77,73.11l5.63,2.6" fill="none" stroke="#ccc" stroke-linecap="round" stroke-linejoin="round"/><path d="M204.1,65l-5.43,1.5" fill="none" stroke="#ccc" stroke-linecap="round" stroke-linejoin="round"/><path d="M202.13,56.5,197,57.91" fill="none" stroke="#ccc" stroke-linecap="round" stroke-linejoin="round"/><path d="M238.33,98.11l-.27,5.49" fill="none" stroke="#ccc" stroke-linecap="round" stroke-linejoin="round"/><path d="M230.3,95.42l-.81,5.08" fill="none" stroke="#ccc" stroke-linecap="round" stroke-linejoin="round"/><path d="M223.59,91.59l-1.86,5.14" fill="none" stroke="#ccc" stroke-linecap="round" stroke-linejoin="round"/><path d="M217.28,86.57l-2.63,4.09" fill="none" stroke="#ccc" stroke-linecap="round" stroke-linejoin="round"/><path d="M212,80.25l-4.09,3.29" fill="none" stroke="#ccc" stroke-linecap="round" stroke-linejoin="round"/><path d="M208,73.11l-5.64,2.6" fill="none" stroke="#ccc" stroke-linecap="round" stroke-linejoin="round"/><path d="M371.87,192.9l-1.5-16.67h-4.25a2.49,2.49,0,0,0-4.22,0h-2.5a2.49,2.49,0,0,0-4.22,0h-2.36a2.49,2.49,0,0,0-4.22,0h-2.36a2.49,2.49,0,0,0-4.22,0h-2.37a2.48,2.48,0,0,0-4.21,0H333a2.49,2.49,0,0,0-4.22,0H326.4a2.65,2.65,0,0,0-2.11-1.17,2.68,2.68,0,0,0-2.11,1.17h-2.27a2.49,2.49,0,0,0-4.22,0h-2.37a2.48,2.48,0,0,0-4.21,0h-2.37a2.49,2.49,0,0,0-4.22,0h-2.36a2.49,2.49,0,0,0-4.22,0h-2.45a2.49,2.49,0,0,0-4.22,0h-2.36a2.49,2.49,0,0,0-4.22,0h-2.28a2.49,2.49,0,0,0-4.22,0h-2.36a2.49,2.49,0,0,0-4.22,0h-2.36a2.49,2.49,0,0,0-4.22,0h-2.37a2.65,2.65,0,0,0-2.11-1.17,2.68,2.68,0,0,0-2.11,1.17H254a2.68,2.68,0,0,0-2.11-1.17,2.65,2.65,0,0,0-2.11,1.17h-2.37a2.49,2.49,0,0,0-4.22,0h-2.27a2.68,2.68,0,0,0-2.11-1.17,2.65,2.65,0,0,0-2.11,1.17h-2.37a2.49,2.49,0,0,0-4.22,0h-2.36a2.49,2.49,0,0,0-4.22,0h-2.36a2.49,2.49,0,0,0-4.22,0H214.5a2.49,2.49,0,0,0-4.22,0h-2.36a2.49,2.49,0,0,0-4.22,0h-2.28a2.49,2.49,0,0,0-4.22,0h-2.36a2.49,2.49,0,0,0-4.22,0h-2.37a2.48,2.48,0,0,0-4.21,0h-2.37a2.49,2.49,0,0,0-4.22,0H175a2.48,2.48,0,0,0-4.21,0h-2.37a2.49,2.49,0,0,0-4.22,0h-2.32a2.49,2.49,0,0,0-4.22,0H155.3a2.49,2.49,0,0,0-4.22,0h-2.36a2.49,2.49,0,0,0-4.22,0h-2.37a2.65,2.65,0,0,0-2.11-1.17,2.68,2.68,0,0,0-2.11,1.17h-2.44a2.68,2.68,0,0,0-2.11-1.17,2.65,2.65,0,0,0-2.11,1.17h-2.37a2.65,2.65,0,0,0-2.11-1.17,2.68,2.68,0,0,0-2.11,1.17h-2.93V192.9h2.9a2.48,2.48,0,0,0,4.28,0h2.31a2.48,2.48,0,0,0,4.28,0h2.38a2.49,2.49,0,0,0,4.29,0h2.3a2.48,2.48,0,0,0,4.28,0h2.3a2.48,2.48,0,0,0,4.28,0h2.3a2.48,2.48,0,0,0,4.28,0h2.26a2.48,2.48,0,0,0,4.28,0h2.3a2.49,2.49,0,0,0,4.29,0h2.38a2.48,2.48,0,0,0,4.28,0H184a2.49,2.49,0,0,0,4.29,0h2.3a2.48,2.48,0,0,0,4.28,0h2.3a2.48,2.48,0,0,0,4.28,0h2.22a2.48,2.48,0,0,0,4.28,0h2.3a2.48,2.48,0,0,0,4.28,0h2.39a2.48,2.48,0,0,0,4.28,0h2.3a2.48,2.48,0,0,0,4.28,0h2.3a2.48,2.48,0,0,0,4.28,0h2.31a2.48,2.48,0,0,0,4.28,0h2.21a2.48,2.48,0,0,0,4.28,0h2.3a2.49,2.49,0,0,0,4.29,0h2.38a2.49,2.49,0,0,0,4.29,0H263a2.48,2.48,0,0,0,4.28,0h2.3a2.48,2.48,0,0,0,4.28,0h2.3a2.48,2.48,0,0,0,4.28,0h2.22a2.48,2.48,0,0,0,4.28,0h2.3a2.48,2.48,0,0,0,4.28,0h2.39a2.48,2.48,0,0,0,4.28,0h2.3a2.48,2.48,0,0,0,4.28,0h2.3a2.49,2.49,0,0,0,4.29,0h2.3a2.48,2.48,0,0,0,4.28,0h2.21a2.49,2.49,0,0,0,4.29,0h2.3a2.48,2.48,0,0,0,4.28,0h2.38a2.49,2.49,0,0,0,4.29,0H342a2.48,2.48,0,0,0,4.28,0h2.3a2.48,2.48,0,0,0,4.28,0h2.3a2.48,2.48,0,0,0,4.28,0h2.44a2.48,2.48,0,0,0,4.28,0Z" fill="#262521"/><path d="M373.37,215.36h-1.05a2.41,2.41,0,0,0-3.91,0H366a2.42,2.42,0,0,0-3.92,0h-2.8a2.41,2.41,0,0,0-3.91,0h-2.67a2.42,2.42,0,0,0-3.92,0h-2.66a2.59,2.59,0,0,0-2-1,2.56,2.56,0,0,0-2,1H339.5a2.41,2.41,0,0,0-3.91,0h-2.76a2.41,2.41,0,0,0-3.91,0h-2.67a2.41,2.41,0,0,0-3.91,0h-2.59a2.41,2.41,0,0,0-3.91,0h-2.67a2.41,2.41,0,0,0-3.91,0h-2.67a2.41,2.41,0,0,0-3.91,0H300a2.42,2.42,0,0,0-3.92,0h-2.75a2.56,2.56,0,0,0-2-1,2.59,2.59,0,0,0-2,1h-2.66a2.42,2.42,0,0,0-3.92,0h-2.58a2.56,2.56,0,0,0-2-1,2.59,2.59,0,0,0-2,1h-2.66a2.42,2.42,0,0,0-3.92,0h-2.67a2.41,2.41,0,0,0-3.91,0h-2.67a2.41,2.41,0,0,0-3.91,0h-2.76a2.41,2.41,0,0,0-3.91,0h-2.67a2.41,2.41,0,0,0-3.91,0h-2.59a2.41,2.41,0,0,0-3.91,0h-2.67a2.41,2.41,0,0,0-3.91,0H227.6a2.42,2.42,0,0,0-3.92,0H221a2.59,2.59,0,0,0-2-1,2.56,2.56,0,0,0-2,1h-2.75a2.42,2.42,0,0,0-3.92,0h-2.67a2.41,2.41,0,0,0-3.91,0h-2.58a2.42,2.42,0,0,0-3.92,0h-2.67a2.41,2.41,0,0,0-3.91,0H188.1a2.41,2.41,0,0,0-3.91,0h-2.67a2.41,2.41,0,0,0-3.91,0h-2.76a2.41,2.41,0,0,0-3.91,0h-2.67a2.56,2.56,0,0,0-2-1,2.59,2.59,0,0,0-2,1h-2.62a2.41,2.41,0,0,0-3.91,0h-2.67a2.42,2.42,0,0,0-3.92,0h-2.67a2.41,2.41,0,0,0-3.91,0H142a2.41,2.41,0,0,0-3.91,0h-2.76a2.41,2.41,0,0,0-3.91,0h-2.67a2.41,2.41,0,0,0-3.91,0h-2.28L120.73,232h3.8a2.5,2.5,0,0,0,4.49,0h2.09a2.5,2.5,0,0,0,4.49,0h2.18a2.5,2.5,0,0,0,4.49,0h2.09a2.51,2.51,0,0,0,4.5,0h2.08a2.51,2.51,0,0,0,4.5,0h2.08a2.51,2.51,0,0,0,4.5,0h2a2.51,2.51,0,0,0,4.5,0h2.09a2.5,2.5,0,0,0,4.49,0h2.17a2.51,2.51,0,0,0,4.5,0h2.09a2.5,2.5,0,0,0,4.49,0h2.09a2.51,2.51,0,0,0,4.5,0h2.08a2.51,2.51,0,0,0,4.5,0h2a2.51,2.51,0,0,0,4.5,0h2.08a2.51,2.51,0,0,0,4.5,0h2.17a2.51,2.51,0,0,0,4.5,0h2.08a2.51,2.51,0,0,0,4.5,0H230a2.5,2.5,0,0,0,4.49,0h2.09a2.5,2.5,0,0,0,4.49,0h2a2.51,2.51,0,0,0,4.5,0h2.09a2.5,2.5,0,0,0,4.49,0h2.18a2.5,2.5,0,0,0,4.49,0h2.09a2.5,2.5,0,0,0,4.49,0h2.09a2.51,2.51,0,0,0,4.5,0h2.08a2.51,2.51,0,0,0,4.5,0h2a2.51,2.51,0,0,0,4.5,0h2.08a2.51,2.51,0,0,0,4.5,0h2.17a2.51,2.51,0,0,0,4.5,0h2.08a2.51,2.51,0,0,0,4.5,0H309a2.5,2.5,0,0,0,4.49,0h2.09a2.51,2.51,0,0,0,4.5,0h2a2.5,2.5,0,0,0,4.49,0h2.09a2.51,2.51,0,0,0,4.5,0h2.17a2.5,2.5,0,0,0,4.49,0h2.09a2.51,2.51,0,0,0,4.5,0h2.08a2.51,2.51,0,0,0,4.5,0H355a2.51,2.51,0,0,0,4.5,0h2.22a2.51,2.51,0,0,0,4.5,0H368a2.5,2.5,0,0,0,4.49,0h.9Z" fill="#262521"/><path d="M373.34,257.07c0-2.18-1.33-3.94-3-3.94a2.68,2.68,0,0,0-2.13,1.19h-2.11a2.49,2.49,0,0,0-4.25,0h-2.46a2.49,2.49,0,0,0-4.25,0h-2.33a2.49,2.49,0,0,0-4.25,0h-2.34a2.49,2.49,0,0,0-4.25,0h-2.33a2.49,2.49,0,0,0-4.25,0H333a2.49,2.49,0,0,0-4.25,0h-2.33a2.49,2.49,0,0,0-4.25,0h-2.25a2.49,2.49,0,0,0-4.25,0h-2.33a2.49,2.49,0,0,0-4.25,0h-2.33a2.49,2.49,0,0,0-4.25,0h-2.34a2.49,2.49,0,0,0-4.25,0h-2.41a2.49,2.49,0,0,0-4.25,0h-2.34a2.49,2.49,0,0,0-4.25,0h-2.24a2.49,2.49,0,0,0-4.25,0h-2.34a2.49,2.49,0,0,0-4.25,0h-2.33a2.49,2.49,0,0,0-4.25,0h-2.33a2.49,2.49,0,0,0-4.25,0H254a2.49,2.49,0,0,0-4.25,0h-2.33a2.49,2.49,0,0,0-4.25,0h-2.25a2.49,2.49,0,0,0-4.25,0h-2.33a2.49,2.49,0,0,0-4.25,0h-2.33a2.49,2.49,0,0,0-4.25,0h-2.34a2.49,2.49,0,0,0-4.25,0h-2.41a2.69,2.69,0,0,0-2.13-1.19,2.66,2.66,0,0,0-2.12,1.19h-2.34a2.49,2.49,0,0,0-4.25,0h-2.24a2.49,2.49,0,0,0-4.25,0h-2.34a2.49,2.49,0,0,0-4.25,0h-2.33a2.49,2.49,0,0,0-4.25,0h-2.33a2.49,2.49,0,0,0-4.25,0H175a2.49,2.49,0,0,0-4.25,0h-2.33a2.49,2.49,0,0,0-4.25,0H161.9a2.49,2.49,0,0,0-4.25,0h-2.34a2.49,2.49,0,0,0-4.25,0h-2.33a2.49,2.49,0,0,0-4.25,0h-2.33a2.49,2.49,0,0,0-4.25,0h-2.42a2.49,2.49,0,0,0-4.25,0H128.9a2.49,2.49,0,0,0-4.25,0h-2.92l.62,16.68h2.3a2.49,2.49,0,0,0,4.25,0h2.33a2.49,2.49,0,0,0,4.25,0h2.42a2.49,2.49,0,0,0,4.25,0h2.33a2.49,2.49,0,0,0,4.25,0h2.33a2.49,2.49,0,0,0,4.25,0h2.34a2.49,2.49,0,0,0,4.25,0h2.29a2.49,2.49,0,0,0,4.25,0h2.33a2.49,2.49,0,0,0,4.25,0h2.42a2.49,2.49,0,0,0,4.25,0H184a2.49,2.49,0,0,0,4.25,0h2.33a2.49,2.49,0,0,0,4.25,0h2.34a2.49,2.49,0,0,0,4.25,0h2.24a2.49,2.49,0,0,0,4.25,0h2.34a2.66,2.66,0,0,0,2.12,1.19,2.69,2.69,0,0,0,2.13-1.19h2.41a2.49,2.49,0,0,0,4.25,0h2.34a2.49,2.49,0,0,0,4.25,0h2.33a2.49,2.49,0,0,0,4.25,0h2.33a2.49,2.49,0,0,0,4.25,0h2.25a2.49,2.49,0,0,0,4.25,0h2.33a2.49,2.49,0,0,0,4.25,0h2.42a2.49,2.49,0,0,0,4.25,0H263a2.49,2.49,0,0,0,4.25,0h2.33a2.49,2.49,0,0,0,4.25,0h2.34a2.49,2.49,0,0,0,4.25,0h2.24a2.49,2.49,0,0,0,4.25,0h2.34a2.49,2.49,0,0,0,4.25,0h2.41a2.49,2.49,0,0,0,4.25,0h2.34a2.49,2.49,0,0,0,4.25,0h2.33a2.49,2.49,0,0,0,4.25,0h2.33a2.49,2.49,0,0,0,4.25,0h2.25a2.49,2.49,0,0,0,4.25,0h2.33a2.49,2.49,0,0,0,4.25,0h2.42a2.49,2.49,0,0,0,4.25,0H342a2.49,2.49,0,0,0,4.25,0h2.34a2.49,2.49,0,0,0,4.25,0h2.33a2.49,2.49,0,0,0,4.25,0h2.46a2.49,2.49,0,0,0,4.25,0h2a2.67,2.67,0,0,0,2.12,1.19C371.86,272.19,373.34,258.44,373.34,257.07Z" fill="#262521"/><path d="M371.29,292.47a2.26,2.26,0,0,0-.92-.22,2.66,2.66,0,0,0-2.13,1.2h-2.1a2.49,2.49,0,0,0-4.26,0h-2.46a2.48,2.48,0,0,0-4.25,0h-2.33a2.49,2.49,0,0,0-4.26,0h-2.33a2.48,2.48,0,0,0-4.25,0h-2.33a2.48,2.48,0,0,0-4.25,0H333a2.48,2.48,0,0,0-4.25,0h-2.33a2.48,2.48,0,0,0-4.25,0h-2.25a2.48,2.48,0,0,0-4.25,0h-2.33a2.48,2.48,0,0,0-4.25,0h-2.33a2.48,2.48,0,0,0-4.25,0h-2.34a2.48,2.48,0,0,0-4.25,0h-2.41a2.48,2.48,0,0,0-4.25,0h-2.34a2.48,2.48,0,0,0-4.25,0h-2.24a2.48,2.48,0,0,0-4.25,0h-2.34a2.48,2.48,0,0,0-4.25,0h-2.33a2.48,2.48,0,0,0-4.25,0h-2.33a2.48,2.48,0,0,0-4.25,0H254a2.48,2.48,0,0,0-4.25,0h-2.33a2.48,2.48,0,0,0-4.25,0h-2.25a2.48,2.48,0,0,0-4.25,0h-2.33a2.48,2.48,0,0,0-4.25,0h-2.33a2.48,2.48,0,0,0-4.25,0h-2.34a2.48,2.48,0,0,0-4.25,0h-2.41a2.68,2.68,0,0,0-2.13-1.2,2.64,2.64,0,0,0-2.12,1.2h-2.34a2.48,2.48,0,0,0-4.25,0h-2.24a2.48,2.48,0,0,0-4.25,0h-2.34a2.48,2.48,0,0,0-4.25,0h-2.33a2.48,2.48,0,0,0-4.25,0h-2.33a2.48,2.48,0,0,0-4.25,0H175a2.48,2.48,0,0,0-4.25,0h-2.33a2.48,2.48,0,0,0-4.25,0H161.9a2.48,2.48,0,0,0-4.25,0h-2.34a2.48,2.48,0,0,0-4.25,0h-2.33a2.48,2.48,0,0,0-4.25,0h-2.33a2.48,2.48,0,0,0-4.25,0h-2.42a2.48,2.48,0,0,0-4.25,0H128.9a2.48,2.48,0,0,0-4.25,0v16.67a2.48,2.48,0,0,0,4.25,0h2.33a2.48,2.48,0,0,0,4.25,0h2.42a2.48,2.48,0,0,0,4.25,0h2.33a2.48,2.48,0,0,0,4.25,0h2.33a2.48,2.48,0,0,0,4.25,0h2.34a2.48,2.48,0,0,0,4.25,0h2.29a2.48,2.48,0,0,0,4.25,0h2.33a2.48,2.48,0,0,0,4.25,0h2.42a2.48,2.48,0,0,0,4.25,0H184a2.48,2.48,0,0,0,4.25,0h2.33a2.48,2.48,0,0,0,4.25,0h2.34a2.48,2.48,0,0,0,4.25,0h2.24a2.48,2.48,0,0,0,4.25,0h2.34a2.64,2.64,0,0,0,2.12,1.2,2.68,2.68,0,0,0,2.13-1.2h2.41a2.48,2.48,0,0,0,4.25,0h2.34a2.48,2.48,0,0,0,4.25,0h2.33a2.48,2.48,0,0,0,4.25,0h2.33a2.48,2.48,0,0,0,4.25,0h2.25a2.48,2.48,0,0,0,4.25,0h2.33a2.48,2.48,0,0,0,4.25,0h2.42a2.48,2.48,0,0,0,4.25,0H263a2.48,2.48,0,0,0,4.25,0h2.33a2.48,2.48,0,0,0,4.25,0h2.34a2.48,2.48,0,0,0,4.25,0h2.24a2.48,2.48,0,0,0,4.25,0h2.34a2.48,2.48,0,0,0,4.25,0h2.41a2.48,2.48,0,0,0,4.25,0h2.34a2.48,2.48,0,0,0,4.25,0h2.33a2.48,2.48,0,0,0,4.25,0h2.33a2.48,2.48,0,0,0,4.25,0h2.25a2.48,2.48,0,0,0,4.25,0h2.33a2.48,2.48,0,0,0,4.25,0h2.42a2.48,2.48,0,0,0,4.25,0H342a2.48,2.48,0,0,0,4.25,0h2.34a2.48,2.48,0,0,0,4.25,0h2.33a2.48,2.48,0,0,0,4.25,0h2.46a2.48,2.48,0,0,0,4.25,0h2a2.66,2.66,0,0,0,2.12,1.2,2.33,2.33,0,0,0,1.07-.27Z" fill="#262521"/><path d="M371.22,331.51a2.24,2.24,0,0,0-.85-.19,2.66,2.66,0,0,0-2.12,1.18h-2.13a2.48,2.48,0,0,0-4.22,0h-2.49a2.49,2.49,0,0,0-4.23,0h-2.36a2.48,2.48,0,0,0-4.22,0h-2.36a2.49,2.49,0,0,0-4.23,0h-2.35a2.49,2.49,0,0,0-4.23,0H333a2.49,2.49,0,0,0-4.23,0h-2.35a2.49,2.49,0,0,0-4.23,0h-2.27a2.49,2.49,0,0,0-4.23,0h-2.35a2.49,2.49,0,0,0-4.23,0h-2.35a2.49,2.49,0,0,0-4.23,0h-2.36a2.48,2.48,0,0,0-4.22,0h-2.45a2.48,2.48,0,0,0-4.22,0h-2.36a2.48,2.48,0,0,0-4.22,0h-2.28a2.48,2.48,0,0,0-4.22,0h-2.36a2.48,2.48,0,0,0-4.22,0h-2.36a2.49,2.49,0,0,0-4.23,0h-2.35a2.49,2.49,0,0,0-4.23,0H254a2.49,2.49,0,0,0-4.23,0h-2.35a2.49,2.49,0,0,0-4.23,0h-2.27a2.49,2.49,0,0,0-4.23,0h-2.35a2.49,2.49,0,0,0-4.23,0h-2.36a2.48,2.48,0,0,0-4.22,0h-2.36a2.48,2.48,0,0,0-4.22,0H214.5a2.48,2.48,0,0,0-4.22,0h-2.36a2.49,2.49,0,0,0-4.23,0h-2.27a2.48,2.48,0,0,0-4.22,0h-2.36a2.49,2.49,0,0,0-4.23,0h-2.35a2.49,2.49,0,0,0-4.23,0h-2.35a2.49,2.49,0,0,0-4.23,0H175a2.49,2.49,0,0,0-4.23,0h-2.36a2.48,2.48,0,0,0-4.22,0h-2.31a2.49,2.49,0,0,0-4.23,0H155.3a2.48,2.48,0,0,0-4.22,0h-2.36a2.49,2.49,0,0,0-4.23,0h-2.35a2.49,2.49,0,0,0-4.23,0h-2.44a2.49,2.49,0,0,0-4.23,0h-2.35a2.66,2.66,0,0,0-2.12-1.18,2.37,2.37,0,0,0-1.43.52q0,4.62.1,9.24c0,3,.17,6,.1,8.94a2.36,2.36,0,0,0,1.23.37,2.66,2.66,0,0,0,2.14-1.22h2.31a2.48,2.48,0,0,0,4.27,0h2.4a2.48,2.48,0,0,0,4.27,0h2.31a2.48,2.48,0,0,0,4.27,0h2.31a2.49,2.49,0,0,0,4.28,0h2.3a2.49,2.49,0,0,0,4.28,0h2.26a2.49,2.49,0,0,0,4.28,0h2.31a2.48,2.48,0,0,0,4.27,0h2.4a2.48,2.48,0,0,0,4.27,0H184a2.48,2.48,0,0,0,4.27,0h2.31a2.49,2.49,0,0,0,4.28,0h2.3a2.49,2.49,0,0,0,4.28,0h2.22a2.49,2.49,0,0,0,4.28,0h2.3a2.49,2.49,0,0,0,4.28,0h2.39a2.49,2.49,0,0,0,4.28,0h2.3a2.49,2.49,0,0,0,4.28,0h2.31a2.48,2.48,0,0,0,4.27,0h2.31a2.48,2.48,0,0,0,4.27,0h2.23a2.48,2.48,0,0,0,4.27,0h2.31a2.48,2.48,0,0,0,4.27,0h2.4a2.48,2.48,0,0,0,4.27,0H263a2.48,2.48,0,0,0,4.27,0h2.31a2.49,2.49,0,0,0,4.28,0h2.3a2.49,2.49,0,0,0,4.28,0h2.22a2.49,2.49,0,0,0,4.28,0h2.3a2.49,2.49,0,0,0,4.28,0h2.39a2.49,2.49,0,0,0,4.28,0h2.3a2.49,2.49,0,0,0,4.28,0h2.31a2.48,2.48,0,0,0,4.27,0h2.31a2.48,2.48,0,0,0,4.27,0h2.23a2.48,2.48,0,0,0,4.27,0h2.31a2.48,2.48,0,0,0,4.27,0h2.4a2.48,2.48,0,0,0,4.27,0H342a2.49,2.49,0,0,0,4.28,0h2.3a2.49,2.49,0,0,0,4.28,0h2.31a2.48,2.48,0,0,0,4.27,0h2.44a2.49,2.49,0,0,0,4.28,0h1.94a2.66,2.66,0,0,0,2.13,1.22,2.28,2.28,0,0,0,1-.25Z" fill="#262521"/><path d="M370.37,370.74a2.57,2.57,0,0,0-1.93,1h-2.5a2.41,2.41,0,0,0-3.86,0h-2.86a2.4,2.4,0,0,0-3.85,0h-2.73a2.41,2.41,0,0,0-3.86,0h-2.73a2.53,2.53,0,0,0-1.92-1,2.57,2.57,0,0,0-1.93,1h-2.73a2.4,2.4,0,0,0-3.85,0H332.8a2.4,2.4,0,0,0-3.85,0h-2.73a2.4,2.4,0,0,0-3.85,0h-2.65a2.4,2.4,0,0,0-3.85,0h-2.73a2.4,2.4,0,0,0-3.85,0h-2.73a2.57,2.57,0,0,0-1.93-1,2.53,2.53,0,0,0-1.92,1H300a2.41,2.41,0,0,0-3.86,0h-2.81a2.41,2.41,0,0,0-3.86,0h-2.72a2.41,2.41,0,0,0-3.86,0h-2.64a2.41,2.41,0,0,0-3.86,0h-2.72a2.41,2.41,0,0,0-3.86,0h-2.73a2.4,2.4,0,0,0-3.85,0h-2.73a2.4,2.4,0,0,0-3.85,0h-2.82a2.4,2.4,0,0,0-3.85,0h-2.73a2.4,2.4,0,0,0-3.85,0h-2.65a2.4,2.4,0,0,0-3.85,0h-2.73a2.4,2.4,0,0,0-3.85,0h-2.73a2.41,2.41,0,0,0-3.86,0H221a2.41,2.41,0,0,0-3.86,0h-2.81a2.41,2.41,0,0,0-3.86,0h-2.73a2.4,2.4,0,0,0-3.85,0h-2.64a2.41,2.41,0,0,0-3.86,0h-2.73a2.53,2.53,0,0,0-1.92-1,2.57,2.57,0,0,0-1.93,1h-2.73a2.4,2.4,0,0,0-3.85,0h-2.73a2.4,2.4,0,0,0-3.85,0h-2.82a2.4,2.4,0,0,0-3.85,0h-2.73a2.57,2.57,0,0,0-1.93-1,2.53,2.53,0,0,0-1.92,1H161.7a2.4,2.4,0,0,0-3.85,0h-2.73a2.41,2.41,0,0,0-3.86,0h-2.73a2.4,2.4,0,0,0-3.85,0H142a2.4,2.4,0,0,0-3.85,0h-2.82a2.4,2.4,0,0,0-3.85,0H128.7a2.57,2.57,0,0,0-1.93-1,2.48,2.48,0,0,0-1.7.75v17.57a2.46,2.46,0,0,0,1.7.75,2.75,2.75,0,0,0,2.27-1.43h2.05a2.52,2.52,0,0,0,4.54,0h2.13a2.51,2.51,0,0,0,4.53,0h2.05a2.52,2.52,0,0,0,4.54,0h2a2.52,2.52,0,0,0,4.54,0h2a2.52,2.52,0,0,0,4.54,0h2a2.52,2.52,0,0,0,4.54,0h2a2.51,2.51,0,0,0,4.53,0h2.13a2.52,2.52,0,0,0,4.54,0h2a2.51,2.51,0,0,0,4.53,0h2.05a2.52,2.52,0,0,0,4.54,0h2a2.52,2.52,0,0,0,4.54,0h2a2.52,2.52,0,0,0,4.54,0h2a2.52,2.52,0,0,0,4.54,0h2.13a2.52,2.52,0,0,0,4.54,0h2a2.52,2.52,0,0,0,4.54,0h2a2.52,2.52,0,0,0,4.54,0h2a2.52,2.52,0,0,0,4.54,0H243a2.52,2.52,0,0,0,4.54,0h2.05a2.51,2.51,0,0,0,4.53,0h2.14a2.51,2.51,0,0,0,4.53,0h2.05a2.52,2.52,0,0,0,4.54,0h2a2.52,2.52,0,0,0,4.54,0h2a2.52,2.52,0,0,0,4.54,0h2a2.52,2.52,0,0,0,4.54,0h2a2.52,2.52,0,0,0,4.54,0h2.13a2.52,2.52,0,0,0,4.54,0h2a2.52,2.52,0,0,0,4.54,0H309a2.51,2.51,0,0,0,4.53,0h2a2.52,2.52,0,0,0,4.54,0h2a2.51,2.51,0,0,0,4.53,0h2.05a2.52,2.52,0,0,0,4.54,0h2.13a2.51,2.51,0,0,0,4.53,0h2.05a2.52,2.52,0,0,0,4.54,0h2a2.52,2.52,0,0,0,4.54,0h2a2.52,2.52,0,0,0,4.54,0h2.18a2.52,2.52,0,0,0,4.54,0H368a2.75,2.75,0,0,0,2.26,1.43C370.43,389.81,370.53,370.74,370.37,370.74Z" fill="#262521"/><path d="M370.37,409.55a2.69,2.69,0,0,0-2.13,1.2h-2.11a2.48,2.48,0,0,0-4.25,0h-2.46a2.48,2.48,0,0,0-4.25,0h-2.33a2.48,2.48,0,0,0-4.25,0h-2.34a2.48,2.48,0,0,0-4.25,0h-2.33a2.48,2.48,0,0,0-4.25,0H333a2.48,2.48,0,0,0-4.25,0h-2.33a2.48,2.48,0,0,0-4.25,0h-2.25a2.48,2.48,0,0,0-4.25,0h-2.33a2.48,2.48,0,0,0-4.25,0h-2.33a2.48,2.48,0,0,0-4.25,0h-2.34a2.48,2.48,0,0,0-4.25,0h-2.41a2.48,2.48,0,0,0-4.25,0h-2.34a2.48,2.48,0,0,0-4.25,0h-2.24a2.48,2.48,0,0,0-4.25,0h-2.34a2.48,2.48,0,0,0-4.25,0h-2.33a2.48,2.48,0,0,0-4.25,0h-2.33a2.48,2.48,0,0,0-4.25,0H254a2.48,2.48,0,0,0-4.25,0h-2.33a2.48,2.48,0,0,0-4.25,0h-2.25a2.48,2.48,0,0,0-4.25,0h-2.33a2.48,2.48,0,0,0-4.25,0h-2.33a2.48,2.48,0,0,0-4.25,0h-2.34a2.48,2.48,0,0,0-4.25,0h-2.41a2.7,2.7,0,0,0-2.13-1.2,2.67,2.67,0,0,0-2.12,1.2h-2.34a2.48,2.48,0,0,0-4.25,0h-2.24a2.48,2.48,0,0,0-4.25,0h-2.34a2.48,2.48,0,0,0-4.25,0h-2.33a2.48,2.48,0,0,0-4.25,0h-2.33a2.48,2.48,0,0,0-4.25,0H175a2.48,2.48,0,0,0-4.25,0h-2.33a2.48,2.48,0,0,0-4.25,0H161.9a2.48,2.48,0,0,0-4.25,0h-2.34a2.48,2.48,0,0,0-4.25,0h-2.33a2.48,2.48,0,0,0-4.25,0h-2.33a2.48,2.48,0,0,0-4.25,0h-2.42a2.48,2.48,0,0,0-4.25,0H128.9a2.69,2.69,0,0,0-2.13-1.2c-1.64,0,.39,17.88.39,17.88h4.07a2.49,2.49,0,0,0,4.25,0h2.42a2.49,2.49,0,0,0,4.25,0h2.33a2.49,2.49,0,0,0,4.25,0h2.33a2.49,2.49,0,0,0,4.25,0h2.34a2.49,2.49,0,0,0,4.25,0h2.29a2.49,2.49,0,0,0,4.25,0h2.33a2.49,2.49,0,0,0,4.25,0h2.42a2.49,2.49,0,0,0,4.25,0H184a2.49,2.49,0,0,0,4.25,0h2.33a2.49,2.49,0,0,0,4.25,0h2.34a2.49,2.49,0,0,0,4.25,0h2.24a2.49,2.49,0,0,0,4.25,0h2.34a2.66,2.66,0,0,0,2.12,1.19,2.69,2.69,0,0,0,2.13-1.19h2.41a2.49,2.49,0,0,0,4.25,0h2.34a2.49,2.49,0,0,0,4.25,0h2.33a2.49,2.49,0,0,0,4.25,0h2.33a2.49,2.49,0,0,0,4.25,0h2.25a2.49,2.49,0,0,0,4.25,0h2.33a2.49,2.49,0,0,0,4.25,0h2.42a2.49,2.49,0,0,0,4.25,0H263a2.49,2.49,0,0,0,4.25,0h2.33a2.49,2.49,0,0,0,4.25,0h2.34a2.49,2.49,0,0,0,4.25,0h2.24a2.49,2.49,0,0,0,4.25,0h2.34a2.49,2.49,0,0,0,4.25,0h2.41a2.49,2.49,0,0,0,4.25,0h2.34a2.49,2.49,0,0,0,4.25,0h2.33a2.49,2.49,0,0,0,4.25,0h2.33a2.49,2.49,0,0,0,4.25,0h2.25a2.49,2.49,0,0,0,4.25,0h2.33a2.49,2.49,0,0,0,4.25,0h2.42a2.49,2.49,0,0,0,4.25,0H342a2.49,2.49,0,0,0,4.25,0h2.34a2.49,2.49,0,0,0,4.25,0h2.33a2.49,2.49,0,0,0,4.25,0h2.46a2.49,2.49,0,0,0,4.25,0h2a2.67,2.67,0,0,0,2.12,1.19C370.3,428.62,370.39,409.55,370.37,409.55Z" fill="#262521"/><path d="M370.37,448.76a2.66,2.66,0,0,0-2.13,1.2h-2.11a2.48,2.48,0,0,0-4.25,0h-2.46a2.48,2.48,0,0,0-4.25,0h-2.33a2.48,2.48,0,0,0-4.25,0h-2.34a2.48,2.48,0,0,0-4.25,0h-2.33a2.48,2.48,0,0,0-4.25,0H333a2.48,2.48,0,0,0-4.25,0h-2.33a2.48,2.48,0,0,0-4.25,0h-2.25a2.48,2.48,0,0,0-4.25,0h-2.33a2.48,2.48,0,0,0-4.25,0h-2.33a2.48,2.48,0,0,0-4.25,0h-2.34a2.48,2.48,0,0,0-4.25,0h-2.41a2.48,2.48,0,0,0-4.25,0h-2.34a2.48,2.48,0,0,0-4.25,0h-2.24a2.48,2.48,0,0,0-4.25,0h-2.34a2.48,2.48,0,0,0-4.25,0h-2.33a2.48,2.48,0,0,0-4.25,0h-2.33a2.48,2.48,0,0,0-4.25,0H254a2.48,2.48,0,0,0-4.25,0h-2.33a2.48,2.48,0,0,0-4.25,0h-2.25a2.48,2.48,0,0,0-4.25,0h-2.33a2.48,2.48,0,0,0-4.25,0h-2.33a2.48,2.48,0,0,0-4.25,0h-2.34a2.48,2.48,0,0,0-4.25,0h-2.41a2.68,2.68,0,0,0-2.13-1.2,2.64,2.64,0,0,0-2.12,1.2h-2.34a2.48,2.48,0,0,0-4.25,0h-2.24a2.48,2.48,0,0,0-4.25,0h-2.34a2.48,2.48,0,0,0-4.25,0h-2.33a2.48,2.48,0,0,0-4.25,0h-2.33a2.48,2.48,0,0,0-4.25,0H175a2.48,2.48,0,0,0-4.25,0h-2.33a2.48,2.48,0,0,0-4.25,0H161.9a2.48,2.48,0,0,0-4.25,0h-2.34a2.48,2.48,0,0,0-4.25,0h-2.33a2.48,2.48,0,0,0-4.25,0h-2.33a2.48,2.48,0,0,0-4.25,0h-2.42a2.48,2.48,0,0,0-4.25,0h-5.18l2.5,16.67s27.11-2,42.18-3c43.51,2.45,62.38-2.62,111.67-1.69,45.67.86,86.61,4.7,86.61,4.7S372,448.76,370.37,448.76Z" fill="#262521"/><path d="M61,203.56a2.49,2.49,0,0,0,4.28,0h2.3a2.5,2.5,0,0,0,4.29,0h2.21a2.49,2.49,0,0,0,4.28,0h2.3a2.5,2.5,0,0,0,4.29,0h2.38a2.49,2.49,0,0,0,4.28,0h2.3a2.5,2.5,0,0,0,4.29,0h2.3a2.49,2.49,0,0,0,4.28,0h2.3a2.49,2.49,0,0,0,4.28,0h2.44a2.49,2.49,0,0,0,4.28,0h5.72l-1.5-16.68h-4.25a2.49,2.49,0,0,0-4.22,0h-2.5a2.49,2.49,0,0,0-4.22,0h-2.36a2.49,2.49,0,0,0-4.22,0H98.18a2.68,2.68,0,0,0-2.11-1.17A2.65,2.65,0,0,0,94,186.88H91.59a2.49,2.49,0,0,0-4.22,0H84.92a2.48,2.48,0,0,0-4.21,0H78.34a2.49,2.49,0,0,0-4.22,0H71.84a2.48,2.48,0,0,0-4.21,0h-2.4l-5.77,16.68Z" fill="#262521"/><path d="M50,244.08a2.75,2.75,0,0,0,2.25-1.4h2.08a2.51,2.51,0,0,0,4.5,0h2.09a2.5,2.5,0,0,0,4.49,0H67.5a2.51,2.51,0,0,0,4.5,0h2a2.5,2.5,0,0,0,4.49,0h2.09a2.51,2.51,0,0,0,4.5,0h2.17a2.5,2.5,0,0,0,4.49,0h2.09a2.51,2.51,0,0,0,4.5,0h2.08a2.51,2.51,0,0,0,4.5,0H107a2.5,2.5,0,0,0,4.49,0h2.22a2.51,2.51,0,0,0,4.5,0h1.71l.44-16.67h-2.44a2.42,2.42,0,0,0-3.92,0h-2.8a2.41,2.41,0,0,0-3.91,0h-2.67a2.42,2.42,0,0,0-3.92,0H98a2.63,2.63,0,0,0-2-1,2.59,2.59,0,0,0-2,1H91.45a2.41,2.41,0,0,0-3.91,0H84.79a2.63,2.63,0,0,0-2-1,2.59,2.59,0,0,0-2,1H78.2a2.41,2.41,0,0,0-3.91,0H71.71a2.63,2.63,0,0,0-2-1,2.59,2.59,0,0,0-2,1H65.12a2.41,2.41,0,0,0-3.91,0H58.54a2.41,2.41,0,0,0-3.91,0H52.76s-3.83,16.45-4.07,17.65A2.4,2.4,0,0,0,50,244.08Z" fill="#262521"/><path d="M122.82,265h-4.73a2.49,2.49,0,0,0-4.26,0h-2.46a2.48,2.48,0,0,0-4.25,0h-2.33a2.48,2.48,0,0,0-4.25,0H98.2A2.48,2.48,0,0,0,94,265H91.62a2.48,2.48,0,0,0-4.25,0H85a2.48,2.48,0,0,0-4.25,0H78.37a2.48,2.48,0,0,0-4.25,0H71.87a2.48,2.48,0,0,0-4.25,0H65.29A2.48,2.48,0,0,0,61,265H58.71a2.48,2.48,0,0,0-4.25,0H52.13a2.49,2.49,0,0,0-4.26,0H45.45s-2.87,16.92-3.05,17.65a2.27,2.27,0,0,0,.93.22,2.66,2.66,0,0,0,2.13-1.2h2.41a2.49,2.49,0,0,0,4.26,0h2.33a2.48,2.48,0,0,0,4.25,0H61a2.48,2.48,0,0,0,4.25,0h2.33a2.48,2.48,0,0,0,4.25,0h2.25a2.48,2.48,0,0,0,4.25,0H80.7a2.48,2.48,0,0,0,4.25,0h2.42a2.48,2.48,0,0,0,4.25,0H94a2.48,2.48,0,0,0,4.25,0h2.34a2.48,2.48,0,0,0,4.25,0h2.33a2.48,2.48,0,0,0,4.25,0h2.46a2.49,2.49,0,0,0,4.26,0h5.23Z" fill="#262521"/><path d="M116,302.91a2.68,2.68,0,0,0-2.13,1.2h-2.46a2.48,2.48,0,0,0-4.25,0h-2.33a2.48,2.48,0,0,0-4.25,0H98.2a2.48,2.48,0,0,0-4.25,0H91.62a2.48,2.48,0,0,0-4.25,0H85a2.48,2.48,0,0,0-4.25,0H78.37a2.48,2.48,0,0,0-4.25,0H71.87a2.48,2.48,0,0,0-4.25,0H65.29a2.48,2.48,0,0,0-4.25,0H58.71a2.48,2.48,0,0,0-4.25,0H52.13a2.49,2.49,0,0,0-4.26,0H45.46a2.48,2.48,0,0,0-4.25,0H39.68v16.67h1.53a2.48,2.48,0,0,0,4.25,0h2.41a2.49,2.49,0,0,0,4.26,0h2.33a2.48,2.48,0,0,0,4.25,0H61a2.48,2.48,0,0,0,4.25,0h2.33a2.48,2.48,0,0,0,4.25,0h2.25a2.48,2.48,0,0,0,4.25,0H80.7a2.48,2.48,0,0,0,4.25,0h2.42a2.48,2.48,0,0,0,4.25,0H94a2.48,2.48,0,0,0,4.25,0h2.34a2.48,2.48,0,0,0,4.25,0h2.33a2.69,2.69,0,0,0,2.12,1.2,2.64,2.64,0,0,0,2.11-1.2h1.5c-.08-.19-6.42-7.3-5.61-9s9.84-6.26,9.84-8.53A2.22,2.22,0,0,0,116,302.91Z" fill="#262521"/><path d="M111.36,343.15a2.49,2.49,0,0,0-4.23,0h-2.36a2.48,2.48,0,0,0-4.22,0H98.19a2.48,2.48,0,0,0-4.22,0H91.61a2.49,2.49,0,0,0-4.23,0H84.94a2.49,2.49,0,0,0-4.23,0H78.36a2.49,2.49,0,0,0-4.23,0H71.86a2.48,2.48,0,0,0-4.22,0H65.28a2.49,2.49,0,0,0-4.23,0H58.7a2.49,2.49,0,0,0-4.23,0H52.11a2.48,2.48,0,0,0-4.22,0H45.44a2.48,2.48,0,0,0-4.22,0H39.35v16.67h1.84a2.49,2.49,0,0,0,4.28,0h2.39a2.49,2.49,0,0,0,4.28,0h2.31a2.48,2.48,0,0,0,4.27,0H61a2.48,2.48,0,0,0,4.27,0h2.31a2.49,2.49,0,0,0,4.28,0h2.22a2.48,2.48,0,0,0,4.27,0h2.31a2.49,2.49,0,0,0,4.28,0h2.39a2.48,2.48,0,0,0,4.27,0h2.31a2.49,2.49,0,0,0,4.28,0h2.3a2.49,2.49,0,0,0,4.28,0h2.31a2.48,2.48,0,0,0,4.27,0h1.35V343.15Z" fill="#262521"/><path d="M107.2,382.36h-2.61a2.41,2.41,0,0,0-3.86,0H98a2.41,2.41,0,0,0-3.86,0H91.42a2.4,2.4,0,0,0-3.85,0H84.75a2.4,2.4,0,0,0-3.85,0H78.17a2.4,2.4,0,0,0-3.85,0H71.67a2.53,2.53,0,0,0-1.92-1,2.57,2.57,0,0,0-1.93,1H65.09a2.4,2.4,0,0,0-3.85,0H58.51a2.4,2.4,0,0,0-3.85,0H51.93a2.41,2.41,0,0,0-3.86,0H45.26a2.57,2.57,0,0,0-1.93-1,2.53,2.53,0,0,0-1.92,1H40V399h1.07a2.52,2.52,0,0,0,4.54,0h2.13a2.52,2.52,0,0,0,4.54,0h2a2.52,2.52,0,0,0,4.54,0h2a2.51,2.51,0,0,0,4.53,0h2A2.52,2.52,0,0,0,72,399h2a2.51,2.51,0,0,0,4.53,0h2a2.52,2.52,0,0,0,4.54,0h2.13a2.51,2.51,0,0,0,4.53,0h2a2.52,2.52,0,0,0,4.54,0h2a2.52,2.52,0,0,0,4.54,0h2Z" fill="#262521"/><path d="M104.79,421.41a2.48,2.48,0,0,0-4.25,0H98.2a2.48,2.48,0,0,0-4.25,0H91.62a2.48,2.48,0,0,0-4.25,0H85a2.48,2.48,0,0,0-4.25,0H78.37a2.48,2.48,0,0,0-4.25,0H71.87a2.48,2.48,0,0,0-4.25,0H65.29a2.48,2.48,0,0,0-4.25,0H58.71a2.48,2.48,0,0,0-4.25,0H52.13a2.49,2.49,0,0,0-4.26,0H45.46a2.68,2.68,0,0,0-2.07-1.19s.31,18.45.34,19a2.8,2.8,0,0,0,1.71-1.14h2.43a2.49,2.49,0,0,0,4.26,0h2.33a2.48,2.48,0,0,0,4.25,0H61a2.48,2.48,0,0,0,4.25,0h2.33a2.48,2.48,0,0,0,4.25,0h2.25a2.48,2.48,0,0,0,4.25,0H80.7a2.48,2.48,0,0,0,4.25,0h2.42a2.48,2.48,0,0,0,4.25,0H94a2.48,2.48,0,0,0,4.25,0h2.34a2.48,2.48,0,0,0,4.25,0h1.87V421.41Z" fill="#262521"/><path d="M106.39,460.61h-1.6a2.49,2.49,0,0,0-4.25,0H98.2a2.49,2.49,0,0,0-4.25,0H91.62a2.49,2.49,0,0,0-4.25,0H85a2.49,2.49,0,0,0-4.25,0H78.37a2.49,2.49,0,0,0-4.25,0H71.87a2.49,2.49,0,0,0-4.25,0H65.29a2.49,2.49,0,0,0-4.25,0H58.71a2.49,2.49,0,0,0-4.25,0H52.13a2.5,2.5,0,0,0-4.26,0h-.63c0,4.28.38,8.54.56,12.8.09.14,3.24,3.35,3.24,3.35s41.45.39,54.26-.09C105.43,475.87,106.44,463.34,106.39,460.61Z" fill="#262521"/><path d="M377.67,206.56a2.68,2.68,0,0,0,2.14-1.22h2.3a2.49,2.49,0,0,0,4.28,0h2.39a2.49,2.49,0,0,0,4.28,0h2.3a2.49,2.49,0,0,0,4.28,0h2.3a2.49,2.49,0,0,0,4.28,0h2.3a2.5,2.5,0,0,0,4.29,0h2.25a2.5,2.5,0,0,0,4.29,0h2.3a2.49,2.49,0,0,0,4.28,0h2.38a2.5,2.5,0,0,0,4.29,0h2.3a2.66,2.66,0,0,0,2.14,1.22s-7.07-18.11-7.38-18.91a3,3,0,0,0-1.3,1H425.9a2.48,2.48,0,0,0-4.22,0h-2.37a2.63,2.63,0,0,0-2.11-1.18,2.66,2.66,0,0,0-2.11,1.18h-2.32a2.47,2.47,0,0,0-4.21,0h-2.37a2.48,2.48,0,0,0-4.22,0h-2.36a2.48,2.48,0,0,0-4.22,0H393a2.48,2.48,0,0,0-4.22,0h-2.45a2.48,2.48,0,0,0-4.22,0h-2.36a2.66,2.66,0,0,0-2.11-1.18,2.63,2.63,0,0,0-2.11,1.18h-3.94l1,16.67h2.9A2.69,2.69,0,0,0,377.67,206.56Z" fill="#262521"/><path d="M377.67,245.86a2.73,2.73,0,0,0,2.24-1.39H382a2.52,2.52,0,0,0,4.5,0h2.17a2.51,2.51,0,0,0,4.49,0h2.09a2.52,2.52,0,0,0,4.5,0h2.08a2.52,2.52,0,0,0,4.5,0h2.09a2.51,2.51,0,0,0,4.49,0h2a2.51,2.51,0,0,0,4.49,0h2.09a2.52,2.52,0,0,0,4.5,0h2.17a2.51,2.51,0,0,0,4.49,0h2.09a2.52,2.52,0,0,0,4.5,0h2.08a2.52,2.52,0,0,0,4.5,0H448c.22.34-4.27-17.68-4.34-17.68a2.63,2.63,0,0,0-2,1H439a2.41,2.41,0,0,0-3.91,0h-2.67a2.41,2.41,0,0,0-3.91,0h-2.76a2.41,2.41,0,0,0-3.91,0h-2.67a2.41,2.41,0,0,0-3.91,0h-2.63a2.41,2.41,0,0,0-3.91,0H406a2.59,2.59,0,0,0-2-1,2.63,2.63,0,0,0-2,1h-2.66a2.42,2.42,0,0,0-3.92,0h-2.67a2.41,2.41,0,0,0-3.91,0h-2.75a2.42,2.42,0,0,0-3.92,0h-2.67a2.41,2.41,0,0,0-3.91,0h-2.28l-.31,16.68h2.3A2.73,2.73,0,0,0,377.67,245.86Z" fill="#262521"/><path d="M455.35,266.76h-3a2.48,2.48,0,0,0-4.25,0h-2.33a2.49,2.49,0,0,0-4.26,0h-2.33a2.48,2.48,0,0,0-4.25,0h-2.33a2.48,2.48,0,0,0-4.25,0h-2.42a2.48,2.48,0,0,0-4.25,0h-2.33a2.48,2.48,0,0,0-4.25,0h-2.29a2.48,2.48,0,0,0-4.25,0h-2.33a2.48,2.48,0,0,0-4.25,0h-2.34a2.48,2.48,0,0,0-4.25,0H393a2.48,2.48,0,0,0-4.25,0h-2.42a2.48,2.48,0,0,0-4.25,0h-2.33a2.48,2.48,0,0,0-4.25,0h-2.92l-2.76,16.35,5.49,0a2.54,2.54,0,0,0,4.62,0h2a2.53,2.53,0,0,0,4.59,0h2.09a2.53,2.53,0,0,0,4.56,0h2a2.52,2.52,0,0,0,4.53,0h2.07a2.5,2.5,0,0,0,4.49,0h2.11a2.5,2.5,0,0,0,4.46,0H415a2.5,2.5,0,0,0,4.44,0h2.16a2.5,2.5,0,0,0,4.41,0h2.27a2.49,2.49,0,0,0,4.38,0h2.22a2.49,2.49,0,0,0,4.35,0h2.25a2.48,2.48,0,0,0,4.31,0h2.29a2.48,2.48,0,0,0,4.28,0h2.23a2.67,2.67,0,0,0,2.13,1.21C457.09,284.63,455.35,266.76,455.35,266.76Z" fill="#262521"/><path d="M460.15,305.89h-1.32a2.49,2.49,0,0,0-4.26,0h-2.24a2.48,2.48,0,0,0-4.25,0h-2.33a2.49,2.49,0,0,0-4.26,0h-2.33a2.48,2.48,0,0,0-4.25,0h-2.33a2.48,2.48,0,0,0-4.25,0h-2.42a2.48,2.48,0,0,0-4.25,0h-2.33a2.48,2.48,0,0,0-4.25,0h-2.29a2.48,2.48,0,0,0-4.25,0h-2.33a2.48,2.48,0,0,0-4.25,0h-2.34a2.48,2.48,0,0,0-4.25,0H393a2.48,2.48,0,0,0-4.25,0h-2.42a2.66,2.66,0,0,0-2.12-1.2c-.23,0-6,10.53,0,19.07a2.66,2.66,0,0,0,2.12-1.2h2.42a2.48,2.48,0,0,0,4.25,0h2.33a2.48,2.48,0,0,0,4.25,0H402a2.48,2.48,0,0,0,4.25,0h2.33a2.48,2.48,0,0,0,4.25,0h2.29a2.48,2.48,0,0,0,4.25,0h2.33a2.48,2.48,0,0,0,4.25,0h2.42a2.48,2.48,0,0,0,4.25,0h2.33a2.48,2.48,0,0,0,4.25,0h2.33a2.49,2.49,0,0,0,4.26,0h2.33a2.48,2.48,0,0,0,4.25,0h2.24a2.49,2.49,0,0,0,4.26,0h1.32Z" fill="#262521"/><path d="M394.19,361.61h1.17a2.5,2.5,0,0,0,4.28,0h2.3a2.5,2.5,0,0,0,4.28,0h2.31a2.49,2.49,0,0,0,4.27,0h2.27a2.49,2.49,0,0,0,4.27,0h2.31a2.49,2.49,0,0,0,4.27,0h2.4a2.49,2.49,0,0,0,4.27,0h2.31a2.5,2.5,0,0,0,4.28,0h2.3a2.5,2.5,0,0,0,4.28,0h2.31a2.49,2.49,0,0,0,4.27,0h2.22a2.5,2.5,0,0,0,4.28,0h1.37l.48-16.67h-1.88a2.48,2.48,0,0,0-4.22,0h-2.27a2.49,2.49,0,0,0-4.23,0h-2.36a2.48,2.48,0,0,0-4.22,0h-2.36a2.49,2.49,0,0,0-4.23,0h-2.35a2.49,2.49,0,0,0-4.23,0H425.9a2.49,2.49,0,0,0-4.23,0h-2.35a2.49,2.49,0,0,0-4.23,0h-2.31a2.49,2.49,0,0,0-4.23,0h-2.36a2.48,2.48,0,0,0-4.22,0h-2.36a2.48,2.48,0,0,0-4.22,0H393a2.66,2.66,0,0,0-2.11-1.18,2.63,2.63,0,0,0-2.07,1.12.14.14,0,0,0,0,.06h0C389.06,345.4,394.19,361.61,394.19,361.61Z" fill="#262521"/><path d="M460.15,384.14h-1.52a2.42,2.42,0,0,0-3.86,0h-2.64a2.41,2.41,0,0,0-3.85,0h-2.73a2.42,2.42,0,0,0-3.86,0H439a2.41,2.41,0,0,0-3.85,0h-2.73a2.41,2.41,0,0,0-3.85,0h-2.82a2.41,2.41,0,0,0-3.85,0h-2.73a2.41,2.41,0,0,0-3.85,0h-2.69a2.41,2.41,0,0,0-3.85,0H406a2.59,2.59,0,0,0-1.93-1,2.55,2.55,0,0,0-1.92,1h-2.73a2.42,2.42,0,0,0-3.86,0h-2.73a2.41,2.41,0,0,0-3.83,0s2.31,17.36,2.34,18.07a2.9,2.9,0,0,0,1.84-1.38h2a2.52,2.52,0,0,0,4.54,0h2a2.52,2.52,0,0,0,4.54,0h2a2.51,2.51,0,0,0,4.53,0h2a2.51,2.51,0,0,0,4.53,0h2a2.52,2.52,0,0,0,4.54,0h2.13a2.51,2.51,0,0,0,4.53,0h2a2.52,2.52,0,0,0,4.54,0h2a2.52,2.52,0,0,0,4.54,0h2a2.52,2.52,0,0,0,4.54,0h2a2.52,2.52,0,0,0,4.54,0h.74C460.09,395.27,460.14,389.7,460.15,384.14Z" fill="#262521"/><path d="M456.7,422a2.68,2.68,0,0,0-2.13,1.2h-2.24a2.48,2.48,0,0,0-4.25,0h-2.33a2.49,2.49,0,0,0-4.26,0h-2.33a2.48,2.48,0,0,0-4.25,0h-2.33a2.48,2.48,0,0,0-4.25,0h-2.42a2.48,2.48,0,0,0-4.25,0h-2.33a2.48,2.48,0,0,0-4.25,0h-2.29a2.48,2.48,0,0,0-4.25,0h-2.33a2.48,2.48,0,0,0-4.25,0h-2.34a2.48,2.48,0,0,0-4.25,0h-3.72v16.67h3.71a2.48,2.48,0,0,0,4.25,0H402a2.48,2.48,0,0,0,4.25,0h2.33a2.48,2.48,0,0,0,4.25,0h2.29a2.48,2.48,0,0,0,4.25,0h2.33a2.48,2.48,0,0,0,4.25,0h2.42a2.48,2.48,0,0,0,4.25,0h2.33a2.48,2.48,0,0,0,4.25,0h2.33a2.49,2.49,0,0,0,4.26,0h2.33a2.48,2.48,0,0,0,4.25,0l4.07,0S456.77,422,456.7,422Z" fill="#262521"/><path d="M453.09,462.4h-.76a2.48,2.48,0,0,0-4.25,0h-2.33a2.49,2.49,0,0,0-4.26,0h-2.33a2.48,2.48,0,0,0-4.25,0h-2.33a2.48,2.48,0,0,0-4.25,0h-2.42a2.48,2.48,0,0,0-4.25,0h-2.33a2.48,2.48,0,0,0-4.25,0h-2.29a2.48,2.48,0,0,0-4.25,0h-2.33a2.48,2.48,0,0,0-4.25,0h-2.34a2.48,2.48,0,0,0-4.25,0H393s2.69,13.27,3.85,15.41c8.25-.59,38.5,2.46,54.57,2.61C451.84,478.33,453.09,462.4,453.09,462.4Z" fill="#262521"/><path d="M204.41,47.44s4,48.55,43.68,46.73,42.84-45.41,42.84-45.41" fill="none" stroke="#262521" stroke-linecap="round" stroke-linejoin="round" stroke-width="3"/><path d="M122.35,173.14s1.56,35.48-.55,51.11.11,29.7.11,32.88,1.9,33.06,1.9,33.06" fill="none" stroke="#262521" stroke-linecap="round" stroke-linejoin="round" stroke-width="3"/><path d="M370.37,176.23s5.79,71.93,0,100" fill="none" stroke="#262521" stroke-linecap="round" stroke-linejoin="round" stroke-width="3"/></svg>