<svg xmlns="http://www.w3.org/2000/svg" width="500" height="550" viewBox="0 0 500 550"><path d="M199.74 55.82s69.23 24 97.74-2.18c0 0 .84 51.38-41 54.84s-56.74-52.66-56.74-52.66z" fill="#fff"/><path d="M284.66 53.19c-18.12 10.43-41.21 7.31-61.25 4.88C216 56.81 209.25 54 204 48.4l-.42.07s3.55 36.22 43.55 34.4 44.51-34.4 44.51-34.4a36 36 0 01-6.98 4.72z" fill="#fff" stroke="#262521" stroke-linecap="round" stroke-linejoin="round" stroke-width="3.07"/><path d="M365.23 282.8s-1.73 202.07-5 204.25-151.41 0-167.06-3.27-53.14 5-57.87 4.15-5.46-18.39-3.64-26S133 282.8 133 282.8z" fill="#fff" stroke="#262521" stroke-linecap="round" stroke-linejoin="round" stroke-width="3"/><path d="M291.48 48.63c29.12 10.49 61 14.41 87.44 31.58 15.94 14.59 21.63 38 30.45 57.21 27.81 67.48 58 137.39 51.05 212.08-1.19 18.65-.23 37.45-3.28 55.95-.49 4.66-5.21 7.1-5.56 11.78-1.22 5.28-2.08 10.65-2.91 16-.4 2.6-.41 2.83-3.08 2.33-12.48-2.66-25.26-5.49-37.8-1.58-8.34-.15-8.13-15.56-11.44-21.4-6.28-7.37-3.61-9-5.33-17.64-.9-9.7-4.68-20.27.79-29.26 2-3.53 1.86-7.05.51-10.66-4.9-11.28-7.4-23.41-10.45-35.29-1.07-4.3-1.31-8.49 1.61-12.34 1.51-7.23-10.43-8.68-10.93-15.93l-.41.08q-.27 61.74-.62 123.47c-.81 9-2.68 16.41-3.55 25.44-1 10.07 1.34 17.05-1.5 25.63-.59 1.77-2 1.67-3.35 1.44-44.59-7.74-101.66-5.72-146.65-2.92-24.6.57-58.62-1.68-83 2.09-5.23.59-5.68.27-6.62-4.83-1.35-11.26 1.94-18.53.53-29.31-6.15-46.82-1.39-94.37-3.6-141.53-1.42 2.83-2.94 5.6-4.29 8.46-2.37 10.67-17.5 9.3-11.81 16.18 11.11 7.95 6.41 21.38 5.15 32.56-.25 3.15-1.35 6.27-.37 9.58.51 8.44-3.19 16.94-4.38 25.31-1.5 8-2.61 15.83-1.54 23.93a5.1 5.1 0 01-1.13 3.3c-5.71 6.28-7.75 14-9.19 22.06-.57 3.18-.61 3-3.74 2-12.38-3.52-26.09-4.38-38.6-1.18-1.39.34-2.11 0-2.41-1.47-2-7.76-2.18-16.67-8.49-22.43a6.62 6.62 0 01-1.33-3.22A144.46 144.46 0 0139 372.86c-1.91-63 2.6-126.93 26.19-186 13.61-35.43 24.56-73.32 48.07-103.67 27.32-18.2 60-23.76 90.46-34.78 0 0 4.7 48.42 44.37 46.6s43.39-46.38 43.39-46.38z" fill="#262521" stroke="#262521" stroke-linecap="round" stroke-linejoin="round" stroke-width="3"/><path d="M51.32 409.51S80 400 96.47 412M402.18 412s25.94-8.31 43.55 0M133.45 438.85s155.28-12.31 227.71 2.37" fill="none" stroke="#636363" stroke-linecap="round" stroke-linejoin="round"/><path d="M121.8 180.84s2.11 28.62 0 44.25.11 29.7.11 32.87 1.9 33.07 1.9 33.07M371.33 188.66s5.79 47.28 0 75.34l.81 27.55" fill="none" stroke="#262521" stroke-linecap="round" stroke-linejoin="round" stroke-width="3"/><path d="M194.62 56.1c2.77 14.3 15 50.28 52.49 50.23 39.57 0 51.53-38 53.68-50.23" fill="none" stroke="#636363" stroke-linecap="round" stroke-linejoin="round"/><path d="M240.47 170.65s1-9.09 2.34-9.24 3.82 36.22 3.82 36.22 11.43-37.39 20.23-43c0 0-2.64 8.06-2.64 9.09s1.91 1.32 1.76 2.35-6.45 14.36-6.6 17.88-9.38 29.66-9.38 35.53 1.46 13.34.14 17.15a66.7 66.7 0 01-2.93 7s-3.52-2.5-3.66-5.72.58-9.68-.59-13.78-6-15-6-18.18v-8.07s-1.76 13.05-2.49 14.37-2.5 4.55-2.5 7.77-2.34 5.43-1.9 6.6 1.32 2.64.88 4-5.13 10.26-6.6 11.87a8.39 8.39 0 01-3.37 2.2s2.78-8.79 3.22-10.11-2.2-1.18-.88-4.26.59-19.64 1.91-24.33 8.35-38.86 15.24-35.34z" fill="#fff" stroke="#fff" stroke-linecap="round" stroke-linejoin="round" stroke-width=".76"/><path d="M280.64 199.68c-1.17-1.9-5.57-5.13-1.47-7.92 0 0-3.37-5.57-6.74-5.42s-7.48 4.25-8.21 6.74-7 7.63-7.62 10.85-3.23 15.55-1.32 22.14 7.18 10.85 7.18 11.73 5.72 2.93 7-1.61 5.42-11.29 7.33-13.93 5.02-20.67 3.85-22.58zm-5.57 7.92c-2.79-.88-6.89 5.28-7.32 10.41s-.74 8.36-4.41 7.92-1.76-10.27.73-18.33 8.07-10.26 9.83-9.82 1.17 9.82 1.17 9.82zM201.76 248.21s-10.26.15-11.44 0-.73 2.79-.73 2.79-2.78 1.9-1.46 3.37-1.91 2.05-1.91 2.05 3.66 1.76 5.13 2.5 3.67 3.81 4.25 2.63a3.05 3.05 0 013.23-1.76s-.44 5.87-3.81 15.11.58 30.05.58 30.05-3.37 5.57-2.34 8.8 2.2 3.08 2.2 4.55.29 4.25 1.76 3.95 1.31-11.73 1.31-11.73 3.82-2.34 3.23-2.63-4.69-1.76-3.52-3.82 3.5 1.62 3.58-.73 4.19-39.44 8.74-42.67c0 0 17.44 1.91 17.3.44a11.16 11.16 0 010-2.49s8.65.88 8.65.15-1-.88-1.76-1.91 3.81.44 3.81-.88-10.26-1.17-10.26-1.17 2.78-2.79-.88-3.08-15-2-15-2 .37-2.79-1.1-2.93a6.21 6.21 0 00-3.33 1.17s3.18-5 2-5.28-8.23 5.52-8.23 5.52z" fill="#fff" stroke="#fff" stroke-linecap="round" stroke-linejoin="round" stroke-width=".76"/><path d="M235 275.92c-.58-2.2-5.28-6.16-5.28-6.16v-2.63s-5.86-1.18-7.18 0-3.81 5.42-5.86 8.35-8.51 13.93-8.07 20.09a71 71 0 001.76 11.29l-3.08 1s3.08 6 6.6 5.86 7.92 1.91 13.64-5.42 6.47-9.5 6.47-14.05 1.63-16.13 1-18.33zm-7 9.39c-.44 3.22-2.5 13.05-9.39 17.74s-4.4-11.81-4.4-11.81.59 4.92 2.64 3 6-5.86 4.11-12.61a3.86 3.86 0 013.66-2.2c2.65.16 3.82 2.65 3.38 5.88zM249.56 262.87s-5.43-2.34-7.77 0-5.28 23.76-5.43 31.53 4.55 16 7.55 16.12 5.21-1.1 7.41-6.63 9.23-28 9.23-30.9-.44-7.18-3.51-7.48-2.5 1-3.52 4.25-2.2 18.41-3.52 20.5-4-.41-3.52 2.52-.59 9.39-2.57 9.53-1.54-32.84 5.65-39.44zM282 270.79h2.93s-1.61 3.37-2.93 3.67.73 5.57 0 5.86-6 4.25-6.16.88 1.51-8.5-.64-8.5-9 15.35-9 19v10.51s6.05-6.75 9-6.75 5.77.79 3.28 3.25-7.62 15.67-11.58 16.11-9.82.93-7.33-16.11 12.46-38.29 16.86-39.61 5.57 11.69 5.57 11.69zM298.67 275.19s-1.9-6.32-1.75-8.59 3.51-10 3.51-12.23S294 246 294 246s-6.45 8-5.42 13-1.91 9.62-1.91 11.67-4.25 25.66-2.49 35.49 4.84 11.58 5.42 13.48a4.62 4.62 0 002.5 2.67s1.76-3.54.73-5.45-.44-25.07.73-27.42 4.4-.44 4.4-.44-.15 20.09 0 22.29 1.61 7.77 3.37 7.77.59 6.16 2.2 6.16 1-13.79 1-13.79a8.12 8.12 0 003.52-6.3c.29-4.4 2.05-19.5 2.78-24.78s4.7-20.38 3.82-22.58-7.19-2.34-7.48-1.46-5.13 17.44-5.13 18.62-3.37.26-3.37.26z" fill="#fff" stroke="#fff" stroke-linecap="round" stroke-linejoin="round" stroke-width=".76"/><path d="M286.68 329.19c-1.24 1.55-2.43 3.13-3.52 4.79a15.05 15.05 0 00-2.59 5.11 1.46 1.46 0 00.54 1.61c.7.51 1.43.19 2.12-.15a39 39 0 005.13-3.05 1.16 1.16 0 00-.27-2.08 8.46 8.46 0 00-5-.23c-1.44.35-.82 2.45.61 2.2l2.3-.39 1-.19c.12 0 1.11-.14.85-.34l-.17-1.39c-.75 1.1-1.52 2.18-2.31 3.25-.56.77.39 2.05 1.29 1.68 2.28-.94 4-2.84 6.22-3.77l-1.28-1.68c-.53 1.11-1.1 2.19-1.71 3.25s.94 2.41 1.79 1.38a41.22 41.22 0 004.51-7.08 1.14 1.14 0 00-1.79-1.38 46.4 46.4 0 00-4.33 4.86c-1.14 1.49-2.8 3.26-2.31 5.27a1.13 1.13 0 001.4.8 27.88 27.88 0 006.67-3.95l-1.9-.51.26.81a1.14 1.14 0 001.4.8 3.74 3.74 0 01.74-.23c-.18-.08-.24 0-.21.13s0 .59.12.88a1.66 1.66 0 001.1 1.06c1.29.32 2.77-1.13 3.59-1.94A16.69 16.69 0 00305 331a1.15 1.15 0 00-1.91-1.11c-2.81 2.68-3.64 6.56-5.64 9.77-.78 1.25 1.19 2.39 2 1.15 1.88-3 2.65-6.79 5.28-9.31l-1.9-1.11a14.1 14.1 0 01-3.72 6.94c-.22.21-1.47.92-1.5 1.11.56.61.84.7.82.28v-.44a2.27 2.27 0 00-.21-.86c-.6-1.26-2.12-1.23-3.23-.8l1.4.8-.26-.81a1.16 1.16 0 00-1.91-.51 23.87 23.87 0 01-5.66 3.37l1.4.8c-.17-.69.67-1.59 1-2.11.5-.71 1-1.41 1.59-2.09a43.05 43.05 0 013.43-3.72l-1.8-1.38a39.12 39.12 0 01-4.15 6.62l1.79 1.38q.92-1.59 1.71-3.24c.37-.79-.28-2.1-1.29-1.68-2.28.94-4 2.84-6.23 3.77l1.29 1.67c.79-1.07 1.56-2.15 2.31-3.25a1.15 1.15 0 00-.18-1.38c-.86-.7-1.65-.5-2.67-.31l-3.67.67.61 2.2a6.28 6.28 0 013.76.23l-.27-2.09c-.88.61-1.77 1.18-2.68 1.72-.46.27-.92.53-1.39.78-.26.14-1.27.43-.88.7l.52.68c0 .41 0 .38.08-.09.07-.24.16-.49.25-.72a10.63 10.63 0 01.56-1.12c.41-.74.88-1.47 1.35-2.18q1.53-2.32 3.27-4.49c.92-1.13-.69-2.76-1.61-1.62z" fill="#fff"/><path d="M279.92 352.85a10.72 10.72 0 011.42-3.32c.6-1.07 1.25-2.11 1.93-3.14s1.4-2 2.12-3a11.61 11.61 0 012-2.41 2.22 2.22 0 01.55-.29c.2-.1.29 0 .16-.13.16.17-.19.87-.28 1.06a9.36 9.36 0 01-2 2.47 26.31 26.31 0 01-5.47 3.61 1.16 1.16 0 00-.41 1.56 10.37 10.37 0 005.8 5.24c1 .39 3 1.06 3.7-.17a13.08 13.08 0 00.84-2.32l.86-2.44c.49-1.39-1.71-2-2.2-.61s-1 3-1.59 4.49l.3-.5-.08.09.5-.29c-.39.13-1.34-.31-1.73-.45a8.36 8.36 0 01-1.85-1 8.12 8.12 0 01-2.58-3.17l-.41 1.56a31.19 31.19 0 005.49-3.58c1.5-1.29 3.39-3.25 3.4-5.37a2.21 2.21 0 00-1.71-2.3 3.56 3.56 0 00-3 1.06 16.23 16.23 0 00-2.06 2.54c-.73 1-1.45 2-2.13 3s-1.43 2.21-2.08 3.36a12.5 12.5 0 00-1.65 3.87c-.26 1.43 1.94 2.05 2.2.6z" fill="#fff"/><path d="M288.81 346.07a23.16 23.16 0 00-2.55 3.75 1.15 1.15 0 001.57 1.56 34 34 0 006.3-4.55l-1.79-1.38c-.91 1.56-4.31 5.86-1.17 7a2.37 2.37 0 002.83-1.25 10 10 0 00.69-4.12l-2.24.3a4.65 4.65 0 00.81 1.44 3.65 3.65 0 00.62.56c.28.21.42.45.41 0 0 .86-.4 1.56.4 2.25a1.16 1.16 0 001.79-.23q2.53-3.94 4.78-8.07c.55-1 1.6-2.61 0-3.33s-2.37.91-3.07 1.89a25.69 25.69 0 00-3.65 7.45 24.6 24.6 0 00-.88 4.07c-.17 1.21.17 2.4 1.56 2.53a1.13 1.13 0 001-.57 39 39 0 004.06-8.25l-2.08.27 1.16 1.86a1.15 1.15 0 002 0l.83-1.44-2.13-.57c0 1.29 0 2.57-.14 3.86a1.14 1.14 0 001.71 1 5.7 5.7 0 001.89-2.41l1.88-3.3h-2a1.54 1.54 0 01.23.65c.16 1.44 2.44 1.46 2.28 0a4.42 4.42 0 00-.54-1.8 1.15 1.15 0 00-2 0L301.9 348c-.35.62-.75 1.82-1.39 2.17l1.72 1c.09-1.29.14-2.57.14-3.86a1.15 1.15 0 00-2.12-.58l-.83 1.44h2l-1.16-1.86a1.16 1.16 0 00-2.09.27 37 37 0 01-3.83 7.71l1-.56c1.64.16.5.75.66.29a5.05 5.05 0 00.08-.68c.08-.49.17-1 .28-1.46a25.9 25.9 0 01.82-2.86 23.57 23.57 0 012.68-5.3c.28-.41.56-.82.87-1.21a3 3 0 00.32-.4c-.5-1.16-.87-1.46-1.11-.89l-.24.44c-.5.94-1 1.87-1.54 2.79-1.14 2-2.32 3.94-3.56 5.87l1.79-.23c.38.32 0 .33.16.12a1.6 1.6 0 00.09-.58 2 2 0 00-.19-1.09c-.41-.78-1.38-.87-1.71-1.74a1.15 1.15 0 00-2.24.31 15.72 15.72 0 01-.22 2.26c-.05.25-.12.49-.18.75a.42.42 0 01-.18.25c.2.24.3.25.3.05a5.27 5.27 0 00.48-.95l.5-.85 1.16-2a1.14 1.14 0 00-1.79-1.38 31.83 31.83 0 01-5.85 4.19l1.56 1.56a20.59 20.59 0 012.19-3.28c.93-1.13-.67-2.75-1.61-1.62z" fill="#fff"/></svg>