<svg xmlns="http://www.w3.org/2000/svg" width="500" height="550" viewBox="0 0 500 550"><path d="M348.66 319.43s44.82 106.19 53.43 111.67 67.31-35.22 75.13-37.57S420.87 237.79 415 215.87s-20.74-113.48-43.43-125.22-86.09-27.39-86.09-27.39h-74.35s-79 13.3-90 48.52S45.21 395.88 50.69 399s75.13 29.74 79.82 25.83 0-12.52 7.83-20.35 32.6-80.11 33.38-87.15-.51 32.37-.51 32.37-19.74 104-14.76 111 101.64 5.61 134.51 1.7 71 2.49 75.5-4.61-13.68-82.95-13.68-98.7z" fill="#fff" stroke="#262521" stroke-linecap="round" stroke-linejoin="round" stroke-width="3"/><path d="M298.06 187c-.58 1-2.39 4.64.13 4.75 2 .1 3.64-2.63 4.29-4.17l-1.37-.58a54 54 0 01-1.61 5.26 8.46 8.46 0 01-1.07 2.2 2.28 2.28 0 01-.29.33c-.11.08 0 0 .06 0s0-.14.05-.23c2-3 5.66-4.55 7.55-7.71l-1.4-.38c0 1.1.33 2.17.38 3.27 0 .27.1.85-.13 1.07s-1.44-.16-1.8-.29c-.92-.34-1.28 1.1-.4 1.45 5 2 7.05-3.26 8.89-6.8l-1.37-.58a26.71 26.71 0 01-1.3 3.53c-.36 1-1.06 2.66-.49 3.75s2.13.62 2.89-.08c1.1-1 2.26-3.74 4-3.3V187c-1.56.43-5.19 2.53-3.4 4.65 2 2.37 4.34-2.71 4.78-3.9l-1.44-.4c-.27 1-.82 2.56-.23 3.53.48.81 1.4.61 2.05.16 1.9-1.28 3.36-3.75 4.36-5.74.54-1.07 1.94-4.9-.83-4.2-2.34.6-2.74 4.76-2.82 6.67-.05 1.18-.07 2.91.82 3.85s2.27.17 3-.7-.43-1.79-1.06-1.06c-.2.22-.52.68-.84.74 0 0 0 .05-.12-.13a4.92 4.92 0 01-.34-2.43c0-1.74.28-4.06 1.53-5.38l.2-.11c0-.08-.05 0 0 0s-.08-.15-.1-.12 0 .13 0 .27a6.84 6.84 0 01-.71 1.88 19.26 19.26 0 01-3.1 4.53 6.13 6.13 0 01-.8.73c-.24.18-.45.17-.05.21s0 .27.11 0v-.45a9.76 9.76 0 01.38-1.83.75.75 0 00-1.44-.4 7.58 7.58 0 01-1.66 3c-.15.13-.37.35-.59.35.09 0 .06 0 0 0-.56-1 2.09-2.06 2.67-2.23a.75.75 0 000-1.44 3.5 3.5 0 00-3.58 1.42c-.52.59-1 1.24-1.49 1.83a5 5 0 01-.89.72c-.3.22-.12-.12-.05.13-.24-.89.51-2.34.81-3.15a22.22 22.22 0 001.11-3c.16-.79-1-1.37-1.37-.58-1.51 2.89-3.05 7.76-7.2 6.11l-.4 1.45c1.35.49 3.26.78 3.74-1 .39-1.44-.25-3-.29-4.5a.76.76 0 00-1.4-.37c-1.32 2.2-3.64 3.73-5.52 5.41-1 .91-3.11 2.68-1.92 4.19 2.57 3.28 5.17-7.1 5.5-8.31.21-.79-1-1.38-1.37-.58a6.37 6.37 0 01-2.6 3.32 1.49 1.49 0 01-.4.11c.37-.09 0 .28.18-.06a5.17 5.17 0 00.24-.94 11.48 11.48 0 01.74-1.49c.47-.84-.82-1.6-1.29-.76z" fill="#3b4f44"/><path d="M308.65 187.21h2.81a.75.75 0 000-1.5h-2.81a.75.75 0 000 1.5zm21.92-3.91c-1.44-1.16-3.61-1.61-4.5.44a3.58 3.58 0 002.08 4.6v-1.29c-1.51.84-4.47 3-2.65 5 1.42 1.53 4.08 1 5.65 0a7.62 7.62 0 002.79-3.06 11.16 11.16 0 001.27-5.65 1.4 1.4 0 00-1.6-1.33c-1 .27-1.2 1.83-1.33 2.68a11.6 11.6 0 00.62 6.39c.3.6.84 1.24 1.59 1s1.09-1.12 1.36-1.73c.41-.91.71-1.86 1.09-2.78 0-.08.18-.31.17-.39s.08-.12.07-.12l-.86.17v.35a21.6 21.6 0 00-.42 2.32.75.75 0 001.45.4c.34-.87.58-1.79 1-2.63a2.88 2.88 0 00.24-.46l.15-.19-.38-.22.08.68c0 1.3-.21 2.6-.15 3.9 0 .81 1.28 1.06 1.48.2s.35-1.47.55-2.19c.14-.5.28-1 .45-1.47a3.37 3.37 0 00.23-.6c0-.06.14-.17.12-.23s-.78-.25-.88-.17a13.62 13.62 0 00.36 2.62 3.07 3.07 0 001.27 2.24c2.35 1.2 4.23-2.63 4.49-4.37 0-.24.19-1.23-.06-1.41s-1 .84-1.07.68c0 .08.19.2.24.27a10.35 10.35 0 011 1.58c.19.38.73 1.37.51 1.72 0-.07-.12 0-.36 0a6.47 6.47 0 01-2-.64l-.58 1.37a5.74 5.74 0 006.15-.88c.69-.68-.38-1.74-1.07-1.06-1.24 1.22-3.16 1.11-4.68.49-.78-.31-1.36 1-.58 1.37 1.42.63 4.79 1.78 4.64-1a7.42 7.42 0 00-2.17-4.25c-.54-.5-1.49-.5-1.52.43a6.48 6.48 0 010 1.46 5.38 5.38 0 01-1.13 2.25c-.31.35-.86.89-1.27.48s-.39-1.25-.45-1.71c-.11-.77 0-2.3-.77-2.76-1.77-1-2.65 4.4-2.87 5.37l1.47.2c-.05-1.11.11-2.22.14-3.33 0-.69.09-1.71-.46-2.25-1.88-1.84-3.2 3.23-3.54 4.1l1.45.4c.23-1 1.23-4-.38-4.45-1.13-.31-1.46 1.28-1.74 2s-.49 1.34-.8 2c0 .1-.43.64-.4.74v.05c0 .16.15.16.43 0l-.19-.31c-.11-.77-.44-1.51-.52-2.31a12.86 12.86 0 010-3.1c0-.28.36-1 .28-1.28-.33-.93-.36.42-.37.59a11.67 11.67 0 01-.49 2.61 7.13 7.13 0 01-1.87 3.15c-1 1-2.87 1.83-4.28 1.22-.5-.22-.67-.48-.51-.88a5.11 5.11 0 012.4-2.11.75.75 0 000-1.29 2.21 2.21 0 01-1.55-2.44c.28-1.23 1.4-.85 2.15-.25s1.81-.45 1.06-1.06zm-34.09 13.29h.85v4.26h2.32v.77h-3.17zm3.69 2.52a2.3 2.3 0 012.28-2.61c1.27 0 2.26.91 2.26 2.61s-1 2.61-2.26 2.61a2.31 2.31 0 01-2.28-2.61zm3.68 0c0-1.19-.56-1.83-1.4-1.83s-1.43.64-1.43 1.83.57 1.84 1.43 1.84 1.4-.66 1.4-1.84zm1.76-2.52H307c1.58 0 2.61.73 2.61 2.5a2.3 2.3 0 01-2.61 2.53h-1.43zm1.51 4.27c1.14 0 1.68-.5 1.68-1.77s-.54-1.71-1.7-1.71h-.64v3.48zm3.19-1.77c0-1.62.88-2.59 2.22-2.59a1.86 1.86 0 012 1.58l-.79.21c-.23-.75-.57-1-1.17-1s-1.35.37-1.35 1.78.67 1.89 1.38 1.89a1.1 1.1 0 001.18-1.13h-1v-.69h1.83v2.49h-.7v-.73a1.45 1.45 0 01-1.37.83c-1.54-.01-2.23-1.11-2.23-2.64zm5.31-2.5h3.25v.79h-2.4v1.25h1.76v.75h-1.76v1.47H319v.77h-3.38zm5.53 3.79a1.7 1.7 0 011.17-1.52 2.25 2.25 0 01-.33-1.13 1.2 1.2 0 011.32-1.23c.83 0 1.2.49 1.2 1 0 .73-.56 1.13-1.2 1.46.1.15.22.31.36.49s.48.57.68.78a2.89 2.89 0 00.41-1.21h.74a3.84 3.84 0 01-.58 1.62 1.71 1.71 0 001 .31v.7a2.67 2.67 0 01-1.49-.44 2.34 2.34 0 01-1.5.47c-1.14.04-1.78-.53-1.78-1.3zm2.69.43a7.71 7.71 0 01-.8-.9c-.15-.19-.29-.37-.41-.55a1.12 1.12 0 00-.63.91c0 .52.36.77 1 .77a1.51 1.51 0 00.84-.23zm0-3.2a.45.45 0 00-.47-.47.49.49 0 00-.55.55 1.68 1.68 0 00.25.84c.38-.23.72-.48.72-.92zm4.16 2.83l.67-.36a1.45 1.45 0 001.33.92c.61 0 1-.2 1-.65s-.31-.64-1.14-.89-1.75-.55-1.75-1.5.7-1.42 1.72-1.42a2 2 0 011.88 1.08l-.62.42a1.4 1.4 0 00-1.27-.73c-.56 0-.88.2-.88.57s.36.63 1.19.87 1.71.59 1.71 1.54-.7 1.47-1.9 1.47a2.08 2.08 0 01-1.94-1.32zm4.82-3.85h1.76c1.09 0 1.94.38 1.94 1.54s-.93 1.58-2 1.58h-.89v1.91h-.85zm1.78 2.41c.75 0 1.09-.23 1.09-.81s-.34-.79-1.1-.79h-.92v1.6zm4.11-2.43h.84l1.78 5.05h-.87l-.41-1.2h-1.91l-.41 1.2h-.8zm1.09 3.11l-.69-2-.7 2zm-45.61-15.47a2.29 2.29 0 00-2.19-1.59 3.07 3.07 0 00-2.45 1.46 7.58 7.58 0 00-1 3.15 6 6 0 00.12 3.53 3.26 3.26 0 002.14 1.69 2.5 2.5 0 002.38-1 10.75 10.75 0 001.57-2.54c.41-.92 1-2.21.26-3.11a1.47 1.47 0 00-1.37-.48 1.15 1.15 0 00-.88 1.39 1.31 1.31 0 001.1.85 19 19 0 002 .14l-.64-1.13a4.69 4.69 0 00-.77 2.85 1.88 1.88 0 002 1.71A2.72 2.72 0 00298 190a7 7 0 001-1.75.75.75 0 00-.52-.92.77.77 0 00-.92.52c.06-.15 0 .06-.05.09s-.08.16-.13.24a6 6 0 01-.33.54 4.17 4.17 0 01-.79.92s-.21.12-.11.07.08 0 0 0a.7.7 0 01-.27-.54 3.43 3.43 0 01.59-1.76.76.76 0 00-.65-1.13l-1.18-.07a2.91 2.91 0 00-.51 0c-.26 0 0-.21 0 .12v.4q-.56.17-.33.15c0 .1 0 .26-.06.37a7.94 7.94 0 01-.45 1.14 11.52 11.52 0 01-1 1.7c-.23.35-.59.89-1 1s-1.09-.44-1.33-.83A3.77 3.77 0 01290 188a11.32 11.32 0 01.47-2.3 2.29 2.29 0 011.15-1.46.83.83 0 011.14.41.75.75 0 001.45-.4z" fill="#3b4f44"/><path d="M289.09 406.63c0-9.58-12.65-38.58-12.65-38.58l-26.44-3 11.51 108.68c0 7.82 22.59 5.63 31 2.81s-3.42-60.34-3.42-69.91zM256.9 332s59.46-159 65.72-181 6.26-71.22 3.13-81.4-38.94-32.24-51.46-33-36-1.56-44.61 0-46.37 29.11-47.15 34.59 2.35 44.61 20.35 86.87 47.62 95.48 47.62 95.48" fill="#fff" stroke="#262521" stroke-linecap="round" stroke-linejoin="round" stroke-width="3"/><path d="M263.12 202.07C273.39 163.5 281.9 77.35 281.9 77.35a76.27 76.27 0 01-52-.88c-1.85-.69 17.25 101.98 33.22 125.6z" fill="#262521"/><path d="M282.9 56.74s-.17 7.79-1 20.61c-1.47 22.67-5 61.06-13.43 99.84-13.16 60.72-34.14 161-34.14 161m-7-281.45s9.16 89.15 35.79 145.33" fill="none" stroke="#262521" stroke-linecap="round" stroke-linejoin="round" stroke-width="3"/><path d="M169.22 320.87s-7.14 26.69-1.66 28.26 95.56 11.65 95.56 11.65v-14.87zm111.17 23.48s64.14-18.78 68.06-17.22 9.39 25.83 3.91 29.74-75.92 0-75.92 0z" fill="#fff" stroke="#262521" stroke-linecap="round" stroke-linejoin="round" stroke-width="3"/><path d="M266.78 330.64s-24.46 2.09-24.52 7.92-12.17 133.3-8.26 135.65 23.45 0 25.81-4.69-8.81-117.06 6.97-138.88z" fill="#fff" stroke="#262521" stroke-linecap="round" stroke-linejoin="round" stroke-width="3"/><path d="M271.21 323.3s2.12-.59 9.18 2.38 21.48 11.45 21.4 12.56-18.7 10.42-18.7 12.79 5.75 9.51.79 12.88-22 11.09-22 11.09-16-48 9.33-51.7z" fill="#fff" stroke="#262521" stroke-linecap="round" stroke-linejoin="round" stroke-width="3"/><path fill="none" stroke="#262521" stroke-linecap="round" stroke-linejoin="round" stroke-width="3" d="M229.63 358.61l-3.47 12.88"/><path d="M238.28 113.46a37.55 37.55 0 0019.23 3.87 42.29 42.29 0 0020.6-6.06M347.69 375h-45.9v51.35h52.88m-52.37-41.78h46.38M172.97 375h45.9v51.35h-52.88m52.37-41.78h-46.38" fill="none" stroke="#636363" stroke-linecap="round" stroke-linejoin="round"/><path d="M171.72 317.34s-4.59-37-6.23-55.46.5-49.33.5-49.33m182.67 106.88s6-40.29 6-58.37-3.5-40-3.5-40" fill="#fff" stroke="#262521" stroke-linecap="round" stroke-linejoin="round" stroke-width="3"/></svg>