<svg xmlns="http://www.w3.org/2000/svg" xmlns:xlink="http://www.w3.org/1999/xlink" width="500" height="550" viewBox="0 0 500 550"><defs><clipPath id="a"><path d="M409.63,137.31c-8.83-19.21-14.52-42.61-30.46-57.2C352.79,62.93,320.86,59,291.74,48.52c-3.68-1.53-5,3.73-7.88,5-17.35,10.43-39.46,7.3-58.65,4.87-7.09-1.25-13.56-4.11-18.56-9.66a3.13,3.13,0,0,0-2.72-.43c-30.43,11-63.14,16.58-90.46,34.78C90,113.43,79,151.32,65.41,186.75c-23.59,59.07-28.11,123-26.2,186a145.1,145.1,0,0,0,2.72,33.31,6.67,6.67,0,0,0,1.34,3.22c6.31,5.76,6.45,14.67,8.48,22.43.31,1.47,1,1.81,2.41,1.46,12.52-3.19,26.23-2.33,38.61,1.19,3.12.94,3.16,1.12,3.74-2.05,1.44-8,3.47-15.79,9.18-22.06a5.17,5.17,0,0,0,1.14-3.3c-1.07-8.1,0-16,1.53-23.93,1.19-8.37,4.89-16.88,4.39-25.31-1-3.31.12-6.43.37-9.58,1.25-11.18,6-24.61-5.16-32.56-5.69-6.89,9.45-5.51,11.82-16.19,1.34-2.85,2.87-5.63,4.28-8.45.14,3,.26,6.08.34,9.12,0,.15,0,.3,0,.44.08,2.9.14,5.79.18,8.69,0,.27,0,.53,0,.8,0,2.78.06,5.55.07,8.33v1.13q0,4,0,7.95c0,.53,0,1.06,0,1.59q0,3.69-.05,7.36l0,2.85c0,1.25,0,2.51,0,3.77-.31,29.94-.79,59.87,3.1,89.5,1.42,10.78-1.87,18.05-.52,29.31.94,5.1,1.39,5.42,6.62,4.82,24.34-3.76,58.37-1.51,83-2.09,45-2.79,102.07-4.81,146.65,2.92,1.36.24,2.77.34,3.35-1.43,2.85-8.59.53-15.56,1.5-25.63.87-9,2.74-16.47,3.55-25.45L372,364.2h0v-.62q.18-36.06.35-72.13l.41-.08h0c.51,7.25,12.44,8.69,10.93,15.93-2.92,3.84-2.67,8-1.61,12.33,3.06,11.88,5.55,24,10.45,35.3,1.36,3.61,1.51,7.12-.5,10.65-5.48,9-2.7,31.59.17,40.9a2.34,2.34,0,0,0,1.06,1.21,22.49,22.49,0,0,0,3.3,4.79c3.31,5.85,3.11,21.26,11.45,21.4,12.54-3.9,25.31-1.07,37.79,1.58,2.67.5,2.68.28,3.09-2.32.83-5.36,1.69-10.73,2.91-16,.35-4.69,5.07-7.12,5.55-11.78,3.05-18.51,2.09-37.3,3.29-56C467.62,274.71,437.44,204.8,409.63,137.31Z" fill="none"/></clipPath></defs><title>s04e13-03</title><g clip-path="url(#a)"><rect x="21.51" y="5.14" width="478.49" height="501.56" fill="#262521"/></g><line x1="393.8" y1="408.9" x2="454.78" y2="408.9" fill="none" stroke="#838180" stroke-miterlimit="10" stroke-width="6"/><line x1="390.3" y1="393.4" x2="458.78" y2="393.4" fill="none" stroke="#838180" stroke-miterlimit="10" stroke-width="6"/><line x1="388.8" y1="377.89" x2="459.78" y2="377.89" fill="none" stroke="#838180" stroke-miterlimit="10" stroke-width="6"/><line x1="392.3" y1="362.38" x2="459.78" y2="362.38" fill="none" stroke="#838180" stroke-miterlimit="10" stroke-width="6"/><polygon points="460.28 349.88 390.3 349.88 387.8 343.88 460.28 343.88 460.28 349.88" fill="#838180"/><polygon points="461.28 334.37 384.8 334.37 383.3 328.37 461.78 328.37 461.28 334.37" fill="#838180"/><line x1="380.3" y1="315.86" x2="461.78" y2="315.86" fill="none" stroke="#838180" stroke-miterlimit="10" stroke-width="6"/><polygon points="460.28 303.36 381.66 303.36 374.66 297.36 460.28 297.36 460.28 303.36" fill="#838180"/><line x1="371.61" y1="284.85" x2="458.28" y2="284.85" fill="none" stroke="#838180" stroke-miterlimit="10" stroke-width="6"/><line x1="371.52" y1="269.34" x2="453.91" y2="269.34" fill="none" stroke="#838180" stroke-miterlimit="10" stroke-width="6"/><line x1="372.62" y1="253.84" x2="450.67" y2="253.84" fill="none" stroke="#838180" stroke-miterlimit="10" stroke-width="6"/><line x1="373.33" y1="238.33" x2="446.97" y2="238.33" fill="none" stroke="#838180" stroke-miterlimit="10" stroke-width="6"/><line x1="373.52" y1="222.82" x2="441.65" y2="222.82" fill="none" stroke="#838180" stroke-miterlimit="10" stroke-width="6"/><line x1="373.9" y1="207.32" x2="436.05" y2="207.32" fill="none" stroke="#838180" stroke-miterlimit="10" stroke-width="6"/><line x1="373.9" y1="191.81" x2="430.23" y2="191.81" fill="none" stroke="#838180" stroke-miterlimit="10" stroke-width="6"/><line x1="373.76" y1="176.3" x2="425.29" y2="176.3" fill="none" stroke="#838180" stroke-miterlimit="10" stroke-width="6"/><polygon points="105.11 411.9 43.63 411.9 40.63 405.9 107.11 405.9 105.11 411.9" fill="#838180"/><line x1="106.28" y1="393.4" x2="39.46" y2="393.4" fill="none" stroke="#838180" stroke-miterlimit="10" stroke-width="6"/><line x1="108.86" y1="377.89" x2="38.63" y2="377.89" fill="none" stroke="#838180" stroke-miterlimit="10" stroke-width="6"/><line x1="111.25" y1="362.38" x2="38.31" y2="362.38" fill="none" stroke="#838180" stroke-miterlimit="10" stroke-width="6"/><line x1="113.25" y1="346.88" x2="37.82" y2="346.88" fill="none" stroke="#838180" stroke-miterlimit="10" stroke-width="6"/><line x1="115.37" y1="331.37" x2="38.01" y2="331.37" fill="none" stroke="#838180" stroke-miterlimit="10" stroke-width="6"/><line x1="107.46" y1="315.86" x2="38.31" y2="315.86" fill="none" stroke="#838180" stroke-miterlimit="10" stroke-width="6"/><line x1="119.27" y1="300.36" x2="40.05" y2="300.36" fill="none" stroke="#838180" stroke-miterlimit="10" stroke-width="6"/><line x1="123.8" y1="284.85" x2="41.49" y2="284.85" fill="none" stroke="#838180" stroke-miterlimit="10" stroke-width="6"/><line x1="122.85" y1="269.34" x2="43.5" y2="269.34" fill="none" stroke="#838180" stroke-miterlimit="10" stroke-width="6"/><line x1="122.8" y1="253.84" x2="44.74" y2="253.84" fill="none" stroke="#838180" stroke-miterlimit="10" stroke-width="6"/><line x1="122.08" y1="238.33" x2="48.44" y2="238.33" fill="none" stroke="#838180" stroke-miterlimit="10" stroke-width="6"/><line x1="121.89" y1="222.82" x2="53.76" y2="222.82" fill="none" stroke="#838180" stroke-miterlimit="10" stroke-width="6"/><line x1="121.51" y1="207.32" x2="59.36" y2="207.32" fill="none" stroke="#838180" stroke-miterlimit="10" stroke-width="6"/><line x1="121.51" y1="191.81" x2="65.18" y2="191.81" fill="none" stroke="#838180" stroke-miterlimit="10" stroke-width="6"/><line x1="121.66" y1="176.3" x2="70.12" y2="176.3" fill="none" stroke="#838180" stroke-miterlimit="10" stroke-width="6"/><line x1="127.66" y1="431.77" x2="368.85" y2="431.77" fill="none" stroke="#838180" stroke-miterlimit="10" stroke-width="6"/><line x1="125.82" y1="414.74" x2="371.77" y2="414.74" fill="none" stroke="#838180" stroke-miterlimit="10" stroke-width="6"/><line x1="125.82" y1="397.71" x2="371.33" y2="397.71" fill="none" stroke="#838180" stroke-miterlimit="10" stroke-width="6"/><line x1="124.42" y1="380.68" x2="371.33" y2="380.68" fill="none" stroke="#838180" stroke-miterlimit="10" stroke-width="6"/><line x1="124.37" y1="363.64" x2="371.54" y2="363.64" fill="none" stroke="#838180" stroke-miterlimit="10" stroke-width="6"/><line x1="123.81" y1="346.61" x2="371.33" y2="346.61" fill="none" stroke="#838180" stroke-miterlimit="10" stroke-width="6"/><line x1="124.33" y1="329.58" x2="371.33" y2="329.58" fill="none" stroke="#838180" stroke-miterlimit="10" stroke-width="6"/><line x1="124.42" y1="312.55" x2="371.79" y2="312.55" fill="none" stroke="#838180" stroke-miterlimit="10" stroke-width="6"/><line x1="123.81" y1="295.52" x2="371.33" y2="295.52" fill="none" stroke="#838180" stroke-miterlimit="10" stroke-width="6"/><line x1="122.85" y1="278.49" x2="371.33" y2="278.49" fill="none" stroke="#838180" stroke-miterlimit="10" stroke-width="6"/><line x1="122.39" y1="261.46" x2="371.9" y2="261.46" fill="none" stroke="#838180" stroke-miterlimit="10" stroke-width="6"/><line x1="120.89" y1="244.43" x2="372.83" y2="244.43" fill="none" stroke="#838180" stroke-miterlimit="10" stroke-width="6"/><line x1="121.8" y1="227.4" x2="373.4" y2="227.4" fill="none" stroke="#838180" stroke-miterlimit="10" stroke-width="6"/><line x1="122.85" y1="210.36" x2="371.83" y2="210.36" fill="none" stroke="#838180" stroke-miterlimit="10" stroke-width="6"/><line x1="121.8" y1="193.33" x2="372.9" y2="193.33" fill="none" stroke="#838180" stroke-miterlimit="10" stroke-width="6"/><line x1="122.35" y1="176.3" x2="371.33" y2="176.3" fill="none" stroke="#838180" stroke-miterlimit="10" stroke-width="6"/><path d="M204.39,51.38c.81-.26,4.45,39.77,42.44,41.81S292.2,51.61,292.2,51.61" fill="none" stroke="#636363" stroke-linecap="round" stroke-linejoin="round"/><path d="M371.88,291.55q-.25,61.74-.61,123.47c-.82,9-2.69,16.41-3.56,25.44-1,10.07,1.35,17-1.5,25.63-.58,1.77-2,1.67-3.35,1.44-44.58-7.74-101.65-5.72-146.65-2.93-24.59.58-58.61-1.67-83,2.09-5.23.6-5.68.28-6.62-4.82-1.35-11.26,1.94-18.53.52-29.31-6.15-46.82-1.39-94.38-3.6-141.53-1.41,2.82-2.94,5.6-4.28,8.46-2.37,10.67-17.51,9.3-11.82,16.18,11.12,7.95,6.41,21.38,5.16,32.56-.25,3.15-1.35,6.27-.37,9.58.5,8.43-3.2,16.94-4.39,25.31-1.5,8-2.6,15.83-1.53,23.93a5.17,5.17,0,0,1-1.14,3.3c-5.71,6.28-7.74,14-9.18,22.06-.57,3.18-.62,3-3.74,2-12.38-3.52-26.09-4.38-38.61-1.18-1.39.34-2.1,0-2.41-1.47-2-7.76-2.17-16.67-8.48-22.43a6.52,6.52,0,0,1-1.33-3.22,143.91,143.91,0,0,1-2.72-33.3c-1.92-63,2.6-126.93,26.19-186C78.5,151.42,89.46,113.53,113,83.18,140.28,65,173,59.42,203.42,48.4a3.16,3.16,0,0,1,2.72.43c5,5.55,11.47,8.41,18.56,9.67,19.19,2.43,41.3,5.55,58.65-4.88,2.86-1.27,4.2-6.53,7.88-5,29.12,10.49,61,14.4,87.43,31.58,15.94,14.59,21.63,38,30.46,57.21,27.81,67.48,58,137.39,51.05,212.07-1.19,18.66-.24,37.46-3.29,56-.48,4.66-5.2,7.09-5.55,11.78-1.22,5.28-2.08,10.65-2.91,16-.41,2.6-.42,2.83-3.09,2.33-12.47-2.66-25.25-5.49-37.79-1.58-8.34-.15-8.14-15.56-11.45-21.41-6.27-7.36-3.6-9-5.32-17.63-.9-9.7-4.69-20.27.79-29.26,2-3.53,1.86-7.05.51-10.66-4.9-11.29-7.4-23.42-10.46-35.29-1.06-4.31-1.31-8.5,1.62-12.34,1.49-7.15-10.43-8.7-10.94-15.93Z" fill="none" stroke="#262521" stroke-linecap="round" stroke-linejoin="round" stroke-width="3"/><path d="M120.89,171.92s3,37.54.91,53.17.11,29.7.11,32.87,1.9,33.07,1.9,33.07" fill="none" stroke="#262521" stroke-linecap="round" stroke-linejoin="round" stroke-width="3"/><path d="M371.33,188.66s5.79,47.28,0,75.34l1,27.47" fill="none" stroke="#262521" stroke-linecap="round" stroke-linejoin="round" stroke-width="3"/><path d="M76.1,175.57a.75.75,0,0,0,0-1.5.75.75,0,0,0,0,1.5Z" fill="#fff"/><path d="M111.45,175.85a.75.75,0,0,0,0-1.5.75.75,0,0,0,0,1.5Z" fill="#fff"/><path d="M94.45,178a.75.75,0,0,0,0-1.5.75.75,0,0,0,0,1.5Z" fill="#fff"/><path d="M82.67,176.82a.75.75,0,0,0,0-1.5.75.75,0,0,0,0,1.5Z" fill="#fff"/><path d="M103.4,193.15a.75.75,0,0,0,0-1.5.75.75,0,0,0,0,1.5Z" fill="#fff"/><path d="M90.28,191.22a.75.75,0,0,0,0-1.5.75.75,0,0,0,0,1.5Z" fill="#fff"/><path d="M74.51,193.66a.75.75,0,0,0,0-1.5.75.75,0,0,0,0,1.5Z" fill="#fff"/><path d="M82.67,176.82a.75.75,0,0,0,0-1.5.75.75,0,0,0,0,1.5Z" fill="#fff"/><path d="M127,176.21a.75.75,0,0,0,0-1.5.75.75,0,0,0,0,1.5Z" fill="#fff"/><path d="M142,195.2a.75.75,0,0,0,0-1.5.75.75,0,0,0,0,1.5Z" fill="#fff"/><path d="M156.62,176.68a.75.75,0,0,0,0-1.5.75.75,0,0,0,0,1.5Z" fill="#fff"/><path d="M175.14,178.3a.75.75,0,0,0,0-1.5.75.75,0,0,0,0,1.5Z" fill="#fff"/><path d="M63.28,207.48a.75.75,0,0,0,0-1.5.75.75,0,0,0,0,1.5Z" fill="#fff"/><path d="M75.32,209.1a.75.75,0,0,0,0-1.5.75.75,0,0,0,0,1.5Z" fill="#fff"/><path d="M91.3,207a.75.75,0,0,0,0-1.5.75.75,0,0,0,0,1.5Z" fill="#fff"/><path d="M116.55,207.25a.75.75,0,0,0,0-1.5.75.75,0,0,0,0,1.5Z" fill="#fff"/><path d="M114.93,225.31a.75.75,0,0,0,0-1.5.75.75,0,0,0,0,1.5Z" fill="#fff"/><path d="M108.9,223.23a.75.75,0,0,0,0-1.5.75.75,0,0,0,0,1.5Z" fill="#fff"/><path d="M77.64,225.31a.75.75,0,0,0,0-1.5.75.75,0,0,0,0,1.5Z" fill="#fff"/><path d="M68.6,223.23a.75.75,0,0,0,0-1.5.75.75,0,0,0,0,1.5Z" fill="#fff"/><path d="M59.11,239.21a.75.75,0,0,0,0-1.5.75.75,0,0,0,0,1.5Z" fill="#fff"/><path d="M74.86,240.14a.75.75,0,0,0,0-1.5.75.75,0,0,0,0,1.5Z" fill="#fff"/><path d="M84.35,238.75a.75.75,0,0,0,0-1.5.75.75,0,0,0,0,1.5Z" fill="#fff"/><path d="M99.18,238.52a.75.75,0,0,0,0-1.5.75.75,0,0,0,0,1.5Z" fill="#fff"/><path d="M117,240.37a.75.75,0,0,0,0-1.5.75.75,0,0,0,0,1.5Z" fill="#fff"/><path d="M115.16,255a.75.75,0,0,0,0-1.5.75.75,0,0,0,0,1.5Z" fill="#fff"/><path d="M103.11,254a.75.75,0,0,0,0-1.5.75.75,0,0,0,0,1.5Z" fill="#fff"/><path d="M76.25,255.89a.75.75,0,0,0,0-1.5.75.75,0,0,0,0,1.5Z" fill="#fff"/><path d="M68.37,254a.75.75,0,0,0,0-1.5.75.75,0,0,0,0,1.5Z" fill="#fff"/><path d="M51,253.57a.75.75,0,0,0,0-1.5.75.75,0,0,0,0,1.5Z" fill="#fff"/><path d="M88.52,269.55a.75.75,0,0,0,0-1.5.75.75,0,0,0,0,1.5Z" fill="#fff"/><path d="M60.73,271.64a.75.75,0,0,0,0-1.5.75.75,0,0,0,0,1.5Z" fill="#fff"/><path d="M56.1,269.32a.75.75,0,0,0,0-1.5.75.75,0,0,0,0,1.5Z" fill="#fff"/><path d="M110.29,271.4a.75.75,0,0,0,0-1.5.75.75,0,0,0,0,1.5Z" fill="#fff"/><path d="M117.71,285.53a.75.75,0,0,0,0-1.5.75.75,0,0,0,0,1.5Z" fill="#fff"/><path d="M103.81,284.37a.75.75,0,0,0,0-1.5.75.75,0,0,0,0,1.5Z" fill="#fff"/><path d="M75.55,286.46a.75.75,0,0,0,0-1.5.75.75,0,0,0,0,1.5Z" fill="#fff"/><path d="M68.6,285.76a.75.75,0,0,0,0-1.5.75.75,0,0,0,0,1.5Z" fill="#fff"/><path d="M46.14,284.84a.75.75,0,0,0,0-1.5.75.75,0,0,0,0,1.5Z" fill="#fff"/><path d="M46.6,300.59a.75.75,0,0,0,0-1.5.75.75,0,0,0,0,1.5Z" fill="#fff"/><path d="M64.2,301.75a.75.75,0,0,0,0-1.5.75.75,0,0,0,0,1.5Z" fill="#fff"/><path d="M82,300.36a.75.75,0,0,0,0-1.5.75.75,0,0,0,0,1.5Z" fill="#fff"/><path d="M86,302a.75.75,0,0,0,0-1.5.75.75,0,0,0,0,1.5Z" fill="#fff"/><path d="M108.21,300.82a.75.75,0,0,0,0-1.5.75.75,0,0,0,0,1.5Z" fill="#fff"/><path d="M101,317a.75.75,0,0,0,0-1.5.75.75,0,0,0,0,1.5Z" fill="#fff"/><path d="M93.62,316.34a.75.75,0,0,0,0-1.5.75.75,0,0,0,0,1.5Z" fill="#fff"/><path d="M69.07,316.34a.75.75,0,0,0,0-1.5.75.75,0,0,0,0,1.5Z" fill="#fff"/><path d="M49.38,316.8a.75.75,0,0,0,0-1.5.75.75,0,0,0,0,1.5Z" fill="#fff"/><path d="M44.05,315.41a.75.75,0,0,0,0-1.5.75.75,0,0,0,0,1.5Z" fill="#fff"/><path d="M82,331.16a.75.75,0,0,0,0-1.5.75.75,0,0,0,0,1.5Z" fill="#fff"/><path d="M97.09,333a.75.75,0,0,0,0-1.5.75.75,0,0,0,0,1.5Z" fill="#fff"/><path d="M106.59,332.32a.75.75,0,0,0,0-1.5.75.75,0,0,0,0,1.5Z" fill="#fff"/><path d="M55.4,332.78a.75.75,0,0,0,0-1.5.75.75,0,0,0,0,1.5Z" fill="#fff"/><path d="M45.44,330.7a.75.75,0,0,0,0-1.5.75.75,0,0,0,0,1.5Z" fill="#fff"/><path d="M51.23,348.53a.75.75,0,0,0,0-1.5.75.75,0,0,0,0,1.5Z" fill="#fff"/><path d="M73,346.91a.75.75,0,0,0,0-1.5.75.75,0,0,0,0,1.5Z" fill="#fff"/><path d="M80.18,348.3a.75.75,0,0,0,0-1.5.75.75,0,0,0,0,1.5Z" fill="#fff"/><path d="M101,347.37a.75.75,0,0,0,0-1.5.75.75,0,0,0,0,1.5Z" fill="#fff"/><path d="M46.14,363.12a.75.75,0,0,0,0-1.5.75.75,0,0,0,0,1.5Z" fill="#fff"/><path d="M61.89,362.2a.75.75,0,0,0,0-1.5.75.75,0,0,0,0,1.5Z" fill="#fff"/><path d="M69.07,362.66a.75.75,0,0,0,0-1.5.75.75,0,0,0,0,1.5Z" fill="#fff"/><path d="M88.52,363.59a.75.75,0,0,0,0-1.5.75.75,0,0,0,0,1.5Z" fill="#fff"/><path d="M98,362.66a.75.75,0,0,0,0-1.5.75.75,0,0,0,0,1.5Z" fill="#fff"/><path d="M107.75,363.82a.75.75,0,0,0,0-1.5.75.75,0,0,0,0,1.5Z" fill="#fff"/><path d="M102,379.57a.75.75,0,0,0,0-1.5.75.75,0,0,0,0,1.5Z" fill="#fff"/><path d="M89,378.18a.75.75,0,0,0,0-1.5.75.75,0,0,0,0,1.5Z" fill="#fff"/><path d="M76.48,379.34a.75.75,0,0,0,0-1.5.75.75,0,0,0,0,1.5Z" fill="#fff"/><path d="M57.72,377.71a.75.75,0,0,0,0-1.5.75.75,0,0,0,0,1.5Z" fill="#fff"/><path d="M44.75,378.64a.75.75,0,0,0,0-1.5.75.75,0,0,0,0,1.5Z" fill="#fff"/><path d="M54,392.77a.75.75,0,0,0,0-1.5.75.75,0,0,0,0,1.5Z" fill="#fff"/><path d="M74.39,395.08a.75.75,0,0,0,0-1.5.75.75,0,0,0,0,1.5Z" fill="#fff"/><path d="M93.62,393.7a.75.75,0,0,0,0-1.5.75.75,0,0,0,0,1.5Z" fill="#fff"/><path d="M94.78,409.68a.75.75,0,0,0,0-1.5.75.75,0,0,0,0,1.5Z" fill="#fff"/><path d="M85.74,409.21a.75.75,0,0,0,0-1.5.75.75,0,0,0,0,1.5Z" fill="#fff"/><path d="M56.56,410.37a.75.75,0,0,0,0-1.5.75.75,0,0,0,0,1.5Z" fill="#fff"/><path d="M65.59,408.52a.75.75,0,0,0,0-1.5.75.75,0,0,0,0,1.5Z" fill="#fff"/><path d="M419.73,175.57a.75.75,0,0,0,0-1.5.75.75,0,0,0,0,1.5Z" fill="#fff"/><path d="M384.38,175.85a.75.75,0,0,0,0-1.5.75.75,0,0,0,0,1.5Z" fill="#fff"/><path d="M401.37,178a.75.75,0,0,0,0-1.5.75.75,0,0,0,0,1.5Z" fill="#fff"/><path d="M413.15,176.82a.75.75,0,0,0,0-1.5.75.75,0,0,0,0,1.5Z" fill="#fff"/><path d="M392.43,193.15a.75.75,0,0,0,0-1.5.75.75,0,0,0,0,1.5Z" fill="#fff"/><path d="M405.55,191.22a.75.75,0,0,0,0-1.5.75.75,0,0,0,0,1.5Z" fill="#fff"/><path d="M421.32,193.66a.75.75,0,0,0,0-1.5.75.75,0,0,0,0,1.5Z" fill="#fff"/><path d="M413.15,176.82a.75.75,0,0,0,0-1.5.75.75,0,0,0,0,1.5Z" fill="#fff"/><path d="M432.55,207.48a.75.75,0,0,0,0-1.5.75.75,0,0,0,0,1.5Z" fill="#fff"/><path d="M420.51,209.1a.75.75,0,0,0,0-1.5.75.75,0,0,0,0,1.5Z" fill="#fff"/><path d="M404.52,207a.75.75,0,0,0,0-1.5.75.75,0,0,0,0,1.5Z" fill="#fff"/><path d="M379.28,207.25a.75.75,0,0,0,0-1.5.75.75,0,0,0,0,1.5Z" fill="#fff"/><path d="M380.9,225.31a.75.75,0,0,0,0-1.5.75.75,0,0,0,0,1.5Z" fill="#fff"/><path d="M386.92,223.23a.75.75,0,0,0,0-1.5.75.75,0,0,0,0,1.5Z" fill="#fff"/><path d="M418.19,225.31a.75.75,0,0,0,0-1.5.75.75,0,0,0,0,1.5Z" fill="#fff"/><path d="M427.22,223.23a.75.75,0,0,0,0-1.5.75.75,0,0,0,0,1.5Z" fill="#fff"/><path d="M436.72,239.21a.75.75,0,0,0,0-1.5.75.75,0,0,0,0,1.5Z" fill="#fff"/><path d="M421,240.14a.75.75,0,0,0,0-1.5.75.75,0,0,0,0,1.5Z" fill="#fff"/><path d="M411.47,238.75a.75.75,0,0,0,0-1.5.75.75,0,0,0,0,1.5Z" fill="#fff"/><path d="M396.65,238.52a.75.75,0,0,0,0-1.5.75.75,0,0,0,0,1.5Z" fill="#fff"/><path d="M378.82,240.37a.75.75,0,0,0,0-1.5.75.75,0,0,0,0,1.5Z" fill="#fff"/><path d="M380.67,255a.75.75,0,0,0,0-1.5.75.75,0,0,0,0,1.5Z" fill="#fff"/><path d="M392.71,254a.75.75,0,0,0,0-1.5.75.75,0,0,0,0,1.5Z" fill="#fff"/><path d="M419.58,255.89a.75.75,0,0,0,0-1.5.75.75,0,0,0,0,1.5Z" fill="#fff"/><path d="M427.45,254a.75.75,0,0,0,0-1.5.75.75,0,0,0,0,1.5Z" fill="#fff"/><path d="M444.83,253.57a.75.75,0,0,0,0-1.5.75.75,0,0,0,0,1.5Z" fill="#fff"/><path d="M407.3,269.55a.75.75,0,0,0,0-1.5.75.75,0,0,0,0,1.5Z" fill="#fff"/><path d="M435.1,271.64a.75.75,0,0,0,0-1.5.75.75,0,0,0,0,1.5Z" fill="#fff"/><path d="M439.73,269.32a.75.75,0,0,0,0-1.5.75.75,0,0,0,0,1.5Z" fill="#fff"/><path d="M385.53,271.4a.75.75,0,0,0,0-1.5.75.75,0,0,0,0,1.5Z" fill="#fff"/><path d="M378.12,285.53a.75.75,0,0,0,0-1.5.75.75,0,0,0,0,1.5Z" fill="#fff"/><path d="M392,284.37a.75.75,0,0,0,0-1.5.75.75,0,0,0,0,1.5Z" fill="#fff"/><path d="M420.27,286.46a.75.75,0,0,0,0-1.5.75.75,0,0,0,0,1.5Z" fill="#fff"/><path d="M427.22,285.76a.75.75,0,0,0,0-1.5.75.75,0,0,0,0,1.5Z" fill="#fff"/><path d="M449.69,284.84a.75.75,0,0,0,0-1.5.75.75,0,0,0,0,1.5Z" fill="#fff"/><path d="M449.23,300.59a.75.75,0,0,0,0-1.5.75.75,0,0,0,0,1.5Z" fill="#fff"/><path d="M431.62,301.75a.75.75,0,0,0,0-1.5.75.75,0,0,0,0,1.5Z" fill="#fff"/><path d="M413.79,300.36a.75.75,0,0,0,0-1.5.75.75,0,0,0,0,1.5Z" fill="#fff"/><path d="M409.85,302a.75.75,0,0,0,0-1.5.75.75,0,0,0,0,1.5Z" fill="#fff"/><path d="M387.62,300.82a.75.75,0,0,0,0-1.5.75.75,0,0,0,0,1.5Z" fill="#fff"/><path d="M394.8,317a.75.75,0,0,0,0-1.5.75.75,0,0,0,0,1.5Z" fill="#fff"/><path d="M402.21,316.34a.75.75,0,0,0,0-1.5.75.75,0,0,0,0,1.5Z" fill="#fff"/><path d="M426.76,316.34a.75.75,0,0,0,0-1.5.75.75,0,0,0,0,1.5Z" fill="#fff"/><path d="M446.45,316.8a.75.75,0,0,0,0-1.5.75.75,0,0,0,0,1.5Z" fill="#fff"/><path d="M451.77,315.41a.75.75,0,0,0,0-1.5.75.75,0,0,0,0,1.5Z" fill="#fff"/><path d="M413.79,331.16a.75.75,0,0,0,0-1.5.75.75,0,0,0,0,1.5Z" fill="#fff"/><path d="M398.73,333a.75.75,0,0,0,0-1.5.75.75,0,0,0,0,1.5Z" fill="#fff"/><path d="M389.24,332.32a.75.75,0,0,0,0-1.5.75.75,0,0,0,0,1.5Z" fill="#fff"/><path d="M440.42,332.78a.75.75,0,0,0,0-1.5.75.75,0,0,0,0,1.5Z" fill="#fff"/><path d="M450.38,330.7a.75.75,0,0,0,0-1.5.75.75,0,0,0,0,1.5Z" fill="#fff"/><path d="M453.91,346.93a.75.75,0,0,0,0-1.5.75.75,0,0,0,0,1.5Z" fill="#fff"/><path d="M422.82,346.91a.75.75,0,0,0,0-1.5.75.75,0,0,0,0,1.5Z" fill="#fff"/><path d="M415.64,348.3a.75.75,0,0,0,0-1.5.75.75,0,0,0,0,1.5Z" fill="#fff"/><path d="M394.8,347.37a.75.75,0,0,0,0-1.5.75.75,0,0,0,0,1.5Z" fill="#fff"/><path d="M449.69,363.12a.75.75,0,0,0,0-1.5.75.75,0,0,0,0,1.5Z" fill="#fff"/><path d="M433.94,362.2a.75.75,0,0,0,0-1.5.75.75,0,0,0,0,1.5Z" fill="#fff"/><path d="M426.76,362.66a.75.75,0,0,0,0-1.5.75.75,0,0,0,0,1.5Z" fill="#fff"/><path d="M407.3,363.59a.75.75,0,0,0,0-1.5.75.75,0,0,0,0,1.5Z" fill="#fff"/><path d="M397.81,362.66a.75.75,0,0,0,0-1.5.75.75,0,0,0,0,1.5Z" fill="#fff"/><path d="M393.87,379.57a.75.75,0,0,0,0-1.5.75.75,0,0,0,0,1.5Z" fill="#fff"/><path d="M406.84,378.18a.75.75,0,0,0,0-1.5.75.75,0,0,0,0,1.5Z" fill="#fff"/><path d="M419.35,379.34a.75.75,0,0,0,0-1.5.75.75,0,0,0,0,1.5Z" fill="#fff"/><path d="M438.11,377.71a.75.75,0,0,0,0-1.5.75.75,0,0,0,0,1.5Z" fill="#fff"/><path d="M451.08,378.64a.75.75,0,0,0,0-1.5.75.75,0,0,0,0,1.5Z" fill="#fff"/><path d="M441.81,392.77a.75.75,0,0,0,0-1.5.75.75,0,0,0,0,1.5Z" fill="#fff"/><path d="M421.43,395.08a.75.75,0,0,0,0-1.5.75.75,0,0,0,0,1.5Z" fill="#fff"/><path d="M402.21,393.7a.75.75,0,0,0,0-1.5.75.75,0,0,0,0,1.5Z" fill="#fff"/><path d="M401.05,409.68a.75.75,0,0,0,0-1.5.75.75,0,0,0,0,1.5Z" fill="#fff"/><path d="M410.08,409.21a.75.75,0,0,0,0-1.5.75.75,0,0,0,0,1.5Z" fill="#fff"/><path d="M439.27,410.37a.75.75,0,0,0,0-1.5.75.75,0,0,0,0,1.5Z" fill="#fff"/><path d="M430.23,408.52a.75.75,0,0,0,0-1.5.75.75,0,0,0,0,1.5Z" fill="#fff"/><path d="M155.74,193.38a.75.75,0,0,0,0-1.5.75.75,0,0,0,0,1.5Z" fill="#fff"/><path d="M129.83,193.38a.75.75,0,0,0,0-1.5.75.75,0,0,0,0,1.5Z" fill="#fff"/><path d="M183.14,195.26a.75.75,0,0,0,0-1.5.75.75,0,0,0,0,1.5Z" fill="#fff"/><path d="M209.05,193.76a.75.75,0,0,0,0-1.5.75.75,0,0,0,0,1.5Z" fill="#fff"/><path d="M197,177.24a.75.75,0,0,0,0-1.5.75.75,0,0,0,0,1.5Z" fill="#fff"/><path d="M231.57,176.49a.75.75,0,0,0,0-1.5.75.75,0,0,0,0,1.5Z" fill="#fff"/><path d="M262,177.24a.75.75,0,0,0,0-1.5.75.75,0,0,0,0,1.5Z" fill="#fff"/><path d="M297.27,176.86a.75.75,0,0,0,0-1.5.75.75,0,0,0,0,1.5Z" fill="#fff"/><path d="M306.28,178a.75.75,0,0,0,0-1.5.75.75,0,0,0,0,1.5Z" fill="#fff"/><path d="M357.33,176.86a.75.75,0,0,0,0-1.5.75.75,0,0,0,0,1.5Z" fill="#fff"/><path d="M341.19,177.62a.75.75,0,0,0,0-1.5.75.75,0,0,0,0,1.5Z" fill="#fff"/><path d="M346.45,195.26a.75.75,0,0,0,0-1.5.75.75,0,0,0,0,1.5Z" fill="#fff"/><path d="M352.08,194.13a.75.75,0,0,0,0-1.5.75.75,0,0,0,0,1.5Z" fill="#fff"/><path d="M322.42,194.13a.75.75,0,0,0,0-1.5.75.75,0,0,0,0,1.5Z" fill="#fff"/><path d="M285.63,194.88a.75.75,0,0,0,0-1.5.75.75,0,0,0,0,1.5Z" fill="#fff"/><path d="M245.09,193.76a.75.75,0,0,0,0-1.5.75.75,0,0,0,0,1.5Z" fill="#fff"/><path d="M255.22,194.88a.75.75,0,0,0,0-1.5.75.75,0,0,0,0,1.5Z" fill="#fff"/><path d="M199.29,211a.75.75,0,0,0,0-1.5.75.75,0,0,0,0,1.5Z" fill="#fff"/><path d="M223.69,212.15a.75.75,0,0,0,0-1.5.75.75,0,0,0,0,1.5Z" fill="#fff"/><path d="M250.34,209.53a.75.75,0,0,0,0-1.5.75.75,0,0,0,0,1.5Z" fill="#fff"/><path d="M267.61,211.4a.75.75,0,0,0,0-1.5.75.75,0,0,0,0,1.5Z" fill="#fff"/><path d="M278.12,211.4a.75.75,0,0,0,0-1.5.75.75,0,0,0,0,1.5Z" fill="#fff"/><path d="M321.67,211a.75.75,0,0,0,0-1.5.75.75,0,0,0,0,1.5Z" fill="#fff"/><path d="M312.66,211a.75.75,0,0,0,0-1.5.75.75,0,0,0,0,1.5Z" fill="#fff"/><path d="M355.46,211.78a.75.75,0,0,0,0-1.5.75.75,0,0,0,0,1.5Z" fill="#fff"/><path d="M368.22,210.65a.75.75,0,0,0,0-1.5.75.75,0,0,0,0,1.5Z" fill="#fff"/><path d="M180.14,212.15a.75.75,0,0,0,0-1.5.75.75,0,0,0,0,1.5Z" fill="#fff"/><path d="M164.75,210.28a.75.75,0,0,0,0-1.5.75.75,0,0,0,0,1.5Z" fill="#fff"/><path d="M131.34,212.15a.75.75,0,0,0,0-1.5.75.75,0,0,0,0,1.5Z" fill="#fff"/><path d="M128,228.67a.75.75,0,0,0,0-1.5.75.75,0,0,0,0,1.5Z" fill="#fff"/><path d="M145.23,226.79a.75.75,0,0,0,0-1.5.75.75,0,0,0,0,1.5Z" fill="#fff"/><path d="M154.24,228.67a.75.75,0,0,0,0-1.5.75.75,0,0,0,0,1.5Z" fill="#fff"/><path d="M183.89,228.3a.75.75,0,0,0,0-1.5.75.75,0,0,0,0,1.5Z" fill="#fff"/><path d="M216.93,229.05a.75.75,0,0,0,0-1.5.75.75,0,0,0,0,1.5Z" fill="#fff"/><path d="M209.8,227.92a.75.75,0,0,0,0-1.5.75.75,0,0,0,0,1.5Z" fill="#fff"/><path d="M247,229.42a.75.75,0,0,0,0-1.5.75.75,0,0,0,0,1.5Z" fill="#fff"/><path d="M277,227.54a.75.75,0,0,0,0-1.5.75.75,0,0,0,0,1.5Z" fill="#fff"/><path d="M287.88,229.42a.75.75,0,0,0,0-1.5.75.75,0,0,0,0,1.5Z" fill="#fff"/><path d="M321.67,228.67a.75.75,0,0,0,0-1.5.75.75,0,0,0,0,1.5Z" fill="#fff"/><path d="M348,227.54a.75.75,0,0,0,0-1.5.75.75,0,0,0,0,1.5Z" fill="#fff"/><path d="M357.71,229.05a.75.75,0,0,0,0-1.5.75.75,0,0,0,0,1.5Z" fill="#fff"/><path d="M363.34,245.56a.75.75,0,0,0,0-1.5.75.75,0,0,0,0,1.5Z" fill="#fff"/><path d="M338.94,245.94a.75.75,0,0,0,0-1.5.75.75,0,0,0,0,1.5Z" fill="#fff"/><path d="M331.81,244.06a.75.75,0,0,0,0-1.5.75.75,0,0,0,0,1.5Z" fill="#fff"/><path d="M299.9,244.81a.75.75,0,0,0,0-1.5.75.75,0,0,0,0,1.5Z" fill="#fff"/><path d="M264.23,245.56a.75.75,0,0,0,0-1.5.75.75,0,0,0,0,1.5Z" fill="#fff"/><path d="M224.44,246.69a.75.75,0,0,0,0-1.5.75.75,0,0,0,0,1.5Z" fill="#fff"/><path d="M212.43,244.06a.75.75,0,0,0,0-1.5.75.75,0,0,0,0,1.5Z" fill="#fff"/><path d="M180.89,245.94a.75.75,0,0,0,0-1.5.75.75,0,0,0,0,1.5Z" fill="#fff"/><path d="M155.74,245.94a.75.75,0,0,0,0-1.5.75.75,0,0,0,0,1.5Z" fill="#fff"/><path d="M140.72,244.81a.75.75,0,0,0,0-1.5.75.75,0,0,0,0,1.5Z" fill="#fff"/><path d="M357,262.83a.75.75,0,0,0,0-1.5.75.75,0,0,0,0,1.5Z" fill="#fff"/><path d="M337.44,261.71a.75.75,0,0,0,0-1.5.75.75,0,0,0,0,1.5Z" fill="#fff"/><path d="M316.41,263.58a.75.75,0,0,0,0-1.5.75.75,0,0,0,0,1.5Z" fill="#fff"/><path d="M258.6,261.71a.75.75,0,0,0,0-1.5.75.75,0,0,0,0,1.5Z" fill="#fff"/><path d="M276.62,261.71a.75.75,0,0,0,0-1.5.75.75,0,0,0,0,1.5Z" fill="#fff"/><path d="M198.53,263.21a.75.75,0,0,0,0-1.5.75.75,0,0,0,0,1.5Z" fill="#fff"/><path d="M180.51,261a.75.75,0,0,0,0-1.5.75.75,0,0,0,0,1.5Z" fill="#fff"/><path d="M158.74,262.46a.75.75,0,0,0,0-1.5.75.75,0,0,0,0,1.5Z" fill="#fff"/><path d="M130.21,261.71a.75.75,0,0,0,0-1.5.75.75,0,0,0,0,1.5Z" fill="#fff"/><path d="M137,278.6a.75.75,0,0,0,0-1.5.75.75,0,0,0,0,1.5Z" fill="#fff"/><path d="M152,280.48a.75.75,0,0,0,0-1.5.75.75,0,0,0,0,1.5Z" fill="#fff"/><path d="M178.64,279.35a.75.75,0,0,0,0-1.5.75.75,0,0,0,0,1.5Z" fill="#fff"/><path d="M206.42,278.23a.75.75,0,0,0,0-1.5.75.75,0,0,0,0,1.5Z" fill="#fff"/><path d="M229.32,280.85a.75.75,0,0,0,0-1.5.75.75,0,0,0,0,1.5Z" fill="#fff"/><path d="M239.08,279a.75.75,0,0,0,0-1.5.75.75,0,0,0,0,1.5Z" fill="#fff"/><path d="M281.5,279a.75.75,0,0,0,0-1.5.75.75,0,0,0,0,1.5Z" fill="#fff"/><path d="M308.53,280.1a.75.75,0,0,0,0-1.5.75.75,0,0,0,0,1.5Z" fill="#fff"/><path d="M336.31,280.48a.75.75,0,0,0,0-1.5.75.75,0,0,0,0,1.5Z" fill="#fff"/><path d="M345.32,278.6a.75.75,0,0,0,0-1.5.75.75,0,0,0,0,1.5Z" fill="#fff"/><path d="M364.84,279.35a.75.75,0,0,0,0-1.5.75.75,0,0,0,0,1.5Z" fill="#fff"/><path d="M366,297.75a.75.75,0,0,0,0-1.5.75.75,0,0,0,0,1.5Z" fill="#fff"/><path d="M349.83,295.12a.75.75,0,0,0,0-1.5.75.75,0,0,0,0,1.5Z" fill="#fff"/><path d="M344.57,297a.75.75,0,0,0,0-1.5.75.75,0,0,0,0,1.5Z" fill="#fff"/><path d="M311.91,295.49a.75.75,0,0,0,0-1.5.75.75,0,0,0,0,1.5Z" fill="#fff"/><path d="M287.51,296.62a.75.75,0,0,0,0-1.5.75.75,0,0,0,0,1.5Z" fill="#fff"/><path d="M258.23,295.49a.75.75,0,0,0,0-1.5.75.75,0,0,0,0,1.5Z" fill="#fff"/><path d="M232.32,297.37a.75.75,0,0,0,0-1.5.75.75,0,0,0,0,1.5Z" fill="#fff"/><path d="M210.92,296.25a.75.75,0,0,0,0-1.5.75.75,0,0,0,0,1.5Z" fill="#fff"/><path d="M205.67,295.12a.75.75,0,0,0,0-1.5.75.75,0,0,0,0,1.5Z" fill="#fff"/><path d="M169.63,295.87a.75.75,0,0,0,0-1.5.75.75,0,0,0,0,1.5Z" fill="#fff"/><path d="M144.1,296.25a.75.75,0,0,0,0-1.5.75.75,0,0,0,0,1.5Z" fill="#fff"/><path d="M132.09,314.64a.75.75,0,0,0,0-1.5.75.75,0,0,0,0,1.5Z" fill="#fff"/><path d="M146.73,313.14a.75.75,0,0,0,0-1.5.75.75,0,0,0,0,1.5Z" fill="#fff"/><path d="M166.62,313.89a.75.75,0,0,0,0-1.5.75.75,0,0,0,0,1.5Z" fill="#fff"/><path d="M185,312a.75.75,0,0,0,0-1.5.75.75,0,0,0,0,1.5Z" fill="#fff"/><path d="M191.78,313.51a.75.75,0,0,0,0-1.5.75.75,0,0,0,0,1.5Z" fill="#fff"/><path d="M218.06,313.51a.75.75,0,0,0,0-1.5.75.75,0,0,0,0,1.5Z" fill="#fff"/><path d="M253.72,313.51a.75.75,0,0,0,0-1.5.75.75,0,0,0,0,1.5Z" fill="#fff"/><path d="M262.73,313.14a.75.75,0,0,0,0-1.5.75.75,0,0,0,0,1.5Z" fill="#fff"/><path d="M289.76,311.64a.75.75,0,0,0,0-1.5.75.75,0,0,0,0,1.5Z" fill="#fff"/><path d="M308.16,314.27a.75.75,0,0,0,0-1.5.75.75,0,0,0,0,1.5Z" fill="#fff"/><path d="M336.31,313.14a.75.75,0,0,0,0-1.5.75.75,0,0,0,0,1.5Z" fill="#fff"/><path d="M361.09,313.51a.75.75,0,0,0,0-1.5.75.75,0,0,0,0,1.5Z" fill="#fff"/><path d="M366.34,331.53a.75.75,0,0,0,0-1.5.75.75,0,0,0,0,1.5Z" fill="#fff"/><path d="M356.21,329.28a.75.75,0,0,0,0-1.5.75.75,0,0,0,0,1.5Z" fill="#fff"/><path d="M322.42,330a.75.75,0,0,0,0-1.5.75.75,0,0,0,0,1.5Z" fill="#fff"/><path d="M289.38,330.78a.75.75,0,0,0,0-1.5.75.75,0,0,0,0,1.5Z" fill="#fff"/><path d="M275.49,329.66a.75.75,0,0,0,0-1.5.75.75,0,0,0,0,1.5Z" fill="#fff"/><path d="M248.84,330.78a.75.75,0,0,0,0-1.5.75.75,0,0,0,0,1.5Z" fill="#fff"/><path d="M223.31,330a.75.75,0,0,0,0-1.5.75.75,0,0,0,0,1.5Z" fill="#fff"/><path d="M200.41,330.78a.75.75,0,0,0,0-1.5.75.75,0,0,0,0,1.5Z" fill="#fff"/><path d="M174.88,329.66a.75.75,0,0,0,0-1.5.75.75,0,0,0,0,1.5Z" fill="#fff"/><path d="M155.74,330.41a.75.75,0,0,0,0-1.5.75.75,0,0,0,0,1.5Z" fill="#fff"/><path d="M138.09,329.66a.75.75,0,0,0,0-1.5.75.75,0,0,0,0,1.5Z" fill="#fff"/><path d="M131.71,346.55a.75.75,0,0,0,0-1.5.75.75,0,0,0,0,1.5Z" fill="#fff"/><path d="M144.48,348.8a.75.75,0,0,0,0-1.5.75.75,0,0,0,0,1.5Z" fill="#fff"/><path d="M163.62,346.18a.75.75,0,0,0,0-1.5.75.75,0,0,0,0,1.5Z" fill="#fff"/><path d="M189.52,347.68a.75.75,0,0,0,0-1.5.75.75,0,0,0,0,1.5Z" fill="#fff"/><path d="M204.92,346.93a.75.75,0,0,0,0-1.5.75.75,0,0,0,0,1.5Z" fill="#fff"/><path d="M232,347.3a.75.75,0,0,0,0-1.5.75.75,0,0,0,0,1.5Z" fill="#fff"/><path d="M254.47,347.3a.75.75,0,0,0,0-1.5.75.75,0,0,0,0,1.5Z" fill="#fff"/><path d="M272.49,347.68a.75.75,0,0,0,0-1.5.75.75,0,0,0,0,1.5Z" fill="#fff"/><path d="M295,346.18a.75.75,0,0,0,0-1.5.75.75,0,0,0,0,1.5Z" fill="#fff"/><path d="M316.41,348.43a.75.75,0,0,0,0-1.5.75.75,0,0,0,0,1.5Z" fill="#fff"/><path d="M329.55,346.93a.75.75,0,0,0,0-1.5.75.75,0,0,0,0,1.5Z" fill="#fff"/><path d="M352.83,347.3a.75.75,0,0,0,0-1.5.75.75,0,0,0,0,1.5Z" fill="#fff"/><path d="M355.46,364.2a.75.75,0,0,0,0-1.5.75.75,0,0,0,0,1.5Z" fill="#fff"/><path d="M363.72,364.57a.75.75,0,0,0,0-1.5.75.75,0,0,0,0,1.5Z" fill="#fff"/><path d="M323.92,363.07a.75.75,0,0,0,0-1.5.75.75,0,0,0,0,1.5Z" fill="#fff"/><path d="M285.26,365a.75.75,0,0,0,0-1.5.75.75,0,0,0,0,1.5Z" fill="#fff"/><path d="M259.73,364.2a.75.75,0,0,0,0-1.5.75.75,0,0,0,0,1.5Z" fill="#fff"/><path d="M244.71,365.7a.75.75,0,0,0,0-1.5.75.75,0,0,0,0,1.5Z" fill="#fff"/><path d="M212.8,364.2a.75.75,0,0,0,0-1.5.75.75,0,0,0,0,1.5Z" fill="#fff"/><path d="M189.9,364.2a.75.75,0,0,0,0-1.5.75.75,0,0,0,0,1.5Z" fill="#fff"/><path d="M178.64,365.32a.75.75,0,0,0,0-1.5.75.75,0,0,0,0,1.5Z" fill="#fff"/><path d="M153.11,363.44a.75.75,0,0,0,0-1.5.75.75,0,0,0,0,1.5Z" fill="#fff"/><path d="M134,364.57a.75.75,0,0,0,0-1.5.75.75,0,0,0,0,1.5Z" fill="#fff"/><path d="M334.81,381.09a.75.75,0,0,0,0-1.5.75.75,0,0,0,0,1.5Z" fill="#fff"/><path d="M352.45,381.84a.75.75,0,0,0,0-1.5.75.75,0,0,0,0,1.5Z" fill="#fff"/><path d="M304,381.46a.75.75,0,0,0,0-1.5.75.75,0,0,0,0,1.5Z" fill="#fff"/><path d="M255.6,382.22a.75.75,0,0,0,0-1.5.75.75,0,0,0,0,1.5Z" fill="#fff"/><path d="M227.07,380.34a.75.75,0,0,0,0-1.5.75.75,0,0,0,0,1.5Z" fill="#fff"/><path d="M197,381.09a.75.75,0,0,0,0-1.5.75.75,0,0,0,0,1.5Z" fill="#fff"/><path d="M170,382.59a.75.75,0,0,0,0-1.5.75.75,0,0,0,0,1.5Z" fill="#fff"/><path d="M144.85,381.09a.75.75,0,0,0,0-1.5.75.75,0,0,0,0,1.5Z" fill="#fff"/><path d="M140,398.36a.75.75,0,0,0,0-1.5.75.75,0,0,0,0,1.5Z" fill="#fff"/><path d="M147.48,400.23a.75.75,0,0,0,0-1.5.75.75,0,0,0,0,1.5Z" fill="#fff"/><path d="M181.64,398.73a.75.75,0,0,0,0-1.5.75.75,0,0,0,0,1.5Z" fill="#fff"/><path d="M221.06,397.23a.75.75,0,0,0,0-1.5.75.75,0,0,0,0,1.5Z" fill="#fff"/><path d="M235.7,399.11a.75.75,0,0,0,0-1.5.75.75,0,0,0,0,1.5Z" fill="#fff"/><path d="M272.12,398.36a.75.75,0,0,0,0-1.5.75.75,0,0,0,0,1.5Z" fill="#fff"/><path d="M281.88,398.36a.75.75,0,0,0,0-1.5.75.75,0,0,0,0,1.5Z" fill="#fff"/><path d="M324.67,397.23a.75.75,0,0,0,0-1.5.75.75,0,0,0,0,1.5Z" fill="#fff"/><path d="M348,399.48a.75.75,0,0,0,0-1.5.75.75,0,0,0,0,1.5Z" fill="#fff"/><path d="M362.21,398.36a.75.75,0,0,0,0-1.5.75.75,0,0,0,0,1.5Z" fill="#fff"/><path d="M361.84,415.25a.75.75,0,0,0,0-1.5.75.75,0,0,0,0,1.5Z" fill="#fff"/><path d="M342.69,416a.75.75,0,0,0,0-1.5.75.75,0,0,0,0,1.5Z" fill="#fff"/><path d="M313,416a.75.75,0,0,0,0-1.5.75.75,0,0,0,0,1.5Z" fill="#fff"/><path d="M298.77,416.75a.75.75,0,0,0,0-1.5.75.75,0,0,0,0,1.5Z" fill="#fff"/><path d="M289,414.88a.75.75,0,0,0,0-1.5.75.75,0,0,0,0,1.5Z" fill="#fff"/><path d="M246.21,415.63a.75.75,0,0,0,0-1.5.75.75,0,0,0,0,1.5Z" fill="#fff"/><path d="M217.68,416.75a.75.75,0,0,0,0-1.5.75.75,0,0,0,0,1.5Z" fill="#fff"/><path d="M209.42,414.5a.75.75,0,0,0,0-1.5.75.75,0,0,0,0,1.5Z" fill="#fff"/><path d="M174.88,416a.75.75,0,0,0,0-1.5.75.75,0,0,0,0,1.5Z" fill="#fff"/><path d="M150.86,416a.75.75,0,0,0,0-1.5.75.75,0,0,0,0,1.5Z" fill="#fff"/><path d="M134,416.38a.75.75,0,0,0,0-1.5.75.75,0,0,0,0,1.5Z" fill="#fff"/><path d="M134,431.77a.75.75,0,0,0,0-1.5.75.75,0,0,0,0,1.5Z" fill="#fff"/><path d="M152.73,434a.75.75,0,0,0,0-1.5.75.75,0,0,0,0,1.5Z" fill="#fff"/><path d="M171.88,431a.75.75,0,0,0,0-1.5.75.75,0,0,0,0,1.5Z" fill="#fff"/><path d="M181.27,432.9a.75.75,0,0,0,0-1.5.75.75,0,0,0,0,1.5Z" fill="#fff"/><path d="M181.27,432.9a.75.75,0,0,0,0-1.5.75.75,0,0,0,0,1.5Z" fill="#fff"/><path d="M210.55,431.77a.75.75,0,0,0,0-1.5.75.75,0,0,0,0,1.5Z" fill="#fff"/><path d="M239.08,432.14a.75.75,0,0,0,0-1.5.75.75,0,0,0,0,1.5Z" fill="#fff"/><path d="M264.61,433.65a.75.75,0,0,0,0-1.5.75.75,0,0,0,0,1.5Z" fill="#fff"/><path d="M300.65,430.64a.75.75,0,0,0,0-1.5.75.75,0,0,0,0,1.5Z" fill="#fff"/><path d="M316.41,432.9a.75.75,0,0,0,0-1.5.75.75,0,0,0,0,1.5Z" fill="#fff"/><path d="M347.57,431.77a.75.75,0,0,0,0-1.5.75.75,0,0,0,0,1.5Z" fill="#fff"/></svg>