<svg xmlns="http://www.w3.org/2000/svg" width="500" height="550" viewBox="0 0 500 550"><defs><clipPath id="a"><path d="M372.08 291.55c-.18 41.16-7.66 176.21-9 176-44.58-7.74-101.65-5.72-146.65-2.93-24.59.58-58.62-1.67-83 2.09-5.22.6-5.68.28-6.62-4.82-1.34-11.26 1.94-18.53.53-29.31-6.15-46.82-1.39-94.37-3.6-141.53-1.41 2.82.25-157-10.59-207.85 27.32-18.2 60-23.76 90.46-34.78a3.16 3.16 0 012.72.43c5 5.55 11.46 8.41 18.56 9.67 19.19 2.43 41.29 5.55 58.65-4.88 2.86-1.27 4.2-6.53 7.88-5 29.13 10.48 59.58 16.13 86.87 33.13-6.3 31.73-9.12 96.17-4.48 145.85 3.56 38-1.1 67-1.32 63.85z" fill="none"/></clipPath></defs><path d="M372.08 291.55q-.27 61.74-.62 123.47c-.81 9-2.68 16.41-3.55 25.44-1 10.07 1.34 17.05-1.5 25.63-.58 1.77-2 1.67-3.35 1.44-44.58-7.74-101.65-5.72-146.65-2.93-24.59.58-58.62-1.67-83 2.09-5.22.6-5.68.28-6.62-4.82-1.34-11.26 1.94-18.53.53-29.31-6.15-46.82-1.39-94.37-3.6-141.53-1.41 2.82-2.94 5.6-4.28 8.46-2.37 10.67-17.51 9.3-11.82 16.18 11.12 7.95 6.41 21.38 5.15 32.56-.24 3.15-1.34 6.27-.37 9.58.51 8.44-3.19 16.94-4.38 25.31-1.5 8-2.61 15.83-1.53 23.93a5.17 5.17 0 01-1.14 3.3c-5.71 6.28-7.74 14-9.19 22.06-.57 3.18-.61 3-3.73 2-12.38-3.52-26.1-4.38-38.61-1.18-1.39.34-2.1 0-2.41-1.47-2-7.76-2.17-16.67-8.49-22.43a6.62 6.62 0 01-1.33-3.22 145 145 0 01-2.72-33.3c-1.91-63 2.61-126.93 26.2-186 13.6-35.43 24.56-73.32 48.06-103.67 27.32-18.2 60-23.76 90.46-34.78a3.16 3.16 0 012.72.43c5 5.55 11.46 8.41 18.56 9.67 19.19 2.43 41.29 5.55 58.65-4.88 2.86-1.27 4.2-6.53 7.88-5 29.12 10.49 61.05 14.4 87.43 31.58 15.94 14.59 21.63 38 30.45 57.21 27.82 67.48 58 137.39 51.06 212.07-1.2 18.66-.24 37.46-3.29 56-.48 4.66-5.2 7.09-5.56 11.78-1.21 5.28-2.07 10.65-2.9 16-.41 2.6-.42 2.83-3.09 2.33-12.48-2.66-25.25-5.49-37.8-1.58-8.33-.15-8.13-15.56-11.44-21.41-6.28-7.36-3.61-9-5.33-17.63-.9-9.7-4.68-20.27.79-29.26 2-3.53 1.87-7.05.51-10.66-4.9-11.29-7.4-23.42-10.45-35.29-1.06-4.31-1.31-8.5 1.61-12.34 1.49-7.15-10.43-8.7-10.93-15.93z" fill="#262521" stroke="#262521" stroke-linecap="round" stroke-linejoin="round" stroke-width="3"/><g clip-path="url(#a)" fill="#fff"><path d="M216.68 102.57l5.22 2.43-9.73 12.73 7.09-1.24-22.6 22.8 11.13-16.92-5.31 1.5 14.2-21.3zM230.67 107.63l5.68 1.01-6.16 14.79 6.54-3.01-16.02 27.82 6.43-19.21-4.75 2.82 8.28-24.22zM276.32 148.93l8.52-2.87 2.67 24.84 6.69-9.01-1.06 50.05-5.6-31.09-4.39 7.41-6.83-39.33zM267.79 220.07l15.35-2.78-3.19 33.97 15.6-10.95-12.96 90.17-1.71-62.72-11.33 12-1.76-59.69zM306.34 210.05l14.4-6 4.16 33.87 12.89-14.04 6.67 90.85-15.11-60.89-8.5 14.14-14.51-57.93zM341.27 192.2l12.82-8.89 11.19 32.24 9.64-16.44 25.62 87.42-27.57-56.36-5.34 15.62-26.36-53.59zM371.53 169.1l11.23-10.82 16.18 30.05 6.91-17.76 39.18 82.24-36.18-51.26-2.79 16.26-34.53-48.71zM226.15 219.79l15.54 1.37-12.02 31.93 17.93-6.46-36.23 83.58 14.86-60.96-14.1 8.59 14.02-58.05zM185.44 210.12l14.77 5.03-19.3 28.15 18.96-2-55.14 72.51 28.98-55.64-15.73 4.97 27.46-53.02zM119.14 164.96l11.31 10.74-29.29 17.5 18.05 6.11-80.39 42.84L88.4 203.7l-16.37-2.05 47.11-36.69zM151.39 192.1l13.33 8.1-24.92 23.31 18.94 2.14-69.49 58.9 40.31-48.07-16.44 1.46 38.27-45.84zM246.65 109.33l5.77-.16-3.05 15.73 5.8-4.26-10.08 30.48 2.42-20.11-4.08 3.71 3.22-25.39zM204.64 94.07l4.41 3.72-12.73 9.73 7.17.67-27.78 16.09 15.17-13.43-5.52.07 19.28-16.85zM195.52 83.67l3.44 4.62-14.62 6.56 6.83 2.29-30.73 9.29 17.84-9.59-5.39-1.2 22.63-11.97zM189.31 72.32l2.54 5.18-15.57 3.76 6.28 3.51-31.91 3.49 19.3-6.15-5.07-2.17 24.43-7.62zM185.02 59.94l1.69 5.51-15.96 1.28 5.66 4.45-32.07-1.55 20.03-3.05-4.68-2.94 25.33-3.7zM261.17 108.09l5.64-1.23-.06 16.02 4.9-5.27-4.22 31.83-1.37-20.21-3.32 4.41-1.57-25.55zM275.63 103.61l5.27-2.34 3.2 15.69 3.73-6.15 2.32 32.01-5.44-19.51-2.35 5-6.73-24.7zM287.88 96.68l4.47-3.63 7.17 14.33 2-6.92 10.57 30.32-10.33-17.43-.97 5.43-12.91-22.1zM297.78 87.02l3.55-4.54 10.19 12.37.41-7.19L329 114.85l-13.96-14.68.26 5.51-17.52-18.66zM305.58 75.42l2.62-5.13 12.36 10.19-.97-7.13 21.94 23.43-16.5-11.74 1.31 5.36-20.76-14.98zM310.69 63.58l1.67-5.52 13.96 7.86-2.21-6.86 25.74 19.19-18.32-8.64 2.23 5.04-23.07-11.07zM252.69 152.5l9.23-.75-3.52 25.47 8.92-7.34-13.52 49.71 2.15-32.43-6.23 6.3 2.97-40.96zM227.33 151.12l9.15 1.41-9.33 23.96 10.38-5.06-24.69 45.21 9.62-31.05-7.52 4.69 12.39-39.16zM183.06 131.38l7.53 5.38-19.11 17.19 11.55.15-42.38 29.28 22.55-23.41-8.82.81 28.68-29.4zM204.49 144.15l8.56 3.51-14.63 21.13 11.27-2.52-34.51 38.25 16.56-27.97-8.4 2.82 21.15-35.22zM164.09 112.42l6.13 6.93-22.48 12.46 11.22 2.74-47.88 19.01 27.23-17.74-8.77-1.2 34.55-22.2zM142.79 76.89l3.88 8.39-25.11 5.5 9.97 5.84-51.32 4.5 31.17-9.2-8.06-3.66 39.47-11.37zM151.09 93.34l4.78 7.93-24.36 8.2 10.54 4.72-50.52 10.08 29.99-12.55-8.42-2.76 37.99-15.62zM298.74 139.56l7.99-4.68 7.9 24.46 4.85-10.48 9.42 50.64-12.16-30.14-2.86 8.38-15.14-38.18zM318.55 125.31l6.56-6.52 13.76 21.71 2.08-11.36 21.78 46.69-19.31-26.15-.68 8.83-24.19-33.2zM334.02 108.82l5.35-7.55 17.27 19.03.1-11.55 29.46 42.26-23.5-22.45.84 8.81-29.52-28.55zM346.17 90.49l4.37-8.15 19.49 16.76-1.32-11.47 34.43 38.31-26.08-19.39 1.92 8.65-32.81-24.71z"/></g><path d="M204.59 51.38c.8-.26 4.44 39.77 42.44 41.81s45.37-41.58 45.37-41.58" fill="none" stroke="#636363" stroke-linecap="round" stroke-linejoin="round"/><path d="M121.09 171.93s3 37.53.91 53.16.11 29.7.11 32.87S124 291 124 291M371.53 188.66s5.79 47.28 0 75.34l1 27.47" fill="none" stroke="#262521" stroke-linecap="round" stroke-linejoin="round" stroke-width="3"/></svg>