<svg xmlns="http://www.w3.org/2000/svg" width="500" height="550" viewBox="0 0 500 550"><defs><pattern id="a" width="53.55" height="57.76" patternTransform="rotate(11.36 -259.648 -6.82)" patternUnits="userSpaceOnUse" viewBox="0 0 53.55 57.76"><path fill="none" d="M0 0h53.55v57.76H0z"/><path fill="#262521" d="M40.16 0h26.78v57.76H40.16z"/><path fill="#595959" d="M40.16 0h13.39v28.88H40.16z"/><path fill="#444" d="M53.55 13.39L40.16 0h26.78L53.55 13.39zm0 30.98l13.39 13.39H40.16l13.39-13.39zm0-15.49L40.16 42.27V15.49l13.39 13.39z"/><path fill="#262521" d="M13.39 0h26.78v57.76H13.39z"/><path fill="#595959" d="M13.39 0h13.39v28.88H13.39zm13.39 28.88h13.39v28.88H26.78z"/><path fill="#444" d="M26.78 13.39L13.39 0h26.77L26.78 13.39zm0 30.98l13.38 13.39H13.39l13.39-13.39zm0-15.49l13.38-13.39v26.78L26.78 28.88zm0 0L13.39 42.27V15.49l13.39 13.39z"/><path fill="#262521" d="M-13.39 0h26.78v57.76h-26.78z"/><path fill="#595959" d="M0 28.88h13.39v28.88H0z"/><path fill="#444" d="M0 13.39L-13.39 0h26.78L0 13.39zm0 30.98l13.39 13.39h-26.78L0 44.37zm0-15.49l13.39-13.39v26.78L0 28.88z"/></pattern><pattern id="b" width="53.55" height="57.76" patternTransform="rotate(-8.99 384.9 76.079)" patternUnits="userSpaceOnUse" viewBox="0 0 53.55 57.76"><path fill="none" d="M0 0h53.55v57.76H0z"/><path fill="#262521" d="M40.16 0h26.78v57.76H40.16z"/><path fill="#595959" d="M40.16 0h13.39v28.88H40.16z"/><path fill="#444" d="M53.55 13.39L40.16 0h26.78L53.55 13.39zm0 30.98l13.39 13.39H40.16l13.39-13.39zm0-15.49L40.16 42.27V15.49l13.39 13.39z"/><path fill="#262521" d="M13.39 0h26.78v57.76H13.39z"/><path fill="#595959" d="M13.39 0h13.39v28.88H13.39zm13.39 28.88h13.39v28.88H26.78z"/><path fill="#444" d="M26.78 13.39L13.39 0h26.77L26.78 13.39zm0 30.98l13.38 13.39H13.39l13.39-13.39zm0-15.49l13.38-13.39v26.78L26.78 28.88zm0 0L13.39 42.27V15.49l13.39 13.39z"/><path fill="#262521" d="M-13.39 0h26.78v57.76h-26.78z"/><path fill="#595959" d="M0 28.88h13.39v28.88H0z"/><path fill="#444" d="M0 13.39L-13.39 0h26.78L0 13.39zm0 30.98l13.39 13.39h-26.78L0 44.37zm0-15.49l13.39-13.39v26.78L0 28.88z"/></pattern><pattern id="c" width="53.55" height="57.76" patternUnits="userSpaceOnUse" viewBox="0 0 53.55 57.76"><path fill="none" d="M0 0h53.55v57.76H0z"/><path fill="#262521" d="M40.16 0h26.78v57.76H40.16z"/><path fill="#595959" d="M40.16 0h13.39v28.88H40.16z"/><path fill="#444" d="M53.55 13.39L40.16 0h26.78L53.55 13.39zm0 30.98l13.39 13.39H40.16l13.39-13.39zm0-15.49L40.16 42.27V15.49l13.39 13.39z"/><path fill="#262521" d="M13.39 0h26.78v57.76H13.39z"/><path fill="#595959" d="M13.39 0h13.39v28.88H13.39zm13.39 28.88h13.39v28.88H26.78z"/><path fill="#444" d="M26.78 13.39L13.39 0h26.77L26.78 13.39zm0 30.98l13.38 13.39H13.39l13.39-13.39zm0-15.49l13.38-13.39v26.78L26.78 28.88zm0 0L13.39 42.27V15.49l13.39 13.39z"/><path fill="#262521" d="M-13.39 0h26.78v57.76h-26.78z"/><path fill="#595959" d="M0 28.88h13.39v28.88H0z"/><path fill="#444" d="M0 13.39L-13.39 0h26.78L0 13.39zm0 30.98l13.39 13.39h-26.78L0 44.37zm0-15.49l13.39-13.39v26.78L0 28.88z"/></pattern></defs><path d="M372.08 291.55q-.27 61.74-.62 123.47c-.81 9-2.68 16.4-3.55 25.44-1 10.07 1.34 17-1.5 25.63-.58 1.77-2 1.67-3.35 1.44-44.58-7.74-101.65-5.72-146.65-2.93-24.59.58-58.62-1.67-83 2.09-5.22.6-5.68.28-6.62-4.82-1.34-11.26 1.94-18.53.53-29.31-6.15-46.82-1.39-94.38-3.6-141.53-1.41 2.82-2.94 5.6-4.28 8.46-2.37 10.67-17.51 9.3-11.82 16.18 11.12 7.95 6.41 21.38 5.15 32.56-.24 3.15-1.34 6.27-.37 9.58.51 8.43-3.19 16.94-4.38 25.31-1.5 8-2.61 15.83-1.53 23.93a5.17 5.17 0 01-1.14 3.3c-5.71 6.28-7.74 14-9.19 22.06-.57 3.18-.61 3-3.73 2-12.38-3.52-26.1-4.38-38.61-1.18-1.39.34-2.1 0-2.41-1.47-2-7.76-2.17-16.67-8.49-22.43a6.66 6.66 0 01-1.33-3.22 145 145 0 01-2.72-33.3c-1.91-63 2.61-126.93 26.2-186 13.6-35.43 24.56-73.32 48.06-103.67 27.32-18.2 60-23.76 90.46-34.78a3.16 3.16 0 012.72.43c5 5.55 11.46 8.41 18.56 9.67 19.19 2.43 41.29 5.55 58.65-4.88 2.86-1.27 4.2-6.53 7.88-5 29.12 10.49 61.05 14.4 87.43 31.58 15.94 14.59 21.63 38 30.45 57.21 27.82 67.48 58 137.39 51.06 212.07-1.2 18.66-.24 37.46-3.29 56-.48 4.66-5.2 7.09-5.56 11.78-1.21 5.28-2.07 10.65-2.9 16-.41 2.6-.42 2.83-3.09 2.33-12.48-2.66-25.25-5.49-37.8-1.58-8.33-.15-8.13-15.56-11.44-21.41-6.28-7.36-3.61-9-5.33-17.63-.9-9.7-4.68-20.27.79-29.26 2-3.53 1.87-7.05.51-10.66-4.9-11.29-7.4-23.42-10.45-35.29-1.06-4.31-1.31-8.5 1.61-12.34 1.49-7.15-10.43-8.7-10.93-15.93z" fill="#262521"/><path d="M119.47 299.49c1.34-2.86 2.87-5.64 4.28-8.46.3 6.49.47 13 .56 19.48 5.8-4.57 36.2-72.52 37.57-89.66 1.61-20-28.08-137.71-32.91-146.66a134 134 0 00-15.81 9c-23.5 30.34-34.46 68.23-48.06 103.66-23.59 59.08-28.11 123-26.2 186a145 145 0 002.72 33.3c.24 1.13 64.92 2 64.9.89-1.08-8.1 0-16 1.53-23.93 1.19-8.37 4.89-16.88 4.38-25.31-1-3.31.13-6.43.37-9.58 1.26-11.18 6-24.61-5.15-32.56-5.65-6.87 9.45-5.5 11.82-16.17z" fill="url(#a)"/><path d="M409.31 137.42c-8.82-19.22-14.51-42.62-30.45-57.21a121.74 121.74 0 00-18.21-9.65c-2.58 8.56-18.19 69.66-21.37 92s25.18 162.95 32.56 177.72q.14-24.37.24-48.75l.41-.08c.5 7.23 12.42 8.78 10.93 15.93-2.92 3.84-2.67 8-1.61 12.34 3.05 11.87 5.55 24 10.45 35.29 1.36 3.61 1.51 7.13-.51 10.66-5.47 9-1.69 19.56-.79 29.26 1.24 6.23.21 8.81 1.86 12.49.64 1.45 63.78 2.67 64.26-2 3.05-18.5 2.09-37.3 3.29-56 6.94-74.61-23.24-144.52-51.06-212z" fill="url(#b)"/><path d="M373.94 207.85c-.52-7.66-1.14-15.32-1.08-23 .06-7.34 1.24-66.19 10.42-100.07a55.92 55.92 0 00-4.42-4.56C352.48 63 337.9 65 308.78 54.48c0 0-8.59 55.48-60.29 55.48s-61-56-61.79-55.8c-30.43 11-46.22 10.82-73.54 29-1 1.23-1.89 2.49-2.8 3.75 12.18 20 11 88 11.3 96.61.31 8.78.59 17.56.32 26.34-.52 16.86 4.32 84 2.15 90.1v.07c1.31 44.19-.87 86.95 2.76 131 .19 2.36 86 6.63 156.54 1.26 48.7-3.7 85 3.3 85.39-.89.87-9 1.87-7.44 2.68-16.41q.3-61.72.62-123.47l.41-.08c.07.95.45-8.13.48-13.48 0-4.24 0-8.48.29-12.72s.7-8.42 1.1-12.63a165.68 165.68 0 00.88-22c-.28-7.61-.83-15.18-1.34-22.76z" fill="url(#c)"/><path d="M204.59 51.38c.8-.26 4.44 39.77 42.44 41.81s45.37-41.58 45.37-41.58" fill="none" stroke="#636363" stroke-linecap="round" stroke-linejoin="round"/><path d="M372.08 291.55q-.27 61.74-.62 123.47c-.81 9-2.68 16.4-3.55 25.44-1 10.07 1.34 17-1.5 25.63-.58 1.77-2 1.67-3.35 1.44-44.58-7.74-101.65-5.72-146.65-2.93-24.59.58-58.62-1.67-83 2.09-5.22.6-5.68.28-6.62-4.82-1.34-11.26 1.44-20 0-30.81-6.15-46.82-.89-92.88-3.1-140-1.41 2.82-2.94 5.6-4.28 8.46-2.37 10.67-17.51 9.3-11.82 16.18 11.12 7.95 6.41 21.38 5.15 32.56-.24 3.15-1.34 6.27-.37 9.58.51 8.43-3.19 16.94-4.38 25.31-1.5 8-2.61 15.83-1.53 23.93a5.17 5.17 0 01-1.14 3.3c-5.71 6.28-7.74 14-9.19 22.06-.57 3.18-.61 3-3.73 2-12.38-3.52-26.1-4.38-38.61-1.18-1.39.34-2.1 0-2.41-1.47-2-7.76-2.17-16.67-8.49-22.43a6.66 6.66 0 01-1.33-3.22 145 145 0 01-2.72-33.3c-1.91-63 2.61-126.93 26.2-186 13.6-35.43 24.56-73.32 48.06-103.67 27.32-18.2 60-23.76 90.46-34.78a3.16 3.16 0 012.72.43c5 5.55 11.46 8.41 18.56 9.67 19.19 2.43 41.29 5.55 58.65-4.88 2.86-1.27 4.2-6.53 7.88-5 29.12 10.49 61.05 14.4 87.43 31.58 15.94 14.59 21.63 38 30.45 57.21 27.82 67.48 58 137.39 51.06 212.07-1.2 18.66-.24 37.46-3.29 56-.48 4.66-5.2 7.09-5.56 11.78-1.21 5.28-2.07 10.65-2.9 16-.41 2.6-.42 2.83-3.09 2.33-12.48-2.66-25.25-5.49-37.8-1.58-8.33-.15-8.13-15.56-11.44-21.41-6.28-7.36-3.61-9-5.33-17.63-.9-9.7-4.68-20.27.79-29.26 2-3.53 1.87-7.05.51-10.66-4.9-11.29-7.4-23.42-10.45-35.29-1.06-4.31-1.31-8.5 1.61-12.34 1.49-7.15-10.43-8.7-10.93-15.93z" fill="none" stroke="#262521" stroke-linecap="round" stroke-linejoin="round" stroke-width="3"/><path d="M121.09 171.92s3 37.54.91 53.17.11 29.69.11 32.87S124 291 124 291m248.53-102.34s4.79 47.28-1 75.34l1 27.47" fill="none" stroke="#262521" stroke-linecap="round" stroke-linejoin="round" stroke-width="3"/></svg>