<svg xmlns="http://www.w3.org/2000/svg" width="500" height="550" viewBox="0 0 500 550"><title>s05e13-02</title><path d="M372.14,291.55q-.27,61.74-.62,123.47c-.81,9-2.68,16.4-3.55,25.44-1,10.07,1.34,17-1.5,25.63-.59,1.77-2,1.67-3.35,1.43-44.59-7.73-101.66-5.71-146.65-2.92-24.6.58-58.62-1.67-83,2.09-5.23.6-5.68.28-6.62-4.82-1.35-11.26,1.44-20,0-30.81-6.15-46.82-.89-92.88-3.1-140-1.42,2.82-2.94,5.6-4.29,8.46-2.37,10.67-17.5,9.3-11.81,16.18,11.11,7.95,6.41,21.38,5.15,32.56-.25,3.15-1.35,6.27-.37,9.58.51,8.43-3.19,16.94-4.38,25.31-1.5,8-2.61,15.83-1.54,23.93a5.1,5.1,0,0,1-1.13,3.3c-5.71,6.28-7.75,14-9.19,22.06-.57,3.18-.61,3-3.74,2-12.38-3.52-26.09-4.38-38.6-1.18-1.39.34-2.11,0-2.41-1.47-2-7.76-2.18-16.67-8.49-22.43a6.66,6.66,0,0,1-1.33-3.22A144.5,144.5,0,0,1,39,372.85c-1.91-63,2.6-126.92,26.19-186,13.61-35.43,24.56-73.32,48.07-103.67,27.32-18.2,60-23.76,90.46-34.78a3.16,3.16,0,0,1,2.72.43c5,5.55,11.46,8.41,18.56,9.67,19.19,2.43,41.29,5.55,58.65-4.88,2.85-1.27,4.2-6.53,7.87-5,29.12,10.49,61,14.4,87.44,31.58,15.94,14.59,21.63,38,30.45,57.2,27.81,67.49,58,137.4,51.05,212.08-1.19,18.66-.23,37.46-3.28,56-.49,4.66-5.21,7.09-5.56,11.78-1.22,5.28-2.08,10.65-2.91,16-.4,2.6-.41,2.83-3.08,2.33-12.48-2.66-25.26-5.49-37.8-1.58-8.34-.15-8.13-15.56-11.44-21.41-6.28-7.36-3.61-9-5.33-17.63-.9-9.7-4.68-20.27.79-29.26,2-3.53,1.86-7.05.51-10.66-4.9-11.29-7.4-23.42-10.45-35.29-1.07-4.31-1.31-8.5,1.61-12.34,1.49-7.15-10.43-8.7-10.93-15.93Z" fill="#262521" stroke="#262521" stroke-linecap="round" stroke-linejoin="round" stroke-width="3"/><path d="M39.35,245.45c.84-2.59-.66-10.86,1.44-12.43,1.14-.85,4.52-8.91,12.53-4.41S70.53,231.5,73.77,232s11-.14,14.25.21c6.66.72,13.09-2.71,14.59-2.39,1.29.27,12.78,6.83,14.06,6.46,6.73-1.93,8.82,1.39,13.49-.59a9.84,9.84,0,0,1,1.46,5.47c0,3-.72,6-1,9a17.2,17.2,0,0,0,1.14,8.89c1.32,3.13,3.6,6,3.63,9.53,0,4.22-2.45,7.36-4.77,10.61-.61.26-1.26.56-2,.91-1.59.78-7.59-1.79-9.32-1.57-3.87.49-8.72-3.87-12.36-5.36C101.6,271,95.87,269.59,90.31,271S79.89,278.81,76.4,274c-5.52,5.5-6.08,5.07-13.58,4.3-6.72-.69-4.65-7.22-16.11-3.71-3.55,1.09-7.24-4.73-10.75-6C33.83,264.67,37.81,250.26,39.35,245.45Z" fill="#3a3934" stroke="#262521" stroke-linecap="round" stroke-linejoin="round" stroke-width="3"/><path d="M35.66,294.38c-1.23-4.06,6.9-3.66,10.7-2.25,3.56-.8,13,3.45,16.6,3.27a157.13,157.13,0,0,0,19.81-2.77c6.76-.25,24.57-.3,25.51,4.13.72,3.45,12.82-3,14.87,1s-2.09,7-2.35,7.75a9.35,9.35,0,0,0,.07,4.55c.25,1.36.5,3-1,3.75-1.16.6-1.31,12.86-3.2,12.34-.59-.16-.11,6.18-1.09,7.24-.75.8-5.79,1-6.22,2a105.41,105.41,0,0,1-14.56-2.67c-1.16-.3-8.25,1.86-9.13,2.56-2.55,2.06-12.44-1.68-14.54-4.22-1-1.18-9.31,4.52-11.09,4.59-4.55.17-7.51-5.17-12.06-5-8,.22-15.18,7.26-17-5-.44-3,2.85-8.32,4.06-11.87,1.1-3.24-2.32-8.16-2.74-10.88C32,300.41,34.07,296.25,35.66,294.38Z" fill="#3a3934" stroke="#262521" stroke-linecap="round" stroke-linejoin="round" stroke-width="3"/><path d="M31,354.85c1.1-.83,4.14-8.41,12.33-4.55s17.32,2,20.58,2.37,11-.55,14.24-.35c6.69.41,13-3,14.49-2.77,1.3.2,13,5.82,14.31,5.43a15.62,15.62,0,0,1,5.17-.74,9.34,9.34,0,0,1,1.82,3.47c.54,2.23-.54,3.61-1.49,5.54-.62,1.26-1.33,3-.27,4.18s3,1.49,3.4,3.27c.29,1.52-2.14,3-3.06,4a4.92,4.92,0,0,0-1.7,3.5,14.79,14.79,0,0,0,1.19,5,9.45,9.45,0,0,0,.81,1.91,21.06,21.06,0,0,0,1.54,1.88c.21.26.8.86.74,1.22s-.55.54-.74.68a5.28,5.28,0,0,0-2.76,4.95,1.23,1.23,0,0,0-.28,0c-3.85.6-8.87-3.25-12.57-4.48-5.42-1.8-11.2-2.89-16.7-1.34S72,395.67,68.3,391.35c-5.28,5.3-5.87,4.92-13.39,4.5-6.74-.39-4.95-6.5-16.25-2.81-3.51,1.14-9.95-9.61-6.53-18.37C33.05,372.3,29,356.39,31,354.85Z" fill="#3a3934" stroke="#262521" stroke-linecap="round" stroke-linejoin="round" stroke-width="3"/><path d="M459.64,245.45c-.83-2.59.67-10.86-1.44-12.43-1.13-.85-4.51-8.91-12.52-4.41s-17.22,2.89-20.46,3.42-11-.14-14.24.21c-6.66.72-13.1-2.71-14.6-2.39-1.29.27-12.78,6.83-14.05,6.46-6.74-1.93-8.82,1.39-13.5-.59a9.75,9.75,0,0,0-1.45,5.47,87.54,87.54,0,0,0,1,9,17.31,17.31,0,0,1-1.14,8.89c-1.32,3.13-3.6,6-3.63,9.53,0,4.22,2.45,7.36,4.77,10.61.61.26,1.25.56,2,.91,1.58.78,7.59-1.79,9.32-1.57,3.87.49,8.72-3.87,12.35-5.36,5.34-2.17,11.07-3.59,16.63-2.14s10.41,7.77,13.9,2.95c5.52,5.5,6.09,5.07,13.58,4.3,6.72-.69,4.66-7.22,16.11-3.71,3.56,1.09,7.25-4.73,10.76-6C465.17,264.67,461.19,250.26,459.64,245.45Z" fill="#3a3934" stroke="#262521" stroke-linecap="round" stroke-linejoin="round" stroke-width="3"/><g opacity="0.5"><line x1="73.89" y1="403.5" x2="73.89" y2="423.97" fill="none" stroke="#636363" stroke-linecap="round" stroke-linejoin="round" stroke-width="2"/><line x1="64.24" y1="403.52" x2="65.23" y2="423.95" fill="none" stroke="#636363" stroke-linecap="round" stroke-linejoin="round" stroke-width="2"/><line x1="84.38" y1="403.53" x2="82.9" y2="423.94" fill="none" stroke="#636363" stroke-linecap="round" stroke-linejoin="round" stroke-width="2"/><line x1="94.49" y1="405.69" x2="90.35" y2="425.73" fill="none" stroke="#636363" stroke-linecap="round" stroke-linejoin="round" stroke-width="2"/><line x1="55.35" y1="404.9" x2="57.39" y2="425.26" fill="none" stroke="#636363" stroke-linecap="round" stroke-linejoin="round" stroke-width="2"/></g><g opacity="0.5"><line x1="424.82" y1="402.38" x2="424.82" y2="422.84" fill="none" stroke="#636363" stroke-linecap="round" stroke-linejoin="round" stroke-width="2"/><line x1="414.71" y1="402.43" x2="416.61" y2="422.8" fill="none" stroke="#636363" stroke-linecap="round" stroke-linejoin="round" stroke-width="2"/><line x1="435.3" y1="402.41" x2="433.82" y2="422.82" fill="none" stroke="#636363" stroke-linecap="round" stroke-linejoin="round" stroke-width="2"/><line x1="445.41" y1="404.57" x2="441.27" y2="424.61" fill="none" stroke="#636363" stroke-linecap="round" stroke-linejoin="round" stroke-width="2"/><line x1="404.88" y1="403.91" x2="408.7" y2="424.01" fill="none" stroke="#636363" stroke-linecap="round" stroke-linejoin="round" stroke-width="2"/></g><g opacity="0.5"><line x1="247.31" y1="433.04" x2="247.31" y2="459.77" fill="none" stroke="#636363" stroke-linecap="round" stroke-linejoin="round" stroke-width="2"/><line x1="258.37" y1="433.04" x2="258.37" y2="459.25" fill="none" stroke="#636363" stroke-linecap="round" stroke-linejoin="round" stroke-width="2"/><line x1="269.43" y1="433.04" x2="269.43" y2="459.27" fill="none" stroke="#636363" stroke-linecap="round" stroke-linejoin="round" stroke-width="2"/><line x1="280.49" y1="433.04" x2="280.49" y2="459.25" fill="none" stroke="#636363" stroke-linecap="round" stroke-linejoin="round" stroke-width="2"/><line x1="291.56" y1="432.54" x2="291.56" y2="459.27" fill="none" stroke="#636363" stroke-linecap="round" stroke-linejoin="round" stroke-width="2"/><line x1="302.62" y1="432.54" x2="302.62" y2="458.77" fill="none" stroke="#636363" stroke-linecap="round" stroke-linejoin="round" stroke-width="2"/><line x1="314.17" y1="432.54" x2="314.73" y2="459.25" fill="none" stroke="#636363" stroke-linecap="round" stroke-linejoin="round" stroke-width="2"/><line x1="324.74" y1="433.04" x2="324.74" y2="459.77" fill="none" stroke="#636363" stroke-linecap="round" stroke-linejoin="round" stroke-width="2"/><line x1="170.87" y1="433.04" x2="170.87" y2="460.5" fill="none" stroke="#636363" stroke-linecap="round" stroke-linejoin="round" stroke-width="2"/><line x1="192" y1="433.04" x2="192" y2="460.72" fill="none" stroke="#636363" stroke-linecap="round" stroke-linejoin="round" stroke-width="2"/><line x1="181.16" y1="433.04" x2="181.16" y2="460.56" fill="none" stroke="#636363" stroke-linecap="round" stroke-linejoin="round" stroke-width="2"/><line x1="203.06" y1="434.04" x2="203.06" y2="461.22" fill="none" stroke="#636363" stroke-linecap="round" stroke-linejoin="round" stroke-width="2"/><line x1="136.11" y1="435.05" x2="137.61" y2="461.87" fill="none" stroke="#636363" stroke-linecap="round" stroke-linejoin="round" stroke-width="2"/><line x1="147.05" y1="433.56" x2="147.75" y2="460.72" fill="none" stroke="#636363" stroke-linecap="round" stroke-linejoin="round" stroke-width="2"/><line x1="159.31" y1="433.04" x2="159.31" y2="460.72" fill="none" stroke="#636363" stroke-linecap="round" stroke-linejoin="round" stroke-width="2"/><line x1="214.12" y1="434.04" x2="214.12" y2="460.72" fill="none" stroke="#636363" stroke-linecap="round" stroke-linejoin="round" stroke-width="2"/><line x1="225.18" y1="434.04" x2="225.18" y2="459.72" fill="none" stroke="#636363" stroke-linecap="round" stroke-linejoin="round" stroke-width="2"/><line x1="236.24" y1="433.04" x2="236.24" y2="459.77" fill="none" stroke="#636363" stroke-linecap="round" stroke-linejoin="round" stroke-width="2"/><line x1="336.17" y1="434.05" x2="335.12" y2="460.5" fill="none" stroke="#636363" stroke-linecap="round" stroke-linejoin="round" stroke-width="2"/><line x1="347.48" y1="435.06" x2="345.63" y2="461.22" fill="none" stroke="#636363" stroke-linecap="round" stroke-linejoin="round" stroke-width="2"/><line x1="358.34" y1="436.05" x2="357.26" y2="462.71" fill="none" stroke="#636363" stroke-linecap="round" stroke-linejoin="round" stroke-width="2"/></g><path d="M206.72,51.51s4,48.55,43.68,46.73,43.67-46.73,43.67-46.73" fill="none" stroke="#636363" stroke-linecap="round" stroke-linejoin="round"/><g opacity="0.5"><line x1="293.56" y1="70.56" x2="300.7" y2="72.42" fill="none" stroke="#636363" stroke-linecap="round" stroke-linejoin="round" stroke-width="2"/><line x1="295.66" y1="62.11" x2="303.59" y2="64.18" fill="none" stroke="#636363" stroke-linecap="round" stroke-linejoin="round" stroke-width="2"/><line x1="247.67" y1="104.45" x2="247.67" y2="113.24" fill="none" stroke="#636363" stroke-linecap="round" stroke-linejoin="round" stroke-width="2"/><line x1="257.29" y1="103.72" x2="257.73" y2="112.35" fill="none" stroke="#636363" stroke-linecap="round" stroke-linejoin="round" stroke-width="2"/><line x1="265.8" y1="101.03" x2="267.26" y2="109.63" fill="none" stroke="#636363" stroke-linecap="round" stroke-linejoin="round" stroke-width="2"/><line x1="272.91" y1="97.2" x2="275.91" y2="105.04" fill="none" stroke="#636363" stroke-linecap="round" stroke-linejoin="round" stroke-width="2"/><line x1="279.59" y1="92.17" x2="283.97" y2="98.61" fill="none" stroke="#636363" stroke-linecap="round" stroke-linejoin="round" stroke-width="2"/><line x1="285.17" y1="85.86" x2="291.01" y2="90.3" fill="none" stroke="#636363" stroke-linecap="round" stroke-linejoin="round" stroke-width="2"/><line x1="289.39" y1="78.72" x2="296.41" y2="81.77" fill="none" stroke="#636363" stroke-linecap="round" stroke-linejoin="round" stroke-width="2"/><line x1="201.78" y1="70.56" x2="194.84" y2="72.37" fill="none" stroke="#636363" stroke-linecap="round" stroke-linejoin="round" stroke-width="2"/><line x1="199.68" y1="62.11" x2="192.03" y2="64.1" fill="none" stroke="#636363" stroke-linecap="round" stroke-linejoin="round" stroke-width="2"/><line x1="238.05" y1="103.72" x2="237.6" y2="112.36" fill="none" stroke="#636363" stroke-linecap="round" stroke-linejoin="round" stroke-width="2"/><line x1="229.54" y1="101.03" x2="228.08" y2="109.63" fill="none" stroke="#636363" stroke-linecap="round" stroke-linejoin="round" stroke-width="2"/><line x1="222.43" y1="97.2" x2="219.43" y2="105.04" fill="none" stroke="#636363" stroke-linecap="round" stroke-linejoin="round" stroke-width="2"/><line x1="215.74" y1="92.17" x2="211.37" y2="98.61" fill="none" stroke="#636363" stroke-linecap="round" stroke-linejoin="round" stroke-width="2"/><line x1="210.17" y1="85.86" x2="204.41" y2="90.23" fill="none" stroke="#636363" stroke-linecap="round" stroke-linejoin="round" stroke-width="2"/><line x1="205.95" y1="78.72" x2="199.08" y2="81.7" fill="none" stroke="#636363" stroke-linecap="round" stroke-linejoin="round" stroke-width="2"/></g><path d="M178.54,53.3c3.13,1,4.26,4.88,4.38,8.17s-.25,6.88,1.6,9.62c.9,1.34,2.28,2.37,3,3.84s.52,3.42.58,5.16c.2,6.61,4.23,12.41,8.11,17.78a13.69,13.69,0,0,0,3.5,3.73c1.42.89,3.12,1.22,4.6,2,4.92,2.5,6.81,9.14,11.92,11.25,4.26,1.76,9.15-.31,13.72.36a29.13,29.13,0,0,1,6.2,2,53.37,53.37,0,0,0,46.76-4.61,9.68,9.68,0,0,0,3.61-3.37c.75-1.38.86-3,1.66-4.41,1-1.77,3-2.69,4.71-3.83,6.57-4.37,9.5-12.39,12-19.87l8.19-24.28c.42-1.24,1-2.62,2.15-3.16.79-.35,2.21-1.25,3.07-1.14,7.77,1,15,6.24,22.44,8.64,5.35,1.72,11,.91,16.21,3.07,4.47,1.85,9.41,5.81,13.81,7.83,3.39,1.55,5.76,1.62,9.12,3.2A25.28,25.28,0,0,1,387,79.64c1.48,1.44,2.44,6.66,3.49,8.44,3.12,5.3,6.11,7.34,8.64,12.94,1.64,3.65.42,8.47,1.8,12.22,1,2.79,7.72,4.49,8.59,7.34,1.33,4.29,1.92,10.08-2,12.2-1.45.77-6.15.79-7.78.83-8.65.21-15.94-1.14-24.3,1-5.26,1.37-11.83,5.7-17.26,5.87s-10.56-1.19-15.85-1.81a79.44,79.44,0,0,0-21.33.77c-4.69.73-9.58,1.71-14.09.23-2.13-.7-4.07-1.93-6.24-2.45-3.66-.88-7.44.29-11.12,1.05-9.32,1.91-19,1.12-28.42,0-24.4-2.88-50.51-4.26-74.16,2.38-6,1.68-12.84,4-18,.53-1.73-1.14-3.08-2.85-5-3.72-4.1-1.87-8.74.87-13.23,1.27-6.28.57-12.43-3.52-18.63-2.38-4.82.89-10,4.75-14,1.87-1.35-1-2.12-2.55-3.3-3.73-3.72-3.75-5.69,2.7-10.91,3.52s-25.41,5-27,0c-.52-1.62,1.56-11.73,4.61-16.26,2.26-3.36,6.57-4.87,7.08-6L94,103.37c1.17-2.66-.78-5.32.39-8,.75-1.7,4.62-3.4,5.37-5.09.62-1.39-.21-8.14.4-9.53.87-2,3.2,1.39,4.7-.15,1.74-1.8,4.14-2.79,6.47-3.73,6.65-2.69,8.67-6,15.32-8.66,12.75-1.79,15.19-6,20.51-8.17,2.67-1.07,5.42.16,8.08-.91,5.86-2.37,8.57-5.27,14.43-7.64,2.08-.84,8.46-.58,8.88,1.62" fill="#3a3934" stroke="#262521" stroke-linecap="round" stroke-linejoin="round" stroke-width="3"/><path d="M118.9,171.4c3.15-2.41,8.17-4.94,11.52-2.73,1.15.75,1.75,1.93,3,2.62a7.81,7.81,0,0,0,4.78.76c14.34-2.11,15.52-2.64,20.91-3.08,7.27-.58,9.79.82,16.92-.44,3.78-.66,8.17-1.33,11.19.5a11.32,11.32,0,0,1,8-3.77,28.65,28.65,0,0,1,7,.77,194.17,194.17,0,0,0,70.16.25,39.8,39.8,0,0,1,7.62-.94,63,63,0,0,1,7.51.88c11.17,1.44,23-1.43,33.87.95a15.45,15.45,0,0,0,5.39.67c2.11-.29,3.72-1.56,5.53-2.44,7.94-3.84,18.24.12,27.59-.48,4.57-.29,8.92-1.7,13.47-2.18s9.84.26,12.31,3.2c2-1.6,4.22-3.27,7-3.84s6.42.5,6.94,2.69l27.07.31c-.39,1.45,1.61,2.51,3.16,3.38,2.89,1.61,6.27,6.48,7.34,9.09,2,4.83-1,7.9,2.24,12.34,2.88,4,4.6,8,1.47,11.89-4.95,1.17-6.41-1.22-11.36-.05-2.61.62-3.71,4.73-6.34,5.29-9.12,2-17.54-1.37-27-.8-10.51.64-23.14,4.68-30.66-.92-5.07,4.76-14.64,4.46-22.37,2.91s-15.92-3.9-23.46-1.82c-5.14,1.42-9.74,4.85-15.14,4.29-2.41-.25-4.52-1.29-6.71-2.09-9.09-3.34-20.54-2.62-28.85,1.81l-16.65-3.08a43.12,43.12,0,0,0-8.18-1c-2.39,0-4.71,2.33-7.05,2.71-3.87.62-9.81-2.62-13.72-2.16-7,.84-12.09,4.06-19.19,4.39-6.65.3-15.23-1.45-16.69-6.39-3.83,7.26-18.77,9-25.18,3-7.46,4.4-18,.67-27.33.05-5.73-.39-11.47.5-17.21.88a98.35,98.35,0,0,1-22-1c-3.61,3.56-10.46,3.84-16.3,3.38-5-.4-7-1.13-11.88-2.12-5.4,1.18-16.73,1.12-14.64-2.86-2-2-.81-9.53-.06-12,1.74-5.66,5.48-11.34,7.22-17,3-9.78,11.05-9,22.17-8.3,6.31.38,12.63,2.7,18.93,3.13C103.68,172.2,117.43,172.53,118.9,171.4Z" fill="#3a3934" stroke="#262521" stroke-linecap="round" stroke-linejoin="round" stroke-width="3"/><path d="M336.78,277.41c-2.24,2.4-5.82,4.91-8.23,2.69-.82-.75-8,.32-9.14.55-10.24,2.06-18.33-1.81-23.42-.58-2.7.66-11.39,3-13.7,3.21a15,15,0,0,1-5-.8c-7.35-2-14.88.61-22.45.34-9.29-.33-18.64-3.09-27.7-.84-1.79.45-4,5-10.81,0-6.55-4.81-8.63,3.77-16.42,1.34a49,49,0,0,0-9.61-.51c-1.51.29-12-.36-18.68.21-3.27.27-7-2.43-10.27-2s-15.49,11.06-24.51,4.81c-6.45-.13-14.15-5.78-15.27-6.65-2.07-1.62-4.5-6.5-5.27-9.12-1.44-4.84,4.65-7.9,2.35-12.35-2.07-4-3.31-8-1.09-11.89,3.53-1.15,5.13-6,8.66-4.83,11.38,3.77,14.51-4.06,21.24-4.61,7.51-.6,8.09-1,13.48,4.61,3.6-4.74,8.31,1.69,13.84,3.27s11.81-5.17,17.2-7.22c3.66-1.4,8.08-.21,11.94.37,1.73.26,3.24,1.3,4.81,2.11,6.5,3.37,12.36-.93,20.61-1.71S245.14,242,247.12,242c1.7,0,7.49-3.13,9.16-3.49,2.76-.61,2.89,3.46,5.68,3,5-.81,8.62-4,13.7-4.32,4.75-.28,10.89,1.5,11.95,6.45,2.71-7.24,13.38-8.95,18-2.88,5.31-4.38,12.84-.61,19.53.05,8.62,2.23,22.82-3.2,27-2.72,3.59.41,11.69.85,15.17,1.86,3.86-1.16,12-1.06,10.48,2.91,1.46,2,.61,9.53.08,12-1.22,5.65,3.81,13.86,2.59,19.51-2.12,9.77-7.87,8.94-15.82,8.22-4.5-.4-9-2.74-13.54-3.2C349.33,279.21,337.82,276.29,336.78,277.41Z" fill="#3a3934" stroke="#262521" stroke-linecap="round" stroke-linejoin="round" stroke-width="3"/><path d="M463.33,294.38c1.24-4.06-6.9-3.66-10.7-2.25-3.56-.8-13,3.45-16.59,3.27a157.22,157.22,0,0,1-19.82-2.77c-6.75-.25-24.57-.3-25.5,4.13-.73,3.45-12.83-3-14.87,1s2.09,7,2.34,7.75a9.23,9.23,0,0,1-.07,4.55c-.25,1.36-.5,3,1,3.75,1.16.6,1.32,12.86,3.21,12.34.59-.16.11,6.18,1.09,7.24.74.8,5.79,1,6.22,2a105.41,105.41,0,0,0,14.56-2.67c1.16-.3,8.25,1.86,9.12,2.56,2.55,2.06,12.45-1.68,14.55-4.22,1-1.18,9.3,4.52,11.08,4.59,4.55.17,7.52-5.17,12.07-5,8,.22,15.18,7.26,17-5,.43-3-2.85-8.32-4.06-11.87-1.11-3.24,2.32-8.16,2.74-10.88C467,300.41,464.92,296.25,463.33,294.38Z" fill="#3a3934" stroke="#262521" stroke-linecap="round" stroke-linejoin="round" stroke-width="3"/><path d="M156.42,383.73c2.25-2.4,12.36-5.53,14.78-3.31.83.76,7.77,3.35,9,3.11,10.29-2,15.73-1.35,20.86-2.58,2.71-.65,12.69.62,15,.44,1.69-.14,8.16-4.73,9.81-4.29,7.38,2,9.24,4.8,16.85,5.07A99.41,99.41,0,0,0,270.24,379c1.8-.45,7.17-3.71,14,1.25,6.6,4.8,8.88-6.79,16.71-4.37,1.27.4,5.08,2.52,6.39,2.27,1.51-.28,12,3.37,18.68,2.8,3.29-.28,7.17-4,10.44-4.48s15.58-7.62,24.65-1.37c6.49.13,12.53-1,15.33,2.73s1.18,10.83,2,13.45c.85,2.87,1.05,9.46.58,15.2-.31,3.92.58,8.05-.32,9.63-3.56,1.15-3.32,5-6.87,3.83-11.44-3.76-9.49,2.31-16.26,2.85-7.56.6-15.89-2.05-18.67-2.84s-8.39,1.94-13.95.37a30,30,0,0,0-17.84,1c-3.69,1.4-7.56,2.8-11.44,2.23-1.74-.26-3.26-1.3-4.84-2.12-6.54-3.37-10.12-2.25-18.42-1.48s-15.46,1.94-17.46,1.95c-1.71,0-11.85-2.9-13.52-2.53-2.78.61-1.12,4.16-3.93,4.61-5.05.82-8.87-.49-14-.19-4.78.28-11-1.5-12-6.44-2.72,7.24-16.88-1.48-18.08,2.88s-19,3.21-25.71,2.55a157.15,157.15,0,0,0-19.61-4c-3.61-.41-13.26,3.26-16.76,2.25-3.88,1.16-12,1.06-10.54-2.91-1.48-2-3.3-6.25-2.77-8.69.59-2.69,4.31-7.39,3.41-10.69-1-3.62-3.94-9.14-3.32-12.1,2.53-12.1,9.24-4.63,17.24-3.91,4.53.41,7.82-4.74,12.35-4.29C147.41,378.65,155.37,384.85,156.42,383.73Z" fill="#3a3934" stroke="#262521" stroke-linecap="round" stroke-linejoin="round" stroke-width="3"/><path d="M156.07,312.08c2.23-2.4,9.46-2.5,11.87-.29.82.76,8-.31,9.14-.54,10.24-2.06,13.95,1.94,19,.71,2.7-.65,11.45-3.3,13.76-3.48,1.68-.13,9.81,3.37,11.45,3.81,7.34,2,15.31-6.41,22.88-6.14,9.3.33,16.06,6,25.12,3.76,1.79-.44,4-5,10.81,0,6.55,4.8,8.2,0,16,2.38,1.26.4,12.9-5.9,14.2-6.14,1.5-.28,7.86,3.29,14.53,2.72,3.27-.28,11,.57,14.25.11s12.42,1.37,20.53-3,11.31,3.82,12.42,4.69c2.07,1.62,4.51,8.84,5.29,11.45,1.44,4.84,1,20.35-1.26,24.25-3.54,1.15-7.35,6.89-10.88,5.72-11.38-3.77-9.46,2.8-16.19,3.34-7.51.61-8.09,1-13.48-4.6-3.6,4.74-8.31-1.69-13.84-3.27s-11.29-.28-16.67,1.77c-3.67,1.4-8.61,5.66-12.47,5.08-1.73-.26-7.79,2.17-9.35,1.36-6.51-3.37-7.82-2.54-16.07-1.77s-15.78-4.16-17.76-4.15c-1.71,0-7.49,3.12-9.16,3.49-2.76.61-2.89-3.46-5.68-3-5,.81-8.62,4-13.7,4.32-4.75.27-25.33,2.5-29.93-3.57-5.31,4.38-16.07,4.63-22.76,4-8.62-2.22-19.6-.83-23.78-1.31-3.59-.41-11.69-.84-15.17-1.85-3.86,1.16-12,1.06-10.48-2.92-.67-.9-3.23-10.46-2.61-15.74.73-6.21,4.77-8.39,5.43-11.44,2.12-9.78-2.75-12.79,5.2-12.07,4.51.41,13.81,6.53,18.32,7C146.81,316.92,155,313.21,156.07,312.08Z" fill="#3a3934" stroke="#262521" stroke-linecap="round" stroke-linejoin="round" stroke-width="3"/><path d="M468,354.85c-1.1-.83-4.14-8.41-12.33-4.55s-17.32,2-20.58,2.37-11-.55-14.24-.35c-6.68.41-13-3-14.48-2.77-1.3.2-13.06,5.82-14.31,5.43a15.7,15.7,0,0,0-5.18-.74,9.17,9.17,0,0,0-1.81,3.47c-.55,2.23.53,3.61,1.48,5.54.62,1.26,1.33,3,.27,4.18s-3,1.49-3.39,3.27c-.3,1.52,2.13,3,3.06,4a5,5,0,0,1,1.69,3.5,14.77,14.77,0,0,1-1.18,5,10.05,10.05,0,0,1-.81,1.91,23,23,0,0,1-1.54,1.88c-.21.26-.81.86-.75,1.22s.55.54.74.68a7.3,7.3,0,0,1,1.77,1.54,7.22,7.22,0,0,1,1,3.41,1.23,1.23,0,0,1,.28,0c3.85.6,8.88-3.25,12.57-4.48,5.42-1.8,11.21-2.89,16.7-1.34s10.08,7.58,13.77,3.26c5.29,5.3,5.87,4.92,13.39,4.5,6.74-.39,4.95-6.5,16.25-2.81,3.51,1.14,9.95-9.61,6.53-18.37C465.94,372.3,470,356.39,468,354.85Z" fill="#3a3934" stroke="#262521" stroke-linecap="round" stroke-linejoin="round" stroke-width="3"/></svg>