<svg xmlns="http://www.w3.org/2000/svg" width="500" height="550" viewBox="0 0 500 550"><path d="M467.36 170.44c-22.24-32.92-75.74-84.54-92.64-94.14S294.07 49 294.07 49c-48.16 30.16-87.35 0-87.35 0s-66.91 17.62-83.34 28.88-90.84 87.42-90.84 94.26 53.44 56.43 62.85 56 35.49-17.11 35.91-12.83c3 106.81 3.39 245.74 2.36 250.07-1.82 7.65-1.09 17.66 3.64 18.54s42.22-7.43 57.87-4.15 176.13 4.51 179.41 2.33c2-1.32.68-149.85-3.54-267.22-.31-8.55 22.75 18 31.33 12.83 7.63-4.59 67.91-52.94 64.99-57.27z" fill="#262521" stroke="#262521" stroke-linecap="round" stroke-linejoin="round" stroke-width="3"/><path d="M372 210s-1-15.7-1-25.51-6.46-19.13-4.36-37.34l4.38-3.1m-240.6 68.69s1.68-50.44.88-53.77m75.42-107.46s4 48.55 43.68 46.73 43.67-46.73 43.67-46.73" fill="none" stroke="#636363" stroke-linecap="round" stroke-linejoin="round"/></svg>