<svg xmlns="http://www.w3.org/2000/svg" width="500" height="550" viewBox="0 0 500 550"><path d="M372.14 291.55q-.27 61.74-.62 123.47c-.81 9-2.21 42.49-5 51.07-.59 1.77-2 1.67-3.35 1.44-44.59-7.74-101.66-5.72-146.65-2.92-24.6.57-58.62-1.68-83 2.09-5.23.59-5.68.27-6.62-4.83-1.35-11.26-.86-123.68-3.07-170.84-1.42 2.83-2.94 5.6-4.29 8.46-2.37 10.67-17.5 9.3-11.81 16.18 11.11 7.95 6.41 21.38 5.15 32.56-.25 3.15-1.35 6.27-.37 9.58.51 8.44-3.19 16.94-4.38 25.31-1.5 8-2.61 15.83-1.54 23.93a5.1 5.1 0 01-1.13 3.3c-5.71 6.28-7.75 14-9.19 22.06-.57 3.18-.61 3-3.74 2-12.38-3.52-26.09-4.38-38.6-1.18-1.39.34-2.11 0-2.41-1.47-2-7.76-2.18-16.67-8.49-22.43a6.62 6.62 0 01-1.33-3.22 144.46 144.46 0 01-2.7-33.25c-1.91-63 2.6-126.93 26.19-186 13.61-35.43 24.56-73.32 48.07-103.67 27.32-18.2 42.2-17.85 72.63-28.88 26 44.54 65.32 51.34 65.81 51.88 12.69-2.58 63.32-50.76 67-49.23 29.12 10.5 33.87 6.09 60.26 23.26 15.94 14.59 21.63 38 30.45 57.21 27.81 67.48 58 137.39 51.05 212.08-1.19 18.65-.23 37.45-3.28 55.95-.49 4.66-5.21 7.09-5.56 11.78-1.22 5.28-2.08 10.65-2.91 16-.4 2.6-.41 2.83-3.08 2.33-12.48-2.66-25.26-5.49-37.8-1.58-8.34-.15-8.13-15.56-11.44-21.4-6.28-7.37-3.61-9-5.33-17.64-.9-9.7-4.68-20.27.79-29.26 2-3.53 1.86-7.05.51-10.66-4.9-11.28-7.4-23.41-10.45-35.29-1.07-4.3-1.31-8.49 1.61-12.34 1.51-7.23-10.43-8.68-10.93-15.93z" fill="#262521" stroke="#262521" stroke-linecap="round" stroke-linejoin="round" stroke-width="3"/><path fill="#262521" d="M181.19 58.54l20.28-19.71 103.61-2.25 13.58 20.37-65.95 46.1-71.52-44.51z"/><path d="M310.78 56.83l-19-5.48c-48.16 30.16-87.35 0-87.35 0l-19.77 5.46 69 58.54 63-57z" fill="#fff" stroke="#636363" stroke-linecap="round" stroke-linejoin="round"/><path d="M204.44 51.35s4 48.55 43.68 46.73 43.67-46.73 43.67-46.73" fill="none" stroke="#636363" stroke-linecap="round" stroke-linejoin="round" opacity=".95"/><path fill="#fff" d="M301.75 73.55h12.11v389.7h-12.11zm20.77-7.61h13.97v397.3h-13.97zm44.36 397.3l-1.82 4.32L347.6 465V65.46l19.28 8.09v389.69z"/><path d="M336 56.68s-4.8-9.72-5-9.34c-1.65 3.83-8.5 14.8-23.61 31.26-.84 1 15.5-7.36 18.36-8.44C331 65.46 336 56.68 336 56.68z" fill="#fff"/><path d="M252.71 103.05c-10.71 0-60.3-41.85-61.67-48s9-7.59 16.56-9c16.21-3 67.31-4.92 82.68-2.58 9.26 1.41 23.26 3.73 20 12.79-2.5 7.07-46.85 46.79-57.57 46.79zm85.39-44.62c-5.35-3.37-4.85-8.67-6.86-12.68s-8.35 1-8.35 1-6.52-9.53-10.7-14.77-55.67 1.23-55.67 1.23h-6c-10.95-1.37-57.91-4.79-63.07 2.3-5.85 8-7.19 8-7.19 8s-4.85-4.85-8.69 0S150.55 61 153.89 67.32C184.67 71 243 121.5 253.68 121.5c6.05 0 31.76-30.79 63-47.24 14.78-7.78 26.77-8.37 28.26-8.82 5.06-1.5-1.49-3.64-6.84-7.01z" fill="#262521" stroke="#262521" stroke-linecap="round" stroke-linejoin="round" stroke-width="3"/><path d="M156.08 68.23c18-2.15 89.27 53.27 97.6 53.27s44.52-48.7 87.68-55.56" fill="none" stroke="#636363" stroke-linecap="round" stroke-linejoin="round" opacity=".95"/><path d="M223.66 100q1.88 26.51 2.5 53.09t0 53.41q-.35 15-1.11 30c-.09 1.93 2.91 1.92 3 0q1.34-26.55 1.42-53.14T228.38 130q-.66-15-1.72-30c-.13-1.92-3.13-1.93-3 0z" fill="#636363"/><path d="M227.25 222.21A2.46 2.46 0 00225 224a2.59 2.59 0 00.63 2.61 2.66 2.66 0 003.16.27 2.78 2.78 0 001.38-2.75 3 3 0 00-.76-1.61 3.32 3.32 0 00-1.35-.89 3.17 3.17 0 00-2.86.4 3.85 3.85 0 00-1.63 2.4 4 4 0 000 1.61 3.2 3.2 0 00.72 1.39 2.59 2.59 0 003.31.55 2.49 2.49 0 001-3.36 1.58 1.58 0 00-.9-.69 1.49 1.49 0 00-1.69 2.2l.06.12-.15-.36a.72.72 0 010 .21v-.4.16-.4a1 1 0 01-.06.25l.15-.36a1 1 0 01-.16.26l.24-.3a1.61 1.61 0 01-.23.22l.31-.23a2 2 0 01-.32.18l.36-.15a1.25 1.25 0 01-.26.07l.39-.05h-.27l.4.05a1.34 1.34 0 01-.27-.07l.36.15a2.07 2.07 0 01-.25-.15l.31.23a1.72 1.72 0 01-.27-.27l.23.31a2.08 2.08 0 01-.22-.38l.16.35a2 2 0 01-.14-.53l.05.4a2.62 2.62 0 010-.56l-.05.4a2.73 2.73 0 01.15-.56l-.15.36a2.11 2.11 0 01.31-.52l-.24.3a3.42 3.42 0 01.42-.43l-.3.24a2.18 2.18 0 01.46-.28l-.35.15a2.42 2.42 0 01.46-.13l-.4.06a1.55 1.55 0 01.43 0l-.4-.06a2 2 0 01.42.11l-.36-.15a2.86 2.86 0 01.42.24l-.31-.23a1.77 1.77 0 01.31.3l-.24-.31a1.93 1.93 0 01.22.36l-.16-.36a1.48 1.48 0 01.1.36v-.4a1.5 1.5 0 010 .3v-.4a1.09 1.09 0 01-.08.31l.15-.35a1.24 1.24 0 01-.17.27l.24-.3a1.66 1.66 0 01-.27.26l.31-.23a2.07 2.07 0 01-.32.19l.36-.15a2.3 2.3 0 01-.35.1l.39-.06a1.06 1.06 0 01-.31 0l.4.05a1.25 1.25 0 01-.26-.07l.36.15a1.18 1.18 0 01-.19-.11l.3.23a.61.61 0 01-.16-.16l.23.31a.78.78 0 01-.11-.2l.15.36a1 1 0 01-.08-.3l.05.4a1.6 1.6 0 010-.31l-.05.4a1.31 1.31 0 01.09-.34l-.15.36a1.43 1.43 0 01.15-.27l-.24.31.18-.19-.3.24a.72.72 0 01.19-.11l-.36.15.18-.05-.4.06h.12a1.5 1.5 0 000-3zm48.49-124.08c1.24 17.65 1.49 35.36 1.51 53.05s-.2 35.44.13 53.16c.19 10.12.56 20.23 1.24 30.33.13 1.91 3.13 1.93 3 0-1.19-17.76-1.42-35.56-1.43-53.35s.2-35.39-.15-53.09c-.21-10-.6-20.08-1.3-30.1-.13-1.92-3.13-1.93-3 0z" fill="#636363"/><path d="M280.33 220.33a2.46 2.46 0 00-2.31 1.83 2.6 2.6 0 00.64 2.6 2.66 2.66 0 003.16.28 2.8 2.8 0 001.38-2.76 3.06 3.06 0 00-.76-1.61 3.32 3.32 0 00-1.35-.89 3.17 3.17 0 00-2.86.4 3.85 3.85 0 00-1.63 2.4 4 4 0 000 1.61 3.23 3.23 0 00.72 1.4 2.6 2.6 0 003.31.54 2.48 2.48 0 001-3.36 1.5 1.5 0 00-2-.54 1.53 1.53 0 00-.54 2.06.41.41 0 01.07.11l-.15-.35a1.17 1.17 0 010 .2v-.4.15-.39a1.05 1.05 0 01-.06.24l.15-.36a1.13 1.13 0 01-.16.26l.24-.3a1.58 1.58 0 01-.23.22l.3-.23a1.39 1.39 0 01-.31.18l.36-.15a.9.9 0 01-.27.07l.4-.05h-.27l.4.06a1.38 1.38 0 01-.27-.08l.36.15a1.28 1.28 0 01-.25-.15l.3.24a1.72 1.72 0 01-.27-.27l.24.3a2.08 2.08 0 01-.22-.38l.15.36a2.52 2.52 0 01-.14-.54l.06.4a2.62 2.62 0 010-.56l-.05.4a2.21 2.21 0 01.15-.56l-.15.36a2.7 2.7 0 01.3-.52l-.23.3a2.44 2.44 0 01.42-.43l-.3.24a2.69 2.69 0 01.46-.28l-.36.15a1.91 1.91 0 01.47-.12l-.4.05a1.55 1.55 0 01.43 0l-.4-.06a2.21 2.21 0 01.42.12l-.36-.15a1.69 1.69 0 01.41.24l-.3-.24a2.13 2.13 0 01.3.3l-.23-.3a1.31 1.31 0 01.21.36l-.15-.36a1.4 1.4 0 01.1.35l-.06-.4a1 1 0 010 .3v-.39a1.21 1.21 0 01-.09.31l.16-.36a1.61 1.61 0 01-.17.28l.24-.31a1.72 1.72 0 01-.27.27l.31-.24a1.5 1.5 0 01-.32.19l.35-.15a1.29 1.29 0 01-.35.1h.4-.31.4a.77.77 0 01-.26-.07l.36.15a1 1 0 01-.2-.11l.31.24a1.29 1.29 0 01-.17-.16l.24.3a.82.82 0 01-.12-.2l.15.36a1.37 1.37 0 01-.07-.29l.05.4a1.71 1.71 0 010-.32l-.05.4a1.07 1.07 0 01.09-.34l-.16.36a2.2 2.2 0 01.15-.26l-.23.3a.77.77 0 01.18-.18l-.3.23a1.18 1.18 0 01.19-.11l-.36.15h.18l-.4.05h.12a1.52 1.52 0 001.5-1.5 1.54 1.54 0 00-1.5-1.5z" fill="#636363"/><path d="M318.66 57c29.12 10.5 33.87 6.09 60.26 23.26M371.52 415c-.81 9-2.21 42.49-5 51.07-.59 1.77-2 1.67-3.35 1.44-25.77-4.47-55.71-5.69-85.07-5.37" fill="none" stroke="#262521" stroke-linecap="round" stroke-linejoin="round" stroke-width="3"/></svg>