<svg xmlns="http://www.w3.org/2000/svg" width="500" height="550" viewBox="0 0 500 550"><path d="M372.14 295.65q-.27 61.74-.62 123.46c-.81 9-2.68 16.41-3.55 25.45-1 10.07 1.34 17-1.5 25.63-.59 1.77-2 1.67-3.35 1.43-44.59-7.73-101.66-5.71-146.65-2.92-24.6.58-58.62-1.67-83 2.09-5.23.6-5.68.28-6.62-4.82-1.35-11.26 1.94-18.53.53-29.31-6.15-46.82-1.39-94.38-3.6-141.53-1.42 2.82-2.94 5.6-4.29 8.45-2.37 10.68-17.5 9.3-11.81 16.19 11.11 8 6.41 21.38 5.15 32.56-.25 3.15-1.35 6.27-.37 9.58.51 8.43-3.19 16.94-4.38 25.31-1.5 8-10.42 41.27-11.86 49.29-.57 3.17-.61 3-3.74 2.05-12.38-3.52-26.09-4.38-38.6-1.19-1.39.35-2.11 0-2.41-1.46-2-7.76.82-16.67-5.49-22.43a6.66 6.66 0 01-1.33-3.22c-2.23-11-6.07-22.12-5.72-33.31-1.91-63 2.6-126.93 26.19-186 13.61-35.44 24.56-73.32 48.07-103.67 27.32-18.2 60-23.76 90.46-34.78a3.13 3.13 0 012.72.43c5 5.55 11.46 8.41 18.56 9.66 19.19 2.43 41.29 5.56 58.65-4.87 2.85-1.28 4.2-6.53 7.87-5 29.12 10.5 61 14.41 87.44 31.59 15.94 14.59 21.63 38 30.45 57.2 27.81 67.49 58 137.4 51.05 212.08-1.19 18.66-.23 37.45-3.28 56-.49 4.66-5.21 7.09-5.56 11.78-1.22 5.28-2.08 10.65-2.91 16-.4 2.6-.41 2.82-3.08 2.32-12.48-2.65-25.26-5.48-37.8-1.58-8.34-.14-8.13-15.55-11.44-21.4-6.28-7.37-3.61-9-5.33-17.63-.9-9.7-4.68-20.27.79-29.27 2-3.53 1.86-7 .51-10.65-4.9-11.29-7.4-23.42-10.45-35.3-1.07-4.3-1.31-8.49 1.61-12.33 1.51-7.24-10.43-8.68-10.93-15.93z" fill="#fff" stroke="#262521" stroke-linecap="round" stroke-linejoin="round" stroke-width="3"/><path d="M204.41 52.37s4 48.55 43.68 46.73 42.84-45.41 42.84-45.41M121.8 184.94s2.11 28.62 0 44.25.11 29.69.11 32.87 1.9 33.07 1.9 33.07m247.52-102.38s-1.25 73.86.81 102.9" fill="none" stroke="#262521" stroke-linecap="round" stroke-linejoin="round" stroke-width="3"/><path d="M51.32 413.6s28.66-9.48 45.15 2.48m305.71 0s25.94-8.31 43.55 0M197.66 62.63c2.77 14.3 15 47.82 50.14 46.21 36.25-1.66 46.89-34.35 49-46.52M133.45 438.85s155.28-12.31 227.71 2.37" fill="none" stroke="#636363" stroke-linecap="round" stroke-linejoin="round"/><path d="M207.42 176.49a7.26 7.26 0 014.31 1.45 3.92 3.92 0 011.41 3.08 4.21 4.21 0 01-1 2.77 4.38 4.38 0 01-2.44 1.53 17.77 17.77 0 01-4 .36h-6.69v-.58h.65a3 3 0 001.52-.28 1.23 1.23 0 00.53-.86 18.25 18.25 0 00.12-2.73v-8.3a18 18 0 00-.12-2.68 1.16 1.16 0 00-.51-.83 3.86 3.86 0 00-1.67-.23h-.33v-.57l2.8-.08 3.2-.1q7 0 7 4a3.31 3.31 0 01-1.2 2.67 7.15 7.15 0 01-3.58 1.38zm-3.09-.24h.53c1.81 0 3-.28 3.71-.85a3.44 3.44 0 001-2.77 4.41 4.41 0 00-.39-2.06 2.67 2.67 0 00-1.17-1.13 6.49 6.49 0 00-2.67-.39h-1zm0 .62v3.8a30.78 30.78 0 00.09 3.08 1.55 1.55 0 00.47 1 2.38 2.38 0 001.52.34 4 4 0 003-1 4.27 4.27 0 001-3.09 4 4 0 00-1.14-3.12 6.19 6.19 0 00-4-1zm25.16 3.5h.61l-.37 5.31H215.6v-.58h.4a2.72 2.72 0 001.65-.34 1.62 1.62 0 00.47-.87 19.33 19.33 0 00.1-2.66v-8.36a19.08 19.08 0 00-.11-2.57 1.18 1.18 0 00-.49-.86 3.46 3.46 0 00-1.62-.25v-.57h12.2l.4 4.25h-.6a6.72 6.72 0 00-1-2.54 2.47 2.47 0 00-1.39-.94 12.13 12.13 0 00-2.59-.2h-2.37v7.16h1.81a5 5 0 001.75-.21 1.1 1.1 0 00.65-.65 5.65 5.65 0 00.16-1.69h.59v5.84H225a5 5 0 00-.24-1.91 1.17 1.17 0 00-.7-.63 5.68 5.68 0 00-1.55-.14h-1.88v4q0 3 .39 3.57t2.1.54h1.27a6.08 6.08 0 002.22-.35 3.89 3.89 0 001.65-1.42 8.24 8.24 0 001.23-2.93zm13.02-.99H236l-.44 1.09a11.1 11.1 0 00-1 3.07 1.35 1.35 0 00.52 1.16 2.2 2.2 0 001.34.4v.58h-5.02v-.58a2.78 2.78 0 001.69-.8 9.82 9.82 0 001.33-2.63c0-.12.24-.61.61-1.46l4.97-11.83h.49l5.7 13.55.78 1.78a2.33 2.33 0 00.71.95 2.64 2.64 0 001.34.44v.58h-6.7v-.58a4.69 4.69 0 001.66-.19.71.71 0 00.44-.72 7.3 7.3 0 00-.58-1.65zm-.21-.56l-3-7.27-3 7.27zm16.81-10.2h5.7v.57a3.08 3.08 0 00-1.69.51 1.75 1.75 0 00-.68 1 10.58 10.58 0 00-.13 2.1v5.67a23 23 0 01-.17 3.24 4.46 4.46 0 01-1 2.07 5.58 5.58 0 01-2.28 1.63 9 9 0 01-3.4.6 8.79 8.79 0 01-3.86-.77 5 5 0 01-2.25-2 6.86 6.86 0 01-.67-3.29v-7.06a17.23 17.23 0 00-.12-2.63 1.16 1.16 0 00-.5-.82 4 4 0 00-1.68-.23H246v-.57h7.78v.57h-.33a4.12 4.12 0 00-1.65.21 1.12 1.12 0 00-.53.78 17 17 0 00-.13 2.69v5.37a21 21 0 00.26 4 3.52 3.52 0 001.45 2.05 5.31 5.31 0 003.19.87 6.69 6.69 0 002.83-.58 4.56 4.56 0 001.9-1.46 4.13 4.13 0 00.76-1.8 20.54 20.54 0 00.14-2.91v-5.82a8.44 8.44 0 00-.16-2 1.56 1.56 0 00-.7-.92 3.81 3.81 0 00-1.72-.42zm7.15 4.1h-.58l.08-4.1h16.56l.09 4.1h-.54a6.59 6.59 0 00-.79-2.44 2.14 2.14 0 00-1.09-.92 8 8 0 00-2-.17h-2.74v12a23.54 23.54 0 00.09 2.63 1.31 1.31 0 00.51.93 2.76 2.76 0 001.56.31h.83v.58h-8.5v-.58h.88a3 3 0 001.51-.28 1.27 1.27 0 00.54-.86 18.25 18.25 0 00.12-2.73v-12h-2.53a10.19 10.19 0 00-2.21.16 2 2 0 00-1.06 1 6.43 6.43 0 00-.73 2.37zm26.94 5.49l3.36-5.64a4.87 4.87 0 00.83-2 1.38 1.38 0 00-.44-1 2.21 2.21 0 00-1.57-.44v-.57H301v.57a3.24 3.24 0 00-1.87.87 14 14 0 00-1.82 2.53l-3.87 6.47v2.26a17.05 17.05 0 00.13 2.78 1.2 1.2 0 00.57.84 4 4 0 001.7.25v.58h-7.27v-.58h.28a3 3 0 001.51-.28 1.27 1.27 0 00.54-.86 20.48 20.48 0 00.11-2.73v-2.1l-4.25-7a17.16 17.16 0 00-1.72-2.52 2.35 2.35 0 00-1.54-.44v-.57h6.92v.57c-1.29 0-1.94.3-1.94.88a3.86 3.86 0 00.64 1.41zm-39.08 28.31h8.29v.89a6.7 6.7 0 00-2.75 1.51 12.09 12.09 0 00-2.4 4.09 17.62 17.62 0 01-1.92 3.64 15.26 15.26 0 003.26 3.76 4.48 4.48 0 002.51.79 3.08 3.08 0 002.81-1.72h.89a4.46 4.46 0 01-1.74 2.57 5 5 0 01-3.06 1q-3.78 0-6.64-3.79c-2.26 2.53-4.67 3.79-7.21 3.79a6.92 6.92 0 01-2.71-.5 7.67 7.67 0 01-2.39-1.48 7.59 7.59 0 01-1.68-2.29 6.16 6.16 0 01-.6-2.91 6.37 6.37 0 011.32-4.09 24 24 0 015.09-4.19 10.14 10.14 0 01-2.27-5.71 5 5 0 011.55-3.58 5.18 5.18 0 013.9-1.59 6.35 6.35 0 013.77 1.18 3.64 3.64 0 011.69 3.1q0 3-5.58 5.79 1.74 2.34 3.36 4.59t3.15 4.44a13.7 13.7 0 001.74-3.2 7.65 7.65 0 00.64-2.59c0-1.49-1-2.35-3-2.58zm-8.35 1.84a10.31 10.31 0 00-3.12 2.9 5.9 5.9 0 00-1.1 3.2 6.6 6.6 0 001.92 4.51 5.75 5.75 0 004.34 2.12 6.59 6.59 0 005-2.66c-1.37-2.08-2.63-4-3.79-5.63s-2.27-3.15-3.25-4.44zm1.94-2.35q3.87-2.26 3.87-4.9a4.32 4.32 0 00-.22-1.42 3.2 3.2 0 00-.64-1.11 2.88 2.88 0 00-1-.72 3.11 3.11 0 00-1.28-.25 2.85 2.85 0 00-2.24.93 3.24 3.24 0 00-.84 2.3c0 1.27.79 2.99 2.35 5.16z" fill="#42413b"/></svg>