<svg xmlns="http://www.w3.org/2000/svg" width="500" height="550" viewBox="0 0 500 550"><path d="M372.14 291.55q-.27 61.74-.62 123.47c-.81 9-2.68 16.4-3.55 25.44-1 10.07 1.34 17-1.5 25.63-.59 1.77-2 1.67-3.35 1.44-44.59-7.74-101.66-5.72-146.65-2.93-24.6.58-58.62-1.67-83 2.09-5.23.6-5.68.28-6.62-4.82-1.35-11.26 1.44-20 0-30.81-6.15-46.82-.89-92.88-3.1-140-1.42 2.82-2.94 5.6-4.29 8.46-2.37 10.67-17.5 9.3-11.81 16.18 11.11 7.95 6.41 21.38 5.15 32.56-.25 3.15-1.35 6.27-.37 9.58.51 8.43-3.19 16.94-4.38 25.31-1.5 8-2.61 15.83-1.54 23.93a5.1 5.1 0 01-1.13 3.3c-5.71 6.28-7.75 14-9.19 22.06-.57 3.18-.61 3-3.74 2-12.38-3.52-26.09-4.38-38.6-1.18-1.39.34-2.11 0-2.41-1.47-2-7.76-2.18-16.67-8.49-22.43a6.66 6.66 0 01-1.33-3.22A144.46 144.46 0 0139 372.86c-1.91-63 2.6-126.93 26.19-186 13.61-35.43 24.56-73.32 48.07-103.67 27.32-18.2 60-23.76 90.46-34.78a3.16 3.16 0 012.72.43c5 5.55 11.46 8.41 18.56 9.67 19.19 2.43 41.29 5.55 58.65-4.88 2.85-1.27 4.2-6.53 7.87-5 29.12 10.49 61 14.4 87.44 31.58 15.94 14.59 21.63 38 30.45 57.21 27.81 67.48 58 137.39 51.05 212.07-1.19 18.66-.23 37.46-3.28 56-.49 4.66-5.21 7.09-5.56 11.78-1.22 5.28-2.08 10.65-2.91 16-.4 2.6-.41 2.83-3.08 2.33-12.48-2.66-25.26-5.49-37.8-1.58-8.34-.15-8.13-15.56-11.44-21.41-6.28-7.36-3.61-9-5.33-17.63-.9-9.7-4.68-20.27.79-29.26 2-3.53 1.86-7.05.51-10.66-4.9-11.29-7.4-23.42-10.45-35.29-1.07-4.31-1.31-8.5 1.61-12.34 1.49-7.15-10.43-8.7-10.93-15.93z" fill="#302f2d" stroke="#262521" stroke-linecap="round" stroke-linejoin="round" stroke-width="3"/><circle cx="442.97" cy="419.27" r="2.65" fill="none" stroke="#9d9d9d" stroke-linecap="round" stroke-linejoin="round"/><circle cx="445.63" cy="399.76" r="2.65" fill="none" stroke="#9d9d9d" stroke-linecap="round" stroke-linejoin="round"/><circle cx="456.08" cy="400.88" r="2.65" fill="none" stroke="#9d9d9d" stroke-linecap="round" stroke-linejoin="round"/><circle cx="448.94" cy="381.06" r="2.65" fill="none" stroke="#9d9d9d" stroke-linecap="round" stroke-linejoin="round"/><path d="M459.89 379.53a2.65 2.65 0 000 5.3" fill="none" stroke="#9d9d9d" stroke-linecap="round" stroke-linejoin="round"/><circle cx="448.85" cy="363.25" r="2.65" fill="none" stroke="#9d9d9d" stroke-linecap="round" stroke-linejoin="round"/><path d="M460.49 360.59a2.66 2.66 0 000 5.31" fill="none" stroke="#9d9d9d" stroke-linecap="round" stroke-linejoin="round"/><circle cx="450.08" cy="343.35" r="2.65" fill="none" stroke="#9d9d9d" stroke-linecap="round" stroke-linejoin="round"/><circle cx="450.98" cy="324.15" r="2.65" fill="none" stroke="#9d9d9d" stroke-linecap="round" stroke-linejoin="round"/><circle cx="450.98" cy="301.7" r="2.65" fill="none" stroke="#9d9d9d" stroke-linecap="round" stroke-linejoin="round"/><circle cx="447.07" cy="279.24" r="2.65" fill="none" stroke="#9d9d9d" stroke-linecap="round" stroke-linejoin="round"/><circle cx="443.53" cy="257.28" r="2.65" fill="none" stroke="#9d9d9d" stroke-linecap="round" stroke-linejoin="round"/><circle cx="438.55" cy="235.81" r="2.65" fill="none" stroke="#9d9d9d" stroke-linecap="round" stroke-linejoin="round"/><circle cx="433.24" cy="214.51" r="2.65" fill="none" stroke="#9d9d9d" stroke-linecap="round" stroke-linejoin="round"/><circle cx="427.17" cy="193.8" r="2.65" fill="none" stroke="#9d9d9d" stroke-linecap="round" stroke-linejoin="round"/><circle cx="419.99" cy="172.48" r="2.65" fill="none" stroke="#9d9d9d" stroke-linecap="round" stroke-linejoin="round"/><circle cx="412.07" cy="149.03" r="2.65" fill="none" stroke="#9d9d9d" stroke-linecap="round" stroke-linejoin="round"/><circle cx="402.94" cy="124.91" r="2.65" fill="none" stroke="#9d9d9d" stroke-linecap="round" stroke-linejoin="round"/><circle cx="393.28" cy="103.79" r="2.65" fill="none" stroke="#9d9d9d" stroke-linecap="round" stroke-linejoin="round"/><circle cx="381.01" cy="85.78" r="2.65" fill="none" stroke="#9d9d9d" stroke-linecap="round" stroke-linejoin="round"/><path d="M364.05 73.93a2.65 2.65 0 004.59 2.65m-24.48-10.79a2.65 2.65 0 004.95 1.32m112.61 273.58a2.66 2.66 0 100 5.31" fill="none" stroke="#9d9d9d" stroke-linecap="round" stroke-linejoin="round"/><circle cx="57.03" cy="419.27" r="2.65" fill="none" stroke="#9d9d9d" stroke-linecap="round" stroke-linejoin="round"/><circle cx="52.86" cy="399.76" r="2.65" fill="none" stroke="#9d9d9d" stroke-linecap="round" stroke-linejoin="round"/><circle cx="42.41" cy="400.88" r="2.65" fill="none" stroke="#9d9d9d" stroke-linecap="round" stroke-linejoin="round"/><circle cx="50.33" cy="381.06" r="2.65" fill="none" stroke="#9d9d9d" stroke-linecap="round" stroke-linejoin="round"/><path d="M39.37 379.53a2.65 2.65 0 110 5.3" fill="none" stroke="#9d9d9d" stroke-linecap="round" stroke-linejoin="round"/><circle cx="50.21" cy="363.25" r="2.65" fill="none" stroke="#9d9d9d" stroke-linecap="round" stroke-linejoin="round"/><path d="M38.57 360.59a2.66 2.66 0 010 5.31" fill="none" stroke="#9d9d9d" stroke-linecap="round" stroke-linejoin="round"/><circle cx="49.23" cy="343.35" r="2.65" fill="none" stroke="#9d9d9d" stroke-linecap="round" stroke-linejoin="round"/><circle cx="49.2" cy="324.15" r="2.65" fill="none" stroke="#9d9d9d" stroke-linecap="round" stroke-linejoin="round"/><circle cx="49.23" cy="301.7" r="2.65" fill="none" stroke="#9d9d9d" stroke-linecap="round" stroke-linejoin="round"/><circle cx="50.46" cy="279.24" r="2.65" fill="none" stroke="#9d9d9d" stroke-linecap="round" stroke-linejoin="round"/><circle cx="52.61" cy="257.28" r="2.65" fill="none" stroke="#9d9d9d" stroke-linecap="round" stroke-linejoin="round"/><circle cx="56.32" cy="235.81" r="2.65" fill="none" stroke="#9d9d9d" stroke-linecap="round" stroke-linejoin="round"/><circle cx="61.63" cy="214.51" r="2.65" fill="none" stroke="#9d9d9d" stroke-linecap="round" stroke-linejoin="round"/><circle cx="67.71" cy="193.8" r="2.65" fill="none" stroke="#9d9d9d" stroke-linecap="round" stroke-linejoin="round"/><circle cx="74.88" cy="172.48" r="2.65" fill="none" stroke="#9d9d9d" stroke-linecap="round" stroke-linejoin="round"/><circle cx="82.81" cy="149.03" r="2.65" fill="none" stroke="#9d9d9d" stroke-linecap="round" stroke-linejoin="round"/><circle cx="91.93" cy="124.91" r="2.65" fill="none" stroke="#9d9d9d" stroke-linecap="round" stroke-linejoin="round"/><circle cx="101.6" cy="103.79" r="2.65" fill="none" stroke="#9d9d9d" stroke-linecap="round" stroke-linejoin="round"/><circle cx="113.86" cy="85.78" r="2.65" fill="none" stroke="#9d9d9d" stroke-linecap="round" stroke-linejoin="round"/><path d="M130.83 73.93a2.65 2.65 0 01-4.6 2.65m24.49-10.79a2.66 2.66 0 01-5 1.32M37.59 340.69a2.66 2.66 0 010 5.31" fill="none" stroke="#9d9d9d" stroke-linecap="round" stroke-linejoin="round"/><path d="M119.52 299.49c1.35-2.86 2.87-5.64 4.29-8.46.3 6.49-3.12-88-1.75-105.13 1.09-13.59 33.41-92.64 78.87-107.59-7.72-15.09-9.06-25.56-9.06-25.56-5.42 2.63-48.72 18.85-71.24 35.44-23.5 30.35-30.78 65.56-44.38 101-23.59 59.07-20.17 121.27-19.66 184-.35 11.19 5.4 38.21 9.36 57.79 3.44 0 11.16-1 28.77 4.16 1.85-15 11.86-27.61 11.85-28.05-1.07-8.1 0-16 1.54-23.93 1.19-8.37 4.89-16.88 4.38-25.31-1-3.31.12-6.43.37-9.58 1.26-11.18 6-24.61-5.15-32.56-5.71-6.92 9.44-5.55 11.81-16.22zM401.11 144.7c-8.82-19.22-18.5-46.49-31.23-56.17S311.83 56 305.54 53.26c0 0-.5 10.53-8.16 24.46 34.24 23.63 65.69 60.78 75.2 110.94 3.33 25.67-.51 119.14-.44 102.89l.41-.08c.5 7.23 12.42 8.78 10.93 15.93-2.92 3.84-2.68 8-1.61 12.34 3.05 11.87 5.55 24 10.45 35.29 1.35 3.61 1.5 7.13-.51 10.66-5.47 9-1.69 19.56-.79 29.26 1.24 6.23.21 8.81 1.85 12.49.26.56 7.13 25.56 14.92 26.56 9.53-5.2 23-1.57 23-1.57 3.69-.05 10.15-67.32 11.34-86 6.97-74.67-13.2-134.25-41.02-201.73z" fill="#262521"/><path d="M204.65 51.38c.8-.26 4.44 39.77 42.44 41.81s45.37-41.58 45.37-41.58" fill="none" stroke="#636363" stroke-linecap="round" stroke-linejoin="round"/><path d="M192.37 55.44c.81-.26 6.64 49.81 54.72 49.81 52.44 0 58-49.38 58-49.38" fill="none" stroke="#636363" stroke-linecap="round" stroke-linejoin="round"/><path d="M122.06 185.9s2.11 23.56 0 39.19.12 29.69.12 32.87 1.88 33.04 1.88 33.04m248.52-102.34s4.8 47.28-1 75.34l1 27.47" fill="none" stroke="#262521" stroke-linecap="round" stroke-linejoin="round" stroke-width="3"/><path d="M51.32 409.51S80 400 96.47 412m305.71 0s25.94-8.3 43.55 0m-310.85 24s112.62-13.64 225.23 0" fill="none" stroke="#636363" stroke-linecap="round" stroke-linejoin="round"/><path fill="#262521" d="M309.319 356l51.854 1.928-.448 12.032-51.854-1.929z"/><path fill="none" stroke="#636363" stroke-linecap="round" stroke-linejoin="round" d="M308.82 356l52.32 1.95m-.45 12.03l-52.32-1.95"/><path fill="#262521" d="M308.703 372.6l51.854 1.93-1.771 47.626-51.854-1.928z"/><path fill="none" stroke="#494847" stroke-linecap="round" stroke-linejoin="round" d="M308.61 374.21l51.85 1.94m-53.49 42.16l51.85 1.93m-24.28-45.06l22.97 45.01m1.64-44.09l-26.26 43.17m-22.97-45.01l22.97 45.01m1.65-44.09l-26.26 43.18"/><path d="M57 419.27s-10.5-10.13-14.59-18.39m6.98 5.5s-3.63 6.72-3.17 11.51m6.64-18.13s-14.61-11.7-14-18m-.29 15.94s2.38-7 7.61-9.57m4.15-7.07s-12.74-7.73-12.61-18.31M37.59 376a16.07 16.07 0 016.41-6.5m6.21-6.25s-12.4-10.46-12.62-18.88M37 357.7a18.3 18.3 0 016.92-7.78m5.31-7.21s-10.91-6.89-11.64-14.8m-.61 9.7l6.43-5.23m5.79-8.23s-11.51-7.72-11.48-13.84m-.13 9.69a25.55 25.55 0 014.82-9m6.42-9.3s-9.74-5.11-9.36-11.82m-.56 10.5a74.28 74.28 0 014.55-7.19M50 279.24s-9.06-8-7.55-12.91m-1.76 13.81s.29-3.31 4.64-9.27m7.28-13.59s-7.63-6.09-6-14.88m9.71-6.59s-5.5-5.14-4.27-15.07m9.58-6.23S57 207.12 59 198.6M43.46 258a16.1 16.1 0 014.69-14m.68-10.84a11.93 11.93 0 015.26-10.3m0-10.21a18.92 18.92 0 017.54-11.36m6.08-7.49s-4-5.74-1.16-16.67m-4.92 14.96s1.62-9 6.08-12m7.17-7.61s-5.17-4.69-2.65-10.45M82.81 149s-4.47-4.4-.73-12m-13.37 35.48s1.85-10.59 6.17-13.9m2.03-6.9s-.36-7.17 3.92-11.06m11.1-15.71s-5.64-2.9 0-10.19m-6.76 16.18S86.48 120.62 90 118m11.6-14.21s-1.47-8.71 5.07-14.66m-11.5 18.69s1.22-9.82 7.73-13.39m10.96-8.65s-2.65-12.82 7.63-9.86m-11.37 8.46s-2.37-5.89 7.37-5.75m11.22-2.71s-2-9.78 9-7.48m10.53-2.65c.62.18 2.9-9 13.08-5.28M443.7 419.27s12.61-9.44 15.62-18.89m-8.42 4.84s3.63 6.72 3.17 11.52m-9.4-16.98s17.39-11.7 16.76-18m-4.82 18.62s.89-10.29-4.34-12.84m-2.49-6.48s12.73-7.73 12.6-18.31M461.11 377a16.13 16.13 0 00-6.44-6.51m-5.57-7.24s13.8-10.46 14-18.88M462 357.7a18.31 18.31 0 00-6.91-7.78m-4.8-6.57s12.81-8.09 13.54-16m-1.3 10.61l-6.42-5.23m-4.79-8.58s12-9.32 12-15.44m-.02 13.01a25.55 25.55 0 00-4.82-9m-7.21-11.02s10.24-5.61 9.87-12.32m.45 11a73.55 73.55 0 00-4.54-7.19m-9.93-13.95s10.73-7.92 9.09-14.7m2.58 14.79s-.67-3.25-5.68-8.66M444 257.28s7.33-7.55 5.74-16.35m-11.19-5.12a24.53 24.53 0 004.87-17.27m-10.18-4.03s5.12-7.39 3.16-15.91m17.53 58.4a16.12 16.12 0 00-8.71-12m1.94-12.2a11.92 11.92 0 00-6.49-9.57m.61-10.58a18.86 18.86 0 00-7.54-11.36m-6.57-7.49s4-5.74 1.15-16.67m4.92 14.96s-1.62-9-6.07-12m-7.17-7.61s5.18-4.69 2.66-10.45M412.07 149a9.33 9.33 0 00-1-12m15.09 35.48s-1.84-10.59-6.17-13.9m-1.99-3.86s.35-10.21-3.92-14.1m-11.14-15.71s5.27-4.34-2.13-11.93m8.6 20.87s-1-13.23-4.53-15.88m-11.6-14.18s2.93-8.71-3.61-14.66m9.33 20.3s-.5-11.42-7-15m-11-8.65s2.66-12.82-7.62-9.86m11.37 8.46s2.37-5.89-7.37-5.75m-11.21-2.71s3.4-10.13-7.6-7.83m-11.93-2.3c-.62.18-2.31-9.91-12.49-6.17" fill="none" stroke="#636363" stroke-linecap="round" stroke-linejoin="round" stroke-width="2"/><path d="M190.47 56.91s-56.09 23.44-67.87 36.35c-13.5 14.8-45.6 105.49-50.37 120.25s-13.76 73.14-12.45 90.85-.16 70.4.82 77.42 7.05 46.38 7.05 46.38" fill="none" stroke="#636363" stroke-linecap="round" stroke-linejoin="round" stroke-width=".75" opacity=".3"/><path d="M191.64 59.84s-54.59 22.94-66.37 35.86c-13.5 14.8-45.63 106-50.37 120.74s-12.76 70.64-11.45 88.35-.67 70.4.32 77.42 6.94 45.6 6.94 45.6" fill="none" stroke="#636363" stroke-linecap="round" stroke-linejoin="round" stroke-width=".75" opacity=".3"/><path d="M192.23 63.28s-52.39 21.54-64.16 34.45c-13.5 14.8-45.84 106.39-50.58 121.15S65.73 290.52 67 308.23s-1.11 64.69-.13 71.71 7 47.72 7 47.72" fill="none" stroke="#636363" stroke-linecap="round" stroke-linejoin="round" stroke-width=".75" opacity=".3"/><path d="M193.36 66.29S143 86.46 131.18 99.38c-13.49 14.8-45.85 106.76-50.59 121.51s-11.73 72.64-10.42 90.35-.62 62.69.37 69.71 6.1 47.21 6.1 47.21" fill="none" stroke="#636363" stroke-linecap="round" stroke-linejoin="round" stroke-width=".75" opacity=".3"/><path d="M194.33 69.54s-49.4 19.68-61.18 32.59c-13.5 14.8-44.85 106.26-49.59 121s-11.23 73.63-9.92 91.34-.85 57.78.14 64.8 5.08 48.52 5.08 48.52" fill="none" stroke="#636363" stroke-linecap="round" stroke-linejoin="round" stroke-width=".75" opacity=".3"/><path d="M195.63 72.34s-46.71 19-58.49 31.91C123.64 119.05 91.7 209 87 223.75s-11.15 74-9.84 91.71S76 371.38 77 378.4s4.33 49.91 4.33 49.91" fill="none" stroke="#636363" stroke-linecap="round" stroke-linejoin="round" stroke-width=".75" opacity=".3"/><path d="M197.19 74.79S152 93.53 140.26 106.45C126.77 121.25 95 211.21 90.25 226s-10.47 74.88-9.16 92.58-1.49 53.95-.5 61 3.58 49.14 3.58 49.14" fill="none" stroke="#636363" stroke-linecap="round" stroke-linejoin="round" stroke-width=".75" opacity=".3"/><path d="M122.07 288.42s-4 12.27-6.16 14.46-11.82 7.33-11.59 9.91 7.85 6 8 14-3.59 23.68-2.92 27 2.35 8.91-.67 15.69-7.73 26.52-4.5 38.44" fill="none" stroke="#636363" stroke-linecap="round" stroke-linejoin="round" stroke-width=".75" opacity=".3"/><path d="M122.07 281.15s-6.76 19-7.73 19.23-13 6.79-12.76 10.89 5.79 9.14 7.23 12.88-2.4 25.5-2.4 27.9 2.54 6.86.85 13-7.3 25.26-7.33 30.57.31 10 3 14.71" fill="none" stroke="#636363" stroke-linecap="round" stroke-linejoin="round" stroke-width=".75" opacity=".3"/><path d="M121.14 274.39s-5.4 18.81-8.78 22.56S98 301.54 97.59 309s8.4 13.32 8.4 17.11-2.77 25.16-2.46 27.69 1.75 4.68.32 10.83-7 24-6.38 31 0 11.58 4.09 16.33m96.56-335.12s-26.18 9.57-42 32.66-31.39 49.42-35.61 72.5" fill="none" stroke="#636363" stroke-linecap="round" stroke-linejoin="round" stroke-width=".75" opacity=".3"/><path d="M173.21 89.13s-24.36 12.91-31 21.64-34.36 75.6-36.61 82.21-14.5 43.59-16.19 57.34-4.22 69.08-4.08 81.89-1.27 37.9-.84 46.19 2.53 51.52 2.53 51.52" fill="none" stroke="#636363" stroke-linecap="round" stroke-linejoin="round" stroke-width=".75" opacity=".3"/><path d="M157.94 101.93a42 42 0 00-14.05 16c-5.7 11.1-25.25 48.16-32.68 74.12s-15.78 46.23-16.79 55.13-4.26 52.32-4.87 80.69-1.34 41.62-1.34 49.56 1.73 52.45 1.73 52.45" fill="none" stroke="#636363" stroke-linecap="round" stroke-linejoin="round" stroke-width=".75" opacity=".3"/><path d="M118 184s-19.14 57.7-19.35 61.43-4.07 45.35-4.48 51.31-1.63 14.36-1 20.45S92 345.57 92 349.92v81.31" fill="none" stroke="#636363" stroke-linecap="round" stroke-linejoin="round" stroke-width=".75" opacity=".3"/><path d="M121.14 189.74s-17 49.7-18 60.58-4.65 41.77-4.65 45.47-3.26 9.81-3.26 13.47 2.19 15.49 2 20.87c-.1 2.42-1.73 24.84-.86 28.73s-2.13 34.86-2.13 37.91c0 5.55 1.63 23.87 0 35.18M96 402s1 11.59 2.44 14" fill="none" stroke="#636363" stroke-linecap="round" stroke-linejoin="round" stroke-width=".75" opacity=".3"/><path d="M99.93 321.49s1.92 5 1.49 8.86-2.55 18.78-1.49 24.18c1.56 7.12-2.51 23.87-2.51 23.87m25.18-180.84s-13.92 41.78-15.42 53.38-5.69 48.11-5.69 48.11" fill="none" stroke="#636363" stroke-linecap="round" stroke-linejoin="round" stroke-width=".75" opacity=".3"/><path d="M122.6 209s-11.09 34.66-11.6 39.68-6 49.49-6 49.49m17.32-75.31s-5.14 16.43-6.86 27-6.18 46-6.18 46m11.86-53.46s-2.25 10.43-3.1 18.42-3.74 26.26-3.74 26.26m8.02-27.75l-1.76 11.54M307.8 57.48s53.79 24.78 65.13 38.07c13 15.24 46.16 106.11 50.41 121s17.29 72.3 16.64 90c-.64 17.54-2.67 60.11-4.35 78.22-.77 8.34-6.64 45.84-6.64 45.84" fill="none" stroke="#636363" stroke-linecap="round" stroke-linejoin="round" stroke-width=".75" opacity=".3"/><path d="M306.53 60.38s53.81 24.72 65.16 38c13 15.23 44.05 103.86 48.3 118.76s17.68 71.54 15.78 89.19-2.11 68.53-3.32 75.52-6.14 48.3-6.14 48.3" fill="none" stroke="#636363" stroke-linecap="round" stroke-linejoin="round" stroke-width=".75" opacity=".3"/><path d="M305.83 63.79s51.65 23.25 63 36.54c13 15.24 43.45 104.66 47.7 119.57s17.69 67.52 15.8 85.17-1.86 69-3.07 76-6 49.11-6 49.11" fill="none" stroke="#636363" stroke-linecap="round" stroke-linejoin="round" stroke-width=".75" opacity=".3"/><path d="M304.6 66.76s49.71 21.83 61.06 35.12c13 15.24 44.37 107.33 48.63 122.24s16.6 65.48 14.7 83.13-1.72 65.29-2.94 72.28-5.37 50.39-5.37 50.39" fill="none" stroke="#636363" stroke-linecap="round" stroke-linejoin="round" stroke-width=".75" opacity=".3"/><path d="M303.53 70s48.72 21.3 60.07 34.59c13 15.24 43.24 106.11 47.49 121s16.48 66 14.59 83.71-1.74 63.24-2.95 70.23-4.86 50.39-4.86 50.39" fill="none" stroke="#636363" stroke-linecap="round" stroke-linejoin="round" stroke-width=".75" opacity=".3"/><path d="M302.14 72.73s46.06 20.53 57.4 33.83c13 15.24 44 105.71 48.22 120.62s15.86 63.68 14.71 81.53-2.11 65.36-3.32 72.35-4.09 48.86-4.09 48.86" fill="none" stroke="#636363" stroke-linecap="round" stroke-linejoin="round" stroke-width=".75" opacity=".3"/><path d="M300.49 75.13s44.51 20.22 55.86 33.52c13 15.23 43.31 103.62 47.56 118.53s17.39 64.72 15.49 82.37-2.49 67.18-3.71 74.16-3.07 46.46-3.07 46.46" fill="none" stroke="#636363" stroke-linecap="round" stroke-linejoin="round" stroke-width=".75" opacity=".3"/><path d="M299.49 77.15s24 13.5 40.86 34c18.62 22.67 29.74 50.42 33.2 73.63" fill="none" stroke="#636363" stroke-linecap="round" stroke-linejoin="round" stroke-width=".75" opacity=".3"/><path d="M324 90.25s23.91 13.75 30.23 22.65 31.84 76.69 33.88 83.38 12.26 33 15.46 46 13.21 49.87 12.65 62.67-3.29 67.83-4 76.11-1.54 49.61-1.54 49.61" fill="none" stroke="#636363" stroke-linecap="round" stroke-linejoin="round" stroke-width=".75" opacity=".3"/><path d="M338.83 103.55a113.72 113.72 0 0113.51 16.5c6.76 10.48 19.24 36.73 31.22 75.15 8 25.77 16.2 46.85 16.92 55.77.74 9.07 11.33 34.66 11 63s-2.74 59.11-3 67.05-.33 50.29-.33 50.29" fill="none" stroke="#636363" stroke-linecap="round" stroke-linejoin="round" stroke-width=".75" opacity=".3"/><path d="M376 186.93s16.8 47.59 19.14 60.55 11.12 45.45 11.33 51.43 1.32 19.17.5 25.24-.69 26.17-.83 30.52-.34 75.25-.34 75.25" fill="none" stroke="#636363" stroke-linecap="round" stroke-linejoin="round" stroke-width=".75" opacity=".3"/><path d="M373.21 191.65s16.07 48.55 17.93 59.35c1.91 11.06 8 38.21 9.67 41.51 2.17 4.3 2.29 14.85 2.17 18.51s-.84 15.62-.8 21c0 2.43.1 59.31 0 62.35a327.72 327.72 0 001.33 34.63" fill="none" stroke="#636363" stroke-linecap="round" stroke-linejoin="round" stroke-width=".75" opacity=".3"/><path d="M373.9 293.82s10.91 6.9 11.08 10.54-2.84 7.13-2.84 10 10 36 11 38.35 4.3 10.9.84 13.23-3.67 5.45-3.5 10.2 3 25.13 3 27.44 4.14 6.45 3.83 8.44" fill="none" stroke="#636363" stroke-linecap="round" stroke-linejoin="round" stroke-width=".75" opacity=".3"/><path d="M373 289.38s15.4 8.18 15.35 15-2.61 7.13-2.74 10.13S399 356.18 399 360.59s-5 8.42-5.17 13.17 1.5 27.8 2.5 29.78 4.34 18.14 4.34 18.14" fill="none" stroke="#636363" stroke-linecap="round" stroke-linejoin="round" stroke-width=".75" opacity=".3"/><path d="M400.15 365.9s-2 6-2 10.2 1 24.78 1.5 30.75M373.21 284s19.1 13.5 19.1 19.51-2.45 9-1.83 11.83 7.5 30.35 8.67 34.6" fill="none" stroke="#636363" stroke-linecap="round" stroke-linejoin="round" stroke-width=".75" opacity=".3"/><path d="M373 277.49s22 17.78 22.51 22.89-2.34 9.45-.84 16.05 4.48 21.57 4.48 21.57" fill="none" stroke="#636363" stroke-linecap="round" stroke-linejoin="round" stroke-width=".75" opacity=".3"/><path d="M371.82 270.67s24.19 18.92 25.51 24.87.32 14.77.82 17.19 1 16.76 1 16.76M373.9 206.56s20.55 67.83 20.92 78.81m-20.37-62.14s16.06 51.77 16.06 58.67m-16.06-45.43s11.84 39.6 12.38 42.77M374.45 250s7.86 24.38 8 25.05m-9.48-14.59l5.49 12.35" fill="none" stroke="#636363" stroke-linecap="round" stroke-linejoin="round" stroke-width=".75" opacity=".3"/></svg>