<svg xmlns="http://www.w3.org/2000/svg" width="500" height="550" viewBox="0 0 500 550"><title>s05e14-03</title><path d="M372.14,291.55q-.27,61.74-.62,123.47c-.81,9-2.68,16.4-3.55,25.44-1,10.07,1.34,17-1.5,25.63-.59,1.77-2,1.67-3.35,1.43-44.59-7.73-101.66-5.71-146.65-2.92-24.6.58-58.62-1.67-83,2.09-5.23.6-5.68.28-6.62-4.82-1.35-11.26,1.44-20,0-30.81-6.15-46.82-.89-92.88-3.1-140-1.42,2.82-2.94,5.6-4.29,8.46-2.37,10.67-17.5,9.3-11.81,16.18,11.11,7.95,6.41,21.38,5.15,32.56-.25,3.15-1.35,6.27-.37,9.58.51,8.43-3.19,16.94-4.38,25.31-1.5,8-2.61,15.83-1.54,23.93a5.1,5.1,0,0,1-1.13,3.3c-5.71,6.28-7.75,14-9.19,22.06-.57,3.18-.61,3-3.74,2-12.38-3.52-26.09-4.38-38.6-1.18-1.39.34-2.11,0-2.41-1.47-2-7.76-2.18-16.67-8.49-22.43a6.66,6.66,0,0,1-1.33-3.22A144.5,144.5,0,0,1,39,372.85c-1.91-63,2.6-126.92,26.19-186,13.61-35.43,24.56-73.32,48.07-103.67,27.32-18.2,60-23.76,90.46-34.78a3.16,3.16,0,0,1,2.72.43c5,5.55,11.46,8.41,18.56,9.67,19.19,2.43,41.29,5.55,58.65-4.88,2.85-1.27,4.2-6.53,7.87-5,29.12,10.49,61,14.4,87.44,31.58,15.94,14.59,21.63,38,30.45,57.2,27.81,67.49,58,137.4,51.05,212.08-1.19,18.66-.23,37.46-3.28,56-.49,4.66-5.21,7.09-5.56,11.78-1.22,5.28-2.08,10.65-2.91,16-.4,2.6-.41,2.83-3.08,2.33-12.48-2.66-25.26-5.49-37.8-1.58-8.34-.15-8.13-15.56-11.44-21.41-6.28-7.36-3.61-9-5.33-17.63-.9-9.7-4.68-20.27.79-29.26,2-3.53,1.86-7.05.51-10.66-4.9-11.29-7.4-23.42-10.45-35.29-1.07-4.31-1.31-8.5,1.61-12.34,1.49-7.15-10.43-8.7-10.93-15.93Z" fill="#262521" stroke="#262521" stroke-linecap="round" stroke-linejoin="round" stroke-width="3"/><path d="M342.94,190.18l-3.53-4.93-1.72-.21V182.9h-1.6v-2.68l-1.5-2.89h-1.18l1.6-1.83v-3.42h-1.6l-.11-4-3.86-2.46v-1.39l-4.92-.65-.22-1.39h-4l.1-1.18h1.5l4.08-3.75.1-6.1-1.07-1.4h-4.71v2l-1.93-.64-1,1.6L314,155.36l.21,6.54h-3.11l-1,1.82-2.36-.21,3.32-4h1.5v-4.93l2.9-3.53V144H313.7l-.11,2.57h-2.47l-2.24,2.25-1.83-1v-1.29h-2.89l-.21-1.29h-3.22V144h-6.64v1.28l-3-.1-1.6,1.07h-1.72l-3,1.61-.11,2,1.18-.11v2.47l4.29,2.25-.32,1.5-4.72-2h-1.93l-.1-1.18-3.75.11-.11,1.29-4.07-.33,1,2H278v2H270.1v2.57l3.21,1.92.21,1.61,4.72.11v1.07l7.5,1.29-8.9.64-.1-1.18h-4.07v2.14H270.2v1.5l-2.89.43-.32,2h-2l.11,2.35-1.5.22v2.14h-1.07v2.14h1.28v1.61h-1.5v2.25l-1,.11v2.67l1.39.65V188l-3.1,1.39h-2.79v1.82h-5v1.39h-3.65l-1.28,1.18.53,1v5.57h1.4V203L250,205l3,2.36h4.5l1.4,2.57h2.25l-.11-2.35,1.71-.11v-1.72l2.68.22,1.18-2.68,5.14.11v-2.14h-1.18v-1.93h-1v-2h-1v-1.5l-2.25-.86-1.18-1.28v-1.5h1.18l2.14.21,3.21,4.82,1.07-.1v-2.68l1.72-1.29,1.28-.1v1.6l2.36,1.82,1.18-.75v1.61l1.6,1-1.39,1,1.39,2.25V204l1.93.11.86,2.68v1.71h-1.5v1.93h-1.61l.54,4.28h1.61v2.36h1v4.07l1.71.64,3.1-2.57v-2.14l2.69-.21v-4.72l1-.11v-8.35l-1.07-1.34v-2l1.07-.11,1.4,3,1,.54v5l-1.07.86v3.75l-1.29.43.11,3.64,2.25,3.11v2.89l3.86.64v-1.5l1.5-.11v-1.71l1.28-.43v-6.21l-1-1.18v-2.57l-1.07-.22V208l-2.36-.64v-6.53h-1.5l-.11-3.75,1.07-1.4.33,2.68h1.6V200h1.07v-1.4l1.93-1.82,4,.11v1.29H303.2v1.28h-2.57v1.39l-1.07.43v4.93l.85,2.79,1.18-.22-.11,1.93h1.07l.33,5.68h2.25v1.82l2-.22v1.18h2.25v1.29h5.68v-1.07l7.28,1.39,3.43-.11v-1.5l2-.1v-5.36l1.6-2.57v-4.82l-1-3.75,2.57,2.35v2.36l2.25.64,1.29,6.54,1.39-.32.86-7.29,1-1.28v-4.18l-1-1.39,1.71-1.18-1.5-1.07v-2.57l-1.71-1.4v-1.6l-1.83-.22v-1.19h-1.39v-1.59l1.07-.22,5.36,4.93,2.89.21,1,4.29,1.17-.11Zm-85.86,8.46h1V196h.51l.16-1.34h1.33v4.19h-1.33l-.67,1.71h-1Zm8.51.61v1.58H264v1.52l-1.88,1.21h-.91v1h-2.68v.79h-1.94l-2.68-1.52v-1.34H255v-1.76h1.27v2.49H259v-.85h2.25v-1.76h.79v-6h.67v2h1v2.61Zm5.59-9.36h-2.73v-1.52L265.59,187v-3.22h1v-2.37H268v-2.12h.79v7.9l2.37,1.7Zm54.29-12.69h1.12l1-1.26v-1h-1V173.8H328v1.25h.61v1.12l-1.4,1.54h-1.73Zm-3.5-7.53v-1.86h1.46v1.54h1.94v1h-4.53v2.23l-1.38,1.58v2.67l1.86,1.95h2.84l2.43.57v1.29h-6.24l-.89-.56v-1.3h-2.59l-1.14-2v-1h1V172.1h1.14v-2.43Zm-5.75,22.21V190.5l2,.5,1.24,1.24V194H318v-2.1Zm0-33,1.62-3.08h2l2.56-3.16h1.05v1.13L320.59,157v1.87L318.81,160h-1.7V162h-.89Zm-5,5.51h2.19v-.81h1.95v.81H318l-.57,1.94-3.32-.73h-2.92Zm-1.94,1.94v3.57l-1.87.48v2.15h-1.05v-2.39l-1-.57v-2.43h1v.89h1.46v-1.7h-.89V165l.74-1Zm-14-9.72h3l.81-.89V150l1.13-.08v5.27l1.06.89,2.27-1.46v-5.1h1.21l1.62,1.62v3.48h-1.05v2h-2.84v1.46h-7.22Zm-1.85,9.72,1.85-1.32,1.56.65v3h-1v-1.67h-2.43ZM273.49,181.2v-1.88h2.31v1.88Zm4.08,4.13v-1.26H275.8V182l2.92,0v1.66h1.46l1.64-1.64.55.85h.79v-1.28H284V178.1H283v-1.64h-1.48l-2-1.7h4.13l2.86,3v2.67l.79.79v1.4h-1.16l-.73,1.47h-1.94v1.26Zm10.21,23.24h-.9V212H286v4.3l-1.78-3.81v-1H285v-2.68h1v-3.48l-1.78-4.05V200h-1v-2.4h2.75l1.87,2.4Zm0-44.16h-6.23l-2-.9v-1.62h6.89v-3.16l-1.46-1.62,1.3-.48,2.27,1.86h2.67l1.78,2.67V162h-1.3l-1.45-2.1h-1.7v2.27h1.7V163h-1.7Zm8,46.74V209h1v2.13l.82.08,2.14,3.7v2.22l-.74.08v-1l-.77-1.26h-3l.45,2.71,1.11.82h-1.6l-.62-2.27v-5.12Zm2.44-32.4h-2.51v-3.24H294v-2.27h-.72v-1.78h-1.38v-1.38h-3.4v-3.73c2.77-.15,5.75,3.08,5.75,3.08v1.22h1.62v2.51H297v2.67h1.22ZM295.07,163v-1l2.1-.17V161h9.16v-1h1.05v1.22L300.77,163Zm10.29,27.31h-.81v2.43h-1.38l-1.94.81-1-.81,2.15-1.14v-1.74h1.18v-2.07L302,184.6h-.81v-1.15h1.58l1.09,2.67h1.46Zm-2.51-8v-5.91h-1.14v-2.11h-1.46v-2.19h1.46v-2.59h.81V167.4h-.89l.08-2.43h1.79v7.58h1.86v2.21l1,1v4.51l1.7,1.81v2h1.22v1.26h1.3v1h1.86v2.75h1v2.67h-1.21v1H310.3v-1.46h-1.46V189h-1.29v-3.63l-2.19-2.94Zm19,28.32h-2.64v1l-2.63.78L315,211.22v-2l-1.57-1.48h-1.2v-.83h-1.6V205.3h-1v-2.37H308v-1.42h-1.18v-1.67h1v-1.61l2.12-2.06h2.57v-.64h2.79v.58h3.77v-.58h2.1v1.19l1.38,1.19V202h.83l.39,6.95Zm12.79-12.41v2.44h-.7v-1.67l-1.29-1.22h-1.22v1.41l1.41,1.41v2.77h-.77v-1.35l-2.31-1.93v-1.29h-1.8v-2.44l-1.74-1V194h-2.44v-3.17h2.05l1.22.86V190h1.81v1.67l3,2.31Zm6.05-6.06h-1.42v-1h-2v-1.55h-1.48l-1.54-3.08,1.22-.58.13,1.61,1.28.12,1.23,1.29-.13,1h1.86l.07,1.41h.77Z" fill="#fff"/><polygon points="312.57 198.62 314.63 198.62 314.63 197.97 319.83 197.97 319.83 199 321.51 200.48 321.51 203.44 322.28 203.44 322.28 206.08 320.67 209.35 318.16 209.35 318.16 208.39 315.73 208.39 314.24 206.92 314.18 205.31 311.67 205.31 311.67 202.86 310.38 202.86 310.38 200.68 312.38 200.68 312.57 198.62" fill="#fff"/><polygon points="256.78 193.98 255.06 193.98 254.48 195.53 252.59 195.53 252.59 196.72 250.87 197.11 250.87 199.33 252.02 199.33 252.02 197.58 253.33 197.58 253.33 199.33 254.48 199.33 254.4 196.72 255.55 195.14 256.78 195.14 256.78 193.98" fill="#a7a7a7"/><polygon points="276.17 187.99 276.17 190.81 277.48 190.81 277.48 192.24 278.88 192.24 278.88 193.98 280.19 193.98 280.19 195.06 282.65 195.06 282.65 196.04 284.21 196.04 284.21 194.63 283.16 194.61 283.16 193.09 280.96 193.09 280.19 191.79 280.19 190.66 282.67 190.5 283.93 189.89 283.93 188.51 286.15 188.51 286.15 187.58 288.71 185.03 288.26 184.07 285.47 187.13 281.55 186.97 281.55 188.51 276.17 187.99" fill="#a7a7a7"/><polygon points="295.98 183.08 295.98 188.15 296.78 190.81 298 191.04 298 183.08 295.98 183.08" fill="#a7a7a7"/><polygon points="295.98 191.3 294.1 191.3 293.37 193.38 292.42 193.98 291.51 194.29 288.71 194.63 288.87 196.04 293.13 196.04 296.43 192.24 295.98 191.3" fill="#a7a7a7"/><polygon points="283.5 170.55 283.5 172.12 284.97 172.12 284.97 173.59 286.59 173.59 289.69 178.75 291.26 178.75 291.26 177.71 290.14 177.71 290.14 174.96 288.71 174.96 288.71 172.55 286.24 172.55 286.24 170.75 283.5 170.55" fill="#a7a7a7"/><polygon points="279.29 168.26 277.31 168.26 276.85 169.59 272.84 169.59 270.26 172.12 268.79 174.76 268.79 176.69 269.9 176.69 269.9 174.65 272.29 174.65 272.29 171.87 274.04 170.55 277.66 170.35 277.66 169.44 278.88 169.44 279.29 168.26" fill="#a7a7a7"/><polygon points="272.08 178.36 270.66 178.36 270.66 179.32 272.64 179.32 272.64 178.36 274.65 178.36 275.42 177.59 278.02 177.59 278.02 180.95 278.63 180.95 278.63 181.97 279.29 181.97 279.29 180.61 281.11 178.75 279.29 178.21 279.29 176.33 272.44 176.69 272.08 178.36" fill="#a7a7a7"/><polygon points="276.8 160.91 276.8 162.38 279.29 162.38 279.29 161.27 276.8 160.91" fill="#a7a7a7"/><polygon points="288.26 147.93 288.26 148.89 287.61 150.16 287.61 151.38 289.13 151.88 289.13 152.95 290.8 152.95 290.8 148.33 290.5 147.57 289.2 147.57 288.26 147.93" fill="#a7a7a7"/><polygon points="312.36 148.64 311.19 148.64 310.53 149.7 307.3 149.7 307.3 151.63 308.15 152.19 308.4 156.3 307.38 157.62 307.38 159.24 306.33 159.24 306.33 160.03 308.4 160.03 308.4 158.09 309.35 156.85 309.62 152.39 310.23 150.97 311.19 149.5 312.36 149.5 312.36 148.64" fill="#a7a7a7"/><polygon points="318.45 163.97 319.82 163.97 319.82 164.41 320.63 164.41 320.63 165.48 318 165.48 318.45 163.97" fill="#a7a7a7"/><rect x="313.17" y="168.98" width="1.67" height="1.01" fill="#a7a7a7"/><polygon points="313.17 170.55 311.5 170.55 311.5 177.35 309.92 177.35 309.92 178.51 315.73 185.01 320.22 187.65 321.16 187.65 321.16 186.08 319.82 186.08 312.54 178.79 312.54 177.3 313.78 177.3 313.78 175.22 313.17 175.22 313.17 170.55" fill="#a7a7a7"/><polygon points="323.43 172.55 322.28 172.55 322.28 173.8 321.16 173.8 321.16 174.61 322.3 174.61 322.3 176.33 324.43 177.71 325.47 177.71 325.47 176.64 323.76 176.64 323.32 175.13 323.76 174.21 323.43 172.55" fill="#a7a7a7"/><polygon points="327.63 166.7 327.63 170.75 329.19 170.75 329.76 172.55 329.76 175.75 331.08 175.75 331.08 172.33 329.35 168.98 328.6 166.7 327.63 166.7" fill="#a7a7a7"/><polygon points="329.35 182.98 327.04 182.98 327.04 184.07 325.29 184.07 325.29 183.45 324.53 183.45 324.53 184.07 323.57 184.07 323.57 183.45 321.16 183.45 321.16 184.07 325.7 186.68 327.27 187.24 328.74 188.51 329.61 188.51 329.35 182.98" fill="#a7a7a7"/><polygon points="301.25 202.41 301.25 207.33 302.11 208.24 304.85 208.54 304.65 212.09 305.56 212.09 305.56 213.78 306.06 214.28 306.06 215.85 308.71 215.85 308.71 217.72 311.55 217.72 311.55 215.49 307.74 215.49 307.79 214.28 306.82 214.28 306.82 211.79 306.17 211.79 306.12 206.92 302.81 206.92 302.32 205.85 301.91 202.41 301.25 202.41" fill="#a7a7a7"/><polygon points="312.71 210.07 314.9 212.51 314.9 214.88 317.53 214.88 317.53 213.78 318.7 213.78 318.7 212.51 320.58 212.51 320.58 213.78 319.92 213.78 319.92 215.44 317.48 217.07 315.54 217.07 315.54 216.25 313.38 216.25 313.38 212.85 312.31 211.49 312.71 210.07" fill="#a7a7a7"/><polygon points="324.63 199.26 324.63 201.14 325.75 201.49 325.75 205.96 327.02 205.96 327.02 209.02 327.93 209.02 327.93 204.99 326.61 204.99 326.61 201.29 324.63 199.26" fill="#a7a7a7"/><polygon points="324.63 216 324.63 217.72 320.93 217.72 320.93 219.2 321.74 219.55 321.69 218.54 326.28 218.54 326.28 215.19 324.63 216" fill="#a7a7a7"/><polygon points="314.13 200.99 314.13 202.1 316.87 202.1 316.87 203.44 318.85 203.44 318.85 205.15 316.82 205.15 316.82 206.92 318.45 207.78 318.85 206.57 320.12 206.57 320.12 202.41 319.11 202.41 319.11 199.92 317.48 199.26 315.91 199.26 315.91 200.48 314.13 200.99" fill="#a7a7a7"/></svg>