<svg xmlns="http://www.w3.org/2000/svg" width="500" height="550" viewBox="0 0 500 550"><title>s05e11-02</title><path d="M372.14,291.55q-.27,61.74-.62,123.47c-.81,9-2.68,16.4-3.55,25.44-1,10.07,1.34,17-1.5,25.63-.59,1.77-2,1.67-3.35,1.43-44.59-7.73-101.66-5.71-146.65-2.92-24.6.58-58.62-1.67-83,2.09-5.23.6-5.68.28-6.62-4.82-1.35-11.26,1.94-18.53.53-29.31-6.15-46.82-1.39-94.38-3.6-141.53-1.42,2.82-2.94,5.6-4.29,8.46-2.37,10.67-17.5,9.3-11.81,16.18,11.11,7.95,6.41,21.38,5.15,32.56-.25,3.15-1.35,6.27-.37,9.58.51,8.43-3.19,16.94-4.38,25.31-1.5,8-2.61,15.83-1.54,23.93a5.1,5.1,0,0,1-1.13,3.3c-5.71,6.28-7.75,14-9.19,22.06-.57,3.18-.61,3-3.74,2-12.38-3.52-26.09-4.38-38.6-1.18-1.39.34-2.11,0-2.41-1.47-2-7.76-2.18-16.67-8.49-22.43a6.66,6.66,0,0,1-1.33-3.22A144.5,144.5,0,0,1,39,372.85c-1.91-63,2.6-126.92,26.19-186,13.61-35.43,24.56-73.32,48.07-103.67,27.32-18.2,60-23.76,90.46-34.78a3.16,3.16,0,0,1,2.72.43c5,5.55,11.46,8.41,18.56,9.67,19.19,2.43,41.29,5.55,58.65-4.88,2.85-1.27,4.2-6.53,7.87-5,29.12,10.49,61,14.4,87.44,31.58,15.94,14.59,21.63,38,30.45,57.2,27.81,67.49,58,137.4,51.05,212.08-1.19,18.66-.23,37.46-3.28,56-.49,4.66-5.21,7.09-5.56,11.78-1.22,5.28-2.08,10.65-2.91,16-.4,2.6-.41,2.83-3.08,2.33-12.48-2.66-25.26-5.49-37.8-1.58-8.34-.15-8.13-15.56-11.44-21.41-6.28-7.36-3.61-9-5.33-17.63-.9-9.7-4.68-20.27.79-29.26,2-3.53,1.86-7.05.51-10.66-4.9-11.29-7.4-23.42-10.45-35.29-1.07-4.31-1.31-8.5,1.61-12.34,1.49-7.15-10.43-8.7-10.93-15.93Z" fill="#262521" stroke="#262521" stroke-linecap="round" stroke-linejoin="round" stroke-width="3"/><rect x="243.22" y="121.96" width="4.73" height="4.73" transform="translate(157.04 -136.31) rotate(44.38)" stroke-width="0.78" stroke="#fff" stroke-linecap="round" stroke-linejoin="round" fill="#fff"/><polygon points="270.13 111.65 255.39 119.83 272.38 119.64 270.13 111.65" fill="#fff" stroke="#fff" stroke-linecap="round" stroke-linejoin="round" stroke-width="0.78"/><polygon points="250.09 110.64 257.96 116.94 253.48 119.85 246.62 114.8 250.09 110.64" fill="#fff" stroke="#fff" stroke-linecap="round" stroke-linejoin="round" stroke-width="0.78"/><polygon points="245.47 113.85 247.77 111.23 243.06 111.28 245.41 113.85 245.42 113.92 245.44 113.88 245.47 113.92 245.47 113.85" fill="#fff" stroke="#fff" stroke-linecap="round" stroke-linejoin="round" stroke-width="0.78"/><polygon points="255.67 106.74 262.38 103.34 267.27 111.68 262.21 114.59 255.67 106.74" fill="#fff" stroke="#fff" stroke-linecap="round" stroke-linejoin="round" stroke-width="0.78"/><polygon points="247.59 132.75 252.35 121.55 255.88 126.6 247.59 132.75" fill="#fff" stroke="#fff" stroke-linecap="round" stroke-linejoin="round" stroke-width="0.78"/><polygon points="275.07 118.37 291.7 109.68 291.79 117.41 275.07 118.37" fill="#fff" stroke="#fff" stroke-linecap="round" stroke-linejoin="round" stroke-width="0.78"/><polygon points="269.32 101.99 276.52 98.88 279.76 109.22 274.11 110.95 269.32 101.99" fill="#fff" stroke="#fff" stroke-linecap="round" stroke-linejoin="round" stroke-width="0.78"/><polygon points="284.41 94.98 290.66 94.23 290.81 108.03 286.21 108.32 284.41 94.98" fill="#fff" stroke="#fff" stroke-linecap="round" stroke-linejoin="round" stroke-width="0.78"/><polygon points="295.81 109.63 315.51 113.04 313.45 120.89 295.81 109.63" fill="#fff" stroke="#fff" stroke-linecap="round" stroke-linejoin="round" stroke-width="0.78"/><polygon points="299.07 94.14 298.35 108.58 303.83 109.55 306.02 94.65 299.07 94.14" fill="#fff" stroke="#fff" stroke-linecap="round" stroke-linejoin="round" stroke-width="0.78"/><polygon points="317 96.88 310.99 110.55 315.5 111.16 323 99.07 317 96.88" fill="#fff" stroke="#fff" stroke-linecap="round" stroke-linejoin="round" stroke-width="0.78"/><polygon points="329.28 101.55 321.4 114.06 325.43 115.87 335.18 104.27 329.28 101.55" fill="#fff" stroke="#fff" stroke-linecap="round" stroke-linejoin="round" stroke-width="0.78"/><polygon points="318.25 121.92 338.04 123.95 334.09 130.06 318.25 121.92" fill="#fff" stroke="#fff" stroke-linecap="round" stroke-linejoin="round" stroke-width="0.78"/><polygon points="344.73 127.5 360.16 143.19 355.11 147.06 344.73 127.5" fill="#fff" stroke="#fff" stroke-linecap="round" stroke-linejoin="round" stroke-width="0.78"/><polygon points="331.68 117.76 341.57 108.12 346.29 110.83 336.16 120.12 331.68 117.76" fill="#fff" stroke="#fff" stroke-linecap="round" stroke-linejoin="round" stroke-width="0.78"/><polygon points="341.24 122.47 352.82 113.62 357.92 117.48 344.7 125.21 341.24 122.47" fill="#fff" stroke="#fff" stroke-linecap="round" stroke-linejoin="round" stroke-width="0.78"/><polygon points="349.69 129.89 362.91 122 366.32 125.84 353.64 133.42 349.69 129.89" fill="#fff" stroke="#fff" stroke-linecap="round" stroke-linejoin="round" stroke-width="0.78"/><polygon points="358.14 138.18 371.43 131.18 374.61 135.84 361.43 141.76 358.14 138.18" fill="#fff" stroke="#fff" stroke-linecap="round" stroke-linejoin="round" stroke-width="0.78"/><polygon points="365.34 146.94 379.73 141.56 383.06 146.36 368.4 151.56 365.34 146.94" fill="#fff" stroke="#fff" stroke-linecap="round" stroke-linejoin="round" stroke-width="0.78"/><polygon points="364.78 150.51 374.44 169.43 366.07 170.48 364.78 150.51" fill="#fff" stroke="#fff" stroke-linecap="round" stroke-linejoin="round" stroke-width="0.78"/><polygon points="371.23 157.55 373.45 161.98 389.42 158.19 387.07 152.44 371.23 157.55" fill="#fff" stroke="#fff" stroke-linecap="round" stroke-linejoin="round" stroke-width="0.78"/><polygon points="374.4 165.1 376.54 169.41 391.47 170.21 390.94 164.92 374.4 165.1" fill="#fff" stroke="#fff" stroke-linecap="round" stroke-linejoin="round" stroke-width="0.78"/><polygon points="374.91 176.29 372.06 197.87 364.67 193.73 374.91 176.29" fill="#fff" stroke="#fff" stroke-linecap="round" stroke-linejoin="round" stroke-width="0.78"/><polygon points="376.6 175.19 376.64 179.4 391.62 184.05 392.16 178.03 376.6 175.19" fill="#fff" stroke="#fff" stroke-linecap="round" stroke-linejoin="round" stroke-width="0.78"/><polygon points="375.97 184.22 375.18 189.16 389.83 196.59 391.69 190.31 375.97 184.22" fill="#fff" stroke="#fff" stroke-linecap="round" stroke-linejoin="round" stroke-width="0.78"/><polygon points="374.71 193.87 374.09 199.29 385.85 207.47 387.96 201.43 374.71 193.87" fill="#fff" stroke="#fff" stroke-linecap="round" stroke-linejoin="round" stroke-width="0.78"/><polygon points="368.5 206.21 371.72 202.81 381.15 211.85 377.05 216.71 368.5 206.21" fill="#fff" stroke="#fff" stroke-linecap="round" stroke-linejoin="round" stroke-width="0.78"/><polygon points="340.21 170.76 306.29 119.28 302.38 119.32 329.52 160.11 340.21 170.76" fill="#fff" stroke="#fff" stroke-linecap="round" stroke-linejoin="round" stroke-width="0.78"/><polygon points="326.3 158.32 300.61 119.34 296.7 119.38 318.59 153.18 326.3 158.32" fill="#fff" stroke="#fff" stroke-linecap="round" stroke-linejoin="round" stroke-width="0.78"/><path d="M345.27,178.16s19,19.64,24.74,27.23l1.82,8.11,2.51,9.08s-15.92-21.14-24-28.45Z" fill="#fff" stroke="#fff" stroke-linecap="round" stroke-linejoin="round" stroke-width="0.78"/><polygon points="269.27 121.66 247.15 164.32 254.73 157.61 272.78 121.33 269.27 121.66" fill="#fff" stroke="#fff" stroke-linecap="round" stroke-linejoin="round" stroke-width="0.78"/><polygon points="274.39 121.31 256.81 156.8 261.75 153.36 277.57 120.75 274.39 121.31" fill="#fff" stroke="#fff" stroke-linecap="round" stroke-linejoin="round" stroke-width="0.78"/><polygon points="247.61 134.3 259.54 137.46 258.32 139.87 246.37 136.58 247.61 134.3" fill="#fff" stroke="#fff" stroke-linecap="round" stroke-linejoin="round" stroke-width="0.78"/><polygon points="245.73 137.85 257.66 141.01 256.44 143.43 245.75 140.01 245.73 137.85" fill="#fff" stroke="#fff" stroke-linecap="round" stroke-linejoin="round" stroke-width="0.78"/><polygon points="269.62 140.44 289.83 145.89 280.71 146.17 268.38 142.72 269.62 140.44" fill="#fff" stroke="#fff" stroke-linecap="round" stroke-linejoin="round" stroke-width="0.78"/><polygon points="267.79 143.94 278.43 146.81 272.01 147.75 266.56 146.23 267.79 143.94" fill="#fff" stroke="#fff" stroke-linecap="round" stroke-linejoin="round" stroke-width="0.78"/><polygon points="266.16 147.54 264.01 151.9 270.62 148.84 266.16 147.54" fill="#fff" stroke="#fff" stroke-linecap="round" stroke-linejoin="round" stroke-width="0.78"/><polygon points="246.22 183.74 252.5 202.6 246.5 209.92 246.22 183.74" fill="#fff" stroke="#fff" stroke-linecap="round" stroke-linejoin="round" stroke-width="0.78"/><path d="M246.2,181.48l16.45,10.22-3.56-23.26S253.25,171.73,246.2,181.48Z" fill="#fff" stroke="#fff" stroke-linecap="round" stroke-linejoin="round" stroke-width="0.78"/><path d="M260.23,167.39l17.4,16,9.53-23.88S271.33,158.91,260.23,167.39Z" fill="#fff" stroke="#fff" stroke-linecap="round" stroke-linejoin="round" stroke-width="0.78"/><polygon points="253.08 161.2 246.04 167.11 250.9 172.89 257.6 167.13 253.08 161.2" fill="#fff" stroke="#fff" stroke-linecap="round" stroke-linejoin="round" stroke-width="0.78"/><polygon points="262.25 154.56 270.64 150.6 274.15 158.88 265.81 162.12 262.25 154.56" fill="#fff" stroke="#fff" stroke-linecap="round" stroke-linejoin="round" stroke-width="0.78"/><polygon points="281.69 147.84 283.58 157.85 291.94 157.76 292.51 147.44 281.69 147.84" fill="#fff" stroke="#fff" stroke-linecap="round" stroke-linejoin="round" stroke-width="0.78"/><path d="M289.27,159.47l7.21,23.73,21.64-14.47S304.87,158.39,289.27,159.47Z" fill="#fff" stroke="#fff" stroke-linecap="round" stroke-linejoin="round" stroke-width="0.78"/><polygon points="304.06 149.3 302.27 159.28 310.11 162.13 314.72 152.8 304.06 149.3" fill="#fff" stroke="#fff" stroke-linecap="round" stroke-linejoin="round" stroke-width="0.78"/><path d="M320,169.69,312.57,195l24.68.58S333.48,177.92,320,169.69Z" fill="#fff" stroke="#fff" stroke-linecap="round" stroke-linejoin="round" stroke-width="0.78"/><polygon points="325.19 159.03 320.19 167.75 326.92 172.53 333.35 165.79 325.19 159.03" fill="#fff" stroke="#fff" stroke-linecap="round" stroke-linejoin="round" stroke-width="0.78"/><polygon points="334.09 182.07 338.02 191.49 346.32 187.37 342.94 177.13 334.09 182.07" fill="#fff" stroke="#fff" stroke-linecap="round" stroke-linejoin="round" stroke-width="0.78"/><path d="M337.76,198.23l-20.57,15.23L339,221.9S339.9,206.42,337.76,198.23Z" fill="#fff" stroke="#fff" stroke-linecap="round" stroke-linejoin="round" stroke-width="0.78"/><polygon points="350.41 200.99 340.95 203.63 341.58 213.65 351.22 213.54 350.41 200.99" fill="#fff" stroke="#fff" stroke-linecap="round" stroke-linejoin="round" stroke-width="0.78"/><path d="M338.61,225,317.4,232.5l18.17,13.89A78.25,78.25,0,0,0,338.61,225Z" fill="#fff" stroke="#fff" stroke-linecap="round" stroke-linejoin="round" stroke-width="0.78"/><path d="M335.18,248.32l-23.68,2.42,17.27,15.89S334,256,335.18,248.32Z" fill="#fff" stroke="#fff" stroke-linecap="round" stroke-linejoin="round" stroke-width="0.78"/><polygon points="340.9 227.67 339.54 238.4 349.18 239.62 351.38 228.31 340.9 227.67" fill="#fff" stroke="#fff" stroke-linecap="round" stroke-linejoin="round" stroke-width="0.78"/><polygon points="337.08 250.61 333.38 261.04 342.3 264.45 346.13 253.93 337.08 250.61" fill="#fff" stroke="#fff" stroke-linecap="round" stroke-linejoin="round" stroke-width="0.78"/><path d="M327.94,269.06l-23.29-.68,15.06,18.44A80,80,0,0,0,327.94,269.06Z" fill="#fff" stroke="#fff" stroke-linecap="round" stroke-linejoin="round" stroke-width="0.78"/><polygon points="328.83 272.9 324.14 282.62 333.12 286.68 337.69 276.65 328.83 272.9" fill="#fff" stroke="#fff" stroke-linecap="round" stroke-linejoin="round" stroke-width="0.78"/><path d="M318.79,289.21,296,285.68l14,18.88A102.06,102.06,0,0,0,318.79,289.21Z" fill="#fff" stroke="#fff" stroke-linecap="round" stroke-linejoin="round" stroke-width="0.78"/><polygon points="318.07 294.96 312.83 304.53 321.25 308.76 326.68 298.85 318.07 294.96" fill="#fff" stroke="#fff" stroke-linecap="round" stroke-linejoin="round" stroke-width="0.78"/><path d="M308.93,306.61l-22.4-.58,12.07,17.55A111.58,111.58,0,0,0,308.93,306.61Z" fill="#fff" stroke="#fff" stroke-linecap="round" stroke-linejoin="round" stroke-width="0.78"/><polygon points="307 314.65 301.57 323.55 309.16 328.05 314.75 319.22 307 314.65" fill="#fff" stroke="#fff" stroke-linecap="round" stroke-linejoin="round" stroke-width="0.78"/><path d="M297.14,326.29l-22.45-4.58,12.22,19.67S292.39,336.2,297.14,326.29Z" fill="#fff" stroke="#fff" stroke-linecap="round" stroke-linejoin="round" stroke-width="0.78"/><polygon points="294.94 334.55 289.36 342.98 297.38 348.43 303.22 339.59 294.94 334.55" fill="#fff" stroke="#fff" stroke-linecap="round" stroke-linejoin="round" stroke-width="0.78"/><path d="M285.59,344.37l-20.72-6.26,10.56,21.22S282.7,351.69,285.59,344.37Z" fill="#fff" stroke="#fff" stroke-linecap="round" stroke-linejoin="round" stroke-width="0.78"/><polygon points="282.6 354.39 275.48 363.91 285.87 369.74 290.61 359.16 282.6 354.39" fill="#fff" stroke="#fff" stroke-linecap="round" stroke-linejoin="round" stroke-width="0.78"/><polygon points="274.04 362.17 252.38 356.06 248.49 395.25 248.61 405.64 255.83 412.18 261.52 401.99 254.41 394.92 274.04 362.17" fill="#fff" stroke="#fff" stroke-linecap="round" stroke-linejoin="round" stroke-width="0.78"/><polygon points="268.64 375.06 262.01 385.92 269.5 391.51 276.67 380.91 268.64 375.06" fill="#fff" stroke="#fff" stroke-linecap="round" stroke-linejoin="round" stroke-width="0.78"/><polygon points="351.47 236.69 352.6 266.36 349.64 269.04 348.85 252.11 351.47 236.69" fill="#fff" stroke="#fff" stroke-linecap="round" stroke-linejoin="round" stroke-width="0.78"/><polygon points="347.52 254.39 348.05 270.26 345.1 272.95 344.59 263.28 347.52 254.39" fill="#fff" stroke="#fff" stroke-linecap="round" stroke-linejoin="round" stroke-width="0.78"/><polygon points="372.08 252.28 337.7 281.09 334.79 287.35 372.08 257.27 372.08 252.28" fill="#fff" stroke="#fff" stroke-linecap="round" stroke-linejoin="round" stroke-width="0.78"/><polygon points="372.08 259.33 332.9 290.93 328.76 299.08 372.08 263.75 372.08 259.33" fill="#fff" stroke="#fff" stroke-linecap="round" stroke-linejoin="round" stroke-width="0.78"/><polygon points="352.76 281.87 353.1 313.45 350.31 318.11 349.94 284.1 352.76 281.87" fill="#fff" stroke="#fff" stroke-linecap="round" stroke-linejoin="round" stroke-width="0.78"/><polygon points="348.44 285.1 348.81 318.99 346.01 323.64 345.62 287.33 348.44 285.1" fill="#fff" stroke="#fff" stroke-linecap="round" stroke-linejoin="round" stroke-width="0.78"/><polygon points="360.26 301.93 368.87 284.12 367.56 305.7 360.26 301.93" fill="#fff" stroke="#fff" stroke-linecap="round" stroke-linejoin="round" stroke-width="0.78"/><polygon points="365.14 310.48 346.06 327.66 351.87 330.78 365.14 310.48" fill="#fff" stroke="#fff" stroke-linecap="round" stroke-linejoin="round" stroke-width="0.78"/><polygon points="342.82 332.63 332.52 351.26 338.53 355.14 342.82 332.63" fill="#fff" stroke="#fff" stroke-linecap="round" stroke-linejoin="round" stroke-width="0.78"/><polygon points="335.57 360.3 318.15 373.32 323.9 378.06 335.57 360.3" fill="#fff" stroke="#fff" stroke-linecap="round" stroke-linejoin="round" stroke-width="0.78"/><polygon points="308.99 398.56 315.39 379.13 303.81 393.78 308.99 398.56" fill="#fff" stroke="#fff" stroke-linecap="round" stroke-linejoin="round" stroke-width="0.78"/><polygon points="286.91 419.78 290.06 423.04 294.73 422.99 305.94 402.87 286.91 419.78" fill="#fff" stroke="#fff" stroke-linecap="round" stroke-linejoin="round" stroke-width="0.78"/><polygon points="318.52 317.04 314.79 323.4 310.89 381.46 315 377.19 318.52 317.04" fill="#fff" stroke="#fff" stroke-linecap="round" stroke-linejoin="round" stroke-width="0.78"/><polygon points="312.89 325.29 309.17 331.65 304.87 388.58 308.98 383.92 312.89 325.29" fill="#fff" stroke="#fff" stroke-linecap="round" stroke-linejoin="round" stroke-width="0.78"/><polygon points="292.94 358.18 305.97 352.17 305.67 356.01 290.65 362.94 292.94 358.18" fill="#fff" stroke="#fff" stroke-linecap="round" stroke-linejoin="round" stroke-width="0.78"/><polygon points="288.35 369.11 290.35 364.84 305.46 358.05 305.14 361.7 288.35 369.11" fill="#fff" stroke="#fff" stroke-linecap="round" stroke-linejoin="round" stroke-width="0.78"/><polygon points="318.42 346.3 339.17 336 336.26 340.54 318.28 349.56 318.42 346.3" fill="#fff" stroke="#fff" stroke-linecap="round" stroke-linejoin="round" stroke-width="0.78"/><polygon points="318.3 351.2 335.26 342.92 331.66 348.8 317.96 355.36 318.3 351.2" fill="#fff" stroke="#fff" stroke-linecap="round" stroke-linejoin="round" stroke-width="0.78"/><polygon points="248.76 419.92 300.31 395.27 297.31 400.88 248.8 423.48 248.76 419.92" fill="#fff" stroke="#fff" stroke-linecap="round" stroke-linejoin="round" stroke-width="0.78"/><polygon points="248.82 425.28 296.88 402.97 294.02 407.85 255.94 425.1 248.82 425.28" fill="#fff" stroke="#fff" stroke-linecap="round" stroke-linejoin="round" stroke-width="0.78"/><polygon points="274.99 386.27 279.43 379.51 275.92 404.97 271.69 407.22 274.99 386.27" fill="#fff" stroke="#fff" stroke-linecap="round" stroke-linejoin="round" stroke-width="0.78"/><polygon points="275.31 417.97 274.8 423.7 270.53 423.74 271 420.11 275.31 417.97" fill="#fff" stroke="#fff" stroke-linecap="round" stroke-linejoin="round" stroke-width="0.78"/><polygon points="272.98 389.27 269.36 394.67 266.86 409.36 270.14 407.7 272.98 389.27" fill="#fff" stroke="#fff" stroke-linecap="round" stroke-linejoin="round" stroke-width="0.78"/><polygon points="269.43 420.89 269.02 423.7 264.58 423.86 264.93 422.94 269.43 420.89" fill="#fff" stroke="#fff" stroke-linecap="round" stroke-linejoin="round" stroke-width="0.78"/><polygon points="371.52 309.59 369.54 306.91 366.35 311.61 371.52 318.17 371.52 309.59" fill="#fff" stroke="#fff" stroke-linecap="round" stroke-linejoin="round" stroke-width="0.78"/><polygon points="371.31 325.45 364 316.42 361.48 319.98 371.18 332.01 371.31 331.81 371.31 325.45" fill="#fff" stroke="#fff" stroke-linecap="round" stroke-linejoin="round" stroke-width="0.78"/><polygon points="359.41 323.82 357.28 326.86 366.13 338.95 368.32 336.08 359.41 323.82" fill="#fff" stroke="#fff" stroke-linecap="round" stroke-linejoin="round" stroke-width="0.78"/><polygon points="354.99 330.75 352.17 333.63 361.76 346.06 364.4 342.96 354.99 330.75" fill="#fff" stroke="#fff" stroke-linecap="round" stroke-linejoin="round" stroke-width="0.78"/><polygon points="350.85 337.81 347.62 341.15 356.26 354.1 358.85 351.11 350.85 337.81" fill="#fff" stroke="#fff" stroke-linecap="round" stroke-linejoin="round" stroke-width="0.78"/><polygon points="346.25 345.49 343.28 348.65 351.45 361.89 354.03 358.39 346.25 345.49" fill="#fff" stroke="#fff" stroke-linecap="round" stroke-linejoin="round" stroke-width="0.78"/><polygon points="341.45 353.77 339.4 357.18 345.89 369.53 348.19 366.14 341.45 353.77" fill="#fff" stroke="#fff" stroke-linecap="round" stroke-linejoin="round" stroke-width="0.78"/><polygon points="336.87 362.05 334.29 365.61 339.59 375.07 342.27 371.68 336.87 362.05" fill="#fff" stroke="#fff" stroke-linecap="round" stroke-linejoin="round" stroke-width="0.78"/><polygon points="332 370.08 329.64 373.01 334.5 385.14 337.6 381.92 332 370.08" fill="#fff" stroke="#fff" stroke-linecap="round" stroke-linejoin="round" stroke-width="0.78"/><polygon points="326.34 379.01 323.53 381.96 328.27 394.1 331.31 390.7 326.34 379.01" fill="#fff" stroke="#fff" stroke-linecap="round" stroke-linejoin="round" stroke-width="0.78"/><polygon points="320.16 386.63 317.12 390.17 322.11 403.85 325.43 400.39 320.16 386.63" fill="#fff" stroke="#fff" stroke-linecap="round" stroke-linejoin="round" stroke-width="0.78"/><polygon points="313.66 396.82 310.68 400.5 316.06 413.66 319.04 409.97 313.66 396.82" fill="#fff" stroke="#fff" stroke-linecap="round" stroke-linejoin="round" stroke-width="0.78"/><polygon points="307.6 404.75 304.52 409.73 309.98 422.38 312.11 422.35 314.53 419.25 307.6 404.75" fill="#fff" stroke="#fff" stroke-linecap="round" stroke-linejoin="round" stroke-width="0.78"/><polygon points="301.73 415.46 298.99 419.76 300.96 422.92 305.06 422.88 305.73 421.44 301.73 415.46" fill="#fff" stroke="#fff" stroke-linecap="round" stroke-linejoin="round" stroke-width="0.78"/><path d="M371.24,340.73l-10.4,15.65s5.74,2.54,10.4.45Z" fill="#fff" stroke="#fff" stroke-linecap="round" stroke-linejoin="round" stroke-width="0.78"/><path d="M334.57,391.76l12-15.1s7.95,6.08,2.47,13.92S334.57,391.76,334.57,391.76Z" fill="#fff" stroke="#fff" stroke-linecap="round" stroke-linejoin="round" stroke-width="0.78"/><path d="M348.29,375l10.64-16.54s8.72,7,3.88,13.9S348.29,375,348.29,375Z" fill="#fff" stroke="#fff" stroke-linecap="round" stroke-linejoin="round" stroke-width="0.78"/><path d="M333.8,394.49l-10.92,17s9.73,4.67,14.35-2.86S333.8,394.49,333.8,394.49Z" fill="#fff" stroke="#fff" stroke-linecap="round" stroke-linejoin="round" stroke-width="0.78"/><path d="M317.46,421.84l4-7.34s4.81.3,5.32,7.24Z" fill="#fff" stroke="#fff" stroke-linecap="round" stroke-linejoin="round" stroke-width="0.78"/><path d="M341.73,405s10,4.37,11.4,17.91l-7.54.08s-1.36-8.19-7.67-10.41Z" fill="#fff" stroke="#fff" stroke-linecap="round" stroke-linejoin="round" stroke-width="0.78"/><path d="M347.62,395s14.66,5.11,13.93,27.32" fill="none" stroke="#fff" stroke-linejoin="round" stroke-width="1.56"/><path d="M364.73,373.62a27.44,27.44,0,0,1,6.5,5.39" fill="none" stroke="#fff" stroke-linejoin="round" stroke-width="1.56"/><path d="M290.93,230.19l-.17-15.86,1.92,0,2.62,9.05h0l-.1-9.08,1.87,0,.17,15.86-1.8,0-2.75-9.88h0l.11,9.91Z" fill="#fff"/><path d="M292.44,249.71l-.17-15.86,5.79-.06,0,2.37-3.72,0,.05,4.09,2.77,0,0,2.37-2.78,0,.08,7Z" fill="#fff"/><rect x="242.98" y="121.96" width="4.73" height="4.73" transform="translate(505.8 35.96) rotate(134.38)" stroke-width="0.78" stroke="#fff" stroke-linecap="round" stroke-linejoin="round" fill="#fff"/><polygon points="220.53 112.18 235.44 120.04 218.46 120.22 220.53 112.18" fill="#fff" stroke="#fff" stroke-linecap="round" stroke-linejoin="round" stroke-width="0.78"/><polygon points="240.54 110.74 232.81 117.2 237.35 120.02 244.11 114.82 240.54 110.74" fill="#fff" stroke="#fff" stroke-linecap="round" stroke-linejoin="round" stroke-width="0.78"/><polygon points="245.23 113.85 242.88 111.28 247.58 111.23 245.29 113.85 245.29 113.92 245.26 113.89 245.23 113.92 245.23 113.85" fill="#fff" stroke="#fff" stroke-linecap="round" stroke-linejoin="round" stroke-width="0.78"/><polygon points="234.88 106.96 228.09 103.71 223.39 112.15 228.51 114.95 234.88 106.96" fill="#fff" stroke="#fff" stroke-linecap="round" stroke-linejoin="round" stroke-width="0.78"/><polygon points="243.52 132.79 238.52 121.7 235.09 126.82 243.52 132.79" fill="#fff" stroke="#fff" stroke-linecap="round" stroke-linejoin="round" stroke-width="0.78"/><polygon points="215.74 119.01 198.92 110.67 199 118.4 215.74 119.01" fill="#fff" stroke="#fff" stroke-linecap="round" stroke-linejoin="round" stroke-width="0.78"/><polygon points="221.13 102.51 213.86 99.56 210.84 109.96 216.54 111.57 221.13 102.51" fill="#fff" stroke="#fff" stroke-linecap="round" stroke-linejoin="round" stroke-width="0.78"/><polygon points="205.9 95.83 199.63 95.21 199.78 109 204.38 109.2 205.9 95.83" fill="#fff" stroke="#fff" stroke-linecap="round" stroke-linejoin="round" stroke-width="0.78"/><polygon points="194.81 110.72 175.19 114.55 177.42 122.35 194.81 110.72" fill="#fff" stroke="#fff" stroke-linecap="round" stroke-linejoin="round" stroke-width="0.78"/><polygon points="191.22 95.3 192.25 109.72 186.79 110.81 184.28 95.96 191.22 95.3" fill="#fff" stroke="#fff" stroke-linecap="round" stroke-linejoin="round" stroke-width="0.78"/><polygon points="173.35 98.43 179.66 111.96 175.16 112.67 167.41 100.74 173.35 98.43" fill="#fff" stroke="#fff" stroke-linecap="round" stroke-linejoin="round" stroke-width="0.78"/><polygon points="161.17 103.35 169.33 115.69 165.34 117.59 155.33 106.2 161.17 103.35" fill="#fff" stroke="#fff" stroke-linecap="round" stroke-linejoin="round" stroke-width="0.78"/><polygon points="172.64 123.48 152.9 125.94 156.98 131.96 172.64 123.48" fill="#fff" stroke="#fff" stroke-linecap="round" stroke-linejoin="round" stroke-width="0.78"/><polygon points="146.29 129.63 131.2 145.64 136.33 149.4 146.29 129.63" fill="#fff" stroke="#fff" stroke-linecap="round" stroke-linejoin="round" stroke-width="0.78"/><polygon points="159.12 119.61 149.03 110.18 144.37 113 154.7 122.07 159.12 119.61" fill="#fff" stroke="#fff" stroke-linecap="round" stroke-linejoin="round" stroke-width="0.78"/><polygon points="149.67 124.53 137.9 115.93 132.88 119.89 146.27 127.34 149.67 124.53" fill="#fff" stroke="#fff" stroke-linecap="round" stroke-linejoin="round" stroke-width="0.78"/><polygon points="141.38 132.13 128 124.52 124.67 128.44 137.51 135.74 141.38 132.13" fill="#fff" stroke="#fff" stroke-linecap="round" stroke-linejoin="round" stroke-width="0.78"/><polygon points="133.11 140.6 119.67 133.88 116.59 138.61 129.9 144.25 133.11 140.6" fill="#fff" stroke="#fff" stroke-linecap="round" stroke-linejoin="round" stroke-width="0.78"/><polygon points="126.1 149.51 111.6 144.44 108.37 149.31 123.14 154.19 126.1 149.51" fill="#fff" stroke="#fff" stroke-linecap="round" stroke-linejoin="round" stroke-width="0.78"/><polygon points="126.74 153.07 117.48 172.19 125.87 173.06 126.74 153.07" fill="#fff" stroke="#fff" stroke-linecap="round" stroke-linejoin="round" stroke-width="0.78"/><polygon points="120.44 160.24 118.32 164.72 102.27 161.28 104.49 155.47 120.44 160.24" fill="#fff" stroke="#fff" stroke-linecap="round" stroke-linejoin="round" stroke-width="0.78"/><polygon points="117.43 167.86 115.39 172.21 100.47 173.34 100.9 168.03 117.43 167.86" fill="#fff" stroke="#fff" stroke-linecap="round" stroke-linejoin="round" stroke-width="0.78"/><polygon points="117.16 179.05 120.48 200.57 127.78 196.28 117.16 179.05" fill="#fff" stroke="#fff" stroke-linecap="round" stroke-linejoin="round" stroke-width="0.78"/><polygon points="115.45 177.99 115.5 182.2 100.62 187.18 99.95 181.16 115.45 177.99" fill="#fff" stroke="#fff" stroke-linecap="round" stroke-linejoin="round" stroke-width="0.78"/><polygon points="116.27 187.01 117.16 191.94 102.68 199.68 100.69 193.44 116.27 187.01" fill="#fff" stroke="#fff" stroke-linecap="round" stroke-linejoin="round" stroke-width="0.78"/><polygon points="117.74 196.62 118.48 202.03 106.89 210.46 104.66 204.47 117.74 196.62" fill="#fff" stroke="#fff" stroke-linecap="round" stroke-linejoin="round" stroke-width="0.78"/><polygon points="124.21 208.83 120.92 205.5 111.69 214.75 115.89 219.52 124.21 208.83" fill="#fff" stroke="#fff" stroke-linecap="round" stroke-linejoin="round" stroke-width="0.78"/><polygon points="151.74 172.78 184.54 120.59 188.46 120.55 162.19 161.91 151.74 172.78" fill="#fff" stroke="#fff" stroke-linecap="round" stroke-linejoin="round" stroke-width="0.78"/><polygon points="165.38 160.04 190.22 120.53 194.13 120.48 172.97 154.74 165.38 160.04" fill="#fff" stroke="#fff" stroke-linecap="round" stroke-linejoin="round" stroke-width="0.78"/><path d="M146.83,180.29S128.31,200.34,122.69,208L121,216.19l-2.31,9.14s15.46-21.49,23.34-29Z" fill="#fff" stroke="#fff" stroke-linecap="round" stroke-linejoin="round" stroke-width="0.78"/><polygon points="221.6 122.17 244.64 164.34 236.91 157.8 218.08 121.92 221.6 122.17" fill="#fff" stroke="#fff" stroke-linecap="round" stroke-linejoin="round" stroke-width="0.78"/><polygon points="216.48 121.93 234.82 157.04 229.8 153.71 213.28 121.44 216.48 121.93" fill="#fff" stroke="#fff" stroke-linecap="round" stroke-linejoin="round" stroke-width="0.78"/><polygon points="243.53 134.34 231.68 137.76 232.94 140.15 244.82 136.6 243.53 134.34" fill="#fff" stroke="#fff" stroke-linecap="round" stroke-linejoin="round" stroke-width="0.78"/><polygon points="245.49 137.85 233.63 141.27 234.9 143.66 245.51 140.01 245.49 137.85" fill="#fff" stroke="#fff" stroke-linecap="round" stroke-linejoin="round" stroke-width="0.78"/><polygon points="221.66 140.95 201.57 146.83 210.69 146.92 222.94 143.21 221.66 140.95" fill="#fff" stroke="#fff" stroke-linecap="round" stroke-linejoin="round" stroke-width="0.78"/><polygon points="223.56 144.42 212.99 147.51 219.42 148.32 224.84 146.67 223.56 144.42" fill="#fff" stroke="#fff" stroke-linecap="round" stroke-linejoin="round" stroke-width="0.78"/><polygon points="225.27 147.98 227.51 152.29 220.84 149.37 225.27 147.98" fill="#fff" stroke="#fff" stroke-linecap="round" stroke-linejoin="round" stroke-width="0.78"/><polygon points="245.98 183.74 240.11 202.74 246.26 209.92 245.98 183.74" fill="#fff" stroke="#fff" stroke-linecap="round" stroke-linejoin="round" stroke-width="0.78"/><path d="M246,181.48l-16.23,10.57,3.06-23.33S238.7,171.89,246,181.48Z" fill="#fff" stroke="#fff" stroke-linecap="round" stroke-linejoin="round" stroke-width="0.78"/><path d="M231.63,167.7l-17.06,16.38-10-23.67S220.34,159.45,231.63,167.7Z" fill="#fff" stroke="#fff" stroke-linecap="round" stroke-linejoin="round" stroke-width="0.78"/><polygon points="238.64 161.35 245.8 167.11 241.07 173 234.25 167.38 238.64 161.35" fill="#fff" stroke="#fff" stroke-linecap="round" stroke-linejoin="round" stroke-width="0.78"/><polygon points="229.33 154.91 220.86 151.14 217.53 159.49 225.93 162.54 229.33 154.91" fill="#fff" stroke="#fff" stroke-linecap="round" stroke-linejoin="round" stroke-width="0.78"/><polygon points="209.75 148.62 208.08 158.66 199.71 158.75 198.92 148.44 209.75 148.62" fill="#fff" stroke="#fff" stroke-linecap="round" stroke-linejoin="round" stroke-width="0.78"/><path d="M202.42,160.41l-6.7,23.87-21.95-14S186.81,159.66,202.42,160.41Z" fill="#fff" stroke="#fff" stroke-linecap="round" stroke-linejoin="round" stroke-width="0.78"/><polygon points="187.41 150.56 189.42 160.49 181.65 163.51 176.84 154.28 187.41 150.56" fill="#fff" stroke="#fff" stroke-linecap="round" stroke-linejoin="round" stroke-width="0.78"/><path d="M172,171.28l7.93,25.16-24.67,1.1S158.62,179.8,172,171.28Z" fill="#fff" stroke="#fff" stroke-linecap="round" stroke-linejoin="round" stroke-width="0.78"/><polygon points="166.5 160.74 171.69 169.35 165.06 174.27 158.49 167.67 166.5 160.74" fill="#fff" stroke="#fff" stroke-linecap="round" stroke-linejoin="round" stroke-width="0.78"/><polygon points="158.09 183.96 154.37 193.46 145.99 189.52 149.14 179.21 158.09 183.96" fill="#fff" stroke="#fff" stroke-linecap="round" stroke-linejoin="round" stroke-width="0.78"/><path d="M154.78,200.2,175.67,215,154,223.89S152.81,208.43,154.78,200.2Z" fill="#fff" stroke="#fff" stroke-linecap="round" stroke-linejoin="round" stroke-width="0.78"/><polygon points="142.19 203.22 151.7 205.66 151.28 215.69 141.65 215.79 142.19 203.22" fill="#fff" stroke="#fff" stroke-linecap="round" stroke-linejoin="round" stroke-width="0.78"/><path d="M154.5,226.92l21.37,7.1L158,248.29A78.19,78.19,0,0,1,154.5,226.92Z" fill="#fff" stroke="#fff" stroke-linecap="round" stroke-linejoin="round" stroke-width="0.78"/><path d="M158.43,250.22l23.72,1.91-16.92,16.26S159.75,257.91,158.43,250.22Z" fill="#fff" stroke="#fff" stroke-linecap="round" stroke-linejoin="round" stroke-width="0.78"/><polygon points="152.27 229.69 153.86 240.4 144.25 241.81 141.81 230.56 152.27 229.69" fill="#fff" stroke="#fff" stroke-linecap="round" stroke-linejoin="round" stroke-width="0.78"/><polygon points="156.58 252.55 160.5 262.89 151.66 266.5 147.6 256.06 156.58 252.55" fill="#fff" stroke="#fff" stroke-linecap="round" stroke-linejoin="round" stroke-width="0.78"/><path d="M166.11,270.8l23.27-1.18-14.66,18.76A79.91,79.91,0,0,1,166.11,270.8Z" fill="#fff" stroke="#fff" stroke-linecap="round" stroke-linejoin="round" stroke-width="0.78"/><polygon points="165.3 274.66 170.21 284.27 161.31 288.52 156.53 278.6 165.3 274.66" fill="#fff" stroke="#fff" stroke-linecap="round" stroke-linejoin="round" stroke-width="0.78"/><path d="M175.7,290.75l22.67-4L184.81,305.9A102.28,102.28,0,0,1,175.7,290.75Z" fill="#fff" stroke="#fff" stroke-linecap="round" stroke-linejoin="round" stroke-width="0.78"/><polygon points="176.54 296.48 181.98 305.93 173.66 310.34 168.02 300.55 176.54 296.48" fill="#fff" stroke="#fff" stroke-linecap="round" stroke-linejoin="round" stroke-width="0.78"/><path d="M185.93,307.93l22.38-1.07-11.69,17.81A111.86,111.86,0,0,1,185.93,307.93Z" fill="#fff" stroke="#fff" stroke-linecap="round" stroke-linejoin="round" stroke-width="0.78"/><polygon points="188.02 315.92 193.65 324.7 186.16 329.37 180.38 320.66 188.02 315.92" fill="#fff" stroke="#fff" stroke-linecap="round" stroke-linejoin="round" stroke-width="0.78"/><path d="M198.13,327.36l22.36-5.07-11.8,19.93S203.1,337.16,198.13,327.36Z" fill="#fff" stroke="#fff" stroke-linecap="round" stroke-linejoin="round" stroke-width="0.78"/><polygon points="200.52 335.56 206.28 343.87 198.37 349.49 192.34 340.78 200.52 335.56" fill="#fff" stroke="#fff" stroke-linecap="round" stroke-linejoin="round" stroke-width="0.78"/><path d="M210.07,345.18l20.58-6.7-10.1,21.43S213.12,352.44,210.07,345.18Z" fill="#fff" stroke="#fff" stroke-linecap="round" stroke-linejoin="round" stroke-width="0.78"/><polygon points="213.28 355.13 220.6 364.5 210.34 370.55 205.37 360.08 213.28 355.13" fill="#fff" stroke="#fff" stroke-linecap="round" stroke-linejoin="round" stroke-width="0.78"/><polygon points="222 362.73 243.53 356.16 248.25 395.25 248.36 405.64 241.28 412.33 235.38 402.27 242.32 395.04 222 362.73" fill="#fff" stroke="#fff" stroke-linecap="round" stroke-linejoin="round" stroke-width="0.78"/><polygon points="227.67 375.5 234.53 386.22 227.17 391.97 219.77 381.52 227.67 375.5" fill="#fff" stroke="#fff" stroke-linecap="round" stroke-linejoin="round" stroke-width="0.78"/><polygon points="141.9 238.94 141.41 268.62 144.42 271.25 144.84 254.3 141.9 238.94" fill="#fff" stroke="#fff" stroke-linecap="round" stroke-linejoin="round" stroke-width="0.78"/><polygon points="146.22 256.55 146.03 272.43 149.04 275.05 149.35 265.38 146.22 256.55" fill="#fff" stroke="#fff" stroke-linecap="round" stroke-linejoin="round" stroke-width="0.78"/><polygon points="120.89 259.31 159.66 289.23 156.61 283.03 120.89 254.38 120.89 259.31" fill="#fff" stroke="#fff" stroke-linecap="round" stroke-linejoin="round" stroke-width="0.78"/><polygon points="120.89 265.67 165.94 300.82 161.62 292.77 120.89 261.34 120.89 265.67" fill="#fff" stroke="#fff" stroke-linecap="round" stroke-linejoin="round" stroke-width="0.78"/><polygon points="141.57 284.14 141.91 315.72 144.8 320.31 144.44 286.31 141.57 284.14" fill="#fff" stroke="#fff" stroke-linecap="round" stroke-linejoin="round" stroke-width="0.78"/><polygon points="145.96 287.27 146.32 321.17 149.22 325.76 148.83 289.44 145.96 287.27" fill="#fff" stroke="#fff" stroke-linecap="round" stroke-linejoin="round" stroke-width="0.78"/><polygon points="134.51 304.35 125.51 286.73 127.28 308.28 134.51 304.35" fill="#fff" stroke="#fff" stroke-linecap="round" stroke-linejoin="round" stroke-width="0.78"/><polygon points="129.81 313.01 149.26 329.77 143.52 333.02 129.81 313.01" fill="#fff" stroke="#fff" stroke-linecap="round" stroke-linejoin="round" stroke-width="0.78"/><polygon points="152.6 334.67 163.3 353.08 157.38 357.08 152.6 334.67" fill="#fff" stroke="#fff" stroke-linecap="round" stroke-linejoin="round" stroke-width="0.78"/><polygon points="160.44 362.18 178.14 374.82 172.49 379.69 160.44 362.18" fill="#fff" stroke="#fff" stroke-linecap="round" stroke-linejoin="round" stroke-width="0.78"/><polygon points="187.84 399.87 181.02 380.57 192.92 394.97 187.84 399.87" fill="#fff" stroke="#fff" stroke-linecap="round" stroke-linejoin="round" stroke-width="0.78"/><polygon points="210.37 420.61 207.29 423.93 202.62 423.98 190.98 404.11 210.37 420.61" fill="#fff" stroke="#fff" stroke-linecap="round" stroke-linejoin="round" stroke-width="0.78"/><polygon points="176.56 318.57 180.43 324.85 185.57 382.8 181.37 378.62 176.56 318.57" fill="#fff" stroke="#fff" stroke-linecap="round" stroke-linejoin="round" stroke-width="0.78"/><polygon points="182.36 326.69 186.22 332.97 191.75 389.8 187.54 385.23 182.36 326.69" fill="#fff" stroke="#fff" stroke-linecap="round" stroke-linejoin="round" stroke-width="0.78"/><polygon points="203.02 359.15 189.86 353.42 190.25 357.25 205.41 363.86 203.02 359.15" fill="#fff" stroke="#fff" stroke-linecap="round" stroke-linejoin="round" stroke-width="0.78"/><polygon points="207.84 369.98 205.75 365.75 190.5 359.28 190.9 362.93 207.84 369.98" fill="#fff" stroke="#fff" stroke-linecap="round" stroke-linejoin="round" stroke-width="0.78"/><polygon points="177.29 347.82 156.32 337.97 159.33 342.44 177.5 351.07 177.29 347.82" fill="#fff" stroke="#fff" stroke-linecap="round" stroke-linejoin="round" stroke-width="0.78"/><polygon points="177.51 352.71 160.38 344.8 164.11 350.59 177.95 356.86 177.51 352.71" fill="#fff" stroke="#fff" stroke-linecap="round" stroke-linejoin="round" stroke-width="0.78"/><polygon points="248.51 419.93 196.45 396.38 199.57 401.93 248.55 423.49 248.51 419.93" fill="#fff" stroke="#fff" stroke-linecap="round" stroke-linejoin="round" stroke-width="0.78"/><polygon points="248.57 425.29 200.04 404.01 203 408.83 241.45 425.26 248.57 425.29" fill="#fff" stroke="#fff" stroke-linecap="round" stroke-linejoin="round" stroke-width="0.78"/><polygon points="221.57 386.85 216.99 380.18 221.04 405.56 225.32 407.72 221.57 386.85" fill="#fff" stroke="#fff" stroke-linecap="round" stroke-linejoin="round" stroke-width="0.78"/><polygon points="221.93 418.54 222.56 424.26 226.83 424.21 226.28 420.59 221.93 418.54" fill="#fff" stroke="#fff" stroke-linecap="round" stroke-linejoin="round" stroke-width="0.78"/><polygon points="223.64 389.8 227.38 395.12 230.19 409.75 226.87 408.17 223.64 389.8" fill="#fff" stroke="#fff" stroke-linecap="round" stroke-linejoin="round" stroke-width="0.78"/><polygon points="227.87 421.34 228.34 424.14 232.79 424.2 232.42 423.29 227.87 421.34" fill="#fff" stroke="#fff" stroke-linecap="round" stroke-linejoin="round" stroke-width="0.78"/><path d="M124,319.65c0,.24,0,.47,0,.7l4.67-6.19-3.3-4.63-1.38,2Z" fill="#fff" stroke="#fff" stroke-linecap="round" stroke-linejoin="round" stroke-width="0.78"/><polygon points="131.07 318.92 123.68 328.47 123.68 333.87 124.24 334.66 133.68 322.43 131.07 318.92" fill="#fff" stroke="#fff" stroke-linecap="round" stroke-linejoin="round" stroke-width="0.78"/><polygon points="135.82 326.22 138.02 329.21 129.44 341.5 127.19 338.67 135.82 326.22" fill="#fff" stroke="#fff" stroke-linecap="round" stroke-linejoin="round" stroke-width="0.78"/><polygon points="140.4 333.05 143.27 335.88 133.96 348.51 131.25 345.46 140.4 333.05" fill="#fff" stroke="#fff" stroke-linecap="round" stroke-linejoin="round" stroke-width="0.78"/><polygon points="144.69 340.02 147.98 343.29 139.62 356.42 136.97 353.49 144.69 340.02" fill="#fff" stroke="#fff" stroke-linecap="round" stroke-linejoin="round" stroke-width="0.78"/><polygon points="149.45 347.6 152.49 350.7 144.6 364.12 141.94 360.67 149.45 347.6" fill="#fff" stroke="#fff" stroke-linecap="round" stroke-linejoin="round" stroke-width="0.78"/><polygon points="154.42 355.78 156.55 359.15 150.32 371.63 147.95 368.3 154.42 355.78" fill="#fff" stroke="#fff" stroke-linecap="round" stroke-linejoin="round" stroke-width="0.78"/><polygon points="159.18 363.96 161.84 367.46 156.74 377.03 153.99 373.7 159.18 363.96" fill="#fff" stroke="#fff" stroke-linecap="round" stroke-linejoin="round" stroke-width="0.78"/><polygon points="164.22 371.88 166.65 374.76 162.05 387 158.88 383.84 164.22 371.88" fill="#fff" stroke="#fff" stroke-linecap="round" stroke-linejoin="round" stroke-width="0.78"/><polygon points="170.07 380.69 172.95 383.58 168.47 395.81 165.35 392.49 170.07 380.69" fill="#fff" stroke="#fff" stroke-linecap="round" stroke-linejoin="round" stroke-width="0.78"/><polygon points="176.42 388.17 179.53 391.65 174.84 405.43 171.44 402.05 176.42 388.17" fill="#fff" stroke="#fff" stroke-linecap="round" stroke-linejoin="round" stroke-width="0.78"/><polygon points="183.13 398.22 186.19 401.83 181.09 415.11 178.03 411.49 183.13 398.22" fill="#fff" stroke="#fff" stroke-linecap="round" stroke-linejoin="round" stroke-width="0.78"/><polygon points="189.36 406.01 192.55 410.93 187.36 423.69 185.23 423.71 182.75 420.67 189.36 406.01" fill="#fff" stroke="#fff" stroke-linecap="round" stroke-linejoin="round" stroke-width="0.78"/><polygon points="195.46 416.6 198.3 420.84 196.4 424.05 192.29 424.09 191.6 422.67 195.46 416.6" fill="#fff" stroke="#fff" stroke-linecap="round" stroke-linejoin="round" stroke-width="0.78"/><path d="M124.33,343.33s-.38.39-.92,1.05V358.8c4.89,3.2,11.68,0,11.68,0Z" fill="#fff" stroke="#fff" stroke-linecap="round" stroke-linejoin="round" stroke-width="0.78"/><path d="M162.12,393.61l-12.34-14.83s-7.81,6.24-2.16,14S162.12,393.61,162.12,393.61Z" fill="#fff" stroke="#fff" stroke-linecap="round" stroke-linejoin="round" stroke-width="0.78"/><path d="M148.05,377.12l-11-16.31s-8.57,7.15-3.59,14S148.05,377.12,148.05,377.12Z" fill="#fff" stroke="#fff" stroke-linecap="round" stroke-linejoin="round" stroke-width="0.78"/><path d="M163,396.32l11.28,16.73s-9.63,4.88-14.41-2.54S163,396.32,163,396.32Z" fill="#fff" stroke="#fff" stroke-linecap="round" stroke-linejoin="round" stroke-width="0.78"/><path d="M179.87,423.31l-4.18-7.24s-4.8.4-5.16,7.34Z" fill="#fff" stroke="#fff" stroke-linecap="round" stroke-linejoin="round" stroke-width="0.78"/><path d="M155.24,407s-9.86,4.59-11,18.15l7.54-.08s1.19-8.21,7.44-10.57Z" fill="#fff" stroke="#fff" stroke-linecap="round" stroke-linejoin="round" stroke-width="0.78"/><path d="M149.14,397.08s-14.55,5.42-13.34,27.62" fill="none" stroke="#fff" stroke-linejoin="round" stroke-width="1.56"/><path d="M131.57,376.12a30.38,30.38,0,0,0-8.16,7.69" fill="none" stroke="#fff" stroke-linejoin="round" stroke-width="1.56"/><path d="M195.78,231.21l-.17-15.86,2.07,0,.17,15.86Z" fill="#fff"/><path d="M214.15,215.15l3.08,0c2.22,0,3.23,1.46,3.25,4.16,0,1.36-.4,2.8-1.4,3.33,1.06.61,1.69,1.7,1.72,3.74,0,2.62-.84,4.6-3.2,4.63l-3.28,0Zm2.15,6.48h.75c.78,0,1.38-.71,1.36-2,0-1.47-.45-2.24-1.37-2.23h-.79Zm.07,7.12h.87c1.11,0,1.5-.85,1.48-2.45s-.49-2.44-1.73-2.42h-.67Z" fill="#fff"/><path d="M223.55,230.92l-.17-15.87,5.55-.06,0,2.38-3.48,0,0,4.09,2.68,0,0,2.37-2.67,0,0,4.66,3.71,0,0,2.37Z" fill="#fff"/><path d="M231.6,230.83,231.43,215l2.07,0,.15,13.49,3.26,0,0,2.37Z" fill="#fff"/><path d="M239.58,230.74l-.17-15.86,2.08,0,.17,15.86Z" fill="#fff"/><path d="M244.4,230.69l-.17-15.86,5.55-.06,0,2.37-3.47,0,0,4.09,2.68,0,0,2.37-2.67,0,0,4.66,3.71,0,0,2.37Z" fill="#fff"/><path d="M257.31,214.69l2,0L257,230.56l-2.07,0-2.7-15.84,2,0,1.63,11h0Z" fill="#fff"/><path d="M262,230.5l-.17-15.86,5.55-.06,0,2.37-3.48,0,0,4.09,2.68,0,0,2.37-2.67,0,0,4.66,3.71,0,0,2.37Z" fill="#fff"/><path d="M284.41,230.26l-.17-15.86,2.07,0,.17,15.86Z" fill="#fff"/><path d="M197.85,237.24l-2,0,0-2.37,6.08-.07,0,2.37-2,0,.15,13.49-2.08,0Z" fill="#fff"/><path d="M203.4,250.67l-.17-15.86,2.07,0,.07,6.46,2.21,0-.07-6.46,2.08,0,.17,15.86-2.08,0-.07-7-2.21,0,.08,7Z" fill="#fff"/><path d="M211.48,250.58l-.17-15.86,5.55-.06,0,2.37-3.48,0,0,4.09,2.68,0,0,2.37-2.67,0,.05,4.66,3.71,0,0,2.37Z" fill="#fff"/><path d="M229.39,250.39l-.17-15.86,3,0c2.56,0,3.76,1.25,3.8,4.64s-1.14,4.69-3.7,4.72h-.9l.07,6.5Zm2-8.77h.81c1.35,0,1.76-.57,1.74-2.46s-.44-2.44-1.8-2.42h-.8Z" fill="#fff"/><path d="M237.34,238.29c0-2.25,1-4.08,3.14-4.1s3.19,1.79,3.22,4l.08,8.17c0,2.24-1,4.08-3.13,4.1s-3.2-1.79-3.22-4Zm2.16,8.08c0,1.19.29,1.76,1.13,1.75s1.09-.59,1.08-1.77l-.09-8c0-1.19-.28-1.76-1.12-1.75s-1.1.58-1.08,1.77Z" fill="#fff"/><path d="M249,234.32l1.71,0,1.51,10.09h0l1-10.12,1.94,0-2,15.88-1.74,0-1.62-10.46h0l-1.29,10.49-1.74,0-2.46-15.84,1.94,0,1.38,10.1h0Z" fill="#fff"/><path d="M256.81,250.1l-.17-15.87,5.55-.06,0,2.38-3.48,0,0,4.09,2.68,0,0,2.37-2.67,0,.05,4.66,3.71,0,0,2.37Z" fill="#fff"/><path d="M266,250,264,250l-.17-15.86,2.91,0c2.33,0,3.53,1.25,3.56,4.64,0,2.55-.71,3.59-1.41,4l1.84,7.17-2.11,0L267,243.42a8.35,8.35,0,0,1-1.07.07Zm-.1-8.75h.74c1.12,0,1.53-.57,1.51-2.46s-.44-2.43-1.56-2.42h-.74Z" fill="#fff"/><path d="M282.67,237.8c0-2.24,1-4.08,3.14-4.1s3.19,1.79,3.22,4l.09,8.17c0,2.25-1,4.08-3.14,4.1s-3.19-1.79-3.22-4Zm2.16,8.08c0,1.19.29,1.76,1.13,1.75s1.09-.58,1.08-1.77l-.08-8c0-1.19-.29-1.76-1.13-1.75s-1.1.59-1.08,1.77Z" fill="#fff"/><path d="M198.26,302.77l-.51-47.13,6.16-.06.43,40.07,9.69-.1.07,7.05Z" fill="#fff"/><path d="M223.43,266.79c-.07-6.66,2.85-12.11,9.31-12.17s9.5,5.31,9.57,12l.26,24.28c.07,6.66-2.85,12.11-9.31,12.18s-9.49-5.32-9.57-12Zm6.42,24c0,3.52.85,5.21,3.34,5.19s3.25-1.74,3.22-5.26l-.26-23.89c0-3.52-.85-5.21-3.33-5.19s-3.26,1.74-3.23,5.26Z" fill="#fff"/><path d="M265.18,254.92l6.06-.07-7,47.21-6.16.07-8-47,6.06-.06L261,287.67h.09Z" fill="#fff"/><path d="M281.6,301.87l-.5-47.12,16.49-.18.07,7.05-10.33.11.13,12.14,8-.08.07,7-7.94.08.15,13.84,11-.12.08,7.05Z" fill="#fff"/><path d="M127.41,432.56c-6.15-46.82-1.39-94.38-3.6-141.53" fill="none" stroke="#262521" stroke-linecap="round" stroke-linejoin="round" stroke-width="3"/><path d="M372.14,291.55q-.27,61.74-.62,123.47" fill="none" stroke="#262521" stroke-linecap="round" stroke-linejoin="round" stroke-width="3"/></svg>