<svg xmlns="http://www.w3.org/2000/svg" width="500" height="550" viewBox="0 0 500 550"><title>s05e07-01</title><rect x="198.1" y="65.67" width="109.45" height="38.7" fill="#fff"/><path d="M284.66,53.19c-18.12,10.43-41.21,7.31-61.25,4.88C216,56.81,209.25,54,204,48.4l-.42.07s3.55,36.22,43.55,34.4,44.51-34.4,44.51-34.4A36,36,0,0,1,284.66,53.19Z" fill="#fff" stroke="#262521" stroke-linecap="round" stroke-linejoin="round" stroke-width="3.07"/><path d="M291.48,48.63c29.12,10.49,61,14.41,87.44,31.58,15.94,14.59,21.63,38,30.45,57.21,27.81,67.48,58,137.39,51.05,212.08-1.19,18.65-.23,37.45-3.28,55.95-.49,4.66-5.21,7.1-5.56,11.78-1.22,5.28-2.08,10.65-2.91,16-.4,2.6-.41,2.83-3.08,2.33-12.48-2.66-25.26-5.49-37.8-1.58-8.34-.15-8.13-15.56-11.44-21.4-6.28-7.37-3.61-9-5.33-17.64-.9-9.7-4.68-20.27.79-29.26,2-3.53,1.86-7.05.51-10.66-4.9-11.28-7.4-23.41-10.45-35.29-1.07-4.3-1.31-8.49,1.61-12.34,1.51-7.23-10.43-8.68-10.93-15.93l-.41.08q-.27,61.74-.62,123.47c-.81,9-2.68,16.41-3.55,25.44-1,10.07,1.34,17.05-1.5,25.63-.59,1.77-2,1.67-3.35,1.44-44.59-7.74-101.66-5.72-146.65-2.92-24.6.57-58.62-1.68-83,2.09-5.23.59-5.68.27-6.62-4.83-1.35-11.26,1.94-18.53.53-29.31-6.15-46.82-1.39-94.37-3.6-141.53-1.42,2.83-2.94,5.6-4.29,8.46-2.37,10.67-17.5,9.3-11.81,16.18,11.11,7.95,6.41,21.38,5.15,32.56-.25,3.15-1.35,6.27-.37,9.58.51,8.44-3.19,16.94-4.38,25.31-1.5,8-2.61,15.83-1.54,23.93a5.1,5.1,0,0,1-1.13,3.3c-5.71,6.28-7.75,14-9.19,22.06-.57,3.18-.61,3-3.74,2-12.38-3.52-26.09-4.38-38.6-1.18-1.39.34-2.11,0-2.41-1.47-2-7.76-2.18-16.67-8.49-22.43a6.62,6.62,0,0,1-1.33-3.22A144.46,144.46,0,0,1,39,372.86c-1.91-63,2.6-126.93,26.19-186,13.61-35.43,24.56-73.32,48.07-103.67,27.32-18.2,60-23.76,90.46-34.78,0,0,4.7,48.42,44.37,46.6S291.48,48.63,291.48,48.63Z" fill="#262521" stroke="#262521" stroke-linecap="round" stroke-linejoin="round" stroke-width="3"/><path d="M51.32,409.51S80,400,96.47,412" fill="none" stroke="#636363" stroke-linecap="round" stroke-linejoin="round"/><path d="M402.18,412s25.94-8.31,43.55,0" fill="none" stroke="#636363" stroke-linecap="round" stroke-linejoin="round"/><path d="M133.45,438.85s155.28-12.31,227.71,2.37" fill="none" stroke="#636363" stroke-linecap="round" stroke-linejoin="round"/><rect x="247.06" y="138.48" width="4.95" height="8.44" fill="#fff"/><rect x="243.35" y="146.11" width="4.95" height="8.44" fill="#fff"/><rect x="250.65" y="146.11" width="4.95" height="8.44" fill="#fff"/><rect x="254.68" y="153.67" width="4.95" height="8.44" fill="#fff"/><rect x="239.37" y="153.67" width="4.95" height="8.44" fill="#fff"/><rect x="243.35" y="161.08" width="4.95" height="8.44" fill="#fff"/><rect x="250.65" y="161.08" width="4.95" height="8.44" fill="#fff"/><rect x="247.06" y="168.5" width="4.95" height="8.44" fill="#fff"/><path d="M353.64,150.69c1.86-1.23,10.62-6.8,10.84-9s-1.68-2.29-3.45-1.42-13.24,6.19-13.24,6.19l-.27,5.39s-6.19,3.24-7.18,2.64,7-6.55,7-6.55l.33-6.37a41.29,41.29,0,0,1-4.93,3c-1.84.83-8.46,5.45-8.46,5.45l.15-3s4.8-5.5,4.34-7.42c-.21-.89-4.23,1.62-4.23,1.62l-.33,5.09s-11.52,8.45-13.68,11.35l-.22,5.79-12.1,11.28-.12,5.56-14,14v3s-6,9-7,8.75,2.43-7.07,1.83-7.74-6.63,4.78-6.63,4.78a31.76,31.76,0,0,0,0-3.2c-.11-1.12-4.6,5.95-5.11,8.74s-.35,7.88-2.68,10.21A14.77,14.77,0,0,1,270.1,222l.08-1.7a14.19,14.19,0,0,0-3.76,1.47c-1.57,1-1.79,1.66-2.76,1.57s-5.71-7.49-5.71-7.49l.18-2.75h0a42.44,42.44,0,0,1-5.14-7.76c-1.59-3.52-2.88-7.39-6.55-7.55s-5.75,2.25-5.54,4.12,1.2,6.73.18,8.29a17,17,0,0,1-2.13,2.65h0l.11,2.75s-4.94,7.27-5.91,7.34-1.17-.62-2.71-1.64a14.35,14.35,0,0,0-3.72-1.57l0,1.7a14.51,14.51,0,0,1-4.33-3.26c-2.27-2.39-2-7.46-2.42-10.27s-4.74-10-4.87-8.87a31.2,31.2,0,0,0-.08,3.2s-5.89-5.61-6.51-4.95,2.58,7.6,1.63,7.78-6.77-8.93-6.77-8.93l.09-3-13.6-14.35,0-5.57L178.13,161.6l-.07-5.79c-2.09-3-13.38-11.71-13.38-11.71l-.2-5.09s-3.95-2.62-4.18-1.73c-.51,1.9,4.14,7.53,4.14,7.53l.08,3s-6.5-4.79-8.32-5.66a42.72,42.72,0,0,1-4.85-3.11l.16,6.37s7.82,6.16,6.8,6.73-7.11-2.83-7.11-2.83l-.13-5.39s-11.32-5.63-13.07-6.54-3.65-.83-3.49,1.33,8.78,8,10.61,9.24,2.84,2.25,2.19,2.52-6.53-2.89-9.35-4.32-3.22-.88-2.9,1.65,7.5,8.07,9.1,9.2,1.62,1.68.92,1.67-8.82-3.9-8.82-2.43,2.6,7.42,4.28,8.48,4.26,3.2,5.33,3.61,1.95,1.68,1.18,1.62-6.2-1.35-8.22-1.16-1.12,2,.39,5,8.09,5.48,9.24,6.14-.27.75-1.3.78-3.94-.53-6.32-.58-2.15.6-.08,4.26a10.39,10.39,0,0,0,5.5,4.67,2.76,2.76,0,0,0-2,1.55c-.44,1.29,1.7,3.63,3.18,5.61s6.45,2.74,6.45,2.74l0,.66s-4,.68-4,2.48,2.82,3.16,2.82,3.16c0,1.21,2.4,2,2.4,2s.25,4.17.28,5.35,2.85,1,2.85,1-2,1-2,2.25,1.81,3.4,3.07,4a5.84,5.84,0,0,0,5.47.24c2.24-1.16,3.46-.82,3.46-.82a6.22,6.22,0,0,1-2.43,2.66c-1.66.92-2.09,1.3-1.39,1.28l1.28,0s-3.74,1.6-3.69,3.8a3.57,3.57,0,0,0,2.65,3.27c.63.13,1.4-1.28,2.21.35s3.61,2.11,3.61,2.11l.12,4.88c2.2,0,2.33,1,2.48,2.54a2,2,0,0,0,2.1,2c.92,0,1-.36,2.36-1s1,1.22,1,2.1,1.43,2.71,2.49,2.69,2.67-1.75,2.67-1.75l.12,5,.66,0,.06.91c.06.92.39,1.1.39,1.1s-.26,2.79,1.17,2.75l2.75-.06a4.11,4.11,0,0,0,0,.8,3,3,0,0,0,1.66,1.76c.36,0,2.54-2.45,2.76-2.45a29.28,29.28,0,0,1,1.46,4s0,4.51.13,5.35a1.17,1.17,0,0,0,1.34,1.1c.66,0,1.54-1.72,2-1.95s.73,1.37.74,1.81,2.53,2.87,3.23,2.89,1.54-1.39,1.52-.66.09,3.74.09,3.74l3.2,1.72,1.85-2.22a6.41,6.41,0,0,1,1.61,1.22c.79.82,3.5,2.34,3.47,1.09s-.08-3.48-.08-3.48,1.75-1.73,2-1.89,4.08,1.85,4.48,1.88,1.81-1.3,1.81-1.3h2c.25,1.21,1.86,1.17,1.86,1.17l0-2,.87,1,1.12-.54c-1,1.74.44,1.79.44,1.79l-1.62,1.77s1.33,2.25,2,2,.66.24.66.24l-3.84,1.76.05,1.86-12.35,5.33.08,3.26s-3.52,1.46-5.23,2.22-4.78,2.2-4.78,2.2l-.05-3.36a26.43,26.43,0,0,1-3.61,1.79,25.71,25.71,0,0,0-4.73,2.95l-.13-5.15c-1.06.58-2.84,3.82-2.84,3.82v1h.69l0,1.8,1-.06s-2.46,4.86-2.35,6.95,3,4.72,3,4.72v.65s-1,.91-1,1.5-.19,3,.24,3,.78,1.25.78,1.25-.72-.14-.72.18.91.86.91.86,0,3,.14,5.81a2.84,2.84,0,0,0,3,2.7s.11,2.91.12,3.46,1.75,2.18,2.62,3a1,1,0,0,0,1.57.06,6.45,6.45,0,0,0,.14,1.82,11.33,11.33,0,0,0,1.24,2.58l0,3.3s2.56,2.16,3.9,2.22,2.69-1.14,3.18-.92,0,.75.07,1.46,4.08,3.86,4.08,3.86l-.06-3.5s2.59.27,4.48.25,3.92-2.67,4.69-4.75,1.62-1.77,1.62-1.77l0,.69c-.64.21-.36,2.69-.36,2.69s-1.33,1.5.27,1.46,1.35-3.33,1.35-3.33c.75,0,.81-2,.81-2s.63,1.78,1.8,1.75,4.32-4.36,4.54-4.16,0,.56.09,4.05,4.68,5.83,4.68,5.83l-.07-2.94c5,1.35,7.54-1.52,7.54-1.52,0,.46.88.56,1,.57h0c.12,0,1-.09,1-.54,0,0,2.47,2.93,7.5,1.72l-.15,2.93s4.62-2.22,4.83-5.7,0-3.84.21-4,3.25,4.22,4.42,4.28,1.85-1.7,1.85-1.7,0,1.93.75,2c0,0-.33,3.29,1.27,3.37s.3-1.46.3-1.46.36-2.46-.29-2.69v-.69s.86-.28,1.57,1.81,2.67,4.81,4.56,4.88,4.48-.14,4.48-.14l-.14,3.49s4.14-3,4.17-3.74-.39-1.26.11-1.46,1.81,1,3.15,1,4-2.12,4-2.12l.13-3.29a11.64,11.64,0,0,0,1.31-2.55,6.79,6.79,0,0,0,.19-1.82,1,1,0,0,0,1.57,0c.89-.8,2.67-2.38,2.69-2.93s.21-3.46.21-3.46a2.85,2.85,0,0,0,3.08-2.62c.24-2.8.29-5.8.29-5.8s.91-.51.92-.84-.7-.2-.7-.2.39-1.25.81-1.23.38-2.43.32-3-1-1.52-1-1.52l0-.66s3-2.56,3.14-4.64-2.16-7-2.16-7l1,.09.09-1.8h.68l0-1s-1.69-3.29-2.74-3.89l-.26,5.15a25.65,25.65,0,0,0-4.65-3.08,26.5,26.5,0,0,1-3.57-1.88l-.13,3.36s-3-1.53-4.72-2.33-5.18-2.36-5.18-2.36l.17-3.26-12.2-5.65.09-1.86L266.17,273s0-.52.66-.22,2.06-1.93,2.06-1.93l-1.57-1.81s1.47,0,.48-1.78l1.11.57.89-.94-.1,2s1.62.08,1.9-1.11l2,.06s1.36,1.35,1.76,1.34,4.32-1.91,4.53-1.75,1.93,1.93,1.93,1.93-.12,2.23-.18,3.48,2.69-.2,3.5-1a6.42,6.42,0,0,1,1.64-1.18l1.79,2.27,3.24-1.63s.19-3,.19-3.74.81.7,1.51.7,3.28-2.37,3.3-2.8.32-2,.79-1.8,1.29,2,1.95,2a1.19,1.19,0,0,0,1.38-1.07c.11-.84.27-5.35.27-5.35a29.37,29.37,0,0,1,1.56-4c.22,0,2.33,2.5,2.7,2.52a3,3,0,0,0,1.7-1.71,3.74,3.74,0,0,0,0-.81l2.75.14c1.43.07,1.24-2.73,1.24-2.73s.34-.16.42-1.08l.08-.91.66,0,.25-4.94s1.57,1.77,2.63,1.82,2.47-1.75,2.55-2.62-.3-2.77,1.1-2.08,1.42,1.07,2.33,1.08a2,2,0,0,0,2.16-1.92c.19-1.56.34-2.51,2.54-2.47l.25-4.87s2.81-.41,3.66-2,1.59-.18,2.22-.29a3.58,3.58,0,0,0,2.73-3.2c.12-2.2-3.58-3.89-3.58-3.89l1.28.06c.7,0,.28-.35-1.36-1.32a6.25,6.25,0,0,1-2.36-2.72s1.22-.31,3.44.91a5.85,5.85,0,0,0,5.47-.09c1.28-.56,3.15-2.67,3.18-3.92s-2-2.3-2-2.3,2.82.21,2.88-1,.41-5.34.41-5.34,2.39-.68,2.45-1.89c0,0,2.78-1.29,2.91-3.09s-3.91-2.58-3.91-2.58v-.66s5-.63,6.52-2.57,3.74-4.22,3.32-5.52a2.75,2.75,0,0,0-2-1.61,10.4,10.4,0,0,0,5.63-4.53c2.16-3.59,2.42-4.24,0-4.25s-5.31.46-6.33.41-2.46-.18-1.29-.81,7.83-3,9.41-5.9,2.52-4.68.51-4.93-7.47.91-8.24.94.13-1.21,1.22-1.59,3.72-2.46,5.43-3.47,4.46-6.9,4.49-8.36-8.18,2.19-8.88,2.19-.67-.55,1-1.64,9-6.45,9.34-9,0-3.09-2.85-1.73-8.81,4.37-9.46,4.08S351.78,151.92,353.64,150.69Z" fill="#fff"/><path d="M332.88,169.65c-1.32-5.47-7.37-8.27-12.58-6.82l0,.64-12.1,11.28-.12,5.56-14,14v3s-2,3-3.94,5.53c-1.27,3.2-1.89,6.72-4,9.49-2.38,3-6.38,3.92-9,6.67-2.51,4.53-7.37,7.48-8.06,13.09-1.22,5.35-7.74,27.44-12.42,12.42-3.46-11.44-.06-26.08-8.82-35.4-7,3-1.26,25-11.1,27-3.52,0-6.92-1.42-10.42-.15-9.59-1.54-4.76-16.24-11.43-21.2-4.16,8.72-3.67-9.1-6.41-11.32-2-2.58-5-7.27-5-7.27l.09-3-13.6-14.35,0-5.57-4.88-4.8c-24-7.56-26.46.59-18.13,21.81,2,18,.54,15.24,9.73,31.49,7.27,11,14.91,22.92,26.1,30.26,8.84,6.56,25.39,4.18,30.88,12.39,2.49,4.8.27,11.47-4.14,14.37-4.78,3.42-11.27.54-16.28,2.78l.08,3.26c-.77.25-9.24,4-10,4.42l0-1.92c-3.13,7.95-4.62,16.51-1,24.58,1.83,4.25,3.31,14.08,9.68,11.94,6.38-1.34,12-5.2,18.27-6.61,4.28-4.59,7.31-10.94,7.63-16.69,2.07-12.67,9-16,15.54-3.62,8.67,13.6-1.8,20.2,10.83,17.94,5.66,1.75,7.41,9.27,13.17,10.67,6.57.39,9.35-6,11.76-10.91,2.36-2.29,6.29-1.88,7.18-5.82,2.63-6.45,2.74-14.71-1.57-20.21a27.35,27.35,0,0,1-2.82-1.54l-.13,3.36c-.76-.46-9.13-4.42-9.9-4.69l.17-3.26-10-4.64c-3.61-.38-8.18-.35-10.52-3.59-1.37-2.17-.52-5,.42-7.13,4.46-9.28,16.22-4.28,24.18-5.39,10.69-2.78,10.94-16.82,21.84-20.95C322.11,229.89,336.33,187,332.88,169.65Z" fill="#ececec"/><path d="M356.82,132.94c-.26-.49-8.95,3.83-8.95,3.83l-.21,4.08C353.7,140,357.08,133.43,356.82,132.94Z" fill="#fff"/><path d="M151.35,138.27l-.1-4.08s-8.57-4.54-8.85-4.06S145.33,137.28,151.35,138.27Z" fill="#fff"/><ellipse cx="249.28" cy="203.12" rx="0.63" ry="1.69" fill="#474641"/><path d="M211.08,206.14c.11.06.07,0,0,0Z" fill="#e1e1e1"/><path d="M208.07,207.75l.07,0-.07,0,.26.14a.87.87,0,0,0,.29.68c.28.24.55.51.81.78.79,1.45,1.9,3.42,3.3,2.52.64-1.26-.55-2.52-1.64-3.59a4.6,4.6,0,0,0-2.5-2.42A1,1,0,0,0,208.07,207.75Z" fill="#e1e1e1"/><path d="M221.08,226.7c3.79-1.21.61-7.1-1.83-8.46-1.26-1.16-3.12-1.71-4.35-.17-1.41,2,.59,5.17-.93,7-2,1-5.11,1.72-6.79-.2-2.28-1.24-4.57.45-6.18,2-1.06,2.88,4.72,3,6.88,1.93C212.26,228.76,216.67,226.75,221.08,226.7Z" fill="#e1e1e1"/><path d="M224.54,233.38c2.52-1.58,5.29,2.64,7.74.13,1.34-1.27,1.14-3.15,1.69-4.77a.89.89,0,0,0,0-.42,1,1,0,0,0-1.67-.77c-2,3-1.82,2-4.69.92-2-.44-3.47.92-5.06,1.79-4.36.77-9.07-.91-12.94,2.62a1,1,0,0,0-.2,1.54c3.39,3,7.26-1.55,10.94-.66a.89.89,0,0,1,0,.28c-.32.45-.62.91-.91,1.36-.94.78-2.23,1.51-2.1,2.87a2.09,2.09,0,0,0,2.39,2.28C223.15,239.81,222,235.08,224.54,233.38Z" fill="#e1e1e1"/><path d="M230.16,237.36c-1.2,1.08-2.2,4.48.13,4.75,1.69-.27,1.77-2.89,1.63-4.2l-.18-.16A.93.93,0,0,0,230.16,237.36Z" fill="#e1e1e1"/><path d="M294.34,230.94a5.55,5.55,0,0,0-3.45-1.66c-8.5-1-.51-10.42-1.76-15.4,0-1.89,0-3.79-.05-5.69a.91.91,0,0,0-.46-.82A.92.92,0,0,0,287,207c-2.15,2.56-4.24,5.2-6.48,7.69l0,0a1.76,1.76,0,0,0-2.55.8c-1,2.83-3.53,5.72-2.89,8.85,1.29,3.56,5.05,4.34,7.93,5.93.41.52.17,1.05-.08,1.59-2.79,4.57,3.93,6.32,7.31,6.61,2,.39,4.74-.62,4.1-3.12C295.12,233.87,295.63,232.28,294.34,230.94Z" fill="#e1e1e1"/><path d="M283.36,239.6a.94.94,0,0,0-1,.29,1.73,1.73,0,0,0-1.9,1.2c-.43,1.7,1.86,3.28,3.32,2.38S284.69,240.26,283.36,239.6Z" fill="#e1e1e1"/><path d="M246.84,203.54l-.1.23a4.81,4.81,0,0,1,.58-1,4.63,4.63,0,0,1,.7-.7,1,1,0,0,0-1-1.69C243.16,203,245.35,206.86,246.84,203.54Z" fill="#e1e1e1"/><path d="M244.17,238.57c2-.08,1.12,3.11,1.35,4.4a46.32,46.32,0,0,0,2.2,12.24c.36,2.77,3.65,3.72,4.9,1,1.43-3,0-6.69,1.67-9.58,3.62-3,3.25-5.52,3.18-9.87.33-12.27.65-23.51-13-28l0,0a1,1,0,0,0-1.85.53c-.17,1.67.89,3,1.9,4.17,5.14,6.37-1,14.48-3.63,20.65C239.59,236.36,241.3,239.91,244.17,238.57Z" fill="#e1e1e1"/><path d="M240.55,254.83c-.33-.77-.58-2.23-1.09-3.28.33-.77-.73-1.88-1.5-1.25a1.41,1.41,0,0,0-.4,0c-.64.34-.51,1-.24,1.58C237.15,254.7,240,258,240.55,254.83Z" fill="#e1e1e1"/><path d="M260.88,254.28a4.5,4.5,0,0,0,.54-3.43c0-.88-.25-1.62-1.11-1.84a1,1,0,0,0-1,1l0,.38a1.4,1.4,0,0,0,0,.58,11.12,11.12,0,0,1-.11,1.65C258.62,253.82,259.68,255.67,260.88,254.28Zm-1.32-2c0-.11,0-.06,0,0Z" fill="#e1e1e1"/><path d="M261.51,281c-1.74,1.67-2.64,4.36-5.05,5.23-2.45.69-1.86-1.58-.93-2.87,8.57-21.54-12.29,6.55-2.83-16.64a.85.85,0,0,0,0-.66c.07-.63-.3-.94-1.24-.53a.83.83,0,0,0-.3.14l-.35.19a4.15,4.15,0,0,1-6.88,1.23c-2.57-1.35-2.26,3.43-1.4,4.79.55,1.26,1.74,2.9,1,4.3-.37.66-1,.57-1.63.52a8.55,8.55,0,0,0-6.64,2.49c-1.42,1.92,2.75,1.85,2.18,4.12-.08.92-1,2.32-2,2-.71-.4-.75-2.05-1-2.74-4.46-8.16-7.61,13.78-10.42,16.15-1.14,2.91-4.76,4.24-5.38,7.28.66,5.23,7.93,5.76,10.91,2.11,3.31-1.67,2.65,2.81,4.66,2.07,5.32-3.87,2-13.44,7.16-18.15,7.08-6.12,11.18,5.17,12.31,10.71,1.57,3.89,3.53,8.2,7,10.73a3.46,3.46,0,0,0,2.45-.39c1.74-.64,3.53.25,5.2.71,2.83.79,6.58.33,7-3.23s-2.86-5.81-4.3-8.7C268,298.29,265.93,280.38,261.51,281Z" fill="#e1e1e1"/><line x1="334.11" y1="160.73" x2="342.45" y2="157.11" fill="none" stroke="#cbcbcb" stroke-linecap="round" stroke-linejoin="round" stroke-width="0.65"/><line x1="333.49" y1="168.6" x2="343.43" y2="164.46" fill="none" stroke="#cbcbcb" stroke-linecap="round" stroke-linejoin="round" stroke-width="0.65"/><line x1="332.84" y1="176.73" x2="342.66" y2="174.01" fill="none" stroke="#cbcbcb" stroke-linecap="round" stroke-linejoin="round" stroke-width="0.65"/><line x1="319.74" y1="186.21" x2="331.2" y2="182.58" fill="none" stroke="#cbcbcb" stroke-linecap="round" stroke-linejoin="round" stroke-width="0.65"/><line x1="320.3" y1="179.24" x2="331.87" y2="174.19" fill="none" stroke="#cbcbcb" stroke-linecap="round" stroke-linejoin="round" stroke-width="0.65"/><line x1="320.86" y1="172.27" x2="332.47" y2="166.71" fill="none" stroke="#cbcbcb" stroke-linecap="round" stroke-linejoin="round" stroke-width="0.65"/><line x1="321.37" y1="165.82" x2="334.34" y2="157.89" fill="none" stroke="#cbcbcb" stroke-linecap="round" stroke-linejoin="round" stroke-width="0.65"/><line x1="332.18" y1="184.93" x2="338.99" y2="184.24" fill="none" stroke="#cbcbcb" stroke-linecap="round" stroke-linejoin="round" stroke-width="0.65"/><line x1="331.54" y1="192.99" x2="334.12" y2="193.2" fill="none" stroke="#cbcbcb" stroke-linecap="round" stroke-linejoin="round" stroke-width="0.65"/><line x1="309.2" y1="180.04" x2="319.74" y2="171.66" fill="none" stroke="#cbcbcb" stroke-linecap="round" stroke-linejoin="round" stroke-width="0.65"/><line x1="307.03" y1="186.1" x2="319.2" y2="178.37" fill="none" stroke="#cbcbcb" stroke-linecap="round" stroke-linejoin="round" stroke-width="0.65"/><line x1="307.28" y1="191.06" x2="318.67" y2="184.95" fill="none" stroke="#cbcbcb" stroke-linecap="round" stroke-linejoin="round" stroke-width="0.65"/><line x1="307.96" y1="195.53" x2="318.12" y2="191.92" fill="none" stroke="#cbcbcb" stroke-linecap="round" stroke-linejoin="round" stroke-width="0.65"/><line x1="319.23" y1="192.66" x2="330.58" y2="190.32" fill="none" stroke="#cbcbcb" stroke-linecap="round" stroke-linejoin="round" stroke-width="0.65"/><line x1="319.02" y1="195.24" x2="324.6" y2="195.3" fill="none" stroke="#cbcbcb" stroke-linecap="round" stroke-linejoin="round" stroke-width="0.65"/><line x1="318.7" y1="199.24" x2="329.91" y2="198.71" fill="none" stroke="#cbcbcb" stroke-linecap="round" stroke-linejoin="round" stroke-width="0.65"/><line x1="316.47" y1="204.39" x2="329.31" y2="206.32" fill="none" stroke="#cbcbcb" stroke-linecap="round" stroke-linejoin="round" stroke-width="0.65"/><line x1="315.05" y1="210.77" x2="318.72" y2="211.97" fill="none" stroke="#cbcbcb" stroke-linecap="round" stroke-linejoin="round" stroke-width="0.65"/><line x1="317.18" y1="207.69" x2="319.05" y2="207.84" fill="none" stroke="#cbcbcb" stroke-linecap="round" stroke-linejoin="round" stroke-width="0.65"/><line x1="313.35" y1="215.82" x2="318.84" y2="218.6" fill="none" stroke="#cbcbcb" stroke-linecap="round" stroke-linejoin="round" stroke-width="0.65"/><line x1="310.04" y1="220.75" x2="314.14" y2="222.25" fill="none" stroke="#cbcbcb" stroke-linecap="round" stroke-linejoin="round" stroke-width="0.65"/><line x1="304.06" y1="223.26" x2="310.39" y2="226.89" fill="none" stroke="#cbcbcb" stroke-linecap="round" stroke-linejoin="round" stroke-width="0.65"/><line x1="269.77" y1="278.71" x2="280.89" y2="283.39" fill="none" stroke="#cbcbcb" stroke-linecap="round" stroke-linejoin="round" stroke-width="0.65"/><line x1="281.46" y1="286.52" x2="291.27" y2="291.32" fill="none" stroke="#cbcbcb" stroke-linecap="round" stroke-linejoin="round" stroke-width="0.65"/><line x1="292.7" y1="288.46" x2="294.4" y2="289.26" fill="none" stroke="#cbcbcb" stroke-linecap="round" stroke-linejoin="round" stroke-width="0.65"/><line x1="275.33" y1="306.5" x2="280.55" y2="311.93" fill="none" stroke="#cbcbcb" stroke-linecap="round" stroke-linejoin="round" stroke-width="0.65"/><line x1="309.25" y1="175.37" x2="315.79" y2="169.57" fill="none" stroke="#cbcbcb" stroke-linecap="round" stroke-linejoin="round" stroke-width="0.65"/><path d="M253.65,269.27s-.74,1.47-.56,5" fill="none" stroke="#a3a3a4" stroke-linecap="round" stroke-linejoin="round" stroke-width="0.65"/><path d="M254.89,269.27s-1.06,3.32-.51,5.44" fill="none" stroke="#a3a3a4" stroke-linecap="round" stroke-linejoin="round" stroke-width="0.65"/><line x1="256.13" y1="267.42" x2="255.58" y2="274.71" fill="none" stroke="#a3a3a4" stroke-linecap="round" stroke-linejoin="round" stroke-width="0.65"/><path d="M257.24,271.07a13.83,13.83,0,0,0,0,4" fill="none" stroke="#a3a3a4" stroke-linecap="round" stroke-linejoin="round" stroke-width="0.65"/><line x1="258.62" y1="269.27" x2="258.62" y2="270.37" fill="none" stroke="#a3a3a4" stroke-linecap="round" stroke-linejoin="round" stroke-width="0.65"/><path d="M259.86,270.73a2.84,2.84,0,0,0,0,2.82,7,7,0,0,1,.6,3.77" fill="none" stroke="#a3a3a4" stroke-linecap="round" stroke-linejoin="round" stroke-width="0.65"/><path d="M255.44,262.16s-.56,5.08-4.17,6.47" fill="none" stroke="#a3a3a4" stroke-linecap="round" stroke-linejoin="round" stroke-width="0.65"/><line x1="163.97" y1="158.77" x2="155.62" y2="155.15" fill="none" stroke="#cbcbcb" stroke-linecap="round" stroke-linejoin="round" stroke-width="0.65"/><line x1="164.59" y1="166.64" x2="154.65" y2="162.5" fill="none" stroke="#cbcbcb" stroke-linecap="round" stroke-linejoin="round" stroke-width="0.65"/><line x1="165.24" y1="174.77" x2="155.42" y2="172.05" fill="none" stroke="#cbcbcb" stroke-linecap="round" stroke-linejoin="round" stroke-width="0.65"/><line x1="178.34" y1="184.24" x2="166.88" y2="180.61" fill="none" stroke="#cbcbcb" stroke-linecap="round" stroke-linejoin="round" stroke-width="0.65"/><line x1="177.78" y1="177.27" x2="166.21" y2="172.23" fill="none" stroke="#cbcbcb" stroke-linecap="round" stroke-linejoin="round" stroke-width="0.65"/><line x1="177.22" y1="170.31" x2="165.61" y2="164.74" fill="none" stroke="#cbcbcb" stroke-linecap="round" stroke-linejoin="round" stroke-width="0.65"/><line x1="176.71" y1="163.85" x2="163.74" y2="155.93" fill="none" stroke="#cbcbcb" stroke-linecap="round" stroke-linejoin="round" stroke-width="0.65"/><line x1="165.9" y1="182.96" x2="159.09" y2="182.27" fill="none" stroke="#cbcbcb" stroke-linecap="round" stroke-linejoin="round" stroke-width="0.65"/><line x1="166.54" y1="191.03" x2="163.96" y2="191.23" fill="none" stroke="#cbcbcb" stroke-linecap="round" stroke-linejoin="round" stroke-width="0.65"/><line x1="188.88" y1="178.08" x2="178.34" y2="169.7" fill="none" stroke="#cbcbcb" stroke-linecap="round" stroke-linejoin="round" stroke-width="0.65"/><line x1="191.05" y1="184.14" x2="178.88" y2="176.41" fill="none" stroke="#cbcbcb" stroke-linecap="round" stroke-linejoin="round" stroke-width="0.65"/><line x1="190.8" y1="189.09" x2="179.4" y2="182.99" fill="none" stroke="#cbcbcb" stroke-linecap="round" stroke-linejoin="round" stroke-width="0.65"/><line x1="190.12" y1="193.56" x2="179.96" y2="189.96" fill="none" stroke="#cbcbcb" stroke-linecap="round" stroke-linejoin="round" stroke-width="0.65"/><line x1="178.85" y1="190.69" x2="167.5" y2="188.35" fill="none" stroke="#cbcbcb" stroke-linecap="round" stroke-linejoin="round" stroke-width="0.65"/><line x1="179.06" y1="193.28" x2="173.48" y2="193.33" fill="none" stroke="#cbcbcb" stroke-linecap="round" stroke-linejoin="round" stroke-width="0.65"/><line x1="179.38" y1="197.28" x2="168.17" y2="196.74" fill="none" stroke="#cbcbcb" stroke-linecap="round" stroke-linejoin="round" stroke-width="0.65"/><line x1="181.61" y1="202.42" x2="168.77" y2="204.36" fill="none" stroke="#cbcbcb" stroke-linecap="round" stroke-linejoin="round" stroke-width="0.65"/><line x1="183.02" y1="208.8" x2="179.35" y2="210" fill="none" stroke="#cbcbcb" stroke-linecap="round" stroke-linejoin="round" stroke-width="0.65"/><line x1="180.9" y1="205.73" x2="179.02" y2="205.87" fill="none" stroke="#cbcbcb" stroke-linecap="round" stroke-linejoin="round" stroke-width="0.65"/><line x1="184.73" y1="213.86" x2="179.23" y2="216.64" fill="none" stroke="#cbcbcb" stroke-linecap="round" stroke-linejoin="round" stroke-width="0.65"/><line x1="188.04" y1="218.79" x2="183.94" y2="220.29" fill="none" stroke="#cbcbcb" stroke-linecap="round" stroke-linejoin="round" stroke-width="0.65"/><line x1="194.02" y1="221.3" x2="187.69" y2="224.92" fill="none" stroke="#cbcbcb" stroke-linecap="round" stroke-linejoin="round" stroke-width="0.65"/><line x1="225.03" y1="277.73" x2="213.91" y2="282.41" fill="none" stroke="#cbcbcb" stroke-linecap="round" stroke-linejoin="round" stroke-width="0.65"/><line x1="213.35" y1="285.54" x2="203.53" y2="290.34" fill="none" stroke="#cbcbcb" stroke-linecap="round" stroke-linejoin="round" stroke-width="0.65"/><line x1="202.1" y1="287.48" x2="200.41" y2="288.28" fill="none" stroke="#cbcbcb" stroke-linecap="round" stroke-linejoin="round" stroke-width="0.65"/><line x1="219.47" y1="305.52" x2="214.25" y2="310.95" fill="none" stroke="#cbcbcb" stroke-linecap="round" stroke-linejoin="round" stroke-width="0.65"/><line x1="188.83" y1="173.41" x2="182.29" y2="167.61" fill="none" stroke="#cbcbcb" stroke-linecap="round" stroke-linejoin="round" stroke-width="0.65"/><path d="M241.16,269.92s.74,1.48.55,5" fill="none" stroke="#a3a3a4" stroke-linecap="round" stroke-linejoin="round" stroke-width="0.65"/><path d="M239.92,269.92s1.06,3.32.5,5.44" fill="none" stroke="#a3a3a4" stroke-linecap="round" stroke-linejoin="round" stroke-width="0.65"/><line x1="238.67" y1="268.08" x2="239.22" y2="275.36" fill="none" stroke="#a3a3a4" stroke-linecap="round" stroke-linejoin="round" stroke-width="0.65"/><path d="M237.56,271.72a13.83,13.83,0,0,1,0,4" fill="none" stroke="#a3a3a4" stroke-linecap="round" stroke-linejoin="round" stroke-width="0.65"/><line x1="236.18" y1="269.92" x2="236.18" y2="271.03" fill="none" stroke="#a3a3a4" stroke-linecap="round" stroke-linejoin="round" stroke-width="0.65"/><path d="M235,271.38a2.88,2.88,0,0,1,0,2.83,7,7,0,0,0-.61,3.77" fill="none" stroke="#a3a3a4" stroke-linecap="round" stroke-linejoin="round" stroke-width="0.65"/><path d="M239.36,262.82s.56,5.08,4.18,6.47" fill="none" stroke="#a3a3a4" stroke-linecap="round" stroke-linejoin="round" stroke-width="0.65"/><path d="M245.85,203.74c-.07.14-.14.28-.22.42l-.07.1s.08-.09,0,0l0,0-.09.09,0,0-.06,0-.11.06c-.06,0,0,0,0,0l-.06,0-.26.08-.56.16a.5.5,0,0,0-.35.6.5.5,0,0,0,.61.35l.61-.18a2.18,2.18,0,0,0,.61-.25,2.3,2.3,0,0,0,.74-1,.61.61,0,0,0,.05-.38.55.55,0,0,0-.23-.29.5.5,0,0,0-.67.18Z" fill="#a3a3a4"/><path d="M245.3,207.34l.16.06-.12-.05a2.93,2.93,0,0,1,.46.27l-.1-.07a2.22,2.22,0,0,1,.38.37l-.08-.1a.91.91,0,0,1,.11.16.53.53,0,0,0,.29.22.46.46,0,0,0,.38,0,.45.45,0,0,0,.23-.29.5.5,0,0,0,0-.38,2.64,2.64,0,0,0-1.4-1.08.51.51,0,0,0-.38,0,.46.46,0,0,0-.22.29.5.5,0,0,0,.34.6Z" fill="#a3a3a4"/><path d="M247.75,209.55l.05,0-.12,0,.15.08-.1-.07a1.36,1.36,0,0,1,.12.12l-.08-.1a.51.51,0,0,1,.09.16l-.05-.12a.28.28,0,0,1,0,.12.46.46,0,0,0,.09.17.35.35,0,0,0,.14.13.64.64,0,0,0,.18.06.45.45,0,0,0,.2,0l.12-.05a.49.49,0,0,0,.17-.18l.05-.12a.57.57,0,0,0,0-.26,1.08,1.08,0,0,0-.11-.28,1.38,1.38,0,0,0-.17-.25l-.07-.06-.16-.13-.08,0-.2-.09a.45.45,0,0,0-.2,0,.64.64,0,0,0-.18.06.44.44,0,0,0-.14.13.34.34,0,0,0-.08.17l0,.13a.4.4,0,0,0,.07.24l.07.1a.42.42,0,0,0,.22.13Z" fill="#a3a3a4"/><path d="M248.41,211a8.8,8.8,0,0,1-2-1.81,2,2,0,0,0-1-.86,1.84,1.84,0,0,0-.74,0l-.79.1a.5.5,0,0,0-.47.36.51.51,0,0,0,.22.56,3.57,3.57,0,0,1,1,.87,4.9,4.9,0,0,0,.88,1.19.49.49,0,0,0,.72-.29.71.71,0,0,1,.22-.37.69.69,0,0,0,.17-.79,3.05,3.05,0,0,0-.46-.61l-.51-.63a.49.49,0,0,0-.69,0,.5.5,0,0,0,0,.7l.37.46a4.74,4.74,0,0,0,.4.49c.09.13.1,0,0-.31l-.09.09a1.28,1.28,0,0,0-.17.22,1.51,1.51,0,0,0-.21.49l.72-.29c-.13-.1-.2-.34-.28-.48a4.89,4.89,0,0,0-1.54-1.59l-.25.91.71-.09a1.27,1.27,0,0,1,.58,0l.1.07a1.12,1.12,0,0,1,.18.2c.12.16.25.34.38.5a10.4,10.4,0,0,0,2.06,1.79.49.49,0,1,0,.49-.85Z" fill="#a3a3a4"/><path d="M243.86,207a1.14,1.14,0,0,0-.6,0,1.33,1.33,0,0,0-.28.1.6.6,0,0,0-.15.09.33.33,0,0,0-.14.12.4.4,0,0,0-.09.17.45.45,0,0,0,0,.2.32.32,0,0,0,.06.18.49.49,0,0,0,.29.22.45.45,0,0,0,.38,0l.16-.08-.12,0,.22-.06-.13,0h.22l-.13,0h.06a.31.31,0,0,0,.19,0,.28.28,0,0,0,.18-.06.33.33,0,0,0,.14-.12.56.56,0,0,0,.09-.17.5.5,0,0,0,0-.38.49.49,0,0,0-.29-.22Z" fill="#a3a3a4"/><path d="M244.05,203.66a1.08,1.08,0,0,0-.08.19,1.52,1.52,0,0,0,0,.21,1,1,0,0,0,0,.29.72.72,0,0,0,.12.27.63.63,0,0,0,.18.22,1.1,1.1,0,0,0,.35.2.86.86,0,0,0,.17,0,.55.55,0,0,0,.18,0,.67.67,0,0,0,.35-.27.84.84,0,0,0,.11-.41.83.83,0,0,0,0-.31,1,1,0,0,0-.46-.61.39.39,0,0,0-.18-.06.45.45,0,0,0-.2,0,.49.49,0,0,0-.11.9l0,0-.09-.07.09.09-.08-.1a.75.75,0,0,1,.07.12l-.05-.11a.57.57,0,0,1,0,.14l0-.13a.33.33,0,0,1,0,.14l0-.13a.29.29,0,0,1,0,.09l.05-.12,0,0,.07-.1s0,0,0,0l.09-.08,0,0,.12-.05h.2l-.07,0,.12,0-.1,0,.1.07-.08-.08.07.1a.67.67,0,0,1-.06-.12l0,.12a.33.33,0,0,1,0-.14l0,.13a.28.28,0,0,1,0-.13l0,.13a.19.19,0,0,1,0-.1l-.05.12v0A.48.48,0,0,0,245,204a.41.41,0,0,0,0-.19.5.5,0,0,0-.23-.3.5.5,0,0,0-.38,0,.48.48,0,0,0-.29.23Z" fill="#a3a3a4"/><path d="M243.78,206.48a.5.5,0,0,0,0-1,.5.5,0,0,0,0,1Z" fill="#a3a3a4"/><path d="M241.94,204.48v1.1a.5.5,0,0,0,.14.35.49.49,0,0,0,.35.15.51.51,0,0,0,.49-.5v-1.1a.5.5,0,0,0-.15-.34.49.49,0,0,0-.34-.15.5.5,0,0,0-.49.49Z" fill="#a3a3a4"/></svg>