<svg xmlns="http://www.w3.org/2000/svg" width="500" height="550" viewBox="0 0 500 550"><path d="M372.14 291.55q-.27 61.74-.62 123.47c-.81 9-2.68 16.4-3.55 25.44-1 10.07 1.34 17-1.5 25.63-.59 1.77-2 1.67-3.35 1.43-44.59-7.73-101.66-5.71-146.65-2.92-24.6.58-58.62-1.67-83 2.09-5.23.6-5.68.28-6.62-4.82-1.35-11.26 1.94-18.53.53-29.31-6.15-46.82-1.39-94.38-3.6-141.53-1.42 2.82-2.94 5.6-4.29 8.46-2.37 10.67-17.5 9.3-11.81 16.18 11.11 7.95 6.41 21.38 5.15 32.56-.25 3.15-1.35 6.27-.37 9.58.51 8.43-3.19 16.94-4.38 25.31-1.5 8-2.61 15.83-1.54 23.93a5.1 5.1 0 01-1.13 3.3c-5.71 6.28-7.75 14-9.19 22.06-.57 3.18-.61 3-3.74 2-12.38-3.52-26.09-4.38-38.6-1.18-1.39.34-2.11 0-2.41-1.47-2-7.76-2.18-16.67-8.49-22.43a6.66 6.66 0 01-1.33-3.22A144.5 144.5 0 0139 372.85c-1.91-63 2.6-126.92 26.19-186 13.61-35.43 24.56-73.32 48.07-103.67 27.32-18.2 60-23.76 90.46-34.78a3.16 3.16 0 012.72.43c5 5.55 11.46 8.41 18.56 9.67 19.19 2.43 41.29 5.55 58.65-4.88 2.85-1.27 4.2-6.53 7.87-5 29.12 10.49 61 14.4 87.44 31.58 15.94 14.59 21.63 38 30.45 57.2 27.81 67.49 58 137.4 51.05 212.08-1.19 18.66-.23 37.46-3.28 56-.49 4.66-5.21 7.09-5.56 11.78-1.22 5.28-2.08 10.65-2.91 16-.4 2.6-.41 2.83-3.08 2.33-12.48-2.66-25.26-5.49-37.8-1.58-8.34-.15-8.13-15.56-11.44-21.41-6.28-7.36-3.61-9-5.33-17.63-.9-9.7-4.68-20.27.79-29.26 2-3.53 1.86-7.05.51-10.66-4.9-11.29-7.4-23.42-10.45-35.29-1.07-4.31-1.31-8.5 1.61-12.34 1.49-7.15-10.43-8.7-10.93-15.93z" fill="#262521" stroke="#262521" stroke-linecap="round" stroke-linejoin="round" stroke-width="3"/><path stroke-width=".78" stroke="#fff" stroke-linecap="round" stroke-linejoin="round" fill="#fff" d="M245.573 120.968l3.38 3.309-3.308 3.38-3.38-3.308zm24.557-9.318l-14.74 8.18 16.99-.19-2.25-7.99zm-20.04-1.01l7.87 6.3-4.48 2.91-6.86-5.05 3.47-4.16zm-4.62 3.21l2.3-2.62-4.71.05 2.35 2.57.01.07.02-.04.03.04v-.07zm10.2-7.11l6.71-3.4 4.89 8.34-5.06 2.91-6.54-7.85zm-8.08 26.01l4.76-11.2 3.53 5.05-8.29 6.15zm27.48-14.38l16.63-8.69.09 7.73-16.72.96zm-5.75-16.38l7.2-3.11 3.24 10.34-5.65 1.73-4.79-8.96zm15.09-7.01l6.25-.75.15 13.8-4.6.29-1.8-13.34zm11.4 14.65l19.7 3.41-2.06 7.85-17.64-11.26zm3.26-15.49l-.72 14.44 5.48.97 2.19-14.9-6.95-.51zM317 96.88l-6.01 13.67 4.51.61 7.5-12.09-6-2.19zm12.28 4.67l-7.88 12.51 4.03 1.81 9.75-11.6-5.9-2.72zm-11.03 20.37l19.79 2.03-3.95 6.11-15.84-8.14zm26.48 5.58l15.43 15.69-5.05 3.87-10.38-19.56zm-13.05-9.74l9.89-9.64 4.72 2.71-10.13 9.29-4.48-2.36zm9.56 4.71l11.58-8.85 5.1 3.86-13.22 7.73-3.46-2.74zm8.45 7.42l13.22-7.89 3.41 3.84-12.68 7.58-3.95-3.53zm8.45 8.29l13.29-7 3.18 4.66-13.18 5.92-3.29-3.58zm7.2 8.76l14.39-5.38 3.33 4.8-14.66 5.2-3.06-4.62zm-.56 3.57l9.66 18.92-8.37 1.05-1.29-19.97zm6.45 7.04l2.22 4.43 15.97-3.79-2.35-5.75-15.84 5.11zm3.17 7.55l2.14 4.31 14.93.8-.53-5.29-16.54.18zm.51 11.19l-2.85 21.58-7.39-4.14 10.24-17.44zm1.69-1.1l.04 4.21 14.98 4.65.54-6.02-15.56-2.84zm-.63 9.03l-.79 4.94 14.65 7.43 1.86-6.28-15.72-6.09zm-1.26 9.65l-.62 5.42 11.76 8.18 2.11-6.04-13.25-7.56zm-6.21 12.34l3.22-3.4 9.43 9.04-4.1 4.86-8.55-10.5zm-28.29-35.45l-33.92-51.48-3.91.04 27.14 40.79 10.69 10.65zm-13.91-12.44l-25.69-38.98-3.91.04 21.89 33.8 7.71 5.14z"/><path d="M345.27 178.16s19 19.64 24.74 27.23l1.82 8.11 2.51 9.08s-15.92-21.14-24-28.45zm-76-56.5l-22.12 42.66 7.58-6.71 18.05-36.28-3.51.33zm5.12-.35l-17.58 35.49 4.94-3.44 15.82-32.61-3.18.56zm-26.78 12.99l11.93 3.16-1.22 2.41-11.95-3.29 1.24-2.28zm-1.88 3.55l11.93 3.16-1.22 2.42-10.69-3.42-.02-2.16zm23.89 2.59l20.21 5.45-9.12.28-12.33-3.45 1.24-2.28zm-1.83 3.5l10.64 2.87-6.42.94-5.45-1.52 1.23-2.29zm-1.63 3.6l-2.15 4.36 6.61-3.06-4.46-1.3zm-19.94 36.2l6.28 18.86-6 7.32-.28-26.18zm-.02-2.26l16.45 10.22-3.56-23.26s-5.84 3.29-12.89 13.04zm14.03-14.09l17.4 16 9.53-23.88s-15.83-.6-26.93 7.88zm-7.15-6.19l-7.04 5.91 4.86 5.78 6.7-5.76-4.52-5.93zm9.17-6.64l8.39-3.96 3.51 8.28-8.34 3.24-3.56-7.56zm19.44-6.72l1.89 10.01 8.36-.09.57-10.32-10.82.4zm7.58 11.63l7.21 23.73 21.64-14.47s-13.25-10.34-28.85-9.26zm14.79-10.17l-1.79 9.98 7.84 2.85 4.61-9.33-10.66-3.5zM320 169.69L312.57 195l24.68.58s-3.77-17.66-17.25-25.89zm5.19-10.66l-5 8.72 6.73 4.78 6.43-6.74-8.16-6.76zm8.9 23.04l3.93 9.42 8.3-4.12-3.38-10.24-8.85 4.94zm3.67 16.16l-20.57 15.23L339 221.9s.9-15.48-1.24-23.67zm12.65 2.76l-9.46 2.64.63 10.02 9.64-.11-.81-12.55zM338.61 225l-21.21 7.5 18.17 13.89a78.25 78.25 0 003.04-21.39zm-3.43 23.32l-23.68 2.42 17.27 15.89s5.23-10.63 6.41-18.31zm5.72-20.65l-1.36 10.73 9.64 1.22 2.2-11.31-10.48-.64zm-3.82 22.94l-3.7 10.43 8.92 3.41 3.83-10.52-9.05-3.32zm-9.14 18.45l-23.29-.68 15.06 18.44a80 80 0 008.23-17.76zm.89 3.84l-4.69 9.72 8.98 4.06 4.57-10.03-8.86-3.75zm-10.04 16.31L296 285.68l14 18.88a102.06 102.06 0 008.79-15.35zm-.72 5.75l-5.24 9.57 8.42 4.23 5.43-9.91-8.61-3.89zm-9.14 11.65l-22.4-.58 12.07 17.55a111.58 111.58 0 0010.33-16.97zm-1.93 8.04l-5.43 8.9 7.59 4.5 5.59-8.83-7.75-4.57zm-9.86 11.64l-22.45-4.58 12.22 19.67s5.48-5.18 10.23-15.09zm-2.2 8.26l-5.58 8.43 8.02 5.45 5.84-8.84-8.28-5.04zm-9.35 9.82l-20.72-6.26 10.56 21.22s7.27-7.64 10.16-14.96zm-2.99 10.02l-7.12 9.52 10.39 5.83 4.74-10.58-8.01-4.77zm-8.56 7.78l-21.66-6.11-3.89 39.19.12 10.39 7.22 6.54 5.69-10.19-7.11-7.07 19.63-32.75z" fill="#fff" stroke="#fff" stroke-linecap="round" stroke-linejoin="round" stroke-width=".78"/><path fill="#fff" stroke="#fff" stroke-linecap="round" stroke-linejoin="round" stroke-width=".78" d="M268.64 375.06l-6.63 10.86 7.49 5.59 7.17-10.6-8.03-5.85zm82.83-138.37l1.13 29.67-2.96 2.68-.79-16.93 2.62-15.42zm-3.95 17.7l.53 15.87-2.95 2.69-.51-9.67 2.93-8.89zm24.56-2.11l-34.38 28.81-2.91 6.26 37.29-30.08v-4.99zm0 7.05l-39.18 31.6-4.14 8.15 43.32-35.33v-4.42zm-19.32 22.54l.34 31.58-2.79 4.66-.37-34.01 2.82-2.23zm-4.32 3.23l.37 33.89-2.8 4.65-.39-36.31 2.82-2.23zm11.82 16.83l8.61-17.81-1.31 21.58-7.3-3.77zm4.88 8.55l-19.08 17.18 5.81 3.12 13.27-20.3zm-22.32 22.15l-10.3 18.63 6.01 3.88 4.29-22.51zm-7.25 27.67l-17.42 13.02 5.75 4.74 11.67-17.76zm-26.58 38.26l6.4-19.43-11.58 14.65 5.18 4.78zm-22.08 21.22l3.15 3.26 4.67-.05 11.21-20.12-19.03 16.91zm31.61-102.74l-3.73 6.36-3.9 58.06 4.11-4.27 3.52-60.15zm-5.63 8.25l-3.72 6.36-4.3 56.93 4.11-4.66 3.91-58.63zm-19.95 32.89l13.03-6.01-.3 3.84-15.02 6.93 2.29-4.76zm-4.59 10.93l2-4.27 15.11-6.79-.32 3.65-16.79 7.41zm30.07-22.81l20.75-10.3-2.91 4.54-17.98 9.02.14-3.26zm-.12 4.9l16.96-8.28-3.6 5.88-13.7 6.56.34-4.16zm-69.54 68.72l51.55-24.65-3 5.61-48.51 22.6-.04-3.56zm.06 5.36l48.06-22.31-2.86 4.88-38.08 17.25-7.12.18zm26.17-39.01l4.44-6.76-3.51 25.46-4.23 2.25 3.3-20.95zm.32 31.7l-.51 5.73-4.27.04.47-3.63 4.31-2.14zm-2.33-28.7l-3.62 5.4-2.5 14.69 3.28-1.66 2.84-18.43zm-3.55 31.62l-.41 2.81-4.44.16.35-.92 4.5-2.05zm102.09-111.3l-1.98-2.68-3.19 4.7 5.17 6.56v-8.58zm-.21 15.86l-7.31-9.03-2.52 3.56 9.7 12.03.13-.2v-6.36zm-11.9-1.63l-2.13 3.04 8.85 12.09 2.19-2.87-8.91-12.26zm-4.42 6.93l-2.82 2.88 9.59 12.43 2.64-3.1-9.41-12.21zm-4.14 7.06l-3.23 3.34 8.64 12.95 2.59-2.99-8-13.3zm-4.6 7.68l-2.97 3.16 8.17 13.24 2.58-3.5-7.78-12.9zm-4.8 8.28l-2.05 3.41 6.49 12.35 2.3-3.39-6.74-12.37zm-4.58 8.28l-2.58 3.56 5.3 9.46 2.68-3.39-5.4-9.63zm-4.87 8.03l-2.36 2.93 4.86 12.13 3.1-3.22-5.6-11.84zm-5.66 8.93l-2.81 2.95 4.74 12.14 3.04-3.4-4.97-11.69zm-6.18 7.62l-3.04 3.54 4.99 13.68 3.32-3.46-5.27-13.76zm-6.5 10.19l-2.98 3.68 5.38 13.16 2.98-3.69-5.38-13.15zm-6.06 7.93l-3.08 4.98 5.46 12.65 2.13-.03 2.42-3.1-6.93-14.5zm-5.87 10.71l-2.74 4.3 1.97 3.16 4.1-.04.67-1.44-4-5.98zm69.51-74.73l-10.4 15.65s5.74 2.54 10.4.45zm-36.67 51.03l12-15.1s7.95 6.08 2.47 13.92-14.47 1.18-14.47 1.18zM348.29 375l10.64-16.54s8.72 7 3.88 13.9-14.52 2.64-14.52 2.64zm-14.49 19.49l-10.92 17s9.73 4.67 14.35-2.86-3.43-14.14-3.43-14.14zm-16.34 27.35l4-7.34s4.81.3 5.32 7.24zM341.73 405s10 4.37 11.4 17.91l-7.54.08s-1.36-8.19-7.67-10.41z"/><path d="M347.62 395s14.66 5.11 13.93 27.32m3.18-48.7a27.44 27.44 0 016.5 5.39" fill="none" stroke="#fff" stroke-linejoin="round" stroke-width="1.56"/><path d="M290.93 230.19l-.17-15.86h1.92l2.62 9.05-.1-9.08h1.87l.17 15.86h-1.8l-2.75-9.88.11 9.91zm1.51 19.52l-.17-15.86 5.79-.06v2.37h-3.72l.05 4.09h2.77v2.37h-2.78l.08 7z" fill="#fff"/><path stroke-width=".78" stroke="#fff" stroke-linecap="round" stroke-linejoin="round" fill="#fff" d="M248.69 124.321l-3.309 3.381-3.38-3.308 3.308-3.38zm-28.16-12.141l14.91 7.86-16.98.18 2.07-8.04zm20.01-1.44l-7.73 6.46 4.54 2.82 6.76-5.2-3.57-4.08zm4.69 3.11l-2.35-2.57 4.7-.05-2.29 2.62v.07l-.03-.03-.03.03v-.07zm-10.35-6.89l-6.79-3.25-4.7 8.44 5.12 2.8 6.37-7.99zm8.64 25.83l-5-11.09-3.43 5.12 8.43 5.97zm-27.78-13.78l-16.82-8.34.08 7.73 16.74.61zm5.39-16.5l-7.27-2.95-3.02 10.4 5.7 1.61 4.59-9.06zm-15.23-6.68l-6.27-.62.15 13.79 4.6.2 1.52-13.37zm-11.09 14.89l-19.62 3.83 2.23 7.8 17.39-11.63zm-3.59-15.42l1.03 14.42-5.46 1.09-2.51-14.85 6.94-.66zm-17.87 3.13l6.31 13.53-4.5.71-7.75-11.93 5.94-2.31zm-12.18 4.92l8.16 12.34-3.99 1.9-10.01-11.39 5.84-2.85zm11.47 20.13l-19.74 2.46 4.08 6.02 15.66-8.48zm-26.35 6.15l-15.09 16.01 5.13 3.76 9.96-19.77zm12.83-10.02l-10.09-9.43-4.66 2.82 10.33 9.07 4.42-2.46zm-9.45 4.92l-11.77-8.6-5.02 3.96 13.39 7.45 3.4-2.81zm-8.29 7.6L128 124.52l-3.33 3.92 12.84 7.3 3.87-3.61zm-8.27 8.47l-13.44-6.72-3.08 4.73 13.31 5.64 3.21-3.65zm-7.01 8.91l-14.5-5.07-3.23 4.87 14.77 4.88 2.96-4.68zm.64 3.56l-9.26 19.12 8.39.87.87-19.99zm-6.3 7.17l-2.12 4.48-16.05-3.44 2.22-5.81 15.95 4.77zm-3.01 7.62l-2.04 4.35-14.92 1.13.43-5.31 16.53-.17zm-.27 11.19l3.32 21.52 7.3-4.29-10.62-17.23zm-1.71-1.06l.05 4.21-14.88 4.98-.67-6.02 15.5-3.17zm.82 9.02l.89 4.93-14.48 7.74-1.99-6.24 15.58-6.43zm1.47 9.61l.74 5.41-11.59 8.43-2.23-5.99 13.08-7.85zm6.47 12.21l-3.29-3.33-9.23 9.25 4.2 4.77 8.32-10.69zm27.53-36.05l32.8-52.19 3.92-.04-26.27 41.36-10.45 10.87zm13.64-12.74l24.84-39.51 3.91-.05-21.16 34.26-7.59 5.3z"/><path d="M146.83 180.29s-18.52 20.05-24.14 27.71l-1.69 8.19-2.31 9.14s15.46-21.49 23.34-29zm74.77-58.12l23.04 42.17-7.73-6.54-18.83-35.88 3.52.25zm-5.12-.24l18.34 35.11-5.02-3.33-16.52-32.27 3.2.49zm27.05 12.41l-11.85 3.42 1.26 2.39 11.88-3.55-1.29-2.26zm1.96 3.51l-11.86 3.42 1.27 2.39 10.61-3.65-.02-2.16zm-23.83 3.1l-20.09 5.88 9.12.09 12.25-3.71-1.28-2.26zm1.9 3.47l-10.57 3.09 6.43.81 5.42-1.65-1.28-2.25zm1.71 3.56l2.24 4.31-6.67-2.92 4.43-1.39zm20.71 35.76l-5.87 19 6.15 7.18-.28-26.18zm.02-2.26l-16.23 10.57 3.06-23.33s5.87 3.17 13.17 12.76zm-14.37-13.78l-17.06 16.38-10-23.67s15.77-.96 27.06 7.29zm7.01-6.35l7.16 5.76-4.73 5.89-6.82-5.62 4.39-6.03zm-9.31-6.44l-8.47-3.77-3.33 8.35 8.4 3.05 3.4-7.63zm-19.58-6.29l-1.67 10.04-8.37.09-.79-10.31 10.83.18zm-7.33 11.79l-6.7 23.87-21.95-14s13.04-10.62 28.65-9.87zm-15.01-9.85l2.01 9.93-7.77 3.02-4.81-9.23 10.57-3.72zM172 171.28l7.93 25.16-24.67 1.1s3.36-17.74 16.74-26.26zm-5.5-10.54l5.19 8.61-6.63 4.92-6.57-6.6 8.01-6.93zm-8.41 23.22l-3.72 9.5-8.38-3.94 3.15-10.31 8.95 4.75zm-3.31 16.24l20.89 14.8-21.67 8.89s-1.19-15.46.78-23.69zm-12.59 3.02l9.51 2.44-.42 10.03-9.63.1.54-12.57zm12.31 23.7l21.37 7.1L158 248.29a78.19 78.19 0 01-3.5-21.37zm3.93 23.3l23.72 1.91-16.92 16.26s-5.48-10.48-6.8-18.17zm-6.16-20.53l1.59 10.71-9.61 1.41-2.44-11.25 10.46-.87zm4.31 22.86l3.92 10.34-8.84 3.61-4.06-10.44 8.98-3.51zm9.53 18.25l23.27-1.18-14.66 18.76a79.91 79.91 0 01-8.61-17.58zm-.81 3.86l4.91 9.61-8.9 4.25-4.78-9.92 8.77-3.94zm10.4 16.09l22.67-4-13.56 19.15a102.28 102.28 0 01-9.11-15.15zm.84 5.73l5.44 9.45-8.32 4.41-5.64-9.79 8.52-4.07zm9.39 11.45l22.38-1.07-11.69 17.81a111.86 111.86 0 01-10.69-16.74zm2.09 7.99l5.63 8.78-7.49 4.67-5.78-8.71 7.64-4.74zm10.11 11.44l22.36-5.07-11.8 19.93s-5.59-5.06-10.56-14.86zm2.39 8.2l5.76 8.31-7.91 5.62-6.03-8.71 8.18-5.22zm9.55 9.62l20.58-6.7-10.1 21.43s-7.43-7.47-10.48-14.73zm3.21 9.95l7.32 9.37-10.26 6.05-4.97-10.47 7.91-4.95zm8.72 7.6l21.53-6.57 4.72 39.09.11 10.39-7.08 6.69-5.9-10.06 6.94-7.23L222 362.73z" fill="#fff" stroke="#fff" stroke-linecap="round" stroke-linejoin="round" stroke-width=".78"/><path fill="#fff" stroke="#fff" stroke-linecap="round" stroke-linejoin="round" stroke-width=".78" d="M227.67 375.5l6.86 10.72-7.36 5.75-7.4-10.45 7.9-6.02zM141.9 238.94l-.49 29.68 3.01 2.63.42-16.95-2.94-15.36zm4.32 17.61l-.19 15.88 3.01 2.62.31-9.67-3.13-8.83zm-25.33 2.76l38.77 29.92-3.05-6.2-35.72-28.65v4.93zm0 6.36l45.05 35.15-4.32-8.05-40.73-31.43v4.33zm20.68 18.47l.34 31.58 2.89 4.59-.36-34-2.87-2.17zm4.39 3.13l.36 33.9 2.9 4.59-.39-36.32-2.87-2.17zm-11.45 17.08l-9-17.62 1.77 21.55 7.23-3.93zm-4.7 8.66l19.45 16.76-5.74 3.25-13.71-20.01zm22.79 21.66l10.7 18.41-5.92 4-4.78-22.41zm7.84 27.51l17.7 12.64-5.65 4.87-12.05-17.51zm27.4 37.69l-6.82-19.3 11.9 14.4-5.08 4.9zm22.53 20.74l-3.08 3.32-4.67.05-11.64-19.87 19.39 16.5zm-33.81-102.04l3.87 6.28 5.14 57.95-4.2-4.18-4.81-60.05zm5.8 8.12l3.86 6.28 5.53 56.83-4.21-4.57-5.18-58.54zm20.66 32.46l-13.16-5.73.39 3.83 15.16 6.61-2.39-4.71zm4.82 10.83l-2.09-4.23-15.25-6.47.4 3.65 16.94 7.05zm-30.55-22.16l-20.97-9.85 3.01 4.47 18.17 8.63-.21-3.25zm.22 4.89l-17.13-7.91 3.73 5.79 13.84 6.27-.44-4.15zm71 67.22l-52.06-23.55 3.12 5.55 48.98 21.56-.04-3.56zm.06 5.36l-48.53-21.28 2.96 4.82 38.45 16.43 7.12.03zm-27-38.44l-4.58-6.67 4.05 25.38 4.28 2.16-3.75-20.87zm.36 31.69l.63 5.72 4.27-.05-.55-3.62-4.35-2.05zm1.71-28.74l3.74 5.32 2.81 14.63-3.32-1.58-3.23-18.37zm4.23 31.54l.47 2.8 4.45.06-.37-.91-4.55-1.95zM124 319.65v.7l4.67-6.19-3.3-4.63-1.38 2zm7.07-.73l-7.39 9.55v5.4l.56.79 9.44-12.23-2.61-3.51zm4.75 7.3l2.2 2.99-8.58 12.29-2.25-2.83 8.63-12.45zm4.58 6.83l2.87 2.83-9.31 12.63-2.71-3.05 9.15-12.41zm4.29 6.97l3.29 3.27-8.36 13.13-2.65-2.93 7.72-13.47zm4.76 7.58l3.04 3.1-7.89 13.42-2.66-3.45 7.51-13.07zm4.97 8.18l2.13 3.37-6.23 12.48-2.37-3.33 6.47-12.52zm4.76 8.18l2.66 3.5-5.1 9.57-2.75-3.33 5.19-9.74zm5.04 7.92l2.43 2.88-4.6 12.24-3.17-3.16 5.34-11.96zm5.85 8.81l2.88 2.89-4.48 12.23-3.12-3.32 4.72-11.8zm6.35 7.48l3.11 3.48-4.69 13.78-3.4-3.38 4.98-13.88zm6.71 10.05l3.06 3.61-5.1 13.28-3.06-3.62 5.1-13.27zm6.23 7.79l3.19 4.92-5.19 12.76-2.13.02-2.48-3.04 6.61-14.66zm6.1 10.59l2.84 4.24-1.9 3.21-4.11.04-.69-1.42 3.86-6.07zm-71.13-73.27s-.38.39-.92 1.05v14.42c4.89 3.2 11.68 0 11.68 0zm37.79 50.28l-12.34-14.83s-7.81 6.24-2.16 14 14.5.83 14.5.83zm-14.07-16.49l-11-16.31s-8.57 7.15-3.59 14 14.59 2.31 14.59 2.31zm14.95 19.2l11.28 16.73s-9.63 4.88-14.41-2.54 3.13-14.19 3.13-14.19zm16.87 26.99l-4.18-7.24s-4.8.4-5.16 7.34zM155.24 407s-9.86 4.59-11 18.15l7.54-.08s1.19-8.21 7.44-10.57z"/><path d="M149.14 397.08s-14.55 5.42-13.34 27.62m-4.23-48.58a30.38 30.38 0 00-8.16 7.69" fill="none" stroke="#fff" stroke-linejoin="round" stroke-width="1.56"/><path d="M195.78 231.21l-.17-15.86h2.07l.17 15.86zm18.37-16.06h3.08c2.22 0 3.23 1.46 3.25 4.16 0 1.36-.4 2.8-1.4 3.33 1.06.61 1.69 1.7 1.72 3.74 0 2.62-.84 4.6-3.2 4.63h-3.28zm2.15 6.48h.75c.78 0 1.38-.71 1.36-2 0-1.47-.45-2.24-1.37-2.23h-.79zm.07 7.12h.87c1.11 0 1.5-.85 1.48-2.45s-.49-2.44-1.73-2.42h-.67zm7.18 2.17l-.17-15.87 5.55-.06v2.38h-3.48v4.09h2.68v2.37h-2.67v4.66h3.71v2.37zm8.05-.09l-.17-15.83h2.07l.15 13.49h3.26v2.37zm7.98-.09l-.17-15.86h2.08l.17 15.86zm4.82-.05l-.17-15.86 5.55-.06v2.37h-3.47v4.09h2.68v2.37h-2.67v4.66h3.71v2.37zm12.91-16h2L257 230.56h-2.07l-2.7-15.84h2l1.63 11zM262 230.5l-.17-15.86 5.55-.06v2.37h-3.48v4.09h2.68v2.37h-2.67v4.66h3.71v2.37zm22.41-.24l-.17-15.86h2.07l.17 15.86zm-86.56 6.98h-2v-2.37l6.08-.07v2.37h-2l.15 13.49H198zm5.55 13.43l-.17-15.86h2.07l.07 6.46h2.21l-.07-6.46h2.08l.17 15.86h-2.08l-.07-7h-2.21l.08 7zm8.08-.09l-.17-15.86 5.55-.06v2.37h-3.48v4.09h2.68v2.37h-2.67l.05 4.66h3.71v2.37zm17.91-.19l-.17-15.86h3c2.56 0 3.76 1.25 3.8 4.64s-1.14 4.69-3.7 4.72h-.9l.07 6.5zm2-8.77h.81c1.35 0 1.76-.57 1.74-2.46s-.44-2.44-1.8-2.42h-.8zm5.95-3.33c0-2.25 1-4.08 3.14-4.1s3.19 1.79 3.22 4l.08 8.17c0 2.24-1 4.08-3.13 4.1s-3.2-1.79-3.22-4zm2.16 8.08c0 1.19.29 1.76 1.13 1.75s1.09-.59 1.08-1.77l-.09-8c0-1.19-.28-1.76-1.12-1.75s-1.1.58-1.08 1.77zm9.5-12.05h1.71l1.51 10.09 1-10.12h1.94l-2 15.88h-1.74l-1.62-10.46-1.29 10.49h-1.74l-2.46-15.84h1.94l1.38 10.1zm7.81 15.78l-.17-15.87 5.55-.06v2.38h-3.48v4.09h2.68v2.37h-2.67l.05 4.66h3.71v2.37zm9.19-.1h-2l-.17-15.86h2.91c2.33 0 3.53 1.25 3.56 4.64 0 2.55-.71 3.59-1.41 4l1.84 7.17h-2.11l-1.62-6.53a8.35 8.35 0 01-1.07.07zm-.1-8.75h.74c1.12 0 1.53-.57 1.51-2.46s-.44-2.43-1.56-2.42h-.74zm16.77-3.45c0-2.24 1-4.08 3.14-4.1s3.19 1.79 3.22 4l.09 8.17c0 2.25-1 4.08-3.14 4.1s-3.19-1.79-3.22-4zm2.16 8.08c0 1.19.29 1.76 1.13 1.75s1.09-.58 1.08-1.77l-.08-8c0-1.19-.29-1.76-1.13-1.75s-1.1.59-1.08 1.77zm-86.57 56.89l-.51-47.13 6.16-.06.43 40.07 9.69-.1.07 7.05zm25.17-35.98c-.07-6.66 2.85-12.11 9.31-12.17s9.5 5.31 9.57 12l.26 24.28c.07 6.66-2.85 12.11-9.31 12.18s-9.49-5.32-9.57-12zm6.42 24c0 3.52.85 5.21 3.34 5.19s3.25-1.74 3.22-5.26l-.26-23.89c0-3.52-.85-5.21-3.33-5.19s-3.26 1.74-3.23 5.26zm35.33-35.87l6.06-.07-7 47.21-6.16.07-8-47 6.06-.06 4.86 32.6h.09zm16.42 46.95l-.5-47.12 16.49-.18.07 7.05-10.33.11.13 12.14 8-.08.07 7-7.94.08.15 13.84 11-.12.08 7.05z" fill="#fff"/><path d="M127.41 432.56c-6.15-46.82-1.39-94.38-3.6-141.53m248.33.52q-.27 61.74-.62 123.47" fill="none" stroke="#262521" stroke-linecap="round" stroke-linejoin="round" stroke-width="3"/></svg>