<svg xmlns="http://www.w3.org/2000/svg" width="500" height="550" viewBox="0 0 500 550"><path d="M372.13 291.55q-.25 61.74-.61 123.47c-.82 9-2.69 16.4-3.56 25.44-1 10.07 1.35 17-1.5 25.63-.58 1.77-2 1.67-3.35 1.43-44.58-7.73-101.65-5.71-146.65-2.92-24.59.58-58.61-1.67-83 2.09-5.23.6-5.68.28-6.62-4.82-1.35-11.26 1.44-20 0-30.81-6.15-46.82-.89-92.88-3.1-140-1.41 2.82-2.94 5.6-4.28 8.46-2.37 10.67-17.51 9.3-11.81 16.18 11.11 7.95 6.4 21.38 5.15 32.56-.25 3.15-1.35 6.27-.37 9.58.5 8.43-3.2 16.94-4.39 25.31-1.5 8-2.6 15.83-1.53 23.93a5.17 5.17 0 01-1.14 3.3c-5.71 6.28-7.74 14-9.18 22.06-.57 3.18-.62 3-3.74 2-12.38-3.52-26.09-4.38-38.61-1.18-1.39.34-2.1 0-2.41-1.47-2-7.76-2.17-16.67-8.48-22.43a6.66 6.66 0 01-1.33-3.22A144 144 0 0139 372.85c-1.92-63 2.6-126.92 26.19-186 13.6-35.43 24.56-73.32 48.06-103.67 27.32-18.2 60-23.76 90.46-34.78a3.16 3.16 0 012.72.43c5 5.55 11.47 8.41 18.56 9.67 19.19 2.43 41.3 5.55 58.65-4.88 2.86-1.27 4.2-6.53 7.88-5 29.12 10.49 61 14.4 87.43 31.58 15.94 14.59 21.63 38 30.46 57.2 27.81 67.49 58 137.4 51.05 212.08-1.19 18.66-.24 37.46-3.29 56-.48 4.66-5.2 7.09-5.55 11.78-1.22 5.28-2.08 10.65-2.91 16-.41 2.6-.42 2.83-3.09 2.33-12.47-2.66-25.25-5.49-37.79-1.58-8.34-.15-8.14-15.56-11.45-21.41-6.27-7.36-3.6-9-5.32-17.63-.9-9.7-4.69-20.27.79-29.26 2-3.53 1.86-7.05.51-10.66-4.9-11.29-7.4-23.42-10.46-35.29-1.06-4.31-1.31-8.5 1.62-12.34 1.49-7.15-10.43-8.7-10.94-15.93z" fill="#262521" stroke="#262521" stroke-linecap="round" stroke-linejoin="round" stroke-width="3"/><path d="M231.89 170.73h-3.55v-11.88L218 141.68h4.22l8 13.84 7.8-13.84h4l-10.19 17.17zM240 158a8.17 8.17 0 014.74-5 11.4 11.4 0 018.08 0 8.5 8.5 0 012.93 2 8.32 8.32 0 011.79 3 11.86 11.86 0 010 7.45 8.2 8.2 0 01-4.72 5 11.69 11.69 0 01-8.08 0 8.33 8.33 0 01-2.95-2 8.46 8.46 0 01-1.79-3 11.86 11.86 0 010-7.45zm3.23 6.66a6.09 6.09 0 001.29 2.14 5.43 5.43 0 001.92 1.31 6.26 6.26 0 004.66 0 5.56 5.56 0 001.93-1.31 6.22 6.22 0 001.28-2.14 9.34 9.34 0 000-5.85 6.42 6.42 0 00-1.28-2.16 5.61 5.61 0 00-1.93-1.33 6.26 6.26 0 00-4.66 0 5.48 5.48 0 00-1.92 1.33 6.28 6.28 0 00-1.29 2.16 9.34 9.34 0 000 5.85zm31.58 6.07v-3.34h-.07a6.86 6.86 0 01-2.58 2.87 7.22 7.22 0 01-3.69.92 8.17 8.17 0 01-3.18-.55 5.12 5.12 0 01-2.05-1.57 6.11 6.11 0 01-1.1-2.42 14.16 14.16 0 01-.32-3.11v-11.27H265v11.68a4.38 4.38 0 001 3.06 3.7 3.7 0 002.87 1.14 6.09 6.09 0 002.52-.49 4.86 4.86 0 001.78-1.39 6.15 6.15 0 001.06-2.09 9.07 9.07 0 00.35-2.62v-9.32h3.18v18.47zm-41.67 98.39v3.25h-14v10.73h12.25v3.26h-12.21v13.3h-3.54v-30.54zm3.59 6.23v-4.23h3.17v4.23zm3.17 4.28v20h-3.17v-20zm8.3 0v4.43h.07a9.18 9.18 0 012.84-3.78 6.73 6.73 0 014.25-1.14v3.66a8.27 8.27 0 00-3.24.57A5.18 5.18 0 00250 285a7.13 7.13 0 00-1.19 2.66 7.93 7.93 0 00-.38 2.6v9.36h-3.17v-20zm13.14 15.56a3.29 3.29 0 001.06 1.21 4.43 4.43 0 001.49.64 7.41 7.41 0 001.71.19 10.26 10.26 0 001.42-.11 4.67 4.67 0 001.37-.43 2.65 2.65 0 001-.91 2.71 2.71 0 00.41-1.54 2.3 2.3 0 00-.85-1.94 6.74 6.74 0 00-2.11-1.07c-.85-.27-1.77-.51-2.76-.73a13.18 13.18 0 01-2.76-.94 5.71 5.71 0 01-2.11-1.69 4.77 4.77 0 01-.85-3 5.43 5.43 0 01.59-2.6 5.35 5.35 0 011.53-1.76 6.44 6.44 0 012.09-1 8.55 8.55 0 012.32-.33 11.75 11.75 0 012.74.29 5.78 5.78 0 012.22 1 5.09 5.09 0 011.54 1.94 8.14 8.14 0 01.67 3.05h-2.87a3.69 3.69 0 00-.44-1.61 3.14 3.14 0 00-.95-1 4 4 0 00-1.27-.57 6 6 0 00-1.4-.17 8.25 8.25 0 00-1.3.11 4.15 4.15 0 00-1.2.41 2.47 2.47 0 00-.88.78 2.11 2.11 0 00-.34 1.26A2 2 0 00262 286a4.16 4.16 0 001.34.93 10.32 10.32 0 001.83.62l2 .53a19.11 19.11 0 012.11.66 6.53 6.53 0 011.83 1 4.76 4.76 0 011.28 1.61 5.28 5.28 0 01.49 2.41 6.22 6.22 0 01-.66 3 5.52 5.52 0 01-1.72 2 6.8 6.8 0 01-2.4 1 12.82 12.82 0 01-2.66.29 10.89 10.89 0 01-2.77-.35 6.57 6.57 0 01-2.34-1.15 5.54 5.54 0 01-1.62-2.1 8.11 8.11 0 01-.68-3.16h2.88a4.09 4.09 0 00.43 1.9zm23.01-15.06v3.05H281v11.56a4.2 4.2 0 00.09 1 .94.94 0 00.36.57 1.4 1.4 0 00.72.27 10.08 10.08 0 001.22.06h1v3.05h-1.92a10.64 10.64 0 01-2.11-.18 3.08 3.08 0 01-1.42-.67 2.91 2.91 0 01-.8-1.39 8.41 8.41 0 01-.26-2.36v-11.91h-2.79v-3.05h2.79v-7.81H281v7.81z" fill="#f7f7f7" stroke="#fff" stroke-miterlimit="10" stroke-width=".5"/></svg>