<svg xmlns="http://www.w3.org/2000/svg" width="500" height="550" viewBox="0 0 500 550"><path d="M338.6 58.43c-5.35-3.37-4.85-8.67-6.86-12.68s-8.35 1-8.35 1-6.52-9.53-10.7-14.77S257 33.22 257 33.22h-6c-10.95-1.37-57.91-4.79-63.07 2.3-5.85 8-7.19 8-7.19 8s-4.85-4.85-8.69 0-21 17.48-17.66 23.8 38.11 17.55 38.11 17.55l58 23.79S345.45 72 346.79 67.82s-2.79-6.02-8.19-9.39z" fill="#262521" stroke="#262521" stroke-linecap="round" stroke-linejoin="round" stroke-width="3"/><path d="M372.64 291.56q-.27 61.73-.64 123.44c-.81 9-2.68 16.41-3.55 25.44-1 10.07 1.34 17.05-1.5 25.64-.59 1.76-2 1.66-3.35 1.43-44.6-7.72-101.6-5.7-146.6-2.9-24.6.57-58.62-1.68-83 2.09-5.23.59-5.68.27-6.62-4.83-1.35-11.26 1.94-18.53.53-29.31-6.15-46.82-1.39-94.37-3.6-141.53-1.42 2.83-2.94 5.6-4.29 8.46-2.37 10.68-17.5 9.3-11.81 16.18 11.11 7.95 6.41 21.38 5.15 32.56-.25 3.15-1.35 6.27-.37 9.58.51 8.44-3.19 16.94-4.38 25.31-1.5 8-2.61 15.83-1.54 23.93a5.1 5.1 0 01-1.13 3.3c-5.71 6.28-7.75 14-9.19 22.06-.57 3.18-.61 3-3.74 2-12.38-3.52-26.09-4.38-38.6-1.18-1.39.34-2.11 0-2.41-1.47-2-7.76-2.18-16.67-8.49-22.43a6.62 6.62 0 01-1.33-3.21 144.54 144.54 0 01-2.72-33.31c-1.91-63 2.6-126.93 26.19-186 13.61-35.43 24.56-73.32 48.07-103.67C141 65 173.75 59.42 204.18 48.4c.8-.26 84.13-1.31 87.8.23C321.1 59.12 353 63 379.42 80.21c15.94 14.59 21.63 38 30.45 57.21 27.81 67.48 58 137.39 51.05 212.08-1.19 18.65-.23 37.45-3.28 55.95-.49 4.66-5.21 7.1-5.56 11.78-1.22 5.28-2.08 10.65-2.91 16-.4 2.6-.41 2.83-3.08 2.33-12.48-2.66-25.26-5.49-37.8-1.58-8.34-.15-8.13-15.56-11.44-21.4-6.28-7.37-3.61-9-5.33-17.64-.9-9.7-4.68-20.27.79-29.26 2-3.53 1.86-7.05.51-10.66-4.9-11.28-7.4-23.41-10.45-35.29-1.07-4.3-1.31-8.49 1.61-12.34 1.51-7.23-10.43-8.68-10.93-15.93z" fill="#262521" stroke="#262521" stroke-linecap="round" stroke-linejoin="round" stroke-width="3"/><path d="M244.27 92.41c-77.51-40.94-51.11-43.56-36.17-46.34 16.21-3 67.31-4.92 82.68-2.58 16.47 2.51 47.9 7.89-29.18 48.92" fill="none" stroke="#636363" stroke-linecap="round" stroke-linejoin="round" opacity=".95"/><path d="M156.58 68.23C169.64 73.61 245.47 110 253.8 110s49.3-28.66 88.06-44" fill="none" stroke="#636363" stroke-linecap="round" stroke-linejoin="round" opacity=".95"/><path d="M274.06 92.41c.79 11.33 1.11 22.69 1.38 34 .36 14.82.54 29.63.69 44.45q.25 24 .44 48c.14 15.12.31 30.23.62 45.34.24 11.95.53 23.91 1.23 35.85l.21 3.37c.13 1.92 3.13 1.93 3 0-.77-11.39-1.07-22.82-1.34-34.24-.34-14.85-.51-29.7-.66-44.55-.17-16-.28-32-.44-48-.14-15.08-.31-30.17-.64-45.25-.25-11.89-.55-23.78-1.28-35.65-.06-1.12-.14-2.23-.21-3.35-.14-1.91-3.14-1.93-3 0z" fill="#fff"/><path fill="none" stroke="#fff" stroke-linecap="round" stroke-linejoin="round" d="M280.13 301.45l.81 9.69"/><path d="M227 95.56c.78 11.15 1.12 22.33 1.38 33.5.33 14.3.46 28.61.5 42.91q.06 23.17-.22 46.34-.26 21.91-.78 43.83c-.29 11.64-.64 23.27-1.17 34.89 0 1.14-.11 2.27-.16 3.41-.1 1.93 2.9 1.92 3 0 .56-11.17.91-22.35 1.21-33.53q.57-21.47.83-42.93.3-23.17.3-46.34c0-14.61-.11-29.21-.4-43.82-.24-11.62-.55-23.26-1.27-34.86-.07-1.14-.14-2.27-.22-3.4-.13-1.92-3.14-1.93-3 0z" fill="#fff"/><path fill="none" stroke="#fff" stroke-linecap="round" stroke-linejoin="round" d="M228.14 297.36l-.64 11.17"/><ellipse cx="302.49" cy="71.9" rx="3.26" ry="1.7" transform="rotate(-30 302.496 71.894)" opacity=".95" stroke="#7c7c7c" stroke-linecap="round" stroke-linejoin="round" fill="none"/><ellipse cx="307.1" cy="77.44" rx="3.26" ry="1.64" transform="rotate(-30 307.094 77.426)" opacity=".95" stroke="#7c7c7c" stroke-linecap="round" stroke-linejoin="round" fill="none"/><ellipse cx="314.23" cy="60.45" rx="3.26" ry="2.7" transform="rotate(-75.92 314.255 60.44)" opacity=".95" stroke="#7c7c7c" stroke-linecap="round" stroke-linejoin="round" fill="none"/><ellipse cx="323.65" cy="68.54" rx="3.26" ry="2.49" transform="rotate(-20.18 323.717 68.533)" opacity=".95" stroke="#7c7c7c" stroke-linecap="round" stroke-linejoin="round" fill="none"/><ellipse cx="285.41" cy="83.31" rx="3.26" ry="1.32" transform="rotate(-30 285.415 83.317)" opacity=".95" stroke="#7c7c7c" stroke-linecap="round" stroke-linejoin="round" fill="none"/><ellipse cx="289.38" cy="87.73" rx="3.26" ry="1.15" transform="rotate(-30 289.395 87.723)" opacity=".95" stroke="#7c7c7c" stroke-linecap="round" stroke-linejoin="round" fill="none"/><ellipse cx="215.29" cy="83.37" rx="1.01" ry="3.26" transform="matrix(.5 -.87 .87 .5 35.44 228.13)" opacity=".95" stroke="#7c7c7c" stroke-linecap="round" stroke-linejoin="round" fill="none"/><ellipse cx="211.3" cy="87.56" rx="1.09" ry="3.26" transform="rotate(-60 211.299 87.56)" opacity=".95" stroke="#7c7c7c" stroke-linecap="round" stroke-linejoin="round" fill="none"/><ellipse cx="198.12" cy="71.86" rx="1.75" ry="3.26" transform="rotate(-60 198.11 71.863)" opacity=".95" stroke="#7c7c7c" stroke-linecap="round" stroke-linejoin="round" fill="none"/><ellipse cx="193.45" cy="77.5" rx="1.71" ry="3.26" transform="rotate(-60 193.449 77.497)" opacity=".95" stroke="#7c7c7c" stroke-linecap="round" stroke-linejoin="round" fill="none"/><ellipse cx="186.49" cy="60.43" rx="2.84" ry="3.26" transform="rotate(-15.94 186.53 60.416)" opacity=".95" stroke="#7c7c7c" stroke-linecap="round" stroke-linejoin="round" fill="none"/><ellipse cx="177.14" cy="68.53" rx="2.83" ry="3.26" transform="rotate(-64.59 177.16 68.52)" opacity=".95" stroke="#7c7c7c" stroke-linecap="round" stroke-linejoin="round" fill="none"/><circle cx="239.18" cy="132.99" r="3.26" fill="none" stroke="#7c7c7c" stroke-linecap="round" stroke-linejoin="round" opacity=".95"/><circle cx="266.62" cy="132.99" r="3.26" fill="none" stroke="#7c7c7c" stroke-linecap="round" stroke-linejoin="round" opacity=".95"/><path d="M239.18 133s16.51-2.84 27.44 0" fill="none" stroke="#fff" stroke-linecap="round" stroke-linejoin="round" stroke-width="4"/><circle cx="239.18" cy="162.11" r="3.26" fill="none" stroke="#7c7c7c" stroke-linecap="round" stroke-linejoin="round" opacity=".95"/><circle cx="266.62" cy="162.11" r="3.26" fill="none" stroke="#7c7c7c" stroke-linecap="round" stroke-linejoin="round" opacity=".95"/><path d="M239.18 162.11s16.51-2.85 27.44 0" fill="none" stroke="#fff" stroke-linecap="round" stroke-linejoin="round" stroke-width="4"/><circle cx="239.18" cy="189.83" r="3.26" fill="none" stroke="#7c7c7c" stroke-linecap="round" stroke-linejoin="round" opacity=".95"/><circle cx="266.62" cy="189.83" r="3.26" fill="none" stroke="#7c7c7c" stroke-linecap="round" stroke-linejoin="round" opacity=".95"/><path d="M239.18 189.83s16.51-2.84 27.44 0" fill="none" stroke="#fff" stroke-linecap="round" stroke-linejoin="round" stroke-width="4"/><circle cx="239.18" cy="217.39" r="3.26" fill="none" stroke="#7c7c7c" stroke-linecap="round" stroke-linejoin="round" opacity=".95"/><circle cx="266.62" cy="217.39" r="3.26" fill="none" stroke="#7c7c7c" stroke-linecap="round" stroke-linejoin="round" opacity=".95"/><path d="M239.18 217.39s16.51-2.84 27.44 0" fill="none" stroke="#fff" stroke-linecap="round" stroke-linejoin="round" stroke-width="4"/><circle cx="239.18" cy="248.94" r="3.26" fill="none" stroke="#7c7c7c" stroke-linecap="round" stroke-linejoin="round" opacity=".95"/><circle cx="266.62" cy="248.94" r="3.26" fill="none" stroke="#7c7c7c" stroke-linecap="round" stroke-linejoin="round" opacity=".95"/><path d="M239.18 248.94s16.51-2.84 27.44 0" fill="none" stroke="#fff" stroke-linecap="round" stroke-linejoin="round" stroke-width="4"/><circle cx="239.18" cy="280.63" r="3.26" fill="none" stroke="#7c7c7c" stroke-linecap="round" stroke-linejoin="round" opacity=".95"/><circle cx="266.62" cy="280.63" r="3.26" fill="none" stroke="#7c7c7c" stroke-linecap="round" stroke-linejoin="round" opacity=".95"/><path d="M239.18 280.63s16.51-2.84 27.44 0" fill="none" stroke="#fff" stroke-linecap="round" stroke-linejoin="round" stroke-width="4"/><circle cx="239.18" cy="312.22" r="3.26" fill="none" stroke="#7c7c7c" stroke-linecap="round" stroke-linejoin="round" opacity=".95"/><circle cx="266.62" cy="312.22" r="3.26" fill="none" stroke="#7c7c7c" stroke-linecap="round" stroke-linejoin="round" opacity=".95"/><path d="M239.18 312.22s16.51-2.84 27.44 0" fill="none" stroke="#fff" stroke-linecap="round" stroke-linejoin="round" stroke-width="4"/><circle cx="239.18" cy="345.19" r="3.26" fill="none" stroke="#7c7c7c" stroke-linecap="round" stroke-linejoin="round" opacity=".95"/><circle cx="266.62" cy="345.19" r="3.26" fill="none" stroke="#7c7c7c" stroke-linecap="round" stroke-linejoin="round" opacity=".95"/><path d="M239.18 345.19s16.51-2.84 27.44 0" fill="none" stroke="#fff" stroke-linecap="round" stroke-linejoin="round" stroke-width="4"/><circle cx="239.18" cy="378.11" r="3.26" fill="none" stroke="#7c7c7c" stroke-linecap="round" stroke-linejoin="round" opacity=".95"/><circle cx="266.62" cy="378.11" r="3.26" fill="none" stroke="#7c7c7c" stroke-linecap="round" stroke-linejoin="round" opacity=".95"/><path d="M239.18 378.11s16.51-2.84 27.44 0" fill="none" stroke="#fff" stroke-linecap="round" stroke-linejoin="round" stroke-width="4"/><circle cx="239.18" cy="409.34" r="3.26" fill="none" stroke="#7c7c7c" stroke-linecap="round" stroke-linejoin="round" opacity=".95"/><circle cx="266.62" cy="409.34" r="3.26" fill="none" stroke="#7c7c7c" stroke-linecap="round" stroke-linejoin="round" opacity=".95"/><path d="M239.18 409.34s16.51-2.84 27.44 0m19.1-325.7a14.73 14.73 0 013.28 3.81m13.4-15.57a12 12 0 014.71 5.57m6.64-17.14s7.66 0 10 8.61M214.82 83.64a14.73 14.73 0 00-3.24 3.81m-13.44-15.57a11.9 11.9 0 00-4.71 5.57m-6.64-17.14s-7.66 0-10 8.61" fill="none" stroke="#fff" stroke-linecap="round" stroke-linejoin="round" stroke-width="4"/></svg>