<svg xmlns="http://www.w3.org/2000/svg" width="500" height="550" viewBox="0 0 500 550"><defs><clipPath id="a"><path d="M372.08 291.55c-.18 41.16-7.66 176.21-9 176-44.58-7.74-101.65-5.72-146.65-2.93-24.59.58-58.62-1.67-83 2.09-5.22.6-5.68.28-6.62-4.82-1.34-11.26 1.94-18.53.53-29.31-6.15-46.82-1.39-94.37-3.6-141.53-1.24 2.48 3.64-133.85-19.86-195.74 0 0 7.69-11.41 9.77-13.11 16.6-13.54 59.53-22.76 90-33.78a3.16 3.16 0 012.72.43c5 5.55 11.46 8.41 18.56 9.67 19.19 2.43 41.29 5.55 58.65-4.88 2.86-1.27 4.2-6.53 7.88-5 29.12 10.49 79.22 19 89.08 33.16 4.6 5.68 9.72 12.63 9.72 12.63C384.75 118 372.6 198.68 372 203.69c-1.5 38.16.7 90.93.48 87.78z" fill="none"/></clipPath></defs><path d="M372.08 291.55q-.27 61.74-.62 123.47c-.81 9-2.68 16.41-3.55 25.44-1 10.07 1.34 17.05-1.5 25.63-.58 1.77-2 1.67-3.35 1.44-44.58-7.74-101.65-5.72-146.65-2.93-24.59.58-58.62-1.67-83 2.09-5.22.6-5.68.28-6.62-4.82-1.34-11.26 1.94-18.53.53-29.31-6.15-46.82-1.39-94.37-3.6-141.53-1.41 2.82-2.94 5.6-4.28 8.46-2.37 10.67-17.51 9.3-11.82 16.18 11.12 7.95 6.41 21.38 5.15 32.56-.24 3.15-1.34 6.27-.37 9.58.51 8.44-3.19 16.94-4.38 25.31-1.5 8-2.61 15.83-1.53 23.93a5.17 5.17 0 01-1.14 3.3c-5.71 6.28-7.74 14-9.19 22.06-.57 3.18-.61 3-3.73 2-12.38-3.52-26.1-4.38-38.61-1.18-1.39.34-2.1 0-2.41-1.47-2-7.76-2.17-16.67-8.49-22.43a6.62 6.62 0 01-1.33-3.22 145 145 0 01-2.72-33.3c-1.91-63 2.61-126.93 26.2-186 13.6-35.43 24.56-73.32 48.06-103.67 27.32-18.2 60-23.76 90.46-34.78a3.16 3.16 0 012.72.43c5 5.55 11.46 8.41 18.56 9.67 19.19 2.43 41.29 5.55 58.65-4.88 2.86-1.27 4.2-6.53 7.88-5 29.12 10.49 61.05 14.4 87.43 31.58 15.94 14.59 21.63 38 30.45 57.21 27.82 67.48 58 137.39 51.06 212.07-1.2 18.66-.24 37.46-3.29 56-.48 4.66-5.2 7.09-5.56 11.78-1.21 5.28-2.07 10.65-2.9 16-.41 2.6-.42 2.83-3.09 2.33-12.48-2.66-25.25-5.49-37.8-1.58-8.33-.15-8.13-15.56-11.44-21.41-6.28-7.36-3.61-9-5.33-17.63-.9-9.7-4.68-20.27.79-29.26 2-3.53 1.87-7.05.51-10.66-4.9-11.29-7.4-23.42-10.45-35.29-1.06-4.31-1.31-8.5 1.61-12.34 1.49-7.15-10.43-8.7-10.93-15.93z" fill="#262521" stroke="#262521" stroke-linecap="round" stroke-linejoin="round" stroke-width="3"/><g clip-path="url(#a)" fill="#fff"><path d="M267.06 219.33l15.12-2.74-3.14 33.47 15.36-10.79-12.76 88.83-1.69-61.79-11.16 11.82-1.73-58.8zM305.04 209.46l14.18-5.91 4.1 33.37 12.7-13.84 6.57 89.51-14.89-59.99-8.37 13.93-14.29-57.07zM339.45 191.87l12.63-8.76 11.02 31.76 9.5-16.19 25.24 86.13-27.16-55.53-5.26 15.39-25.97-52.8zM369.89 168.86l9.87-11.77 18.99 27.74 4.91-18.12 47 76.46-40.81-46.43-1.03 16.23-38.93-44.11zM226.03 219.06l15.31 1.34-11.84 31.46 17.66-6.37-35.69 82.35 14.63-60.06-13.88 8.47 13.81-57.19zM185.93 209.53l14.54 4.96-19.01 27.72 18.67-1.97-54.31 71.45 28.55-54.83-15.5 4.91 27.06-52.24zM152.38 191.77l13.13 7.98-24.55 22.97 18.66 2.11-68.47 58.03 39.72-47.36-16.2 1.44 37.71-45.17zM246.23 110.22l5.68-.15-3 15.5 5.71-4.2-9.93 30.03 2.39-19.81-4.03 3.65 3.18-25.02zM216.69 103.57l5.16 2.4-9.59 12.53 6.99-1.21-22.27 22.46 10.96-16.68-5.23 1.49 13.98-20.99zM230.48 108.55l5.6 1-6.07 14.57 6.45-2.96-15.78 27.4 6.33-18.92-4.68 2.77 8.15-23.86zM204.84 95.19l4.34 3.66-12.53 9.6 7.06.65-27.37 15.85 14.94-13.22-5.43.06 18.99-16.6zM195.85 84.94l3.39 4.56-14.4 6.46 6.72 2.26-30.27 9.15 17.58-9.44-5.31-1.19 22.29-11.8zM189.74 73.77l2.5 5.1-15.34 3.71 6.19 3.45-31.44 3.44 19.01-6.06-5-2.14 24.08-7.5zM185.51 61.57l1.67 5.43-15.74 1.26 5.58 4.38-31.59-1.53 19.73-3-4.6-2.9 24.95-3.64zM260.53 109l5.55-1.2-.05 15.78 4.83-5.19-4.16 31.35-1.35-19.91-3.27 4.35-1.55-25.18zM274.78 104.59l5.19-2.31 3.15 15.47 3.67-6.07 2.3 31.55-5.36-19.22-2.32 4.91-6.63-24.33zM286.84 97.77l4.41-3.58 7.06 14.12 1.98-6.82 10.41 29.87-10.17-17.17-.97 5.35-12.72-21.77zM296.6 88.25l3.5-4.47 10.03 12.18.41-7.08 16.82 26.78-13.75-14.46.26 5.43-17.27-18.38zM304.28 76.82l2.59-5.06 12.17 10.05-.96-7.03 21.62 23.09-16.25-11.58 1.29 5.29-20.46-14.76zM310.08 63.63l1.65-5.44 13.76 7.74-2.19-6.75 25.36 18.9-18.04-8.52 2.2 4.97-22.74-10.9zM275.46 149.24l8.39-2.82 2.63 24.47 6.59-8.88-1.04 49.31-5.52-30.63-4.32 7.3-6.73-38.75zM120.6 165.03l11.15 10.58-28.86 17.25 17.78 6.01-79.2 42.21 48.85-37.87-16.13-2.03 46.41-36.15zM252.18 152.75l9.09-.73-3.47 25.09 8.79-7.22-13.32 48.97 2.12-31.95-6.13 6.21 2.92-40.37zM227.2 151.4l9.01 1.39-9.2 23.6 10.23-4.99-24.32 44.55 9.47-30.59-7.4 4.62 12.21-38.58zM183.58 131.95l7.42 5.3-18.83 16.94 11.38.15-41.75 28.84 22.21-23.06-8.69.8 28.26-28.97zM204.69 144.54l8.44 3.45-14.42 20.82 11.1-2.48-33.99 37.68 16.31-27.55-8.27 2.77 20.83-34.69zM166.21 114.58l6.03 6.83-22.15 12.28 11.06 2.7-47.18 18.72 26.84-17.47-8.65-1.18 34.05-21.88zM145.36 76.32l3.35 8.48-25 4.01 9.47 6.3-50.72 1.57 31.17-7.31-7.73-4.05 39.46-9zM153.39 95.79l4.71 7.8-24 8.09 10.39 4.65-49.77 9.93 29.54-12.37-8.3-2.71 37.43-15.39zM297.55 140.01l7.87-4.61 7.78 24.1 4.78-10.33 9.29 49.89-11.99-29.69-2.82 8.26-14.91-37.62zM317.06 125.97l6.47-6.42 13.55 21.39 2.05-11.19 21.45 45.99-19.01-25.76-.68 8.7-23.83-32.71zM332.3 109.72l5.27-7.44 17.02 18.75.1-11.37 29.02 41.63-23.15-22.12.83 8.69-29.09-28.14zM343.39 91.53l4.06-8.16 19.7 15.92-1.65-11.26 35.07 36.68-26.27-18.3 2.15 8.45-33.06-23.33zM352.74 70.73l2.42-8.79 22.39 11.83-3.78-10.73 41.47 29.25-29.3-12.9 3.74 7.88-36.94-16.54z"/></g><path d="M204.59 51.38c.8-.26 4.44 39.77 42.44 41.81s45.37-41.58 45.37-41.58" fill="none" stroke="#636363" stroke-linecap="round" stroke-linejoin="round"/><path d="M122 225.09c-2.12 15.63.11 29.7.11 32.87S124 291 124 291M371.53 188.86s.78 43.77 0 75.14l1 27.47M291.43 48.63c29.12 10.49 61.05 14.4 87.43 31.58A66.38 66.38 0 01391.74 97M101.16 101a170.12 170.12 0 0112-17.8A138 138 0 01133 72.32" fill="none" stroke="#262521" stroke-linecap="round" stroke-linejoin="round" stroke-width="3"/></svg>