<svg xmlns="http://www.w3.org/2000/svg" xmlns:xlink="http://www.w3.org/1999/xlink" width="500" height="550" viewBox="0 0 500 550"><defs><pattern id="a" width="14.25" height="9.19" patternTransform="matrix(-0.76, -0.65, -0.65, 0.76, -11.32, -24.98)" patternUnits="userSpaceOnUse" viewBox="0 0 14.25 9.2"><rect width="14.25" height="9.19" fill="none"/><rect width="14.25" height="3.5" fill="#42413b"/><rect y="3.5" width="14.25" height="5.69" fill="#fff"/></pattern><pattern id="b" width="14.25" height="9.19" patternTransform="matrix(0.76, -0.65, 0.65, 0.76, 19.79, -21.97)" patternUnits="userSpaceOnUse" viewBox="0 0 14.25 9.2"><rect width="14.25" height="9.19" fill="none"/><rect width="14.25" height="3.5" fill="#42413b"/><rect y="3.5" width="14.25" height="5.69" fill="#fff"/></pattern><pattern id="c" width="14.25" height="9.19" patternUnits="userSpaceOnUse" viewBox="0 0 14.25 9.2"><rect width="14.25" height="9.19" fill="none"/><rect width="14.25" height="3.5" fill="#42413b"/><rect y="3.5" width="14.25" height="5.69" fill="#fff"/></pattern></defs><title>s05e03-01</title><path d="M467.36,170.44c-22.24-32.92-75.74-84.54-92.64-94.14S294.07,49,294.07,49c-48.16,30.16-87.35,0-87.35,0s-66.91,17.62-83.34,28.88-90.84,87.42-90.84,94.26,53.44,56.43,62.85,56,35.49-17.11,35.91-12.83c3,106.81,3.39,242.74,2.36,247.07-1.82,7.65-1.09,17.66,3.64,18.54s42.22-7.43,57.87-4.15,176.13,4.51,179.41,2.33c2-1.32.68-146.85-3.54-264.22-.31-8.55,22.75,18,31.33,12.83C410,223.12,470.28,174.77,467.36,170.44Z" fill="#fff"/><path d="M131.3,215.33c0,1.29,40-102.75,3.85-143.44a71.15,71.15,0,0,0-11.77,6C107,89.14,32.54,165.31,32.54,172.15s53.44,56.43,62.85,56S130.88,211.05,131.3,215.33Z" fill="url(#a)"/><path d="M467.36,170.44c-22.24-32.92-75.74-84.54-92.64-94.14-49,15-3.48,144.23-3.68,138.6-.31-8.55,22.75,18,31.33,12.83C410,223.12,470.28,174.77,467.36,170.44Z" fill="url(#b)"/><path d="M206.72,49s39.19,30.16,87.35,0" fill="none" stroke="#262521" stroke-linecap="round" stroke-linejoin="round" stroke-width="3"/><path d="M193.36,52.66s7.69,55.79,55.37,55.54c48.85-.26,59.4-55.16,59.4-55.16S357.81,66.7,374.72,76.3c7.84,5.39-1.49,47.14-6.54,70.85-3.91,6.51,2.86,37.34,2.86,37.34s-.31,21.86,0,30.41c4.22,117.37,5.52,262.9,3.54,264.22-3.28,2.18-163.76.94-179.41-2.33s-53.14,5-57.87,4.15-5.46-10.89-3.64-18.54c1-4.33.64-140.26-2.36-247.07-.42-4.28.18-47.5.18-54.34s-24.52-71.85-8.1-83.1S193.36,52.66,193.36,52.66Z" fill="url(#c)"/><path d="M207.22,49s4,48.55,43.68,46.73S294.57,49,294.57,49,358.31,66.7,375.22,76.3s70.4,61.22,92.64,94.14c2.92,4.33-57.35,52.68-65,57.29-8.58,5.17-31.64-21.38-31.33-12.83,4.22,117.37,5.52,262.9,3.54,264.22-3.28,2.18-163.76.94-179.41-2.33s-53.14,5-57.87,4.15-5.46-10.89-3.64-18.54c1-4.33.64-140.26-2.35-247.07-.43-4.28-26.51,12.4-35.92,12.83S33,179,33,172.15s74.42-83,90.85-94.26S207.22,49,207.22,49Z" fill="none" stroke="#262521" stroke-linecap="round" stroke-linejoin="round" stroke-width="3"/><path d="M371,214.9s0-20.6,0-30.41-6.46-19.13-4.36-37.34l4.38-3.1" fill="none" stroke="#262521" stroke-linecap="round" stroke-linejoin="round" stroke-width="3"/><path d="M131.3,215.33s.8-53,0-56.36" fill="none" stroke="#262521" stroke-linecap="round" stroke-linejoin="round" stroke-width="3"/><path d="M193.91,55.71c.82-.26,8.81,53,53.93,53,47.55,0,59.65-53,59.65-53" fill="none" stroke="#636363" stroke-linecap="round" stroke-linejoin="round" stroke-width="1.01"/></svg>