<svg xmlns="http://www.w3.org/2000/svg" width="500" height="550" viewBox="0 0 500 550"><path d="M371.73 291.55q-.25 61.74-.62 123.47c-.81 9-2.68 16.41-3.55 25.44-1 10.07 1.34 17-1.5 25.63-.58 1.77-2 1.67-3.35 1.44-44.58-7.74-101.65-5.72-146.65-2.93-24.59.58-58.62-1.67-83 2.09-5.22.6-5.68.28-6.62-4.82-1.34-11.26 1.45-20 0-30.81-6.15-46.82-.89-92.88-3.1-140-1.41 2.82-2.94 5.6-4.28 8.46-2.37 10.67-17.51 9.3-11.82 16.18 11.12 7.95 6.41 21.38 5.16 32.56-.25 3.15-1.35 6.27-.38 9.58.51 8.43-3.19 16.94-4.38 25.31-1.5 8-2.61 15.83-1.53 23.93a5.17 5.17 0 01-1.14 3.3c-5.71 6.28-7.74 14-9.18 22.06-.58 3.18-.62 3-3.74 2-12.38-3.52-26.1-4.38-38.61-1.18-1.39.34-2.1 0-2.41-1.47-2-7.76-2.17-16.67-8.49-22.43a6.62 6.62 0 01-1.33-3.22 145 145 0 01-2.72-33.3c-1.91-63 2.61-126.93 26.2-186 13.6-35.43 24.56-73.32 48.06-103.67 27.32-18.2 60-23.76 90.46-34.78a3.16 3.16 0 012.72.43c5 5.55 11.46 8.41 18.56 9.67 19.19 2.43 41.29 5.55 58.65-4.88 2.86-1.27 4.2-6.53 7.88-5 29.18 10.51 61.11 14.39 87.49 31.6 15.94 14.59 21.63 38 30.45 57.21C436.78 204.9 467 274.81 460 349.49c-1.2 18.66-.24 37.46-3.29 56-.48 4.66-5.2 7.09-5.56 11.78-1.21 5.28-2.07 10.65-2.9 16-.41 2.6-.42 2.83-3.09 2.33-12.48-2.66-25.25-5.49-37.8-1.58-8.33-.15-8.13-15.56-11.44-21.41-6.28-7.36-3.61-9-5.33-17.63-.9-9.7-4.68-20.27.79-29.26 2-3.53 1.87-7.05.51-10.66-4.9-11.29-7.4-23.42-10.45-35.29-1.06-4.31-1.31-8.5 1.61-12.34 1.49-7.15-10.42-8.7-10.93-15.93z" fill="#989898" stroke="#262521" stroke-linecap="round" stroke-linejoin="round" stroke-width="3"/><path d="M191.47 52.75c-5.43 2.63-56.14 13.84-78.66 30.43-23.5 30.35-34.46 68.24-48.06 103.67-23.59 59.08-26.71 123.32-26.2 186-.15 4.77-1.08 27.73 4.05 36.52 1.43 2.43 8.23 11 8.49 22.43 0 0 25.61-1.89 43.22 3.29 1.85-15 11.87-27.61 11.86-28.05-1.08-8.1 0-16 1.53-23.93 1.19-8.37 4.89-16.88 4.38-25.31-1-3.31.13-6.43.37-9.58 1.26-11.18 6-24.61-5.15-32.56-5.69-6.88 9.45-5.51 11.82-16.18 1.34-2.86 2.87-5.64 4.28-8.46.3 6.49-2.79-88-1.75-105.13.08-1.3.4-4.14.88-8 .23-1.79 1.49-3.81 1.78-6 2.62-19.29 6.6-50.84 8.78-52 2.88-1.57 6.38-1.06 9.58-.89 12.21-25 29.53-48.59 51.46-55.8-1.56-3.65-2.66-10.45-2.66-10.45zM411.25 143c-8.83-19.21-20-53-32.74-62.74s-67.09-24.26-73.37-27c0 0-.51 10.53-8.16 24.46 22.41 15.47 43.63 36.74 58.29 63.66 14.89.14 9.1 17 8.79 19a161.66 161.66 0 018.12 28.32c1.87 14.47 3.13 67.7-1 75.34 0 0 .52 34.65.55 27.55l.41-.08c.51 7.23 12.42 8.78 10.93 15.93-2.92 3.84-2.67 8-1.61 12.34 3.05 11.87 5.55 24 10.45 35.29 1.36 3.61 1.51 7.13-.51 10.66-5.47 9-1.69 19.56-.79 29.26 1.24 6.23.21 8.81 1.86 12.49.26.58 7.1 25.51 14.91 26.55 9.53-5.2 40.09 2 40.09 2 1.36 0 3.3-9.75 5.27-23 .59-4 3.41-3.12 4-7.57 2.74-20.81 3-50 3.6-59.68C465 273.59 439.06 210.44 411.25 143z" fill="#262521"/><path d="M204.24 51.38c.8-.26 4.44 39.77 42.44 41.81s45.37-41.58 45.37-41.58" fill="none" stroke="#636363" stroke-linecap="round" stroke-linejoin="round"/><path d="M192 55.44c.8-.25 6.63 49.81 54.71 49.81 52.44 0 57.95-49.38 57.95-49.38" fill="none" stroke="#636363" stroke-linecap="round" stroke-linejoin="round"/><path d="M121.65 185.9s2.11 23.56 0 39.19.11 29.69.11 32.87 1.89 33.04 1.89 33.04m248.53-102.34s4.79 47.28-1 75.34l1 27.47" fill="none" stroke="#262521" stroke-linecap="round" stroke-linejoin="round" stroke-width="3"/><path d="M50.91 409.51S79.57 400 96.06 412m305.72 0s25.94-8.3 43.54 0m-310.84 24s112.61-13.63 225.23 0" fill="none" stroke="#636363" stroke-linecap="round" stroke-linejoin="round"/><path d="M204.26 101.5c-4.85-7.16-10.46-13.11-19.92-14.2-24.62-11.77-70.34 1.48-85.91 23.31l25.39 64.17a95.46 95.46 0 002.64-11.57c.44-4-1.28-22.91 7.65-23.45 15.91-1.88 16.77 18.15 31.68 11.56 5.58-2 5.32-5.17 5.32-5.17 8.18-3.85 7.27-9.56 6.56-9.89a6.87 6.87 0 01-3 1.16c0-.71-.58-1.11-1.21-.43-.8.85-9.73 5.94-9.73 5.94-7.79.32-8.46-6.37-7.06-14.32s10.2-10.74 15-11 6.4 1.43 6.4 1.43c2.59 1.31 12.15 2 15.69 1.79s9.85-5.54 11.71-8-.87-10.02-1.21-11.33z" fill="#262521"/><path d="M170.91 147.25s-4.34-4.05-10 .12c0 0-4.37-2.23-6.82-.47 0 0-7.29-10.08-18.62-7.29 14.35-1.22 15.91 19.78 32.86 10.53" fill="#fff" stroke="#fff" stroke-linejoin="round" stroke-width=".45"/><path d="M177.67 136.26a6.7 6.7 0 01-3 1.15v0c0-.72-.58-1.14-1.21-.45-.8.85-6.44 4.47-6.44 4.47-5.24-5.17-2.43-10.62-2.43-10.62h0c6.94-2.33 13.82-11.79 13.53-11.77V119c.45.44 4.89 1.15 5.54 1.3-2.28-7-15.57-10.41-21.49 0l-2.64 2.64s-5.3 2.16-5.74 9.48 3.88 16.34 10 10.54c.07-.17 8.82.51 7.4 3.22 8.1-3.88 7.19-9.59 6.48-9.92z" fill="#fff" stroke="#fff" stroke-linejoin="round" stroke-width=".45"/><path d="M186.49 120.59s-1.71 4.19-3.74 5-.76 2 2.06 1.21a13.13 13.13 0 01.05 1.76c-.05.73 10.37-2.74 10-7.93M102.84 109c14.16-18 49.3-27.75 71.38-22.7 7.3 4.62 17.48 2.06 22.63 10.39.67-.72 1.34-.75 2-1.54-2.94-4.31-11.7-7.53-14.46-7.86-24.66-11.76-69.51 1.57-85.08 23.41 0 0-3.42 5.87-4.19 9.11-4.83 13.6-7.77 10.94-7.77 10.94l-2.25 5.46c10.42-2.93 11.69-12.09 11.69-12.09s1.07 2.39 1.36 2.15-.5-3.63-.5-3.63c.57-.95 2.18-12.02 5.19-13.64z" fill="#fff" stroke="#fff" stroke-linejoin="round" stroke-width=".45"/><path d="M163.71 142.93l-6.63-3.28c1.09 2.15 3.14 3.42 6.63 3.28z" fill="#fff" opacity=".49"/><path d="M163.71 142.93s8.93-5.09 9.73-5.94 1.58 0 1.06 1" fill="none" stroke="#262521" stroke-linecap="round" stroke-linejoin="round" stroke-width=".67"/><path d="M169.56 145s4.29-5 4.94-6.95" fill="none" stroke="#262521" stroke-linecap="round" stroke-linejoin="round" stroke-width=".45"/><path d="M163.71 142.93c-7.79.31-8.46-6.38-7.06-14.33s10.2-10.74 15-11 6.4 1.43 6.4 1.43c2.59 1.31 12.15 2 15.69 1.79s9.85-5.54 11.71-7.95-.86-10.09-1.2-11.4c-4.82-7.12-10.46-13.13-19.92-14.2C167 79.73 145.4 82.2 121.88 92c-34.16 17.43-21.5 31.55-35.82 38.71" fill="none" stroke="#262521" stroke-linecap="round" stroke-linejoin="round" stroke-width=".67"/><path d="M174.66 137.41a6.7 6.7 0 003-1.15c.71.33 1.62 6-6.56 9.89 0 0 .26 3.2-5.32 5.17-14.91 6.59-15.76-13.43-31.68-11.56-8.93.54-7.21 19.45-7.65 23.45s-4.71 17-4.71 17m42.83-49.37s-3.08 4.91 2.16 10.07" fill="none" stroke="#262521" stroke-linecap="round" stroke-linejoin="round" stroke-width=".67"/><path d="M178.06 119.06s-5.23 8.28-12.54 11.28-2.12 11.32-.5 11.55" fill="none" stroke="#262521" stroke-linecap="round" stroke-linejoin="round" stroke-width=".67"/><path d="M158.46 124.17s3.13 1.89 3.43 2.48c0 0-1 1.59-5.09 1.21m-.29 1.58l4.38.3s1 1.31-4.57 2.4m-.01 5.15c5.08-.54 3.37 1.16 2.68 4.56" fill="none" stroke="#262521" stroke-linecap="round" stroke-linejoin="round" stroke-width=".45"/><path d="M186.49 120.59s-1.71 4.19-3.74 5-.76 2 2.06 1.21a13.13 13.13 0 01.05 1.76c-.05.73 10.37-2.74 10-7.93" fill="none" stroke="#262521" stroke-linecap="round" stroke-linejoin="round" stroke-width=".67"/><path d="M190.53 120.84s-.41 3.57-5.72 6" fill="none" stroke="#262521" stroke-linecap="round" stroke-linejoin="round" stroke-width=".45"/><path d="M198.53 98.36c.15 1.41 2.74 1.59 3.22 2.23 0 0 .16-1.59-3.22-2.23zm-1.45 1.91c.49 2.35 3.64 1.94 4.46 3.41 0 0 1.3-3.01-4.46-3.41zm-2.08-.14c.6 3.16 5.84 3.07 5.21 7.24-1.12-3.37-5.44-1.84-5.21-7.24zm8.24 9.29c-.64-1.91-4.55 2.8-1.64 1.9 1.81-.63 1.46.78.74 1.4s-.14 2.09 1.34.09 2.21-2.81-.44-3.39zm-20.9-11.17L179 99.78l2 1.21s.23-2.06 1.34-2.74z" fill="#fff" stroke="#fff" stroke-linejoin="round" stroke-width=".45"/><path d="M189.85 101.6c4.34-8.43-5.61-6.53-10.73-4.14-3.54 1.21-9.42-.2-9.42-.2a21.09 21.09 0 005.83 3.08c5.85 3.2 6.91 7.06 13.59 2.49 1.27-.46 1.83 1.17 2.06.48s-1.33-1.71-1.33-1.71zm-6.54 1.69c-2.88 0-7.11-4-7.11-4 16.17-5.97 18.13 3.02 7.11 4z" fill="#fff" stroke="#fff" stroke-linejoin="round" stroke-width=".45"/><path d="M184.85 98.12c-5.3 4.65 1.39 5.2 3.9 2.2.31-.66-.1-1.5-1.11-.93s-3 3.15-3.81 2.15 1.91-2.83 1.02-3.42zm-42.7-4.48c-.31-.85 19.61-2.25 18.48 2.11-.71.67-4.13-1.68-8.16-1.87s-10.32-.24-10.32-.24zm-19.88 2.45c4 5.18 19.73 2.75 24.06 2.52 2.81.1 17.69-.06 11.73 2.82-4.35-1.61-4.05.94-4.75 3.48-4.61 1.94-3.07 3-3 6.68-.62.89-1.77 0-1.84-1.76-.8-2.87 3.24-5.1 3.79-7-3-6.9-24.68 2.76-30.59-4.43 0 0-2.75 3.94 2.11 5.18 7.7 1.19 11.18 8.12 16.83 9.54l-.29 4.17c-3.43.52-10.48-11.83-15.2-10.83-1.7-.26-10.37-4.36-2.85-10.37zM96.08 195c.63-.53.79 2.58.42 4.22.25 3.6 2.93 2.45 1.38 6.48 3.12.45 3.92-7.36 7.71-7.62 2.22-.7 2.66-2.66 3.25-4.5s2.11-.64 1.87.42c-1 2.27 2.25 5.27-1.59 6.34-1.37.37-6.9 2.05-6.65 5.54s2.31.77 4.06-.12c3.89-1.46 7.4 2.12 1.75 2.54-1.68.22-4.24 2.05-4.63 3.42s-2.27 1.29-3.1 1.19-3.06 1.37-3.06 1.37a6.07 6.07 0 01.87-3.49c1.06-1.65 1.44-2.94.17-2.28s-.53 1.6-2.2.62c-.81 4.39-6.23-.63-6.86 15.27 0 0-2.75-3.79 1.34-15.14 0 0 1.11-3 2-3s2 2.33 2.77.28c1.93-3.23-1.91-9 .5-11.54zm26.5 72.23S110 278.06 109 278.17c-.87-.59 18.05-6.79 13.58-10.94zm-.28 5.84s-9 6.73-9.74 7.11-9.37 5.22-9.3 5.89c1.62.39 17.4-7.54 19.22-9.13zm-6.3-29.42c1.66.37-.08 2.28-.8 3.54s-.15 6.09-1 6.65-16.2 10.92-22.68 16.8-18.69 19.42-18.85 20.15 0 3.83-.82 3.64.15-3.57-.39-4.57S85 269.6 95.6 262.7s16.48-14.45 17.78-17.33 2.62-1.72 2.62-1.72z" fill="#fff" stroke="#fff" stroke-linejoin="round" stroke-width=".45"/><path fill="none" stroke="#fff" stroke-linecap="round" stroke-linejoin="round" stroke-width="1.78" d="M54.48 317.5l-3.6 7.6-4.55-1.88-1.69 7.52-4.81-2.91"/><path d="M57.76 302.89c-1.22 0-4.71-.68-4.57.84-1.19 3.92 10.99-.66 4.57-.84z" fill="#fff" stroke="#fff" stroke-linejoin="round" stroke-width=".45"/><path d="M52.67 288.53a38.75 38.75 0 00-7.43 9.77M55 278.14s-7 5.28-8.54 9.43" fill="none" stroke="#fff" stroke-linecap="round" stroke-linejoin="round" stroke-width=".89"/><path d="M90.1 234.56s3.28 11.38-2.39 16.37-17.23 12.94-20.9 14.35-8.51 1.78-14.46 10.39c2.19-16.96 40.37-14.96 37.75-41.11z" fill="#fff" stroke="#fff" stroke-linejoin="round" stroke-width=".45"/><path d="M283.35 107.19c4.42-7.33 9.89-13.68 19.19-15.18 24-13 70.34-2 87 19l-17.32 77.62c-3-7.95-6-13.64-8.06-23.7-.64-4 .14-22.94-8.81-23s-13.57 5-17.05 9.76c-3.29 7.07-19.33 4.18-19.58-1.55-8.36-3.43-7.74-9.18-7.05-9.54a7 7 0 003.08 1c-.07-.7.53-1.13 1.19-.49.83.81 10 5.45 10 5.45 7.79-.07 8.13-6.78 6.34-14.66s-10.72-10.22-15.54-10.21-6.32 1.75-6.32 1.75c-2.52 1.43-12 2.56-15.58 2.56s-10.11-5-12.09-7.36.33-10.13.6-11.45z" fill="#262521"/><path d="M318.94 151.22s4.12-4.26 10-.37c0 0 4.25-2.44 6.78-.81 0 0 6.79-10.43 18.24-8.21-14.55-.43-14.8 20.53-32.3 12.15" fill="#fff" stroke="#fff" stroke-linejoin="round" stroke-width=".45"/><path d="M311.63 140.59a6.72 6.72 0 003.06 1h0c-.08-.72.52-1.17 1.19-.52.83.81 6.65 4.15 6.65 4.15 5-5.42 1.9-10.73 1.9-10.73h0c-7.05-2-14.39-11.09-14.1-11.08v-.08c-.43.46-4.83 1.4-5.46 1.58 1.92-7.12 15-11.17 21.45-1.09l2.77 2.51s5.4 1.89 6.2 9.18-3.06 16.51-9.45 11c-.08-.16-8.78.95-7.23 3.58-8.29-3.39-7.67-9.09-6.98-9.5z" fill="#fff" stroke="#fff" stroke-linejoin="round" stroke-width=".45"/><path d="M302.05 125.38s1.91 4.09 4 4.81.86 1.94-2 1.31a12.72 12.72 0 000 1.76c.09.72-10.49-2.22-10.42-7.42M385 109.68c-15-17.29-50.62-25.31-72.43-19.16-7.06 5-17.35 2.92-22.09 11.5-.7-.69-1.41-.79-2.05-1.55 2.72-4.45 11.34-8 14.08-8.46 24-13 70.33-1.21 87 19.83 3.48 8 8.68 21.58 15 18.91l2.43 5.49c-10.61 2.43-15.08-11.79-15.08-11.79s-.95 2.44-1.26 2.2.32-3.64.32-3.64c-.66-.92-2.81-11.89-5.92-13.33z" fill="#fff" stroke="#fff" stroke-linejoin="round" stroke-width=".45"/><path d="M325.91 146.55l6.46-3.6c-.98 2.2-2.97 3.57-6.46 3.6z" fill="#fff" opacity=".49"/><path d="M325.91 146.55s-9.18-4.64-10-5.45-1.58.08-1 1.09" fill="none" stroke="#262521" stroke-linecap="round" stroke-linejoin="round" stroke-width=".67"/><path d="M320.17 148.88s-4.53-4.74-5.28-6.69" fill="none" stroke="#262521" stroke-linecap="round" stroke-linejoin="round" stroke-width=".45"/><path d="M325.91 146.55c7.8-.08 8.13-6.78 6.34-14.66s-10.72-10.22-15.54-10.21-6.32 1.75-6.32 1.75c-2.52 1.43-12 2.56-15.58 2.56s-10.11-5-12.09-7.36.36-10.12.63-11.44c4.38-7.28 9.9-13.69 19.19-15.18 17-8.42 38.64-7 62.62 1.64 35 15.7 23 30.44 37.7 36.87" fill="none" stroke="#262521" stroke-linecap="round" stroke-linejoin="round" stroke-width=".67"/><path d="M314.69 141.58a6.72 6.72 0 01-3.06-1c-.69.36-1.31 6.11 7.05 9.54 0 0-.1 3.22 5.57 4.9 15.22 5.84 15.08-14.19 31.06-13.11 8.95.1 8.17 19.07 8.81 23s8.06 23.7 8.06 23.7m-47.73-54.09s3.33 4.75-1.66 10.17" fill="none" stroke="#262521" stroke-linecap="round" stroke-linejoin="round" stroke-width=".67"/><path d="M310.39 123.43s5.63 8 13.09 10.64 2.68 11.2 1.07 11.51" fill="none" stroke="#262521" stroke-linecap="round" stroke-linejoin="round" stroke-width=".67"/><path d="M330.23 127.55s-3 2-3.31 2.65c0 0 1.05 1.54 5.14 1m.38 1.52l-4.37.52s-1 1.36 4.69 2.17m.24 5.14c-5.1-.29-3.31 1.33-2.45 4.69" fill="none" stroke="#262521" stroke-linecap="round" stroke-linejoin="round" stroke-width=".45"/><path d="M302.05 125.38s1.91 4.09 4 4.81.86 1.94-2 1.31a12.72 12.72 0 000 1.76c.09.72-10.49-2.22-10.42-7.42" fill="none" stroke="#262521" stroke-linecap="round" stroke-linejoin="round" stroke-width=".67"/><path d="M298 125.82s.59 3.55 6 5.68" fill="none" stroke="#262521" stroke-linecap="round" stroke-linejoin="round" stroke-width=".45"/><path d="M288.92 103.77c-.08 1.42-2.65 1.72-3.11 2.39 0 0-.23-1.57 3.11-2.39zm1.55 1.84c-.38 2.36-3.55 2.11-4.29 3.63 0 0-1.45-2.95 4.29-3.63zm2.08-.25c-.49 3.25-5.66 3.29-4.85 7.49.94-3.4 5.3-2.11 4.85-7.49zm-7.79 9.69c.55-1.94 4.69 2.57 1.74 1.82-1.84-.54-1.42.84-.68 1.43s.25 2.08-1.33.16-2.34-2.68.27-3.41zm20.32-12.19l3.45 1.36-1.93 1.3s-.37-2.04-1.52-2.66z" fill="#fff" stroke="#fff" stroke-linejoin="round" stroke-width=".45"/><path d="M296.5 108.34c.28.69.75-1 2-.57s3.33 2.11 6 1.85 4.9-4.22 7.46-5a21.18 21.18 0 005.67-3.37s-5.8 1.7-9.4.67c-5.23-2.13-15.26-3.55-10.51 4.66.03-.01-1.49 1.08-1.22 1.76zm.92-3.56c-.42-5.53 12.71-1.25 13.85-1.24-2.54 3.46-10.59 7.29-13.85 1.24z" fill="#fff" stroke="#fff" stroke-linejoin="round" stroke-width=".45"/><path d="M302.57 102.85c5.52 4.38-1.12 5.26-3.79 2.39-.34-.64 0-1.5 1.07-1s3.2 3 3.91 2-2.04-2.76-1.19-3.39zm42.43-6.6c.26-.86-19.7-1.27-18.35 3 .73.64 4-1.89 8.05-2.27s10.3-.73 10.3-.73zm20 1.46c-3.78 5.38-19.57 3.73-23.91 3.71-2.8.25-17.67.82-11.57 3.4 4.26-1.82 4.09.74 4.91 3.25 4.7 1.7 3.21 2.8 3.36 6.51.66.87 1.77-.11 1.75-1.84.65-2.91-3.49-4.94-4.14-6.78 2.66-7 24.8 1.53 30.34-5.95 0 0 2.94 3.8-1.85 5.28-7.64 1.57-10.77 8.66-16.34 10.36l.5 4.15c3.45.35 9.88-12.33 14.65-11.57 1.63-.36 10.08-4.88 2.3-10.52zm31 97.47c-.65-.49-.66 2.62-.21 4.23-.08 3.61-2.8 2.6-1.05 6.55-3.1.61-4.28-7.16-8.09-7.22-2.25-.6-2.78-2.53-3.46-4.34s-2.15-.54-1.86.51c1.14 2.29-2 5.29 1.91 6.26 1.39.3 7 1.7 6.92 5.19s-2.27.89-4.06.09c-4-1.27-7.28 2.48-1.62 2.62 1.69.14 4.33 1.84 4.79 3.18s2.33 1.18 3.16 1 3.12 1.22 3.12 1.22a6.06 6.06 0 00-1-3.45c-1.13-1.59-1.57-2.86-.28-2.26s.61 1.56 2.23.51c1 4.34 6.19-.94 7.61 14.91 0 0 2.56-3.92-2.09-15.05 0 0-1.25-3-2.19-2.87s-1.84 2.42-2.75.41c-2.08-3.1 1.49-9.05-1.08-11.49zm-22.84 73.48s13.13 10.19 14.14 10.25c.81-.63-18.4-5.91-14.14-10.25zm.57 5.82s9.32 6.27 10.08 6.61 9.62 4.75 9.59 5.42c-1.61.48-17.76-6.66-19.65-8.16zm4.87-29.7c-1.64.46.19 2.27 1 3.49s.46 6.08 1.39 6.6 16.65 10.1 23.39 15.65S424 289 424.18 289.71s.17 3.83 1 3.6-.33-3.57.16-4.59-14.5-19.56-25.46-25.93-17.18-13.61-18.62-16.42-2.66-1.59-2.66-1.59z" fill="#fff" stroke="#fff" stroke-linejoin="round" stroke-width=".45"/><path fill="none" stroke="#fff" stroke-linecap="round" stroke-linejoin="round" stroke-width="1.78" d="M443.67 315.49l3.97 7.41 4.46-2.1 2.05 7.42 3.96-2.66 1.06 2.28"/><path d="M439.67 301.06c1.22-.1 4.67-.91 4.61.61 1.4 3.85-11.01-.12-4.61-.61z" fill="#fff" stroke="#fff" stroke-linejoin="round" stroke-width=".45"/><path d="M444 286.46a38.78 38.78 0 017.91 9.4m-10.72-19.66s7.23 4.92 9 9" fill="none" stroke="#fff" stroke-linecap="round" stroke-linejoin="round" stroke-width=".89"/><path d="M404 234.42s-2.71 11.52 3.2 16.23 17.85 12.07 21.58 13.29 8.6 1.35 15 9.67c-3.08-16.83-41.12-12.95-39.78-39.19z" fill="#fff" stroke="#fff" stroke-linejoin="round" stroke-width=".45"/><path fill="none" stroke="#636363" stroke-linecap="round" stroke-linejoin="round" d="M236.17 104.39l13.06 17.84 10.89-18.07"/></svg>