<svg xmlns="http://www.w3.org/2000/svg" width="500" height="550" viewBox="0 0 500 550"><path d="M204.82 48.27s39.3 14.81 87.35 0L319 103l-77.8 46.2-48.3-65.31z" fill="#262521" stroke="#262521" stroke-linecap="round" stroke-linejoin="round" stroke-width="3"/><path d="M204.82 48.27s39.18 30.17 87.35 0L319 103l-134.46 5.72z" fill="#e4e4e4" stroke="#262521" stroke-linecap="round" stroke-linejoin="round" stroke-width="3"/><path d="M205 48.27s3.53 36.22 43.2 34.4 44.15-34.4 44.15-34.4l73.16 29.48s-1.73 402.39-5 404.58-151.41 0-167.06-3.28-53.14 5-57.87 4.16-5.46-10.9-3.64-18.54 1.36-386.92 1.36-386.92z" fill="#fff" stroke="#262521" stroke-linecap="round" stroke-linejoin="round" stroke-width="3"/><path d="M200 168c-8.21-49.35 4.78-120 4-119.76-30.43 11-63.47 16.71-90.79 34.91-23.51 30.35-34.46 68.24-48.07 103.67-23.59 59.08-28.1 123-26.19 186a144.46 144.46 0 002.72 33.3 6.24 6.24 0 001.33 3.26c3 2.77 0 14.15 2 21.91.3 1.47 1 1.81 2.4 1.47 12.52-3.2 38.06-2.15 50.44 1.38 3.12.94 3.17 1.12 3.74-2.05 1.44-8-1.86-15.46 3.85-21.74a5.1 5.1 0 001.13-3.3c-1.07-8.1 0-16 1.54-23.93 1.19-8.37 4.89-16.88 4.38-25.31-1-3.31.12-6.43.37-9.58 1.26-11.18 6-24.61-5.15-32.56-5.69-6.88 9.44-5.51 11.81-16.18 1.35-2.86 2.87-5.64 4.29-8.46-2.42 55.68 1.1 196.4 2.44 207.66.94 5.1 1.4 5.42 6.62 4.82 25.28-3.06 68.65-4 81.12-27S218 276 200 168zm209.37-30.58c-8.82-19.22-14.51-42.62-30.45-57.21C352.53 63 321 58.77 291.86 48.27c-2.42-1 10.17 62.29 5 138.88S274 462.33 287.53 482.64s77.49 31.34 82 18.43c2.95-8.55 2.48-168.36 2.66-209.52l.41-.08c.5 7.25 12.44 8.7 10.93 15.93-2.92 3.84-2.68 8-1.61 12.34 3.05 11.87 5.55 24 10.45 35.29 1.35 3.61 1.5 7.13-.51 10.66-5.47 9-1.69 19.56-.79 29.26 1.72 8.67 2.72 8.31 5.33 17.63.6 2.17-7.74 19.51.6 19.66 12.54-3.91 39.84.29 52.32 2.94 2.67.5 2.68.27 3.09-2.33.83-5.36-2-10.34-.78-15.62.35-4.69 5.07-7.12 5.56-11.78 3.05-18.5 2.09-37.3 3.28-56 6.9-74.64-23.29-144.55-51.1-212.03z" fill="#262521" stroke="#262521" stroke-linecap="round" stroke-linejoin="round" stroke-width="3"/><path d="M122.92 300.67l-.38-2.7.7-.1-.24-1.7a28.54 28.54 0 01-2 3.81v.02l1.44-.2.44 3.14 1.57-.22-.32-2.26z" fill="#fff"/><path d="M364.13 84l-1.13.16-.17-1.16 2.71-.38-.1-.7-1.4.2-.17-1.27-.79.11-.09-.65-.83.12.13.91-.92.13-.25-1.79-1.35.19-.22-1.57-3.15.44-.23-1.74-2.7.38.11.83-.52.07-.15-1-1.48.21-.23-1.62-1.13.16.28 2.06-1.44.2-.28-2.06-1.27.18-.16-1.13-.74.1-.11-.79-5.46.77-.11-.83-4.33.6-.12-.87-1.61.23.2 1.44-1.62.22-.06-.48-2.41.34-.13-1-1.83.25.19 1.4-2 .28-.1-.7-2.1.29.18 1.22-1.93.27-.26-1.92 2-.28-.17-1.27.74-.1.12.83 2.67-.38-.2-1.44 1.82-.25.08.57 1.13-.16-.07-.57 2.13-.3.1.7 4.06-.57-.24-1.7 1-.14-.14-1-.78.11-.27-1.92 1.44-.2.23 1.61 1.57-.22.13 1-1.26.18.12.87.61-.08.1.7 1-.14-.16-1.09.48-.07.14 1 .75-.11.13.92 1.44-.2-.2-1.4 2-.27-.16-1.09 1.31-.19-.14-1 1.65-.23.35 2.49-1.53.21.07.48-.87.13.11.78 1.26-.17-.11-.79 1.58-.22-.11-.74.88-.12-.08-.53.79-.11-.14-1 .61-.08.26 1.79-1.14.15.17 1.23 1.57-.22-.11-.79 1.36-.19-.19-1.35L354 69l.2 1.4 1.48-.21-.13-1 .61-.08.08.61.88-.13.15 1.1 1.4-.2.22 1.57 2.4-.33-.14-1 1.05-.15-.12-.89c-.32-.19-20.84-7.58-24.4-8.78l.27 1.76-.87.12-.13-.92-2.53.35.17 1.23-.74.1.06.44-.53.07.1.7-1 .13-.13-1-1.92.27.17 1.22-1.88.27.15 1.09-1.18.16.14 1-1.57.22.28 2-1.71.24.14 1-1.57.22.11.74-2 .29.13 1-1.48.2.33 2.36-1.92.27-.3-2.14 1.31-.18-.25-1.75 2-.27-.14-1 2.1-.3-.29-1.5 2-.28-.27-1.92-1.27.18-.25-1.79 1.49-.21.22 1.57 1.38-.19-.3-2.44 1.5-.21-.25-1.79 1.22-.17.08.56 1.61-.22-.16-1.23 1.75-.24-.14-1-1.44.2-.17-1.37c-.26-.07-.52.36-.78.29l-2.32.33.11.83-2.88.4-.13-1.35 1.3-.19-.16-1.64c-.4-.1-7-1.91-8.2-2.2v.83l-1.6.22.15 1 1.42-.2.72 5.11-1.62.22-.55-4-1.72.24-.36-2.57 1.8-.26-.09-1.11c-.56-.16-5.3-1.58-7.17-2.24l.57 4-2 .28s1.67 14.55 1.89 16.87l.83-.11.22 1.56-.94.13c.09 4.66 1.36 16 1.36 16h-.13c1.53 9.08 2.13 35 2.13 36.17h.57l.51 3.61 1-.13-.26-1.87 1.29-.18.34 2.46-1.47.21.49 3.55 1.82-.26-.16-1.15.76-.1.55 3.91 1.7-.24-.51-3.71.76-.1-.09-.6 1.48-.21-.36-2.55-1.45.2-.16-1.15-.6.08-.45-3.22 1.17-.17.23 1.62.62-.09.09.62 1.26-.18-.9-6.47-1.25.18.27 1.91-3.29.46-.23-1.64 1.24-.17-.11-.78 2.08-.29-.57-4.06 1.45-.2-.23-1.64 1.71-.23-.22-1.55-2.88.41.15 1-1.89.27-.26-1.85 1.68-.23-.15-1.08 1.64-.23.12.9 2.12-.3-.39-2.76-1.84.25-.19-1.33 2-.28-.56-4 1.71-.24-.75-5.32-1.08.15-.13-.92-.53.07-.7-4.69 2.45-.37.71 5 1.09-.16.29 2.05 2.78-2.32 1.19 8.49.95-.14-.33-2.34 2-.28.49 3.54 1.55-.21.42 3 1.4-.19.5 3.59 1.35-.19-.66-4.74 1.69-.24.54 3.85 1.3-.18 1 7.14 1.65-.23-.32-2.25 1.85-.26.53 3.75 1.49-.21.23 1.6 1.15-.16.44 3.19 1.85-.26-.84-6-1.45.2-.38-2.74-1.4.19-.3-2.15 1.4-.19-.19-1.35-1.45.2-.29-2.1 1.9-.26-.19-1.35-2.77.39-.62-4.46 1.49-.21-.23-1.3-1.62.23.09.61-1.49.21L340 102l1.26-.18-.13-.91-1.35.19-.11-.83-.53.07-.14-1.27.57-.08-.19-1.35-.83.11-.18-1.31.91-.13-.12-.91-1.53.21.14 1-1.7.24-.24-1.7 1.79-.25-.28-2-1.44.2-.24-1.7-1.57.22-.1-.73-.83.11-.1-.75-1.18.16-.1-.7 1.26-.17-.11-.83 2.27-.32-.09-.66-1.23.17-.13-1-3.27.46-.17-1.18-2 .28-.23-1.66-1.45.2-.22-1.57-1.44.2-.17-1.22-1 .13-.07-.52-1.88.26-.25-2.28 3-.41.12.83.83-.12.14 1 3.42-.48.37 2.7 1-.14-.2-1.44 1.72-.24.42 3 .79-.11-.2-1.44 1.35-.19-.14-1 2.62-.36.26 1.83 2.49-.35-.13-.91 2.09-.3.27 1.88L340 84l.14 1-1.23.17.08.57 1.05-.15.25 1.79 1-.14-.13-.92 1.48-.21-.17-1.22.67-.09-.05-.35 1-.14.38 2.71-1.09.15.19 1.4 2.4-.34-.47-3.36 1.27-.18.34 2.4 1.44-.2L349 90l1.57-.22-.32-2.27-1.25.19-.37-2.7.69-.1-.24-1.75 1.66-.23.24 1.7 1.57-.22-.23-1.66 1-.14.32 2.32-1.13.16.24 1.74 1.53-.21-.24-1.7 1.14-.16-.33-2.36 1.05-.15.08.57.69-.1.26 1.84-.52.07.15 1.09-1.22.17.17 1.27.57-.08.09.61 1.18-.16-.35-2.06 1.22-.17.32 2.32.83-.12-.08-.61.65-.09-.31-2.27 2.75-.39.27 2 1.27-.18-.1-.7.44-.06zM184.57 403.72l-1.14.16-.16-1.18 2.7-.37-.09-.7-1.4.19-.18-1.26-.78.11-.1-.66-.82.12.12.91-.91.13-.25-1.79-1.36.19-.2-1.57-3.14.44-.23-1.66-2.71.38.12.83-.53.07-.14-1.05-1.49.21-.22-1.61-1.14.16.29 2.05-1.44.2-.29-2-1.26.17-.16-1.13-.75.1-.11-.78-5.45.76-.12-.83-4.32.6-.12-.87-1.62.23.2 1.44-1.61.22-.07-.48-2.4.34-.13-1-1.84.25.2 1.4-2 .28-.09-.7-2.1.29.17 1.22-1.92.27-.27-1.92 2-.28-.18-1.27.75-.1.11.83 2.68-.37-.2-1.44 1.82-.26.08.57 1.13-.16-.08-.57 2.14-.3.1.7 4.06-.57-.24-1.7 1-.14-.13-1-.79.11-.26-1.92 1.44-.2.22 1.61 1.57-.22.14 1-1.27.18.12.87.61-.08.1.7 1-.14-.15-1.09.48-.07.14 1 .74-.11.13.92 1.44-.2-.19-1.4 2-.27-.15-1.09 1.31-.19-.15-1 1.66-.24.35 2.49-1.53.22.07.48-.88.12.11.78 1.27-.17-.11-.79 1.57-.22-.1-.74.87-.12-.07-.53.78-.11-.13-1 .61-.08.25 1.79-1.13.16.17 1.22 1.57-.22-.11-.79 1.35-.19-.19-1.35 1.27-.18.19 1.4 1.49-.21-.14-1 .62-.08.08.61.87-.12.16 1.09 1.39-.2.22 1.57 2.4-.33-.13-1 1.05-.15-.16-1.13 1.66-.24.24 1.71 1.57-.22-.27-1.88-1.09.15-.29-2.09-3.19.44-.22-1.57-2 .28-.21-1.48-1.09.15.06.48-1.31.18-.11-.83-1.44.21-.08-.57-1.79.25.07.48-1.14.16-.12-.88-.79.11-.14-1 1.44-.21-.14-1-2.23.31-.18-1.31-.88.12-.14-1-1.92.27.18 1.3-2.79.4-.19-1.31-.61.08-.13-.92-2.14.3.18 1.23-1.21.17-.1-.7-1.76.24.21 1.49-.88.12-.12-.92-2.54.36.17 1.22-.74.1.06.44-.52.07.1.7-1 .14-.14-1-1.92.27.17 1.23-1.87.26.15 1.09-1.18.16.13 1-1.57.22.28 2-1.7.24.14 1-1.57.21.1.75-2 .28.14 1-1.49.21.33 2.35-1.92.27-.3-2.14 1.31-.18-.24-1.75 2-.27-.13-1 2.1-.3-.23-1.61 2-.28-.26-1.92-1.27.18-.25-1.79 1.48-.21.22 1.58 1.39-.2-.46-2.39 1.5-.21-.25-1.79 1.22-.17.08.56 1.62-.22-.17-1.22 1.74-.25-.13-1-1.44.2-.14-1 1.75-.25-.13-.87 1.79-.25-.2-1.48-1.84.25.14 1-2 .28.17 1.18-2.8.39.12.83-2.88.4-.19-1.35 1.29-.18-.22-1.62-1.6.22-.17-1.22 2-.28.18 1.27 2.1-.3-.13-.87-.82.12-.17-1.18 2.31-.32-.12-.92-1.62.22-.13-1-.83.12-.11-.74 3.76-.53-.09-.61-1.7.24-.18-1.27 2-.28.2 1.4 1.74-.24.11.74 1.17-.17-.22-1.57-2.35.33-.19-1.31 1.1-.15-.3-2.14 1-.14-.09-.66 1.92-.26-.28-2-1.35.19.12.91-1.7.24-.27-1.92 1.49-.21-.25-1.78-2.06.29.17 1.25-1.16.17.25 1.73-1.57.22.16 1.12-1.5.21-.17-1.26-1.88.27.15 1-.79.11.15 1.05-2.38.34.14 1-1.33.18.27 1.87-2.08.29.45 3.24-1.63.23.18 1.29-1.6.22.14 1 1.43-.2.71 5.11-1.61.23-.56-4-1.72.24-.36-2.57 1.8-.25-.24-1.78-1.62.23-.25-1.82 2-.28-.29-2.05 1.66-.23-.13-.94-1.4.19-.18-1.26-1.45.2-.34-2.44 1.84-.26-.39-2.81 1.82-.25-.35-2.47-2.24.43.2 1.46-1.31.18.27 2-3.45.48.7 5-2.49.35 1 6.88-2 .28.55 4-1.66.23-.41-3-1.31.19-.3-2.15-.79.1q.1 5.65.28 11.3l.19 1.33 2.83-.39.28 2-1.5.21.14 1 1.41-.19.1.69 1.45-.21.24 1.78 1.23-.17.21 1.56-1.4.2-.16-1.17-1.39.19-.19-1.36-1.82.25-.12-.92-1.39.2.21 6.24 2.2-.31.12.92-2.29.32c.15 4.85.27 9.71.33 14.56h.19l-.14-1 1.38-.2-.24-1.72 3.2-.45-.4-2.86 1.84-.25.5 3.57-1.75.24.41 2.9-1.78.25.32 2.26-1.82.25.58 4.15-1.11.15.34 2.44 1.66-.23.36 2.58-1.33.19.1.76-.62.08.38 2.67 1.65-.23.24 1.66.92-.13.34 2.44-1.18.17.71 5 .85-.12.15 1.08.74-.1.44 3.18-1.34.18.93 6.59.71-.1.11.78.71-.1-.37-2.67 1.22-.17.5 3.62 1-.14-.27-1.87 1.29-.18.35 2.47-1.47.2.49 3.55 1.82-.25-.16-1.16.76-.1.55 3.91 1.7-.24-.52-3.7.76-.11-.08-.6 1.47-.21-.36-2.55-1.45.2-.16-1.15-.6.08-.45-3.22 1.18-.16.22 1.61.63-.09.08.62 1.27-.17-.91-6.48-1.24.18.27 1.91-3.3.46-.23-1.7 1.24-.18-.11-.78 2.07-.29-.56-4.06 1.45-.2-.23-1.63 1.7-.24-.21-1.54-2.88.4.14 1-1.89.27-.25-1.84 1.68-.24-.15-1.08 1.63-.23.13.9 2.12-.3-.39-2.76-1.84.26-.19-1.34 2-.27-.56-4 1.7-.24-.74-5.32-1.08.15-.13-.92-.53.08-.68-4.84 2.45-.37.7 5.05 1.1-.16.29 2.05 2.78-2.32 1.18 8.49.95-.14-.32-2.34 2-.28.5 3.54 1.55-.21.42 3 1.39-.19.51 3.59 1.35-.18-.67-4.75 1.7-.24.54 3.85 1.3-.18 1 7.14 1.64-.23-.31-2.25 1.85-.26.52 3.75 1.5-.21.22 1.6 1.15-.16.45 3.19 1.85-.25-.84-6-1.45.2-.38-2.74-1.36.25-.3-2.14 1.4-.2-.19-1.35-1.45.2-.29-2.09 1.89-.27-.18-1.35-2.77.39-.63-4.51 1.48-.2-.23-1.31-1.61.23.09.61-1.49.21-.21-1.49 1.27-.17-.13-.92-1.35.19-.12-.83-.52.07-.17-1.22.56-.08-.18-1.35-.83.11-.19-1.31.92-.12-.13-.92-1.53.21.14 1-1.7.23-.24-1.7 1.79-.25-.27-2-1.44.2-.24-1.7-1.57.22-.1-.73-.83.11-.11-.75-1.18.16-.1-.7 1.27-.17-.12-.83 2.27-.32-.09-.66-1.22.18-.13-1-3.28.45-.16-1.18-2 .28-.23-1.66-1.44.2-.22-1.57-1.44.2-.17-1.22-1 .13-.07-.52-1.88.26-.33-2.35 3-.42.11.83.87-.11.14 1 3.42-.48.38 2.71 1-.15-.2-1.44 1.77-.24.42 3 .79-.11-.21-1.44 1.36-.19-.14-1 2.62-.37.25 1.83 2.49-.35-.13-.91 2.1-.3.26 1.88-1.83.26.13 1-1.22.17.08.57 1.05-.15.25 1.79 1-.14-.13-.92 1.49-.2-.17-1.23.66-.09-.05-.35 1-.14.37 2.71-1.09.15.2 1.4 2.4-.34-.47-3.36 1.27-.18.33 2.41 1.44-.21.44 3.15 1.57-.22-.31-2.27-1.27.17-.38-2.7.7-.1-.24-1.75 1.65-.23.24 1.7 1.57-.22-.23-1.65 1-.14.32 2.31-1.14.16.25 1.74 1.53-.21-.24-1.7 1.13-.16-.33-2.36 1.05-.14.08.56.7-.09.26 1.83-.53.07.15 1.09-1.22.17.18 1.27.57-.08.08.61 1.18-.16-.29-2.05 1.23-.18.32 2.32.83-.12-.09-.61.66-.09-.32-2.27 2.75-.39.28 2 1.26-.18-.1-.7.44-.06zm10.8-156.89c-.35-2.48-.68-5-1-7.44l-1.59.22-.24-1.7 1.6-.22c-.08-.66-.17-1.31-.25-2l-1.28.18-.23-1.7-1.57.22-.11-.73-.83.11-.1-.75-1.18.16-.1-.7 1.27-.17-.12-.83 2.27-.32-.09-.66-1.22.18-.14-1-3.27.45L187 229l-2 .28-.23-1.66-1.44.2-.22-1.57-1.44.2-.17-1.22-1 .13-.08-.52-1.87.26-.33-2.36 3-.41.12.83.83-.12.14 1 3.42-.48.38 2.71 1-.15-.21-1.44 1.78-.24.42 3 .78-.11-.2-1.44 1.35-.19-.14-1 1.47-.2c-.32-2.43-.8-5.85-.8-5.85l-1.61.22-.07-.48-2.4.34-.14-1-1.83.25.2 1.4-2 .28-.1-.7-2.09.29.17 1.22-1.92.27-.27-1.92 2-.28-.18-1.27.74-.1.12.83 2.67-.37-.2-1.44 1.82-.26.08.57 1.14-.16-.08-.57 2.14-.3.09.7 1.34-.19c-.14-1.05-.93-6.67-1.19-8.42l-.89.13-.13-1-1.92.27.17 1.23-1.88.26.15 1.09-1.17.16.13 1-1.45.3.28 2-1.7.24.14 1-1.57.22.1.75-2 .28.14 1-1.49.2.33 2.36-1.92.27-.3-2.14 1.31-.18-.24-1.75 2-.27-.13-1 2.09-.3-.22-1.61 2-.28-.27-1.92-1.26.18-.25-1.79 1.48-.21.22 1.57 1.38-.19-.34-2.44 1.5-.21-.25-1.79 1.22-.17.08.56 1.62-.22-.18-1.22 1.75-.25-.13-1-1.44.2-.14-1 1.74-.25-.12-.87-.25-1.48.13 1-2 .28.16 1.18-2.79.39.12.83-2.89.4-.18-1.35 1.29-.18-.23-1.62-1.6.22-.17-1.22 2-.28.18 1.27 2.09-.3-.12-.87-.83.12-.16-1.18 2.31-.33-.13-.91-1.61.22-.14-1-.83.12-.1-.74 3.75-.53-.08-.61-1.7.24-.18-1.27 2-.28.19 1.4.94-.13c-.06-.27-.13-.55-.19-.82 0 0-1-5.51-1.15-7.63l-1 .14.24 1.73-1.56.22.16 1.12-1.5.21-.18-1.26-1.87.27.14 1-.78.11.15 1-2.39.33.15 1-1.33.18.26 1.87-2.07.29.45 3.24-1.64.23.18 1.29-1.67.32.14 1 1.43-.2.71 5.11-1.62.23-.55-4-1.72.24-.36-2.57 1.8-.25-.25-1.78-1.61.23-.25-1.82 2-.28-.29-2.05 1.66-.23-.13-.94-1.41.19-.17-1.26-1.46.2-.34-2.44 1.85-.26-.4-2.81 1.82-.25-.34-2.47-2.24.31.21 1.45-1.32.19.28 2-3.46.48.7 5-2.48.35 1 6.88-2 .28.56 4-1.66.23-.41-3-1.32.19-.3-2.15-1.84.26-.31-2.21-2.95.41-.4-2.88-1.45.21.18 1.24-1.11.15-.28-2 1-.13-.2-1.45-1.8.25.07.51-1.1.15.13 1-2.3.32-.37-2.65-4.05.57.15 1.11 1.68-.24.24 1.68 1.64-.1.19 1.41 1.85-.26.19 1.4-1.89.27-.12-.88-2.39.34.14 1-1.13.16.13.94 2-.27.11.78 2.56-.36.33 2.35 2.09-.29.14 1 3.75-.53.19 1.36-2.78.39.15 1.08 1.45-.2.22 1.54 2.69-.37.11.76-2.74.38.23 1.7 2-.28.17 1.18 1.33-.19.16 1.13 1.43-.2.18 1.33 2.84-.39.27 2-1.49.21.14 1 1.41-.19.09.69 1.45-.21.25 1.78 1.22-.17.22 1.56-1.4.2-.17-1.18-1.38.2-.19-1.36-1.82.25-.13-.92-1.77.25-.11-.81-.88.13-.13-.95-2.81.4-.14-1-3.25.46-.08-.56-1.68.24.13.9-2.88.4.12.9-2 .27-.15-1.12-2.22.3-.12-.87-1.59.22.18 1.27-1.45.2-.16-1.15-2.07.29.21 1.52-2.21.31.14 1-1.61.22.09.67-1.61.22.1.72-1.17.16.08.6-1.75.25.29 2.09-1.35.19 1.23 8.8 1.22-.17-.17-1.18 1.8-.25-.47-3.31 1.36-.19.33 2.35 1.89-.27-.19-1.36 1.11-.15-.22-1.54 2-.29.3 2.12 1.93-.27-.64-4.63 1.95-.27.32 2.23.87-.12-.35-2.49 2-.27.43 3 1.1-.15-.21-1.5 1.89-.26-.29-2.1 1.26-.17.18 1.29 1-.15.26 1.87 1.64-.23-.27-1.94 1.4-.19.22 1.59 4.38-.62-.25-1.79.87-.12.21 1.49 2.74-.38.13.92-2.67.37.27 1.92-.92.12-.16-1.12-1.48.2-.07-.53-1.89.27.14 1-.95.14.14.94-1.23.17-.22-1.63-2.77.38.26 1.87-1.52.21.09.65-1.88.27.13 1-1.17.16.13 1-1.24.17.27 2-1.45.2.17 1.18-2.93.41.57 4.07-2 .28.1.72-2 .28.1.73-1.73.24.21 1.48-1.36.19.23 1.61-2.19.31.55 3.93 2-.28.21 1.49 1.5-.21-.25-1.75-.78.11-.23-1.61 2-.27.24 1.7 1.29-.18-.26-1.86 1-.15.34 2.4 2-.28-.25-1.75 1.43-.2.22 1.59 1.87-.26-.33-2.3 1.71-.24-.37-2.63 1.75-.25.39 2.75 1.29-.18-.47-3.29 1.62-.23.34 2.47 1.36-.19-.38-2.74 1.13-.16.21 1.56.58-.08.11.79.58-.08-.53-3.78 1.26-.18.58 4.15 1.36-.19-.63-4.52 1.34-.18.14 1 1.31-.19-.15-1 1.38-.2-.24-1.72 3.2-.45-.39-2.86 1.84-.25.5 3.56-1.75.25.4 2.9-1.77.25.31 2.26-1.7.11.57 4.15-1.1.15.34 2.44 1.66-.23.36 2.58-1.34.19.11.76-.62.08.37 2.67 1.66-.23.23 1.66.92-.13.34 2.44-1.17.17.7 5 .85-.12.16 1.08.73-.1.45 3.18-1.34.18.92 6.59.72-.1.11.78.71-.1-.37-2.67 1.22-.17.5 3.62 1-.14-.26-1.87 1.29-.18.35 2.47-1.48.2.5 3.55 1.82-.26-.16-1.15.76-.1.54 3.91 1.71-.24-.52-3.7.76-.11-.08-.6 1.47-.21-.36-2.55-1.45.2-.16-1.15-.6.08-.45-3.22 1.17-.17.23 1.62.62-.09.09.62 1.27-.18-.91-6.47-1.24.18.26 1.91-3.29.46-.27-1.68 1.25-.17-.11-.78 2.07-.29-.57-4.06 1.45-.2-.23-1.63 1.71-.24-.22-1.54-2.88.4.15 1-1.89.27-.26-1.84 1.68-.24-.15-1.08 1.64-.23.12.9 2.12-.3-.38-2.76-1.85.26-.18-1.34 1.95-.27-.56-4 1.71-.24-.75-5.32-1.08.15-.13-.92-.53.07-.67-4.83 2.44-.37.71 5.05 1.1-.16.28 2 2.78-2.32 1.19 8.49.95-.14-.33-2.34 2-.28.5 3.54 1.54-.21.42 3 1.4-.19.5 3.59 1.35-.18-.66-4.75 1.7-.24.54 3.85 1.29-.18 1 7.14h.23c-.5-4.71-.64-9.51-1.27-14.24zM374 277.6l-1.35.19c0 3.88-1.09 9.92-.09 13.68.54 2 3.91 6 4.23 6.45l.25-2 2-.28-.27-1.92-1.26.18-.25-1.79 1.48-.21.22 1.57 1.38-.19-.34-2.45 1.5-.21-.25-1.79 1.22-.17.08.57 1.62-.23-.18-1.22 1.75-.24-.13-1-1.44.2-.14-1 1.74-.25-.12-.87 1.79-.25-.21-1.49-1.83.26.13 1-2 .27.16 1.18-2.79.39.11.83-2.88.41-.19-1.36 1.3-.18-.23-1.61-1.6.22-.17-1.22 2-.28.18 1.26 2.09-.29-.12-.87-.83.11-.16-1.18 2.31-.32-.13-.92-1.61.23-.14-1-.83.19-.1-.75 3.75-.52-.08-.61-1.7.24-.18-1.27 2-.28.19 1.4 1.75-.25.1.74 1.18-.16-.22-1.57-2.36.33-.18-1.31 1.09-.16-.3-2.13 1-.14-.09-.66 1.92-.27-.29-2-1.35.19.13.92-1.7.24-.27-1.92 1.48-.21-.25-1.79-2.06.29.18 1.26-1.16.16.24 1.74-1.56.22.16 1.12-1.5.21-.18-1.26-1.87.26.14 1-.78.11.15 1.06-2.39.33.15 1-1.33.19zm13.87 13.09l-.52.07.09.7-1 .13-.13-1-1.92.27.17 1.22-1.88.26.15 1.1-1.17.16.13 1-1.57.22.28 2-1.7.24.14 1-.47.07c.52.62 2.27 3 2.63 3.54l1.09-.15-.2-1.44 1.82-.25.08.56 1.14-.15-.08-.57 2.14-.3.09.7 4.06-.57-.23-1.7 1-.14-.13-1-.79.11-.27-1.92 1.44-.21.23 1.62 1.57-.22.13 1-1.26.18.12.87.61-.09.1.7 1-.13-.15-1.09.48-.07.14 1 .74-.1.13.92 1.44-.2-.2-1.4 2-.28-.16-1.09 1.31-.18-.14-1 1.66-.23.34 2.49-1.52.21.06.48-.87.12.11.79 1.27-.18-.11-.78 1.57-.22-.11-.74.88-.13-.08-.52.79-.11-.13-1 .61-.09.18 1.83-1.14.16.17 1.22 1.57-.21-.11-.79 1.36-.19-.19-1.35 1.26-.18.2 1.4 1.48-.21-.13-1 .61-.09.09.61.87-.12.15 1.09 1.4-.19.22 1.57 2.4-.34-.13-1 1-.14-.16-1.14 1.66-.23.24 1.7 1.57-.22-.26-1.87-1.09.15-.29-2.1-3.19.45-.22-1.57-2 .28-.21-1.49-1.09.16.07.48-1.31.18-.12-.83-1.44.2-.08-.57-1.79.25.07.48-1.13.16-.13-.87-.78.11-.15-1.05 1.44-.2-.14-1-2.22.31-.19-1.31-.87.12-.15-1.05-1.92.27.19 1.31-2.8.39-.18-1.31-.61.09-.13-.92-2.14.3.17 1.22-1.21.17-.1-.7-1.75.25.2 1.48-.87.13-.13-.92-2.53.35.17 1.22-.74.11zm12.41 53.68l-.39-2.75-1.4.2-.3-2.15 1.4-.19-.19-1.35-1.44.2-.3-2.1 1.9-.26-.19-1.35-2.77.39-.6-4.51 1.49-.21-.23-1.3-1.61.22.08.62-1.48.2-.21-1.48 1.27-.18-.13-.91-1.36.18-.11-.82-.53.07-.17-1.22.57-.08-.19-1.36-.83.12-.18-1.31.92-.13-.13-.92-1.53.22.14 1-1.7.24-.24-1.7 1.79-.25-.28-2-1.44.2-.23-1.7-1.58.22-.1-.73-.83.12-.1-.76-1.18.17-.1-.7 1.27-.18-.12-.83 2.27-.31-.09-.66-1.22.17-.14-1-3.27.46-.17-1.18-2 .27c-.32 1.71 2.32 19.52 2.47 20l1.34-.19.42 3 1.4-.2.5 3.6 1.35-.19-.66-4.74 1.7-.24.53 3.85 1.3-.19 1 7.15 1.65-.23-.31-2.25 1.84-.26.53 3.75 1.5-.21.22 1.59 1.15-.16.44 3.2 1.85-.26-.84-6zm17.83-33.79l-1.13.16-.17-1.18 2.71-.38-.1-.7-1.4.2-.17-1.27-.79.11-.09-.65-.83.11.13.92-.92.13-.25-1.79-1.35.19-.22-1.57-3.14.44-.24-1.66-2.7.38.11.82-.52.08-.15-1.05-1.48.21-.23-1.62-1.13.16.28 2.05-1.44.2-.28-2.05-1.27.18-.16-1.14-.74.11-.11-.79-5.46.77-.11-.83-4.32.6-.13-.87-1.61.22.2 1.44-1.62.23-.06-.48-2.4.34-.14-1-1.83.26.19 1.4-.93.13c2 1.45.7 6.8.7 6.8l1.63-.23-.2-1.44 1.78-.25.42 3 .78-.11-.2-1.45 1.35-.18-.14-1 2.62-.37.26 1.84 2.49-.35-.13-.92 2.1-.29.26 1.88-1.84.25.14 1-1.22.18.08.56 1-.14.25 1.79 1-.14-.13-.92 1.48-.21-.17-1.22.67-.09-.05-.35 1-.14.38 2.7-1.09.16.2 1.39 2.4-.33-.47-3.36 1.26-.18.34 2.4 1.44-.2.44 3.14 1.57-.22-.32-2.27-1.26.18-.38-2.71.7-.09-.25-1.75 1.66-.23.24 1.7 1.57-.22-.23-1.66 1-.14.33 2.31-1.14.16.24 1.75 1.53-.21-.2-1.71 1.14-.16-.33-2.35 1.05-.15.08.57.7-.1.25 1.83-.52.08.15 1.09-1.22.17.18 1.27.56-.08.09.61 1.18-.17-.29-2.05 1.22-.17.33 2.31.83-.11-.09-.61.66-.09-.32-2.28 2.75-.38.27 2 1.27-.18-.1-.7.44-.06zM408 380.21l-1.09.16-.29-2.1-3.19.45-.22-1.57-2 .28-.21-1.49-1.09.15.07.48-1.31.19-.12-.83-1.44.2-.08-.57-1.78.25.06.48-1.13.16-.12-.87-.79.11-.15-1.05 1.44-.2-.14-1-2.22.32-.19-1.31-.87.12-.15-1.05-.77.11c-.14 2.68-.56 5.35-.54 8l1.1-.15.34 2.49-1.31.18c0 .42.09.85.14 1.27h.22l-.11-.78 1.57-.22-.11-.75.88-.12-.08-.52.79-.11-.13-1 .61-.09.25 1.79-1.14.16.17 1.22 1.57-.22-.1-.78 1.35-.19-.19-1.36 1.27-.17.19 1.39 1.48-.2-.13-1 .61-.09.09.61.87-.12.12 1.13 1.4-.19.22 1.57 2.4-.34-.13-1 1-.14-.15-1.14 1.65-.23.24 1.7 1.57-.22zm-1.12 15.07l-1.13.16-.17-1.18 2.71-.38-.1-.7-1.39.2-.18-1.27-.79.11-.09-.65-.83.11.13.92-.92.13-.25-1.79-1.35.19-.22-1.58-3.14.44-.24-1.66-2.7.38.11.83-.52.08-.15-1.05-1.48.21-.23-1.62-1.13.16.29 2.05-1.45.2-.28-2.05-.84.12.12.77c.37 2.45.48 5.22 1 7.84l.39-.06-.25-1.74 1.66-.23.24 1.7 1.57-.22-.23-1.66 1-.14.33 2.31-1.14.16.25 1.75 1.52-.22-.23-1.7 1.13-.16-.33-2.35 1.05-.15.08.57.7-.1.25 1.83-.52.08.15 1.09-1.22.17.18 1.26.56-.08.09.62 1.18-.17-.29-2.05 1.22-.17.33 2.31.83-.11-.09-.62.66-.09-.32-2.27 2.75-.38.27 2 1.27-.17-.1-.7.44-.06zm-291.64-64.55l-.26-1.85c-.47-3.49-1.94-10.56-7.45-13.48-1.63-.86-1.34-3-.36-4.56.64-1 4.14-3.08 4.3-3.17l-.24-1.76-1.44.21-.24-1.7-1.57.22-.11-.73-.83.11-.1-.75-1.18.16-.1-.7 1.27-.18-.12-.82 2.27-.32-.09-.66-1.22.17-.14-1-3.27.46-.16-1.18-2 .28-.23-1.66-1.44.2-.22-1.57-1.44.2-.17-1.22-1 .13-.08-.52-1.87.26-.21-2.3 3-.41.12.83.83-.12.14 1 3.42-.48.38 2.7 1-.14-.21-1.44 1.78-.25.42 3 .78-.11-.2-1.44 1.36-.19-.15-1 2.62-.36.26 1.83 2.49-.35-.13-.91 2.1-.3.26 1.88-1.81.26.13 1-1.22.17.08.56 1-.14.25 1.79 1-.14-.13-.92 1.49-.21-.18-1.22.67-.09v-.35l1-.14.38 2.71s3.92-7.63 4.17-10.62v-.16l-1.27.18-.16-1.13-.74.1-.11-.79-5.45.77-.12-.83-4.32.6-.12-.87-1.62.22.2 1.44-1.61.23-.07-.48-2.4.34-.14-1-1.83.25.2 1.4-2 .27-.1-.69-2.09.29.17 1.22-1.92.27-.27-1.92 2-.28-.18-1.27.74-.1.12.83 2.67-.38-.2-1.44 1.82-.25.08.57 1.14-.16-.08-.57 2.14-.3.1.7 4.06-.57-.24-1.7 1-.14-.13-1-.79.11-.27-1.92 1.44-.2.23 1.61 1.57-.22.14 1-1.27.18.12.87.61-.08.1.7 1-.14-.15-1.09.48-.07.14 1 .74-.11.13.92 1.44-.2-.2-1.4 2-.27-.15-1.1 1.31-.18-.15-1 1.66-.23.35 2.49-1.53.21.07.48-.88.13.11.78 1.27-.18-.11-.78 1.43-.2c-.13-3.64-.5-7.27-.6-10.91l-1.82.25.19 1.31-2.8.39-.18-1.31-.61.09-.13-.92-2.14.3.17 1.22-1.21.17-.1-.7-1.75.25.2 1.48-.87.13-.13-.92-2.53.35.17 1.23-.74.1.06.44-.52.07.09.7-1 .13-.13-1-1.92.27.17 1.22-1.88.27.16 1.09-1.18.16.13 1-1.57.22.28 2-1.7.24.14 1-1.57.22.1.74-2 .28.14 1-1.49.2.33 2.36-1.92.27-.3-2.14 1.31-.18-.24-1.75 2-.27-.13-1 2.09-.3-.32-1.64 2-.28-.27-1.92-1.26.18-.25-1.79 1.48-.21.22 1.57 1.38-.19-.34-2.45 1.5-.2-.25-1.79 1.22-.18.08.57 1.62-.22-.17-1.23 1.74-.24-.13-1-1.44.2-.14-1 1.74-.25-.12-.87 1.79-.25-.21-1.49-1.83.26.13 1-2 .28.16 1.18-2.79.39.12.83-2.88.4-.19-1.35 1.29-.19-.2-1.61-1.61.22-.17-1.22 2-.28.18 1.27 2.09-.3-.12-.87-.83.11-.16-1.17 2.31-.33-.13-.91-1.61.22-.14-1-.83.12-.1-.74 3.75-.53-.08-.61-1.7.24-.18-1.27 2-.28.19 1.4 1.75-.25.1.75 1.18-.17-.22-1.57-2.36.33-.18-1.31 1.09-.15-.3-2.14 1-.14-.09-.66 1.92-.27-.28-2-1.36.18.13.92-1.7.24-.27-1.92 1.48-.21-.25-1.78-2.06.28.18 1.26-1.16.16.25 1.74-1.57.22.16 1.12-1.5.21-.18-1.26-1.87.26.14 1-.78.11.15 1.05-2.38.33.14 1-1.33.19.26 1.87-2.07.29.45 3.24-1.64.22.19 1.3-1.6.22.14 1 1.43-.2.71 5.11-1.62.22-.55-4-1.72.24-.36-2.57 1.8-.26-.25-1.77-1.61.23-.25-1.67 2-.28-.29-2.05 1.66-.23-.13-.95-1.41.2-.17-1.27-1.45.21-.35-2.44 1.85-.26-.4-2.81 1.82-.26-.34-2.46-2.24.31.21 1.45-1.32.19.28 1.95-3.46.49.71 5-2.49.34 1 6.89-2 .28.56 4-1.66.23-.41-3-1.32.18-.29-2.14-1.85.26-.31-2.21-2.94.41-.41-2.88-1.45.2.18 1.25-1.11.15-.28-2 1-.13-.2-1.45-1.8.25.07.5-1.1.16.14 1-2.31.32-.37-2.65-4.05.57.15 1.1 1.69-.23.23 1.68 1.66-.23.19 1.4 1.85-.25.19 1.4-1.89.26-.12-.87-2.39.33.14 1-1.13.16.13.94 2-.28.11.79 2.56-.36.33 2.35 2.09-.29.14 1 3.76-.53.19 1.36-2.79.39.15 1.08 1.45-.2.22 1.54 2.69-.38.11.76-2.74.39.24 1.7 2-.28.17 1.17 1.33-.18.16 1.12 1.43-.19.18 1.33 2.84-.4.27 2-1.49.2.14 1 1.41-.2.09.7 1.39-.08.25 1.78 1.22-.18.22 1.57-1.4.2-.17-1.18-1.38.2-.19-1.39-1.82.25-.13-.92-1.77.25-.11-.81-.88.13-.13-.95-2.81.39-.14-1-3.25.45-.08-.55-1.68.24.13.89-2.88.41.13.9-2 .27-.15-1.13-2.21.31-.13-.87-1.59.22.18 1.27-1.45.2-.16-1.15-2.07.29.21 1.52-2.21.31.14 1-1.61.23.09.67-1.61.22.1.72-1.17.16.08.6-1.75.24.29 2.1-1.35.19 1.23 8.8 1.22-.17-.17-1.18 1.8-.25-.47-3.32 1.36-.19.33 2.35 1.89-.26-.19-1.36 1.11-.15-.22-1.55 2-.28.3 2.12 1.93-.27-.58-4.63 2-.27.31 2.23.87-.12-.35-2.49 2-.27.43 3 1.1-.15-.21-1.5 1.89-.26-.29-2.1 1.27-.18.18 1.29 1-.14.26 1.86 1.54-.21-.27-1.94 1.4-.2.22 1.59 4.38-.61-.25-1.79.87-.13.21 1.5 2.74-.38.13.92-2.67.37.27 1.91-.92.13-.11-1.13-1.47.21-.08-.53-1.89.26.14 1-1 .13.14.95-1.22.17-.23-1.64-2.77.39.26 1.87-1.52.21.1.65-1.89.26.13 1-1.17.16.13 1-1.24.17.28 2-1.46.2.17 1.18-2.93.41.57 4.07-2 .28.1.72-2 .27.1.74-1.72.24.2 1.48-1.36.19.23 1.61-2.19.3.55 3.94 2-.29.21 1.5 1.5-.21-.25-1.75-.78.11-.23-1.61 2-.27.24 1.7 1.29-.18-.26-1.87 1-.14.34 2.39 2-.27-.25-1.75 1.43-.2.22 1.59 1.87-.26-.32-2.3 1.7-.24-.37-2.64 1.75-.24.39 2.75 1.29-.18-.46-3.3 1.61-.22.34 2.46 1.36-.19-.38-2.74 1.13-.15.22 1.56.57-.08.11.78.58-.08-.53-3.77 1.26-.18.58 4.15 1.36-.2-.63-4.51 1.34-.19.14 1 1.31-.18-.15-1 1.39-.2-.25-1.73 3.21-.44-.4-2.86 1.84-.26.5 3.57-1.75.25.4 2.9-1.77.25.32 2.25-1.82.26.58 4.14-1.11.16.34 2.44 1.66-.23.36 2.58-1.34.18.11.76-.62.09.37 2.67 1.66-.23.23 1.66.92-.13.34 2.44-1.17.17.7 5 .85-.12.16 1.08.73-.1.45 3.17-1.34.19.96 6.46.72-.1.11.78.71-.1-.37-2.67 1.22-.17.5 3.61 1-.13-.26-1.87 1.29-.18.35 2.46-1.48.21.5 3.55 1.82-.26-.16-1.15.76-.1.54 3.91 1.71-.24-.52-3.71.76-.1-.08-.6 1.47-.21-.36-2.55-1.45.2-.16-1.15-.6.08-.46-3.21 1.18-.17.22 1.61.62-.08.09.62 1.27-.18-.94-6.48-1.24.18.27 1.91-3.3.46-.23-1.64 1.25-.17-.11-.78 2.07-.29-.57-4.06 1.45-.2-.22-1.64 1.7-.23-.22-1.55-2.87.41.14 1-1.89.27-.23-1.82 1.69-.23-.16-1.08 1.64-.23.12.9 2.12-.3-.41-2.76-1.85.25-.15-1.33 2-.28-.56-4 1.71-.24-.74-5.32-1.09.15-.13-.92-.53.07-.72-4.85 2.44-.37.71 5 1.1-.15.28 2 2.79-2.33 1.18 8.5 1-.14-.33-2.35 2-.27.5 3.54 1.54-.21.42 3 1.4-.19.51 3.59 1.34-.19-.66-4.74 1.7-.24.54 3.85 1.29-.18 1 7.14 1.62-.23c-.06-.03-.06-.16-.07-.3zm6.6-176.31l-1.13.16-.17-1.18 2.71-.38-.1-.7-1.4.2-.17-1.27-.79.11-.09-.65-.83.11.13.92-.92.13-.25-1.79-1.35.19-.22-1.57-3.14.43-.24-1.65-2.7.37.11.83-.52.08-.15-1-1.48.21-.23-1.62-1.13.16.28 2-1.44.2-.28-2.05-1.27.18-.16-1.14-.74.11-.11-.79-5.46.76-.11-.82-4.32.6-.13-.87-1.61.22.2 1.44-1.62.23-.01-.48-2.4.33-.14-1-1.83.26.19 1.4-2 .27-.1-.7-2.09.3.17 1.22-1.92.27-.27-1.92 2-.28-.18-1.25.74-.1.12.83 2.67-.38-.2-1.44 1.82-.25.08.56 1.14-.15-.08-.57 2.14-.3.09.7 4.06-.57-.23-1.7 1-.14-.13-1-.79.11-.27-1.93 1.44-.2.23 1.62 1.57-.22.13 1-1.26.18.12.87.61-.09.1.7 1-.13-.15-1.09.48-.07.14 1 .74-.1.13.92 1.44-.2-.2-1.4 2-.28-.16-1.09 1.31-.18-.14-1.05 1.66-.23.34 2.49-1.52.21.06.48-.87.12.11.79 1.27-.18-.11-.78 1.57-.22-.11-.75.88-.12-.08-.52.79-.11-.14-1 .62-.09.25 1.79-1.14.16.17 1.22 1.57-.22-.11-.78 1.36-.19-.19-1.35 1.26-.18.2 1.4 1.48-.21-.13-1 .61-.09.09.61.87-.12.15 1.09 1.4-.19.22 1.57 2.4-.34-.13-1 1-.14-.16-1.14 1.66-.23.24 1.7 1.57-.22-.26-1.88-1.09.16-.29-2.1-3.19.45-.22-1.57-2 .28-.21-1.49-1.09.16.07.48-1.31.18-.12-.83-1.44.2-.08-.57-1.79.25.07.48-1.13.16-.13-.87-.78.11-.15-1.05 1.44-.2-.14-1-2.22.31-.19-1.31-.87.12-.15-1-1.92.27.19 1.31-2.8.39-.18-1.31-.61.09-.13-.92-2.14.3.13 1.31-1.21.17-.1-.7-1.76.25.21 1.48-.87.12-.13-.91-2.53.35.17 1.22-.74.11.06.43-.53.08.1.7-1 .13-.13-1-1.92.27.17 1.22-1.88.26.15 1.09-1.18.17.14 1-1.57.22S69.55 178.08 65.82 188l.19 1.33.85-.12.15 1.09.74-.11.44 3.18-1.33.19.92 6.58.71-.1.11.79.72-.1-.38-2.67 1.22-.17.51 3.61 1-.14-.26-1.86 1.29-.18.3 2.48-1.47.21.5 3.54 1.82-.25-.17-1.15.76-.11L75 208l1.71-.24-.5-3.76.76-.11-.09-.59 1.48-.21-.36-2.55-1.45.21-.16-1.16-.6.09-.45-3.23 1.17-.16.23 1.61.62-.08.09.62 1.26-.18-.9-6.47-1.24.17.26 1.91-3.29.46-.23-1.63 1.24-.17-.11-.79 2.08-.29-.57-4 1.45-.2-.23-1.64 1.71-.24-.22-1.54-2.88.4.15 1-1.89.26-.26-1.84 1.68-.23-.15-1.09 1.64-.23.12.9 2.12-.29-.39-2.77-1.84.26-.18-1.34 2-.27-.56-4 1.71-.23-.8-5.36-1.08.15-.13-.92-.53.07-.67-4.84 2.44-.36.71 5L81 168l.28 2.05 2.72-2.32 1.19 8.49 1-.13-.33-2.35 2-.28.49 3.55 1.55-.22.42 3 1.4-.2.5 3.6 1.35-.19-.66-4.74 1.7-.24.53 3.84 1.3-.18 1 7.14 1.65-.23-.32-2.24 1.85-.26.53 3.74 1.49-.2.23 1.59 1.15-.16.44 3.2 1.85-.26-.84-6-1.44.2-.39-2.75-1.4.2-.3-2.15 1.4-.19-.19-1.35-1.45.2-.29-2.1 1.9-.26-.19-1.35-2.77.38-.63-4.5 1.49-.21-.23-1.3-1.62.22.09.62-1.48.2-.21-1.48 1.26-.18-.12-.92-1.36.19-.11-.83-.53.08-.17-1.22.57-.08-.19-1.36-.83.12-.18-1.31.91-.13-.12-.92-1.53.22.14 1-1.7.24-.24-1.7 1.79-.25-.28-2-1.44.2-.23-1.7-1.58.22-.1-.73-.83.12-.1-.76-1.18.17-.1-.7 1.27-.18-.12-.83 2.27-.31-.09-.66-1.22.17-.14-1-3.27.46-.21-1.1-2 .27-.23-1.65-1.44.2-.16-1.52-1.44.2-.18-1.22-1 .13-.07-.52-1.88.26-.33-2.36 3-.42.12.83.83-.11.14 1 3.42-.48.38 2.71 1-.14-.2-1.44 1.77-.25.43 3L91 155l-.2-1.44 1.35-.19-.14-1 2.62-.37.26 1.84 2.49-.35-.13-.92 2.09-.29.27 1.88-1.84.25.14 1-1.22.17.07.57 1.05-.14.19 1.79 1-.14-.13-.92 1.48-.21-.17-1.22.67-.09-.05-.35 1-.14.38 2.7-1.09.16.19 1.39 2.4-.33-.47-3.36 1.27-.18.34 2.4 1.44-.2.44 3.14 1.57-.22L108 158l-1.26.18-.38-2.71.7-.09-.25-1.75 1.66-.23.24 1.7 1.57-.22-.23-1.66 1-.14.33 2.31-1.14.16.24 1.75 1.53-.21-.24-1.71 1.14-.16-.33-2.35 1-.15.08.57.7-.1.25 1.83-.52.08.15 1.09-1.22.17.17 1.27.57-.08.09.61L115 158l-.29-2 1.22-.17.33 2.31.82-.11-.08-.61.65-.1-.31-2.27 2.75-.38.27 2 1.27-.17-.1-.7.44-.06zm47.03-47.05l-1.12.28-.29-1.16 2.65-.67-.17-.68-1.37.35-.31-1.24-.77.19-.16-.64-.81.21.22.89-.9.23-.44-1.75-1.32.33-.39-1.53-3.08.77-.41-1.62-2.65.67.21.81-.52.13-.26-1-1.45.37-.4-1.58-1.13.27.51 2-1.41.36-.51-2-1.24.31-.28-1.11-.73.19-.19-.77-5.34 1.35-.21-.82-4.23 1.07-.22-.85-1.58.4.36 1.41-1.58.4-.12-.47-2.35.59-.24-.94-1.79.46.34 1.37-1.92.48-.17-.68-2.05.52.3 1.19-1.88.48L127 104l2-.5-.32-1.24.73-.18.21.81 2.62-.66-.36-1.41 1.78-.45.14.55 1.11-.28-.14-.55 2.1-.53.17.68 4-1-.42-1.67 1-.25-.24-.94-.77.19-.48-1.88 1.41-.35.4 1.58 1.54-.39.24.94-1.24.31.22.86.59-.15.18.68.94-.24-.27-1.07.47-.11.25 1 .72-.19.23.9 1.41-.35-.35-1.37 1.93-.49-.27-1.07 1.28-.32-.26-1 1.62-.41.62 2.44-1.5.38.12.47-.85.21.19.77 1.24-.31-.19-.77 1.54-.39-.19-.73.86-.21-.13-.52.77-.19-.24-.94.6-.15.44 1.75-1.11.28.3 1.2 1.54-.39-.2-.77 1.33-.33-.34-1.33 1.24-.31.29 1.39 1.5-.4-.24-.94.6-.15.15.59.86-.21.27 1.07 1.37-.35.39 1.54 2.35-.6-.24-.94 1-.26-.28-1.11 1.63-.41.42 1.67 1.54-.39-.47-1.84-1.07.27-.52-2.05-3.11.79-.39-1.54-2 .5-.37-1.45-1.07.27.12.47-1.28.32-.2-.81-1.41.36-.14-.56-1.76.44.12.47-1.11.28-.22-.85-.76.19-.26-1 1.41-.36-.25-1-2.18.55-.33-1.28-.85.21-.26-1-1.88.47.32 1.29-2.73.69-.32-1.28-.6.15-.23-.9-2.09.53.3 1.2-1.19.3-.17-.69-1.72.44.37 1.45-.86.22-.22-.9-2.48.63.3 1.19-.73.19.11.42-.51.13.17.69-.94.23-.24-.94-1.88.48.31 1.2-1.84.46.27 1.07-1.16.29.24.94-1.54.39.5 2-1.67.42.25 1-1.54.39.19.73-2 .49.24.94-1.45.37.58 2.31-1.88.47-.53-2.09 1.28-.32-.43-1.71 1.92-.49-.23-.94 2-.52-.4-1.58 1.92-.49-.48-1.88-1.23.32-.45-1.76 1.46-.36.43 1.47 1.36-.35-.61-2.39 1.47-.37-.44-1.75 1.19-.31.14.56 1.58-.4-.3-1.2 1.71-.43-.24-.94-1.41.36-.25-1 1.71-.43-.21-.85 1.75-.45-.37-1.45-1.79.46.24.94-1.93.48.29 1.16-2.73.69.2.81-2.82.71-.33-1.32 1.27-.32-.4-1.58-1.57.39-.3-1.19 2-.5.32 1.24 2-.52-.22-.86-.81.21-.29-1.15 2.26-.58-.22-.89-1.59.4-.23-.94-.81.2-.19-.73 3.68-.92-.15-.6-1.67.42L129 78l2-.5.35 1.37 1.71-.43.18.72 1.15-.29-.39-1.56-2.3.59-.33-1.29 1.07-.27-.53-2.09 1-.25-.16-.64 1.88-.47-.33-1.31c-2.63 1.25-14.87 8.31-14.87 8.31l.8 3.16-1.6.41.32 1.26-1.56.4.25 1 1.4-.36 1.26 5-1.58.4-1-3.88-1.68.43-.64-2.52 1.76-.45-.46-1.74-1.58.39-.2-.81a31.25 31.25 0 00-5.79 5.93l.5 2-.8.2a85.09 85.09 0 006.71 11.68c2.49 3.68 5.21 7.2 7.61 11a102.66 102.66 0 017.33 13.61l2.24-2.32 2.11 8.31.93-.24-.59-2.3 2-.49.88 3.47 1.51-.38.75 2.93 1.36-.34.89 3.52 1.33-.34-1.18-4.64 1.66-.42.95 3.76 1.28-.32 1.76 7 1.62-.41-.56-2.2 1.81-.45.93 3.66 1.46-.37.38 1.57 1.12-.29.8 3.13 1.8-.46-1.48-5.86-1.42.35-.68-2.68-1.37.34-.53-2.1 1.37-.35-.33-1.32-1.42.36-.52-2 1.86-.47-.34-1.32-2.7.68-1.16-4.44 1.45-.36-.36-1.28-1.59.4.16.6-1.46.37-.36-1.45 1.23-.32-.22-.89-1.33.33-.2-.81-.52.13-.3-1.2.56-.14-.34-1.32-.81.2-.32-1.28.89-.23-.22-.89-1.5.37.25 1-1.67.42-.42-1.67 1.75-.44-.48-1.92-1.41.35-.42-1.66-1.54.39-.18-.72-.81.21-.19-.74-1.16.29-.17-.68 1.24-.32-.2-.81 2.22-.56-.16-.64-1.2.3-.24-.94-3.2.81-.3-1.15-1.92.48-.41-1.62-1.41.36-.39-1.54-1.41.35-.3-1.19-.94.23-.13-.51-1.84.47-.58-2.31 2.9-.74.21.82.81-.21.25 1 3.35-.84.67 2.65 1-.25L135 109l1.73-.44.75 3 .77-.2-.36-1.41 1.32-.33-.25-1 2.57-.64.45 1.79 2.44-.62-.23-.89 2.05-.52.47 1.84-1.8.45.24.94-1.2.3.14.56 1-.26.44 1.75 1-.25-.23-.9 1.45-.36-.3-1.2.65-.16-.08-.35 1-.24.67 2.65-1.07.27.34 1.37 2.36-.6-.84-3.29 1.24-.31.6 2.35 1.41-.36.77 3.08 1.54-.39-.56-2.22-1.24.31-.67-2.65.69-.17-.44-1.71 1.63-.41.42 1.66 1.54-.39-.41-1.62 1-.25.57 2.27-1.11.28.43 1.71 1.5-.38-.42-1.67 1.11-.28-.58-2.31 1-.26.14.56.69-.17.45 1.79-.51.13.27 1.07-1.2.3.31 1.24.56-.14.15.6 1.15-.29-.5-2 1.19-.3.58 2.26.81-.2-.15-.6.64-.16-.56-2.23 2.69-.68.48 1.93 1.24-.32-.17-.68.43-.11zm200.78 317.98l-1.57.22-.1-.73-.83.11-.11-.75-1.18.16-.09-.7 1.26-.18-.11-.83 2.27-.31-.1-.66-1.22.17-.13-1-3.28.46-.16-1.18-2 .28-.23-1.66-1.44.2-.22-1.57-1.44.2-.17-1.22-1 .13-.07-.52-1.88.26-.33-2.36 3-.41.11.83.83-.12.14 1 3.42-.48.38 2.7 1-.14-.2-1.44 1.77-.25.42 3 .79-.11-.2-1.44 1.35-.19-.14-1 2.62-.36-.54-7.36-1.62.22.21 1.45-1.62.22-.07-.48-2.4.34-.13-1-1.84.25.2 1.4-2 .27-.1-.69-2.1.29.17 1.22-1.92.27-.27-1.92 2-.28-.18-1.27.75-.1.11.83 2.68-.38-.2-1.44 1.82-.25.08.57 1.13-.16.03-.46 2.14-.3.1.7 3.93-.55c0-.32-.11-10-.11-10l-.13-.92-2.54.35.18 1.23-.75.1.06.44-.52.07.1.7-1 .13-.14-1-1.92.27.17 1.22-1.87.27.15 1.09-1.18.16.14 1-1.58.22.28 2-1.7.24.14 1-1.57.22.1.74-2 .29.13 1-1.48.2.33 2.36-1.92.27-.3-2.14 1.31-.18-.25-1.75 2-.27-.14-1 2.1-.3-.23-1.61 2-.28-.27-1.92-1.27.18-.25-1.79 1.48-.21.22 1.57 1.39-.19-.34-2.45 1.49-.2-.25-1.79 1.23-.18.08.57 1.61-.22-.17-1.23 1.75-.24-.14-1-1.44.2-.14-1 1.75-.25-.12-.87 1.78-.25-.2-1.48-1.84.25.14 1-2 .28.17 1.17-2.8.4.12.82-2.88.41-.19-1.36 1.3-.18-.23-1.61-1.6.22-.17-1.22 2-.28.17 1.26 2.1-.29-.12-.87-.83.12-.17-1.18 2.32-.33-.13-.91-1.62.22-.13-1-.83.12-.11-.74 3.76-.53-.09-.61-1.7.24-.18-1.27 2-.28.2 1.4 1.74-.25.11.75 1.18-.17-.22-1.57-2.36.33-.18-1.31 1.09-.15-.24-2.1 1-.14-.09-.66 1.92-.27-.28-2-1.35.18.13.92-1.71.24-.27-1.92 1.49-.21-.25-1.79-2.06.29.17 1.26-1.15.16.24 1.74-1.57.22.16 1.12-1.5.21-.17-1.26-1.88.26.15 1-.79.1.15 1.06-2.38.33.14 1-1.32.19.26 1.87-2.08.29.45 3.24-1.63.22.18 1.3-1.6.22.14 1 1.43-.2.72 5.11-1.62.22-.56-4-1.71.24-.36-2.57 1.8-.26-.25-1.77-1.61.23-.26-1.82 2-.28-.28-2.05 1.65-.23-.13-.95-1.4.2-.18-1.27-1.45.21-.34-2.44 1.84-.26-.39-2.81 1.82-.26-.35-2.46-2.23.31.2 1.45-1.31.19.27 2-3.45.49.7 5-2.49.34 1 6.89-2 .27.56 4-1.66.23-.42-3-1.31.18-.3-2.14-1.84.26-.31-2.21-3 .41-.4-2.88-1.45.2.17 1.25-1.11.15-.27-2 1-.13-.21-1.45-1.79.25.07.5-1.11.16.14 1-2.3.32-.37-2.65-4.06.57.16 1.1 1.68-.23.23 1.68 1.66-.23.2 1.4 1.84-.25.2 1.4-1.89.27-.12-.88-2.4.33.14 1-1.13.16.14.94 2-.28.11.79 2.55-.36.33 2.35 2.1-.29.14 1 3.75-.52.19 1.36-2.79.39.15 1.08 1.46-.2.21 1.54 2.7-.38.1.76-2.74.39.24 1.7 2-.28.16 1.17 1.34-.18.15 1.12 1.43-.19.19 1.33 2.83-.4.28 2-1.5.2.15 1 1.4-.2.1.7 1.45-.21.25 1.78 1.22-.18.22 1.57-1.41.2-.16-1.18-1.38.2-.19-1.36-1.82.25-.13-.92-1.78.25-.11-.81-.87.13-.14-.95-2.81.39-.14-1-3.24.45-.08-.55-1.68.24.12.89-2.88.41.13.9-2 .27-.16-1.13-2.21.31-.12-.87-1.59.22.18 1.27-1.46.2-.16-1.15-2.07.29.21 1.52-2.21.31.15 1-1.61.23.09.67-1.61.22.1.72-1.18.16.09.6-1.75.24.29 2.1-1.36.19 1.23 8.8 1.22-.17-.16-1.18 1.79-.25-.46-3.32 1.36-.19.33 2.35 1.88-.26-.19-1.36 1.11-.15-.22-1.55 2-.28.29 2.12 1.94-.27-.65-4.63 2-.27.31 2.23.88-.12-.38-2.37 2-.27.42 3 1.11-.15-.21-1.5 1.89-.26-.3-2.1 1.27-.18.18 1.29 1-.14.26 1.86 1.63-.22-.27-1.94 1.41-.2.22 1.59 4.37-.61-.25-1.79.88-.13.21 1.5 2.74-.38.13.92-2.67.37.26 1.91-.92.13-.16-1.13-1.47.21-.07-.53-1.89.26.13 1-.94.13.13.95-1.22.17-.23-1.64-2.76.39.26 1.86-1.52.22.09.65-1.89.26.14 1-1.18.16.14 1-1.24.17.27 2-1.45.2.16 1.18-2.92.41.57 4.07-2 .28.1.72-2 .27.11.74-1.73.24.21 1.48-1.36.19.22 1.61-2.19.3.55 3.94 2.05-.28.21 1.49 1.5-.21-.24-1.75-.79.11-.22-1.61 2-.27.23 1.7 1.29-.18-.26-1.87 1-.14.33 2.39 2-.27-.24-1.75 1.42-.2.23 1.59 1.86-.26-.32-2.3 1.7-.24-.36-2.64 1.75-.24.38 2.75 1.29-.18-.46-3.3 1.61-.22.35 2.46 1.35-.19-.38-2.74 1.13-.15.22 1.56.57-.08.11.78.58-.08-.53-3.77 1.27-.18.58 4.14 1.36-.19-.63-4.51 1.33-.19.14 1 1.31-.18-.14-1 1.38-.19-.24-1.73 3.2-.44-.4-2.86 1.84-.26.5 3.57-1.75.25.41 2.9-1.78.25.32 2.25-1.82.26.58 4.14-1.11.16.35 2.44 1.65-.23.36 2.58-1.33.18.1.76-.62.09.38 2.67 1.65-.23.24 1.66.92-.13.34 2.44-1.18.16.71 5 .85-.12.15 1.08.74-.1.44 3.17-1.33.19.92 6.59.71-.1.11.78.71-.1-.37-2.67 1.22-.17.55 3.5 1-.13-.26-1.87 1.29-.18.34 2.46-1.47.21.49 3.55 1.82-.26-.16-1.15.76-.11.55 3.92 1.7-.24-.52-3.71.76-.1-.08-.6 1.47-.21-.35-2.55-1.45.2-.17-1.15-.59.08-.46-3.22 1.18-.17.22 1.62.63-.09.08.62 1.27-.18-.9-6.47-1.25.18.27 1.91-3.29.46-.23-1.64 1.24-.17-.11-.78 2.07-.29-.56-4.06 1.45-.2-.23-1.64 1.7-.23-.21-1.55-2.88.41.14 1-1.88.27-.26-1.85 1.68-.23-.15-1.08 1.63-.23.13.9 2.12-.3-.39-2.76-1.84.25-.19-1.33 2-.28-.56-4 1.7-.24-.74-5.32-1.08.15-.13-.92-.53.07L353 427l2.45-.37.7 5 1.1-.15.29 2 2.78-2.33 1.19 8.5.95-.14-.33-2.34 2-.28.5 3.54 1.55-.22.42 3 1.4-.19.5 3.59 1.35-.19.33-4.74z" fill="#e4e4e2"/><path d="M372.25 241.24l-.19-1.4-1.72.24-.36-2.57 1.8-.25-.25-1.78-1.61.23-.26-1.82 2-.28-.29-2.05 1.66-.23-.14-.94-1.4.19-.18-1.26-1.45.2-.34-2.44 1.84-.26L371 224l1.82-.25-.34-2.47-2.24.32.2 1.45-1.31.18.28 2-3.46.48.7 5-2.48.35 1 6.89-2 .27.56 4-1.66.24-.42-3-1.31.19-.3-2.14-1.84.25-.31-2.21-3 .41-.4-2.87-1.45.2.17 1.24-1.1.16-.28-2 1-.14-.2-1.45-1.8.25.07.51-1.11.15.14 1-2.3.33-.37-2.65-4.05.56.15 1.11 1.68-.24.24 1.68 1.66-.23.19 1.41 1.84-.26.2 1.41-1.89.26-.12-.88-2.4.34.15 1-1.13.16.13.94 2-.27.11.78 2.56-.36.32 2.35 2.1-.29.14 1 3.75-.53.11 1.37-2.78.39.15 1.09 1.45-.21.21 1.55 2.7-.38.11.76-2.75.38.24 1.71 2-.29.16 1.18 1.34-.19.16 1.13 1.42-.2.19 1.33 2.83-.39.28 2-1.5.21.15 1 1.4-.19.1.69 1.45-.2.25 1.77 1.22-.17.22 1.56-1.41.2-.16-1.17-1.38.19-.19-1.36-1.82.26-.13-.93-1.77.25-.12-.8-.87.12-.13-.95-2.81.4-.14-1-3.25.46-.08-.55-1.68.23.13.9-2.88.4.12.9-2 .28-.16-1.13-2.21.31-.12-.88-1.59.22.18 1.27-1.45.2-.16-1.15-2.08.29.22 1.52-2.21.31.14 1-1.61.22.09.67-1.61.23.1.71-1.17.16.08.6-1.75.25.29 2.09-1.36.19 1.23 8.8 1.22-.17-.16-1.17 1.8-.26-.47-3.31 1.36-.19.33 2.35 1.89-.27-.19-1.36 1.1-.15-.21-1.54 2-.28.3 2.12 1.93-.27-.65-4.63 2-.28.31 2.24.88-.13-.35-2.48 2-.28.42 3 1.11-.16-.21-1.49 1.89-.27-.29-2.09 1.26-.18.18 1.29 1-.15.26 1.87 1.63-.23-.27-1.93 1.41-.2.22 1.59 4.38-.61-.25-1.8.87-.12.21 1.49 2.74-.38.13.92-2.67.38.27 1.91-.93.13-.15-1.13-1.48.2-.07-.53-1.89.27.14 1-1 .13.13.94-1.22.17-.23-1.63-2.76.38.26 1.87-1.52.21.09.65-1.89.27.14 1-1.17.17.13 1-1.24.18.27 1.95-1.45.21.17 1.17-2.93.41.57 4.08-2 .28.1.71-2 .28.1.73-1.73.25.21 1.47-1.36.19.23 1.61-2.19.31.55 3.94 2.05-.29.21 1.5 1.49-.21-.24-1.75-.78.11-.23-1.62 2-.27.24 1.7 1.29-.18-.26-1.86 1-.15.34 2.4 2-.27-.24-1.75 1.43-.2.22 1.58 1.86-.26-.32-2.3 1.71-.24-.37-2.63 1.75-.25.38 2.75 1.29-.18-.46-3.29 1.61-.23.35 2.47 1.36-.19-.39-2.74 1.13-.16.22 1.57.58-.08.11.78.57-.08-.52-3.78 1.26-.18.58 4.15 1.36-.19-.63-4.51 1.33-.19.14 1 1.32-.18-.15-1 1.38-.19-.24-1.73 3.2-.45-.4-2.86 1.85-.25.49 3.57-1.75.24.41 2.9-1.77.25.31 2.26-1.82.25.58 4.15-1.1.15.34 2.44 1.66-.23.36 2.58-1.34.19.11.76-.62.08.37 2.68 1.66-.24.23 1.66.92-.13.34 2.44-1.17.17.7 5 .85-.12.15 1.08.74-.1.44 3.18-1.33.19.92 6.58.71-.1.11.78.72-.09-.38-2.68 1.22-.17.51 3.62 1-.14-.26-1.87 1.29-.18.34 2.47-1.47.2.5 3.55 1.46-.2c.07-3.83-.08-54.7-.1-75.14zm31.93-54.02l-.46-3.31 1.36-.19.33 2.35 1.89-.27-.19-1.36 1.1-.15-.21-1.54 2-.28.3 2.11 1.93-.27-.65-4.63 2-.27.31 2.23.88-.12-.35-2.49 2-.27.42 3 1.11-.16-.21-1.5 1.89-.26-.3-2.1 1.27-.17.18 1.29 1-.15.26 1.87 1.63-.23-.27-1.94 1.41-.19.22 1.59 2-.29s0-.06-.05-.09c-.34-1-2.74-8.34-2.89-8.58a1.28 1.28 0 00-.19-.27l-1.06.15-.08-.56-1.68.24.12.9-2.87.4.12.9-2 .27-.16-1.12-2.21.31-.12-.88-1.59.22.18 1.27-1.45.2-.16-1.15-2.08.29.22 1.52-2.22.31.15 1-1.61.22.09.67-1.61.22.1.72-1.18.16.09.6-1.75.25.29 2.09-1.36.19 1.23 8.8 1.22-.17-.16-1.18z" fill="#e4e4e2"/><path d="M432.23 193a1 1 0 01-.07-.24c-.06-.48-3.94-11.37-4.47-12.24 0-.06 0-.11-.06-.17l-1.46.21.13 1-.94.14.13.94-1.22.17-.23-1.63-2.76.38.26 1.87-1.52.21.09.65-1.89.27.14 1-1.17.16.13 1-1.24.17.27 2-1.45.2.16 1.18-2.92.41.57 4.07-2 .28.1.72-2 .28.1.73-1.73.24.21 1.48-1.36.19.22 1.61-2.18.31.55 3.93 2.05-.28.21 1.49 1.49-.21-.24-1.75-.78.11-.23-1.61 2-.27.24 1.7 1.29-.18-.27-1.86 1-.15.34 2.4 1.95-.28-.24-1.75 1.43-.2.22 1.59 1.86-.26-.32-2.3 1.71-.24-.37-2.63 1.75-.25.38 2.75 1.29-.18-.46-3.29 1.61-.23.35 2.47 1.36-.19-.39-2.74 1.13-.16.22 1.56.58-.08.11.79.57-.08-.46-3.91 1.27-.18.58 4.15 1.36-.19-.63-4.52 1.33-.18.14 1 1.31-.19-.14-1zm14.23 40.46c-.93-7.26-11.55-33.5-12.33-36.5l-1.3.18.58 4.15-1.1.15.34 2.44 1.66-.23.36 2.58-1.34.19.11.76-.62.08.37 2.67 1.66-.23.23 1.66.92-.13.34 2.44-1.17.17.7 5 .85-.12.15 1.08.74-.1.44 3.18-1.33.18.92 6.59.71-.1.11.78.72-.1-.38-2.67 1.22-.17.51 3.62 1-.14-.26-1.87 1.29-.18.34 2.47-1.47.2.49 3.55 1.82-.26-.16-1.15.76-.1.55 3.91 1.7-.24-.51-3.7z" fill="#e4e4e2"/><path d="M446.1 225.32l.15.49h.12l.11.79.24.8.5-.07.09.62 1.26-.18-.9-6.47-1.25.18.27 1.91-1.16.16c.19.59.39 1.18.57 1.77z" fill="#fff"/><path d="M409.37 137.42c-8.82-19.22-14.51-42.62-30.45-57.21C352.53 63 335.23 63.44 306.11 53c-2.42-1 10.44 56.27 5.3 132.86s-24.64 268.12-11.06 288.43 70.7 25.2 70.11 16c-.57-9 1.5-157.51 1.68-198.67l.41-.08c.5 7.25 12.44 8.7 10.93 15.93-2.92 3.84-2.68 8-1.61 12.34 3.05 11.87 5.55 24 10.45 35.29 1.35 3.61 1.5 7.13-.51 10.66-5.47 9-1.69 19.56-.79 29.26 1.72 8.67 2.72 8.31 5.33 17.63.6 2.17-7.74 19.51.6 19.66 12.54-3.91 39.84.29 52.32 2.94 2.67.5 2.68.27 3.09-2.33.83-5.36-2-10.34-.78-15.62.35-4.69 5.07-7.12 5.56-11.78 3.05-18.5 2.09-37.3 3.28-56 6.95-74.71-23.24-144.62-51.05-212.1z" fill="none" stroke="#262521" stroke-linecap="round" stroke-linejoin="round" stroke-width="3"/><path d="M305.87 55.51s10.17 62.28 5 138.87-24.13 259.55-10.55 279.86c9.21 13.8 41.09 18.43 64.39 18.43" fill="none" stroke="#636363" stroke-linecap="round" stroke-linejoin="round"/><circle cx="296.69" cy="275" r="4.19" fill="none" stroke="#636363" stroke-linecap="round" stroke-linejoin="round" stroke-width=".83"/><circle cx="292.5" cy="338.23" r="4.19" fill="none" stroke="#636363" stroke-linecap="round" stroke-linejoin="round" stroke-width=".83"/><circle cx="289.31" cy="392.02" r="4.19" fill="none" stroke="#636363" stroke-linecap="round" stroke-linejoin="round" stroke-width=".83"/><circle cx="289.31" cy="445.71" r="4.19" fill="none" stroke="#636363" stroke-linecap="round" stroke-linejoin="round" stroke-width=".83"/><path d="M121.09 171.92s3 37.54.91 53.17.11 29.7.11 32.87 1.64 33.04 1.64 33.04m247.78-102.34s5.79 47.28 0 75.34l1 27.47" fill="none" stroke="#262521" stroke-linecap="round" stroke-linejoin="round" stroke-width="3"/><path d="M184.93 172.05c-8.2-49.35 5.38-119.37 4.57-119.12-30.42 11-49 12.05-76.28 30.25-23.51 30.35-34.46 68.24-48.07 103.67-23.59 59.08-28.1 123-26.19 186a144.46 144.46 0 002.72 33.3 6.24 6.24 0 001.32 3.23c3 2.77 0 14.15 2 21.91.3 1.47 1 1.81 2.4 1.47 12.52-3.2 38.06-2.15 50.44 1.38 3.12.94 3.17 1.12 3.74-2.05 1.44-8-1.86-15.46 3.85-21.74a5.1 5.1 0 001.13-3.3c-1.07-8.1 0-16 1.54-23.93 1.19-8.37 4.89-16.88 4.38-25.31-1-3.31.12-6.43.37-9.58 1.26-11.18 6-24.61-5.15-32.56-5.69-6.88 9.44-5.51 11.81-16.18 1.35-2.86 2.87-5.64 4.29-8.46-2.42 55.68.77 181.39 2.12 192.65.93 5.09 1.39 5.41 6.61 4.82 24.35-3.77 56-3 68.45-26s1.91-182.5-16.05-290.45z" fill="none" stroke="#262521" stroke-linecap="round" stroke-linejoin="round" stroke-width="3"/><path d="M130.84 487.72c24.8-4.31 59-4.45 69.58-24.06 12.46-23.06 3-180.4-15-288.39-8.2-49.35 4.78-120 4-119.76" fill="none" stroke="#636363" stroke-linecap="round" stroke-linejoin="round"/></svg>