<svg xmlns="http://www.w3.org/2000/svg" width="500" height="550" viewBox="0 0 500 550"><path d="M372.14 295.65q-.27 61.74-.62 123.46c-.81 9-2.68 16.41-3.55 25.45-1 10.07 1.34 17-1.5 25.63-.59 1.77-2 1.67-3.35 1.43-44.59-7.73-101.66-5.71-146.65-2.92-24.6.58-58.62-1.67-83 2.09-5.23.6-5.68.28-6.62-4.82-1.35-11.26 1.94-18.53.53-29.31-6.15-46.82-1.39-94.38-3.6-141.53-1.42 2.82-34.1-177.5-10.59-207.85 27.32-18.2 60-23.76 90.46-34.78a3.13 3.13 0 012.72.43c5 5.55 59.85 15.22 77.21 4.79 2.85-1.28 4.2-6.53 7.87-5 29.12 10.5 61 14.41 87.44 31.59 15.94 14.59-5.87 218.51-6.37 211.26z" fill="#fff"/><path d="M409.37 141.51c-8.82-19.21-14.51-42.61-30.45-57.2-26.39-17.18-58.32-21.09-87.44-31.59-3.67-1.53 2.33 43.29-45.14 46.43-41.93-4.33-41.86-46.91-42.66-46.65-30.43 11-63.14 16.58-90.46 34.78C89.71 117.63 78.76 155.51 65.15 191c-23.59 59-24.7 75.85-22.78 138.86-.36 11.19 3.49 22.28 5.72 33.31a6.66 6.66 0 001.33 3.22c6.31 5.76 3.46 14.67 5.49 22.43.3 1.47 1 1.81 2.4 1.46 12.52-3.19 26.23-2.33 38.61 1.19 3.13.94 3.17 1.12 3.74-2.05 1.44-8 10.36-41.32 11.86-49.29 1.19-8.37 7.3-12.41-3.81-20.36-5.69-6.89 9.44-5.51 11.81-16.19 1.35-2.85 4.29-8.45 4.29-8.45s-1.8-13.4-2.36-47c2.36-40 .35-63.18.35-63.18s16.53-72 78.55-100.86c0 0 11.17 33 50.15 29.59 36.87-3.2 45.58-31.83 45.58-31.83 61.78 31 75.25 110.91 75.25 110.91l.81 102.9.41-.08c.5 7.25 12.44 8.69 10.93 15.93-2.92 3.84-2.68 8-1.61 12.33 3.05 11.88 4.94 19.77 5.84 29.47 1.72 8.67-.95 10.27 5.32 17.63 3.32 5.85 3.11 21.26 11.45 21.41 12.54-3.91 25.32-1.08 37.79 1.58 2.68.5 2.69.27 3.09-2.33.83-5.36 1.69-10.73 2.91-16 .35-4.69 5.07-7.12 5.56-11.78 3.05-18.5 2.94-13.11 4.14-31.76 6.94-74.71-20.79-123.06-48.6-190.55z" fill="#3d664a"/><path d="M372.14 295.65q-.27 61.74-.62 123.46c-.81 9-2.68 16.41-3.55 25.45-1 10.07 1.34 17-1.5 25.63-.59 1.77-2 1.67-3.35 1.43-44.59-7.73-101.66-5.71-146.65-2.92-24.6.58-58.62-1.67-83 2.09-5.23.6-5.68.28-6.62-4.82-1.35-11.26 1.94-18.53.53-29.31-6.15-46.82-1.39-94.38-3.6-141.53-1.42 2.82-2.94 5.6-4.29 8.45-2.37 10.68-17.5 9.3-11.81 16.19 11.11 8 5 12 3.81 20.36-1.5 8-10.42 41.27-11.86 49.29-.57 3.17-.61 3-3.74 2.05-12.38-3.52-26.09-4.38-38.61-1.19-1.38.35-2.1 0-2.4-1.46-2-7.76.82-16.67-5.49-22.43a6.66 6.66 0 01-1.33-3.22c-2.23-11-6.08-22.12-5.72-33.31-1.92-63-.81-79.84 22.78-138.91 13.61-35.44 24.56-73.32 48.07-103.67 27.32-18.2 60-23.76 90.46-34.78a3.13 3.13 0 012.72.43c5 5.55 11.46 8.41 18.56 9.66 19.19 2.43 41.29 5.56 58.65-4.87 2.85-1.28 4.2-6.53 7.87-5 29.12 10.5 61 14.41 87.44 31.59 15.94 14.59 21.63 38 30.45 57.2C437.18 209 464.91 257.35 458 332c-1.2 18.65-1.09 13.26-4.14 31.76-.49 4.66-5.21 7.09-5.56 11.78-1.22 5.28-2.08 10.65-2.91 16-.4 2.6-.41 2.83-3.09 2.33-12.47-2.66-25.25-5.49-37.79-1.58-8.34-.15-8.13-15.56-11.45-21.41-6.27-7.36-3.6-9-5.32-17.63-.9-9.7-2.79-17.59-5.84-29.47-1.07-4.3-1.31-8.49 1.61-12.33 1.51-7.24-10.43-8.68-10.93-15.93z" fill="none" stroke="#262521" stroke-linecap="round" stroke-linejoin="round" stroke-width="3"/><path d="M204.41 52.37s4 48.55 43.68 46.73 42.84-45.41 42.84-45.41M121.8 184.94s2.11 28.62 0 44.25.11 29.69.11 32.87 1.9 33.07 1.9 33.07m247.52-102.38s-1.25 73.86.81 102.9" fill="none" stroke="#262521" stroke-linecap="round" stroke-linejoin="round" stroke-width="3"/><path d="M318.29 173.9s6.45.15 9.22 1.35c0 0-1.25-7.92-13.2-2.33.27-5.06 4.33-3.63 7.07-3.27l-1.4-1.43 5.25 1s-1.73-8.6-9.21-3.37c0 0-3.27-.43-.6-2.71s.56-3 .56-3c-6.8 4.14-5.19 3.84-4.46 11.2-.14 1.07-5-8.09-6.63-8.61l1.67.52c.58-6.16-15.18-5.86-16.61-6 1.84-3.37 3.15-4.16 5.64-.82 0 0 .08-1.85.55-1.79s9.22 4.46 9.22 4.46c-4.13-7.15-11.2-11.81-17.39-2.42 0 0 .85-5.31 3.88-6.78 0 0-7.87-3.31-6.77 6.2-4.63-5.55-4.45-4.6-10.7-2.31l1.83 1.15s-4.42 2.24-4.79 5.1c3.89 1.75 2.64-.68 4.87-1.52l.18 2.48s1.67-2.3 2.18-2.4.4 2 .67 2c.72-.72 2.42-2.86 3.94-1.48l-.22 1.75c-7 1.78-7.46 3.3-7.15 10.07 0 0 3.22-6.38 4.39-6.5-.55 4.28-1.89 11.79.72 12.13l.54-4.19 1.13.15s2.06-11.59 3.21-11.91-1.71 8.31-.75 10.6 2.83 6.25 2.83 6.25.64-7.35 1-7.61 2.15 9 5.87 9.53c0 0 6.9 23.13-.43 38.82s7.85-.62 7.85-.62l.2-6.75c7.14-7.14 10.72-21.07 11-31.29 0 0 6.22 6.89 7.46 9.52 0 0 1.76-5.06-7.28-13.37 0 0 4.63-.33 12.64 8.62.01-.08 2.08-5.08-7.98-10.42zm-21.55-13.28l4.58 1.33s3.75 3.54 3.41 4.57c-2.51 2.07-6-3.28-7.83-4.48-.76-.44-.16-1.42-.16-1.42zm5.15 11.59s-2.5-.13-2.78-1.9-6.5-7.17-6.5-7.17c11.63 8.77 9.28 9.07 9.28 9.07zm.27 33.66l-1.16-.15c2.05-10.21-6.66-33.64-9.44-40.78 1 1.38 6.4 11.55 8.3 13 0 0-2.26 3.3-1.6 4.18 0 0 2.4-.42 3.26-1.84s6.07-3.87 6.94-3.76c-.85 1.85-1.86 11 1.18 13 0-.02.17 9.95-7.48 16.35z" fill="#262521"/><path d="M272.35 177.88c-.23-3.74-5.58-5.53-9.47-2.57 1.74-14.92-22.36-4.95-22.46 4.67l-1.29.79c-.27-.17-.55-.33-.83-.48 2.86-6.41 11.76-18.5 2.5-22.4-7.92-1.23-9.16 16.15-14.36 20.48l-2.58-2.57c-5.39-13-25.11 7.14-24.45 11.68-6.36 6.27-12.3 5.8-12.51 5.79-3.39-1-1.31-8.84-1.1-12.21.1-9.67 7.35-18.14 10.22-18.31 4.72 11.71 17.86-2.81 6.72-9.33-4.93-3.27-13.31-3.33-21.52 6-18.4 23.89-5.49 61.12 22.58 37.9 3.53 2.28 6.83 1.63 10.64-1.95 3.58 3 6.14 2.06 9.6-.33.83 20.52 20.69 10.13 20.05-5.42 6.82 6.27 11.53 1.79 20.27-4.18 3.09-2.72 8.51-3.76 7.99-7.56z" fill="#fff" stroke="#262521" stroke-linejoin="round" stroke-width="1.24"/><path d="M267.39 177.45c-2.31-.9-17.52 14.13-18.57 4.82 0 0 7.72-3.82 9.81-6.76s-.46-4.88-3.14-4.16c-4 .85-12.94 6-11.36 10.71l-5.48 3.37c-1.2-2.36-5.69-3.06-5.69-3.06.68-1.81 10.6-17.46 7.42-20.81-1-.13-1.68-.69-4.66 7.49A49 49 0 01224.86 186c-2.43 2.37-5.05 2.63-5.47 0s2.84-6.59 2.84-6.59l-1.94-1.93c-1.19-8.3-18.47 7.57-17.41 11.78-8.16 8.65-16.42 7.66-16.42 7.66-7.82-.75-4.56-13.85-4-19.13 2.25-15.77 12.78-19.09 14.49-19.14s3.61 1.14 2.88 2.58 1.69 3.77 3.35.44c1.86-3.73-7.65-12.71-19 .07-17.25 24.34-3.84 54.49 20 30.05 2.94 8.4 11.17-2.88 12.36-4.69-1.46 5.43 1.29 6.27 2.11 6.36 3.16.35 9.31-8.17 9.31-8.17 1.87.31.72 5.53-.08 9.64.65 18.87 16.9-.93 11.46-8.42l4.94-2.77c6 12.29 16.77-2.18 22.91-4.59 1.81-.49 1.88-1.48.2-1.7zm-54.64 10.31c-8.48 8.51-9.06-2.41 4.56-8.85.53 2.21-1.31 4.98-4.56 8.85zm20.73 10.65c-4.36 0-1.37-9.56-1.61-10.18 7.13-2.29 6.57 8.77 1.61 10.18zm18.7-23.41c3.73-1.93 4-.38 2.54.93a46 46 0 01-6 3.64s-.27-2.57 3.46-4.57z" fill="#328d57"/><path d="M339.82 225.81c-5.14-7.51-11.18-3.69-16.77 2.62-.07-.38-.12-.79-.17-1.2 21.54-24.27-2.2-39.73-9.56-6a5.13 5.13 0 00-.57-1.12c.69-15.35-21.56-1.63-24.39 3.48 2.38-15.18-16.27-5.82-19.59 1.38a7.25 7.25 0 00-.68-3.52c4.39-1.71 4.92-8.68.52-10.6-4.66-2.44-10.17 3.37-7.79 8-3.38 1-5.74 3.85-7.32 6.81a4.79 4.79 0 00-6.93-4.28c1.58-2.92 1.15-6-3-6.85-6.87-1.16-12 13.5-16.71 19.34-.09-4.42-5.55-8.47-9-7.84-8.95 1-13.43 14.06-14.55 18l-.57.51c4.14-8.5 2.78-16.49-10.3-10.13-6.05-1.58-10.86 9.34-7.08 15-.59 2.45-4.4 8.13-6.58 7.7 0-3.15 1.34-11.26 4.08-22.8 1.63-6.84 5.42-7.68 5.92-7.76 6.73 3 3.24-4.44 1.43-7.25l3.74-.87c.42 12.93 14.1 14.58 11.18 4.49a6.08 6.08 0 01-.45-4.25c1.68-3.15 6.06-7 5.31-10.84-1.14-6.39-10-5.25-12.31-.66-7.67.13-51.42 9.4-49 28.32.35 9.61 9.25 16.74 16 11 3.55-7.3-7.45-5.81-6.14-9.16.51-2.39 5.06-9.85 14.64-13.47-4.68 9.55-6 31.24-4.45 39.24 6.44 12.22 18.41 1.15 23.66-9 2.73 8.62 12.17 4.34 15.58-1.73 5.06 4.63 12.92.53 15.35-3.85a6.41 6.41 0 002.4-.92c-2 7.52-3.41 9.13-1.14 13.05-6.56 4.37-13 11.8-13 11.8l7.21-.14c22.61 1.07 23.68 7.11 23.68 7.11 6.95-4.27 33.18-17.6 49.93-15.58 9.66-.25 19.65-.51 28.42-4 19.79-8.84 24.6-23.84 19-34.03zm-73.66 4.83a.65.65 0 000 .13c-.39.23-.3.23 0-.13zm66.34 7.19c-11.27 19.78-68.78-.41-98.83 17.83.35-1.68 1.16-4.58 2-7.41 6.95.66 13.45-.63 18.24-7 4.2 5.49 11.17 3.81 15.32-1.43 5.12 6.34 13.68 3.09 18.93-2.44 2.85 4 8.76 3.48 12.46.14 2.86 5.82 9.78 2.29 13.71-1 5.43 8.73 13.8.53 18.28-5.64.31.36 1.32 1.64-.11 6.95z" fill="#fff" stroke="#262521" stroke-linejoin="round" stroke-width="1.24"/><path d="M201.83 226.1c2-.89-1.66-2.7-.38-8.25.67-3 7.64-8.53 4.45-10.84s-6.24 3.18-6.24 3.18c-3.68-.84-64.48 11.13-43.62 33.68 4.73 3 9.34.07 2.35-1.6-9.06-4.06 2.66-18.48 16.31-22.37 12.7-3.59 23.28-5.77 23.28-5.77-2.34 5.28 1.85 12.87 3.85 11.97z" fill="#328d57"/><path d="M333.62 224.92c-4.83-1.89-13.08 18.52-14.15 1.3 0 0 6.54-8.48 7.28-10.48s4.33-14.59-2.53-9.67-8.74 22.4-8.74 22.4-2.16 3.91-6.42 3.74c-6.59-.48 4.44-9.47 0-11.05 0 0 3.39-8.9-8.36-2.9s-11.51 11.56-11.51 11.56c-18.24 14.77-19.6-3.16-8.74-4.47 3.47 5.6 10-12.43-2.07-5a19 19 0 00-9.27 12.32c-10.53 8.54-10.58 0-10.58 0s11-11.34 4.42-10.86-9 12.36-9 12.36c-7.18 7.45-10.83 5.64-10.83 5.64 6.56-6.38 8.54-14.89 6-15.6s-11.67 8.3-11.67 8.3c2.39-9.41 9-14.26 5.7-14.7-2.15-3.56-17.5 28-20.07 23.69 2.92-12.77-4.93-12.17-4.93-12.17-7.91 1.07-11.85 16.44-11.85 16.44-5.2 4.77-9.08 8.25-6.59-3.11 6.4-11.71-4.36-6-7.89-4.27-1.59-5-7.37 10.38-2.58 9.38.29 3.84-7.52 16.27-13.3 11.9-1.63-1.64 1.33-16.21 3.68-26.1s8.91-10.27 8.91-10.27c-2.75-9-14.74.09-14.76 9.7 0 0-3.77 24.56-1.91 28.9 4.38 10.12 18.78-5.68 19.86-16.76l5.58-2.61c-5.82 13.63 2.3 19.09 10.18 4.66 7.7 10.24 14.15-2.07 14.15-2.07 4 2.72 14.3-15.86 14.3-15.86s-9.67 25.13-9.11 28.25 3.19 1.66 3.31-.8 3.08-11.7 3.08-11.7c11 .78 14.41-.44 20.9-9.17 5.12 10.09 11.15 4.34 15.35-1.46 5.47 12.05 15.76 1.79 19.78-2.77 2.12 11.51 12.33 1.34 14.53-1.92-3.54 14.59 9.17 4.23 11.76 1.43 3.83 13.07 10.9 1.29 15.57-3.22 1.78-1 7.66 0 4.6 10.89s-25.15 12-30.7 12.04c-18.51-2.45-69.55-1.48-86.14 18.63 23.59.87 25.35 5.29 25.35 5.29 34-20.06 42.08-9.46 75.36-17.93 16.96-6.51 25.43-25.82 14.05-31.9zm-7.92-14.56c1.95 2.26-4.33 11.65-5.38 11.51s3.33-13.87 5.38-11.51zm-114 36.45c-3.43-4.26 6.47-12.4 6.47-12.4s-1.51 5.61.66 9.13c0 0-3.7 7.53-7.13 3.27zm24.59-7.57s2.56-8.24 8.62-9.55c4.4-1-3.66 10.19-3.66 10.19zm62.78-9.24c-8.16 6.71-9.5-3.78 6.76-8.65 0-.04.06 3.21-6.76 8.65z" fill="#328d57"/><path d="M264.84 218.49c2.65 1.34 5-3.45 2.32-4.71s-5.05 3.45-2.32 4.71z" fill="#328d57"/><path fill="#fff" stroke="#fff" stroke-linecap="round" stroke-linejoin="round" stroke-width=".83" d="M238.56 262.25l9.87.96-8.33 5.18 3.7-9.34 2.52 9.39-7.76-6.19z"/><path fill="#fff" stroke="#fff" stroke-linecap="round" stroke-linejoin="round" stroke-width=".52" d="M252.59 258.33l6.17.6-5.2 3.23 2.31-5.83 1.57 5.86-4.85-3.86z"/></svg>