<svg xmlns="http://www.w3.org/2000/svg" width="500" height="550" viewBox="0 0 500 550"><defs><pattern id="a" width="20.13" height="16.91" patternTransform="matrix(1.77 0 0 1.77 -7.91 -.07)" patternUnits="userSpaceOnUse" viewBox="0 0 20.13 16.91"><path fill="none" d="M0 0h20.13v16.91H0z"/><path fill="#444341" d="M0 12.68h20.13v8.46H0z"/><path fill="none" stroke="#6d6b69" stroke-linejoin="round" d="M0 13.71h5.05m3.41 0h11.67M1.52 15.73h10.22m4.7 0h2.89m-6.76 1.18h2.89M6.38 14.7h1.23"/><path fill="#444341" d="M0 4.23h20.13v8.46H0z"/><path fill="none" stroke="#6d6b69" stroke-linejoin="round" d="M0 5.25h5.05m3.41 0h11.67M1.52 7.27h10.22m4.7 0h2.89m-6.76 1.18h2.89m.98 1.06h2.89M6.38 6.25h1.23m-3.38 4.22h1.23m6.98 1.68h1.23M1.8 11.43h10.1M6.7 9.51h7.15m1.29 1.92h4.99M0 9.51h3.15"/><path fill="#444341" d="M0-4.23h20.13v8.46H0z"/><path fill="none" stroke="#6d6b69" stroke-linejoin="round" d="M12.57 0h2.89m.98 1.06h2.89m-15.1.95h1.23m6.98 1.68h1.23M1.8 2.98h10.1M6.7 1.06h7.15m1.29 1.92h4.99M0 1.06h3.15"/></pattern></defs><path d="M203.52 97.3c8.68 9.61 67.43 10.58 79.89 10.78 13 .21 32.67-43.61 34.06-50 .1-.45.18-.91.28-1.37-8.86-2.46-17.68-5-26.27-8.07-3.67-1.54-5 3.72-7.87 5-17.36 10.41-39.46 7.29-58.61 4.86-7.1-1.26-13.56-4.12-18.56-9.67a3.16 3.16 0 00-2.72-.43c-5.64 2-11.36 3.9-17.1 5.68.76 3.28 11.49 37.21 16.9 43.22z" fill="#262521"/><path d="M372.14 291.55q-.27 61.74-.62 123.47c-.81 9-2.68 16.41-3.55 25.44-1 10.07 1.34 17.05-1.5 25.63-.59 1.77-2 1.67-3.35 1.44-44.59-7.74-101.66-5.72-146.65-2.92-24.6.57-58.62-1.68-83 2.09-5.23.59-5.68.27-6.62-4.83-1.35-11.26 1.94-18.53.53-29.31-6.15-46.82-1.39-94.37-3.6-141.53-1.42 2.83-2.94 5.6-4.29 8.46-2.37 10.67-17.5 9.3-11.81 16.18 11.11 7.95 6.41 21.38 5.15 32.56-.25 3.15-1.35 6.27-.37 9.58.51 8.44-3.19 16.94-4.38 25.31-1.5 8-10.42 41.28-11.86 49.29-.57 3.18-.61 3-3.74 2-12.38-3.52-26.09-4.38-38.6-1.18-1.39.34-2.11 0-2.41-1.47-2-7.76.82-16.67-5.49-22.43a6.62 6.62 0 01-1.33-3.22c-2.23-11-6.07-22.12-5.72-33.3-1.91-63 2.6-126.93 26.19-186 13.61-35.43 24.56-73.32 48.07-103.67 27.32-18.2 60-23.76 90.46-34.78.8-.26 4.93 46.66 41.09 46.66 46.16 0 44-48.47 47.71-46.93 29.12 10.49 60 14.91 86.44 32.08 15.94 14.59 21.63 38 30.45 57.21 27.81 67.48 58 137.39 51.05 212.08-1.19 18.65-.23 37.45-3.28 55.95-.49 4.66-5.21 7.1-5.56 11.78-1.22 5.28-2.08 10.65-2.91 16-.4 2.6-.41 2.83-3.08 2.33-12.48-2.66-25.26-5.49-37.8-1.58-8.34-.15-8.13-15.56-11.44-21.4-6.28-7.37-3.61-9-5.33-17.64-.9-9.7-4.68-20.27.79-29.26 2-3.53 1.86-7.05.51-10.66-4.9-11.28-7.4-23.41-10.45-35.29-1.07-4.3-1.31-8.49 1.61-12.34 1.51-7.23-10.43-8.68-10.93-15.93z" fill="url(#a)"/><path d="M372.14 291.55q-.27 61.74-.62 123.47c-.81 9-2.68 16.41-3.55 25.44-1 10.07 1.34 17.05-1.5 25.63-.59 1.77-2 1.67-3.35 1.44-44.59-7.74-101.66-5.72-146.65-2.92-24.6.57-58.62-1.68-83 2.09-5.23.59-5.68.27-6.62-4.83-1.35-11.26 1.94-18.53.53-29.31-6.15-46.82-1.39-94.37-3.6-141.53-1.42 2.83-2.94 5.6-4.29 8.46-2.37 10.67-17.5 9.3-11.81 16.18 11.11 7.95 6.41 21.38 5.15 32.56-.25 3.15-1.35 6.27-.37 9.58.51 8.44-3.19 16.94-4.38 25.31-1.5 8-10.42 41.28-11.86 49.29-.57 3.18-.61 3-3.74 2-12.38-3.52-26.09-4.38-38.6-1.18-1.39.34-2.11 0-2.41-1.47-2-7.76.82-16.67-5.49-22.43a6.62 6.62 0 01-1.33-3.22c-2.23-11-6.07-22.12-5.72-33.3-1.91-63 2.6-126.93 26.19-186 13.61-35.43 24.56-73.32 48.07-103.67 27.32-18.2 60-23.76 90.46-34.78a3.16 3.16 0 012.72.43c5 5.55 11.46 8.41 18.56 9.67 19.19 2.43 41.29 5.55 58.65-4.88 2.85-1.27 4.2-6.53 7.87-5 29.12 10.49 61 14.41 87.44 31.58 15.94 14.59 21.63 38 30.45 57.21 27.81 67.48 58 137.39 51.05 212.08-1.19 18.65-.23 37.45-3.28 55.95-.49 4.66-5.21 7.1-5.56 11.78-1.22 5.28-2.08 10.65-2.91 16-.4 2.6-.41 2.83-3.08 2.33-12.48-2.66-25.26-5.49-37.8-1.58-8.34-.15-8.13-15.56-11.44-21.4-6.28-7.37-3.61-9-5.33-17.64-.9-9.7-4.68-20.27.79-29.26 2-3.53 1.86-7.05.51-10.66-4.9-11.28-7.4-23.41-10.45-35.29-1.07-4.3-1.31-8.49 1.61-12.34 1.51-7.23-10.43-8.68-10.93-15.93z" fill="none" stroke="#262521" stroke-linecap="round" stroke-linejoin="round" stroke-width="3"/><path d="M204.41 48.28s4 48.55 43.68 46.73 42.84-45.41 42.84-45.41" fill="none" stroke="#636363" stroke-linecap="round" stroke-linejoin="round"/><path d="M121.8 180.85s2.11 28.61 0 44.24.11 29.7.11 32.88 1.9 33.06 1.9 33.06m247.52-102.37s5.79 47.28 0 75.34" fill="none" stroke="#262521" stroke-linecap="round" stroke-linejoin="round" stroke-width="3"/><path fill="none" stroke="#262521" stroke-linecap="round" stroke-linejoin="round" stroke-width="2" d="M294.06 64.56l6.49 1.69m-4.39-10.14l6.78 1.77m-54.77 40.57v6.73m9.62-7.46l.34 6.71m8.17-9.4l1.2 7.07m5.91-10.9l2.66 6.95m4.02-11.98l4.08 6m1.5-12.31l5.67 4.3m-1.45-11.44l6.63 2.88m-94.24-11.04l-5.68 1.48m3.58-9.93l-5.9 1.54m44.27 40.07l-.35 6.71m-8.16-9.4l-1.18 6.98m-5.93-10.81l-2.5 6.52m-4.19-11.55l-3.87 5.7m-1.7-12.01l-5.23 3.97m1.01-11.11l-6.04 2.62M73.89 403.5v20.47m-9.65-20.45l.99 20.43m19.15-20.42l-1.48 20.41m11.59-18.25l-4.14 20.04m-35-20.83l2.04 20.36m367.43-22.88v20.46m-10.11-20.41l1.9 20.37m18.69-20.39l-1.48 20.41m11.59-18.25l-4.14 20.04m-36.39-20.7l3.82 20.1m-161.39 9.03v26.73m11.06-26.73v26.21m11.06-26.21v26.23m11.06-26.23v26.21m11.07-26.71v26.73m11.06-26.73v26.23m11.55-26.23l.56 26.71m10.01-26.21v26.73m-153.87-26.73v27.46M192 433.04v27.68m-10.84-27.68v27.52m21.9-26.52v27.18m-66.95-26.17l1.5 26.82m9.44-28.31l.7 27.16m11.56-27.68v27.68m54.81-26.68v26.68m11.06-26.68v25.68m11.06-26.68v26.73m99.93-25.72l-1.05 26.45m12.36-25.44l-1.85 26.16m12.71-25.17l-1.08 26.66"/><path d="M299 46.09a17.16 17.16 0 00.94 4.86 1.16 1.16 0 001.38.79 1.14 1.14 0 00.79-1.39 16.81 16.81 0 01-.61-2.21c0-.18-.07-.36-.1-.55a2 2 0 010-.26v-.08c0-.3-.08-.78-.1-1.16a1.13 1.13 0 10-2.25 0zm7.59 6.52c.65-1.21 1.34-2.39 2.08-3.54a1.13 1.13 0 10-1.94-1.14c-.74 1.15-1.43 2.33-2.08 3.54a1.13 1.13 0 001.94 1.14zm3.54-2.05a4.62 4.62 0 00.08 2.42 1.24 1.24 0 00.52.67 1.15 1.15 0 00.87.11 1.16 1.16 0 00.67-.52 1.08 1.08 0 00.11-.86 4.61 4.61 0 01-.14-.62v.3a3.47 3.47 0 010-.91v.3c0-.1 0-.2.05-.29a1.14 1.14 0 00-.11-.87 1.11 1.11 0 00-1.54-.4 1.08 1.08 0 00-.51.67zm5.58 5.44l1.37-.91a.86.86 0 00.31-.29.82.82 0 00.2-.38.77.77 0 000-.45.8.8 0 00-.13-.42 1.13 1.13 0 00-.67-.52 1.15 1.15 0 00-.87.12l-1.37.91a1.28 1.28 0 00-.51.67.77.77 0 000 .45.8.8 0 00.13.42 1.13 1.13 0 00.67.51 1.1 1.1 0 00.87-.11zm4.44-4v3.87a1.13 1.13 0 002.25 0V52a1.13 1.13 0 00-1.12-1.13 1.16 1.16 0 00-1.13 1.13zm3.79 5.64a4 4 0 00.91.07 4.57 4.57 0 00.9-.15 4 4 0 001.56-.89 1.12 1.12 0 000-1.59 1.11 1.11 0 00-.8-.33 1.19 1.19 0 00-.79.33l-.17.14.23-.18a2.57 2.57 0 01-.62.36l.27-.11a3.46 3.46 0 01-.7.19h.3a2.89 2.89 0 01-.72 0h.3-.07a1 1 0 00-.45 0 .91.91 0 00-.42.14 1.14 1.14 0 00-.4 1.54 1.07 1.07 0 00.67.51zm4.64-1.99v2.28a1.16 1.16 0 00.33.79 1.11 1.11 0 00.8.33 1.13 1.13 0 001.12-1.12v-2.28a1.11 1.11 0 00-.33-.79 1.07 1.07 0 00-.79-.33 1.14 1.14 0 00-1.13 1.12zm3.42 2.08l-.12 2.18a1.12 1.12 0 001.92.8 1.25 1.25 0 00.33-.8l.12-2.18a1.18 1.18 0 00-.33-.8 1.2 1.2 0 00-.8-.33 1.11 1.11 0 00-.79.33 1.2 1.2 0 00-.33.8zm7.89 4.65a10 10 0 01.87-.74l-.23.17.39-.29a.89.89 0 00.32-.29.87.87 0 00.2-.38 1 1 0 000-.45.81.81 0 00-.14-.42 1.08 1.08 0 00-.67-.51h-.3a1.16 1.16 0 00-.57.15 15.51 15.51 0 00-1.48 1.2.85.85 0 00-.23.37.88.88 0 00-.1.43.91.91 0 00.1.43.85.85 0 00.23.37 1.14 1.14 0 00.8.32h.3a1.14 1.14 0 00.49-.28z" fill="#565656"/><path d="M340.88 59.7v3.23a1.13 1.13 0 002.25 0V59.7a1.13 1.13 0 00-2.25 0zm6.66 3.3v2.5a1.11 1.11 0 00.33.79 1.07 1.07 0 00.79.33 1.14 1.14 0 00.8-.33 1.17 1.17 0 00.33-.79V63a1.16 1.16 0 00-.33-.79 1.12 1.12 0 00-1.59 0 1.17 1.17 0 00-.33.79zm4.12-.59v.2-.3a2.88 2.88 0 01-.2.65l.12-.27a6.78 6.78 0 00-.95 2.63 1.14 1.14 0 001.12 1.13 1.16 1.16 0 001.13-1.13v-.2.3a2.88 2.88 0 01.2-.65L353 65a6.84 6.84 0 001-2.63 1.14 1.14 0 00-1.13-1.13 1.15 1.15 0 00-1.12 1.13zm4.34 4.37V69a1.13 1.13 0 001.12 1.13 1.2 1.2 0 00.8-.33 1.18 1.18 0 00.33-.8v-2.22a1.13 1.13 0 00-1.13-1.13 1.11 1.11 0 00-.79.33 1.14 1.14 0 00-.33.8zm6.36 3.92a15.09 15.09 0 012.17-2.06l-.23.18.33-.24a1.21 1.21 0 00.51-.68 1.12 1.12 0 00-.14-.9 1.19 1.19 0 00-.67-.52 1.14 1.14 0 00-.87.11 16.39 16.39 0 00-2.72 2.48 1.22 1.22 0 00-.33.79 1.18 1.18 0 00.33.8 1.2 1.2 0 00.8.33 1.16 1.16 0 00.79-.33z" fill="#565656"/><path d="M364.7 68.34V72a1.13 1.13 0 002.3 0v-3.66a1.14 1.14 0 00-1.12-1.13 1.16 1.16 0 00-1.13 1.13zm4.2 2.34l-.63.72a.77.77 0 00-.23.36.84.84 0 00-.1.44.8.8 0 00.1.43.77.77 0 00.23.36l.23.18a1.1 1.1 0 00.57.15h.29a1.05 1.05 0 00.5-.29l.63-.72a.88.88 0 00.24-.36.83.83 0 00.09-.44.82.82 0 00-.09-.43.88.88 0 00-.24-.36l-.22-.18a1.16 1.16 0 00-.57-.15h-.3a1.1 1.1 0 00-.5.29zm9.35 4.66a7.1 7.1 0 01-1.25 1.22l.23-.18a7 7 0 01-.85.57 1.13 1.13 0 00-.52.67 1.15 1.15 0 00.12.87 1.08 1.08 0 00.67.51 1.17 1.17 0 00.86-.11 8 8 0 002.31-2 .85.85 0 00.23-.37.88.88 0 00.1-.43 1.18 1.18 0 00-.33-.8A1.14 1.14 0 00379 75a1.09 1.09 0 00-.79.32zm-5.33-4.82v5.83a1.13 1.13 0 002.25 0v-5.83a1.12 1.12 0 00-1.12-1.12 1.14 1.14 0 00-1.13 1.12zm7.29 7.91v3.85a1.12 1.12 0 001.12 1.12 1.14 1.14 0 001.13-1.12v-3.85a1.13 1.13 0 10-2.25 0zm4.35 7.68h2.6a1.17 1.17 0 00.79-.33 1.15 1.15 0 00.33-.8 1.14 1.14 0 00-1.12-1.12h-2.6a1.14 1.14 0 00-.8.33 1.12 1.12 0 00.8 1.92zm3.01 4.89h3.33a1.13 1.13 0 100-2.25h-3.33a1.12 1.12 0 00-1.12 1.12 1.14 1.14 0 001.12 1.13zm2.81 4.68h3.54a1.13 1.13 0 000-2.25h-3.54a1.13 1.13 0 000 2.25zm4.48 6.64l1.66.11a.8.8 0 00.43-.09 1 1 0 00.37-.24 1.16 1.16 0 00.33-.79 1.2 1.2 0 00-.33-.8l-.23-.17a1.17 1.17 0 00-.57-.16l-1.66-.11a.83.83 0 00-.44.09.88.88 0 00-.36.24 1.12 1.12 0 000 1.59l.23.17a1.22 1.22 0 00.57.16zm.72 2.4a12.69 12.69 0 003.75.85 1.11 1.11 0 00.79-.33 1.07 1.07 0 00.33-.79 1.14 1.14 0 00-.33-.8 1.28 1.28 0 00-.79-.33l-.64-.07h.29a11.81 11.81 0 01-2.8-.74 1.12 1.12 0 00-.86.11 1.13 1.13 0 00-.41 1.54 1.38 1.38 0 00.67.52zm2.21 4.28q1.62.27 3.21.66a1.13 1.13 0 10.6-2.17c-1.06-.26-2.14-.48-3.22-.66a1.18 1.18 0 00-.86.12 1.09 1.09 0 00-.52.67 1.15 1.15 0 00.11.87 1.06 1.06 0 00.68.51zm4.45 5.55l-.11.27a5.09 5.09 0 01.64-1.11l-.17.23a5.17 5.17 0 01.9-.91l-.22.18a5.5 5.5 0 01.56-.38 1.2 1.2 0 00.52-.67 1.13 1.13 0 00-1.65-1.27 5.78 5.78 0 00-1.51 1.23 6.69 6.69 0 00-.65.86 6.28 6.28 0 00-.49 1 1.11 1.11 0 00.11.87 1.18 1.18 0 00.67.51 1.15 1.15 0 00.87-.11l.29-.25a1.16 1.16 0 00.29-.49zm.54 6.19h2.56a1.13 1.13 0 100-2.25h-2.56a1.16 1.16 0 00-.79.33 1.11 1.11 0 00-.33.8 1.13 1.13 0 001.12 1.12zm1.42 5.26l.86.57a.81.81 0 00.42.14.94.94 0 00.44 0 .91.91 0 00.39-.2.89.89 0 00.29-.32l.11-.27a1.22 1.22 0 000-.6l-.11-.27a1.21 1.21 0 00-.41-.4l-.85-.57a.9.9 0 00-.42-.13.77.77 0 00-.45 0 1.24 1.24 0 00-.67.52l-.11.26a1 1 0 000 .6l.11.27a1.1 1.1 0 00.4.4zm2.8 4.62l2.85.53a1.2 1.2 0 00.87-.11 1.17 1.17 0 00.51-.68 1.12 1.12 0 00-.78-1.38l-2.85-.53a1.24 1.24 0 00-.87.12 1.13 1.13 0 00-.52.67 1.15 1.15 0 00.12.87 1.08 1.08 0 00.67.51zm2.07 2.72l1.69.88a1.2 1.2 0 00.87.11 1.12 1.12 0 00.67-.52 1.08 1.08 0 00.11-.86 1.11 1.11 0 00-.52-.68l-1.69-.88a1.22 1.22 0 00-.86-.11 1.12 1.12 0 00-.79 1.38 1.15 1.15 0 00.52.68zm.57 6.44l2.28 2.55a1.12 1.12 0 001.59 0 1.11 1.11 0 00.33-.79 1.2 1.2 0 00-.33-.8l-2.28-2.55a1.11 1.11 0 00-.79-.33 1.14 1.14 0 00-.8.33 1.11 1.11 0 00-.33.79 1.33 1.33 0 00.33.8zm4.49 6.59l2.3.47a1.18 1.18 0 00.86-.12 1.09 1.09 0 00.52-.67 1.16 1.16 0 00-.11-.86 1.14 1.14 0 00-.68-.52l-2.29-.47a1.25 1.25 0 00-.87.11 1.19 1.19 0 00-.52.67 1.15 1.15 0 00.12.87 1.09 1.09 0 00.67.52zm1.73 6.51h4a1.13 1.13 0 001.12-1.12 1.15 1.15 0 00-1.12-1.13h-4a1.13 1.13 0 000 2.25zm-.56-2.88h1.7a1.2 1.2 0 00.8-.33 1.12 1.12 0 000-1.59 1.18 1.18 0 00-.8-.33h-1.7a1.18 1.18 0 00-.8.33 1.12 1.12 0 000 1.59 1.18 1.18 0 00.8.33zm2.25 6.18l2.6 1.36a1.17 1.17 0 00.86.11 1.14 1.14 0 00.68-.52 1.13 1.13 0 00-.41-1.54l-2.59-1.35a1.2 1.2 0 00-.87-.12 1.16 1.16 0 00-.67.52 1.14 1.14 0 00.4 1.54zm2.56 6.82l4 2a1.12 1.12 0 101.13-1.94l-4-2a1.12 1.12 0 00-1.13 1.94zm5.13 7v-.57a.91.91 0 00-.1-.43 1 1 0 00-.59-.59.75.75 0 00-.44-.1h-.3a1.07 1.07 0 00-.49.29l-.18.23a1.09 1.09 0 00-.15.56v.61a.83.83 0 00.09.44.88.88 0 00.24.36.86.86 0 00.36.23.91.91 0 00.43.1h.3a1.2 1.2 0 00.5-.29l.17-.23a1 1 0 00.16-.57zm.03 5.35a3 3 0 00.82-.29 3.24 3.24 0 00.71-.5 3.86 3.86 0 00.55-.66 3.09 3.09 0 00.36-.81 1.2 1.2 0 00-.11-.87 1.17 1.17 0 00-.68-.51 1.12 1.12 0 00-.86.11 1.16 1.16 0 00-.52.67 2.09 2.09 0 01-.08.23l.11-.27a2.51 2.51 0 01-.26.45l.17-.23a1.9 1.9 0 01-.4.4l.23-.17a2.2 2.2 0 01-.47.27l.27-.11a1.69 1.69 0 01-.44.12 1 1 0 00-.38.21.86.86 0 00-.29.31.8.8 0 00-.13.42.77.77 0 000 .45 1.14 1.14 0 00.51.67l.27.11a1 1 0 00.6 0zm1.73 3.99h3.41a1.13 1.13 0 000-2.25H427a1.13 1.13 0 00-1.13 1.12 1.16 1.16 0 001.13 1.13zm1.41 3.66l1.74 1.38a1 1 0 00.37.23.88.88 0 00.43.1 1.16 1.16 0 00.79-.33 1.11 1.11 0 00.33-.8v-.3a1.07 1.07 0 00-.29-.49l-1.78-1.36a.77.77 0 00-.36-.23 1 1 0 00-.44-.1 1.13 1.13 0 00-.79.33 1.15 1.15 0 00-.33.8v.3a1.07 1.07 0 00.29.49zm1.16 5.11l2.56 2.27a1.2 1.2 0 00.8.33 1.1 1.1 0 00.79-.33 1.07 1.07 0 00.33-.79 1.09 1.09 0 00-.33-.8l-2.55-2.27a1.2 1.2 0 00-.8-.33 1.14 1.14 0 00-.8.33 1.16 1.16 0 00-.33.79 1.18 1.18 0 00.33.8zm5.64 8.72l1.14-.57a.86.86 0 00.31-.29 1 1 0 00.21-.38 1 1 0 000-.45.91.91 0 00-.14-.42l-.17-.23a1.2 1.2 0 00-.5-.29h-.3a1.17 1.17 0 00-.57.16l-1.13.57a.89.89 0 00-.32.29.82.82 0 00-.2.38.86.86 0 000 .45.9.9 0 00.13.42l.18.23a1.14 1.14 0 00.5.29h.29a1.11 1.11 0 00.57-.16zm.85 7.82h1.42a1.2 1.2 0 00.8-.33.86.86 0 00.23-.36 1 1 0 00.1-.44 1.16 1.16 0 00-.33-.79 1.18 1.18 0 00-.8-.33h-1.42a1.15 1.15 0 00-.8.33.86.86 0 00-.23.36.91.91 0 00-.1.43 1.16 1.16 0 00.33.8 1.18 1.18 0 00.8.33zm1.42 5.12a5 5 0 01.95 0h-.3a4.42 4.42 0 011.17.32l-.3-.09.44.22a1.11 1.11 0 001.54-.4 1.14 1.14 0 00-.4-1.54 5.61 5.61 0 00-3.13-.72 1.2 1.2 0 00-.8.33 1.14 1.14 0 00-.32.8 1.1 1.1 0 00.32.79 1.15 1.15 0 00.8.33zm-1.14-9.18a4.46 4.46 0 011-.27h-.3a3.87 3.87 0 011 0h-.3.24a1.25 1.25 0 00.87-.12 1.17 1.17 0 00.52-.67 1.15 1.15 0 00-.12-.87 1.11 1.11 0 00-.67-.51 5.1 5.1 0 00-2.89.23 1 1 0 00-.38.21.79.79 0 00-.29.31 1.15 1.15 0 00-.11.87 1.16 1.16 0 00.52.67 1 1 0 00.86.11zm4.84 15.72h2.56a1.16 1.16 0 00.79-.33 1.07 1.07 0 00.33-.79 1.14 1.14 0 00-1.12-1.13h-2.56a1.13 1.13 0 00-1.13 1.13 1.15 1.15 0 001.13 1.12zm1.7 5.12h.29a.8.8 0 00.43-.1.77.77 0 00.36-.23.88.88 0 00.24-.36.82.82 0 00.09-.43v-.3a1.1 1.1 0 00-.29-.5l-.22-.18a1.16 1.16 0 00-.57-.15h-.29a.8.8 0 00-.43.1 1 1 0 00-.59.59.84.84 0 00-.1.44v.29a1.1 1.1 0 00.29.5l.23.18a1.09 1.09 0 00.56.15zm.29 5.69h1.42a1.2 1.2 0 00.8-.33.86.86 0 00.23-.36 1 1 0 00.1-.44 1.16 1.16 0 00-.33-.79 1.18 1.18 0 00-.8-.33h-1.42a1.15 1.15 0 00-.8.33.86.86 0 00-.23.36.91.91 0 00-.1.43 1.13 1.13 0 001.13 1.13zm1.69 5.94l2.27.32a.86.86 0 00.45 0 .9.9 0 00.42-.13 1.17 1.17 0 00.51-.68 1.12 1.12 0 00-.78-1.38l-2.27-.32a.86.86 0 00-.45 0 .9.9 0 00-.42.13 1.18 1.18 0 00-.52.68 1.13 1.13 0 00.12.86 1.06 1.06 0 00.67.52zm2.51 4.84l2.22 2.89a1.22 1.22 0 00.67.51 1.15 1.15 0 00.87-.11 1.19 1.19 0 00.52-.67 1.1 1.1 0 00-.12-.87l-2.22-2.89a1.25 1.25 0 00-.67-.52 1.15 1.15 0 00-.87.12 1.08 1.08 0 00-.51.67 1.07 1.07 0 00.11.87zm2.34 8.27h1.71a1.12 1.12 0 00.79-1.92 1.17 1.17 0 00-.79-.33h-1.71a1.2 1.2 0 00-.8.33 1.16 1.16 0 000 1.6 1.21 1.21 0 00.8.32zm.85 5.12h.86a.8.8 0 00.43-.09 1.1 1.1 0 00.6-.6.8.8 0 00.09-.43v-.3a1.1 1.1 0 00-.29-.5l-.23-.17a1.21 1.21 0 00-.56-.16h-.86a.91.91 0 00-.43.1 1 1 0 00-.59.6.78.78 0 00-.1.43v.3a1.07 1.07 0 00.29.49l.23.18a1.09 1.09 0 00.56.15zm.86 2.56H454a1.13 1.13 0 001.12-1.12 1.15 1.15 0 00-1.12-1.13h-2.56a1.13 1.13 0 00-1.13 1.13 1.15 1.15 0 001.13 1.12zm.13 2.73l3.94 4a1.14 1.14 0 001.59 0 1.16 1.16 0 000-1.6l-3.94-4a1.12 1.12 0 00-1.59 1.59zm4.45 10.04h-.3a3.14 3.14 0 01.75 0h-.3a2.6 2.6 0 01.71.2l-.27-.12.19.09a1.13 1.13 0 001.66-1.27 1.13 1.13 0 00-.52-.67 3.73 3.73 0 00-1.12-.39 4.17 4.17 0 00-.71-.07 3.64 3.64 0 00-.74.07.81.81 0 00-.39.2.89.89 0 00-.29.32 1.12 1.12 0 00-.11.86 1.15 1.15 0 00.52.68l.27.11a1.18 1.18 0 00.59 0zm.25 5.44h.86a.94.94 0 00.43-.1 1 1 0 00.59-.59.84.84 0 00.1-.44v-.3a1.07 1.07 0 00-.29-.49l-.23-.18a1.09 1.09 0 00-.56-.15h-.86a.8.8 0 00-.43.09 1.1 1.1 0 00-.6.6.8.8 0 00-.09.43v.3a1.1 1.1 0 00.29.5l.22.17a1.07 1.07 0 00.57.16zm.06 3.37l2 2.27a1.13 1.13 0 001.92-.79 1.2 1.2 0 00-.33-.8l-2-2.28a1.12 1.12 0 00-1.59 0 1.15 1.15 0 00-.33.8 1.27 1.27 0 00.33.8zm2.53 11.13a2.7 2.7 0 01.41-.08h-.3a3.62 3.62 0 01.93 0h-.3a3.52 3.52 0 01.9.24l-.27-.11a3.69 3.69 0 01.62.33 1.13 1.13 0 00.86.12 1.12 1.12 0 00.79-1.39 1.19 1.19 0 00-.48-.67 4.61 4.61 0 00-3.72-.61 1.13 1.13 0 10.6 2.17zm-1.11 2.23l2 1.71a1.2 1.2 0 00.8.33 1.13 1.13 0 00.79-.33 1.09 1.09 0 00.33-.8 1.07 1.07 0 00-.33-.79l-2-1.71a1.22 1.22 0 00-.79-.33 1.18 1.18 0 00-.8.33 1.2 1.2 0 00-.33.8 1.16 1.16 0 00.33.79zm2.79 7.73h1.42a1.2 1.2 0 00.8-.33.86.86 0 00.23-.36 1 1 0 00.1-.44 1.16 1.16 0 00-.33-.79 1.18 1.18 0 00-.8-.33h-1.42a1.15 1.15 0 00-.8.33.86.86 0 00-.23.36.91.91 0 00-.1.43 1.13 1.13 0 001.13 1.13zm-.84 5.79a6.85 6.85 0 011.25.74l-.23-.17a6.3 6.3 0 011 1 1.12 1.12 0 001.59 0 1.11 1.11 0 00.33-.79v-.3a1.2 1.2 0 00-.29-.5 6.88 6.88 0 00-1.24-1.17 5.8 5.8 0 00-1.25-.74.9.9 0 00-.42-.13.77.77 0 00-.45 0 1.12 1.12 0 00-.78 1.38 1 1 0 00.52.67zm.75 4.98l2.95 2.14a1.12 1.12 0 00.86.11 1.17 1.17 0 00.68-.51 1.2 1.2 0 00.11-.87 1.32 1.32 0 00-.52-.67l-2.94-2.14a1.15 1.15 0 00-.87-.11 1.14 1.14 0 00-.79 1.38 1.28 1.28 0 00.52.67zm1.8 7.71h2.55a1.18 1.18 0 00.8-.33 1.15 1.15 0 00.33-.8 1.14 1.14 0 00-1.13-1.12h-2.55a1.17 1.17 0 00-.8.32 1.13 1.13 0 00.8 1.93zm0 4h2.27a1.13 1.13 0 001.13-1.13 1.15 1.15 0 00-1.13-1.12h-2.27a1.14 1.14 0 00-.8.33 1.11 1.11 0 00-.33.79 1.15 1.15 0 001.13 1.13zm-1.42 4.86l.35 2.26a1.09 1.09 0 00.52.67 1.2 1.2 0 00.87.12 1.16 1.16 0 00.67-.52l.11-.27a1 1 0 000-.6l-.35-2.26a1.09 1.09 0 00-.52-.67 1.2 1.2 0 00-.87-.12 1.16 1.16 0 00-.67.52l-.11.27a1 1 0 000 .6zm.86 6.9l2.6 1.93a1.11 1.11 0 00.87.12 1.14 1.14 0 00.79-1.39l-.12-.27a1.18 1.18 0 00-.4-.4l-2.6-1.93a1.11 1.11 0 00-.87-.12 1.16 1.16 0 00-.67.52 1.11 1.11 0 00-.11.87l.11.26a1.12 1.12 0 00.4.41zm-.19 5.34l.59.84a.89.89 0 00.29.32.82.82 0 00.38.2.86.86 0 00.45 0 .9.9 0 00.42-.13l.23-.18a1.14 1.14 0 00.29-.5v-.29a1.11 1.11 0 00-.16-.57l-.58-.84a1.24 1.24 0 00-.67-.52.77.77 0 00-.45 0 .9.9 0 00-.42.13l-.23.18a1.07 1.07 0 00-.29.49v.3a1.1 1.1 0 00.15.57zm-.96 6.79l1.84 1.85a1.15 1.15 0 00.8.33 1.13 1.13 0 00.79-.33 1.07 1.07 0 00.33-.79 1.15 1.15 0 00-.33-.8l-1.84-1.85a1.2 1.2 0 00-.8-.33 1.13 1.13 0 00-.79.33 1.12 1.12 0 000 1.59zm-1.08 6.2l1.42 1.42a1.14 1.14 0 00.8.33.8.8 0 00.43-.09.88.88 0 00.36-.24 1.11 1.11 0 00.33-.79 1.15 1.15 0 00-.33-.8L461 347.5a1.18 1.18 0 00-.8-.33.8.8 0 00-.43.1.77.77 0 00-.36.23 1.12 1.12 0 000 1.59zm1.67 7.74l1.43-.28a.93.93 0 00.38-.2 1 1 0 00.42-.74.74.74 0 000-.44 1.15 1.15 0 00-.52-.68l-.26-.11a1.22 1.22 0 00-.6 0l-1.42.28a.92.92 0 00-.39.21.79.79 0 00-.29.31.9.9 0 00-.13.42.86.86 0 000 .45 1.16 1.16 0 00.52.67l.27.11a1 1 0 00.59 0zm-.31 5.11h1.71a1.16 1.16 0 00.79-.33 1.13 1.13 0 000-1.6 1.16 1.16 0 00-.79-.32h-1.71a1.12 1.12 0 00-.79 1.92 1.17 1.17 0 00.79.33zm.29 5.4h2.27a1.13 1.13 0 001.13-1.13 1.15 1.15 0 00-1.13-1.12h-2.27a1.13 1.13 0 100 2.25zm-.57-2.85h.57a.8.8 0 00.43-.09.86.86 0 00.36-.23 1 1 0 00.24-.37.8.8 0 00.09-.43v-.3a1.1 1.1 0 00-.29-.5l-.22-.17a1.29 1.29 0 00-.57-.16h-.57a.88.88 0 00-.43.1.89.89 0 00-.37.23 1 1 0 00-.23.37.88.88 0 00-.1.43v.3a1.26 1.26 0 00.29.5l.23.17a1.16 1.16 0 00.57.15zm-.85 6.61a1.46 1.46 0 01.29 0l-.3-.05a2.11 2.11 0 01.49.14l-.27-.11a2 2 0 01.47.27l-.22-.17a2.28 2.28 0 01.38.38l-.17-.22a2.43 2.43 0 01.28.47l-.12-.27a1.81 1.81 0 01.13.47v-.3.17a1.15 1.15 0 00.33.8 1.1 1.1 0 00.79.32 1.14 1.14 0 00.8-.32 1.2 1.2 0 00.33-.8 3.16 3.16 0 00-1-2.16 3.13 3.13 0 00-2.2-.89 1.18 1.18 0 00-.8.33 1.2 1.2 0 00-.33.8 1.13 1.13 0 001.13 1.12zm.26 5.35l1.42.28a.77.77 0 00.45 0 .83.83 0 00.41-.13 1.24 1.24 0 00.52-.67 1.14 1.14 0 00-.11-.87 1.12 1.12 0 00-.67-.52l-1.43-.28a.74.74 0 00-.44 0 .8.8 0 00-.42.13.89.89 0 00-.32.29.87.87 0 00-.2.38 1.15 1.15 0 00.11.87 1.18 1.18 0 00.68.52zM460 381h2a1.13 1.13 0 001.13-1.12 1.13 1.13 0 00-1.13-1.13h-2a1.13 1.13 0 00-1.13 1.13 1.16 1.16 0 00.33.79 1.18 1.18 0 00.8.33zm.25 6.12l1.14-.86a.86.86 0 00.31-.29.82.82 0 00.2-.38.77.77 0 000-.45.8.8 0 00-.13-.42l-.18-.23a1.16 1.16 0 00-.49-.29h-.3a1.11 1.11 0 00-.57.16l-1.13.86a.81.81 0 00-.32.29.78.78 0 00-.2.38.86.86 0 000 .45.9.9 0 00.13.42l.18.22a1.05 1.05 0 00.5.29h.29a1.1 1.1 0 00.57-.15zm-.86 4.63l2.27.27a1.09 1.09 0 00.8-.33 1.12 1.12 0 000-1.59l-.23-.17a1.11 1.11 0 00-.57-.16l-2.27-.27a1.09 1.09 0 00-.8.33 1.16 1.16 0 00-.33.79 1.2 1.2 0 00.33.8l.23.17a1 1 0 00.57.16zm-1.46 2.1l1.19 3.11a1.22 1.22 0 00.51.67 1.15 1.15 0 00.87.11 1.08 1.08 0 00.67-.51 1.11 1.11 0 00.12-.87l-1.19-3.11a1.24 1.24 0 00-.52-.67 1.17 1.17 0 00-.86-.12 1.15 1.15 0 00-.68.52 1.11 1.11 0 00-.11.87zm-.81 6.21v2a1.13 1.13 0 001.12 1.13 1.13 1.13 0 001.13-1.13v-2a1.2 1.2 0 00-.33-.8 1.14 1.14 0 00-.8-.32 1.1 1.1 0 00-.79.32 1.2 1.2 0 00-.33.8zm-.58 8.24h2.84a1.13 1.13 0 100-2.25h-2.84a1.13 1.13 0 00-1.13 1.12 1.16 1.16 0 001.13 1.13zm-3.24 2.85l.85 1.42a1.24 1.24 0 00.67.52 1 1 0 00.45 0 .81.81 0 00.42-.14 1.13 1.13 0 00.52-.67 1.21 1.21 0 00-.12-.87l-.85-1.42a1.18 1.18 0 00-.67-.51.77.77 0 00-.45 0 .8.8 0 00-.42.13 1.13 1.13 0 00-.52.67 1.21 1.21 0 00.12.87zm-1.3 5.92l.57.57a.92.92 0 00.36.23 1 1 0 00.44.1.91.91 0 00.43-.1.86.86 0 00.36-.23l.18-.23a1.16 1.16 0 00.15-.57v-.3a1.07 1.07 0 00-.29-.49l-.57-.57a.88.88 0 00-.36-.24.8.8 0 00-.43-.09.78.78 0 00-.43.09 1 1 0 00-.37.24l-.17.22a1.17 1.17 0 00-.16.57v.3a1.2 1.2 0 00.29.5zm-.87 6.85a1.7 1.7 0 01.39 0h-.29a2.07 2.07 0 01.59.16l-.26-.11a2.17 2.17 0 01.53.31l-.22-.17a2.65 2.65 0 01.41.41l-.17-.23a2.31 2.31 0 01.28.48l-.11-.27v.06a.91.91 0 00.2.39.89.89 0 00.32.29 1.15 1.15 0 00.87.11 1.16 1.16 0 00.67-.52 1.09 1.09 0 00.11-.86 5.1 5.1 0 00-.26-.58 3.75 3.75 0 00-.38-.51 3.44 3.44 0 00-.76-.66 3.38 3.38 0 00-.93-.41 3.11 3.11 0 00-1-.12 1.16 1.16 0 00-.79.33 1.13 1.13 0 00.79 1.92z" fill="#565656"/><path d="M450.29 425.37a6.86 6.86 0 00.72 3.7 1.15 1.15 0 00.68.52 1.13 1.13 0 001.27-1.65c-.06-.12-.12-.24-.17-.36l.12.27a6 6 0 01-.39-1.44v.29a5.91 5.91 0 010-1.33 1.09 1.09 0 00-.33-.79 1.11 1.11 0 00-.79-.33 1.15 1.15 0 00-.8.33 1.34 1.34 0 00-.33.79zm-1.43 7.39l1.16 1.4a.77.77 0 00.36.23 1 1 0 00.44.1.91.91 0 00.43-.1.77.77 0 00.36-.23 1.14 1.14 0 00.33-.8v-.29a1.05 1.05 0 00-.29-.5l-1.16-1.4a.88.88 0 00-.36-.24.82.82 0 00-.43-.09.83.83 0 00-.44.09.88.88 0 00-.36.24 1.11 1.11 0 00-.33.79v.3a1.1 1.1 0 00.29.5zm-49.49-6.88l-1.88 1.06a1 1 0 00-.42.38 1.26 1.26 0 00-.27.51 1.22 1.22 0 000 .6 1.12 1.12 0 00.18.56 1.55 1.55 0 00.9.69 1.59 1.59 0 001.15-.15l1.88-1.06a1 1 0 00.42-.38 1.15 1.15 0 00.27-.51 1.22 1.22 0 000-.6 1.12 1.12 0 00-.18-.56 1.52 1.52 0 00-.9-.69 1.59 1.59 0 00-1.15.15zm-1.08-9.36h-2.06a1.56 1.56 0 00-1.06.44 1.14 1.14 0 00-.31.48 1.15 1.15 0 00-.13.58 1.5 1.5 0 001.5 1.5h2.06a1.56 1.56 0 001.06-.44 1.17 1.17 0 00.31-.48 1.27 1.27 0 00.13-.58 1.54 1.54 0 00-.44-1.06 1.58 1.58 0 00-1.06-.44zm.45 4.57h-5.48a1.5 1.5 0 000 3h5.48a1.5 1.5 0 000-3zm-7.08-13.7a9.63 9.63 0 01-1.06-.08l.4.05a8.47 8.47 0 01-2.15-.59 1.49 1.49 0 00-1.15.15 1.51 1.51 0 00-.54 2.06l.23.3a1.49 1.49 0 00.66.39 9.93 9.93 0 003.61.72 1.56 1.56 0 001.06-.44 1.5 1.5 0 00-1.06-2.56zm-2.58-8.82c-.31-.09-.62-.2-.92-.32l.36.15a8.64 8.64 0 01-1.57-.88 1.16 1.16 0 00-.56-.18 1.12 1.12 0 00-.6 0 1.51 1.51 0 00-.9.69 1.54 1.54 0 00-.15 1.15l.15.36a1.64 1.64 0 00.54.54 9.45 9.45 0 002.85 1.35 1.5 1.5 0 001.85-1 1.54 1.54 0 00-.16-1.15 1.57 1.57 0 00-.89-.69zm.01-8.02a1.87 1.87 0 01-.4-.13l.36.15a2 2 0 01-.47-.27l.3.23a2.28 2.28 0 01-.38-.38l.23.3-.11-.15a1 1 0 00-.38-.42 1.26 1.26 0 00-.51-.27 1.22 1.22 0 00-.6 0 1.12 1.12 0 00-.56.18l-.3.24a1.39 1.39 0 00-.39.66l-.05.4a1.5 1.5 0 00.2.75 4.41 4.41 0 00.5.64l.16.15a5.55 5.55 0 00.46.35 2.71 2.71 0 00.37.21 4.17 4.17 0 00.77.28 1.22 1.22 0 00.6 0 1.09 1.09 0 00.55-.18 1.24 1.24 0 00.43-.39 1 1 0 00.26-.51l.06-.4a1.42 1.42 0 00-.21-.75l-.23-.31a1.57 1.57 0 00-.66-.38zm-.01-11.34a14.73 14.73 0 00-1.92-3.69 1.63 1.63 0 00-.9-.69 1.49 1.49 0 00-1.15.15 1.5 1.5 0 00-.54 2 13.78 13.78 0 011.51 2.67l-.15-.36c.09.22.18.44.26.66a1.64 1.64 0 00.69.9 1.52 1.52 0 001.16.15 1.5 1.5 0 00.89-.69 1.46 1.46 0 00.15-1.15zm.07-12.21a5.5 5.5 0 01-.91 0h.4a4.85 4.85 0 01-1.24-.34l.36.15a3.36 3.36 0 01-.6-.3 1.61 1.61 0 00-1.16-.15 1.59 1.59 0 00-.9.69 1.5 1.5 0 00.54 2.05 6.54 6.54 0 003.51.89 1.61 1.61 0 001.06-.44 1.56 1.56 0 00.44-1.06 1.54 1.54 0 00-.44-1.06 1.47 1.47 0 00-1.06-.44zm2.69-8.49l-2.77 1.78a1.62 1.62 0 00-.69.89 1.5 1.5 0 001.05 1.85 1.52 1.52 0 001.16-.15l2.77-1.78a1.64 1.64 0 00.69-.9 1.53 1.53 0 00-.15-1.15 1.51 1.51 0 00-2.06-.54zm-1.32-6.42h-2.74a1.54 1.54 0 00-1.06.44 1.52 1.52 0 00-.44 1.06 1.46 1.46 0 00.44 1.06 1.54 1.54 0 001.06.44h2.74a1.52 1.52 0 001.06-.44 1.5 1.5 0 00.44-1.06 1.54 1.54 0 00-.44-1.06 1.56 1.56 0 00-1.06-.44zm-2.9-9.62l-2.74-1.37a1.61 1.61 0 00-1.16-.15 1.54 1.54 0 00-.89.69 1.52 1.52 0 00-.16 1.16 1.54 1.54 0 00.69.89l2.75 1.37a1.59 1.59 0 001.15.15 1.51 1.51 0 00.9-.68 1.56 1.56 0 00.15-1.16 1.52 1.52 0 00-.69-.9zm-4.41-12.78a7.39 7.39 0 01-1.88 0l.4.05a8.55 8.55 0 01-.88-.17 1.54 1.54 0 00-1.15.15 1.52 1.52 0 00-.69.9 1.49 1.49 0 00.15 1.15 1.52 1.52 0 00.9.69 8.35 8.35 0 003.15.23 1.25 1.25 0 00.57-.13 1.21 1.21 0 00.49-.31 1.56 1.56 0 00.44-1.06 1.59 1.59 0 00-.44-1.07 1.46 1.46 0 00-1.06-.43zm-1.53-16.46l-1.82-1.16a1 1 0 00-.56-.17 1.11 1.11 0 00-.6 0 1.26 1.26 0 00-.51.27 1.18 1.18 0 00-.38.42 1.47 1.47 0 00-.15 1.16l.15.36a1.45 1.45 0 00.54.53l1.82 1.16a1.09 1.09 0 00.55.18 1.22 1.22 0 00.6 0 1 1 0 00.51-.27 1.13 1.13 0 00.39-.42 1.54 1.54 0 00.15-1.15l-.15-.36a1.55 1.55 0 00-.54-.54zm.69-6.4l-.46-.23a1 1 0 00-.56-.17 1.11 1.11 0 00-.6 0 1.26 1.26 0 00-.51.27 1.18 1.18 0 00-.38.42l-.16.36a1.55 1.55 0 000 .8l.16.36a1.5 1.5 0 00.53.53l.46.23a1.66 1.66 0 001.16.15 1.06 1.06 0 00.51-.27 1 1 0 00.38-.42l.15-.35a1.36 1.36 0 000-.8l-.15-.36a1.52 1.52 0 00-.53-.54zm-1.45 12.36h-1.82a1.59 1.59 0 00-1.07.44 1.24 1.24 0 00-.31.48 1.17 1.17 0 00-.12.58 1.49 1.49 0 00.43 1.06 1.59 1.59 0 001.07.44h1.82a1.5 1.5 0 001.06-.44 1 1 0 00.31-.48 1.06 1.06 0 00.13-.58 1.46 1.46 0 00-.44-1.06 1.54 1.54 0 00-1.06-.44zm-4.7-20.66v4.11a1.5 1.5 0 003 0v-4.11a1.5 1.5 0 00-3 0z" fill="#565656"/><path d="M373.46 304.85l1.83 1.6a1.24 1.24 0 00.48.31 1.29 1.29 0 00.58.13 1.27 1.27 0 00.58-.13 1.11 1.11 0 00.48-.31 1.52 1.52 0 00.44-1.06 1.48 1.48 0 00-.44-1.06l-1.83-1.6a1 1 0 00-.48-.31 1.06 1.06 0 00-.58-.13 1 1 0 00-.57.13 1.11 1.11 0 00-.49.31 1.54 1.54 0 00-.44 1.06 1.5 1.5 0 00.44 1.06zm-1.21 9.32a4.88 4.88 0 00.84 1.28 5.08 5.08 0 001.17 1 1.12 1.12 0 00.56.18 1.22 1.22 0 00.6 0 1.26 1.26 0 00.51-.27 1 1 0 00.38-.42 1.47 1.47 0 00.15-1.16l-.15-.35a1.45 1.45 0 00-.53-.54l-.3-.21.31.24a4 4 0 01-.69-.68l.24.3a3.87 3.87 0 01-.5-.86 1.31 1.31 0 00-.39-.42 1.14 1.14 0 00-.51-.27 1.11 1.11 0 00-.6 0 1.16 1.16 0 00-.56.18 1.45 1.45 0 00-.68.89l-.06.4a1.48 1.48 0 00.21.76zm.43 9.49a11.68 11.68 0 001.14 1.29 15.52 15.52 0 001.57 1.35 1.12 1.12 0 00.56.18 1.22 1.22 0 00.6 0 1.53 1.53 0 00.89-.69 1.47 1.47 0 00.15-1.16l-.15-.35a1.45 1.45 0 00-.53-.54l.31.24a13.4 13.4 0 01-2.38-2.38 1.14 1.14 0 00-.48-.31 1.08 1.08 0 00-.58-.13 1.5 1.5 0 00-1.5 1.5l.05.4a1.49 1.49 0 00.39.66zm2.01 13.65l2.75-3a1.56 1.56 0 00.44-1.06 1.5 1.5 0 00-.44-1.06 1.46 1.46 0 00-1.06-.44 1.47 1.47 0 00-1.06.44l-2.75 3a1.61 1.61 0 00-.44 1.06 1.54 1.54 0 00.44 1.06 1.52 1.52 0 001.06.44 1.54 1.54 0 001.06-.44zm-1.99 5.9a7.45 7.45 0 002-.07 6.43 6.43 0 001.6-.43 1.26 1.26 0 00.51-.27 1.18 1.18 0 00.38-.42 1.52 1.52 0 00-.53-2.06 1.49 1.49 0 00-1.16-.15 6.57 6.57 0 01-1.63.45l.4-.06a6.35 6.35 0 01-1.57 0 1.5 1.5 0 00-1.06.44 1.52 1.52 0 00-.44 1.06 1.5 1.5 0 00.44 1.06l.3.23a1.48 1.48 0 00.76.21zm.45 6.17h2.06a1.54 1.54 0 001.06-.44 1.08 1.08 0 00.31-.48 1.06 1.06 0 00.13-.58 1.5 1.5 0 00-.44-1.06 1.54 1.54 0 00-1.06-.44h-2.06a1.58 1.58 0 00-1.06.44 1.24 1.24 0 00-.31.48 1.27 1.27 0 00-.13.58 1.54 1.54 0 00.44 1.06 1.58 1.58 0 001.06.44zm-1.15 3.44l4.35.34a1.54 1.54 0 001.06-.44 1.5 1.5 0 00-1.06-2.56l-4.35-.34a1.5 1.5 0 00-1.5 1.5 1.54 1.54 0 001.5 1.5zm-.35 10.05l.14.18.27.37c.17.24.34.5.49.76a14.22 14.22 0 01.83 1.54c0 .08.22.46 0 .11.06.14.11.28.16.42.11.29.21.57.3.86a15.51 15.51 0 01.42 1.76 1.5 1.5 0 001.84 1.05 1.54 1.54 0 001.05-1.85 16 16 0 00-3.4-7.28 1.49 1.49 0 00-2.12 0 1.54 1.54 0 000 2.12zm-1.02 8.76a7.76 7.76 0 00.85 3.93 1.56 1.56 0 00.9.69 1.5 1.5 0 001.84-1.05 1.67 1.67 0 00-.15-1.16c-.06-.11-.11-.23-.17-.35l.16.35a6.11 6.11 0 01-.44-1.57l.06.4a6.41 6.41 0 01-.05-1.24 1.5 1.5 0 00-2.56-1.06 1.68 1.68 0 00-.44 1.06zm2.64 14.37a14.69 14.69 0 003.45-2.83 1.59 1.59 0 00.44-1.06 1.56 1.56 0 00-.44-1.06 1.5 1.5 0 00-2.12 0 13.55 13.55 0 01-1.8 1.67l.31-.23a15.45 15.45 0 01-1.36.92 1.5 1.5 0 00-.54 2.05 1.55 1.55 0 00.9.69 1.57 1.57 0 001.16-.15zm.29 9.72l1.82-.69a1.14 1.14 0 00.51-.27 1 1 0 00.39-.42 1.12 1.12 0 00.18-.56 1.22 1.22 0 000-.6 1.5 1.5 0 00-.69-.89l-.36-.15a1.51 1.51 0 00-.79 0l-1.83.68a1.14 1.14 0 00-.51.27 1.31 1.31 0 00-.39.42 1 1 0 00-.17.56 1.11 1.11 0 000 .6 1.5 1.5 0 00.69.89l.36.16a1.55 1.55 0 00.8 0zm-2.86 5.93a28.44 28.44 0 003.23 4.4 1.51 1.51 0 002.12 0 1.53 1.53 0 000-2.12c-.41-.47-.81-.94-1.19-1.44l.23.31a28.2 28.2 0 01-1.8-2.66 1.5 1.5 0 10-2.59 1.51zm.94 6.96a25.87 25.87 0 001.23 3.86 1.63 1.63 0 00.69.9 1.5 1.5 0 002.05-.54 1.43 1.43 0 00.15-1.16 25.87 25.87 0 01-1.23-3.86 1.5 1.5 0 00-1.84-1 1.52 1.52 0 00-1.05 1.84zm-.64 10.7l2.3 1.58a1.12 1.12 0 00.56.18 1.18 1.18 0 00.59 0 1.5 1.5 0 001-1.84l-.15-.36a1.4 1.4 0 00-.54-.54l-2.29-1.58a1.16 1.16 0 00-.56-.18 1.22 1.22 0 00-.6 0 1.51 1.51 0 00-.9.69 1.54 1.54 0 00-.15 1.15l.15.36a1.55 1.55 0 00.54.54zm-1.43 5.18a18 18 0 002.53 3 1.56 1.56 0 001.06.44 1.54 1.54 0 001.06-.44 1.52 1.52 0 00.44-1.06 1.54 1.54 0 00-.44-1.06 17.32 17.32 0 01-1.67-1.86l.24.3q-.33-.42-.63-.87a1.59 1.59 0 00-.9-.69 1.54 1.54 0 00-1.15.15 1.51 1.51 0 00-.69.9 1.45 1.45 0 00.15 1.15zm-1.42 7.35l2.28 3.2a1.61 1.61 0 00.89.69 1.5 1.5 0 001.85-1.05 1.49 1.49 0 00-.15-1.15l-2.28-3.2a1.63 1.63 0 00-.9-.69 1.5 1.5 0 00-1.85 1.05 1.45 1.45 0 00.16 1.15zm.48 8.25l5.73 1.08a1.59 1.59 0 001.15-.15 1.5 1.5 0 00-.36-2.74l-5.72-1.08a1.62 1.62 0 00-1.16.15 1.56 1.56 0 00-.69.9 1.53 1.53 0 001.05 1.84zm.18 7.76h3a1.54 1.54 0 001.06-.44 1.5 1.5 0 00.44-1.06 1.46 1.46 0 00-.44-1.06 1.54 1.54 0 00-1.06-.44h-3a1.58 1.58 0 00-1.06.44 1.56 1.56 0 00-.44 1.06 1.54 1.54 0 00.44 1.06 1.58 1.58 0 001.06.44zm.69 7.07l2.28.26a1.27 1.27 0 00.58-.13 1.11 1.11 0 00.48-.31 1.52 1.52 0 00.44-1.06 1.46 1.46 0 00-.44-1.06l-.3-.24a1.54 1.54 0 00-.76-.2l-2.28-.26a1.06 1.06 0 00-.58.13 1.14 1.14 0 00-.48.31 1.5 1.5 0 00-.44 1.06 1.54 1.54 0 00.44 1.06l.3.23a1.48 1.48 0 00.76.21zm-2.21 5.83c.25.08.5.17.74.27l-.36-.15a8.82 8.82 0 011.85 1.09l-.3-.23a8.35 8.35 0 011.43 1.42l-.24-.3a1.67 1.67 0 00.9.69 1.53 1.53 0 001.15-.15 1.51 1.51 0 00.69-.9 1.41 1.41 0 00-.15-1.15 10.27 10.27 0 00-1.06-1.23 11.23 11.23 0 00-1.26-1 9.3 9.3 0 00-2.63-1.28 1.5 1.5 0 00-.8 2.89zM193.47 46.09c0 .37-.05.74-.09 1.12a.88.88 0 000 .17v-.05.26c0 .08-.06.37-.1.55a16.81 16.81 0 01-.61 2.21 1.13 1.13 0 00.78 1.39 1.17 1.17 0 001.39-.79 17.16 17.16 0 00.94-4.86A1.13 1.13 0 00194.6 45a1.15 1.15 0 00-1.13 1.13zM190 51.47c-.65-1.21-1.34-2.39-2.08-3.54a1.13 1.13 0 10-1.92 1.14c.74 1.15 1.43 2.33 2.08 3.54a1.14 1.14 0 001.54.4 1.16 1.16 0 00.4-1.54zm-7.63-.31a2.47 2.47 0 01.06.29v-.3a3.47 3.47 0 010 .91v-.3a4.61 4.61 0 01-.14.62 1.12 1.12 0 00.78 1.38 1.15 1.15 0 00.87-.11 1.32 1.32 0 00.52-.67 4.62 4.62 0 00.08-2.42 1.13 1.13 0 00-1.38-.79 1.13 1.13 0 00-.67.52 1.25 1.25 0 00-.12.87zM180.09 54l-1.36-.91a.81.81 0 00-.42-.14 1 1 0 00-.83.22.81.81 0 00-.29.32 1.15 1.15 0 00-.12.87l.12.27a1.1 1.1 0 00.4.4L179 56a.8.8 0 00.42.13.77.77 0 00.45 0 .82.82 0 00.38-.2.86.86 0 00.29-.31 1.15 1.15 0 00.11-.87l-.11-.27a1.12 1.12 0 00-.41-.4zm-7.83-2v3.87a1.13 1.13 0 002.25 0V52a1.13 1.13 0 00-1.12-1.13 1.16 1.16 0 00-1.13 1.13zm-2.13 3.47h-.07.3a2.89 2.89 0 01-.72 0h.3a3.46 3.46 0 01-.7-.19l.27.11a2.57 2.57 0 01-.62-.36l.23.18-.17-.14a1.17 1.17 0 00-.79-.33 1.14 1.14 0 00-.8.33 1.11 1.11 0 00-.33.79 1.14 1.14 0 00.33.8 4 4 0 001.56.89 5.05 5.05 0 00.88.15 4.17 4.17 0 00.93-.07 1.11 1.11 0 00.78-1.38 1.12 1.12 0 00-.51-.67l-.27-.12a1.22 1.22 0 00-.6 0zm-6.29.18v2.28a1.11 1.11 0 00.33.79 1.07 1.07 0 00.79.33 1.14 1.14 0 001.13-1.12v-2.28a1.16 1.16 0 00-.33-.79 1.11 1.11 0 00-.8-.33 1.13 1.13 0 00-1.12 1.12zm-3.37 2.08l.12 2.18a1.2 1.2 0 00.33.8 1.12 1.12 0 001.59 0 1.11 1.11 0 00.33-.8l-.12-2.18a1.2 1.2 0 00-.33-.8 1.16 1.16 0 00-.79-.33 1.12 1.12 0 00-.8.33 1.09 1.09 0 00-.33.8zm-4.1 3.05a15.64 15.64 0 00-1.49-1.2 1.26 1.26 0 00-.86-.11.81.81 0 00-.39.2 1 1 0 00-.29.31 1.2 1.2 0 00-.11.87l.11.27a1.12 1.12 0 00.41.4l.39.29-.23-.17a10 10 0 01.87.74 1.15 1.15 0 00.79.32.78.78 0 00.43-.09 1 1 0 00.37-.23 1.13 1.13 0 000-1.6z" fill="#565656"/><path d="M151.54 59.7v3.23a1.13 1.13 0 002.25 0V59.7a1.13 1.13 0 00-2.25 0zm-6.66 3.3v2.5a1.16 1.16 0 00.33.79 1.07 1.07 0 00.79.33 1.12 1.12 0 00.8-.33 1.17 1.17 0 00.33-.79V63a1.16 1.16 0 00-.33-.79 1.08 1.08 0 00-.8-.33 1.11 1.11 0 00-.79.33 1.17 1.17 0 00-.33.79zm-4.12-.59a6.84 6.84 0 001 2.63l-.12-.27a2.88 2.88 0 01.2.65v-.3a1.36 1.36 0 010 .2 1.13 1.13 0 102.25 0 7.11 7.11 0 00-.95-2.63l.11.27a3.48 3.48 0 01-.19-.65v.3a1.34 1.34 0 010-.2 1.13 1.13 0 10-2.25 0zm-4.31 4.37V69a1.13 1.13 0 001.13 1.13 1.16 1.16 0 00.79-.33 1.14 1.14 0 00.33-.8v-2.22a1.12 1.12 0 00-1.92-.8 1.18 1.18 0 00-.33.8zm-2.55 2.33a16.39 16.39 0 00-2.72-2.48 1.15 1.15 0 00-.87-.11 1.12 1.12 0 00-.67.52 1.08 1.08 0 00-.11.86l.11.27a1.12 1.12 0 00.4.41l.32.24-.22-.18a14.51 14.51 0 012.16 2.06 1.14 1.14 0 00.8.33 1.18 1.18 0 00.8-.33 1.14 1.14 0 00.32-.8 1.21 1.21 0 00-.32-.79z" fill="#565656"/><path d="M127.71 68.34V72a1.13 1.13 0 002.29 0v-3.66a1.14 1.14 0 00-1.12-1.13 1.16 1.16 0 00-1.13 1.13zm-3.53 3.93l.63.72a.77.77 0 00.36.23.8.8 0 00.43.1.84.84 0 00.44-.1.77.77 0 00.36-.23l.17-.23a1 1 0 00.16-.56v-.3a1.2 1.2 0 00-.29-.5l-.63-.72a.85.85 0 00-.37-.23.78.78 0 00-.43-.1.8.8 0 00-.43.1.77.77 0 00-.36.23l-.18.23a1.09 1.09 0 00-.15.56v.3a1.1 1.1 0 00.29.5zm-9.35 4.67a8.12 8.12 0 002.3 2 1.2 1.2 0 00.87.06 1.12 1.12 0 00.67-.51 1.16 1.16 0 00.12-.87 1.13 1.13 0 00-.52-.67 7 7 0 01-.85-.57l.23.18a7.1 7.1 0 01-1.23-1.22 1.12 1.12 0 00-.79-.32 1.17 1.17 0 00-.8.32 1.15 1.15 0 00-.33.8v.3a1.1 1.1 0 00.29.5zm4.67-6.42v5.83a1.12 1.12 0 001.12 1.12 1.14 1.14 0 001.13-1.12v-5.83a1.13 1.13 0 00-2.25 0zm-7.29 7.91v3.85a1.13 1.13 0 002.25 0v-3.85a1.14 1.14 0 00-1.12-1.13 1.16 1.16 0 00-1.13 1.13zm-2.1 5.43h-2.6a1.11 1.11 0 00-.79.33 1.07 1.07 0 00-.33.79 1.14 1.14 0 001.12 1.13h2.6a1.13 1.13 0 001.13-1.11 1.15 1.15 0 00-1.13-1.12zm-3.01 4.89h-3.33a1.13 1.13 0 00-1.13 1.12 1.16 1.16 0 001.13 1.13h3.33a1.13 1.13 0 000-2.25zm-2.81 4.68h-3.54a1.13 1.13 0 000 2.25h3.54a1.13 1.13 0 000-2.25zm-4.48 6.64l-1.66.11a.88.88 0 00-.43.1 1 1 0 00-.37.23 1.2 1.2 0 00-.33.8 1.16 1.16 0 00.33.79 1.06 1.06 0 00.8.33l1.66-.11a1 1 0 00.44-.1.86.86 0 00.36-.23 1.2 1.2 0 00.33-.8 1.16 1.16 0 00-.33-.79 1.06 1.06 0 00-.8-.33zm-1.32 2.48a11.76 11.76 0 01-2.81.74h.3l-.64.07a1.22 1.22 0 00-.79.33 1.11 1.11 0 00-.33.8 1.13 1.13 0 001.12 1.12 12.56 12.56 0 003.74-.85 1.22 1.22 0 00.68-.52 1.14 1.14 0 00.11-.87 1.16 1.16 0 00-.52-.67 1.09 1.09 0 00-.86-.11zm-2.2 4.31c-1.09.18-2.16.4-3.22.66a1.12 1.12 0 00.59 2.17c1.07-.26 2.14-.48 3.22-.66a1.11 1.11 0 00.79-1.38 1.13 1.13 0 00-.52-.67 1.28 1.28 0 00-.86-.12zM94.6 114a7 7 0 00-.48-1 6.31 6.31 0 00-.66-.88 5.78 5.78 0 00-1.46-1.27 1.14 1.14 0 00-1.54.4 1.14 1.14 0 00.41 1.54c.19.12.38.24.56.38l-.22-.18a5.53 5.53 0 01.9.91l-.17-.23a5.09 5.09 0 01.64 1.11l-.11-.27a.93.93 0 00.2.38.89.89 0 00.32.29 1.14 1.14 0 001.54-.4 1.11 1.11 0 00.11-.87zm-2.71 4.49h-2.56a1.13 1.13 0 00-1.13 1.13 1.15 1.15 0 001.13 1.12h2.56a1.11 1.11 0 00.79-.33 1.07 1.07 0 00.33-.79 1.14 1.14 0 00-1.12-1.13zm-2.56 5.56l-.85.57a1.24 1.24 0 00-.52.67.86.86 0 000 .45.9.9 0 00.13.42l.18.23a1.16 1.16 0 00.49.29h.3a1 1 0 00.57-.16l.85-.57a.75.75 0 00.32-.29.74.74 0 00.2-.38.77.77 0 000-.45.74.74 0 00-.13-.41l-.18-.23a1.07 1.07 0 00-.49-.29h-.3a1.1 1.1 0 00-.57.15zm-2.33 4.4l-2.85.53a1.12 1.12 0 00-.67.52 1.17 1.17 0 00-.12.86 1.15 1.15 0 00.52.68 1.31 1.31 0 00.87.11l2.85-.53a1.14 1.14 0 00.67-.51 1.21 1.21 0 00.12-.87 1.13 1.13 0 00-.52-.67 1.25 1.25 0 00-.87-.12zm-2.53 2.94l-1.7.88a1.17 1.17 0 00-.51.68.74.74 0 000 .44.8.8 0 00.13.42 1.19 1.19 0 00.67.52 1.25 1.25 0 00.87-.11l1.69-.88a1.14 1.14 0 00.52-.68.82.82 0 000-.44.9.9 0 00-.13-.42 1.18 1.18 0 00-.68-.52 1.22 1.22 0 00-.86.11zm-1.03 6.8l-2.28 2.55a1.2 1.2 0 00-.33.8 1.13 1.13 0 00.33.79 1.07 1.07 0 00.79.33 1.09 1.09 0 00.8-.33l2.25-2.55a1.2 1.2 0 00.33-.8 1.16 1.16 0 00-.33-.79 1.11 1.11 0 00-.8-.33 1.06 1.06 0 00-.79.33zm-3.5 6.01l-2.29.47a1.14 1.14 0 00-.68.52 1.12 1.12 0 00.41 1.53 1.22 1.22 0 00.86.12l2.3-.47a1.13 1.13 0 00.67-.52 1.19 1.19 0 00.12-.87 1.16 1.16 0 00-.52-.67 1.31 1.31 0 00-.87-.11zm-1.14 6.43h-4a1.13 1.13 0 000 2.25h4a1.13 1.13 0 001.13-1.12 1.15 1.15 0 00-1.13-1.13zm.57-2.84h-1.7a1.2 1.2 0 00-.8.33 1.16 1.16 0 00-.33.79 1.12 1.12 0 00.33.8 1.18 1.18 0 00.8.33h1.7a1.2 1.2 0 00.8-.33 1.16 1.16 0 00.33-.8 1.11 1.11 0 00-.33-.79 1.18 1.18 0 00-.8-.33zM76 154.24l-2.59 1.35a1.13 1.13 0 00-.41 1.54 1.15 1.15 0 001.54.41l2.6-1.36a1.13 1.13 0 00-1.14-1.94zm-2.58 6.83l-4 2a1.12 1.12 0 101.17 1.93l4-2a1.13 1.13 0 00.4-1.54 1.15 1.15 0 00-1.54-.4zM71.68 170v-.57a.8.8 0 00-.1-.43 1 1 0 00-.59-.59.72.72 0 00-.43-.1h-.3a1.1 1.1 0 00-.5.29l-.18.23a1.09 1.09 0 00-.15.56v.61a1 1 0 00.1.44.77.77 0 00.23.36.86.86 0 00.36.23 1 1 0 00.44.1h.3a1.16 1.16 0 00.49-.29l.18-.23a1.13 1.13 0 00.15-.57zM70 173.18a1.69 1.69 0 01-.44-.12l.27.11a2.2 2.2 0 01-.47-.27l.23.17a2.21 2.21 0 01-.41-.4l.18.23a2 2 0 01-.26-.45l.11.27a2.09 2.09 0 01-.08-.23 1.19 1.19 0 00-.52-.67.8.8 0 00-.42-.13.74.74 0 00-.44 0 1.14 1.14 0 00-.68.51 1.15 1.15 0 00-.11.87 3.55 3.55 0 00.21.54 2.15 2.15 0 00.14.26 3.27 3.27 0 00.56.67 2.85 2.85 0 00.7.49 2.76 2.76 0 00.83.3 1.26 1.26 0 00.86-.11 1.12 1.12 0 00.52-.67 1.15 1.15 0 00-.11-.87 1.16 1.16 0 00-.67-.52zm-2.29 3.91H64.3a1.14 1.14 0 00-1.13 1.12 1.16 1.16 0 001.13 1.13h3.41a1.13 1.13 0 100-2.25zm-3.04 4.34l-1.75 1.38a.86.86 0 00-.23.36.91.91 0 00-.1.43 1.18 1.18 0 00.33.8 1.2 1.2 0 00.8.33h.3a1.26 1.26 0 00.5-.29l1.74-1.44a.77.77 0 00.23-.36.91.91 0 00.1-.43 1.14 1.14 0 00-.33-.8 1.15 1.15 0 00-.8-.33h-.3a1.16 1.16 0 00-.49.29zm-1.17 5.09l-2.56 2.27a1.2 1.2 0 00-.33.8 1.17 1.17 0 00.33.79 1.11 1.11 0 00.8.33 1.17 1.17 0 00.79-.33l2.56-2.27a1.15 1.15 0 00.33-.8 1.13 1.13 0 00-.33-.79 1.07 1.07 0 00-.79-.33 1.22 1.22 0 00-.8.33zm-2.91 8.37l-1.13-.57a.91.91 0 00-.42-.14 1 1 0 00-.45 0 .89.89 0 00-.38.21.72.72 0 00-.29.31l-.12.27a1.22 1.22 0 000 .6l.12.27a1.1 1.1 0 00.4.4l1.14.57a.91.91 0 00.42.14.94.94 0 00.44 0 .92.92 0 00.39-.21.86.86 0 00.29-.31l.11-.27a1.22 1.22 0 000-.6l-.11-.27a1.12 1.12 0 00-.41-.4zm-1.98 7.51h-1.42a1.15 1.15 0 00-.8.33.86.86 0 00-.23.36.91.91 0 00-.1.43 1.16 1.16 0 00.33.8 1.18 1.18 0 00.8.33h1.42a1.2 1.2 0 00.8-.33.86.86 0 00.23-.36 1 1 0 00.1-.44 1.16 1.16 0 00-.33-.79 1.18 1.18 0 00-.8-.33zm-1.42 5.12a5.61 5.61 0 00-3.13.72 1.2 1.2 0 00-.52.67 1.13 1.13 0 001.66 1.27c.14-.08.29-.15.44-.22l-.27.12a4.42 4.42 0 011.17-.32h-.3a5 5 0 01.95 0 1.13 1.13 0 00.79-.33 1.07 1.07 0 00.33-.79 1.12 1.12 0 00-.33-.8 1.22 1.22 0 00-.79-.33zm1.73-9.1a5.05 5.05 0 00-2.88-.23 1.12 1.12 0 00-.67.51 1.2 1.2 0 00-.12.87 1.13 1.13 0 00.52.67 1.25 1.25 0 00.87.12h.24-.3a3.87 3.87 0 011 0h-.3a4.6 4.6 0 011 .27 1.08 1.08 0 00.86-.11 1.12 1.12 0 00.52-.67 1.15 1.15 0 00-.11-.87l-.18-.23a1.2 1.2 0 00-.5-.29zm-5.43 15.64h-2.56a1.16 1.16 0 00-.79.33 1.11 1.11 0 00-.33.8 1.14 1.14 0 001.12 1.12h2.56a1.2 1.2 0 00.8-.33 1.12 1.12 0 00-.8-1.92zm-1.21 5.12H52a.8.8 0 00-.43.1 1 1 0 00-.6.59.83.83 0 00-.09.44v.29a1.18 1.18 0 00.28.5l.23.18a1.16 1.16 0 00.57.15h.28a.84.84 0 00.44-.1 1 1 0 00.59-.59.83.83 0 00.1-.43v-.3a1.1 1.1 0 00-.29-.5l-.23-.18a1.1 1.1 0 00-.57-.15zm-.78 5.69h-1.42a1.15 1.15 0 00-.8.33.86.86 0 00-.23.36.91.91 0 00-.1.43 1.13 1.13 0 001.13 1.13h1.42a1.2 1.2 0 00.8-.33.86.86 0 00.23-.36 1 1 0 00.1-.44 1.16 1.16 0 00-.33-.79 1.2 1.2 0 00-.8-.33zm-.79 6.02l-2.27.32a1.09 1.09 0 00-.67.52 1.17 1.17 0 00-.12.86 1.15 1.15 0 00.52.68l.27.11a1.22 1.22 0 00.6 0l2.27-.32a1.09 1.09 0 00.67-.52 1.17 1.17 0 00.12-.86 1.15 1.15 0 00-.52-.68l-.27-.11a1.22 1.22 0 00-.6 0zm-3.85 5.87l-2.22 2.89a1.15 1.15 0 00-.12.87 1.2 1.2 0 00.52.67 1.11 1.11 0 00.87.11l.27-.11a1.18 1.18 0 00.4-.4l2.22-2.89a1.13 1.13 0 00-1.27-1.66l-.27.12a1.1 1.1 0 00-.4.4zm-.4 7.16h-1.71a1.16 1.16 0 00-.79.33 1.11 1.11 0 00-.33.8 1.11 1.11 0 001.12 1.12h1.71a1.15 1.15 0 00.79-.32 1.11 1.11 0 00.33-.8 1.15 1.15 0 00-.33-.8 1.17 1.17 0 00-.79-.33zm-.85 5.08h-.86a.91.91 0 00-.43.1.86.86 0 00-.36.23 1 1 0 00-.24.37.78.78 0 00-.09.43v.3a1.07 1.07 0 00.37.57l.22.18a1.16 1.16 0 00.57.15h.86a.82.82 0 00.43-.09.88.88 0 00.36-.24.77.77 0 00.23-.36.8.8 0 00.1-.43v-.3a1.1 1.1 0 00-.29-.5l-.23-.17a1.21 1.21 0 00-.56-.16zm-.86 2.6h-2.56a1.16 1.16 0 00-.79.33 1.11 1.11 0 00-.33.8 1.13 1.13 0 001.12 1.12h2.56a1.13 1.13 0 100-2.25zm.78 3.4l-3.94 4a1.13 1.13 0 001.59 1.6l3.94-4a1.12 1.12 0 10-1.59-1.6zm-2.25 9.45a3.64 3.64 0 00-.74-.07 4.39 4.39 0 00-.72.07 3.67 3.67 0 00-1.11.39 1.13 1.13 0 00-.52.67 1 1 0 000 .45.81.81 0 00.14.42 1.08 1.08 0 00.67.51h.3a1.16 1.16 0 00.57-.15l.18-.09-.26.12a2.5 2.5 0 01.71-.2h-.3a3.14 3.14 0 01.75 0h-.3.06a.82.82 0 00.44 0 .9.9 0 00.42-.13 1.14 1.14 0 00.52-.68A1.17 1.17 0 0044 265l-.18-.23a1.1 1.1 0 00-.5-.29zm-.86 5.36h-.86a.8.8 0 00-.43.09.88.88 0 00-.36.24.77.77 0 00-.23.36.72.72 0 00-.1.43v.3a1.1 1.1 0 00.29.5l.23.17a1 1 0 00.56.16h.86a.91.91 0 00.43-.1 1 1 0 00.59-.59.75.75 0 00.1-.44v-.3a1.07 1.07 0 00-.29-.49L43 270a1.09 1.09 0 00-.56-.15zm-1.65 4.02l-2 2.28a1.2 1.2 0 00-.33.8 1.13 1.13 0 00.33.79 1.11 1.11 0 00.79.33 1.14 1.14 0 00.8-.33l2-2.27a1.2 1.2 0 00.33-.8 1.14 1.14 0 00-.33-.8 1.2 1.2 0 00-.8-.33 1.16 1.16 0 00-.79.33zm-.34 10.56a4.61 4.61 0 00-3.72.61 1.19 1.19 0 00-.52.67 1.15 1.15 0 00.11.87 1.19 1.19 0 00.67.52 1.15 1.15 0 00.87-.12 3.6 3.6 0 01.61-.33l-.26.11a3.42 3.42 0 01.9-.24h-.3a3.62 3.62 0 01.93 0h-.3a2.7 2.7 0 01.41.08 1.15 1.15 0 00.87-.11 1.22 1.22 0 00.52-.68 1.15 1.15 0 00-.79-1.38zm-1.08 2.81l-2 1.71a1.13 1.13 0 00.8 1.92h.3a1.1 1.1 0 00.5-.29l2-1.71a1.13 1.13 0 00.33-.79 1.18 1.18 0 00-.33-.8 1.2 1.2 0 00-.8-.33h-.3a1.16 1.16 0 00-.49.29zm-.2 7.07h-1.42a1.15 1.15 0 00-.8.33.86.86 0 00-.23.36.91.91 0 00-.1.43 1.13 1.13 0 001.13 1.13h1.42a1.2 1.2 0 00.8-.33.86.86 0 00.23-.36 1 1 0 00.1-.44 1.16 1.16 0 00-.33-.79 1.18 1.18 0 00-.8-.33zm-1.29 6.1a5.8 5.8 0 00-1.25.74 6.88 6.88 0 00-1.24 1.17.77.77 0 00-.23.36.84.84 0 00-.1.44 1.13 1.13 0 00.33.79 1.09 1.09 0 00.8.33 1.07 1.07 0 00.79-.33 5.91 5.91 0 011-1l-.23.17a6.85 6.85 0 011.25-.74 1.13 1.13 0 00.52-.67 1.16 1.16 0 00-.11-.86 1.14 1.14 0 00-.68-.52h-.29a1.1 1.1 0 00-.57.15zm.86 4.98l-2.95 2.14a1.19 1.19 0 00-.51.67 1.15 1.15 0 00.11.87 1.13 1.13 0 00.67.51 1.06 1.06 0 00.87-.11l3-2.14a1.19 1.19 0 00.51-.67 1.12 1.12 0 00-.78-1.38 1.1 1.1 0 00-.87.11zm-.66 7.41H35.5a1.15 1.15 0 00-.79.32 1.11 1.11 0 00-.33.8A1.14 1.14 0 0035.5 315h2.56a1.13 1.13 0 001.13-1.13 1.15 1.15 0 00-1.13-1.12zm0 3.98h-2.27a1.14 1.14 0 00-.8.33 1.12 1.12 0 00.8 1.92h2.27a1.13 1.13 0 001.13-1.13 1.15 1.15 0 00-1.13-1.12zm-.75 6.52l-.31 2.26a1 1 0 000 .45.81.81 0 00.14.42 1.13 1.13 0 00.67.52 1.15 1.15 0 00.87-.12 1 1 0 00.51-.67l.36-2.26a.86.86 0 000-.45.9.9 0 00-.13-.42 1.18 1.18 0 00-.68-.52 1.13 1.13 0 00-.86.12 1.09 1.09 0 00-.52.67zm.17 5.56l-2.6 1.93a1.12 1.12 0 00.27 2.06 1.08 1.08 0 00.86-.12l2.6-1.93a1.12 1.12 0 00-.27-2.06 1.08 1.08 0 00-.86.12zm-.94 5.72l-.58.85a.79.79 0 00-.13.41.77.77 0 000 .45.81.81 0 00.2.39.86.86 0 00.31.29l.27.11a1.22 1.22 0 00.6 0l.27-.11a1.12 1.12 0 00.4-.41l.59-.84a.9.9 0 00.13-.42.86.86 0 000-.45.82.82 0 00-.2-.38.89.89 0 00-.32-.29l-.26-.11a1 1 0 00-.6 0l-.27.11a1.21 1.21 0 00-.41.4zm-.48 6.76l-1.85 1.85a1.19 1.19 0 00-.32.8 1.16 1.16 0 00.32.79 1.11 1.11 0 00.8.33 1.15 1.15 0 00.8-.33l1.84-1.85a1.11 1.11 0 00.33-.79 1.14 1.14 0 00-.33-.8 1.11 1.11 0 00-.79-.33 1.25 1.25 0 00-.8.33zm1.08 6.2l-1.42 1.42a1.15 1.15 0 00-.33.8.8.8 0 00.09.43.88.88 0 00.24.36 1.07 1.07 0 00.79.33 1.15 1.15 0 00.8-.33l1.42-1.42a1.17 1.17 0 00.33-.79.84.84 0 00-.1-.44.77.77 0 00-.23-.36 1.12 1.12 0 00-1.59 0zm.51 7.16l-1.42-.28a.86.86 0 00-.45 0 .9.9 0 00-.42.13.86.86 0 00-.31.29.81.81 0 00-.2.39 1.12 1.12 0 00.78 1.38l1.43.28a.73.73 0 00.44 0 .8.8 0 00.42-.13.89.89 0 00.32-.29.93.93 0 00.2-.38 1.2 1.2 0 00-.11-.87 1.14 1.14 0 00-.68-.52zm-.28 5.03h-1.71a1.13 1.13 0 100 2.25h1.71a1.17 1.17 0 00.79-.33 1.12 1.12 0 00-.79-1.92zm-.29 5.4h-2.27a1.14 1.14 0 00-.8.33 1.12 1.12 0 00.8 1.92h2.27a1.13 1.13 0 001.13-1.13 1.15 1.15 0 00-1.13-1.12zm.57-2.85h-.57a.91.91 0 00-.43.1.86.86 0 00-.36.23 1 1 0 00-.24.37.78.78 0 00-.09.43v.3a1.16 1.16 0 00.29.5l.22.17a1.16 1.16 0 00.57.15h.57a.78.78 0 00.43-.09 1 1 0 00.6-.6.91.91 0 00.1-.43v-.3a1.2 1.2 0 00-.29-.5l-.23-.17a1.29 1.29 0 00-.57-.16zm.85 6.61a3.13 3.13 0 00-2.2.89 3.16 3.16 0 00-1 2.16 1.2 1.2 0 00.33.8 1.14 1.14 0 00.8.32 1.1 1.1 0 00.79-.32 1.2 1.2 0 00.33-.8v-.17.3a1.49 1.49 0 01.13-.47l-.12.27a2.43 2.43 0 01.28-.47l-.18.22a2.79 2.79 0 01.39-.38l-.23.17a2.27 2.27 0 01.48-.27l-.27.11a2.11 2.11 0 01.49-.14l-.3.05a1.42 1.42 0 01.29 0 1.14 1.14 0 00.8-.33 1.16 1.16 0 00.33-.79 1.18 1.18 0 00-.33-.8 1.25 1.25 0 00-.8-.33zm-.86 5.43l-1.42.28a.93.93 0 00-.38.2.89.89 0 00-.29.32.8.8 0 00-.13.42.77.77 0 000 .45 1.14 1.14 0 00.51.67l.27.11a1 1 0 00.6 0l1.42-.28a.92.92 0 00.39-.21 1 1 0 00.29-.31.9.9 0 00.13-.42.86.86 0 000-.45 1.16 1.16 0 00-.52-.67l-.27-.11a1 1 0 00-.6 0zm.58 4.46h-2a1.13 1.13 0 00-1.13 1.13 1.16 1.16 0 00.33.79 1.18 1.18 0 00.8.33h2a1.11 1.11 0 00.79-.33 1.07 1.07 0 00.33-.79 1.09 1.09 0 00-.33-.8 1.17 1.17 0 00-.79-.33zm.83 6.44l-1.13-.86a.91.91 0 00-.42-.14 1 1 0 00-.45 0 1 1 0 00-.38.21.86.86 0 00-.29.31l-.11.27a1 1 0 000 .6l.11.27a1.1 1.1 0 00.4.4l1.14.86a1.26 1.26 0 00.86.11.81.81 0 00.39-.2 1 1 0 00.29-.31l.11-.27a1.22 1.22 0 000-.6l-.11-.27a1.12 1.12 0 00-.41-.4zm1.66 2.9l-2.28.28a.78.78 0 00-.43.1.85.85 0 00-.37.23 1.18 1.18 0 00-.33.8 1.16 1.16 0 00.33.79 1.07 1.07 0 00.8.33l2.28-.28a.82.82 0 00.43-.09.88.88 0 00.36-.24 1.11 1.11 0 00.33-.79 1.15 1.15 0 00-.33-.8 1.13 1.13 0 00-.79-.33zm-.71 3.76L38.81 395a1.08 1.08 0 00.11.86 1.12 1.12 0 00.67.52 1.15 1.15 0 00.87-.11 1.31 1.31 0 00.51-.67l1.19-3.11a1.15 1.15 0 00-.11-.87 1.19 1.19 0 00-.67-.52 1.15 1.15 0 00-.87.12 1.25 1.25 0 00-.52.67zm.72 6.81v2a1.16 1.16 0 00.33.79 1.12 1.12 0 001.59 0 1.13 1.13 0 00.33-.79v-2a1.13 1.13 0 00-1.12-1.13 1.2 1.2 0 00-.8.33 1.18 1.18 0 00-.33.8zm2.84 5.98h-2.85a1.13 1.13 0 000 2.25h2.85a1.13 1.13 0 001.12-1.12 1.15 1.15 0 00-1.12-1.13zm1.29 3.97L44 410a.8.8 0 00-.13.42.77.77 0 000 .45.82.82 0 00.2.38.86.86 0 00.31.29 1.11 1.11 0 00.87.11 1.19 1.19 0 00.67-.51l.86-1.43a.83.83 0 00.13-.41.86.86 0 000-.45 1.24 1.24 0 00-.52-.67 1.13 1.13 0 00-.86-.12 1.18 1.18 0 00-.68.52zm1.61 5.46l-.57.57a.82.82 0 00-.23.36.84.84 0 00-.1.44.8.8 0 00.1.43.77.77 0 00.23.36l.23.18a1.09 1.09 0 00.56.15h.3a1.1 1.1 0 00.5-.29l.57-.57a.77.77 0 00.23-.36.91.91 0 00.1-.43.88.88 0 00-.1-.43.85.85 0 00-.23-.37l-.23-.17a1.11 1.11 0 00-.57-.16h-.3a1.16 1.16 0 00-.49.29zm2.54 6.2a3.4 3.4 0 00-2.7 1.19 2.91 2.91 0 00-.64 1.08 1.15 1.15 0 00.11.87 1.18 1.18 0 00.68.52 1.13 1.13 0 00.86-.12l.23-.17a1.1 1.1 0 00.29-.5v-.06l-.12.27a2.36 2.36 0 01.29-.48l-.18.23a2.09 2.09 0 01.42-.42l-.23.18a2.65 2.65 0 01.54-.32l-.27.12a2.43 2.43 0 01.6-.17h-.3a2.54 2.54 0 01.39 0 1.13 1.13 0 001.13-1.13 1.16 1.16 0 00-.33-.79 1.2 1.2 0 00-.8-.33z" fill="#565656"/><path d="M47.55 424a5.92 5.92 0 010 1.33v-.3a5.64 5.64 0 01-.38 1.45l.11-.27c0 .12-.11.24-.16.35a1.2 1.2 0 00-.12.87 1.16 1.16 0 00.52.67 1.14 1.14 0 001.54-.4 6.79 6.79 0 00.72-3.7 1.2 1.2 0 00-.33-.79 1.11 1.11 0 00-.8-.33 1.13 1.13 0 00-1.1 1.12zm2.09 5.75l-1.16 1.41a.77.77 0 00-.23.36.91.91 0 00-.1.43.88.88 0 00.1.43.85.85 0 00.23.37 1.18 1.18 0 00.8.33h.29a1.14 1.14 0 00.5-.29l1.16-1.41a.77.77 0 00.23-.36.72.72 0 00.1-.43.75.75 0 00-.1-.44.82.82 0 00-.23-.36 1.16 1.16 0 00-.79-.33h-.3a1.2 1.2 0 00-.5.29zm48.49-.48l1.88 1.05a1.57 1.57 0 001.16.16 1.26 1.26 0 00.51-.27 1.31 1.31 0 00.39-.42 1.56 1.56 0 00.15-1.16 1.59 1.59 0 00-.69-.9l-1.88-1.05a1.61 1.61 0 00-1.16-.15 1.26 1.26 0 00-.51.27 1.18 1.18 0 00-.38.42 1.47 1.47 0 00-.15 1.16 1.52 1.52 0 00.68.89zm3.87-11.5h2a1.53 1.53 0 001.06-.44 1.11 1.11 0 00.31-.48 1.27 1.27 0 00.13-.58 1.54 1.54 0 00-.44-1.06 1.58 1.58 0 00-1.06-.44h-2a1.56 1.56 0 00-1.06.44 1.14 1.14 0 00-.31.48 1.17 1.17 0 00-.13.58 1.5 1.5 0 00.44 1.06 1.54 1.54 0 001.06.44zm-2.17 6.52h5.48a1.5 1.5 0 000-3h-5.48a1.5 1.5 0 100 3zm3.17-13.9a9.93 9.93 0 003.61-.72 1.26 1.26 0 00.51-.27 1.18 1.18 0 00.38-.42 1.51 1.51 0 00-.54-2.06 1.46 1.46 0 00-1.15-.15 8.47 8.47 0 01-2.15.59l.39-.05a9.28 9.28 0 01-1 .08 1.5 1.5 0 00-1.5 1.5 1.52 1.52 0 001.5 1.5zm3.39-8.93a9.45 9.45 0 002.85-1.35 1.21 1.21 0 00.42-.39 1.14 1.14 0 00.27-.51 1.54 1.54 0 00-.16-1.15 1.5 1.5 0 00-2-.54 8.64 8.64 0 01-1.57.88l.36-.15c-.3.12-.61.23-.92.32a1.5 1.5 0 00-1 1.84 1.53 1.53 0 00.69.9 1.56 1.56 0 001.16.15zm-.01-8.02a4.07 4.07 0 00.76-.28 2.82 2.82 0 00.38-.21 4.85 4.85 0 00.62-.5l.14-.16a5.34 5.34 0 00.35-.48 1.69 1.69 0 00.16-1.15 1.14 1.14 0 00-.27-.51 1.12 1.12 0 00-.42-.39l-.36-.15a1.55 1.55 0 00-.8 0l-.36.15a1.55 1.55 0 00-.54.54l-.1.15.23-.3a2.28 2.28 0 01-.38.38l.3-.23a2 2 0 01-.47.27l.36-.15a1.87 1.87 0 01-.4.13 1.54 1.54 0 00-.89.69 1.09 1.09 0 00-.18.55 1.11 1.11 0 000 .6l.16.36a1.61 1.61 0 00.53.54l.36.15a1.55 1.55 0 00.8 0zm2.98-10.1c.09-.23.17-.45.26-.66l-.15.35a13.83 13.83 0 011.52-2.67 1.53 1.53 0 00.15-1.15 1.56 1.56 0 00-.69-.9 1.52 1.52 0 00-1.16-.15l-.36.15a1.45 1.45 0 00-.53.54 14.76 14.76 0 00-1.93 3.69 1.52 1.52 0 00.15 1.16 1.52 1.52 0 002.06.53 1.68 1.68 0 00.68-.89zm2.78-11.53a6.53 6.53 0 003.51-.88 1.59 1.59 0 00.69-.9 1.53 1.53 0 00-.15-1.15 1.51 1.51 0 00-.9-.69 1.57 1.57 0 00-1.16.15 6.54 6.54 0 01-.59.3l.35-.16a4.85 4.85 0 01-1.24.34l.4-.05a5.5 5.5 0 01-.91 0 1.5 1.5 0 00-1.5 1.5 1.54 1.54 0 00.44 1.06 1.56 1.56 0 001.06.44zm.18-9.6l2.77 1.78a1.51 1.51 0 002.06-.54 1.54 1.54 0 00.15-1.15 1.67 1.67 0 00-.69-.9l-2.78-1.78a1.54 1.54 0 00-1.15-.15 1.5 1.5 0 00-.36 2.74zm-.63-7.12h2.74a1.5 1.5 0 001.06-2.56 1.54 1.54 0 00-1.06-.44h-2.74a1.56 1.56 0 00-1.06.44 1.52 1.52 0 00-.44 1.06 1.5 1.5 0 00.44 1.06 1.54 1.54 0 001.06.44zM112.9 345l2.75-1.37a1.49 1.49 0 00.68-.89 1.52 1.52 0 00-.15-1.16 1.5 1.5 0 00-.89-.69 1.67 1.67 0 00-1.16.15l-2.74 1.37a1.51 1.51 0 00-.54 2.06 1.5 1.5 0 00.9.68 1.59 1.59 0 001.15-.15zm1.56-12.31a8.36 8.36 0 003.15-.23 1.55 1.55 0 00.9-.69 1.5 1.5 0 00-.54-2 1.54 1.54 0 00-1.15-.15 8.55 8.55 0 01-.88.17l.4-.05a7.39 7.39 0 01-1.88 0 1.51 1.51 0 00-1.06.43 1.59 1.59 0 00-.44 1.07 1.56 1.56 0 00.44 1.06l.31.23a1.51 1.51 0 00.75.21zM108.65 317l1.82-1.16a1.55 1.55 0 00.69-.9 1.19 1.19 0 000-.59 1.12 1.12 0 00-.18-.56 1.52 1.52 0 00-.9-.69 1.49 1.49 0 00-1.15.15l-1.82 1.16a1.53 1.53 0 00-.69.89 1.22 1.22 0 000 .6 1.12 1.12 0 00.18.56 1.52 1.52 0 00.9.69 1.54 1.54 0 001.15-.15zm5.17-7.58l.45-.23a1.54 1.54 0 00.69-.89 1 1 0 000-.6 1.12 1.12 0 00-.18-.56l-.23-.3a1.49 1.49 0 00-.66-.39l-.4-.05a1.54 1.54 0 00-.76.2l-.46.23a1.21 1.21 0 00-.42.39 1.14 1.14 0 00-.27.51 1.11 1.11 0 000 .6 1.09 1.09 0 00.18.55l.23.31a1.57 1.57 0 00.66.38l.4.06a1.48 1.48 0 00.76-.21zm-.07 12.77h1.82a1.5 1.5 0 001.06-.44 1 1 0 00.31-.48 1.06 1.06 0 00.13-.58 1.46 1.46 0 00-.44-1.06 1.54 1.54 0 00-1.06-.44h-1.82a1.54 1.54 0 00-1.06.44 1.14 1.14 0 00-.31.48 1.08 1.08 0 00-.13.58 1.46 1.46 0 00.44 1.06 1.54 1.54 0 001.06.44zm1.69-20.66v4.11a1.5 1.5 0 003 0v-4.11a1.5 1.5 0 00-3 0z" fill="#565656"/><path d="M120.58 302.73l-1.82 1.6a1 1 0 00-.31.48 1.06 1.06 0 00-.13.58 1.08 1.08 0 00.13.58 1.14 1.14 0 00.31.48 1.5 1.5 0 001.06.44l.4-.06a1.57 1.57 0 00.66-.38l1.83-1.6a1.24 1.24 0 00.31-.48 1.29 1.29 0 00.13-.58 1.27 1.27 0 00-.13-.58 1.11 1.11 0 00-.31-.48 1.53 1.53 0 00-1.06-.44h-.4a1.47 1.47 0 00-.67.39zm.75 9.92a3.87 3.87 0 01-.5.86l.23-.3a3.65 3.65 0 01-.68.68l.31-.24-.3.21a1.65 1.65 0 00-.69.89 1.73 1.73 0 00.16 1.16 1.5 1.5 0 002 .54 7 7 0 00.75-.57 3.42 3.42 0 00.42-.43 4.88 4.88 0 00.84-1.28 1.12 1.12 0 00.18-.56 1 1 0 000-.6 1.54 1.54 0 00-.69-.89 1.5 1.5 0 00-1.15-.16l-.36.16a1.52 1.52 0 00-.54.53zm.04 8.89a13.4 13.4 0 01-2.38 2.38l.31-.24a1.18 1.18 0 00-.42.38 1.26 1.26 0 00-.27.51 1.57 1.57 0 00.16 1.16 1.5 1.5 0 00.89.69l.4.05a1.57 1.57 0 00.76-.2 15.52 15.52 0 001.57-1.35 11.68 11.68 0 001.14-1.29 1.14 1.14 0 00.31-.48 1.06 1.06 0 00.13-.58 1.5 1.5 0 00-1.5-1.5h-.4a1.49 1.49 0 00-.66.39zm2.23 13.65l-2.75-3a1.52 1.52 0 00-1.06-.44 1.54 1.54 0 00-1.07.44 1.49 1.49 0 00-.43 1.06 1.62 1.62 0 00.43 1.06l2.75 3a1.52 1.52 0 001.06.44 1.54 1.54 0 001.07-.44 1.51 1.51 0 00.43-1.06 1.6 1.6 0 00-.43-1.06zm-.13 5.02a6.35 6.35 0 01-1.57 0l.4.06a6.57 6.57 0 01-1.63-.45 1.52 1.52 0 00-1.16.15 1.59 1.59 0 00-.69.9A1.57 1.57 0 00119 342l.23.3a1.59 1.59 0 00.66.39 6.31 6.31 0 001.6.43 7.45 7.45 0 002 .07 1.15 1.15 0 00.58-.13 1.08 1.08 0 00.48-.31 1.52 1.52 0 00.44-1.06 1.5 1.5 0 00-.44-1.06 1.42 1.42 0 00-1.06-.44zm-.47 6.17h-2a1.54 1.54 0 00-1.06.44 1.14 1.14 0 00-.31.48 1.06 1.06 0 00-.13.58 1.5 1.5 0 00.44 1.06 1.54 1.54 0 001.06.44h2a1.54 1.54 0 001.06-.44 1.08 1.08 0 00.31-.48 1.06 1.06 0 00.13-.58 1.46 1.46 0 00-.44-1.06 1.54 1.54 0 00-1.06-.44zm1.16 3.44l-4.35.34a1.58 1.58 0 00-1.06.43 1.51 1.51 0 001.06 2.57l4.35-.34a1.63 1.63 0 001.06-.44 1.56 1.56 0 00.44-1.06 1.52 1.52 0 00-1.5-1.5zm-1.76 10.93A16 16 0 00119 368a1.5 1.5 0 102.89.8 13.63 13.63 0 01.42-1.76c.09-.29.19-.57.29-.86.06-.14.1-.28.17-.42-.17.35 0 0 0-.11a14.15 14.15 0 01.82-1.54c.16-.26.33-.52.5-.76l.27-.37.14-.18a1.61 1.61 0 00.44-1.06 1.5 1.5 0 00-.44-1.06 1.52 1.52 0 00-2.12 0zm.14 10.88a6.41 6.41 0 01-.05 1.24l.06-.4a6.11 6.11 0 01-.44 1.57l.15-.35a3.73 3.73 0 01-.16.35 1.62 1.62 0 00-.15 1.16 1.51 1.51 0 00.69.9 1.54 1.54 0 001.15.15 1.52 1.52 0 00.9-.69 7.87 7.87 0 00.85-3.93 1.63 1.63 0 00-.44-1.06 1.56 1.56 0 00-1.06-.44 1.54 1.54 0 00-1.06.44 1.49 1.49 0 00-.44 1.06zm1.88 11.81a14.09 14.09 0 01-1.36-.92l.3.23a14.11 14.11 0 01-1.79-1.67 1.52 1.52 0 00-1.06-.44 1.54 1.54 0 00-1.06.44 1.52 1.52 0 00-.44 1.06 1.63 1.63 0 00.44 1.06 14.69 14.69 0 003.45 2.8 1.56 1.56 0 001.16.15 1.54 1.54 0 00.89-.69 1.52 1.52 0 00-.53-2.05zm-1.01 9.38l-1.83-.68a1.12 1.12 0 00-.6 0 1.09 1.09 0 00-.55.18 1 1 0 00-.42.38 1.06 1.06 0 00-.27.51 1.51 1.51 0 00.15 1.16l.23.3a1.49 1.49 0 00.66.39l1.83.69a1.73 1.73 0 001.16-.16 1.18 1.18 0 00.42-.38 1.26 1.26 0 00.27-.51 1.56 1.56 0 00-.15-1.16l-.24-.3a1.49 1.49 0 00-.66-.39zm-.53 7.32a26.5 26.5 0 01-1.81 2.66l.24-.31c-.38.5-.78 1-1.19 1.44a1.56 1.56 0 00-.44 1.06 1.5 1.5 0 00.44 1.06 1.52 1.52 0 002.12 0 28.44 28.44 0 003.23-4.4 1.5 1.5 0 00-2.59-1.51zm-1.24 7.67a25.87 25.87 0 01-1.23 3.86 1.47 1.47 0 00.15 1.16 1.53 1.53 0 00.89.69 1.51 1.51 0 001.16-.15l.3-.24a1.39 1.39 0 00.39-.66 25.87 25.87 0 001.23-3.86 1.58 1.58 0 00-.15-1.15 1.49 1.49 0 00-.9-.69 1.51 1.51 0 00-1.84 1zm1.98 8.91l-2.29 1.58a1 1 0 00-.42.39 1 1 0 00-.27.51 1.08 1.08 0 000 .59 1.12 1.12 0 00.18.56 1.5 1.5 0 00.89.69 1.47 1.47 0 001.16-.15l2.3-1.58a1.21 1.21 0 00.42-.39 1.14 1.14 0 00.27-.51 1.11 1.11 0 000-.6 1.18 1.18 0 00-.17-.55 1.51 1.51 0 00-.9-.69 1.47 1.47 0 00-1.16.15zM124 423q-.3.45-.63.87l.23-.3a16.22 16.22 0 01-1.66 1.86 1.5 1.5 0 00-.44 1.06 1.52 1.52 0 00.44 1.06 1.5 1.5 0 001.06.45 1.63 1.63 0 001.06-.44 18.48 18.48 0 002.53-3 1.5 1.5 0 00-.54-2.05 1.54 1.54 0 00-1.15-.15 1.67 1.67 0 00-.9.69zm1.43 7.33l-2.28 3.2a1.5 1.5 0 001.69 2.2l.36-.15a1.4 1.4 0 00.54-.54l2.28-3.2a1.45 1.45 0 00.15-1.15 1.5 1.5 0 00-1.84-1.05l-.36.15a1.55 1.55 0 00-.54.54zm1.31 6.87l-5.74 1.08a1.49 1.49 0 00-1 1.84 1.53 1.53 0 001.84 1.05l5.73-1.08a1.5 1.5 0 001-1.84 1.52 1.52 0 00-1.84-1.05zm.61 7.65h-3a1.58 1.58 0 00-1.06.44 1.56 1.56 0 00-.44 1.06 1.54 1.54 0 00.44 1.06 1.58 1.58 0 001.06.44h3a1.59 1.59 0 001.07-.44 1.52 1.52 0 000-2.12 1.59 1.59 0 00-1.07-.44zm-.68 7.07l-2.28.26a1.06 1.06 0 00-.58.13 1 1 0 00-.48.31 1.5 1.5 0 00-.44 1.06 1.47 1.47 0 00.44 1.06 1.46 1.46 0 001.06.44l2.28-.26a1.17 1.17 0 00.58-.13 1.24 1.24 0 00.48-.31 1.56 1.56 0 00.44-1.06 1.54 1.54 0 00-.44-1.06 1.45 1.45 0 00-1.06-.44zm1.41 5.94a10 10 0 00-3.87 2.28 10.76 10.76 0 00-1.08 1.25 1.49 1.49 0 00-.16 1.15 1.5 1.5 0 001.85 1l.36-.15a1.55 1.55 0 00.54-.54l-.24.3a8.35 8.35 0 011.43-1.42l-.3.23a8.82 8.82 0 011.85-1.09l-.36.15c.24-.1.49-.19.73-.27a1.55 1.55 0 00.9-.69 1.49 1.49 0 00.15-1.15 1.52 1.52 0 00-1.84-1.05z" fill="#565656"/></svg>