<svg xmlns="http://www.w3.org/2000/svg" width="500" height="550" viewBox="0 0 500 550"><title>s05e04-02</title><polygon points="181.19 58.54 201.47 38.83 305.08 36.58 318.66 56.95 252.71 103.05 181.19 58.54" fill="#262521"/><path d="M310.78,56.83l-19-5.48c-48.16,30.16-87.35,0-87.35,0l-19.77,5.46,69,58.54,63-57Z" fill="#fff" stroke="#636363" stroke-linecap="round" stroke-linejoin="round"/><path d="M204.44,51.35s4,48.55,43.68,46.73,43.67-46.73,43.67-46.73" fill="none" stroke="#636363" stroke-linecap="round" stroke-linejoin="round" opacity="0.95"/><path d="M372.14,291.55q-.27,61.74-.62,123.47c-.81,9-2.21,42.49-5,51.07-.59,1.77-2,1.67-3.35,1.44-44.59-7.74-101.66-5.72-146.65-2.92-24.6.57-58.62-1.68-83,2.08-5.23.6-5.68.28-6.62-4.82-1.35-11.26-.86-123.68-3.07-170.84-1.42,2.83-2.94,5.6-4.29,8.46-2.37,10.67-17.5,9.3-11.81,16.18,11.11,7.95,6.41,21.38,5.15,32.56-.25,3.15-1.35,6.27-.37,9.58.51,8.44-3.19,16.94-4.38,25.31-1.5,8-2.61,15.83-1.54,23.93a5.1,5.1,0,0,1-1.13,3.3c-5.71,6.28-7.75,14-9.19,22.06-.57,3.18-.61,3-3.74,2-12.38-3.52-26.09-4.38-38.6-1.18-1.39.34-2.11,0-2.41-1.47-2-7.76-2.18-16.67-8.49-22.43a6.62,6.62,0,0,1-1.33-3.22A144.46,144.46,0,0,1,39,372.86c-1.91-63,2.6-126.93,26.19-186,13.61-35.43,24.56-73.32,48.07-103.67,27.32-18.2,42.2-17.85,72.63-28.88,26,44.54,65.32,51.34,65.81,51.88,12.69-2.58,63.32-50.76,67-49.23,29.12,10.5,33.87,6.09,60.26,23.26,15.94,14.59,21.63,38,30.45,57.21,27.81,67.48,58,137.39,51.05,212.07-1.19,18.66-.23,37.46-3.28,56-.49,4.66-5.21,7.09-5.56,11.78-1.22,5.28-2.08,10.65-2.91,16-.4,2.6-.41,2.83-3.08,2.33-12.48-2.66-25.26-5.49-37.8-1.58-8.34-.15-8.13-15.56-11.44-21.4-6.28-7.37-3.61-9-5.33-17.64-.9-9.7-4.68-20.27.79-29.26,2-3.53,1.86-7.05.51-10.66-4.9-11.28-7.4-23.42-10.45-35.29-1.07-4.3-1.31-8.49,1.61-12.34,1.51-7.23-10.43-8.68-10.93-15.93Z" fill="#262521" stroke="#262521" stroke-linecap="round" stroke-linejoin="round" stroke-width="3"/><path d="M248.12,92.78c-10.72,0-55.71-31.58-57.08-37.72s9-7.59,16.56-9c16.21-3,67.31-4.92,82.68-2.58,9.26,1.41,23.26,3.73,20,12.79C307.78,63.33,258.83,92.78,248.12,92.78Zm90-34.35c-5.35-3.37-4.85-8.67-6.86-12.68s-8.35,1-8.35,1-6.52-9.52-10.7-14.76-55.67,1.23-55.67,1.23l-6,0c-10.95-1.37-57.91-4.79-63.07,2.3-5.85,8-7.19,8-7.19,8s-4.85-4.85-8.69,0S150.55,61,153.89,67.32C184.67,71,243,121.5,253.68,121.5c6.05,0,31.76-30.79,63-47.24,14.78-7.78,26.77-8.37,28.26-8.82C350,63.94,343.45,61.8,338.1,58.43Z" fill="#262521"/><path d="M248.12,92.78c-10.72,0-55.71-31.58-57.08-37.72s9-7.59,16.56-9c16.21-3,67.31-4.92,82.68-2.58,9.26,1.41,23.26,3.73,20,12.79C307.78,63.33,258.83,92.78,248.12,92.78Zm90-34.35c-5.35-3.37-4.85-8.67-6.86-12.68s-8.35,1-8.35,1-6.52-9.52-10.7-14.76-55.67,1.23-55.67,1.23l-6,0c-10.95-1.37-57.91-4.79-63.07,2.3-5.85,8-7.19,8-7.19,8s-4.85-4.85-8.69,0S150.55,61,153.89,67.32C184.67,71,243,121.5,253.68,121.5c6.05,0,31.76-30.79,63-47.24,14.78-7.78,26.77-8.37,28.26-8.82C350,63.94,343.45,61.8,338.1,58.43Z" fill="none" stroke="#262521" stroke-linecap="round" stroke-linejoin="round" stroke-width="3"/><path d="M156.08,68.23c18-2.15,88.67,44.31,97,44.31s45.11-39.74,88.27-46.6" fill="none" stroke="#636363" stroke-linecap="round" stroke-linejoin="round" opacity="0.95"/><path d="M161.27,183.72l.11-2.79L155,182.86l-1.54,12.36,2.84-2.55-1.78,14.5,2.83-.6,0,1.89,3.89-1.1.7-7.78s9.57-3.49,9.78-9.6S168,181.3,161.27,183.72Zm-3.45,2.15,2,0-1.9,2.29Zm1.37,16.21c-.32,0-.09-3.73-.09-3.73l2.28-.36S159.52,202.07,159.19,202.08Zm.36-8.55,1.33-6.19c5.45-2.56,5.07,1.3,3.94,3.52S159.55,193.53,159.55,193.53Zm8.68-1.09c-1,2.45-4.55,2.89-4.55,2.89l.23-2.73a4.3,4.3,0,0,0,2.34-3.67S170,188.07,168.23,192.44Z" fill="#fff"/><path d="M163.85,180.87l.11-2.79L157.55,180,156,192.38l2.84-2.56-1.79,14.5,2.83-.6.05,1.89,3.88-1.1.71-7.78s9.57-3.49,9.78-9.6S170.56,178.46,163.85,180.87ZM160.4,183l2-.05-1.9,2.3Zm1.37,16.2c-.32,0-.09-3.73-.09-3.73l2.27-.35S162.1,199.22,161.77,199.23Zm.36-8.54,1.33-6.2c5.45-2.56,5.07,1.3,3.94,3.52S162.13,190.69,162.13,190.69Zm8.68-1.1c-1,2.45-4.55,2.89-4.55,2.89l.23-2.73a4.3,4.3,0,0,0,2.34-3.67S172.6,185.23,170.81,189.59Z" fill="#b0b1b5"/><path d="M197.21,194.37s-1.9,2.22-2.39,2.19c0,0,3.24-15.5-9-14.22l.2-1.66s-12.29,3.24-10.86,19.37l2-.05s1.66,7.74,6.8,7.86a7.76,7.76,0,0,0,7.13-4,8,8,0,0,1-.7,3.82A14.37,14.37,0,0,0,197.21,194.37Zm-18.64-.2c.05-4.07,3.62-6.42,3.62-6.42ZM189,200.43c-1.5,4-4.76,3.26-4.76,3.26l0-1.72s-2.9,1.66-3.12-4.76,3.3-8,4.87-8.14,1.93,3.16,1.93,3.16,1.08-1,1.71-.55S190.53,196.43,189,200.43Z" fill="#fff"/><path d="M198.8,191.52s-1.91,2.22-2.4,2.18c0,0,3.24-15.49-9-14.22l.21-1.65s-12.29,3.23-10.86,19.36l2,0s1.65,7.73,6.8,7.85a7.78,7.78,0,0,0,7.13-4,8.15,8.15,0,0,1-.71,3.83A14.37,14.37,0,0,0,198.8,191.52Zm-18.64-.21c.05-4.06,3.62-6.41,3.62-6.41Zm10.46,6.27c-1.5,4-4.76,3.25-4.76,3.25l-.05-1.71s-2.89,1.66-3.11-4.76,3.3-8,4.87-8.15,1.93,3.16,1.93,3.16,1.08-1,1.7-.55S192.11,193.58,190.62,197.58Z" fill="#b0b1b5"/><path d="M217.06,194.63l-2,.05s1-3.12-4.73-3.34c0,0-.59-1.34-3.29-1.52,0,0-3.33-.9-2-2.89s2.07-.31,6.35-.89c1.1-.15,1.6.33,1.64,1.8l2.69.12s2-4.46-1.68-6.14c0,0-2.78-3.55-7.55-.74a7.69,7.69,0,0,1,.87-2.16s-6.28,1.13-7.5,6.54.4,6.24.4,6.24l1.53,0s0,3.8,5.94,2.74l0,1.41s5.92-.58,4.13,3.88-5.79,3.63-6.51,1.5l-1.65.1s-1.47-2.22-.88-3.49l-3.22,1s-.54,3.34,2.9,6.37,7.59-.19,7.59-.19l.18,2.2s5.15-2.09,6.53-5.92A9.89,9.89,0,0,0,217.06,194.63Zm-11.89-10.4-1.65,2.55S202.72,184.11,205.17,184.23Zm7.58,17.15c.29-.56.87-2.1.87-2.1C214.59,201.34,212.46,201.94,212.75,201.38Z" fill="#fff"/><path d="M218.79,192.78l-2,.05s1-3.12-4.73-3.35c0,0-.59-1.33-3.29-1.51,0,0-3.32-.9-2-2.89s2.06-.31,6.34-.89c1.1-.15,1.6.33,1.64,1.8l2.69.12s2-4.46-1.67-6.15c0,0-2.78-3.54-7.55-.73a7.74,7.74,0,0,1,.86-2.17s-6.28,1.14-7.49,6.55.39,6.24.39,6.24l1.53,0s0,3.8,5.95,2.74l0,1.41s5.93-.58,4.13,3.88-5.79,3.63-6.51,1.5l-1.65.1s-1.46-2.22-.88-3.5l-3.21,1s-.55,3.34,2.89,6.37,7.59-.19,7.59-.19l.18,2.19s5.15-2.08,6.53-5.91A9.89,9.89,0,0,0,218.79,192.78Zm-11.89-10.4-1.65,2.55S204.45,182.26,206.9,182.38Zm7.58,17.15c.3-.56.87-2.1.87-2.1C216.32,199.48,214.19,200.09,214.48,199.53Z" fill="#b0b1b5"/><path d="M237.63,194.29l-2,.05s1-3.12-4.74-3.35c0,0-.58-1.33-3.28-1.51,0,0-3.33-.9-2-2.89s2.07-.31,6.35-.89c1.1-.15,1.6.33,1.63,1.8l2.7.12s2-4.46-1.68-6.15c0,0-2.78-3.54-7.55-.73a7.84,7.84,0,0,1,.87-2.17s-6.28,1.13-7.5,6.55.4,6.24.4,6.24l1.53,0s0,3.8,5.94,2.74l0,1.4s5.92-.57,4.13,3.88-5.79,3.63-6.52,1.51l-1.65.1s-1.46-2.23-.88-3.5l-3.21,1s-.54,3.33,2.9,6.36,7.59-.18,7.59-.18l.17,2.19s5.16-2.08,6.54-5.91A10,10,0,0,0,237.63,194.29Zm-11.89-10.4-1.65,2.55S223.29,183.77,225.74,183.89ZM233.32,201c.29-.56.87-2.11.87-2.11C235.15,201,233,201.6,233.32,201Z" fill="#fff"/><path d="M239.36,192.44l-2,.05s1-3.12-4.74-3.35c0,0-.58-1.33-3.28-1.51,0,0-3.33-.9-2-2.89s2.07-.31,6.35-.89c1.1-.15,1.6.33,1.63,1.8l2.7.12s2-4.46-1.68-6.15c0,0-2.78-3.54-7.55-.73a7.84,7.84,0,0,1,.87-2.17s-6.28,1.13-7.5,6.55.4,6.24.4,6.24l1.53,0s0,3.8,5.94,2.74l0,1.4s5.92-.57,4.13,3.88-5.79,3.63-6.51,1.51l-1.66.1s-1.46-2.23-.88-3.5l-3.21,1s-.54,3.34,2.9,6.37,7.59-.18,7.59-.18l.18,2.19s5.15-2.08,6.53-5.91A10,10,0,0,0,239.36,192.44ZM227.47,182l-1.65,2.55S225,181.91,227.47,182Zm7.58,17.15c.29-.56.87-2.11.87-2.11C236.89,199.14,234.76,199.74,235.05,199.19Z" fill="#b0b1b5"/><path d="M278.75,193.12l-2,0s1-3.12-4.73-3.35c0,0-.58-1.33-3.28-1.51,0,0-3.33-.9-2-2.89s2.06-.31,6.35-.89c1.09-.15,1.6.33,1.63,1.8l2.7.12s2-4.46-1.68-6.15c0,0-2.78-3.54-7.55-.73a7.84,7.84,0,0,1,.87-2.17s-6.28,1.13-7.5,6.55.39,6.24.39,6.24l1.53,0s0,3.8,5.95,2.73l0,1.41s5.93-.57,4.14,3.88-5.79,3.63-6.52,1.51l-1.65.1s-1.46-2.23-.88-3.5l-3.21,1s-.54,3.34,2.9,6.37,7.59-.18,7.59-.18l.17,2.19s5.16-2.08,6.53-5.91A9.89,9.89,0,0,0,278.75,193.12Zm-11.88-10.4-1.66,2.55S264.42,182.59,266.87,182.72Zm7.58,17.15c.29-.56.86-2.11.86-2.11C276.28,199.82,274.15,200.42,274.45,199.87Z" fill="#fff"/><path d="M280.48,191.27l-2,0s1-3.12-4.73-3.35c0,0-.58-1.33-3.28-1.51,0,0-3.33-.9-2-2.89s2.06-.31,6.35-.89c1.09-.15,1.6.33,1.63,1.8l2.7.12s2-4.46-1.68-6.15c0,0-2.78-3.54-7.55-.74a7.81,7.81,0,0,1,.87-2.16s-6.28,1.13-7.5,6.55.4,6.24.4,6.24l1.53,0s0,3.79,5.94,2.73l0,1.41s5.93-.57,4.14,3.88-5.79,3.63-6.52,1.51l-1.65.1s-1.46-2.23-.88-3.5l-3.21,1s-.54,3.34,2.9,6.37,7.59-.18,7.59-.18l.17,2.19s5.16-2.08,6.53-5.91A9.89,9.89,0,0,0,280.48,191.27Zm-11.88-10.4L267,183.42S266.15,180.74,268.6,180.87ZM276.18,198c.29-.55.86-2.1.86-2.1C278,198,275.88,198.57,276.18,198Z" fill="#b0b1b5"/><path d="M299.24,192.47l-2,.05s1-3.12-4.73-3.35c0,0-.58-1.33-3.28-1.51,0,0-3.33-.9-2-2.89s2.06-.31,6.35-.89c1.09-.15,1.6.33,1.63,1.8l2.7.12s2-4.46-1.68-6.15c0,0-2.78-3.54-7.55-.73a7.84,7.84,0,0,1,.87-2.17s-6.28,1.14-7.5,6.55.39,6.24.39,6.24l1.53,0s0,3.8,5.95,2.74l0,1.41s5.93-.58,4.14,3.88-5.79,3.63-6.52,1.5l-1.65.1s-1.46-2.22-.88-3.5l-3.21,1s-.54,3.34,2.9,6.37,7.59-.19,7.59-.19l.17,2.19s5.16-2.08,6.53-5.91A9.89,9.89,0,0,0,299.24,192.47Zm-11.88-10.4-1.65,2.55S284.91,182,287.36,182.07Zm7.58,17.15c.29-.56.86-2.1.86-2.1C296.77,199.17,294.64,199.78,294.94,199.22Z" fill="#fff"/><path d="M301,190.62l-2,0s1-3.12-4.74-3.35c0,0-.58-1.33-3.28-1.51,0,0-3.33-.9-2-2.89s2.07-.31,6.35-.89c1.1-.15,1.6.33,1.63,1.8l2.7.12s2-4.46-1.68-6.15c0,0-2.78-3.54-7.55-.73a7.84,7.84,0,0,1,.87-2.17s-6.28,1.13-7.5,6.55.4,6.24.4,6.24l1.53,0s0,3.8,5.94,2.74l0,1.4s5.93-.57,4.14,3.88-5.79,3.64-6.52,1.51l-1.65.1s-1.46-2.22-.88-3.5l-3.21,1s-.54,3.33,2.9,6.37,7.59-.19,7.59-.19l.17,2.19s5.16-2.08,6.54-5.91A10,10,0,0,0,301,190.62Zm-11.89-10.4-1.65,2.55S286.64,180.1,289.09,180.22Zm7.58,17.15c.29-.56.87-2.1.87-2.1C298.5,197.32,296.37,197.93,296.67,197.37Z" fill="#b0b1b5"/><polygon points="241.99 181.09 241.03 194.35 243.26 191.11 242 204.77 244.67 203.56 244.24 205.62 253 203.36 252.67 205.97 257.71 204.39 257.98 202.1 254.73 202.67 254.98 199.72 248.03 201.46 248.6 198.73 246.86 198.77 245.93 199.93 246.59 194.22 248.95 193.49 249.02 196.29 256.81 193.3 256.88 189.51 252.54 190.65 252.57 188.59 247.35 189.74 247.57 185.31 254.03 183.34 254.09 185.86 258.97 184.11 258.88 180.17 256.98 180.73 256.85 178.47 248.95 180.01 248.92 179.02 241.99 181.09" fill="#fff"/><polygon points="243.37 179.28 242.42 192.54 244.65 189.3 243.39 202.96 246.06 201.75 245.63 203.81 254.39 201.55 254.06 204.16 259.1 202.58 259.36 200.29 256.12 200.86 256.37 197.9 249.42 199.64 249.99 196.92 248.24 196.96 247.32 198.12 247.97 192.41 250.34 191.68 250.41 194.48 258.2 191.49 258.26 187.7 253.92 188.84 253.95 186.78 248.74 187.93 248.95 183.49 255.41 181.53 255.48 184.05 260.36 182.29 260.26 178.36 258.37 178.91 258.24 176.66 250.33 178.2 250.31 177.21 243.37 179.28" fill="#b0b1b5"/><polyline points="250.33 178.2 250.31 177.21 243.37 179.28" fill="#b0b1b5"/><polygon points="303.89 179.8 302.94 193.06 305.17 189.82 303.91 203.48 306.58 202.27 306.15 204.33 314.91 202.07 314.58 204.68 319.62 203.1 319.88 200.81 316.64 201.38 316.89 198.43 309.94 200.17 310.51 197.44 308.77 197.48 307.84 198.64 308.5 192.93 310.86 192.2 310.93 195 318.72 192.01 318.79 188.22 314.45 189.36 314.48 187.3 309.26 188.45 309.48 184.02 315.94 182.05 316 184.57 320.88 182.82 320.79 178.88 318.89 179.44 318.76 177.19 310.86 178.73 310.83 177.73 303.89 179.8" fill="#fff"/><polygon points="305.28 177.99 304.33 191.25 306.55 188.01 305.3 201.67 307.97 200.46 307.54 202.52 316.3 200.26 315.96 202.87 321.01 201.29 321.27 199 318.03 199.57 318.27 196.62 311.33 198.35 311.9 195.63 310.15 195.67 309.23 196.83 309.88 191.12 312.25 190.39 312.32 193.19 320.11 190.2 320.17 186.41 315.83 187.55 315.86 185.49 310.65 186.64 310.86 182.21 317.32 180.24 317.38 182.76 322.27 181.01 322.17 177.07 320.28 177.63 320.14 175.38 312.24 176.91 312.22 175.92 305.28 177.99" fill="#b0b1b5"/><path d="M343,185.61l-1.73.62s-.92-9.68-12.05-5.85l.41-2.55-5,1.46-1.3,8.78,2.63-2.73-1.86,14.86,2.5-1.78-1.87,4.86,7-1.12-.74,2.12s9.52-3.45,11.35-10.08S343,185.61,343,185.61Zm-13.34,13.21,1-7.72-3.26,3.38,2.36-11s8,.07,7.52,5.64S334.08,198.47,329.64,198.82Zm5.49.3c.14-.9,3.94-7.7,3.94-7.7C339.74,196.17,335,200,335.13,199.12Z" fill="#fff"/><path d="M344.63,183.05l-1.74.61s-.84-9.69-12-5.95l.43-2.54-5,1.41L325,185.35l2.65-2.7-2,14.84,2.51-1.76-1.91,4.85,7.05-1.07-.76,2.11s9.56-3.36,11.43-10S344.63,183.05,344.63,183.05Zm-13.45,13.1,1.07-7.7L329,191.8l2.44-11s8,.13,7.48,5.7S335.63,195.84,331.18,196.15Zm5.49.35c.14-.9,4-7.67,4-7.67C341.31,193.58,336.52,197.39,336.67,196.5Z" fill="#b0b1b5"/><path d="M223.66,93q1.88,26.52,2.5,53.1t0,53.41q-.35,15-1.11,30c-.09,1.93,2.91,1.93,3,0q1.34-26.55,1.42-53.14T228.38,123q-.66-15-1.72-30c-.13-1.91-3.13-1.93-3,0Z" fill="#636363"/><path d="M227.25,215.2A2.45,2.45,0,0,0,225,217a2.57,2.57,0,0,0,.63,2.6,2.66,2.66,0,0,0,3.16.28,2.79,2.79,0,0,0,1.38-2.76,3,3,0,0,0-.76-1.61,3.3,3.3,0,0,0-1.35-.88,3.14,3.14,0,0,0-2.86.39,3.87,3.87,0,0,0-1.63,2.41,3.92,3.92,0,0,0,0,1.6,3.23,3.23,0,0,0,.72,1.4,2.6,2.6,0,0,0,3.31.55,2.5,2.5,0,0,0,1-3.37,1.61,1.61,0,0,0-.9-.68,1.49,1.49,0,0,0-1.69,2.2l.06.12-.15-.36a.73.73,0,0,1,0,.2l0-.4v.17l0-.4a1.05,1.05,0,0,1-.06.24l.15-.36a.92.92,0,0,1-.16.27l.24-.31a1.25,1.25,0,0,1-.23.23l.31-.24a1.5,1.5,0,0,1-.32.19l.36-.15-.26.07.39-.06a.81.81,0,0,1-.27,0l.4,0a.92.92,0,0,1-.27-.08l.36.15a2,2,0,0,1-.25-.14l.31.23a1.72,1.72,0,0,1-.27-.27l.23.3a1.79,1.79,0,0,1-.22-.38l.16.36a2,2,0,0,1-.14-.53l.05.39a2.53,2.53,0,0,1,0-.55l-.05.4a2.56,2.56,0,0,1,.15-.56l-.15.36a2.37,2.37,0,0,1,.31-.53l-.24.31a2.86,2.86,0,0,1,.42-.43l-.3.23a2.13,2.13,0,0,1,.46-.27l-.35.15a1.86,1.86,0,0,1,.46-.13l-.4,0a2.06,2.06,0,0,1,.43,0l-.4,0a2,2,0,0,1,.42.11l-.36-.15a1.76,1.76,0,0,1,.42.24l-.31-.23a1.72,1.72,0,0,1,.31.29l-.24-.3a1.65,1.65,0,0,1,.22.36l-.16-.36a1.54,1.54,0,0,1,.1.35l0-.4a1.6,1.6,0,0,1,0,.31l0-.4a1.09,1.09,0,0,1-.08.31l.15-.36a1.61,1.61,0,0,1-.17.28l.24-.3a2.23,2.23,0,0,1-.27.26l.31-.23a3.37,3.37,0,0,1-.32.19l.36-.16a1.15,1.15,0,0,1-.35.1l.39-.05a1.07,1.07,0,0,1-.31,0l.4.06-.26-.07.36.15a1.18,1.18,0,0,1-.19-.11l.3.23a.81.81,0,0,1-.16-.16l.23.3a.72.72,0,0,1-.11-.19l.15.36a1.11,1.11,0,0,1-.08-.3l.05.4a1.61,1.61,0,0,1,0-.31l-.05.4a1.31,1.31,0,0,1,.09-.34l-.15.35a1.35,1.35,0,0,1,.15-.26l-.24.3.18-.18-.3.23.19-.1-.36.15.18,0-.4,0h.12a1.5,1.5,0,0,0,0-3Z" fill="#636363"/><path d="M275.74,91.12c1.24,17.65,1.49,35.35,1.51,53s-.2,35.44.13,53.16c.19,10.12.56,20.23,1.24,30.33.13,1.91,3.13,1.93,3,0-1.19-17.76-1.42-35.56-1.43-53.36s.2-35.39-.15-53.08c-.21-10-.6-20.08-1.3-30.1-.13-1.92-3.13-1.93-3,0Z" fill="#636363"/><path d="M280.33,213.32a2.47,2.47,0,0,0-2.31,1.82,2.62,2.62,0,0,0,.64,2.61,2.66,2.66,0,0,0,3.16.27,2.78,2.78,0,0,0,1.38-2.75,3.09,3.09,0,0,0-.76-1.62,3.41,3.41,0,0,0-1.35-.88,3.17,3.17,0,0,0-2.86.4,3.85,3.85,0,0,0-1.63,2.4,4,4,0,0,0,0,1.61,3.25,3.25,0,0,0,.72,1.39,2.59,2.59,0,0,0,3.31.55,2.48,2.48,0,0,0,1-3.36,1.5,1.5,0,1,0-2.59,1.51.75.75,0,0,1,.07.12L279,217a1.29,1.29,0,0,1,0,.21l0-.4V217l0-.4a1,1,0,0,1-.06.25l.15-.36a1.4,1.4,0,0,1-.16.26l.24-.3a2.39,2.39,0,0,1-.23.22l.3-.23a1.92,1.92,0,0,1-.31.18l.36-.15a1.34,1.34,0,0,1-.27.07l.4,0h-.27l.4,0a.92.92,0,0,1-.27-.08l.36.16a2.07,2.07,0,0,1-.25-.15l.3.23a1.72,1.72,0,0,1-.27-.27l.24.31a2.08,2.08,0,0,1-.22-.38l.15.35a2.44,2.44,0,0,1-.14-.53l.06.4a2.62,2.62,0,0,1,0-.56l-.05.4a2.21,2.21,0,0,1,.15-.56l-.15.36a2.43,2.43,0,0,1,.3-.52l-.23.3a2.44,2.44,0,0,1,.42-.43l-.3.24a2.18,2.18,0,0,1,.46-.28l-.36.15a2.52,2.52,0,0,1,.47-.13l-.4.06a2.08,2.08,0,0,1,.43,0l-.4,0a2.17,2.17,0,0,1,.42.11l-.36-.15a2.75,2.75,0,0,1,.41.24l-.3-.23a2.13,2.13,0,0,1,.3.3l-.23-.31a1.47,1.47,0,0,1,.21.36l-.15-.36a1.48,1.48,0,0,1,.1.36l-.06-.4a1,1,0,0,1,0,.3l0-.4a1.11,1.11,0,0,1-.09.31l.16-.35a1.53,1.53,0,0,1-.17.27l.24-.3a1.66,1.66,0,0,1-.27.26l.31-.23a2.07,2.07,0,0,1-.32.19l.35-.15a1.79,1.79,0,0,1-.35.1l.4-.06a1.06,1.06,0,0,1-.31,0l.4.05a1.11,1.11,0,0,1-.26-.07l.36.15-.2-.11.31.23a.85.85,0,0,1-.17-.16l.24.31a1.06,1.06,0,0,1-.12-.2l.15.36a1.46,1.46,0,0,1-.07-.3l.05.4a1.6,1.6,0,0,1,0-.31l-.05.4a1,1,0,0,1,.09-.34l-.16.36a2.34,2.34,0,0,1,.15-.27l-.23.31a1.07,1.07,0,0,1,.18-.19l-.3.24a.72.72,0,0,1,.19-.11l-.36.15.18,0-.4.06h.12a1.5,1.5,0,0,0,0-3Z" fill="#636363"/><polygon points="328.54 408.09 327.21 415.3 356.3 421.19 357.63 414.15 328.54 408.09" fill="#494843"/><path d="M330.54,412.64a105.27,105.27,0,0,0-3,19.76c-.33,9.55-2.44,14.21-2.44,14.21s13.77,3.55,21.87.56l6.66-30Z" fill="#fff"/></svg>