<svg xmlns="http://www.w3.org/2000/svg" xmlns:xlink="http://www.w3.org/1999/xlink" width="500" height="550" viewBox="0 0 500 550"><defs><pattern id="a" width="20.13" height="16.91" patternTransform="translate(-7.91 -0.07) scale(1.77)" patternUnits="userSpaceOnUse" viewBox="0 0 20.13 16.91"><rect width="20.13" height="16.91" fill="none"/><rect y="12.68" width="20.13" height="8.46" fill="#444341"/><line y1="13.71" x2="5.05" y2="13.71" fill="none" stroke="#6d6b69" stroke-linejoin="round"/><line x1="8.46" y1="13.71" x2="20.13" y2="13.71" fill="none" stroke="#6d6b69" stroke-linejoin="round"/><line x1="1.52" y1="15.73" x2="11.74" y2="15.73" fill="none" stroke="#6d6b69" stroke-linejoin="round"/><line x1="16.44" y1="15.73" x2="19.33" y2="15.73" fill="none" stroke="#6d6b69" stroke-linejoin="round"/><line x1="12.57" y1="16.91" x2="15.46" y2="16.91" fill="none" stroke="#6d6b69" stroke-linejoin="round"/><line x1="6.38" y1="14.7" x2="7.61" y2="14.7" fill="none" stroke="#6d6b69" stroke-linejoin="round"/><rect y="4.23" width="20.13" height="8.46" fill="#444341"/><line y1="5.25" x2="5.05" y2="5.25" fill="none" stroke="#6d6b69" stroke-linejoin="round"/><line x1="8.46" y1="5.25" x2="20.13" y2="5.25" fill="none" stroke="#6d6b69" stroke-linejoin="round"/><line x1="1.52" y1="7.27" x2="11.74" y2="7.27" fill="none" stroke="#6d6b69" stroke-linejoin="round"/><line x1="16.44" y1="7.27" x2="19.33" y2="7.27" fill="none" stroke="#6d6b69" stroke-linejoin="round"/><line x1="12.57" y1="8.45" x2="15.46" y2="8.45" fill="none" stroke="#6d6b69" stroke-linejoin="round"/><line x1="16.44" y1="9.51" x2="19.33" y2="9.51" fill="none" stroke="#6d6b69" stroke-linejoin="round"/><line x1="6.38" y1="6.25" x2="7.61" y2="6.25" fill="none" stroke="#6d6b69" stroke-linejoin="round"/><line x1="4.23" y1="10.47" x2="5.46" y2="10.47" fill="none" stroke="#6d6b69" stroke-linejoin="round"/><line x1="12.44" y1="12.15" x2="13.67" y2="12.15" fill="none" stroke="#6d6b69" stroke-linejoin="round"/><line x1="1.8" y1="11.43" x2="11.9" y2="11.43" fill="none" stroke="#6d6b69" stroke-linejoin="round"/><line x1="6.7" y1="9.51" x2="13.85" y2="9.51" fill="none" stroke="#6d6b69" stroke-linejoin="round"/><line x1="15.14" y1="11.43" x2="20.13" y2="11.43" fill="none" stroke="#6d6b69" stroke-linejoin="round"/><line y1="9.51" x2="3.15" y2="9.51" fill="none" stroke="#6d6b69" stroke-linejoin="round"/><rect y="-4.23" width="20.13" height="8.46" fill="#444341"/><line x1="12.57" x2="15.46" fill="none" stroke="#6d6b69" stroke-linejoin="round"/><line x1="16.44" y1="1.06" x2="19.33" y2="1.06" fill="none" stroke="#6d6b69" stroke-linejoin="round"/><line x1="4.23" y1="2.01" x2="5.46" y2="2.01" fill="none" stroke="#6d6b69" stroke-linejoin="round"/><line x1="12.44" y1="3.69" x2="13.67" y2="3.69" fill="none" stroke="#6d6b69" stroke-linejoin="round"/><line x1="1.8" y1="2.98" x2="11.9" y2="2.98" fill="none" stroke="#6d6b69" stroke-linejoin="round"/><line x1="6.7" y1="1.06" x2="13.85" y2="1.06" fill="none" stroke="#6d6b69" stroke-linejoin="round"/><line x1="15.14" y1="2.98" x2="20.13" y2="2.98" fill="none" stroke="#6d6b69" stroke-linejoin="round"/><line y1="1.06" x2="3.15" y2="1.06" fill="none" stroke="#6d6b69" stroke-linejoin="round"/></pattern></defs><title>s05e03-02</title><path d="M203.52,97.3c8.68,9.61,67.43,10.58,79.89,10.78,13,.21,32.67-43.61,34.06-50,.1-.45.18-.91.28-1.37-8.86-2.46-17.68-5-26.27-8.07-3.67-1.54-5,3.72-7.87,5C266.25,64.05,244.15,60.93,225,58.5c-7.1-1.26-13.56-4.12-18.56-9.67a3.16,3.16,0,0,0-2.72-.43c-5.64,2-11.36,3.9-17.1,5.68C187.38,57.36,198.11,91.29,203.52,97.3Z" fill="#262521"/><path d="M372.14,291.55q-.27,61.74-.62,123.47c-.81,9-2.68,16.41-3.55,25.44-1,10.07,1.34,17.05-1.5,25.63-.59,1.77-2,1.67-3.35,1.44-44.59-7.74-101.66-5.72-146.65-2.92-24.6.57-58.62-1.68-83,2.09-5.23.59-5.68.27-6.62-4.83-1.35-11.26,1.94-18.53.53-29.31-6.15-46.82-1.39-94.37-3.6-141.53-1.42,2.83-2.94,5.6-4.29,8.46-2.37,10.67-17.5,9.3-11.81,16.18,11.11,7.95,6.41,21.38,5.15,32.56-.25,3.15-1.35,6.27-.37,9.58.51,8.44-3.19,16.94-4.38,25.31-1.5,8-10.42,41.28-11.86,49.29-.57,3.18-.61,3-3.74,2-12.38-3.52-26.09-4.38-38.6-1.18-1.39.34-2.11,0-2.41-1.47-2-7.76.82-16.67-5.49-22.43a6.62,6.62,0,0,1-1.33-3.22c-2.23-11-6.07-22.12-5.72-33.3-1.91-63,2.6-126.93,26.19-186,13.61-35.43,24.56-73.32,48.07-103.67,27.32-18.2,60-23.76,90.46-34.78.8-.26,4.93,46.66,41.09,46.66,46.16,0,44-48.47,47.71-46.93,29.12,10.49,60,14.91,86.44,32.08,15.94,14.59,21.63,38,30.45,57.21,27.81,67.48,58,137.39,51.05,212.08-1.19,18.65-.23,37.45-3.28,55.95-.49,4.66-5.21,7.1-5.56,11.78-1.22,5.28-2.08,10.65-2.91,16-.4,2.6-.41,2.83-3.08,2.33-12.48-2.66-25.26-5.49-37.8-1.58-8.34-.15-8.13-15.56-11.44-21.4-6.28-7.37-3.61-9-5.33-17.64-.9-9.7-4.68-20.27.79-29.26,2-3.53,1.86-7.05.51-10.66-4.9-11.28-7.4-23.41-10.45-35.29-1.07-4.3-1.31-8.49,1.61-12.34,1.51-7.23-10.43-8.68-10.93-15.93Z" fill="url(#a)"/><path d="M372.14,291.55q-.27,61.74-.62,123.47c-.81,9-2.68,16.41-3.55,25.44-1,10.07,1.34,17.05-1.5,25.63-.59,1.77-2,1.67-3.35,1.44-44.59-7.74-101.66-5.72-146.65-2.92-24.6.57-58.62-1.68-83,2.09-5.23.59-5.68.27-6.62-4.83-1.35-11.26,1.94-18.53.53-29.31-6.15-46.82-1.39-94.37-3.6-141.53-1.42,2.83-2.94,5.6-4.29,8.46-2.37,10.67-17.5,9.3-11.81,16.18,11.11,7.95,6.41,21.38,5.15,32.56-.25,3.15-1.35,6.27-.37,9.58.51,8.44-3.19,16.94-4.38,25.31-1.5,8-10.42,41.28-11.86,49.29-.57,3.18-.61,3-3.74,2-12.38-3.52-26.09-4.38-38.6-1.18-1.39.34-2.11,0-2.41-1.47-2-7.76.82-16.67-5.49-22.43a6.62,6.62,0,0,1-1.33-3.22c-2.23-11-6.07-22.12-5.72-33.3-1.91-63,2.6-126.93,26.19-186,13.61-35.43,24.56-73.32,48.07-103.67,27.32-18.2,60-23.76,90.46-34.78a3.16,3.16,0,0,1,2.72.43c5,5.55,11.46,8.41,18.56,9.67,19.19,2.43,41.29,5.55,58.65-4.88,2.85-1.27,4.2-6.53,7.87-5,29.12,10.49,61,14.41,87.44,31.58,15.94,14.59,21.63,38,30.45,57.21,27.81,67.48,58,137.39,51.05,212.08-1.19,18.65-.23,37.45-3.28,55.95-.49,4.66-5.21,7.1-5.56,11.78-1.22,5.28-2.08,10.65-2.91,16-.4,2.6-.41,2.83-3.08,2.33-12.48-2.66-25.26-5.49-37.8-1.58-8.34-.15-8.13-15.56-11.44-21.4-6.28-7.37-3.61-9-5.33-17.64-.9-9.7-4.68-20.27.79-29.26,2-3.53,1.86-7.05.51-10.66-4.9-11.28-7.4-23.41-10.45-35.29-1.07-4.3-1.31-8.49,1.61-12.34,1.51-7.23-10.43-8.68-10.93-15.93Z" fill="none" stroke="#262521" stroke-linecap="round" stroke-linejoin="round" stroke-width="3"/><path d="M204.41,48.28s4,48.55,43.68,46.73S290.93,49.6,290.93,49.6" fill="none" stroke="#636363" stroke-linecap="round" stroke-linejoin="round"/><path d="M121.8,180.85s2.11,28.61,0,44.24.11,29.7.11,32.88,1.9,33.06,1.9,33.06" fill="none" stroke="#262521" stroke-linecap="round" stroke-linejoin="round" stroke-width="3"/><path d="M371.33,188.66s5.79,47.28,0,75.34" fill="none" stroke="#262521" stroke-linecap="round" stroke-linejoin="round" stroke-width="3"/><line x1="294.06" y1="64.56" x2="300.55" y2="66.25" fill="none" stroke="#262521" stroke-linecap="round" stroke-linejoin="round" stroke-width="2"/><line x1="296.16" y1="56.11" x2="302.94" y2="57.88" fill="none" stroke="#262521" stroke-linecap="round" stroke-linejoin="round" stroke-width="2"/><line x1="248.17" y1="98.45" x2="248.17" y2="105.18" fill="none" stroke="#262521" stroke-linecap="round" stroke-linejoin="round" stroke-width="2"/><line x1="257.79" y1="97.72" x2="258.13" y2="104.43" fill="none" stroke="#262521" stroke-linecap="round" stroke-linejoin="round" stroke-width="2"/><line x1="266.3" y1="95.03" x2="267.5" y2="102.1" fill="none" stroke="#262521" stroke-linecap="round" stroke-linejoin="round" stroke-width="2"/><line x1="273.41" y1="91.2" x2="276.07" y2="98.15" fill="none" stroke="#262521" stroke-linecap="round" stroke-linejoin="round" stroke-width="2"/><line x1="280.09" y1="86.17" x2="284.17" y2="92.17" fill="none" stroke="#262521" stroke-linecap="round" stroke-linejoin="round" stroke-width="2"/><line x1="285.67" y1="79.86" x2="291.34" y2="84.16" fill="none" stroke="#262521" stroke-linecap="round" stroke-linejoin="round" stroke-width="2"/><line x1="289.89" y1="72.72" x2="296.52" y2="75.6" fill="none" stroke="#262521" stroke-linecap="round" stroke-linejoin="round" stroke-width="2"/><line x1="202.28" y1="64.56" x2="196.6" y2="66.04" fill="none" stroke="#262521" stroke-linecap="round" stroke-linejoin="round" stroke-width="2"/><line x1="200.18" y1="56.11" x2="194.28" y2="57.65" fill="none" stroke="#262521" stroke-linecap="round" stroke-linejoin="round" stroke-width="2"/><line x1="238.55" y1="97.72" x2="238.2" y2="104.43" fill="none" stroke="#262521" stroke-linecap="round" stroke-linejoin="round" stroke-width="2"/><line x1="230.04" y1="95.03" x2="228.86" y2="102.01" fill="none" stroke="#262521" stroke-linecap="round" stroke-linejoin="round" stroke-width="2"/><line x1="222.93" y1="91.2" x2="220.43" y2="97.72" fill="none" stroke="#262521" stroke-linecap="round" stroke-linejoin="round" stroke-width="2"/><line x1="216.24" y1="86.17" x2="212.37" y2="91.87" fill="none" stroke="#262521" stroke-linecap="round" stroke-linejoin="round" stroke-width="2"/><line x1="210.67" y1="79.86" x2="205.44" y2="83.83" fill="none" stroke="#262521" stroke-linecap="round" stroke-linejoin="round" stroke-width="2"/><line x1="206.45" y1="72.72" x2="200.41" y2="75.34" fill="none" stroke="#262521" stroke-linecap="round" stroke-linejoin="round" stroke-width="2"/><line x1="73.89" y1="403.5" x2="73.89" y2="423.97" fill="none" stroke="#262521" stroke-linecap="round" stroke-linejoin="round" stroke-width="2"/><line x1="64.24" y1="403.52" x2="65.23" y2="423.95" fill="none" stroke="#262521" stroke-linecap="round" stroke-linejoin="round" stroke-width="2"/><line x1="84.38" y1="403.53" x2="82.9" y2="423.94" fill="none" stroke="#262521" stroke-linecap="round" stroke-linejoin="round" stroke-width="2"/><line x1="94.49" y1="405.69" x2="90.35" y2="425.73" fill="none" stroke="#262521" stroke-linecap="round" stroke-linejoin="round" stroke-width="2"/><line x1="55.35" y1="404.9" x2="57.39" y2="425.26" fill="none" stroke="#262521" stroke-linecap="round" stroke-linejoin="round" stroke-width="2"/><line x1="424.82" y1="402.38" x2="424.82" y2="422.84" fill="none" stroke="#262521" stroke-linecap="round" stroke-linejoin="round" stroke-width="2"/><line x1="414.71" y1="402.43" x2="416.61" y2="422.8" fill="none" stroke="#262521" stroke-linecap="round" stroke-linejoin="round" stroke-width="2"/><line x1="435.3" y1="402.41" x2="433.82" y2="422.82" fill="none" stroke="#262521" stroke-linecap="round" stroke-linejoin="round" stroke-width="2"/><line x1="445.41" y1="404.57" x2="441.27" y2="424.61" fill="none" stroke="#262521" stroke-linecap="round" stroke-linejoin="round" stroke-width="2"/><line x1="404.88" y1="403.91" x2="408.7" y2="424.01" fill="none" stroke="#262521" stroke-linecap="round" stroke-linejoin="round" stroke-width="2"/><line x1="247.31" y1="433.04" x2="247.31" y2="459.77" fill="none" stroke="#262521" stroke-linecap="round" stroke-linejoin="round" stroke-width="2"/><line x1="258.37" y1="433.04" x2="258.37" y2="459.25" fill="none" stroke="#262521" stroke-linecap="round" stroke-linejoin="round" stroke-width="2"/><line x1="269.43" y1="433.04" x2="269.43" y2="459.27" fill="none" stroke="#262521" stroke-linecap="round" stroke-linejoin="round" stroke-width="2"/><line x1="280.49" y1="433.04" x2="280.49" y2="459.25" fill="none" stroke="#262521" stroke-linecap="round" stroke-linejoin="round" stroke-width="2"/><line x1="291.56" y1="432.54" x2="291.56" y2="459.27" fill="none" stroke="#262521" stroke-linecap="round" stroke-linejoin="round" stroke-width="2"/><line x1="302.62" y1="432.54" x2="302.62" y2="458.77" fill="none" stroke="#262521" stroke-linecap="round" stroke-linejoin="round" stroke-width="2"/><line x1="314.17" y1="432.54" x2="314.73" y2="459.25" fill="none" stroke="#262521" stroke-linecap="round" stroke-linejoin="round" stroke-width="2"/><line x1="324.74" y1="433.04" x2="324.74" y2="459.77" fill="none" stroke="#262521" stroke-linecap="round" stroke-linejoin="round" stroke-width="2"/><line x1="170.87" y1="433.04" x2="170.87" y2="460.5" fill="none" stroke="#262521" stroke-linecap="round" stroke-linejoin="round" stroke-width="2"/><line x1="192" y1="433.04" x2="192" y2="460.72" fill="none" stroke="#262521" stroke-linecap="round" stroke-linejoin="round" stroke-width="2"/><line x1="181.16" y1="433.04" x2="181.16" y2="460.56" fill="none" stroke="#262521" stroke-linecap="round" stroke-linejoin="round" stroke-width="2"/><line x1="203.06" y1="434.04" x2="203.06" y2="461.22" fill="none" stroke="#262521" stroke-linecap="round" stroke-linejoin="round" stroke-width="2"/><line x1="136.11" y1="435.05" x2="137.61" y2="461.87" fill="none" stroke="#262521" stroke-linecap="round" stroke-linejoin="round" stroke-width="2"/><line x1="147.05" y1="433.56" x2="147.75" y2="460.72" fill="none" stroke="#262521" stroke-linecap="round" stroke-linejoin="round" stroke-width="2"/><line x1="159.31" y1="433.04" x2="159.31" y2="460.72" fill="none" stroke="#262521" stroke-linecap="round" stroke-linejoin="round" stroke-width="2"/><line x1="214.12" y1="434.04" x2="214.12" y2="460.72" fill="none" stroke="#262521" stroke-linecap="round" stroke-linejoin="round" stroke-width="2"/><line x1="225.18" y1="434.04" x2="225.18" y2="459.72" fill="none" stroke="#262521" stroke-linecap="round" stroke-linejoin="round" stroke-width="2"/><line x1="236.24" y1="433.04" x2="236.24" y2="459.77" fill="none" stroke="#262521" stroke-linecap="round" stroke-linejoin="round" stroke-width="2"/><line x1="336.17" y1="434.05" x2="335.12" y2="460.5" fill="none" stroke="#262521" stroke-linecap="round" stroke-linejoin="round" stroke-width="2"/><line x1="347.48" y1="435.06" x2="345.63" y2="461.22" fill="none" stroke="#262521" stroke-linecap="round" stroke-linejoin="round" stroke-width="2"/><line x1="358.34" y1="436.05" x2="357.26" y2="462.71" fill="none" stroke="#262521" stroke-linecap="round" stroke-linejoin="round" stroke-width="2"/><path d="M299,46.09a17.16,17.16,0,0,0,.94,4.86,1.16,1.16,0,0,0,1.38.79,1.14,1.14,0,0,0,.79-1.39,16.81,16.81,0,0,1-.61-2.21c0-.18-.07-.36-.1-.55a2,2,0,0,1,0-.26c0-.23,0,.22,0-.08s-.08-.78-.1-1.16a1.13,1.13,0,1,0-2.25,0Z" fill="#565656"/><path d="M306.59,52.61c.65-1.21,1.34-2.39,2.08-3.54a1.13,1.13,0,1,0-1.94-1.14c-.74,1.15-1.43,2.33-2.08,3.54a1.13,1.13,0,0,0,1.94,1.14Z" fill="#565656"/><path d="M310.13,50.56a4.62,4.62,0,0,0,.08,2.42,1.24,1.24,0,0,0,.52.67,1.15,1.15,0,0,0,.87.11,1.16,1.16,0,0,0,.67-.52,1.08,1.08,0,0,0,.11-.86,4.61,4.61,0,0,1-.14-.62l0,.3a3.47,3.47,0,0,1,0-.91l0,.3c0-.1,0-.2.05-.29a1.14,1.14,0,0,0-.11-.87,1.11,1.11,0,0,0-1.54-.4,1.08,1.08,0,0,0-.51.67Z" fill="#565656"/><path d="M315.71,56l1.37-.91a.86.86,0,0,0,.31-.29.82.82,0,0,0,.2-.38.77.77,0,0,0,0-.45.8.8,0,0,0-.13-.42,1.13,1.13,0,0,0-.67-.52,1.15,1.15,0,0,0-.87.12l-1.37.91a1.28,1.28,0,0,0-.51.67.77.77,0,0,0,0,.45.8.8,0,0,0,.13.42,1.13,1.13,0,0,0,.67.51,1.1,1.1,0,0,0,.87-.11Z" fill="#565656"/><path d="M320.15,52v3.87a1.13,1.13,0,0,0,2.25,0V52a1.13,1.13,0,0,0-1.12-1.13A1.16,1.16,0,0,0,320.15,52Z" fill="#565656"/><path d="M323.94,57.64a4,4,0,0,0,.91.07,4.57,4.57,0,0,0,.9-.15,4,4,0,0,0,1.56-.89,1.12,1.12,0,0,0,0-1.59,1.11,1.11,0,0,0-.8-.33,1.19,1.19,0,0,0-.79.33l-.17.14.23-.18a2.57,2.57,0,0,1-.62.36l.27-.11a3.46,3.46,0,0,1-.7.19l.3,0a2.89,2.89,0,0,1-.72,0l.3,0h-.07a1,1,0,0,0-.45,0,.91.91,0,0,0-.42.14,1.14,1.14,0,0,0-.4,1.54,1.07,1.07,0,0,0,.67.51Z" fill="#565656"/><path d="M328.58,55.65v2.28a1.16,1.16,0,0,0,.33.79,1.11,1.11,0,0,0,.8.33,1.13,1.13,0,0,0,1.12-1.12V55.65a1.11,1.11,0,0,0-.33-.79,1.07,1.07,0,0,0-.79-.33,1.14,1.14,0,0,0-1.13,1.12Z" fill="#565656"/><path d="M332,57.73l-.12,2.18a1.12,1.12,0,0,0,1.92.8,1.25,1.25,0,0,0,.33-.8l.12-2.18a1.18,1.18,0,0,0-.33-.8,1.2,1.2,0,0,0-.8-.33,1.11,1.11,0,0,0-.79.33,1.2,1.2,0,0,0-.33.8Z" fill="#565656"/><path d="M339.89,62.38a10,10,0,0,1,.87-.74l-.23.17.39-.29a.89.89,0,0,0,.32-.29.87.87,0,0,0,.2-.38,1,1,0,0,0,0-.45.81.81,0,0,0-.14-.42,1.08,1.08,0,0,0-.67-.51l-.3,0a1.16,1.16,0,0,0-.57.15,15.51,15.51,0,0,0-1.48,1.2.85.85,0,0,0-.23.37.88.88,0,0,0-.1.43.91.91,0,0,0,.1.43.85.85,0,0,0,.23.37,1.14,1.14,0,0,0,.8.32l.3,0a1.14,1.14,0,0,0,.49-.28Z" fill="#565656"/><path d="M340.88,59.7v3.23a1.13,1.13,0,0,0,2.25,0V59.7a1.13,1.13,0,0,0-2.25,0Z" fill="#565656"/><path d="M347.54,63v2.5a1.11,1.11,0,0,0,.33.79,1.07,1.07,0,0,0,.79.33,1.14,1.14,0,0,0,.8-.33,1.17,1.17,0,0,0,.33-.79V63a1.16,1.16,0,0,0-.33-.79,1.12,1.12,0,0,0-1.59,0,1.17,1.17,0,0,0-.33.79Z" fill="#565656"/><path d="M351.66,62.41c0,.07,0,.13,0,.2l0-.3a2.88,2.88,0,0,1-.2.65l.12-.27a6.78,6.78,0,0,0-.95,2.63,1.14,1.14,0,0,0,1.12,1.13,1.16,1.16,0,0,0,1.13-1.13c0-.07,0-.13,0-.2l0,.3a2.88,2.88,0,0,1,.2-.65L353,65a6.84,6.84,0,0,0,1-2.63,1.14,1.14,0,0,0-1.13-1.13,1.15,1.15,0,0,0-1.12,1.13Z" fill="#565656"/><path d="M356,66.78V69a1.13,1.13,0,0,0,1.12,1.13,1.2,1.2,0,0,0,.8-.33,1.18,1.18,0,0,0,.33-.8V66.78a1.13,1.13,0,0,0-1.13-1.13,1.11,1.11,0,0,0-.79.33,1.14,1.14,0,0,0-.33.8Z" fill="#565656"/><path d="M362.36,70.7a15.09,15.09,0,0,1,2.17-2.06l-.23.18.33-.24a1.21,1.21,0,0,0,.51-.68A1.12,1.12,0,0,0,365,67a1.19,1.19,0,0,0-.67-.52,1.14,1.14,0,0,0-.87.11,16.39,16.39,0,0,0-2.72,2.48,1.22,1.22,0,0,0-.33.79,1.18,1.18,0,0,0,.33.8,1.2,1.2,0,0,0,.8.33,1.16,1.16,0,0,0,.79-.33Z" fill="#565656"/><path d="M364.7,68.34V72A1.13,1.13,0,0,0,367,72V68.34a1.14,1.14,0,0,0-1.12-1.13,1.16,1.16,0,0,0-1.13,1.13Z" fill="#565656"/><path d="M368.9,70.68l-.63.72a.77.77,0,0,0-.23.36.84.84,0,0,0-.1.44.8.8,0,0,0,.1.43.77.77,0,0,0,.23.36l.23.18a1.1,1.1,0,0,0,.57.15l.29,0a1.05,1.05,0,0,0,.5-.29l.63-.72a.88.88,0,0,0,.24-.36.83.83,0,0,0,.09-.44.82.82,0,0,0-.09-.43.88.88,0,0,0-.24-.36l-.22-.18a1.16,1.16,0,0,0-.57-.15l-.3,0a1.1,1.1,0,0,0-.5.29Z" fill="#565656"/><path d="M378.25,75.34A7.1,7.1,0,0,1,377,76.56l.23-.18a7,7,0,0,1-.85.57,1.13,1.13,0,0,0-.52.67,1.15,1.15,0,0,0,.12.87,1.08,1.08,0,0,0,.67.51,1.17,1.17,0,0,0,.86-.11,8,8,0,0,0,2.31-2,.85.85,0,0,0,.23-.37.88.88,0,0,0,.1-.43,1.18,1.18,0,0,0-.33-.8A1.14,1.14,0,0,0,379,75a1.09,1.09,0,0,0-.79.32Z" fill="#565656"/><path d="M372.92,70.52v5.83a1.13,1.13,0,0,0,2.25,0V70.52a1.12,1.12,0,0,0-1.12-1.12,1.14,1.14,0,0,0-1.13,1.12Z" fill="#565656"/><path d="M380.21,78.43v3.85a1.12,1.12,0,0,0,1.12,1.12,1.14,1.14,0,0,0,1.13-1.12V78.43a1.13,1.13,0,1,0-2.25,0Z" fill="#565656"/><path d="M384.56,86.11h2.6a1.17,1.17,0,0,0,.79-.33,1.15,1.15,0,0,0,.33-.8,1.14,1.14,0,0,0-1.12-1.12h-2.6a1.14,1.14,0,0,0-.8.33,1.12,1.12,0,0,0,.8,1.92Z" fill="#565656"/><path d="M387.57,91h3.33a1.13,1.13,0,1,0,0-2.25h-3.33a1.12,1.12,0,0,0-1.12,1.12A1.14,1.14,0,0,0,387.57,91Z" fill="#565656"/><path d="M390.38,95.68h3.54a1.13,1.13,0,0,0,0-2.25h-3.54a1.13,1.13,0,0,0,0,2.25Z" fill="#565656"/><path d="M394.86,102.32l1.66.11a.8.8,0,0,0,.43-.09,1,1,0,0,0,.37-.24,1.16,1.16,0,0,0,.33-.79,1.2,1.2,0,0,0-.33-.8l-.23-.17a1.17,1.17,0,0,0-.57-.16l-1.66-.11a.83.83,0,0,0-.44.09.88.88,0,0,0-.36.24,1.12,1.12,0,0,0,0,1.59l.23.17a1.22,1.22,0,0,0,.57.16Z" fill="#565656"/><path d="M395.58,104.72a12.69,12.69,0,0,0,3.75.85,1.11,1.11,0,0,0,.79-.33,1.07,1.07,0,0,0,.33-.79,1.14,1.14,0,0,0-.33-.8,1.28,1.28,0,0,0-.79-.33l-.64-.07.29,0a11.81,11.81,0,0,1-2.8-.74,1.12,1.12,0,0,0-.86.11,1.13,1.13,0,0,0-.41,1.54,1.38,1.38,0,0,0,.67.52Z" fill="#565656"/><path d="M397.79,109q1.62.27,3.21.66a1.13,1.13,0,1,0,.6-2.17c-1.06-.26-2.14-.48-3.22-.66a1.18,1.18,0,0,0-.86.12,1.09,1.09,0,0,0-.52.67,1.15,1.15,0,0,0,.11.87,1.06,1.06,0,0,0,.68.51Z" fill="#565656"/><path d="M402.24,114.55v0l-.11.27a5.09,5.09,0,0,1,.64-1.11l-.17.23a5.17,5.17,0,0,1,.9-.91l-.22.18a5.5,5.5,0,0,1,.56-.38,1.2,1.2,0,0,0,.52-.67,1.13,1.13,0,0,0-1.65-1.27,5.78,5.78,0,0,0-1.51,1.23,6.69,6.69,0,0,0-.65.86,6.28,6.28,0,0,0-.49,1,1.11,1.11,0,0,0,.11.87,1.18,1.18,0,0,0,.67.51,1.15,1.15,0,0,0,.87-.11L402,115a1.16,1.16,0,0,0,.29-.49Z" fill="#565656"/><path d="M402.78,120.74h2.56a1.13,1.13,0,1,0,0-2.25h-2.56a1.16,1.16,0,0,0-.79.33,1.11,1.11,0,0,0-.33.8,1.13,1.13,0,0,0,1.12,1.12Z" fill="#565656"/><path d="M404.2,126l.86.57a.81.81,0,0,0,.42.14.94.94,0,0,0,.44,0,.91.91,0,0,0,.39-.2.89.89,0,0,0,.29-.32l.11-.27a1.22,1.22,0,0,0,0-.6l-.11-.27a1.21,1.21,0,0,0-.41-.4l-.85-.57a.9.9,0,0,0-.42-.13.77.77,0,0,0-.45,0,1.24,1.24,0,0,0-.67.52l-.11.26a1,1,0,0,0,0,.6l.11.27a1.1,1.1,0,0,0,.4.4Z" fill="#565656"/><path d="M407,130.62l2.85.53a1.2,1.2,0,0,0,.87-.11,1.17,1.17,0,0,0,.51-.68,1.12,1.12,0,0,0-.78-1.38l-2.85-.53a1.24,1.24,0,0,0-.87.12,1.13,1.13,0,0,0-.52.67,1.15,1.15,0,0,0,.12.87,1.08,1.08,0,0,0,.67.51Z" fill="#565656"/><path d="M409.07,133.34l1.69.88a1.2,1.2,0,0,0,.87.11,1.12,1.12,0,0,0,.67-.52,1.08,1.08,0,0,0,.11-.86,1.11,1.11,0,0,0-.52-.68l-1.69-.88a1.22,1.22,0,0,0-.86-.11,1.12,1.12,0,0,0-.79,1.38,1.15,1.15,0,0,0,.52.68Z" fill="#565656"/><path d="M409.64,139.78l2.28,2.55a1.12,1.12,0,0,0,1.59,0,1.11,1.11,0,0,0,.33-.79,1.2,1.2,0,0,0-.33-.8l-2.28-2.55a1.11,1.11,0,0,0-.79-.33,1.14,1.14,0,0,0-.8.33,1.11,1.11,0,0,0-.33.79,1.33,1.33,0,0,0,.33.8Z" fill="#565656"/><path d="M414.13,146.37l2.3.47a1.18,1.18,0,0,0,.86-.12,1.09,1.09,0,0,0,.52-.67,1.16,1.16,0,0,0-.11-.86,1.14,1.14,0,0,0-.68-.52l-2.29-.47a1.25,1.25,0,0,0-.87.11,1.19,1.19,0,0,0-.52.67,1.15,1.15,0,0,0,.12.87,1.09,1.09,0,0,0,.67.52Z" fill="#565656"/><path d="M415.86,152.88h4a1.13,1.13,0,0,0,1.12-1.12,1.15,1.15,0,0,0-1.12-1.13h-4a1.13,1.13,0,0,0,0,2.25Z" fill="#565656"/><path d="M415.3,150H417a1.2,1.2,0,0,0,.8-.33,1.12,1.12,0,0,0,0-1.59,1.18,1.18,0,0,0-.8-.33h-1.7a1.18,1.18,0,0,0-.8.33,1.12,1.12,0,0,0,0,1.59,1.18,1.18,0,0,0,.8.33Z" fill="#565656"/><path d="M417.55,156.18l2.6,1.36a1.17,1.17,0,0,0,.86.11,1.14,1.14,0,0,0,.68-.52,1.13,1.13,0,0,0-.41-1.54l-2.59-1.35a1.2,1.2,0,0,0-.87-.12,1.16,1.16,0,0,0-.67.52,1.14,1.14,0,0,0,.4,1.54Z" fill="#565656"/><path d="M420.11,163l4,2a1.12,1.12,0,1,0,1.13-1.94l-4-2a1.12,1.12,0,0,0-1.13,1.94Z" fill="#565656"/><path d="M425.24,170v-.57a.91.91,0,0,0-.1-.43,1,1,0,0,0-.59-.59.75.75,0,0,0-.44-.1l-.3,0a1.07,1.07,0,0,0-.49.29l-.18.23a1.09,1.09,0,0,0-.15.56V170a.83.83,0,0,0,.09.44.88.88,0,0,0,.24.36.86.86,0,0,0,.36.23.91.91,0,0,0,.43.1l.3,0a1.2,1.2,0,0,0,.5-.29l.17-.23a1,1,0,0,0,.16-.57Z" fill="#565656"/><path d="M425.27,175.35a3,3,0,0,0,.82-.29,3.24,3.24,0,0,0,.71-.5,3.86,3.86,0,0,0,.55-.66,3.09,3.09,0,0,0,.36-.81,1.2,1.2,0,0,0-.11-.87,1.17,1.17,0,0,0-.68-.51,1.12,1.12,0,0,0-.86.11,1.16,1.16,0,0,0-.52.67,2.09,2.09,0,0,1-.08.23l.11-.27a2.51,2.51,0,0,1-.26.45l.17-.23a1.9,1.9,0,0,1-.4.4l.23-.17a2.2,2.2,0,0,1-.47.27l.27-.11a1.69,1.69,0,0,1-.44.12,1,1,0,0,0-.38.21.86.86,0,0,0-.29.31.8.8,0,0,0-.13.42.77.77,0,0,0,0,.45,1.14,1.14,0,0,0,.51.67l.27.11a1,1,0,0,0,.6,0Z" fill="#565656"/><path d="M427,179.34h3.41a1.13,1.13,0,0,0,0-2.25H427a1.13,1.13,0,0,0-1.13,1.12,1.16,1.16,0,0,0,1.13,1.13Z" fill="#565656"/><path d="M428.41,183l1.74,1.38a1,1,0,0,0,.37.23.88.88,0,0,0,.43.1,1.16,1.16,0,0,0,.79-.33,1.11,1.11,0,0,0,.33-.8l0-.3a1.07,1.07,0,0,0-.29-.49L430,181.43a.77.77,0,0,0-.36-.23,1,1,0,0,0-.44-.1,1.13,1.13,0,0,0-.79.33,1.15,1.15,0,0,0-.33.8l0,.3a1.07,1.07,0,0,0,.29.49Z" fill="#565656"/><path d="M429.57,188.11l2.56,2.27a1.2,1.2,0,0,0,.8.33,1.1,1.1,0,0,0,.79-.33,1.07,1.07,0,0,0,.33-.79,1.09,1.09,0,0,0-.33-.8l-2.55-2.27a1.2,1.2,0,0,0-.8-.33,1.14,1.14,0,0,0-.8.33,1.16,1.16,0,0,0-.33.79,1.18,1.18,0,0,0,.33.8Z" fill="#565656"/><path d="M435.21,196.83l1.14-.57a.86.86,0,0,0,.31-.29,1,1,0,0,0,.21-.38,1,1,0,0,0,0-.45.91.91,0,0,0-.14-.42l-.17-.23a1.2,1.2,0,0,0-.5-.29l-.3,0a1.17,1.17,0,0,0-.57.16l-1.13.57a.89.89,0,0,0-.32.29.82.82,0,0,0-.2.38.86.86,0,0,0,0,.45.9.9,0,0,0,.13.42l.18.23a1.14,1.14,0,0,0,.5.29l.29,0a1.11,1.11,0,0,0,.57-.16Z" fill="#565656"/><path d="M436.06,204.65h1.42a1.2,1.2,0,0,0,.8-.33.86.86,0,0,0,.23-.36,1,1,0,0,0,.1-.44,1.16,1.16,0,0,0-.33-.79,1.18,1.18,0,0,0-.8-.33h-1.42a1.15,1.15,0,0,0-.8.33.86.86,0,0,0-.23.36.91.91,0,0,0-.1.43,1.16,1.16,0,0,0,.33.8,1.18,1.18,0,0,0,.8.33Z" fill="#565656"/><path d="M437.48,209.77a5,5,0,0,1,.95,0l-.3,0a4.42,4.42,0,0,1,1.17.32L439,210l.44.22a1.11,1.11,0,0,0,1.54-.4,1.14,1.14,0,0,0-.4-1.54,5.61,5.61,0,0,0-3.13-.72,1.2,1.2,0,0,0-.8.33,1.14,1.14,0,0,0-.32.8,1.1,1.1,0,0,0,.32.79,1.15,1.15,0,0,0,.8.33Z" fill="#565656"/><path d="M436.34,200.59a4.46,4.46,0,0,1,1-.27l-.3,0a3.87,3.87,0,0,1,1,0l-.3,0,.24,0a1.25,1.25,0,0,0,.87-.12,1.17,1.17,0,0,0,.52-.67,1.15,1.15,0,0,0-.12-.87,1.11,1.11,0,0,0-.67-.51,5.1,5.1,0,0,0-2.89.23,1,1,0,0,0-.38.21.79.79,0,0,0-.29.31,1.15,1.15,0,0,0-.11.87,1.16,1.16,0,0,0,.52.67,1,1,0,0,0,.86.11Z" fill="#565656"/><path d="M441.18,216.31h2.56a1.16,1.16,0,0,0,.79-.33,1.07,1.07,0,0,0,.33-.79,1.14,1.14,0,0,0-1.12-1.13h-2.56a1.13,1.13,0,0,0-1.13,1.13,1.15,1.15,0,0,0,1.13,1.12Z" fill="#565656"/><path d="M442.88,221.43h.29a.8.8,0,0,0,.43-.1.77.77,0,0,0,.36-.23.88.88,0,0,0,.24-.36.82.82,0,0,0,.09-.43l0-.3a1.1,1.1,0,0,0-.29-.5l-.22-.18a1.16,1.16,0,0,0-.57-.15h-.29a.8.8,0,0,0-.43.1,1,1,0,0,0-.59.59.84.84,0,0,0-.1.44l0,.29a1.1,1.1,0,0,0,.29.5l.23.18a1.09,1.09,0,0,0,.56.15Z" fill="#565656"/><path d="M443.17,227.12h1.42a1.2,1.2,0,0,0,.8-.33.86.86,0,0,0,.23-.36,1,1,0,0,0,.1-.44,1.16,1.16,0,0,0-.33-.79,1.18,1.18,0,0,0-.8-.33h-1.42a1.15,1.15,0,0,0-.8.33.86.86,0,0,0-.23.36.91.91,0,0,0-.1.43,1.13,1.13,0,0,0,1.13,1.13Z" fill="#565656"/><path d="M444.86,233.06l2.27.32a.86.86,0,0,0,.45,0,.9.9,0,0,0,.42-.13,1.17,1.17,0,0,0,.51-.68,1.12,1.12,0,0,0-.78-1.38l-2.27-.32a.86.86,0,0,0-.45,0,.9.9,0,0,0-.42.13,1.18,1.18,0,0,0-.52.68,1.13,1.13,0,0,0,.12.86,1.06,1.06,0,0,0,.67.52Z" fill="#565656"/><path d="M447.37,237.9l2.22,2.89a1.22,1.22,0,0,0,.67.51,1.15,1.15,0,0,0,.87-.11,1.19,1.19,0,0,0,.52-.67,1.1,1.1,0,0,0-.12-.87l-2.22-2.89a1.25,1.25,0,0,0-.67-.52,1.15,1.15,0,0,0-.87.12,1.08,1.08,0,0,0-.51.67,1.07,1.07,0,0,0,.11.87Z" fill="#565656"/><path d="M449.71,246.17h1.71a1.12,1.12,0,0,0,.79-1.92,1.17,1.17,0,0,0-.79-.33h-1.71a1.2,1.2,0,0,0-.8.33,1.16,1.16,0,0,0,0,1.6,1.21,1.21,0,0,0,.8.32Z" fill="#565656"/><path d="M450.56,251.29h.86a.8.8,0,0,0,.43-.09,1.1,1.1,0,0,0,.6-.6.8.8,0,0,0,.09-.43l0-.3a1.1,1.1,0,0,0-.29-.5l-.23-.17a1.21,1.21,0,0,0-.56-.16h-.86a.91.91,0,0,0-.43.1,1,1,0,0,0-.59.6.78.78,0,0,0-.1.43l0,.3a1.07,1.07,0,0,0,.29.49l.23.18a1.09,1.09,0,0,0,.56.15Z" fill="#565656"/><path d="M451.42,253.85H454a1.13,1.13,0,0,0,1.12-1.12A1.15,1.15,0,0,0,454,251.6h-2.56a1.13,1.13,0,0,0-1.13,1.13,1.15,1.15,0,0,0,1.13,1.12Z" fill="#565656"/><path d="M451.55,256.58l3.94,4a1.14,1.14,0,0,0,1.59,0,1.16,1.16,0,0,0,0-1.6l-3.94-4a1.12,1.12,0,0,0-1.59,1.59Z" fill="#565656"/><path d="M456,266.62H456l-.3,0a3.14,3.14,0,0,1,.75,0l-.3,0a2.6,2.6,0,0,1,.71.2l-.27-.12.19.09a1.13,1.13,0,0,0,1.66-1.27,1.13,1.13,0,0,0-.52-.67,3.73,3.73,0,0,0-1.12-.39,4.17,4.17,0,0,0-.71-.07,3.64,3.64,0,0,0-.74.07.81.81,0,0,0-.39.2.89.89,0,0,0-.29.32,1.12,1.12,0,0,0-.11.86,1.15,1.15,0,0,0,.52.68l.27.11a1.18,1.18,0,0,0,.59,0Z" fill="#565656"/><path d="M456.25,272.06h.86a.94.94,0,0,0,.43-.1,1,1,0,0,0,.59-.59.84.84,0,0,0,.1-.44l0-.3a1.07,1.07,0,0,0-.29-.49l-.23-.18a1.09,1.09,0,0,0-.56-.15h-.86a.8.8,0,0,0-.43.09,1.1,1.1,0,0,0-.6.6.8.8,0,0,0-.09.43l0,.3a1.1,1.1,0,0,0,.29.5l.22.17a1.07,1.07,0,0,0,.57.16Z" fill="#565656"/><path d="M456.31,275.43l2,2.27a1.13,1.13,0,0,0,1.92-.79,1.2,1.2,0,0,0-.33-.8l-2-2.28a1.12,1.12,0,0,0-1.59,0,1.15,1.15,0,0,0-.33.8,1.27,1.27,0,0,0,.33.8Z" fill="#565656"/><path d="M458.84,286.56a2.7,2.7,0,0,1,.41-.08l-.3,0a3.62,3.62,0,0,1,.93,0l-.3,0a3.52,3.52,0,0,1,.9.24l-.27-.11a3.69,3.69,0,0,1,.62.33,1.13,1.13,0,0,0,.86.12,1.12,1.12,0,0,0,.79-1.39A1.19,1.19,0,0,0,462,285a4.61,4.61,0,0,0-3.72-.61,1.13,1.13,0,1,0,.6,2.17Z" fill="#565656"/><path d="M457.73,288.79l2,1.71a1.2,1.2,0,0,0,.8.33,1.13,1.13,0,0,0,.79-.33,1.09,1.09,0,0,0,.33-.8,1.07,1.07,0,0,0-.33-.79l-2-1.71a1.22,1.22,0,0,0-.79-.33,1.18,1.18,0,0,0-.8.33,1.2,1.2,0,0,0-.33.8,1.16,1.16,0,0,0,.33.79Z" fill="#565656"/><path d="M460.52,296.52h1.42a1.2,1.2,0,0,0,.8-.33.86.86,0,0,0,.23-.36,1,1,0,0,0,.1-.44,1.16,1.16,0,0,0-.33-.79,1.18,1.18,0,0,0-.8-.33h-1.42a1.15,1.15,0,0,0-.8.33.86.86,0,0,0-.23.36.91.91,0,0,0-.1.43,1.13,1.13,0,0,0,1.13,1.13Z" fill="#565656"/><path d="M459.68,302.31a6.85,6.85,0,0,1,1.25.74l-.23-.17a6.3,6.3,0,0,1,1,1,1.12,1.12,0,0,0,1.59,0,1.11,1.11,0,0,0,.33-.79l0-.3a1.2,1.2,0,0,0-.29-.5,6.88,6.88,0,0,0-1.24-1.17,5.8,5.8,0,0,0-1.25-.74.9.9,0,0,0-.42-.13.77.77,0,0,0-.45,0,1.12,1.12,0,0,0-.78,1.38,1,1,0,0,0,.52.67Z" fill="#565656"/><path d="M460.43,307.29l2.95,2.14a1.12,1.12,0,0,0,.86.11,1.17,1.17,0,0,0,.68-.51,1.2,1.2,0,0,0,.11-.87,1.32,1.32,0,0,0-.52-.67l-2.94-2.14a1.15,1.15,0,0,0-.87-.11,1.14,1.14,0,0,0-.79,1.38,1.28,1.28,0,0,0,.52.67Z" fill="#565656"/><path d="M462.23,315h2.55a1.18,1.18,0,0,0,.8-.33,1.15,1.15,0,0,0,.33-.8,1.14,1.14,0,0,0-1.13-1.12h-2.55a1.17,1.17,0,0,0-.8.32,1.13,1.13,0,0,0,.8,1.93Z" fill="#565656"/><path d="M462.23,319h2.27a1.13,1.13,0,0,0,1.13-1.13,1.15,1.15,0,0,0-1.13-1.12h-2.27a1.14,1.14,0,0,0-.8.33,1.11,1.11,0,0,0-.33.79,1.15,1.15,0,0,0,1.13,1.13Z" fill="#565656"/><path d="M460.81,323.86l.35,2.26a1.09,1.09,0,0,0,.52.67,1.2,1.2,0,0,0,.87.12,1.16,1.16,0,0,0,.67-.52l.11-.27a1,1,0,0,0,0-.6l-.35-2.26a1.09,1.09,0,0,0-.52-.67,1.2,1.2,0,0,0-.87-.12,1.16,1.16,0,0,0-.67.52l-.11.27a1,1,0,0,0,0,.6Z" fill="#565656"/><path d="M461.67,330.76l2.6,1.93a1.11,1.11,0,0,0,.87.12,1.14,1.14,0,0,0,.79-1.39l-.12-.27a1.18,1.18,0,0,0-.4-.4l-2.6-1.93a1.11,1.11,0,0,0-.87-.12,1.16,1.16,0,0,0-.67.52,1.11,1.11,0,0,0-.11.87l.11.26a1.12,1.12,0,0,0,.4.41Z" fill="#565656"/><path d="M461.48,336.1l.59.84a.89.89,0,0,0,.29.32.82.82,0,0,0,.38.2.86.86,0,0,0,.45,0,.9.9,0,0,0,.42-.13l.23-.18a1.14,1.14,0,0,0,.29-.5l0-.29a1.11,1.11,0,0,0-.16-.57l-.58-.84a1.24,1.24,0,0,0-.67-.52.77.77,0,0,0-.45,0,.9.9,0,0,0-.42.13l-.23.18a1.07,1.07,0,0,0-.29.49l0,.3a1.1,1.1,0,0,0,.15.57Z" fill="#565656"/><path d="M460.52,342.89l1.84,1.85a1.15,1.15,0,0,0,.8.33,1.13,1.13,0,0,0,.79-.33,1.07,1.07,0,0,0,.33-.79,1.15,1.15,0,0,0-.33-.8l-1.84-1.85a1.2,1.2,0,0,0-.8-.33,1.13,1.13,0,0,0-.79.33,1.12,1.12,0,0,0,0,1.59Z" fill="#565656"/><path d="M459.44,349.09l1.42,1.42a1.14,1.14,0,0,0,.8.33.8.8,0,0,0,.43-.09.88.88,0,0,0,.36-.24,1.11,1.11,0,0,0,.33-.79,1.15,1.15,0,0,0-.33-.8L461,347.5a1.18,1.18,0,0,0-.8-.33.8.8,0,0,0-.43.1.77.77,0,0,0-.36.23,1.12,1.12,0,0,0,0,1.59Z" fill="#565656"/><path d="M461.11,356.83l1.43-.28a.93.93,0,0,0,.38-.2,1,1,0,0,0,.42-.74.74.74,0,0,0,0-.44,1.15,1.15,0,0,0-.52-.68l-.26-.11a1.22,1.22,0,0,0-.6,0l-1.42.28a.92.92,0,0,0-.39.21.79.79,0,0,0-.29.31.9.9,0,0,0-.13.42.86.86,0,0,0,0,.45,1.16,1.16,0,0,0,.52.67l.27.11a1,1,0,0,0,.59,0Z" fill="#565656"/><path d="M460.8,361.94h1.71a1.16,1.16,0,0,0,.79-.33,1.13,1.13,0,0,0,0-1.6,1.16,1.16,0,0,0-.79-.32H460.8a1.12,1.12,0,0,0-.79,1.92,1.17,1.17,0,0,0,.79.33Z" fill="#565656"/><path d="M461.09,367.34h2.27a1.13,1.13,0,0,0,1.13-1.13,1.15,1.15,0,0,0-1.13-1.12h-2.27a1.13,1.13,0,1,0,0,2.25Z" fill="#565656"/><path d="M460.52,364.49h.57a.8.8,0,0,0,.43-.09.86.86,0,0,0,.36-.23,1,1,0,0,0,.24-.37.8.8,0,0,0,.09-.43l0-.3a1.1,1.1,0,0,0-.29-.5l-.22-.17a1.29,1.29,0,0,0-.57-.16h-.57a.88.88,0,0,0-.43.1.89.89,0,0,0-.37.23,1,1,0,0,0-.23.37.88.88,0,0,0-.1.43l0,.3a1.26,1.26,0,0,0,.29.5l.23.17a1.16,1.16,0,0,0,.57.15Z" fill="#565656"/><path d="M459.67,371.1a1.46,1.46,0,0,1,.29,0l-.3-.05a2.11,2.11,0,0,1,.49.14l-.27-.11a2,2,0,0,1,.47.27l-.22-.17a2.28,2.28,0,0,1,.38.38l-.17-.22a2.43,2.43,0,0,1,.28.47l-.12-.27a1.81,1.81,0,0,1,.13.47l0-.3s0,.11,0,.17a1.15,1.15,0,0,0,.33.8,1.1,1.1,0,0,0,.79.32,1.14,1.14,0,0,0,.8-.32,1.2,1.2,0,0,0,.33-.8,3.16,3.16,0,0,0-1-2.16,3.13,3.13,0,0,0-2.2-.89,1.18,1.18,0,0,0-.8.33,1.2,1.2,0,0,0-.33.8,1.13,1.13,0,0,0,1.13,1.12Z" fill="#565656"/><path d="M459.93,376.45l1.42.28a.77.77,0,0,0,.45,0,.83.83,0,0,0,.41-.13,1.24,1.24,0,0,0,.52-.67,1.14,1.14,0,0,0-.11-.87,1.12,1.12,0,0,0-.67-.52l-1.43-.28a.74.74,0,0,0-.44,0,.8.8,0,0,0-.42.13.89.89,0,0,0-.32.29.87.87,0,0,0-.2.38,1.15,1.15,0,0,0,.11.87,1.18,1.18,0,0,0,.68.52Z" fill="#565656"/><path d="M460,381h2a1.13,1.13,0,0,0,1.13-1.12,1.13,1.13,0,0,0-1.13-1.13h-2a1.13,1.13,0,0,0-1.13,1.13,1.16,1.16,0,0,0,.33.79,1.18,1.18,0,0,0,.8.33Z" fill="#565656"/><path d="M460.25,387.12l1.14-.86a.86.86,0,0,0,.31-.29.82.82,0,0,0,.2-.38.77.77,0,0,0,0-.45.8.8,0,0,0-.13-.42l-.18-.23a1.16,1.16,0,0,0-.49-.29l-.3,0a1.11,1.11,0,0,0-.57.16l-1.13.86a.81.81,0,0,0-.32.29.78.78,0,0,0-.2.38.86.86,0,0,0,0,.45.9.9,0,0,0,.13.42l.18.22a1.05,1.05,0,0,0,.5.29l.29,0a1.1,1.1,0,0,0,.57-.15Z" fill="#565656"/><path d="M459.39,391.75l2.27.27a1.09,1.09,0,0,0,.8-.33,1.12,1.12,0,0,0,0-1.59l-.23-.17a1.11,1.11,0,0,0-.57-.16l-2.27-.27a1.09,1.09,0,0,0-.8.33,1.16,1.16,0,0,0-.33.79,1.2,1.2,0,0,0,.33.8l.23.17a1,1,0,0,0,.57.16Z" fill="#565656"/><path d="M457.93,393.85l1.19,3.11a1.22,1.22,0,0,0,.51.67,1.15,1.15,0,0,0,.87.11,1.08,1.08,0,0,0,.67-.51,1.11,1.11,0,0,0,.12-.87l-1.19-3.11a1.24,1.24,0,0,0-.52-.67,1.17,1.17,0,0,0-.86-.12,1.15,1.15,0,0,0-.68.52,1.11,1.11,0,0,0-.11.87Z" fill="#565656"/><path d="M457.12,400.06v2a1.13,1.13,0,0,0,1.12,1.13,1.13,1.13,0,0,0,1.13-1.13v-2a1.2,1.2,0,0,0-.33-.8,1.14,1.14,0,0,0-.8-.32,1.1,1.1,0,0,0-.79.32,1.2,1.2,0,0,0-.33.8Z" fill="#565656"/><path d="M456.54,408.3h2.84a1.13,1.13,0,1,0,0-2.25h-2.84a1.13,1.13,0,0,0-1.13,1.12,1.16,1.16,0,0,0,1.13,1.13Z" fill="#565656"/><path d="M453.3,411.15l.85,1.42a1.24,1.24,0,0,0,.67.52,1,1,0,0,0,.45,0,.81.81,0,0,0,.42-.14,1.13,1.13,0,0,0,.52-.67,1.21,1.21,0,0,0-.12-.87l-.85-1.42a1.18,1.18,0,0,0-.67-.51.77.77,0,0,0-.45,0,.8.8,0,0,0-.42.13,1.13,1.13,0,0,0-.52.67,1.21,1.21,0,0,0,.12.87Z" fill="#565656"/><path d="M452,417.07l.57.57a.92.92,0,0,0,.36.23,1,1,0,0,0,.44.1.91.91,0,0,0,.43-.1.86.86,0,0,0,.36-.23l.18-.23a1.16,1.16,0,0,0,.15-.57l0-.3a1.07,1.07,0,0,0-.29-.49l-.57-.57a.88.88,0,0,0-.36-.24.8.8,0,0,0-.43-.09.78.78,0,0,0-.43.09,1,1,0,0,0-.37.24l-.17.22a1.17,1.17,0,0,0-.16.57l0,.3a1.2,1.2,0,0,0,.29.5Z" fill="#565656"/><path d="M451.13,423.92a1.7,1.7,0,0,1,.39,0l-.29,0a2.07,2.07,0,0,1,.59.16l-.26-.11a2.17,2.17,0,0,1,.53.31l-.22-.17a2.65,2.65,0,0,1,.41.41l-.17-.23a2.31,2.31,0,0,1,.28.48l-.11-.27s0,0,0,.06a.91.91,0,0,0,.2.39.89.89,0,0,0,.32.29,1.15,1.15,0,0,0,.87.11,1.16,1.16,0,0,0,.67-.52,1.09,1.09,0,0,0,.11-.86,5.1,5.1,0,0,0-.26-.58,3.75,3.75,0,0,0-.38-.51,3.44,3.44,0,0,0-.76-.66,3.38,3.38,0,0,0-.93-.41,3.11,3.11,0,0,0-1-.12,1.16,1.16,0,0,0-.79.33,1.13,1.13,0,0,0,.79,1.92Z" fill="#565656"/><path d="M450.29,425.37a6.86,6.86,0,0,0,.72,3.7,1.15,1.15,0,0,0,.68.52,1.13,1.13,0,0,0,1.27-1.65c-.06-.12-.12-.24-.17-.36l.12.27a6,6,0,0,1-.39-1.44l0,.29a5.91,5.91,0,0,1,0-1.33,1.09,1.09,0,0,0-.33-.79,1.11,1.11,0,0,0-.79-.33,1.15,1.15,0,0,0-.8.33,1.34,1.34,0,0,0-.33.79Z" fill="#565656"/><path d="M448.86,432.76l1.16,1.4a.77.77,0,0,0,.36.23,1,1,0,0,0,.44.1.91.91,0,0,0,.43-.1.77.77,0,0,0,.36-.23,1.14,1.14,0,0,0,.33-.8l0-.29a1.05,1.05,0,0,0-.29-.5l-1.16-1.4a.88.88,0,0,0-.36-.24.82.82,0,0,0-.43-.09.83.83,0,0,0-.44.09.88.88,0,0,0-.36.24,1.11,1.11,0,0,0-.33.79l0,.3a1.1,1.1,0,0,0,.29.5Z" fill="#565656"/><path d="M399.37,425.88l-1.88,1.06a1,1,0,0,0-.42.38,1.26,1.26,0,0,0-.27.51,1.22,1.22,0,0,0,0,.6,1.12,1.12,0,0,0,.18.56,1.55,1.55,0,0,0,.9.69,1.59,1.59,0,0,0,1.15-.15l1.88-1.06a1,1,0,0,0,.42-.38,1.15,1.15,0,0,0,.27-.51,1.22,1.22,0,0,0,0-.6,1.12,1.12,0,0,0-.18-.56,1.52,1.52,0,0,0-.9-.69,1.59,1.59,0,0,0-1.15.15Z" fill="#565656"/><path d="M398.29,416.52h-2.06a1.56,1.56,0,0,0-1.06.44,1.14,1.14,0,0,0-.31.48,1.15,1.15,0,0,0-.13.58,1.5,1.5,0,0,0,1.5,1.5h2.06a1.56,1.56,0,0,0,1.06-.44,1.17,1.17,0,0,0,.31-.48,1.27,1.27,0,0,0,.13-.58,1.54,1.54,0,0,0-.44-1.06,1.58,1.58,0,0,0-1.06-.44Z" fill="#565656"/><path d="M398.74,421.09h-5.48a1.5,1.5,0,0,0,0,3h5.48a1.5,1.5,0,0,0,0-3Z" fill="#565656"/><path d="M391.66,407.39a9.63,9.63,0,0,1-1.06-.08l.4.05a8.47,8.47,0,0,1-2.15-.59,1.49,1.49,0,0,0-1.15.15,1.51,1.51,0,0,0-.54,2.06l.23.3a1.49,1.49,0,0,0,.66.39,9.93,9.93,0,0,0,3.61.72,1.56,1.56,0,0,0,1.06-.44,1.5,1.5,0,0,0-1.06-2.56Z" fill="#565656"/><path d="M389.08,398.57c-.31-.09-.62-.2-.92-.32l.36.15a8.64,8.64,0,0,1-1.57-.88,1.16,1.16,0,0,0-.56-.18,1.12,1.12,0,0,0-.6,0,1.51,1.51,0,0,0-.9.69,1.54,1.54,0,0,0-.15,1.15l.15.36a1.64,1.64,0,0,0,.54.54,9.45,9.45,0,0,0,2.85,1.35,1.5,1.5,0,0,0,1.85-1,1.54,1.54,0,0,0-.16-1.15,1.57,1.57,0,0,0-.89-.69Z" fill="#565656"/><path d="M389.09,390.55a1.87,1.87,0,0,1-.4-.13l.36.15a2,2,0,0,1-.47-.27l.3.23a2.28,2.28,0,0,1-.38-.38l.23.3-.11-.15a1,1,0,0,0-.38-.42,1.26,1.26,0,0,0-.51-.27,1.22,1.22,0,0,0-.6,0,1.12,1.12,0,0,0-.56.18l-.3.24a1.39,1.39,0,0,0-.39.66l-.05.4a1.5,1.5,0,0,0,.2.75,4.41,4.41,0,0,0,.5.64l.16.15a5.55,5.55,0,0,0,.46.35,2.71,2.71,0,0,0,.37.21,4.17,4.17,0,0,0,.77.28,1.22,1.22,0,0,0,.6,0,1.09,1.09,0,0,0,.55-.18,1.24,1.24,0,0,0,.43-.39,1,1,0,0,0,.26-.51l.06-.4a1.42,1.42,0,0,0-.21-.75l-.23-.31a1.57,1.57,0,0,0-.66-.38Z" fill="#565656"/><path d="M389.08,379.21a14.73,14.73,0,0,0-1.92-3.69,1.63,1.63,0,0,0-.9-.69,1.49,1.49,0,0,0-1.15.15,1.5,1.5,0,0,0-.54,2,13.78,13.78,0,0,1,1.51,2.67l-.15-.36c.09.22.18.44.26.66a1.64,1.64,0,0,0,.69.9,1.52,1.52,0,0,0,1.16.15,1.5,1.5,0,0,0,.89-.69,1.46,1.46,0,0,0,.15-1.15Z" fill="#565656"/><path d="M389.15,367a5.5,5.5,0,0,1-.91,0l.4,0a4.85,4.85,0,0,1-1.24-.34l.36.15a3.36,3.36,0,0,1-.6-.3,1.61,1.61,0,0,0-1.16-.15,1.59,1.59,0,0,0-.9.69,1.5,1.5,0,0,0,.54,2.05,6.54,6.54,0,0,0,3.51.89,1.61,1.61,0,0,0,1.06-.44,1.56,1.56,0,0,0,.44-1.06,1.54,1.54,0,0,0-.44-1.06,1.47,1.47,0,0,0-1.06-.44Z" fill="#565656"/><path d="M391.84,358.51l-2.77,1.78a1.62,1.62,0,0,0-.69.89,1.5,1.5,0,0,0,1.05,1.85,1.52,1.52,0,0,0,1.16-.15l2.77-1.78a1.64,1.64,0,0,0,.69-.9,1.53,1.53,0,0,0-.15-1.15,1.51,1.51,0,0,0-2.06-.54Z" fill="#565656"/><path d="M390.52,352.09h-2.74a1.54,1.54,0,0,0-1.06.44,1.52,1.52,0,0,0-.44,1.06,1.46,1.46,0,0,0,.44,1.06,1.54,1.54,0,0,0,1.06.44h2.74a1.52,1.52,0,0,0,1.06-.44,1.5,1.5,0,0,0,.44-1.06,1.54,1.54,0,0,0-.44-1.06,1.56,1.56,0,0,0-1.06-.44Z" fill="#565656"/><path d="M387.62,342.47l-2.74-1.37a1.61,1.61,0,0,0-1.16-.15,1.54,1.54,0,0,0-.89.69,1.52,1.52,0,0,0-.16,1.16,1.54,1.54,0,0,0,.69.89l2.75,1.37a1.59,1.59,0,0,0,1.15.15,1.51,1.51,0,0,0,.9-.68,1.56,1.56,0,0,0,.15-1.16,1.52,1.52,0,0,0-.69-.9Z" fill="#565656"/><path d="M383.21,329.69a7.39,7.39,0,0,1-1.88,0l.4.05a8.55,8.55,0,0,1-.88-.17,1.54,1.54,0,0,0-1.15.15,1.52,1.52,0,0,0-.69.9,1.49,1.49,0,0,0,.15,1.15,1.52,1.52,0,0,0,.9.69,8.35,8.35,0,0,0,3.15.23,1.25,1.25,0,0,0,.57-.13,1.21,1.21,0,0,0,.49-.31,1.56,1.56,0,0,0,.44-1.06,1.59,1.59,0,0,0-.44-1.07,1.46,1.46,0,0,0-1.06-.43Z" fill="#565656"/><path d="M381.68,313.23l-1.82-1.16a1,1,0,0,0-.56-.17,1.11,1.11,0,0,0-.6,0,1.26,1.26,0,0,0-.51.27,1.18,1.18,0,0,0-.38.42,1.47,1.47,0,0,0-.15,1.16l.15.36a1.45,1.45,0,0,0,.54.53l1.82,1.16a1.09,1.09,0,0,0,.55.18,1.22,1.22,0,0,0,.6,0,1,1,0,0,0,.51-.27,1.13,1.13,0,0,0,.39-.42,1.54,1.54,0,0,0,.15-1.15l-.15-.36a1.55,1.55,0,0,0-.54-.54Z" fill="#565656"/><path d="M382.37,306.83l-.46-.23a1,1,0,0,0-.56-.17,1.11,1.11,0,0,0-.6,0,1.26,1.26,0,0,0-.51.27,1.18,1.18,0,0,0-.38.42l-.16.36a1.55,1.55,0,0,0,0,.8l.16.36a1.5,1.5,0,0,0,.53.53l.46.23a1.66,1.66,0,0,0,1.16.15,1.06,1.06,0,0,0,.51-.27,1,1,0,0,0,.38-.42l.15-.35a1.36,1.36,0,0,0,0-.8l-.15-.36a1.52,1.52,0,0,0-.53-.54Z" fill="#565656"/><path d="M380.92,319.19H379.1a1.59,1.59,0,0,0-1.07.44,1.24,1.24,0,0,0-.31.48,1.17,1.17,0,0,0-.12.58,1.49,1.49,0,0,0,.43,1.06,1.59,1.59,0,0,0,1.07.44h1.82a1.5,1.5,0,0,0,1.06-.44,1,1,0,0,0,.31-.48,1.06,1.06,0,0,0,.13-.58,1.46,1.46,0,0,0-.44-1.06,1.54,1.54,0,0,0-1.06-.44Z" fill="#565656"/><path d="M376.22,298.53v4.11a1.5,1.5,0,0,0,3,0v-4.11a1.5,1.5,0,0,0-3,0Z" fill="#565656"/><path d="M373.46,304.85l1.83,1.6a1.24,1.24,0,0,0,.48.31,1.29,1.29,0,0,0,.58.13,1.27,1.27,0,0,0,.58-.13,1.11,1.11,0,0,0,.48-.31,1.52,1.52,0,0,0,.44-1.06,1.48,1.48,0,0,0-.44-1.06l-1.83-1.6a1,1,0,0,0-.48-.31,1.06,1.06,0,0,0-.58-.13,1,1,0,0,0-.57.13,1.11,1.11,0,0,0-.49.31,1.54,1.54,0,0,0-.44,1.06,1.5,1.5,0,0,0,.44,1.06Z" fill="#565656"/><path d="M372.25,314.17a4.88,4.88,0,0,0,.84,1.28,5.08,5.08,0,0,0,1.17,1,1.12,1.12,0,0,0,.56.18,1.22,1.22,0,0,0,.6,0,1.26,1.26,0,0,0,.51-.27,1,1,0,0,0,.38-.42,1.47,1.47,0,0,0,.15-1.16l-.15-.35a1.45,1.45,0,0,0-.53-.54l-.3-.21.31.24a4,4,0,0,1-.69-.68l.24.3a3.87,3.87,0,0,1-.5-.86,1.31,1.31,0,0,0-.39-.42,1.14,1.14,0,0,0-.51-.27,1.11,1.11,0,0,0-.6,0,1.16,1.16,0,0,0-.56.18,1.45,1.45,0,0,0-.68.89l-.06.4a1.48,1.48,0,0,0,.21.76Z" fill="#565656"/><path d="M372.68,323.66a11.68,11.68,0,0,0,1.14,1.29,15.52,15.52,0,0,0,1.57,1.35,1.12,1.12,0,0,0,.56.18,1.22,1.22,0,0,0,.6,0,1.53,1.53,0,0,0,.89-.69,1.47,1.47,0,0,0,.15-1.16l-.15-.35a1.45,1.45,0,0,0-.53-.54l0,0,.31.24a13.4,13.4,0,0,1-2.38-2.38,1.14,1.14,0,0,0-.48-.31,1.08,1.08,0,0,0-.58-.13,1.5,1.5,0,0,0-1.5,1.5l.05.4a1.49,1.49,0,0,0,.39.66Z" fill="#565656"/><path d="M374.69,337.31l2.75-3a1.56,1.56,0,0,0,.44-1.06,1.5,1.5,0,0,0-.44-1.06,1.46,1.46,0,0,0-1.06-.44,1.47,1.47,0,0,0-1.06.44l-2.75,3a1.61,1.61,0,0,0-.44,1.06,1.54,1.54,0,0,0,.44,1.06,1.52,1.52,0,0,0,1.06.44,1.54,1.54,0,0,0,1.06-.44Z" fill="#565656"/><path d="M372.7,343.21a7.45,7.45,0,0,0,2-.07,6.43,6.43,0,0,0,1.6-.43,1.26,1.26,0,0,0,.51-.27,1.18,1.18,0,0,0,.38-.42,1.52,1.52,0,0,0-.53-2.06,1.49,1.49,0,0,0-1.16-.15,6.57,6.57,0,0,1-1.63.45l.4-.06a6.35,6.35,0,0,1-1.57,0,1.5,1.5,0,0,0-1.06.44,1.52,1.52,0,0,0-.44,1.06,1.5,1.5,0,0,0,.44,1.06l.3.23a1.48,1.48,0,0,0,.76.21Z" fill="#565656"/><path d="M373.15,349.38h2.06a1.54,1.54,0,0,0,1.06-.44,1.08,1.08,0,0,0,.31-.48,1.06,1.06,0,0,0,.13-.58,1.5,1.5,0,0,0-.44-1.06,1.54,1.54,0,0,0-1.06-.44h-2.06a1.58,1.58,0,0,0-1.06.44,1.24,1.24,0,0,0-.31.48,1.27,1.27,0,0,0-.13.58,1.54,1.54,0,0,0,.44,1.06,1.58,1.58,0,0,0,1.06.44Z" fill="#565656"/><path d="M372,352.82l4.35.34a1.54,1.54,0,0,0,1.06-.44,1.5,1.5,0,0,0-1.06-2.56l-4.35-.34a1.5,1.5,0,0,0-1.5,1.5,1.54,1.54,0,0,0,1.5,1.5Z" fill="#565656"/><path d="M371.65,362.87l.14.18,0,0,.27.37c.17.24.34.5.49.76a14.22,14.22,0,0,1,.83,1.54c0,.08.22.46,0,.11.06.14.11.28.16.42.11.29.21.57.3.86a15.51,15.51,0,0,1,.42,1.76,1.5,1.5,0,0,0,1.84,1.05,1.54,1.54,0,0,0,1.05-1.85,16,16,0,0,0-3.4-7.28,1.49,1.49,0,0,0-2.12,0,1.54,1.54,0,0,0,0,2.12Z" fill="#565656"/><path d="M370.63,371.63a7.76,7.76,0,0,0,.85,3.93,1.56,1.56,0,0,0,.9.69,1.5,1.5,0,0,0,1.84-1.05,1.67,1.67,0,0,0-.15-1.16c-.06-.11-.11-.23-.17-.35l.16.35a6.11,6.11,0,0,1-.44-1.57l.06.4a6.41,6.41,0,0,1-.05-1.24,1.5,1.5,0,0,0-2.56-1.06,1.68,1.68,0,0,0-.44,1.06Z" fill="#565656"/><path d="M373.27,386a14.69,14.69,0,0,0,3.45-2.83,1.59,1.59,0,0,0,.44-1.06,1.56,1.56,0,0,0-.44-1.06,1.5,1.5,0,0,0-2.12,0,13.55,13.55,0,0,1-1.8,1.67l.31-.23a15.45,15.45,0,0,1-1.36.92,1.5,1.5,0,0,0-.54,2.05,1.55,1.55,0,0,0,.9.69,1.57,1.57,0,0,0,1.16-.15Z" fill="#565656"/><path d="M373.56,395.72l1.82-.69a1.14,1.14,0,0,0,.51-.27,1,1,0,0,0,.39-.42,1.12,1.12,0,0,0,.18-.56,1.22,1.22,0,0,0,0-.6,1.5,1.5,0,0,0-.69-.89l-.36-.15a1.51,1.51,0,0,0-.79,0l-1.83.68a1.14,1.14,0,0,0-.51.27,1.31,1.31,0,0,0-.39.42,1,1,0,0,0-.17.56,1.11,1.11,0,0,0,0,.6,1.5,1.5,0,0,0,.69.89l.36.16a1.55,1.55,0,0,0,.8,0Z" fill="#565656"/><path d="M370.7,401.65a28.44,28.44,0,0,0,3.23,4.4,1.51,1.51,0,0,0,2.12,0,1.53,1.53,0,0,0,0-2.12c-.41-.47-.81-.94-1.19-1.44l.23.31a28.2,28.2,0,0,1-1.8-2.66,1.5,1.5,0,1,0-2.59,1.51Z" fill="#565656"/><path d="M371.64,408.61a25.87,25.87,0,0,0,1.23,3.86,1.63,1.63,0,0,0,.69.9,1.5,1.5,0,0,0,2.05-.54,1.43,1.43,0,0,0,.15-1.16,25.87,25.87,0,0,1-1.23-3.86,1.5,1.5,0,0,0-1.84-1,1.52,1.52,0,0,0-1.05,1.84Z" fill="#565656"/><path d="M371,419.31l2.3,1.58a1.12,1.12,0,0,0,.56.18,1.18,1.18,0,0,0,.59,0,1.5,1.5,0,0,0,1-1.84l-.15-.36a1.4,1.4,0,0,0-.54-.54l-2.29-1.58a1.16,1.16,0,0,0-.56-.18,1.22,1.22,0,0,0-.6,0,1.51,1.51,0,0,0-.9.69,1.54,1.54,0,0,0-.15,1.15l.15.36a1.55,1.55,0,0,0,.54.54Z" fill="#565656"/><path d="M369.57,424.49a18,18,0,0,0,2.53,3,1.56,1.56,0,0,0,1.06.44,1.54,1.54,0,0,0,1.06-.44,1.52,1.52,0,0,0,.44-1.06,1.54,1.54,0,0,0-.44-1.06,17.32,17.32,0,0,1-1.67-1.86l.24.3q-.33-.42-.63-.87a1.59,1.59,0,0,0-.9-.69,1.54,1.54,0,0,0-1.15.15,1.51,1.51,0,0,0-.69.9,1.45,1.45,0,0,0,.15,1.15Z" fill="#565656"/><path d="M368.15,431.84l2.28,3.2a1.61,1.61,0,0,0,.89.69,1.5,1.5,0,0,0,1.85-1.05,1.49,1.49,0,0,0-.15-1.15l-2.28-3.2a1.63,1.63,0,0,0-.9-.69,1.5,1.5,0,0,0-1.85,1.05,1.45,1.45,0,0,0,.16,1.15Z" fill="#565656"/><path d="M368.63,440.09l5.73,1.08a1.59,1.59,0,0,0,1.15-.15,1.5,1.5,0,0,0-.36-2.74l-5.72-1.08a1.62,1.62,0,0,0-1.16.15,1.56,1.56,0,0,0-.69.9,1.53,1.53,0,0,0,1.05,1.84Z" fill="#565656"/><path d="M368.81,447.85h3a1.54,1.54,0,0,0,1.06-.44,1.5,1.5,0,0,0,.44-1.06,1.46,1.46,0,0,0-.44-1.06,1.54,1.54,0,0,0-1.06-.44h-3a1.58,1.58,0,0,0-1.06.44,1.56,1.56,0,0,0-.44,1.06,1.54,1.54,0,0,0,.44,1.06,1.58,1.58,0,0,0,1.06.44Z" fill="#565656"/><path d="M369.5,454.92l2.28.26a1.27,1.27,0,0,0,.58-.13,1.11,1.11,0,0,0,.48-.31,1.52,1.52,0,0,0,.44-1.06,1.46,1.46,0,0,0-.44-1.06l-.3-.24a1.54,1.54,0,0,0-.76-.2l-2.28-.26a1.06,1.06,0,0,0-.58.13,1.14,1.14,0,0,0-.48.31,1.5,1.5,0,0,0-.44,1.06,1.54,1.54,0,0,0,.44,1.06l.3.23a1.48,1.48,0,0,0,.76.21Z" fill="#565656"/><path d="M367.29,460.75c.25.08.5.17.74.27l-.36-.15a8.82,8.82,0,0,1,1.85,1.09l-.3-.23a8.35,8.35,0,0,1,1.43,1.42l-.24-.3,0,0a1.67,1.67,0,0,0,.9.69,1.53,1.53,0,0,0,1.15-.15,1.51,1.51,0,0,0,.69-.9,1.41,1.41,0,0,0-.15-1.15,10.27,10.27,0,0,0-1.06-1.23,11.23,11.23,0,0,0-1.26-1,9.3,9.3,0,0,0-2.63-1.28,1.5,1.5,0,0,0-.8,2.89Z" fill="#565656"/><path d="M193.47,46.09c0,.37-.05.74-.09,1.12a.88.88,0,0,0,0,.17c0-.16,0-.17,0-.05s0,.18,0,.26-.06.37-.1.55a16.81,16.81,0,0,1-.61,2.21,1.13,1.13,0,0,0,.78,1.39,1.17,1.17,0,0,0,1.39-.79,17.16,17.16,0,0,0,.94-4.86A1.13,1.13,0,0,0,194.6,45a1.15,1.15,0,0,0-1.13,1.13Z" fill="#565656"/><path d="M190,51.47c-.65-1.21-1.34-2.39-2.08-3.54A1.13,1.13,0,1,0,186,49.07c.74,1.15,1.43,2.33,2.08,3.54a1.14,1.14,0,0,0,1.54.4,1.16,1.16,0,0,0,.4-1.54Z" fill="#565656"/><path d="M182.37,51.16a2.47,2.47,0,0,1,.06.29l0-.3a3.47,3.47,0,0,1,0,.91l0-.3a4.61,4.61,0,0,1-.14.62,1.12,1.12,0,0,0,.78,1.38,1.15,1.15,0,0,0,.87-.11,1.32,1.32,0,0,0,.52-.67,4.62,4.62,0,0,0,.08-2.42,1.13,1.13,0,0,0-1.38-.79,1.13,1.13,0,0,0-.67.52,1.25,1.25,0,0,0-.12.87Z" fill="#565656"/><path d="M180.09,54l-1.36-.91a.81.81,0,0,0-.42-.14,1,1,0,0,0-.83.22.81.81,0,0,0-.29.32,1.15,1.15,0,0,0-.12.87l.12.27a1.1,1.1,0,0,0,.4.4L179,56a.8.8,0,0,0,.42.13.77.77,0,0,0,.45,0,.82.82,0,0,0,.38-.2.86.86,0,0,0,.29-.31,1.15,1.15,0,0,0,.11-.87l-.11-.27a1.12,1.12,0,0,0-.41-.4Z" fill="#565656"/><path d="M172.26,52v3.87a1.13,1.13,0,0,0,2.25,0V52a1.13,1.13,0,0,0-1.12-1.13A1.16,1.16,0,0,0,172.26,52Z" fill="#565656"/><path d="M170.13,55.47h-.07l.3,0a2.89,2.89,0,0,1-.72,0l.3,0a3.46,3.46,0,0,1-.7-.19l.27.11a2.57,2.57,0,0,1-.62-.36l.23.18-.17-.14a1.17,1.17,0,0,0-.79-.33,1.14,1.14,0,0,0-.8.33,1.11,1.11,0,0,0-.33.79,1.14,1.14,0,0,0,.33.8,4,4,0,0,0,1.56.89,5.05,5.05,0,0,0,.88.15,4.17,4.17,0,0,0,.93-.07,1.11,1.11,0,0,0,.78-1.38,1.12,1.12,0,0,0-.51-.67l-.27-.12a1.22,1.22,0,0,0-.6,0Z" fill="#565656"/><path d="M163.84,55.65v2.28a1.11,1.11,0,0,0,.33.79,1.07,1.07,0,0,0,.79.33,1.14,1.14,0,0,0,1.13-1.12V55.65a1.16,1.16,0,0,0-.33-.79,1.11,1.11,0,0,0-.8-.33,1.13,1.13,0,0,0-1.12,1.12Z" fill="#565656"/><path d="M160.47,57.73l.12,2.18a1.2,1.2,0,0,0,.33.8,1.12,1.12,0,0,0,1.59,0,1.11,1.11,0,0,0,.33-.8l-.12-2.18a1.2,1.2,0,0,0-.33-.8,1.16,1.16,0,0,0-.79-.33,1.12,1.12,0,0,0-.8.33,1.09,1.09,0,0,0-.33.8Z" fill="#565656"/><path d="M156.37,60.78a15.64,15.64,0,0,0-1.49-1.2,1.26,1.26,0,0,0-.86-.11.81.81,0,0,0-.39.2,1,1,0,0,0-.29.31,1.2,1.2,0,0,0-.11.87l.11.27a1.12,1.12,0,0,0,.41.4l.39.29-.23-.17a10,10,0,0,1,.87.74,1.15,1.15,0,0,0,.79.32.78.78,0,0,0,.43-.09,1,1,0,0,0,.37-.23,1.13,1.13,0,0,0,0-1.6Z" fill="#565656"/><path d="M151.54,59.7v3.23a1.13,1.13,0,0,0,2.25,0V59.7a1.13,1.13,0,0,0-2.25,0Z" fill="#565656"/><path d="M144.88,63v2.5a1.16,1.16,0,0,0,.33.79,1.07,1.07,0,0,0,.79.33,1.12,1.12,0,0,0,.8-.33,1.17,1.17,0,0,0,.33-.79V63a1.16,1.16,0,0,0-.33-.79,1.08,1.08,0,0,0-.8-.33,1.11,1.11,0,0,0-.79.33,1.17,1.17,0,0,0-.33.79Z" fill="#565656"/><path d="M140.76,62.41a6.84,6.84,0,0,0,1,2.63l-.12-.27a2.88,2.88,0,0,1,.2.65l0-.3a1.36,1.36,0,0,1,0,.2,1.13,1.13,0,1,0,2.25,0,7.11,7.11,0,0,0-.95-2.63l.11.27a3.48,3.48,0,0,1-.19-.65l0,.3a1.34,1.34,0,0,1,0-.2,1.13,1.13,0,1,0-2.25,0Z" fill="#565656"/><path d="M136.45,66.78V69a1.13,1.13,0,0,0,1.13,1.13,1.16,1.16,0,0,0,.79-.33,1.14,1.14,0,0,0,.33-.8V66.78a1.12,1.12,0,0,0-1.92-.8,1.18,1.18,0,0,0-.33.8Z" fill="#565656"/><path d="M133.9,69.11a16.39,16.39,0,0,0-2.72-2.48,1.15,1.15,0,0,0-.87-.11,1.12,1.12,0,0,0-.67.52,1.08,1.08,0,0,0-.11.86l.11.27a1.12,1.12,0,0,0,.4.41l.32.24-.22-.18a14.51,14.51,0,0,1,2.16,2.06,1.14,1.14,0,0,0,.8.33,1.18,1.18,0,0,0,.8-.33,1.14,1.14,0,0,0,.32-.8,1.21,1.21,0,0,0-.32-.79Z" fill="#565656"/><path d="M127.71,68.34V72A1.13,1.13,0,0,0,130,72V68.34a1.14,1.14,0,0,0-1.12-1.13,1.16,1.16,0,0,0-1.13,1.13Z" fill="#565656"/><path d="M124.18,72.27l.63.72a.77.77,0,0,0,.36.23.8.8,0,0,0,.43.1.84.84,0,0,0,.44-.1.77.77,0,0,0,.36-.23l.17-.23a1,1,0,0,0,.16-.56l0-.3a1.2,1.2,0,0,0-.29-.5l-.63-.72a.85.85,0,0,0-.37-.23.78.78,0,0,0-.43-.1.8.8,0,0,0-.43.1.77.77,0,0,0-.36.23l-.18.23a1.09,1.09,0,0,0-.15.56l0,.3a1.1,1.1,0,0,0,.29.5Z" fill="#565656"/><path d="M114.83,76.94a8.12,8.12,0,0,0,2.3,2A1.2,1.2,0,0,0,118,79a1.12,1.12,0,0,0,.67-.51,1.16,1.16,0,0,0,.12-.87,1.13,1.13,0,0,0-.52-.67,7,7,0,0,1-.85-.57l.23.18a7.1,7.1,0,0,1-1.23-1.22,1.12,1.12,0,0,0-.79-.32,1.17,1.17,0,0,0-.8.32,1.15,1.15,0,0,0-.33.8l0,.3a1.1,1.1,0,0,0,.29.5Z" fill="#565656"/><path d="M119.5,70.52v5.83a1.12,1.12,0,0,0,1.12,1.12,1.14,1.14,0,0,0,1.13-1.12V70.52a1.13,1.13,0,0,0-2.25,0Z" fill="#565656"/><path d="M112.21,78.43v3.85a1.13,1.13,0,0,0,2.25,0V78.43a1.14,1.14,0,0,0-1.12-1.13,1.16,1.16,0,0,0-1.13,1.13Z" fill="#565656"/><path d="M110.11,83.86h-2.6a1.11,1.11,0,0,0-.79.33,1.07,1.07,0,0,0-.33.79,1.14,1.14,0,0,0,1.12,1.13h2.6A1.13,1.13,0,0,0,111.24,85a1.15,1.15,0,0,0-1.13-1.12Z" fill="#565656"/><path d="M107.1,88.75h-3.33a1.13,1.13,0,0,0-1.13,1.12A1.16,1.16,0,0,0,103.77,91h3.33a1.13,1.13,0,0,0,0-2.25Z" fill="#565656"/><path d="M104.29,93.43h-3.54a1.13,1.13,0,0,0,0,2.25h3.54a1.13,1.13,0,0,0,0-2.25Z" fill="#565656"/><path d="M99.81,100.07l-1.66.11a.88.88,0,0,0-.43.1,1,1,0,0,0-.37.23,1.2,1.2,0,0,0-.33.8,1.16,1.16,0,0,0,.33.79,1.06,1.06,0,0,0,.8.33l1.66-.11a1,1,0,0,0,.44-.1.86.86,0,0,0,.36-.23,1.2,1.2,0,0,0,.33-.8,1.16,1.16,0,0,0-.33-.79,1.06,1.06,0,0,0-.8-.33Z" fill="#565656"/><path d="M98.49,102.55a11.76,11.76,0,0,1-2.81.74l.3,0-.64.07a1.22,1.22,0,0,0-.79.33,1.11,1.11,0,0,0-.33.8,1.13,1.13,0,0,0,1.12,1.12,12.56,12.56,0,0,0,3.74-.85,1.22,1.22,0,0,0,.68-.52,1.14,1.14,0,0,0,.11-.87,1.16,1.16,0,0,0-.52-.67,1.09,1.09,0,0,0-.86-.11Z" fill="#565656"/><path d="M96.29,106.86c-1.09.18-2.16.4-3.22.66a1.12,1.12,0,0,0,.59,2.17c1.07-.26,2.14-.48,3.22-.66a1.11,1.11,0,0,0,.79-1.38,1.13,1.13,0,0,0-.52-.67,1.28,1.28,0,0,0-.86-.12Z" fill="#565656"/><path d="M94.6,114a7,7,0,0,0-.48-1,6.31,6.31,0,0,0-.66-.88A5.78,5.78,0,0,0,92,110.85a1.14,1.14,0,0,0-1.54.4,1.14,1.14,0,0,0,.41,1.54c.19.12.38.24.56.38l-.22-.18a5.53,5.53,0,0,1,.9.91l-.17-.23a5.09,5.09,0,0,1,.64,1.11l-.11-.27v0a.93.93,0,0,0,.2.38.89.89,0,0,0,.32.29,1.14,1.14,0,0,0,1.54-.4,1.11,1.11,0,0,0,.11-.87Z" fill="#565656"/><path d="M91.89,118.49H89.33a1.13,1.13,0,0,0-1.13,1.13,1.15,1.15,0,0,0,1.13,1.12h2.56a1.11,1.11,0,0,0,.79-.33,1.07,1.07,0,0,0,.33-.79,1.14,1.14,0,0,0-1.12-1.13Z" fill="#565656"/><path d="M89.33,124.05l-.85.57a1.24,1.24,0,0,0-.52.67.86.86,0,0,0,0,.45.9.9,0,0,0,.13.42l.18.23a1.16,1.16,0,0,0,.49.29l.3,0a1,1,0,0,0,.57-.16l.85-.57a.75.75,0,0,0,.32-.29.74.74,0,0,0,.2-.38.77.77,0,0,0,0-.45.74.74,0,0,0-.13-.41l-.18-.23a1.07,1.07,0,0,0-.49-.29l-.3,0a1.1,1.1,0,0,0-.57.15Z" fill="#565656"/><path d="M87,128.45l-2.85.53a1.12,1.12,0,0,0-.67.52,1.17,1.17,0,0,0-.12.86,1.15,1.15,0,0,0,.52.68,1.31,1.31,0,0,0,.87.11l2.85-.53a1.14,1.14,0,0,0,.67-.51,1.21,1.21,0,0,0,.12-.87,1.13,1.13,0,0,0-.52-.67,1.25,1.25,0,0,0-.87-.12Z" fill="#565656"/><path d="M84.47,131.39l-1.7.88a1.17,1.17,0,0,0-.51.68.74.74,0,0,0,0,.44.8.8,0,0,0,.13.42,1.19,1.19,0,0,0,.67.52,1.25,1.25,0,0,0,.87-.11l1.69-.88a1.14,1.14,0,0,0,.52-.68.82.82,0,0,0,0-.44.9.9,0,0,0-.13-.42,1.18,1.18,0,0,0-.68-.52,1.22,1.22,0,0,0-.86.11Z" fill="#565656"/><path d="M83.44,138.19l-2.28,2.55a1.2,1.2,0,0,0-.33.8,1.13,1.13,0,0,0,.33.79,1.07,1.07,0,0,0,.79.33,1.09,1.09,0,0,0,.8-.33L85,139.78a1.2,1.2,0,0,0,.33-.8,1.16,1.16,0,0,0-.33-.79,1.11,1.11,0,0,0-.8-.33,1.06,1.06,0,0,0-.79.33Z" fill="#565656"/><path d="M79.94,144.2l-2.29.47a1.14,1.14,0,0,0-.68.52,1.12,1.12,0,0,0,.41,1.53,1.22,1.22,0,0,0,.86.12l2.3-.47a1.13,1.13,0,0,0,.67-.52,1.19,1.19,0,0,0,.12-.87,1.16,1.16,0,0,0-.52-.67,1.31,1.31,0,0,0-.87-.11Z" fill="#565656"/><path d="M78.8,150.63h-4a1.13,1.13,0,0,0,0,2.25h4a1.13,1.13,0,0,0,1.13-1.12,1.15,1.15,0,0,0-1.13-1.13Z" fill="#565656"/><path d="M79.37,147.79h-1.7a1.2,1.2,0,0,0-.8.33,1.16,1.16,0,0,0-.33.79,1.12,1.12,0,0,0,.33.8,1.18,1.18,0,0,0,.8.33h1.7a1.2,1.2,0,0,0,.8-.33,1.16,1.16,0,0,0,.33-.8,1.11,1.11,0,0,0-.33-.79,1.18,1.18,0,0,0-.8-.33Z" fill="#565656"/><path d="M76,154.24l-2.59,1.35a1.13,1.13,0,0,0-.41,1.54,1.15,1.15,0,0,0,1.54.41l2.6-1.36A1.13,1.13,0,0,0,76,154.24Z" fill="#565656"/><path d="M73.42,161.07l-4,2A1.12,1.12,0,1,0,70.59,165l4-2a1.13,1.13,0,0,0,.4-1.54,1.15,1.15,0,0,0-1.54-.4Z" fill="#565656"/><path d="M71.68,170v-.57a.8.8,0,0,0-.1-.43,1,1,0,0,0-.59-.59.72.72,0,0,0-.43-.1l-.3,0a1.1,1.1,0,0,0-.5.29l-.18.23a1.09,1.09,0,0,0-.15.56V170a1,1,0,0,0,.1.44.77.77,0,0,0,.23.36.86.86,0,0,0,.36.23,1,1,0,0,0,.44.1l.3,0a1.16,1.16,0,0,0,.49-.29l.18-.23a1.13,1.13,0,0,0,.15-.57Z" fill="#565656"/><path d="M70,173.18a1.69,1.69,0,0,1-.44-.12l.27.11a2.2,2.2,0,0,1-.47-.27l.23.17a2.21,2.21,0,0,1-.41-.4l.18.23a2,2,0,0,1-.26-.45l.11.27a2.09,2.09,0,0,1-.08-.23,1.19,1.19,0,0,0-.52-.67.8.8,0,0,0-.42-.13.74.74,0,0,0-.44,0,1.14,1.14,0,0,0-.68.51,1.15,1.15,0,0,0-.11.87,3.55,3.55,0,0,0,.21.54,2.15,2.15,0,0,0,.14.26,3.27,3.27,0,0,0,.56.67,2.85,2.85,0,0,0,.7.49,2.76,2.76,0,0,0,.83.3,1.26,1.26,0,0,0,.86-.11,1.12,1.12,0,0,0,.52-.67,1.15,1.15,0,0,0-.11-.87,1.16,1.16,0,0,0-.67-.52Z" fill="#565656"/><path d="M67.71,177.09H64.3a1.14,1.14,0,0,0-1.13,1.12,1.16,1.16,0,0,0,1.13,1.13h3.41a1.13,1.13,0,1,0,0-2.25Z" fill="#565656"/><path d="M64.67,181.43l-1.75,1.38a.86.86,0,0,0-.23.36.91.91,0,0,0-.1.43,1.18,1.18,0,0,0,.33.8,1.2,1.2,0,0,0,.8.33l.3,0a1.26,1.26,0,0,0,.5-.29L66.26,183a.77.77,0,0,0,.23-.36.91.91,0,0,0,.1-.43,1.14,1.14,0,0,0-.33-.8,1.15,1.15,0,0,0-.8-.33l-.3,0a1.16,1.16,0,0,0-.49.29Z" fill="#565656"/><path d="M63.5,186.52l-2.56,2.27a1.2,1.2,0,0,0-.33.8,1.17,1.17,0,0,0,.33.79,1.11,1.11,0,0,0,.8.33,1.17,1.17,0,0,0,.79-.33l2.56-2.27a1.15,1.15,0,0,0,.33-.8,1.13,1.13,0,0,0-.33-.79,1.07,1.07,0,0,0-.79-.33,1.22,1.22,0,0,0-.8.33Z" fill="#565656"/><path d="M60.59,194.89l-1.13-.57a.91.91,0,0,0-.42-.14,1,1,0,0,0-.45,0,.89.89,0,0,0-.38.21.72.72,0,0,0-.29.31l-.12.27a1.22,1.22,0,0,0,0,.6l.12.27a1.1,1.1,0,0,0,.4.4l1.14.57a.91.91,0,0,0,.42.14.94.94,0,0,0,.44,0,.92.92,0,0,0,.39-.21.86.86,0,0,0,.29-.31l.11-.27a1.22,1.22,0,0,0,0-.6l-.11-.27a1.12,1.12,0,0,0-.41-.4Z" fill="#565656"/><path d="M58.61,202.4H57.19a1.15,1.15,0,0,0-.8.33.86.86,0,0,0-.23.36.91.91,0,0,0-.1.43,1.16,1.16,0,0,0,.33.8,1.18,1.18,0,0,0,.8.33h1.42a1.2,1.2,0,0,0,.8-.33.86.86,0,0,0,.23-.36,1,1,0,0,0,.1-.44,1.16,1.16,0,0,0-.33-.79,1.18,1.18,0,0,0-.8-.33Z" fill="#565656"/><path d="M57.19,207.52a5.61,5.61,0,0,0-3.13.72,1.2,1.2,0,0,0-.52.67,1.13,1.13,0,0,0,1.66,1.27c.14-.08.29-.15.44-.22l-.27.12a4.42,4.42,0,0,1,1.17-.32l-.3,0a5,5,0,0,1,.95,0,1.13,1.13,0,0,0,.79-.33,1.07,1.07,0,0,0,.33-.79,1.12,1.12,0,0,0-.33-.8,1.22,1.22,0,0,0-.79-.33Z" fill="#565656"/><path d="M58.92,198.42a5.05,5.05,0,0,0-2.88-.23,1.12,1.12,0,0,0-.67.51,1.2,1.2,0,0,0-.12.87,1.13,1.13,0,0,0,.52.67,1.25,1.25,0,0,0,.87.12l.24,0-.3,0a3.87,3.87,0,0,1,1,0l-.3,0a4.6,4.6,0,0,1,1,.27,1.08,1.08,0,0,0,.86-.11,1.12,1.12,0,0,0,.52-.67,1.15,1.15,0,0,0-.11-.87l-.18-.23a1.2,1.2,0,0,0-.5-.29Z" fill="#565656"/><path d="M53.49,214.06H50.93a1.16,1.16,0,0,0-.79.33,1.11,1.11,0,0,0-.33.8,1.14,1.14,0,0,0,1.12,1.12h2.56a1.2,1.2,0,0,0,.8-.33,1.12,1.12,0,0,0-.8-1.92Z" fill="#565656"/><path d="M52.28,219.18H52a.8.8,0,0,0-.43.1,1,1,0,0,0-.6.59.83.83,0,0,0-.09.44l0,.29a1.18,1.18,0,0,0,.28.5l.23.18a1.16,1.16,0,0,0,.57.15h.28a.84.84,0,0,0,.44-.1,1,1,0,0,0,.59-.59.83.83,0,0,0,.1-.43l0-.3a1.1,1.1,0,0,0-.29-.5l-.23-.18a1.1,1.1,0,0,0-.57-.15Z" fill="#565656"/><path d="M51.5,224.87H50.08a1.15,1.15,0,0,0-.8.33.86.86,0,0,0-.23.36.91.91,0,0,0-.1.43,1.13,1.13,0,0,0,1.13,1.13H51.5a1.2,1.2,0,0,0,.8-.33.86.86,0,0,0,.23-.36,1,1,0,0,0,.1-.44,1.16,1.16,0,0,0-.33-.79,1.2,1.2,0,0,0-.8-.33Z" fill="#565656"/><path d="M50.71,230.89l-2.27.32a1.09,1.09,0,0,0-.67.52,1.17,1.17,0,0,0-.12.86,1.15,1.15,0,0,0,.52.68l.27.11a1.22,1.22,0,0,0,.6,0l2.27-.32a1.09,1.09,0,0,0,.67-.52,1.17,1.17,0,0,0,.12-.86,1.15,1.15,0,0,0-.52-.68l-.27-.11a1.22,1.22,0,0,0-.6,0Z" fill="#565656"/><path d="M46.86,236.76l-2.22,2.89a1.15,1.15,0,0,0-.12.87,1.2,1.2,0,0,0,.52.67,1.11,1.11,0,0,0,.87.11l.27-.11a1.18,1.18,0,0,0,.4-.4l2.22-2.89a1.13,1.13,0,0,0-1.27-1.66l-.27.12a1.1,1.1,0,0,0-.4.4Z" fill="#565656"/><path d="M46.46,243.92H44.75a1.16,1.16,0,0,0-.79.33,1.11,1.11,0,0,0-.33.8,1.11,1.11,0,0,0,1.12,1.12h1.71a1.15,1.15,0,0,0,.79-.32,1.11,1.11,0,0,0,.33-.8,1.15,1.15,0,0,0-.33-.8,1.17,1.17,0,0,0-.79-.33Z" fill="#565656"/><path d="M45.61,249h-.86a.91.91,0,0,0-.43.1.86.86,0,0,0-.36.23,1,1,0,0,0-.24.37.78.78,0,0,0-.09.43l0,.3A1.07,1.07,0,0,0,44,251l.22.18a1.16,1.16,0,0,0,.57.15h.86a.82.82,0,0,0,.43-.09.88.88,0,0,0,.36-.24.77.77,0,0,0,.23-.36.8.8,0,0,0,.1-.43l0-.3a1.1,1.1,0,0,0-.29-.5l-.23-.17a1.21,1.21,0,0,0-.56-.16Z" fill="#565656"/><path d="M44.75,251.6H42.19a1.16,1.16,0,0,0-.79.33,1.11,1.11,0,0,0-.33.8,1.13,1.13,0,0,0,1.12,1.12h2.56a1.13,1.13,0,1,0,0-2.25Z" fill="#565656"/><path d="M45.53,255l-3.94,4a1.13,1.13,0,0,0,1.59,1.6l3.94-4A1.12,1.12,0,1,0,45.53,255Z" fill="#565656"/><path d="M43.28,264.45a3.64,3.64,0,0,0-.74-.07,4.39,4.39,0,0,0-.72.07,3.67,3.67,0,0,0-1.11.39,1.13,1.13,0,0,0-.52.67,1,1,0,0,0,0,.45.81.81,0,0,0,.14.42,1.08,1.08,0,0,0,.67.51l.3,0a1.16,1.16,0,0,0,.57-.15l.18-.09-.26.12a2.5,2.5,0,0,1,.71-.2l-.3,0a3.14,3.14,0,0,1,.75,0l-.3,0h.06a.82.82,0,0,0,.44,0,.9.9,0,0,0,.42-.13,1.14,1.14,0,0,0,.52-.68A1.17,1.17,0,0,0,44,265l-.18-.23a1.1,1.1,0,0,0-.5-.29Z" fill="#565656"/><path d="M42.42,269.81h-.86a.8.8,0,0,0-.43.09.88.88,0,0,0-.36.24.77.77,0,0,0-.23.36.72.72,0,0,0-.1.43l0,.3a1.1,1.1,0,0,0,.29.5l.23.17a1,1,0,0,0,.56.16h.86a.91.91,0,0,0,.43-.1,1,1,0,0,0,.59-.59.75.75,0,0,0,.1-.44l0-.3a1.07,1.07,0,0,0-.29-.49L43,270a1.09,1.09,0,0,0-.56-.15Z" fill="#565656"/><path d="M40.77,273.83l-2,2.28a1.2,1.2,0,0,0-.33.8,1.13,1.13,0,0,0,.33.79,1.11,1.11,0,0,0,.79.33,1.14,1.14,0,0,0,.8-.33l2-2.27a1.2,1.2,0,0,0,.33-.8,1.14,1.14,0,0,0-.33-.8,1.2,1.2,0,0,0-.8-.33,1.16,1.16,0,0,0-.79.33Z" fill="#565656"/><path d="M40.43,284.39a4.61,4.61,0,0,0-3.72.61,1.19,1.19,0,0,0-.52.67,1.15,1.15,0,0,0,.11.87,1.19,1.19,0,0,0,.67.52,1.15,1.15,0,0,0,.87-.12,3.6,3.6,0,0,1,.61-.33l-.26.11a3.42,3.42,0,0,1,.9-.24l-.3,0a3.62,3.62,0,0,1,.93,0l-.3,0a2.7,2.7,0,0,1,.41.08,1.15,1.15,0,0,0,.87-.11,1.22,1.22,0,0,0,.52-.68,1.15,1.15,0,0,0-.79-1.38Z" fill="#565656"/><path d="M39.35,287.2l-2,1.71a1.13,1.13,0,0,0,.8,1.92l.3,0a1.1,1.1,0,0,0,.5-.29l2-1.71a1.13,1.13,0,0,0,.33-.79,1.18,1.18,0,0,0-.33-.8,1.2,1.2,0,0,0-.8-.33l-.3,0a1.16,1.16,0,0,0-.49.29Z" fill="#565656"/><path d="M39.15,294.27H37.73a1.15,1.15,0,0,0-.8.33.86.86,0,0,0-.23.36.91.91,0,0,0-.1.43,1.13,1.13,0,0,0,1.13,1.13h1.42a1.2,1.2,0,0,0,.8-.33.86.86,0,0,0,.23-.36,1,1,0,0,0,.1-.44,1.16,1.16,0,0,0-.33-.79,1.18,1.18,0,0,0-.8-.33Z" fill="#565656"/><path d="M37.86,300.37a5.8,5.8,0,0,0-1.25.74,6.88,6.88,0,0,0-1.24,1.17.77.77,0,0,0-.23.36.84.84,0,0,0-.1.44,1.13,1.13,0,0,0,.33.79,1.09,1.09,0,0,0,.8.33,1.07,1.07,0,0,0,.79-.33,5.91,5.91,0,0,1,1-1l-.23.17a6.85,6.85,0,0,1,1.25-.74,1.13,1.13,0,0,0,.52-.67,1.16,1.16,0,0,0-.11-.86,1.14,1.14,0,0,0-.68-.52l-.29,0a1.1,1.1,0,0,0-.57.15Z" fill="#565656"/><path d="M38.72,305.35l-2.95,2.14a1.19,1.19,0,0,0-.51.67,1.15,1.15,0,0,0,.11.87,1.13,1.13,0,0,0,.67.51,1.06,1.06,0,0,0,.87-.11l3-2.14a1.19,1.19,0,0,0,.51-.67,1.12,1.12,0,0,0-.78-1.38,1.1,1.1,0,0,0-.87.11Z" fill="#565656"/><path d="M38.06,312.76H35.5a1.15,1.15,0,0,0-.79.32,1.11,1.11,0,0,0-.33.8A1.14,1.14,0,0,0,35.5,315h2.56a1.13,1.13,0,0,0,1.13-1.13,1.15,1.15,0,0,0-1.13-1.12Z" fill="#565656"/><path d="M38.06,316.74H35.79a1.14,1.14,0,0,0-.8.33,1.12,1.12,0,0,0,.8,1.92h2.27a1.13,1.13,0,0,0,1.13-1.13,1.15,1.15,0,0,0-1.13-1.12Z" fill="#565656"/><path d="M37.31,323.26,37,325.52a1,1,0,0,0,0,.45.81.81,0,0,0,.14.42,1.13,1.13,0,0,0,.67.52,1.15,1.15,0,0,0,.87-.12,1,1,0,0,0,.51-.67l.36-2.26a.86.86,0,0,0,0-.45.9.9,0,0,0-.13-.42,1.18,1.18,0,0,0-.68-.52,1.13,1.13,0,0,0-.86.12,1.09,1.09,0,0,0-.52.67Z" fill="#565656"/><path d="M37.48,328.82l-2.6,1.93a1.12,1.12,0,0,0,.27,2.06,1.08,1.08,0,0,0,.86-.12l2.6-1.93a1.12,1.12,0,0,0-.27-2.06,1.08,1.08,0,0,0-.86.12Z" fill="#565656"/><path d="M36.54,334.54l-.58.85a.79.79,0,0,0-.13.41.77.77,0,0,0,0,.45.81.81,0,0,0,.2.39.86.86,0,0,0,.31.29l.27.11a1.22,1.22,0,0,0,.6,0l.27-.11a1.12,1.12,0,0,0,.4-.41l.59-.84a.9.9,0,0,0,.13-.42.86.86,0,0,0,0-.45.82.82,0,0,0-.2-.38.89.89,0,0,0-.32-.29l-.26-.11a1,1,0,0,0-.6,0l-.27.11a1.21,1.21,0,0,0-.41.4Z" fill="#565656"/><path d="M36.06,341.3l-1.85,1.85a1.19,1.19,0,0,0-.32.8,1.16,1.16,0,0,0,.32.79,1.11,1.11,0,0,0,.8.33,1.15,1.15,0,0,0,.8-.33l1.84-1.85a1.11,1.11,0,0,0,.33-.79,1.14,1.14,0,0,0-.33-.8,1.11,1.11,0,0,0-.79-.33,1.25,1.25,0,0,0-.8.33Z" fill="#565656"/><path d="M37.14,347.5l-1.42,1.42a1.15,1.15,0,0,0-.33.8.8.8,0,0,0,.09.43.88.88,0,0,0,.24.36,1.07,1.07,0,0,0,.79.33,1.15,1.15,0,0,0,.8-.33l1.42-1.42a1.17,1.17,0,0,0,.33-.79.84.84,0,0,0-.1-.44.77.77,0,0,0-.23-.36,1.12,1.12,0,0,0-1.59,0Z" fill="#565656"/><path d="M37.65,354.66l-1.42-.28a.86.86,0,0,0-.45,0,.9.9,0,0,0-.42.13.86.86,0,0,0-.31.29.81.81,0,0,0-.2.39,1.12,1.12,0,0,0,.78,1.38l1.43.28a.73.73,0,0,0,.44,0,.8.8,0,0,0,.42-.13.89.89,0,0,0,.32-.29.93.93,0,0,0,.2-.38,1.2,1.2,0,0,0-.11-.87,1.14,1.14,0,0,0-.68-.52Z" fill="#565656"/><path d="M37.37,359.69H35.66a1.13,1.13,0,1,0,0,2.25h1.71a1.17,1.17,0,0,0,.79-.33,1.12,1.12,0,0,0-.79-1.92Z" fill="#565656"/><path d="M37.08,365.09H34.81a1.14,1.14,0,0,0-.8.33,1.12,1.12,0,0,0,.8,1.92h2.27a1.13,1.13,0,0,0,1.13-1.13,1.15,1.15,0,0,0-1.13-1.12Z" fill="#565656"/><path d="M37.65,362.24h-.57a.91.91,0,0,0-.43.1.86.86,0,0,0-.36.23,1,1,0,0,0-.24.37.78.78,0,0,0-.09.43l0,.3a1.16,1.16,0,0,0,.29.5l.22.17a1.16,1.16,0,0,0,.57.15h.57a.78.78,0,0,0,.43-.09,1,1,0,0,0,.6-.6.91.91,0,0,0,.1-.43l0-.3a1.2,1.2,0,0,0-.29-.5l-.23-.17a1.29,1.29,0,0,0-.57-.16Z" fill="#565656"/><path d="M38.5,368.85a3.13,3.13,0,0,0-2.2.89,3.16,3.16,0,0,0-1,2.16,1.2,1.2,0,0,0,.33.8,1.14,1.14,0,0,0,.8.32,1.1,1.1,0,0,0,.79-.32,1.2,1.2,0,0,0,.33-.8c0-.06,0-.12,0-.17l0,.3a1.49,1.49,0,0,1,.13-.47l-.12.27a2.43,2.43,0,0,1,.28-.47l-.18.22a2.79,2.79,0,0,1,.39-.38l-.23.17a2.27,2.27,0,0,1,.48-.27l-.27.11a2.11,2.11,0,0,1,.49-.14l-.3.05a1.42,1.42,0,0,1,.29,0,1.14,1.14,0,0,0,.8-.33,1.16,1.16,0,0,0,.33-.79,1.18,1.18,0,0,0-.33-.8,1.25,1.25,0,0,0-.8-.33Z" fill="#565656"/><path d="M37.64,374.28l-1.42.28a.93.93,0,0,0-.38.2.89.89,0,0,0-.29.32.8.8,0,0,0-.13.42.77.77,0,0,0,0,.45,1.14,1.14,0,0,0,.51.67l.27.11a1,1,0,0,0,.6,0l1.42-.28a.92.92,0,0,0,.39-.21,1,1,0,0,0,.29-.31.9.9,0,0,0,.13-.42.86.86,0,0,0,0-.45,1.16,1.16,0,0,0-.52-.67l-.27-.11a1,1,0,0,0-.6,0Z" fill="#565656"/><path d="M38.22,378.74h-2a1.13,1.13,0,0,0-1.13,1.13,1.16,1.16,0,0,0,.33.79,1.18,1.18,0,0,0,.8.33h2a1.11,1.11,0,0,0,.79-.33,1.07,1.07,0,0,0,.33-.79,1.09,1.09,0,0,0-.33-.8,1.17,1.17,0,0,0-.79-.33Z" fill="#565656"/><path d="M39.05,385.18l-1.13-.86a.91.91,0,0,0-.42-.14,1,1,0,0,0-.45,0,1,1,0,0,0-.38.21.86.86,0,0,0-.29.31l-.11.27a1,1,0,0,0,0,.6l.11.27a1.1,1.1,0,0,0,.4.4l1.14.86a1.26,1.26,0,0,0,.86.11.81.81,0,0,0,.39-.2,1,1,0,0,0,.29-.31l.11-.27a1.22,1.22,0,0,0,0-.6l-.11-.27a1.12,1.12,0,0,0-.41-.4Z" fill="#565656"/><path d="M40.71,388.08l-2.28.28a.78.78,0,0,0-.43.1.85.85,0,0,0-.37.23,1.18,1.18,0,0,0-.33.8,1.16,1.16,0,0,0,.33.79,1.07,1.07,0,0,0,.8.33l2.28-.28a.82.82,0,0,0,.43-.09.88.88,0,0,0,.36-.24,1.11,1.11,0,0,0,.33-.79,1.15,1.15,0,0,0-.33-.8,1.13,1.13,0,0,0-.79-.33Z" fill="#565656"/><path d="M40,391.84,38.81,395a1.08,1.08,0,0,0,.11.86,1.12,1.12,0,0,0,.67.52,1.15,1.15,0,0,0,.87-.11,1.31,1.31,0,0,0,.51-.67l1.19-3.11a1.15,1.15,0,0,0-.11-.87,1.19,1.19,0,0,0-.67-.52,1.15,1.15,0,0,0-.87.12,1.25,1.25,0,0,0-.52.67Z" fill="#565656"/><path d="M40.72,398.65v2a1.16,1.16,0,0,0,.33.79,1.12,1.12,0,0,0,1.59,0,1.13,1.13,0,0,0,.33-.79v-2a1.13,1.13,0,0,0-1.12-1.13,1.2,1.2,0,0,0-.8.33,1.18,1.18,0,0,0-.33.8Z" fill="#565656"/><path d="M43.56,404.63H40.71a1.13,1.13,0,0,0,0,2.25h2.85a1.13,1.13,0,0,0,1.12-1.12,1.15,1.15,0,0,0-1.12-1.13Z" fill="#565656"/><path d="M44.85,408.6,44,410a.8.8,0,0,0-.13.42.77.77,0,0,0,0,.45.82.82,0,0,0,.2.38.86.86,0,0,0,.31.29,1.11,1.11,0,0,0,.87.11,1.19,1.19,0,0,0,.67-.51l.86-1.43a.83.83,0,0,0,.13-.41.86.86,0,0,0,0-.45,1.24,1.24,0,0,0-.52-.67,1.13,1.13,0,0,0-.86-.12,1.18,1.18,0,0,0-.68.52Z" fill="#565656"/><path d="M46.46,414.06l-.57.57a.82.82,0,0,0-.23.36.84.84,0,0,0-.1.44.8.8,0,0,0,.1.43.77.77,0,0,0,.23.36l.23.18a1.09,1.09,0,0,0,.56.15l.3,0a1.1,1.1,0,0,0,.5-.29l.57-.57a.77.77,0,0,0,.23-.36.91.91,0,0,0,.1-.43.88.88,0,0,0-.1-.43.85.85,0,0,0-.23-.37l-.23-.17a1.11,1.11,0,0,0-.57-.16l-.3,0a1.16,1.16,0,0,0-.49.29Z" fill="#565656"/><path d="M49,420.26a3.4,3.4,0,0,0-2.7,1.19,2.91,2.91,0,0,0-.64,1.08,1.15,1.15,0,0,0,.11.87,1.18,1.18,0,0,0,.68.52,1.13,1.13,0,0,0,.86-.12l.23-.17a1.1,1.1,0,0,0,.29-.5l0-.06-.12.27a2.36,2.36,0,0,1,.29-.48l-.18.23a2.09,2.09,0,0,1,.42-.42l-.23.18a2.65,2.65,0,0,1,.54-.32l-.27.12a2.43,2.43,0,0,1,.6-.17l-.3,0a2.54,2.54,0,0,1,.39,0,1.13,1.13,0,0,0,1.13-1.13,1.16,1.16,0,0,0-.33-.79,1.2,1.2,0,0,0-.8-.33Z" fill="#565656"/><path d="M47.55,424a5.92,5.92,0,0,1,0,1.33l0-.3a5.64,5.64,0,0,1-.38,1.45l.11-.27c0,.12-.11.24-.16.35a1.2,1.2,0,0,0-.12.87,1.16,1.16,0,0,0,.52.67,1.14,1.14,0,0,0,1.54-.4,6.79,6.79,0,0,0,.72-3.7,1.2,1.2,0,0,0-.33-.79,1.11,1.11,0,0,0-.8-.33A1.13,1.13,0,0,0,47.55,424Z" fill="#565656"/><path d="M49.64,429.75l-1.16,1.41a.77.77,0,0,0-.23.36.91.91,0,0,0-.1.43.88.88,0,0,0,.1.43.85.85,0,0,0,.23.37,1.18,1.18,0,0,0,.8.33l.29,0a1.14,1.14,0,0,0,.5-.29l1.16-1.41a.77.77,0,0,0,.23-.36.72.72,0,0,0,.1-.43.75.75,0,0,0-.1-.44.82.82,0,0,0-.23-.36,1.16,1.16,0,0,0-.79-.33l-.3,0a1.2,1.2,0,0,0-.5.29Z" fill="#565656"/><path d="M98.13,429.27l1.88,1.05a1.57,1.57,0,0,0,1.16.16,1.26,1.26,0,0,0,.51-.27,1.31,1.31,0,0,0,.39-.42,1.56,1.56,0,0,0,.15-1.16,1.59,1.59,0,0,0-.69-.9l-1.88-1.05a1.61,1.61,0,0,0-1.16-.15,1.26,1.26,0,0,0-.51.27,1.18,1.18,0,0,0-.38.42,1.47,1.47,0,0,0-.15,1.16,1.52,1.52,0,0,0,.68.89Z" fill="#565656"/><path d="M102,417.77H104a1.53,1.53,0,0,0,1.06-.44,1.11,1.11,0,0,0,.31-.48,1.27,1.27,0,0,0,.13-.58,1.54,1.54,0,0,0-.44-1.06,1.58,1.58,0,0,0-1.06-.44H102a1.56,1.56,0,0,0-1.06.44,1.14,1.14,0,0,0-.31.48,1.17,1.17,0,0,0-.13.58,1.5,1.5,0,0,0,.44,1.06,1.54,1.54,0,0,0,1.06.44Z" fill="#565656"/><path d="M99.83,424.29h5.48a1.5,1.5,0,0,0,0-3H99.83a1.5,1.5,0,1,0,0,3Z" fill="#565656"/><path d="M103,410.39a9.93,9.93,0,0,0,3.61-.72,1.26,1.26,0,0,0,.51-.27,1.18,1.18,0,0,0,.38-.42,1.51,1.51,0,0,0-.54-2.06,1.46,1.46,0,0,0-1.15-.15,8.47,8.47,0,0,1-2.15.59l.39-.05a9.28,9.28,0,0,1-1,.08,1.5,1.5,0,0,0-1.5,1.5,1.52,1.52,0,0,0,1.5,1.5Z" fill="#565656"/><path d="M106.39,401.46a9.45,9.45,0,0,0,2.85-1.35,1.21,1.21,0,0,0,.42-.39,1.14,1.14,0,0,0,.27-.51,1.54,1.54,0,0,0-.16-1.15,1.5,1.5,0,0,0-2-.54,8.64,8.64,0,0,1-1.57.88l.36-.15c-.3.12-.61.23-.92.32a1.5,1.5,0,0,0-1,1.84,1.53,1.53,0,0,0,.69.9,1.56,1.56,0,0,0,1.16.15Z" fill="#565656"/><path d="M106.38,393.44a4.07,4.07,0,0,0,.76-.28,2.82,2.82,0,0,0,.38-.21,4.85,4.85,0,0,0,.62-.5l.14-.16a5.34,5.34,0,0,0,.35-.48,1.69,1.69,0,0,0,.16-1.15,1.14,1.14,0,0,0-.27-.51,1.12,1.12,0,0,0-.42-.39l-.36-.15a1.55,1.55,0,0,0-.8,0l-.36.15a1.55,1.55,0,0,0-.54.54l-.1.15.23-.3a2.28,2.28,0,0,1-.38.38l.3-.23a2,2,0,0,1-.47.27l.36-.15a1.87,1.87,0,0,1-.4.13,1.54,1.54,0,0,0-.89.69,1.09,1.09,0,0,0-.18.55,1.11,1.11,0,0,0,0,.6l.16.36a1.61,1.61,0,0,0,.53.54l.36.15a1.55,1.55,0,0,0,.8,0Z" fill="#565656"/><path d="M109.36,383.34c.09-.23.17-.45.26-.66l-.15.35a13.83,13.83,0,0,1,1.52-2.67,1.53,1.53,0,0,0,.15-1.15,1.56,1.56,0,0,0-.69-.9,1.52,1.52,0,0,0-1.16-.15l-.36.15a1.45,1.45,0,0,0-.53.54,14.76,14.76,0,0,0-1.93,3.69,1.52,1.52,0,0,0,.15,1.16,1.52,1.52,0,0,0,2.06.53,1.68,1.68,0,0,0,.68-.89Z" fill="#565656"/><path d="M112.14,371.81a6.53,6.53,0,0,0,3.51-.88,1.59,1.59,0,0,0,.69-.9,1.53,1.53,0,0,0-.15-1.15,1.51,1.51,0,0,0-.9-.69,1.57,1.57,0,0,0-1.16.15,6.54,6.54,0,0,1-.59.3l.35-.16a4.85,4.85,0,0,1-1.24.34l.4-.05a5.5,5.5,0,0,1-.91,0,1.5,1.5,0,0,0-1.5,1.5,1.54,1.54,0,0,0,.44,1.06,1.56,1.56,0,0,0,1.06.44Z" fill="#565656"/><path d="M112.32,362.21l2.77,1.78a1.51,1.51,0,0,0,2.06-.54,1.54,1.54,0,0,0,.15-1.15,1.67,1.67,0,0,0-.69-.9l-2.78-1.78a1.54,1.54,0,0,0-1.15-.15,1.5,1.5,0,0,0-.36,2.74Z" fill="#565656"/><path d="M111.69,355.09h2.74a1.5,1.5,0,0,0,1.06-2.56,1.54,1.54,0,0,0-1.06-.44h-2.74a1.56,1.56,0,0,0-1.06.44,1.52,1.52,0,0,0-.44,1.06,1.5,1.5,0,0,0,.44,1.06,1.54,1.54,0,0,0,1.06.44Z" fill="#565656"/><path d="M112.9,345l2.75-1.37a1.49,1.49,0,0,0,.68-.89,1.52,1.52,0,0,0-.15-1.16,1.5,1.5,0,0,0-.89-.69,1.67,1.67,0,0,0-1.16.15l-2.74,1.37a1.51,1.51,0,0,0-.54,2.06,1.5,1.5,0,0,0,.9.68,1.59,1.59,0,0,0,1.15-.15Z" fill="#565656"/><path d="M114.46,332.69a8.36,8.36,0,0,0,3.15-.23,1.55,1.55,0,0,0,.9-.69,1.5,1.5,0,0,0-.54-2,1.54,1.54,0,0,0-1.15-.15,8.55,8.55,0,0,1-.88.17l.4-.05a7.39,7.39,0,0,1-1.88,0,1.51,1.51,0,0,0-1.06.43,1.59,1.59,0,0,0-.44,1.07,1.56,1.56,0,0,0,.44,1.06l.31.23a1.51,1.51,0,0,0,.75.21Z" fill="#565656"/><path d="M108.65,317l1.82-1.16a1.55,1.55,0,0,0,.69-.9,1.19,1.19,0,0,0,0-.59,1.12,1.12,0,0,0-.18-.56,1.52,1.52,0,0,0-.9-.69,1.49,1.49,0,0,0-1.15.15l-1.82,1.16a1.53,1.53,0,0,0-.69.89,1.22,1.22,0,0,0,0,.6,1.12,1.12,0,0,0,.18.56,1.52,1.52,0,0,0,.9.69,1.54,1.54,0,0,0,1.15-.15Z" fill="#565656"/><path d="M113.82,309.42l.45-.23a1.54,1.54,0,0,0,.69-.89,1,1,0,0,0,0-.6,1.12,1.12,0,0,0-.18-.56l-.23-.3a1.49,1.49,0,0,0-.66-.39l-.4-.05a1.54,1.54,0,0,0-.76.2l-.46.23a1.21,1.21,0,0,0-.42.39,1.14,1.14,0,0,0-.27.51,1.11,1.11,0,0,0,0,.6,1.09,1.09,0,0,0,.18.55l.23.31a1.57,1.57,0,0,0,.66.38l.4.06a1.48,1.48,0,0,0,.76-.21Z" fill="#565656"/><path d="M113.75,322.19h1.82a1.5,1.5,0,0,0,1.06-.44,1,1,0,0,0,.31-.48,1.06,1.06,0,0,0,.13-.58,1.46,1.46,0,0,0-.44-1.06,1.54,1.54,0,0,0-1.06-.44h-1.82a1.54,1.54,0,0,0-1.06.44,1.14,1.14,0,0,0-.31.48,1.08,1.08,0,0,0-.13.58,1.46,1.46,0,0,0,.44,1.06,1.54,1.54,0,0,0,1.06.44Z" fill="#565656"/><path d="M115.44,301.53v4.11a1.5,1.5,0,0,0,3,0v-4.11a1.5,1.5,0,0,0-3,0Z" fill="#565656"/><path d="M120.58,302.73l-1.82,1.6a1,1,0,0,0-.31.48,1.06,1.06,0,0,0-.13.58,1.08,1.08,0,0,0,.13.58,1.14,1.14,0,0,0,.31.48,1.5,1.5,0,0,0,1.06.44l.4-.06a1.57,1.57,0,0,0,.66-.38l1.83-1.6a1.24,1.24,0,0,0,.31-.48,1.29,1.29,0,0,0,.13-.58,1.27,1.27,0,0,0-.13-.58,1.11,1.11,0,0,0-.31-.48,1.53,1.53,0,0,0-1.06-.44l-.4,0a1.47,1.47,0,0,0-.67.39Z" fill="#565656"/><path d="M121.33,312.65a3.87,3.87,0,0,1-.5.86l.23-.3a3.65,3.65,0,0,1-.68.68l.31-.24-.3.21a1.65,1.65,0,0,0-.69.89,1.73,1.73,0,0,0,.16,1.16,1.5,1.5,0,0,0,2,.54,7,7,0,0,0,.75-.57,3.42,3.42,0,0,0,.42-.43,4.88,4.88,0,0,0,.84-1.28,1.12,1.12,0,0,0,.18-.56,1,1,0,0,0,0-.6,1.54,1.54,0,0,0-.69-.89,1.5,1.5,0,0,0-1.15-.16l-.36.16a1.52,1.52,0,0,0-.54.53Z" fill="#565656"/><path d="M121.37,321.54a13.4,13.4,0,0,1-2.38,2.38l.31-.24,0,0a1.18,1.18,0,0,0-.42.38,1.26,1.26,0,0,0-.27.51,1.57,1.57,0,0,0,.16,1.16,1.5,1.5,0,0,0,.89.69l.4.05a1.57,1.57,0,0,0,.76-.2,15.52,15.52,0,0,0,1.57-1.35,11.68,11.68,0,0,0,1.14-1.29,1.14,1.14,0,0,0,.31-.48,1.06,1.06,0,0,0,.13-.58,1.5,1.5,0,0,0-1.5-1.5l-.4,0a1.49,1.49,0,0,0-.66.39Z" fill="#565656"/><path d="M123.6,335.19l-2.75-3a1.52,1.52,0,0,0-1.06-.44,1.54,1.54,0,0,0-1.07.44,1.49,1.49,0,0,0-.43,1.06,1.62,1.62,0,0,0,.43,1.06l2.75,3a1.52,1.52,0,0,0,1.06.44,1.54,1.54,0,0,0,1.07-.44,1.51,1.51,0,0,0,.43-1.06,1.6,1.6,0,0,0-.43-1.06Z" fill="#565656"/><path d="M123.47,340.21a6.35,6.35,0,0,1-1.57,0l.4.06a6.57,6.57,0,0,1-1.63-.45,1.52,1.52,0,0,0-1.16.15,1.59,1.59,0,0,0-.69.9A1.57,1.57,0,0,0,119,342l.23.3a1.59,1.59,0,0,0,.66.39,6.31,6.31,0,0,0,1.6.43,7.45,7.45,0,0,0,2,.07,1.15,1.15,0,0,0,.58-.13,1.08,1.08,0,0,0,.48-.31,1.52,1.52,0,0,0,.44-1.06,1.5,1.5,0,0,0-.44-1.06,1.42,1.42,0,0,0-1.06-.44Z" fill="#565656"/><path d="M123,346.38H121a1.54,1.54,0,0,0-1.06.44,1.14,1.14,0,0,0-.31.48,1.06,1.06,0,0,0-.13.58,1.5,1.5,0,0,0,.44,1.06,1.54,1.54,0,0,0,1.06.44H123a1.54,1.54,0,0,0,1.06-.44,1.08,1.08,0,0,0,.31-.48,1.06,1.06,0,0,0,.13-.58,1.46,1.46,0,0,0-.44-1.06,1.54,1.54,0,0,0-1.06-.44Z" fill="#565656"/><path d="M124.16,349.82l-4.35.34a1.58,1.58,0,0,0-1.06.43,1.51,1.51,0,0,0,1.06,2.57l4.35-.34a1.63,1.63,0,0,0,1.06-.44,1.56,1.56,0,0,0,.44-1.06,1.52,1.52,0,0,0-1.5-1.5Z" fill="#565656"/><path d="M122.4,360.75A16,16,0,0,0,119,368a1.5,1.5,0,1,0,2.89.8,13.63,13.63,0,0,1,.42-1.76c.09-.29.19-.57.29-.86.06-.14.1-.28.17-.42-.17.35,0,0,0-.11a14.15,14.15,0,0,1,.82-1.54c.16-.26.33-.52.5-.76l.27-.37,0,0,.14-.18a1.61,1.61,0,0,0,.44-1.06,1.5,1.5,0,0,0-.44-1.06,1.52,1.52,0,0,0-2.12,0Z" fill="#565656"/><path d="M122.54,371.63a6.41,6.41,0,0,1-.05,1.24l.06-.4a6.11,6.11,0,0,1-.44,1.57l.15-.35a3.73,3.73,0,0,1-.16.35,1.62,1.62,0,0,0-.15,1.16,1.51,1.51,0,0,0,.69.9,1.54,1.54,0,0,0,1.15.15,1.52,1.52,0,0,0,.9-.69,7.87,7.87,0,0,0,.85-3.93,1.63,1.63,0,0,0-.44-1.06,1.56,1.56,0,0,0-1.06-.44,1.54,1.54,0,0,0-1.06.44,1.49,1.49,0,0,0-.44,1.06Z" fill="#565656"/><path d="M124.42,383.44a14.09,14.09,0,0,1-1.36-.92l.3.23a14.11,14.11,0,0,1-1.79-1.67,1.52,1.52,0,0,0-1.06-.44,1.54,1.54,0,0,0-1.06.44,1.52,1.52,0,0,0-.44,1.06,1.63,1.63,0,0,0,.44,1.06A14.69,14.69,0,0,0,122.9,386a1.56,1.56,0,0,0,1.16.15,1.54,1.54,0,0,0,.89-.69,1.52,1.52,0,0,0-.53-2.05Z" fill="#565656"/><path d="M123.41,392.82l-1.83-.68a1.12,1.12,0,0,0-.6,0,1.09,1.09,0,0,0-.55.18,1,1,0,0,0-.42.38,1.06,1.06,0,0,0-.27.51,1.51,1.51,0,0,0,.15,1.16l.23.3a1.49,1.49,0,0,0,.66.39l1.83.69a1.73,1.73,0,0,0,1.16-.16,1.18,1.18,0,0,0,.42-.38,1.26,1.26,0,0,0,.27-.51,1.56,1.56,0,0,0-.15-1.16l-.24-.3a1.49,1.49,0,0,0-.66-.39Z" fill="#565656"/><path d="M122.88,400.14a26.5,26.5,0,0,1-1.81,2.66l.24-.31c-.38.5-.78,1-1.19,1.44a1.56,1.56,0,0,0-.44,1.06,1.5,1.5,0,0,0,.44,1.06,1.52,1.52,0,0,0,2.12,0,28.44,28.44,0,0,0,3.23-4.4,1.5,1.5,0,0,0-2.59-1.51Z" fill="#565656"/><path d="M121.64,407.81a25.87,25.87,0,0,1-1.23,3.86,1.47,1.47,0,0,0,.15,1.16,1.53,1.53,0,0,0,.89.69,1.51,1.51,0,0,0,1.16-.15l.3-.24a1.39,1.39,0,0,0,.39-.66,25.87,25.87,0,0,0,1.23-3.86,1.58,1.58,0,0,0-.15-1.15,1.49,1.49,0,0,0-.9-.69,1.51,1.51,0,0,0-1.84,1Z" fill="#565656"/><path d="M123.62,416.72l-2.29,1.58a1,1,0,0,0-.42.39,1,1,0,0,0-.27.51,1.08,1.08,0,0,0,0,.59,1.12,1.12,0,0,0,.18.56,1.5,1.5,0,0,0,.89.69,1.47,1.47,0,0,0,1.16-.15l2.3-1.58a1.21,1.21,0,0,0,.42-.39,1.14,1.14,0,0,0,.27-.51,1.11,1.11,0,0,0,0-.6,1.18,1.18,0,0,0-.17-.55,1.51,1.51,0,0,0-.9-.69,1.47,1.47,0,0,0-1.16.15Z" fill="#565656"/><path d="M124,423q-.3.45-.63.87l.23-.3a16.22,16.22,0,0,1-1.66,1.86,1.5,1.5,0,0,0-.44,1.06,1.52,1.52,0,0,0,.44,1.06A1.5,1.5,0,0,0,123,428a1.63,1.63,0,0,0,1.06-.44,18.48,18.48,0,0,0,2.53-3,1.5,1.5,0,0,0-.54-2.05,1.54,1.54,0,0,0-1.15-.15,1.67,1.67,0,0,0-.9.69Z" fill="#565656"/><path d="M125.43,430.33l-2.28,3.2a1.5,1.5,0,0,0,1.69,2.2l.36-.15a1.4,1.4,0,0,0,.54-.54l2.28-3.2a1.45,1.45,0,0,0,.15-1.15,1.5,1.5,0,0,0-1.84-1.05l-.36.15a1.55,1.55,0,0,0-.54.54Z" fill="#565656"/><path d="M126.74,437.2,121,438.28a1.49,1.49,0,0,0-1,1.84,1.53,1.53,0,0,0,1.84,1.05l5.73-1.08a1.5,1.5,0,0,0,1-1.84,1.52,1.52,0,0,0-1.84-1.05Z" fill="#565656"/><path d="M127.35,444.85h-3a1.58,1.58,0,0,0-1.06.44,1.56,1.56,0,0,0-.44,1.06,1.54,1.54,0,0,0,.44,1.06,1.58,1.58,0,0,0,1.06.44h3a1.59,1.59,0,0,0,1.07-.44,1.52,1.52,0,0,0,0-2.12,1.59,1.59,0,0,0-1.07-.44Z" fill="#565656"/><path d="M126.67,451.92l-2.28.26a1.06,1.06,0,0,0-.58.13,1,1,0,0,0-.48.31,1.5,1.5,0,0,0-.44,1.06,1.47,1.47,0,0,0,.44,1.06,1.46,1.46,0,0,0,1.06.44l2.28-.26a1.17,1.17,0,0,0,.58-.13,1.24,1.24,0,0,0,.48-.31,1.56,1.56,0,0,0,.44-1.06,1.54,1.54,0,0,0-.44-1.06,1.45,1.45,0,0,0-1.06-.44Z" fill="#565656"/><path d="M128.08,457.86a10,10,0,0,0-3.87,2.28,10.76,10.76,0,0,0-1.08,1.25,1.49,1.49,0,0,0-.16,1.15,1.5,1.5,0,0,0,1.85,1l.36-.15a1.55,1.55,0,0,0,.54-.54l0,0-.24.3a8.35,8.35,0,0,1,1.43-1.42l-.3.23a8.82,8.82,0,0,1,1.85-1.09l-.36.15c.24-.1.49-.19.73-.27a1.55,1.55,0,0,0,.9-.69,1.49,1.49,0,0,0,.15-1.15,1.52,1.52,0,0,0-1.84-1.05Z" fill="#565656"/></svg>