<svg xmlns="http://www.w3.org/2000/svg" width="500" height="550" viewBox="0 0 500 550"><path d="M411.21 141.87c-1.62-2.33-3.28-4.63-4.74-7.07a47.13 47.13 0 01-4.47-11.34c-1.25-4.3-2.13-8.74-3.69-12.93-1.39-3.76-4.06-6.93-5.16-10.79a1 1 0 010-.38A69.36 69.36 0 00379 80.21C352.53 63 320.6 59.12 291.48 48.63c-3.67-1.54-5 3.72-7.87 5-17.36 10.42-39.47 7.3-58.61 4.87-7.1-1.26-13.56-4.12-18.56-9.67a3.16 3.16 0 00-2.72-.43c-30.43 11-63.14 16.58-90.46 34.78-23.51 30.35-34.46 68.24-48.07 103.67-23.59 59.08-28.1 123-26.19 186-.35 11.19 3.49 22.28 5.72 33.31a6.62 6.62 0 001.28 3.22c6.31 5.76 3.46 14.67 5.49 22.43.3 1.47 1 1.81 2.41 1.47 12.51-3.2 26.22-2.34 38.6 1.18 3.13 1 3.17 1.13 3.74-2 1.44-8 10.36-41.31 11.86-49.29 1.19-8.37 4.89-16.87 4.38-25.31-1-3.31.12-6.43.37-9.58 1.26-11.18 6-24.61-5.15-32.56-5.69-6.88 9.44-5.5 11.81-16.18 1.35-2.86 2.87-5.63 4.29-8.46 2.21 47.16-2.55 94.72 3.6 141.53 1.41 10.78-1.88 18.06-.53 29.31.94 5.1 1.39 5.42 6.62 4.83 24.35-3.77 58.37-1.52 83-2.09 45-2.8 102.06-4.82 146.65 2.92 1.35.23 2.76.33 3.35-1.43 2.84-8.59.53-15.57 1.5-25.64.87-9 2.74-16.47 3.55-25.44q.3-61.72.62-123.46l.41-.08c.5 7.24 12.44 8.69 10.93 15.92-2.92 3.85-2.68 8-1.61 12.34 3.05 11.88 5.55 24 10.45 35.29 1.35 3.61 1.5 7.13-.51 10.66-5.47 9-1.69 19.56-.79 29.26 1.72 8.67-.95 10.27 5.33 17.64 3.31 5.84 3.1 21.25 11.44 21.4 12.54-3.91 25.32-1.08 37.8 1.58 2.67.5 2.68.27 3.08-2.33.83-5.36 1.69-10.73 2.91-16 .35-4.68 5.07-7.12 5.56-11.78 3.05-18.5 2.09-37.3 3.28-55.95 6.77-73.11-21.95-141.56-49.23-207.69z" fill="#fff" stroke="#262521" stroke-linecap="round" stroke-linejoin="round" stroke-width="3"/><path d="M204.41 48.28s4 48.55 43.68 46.73 42.84-45.41 42.84-45.41M121.8 180.85s2.11 28.61 0 44.24.11 29.7.11 32.88 1.9 33.06 1.9 33.06m247.52-102.37s4.82 54.54-1 82.6" fill="none" stroke="#262521" stroke-linecap="round" stroke-linejoin="round" stroke-width="3"/><path d="M51.32 409.51S80 400 96.47 412m305.71 0s25.94-8.3 43.55 0m-310.85 29.48s112.62-13.64 225.23 0" fill="none" stroke="#636363" stroke-linecap="round" stroke-linejoin="round"/><path d="M173.9 88.34c-2.27.29-3.52 2-4.55 3.88a28.63 28.63 0 00-2.48 6.65 69.83 69.83 0 00-1.3 7.33c-.23 1.73-.12 4.88-2.08 5.63s-4.49-.48-6.52-.7a7.88 7.88 0 00-3.5.41 13.19 13.19 0 01-3.41 1c-2.43.23-4.69.06-6.92 1.27a9.79 9.79 0 00-4.14 4.39c-.81 1.7-1.49 4.23 0 5.78a8.51 8.51 0 003 1.5c1.33.53 2.7 1 4 1.61a23.3 23.3 0 012.59 1.94 10.81 10.81 0 003.18 1.05c1.69.43 3.75 1.32 4.55 3a3.84 3.84 0 01-.05 2.92c-.42 1.34-.91 2.67-1.32 4-.77 2.57-1.43 5.17-1.95 7.79s-.92 5.23-1.2 7.87c-.26 2.42-.33 4.71 1.93 6.17 4.15 2.69 9.43-1.17 12.07-4.25a49 49 0 0110.96-9.58 17.09 17.09 0 013.21-1.79c1.35-.5 2.35-.05 3.51.68 2.32 1.47 4.58 3 6.87 4.52a8.83 8.83 0 002.93 1.45 27.32 27.32 0 013.57.76c2.08.74 4 1.9 6.18 2.39s4.67.5 6.07-1.35c1.19-1.58 1-3.75.48-5.55A69.42 69.42 0 00203.7 135a78.21 78.21 0 00-1.9-3.35 5.51 5.51 0 01-1.18-3.16c.25-2.21 3.2-3.3 4.79-4.32a15.6 15.6 0 004.46-4.86c1.25-1.85 2.92-2.71 4.66-4a6.51 6.51 0 002.8-5.45c0-2.06-.28-5.06-2.56-5.8-4.67-1.54-10.15-.16-14.81.71a39.66 39.66 0 01-7.59.92 3.49 3.49 0 01-2.86-1 11.18 11.18 0 01-1.51-2.91 61.12 61.12 0 00-3.47-7c-1.18-2-2.45-4.55-4.26-6.1-1.54-1.32-3.93-1.64-5.38 0-1.29 1.43.83 3.56 2.12 2.12 1.14-1.28 3.52 3.19 4 4a59.58 59.58 0 013.48 6.44c.86 1.84 1.47 3.9 2.8 5.47a6.62 6.62 0 005.5 2.06c4.82-.09 9.46-1.56 14.23-2.06a25.87 25.87 0 013.3-.16 8.53 8.53 0 013.49.43c.42.24-.09-.28.11.16a3.31 3.31 0 01.17.77 11.35 11.35 0 01.23 1.42 3.73 3.73 0 01-.81 3c-1.25 1.37-3.14 2-4.46 3.32s-2.26 3.39-3.67 4.85-3.71 2.28-5.37 3.7a6.16 6.16 0 00-2.36 5c.15 2.17 1.55 4 2.59 5.82q1.8 3.18 3.3 6.51a73.15 73.15 0 012.64 6.87c.37 1.12 1.64 4 .19 4.82-1.66.9-4.47-.59-6-1.25a22.84 22.84 0 00-5.81-1.83 7.61 7.61 0 01-3.1-1.48l-3.27-2.15c-1.86-1.23-3.88-3-6.15-3.37s-4.25.81-6.07 1.93a51.54 51.54 0 00-5.37 3.8 47.92 47.92 0 00-5 4.62c-1.56 1.64-2.87 3.64-4.82 4.85-1.42.88-4.21 2.37-5.69.83-.72-.74-.38-2-.28-2.93.14-1.35.31-2.7.52-4a86.16 86.16 0 013.6-14.42c.7-2.06 1.1-4.09 0-6.11a8.43 8.43 0 00-3.87-3.45 12.85 12.85 0 00-2.47-.91 6.26 6.26 0 01-3-1.2c-1.7-1.54-3.78-2.19-5.88-3l-1.84-.73c-.51-.22-.68-.2-.75-.72a4.9 4.9 0 011-2.72 6.73 6.73 0 014.33-3c2.35-.45 4.6-.08 6.88-1a7.29 7.29 0 013-.74 21.33 21.33 0 013.51.68 7.88 7.88 0 005.61-.54c1.77-1.06 2.43-3 2.72-4.95.66-4.39 1.08-8.83 2.64-13a19.24 19.24 0 011.35-2.87c.33-.6.95-1.92 1.75-2 1.89-.24 1.92-3.24 0-3z" fill="#262521" opacity=".35"/><path d="M156.07 162a4.54 4.54 0 01-2-.53 4.59 4.59 0 01-2.58-4.43c.14-2.16 4.15-16.63 6.76-25.82-6.59-3.44-11.85-6.53-13.81-6.91a3.91 3.91 0 01-4.9-3.31 4.49 4.49 0 013.37-5.2c.61-.15 10.08-2.41 21.12-4.45 6.15-20.42 7.23-20.87 9.24-21.71a4.82 4.82 0 014.9.78c2 1.63 6.29 9.1 10.69 17.5 13.13-1.41 21.72-2.77 21.83-2.79 2-.28 4.88.76 5.72 2.56s-.1 4.93-1.58 6.25c-.1.09-6.86 5.58-16.08 13.72 9.22 19.17 8.84 21.26 8.6 22.57a4.66 4.66 0 01-3.11 3.64c-2.51.84-3.25.65-23.5-10.48-4.87 4.2-9 7.69-12.26 10.4-7.19 5.91-10.03 8.21-12.41 8.21zm9.76-27c-1.1 3.9-3.1 10.24-4 13.48 2.59-2.16 7.6-6.87 11-9.74-1.97-1.06-4.98-2.65-7-3.74zm22.17 2.07c2.4 1.32 4.81 2.63 7 3.81-1-2.13-2.57-4.52-3.77-7.06-1.23 1.08-2.02 2.18-3.23 3.25zm-19.6-10.42c3.15 1.69 7.7 3.62 11.7 5.81 2.6-2.25 4.3-4.11 7.06-6.53-1.31-2.67-2.66-5.86-4-8.46-3.93.4-8.28 1-12.6 1.75-.8 2.61-1.5 5.02-2.2 7.43zm-12.4-5.18c.56.28 4.15 1.59 4.76 1.9.13-.45.26-1.89.39-2.33-.74.14-4.46.28-5.15.43zm18.88-18.79s-1.19 4.54-1.94 7c1.77-.27 3.53-.51 5.25-.72z" fill="#262521"/><path d="M175.77 100.17c-2 .15-2.43 2-2.92 3.61q-1 3.24-1.91 6.49c-1.27 4.37-2.48 8.76-3.71 13.14l-3.7 13.25c-.61 2.19-1.24 4.39-1.83 6.59a13.68 13.68 0 00-.53 6.22 1.51 1.51 0 002.21.89c2.28-1.24 2.7-3.67 3.77-5.8a4.47 4.47 0 013.16-2.33c1.69-.49 3.4-.94 5.1-1.37a38.06 38.06 0 0110.9-1.57 17 17 0 019.31 3.37c1.56 1.15 3.06-1.45 1.52-2.59a19.69 19.69 0 00-9.88-3.71 35.54 35.54 0 00-11.73 1.38c-1.8.44-3.59.92-5.37 1.42a8.78 8.78 0 00-4.54 2.31 10.75 10.75 0 00-1.82 3.36c-.44 1.11-.84 2.34-1.94 2.94l2.21.9c-.36-1.95.32-3.92.84-5.78l1.65-5.91 3.23-11.59c1.08-3.85 2.14-7.7 3.24-11.54.53-1.86 1.07-3.71 1.61-5.57l.82-2.77c.16-.54.32-1.08.49-1.62l.21-.7c.16-.3 0-.31-.39 0 1.91-.14 1.93-3.14 0-3zm217.52 2.01a17.15 17.15 0 00-4.82 1.83 16.18 16.18 0 00-2 1.47c-.18.16-.36.36-.55.5 0 0 .35-.15.07 0a6 6 0 01-.91.28c-2.55.8-5.21 1.78-7 3.88a8 8 0 00-1.89 4.18 9.6 9.6 0 000 3.74 4.37 4.37 0 003.69 2.79c2 .26 4 .39 6 .51 4.57.29 9.11.7 13.05 3.25l-.68-1.69c-1.06 3.52 1.31 6.71.81 10.23-.58 4-.71 8.21.68 12.09 1.09 3 3.26 7.35 7.18 6.36 3-.77 5.21-3.75 6.85-6.17 1.09-1.6-1.51-3.11-2.59-1.52a22.44 22.44 0 01-2.28 2.87c-.74.76-1.78 1.82-2.9 1.95s-1.92-1.36-2.43-2.27a14.74 14.74 0 01-1.65-4.69 21.18 21.18 0 01-.24-5c.08-1.63.53-3.29.5-4.92a17.09 17.09 0 00-.79-4.37 6.47 6.47 0 01-.25-3.79 1.54 1.54 0 00-.69-1.7c-3.82-2.47-8.22-3.2-12.67-3.53-2.27-.17-4.54-.25-6.8-.51-.72-.08-1.68-.15-1.92-1a5 5 0 01.08-1.76c.28-3.23 2.76-4.79 5.61-5.76.63-.21 1.28-.39 1.91-.6a7.21 7.21 0 002.19-1.53 13 13 0 015.23-2.3c1.88-.44 1.08-3.34-.8-2.89z" fill="#262521" opacity=".35"/><path d="M407.69 136.72c-.41-.63-.83-1.27-1.22-1.92a47.13 47.13 0 01-4.47-11.34c-.2-.67-.38-1.34-.56-2-1.08-2.84-2.06-5.73-3-8.62-1.06-.08-4.31-.14-4.89-.22.52-.31 3.08-1.32 4.24-1.85a33.74 33.74 0 00-1.58-4.35c-.62-1.33-1.41-2.58-2.13-3.86-8.05 4.66-14.31 8.65-14.77 8.94a4.5 4.5 0 00-1.5 6 3.92 3.92 0 005.69 1.5c2-.29 7.95.93 15.3 2 .54 9.54 1.45 24.53 2 26.61a4.6 4.6 0 003.9 3.39 4.52 4.52 0 002.09-.17c1.48-.51 2.85-2 5-5.29a74 74 0 01-3.79-8.06z" fill="#262521"/><path d="M66.75 184.69c4.8 4.68 7 12.69 14.08 14.72a9.29 9.29 0 002.56.39c1.38 0 1.86-1.06 2.4-2.17a20.89 20.89 0 001.87-6.63c.6-4.72 0-9.5.46-14.24a23.64 23.64 0 01.57-3.45c.3-1.24.54-1.49 1.77-2.08A4.56 4.56 0 0193 171a11.05 11.05 0 003.29-.42 43.53 43.53 0 006.11-2.55 15 15 0 013.11-1.11c1.32-.25 3.12.4 4.23-.51 2.38-2 4.12-5.72 2.53-8.62-1.07-1.95-3.32-3.19-5.27-4.09a35.35 35.35 0 00-6.82-2.16 35.53 35.53 0 01-7.69-2.32 5.51 5.51 0 01-2.86-2.45 7.65 7.65 0 01-.75-2.94c-.34-5.11 1.36-10.1-.34-15.13-.62-1.82-3.52-1-2.9.8 1.17 3.45.64 7 .34 10.57-.26 3.15-.26 6.56 1.7 9.22 2.15 2.93 6.55 3.93 9.91 4.73 3.72.88 7.5 1.63 10.7 3.86 1.17.81 1.93 1.88 1.47 3.32a8.35 8.35 0 01-2.14 3.09l1.06-.44a15.58 15.58 0 00-5.64.7c-1.51.55-3 1.27-4.42 1.94a15.48 15.48 0 01-4.33 1.46c-1.53.21-2.89-.28-4.37.29-1.23.47-3 1.29-3.61 2.53A16.81 16.81 0 0085.2 176a101.2 101.2 0 00-.26 10.45c0 3.9-.48 7.76-2.53 11.15l1.29-.74c-3.65-.06-6.23-2.68-8.27-5.45-2.16-2.94-3.93-6.23-6.56-8.79-1.38-1.35-3.5.77-2.12 2.12z" fill="#262521" opacity=".35"/><path d="M107.86 156.23c-.11 0-8.38-2.73-20.71-7.45-.08-8-.39-15.43-1.13-18.94a72.26 72.26 0 00-3.4 8.3c-1.4 4-2.58 8.13-4 12.17-.47 1.41-1 2.81-1.5 4.2l.54.21c0 2.92-.26 6.38-.3 9.35-1.55.39-2.87.78-4.14 1.16-1.94 5.67-3.76 11.37-5.68 17.05 9.31 13.62 10 14.07 12.36 14.42a4.68 4.68 0 004.43-1.82c.8-1.06 2.09-2.75 2.6-24 11.91-3.05 20.43-4.87 20.56-4.9 1.91-.51 4.17-2.87 4.25-4.86s-2.01-4.25-3.88-4.89zM77.6 180.94c-1.42-2-3-4.31-4.5-6.56 1.6-.41 2.76-1 4.34-1.44-.08 2.81.27 5.67.16 8z" fill="#262521"/><path d="M70.59 175.59c.39.23.78.46 1.15.71l.5.36.3.21c.23.17-.1-.08 0 0a20.46 20.46 0 011.94 1.78c.3.31.58.63.85 1l.19.24c.26.32-.18-.25.07.08.12.17.24.33.35.5a18.1 18.1 0 011.37 2.32 1.5 1.5 0 002 .54 1.53 1.53 0 00.54-2 19.68 19.68 0 00-7.74-8.33 1.5 1.5 0 10-1.52 2.59z" fill="#262521" opacity=".35"/><path d="M300.43 222.65a6.83 6.83 0 01-4.38-1.29 4.49 4.49 0 01-1.32-5.21l10.19-24.66-16.66-11.77c-2.78.89-7.36-1.73-4.32-7.64a4.54 4.54 0 014.39-3l25.55.78 10.35-25c-1.56-5.91 3.85-6 5.79-5.9a4.5 4.5 0 014 3.4l7.06 28.36 19.82.6a4.5 4.5 0 012.4 8.22l-17.13 11.65 6.39 25.66a4.51 4.51 0 01-1.86 4.83c-1.58 1.06-5 1.51-6.52.38l-19.76-16.08-19 13.56c.22 1.05-2.84 3.11-4.99 3.11zm31.92-22.1l5 1.95-.7-4.87zm-20-3.55l-.7 5.5 5.11-2.25zm3.55-8.57l8.75 6.46 10.29-7-1.91-8.47-13.24-.4zm-10.75-9l3.29 3.48 1.73-4.2zm38.2.28l.51 2.09 1.49-1.61zm-19.88-9.6l7.4.22-2.72-11.55z" fill="#262521"/><path d="M315.23 168.75c-7.26-.55-14.51-1.17-21.78-1.58-3-.17-6.59-.73-9.33.91a7.93 7.93 0 00-3.66 5.64c-.32 2.22.28 5.19 2.43 6.35 1.16.62 2.63.46 3.86.9a13 13 0 013.22 1.82c2.11 1.54 4 3.39 6.17 4.81s5.39 1.88 7.42 3.73c2.22 2 1.8 5.6 1.42 8.27a27.12 27.12 0 01-1.06 5.14c-.11.32-.4.72-.48 1q-.51.28.09.45c.05-.05.11-.63.15-.74a4.82 4.82 0 01.57-1c.77-1.12-.51-2.51-1.7-2.21-6.88 1.77-9.32 9.71-9.81 16a4.1 4.1 0 001.54 3.88 11.81 11.81 0 004.29 1.54c2.84.59 5.93.32 7.67-2.29a10.52 10.52 0 011.25-2 6.65 6.65 0 012-1.09 24.41 24.41 0 004.42-2.45c2.57-1.83 4.83-4 7.35-5.92 1.14-.86 2.76-2.27 4.22-2.47 1.24-.16 2.13 1 2.82 1.88a26.69 26.69 0 002.47 2.94 16.26 16.26 0 004.17 2.48 9.12 9.12 0 014.07 3.37 23.28 23.28 0 003.16 4.51 6.38 6.38 0 004.71 2 10.31 10.31 0 002.51-.59c.49-.15 1.49-.65 1.94-.24a1.52 1.52 0 002.51-.66c1.76-5.81-.91-11.73-2.83-17.14-1.79-5-4.58-11.33-1.81-16.55 2.25-4.22 7.22-5.08 11.42-6.17 1.87-.49 4-.94 5.41-2.39a6.33 6.33 0 001.4-5.52 9.88 9.88 0 00-3.15-5.81 4.47 4.47 0 00-3.57-.84c-1.58.22-3.14.54-4.74.68a46.22 46.22 0 01-9.11-.08c-.83-.09-1.64-.2-2.46-.34a7.15 7.15 0 01-1.74-.34c-1-.48-1.44-2.93-1.78-3.93-1.87-5.58-2.84-11.4-4-17.16-.89-4.47-2-10.45-7.68-10.66a6.62 6.62 0 00-6 3.39 15.36 15.36 0 00-1.28 4 50.76 50.76 0 01-1.36 4.93c-2.19 6.69-5.1 13.19-7.72 19.73-.71 1.79 2.19 2.57 2.9.8 2.18-5.46 4.46-10.9 6.53-16.4a61.08 61.08 0 002.54-8.26c.46-2 .91-4.46 3.26-5 5.08-1.27 5.59 6.47 6.22 9.69a117.67 117.67 0 003.94 16.46c.79 2.25 1.37 4.84 4 5.44a41.87 41.87 0 008.5 1 48.78 48.78 0 008.54-.57c1.28-.2 2.65-.8 3.62.33a7.8 7.8 0 011.38 2.59c.52 1.6.58 3.57-1.13 4.44a20.93 20.93 0 01-4.81 1.4c-4.29 1-8.76 2.61-11.27 6.49-3.34 5.16-1.71 11.57.17 16.91 1 2.92 2.13 5.81 3.06 8.76s1.65 6.26.7 9.42l2.5-.66a4 4 0 00-3.81-.84c-1.36.31-2.73 1.18-4.13.56-2.74-1.21-3.57-4.94-5.61-6.95s-5.18-2.47-7.23-4.48c-1.69-1.66-2.74-4.05-5-5.07-3-1.34-6 1-8.24 2.69s-4.58 3.94-7 5.69a21.58 21.58 0 01-3.7 2.14 9 9 0 00-3.83 2.45c-.76 1-1.09 2.37-2.34 2.86a6.52 6.52 0 01-3.86-.12 11.55 11.55 0 01-2.31-.75c-.71-.35-.68-.89-.62-1.62a29.75 29.75 0 011.07-5.44c.95-3.37 2.93-6.74 6.54-7.66l-1.74-2.23c-1.32 1.9-1.9 5.86 1.44 6s4.09-4.52 4.49-6.93c.49-2.93 1-6 .29-9s-3-4.86-5.83-6a29.62 29.62 0 01-3.82-1.7 26 26 0 01-3.42-2.5 26.71 26.71 0 00-6.81-4.63 9.86 9.86 0 00-1.78-.53c-.61-.12-1.57 0-2.08-.4-.86-.67-.89-2.37-.73-3.3a5.1 5.1 0 011.53-2.84 5.89 5.89 0 014.19-1.21c4.24 0 8.51.45 12.74.77l13.34 1c1.93.15 1.92-2.85 0-3z" fill="#262521" opacity=".35"/><path d="M336.84 187.13c-.24-2.72.66-5.69-1.38-7.95a7.34 7.34 0 00-3.75-1.79 9.59 9.59 0 00-4.61-.08 13.16 13.16 0 01-4.05.74 4.5 4.5 0 01-1.47-.55 2.09 2.09 0 00-2.3.32 14.08 14.08 0 00-4 7.16 5.29 5.29 0 00.66 4.5c.64.85 2 1.55 2.34 2.55a1.55 1.55 0 001.85 1.05 1.51 1.51 0 001-1.85 6.35 6.35 0 00-1.81-2.51c-.78-.72-1.42-1.23-1.29-2.37a10.15 10.15 0 011.13-3.38c.44-.85 1.22-2.51 2.15-2.91l-.76.21h.22l-.75-.2a8.88 8.88 0 002.14.86 8 8 0 002.59 0c1.77-.26 3.5-1.14 5.32-.83 1.28.22 3.08.49 3.56 1.87.56 1.62 0 3.48.16 5.16a1.54 1.54 0 001.5 1.5 1.5 1.5 0 001.5-1.5z" fill="#262521" opacity=".35"/><path d="M365.61 365.18l6.23-4.24c0-5.3-.08-10.59-.11-15.89l-11.22-.34-6.29-25.29c1.39-.39.74-3.66-.3-4.95a6.09 6.09 0 00-4.36-2.47 5.66 5.66 0 00-4.8 3.12c-4.43 9.39-11.48 28.76-11.48 28.76l-25.55-.77a4.53 4.53 0 00-4.39 3c-3 5.91 1.54 8.53 4.32 7.64l16.66 11.77-10.2 24.66a4.5 4.5 0 001.32 5.21 6.87 6.87 0 004.39 1.28c2.14 0 5.2-2.05 5-3.18l19-13.55 19.76 16.08c1.52 1.12 4.94.67 6.51-.38a4.5 4.5 0 001.87-4.83zm-18-32.33l2.71 11.55-7.39-.22zm-15.67 42.62l-.13-4.41 4.41 3.25zm3.42-13l3.89-8.42 13.24.4 1.91 7.47-10.3 7zm16.42 12.12l4.28-2.92.55 3.78z" fill="#262521"/><path d="M370.51 343.72c-3 .07-8.83.42-10.18-3.12a19.75 19.75 0 01-.64-4.29c-.24-1.77-.5-3.53-.81-5.29a61.2 61.2 0 00-2.48-9.78q-.78-2.22-1.76-4.35s-.68-1.39-.44-.68a5.17 5.17 0 01-.08-.63 6.23 6.23 0 00-.22-.95 5.55 5.55 0 00-3.69-3.82 6.49 6.49 0 00-6.47 2.14c-.31.36-.61.74-.92 1.11a5 5 0 00-.91 2c-.52 1.73-1.06 3.46-1.6 5.18a217.78 217.78 0 01-7.91 21.45c-.76 1.75 1.82 3.28 2.59 1.51 2.6-5.95 4.89-12 6.93-18.2a96.87 96.87 0 002.95-9.37c.38-1.69 2.71-3.5 4.66-2.89a2.32 2.32 0 011.33 1.31 4.84 4.84 0 01.25.73 1.75 1.75 0 01.09.53 32.67 32.67 0 001.82 4.4c.62 1.6 1.14 3.23 1.6 4.89a77.55 77.55 0 011.9 9.55c.37 2.53.2 5.72 1.74 7.89 2.66 3.73 8.12 3.77 12.25 3.68 1.93 0 1.94-3 0-3z" fill="#262521" opacity=".35"/><path d="M334.63 342.81c-9.19-.05-18.43-3.39-27.59-1.25-2.05.48-4.79 1.25-6.4 2.69a5.35 5.35 0 00-1.25 5.47 8.29 8.29 0 001.38 2.63 8.82 8.82 0 002.77 2.23c2.22 1.32 4.49 2.54 6.76 3.75 5 2.67 10 5.36 14.34 9l-.38-1.46c-.45 2.47.06 4.8.27 7.26a7.7 7.7 0 01-2.89 7.08h2.12l-1-1 .44 1.06c0 .19.49-.74.56-.94a3.75 3.75 0 00.05-1.94 1.52 1.52 0 00-1.84-1.05c-1.42.38-4 1.82-2.88 3.69 1.31 2.23 3.69-.33 4.57-1.48 1-1.34-.87-2.59-2.05-2.06-5.22 2.37-9.74 7.87-9.86 13.78a7.27 7.27 0 003.75 6.91 8.92 8.92 0 007.36.2 6.32 6.32 0 003-2.41c.45-.62.84-1.28 1.29-1.89s1-.77 1.83-1.16a37.83 37.83 0 008.39-5.44c1.29-1.1 2.46-2.56 4-3.34a14.83 14.83 0 012.64-1.09 3.74 3.74 0 011.31-.27 4.17 4.17 0 011.06.6 50.28 50.28 0 017.94 5.82 40.94 40.94 0 016.93 8.48 5.74 5.74 0 004.4 2.49 5.07 5.07 0 002.86-.61c.29-.18.49-.52.79-.7s0-.35.51 0a1.52 1.52 0 002.51-.66c1.55-5-.26-10.47-1.86-15.26s-3.93-10-3.2-15.07a9.51 9.51 0 014.54-6.65c1.62-1.05.12-3.65-1.51-2.59a13 13 0 00-5.36 6.3 15.51 15.51 0 00-.52 7.68c.84 5.71 3.42 11 4.79 16.56a15.35 15.35 0 01.22 8.23l2.51-.66c-1.09-.92-2.38-1.51-3.75-.78-.47.25-.8.71-1.24 1a2.6 2.6 0 01-2.66-.37c-1-.78-1.64-2.4-2.4-3.43a41 41 0 00-3-3.62 46.45 46.45 0 00-6.88-6q-1.86-1.33-3.8-2.52a13.84 13.84 0 00-1.73-1 4.77 4.77 0 00-2.87.07 15.32 15.32 0 00-4.65 1.93c-1.34.92-2.45 2.33-3.71 3.38a34 34 0 01-8 5.06 5.06 5.06 0 00-1.84 1 13.08 13.08 0 00-1.31 1.75c-.75 1.11-1.28 2-2.6 2.5-2 .7-4.42.53-5.85-1.14-1.87-2.18-.71-5.92.51-8.12a15.15 15.15 0 016.94-6.35l-2.05-2.05c-.14.18-.69.61-.74.82l-.16.1c.9-.32 1.42.26 1.57 1.73-.19 0 .05-.06.09-.07.31-.08.61-.29.94-.37l-1.85-1c.05.28-.25.53-.38.77a2.39 2.39 0 00-.28 1.71c.17.66.92 1.19 1.38 1.66a1.54 1.54 0 002.12 0 10.27 10.27 0 003.76-6.65c.24-2.15-.27-4.25-.44-6.38-.08-1 .17-2 .12-3-.06-1.41-2.21-2.52-3.23-3.28a67 67 0 00-7.48-4.75c-2.59-1.45-5.24-2.82-7.84-4.25-2.32-1.27-5.68-2.47-6.42-5.28a2.16 2.16 0 011.35-2.77 18.35 18.35 0 013.87-1.43 27.83 27.83 0 018.09-.65c6.39.3 12.67 1.87 19.09 1.91a1.5 1.5 0 000-3z" fill="#262521" opacity=".35"/><path d="M356.24 361.19c-.24-2.73.66-5.69-1.39-7.95a7.31 7.31 0 00-3.74-1.79 9.5 9.5 0 00-4.62-.08 13.09 13.09 0 01-4.05.73 4 4 0 01-1.46-.55 2.13 2.13 0 00-2.31.33 14.06 14.06 0 00-4 7.16 5.26 5.26 0 00.66 4.5c.64.85 2 1.55 2.34 2.55a1.54 1.54 0 001.84 1.05 1.51 1.51 0 001.05-1.85 6.28 6.28 0 00-1.81-2.51c-.78-.72-1.42-1.23-1.29-2.38a10.17 10.17 0 011.13-3.37c.44-.85 1.22-2.51 2.15-2.91l-.76.21h.22l-.76-.21a8.83 8.83 0 002.14.87 8.1 8.1 0 002.6 0c1.77-.27 3.5-1.14 5.31-.83 1.28.22 3.08.49 3.57 1.87.56 1.62 0 3.48.16 5.16a1.54 1.54 0 001.5 1.5 1.51 1.51 0 001.5-1.5z" fill="#262521" opacity=".35"/><path d="M460.29 367.11c.34-4.87.6-9.77.65-14.65 0-3.62-.07-7.22.22-10.81l-19.5-.59a4.51 4.51 0 00-4.39 3c-3 5.91 1.53 8.53 4.32 7.64l16.66 11.77-10.2 24.66a4.51 4.51 0 001.32 5.21 6.87 6.87 0 004.39 1.28 7 7 0 003.63-1.33c.45-8.74 2.31-17.41 2.9-26.18z" fill="#262521"/><path d="M457.06 377.28c-.08.15-.39.71-.4.7a1.73 1.73 0 01.52.06c.11 0 0 0 0 0a2.15 2.15 0 01-.07-.49 2.29 2.29 0 01.47-1c.77-1.13-.5-2.5-1.69-2.2-4.38 1.09-6.95 4.83-8.33 8.89a32 32 0 00-1.35 6c-.3 2.15.23 4.09 2.17 5.29a10.93 10.93 0 008.25 1.17 1.51 1.51 0 00-.8-2.9 7.4 7.4 0 01-3.71 0c-.89-.21-2.25-.53-2.8-1.35a2.76 2.76 0 01-.16-1.83c.14-1.07.37-2.14.61-3.18.91-3.87 2.68-8.17 6.92-9.23L455 375c-1 1.52-1.33 3.84.13 5.22 1.65 1.55 3.7.25 4.52-1.45s-1.76-3.26-2.59-1.51zm3.26-37.15c-4.77-.3-9.42-1.54-14.22-1.6-3.57 0-7.53.47-10.39 2.83s-3 6.41-1.38 9.53c.56 1.06 1.92 1.07 3 1.39a26.65 26.65 0 013.37 1.24 49.35 49.35 0 015.82 3.13c2.11 1.29 4.16 2.68 6.25 4 1.12.7 2.26 1.38 3.42 2 .52.29 1.43.58 1.78 1.07a2.31 2.31 0 01.24 1.4c-.05 1.93 2.95 1.93 3 0a5.19 5.19 0 00-.89-3.25c-.78-1.09-2.18-1.55-3.32-2.2-2.27-1.3-4.46-2.75-6.67-4.17-4.43-2.85-9-5.46-14.2-6.65l1 1.05c-.75-1.83-1.47-4.12 0-5.79a8.8 8.8 0 014.61-2.28c3-.71 6.52-.3 9.58.11s6 1 9 1.18c1.93.13 1.92-2.87 0-3z" fill="#262521" opacity=".35"/><path d="M195.71 257.39a4.5 4.5 0 00-4.82-2.19l-19.43 4-13.43-26a4.5 4.5 0 00-4.71-2.37c-1.92.31-7.15 1.69-4.26 7.08l-4.28 26.75-21.78 4.53c.06 2 0 3.93.11 5.9s.24 3.82.42 5.72l17.55 7-4.22 26.35a4.5 4.5 0 002.49 4.76 6.78 6.78 0 004.57.24c2.08-.5 4.59-3.2 4.17-4.26l15.34-17.58 22.93 11.07c1.75.75 5-.48 6.26-1.87a4.51 4.51 0 00.7-5.13l-12.15-23.49 14-15.29a4.49 4.49 0 00.54-5.22zm-53.17 21.3l-4-2.62 4.72-1.87zm13.6-28l5.31 10.61-7.25 1.49zM150.19 297l-.59-5.52 5 2.15zm10.88-10.42l-10-4.26 1.61-10.06 13-2.67 3.81 7.8zm8.78 3.74l3.5-3.83 1.8 4.58zm6.9-20.9l-1-1.91h2.06z" fill="#262521"/><path d="M123.75 282.54c3.41 1.33 6.53 3.4 10.15 4.18 2.61.56 5.92.58 7.55 3 1.75 2.64 1.93 6.42 1.82 9.49a6.77 6.77 0 01-.27 2.1c0 .12-.35.74-.4.66s.34 0 .37 0c.32.14.08.27.17.11s0-.37 0-.46a5.28 5.28 0 01.33-1c.51-1.3-1.15-2.26-2.21-1.7a11.64 11.64 0 00-5.46 7.19 22.09 22.09 0 00-.55 5.33c-.05 1.64-.3 3.53.28 5.09a7.47 7.47 0 006.09 5c3.45.34 5.49-2.49 7.51-4.83 4.79-5.58 8.84-12 14.26-17a4.68 4.68 0 011.65-1.13 2.2 2.2 0 01.92 0s.52.28.28.07 0 0 0 .07c.8 1.2 1.13 1.85 2.65 2.09a20.73 20.73 0 018.35 3.62c2.87 1.94 5.55 4.15 8.68 5.67a3.73 3.73 0 002.42.61 6.1 6.1 0 001.82-.69c1.28-.68 2.44-1.74 4-1.26a1.51 1.51 0 001.9-1.44c.12-1.67.59-3.94.06-5.59-.6-1.83-2.68-1.27-3.16.28-.58 1.85-1 5.33.84 6.6a1.51 1.51 0 002.26-1.29c.06-6.76-3.85-12.27-7.77-17.43-2-2.66-4.38-5.25-4.9-8.67a10.67 10.67 0 012.11-7.7 25.88 25.88 0 016.72-6.31c1.27-.88 2.59-1.69 3.94-2.45a3.91 3.91 0 001.86-2.08c1.61-4-.86-9.27-5.29-9.9-7.36-1.05-13.68 4.91-21 4l1.06.44a58.79 58.79 0 01-8.28-13.21 93.172 93.172 0 01-3.06-7.38c-.82-2.23-1.31-4.71-3.15-6.36-3.13-2.81-7.94-1.54-10.26 1.7-1.29 1.8-1 3.86-1.44 5.91a27.87 27.87 0 00-.6 3.18c-.15 1.42-.28 2.85-.39 4.28-.49 6.16-.75 12.36-2 18.43-.38 1.88 2.51 2.69 2.89.79 1.23-6.1 1.54-12.34 2-18.54.11-1.43.23-2.86.38-4.29a16.38 16.38 0 01.2-2c.12-.45.36-1 .45-1.56.18-1.11.14-2.26.41-3.35a4.2 4.2 0 012.13-2.56 3.46 3.46 0 015.1 1.42 35.34 35.34 0 011.42 3.93c.53 1.45 1.1 2.88 1.7 4.31a67.82 67.82 0 008.57 15.27c.76 1 1.51 2.34 2.79 2.58a12.58 12.58 0 004.15-.11 41.89 41.89 0 007.5-2.21c3.15-1.12 9.86-3.88 11.7.53a5.19 5.19 0 01.13 3.69c-.11.23-.25.34-.12.24a12.43 12.43 0 01-1.28.73c-1.17.68-2.32 1.41-3.42 2.19-4 2.8-7.89 6.37-9.47 11.11a12.52 12.52 0 00-.1 7.47c.92 3.08 3 5.47 4.88 8 3.56 4.7 7.41 9.74 7.36 15.92l2.26-1.3a1.4 1.4 0 01.35.39s-.09-.5-.08-.28v-1a10.52 10.52 0 01.07-1.12 3.57 3.57 0 01.11-.74l.09-.38c.07-.41 0 0 0 0 .41-.75-.4-.78-2.43-.07-.11-.29-.14-.35-.1-.18.07-.14 0-.29 0 .06 0 1.53-.08 3.07-.19 4.6l1.9-1.45a5.5 5.5 0 00-3.93.27 16.28 16.28 0 00-3 1.57l-.24.07c.45.1.44.06 0-.11s-.68-.33-1-.49c-.65-.34-1.28-.71-1.9-1.1-1.21-.76-2.37-1.59-3.53-2.42a39.42 39.42 0 00-7.17-4.4 18.42 18.42 0 00-4.28-1.31c-.1 0-1.08-.35-.65 0-.06-.05-.08-.18-.14-.25a7.25 7.25 0 00-1-1.4c-2.42-2-5.49-.09-7.31 1.7a84.17 84.17 0 00-6.76 7.74c-2.21 2.78-4.36 5.6-6.65 8.31-1 1.2-2.06 2.41-3.18 3.53a3 3 0 01-3.35.71c-3.35-1.34-2.76-5.35-2.58-8.24.21-3.46 1.19-6.82 4.46-8.57l-2.2-1.69c-.79 2-.41 5.46 2.51 5.1s3.2-4.31 3.2-6.61c0-3.34-.39-7.22-2.24-10.09s-4.62-3.56-7.65-4.11a23.37 23.37 0 01-5.72-1.69c-2-.93-4-2-6.13-2.81-1.8-.7-2.58 2.2-.79 2.9z" fill="#262521" opacity=".35"/><path d="M145.79 263.35c-7.51 1.2-15 2.32-22.51 3.67-1.9.35-1.1 3.24.8 2.9 7.48-1.36 15-2.48 22.51-3.67 1.9-.3 1.09-3.2-.8-2.9zm25.32 12.82c-.86-2.56-.67-5.56-3.11-7.31a7.07 7.07 0 00-4-.92 9.66 9.66 0 00-4.37.87c-1.29.59-2.5 1.52-3.92 1.75a4.2 4.2 0 01-1.69-.19 2.07 2.07 0 00-2 .67 10.35 10.35 0 00-1.79 3.93 15.42 15.42 0 00-.59 4.32 5.2 5.2 0 001.66 4c.84.72 2.29 1.07 2.91 2 1.07 1.59 3.67.09 2.59-1.52a6.39 6.39 0 00-2.36-2c-.85-.47-1.58-.81-1.75-1.86a9.42 9.42 0 01.27-3.54 15 15 0 01.57-1.84 8.58 8.58 0 01.37-.82c.08-.18.59-.82.23-.59l-.76.2a3.8 3.8 0 01.89.18 5 5 0 001.34.07 8.69 8.69 0 002.78-.79c1.58-.71 3-1.81 4.77-1.86 1.37-.05 3-.19 3.77 1.15s.76 3.31 1.28 4.88c.61 1.82 3.51 1 2.9-.8z" fill="#262521" opacity=".35"/><path d="M428.65 224.68a4.52 4.52 0 00-4.19-3.24l-19.82-.6-7.07-28.36a4.48 4.48 0 00-4-3.4c-1.94-.15-7.35 0-5.79 5.9L377.4 220l-3.14-.1c0 3.63-.1 7.25-.26 10.86-.33 7.82-1.11 15.6-1.72 23.4a99.93 99.93 0 01-1.93 14.51L388 256.11l19.76 16.07c1.52 1.13 4.94.68 6.51-.38a4.48 4.48 0 001.87-4.82l-6.39-25.67 17.13-11.65a4.5 4.5 0 001.77-4.98z" fill="#262521"/><path d="M372.23 269c6.38-3 11-9.16 17.87-11.19l-1.46-.39c3.61 4.26 8.38 7.16 12.63 10.71a39 39 0 013 2.75 26.1 26.1 0 003 3c2.61 2 5.41-.15 8.26.61a1.53 1.53 0 001.85-1c.53-1.65 1.55-3.9 1.28-5.7s-2.3-1.78-3.19-.46c-1.15 1.72-2.23 5.11-.6 6.82a1.51 1.51 0 002.51-.66c2-6.68-1.09-13-3.67-19.06-2.09-4.86-4.63-10.91-.3-15.3 3.28-3.33 8.27-4.65 12.65-5.78 1.36-.35 2.47-.5 3.35-1.69a9.24 9.24 0 001.77-4.84 7.53 7.53 0 00-3.53-6.92 7.87 7.87 0 00-5.21-.84c-2.06.3-4.13.56-6.2.67-4.18.22-8.22-.33-11.79-2.64l.69.9c-1.77-5.4-2.55-11-3.52-16.58a80.6 80.6 0 00-1.82-8.41 8.15 8.15 0 00-1.31-3.17 8.87 8.87 0 00-1.77-1.58c-2.63-1.81-6.54-2.26-9 .17-1.59 1.61-2 4-2.62 6.1-.8 2.59-1.62 5.17-2.48 7.73-1.9 5.71-4 11.34-6.3 16.89a1.52 1.52 0 001.05 1.85 1.55 1.55 0 001.85-1.05c2.4-5.76 4.55-11.62 6.51-17.54q1.5-4.55 2.88-9.13c.59-1.93 1.32-3.71 3.66-3.54a5.61 5.61 0 013.95 2.11 8.1 8.1 0 01.71 2.2c.22.78.42 1.57.61 2.36.39 1.65.72 3.31 1 5 .58 3.23 1.05 6.49 1.7 9.71.31 1.59.67 3.17 1.09 4.74s.6 3.12 1.91 4c4.89 3.17 11 3.15 16.54 2.49 2.35-.28 5.18-1.22 7.08.69 1.72 1.73 1.53 4.51.31 6.45a2.38 2.38 0 01-.39.55c.35-.31-.07 0-.29 0l-1.16.29c-.93.24-1.87.5-2.8.77a44.42 44.42 0 00-5.59 2c-3.29 1.48-6.52 3.74-8 7.13-2.3 5.15 0 10.59 2.08 15.41 2.27 5.32 5.22 11 3.44 16.94L417 272c.15.16.05.21.09.13s0 .13 0-.22a1.73 1.73 0 01.09-.77 9.21 9.21 0 01.61-1.81l.19-.35c.16-.3 0 0 0 0s-2.62-.68-2.28-.91c0 0-.08.55 0 .21-.36 1.49-.73 3-1.21 4.43l1.85-1.05a9.8 9.8 0 00-4.21-.09c-.61.1-1.21.24-1.83.3a1.91 1.91 0 01-1.7-.72c-1-.91-1.84-2-2.8-2.93s-2-1.83-3-2.68c-4.09-3.32-8.58-6.15-12-10.2a1.49 1.49 0 00-1.46-.39c-7.16 2.14-11.94 8.36-18.59 11.5-1.74.82-.22 3.41 1.52 2.59z" fill="#262521" opacity=".35"/><path d="M378.75 218.94l-3.43-.26a1.54 1.54 0 00-1.06.44 1.52 1.52 0 00-.44 1.06 1.5 1.5 0 00.44 1.06 1.64 1.64 0 001.06.44l3.43.26a1.46 1.46 0 001.06-.44 1.5 1.5 0 000-2.12 1.64 1.64 0 00-1.06-.44z" fill="#262521" opacity=".35"/><path d="M110.92 365.42l-4.08-1.6 4.29-2.91a44.26 44.26 0 001.73-7.54c.33-3.43.54-6.88.89-10.31.39-3.81.57-16.2.64-20.05 0 0-14.45-11.07-4.87-13.52l-1-3.93a4.51 4.51 0 00-4-3.4c-1.94-.14-7.35 0-5.79 5.9l-10.35 25-25.55-.78a4.54 4.54 0 00-4.39 3c-3 5.92 1.54 8.54 4.32 7.65l16.66 11.76-10.2 24.73a4.5 4.5 0 001.31 5.21 6.89 6.89 0 004.39 1.29c2.15 0 5.21-2.05 5-3.18l19-13.55 10.18 8.28c.48-4.04 1.11-8.05 1.82-12.05zm-8.25-43.35l2.72 11.54-7.4-.22zm-15.28 42.28l.34-3.44 2.69 2zm3-12.65l3.89-9.42 13.24.4 1.91 8.47-10.3 7z" fill="#262521"/><path d="M110.86 308.21c-.54-2.53-1.45-5.24-3.64-6.82a6.5 6.5 0 00-7.66.18c-2.19 1.77-2.77 4.69-3.45 7.27a98.66 98.66 0 01-3.71 11.08c-1.62 4.14-3.4 8.22-5.06 12.34-.72 1.79 2.19 2.57 2.9.8 3.16-7.88 6.79-15.62 8.88-23.87.59-2.31 1.2-5.82 4.17-5.95 3.17-.14 4.15 3.27 4.68 5.77.4 1.89 3.3 1.09 2.89-.8zm4.98 21.11a67.83 67.83 0 01-2-6.7 1.5 1.5 0 00-1.84-1.05 1.53 1.53 0 00-1 1.84 65.41 65.41 0 002 6.71 1.5 1.5 0 102.89-.8z" fill="#262521" opacity=".35"/><path d="M89.72 332l-12.51-1c-3.68-.28-7.4-.66-11.09-.68-4 0-9.6.71-11.08 5.15-.76 2.27-.24 5.58 1.69 7.13a8.18 8.18 0 003.47 1.4 11.14 11.14 0 014.11 1.92c2.45 1.76 4.5 3.85 7.22 5.22 2.1 1.06 4.5 1.9 6.25 3.51 2.47 2.26 2.21 5.91 1.75 9a15 15 0 01-1.53 5.03c-.06.1-.25.21-.24.28s.4.21.38.22a14.82 14.82 0 01.61-1.38c.77-1.12-.5-2.51-1.7-2.2-4.9 1.27-7.55 5.78-8.79 10.38-.58 2.16-1.58 4.3-1.12 6.6.59 2.95 3.48 4.35 6.24 4.76a11.84 11.84 0 004.07-.14 4.17 4.17 0 003.09-1.85c.56-.85 1-1.79 1.61-2.59.78-1 1.77-1.23 2.89-1.73 4.38-1.94 7.4-5.82 11.35-8.39a12.48 12.48 0 013.43-1.64 2.37 2.37 0 012.63.78c1.85 1.79 3.11 4.1 5.31 5.52 1.62 1.06 3.13-1.54 1.51-2.59-3.09-2-4.81-7.62-9.29-6.82s-7.66 4-10.89 6.8a22.3 22.3 0 01-5.38 3.65 9.84 9.84 0 00-2.83 1.4 10.67 10.67 0 00-2 2.56c-.26.43-.5.87-.76 1.29-.09.14-.51.59-.21.38-1 .69-3.21.56-4.31.35s-2.88-.7-3.37-1.92a4.58 4.58 0 01.14-3c1.36-4.29 2.48-9.63 7.51-10.94l-1.69-2.2a4.52 4.52 0 00-.88 3.79 2.61 2.61 0 002.5 1.88c3.31 0 4.21-4.87 4.6-7.33.51-3.15.84-6.82-.68-9.76-1.22-2.36-3.58-3.81-5.89-4.95a34.31 34.31 0 01-7.14-4.3 29 29 0 00-4.39-3.26 15.91 15.91 0 00-4.13-1.42 2.59 2.59 0 01-2.34-2.37 3.84 3.84 0 01.45-2.89c1.13-1.58 3.51-2 5.3-2.19 3.62-.36 7.34.12 10.95.37 5.07.36 10.13.78 15.2 1.16 1.93.15 1.92-2.85 0-3z" fill="#262521" opacity=".35"/><path d="M111.33 350.4c-.24-2.72.66-5.69-1.38-7.95a7.42 7.42 0 00-3.75-1.79 9.59 9.59 0 00-4.61-.08 12.87 12.87 0 01-4 .74 4.29 4.29 0 01-1.47-.55 2.09 2.09 0 00-2.3.32 14.12 14.12 0 00-4 7.16 5.31 5.31 0 00.66 4.51c.64.85 2 1.55 2.34 2.54a1.55 1.55 0 001.85 1.05 1.5 1.5 0 001-1.84 6.31 6.31 0 00-1.81-2.51c-.78-.71-1.42-1.22-1.29-2.37a10 10 0 011.13-3.37c.44-.86 1.22-2.52 2.15-2.91l-.76.2h.22l-.75-.2a8.49 8.49 0 002.14.86 8 8 0 002.59 0c1.77-.27 3.5-1.15 5.32-.83 1.28.22 3.08.49 3.56 1.87.56 1.62 0 3.48.16 5.15a1.54 1.54 0 001.5 1.5 1.5 1.5 0 001.5-1.5z" fill="#262521" opacity=".35"/></svg>