<svg xmlns="http://www.w3.org/2000/svg" width="500" height="550" viewBox="0 0 500 550"><path d="M338.1 58.43c-5.35-3.37-4.85-8.67-6.86-12.68s-8.35 1-8.35 1-6.52-9.52-10.7-14.76-55.67 1.23-55.67 1.23h-6c-10.95-1.37-57.91-4.79-63.07 2.29-5.85 8-7.19 8-7.19 8s-4.85-4.85-8.69 0S150.55 61 153.89 67.32 192 84.87 192 84.87l58 23.79S345 72 346.29 67.82s-2.84-6.02-8.19-9.39z" fill="#a8a8a9" stroke="#262521" stroke-linecap="round" stroke-linejoin="round" stroke-width="3"/><path d="M346.34 65.1c11.36 3.82 22.38 8.48 32.58 15.11 15.94 14.59 21.63 38 30.45 57.21 27.81 67.48 58 134.89 51.05 209.57-.12 1.88 2.29 6.27 2.2 8.15-.15 3.55-2.75 7.1-2.84 10.65 0 2 2.9 4.07 2.85 6.1 0 1.26-3.06 2.52-3.1 3.78 0 1.45 3.63 1 3.86 4.23s-4.22 1.57-4.39 4.29c-.08 1.35 2.82 6.69 2.72 8s-3.26 2.95-3.41 4.42c-.31 2.94.81 5.88.33 8.81-.49 4.66-6.71 7.09-7.06 11.78-1.22 5.28-2.08 10.65-2.91 16-.4 2.6-.41 2.83-3.08 2.33-12.48-2.66-25.26-5.49-37.8-1.58-8.34-.15-8.13-15.56-11.44-21.4-2.36-2.77-5.45-4.72-6-6.54-.9-3 1.74-5.68.66-11.1-.35-3.78-5.14-7.7-5.65-11.6-.25-1.91 3.57-3.81 3.54-5.69a21.66 21.66 0 012.9-12c2-3.53 1.86-7.05.51-10.66-4.9-11.28-7.4-23.42-10.45-35.29-1.07-4.3-1.31-8.49 1.61-12.34 1.51-7.23-10.43-8.68-10.93-15.93l-.41.08C372 332.71 364.22 373.87 364 415c-.81 9-2.68 16.41-3.55 25.44-1 10.07-2.16 17.05-5 25.63-.35 1.05-19.16 1.56-46.54 4.26-19.15 1.89-62 6.5-79 6.17-41.12-.78-91.65-9.55-92.59-14.65-1.35-11.26-1.06-18.53-2.47-29.31-6.15-46.82-8.89-94.37-11.1-141.53-1.42 2.83-2.94 5.6-4.29 8.46-2.37 10.67-17.5 9.3-11.81 16.18 11.11 7.95 7.91 21.38 6.65 32.56-.25 3.15-6.85 6.27-5.87 9.58.24 4.05 3.52 8.12 2.56 12.18-.69 2.95 1 5.89.36 8.82-.32 1.44-4.6 2.88-4.8 4.31-.68 3.61 4.72 7.7 4.37 11.3-.43 4.34-5 8.2-4.41 12.63 0 1.11-1.4 2.5-2.13 3.3-5.71 6.28-6.75 14-8.19 22.06-.57 3.18-.61 3-3.74 2-12.38-3.52-26.09-4.38-38.6-1.18-1.39.34-2.11 0-2.41-1.47-2-7.76-2.18-16.67-8.49-22.43a6.62 6.62 0 01-1.33-3.22c-.7-3.45-4.26-6.92-4.69-10.39s3.75-7.06 3.58-10.6c-.21-4.09-5.24-8.2-5.11-12.31-.14-4.58 3.26-9.15 3.19-13.73-.85-58.53 4.62-117.49 26.5-172.28 13.61-35.43 24.56-73.32 48.07-103.67 12.52-8.35 26.19-14 40.24-18.81" fill="#a8a8a9" stroke="#262521" stroke-linecap="round" stroke-linejoin="round" stroke-width="3"/><path d="M176.49 255.52s30.47 15.21 40.94 27.42m-40.94 92.86s-2.91 24 20.47 52" fill="none" stroke="#636363" stroke-linecap="round" stroke-linejoin="round" stroke-width="3" opacity=".95"/><path d="M271.32 250.87s-3.35 118.06-66.16 196c0 0-10.29 12.22-16.53-8m94.08-187.95s4.7 83.78-11.39 128m51.47-122.59s-.68 58 9.79 91.75" fill="none" stroke="#636363" stroke-linecap="round" stroke-linejoin="round" stroke-width="3" opacity=".95"/><path d="M121.8 180.54s2.11 28.62 0 44.24.11 29.7.11 32.88 1.9 33.06 1.9 33.06m247.52-102.37s-1.25 73.86.81 102.9" fill="none" stroke="#262521" stroke-linecap="round" stroke-linejoin="round" stroke-width="3"/><path d="M243.77 92.41c-77.51-40.94-51.11-43.56-36.17-46.34 16.21-3 67.31-4.92 82.68-2.58 16.47 2.51 47.9 7.89-29.18 48.92" fill="none" stroke="#636363" stroke-linecap="round" stroke-linejoin="round" opacity=".95"/><path d="M156.08 68.23C174.07 66.08 245 110 253.3 110s44.9-37.17 88.06-44" fill="none" stroke="#636363" stroke-linecap="round" stroke-linejoin="round" opacity=".95"/><path d="M51.32 409.51S80 400 96.47 412m305.71 0s25.94-8.31 43.55 0m-234.32 34.07a730.67 730.67 0 00142.25-7.22m-212.66 0s17 3.27 45.72 5.63" fill="none" stroke="#636363" stroke-linecap="round" stroke-linejoin="round"/><path d="M180.25 180.54c8.38 16.64-17.14 75.56-3.76 75s50 1.74 74.71-3.49 89.57 3.83 100.92 15.43c12.22 12.48 14.36 31.32 14.36 31.32m-106.59-47.93S225 352.15 148.22 395.77" fill="none" stroke="#636363" stroke-linecap="round" stroke-linejoin="round" stroke-width="3" opacity=".95"/><path d="M220.18 92.41c1.51 21.36 2.19 42.79 2.62 64.2.46 23.4.56 46.82.16 70.23-.2 11.29-.51 22.58-1.07 33.86-.13 2.51 3.77 2.5 3.9 0 1.07-21.39 1.32-42.82 1.31-64.24 0-23.41-.39-46.82-1.26-70.22-.43-11.28-1-22.56-1.76-33.83-.17-2.49-4.07-2.51-3.9 0zm57.36-4.67c.72 10.18 1.32 20.37 1.9 30.56q1 18.2 1.95 36.39 1 19.14 1.95 38.27.93 18.39 1.92 36.76c.58 10.61 1.18 21.21 1.87 31.81.07 1.14.15 2.27.23 3.41.16 2.49 4.07 2.51 3.9 0-.7-10.25-1.29-20.5-1.86-30.76q-1-18.24-1.92-36.49l-2-38.28q-.93-18.34-1.94-36.67c-.59-10.54-1.2-21.09-1.92-31.62-.07-1.13-.15-2.25-.23-3.38-.18-2.49-4.08-2.51-3.9 0z" fill="#d3d5d5"/><path d="M393.63 378.9s15.32 1.15 24.08 0m36.39 5.43s-20.52 5.74-33.65 2.46m-24.08 7.11s20.25 4.28 35.84 1.87M44.22 377.35a128.71 128.71 0 0029.67 1.55m27.35 2.01s-19.67 7.73-37.35 3.42m-19.67 11.44s17 3.22 29.67.74m18.22.94s7.39 2.38 11 3.06m-29.22-42.87s15.27 6.14 29.22 0m329.1-3.56s21.38-.14 23.75-5.16" fill="none" stroke="#636363" stroke-linecap="round" stroke-linejoin="round"/></svg>