<svg xmlns="http://www.w3.org/2000/svg" width="500" height="550" viewBox="0 0 500 550"><path fill="#fff" d="M200.72 70.19h104.81v38.7H200.72z"/><path d="M313.06 58.41c19 5.08 46.53 13.31 65.86 25.9 15.94 14.59 21.63 38 30.45 57.2 27.81 67.49 58 137.4 51.05 212.08-1.19 18.66-4.42 78.39-5.25 83.75-.4 2.6-2.89 2.66-5.58 2.32-12.55-1.57-44.48-2.16-58.14-1.72-2.05-20-5.11-59.16.36-68.16 2-3.53 1.86-7 .51-10.65-4.9-11.29-7.4-23.42-10.45-35.3-1.07-4.3-1.31-8.49 1.61-12.33 1.51-7.24-10.43-8.68-10.93-15.93l-.41.08c-.18 41.16-.33 166-3.17 174.54-.59 1.77-2 1.67-3.35 1.43-44.59-7.73-104.16-5.71-149.15-2.92-24.6.58-58.62-1.67-83 2.09-5.23.6-5.68.28-6.62-4.82-1.35-11.26-.86-123.69-3.07-170.84-1.42 2.82-2.94 5.6-4.29 8.46-2.37 10.67-17.5 9.3-11.81 16.18 11.11 8 6.41 21.38 5.15 32.56-.25 3.15-1.35 6.27-.37 9.58.51 8.43-3.19 16.94-4.38 25.31-1.5 8-3.42 41.27-4.86 49.29-.57 3.17-.51 2.52-3.74 2.05-9.31-1.35-41.31.56-55.1-.18-1.43-.08-2.11 0-2.41-1.47-2-7.76-3.39-48.77-3-60-1.91-63 2.6-126.93 26.19-186 13.61-35.43 24.56-73.32 48.07-103.67 20.49-13.65 49.41-22.84 68.65-28.39 0 0 18.77-13.45 27-17.12s73-2.78 79.09-.68 25.09 17.36 25.09 17.36z" fill="#fff" stroke="#262521" stroke-linecap="round" stroke-linejoin="round" stroke-width="3"/><path d="M207 52.93s8.81 12 43 12 40.82-12 40.82-12S315.54 70.19 250 122c-71.73-51.81-43-69.07-43-69.07z" fill="#fff"/><path d="M121.8 184.94s2.11 28.62 0 44.25.11 29.69.11 32.87 1.9 33.07 1.9 33.07m247.52-102.37s-1.25 73.85.81 102.89" fill="none" stroke="#262521" stroke-linecap="round" stroke-linejoin="round" stroke-width="3"/><path d="M284.11 57.72c-17.36 10.43-39.47 7.3-58.65 4.88-7.1-1.26-13.56-4.12-18.56-9.67l-.41.07s3.41 36.22 41.7 34.4S290.82 53 290.82 53a34.54 34.54 0 01-6.71 4.72z" fill="#fff" stroke="#262521" stroke-linecap="round" stroke-linejoin="round" stroke-width="3"/><path d="M288.83 50.1c26.94 26.57-37 60.53-49.66 101.42S242.92 466 242.92 466M208.81 50.1c-12 9.74-12.71 39.89 38.33 84" fill="none" stroke="#262521" stroke-linecap="round" stroke-linejoin="round" stroke-width="3"/><path d="M313.94 62.76s11.54 23.05 8.3 25.63-26.63 6.08-26.63 6.08 12.8 16.11 12 19.24-60.08 24.38-64.68 42.76m-61.45-93.21s-14.64 21.15-11.36 24.42S195.81 97 195.81 97s-14.66 14.43-14.25 17.64 48.21 9.88 57 28.2" fill="none" stroke="#262521" stroke-linecap="round" stroke-linejoin="round"/><path opacity=".5" stroke="#636363" stroke-linecap="round" stroke-linejoin="round" fill="none" d="M271.02 182.13h68.54v78.43h-68.54z"/><path fill="none" stroke="#262521" stroke-linecap="round" stroke-linejoin="round" d="M271.02 198.25h68.54M390.4 417.9h66.03m-416.09 0h65.04"/><circle cx="248.02" cy="168.97" r="5.1" fill="none" stroke="#636363" stroke-linecap="round" stroke-linejoin="round" opacity=".5"/><circle cx="245.02" cy="254.51" r="5.1" fill="none" stroke="#636363" stroke-linecap="round" stroke-linejoin="round" opacity=".5"/><circle cx="250" cy="338.99" r="5.1" fill="none" stroke="#636363" stroke-linecap="round" stroke-linejoin="round" opacity=".5"/><circle cx="252.12" cy="421.45" r="5.1" fill="none" stroke="#636363" stroke-linecap="round" stroke-linejoin="round" opacity=".5"/><path d="M132.18 460.35s189.94-6.8 231.6 0" fill="none" stroke="#636363" stroke-linecap="round" stroke-linejoin="round" opacity=".5"/></svg>