<svg xmlns="http://www.w3.org/2000/svg" width="500" height="550" viewBox="0 0 500 550"><path d="M372.14 291.55q-.27 61.74-.62 123.47c-.81 9-2.68 16.4-3.55 25.44-1 10.07 1.34 17-1.5 25.63-.59 1.77-2 1.67-3.35 1.43-44.59-7.73-101.66-5.71-146.65-2.92-24.6.58-58.62-1.67-83 2.09-5.23.6-5.68.28-6.62-4.82-1.35-11.26 1.94-18.53.53-29.31-6.15-46.82-1.39-94.38-3.6-141.53-1.42 2.82-2.94 5.6-4.29 8.46-2.37 10.67-17.5 9.3-11.81 16.18 11.11 7.95 6.41 21.38 5.15 32.56-.25 3.15-1.35 6.27-.37 9.58.51 8.43-3.19 16.94-4.38 25.31-1.5 8-2.61 15.83-1.54 23.93a5.1 5.1 0 01-1.13 3.3c-5.71 6.28-7.75 14-9.19 22.06-.57 3.18-.61 3-3.74 2-12.38-3.52-26.09-4.38-38.6-1.18-1.39.34-2.11 0-2.41-1.47-2-7.76-2.18-16.67-8.49-22.43a6.66 6.66 0 01-1.33-3.22A144.5 144.5 0 0139 372.85c-1.91-63 2.6-126.92 26.19-186 13.61-35.43 24.56-73.32 48.07-103.67 27.32-18.2 60-23.76 90.46-34.78a3.16 3.16 0 012.72.43c5 5.55 11.46 8.41 18.56 9.67 19.19 2.43 41.29 5.55 58.65-4.88 2.85-1.27 4.2-6.53 7.87-5 29.12 10.49 61 14.4 87.44 31.58 15.94 14.59 21.63 38 30.45 57.2 27.81 67.49 58 137.4 51.05 212.08-1.19 18.66-.23 37.46-3.28 56-.49 4.66-5.21 7.09-5.56 11.78-1.22 5.28-2.08 10.65-2.91 16-.4 2.6-.41 2.83-3.08 2.33-12.48-2.66-25.26-5.49-37.8-1.58-8.34-.15-8.13-15.56-11.44-21.41-6.28-7.36-3.61-9-5.33-17.63-.9-9.7-4.68-20.27.79-29.26 2-3.53 1.86-7.05.51-10.66-4.9-11.29-7.4-23.42-10.45-35.29-1.07-4.31-1.31-8.5 1.61-12.34 1.49-7.15-10.43-8.7-10.93-15.93z" fill="#262521" stroke="#262521" stroke-linecap="round" stroke-linejoin="round" stroke-width="3"/><path d="M355.57 372.92c-2.78-.7-8.6 0-12.05-.25-7.25-.52-14-.63-21.19-.82-5.6-.15-11 .93-16.48.91-3.85 0-7.64-1.17-11.52-1.18-2.05 0-4.22.52-6.31.57-7.52.17-15.33-.53-22.69.05-2 .15-3.89 1-5.86 1.08-4.2.1-8.44-.77-12.51-.77s-7.63 1-11.66 1.21c-2.61.13-5.51-1-8.15-1-4.35.07-8.74 1.09-13.11 1.13-2.29 0-4.49-.52-6.73-.42-3.75.17-7.38 1.75-11.12.28-6.75 2.49-15.48 1.63-23.75 1.43-6-.15-12.33 1.25-17.35-.58-9.59 1.5-21-.75-31.32-.07v7.39c9.32-.67 20.75 1.6 27.39 1.57 2.88 0 5.57.49 8.18.5 3.2 0 6.5-1 9.71-.84 2.69.09 5.12.53 7.7.47 3.09-.08 6.14-.4 9.19-.4s6.43.65 9.63.59c7.15-.13 14.09-1.63 21.31-1.1 8.58.64 15.89-.05 24.62.07 34.36.48 71.81-1.67 112 .14 2.14-1.58 5.05-.34 8.24-.46s6.45-1.72 8.8-1.86h.94v-6.27c-5.71-.29-11.48-.24-15.91-1.37zm16.33 23.74c-8.89.25-19.16-1.7-25.31-1.67-2.88 0-5.58-.49-8.18-.5-3.2 0-6.5 1-9.71.84-2.69-.09-5.12-.53-7.7-.47-3.1.08-6.14.4-9.2.4s-6.42-.65-9.62-.59c-7.15.13-14.09 1.63-21.31 1.1-8.58-.64-15.89.05-24.62-.07-34.36-.48-71.81 1.67-112-.14-2.14 1.58-5.05.34-8.24.46s-6.45 1.72-8.8 1.86a17 17 0 01-2.45-.06v6.26c6.2.42 12.57.23 17.43 1.46 2.78.7 8.6 0 12 .25 7.25.52 14 .63 21.19.82 5.59.14 11-.93 16.47-.91 3.86 0 7.65 1.17 11.52 1.18 2.05 0 4.23-.52 6.32-.57 7.52-.17 15.33.53 22.69-.05 2-.15 3.89-1 5.86-1.08 4.2-.1 8.44.77 12.51.77s7.63-1 11.66-1.21c2.61-.13 5.51 1 8.15 1 4.35-.07 8.73-1.09 13.1-1.13 2.3 0 4.5.52 6.74.42 3.75-.17 7.37-1.75 11.12-.28 6.75-2.49 15.48-1.63 23.75-1.43 6 .15 12.33-1.25 17.34.58 9-1.41 19.57.48 29.35.17.04-2.48-.03-4.95-.06-7.41z" fill="#a72727" fill-rule="evenodd"/><path d="M370.38 417.48a4.35 4.35 0 00-1.8.89c-9.27-.77-17.82.73-27 .49-4.28-.12-8.86-.95-13.41-1-1.25 0-2.9.78-4.14.82-9.28.29-19-1.69-28.64-1-1.6.11-3.1.76-4.73.79-5.07.09-10.11-1-15.17-1-.83 0-2 .82-3 .85-1.56.05-3.08-.24-4.67-.16-10.89.54-20.29 1.54-30 1.81-7.71.22-15.3.94-22.89 1.11a66.2 66.2 0 01-14.56-1.48c-7.22 1.64-14.79-.23-21.63-.78-4.47-.36-9.26.85-14-1-.83 1.52-2.49.81-3.56.84-8.68.25-18.35-.94-26.91-.48a57.53 57.53 0 00-9.43 1v5.63c1.7-.39 3.26-1.24 5.08-1.51 2-.28 4.59 0 7-.22 6.43-.49 10.65.52 15.77.56 3.95 0 7.73-1.79 10.53.37 15-2.38 30.63 1.78 47.39.73 4.77-.29 10.44-.05 15.83-.39 2.27-.14 4.23-.7 6.47-.73 6.52-.1 12.27-.58 18.2-.79 12.26-.45 23.75-.28 33.46-1.69 13 1.93 27.27.89 40.94 1 1.35 0 2.39-.39 3.52-.35.84 0 .93.94 1.71 1 .56.06 1.83-.94 2.38-.87 1.31.16 2 1.07 3.46 1.09 4.94.06 10-.32 15.25-.42 1.81 0 3.62-.76 5.3-.77 4.35-.05 9.68 1.23 13.83 1.12V418a3.31 3.31 0 01-.58-.52z" fill="#fff" fill-rule="evenodd"/><path d="M108.34 336c-1.06-.7-3.29 0-4.61-.26a67.7 67.7 0 00-8.11-.81c-2.15-.15-4.21.93-6.31.91-1.48 0-2.93-1.17-4.41-1.19-.79 0-1.62.53-2.42.58-2.88.17-5.87-.53-8.69.05-.74.15-1.48 1-2.24 1.08-1.61.1-3.23-.77-4.79-.77s-2.92 1-4.46 1.21c-1 .12-2.11-1-3.12-1-1.67.06-3.35 1.09-5 1.12-.88 0-1.72-.52-2.58-.41-1.43.17-2.82 1.74-4.25.28-2.41 2.32-5.47 1.73-8.43 1.48v8.3a4 4 0 001 .09c1.19-.09 2.35-.41 3.52-.4s2.46.65 3.69.59c2.74-.13 5.39-1.63 8.16-1.1 3.28.63 6.08-.05 9.42.07 13.15.48 27.49-1.67 42.88.14.82-1.58 1.94-.34 3.16-.46s2.47-1.72 3.37-1.86h.18c.06-2.1.07-4.19.08-6.29-2.2-.35-4.38-.28-6.04-1.35zm3.84 23.57c-2.72-.42-5.47-1.57-7.28-1.55-1.1 0-2.13-.49-3.13-.5-1.22 0-2.49 1-3.71.85a21.23 21.23 0 00-3-.47c-1.19.08-2.35.4-3.52.4s-2.46-.65-3.69-.59c-2.74.13-5.39 1.63-8.16 1.1-3.28-.64-6.08.05-9.42-.07-9.83-.36-20.32.75-31.42.58v10.3h.48c2.14.14 4.2-.94 6.3-.91 1.48 0 2.93 1.17 4.41 1.18.79 0 1.62-.52 2.42-.57 2.88-.18 5.87.53 8.69-.05.75-.16 1.48-1 2.24-1.08 1.61-.1 3.23.76 4.79.76s2.92-1 4.46-1.21c1-.12 2.11 1 3.12 1 1.67-.06 3.35-1.08 5-1.12.88 0 1.72.52 2.58.42 1.43-.18 2.82-1.75 4.26-.28 2.58-2.5 5.92-1.63 9.09-1.43 2.29.15 4.72-1.25 6.64.58 2.63-1.08 5.62-.23 8.55.09.23-2.46.28-4.94.3-7.43z" fill="#a72727" fill-rule="evenodd"/><path d="M103 381.89c-1.64-.11-3.38-.95-5.12-1-.48 0-1.12.78-1.6.81-3.55.29-7.24-1.68-11-1-.62.12-1.2.77-1.82.8-1.94.08-3.86-1-5.8-1-.31 0-.79.82-1.14.85-.6 0-1.18-.25-1.79-.16-4.18.54-7.79 1.53-11.49 1.81-3 .21-5.87.94-8.78 1.1a10.56 10.56 0 01-5.46-1.48c-2.78 1.64-5.66-.22-8.27-.77a6.1 6.1 0 00-1.81 0v4.47c4.46.05 9.06 2.26 14 1.47 1.83-.29 4-.05 6.06-.39a20 20 0 012.49-.73c2.5-.1 4.7-.58 7-.8 4.71-.45 9.1-.28 12.84-1.68 5 1.92 10.43.89 15.66 1 .52 0 .92-.38 1.35-.35s.35.95.65 1 .71-.94.92-.87c.5.16.76 1.07 1.31 1.08 1.89.07 3.84-.31 5.84-.41.61 0 1.23-.59 1.8-.74.13-1.18.26-2.37.36-3.56a30.85 30.85 0 01-6.2.55z" fill="#fff" fill-rule="evenodd"/><path d="M453.74 334.89c-2.14-.15-4.2.93-6.31.91-1.47 0-2.92-1.17-4.41-1.19-.78 0-1.62.53-2.41.58-2.88.17-5.87-.53-8.69.05-.75.15-1.49 1-2.25 1.08-1.6.1-3.22-.77-4.78-.77s-2.93 1-4.47 1.21c-1 .12-2.11-1-3.12-1-1.66.06-3.34 1.09-5 1.12-.87 0-1.72-.52-2.57-.41-1.44.17-2.83 1.74-4.26.28-2.58 2.49-5.93 1.63-9.09 1.43-2.29-.15-4.72 1.25-6.64-.59a8.33 8.33 0 01-3.61.52 74.13 74.13 0 013.09 8.49 13.28 13.28 0 002.14.39c1.23 0 2.49-1 3.72-.85a21 21 0 002.95.48c1.18-.09 2.35-.41 3.52-.4s2.46.65 3.68.59c2.74-.13 5.39-1.63 8.16-1.1 3.29.63 6.08-.05 9.43.07 11.93.43 24.85-1.29 38.64-.26v-9.9a71.39 71.39 0 00-7.72-.73zm2.44 23.48a21 21 0 00-2.95-.47c-1.18.08-2.35.4-3.52.4s-2.46-.65-3.68-.59c-2.74.13-5.4 1.63-8.16 1.1-3.29-.64-6.09.05-9.43-.07-11.13-.41-23.11 1.06-35.86.43-.13 1.79-2.52 8.24-3.37 9.64h.18a67.52 67.52 0 008.11.82c2.14.14 4.2-.94 6.31-.91 1.47 0 2.92 1.17 4.41 1.18.78 0 1.61-.52 2.41-.57 2.88-.18 5.87.53 8.69-.05.75-.16 1.49-1 2.24-1.08 1.61-.1 3.23.76 4.79.76s2.92-1 4.47-1.21c1-.12 2.11 1 3.12 1 1.66-.06 3.34-1.08 5-1.12.88 0 1.72.52 2.58.42 1.44-.18 2.82-1.75 4.26-.28 2.58-2.5 5.92-1.63 9.09-1.43 1.61.1 3.28-.55 4.8-.32v-8.48c-1.15.09-2.33.94-3.49.83z" fill="#a72727" fill-rule="evenodd"/><path d="M459.52 381.6a15.49 15.49 0 00-3.49-.67c-.47 0-1.12.78-1.59.81-3.56.29-7.25-1.68-11-1-.61.12-1.19.77-1.82.8-1.94.08-3.86-1-5.79-1-.32 0-.8.82-1.15.85-.6 0-1.18-.25-1.79-.16-4.17.54-7.78 1.53-11.49 1.81-2.95.21-5.87.94-8.78 1.1a10.53 10.53 0 01-5.55-1.48c-2.79 1.64-5.66-.22-8.28-.77-1.71-.36-3.55.84-5.35-1-.33 1.52-1 .8-1.37.83a17.32 17.32 0 01-3-.07c.25 1.61.57 3.2.85 4.8 1.07-.4 2.07-1 2.84.63 5.78-2.39 11.71 1.77 18.14.73 1.83-.29 4-.05 6.06-.39a20.51 20.51 0 012.49-.73c2.5-.1 4.71-.58 7-.8 4.7-.45 9.1-.28 12.83-1.68 5 1.92 10.43.89 15.66 1 .52 0 .92-.38 1.36-.35s.34.95.64 1 .71-.94.92-.87c.5.16.77 1.07 1.32 1.08a3.73 3.73 0 00.47 0c.04-1.51-.04-2.99-.13-4.47z" fill="#fff" fill-rule="evenodd"/><path d="M391 395c-.9-9.7-4.68-20.27.79-29.26 2-3.53 1.86-7.05.51-10.66-3.65-8.42-6-17.3-8.18-26.2m77.24-7.17a237.64 237.64 0 01-.94 27.78c-1.19 18.66-.23 37.46-3.28 56m-415.46.67A144.5 144.5 0 0139 372.85c-.52-17.13-.57-34.34.12-51.49m74.26 1.18c3.31 7.65.42 17.31-.52 25.69-.25 3.15-1.35 6.27-.37 9.58.51 8.43-3.19 16.94-4.38 25.31m18.8 47.94c-3-22.55-3.28-44.92-3.06-67.33m247.97-6.19l-.3 57.48c-.81 9-2.68 16.4-3.55 25.44" fill="none" stroke="#262521" stroke-linecap="round" stroke-linejoin="round" stroke-width="3"/></svg>