<svg xmlns="http://www.w3.org/2000/svg" width="500" height="550" viewBox="0 0 500 550"><path d="M372.14 291.55q-.27 61.74-.62 123.47c-.81 9-2.68 16.4-3.55 25.44-1 10.07 1.34 17-1.5 25.63-.59 1.77-2 1.67-3.35 1.44-44.59-7.74-101.66-5.72-146.65-2.93-24.6.58-58.62-1.67-83 2.09-5.23.6-5.68.28-6.62-4.82-1.35-11.26 1.44-20 0-30.81-6.15-46.82-.89-92.88-3.1-140-1.42 2.82-2.94 5.6-4.29 8.46-2.37 10.67-17.5 9.3-11.81 16.18 11.11 7.95 6.41 21.38 5.15 32.56-.25 3.15-1.35 6.27-.37 9.58.51 8.43-3.19 16.94-4.38 25.31-1.5 8-2.61 15.83-1.54 23.93a5.1 5.1 0 01-1.13 3.3c-5.71 6.28-7.75 14-9.19 22.06-.57 3.18-.61 3-3.74 2-12.38-3.52-26.09-4.38-38.6-1.18-1.39.34-2.11 0-2.41-1.47-2-7.76-2.18-16.67-8.49-22.43a6.66 6.66 0 01-1.33-3.22A144.46 144.46 0 0139 372.86c-1.91-63 2.6-126.93 26.19-186 13.61-35.43 24.56-73.32 48.07-103.67 27.32-18.2 60-23.76 90.46-34.78a3.16 3.16 0 012.72.43c5 5.55 11.46 8.41 18.56 9.67 19.19 2.43 41.29 5.55 58.65-4.88 2.85-1.27 4.2-6.53 7.87-5 29.12 10.49 61 14.4 87.44 31.58 15.94 14.59 21.63 38 30.45 57.21 27.81 67.48 58 137.39 51.05 212.07-1.19 18.66-.23 37.46-3.28 56-.49 4.66-5.21 7.09-5.56 11.78-1.22 5.28-2.08 10.65-2.91 16-.4 2.6-.41 2.83-3.08 2.33-12.48-2.66-25.26-5.49-37.8-1.58-8.34-.15-8.13-15.56-11.44-21.41-6.28-7.36-3.61-9-5.33-17.63-.9-9.7-4.68-20.27.79-29.26 2-3.53 1.86-7.05.51-10.66-4.9-11.29-7.4-23.42-10.45-35.29-1.07-4.31-1.31-8.5 1.61-12.34 1.49-7.15-10.43-8.7-10.93-15.93z" fill="#262521" stroke="#262521" stroke-linecap="round" stroke-linejoin="round" stroke-width="3"/><path d="M51.37 409.51S80 400 96.53 412m305.71 0s25.94-8.31 43.54 0m-312.33 26.85s155.28-12.31 227.71 2.37" fill="none" stroke="#636363" stroke-linecap="round" stroke-linejoin="round"/><path d="M268.69 164.67s-.19 1.71.76 1.61-.76-1.61-.76-1.61z" fill="#779623" opacity=".19"/><path d="M183.83 165.09s9.71-17.87-4.07-17.85c-7.82 0-15.82 3.44-15.82 3.44l4.7 49.34s11.9-7.67 16-10.49 13.6-16.45-.81-24.44zm-4.77-8.39a17.92 17.92 0 01-4.12 11.44l-2-15.25s6.17-3.28 6.12 3.81zm-3.15 33.78l-1-15.6c1.86-3.55 8.16-5.85 8.24 1.86s-7.24 13.74-7.24 13.74zM195 144.64l2 40.26 21.9-7.36v-3.37l-14.28 4.08.09-14.37 11.62-2.21-.09-3.9-11.71 1.77-.44-11.79 13.74-1.38-.17-3.81s-19.31.66-22.66 2.08zm25.07-2.39l9.93 34.14h6.47l4.97-20.75 5.32 20.75h8.4l6.94-34.14h-5.14l-4.62 20.88-6.47-20.88h-6.56l-4.79 18.88-7-18.88h-7.45zm56.84.44H270l-10.64 33.7H265l2-6.39h10.56l2.57 7.72h8.42zm-9.23 23.59l4.26-15 5.23 15zM315 152c0-5.94-8.51-9.42-11.61-9.42s-13.57.11-13.57.11l.89 35.56 8.07 1.5v-12.59l4.08-1.59 2.66 15.69 8.51.45-4.44-19.51S315 157.94 315 152zm-16.19 10.47v-16.35c2.25-1.91 8.82.62 8.82 5.79s-8.79 10.56-8.79 10.56zm20.82-18.88v40s8 4.16 11.47 5.29 7.86 4.6 7.86 4.6v-5.05s-6.85-5.74-10.34-6.07l-.11-16.09 9.67.69v-4.5s-6.18-1.68-9.67-1.57l-.33-12.48 10.78.68v-3.62s-3.82-3.12-19.33-1.88z" fill="#bc413a" stroke="#fff" stroke-linecap="round" stroke-linejoin="round" stroke-width="1.2"/><path d="M291.56 236.3c0-2.23-2.85-3.57-2.85-5.59s-2.67-6.54-3.92-9.12-3.79-9.09-3.79-9.09a17.6 17.6 0 002.77-10s.09 1.43 0-7.67-11.86-22-11.86-22c-.36-3.3-.89-10.52-3-10.68s-8.77 19.33-9.51 20.31-3.27.09-4.3-.74a7.52 7.52 0 00-3.43-1s-4.72-7-5.88-8.65-5.53-6.33-7.22-5.83-.18 3.78.53 5.2 1.16 7.49 1.16 7.49-7.49.9-8.83.9-5.43 2.94-5.43 2.94h-5.88c-1.51 0-5.36 4.72-6.6 5.88a2.4 2.4 0 00-.27 3c.18.5-2.86.21-5.71 0a60.15 60.15 0 00-8.11.45c-1.25.09-7-.45-7.87-.45s-3.9 3-4.26 3.75 0 1.16 0 4.55 5.8 7.84 5.8 7.84c-.27 2 5.44 8.38 8.56 11.41s5.26 1.78 4.63 1.07-2.36-6.15-2.36-6.15 5.22 6.24 6.11 5.71-3.21-8.83-.72-8.74 12.31 8.38 12.31 8.38v1.34c0 .53-5.44 5.15-5.44 5.15s-4.73-4.35-5.71-4.26-.44 5-.44 5-5.35-5.44-6-5.35 1.16 3.83 1.25 4.62-.09 1.71 0 2.33 0 5.09 0 5.09 2.77 4 4.1 4.72 5.62.36 9.1.8 8.73-1.33 11.94-1.6 10.44.53 11.15.53 2.94 3.3 2.94 3.3v12.93l-1 .27s-1 3.56.39 3.56 3.56-2.85 3.65-4.19 2-.53 2.5-.62.4-4.55.4-4.55a12.92 12.92 0 002.45-.66c.54-.3 3.22-1.92 3.22-1.92a12.39 12.39 0 001.77 1.9c.44.21 1.34-1.19 1.34-1.19s2.05 1.43 2.59 1.16-1.61-4.81-3-6.51a87.88 87.88 0 01-4.9-7.93s.4-1.72.8-.45c1.17 3.69 10.7 13 11.5 12.93s.36-2.32.36-3.21-3.39-6-4.81-8.47-3-5.26-1.25-4 6.33 10.43 6.95 10.25-2.32-7.31-1.51-7.31 4.28 7.76 6 10.79 2.67 9.54 3.66 10 1.69-1.51 1.69-2.85 1-3.39 1.69-3.39 1.52 2.76 2.32 3 1.7-1.6 2.23-1.6 1.52.8 2.41.8 1.69-3 3.92-3.48a6.92 6.92 0 003.74-2.58s-2.07-5.29-2.07-7.52zm-17.09-55.15c4 1.31 3.85 4.07 3.85 4.07a38.71 38.71 0 00-3.41-2.32 1.09 1.09 0 01-.44-1.75zm-1-1.67c0 .73-1.09-1.23-1.09-1.23 2.51-1.02 1.14.5 1.14 1.23zm-1.41 1.09c.25 0 .76 1 .76 1.6s-1.45-.07-1.52-.46c.05 0 .55-1.14.81-1.14zm-2.22-2.88s.8 10.07 0 12-.72 5.18-.94 4.24-.29-8.79-.29-10.75a23.11 23.11 0 011.28-5.49zm-1.55 24.68s.64-.08.6.41-1.11.75-.55-.41zm-.26-3.93c0-1.16-2-2.62-2-2.62s2.33-.36 2.55 1-.5 2.79-.5 1.62zm.58-30.67c.63 2.78-1.6 2.23-1.6 2.23s1.35-3.55 1.65-2.23zm-3.61 8.62c.3-4 2.66-5.26 2.66-5.26s.9 5.66 0 7.55-3.67 6.1-4.11 5.52 1.18-3.85 1.45-7.81zM261.68 197c-.65.67-2.62-3.71-2.62-3.71s3.27 3.03 2.62 3.71zm-4.08-2.88s2.21 2 2.13 2.95-2.87-3.69-2.13-2.96zm-1.51 7.73c.39 0 2.83 3.75 3.36 3.64s-2.25-3.9-.62-4.46c1.42-.49 1.78.82 1.78 1.76v3.87a3.37 3.37 0 01-2.44-1.13c-.75-1.1-2.47-3.69-2.08-3.69zm-5.56-3.27c-.08 0-3.84-3.24-3.84-3.24s2.89.68 3.84 1.86.07 1.37 0 1.37zm-2.8-17.21a1.21 1.21 0 010 .14v-.14c-.27-1.29-4.1-7.24-4.1-7.24 3.37-.32 3.98 6.03 4.1 7.23zm-1.23 17.92c-.87 1-1.53-.91-1.53-.91s2.4-.08 1.53.9zm-1.92-20.51c-.24-.83-2.15-2.38-2.15-2.38 3.09.74 2.39 3.21 2.15 2.37zm-7.05 1.35c2.08-.24 7.7 2.31 7.7 2.31-.08 1.67-5.35-1.12-7-1.28s-2.78-.79-.7-1.04zm4.83 19c-.73.86-4.15-3-4.15-3s4.87 2.17 4.15 3.03zm-3-10.47c.09.71-3.12 2.59-3.48 2.68s-1.25-2.68-1.25-2.68c-.3-.99 4.69-.66 4.78.03zm-5.62-7.55c-5.3 2.33-10 8.32-11.15 10.08s-2-.41-2-.41c2.47-5.89 13.2-9.64 13.2-9.64zm-1.46 10.76c-.07.22-2.18.22-2.25-.35s1.06-.74 1.06-.74 1.31.91 1.24 1.12zm-11.17-6.77c0 1.06-3.54 2.62-3.54 2.62.54-2.27 3.59-2.59 3.59-2.59zm-22.22 18.25c1.56 0 1.56-1 1.65-1.45s-1-2.06 0-2.68a2.52 2.52 0 012.23 0l.38 1.16h-1.45v2.05h1.45l.52.92a6 6 0 00-2.67.65c-.81.62-4.2.46-4.83 0s1.2-.64 2.77-.62zm-9.89-8.2c-.25-.4.56-1.11.56-1.11s6.28.1 6.89.35.36.76-.25.76-6.93.41-7.2 0zm6.29 4.1s-2.59-1.69-3.34-2.09 0-1 0-1 3.45 1.4 3.35 3.09zm-3.73 4.75c-.25 0-.76-1.18-.76-1.18s1.52-.08 1.52.43a.81.81 0 01-.76.75zm1.33-4.72s1.69 2.28 2.41 2.36-.32.85-.32.85-2.66-.9-2.09-3.24zm3.92 11.81c-.9 0-2.22-3-2.22-3s3.12 2.97 2.22 2.97zm-.44-4s2.44-1.52 3.49-1.52 1.73 3 1.73 3-1.68-1.86-2.61-1.53 1 1.69 0 2.36-2.61-2.3-2.61-2.3zm6.72 10.64c-.71.36-4.82-4.2-5.09-4.91s2.86-1.43 2.86-1.43 2.95 5.99 2.23 6.35zM207 215c-.72 0-4.77-7.95-4.77-9.21s2.45-1.1 2.45-1.1c-.56 2.07 2.98 10.31 2.32 10.31zm1.39-8.87c-.93.42-1.39-.9-1.39-.9 1.76-.23 2.26.51 1.34.94zm1.39-2.79s11.17.51 19 6.16 9.36 7.34 9.19 8.22-6.49-6.09-11.55-8.21-16.56-4.51-16.69-6.13zm26.81 19.36a8.32 8.32 0 00-1.87 1.52c-.42.63-1.38.36-1.38 0s2.59-2.32 2.59-2.32zm-7.59-8.12c-.09.66-2.53-1.75-2.53-1.75 1.25-1.02 2.6 1.09 2.53 1.75zm-18.38-8c1.43.25 3.54.5 3.7 1.43s-3.71-1.42-3.71-1.42zm5.23 2c-1.44-2.36 7.25.83 8 1.43s-.15 2.35-1.25 1.35-6.76-2.74-6.76-2.74zm4.85 18.5l1.16 1.25a8.06 8.06 0 002.15 0c.71-.18 0-2.1 0-2.1l1.7-.24s.71 1.27 1.29 1.09 2.73-2.86 3.71-2.86a1.82 1.82 0 010 2.42c-1 1.51-6.16 2.94-8.31 3.44a4.67 4.67 0 01-4-.76c-.4-.32 2.29-2.2 2.29-2.2zm-9-3.21c.27.26 5.27 5.45 5.27 5.45s.45 1.6-1.88.71-3.69-6.39-3.42-6.12zm-5 1.52s2.23 1.69.37 1.69c-.9.04-.4-1.65-.4-1.65zm-.15 4.91a5.49 5.49 0 001.84 0c.9-.18.54-2 .9-2a4.34 4.34 0 011.25.54l-.09 1.21 2.5-.41s.36 1.52-2.41 2.06a3.79 3.79 0 01-4.02-1.36zm43.53 9.86c-.28.4-.57.43-.83-.49-.03.04 1.09.12.8.53zm-.14-9.49s-1.77.7-2.18 1.53-2.9 1.14-2.9 1.14 0 1.76-3 2a15.51 15.51 0 01-5.28-.52 20.39 20.39 0 013.21-.58c1.76-.16 3.52-1.28 3.63-2s3.11-2 3.83-2 .83-1.34.83-1.86-2.17-1.35-1.35-1.35a22.09 22.09 0 003.73-1zm3.7 15.44c-.53.14-1.8-2-1.8-2s2.3 1.89 1.77 2.04zm.85-2.39c0 1.07-1.7-1.93-1.7-1.93s1.64.91 1.67 1.97zm-.26-26.36a2 2 0 01-1.66.65c-1.19 0-5-3-5.53-3.78s-1.2-.74-2.3-.83-3.23-2.49-3.23-2.49a11.23 11.23 0 01-.83 2.21c-.28.28 1.57 2.3 2.58 2.77s4 3.78 4 4.51.73 4.43-.28 4.43-5.46.36-5.46.36-10.4 7-20.34 8.41-13 0-13 0 14.83-.61 20.1-3.52 11.85-6.65 11.85-6.65l-.13-2.33s1.68 2.75 2.14 2.14a3.13 3.13 0 000-3.82c-1.23-1.53-15.14-14.83-18.66-15.21s-4.05-.46-6.27-1.46-6.95-1.68-7.41-1.83a21.17 21.17 0 00-3-.25c-.16.12-.29 1.11-.87.66s-1.36-3.35-2.35-3.89-2 .54-3.35.25-2.56-2.31 1.32-1.78c0 0 6.92 1.11 9.69 2.31s4.61 1.75 4.52 1.29a22.89 22.89 0 00-1.2-2.49s5.25 5 6.31 5h3.83l-1.57-2.86s4.24 2.86 4.7 2.86-1.19-2.3-.64-2.95 2.67 3.87 4.42 3.87 2.95.1 2.95.1 1.11 3.41 3.32 3.41 3.4 2.49 4.93 2.49 4.48.37 4.48-.09.27-.83-.55-3a16.11 16.11 0 01-.93-4.52s1.29 1.66 2 1.75 2 1.57.92 1.57-.09 1.84 1.57 3.13 4.15 8 4.61 8.39-.71 1.23-.71 1.23zm2.93 4.54c-.52.1-1.77-2.2-1.77-2.2 1.22-.22 2.26 2.15 1.74 2.24zm1-2.62c-.08-.43-2.06-2-2.06-2 1.9-.09 2.14 2.46 2.05 2.04zm-2.79-10.7s3.47 3.44 3.47 5c-.01.04-3.33-2.09-3.48-4.96zm3.56 1.43s-8.06-7.17-8.14-8.77.88-.29.88-.29a39.08 39.08 0 018.28 9.06zm1.85 12.55a14.73 14.73 0 00-.83-3.28s2.51 1.68 2.68 3.16-1.86 1.18-1.86.16zm2.22-32.4c-.73-.51-1.31-3.56-1.31-3.56s.58-.8 1.16-.7 2 3.75 2 5.13-1.13-.36-1.85-.87zm7.26 40.55c-.3 1.53-1.05-.86-.8-2.71s-4.13-9.44-4.13-9.44c3.67 4.04 5.22 10.62 4.92 12.15zm2.32-3.59c-.25-3.49-3.91-9.28-3.91-9.28 5.26 6.44 3.9 9.28 3.9 9.28zm8.17.14c-.42 0-.5 2.76-2 2.42s-3.71-1.35-3.88-3.54-5-9.61-4.59-10.11 4.26 6.34 4.93 7.26 2.36 2.87 2.87 2.74 1-4.09 1-4.09 1 3.53 1.26 3.53.83 1.82.4 1.79zm-1-19.59a13.37 13.37 0 00-.29-1.6c0 .37-3.23 2.55-3.23 2.55a8.26 8.26 0 00-2.07-2.62c-1.3-1-.51-1.6-.2-1.6a19.25 19.25 0 012.6 2.18s2.83-1.82 3.48-4.36-.5-12.52-.5-12.52l1.52.32c1.82 3.85 0 17.65 0 17.65zm3.47 21.93c-.88.59-1.15-2.19-.47-2.87s.42-4.13.42-4.13c1.28 2.11.95 6.4.07 7zm1.85 3.86c-.63.21-.68-.76-.68-.76.61.17 1.33.55.7.76z" fill="#fff"/></svg>