<svg xmlns="http://www.w3.org/2000/svg" width="500" height="550" viewBox="0 0 500 550"><path d="M372.14 291.55q-.27 61.74-.62 123.47c-.81 9-2.68 16.4-3.55 25.44-1 10.07 1.34 17-1.5 25.63-.59 1.77-2 1.67-3.35 1.44-44.59-7.74-101.66-5.72-146.65-2.93-24.6.58-58.62-1.67-83 2.09-5.23.6-5.68.28-6.62-4.82-1.35-11.26 1.44-20 0-30.81-6.15-46.82-.89-92.88-3.1-140-1.42 2.82-2.94 5.6-4.29 8.46-2.37 10.67-17.5 9.3-11.81 16.18 11.11 7.95 6.41 21.38 5.15 32.56-.25 3.15-1.35 6.27-.37 9.58.51 8.43-3.19 16.94-4.38 25.31-1.5 8-2.61 15.83-1.54 23.93a5.1 5.1 0 01-1.13 3.3c-5.71 6.28-7.75 14-9.19 22.06-.57 3.18-.61 3-3.74 2-12.38-3.52-26.09-4.38-38.6-1.18-1.39.34-2.11 0-2.41-1.47-2-7.76-2.18-16.67-8.49-22.43a6.66 6.66 0 01-1.33-3.22A144.46 144.46 0 0139 372.86c-1.91-63 2.6-126.93 26.19-186 13.61-35.43 24.56-73.32 48.07-103.67 27.32-18.2 60-23.76 90.46-34.78a3.16 3.16 0 012.72.43c5 5.55 11.46 8.41 18.56 9.67 19.19 2.43 41.29 5.55 58.65-4.88 2.85-1.27 4.2-6.53 7.87-5 29.12 10.49 61 14.4 87.44 31.58 15.94 14.59 21.63 38 30.45 57.21 27.81 67.48 58 137.39 51.05 212.07-1.19 18.66-.23 37.46-3.28 56-.49 4.66-5.21 7.09-5.56 11.78-1.22 5.28-2.08 10.65-2.91 16-.4 2.6-.41 2.83-3.08 2.33-12.48-2.66-25.26-5.49-37.8-1.58-8.34-.15-8.13-15.56-11.44-21.41-6.28-7.36-3.61-9-5.33-17.63-.9-9.7-4.68-20.27.79-29.26 2-3.53 1.86-7.05.51-10.66-4.9-11.29-7.4-23.42-10.45-35.29-1.07-4.31-1.31-8.5 1.61-12.34 1.49-7.15-10.43-8.7-10.93-15.93z" fill="#262521" stroke="#262521" stroke-linecap="round" stroke-linejoin="round" stroke-width="3"/><path d="M51.43 409.51S80.08 400 96.58 412M402.29 412s25.94-8.31 43.55 0M133.45 438.85s155.28-12.31 227.71 2.37" fill="none" stroke="#636363" stroke-linecap="round" stroke-linejoin="round"/><path d="M154.85 208.54v-59.91h8.26v59.91zM191 199.68v-42.19l6.55-8.86h19.29l6.55 8.86V167h-8.26v-6.45l-3.13-4.22h-9.75l-3.06 4.14v36.22l3.06 4.14H212l3.13-4.24v-6.07h8.4v9.16l-6.53 8.86h-19.43zM250.32 199.68v-42.19l6.55-8.86h19.29l6.55 8.86v42.19l-6.55 8.86h-19.29zm11.25 1.15h9.82l3.06-4.14v-36.12l-3.13-4.24h-9.75l-3.06 4.14v36.22zM310.05 208.54v-59.91h8.54L337 190v-41.37h8.12v59.91h-8.83l-18-40.65v40.65z" fill="#fff" stroke="#fff" stroke-linecap="round" stroke-linejoin="round" stroke-width="1.65"/></svg>