<svg xmlns="http://www.w3.org/2000/svg" width="500" height="550" viewBox="0 0 500 550"><path fill="none" stroke="#84837e" stroke-linecap="round" stroke-miterlimit="10" stroke-width="3" d="M371.12 496.3v7.41"/><rect x="358.83" y="494.86" width="24.57" height="15.18" rx="3" fill="none" stroke="#84837e" stroke-miterlimit="10" stroke-width="3"/><path d="M316 56.92s-22.8-23.49-42.58-23.49h-49.7c-19.78 0-48.84 25.75-48.84 25.75l30.7 29.34h85.94z" fill="#262521" stroke="#262521" stroke-linecap="round" stroke-linejoin="round" stroke-width="3"/><path d="M297 49.28s-21.71 9.9-47.18 9.9-40.17-9.9-40.17-9.9l-19.26 26.89 34.3 71L301 129.66l2.38-44.54z" fill="#e5e5e5"/><path d="M297 49.28S279.89 58 252.23 59.1s-42.59-9.82-42.59-9.82" fill="none" stroke="#262521" stroke-linecap="round" stroke-linejoin="round" stroke-width="3"/><path d="M209.64 49.28s4 48.55 43.68 46.73S297 49.28 297 49.28l73.16 29.47s-1.73 406.89-5 409.08-151.4 0-167-3.28-53.14 5-57.87 4.16-5.46-15.4-3.64-23 1.36-386.92 1.36-386.92z" fill="#fff" stroke="#262521" stroke-linecap="round" stroke-linejoin="round" stroke-width="3"/><path d="M340.43 154.25v.59h-1v-.59h-1v.5l-.18-.5h-1.19l-.21.59h-.08l-.34-.59h-3.32a3.18 3.18 0 00-1.93 0h-1.38v.59h-1.37v-.59h-1v.59h-.45v-.59h-1a2.39 2.39 0 00-.82-.14 2.72 2.72 0 00-.91.14h-1.5v.59h-.37v-.59h-1v.11a2.44 2.44 0 00-.7-.11H319a2.85 2.85 0 00-1-.15 2.76 2.76 0 00-1 .15h-1.09a3.18 3.18 0 00-1.93 0h-6.57a2.85 2.85 0 00-1-.15 2.78 2.78 0 00-.51 0 1.46 1.46 0 00-.22 0 2.11 2.11 0 00-1.46.44 1.65 1.65 0 00-.19.27v-.57h-1.05v.59h-.28c-.07-.07-.12-.16-.2-.23a2.35 2.35 0 00-1.54-.49 2.64 2.64 0 00-.81.13h-5.41v.59h-.53v1.33h-.88v-1.92h-3.73a2.85 2.85 0 00-1-.15 2.76 2.76 0 00-1 .15l-.22.11a2.24 2.24 0 00-1.08-.27 2.76 2.76 0 00-.91.14h-.8l-.16.36a2.24 2.24 0 00-1.56-.51 2.85 2.85 0 00-1 .15h-.6l.14.26a1 1 0 00-.22.18s-.09.1-.14.15h-.55v-.59h-5.69v.59h-1.26v-.59h-1v.18l-.12-.07v-.11h-.31a3.24 3.24 0 00-.73-.09 2.34 2.34 0 00-.77.13h-1.1v.59h-1v-.59h-1a3.22 3.22 0 00-.72-.09 2.68 2.68 0 00-.65.09h-1.67v.59h-1v-.05a1.54 1.54 0 00-1.3-.54h-2.67v.59h-.43a1.05 1.05 0 01-.07-.11 1.26 1.26 0 00-.47-.35 2.14 2.14 0 00-.72-.12h-2.47v.42a1.65 1.65 0 00-1.19-.42h-1.08a2.86 2.86 0 00-1-.15 2.48 2.48 0 00-1.18.26v-.11h-5.3v.73l-.25-.72h-1.19l-1.55 4.35h-3.73v-1.18l1.68-3.14h-1.16l-1 2.19-1-2.19h-1.24l1.74 3.14v1.17h-2.21v-.48a1.65 1.65 0 00-.15-.79.93.93 0 00-.49-.39 1 1 0 00.59-.49 1.53 1.53 0 00.18-.71 1.45 1.45 0 00-.34-1 1.35 1.35 0 00-.47-.35 2.27 2.27 0 00-.79-.13h-2.41v4.26h-2.14v-3.35h1.51v-.89h-4.07v.89h1.51v3.34l-47.65-.4v6.51h10.81v1.17h-10.85v6.66h42.24v1.17h-42.24v7.68h20.5v1.17h-20.5v8h42.43v1.17h-42.43v8.7h32.42v1.17h-32.42v8h40.17v1.16h-40.17V218h32.39v1.16h-32.39v7h37.45v1.16h-37.45V232h41v1.17h-41v10.75h34.13v1.17h-34.13v8h41v1.17h-41v5.64h40.17v1.17h-40.17v6.66h44.62l.33 1.17h-44.95v8.36h44.75l.33 1.17h-45.08v10.41h47l.34 1.16h-47.34v9.73h39.37v1.17h-39.37v7h39.47v1.17h-39.47v5.32h160.73v-5.32h-36v-1.17h36v-7h-36.14v-1.17h36.14V290h-37.94v-.11h-1.2l-.3-1h39.44v-10.45h-39.89v-1.11h2.44v-.06h37.45v-8.36h-35.28v-.64h2.44v-.53h32.84v-6.66h-21.2v-1.17h21.2v-5.64h-20.75v-1.17h20.75v-8h-23.13v-1.17h23.13v-10.77H306a4 4 0 00.07-.74V232h35.59v-4.62H303.6v-1.16h38.06v-7h-39.44V218h39.44v-7.35h-32v-1.16h32v-8h-34.87v-1.17h34.87v-8.7h-33.08v-1.17h33.08v-8h-33.08v-1.17h33.08v-7.68h-31.09v-1.17h31.09v-6.66h-29.29v-1.17h29.29v-5.31h3.07v-5zm3.33 3.51l-.39-.68h.39zm0-2.62v1.07h-.89l-.6-1.07zm-42.12 55.55v-1.16h.83a1.16 1.16 0 00.12.43.9.9 0 00.49.4 1.08 1.08 0 00-.47.33zm10.8 33.22v1.17h-1.89v-1.17zm4.24 16l-.05.07a1.49 1.49 0 00-.18.7 1.29 1.29 0 00.07.4h-1.08v-1.17zm-13.78 48l.67 1.17h-1v-1.17zm-1.35 1.17h-.92l-.33-1.17h1.25zm-75.05 0v-1.19h1.9v1a1.23 1.23 0 010 .19zm-2.29 0a.88.88 0 00-.08-.26.93.93 0 00-.49-.39 1 1 0 00.59-.49h1.18v1a1.23 1.23 0 000 .19zm.17-9.34h1.79l.41 1.17h-2.2zm-1 .25l-.14-.25h.14zm1.77-38.91v-1.17h1.07l.41 1.17zm-6-17.17h1.48l.41 1.17h-1.89zm-1 1.14l-.65-1.14h.65zm-1-43.55a1.28 1.28 0 00-.11-.36.94.94 0 00-.5-.4 1 1 0 00.53-.41h1.26v1.17zm2.24-.3v-.87h1.9v.87a2.51 2.51 0 010 .3h-1.86c.02-.09 0-.18 0-.3zm7.66-9.91a.89.89 0 00-.5-.4 1 1 0 00.55-.43h1.24v.89a2.46 2.46 0 000 .28h-1.2a1.13 1.13 0 00-.05-.34zm-19.46-8.85a1.89 1.89 0 01-.11-.73v-.44h1.89v.44a1.72 1.72 0 01-.11.73zm2.85-.73v-.44h1v1.17h-1.05a3.91 3.91 0 00.09-.73zm2-.44h.68l.67 1.17h-1.35zm1.63 0h.49v.86zm1.47 0h4v1.17h-4zm5.07 0h1.81a3.47 3.47 0 00.24 1.17h-2zm-6.78-15.51a3.29 3.29 0 01-.07-.57 2.64 2.64 0 01.08-.6h2.57a2.64 2.64 0 01.08.6 3.29 3.29 0 01-.07.57zm-9.21 0l-.66-1.17h.91v1.17zm-9.15 0v-.06a.92.92 0 00-.5-.39 1 1 0 00.6-.49 2.18 2.18 0 00.09-.23h1.1v1.17zm2.34 0v-1.17h1.9v1.17zm3-1.17h1v1.17h-1zm2 0h.19l.67 1.17h-.93zm3.09 0h4v1.17h-4zm5.08 0h1.85a3.73 3.73 0 00-.05.6 5.1 5.1 0 000 .57h-1.84zm6.57 0h3.88v1.17h-3.93a3.45 3.45 0 00.05-.57 3.73 3.73 0 00-.05-.6zm97.33-9.45v3.36a1.25 1.25 0 01-.85-.43 1.72 1.72 0 01-.21-.43v-1.77a1.83 1.83 0 01.21-.42 1.27 1.27 0 01.39-.31zm-2.38.07a.6.6 0 01.27.47 2.65 2.65 0 00-.11.52.41.41 0 01-.17.15 1.11 1.11 0 01-.5.08h-.1v-1.33h.35a1.05 1.05 0 01.21.11zm-10.31 26.54h-1.29l.16-.48h1zm1.16 9.88l-.41-1.17h1.62v1.17zm7.57 62.64v-1.17h1v1.17zm-4.55 6.81v-1.17 1.17zm-7.14 47.85h-1l.2-1h.45zm-23.37.15l.23-1.17h.87l.24 1a.7.7 0 010 .14zm-33.27 0a3.26 3.26 0 010-.33l.3-.84h1.91v1.17zm-13.3-40.76l-.13-.58h.57l-.14.61-.11.56h-.08zm-1.7-7.77h1.29l-.18.53h-.94zm3.62-.64v1.17h-1.48l.42-1.17zm-5.06-14.83v-1.17h.4l-.26 1.17zm1.9-12.25V232h3.06v1.17h-.28v-.33zm-5.45-32.5h.84v1.17h-.84zm6.89-9v-.89h1.9v.89a2.3 2.3 0 010 .28h-1.86a2.3 2.3 0 01-.09-.26zm-3.26-25.89v.3h-.59v-.3zm79.29 8.13a.93.93 0 010-.24.58.58 0 01.3-.57 1.26 1.26 0 01.5-.08h.27v.89zm-7 37.1l-.15-.24v-.55a3.7 3.7 0 010-.37h.24v1.16zm8.32 42.41v1.17h-4v-1.15zm1.46 0l.66 1.17h-1.14v-1.15zm-24.11 55.44h-1.09v-.63h1.09zm-48.92-7.63v-1.17h.48l-.4 1.17zm-1.78 7v.63h-.35l-.36-.63zm-.14-8.17l.14.61v.2h-1.36l.18-.81zm-4.43-99.41l-.23.69-.22-.69zm1 0h1.59v1.17h-2zm-.45-18.62v-.44h1.63v1.17h-1.51a1.69 1.69 0 01-.15-.71zm3.71-16h-1c0-.07 0-.17.08-.25h.8zm1.52-1.17l-.29.89v-.89zm70.1 7.93v-.1h.2zm-9.95 38.17l-.67-1.16h1.15v1.16zm5.41 49.9v.49h-1.09a3 3 0 00.3-1.17h.69a1.74 1.74 0 01.07.75zm-7.84 40.32v-1.17h.29v1.17zm-7.56 0h-.26v-.36h-.44a2.24 2.24 0 00.31-.81h1l.28.81h-.9zm-51.2-41l.27 1.17h-.63l.27-1.17zm3.33 0l.66 1.17h-1.4v-1.17zm-6.9-33.29h-.66v-.41h.42zm-5.59 0v-.37h.42v.37zM226 218h1v1.16h-1.29l.05-.06a2.56 2.56 0 00.24-1.1zm-.29-8.51l.67 1.16h-1v-1.16zm20.09-44.34v-.05h1.76v.26a1.22 1.22 0 01-1.74-.05s.02-.06.02-.12zm49.3-.6l.26 1.17h-.77v-1.17zm9.37 0v1.17h-.13v-1.17zm-10.81 36.95v-1.17h.84v1.17zm5.22 51.75a2.2 2.2 0 01-.23 1h-1.79a3 3 0 00.05-.54v-.63h1.95c0 .07.02.11.02.17zm-39 47a1.21 1.21 0 01-.8.42 1.42 1.42 0 01-.38-.08.73.73 0 01-.41-.64h-.54a1.36 1.36 0 01-.1-.21h2.39l.07.06a1.74 1.74 0 01-.2.45zm-25.63-31.93v-.1h.34v.11l-.11.58h-.08zm-1.63-36.2h1.4v.71h-1.4zm-4.62-5.91h.43v.41H228zm26.5-61.62a3.79 3.79 0 00.17 1.17h-.49v-.06a.6.6 0 00-.11-.12v-.5a1.09 1.09 0 00.22-.26 2.18 2.18 0 00.09-.23zm32.06 0a3.51 3.51 0 00.18 1.17h-.81v-.49a1.78 1.78 0 00-.11-.68zm13.24 0l-.41 1.16h-.16v-1.17zm1.45.87h.1v.18zm.1-.87zm-3.82 0v1.17h-.78l.27-1.17zm-.65 8l-.11-.19h.06zM282.56 290h-.06a2.76 2.76 0 00.21-1.14h1.36V290zm-20.86-.09h-1.44a1.37 1.37 0 01-.27-.22 1.72 1.72 0 01-.31-.83h2.61a1.72 1.72 0 01-.31.83 1.18 1.18 0 01-.28.21zm-17.55 10.58a.63.63 0 01-.28-.61v-.13h.81v.83h-.06a1 1 0 01-.47-.1zM236 268l.19 1H236zm2.67-23a.58.58 0 01.3-.57h.09l.26.73h-.62a.7.7 0 01-.08-.22zm-6-44v-.62h.22l-.23 1a.813.813 0 01-.04-.38zm.95-.62h.79v.29a4 4 0 00.11.88h-1.14zm2.93-18.92v.72l-.42-.72zm-1.22.25l.45.78h-.45zm6.21 8.8v1.17h-4v-1.17zm1.29-9v-.19h1.58a3.25 3.25 0 00.24 1.17h-2.06v-1zm35.74-15.78a1.19 1.19 0 01-.69-.4s0-.07-.05-.1h.74zm13.61 35.56h-1.29l.3-.91h.7zm-2.35 0h-1.11v-.95h1.45zm7.49 59.8h-1v-1.17h1.05a3.44 3.44 0 00-.06.68zm-6.08 16.54h-.67v-.35h.56zm-7.76.82a1.05 1.05 0 00.06-.24v.24zm-2.63 0s-.08-.06-.1-.1a1.78 1.78 0 01-.12-.76v-.31h1.9v.31a1.78 1.78 0 01-.12.76s-.07.06-.1.1zm-3.21-.82v-.35c-.02.11-.03.23-.05.34zm-3.15 11.9a1.69 1.69 0 01-.27-.67h.46zM241 253.15v-.05h.23l.42 1.17h-.38a2.16 2.16 0 01-.27-1.12zm3.38-62.69v.31a3.26 3.26 0 00.11.86h-1.92v-1.17zm22.52-25.09a.43.43 0 01.22.38h-.22zm4.82-.23h1.18v.62h-1.31a1.38 1.38 0 00.12-.62zm10.38 7.28a3 3 0 01.08.71 3.24 3.24 0 01-.05.46h-2.61a2.22 2.22 0 01-.06-.46 2.55 2.55 0 01.09-.71zm10.64 71.49v.1a3.54 3.54 0 00.16 1.07h-.58v-1.17zm-5.2 33.37H289l-.41 1.16h-1zm-15 1.16c-.06-.05-.12-.07-.16-.13a1.84 1.84 0 01-.34-1h1.92a2.81 2.81 0 00.27 1.13h-.05zM249.76 290h-2v-1h2zm-3 0h-1v-1.16h1zm-5.45 0l-.08-.24h.82l.07.24zm-2.71-22.27h.74l.17.52v.31h-1.19zm3-22.94l.32-.89h.51v.1a3.55 3.55 0 00.15 1.07h-1zm3.81-54a2.91 2.91 0 010-.31h2.65a2.91 2.91 0 010 .31 2.45 2.45 0 01-.15.86h-2.43a2.45 2.45 0 01-.09-.88zm10.77-.31v1.17h-2.11v-1.17zm24.36 78.45v-1.17h1.69a1.33 1.33 0 010 .21 2.48 2.48 0 01-.19 1zm-2.91 0v-1.17h.93v.21a3.59 3.59 0 00.13 1zm-35.84 20h-.84.84zm-1.21-20.68h1.95v.69h-1.7zm4.61-.48l-.41 1.17h-1.13v-1.17zm-7.6-40.37v-1.16h1.83a3 3 0 000 .31 3.74 3.74 0 00.1.85zm.5-9.33a2.45 2.45 0 00.54 1.16h-2.42V218zm45.49-36.36h.55a1.07 1.07 0 01.39.06l.36.61v.09h-1.31zm-1.5.76h-.53l-.33-.92a2 2 0 000-.25h.84zm-1.88 8.33a2.71 2.71 0 01-.14.86h-2.43a2.45 2.45 0 01-.15-.86 2.91 2.91 0 010-.31h2.64a2.91 2.91 0 01.06.28zm4.44 9.56h.06c0 .07 0 .12-.06.18zm-1 0v1a.92.92 0 01-.25.05 1.2 1.2 0 01-1-.46 1.71 1.71 0 01-.28-.64zm-2.09 1.17h-2.88v-.22h-.55v-.34h2.44v-.61h.44a2.37 2.37 0 00.55 1.14zm7 52.77a2.16 2.16 0 01-.27-1.12v-.05h1.91v1.17zm-47.15 23h1.06l.08.25v.1h-1.25zm4.77-9.53h.83l.26.83h-1.28zm-3.63-57.33h1.73a1 1 0 00-.38.28h-1.35zm2.62-10.08h1v1h-.24a1 1 0 01-.48-.09.65.65 0 01-.29-.62 1 1 0 01.04-.32zm11.41.95v-.95h1.29a1 1 0 00.25.29 1.89 1.89 0 00.47.22 1.56 1.56 0 00.22.66h-.72v-.22zm6.18-19.44a.94.94 0 01.16.6h-.67v-.75a.81.81 0 01.54.12zm1.93 9.25v-.63h3.18a1 1 0 00.26.31 3.41 3.41 0 001.1.39l.55.12a2.27 2.27 0 01.69.23.34.34 0 01.12.12h-8.34v-.54zm5.79-17.78a7.17 7.17 0 00.74.21l.3.07h-1zm7.55 59.15h-.67V232h.52zM264 260.91a1.91 1.91 0 01-.33-1h2.65a2 2 0 01-.3.94h-1v.23h-.77c-.11-.08-.19-.08-.25-.17zm-14.78 8h-.08l-.11-.59-.13-.58h.54l-.12.59zm-4.87-25h.4l-.26 1.17h-.14v-1.17zm26.93-53.12a2.36 2.36 0 00-.76-.33h3v1.17h-1.86a1.19 1.19 0 00-.38-.84zm1.42-9.52h.41l.26 1.17h-.67zm2.5 0h.41v1.17h-.67zm3.88 0h1l.07.25a1.64 1.64 0 010 .23h-1.19zm-1 0l-.34.94a2.13 2.13 0 01-.23-.94zm-1.39 1.17h-.08v-.2zm-4.94-1.17v.9a1.24 1.24 0 00-.35-.9zm0 1.17a1.79 1.79 0 000-.24zm6.8 36.21V219.2h-1.6l.63-1.16h.8a1 1 0 01.14.61zm4.06 42.43v-1.17h1v1.17zm-18.49-7.83v-.15h2.69l-.42 1.16h-2.07a2.33 2.33 0 01-.23-1.01zm-17-8.17v-.12a4 4 0 00.12-1 .31.31 0 000-.1v1.17zM241 227.17a2.41 2.41 0 01.19-1h1.92a2.61 2.61 0 010 .31 2.36 2.36 0 01-.14.85h-2c.03-.03.03-.09.03-.16zm33.61-25.89v.22H274v-.33h.11a1 1 0 01.5.11zm1 8.25v.06h-1.8v-.06zm-1.8 1.16v-.24h1.8v.24zm.3 21.88v.55h-1.81V232h1.7a1 1 0 01.12.57zm5.5 12v.52h-.49a4.37 4.37 0 00.12-.52zm4.45 9.71h-1v-1.18h.71l.33.59zm-11.82 6.35a1.26 1.26 0 000 .27h-1.77v-1h2v.71zm-23.72-27.46V232h.58a3.37 3.37 0 00.24 1.17zm18.92-32.54a2.58 2.58 0 010-.29h.41v.95h-.36a2.65 2.65 0 01-.04-.67zm6.81 25.62a.56.56 0 01-.29.56 1.15 1.15 0 01-.51.08h-.93a2 2 0 010-.36 2.61 2.61 0 010-.31h1.74zm-.54 28h-1.39v-.57h1a.8.8 0 01.59.16.72.72 0 01.15.41zm-20.05 0a2.15 2.15 0 01-.28-1.12v-.05h.3v.7H256a1.67 1.67 0 01-.2.47zm5-36.23l-.31.88h-2.4v-.9zm9.81-7.63h1v.28h-1zm1.4 17l-.2-.54v-.62h1.67v1.16zm-19-8.17V218h.48l-.23 1.16zm8.89-1.16l.37 1.16h-.88l.39-1.16zm5.57 0h.33a.8.8 0 010 .24.59.59 0 01-.29.57h-.12a1.51 1.51 0 00.1-.53 1.42 1.42 0 00-.04-.34zm1.25.8a1.49 1.49 0 00.18-.7v-.1h.48v1.16h-1a1 1 0 00.32-.38zm-1.67 14.32h-2a1.57 1.57 0 01-.15-.32l.24-.86h2.26a2 2 0 01-.35 1.16zm-11.5-6a3.69 3.69 0 01.05-.37h.74v.57h-.76c-.02-.08-.05-.14-.05-.21zm7.41-1l.1.54.13.62h-.62l.13-.62.1-.54zm2.57.41a4.45 4.45 0 00.91.29l.54.12a2.46 2.46 0 01.7.23.57.57 0 01.11.11h-2.47zm-6.08.75v-.53h.87l.15.53zm2.22 4.75l-.05.27v-.27zm1.18-.13h.46l.24 1.17h-.7zm-1.05-4.62h-.36l-.12-.53h.57v-.63h.14zm-3.52-.2a1.38 1.38 0 010 .2h-.86v-1.16h.69a2.24 2.24 0 01.15.99zm2.38 5l.3 1h-1.11v-1zm10.17.59l-.05.3-.06-.3zm-2.37-6.17a2.3 2.3 0 00-.78-.33h1.61l-.42 1.16a1.17 1.17 0 00-.43-.85zm-4.07.83h-.39l-.24-1.16h.9zm-9.85-.57v.37a1.36 1.36 0 000 .2h-.14v-.57zm4.27 6.36h-.13s.09-.1.13-.16zm9.66-1.17h.2l-.42 1.17a3 3 0 00.2-1.18zm1 .72h.33l.13.45h-.61zm1.26-5.34h-.84l.39-1.16h.26l.19.59zm-4.48-9.39a.42.42 0 01.22.38.56.56 0 01-.32.5h-.29V218zm-12.15.75l.14-.75h.08l.14.75.08.41h-.52zM253.9 232h2.1a1.51 1.51 0 01-.26.54 1.21 1.21 0 01-1 .46 1.23 1.23 0 01-.92-.4 2.91 2.91 0 00.08-.6zm5.93 12.57h.87a3 3 0 00.11.52h-1zM270 232h.14l.21 1zm-1.23-13.33V218h1.33a3.75 3.75 0 00.2.62zm2.94-8.45v-.68h.73v.68zm-1-.68zm-8 8.51v1a.78.78 0 01-.33-.21 1 1 0 01-.19-.52h-1a1.49 1.49 0 00.28.93h-.32l-.41-1.16zm-7.84 1.16h-.25l.25-.87zm-4.4 7v.37h-1.41v-.37zm1.95 5.78a2.4 2.4 0 00.26.74 1.48 1.48 0 01-.2.42h-1V232zm4.12 11.92a1 1 0 00-.56.47 2.6 2.6 0 00-.1.25 1.09 1.09 0 00-.41-.63l-.21-.09zm.31 1a.58.58 0 01.3-.57 1.29 1.29 0 01.51-.08h1.13v.79h-1.89a.7.7 0 01-.03-.11zm5.53-1h1v1.17h-1zm5.94 1.17v-1.17h1.24v1.17zm3 0v-.06h-.69v-1a2.21 2.21 0 00.84.35l.88.21a3.12 3.12 0 01.67.21.44.44 0 01.22.31zm-.32-12.87v-.22h.31v.43l-.11.59zm1.44-13.14a1.21 1.21 0 01-1-.46 1.79 1.79 0 01-.28-.57h2.55a1.45 1.45 0 01-.28.57 1.18 1.18 0 01-.96.46zm-1.36-17.57a3.48 3.48 0 00.11-.88 2.83 2.83 0 000-.29h.85v1.17zm-2.2 0v-1.17h1v1.17zm.56 8zm-2.06 0v.63h-2.33a1 1 0 00-.25-.3 2.93 2.93 0 00-.91-.33zm-13.56 9v-.5h.18zm-5.44-.52h.92l.34 1.16h-1.08a3.67 3.67 0 00-.15-1.14zm2.08 14v1.11a2 2 0 01-.33-1.11zm4.29 12.78a.44.44 0 01.22.31h-.22zm-3.25 8.33h.83v.05a3.51 3.51 0 00.17 1.12h-1zm13.9-8.5h1v.48h-1.11c.07-.14.11-.3.14-.47zm3.25 8.5l.21.67h-1.07a4.38 4.38 0 000-.52.77.77 0 000-.15zm5.56-8a1.23 1.23 0 00-.5-1.08l-.21-.09h1v.1a3.54 3.54 0 00.16 1.07zm.48-26.71l.46.83h-.92a2.31 2.31 0 00.49-.84zm-13.26-8.84a1.18 1.18 0 00.24.31 2.23 2.23 0 00.87.36l.88.21a3.12 3.12 0 01.67.21s.05 0 .08.07h-2.49a.91.91 0 00-.18-.21 3.39 3.39 0 00-1.11-.39l-.54-.12-.46-.12v-.32zm-8.22 1.16a1.36 1.36 0 000-.21 3.52 3.52 0 00-.13-.95h1.94v1.16zm-1.47-1.16v.33a3.52 3.52 0 00.09.83h-.92v-1.16zm-1.88 1.16h-.37a1.33 1.33 0 010-.21 1.86 1.86 0 010-.34h.35zm-1.43 0H248a.54.54 0 01.28-.46.65.65 0 01.21-.06 3 3 0 000 .31c-.05.07-.03.13-.03.2zm2.86 33.22v.65h2.44v.52h-.66v-.06h-1v.06h-2v-1.17zm-1.68 9.51v.85h-.14l-.19-.85zm7.53-.27h1.07l.14.52a1.53 1.53 0 00-.17.65h-1zm2.28 1.12l-.08-.47a.39.39 0 01.18-.18l-.12.66zm11.27-1.17h.58v1.17h-.58zm4.44 1.17a1.84 1.84 0 00-.05-.37 1.2 1.2 0 01.3.11.39.39 0 01.21.26zm1-1a1.8 1.8 0 00-.31-.15h.54v.42a1 1 0 00-.24-.3zm1.87-8.17h-2.22a2.25 2.25 0 01-.25-1.07v-.1h1.65v.65h1a2.14 2.14 0 01-.18.49zm-3.29-17.71l-.16-.08a1 1 0 00.6-.49c0-.05 0-.1.05-.14a2.14 2.14 0 01-.13.71zm1-9.27v-.06zM274 200.34zm-7.56 0a2.83 2.83 0 000 .29 3.53 3.53 0 000 .66h-1.23v.22h-.63v-1.17zm-2.89 0v1.17h-1.26a1.38 1.38 0 00.23-.75 1.84 1.84 0 00-.08-.42zm-15.92 9.37h.07-.07zm-1 8.34v1.16h-1.82a2.07 2.07 0 01.3-1.16zm-1.9 9.33a1.36 1.36 0 000-.2 3.54 3.54 0 00-.13-1h2.86v1.16zm2.75 4.62v1.17h-1.42V232zm.75 11.92h.77v1.17h-.79zm.29 9.51l.2.85h-.22zm1.64 7.66v-1.17h1.7a2.06 2.06 0 01.34 1.17zm2.87-1.17h.21v.25h1.82v.92h-1.82a3.44 3.44 0 00-.24-1.18zm3.67 0h1.3v.05a1.49 1.49 0 00-.18.7 1.29 1.29 0 00.07.4h-1.11zm3.52-5.64l.15-.74h.68l.13.6v.14zm2-1.17h.08l-.08.32zm5.2 6.81v.94h-.21a3.34 3.34 0 00.18-.94zm6.1 1.17V260l.78.19a3.3 3.3 0 01.67.2.44.44 0 01.24.41.49.49 0 01-.11.31zm3.87-7.61h2.18v.33H282v.47h-4.62zm3.27-8.39v-1.17h.44v1.17zm-5.46-11.92a2.63 2.63 0 010-.3v-.34a2.58 2.58 0 00-.06-.53h.76l-.41 1.17zm1-5.79a3.72 3.72 0 00.11-.85 3 3 0 000-.31h.12v1.16zm-.33-26.09a1.09 1.09 0 00-.05-.14.91.91 0 00-.49-.4 1 1 0 00.53-.41h.29v.95zm-14.74-.95l.22.09a.43.43 0 01.24.4.5.5 0 010 .13 1.43 1.43 0 00-.24-.31 2.31 2.31 0 00-.7-.31zm-.53 1.1a1.49 1.49 0 01-.55-.11.77.77 0 01-.21-.19 2.59 2.59 0 01.69.23s-.01.04.02.06zm-2.58 8.1a1.22 1.22 0 00.4.89v.27h-1.9a4.14 4.14 0 00.09-.83v-.33zm-18 9.09V218h1.72a1.59 1.59 0 01-.27.57H240zm4-.58a3.67 3.67 0 00-.18 1.16H243V218zm-.34 14a1.71 1.71 0 01-.27.54 1.21 1.21 0 01-1 .46 1.33 1.33 0 01-.54-.11V232zm1.07 0h.25v1.17h-.91a2.47 2.47 0 00.59-1.22zm.54 13.09l.27-1.17h.62v.24a2.12 2.12 0 01-.23.93zm2.91 14.83l.27 1.17h-.78v-1.17zm10.13 7.83l.24 1.17h-.92l.24-1.17zm1.13 1.17h-.08l-.12-.59-.11-.58h.56l-.14.61zm1-8.13l-.54-.12a2.46 2.46 0 01-.7-.23.45.45 0 01-.21-.34.5.5 0 01.13-.12.7.7 0 01.23-.06h1.4v1zm2.65-7.11a3.56 3.56 0 00.11.6h-.28zm5.36 6.24h.78v1.17h-.78zm16.74-5.64v-.43h1.89v.43zm-.49-9.19h-1.95v-.48h1.95zm-10.07-53.45v-1.17h1.83a3 3 0 000 .31 3.76 3.76 0 00.1.86zm-6-10.17v-.11a5.18 5.18 0 00.61.17l.55.12a2.23 2.23 0 01.69.24.41.41 0 01.22.38.53.53 0 010 .18h-2a1.52 1.52 0 01-.1-.34h-1a1.87 1.87 0 000 .34h-1.42v-1zM252.26 201v-.08h.08zm-1 .39a1.17 1.17 0 01-.89-.44 1.4 1.4 0 01-.15-.3v-.34h1zm-2.08-.46v.55h-1.08v-.6h1zm-2.56 8.58v.4h-.72v-.4zm.15 43.57h.41l-.26 1.17h-.15v-1.15zM244 278.44l-.34-1v-.21h1.94v1.17zm6.21-10.5v1H250zm1.61 1h-.08l-.12-.59-.12-.58h.5l-.14.61zm3.72-1.17l.33 1.17h-.61v-1.17zm5 .42v.75h-.21zm1 .75v-1.17h.26v1.17zm.23-7.83v-.88h.35a2.64 2.64 0 000-.29h.52a3 3 0 00.3 1.17zm7.37 6.91l.13-.25h1.66a1.36 1.36 0 000 .21 3.59 3.59 0 00.13 1h-1.9zm3 .92a2.48 2.48 0 01-.2-1v-.21h2.67a1.33 1.33 0 010 .21 2.31 2.31 0 01-.2 1zm4.54-7.83v-1.17h2.43v.25h1.54a3.24 3.24 0 00-.13.92zm8.51 7.45v-.31h1.3v.69h-1.28c-.01-.15-.02-.27-.02-.41zm.13-7.45a3.33 3.33 0 00-.13-.88h1.42v.88zm2.51-16h-.69v-1.17h.51l.18.31zm-1.67 0h-.44v-1.17h.44zm-4.67-11.92v-.77h1a.83.83 0 01.6.16.89.89 0 01.16.61zm-1 0h-.3v-.33h-.9L279 232h1.5zm-3.65-22.47v-1.16h2.11v1.16zm-2.27-37.1h-.94a1 1 0 00-.33-.43 1.61 1.61 0 00-.3-.19h1.53zm-3-1a4.22 4.22 0 01-.56-.16h.58zm-4.5-.17v.55h2.44v.62h-5.22v-.13h2.44v-.88h-2.44v-.16zm-1.86 10H264a1.72 1.72 0 00-.14-.78.61.61 0 00-.17-.19h1v-.19h.47zm-3.94 0h-.09v-.76h.09zm-2.18 0a2.47 2.47 0 00.1-.29v.29zm-1.85 0v-1h1a1.94 1.94 0 01-.33 1zm-1-1.17v1.17h-.26a2 2 0 01-.35-1.17zm5.08 9.19v1.17h-1v-1.17zm-2.08.59v.58h-2v-.58zm-3.62 10.23H254v.22h-.87a2.09 2.09 0 00.34-.56h1.19v-.61h.84zm-11.39-.95a1.45 1.45 0 00-.06.41 1.42 1.42 0 00.09.52 1.16 1.16 0 00.14.24h-.4v-1.17zm-.38 9.2zm-2.22 0v.63h-2.22v-.63zm-3.2 1.16h-.19l-.26-1.16h.45zm-1.72-1.16h.51l.27 1.16h-1zm8 44.74a3.51 3.51 0 00.17-1.12v-.05h1v1.17zm2 5.64l-.16.71h-.15v-.71zm-3.14 28.94h.43l-.3.88zm3.17-10.41v-1.17H248l.33 1.17zm2.56-.27l-.15-.8v-.1h.33v.12zm3.48-9.26l.33-1.17h1.2v1.17zm5.57 9.53v-1.17h1v1.17zm2 0v-1.17h.22v1.17zm2.57-9.53v-1.17h1v1.17zm2 0v-1.17h2.43l.47.84v.33zm11.55-.33l.11-.2v.53h-.14zm6.89-.84h.19v1.17h-.3a3.59 3.59 0 00.13-1 1.36 1.36 0 00-.08-.18zm8.61-13.47a3.51 3.51 0 00.17-1.12v-.05h.8v.63a3 3 0 00.05.54zm-3-9.86v-.5h.37v1.14zm-4.77-12.13a1 1 0 00-.36-.29h.36zm-4.88-6h-1.13 1.46a1.61 1.61 0 01-.41-.05zm.49-7A2.07 2.07 0 01280 218h.72v1.16zm.25-8.51v-1.16h.66a3.52 3.52 0 00-.13.95v.21zm1.15-19.06a3.76 3.76 0 00.1-.86 3 3 0 000-.31h.85v1.17zm3.94-19.21h1.28a2.68 2.68 0 01-.05.42h-1.23zm-7.38 0v1.17h-1.17v-1.17zm-23.19 8.85a3.25 3.25 0 00.23 1.17h-.68v-1.17zm-14.9 50.89V232h.32a2.3 2.3 0 00.57 1.17h-1.18v-.33h-2.26v-.67zm3.67 20.94l-.39 1.17h-.22l-.37-1.17zm2 6.81v.68a.59.59 0 01-.34-.13.94.94 0 01-.16-.55zm-.58 29.81v.19h-.1zm5.15-11.28l.24-1.17h.64l.24 1.17zm6-1.17h.36v1.17h-.68zm5.68 1.17v-1.17h1.94v1.17zm7.48-1.17h1.54l.2.37v.8h-1.94v-.8zm19.11-8.36v-1.17h1l-.42 1.17zm2.06-1.17h.75l.16.52v.31h-1.18zm-2-6.66V260h1.57v1.17zm5.81-6.81a2.68 2.68 0 01-.05-.54v-.63h1.17a.77.77 0 000 .15 3.53 3.53 0 00.15 1zm-2.77-9.19h-1V244h1zm-6.06-11.92V232h.34v1.17zm-4.25-5.79a1.16 1.16 0 00-.11-.33 1 1 0 00-.49-.4 1.09 1.09 0 00.55-.43h1.26v1.16zm.85-8.45V218h.38a1.9 1.9 0 01.26.88zm-.19-8.23v-.21a2.36 2.36 0 01.19-.95h2.09v.33a3.5 3.5 0 00.1.83zm4.53-9.41v.22H286l-.24-1v-.14h.73l-.22.95zm-3-9.65v-.31h1a.85.85 0 01.6.16.42.42 0 01.07.15zm1.13-1.14h-1.13 1.44a1.42 1.42 0 01-.4-.09zm1.46-9a1 1 0 00-.35-.25h.35zm-1.62-9.1v1.17h-.12a2.13 2.13 0 01-.3-1.17zm-21.83.55a3.12 3.12 0 01.67.21.42.42 0 01.24.4h-.94V173zm-5.08-.55v1.17h-1.09v-1.17zm-4.23 8.79v1.17h-.32v-1.17zm0 9.19v1.17h-3.94a3.74 3.74 0 00.11-.86 3 3 0 000-.31zm-6.49-9.19a4.54 4.54 0 00.82.25l.54.12.18.05a1.74 1.74 0 01-.3.75h-1a1.53 1.53 0 01-.09-.34h-1v.1a2.27 2.27 0 01-.23-.93zM242 200.33v.95h-2.65v.22h-.32a4 4 0 00.11-.88v-.29zm-4 0a1.89 1.89 0 01-.12 1.17h-1.38v-1.17zm-3.6 9.23zm-1 0h.23l.27 1.16h-.77zm6.6 34.73h.52v.56l-.08.23h-.19zm2.53 15.62h.09l-.09.28zm1.18 0a1.7 1.7 0 00.14.74.94.94 0 00.5.4h-1.07l.41-1.17zm-4.25 17.36l.11.35h-.67v-.35zm.73 12.74h-.11l.06-.18zm12.88-12.74h.64l.24 1.17h-1.12zm5.26 11.58V290h-.6v-1.16zm6.15-10.41v-1.17h3l.2.37v.8zm26.3-17.36v-1.17h1.38v1.17zm3.85-1.17a3 3 0 00.3 1.17h-.33l-.67-1.17zm-.63-14.83a2.25 2.25 0 01-.25-1.07v-.1h.41v1.17zm-7.48-11.92v-1h.85a2.24 2.24 0 00.53 1zm3.13-.17a1.22 1.22 0 01-1-.46 1.84 1.84 0 01-.19-.37h.54V232h1.95a1.71 1.71 0 01-.27.54 1.21 1.21 0 01-1.01.46zm-6.51-5.62v-.53h.43l.29.53zm1.5-.53zm-.36-7.92h-.82a3.36 3.36 0 00-.16-.88h1zm1-8.23v-.21a4 4 0 00-.13-.95h1.93v1.16zm1.9-10.36h.31v.95H287zm-1.32-8.7a.91.91 0 00-.11-.34.87.87 0 00-.49-.4 1 1 0 00.55-.43h1.26v1.17zm.76-9.19v-1.17h.45v1.17zm2.45-8.85h-1.38a.89.89 0 00-.42-.33 1 1 0 00.58-.48 1.58 1.58 0 00.13-.34h1.09zm-14.49-7.83v-.32l.18.32zm-8.7 0h-.5l.17-.77.33.08zm-4.76 7.67h-1a1 1 0 000 .16h-1v-.18h1.95zm-9.52 7.84v1.17h-1.86a1.15 1.15 0 000-.26 1.26 1.26 0 00-.36-.91zm-10.14 1.17h-1.15v-1h1.15zm-6 17.89v1.03l-.12-.55a1.25 1.25 0 010-.19 2.54 2.54 0 010-.29zM228.34 218h.7l.67 1.16h-1.37zm1.65 0h.15v.26zm-.41-7.35l.35-1 .35 1zm5.25 7.35a2.07 2.07 0 01.3 1.16h-2.72a2.07 2.07 0 01.3-1.16zm-2.18 9.33v-1.16h3.22v1.16zM240 253.1v.05a3.25 3.25 0 00.18 1.12h-.35v-1.17zm-.49 35.75L239 290h-.5l.33-1.16zm2.39 10.89l-.07.22v-.22zm9.37-10.89h.23l-.11.61zm12.46 0h1.21l-.56 1h-.65zm2.24 0h.15l.55 1.16h-.43v-.11h-.75zm1.87 1.16l-.64-1.16h2.73V290zm3.69-1.16h1V290h-1zm2 1.13zm1.81 0l.27-1.16h.69l.16.76a1.16 1.16 0 01-.77.4zm.11-11.61a3.18 3.18 0 00.27-1.13h.82v.32a3.08 3.08 0 00.11.85h-1.16a.08.08 0 01-.06-.01zm3 0a3 3 0 00.29-1.17h.79v.31a1.78 1.78 0 01-.12.76s-.07.06-.09.1zm6.13 0v-1.16h2v1.16zm8.21 11.63v-.24h.84l.08.24zm.39-28.93v-.91l.52.91zm3.31-17.07v.37a1.49 1.49 0 00-.17.63.16.16 0 000 .07h-1v-1.17h1.22l-.05.1zm-5.06-10.85A2.47 2.47 0 00292 232h.9a2.38 2.38 0 00.23 1.06.87.87 0 00.09.11zm-1.78-5.79v-1.16h.35l.26 1.16zm-1-1.16v1.16h-.35v-.2a2.41 2.41 0 01.19-1zm-1.4 1.16h-1.85l.62-1.16h1.37a3.54 3.54 0 00-.13 1 1.36 1.36 0 00.02.17zm0-8.17h-1.89V218h1.89zm.87-27.57v-.54h2.44v-.63h3.08v1.17zm0-9.19v-1h2.44v-.19h3.08v1.17zm2.13-8.85v-.13h2.3v-.88h-2.3v-.16h4v1.17zm-5.73-9a.6.6 0 01.18.09 1 1 0 01.16.64v.44h-1.8v-1.17zm-9 .79l-.45-.79h.45zm-5.39-.79l.31 1a.62.62 0 01-.17.11 1.67 1.67 0 01-.49.08h-.52l.37-1.12zm-1.64.35h-.61a1.12 1.12 0 00-.3-.35h1zm-5.48.65v-1h.24l.22 1zm-2.5 6.83l.22.12h-1.53v-.12zm-3.3-6.66v-.25h.88a1.92 1.92 0 01-.12.25zm1.05-1.12h-1.05 1.06s-.01-.01-.01.01zm-4 7.78a2.22 2.22 0 01-.3 1.17h-2.13a2.13 2.13 0 01-.3-1.17zm-5.63 1.17h-1.22a3.24 3.24 0 01-.05-.46 2.68 2.68 0 01.05-.42h1.22zm-2.43-1.17a.94.94 0 00-.37.37 1.49 1.49 0 00-.18.7v.1h-1.05v-1.17zm-6.91 10h-1v-1.17h1zm-2.2-8.85H237l-.14-.65.26.45zm-1.73-1.17v1.17h-.34l.27-1.17zm-1 .83v-.83h.19zm2.1 17.21v1.17h-.08l-.67-1.17zm-5.34 19.07v.72l-.23-.72zm-2.61 1.16h-.08v-.83h.36zm2.57 7.35h.42a3.67 3.67 0 00-.18 1.16h-.24zm4 14h.77v1.17h-.71v-.33h-.06zm3.21 11.92a1 1 0 00-.56.47 1.49 1.49 0 00-.18.7h-.19v-1.17zm.48 9.19v1.17l-.67-1.17zm-1.64 0l.67 1.17h-.9v-1.19zm3.78 6.81l.33.94h-1.95v-.94zm-3.78 8.44l-.12.56H237l-.11-.59-.12-.58h.57zm-.13 10.07h-1v-1.16h1.45zm5.85 21.35a1.66 1.66 0 000 .22 1.25 1.25 0 00.1.53 2 2 0 00.21.37h-.68zm2.9.78v-.83h.06v.83zm5.57-.83a1.88 1.88 0 01-.26.51 1.23 1.23 0 01-1 .46 1.21 1.21 0 01-1-.46 1.62 1.62 0 01-.25-.51zm.91-10.89h.77l.24 1.16H252zm2.59 1.16v-.71l.13-.45h1.41V290zm25.05-1.16h1.78a1.78 1.78 0 01-.12.76.75.75 0 01-.67.39h-.31a1.06 1.06 0 01-.37-.07zm5.79 1.14h-.53v-1.14h.53zm3-1.14v.66l-.22-.66zm3.1 1.16h-.05l.05-.14zm3-.22l-.29-.83h.29zM293 277.27h.61l.12.35h-.85zm-.63-8.36l-.24-.69h1.48l.23.69zm2.74-1.17h.21l-.21.72zm4.12-22.66h-1.87a2.77 2.77 0 00.12-.6 1.31 1.31 0 01.12-.11 1.26 1.26 0 01.5-.08h1.13zM291 227.17a1.38 1.38 0 010 .2l-.27-1.16h.12a2.24 2.24 0 01.15.96zm4.53-26.84h.21v.38zm-.93-8.7v-1.17h.31l.26 1.17zm0-9.19v-1.17h.4l.27 1.17zm.62-8.85v-1.17h.39v1.17zm7.08-7.83v-.3h.09l.09.3zm-6.24-.34l-.19-.83h.38zm-6 .17h-2v-1h2.2a2.28 2.28 0 01-.14 1zm-8.45.17h-1a2.68 2.68 0 00.48-1.17h.48zm-1.85-.48a1.21 1.21 0 01-.26.2v-.89h.55a1.73 1.73 0 01-.23.69zm-14.93-.48l-.18.79h-.48l-.23-1h.49a1.66 1.66 0 00.46.21zm-5.76 1v-.12.12zm-6.49-.89h-1.18 1.18zm-1.18.87zm-1.35 7.39a2.22 2.22 0 01-.06.46h-.36v-1.17h.37a2.55 2.55 0 01.11.67zm-11.93.46l-.09-.15v-1h.4v1.17zm0-7.83v-.06h.12zm-6.47 6.66h1.51v1.17h-1.8v-.37zm.62 10a3.14 3.14 0 00.07-.72v-.45h1v1.17zm2.46 8l.67 1.17h-1.09v-1.17zm-3.28 35.75v1.16h-.08l-.67-1.16zm6.81 34.44l-.42-.74h.42zm-5 7.57l.19.69H233v-.69zm7.17 31.52l.29.81h-1.52l-.27-.81zm6.36 0h.87v1.17h-.87zm8.89.81v-.81h.89a2.4 2.4 0 00.58 1.17h-.34v-.36zm10.9-.81v.81h-.9l-.45-.81zm1 0h.73v1.17h-.73zm2.08 0h.68v1.17h-.68zm3.73 0h.83l.17.81h-1.13v.36h-.14zm9.92 0a1.62 1.62 0 01-.25.51s-.05 0-.06.05v-.56zm3.32-9.73v-1.16h.71l.41 1.16zm3-.22l.34-.94h1l-.42 1.16h-.93zm4.81 9.95v.26l-.14-.25zm1.29-9.73v-1.16h.1l.39 1.16zm.13-21.1l.39-1.17h.45l-.42 1.17zm1.59-.34l.24-.74v.74zm2.27-14.3a3.54 3.54 0 00.14-1v-.15h1.82v1.17zM294.9 233a1 1 0 01-.57-.15v-.36l.25-.48h1.25a1.4 1.4 0 01-.11.57.8.8 0 01-.82.42zm-2.34-6.77v1.16h-.5a1.36 1.36 0 000-.2v-.15l.18-.81zm-4.23-7V218h.48l.26 1.16zm1.24-1.16h.33l-.16.71zm-1-7.35a3.5 3.5 0 00.1-.83v-.33h1.83v1.16zm3 0v-1.16h.71v1.16zm6-9.19l-.67-1.17h.73v1.17zm-1.57-9.9l-.27-1.17h.81l-.27 1.17zm.1-9.19l-.27-1.17h.6l-.26 1.17zm2.29-10h.23l-.23 1zm7.14-6.66v-1.17h.79v1.17zm-2.17-.87l-.11-.3h.11zm-10.14.87h-2a3.78 3.78 0 00.18-1.17h1.8zm-32.06 0h-.92v-1.17h.92zm-20 6.66v.56h2.31v.62h-4v-1.17zm-2.64-7.64l-.34-.07v-.12h.38zm-3.25 1l.28-.77.44.77zm-4.06-1.12h.12zm-2.61 1.12v-.08zm1.2 6.66h.56v1l-.06.19h-.13zm2.6 18h1v1.17h-1a2.4 2.4 0 000-.28zm-7.55 28.18a.8.8 0 01-.79.42v-1h.94a1.65 1.65 0 01-.14.58zm-1.92 7.57h.46v.37h-.46zm3 1.16v-1.16h.43v.89a2 2 0 010 .27zm4.5 0v-.08l.05.08zm4.73 17.19l.29.52h-1.17v-.52zm-.12 16.52h-.4l-.26-1.17h.66zm-2.51 0h-.4v-1.17h.66zm-.63 6.66v1.17h-1.6l.32-1.17zm1.58 9.54h1.41v1.16h-1.73zm3.57 11.57V290h-.52v-1.16zm-.35 10.89h1.22l.23.81h-.07v.36h-1.71zm16 0h1.53v.81h-1.5v.36zm8.47.12v-.12h1.41l-.62 1.17h-1.11a1.46 1.46 0 00.32-.89c.07-.02.04-.1.04-.16zm2.5-.12h.45l.39.81H264v.36h-.78zm7.73 0h.23v1.17h-.23zm3.83 8.17l-.08.41-.07-.41zm1.79-7.36h-1.14l.16-.81h.79zm1.14-11.7h.48a2.61 2.61 0 00.21 1.14H278zm3.8 10.89v.81h-.49a1.2 1.2 0 01-.38-.3 1.62 1.62 0 01-.25-.51zm9.41 0v1.17h-.69v-1.17zm2.31.54l.35.63h-.35zm2.09-.54h.66v1.17h-.93zm2-9.73l.4-1.16h.42l.25 1.16zm1.64-1.16h.33l-.16.91zm-2.53.23l-.07-.23h.19zm-1.78-11.81h.06v.1zm3.64-8.7v-.06.06zm2.49-8.29v-.37zm4-.37v.71h-1a.8.8 0 01-.59-.16.87.87 0 01-.16-.55zm-8.72-26.75l.07-.08v.08zm-1.82-5.79H294v-1.16h1.21zm-4.38-8.17l.27-1.16h.54v1.16zm2.81-9.67l.66 1.16h-.69zm3.78-17.9l.27-1.17h.3v1.17zm-.1-9.19l.27-1.17h.4v1.17zm2.45-10v1.17h-.29zm1.19 1.17v-1.17h1.77l-.42 1.17zm2.87 0v-1.17h.33l.37 1.17zm-50.15-15.76a1.08 1.08 0 01-.12.24 1 1 0 01-.37.29v-1.3h.49zm-8.82 6.76a2.49 2.49 0 00.44 1.12H243v-1.17zm-3.3 0v1.17H241l-.27-1.17zm-.86 1.17H240a1.15 1.15 0 00-.36-.55 1.89 1.89 0 00-.45-.23l.09-.39h.72zm-7.49-1.12h-.35.32zm-8.21 0v1.17h-.15v-1.17zm2.7 7.83h1a.51.51 0 01-.25.35 1.26 1.26 0 01-.5.08h-.27zm1.34.83a1.13 1.13 0 00.48-.32l.19.56H229a.87.87 0 00-.42-.31zm-4.19 9.19v-.76h1a.85.85 0 01.6.16.54.54 0 01.05.11 1.71 1.71 0 01-.23.49zm2.84 0a2.11 2.11 0 00-.07-.55 3.78 3.78 0 00.07-.61h1.15v.45a3.88 3.88 0 00.06.72zm.58 19.06h-.35v-1zm-3.14-.79l-.22-.38h.22zm-2.4 18.43v.06h-.46v-.54h-1a1.77 1.77 0 00-.08-.57H222a2.56 2.56 0 00.27.98zm-2.85-1.1h.25a1 1 0 01.15.61h-.4zm9.64 25.8v1.17h-.14l-.26-1.17zm1 1.17v-1.17h3.08v.65h.24v.52zm5.7 8v1.17h-3v-1.15zm-4.94 24.17h.64l.24 1.17h-1.12zm4.76 11.65v1.1h-.4v-1.07zm-4 10.82l-.18.81v-.32-.49zm.25 8.17l.37.63h-.74v-.63zm26.5 0v.61a1 1 0 01-.36-.29 1.2 1.2 0 01-.16-.32zm10.08 0v.48l-.05-.06a2.38 2.38 0 00-.87-.37h-.23zm9.85-7l-.33-1.17h1.91a2.4 2.4 0 00.58 1.17zm1.91 7h1.66a1.11 1.11 0 01-.5.08h-1.13zm5 .72h.59l.16.45h-.75zm3.73-7.72v-.36h-1.35l.3-.81h1.83v1.17zm8.64-.63v-.54h.12l-.11.59zm-1.79-21.84l.4-1.17h.47l.4 1.17zm2-1.17v.53l-.15-.53zm2.24-8.36l-.22-.64h1.45v-.1l.25.74zm2.34-7.83v-1.17h.12a1.56 1.56 0 00.14.74 1 1 0 00.49.4h-.05zm7.11-1.17v.74l-.43-.74zm.45-6.81v1.17l-.67-1.17zm-4.5-8v-1.17h.51l.67 1.17zm-1 0h-4v-1.17h4zm-4.62-11.92h-2a2 2 0 01-.35-1.16h2.69a2 2 0 01-.35 1.16zm-2.89-6v-.78l.25.78zm-2.84-7.94l.14-.41h1.85l.13.41zm-1.08 0h-.83V218h1.25zm3.49-9.67h.38l.41.71v.45h-.79zm3.1 0h.63V210.71h-.65zm-1.07-17.9v-1.17h1.62l-.41 1.17zm3.63-.24h-1.29l.31-.93h.68zm-3.63-8.95v-1.17H300l-.42 1.17zm-45.41-27a1.08 1.08 0 01.12.24v.54h-.49v-1.08a1.19 1.19 0 01.46.29zm-2.88 9.14a.9.9 0 00-.38.37 1.49 1.49 0 00-.18.7.36.36 0 000 .1h-.11a5.1 5.1 0 000-.57 5.49 5.49 0 000-.6zm-23.07 0zm-1.3 0zm-3.42 0h.93v1.17h-.93zm4 35.74v1.17h-.06l-.67-1.17zm-2.29 9.2v1.16h-.48l-.67-1.16zM218 218h.37v1.16H218zm3.87 8.45v.31a1.08 1.08 0 00-.28-.16 1.25 1.25 0 00.31-.11zM227 232v1.17h-1V232zm-1.85 11.92v1.17h-1.9l.42-1.17zm-3.46 0h1l-.39 1.17h-.3zm5.57 0h.62l.27 1.17H227zm3.2 9.56v-.37h1.16v1.17H228v-.8zm-2.14 14.27l.24 1.17h-.92l.24-1.17zm3.37 21.11l-.12.61-.12-.61zm.91 0h.49v.07h1V290H232.27zm-2.21 12.06h-2.22l.42-1.17h1.8zm-2.81-1.17l-.18.56-.18-.56zm1.89 9.15v-1h1v1.17h-1c-.03-.07-.02-.07-.02-.18zm5.07-1h1.13l-.4 1.17h-.73zm2.14 0H238l.33 1.17h-2zm2.93 0h.93l.42 1.17h-1.35zm6.59 0h1.51v1.17h-1.56a3.71 3.71 0 00.08-.77c-.02-.13-.04-.3-.05-.39zm2.56 0H250v1.17h-1.3zm2.36 0h.58v1.17h-.58zm1.64 0h.47v1.17h-.47zm1.51.67h.39v.5h-.39zm1.46 0h.49v.5h-.49zm1.54.39l.1.08h-.12zm3.22.11l.09-.08a2.24 2.24 0 00.32-.37h.87v-.72h.8l-.62 1.17zm3.15-1.17h.62l.56 1.17h-1.71zm2.39 1.17l-.3-.55a4.43 4.43 0 00.59.16l.54.12a2.42 2.42 0 01.7.24zm3.41-1.17h1v1.17h-1zm2.23 0h.77l-.33 1.17h-.44zm1.76 0h.08v.4a3.71 3.71 0 00.08.77h-.4zm4.82 1a4.08 4.08 0 000-.61v-.4h.85v1.17h-.83zm1.9-.07h.37v.23h-.37zm7.39-.22h.09v-.26l.17-.46h1.9v1.17h-2.32zm4.15-.72h.31l.26 1.17h-.55zm2.62 0h.29v.71l-.13.46H294zm1.26.92l.22-.92h.91l.19.95-.08.22h-1.24zm3.89-7.92h-1.26l.23-1.17h.8l.21.92zm3-32l-.34-1.17h.87l-.33 1.17zm4.91-9h.74l.67 1.17h-1.41zm3.1 0h1v1.17h-1zm2.06 0h1.89v1.17h-1.89zm.45-5.64v-1.15h1.9v1.17zm-3.45-9.19h-1v-1.17h1zm-2 0l-.66-1.14h.66zm-6.53-11.9a3 3 0 00.24-1.17h.76v.43a3.26 3.26 0 00.07.74zm-.47-5.79v-1.16h.42l.67 1.16zm-1 0h-1.21l-.41-1.16h1.62zm-2.22-8.17l-.41-1.2h1.25v1.16zm8-9.67v.4h-.69v-.4zm1 .25v-.08h.06zm-7.51-8.28v-1.17h1.9v1.17zm6.68-9.87v-1.17h.42l.67 1.17zm-2-9.19l-.42-1.17h1.47v1.17zM307.6 165l-.21-.38h.21zm4.24-7.66a.8.8 0 01.59.16.94.94 0 01.17.64v.46a2 2 0 000 .42h-.81zm29.82-1.56l.26.46h-.26zM294.28 157v1.4a1 1 0 01-.41.09 1.09 1.09 0 01-.47-.1V157zm-42.55-2v3.38a1.2 1.2 0 01-.61-.38 2.5 2.5 0 010-2.62 1.2 1.2 0 01.61-.31zm-1.63.07a3 3 0 00-.39 1.62 2.79 2.79 0 00.62 1.9h-.91v-3.51zm-3.43 0h1.7v1.16h-1.7zm0 2h1.7v1.47h-1.44l-.26-.71zm-1.9-1.77l.64 2h-1.29zm-.94 2.84h1.8v.38h-1.92zm-11-3.12H234a1 1 0 01.48.09.63.63 0 01.29.62.55.55 0 01-.3.56 1.11 1.11 0 01-.5.08h-1.17zm0 2.19h1a.81.81 0 01.6.16.94.94 0 01.17.64v.42h-1.79zm-38.17 7.28a.47.47 0 01-.23.23 1.11 1.11 0 01-.5.08h-1.13v-.31zm-1.86 1.15h1.19-1.21zm31.37 6.68h.57l.64 1.12v.05h-1.21zm-17.69 8.85v.44a3.91 3.91 0 00.06.73h-1.24a1.6 1.6 0 00-.14-.78.93.93 0 00-.46-.38zm-4 .41h1a.83.83 0 01.6.16.94.94 0 01.16.6h-1.78zm23.36 8.78a1.39 1.39 0 01-.3 0h-1.13zm-1.43.86h1a.85.85 0 01.6.16.68.68 0 01.08.15h-1.7zm-8.85 9zm-1.16.84h1a.85.85 0 01.6.16.68.68 0 01.09.17h-1.71zm7.69 8.36l.66 1.16h-.69zm-5.77 8.58v.58h-2V218zm4.55 8.17a1.55 1.55 0 01-.33 0h-1.13zm-1.46.86h1a.8.8 0 01.59.16s.05.09.08.14h-1.7zm3.53 4.92h1.95v1.17h-1.95zM216 243.91h.51l.66 1.17H216zm11 9.19v1.17h-1v-1.17zm-4 .32h1.95v.85H223zm1.25 6.49v1.17h-.65l-.67-1.17zm-2.12.26l.52.91h-.52zm4.6 8.15l-.13-.58h.54l-.12.59-.1.58h-.08zm.32 8.95v.12l-.14.78-.15-.8v-.1zm.77 0h.64l.24 1.17h-1.12zm1.33 11.58l-.11.61-.11-.61zm.77 0h.76l.24 1.16h-1.24zm-8.58 10.89h1l.67 1.17h-1.69zm1.82 8.17a1.11 1.11 0 01-.5.08h-1.13v-.11zm-1.67.94h1a.86.86 0 01.6.16v.07h-1.65zm83.21.23h-.12l-.67-1.17h.79zm-4.06-8.17l-.07-.27v-.9h1a1.26 1.26 0 000 .27 1.44 1.44 0 00.09.53 2 2 0 00.22.37zm3.92-.34h-1.16a1 1 0 01-.49-.09.63.63 0 01-.29-.61.5.5 0 010-.13h1.91zm-3-10.67h-.52v-1h.28zm-2.68-11.46v-.09l.35-1h1.62v1.11zm6.57-9.53h-1.83l.39-1.17h1.44zm14.08-7.83h-1.71a.66.66 0 01-.22-.54.58.58 0 01.3-.57.64.64 0 01.22-.06h1.41zm-1.53-6.81v-.09a.55.55 0 01.3-.56 1.11 1.11 0 01.51-.09h1.13v.74zm-.29-1.14a1 1 0 00-.6.49 1.53 1.53 0 00-.17.65h-1v-1.17h1.72zm-2.08-8a.7.7 0 010-.14.58.58 0 01.3-.57 1.26 1.26 0 01.5-.08h1.13v.79zm-.9-.7a1.49 1.49 0 00-.18.7h-1v-1.17h1.75a1 1 0 00-.6.42zm-9.7-12a1.71 1.71 0 01-.12.74h-1.66a1.71 1.71 0 01-.12-.74V232H305zm-2.37-5h-.09l-.66-1.16h.75zm-3.5-8.17V218h1l.67 1.16zm2.12-.9l-.16-.26h.16zm5.43-7.61a.52.52 0 01.28-.46 1.09 1.09 0 01.5-.09h1.13v.55zm-4.9-9.19v-1.17h1.07a1.47 1.47 0 00-.07.41 1.24 1.24 0 00.1.52 1.16 1.16 0 00.14.24zm4-.2h-1.16a1 1 0 01-.49-.09.64.64 0 01-.28-.62.71.71 0 01.05-.26h1.88zm1.83-9.67h-.08l-.66-1.17h.74zm-2.11-9.19v-1.17h.67l.67 1.17zm2.11-.31l-.49-.86h.49zm2-8.54h-.31l-.66-1.17h1zm-.14-7.83a.93.93 0 010-.24.58.58 0 01.3-.57 1.26 1.26 0 01.5-.08h1.13v.89zm-.87-.85v-.32h.33a.92.92 0 00-.38.26zm33.08-6.54v-1.29h.76l.75 1.29z" fill="#262521"/><path d="M235 185.94c0-23.16-20.87-131.56-25.88-137.11a3.16 3.16 0 00-2.72-.43C176 59.42 143.31 65 116 83.18c-23.5 30.35-34.46 68.24-48.06 103.67-23.59 59.08-28.11 123-26.19 186-.36 11.18.74 97.95 2.77 105.72.3 1.47 62.69 2.66 63.26-.52 1.45-8 2.86-179.6 5.23-190.27 1.35-2.86 13.78-67 15.19-69.81 2.21 47.15-8.87 215.89-1.17 247.91.5 2.06 19 4.34 69 4C199.34 442.16 235 209.11 235 185.94z" fill="#262521" stroke="#262521" stroke-linecap="round" stroke-linejoin="round" stroke-width="3"/><path d="M218.27 315.82c8.78-61 16.77-118.92 16.77-129.88 0-6.33-1.55-19-3.92-34.24" fill="none" stroke="#636363" stroke-linecap="round" stroke-linejoin="round"/><path d="M285.07 466.15c0 .5.05 1 .08 1.49l.6 10.55a1.18 1.18 0 00.05.31.8.8 0 00.07.2.14.14 0 000 .06 1.74 1.74 0 00.11.18l.06.1a1.33 1.33 0 001.19.56l4.35-.49a1.54 1.54 0 001.4-1.93c-.09-.49-.17-1-.26-1.47q-.88-5.21-1.78-10.41a1.52 1.52 0 00-1.49-1.08l-3 .34a1.53 1.53 0 00-1.38 1.59zm2.85 6.58l1.49-.2a1 1 0 011.12.86l.37 2.75a1 1 0 01-.87 1.12l-1.49.2a1 1 0 01-1.12-.86l-.36-2.75a1 1 0 01.86-1.12z" fill="#84837e"/><path d="M457.13 336.13c-2.15-75.82-17.9-126.54-45.71-194-8.83-19.22-14.51-42.62-30.46-57.2-26.38-17.18-57.48-25.13-86.6-35.62-3.68-1.54-22.71 114.63-22.71 140.78s16.23 257.08 21.09 281.49c38.05-.76 85.61-1.68 85.78-2.28 6.89-23.52-11.52-249.35-11.38-249.38.51 7.25 17.36 62 19.83 69 2.65 7.45 8.93 187.71 11.53 191.53 3.78 5.55 60 6 60 .13.03-5.46-.85-125.76-1.37-144.45z" fill="#262521" stroke="#262521" stroke-linecap="round" stroke-linejoin="round" stroke-width="3"/><path d="M275.43 151.06c-2.26 17.06-3.78 31.62-3.78 39 0 8.89 1.87 41.4 4.54 81.42M173.11 61s-20.53 28.45-26.8 37.22c-4.58 6.42 44.51 12.37 72.22 42.39" fill="none" stroke="#636363" stroke-linecap="round" stroke-linejoin="round"/><path d="M201.89 206.26v.5" fill="none" stroke="#8e8e8e" stroke-linecap="round" stroke-linejoin="round" stroke-width="2"/><path d="M202 209.78c1.65 95.24-6.41 237.74-7.48 256.23" fill="none" stroke="#8e8e8e" stroke-linecap="round" stroke-linejoin="round" stroke-width="2" stroke-dasharray="1.01 3.02"/><path d="M194.39 467.52v.49M191.72 124.84c.11.11.22.24.33.37" fill="none" stroke="#8e8e8e" stroke-linecap="round" stroke-linejoin="round" stroke-width="2"/><path d="M193.61 127.69c2.06 4.24 3.68 11.62 4.93 21.42" fill="none" stroke="#8e8e8e" stroke-linecap="round" stroke-linejoin="round" stroke-width="2" stroke-dasharray="0.98 2.94"/><path d="M198.72 150.58l.06.5" fill="none" stroke="#8e8e8e" stroke-linecap="round" stroke-linejoin="round" stroke-width="2"/><path d="M128.18 218c15.19-69.82-7.73-129.46-7.73-129.46M316 58.06s38.52 39.58 38.9 46.75c0 0-53.54 35.44-54.16 42.32" fill="none" stroke="#636363" stroke-linecap="round" stroke-linejoin="round"/><path d="M331.86 164.72s-40.52 32.95-54.15 111c0 0 5.13 74.57 15.75 191.12" fill="none" stroke="#8e8e8e" stroke-linecap="round" stroke-linejoin="round" stroke-width="2" stroke-dasharray="1 3"/><path d="M378.36 85.12s-13.72 74-9 137.23M397.13 438s30.76 8.08 61.53 0M45.34 438s30.76 8.08 61.53 0M294.89 446.32s56.33 4.72 84.62-2.73M191.72 447.14s-26.89 3.39-65.63-1.85" fill="none" stroke="#636363" stroke-linecap="round" stroke-linejoin="round"/><rect x="284.88" y="453.59" width="5.37" height="13.94" rx="1" transform="rotate(-3.45 287.73 460.828)" stroke-width="3" stroke="#262521" stroke-linecap="round" stroke-linejoin="round" fill="#262521"/><path d="M334.68 163.34s-47.08-19.85-55.07-30.52M228.14 132.82c-8 10.67-55.75 31.9-55.75 31.9s38.46 28 52.07 107.6" fill="none" stroke="#636363" stroke-linecap="round" stroke-linejoin="round"/><circle cx="319.83" cy="163.34" r="2.42" fill="#636363"/><circle cx="184.69" cy="165.76" r="2.42" fill="#636363"/><circle cx="155.56" cy="97.04" r="2.42" fill="#636363"/><circle cx="345.85" cy="102.09" r="2.42" fill="#636363"/><path d="M157.6 492.11c-1.38-10.74-5.49-38.77-5.49-38.77h-19.49s2.76 28.91 5.91 42.52c1.07 4.61 13.69 13.1 13.69 13.1s5.78-13.82 5.38-16.85zM142 473.54a3.11 3.11 0 113.11 3.11 3.1 3.1 0 01-3.11-3.11zm1.75 11.26a3.1 3.1 0 113.1 3.1 3.1 3.1 0 01-3.09-3.1zm5.33 15.83a3.11 3.11 0 113.1-3.1 3.1 3.1 0 01-3.09 3.1zM362.17 455.21h17.89v41.84h-17.89z" fill="#262521" stroke="#262521" stroke-linecap="round" stroke-linejoin="round" stroke-width="3"/><path fill="none" stroke-dasharray="1 3" stroke-linecap="round" stroke-linejoin="round" stroke-width="2" stroke="#8e8e8e" d="M304.87 286.15l7.52 69.5"/><path d="M303.08 285.92l.06 1.05c.14 2.46.27 4.91.41 7.37a1.7 1.7 0 000 .22.78.78 0 00.05.14l.08.13v.06a.94.94 0 00.83.39l3.05-.35a1.07 1.07 0 001-1.34l-.18-1q-.62-3.64-1.25-7.28a1 1 0 00-1-.75l-2.09.23a1.07 1.07 0 00-.96 1.13zm2 4.6l1-.13a.7.7 0 01.78.6l.25 1.92a.7.7 0 01-.6.78l-1 .14a.7.7 0 01-.78-.6l-.26-1.92a.71.71 0 01.61-.79z" fill="#84837e"/><path fill="none" stroke-dasharray="1 3" stroke-linecap="round" stroke-linejoin="round" stroke-width="2" stroke="#8e8e8e" d="M179.77 286.15l-7.52 69.5"/><path d="M180.55 284.74l-2.1-.24a1.05 1.05 0 00-1 .76c-.42 2.42-.84 4.85-1.25 7.27l-.18 1a1.07 1.07 0 001 1.34l3 .35a1 1 0 00.83-.4v-.06l.08-.13a.66.66 0 00.05-.15.78.78 0 000-.21l.42-7.37c0-.35 0-.7.05-1.05a1.06 1.06 0 00-.9-1.11zm-.38 6.46l-.25 1.93a.71.71 0 01-.79.6l-1-.14a.7.7 0 01-.6-.78l.25-1.92a.71.71 0 01.79-.61l1 .14a.7.7 0 01.6.78z" fill="#84837e"/></svg>