<svg xmlns="http://www.w3.org/2000/svg" width="500" height="550" viewBox="0 0 500 550"><defs><clipPath id="a"><path fill="none" d="M0 0h19.5v19.5H0z"/></clipPath><pattern id="b" width="19.5" height="19.5" patternTransform="rotate(-37.79 34.37 37.043) scale(.68)" patternUnits="userSpaceOnUse" viewBox="0 0 19.5 19.5"><path fill="none" d="M0 0h19.5v19.5H0z"/><g clip-path="url(#a)" fill="none" stroke="#fff" stroke-miterlimit="10"><path d="M.5-.53v37.19M5.4-.53v37.19M10.29-.53v37.19M15.16-.53v37.19M28.61.47H-8.58M28.61 5.37H-8.58M28.61 10.27H-8.58M28.61 15.13H-8.58"/></g></pattern><pattern id="c" width="19.5" height="19.5" patternTransform="rotate(-37.79 46.871 21.64) scale(.68)" patternUnits="userSpaceOnUse" viewBox="0 0 19.5 19.5"><path fill="none" d="M0 0h19.5v19.5H0z"/><g clip-path="url(#a)" fill="none" stroke="#fff" stroke-miterlimit="10"><path d="M.5-.53v37.19M5.4-.53v37.19M10.29-.53v37.19M15.16-.53v37.19M28.61.47H-8.58M28.61 5.37H-8.58M28.61 10.27H-8.58M28.61 15.13H-8.58"/></g></pattern><pattern id="d" width="19.5" height="19.5" patternTransform="rotate(-42.48 23.242 21.235) scale(.68)" patternUnits="userSpaceOnUse" viewBox="0 0 19.5 19.5"><path fill="none" d="M0 0h19.5v19.5H0z"/><g clip-path="url(#a)" fill="none" stroke="#fff" stroke-miterlimit="10"><path d="M.5-.53v37.19M5.4-.53v37.19M10.29-.53v37.19M15.16-.53v37.19M28.61.47H-8.58M28.61 5.37H-8.58M28.61 10.27H-8.58M28.61 15.13H-8.58"/></g></pattern></defs><title>s06e12-01</title><path d="M199.74 55.82s69.23 24 97.74-2.18c0 0 .84 51.38-41 54.84s-56.74-52.66-56.74-52.66z" fill="#fff"/><path d="M284.66 53.19c-18.12 10.43-41.21 7.31-61.25 4.88C216 56.81 209.25 54 204 48.4l-.42.07s3.55 36.22 43.55 34.4 44.51-34.4 44.51-34.4a36 36 0 0 1-6.98 4.72z" fill="#fff" stroke="#262521" stroke-linecap="round" stroke-linejoin="round" stroke-width="3.07"/><path d="M365.23 282.8s-1.73 202.07-5 204.25-151.41 0-167.06-3.27-53.14 5-57.87 4.15-5.46-18.39-3.64-26S133 282.8 133 282.8z" fill="#fff" stroke="#262521" stroke-linecap="round" stroke-linejoin="round" stroke-width="3"/><path d="M291.48 48.63c29.12 10.49 61 14.41 87.44 31.58 15.94 14.59 21.63 38 30.45 57.21 27.81 67.48 58 137.39 51.05 212.08-1.19 18.65-.23 37.45-3.28 55.95-.49 4.66-5.21 7.1-5.56 11.78-1.22 5.28-2.08 10.65-2.91 16-.4 2.6-.41 2.83-3.08 2.33-12.48-2.66-25.26-5.49-37.8-1.58-8.34-.15-8.13-15.56-11.44-21.4-6.28-7.37-3.61-9-5.33-17.64-.9-9.7-4.68-20.27.79-29.26 2-3.53 1.86-7.05.51-10.66-4.9-11.28-7.4-23.41-10.45-35.29-1.07-4.3-1.31-8.49 1.61-12.34 1.51-7.23-10.43-8.68-10.93-15.93l-.41.08q-.27 61.74-.62 123.47c-.81 9-2.68 16.41-3.55 25.44-1 10.07 1.34 17.05-1.5 25.63-.59 1.77-2 1.67-3.35 1.44-44.59-7.74-101.66-5.72-146.65-2.92-24.6.57-58.62-1.68-83 2.09-5.23.59-5.68.27-6.62-4.83-1.35-11.26 1.94-18.53.53-29.31-6.15-46.82-1.39-94.37-3.6-141.53-1.42 2.83-2.94 5.6-4.29 8.46-2.37 10.67-17.5 9.3-11.81 16.18 11.11 7.95 6.41 21.38 5.15 32.56-.25 3.15-1.35 6.27-.37 9.58.51 8.44-3.19 16.94-4.38 25.31-1.5 8-2.61 15.83-1.54 23.93a5.1 5.1 0 0 1-1.13 3.3c-5.71 6.28-7.75 14-9.19 22.06-.57 3.18-.61 3-3.74 2-12.38-3.52-26.09-4.38-38.6-1.18-1.39.34-2.11 0-2.41-1.47-2-7.76-2.18-16.67-8.49-22.43a6.62 6.62 0 0 1-1.33-3.22A144.46 144.46 0 0 1 39 372.86c-1.91-63 2.6-126.93 26.19-186 13.61-35.43 24.56-73.32 48.07-103.67 27.32-18.2 60-23.76 90.46-34.78 0 0 4.7 48.42 44.37 46.6s43.39-46.38 43.39-46.38z" fill="#262521" stroke="#262521" stroke-linecap="round" stroke-linejoin="round" stroke-width="3"/><path d="M51.32 409.51S80 400 96.47 412M402.18 412s25.94-8.31 43.55 0M133.45 438.85s155.28-12.31 227.71 2.37M194.62 56.1c2.77 14.3 15 50.28 52.49 50.23 39.57 0 51.53-38 53.68-50.23" fill="none" stroke="#636363" stroke-linecap="round" stroke-linejoin="round"/><path d="M41.48 283.46s-3 33 12.56 36.67c15.06 3.58 21.91-20.27 57.5-11.25 1.17.29 10.68-10.92 9.25-12.77a5.74 5.74 0 0 0-3.89-2.35c-34.15-4.44-44 12.37-55.36 11.39s-20.06-21.69-20.06-21.69z" opacity=".7" fill="url(#b)"/><path d="M112.89 321.52S102.47 339.79 92.61 339s-44-3.68-54 11.75l.31 35.86a51.19 51.19 0 0 0 4.39 3.7c12.54 8.55 36.17-11.77 46.13-12.16s21.25 8.67 21.25 8.67l.81-9.87s-3.6-7.51-15.3-7.87-32.06 13-40.4 12S39 362 50.66 355.27s27.85-2.1 40.39-4.68a97.63 97.63 0 0 0 22.58-7.77s1.7-17.82-.74-21.3z" opacity=".7" fill="url(#c)"/><path d="M123.81 291c-1.42 2.83-2.94 5.6-4.29 8.46-2.37 10.67-17.5 9.3-11.81 16.18 11.11 7.95 6.41 21.38 5.15 32.56-.25 3.15-1.35 6.27-.37 9.58.51 8.44-3.19 16.94-4.38 25.31-1.5 8-2.61 15.83-1.54 23.93M39 372.86c-1.91-63 2.6-126.93 26.19-186 13.61-35.43 24.56-73.32 48.07-103.67M41.68 406.16a144.46 144.46 0 0 1-2.68-33.3" fill="none" stroke="#262521" stroke-linecap="round" stroke-linejoin="round" stroke-width="3"/><path d="M389.29 110.46c-2.46.1-3.22-1-13.33-18.2s-44-17.37-47.58-10.57.26 18.91 15.94 28.09c31.27 18.3 28 47.44 21.84 50.81s-10.72-2.27-22.12-24.73-24.72-35.86-40.39-35.48-20.35 12.8-16.73 24.48S325 163.5 326.71 174s2.51 17.06-6.67 18.18-18.69-9.95-19.22-12.8-.27-13.71-8.08-19-11.42-2.25-10.1 7.38 4.52 10.85 8.17 16.88 14.91 26.52 35.12 21.76 14-35.69 7.32-47.5-30.31-27.64-32.94-37.1 14.52-8.71 22.33 1.41 25.89 56.44 42.53 53.79c28-4.46 17.95-44.77 10.43-56.65S336.86 96.41 338 89.07s18.27-7.68 26.83.53 12.51 26.68 25.43 24.73c-.05 0 10.61-4.33-.97-3.87z" opacity=".7" fill="url(#d)"/><path d="M287.28 166.66s-.92 1.59-.4 2.07 2.9 2.54 2.71 1.43-.72-4.16-2.31-3.5zM291.63 165.62c-1-.19-1.71-.28-1.51.72s1.87 3.94 2.15 2.9.59-3.38-.64-3.62zM287.48 163.08c-.63.53-.06 2.3 1.08 2.18s.12-3.18-1.08-2.18z" fill="#262521" stroke="#262521" stroke-linecap="round" stroke-linejoin="round" stroke-width=".81"/></svg>