<svg xmlns="http://www.w3.org/2000/svg" width="500" height="550" viewBox="0 0 500 550"><title>s06e08-02</title><path d="M372.14,291.55q-.27,61.74-.62,123.47c-.81,9-2.68,16.4-3.55,25.44-1,10.07,1.34,17-1.5,25.63-.59,1.77-2,1.67-3.35,1.44-44.59-7.74-101.66-5.72-146.65-2.93-24.6.58-58.62-1.67-83,2.09-5.23.6-5.68.28-6.62-4.82-1.35-11.26,1.44-20,0-30.81-6.15-46.82-.89-92.88-3.1-140-1.42,2.82-2.94,5.6-4.29,8.46-2.37,10.67-17.5,9.3-11.81,16.18,11.11,7.95,6.41,21.38,5.15,32.56-.25,3.15-1.35,6.27-.37,9.58.51,8.43-3.19,16.94-4.38,25.31-1.5,8-2.61,15.83-1.54,23.93a5.1,5.1,0,0,1-1.13,3.3c-5.71,6.28-7.75,14-9.19,22.06-.57,3.18-.61,3-3.74,2-12.38-3.52-26.09-4.38-38.6-1.18-1.39.34-2.11,0-2.41-1.47-2-7.76-2.18-16.67-8.49-22.43a6.66,6.66,0,0,1-1.33-3.22A144.46,144.46,0,0,1,39,372.86c-1.91-63,2.6-126.93,26.19-186,13.61-35.43,24.56-73.32,48.07-103.67,27.32-18.2,60-23.76,90.46-34.78a3.16,3.16,0,0,1,2.72.43c5,5.55,11.46,8.41,18.56,9.67,19.19,2.43,41.29,5.55,58.65-4.88,2.85-1.27,4.2-6.53,7.87-5,29.12,10.49,61,14.4,87.44,31.58,15.94,14.59,21.63,38,30.45,57.21,27.81,67.48,58,137.39,51.05,212.07-1.19,18.66-.23,37.46-3.28,56-.49,4.66-5.21,7.09-5.56,11.78-1.22,5.28-2.08,10.65-2.91,16-.4,2.6-.41,2.83-3.08,2.33-12.48-2.66-25.26-5.49-37.8-1.58-8.34-.15-8.13-15.56-11.44-21.41-6.28-7.36-3.61-9-5.33-17.63-.9-9.7-4.68-20.27.79-29.26,2-3.53,1.86-7.05.51-10.66-4.9-11.29-7.4-23.42-10.45-35.29-1.07-4.31-1.31-8.5,1.61-12.34,1.49-7.15-10.43-8.7-10.93-15.93Z" fill="#cececc" stroke="#262521" stroke-linecap="round" stroke-linejoin="round" stroke-width="3"/><path d="M204.54,51.38c.8-.26,4.44,39.77,42.44,41.81s45.37-41.58,45.37-41.58" fill="none" stroke="#636363" stroke-linecap="round" stroke-linejoin="round"/><g opacity="0.5"><line x1="73.89" y1="403.5" x2="73.89" y2="423.97" fill="none" stroke="#636363" stroke-linecap="round" stroke-linejoin="round" stroke-width="2"/><line x1="64.24" y1="403.52" x2="65.23" y2="423.95" fill="none" stroke="#636363" stroke-linecap="round" stroke-linejoin="round" stroke-width="2"/><line x1="84.38" y1="403.53" x2="82.9" y2="423.94" fill="none" stroke="#636363" stroke-linecap="round" stroke-linejoin="round" stroke-width="2"/><line x1="94.49" y1="405.69" x2="90.35" y2="425.73" fill="none" stroke="#636363" stroke-linecap="round" stroke-linejoin="round" stroke-width="2"/><line x1="55.35" y1="404.9" x2="57.39" y2="425.26" fill="none" stroke="#636363" stroke-linecap="round" stroke-linejoin="round" stroke-width="2"/></g><g opacity="0.5"><line x1="424.82" y1="402.38" x2="424.82" y2="422.84" fill="none" stroke="#636363" stroke-linecap="round" stroke-linejoin="round" stroke-width="2"/><line x1="414.71" y1="402.43" x2="416.61" y2="422.8" fill="none" stroke="#636363" stroke-linecap="round" stroke-linejoin="round" stroke-width="2"/><line x1="435.3" y1="402.41" x2="433.82" y2="422.82" fill="none" stroke="#636363" stroke-linecap="round" stroke-linejoin="round" stroke-width="2"/><line x1="445.41" y1="404.57" x2="441.27" y2="424.61" fill="none" stroke="#636363" stroke-linecap="round" stroke-linejoin="round" stroke-width="2"/><line x1="404.88" y1="403.91" x2="408.7" y2="424.01" fill="none" stroke="#636363" stroke-linecap="round" stroke-linejoin="round" stroke-width="2"/></g><g opacity="0.5"><line x1="247.31" y1="430.54" x2="247.31" y2="457.27" fill="none" stroke="#636363" stroke-linecap="round" stroke-linejoin="round" stroke-width="2"/><line x1="258.37" y1="430.54" x2="258.37" y2="456.75" fill="none" stroke="#636363" stroke-linecap="round" stroke-linejoin="round" stroke-width="2"/><line x1="269.43" y1="430.54" x2="269.43" y2="456.77" fill="none" stroke="#636363" stroke-linecap="round" stroke-linejoin="round" stroke-width="2"/><line x1="280.49" y1="430.54" x2="280.49" y2="456.75" fill="none" stroke="#636363" stroke-linecap="round" stroke-linejoin="round" stroke-width="2"/><line x1="291.56" y1="430.04" x2="291.56" y2="456.77" fill="none" stroke="#636363" stroke-linecap="round" stroke-linejoin="round" stroke-width="2"/><line x1="302.62" y1="430.04" x2="302.62" y2="456.27" fill="none" stroke="#636363" stroke-linecap="round" stroke-linejoin="round" stroke-width="2"/><line x1="314.17" y1="430.04" x2="314.73" y2="456.75" fill="none" stroke="#636363" stroke-linecap="round" stroke-linejoin="round" stroke-width="2"/><line x1="324.74" y1="430.54" x2="324.74" y2="457.27" fill="none" stroke="#636363" stroke-linecap="round" stroke-linejoin="round" stroke-width="2"/><line x1="170.87" y1="430.54" x2="170.87" y2="458" fill="none" stroke="#636363" stroke-linecap="round" stroke-linejoin="round" stroke-width="2"/><line x1="192" y1="430.54" x2="192" y2="458.22" fill="none" stroke="#636363" stroke-linecap="round" stroke-linejoin="round" stroke-width="2"/><line x1="181.16" y1="430.54" x2="181.16" y2="458.06" fill="none" stroke="#636363" stroke-linecap="round" stroke-linejoin="round" stroke-width="2"/><line x1="203.06" y1="431.54" x2="203.06" y2="458.72" fill="none" stroke="#636363" stroke-linecap="round" stroke-linejoin="round" stroke-width="2"/><line x1="136.11" y1="432.55" x2="137.61" y2="459.37" fill="none" stroke="#636363" stroke-linecap="round" stroke-linejoin="round" stroke-width="2"/><line x1="147.05" y1="431.06" x2="147.75" y2="458.22" fill="none" stroke="#636363" stroke-linecap="round" stroke-linejoin="round" stroke-width="2"/><line x1="159.31" y1="430.54" x2="159.31" y2="458.22" fill="none" stroke="#636363" stroke-linecap="round" stroke-linejoin="round" stroke-width="2"/><line x1="214.12" y1="431.54" x2="214.12" y2="458.22" fill="none" stroke="#636363" stroke-linecap="round" stroke-linejoin="round" stroke-width="2"/><line x1="225.18" y1="431.54" x2="225.18" y2="457.22" fill="none" stroke="#636363" stroke-linecap="round" stroke-linejoin="round" stroke-width="2"/><line x1="236.24" y1="430.54" x2="236.24" y2="457.27" fill="none" stroke="#636363" stroke-linecap="round" stroke-linejoin="round" stroke-width="2"/><line x1="336.17" y1="431.55" x2="335.12" y2="458" fill="none" stroke="#636363" stroke-linecap="round" stroke-linejoin="round" stroke-width="2"/><line x1="347.48" y1="432.56" x2="345.63" y2="458.72" fill="none" stroke="#636363" stroke-linecap="round" stroke-linejoin="round" stroke-width="2"/><line x1="358.34" y1="433.55" x2="357.26" y2="460.21" fill="none" stroke="#636363" stroke-linecap="round" stroke-linejoin="round" stroke-width="2"/></g><g opacity="0.5"><line x1="293.56" y1="65.06" x2="300.7" y2="66.92" fill="none" stroke="#636363" stroke-linecap="round" stroke-linejoin="round" stroke-width="2"/><line x1="295.66" y1="56.61" x2="303.59" y2="58.68" fill="none" stroke="#636363" stroke-linecap="round" stroke-linejoin="round" stroke-width="2"/><line x1="247.67" y1="98.95" x2="247.67" y2="107.74" fill="none" stroke="#636363" stroke-linecap="round" stroke-linejoin="round" stroke-width="2"/><line x1="257.29" y1="98.22" x2="257.73" y2="106.85" fill="none" stroke="#636363" stroke-linecap="round" stroke-linejoin="round" stroke-width="2"/><line x1="265.8" y1="95.53" x2="267.26" y2="104.13" fill="none" stroke="#636363" stroke-linecap="round" stroke-linejoin="round" stroke-width="2"/><line x1="272.91" y1="91.7" x2="275.91" y2="99.54" fill="none" stroke="#636363" stroke-linecap="round" stroke-linejoin="round" stroke-width="2"/><line x1="279.59" y1="86.67" x2="283.97" y2="93.11" fill="none" stroke="#636363" stroke-linecap="round" stroke-linejoin="round" stroke-width="2"/><line x1="285.17" y1="80.36" x2="291.01" y2="84.8" fill="none" stroke="#636363" stroke-linecap="round" stroke-linejoin="round" stroke-width="2"/><line x1="289.39" y1="73.22" x2="296.41" y2="76.27" fill="none" stroke="#636363" stroke-linecap="round" stroke-linejoin="round" stroke-width="2"/><line x1="201.78" y1="65.06" x2="194.84" y2="66.87" fill="none" stroke="#636363" stroke-linecap="round" stroke-linejoin="round" stroke-width="2"/><line x1="199.68" y1="56.61" x2="192.03" y2="58.6" fill="none" stroke="#636363" stroke-linecap="round" stroke-linejoin="round" stroke-width="2"/><line x1="238.05" y1="98.22" x2="237.6" y2="106.86" fill="none" stroke="#636363" stroke-linecap="round" stroke-linejoin="round" stroke-width="2"/><line x1="229.54" y1="95.53" x2="228.08" y2="104.13" fill="none" stroke="#636363" stroke-linecap="round" stroke-linejoin="round" stroke-width="2"/><line x1="222.43" y1="91.7" x2="219.43" y2="99.54" fill="none" stroke="#636363" stroke-linecap="round" stroke-linejoin="round" stroke-width="2"/><line x1="215.74" y1="86.67" x2="211.37" y2="93.11" fill="none" stroke="#636363" stroke-linecap="round" stroke-linejoin="round" stroke-width="2"/><line x1="210.17" y1="80.36" x2="204.41" y2="84.73" fill="none" stroke="#636363" stroke-linecap="round" stroke-linejoin="round" stroke-width="2"/><line x1="205.95" y1="73.22" x2="199.08" y2="76.2" fill="none" stroke="#636363" stroke-linecap="round" stroke-linejoin="round" stroke-width="2"/></g><path d="M121.2,171.92s3,37.54.91,53.17.11,29.69.11,32.87S124.11,291,124.11,291" fill="none" stroke="#262521" stroke-linecap="round" stroke-linejoin="round" stroke-width="3"/><path d="M371.53,166s5.9,70,.11,98l1,27.47" fill="none" stroke="#262521" stroke-linecap="round" stroke-linejoin="round" stroke-width="3"/></svg>