<svg xmlns="http://www.w3.org/2000/svg" width="500" height="550" viewBox="0 0 500 550"><path d="M372.19 291.55q-.27 61.74-.62 123.47c-.81 9-2.68 16.4-3.55 25.44-1 10.07 1.34 17-1.5 25.63-.58 1.77-2 1.67-3.35 1.44-44.58-7.74-101.65-5.72-146.65-2.93-24.59.58-58.62-1.67-83 2.09-5.22.6-5.68.28-6.62-4.82-1.34-11.26 1.94-18.53.53-29.31-6.15-46.82-1.39-94.38-3.6-141.53-1.41 2.82-2.94 5.6-4.29 8.46-2.36 10.67-17.5 9.3-11.81 16.18 11.12 7.95 6.41 21.38 5.15 32.56-.24 3.15-1.34 6.27-.37 9.58.51 8.43-3.19 16.94-4.38 25.31-1.5 8-2.61 15.83-1.53 23.93a5.17 5.17 0 01-1.14 3.3c-5.71 6.28-7.74 14-9.19 22.06-.57 3.18-.61 3-3.73 2-12.38-3.52-26.1-4.38-38.61-1.18-1.39.34-2.1 0-2.41-1.47-2-7.76-2.17-16.67-8.49-22.43a6.66 6.66 0 01-1.33-3.22 145 145 0 01-2.7-33.25c-1.91-63 2.61-126.93 26.2-186 13.6-35.43 24.56-73.32 48.06-103.67 27.32-18.2 60-23.76 90.46-34.78a3.16 3.16 0 012.72.43c5 5.55 11.46 8.41 18.56 9.67 19.19 2.43 41.29 5.55 58.65-4.88 2.86-1.27 4.2-6.53 7.88-5 29.12 10.49 61 14.4 87.43 31.58 15.94 14.59 21.63 38 30.45 57.21 27.82 67.48 58 137.39 51.06 212.07-1.2 18.66-.24 37.46-3.29 56-.48 4.66-5.2 7.09-5.56 11.78-1.21 5.28-2.07 10.65-2.9 16-.41 2.6-.42 2.83-3.09 2.33-12.48-2.66-25.25-5.49-37.8-1.58-8.33-.15-8.13-15.56-11.44-21.41-6.28-7.36-3.61-9-5.33-17.63-.9-9.7-4.68-20.27.79-29.26 2-3.53 1.87-7.05.51-10.66-4.9-11.29-7.4-23.42-10.45-35.29-1.06-4.31-1.31-8.5 1.61-12.34 1.49-7.15-10.43-8.7-10.93-15.93z" fill="#262521" stroke="#262521" stroke-linecap="round" stroke-linejoin="round" stroke-width="3"/><path d="M372.19 291.55q-.27 61.74-.62 123.47c-.46 5.15-2.27 16.36-3.05 21.1-.57 3.5-88.13-3.76-133.13-1-24.59.58-106.52 8.19-107.93-2.59-6.15-46.82-1.39-94.38-3.6-141.53-.5 1-1.16-24.2-2.81-56.62 3.06-20.34.15-62.49.15-62.49s10.38-64.56-3.61-82.24C128 79.51 196.68 59.5 196.68 59.5s10 44.22 51.92 44.22 51.5-45.56 51.5-45.56S379 80.21 379.74 89c-13.35 26.76-8.21 77-8.21 77 4.24 28.57 1.36 129.68 1.07 125.49z" fill="#3a3934" stroke="#262521" stroke-linecap="round" stroke-linejoin="round" stroke-width="3"/><path d="M204.7 51.38c.8-.26 4.44 39.77 42.44 41.81s45.37-41.58 45.37-41.58" fill="none" stroke="#636363" stroke-linecap="round" stroke-linejoin="round"/><path d="M121.2 171.92s3 37.54.91 53.17.11 29.69.11 32.87 1.89 33.04 1.89 33.04M371.53 166s5.9 70 .11 98l1 27.47" fill="none" stroke="#262521" stroke-linecap="round" stroke-linejoin="round" stroke-width="3"/><path d="M51.43 409.51S80.08 400 96.58 412M402.29 412s25.94-8.31 43.55 0" fill="none" stroke="#636363" stroke-linecap="round" stroke-linejoin="round"/><g opacity=".7" fill="#fff"><path d="M164.23 84.9a1.5 1.5 0 000-3 1.5 1.5 0 000 3zM181.22 71.28a1.5 1.5 0 000-3 1.5 1.5 0 000 3zM191.53 75.06a1.5 1.5 0 000-3 1.5 1.5 0 000 3zM142.74 102.21a1.5 1.5 0 000-3 1.5 1.5 0 000 3zM155.11 109.42a1.5 1.5 0 000-3 1.5 1.5 0 000 3zM141.36 130.38a1.5 1.5 0 000-3 1.5 1.5 0 000 3zM335.5 81.59a1.5 1.5 0 000-3 1.5 1.5 0 000 3zM351.3 85.37a1.5 1.5 0 000-3 1.5 1.5 0 000 3zM350.61 112.51a1.5 1.5 0 000-3 1.5 1.5 0 000 3zM374.32 93.27a1.5 1.5 0 000-3 1.5 1.5 0 000 3zM314.54 66.13a1.5 1.5 0 000-3 1.5 1.5 0 000 3zM320.38 101.52a1.5 1.5 0 000-3 1.5 1.5 0 000 3zM306 132.79a1.5 1.5 0 000-3 1.5 1.5 0 000 3zM347.18 167.49a1.5 1.5 0 000-3 1.5 1.5 0 000 3zM146.89 351.17a1.5 1.5 0 000-3 1.5 1.5 0 000 3zM165.47 357.08a1.5 1.5 0 000-3 1.5 1.5 0 000 3zM157 388.34a1.5 1.5 0 000-3 1.5 1.5 0 000 3zM188.28 379.05a1.5 1.5 0 000-3 1.5 1.5 0 000 3zM190.81 426.35a1.5 1.5 0 000-3 1.5 1.5 0 000 3zM217 422.12a1.5 1.5 0 000-3 1.5 1.5 0 000 3zM179 406.08a1.5 1.5 0 000-3 1.5 1.5 0 000 3zM152.8 421.28a1.5 1.5 0 000-3 1.5 1.5 0 000 3zM133.37 390a1.5 1.5 0 000-3 1.5 1.5 0 000 3zM136.75 374.82a1.5 1.5 0 000-3 1.5 1.5 0 000 3zM143.51 387.49a1.5 1.5 0 000-3 1.5 1.5 0 000 3zM148.58 379.05a1.5 1.5 0 000-3 1.5 1.5 0 000 3zM161.25 406.92a1.5 1.5 0 000-3 1.5 1.5 0 000 3zM142.67 434a1.5 1.5 0 000-3 1.5 1.5 0 000 3zM157.74 436.76a1.5 1.5 0 000-3 1.5 1.5 0 000 3zM156.18 431.42a1.5 1.5 0 000-3 1.5 1.5 0 000 3zM171.38 428.88a1.5 1.5 0 000-3 1.5 1.5 0 000 3zM184.06 434.79a1.5 1.5 0 000-3 1.5 1.5 0 000 3zM206 412a1.5 1.5 0 000-3 1.5 1.5 0 000 3zM178.14 388.34a1.5 1.5 0 000-3 1.5 1.5 0 000 3zM144.36 406.08a1.5 1.5 0 000-3 1.5 1.5 0 000 3zM293 428.88a1.5 1.5 0 000-3 1.5 1.5 0 000 3zM309.91 400.16a1.5 1.5 0 000-3 1.5 1.5 0 000 3zM316.67 385.8a1.5 1.5 0 000-3 1.5 1.5 0 000 3zM330.18 406.92a1.5 1.5 0 000-3 1.5 1.5 0 000 3zM337.79 392.56a1.5 1.5 0 000-3 1.5 1.5 0 000 3zM326 391.72a1.5 1.5 0 000-3 1.5 1.5 0 000 3zM317.51 411.14a1.5 1.5 0 000-3 1.5 1.5 0 000 3zM298.93 406.92a1.5 1.5 0 000-3 1.5 1.5 0 000 3zM304.84 420.44a1.5 1.5 0 000-3 1.5 1.5 0 000 3zM344.54 434a1.5 1.5 0 000-3 1.5 1.5 0 000 3zM366.51 434a1.5 1.5 0 000-3 1.5 1.5 0 000 3zM366.51 405.23a1.5 1.5 0 000-3 1.5 1.5 0 000 3zM356.37 417.9a1.5 1.5 0 000-3 1.5 1.5 0 000 3zM362.28 395.1a1.5 1.5 0 000-3 1.5 1.5 0 000 3zM339.48 417.9a1.5 1.5 0 000-3 1.5 1.5 0 000 3zM277 406.08a1.5 1.5 0 000-3 1.5 1.5 0 000 3zM153.65 170.41a1.5 1.5 0 000-3 1.5 1.5 0 000 3zM168.85 205.89a1.5 1.5 0 000-3 1.5 1.5 0 000 3zM187.43 182.24a1.5 1.5 0 000-3 1.5 1.5 0 000 3zM143.51 92.7a1.5 1.5 0 000-3 1.5 1.5 0 000 3zM155.24 86.57a1.5 1.5 0 000-3 1.5 1.5 0 000 3zM148.08 81.14a1.5 1.5 0 000-3 1.5 1.5 0 000 3zM137.45 86.78a1.5 1.5 0 000-3 1.5 1.5 0 000 3zM127.47 88.74a1.5 1.5 0 000-3 1.5 1.5 0 000 3zM167.83 101.1a1.5 1.5 0 000-3 1.5 1.5 0 000 3zM152.42 100.89a1.5 1.5 0 000-3 1.5 1.5 0 000 3zM159.15 105.44a1.5 1.5 0 000-3 1.5 1.5 0 000 3zM163.05 76.8a1.5 1.5 0 000-3 1.5 1.5 0 000 3zM160.45 93.08a1.5 1.5 0 000-3 1.5 1.5 0 000 3zM148.73 92.21a1.5 1.5 0 000-3 1.5 1.5 0 000 3zM150.47 105.88a1.5 1.5 0 000-3 1.5 1.5 0 000 3zM143.31 110.43a1.5 1.5 0 000-3 1.5 1.5 0 000 3zM131.59 98.72a1.5 1.5 0 000-3 1.5 1.5 0 000 3zM162.84 118a1.5 1.5 0 000-3 1.5 1.5 0 000 3zM174.77 121.28a1.5 1.5 0 000-3 1.5 1.5 0 000 3zM177.16 82.66a1.5 1.5 0 000-3 1.5 1.5 0 000 3zM175.85 69.21a1.5 1.5 0 000-3 1.5 1.5 0 000 3zM190.83 68.78a1.5 1.5 0 000-3 1.5 1.5 0 000 3zM188.22 93.08a1.5 1.5 0 000-3 1.5 1.5 0 000 3zM362.89 111.3a1.5 1.5 0 000-3 1.5 1.5 0 000 3zM355.29 107a1.5 1.5 0 000-3 1.5 1.5 0 000 3zM362.89 104.79a1.5 1.5 0 000-3 1.5 1.5 0 000 3zM361.37 94.6a1.5 1.5 0 000-3 1.5 1.5 0 000 3zM355.94 82.88a1.5 1.5 0 000-3 1.5 1.5 0 000 3zM367.23 87.44a1.5 1.5 0 000-3 1.5 1.5 0 000 3zM367 95.9a1.5 1.5 0 000-3 1.5 1.5 0 000 3zM351 91.56a1.5 1.5 0 000-3 1.5 1.5 0 000 3zM350.09 101.76a1.5 1.5 0 000-3 1.5 1.5 0 000 3zM363.32 120.63a1.5 1.5 0 000-3 1.5 1.5 0 000 3zM354.21 132.78a1.5 1.5 0 000-3 1.5 1.5 0 000 3zM364.62 146.89a1.5 1.5 0 000-3 1.5 1.5 0 000 3zM313.2 298.55a1.5 1.5 0 000-3 1.5 1.5 0 000 3zM337.94 430.26a1.5 1.5 0 000-3 1.5 1.5 0 000 3zM335.77 424.18a1.5 1.5 0 000-3 1.5 1.5 0 000 3zM333.81 434.81a1.5 1.5 0 000-3 1.5 1.5 0 000 3zM329 427.65a1.5 1.5 0 000-3 1.5 1.5 0 000 3zM323.83 433.73a1.5 1.5 0 000-3 1.5 1.5 0 000 3zM345.31 430a1.5 1.5 0 000-3 1.5 1.5 0 000 3zM345.53 420.06a1.5 1.5 0 000-3 1.5 1.5 0 000 3zM359.2 436.33a1.5 1.5 0 000-3 1.5 1.5 0 000 3zM355.51 427.87a1.5 1.5 0 000-3 1.5 1.5 0 000 3zM351.39 421.36a1.5 1.5 0 000-3 1.5 1.5 0 000 3zM364.41 422.23a1.5 1.5 0 000-3 1.5 1.5 0 000 3zM364.62 415.07a1.5 1.5 0 000-3 1.5 1.5 0 000 3zM357.68 405.74a1.5 1.5 0 000-3 1.5 1.5 0 000 3zM347.27 410.08a1.5 1.5 0 000-3 1.5 1.5 0 000 3zM340.32 401.62a1.5 1.5 0 000-3 1.5 1.5 0 000 3zM357.25 389.9a1.5 1.5 0 000-3 1.5 1.5 0 000 3zM363.76 365.16a1.5 1.5 0 000-3 1.5 1.5 0 000 3zM367.88 387.3a1.5 1.5 0 000-3 1.5 1.5 0 000 3zM149.82 436.33a1.5 1.5 0 000-3 1.5 1.5 0 000 3zM145.26 425.92a1.5 1.5 0 000-3 1.5 1.5 0 000 3zM137.23 432a1.5 1.5 0 000-3 1.5 1.5 0 000 3zM145.91 415.72a1.5 1.5 0 000-3 1.5 1.5 0 000 3zM151.12 429.39a1.5 1.5 0 000-3 1.5 1.5 0 000 3zM160 423.31a1.5 1.5 0 000-3 1.5 1.5 0 000 3zM165.66 433.29a1.5 1.5 0 000-3 1.5 1.5 0 000 3zM169.56 420.71a1.5 1.5 0 000-3 1.5 1.5 0 000 3zM135.5 421.36a1.5 1.5 0 000-3 1.5 1.5 0 000 3zM187.57 415.29a1.5 1.5 0 000-3 1.5 1.5 0 000 3zM178 432.21a1.5 1.5 0 000-3 1.5 1.5 0 000 3zM199.39 435.89a1.5 1.5 0 000-3 1.5 1.5 0 000 3zM206.67 429.39a1.5 1.5 0 000-3 1.5 1.5 0 000 3z"/></g><g opacity=".3" fill="#fff"><path d="M146.17 85.67a1.5 1.5 0 000-3 1.5 1.5 0 000 3zM155.43 94.34a1.5 1.5 0 000-3 1.5 1.5 0 000 3zM176.83 92.61a1.5 1.5 0 000-3 1.5 1.5 0 000 3zM170.47 76.41a1.5 1.5 0 000-3 1.5 1.5 0 000 3zM155.43 78a1.5 1.5 0 000-3 1.5 1.5 0 000 3zM197.07 85.67a1.5 1.5 0 000-3 1.5 1.5 0 000 3zM132.87 136a1.5 1.5 0 000-3 1.5 1.5 0 000 3zM147.91 150.45a1.5 1.5 0 000-3 1.5 1.5 0 000 3zM131.14 172.43a1.5 1.5 0 000-3 1.5 1.5 0 000 3zM147.33 185.73a1.5 1.5 0 000-3 1.5 1.5 0 000 3zM143.28 164.91a1.5 1.5 0 000-3 1.5 1.5 0 000 3zM173.36 164.91a1.5 1.5 0 000-3 1.5 1.5 0 000 3zM126.51 93.77a1.5 1.5 0 000-3 1.5 1.5 0 000 3zM322.58 81a1.5 1.5 0 000-3 1.5 1.5 0 000 3zM342.25 75.26a1.5 1.5 0 000-3 1.5 1.5 0 000 3zM340.51 99.55a1.5 1.5 0 000-3 1.5 1.5 0 000 3zM327.79 93.19a1.5 1.5 0 000-3 1.5 1.5 0 000 3zM338.2 117.48a1.5 1.5 0 000-3 1.5 1.5 0 000 3zM324.9 120.37a1.5 1.5 0 000-3 1.5 1.5 0 000 3zM331.84 107.07a1.5 1.5 0 000-3 1.5 1.5 0 000 3zM363.65 129.63a1.5 1.5 0 000-3 1.5 1.5 0 000 3zM370 103a1.5 1.5 0 000-3 1.5 1.5 0 000 3zM358.44 100.13a1.5 1.5 0 000-3 1.5 1.5 0 000 3zM344 198.45a1.5 1.5 0 000-3 1.5 1.5 0 000 3zM153.11 367.92a1.5 1.5 0 000-3 1.5 1.5 0 000 3zM154.85 354a1.5 1.5 0 000-3 1.5 1.5 0 000 3zM131.71 354a1.5 1.5 0 000-3 1.5 1.5 0 000 3zM135.18 411.88a1.5 1.5 0 000-3 1.5 1.5 0 000 3zM152.54 391.64a1.5 1.5 0 000-3 1.5 1.5 0 000 3zM157.74 402.63a1.5 1.5 0 000-3 1.5 1.5 0 000 3zM183.19 367.92a1.5 1.5 0 000-3 1.5 1.5 0 000 3zM193.6 394.53a1.5 1.5 0 000-3 1.5 1.5 0 000 3zM199.39 419.4a1.5 1.5 0 000-3 1.5 1.5 0 000 3zM177.41 418.24a1.5 1.5 0 000-3 1.5 1.5 0 000 3zM162.37 419.4a1.5 1.5 0 000-3 1.5 1.5 0 000 3zM168.15 438.49a1.5 1.5 0 000-3 1.5 1.5 0 000 3zM229.46 388.17a1.5 1.5 0 000-3 1.5 1.5 0 000 3zM232.93 404.94a1.5 1.5 0 000-3 1.5 1.5 0 000 3zM209.8 391.06a1.5 1.5 0 000-3 1.5 1.5 0 000 3zM181.46 326.28a1.5 1.5 0 000-3 1.5 1.5 0 000 3zM152.54 314.71a1.5 1.5 0 000-3 1.5 1.5 0 000 3zM302.34 321.07a1.5 1.5 0 000-3 1.5 1.5 0 000 3zM297.13 357.51a1.5 1.5 0 000-3 1.5 1.5 0 000 3zM329.52 337.27a1.5 1.5 0 000-3 1.5 1.5 0 000 3zM357.86 310.08a1.5 1.5 0 000-3 1.5 1.5 0 000 3zM342.83 374.28a1.5 1.5 0 000-3 1.5 1.5 0 000 3zM316.22 368.5a1.5 1.5 0 000-3 1.5 1.5 0 000 3zM300 384.7a1.5 1.5 0 000-3 1.5 1.5 0 000 3zM285 418.24a1.5 1.5 0 000-3 1.5 1.5 0 000 3zM260.69 418.24a1.5 1.5 0 000-3 1.5 1.5 0 000 3zM328.94 431.55a1.5 1.5 0 000-3 1.5 1.5 0 000 3zM324.9 421.71a1.5 1.5 0 000-3 1.5 1.5 0 000 3zM310.44 433.28a1.5 1.5 0 000-3 1.5 1.5 0 000 3zM350.92 400.89a1.5 1.5 0 000-3 1.5 1.5 0 000 3zM364.8 377.75a1.5 1.5 0 000-3 1.5 1.5 0 000 3z"/></g></svg>