<svg xmlns="http://www.w3.org/2000/svg" width="500" height="550" viewBox="0 0 500 550"><path d="M372.19 291.55q-.27 61.74-.62 123.47c-.81 9-2.68 16.4-3.55 25.44-1 10.07 1.34 17-1.5 25.63-.58 1.77-2 1.67-3.35 1.44-44.58-7.74-101.65-5.72-146.65-2.93-24.59.58-58.62-1.67-83 2.09-5.22.6-5.68.28-6.62-4.82-1.34-11.26 1.94-18.53.53-29.31-6.15-46.82-1.39-94.38-3.6-141.53-1.41 2.82-2.94 5.6-4.29 8.46-2.36 10.67-17.5 9.3-11.81 16.18 11.12 7.95 6.41 21.38 5.15 32.56-.24 3.15-1.34 6.27-.37 9.58.51 8.43-3.19 16.94-4.38 25.31-1.5 8-2.61 15.83-1.53 23.93a5.17 5.17 0 01-1.14 3.3c-5.71 6.28-7.74 14-9.19 22.06-.57 3.18-.61 3-3.73 2-12.38-3.52-26.1-4.38-38.61-1.18-1.39.34-2.1 0-2.41-1.47-2-7.76-2.17-16.67-8.49-22.43a6.66 6.66 0 01-1.33-3.22 145 145 0 01-2.7-33.25c-1.91-63 2.61-126.93 26.2-186 13.6-35.43 24.56-73.32 48.06-103.67 27.32-18.2 60-23.76 90.46-34.78a3.16 3.16 0 012.72.43c5 5.55 11.46 8.41 18.56 9.67 19.19 2.43 41.29 5.55 58.65-4.88 2.86-1.27 4.2-6.53 7.88-5 29.12 10.49 61 14.4 87.43 31.58 15.94 14.59 21.63 38 30.45 57.21 27.82 67.48 58 137.39 51.06 212.07-1.2 18.66-.24 37.46-3.29 56-.48 4.66-5.2 7.09-5.56 11.78-1.21 5.28-2.07 10.65-2.9 16-.41 2.6-.42 2.83-3.09 2.33-12.48-2.66-25.25-5.49-37.8-1.58-8.33-.15-8.13-15.56-11.44-21.41-6.28-7.36-3.61-9-5.33-17.63-.9-9.7-4.68-20.27.79-29.26 2-3.53 1.87-7.05.51-10.66-4.9-11.29-7.4-23.42-10.45-35.29-1.06-4.31-1.31-8.5 1.61-12.34 1.49-7.15-10.43-8.7-10.93-15.93z" fill="#262521" stroke="#262521" stroke-linecap="round" stroke-linejoin="round" stroke-width="3"/><path d="M137 347.72c.43 13.3 3.53 55 4.94 68.23 2.37 22.12-14.63 19.28-14.63 19.28-7.21-48.93 1.34-96.23-.31-145.63l-.42-.08c-.14 2.11.68-28.15-1-58.8 25.25-58.32 16.78-159.44-5.41-152.46 16.19-10.54 24.64-11.72 43.08-16.86 8.16 25.42 24.68 45.44 36.87 69.14C261.57 249.94 126.78 197 137 347.72z" fill="#3a3934"/><path d="M133 349.67c.43 13.3 3.65 55 4.94 68.23 1.7 17.36-11 13.16-11 13.16-7.22-48.93-2.31-90.13-4-139.51l-.42-.08c-.14 2.11.68-28.15-1-58.8 25.25-58.32 16.78-159.44-5.41-152.46 16.28-10.54 23.73-11.21 42.17-16.36 8.16 25.42 26.1 44.26 36.87 68.64C254.09 243.42 122.65 195 133 349.67z" fill="#adadad"/><path d="M358.91 346c-.43 13.3-4.24 60.17-4.85 73.48-.6 13 4.64 17 14.46 16.73 7.22-48.93-3-94.74-1.33-144.12l.41-.08c.15 2.11-1.07-32.38 2.09-62.74-16.76-69.43-17.92-155.54 4.31-148.56-16.19-10.54-34.48-16.09-52.92-21.22-8.15 25.41-15 47.92-25.81 72.3-58.96 110.92 78.47 58.91 63.64 214.21z" fill="#3a3934"/><path d="M363.91 345.46c-.43 13.3-3.94 60.19-4.85 73.48.48 10.27.25 13.81 10.06 13.52 7.22-48.94 1.39-91.53 3.07-140.91l.41-.08c.15 2.11-1.07-32.38 2.09-62.74-16.76-69.39-17.92-155.5 4.31-148.52-16.22-10.54-34.51-16.09-52.95-21.21-8.15 25.41-15 47.92-25.81 72.3-58.93 110.91 78.5 58.9 63.67 214.16z" fill="#adadad"/><path d="M372.37 244.89c3-2.35.5-19.32.58-21.64 2.46-65.32-24.46-127.62 1.52-146-8.33-5.42-20.69-10.78-29.86-14.18-25.47 92.08 23.39 176.32 27.76 181.82z" fill="#878787"/><path d="M359.34 192.73c4.24-1 8.44-2.13 12.64-3.32-.16-1.81-.32-3.63-.5-5.43-2.92.75-5.81 1.67-8.69 2.58a97.82 97.82 0 01-14.33 3.79c.44 1.45.88 2.87 1.34 4.27 3.2-.51 6.38-1.15 9.54-1.89zm10.33 29.41c1.12-.6 2.24-1.21 3.35-1.84.2-8.16 0-16.27-.55-24.24-1.77.46-3.54.95-5.28 1.5a56.54 56.54 0 00-14.19 6.35c3 8.45 6.19 15.82 9 21.92 2.6-1.13 5.16-2.37 7.67-3.69zM344.94 138q10.29-.09 20.58-.38c-.45-3.46-.87-6.83-1.22-10.09h-26.8c.15 3.55.38 7 .68 10.5 2.26-.03 4.51-.03 6.76-.03z" fill="#fff" opacity=".5"/><path d="M373.66 240.69c3-2.35.94-9.64 1-12C377.14 163.41 353 98.63 379 80.21c-8.33-5.42-20.69-10.78-29.86-14.18-24.71 67.2 16.6 165.75 24.52 174.66z" fill="#fff"/><path d="M124.59 230.23c0 3.79-3.78 23.05-1.94 26.12 9.16-12.84 44-112.52 21.2-187.9a149.73 149.73 0 00-27.08 14.23c16.47 22.74 7.4 74.78 7.82 147.55z" fill="#878787"/><path d="M126.88 212.45a112 112 0 0110.32 6.45c2.65-9.07 5.25-19.35 7.48-30.42h-19.47c-.22 7.32-.42 14.93-.53 22.82.74.37 1.48.75 2.2 1.15zm18.94-29.79c.45-2.44.89-4.92 1.3-7.43-7.17.47-14.33 1-21.51 1.25-.07 2-.14 4.1-.21 6.18zM129.57 121c6.94-1.12 13.72-3 20.6-4.44l1.11-.23q-.17-4.83-.54-9.65c-8.3 2.51-16.51 5.29-24.74 8 .18 2.16.31 4.4.42 6.71 1.05-.04 2.1-.18 3.15-.39z" fill="#fff" opacity=".5"/><path d="M121.61 232.67c0 3.79-.8 11.59 1 14.66 5.43-10.37 39.9-101.6 17.13-177a164.53 164.53 0 00-28.51 14.82c16.51 22.77 9.97 74.75 10.38 147.52z" fill="#fff"/><path d="M204.7 51.38c.8-.26 4.44 39.77 42.44 41.81s45.37-41.58 45.37-41.58" fill="none" stroke="#636363" stroke-linecap="round" stroke-linejoin="round"/><path d="M121.2 171.92s3 37.54.91 53.17.11 29.69.11 32.87 1.89 33.04 1.89 33.04m247.42-125s5.9 70 .11 98l1 27.47" fill="none" stroke="#262521" stroke-linecap="round" stroke-linejoin="round" stroke-width="3"/><path d="M51.43 409.51S80.08 400 96.58 412m305.71 0s25.94-8.31 43.55 0m-312.39 26.85s155.28-12.31 227.71 2.37" fill="none" stroke="#636363" stroke-linecap="round" stroke-linejoin="round"/><path d="M348.13 212.06a1.5 1.5 0 000-3 1.5 1.5 0 000 3zm6.18 4.13a1.5 1.5 0 000-3 1.5 1.5 0 000 3zm-5.15 4.12a1.5 1.5 0 000-3 1.5 1.5 0 000 3zm7.15 5.14a1.5 1.5 0 000-3 1.5 1.5 0 000 3zm-6.39 4.11a1.5 1.5 0 000-3 1.5 1.5 0 000 3zM338 217.68a1.5 1.5 0 000-3 1.5 1.5 0 000 3zm0 12.8a1.5 1.5 0 000-3 1.5 1.5 0 000 3zm16 4.52a1.5 1.5 0 000-3 1.5 1.5 0 000 3zm2.31 8.72a1.5 1.5 0 000-3 1.5 1.5 0 000 3zm4.57 0a1.5 1.5 0 000-3 1.5 1.5 0 000 3zm0-10.96a1.5 1.5 0 000-3 1.5 1.5 0 000 3zm4.12 6.4a1.5 1.5 0 000-3 1.5 1.5 0 000 3zm-7.32-.46a1.5 1.5 0 000-3 1.5 1.5 0 000 3zm9.14 13.7a1.5 1.5 0 000-3 1.5 1.5 0 000 3zm-7.31-1.4a1.5 1.5 0 000-3 1.5 1.5 0 000 3zm8.23-5.91a1.5 1.5 0 000-3 1.5 1.5 0 000 3zm-1.37 17.37a1.5 1.5 0 000-3 1.5 1.5 0 000 3zm-18.28-15.08a1.5 1.5 0 000-3 1.5 1.5 0 000 3zm0-8.68a1.5 1.5 0 000-3 1.5 1.5 0 000 3zm-49.34-39.29a1.5 1.5 0 000-3 1.5 1.5 0 000 3zm-6.4-10.97a1.5 1.5 0 000-3 1.5 1.5 0 000 3zm13.25.46a1.5 1.5 0 000-3 1.5 1.5 0 000 3zm-7.76-12.33a1.5 1.5 0 000-3 1.5 1.5 0 000 3zm68.53 116.49a1.5 1.5 0 000-3 1.5 1.5 0 000 3zm2.74 8.23a1.5 1.5 0 000-3 1.5 1.5 0 000 3zm-2.29 4.11a1.5 1.5 0 000-3 1.5 1.5 0 000 3zm1.83 11.88a1.5 1.5 0 000-3 1.5 1.5 0 000 3zm-1.83 45.23a1.5 1.5 0 000-3 1.5 1.5 0 000 3zm-2.74 13.25a1.5 1.5 0 000-3 1.5 1.5 0 000 3zm2.74 9.59a1.5 1.5 0 000-3 1.5 1.5 0 000 3zm-2.74 5.94a1.5 1.5 0 000-3 1.5 1.5 0 000 3zm1.83 6.85a1.5 1.5 0 000-3 1.5 1.5 0 000 3zm-2.74 10.51a1.5 1.5 0 000-3 1.5 1.5 0 000 3zm-.92 6.85a1.5 1.5 0 000-3 1.5 1.5 0 000 3zM174.94 214a1.5 1.5 0 000-3 1.5 1.5 0 000 3zm9.6 6.42a1.5 1.5 0 000-3 1.5 1.5 0 000 3zm3.65-7.76a1.5 1.5 0 000-3 1.5 1.5 0 000 3zm-5.94.91a1.5 1.5 0 000-3 1.5 1.5 0 000 3zm-3.2-5.94a1.5 1.5 0 000-3 1.5 1.5 0 000 3zm13.25-5.02a1.5 1.5 0 000-3 1.5 1.5 0 000 3zm1.37 5.94a1.5 1.5 0 000-3 1.5 1.5 0 000 3zm-9.59-4.12a1.5 1.5 0 000-3 1.5 1.5 0 000 3zm16.92.46a1.5 1.5 0 000-3 1.5 1.5 0 000 3zm-27.43 21.93a1.5 1.5 0 000-3 1.5 1.5 0 000 3zm-7.31-9.59a1.5 1.5 0 000-3 1.5 1.5 0 000 3zm.46-11.43a1.5 1.5 0 000-3 1.5 1.5 0 000 3zM164 193.93a1.5 1.5 0 000-3 1.5 1.5 0 000 3zm15.51 6.39a1.5 1.5 0 000-3 1.5 1.5 0 000 3zm5.03-16.44a1.5 1.5 0 000-3 1.5 1.5 0 000 3zm11.87 10.96a1.5 1.5 0 000-3 1.5 1.5 0 000 3zm9.59-12.33a1.5 1.5 0 000-3 1.5 1.5 0 000 3zM162.61 230a1.5 1.5 0 000-3 1.5 1.5 0 000 3zm2.28 8.24a1.5 1.5 0 000-3 1.5 1.5 0 000 3zm5.48-5.94a1.5 1.5 0 000-3 1.5 1.5 0 000 3zm-2.28-8.22a1.5 1.5 0 000-3 1.5 1.5 0 000 3zm-18.73 5.02a1.5 1.5 0 000-3 1.5 1.5 0 000 3zm.45 12.8a1.5 1.5 0 000-3 1.5 1.5 0 000 3zm-15.07 20.56a1.5 1.5 0 000-3 1.5 1.5 0 000 3zm8.26.45a1.5 1.5 0 000-3 1.5 1.5 0 000 3zm-2.78 6.4a1.5 1.5 0 000-3 1.5 1.5 0 000 3zm-11.88 0a1.5 1.5 0 000-3 1.5 1.5 0 000 3zm4.57 12.33a1.5 1.5 0 000-3 1.5 1.5 0 000 3zm1.37-6.85a1.5 1.5 0 000-3 1.5 1.5 0 000 3zm4.11 4.57a1.5 1.5 0 000-3 1.5 1.5 0 000 3zm-5.94 17.36a1.5 1.5 0 000-3 1.5 1.5 0 000 3zm-.45 9.59a1.5 1.5 0 000-3 1.5 1.5 0 000 3zm-2.29 9.14a1.5 1.5 0 000-3 1.5 1.5 0 000 3zm1.83 12.79a1.5 1.5 0 000-3 1.5 1.5 0 000 3zm-3.65 48.89a1.5 1.5 0 000-3 1.5 1.5 0 000 3zm4.56 5.94a1.5 1.5 0 000-3 1.5 1.5 0 000 3zm-2.74 10.5a1.5 1.5 0 000-3 1.5 1.5 0 000 3zm2.74 5.49a1.5 1.5 0 000-3 1.5 1.5 0 000 3zm1.83 9.59a1.5 1.5 0 000-3 1.5 1.5 0 000 3zm-4.57-3.65a1.5 1.5 0 000-3 1.5 1.5 0 000 3zm4.11 11.87a1.5 1.5 0 000-3 1.5 1.5 0 000 3z" fill="#fff"/><path d="M344.52 202.15a1.5 1.5 0 000-3 1.5 1.5 0 000 3zm-7.85-5.48a1.5 1.5 0 000-3 1.5 1.5 0 000 3zm1.62 6.74a1.5 1.5 0 000-3 1.5 1.5 0 000 3zm3.47-5.98a1.5 1.5 0 000-3 1.5 1.5 0 000 3zm.79 11.65a1.5 1.5 0 000-3 1.5 1.5 0 000 3zm-8.55.79a1.5 1.5 0 000-3 1.5 1.5 0 000 3zm9.49 6.3a1.5 1.5 0 000-3 1.5 1.5 0 000 3zm-5.04-5.35a1.5 1.5 0 000-3 1.5 1.5 0 000 3zM333.1 216a1.5 1.5 0 000-3 1.5 1.5 0 000 3zm2.52 5.37a1.5 1.5 0 000-3 1.5 1.5 0 000 3zm-3.35-153.29a1.5 1.5 0 000-3 1.5 1.5 0 000 3zm5.52-.6a1.5 1.5 0 000-3 1.5 1.5 0 000 3zM336 73a1.5 1.5 0 000-3 1.5 1.5 0 000 3zm4.35-1.57a1.5 1.5 0 000-3 1.5 1.5 0 000 3zm-11.04 3.15a1.5 1.5 0 000-3 1.5 1.5 0 000 3zm-1.38-8.67a1.5 1.5 0 000-3 1.5 1.5 0 000 3zm6.7 16.37a1.5 1.5 0 000-3 1.5 1.5 0 000 3zm4.15-4.74a1.5 1.5 0 000-3 1.5 1.5 0 000 3zm-6.12 0a1.5 1.5 0 000-3 1.5 1.5 0 000 3zM334.83 90a1.5 1.5 0 000-3 1.5 1.5 0 000 3zm-5.52-2.79a1.5 1.5 0 000-3 1.5 1.5 0 000 3zm4.34 10.65a1.5 1.5 0 000-3 1.5 1.5 0 000 3zM324 101a1.5 1.5 0 000-3 1.5 1.5 0 000 3zm9.06 13.63a1.5 1.5 0 000-3 1.5 1.5 0 000 3zm-16.37 103.18a1.5 1.5 0 000-3 1.5 1.5 0 000 3zm-7.17-4.19a1.5 1.5 0 000-3 1.5 1.5 0 000 3zm9.26-1.49a1.5 1.5 0 000-3 1.5 1.5 0 000 3zm-15.24-3.88a1.5 1.5 0 000-3 1.5 1.5 0 000 3zM305 199a1.5 1.5 0 000-3 1.5 1.5 0 000 3zm3.32 8.35a1.5 1.5 0 000-3 1.5 1.5 0 000 3zm5.68 0a1.5 1.5 0 000-3 1.5 1.5 0 000 3zm8.07 16.13a1.5 1.5 0 000-3 1.5 1.5 0 000 3zm21.21 10.76a1.5 1.5 0 000-3 1.5 1.5 0 000 3zm-.28 6.27a1.5 1.5 0 000-3 1.5 1.5 0 000 3zm3.26 2.99a1.5 1.5 0 000-3 1.5 1.5 0 000 3zm-4.48 2.69a1.5 1.5 0 000-3 1.5 1.5 0 000 3zm-3.88-8.37a1.5 1.5 0 000-3 1.5 1.5 0 000 3zm-5.08-3.58a1.5 1.5 0 000-3 1.5 1.5 0 000 3zm12.85-4.78a1.5 1.5 0 000-3 1.5 1.5 0 000 3zm-2.67-4.18a1.5 1.5 0 000-3 1.5 1.5 0 000 3zm4.76.59a1.5 1.5 0 000-3 1.5 1.5 0 000 3zm9.56 32.86a1.5 1.5 0 000-3 1.5 1.5 0 000 3zm5.97-2.09a1.5 1.5 0 000-3 1.5 1.5 0 000 3zm-1.19 5.98a1.5 1.5 0 000-3 1.5 1.5 0 000 3zm-4.48 1.49a1.5 1.5 0 000-3 1.5 1.5 0 000 3zm5.97 8.66a1.5 1.5 0 000-3 1.5 1.5 0 000 3zm-2.09-4.48a1.5 1.5 0 000-3 1.5 1.5 0 000 3zm3.58-.29a1.5 1.5 0 000-3 1.5 1.5 0 000 3zm4.19 7.46a1.5 1.5 0 000-3 1.5 1.5 0 000 3zm-1.5 4.19a1.5 1.5 0 000-3 1.5 1.5 0 000 3zm0 5.67a1.5 1.5 0 000-3 1.5 1.5 0 000 3zm-4.18-6.27a1.5 1.5 0 000-3 1.5 1.5 0 000 3zm5.08 47.2a1.5 1.5 0 000-3 1.5 1.5 0 000 3zm-.3 6.57a1.5 1.5 0 000-3 1.5 1.5 0 000 3zm-1.79 6.28a1.5 1.5 0 000-3 1.5 1.5 0 000 3zm2.42 5.97a1.5 1.5 0 000-3 1.5 1.5 0 000 3zm-1.23 66.62a1.5 1.5 0 000-3 1.5 1.5 0 000 3zm0 7.47a1.5 1.5 0 000-3 1.5 1.5 0 000 3zM148.71 73.12a1.5 1.5 0 000-3 1.5 1.5 0 000 3zm4.44 4.27a1.5 1.5 0 000-3 1.5 1.5 0 000 3zm.17-6.14a1.5 1.5 0 000-3 1.5 1.5 0 000 3zm4.6 2.21a1.5 1.5 0 000-3 1.5 1.5 0 000 3zm-9.21 7a1.5 1.5 0 000-3 1.5 1.5 0 000 3zm3.07 11.42a1.5 1.5 0 000-3 1.5 1.5 0 000 3zm3.93-7.5a1.5 1.5 0 000-3 1.5 1.5 0 000 3zm3.41 7.84a1.5 1.5 0 000-3 1.5 1.5 0 000 3zm-5.29 10.23a1.5 1.5 0 000-3 1.5 1.5 0 000 3zM142.9 255a1.5 1.5 0 000-3 1.5 1.5 0 000 3zm.53-7.68a1.5 1.5 0 000-3 1.5 1.5 0 000 3zm4.99.53a1.5 1.5 0 000-3 1.5 1.5 0 000 3zm-.18 5.35a1.5 1.5 0 000-3 1.5 1.5 0 000 3zm-.71 6.06a1.5 1.5 0 000-3 1.5 1.5 0 000 3zm7.47-9.62a1.5 1.5 0 000-3 1.5 1.5 0 000 3zm.9-10.34a1.5 1.5 0 000-3 1.5 1.5 0 000 3zm3.75 4.63a1.5 1.5 0 000-3 1.5 1.5 0 000 3zm-10.34-9.26a1.5 1.5 0 000-3 1.5 1.5 0 000 3zm-8.37 1.6a1.5 1.5 0 000-3 1.5 1.5 0 000 3zm2.49-8.19a1.5 1.5 0 000-3 1.5 1.5 0 000 3zm-3.38-6.24a1.5 1.5 0 000-3 1.5 1.5 0 000 3zm-3.39 12.3a1.5 1.5 0 000-3 1.5 1.5 0 000 3zm-2.85 5.7a1.5 1.5 0 000-3 1.5 1.5 0 000 3zm5.19 2.85a1.5 1.5 0 000-3 1.5 1.5 0 000 3zm-1.8 5.52a1.5 1.5 0 000-3 1.5 1.5 0 000 3zm-5.53 0a1.5 1.5 0 000-3 1.5 1.5 0 000 3zm5.17 8.02a1.5 1.5 0 000-3 1.5 1.5 0 000 3zm-7.48-1.78a1.5 1.5 0 000-3 1.5 1.5 0 000 3zm-1.25 7.12a1.5 1.5 0 000-3 1.5 1.5 0 000 3zm-1.78-3.92a1.5 1.5 0 000-3 1.5 1.5 0 000 3zM144 212a1.5 1.5 0 000-3 1.5 1.5 0 000 3zm6-4.95a1.5 1.5 0 000-3 1.5 1.5 0 000 3zm1.63 8.38a1.5 1.5 0 000-3 1.5 1.5 0 000 3zm-5.7 2.14a1.5 1.5 0 000-3 1.5 1.5 0 000 3zm9.8 4.98a1.5 1.5 0 000-3 1.5 1.5 0 000 3zm4.99-13.89a1.5 1.5 0 000-3 1.5 1.5 0 000 3zm-2.86-6.95a1.5 1.5 0 000-3 1.5 1.5 0 000 3zm-9.08-1.96a1.5 1.5 0 000-3 1.5 1.5 0 000 3zm0-15.68a1.5 1.5 0 000-3 1.5 1.5 0 000 3zm3.22 8.38a1.5 1.5 0 000-3 1.5 1.5 0 000 3zm11.21-7.67a1.5 1.5 0 000-3 1.5 1.5 0 000 3zm7.13 8.02a1.5 1.5 0 000-3 1.5 1.5 0 000 3zm8.73-1.42a1.5 1.5 0 000-3 1.5 1.5 0 000 3zm6.05 3.92a1.5 1.5 0 000-3 1.5 1.5 0 000 3zm-9.97-12.3a1.5 1.5 0 000-3 1.5 1.5 0 000 3zm-8.02-6.41a1.5 1.5 0 000-3 1.5 1.5 0 000 3zm-9.13.18a1.5 1.5 0 000-3 1.5 1.5 0 000 3zm2.72-13.54a1.5 1.5 0 000-3 1.5 1.5 0 000 3zm9.97 3.2a1.5 1.5 0 000-3 1.5 1.5 0 000 3zm9.09 5.7a1.5 1.5 0 000-3 1.5 1.5 0 000 3zM175 175.7a1.5 1.5 0 000-3 1.5 1.5 0 000 3zm-5 6.06a1.5 1.5 0 000-3 1.5 1.5 0 000 3zm21-5.88a1.5 1.5 0 000-3 1.5 1.5 0 000 3zm3.74 6.77a1.5 1.5 0 000-3 1.5 1.5 0 000 3zM199 175a1.5 1.5 0 000-3 1.5 1.5 0 000 3zm6.79-7.85a1.5 1.5 0 000-3 1.5 1.5 0 000 3zm-9.98.17a1.5 1.5 0 000-3 1.5 1.5 0 000 3zm2.68-13a1.5 1.5 0 000-3 1.5 1.5 0 000 3zm-8.91 4.81a1.5 1.5 0 000-3 1.5 1.5 0 000 3zm0 5.17a1.5 1.5 0 000-3 1.5 1.5 0 000 3zm-13.9-13.19a1.5 1.5 0 000-3 1.5 1.5 0 000 3zm15.86-7.66a1.5 1.5 0 000-3 1.5 1.5 0 000 3zm-9.98-12.11a1.5 1.5 0 000-3 1.5 1.5 0 000 3zm-.36 25.47a1.5 1.5 0 000-3 1.5 1.5 0 000 3zm-52.91 183.67a1.5 1.5 0 000-3 1.5 1.5 0 000 3zm2.16 7.91a1.5 1.5 0 000-3 1.5 1.5 0 000 3zm-1.2 6.24a1.5 1.5 0 000-3 1.5 1.5 0 000 3zm2.88 8.16a1.5 1.5 0 000-3 1.5 1.5 0 000 3zm-3.36-2.88a1.5 1.5 0 000-3 1.5 1.5 0 000 3zm4.32 11.51a1.5 1.5 0 000-3 1.5 1.5 0 000 3z" fill="#706f6b"/><path d="M291.54 48.63c29.12 10.49 61 14.4 87.43 31.58 15.94 14.59 21.63 38 30.45 57.21M65.21 186.85c13.6-35.43 24.56-73.32 48.06-103.67 27.32-18.2 60-23.76 90.46-34.78m-76.8 413.47c-1.34-11.26 1.44-20 0-30.81-6.15-46.82-.89-92.88-3.1-140m248.36.49q-.27 61.74-.62 123.47c-.81 9-2.68 16.4-3.55 25.44" fill="none" stroke="#262521" stroke-linecap="round" stroke-linejoin="round" stroke-width="3"/></svg>