<svg xmlns="http://www.w3.org/2000/svg" width="500" height="550" viewBox="0 0 500 550"><path d="M372.19 291.55q-.27 61.74-.62 123.47c-.81 9-2.68 16.4-3.55 25.44-1 10.07 1.34 17-1.5 25.63-.58 1.77-2 1.67-3.35 1.44-44.58-7.74-101.65-5.72-146.65-2.93-24.59.58-58.62-1.67-83 2.09-5.22.6-5.68.28-6.62-4.82-1.34-11.26 1.94-18.53.53-29.31-6.15-46.82-1.39-94.38-3.6-141.53-1.41 2.82-2.94 5.6-4.29 8.46-2.36 10.67-17.5 9.3-11.81 16.18 11.12 7.95 6.41 21.38 5.15 32.56-.24 3.15-1.34 6.27-.37 9.58.51 8.43-3.19 16.94-4.38 25.31-1.5 8-2.61 15.83-1.53 23.93a5.17 5.17 0 01-1.14 3.3c-5.71 6.28-7.74 14-9.19 22.06-.57 3.18-.61 3-3.73 2-12.38-3.52-26.1-4.38-38.61-1.18-1.39.34-2.1 0-2.41-1.47-2-7.76-2.17-16.67-8.49-22.43a6.66 6.66 0 01-1.33-3.22 145 145 0 01-2.7-33.25c-1.91-63 2.61-126.93 26.2-186 13.6-35.43 24.56-73.32 48.06-103.67 27.32-18.2 60-23.76 90.46-34.78a3.16 3.16 0 012.72.43c5 5.55 11.46 8.41 18.56 9.67 19.19 2.43 41.29 5.55 58.65-4.88 2.86-1.27 4.2-6.53 7.88-5 29.12 10.49 61 14.4 87.43 31.58 15.94 14.59 21.63 38 30.45 57.21 27.82 67.48 58 137.39 51.06 212.07-1.2 18.66-.24 37.46-3.29 56-.48 4.66-5.2 7.09-5.56 11.78-1.21 5.28-2.07 10.65-2.9 16-.41 2.6-.42 2.83-3.09 2.33-12.48-2.66-25.25-5.49-37.8-1.58-8.33-.15-8.13-15.56-11.44-21.41-6.28-7.36-3.61-9-5.33-17.63-.9-9.7-4.68-20.27.79-29.26 2-3.53 1.87-7.05.51-10.66-4.9-11.29-7.4-23.42-10.45-35.29-1.06-4.31-1.31-8.5 1.61-12.34 1.49-7.15-10.43-8.7-10.93-15.93z" fill="#262521" stroke="#262521" stroke-linecap="round" stroke-linejoin="round" stroke-width="3"/><path d="M137 347.72c.43 13.3 3.53 55 4.94 68.23 2.37 22.12-14.63 19.28-14.63 19.28-7.21-48.93 1.34-96.23-.31-145.63l-.42-.08c-.14 2.11.68-28.15-1-58.8 25.25-58.32 16.78-159.44-5.41-152.46 16.19-10.54 24.64-11.72 43.08-16.86 8.16 25.42 24.68 45.44 36.87 69.14C261.57 249.94 126.78 197 137 347.72z" fill="#3a3934"/><path d="M133 349.67c.43 13.3 3.65 55 4.94 68.23 1.7 17.36-11 13.16-11 13.16-7.22-48.93-2.31-90.13-4-139.51l-.42-.08c-.14 2.11.68-28.15-1-58.8 25.25-58.32 16.78-159.44-5.41-152.46 16.28-10.54 23.73-11.21 42.17-16.36 8.16 25.42 26.1 44.26 36.87 68.64C254.09 243.42 122.65 195 133 349.67z" fill="#adadad"/><path d="M358.91 346c-.43 13.3-4.24 60.17-4.85 73.48-.6 13 4.64 17 14.46 16.73 7.22-48.93-3-94.74-1.33-144.12l.41-.08c.15 2.11-1.07-32.38 2.09-62.74-16.76-69.43-17.92-155.54 4.31-148.56-16.19-10.54-34.48-16.09-52.92-21.22-8.15 25.41-15 47.92-25.81 72.3-58.96 110.92 78.47 58.91 63.64 214.21z" fill="#3a3934"/><path d="M363.91 345.46c-.43 13.3-3.94 60.19-4.85 73.48.48 10.27.25 13.81 10.06 13.52 7.22-48.94 1.39-91.53 3.07-140.91l.41-.08c.15 2.11-1.07-32.38 2.09-62.74-16.76-69.39-17.92-155.5 4.31-148.52-16.22-10.54-34.51-16.09-52.95-21.21-8.15 25.41-15 47.92-25.81 72.3-58.93 110.91 78.5 58.9 63.67 214.16z" fill="#adadad"/><path d="M372.37 244.89c3-2.35.5-19.32.58-21.64 2.46-65.32-24.46-127.62 1.52-146-8.33-5.42-20.69-10.78-29.86-14.18-25.47 92.08 23.39 176.32 27.76 181.82z" fill="#878787"/><path d="M359.34 192.73c4.24-1 8.44-2.13 12.64-3.32-.16-1.81-.32-3.63-.5-5.43-2.92.75-5.81 1.67-8.69 2.58a97.82 97.82 0 01-14.33 3.79c.44 1.45.88 2.87 1.34 4.27 3.2-.51 6.38-1.15 9.54-1.89zM369.67 222.14c1.12-.6 2.24-1.21 3.35-1.84.2-8.16 0-16.27-.55-24.24-1.77.46-3.54.95-5.28 1.5a56.54 56.54 0 00-14.19 6.35c3 8.45 6.19 15.82 9 21.92 2.6-1.13 5.16-2.37 7.67-3.69zM344.94 138q10.29-.09 20.58-.38c-.45-3.46-.87-6.83-1.22-10.09h-26.8c.15 3.55.38 7 .68 10.5 2.26-.03 4.51-.03 6.76-.03z" fill="#fff" opacity=".5"/><path d="M373.66 240.69c3-2.35.94-9.64 1-12C377.14 163.41 353 98.63 379 80.21c-8.33-5.42-20.69-10.78-29.86-14.18-24.71 67.2 16.6 165.75 24.52 174.66z" fill="#fff"/><path d="M124.59 230.23c0 3.79-3.78 23.05-1.94 26.12 9.16-12.84 44-112.52 21.2-187.9a149.73 149.73 0 00-27.08 14.23c16.47 22.74 7.4 74.78 7.82 147.55z" fill="#878787"/><path d="M126.88 212.45a112 112 0 0110.32 6.45c2.65-9.07 5.25-19.35 7.48-30.42h-19.47c-.22 7.32-.42 14.93-.53 22.82.74.37 1.48.75 2.2 1.15zM145.82 182.66c.45-2.44.89-4.92 1.3-7.43-7.17.47-14.33 1-21.51 1.25-.07 2-.14 4.1-.21 6.18zM129.57 121c6.94-1.12 13.72-3 20.6-4.44l1.11-.23q-.17-4.83-.54-9.65c-8.3 2.51-16.51 5.29-24.74 8 .18 2.16.31 4.4.42 6.71 1.05-.04 2.1-.18 3.15-.39z" fill="#fff" opacity=".5"/><path d="M121.61 232.67c0 3.79-.8 11.59 1 14.66 5.43-10.37 39.9-101.6 17.13-177a164.53 164.53 0 00-28.51 14.82c16.51 22.77 9.97 74.75 10.38 147.52z" fill="#fff"/><path d="M204.7 51.38c.8-.26 4.44 39.77 42.44 41.81s45.37-41.58 45.37-41.58" fill="none" stroke="#636363" stroke-linecap="round" stroke-linejoin="round"/><path d="M121.2 171.92s3 37.54.91 53.17.11 29.69.11 32.87 1.89 33.04 1.89 33.04M371.53 166s5.9 70 .11 98l1 27.47" fill="none" stroke="#262521" stroke-linecap="round" stroke-linejoin="round" stroke-width="3"/><path d="M51.43 409.51S80.08 400 96.58 412M402.29 412s25.94-8.31 43.55 0M133.45 438.85s155.28-12.31 227.71 2.37" fill="none" stroke="#636363" stroke-linecap="round" stroke-linejoin="round"/><path d="M348.13 212.06a1.5 1.5 0 000-3 1.5 1.5 0 000 3zM354.31 216.19a1.5 1.5 0 000-3 1.5 1.5 0 000 3zM349.16 220.31a1.5 1.5 0 000-3 1.5 1.5 0 000 3zM356.31 225.45a1.5 1.5 0 000-3 1.5 1.5 0 000 3zM349.92 229.56a1.5 1.5 0 000-3 1.5 1.5 0 000 3zM338 217.68a1.5 1.5 0 000-3 1.5 1.5 0 000 3zM338 230.48a1.5 1.5 0 000-3 1.5 1.5 0 000 3zM354 235a1.5 1.5 0 000-3 1.5 1.5 0 000 3zM356.31 243.72a1.5 1.5 0 000-3 1.5 1.5 0 000 3zM360.88 243.72a1.5 1.5 0 000-3 1.5 1.5 0 000 3zM360.88 232.76a1.5 1.5 0 000-3 1.5 1.5 0 000 3zM365 239.16a1.5 1.5 0 000-3 1.5 1.5 0 000 3zM357.68 238.7a1.5 1.5 0 000-3 1.5 1.5 0 000 3zM366.82 252.4a1.5 1.5 0 000-3 1.5 1.5 0 000 3zM359.51 251a1.5 1.5 0 000-3 1.5 1.5 0 000 3zM367.74 245.09a1.5 1.5 0 000-3 1.5 1.5 0 000 3zM366.37 262.46a1.5 1.5 0 000-3 1.5 1.5 0 000 3zM348.09 247.38a1.5 1.5 0 000-3 1.5 1.5 0 000 3zM348.09 238.7a1.5 1.5 0 000-3 1.5 1.5 0 000 3zM298.75 199.41a1.5 1.5 0 000-3 1.5 1.5 0 000 3zM292.35 188.44a1.5 1.5 0 000-3 1.5 1.5 0 000 3zM305.6 188.9a1.5 1.5 0 000-3 1.5 1.5 0 000 3zM297.84 176.57a1.5 1.5 0 000-3 1.5 1.5 0 000 3zM366.37 293.06a1.5 1.5 0 000-3 1.5 1.5 0 000 3zM369.11 301.29a1.5 1.5 0 000-3 1.5 1.5 0 000 3zM366.82 305.4a1.5 1.5 0 000-3 1.5 1.5 0 000 3zM368.65 317.28a1.5 1.5 0 000-3 1.5 1.5 0 000 3zM366.82 362.51a1.5 1.5 0 000-3 1.5 1.5 0 000 3zM364.08 375.76a1.5 1.5 0 000-3 1.5 1.5 0 000 3zM366.82 385.35a1.5 1.5 0 000-3 1.5 1.5 0 000 3zM364.08 391.29a1.5 1.5 0 000-3 1.5 1.5 0 000 3zM365.91 398.14a1.5 1.5 0 000-3 1.5 1.5 0 000 3zM363.17 408.65a1.5 1.5 0 000-3 1.5 1.5 0 000 3zM362.25 415.5a1.5 1.5 0 000-3 1.5 1.5 0 000 3zM174.94 214a1.5 1.5 0 000-3 1.5 1.5 0 000 3zM184.54 220.42a1.5 1.5 0 000-3 1.5 1.5 0 000 3zM188.19 212.66a1.5 1.5 0 000-3 1.5 1.5 0 000 3zM182.25 213.57a1.5 1.5 0 000-3 1.5 1.5 0 000 3zM179.05 207.63a1.5 1.5 0 000-3 1.5 1.5 0 000 3zM192.3 202.61a1.5 1.5 0 000-3 1.5 1.5 0 000 3zM193.67 208.55a1.5 1.5 0 000-3 1.5 1.5 0 000 3zM184.08 204.43a1.5 1.5 0 000-3 1.5 1.5 0 000 3zM201 204.89a1.5 1.5 0 000-3 1.5 1.5 0 000 3zM173.57 226.82a1.5 1.5 0 000-3 1.5 1.5 0 000 3zM166.26 217.23a1.5 1.5 0 000-3 1.5 1.5 0 000 3zM166.72 205.8a1.5 1.5 0 000-3 1.5 1.5 0 000 3zM164 193.93a1.5 1.5 0 000-3 1.5 1.5 0 000 3zM179.51 200.32a1.5 1.5 0 000-3 1.5 1.5 0 000 3zM184.54 183.88a1.5 1.5 0 000-3 1.5 1.5 0 000 3zM196.41 194.84a1.5 1.5 0 000-3 1.5 1.5 0 000 3zM206 182.51a1.5 1.5 0 000-3 1.5 1.5 0 000 3zM162.61 230a1.5 1.5 0 000-3 1.5 1.5 0 000 3zM164.89 238.24a1.5 1.5 0 000-3 1.5 1.5 0 000 3zM170.37 232.3a1.5 1.5 0 000-3 1.5 1.5 0 000 3zM168.09 224.08a1.5 1.5 0 000-3 1.5 1.5 0 000 3zM149.36 229.1a1.5 1.5 0 000-3 1.5 1.5 0 000 3zM149.81 241.9a1.5 1.5 0 000-3 1.5 1.5 0 000 3zM134.74 262.46a1.5 1.5 0 000-3 1.5 1.5 0 000 3zM143 262.91a1.5 1.5 0 000-3 1.5 1.5 0 000 3zM140.22 269.31a1.5 1.5 0 000-3 1.5 1.5 0 000 3zM128.34 269.31a1.5 1.5 0 000-3 1.5 1.5 0 000 3zM132.91 281.64a1.5 1.5 0 000-3 1.5 1.5 0 000 3zM134.28 274.79a1.5 1.5 0 000-3 1.5 1.5 0 000 3zM138.39 279.36a1.5 1.5 0 000-3 1.5 1.5 0 000 3zM132.45 296.72a1.5 1.5 0 000-3 1.5 1.5 0 000 3zM132 306.31a1.5 1.5 0 000-3 1.5 1.5 0 000 3zM129.71 315.45a1.5 1.5 0 000-3 1.5 1.5 0 000 3zM131.54 328.24a1.5 1.5 0 000-3 1.5 1.5 0 000 3zM127.89 377.13a1.5 1.5 0 000-3 1.5 1.5 0 000 3zM132.45 383.07a1.5 1.5 0 000-3 1.5 1.5 0 000 3zM129.71 393.57a1.5 1.5 0 000-3 1.5 1.5 0 000 3zM132.45 399.06a1.5 1.5 0 000-3 1.5 1.5 0 000 3zM134.28 408.65a1.5 1.5 0 000-3 1.5 1.5 0 000 3zM129.71 405a1.5 1.5 0 000-3 1.5 1.5 0 000 3zM133.82 416.87a1.5 1.5 0 000-3 1.5 1.5 0 000 3z" fill="#fff"/><path d="M344.52 202.15a1.5 1.5 0 000-3 1.5 1.5 0 000 3zM336.67 196.67a1.5 1.5 0 000-3 1.5 1.5 0 000 3zM338.29 203.41a1.5 1.5 0 000-3 1.5 1.5 0 000 3zM341.76 197.43a1.5 1.5 0 000-3 1.5 1.5 0 000 3zM342.55 209.08a1.5 1.5 0 000-3 1.5 1.5 0 000 3zM334 209.87a1.5 1.5 0 000-3 1.5 1.5 0 000 3zM343.49 216.17a1.5 1.5 0 000-3 1.5 1.5 0 000 3zM338.45 210.82a1.5 1.5 0 000-3 1.5 1.5 0 000 3zM333.1 216a1.5 1.5 0 000-3 1.5 1.5 0 000 3zM335.62 221.37a1.5 1.5 0 000-3 1.5 1.5 0 000 3zM332.27 68.08a1.5 1.5 0 000-3 1.5 1.5 0 000 3zM337.79 67.48a1.5 1.5 0 000-3 1.5 1.5 0 000 3zM336 73a1.5 1.5 0 000-3 1.5 1.5 0 000 3zM340.35 71.43a1.5 1.5 0 000-3 1.5 1.5 0 000 3zM329.31 74.58a1.5 1.5 0 000-3 1.5 1.5 0 000 3zM327.93 65.91a1.5 1.5 0 000-3 1.5 1.5 0 000 3zM334.63 82.28a1.5 1.5 0 000-3 1.5 1.5 0 000 3zM338.78 77.54a1.5 1.5 0 000-3 1.5 1.5 0 000 3zM332.66 77.54a1.5 1.5 0 000-3 1.5 1.5 0 000 3zM334.83 90a1.5 1.5 0 000-3 1.5 1.5 0 000 3zM329.31 87.21a1.5 1.5 0 000-3 1.5 1.5 0 000 3zM333.65 97.86a1.5 1.5 0 000-3 1.5 1.5 0 000 3zM324 101a1.5 1.5 0 000-3 1.5 1.5 0 000 3zM333.06 114.63a1.5 1.5 0 000-3 1.5 1.5 0 000 3zM316.69 217.81a1.5 1.5 0 000-3 1.5 1.5 0 000 3zM309.52 213.62a1.5 1.5 0 000-3 1.5 1.5 0 000 3zM318.78 212.13a1.5 1.5 0 000-3 1.5 1.5 0 000 3zM303.54 208.25a1.5 1.5 0 000-3 1.5 1.5 0 000 3zM305 199a1.5 1.5 0 000-3 1.5 1.5 0 000 3zM308.32 207.35a1.5 1.5 0 000-3 1.5 1.5 0 000 3zM314 207.35a1.5 1.5 0 000-3 1.5 1.5 0 000 3zM322.07 223.48a1.5 1.5 0 000-3 1.5 1.5 0 000 3zM343.28 234.24a1.5 1.5 0 000-3 1.5 1.5 0 000 3zM343 240.51a1.5 1.5 0 000-3 1.5 1.5 0 000 3zM346.26 243.5a1.5 1.5 0 000-3 1.5 1.5 0 000 3zM341.78 246.19a1.5 1.5 0 000-3 1.5 1.5 0 000 3zM337.9 237.82a1.5 1.5 0 000-3 1.5 1.5 0 000 3zM332.82 234.24a1.5 1.5 0 000-3 1.5 1.5 0 000 3zM345.67 229.46a1.5 1.5 0 000-3 1.5 1.5 0 000 3zM343 225.28a1.5 1.5 0 000-3 1.5 1.5 0 000 3zM347.76 225.87a1.5 1.5 0 000-3 1.5 1.5 0 000 3zM357.32 258.73a1.5 1.5 0 000-3 1.5 1.5 0 000 3zM363.29 256.64a1.5 1.5 0 000-3 1.5 1.5 0 000 3zM362.1 262.62a1.5 1.5 0 000-3 1.5 1.5 0 000 3zM357.62 264.11a1.5 1.5 0 000-3 1.5 1.5 0 000 3zM363.59 272.77a1.5 1.5 0 000-3 1.5 1.5 0 000 3zM361.5 268.29a1.5 1.5 0 000-3 1.5 1.5 0 000 3zM365.08 268a1.5 1.5 0 000-3 1.5 1.5 0 000 3zM369.27 275.46a1.5 1.5 0 000-3 1.5 1.5 0 000 3zM367.77 279.65a1.5 1.5 0 000-3 1.5 1.5 0 000 3zM367.77 285.32a1.5 1.5 0 000-3 1.5 1.5 0 000 3zM363.59 279.05a1.5 1.5 0 000-3 1.5 1.5 0 000 3zM368.67 326.25a1.5 1.5 0 000-3 1.5 1.5 0 000 3zM368.37 332.82a1.5 1.5 0 000-3 1.5 1.5 0 000 3zM366.58 339.1a1.5 1.5 0 000-3 1.5 1.5 0 000 3zM369 345.07a1.5 1.5 0 000-3 1.5 1.5 0 000 3zM367.77 411.69a1.5 1.5 0 000-3 1.5 1.5 0 000 3zM367.77 419.16a1.5 1.5 0 000-3 1.5 1.5 0 000 3zM148.71 73.12a1.5 1.5 0 000-3 1.5 1.5 0 000 3zM153.15 77.39a1.5 1.5 0 000-3 1.5 1.5 0 000 3zM153.32 71.25a1.5 1.5 0 000-3 1.5 1.5 0 000 3zM157.92 73.46a1.5 1.5 0 000-3 1.5 1.5 0 000 3zM148.71 80.46a1.5 1.5 0 000-3 1.5 1.5 0 000 3zM151.78 91.88a1.5 1.5 0 000-3 1.5 1.5 0 000 3zM155.71 84.38a1.5 1.5 0 000-3 1.5 1.5 0 000 3zM159.12 92.22a1.5 1.5 0 000-3 1.5 1.5 0 000 3zM153.83 102.45a1.5 1.5 0 000-3 1.5 1.5 0 000 3zM142.9 255a1.5 1.5 0 000-3 1.5 1.5 0 000 3zM143.43 247.32a1.5 1.5 0 000-3 1.5 1.5 0 000 3zM148.42 247.85a1.5 1.5 0 000-3 1.5 1.5 0 000 3zM148.24 253.2a1.5 1.5 0 000-3 1.5 1.5 0 000 3zM147.53 259.26a1.5 1.5 0 000-3 1.5 1.5 0 000 3zM155 249.64a1.5 1.5 0 000-3 1.5 1.5 0 000 3zM155.9 239.3a1.5 1.5 0 000-3 1.5 1.5 0 000 3zM159.65 243.93a1.5 1.5 0 000-3 1.5 1.5 0 000 3zM149.31 234.67a1.5 1.5 0 000-3 1.5 1.5 0 000 3zM140.94 236.27a1.5 1.5 0 000-3 1.5 1.5 0 000 3zM143.43 228.08a1.5 1.5 0 000-3 1.5 1.5 0 000 3zM140.05 221.84a1.5 1.5 0 000-3 1.5 1.5 0 000 3zM136.66 234.14a1.5 1.5 0 000-3 1.5 1.5 0 000 3zM133.81 239.84a1.5 1.5 0 000-3 1.5 1.5 0 000 3zM139 242.69a1.5 1.5 0 000-3 1.5 1.5 0 000 3zM137.2 248.21a1.5 1.5 0 000-3 1.5 1.5 0 000 3zM131.67 248.21a1.5 1.5 0 000-3 1.5 1.5 0 000 3zM136.84 256.23a1.5 1.5 0 000-3 1.5 1.5 0 000 3zM129.36 254.45a1.5 1.5 0 000-3 1.5 1.5 0 000 3zM128.11 261.57a1.5 1.5 0 000-3 1.5 1.5 0 000 3zM126.33 257.65a1.5 1.5 0 000-3 1.5 1.5 0 000 3zM144 212a1.5 1.5 0 000-3 1.5 1.5 0 000 3zM150 207.05a1.5 1.5 0 000-3 1.5 1.5 0 000 3zM151.63 215.43a1.5 1.5 0 000-3 1.5 1.5 0 000 3zM145.93 217.57a1.5 1.5 0 000-3 1.5 1.5 0 000 3zM155.73 222.55a1.5 1.5 0 000-3 1.5 1.5 0 000 3zM160.72 208.66a1.5 1.5 0 000-3 1.5 1.5 0 000 3zM157.86 201.71a1.5 1.5 0 000-3 1.5 1.5 0 000 3zM148.78 199.75a1.5 1.5 0 000-3 1.5 1.5 0 000 3zM148.78 184.07a1.5 1.5 0 000-3 1.5 1.5 0 000 3zM152 192.45a1.5 1.5 0 000-3 1.5 1.5 0 000 3zM163.21 184.78a1.5 1.5 0 000-3 1.5 1.5 0 000 3zM170.34 192.8a1.5 1.5 0 000-3 1.5 1.5 0 000 3zM179.07 191.38a1.5 1.5 0 000-3 1.5 1.5 0 000 3zM185.12 195.3a1.5 1.5 0 000-3 1.5 1.5 0 000 3zM175.15 183a1.5 1.5 0 000-3 1.5 1.5 0 000 3zM167.13 176.59a1.5 1.5 0 000-3 1.5 1.5 0 000 3zM158 176.77a1.5 1.5 0 000-3 1.5 1.5 0 000 3zM160.72 163.23a1.5 1.5 0 000-3 1.5 1.5 0 000 3zM170.69 166.43a1.5 1.5 0 000-3 1.5 1.5 0 000 3zM179.78 172.13a1.5 1.5 0 000-3 1.5 1.5 0 000 3zM175 175.7a1.5 1.5 0 000-3 1.5 1.5 0 000 3zM170 181.76a1.5 1.5 0 000-3 1.5 1.5 0 000 3zM191 175.88a1.5 1.5 0 000-3 1.5 1.5 0 000 3zM194.74 182.65a1.5 1.5 0 000-3 1.5 1.5 0 000 3zM199 175a1.5 1.5 0 000-3 1.5 1.5 0 000 3zM205.79 167.15a1.5 1.5 0 000-3 1.5 1.5 0 000 3zM195.81 167.32a1.5 1.5 0 000-3 1.5 1.5 0 000 3zM198.49 154.32a1.5 1.5 0 000-3 1.5 1.5 0 000 3zM189.58 159.13a1.5 1.5 0 000-3 1.5 1.5 0 000 3zM189.58 164.3a1.5 1.5 0 000-3 1.5 1.5 0 000 3zM175.68 151.11a1.5 1.5 0 000-3 1.5 1.5 0 000 3zM191.54 143.45a1.5 1.5 0 000-3 1.5 1.5 0 000 3zM181.56 131.34a1.5 1.5 0 000-3 1.5 1.5 0 000 3zM181.2 156.81a1.5 1.5 0 000-3 1.5 1.5 0 000 3zM128.29 340.48a1.5 1.5 0 000-3 1.5 1.5 0 000 3zM130.45 348.39a1.5 1.5 0 000-3 1.5 1.5 0 000 3zM129.25 354.63a1.5 1.5 0 000-3 1.5 1.5 0 000 3zM132.13 362.79a1.5 1.5 0 000-3 1.5 1.5 0 000 3zM128.77 359.91a1.5 1.5 0 000-3 1.5 1.5 0 000 3zM133.09 371.42a1.5 1.5 0 000-3 1.5 1.5 0 000 3z" fill="#706f6b"/><path d="M291.54 48.63c29.12 10.49 61 14.4 87.43 31.58 15.94 14.59 21.63 38 30.45 57.21M65.21 186.85c13.6-35.43 24.56-73.32 48.06-103.67 27.32-18.2 60-23.76 90.46-34.78M126.93 461.87c-1.34-11.26 1.44-20 0-30.81-6.15-46.82-.89-92.88-3.1-140M372.19 291.55q-.27 61.74-.62 123.47c-.81 9-2.68 16.4-3.55 25.44" fill="none" stroke="#262521" stroke-linecap="round" stroke-linejoin="round" stroke-width="3"/></svg>