<svg xmlns="http://www.w3.org/2000/svg" width="500" height="550" viewBox="0 0 500 550"><path d="M467.36 170.44c-22.24-32.92-75.74-84.54-92.64-94.14S294.07 49 294.07 49c-48.16 30.16-87.35 0-87.35 0s-66.91 17.62-83.34 28.88-90.84 87.42-90.84 94.26 53.44 56.43 62.85 56 35.49-17.11 35.91-12.83c3 106.81 3.39 245.74 2.36 250.07-1.82 7.65-1.09 17.66 3.64 18.54s42.22-7.43 57.87-4.15 176.13 4.51 179.41 2.33c2-1.32.68-149.85-3.54-267.22-.31-8.55 22.75 18 31.33 12.83 7.63-4.59 67.91-52.94 64.99-57.27z" fill="#262521" stroke="#262521" stroke-linecap="round" stroke-linejoin="round" stroke-width="3"/><path d="M372 210s-1-15.7-1-25.51-6.46-19.13-4.36-37.34l4.38-3.1m-240.6 68.69s1.68-50.44.88-53.77m75.42-107.46s4 48.55 43.68 46.73 43.67-46.73 43.67-46.73" fill="none" stroke="#636363" stroke-linecap="round" stroke-linejoin="round"/><path d="M316.93 150.23c.8-1 2.09-.7 3.25-.78 1.85 0 4.92-.68 5.75 1.45 1 2.7-1.7 2.76-.72 3.93s.29 2.89 1.68 3.75c.36.2.15.64-.17.88a2.55 2.55 0 01-4.12-1.61c-.14-.83-.09-2.12-1.11-2.33-.5 0-.47.47-.49.84a3 3 0 00.29 2.14c1.65 2.05-3.44 1.73-4.48 1.48a7 7 0 00-1.76.12h-6.27a5.25 5.25 0 01-1 0c-.63-.12-.88-.91-.35-1.22 1.72-1.08 1.29-4.49 1.66-6.33.11-.56-.44-1-.8-1.37-1.1.22-2.47 4.26-3.22 5.39a11.67 11.67 0 01-1.8 3A1.28 1.28 0 01301 159c-.49-1.42-.89-2.88-1.31-4.32-.49-1-.26-3.12-1.65-3.31 1.5 5.29-4.38 10.93-9.32 7.71-.42-.26-.69-.37-1 .11-.39.69-1 .78-1.73.76-2-.07-4 0-6 0a1.83 1.83 0 01-1.48-.45c-.46-.74 1.16-1.34 1.19-2.17.28-1.61.48-3.25.7-4.88a1 1 0 00-.56-1.1c-.62-.38-.58-1 .11-1.28 1-.42 5-1 5.29.37-.15.55-1.18 1.12-1.26 1.71-.23 1.72-.35 3.46-.49 5.19.07 1.49 2.45.7 3.05-.16a5.93 5.93 0 001.21-2.74c.8-4 6.09-6.84 9.43-3.83.1.09.23.15.27 0a5.12 5.12 0 015.24-.9c1.51.75-.62 1.29-.21 2.28.23.89.43 1.78.68 2.66.16.41.53.58.78.08.4-.95.81-1.9 1.13-2.88.16-.85-1.25-1.83.2-2.22a21.51 21.51 0 014.47-.16c1.88 0 3.75-.11 5.63-.06.53.09.98.52 1.56.82zm.16 7.65c.17-.26.31-.39.33-.53.19-1.74.37-3.49.52-5.24 0-.43-.1-.9-.64-.93s-.29.53-.45.78-.4.68-.65.72a1.47 1.47 0 01-1.13-.71 1.69 1.69 0 00-1.92-.66c-1 .24-.84 1.81-.48 2.5.4-.29.92-1.08 1.28-1.21 1.36.38.71 2.29.76 3.34a1.09 1.09 0 01-1 1.11c-.83 0-.44-1-1.07-1.36-.14.13-.39.26-.4.4 0 .8-.4 2 .67 2.28a2.19 2.19 0 002.33-1.2 1.4 1.4 0 011-.52c.37.14.65.75.85 1.23zm-25.62-.83c.3 1.78 1.47.74 2.06.1.67-1.24 1.67-5.37 0-5.89-.56-.09-1.25.52-1.5 1.45a22.72 22.72 0 00-.56 4.34zm29.82-4.56c-.06.53 0 1.71.77 1.12.58-.54.87-2.63-.31-2.62-.5.23-.45 1.5-.46 1.5z" fill="#b63737"/><path d="M277.26 165.46h51.06v50.15s-15.68 6.74-25.53 6.74-25.53-6.74-25.53-6.74zm0 8.82h51.06" fill="none" stroke="#636363" stroke-linecap="round" stroke-linejoin="round"/></svg>