<svg xmlns="http://www.w3.org/2000/svg" width="500" height="550" viewBox="0 0 500 550"><title>s06e05-02</title><path d="M354.81,291.55q-.26,61.74-.61,123.47c-.81,9-2.69,16.4-3.55,25.44-1,10.07,1.34,17-1.5,25.63-.59,1.77-2,1.67-3.35,1.44-44.59-7.74-101.66-5.72-146.66-2.93-9.61.23-20.68,0-32-.09,0,0-.57,14.07-5.42,14.1-6.86,0-16.23-3.8-25.12-7.15,0,0-18.23,9.29-23,6.53s-3-11-4-16.12c-1.35-11.26,1.44-20,0-30.81-6.14-46.82-.88-92.88-3.1-140-1.41,2.82-2.93,5.6-4.28,8.46-2.37,10.67-17.51,9.3-11.81,16.18,11.11,7.95,6.4,21.38,5.15,32.56-.25,3.15-1.35,6.27-.37,9.58.5,8.43-3.19,16.94-4.38,25.31-1.5,8-2.61,15.83-1.54,23.93a5.16,5.16,0,0,1-1.13,3.3c-5.71,6.28-7.75,14-9.19,22.06-.57,3.18-.61,3-3.74,2-12.38-3.52-26.09-4.38-38.61-1.18-1.38.34-2.1,0-2.4-1.47-2-7.76-2.18-16.67-8.49-22.43a6.66,6.66,0,0,1-1.33-3.22,143.91,143.91,0,0,1-2.72-33.3c-1.92-63,2.6-126.93,26.19-186,13.6-35.43,24.56-73.32,48.06-103.67,27.33-18.2,60-23.76,90.46-34.78a3.16,3.16,0,0,1,2.72.43c5,5.55,11.47,8.41,18.57,9.67,19.18,2.43,41.29,5.55,58.64-4.88,2.86-1.27,4.2-6.53,7.88-5,29.12,10.49,61,14.4,87.43,31.58,16,14.59,21.63,38,30.46,57.21,27.81,67.48,58,137.39,51.05,212.07-1.19,18.66-.23,37.46-3.28,56-.49,4.66-5.21,7.09-5.56,11.78-1.22,5.28-2.08,10.65-2.91,16-.4,2.6-.41,2.83-3.09,2.33-12.47-2.66-25.25-5.49-37.79-1.58-8.34-.15-8.13-15.56-11.45-21.41-6.27-7.36-3.6-9-5.32-17.63-.9-9.7-4.69-20.27.79-29.26,2-3.53,1.86-7.05.51-10.66-4.9-11.29-7.4-23.42-10.46-35.29-1.06-4.31-1.3-8.5,1.62-12.34,1.49-7.15-10.43-8.7-10.93-15.93Z" fill="#262521" stroke="#262521" stroke-linecap="round" stroke-linejoin="round" stroke-width="3"/><path d="M187.33,51.38c.8-.26,4.44,39.77,42.44,41.81s45.36-41.58,45.36-41.58" fill="none" stroke="#636363" stroke-linecap="round" stroke-linejoin="round"/><path d="M159.05,157.78c-21,4.24-53.31,4-53.31,4-.88,1.57-.52,20.42-.5,41.91,0,18.68-.88,40.14-.69,57.12.21,18,1.52,31,1.93,30.19,2.22,47.15-2.54,94.71,3.6,141.53,1.42,10.78-1.87,18.05-.52,29.31.94,5.1-1.27,16.72,4,16.12,8.86,1.34,23-6.53,23-6.53s18.57,7.27,23.56,7.15c9.6-.24,5.26-14.14,7-14.1-.78-10.54-5.36-109.24-8.18-194.51C156.83,206.75,159.48,157.8,159.05,157.78Z" fill="#3a3934" stroke="#262521" stroke-miterlimit="10" stroke-width="3"/><g opacity="0.1"><path d="M130.28,166.79c4.79,16.85,14.5,30.77,26.48,43.27,0-6.33.05-11.86.13-17.24-10.63-8.41-15.25-18.46-20.77-30.61-2.29.17-4.83.25-7,.37C129.62,164.45,129.74,164.92,130.28,166.79Z" fill="#fff"/><path d="M117.78,445.92c31.2-5,22.27-43,44.11-59.82-.37-8.69-.72-18.26-1.1-27.66C135.22,382,148.44,423.77,112,437.87a87.55,87.55,0,0,1-.62,8.88C114,446.38,115.14,446.24,117.78,445.92Z" fill="#fff"/><path d="M153.94,435.84c-2.9,10.8-17.89,12.64-17.89,12.64a54.23,54.23,0,0,0,.19,10.47c18-2.51,19.52-13.44,27.68-26.3-.18-4-.37-8-.57-12.54C161.47,422.47,156.9,424.87,153.94,435.84Z" fill="#fff"/></g><path d="M355.32,87C282.68,101.34,210,147,171.18,155.4s-65.44,6.41-65.44,6.41S113.52,105.56,99,87" fill="none" stroke="#636363" stroke-linecap="round" stroke-linejoin="round"/><line x1="128.86" y1="164.34" x2="128.89" y2="165.34" fill="none" stroke="#636363" stroke-linecap="round" stroke-linejoin="round"/><line x1="128.96" y1="168.33" x2="136.25" y2="464.92" fill="none" stroke="#636363" stroke-linecap="round" stroke-linejoin="round" stroke-dasharray="1.99 2.98"/><line x1="136.29" y1="466.41" x2="136.31" y2="467.41" fill="none" stroke="#636363" stroke-linecap="round" stroke-linejoin="round"/><path d="M106.74,108.84s28.59-10.51,51.87-3.75,54.81,6.38,60.44,3.75" fill="none" stroke="#636363" stroke-linecap="round" stroke-linejoin="round"/><path d="M107.81,131.53s17.23,6.91,43.63,0,34.26-7,34.26-7" fill="none" stroke="#636363" stroke-linecap="round" stroke-linejoin="round"/><path d="M106.92,112s8.69-2.54,15.29-1.41" fill="none" stroke="#636363" stroke-linecap="round" stroke-linejoin="round"/><path d="M107.11,113.88s6.55-.79,8.28,0" fill="none" stroke="#636363" stroke-linecap="round" stroke-linejoin="round"/><path d="M107.81,124s7.12-3.92,15.2-2.54" fill="none" stroke="#636363" stroke-linecap="round" stroke-linejoin="round"/><path d="M107.81,128s5.61-1.86,9.77-1.4" fill="none" stroke="#636363" stroke-linecap="round" stroke-linejoin="round"/><path d="M107.81,129.55s14,2.9,24.2,1.51" fill="none" stroke="#636363" stroke-linecap="round" stroke-linejoin="round"/><path d="M105.28,99.64s1.83-4.77,14.63-8.5" fill="none" stroke="#636363" stroke-linecap="round" stroke-linejoin="round"/><path d="M111.25,86.16c-5.07,3.32-7.43,10.53-7.43,10.53" fill="none" stroke="#636363" stroke-linecap="round" stroke-linejoin="round"/><path d="M102.54,93.26s-.27-4.22,2-6.28" fill="none" stroke="#636363" stroke-linecap="round" stroke-linejoin="round"/><path d="M107.81,141.94A49.29,49.29,0,0,0,128.86,147" fill="none" stroke="#636363" stroke-linecap="round" stroke-linejoin="round"/><path d="M107.81,138.36s6.49,4.43,10.53,4.43" fill="none" stroke="#636363" stroke-linecap="round" stroke-linejoin="round"/><path d="M107.54,146s8.16,11,24.47,11" fill="none" stroke="#636363" stroke-linecap="round" stroke-linejoin="round"/><path d="M106.92,150.49s4,6,8.47,6.43" fill="none" stroke="#636363" stroke-linecap="round" stroke-linejoin="round"/><path d="M269.87,86.81A67.29,67.29,0,0,1,301.07,81c17.22,1.13,26.62,3,37.62.43" fill="none" stroke="#636363" stroke-linecap="round" stroke-linejoin="round"/><path d="M288.37,88.55s7.83-3,27.16-1.74c9.51.63,17.52.51,17.52.51" fill="none" stroke="#636363" stroke-linecap="round" stroke-linejoin="round"/></svg>