<svg xmlns="http://www.w3.org/2000/svg" width="500" height="550" viewBox="0 0 500 550"><title>s06e14-03</title><path d="M400.5 462.47s-1.14 13.23 1.14 15.52 50.19 1.82 53.15 0 1.14-19.17 1.14-19.17M47.78 459.54s-1.14 13.23 1.14 15.51 50.18 1.83 53.15 0 1.14-19.16 1.14-19.16" fill="#fff" stroke="#262521" stroke-linecap="round" stroke-linejoin="round" stroke-width="3"/><path d="M307.52 55.16S293 38.7 273.26 38.7L226 37.85c-19.78 0-41 18.37-41 18.37l20.6 32.3h85.94z" fill="#262521" stroke="#262521" stroke-linecap="round" stroke-linejoin="round" stroke-width="3"/><path d="M277.92 31.37c-39.41-8.24-62.34 0-62.34 0l27.33 55.09z" fill="#fff" stroke="#262521" stroke-linecap="round" stroke-linejoin="round" stroke-width="3"/><path fill="#fff" stroke="#262521" stroke-linecap="round" stroke-linejoin="round" stroke-width="3" d="M285.2 47.74l61.56 28.1L247.97 275 150.44 70.61l58.09-22.87"/><path fill="none" stroke="#636363" stroke-linecap="round" stroke-linejoin="round" d="M240.28 72.09v160.54"/><path d="M215.58 31.37S231.44 54 246 65.13l-31.4 21.33s-12.33-34.13-8.44-41.67a66.81 66.81 0 0 1 9.42-13.42zM277.92 31.37S262.06 54 247.47 65.13l31.42 21.33s13.93-33 10-40.56-10.97-14.53-10.97-14.53z" fill="#fff" stroke="#262521" stroke-linecap="round" stroke-linejoin="round" stroke-width="3"/><circle cx="246.92" cy="170" r="3.08" fill="none" stroke="#636363" stroke-linecap="round" stroke-linejoin="round"/><circle cx="246.92" cy="117.81" r="3.08" fill="none" stroke="#636363" stroke-linecap="round" stroke-linejoin="round"/><path d="M247.47 161.37c-25.25-35.31-47.37-106-44.77-112.81-30.43 11-59.32 16.42-86.65 34.62-23.5 30.35-34.46 68.24-48.05 103.68-23.59 59.07-28.11 123-26.19 186-.36 11.19.74 83 2.77 90.75.3 1.48 62.69 2.66 63.26-.51 1.45-8 2.86-164.64 5.23-175.31 1.35-2.86 13.78-67 15.19-69.81 2.21 47.15-8.87 215.9-1.17 247.91.5 2.06 93.73 19.49 110.48-1.4s9.9-279.96 9.9-303.12z" fill="#262521" stroke="#262521" stroke-linecap="round" stroke-linejoin="round" stroke-width="3"/><path d="M457.2 336.13c-2.15-75.82-17.9-126.54-45.71-194C402.66 122.88 397 99.48 381 84.9c-26.38-17.18-59.1-25.14-88.22-35.64-3.67-1.53-3.19 42.84-45.34 112.11 0 26.15.83 290.21 16.54 306.46s114.41 2.05 114.58 1.44c6.89-23.52-11.52-249.35-11.38-249.37.51 7.24 17.36 62 19.83 69 2.65 7.45 8.93 171.4 11.53 175.22 3.78 5.55 60 6 60 .14.06-5.45-.82-109.44-1.34-128.13z" fill="#262521" stroke="#262521" stroke-linecap="round" stroke-linejoin="round" stroke-width="3"/><path d="M246.5 161.37c-7.43 20.92 2.71 169.09 2.71 187.55" fill="none" stroke="#636363" stroke-linecap="round" stroke-linejoin="round"/><path fill="#fff" d="M291.07 166.31h59.13v4.89h-59.13z"/><path d="M308.34 57.09l22.36 21.37-24.81 8 18.25 12S283.55 123 248.33 168M187.16 57.62l-20 20.57 23.33 7.27-16 11.91s48.62 35.07 68.67 64M288.07 171.2h65.12v7.12h-65.12z" fill="none" stroke="#636363" stroke-linecap="round" stroke-linejoin="round"/><rect x="240.25" y="70.58" width="11.96" height="15.8" rx="5" transform="rotate(2.45 245.664 78.26)" stroke-width="3" stroke="#262521" stroke-linecap="round" stroke-linejoin="round" fill="#262521"/><path d="M242.42 73.84s-7.42-7.91-27.52-8.77c0 0-.54 15.27-1.77 17.2s-4.95 6.34 1.28 6.51 23.27 4.72 30.37-4.54M251 73.38s10.36-11.32 24.7-10.71c0 0 5.75 23.76 3.54 24.4s-20.37 4.33-29.92-3.57" fill="#262521" stroke="#262521" stroke-linecap="round" stroke-linejoin="round" stroke-width="3"/><path d="M252.37 74.75l-.34 8M240.08 82.21l.34-8M240.22 79.08a17.14 17.14 0 0 0-10.1-1.29M252.12 80.44a17.1 17.1 0 0 1 9.05-.47" fill="none" stroke="#636363" stroke-linecap="round" stroke-linejoin="round"/><circle cx="250.5" cy="177.32" r="3.22" fill="none" stroke="#636363" stroke-linecap="round" stroke-linejoin="round"/><path fill="none" stroke="#8c8c8c" stroke-linecap="round" stroke-linejoin="round" stroke-width=".5" d="M250.09 176.63l.39-.58.43.58M250.91 178.06l-.39.57-.43-.57"/><circle cx="252.35" cy="257.98" r="3.22" fill="none" stroke="#636363" stroke-linecap="round" stroke-linejoin="round"/><path fill="none" stroke="#8c8c8c" stroke-linecap="round" stroke-linejoin="round" stroke-width=".5" d="M251.94 257.29l.39-.58.42.58M252.75 258.71l-.39.58-.42-.58"/><circle cx="254.06" cy="333.41" r="3.22" fill="none" stroke="#636363" stroke-linecap="round" stroke-linejoin="round"/><path fill="none" stroke="#8c8c8c" stroke-linecap="round" stroke-linejoin="round" stroke-width=".5" d="M253.65 332.72l.39-.58.43.58M254.47 334.15l-.39.57-.43-.57"/></svg>