<svg xmlns="http://www.w3.org/2000/svg" width="500" height="550" viewBox="0 0 500 550"><path d="M378.92 80.21c14.15 10.56 21.63 38 30.45 57.21 27.81 67.48 58 137.39 51.05 212.08-1.19 18.65-2.23 37.45-5.28 55.95-.49 4.66-5.64 22.43-6.47 27.79-.4 2.6-.41 2.83-3.08 2.33-12.48-2.66-25.26-5.49-37.8-1.58-8.34-.15-9.87-14.87-11.44-21.4-1.4-5.82-1.53-9.89-3.25-18.56-.9-9.7-6.76-19.35-1.29-28.34 2-3.53 1.86-7.05.51-10.66-4.9-11.28-7.4-23.41-10.45-35.29-1.07-4.3-1.31-8.49 1.61-12.34 1.51-7.23-10.43-8.68-10.93-15.92l-.41.08q-.27 61.72-.62 123.46c-.81 9-2.68 16.41-3.55 25.44-1 10.07 1.34 17.05-1.5 25.64-.59 1.76-2 1.12-3.35 1.43-44.77 10.45-67.62 8.19-112.62 11-24.59.57-89.36-5.15-117-11.82-5.11-1.24-5.68.27-6.62-4.83-1.35-11.25 1.94-18.53.53-29.31-6.15-46.81-1.39-94.37-3.6-141.53-1.42 2.83-2.94 5.6-4.29 8.46-2.37 10.68-17.5 9.3-11.81 16.18 11.11 7.95 6.41 21.38 5.15 32.56-.25 3.15-4.56 26.52-5.75 34.89-1.5 8-9.42 41.28-10.86 49.29-.57 3.18-.61 3-3.74 2-12.38-3.52-26.09-4.38-38.6-1.18-1.39.34-2.11 0-2.41-1.47-2-7.76-6.58-24.52-6.82-25.64-2.23-11-5.07-22.12-4.72-33.31-1.91-63 1.6-126.93 25.19-186 13.61-35.43 29.93-85.3 48.07-103.67 14.31-14.39 63.43-26.86 63.43-26.86 10.8-7.31 14-24.4 28.32-26.23 10.25-2.67 20.61-2.72 31.15-2.2 17.82 2.22 37-3.7 53.95 3.24 9.46 4.82 11.14 16.78 20.16 21.8 16.82 5.66 54.53 16.76 68.69 27.31z" fill="#bfd9ef" stroke="#262521" stroke-linecap="round" stroke-linejoin="round" stroke-width="3"/><path fill="none" stroke="#636363" stroke-linecap="round" stroke-linejoin="round" d="M242.34 109.25l-.47 363.46"/><path d="M121.8 180.85s2.11 28.61 0 44.24.11 29.7.11 32.88 1.9 33.06 1.9 33.06m247.52-102.37s5.79 47.28 0 75.34" fill="none" stroke="#262521" stroke-linecap="round" stroke-linejoin="round" stroke-width="3"/><path d="M195.1 39.13s-9.54 32.57 37.47 43.36m61-43.36s7.14 34.71-40.07 43.36" fill="none" stroke="#636363" stroke-linecap="round" stroke-linejoin="round"/><path d="M253.5 82.49c11 15.14 25.87 31.35 25.87 31.35s37.9-44 31.7-56.59" fill="none" stroke="#636363" stroke-linecap="round" stroke-linejoin="round"/><path d="M181.08 60.1c-5.75 10.28 31.65 56.68 31.65 56.68l19.84-34.29c4.05 19 9.77 26.76 9.77 26.76s10.3-12.13 11.16-26.76" fill="none" stroke="#636363" stroke-linecap="round" stroke-linejoin="round"/><circle cx="250.48" cy="115.78" r="3.51" fill="#fff" stroke="#636363" stroke-miterlimit="10"/><circle cx="250.5" cy="168.41" r="3.51" fill="#fff" stroke="#636363" stroke-miterlimit="10"/><circle cx="250" cy="215.93" r="3.51" fill="#fff" stroke="#636363" stroke-miterlimit="10"/><circle cx="250" cy="269.06" r="3.51" fill="#fff" stroke="#636363" stroke-miterlimit="10"/><circle cx="250" cy="322.19" r="3.51" fill="#fff" stroke="#636363" stroke-miterlimit="10"/><circle cx="250" cy="372.57" r="3.51" fill="#fff" stroke="#636363" stroke-miterlimit="10"/><circle cx="250.5" cy="433.32" r="3.51" fill="#fff" stroke="#636363" stroke-miterlimit="10"/></svg>