<svg xmlns="http://www.w3.org/2000/svg" width="500" height="550" viewBox="0 0 500 550"><path d="M371.83 291.55q-.25 61.74-.62 123.47c-.81 9-2.68 16.4-3.55 25.44-1 10.07 1.35 17-1.5 25.63-.58 1.77-2 1.67-3.35 1.44-44.58-7.74-101.65-5.72-146.65-2.93-24.59.58-58.62-1.67-83 2.09-5.22.6-5.68.28-6.62-4.82-1.34-11.26 1.45-20 0-30.81-6.15-46.82-.89-92.88-3.1-140-1.41 2.82-2.94 5.6-4.28 8.46-2.37 10.67-17.51 9.3-11.82 16.18 11.12 7.95 6.41 21.38 5.16 32.56-.25 3.15-1.35 6.27-.38 9.58.51 8.43-3.19 16.94-4.38 25.31-1.5 8-2.6 15.83-1.53 23.93a5.17 5.17 0 01-1.14 3.3c-5.71 6.28-7.74 14-9.18 22.06-.58 3.18-.62 3-3.74 2-12.38-3.52-26.1-4.38-38.61-1.18-1.39.34-2.1 0-2.41-1.47-2-7.76-2.17-16.67-8.49-22.43a6.75 6.75 0 01-1.33-3.22 145 145 0 01-2.72-33.3c-1.91-63 2.61-126.93 26.2-186 13.6-35.43 24.56-73.32 48.06-103.67 27.32-18.2 60-23.76 90.46-34.78a3.16 3.16 0 012.72.43c5 5.55 11.47 8.41 18.56 9.67 19.19 2.43 41.29 5.55 58.65-4.88 2.86-1.27 4.2-6.53 7.88-5 29.18 10.51 61.11 14.39 87.49 31.6 15.94 14.59 21.63 38 30.46 57.21 27.81 67.48 58 137.39 51.05 212.07-1.2 18.66-.24 37.46-3.29 56-.48 4.66-5.2 7.09-5.56 11.78-1.21 5.28-2.07 10.65-2.9 16-.41 2.6-.42 2.83-3.09 2.33-12.48-2.66-25.25-5.49-37.8-1.58-8.33-.15-8.13-15.56-11.44-21.41-6.28-7.36-3.61-9-5.32-17.63-.91-9.7-4.69-20.27.78-29.26 2-3.53 1.87-7.05.51-10.66-4.9-11.29-7.4-23.42-10.45-35.29-1.06-4.31-1.31-8.5 1.61-12.34 1.49-7.15-10.42-8.7-10.93-15.93z" fill="#262521" stroke="#262521" stroke-linecap="round" stroke-linejoin="round" stroke-width="3"/><path d="M51.07 409.51S79.73 400 96.22 412m305.71 0s25.94-8.31 43.55 0m-312.39 26.85s155.28-12.31 227.71 2.37" fill="none" stroke="#636363" stroke-linecap="round" stroke-linejoin="round"/><path stroke-width="3" stroke="#fff" stroke-linecap="round" stroke-linejoin="round" fill="#fff" d="M147.49 134.94h197.87v26.74H147.49zm0 37.82h197.87v26.74H147.49zm79.31 56l35.26-.07-28.07 22.49 10.91-35.3 10.55 35.36-28.65-22.48z"/></svg>