<svg xmlns="http://www.w3.org/2000/svg" width="500" height="550" viewBox="0 0 500 550"><path d="M372.14 291.55q-.27 61.74-.62 123.47c-.81 9-2.68 16.4-3.55 25.44-1 10.07 1.34 17-1.5 25.63-.59 1.77-2 1.67-3.35 1.44-44.59-7.74-101.66-5.72-146.65-2.93-24.6.58-58.62-1.67-83 2.09-5.23.6-5.68.28-6.62-4.82-1.35-11.26 1.44-20 0-30.81-6.15-46.82-.89-92.88-3.1-140-1.42 2.82-2.94 5.6-4.29 8.46-2.37 10.67-17.5 9.3-11.81 16.18 11.11 7.95 6.41 21.38 5.15 32.56-.25 3.15-1.35 6.27-.37 9.58.51 8.43-3.19 16.94-4.38 25.31-1.5 8-2.61 15.83-1.54 23.93a5.1 5.1 0 01-1.13 3.3c-5.71 6.28-7.75 14-9.19 22.06-.57 3.18-.61 3-3.74 2-12.38-3.52-26.09-4.38-38.6-1.18-1.39.34-2.11 0-2.41-1.47-2-7.76-2.18-16.67-8.49-22.43a6.66 6.66 0 01-1.33-3.22A144.46 144.46 0 0139 372.86c-1.91-63 2.6-126.93 26.19-186 13.61-35.43 24.56-73.32 48.07-103.67 27.32-18.2 60-23.76 90.46-34.78a3.16 3.16 0 012.72.43c5 5.55 11.46 8.41 18.56 9.67 19.19 2.43 41.29 5.55 58.65-4.88 2.85-1.27 4.2-6.53 7.87-5 29.12 10.49 61 14.4 87.44 31.58 15.94 14.59 21.63 38 30.45 57.21 27.81 67.48 58 137.39 51.05 212.07-1.19 18.66-.23 37.46-3.28 56-.49 4.66-5.21 7.09-5.56 11.78-1.22 5.28-2.08 10.65-2.91 16-.4 2.6-.41 2.83-3.08 2.33-12.48-2.66-25.26-5.49-37.8-1.58-8.34-.15-8.13-15.56-11.44-21.41-6.28-7.36-3.61-9-5.33-17.63-.9-9.7-4.68-20.27.79-29.26 2-3.53 1.86-7.05.51-10.66-4.9-11.29-7.4-23.42-10.45-35.29-1.07-4.31-1.31-8.5 1.61-12.34 1.49-7.15-10.43-8.7-10.93-15.93z" fill="#262521" stroke="#262521" stroke-linecap="round" stroke-linejoin="round" stroke-width="3"/><path d="M292.68 174.19a8.91 8.91 0 005.29-9.1s6.36-.17 8.64 1.82c0 0-9.61 8.93-13.93 7.28zm-6.28-8.68s-.53 7.35 4.57 8.5c0 0-5.46 1-11.92-5.45 0 0 3.52-3.21 7.35-3.05z" fill="#fff"/><circle cx="290.44" cy="166.61" r="2.41" fill="#fff"/><path d="M276.69 164.41s11-18.37 28.34-3.36c0 0-17.42-11-26.56 4.93zm-27.82-21.08a8.89 8.89 0 005.28-9.1s6.37-.17 8.64 1.82c0 0-9.6 8.95-13.92 7.28zm-6.29-8.68s-.52 7.35 4.57 8.5c0 0-5.46 1-11.91-5.45 0 0 3.51-3.21 7.34-3.05z" fill="#fff"/><circle cx="246.63" cy="135.75" r="2.41" fill="#fff"/><path d="M232.87 133.55s11-18.37 28.35-3.36c0 0-17.43-11-26.56 4.93zm-78.49 9.78a8.89 8.89 0 005.28-9.1s6.37-.17 8.64 1.82c0 0-9.6 8.95-13.92 7.28zm-6.28-8.68s-.53 7.35 4.56 8.5c0 0-5.46 1-11.91-5.45 0 0 3.51-3.21 7.35-3.05z" fill="#fff"/><circle cx="152.14" cy="135.75" r="2.41" fill="#fff"/><path d="M138.38 133.55s11-18.37 28.35-3.36c0 0-17.43-11-26.56 4.93zm200.21 9.78a8.89 8.89 0 005.28-9.1s6.37-.17 8.64 1.82c0 0-9.61 8.95-13.92 7.28zm-6.29-8.68s-.52 7.35 4.57 8.5c0 0-5.46 1-11.92-5.45.05 0 3.52-3.21 7.35-3.05z" fill="#fff"/><circle cx="336.34" cy="135.75" r="2.41" fill="#fff"/><path d="M322.59 133.55s11-18.37 28.35-3.36c0 0-17.43-11-26.56 4.93zM154.38 78.42a8.87 8.87 0 005.28-9.09s6.37-.17 8.64 1.82c0 0-9.6 8.92-13.92 7.27zm-6.28-8.67s-.53 7.35 4.56 8.5c0 0-5.46 1-11.91-5.46 0 0 3.51-3.2 7.35-3.04z" fill="#fff"/><circle cx="152.14" cy="70.85" r="2.41" fill="#fff"/><path d="M166.73 65.29a28.25 28.25 0 00-5.66-3.88c-.84.19-1.67.43-2.49.69a27.92 27.92 0 018.15 3.19zm171.86 13.13a8.87 8.87 0 005.28-9.09s6.37-.17 8.64 1.82c0 0-9.61 8.92-13.92 7.27zm-6.29-8.67s-.52 7.35 4.57 8.5c0 0-5.46 1-11.92-5.46.05 0 3.52-3.2 7.35-3.04z" fill="#fff"/><circle cx="336.34" cy="70.85" r="2.41" fill="#fff"/><path d="M334.27 59.77c-7.42 1.74-11.68 8.88-11.68 8.88l1.79 1.57c4-7 9.63-8.79 14.67-8.61a44 44 0 00-4.78-1.84zM202.26 174.19a8.91 8.91 0 005.29-9.1s6.36-.17 8.64 1.82c0 0-9.61 8.93-13.93 7.28zm-6.26-8.68s-.53 7.35 4.57 8.5c0 0-5.46 1-11.92-5.45-.02 0 3.5-3.21 7.35-3.05z" fill="#fff"/><circle cx="200.02" cy="166.61" r="2.41" fill="#fff"/><path d="M186.27 164.41s11-18.37 28.35-3.36c0 0-17.43-11-26.57 4.93zm106.41 73.94a8.9 8.9 0 005.29-9.09s6.36-.18 8.64 1.81c0 0-9.61 8.93-13.93 7.28zm-6.28-8.68s-.53 7.35 4.57 8.51c0 0-5.46 1-11.92-5.46 0 0 3.52-3.21 7.35-3.05z" fill="#fff"/><circle cx="290.44" cy="230.77" r="2.41" fill="#fff"/><path d="M276.69 228.57s11-18.37 28.34-3.36c0 0-17.42-11-26.56 4.93zm97.72 7a12.16 12.16 0 01-1.19-5.9c-3.83-.16-7.35 3.05-7.35 3.05a18.32 18.32 0 008.54 5.18zm.37-15.76c-7.16 1.9-11.27 8.76-11.27 8.76l1.79 1.57c2.66-4.64 6-7 9.48-8zm-252.15 9.45v7.64a48.17 48.17 0 007.86-5.83c-1.79-1.56-6.1-1.79-7.86-1.81zm6.29-4.05a29.15 29.15 0 00-5.08-3.57v1.25a27.38 27.38 0 015.08 2.32zm119.95-17.72a8.89 8.89 0 005.28-9.1s6.37-.17 8.64 1.82c0 0-9.6 8.93-13.92 7.28zm-6.29-8.68s-.52 7.35 4.57 8.51c0 0-5.46 1-11.91-5.46 0 0 3.51-3.21 7.34-3.05z" fill="#fff"/><circle cx="246.63" cy="199.91" r="2.41" fill="#fff"/><path d="M232.87 197.71s11-18.37 28.35-3.36c0 0-17.43-11-26.56 4.93zm-78.49 9.78a8.89 8.89 0 005.28-9.1s6.37-.17 8.64 1.82c0 0-9.6 8.93-13.92 7.28zm-6.28-8.68s-.53 7.35 4.56 8.51c0 0-5.46 1-11.91-5.46 0 0 3.51-3.21 7.35-3.05z" fill="#fff"/><circle cx="152.14" cy="199.91" r="2.41" fill="#fff"/><path d="M138.38 197.71s11-18.37 28.35-3.36c0 0-17.43-11-26.56 4.93zm200.21 9.78a8.89 8.89 0 005.28-9.1s6.37-.17 8.64 1.82c0 0-9.61 8.93-13.92 7.28zm-6.29-8.68s-.52 7.35 4.57 8.51c0 0-5.46 1-11.92-5.46.05 0 3.52-3.21 7.35-3.05z" fill="#fff"/><circle cx="336.34" cy="199.91" r="2.41" fill="#fff"/><path d="M322.59 197.71s11-18.37 28.35-3.36c0 0-17.43-11-26.56 4.93zm-120.33 40.64a8.9 8.9 0 005.29-9.09s6.36-.18 8.64 1.81c0 0-9.61 8.93-13.93 7.28zm-6.26-8.68s-.53 7.35 4.57 8.51c0 0-5.46 1-11.92-5.46-.02 0 3.5-3.21 7.35-3.05z" fill="#fff"/><circle cx="200.02" cy="230.77" r="2.41" fill="#fff"/><path d="M186.27 228.57s11-18.37 28.35-3.36c0 0-17.43-11-26.57 4.93zm106.41 78.01a8.91 8.91 0 005.29-9.1s6.36-.17 8.64 1.82c0 0-9.61 8.93-13.93 7.28zm-6.28-8.68s-.53 7.35 4.57 8.51c0 0-5.46 1-11.92-5.46 0 .05 3.52-3.21 7.35-3.05z" fill="#fff"/><circle cx="290.44" cy="299" r="2.41" fill="#fff"/><path d="M276.69 296.8s11-18.37 28.34-3.36c0 0-17.42-11-26.56 4.93zm96.8 4.62a.3.3 0 010-.1 14.06 14.06 0 01-.29-3.42c-3.83-.16-7.35 3.05-7.35 3.05a19.07 19.07 0 007.62 4.92zm-1.09-12.54a22.3 22.3 0 00-8.89 7.92l1.79 1.57a16.88 16.88 0 017.28-7.14c-.06-.78-.11-1.57-.18-2.35zm-248.06 15.21a51.28 51.28 0 006.15-4.79c-1.34-1.17-4.1-1.59-6.15-1.74zm.29-12.69a26.34 26.34 0 014.29 2 30.73 30.73 0 00-4.29-3.12zm124.24-15.68a8.89 8.89 0 005.28-9.1s6.37-.17 8.64 1.82c0 0-9.6 8.93-13.92 7.28zm-6.29-8.72s-.52 7.35 4.57 8.51c0 0-5.46 1-11.91-5.46 0 .04 3.51-3.17 7.34-3.05z" fill="#fff"/><circle cx="246.63" cy="268.14" r="2.41" fill="#fff"/><path d="M232.87 265.94s11-18.37 28.35-3.36c0 0-17.43-11-26.56 4.93zm-78.49 9.78a8.89 8.89 0 005.28-9.1s6.37-.17 8.64 1.82c0 0-9.6 8.93-13.92 7.28zM148.1 267s-.53 7.35 4.56 8.51c0 0-5.46 1-11.91-5.46 0 .04 3.51-3.17 7.35-3.05z" fill="#fff"/><circle cx="152.14" cy="268.14" r="2.41" fill="#fff"/><path d="M138.38 265.94s11-18.37 28.35-3.36c0 0-17.43-11-26.56 4.93zm200.21 9.78a8.89 8.89 0 005.28-9.1s6.37-.17 8.64 1.82c0 0-9.61 8.93-13.92 7.28zM332.3 267s-.52 7.35 4.57 8.51c0 0-5.46 1-11.92-5.46.05.04 3.52-3.17 7.35-3.05z" fill="#fff"/><circle cx="336.34" cy="268.14" r="2.41" fill="#fff"/><path d="M322.59 265.94s11-18.37 28.35-3.36c0 0-17.43-11-26.56 4.93zm-120.33 40.64a8.91 8.91 0 005.29-9.1s6.36-.17 8.64 1.82c0 0-9.61 8.93-13.93 7.28zM196 297.9s-.53 7.35 4.57 8.51c0 0-5.46 1-11.92-5.46-.02.05 3.5-3.21 7.35-3.05z" fill="#fff"/><circle cx="200.02" cy="299" r="2.41" fill="#fff"/><path d="M186.27 296.8s11-18.37 28.35-3.36c0 0-17.43-11-26.57 4.93zm106.41 72.44a8.9 8.9 0 005.29-9.09s6.36-.17 8.64 1.82c0 .03-9.61 8.92-13.93 7.27zm-6.28-8.67s-.53 7.34 4.57 8.5c0 0-5.46 1-11.92-5.46 0 0 3.52-3.2 7.35-3.04z" fill="#fff"/><circle cx="290.44" cy="361.67" r="2.41" fill="#fff"/><path d="M276.69 359.46s11-18.37 28.34-3.36c0 0-17.42-11-26.56 4.94zm95.78 1.12c-3.53.24-6.6 3-6.6 3a20.13 20.13 0 006.6 4.56zm.46-9.26a22 22 0 00-9.42 8.14l1.79 1.54a16.73 16.73 0 017.63-7.31zm-248.61 15.45a52 52 0 006.17-4.8c-1.35-1.18-4.13-1.6-6.17-1.75zm0-12.83a27.57 27.57 0 014.6 2.16 29.9 29.9 0 00-4.6-3.31zm124.55-15.56a8.89 8.89 0 005.28-9.09s6.37-.17 8.64 1.82c0 0-9.6 8.89-13.92 7.27zm-6.29-8.67s-.52 7.34 4.57 8.5c0 0-5.46 1-11.91-5.46 0 0 3.51-3.2 7.34-3.04z" fill="#fff"/><circle cx="246.63" cy="330.81" r="2.41" fill="#fff"/><path d="M232.87 328.6s11-18.37 28.35-3.36c0 0-17.43-11-26.56 4.94zm-78.49 9.78a8.89 8.89 0 005.28-9.09s6.37-.17 8.64 1.82c0 0-9.6 8.89-13.92 7.27zm-6.28-8.67s-.53 7.34 4.56 8.5c0 0-5.46 1-11.91-5.46 0 0 3.51-3.2 7.35-3.04z" fill="#fff"/><circle cx="152.14" cy="330.81" r="2.41" fill="#fff"/><path d="M138.38 328.6s11-18.37 28.35-3.36c0 0-17.43-11-26.56 4.94zm200.21 9.78a8.89 8.89 0 005.28-9.09s6.37-.17 8.64 1.82c0 0-9.61 8.89-13.92 7.27zm-6.29-8.67s-.52 7.34 4.57 8.5c0 0-5.46 1-11.92-5.46.05 0 3.52-3.2 7.35-3.04z" fill="#fff"/><circle cx="336.34" cy="330.81" r="2.41" fill="#fff"/><path d="M322.59 328.6s11-18.37 28.35-3.36c0 0-17.43-11-26.56 4.94zm-73.72 77.64a8.89 8.89 0 005.28-9.1s6.37-.17 8.64 1.82c0 .04-9.6 8.92-13.92 7.28zm-6.29-8.68s-.52 7.35 4.57 8.5c0 0-5.46 1-11.91-5.46 0 0 3.51-3.2 7.34-3.04z" fill="#fff"/><circle cx="246.63" cy="398.66" r="2.41" fill="#fff"/><path d="M232.87 396.46s11-18.38 28.35-3.36c0 0-17.43-11-26.56 4.93zm-78.49 9.78a8.89 8.89 0 005.28-9.1S166 397 168.3 399c0 0-9.6 8.88-13.92 7.24zm-6.28-8.68s-.53 7.35 4.56 8.5c0 0-5.46 1-11.91-5.46 0 0 3.51-3.2 7.35-3.04z" fill="#fff"/><circle cx="152.14" cy="398.66" r="2.41" fill="#fff"/><path d="M138.38 396.46s11-18.38 28.35-3.36c0 0-17.43-11-26.56 4.93zm200.21 9.78a8.89 8.89 0 005.28-9.1s6.37-.17 8.64 1.82c0 .04-9.61 8.92-13.92 7.28zm-6.29-8.68s-.52 7.35 4.57 8.5c0 0-5.46 1-11.92-5.46.05 0 3.52-3.2 7.35-3.04z" fill="#fff"/><circle cx="336.34" cy="398.66" r="2.41" fill="#fff"/><path d="M322.59 396.46s11-18.38 28.35-3.36c0 0-17.43-11-26.56 4.93zm-120.33-27.22a8.9 8.9 0 005.29-9.09s6.36-.17 8.64 1.82c0 .03-9.61 8.92-13.93 7.27zm-6.26-8.67s-.53 7.34 4.57 8.5c0 0-5.46 1-11.92-5.46-.02 0 3.5-3.2 7.35-3.04z" fill="#fff"/><circle cx="200.02" cy="361.67" r="2.41" fill="#fff"/><path d="M186.27 359.46s11-18.37 28.35-3.36c0 0-17.43-11-26.57 4.94zm106.41-251.13a8.9 8.9 0 005.32-9.09s6.36-.17 8.64 1.82c-.03 0-9.64 8.94-13.96 7.27zm-6.28-8.68s-.53 7.35 4.57 8.51c0 0-5.46 1-11.92-5.46 0 0 3.52-3.2 7.35-3.05z" fill="#fff"/><circle cx="290.44" cy="100.76" r="2.41" fill="#fff"/><path d="M276.69 98.55s11-18.37 28.34-3.36c0 0-17.42-11-26.56 4.94zm-74.43 9.78a8.9 8.9 0 005.29-9.09s6.36-.17 8.64 1.82c0 0-9.61 8.94-13.93 7.27zM196 99.65s-.53 7.35 4.57 8.51c0 0-5.46 1-11.92-5.46-.02 0 3.5-3.2 7.35-3.05z" fill="#fff"/><circle cx="200.02" cy="100.76" r="2.41" fill="#fff"/><path d="M186.27 98.55s11-18.37 28.35-3.36c0 0-17.43-11-26.57 4.94zm209.23 97.2a8.9 8.9 0 003.66-9.86s6.24-1.25 8.82.32c.02 0-7.98 10.43-12.48 9.54zm-7.67-7.48s.73 7.33 5.95 7.6c0 0-5.22 1.91-12.68-3.36 0 0 2.9-3.75 6.73-4.24z" fill="#fff"/><circle cx="392" cy="188.66" r="2.41" fill="#fff"/><path d="M378.07 188.83s7.69-20 27.37-8.13c0 0-19-7.85-25.34 9.38zM406.4 259a8.9 8.9 0 003.66-9.86s6.25-1.25 8.83.32c0-.02-7.95 10.41-12.49 9.54zm-7.66-7.51s.73 7.33 5.94 7.61c0 0-5.21 1.91-12.67-3.36-.01 0 2.92-3.74 6.73-4.25z" fill="#fff"/><circle cx="402.91" cy="251.89" r="2.41" fill="#fff"/><path d="M389 252.06s7.69-20 27.36-8.13c0 0-19-7.85-25.34 9.38zm53.33-31.9c-3.1-1.9-3.6-6.88-3.6-6.88-3.81.5-6.73 4.25-6.73 4.25 4.71 3.33 8.52 3.79 10.69 3.68q-.16-.54-.36-1.05zm-5.93-15.65a22.23 22.23 0 00-7.43 9.33l2 1.25a16.83 16.83 0 016.05-8.33 18 18 0 01-.62-2.25zM418 326.21a8.89 8.89 0 003.66-9.86s6.25-1.25 8.82.33c0 0-7.94 10.42-12.48 9.53zm-7.67-7.48s.73 7.33 5.95 7.6c0 0-5.21 1.91-12.67-3.35 0 .02 2.92-3.75 6.72-4.25z" fill="#fff"/><circle cx="414.5" cy="319.13" r="2.41" fill="#fff"/><path d="M400.58 319.29s7.68-20 27.36-8.12c0 0-19-7.85-25.34 9.37zm49.74-38.77s.73 7.33 5.95 7.6c0 0-5.21 1.91-12.67-3.35 0 0 2.92-3.77 6.72-4.25z" fill="#fff"/><circle cx="454.49" cy="280.92" r="2.41" fill="#fff"/><path d="M455.77 269.22c-10.76.34-15.2 11.86-15.2 11.86l2 1.25c2.92-8 8.56-10.57 13.79-11.07-.18-.68-.36-1.36-.59-2.04zM428.65 388a8.89 8.89 0 003.66-9.86s6.25-1.25 8.83.33c0-.04-7.95 10.38-12.49 9.53zm-7.65-7.52s.74 7.33 5.95 7.61c0 0-5.21 1.91-12.67-3.36-.02 0 2.9-3.73 6.72-4.25z" fill="#fff"/><circle cx="425.15" cy="380.88" r="2.41" fill="#fff"/><path d="M411.23 381.05s7.69-20 27.36-8.13c0 0-19-7.85-25.34 9.37zm50.27-36.4a13.43 13.43 0 01-.53-2.38c-3.8.49-6.72 4.25-6.72 4.25a20.25 20.25 0 007.19 3.35zm.64-12.9c-7.67 2.65-10.92 11.08-10.92 11.08l2 1.25c2-5.5 5.33-8.44 8.9-9.9q.04-1.18.02-2.43zM101.25 191.8a8.9 8.9 0 006.51-8.26s6.32.72 8.3 3c0 0-10.76 7.46-14.81 5.26zm-5.01-9.47s-1.54 7.21 3.34 9.06c0 0-5.55.23-11-7.07-.04 0 3.89-2.68 7.66-1.99z" fill="#fff"/><circle cx="100.09" cy="183.99" r="2.41" fill="#fff"/><path d="M86.78 179.88s13.43-16.66 28.54.64c0 0-15.73-13.3-27 1.17zm-32.59 36.23c4.8-.92 11.41-5.52 11.41-5.52-2-2.29-8.3-3-8.3-3a9.14 9.14 0 01-2.46 5.83 13.12 13.12 0 01-.65 2.69zm5.08-15a27.9 27.9 0 015.59 3.45 28.34 28.34 0 00-5.12-4.67c-.14.41-.3.82-.47 1.22zm32.45 58.25a8.87 8.87 0 006.5-8.26s6.33.72 8.3 3c0 0-10.75 7.5-14.8 5.26zm-5.01-9.47S85.16 257.1 90 259c0 0-5.54.23-11-7.07 0-.05 3.94-2.73 7.71-2.04z" fill="#fff"/><circle cx="90.56" cy="251.55" r="2.41" fill="#fff"/><path d="M77.25 247.44s13.43-16.66 28.54.64c0 0-15.73-13.3-27 1.17zm-35.99 35.97a8.89 8.89 0 006.5-8.27s6.33.72 8.3 3c0 .01-10.75 7.5-14.8 5.27zm2.25-16.67a26.73 26.73 0 0111.82 5.38c-4-4.53-7.81-6.71-11.32-7.49-.15.71-.32 1.37-.5 2.11zM83 321.41a8.91 8.91 0 006.51-8.27s6.33.73 8.3 3c-.04.01-10.81 7.51-14.81 5.27zm-5-9.47s-1.55 7.21 3.33 9.06c0 0-5.55.23-11-7.07-.08 0 3.85-2.68 7.67-1.99z" fill="#fff"/><circle cx="81.8" cy="313.6" r="2.41" fill="#fff"/><path d="M68.49 309.49s13.43-16.66 28.54.64c0 0-15.72-13.3-27 1.17zm5 79.11a8.9 8.9 0 006.5-8.27s6.33.72 8.3 3c0 .01-10.76 7.51-14.8 5.27zm-5.01-9.47s-1.55 7.2 3.33 9.06c0 0-5.55.22-11-7.07-.04 0 3.89-2.68 7.67-1.99z" fill="#fff"/><circle cx="72.32" cy="380.79" r="2.41" fill="#fff"/><path d="M59 376.68s13.43-16.66 28.54.64c0 0-15.72-13.3-27 1.17zm-21.33-31.43a45.42 45.42 0 009.64-5.05c-2-2.29-8.3-3-8.3-3a9.81 9.81 0 01-1.34 4.38zm.19-15.75a27.92 27.92 0 018.71 4.67 24.18 24.18 0 00-8.71-6.67z" fill="#fff"/><path d="M39 372.86c-1.91-63 2.6-126.93 26.19-186 13.61-35.43 24.56-73.32 48.07-103.67 27.32-18.2 60-23.76 90.46-34.78m-76.81 382.65c-6.15-46.82-.89-92.88-3.1-140m248.74.41l-.41.08q-.27 61.74-.62 123.47M291.48 48.63c29.12 10.49 61 14.4 87.44 31.58 15.94 14.59 21.63 38 30.45 57.21 27.81 67.48 58 137.39 51.05 212.07" fill="none" stroke="#262521" stroke-linecap="round" stroke-linejoin="round" stroke-width="3"/><path d="M204.7 51.38c.8-.26 4.44 39.77 42.44 41.81s45.37-41.58 45.37-41.58" fill="none" stroke="#636363" stroke-linecap="round" stroke-linejoin="round"/><path fill="none" stroke="#636363" stroke-linecap="round" stroke-linejoin="round" stroke-width=".81" d="M73.89 412.47v13.59m-9.65-13.58l.99 13.57m19.15-13.56l-1.48 13.55m11.59-12.12l-4.14 13.31m-35-13.83l2.04 13.52"/><path fill="none" stroke="#636363" stroke-linecap="round" stroke-linejoin="round" stroke-width=".8" d="M424.82 412.71v12.97m-10.11-12.94l1.9 12.91m18.69-12.92l-1.48 12.93m11.59-11.56l-4.14 12.69m-36.39-13.11l3.82 12.73"/><path fill="none" stroke="#636363" stroke-linecap="round" stroke-linejoin="round" stroke-width=".75" d="M247.31 444.44v15.11m11.06-15.11v14.81m11.06-14.81v14.83m11.06-14.83v14.81m11.07-15.09v15.11m11.06-15.11v14.83m11.55-14.83l.56 15.09m10.01-14.81v15.11m-153.87-15.11v15.52M192 444.44v15.65m-10.84-15.65V460m21.9-15v15.37m-66.95-14.79l1.5 15.16m9.44-16.01l.7 15.36m11.56-15.65v15.65M214.12 445v15.09M225.18 445v14.52m11.06-15.08v15.11m99.93-14.54l-1.05 14.95m12.36-14.38l-1.85 14.79m12.71-14.23l-1.08 15.07"/><path d="M121.2 171.92s3 37.54.91 53.17.11 29.69.11 32.87 1.89 33.04 1.89 33.04m247.42-125s5.9 70 .11 98l1 27.47" fill="none" stroke="#262521" stroke-linecap="round" stroke-linejoin="round" stroke-width="3"/></svg>