<svg xmlns="http://www.w3.org/2000/svg" width="500" height="550" viewBox="0 0 500 550"><path d="M458.4 355.53c6.94-74.69-21.25-144.59-49.06-212.08L67.12 192.89c-23.59 59.07-28.1 123-26.19 186-.35 11.19 3.5 22.28 5.72 33.31a6.66 6.66 0 001.35 3.22c6.31 5.75 3.46 14.66 5.49 22.42.31 1.48 1 1.82 2.41 1.47 12.51-3.19 26.22-2.34 38.6 1.18 3.13.95 3.17 1.13 3.74-2.05 1.45-8 10.36-41.31 11.86-49.29 1.19-8.37 4.89-16.87 4.38-25.31-1-3.31.13-6.42.37-9.58 1.26-11.17 6-24.61-5.15-32.55-5.69-6.89 7.45-5.51 9.81-16.19 1.35-2.85 9.42-50.41 9.42-50.41l234.48-1.43c5.3-3.42 23.57 52.52 22.06 59.75-2.92 3.85-3.17 8-2.11 12.34 3.05 11.88 6.55 24 11.45 35.29 1.35 3.61 1.51 7.13-.51 10.66-5.47 9-4.19 19.56-3.29 29.27 1.72 8.67-.95 10.26 5.33 17.63 3.31 5.84 3.1 21.26 11.44 21.4 12.55-3.9 25.32-1.07 37.8 1.58 2.67.5 2.68.28 3.08-2.33.83-5.36 1.69-10.73 2.91-16 .35-4.68 5.07-7.11 5.56-11.78 3.03-18.49.07-37.31 1.27-55.96z" fill="#262521" stroke="#262521" stroke-linecap="round" stroke-linejoin="round" stroke-width="3"/><path fill="none" stroke="#fff" stroke-miterlimit="10" stroke-width="2" d="M78.6 257.91l-27.21-9.84m21.25 42.11l-26.72-8.84m20.73 40.11l-25.71-5.84m23.31 38.29l-23.71-2.5"/><path d="M67.12 192.89c-23.59 59.07-28.1 123-26.19 186" fill="none" stroke="#262521" stroke-linecap="round" stroke-linejoin="round" stroke-width="3"/><path fill="none" stroke="#fff" stroke-miterlimit="10" stroke-width="2" d="M419.74 254.41l27.22-9.84m-19.6 41.61l26.72-8.84m-20.73 40.11l25.71-5.84m-23.31 38.29l23.71-2.5"/><path d="M458.4 355.53c6.94-74.69-21.25-144.59-49.06-212.08" fill="none" stroke="#262521" stroke-linecap="round" stroke-linejoin="round" stroke-width="3"/><path d="M53.29 415.54S82 406.06 98.44 418m303.71 0s25.94-8.3 43.55 0" fill="none" stroke="#636363" stroke-linecap="round" stroke-linejoin="round"/><path d="M442.3 211.2C430.81 186.37 401 94.64 384.07 85S290 49 290 49c-48.17 30.16-87.35 0-87.35 0s-71.04 29-87.46 40.21S50.21 211.11 53 217.36c8.72 19.52 74.76 18.19 75.18 22.46 3 106.81-2.33 240.33 0 240.76 4.74.88 47.28-4.07 62.93-.79 12.3 2.57 138.3 4 182.93 3.42 0 0-1.75-121.85-6-239.22-.28-8.54 78.25-24.17 74.26-32.79z" fill="#262521" stroke="#262521" stroke-linecap="round" stroke-linejoin="round" stroke-width="3"/><path d="M369.11 274.67c-.33-10.2-.68-20.46-1.05-30.68-.3-8.54 78.23-24.17 74.24-32.79M53 217.36c8.72 19.52 74.76 18.19 75.18 22.46.34 12.07.57 24.47.72 37" fill="none" stroke="#636363" stroke-linecap="round" stroke-linejoin="round"/><path d="M368.06 244s-2.53-49.69-2.58-59.5 1.81-25.3 1.81-25.3m-239.11 80.62s-.13-77.52-.93-80.85M203 54.43s4 48.55 43.67 46.73 43.68-46.73 43.68-46.73" fill="none" stroke="#636363" stroke-linecap="round" stroke-linejoin="round"/><path d="M176.78 164.72v17.49h-4.57v-17.49zm8.1 0v3.75a3.54 3.54 0 01-.27 1.52 4 4 0 01-.86 1.25 4.78 4.78 0 01-1.32.89 5.16 5.16 0 01-1.67.45V171a2.56 2.56 0 001.51-.95 2.73 2.73 0 00.41-1.53h-1.92v-3.77zm10.41 0l4.85 12h.06l4.59-12h6.43v17.49h-4.28v-12.39h-.05l-5.09 12.39h-3.52l-5.08-12.27h-.06v12.27h-4.27v-17.49zm31.5 13.18a3.08 3.08 0 001 1 4.68 4.68 0 001.46.56 8.45 8.45 0 001.75.18 10.31 10.31 0 001.31-.08 5.39 5.39 0 001.3-.33 2.83 2.83 0 001-.67 1.54 1.54 0 00.41-1.09 1.4 1.4 0 00-.54-1.15 4.44 4.44 0 00-1.41-.74 14.2 14.2 0 00-2-.51c-.73-.15-1.48-.31-2.23-.49s-1.53-.37-2.27-.6a8.6 8.6 0 01-2-.92 4.74 4.74 0 01-1.41-1.41 3.69 3.69 0 01-.53-2 4 4 0 01.68-2.34 5.72 5.72 0 011.79-1.66 8.41 8.41 0 012.5-1 12.07 12.07 0 012.79-.32 15.88 15.88 0 013.12.3 9 9 0 012.66 1 5.45 5.45 0 011.84 1.76 4.64 4.64 0 01.69 2.58h-4.42a2.77 2.77 0 00-.39-1.3 2.48 2.48 0 00-.89-.81 4.34 4.34 0 00-1.26-.41 9.46 9.46 0 00-1.56-.13 6.82 6.82 0 00-1.1.1 3.47 3.47 0 00-1 .34 2.42 2.42 0 00-.75.62 1.46 1.46 0 00-.29.93 1.34 1.34 0 00.24.83 2.06 2.06 0 00.91.59 13.59 13.59 0 001.89.54l3.15.68q.58.11 1.62.36a8.36 8.36 0 012.05.82 5.83 5.83 0 011.75 1.5 3.78 3.78 0 01.75 2.42 4.57 4.57 0 01-.56 2.22 5 5 0 01-1.64 1.78 8.59 8.59 0 01-2.7 1.16 14.94 14.94 0 01-3.74.42 15.15 15.15 0 01-3.32-.36 8.83 8.83 0 01-2.85-1.11 5.78 5.78 0 01-2-1.94 5 5 0 01-.7-2.79h4.42a2.83 2.83 0 00.48 1.47zm13.75-9.9v-3.24h17V168h-6.22v14.25h-4.56V168zm34.64 12.87a10.83 10.83 0 01-6.51 1.73 10.72 10.72 0 01-6.52-1.72 6.14 6.14 0 01-2.31-5.28v-10.88h4.56v10.88a6.5 6.5 0 00.15 1.39 2.53 2.53 0 00.61 1.21 3.35 3.35 0 001.29.86 6.11 6.11 0 002.22.33 4.79 4.79 0 003.37-.92 3.88 3.88 0 00.93-2.87v-10.88h4.57v10.88a6.11 6.11 0 01-2.36 5.27zm15.64-16.15a10 10 0 013.31.48 6.54 6.54 0 012.23 1.26 4.85 4.85 0 011.25 1.79 5.69 5.69 0 01.39 2.08 5.75 5.75 0 01-.39 2.07 4.8 4.8 0 01-1.25 1.8 6.54 6.54 0 01-2.23 1.26 10 10 0 01-3.31.48H286v6.27h-4.56v-17.49zm-1.25 8.28a10.54 10.54 0 001.51-.1 3.83 3.83 0 001.28-.38 2.26 2.26 0 00.89-.79 2.93 2.93 0 000-2.7 2.34 2.34 0 00-.89-.79 3.83 3.83 0 00-1.28-.38 10.54 10.54 0 00-1.51-.1H286V173zm15.84-8.28v17.49h-4.56v-17.49zm12.96 0a12.52 12.52 0 013.74.54 8.39 8.39 0 013 1.62 7.48 7.48 0 012 2.69 9.44 9.44 0 01.71 3.8 10.48 10.48 0 01-.58 3.52 7.49 7.49 0 01-1.76 2.79 8.29 8.29 0 01-2.94 1.85 11.51 11.51 0 01-4.14.68h-8.95v-17.49zm-.32 14.28a6.85 6.85 0 001.92-.27 4.38 4.38 0 001.66-.89 4.5 4.5 0 001.16-1.63 6.14 6.14 0 00.43-2.45 8.75 8.75 0 00-.3-2.38 4.23 4.23 0 00-2.85-3 8.61 8.61 0 00-2.83-.4H314v11z" fill="#fff" stroke="#fff" stroke-linecap="round" stroke-miterlimit="10" stroke-width="1.24"/></svg>