<svg xmlns="http://www.w3.org/2000/svg" xmlns:xlink="http://www.w3.org/1999/xlink" width="500" height="550" viewBox="0 0 500 550"><defs><clipPath id="a"><path d="M123.86,291s-2.94,5.6-4.29,8.46c-2.36,10.67-17.5,9.3-11.81,16.18,11.12,7.95,6.41,21.38,5.15,32.56-.24,3.15-1.34,6.27-.37,9.58.51,8.43-3.19,16.94-4.38,25.31-1.5,8-2.61,15.83-1.53,23.93a5.17,5.17,0,0,1-1.14,3.3c-5.71,6.28-7.74,14-9.19,22.06-.57,3.18-.61,3-3.73,2-12.38-3.52-26.1-4.38-38.61-1.18-1.39.34-2.1,0-2.41-1.47-2-7.76-2.17-16.67-8.49-22.43a6.66,6.66,0,0,1-1.33-3.22A145,145,0,0,1,39,372.86c-1.91-63,2.61-126.93,26.2-186C70.9,172,82,141.76,82,141.76l327.4-4.35s62.8,132.83,51.06,212.08c-2.74,18.49-.24,37.46-3.29,56-.48,4.66-5.2,7.09-5.56,11.78-1.21,5.28-2.07,10.65-2.9,16-.41,2.6-.42,2.83-3.09,2.33-12.48-2.66-25.25-5.49-37.8-1.58-8.33-.15-8.13-15.56-11.44-21.41-6.28-7.36-3.61-9-5.33-17.63-.9-9.7-4.68-20.27.79-29.26,2-3.53,1.87-7.05.51-10.66-4.9-11.29-7.4-23.42-10.45-35.29-1.06-4.31-1.31-8.5,1.61-12.34,1.49-7.15-8.84-11.38-8.84-11.38Z" fill="none"/></clipPath><clipPath id="b"><path d="M372.19,291.55q-.27,61.74-.62,123.47c-.81,9-2.68,16.4-3.55,25.44-1,10.07,1.34,17-1.5,25.63-.58,1.77-2,1.67-3.35,1.44-44.58-7.74-101.65-5.72-146.65-2.93-24.59.58-58.62-1.67-83,2.09-5.22.6-5.68.28-6.62-4.82-1.34-11.26,1.94-18.53.53-29.31-6.15-46.82-1.39-94.38-3.6-141.53-.51,1,.1-25.63-4.4-56.13-1.24-8.45,4.56-12.17,3.19-21.38-98.25,18-22.17-113.82-9.38-130.34,27.32-18.2,77.59-30.43,77.59-30.43s6.74,55.45,58.31,55.93c51.38.47,58.61-54.86,58.61-54.86S352.59,63,379,80.21c7.41,6.79,37.94,50.06,35,98.46-1.71,27.83-40.43,13.66-40.43,13.66,2.89,25.38-1.27,98.58-1.41,96.64C372,289,372.33,291.53,372.19,291.55Z" fill="none"/></clipPath></defs><title>s06e06-01</title><path d="M365.23,282.8s-1.73,202.07-5,204.25-151.41,0-167.06-3.27-53.14,5-57.87,4.15-5.46-18.39-3.64-26S133,282.8,133,282.8Z" fill="#fff" stroke="#262521" stroke-linecap="round" stroke-linejoin="round" stroke-width="3"/><path d="M372.19,291.55q-.27,61.74-.62,123.47c-.81,9-2.68,16.4-3.55,25.44-1,10.07,1.34,17-1.5,25.63-.58,1.77-2,1.67-3.35,1.44-44.58-7.74-101.65-5.72-146.65-2.93-24.59.58-58.62-1.67-83,2.09-5.22.6-5.68.28-6.62-4.82-1.34-11.26,1.94-18.53.53-29.31-6.15-46.82-1.39-94.38-3.6-141.53-1.41,2.82-2.94,5.6-4.29,8.46-2.36,10.67-17.5,9.3-11.81,16.18,11.12,7.95,6.41,21.38,5.15,32.56-.24,3.15-1.34,6.27-.37,9.58.51,8.43-3.19,16.94-4.38,25.31-1.5,8-2.61,15.83-1.53,23.93a5.17,5.17,0,0,1-1.14,3.3c-5.71,6.28-7.74,14-9.19,22.06-.57,3.18-.61,3-3.73,2-12.38-3.52-26.1-4.38-38.61-1.18-1.39.34-2.1,0-2.41-1.47-2-7.76-2.17-16.67-8.49-22.43a6.66,6.66,0,0,1-1.33-3.22A145,145,0,0,1,39,372.86c-1.91-63,2.61-126.93,26.2-186,13.6-35.43,24.56-73.32,48.06-103.67,27.32-18.2,60-23.76,90.46-34.78a3.16,3.16,0,0,1,2.72.43c5,5.55,11.46,8.41,18.56,9.67,19.19,2.43,41.29,5.55,58.65-4.88,2.86-1.27,4.2-6.53,7.88-5,29.12,10.49,61,14.4,87.43,31.58,15.94,14.59,21.63,38,30.45,57.2,27.82,67.49,58,137.4,51.06,212.08-1.2,18.66-.24,37.46-3.29,56-.48,4.66-5.2,7.09-5.56,11.78-1.21,5.28-2.07,10.65-2.9,16-.41,2.6-.42,2.83-3.09,2.33-12.48-2.66-25.25-5.49-37.8-1.58-8.33-.15-8.13-15.56-11.44-21.41-6.28-7.36-3.61-9-5.33-17.63-.9-9.7-4.68-20.27.79-29.26,2-3.53,1.87-7.05.51-10.66-4.9-11.29-7.4-23.42-10.45-35.29-1.06-4.31-1.31-8.5,1.61-12.34,1.49-7.15-10.43-8.7-10.93-15.93Z" fill="#848484"/><g clip-path="url(#a)"><path d="M398.49,182.62c-5.88.46-11.77,1.94-15.45,4.75a21.14,21.14,0,0,0-3.9,4.11l-14.8,18.76a20.4,20.4,0,0,0-3.46,5.42c-1,2.83-.4,5.77.22,8.64l2.59,12c.54,2.49,1.68,5.45,5.6,6.28a12.27,12.27,0,0,0,7.78-1.28,51.47,51.47,0,0,0,5.49-3.86c5.48-3.83,14-6,22.34-5.7l6.93,7.2c.88.9,1.77,1.87,1.71,2.92-.09,1.4-1.87,2.53-3.61,3.46a79.24,79.24,0,0,1-9,4.08c-2.75,1-5.68,2-7.79,3.49-5.82,4.14-3.2,10.34-1,15.61a57.89,57.89,0,0,1,4.44,25.3,2.74,2.74,0,0,1-.47,1.64c-1.21,1.58-4.91,1.68-7.66,1.17s-5.6-1.39-8.37-.91c-4.62.8-5.39,4.5-5.25,7.4.27,5.61,1.12,12,8.37,15.48,6.33,3.06,15.34,2.81,23.37,2.11s16.59-1.66,24,.39c2.38.66,4.59,1.63,7.18,1.88,4.82.47,25.1,3,28.76,1,1.23-.66-16.06-63.39-15-89.47.39-10,1-20.17-3.79-29.71C441.14,192.06,421.74,180.81,398.49,182.62Z" fill="#636363"/><path d="M444.51,337.91a8.21,8.21,0,0,0-2.76-.47,6.16,6.16,0,0,0-2.13.58c-5.34,2.29-8.92,6-9.54,10a2,2,0,0,0,.27,1.64,5,5,0,0,0,1.37,1c4.24,2.45,8.62,5,14,6.35a17.44,17.44,0,0,0,5.6.63,10.78,10.78,0,0,0,6.23-2.54,11.48,11.48,0,0,0,2.86-4.32c1.23-2.92,2.42-7.33-1.63-9.69C455.42,339.09,448.66,339.1,444.51,337.91Z" fill="#636363"/><path d="M398.52,334.21c3.34,2.79,4,6.68,1.59,9.81-1.93,2.54-5.56,4.46-8,6.84C386.91,356,388,362.63,385,368.42c-2.66,5.15-8.62,9.79-8.8,15.18a2.23,2.23,0,0,0,.76,2,7.47,7.47,0,0,0,3.75,1,64,64,0,0,0,18.31-1c4.64-.95,9-2.44,13.72-3.19s10.26-.65,14,1.28c2.79,1.45,4.1,3.65,5.29,5.75l8.22,14.42c2.11,3.7,4.54,7.67,9.93,9.85,2.64,1.06,5.83,1.62,8.26,2.86,2,1,3.37,2.48,5.14,3.68a24.68,24.68,0,0,0,13.22,3.6,13.71,13.71,0,0,1,4.54.39,4.91,4.91,0,0,1,2.34,2,38.39,38.39,0,0,1,7.38,19.1,2.39,2.39,0,0,1-.39,1.84,5.47,5.47,0,0,1-2.48,1.32c-8.77,2.8-19.46,1.24-29-.46s-20-3.46-29.05-1c-4.94,1.37-8.8,3.87-13.62,5.38-4.56,1.44-9.76,1.92-14.87,2.24-8.58.53-19,.07-23.21-4.49-2-2.21-2-4.86-2.39-7.37-.89-5.3-4.05-10.33-6.42-15.45a54.58,54.58,0,0,1-1.74-43.05c1.48-3.93,3.42-7.82,4-11.84.73-5.09-.76-10.23,0-15.33.71-4.73,3.35-9.35,3.28-14.1,0-2.53-.84-5.11.17-7.56C378.25,328.39,392.69,329.35,398.52,334.21Z" fill="#636363"/><path d="M435.53,188.68l-13.25-27.2c-1.2,1-4,.33-5.58,1a2.26,2.26,0,0,0-1.25,2.59c.14,2,.29,4,.44,6a5.18,5.18,0,0,1-.47,3.23,4.74,4.74,0,0,1-3.91,2c.58,2-1.21,4.2-4.22,5.14a10.12,10.12,0,0,0-2.42.86c-1.9,1.27.35,3.35-.55,5-.69,1.24-3,1.85-4.22,2.94-1.88,1.71-.55,4,.83,5.86l3.21,4.38a2.69,2.69,0,0,0,.9.87c1.27.69,3.32.19,4.61-.49s2.55-1.57,4.26-1.62c2.17-.06,3.68,1.22,5,2.27s3.59,2.09,5.46,1.41c1.34-.49,1.61-1.63,2.76-2.28,1.79-1,5-.53,6.75-1.58a2.84,2.84,0,0,0,1.27-2.19A32.24,32.24,0,0,0,435.53,188.68Z" fill="#262521"/><path d="M387.42,208.88a9.27,9.27,0,0,0-2.85.38,3.31,3.31,0,0,0-2,2.44,26.52,26.52,0,0,0-.43,13.41c.58,2.52,1.46,5.25-.57,7.48-3.34,3.65-12.21,3.72-17.19,6.6-5.4,3.13-4.6,8.38-3.39,12.85l13.86,51.32a2.32,2.32,0,0,0,1.77,1.92,3.58,3.58,0,0,0,3.85-2.08,16.79,16.79,0,0,0,1.67-7.42c4.73,3,7.06,7.33,6.18,11.44a1.93,1.93,0,0,1-1,1.48,6.13,6.13,0,0,1-2.66.35l-10.29-.13a144.72,144.72,0,0,0-6.16,38.84c3.41-2.76,8.61-5.86,13.91-4.59,3.18.77,4.94,2.91,8,3.85,3.24,1,7.13.42,10.62-.16,6.4-1.06,13.83-2.74,15.42-6.63.36-.9.38-1.88,1.16-2.68,2.52-2.57,10.09-1.13,13.18-3.46a4.7,4.7,0,0,0,1.51-2.3l3.92-10.06c8.42-2.47,18.21,4.21,27,2.27,4.1-.9,6.61-3.52,7.25-6.13s-.21-5.25-.91-7.86c-3.77-13.92-3.25-28.43-11.37-41.66a34.64,34.64,0,0,1-3.53-6.33c-.91-2.63-.71-5.33-.75-8a44.94,44.94,0,0,0-2.66-14.41c-.81-2.29-2.35-4.91-6.07-5.57-5.11-.91-9.12,2.47-12.94,4.7-3.43,2-7.83,3.31-11.38,5.23s-6.28,4.9-4.78,7.64c2.42,4.44,12.93,4.62,18.53,7.85-1.87,2.11-6.88,1.87-10.7,2.51-8.87,1.48-11.76,8.07-13.13,13.57-.47,1.87-.91,3.88.46,5.59,1.19,1.47,3.68,2.67,3.68,4.31,0,2.4-5.36,3.89-5.27,6.3.07,1.86,3.37,3.06,4.43,4.81.87,1.42.16,3,.8,4.5.85,1.93,3.8,3.19,6.07,4.64s3.93,3.8,1.88,5.37c-.72.93-3.11.78-4.43.12s-2.18-1.63-3.66-2.14c-3.89-1.34-9.69,1.19-12.95-.67-3.08-1.75.17-5.13-1.89-7.36-1.52-1.65-5.3-2-7.27-3.47a6,6,0,0,1-1.8-2.45A86,86,0,0,1,382.33,249a46.3,46.3,0,0,1,11.21,4.48c5.29-2.89,1.08-9.57,7.31-11.67,3.87-1.31,9.95,0,12.36-2.19,1.93-1.81-.39-4.66,2.17-6.15,3-1.75,6.73.37,9.95.37,5.92,0,3.82-.36,6.2-3.26,3.59-4.39,12.19-7.25,10.35-13C437.42,203.73,403,208.41,387.42,208.88Z" fill="#262521"/><path d="M445.83,343.9c-.35,4.22,6.48,7.52,7.31,11.72.38,1.95-.57,3.94.05,5.87,1,3.22,6.29,5.63,6.58,8.92a10.75,10.75,0,0,0,.08,2.6,2.88,2.88,0,0,0,2.89,1.63c1.86-.11,2.95-1.68,4.82-1.58a2.84,2.84,0,0,1,2.52,2l3.45,8.4a6,6,0,0,0,5-1,5.4,5.4,0,0,0,1.8-3.18,41.17,41.17,0,0,0-5.91-34.4C469.87,338.55,446.71,333.3,445.83,343.9Z" fill="#262521"/><path d="M379.58,378.1c2.28-1.5,2.44-4,5.21-5.16,3-1.25,7.51-.32,10.31-1.71a3.13,3.13,0,0,0,1.38-4.65,3.13,3.13,0,0,1-.57-1.34c0-1.16,1.73-2,3-2.87a5.75,5.75,0,0,0,2.63-3.83,1.85,1.85,0,0,0-1.28-2.11,8.88,8.88,0,0,0-2.05-.31c-4.79-.48-8.73-3.58-13.45-2.87-2.55.37-4.6,1.84-7.22,1.74-1.24-.05-2.56-.46-3.66-.1a2.18,2.18,0,0,0-1.44,1.69c-1.72,6-4.79,12.3-5.31,18.34C366.75,379.07,373.61,382,379.58,378.1Z" fill="#262521"/><path d="M470.27,418.41A109.89,109.89,0,0,0,462,399.32c3,1,5.41-1.86,5.49-3.93a38.6,38.6,0,0,0-1.38-11.86l-6.11-.44c-4.51-3.15-7.75-6.95-9.36-11a11.39,11.39,0,0,0-2.22-4.2,7.64,7.64,0,0,0-6-2c-1.49.18-2.75.82-4.25,1-2.45.26-4.66-.82-6.92-1.46-4.62-1.29-10.19-.73-14.67.71A52,52,0,0,0,404.92,372c-5.66,3.51-10.8,10-17.7,12.37-5.41,1.85-11.68,1.19-15.92,4.51-3.62,2.83-3.36,6.71-3.21,10.09.28,6.29.64,12.62,1.19,18.9.84,9.73,3.61,19.82,13.06,27.71a6.06,6.06,0,0,0,2.55,1.42,9.07,9.07,0,0,0,3.7-.1c5.8-1.09,10.85-4,16.92-3.8,5.71.15,11,3,16.54,2.13,4.56-.74,6.95-3.69,8.77-6.32,3,.77,6.63,1.51,9.33.41,3.92-1.61,18.72-13.77,23.55-14.65a5.69,5.69,0,0,1-2.59-4.63Zm-23-25a5.18,5.18,0,0,1-2.05,2.09c-2.88,1.52-7.68.44-10.94,1.64-3.07,1.13-3.67,3.86-6.75,5-2.87,1.05-6.56.25-9.58-.63s-6.46-1.87-9.58-1.11l-3.89,5.05c-.77,1-7.93.36-9.47-.7a5.26,5.26,0,0,1-1.48-1.16c-.56-.91.57-1.88,1.84-2.47s2.81-1,3.6-1.88c1.73-1.83-1.08-4.19,0-6.19s6.41-2.39,8.23-.6c.52.5.78,1.12,1.51,1.51,3.84,2.09,9-4.39,12.75-4.45,2,0,3.88.57,5.87.67,3.45.18,6.53-1.16,9.61-2.12s7.25-1.48,9.69,0C448.79,389.38,448.29,391.62,447.23,393.4Z" fill="#262521"/><path d="M469.8,451.73c-2.39,2-3.32,4.64-2.5,7.08.27.81.7,1.72,0,2.43a6,6,0,0,1-3,1c-5.8.89-13.08,1.51-16.77-1.34-1.85-1.43-2.33-3.5-4.75-4.58-4.56-2.05-10.56,1.11-16.21,1.46-5.31.33-10.09-1.9-15.35-2.47-7.91-.86-17.61,1.85-23.29-1.59-2.32,7.95,1.05,16.06,4.39,23.87l8.8,20.54a5.62,5.62,0,0,0,1.83,2.62,13.07,13.07,0,0,0,4.95,1.64c28.39,5.3,58.93.36,87.49-4.58a15.2,15.2,0,0,0,5.18-1.51,5.6,5.6,0,0,0,2.39-3.71c3.37-12.5,4.09-26,.17-38.46C500.24,444.89,478.42,444.44,469.8,451.73Z" fill="#262521"/><path d="M120.33,296.16c.09-2.83.07-5.88-2.44-8.17s-8.57-3-10.9-.64a5.06,5.06,0,0,0-1.2,3.18c-.49,3.91-1.33,8-4.87,11.17-4.45,4-12.11,5.58-18.34,8.3-8.48,3.69-14.52,9.74-16.31,16.33-.85,3.15-.69,6.59,1.93,9.28.88.92,2,1.71,2.91,2.63a15.44,15.44,0,0,1,2.27,3.26c1.66,2.91,3.33,5.86,3.59,9a20.66,20.66,0,0,1-.86,6.54l-2,8.28c-.53,2.2-.91,4.76,1.44,6.37A9.5,9.5,0,0,0,79.61,373c8,1,14.87-3.45,20.18-7.48q6.67-5.1,13.37-10.18c4-3,7.94-6,10.86-9.53,6.14-7.33,7.1-16.08,6-24.42s-3.94-16.54-5-24.88c-.28-2.22-1.55-5.16-4.92-5" fill="#636363"/><path d="M50.07,373c1.21.76,3.21.56,4.94.67,4.91.31,8.18,3.45,8.72,6.72s-1,6.64-2.61,9.89a14.78,14.78,0,0,1-4,5.68c-4.18,3.33-11.21,3.92-17.42,4.25a11,11,0,0,1-3.56-.2,4.09,4.09,0,0,1-2.79-3.46c-1.47-7.16,1.44-15.13,3.13-22.4.54-2.33,1.09-5.18,5.35-5.67C47.2,367.83,47.43,371.35,50.07,373Z" fill="#636363"/><path d="M90.61,166.66a12,12,0,0,1,4.6.59c3.34,1.27,4,4.28,5.2,6.77,2.58,5.39,9.59,9.66,17.68,10.78,1.8.26,3.75.39,5.16,1.2,1.94,1.12,2.16,3.07,2.24,4.81l.61,13.78a8.24,8.24,0,0,1-.65,4.48,5.73,5.73,0,0,1-4.8,2.74,6.21,6.21,0,0,1-5.53-3.07c-.87-1.63-.87-3.41-1.3-5.13-.47-1.9-2.77-4.17-5.35-3.4a3.37,3.37,0,0,0-2.18,2.16c-1.21,3.14,0,6.45.72,9.66s.8,6.82-2.18,9.35c-1.73,1.48-4.36,2.43-5.8,4.05-1.25,1.41-1.43,3.13-1.72,4.77a32.32,32.32,0,0,1-3,8.89,11,11,0,0,1-3.72,4.57c-3.62,2.39-9.28,2.38-14.25,1.91-4.53-.44-9.18-1.19-12.75-3.16a16.87,16.87,0,0,1-6-5.7c-6.23-9.52-4.12-20.51-1.89-30.83,1.06-4.88,2.45-9.77,2.73-14.7.16-2.82-.15-5.52,1.72-8.12C64.93,176.5,79.57,167.14,90.61,166.66Z" fill="#636363"/><path d="M107.63,360.87a173.34,173.34,0,0,0-8,16.69c-.67,1.59-1.3,3.31-.49,4.87.53,1,1.65,2.09.93,3.06a4.29,4.29,0,0,1-2.41,1.13,42.11,42.11,0,0,1-15.91.53c-1.38,2.88-2.81,5.81-5.5,8.25a17.29,17.29,0,0,1-11.47,4.34c-3.09,0-6.38-.9-9.14,0a14.57,14.57,0,0,0-3.5,2c-4.44,2.93-10.79,4.12-16.86,5.2a12.65,12.65,0,0,1-4.2.28,25.37,25.37,0,0,1-3.5-1.08c-4.16-1.21-8.9.23-12.9,1.65-1.93.67-4,1.42-5,2.69a5.26,5.26,0,0,0-1,3.48L7.75,449.6a2.73,2.73,0,0,0,.49,2A6.35,6.35,0,0,0,11.3,453c29.5,7.74,62.35,7.13,94,5.75,6.36-26.87,17.3-53.38,19-80.56.41-6.59.38-14.2-3.61-20.4C116.59,351.37,110.09,356.37,107.63,360.87Z" fill="#262521"/><path d="M39.66,307.6c4.05,3.34,6.1,7.78,5.68,12.29,3.2-.55,6.4,1.41,5.82,3.56-.25.91-1,1.82-.82,2.7.15.62.79,1.11,1.34,1.61,4.45,4,3.92,10.28-1.23,14.53A8.28,8.28,0,0,0,48,344.73a3.79,3.79,0,0,0,.12,2.61,27.85,27.85,0,0,1-1.57,18.71,10.61,10.61,0,0,1-3.22,4.47,8.91,8.91,0,0,1-6.56,1.71c-3.35-.6-4.21-3.38-4.44-5.72a81.61,81.61,0,0,1,6.75-40.65" fill="#262521"/><path d="M123,300c-1.69-6.1-4.83-5.23-12.11-7.69-3.78-1.28-4-2.45-4.59-5.15-.16-.77.07-6.32-2-6.42-2.72-.12-3.28,3.23-6,3.25-1.19,0-2.12-.67-3.26-.87a4,4,0,0,0-4.56,2.71c-.27,1.52.54,3,.58,4.57.1,3.63-4.78,7-10.29,7.1-6,.12-10.87-3-15.77-5.33s-12.4-3.78-16.44-.83a8.13,8.13,0,0,0-2.75,4.24q-1.3,3.62-2.44,7.24c-1,3.37-2,6.88-.69,10.21,2,5.23,9.45,10.21,6.29,15.2l5.44.74L52.14,344.2a1.5,1.5,0,0,0,.09,1c.64,1.11,3.15.8,4.8,1.27,2.48.71,2.53,3.06,1.5,4.7s-2.75,3.25-2.46,5a6.37,6.37,0,0,0,2.13,3c1.7,1.66,4,3.52,7,3.37,4-.21,5.48-3.58,8.6-5.25,5.4-2.88,14.08,0,20.22-2.16s6.87-8.55,13.17-10.66c3-1,6.7-.84,9.47-2.06a10.09,10.09,0,0,0,3.81-3.18C130,327.2,126.49,312.79,123,300Zm-17,27.45a6.51,6.51,0,0,1-6.59,1.42c-1.66-.7-2.27-2.18-3.95-2.87-2.3-.94-5.21,0-7.69.77a38.7,38.7,0,0,1-16.17,1.05c1.73-1.89,6.13-1.7,8.62-3.18s2.68-4.59,5.87-5.47c3.72-1,7.81,2,11.65,1.18,2-.41,3.15-1.69,4.6-2.66,6-4,4.61,2.68,4.82,4.79C107.3,324.19,107.3,326,106,327.46Z" fill="#262521"/><path d="M102.13,225.15c-.83-2.53,2-4.92,2.56-7.48.73-3.24-2.14-6.39-2.09-9.67.07-4,4.44-7.54,4.26-11.52-.11-2.54-2.08-4.87-4-7.08-3.07-3.56-7.63-7.64-13.79-7.1-6.46.56-9.18,5.4-14.72,7.1-5.78,1.78-12.29,0-16.19,4.06C54.81,197,54.81,203,53.9,207c-1.53,6.69-3,13.39-4.51,20.09-3,13.35-6,26.76-6.27,40.25,0,2.14.07,4.46,2.06,6.15,3.28,2.77,9.6,2.46,14.94,2.6,6.54.17,13,1.42,19.53,1.18s13.65-2.58,15.13-6.78c.83-2.32.17-5.3,3.24-6.56,1.22-.51,2.85-.6,3.81-1.3a2.72,2.72,0,0,0,.9-2.57q-.32-8.2-.62-16.42c-.1-2.45-.07-5.14,2.33-7,1.18-.92,2.88-1.58,3.59-2.69C110,230.87,103.2,228.41,102.13,225.15Zm-16,11.41c-3.28.82-6.92.4-10.43.43-1.89,0-4,.13-5.42-.69s-1.51-2.3-1.46-3.58c.1-2.18.19-4.37.29-6.55a5.23,5.23,0,0,1,.94-3.36c2-2.48,7.21-2.65,11.48-2.5a9.09,9.09,0,0,1,1.95-5.16,7.4,7.4,0,0,1,6.69-2.06c.43,2.67-1.52,5.5-1.92,8.19a5.36,5.36,0,0,0,.72,4.27c.52.68,1.3,1.25,1.9,1.9C93.75,230.57,91.31,235.26,86.11,236.56Z" fill="#262521"/><path d="M75.68,174.49c-1.18.7-2.66,1.31-3.18,2.31a4.75,4.75,0,0,0-.29,1.83,4.22,4.22,0,0,1-.76,2c-1.58,2.31-5.35,4-9.23,3.84a4.49,4.49,0,0,1-2.1-.47,2.22,2.22,0,0,1-.84-1c-2.7-5.47,4.59-11,11.32-13.61C78.54,166.24,83.19,170,75.68,174.49Z" fill="#262521"/></g><g clip-path="url(#b)"><path d="M256,119.19l10-3.79c.85-1.38-1.74-2.51-3.78-2.8-16.59-2.36-33.6.84-49.92,4a20.27,20.27,0,0,0-5,1.43,15.68,15.68,0,0,0-3.65,2.77,139.22,139.22,0,0,1-26.34,19c-5.37,3-11.59,6.5-11.71,11.42,0,1.5.53,3,.39,4.49-.22,2.22-2,4.21-4,5.87a33.75,33.75,0,0,1-12.43,6.18c-2.72.74-5.64,1.22-8,2.41a10.38,10.38,0,0,0-6,9.07c-.08,3.48,1.41,6.88,3,10.15.82,1.65,1.68,3.35,1.53,5.09-.19,2.15-1.88,4.05-3,6-3.23,5.61-2.1,12.15,1.19,17.74s8.55,10.43,13.76,15.2c3.15,2.89,6.55,5.91,11.34,7.12,5.81,1.46,12.29-.12,17.47-2.52s9.61-5.59,14.9-7.86c8.86-3.79,19.53-4.73,28.68-8.14,18.53-6.9,27.26-22.19,37.86-35.2,3.16-3.88,7.12-7.93,13.12-9.11,3.55-.7,7.33-.28,11-.59,10.36-.87,18.69-7.48,29.11-7.82,3-.09,6,.33,8.84-.12s5.76-2.22,5.41-4.35c-.53-3.27-7.95-5.5-5.68-8.36a7.74,7.74,0,0,1,1.52-1.22c4.63-3.47,2.3-9.19-.31-13.63l12.79-1-5.89-9a16.84,16.84,0,0,0-3.52-4.27c-2.77-2.21-6.9-3.18-10.86-4-9.89-2-20.52-3.56-30.32-1.32-5.48,1.26-11.11,4-16.91,2.7C268.25,124.2,257.38,118.66,256,119.19Z" fill="#636363"/><path d="M322.22,151.4a1.31,1.31,0,0,0-.74.28.87.87,0,0,0-.18.7c.21,2.3,3,3.65,4.74,5.37,2.94,2.85,3.29,7,5.31,10.43a17.36,17.36,0,0,0,5.78,5.61,12.18,12.18,0,0,0,5.39,2,8.25,8.25,0,0,0,8-4.34,7.5,7.5,0,0,0-1.53-8.23C343,156.83,332.12,149.81,322.22,151.4Z" fill="#636363"/><path d="M189.2,92.82A8.54,8.54,0,0,0,186,91a11.33,11.33,0,0,0-4.81.11c-5.12.87-10.72,2-13.84,5.63-1.55,1.81-2.29,4-3.67,6-3.48,4.83-10.68,7.17-13.33,12.39-1.47,2.89-1.27,6.19-1,9.34a6.86,6.86,0,0,0,.75,3.15c1.69,2.76,6.15,2.66,9.53,3.69,4.95,1.51,8.5,6,13.72,6.41,4.64.36,8.61-2.67,12-5.5l9.23-7.79a14.81,14.81,0,0,0,4-4.46,12.68,12.68,0,0,0,.86-5.49l0-6.75c0-3.06-2.2-4.39-3.94-6.76C193.37,98,192.11,95.26,189.2,92.82Z" fill="#636363"/><path d="M195.08,82.16a1.73,1.73,0,0,1-.62,1.44,2.4,2.4,0,0,1-1.31.23l-9.33-.09a11.27,11.27,0,0,0-3.81.39A12.45,12.45,0,0,0,176.89,86c-3.35,2.41-7.83,4.06-12,3.14s-7.49-5.21-5.67-8.65C162,75.17,174.26,68.27,181,67.76c3.79-.29,6.77,1.18,9.62,3.24C195.42,74.48,195.5,76.94,195.08,82.16Z" fill="#636363"/><path d="M292.13,88.62c1.72,3.16,6.19,4.44,10.19,4.38s7.94-1.1,11.94-1.14c2.66,0,5.33.4,8,.14s5.41-1.41,6.38-3.57c.62-1.35.51-3,1.69-4s3-.92,4.62-.57c5.75,1.29,10.17,5.15,15.19,7.9s12,4.27,16.57.93a10.74,10.74,0,0,0,3.85-6.45,18.34,18.34,0,0,0-1.79-12.76c-3.09-5.73-9.1-10-15.68-12.66s-13.77-4-20.89-5.36c-13.45-2.5-27.62.22-33.32,8.37C297.45,65.79,292.6,89.48,292.13,88.62Z" fill="#636363"/><path d="M375.12,101c-3.35.65-4.33,5.44-7.75,5.39-1.89,0-3.18-1.59-4.73-2.53a7.86,7.86,0,0,0-9,.89,11.33,11.33,0,0,0-2.57,4.86l-3.95,11.89c-3.15,9.5-6.33,19.32-4.86,29.12a3.65,3.65,0,0,0,.52,1.59c1.29,1.86,4.83.88,6.12-1s1.39-4.2,2.57-6.11c1.77-2.85,5.75-4.27,9.47-4.16A25.83,25.83,0,0,1,371.45,144a13.09,13.09,0,0,0,4.34,1.58c4,.43,7.41-3.32,7.28-6.85-.08-1.95-.56-4.53,1.5-5.31,1.68-.63,3.47.72,4.37,2.11,1.94,2.95,2.33,6.47,2.42,9.87.16,6.39-.58,12.9-3.32,18.84a28.13,28.13,0,0,1-14.17,14.14c-3.12,1.35-7.16,2.81-7.25,5.84s3.73,4.67,7,5.33c10.24,2,22.62-.12,28-8,3.66-5.37,3.25-12,3.55-18.26.29-6,1.32-11.91,1.1-17.88a45.54,45.54,0,0,0-10.8-27.15c-3.32-4-7.32-7.13-11.55-10.37C381.56,106.13,378.45,100.33,375.12,101Z" fill="#636363"/><path d="M344,182.67c-4.14,2.26-5.73,6.23-6.16,10s0,7.56-1.23,11.21c-1.4,4.11-4.84,7.74-6.22,11.86a22.56,22.56,0,0,0-.84,7.61,120.91,120.91,0,0,0,5.9,35.56c1.31,4.07,3.26,8.52,8.29,10.56,2,.83,4.41,1.18,6.21,2.25,2.64,1.56,3.37,4.22,3.93,6.65l4.45,19.42c2.37,10.35,4.89,21,12.52,29.9,1.72,2,4.64,4.13,7.7,3.35,1.44-29.7,2.87-59.53-1.69-89.07-1.82-11.78-4.59-23.47-7.43-35.14C367.44,198.87,363.68,171.91,344,182.67Z" fill="#636363"/><path d="M284.32,200.81c-2.59,2.33-2.85,5.57-4.66,8.26s-5,4.63-6.82,7.25c-4.31,6.16.06,13.82-2.68,20.44a7.72,7.72,0,0,0-1,3.17c.16,3,5.71,4.66,9.65,3.57s6.48-3.83,8.77-6.4A61,61,0,0,1,297,228c2.61-1.91,5.63-3.56,7.79-5.74,4.92-4.95,8.1-17.13,2.18-22.2C302.2,195.93,288.82,196.8,284.32,200.81Z" fill="#636363"/><path d="M287.52,253.62a18.3,18.3,0,0,0-12.37,4.54c-3.14,2.64-5.36,5.78-8.37,8.48-3.91,3.52-9.08,6.23-12.82,9.84a8.8,8.8,0,0,1-2,1.63,10.93,10.93,0,0,1-3.47.88c-9.48,1.33-19,2.67-28.71,2.58s-19.54-1.72-27.38-5.81a7.44,7.44,0,0,0-3.91-1.23,6.13,6.13,0,0,0-3.44,1.68c-1.61,1.31-3.27,2.68-4.06,4.34-1.31,2.77.05,5.9,2.43,8.27s5.68,4.15,8.79,6c12.31,7.4,22.27,16.6,32.12,25.72,4.68,4.33,9.41,8.73,12.34,13.8,5.42,9.38,4.23,20.21,9.54,29.62a10.79,10.79,0,0,0,4.26,4.5c4,2.15,10.06,1.12,13.71-1.37s5.44-6.05,6.92-9.52,2.83-7.08,5.88-10c3.61-3.41,9.3-5.48,12.63-9.05,4.42-4.72,9.56-12.12,9-17.82s-6.41-10.85-1.22-15.14c5.88-4.88,16.87-5.62,21.64-11.1,3.19-3.65,2.34-8.89-1.92-11.9-2.31-1.64-5.35-2.6-8-3.88-6.68-3.18-11.06-8.48-12.19-14.18C296,260.14,295.86,254.07,287.52,253.62Z" fill="#636363"/><path d="M136.78,286.53a31.34,31.34,0,0,0-4.81,21c.47,3.47,1.56,6.94,1.19,10.41-.46,4.32-3.27,8.49-7.67,11.41a6.69,6.69,0,0,1-3.22,1.27c-2.76.17-4.54-2.05-5.29-4-1.79-4.61-1.85-9.47-1.87-14.27q0-13.64.26-27.26c.13-5.83-1.9-13.42,5.81-17.16,4.85-2.35,12.33-2.62,16.86.31C146,273.34,140.25,281,136.78,286.53Z" fill="#636363"/><path d="M149.6,319.49c6-1.62,12.81.3,17.84,3.17,8.15,4.65,13.39,11.89,14.05,19.39.28,3.28-.26,6.61.65,9.83a19.27,19.27,0,0,0,5.06,7.88,44,44,0,0,0,12.31,8.7c4.71,2.29,10.15,4.07,13.53,7.38,3.19,3.12,4.07,7.17,4.32,11.05.28,4.28-.56,9.22-5.45,11.62-6.12,3-14.3.21-21.68.36-8.07.17-15.65,4.44-17.88,10.06-1,2.53-1.4,5.68-4.64,6.87-1.39.51-3.1.53-4.33,1.23-2,1.15-1.75,3.5-3.2,5.06s-4.56,2.07-7.27,2.35l-12.33,1.27a4.55,4.55,0,0,1-1.88-.08,2.55,2.55,0,0,1-1.2-1.08,16.89,16.89,0,0,1-2.58-6.16,2.84,2.84,0,0,0-.75-1.75c-1.64-1.47-5.06.29-5.27,2.17s1.15,3.7,1,5.58c-.21,3.6-5.72,5.92-10.69,6a8.12,8.12,0,0,1-3.33-.51c-2-.86-2.44-2.76-2.68-4.42a202,202,0,0,1,.69-62c1.56-9.36,4-19.2,13.67-26,3.64-2.57,6.95-4.79,9.71-8C140.6,325.65,143.38,321.18,149.6,319.49Z" fill="#636363"/><path d="M304.35,357.44a68.46,68.46,0,0,0-16.84,9c-4.79,3.35-9.44,7-11.72,11.56-1.84,3.67-2,7.65-3.16,11.46-1.78,5.85-5.92,11.38-5.93,17.36a4.5,4.5,0,0,0,.77,2.86,7,7,0,0,0,3.79,2.11c7.38,1.92,15.41-2.14,19.3-7.07s5.17-10.74,8.59-15.85c3.76-5.63,10.13-10.31,17.83-13.11,7.55-2.75,22.94-5.83,18.07-14.35C330.3,353.14,313.28,354.37,304.35,357.44Z" fill="#636363"/><path d="M346.52,376c-8.8,2.41-17,6.71-21.13,12.82-2.58,3.78-4,8.47-9,10.54-1.92.79-4.14,1.08-6.16,1.7-3.54,1.09-6.48,3.32-7.34,6s.62,5.83,3.87,7.31c3.48,1.59,8.11,1.09,11.78-.24s6.75-3.4,10.18-5c11.4-5.42,26.73-6.12,36.36-13.12,1.5-1.09,2.83-2.32,4.44-3.33,2.41-1.5,5.39-2.47,7.78-4,3.31-2.1,5.32-5.25,5.39-8.44C383,367.25,355.6,373.48,346.52,376Z" fill="#636363"/><path d="M369.11,408.93a5.75,5.75,0,0,0-5-.73c-3.15,1-3.53,4.14-5.61,6.13-1.39,1.33-3.52,2.12-5.57,2.87l-8.75,3.19c-3,1.1-6.13,2.28-8,4.32s-1.71,5.22,1.14,6.51a12.7,12.7,0,0,0,4.46.77L361,433a7.34,7.34,0,0,0,2.82-.22,4.21,4.21,0,0,0,1.59-1.11c2.64-2.7,3.37-6.14,3.56-9.45C369.15,419.36,371.86,411.05,369.11,408.93Z" fill="#636363"/><path d="M125.62,125c3.56-1.18,7.72-1.78,11.07-.19a16.06,16.06,0,0,1,3.19,2.18l12.46,10.06c2,1.66,4.18,3.43,5,5.75,1,2.9-.32,6.07-2.41,8.49s-4.88,4.29-7.39,6.39a39,39,0,0,0-13.38,21.83,26.64,26.64,0,0,1-1.72,6.63,7.53,7.53,0,0,1-5.62,4.31,8,8,0,0,1-6.61-2.71,18.2,18.2,0,0,1-3.21-6l-3.92-10.32c-.77-2-1.67-4.21-3.71-5.39-2.91-1.69-6.81-.68-10.24-1.22-15-2.33-7.76-20-4.31-27.66,1.74-3.84,4-6.7,8.73-7.86,3.43-.82,7-.19,10.48-.64C118.17,128.1,121.75,126.29,125.62,125Z" fill="#636363"/><path d="M296,71c2.46.28,17.71-1.27,19.43-2.81s4.85-2.75,6.46-1.11c.6.61.89,1.55,1.77,1.8,1.77.5,2.73-2.36,4.59-2.31a2.77,2.77,0,0,1,1.55.66,15.08,15.08,0,0,1,5.2,6.44,5,5,0,0,1-4.91-.21c-.83-.55-1.65-1.41-2.66-1.21-1.23.25-1.36,1.8-2.34,2.5-1.5,1.07-3.55-.37-5.27-1.14a5.62,5.62,0,0,0-4.84,0,2.67,2.67,0,0,0-1.17,3.82c.68.88,2,1.29,2.66,2.16,1.05,1.32.29,3.24-1.14,4.25a12.26,12.26,0,0,1-5.14,1.6c.68,1.84,1.37,3.84.67,5.68s-3.46,3.17-5.23,2c-.55-.36-.92-.89-1.42-1.29-2.19-1.77-5.7-.59-8.32.67.68-1.78-1.4-3.61-3.54-3.84s-4.21.61-6.21,1.32c-16.69,6-35.53,4.15-53.44,2.25,2.24,5.7,5.38,12.16,12,13.81,3.23.79,7.14.39,9.5,2.47a20.58,20.58,0,0,0,2.16,2.12c3.47,2.22,7.93-2.21,12.22-1.86,2.74.22,4.71,2.35,7.23,3.32,5.47,2.09,11.44-1.67,17.39-2.16a31.56,31.56,0,0,1,9.74,1.2l8.85,2a3.73,3.73,0,0,1,1.86.79,5.31,5.31,0,0,1,.82,1.54c1.53,3.08,6.73,2.76,10.19,1.3s7.22-3.6,10.84-2.46c1.65.52,3.28,1.71,4.93,1.2,1.94-.6,2.06-2.89,2.05-4.67a24.11,24.11,0,0,1,6.31-16.22c.22-.7,1.41-.64,2.11-.25s1.42,1,2.22.79a2,2,0,0,0,1.33-1.39A10.61,10.61,0,0,0,353.26,84c-.74-1.08-1.72-2.17-1.67-3.43.13-2.72,4.94-4.93,3.21-7.2-1.12-1.47-3.93-.94-5.44-2.13s-.92-3.2.43-4.32,3.27-1.5,5.09-1.85c-1.51.29-8.4-4.35-10.12-5.1a100.07,100.07,0,0,0-12-4.28c-2.49-.71-22.22-11-24.86-10.11S297.52,67.36,296,71Z" fill="#262521"/><path d="M195.05,83.24c0,1.18-.08,2.58-1.24,3.2-1.76.94-4.64-.69-5.89.74-.78.89-.08,2.18-.25,3.3-.4,2.61-4.82,2.89-6.69,5a6.43,6.43,0,0,0-1.24,3.93l-1,11.74c3.82,2.64,9.52.58,14.24,1.6,2,.45,4.08,1.48,6.1,1,2.22-.54,3.38-2.69,5.41-3.64,3.82-1.81,9.66,1,12.46-1.89,1.22-1.26,1.2-3.07,1.81-4.62,1.27-3.28,5.3-5.38,6.27-8.73,1.13-3.88-2.41-7.75-6.56-9.47s-8.86-2-13.27-3.09c-3.91-1-6.43-3.86-10-4.89C194.69,79.14,195,81.34,195.05,83.24Z" fill="#262521"/><path d="M218.61,120.83c-.29-3-5.13-3.53-8.46-2.75-4.07.94-8.17,2.54-12.32,1.94s-8.65-3.46-12.42-1.64c-2.68,1.29-3.95,4.64-7,4.92a11.81,11.81,0,0,1-3.43-.54c-5.24-1.14-11.22,1.45-13.32,5.79,2-5.37-5.65-11.78-1.68-16.24,1.69-1.91,5.13-2.66,5.81-5,.25-.87,0-1.79.25-2.67.86-3.83,8.66-5.3,7.4-9a39,39,0,0,0-16.46.62c7-11.56,23.17-16.13,34.13-25.08A28.39,28.39,0,0,1,180.57,62a25.23,25.23,0,0,1-3-5.81c-.43-1.23-.44-4.51-1.5-5.34-2.78-2.19-12.21,1.64-15.22,2.65-5.4,1.81-10.57,4.09-15.73,6.35-4.4,1.94-8.86,3.91-12.65,6.66-5.2,3.79-8.91,8.88-12.3,14a227,227,0,0,0-17.3,31c-2.2,4.8-4.25,9.77-4.33,14.93-.09,4.78,2,10,6.81,12.28.61,0,1.21.07,1.78.07a21.66,21.66,0,0,0,2.62-.11c.31-.22.61-.46.89-.7l10.69-9.13a50.14,50.14,0,0,1,3.35,4.6,3.78,3.78,0,0,1,2.15.67,4.94,4.94,0,0,1,1.6,3,6.09,6.09,0,0,1,.14,3.22,5.3,5.3,0,0,1-1.13,1.84,8.39,8.39,0,0,1-.7,2.75,14.37,14.37,0,0,1-3.39,4.36,10,10,0,0,0-.11,1.34,3.52,3.52,0,0,1-.33,1.9,3.17,3.17,0,0,1-1.18,1c-2.32,1.33-5.23,2.18-6.6,4.28a28.92,28.92,0,0,1-1.5,2.74,2.49,2.49,0,0,1-3,.75l-.06-.31-.3.28c.36-2.57-1.38-4.81-3.9-6.18-3.11.06-6.27,1.24-9.33.65a8.53,8.53,0,0,1-1.81-.57c-3.79,2-6.41,5.73-8,9.47a30.32,30.32,0,0,0-1,20.69,2.64,2.64,0,0,0,.77,1.34c1,.77,2.53.23,3.66-.37a59.65,59.65,0,0,0,17.82-14.25,17.24,17.24,0,0,1-.26,16.38,3.43,3.43,0,0,0-.7,2.27,3.32,3.32,0,0,0,1.33,1.71,42.47,42.47,0,0,0,14.53,7.64c.11,2.48.25,5,1.51,7.27a7.2,7.2,0,0,0,6.76,3.74c2.54-.28,4.59-2.15,7.14-2.35,2.73-.21,1,5.72,2.1,7.92.74,1.52,5.13-.9,5.17.76a65.36,65.36,0,0,1,3.61-20.28c1.14-3.3,2.56-6.57,3-10,.91-6.85-2.09-13.58-5-20,2-2.78,7,.14,10.69-.44,5.64-.89,5.82-9.21,11.35-10.57,3.25-.8,8.05.8,9.29-1.94a14.21,14.21,0,0,1,.6-1.81c1.26-2,5.34-.5,7.26-2.09,1.25-1,.92-2.85,1.65-4.22,1.35-2.5,5.33-2.5,8.51-2.61s7.23-1.94,6.32-4.59a11.52,11.52,0,0,0,9.58-2.54c-1.67-2.61-3.08-5.93-1.25-8.45C213.66,125.15,218.91,124,218.61,120.83Zm-84.22-14.31c.2-1.57,2.47-2.21,3.43-3.54,1.76-2.46-1.4-6.35,1-8.34,1.13-1,7.4,1.63,7.91,3.13.86,2.5-2.43,7.69-3.3,10a4.71,4.71,0,0,1-2.22,3c-1.86.83-4-.43-5.46-1.77A3.22,3.22,0,0,1,134.39,106.52ZM153,148.17c-2.59,1.93-5.76,3.31-7.84,5.66-3,3.37-3.59,8.5-7.9,10.51-1.45.67-3.17.89-4.46,1.77-2.28,1.55-2.39,4.45-2.53,7a40.39,40.39,0,0,1-1.42,8.64,5.24,5.24,0,0,1-1.5,2.8,2.67,2.67,0,0,1-3.24.23,2.47,2.47,0,0,1-.65-2.06c.2-4.38,3.59-8.15,4.71-12.42,1-4,.12-8.33,2.08-12,2.54-4.78,9.35-7.35,10.82-12.45.62-2.18.16-4.54,1-6.64,1.53-3.61,4.89-2.85,6.77-.56,1.14,1.39.14,2.66,2.55,3.3,1.54.4,3.82-.81,5.07-1.35C157.79,143.31,155.3,146.42,153,148.17Z" fill="#262521"/><path d="M325.16,151.23c-1.21-3.41-2.68-7.11-6.63-9.16-5.87-3.06-14-1-21.19-1.85-3.22-.37-6.27-1.34-9.5-1.65-7.62-.74-12.32,2.64-19.13,3.83-2.17.38-4.09.85-5.28-.91s3.36-5,3.67-4.69c-2.16-2.28-6.57-2.69-10.36-2.37s-7.61,1.16-11.32.55c-2.93-.48-5.51-1.82-8.47-2.17-4.12-.49-8.16,1-11.84,2.44l-38.7,15.15c-4.4,1.72-8.94,3.53-11.92,6.44s-3.9,7.26-.78,10.09c1.67,1.5,4.19,2.36,6.18,3.63s3.49,3.42,2.2,5.11c-5.43.91-11,1.85-15.68,4s-8.47,5.86-8.35,9.9c.1,3.52,3.05,6.7,3.61,10.2.6,3.75-1.58,7.41-2.61,11.11a19.69,19.69,0,0,0,3.58,17.27c2,2.62,4.64,5.19,4.59,8.17-6.33,1.22-13.64-1.51-15.93-6-.74-1.45-1-3-2-4.39-2.37-3.36-8.06-4.53-13.13-5.37l-10.41-1.72c-6,15.62-6.66,32-7.31,48.24,0,1.32,0,2.82,1.3,3.75s3.49.91,5.15,1.53c3,1.11,3.67,3.88,4.42,6.24s2.7,5.09,6,5.07a11.82,11.82,0,0,0,4.48-1.28,38.67,38.67,0,0,1,16.53-2.76,22.38,22.38,0,0,0,5.43-.07c5.37-1.11,6.16-6.32,5.77-10.36s0-9.19,5.24-10.62c3.55-1,9-.13,10.1-2.76.4-1-.09-2,0-3,.13-2.58,3.89-4.39,7.45-4.52s7,.91,10.32,1.72a80.41,80.41,0,0,0,23,2.07c3-.16,6.21-.54,8.58-1.92,2.63-1.52,3.87-4,6.46-5.56,3.06-1.83,7.38-2,10.91-3.29,5.52-2.05,8.32-6.53,10.7-10.69,4.19-7.29,8.47-15.06,6.75-22.87-.65-3-2.17-5.9-1.8-8.9a7.29,7.29,0,0,1,7.77-5.82c1.53.13,3.1.71,4.52.28,1.19-.35,1.87-1.3,3-1.66,2.24-.69,4.4,1.07,6.76,1.47,3.46.6,6.5-1.81,8-4.15s2.58-5.09,5.63-6.42c3.84-1.68,8.7-.27,13.16.09s10.38-1.94,8.86-5c-1-2-4.46-2.63-6.16-4.33-4-4,4.33-9.12,3.51-14a5.07,5.07,0,0,0,5.43-2.83C326.39,154.8,325.77,153,325.16,151.23ZM244.9,191.3c-2.07,2.32-5.19,4-7.51,6.21-1.67,1.57-3.17,3.52-5.81,4a13.28,13.28,0,0,1-4.12-.11l-15.45-2c-2-.26-4.42-.71-5.21-2.11a5.15,5.15,0,0,1-.38-2c-.27-2.27-2.07-4.28-3-6.46s-.72-5,2-6.16c1.57-.66,3.51-.56,5.28-.87s3.62-1.41,3.17-2.69c5.66,1.63,12.87-1.46,13.65-5.84.3-1.73-.11-3.78,1.67-5s4.61-.67,6.14.57a6.14,6.14,0,0,1,2.07,4.66c.12,2-.35,4.29,1,6.07,1.5,2,4.61,2.51,6.68,4.07C247.67,185.63,247,189,244.9,191.3Z" fill="#262521"/><path d="M290.43,210.49c-1.61,1.85-6,.81-8.24,2.28-1.42.94-1.45,2.52-1.35,3.91.17,2.33.41,4.73-.66,6.93a45.1,45.1,0,0,1-3,4.25,9.69,9.69,0,0,0-1.17,8.44,3,3,0,0,0,2.54,2.26,4.17,4.17,0,0,0,2.91-1.16c2.45-2,4.44-4.45,7.77-5.57,1.11-.37,2.32-.57,3.42-1,4.94-1.74,6.12-6.36,6.69-10.33.49-3.42,3.82-11,0-13.81-1.15-.84-6.15-2-7.49-1.33C289.73,206.51,292,209.08,290.43,210.49Z" fill="#262521"/><path d="M332.84,193.85c-3.67,2.24-9.75,2.12-12.35,5s0,6.93-2,10.07c-.93,1.52-2.78,2.61-4.18,3.92s-2.34,3.18-1.19,4.6l-3.58.18a4.44,4.44,0,0,0-1.06,5.41c.79,1.81,2.33,3.4,3.64,5.05,4.79,6.09,6.4,13.46,4.44,20.32a10.58,10.58,0,0,0-.75,4.07,9.31,9.31,0,0,0,1.09,3l9.7,19.24c1,2,2.65,4.35,5.57,4.42a5.53,5.53,0,0,1,2.61.25,1.62,1.62,0,0,1,.69,1.28,17.24,17.24,0,0,1-1.13,8.89,5.71,5.71,0,0,1,5.19,3,9,9,0,0,1,.33,5.14L339,304.3a2.42,2.42,0,0,0,.19,1.65c.76,1.19,3.1,1.25,4.79.8s3.34-1.23,5.13-1.1c3.72.28,4.71,3.94,4,6.6s-2,5.77.45,7.83c.88.74,2.15,1.22,2.88,2,1.24,1.38.8,3.48,2.63,4.44a5.12,5.12,0,0,0,3.05.36,8.6,8.6,0,0,0,6.89-5.58c.9-2.55.67-5.23,1.05-7.85.56-3.79,2.4-7.4,3.79-11.07a48.42,48.42,0,0,0,.62-33,4.54,4.54,0,0,0-1-1.86c-3-3.08-11.47.24-14.39-2.91-1.13-1.22-1-3.16-2.91-3.73-2.85-.86-5.5,2.86-8.38,2a3.23,3.23,0,0,1-1.67-1.23c-1.86-2.51-1.15-5.61.14-8.3s3.13-5.3,3.4-8.14c.69-7-8.13-12.94-8.47-20a1.87,1.87,0,0,1,.92-1.94A9.9,9.9,0,0,1,345,223c2.33-.32,3.2-2.4,3.33-4.12s.18-3.73,2.07-4.76c3.71-2,10.46,1.77,13.12-1,2.81-2.9-.06-10.35-1.35-13.44a14.45,14.45,0,0,0-6.08-7c-2.62-1.67-7.56-5.52-10.69-6.24C338.63,185,336.73,191.49,332.84,193.85Z" fill="#262521"/><path d="M304.77,274.17c-8.22-2.33-12.6-1-13.07-8.61-.29-4.67-4.9-8.52-9.26-11.95a10.07,10.07,0,0,0-3.81-2.17c-3.33-.86-7.28.92-10.44-.23a4.38,4.38,0,0,0-2.05-.51c-1.36.2-1.26,1.61-1.81,2.54-1.1,1.86-4.88,1.55-7.4.68s-5.58-2-7.86-.82c-3.53,1.81-.13,6.1-2,8.94a13,13,0,0,0-1.28,1.75c-.89,2.15,2.67,3.9,3.4,6.09,1,3.14-4.16,5.64-8.61,5.6s-8.76-1.46-13.21-1.26c-2.77.12-5.62.88-8.26.25-2.41-.58-4-2.17-5.92-3.4A20.76,20.76,0,0,0,202.51,268a13.58,13.58,0,0,0-7.41,1.66c-3.76,2.39-3.51,6.62-2.74,10.21a102.67,102.67,0,0,0,12.11,30.55,2.71,2.71,0,0,0,2,1.55c1,.11,1.94-.57,3-.64,1.89-.13,2.88,1.57,3.22,2.92a66.33,66.33,0,0,1,1.88,21.29c-.09,1.11,0,2.52,1.48,2.93s3.11-.67,4.66-.41a3.66,3.66,0,0,1,2.39,1.88c1.82,2.73,3.56,6.19,1,8.6-.56.52-1.33,1-1.43,1.67-.23,1.57,3,1.89,5.12,1.57a9.06,9.06,0,0,0,3.11,6.71c2.94-.91,3-3.94,4.81-5.83s5.86-2.48,9.28-2.37,6.93.6,10.19-.16c2.92-.68,5.22-2.28,7.79-3.49s5.95-2,8.66-1l.94-13.93a4,4,0,0,1,1-2.79c1.36-1.29,4-1.28,6.11-1.74a11.32,11.32,0,0,0,7.43-5.33,20.41,20.41,0,0,0,2.14-7.66l1.62-11.59a10.7,10.7,0,0,1,1.86-5.46c1.62-2,4.55-3.28,7.23-4.6,4.39-2.16,8.58-4.93,10.17-8.6S309.71,275.58,304.77,274.17Zm-30.51,38.14c-.42.95-1.38,2.1-2.72,1.86-1.05-.18-1.44-1.1-2.27-1.6-1.54-.92-3.87-.1-5.31.9s-2.93,2.27-4.92,2.25c-1.56,0-2.86-.82-4.22-1.38a14.29,14.29,0,0,0-11.31.38,17.16,17.16,0,0,1-2.75,1.36,12.48,12.48,0,0,1-4.33.26,2.46,2.46,0,0,1-1-.19,1.18,1.18,0,0,1-.56-.86c-.56-2.8,2.31-5.74,6.15-6.27,1.77-.24,3.8-.08,5.17-.94a5.08,5.08,0,0,0,1.46-1.65,25.65,25.65,0,0,1,5.08-5.49,4.36,4.36,0,0,1,3.26-1.21,5.7,5.7,0,0,1,2.41,1.36c3,2.1,8.83,1.2,10.41-1.6a18.71,18.71,0,0,1,1.25-2.64c3.06-3.94,7.17-.74,7.36,2.12C277.73,303.36,276.12,308.18,274.26,312.31Z" fill="#262521"/><path d="M129,289.29c3.09.38,6.18-.52,9.3-.63s6.9,1.19,6.86,3.46c0,.47-.18,1,.06,1.41.47.87,2.07.92,3.33,1.11,2.44.36,4.52,1.82,5.09,3.58s-.39,3.74-2.36,4.86a11.58,11.58,0,0,0-2.37,1.37c-1.77,1.69.32,4.33-1.09,6.19-1.11,1.47-3.84,1.76-6.14,1.66s-4.79-.41-6.77.44c-3.13,1.33-3.23,4.67-5.71,6.58-1.8,1.38-4.54,1.81-7,2.44s-5.09,1.78-5.53,3.66c-.39,1.68.87,3.91-1.13,4.81a3.56,3.56,0,0,1-3.71-.83,4.77,4.77,0,0,1-1-3A142.73,142.73,0,0,1,111,297c.32-3-.3-8.64,4.1-10.38C120,284.76,124.47,288.73,129,289.29Z" fill="#262521"/><path d="M203.73,351.51c-.76-2.28-2.64-4.34-3-6.67-1.05-6.06,8-11.95,4.67-17.55-1.69-2.83-6.49-4.45-7.57-7.47-1.2-3.35,2.6-6.34,2-9.72-.83-4.52-9.26-12.59-16.2-8.78-2.44,1.34-3.41,3.64-4.24,5.78-11.7-1.2-24,4.52-27.41,12.73-.56,1.36-.93,2.81-2.14,3.92-2.71,2.51-7.95,2.11-12.28,2.67a25.83,25.83,0,0,0-16.13,9.06c-9.77,11.49-8.62,26-7.13,39.45.45,4.14,1,8.45,4,12,1.35,1.63,3.18,3,4.31,4.75s1.41,3.92-.26,5.37-5.72,1.51-7.41-.14a24.37,24.37,0,0,0-.36,13.54c2.08,1.07,5-.17,6.54-1.62s3-3.28,5.43-3.74a13.42,13.42,0,0,1,5.07.42c4.94,1,10.49,1.34,15-.45s7.14-6.31,4.34-9.43c1.61-1.51,4.93-1.07,7.24-.16s4.66,2.2,7.26,1.93c3-.31,6.49-2.48,8.4-.78,1,.87.65,2.35,1.92,3s3.06-.11,4.28-.87c6-3.71,12.53-8.51,11.26-14.14-.34-1.5-1.23-2.92-1.38-4.44a3.42,3.42,0,0,1,2.79-3.69c1.35-.28,2.81.12,4.21,0a4.86,4.86,0,0,0,4.23-3.62c.39-1.67-.05-3.38-.06-5.08C201,362.26,205.51,356.86,203.73,351.51Zm-12.85-14a62.56,62.56,0,0,1-5.63,13.4,3.42,3.42,0,0,1-1.28,1.46,6.19,6.19,0,0,1-2.95.43l-11.09-.17a11.42,11.42,0,0,0-3.52.31c-4.46,1.4-3.31,7.23-7.85,8.49a6.1,6.1,0,0,1-6.3-2.24c-1.08-1.69-.81-3.67-.15-5.48,1.23-3.35,3.7-6.38,6.13-9.36,1.19-1.45,3.3-3.12,5.38-2.37,1.35.49,1.81,1.81,3.15,2.3a3.91,3.91,0,0,0,4.29-1.54c.74-1.18.7-2.52,1-3.79a2.48,2.48,0,0,1,1.14-1.62,8.36,8.36,0,0,1,2.81-.55c2.36-.31,4.27-1.53,6.26-2.5C187.24,331.88,192.28,332.56,190.88,337.5Z" fill="#262521"/><path d="M181,421.52c-4-4-4.66-9.3-4.76-14.27-3-2.15-8.23-2.32-11.74-.59s-5.2,5.1-4.42,8.13c.66,2.55,2.8,5.36.8,7.51-1.56,1.67-4.77,1.88-7.54,2a114.17,114.17,0,0,0-37.25,8.16c7.45,10.84,5.91,26.36,8.06,38.38,26.42.57,59.4-2.64,85.71-4.42,24.94-1.69,44.41,1.87,69.45,1.2,27.54-.73,59.34,5,86.71,2.63a4.84,4.84,0,0,0,2.78-.82,2.31,2.31,0,0,0,.58-1.81c.12-8.86,1.34-27.78,1.46-36.64-7.1-.18-14.41-.4-20.89-2.53s-12-6.66-11.81-11.82c4.46-2.59,13,2.23,16.12-1.26.79-.87.94-2.13,2.22-2.61s3,.26,4.53.41c4.5.44,6.29-4.07,6.32-7.37l0-8c0-2,0-4.07-1.14-5.88-1.91-3-6.84-4.72-11.43-4.4a19.27,19.27,0,0,0-11.55,5c-1.6,1.48-2.9,3.18-5,4.31-4.46,2.43-11.19,1.57-15.63,4-3.48,1.92-6.14,5.89-10.35,5a5,5,0,0,1-3-1.93c-1.76-2.38-.73-5.43,1.52-7.58s5.53-3.58,8.72-5c9-3.91,18.22-7.88,28.49-9.41a38,38,0,0,0,7.91-1.57c7.61-2.92,7.89-10.62,7.14-16.84a3.05,3.05,0,0,0-.79-2,5.28,5.28,0,0,0-2.13-1c-8.68-2.35-19.09-.93-26,3.56-2.56,1.65-4.66,3.69-7.5,5.08-6.19,3-14.62,2.5-21.12,5.17-6.69,2.76-10.44,8.57-17.52,10.75-2.26.69-5,.93-7.08,0-4.22-1.93-2.36-6.95,1.58-9.18s9.14-3,12.94-5.38c2.08-1.28,3.64-3,5.78-4.19,4.9-2.8,12.31-2.92,16.31-6.4,3.38-2.93,3-7.43.58-10.82s-6.63-5.93-10.69-8.37a23.87,23.87,0,0,0-8.21-3.59c-6.57-1.15-13,2.45-16.64,6.6s-5.48,9-9.52,13c-4.81,4.69-12.72,8.19-14.1,13.95-1.24,5.2,3.46,10.5,1.88,15.65-1.37,4.48-7,7.47-12.24,10-6.37,3.13-12.9,6.32-20.33,7.77-4,.77-8.12,1-12,2-10.61,2.78-12.22,8.85-15.6,15.56S186.15,426.83,181,421.52Z" fill="#262521"/><path d="M387.63,102.8c.94,2.69-1.5,5.27-3.27,7.62a1.82,1.82,0,0,0-.51,1.61,2.24,2.24,0,0,0,1.17,1c3.54,1.88,9.57,10,13.11,11.88.9.48,4.66-2.53,5.72-2.49,2.44.08-1.22-5-1-7.13,1-7.28-7.13-15.24-14.11-18.46-1.82-.84-5.8-9.46-7.86-8.14-2.53,1.61-.42,12.68-1,15C380.59,103.69,387.61,102.75,387.63,102.8Z" fill="#262521"/><path d="M362.41,113.27a16.12,16.12,0,0,1-4.06-1.12c-1.36-.38-3.14-.31-3.86.76a5.85,5.85,0,0,1-.55.9c-1,1-2.88-.2-3.56-1.42s-1.79-2.81-3.28-2.37-1.21,2.4-1.64,3.76c-.83,2.63-5.34,4.17-4.53,6.8.39,1.24,2,2.25,1.57,3.48s-3,2.11-2.26,3.34c.18.32.56.52.82.8.9,1,.11,2.43-.91,3.31s-2.32,1.68-2.57,2.91c-.21,1,.4,2,.86,3a11.6,11.6,0,0,1,.46,9,3.29,3.29,0,0,1,2.92,2.43,7.65,7.65,0,0,1-.23,3.73c1,.69,2.47-.26,3.13-1.24,3.28-4.88,1-11.56,4.4-16.37a5.63,5.63,0,0,1,4-2.51c1.71-.12,3.56,1.16,3.3,2.63-.18,1.08-1.29,1.81-2.17,2.58s-1.64,2-1,2.89c.41.58,1.24.84,1.69,1.39.75.92.28,2.43,1.32,3.11a2.88,2.88,0,0,0,1.75.29,16.16,16.16,0,0,0,11.83-6.08,12.1,12.1,0,0,0,1.51-11.88,8,8,0,0,1-1-3.28,8.58,8.58,0,0,1,.85-2.64c1.51-4,0-11.2-6.24-10.35C365.15,112.32,363.84,113.29,362.41,113.27Z" fill="#262521"/><path d="M380.53,219.27c-.78-3.92-3-7.48-5.24-11l5,.55c.7-2.5,2.17-4.83,2.52-7.39s-1-5.6-3.85-6.2a1.2,1.2,0,0,0-.75,0,1.18,1.18,0,0,0-.55.65l-1.1,2.33-.15-3.32c0-.53-.16-1.17-.73-1.32s-.88.23-1.17.72q0,3.88.13,7.77c.26,10,.67,20.09-.46,30.06" fill="#262521"/><path d="M402.24,155.53a46.76,46.76,0,0,0-7.07-4.57c-3.22-2,1.74-8.8,2.3-11.71a7.35,7.35,0,0,0-2.69-7.62c-5.18-4.42-16.91-4.93-18.71,2.93a15.74,15.74,0,0,0-.57,4.48c-.15,5.31-.3,10.68,1,15.88a3.56,3.56,0,0,1-4.9-.47c-1.26-1.82.16-4.46-1.32-6.15-1.61-1.84-5.13-.84-6.87.9s-2.79,4.08-5,5.31c-2.61,1.43-6.22,1-8.68,2.62-.74.49-1.33,1.14-2.1,1.58-3.12,1.79-7.45-.71-8.68-3.78-.71-1.76-1.11-4-3.12-4.62a3.7,3.7,0,0,0-3.79,1.24,4.88,4.88,0,0,0-.87,3.64c.47,4.51,4.54,8.15,9,10.49a4.79,4.79,0,0,1,2.06,1.58,4,4,0,0,1,.29,2.17c-.1,3.91,1.44,7.69,2.66,11.45,4.1,12.63,4.7,25.89,6.92,38.87a158.52,158.52,0,0,0,5.77,23.12,7.16,7.16,0,0,1,6.44-1.63c1.17.28,2.36.87,3.54.61a3.31,3.31,0,0,0,2.32-2.77,17.27,17.27,0,0,1,.6-3.59,6.31,6.31,0,0,1,2.41-2.63c.29-2.35.48-4.71.61-7.07.53-10-.09-20-.21-30a.88.88,0,0,1-.68.17,10.94,10.94,0,0,1,.73-9.27,8.27,8.27,0,0,0,8.29.05c2.62-1.59,3.72-4.48,5.84-6.55,1.61-1.58,3.76-2.65,5.67-3.94,3.58-2.42,6.32-5.64,9-8.81,1.3-1.53,2.64-3.14,3-5C405.81,159.88,404.31,157.35,402.24,155.53Z" fill="#262521"/><path d="M107.48,279.73c-2.48,2-6.54,3.27-7.22,5.9-.52,2,1.26,4,1.88,6,.75,2.44-.35,5.14-2.8,6.91A4.34,4.34,0,0,0,97.72,300c-.34.81.27,1.65.86,2.39l3.54,4.38a14.31,14.31,0,0,0,4,3.8,7.86,7.86,0,0,0,6.22.72c2.83-1.06,3.22-3.82,3.29-6.13.31-10.5,4-21.58,3.5-32-.13-2.54-.94-6.92-5.08-5C110.47,269.85,110.74,277.12,107.48,279.73Z" fill="#262521"/></g><path d="M372.19,291.55q-.27,61.74-.62,123.47c-.81,9-2.68,16.4-3.55,25.44-1,10.07,1.34,17-1.5,25.63-.58,1.77-2,1.67-3.35,1.44-44.58-7.74-101.65-5.72-146.65-2.93-24.59.58-58.62-1.67-83,2.09-5.22.6-5.68.28-6.62-4.82-1.34-11.26,1.44-20,0-30.81-6.15-46.82-.89-92.88-3.1-140-1.41,2.82-2.94,5.6-4.29,8.46-2.36,10.67-17.5,9.3-11.81,16.18,11.12,7.95,6.41,21.38,5.15,32.56-.24,3.15-1.34,6.27-.37,9.58.51,8.43-3.19,16.94-4.38,25.31-1.5,8-2.61,15.83-1.53,23.93a5.17,5.17,0,0,1-1.14,3.3c-5.71,6.28-7.74,14-9.19,22.06-.57,3.18-.61,3-3.73,2-12.38-3.52-26.1-4.38-38.61-1.18-1.39.34-2.1,0-2.41-1.47-2-7.76-2.17-16.67-8.49-22.43a6.66,6.66,0,0,1-1.33-3.22A145,145,0,0,1,39,372.86c-1.91-63,2.61-126.93,26.2-186,13.6-35.43,24.56-73.32,48.06-103.67,27.32-18.2,60-23.76,90.46-34.78a3.16,3.16,0,0,1,2.72.43c5,5.55,11.46,8.41,18.56,9.67,19.19,2.43,41.29,5.55,58.65-4.88,2.86-1.27,4.2-6.53,7.88-5,29.12,10.49,61,14.4,87.43,31.58,15.94,14.59,21.63,38,30.45,57.2,27.82,67.49,58,137.4,51.06,212.08-1.2,18.66-.24,37.46-3.29,56-.48,4.66-5.2,7.09-5.56,11.78-1.21,5.28-2.07,10.65-2.9,16-.41,2.6-.42,2.83-3.09,2.33-12.48-2.66-25.25-5.49-37.8-1.58-8.33-.15-8.13-15.56-11.44-21.41-6.28-7.36-3.61-9-5.33-17.63-.9-9.7-4.68-20.27.79-29.26,2-3.53,1.87-7.05.51-10.66-4.9-11.29-7.4-23.42-10.45-35.29-1.06-4.31-1.31-8.5,1.61-12.34,1.49-7.15-10.43-8.7-10.93-15.93Z" fill="none" stroke="#262521" stroke-linecap="round" stroke-linejoin="round" stroke-width="3"/><path d="M121.2,171.92s3,37.54.91,53.17.11,29.69.11,32.87S124.11,291,124.11,291" fill="none" stroke="#262521" stroke-linecap="round" stroke-linejoin="round" stroke-width="3"/><path d="M371.53,166s5.9,70,.11,98l1,27.47" fill="none" stroke="#262521" stroke-linecap="round" stroke-linejoin="round" stroke-width="3"/><line x1="294.06" y1="64.56" x2="300.55" y2="66.25" fill="none" stroke="#636363" stroke-linecap="round" stroke-linejoin="round" stroke-width="2"/><line x1="296.16" y1="56.11" x2="302.94" y2="57.88" fill="none" stroke="#636363" stroke-linecap="round" stroke-linejoin="round" stroke-width="2"/><line x1="248.17" y1="98.45" x2="248.17" y2="105.18" fill="none" stroke="#636363" stroke-linecap="round" stroke-linejoin="round" stroke-width="2"/><line x1="257.79" y1="97.72" x2="258.13" y2="104.43" fill="none" stroke="#636363" stroke-linecap="round" stroke-linejoin="round" stroke-width="2"/><line x1="266.3" y1="95.03" x2="267.5" y2="102.1" fill="none" stroke="#636363" stroke-linecap="round" stroke-linejoin="round" stroke-width="2"/><line x1="273.41" y1="91.2" x2="276.07" y2="98.15" fill="none" stroke="#636363" stroke-linecap="round" stroke-linejoin="round" stroke-width="2"/><line x1="280.09" y1="86.17" x2="284.17" y2="92.17" fill="none" stroke="#636363" stroke-linecap="round" stroke-linejoin="round" stroke-width="2"/><line x1="285.67" y1="79.86" x2="291.34" y2="84.16" fill="none" stroke="#636363" stroke-linecap="round" stroke-linejoin="round" stroke-width="2"/><line x1="289.89" y1="72.72" x2="296.52" y2="75.6" fill="none" stroke="#636363" stroke-linecap="round" stroke-linejoin="round" stroke-width="2"/><line x1="202.28" y1="64.56" x2="196.6" y2="66.04" fill="none" stroke="#636363" stroke-linecap="round" stroke-linejoin="round" stroke-width="2"/><line x1="200.18" y1="56.11" x2="194.28" y2="57.65" fill="none" stroke="#636363" stroke-linecap="round" stroke-linejoin="round" stroke-width="2"/><line x1="238.55" y1="97.72" x2="238.2" y2="104.43" fill="none" stroke="#636363" stroke-linecap="round" stroke-linejoin="round" stroke-width="2"/><line x1="230.04" y1="95.03" x2="228.86" y2="102.01" fill="none" stroke="#636363" stroke-linecap="round" stroke-linejoin="round" stroke-width="2"/><line x1="222.93" y1="91.2" x2="220.43" y2="97.72" fill="none" stroke="#636363" stroke-linecap="round" stroke-linejoin="round" stroke-width="2"/><line x1="216.24" y1="86.17" x2="212.37" y2="91.87" fill="none" stroke="#636363" stroke-linecap="round" stroke-linejoin="round" stroke-width="2"/><line x1="210.67" y1="79.86" x2="205.44" y2="83.83" fill="none" stroke="#636363" stroke-linecap="round" stroke-linejoin="round" stroke-width="2"/><line x1="206.45" y1="72.72" x2="200.41" y2="75.34" fill="none" stroke="#636363" stroke-linecap="round" stroke-linejoin="round" stroke-width="2"/><path d="M204.73,50.86s4.93,41.83,44.6,40,41.6-41.27,41.6-41.27" fill="none" stroke="#262521" stroke-linecap="round" stroke-linejoin="round" stroke-width="4"/></svg>