<svg xmlns="http://www.w3.org/2000/svg" width="500" height="550" viewBox="0 0 500 550"><title>s06e13-01</title><path d="M199.74 55.82s69.23 24 97.74-2.18c0 0 .84 51.38-41 54.84s-56.74-52.66-56.74-52.66z" fill="#fff"/><path d="M284.66 53.19c-18.12 10.43-41.21 7.31-61.25 4.88C216 56.81 209.25 54 204 48.4l-.42.07s3.55 36.22 43.55 34.4 44.51-34.4 44.51-34.4a36 36 0 0 1-6.98 4.72z" fill="#fff" stroke="#262521" stroke-linecap="round" stroke-linejoin="round" stroke-width="3.07"/><path d="M291.48 48.63c29.12 10.49 61 14.41 87.44 31.58 15.94 14.59 21.63 38 30.45 57.21 27.81 67.48 58 137.39 51.05 212.08-1.19 18.65-.23 37.45-3.28 55.95-.49 4.66-5.21 7.1-5.56 11.78-1.22 5.28-2.08 10.65-2.91 16-.4 2.6-.41 2.83-3.08 2.33-12.48-2.66-25.26-5.49-37.8-1.58-8.34-.15-8.13-15.56-11.44-21.4-6.28-7.37-3.61-9-5.33-17.64-.9-9.7-4.68-20.27.79-29.26 2-3.53 1.86-7.05.51-10.66-4.9-11.28-7.4-23.41-10.45-35.29-1.07-4.3-1.31-8.49 1.61-12.34 1.51-7.23-10.43-8.68-10.93-15.93l-.41.08q-.27 61.74-.62 123.47c-.81 9-2.68 16.41-3.55 25.44-1 10.07 1.34 17.05-1.5 25.63-.59 1.77-2 1.67-3.35 1.44-44.59-7.74-101.66-5.72-146.65-2.92-24.6.57-58.62-1.68-83 2.09-5.23.59-5.68.27-6.62-4.83-1.35-11.26 1.94-18.53.53-29.31-6.15-46.82-1.39-94.37-3.6-141.53-1.42 2.83-2.94 5.6-4.29 8.46-2.37 10.67-17.5 9.3-11.81 16.18 11.11 7.95 6.41 21.38 5.15 32.56-.25 3.15-1.35 6.27-.37 9.58.51 8.44-3.19 16.94-4.38 25.31-1.5 8-2.61 15.83-1.54 23.93a5.1 5.1 0 0 1-1.13 3.3c-5.71 6.28-7.75 14-9.19 22.06-.57 3.18-.61 3-3.74 2-12.38-3.52-26.09-4.38-38.6-1.18-1.39.34-2.11 0-2.41-1.47-2-7.76-2.18-16.67-8.49-22.43a6.62 6.62 0 0 1-1.33-3.22A144.46 144.46 0 0 1 39 372.86c-1.91-63 2.6-126.93 26.19-186 13.61-35.43 24.56-73.32 48.07-103.67 27.32-18.2 60-23.76 90.46-34.78 0 0 4.7 48.42 44.37 46.6s43.39-46.38 43.39-46.38z" fill="#262521" stroke="#262521" stroke-linecap="round" stroke-linejoin="round" stroke-width="3"/><path d="M51.32 409.51S80 400 96.47 412M402.18 412s25.94-8.31 43.55 0M133.45 438.85s155.28-12.31 227.71 2.37M194.62 56.1c2.77 14.3 15 50.28 52.49 50.23 39.57 0 51.53-38 53.68-50.23" fill="none" stroke="#636363" stroke-linecap="round" stroke-linejoin="round"/><path d="M289.67 253.11s2.87 10 2.87 13.54 5.73 7.71 8.3 7.51 3.59-5 4.36-11.17 9.67-13.42 19.94-15.26 23.82 1 25 6.86.68 8.93-10.28 11.47c-8.1 1.87-26.87 22.62-26.87 22.62s-1.29 20.75-4.74 25.1-15.71 14-19.17 17-12.75 15-24.7 19.27-27.47.4-31.82-4.15-2.87-10.77-5.14-13.83-22.82 1.48-33.4-1.78-9.19-5.83-9.28-10.28.09-16.4-2.08-26.48-1.58-34-2.07-35.37-2.38-6.13-1.49-8.2c0 0-13.24-12-18.38-23.81s-12.35-29.84-13.53-39.43-1.58-16.89 6.32-17.09 15.12 10.77 17.79 28.16c0 0 10.37 17.19 14.13 21.14s5.83 13.74 8.89 13.54-4.15-25.47-7.41-37.47-9.68-39.62-9.68-47.23 4.44-12.84 12.74-12.65 10.08 9 10 19.57 10.28 40.31 14.53 47.43 7.8 15.71 11.16 15.51 3.76-11.27 3.36-25.39 4.45-23.13 5.34-40.52 3.65-22.31 12.35-22.33c8.13 0 13.54 2.37 12.25 23.91s-4.84 61.86-4.05 66 4.05 6.82 9.19 4.15 17.19-33 19.86-44 3.07-30.39 13.24-34c11.82-4.18 15.61 5.43 14 18.67s-4.45 19.47-5.34 24.31-4.24 13.34-8.3 23.42-5.53 18.67-5.13 24.3-.69 14.29-2.76 16.96z" fill="#b7a7a2"/><path d="M246.45 204c-4.8 7.23-1.44 16.45 8.36 14.47-1.22-10.15 6.35-60.68 3.36-80.81-3.56 3.27-9.14 3.58-12.62 7-5.12 5.18 2.33 9.1-2.38 26.65 1.28 16.12 18.34 9.48 3.28 32.69zM236 237.78c-3.22.74-4.33 4.58-7.45 5.52.39 4.61-14.08-1-16.52-1.93-3-1.63-13.54-2.68-10.23 3.17 2.73 3.29 6 9.4-.06 11.11 12.76 2 28.16-1 36.21-11.9 1.2-2.05 1.94-6.88-1.95-5.97z" fill="#aa958f"/><path d="M182.12 275.94c3.48 6.3 7.62 9.42 15 9.46 2.86.57 5.94 2.47 5.29 5.87-2.46 7.81-13.16 4.59-18.62 9 .33 2.72.55 5.43.68 8 7.09 1.28 12.83-4.63 19.84-4.24 11.71 2 .6 14-3.33 18.59 4.84 1 9.71-1.78 14.6-1.24 2.93.61 6.22 2.86 8.76.09 4-4.36 2.73-11 4.5-16.24 1.48-5.17 6-9.55 5.74-15.2-3.9 3-10.45 5.82-13-.26-3.42-5.3-16-7-13-15.1 5.17-5.57 14.65-2.56 21.14-6.28 8.69-5.27 16.82-11.32 26.93-14 11.16-4.75 22.48-9.31 34.55-4.59a44.71 44.71 0 0 0 1.3-13.55c-.89-6.14 2.93-20.07 7.2-29.47-25.41 9.37-8.24 21.12-19.35 29.09-5.05 2.63-7.25 1-10.52 6.81-7.15 5.71-17.39 5.75-25.49 9.89-6.28 2.46-11.45 6.93-17.65 9.53-7.83 3.4-17.89.83-24.39 7.16-3.79 11.58-12.69 3.23-21.23 4v1.46c.35.34.71.77 1.05 1.22zM306.77 295.9a1.27 1.27 0 0 1-.64-.17c-9.81 1.86-8.74-4.33-15.2-5.19-5.14 3.41-10.73 2-16.44 2.76-4.92 1.4-7.67 6.46-12.75 7.54-5.29.37-9.69 2.38-12.34 7.18-1.52 2.58-4.25 3.28-7 3.88-3.39 1.22-4.89 4.62-6.65 7.5-2.65 4.28-6.2 8-8.95 12.2 3.34 2.92 1 9.51 5.72 14.29 21.37 14.7 43 1 56.52-15.12 13-11.73 22.41-13.45 23.27-34.87z" fill="#aa958f"/><path d="M272.82 274c-5.29-1-10.67-4.49-15.72-.89-1.75.95-4.45 2.69-4.08 5 2.35-.05 4.7-1.87 6.82-2.88 6.32-4.16 12.74 2.18 19.24 1.16l.17-.06a21.35 21.35 0 0 0-6.43-2.33z" fill="#aa958f"/><path d="M225.7 217.63c-3.44.28-6.94-8.37-11.22-15.5S199.85 165.27 200 154.7c.05-4.79-.3-9.21-1.45-12.64-3.47-1.06-7.08 1-10.35 1.94a14.66 14.66 0 0 0-6.77 2.76 83.24 83.24 0 0 0-1.89 16.66c3.88 20 10.12 39.88 14.53 59.45 2.86 2.28 6.3 1.57 9.48.5 14.83-1.91 19.47 6.47 24.65 18.18 3.54 3.32 11.37 3.26 13.68-1.49 2.4-10.62-8.51-17.6-16.18-22.43z" fill="#7a6f6d"/><path d="M207.51 274.26c1.5-2.54 5.32-4 5.74-7.05-.36-3-5.93-2.33-7.9-2.32-2.76.33-12.29-1.05-9.72-5.13 11.75-3.08 24.6-4.53 35.5-10.14-4.19 1.94-8.95.15-13.39.77-7.84.28-16.36 4.9-24 1.42-5.83-3.75 2.47-12.95-1-20.05-.09-.09-.19-.21-.28-.32a1 1 0 0 1-.24.1 2.45 2.45 0 0 1-2.27-.88c-1.6-1.55-2.36-3.85-3.35-5.8-1.34-2.66-2.64-5.3-3.84-8-.83-1.9-2-3.64-3-5.45-4.13-6.21-8.59-13.6-8.59-13.6-1.31-8.49-3.69-15.45-6.71-20.32-6.86.41-13.7 3.74-17.34 9.71 2.4 17.53 18.91 54.49 31.85 62.78-.89 2.07 1 6.82 1.49 8.2.21.61.22 5.6.35 11.86 9.07 3.56 3.38 13.42 17.86 14.75 6.29.92 7.42 11.71 14.73 7.88-.06.05.21-.22.19-.18.41-6.39-11.34-11.49-6.08-18.23zM193 289c-2.55.15-4.93 1.64-7.56 1.48-1.14 0-2.73-.67-3.21.73a110.37 110.37 0 0 1 2.23 17.59 23.35 23.35 0 0 0 7.17-12.41c-1.87.17-6 5-6.44 1 .57-4.39 6.81-4.57 7.81-8.39z" fill="#7a6f6d"/><path d="M257.23 134.9c-8.22 7.32-19.14-1.13-17.59 10.86-.65 3.75-6.22 11.1 1.73 8.92 4.1.64 8.38.44 12.4 1.28a2.43 2.43 0 0 1 .58 4.14c-3.14 3-8.63 0-11.44 3.4-2.21 5.52-8.9 14.89-5.52 20.5 1.73 1.7 4.54 2.13 6.7 3.07a14 14 0 0 1 7.73 13c.08 4.88-9.64 9.48-7.2 13.35 3.12 1.56 7.11 1.08 10.16 2.93-1.04-14.76 7.74-61.95 2.45-81.45zM280.37 196.42c5.72-2.52 13.88-.95 14 6.53 0 7.14-7.35 12.14-7.26 19.29.4 3.89 5.36 7.74 2.19 11.68-3.83 2.39-5.34 4.5-5.73 9.13-.38 2-1.89 3.69-2.16 5.73 3.74 4.91 6.82 10.72 10.92 15.51-.68-4.38-2.63-11.18-2.63-11.18 2.07-2.67 3.16-11.26 2.77-16.9s1.08-14.22 5.13-24.3c6-15.67 19.05-48.38 11.65-63.6-26.54 10-9.82 33.73-27.76 39.37-1 2.89-2.16 6.09-3.43 9.36.77-.19 1.55-.42 2.31-.62z" fill="#847977"/><path d="M229 266.91a22.25 22.25 0 0 0-3.34 3.94c5.27-3.28 11.44-5.15 16-9.35-4.74.16-8.66 3.14-12.66 5.41zM350.14 254.59a4.83 4.83 0 0 0-.32-1c-8.07 14.49-27.52-3.29-36.59 12.86-6.81 7.24-4.84 12.45-4.82 21-.9 5-6.71 11.92-11.74 7.12-1.12-.87-1.95-2.48-3.41-2.76-1.05.05-1 2-1.1 2.76-.38 10.52-9.49 9.56-12.48.69-.43 9.66 2.7 18.17-10.47 19.12-6.6 4.18-8.42 1.2-15.39 3.31-5.71 1.43-11.25-9.1-15.61-1.75-1.25 2.57-7.12 12.54-10 7.57-.62-7.44.45-14.62 2.1-21.83-7 5-7.75 16.88-17.32 19.05-3 .5-6.17-.31-9 1.1a1.28 1.28 0 0 1-1.54-2c4.48-4.15 8.36-8.93 7.82-15.46-6.25 8.16-17.49 6-25.59 10.86v3.08c2.3-1 14.12-6.54 14.76-3.15-.34 6.35-5.88 9.93-10.77 13 9.51 6.44 35.63.54 38.72 3.83 2.27 3.06.79 9.29 5.14 13.83 21.33 14.7 43 1 56.52-15.12 10.69-8.54 17.23-12 20.42-17.86 2.84-5.21 2.86-12.49 3.49-24.23 0 0 18.77-20.75 26.87-22.62 10.99-2.47 11.5-5.57 10.31-11.4z" fill="#7a6f6d"/><path d="M283.73 289a37.87 37.87 0 0 1 5.37 2c5.56.69-4.56-5.7-6.25-3.54-.39.42.15 1.37.88 1.54z" fill="#7a6f6d"/></svg>