<svg xmlns="http://www.w3.org/2000/svg" width="500" height="550" viewBox="0 0 500 550"><title>s06e01-01</title><polyline points="285.13 46.62 346.69 74.72 250 182.78 150.38 69.5 208.47 46.62" fill="#fff" stroke="#262521" stroke-linecap="round" stroke-linejoin="round" stroke-width="3"/><path d="M215.51,30.26S231.37,52.83,246,64L214.53,85.35s-12.33-34.14-8.44-41.68A66.91,66.91,0,0,1,215.51,30.26Z" fill="#fff" stroke="#262521" stroke-linecap="round" stroke-linejoin="round" stroke-width="3"/><path d="M277.85,30.26S262,52.83,247.4,64l31.42,21.33s13.93-33,10-40.57S277.85,30.26,277.85,30.26Z" fill="#fff" stroke="#262521" stroke-linecap="round" stroke-linejoin="round" stroke-width="3"/><path d="M215.51,30.26s22.93-8.25,62.34,0" fill="#fff" stroke="#262521" stroke-linecap="round" stroke-linejoin="round" stroke-width="3"/><path d="M133.56,444.84l-.94,45.48s5.09-19.77,7.63-20.13c1.27-.18,1.63,26.16,3.14,26,.66-.09,3.76,2,4.36-.65,1-4.55,3.26-22.87,4.63-23,2.47-.31,4,19.94,6.93,19.6,4.89-.55,12.26-6.81,18.51-7.42,31.16-3,90.14,6.09,127.3,1s55.32,5.91,55.32,5.91l.37-54.25Z" fill="#fff" stroke="#262521" stroke-linecap="round" stroke-linejoin="round" stroke-width="3"/><path d="M372.14,288.75q-.27,61.74-.62,123.46c-.81,9-2.68,16.41-3.55,25.45-1,10.07,1.34,17-1.5,25.63-.59,1.77-2,1.67-3.35,1.43a28.5,28.5,0,0,1-6.45-2.26c-1.22-.55-4.45,1.85-5.82,1.18-2.55-1.22-3.43-5.6-6.44-6.91s-8.37,1.94-11.81.93c-4.89-1.46-8.08-6.94-13.63-6.82-2.58.05-7.62,1.7-10.24,2-4.4.43-5.07,2.6-9.45,3.42s-12.76.33-17.12,1.36-6.29-1.07-10.21-.12c-1.86.45-6.18,6.66-8,6.61-7.37-.21-14.12.76-19.23.39-2.39-.17-7.75,1-9.69.4-3.91-1.22-3.92-4.59-7.5-5.34s-8.4.8-11.52,0c-4.07-1.09-7.82-2.2-11.57-3.16-3.49-.9-6.51,1.17-10.23.66-4.44-.61-9.67-3.69-15.21-3.34-.94,0-3.77-2.5-7.38-1.55-1.92.5-3.83,4.23-6.3,4.87-3,.79-6.41,1.66-10,2.53-2.55.62-4.11,3.57-6.85,4.16-2,.44-5.2-1.48-7.29-1.08-2.53.49-5.09.94-7.65,1.33-5.23.6-5.68.28-6.62-4.82-1.35-11.26,1.94-18.53.53-29.31-6.15-46.82-1.39-94.38-3.6-141.53-1.42,2.82-2.94,5.6-4.29,8.46-2.37,10.67-17.5,9.3-11.81,16.18,11.11,7.95,6.41,21.38,5.15,32.56-.25,3.15-1.35,6.27-.37,9.58.51,8.43-3.19,16.94-4.38,25.31-1.5,8-2.61,15.83-1.54,23.93a5.1,5.1,0,0,1-1.13,3.3c-5.71,6.27-7.75,14-9.19,22.06-.57,3.17-.61,3-3.74,2.05-1.33-.38-6.23.91-7.34.7-2.23-.42-4.5-3.2-6.76-3.44-3.81-.4-4.73-1.85-8.54-1.68-2.08.1-6.77,4.36-8.82,4.64-2.31.32-4.9-2-7.14-1.4-1.39.34-2.11,0-2.41-1.47-2-7.76-2.18-16.67-8.49-22.43a6.66,6.66,0,0,1-1.33-3.22A144.54,144.54,0,0,1,39,370.05c-1.91-63,2.6-126.93,26.19-186,13.61-35.43,24.56-73.32,48.07-103.67,27.32-18.2,60-23.76,90.46-34.78.8-.26,13.28,30.47,43,30.47s41.13-31.78,44.8-30.25c29.12,10.5,61,14.41,87.44,31.59,15.94,14.59,21.63,38,30.45,57.2,27.81,67.49,58,137.4,51.05,212.08-1.19,18.66-.23,37.45-3.28,56-.49,4.66-5.21,7.09-5.56,11.78-1.22,5.28-2.08,10.65-2.91,16-.4,2.6-.41,2.82-3.08,2.32-2.12-.45-4,1.59-5.91.88-1.11-.42-2.22-3.56-3.31-4a30.73,30.73,0,0,0-9.28-2.36c-1.86-.13-5.56,1.93-7.42,2-2,.06-3,2.49-5,2.8s-5-1.5-6.92-.9c-8.34-.14-8.13-15.55-11.44-21.4-6.28-7.37-3.61-9-5.33-17.63-.9-9.7-4.68-20.27.79-29.27,2-3.53,1.86-7,.51-10.65-4.9-11.29-7.4-23.42-10.45-35.3-1.07-4.3-1.31-8.49,1.61-12.33,1.51-7.24-10.43-8.68-10.93-15.93Z" fill="#262521" stroke="#262521" stroke-linecap="round" stroke-linejoin="round" stroke-width="3"/><g opacity="0.5"><line x1="73.89" y1="403.5" x2="73.89" y2="423.97" fill="none" stroke="#636363" stroke-linecap="round" stroke-linejoin="round" stroke-width="2"/><line x1="64.24" y1="403.52" x2="65.23" y2="423.95" fill="none" stroke="#636363" stroke-linecap="round" stroke-linejoin="round" stroke-width="2"/><line x1="84.38" y1="403.53" x2="82.9" y2="423.94" fill="none" stroke="#636363" stroke-linecap="round" stroke-linejoin="round" stroke-width="2"/><line x1="94.49" y1="405.69" x2="90.35" y2="425.73" fill="none" stroke="#636363" stroke-linecap="round" stroke-linejoin="round" stroke-width="2"/><line x1="55.35" y1="404.9" x2="57.39" y2="425.26" fill="none" stroke="#636363" stroke-linecap="round" stroke-linejoin="round" stroke-width="2"/></g><g opacity="0.5"><line x1="424.82" y1="402.38" x2="424.82" y2="422.84" fill="none" stroke="#636363" stroke-linecap="round" stroke-linejoin="round" stroke-width="2"/><line x1="414.71" y1="402.43" x2="416.61" y2="422.8" fill="none" stroke="#636363" stroke-linecap="round" stroke-linejoin="round" stroke-width="2"/><line x1="435.3" y1="402.41" x2="433.82" y2="422.82" fill="none" stroke="#636363" stroke-linecap="round" stroke-linejoin="round" stroke-width="2"/><line x1="445.41" y1="404.57" x2="441.27" y2="424.61" fill="none" stroke="#636363" stroke-linecap="round" stroke-linejoin="round" stroke-width="2"/><line x1="404.88" y1="403.91" x2="408.7" y2="424.01" fill="none" stroke="#636363" stroke-linecap="round" stroke-linejoin="round" stroke-width="2"/></g><g opacity="0.5"><line x1="247.31" y1="435.04" x2="247.31" y2="461.77" fill="none" stroke="#636363" stroke-linecap="round" stroke-linejoin="round" stroke-width="2"/><line x1="258.37" y1="435.04" x2="258.37" y2="461.25" fill="none" stroke="#636363" stroke-linecap="round" stroke-linejoin="round" stroke-width="2"/><line x1="269.43" y1="435.04" x2="269.43" y2="453.88" fill="none" stroke="#636363" stroke-linecap="round" stroke-linejoin="round" stroke-width="2"/><line x1="280.49" y1="435.04" x2="280.49" y2="453.22" fill="none" stroke="#636363" stroke-linecap="round" stroke-linejoin="round" stroke-width="2"/><line x1="291.56" y1="434.54" x2="291.56" y2="452.43" fill="none" stroke="#636363" stroke-linecap="round" stroke-linejoin="round" stroke-width="2"/><line x1="302.62" y1="434.54" x2="302.62" y2="452.04" fill="none" stroke="#636363" stroke-linecap="round" stroke-linejoin="round" stroke-width="2"/><line x1="314.17" y1="434.54" x2="314.17" y2="449.41" fill="none" stroke="#636363" stroke-linecap="round" stroke-linejoin="round" stroke-width="2"/><line x1="324.74" y1="435.04" x2="324.74" y2="449.41" fill="none" stroke="#636363" stroke-linecap="round" stroke-linejoin="round" stroke-width="2"/><line x1="170.87" y1="435.04" x2="170.87" y2="447.28" fill="none" stroke="#636363" stroke-linecap="round" stroke-linejoin="round" stroke-width="2"/><line x1="192" y1="435.04" x2="192" y2="452.57" fill="none" stroke="#636363" stroke-linecap="round" stroke-linejoin="round" stroke-width="2"/><line x1="181.16" y1="435.04" x2="181.16" y2="449.67" fill="none" stroke="#636363" stroke-linecap="round" stroke-linejoin="round" stroke-width="2"/><line x1="203.06" y1="436.04" x2="203.06" y2="453.88" fill="none" stroke="#636363" stroke-linecap="round" stroke-linejoin="round" stroke-width="2"/><line x1="136.11" y1="437.05" x2="137.26" y2="457.48" fill="none" stroke="#636363" stroke-linecap="round" stroke-linejoin="round" stroke-width="2"/><line x1="147.05" y1="435.56" x2="148.44" y2="457.48" fill="none" stroke="#636363" stroke-linecap="round" stroke-linejoin="round" stroke-width="2"/><line x1="159.31" y1="435.04" x2="159.31" y2="455.5" fill="none" stroke="#636363" stroke-linecap="round" stroke-linejoin="round" stroke-width="2"/><line x1="214.12" y1="436.04" x2="214.12" y2="456.5" fill="none" stroke="#636363" stroke-linecap="round" stroke-linejoin="round" stroke-width="2"/><line x1="225.18" y1="436.04" x2="225.18" y2="456.5" fill="none" stroke="#636363" stroke-linecap="round" stroke-linejoin="round" stroke-width="2"/><line x1="236.24" y1="435.04" x2="236.24" y2="461.77" fill="none" stroke="#636363" stroke-linecap="round" stroke-linejoin="round" stroke-width="2"/><line x1="336.17" y1="436.05" x2="335.44" y2="454.42" fill="none" stroke="#636363" stroke-linecap="round" stroke-linejoin="round" stroke-width="2"/><line x1="347.48" y1="437.06" x2="346.25" y2="454.42" fill="none" stroke="#636363" stroke-linecap="round" stroke-linejoin="round" stroke-width="2"/><line x1="358.34" y1="438.05" x2="357.52" y2="458.49" fill="none" stroke="#636363" stroke-linecap="round" stroke-linejoin="round" stroke-width="2"/></g><g opacity="0.5"><line x1="292.98" y1="50.26" x2="300.29" y2="52.81" fill="none" stroke="#636363" stroke-linecap="round" stroke-linejoin="round" stroke-width="2"/><line x1="246.67" y1="82.74" x2="246.67" y2="91.07" fill="none" stroke="#636363" stroke-linecap="round" stroke-linejoin="round" stroke-width="2"/><line x1="255.79" y1="82" x2="256.47" y2="89.97" fill="none" stroke="#636363" stroke-linecap="round" stroke-linejoin="round" stroke-width="2"/><line x1="263.73" y1="79.31" x2="265.74" y2="87.55" fill="none" stroke="#636363" stroke-linecap="round" stroke-linejoin="round" stroke-width="2"/><line x1="270.96" y1="75.91" x2="274.37" y2="83.22" fill="none" stroke="#636363" stroke-linecap="round" stroke-linejoin="round" stroke-width="2"/><line x1="277.44" y1="71.13" x2="282.42" y2="77.18" fill="none" stroke="#636363" stroke-linecap="round" stroke-linejoin="round" stroke-width="2"/><line x1="283.78" y1="64.65" x2="290.14" y2="69.05" fill="none" stroke="#636363" stroke-linecap="round" stroke-linejoin="round" stroke-width="2"/><line x1="288.39" y1="57" x2="296.2" y2="60.4" fill="none" stroke="#636363" stroke-linecap="round" stroke-linejoin="round" stroke-width="2"/><line x1="200.67" y1="50.28" x2="193.41" y2="52.69" fill="none" stroke="#636363" stroke-linecap="round" stroke-linejoin="round" stroke-width="2"/><line x1="238.12" y1="82" x2="237.12" y2="89.97" fill="none" stroke="#636363" stroke-linecap="round" stroke-linejoin="round" stroke-width="2"/><line x1="229.51" y1="79.84" x2="227.61" y2="87.55" fill="none" stroke="#636363" stroke-linecap="round" stroke-linejoin="round" stroke-width="2"/><line x1="222.61" y1="75.91" x2="219.08" y2="83.18" fill="none" stroke="#636363" stroke-linecap="round" stroke-linejoin="round" stroke-width="2"/><line x1="215.81" y1="71.13" x2="210.84" y2="76.88" fill="none" stroke="#636363" stroke-linecap="round" stroke-linejoin="round" stroke-width="2"/><line x1="209.86" y1="65.18" x2="203.6" y2="69.13" fill="none" stroke="#636363" stroke-linecap="round" stroke-linejoin="round" stroke-width="2"/><line x1="204.95" y1="57" x2="197.44" y2="60.27" fill="none" stroke="#636363" stroke-linecap="round" stroke-linejoin="round" stroke-width="2"/></g><path d="M299.49,77.47l-24.87,17S291.84,91.77,299.49,77.47Z" fill="#d2d2d2"/><path d="M191.68,60.4s6.37,12.16,10.85,15.51C202.53,75.91,192.62,71.61,191.68,60.4Z" fill="#d2d2d2"/><path d="M355.92,69.16S345.26,67.65,343,75.61C343,75.61,351.63,69,355.92,69.16Z" fill="#d2d2d2"/><path d="M162.1,126.7l-4.73,4.45,3.48,1.12S159.88,131.85,162.1,126.7Z" fill="#d2d2d2"/><path d="M155.42,133s-2.78,3.35-2.78,5.43,7.1-2.71,7.1-2.71S156.12,134.5,155.42,133Z" fill="#d2d2d2"/><path d="M163.36,139.65s-10.72,3.2-10.72,7.65S155.7,144.38,163.36,139.65Z" fill="#d2d2d2"/><path d="M163.36,143s-7.94,6.12-7.17,8.21S163.36,143,163.36,143Z" fill="#d2d2d2"/><path d="M167.12,144.16s-9.12,6.26-8.36,10.24Z" fill="#d2d2d2"/><path d="M171,146.19c-3.89,1.81-9.74,8.07-9.6,9.05s7.93-2.23,10.44-2.23S174.91,144.38,171,146.19Z" fill="#d2d2d2"/><path d="M173.83,155.42s-6.85,2.05-9.36,1.77S171.36,160.76,173.83,155.42Z" fill="#d2d2d2"/><path d="M102.93,283s5.3,2.49,6.17,4.77S111.48,284.94,102.93,283Z" fill="#d2d2d2"/><path d="M100.65,284.72s4.7,5.53,5.71,5.09S104.23,284.83,100.65,284.72Z" fill="#d2d2d2"/><path d="M95.78,286.24s5.57,6.39,7.82,6.5S99.68,285.92,95.78,286.24Z" fill="#d2d2d2"/><path d="M92,288.33c-3.28,0,7.25,6.9,8.66,6.9S94.37,288.36,92,288.33Z" fill="#d2d2d2"/><path d="M97.73,297s-6-6.6-9.42-5.74-.85,4,2,4S98,300.23,97.73,297Z" fill="#d2d2d2"/><path d="M97.74,301.18s-8.67-.21-9.76-.75S92.44,304.87,97.74,301.18Z" fill="#d2d2d2"/><path d="M46.72,361.25s-4,1.39-4.65,2.67S40.27,362.34,46.72,361.25Z" fill="#d2d2d2"/><path d="M48.44,362.22s-3.54,3.09-4.31,2.85S45.74,362.28,48.44,362.22Z" fill="#d2d2d2"/><path d="M52.12,363.07s-4.21,3.58-5.91,3.64S49.17,362.89,52.12,363.07Z" fill="#d2d2d2"/><path d="M258.25,392l4.94,3.82s-3.33,1.36-5.55,0S258.25,392,258.25,392Z" fill="#d2d2d2"/><path d="M261.21,390.18s4.94,2.71,5.07,4.07S261.71,393.76,261.21,390.18Z" fill="#d2d2d2"/><path d="M264.42,389.07l5.31,4.08S267.63,388,264.42,389.07Z" fill="#d2d2d2"/><path d="M267.08,387.72s3.38.88,3.8,2.9C270.88,390.62,272.23,386.56,267.08,387.72Z" fill="#d2d2d2"/><path d="M139,405.72a23.88,23.88,0,0,0-.21,4.36C139,411.55,132.08,407.24,139,405.72Z" fill="#d2d2d2"/><path d="M140.83,406.25s-.19,4.52.58,4.77a78.17,78.17,0,0,0,10.21.67c.88-.18,1.3-1.67,0-3.26C149.55,407.3,144.43,406.33,140.83,406.25Z" fill="#d2d2d2"/><path d="M153.38,408.57s1.41,3.1.45,3.68S161.36,411,153.38,408.57Z" fill="#d2d2d2"/><path d="M353.54,268.29s4.17,9,4.17,10.36S358.75,268.36,353.54,268.29Z" fill="#d2d2d2"/><path d="M353.54,274.66l-9.73,13.41S355.44,280.92,353.54,274.66Z" fill="#d2d2d2"/><path d="M447.44,355.87s9.88,3.41,8.92,4.57S447.44,355.87,447.44,355.87Z" fill="#d2d2d2"/><path d="M442.76,356.53s11.35,3.47,10.4,5.69Z" fill="#d2d2d2"/><path d="M437.91,357.65c4.85,1,12.13,4.49,12,5s-9.88-1.24-13-1.24S433.06,356.65,437.91,357.65Z" fill="#d2d2d2"/><path d="M434.4,362.78s8.53,1.14,11.65,1S437.47,365.75,434.4,362.78Z" fill="#d2d2d2"/></svg>