<svg xmlns="http://www.w3.org/2000/svg" width="500" height="550" viewBox="0 0 500 550"><path d="M372.19 291.55q-.27 61.74-.62 123.47c-.81 9-2.68 16.4-3.55 25.44-1 10.07 1.34 17-1.5 25.63-.58 1.77-2 1.67-3.35 1.44-44.58-7.74-101.65-5.72-146.65-2.93-24.59.58-58.62-1.67-83 2.09-5.22.6-5.68.28-6.62-4.82-1.34-11.26 1.94-18.53.53-29.31-6.15-46.82-1.39-94.38-3.6-141.53-1.41 2.82-2.94 5.6-4.29 8.46-2.36 10.67-17.5 9.3-11.81 16.18 11.12 7.95 6.41 21.38 5.15 32.56-.24 3.15-1.34 6.27-.37 9.58.51 8.43-3.19 16.94-4.38 25.31-1.5 8-2.61 15.83-1.53 23.93a5.17 5.17 0 01-1.14 3.3c-5.71 6.28-7.74 14-9.19 22.06-.57 3.18-.61 3-3.73 2-12.38-3.52-26.1-4.38-38.61-1.18-1.39.34-2.1 0-2.41-1.47-2-7.76-2.17-16.67-8.49-22.43a6.66 6.66 0 01-1.33-3.22 145 145 0 01-2.7-33.25c-1.91-63 2.61-126.93 26.2-186 13.6-35.43 24.56-73.32 48.06-103.67 27.32-18.2 60-23.76 90.46-34.78a3.16 3.16 0 012.72.43c5 5.55 11.46 8.41 18.56 9.67 19.19 2.43 41.29 5.55 58.65-4.88 2.86-1.27 4.2-6.53 7.88-5 29.12 10.49 61 14.4 87.43 31.58 15.94 14.59 21.63 38 30.45 57.21 27.82 67.48 58 137.39 51.06 212.07-1.2 18.66-.24 37.46-3.29 56-.48 4.66-5.2 7.09-5.56 11.78-1.21 5.28-2.07 10.65-2.9 16-.41 2.6-.42 2.83-3.09 2.33-12.48-2.66-25.25-5.49-37.8-1.58-8.33-.15-8.13-15.56-11.44-21.41-6.28-7.36-3.61-9-5.33-17.63-.9-9.7-4.68-20.27.79-29.26 2-3.53 1.87-7.05.51-10.66-4.9-11.29-7.4-23.42-10.45-35.29-1.06-4.31-1.31-8.5 1.61-12.34 1.49-7.15-10.43-8.7-10.93-15.93z" fill="#262521" stroke="#262521" stroke-linecap="round" stroke-linejoin="round" stroke-width="3"/><path d="M372.19 291.55q-.27 61.74-.62 123.47c-.46 5.15-2.27 16.36-3.05 21.1-.57 3.5-88.13-3.76-133.13-1-24.59.58-106.52 8.19-107.93-2.59-6.15-46.82-1.39-94.38-3.6-141.53-.5 1-1.16-24.2-2.81-56.62 3.06-20.34.15-62.49.15-62.49s10.38-64.56-3.61-82.24C128 79.51 196.68 59.5 196.68 59.5s10 44.22 51.92 44.22 51.5-45.56 51.5-45.56S379 80.21 379.74 89c-13.35 26.76-8.21 77-8.21 77 4.24 28.57 1.36 129.68 1.07 125.49z" fill="#3a3934" stroke="#262521" stroke-linecap="round" stroke-linejoin="round" stroke-width="3"/><path d="M204.7 51.38c.8-.26 4.44 39.77 42.44 41.81s45.37-41.58 45.37-41.58" fill="none" stroke="#636363" stroke-linecap="round" stroke-linejoin="round"/><path d="M121.2 171.92s3 37.54.91 53.17.11 29.69.11 32.87 1.89 33.04 1.89 33.04m247.42-125s5.9 70 .11 98l1 27.47" fill="none" stroke="#262521" stroke-linecap="round" stroke-linejoin="round" stroke-width="3"/><path d="M51.43 409.51S80.08 400 96.58 412m305.71 0s25.94-8.31 43.55 0" fill="none" stroke="#636363" stroke-linecap="round" stroke-linejoin="round"/><path d="M164.23 84.9a1.5 1.5 0 000-3 1.5 1.5 0 000 3zm16.99-13.62a1.5 1.5 0 000-3 1.5 1.5 0 000 3zm10.31 3.78a1.5 1.5 0 000-3 1.5 1.5 0 000 3zm-48.79 27.15a1.5 1.5 0 000-3 1.5 1.5 0 000 3zm12.37 7.21a1.5 1.5 0 000-3 1.5 1.5 0 000 3zm-13.75 20.96a1.5 1.5 0 000-3 1.5 1.5 0 000 3zM335.5 81.59a1.5 1.5 0 000-3 1.5 1.5 0 000 3zm15.8 3.78a1.5 1.5 0 000-3 1.5 1.5 0 000 3zm-.69 27.14a1.5 1.5 0 000-3 1.5 1.5 0 000 3zm23.71-19.24a1.5 1.5 0 000-3 1.5 1.5 0 000 3zm-59.78-27.14a1.5 1.5 0 000-3 1.5 1.5 0 000 3zm5.84 35.39a1.5 1.5 0 000-3 1.5 1.5 0 000 3zM306 132.79a1.5 1.5 0 000-3 1.5 1.5 0 000 3zm41.18 34.7a1.5 1.5 0 000-3 1.5 1.5 0 000 3zM146.89 351.17a1.5 1.5 0 000-3 1.5 1.5 0 000 3zm18.58 5.91a1.5 1.5 0 000-3 1.5 1.5 0 000 3zM157 388.34a1.5 1.5 0 000-3 1.5 1.5 0 000 3zm31.28-9.29a1.5 1.5 0 000-3 1.5 1.5 0 000 3zm2.53 47.3a1.5 1.5 0 000-3 1.5 1.5 0 000 3zm26.19-4.23a1.5 1.5 0 000-3 1.5 1.5 0 000 3zm-38-16.04a1.5 1.5 0 000-3 1.5 1.5 0 000 3zm-26.2 15.2a1.5 1.5 0 000-3 1.5 1.5 0 000 3zM133.37 390a1.5 1.5 0 000-3 1.5 1.5 0 000 3zm3.38-15.18a1.5 1.5 0 000-3 1.5 1.5 0 000 3zm6.76 12.67a1.5 1.5 0 000-3 1.5 1.5 0 000 3zm5.07-8.44a1.5 1.5 0 000-3 1.5 1.5 0 000 3zm12.67 27.87a1.5 1.5 0 000-3 1.5 1.5 0 000 3zM142.67 434a1.5 1.5 0 000-3 1.5 1.5 0 000 3zm15.07 2.76a1.5 1.5 0 000-3 1.5 1.5 0 000 3zm-1.56-5.34a1.5 1.5 0 000-3 1.5 1.5 0 000 3zm15.2-2.54a1.5 1.5 0 000-3 1.5 1.5 0 000 3zm12.68 5.91a1.5 1.5 0 000-3 1.5 1.5 0 000 3zM206 412a1.5 1.5 0 000-3 1.5 1.5 0 000 3zm-27.86-23.66a1.5 1.5 0 000-3 1.5 1.5 0 000 3zm-33.78 17.74a1.5 1.5 0 000-3 1.5 1.5 0 000 3zM293 428.88a1.5 1.5 0 000-3 1.5 1.5 0 000 3zm16.91-28.72a1.5 1.5 0 000-3 1.5 1.5 0 000 3zm6.76-14.36a1.5 1.5 0 000-3 1.5 1.5 0 000 3zm13.51 21.12a1.5 1.5 0 000-3 1.5 1.5 0 000 3zm7.61-14.36a1.5 1.5 0 000-3 1.5 1.5 0 000 3zm-11.79-.84a1.5 1.5 0 000-3 1.5 1.5 0 000 3zm-8.49 19.42a1.5 1.5 0 000-3 1.5 1.5 0 000 3zm-18.58-4.22a1.5 1.5 0 000-3 1.5 1.5 0 000 3zm5.91 13.52a1.5 1.5 0 000-3 1.5 1.5 0 000 3zm39.7 13.56a1.5 1.5 0 000-3 1.5 1.5 0 000 3zm21.97 0a1.5 1.5 0 000-3 1.5 1.5 0 000 3zm0-28.77a1.5 1.5 0 000-3 1.5 1.5 0 000 3zm-10.14 12.67a1.5 1.5 0 000-3 1.5 1.5 0 000 3zm5.91-22.8a1.5 1.5 0 000-3 1.5 1.5 0 000 3zm-22.8 22.8a1.5 1.5 0 000-3 1.5 1.5 0 000 3zM277 406.08a1.5 1.5 0 000-3 1.5 1.5 0 000 3zM153.65 170.41a1.5 1.5 0 000-3 1.5 1.5 0 000 3zm15.2 35.48a1.5 1.5 0 000-3 1.5 1.5 0 000 3zm18.58-23.65a1.5 1.5 0 000-3 1.5 1.5 0 000 3zM143.51 92.7a1.5 1.5 0 000-3 1.5 1.5 0 000 3zm11.73-6.13a1.5 1.5 0 000-3 1.5 1.5 0 000 3zm-7.16-5.43a1.5 1.5 0 000-3 1.5 1.5 0 000 3zm-10.63 5.64a1.5 1.5 0 000-3 1.5 1.5 0 000 3zm-9.98 1.96a1.5 1.5 0 000-3 1.5 1.5 0 000 3zm40.36 12.36a1.5 1.5 0 000-3 1.5 1.5 0 000 3zm-15.41-.21a1.5 1.5 0 000-3 1.5 1.5 0 000 3zm6.73 4.55a1.5 1.5 0 000-3 1.5 1.5 0 000 3zm3.9-28.64a1.5 1.5 0 000-3 1.5 1.5 0 000 3zm-2.6 16.28a1.5 1.5 0 000-3 1.5 1.5 0 000 3zm-11.72-.87a1.5 1.5 0 000-3 1.5 1.5 0 000 3zm1.74 13.67a1.5 1.5 0 000-3 1.5 1.5 0 000 3zm-7.16 4.55a1.5 1.5 0 000-3 1.5 1.5 0 000 3zm-11.72-11.71a1.5 1.5 0 000-3 1.5 1.5 0 000 3zM162.84 118a1.5 1.5 0 000-3 1.5 1.5 0 000 3zm11.93 3.28a1.5 1.5 0 000-3 1.5 1.5 0 000 3zm2.39-38.62a1.5 1.5 0 000-3 1.5 1.5 0 000 3zm-1.31-13.45a1.5 1.5 0 000-3 1.5 1.5 0 000 3zm14.98-.43a1.5 1.5 0 000-3 1.5 1.5 0 000 3zm-2.61 24.3a1.5 1.5 0 000-3 1.5 1.5 0 000 3zm174.67 18.22a1.5 1.5 0 000-3 1.5 1.5 0 000 3zm-7.6-4.3a1.5 1.5 0 000-3 1.5 1.5 0 000 3zm7.6-2.21a1.5 1.5 0 000-3 1.5 1.5 0 000 3zm-1.52-10.19a1.5 1.5 0 000-3 1.5 1.5 0 000 3zm-5.43-11.72a1.5 1.5 0 000-3 1.5 1.5 0 000 3zm11.29 4.56a1.5 1.5 0 000-3 1.5 1.5 0 000 3zM367 95.9a1.5 1.5 0 000-3 1.5 1.5 0 000 3zm-16-4.34a1.5 1.5 0 000-3 1.5 1.5 0 000 3zm-.91 10.2a1.5 1.5 0 000-3 1.5 1.5 0 000 3zm13.23 18.87a1.5 1.5 0 000-3 1.5 1.5 0 000 3zm-9.11 12.15a1.5 1.5 0 000-3 1.5 1.5 0 000 3zm10.41 14.11a1.5 1.5 0 000-3 1.5 1.5 0 000 3zM313.2 298.55a1.5 1.5 0 000-3 1.5 1.5 0 000 3zm24.74 131.71a1.5 1.5 0 000-3 1.5 1.5 0 000 3zm-2.17-6.08a1.5 1.5 0 000-3 1.5 1.5 0 000 3zm-1.96 10.63a1.5 1.5 0 000-3 1.5 1.5 0 000 3zm-4.81-7.16a1.5 1.5 0 000-3 1.5 1.5 0 000 3zm-5.17 6.08a1.5 1.5 0 000-3 1.5 1.5 0 000 3zm21.48-3.73a1.5 1.5 0 000-3 1.5 1.5 0 000 3zm.22-9.94a1.5 1.5 0 000-3 1.5 1.5 0 000 3zm13.67 16.27a1.5 1.5 0 000-3 1.5 1.5 0 000 3zm-3.69-8.46a1.5 1.5 0 000-3 1.5 1.5 0 000 3zm-4.12-6.51a1.5 1.5 0 000-3 1.5 1.5 0 000 3zm13.02.87a1.5 1.5 0 000-3 1.5 1.5 0 000 3zm.21-7.16a1.5 1.5 0 000-3 1.5 1.5 0 000 3zm-6.94-9.33a1.5 1.5 0 000-3 1.5 1.5 0 000 3zm-10.41 4.34a1.5 1.5 0 000-3 1.5 1.5 0 000 3zm-6.95-8.46a1.5 1.5 0 000-3 1.5 1.5 0 000 3zm16.93-11.72a1.5 1.5 0 000-3 1.5 1.5 0 000 3zm6.51-24.74a1.5 1.5 0 000-3 1.5 1.5 0 000 3zm4.12 22.14a1.5 1.5 0 000-3 1.5 1.5 0 000 3zm-218.06 49.03a1.5 1.5 0 000-3 1.5 1.5 0 000 3zm-4.56-10.41a1.5 1.5 0 000-3 1.5 1.5 0 000 3zm-8.03 6.08a1.5 1.5 0 000-3 1.5 1.5 0 000 3zm8.68-16.28a1.5 1.5 0 000-3 1.5 1.5 0 000 3zm5.21 13.67a1.5 1.5 0 000-3 1.5 1.5 0 000 3zm8.88-6.08a1.5 1.5 0 000-3 1.5 1.5 0 000 3zm5.66 9.98a1.5 1.5 0 000-3 1.5 1.5 0 000 3zm3.9-12.58a1.5 1.5 0 000-3 1.5 1.5 0 000 3zm-34.06.65a1.5 1.5 0 000-3 1.5 1.5 0 000 3zm52.07-6.07a1.5 1.5 0 000-3 1.5 1.5 0 000 3zM178 432.21a1.5 1.5 0 000-3 1.5 1.5 0 000 3zm21.39 3.68a1.5 1.5 0 000-3 1.5 1.5 0 000 3zm7.28-6.5a1.5 1.5 0 000-3 1.5 1.5 0 000 3z" opacity=".7" fill="#fff"/><path d="M146.17 85.67a1.5 1.5 0 000-3 1.5 1.5 0 000 3zm9.26 8.67a1.5 1.5 0 000-3 1.5 1.5 0 000 3zm21.4-1.73a1.5 1.5 0 000-3 1.5 1.5 0 000 3zm-6.36-16.2a1.5 1.5 0 000-3 1.5 1.5 0 000 3zM155.43 78a1.5 1.5 0 000-3 1.5 1.5 0 000 3zm41.64 7.67a1.5 1.5 0 000-3 1.5 1.5 0 000 3zM132.87 136a1.5 1.5 0 000-3 1.5 1.5 0 000 3zm15.04 14.45a1.5 1.5 0 000-3 1.5 1.5 0 000 3zm-16.77 21.98a1.5 1.5 0 000-3 1.5 1.5 0 000 3zm16.19 13.3a1.5 1.5 0 000-3 1.5 1.5 0 000 3zm-4.05-20.82a1.5 1.5 0 000-3 1.5 1.5 0 000 3zm30.08 0a1.5 1.5 0 000-3 1.5 1.5 0 000 3zm-46.85-71.14a1.5 1.5 0 000-3 1.5 1.5 0 000 3zM322.58 81a1.5 1.5 0 000-3 1.5 1.5 0 000 3zm19.67-5.74a1.5 1.5 0 000-3 1.5 1.5 0 000 3zm-1.74 24.29a1.5 1.5 0 000-3 1.5 1.5 0 000 3zm-12.72-6.36a1.5 1.5 0 000-3 1.5 1.5 0 000 3zm10.41 24.29a1.5 1.5 0 000-3 1.5 1.5 0 000 3zm-13.3 2.89a1.5 1.5 0 000-3 1.5 1.5 0 000 3zm6.94-13.3a1.5 1.5 0 000-3 1.5 1.5 0 000 3zm31.81 22.56a1.5 1.5 0 000-3 1.5 1.5 0 000 3zM370 103a1.5 1.5 0 000-3 1.5 1.5 0 000 3zm-11.56-2.87a1.5 1.5 0 000-3 1.5 1.5 0 000 3zM344 198.45a1.5 1.5 0 000-3 1.5 1.5 0 000 3zM153.11 367.92a1.5 1.5 0 000-3 1.5 1.5 0 000 3zm1.74-13.92a1.5 1.5 0 000-3 1.5 1.5 0 000 3zm-23.14 0a1.5 1.5 0 000-3 1.5 1.5 0 000 3zm3.47 57.88a1.5 1.5 0 000-3 1.5 1.5 0 000 3zm17.36-20.24a1.5 1.5 0 000-3 1.5 1.5 0 000 3zm5.2 10.99a1.5 1.5 0 000-3 1.5 1.5 0 000 3zm25.45-34.71a1.5 1.5 0 000-3 1.5 1.5 0 000 3zm10.41 26.61a1.5 1.5 0 000-3 1.5 1.5 0 000 3zm5.79 24.87a1.5 1.5 0 000-3 1.5 1.5 0 000 3zm-21.98-1.16a1.5 1.5 0 000-3 1.5 1.5 0 000 3zm-15.04 1.16a1.5 1.5 0 000-3 1.5 1.5 0 000 3zm5.78 19.09a1.5 1.5 0 000-3 1.5 1.5 0 000 3zm61.31-50.32a1.5 1.5 0 000-3 1.5 1.5 0 000 3zm3.47 16.77a1.5 1.5 0 000-3 1.5 1.5 0 000 3zm-23.13-13.88a1.5 1.5 0 000-3 1.5 1.5 0 000 3zm-28.34-64.78a1.5 1.5 0 000-3 1.5 1.5 0 000 3zm-28.92-11.57a1.5 1.5 0 000-3 1.5 1.5 0 000 3zm149.8 6.36a1.5 1.5 0 000-3 1.5 1.5 0 000 3zm-5.21 36.44a1.5 1.5 0 000-3 1.5 1.5 0 000 3zm32.39-20.24a1.5 1.5 0 000-3 1.5 1.5 0 000 3zm28.34-27.19a1.5 1.5 0 000-3 1.5 1.5 0 000 3zm-15.03 64.2a1.5 1.5 0 000-3 1.5 1.5 0 000 3zm-26.61-5.78a1.5 1.5 0 000-3 1.5 1.5 0 000 3zM300 384.7a1.5 1.5 0 000-3 1.5 1.5 0 000 3zm-15 33.54a1.5 1.5 0 000-3 1.5 1.5 0 000 3zm-24.31 0a1.5 1.5 0 000-3 1.5 1.5 0 000 3zm68.25 13.31a1.5 1.5 0 000-3 1.5 1.5 0 000 3zm-4.04-9.84a1.5 1.5 0 000-3 1.5 1.5 0 000 3zm-14.46 11.57a1.5 1.5 0 000-3 1.5 1.5 0 000 3zm40.48-32.39a1.5 1.5 0 000-3 1.5 1.5 0 000 3zm13.88-23.14a1.5 1.5 0 000-3 1.5 1.5 0 000 3z" opacity=".3" fill="#fff"/></svg>