<svg xmlns="http://www.w3.org/2000/svg" width="500" height="550" viewBox="0 0 500 550"><defs><clipPath id="a"><path d="M196.08 243.81H218v18h-8.2c-12-11.44-24.16-24.79-32.08-37.91l-2.88-17.61h16.6zm24.35-37.51h29c0 .41-1.88 74.26-2.2 87h-.05s-12.3-8.89-27.15-22zm10.46 62.85h7.21v-46.6h-7.21zm35.11-15.8h-2.6l-1-47h-10l2.28 81.31c4.6-3.59 10.94-8.71 17.95-14.84l10.69-66.47h-9.74zm55.58-38.82a51.64 51.64 0 0 0 2.85-8.23h-39.04l-1.07 55.82c5.36-5.1 10.76-10.59 15.82-16.27h-7.88V235.6h16.4c2.3-3 4.45-6 6.39-9H292.6v-12.07z" fill="none"/></clipPath></defs><title>s06e14-02</title><path d="M371.83 291.55q-.25 61.74-.62 123.47c-.81 9-2.68 16.4-3.55 25.44-1 10.07 1.35 17-1.5 25.63-.58 1.77-2 1.67-3.35 1.44-44.58-7.74-101.65-5.72-146.65-2.93-24.59.58-58.62-1.67-83 2.09-5.22.6-5.68.28-6.62-4.82-1.34-11.26 1.45-20 0-30.81-6.15-46.82-.89-92.88-3.1-140-1.41 2.82-2.94 5.6-4.28 8.46-2.37 10.67-17.51 9.3-11.82 16.18 11.12 7.95 6.41 21.38 5.16 32.56-.25 3.15-1.35 6.27-.38 9.58.51 8.43-3.19 16.94-4.38 25.31-1.5 8-2.6 15.83-1.53 23.93a5.17 5.17 0 0 1-1.14 3.3c-5.71 6.28-7.74 14-9.18 22.06-.58 3.18-.62 3-3.74 2-12.38-3.52-26.1-4.38-38.61-1.18-1.39.34-2.1 0-2.41-1.47-2-7.76-2.17-16.67-8.49-22.43a6.75 6.75 0 0 1-1.33-3.22 145 145 0 0 1-2.72-33.3c-1.91-63 2.61-126.93 26.2-186 13.6-35.43 24.56-73.32 48.06-103.67 27.32-18.2 60-23.76 90.46-34.78a3.16 3.16 0 0 1 2.72.43c5 5.55 11.47 8.41 18.56 9.67 19.19 2.43 41.29 5.55 58.65-4.88 2.86-1.27 4.2-6.53 7.88-5 29.18 10.51 61.11 14.39 87.49 31.6 15.94 14.59 21.63 38 30.46 57.21 27.81 67.48 58 137.39 51.05 212.07-1.2 18.66-.24 37.46-3.29 56-.48 4.66-5.2 7.09-5.56 11.78-1.21 5.28-2.07 10.65-2.9 16-.41 2.6-.42 2.83-3.09 2.33-12.48-2.66-25.25-5.49-37.8-1.58-8.33-.15-8.13-15.56-11.44-21.41-6.28-7.36-3.61-9-5.32-17.63-.91-9.7-4.69-20.27.78-29.26 2-3.53 1.87-7.05.51-10.66-4.9-11.29-7.4-23.42-10.45-35.29-1.06-4.31-1.31-8.5 1.61-12.34 1.49-7.15-10.42-8.7-10.93-15.93z" fill="#262521" stroke="#262521" stroke-linecap="round" stroke-linejoin="round" stroke-width="3"/><path d="M413.92 149.18c-4.37-10.69-12.92-30.91-12.92-30.91l1 16.57-17.52 6.69 18.3 5.72L404 166z" fill="#e0c1bd" stroke="#e0c1bd" stroke-linecap="round" stroke-linejoin="round" stroke-width="3"/><path d="M440.41 228.41L444 230c-.73-1.49-11.21-31.8-12.17-34.44l-.75 16.14-18.14 4.74 17.57 7.67-.87 18.75z" fill="#95b3c6" stroke="#95b3c6" stroke-linecap="round" stroke-linejoin="round" stroke-width="3"/><path d="M458.62 299.87s-3.85-26.16-4.89-31.41L452 281l-18.5 3.11 16.82 9.2-2.53 18.6z" fill="#518960" stroke="#518960" stroke-linecap="round" stroke-linejoin="round" stroke-width="3"/><path d="M458.46 374.19c1.12-11.38 2.06-22.79 2.12-34.22L455 355.16l-18.73-1 14.43 12.63-6.5 17.61z" fill="#6b242e" stroke="#6b242e" stroke-linecap="round" stroke-linejoin="round" stroke-width="3"/><path fill="#e0c1bd" stroke="#e0c1bd" stroke-linecap="round" stroke-linejoin="round" stroke-width="3" d="M88.29 153.71l18.3-5.72-17.52-6.69 1.12-17.83-12.22 33.46 9.14 15.51 1.18-18.73z"/><path d="M59.59 231.2l17.57-7.67L59 218.79l-.66-14.17s-7.37 25.74-8.7 30.92L60.46 250z" fill="#95b3c6" stroke="#95b3c6" stroke-linecap="round" stroke-linejoin="round" stroke-width="3"/><path d="M65.81 289.81l-18.49-3.11-2.41-17.7s-4.79 34.81-4.82 35.86l11.44 12.75L49 299z" fill="#518960" stroke="#518960" stroke-linecap="round" stroke-linejoin="round" stroke-width="3"/><path fill="#6b242e" stroke="#6b242e" stroke-linecap="round" stroke-linejoin="round" stroke-width="3" d="M47.46 370.88l14.42-12.63-18.73.96-4.24-11.48.41 30.27 14.64 10.48-6.5-17.6z"/><path d="M258.14 203.32h-88.23c0-29 19.76-52.47 44.12-52.47s44.11 23.49 44.11 52.47z" fill="#ad1717"/><path d="M324.47 203.32h-88.23c0-29 19.75-52.47 44.12-52.47s44.11 23.49 44.11 52.47z" fill="#ad1717"/><g clip-path="url(#a)"><path fill="#c4af76" d="M169.91 230.6h157.08v13.34H169.91z"/><path fill="#217561" d="M169.91 243.94h157.08v10.52H169.91z"/><path fill="#3c6ab5" d="M169.91 254.46h157.08v13.72H169.91z"/><path fill="#1d42aa" d="M169.91 268.19h157.08v12.56H169.91z"/><path fill="#552a82" d="M169.91 280.74h157.08v12.56H169.91z"/><path fill="#ad1717" d="M169.91 206.56h157.08v13.01H169.91z"/><path fill="#b25e52" d="M169.91 219.57h157.08v11.04H169.91z"/></g><path d="M378.61 80.21c15.94 14.59 21.63 38 30.46 57.21 27.81 67.48 58 137.39 51.05 212.07-1.2 18.66-.24 37.46-3.29 56M41.37 406.16a145 145 0 0 1-2.72-33.3c-1.91-63 2.61-126.93 26.2-186 13.6-35.43 24.56-73.32 48.06-103.67" fill="none" stroke="#262521" stroke-linecap="round" stroke-linejoin="round" stroke-width="3"/></svg>