<svg xmlns="http://www.w3.org/2000/svg" width="500" height="550" viewBox="0 0 500 550"><path fill="none" stroke="#84837e" stroke-linecap="round" stroke-miterlimit="10" stroke-width="3" d="M371.12 496.3v7.41"/><rect x="358.83" y="494.86" width="24.57" height="15.18" rx="3" fill="none" stroke="#84837e" stroke-miterlimit="10" stroke-width="3"/><path d="M316 56.92s-22.8-23.49-42.58-23.49h-49.7c-19.78 0-48.84 25.75-48.84 25.75l30.7 29.34h85.94z" fill="#262521" stroke="#262521" stroke-linecap="round" stroke-linejoin="round" stroke-width="3"/><path d="M297 49.28s-21.71 9.9-47.18 9.9-40.17-9.9-40.17-9.9l-19.25 51.5 115.49 8z" fill="#e5e5e5"/><path d="M297 49.28S279.89 58 252.23 59.1s-42.59-9.82-42.59-9.82" fill="none" stroke="#262521" stroke-linecap="round" stroke-linejoin="round" stroke-width="3"/><path d="M209.64 49.28s4 48.55 43.68 46.73S297 49.28 297 49.28l73.16 29.47s-1.73 406.89-5 409.08-151.4 0-167-3.28-53.14 5-57.87 4.16-5.46-15.4-3.64-23 1.36-386.92 1.36-386.92z" fill="#fff" stroke="#262521" stroke-linecap="round" stroke-linejoin="round" stroke-width="3"/><path fill="#262521" opacity=".43" d="M223.4 299.99l-.14-.25h.14v.25zm10.88-31.67l-.03-.1h.34l-.03.11-.1.58h-.08l-.1-.59zm7.49 20.58h-.84l-.02-.05h.84l.02.05zm34.89-106.46h-.08v-.2zm-4.94 0a1.79 1.79 0 000-.24zm-24.6 62.64v-.12a4 4 0 00.12-1 .31.31 0 000-.1v1.17zm12.39-12.96l-.05.27-.05-.27h.1zm9.16.59l-.05.3-.06-.3h.11zm-12.02.45h-.13s.09-.1.13-.16zm13.87-23.63h.19v.01h-.19zm-2.09 0h1.04v.01h-1.04zm-14.58 9.03v-.52h.12l-.12.52zm.93 26.21a.44.44 0 01.22.31h-.22zm20.92-26.68l-.03-.05h.03v.05zm-1.7-17.75zm-26.38 9.36h.07-.07zm14.59 43.4h.08l-.08.32v-.32zm-1.66-51.67a1.49 1.49 0 01-.55-.11.77.77 0 01-.21-.19 2.59 2.59 0 01.69.23s.04.05.07.07zm-8.29-.43v-.08h.08zm8.89-19.32h.09v.76h-.09zm-2.09.76a2.47 2.47 0 00.1-.29v.29zm-15.28 27.09v.01h-1.21v-.01h1.21zm5.4 68.65l-.15-.81-.02-.1h.33l-.02.12-.14.79zm27.23-9.6l.11-.2v.53h-.14zm-31.68 21.13v.3h-.1l.1-.3zm-10.26-80.15l-.01-.03h.01v.03zm8.1 50.35h.09l-.09.28v-.28zm-2.34 30.1h-.11l.06-.18.05.18zm34.38-124.25v-.32l.18.32h-.18zm-39.09 34.57v1.03l-.12-.55a1.25 1.25 0 010-.19 2.54 2.54 0 010-.29zm-5.53 17.71h.15v.26l-.15-.26zm11.86 81.7l-.07.22v-.22h.07zm31.66-9.74zm-27.77 9.74h.06v.83h-.06zm13.39-133.98v-.12.12zm-28.69 61.61v-.08l.05.08h-.05zm44.83 80.54l-.08.41-.07-.41h.15zm-43.73-8.17l-.18.81v-.81zm36.83 8.17v.48l-.05-.06a2.38 2.38 0 00-.87-.37h-.23zM257.25 309l.1.08h-.12zm-64.48-143.26h1.19-1.21zm33.05 24.72a1.39 1.39 0 01-.3 0h-1.13zm-10.28 9.87zm5.33 25.88a1.55 1.55 0 01-.33 0h-1.13z"/><path fill="#262521" d="M231.14 154.25h-2.06l.55 3.89v-3h1.51v-.89zm46.86 0h-3.12v.59h-1.26v-.59h-1v.18l-.12-.07v-.11h-.31a3.24 3.24 0 00-.73-.09 2.34 2.34 0 00-.77.13h-1.1v.59h-1v-.59h-1a3.22 3.22 0 00-.72-.09 2.68 2.68 0 00-.65.09h-1.67v.59h-1v-.05a1.54 1.54 0 00-1.3-.54h-2.67v.59h-.43a1.05 1.05 0 01-.07-.11 1.26 1.26 0 00-.47-.35 2.14 2.14 0 00-.72-.12h-2.47v.42a1.65 1.65 0 00-1.19-.42h-1.08a2.86 2.86 0 00-1-.15 2.48 2.48 0 00-1.18.26v-.11h-5.3v.7l-.25-.72h-1.19l-1.55 4.35h-3.73v-1.18l1.68-3.14h-1.23l-1 2.19-1-2.19h-1.24l1.74 3.14v1.17h-2.21v-.48a1.67 1.67 0 00-.14-.79.93.93 0 00-.49-.39 1 1 0 00.59-.49 1.53 1.53 0 00.18-.71 1.45 1.45 0 00-.34-1 1.35 1.35 0 00-.47-.35 2.27 2.27 0 00-.79-.13h-2.41v4.26h-2.09l2 14.07.05-.14h1.51v1.17h-1.42l1.09 7.68h.5v1.17h-.34l.64 4.49-.47 3.53h.17v1.17h-.33l-3.59 27.16.23.41h-.29l-3.27 24.71h.35l-.26 1.17h-.14v-.83l-1.21 9.17v.85h-.11l-.75 5.64h.16v1.17h-.31l-.89 6.66h2.56l.33 1.17h-3l-1.11 8.36h4l.33 1.17h-4.43l-1.38 10.41h7.72l.34 1.16H220l-1.29 9.73h1.55v1.17h-1.7l-.93 7h2.73v1.17h-2.88l-.71 5.32H278v-14.29l-.12-.42h.12v-30.83h-.4v-1.17h.4v-6.66h-1.33v-1.17H278v-5.64h-.63v-.8h.63V245v.06h-2.22a2.25 2.25 0 01-.25-1.07v-.1h1.65v.65h.82v-12.1h-.63V232h.52l.11.34V219.2h-1.08l.63-1.16h.45v-7.35h-1.2v-1.16h1.2v-17.9h-.4a2.45 2.45 0 01-.15-.86 2.91 2.91 0 010-.31h.55v-9.09l-.3.84a2.13 2.13 0 01-.23-.94h.53v-15.84a.84.84 0 01-.18-.15s0-.07-.05-.1h.23zm-46.67 10.39h-.12.12zm44.18 0v.79l-.45-.79zm-.32 16.68h.41v1.17h-.68zm-2.49 73h-.38v-.57h1a.8.8 0 01.59.16.72.72 0 01.15.41h-1.39zm-.42 6.62h-1.77v-1h2v.71h-.22a1.26 1.26 0 000 .24zm-2.46-33.52l-.2-.54v-.62h1.68v1.16zm.55 5.63l-.35-1h.14zm-4.94 56.9l.48-1h.15l.55 1.16h-.43V290zm-.92-11.46v-1.17h3l.2.37v.8zm-1 0h-1.94v-1.17h1.94zm.24 21.3h.45l.39.81H264v.36h-.78zm-2.22-80.54h-.32l-.41-1.16h2v1a.78.78 0 01-.33-.21 1 1 0 01-.19-.52h-1a1.55 1.55 0 00.21.84zm-1.22 49.71l.21-.75v.75zm.21 8.36v1.17h-.22v-1.17zm-.06-16.49l-.54-.12a2.46 2.46 0 01-.7-.23.45.45 0 01-.21-.34.5.5 0 01.13-.12.7.7 0 01.23-.06h1.4v1zm-2.2 17.66v-1.17h1v1.17zm.15 10.41v1.1h-.6v-1.16zm-.55-27.77h-1.11v-1.17H258v.05a1.49 1.49 0 00-.18.7 1.29 1.29 0 000 .37zm-7.65 0v-1.17h1.7a2.06 2.06 0 01.34 1.17zm1.28 27.77l-.11.61-.12-.61zm-3.21-43.77v-1.17h.72v1.17zm.51 9.19h-.22v-.85zm-3.58 13.47l-.41 1.17h-1.13v-1.17zm-.36-7.83h.5v.68a.59.59 0 01-.34-.13.94.94 0 01-.2-.6zm-8.1 39.83h1.22l.23.81h-.07v.36h-1.71zm-.17-9.73v-1.16h.52v1.1zm-.32-28.93v-1.17h.74l.66 1.17zm1.07 6.66l-.14.61-.12.56H237l-.11-.59-.12-.58zm-1.54-77.28h.75v1.17h-.08zm.39 78.45H236v-1zm.49-59.38h.51l.27 1.16h-1zm-.44 8.51h1.88a2.45 2.45 0 00.54 1.16h-2.42zm1.71-8.51h.45v1.16h-.19zm1.24-9.2H242v.95h-2.65v.22h-.32a4 4 0 00.11-.88c.02-.15 0-.24 0-.34zm2.35-17.89h-1.15v-1h1.15zm2.88 8v.31a3.26 3.26 0 00.11.86h-1.92v-1.17zm-1.83-8v-1h.24v-.19h1.58a3.25 3.25 0 00.24 1.17zm1.38 28.25h-1.35v-.28h1.73a1 1 0 00-.42.23zm0 7.35a3.67 3.67 0 00-.18 1.16H243V218zm.04-16.59v-1.17h.11a1.45 1.45 0 00-.06.41 1.42 1.42 0 00.09.52 1.16 1.16 0 00.14.24zm-.94 24.71a2.61 2.61 0 010 .31 2.36 2.36 0 01-.14.85h-2v-.2a2.41 2.41 0 01.19-1zm-.54 18.87h-1v-.28l.32-.89h.51v.1a3.55 3.55 0 00.21 1.07zM240 218h1.72a1.59 1.59 0 01-.27.57H240zm-.62-7.88v-.63h2.22v.63zm2.31 44.11h-.38a2.16 2.16 0 01-.27-1.12v-.05h.23zm-2.24-28.06a3 3 0 000 .31 3.74 3.74 0 00.1.85h-1.91v-1.16zm-1.58 28.06h-.9v-1.13h.23zm-.44-9.19v-1.17h.93a1 1 0 00-.56.47 1.49 1.49 0 00-.18.7zm.53 14.83h.42v.74zm.19-6.81h.69v1.17zm.55-8a.7.7 0 010-.14.58.58 0 01.3-.57h.09l.26.73zm-1.49-12.25v-.67h2.44V232h.35a2.3 2.3 0 00.57 1.17h-1.18v-.33zm3 21.44h-.36v-1.15h.15v.05a3.25 3.25 0 00.12 1.12zm-.08-10h.52v.56l-.08.23h-.19zm-.73 15.62h1.62l.33.94h-1.95zm3.2 8.31v.69h-1.7l-.25-.69zm-1.08 9h1.06l.08.25v.1h-1.25zm.86-24.17h1l-.39 1.17h-.22zm.06-20.11a1.33 1.33 0 01-.54-.11V232h1.8a1.71 1.71 0 01-.27.54 1.21 1.21 0 01-1.08.46zm1.33 26.92h.07a1.7 1.7 0 00.14.74.94.94 0 00.5.4h-1.07zm.67-14.83v-1.17h.4l-.26 1.17zm-.24-11.92a2.47 2.47 0 00.57-1.17h.23v1.17zm.63-5.79a1.36 1.36 0 000-.2 3.54 3.54 0 00-.13-1h2.86v1.16zm.9-45.17a2.27 2.27 0 01-.23-.93h1.1a4.54 4.54 0 00.82.25l.54.12.18.05a1.74 1.74 0 01-.3.75h-1a1.53 1.53 0 01-.09-.34h-1s-.11.15-.11.19zm-.21 8.26h2.65a2.91 2.91 0 010 .31 2.45 2.45 0 01-.15.86h-2.43a2.45 2.45 0 01-.15-.86 2.91 2.91 0 01-.01-.22zm4.24 28.74h-1.08a3.67 3.67 0 00-.18-1.16h.92zm-.18-8.72a1.86 1.86 0 010-.34h.35v.55h-.37a1.33 1.33 0 01-.07-.12zm-.47 21.61a3.37 3.37 0 00.24 1.17h-.82V232zm-.65-21.3H248a.54.54 0 01.28-.46.65.65 0 01.21-.06 3 3 0 000 .31c-.05.07-.03.13-.03.2zm.69-9.19h-1.05v-.6h1zm-3-1.17v1h-.24a1 1 0 01-.48-.09.65.65 0 01-.29-.62 1 1 0 01.05-.26zm.44 9.2v.4h-.72v-.4zm0 8.51v1.16h-1.82a2.07 2.07 0 01.3-1.16zm-.57 15.12V232h1.42v1.17zm1.08 19.94l-.26 1.17h-.15v-1.18zm-.56 6.81l-.16.71h-.15v-.71zm-1.1-16h.62v.24a2.12 2.12 0 01-.23.93h-.71zm.71 23.83h.85l.26.83h-1.28zm.42 9.53H248l.33 1.17h-1.75zm1-16.19v-1.17h.51l.27 1.17zm1.82 6.66l-.12.59-.1.58h-.08l-.11-.59-.13-.58zm-.13-14.32h.33v.85h-.14zm-.23-26.84v-.37h1.41v.37zm2.76-15.89h-.92v-1.16h.85v.33a3.52 3.52 0 00.12.82zm.53 16.68h-.14v-.57h.15v.37a1.36 1.36 0 00.04.19zm-.49-8.17l.08-.41.14-.75h.08l.14.75.08.41zm.56 12.79a2.4 2.4 0 00.26.74 1.48 1.48 0 01-.2.42h-1V232zm-1.11-14l-.23 1.16h-.25V218zm-.1-16.63a1.17 1.17 0 01-.89-.44 1.4 1.4 0 01-.15-.3v-.34h1zm-.69 30.63v1.11a2 2 0 01-.33-1.11zm-.37 45.28h.64l.24 1.17h-1.12zm-.15-8.36l.21-1v1zm1.56-14.64v-1.18h.83v.05a3.51 3.51 0 00.17 1.12zm.54-9.25v.06h-2v-1.17h1.23v.65h2.44v.52h-.66v-.06zm-2.63-63.75h2.19v1.17h-1.86a1.15 1.15 0 000-.26 1.26 1.26 0 00-.33-.92zm.4-16.31a1.49 1.49 0 00-.18.7.36.36 0 000 .1h-.11a5.1 5.1 0 000-.57 5.49 5.49 0 000-.6h.65a.9.9 0 00-.36.4zm.27 8.17a2.22 2.22 0 01-.06.46h-.36v-1.17h.31a2.55 2.55 0 01.11.7zm1.45-.71h2.73a2.22 2.22 0 01-.3 1.17h-2.13a2.13 2.13 0 01-.3-1.18zm-.1-6.66zm1.67 43.77h1.94v1.16h-1.83a1.36 1.36 0 000-.21 3.52 3.52 0 00-.11-.96zm1.76 8.8v.87h-.25zm-1.45 8.47h.74v.57h-.76v-.2a3.69 3.69 0 01.02-.38zm.46 5.19h2.1a1.51 1.51 0 01-.26.54 1.21 1.21 0 01-1 .46 1.23 1.23 0 01-.92-.4 2.91 2.91 0 00.08-.6zm1.33-4.62v-1.16h.69a2.24 2.24 0 01.2 1 1.38 1.38 0 010 .2zm.31-26.09H254v.22h-.87a2.09 2.09 0 00.34-.56h1.19v-.61h.84zm-2.86-20h.32v1.17h-.32zm.31 86.47h1.2v1.17h-1.53zm.12 9.53h.64l.24 1.17h-1.12zm1.16 22.47v.81h-1.5v.36-1.17zm-1-38.66a3.44 3.44 0 00-.21-1.17h.21v.25h1.82v.92zm.42-6.81a2.15 2.15 0 01-.28-1.12v-.05h.3v.7H256a1.42 1.42 0 01-.2.47zm1.56 13.47h.28l.33 1.17h-.61zm.62 9.53h.36v1.17h-.68zm.15-32.89a2.6 2.6 0 00-.1.25 1 1 0 00-.41-.62 1 1 0 00-.21-.1h1.28a1 1 0 00-.58.45zm-.09-25.46V218h2.71l-.31.88zm.63-9.39H258a1.22 1.22 0 00.4.89v.27h-1.9a4.14 4.14 0 00.09-.83c-.03-.14-.04-.24-.05-.35zm1.15 22.58h.81l.3 1h-1.11zm-.4-4.74v-.53h.87l.15.53zm-.69-26.09v-.95h1.29a1 1 0 00.25.29 1.89 1.89 0 00.47.22 1.56 1.56 0 00.22.66h-.72v-.22zm.57 53v-1.2h1.07l.14.52a1.53 1.53 0 00-.17.65zm-.27-9.19a.7.7 0 010-.14.58.58 0 01.3-.57 1.29 1.29 0 01.51-.08h1.13v.79zm2.29 23.24l-.11-.58h.56l-.14.61-.11.56h-.08zm.54-41.48v-.63h.14l-.23 1.16h-.36l-.12-.53zm-.5-7.64l.39-1.16h.12l.37 1.16zm1.47 25.36a3 3 0 00.11.52h-1v-.52zm-1.11 9.05l-.12.66-.08-.47a.39.39 0 01.18-.18zm.64.66l.15-.74h.68l.13.6v.14zm.46-21.11V232h.46l.24 1.17zm-.28-5.79l.13-.62.1-.54h.16l.1.54.13.62zm6-26.09h-1.23v.22h-.63v-1.17h1.83a2.83 2.83 0 000 .29 3.53 3.53 0 00.06.63zm1 8.25v.63h-2.33a1 1 0 00-.25-.3 2.93 2.93 0 00-.91-.33zm2.06.88v.28h-1v-.28zm-.56-8.91v-1.17h1v1.17zm-.33 25.3v.57h-.84l.39-1.16h.26zm-.74 26.3h.84l.21.67h-1.07a4.38 4.38 0 000-.52.77.77 0 000-.18zm.05-51.82h-.36a2.65 2.65 0 01-.08-.66 2.58 2.58 0 010-.29h.41zm-.24 31.43l.13.45h-.61l.15-.45zM265.31 218h.33a.8.8 0 010 .24.59.59 0 01-.29.57h-.12a1.51 1.51 0 00.1-.53 1.42 1.42 0 00-.02-.28zm1.82 8.17l-.42 1.15a1.16 1.16 0 00-.41-.82 2.3 2.3 0 00-.78-.33zm-.41-8.17h.48v1.16h-1a1 1 0 00.37-.36 1.49 1.49 0 00.18-.7s-.03-.03-.03-.1zm-.41 14h.2l-.42 1.17a3 3 0 00.22-1.17zm.12 12.61v.48h-1.11a3.38 3.38 0 00.11-.48zm.36 8.5l-.42 1.16h-2.07a2.33 2.33 0 01-.22-1v-.15zm.5 14.64l.47.84v.33h-2.9v-1.17zm-.09-6.89a3.34 3.34 0 00.18-.94v.94zm-2.84-42.42a.56.56 0 01-.32.5h-.29V218h.39a.42.42 0 01.22.43zm-.08 8.48l.54.12a2.46 2.46 0 01.7.23.57.57 0 01.11.11h-2.47l.21-.75a4.45 4.45 0 00.91.28zm1 5.08a2 2 0 01-.35 1.16h-2a2.39 2.39 0 01-.16-.32l.23-.84zm-1.82 11.92v1.17h-1v-1.17zm-1.68 17.17v-.88h.35a2.64 2.64 0 000-.29h.52a3 3 0 00.3 1.17zm0 6.66v1.17h-.26v-1.17zm-.19-41.53h.9l-.27 1.16h-.39zm1.3 28.06l.17-.6a3.75 3.75 0 00.11.6zm-.07 14.64v-1.17h1v1.17zm.84-9h2.65a2 2 0 01-.3.94h-1v.23h-.77c-.06-.06-.14-.09-.2-.17a1.91 1.91 0 01-.37-1.01zm6.21 28.94V290h-2.13l-.64-1.16zm-1.45-28.94h.78v1.17h-.78zm-.09-14.83v-1.17h1.24v1.17zm.46-26.42V218h1.33a3.75 3.75 0 00.2.62zm4.75-28.2v1.17h-1.86a1.19 1.19 0 00-.41-.84 2.47 2.47 0 00-.76-.33zm-2.18-9.19h.35v.9a1.24 1.24 0 00-.34-.91zm1.33 1.17v-1.17h.41l.26 1.17zm1.56 43.8a.56.56 0 01-.29.56 1.15 1.15 0 01-.51.08h-.93a2 2 0 010-.36 2.61 2.61 0 010-.31h1.74zm0-7a2.31 2.31 0 00.46-.83l.46.83zM270.64 245v-1a2.21 2.21 0 00.84.35l.88.21a3.12 3.12 0 01.67.21.44.44 0 01.22.31h-1.9v-.06zm.67 8.08v1.17h-.59v-1.15zM271 232h.32v.43l-.12.59-.16-.8zm1.34 1.17V232H274a1 1 0 01.13.58v.54zm1.13-14.55a1.18 1.18 0 01-1 .46 1.21 1.21 0 01-1-.46 1.79 1.79 0 01-.28-.57h2.55a1.45 1.45 0 01-.28.56zm-1.72-8.4v-.68h.73v.68zm-.54-9.88h.85v1.17h-.94a3.48 3.48 0 00.11-.88 2.83 2.83 0 00-.03-.3zm2.53 43.66a1 1 0 00-.21-.1h1v.1a3.54 3.54 0 00.16 1.07h-.39a1.2 1.2 0 00-.56-1.07zm.8-16.72a1 1 0 00.6-.49c0-.05 0-.1.05-.14a2.14 2.14 0 01-.13.71h-.36zm-.72-16.6v-.24h1.8v.24zm0-1.1v-.06h1.8v.06zm.78-8.31v.22h-.6v-.33h.11a1 1 0 01.5.11zm-.06-28.27v.58h-.94a1 1 0 00-.33-.43 1.61 1.61 0 00-.27-.15zm-2.83-7.87h1.18v.62h-1.31a1.38 1.38 0 00.13-.61zm-.17 7.28v.17a4.22 4.22 0 01-.56-.16zm-1 .89a7.17 7.17 0 00.74.21l.3.07h-1zm.21 8.95a.53.53 0 010 .18h-2a1.52 1.52 0 01-.1-.34h-1a1.87 1.87 0 000 .34h-1.45v-1h2.44v-.11a5.18 5.18 0 00.61.17l.55.12a2.23 2.23 0 01.69.24.41.41 0 01.22.41zm-1.08-17.67h.5l.31 1a.62.62 0 01-.17.11 1.67 1.67 0 01-.49.08h-.52zm-1 0l-.13.35h-.61a1.12 1.12 0 00-.3-.35zm-1.73.78a.43.43 0 01.22.38h-.22zm.15 7v.64h2.44v.62h-5.22v-.13h2.44v-.88h-2.44v-.16zm-1.51-7.36l.33.08v.69h-.5zm-1.09-.4a1.66 1.66 0 00.4.21l-.18.79h-.48l-.23-1zm.22 16.87v-.19h.47v1.17H264a1.72 1.72 0 00-.14-.78.61.61 0 00-.17-.19zm0 9.63v-.63h3.18a1 1 0 00.26.31 3.41 3.41 0 001.1.39l.55.12a2 2 0 01.69.23.34.34 0 01.12.12h-8.34v-.54zm-2.28 9.24h1.11v1.17h-1.26a1.38 1.38 0 00.23-.75 1.84 1.84 0 00-.08-.43zm-.16-17.89v-.75a.81.81 0 01.51.15.94.94 0 01.16.6zm.74-17.85h.24l.22 1H263zm-.82 8.37a3.12 3.12 0 01.67.21.42.42 0 01.24.4h-.94zm.38 37.24l.88.21a3.12 3.12 0 01.67.21s.05 0 .08.07h-2.49a.91.91 0 00-.18-.21 3.39 3.39 0 00-1.11-.39l-.54-.12-.46-.12v-.32h2a1.18 1.18 0 00.24.31 2.23 2.23 0 00.91.35zm-1-9.38a.5.5 0 010 .13 1.43 1.43 0 00-.24-.31 2.35 2.35 0 00-.69-.31h.5l.22.09a.43.43 0 01.18.39zm-.3-9.19h-1v-1.17h1zm-1-27h.92v1.17h-.92zm-1 7.83h1.31l.22.12h-1.6zm0 1h1.95-1a1 1 0 000 .16h-1zm-2-8.82h1.06-1.05zm0 .92h.88a1.92 1.92 0 01-.12.25h-.76zm0 15.9h1a1.94 1.94 0 01-.33 1h-.68zm0 9.64h2v.58h-2zm-1.16-18.63h1.09v1.17h-1.09zm.11 8.85v1.17h-.26a2 2 0 01-.35-1.17zm0 9.19v1.17h-2.11v-1.17zm-2.11-8v-1.17h.45a3.25 3.25 0 00.23 1.17zm0-17.36a1.33 1.33 0 00.21-.26 2.18 2.18 0 00.09-.23h.14a3.79 3.79 0 00.17 1.17h-.49v-.06a1.06 1.06 0 00-.1-.12zm-1.33-9.93a1.19 1.19 0 01.37.3 1.08 1.08 0 01.12.24v.54h-.49zm0 1.91h.49v.77a1.08 1.08 0 01-.12.24 1 1 0 01-.37.29zm-.09 7.81h-1.18 1.18zm-1.52-9.42a1.2 1.2 0 01.61-.38v3.38a1.2 1.2 0 01-.61-.38 2.5 2.5 0 010-2.62zm-1.7-.31h.68a3 3 0 00-.39 1.62 2.79 2.79 0 00.62 1.9h-.91zm-.28 35.32H253v1.17h-3.94a3.74 3.74 0 00.11-.86 3 3 0 00-.03-.39zm-.48-16.87h-1.22a3.24 3.24 0 01-.05-.46 2.68 2.68 0 01.05-.42h1.22zm-2-18.45h1.7v1.16h-1.7zm0 2h1.7v1.47h-1.44l-.26-.71zm-.82 8h1.75v.26a1.22 1.22 0 01-1.74-.05v-.16c0-.06-.05-.11-.05-.13zm.38 7.28a.94.94 0 00-.37.37 1.49 1.49 0 00-.18.7v.1h-1.05v-1.17zm-1.46-17l.64 2h-1.29zm-.94 2.84h1.8v.38h-1.92zm-.84 6.35h1.41a2.49 2.49 0 00.44 1.12H243zm.49 8.38v.62h-4v-1.17h1.72v.48zm-2.38-8.38v1.17H241l-.27-1.17zm-1.8 0h.66l.27 1.17H240a1.15 1.15 0 00-.36-.55 1.89 1.89 0 00-.45-.23zm0 16.68v1.17h-1v-1.17zm-1.13-16.68h.38v.19l-.34-.07zm0 1.11h.12-.12zm-.1 6.72h.4v1.17h-.31l-.09-.15zm-.62 18h4v1.17h-4zm-.35-17.07v.2H237l-.14-.65zm-.62 26.94h1.57a1.89 1.89 0 01-.12 1.17h-1.47zm0-18.92v.72l-.42-.72zm-.96-16.47l.44.77h-.72zm-.24 7.43h.07v1.17h-.34zm.41 10h-.45v-.78zm-.26 9.19h-1.09v-1.17h.42zm-1.09-26.15v-.89h.29zm.21 6.94l-.19.83v-.83zm-1.79-17.3h1.2a1 1 0 01.48.09.63.63 0 01.29.62.55.55 0 01-.3.56 1.11 1.11 0 01-.5.08h-1.17zm-.39 9.47h.32-.35s.03.03.03.01zm-.23 1.17c0-.07 0-.17.08-.25h.8l.09.25zm.62-7.25v-1.2h1a.81.81 0 01.6.16.94.94 0 01.17.64v.42zm.77 41.82h.79v.29a4 4 0 00.11.88h-1.14zm-.1 9.2h.23l.27 1.16h-.77zm-.85-8.58v-.62h.22l-.23 1c0-.06 0-.19.01-.32zm.09 17.09h2.12a2.07 2.07 0 01.3 1.16h-2.72a2.07 2.07 0 01.3-1.19zm3 35.06v1.17h-3v-1.16zm-1.4-8v-.52h.88l.29.52zm1.22 43.84V290h-.4v-1.07zm-2.22-20.7l.19.69h-.5v-.69zm0-7.14l.27-1.17h.09l.27 1.17zm.22 16.2h1.41v1.16h-1.73zm1.16-16.2l-.26-1.17h.66v1.17zm-3 27.77l-.12.61-.12-.61zm-1.16-10.41l.24-1.17h.64l.24 1.17zm-.2-9.53l.33-1.17h1.27v1.17zM228 254.27v-.8h2.44v-.37h1.16v1.17zm1.68 13.47l-.14.61-.11.56h-.08l-.11-.59-.13-.58zm-.59 21.11l-.11.61-.11-.61zm-1.38-27.77l-.17-.53h1.29l-.18.53zm.83 7.83h-.92l.24-1.17h.44zm.47-23.83h-.14l-.26-1.17h.4v1.17zm1.09 14.83h1.06v1.17h-1.48zm-.1-14.83v-1.17h3.08v.65h.24v.52zm2.15 14.83h.66l-.26 1.17h-.4zm1.91-27.08h-1.4v-.72h1.4zm-2.89-23.3v.72l-.23-.72zm.38 8.51a3.67 3.67 0 00-.18 1.16h-.24V218zm0 8.17v1.16h-.08l-.67-1.16zm-2.12 0h.42l.24.41h-.66zM228 232h3.06v1.17h-.28v-.33H228zm-.76 11.92h.62l.27 1.17H227zm-1.3 9.19h1v1.17h-1zm-.77 8v-1.17h1.07l.41 1.17zm1.83 16.28l-.14.78-.15-.8v-.1h.29zm0-9.06l-.1.58h-.08l-.11-.59-.13-.58h.54zm.56 10.11l.24-1.17h.64l.24 1.17zm1 21.3h1.8v1.17h-2.22zm-1 0l-.18.56-.18-.56zm-3.18 0h1.79l.41 1.17h-2.2zm-3.1 0h1l.67 1.17h-1.69zm.15 9.34v-.23h1a.86.86 0 01.6.16v.07zm1.63-1.14a1.11 1.11 0 01-.5.08h-1.13v-.11h1.67zm1.15 1.14a.88.88 0 00-.08-.26.93.93 0 00-.49-.39 1 1 0 00.59-.49h1.18v1a1.23 1.23 0 000 .19zm4.18-.19a1.23 1.23 0 010 .19h-1.89v-1.19h1.9zm2.05.19h-1v-1.19h1zm-.82-19.08l.24-1.16h.76l.24 1.16zm1.8 18.53v-.63h.37l.37.63zm2 0h-.35l-.36-.63h.71zm0-8h-1.36l.18-.81h1l.14.61zm.62-10.56h-1.82l.33-1.16h.5v.07h1zm1.18 19.09h-.73v-1.17h1.13zm.06-8.17h-.08v-1.17h.48zm.56-67.75h-.71v-.33h-.06V232h.77zm0-5.79h-3.22v-1.16h3.22zm.08 49.91h1.45l-.41 1.16h-1zm.37 31.8l.34-1.17H238l.33 1.17zm2.28-41.34h.74l.17.52v.31h-1.19zm1 9.88h-.67v-.35h.56zm-.74 11.23h.59L239 290h-.5zm.09 10.89h1.5l.29.81h-1.52zm.63 9.34v-1.17h.93l.42 1.17zm1.76-19.06l-.08-.24h.82l.07.24zm1.53 9.78a1.66 1.66 0 000 .22 1.25 1.25 0 00.1.53 2 2 0 00.21.37h-.68zm1.86 9.29h-2.16a3.26 3.26 0 010-.33l.3-.84h1.91zm-1.25-20.23h.55l-.3.88zm1.25 11.72h-.06a1.07 1.07 0 01-.49-.09.63.63 0 01-.28-.61v-.13h.81zm.87-22.13H244l-.34-1v-.21h1.94zm.19-24.17h-1.17a3.51 3.51 0 00.17-1.12v-.05h1zm0 34.58h1V290h-1zm1.9 20.23h-1.56a3.71 3.71 0 00.08-.77v-.4h1.51zm0-8.17h-.86v-1.17h.86zm.12-12h1.95v1.1h-1.95zm2.22 20.18h-1.3v-1.17h1.3zm0-8.37a1.21 1.21 0 01-1-.46 1.62 1.62 0 01-.25-.51h2.49a1.88 1.88 0 01-.26.51 1.23 1.23 0 01-.92.46zm1.62 8.37h-.58v-1.17h.58zm.11-40.17h-.08l-.12-.59-.12-.58h.59l-.14.61zm.43 19.94h.84l.24 1.16H252zm1 20.23h-.47v-1.17h.47zm1.43 0h-.39v-.5h.39zm.17-19.78l.13-.45h1.41V290h-1.54zm1.39 19.78h-.49v-.5h.49zm.64-8.17v-.36h-1.13v-.81h.89a2.4 2.4 0 00.58 1.17zm1-33.17h.44l.24 1.17h-.92zm.47 40.78a1 1 0 01-.36-.29 1.2 1.2 0 01-.16-.32h.52zm1.62-8.27a1.21 1.21 0 01-.8.42 1.42 1.42 0 01-.38-.08.73.73 0 01-.41-.64h-.54a1.36 1.36 0 01-.1-.21h2.39l.07.06a1.74 1.74 0 01-.2.45zm.08-10.57a1.82 1.82 0 01-.31-.83h2.61a1.72 1.72 0 01-.31.83 1.18 1.18 0 01-.28.22h-1.44a1.37 1.37 0 01-.23-.22zm1.94 19.4h-1.46l.09-.08a2.24 2.24 0 00.32-.37h.87v-.72h.8zm.1-8.17h-1.11a1.46 1.46 0 00.32-.89v-.28h1.41zm1.06 8.17l.53-1.17h.62l.56 1.17zm1.24-19.18h-.65v-1h1.21zm2.28 9.84v.81h-.9l-.45-.81zm-.6 9.34l-.3-.55a4.43 4.43 0 00.59.16l.54.12a2.42 2.42 0 01.7.24zm2.36-8.17h-.73v-1.17h.73zm2 8.17h-1v-1.17h1zm0-8.17h-.68v-1.17h.68zm.35-22.47h-1.94v-.8l.2-.37h1.54l.2.37zm-1.62-9.53V268l.13-.25h1.66a1.36 1.36 0 000 .21 3.59 3.59 0 00.13 1zm2.31 30.83h.23v1.17h-.23zm.65 9.34h-.44v-1.17h.77zm.37-19.07h-1v-1.16h1zm-.14-11.7a1.84 1.84 0 01-.34-1h1.92a2.81 2.81 0 00.27 1.13h-1.71c.02-.05-.04-.07-.08-.13zm.82 30.77l.27-1.17h.08v.4a3.71 3.71 0 00.08.77zm.18-8.53v.36h-.14l.27-1.17h.83l.17.81zm1.12-11a1.69 1.69 0 01-.27-.67h.46zm0-20.61h-2.33a2.48 2.48 0 01-.2-1v-.21h2.67a1.33 1.33 0 010 .21 2.31 2.31 0 01-.05.97zm.62-7.83h-1.58V260l.78.19a3.3 3.3 0 01.67.2.44.44 0 01.24.41.49.49 0 01-.02.28zm.23 28.93l.27-1.16h.69l.16.76a1.16 1.16 0 01-.77.4zm1.8 19.07h-1.31l.23-1.17h.87l.24 1a.7.7 0 01.06.14zm-.25-9.34l.19.81h-1.14l.16-.81zm-.52-46.64v.42a1 1 0 00-.23-.27 1.8 1.8 0 00-.31-.15zm.17 24.17v.32a3.08 3.08 0 00.11.85h-1.16a3.18 3.18 0 00.27-1.13zm-.9-23h-.46a1.84 1.84 0 00-.05-.37 1.2 1.2 0 01.3.11.39.39 0 01.3.23zm-.15-21.11h-.28a2.63 2.63 0 010-.3v-.34a2.58 2.58 0 00-.06-.53h.76zm.63-31.88h-.28a1.09 1.09 0 00-.05-.14.91.91 0 00-.49-.4 1 1 0 00.53-.41h.29zm.25 26.09h-.2a3.72 3.72 0 00.11-.85 3 3 0 000-.31h.12zm-1.74-35.74v-1.17h1.83a3 3 0 000 .31 3.76 3.76 0 00.1.86zm3.08-18h-1v-1.17h1.09z"/><path d="M235 185.94c0-23.16-20.87-131.56-25.88-137.11a3.16 3.16 0 00-2.72-.43C176 59.42 143.31 65 116 83.18c-23.5 30.35-34.46 68.24-48.06 103.67-23.59 59.08-28.11 123-26.19 186-.36 11.18.74 97.95 2.77 105.72.3 1.47 62.69 2.66 63.26-.52 1.45-8 2.86-179.6 5.23-190.27 1.35-2.86 13.78-67 15.19-69.81 2.21 47.15-8.87 215.89-1.17 247.91.5 2.06 19 4.34 69 4C199.34 442.16 235 209.11 235 185.94z" fill="#262521" stroke="#262521" stroke-linecap="round" stroke-linejoin="round" stroke-width="3"/><path d="M218.27 315.82c8.78-61 16.77-118.92 16.77-129.88 0-6.33-1.55-19-3.92-34.24" fill="none" stroke="#636363" stroke-linecap="round" stroke-linejoin="round"/><path d="M285.07 466.15c0 .5.05 1 .08 1.49l.6 10.55a1.18 1.18 0 00.05.31.8.8 0 00.07.2.14.14 0 000 .06 1.74 1.74 0 00.11.18l.06.1a1.33 1.33 0 001.19.56l4.35-.49a1.54 1.54 0 001.4-1.93c-.09-.49-.17-1-.26-1.47q-.88-5.21-1.78-10.41a1.52 1.52 0 00-1.49-1.08l-3 .34a1.53 1.53 0 00-1.38 1.59zm2.85 6.58l1.49-.2a1 1 0 011.12.86l.37 2.75a1 1 0 01-.87 1.12l-1.49.2a1 1 0 01-1.12-.86l-.36-2.75a1 1 0 01.86-1.12z" fill="#84837e"/><path d="M457.13 336.13c-2.15-75.82-17.9-126.54-45.71-194-8.83-19.22-14.51-42.62-30.46-57.2-26.38-17.18-57.48-25.13-86.6-35.62-3.68-1.54-22.71 114.63-22.71 140.78s16.23 257.08 21.09 281.49c38.05-.76 85.61-1.68 85.78-2.28 6.89-23.52-11.52-249.35-11.38-249.38.51 7.25 17.36 62 19.83 69 2.65 7.45 8.93 187.71 11.53 191.53 3.78 5.55 60 6 60 .13.03-5.46-.85-125.76-1.37-144.45z" fill="#262521" stroke="#262521" stroke-linecap="round" stroke-linejoin="round" stroke-width="3"/><path d="M275.43 151.06c-2.26 17.06-3.78 31.62-3.78 39 0 8.89 1.87 41.4 4.54 81.42M173.11 61s-20.53 28.45-26.8 37.22c-4.58 6.42 44.51 12.37 72.22 42.39" fill="none" stroke="#636363" stroke-linecap="round" stroke-linejoin="round"/><path d="M201.89 206.26v.5" fill="none" stroke="#8e8e8e" stroke-linecap="round" stroke-linejoin="round" stroke-width="2"/><path d="M202 209.78c1.65 95.24-6.41 237.74-7.48 256.23" fill="none" stroke="#8e8e8e" stroke-linecap="round" stroke-linejoin="round" stroke-width="2" stroke-dasharray="1.01 3.02"/><path d="M194.39 467.52v.49m-2.67-343.17c.11.11.22.24.33.37" fill="none" stroke="#8e8e8e" stroke-linecap="round" stroke-linejoin="round" stroke-width="2"/><path d="M193.61 127.69c2.06 4.24 3.68 11.62 4.93 21.42" fill="none" stroke="#8e8e8e" stroke-linecap="round" stroke-linejoin="round" stroke-width="2" stroke-dasharray="0.98 2.94"/><path d="M198.72 150.58l.06.5" fill="none" stroke="#8e8e8e" stroke-linecap="round" stroke-linejoin="round" stroke-width="2"/><path d="M128.18 218c15.19-69.82-7.73-129.46-7.73-129.46M316 58.06s38.52 39.58 38.9 46.75c0 0-53.54 35.44-54.16 42.32" fill="none" stroke="#636363" stroke-linecap="round" stroke-linejoin="round"/><path d="M331.86 164.72s-40.52 32.95-54.15 111c0 0 5.13 74.57 15.75 191.12" fill="none" stroke="#8e8e8e" stroke-linecap="round" stroke-linejoin="round" stroke-width="2" stroke-dasharray="1 3"/><path d="M378.36 85.12s-13.72 74-9 137.23M397.13 438s30.76 8.08 61.53 0m-413.32 0s30.76 8.08 61.53 0m188.02 8.32s56.33 4.72 84.62-2.73m-187.79 3.55s-26.89 3.39-65.63-1.85" fill="none" stroke="#636363" stroke-linecap="round" stroke-linejoin="round"/><rect x="284.88" y="453.59" width="5.37" height="13.94" rx="1" transform="rotate(-3.45 287.73 460.828)" stroke-width="3" stroke="#262521" stroke-linecap="round" stroke-linejoin="round" fill="#262521"/><path d="M334.68 163.34s-47.08-19.85-55.07-30.52m-51.47 0c-8 10.67-55.75 31.9-55.75 31.9s38.46 28 52.07 107.6" fill="none" stroke="#636363" stroke-linecap="round" stroke-linejoin="round"/><circle cx="319.83" cy="163.34" r="2.42" fill="#636363"/><circle cx="184.69" cy="165.76" r="2.42" fill="#636363"/><circle cx="155.56" cy="97.04" r="2.42" fill="#636363"/><circle cx="345.85" cy="102.09" r="2.42" fill="#636363"/><path d="M157.6 492.11c-1.38-10.74-5.49-38.77-5.49-38.77h-19.49s2.76 28.91 5.91 42.52c1.07 4.61 13.69 13.1 13.69 13.1s5.78-13.82 5.38-16.85zM142 473.54a3.11 3.11 0 113.11 3.11 3.1 3.1 0 01-3.11-3.11zm1.75 11.26a3.1 3.1 0 113.1 3.1 3.1 3.1 0 01-3.09-3.1zm5.33 15.83a3.11 3.11 0 113.1-3.1 3.1 3.1 0 01-3.09 3.1zm213.09-45.42h17.89v41.84h-17.89z" fill="#262521" stroke="#262521" stroke-linecap="round" stroke-linejoin="round" stroke-width="3"/><path fill="none" stroke-dasharray="1 3" stroke-linecap="round" stroke-linejoin="round" stroke-width="2" stroke="#8e8e8e" d="M304.87 286.15l7.52 69.5"/><path d="M303.08 285.92l.06 1.05c.14 2.46.27 4.91.41 7.37a1.7 1.7 0 000 .22.78.78 0 00.05.14l.08.13v.06a.94.94 0 00.83.39l3.05-.35a1.07 1.07 0 001-1.34l-.18-1q-.62-3.64-1.25-7.28a1 1 0 00-1-.75l-2.09.23a1.07 1.07 0 00-.96 1.13zm2 4.6l1-.13a.7.7 0 01.78.6l.25 1.92a.7.7 0 01-.6.78l-1 .14a.7.7 0 01-.78-.6l-.26-1.92a.71.71 0 01.61-.79z" fill="#84837e"/><path fill="none" stroke-dasharray="1 3" stroke-linecap="round" stroke-linejoin="round" stroke-width="2" stroke="#8e8e8e" d="M179.77 286.15l-7.52 69.5"/><path d="M180.55 284.74l-2.1-.24a1.05 1.05 0 00-1 .76c-.42 2.42-.84 4.85-1.25 7.27l-.18 1a1.07 1.07 0 001 1.34l3 .35a1 1 0 00.83-.4v-.06l.08-.13a.66.66 0 00.05-.15.78.78 0 000-.21l.42-7.37c0-.35 0-.7.05-1.05a1.06 1.06 0 00-.9-1.11zm-.38 6.46l-.25 1.93a.71.71 0 01-.79.6l-1-.14a.7.7 0 01-.6-.78l.25-1.92a.71.71 0 01.79-.61l1 .14a.7.7 0 01.6.78z" fill="#84837e"/></svg>