<svg xmlns="http://www.w3.org/2000/svg" width="500" height="550" viewBox="0 0 500 550"><title>s06e13-02</title><path d="M199.74 55.82s69.23 24 97.74-2.18c0 0 .84 51.38-41 54.84s-56.74-52.66-56.74-52.66z" fill="#fff"/><path d="M284.66 53.19c-18.12 10.43-41.21 7.31-61.25 4.88C216 56.81 209.25 54 204 48.4l-.42.07s3.55 36.22 43.55 34.4 44.51-34.4 44.51-34.4a36 36 0 0 1-6.98 4.72z" fill="#fff" stroke="#262521" stroke-linecap="round" stroke-linejoin="round" stroke-width="3.07"/><path d="M291.48 48.63c29.12 10.49 61 14.41 87.44 31.58 15.94 14.59 21.63 38 30.45 57.21 27.81 67.48 58 137.39 51.05 212.08-1.19 18.65-.23 37.45-3.28 55.95-.49 4.66-5.21 7.1-5.56 11.78-1.22 5.28-2.08 10.65-2.91 16-.4 2.6-.41 2.83-3.08 2.33-12.48-2.66-25.26-5.49-37.8-1.58-8.34-.15-8.13-15.56-11.44-21.4-6.28-7.37-3.61-9-5.33-17.64-.9-9.7-4.68-20.27.79-29.26 2-3.53 1.86-7.05.51-10.66-4.9-11.28-7.4-23.41-10.45-35.29-1.07-4.3-1.31-8.49 1.61-12.34 1.51-7.23-10.43-8.68-10.93-15.93l-.41.08q-.27 61.74-.62 123.47c-.81 9-2.68 16.41-3.55 25.44-1 10.07 1.34 17.05-1.5 25.63-.59 1.77-2 1.67-3.35 1.44-44.59-7.74-101.66-5.72-146.65-2.92-24.6.57-58.62-1.68-83 2.09-5.23.59-5.68.27-6.62-4.83-1.35-11.26 1.94-18.53.53-29.31-6.15-46.82-1.39-94.37-3.6-141.53-1.42 2.83-2.94 5.6-4.29 8.46-2.37 10.67-17.5 9.3-11.81 16.18 11.11 7.95 6.41 21.38 5.15 32.56-.25 3.15-1.35 6.27-.37 9.58.51 8.44-3.19 16.94-4.38 25.31-1.5 8-2.61 15.83-1.54 23.93a5.1 5.1 0 0 1-1.13 3.3c-5.71 6.28-7.75 14-9.19 22.06-.57 3.18-.61 3-3.74 2-12.38-3.52-26.09-4.38-38.6-1.18-1.39.34-2.11 0-2.41-1.47-2-7.76-2.18-16.67-8.49-22.43a6.62 6.62 0 0 1-1.33-3.22A144.46 144.46 0 0 1 39 372.86c-1.91-63 2.6-126.93 26.19-186 13.61-35.43 24.56-73.32 48.07-103.67 27.32-18.2 60-23.76 90.46-34.78 0 0 4.7 48.42 44.37 46.6s43.39-46.38 43.39-46.38z" fill="#262521" stroke="#262521" stroke-linecap="round" stroke-linejoin="round" stroke-width="3"/><path d="M51.32 409.51S80 400 96.47 412M402.18 412s25.94-8.31 43.55 0M133.45 438.85s155.28-12.31 227.71 2.37M194.62 56.1c2.77 14.3 15 50.28 52.49 50.23 39.57 0 51.53-38 53.68-50.23" fill="none" stroke="#636363" stroke-linecap="round" stroke-linejoin="round"/><path d="M258 161.7c-10.47 6.07-3.47 11.25-2.32 19.2.24 1.65 3.24-9.3 2.32-18.59" fill="#e2bf7d"/><path d="M222.59 277.82c8.11-21.35 20.07-42.16 20-65.59 1.81-10.4-8.4-26.7-19.18-17a8.54 8.54 0 0 0 1.58 2.23s-2.29 9.17-1.63 13.22 1.27 17.19 1.27 17.19a6.57 6.57 0 0 0-4-1.91c7.93 6.64-6 20.37 0 31.14a37 37 0 0 0 1.96 20.72zm2.4-80.41s-2.29 9.17-1.63 13.22m6-4c1.16 8.86 2.61.6 4.26 2.4 2.08 3.14-3.36 5.47-1.7 11.87 0 0-4-7.81-5.66-10.37s3.12-3.95 3.12-3.95z" fill="#b1846d"/><path d="M225 197.41c.55-.27-4.71 12.73 1.28 13.06-1.63-2.55 3.11-3.89 3.11-3.89a15.31 15.31 0 0 0 .74 3.48 3.28 3.28 0 0 1 1.35.21c1.66-2.94 3.37-.87 2.38 1.55 2.7 1.57 6.39.74 8.73-1.18 1.37-10.09-9.23-24.7-19.17-15.46a8.54 8.54 0 0 0 1.58 2.23z" fill="#7c503f"/><path d="M273.57 192.16a33 33 0 0 1 0-9.17 14.6 14.6 0 0 0-4 11.27s-3-7.39-4.88-12.26c-2 .06-3.83-1.6-4.85-3.28-.94 8.3.33 18.54.33 18.54-10.35-8.51-15.27-8.59-12.08-25.88 1.41-10.34-9.54-6.06-2.67-20.53a11.84 11.84 0 0 0-4.69 12.32c-9.79 5.42-4.63 17.12-8.76 17.89-1.16-.92-3.94-3-3.82-4.23s-1.77-5.4 0-6.6c0 0-3.76-2.41-5.9 7.94 1.52 8 7.2 15.22 4.91 23.73 2.34-.22 5.55-.06 6 2.77 10.86-1.8 3.54 11.92 1.16 16.67-.36 3.65-3.9 10.56-7.25 5-.46 5.73.32 11.43-2.47 16.76-1.36 8.86 2.63 16.44-4.52 24.25 4 35.76 48.51 38.16 51.72 5.5 0-5.11 1.34-14.48-.9-19.24s-2.55-18.31-1.2-20.87c-2.65-20.64 9.7-11.81 3.87-40.58z" fill="#d89e5b"/><path d="M233.39 179.7a10.19 10.19 0 0 0 1.33 3 17.65 17.65 0 0 0 4-18.16c-4.21 3.78-4.22 6.84-5.33 15.16zM238 196.46c-2.14 4.75-2.32 12.74 5 8.65 5.92-1 7.07 7.24 12.36 8 6.28 2.75 7.07-4.48 9.06-8.55 5.88-7.58 4.87-14.24-4.93-17 .12 5.3.66 9.63.66 9.63-.65-.88-12.94-8.84-12.55-12.46-1.29 1.08-8.1 8.57-9.6 11.73zM265.89 279.16c-.23 1.77-.2 4.63 2.23 4.57 4.91-9 5.13-21.53 2.77-30.15-2.24-4.77-2.55-18.31-1.2-20.87 0 0-1.08-8 .8-13.24-5.34-10.82-13 9.35-13.87 14.28-1.72 5.95 4.2 10.09 6.57 14.89 3.51 9.53 3.26 20.46 2.7 30.52zM237 239.65a9.35 9.35 0 0 0-5.83-5.12c-1.8 1.33-2.21 4.35-1.33 6.36 1.73 4-.61 7.76-1.08 11.68 2.1 8.74 9-1.68 8.4-6.14.06-2.2.71-4.61-.16-6.78z" fill="#7c503f"/><path d="M239.5 246.05a1.5 1.5 0 0 1-.06.29c.85 8.67-11.07 18.83-13 5.74 3.82-9.93-1.27-10.54 1.61-17.35 3.73-7.53 14.27 3.7 11.45 11.32z" fill="#7c503f"/><path d="M256.94 165.92c-6 4.3-1 9.86-1.29 15 .24 1.65 3.79-5.87 1.29-15" fill="#c65a4f"/><path d="M245.15 206.61c4.78 17.39-6.42 34.64 6.21 51.16-.45-3.68-4.2-8.79 0-11.52a1.19 1.19 0 0 1 1.61.42c4.67 9 5.47 18.48 1.31 27.69-4 3.69-.59-7.37-.9-10.88s-3.71-6-5.85-3 1.67 14.42.06 20.38c0 1.49 1.6 1.86 2.29 3 .85 1.44.47 3.17 1 4.71a2.9 2.9 0 0 1 5.52.75c2.71-.9 6-14.87 8.28-7.8 3.35-5.7 1.8-12.41.87-18.5-.23 3.05-3.39 6.23-4.79 1.88-.51-3.31.32-6.71.15-10.06.57-5.64-2.55-11.25-6.43-15-.82 1.15.09 3.53-1.52 4a1.19 1.19 0 0 1-2 0c-5.29-11 7.62-20.84 10.31-31.05 2.48-5.13-.14-11.52 3.07-16.23 4.34-4.21-5.23-14.43-3.92-21.6-2 8.55-.29 22.24-.29 22.24s-6.43-4.92-9.93-8.15c-2.43 4.22.81 14.92-3.82 16.62-2.28-.58-3.15-2.91-3.52-5-.18 2.38.14 4.71 2.29 5.94zM228.12 176.83a8.27 8.27 0 0 0-.34-1.93 21.54 21.54 0 0 0 1 18.41c-.32-4.93-1.17-9.84.33-14.67a2.87 2.87 0 0 1-.99-1.81zM238 165.29c1.33 7.75.44 14.85-4.37 21.14-.16.39-.88 1.84-.5 2.22 9.48-3.64 11-16.57 6.32-24.66a15.15 15.15 0 0 0-1.45 1.3z" fill="#c65a4f"/><path d="M241.93 183.73c.84 7.45-8.65 12.21-7.94 18.83 8 6.53 1.76 7.95.06 14.91 1.16 4.67-2.93 23.13-9.89 15.58.75 3.76 3.94 7 2.73 11-.4 2.69-4.62 7.93-.4 9.14 7.51-.33 4.47-8.59 4-13.33 0-3.73 2.46-6.86 2.86-10.53-.27-3.6 1.42-6 2.58-9.1 0-1.52.11-3.63 2.12-3.68 3.15.34 3.4 4.49 4.54 6.77 1.39-4.46.7-9 1.09-13.52.4-2.12-2.18-2.37-2.58-4.25-2.36-5.42 2.14-20.9 3.91-6.43.15 1.06.31 2.84 1.15 3.77 1.19-5.17-.08-10.72 2.2-15.73-.65-.93-.65-1.81-.88-3.64a16.85 16.85 0 0 1-3.53-4.77 18.81 18.81 0 0 1-2 4.85s-.02.09-.02.13zM244 283.22c-1.08 3.88-5.78 5.8-6.51.62.14-2.61-.89-1.26-2.53-1.69-6.21-2.67 3-12.67.81-17.93-3 1.29-7.52 1.69-6.43-3 .77-2.25 3-3.49 4.43-5.29a49.32 49.32 0 0 1 3.91-7c.7-2.36 4.72-1.26 5.85.39 3 4.11-.41 9-.68 13.37-.57 6.91 3.99 13.77 1.15 20.53zM271.25 199.75c3.83 10-3.77 17.65-6.9 26.37-.69 5.49-2.17 14.27 2.82 18 3-14.25-3-22.76 7.86-36.43.25-8.57-2.8-19.63-1.46-24.67-3.77 3.09-2.97 11.98-2.32 16.73z" fill="#c65a4f"/><path d="M241.66 161.21c3.81 4.67 2.12 11.56 5.64 16.19 0-3.58 1.12-6 .83-9.17-1.74-7-8.51-4.72-2.74-17.38a12.07 12.07 0 0 0-4.9 8c.36.8.76 1.59 1.17 2.36z" fill="#eddf7a"/><path d="M234 180.91a12.4 12.4 0 0 0-.28-2.43c-.55 2.26-1.3 3.58-2.91 1.71a11.81 11.81 0 0 0-.69 11.9c1.42 3.72-.61 8.19 1.28 11.66 1.64-4.45.05-9.41.87-14 .54-3 1.84-5.75 1.73-8.84zM237.44 190.41c.4-1.48-1-2.79-1.88-3.91a19.11 19.11 0 0 0-1.09 7.26c1.13-.91 2.53-1.94 2.97-3.35z" fill="#e2bf7d"/><path d="M253.43 195.53c.5 4.58-.48 9.81 1.88 13.94 2.76-4 2.22-9.58 2.22-14.24-1.34-1.06-3-2.4-4.57-3.72a33.9 33.9 0 0 1 .47 4.02z" fill="#eddf7a"/><path d="M226.93 194.41c1-2.25-.29-4.83-1.05-7a35 35 0 0 1 0-17.06c-6 4.24-5 24.45-1.34 26.48a5.93 5.93 0 0 0 2.39-2.42z" fill="#eacea2"/><path d="M272.52 216.25a6.36 6.36 0 0 0 1.68-2.82c-.6.92-1.2 1.85-1.68 2.82z" fill="#954a46" opacity=".31"/><path d="M270.75 276.39c-.43 2-7.09 13.84-8.54 8.35.35-3.05 2.09-6.14 1.15-9.23-3.75 7.33-5.84 19.88-17 16.83-11.44-1.22-12-9.06-17.31-17.43-1.05-6.06 5.4-12.58 1.18-18.46-34.11 14.58 28.67 70.6 41.44 17.38-.26.86-.57 1.71-.92 2.56z" fill="#d6c669"/><path d="M244.77 229.52c2.56-4.41 3.66-9.2 2-14.2-.36 3.68-4.09 13.43-7.8 6.75.41 8.45 2.92 18.24-5 24.08 4.19 4.65 6.12 11.12 7.85 17 1.35-3.09.13-11.92 6-8.56-4.35-7.44-4.6-16.78-3.05-25.07z" fill="#e2bf7d"/><path d="M264.18 218.22c2.11-3.22 2.78-15 4.55-16.08a50.77 50.77 0 0 1 2.43 5.45c.67-8.85-4.46-20.69-7.58-28.41-2.11 3.14 8.47 24.09 2.59 20.83-.47 17.5-19.07 32.38-14 45.15.13-22.14 8.29 2.8 10.66 9.54 1.24 1.84.4 4.88 1 7.1 5.44-23.37-15.69-16.46.35-43.58z" fill="#eddf7a"/><path d="M248.62 205.74c.66-3.83-.43-7.74-1.78-11.42-.54 4.83-2.21 9.85.12 14.36a3.59 3.59 0 0 0 1.66-2.94z" fill="#e2bf7d"/><path d="M195.57 253.48s4.18 10.36 4.31 18 1.89 8.36 1.89 8.36a9 9 0 0 0 0 5.39c.94 2.7 2.56 6.74 1.75 12.53s-.27 15.37 5.12 18.06 14.69-4.72 17.65-7.68 11.32-5.93 14.56-9.84S250 287.61 250 285c0 0 2.56-4.81 0-4.95s-6.74 7.55-7.95 8.49-12.67 8.36-14.42 8-2.15-2.3-.27-3.91 12-9.17 14.29-12.4 5.12-8.36 4.71-10.24-2.42-3.64-5.52-.14-17.65 16.58-19.68 17 .81-2.83 3.24-5.12 17.38-14.28 19-17-.67-5.79-4-4.72-11.32 7.55-14.42 9.84-8.22 7.82-9.71 7.55 1.89-6.6 5.39-10 10.11-7.68 13.08-10.11 1.75-5.66-1.08-5.66-12.4 3.77-17.52 7.95-5.8 9.84-7.14 9.57-1.08-6.2-1.49-8.76-6.63-14.85-10.94-6.91z" fill="#b5726b"/><path d="M221.17 287.48c.2-.32.4-.64.57-1-.72.46-1.67.39-1.06-.61-1.86 1.18-1.32 4.44.49 1.61z" fill="#efc6bb"/><path d="M226.19 294.28c-1.08.86-2.21 1.33-1.81 2.49s1.85.14 2.75-.5a1.66 1.66 0 0 1-.93-2z" fill="#e0cb4f"/><path d="M197.49 253.33c1.64.43 3.27.73 4.58 1.92 1.79 1.64 2.55 4.2 2.94 6.51s.47 5.11 1.76 7.28c.53.9 1.65 1.63 2.63.85.81-.65.71-1.95 1.61-2.62a3.06 3.06 0 0 1 2.78-.36 3.21 3.21 0 0 0 2.67-.83c1.88-1.46 3.1-3.59 4.95-5.09 1.1-.89 2.27-1.68 3.42-2.5s2.06-1.82 3.12-2.75a13.8 13.8 0 0 1 3.11-1.75c.48-.26 1.12-.92.79-1.47a2.13 2.13 0 0 0-.89-.7 47.37 47.37 0 0 0-15.85 7.71c-5.12 4.18-5.8 9.84-7.14 9.57s-1.08-6.2-1.49-8.76-6.13-13.85-10.4-7.68a2.49 2.49 0 0 0 1.41.67zM219.48 274.51a10.09 10.09 0 0 1 2.11.28c.77.2 1.47.58 2.22.85a4.15 4.15 0 0 1 .69.19s.07-.07.07-.06.17-.28.26-.42c.27-.45.52-.92.8-1.37a11.08 11.08 0 0 1 2.44-2.76 34.87 34.87 0 0 1 6.39-3.53c2.09-1.06 4.23-2.28 4.66-4.77a17.06 17.06 0 0 0 .16-2.95c-3.41 1.15-11.26 7.53-14.33 9.8-1.56 1.15-3.61 3.11-5.47 4.74zM241.23 269.94a199.29 199.29 0 0 1-15.64 14.18v.45c-.19 1.51.91 1.68 2.16 2.33.75.39 2.07 1 2.8.29a11.07 11.07 0 0 0 1.48-2.65 13.55 13.55 0 0 1 2.75-3.38 30.37 30.37 0 0 1 6.27-4.48c.81-.44 1.77-1 1.74-2 0-.86-.5-1.54 0-2.39a6.37 6.37 0 0 1 2.69-2.17c.28-.15.57-.28.87-.41-.54-1.81-2.14-3.14-5.12.23z" fill="#e5a898"/><path d="M201.77 285.27l.15.44c.49-2.3 2.66-3.84 2.92-6.22a2.54 2.54 0 0 0 0-.78 4.82 4.82 0 0 0-3.07 6.56zM204 292.57l-.12.25a1.8 1.8 0 0 1 .1.4v-.12a3.89 3.89 0 0 0 .51 1.63.11.11 0 0 1 .07 0h.14a6.1 6.1 0 0 0 1.63-1.41c.8-1.41 2.55-3.42 1.49-5h-.07c-.8.15-2.18 1.87-2.25 2a16.43 16.43 0 0 0-1.5 2.25zM217.62 295.72c-.47-.9-1.51.06-2.19 0-6.07 7.5 1.27 6.15 2.19 0z" fill="#e2a48f"/><path d="M242.06 288.5c-.16.13-.52.38-1 .72a15.38 15.38 0 0 1-2.45 4.51c-.55.73-1.54 1.72-1.69 2.66 0 .17.13.43-.05.36.3.12.89-.22 1.13-.34 2.17-1.1 2.91-3.41 4.28-5.25a5.61 5.61 0 0 1 2.83-2.25 7.28 7.28 0 0 0 1.85-.53 2.91 2.91 0 0 0 1-1.51 22.54 22.54 0 0 0 1.24-6.66c-2.57 1.18-6.05 7.45-7.14 8.29z" fill="#e5a898"/><path d="M215 263.7a5.62 5.62 0 0 1-3.49-.1q-.3.45-.57.9a7.4 7.4 0 0 0 .17.94 4.64 4.64 0 0 0 .64 1.45 3.58 3.58 0 0 1 2 0 3.21 3.21 0 0 0 2.67-.83 21.85 21.85 0 0 0 3-3.1q.24-.44.45-.87a12.19 12.19 0 0 0-1.57.44c-1.09.4-2.17.88-3.3 1.17zM221.86 255.33c.22.07.44.15.67.21 1.31.37 2.87.68 4-.22a5.21 5.21 0 0 0 1.56-2.65 54.08 54.08 0 0 0-6.23 2.66zM224.81 272.13a2.68 2.68 0 0 0-1.56.17 2.6 2.6 0 0 0-.84 1.2 8 8 0 0 0-.46 1.41c.63.21 1.23.5 1.86.73a4.15 4.15 0 0 1 .69.19s.07-.07.07-.06.17-.28.26-.42c.27-.45.52-.92.8-1.37a11.63 11.63 0 0 1 1.67-2.08 12.21 12.21 0 0 1-2.49.23zM238.56 261.86c.09-.51.14-1.09.19-1.68a39.36 39.36 0 0 0-6.41 4l.7.16c1.25.29 2.81.65 4 .05a3 3 0 0 0 1.52-2.53zM238.78 277.26c-.12.33-.22.66-.32 1a28.25 28.25 0 0 1 2.58-1.58c.79-.43 1.73-.95 1.73-1.95-1.77.09-3.31.59-3.99 2.53zM230.92 284.58a17 17 0 0 0-3.23 1.67l-.49.34c.17.11.35.21.54.31.75.39 2.07 1 2.8.29a11.07 11.07 0 0 0 1.48-2.65c.08-.14.18-.28.26-.42-.45.15-.91.29-1.36.46z" fill="#efc6bb"/><path d="M213.79 278.42a20 20 0 0 0 1.11-1.9 3.83 3.83 0 0 1 .08-.42 3.46 3.46 0 0 0-.31.22l-.15.12a9.19 9.19 0 0 0-1.16 1.09s-.17.24-.06.07 0 0 0 .05a1.5 1.5 0 0 0-.15.23c-.06.09-.11.19-.17.29a3.18 3.18 0 0 0-.09.33v.26c0 .16.1.32.15.48.13-.13.27-.25.39-.39s.09-.13.15-.19l-.05.06v-.05z" fill="#e2a48f"/><path d="M243.61 270.58c.12-.11.24-.22.37-.32l-.16.12a3.86 3.86 0 0 1 .83-.49l-.18.08h.06a.62.62 0 0 0 .25-.14.48.48 0 0 0 .19-.21.74.74 0 0 0 .08-.58.78.78 0 0 0-.35-.45l-.17-.07a.68.68 0 0 0-.4 0 4.52 4.52 0 0 0-.85.43 4.6 4.6 0 0 0-.73.59.77.77 0 0 0-.22.53.73.73 0 0 0 .22.53.75.75 0 0 0 1.06 0zM248.37 283.41a5.17 5.17 0 0 1 .82-.8l-.15.12.41-.29a.8.8 0 0 0 .35-.44.75.75 0 0 0-1.11-.85 5.63 5.63 0 0 0-1.38 1.2.55.55 0 0 0-.15.24.57.57 0 0 0-.07.29.81.81 0 0 0 .22.53.77.77 0 0 0 .53.22.73.73 0 0 0 .53-.22z" fill="#ead7d6"/><path d="M279.76 254.63a130.6 130.6 0 0 0-9.19-9.38c-3.58-3.07-6.69-6-7.78-5.41s-4.2 3-1.71 6.54 11.67 13.7 14 16.5-.31 8.09-1.56 11.52-2 9.18 3.74 13.23 11.36 9.65 16 6.22 6.54-10.43 3.27-15.09-4.05-7.17-2.18-9.66 5.6-8.25 5.6-10.42v-3.58s3-3.27 2-6.7-.16-18.21-1.72-20.7a57 57 0 0 0-3.73-5.14s1.4-4.51-3.27-4.67a31.15 31.15 0 0 0-7.47-4.82s-6.47-4.43-7.09.39c0 0-4.12-3.5-6.45-.7s-1.09 3.73 2.17 7.47 12.77 15.56 12.3 19.46c0 0-10-8.88-16.19-11.37s-8.25-.62-7.93 2.18 3.19 3.72 7.58 5.48 11.06 10.83 10.95 12.3 1.32 6.11-1.34 6.35z" fill="#e2a48f"/><path d="M278.82 262.19a10.39 10.39 0 0 0 8.7-.56c2.64-1.44 4.57-4 6.13-6.5s2.92-5.36 4.41-8c1.13-2 2.7-4.15 3.41-6.44-.14-5.31-.21-11.44-1.17-13-.37-.6-.78-1.21-1.19-1.79l-.69.6a6.36 6.36 0 0 1-3.25 1.74 3.39 3.39 0 0 1-1.9-.51c.06.44.11.88.21 1.3a6.22 6.22 0 0 1-.36 4.66 10 10 0 0 1-1.41 2 4.71 4.71 0 0 0-.86 1.55c-.51 1.28-1.3 2.15-2.8 2a4.86 4.86 0 0 1-1.31-.34 3 3 0 0 1 0 .79L286 239a11.46 11.46 0 0 0 .71 1.11 8.49 8.49 0 0 1 1.67 3.29c.53 2.78-1.74 4.53-4.08 5.38h-.06a5.47 5.47 0 0 1-3 1.16c.21 1.92.43 4.48-1.52 4.66 0 0-.55-.62-1.42-1.57v.06a9.5 9.5 0 0 1-.83 2.7 10.3 10.3 0 0 1-2.74 3.53 18.12 18.12 0 0 0 4.09 2.87z" fill="#efc6bb"/><path d="M300.92 230a3 3 0 0 1-.47.32c-2.64 1.43-4.94-2.44-5.86-4.31a31.61 31.61 0 0 0-2.09-4.1 10.35 10.35 0 0 0-2.67-2.61c-3.52-2.47-7.91-3.87-10.59-7.21a3.2 3.2 0 0 0-.5 1.42s-.14-.12-.39-.3l.57.69a26.69 26.69 0 0 0 3.17 3.12c2.33 2 4.71 4 6.89 6.22a34.6 34.6 0 0 1 5.09 7.1c.62 1 1.44 2.11 1.34 3.38a8.3 8.3 0 0 1-1.36 3 1.19 1.19 0 0 1-2 0 50.19 50.19 0 0 1-2.2-5.25 19 19 0 0 0-2.83-4.61A26.52 26.52 0 0 0 281 221c-1.66-1-3.48-1.82-5.21-2.73a22.58 22.58 0 0 1-4.74-3.15c-.07 1.39 2.18 3.18 4.36 5.66 3 3.44 10.66 12.52 11.24 17.84l1.66 2.46c.83 1.21 1.66 2.7 1.15 4.22-1.13 3.33-5.47.88-7.08-.57-2.38-2.15-4-5-6.24-7.27-1.1-1.14.42-5.63-.91-4.76-2.21 1.45-5.91.93-7.53.67a23 23 0 0 1-4.43-1.1c1.14 1.54 3.94 1.9 7.25 3.23 4.39 1.76 10.87 11.29 10.75 12.75-.09 1.2 1.51 4.39-1.55 6.39.34 1 .54 3.61-1.74 3.8-1.36.11-.56-1.48-1.36-2.57s-6.34-6.49-8-7.05c-1.52-.5-3.83.44-5.21-.36a16.06 16.06 0 0 1-1.66-1.12c3.18 4.16 11.78 13.55 13.93 16.14 2.34 2.8-.93 7.5-2.18 10.93s-2 9.18 3.74 13.23 11.36 9.65 16 6.22 6.12-9.52 2.85-14.19-3.48-8.77-1.33-11c3.19-3.34 4.78-7.79 4.78-10v-3.57s3.35-3.27 2.42-6.7c-.72-2.84-.32-13.47-1.04-18.4z" fill="#b5726b"/><path d="M284.19 257.35a3.9 3.9 0 0 0 .51-3.68 8.31 8.31 0 0 0-3.29-4.46c.25 1.41.35 3.84-1.65 5.42 1.41 4.16 3.77 3.55 4.43 2.72z" fill="#e0cb4f"/><path d="M261 243.26c.69.48 1.38 1 2.08 1.43a3 3 0 0 0 .78.45c.74.22 1.35-.39 1.67-1a.75.75 0 0 0-1.3-.76 2.38 2.38 0 0 0-.18.3c.06-.08.07-.09 0 0a.46.46 0 0 1-.07.07c-.09.1.13-.07 0 0q.17-.06.06 0h.06a.59.59 0 0 1 .31.09l-.09-.05c-.24-.14-.47-.3-.7-.45l-1.88-1.3a.75.75 0 0 0-1 .27.77.77 0 0 0 .27 1zM263.37 229.61a7.42 7.42 0 0 0 2.29 1.34 5.08 5.08 0 0 0 .85.31.9.9 0 0 0 .83-.22 2.53 2.53 0 0 0 .34-.45c.26-.37.49-.76.72-1.15a.75.75 0 1 0-1.29-.76c-.24.4-.48.79-.74 1.17a.83.83 0 0 1-.08.12c-.1.15.1-.11 0 0s0 0-.05.05a.7.7 0 0 1 .49-.2c.3 0 .15 0 0 0l-.22-.07-.27-.11c-.05 0-.22-.11 0 0l-.16-.07c-.23-.1-.45-.21-.67-.33a6 6 0 0 1-.65-.37l-.27-.19c.2.13.05 0 0 0l-.09-.09a.75.75 0 1 0-1.07 1.06zM277.4 214.38a3.7 3.7 0 0 1-.21.33c-.06.08.11-.13 0 0l-.06.08-.13.14-.15.14c-.05 0-.24.16 0 0-.11.07-.22.15-.33.21l-.17.09c-.06 0-.27.1-.05 0l-.37.12h-.64a.76.76 0 0 0-.75.75.77.77 0 0 0 .75.75 3.93 3.93 0 0 0 3.43-2 .77.77 0 0 0-.27-1 .78.78 0 0 0-1 .27zM283.47 213.36l.1.53a.56.56 0 0 0 .14.25.51.51 0 0 0 .21.2.71.71 0 0 0 .28.09.61.61 0 0 0 .3 0l.18-.07a.87.87 0 0 0 .27-.27l.07-.18a.68.68 0 0 0 0-.4l-.11-.53a.64.64 0 0 0-.13-.26.55.55 0 0 0-.21-.19.71.71 0 0 0-.28-.09.61.61 0 0 0-.3 0l-.18.08a.87.87 0 0 0-.27.27l-.07.18a.68.68 0 0 0 0 .4z" fill="#937e7c"/><path d="M264.86 227.68v.1c0 .1-.08.16 0 .09a.39.39 0 0 1-.18.18h.06-.07.08c.14 0-.18 0 0 0a1.59 1.59 0 0 1 .38 0h.13c-.1 0-.1 0 0 0h.22a11.76 11.76 0 0 1 1.84.45.76.76 0 0 0 .93-.53.77.77 0 0 0-.53-.92 13.3 13.3 0 0 0-2.41-.53 2.08 2.08 0 0 0-1 0 1.09 1.09 0 0 0-.81 1.07.77.77 0 0 0 .75.75.76.76 0 0 0 .75-.75zM263 239.3l-1.63 1.35a.76.76 0 0 0 .16 1.18 13.19 13.19 0 0 1 2.31 1.38.76.76 0 0 0 1-.27.79.79 0 0 0 .08-.58.91.91 0 0 0-.35-.45 11.92 11.92 0 0 0-2.31-1.37l.16 1.17 1.62-1.35a.75.75 0 0 0 0-1.06.76.76 0 0 0-1.06 0zM274.11 211.5a14.65 14.65 0 0 0-1.31 1.19c-.18.18-.36.36-.53.56a1 1 0 0 0-.37 1 2 2 0 0 0 .63.75c.2.19.41.36.62.54a.87.87 0 0 0 .53.22.77.77 0 0 0 .53-.22.75.75 0 0 0 0-1.06c-.22-.19-.45-.38-.66-.58l-.27-.26-.08-.08a.77.77 0 0 1 .08.85c.08-.14-.13.16-.05.06l.11-.13.29-.31a15.47 15.47 0 0 1 1.52-1.4.75.75 0 0 0 .22-.53.75.75 0 0 0-.75-.75.87.87 0 0 0-.53.22zM280.42 212.25h.52-.2a5.07 5.07 0 0 1 1.32.36l-.17-.08c.21.09.41.2.61.31a.75.75 0 1 0 .76-1.29 6 6 0 0 0-2.84-.82.75.75 0 0 0 0 1.5z" fill="#ead7d6"/><path d="M240.62 249.21s1.36-7.37 2.15-6.59 5.08 6.48 2.9 6.59-.51-7.89-5.05 0zM232.11 183s-4.29.56-3.32 2.4 2.17 8.12 2.6 4.74.72-7.14.72-7.14zM265.54 190.53s2.83 9.19 2.22 12.59 2.97-5.99-2.22-12.59zM262.37 250.85s.39 10.47-.59 12.31 3.71-4.6.59-12.31z" fill="#ffec7b"/><g opacity=".5" fill="#fff"><path d="M208.18 212.78a.75.75 0 0 0 0-1.5.75.75 0 0 0 0 1.5zM214.26 239.63a.75.75 0 0 0 0-1.5.75.75 0 0 0 0 1.5zM207.32 239.08a.75.75 0 0 0 0-1.5.75.75 0 0 0 0 1.5zM207.32 248.8a.75.75 0 0 0 0-1.5.75.75 0 0 0 0 1.5zM216.21 249.91a.75.75 0 0 0 0-1.5.75.75 0 0 0 0 1.5zM196.21 238.8a.75.75 0 0 0 0-1.5.75.75 0 0 0 0 1.5zM215.65 226.58a.75.75 0 0 0 0-1.5.75.75 0 0 0 0 1.5zM219.54 218a.75.75 0 0 0 0-1.5.75.75 0 0 0 0 1.5zM207.88 203a.75.75 0 0 0 0-1.5.75.75 0 0 0 0 1.5zM251.2 185.75a.75.75 0 0 0 0-1.5.75.75 0 0 0 0 1.5zM266.2 171.86a.75.75 0 0 0 0-1.5.75.75 0 0 0 0 1.5zM260.93 157.42a.75.75 0 0 0 0-1.5.75.75 0 0 0 0 1.5zM275.65 166.86a.75.75 0 0 0 0-1.5.75.75 0 0 0 0 1.5zM280.37 183.53a.75.75 0 0 0 0-1.5.75.75 0 0 0 0 1.5zM277.59 192.42a.75.75 0 0 0 0-1.5.75.75 0 0 0 0 1.5zM287.59 196.3a.75.75 0 0 0 0-1.5.75.75 0 0 0 0 1.5zM283.42 203a.75.75 0 0 0 0-1.5.75.75 0 0 0 0 1.5zM291.48 203.25a.75.75 0 0 0 0-1.5.75.75 0 0 0 0 1.5zM287.59 204.08a.75.75 0 0 0 0-1.5.75.75 0 0 0 0 1.5zM295.64 212.13a.75.75 0 0 0 0-1.5.75.75 0 0 0 0 1.5zM252.28 306.66a.75.75 0 0 0 0-1.5.75.75 0 0 0 0 1.5zM261 299.48a.75.75 0 0 0 0-1.5.75.75 0 0 0 0 1.5zM269.76 307.28a.75.75 0 0 0 0-1.5.75.75 0 0 0 0 1.5zM271 295.73a.75.75 0 0 0 0-1.5.75.75 0 0 0 0 1.5zM217 206.72a.38.38 0 0 0 0-.75.38.38 0 0 0 0 .75zM214.33 214.59a.38.38 0 0 0 0-.75.38.38 0 0 0 0 .75zM214.58 209.94a.38.38 0 0 0 0-.75.38.38 0 0 0 0 .75zM211.52 209.57a.38.38 0 0 0 0-.75.38.38 0 0 0 0 .75zM211.15 217.89a.38.38 0 0 0 0-.75.38.38 0 0 0 0 .75zM214.58 219.36a.38.38 0 0 0 0-.75.38.38 0 0 0 0 .75zM218.49 215a.38.38 0 0 0 0-.75.38.38 0 0 0 0 .75zM220.69 210.92a.38.38 0 0 0 0-.75.38.38 0 0 0 0 .75zM221.18 221a.38.38 0 0 0 0-.75.38.38 0 0 0 0 .75zM218.49 230.74a.38.38 0 0 0 0-.75.38.38 0 0 0 0 .75zM212.86 232.21a.38.38 0 0 0 0-.75.38.38 0 0 0 0 .75zM211.52 236.74a.38.38 0 0 0 0-.75.38.38 0 0 0 0 .75zM210.9 242.36a.38.38 0 0 0 0-.75.38.38 0 0 0 0 .75zM203.32 245.42a.38.38 0 0 0 0-.75.38.38 0 0 0 0 .75zM203.93 235.76a.38.38 0 0 0 0-.75.38.38 0 0 0 0 .75zM206.74 228.29a.38.38 0 0 0 0-.75.38.38 0 0 0 0 .75zM199.89 226.21a.38.38 0 0 0 0-.75.38.38 0 0 0 0 .75zM196.46 248a.38.38 0 0 0 0-.75.38.38 0 0 0 0 .75zM210.41 256.44a.38.38 0 0 0 0-.75.38.38 0 0 0 0 .75zM214.7 256.07a.38.38 0 0 0 0-.75.38.38 0 0 0 0 .75zM218.25 242.36a.38.38 0 0 0 0-.75.38.38 0 0 0 0 .75zM219.35 235.88a.38.38 0 0 0 0-.75.38.38 0 0 0 0 .75zM255.81 187.79a.38.38 0 0 0 0-.75.38.38 0 0 0 0 .75zM253.37 182.16a.38.38 0 0 0 0-.75.38.38 0 0 0 0 .75zM253.49 177.75a.38.38 0 0 0 0-.75.38.38 0 0 0 0 .75zM250.92 179.59a.38.38 0 0 0 0-.75.38.38 0 0 0 0 .75zM258.14 183.5a.38.38 0 0 0 0-.75.38.38 0 0 0 0 .75zM262.55 170.53a.38.38 0 0 0 0-.75.38.38 0 0 0 0 .75zM261.08 168a.38.38 0 0 0 0-.75.38.38 0 0 0 0 .75zM263.28 163.68a.38.38 0 0 0 0-.75.38.38 0 0 0 0 .75zM267.44 167.11a.38.38 0 0 0 0-.75.38.38 0 0 0 0 .75zM269.64 164.29a.38.38 0 0 0 0-.75.38.38 0 0 0 0 .75zM266.34 160.13a.38.38 0 0 0 0-.75.38.38 0 0 0 0 .75zM254.71 159a.38.38 0 0 0 0-.75.38.38 0 0 0 0 .75zM253.37 156.34a.38.38 0 0 0 0-.75.38.38 0 0 0 0 .75zM252 161.84a.38.38 0 0 0 0-.75.38.38 0 0 0 0 .75zM270.25 170.29a.38.38 0 0 0 0-.75.38.38 0 0 0 0 .75zM273.8 152.91a.38.38 0 0 0 0-.75.38.38 0 0 0 0 .75zM269.15 181.06a.38.38 0 0 0 0-.75.38.38 0 0 0 0 .75zM274.42 177.75a.38.38 0 0 0 0-.75.38.38 0 0 0 0 .75zM277.11 184.12a.38.38 0 0 0 0-.75.38.38 0 0 0 0 .75zM275.64 186.93a.38.38 0 0 0 0-.75.38.38 0 0 0 0 .75zM280.29 187.54a.38.38 0 0 0 0-.75.38.38 0 0 0 0 .75zM278.45 196.11a.38.38 0 0 0 0-.75.38.38 0 0 0 0 .75zM284.21 196.11a.38.38 0 0 0 0-.75.38.38 0 0 0 0 .75zM276.37 201.13a.38.38 0 0 0 0-.75.38.38 0 0 0 0 .75zM279.43 200.76a.38.38 0 0 0 0-.75.38.38 0 0 0 0 .75zM278.33 206.26a.38.38 0 0 0 0-.75.38.38 0 0 0 0 .75zM284.94 206.88a.38.38 0 0 0 0-.75.38.38 0 0 0 0 .75zM285.67 210.92a.38.38 0 0 0 0-.75.38.38 0 0 0 0 .75zM290.81 209.2a.38.38 0 0 0 0-.75.38.38 0 0 0 0 .75zM291.79 197.7a.38.38 0 0 0 0-.75.38.38 0 0 0 0 .75zM295.34 204.43a.38.38 0 0 0 0-.75.38.38 0 0 0 0 .75zM292.53 215a.38.38 0 0 0 0-.75.38.38 0 0 0 0 .75zM296.69 194.39a.38.38 0 0 0 0-.75.38.38 0 0 0 0 .75zM289.34 183a.38.38 0 0 0 0-.75.38.38 0 0 0 0 .75zM292.65 175.43a.38.38 0 0 0 0-.75.38.38 0 0 0 0 .75zM265.12 295.11a.38.38 0 0 0 0-.75.38.38 0 0 0 0 .75zM270.62 288.5a.38.38 0 0 0 0-.75.38.38 0 0 0 0 .75zM275.39 293a.38.38 0 0 0 0-.75.38.38 0 0 0 0 .75zM275.39 301.59a.38.38 0 0 0 0-.75.38.38 0 0 0 0 .75zM268.79 299.63a.38.38 0 0 0 0-.75.38.38 0 0 0 0 .75zM264.26 306.12a.38.38 0 0 0 0-.75.38.38 0 0 0 0 .75zM256.3 298a.38.38 0 0 0 0-.75.38.38 0 0 0 0 .75zM244.56 302.33a.38.38 0 0 0 0-.75.38.38 0 0 0 0 .75zM243.58 311.5a.38.38 0 0 0 0-.75.38.38 0 0 0 0 .75zM256.55 311.38a.38.38 0 0 0 0-.75.38.38 0 0 0 0 .75zM256.67 305.63a.38.38 0 0 0 0-.75.38.38 0 0 0 0 .75zM276.5 308.2a.38.38 0 0 0 0-.75.38.38 0 0 0 0 .75z"/></g></svg>