<svg xmlns="http://www.w3.org/2000/svg" width="500" height="550" viewBox="0 0 500 550"><path d="M338.1 58.43c-5.35-3.37-4.85-8.67-6.86-12.68s-8.35 1-8.35 1-6.52-9.52-10.7-14.76-55.67 1.23-55.67 1.23h-6c-10.95-1.37-57.91-4.79-63.07 2.29-5.85 8-7.19 8-7.19 8s-4.85-4.85-8.69 0-21.02 17.49-17.68 23.8S192 84.87 192 84.87l58 23.79S345 72 346.29 67.82s-2.84-6.02-8.19-9.39z" fill="#262521" stroke="#262521" stroke-linecap="round" stroke-linejoin="round" stroke-width="3"/><path d="M372.14 291.55q-.27 61.74-.62 123.47c-.81 9-2.68 16.41-3.55 25.44-1 10.07 1.34 17.05-1.5 25.63-.59 1.77-2 1.67-3.35 1.44-44.59-7.74-101.66-5.72-146.65-2.92-24.6.57-58.62-1.68-83 2.08-5.23.6-5.68.28-6.62-4.82-1.35-11.26 1.94-18.53.53-29.31-6.15-46.82-1.39-94.37-3.6-141.53-1.42 2.83-2.94 5.6-4.29 8.46-2.37 10.67-17.5 9.3-11.81 16.18 11.11 7.95 6.41 21.38 5.15 32.56-.25 3.15-1.35 6.27-.37 9.58.51 8.44-3.19 16.94-4.38 25.31-1.5 8-2.61 15.83-1.54 23.93a5.1 5.1 0 01-1.13 3.3c-5.71 6.28-7.75 14-9.19 22.06-.57 3.18-.61 3-3.74 2-12.38-3.52-26.09-4.38-38.6-1.18-1.39.34-2.11 0-2.41-1.47-2-7.76-2.18-16.67-8.49-22.43a6.62 6.62 0 01-1.33-3.22A144.46 144.46 0 0139 372.86c-1.91-63 2.6-126.93 26.19-186 13.61-35.43 24.56-73.32 48.07-103.67 27.32-18.2 60-23.76 90.46-34.78.8-.26 84.13-1.31 87.8.23 29.12 10.49 61 14.41 87.44 31.58 15.94 14.59 21.63 38 30.45 57.21 27.81 67.48 58 137.39 51.05 212.07-1.19 18.66-.23 37.46-3.28 56-.49 4.66-5.21 7.09-5.56 11.78-1.22 5.28-2.08 10.65-2.91 16-.4 2.6-.41 2.83-3.08 2.33-12.48-2.66-25.26-5.49-37.8-1.58-8.34-.15-8.13-15.56-11.44-21.4-6.28-7.37-3.61-9-5.33-17.64-.9-9.7-4.68-20.27.79-29.26 2-3.53 1.86-7.05.51-10.66-4.9-11.28-7.4-23.42-10.45-35.29-1.07-4.3-1.31-8.5 1.61-12.34 1.51-7.23-10.43-8.68-10.93-15.93z" fill="#262521" stroke="#262521" stroke-linecap="round" stroke-linejoin="round" stroke-width="3"/><path d="M305.06 164.55c2.71-3.5 7.1-2.37 11.06-2.65 6.28.09 16.72-2.3 19.53 4.92 3.47 9.21-5.76 9.41-2.43 13.4 3.55 3.77 1 9.81 5.7 12.76 1.24.68.53 2.16-.56 3a8.69 8.69 0 01-14-5.48c-.48-2.83-.29-7.22-3.79-8-1.69-.14-1.59 1.6-1.65 2.87-.14 2.43-.67 5.25 1 7.27 5.61 7-11.71 5.89-15.24 5-2-.33-4 .24-6 .42q-10.67.09-21.34.11a18.63 18.63 0 01-3.59-.15c-2.11-.42-3-3.1-1.19-4.14 5.88-3.68 4.41-15.31 5.67-21.55.36-1.9-1.49-3.56-2.73-4.65-3.76.73-8.4 14.48-11 18.32-1.93 3.44-3.22 7.45-6.11 10.22-2.8 2.46-6.31 1.72-7.52-1.79-1.66-4.83-3-9.77-4.44-14.68-1.68-3.48-.88-10.61-5.61-11.25 5.08 18-14.9 37.16-31.71 26.21-1.42-.89-2.35-1.25-3.3.39-1.32 2.32-3.26 2.66-5.88 2.56-6.78-.24-13.58 0-20.37.05a6.43 6.43 0 01-5-1.52c-1.54-2.53 4-4.56 4.05-7.39 1-5.5 1.65-11.06 2.4-16.6a3.49 3.49 0 00-1.91-3.76c-2.11-1.28-2-3.47.38-4.35 3.46-1.42 17-3.5 18 1.28-.51 1.84-4 3.81-4.3 5.81-.77 5.85-1.18 11.76-1.66 17.65.23 5.05 8.33 2.38 10.39-.56 2.59-2.8 3.19-6 4.09-9.31 2.73-13.73 20.74-23.26 32.12-13 .34.3.76.52.89.11a17.39 17.39 0 0117.82-3.06c5.16 2.54-2.1 4.37-.7 7.76.77 3 1.47 6 2.31 9 .56 1.38 1.81 2 2.65.24 1.37-3.23 2.76-6.46 3.86-9.78.53-2.89-4.25-6.23.67-7.57s10.16-.36 15.21-.52c6.39-.06 12.78-.38 19.16-.22 1.55.14 3.08 1.6 5.07 2.63zm.52 26c.58-.91 1.07-1.33 1.12-1.8.64-5.94 1.27-11.87 1.78-17.82.13-1.49-.33-3.08-2.17-3.18s-1 1.79-1.54 2.67-1.37 2.31-2.22 2.43a4.91 4.91 0 01-3.82-2.41 5.83 5.83 0 00-6.56-2.26c-3.44.84-2.83 6.17-1.62 8.5 1.35-1 3.15-3.66 4.37-4.11 4.61 1.32 2.4 7.8 2.57 11.39-.18 1.82-1.15 3.67-3.4 3.75-2.83 0-1.49-3.44-3.63-4.61-.48.45-1.33.86-1.38 1.35 0 2.72-1.35 6.92 2.28 7.77 3.61.65 6-1.15 7.95-4.09a4.71 4.71 0 013.46-1.77c1.23.5 2.15 2.64 2.81 4.23zm-87.14-2.82c1 6.06 5 2.51 7 .33 2.29-4.23 5.68-18.27.13-20-1.92-.29-4.26 1.77-5.1 4.93-1.02 3.74-2.4 13.8-2.03 14.78zm101.44-15.52c-.22 1.8-.05 5.83 2.62 3.79 2-1.83 2.94-8.95-1.05-8.89-1.7.83-1.54 5.14-1.57 5.14z" fill="#9b2727"/><path d="M305.06 164.55c2.71-3.5 7.1-2.37 11.06-2.65 6.28.09 16.72-2.3 19.53 4.92 3.47 9.21-5.76 9.41-2.43 13.4 3.55 3.77 1 9.81 5.7 12.76 1.24.68.53 2.16-.56 3a8.69 8.69 0 01-14-5.48c-.48-2.83-.29-7.22-3.79-8-1.69-.14-1.59 1.6-1.65 2.87-.14 2.43-.67 5.25 1 7.27 5.61 7-11.71 5.89-15.24 5-2-.33-4 .24-6 .42q-10.67.09-21.34.11a18.63 18.63 0 01-3.59-.15c-2.11-.42-3-3.1-1.19-4.14 5.88-3.68 4.41-15.31 5.67-21.55.36-1.9-1.49-3.56-2.73-4.65-3.76.73-8.4 14.48-11 18.32-1.93 3.44-3.22 7.45-6.11 10.22-2.8 2.46-6.31 1.72-7.52-1.79-1.66-4.83-3-9.77-4.44-14.68-1.68-3.48-.88-10.61-5.61-11.25 5.08 18-14.9 37.16-31.71 26.21-1.42-.89-2.35-1.25-3.3.39-1.32 2.32-3.26 2.66-5.88 2.56-6.78-.24-13.58 0-20.37.05a6.43 6.43 0 01-5-1.52c-1.54-2.53 4-4.56 4.05-7.39 1-5.5 1.65-11.06 2.4-16.6a3.49 3.49 0 00-1.91-3.76c-2.11-1.28-2-3.47.38-4.35 3.46-1.42 17-3.5 18 1.28-.51 1.84-4 3.81-4.3 5.81-.77 5.85-1.18 11.76-1.66 17.65.23 5.05 8.33 2.38 10.39-.56 2.59-2.8 3.19-6 4.09-9.31 2.73-13.73 20.74-23.26 32.12-13 .34.3.76.52.89.11a17.39 17.39 0 0117.82-3.06c5.16 2.54-2.1 4.37-.7 7.76.77 3 1.47 6 2.31 9 .56 1.38 1.81 2 2.65.24 1.37-3.23 2.76-6.46 3.86-9.78.53-2.89-4.25-6.23.67-7.57s10.16-.36 15.21-.52c6.39-.06 12.78-.38 19.16-.22 1.55.14 3.08 1.6 5.07 2.63zm.52 26c.58-.91 1.07-1.33 1.12-1.8.64-5.94 1.27-11.87 1.78-17.82.13-1.49-.33-3.08-2.17-3.18s-1 1.79-1.54 2.67-1.37 2.31-2.22 2.43a4.91 4.91 0 01-3.82-2.41 5.83 5.83 0 00-6.56-2.26c-3.44.84-2.83 6.17-1.62 8.5 1.35-1 3.15-3.66 4.37-4.11 4.61 1.32 2.4 7.8 2.57 11.39-.18 1.82-1.15 3.67-3.4 3.75-2.83 0-1.49-3.44-3.63-4.61-.48.45-1.33.86-1.38 1.35 0 2.72-1.35 6.92 2.28 7.77 3.61.65 6-1.15 7.95-4.09a4.71 4.71 0 013.46-1.77c1.23.5 2.15 2.64 2.81 4.23zm-87.14-2.82c1 6.06 5 2.51 7 .33 2.29-4.23 5.68-18.27.13-20-1.92-.29-4.26 1.77-5.1 4.93-1.02 3.74-2.4 13.8-2.03 14.78zm101.44-15.52c-.22 1.8-.05 5.83 2.62 3.79 2-1.83 2.94-8.95-1.05-8.89-1.7.83-1.54 5.14-1.57 5.14z" fill="none" stroke="#d11919" stroke-miterlimit="10" stroke-width="2"/><path d="M184.12 168.31a1.13 1.13 0 000-2.25 1.13 1.13 0 000 2.25zM190.27 194.15a1.13 1.13 0 000-2.25 1.13 1.13 0 000 2.25zM192.46 194.62a1.13 1.13 0 000-2.25 1.13 1.13 0 000 2.25zM187.66 196.29a1.13 1.13 0 000-2.25 1.13 1.13 0 000 2.25zM186.36 191.76a1.13 1.13 0 000-2.25 1.13 1.13 0 000 2.25zM195.05 196.29a1.13 1.13 0 000-2.25 1.13 1.13 0 000 2.25zM197.91 194.81a1.13 1.13 0 000-2.25 1.13 1.13 0 000 2.25zM200.68 196.19a1.13 1.13 0 000-2.25 1.13 1.13 0 000 2.25zM205.46 190.24a1.13 1.13 0 000-2.25 1.13 1.13 0 000 2.25zM215 195.5a1.13 1.13 0 000-2.25 1.13 1.13 0 000 2.25zM216.72 191.93a1.13 1.13 0 000-2.25 1.13 1.13 0 000 2.25zM218.41 194.19a1.13 1.13 0 000-2.25 1.13 1.13 0 000 2.25zM231.73 168.66a1.13 1.13 0 000-2.25 1.13 1.13 0 000 2.25zM234.74 167.34a1.13 1.13 0 000-2.25 1.13 1.13 0 000 2.25zM237.18 169.6a1.13 1.13 0 000-2.25 1.13 1.13 0 000 2.25z" fill="#fff"/><path d="M233.61 169.78a1.13 1.13 0 000-2.25 1.13 1.13 0 000 2.25zM234.74 173.16a1.13 1.13 0 000-2.25 1.13 1.13 0 000 2.25zM231 172a1.13 1.13 0 000-2.25 1.13 1.13 0 000 2.25zM253.7 167a1.13 1.13 0 000-2.25 1.13 1.13 0 000 2.25z" fill="#fff"/><path d="M255.57 166.4a1.13 1.13 0 000-2.25 1.13 1.13 0 000 2.25zM254.45 179.92a1.13 1.13 0 000-2.25 1.13 1.13 0 000 2.25zM256.89 181.23a1.13 1.13 0 000-2.25 1.13 1.13 0 000 2.25zM254.64 182.36a1.13 1.13 0 000-2.25 1.13 1.13 0 000 2.25zM259 184.61a1.13 1.13 0 000-2.25 1.13 1.13 0 000 2.25zM256.32 186.86a1.13 1.13 0 000-2.25 1.13 1.13 0 000 2.25zM254.45 185.36a1.13 1.13 0 000-2.25 1.13 1.13 0 000 2.25zM275.66 165.09a1.13 1.13 0 000-2.25 1.13 1.13 0 000 2.25zM278.66 167.16a1.13 1.13 0 000-2.25 1.13 1.13 0 000 2.25zM285.42 184.42a1.13 1.13 0 000-2.25 1.13 1.13 0 000 2.25zM288.8 181.05a1.13 1.13 0 000-2.25 1.13 1.13 0 000 2.25zM292.74 181.8a1.13 1.13 0 000-2.25 1.13 1.13 0 000 2.25zM285.23 179a1.13 1.13 0 000-2.25 1.13 1.13 0 000 2.25zM297.06 166.22a1.13 1.13 0 000-2.25 1.13 1.13 0 000 2.25zM300.62 166.4a1.13 1.13 0 000-2.25 1.13 1.13 0 000 2.25zM300.81 169.78a1.13 1.13 0 000-2.25 1.13 1.13 0 000 2.25zM322.77 165.09a1.13 1.13 0 000-2.25 1.13 1.13 0 000 2.25zM326.34 165.09a1.13 1.13 0 000-2.25 1.13 1.13 0 000 2.25zM326.34 167.91a1.13 1.13 0 000-2.25 1.13 1.13 0 000 2.25zM315.08 179a1.13 1.13 0 000-2.25 1.13 1.13 0 000 2.25zM317.52 180.67a1.13 1.13 0 000-2.25 1.13 1.13 0 000 2.25zM314.7 184.42a1.13 1.13 0 000-2.25 1.13 1.13 0 000 2.25z" fill="#fff"/><path d="M191.2 167.16a1.13 1.13 0 000-2.25 1.13 1.13 0 000 2.25zM189.33 169.78a1.13 1.13 0 000-2.25 1.13 1.13 0 000 2.25zM190.71 172a1.13 1.13 0 000-2.25 1.13 1.13 0 000 2.25zM186.68 174.7a1.13 1.13 0 000-2.25 1.13 1.13 0 000 2.25zM189.14 177.16a1.13 1.13 0 000-2.25 1.13 1.13 0 000 2.25zM189.63 179.91a1.13 1.13 0 000-2.25 1.13 1.13 0 000 2.25zM187.56 181.88a1.13 1.13 0 000-2.25 1.13 1.13 0 000 2.25zM189.33 185.52a1.13 1.13 0 000-2.25 1.13 1.13 0 000 2.25zM213.33 173.62a1.13 1.13 0 000-2.25 1.13 1.13 0 000 2.25zM210.38 176.57a1.13 1.13 0 000-2.25 1.13 1.13 0 000 2.25zM211 179.52a1.13 1.13 0 000-2.25 1.13 1.13 0 000 2.25zM208.51 182.27a1.13 1.13 0 000-2.25 1.13 1.13 0 000 2.25zM210.38 186.6a1.13 1.13 0 000-2.25 1.13 1.13 0 000 2.25zM215 188a1.13 1.13 0 000-2.25 1.13 1.13 0 000 2.25zM213.53 182.57a1.13 1.13 0 000-2.25 1.13 1.13 0 000 2.25zM216.67 180.5a1.13 1.13 0 000-2.25 1.13 1.13 0 000 2.25zM215.79 176.57a1.13 1.13 0 000-2.25 1.13 1.13 0 000 2.25zM233.29 184.73a1.13 1.13 0 000-2.25 1.13 1.13 0 000 2.25zM230.44 188.27a1.13 1.13 0 000-2.25 1.13 1.13 0 000 2.25zM230.44 191.12a1.13 1.13 0 000-2.25 1.13 1.13 0 000 2.25zM233.59 189.25a1.13 1.13 0 000-2.25 1.13 1.13 0 000 2.25zM230.15 182.76a1.13 1.13 0 000-2.25 1.13 1.13 0 000 2.25zM225.72 193a1.13 1.13 0 000-2.25 1.13 1.13 0 000 2.25zM246.87 168.21a1.13 1.13 0 000-2.25 1.13 1.13 0 000 2.25zM251.29 169.88a1.13 1.13 0 000-2.25 1.13 1.13 0 000 2.25zM247.26 174.11a1.13 1.13 0 000-2.25 1.13 1.13 0 000 2.25zM249.13 176.47a1.13 1.13 0 000-2.25 1.13 1.13 0 000 2.25zM250.7 185.12a1.13 1.13 0 000-2.25 1.13 1.13 0 000 2.25zM253.65 188.17a1.13 1.13 0 000-2.25 1.13 1.13 0 000 2.25zM252.57 191.81a1.13 1.13 0 000-2.25 1.13 1.13 0 000 2.25zM254.24 194a1.13 1.13 0 000-2.25 1.13 1.13 0 000 2.25zM260.44 188.27a1.13 1.13 0 000-2.25 1.13 1.13 0 000 2.25zM263.88 183.16a1.13 1.13 0 000-2.25 1.13 1.13 0 000 2.25zM268.89 166.93a1.13 1.13 0 000-2.25 1.13 1.13 0 000 2.25zM286.4 168a1.13 1.13 0 000-2.25 1.13 1.13 0 000 2.25zM283.25 169.68a1.13 1.13 0 000-2.25 1.13 1.13 0 000 2.25zM285.12 172.83a1.13 1.13 0 000-2.25 1.13 1.13 0 000 2.25zM281 182.86a1.13 1.13 0 000-2.25 1.13 1.13 0 000 2.25zM280.6 192.79a1.13 1.13 0 000-2.25 1.13 1.13 0 000 2.25zM276.47 196.53a1.13 1.13 0 000-2.25 1.13 1.13 0 000 2.25zM281.19 196.43a1.13 1.13 0 000-2.25 1.13 1.13 0 000 2.25zM278 193.38a1.13 1.13 0 000-2.25 1.13 1.13 0 000 2.25zM279.71 188.47a1.13 1.13 0 000-2.25 1.13 1.13 0 000 2.25zM299.09 195.25a1.13 1.13 0 000-2.25 1.13 1.13 0 000 2.25zM300.76 192.7a1.13 1.13 0 000-2.25 1.13 1.13 0 000 2.25zM303 195.74a1.13 1.13 0 000-2.25 1.13 1.13 0 000 2.25zM311.58 193.38a1.13 1.13 0 000-2.25 1.13 1.13 0 000 2.25z" fill="#491212"/><path d="M312 195.55a1.13 1.13 0 000-2.25 1.13 1.13 0 000 2.25zM315.51 195.65a1.13 1.13 0 000-2.25 1.13 1.13 0 000 2.25zM315.51 190.53a1.13 1.13 0 000-2.25 1.13 1.13 0 000 2.25zM311 188.07a1.13 1.13 0 000-2.25 1.13 1.13 0 000 2.25zM312.36 168.9a1.13 1.13 0 000-2.25 1.13 1.13 0 000 2.25zM316.49 166a1.13 1.13 0 000-2.25 1.13 1.13 0 000 2.25zM316.49 170.08a1.13 1.13 0 000-2.25 1.13 1.13 0 000 2.25zM328.2 176.47a1.13 1.13 0 000-2.25 1.13 1.13 0 000 2.25zM330.26 172a1.13 1.13 0 000-2.25 1.13 1.13 0 000 2.25zM332.62 173.81a1.13 1.13 0 000-2.25 1.13 1.13 0 000 2.25zM332.62 170.67a1.13 1.13 0 000-2.25 1.13 1.13 0 000 2.25zM331.44 183.65a1.13 1.13 0 000-2.25 1.13 1.13 0 000 2.25zM328.39 185.42a1.13 1.13 0 000-2.25 1.13 1.13 0 000 2.25zM331.93 189.84a1.13 1.13 0 000-2.25 1.13 1.13 0 000 2.25zM332 193.68a1.13 1.13 0 000-2.25 1.13 1.13 0 000 2.25zM335.08 194.07a1.13 1.13 0 000-2.25 1.13 1.13 0 000 2.25z" fill="#491212"/><path d="M243.77 92.41c-77.51-40.94-51.11-43.56-36.17-46.34 16.21-3 67.31-4.92 82.68-2.58 16.47 2.51 47.9 7.88-29.18 48.92" fill="none" stroke="#636363" stroke-linecap="round" stroke-linejoin="round" opacity=".95"/><path d="M156.08 68.23C169.14 73.61 245 110 253.3 110s49.3-28.65 88.06-44" fill="none" stroke="#636363" stroke-linecap="round" stroke-linejoin="round" opacity=".95"/><path d="M267.3 95.56c1.21 17.16 2 34.35 2.57 51.54.6 16.92 1.08 33.84 1.82 50.76q.66 14.88 1.64 29.76c.13 1.92 3.13 1.93 3 0-1.16-17.26-1.89-34.55-2.49-51.84-.59-16.9-1.08-33.79-1.85-50.68q-.67-14.77-1.69-29.54c-.13-1.92-3.14-1.93-3 0zM235.67 97.15c1.17 16.71 2 33.45 2.37 50.19.34 16.06.24 32.13-.21 48.18q-.42 14.5-1.16 29c-.1 1.93 2.9 1.92 3 0 .84-16.74 1.42-33.48 1.55-50.23q.18-24.09-.88-48.17-.63-14.5-1.67-29c-.14-1.91-3.14-1.93-3 0z" fill="#636363"/><path fill="none" stroke="#a5a5a5" stroke-linecap="round" stroke-linejoin="round" stroke-width="3" d="M274.83 227.62l-.56-10.12M238.17 224.53l.47-10.59"/><path d="M51.32 409.51S80 400 96.47 412M402.18 412s25.94-8.31 43.55 0M133.45 438.85s155.28-12.31 227.71 2.37" fill="none" stroke="#636363" stroke-linecap="round" stroke-linejoin="round"/></svg>