<svg xmlns="http://www.w3.org/2000/svg" width="500" height="550" viewBox="0 0 500 550"><title>s06e06-02</title><line x1="371.12" y1="496.3" x2="371.12" y2="503.71" fill="none" stroke="#84837e" stroke-linecap="round" stroke-miterlimit="10" stroke-width="3"/><rect x="358.83" y="494.86" width="24.57" height="15.18" rx="3" fill="none" stroke="#84837e" stroke-miterlimit="10" stroke-width="3"/><path d="M316,56.92s-22.8-23.49-42.58-23.49H223.72c-19.78,0-48.84,25.75-48.84,25.75l30.7,29.34h85.94Z" fill="#262521" stroke="#262521" stroke-linecap="round" stroke-linejoin="round" stroke-width="3"/><path d="M297,49.28s-21.71,9.9-47.18,9.9-40.17-9.9-40.17-9.9L190.39,76.17l34.3,71L301,129.66l2.38-44.54Z" fill="#e5e5e5"/><path d="M297,49.28S279.89,58,252.23,59.1s-42.59-9.82-42.59-9.82" fill="none" stroke="#262521" stroke-linecap="round" stroke-linejoin="round" stroke-width="3"/><path d="M209.64,49.28s4,48.55,43.68,46.73S297,49.28,297,49.28l73.16,29.47s-1.73,406.89-5,409.08-151.4,0-167-3.28-53.14,5-57.87,4.16-5.46-15.4-3.64-23,1.36-386.92,1.36-386.92Z" fill="#fff" stroke="#262521" stroke-linecap="round" stroke-linejoin="round" stroke-width="3"/><path d="M340.43,154.25v.59h-1v-.59h-1v.5l-.18-.5h-1.19l-.21.59h-.08l-.34-.59h-3.32a3.18,3.18,0,0,0-1.93,0H329.8v.59h-1.37v-.59h-1v.59h-.45v-.59h-1a2.39,2.39,0,0,0-.82-.14,2.72,2.72,0,0,0-.91.14h-1.5v.59h-.37v-.59h-1v.11a2.44,2.44,0,0,0-.7-.11H319a2.85,2.85,0,0,0-1-.15,2.76,2.76,0,0,0-1,.15h-1.09a3.18,3.18,0,0,0-1.93,0h-6.57a2.85,2.85,0,0,0-1-.15,2.78,2.78,0,0,0-.51,0,1.46,1.46,0,0,0-.22,0,2.11,2.11,0,0,0-1.46.44,1.65,1.65,0,0,0-.19.27v-.57h-1.05v.59h-.28c-.07-.07-.12-.16-.2-.23a2.35,2.35,0,0,0-1.54-.49,2.64,2.64,0,0,0-.81.13h-5.41v.59h-.53v1.33h-.88v-1.33h0v-.59H289.6a2.85,2.85,0,0,0-1-.15,2.76,2.76,0,0,0-1,.15h0v0l-.22.11a2.24,2.24,0,0,0-1.08-.27,2.76,2.76,0,0,0-.91.14h-.8l-.16.36a2.24,2.24,0,0,0-1.56-.51,2.85,2.85,0,0,0-1,.15h-.6l.14.26a1,1,0,0,0-.22.18s-.09.1-.14.15h-.55v-.59h-5.69v.59h-1.26v-.59h-1v.18l-.12-.07,0-.11h-.31a3.24,3.24,0,0,0-.73-.09,2.34,2.34,0,0,0-.77.13l0,0h-1.1v.59h-1v-.59h-1a3.22,3.22,0,0,0-.72-.09,2.68,2.68,0,0,0-.65.09h-1.67v.59h-1s0,0,0-.05a1.54,1.54,0,0,0-1.3-.54h-2.67v.59h-.43a1.05,1.05,0,0,1-.07-.11,1.26,1.26,0,0,0-.47-.35,2.14,2.14,0,0,0-.72-.12h-2.47v.42a1.65,1.65,0,0,0-1.19-.42h-1.08a2.86,2.86,0,0,0-1-.15,2.48,2.48,0,0,0-1.18.26v-.11h-5.3V155l-.25-.72h-1.19l-1.55,4.35-3.73,0v-1.18l1.68-3.14H239.4l-1,2.19-1-2.19h-1.24l1.74,3.14v1.17l-2.21,0v-.48a1.65,1.65,0,0,0-.15-.79.93.93,0,0,0-.49-.39,1,1,0,0,0,.59-.49,1.53,1.53,0,0,0,.18-.71,1.45,1.45,0,0,0-.34-1,1.35,1.35,0,0,0-.47-.35,2.27,2.27,0,0,0-.79-.13h-2.41v4.26l-2.14,0v-3.35h1.51v-.89h-4.07v.89h1.51v3.34l-47.65-.4v6.51h10.81v1.17H180.93v6.66h42.24v1.17H180.93v7.68h20.5v1.17h-20.5v8h42.43v1.17H180.93v8.7h32.42v1.17H180.93v8H221.1v1.16H180.93V218h32.39v1.16H180.93v7h37.45v1.16H180.93V232h41v1.17h-41v10.75h34.13v1.17H180.93v8h41v1.17h-41v5.64H221.1v1.17H180.93v6.66h44.62l.33,1.17H180.93v8.36h44.75l.33,1.17H180.93v10.41h47l.34,1.16H180.93v9.73H220.3v1.17H180.93v7H220.4v1.17H180.93v5.32H341.66v-5.32h-36v-1.17h36v-7H305.52v-1.17h36.14V290H303.72v-.11h-1.2l-.3-1h39.44V278.44H301.77v-1.11h2.44v-.06h37.45v-8.36H306.38v-.64h2.44v-.53h32.84v-6.66h-21.2v-1.17h21.2v-5.64H320.91V253.1h20.75v-8H318.53v-1.17h23.13V233.16H306a4,4,0,0,0,.07-.74V232h35.59v-4.62H303.6v-1.16h38.06v-7H302.22V218h39.44v-7.35h-32v-1.16h32v-8H306.79v-1.17h34.87v-8.7H308.58v-1.17h33.08v-8H308.58v-1.17h33.08v-7.68H310.57v-1.17h31.09v-6.66H312.37v-1.17h29.29v-5.31h3.07v-5Zm3.33,3.51-.39-.68h.39Zm0-2.62v1.07h-.89l-.6-1.07Zm-42.12,55.55v-1.16h.83a1.16,1.16,0,0,0,.12.43.9.9,0,0,0,.49.4,1.08,1.08,0,0,0-.47.33Zm10.8,33.22v1.17h-1.89v-1.17Zm4.24,16s0,0-.05.07a1.49,1.49,0,0,0-.18.7,1.29,1.29,0,0,0,.07.4h-1.08v-1.17Zm-13.78,48,.67,1.17h-1v-1.17Zm-1.35,1.17h-.92l-.33-1.17h1.25Zm-75.05,0c0-.07,0-.12,0-.19v-1h1.9v1a1.23,1.23,0,0,1,0,.19Zm-2.29,0a.88.88,0,0,0-.08-.26.93.93,0,0,0-.49-.39,1,1,0,0,0,.59-.49,0,0,0,0,0,0,0h1.18v1a1.23,1.23,0,0,0,0,.19Zm.17-9.34h1.79l.41,1.17h-2.2Zm-1,.25-.14-.25h.14Zm1.77-38.91v-1.17h1.07l.41,1.17Zm-6-17.17h1.48l.41,1.17h-1.89Zm-1,1.14-.65-1.14h.65Zm-1-43.55a1.28,1.28,0,0,0-.11-.36.94.94,0,0,0-.5-.4,1,1,0,0,0,.53-.41h1.26v.87c0,.12,0,.2,0,.3Zm2.24-.3v-.87h1.9v.87a2.51,2.51,0,0,1,0,.3h-1.86C219.45,201.41,219.43,201.32,219.43,201.2Zm7.66-9.91a.89.89,0,0,0-.5-.4,1,1,0,0,0,.55-.43h1.24v.89a2.46,2.46,0,0,0,0,.28h-1.2A1.13,1.13,0,0,0,227.09,191.29Zm-19.46-8.85a1.89,1.89,0,0,1-.11-.73v-.44h1.89v.44a1.72,1.72,0,0,1-.11.73Zm2.85-.73v-.44h1v1.17h-1.05A3.91,3.91,0,0,0,210.48,181.71Zm2-.44h.68l.67,1.17h-1.35Zm1.63,0h.49v.86Zm1.47,0h4v1.17h-4Zm5.07,0h1.81a3.47,3.47,0,0,0,.24,1.17h-2Zm-6.78-15.51a3.29,3.29,0,0,1-.07-.57,2.64,2.64,0,0,1,.08-.6h2.57a2.64,2.64,0,0,1,.08.6,3.29,3.29,0,0,1-.07.57Zm-9.21,0-.66-1.17h.91v1.17Zm-9.15,0s0,0,0-.06a.92.92,0,0,0-.5-.39,1,1,0,0,0,.6-.49,2.18,2.18,0,0,0,.09-.23h1.1v1.17Zm2.34,0v-1.17h1.9v1.17Zm3-1.17h1v1.17h-1Zm2,0H203l.67,1.17h-.93Zm3.09,0h4v1.17h-4Zm5.08,0h1.85a3.73,3.73,0,0,0-.05.6,5.1,5.1,0,0,0,0,.57h-1.84Zm6.57,0h3.88v1.17H217.5a3.45,3.45,0,0,0,.05-.57A3.73,3.73,0,0,0,217.5,164.59Zm97.33-9.45v3.36a1.25,1.25,0,0,1-.85-.43,1.72,1.72,0,0,1-.21-.43v-1.77a1.83,1.83,0,0,1,.21-.42,1.27,1.27,0,0,1,.39-.31Zm-2.38.07a.6.6,0,0,1,.27.47v0a2.65,2.65,0,0,0-.11.52.41.41,0,0,1-.17.15,1.11,1.11,0,0,1-.5.08h-.1v-1.33h.35A1.05,1.05,0,0,1,312.45,155.21Zm-10.31,26.54h-1.29l.16-.48h1Zm1.16,9.88-.41-1.17h1.62v1.17Zm7.57,62.64V253.1h1v1.17Zm-4.55,6.81v-1.17h0v1.17Zm-7.14,47.85h-1l.2-1h.45Zm-23.37.15.23-1.17h.87l.24,1a.7.7,0,0,1,0,.14Zm-33.27,0a3.26,3.26,0,0,1,0-.33l.3-.84h1.91v1.17Zm-13.3-40.76-.13-.58h.57l-.14.61-.11.56h-.08Zm-1.7-7.77h1.29l-.18.53h-.94Zm3.62-.64v1.17h-1.48l.42-1.17Zm-5.06-14.83v-1.17h.4l-.26,1.17Zm1.9-12.25V232h3.06v1.17h-.28v-.33Zm-5.45-32.5h.84v1.17h-.84Zm6.89-9v-.89h1.9v.89a2.3,2.3,0,0,1,0,.28h-1.86A2.3,2.3,0,0,1,229.44,191.35Zm-3.26-25.89v.3h-.59v-.3Zm79.29,8.13a.93.93,0,0,1,0-.24.58.58,0,0,1,.3-.57,1.26,1.26,0,0,1,.5-.08h.27v.89Zm-7,37.1-.15-.24v-.55a3.7,3.7,0,0,1,0-.37h.24v1.16Zm8.32,42.41v1.17h-4V253.1Zm1.46,0,.66,1.17h-1.14V253.1Zm-24.11,55.44h-1.09v-.63h1.09Zm-48.92-7.63v-1.17h.48l-.4,1.17Zm-1.78,7v.63h-.35l-.36-.63Zm-.14-8.17.14.61v.2h-1.36l.18-.81Zm-4.43-99.41-.23.69-.22-.69Zm1,0h1.59v1.17h-2Zm-.45-18.62v-.44h1.63v1.17h-1.51A1.69,1.69,0,0,1,229.44,181.71Zm3.71-16h-1c0-.07,0-.17.08-.25h.8Zm1.52-1.17-.29.89v-.89Zm70.1,7.93,0-.1h.2Zm-9.95,38.17-.67-1.16h1.15v1.16Zm5.41,49.9v.49h-1.09a3,3,0,0,0,.3-1.17h.69A1.74,1.74,0,0,1,300.23,260.59Zm-7.84,40.32v-1.17h.29v1.17Zm-7.56,0h-.26v-.36h-.44a2.24,2.24,0,0,0,.31-.81h1l.28.81h-.9Zm-51.2-41,.27,1.17h-.63l.27-1.17Zm3.33,0,.66,1.17h-1.4v-1.17Zm-6.9-33.29h-.66v-.41h.42Zm-5.59,0v-.37h.42v.37ZM226,218h1v1.16h-1.29l.05-.06A2.56,2.56,0,0,0,226,218Zm-.29-8.51.67,1.16h-1v-1.16Zm20.09-44.34v-.05h1.76v.26a1.22,1.22,0,0,1-1.74-.05S245.84,165.25,245.84,165.19Zm49.3-.6.26,1.17h-.77v-1.17Zm9.37,0v1.17h-.13v-1.17ZM293.66,201.5v-1.17h.84v1.17Zm5.22,51.75a2.2,2.2,0,0,1-.23,1h-1.79a3,3,0,0,0,.05-.54v-.63h1.95C298.86,253.15,298.88,253.19,298.88,253.25Zm-39,47a1.21,1.21,0,0,1-.8.42,1.42,1.42,0,0,1-.38-.08.73.73,0,0,1-.41-.64h-.54a1.36,1.36,0,0,1-.1-.21h2.39l.07.06A1.74,1.74,0,0,1,259.91,300.25Zm-25.63-31.93,0-.1h.34l0,.11-.11.58h-.08Zm-1.63-36.2h1.4v.71h-1.4ZM228,226.21h.43v.41H228Zm26.5-61.62a3.79,3.79,0,0,0,.17,1.17h-.49s0,0,0-.06a.6.6,0,0,0-.11-.12v-.5a1.09,1.09,0,0,0,.22-.26,2.18,2.18,0,0,0,.09-.23Zm32.06,0a3.51,3.51,0,0,0,.18,1.17h-.81v-.49a1.78,1.78,0,0,0-.11-.68Zm13.24,0h0l-.41,1.16h-.16v-1.17Zm1.45.87h.1v.18Zm.1-.87Zm-3.82,0v1.17h-.78l.27-1.17Zm-.65,8-.11-.19h.06ZM282.56,290v0h-.06a2.76,2.76,0,0,0,.21-1.14v0h1.36V290Zm-20.86-.09h-1.44a1.37,1.37,0,0,1-.27-.22,1.72,1.72,0,0,1-.31-.83h2.61a1.72,1.72,0,0,1-.31.83A1.18,1.18,0,0,1,261.7,289.9Zm-17.55,10.58a.63.63,0,0,1-.28-.61c0-.05,0-.09,0-.13h.81v.83h-.06A1,1,0,0,1,244.15,300.48ZM236,268l.19,1H236Zm2.67-23a.58.58,0,0,1,.3-.57l.09,0,.26.73h-.62A.7.7,0,0,1,238.62,244.94Zm-6-44v-.62h.22l-.23,1C232.61,201.26,232.61,201.13,232.62,201Zm.95-.62h.79c0,.1,0,.19,0,.29a4,4,0,0,0,.11.88h-1.14Zm2.93-18.92v.72l-.42-.72Zm-1.22.25.45.78h-.45Zm6.21,8.8v1.17h-4v-1.17Zm1.29-9v-.19h1.58a3.25,3.25,0,0,0,.24,1.17h-2.06v-1Zm35.74-15.78a1.19,1.19,0,0,1-.69-.4s0-.07-.05-.1h.74Zm13.61,35.56h-1.29l.3-.91h.7Zm-2.35,0h-1.11v-.95h1.45Zm7.49,59.8h-1v-1.17h1.05a3.44,3.44,0,0,0-.06.68Zm-6.08,16.54h-.67v-.35h.56Zm-7.76.82a1.05,1.05,0,0,0,.06-.24v.24Zm-2.63,0s-.08-.06-.1-.1a1.78,1.78,0,0,1-.12-.76v-.31h1.9v.31a1.78,1.78,0,0,1-.12.76s-.07.06-.1.1Zm-3.21-.82v-.35h0C277.62,277.39,277.61,277.51,277.59,277.62Zm-3.15,11.9a1.69,1.69,0,0,1-.27-.67h.46ZM241,253.15v-.05h.23l.42,1.17h-.38A2.16,2.16,0,0,1,241,253.15Zm3.38-62.69c0,.1,0,.2,0,.31a3.26,3.26,0,0,0,.11.86h-1.92v-1.17Zm22.52-25.09a.43.43,0,0,1,.22.38h-.22Zm4.82-.23h1.18v.62h-1.31l0,0A1.38,1.38,0,0,0,271.71,165.14Zm10.38,7.28a3,3,0,0,1,.08.71,3.24,3.24,0,0,1-.05.46h-2.61a2.22,2.22,0,0,1-.06-.46,2.55,2.55,0,0,1,.09-.71Zm10.64,71.49s0,.06,0,.1a3.54,3.54,0,0,0,.16,1.07h-.58v-1.17Zm-5.2,33.37H289l-.41,1.16h-1Zm-15,1.16c-.06-.05-.12-.07-.16-.13a1.84,1.84,0,0,1-.34-1l0,0h1.92a2.81,2.81,0,0,0,.27,1.13l-.05,0ZM249.76,290h-2V289h2Zm-3,0h-1v-1.16h1Zm-5.45,0-.08-.24h.82l.07.24Zm-2.71-22.27h.74l.17.52v.31h-1.19Zm3-22.94.32-.89h.51v.1a3.55,3.55,0,0,0,.15,1.07h-1Zm3.81-54a2.91,2.91,0,0,1,0-.31h2.65a2.91,2.91,0,0,1,0,.31,2.45,2.45,0,0,1-.15.86h-2.43A2.45,2.45,0,0,1,245.39,190.77Zm10.77-.31v1.17h-2.11v-1.17Zm24.36,78.45c0-.13,0-.24,0-.38v-.79h1.69a1.33,1.33,0,0,1,0,.21,2.48,2.48,0,0,1-.19,1Zm-2.91,0c0-.12,0-.24,0-.38v-.79h.93c0,.07,0,.13,0,.21a3.59,3.59,0,0,0,.13,1Zm-35.84,20h-.84l0,0h.84Zm-1.21-20.68h1.95v.69h-1.7Zm4.61-.48-.41,1.17h-1.13v-1.17Zm-7.6-40.37v-1.16h1.83a3,3,0,0,0,0,.31,3.74,3.74,0,0,0,.1.85Zm.5-9.33a2.45,2.45,0,0,0,.54,1.16h-2.42V218Zm45.49-36.36h.55a1.07,1.07,0,0,1,.39.06l.36.61s0,.05,0,.09h-1.31Zm-1.5.76h-.53l-.33-.92a2,2,0,0,0,0-.25h.84Zm-1.88,8.33a2.71,2.71,0,0,1-.14.86h-2.43a2.45,2.45,0,0,1-.15-.86,2.91,2.91,0,0,1,0-.31h2.64A2.91,2.91,0,0,1,280.18,190.77Zm4.44,9.56h.06c0,.07,0,.12-.06.18Zm-1,0v1a.92.92,0,0,1-.25.05,1.2,1.2,0,0,1-1-.46,1.71,1.71,0,0,1-.28-.64Zm-2.09,1.17h-2.88v-.22h-.55v-.34h2.44v-.61H281A2.37,2.37,0,0,0,281.55,201.5Zm7,52.77a2.16,2.16,0,0,1-.27-1.12v-.05h1.91v1.17Zm-47.15,23h1.06l.08.25v.1h-1.25Zm4.77-9.53H247l.26.83h-1.28Zm-3.63-57.33h1.73a1,1,0,0,0-.38.28h-1.35Zm2.62-10.08h1v1h-.24a1,1,0,0,1-.48-.09.65.65,0,0,1-.29-.62A1,1,0,0,1,245.19,200.33Zm11.41.95v-.95h1.29a1,1,0,0,0,.25.29,1.89,1.89,0,0,0,.47.22,1.56,1.56,0,0,0,.22.66h-.72v-.22Zm6.18-19.44a.94.94,0,0,1,.16.6h-.67v-.75A.81.81,0,0,1,262.78,181.84Zm1.93,9.25v-.63h3.18a1,1,0,0,0,.26.31,3.41,3.41,0,0,0,1.1.39l.55.12a2.27,2.27,0,0,1,.69.23.34.34,0,0,1,.12.12h-8.34v-.54Zm5.79-17.78a7.17,7.17,0,0,0,.74.21l.3.07h-1Zm7.55,59.15h-.67V232h.52ZM264,260.91a1.91,1.91,0,0,1-.33-1h2.65a2,2,0,0,1-.3.94h-1v.23h-.77C264.14,261,264.06,261,264,260.91Zm-14.78,8h-.08l-.11-.59-.13-.58h.54l-.12.59Zm-4.87-25h.4l-.26,1.17h-.14v-1.17Zm26.93-53.12a2.36,2.36,0,0,0-.76-.33h3v1.17h-1.86A1.19,1.19,0,0,0,271.28,190.79Zm1.42-9.52h.41l.26,1.17h-.67Zm2.5,0h.41v1.17h-.67Zm3.88,0h1l.07.25a1.64,1.64,0,0,1,0,.23h-1.19Zm-1,0-.34.94a2.13,2.13,0,0,1-.23-.94Zm-1.39,1.17h-.08v-.2Zm-4.94-1.17v.9a1.24,1.24,0,0,0-.35-.9Zm0,1.17h0a1.79,1.79,0,0,0,0-.24Zm6.8,36.21v.47s0,.06,0,.08h-1.6l.63-1.16h.8A1,1,0,0,1,278.52,218.65Zm4.06,42.43v-1.17h1v1.17Zm-18.49-7.83c0-.06,0-.1,0-.15h2.69l-.42,1.16h-2.07A2.33,2.33,0,0,1,264.09,253.25Zm-17-8.17,0-.12a4,4,0,0,0,.12-1,.31.31,0,0,0,0-.1h0v1.17ZM241,227.17a2.41,2.41,0,0,1,.19-1h1.92a2.61,2.61,0,0,1,0,.31,2.36,2.36,0,0,1-.14.85h-2C241,227.3,241,227.24,241,227.17Zm33.61-25.89v.22H274v-.33h.11a1,1,0,0,1,.5.11Zm1,8.25v.06h-1.8v-.06Zm-1.8,1.16v-.24h1.8v.24Zm.3,21.88V233s0,.08,0,.12h-1.81V232H274A1,1,0,0,1,274.12,232.57Zm5.5,12v.52h-.49a4.37,4.37,0,0,0,.12-.52Zm4.45,9.71h-1V253.1h.71l.33.59Zm-11.82,6.35a1.26,1.26,0,0,0,0,.27h-1.77v-1h2v.71Zm-23.72-27.46V232h.58a3.37,3.37,0,0,0,.24,1.17Zm18.92-32.54a2.58,2.58,0,0,1,0-.29h.41v.95h-.36A2.65,2.65,0,0,1,267.45,200.62Zm6.81,25.62a.56.56,0,0,1-.29.56,1.15,1.15,0,0,1-.51.08h-.93a2,2,0,0,1,0-.36,2.61,2.61,0,0,1,0-.31h1.74Zm-.54,28h-1.39v-.57h1a.8.8,0,0,1,.59.16.72.72,0,0,1,.15.41Zm-20.05,0a2.15,2.15,0,0,1-.28-1.12s0,0,0-.05h.3v.7H256a1.67,1.67,0,0,1-.2.47Zm5-36.23-.31.88h-2.4V218Zm9.81-7.63h1v.28h-1Zm1.4,17-.2-.54v-.62h1.67v1.16Zm-19-8.17V218h.48l-.23,1.16Zm8.89-1.16.37,1.16h-.88l.39-1.16Zm5.57,0h.33a.8.8,0,0,1,0,.24.59.59,0,0,1-.29.57l-.12,0a1.51,1.51,0,0,0,.1-.53A1.42,1.42,0,0,0,265.31,218Zm1.25.8a1.49,1.49,0,0,0,.18-.7s0-.07,0-.1h.48v1.16h-1A1,1,0,0,0,266.56,218.84Zm-1.67,14.32h-2a1.57,1.57,0,0,1-.15-.32L263,232h2.26a2,2,0,0,1-.35,1.16Zm-11.5-6a3.69,3.69,0,0,1,.05-.37h.74v.57h-.76C253.42,227.3,253.39,227.24,253.39,227.17Zm7.41-1,.1.54.13.62h-.62l.13-.62.1-.54Zm2.57.41a4.45,4.45,0,0,0,.91.29l.54.12a2.46,2.46,0,0,1,.7.23.57.57,0,0,1,.11.11h-2.47Zm-6.08.75v-.53h.87l.15.53Zm2.22,4.75-.05.27,0-.27Zm1.18-.13h.46l.24,1.17h-.7Zm-1.05-4.62h-.36l-.12-.53h.57v-.63h.14Zm-3.52-.2a1.38,1.38,0,0,1,0,.2h-.86v-1.16h.69A2.24,2.24,0,0,1,256.12,227.17Zm2.38,5,.3,1h-1.11v-1Zm10.17.59-.05.3-.06-.3Zm-2.37-6.17a2.3,2.3,0,0,0-.78-.33h1.61l-.42,1.16A1.17,1.17,0,0,0,266.3,226.54Zm-4.07.83h-.39l-.24-1.16h.9Zm-9.85-.57c0,.12,0,.23,0,.37a1.36,1.36,0,0,0,0,.2h-.14v-.57Zm4.27,6.36h-.13s.09-.1.13-.16Zm9.66-1.17h.2l-.42,1.17h0A3,3,0,0,0,266.31,232Zm1,.72h.33l.13.45h-.61Zm1.26-5.34h-.84l.39-1.16h.26l.19.59ZM264.11,218h0a.42.42,0,0,1,.22.38.56.56,0,0,1-.32.5h-.29V218Zm-12.15.75.14-.75h.08l.14.75.08.41h-.52ZM253.9,232H256a1.51,1.51,0,0,1-.26.54,1.21,1.21,0,0,1-1,.46,1.23,1.23,0,0,1-.92-.4A2.91,2.91,0,0,0,253.9,232Zm5.93,12.57h.87a3,3,0,0,0,.11.52h-1ZM270,232h.14l.21,1Zm-1.23-13.33V218h1.33a3.75,3.75,0,0,0,.2.62Zm2.94-8.45v-.68h.73v.68Zm-1-.68h0Zm-8,8.51v1a.78.78,0,0,1-.33-.21,1,1,0,0,1-.19-.52h-1a1.49,1.49,0,0,0,.28.93h-.32l-.41-1.16Zm-7.84,1.16h-.25l.25-.87Zm-4.4,7v.37h-1.41v-.37Zm1.95,5.78a2.4,2.4,0,0,0,.26.74,1.48,1.48,0,0,1-.2.42h-1V232Zm4.12,11.92a1,1,0,0,0-.56.47,2.6,2.6,0,0,0-.1.25,1.09,1.09,0,0,0-.41-.63l-.21-.09Zm.31,1a.58.58,0,0,1,.3-.57,1.29,1.29,0,0,1,.51-.08h1.13v.79H256.9A.7.7,0,0,1,256.87,244.94Zm5.53-1h1v1.17h-1Zm5.94,1.17v-1.17h1.24v1.17Zm3,0s0,0,0-.06h-.69v-1a2.21,2.21,0,0,0,.84.35l.88.21a3.12,3.12,0,0,1,.67.21.44.44,0,0,1,.22.31ZM271,232.21l0-.22h.31v.43l-.11.59Zm1.44-13.14a1.21,1.21,0,0,1-1-.46,1.79,1.79,0,0,1-.28-.57h2.55a1.45,1.45,0,0,1-.28.57A1.18,1.18,0,0,1,272.47,219.07Zm-1.36-17.57a3.48,3.48,0,0,0,.11-.88,2.83,2.83,0,0,0,0-.29h.85v1.17Zm-2.2,0v-1.17h1v1.17Zm.56,8h0Zm-2.06,0v.63h-2.33a1,1,0,0,0-.25-.3,2.93,2.93,0,0,0-.91-.33Zm-13.56,9V218H254Zm-5.44-.52h.92l.34,1.16h-1.08A3.67,3.67,0,0,0,248.41,218Zm2.08,14v1.11a2,2,0,0,1-.33-1.11Zm4.29,12.78a.44.44,0,0,1,.22.31h-.22Zm-3.25,8.33h.83s0,0,0,.05a3.51,3.51,0,0,0,.17,1.12h-1Zm13.9-8.5h1v.48h-1.11C265.36,244.93,265.4,244.77,265.43,244.6Zm3.25,8.5.21.67h-1.07a4.38,4.38,0,0,0,0-.52.77.77,0,0,0,0-.15Zm5.56-8a1.23,1.23,0,0,0-.5-1.08l-.21-.09h1s0,.06,0,.1a3.54,3.54,0,0,0,.16,1.07Zm.48-26.71.46.83h-.92A2.31,2.31,0,0,0,274.72,218.37Zm-13.26-8.84a1.18,1.18,0,0,0,.24.31,2.23,2.23,0,0,0,.87.36l.88.21a3.12,3.12,0,0,1,.67.21s.05,0,.08.07h-2.49a.91.91,0,0,0-.18-.21,3.39,3.39,0,0,0-1.11-.39l-.54-.12-.46-.12v-.32Zm-8.22,1.16a1.36,1.36,0,0,0,0-.21,3.52,3.52,0,0,0-.13-.95h1.94v1.16Zm-1.47-1.16c0,.11,0,.21,0,.33a3.52,3.52,0,0,0,.09.83h-.92v-1.16Zm-1.88,1.16h-.37a1.33,1.33,0,0,1,0-.21,1.86,1.86,0,0,1,0-.34h.35Zm-1.43,0H248a.54.54,0,0,1,.28-.46.65.65,0,0,1,.21-.06,3,3,0,0,0,0,.31C248.44,210.56,248.46,210.62,248.46,210.69Zm2.86,33.22v.65h2.44v.52h-.66s0,0,0-.06h-1s0,0,0,.06h-2v-1.17Zm-1.68,9.51v.85h-.14l-.19-.85Zm7.53-.27h0v0h1.07l.14.52a1.53,1.53,0,0,0-.17.65h-1Zm2.28,1.12-.08-.47a.39.39,0,0,1,.18-.18h0l-.12.66Zm11.27-1.17h.58v1.17h-.58Zm4.44,1.17a1.84,1.84,0,0,0-.05-.37,1.2,1.2,0,0,1,.3.11.39.39,0,0,1,.21.26Zm1-1a1.8,1.8,0,0,0-.31-.15h.54v.42A1,1,0,0,0,276.12,253.25Zm1.87-8.17h-2.22a2.25,2.25,0,0,1-.25-1.07s0-.06,0-.1h1.65v.65h1A2.14,2.14,0,0,1,278,245.08Zm-3.29-17.71-.16-.08a1,1,0,0,0,.6-.49c0-.05,0-.1.05-.14a2.14,2.14,0,0,1-.13.71Zm1-9.27,0-.06h0ZM274,200.34h0Zm-7.56,0a2.83,2.83,0,0,0,0,.29,3.53,3.53,0,0,0,0,.66h-1.23v.22h-.63v-1.17Zm-2.89,0v1.17h-1.26a1.38,1.38,0,0,0,.23-.75,1.84,1.84,0,0,0-.08-.42Zm-15.92,9.37.07,0-.07,0Zm-1,8.34v1.16h-1.82a2.07,2.07,0,0,1,.3-1.16Zm-1.9,9.33a1.36,1.36,0,0,0,0-.2,3.54,3.54,0,0,0-.13-1h2.86v1.16Zm2.75,4.62v1.17h-1.42V232Zm.75,11.92H249v1.17h-.79Zm.29,9.51h0l.2.85h-.22Zm1.64,7.66v-1.17h1.7a2.06,2.06,0,0,1,.34,1.17Zm2.87-1.17h.21v.25h1.82v.92h-1.82A3.44,3.44,0,0,0,253,259.91Zm3.67,0H258v0l0,.05a1.49,1.49,0,0,0-.18.7,1.29,1.29,0,0,0,.07.4h-1.11Zm3.52-5.64.15-.74h.68l.13.6v.14Zm2-1.17h.08l-.08.32Zm5.2,6.81v.94h-.21a3.34,3.34,0,0,0,.18-.94Zm6.1,1.17V260l.78.19a3.3,3.3,0,0,1,.67.2.44.44,0,0,1,.24.41.49.49,0,0,1-.11.31Zm3.87-7.61h2.18v.33H282v.47h-4.62Zm3.27-8.39v-1.17h.44v1.17Zm-5.46-11.92a2.63,2.63,0,0,1,0-.3v-.34a2.58,2.58,0,0,0-.06-.53h.76l-.41,1.17Zm1-5.79a3.72,3.72,0,0,0,.11-.85,3,3,0,0,0,0-.31h.12v1.16Zm-.33-26.09a1.09,1.09,0,0,0-.05-.14.91.91,0,0,0-.49-.4,1,1,0,0,0,.53-.41h.29v.95Zm-14.74-.95.22.09a.43.43,0,0,1,.24.4.5.5,0,0,1,0,.13,1.43,1.43,0,0,0-.24-.31,2.31,2.31,0,0,0-.7-.31Zm-.53,1.1a1.49,1.49,0,0,1-.55-.11.77.77,0,0,1-.21-.19,2.59,2.59,0,0,1,.69.23S260.52,201.41,260.55,201.43Zm-2.58,8.1a1.22,1.22,0,0,0,.4.89v.27h-1.9a4.14,4.14,0,0,0,.09-.83c0-.12,0-.22,0-.33Zm-18,9.09V218h1.72a1.59,1.59,0,0,1-.27.57H240Zm4-.58a3.67,3.67,0,0,0-.18,1.16H243V218Zm-.34,14a1.71,1.71,0,0,1-.27.54,1.21,1.21,0,0,1-1,.46,1.33,1.33,0,0,1-.54-.11V232Zm1.07,0H245v1.17h-.91A2.47,2.47,0,0,0,244.68,232Zm.54,13.09.27-1.17h.62l0,.24a2.12,2.12,0,0,1-.23.93Zm2.91,14.83.27,1.17h-.78v-1.17Zm10.13,7.83.24,1.17h-.92l.24-1.17Zm1.13,1.17h-.08l-.12-.59-.11-.58h.56l-.14.61Zm1-8.13-.54-.12a2.46,2.46,0,0,1-.7-.23.45.45,0,0,1-.21-.34.5.5,0,0,1,.13-.12.7.7,0,0,1,.23-.06h1.4v1Zm2.65-7.11a3.56,3.56,0,0,0,.11.6h-.28Zm5.36,6.24h.78v1.17h-.78Zm16.74-5.64v-.43h1.89v.43Zm-.49-9.19h-1.95v-.48h1.95Zm-10.07-53.45v-1.17h1.83a3,3,0,0,0,0,.31,3.76,3.76,0,0,0,.1.86Zm-6-10.17v-.11a5.18,5.18,0,0,0,.61.17l.55.12a2.23,2.23,0,0,1,.69.24.41.41,0,0,1,.22.38.53.53,0,0,1,0,.18h-2a1.52,1.52,0,0,1-.1-.34h-1a1.87,1.87,0,0,0,0,.34H266.2v-1ZM252.26,201v-.08h.08l0,0Zm-1,.39a1.17,1.17,0,0,1-.89-.44,1.4,1.4,0,0,1-.15-.3v-.34h1Zm-2.08-.46v.55H248.1v-.6h1Zm-2.56,8.58v.4h-.72v-.4Zm.15,43.57h.41l-.26,1.17h-.15V253.1ZM244,278.44l-.34-1v-.21h1.94v1.17Zm6.21-10.5v1H250Zm1.61,1h-.08l-.12-.59-.12-.58H252l-.14.61Zm3.72-1.17.33,1.17h-.61v-1.17Zm5,.42v.75h-.21Zm1,.75v-1.17h.26v1.17Zm.23-7.83v-.88h.35a2.64,2.64,0,0,0,0-.29h.52a3,3,0,0,0,.3,1.17Zm7.37,6.91.13-.25h1.66a1.36,1.36,0,0,0,0,.21,3.59,3.59,0,0,0,.13,1h-1.9Zm3,.92a2.48,2.48,0,0,1-.2-1c0-.08,0-.14,0-.21h2.67a1.33,1.33,0,0,1,0,.21,2.31,2.31,0,0,1-.2,1Zm4.54-7.83v-1.17h2.43v.25h1.54a3.24,3.24,0,0,0-.13.92Zm8.51,7.45v-.31h1.3v.69h-1.28C285.2,268.79,285.19,268.67,285.19,268.53Zm.13-7.45a3.33,3.33,0,0,0-.13-.88h1.42v.88Zm2.51-16h-.69v-1.17h.51l.18.31Zm-1.67,0h-.44v-1.17h.44Zm-4.67-11.92v-.77h1a.83.83,0,0,1,.6.16.89.89,0,0,1,.16.61Zm-1,0h-.3v-.33h-.9L279,232h1.5Zm-3.65-22.47v-1.16h2.11v1.16Zm-2.27-37.1h-.94a1,1,0,0,0-.33-.43A1.61,1.61,0,0,0,273,173h1.53Zm-3-1h0a4.22,4.22,0,0,1-.56-.16h.58Zm-4.5-.17V173h2.44v.62h-5.22v-.13h2.44v-.88h-2.44v-.16Zm-1.86,10H264a1.72,1.72,0,0,0-.14-.78.61.61,0,0,0-.17-.19h1v-.19h.47Zm-3.94,0h-.09v-.76h.09Zm-2.18,0a2.47,2.47,0,0,0,.1-.29v.29Zm-1.85,0v-1h1a1.94,1.94,0,0,1-.33,1Zm-1-1.17v1.17h-.26a2,2,0,0,1-.35-1.17Zm5.08,9.19v1.17h-1v-1.17Zm-2.08.59v.58h-2v-.58Zm-3.62,10.23H254v.22h-.87a2.09,2.09,0,0,0,.34-.56h1.19v-.61h.84Zm-11.39-.95a1.45,1.45,0,0,0-.06.41,1.42,1.42,0,0,0,.09.52,1.16,1.16,0,0,0,.14.24H244v-1.17Zm-.38,9.2h0Zm-2.22,0v.63h-2.22v-.63Zm-3.2,1.16h-.19l-.26-1.16h.45Zm-1.72-1.16h.51l.27,1.16h-1Zm8,44.74a3.51,3.51,0,0,0,.17-1.12v-.05h1v1.17Zm2,5.64-.16.71h-.15v-.71Zm-3.14,28.94H244l-.3.88Zm3.17-10.41v-1.17H248l.33,1.17Zm2.56-.27-.15-.8,0-.1h.33l0,.12Zm3.48-9.26.33-1.17h1.2v1.17Zm5.57,9.53v-1.17h1v1.17Zm2,0v-1.17h.22v1.17Zm2.57-9.53v-1.17h1v1.17Zm2,0v-1.17h2.43l.47.84v.33Zm11.55-.33.11-.2v.15c0,.14,0,.25,0,.38h-.14Zm6.89-.84h.19v1.17h-.3a3.59,3.59,0,0,0,.13-1A1.36,1.36,0,0,0,283.3,267.74Zm8.61-13.47a3.51,3.51,0,0,0,.17-1.12v-.05h.8v.63a3,3,0,0,0,.05.54Zm-3-9.86v-.5h.37v1.14Zm-4.77-12.13a1,1,0,0,0-.36-.29h.36Zm-4.88-6h-1.13v0h1.46A1.61,1.61,0,0,1,279.24,226.24Zm.49-7A2.07,2.07,0,0,1,280,218h.72v1.16Zm.25-8.51v-1.16h.66a3.52,3.52,0,0,0-.13.95c0,.08,0,.14,0,.21Zm1.15-19.06a3.76,3.76,0,0,0,.1-.86,3,3,0,0,0,0-.31h.85v1.17Zm3.94-19.21h1.28a2.68,2.68,0,0,1-.05.42h-1.23Zm-7.38,0v1.17H276.6v-1.17Zm-23.19,8.85a3.25,3.25,0,0,0,.23,1.17h-.68v-1.17Zm-14.9,50.89V232H240a2.3,2.3,0,0,0,.57,1.17h-1.18v-.33h-2.26v-.67Zm3.67,20.94-.39,1.17h-.22l-.37-1.17Zm2,6.81v.68a.59.59,0,0,1-.34-.13.94.94,0,0,1-.16-.55Zm-.58,29.81V290h-.1Zm5.15-11.28.24-1.17h.64l.24,1.17Zm6-1.17h.36v1.17h-.68Zm5.68,1.17v-1.17h1.94v1.17Zm7.48-1.17h1.54l.2.37v.8h-1.94v-.8Zm19.11-8.36c0-.13,0-.24,0-.38v-.79h1l-.42,1.17Zm2.06-1.17h.75l.16.52v.31h-1.18Zm-2-6.66v-1.17h1.57v1.17Zm5.81-6.81a2.68,2.68,0,0,1-.05-.54v-.63h1.17a.77.77,0,0,0,0,.15,3.53,3.53,0,0,0,.15,1Zm-2.77-9.19h-1v-1.17h1Zm-6.06-11.92V232h.34v1.17Zm-4.25-5.79a1.16,1.16,0,0,0-.11-.33,1,1,0,0,0-.49-.4,1.09,1.09,0,0,0,.55-.43h1.26v1.16Zm.85-8.45V218h.38a1.9,1.9,0,0,1,.26.88Zm-.19-8.23c0-.07,0-.13,0-.21a2.36,2.36,0,0,1,.19-.95h2.09c0,.11,0,.21,0,.33a3.5,3.5,0,0,0,.1.83Zm4.53-9.41v.22H286l-.24-1c0-.05,0-.09,0-.14h.73l-.22.95Zm-3-9.65v-.31h1a.85.85,0,0,1,.6.16.42.42,0,0,1,.07.15Zm1.13-1.14h-1.13v0h1.44A1.42,1.42,0,0,1,284.21,190.49Zm1.46-9a1,1,0,0,0-.35-.25h.35Zm-1.62-9.1v1.17h-.12a2.13,2.13,0,0,1-.3-1.17Zm-21.83.55a3.12,3.12,0,0,1,.67.21.42.42,0,0,1,.24.4h-.94V173Zm-5.08-.55v1.17h-1.09v-1.17ZM253,181.27v1.17h-.32v-1.17Zm0,9.19v1.17h-3.94a3.74,3.74,0,0,0,.11-.86,3,3,0,0,0,0-.31Zm-6.49-9.19a4.54,4.54,0,0,0,.82.25l.54.12.18.05a1.74,1.74,0,0,1-.3.75h-1a1.53,1.53,0,0,1-.09-.34h-1s0,.06,0,.1a2.27,2.27,0,0,1-.23-.93ZM242,200.33v.95h-2.65v.22h-.32a4,4,0,0,0,.11-.88c0-.1,0-.19,0-.29Zm-4,0a1.89,1.89,0,0,1-.12,1.17H236.5v-1.17Zm-3.6,9.23v0h0Zm-1,0h.23l.27,1.16h-.77ZM240,244.29h.52v.56l-.08.23h-.19Zm2.53,15.62h.09l-.09.28Zm1.18,0a1.7,1.7,0,0,0,.14.74.94.94,0,0,0,.5.4l0,0h-1.07l.41-1.17Zm-4.25,17.36.11.35h-.67v-.35Zm.73,12.74h-.11l.06-.18Zm12.88-12.74h.64l.24,1.17h-1.12Zm5.26,11.58V290h-.6v-1.16Zm6.15-10.41v-1.17h3l.2.37v.8Zm26.3-17.36v-1.17h1.38v1.17Zm3.85-1.17a3,3,0,0,0,.3,1.17h-.33l-.67-1.17ZM294,245.08a2.25,2.25,0,0,1-.25-1.07s0-.06,0-.1h.41v1.17Zm-7.48-11.92v-1h.85a2.24,2.24,0,0,0,.53,1Zm3.13-.17a1.22,1.22,0,0,1-1-.46,1.84,1.84,0,0,1-.19-.37H289V232h1.95a1.71,1.71,0,0,1-.27.54A1.21,1.21,0,0,1,289.67,233Zm-6.51-5.62v-.53h.43l.29.53Zm1.5-.53Zm-.36-7.92h-.82a3.36,3.36,0,0,0-.16-.88h1Zm1-8.23c0-.07,0-.13,0-.21a4,4,0,0,0-.13-.95h1.93v1.16Zm1.9-10.36h.31v.95H287Zm-1.32-8.7a.91.91,0,0,0-.11-.34.87.87,0,0,0-.49-.4,1,1,0,0,0,.55-.43h1.26v1.17Zm.76-9.19v-1.17h.45v1.17Zm2.45-8.85h-1.38a.89.89,0,0,0-.42-.33v0a1,1,0,0,0,.58-.48,1.58,1.58,0,0,0,.13-.34h1.09Zm-14.49-7.83v-.32l.18.32Zm-8.7,0h-.5l.17-.77.33.08Zm-4.76,7.67h-1a1,1,0,0,0,0,.16h-1v-.18h1.95Zm-9.52,7.84v1.17h-1.86a1.15,1.15,0,0,0,0-.26,1.26,1.26,0,0,0-.36-.91Zm-10.14,1.17h-1.15v-1h1.15Zm-6,17.89v.21c0,.1,0,.24,0,.41v.41l-.12-.55a1.25,1.25,0,0,1,0-.19,2.54,2.54,0,0,1,0-.29ZM228.34,218h.7l.67,1.16h-1.37Zm1.65,0h.15v.26Zm-.41-7.35.35-1,.35,1Zm5.25,7.35a2.07,2.07,0,0,1,.3,1.16h-2.72a2.07,2.07,0,0,1,.3-1.16Zm-2.18,9.33v-1.16h3.22v1.16ZM240,253.1s0,0,0,.05a3.25,3.25,0,0,0,.18,1.12h-.35V253.1Zm-.49,35.75L239,290h-.5l.33-1.16Zm2.39,10.89-.07.22v-.22Zm9.37-10.89h.23l-.11.61Zm12.46,0h1.21l-.56,1h-.65Zm2.24,0h.15l.55,1.16h-.43v-.11h-.75Zm1.87,1.16-.64-1.16h2.73l0,.07V290Zm3.69-1.16h1V290h-1Zm2,1.13,0,0h0Zm1.81,0,.27-1.16h.69l.16.76a1.16,1.16,0,0,1-.77.4Zm.11-11.61a3.18,3.18,0,0,0,.27-1.13h.82v.32a3.08,3.08,0,0,0,.11.85h-1.16A.08.08,0,0,1,275.43,278.4Zm3,0a3,3,0,0,0,.29-1.17h.79v.31a1.78,1.78,0,0,1-.12.76s-.07.06-.09.1Zm6.13,0v-1.16h2v1.16ZM292.79,290v-.24h.84l.08.24Zm.39-28.93v-.91l.52.91ZM296.49,244c0,.14,0,.24,0,.37h0a1.49,1.49,0,0,0-.17.63.16.16,0,0,0,0,.07h-1v-1.17h1.22S296.49,244,296.49,244Zm-5.06-10.85A2.47,2.47,0,0,0,292,232h.9a2.38,2.38,0,0,0,.23,1.06.87.87,0,0,0,.09.11Zm-1.78-5.79v-1.16H290l.26,1.16Zm-1-1.16v1.16h-.35c0-.07,0-.13,0-.2a2.41,2.41,0,0,1,.19-1Zm-1.4,1.16H285.4l.62-1.16h1.37a3.54,3.54,0,0,0-.13,1A1.36,1.36,0,0,0,287.28,227.37Zm0-8.17h-1.89V218h1.89Zm.87-27.57v-.54h2.44v-.63h3.08v1.17Zm0-9.19v-1h2.44v-.19h3.08v1.17Zm2.13-8.85v-.13h2.3v-.88h-2.3v-.16h4v1.17Zm-5.73-9a.6.6,0,0,1,.18.09,1,1,0,0,1,.16.64v.44h-1.8v-1.17Zm-9,.79-.45-.79h.45Zm-5.39-.79.31,1a.62.62,0,0,1-.17.11,1.67,1.67,0,0,1-.49.08h-.18l-.34,0,.37-1.12Zm-1.64.35h-.61a1.12,1.12,0,0,0-.3-.35h1Zm-5.48.65v-1h.24l.22,1Zm-2.5,6.83.22.12H259.2v-.12Zm-3.3-6.66v-.25h.88a1.92,1.92,0,0,1-.12.25Zm1.05-1.12h-1.05v0h1.06S258.26,164.62,258.26,164.64Zm-4,7.78a2.22,2.22,0,0,1-.3,1.17h-2.13a2.13,2.13,0,0,1-.3-1.17Zm-5.63,1.17h-1.22a3.24,3.24,0,0,1-.05-.46,2.68,2.68,0,0,1,.05-.42h1.22Zm-2.43-1.17a.94.94,0,0,0-.37.37,1.49,1.49,0,0,0-.18.7s0,.06,0,.1h-1.05v-1.17Zm-6.91,10h-1v-1.17h1Zm-2.2-8.85H237l-.14-.65.26.45Zm-1.73-1.17v1.17h-.34l.27-1.17Zm-1,.83v-.83h.19Zm2.1,17.21v1.17h-.08l-.67-1.17Zm-5.34,19.07v.72l-.23-.72Zm-2.61,1.16h-.08v-.83h.36Zm2.57,7.35h.42a3.67,3.67,0,0,0-.18,1.16h-.24Zm4,14h.77v1.17h-.71v-.33h-.06Zm3.21,11.92a1,1,0,0,0-.56.47,1.49,1.49,0,0,0-.18.7h-.19v-1.17Zm.48,9.19v1.17h0l-.67-1.17Zm-1.64,0,.67,1.17h-.9V253.1Zm3.78,6.81.33.94h-1.95v-.94Zm-3.78,8.44-.12.56H237l-.11-.59-.12-.58h.57ZM237,278.44h-1v-1.16h1.45Zm5.85,21.35a1.66,1.66,0,0,0,0,.22,1.25,1.25,0,0,0,.1.53,2,2,0,0,0,.21.37h-.68Zm2.9.78v-.83h.06v.83Zm5.57-.83a1.88,1.88,0,0,1-.26.51,1.23,1.23,0,0,1-1,.46,1.21,1.21,0,0,1-1-.46,1.62,1.62,0,0,1-.25-.51Zm.91-10.89H253l.24,1.16H252Zm2.59,1.16v-.71l.13-.45h1.41V290Zm25.05-1.16h1.78a1.78,1.78,0,0,1-.12.76.75.75,0,0,1-.67.39h-.31a1.06,1.06,0,0,1-.37-.07Zm5.79,1.14h-.53v-1.14h.53Zm3-1.14v.66l-.22-.66Zm3.1,1.16h-.05l.05-.14Zm3-.22-.29-.83h.29ZM293,277.27h.61l.12.35h-.85Zm-.63-8.36-.24-.69h1.48l.23.69Zm2.74-1.17h.21l-.21.72Zm4.12-22.66h-1.87a2.77,2.77,0,0,0,.12-.6,1.31,1.31,0,0,1,.12-.11,1.26,1.26,0,0,1,.5-.08h1.13ZM291,227.17a1.38,1.38,0,0,1,0,.2h0l-.27-1.16h.12A2.24,2.24,0,0,1,291,227.17Zm4.53-26.84h.21v.38Zm-.93-8.7v-1.17h.31l.26,1.17Zm0-9.19v-1.17h.4l.27,1.17Zm.62-8.85v-1.17h.39v1.17Zm7.08-7.83v-.3h.09l.09.3Zm-6.24-.34-.19-.83h.38Zm-6,.17h-2v-1h2.2A2.28,2.28,0,0,1,290.12,165.59Zm-8.45.17h-1a2.68,2.68,0,0,0,.48-1.17h.48Zm-1.85-.48a1.21,1.21,0,0,1-.26.2v-.89h.55A1.73,1.73,0,0,1,279.82,165.28Zm-14.93-.48-.18.79h-.48l-.23-1h.49A1.66,1.66,0,0,0,264.89,164.8Zm-5.76,1,0-.12v.12Zm-6.49-.89v0h-1.18v0h1.18Zm-1.18.87h0Zm-1.35,7.39a2.22,2.22,0,0,1-.06.46h-.36v-1.17H250A2.55,2.55,0,0,1,250.11,173.13Zm-11.93.46-.09-.15v-1h.4v1.17Zm0-7.83v-.06l.12,0v0Zm-6.47,6.66h1.51v1.17h-1.8v-.37Zm.62,10a3.14,3.14,0,0,0,.07-.72v-.45h1v1.17Zm2.46,8,.67,1.17h-1.09v-1.17Zm-3.28,35.75v1.16h-.08l-.67-1.16Zm6.81,34.44-.42-.74h.42Zm-5,7.57.19.69H233v-.69Zm7.17,31.52.29.81h-1.52l-.27-.81Zm6.36,0h.87v1.17h-.87Zm8.89.81v-.81h.89a2.4,2.4,0,0,0,.58,1.17h-.34v-.36Zm10.9-.81v.81h-.9l-.45-.81Zm1,0h.73v1.17h-.73Zm2.08,0h.68v1.17h-.68Zm3.73,0h.83l.17.81h-1.13v.36h-.14Zm9.92,0a1.62,1.62,0,0,1-.25.51s-.05,0-.06.05v-.56Zm3.32-9.73v-1.16h.71l.41,1.16Zm3-.22.34-.94h1l-.42,1.16h-.93Zm4.81,9.95V300l-.14-.25Zm1.29-9.73v-1.16h.1l.39,1.16Zm.13-21.1.39-1.17h.45l-.42,1.17Zm1.59-.34.24-.74v.74Zm2.27-14.3a3.54,3.54,0,0,0,.14-1c0-.05,0-.1,0-.15h1.82v1.17ZM294.9,233a1,1,0,0,1-.57-.15v-.36l.25-.48h1.25a1.4,1.4,0,0,1-.11.57A.8.8,0,0,1,294.9,233Zm-2.34-6.77v1.16h-.5a1.36,1.36,0,0,0,0-.2s0-.1,0-.15l.18-.81Zm-4.23-7V218h.48l.26,1.16Zm1.24-1.16h.33l-.16.71Zm-1-7.35a3.5,3.5,0,0,0,.1-.83c0-.12,0-.22,0-.33h1.83v1.16Zm3,0v-1.16h.71v1.16Zm6-9.19-.67-1.17h.73v1.17ZM296,191.63l-.27-1.17h.81l-.27,1.17Zm.1-9.19-.27-1.17h.6l-.26,1.17Zm2.29-10h.23l-.23,1Zm7.14-6.66v-1.17h.79v1.17Zm-2.17-.87-.11-.3h.11Zm-10.14.87h-2a3.78,3.78,0,0,0,.18-1.17h1.8Zm-32.06,0h-.92v-1.17h.92Zm-20,6.66V173h2.31v.62h-4v-1.17Zm-2.64-7.64-.34-.07v-.12h.38Zm-3.25,1,.28-.77.44.77Zm-4.06-1.12v0h.12v0Zm-2.61,1.12h0v-.08Zm1.2,6.66h.56v1l-.06.19h-.13Zm2.6,18h1v1.17h-1a2.4,2.4,0,0,0,0-.28Zm-7.55,28.18a.8.8,0,0,1-.79.42v-1H225A1.65,1.65,0,0,1,224.86,218.64Zm-1.92,7.57h.46v.37h-.46Zm3,1.16v-1.16h.43v.89a2,2,0,0,1,0,.27Zm4.5,0v-.08l.05.08Zm4.73,17.19.29.52h-1.17v-.52Zm-.12,16.52h-.4l-.26-1.17h.66Zm-2.51,0h-.4v-1.17h.66Zm-.63,6.66v1.17h-1.6l.32-1.17Zm1.58,9.54h1.41v1.16h-1.73Zm3.57,11.57V290h-.52v-1.16Zm-.35,10.89h1.22l.23.81h-.07v.36h-1.71Zm16,0h1.53v.81h-1.5v.36h0Zm8.47.12,0-.12h1.41l-.62,1.17h-1.11a1.46,1.46,0,0,0,.32-.89C261.24,300,261.21,299.92,261.21,299.86Zm2.5-.12h.45l.39.81H264v.36h-.78Zm7.73,0h.23v1.17h-.23Zm3.83,8.17-.08.41-.07-.41Zm1.79-7.36h-1.14l.16-.81h.79Zm1.14-11.7h.48v0a2.61,2.61,0,0,0,.21,1.14H278Zm3.8,10.89v.81h-.49a1.2,1.2,0,0,1-.38-.3,1.62,1.62,0,0,1-.25-.51Zm9.41,0v1.17h-.69v-1.17Zm2.31.54.35.63h-.35Zm2.09-.54h.66v1.17h-.93Zm2-9.73.4-1.16h.42l.25,1.16Zm1.64-1.16h.33l-.16.91Zm-2.53.23-.07-.23H297Zm-1.78-11.81h.06l0,.1Zm3.64-8.7v-.06l0,.06Zm2.49-8.29c0-.12,0-.26,0-.37h0Zm4-.37v.71h-1a.8.8,0,0,1-.59-.16.87.87,0,0,1-.16-.55Zm-8.72-26.75.07-.08,0,.08Zm-1.82-5.79H294v-1.16h1.21Zm-4.38-8.17.27-1.16h.54v1.16Zm2.81-9.67h0l.66,1.16h-.69Zm3.78-17.9.27-1.17h.3v1.17Zm-.1-9.19.27-1.17h.4v1.17Zm2.45-10h0v1.17h-.29Zm1.19,1.17v-1.17h1.77l-.42,1.17Zm2.87,0v-1.17h.33l.37,1.17Zm-50.15-15.76a1.08,1.08,0,0,1-.12.24,1,1,0,0,1-.37.29v-1.3h.49Zm-8.82,6.76a2.49,2.49,0,0,0,.44,1.12v0H243v-1.17Zm-3.3,0v1.17H241l-.27-1.17Zm-.86,1.17H240a1.15,1.15,0,0,0-.36-.55,1.89,1.89,0,0,0-.45-.23l.09-.39H240Zm-7.49-1.12h-.35s0,0,0,0h.32Zm-8.21,0v1.17h-.15v-1.17Zm2.7,7.83h1a.51.51,0,0,1-.25.35,1.26,1.26,0,0,1-.5.08h-.27Zm1.34.83A1.13,1.13,0,0,0,229,173l.19.56H229A.87.87,0,0,0,228.58,173.25Zm-4.19,9.19v-.76h1a.85.85,0,0,1,.6.16.54.54,0,0,1,.05.11,1.71,1.71,0,0,1-.23.49Zm2.84,0h0a2.11,2.11,0,0,0-.07-.55,3.78,3.78,0,0,0,.07-.61h1.15v.45a3.88,3.88,0,0,0,.06.72Zm.58,19.06h-.35v-1Zm-3.14-.79-.22-.38h.22Zm-2.4,18.43,0,.06h-.46v-.54h-1v0a1.77,1.77,0,0,0-.08-.57H222A2.56,2.56,0,0,0,222.27,219.14Zm-2.85-1.1h.25a1,1,0,0,1,.15.61h-.4ZM229,243.91v1.17h-.14l-.26-1.17Zm1,1.17v-1.17h3.08v.65h.24v.52Zm5.7,8v1.17h-3V253.1Zm-4.94,24.17h.64l.24,1.17h-1.12Zm4.76,11.65V290h-.4v-1.07Zm-4,10.82-.18.81h0v-.32c0-.18,0-.31,0-.41v-.08Zm.25,8.17.37.63h-.74v-.63Zm26.5,0v.61a1,1,0,0,1-.36-.29,1.2,1.2,0,0,1-.16-.32Zm10.08,0v.48l-.05-.06a2.38,2.38,0,0,0-.87-.37l-.23,0Zm9.85-7-.33-1.17h1.91a2.4,2.4,0,0,0,.58,1.17Zm1.91,7h1.66l0,0a1.11,1.11,0,0,1-.5.08h-1.13Zm5,.72h.59l.16.45h-.75Zm3.73-7.72v-.36h-1.35l.3-.81h1.83v1.17Zm8.64-.63v-.54h.12l-.11.59Zm-1.79-21.84.4-1.17h.47l.4,1.17Zm2-1.17v.53l-.15-.53Zm2.24-8.36-.22-.64h1.45v-.1l.25.74Zm2.34-7.83v-1.17h.12a1.56,1.56,0,0,0,.14.74,1,1,0,0,0,.49.4l-.05,0Zm7.11-1.17v.74l-.43-.74Zm.45-6.81v1.17h0l-.67-1.17Zm-4.5-8v-1.17h.51l.67,1.17Zm-1,0h-4v-1.17h4Zm-4.62-11.92h-2a2,2,0,0,1-.35-1.16h2.69a2,2,0,0,1-.35,1.16Zm-2.89-6v-.78l.25.78Zm-2.84-7.94.14-.41h1.85l.13.41Zm-1.08,0h-.83V218h1.25Zm3.49-9.67h.38l.41.71v.45h-.79Zm3.1,0h.63c0,.11,0,.23,0,.37v.79h-.65Zm-1.07-17.9v-1.17h1.62l-.41,1.17Zm3.63-.24h-1.29l.31-.93h.68Zm-3.63-8.95v-1.17H300l-.42,1.17Zm-45.41-27a1.08,1.08,0,0,1,.12.24v.54h-.49v-1.08A1.19,1.19,0,0,1,253.1,155.45Zm-2.88,9.14a.9.9,0,0,0-.38.37,1.49,1.49,0,0,0-.18.7.36.36,0,0,0,0,.1h-.11a5.1,5.1,0,0,0,0-.57,5.49,5.49,0,0,0,0-.6Zm-23.07,0h0Zm-1.3,0h0Zm-3.42,0h.93v1.17h-.93Zm4,35.74v1.17h-.06l-.67-1.17Zm-2.29,9.2v1.16h-.48l-.67-1.16ZM218,218h.37v1.16H218Zm3.87,8.45v.31a1.08,1.08,0,0,0-.28-.16A1.25,1.25,0,0,0,221.9,226.49ZM227,232v1.17h-1V232Zm-1.85,11.92v1.17h-1.9l.42-1.17Zm-3.46,0h1l-.39,1.17H222Zm5.57,0h.62l.27,1.17H227Zm3.2,9.56v-.37h1.16v1.17H228v-.8Zm-2.14,14.27.24,1.17h-.92l.24-1.17Zm3.37,21.11-.12.61-.12-.61Zm.91,0h.49v.07h1V290h-1.21v0h-.61Zm-2.21,12.06h-2.22l.42-1.17h1.8Zm-2.81-1.17-.18.56-.18-.56Zm1.89,9.15v-1h1v1.17h-1C229.44,309,229.45,309,229.45,308.89Zm5.07-1h1.13l-.4,1.17h-.73Zm2.14,0H238l.33,1.17h-2Zm2.93,0h.93l.42,1.17h-1.35Zm6.59,0h1.51v1.17h-1.56a3.71,3.71,0,0,0,.08-.77C246.21,308.17,246.19,308,246.18,307.91Zm2.56,0H250v1.17h-1.3Zm2.36,0h.58v1.17h-.58Zm1.64,0h.47v1.17h-.47Zm1.51.67h.39v.5h-.39Zm1.46,0h.49v.5h-.49Zm1.54.39,0,0,.1.08h-.12Zm3.22.11.09-.08a2.24,2.24,0,0,0,.32-.37h.87v-.72h.8l-.62,1.17Zm3.15-1.17h.62l.56,1.17h-1.71Zm2.39,1.17-.3-.55a4.43,4.43,0,0,0,.59.16l.54.12a2.42,2.42,0,0,1,.7.24l0,0Zm3.41-1.17h1v1.17h-1Zm2.23,0h.77l-.33,1.17h-.44Zm1.76,0h.08c0,.13,0,.26,0,.4a3.71,3.71,0,0,0,.08.77h-.4Zm4.82,1a4.08,4.08,0,0,0,0-.61c0-.14,0-.27,0-.4h.85v1.17h-.83Zm1.9-.07h.37v.23h-.37Zm7.39-.22h.09v-.26l.17-.46h1.9v1.17h-2.32Zm4.15-.72H292l.26,1.17h-.55Zm2.62,0h.29v.71l-.13.46H294Zm1.26.92.22-.92h.91l.19.95-.08.22h-1.24Zm3.89-7.92H298.2l.23-1.17h.8l.21.92Zm3-32-.34-1.17h.87l-.33,1.17Zm4.91-9h.74l.67,1.17h-1.41Zm3.1,0h1v1.17h-1Zm2.06,0h1.89v1.17h-1.89Zm.45-5.64V253.1h1.9v1.17Zm-3.45-9.19h-1v-1.17h1Zm-2,0-.66-1.14h.66ZM301,233.16a3,3,0,0,0,.24-1.17H302v.43a3.26,3.26,0,0,0,.07.74Zm-.47-5.79v-1.16h.42l.67,1.16Zm-1,0h-1.21l-.41-1.16h1.62Zm-2.22-8.17L296.9,218h1.25v1.16Zm8-9.67v.4h-.69v-.4Zm1,.25v-.08l.06,0Zm-7.51-8.28v-1.17h1.9v1.17Zm6.68-9.87v-1.17h.42l.67,1.17Zm-2-9.19-.42-1.17h1.47v1.17ZM307.6,165l-.21-.38h.21Zm4.24-7.66a.8.8,0,0,1,.59.16.94.94,0,0,1,.17.64v.46a2,2,0,0,0,0,.42h-.81Zm29.82-1.56.26.46h-.26ZM294.28,157v1.4a1,1,0,0,1-.41.09,1.09,1.09,0,0,1-.47-.1V157Zm-42.55-2v3.38a1.2,1.2,0,0,1-.61-.38,2.5,2.5,0,0,1,0-2.62A1.2,1.2,0,0,1,251.73,155.07Zm-1.63.07a3,3,0,0,0-.39,1.62,2.79,2.79,0,0,0,.62,1.9h-.91v-3.51Zm-3.43,0h1.7v1.16h-1.7Zm0,2h1.7v1.47h-1.44l-.26-.71Zm-1.9-1.77.64,2h-1.29Zm-.94,2.84h1.8v.38l-1.92,0Zm-11-3.12H234a1,1,0,0,1,.48.09.63.63,0,0,1,.29.62.55.55,0,0,1-.3.56,1.11,1.11,0,0,1-.5.08H232.8Zm0,2.19h1a.81.81,0,0,1,.6.16.94.94,0,0,1,.17.64v.42l-1.79,0Zm-38.17,7.28a.47.47,0,0,1-.23.23,1.11,1.11,0,0,1-.5.08h-1.13v-.31Zm-1.86,1.15h1l.19,0h-1.21Zm31.37,6.68h.57l.64,1.12v.05h-1.21Zm-17.69,8.85v.44a3.91,3.91,0,0,0,.06.73H205.3a1.6,1.6,0,0,0-.14-.78.93.93,0,0,0-.46-.38Zm-4,.41h1a.83.83,0,0,1,.6.16.94.94,0,0,1,.16.6h-1.78Zm23.36,8.78a1.39,1.39,0,0,1-.3,0h-1.13v0Zm-1.43.86h1a.85.85,0,0,1,.6.16.68.68,0,0,1,.08.15h-1.7Zm-8.85,9h0Zm-1.16.84h1a.85.85,0,0,1,.6.16.68.68,0,0,1,.09.17h-1.71Zm7.69,8.36h0l.66,1.16h-.69ZM216.32,218v.58h-2V218Zm4.55,8.17a1.55,1.55,0,0,1-.33,0h-1.13v0Zm-1.46.86h1a.8.8,0,0,1,.59.16s.05.09.08.14h-1.7Zm3.53,4.92h1.95v1.17h-1.95ZM216,243.91h.51l.66,1.17H216ZM227,253.1v1.17h-1V253.1Zm-4,.32h1.95v.85h-1.95Zm1.25,6.49v1.17h-.65l-.67-1.17Zm-2.12.26.52.91h-.52Zm4.6,8.15-.13-.58h.54l-.12.59-.1.58h-.08Zm.32,8.95,0,.12-.14.78-.15-.8,0-.1Zm.77,0h.64l.24,1.17h-1.12Zm1.33,11.58-.11.61-.11-.61Zm.77,0h.76l.24,1.16h-1.24Zm-8.58,10.89h1l.67,1.17h-1.69Zm1.82,8.17,0,0a1.11,1.11,0,0,1-.5.08h-1.13v-.11Zm-1.67.94h1a.86.86,0,0,1,.6.16s0,.05,0,.07h-1.65Zm83.21.23h-.12l-.67-1.17h.79Zm-4.06-8.17-.07-.27v-.9h1a1.26,1.26,0,0,0,0,.27,1.44,1.44,0,0,0,.09.53,2,2,0,0,0,.22.37Zm3.92-.34h-1.16a1,1,0,0,1-.49-.09.63.63,0,0,1-.29-.61.5.5,0,0,1,0-.13h1.91Zm-3-10.67h-.52v-1h.28Zm-2.68-11.46v-.09l.35-1h1.62v1.11Zm6.57-9.53h-1.83l.39-1.17h1.44Zm14.08-7.83h-1.71a.66.66,0,0,1-.22-.54.58.58,0,0,1,.3-.57.64.64,0,0,1,.22-.06h1.41ZM318,254.27s0-.05,0-.09a.55.55,0,0,1,.3-.56,1.11,1.11,0,0,1,.51-.09h1.13v.74Zm-.29-1.14a1,1,0,0,0-.6.49,1.53,1.53,0,0,0-.17.65h-1V253.1h1.72Zm-2.08-8a.7.7,0,0,1,0-.14.58.58,0,0,1,.3-.57,1.26,1.26,0,0,1,.5-.08h1.13v.79Zm-.9-.7a1.49,1.49,0,0,0-.18.7h-1v-1.17h1.75A1,1,0,0,0,314.7,244.38Zm-9.7-12a1.71,1.71,0,0,1-.12.74h-1.66a1.71,1.71,0,0,1-.12-.74V232H305Zm-2.37-5h-.09l-.66-1.16h.75Zm-3.5-8.17V218h1l.67,1.16Zm2.12-.9-.16-.26h.16Zm5.43-7.61a.52.52,0,0,1,.28-.46,1.09,1.09,0,0,1,.5-.09h1.13v.55Zm-4.9-9.19v-1.17h1.07a1.47,1.47,0,0,0-.07.41,1.24,1.24,0,0,0,.1.52,1.16,1.16,0,0,0,.14.24Zm4-.2h-1.16a1,1,0,0,1-.49-.09.64.64,0,0,1-.28-.62.71.71,0,0,1,.05-.26h1.88Zm1.83-9.67h-.08l-.66-1.17h.74Zm-2.11-9.19v-1.17h.67l.67,1.17Zm2.11-.31-.49-.86h.49Zm2-8.54h-.31l-.66-1.17h1Zm-.14-7.83a.93.93,0,0,1,0-.24.58.58,0,0,1,.3-.57,1.26,1.26,0,0,1,.5-.08h1.13v.89Zm-.87-.85v-.32h.33A.92.92,0,0,0,308.58,164.91Zm33.08-6.54v-1.29h.76l.75,1.29Z" fill="#262521"/><path d="M235,185.94c0-23.16-20.87-131.56-25.88-137.11a3.16,3.16,0,0,0-2.72-.43C176,59.42,143.31,65,116,83.18c-23.5,30.35-34.46,68.24-48.06,103.67-23.59,59.08-28.11,123-26.19,186-.36,11.18.74,97.95,2.77,105.72.3,1.47,62.69,2.66,63.26-.52,1.45-8,2.86-179.6,5.23-190.27,1.35-2.86,13.78-67,15.19-69.81,2.21,47.15-8.87,215.89-1.17,247.91.5,2.06,19,4.34,69,4C199.34,442.16,235,209.11,235,185.94Z" fill="#262521" stroke="#262521" stroke-linecap="round" stroke-linejoin="round" stroke-width="3"/><path d="M218.27,315.82c8.78-61,16.77-118.92,16.77-129.88,0-6.33-1.55-19-3.92-34.24" fill="none" stroke="#636363" stroke-linecap="round" stroke-linejoin="round"/><path d="M285.07,466.15c0,.5.05,1,.08,1.49l.6,10.55a1.18,1.18,0,0,0,.05.31.8.8,0,0,0,.07.2.14.14,0,0,0,0,.06,1.74,1.74,0,0,0,.11.18l.06.1s0,0,0,0a1.33,1.33,0,0,0,1.19.56l4.35-.49a1.54,1.54,0,0,0,1.4-1.93c-.09-.49-.17-1-.26-1.47q-.88-5.21-1.78-10.41a1.52,1.52,0,0,0-1.49-1.08l-3,.34A1.53,1.53,0,0,0,285.07,466.15Zm2.85,6.58,1.49-.2a1,1,0,0,1,1.12.86l.37,2.75a1,1,0,0,1-.87,1.12l-1.49.2a1,1,0,0,1-1.12-.86l-.36-2.75A1,1,0,0,1,287.92,472.73Z" fill="#84837e"/><path d="M457.13,336.13c-2.15-75.82-17.9-126.54-45.71-194-8.83-19.22-14.51-42.62-30.46-57.2-26.38-17.18-57.48-25.13-86.6-35.62-3.68-1.54-22.71,114.63-22.71,140.78s16.23,257.08,21.09,281.49c38.05-.76,85.61-1.68,85.78-2.28,6.89-23.52-11.52-249.35-11.38-249.38.51,7.25,17.36,62,19.83,69,2.65,7.45,8.93,187.71,11.53,191.53,3.78,5.55,60,6,60,.13C458.53,475.12,457.65,354.82,457.13,336.13Z" fill="#262521" stroke="#262521" stroke-linecap="round" stroke-linejoin="round" stroke-width="3"/><path d="M275.43,151.06c-2.26,17.06-3.78,31.62-3.78,39,0,8.89,1.87,41.4,4.54,81.42" fill="none" stroke="#636363" stroke-linecap="round" stroke-linejoin="round"/><path d="M173.11,61s-20.53,28.45-26.8,37.22c-4.58,6.42,44.51,12.37,72.22,42.39" fill="none" stroke="#636363" stroke-linecap="round" stroke-linejoin="round"/><path d="M201.89,206.26v.5" fill="none" stroke="#8e8e8e" stroke-linecap="round" stroke-linejoin="round" stroke-width="2"/><path d="M202,209.78c1.65,95.24-6.41,237.74-7.48,256.23" fill="none" stroke="#8e8e8e" stroke-linecap="round" stroke-linejoin="round" stroke-width="2" stroke-dasharray="1.01 3.02"/><path d="M194.39,467.52l0,.49" fill="none" stroke="#8e8e8e" stroke-linecap="round" stroke-linejoin="round" stroke-width="2"/><path d="M191.72,124.84c.11.11.22.24.33.37" fill="none" stroke="#8e8e8e" stroke-linecap="round" stroke-linejoin="round" stroke-width="2"/><path d="M193.61,127.69c2.06,4.24,3.68,11.62,4.93,21.42" fill="none" stroke="#8e8e8e" stroke-linecap="round" stroke-linejoin="round" stroke-width="2" stroke-dasharray="0.98 2.94"/><path d="M198.72,150.58l.06.5" fill="none" stroke="#8e8e8e" stroke-linecap="round" stroke-linejoin="round" stroke-width="2"/><path d="M128.18,218c15.19-69.82-7.73-129.46-7.73-129.46" fill="none" stroke="#636363" stroke-linecap="round" stroke-linejoin="round"/><path d="M316,58.06s38.52,39.58,38.9,46.75c0,0-53.54,35.44-54.16,42.32" fill="none" stroke="#636363" stroke-linecap="round" stroke-linejoin="round"/><path d="M331.86,164.72s-40.52,32.95-54.15,111c0,0,5.13,74.57,15.75,191.12" fill="none" stroke="#8e8e8e" stroke-linecap="round" stroke-linejoin="round" stroke-width="2" stroke-dasharray="1 3"/><path d="M378.36,85.12s-13.72,74-9,137.23" fill="none" stroke="#636363" stroke-linecap="round" stroke-linejoin="round"/><path d="M397.13,438s30.76,8.08,61.53,0" fill="none" stroke="#636363" stroke-linecap="round" stroke-linejoin="round"/><path d="M45.34,438s30.76,8.08,61.53,0" fill="none" stroke="#636363" stroke-linecap="round" stroke-linejoin="round"/><path d="M294.89,446.32s56.33,4.72,84.62-2.73" fill="none" stroke="#636363" stroke-linecap="round" stroke-linejoin="round"/><path d="M191.72,447.14s-26.89,3.39-65.63-1.85" fill="none" stroke="#636363" stroke-linecap="round" stroke-linejoin="round"/><rect x="284.88" y="453.59" width="5.37" height="13.94" rx="1" transform="translate(-27.21 18.15) rotate(-3.45)" stroke-width="3" stroke="#262521" stroke-linecap="round" stroke-linejoin="round" fill="#262521"/><path d="M334.68,163.34s-47.08-19.85-55.07-30.52" fill="none" stroke="#636363" stroke-linecap="round" stroke-linejoin="round"/><path d="M228.14,132.82c-8,10.67-55.75,31.9-55.75,31.9s38.46,28,52.07,107.6" fill="none" stroke="#636363" stroke-linecap="round" stroke-linejoin="round"/><circle cx="319.83" cy="163.34" r="2.42" fill="#636363"/><circle cx="184.69" cy="165.76" r="2.42" fill="#636363"/><circle cx="155.56" cy="97.04" r="2.42" fill="#636363"/><circle cx="345.85" cy="102.09" r="2.42" fill="#636363"/><path d="M157.6,492.11c-1.38-10.74-5.49-38.77-5.49-38.77H132.62s2.76,28.91,5.91,42.52c1.07,4.61,13.69,13.1,13.69,13.1S158,495.14,157.6,492.11ZM142,473.54a3.11,3.11,0,1,1,3.11,3.11A3.1,3.1,0,0,1,142,473.54Zm1.75,11.26a3.1,3.1,0,1,1,3.1,3.1A3.1,3.1,0,0,1,143.76,484.8Zm5.33,15.83a3.11,3.11,0,1,1,3.1-3.1A3.1,3.1,0,0,1,149.09,500.63Z" fill="#262521" stroke="#262521" stroke-linecap="round" stroke-linejoin="round" stroke-width="3"/><rect x="362.17" y="455.21" width="17.89" height="41.84" stroke-width="3" stroke="#262521" stroke-linecap="round" stroke-linejoin="round" fill="#262521"/><line x1="304.87" y1="286.15" x2="312.39" y2="355.65" fill="none" stroke-dasharray="1 3" stroke-linecap="round" stroke-linejoin="round" stroke-width="2" stroke="#8e8e8e"/><path d="M303.08,285.92l.06,1.05c.14,2.46.27,4.91.41,7.37a1.7,1.7,0,0,0,0,.22.78.78,0,0,0,.05.14v0l.08.13,0,.06,0,0a.94.94,0,0,0,.83.39l3.05-.35a1.07,1.07,0,0,0,1-1.34l-.18-1q-.62-3.64-1.25-7.28a1,1,0,0,0-1-.75l-2.09.23A1.07,1.07,0,0,0,303.08,285.92Zm2,4.6,1-.13a.7.7,0,0,1,.78.6l.25,1.92a.7.7,0,0,1-.6.78l-1,.14a.7.7,0,0,1-.78-.6l-.26-1.92A.71.71,0,0,1,305.08,290.52Z" fill="#84837e"/><line x1="179.77" y1="286.15" x2="172.25" y2="355.65" fill="none" stroke-dasharray="1 3" stroke-linecap="round" stroke-linejoin="round" stroke-width="2" stroke="#8e8e8e"/><path d="M180.55,284.74l-2.1-.24a1.05,1.05,0,0,0-1,.76c-.42,2.42-.84,4.85-1.25,7.27l-.18,1a1.07,1.07,0,0,0,1,1.34l3,.35a1,1,0,0,0,.83-.4l0,0,0-.06.08-.13s0,0,0,0a.66.66,0,0,0,.05-.15.78.78,0,0,0,0-.21l.42-7.37c0-.35,0-.7.05-1.05A1.06,1.06,0,0,0,180.55,284.74Zm-.38,6.46-.25,1.93a.71.71,0,0,1-.79.6l-1-.14a.7.7,0,0,1-.6-.78l.25-1.92a.71.71,0,0,1,.79-.61l1,.14A.7.7,0,0,1,180.17,291.2Z" fill="#84837e"/></svg>