<svg xmlns="http://www.w3.org/2000/svg" width="500" height="550" viewBox="0 0 500 550"><title>s06e14-04</title><path d="M409.37 137.42c-8.82-19.22-16.3-46.65-30.45-57.21s-51.87-21.65-68.69-27.28c-9-5-10.7-17-20.16-21.8-16.92-6.94-36.13-1-53.95-3.24-10.54-.52-20.9-.47-31.15 2.2-14.35 1.83-17.52 18.91-28.32 26.23 0 0-49.12 12.47-63.43 26.86-18.14 18.37-34.46 68.24-48.07 103.67-23.59 59.08-27.1 123-25.19 186-.18 5.6 66.88 11.7 67.15 10.26 1.19-8.37 5.5-31.74 5.75-34.89 1.26-11.18 6-24.61-5.15-32.56-5.69-6.88 9.44-5.5 11.81-16.18 1.35-2.86 2.87-5.63 4.29-8.46 2.21 47.16-2.55 94.72 3.6 141.53 1.41 10.78-1.88 18.06-.53 29.31.94 5.1 1.51 3.59 6.62 4.83 27.64 6.67 92.41 12.39 117 11.82 45-2.8 67.85-.54 112.62-11 1.34-.31 2.76.33 3.35-1.43 2.84-8.59.53-15.57 1.5-25.64.87-9 2.74-16.47 3.55-25.44q.3-61.72.62-123.46l.41-.08c.5 7.24 12.44 8.69 10.93 15.92-2.92 3.85-2.68 8-1.61 12.34 3.05 11.88 5.55 24 10.45 35.29 1.35 3.61 1.5 7.13-.51 10.66-5.43 8.92.3 18.49 1.27 28.12h63.71c1.82-14.72 2.69-29.56 3.63-44.31 6.95-74.67-23.24-144.58-51.05-212.06z" fill="#fff" stroke="#262521" stroke-linecap="round" stroke-linejoin="round" stroke-width="3"/><path fill="none" stroke="#636363" stroke-linecap="round" stroke-linejoin="round" d="M242.34 143.56l-.47 329.15"/><path d="M121.8 180.85s2.11 28.61 0 44.24.11 29.7.11 32.88 1.9 33.06 1.9 33.06M371.33 188.66s5.79 47.28 0 75.34" fill="none" stroke="#262521" stroke-linecap="round" stroke-linejoin="round" stroke-width="3"/><path d="M218.65 89.76s.43 62 2.21 70.19 1.65 51.3-.4 51.52-16.29 2-16.94 0 .68-47.3 3.12-51.07S211 88.21 211 88.21z" fill="#262521" stroke="#262521" stroke-linecap="round" stroke-linejoin="round" stroke-width="3"/><path d="M181.08 60.1c-5.75 10.28 22.15 52.18 22.15 52.18l23.84-27.79c4.05 19 15.27 59.07 15.27 59.07S256.14 99.62 257 85" fill="#fff" stroke="#636363" stroke-linecap="round" stroke-linejoin="round"/><path d="M271.33 90.54s-.44 48.63-2.22 56.85-1.65 51.3.4 51.52 16.29 2 16.94 0-.68-47.3-3.12-51.07S279 89 279 89z" fill="#262521" stroke="#262521" stroke-linecap="round" stroke-linejoin="round" stroke-width="3"/><path d="M257 85c11 15.14 29.64 26.35 29.64 26.35s30.63-41.52 24.43-54.09" fill="#fff" stroke="#636363" stroke-linecap="round" stroke-linejoin="round"/><path d="M195.1 39.13s-15 34.57 32 45.36M293.57 39.13S304.21 76.34 257 85" fill="none" stroke="#636363" stroke-linecap="round" stroke-linejoin="round"/><circle cx="250.5" cy="168.41" r="3.51" fill="#fff" stroke="#636363" stroke-miterlimit="10"/><circle cx="256.49" cy="125.47" r="3.51" fill="#fff" stroke="#636363" stroke-miterlimit="10"/><circle cx="250" cy="215.93" r="3.51" fill="#fff" stroke="#636363" stroke-miterlimit="10"/><circle cx="250" cy="269.06" r="3.51" fill="#fff" stroke="#636363" stroke-miterlimit="10"/><circle cx="250" cy="322.19" r="3.51" fill="#fff" stroke="#636363" stroke-miterlimit="10"/><circle cx="250" cy="372.57" r="3.51" fill="#fff" stroke="#636363" stroke-miterlimit="10"/><circle cx="250.5" cy="433.32" r="3.51" fill="#fff" stroke="#636363" stroke-miterlimit="10"/><path d="M463.49 368.46s-76.85 9.74-76.58 12.37 2.36 21.06 3.94 25 64.74 1.32 67.9 1.06 2.68-31.06 2.68-31.06zM34 370.24s77.43 2.3 77.42 4.95-.33 21.18-1.53 25.26S45.56 408 42.39 408s-5.65-30.65-5.65-30.65z" fill="#fff" stroke="#262521" stroke-linecap="round" stroke-linejoin="round" stroke-width="3"/></svg>