<svg xmlns="http://www.w3.org/2000/svg" width="500" height="550" viewBox="0 0 500 550"><defs><clipPath id="a"><path d="M123.86 291s-2.94 5.6-4.29 8.46c-2.36 10.67-17.5 9.3-11.81 16.18 11.12 7.95 6.41 21.38 5.15 32.56-.24 3.15-1.34 6.27-.37 9.58.51 8.43-3.19 16.94-4.38 25.31-1.5 8-2.61 15.83-1.53 23.93a5.17 5.17 0 01-1.14 3.3c-5.71 6.28-7.74 14-9.19 22.06-.57 3.18-.61 3-3.73 2-12.38-3.52-26.1-4.38-38.61-1.18-1.39.34-2.1 0-2.41-1.47-2-7.76-2.17-16.67-8.49-22.43a6.66 6.66 0 01-1.33-3.22A145 145 0 0139 372.86c-1.91-63 2.61-126.93 26.2-186C70.9 172 82 141.76 82 141.76l327.4-4.35s62.8 132.83 51.06 212.08c-2.74 18.49-.24 37.46-3.29 56-.48 4.66-5.2 7.09-5.56 11.78-1.21 5.28-2.07 10.65-2.9 16-.41 2.6-.42 2.83-3.09 2.33-12.48-2.66-25.25-5.49-37.8-1.58-8.33-.15-8.13-15.56-11.44-21.41-6.28-7.36-3.61-9-5.33-17.63-.9-9.7-4.68-20.27.79-29.26 2-3.53 1.87-7.05.51-10.66-4.9-11.29-7.4-23.42-10.45-35.29-1.06-4.31-1.31-8.5 1.61-12.34 1.49-7.15-8.84-11.38-8.84-11.38z" fill="none"/></clipPath><clipPath id="b"><path d="M372.19 291.55q-.27 61.74-.62 123.47c-.81 9-2.68 16.4-3.55 25.44-1 10.07 1.34 17-1.5 25.63-.58 1.77-2 1.67-3.35 1.44-44.58-7.74-101.65-5.72-146.65-2.93-24.59.58-58.62-1.67-83 2.09-5.22.6-5.68.28-6.62-4.82-1.34-11.26 1.94-18.53.53-29.31-6.15-46.82-1.39-94.38-3.6-141.53-.51 1 .1-25.63-4.4-56.13-1.24-8.45 4.56-12.17 3.19-21.38-98.25 18-22.17-113.82-9.38-130.34 27.32-18.2 77.59-30.43 77.59-30.43s6.74 55.45 58.31 55.93c51.38.47 58.61-54.86 58.61-54.86S352.59 63 379 80.21c7.41 6.79 37.94 50.06 35 98.46-1.71 27.83-40.43 13.66-40.43 13.66 2.89 25.38-1.27 98.58-1.41 96.64-.16.03.17 2.56.03 2.58z" fill="none"/></clipPath></defs><path d="M365.23 282.8s-1.73 202.07-5 204.25-151.41 0-167.06-3.27-53.14 5-57.87 4.15-5.46-18.39-3.64-26S133 282.8 133 282.8z" fill="#fff" stroke="#262521" stroke-linecap="round" stroke-linejoin="round" stroke-width="3"/><path d="M372.19 291.55q-.27 61.74-.62 123.47c-.81 9-2.68 16.4-3.55 25.44-1 10.07 1.34 17-1.5 25.63-.58 1.77-2 1.67-3.35 1.44-44.58-7.74-101.65-5.72-146.65-2.93-24.59.58-58.62-1.67-83 2.09-5.22.6-5.68.28-6.62-4.82-1.34-11.26 1.94-18.53.53-29.31-6.15-46.82-1.39-94.38-3.6-141.53-1.41 2.82-2.94 5.6-4.29 8.46-2.36 10.67-17.5 9.3-11.81 16.18 11.12 7.95 6.41 21.38 5.15 32.56-.24 3.15-1.34 6.27-.37 9.58.51 8.43-3.19 16.94-4.38 25.31-1.5 8-2.61 15.83-1.53 23.93a5.17 5.17 0 01-1.14 3.3c-5.71 6.28-7.74 14-9.19 22.06-.57 3.18-.61 3-3.73 2-12.38-3.52-26.1-4.38-38.61-1.18-1.39.34-2.1 0-2.41-1.47-2-7.76-2.17-16.67-8.49-22.43a6.66 6.66 0 01-1.33-3.22 145 145 0 01-2.7-33.25c-1.91-63 2.61-126.93 26.2-186 13.6-35.43 24.56-73.32 48.06-103.67 27.32-18.2 60-23.76 90.46-34.78a3.16 3.16 0 012.72.43c5 5.55 11.46 8.41 18.56 9.67 19.19 2.43 41.29 5.55 58.65-4.88 2.86-1.27 4.2-6.53 7.88-5 29.12 10.49 61 14.4 87.43 31.58 15.94 14.59 21.63 38 30.45 57.2 27.82 67.49 58 137.4 51.06 212.08-1.2 18.66-.24 37.46-3.29 56-.48 4.66-5.2 7.09-5.56 11.78-1.21 5.28-2.07 10.65-2.9 16-.41 2.6-.42 2.83-3.09 2.33-12.48-2.66-25.25-5.49-37.8-1.58-8.33-.15-8.13-15.56-11.44-21.41-6.28-7.36-3.61-9-5.33-17.63-.9-9.7-4.68-20.27.79-29.26 2-3.53 1.87-7.05.51-10.66-4.9-11.29-7.4-23.42-10.45-35.29-1.06-4.31-1.31-8.5 1.61-12.34 1.49-7.15-10.43-8.7-10.93-15.93z" fill="#848484"/><g clip-path="url(#a)"><path d="M398.49 182.62c-8.17.7-15.12 2.71-19.35 8.86q-7.41 9.38-14.8 18.76c-4 4.53-4.8 8.32-3.24 14.06q1.29 6 2.59 12c1 6.6 7.78 7.93 13.38 5a51.47 51.47 0 005.49-3.86c5.48-3.83 14-6 22.34-5.7l6.93 7.2c.88.9 1.77 1.87 1.71 2.92-.09 1.4-1.87 2.53-3.61 3.46-5 3-11.93 4.56-16.81 7.57-5.82 4.14-3.2 10.34-1 15.61a57.89 57.89 0 014.44 25.3 2.74 2.74 0 01-.47 1.64c-3.7 3.59-11.31-.67-16 .26s-5.39 4.5-5.25 7.4c-.15 18.18 16.29 19 31.74 17.59 8-.71 16.59-1.66 24 .39 2.38.66 4.59 1.63 7.18 1.88 4.82.47 25.1 3 28.76 1 1.23-.66-16.06-63.39-15-89.47.39-10 1-20.17-3.79-29.71-6.59-12.72-25.99-23.97-49.24-22.16zm46.02 155.29a6.16 6.16 0 00-4.89.11c-5.34 2.29-8.92 6-9.54 10-.33 1.24.52 2.12 1.64 2.66 5.58 3.18 12.48 7.22 19.63 7a10.23 10.23 0 009.09-6.86c5.21-12.3-7.73-10.82-15.93-12.91zm23.7 84.51a19.84 19.84 0 01-4.65-2.22c-1.77-1.2-3.11-2.64-5.14-3.68-2.43-1.24-5.62-1.8-8.26-2.86-5.39-2.18-7.82-6.15-9.93-9.85L432 389.39c-1.19-2.1-2.5-4.3-5.29-5.75-8.29-4.05-19.09 0-27.7 1.91a62.12 62.12 0 01-10.64 1.23v67.5c4.21.62 36.82-5.91 41.76-7.28 5.39-1.47 34.41-20.78 38.08-24.58z" fill="#636363"/><path d="M435.53 188.68l-13.25-27.2c-1.2 1-4 .33-5.58 1a2.26 2.26 0 00-1.25 2.59c.14 2 .29 4 .44 6a5.18 5.18 0 01-.47 3.23 4.74 4.74 0 01-3.91 2c.58 2-1.21 4.2-4.22 5.14a10.12 10.12 0 00-2.42.86c-1.9 1.27.35 3.35-.55 5-.69 1.24-3 1.85-4.22 2.94-1.88 1.71-.55 4 .83 5.86 1.42 1.72 2.41 3.79 4.11 5.25 3.17 1.46 5.69-2 8.87-2.11 4.27-.06 6 5.06 10.45 3.68 1.34-.49 1.61-1.63 2.76-2.28 1.79-1 5-.53 6.75-1.58a2.84 2.84 0 001.27-2.19 32.24 32.24 0 00.39-8.19zm-48.11 20.2c-2.27-.06-4.42.55-4.87 2.82a26.52 26.52 0 00-.43 13.41c.58 2.52 1.46 5.25-.57 7.48-3.34 3.65-12.21 3.72-17.19 6.6-5.4 3.13-4.6 8.38-3.39 12.85l13.86 51.32a2.32 2.32 0 001.77 1.92c4.58.73 5.46-6.44 5.52-9.5 4.73 3 7.06 7.33 6.18 11.44a1.93 1.93 0 01-1 1.48 6.13 6.13 0 01-2.66.35l-10.29-.13a144.72 144.72 0 00-6.16 38.84c3.41-2.76 8.61-5.86 13.91-4.59 3.18.77 4.94 2.91 8 3.85 3.24 1 7.13.42 10.62-.16 6.4-1.06 13.83-2.74 15.42-6.63.36-.9.38-1.88 1.16-2.68 2.52-2.57 10.09-1.13 13.18-3.46a4.7 4.7 0 001.51-2.3l3.92-10.06c8.42-2.47 18.21 4.21 27 2.27 4.1-.9 6.61-3.52 7.25-6.13s-.21-5.25-.91-7.86c-3.77-13.92-3.25-28.43-11.37-41.66a34.64 34.64 0 01-3.53-6.33c-.91-2.63-.71-5.33-.75-8a44.94 44.94 0 00-2.66-14.41c-.81-2.29-2.35-4.91-6.07-5.57-5.11-.91-9.12 2.47-12.94 4.7-3.43 2-7.83 3.31-11.38 5.23s-6.28 4.9-4.78 7.64c2.42 4.44 12.93 4.62 18.53 7.85-1.87 2.11-6.88 1.87-10.7 2.51-8.87 1.48-11.76 8.07-13.13 13.57-.47 1.87-.91 3.88.46 5.59 1.19 1.47 3.68 2.67 3.68 4.31 0 2.4-5.36 3.89-5.27 6.3.07 1.86 3.37 3.06 4.43 4.81.87 1.42.16 3 .8 4.5.85 1.93 3.8 3.19 6.07 4.64s3.93 3.8 1.88 5.37c-.72.93-3.11.78-4.43.12s-2.18-1.63-3.66-2.14c-3.89-1.34-9.69 1.19-12.95-.67-3.08-1.75.17-5.13-1.89-7.36-1.52-1.65-5.3-2-7.27-3.47a6 6 0 01-1.8-2.45 86 86 0 01-8.19-46.09 46.3 46.3 0 0111.21 4.48c5.29-2.89 1.08-9.57 7.31-11.67 3.87-1.31 9.95 0 12.36-2.19 1.93-1.81-.39-4.66 2.17-6.15 3-1.75 6.73.37 9.95.37 5.92 0 3.82-.36 6.2-3.26 3.59-4.39 12.19-7.25 10.35-13-4.46-13.85-38.88-9.17-54.46-8.7zm79.49 131.2c-8.44-3.23-20.45-3.75-21.08 3.82-.35 4.22 6.48 7.52 7.31 11.72.38 1.95-.57 3.94.05 5.87 1 3.22 6.29 5.63 6.58 8.92a10.75 10.75 0 00.08 2.6 2.88 2.88 0 002.89 1.63c1.64-.1 2.68-1.32 4.17-1.55zm-68.72 16.04c-4.43-.44-8.14-3.12-12.4-3 .08 6.45.3 12.9.5 19.35 2.85-.57 6.45-.11 8.81-1.28a3.13 3.13 0 001.38-4.65 3.13 3.13 0 01-.57-1.34c0-1.16 1.73-2 3-2.87 3.09-2.09 4.09-6.33-.72-6.21zm62.92 63.93l9.16-1.64a109.89 109.89 0 00-8.27-19.09c3 1 5.41-1.86 5.49-3.93a38.6 38.6 0 00-1.38-11.86l-6.11-.44c-4.51-3.15-7.75-6.95-9.36-11-1.06-3.75-3.66-6.63-8.26-6.2-1.49.18-2.75.82-4.25 1-2.45.26-4.66-.82-6.92-1.46-9.09-2.54-19.09 1.72-26.33 6.6-5.66 3.51-10.8 10-17.7 12.37-1.13.32-2.27.58-3.4.81v61.39a7.42 7.42 0 004.77.31c5.8-1.09 10.85-4 16.92-3.8 10.29.83 18.28 6.53 25.31-4.19 3 .77 6.63 1.51 9.33.41 3.92-1.61 18.72-13.77 23.55-14.66a5.66 5.66 0 01-2.55-4.62zm-13.88-26.65c-2.34 4.48-8.86 2.18-13 3.73-3.07 1.13-3.67 3.86-6.75 5-6.21 2.14-12.84-3.25-19.16-1.74l-3.89 5.05c-.77 1-7.93.36-9.47-.7a5.12 5.12 0 01-1.48-1.16c-.56-.91.57-1.88 1.84-2.47s2.81-1 3.6-1.88c1.73-1.83-1.08-4.19 0-6.19s6.41-2.39 8.23-.6c3.55 5.6 10-2.8 14.26-2.94 2 0 3.88.57 5.87.67 3.45.18 6.54-1.16 9.61-2.12 4.63-1.75 14.25-1.49 10.34 5.35z" fill="#262521"/><path d="M120.33 296.16c.09-2.83.07-5.88-2.44-8.17s-8.57-3-10.9-.64a5.06 5.06 0 00-1.2 3.18c-.49 3.91-1.33 8-4.87 11.17-4.45 4-12.11 5.58-18.34 8.3-10.14 3.94-22 16.88-14.38 25.61 2 1.72 4.09 3.52 5.18 5.89 3.26 5.21 4.62 9.63 2.73 15.5l-2 8.28c-1.34 4.5.61 7.18 5.51 7.69 8 1 14.87-3.45 20.18-7.48 7.93-6.41 17.48-12.26 24.23-19.71 12.44-15 3.31-32.81 1.06-49.3-.28-2.22-1.55-5.16-4.92-5M50.07 373c1.21.76 3.21.56 4.94.67 4.91.31 8.18 3.45 8.72 6.72s-1 6.64-2.61 9.89a14.78 14.78 0 01-4 5.68c-4.18 3.33-11.21 3.92-17.42 4.25-3.15.34-5.85-.4-6.35-3.66-1.47-7.16 1.44-15.13 3.13-22.4.54-2.33 1.09-5.18 5.35-5.67 5.37-.65 5.6 2.87 8.24 4.52zm40.54-206.34c6.07-.35 7.94 2.53 9.79 7.36 2.59 5.39 9.6 9.66 17.69 10.78 4.29.4 7.47 1.23 7.4 6q.3 6.88.61 13.78a8.24 8.24 0 01-.65 4.48c-2.12 3.87-8.44 3.4-10.33-.33-.87-1.63-.87-3.41-1.3-5.13-.74-3.32-5.94-5.37-7.53-1.24-2.32 6.24 4.69 13.65-1.46 19-1.73 1.48-4.36 2.43-5.8 4.05-1.25 1.41-1.43 3.13-1.72 4.77a32.32 32.32 0 01-3 8.89c-2.79 6.84-10.94 7.22-18 6.48-4.53-.44-9.18-1.19-12.75-3.16-12.68-7.87-10.82-24.12-7.85-36.53 1.06-4.88 2.58-20.22 4.45-22.82 4.77-6.54 19.41-15.9 30.45-16.38z" fill="#636363"/><path d="M120.7 357.77c-4.11-6.4-10.61-1.4-13.07 3.1a173.34 173.34 0 00-8 16.69c-.67 1.59-1.3 3.31-.49 4.87.53 1 1.65 2.1.93 3.06a4.29 4.29 0 01-2.41 1.13 42.11 42.11 0 01-15.91.53c-2.81 6.86-8.47 12.66-17 12.59-4.87-.24-8.76-1.37-12.64 2-4.1 2.71-9.84 3.93-15.47 5v51.11c22.35 2.74 46 1.55 68.69.9 5.12-25.3 28-78.99 15.37-100.98zM39.66 307.6c4.05 3.34 6.1 7.78 5.68 12.29 3.2-.55 6.4 1.41 5.82 3.56-.25.91-1 1.82-.82 2.7.15.62.79 1.11 1.34 1.61 4.45 4 3.92 10.28-1.23 14.53-2 1.48-3.26 2.57-2.31 5 2 6.71 1 18-4.79 23.18-4.56 3.33-10.75 2.15-11-4a81.61 81.61 0 016.75-40.65" fill="#262521"/><path d="M123 300c-1.69-6.1-4.83-5.23-12.11-7.69-3.78-1.28-4-2.45-4.59-5.15-.16-.77.07-6.32-2-6.42-2.72-.12-3.28 3.23-6 3.25-1.19 0-2.12-.67-3.26-.87a4 4 0 00-4.56 2.71c-.27 1.52.54 3 .58 4.57.1 3.63-4.78 7-10.29 7.1-6 .12-10.87-3-15.77-5.33s-12.4-3.78-16.44-.83a8.13 8.13 0 00-2.75 4.24q-1.3 3.62-2.44 7.24c-1 3.37-2 6.88-.69 10.21 2 5.23 9.45 10.21 6.29 15.2l5.44.74-2.27 15.23a1.5 1.5 0 00.09 1c.64 1.11 3.15.8 4.8 1.27 2.48.71 2.53 3.06 1.5 4.7-2.4 3.31-3.91 4.93-.33 8.05 1.7 1.66 4 3.52 7 3.37 4-.21 5.48-3.58 8.6-5.25 5.4-2.88 14.08 0 20.22-2.16s6.87-8.55 13.17-10.66c3-1 6.7-.84 9.47-2.06a10.09 10.09 0 003.81-3.18C130 327.2 126.49 312.79 123 300zm-17 27.45a6.51 6.51 0 01-6.59 1.42c-1.66-.7-2.27-2.18-3.95-2.87-2.3-.94-5.21 0-7.69.77a38.7 38.7 0 01-16.17 1.05c1.73-1.89 6.13-1.7 8.62-3.18s2.68-4.59 5.87-5.47c6.66-1.13 9.55 4.49 16.24-1.48 6-4 4.62 2.68 4.83 4.79.14 1.71.14 3.52-1.16 4.98zm-3.87-102.3c-.83-2.53 2-4.92 2.56-7.48.73-3.24-2.14-6.39-2.09-9.67.07-4 4.44-7.54 4.26-11.52-.11-2.54-2.08-4.87-4-7.08-3.07-3.56-7.63-7.64-13.79-7.1-6.46.56-9.18 5.4-14.72 7.1-5.78 1.78-12.29 0-16.19 4.06-3.36 3.52-18.94 76.11-13 80 3.28 2.77 9.6 2.46 14.94 2.6 6.54.17 13 1.42 19.53 1.18s13.65-2.58 15.13-6.78c.83-2.32.17-5.3 3.24-6.56 2.31-.82 5.08-.73 4.71-3.87q-.32-8.2-.62-16.42c-.1-2.45-.07-5.14 2.33-7 1.18-.92 2.88-1.58 3.59-2.69 1.99-3.05-4.81-5.51-5.88-8.77zm-16 11.41c-3.28.82-6.92.4-10.43.43-1.89 0-4 .13-5.42-.69s-1.51-2.3-1.46-3.58c.1-2.18.19-4.37.29-6.55-.22-6 6.93-6 12.42-5.86.24-4.49 3.53-8.11 8.64-7.22.58 4-3.92 8.49-1.2 12.46.52.68 1.3 1.25 1.9 1.9 2.88 3.12.44 7.81-4.76 9.11zm-10.45-62.07c-2 1.12-3.66 1.73-3.47 4.14-.78 4-5.36 5.83-10 5.81-1.23 0-2.51-.34-2.94-1.5-2.7-5.47 4.59-11 11.32-13.61 7.95-3.09 12.6.67 5.09 5.16z" fill="#262521"/></g><g clip-path="url(#b)"><path d="M256 119.19c31.78-12.39-40.32-6.08-48.76-1.13-10.66 12.54-34.23 19.16-41.72 33.15.87 4.15.3 7.63-3.6 10.37-6.9 7.66-25.94 4.73-26.44 17.66-.28 7.52 8.59 14.4 1.52 21.27-7.52 16.66 12.41 33.39 26.29 40.06 12.15 2.92 22.05-5.67 32.37-10.38 28-4.88 52.76-19.24 66.54-43.34 4.88-7.82 14.91-10.41 24.1-9.69 10.36-.88 18.69-7.49 29.11-7.83 4.42-.06 13.79 1.22 14.25-4.47-14.51-13.75 5.81-6.07-4.47-23.21l12.79-1c-11.6-27.45-44.66-18.22-67.5-15.91-2.23-.54-13.1-6.08-14.48-5.55z" fill="#636363"/><path d="M322.22 151.4c-3.62.91 8.92 10.87 9.13 16.78 26.74 25.18 26.26-18.87-9.13-16.78zM189.2 92.82c-8.57-5.44-22.19.93-25.52 9.84-6.18 6.72-17.15 10.68-14.38 21.73-.27 5.61 5.73 5.68 10.28 6.84 4.95 1.51 8.5 6 13.72 6.41 21.91-5.35 37.09-27.27 15.9-44.82zm5.88-10.66c-3.36 4.84-13.73-1.57-18.19 3.84-5.34 5.47-20.72 4.14-17.72-5.51 6.57-12.36 37.95-20.18 35.91 1.67zm97.05 6.46c4.14 6.83 31.77 5.21 36.49-.18.5-3.41 2.55-5.83 6.3-4.62 15.63 9.43 43.82 20.5 33.82-10.38-12.31-18.78-55.68-26.59-69.89-9.65-1.4 2-6.25 25.69-6.72 24.83z" fill="#636363"/><path d="M375.12 101c-11 12-11.18-3-21.44 3.75-4.06 6.34-21.81 55.25-4.74 46.48 4.54-24.43 30.39 5.95 34.13-12.45-.25-12.64 10.34.2 8.28 6.67 2.34 21.36-11.67 28-24.74 38.82 5.56 11.16 29.71 6.05 35-2.66 5.52-10.83 3.36-24.28 4.66-36.14-.27-18.73-16.2-35.69-31.15-44.47z" fill="#636363"/><path d="M344 182.67c-10.35 8.11-4.41 23.21-13.61 33-.83 18.24-2.16 49.8 19.56 56 11.12 16.55 6.06 39.95 20.91 56 20.28 22.09 8.74-174.99-26.86-145zm-59.68 18.14c-11.32 17.76-13.7 13.7-14.16 35.95-3.5 5.14 3.13 8.14 8.65 6.74 10.22-5.05 15.92-15.57 26-21.25 15.19-16.97-3.68-32.76-20.49-21.44zm3.2 52.81c-28.68 8.24-24.47 31.53-67.75 27.94-14 3.62-30-14.61-38.79-1-2.55 6.86 6.11 11.21 11.22 14.29 27.27 16.79 48.37 37.49 54 69.14 12.94 16.94 24.74-5.68 30.76-16.35 9.25-6 22-15 21.63-26.87C287.47 301 309 303.61 319 294.52c9.39-15.21-22.85-15.62-22.16-30-.84-4.38-.98-10.45-9.32-10.9zm-150.74 32.91c-7.11 9.9-4.48 20.62-3.62 31.39-5.42 19.68-20.69 13.72-18-5.57 2.72-14.39-6.28-33.85 6-44.42 14.97-6.81 27.98 5.23 15.62 18.6zm12.82 32.96c41.52-3.93 21 38.6 49.91 49 13.4 3 26.11 19.85 12.4 30.05-11.31 3.75-33.88-4.73-39.55 10.42-.75 4.75-4.25 7.37-9 8.1-2.93 4-4.19 7.74-10.47 7.41-4.82-.33-11.48 3.08-15.41.11-2.09-3.78-4.16-13.25-8.6-5.74 6.19 9.47-13.41 17.27-15.67 6.62-5.68-39.88-4.31-85.74 36.39-105.97zm154.75 37.95c-14.76 5.91-30.4 15.23-31.72 32.05-13.68 21.95 1.09 30.95 17.93 15.26 10.56-35.62 48.57-26.83 44.49-43.31-4.75-8.3-21.77-7.07-30.7-4zM346.52 376c-16.43 2.62-19.71 14.71-30.15 23.37-19.13 1.54-16.52 21.2 2.16 14.8 19.35-10.06 41.43-12.67 58.75-25.47 20.03-19.04-18.7-18.2-30.76-12.7zm22.59 32.93c-4.8-3.39-8.26 1.93-10.57 5.4-6.23 4.75-16.57 5-22.28 10.38-4.9 12.12 20.59 6.7 27.58 8.06 6.06-4.41 7.65-17.58 5.27-23.84zM125.62 125c9.84-5.47 39.89 15.83 29.3 26.29-22.55 13.5-15.77 31.73-28.11 39.16-15.78-1.25-8-30.43-27.7-25.64-15-2.34-7.76-20-4.31-27.67 4.69-12.62 21.25-5.89 30.82-12.14z" fill="#636363"/><path d="M296 71c2.46.28 17.71-1.27 19.43-2.81s4.85-2.75 6.46-1.11c1.9 3.92 3.8.13 6.36-.51 7.36 3 8.32 11.17-.82 5.68-3.32 5.93-7.65-.73-12.45 1.33-5.8 4.31 10.36 9.12-4.79 11.83 3.89 15.37-8 1.92-14.3 7.06.68-4.92-6.75-4.16-9.75-2.51-16.69 6-35.53 4.14-53.44 2.24 2.43 11.2 12.21 13.78 21.53 16.27 3.58 5.79 9 .26 14.38.27 8.15 5 15.38 3.78 24.62 1.15 34.31 2 8.86 12.33 42.3 4.43 11.5 5.54 4.76-15 13.29-19.69 1-1.64 3 .84 4.33.54 3.31-2.36 2.2-8.12.15-11.21-4.95-3.83 3.1-7.38 1.54-10.63-7.56-1.72-8.6-6.95.08-8.3-13.16-5.6-33-15.58-46.95-19.49-2.63.86-10.45 21.82-11.97 25.46zM195.05 83.24c.81 5.14-5 2.38-7.13 3.94-2.44 12.31-9.67.52-9.18 23.95 3.81 2.63 9.51.57 14.23 1.59 4.65 2.22 8 .47 11.51-2.65 17.37-.47 10.52-3 20.54-15.24 1.46-9.85-12.66-11.07-19.83-12.56-5.53-1.44-11.86-9.27-10.14.97z" fill="#262521"/><path d="M218.61 120.83c-3.19-7.36-14.81.8-20.78-.81-4.25-.62-8.65-3.46-12.42-1.64-6 8.63-19 .05-23.74 10.17 2-5.37-5.65-11.78-1.68-16.24 2.76-2.43 6.71-3.44 6-7.67 14.63-12.36 2.44-10.16-9-8.42 7-11.56 23.17-16.13 34.13-25.08-8.55-3.93-13-11.85-15.05-20.27-19.89.84-45 12-55.9 29.66-7.73 16.2-33.48 42.62-14.82 58.2 10.79 0 15.72-17 23.08-1.59 1.49 6-5 10-5.52 15.41-2.14 2.22-6.22 2.66-7.78 5.27-.65 1.65-2.78 5.25-4.57 3.17l-.3.28c.38-9.31-9.87-4-15-6.1C76.4 172 82 204.68 108.52 172.05c5.51 6.67-2.36 14.86.36 20.36 20.1 8.32 11.64 17 22.81 18.66 8-2.86 8.8-4.26 9.24 5.57.74 1.51 5.13-.91 5.17.75-.37-10.51 4.18-20.3 6.63-30.28 2.88-10.08-13.62-25 5.65-20.42 5.64-.89 5.82-9.21 11.35-10.57 14 .37 4.61-4.14 17.15-5.84.85-10.77 15.63-3.07 16.48-11.42 12.71 1.07 6.41-4 8.33-11 1.97-2.71 7.22-3.86 6.92-7.03zm-84.22-14.31c6.77-5.76 1.83-6.18 4.45-11.89 9.58-.7 8.76 6.84 4.61 13.16-.97 5.41-8.45 2.98-9.06-1.27zM153 148.17c-9.64 3.62-10.25 15.61-20.2 17.94-5.61 3.75.58 20-8.69 18.63-2.42-4.76 3.13-9.72 4.06-14.48 1-4 .12-8.33 2.08-12 2.54-4.78 9.35-7.35 10.82-12.45-.13-4.76 2.57-13 7.82-7.2.7 4.06 4.66 3.8 7.62 1.94 1.28 2.76-1.21 5.87-3.51 7.62z" fill="#262521"/><path d="M325.16 151.23c-4-16.7-24.82-8.28-37.32-12.66-5.48-1.44-34.11 10.52-20.74-1.77-8.32-5.54-20.83.91-30.14-4-17.67 1.81-33.65 12.28-50.55 17.58-31.72 14-3.69 15.75-4.31 25.28-14.15 1.14-30.87 8.69-20.43 24.13-4.79 17.46-3.73 21.24 5.56 36.55-21 1.72-12.1-17.84-41.45-17.44-2.93 11.16-15.39 51.31-.86 53.52 14.22 21.76 10.63 4.59 36.91 7.2 11.52-2.81.08-17.66 11-21 3.55-1 9-.13 10.1-2.76 2-18.27 36.65 4.08 49.28-5.64 4.86-5.17 10.26-7.59 17.37-8.85 14.93-8.4 20.27-27.42 15.65-42.46.43-5.62 7.57-6.12 12.3-5.54 3.15-2.66 6.14-1.54 9.79-.19 7.83 1 7.92-7.79 13.62-10.57 6.93-1.25 34.5 2.1 15.86-9.24-4-4 4.33-9.12 3.51-14 5.07.63 6.91-4.32 4.85-8.14zM244.9 191.3c-5.39 3.66-10 11.7-17.44 10.13-6-2.22-19.21 1-21.05-6.18-8.94-18.05 1.22-8.49 7.43-16.19 10 2.49 13.08-4.25 15.32-10.8 8.44-3.49 7.62 6.35 9.2 11.3 3.78 3.07 12.3 5.44 6.54 11.74z" fill="#262521"/><path d="M290.43 210.49c-2.53 2.33-10.88.12-9.59 6.19 2.3 5.21-13.61 25 .66 20.72 5.44-6.48 18.34-6.29 17.88-16.86.49-3.42 3.82-11 0-13.81-5.47-2.25-8.54-2.98-8.95 3.76zm42.41-16.64c-10.56 3.42-13.95 3.43-14.32 15.11-1.45 2.57-7.68 4.91-5.37 8.52-14.85 1 11.31 20.75 3.44 31-.93 2.4-1.1 4.8.34 7 5.36 7.33 6.3 20.26 15.27 23.66 5.68-.89 3.22 7.21 2.17 10.42 9.44.59 4 10.85 4.85 16.4 4.21 2.94 16.21-4.36 13.91 6.31-1.92 4.25-.85 7.83 3.33 9.85 1.28 2.47 2 5.73 5.68 4.8 11.25-2.87 18.07-47.11 12.35-57.5-3.87-7.19-14 .81-18.31-8.5-17 6.18-10.06-6-6.5-15.65 2.23-6.46-16.1-20.3-4.72-22.24 2.33-.31 3.2-2.39 3.33-4.11-.73-9.35 11.58-2.54 15.19-5.73 6.36-15.55-20.48-37.19-30.64-19.34zm-28.07 80.32c-24.17-2.25-2.86-22.86-38.63-23.47-3.32 7.75-11.13.57-17.07 2.4-3.75 2.31.53 7.85-3.27 10.68 12.06 18-16.84 9.1-26.68 10.69-36.75-22.13-28.28 15.26-14.65 35.93.93 2.17 3.14 1.43 4.95.91 7.15 3.87 4.6 17 5.1 24.21-.57 4.07 3.62 2.69 6.14 2.52 3.49 1.5 6.37 7.67 3.39 10.48-3.5 2.32.34 3.9 3.69 3.24a9.06 9.06 0 003.11 6.71c6.73-10.15 13.17-7.75 24.28-8.35 5.55-1.39 10.46-6.63 16.45-4.49-.34-24 3.09-12.07 15.47-23.79 4-7.71 1.5-17.15 5.61-24.71 7.24-5.13 28.47-14.55 12.11-22.96zm-30.51 38.14c-4.34 5.73-1.8-4.48-15.22 3.42-10.25-6.35-17 3.15-24.16-.44.14-8.27 12-4.12 17.86-14.35 4.38-3.31 12.24 5.4 16.08-1.45 8.56-13.7 10.67 6.69 5.44 12.82zM129 289.29c4.86.55 16.53-3.38 16.22 4.24 2.16 1.6 7.81 1.24 8.42 4.69 1.12 3-2.45 4.93-4.73 6.23-1.38 4.58.14 8.68-7.23 7.85-6.47-1.59-9.3 2.49-12.48 7-3.09 2.59-11.1 1.81-12.55 6.1.78 3.49-1.48 6.91-4.84 4-1.74-14.16-8.67-54.4 17.19-40.11zm74.73 62.22c-10.23-15.28 13.28-17.69-5.95-31.69 6.91-16.18-12.47-27.44-18.47-12.72-14.55-1.36-25.24 6-29.55 16.65-29.06 2.21-41.29 23.63-35.54 51.18-2.3 7.86 20.63 27.28.59 22-3.33 14-.17 17.62 11.61 8.17 6.53 0 13.86 2.81 20.06 0 9.42-2.83.57-14 11.58-9.59 5.86 4.94 14.67-3.4 17.57 4.16 25.38-6.53 9.07-21.21 17-23.14 6.14 1.05 10-2.7 8.38-8.73-.01-5.54 4.5-10.94 2.72-16.29zm-12.85-14c-3.74 17-9.34 15.51-24.47 15.43-4.64 2.94-7.53 13.81-14.15 6.25-2.73-6.3 7.69-22.67 14.51-14.91 5.26 1.4 4.16-4.63 6.47-6.95 5.06-.14 18.99-9.83 17.64.17z" fill="#262521"/><path d="M181 421.52c-4-4-4.66-9.3-4.76-14.27-5.48-4.29-18.13-.45-16.16 7.54 3.76 6.2.14 10-6.74 9.53-47.64 3.4-32.23 8.42-29.18 46.55 80.41-5.74 161.5-3 241.86-.59 1.74-.06 3.6-.67 3.36-2.63.12-8.86 1.34-27.78 1.46-36.64-11-.08-31.43-1.23-32.7-14.35 4.46-2.59 13 2.23 16.12-1.26 1.17-3.13 3.84-3.06 6.75-2.2 11.91-2.48 8.47-29.07-6.19-25.68-7.62.24-11.25 5.29-16.53 9.27-4.46 2.43-11.19 1.57-15.63 4-3.48 1.92-6.14 5.89-10.35 5-16.62-13.76 34.21-23.32 43.59-25.46 22.32-18.61-5.88-27.3-21.78-16.25-14.24 9.77-32.33 9.24-46.14 21-7.19 3.18-13.84-4.32-5.5-9.19 6.51-2.83 13.35-4.71 18.72-9.57 7.84-3.43 24.74-5.26 16.89-17.22-27.5-29.53-40.12 3.16-59.16 21.55 1.78 12.24 4.91 20.26-10.37 25.7-9.64 5.59-21.18 8.2-32.31 9.81-17.11 4.13-15.6 31.73-35.25 15.36zM387.63 102.8c2.28 3.51-6.4 7.72-2.61 10.25 6.07 3.06 11.12 16.37 18.82 9.39 2.45.08-1.21-5-.94-7.13 1-7.28-7.13-15.24-14.11-18.46-1.82-.84-5.8-9.46-7.86-8.14-2.53 1.61-.42 12.68-1 15 .66-.02 7.68-.96 7.7-.91zm-25.22 10.47c-8.37-4-8.37 3.94-12-.88-1.72-3.83-5-2.55-4.91 1.39-.83 2.63-5.34 4.17-4.53 6.8 3.5 3.91-.21 4-.69 6.82 3.64 2.56-2 4.66-2.66 7 .73 3.86 3.29 7.81 1.32 11.92 3.17.24 3.48 3.77 2.69 6.16 7.79-.39 3.34-13.11 7.53-17.61 2.42-4.94 11.28-1.26 5.16 2.7-2.07 1.6-1.1 3.23.7 4.28 1.38 7.56 12.34.93 14.9-2.68 3.86-4.69 2.13-10.17.49-15.16 3.41-6.4-.41-17.17-8-10.74zm18.12 106c-.78-3.92-3-7.48-5.24-11 11.54 4.6 7.23-21.59 1.27-10.05-3.47-15.59-.74 28.89-2.38 33.91" fill="#262521"/><path d="M402.24 155.53c-9-5-9.57-6.7-4.76-16.28-2.65-19.28-30.07-13.79-21 15.67-5.54 3.32-5.06-3.48-6.22-6.62-4.92-3.91-8.38 3.92-11.91 6.21-6.68.75-15.17 9.4-19.46.42-6.89-13.75-13.8 5.26 3.29 12.32 6.51 24.79 8.14 50.92 15.63 75.62 2.66-3 6.69-1.22 10-1 9.81-12 5.14-30.77 5.73-46.06-5-8.83 1.64-7.58 8.34-9 5.62-9.71 31.23-18.36 20.36-31.28zm-294.76 124.2c-5.6 3.09-9.57 5.87-5.34 11.9 1.33 3.42-2 6.2-4.42 8.39 1.88 5.17 8 13.26 14.66 11.29 7.15-6.79 12.07-69.68-4.9-31.58z" fill="#262521"/></g><path d="M372.19 291.55q-.27 61.74-.62 123.47c-.81 9-2.68 16.4-3.55 25.44-1 10.07 1.34 17-1.5 25.63-.58 1.77-2 1.67-3.35 1.44-44.58-7.74-101.65-5.72-146.65-2.93-24.59.58-58.62-1.67-83 2.09-5.22.6-5.68.28-6.62-4.82-1.34-11.26 1.44-20 0-30.81-6.15-46.82-.89-92.88-3.1-140-1.41 2.82-2.94 5.6-4.29 8.46-2.36 10.67-17.5 9.3-11.81 16.18 11.12 7.95 6.41 21.38 5.15 32.56-.24 3.15-1.34 6.27-.37 9.58.51 8.43-3.19 16.94-4.38 25.31-1.5 8-2.61 15.83-1.53 23.93a5.17 5.17 0 01-1.14 3.3c-5.71 6.28-7.74 14-9.19 22.06-.57 3.18-.61 3-3.73 2-12.38-3.52-26.1-4.38-38.61-1.18-1.39.34-2.1 0-2.41-1.47-2-7.76-2.17-16.67-8.49-22.43a6.66 6.66 0 01-1.33-3.22A145 145 0 0139 372.86c-1.91-63 2.61-126.93 26.2-186 13.6-35.43 24.56-73.32 48.06-103.67 27.32-18.2 60-23.76 90.46-34.78a3.16 3.16 0 012.72.43c5 5.55 11.46 8.41 18.56 9.67 19.19 2.43 41.29 5.55 58.65-4.88 2.86-1.27 4.2-6.53 7.88-5 29.12 10.49 61 14.4 87.43 31.58 15.94 14.59 21.63 38 30.45 57.2 27.82 67.49 58 137.4 51.06 212.08-1.2 18.66-.24 37.46-3.29 56-.48 4.66-5.2 7.09-5.56 11.78-1.21 5.28-2.07 10.65-2.9 16-.41 2.6-.42 2.83-3.09 2.33-12.48-2.66-25.25-5.49-37.8-1.58-8.33-.15-8.13-15.56-11.44-21.41-6.28-7.36-3.61-9-5.33-17.63-.9-9.7-4.68-20.27.79-29.26 2-3.53 1.87-7.05.51-10.66-4.9-11.29-7.4-23.42-10.45-35.29-1.06-4.31-1.31-8.5 1.61-12.34 1.49-7.15-10.43-8.7-10.93-15.93z" fill="none" stroke="#262521" stroke-linecap="round" stroke-linejoin="round" stroke-width="3"/><path d="M121.2 171.92s3 37.54.91 53.17.11 29.69.11 32.87 1.89 33.04 1.89 33.04m247.42-125s5.9 70 .11 98l1 27.47" fill="none" stroke="#262521" stroke-linecap="round" stroke-linejoin="round" stroke-width="3"/><path fill="none" stroke="#636363" stroke-linecap="round" stroke-linejoin="round" stroke-width="2" d="M294.06 64.56l6.49 1.69m-4.39-10.14l6.78 1.77m-54.77 40.57v6.73m9.62-7.46l.34 6.71m8.17-9.4l1.2 7.07m5.91-10.9l2.66 6.95m4.02-11.98l4.08 6m1.5-12.31l5.67 4.3m-1.45-11.44l6.63 2.88m-94.24-11.04l-5.68 1.48m3.58-9.93l-5.9 1.54m44.27 40.07l-.35 6.71m-8.16-9.4l-1.18 6.98m-5.93-10.81l-2.5 6.52m-4.19-11.55l-3.87 5.7m-1.7-12.01l-5.23 3.97m1.01-11.11l-6.04 2.62"/><path d="M204.73 50.86s4.93 41.83 44.6 40 41.6-41.27 41.6-41.27" fill="none" stroke="#262521" stroke-linecap="round" stroke-linejoin="round" stroke-width="4"/></svg>