<svg xmlns="http://www.w3.org/2000/svg" width="500" height="550" viewBox="0 0 500 550"><path d="M372.08 291.55q-.27 61.74-.62 123.47c-.81 9-2.68 16.4-3.55 25.44-1 10.07 1.34 17-1.5 25.63-.58 1.77-2 1.67-3.35 1.44-44.58-7.74-101.65-5.72-146.65-2.93-24.59.58-58.62-1.67-83 2.09-5.22.6-5.68.28-6.62-4.82-1.34-11.26 1.94-18.53.53-29.31-6.15-46.82-1.39-94.38-3.6-141.53-1.41 2.82-2.94 5.6-4.28 8.46-2.37 10.67-17.51 9.3-11.82 16.18 11.12 7.95 6.41 21.38 5.15 32.56-.24 3.15-1.34 6.27-.37 9.58.51 8.43-3.19 16.94-4.38 25.31-1.5 8-2.61 15.83-1.53 23.93a5.17 5.17 0 01-1.14 3.3c-5.71 6.28-7.74 14-9.19 22.06-.57 3.18-.61 3-3.73 2-12.38-3.52-26.1-4.38-38.61-1.18-1.39.34-2.1 0-2.41-1.47-2-7.76-2.17-16.67-8.49-22.43a6.66 6.66 0 01-1.33-3.22 145 145 0 01-2.72-33.3c-1.91-63 2.61-126.93 26.2-186 13.6-35.43 24.56-73.32 48.06-103.67 27.32-18.2 60-23.76 90.46-34.78a3.16 3.16 0 012.72.43c5 5.55 11.46 8.41 18.56 9.67 19.19 2.43 41.29 5.55 58.65-4.88 2.86-1.27 4.2-6.53 7.88-5 29.12 10.49 61.05 14.4 87.43 31.58 15.94 14.59 21.63 38 30.45 57.21 27.82 67.48 58 137.39 51.06 212.07-1.2 18.66-.24 37.46-3.29 56-.48 4.66-5.2 7.09-5.56 11.78-1.21 5.28-2.07 10.65-2.9 16-.41 2.6-.42 2.83-3.09 2.33-12.48-2.66-25.25-5.49-37.8-1.58-8.33-.15-8.13-15.56-11.44-21.41-6.28-7.36-3.61-9-5.33-17.63-.9-9.7-4.68-20.27.79-29.26 2-3.53 1.87-7.05.51-10.66-4.9-11.29-7.4-23.42-10.45-35.29-1.06-4.31-1.31-8.5 1.61-12.34 1.49-7.15-10.43-8.7-10.93-15.93z" fill="#262521"/><path d="M116 175c3.1-1.59 1.31-6.56-1.61-8.46s-6.8-2.93-8.25-6.09c-1.67-3.65.5-9-2.82-11.3-7.64-1.26-13.32-7.87-7.89-15a14.68 14.68 0 01-8.75-3.87c-1.92 3.94-3.85 7.87-5.9 11.74 5.86 3.13-2 10.7 1.51 13.77 1.22.95 3 .64 4.5.82 4.8.58 7.33 7.51 4 11 3.36 2.55 8.71-1.29 12.27 1 6.64 9.39.76 14.1 17.78 19.95v-11.51c-1.59-.76-3.24-1.4-4.84-2.05zm5.55 49.32c-5.56-2.28-7.69-7.86-9.54-13-5.35-3.22-5.45-.76-8.06-7.68-8.88-5.89-8.26-.88-9.71-13.25-2.34-5.79-11.27-5.11-15.08-9.72-1.49-1.81-3.31-12.16-7.62-12.83a44.91 44.91 0 01-2.36 7c5.11 4.87 2.55 11-2.7 14.93 17.62 3.06 5.9 19.72 18.43 23.89 1.06.77 1.74 2.38.88 3.37 39.54 5.18 6.42 18 23.69 34.93 3.9 5.27 5.44 13.87 13.06 14.85-1.24-19.87-.99-42.49-.99-42.49zM73 265.78c2-1.38 4.31-4 2.8-5.92-1.79-2.31-6.35.14-8.14-2.19a3.63 3.63 0 001-4.19c-1.32 1.52-3.84-.67-3.72-2.67s1.49-3.81 1.5-5.81c0-2.64-2.13-5.7-.29-7.59a7.66 7.66 0 01-6.39-.59c5.42-4.78-3.08-10-8-7.91-.43 2.49-7 29.19-8.15 34.95 2.35.83 5 .56 6.49-1.38a13.54 13.54 0 0012.71 8.68c2.21-5.49 8.46 1.83 12 .86a4.2 4.2 0 00-1.81-6.24zm40.47 58.43c-6-13-11.94-9.28 1.23-18.74-6.5-.55-13-7.32-5.28-11.61l-5.55-2.28c.19-1 .39-2.07.59-3.11-8.4-.16-14.22-16.9-23.4-10.71 2.6 1.62 6 2.4 8.13 4.62 1.25 2.59-4.46 3.55-4.76 6.41l7 2.25c1.13 2.27-3.8 4.07-3 6.46.42 1.2 2 1.44 3.19 1.71 8.15 1.6 11 12.76 4.71 18.13 4.21.52 10.33 3.34 8.68 8.44a7.61 7.61 0 011.16 10.22l4.17 1.63c-2.54 4.71-3.73 11.07 1.74 13.07 1.17-4.63 2.33-22.45 1.39-26.49zm-19.81 46.27c-10.07-12.73-.52-21-6.77-27.62-1.44-1-3.62-1.28-4.11-2.94-.4-1.34.6-2.63 1.07-3.94 1.26-3.6-2.7-7.82-6.36-6.78 2.77-5.43 1.38-11.34-5.17-9.15-9-.5-17-6.68-25.39-9.66a39.45 39.45 0 001.26-6.57c-2.16-.25-4.8-1.44-7.49-2.44a244.47 244.47 0 01-1.43 25.07c7.14 2.62 13.59-2.23 20.17-3.56-1.3 4.49-1.9 10.66 2.37 12.57 2.34 1 5.57.37 7.09 2.42 1.23 6.1 5.77 6.72 9.84 10.54 6.59 8.63-3.19 23.16 7.09 29.17 1.59 2 .45 4.87.24 7.41s2.37 5.77 4.31 4.11c-2.57-5.97 5.47-12.51 3.28-18.63z" fill="#918b86"/><path d="M67.68 369.87c5.91-7.3-12.27-11.46-17.08-13-6.05-1.43-8.27-9.23-12.2-11.5V371c5.49-3.73 11-4.76 14.19 1.95 3.19-2.16 5.54 3.27 8.52 3.37 1.26.06 2.74-.64 3.66.22 1.12 3 3.65 6 7.29 5 3.45-3.79.71-11.09-4.38-11.67zm1.1 21.92c-9.16-2.94-19.76-1.75-29.17-2 0 0 1.86 14.56 1.43 12.74a14.71 14.71 0 009.45-3.42c-.42 1.84 1.63 3.5 3.52 3.38 3.94-.29 5.76-4.89 9.26-6.15 2.27-.43 7.3-1.27 5.51-4.55zm340.6-245.72a5.1 5.1 0 012.77-3.86c-.95-1.58-4.69-9.61-5.92-11.88a14.8 14.8 0 01-9.2 4.31c5.42 7.2-.24 13.76-7.9 15-3.32 2.25-1.14 7.65-2.81 11.3-1.45 3.16-5.34 4.19-8.26 6.09s-4.71 6.87-1.61 8.46c-1.5.57-3 1.17-4.49 1.85 0 3.78.47 7.54.75 11.31C388.42 183 383 178 389.37 169.12c3.57-2.27 8.91 1.57 12.27-1-3.3-3.53-.78-10.46 4-11 8.9.42 4.22-5.28 3.74-11.05zm11.14 33.76c1.1-3.32 6.73-7.77 2.68-11-6-3.47-8.21 10.21-9.94 12.31-3.8 4.61-12.74 3.93-15.07 9.72-1.45 12.38-.85 7.36-9.72 13.25-2.63 7-2.7 4.44-8.05 7.68-1.71 4-2.78 8.67-6.75 11.29 0 0-1.14 35.78-1.4 42.08 6.54-.53 7-8.45 10.67-12.71 17.25-16.92-15.82-29.78 23.69-34.93-.86-1-.18-2.6.88-3.37 12.5-4.14.85-20.87 18.44-23.89-3.13-2.72-6.58-6.44-5.43-10.43zM432 195.87l.57 2.35c-6.16 2.38-.16 10.65 5.11 9.82-1.42-4.26-3.86-8.11-5.68-12.17zm13 35.2c-4.69-4.1-19-1.44-12.33 6.23a7.66 7.66 0 01-6.39.59c1.84 1.89-.29 5-.28 7.59 0 2 1.32 3.82 1.44 5.83s-2.44 4.19-3.72 2.69a3.62 3.62 0 001 4.19c-1.78 2.33-6.35-.12-8.14 2.19-1.51 1.95.77 4.54 2.81 5.92a4.2 4.2 0 00-1.81 6.22c3.56 1 9.83-6.35 12-.86a13.56 13.56 0 0012.77-8.66c2.62 3.34 8.45 1.75 10.64-1.9-1.21-5.44-6.57-25.43-7.99-30.03zm-37 58.22c-.3-2.86-6-3.82-4.75-6.41 2.1-2.22 5.53-3 8.12-4.62-9.19-6.18-15 10.54-23.4 10.71l.6 3.11-5.57 2.28c4.54 1.63 4.31 8.1 0 9.94a33.48 33.48 0 01-1 7.05c-1 3.26 2.71 20.33 2.79 20.62a7.41 7.41 0 012.6-5.69c-1.65-5.11 4.46-7.92 8.67-8.44-6.34-5.37-3.43-16.53 4.72-18.13 1.23-.27 2.76-.51 3.18-1.71.84-2.39-4.1-4.19-3-6.46zm51.38 11.31c-4.7-1-10.87 3.22-15.14 3.72a39.42 39.42 0 001.25 6.57c-8.41 3-16.4 9.16-25.39 9.66-6.54-2.19-7.94 3.73-5.16 9.15-3.67-1-7.63 3.18-6.36 6.78 2.33 4 .75 5.27-3.05 6.88-6.21 6.54 3.26 15-6.77 27.62-2.19 6.12 5.86 12.66 3.29 18.63 1.94 1.66 4.52-1.57 4.31-4.11s-1.35-5.42.24-7.41c10.27-6 .49-20.54 7.08-29.17 4.06-3.8 8.63-4.47 9.84-10.54 1.53-2.05 4.76-1.38 7.09-2.42 4.27-1.91 3.67-8.08 2.37-12.57 10.33 3.38 19.51 8 28.21-2.25-.19-2.94-1.66-16.62-1.81-20.54z" fill="#918b86"/><path d="M460.19 346.73c-8.91-6.2-9.8 8.58-18.37 10.6-4.79 1.57-23 5.74-17.08 13-5.09.58-7.83 7.88-4.37 11.67 3.64 1 6.16-2 7.29-5 .92-.86 2.39-.16 3.65-.22 3-.1 5.34-5.53 8.52-3.37 5.76-11.4 12.34.46 20.36-1zm-2.68 60.6c.11-2.48 1.3-15.87 1.43-20.11-2 .06-4.42 2.09-6.39 3.23-2.78.23-37.2-2.05-27.59 5.35 3.31.77 6.44 1.6 8.64 4.5 2 3 8.5 4.17 8.33-.66a14.74 14.74 0 009.46 3.42c-.63 2.66 1 5.39 3.45 6.71.87-.84 1.76-1.65 2.67-2.44zm-95.12-293.74c-2.05-.38-2.61-2.11-3.74-3.43-1.5-.38-4.36-.37-2.38-2.47 2.06-.83 4.06-2.72 3.09-5.15a3.15 3.15 0 01-5.24-1.25c.36-3.43.2-8.42-4.28-4.44-.92.84-2.3 1.68-3.32 1a43.53 43.53 0 000-6.46c-1.67-.33-3.25 2-4.77 1.2-2.67-1.8 1.82-5.09.68-7.29l-1.5.06a6.93 6.93 0 00-.06-4.34A10.19 10.19 0 01336 82.3c1.2-2.2 1.23-6.52-2.12-3.41-2-.56.67-4-2.84-4-4.77 1.57-10.85.44-3.09-3.2 1.61-1.16 1.38-4-.83-3.48-2.47.49-7.05 1.88-7.59-1.73.89-5-3.34-.64-5.28-1.78.86-1.73 1.3-4.79-1.08-5.39-1.49-.26-3 1.34-4.36.72.81-3.86 2.06-6-3.28-5.56-1.25 5.44-1.71 9.91-3.64 14.55l3.62-.14c-1.56 4.45-1.93 7.7 3.91 6.48-1 1.49-1.83 4.08.1 5.14s4.61-1.67 6-.1c1.17 3.56 2.93 1.83 5.55 1.06a10.82 10.82 0 00-1 3.86 3.51 3.51 0 012.53.11c-1.2 5.85 0 5.14 5.11 4.79-1.51 2.92-.34 5.8 3.21 4.73 4.77 2.45-3.1 10.12 7.54 9.2l-.72 3.66c-7.35-.88.39 5.72 3.29 6.45-3.4 2.69 2 5.47 4.07 6.88 1 1 2.29 2.5 3.49 1.76 1.07-1.21 1.76-3.66 3.87-2.16 2.17 2.19 5.8 5.46 8.94 3.11 1.74-1.79-.45-5.29 1.23-7.14a1.69 1.69 0 00-.24-3.12zM382.74 85c-2.95-4.53-7.93-7.59-12.35-10.44a6 6 0 01.45 3.59l-3.5.58c-1.46 2.85 3.49 2.77 4.7 4.19 1.67 2.35-1.25 4.81-3.64 4.63-.89 2.74 2.36 4.31-1.67 6-1 1.08.26 2.82 1.63 3.32 2.14 1.19 4.7-1 6.66 0 1.53 2 3 4.27 5.52 5.3 2.13-5.37-.09-11.95 2.2-17.17zM191 66.4c-1.23-4.36-7.62-7-6.11-12.14-9.81 3.52-19.43 8.05-29.61 10.35-.82 9-4.8-.2-8.52 1.67-2.17 1.62-.75 4.06 1.68 3.5 1 .29 1.09 1.93.24 2.59-2 1.39-4.11-.65-5.95-1.3-1.59.91-.81 3.9-2.46 4.68-1.47.7-2.78-1.13-4.16-2-4.42-2.48-7.59 2.55-10.25 5.23-2.6.61-5.65-.82-8.16.19-3.28 4.83 1.3 14.64-5.38 17.22a12.87 12.87 0 010-4.59 4 4 0 00-3.49 4.71c.44 1.72 2.08 3.23 1.65 5-.37 1.48-2.22 2.67-1.67 4.09 1.36 2.41 4.17-.1 6-.6 3.17-.29 7.1 1.75 7.86-2.52 5.45-8.84 7.18 5.9 10.74-1.38 1.08-2.32 2.6-4.94 5.14-5.22 3.71-.59 5.74 5.84 9.52 3.82 4.1-3.06-4-7.69-1.06-9.26a7 7 0 016.44.7c6.95-3.9 5.15-12 15.31-6.88a.94.94 0 001.41-1 4.14 4.14 0 015.81-3 5.43 5.43 0 00-1.57-5.53c1.17-2 4.86-1.38 5.31.9.08 1 .18 3 1.62 2.56 1.92-1.51 1.21-4.57 2.6-6.31 3.19-1.57 7.81 1.5 7.06-5.48z" fill="#918b86"/><path d="M377.79 145.74a43.7 43.7 0 001.24-4.25c-1.3-.79-2.62-1.34-2.56-3.18-2.73-1-4.92 0-7.63.65-5 1-9.93-.47-13.61 3.89.25-7.71-12.53 2.34-10.57-6.77-7.37-1.19-5.27-2.72-6.52-9.08-4.84 0-4.57-.64-8.36-2.21-1.63-.68-3.18.89-4.13-1.11-.65-1.39 1-3.52 1.87-4.5-1.48-1.94-4.24-2.5-6.58-2.28a20.4 20.4 0 01-.79-3.82c-11.08.94-2.16-8.62-16.4-7.81-.43-4 3-9.48-3-10.52-4.75 1.55-3.43.42-7.37-2-1.81-.63-1.81 2.1-4.14-.22a3.45 3.45 0 01-.61-2.68 67 67 0 01-26.2 14.24c3.77-.2 4-1.62 4.19 2.66 3.32 2.52 5.85-1.82 9.1-1.52s2.16 2.75 3.89 4.59c3 3.16 9.54-.32 8.86 5.49 1.95.13 2.77-1.52 4.71-1.48 0 4.42 0 3.39 2.67 3.93.22 0 1.43-1.18 2-1.2.82 0 1.25 1 1.58 1s4.29.09 4.27.07c2.52 2-1.13 4.29-2.94 4.58 0 2.86 3.81 1.7 5.56 1.07.17 1 .93 4 1.91 4.46 2.73 1.38 3.29-2.2 5.37-2.81 5.41-1.58 4.45 5.6 4.37 8.94 1.69.51 3.61-.49 5.27-1 2.72 4.06-1.51 7.15 3.68 7.08 4.79-.07 5.51-2.38 7.13 2.83 1.57-.37 3-1.14 4.58-1.14 1.52 3.78-.62 6.53-3.77 8 1.27 3.44 4 .25 6 1.43 2.58 1.49.61 6.77 3.6 9.19 4.09 3.32 12.13 2.23 7.91 10.33 2.71 2.74 6.14 3.26 9.36 5.06 3.79 2.19 5.41 6.94 10 7.47-2.77-28.68 3-28.53 4.35-36.57a2.91 2.91 0 011.71-.81zm-167.7-55.19c-.84 2.2-4.28 1.17-6.16.88.73 5 2 4.8-3.63 5-.81.29-.68 1.82-1.68 2.09-1.45.4-1.24-1.18-2.25-1.47a16.17 16.17 0 00-6.33-.75c.42 2.68-.68 3.84-3.38 3.38.19.84-.29 2-.11 2.89-4.86 1.13-9.09-3.7-12.91-1.08-1.89 1.84-.38 2.68-3 4.14-1.92 1.07-3.42-.28-3.64 2.93-1.57.29-2.93-.37-4.38-.62.61 6.27-9.21 4.46-13.17 4.48-.45 2.41 2.25 3.51.91 5.31-2.48 3.32-3.7-1.34-5.58-1.58-5.2.72-6.56 7.68-5.54 11.94-3.56 1.05-6.11-1.17-6.34 4.08-.18 4.14 2.17 5.87-3.64 5.79-.32 1.15-1 5.43-1.93 6.28-1.31 1.15-3.64-.43-4.89.75s.24 3.91-.36 5.38-3.31 2.18-3.59 3.47c-.65 2.93 3.3 3.77 2.72 7.73-.71 4.93-1.16 8.76 3.81 11.73 2.23-3 .32-6.51 1.5-9.57 1.42-3.68 3.09-1 6.35-.72-.11-4.66.21-6.17 4.91-6.68 2.86-1.66 4.7-3.63 8.7-1.86 1.59-3.87-1.26-3.81-3.6-5.31 2.31-3.66 5.08-2.2 6.56-6.37.86-2.42-.59-2.67 2.3-3.73 3.44.2 6.49.43 10-.77 3.08-.62 4.08-.66 5-4.45 3.1-.84 5.1 2.77 8.1 1a3 3 0 00-.66-5.57c2.93-2.38 11.56-2.32 13.2 1.83 1.23.46 2.84-.2 4.11 0 3 .59 6.9 3.44 6-2.62 5.76-1.31 3.2 5 7 6.74 6.51 1.37 9.59.85 3.51-5 1.82-1.55 4.92 0 7.12.3 2.83-3.24 1.3-6.23.84-9.72 4.82-2.26 16 1.07 14.6-7.65 2.56-.44 4.3 1.17 6.66 1.9-1.09-11.61 3.63-4.58 8.22-10.2-3.22.08-19.22 1.21-35.35-14.3zm-73.88 91.92c3.59-.48 6.49-1.41 7.7-4.82 2-1.88 4.76 2.68 7.4 2 1.81-.49 2.22-3.17 4-3.82 2-.75 3.92 1.71 6.09 1.76 4.2.1 5-8 9.15-7.63 3.22 1.05 3.76 1.8 6.77-.24 2.19-.44 3 3 4.95 4s4.71-1.93 3.37-3.84c5.18.83 18.05 2.9 15.92-5.9 3.8-1.49 5.25 2.09 7.22 4.22 1.42.58 2.63-1.26 2.78-2.78s.09-3.35 1.37-4.19c1.47-.12 1.37 2.79 2.83 3.08s1.9-2.07 3.28-2.36c1.58-.33 2.18 2 3.45 3 2.6 2.07 6.43-2.32 9.48-1 3.38 2.57 5.17-2.12 3.54-4.85a4.22 4.22 0 014.14 1.74l.76-5.44c3.8 2.56 8.75-2 6.49-6 4.29-2.94 8.52 3.17 5.77 7a3.93 3.93 0 00-.88 2.15c1 2.24 2.95 4.44 1.84 7.12a3.8 3.8 0 01-5.17-.89c-1.86 5.2-9.25 6-13.57 8.74-.7 7.25-10.06 5.84-14.56 2.74a9.36 9.36 0 01-4.13 5.84c-.47-6.83-7.23-8.05-9.6-1.41-1.24 3.12-1.35 8.56-5.46 9-2.43-.26-3.57-4.69-5.79-3.69-1.65.75-2.1 4.19-3.69 3.32l-.49 2.92c-2.85 1.15-5.42-.64-7.51-2.39-4.68-3.16-11.28 1.39-10 6.89l-4.57.18c-1.66 2.48 1.68 6 .29 8.66-2.56 3.72-7.22.13-8.72-2.91-1.93 7.86-6.62 12.15-14.69 9.18-5.72 1.65-7.63-2.46-5.31-7.7-2.9-1-13.12 1.36-12.19-3.2.78-4.95 1.53-17.02 7.74-18.48zm183.28-8.68c-4.42.23-6.78-5.36-10.07-7.73l1.39-4.92c-3.32.92-9 .37-8.75-4.09l-4.19-.55c1.4-3.25.38-9.61-4.22-8.11l-.13-4.22a18.4 18.4 0 01-10.36-2.17l-.13-5.85a17.74 17.74 0 00-14.82 3l-3.51-2.21c-5.29 11.39 6.29 7.75 3.58 17.8 2.75 1.54 6.4-3.26 8.85-1.29 1.58 1.27 1.2 4.59 3.21 4.82 1.81.21 3.74-2.65 4.89-1.24l.23 8.93a7.24 7.24 0 004.87-2.31 10.21 10.21 0 01-.05 7 13.87 13.87 0 005 .88c4 8.1 16.57 2.83 15.88 9l-5.87.61c-1.43 4.78 8.25 3.43 8.2 7.58-3.37 6.34.14 6.47.21 12.3-1.28 3.73-4.65 6.35-.31 9 3.15 4.22-9.38 12.58 3.21 12.41 2.82 1.21.16 9.07 4.63 8l1.54 8.48c7.09.82.53 10.89 13.18 11.88a3.07 3.07 0 003.75 3.66c.66-.24 1.33-.73 2-.5 1.14.38.76 2 .73 3.24 1.15 6.74 8.8 5.45 6.26 14 .69 1.8 3.39.65 5.31.84 3.56.36 4.91 6.06 8.48 6 6.7-1.18 1.64-10.48 4.23-14.47 3.35-3 6.65-6.85 3.4-11.38-2.29-4.49-10.13-5-9.48-10.86-.54-1.81-3-1.86-4.85-2.26-5.7-1.28-6.52-7.46-5-12.17-.52-2.95-2.85-2.09-4-.08-4.67 2.46-6-4.67-3.82-7.81a9.55 9.55 0 01-3.32-8.41c-3 3.7-8.43-.66-6.38-4.64a4.65 4.65 0 003.86-2.59c-3.77 1-4-4.23-2.53-6.61-5.24.68-6.3-6-5.41-10a4.87 4.87 0 014.53 1c.83-6.08-10.68-2.5-6.6-14.69-2.51-.06-5.11.41-7.62.73zM133.54 277.08a33.89 33.89 0 001.54-10.72 23 23 0 018.76 1l-.4-6.26a21.3 21.3 0 014.72-.16c-2.71-3.15 4.12-7.24 3.12-11.28-.55-2.24-3.42-4.44-1.92-6.19l5.25 2.5.25-7.08c6.78-3.86 18.49 6.17 23.43-2.23 1.9-6.8 7.87 1.63 16.34-2.83-.66-2.46 2.92-4.09 5.29-3.15s4 3.14 6.25 4.34c6.16 3.49 14-2.88 11.74-9.62a8 8 0 015.94.9 13.91 13.91 0 00.71-6.17 6 6 0 014.94 2.24l1.72-6.13 4.67 2.74c-1.51-3.59 2.88-8 6.46-6.46l3.81-18 8.14 5.14c-1.62-1.86 1.51-4.49 3.94-4s4.57 2.25 7 2.11c.92-.05 1.91-.37 2.72.06 1.87 1 .48 3.71-.19 5.7-2.1 6.16 5.24 14 .78 18.72l6.2.21c-.87 3-.28 7.78 2.79 7.22l-.56 9.42c5.48-2.29 7.42 5.34 6.09 9.48 2.95-3 10.46-2.89 8.17 2.45l3.76.97c-1.53 3.13 2.42 7.18 5.58 5.74a13.58 13.58 0 01.87 8.41c7.37-3.64 7.43 7.3 11.33 5.74 1.82 2.72-.76 7.19 1.7 9.34 2 1.77 5.11 0 7.13-1.82-1.37 5.9 11 7 10.8 13.09l3.59-3.6c1.91.45 2.75 2.26 3.45 4.26 2.18 10.65 8.7 2.43 11.84 11.42.68-3.18 5.92-2.91 7.59-.11 3.39 5.72-3.14 13.36.7 19a6.17 6.17 0 00-3 3.8c2.92 2.95 7.86-.06 11.17 1.88 1.67 1 2.27 3.83.56 4.75l3.46 1.36c.54 3.07 1 6.47-.64 9.1s-6.45 3.14-7.52.21l-2.7 3.5-3.85-1.4c-.3 5.11-7 1.31-9.92 2.06-10.59 8.15-17-4.66-13.73-14.42-8.06 2.88-5.47-6-8.9-7.39-1-.26-2 .37-3 .77-6.52 2.72-12.43-5.91-7.52-11l-8.22 2.21a10.72 10.72 0 014-9c-5.6-2.62-4.14-10-2.07-14.64l-7.21-1.38a11 11 0 013.07-7.85c-4 1-8.1-3.93-6.35-7.69l-5-.17a5 5 0 011-5.59l-6.81-1.19a36.72 36.72 0 011.66-12.27l-6.85-.1-.53-4.1c-8.45-.78-15.16-7.86-22.56-11.6a10.7 10.7 0 01-8.75-1.21l-.21 4-4.55-1c2.53 5.41-5.72 9.39-8.39 4-10.08 11.84-21.21-13.11-21.62 2.14-1.09 1.65-3.65.52-5.19-.72a20.11 20.11 0 00.74 5.93c-6.57-2.6-13.57-1.36-20.33-1.43-1.89-.49-3.35-2-5.22-2.6s-4.54.77-3.94 2.63a5.48 5.48 0 00-4.54-1.68 7.29 7.29 0 00-.16 5l-4.44.21a29.27 29.27 0 011.24 15.41l-4 .26-.09 6.29c-20.38-5-4.69 16.38-19 16.1l-3.18 8.44a5.59 5.59 0 01-4.84-2.54c-4.35.91-12 8.47-14.74 2.21-2.19-5.11-8.14-35.25 6.63-27.68z" fill="#918b86"/><path d="M369.3 387.44c.43-.69 1.3-.61 2.16-.54v-18.41c-6.4-1.71-7.11-9.54-11.38-13.34-9-.25-5.76-7.83-11.9-7.63-4.15 8.64 9 8.71 6.86 15.06 8.12 1.7 6.86 11.42 5.25 17.51.19 1.28 1.54 2 2.47 2.9 4.83 4.59-1.75 19 8.57 17.82-.98-4.32-2.46-8.97-2.03-13.37zm1.77 17.32c-5.61-.9-5.26 2.34-4.15 6.44-2.94 4.22-2.28 10.76 4.14 10.22.19-5.55 0-11.1.01-16.66zm-9.01 17.58c-.45-2.74-2.65-5.41-5.43-5.38 3.69-10.7-17.14-15.76-13.34-26.47a32.94 32.94 0 01-14.85-2c2.67-8-12.37-4.73-13.91-10.32.25-4.92-2.5-7.07-6.24-9.9-2-2-1.55-6.79 1.27-6.33.52-1.16-.81-2.35-2.06-2.58-9.08.78-2.6-8.68-6.84-12.06-5.21-1.15-7.47 1-8.25-6.11-1.45-5.21-10.61-9.74-6.62-15.76-15.92 3.18-10.37-22.79-23.11-25.61l-.6-9.25-9.74-2.88c-2.86 5.49 13.13 8 5.36 19.32 2.66-1.39 5.29 2.49 4.76 5.44s-2.57 5.57-2.61 8.57c6-.9 7.13 6.86 5.91 11.32 4.67-2.46 8.77 1.19 10.84 5.12 5.18 1.17 9.62 4.57 6.1 10.18l3.91-.12 1 9.79a6.16 6.16 0 019.05 3.24c1 3.87-2.38 10.4 2.54 12.45 4.78-.27 6.27 2.39 7.43 6.85 1 2.42 4.83 4.2 5.77 1.77-.07 8.57 6.2 8.8 12.21 11 2.64 2.36.68 8.08 4 9.36 6.17-.57 12.45 1.3 11.71 8.86l5.06.19a13.79 13.79 0 01-4.95 9.62 52.62 52.62 0 0010.41.68c-2.53 16.67 12.33 17.67 11.22 1.01zm-75.74-44.29c-9.4-4.52-18.37-13.45-29.22-13.16a6 6 0 003.48-5.56l-7.09-2.33c3.66-3.94-2.52-7.67-6.41-7.32a9.62 9.62 0 001.56-7.4 12.23 12.23 0 01-11.33-2.86c7.05.39 3.12-9.88-3.33-5 3.61-5.11-5-9.13-6.62-3.07a8.41 8.41 0 00-3.88-6.36c3.18-4-.27-11-5.35-10.94a117.32 117.32 0 005.61-21.82l-4.23-.68a18.09 18.09 0 00-.5-5.91l-5.6 1.82c5.81-6 1.45-15.24-5.8-7.57-5 3.23-14.22-2-17.42 4.41-2.39-2.64-7.6-1.35-8.47 2.11-.55 2.16.28 4.82-1.28 6.41s-4.58.87-6.29 2.37c-2.19 1.91-.59 5.45-.69 8.36a6.92 6.92 0 01-8.58 6.07c.5 3.56-4.29 6.53-7.27 4.51a35.47 35.47 0 01-1.43 14c-1.07-2-2.38-4.24-4.59-4.87s-5 1.79-3.81 3.74a15.72 15.72 0 00-8.42-.9c2 7.1-2.82 19.87-11.43 14.46a9.94 9.94 0 01-.93 3.43 6 6 0 00-3.33 1v7.18c4.06 3.21 10.24 0 11.31-4.9a11.1 11.1 0 0010.26-2.58c4.34 2.92 11.24.27 12.52-4.8a6.24 6.24 0 004.76 1.9q.12-3.75.25-7.48a6.14 6.14 0 008.81-3.62c.28-2.91-.33-9.7 4.36-8.27q.24-6 .46-12c2.12 2.31 4.77-5.6 7.25-3.67 1.67 4.53 4.18 4.21 7.32.19l9.31 2.82a18.22 18.22 0 01-7.23 4.07 28.35 28.35 0 0011.77 5.08l-5.36.52c-2.82 6.24 3.79 14.36 10.48 12.88-1.76 5 3 11.12 8.3 10.64q.21 3.56.43 7.09c6.52-3.48 13.26 7.9 20.37 5.85a38.58 38.58 0 00-.36 10.18l7.84-1.2a4.49 4.49 0 005.73 4.11c-1.64 1.24.77 3.73 2.83 3.66s4.49-.89 5.91.6c1.74 1.84.39 5.89 2.79 6.71 9.46-2 6.71 7.76 19.23 5.91 2.61-1.07 4.71.12 6.48 2.07 1.08.86 2.88 1.28 3.69.16 1.29-4.26-3.08-7.84-6.86-10.04z" fill="#918b86"/><path d="M312.45 435.56c4.67 0 9.44-.15 13.94 1.05-2.83-12.15-34.1-10-28.48-23.55-7.47 3.58-14.25-1.09-20.35-4.86-3.89-1.11-9.43 1.29-11.31-2.29-1.34-8.31-1.32-6.91-9.36-7.19-4.64-1.08-6.35-9.93-12-8.1a11.2 11.2 0 00-13.42-3.62l-.27-9c-6.62.41-13.8-5.58-19.2-1.73 4.81-12.75-22.69-7.77-18.68-19.09-5.16 2.32-10.55-4.9-16-3.59-.69 7.45 12.86 9.49 13 17 .06 2.72-1.54 6.2.74 7.68 4.9 1.51 7-3.42 10.58 3.25 1.59 1.46 4.06 1 6.2 1.3a9.14 9.14 0 017.7 9.09l6-1.56a6.46 6.46 0 009.69.7c.36 5.9 6.93 14.5 12.43 8.53 1 11.07 16.77 15.63 26.16 17.61 3.64 4 8.62 7.72 14.35 5.49l2.55 3q1.6-1.9 3.23-3.8c-1.83 4.65 3 9.41 7.78 10.78 4.57 2.42 12.02-2.38 14.72 2.9zm-79.31-1.29c-1.65-5.1-7.89-5.57-12.49-5.14a9.28 9.28 0 004.53-8.56c-2.23-.13-4.28 1.47-6.5 1.37-3.3-.15-5.24-4.89-3-7.31-5.7 2.34-5.71-6.88.25-5.73v-4.49c-3.28-1.51-6.31 1.66-9.21 1.37-3.08-4.41-4.51-22.09-13-19.76a31.65 31.65 0 014.2 18.3c7.81-1.22 1.27 9.32 4.4 12.57 1.19 1.31 3.41 1.63 4.07 3.28.57 3.63-1.34 4.74 2.66 6.81 1 3.72-1.51 5.81 4.23 7.29zM191 414.37a7.77 7.77 0 01-3.8-5c2.83.61 1.53-3.09.31-4.29-1.48-2.88-.28-9.89-5.21-9.24 4.14-9-9.83-10.48-14.93-14.08 2.05-3.09-.85-8-4.54-7.69-2.33.19-5.13 1.84-6.66.07-.72-.84-.68-2.06-1.07-3.1-1-2.66-5.3-3.16-6.88-.79a3.64 3.64 0 01-1.19-2.84c-3.69 1.81-9.85 3-11.74-1.7a56.71 56.71 0 00-2.82 8.65 8.32 8.32 0 00-8.66 1.11v20.41c8.39 8 7.91-6.81 14.59-5.5-4.84-5.18 1.59-11.93 6.1-14.86l1.58 5.72 7.34-.09c2.66 5.64 5.21 17.25 13.63 14.3-3.84 1.78-2.26 7.88 2 7.56-2.34 6.2 2.26 8.71 5.62 12.44-.25 2.77 2.33 3.64 4.95 3.28-3.3 7 6.83 13.38 9.18 5.22.13-3.67-4.85-6-4.72-9.65a5.45 5.45 0 006.92.07z" fill="#918b86"/><path d="M144.49 399.67c-1.34-3.76-8.74 1.88-9.26 4.67-2 5.39 13.22 9.93 14.26 2.88a37.22 37.22 0 01-7.55-1.26l3.29-5.34m-16.91 14.14c4.81-.87 8.22 7 12.9 5.59 3.26-2.19 5.68-.13 7.52 3 2.15 3.37 6.25 3.78 9.49 5.43 5 4.15-3.55 7.42-6.9 5.41-4.66-4.8-12.64-.19-17.29-4-2.76-2.93-3-7.46-4.31-11.13-.2-.69-4.5-.09-5.06 0 .44-1.7 1.76-3.96 3.65-4.3z" fill="#918b86"/><path d="M204.59 51.38c.8-.26 4.44 39.77 42.44 41.81s45.37-41.58 45.37-41.58" fill="none" stroke="#636363" stroke-linecap="round" stroke-linejoin="round"/><path d="M372.08 291.55q-.27 61.74-.62 123.47c-.81 9-2.68 16.4-3.55 25.44-1 10.07 1.34 17-1.5 25.63-.58 1.77-2 1.67-3.35 1.44-44.58-7.74-101.65-5.72-146.65-2.93-24.59.58-58.62-1.67-83 2.09-5.22.6-5.68.28-6.62-4.82-1.34-11.26 1.44-20 0-30.81-6.15-46.82-.89-92.88-3.1-140-1.41 2.82-2.94 5.6-4.28 8.46-2.37 10.67-17.51 9.3-11.82 16.18 11.12 7.95 6.41 21.38 5.15 32.56-.24 3.15-1.34 6.27-.37 9.58.51 8.43-3.19 16.94-4.38 25.31-1.5 8-2.61 15.83-1.53 23.93a5.17 5.17 0 01-1.14 3.3c-5.71 6.28-7.74 14-9.19 22.06-.57 3.18-.61 3-3.73 2-12.38-3.52-26.1-4.38-38.61-1.18-1.39.34-2.1 0-2.41-1.47-2-7.76-2.17-16.67-8.49-22.43a6.66 6.66 0 01-1.33-3.22 145 145 0 01-2.72-33.3c-1.91-63 2.61-126.93 26.2-186 13.6-35.43 24.56-73.32 48.06-103.67 27.32-18.2 60-23.76 90.46-34.78a3.16 3.16 0 012.72.43c5 5.55 11.46 8.41 18.56 9.67 19.19 2.43 41.29 5.55 58.65-4.88 2.86-1.27 4.2-6.53 7.88-5 29.12 10.49 61.05 14.4 87.43 31.58 15.94 14.59 21.63 38 30.45 57.21 27.82 67.48 58 137.39 51.06 212.07-1.2 18.66-.24 37.46-3.29 56-.48 4.66-5.2 7.09-5.56 11.78-1.21 5.28-2.07 10.65-2.9 16-.41 2.6-.42 2.83-3.09 2.33-12.48-2.66-25.25-5.49-37.8-1.58-8.33-.15-8.13-15.56-11.44-21.41-6.28-7.36-3.61-9-5.33-17.63-.9-9.7-4.68-20.27.79-29.26 2-3.53 1.87-7.05.51-10.66-4.9-11.29-7.4-23.42-10.45-35.29-1.06-4.31-1.31-8.5 1.61-12.34 1.49-7.15-10.43-8.7-10.93-15.93z" fill="none" stroke="#262521" stroke-linecap="round" stroke-linejoin="round" stroke-width="3"/><path d="M121.09 171.92s3 37.54.91 53.17.11 29.69.11 32.87S124 291 124 291m247.42-125s5.9 70 .11 98l1 27.47" fill="none" stroke="#262521" stroke-linecap="round" stroke-linejoin="round" stroke-width="3"/><path d="M51.32 409.51S80 400 96.47 412m305.71 0s25.94-8.31 43.55 0m-312.28 26.85s155.28-12.31 227.71 2.37M192.37 55.44c.81-.26 6.64 49.81 54.72 49.81 52.44 0 58-49.38 58-49.38" fill="none" stroke="#636363" stroke-linecap="round" stroke-linejoin="round"/></svg>