<svg xmlns="http://www.w3.org/2000/svg" width="1250" height="1550" viewBox="0 0 1250 1550"><title>Artboard 1</title><path d="M328.1,666C312.38,730.34,290,838.76,290,838.76s103.21,50.51,123.25,10.35" fill="none" stroke="#262521" stroke-linecap="round" stroke-miterlimit="10" stroke-width="3"/><path d="M762.91,849.63c58.38,11.42,118.48-39.89,118.48-39.89S813.16,592.1,801.46,586.45s-142.29-56.21-142.29-56.21-2.49,55-82.84,55c-65.08,0-82.1-39.23-86.21-51.38-1-2.85-.73-2.61-.73-2.61s-133.76,83.87-145.46,89.52c-2.81,1.36-24.27,27.5-12.15,73.24" fill="none" stroke="#262521" stroke-linecap="round" stroke-linejoin="round" stroke-width="3"/><path d="M366,696.25s12.17,87.67,26.55,114.4l24.8,46.09-20,406s91.48,25.55,210.71,21.55S804,1247.13,804,1247.13l-42.4-410.37,10.17-28.49" fill="none" stroke="#262521" stroke-linecap="round" stroke-miterlimit="10" stroke-width="3"/><path d="M767,700.68S750.86,782.15,754.32,807s6.44,21.89,8.59,42.64" fill="none" stroke="#262521" stroke-linecap="round" stroke-miterlimit="10" stroke-width="3"/><path d="M813.88,647.07s6.82-23.29-2.08-41.13" fill="none" stroke="#262521" stroke-linecap="round" stroke-miterlimit="10" stroke-width="3"/><path d="M474.92,540.31s18,59.57,102.32,59.57,98.2-63.33,98.2-63.33" fill="none" stroke="#262521" stroke-linecap="round" stroke-linejoin="round" stroke-width="3"/><path d="M293.72,824.86s92.51,42.8,113.85,13" fill="none" stroke="#262521" stroke-linecap="round" stroke-linejoin="round" stroke-width="3"/><path d="M760.58,834.76s53.95,13.19,114-42.54" fill="none" stroke="#262521" stroke-linecap="round" stroke-linejoin="round" stroke-width="3"/><path d="M398.64,1245.63s119.26,30.67,228.94,21.42c109-9.19,173.83-37.26,173.83-37.26" fill="none" stroke="#262521" stroke-linecap="round" stroke-linejoin="round" stroke-width="3"/><path d="M513.3,711.56h5.62c6.38,0,10.24,3.53,10.24,15.15s-3.86,15.15-10.24,15.15H513.3Zm3.27,27.53h1.76c4.79,0,7.55-2,7.55-12.38s-2.76-12.38-7.55-12.38h-1.76Z"/><path d="M533.23,711.56h7.3c4.87,0,8.31,2.85,8.31,7.85,0,3.4-1.51,6.25-4.87,7.43l5.12,15h-3.44l-4.87-14.35-4.28.17v14.18h-3.27Zm3.27,13.26h2.85c4.7,0,6.22-1.84,6.22-5.24s-1.52-5.25-6.22-5.25H536.5Z"/><path d="M567,711.56v2.77H556.43v10.32h7.81v2.77h-7.81v11.67h11.08v2.77H553.16v-30.3Z"/><path d="M581.57,719.37c-.25-3.11-1.51-5.46-4.66-5.46a3.88,3.88,0,0,0-4.15,4c0,6.84,12.16,6.92,12.16,16.66,0,4.82-2.76,7.72-7.76,7.72-4.74,0-7.59-3.49-7.68-8.56h3c.09,3.56,1.77,5.79,5,5.79,2.73,0,4.49-1.76,4.49-5,0-6.88-12.17-7.67-12.17-16.32,0-4.28,2.94-7.05,7.3-7.05s7.22,2.94,7.47,8.23Z"/><path d="M599.15,719.37c-.25-3.11-1.51-5.46-4.66-5.46a3.88,3.88,0,0,0-4.15,4c0,6.84,12.17,6.92,12.17,16.66,0,4.82-2.77,7.72-7.77,7.72-4.74,0-7.59-3.49-7.67-8.56h3c.08,3.56,1.76,5.79,5,5.79,2.73,0,4.49-1.76,4.49-5,0-6.88-12.17-7.67-12.17-16.32,0-4.28,2.94-7.05,7.3-7.05s7.22,2.94,7.47,8.23Z"/><path d="M619,711.56l5.28,22.91h.09l5.16-22.91h5.2v30.3h-3V714.08h-.08l-6.3,27.78h-2.14l-6.29-27.78h-.09v27.78h-3v-30.3Z"/><path d="M652.61,711.56v2.77H642v10.32h7.81v2.77H642v11.67h11.08v2.77H638.76v-30.3Z"/></svg>