<svg xmlns="http://www.w3.org/2000/svg" width="1000" height="1550" viewBox="0 0 1000 1550"><defs><clipPath id="a"><path fill="none" d="M0 0h21.94v13.1H0z"/></clipPath><pattern id="b" width="21.94" height="13.1" patternTransform="matrix(1.02 0 0 1.02 57.85 19.32)" patternUnits="userSpaceOnUse" viewBox="0 0 21.94 13.1"><path fill="none" d="M0 0h21.94v13.1H0z"/><g clip-path="url(#a)"><path fill="#262521" d="M0 0h21.94v13.1H0z"/><path fill="none" stroke="#3e3e3b" stroke-linecap="round" stroke-miterlimit="10" stroke-width="2" d="M5.35 6.45L16.61 12M16.61 6.45L27.86 12M-5.63 6.45L5.63 12"/></g></pattern></defs><path fill="#262521" d="M295.16 1376.57h385.21v201.81H295.16z"/><path fill="#262521" stroke="#636363" stroke-linecap="round" stroke-linejoin="round" d="M279.44 1264.52l396.54-16.39 20.1 342.24-158.7-1.85-28.9-196.61-25.52 8.68-8.84 196.24-153.94-.22-40.74-332.09z"/><path d="M524.56 526.57s-7.62 55.38-75 58.47-73.43-58.47-73.43-58.47l-90.43 755s100.87 16.51 214.68 12 180.82-13.77 180.82-13.77z" fill="#fff" stroke="#262521" stroke-linecap="round" stroke-linejoin="round" stroke-width="3"/><path d="M676.46 586.45c-11.18-6.61-158.6-67.76-158.6-67.76s8.2 105.2-4.85 267.77c-13 162 .43 251.7 31.16 482.47S711 1582 711 1582s-25.88-356.76-29.78-388.06c3.94-36.14-5.66-81.16-16.45-126.52 13.81 47.58 69.17-447.02 11.69-480.97zM401.67 767.51c-31.7-167-14-237.51-17.83-248.78-.7-2.07-120.46 75.14-164.91 102-55.28 33.45 72.23 439.26 74.77 419.75a163.78 163.78 0 01-1.32 19.9c-3.73 22.75-25 83.8-14.05 144.17-3 26.45-.92 365.29-.92 365.29s132.52-13.35 158.14-189.07c15.21-104.27-2.45-447.65-33.88-613.26z" fill="#262521" stroke="#262521" stroke-linecap="round" stroke-linejoin="round" stroke-width="3"/><path d="M277.41 1569.87s132.52-13.35 158.14-189.07c3-20.61 4.73-52.56 5.31-88.63M547.35 1290.13C583.26 1504.76 711 1582 711 1582" fill="none" stroke="#636363" stroke-linecap="round" stroke-linejoin="round"/><path d="M374.31 769.22c-31.7-167-11.63-224.61-15.45-235.87-.7-2.07-95.48 60.52-139.93 87.41C163.65 654.21 192.25 945 192.25 945s-27.67 203.28-2.29 287.31c2.36 15.93 3 28 6.43 41.4l64-1.5s-4.07-29.79-3.12-42.46c12.87-27.53 13.71-91.47 23.54-122.42 6-18.8 10.39-47.35 12.93-66.86a163.78 163.78 0 01-1.32 19.9c-3.73 22.75-25 83.8-14.05 144.17-3 26.45-.92 340.87-.92 340.87s113.84-10.8 134.87-164.65c14.24-104.39-6.58-445.93-38.01-611.54z" stroke="#262521" stroke-miterlimit="10" stroke-width="3" fill="url(#b)"/><path d="M735.35 918.39s-1.41-298-58.89-331.94c-11.18-6.61-133.65-57.37-133.65-57.37s8.71 99.42-4.34 262c-13 162-5 239.85 27.37 470.39C597.13 1484.33 707.36 1540 707.36 1540s-22.26-314.77-26.16-346.07c3.94-36.14-5.66-81.16-16.45-126.52 13.83 47.61 27 143 37.17 152.17 1.64 26.39 1.89 36.36 1.89 36.36l64.1-1.5s-1-14.31-2.61-35.73c25.63-83.16-29.95-300.32-29.95-300.32z" fill="url(#b)"/><path d="M281.14 1545.45s111.66-23.71 129.43-150c14.69-104.38-2.45-447.68-33.88-613.29-31.7-167-14-237.52-17.83-248.78M542.68 531.44s8.2 105.19-4.85 267.76c-13 162-4.85 252.47 31.16 482.47 30.72 196.25 135.3 256.81 135.3 256.81" fill="none" stroke="#636363" stroke-linecap="round" stroke-linejoin="round"/><circle cx="416.9" cy="991.58" r="8.29" fill="#cec8b2"/><circle cx="423.69" cy="1085.5" r="8.29" fill="#cec8b2"/><circle cx="427.97" cy="1307.42" r="8.29" fill="#cec8b2"/><circle cx="427.97" cy="1190.06" r="8.29" fill="#cec8b2"/></svg>