<svg xmlns="http://www.w3.org/2000/svg" xmlns:xlink="http://www.w3.org/1999/xlink" width="1250" height="1550" viewBox="0 0 1250 1550"><defs><pattern id="a" width="8.96" height="8.96" patternTransform="translate(-24.42 -27.4) scale(1.87)" patternUnits="userSpaceOnUse" viewBox="0 0 8.96 8.96"><rect width="8.96" height="8.96" fill="none"/><rect width="8.96" height="8.96" fill="#bababa"/><polygon points="8.01 8.01 0.95 8.01 0.95 0.95 8.01 8.01" fill="#636363" opacity="0.5"/></pattern></defs><title>s01e03-03</title><path d="M800.54,1223.65l5.66,56.15s-67.06,9.28-180.87,13.77-226.51-13.77-226.51-13.77l4.64-34.94Z" fill="#fff" stroke="#262521" stroke-linecap="round" stroke-miterlimit="10" stroke-width="3"/><path d="M801.34,601.25C790.45,594.15,651.81,528,651.81,528s-9,42.67-63.91,47.58c-64.83,5.79-86.64-36-90.76-48.14l-87.91,73.8" fill="#fff" stroke="#262521" stroke-linecap="round" stroke-linejoin="round" stroke-width="3"/><path d="M877.23,1043c-3.83-55.87-22.88-124.63-22.88-124.63s-14.59-306.95-52.89-331.94c-10.88-7.1-142.29-56.21-142.29-56.21s-2.31,53.85-82.84,55c-67.56.95-82.84-41.82-87-54-.7-2.08-16.75,9.13-16.73,9-1.05.64-84.21,53.64-128.71,80.45C299.2,647.71,317.25,945,317.25,945a619.79,619.79,0,0,0-3.6,128.12c5.53,68.42-1.88,179.2,14.45,197.94l61-1.5s-5.6-14.35-4.65-27c2.27-30.22,5.53-104.27,15.36-135.22s21.45-88.31,21.45-88.33c.49,23.68.3,42.23-1,50.33-3.6,21.92-31.66,102.78-17.78,133.07-3.34,29.28-5.68,57.36-5.68,57.36s71,13.89,148,13c137.53-1.66,264.08-24.63,264.08-24.63s-1.48-25.34-4.52-50.16c9.94-22.62-4.2-83.52-17.92-143,17.07,47.16,40.25,126.63,42.46,162.33,1.64,26.39,2.89,34.36,2.89,34.36h58.1s4.48-6.67,5.3-18.89S882.81,1124.28,877.23,1043Z" fill="#bababa"/><path d="M489.37,531.26l0,0S489.38,531.23,489.37,531.26Z" fill="#bababa"/><path d="M489.37,531.26l0,0S489.38,531.23,489.37,531.26Z" fill="url(#a)"/><path d="M877.23,1043c-3.83-55.87-22.88-124.63-22.88-124.63s-14.59-306.95-52.89-331.94c-10.88-7.1-119.88-47.78-119.88-47.78s-14.07,68-104.7,68c-89.57,0-100.14-54.14-104.26-66.29-.7-2.08,0,0,0-.08-1.05.64-84.21,53.64-128.71,80.45C299.2,647.71,317.25,945,317.25,945a619.79,619.79,0,0,0-3.6,128.12c4,49.47,1.23,121.09,5.57,164a200,200,0,0,1,65.9-4.75c2.27-30.22,4.82-94.14,14.65-125.09s21.45-88.31,21.45-88.33c.49,23.68.3,42.23-1,50.33-3.6,21.92-31.66,102.78-17.78,133.07,6.74,25.77,323.14,16.71,401.84-4.47,9.94-22.62-4.2-83.52-17.92-143,17.07,47.16,40.25,126.63,42.46,162.33,8.65-3.66,48.09-6.24,65.6-2.16C895.21,1203,882.81,1124.28,877.23,1043Z" fill="url(#a)"/><path d="M489.37,531.26l0,0S489.38,531.23,489.37,531.26Z" fill="none" stroke="#262521" stroke-linecap="round" stroke-linejoin="round" stroke-width="3"/><path d="M877.23,1043c-3.83-55.87-22.88-124.63-22.88-124.63s-14.59-306.95-52.89-331.94c-10.88-7.1-142.29-56.21-142.29-56.21s-2.49,55-82.84,55c-65.08,0-82.1-39.23-86.21-51.38a10.79,10.79,0,0,1-.75-2.59c-1,.65-100.94,62.69-145.44,89.5C299.2,647.71,317.25,945,317.25,945a619.79,619.79,0,0,0-3.6,128.12c5.53,68.42-1.88,179.2,14.45,197.94l61-1.5s-5.6-14.35-4.65-27c2.27-30.22,5.53-104.27,15.36-135.22s21.45-88.31,21.45-88.33c.49,23.68.3,42.23-1,50.33-3.6,21.92-31.66,102.78-17.78,133.07-3.34,29.28-5.68,57.36-5.68,57.36s71,13.89,148,13c137.53-1.66,264.08-24.63,264.08-24.63s-1.48-25.34-4.52-50.16c9.94-22.62-4.2-83.52-17.92-143,17.07,47.16,40.25,126.63,42.46,162.33,1.64,26.39,2.89,34.36,2.89,34.36h58.1s4.48-6.67,5.3-18.89S882.81,1124.28,877.23,1043Z" fill="none" stroke="#262521" stroke-linecap="round" stroke-linejoin="round" stroke-width="3"/><path d="M474.55,549.86c11.06,26.43,36.16,57.49,102.33,56.82,67.54-.68,92.26-35.2,102.27-61.63" fill="none" stroke="#636363" stroke-linecap="round" stroke-linejoin="round"/><line x1="570.07" y1="593.15" x2="570.21" y2="606.64" fill="none" stroke="#636363" stroke-linecap="round" stroke-linejoin="round"/><line x1="574.11" y1="593.11" x2="574.24" y2="606.6" fill="none" stroke="#636363" stroke-linecap="round" stroke-linejoin="round"/><line x1="578.15" y1="593.07" x2="578.28" y2="606.56" fill="none" stroke="#636363" stroke-linecap="round" stroke-linejoin="round"/><line x1="582.19" y1="593.03" x2="582.32" y2="606.52" fill="none" stroke="#636363" stroke-linecap="round" stroke-linejoin="round"/><line x1="594.45" y1="592.13" x2="598.32" y2="605.21" fill="none" stroke="#636363" stroke-linecap="round" stroke-linejoin="round"/><line x1="598.38" y1="591.32" x2="602.24" y2="604.4" fill="none" stroke="#636363" stroke-linecap="round" stroke-linejoin="round"/><line x1="602.3" y1="590.5" x2="606.16" y2="603.58" fill="none" stroke="#636363" stroke-linecap="round" stroke-linejoin="round"/><line x1="606.22" y1="589.68" x2="610.09" y2="602.77" fill="none" stroke="#636363" stroke-linecap="round" stroke-linejoin="round"/><line x1="619.97" y1="585.31" x2="628.39" y2="596.8" fill="none" stroke="#636363" stroke-linecap="round" stroke-linejoin="round"/><line x1="623.43" y1="583.54" x2="631.84" y2="595.03" fill="none" stroke="#636363" stroke-linecap="round" stroke-linejoin="round"/><line x1="626.88" y1="581.78" x2="635.29" y2="593.27" fill="none" stroke="#636363" stroke-linecap="round" stroke-linejoin="round"/><line x1="630.33" y1="580.02" x2="638.74" y2="591.51" fill="none" stroke="#636363" stroke-linecap="round" stroke-linejoin="round"/><line x1="642.08" y1="572.02" x2="654.25" y2="580.87" fill="none" stroke="#636363" stroke-linecap="round" stroke-linejoin="round"/><line x1="644.74" y1="569.48" x2="656.91" y2="578.33" fill="none" stroke="#636363" stroke-linecap="round" stroke-linejoin="round"/><line x1="647.41" y1="566.94" x2="659.57" y2="575.79" fill="none" stroke="#636363" stroke-linecap="round" stroke-linejoin="round"/><line x1="650.07" y1="564.39" x2="662.24" y2="573.25" fill="none" stroke="#636363" stroke-linecap="round" stroke-linejoin="round"/><line x1="656.87" y1="554.51" x2="671.72" y2="559.82" fill="none" stroke="#636363" stroke-linecap="round" stroke-linejoin="round"/><line x1="658.48" y1="551.41" x2="673.32" y2="556.73" fill="none" stroke="#636363" stroke-linecap="round" stroke-linejoin="round"/><line x1="660.08" y1="548.32" x2="674.93" y2="553.63" fill="none" stroke="#636363" stroke-linecap="round" stroke-linejoin="round"/><line x1="661.69" y1="545.22" x2="676.53" y2="550.54" fill="none" stroke="#636363" stroke-linecap="round" stroke-linejoin="round"/><line x1="559.51" y1="592.49" x2="555.91" y2="605.65" fill="none" stroke="#636363" stroke-linecap="round" stroke-linejoin="round"/><line x1="555.57" y1="591.75" x2="551.97" y2="604.91" fill="none" stroke="#636363" stroke-linecap="round" stroke-linejoin="round"/><line x1="551.63" y1="591.01" x2="548.04" y2="604.17" fill="none" stroke="#636363" stroke-linecap="round" stroke-linejoin="round"/><line x1="547.69" y1="590.28" x2="544.1" y2="603.44" fill="none" stroke="#636363" stroke-linecap="round" stroke-linejoin="round"/><line x1="533.86" y1="586.18" x2="525.67" y2="597.84" fill="none" stroke="#636363" stroke-linecap="round" stroke-linejoin="round"/><line x1="530.37" y1="584.49" x2="522.19" y2="596.15" fill="none" stroke="#636363" stroke-linecap="round" stroke-linejoin="round"/><line x1="526.88" y1="582.8" x2="518.7" y2="594.45" fill="none" stroke="#636363" stroke-linecap="round" stroke-linejoin="round"/><line x1="523.4" y1="581.1" x2="515.22" y2="592.76" fill="none" stroke="#636363" stroke-linecap="round" stroke-linejoin="round"/><line x1="511.48" y1="573.34" x2="499.5" y2="582.44" fill="none" stroke="#636363" stroke-linecap="round" stroke-linejoin="round"/><line x1="508.77" y1="570.86" x2="496.79" y2="579.95" fill="none" stroke="#636363" stroke-linecap="round" stroke-linejoin="round"/><line x1="506.06" y1="568.37" x2="494.07" y2="577.47" fill="none" stroke="#636363" stroke-linecap="round" stroke-linejoin="round"/><line x1="503.34" y1="565.88" x2="491.36" y2="574.98" fill="none" stroke="#636363" stroke-linecap="round" stroke-linejoin="round"/><line x1="496.34" y1="556.14" x2="481.61" y2="561.75" fill="none" stroke="#636363" stroke-linecap="round" stroke-linejoin="round"/><line x1="494.67" y1="553.08" x2="479.94" y2="558.69" fill="none" stroke="#636363" stroke-linecap="round" stroke-linejoin="round"/><line x1="493" y1="550.01" x2="478.27" y2="555.63" fill="none" stroke="#636363" stroke-linecap="round" stroke-linejoin="round"/><line x1="491.34" y1="546.95" x2="476.6" y2="552.57" fill="none" stroke="#636363" stroke-linecap="round" stroke-linejoin="round"/><line x1="353.61" y1="1236.01" x2="355.16" y2="1264.84" fill="none" stroke="#8e8e8e" stroke-linecap="round" stroke-linejoin="round" stroke-width="5"/><line x1="340.92" y1="1237.02" x2="343.91" y2="1264.84" fill="none" stroke="#8e8e8e" stroke-linecap="round" stroke-linejoin="round" stroke-width="5"/><line x1="366.98" y1="1236.04" x2="366.39" y2="1263.92" fill="none" stroke="#8e8e8e" stroke-linecap="round" stroke-linejoin="round" stroke-width="5"/><line x1="378.27" y1="1236.04" x2="376.95" y2="1264.25" fill="none" stroke="#8e8e8e" stroke-linecap="round" stroke-linejoin="round" stroke-width="5"/><line x1="327.8" y1="1237.99" x2="332.68" y2="1264.84" fill="none" stroke="#8e8e8e" stroke-linecap="round" stroke-linejoin="round" stroke-width="5"/><line x1="863.29" y1="1216.88" x2="863.13" y2="1244.76" fill="none" stroke="#8e8e8e" stroke-linecap="round" stroke-linejoin="round" stroke-width="5"/><line x1="849.8" y1="1218.91" x2="851.69" y2="1244.76" fill="none" stroke="#8e8e8e" stroke-linecap="round" stroke-linejoin="round" stroke-width="5"/><line x1="875.94" y1="1217.88" x2="874.75" y2="1244.76" fill="none" stroke="#8e8e8e" stroke-linecap="round" stroke-linejoin="round" stroke-width="5"/><line x1="888.01" y1="1219.48" x2="884.99" y2="1245.61" fill="none" stroke="#8e8e8e" stroke-linecap="round" stroke-linejoin="round" stroke-width="5"/><line x1="837.64" y1="1220.7" x2="840.28" y2="1244.76" fill="none" stroke="#8e8e8e" stroke-linecap="round" stroke-linejoin="round" stroke-width="5"/><line x1="608.69" y1="1234.93" x2="608.69" y2="1263.96" fill="none" stroke="#8e8e8e" stroke-linecap="round" stroke-linejoin="round" stroke-width="5"/><line x1="624.39" y1="1234.51" x2="624.39" y2="1263.54" fill="none" stroke="#8e8e8e" stroke-linecap="round" stroke-linejoin="round" stroke-width="5"/><line x1="640.08" y1="1233.51" x2="640.08" y2="1262.54" fill="none" stroke="#8e8e8e" stroke-linecap="round" stroke-linejoin="round" stroke-width="5"/><line x1="655.77" y1="1231.84" x2="655.77" y2="1260.86" fill="none" stroke="#8e8e8e" stroke-linecap="round" stroke-linejoin="round" stroke-width="5"/><line x1="671.46" y1="1231.03" x2="671.46" y2="1260.05" fill="none" stroke="#8e8e8e" stroke-linecap="round" stroke-linejoin="round" stroke-width="5"/><line x1="687.15" y1="1228.87" x2="687.15" y2="1257.89" fill="none" stroke="#8e8e8e" stroke-linecap="round" stroke-linejoin="round" stroke-width="5"/><line x1="702.85" y1="1227.37" x2="702.85" y2="1256.4" fill="none" stroke="#8e8e8e" stroke-linecap="round" stroke-linejoin="round" stroke-width="5"/><line x1="718.54" y1="1225.87" x2="718.54" y2="1254.89" fill="none" stroke="#8e8e8e" stroke-linecap="round" stroke-linejoin="round" stroke-width="5"/><line x1="498.85" y1="1234.01" x2="498.85" y2="1265.17" fill="none" stroke="#8e8e8e" stroke-linecap="round" stroke-linejoin="round" stroke-width="5"/><line x1="514.54" y1="1234.51" x2="514.54" y2="1264.96" fill="none" stroke="#8e8e8e" stroke-linecap="round" stroke-linejoin="round" stroke-width="5"/><line x1="530.23" y1="1234.51" x2="530.23" y2="1264.96" fill="none" stroke="#8e8e8e" stroke-linecap="round" stroke-linejoin="round" stroke-width="5"/><line x1="545.93" y1="1235.93" x2="545.93" y2="1264.96" fill="none" stroke="#8e8e8e" stroke-linecap="round" stroke-linejoin="round" stroke-width="5"/><line x1="453.88" y1="1232.36" x2="454" y2="1261.34" fill="none" stroke="#8e8e8e" stroke-linecap="round" stroke-linejoin="round" stroke-width="5"/><line x1="436.69" y1="1230.05" x2="436.82" y2="1259.03" fill="none" stroke="#8e8e8e" stroke-linecap="round" stroke-linejoin="round" stroke-width="5"/><line x1="420.25" y1="1227.89" x2="420.37" y2="1256.87" fill="none" stroke="#8e8e8e" stroke-linecap="round" stroke-linejoin="round" stroke-width="5"/><line x1="406.88" y1="1225.89" x2="405.01" y2="1254.87" fill="none" stroke="#8e8e8e" stroke-linecap="round" stroke-linejoin="round" stroke-width="5"/><line x1="468.9" y1="1232.55" x2="469.16" y2="1262.93" fill="none" stroke="#8e8e8e" stroke-linecap="round" stroke-linejoin="round" stroke-width="5"/><line x1="483.16" y1="1233.01" x2="483.16" y2="1264.17" fill="none" stroke="#8e8e8e" stroke-linecap="round" stroke-linejoin="round" stroke-width="5"/><line x1="561.62" y1="1235.93" x2="561.62" y2="1264.96" fill="none" stroke="#8e8e8e" stroke-linecap="round" stroke-linejoin="round" stroke-width="5"/><line x1="577.31" y1="1235.93" x2="577.31" y2="1264.96" fill="none" stroke="#8e8e8e" stroke-linecap="round" stroke-linejoin="round" stroke-width="5"/><line x1="593" y1="1235.93" x2="593" y2="1264.96" fill="none" stroke="#8e8e8e" stroke-linecap="round" stroke-linejoin="round" stroke-width="5"/><line x1="733.74" y1="1223.38" x2="733.71" y2="1252.38" fill="none" stroke="#8e8e8e" stroke-linecap="round" stroke-linejoin="round" stroke-width="5"/><line x1="749.79" y1="1221.29" x2="749.05" y2="1250.27" fill="none" stroke="#8e8e8e" stroke-linecap="round" stroke-linejoin="round" stroke-width="5"/><line x1="766.2" y1="1218.78" x2="765.03" y2="1247.78" fill="none" stroke="#8e8e8e" stroke-linecap="round" stroke-linejoin="round" stroke-width="5"/><line x1="781.31" y1="1216.78" x2="780.14" y2="1245.78" fill="none" stroke="#8e8e8e" stroke-linecap="round" stroke-linejoin="round" stroke-width="5"/><line x1="795.38" y1="1214.78" x2="795.71" y2="1243.78" fill="none" stroke="#8e8e8e" stroke-linecap="round" stroke-linejoin="round" stroke-width="5"/><path d="M461.78,541.52S462.87,668.3,584.45,668.3s104.82-131,104.82-131,63.85,23.61,85.22,31.11c-1.81,91.81,45.59,662.74,39.4,664.09-101.48,22.25-425,18-423.87,5.42,18.8-207-1.67-651.38-1.67-651.38Z" fill="#377566" stroke="#262521" stroke-linecap="round" stroke-linejoin="round" stroke-width="3"/><path d="M411,1081.94s197.57,13.67,382-8.28" fill="none" stroke="#215145" stroke-linecap="round" stroke-linejoin="round"/><path d="M411,1097.52s197.57,13.66,382-8.29" fill="none" stroke="#215145" stroke-linecap="round" stroke-linejoin="round"/><line x1="602.08" y1="1085.76" x2="602.9" y2="1225.73" fill="none" stroke="#215145" stroke-linecap="round" stroke-linejoin="round"/><rect x="642.08" y="720.46" width="91.95" height="59.86" stroke-width="3" stroke="#262521" stroke-linecap="round" stroke-linejoin="round" fill="#ffc802"/><rect x="642.08" y="749.89" width="91.95" height="16.31" stroke-width="3" stroke="#262521" stroke-linecap="round" stroke-linejoin="round" fill="#fff"/></svg>