<svg xmlns="http://www.w3.org/2000/svg" width="1000" height="1550" viewBox="0 0 1000 1550"><path d="M637.91 849.63c58.38 11.42 118.48-39.89 118.48-39.89s-68.23-217.64-79.93-223.29c-10.45-5.05-115.8-45.94-138.13-54.6a161.65 161.65 0 00-20.21-25s-10.21 26.32-42.32 40.83l-25.48 7.62-17.72-5c-32.19-14.07-52.29-43.48-52.29-43.48a150.21 150.21 0 00-19 26.31c-20.05 12.56-131.73 82.44-142.37 87.58-2.17 1-15.49 16.94-15.81 45.24h0C187.38 730.34 165 838.76 165 838.76s103.21 50.51 123.25 10.35h0l4.11 7.63-20 406s91.48 25.55 210.71 21.55S679 1247.13 679 1247.13l-42.4-410.37z" fill="#262521" stroke="#262521" stroke-linecap="round" stroke-linejoin="round" stroke-width="3"/><path d="M272.42 1262.76s91.48 25.55 210.71 21.55S679 1247.13 679 1247.13M288.27 849.11h0" fill="none" stroke="#636363" stroke-linecap="round" stroke-linejoin="round"/><path d="M629.32 807c3.47 24.84 6.44 21.89 8.59 42.64" fill="none" stroke="#262521" stroke-linecap="round" stroke-miterlimit="10" stroke-width="3"/><path fill="#fff" stroke="#fff" stroke-linecap="round" stroke-linejoin="round" stroke-width="3" d="M516.53 654.99l43.77 1.77-33.85-27.6 11.97 41.74 14.68-40.78-36.57 24.87zM550.44 580.27l43.77-1.77-33.85 27.6 11.96-41.74 14.69 40.78-36.57-24.87z"/><path fill="none" stroke="#636363" stroke-linecap="round" stroke-linejoin="round" d="M433.39 568.4v124.77h29.97"/><circle cx="451.22" cy="587.78" r="6.96" fill="#636363"/><circle cx="451.22" cy="627.76" r="6.96" fill="#636363"/><circle cx="451.22" cy="667.74" r="6.96" fill="#636363"/><path fill="#fff" stroke="#fff" stroke-linecap="round" stroke-linejoin="round" stroke-width="3" d="M307.01 578.85l43.77-1.77-33.85 27.6 11.96-41.74 14.69 40.79-36.57-24.88zM340.86 654.99l43.78 1.77-33.85-27.6 11.96 41.74 14.68-40.78-36.57 24.87z"/><path d="M447.13 555.32l-69 61.9s-27.26-64-18.66-80.69M450.32 555.32l69.95 61.9s30.78-61.58 22.18-78.24M636.58 836.76l10.17-28.49M241 696.25s12.17 87.67 26.55 114.4l24.8 46.09M642 700.68S625.86 782.15 629.32 807s6.44 21.89 8.59 42.64" fill="none" stroke="#636363" stroke-linecap="round" stroke-linejoin="round"/></svg>