<svg xmlns="http://www.w3.org/2000/svg" width="1000" height="1550" viewBox="0 0 1000 1550"><path fill="#ccc08f" stroke="#262521" stroke-linecap="round" stroke-linejoin="round" stroke-width="3" d="M475.47 1566.88l7.49-166.29 25.52-8.68 25.72 174.97h160.5l-18.72-318.75-396.54 16.39 37.1 302.36h158.93z"/><path d="M296.22 1019s-11.62 57.38-21.45 88.33-13.09 105-15.36 135.22c-1 12.66 4.65 27 4.65 27l-61 1.5c-16.33-18.74-8.92-129.52-14.45-197.94A619.79 619.79 0 01192.25 945s-18.05-297.29 26.68-324.24 145.46-89.52 145.46-89.52-.24-.24.73 2.61c4.11 12.15 21.13 51.38 86.21 51.38 80.35 0 82.84-55 82.84-55s131.41 49.11 142.29 56.21c38.3 25 52.89 331.94 52.89 331.94s19 68.76 22.88 124.63c5.58 81.26 18.66 177.57 17.85 189.79s-5.3 18.89-5.3 18.89h-58.1s-1.25-8-2.89-34.36c-2.47-39.8-31-134-48.07-177.22" fill="#fff" stroke="#262521" stroke-linecap="round" stroke-linejoin="round" stroke-width="3"/><path d="M285.65 807.61s15.24 227 9.54 261.76-21.92 139.44-15.76 283.3c.36 8.29 72.47 16.4 149.47 15.47 137.52-1.66 262.15-20.89 262.15-20.89s-19.66-249.65-44-358c-11.86-52.84-5.7-181.65-5.7-181.65" fill="#fff" stroke="#262521" stroke-linecap="round" stroke-linejoin="round" stroke-width="3"/><path d="M711 1220.48s30.63-3.83 52.36 0M222.57 628.77s29.7 25.62 34.57 60.22M245.18 632.31s64.49-55.12 120.72-74.76M673.5 595.78s-25 21.1-18.4 74.6M537.24 553.53s87.13 27.47 115.48 45.84M200.27 1238s30.63-3.83 52.37 0" fill="none" stroke="#636363" stroke-linecap="round" stroke-linejoin="round"/><path d="M359.64 542.66c5.36 16.3 25.72 56 93.74 54.16 70.21-1.89 83.93-40.64 88.09-54.51" fill="none" stroke="#636363" stroke-linecap="round" stroke-linejoin="round"/></svg>