<svg xmlns="http://www.w3.org/2000/svg" width="1250" height="1550" viewBox="0 0 1250 1550"><title>s01e02-01</title><path d="M800.54,1223.65l5.66,56.15s-67.06,9.28-180.87,13.77-226.51-13.77-226.51-13.77l4.64-34.94Z" fill="#fff" stroke="#262521" stroke-linecap="round" stroke-miterlimit="10" stroke-width="3"/><path d="M489.37,531.26l0,0S489.38,531.23,489.37,531.26Z" fill="#262521" stroke="#262521" stroke-linecap="round" stroke-linejoin="round" stroke-width="3"/><path d="M877.23,1043c-3.83-55.87-22.88-124.63-22.88-124.63s-14.59-306.95-52.89-331.94c-10.88-7.1-142.29-56.21-142.29-56.21s-2.49,55-82.84,55c-65.08,0-82.1-39.23-86.21-51.38a10.79,10.79,0,0,1-.75-2.59c-1,.65-100.94,62.69-145.44,89.5C299.2,647.71,317.25,945,317.25,945a619.79,619.79,0,0,0-3.6,128.12c5.53,68.42-1.88,179.2,14.45,197.94l61-1.5s-5.6-14.35-4.65-27c2.27-30.22,5.53-104.27,15.36-135.22s21.45-88.31,21.45-88.33c.49,23.68.3,42.23-1,50.33-3.6,21.92-31.66,102.78-17.78,133.07-3.34,29.28-5.68,57.36-5.68,57.36s71,13.89,148,13c137.53-1.66,264.08-24.63,264.08-24.63s-1.48-25.34-4.52-50.16c9.94-22.62-4.2-83.52-17.92-143,17.07,47.16,40.25,126.63,42.46,162.33,1.64,26.39,2.89,34.36,2.89,34.36h58.1s4.48-6.67,5.3-18.89S882.81,1124.28,877.23,1043Z" fill="#262521" stroke="#262521" stroke-linecap="round" stroke-linejoin="round" stroke-width="3"/><path d="M578.75,639.53a4.09,4.09,0,0,1-2.47-.82,4.24,4.24,0,0,1-2.65.82l-1.77-.11a4.76,4.76,0,0,0-5.28-.63c-.59-.1-1.17-.21-1.75-.33a4,4,0,0,1-2.38-1.44,4.07,4.07,0,0,1-2.78.14c-.57-.17-1.13-.35-1.7-.54a4.78,4.78,0,0,0-5-2c-.53-.24-1.07-.49-1.6-.75a4.14,4.14,0,0,1-1.94-2,4.2,4.2,0,0,1-2.72-.55l-1.5-.94a4.12,4.12,0,0,1-1.69-2.19,4.08,4.08,0,0,1-2.62-.85l-1.38-1.09a4.07,4.07,0,0,1-1.44-2.35,4.14,4.14,0,0,1-2.52-1.1c-.42-.4-.84-.8-1.25-1.21a4.53,4.53,0,0,0-3.59-3.78c-.39-.43-.77-.86-1.15-1.3a4.53,4.53,0,0,0-3.26-4c-.35-.45-.69-.91-1-1.37a4.11,4.11,0,0,1-.8-2.58,4.19,4.19,0,0,1-2.16-1.64l-.93-1.43a4.4,4.4,0,0,0-2.69-4.4l-.84-1.47a4.07,4.07,0,0,1-.5-2.64,4.15,4.15,0,0,1-1.94-1.86l-.77-1.51a4.34,4.34,0,0,0-2.21-4.59l-.69-1.53a4.34,4.34,0,0,0-2-4.67l-.64-1.56a4.13,4.13,0,0,1-.14-2.66,4.19,4.19,0,0,1-1.69-2.07l-.57-1.58a4.05,4.05,0,0,1-.05-2.66,4.11,4.11,0,0,1-1.62-2.13l-.52-1.59a4.26,4.26,0,0,0-1.5-4.82l-.48-1.62a4.06,4.06,0,0,1,.12-2.65,4.11,4.11,0,0,1-1.48-2.2c-.15-.55-.29-1.1-.43-1.64a4.26,4.26,0,0,0-1.22-4.89l-.39-1.64a4.24,4.24,0,0,0-1.09-4.93l-.34-1.65a4.25,4.25,0,0,0-.95-5l-.3-1.67a4.3,4.3,0,0,0-.79-5c-.17-1.14-.24-1.76-.24-1.76a4.12,4.12,0,1,1,8.19-1s.07.57.21,1.56a4,4,0,0,0,.76,4.81l.28,1.59a4.09,4.09,0,0,1-.35,2.55,4.19,4.19,0,0,1,1.28,2.25l.32,1.58a4.15,4.15,0,0,1-.28,2.57,4.1,4.1,0,0,1,1.34,2.2l.37,1.57a4.11,4.11,0,0,1-.22,2.58,4,4,0,0,1,1.4,2.17l.41,1.55a4,4,0,0,0,1.32,4.7l.46,1.56a4,4,0,0,0,1.45,4.64l.5,1.55a4.15,4.15,0,0,1,0,2.56,4.11,4.11,0,0,1,1.57,2l.56,1.53a4.06,4.06,0,0,1,.1,2.55,4.12,4.12,0,0,1,1.65,2l.61,1.49a3.95,3.95,0,0,0,1.9,4.44l.67,1.46a4.1,4.1,0,0,1,.3,2.52,4,4,0,0,1,1.78,1.81c.24.47.48.95.73,1.42a3.87,3.87,0,0,0,2.28,4.22l.81,1.41a4.08,4.08,0,0,1,.53,2.46,4.17,4.17,0,0,1,2,1.6l.87,1.34a4.13,4.13,0,0,1,.68,2.42,4.05,4.05,0,0,1,2,1.47l.95,1.27a4.05,4.05,0,0,1,.84,2.34,4.22,4.22,0,0,1,2.13,1.32c.34.4.68.79,1,1.18a4.17,4.17,0,0,1,1,2.26,4.1,4.1,0,0,1,2.2,1.13l1.12,1.07a3.68,3.68,0,0,0,3.49,3c.4.33.8.65,1.21,1a4.08,4.08,0,0,1,1.42,2,4,4,0,0,1,2.35.65c.42.28.86.55,1.29.81a3.6,3.6,0,0,0,4,2.18c.46.23.92.44,1.38.65a4.12,4.12,0,0,1,1.81,1.58,4.06,4.06,0,0,1,2.41.08l1.44.46a3.58,3.58,0,0,0,4.4,1.11c.49.1,1,.19,1.49.27a3.6,3.6,0,0,0,4.52.55l1.52.08a4.13,4.13,0,0,1,2.29.82,4,4,0,0,1,2.29-.81c.51,0,1-.06,1.52-.09a3.58,3.58,0,0,0,4.51-.55c.51-.08,1-.17,1.49-.27a3.57,3.57,0,0,0,4.39-1.11l1.44-.47a3.56,3.56,0,0,0,4.21-1.68c.46-.21.92-.42,1.38-.65a4.14,4.14,0,0,1,2.38-.39,4.09,4.09,0,0,1,1.61-1.82l1.27-.81a3.63,3.63,0,0,0,3.72-2.68c.41-.32.8-.64,1.2-1a4.13,4.13,0,0,1,2.27-.93,4.07,4.07,0,0,1,1.18-2.16l1.09-1.09a3.75,3.75,0,0,0,3.18-3.44c.34-.4.68-.79,1-1.2a4.2,4.2,0,0,1,2.1-1.35,4.1,4.1,0,0,1,.81-2.36c.31-.42.61-.85.92-1.28a4.19,4.19,0,0,1,2-1.51,4.07,4.07,0,0,1,.64-2.43l.84-1.34a3.85,3.85,0,0,0,2.41-4.12c.26-.46.52-.92.77-1.39a3.9,3.9,0,0,0,2.2-4.28c.24-.48.47-1,.7-1.44a3.92,3.92,0,0,0,2-4.38c.22-.49.43-1,.64-1.47a4.06,4.06,0,0,1,1.67-1.93,4.14,4.14,0,0,1,.15-2.55l.58-1.51a4.1,4.1,0,0,1,1.59-2,4.15,4.15,0,0,1,0-2.56l.53-1.53a4.11,4.11,0,0,1,1.53-2.06,4.07,4.07,0,0,1,0-2.56l.48-1.55a4.11,4.11,0,0,1,1.47-2.11,4,4,0,0,1-.12-2.57l.42-1.55a4.07,4.07,0,0,1,1.41-2.16,4.13,4.13,0,0,1-.2-2.56l.39-1.59a4,4,0,0,0,1.07-4.75l.34-1.59a4,4,0,0,0,1-4.79l.29-1.59a4,4,0,0,0,.82-4.81l.24-1.62a3.9,3.9,0,0,0,.65-4.8c.09-.71.13-1.1.13-1.13a4.13,4.13,0,1,1,8.21.83s-.05.44-.15,1.28a4.32,4.32,0,0,0-.68,5.07L654,536.6a4.27,4.27,0,0,0-.84,5l-.31,1.66a4,4,0,0,1-1.31,2.31,4.11,4.11,0,0,1,.33,2.64l-.35,1.64a4.26,4.26,0,0,0-1.12,4.93L650,556.4a4.22,4.22,0,0,0-1.26,4.88c-.15.54-.29,1.09-.45,1.64a4.28,4.28,0,0,0-1.4,4.85l-.49,1.61a4.07,4.07,0,0,1-1.57,2.15,4.14,4.14,0,0,1,0,2.67l-.54,1.59a4.14,4.14,0,0,1-1.65,2.1,4.18,4.18,0,0,1-.08,2.68l-.61,1.57a4.31,4.31,0,0,0-1.91,4.7c-.22.52-.44,1-.67,1.56a4.05,4.05,0,0,1-1.81,2,4.15,4.15,0,0,1-.3,2.67c-.25.51-.49,1-.75,1.53a4.37,4.37,0,0,0-2.34,4.54c-.27.5-.54,1-.82,1.5a4.17,4.17,0,0,1-2,1.8,4.08,4.08,0,0,1-.59,2.63c-.3.49-.6,1-.91,1.45a4.44,4.44,0,0,0-2.87,4.28l-1,1.39a4.51,4.51,0,0,0-3.2,4.09c-.37.44-.74.89-1.12,1.32a4.54,4.54,0,0,0-3.53,3.82c-.41.43-.83.84-1.25,1.25a4.61,4.61,0,0,0-3.91,3.51l-1.37,1.1a4.66,4.66,0,0,0-4.28,3.09c-.5.32-1,.64-1.5.95a4.07,4.07,0,0,1-2.72.57,4.13,4.13,0,0,1-1.93,2c-.53.26-1.07.52-1.61.76a4.07,4.07,0,0,1-2.78.23,4.19,4.19,0,0,1-2.18,1.75c-.56.19-1.13.37-1.7.54a4.8,4.8,0,0,0-5.17,1.31c-.57.12-1.16.23-1.74.33a4.07,4.07,0,0,1-2.74-.49,4.12,4.12,0,0,1-2.54,1.12c-.58.05-1.17.08-1.77.11Z" fill="#262521"/><path d="M575,635.6a1.65,1.65,0,0,1,0-3.3c.53,0,1.06,0,1.6,0a1.66,1.66,0,0,1,1.72,1.57,1.64,1.64,0,0,1-1.57,1.72c-.58,0-1.15.05-1.71.05Zm-4.94-.19h-.15c-.57,0-1.13-.12-1.69-.19a1.65,1.65,0,1,1,.42-3.27c.52.07,1,.12,1.57.17a1.65,1.65,0,0,1-.15,3.3Zm11.51-.3a1.65,1.65,0,0,1-.22-3.29l1.59-.23a1.65,1.65,0,0,1,.53,3.25c-.56.09-1.11.18-1.68.25Zm-18-.78a1.72,1.72,0,0,1-.39,0l-1.65-.43a1.65,1.65,0,0,1,.89-3.18c.51.14,1,.28,1.54.4a1.65,1.65,0,0,1-.39,3.25Zm24.45-.48a1.65,1.65,0,0,1-.41-3.24l1.55-.42a1.65,1.65,0,0,1,.9,3.17l-1.63.44A1.48,1.48,0,0,1,588,633.85Zm-30.71-1.51a1.66,1.66,0,0,1-.61-.12l-1.57-.67a1.65,1.65,0,1,1,1.33-3c.48.21,1,.42,1.47.61a1.66,1.66,0,0,1-.62,3.19Zm37-.49a1.65,1.65,0,0,1-.59-3.19c.49-.19,1-.39,1.48-.6a1.64,1.64,0,1,1,1.28,3c-.52.23-1,.44-1.57.64A1.61,1.61,0,0,1,594.24,631.85Zm-42.88-2.37a1.69,1.69,0,0,1-.81-.21l-1.46-.86a1.65,1.65,0,0,1,1.71-2.82l1.38.81a1.65,1.65,0,0,1-.82,3.08Zm48.87-.38a1.65,1.65,0,0,1-.78-3.1c.47-.26.94-.51,1.4-.78a1.65,1.65,0,1,1,1.64,2.87c-.49.28-1,.55-1.49.82A1.65,1.65,0,0,1,600.23,629.1Zm-54.38-3.22a1.64,1.64,0,0,1-1-.32c-.45-.34-.9-.68-1.34-1a1.65,1.65,0,1,1,2-2.59l1.28,1a1.65,1.65,0,0,1-1,3Zm60-.21a1.65,1.65,0,0,1-.94-3l1.31-.92a1.65,1.65,0,0,1,1.94,2.67c-.46.33-.92.66-1.38,1A1.62,1.62,0,0,1,605.87,625.67Zm-65.08-4a1.64,1.64,0,0,1-1.12-.43l-1.23-1.16a1.65,1.65,0,0,1,2.29-2.38c.39.38.78.75,1.18,1.11a1.65,1.65,0,0,1,.09,2.33A1.62,1.62,0,0,1,540.79,621.67Zm70.29,0a1.63,1.63,0,0,1-1.25-.57,1.66,1.66,0,0,1,.18-2.33l1.21-1.06a1.65,1.65,0,1,1,2.2,2.46l-1.27,1.11A1.66,1.66,0,0,1,611.08,621.66Zm4.8-4.5a1.64,1.64,0,0,1-1.19-2.8c.38-.38.75-.77,1.11-1.16a1.65,1.65,0,1,1,2.42,2.24c-.38.41-.77.82-1.16,1.22A1.62,1.62,0,0,1,615.88,617.16ZM536.16,617a1.66,1.66,0,0,1-1.23-.54c-.37-.42-.75-.84-1.11-1.27a1.65,1.65,0,0,1,2.49-2.16c.36.41.71.82,1.07,1.22a1.64,1.64,0,0,1-1.22,2.75Zm84.1-4.74a1.57,1.57,0,0,1-1-.38,1.64,1.64,0,0,1-.23-2.32c.34-.41.68-.83,1-1.25a1.65,1.65,0,1,1,2.59,2l-1.05,1.31A1.68,1.68,0,0,1,620.26,612.24Zm-88.32-.33a1.64,1.64,0,0,1-1.31-.64l-1-1.34a1.65,1.65,0,0,1,2.65-2l1,1.29a1.66,1.66,0,0,1-.3,2.32A1.63,1.63,0,0,1,531.94,611.91ZM624.25,607a1.65,1.65,0,0,1-1.35-2.6c.31-.44.62-.88.92-1.33a1.65,1.65,0,1,1,2.73,1.86c-.31.46-.63.92-.95,1.37A1.63,1.63,0,0,1,624.25,607Zm-96.16-.45a1.65,1.65,0,0,1-1.37-.74l-.93-1.39a1.65,1.65,0,1,1,2.77-1.8l.9,1.36a1.65,1.65,0,0,1-1.37,2.57Zm99.78-5.06a1.65,1.65,0,0,1-1.41-2.51l.84-1.4a1.65,1.65,0,0,1,2.84,1.69l-.86,1.43A1.65,1.65,0,0,1,627.87,601.49ZM524.58,601a1.66,1.66,0,0,1-1.43-.81l-.83-1.44a1.65,1.65,0,0,1,2.86-1.64l.82,1.41a1.64,1.64,0,0,1-1.42,2.48Zm106.58-5.19a1.68,1.68,0,0,1-.78-.2,1.64,1.64,0,0,1-.68-2.23l.77-1.45a1.65,1.65,0,1,1,2.92,1.53c-.25.49-.52,1-.78,1.48A1.66,1.66,0,0,1,631.16,595.76Zm-109.79-.58a1.63,1.63,0,0,1-1.46-.88l-.78-1.48a1.65,1.65,0,0,1,3-1.5c.24.48.49,1,.74,1.44a1.64,1.64,0,0,1-.69,2.23A1.59,1.59,0,0,1,521.37,595.18Zm112.76-5.33a1.62,1.62,0,0,1-.7-.16,1.64,1.64,0,0,1-.79-2.19l.69-1.48a1.65,1.65,0,0,1,3,1.38l-.7,1.51A1.67,1.67,0,0,1,634.13,589.85Zm-115.71-.59a1.66,1.66,0,0,1-1.49-.94c-.24-.51-.47-1-.7-1.52a1.65,1.65,0,1,1,3-1.37c.22.49.45,1,.68,1.48a1.65,1.65,0,0,1-1.49,2.35Zm118.4-5.44a1.55,1.55,0,0,1-.63-.13,1.65,1.65,0,0,1-.89-2.16l.63-1.51a1.65,1.65,0,1,1,3.05,1.25l-.64,1.54A1.64,1.64,0,0,1,636.82,583.82Zm-121.09-.58a1.66,1.66,0,0,1-1.52-1l-.64-1.53a1.65,1.65,0,0,1,3-1.26l.63,1.5a1.67,1.67,0,0,1-.88,2.17A1.59,1.59,0,0,1,515.73,583.24Zm123.52-5.57a1.69,1.69,0,0,1-.58-.1,1.65,1.65,0,0,1-1-2.12l.56-1.53a1.65,1.65,0,1,1,3.1,1.11l-.57,1.57A1.66,1.66,0,0,1,639.25,577.67Zm-126-.55a1.66,1.66,0,0,1-1.54-1.06l-.58-1.55a1.65,1.65,0,1,1,3.08-1.17l.59,1.54a1.66,1.66,0,0,1-.95,2.13A1.81,1.81,0,0,1,513.25,577.12Zm128.19-5.68a1.93,1.93,0,0,1-.52-.08,1.65,1.65,0,0,1-1-2.09c.17-.52.34-1,.5-1.55a1.65,1.65,0,0,1,3.15,1c-.17.53-.35,1.06-.52,1.59A1.66,1.66,0,0,1,641.44,571.44ZM511,570.91a1.65,1.65,0,0,1-1.56-1.1l-.54-1.57a1.65,1.65,0,1,1,3.12-1.07l.54,1.55a1.65,1.65,0,0,1-1,2.1A1.7,1.7,0,0,1,511,570.91Zm132.43-5.78a1.47,1.47,0,0,1-.46-.07,1.64,1.64,0,0,1-1.12-2l.45-1.57a1.65,1.65,0,0,1,3.18.91L645,564A1.65,1.65,0,0,1,643.41,565.13Zm-134.52-.49a1.65,1.65,0,0,1-1.57-1.15l-.5-1.58a1.65,1.65,0,1,1,3.15-1l.49,1.56a1.65,1.65,0,0,1-1.07,2.08A1.77,1.77,0,0,1,508.89,564.64Zm136.29-5.88a2,2,0,0,1-.42,0,1.66,1.66,0,0,1-1.18-2c.14-.53.27-1.06.4-1.58a1.65,1.65,0,0,1,3.2.8c-.13.53-.27,1.07-.41,1.62A1.64,1.64,0,0,1,645.18,558.76ZM507,558.32a1.64,1.64,0,0,1-1.58-1.19l-.46-1.6a1.65,1.65,0,1,1,3.17-.9l.45,1.58a1.64,1.64,0,0,1-1.12,2A1.47,1.47,0,0,1,507,558.32Zm139.77-6a1.47,1.47,0,0,1-.36,0,1.63,1.63,0,0,1-1.24-2l.35-1.6a1.65,1.65,0,0,1,3.23.71l-.37,1.62A1.64,1.64,0,0,1,646.74,552.33Zm-141.53-.39a1.64,1.64,0,0,1-1.59-1.23l-.42-1.61a1.65,1.65,0,0,1,3.2-.82l.41,1.59a1.66,1.66,0,0,1-1.18,2A2,2,0,0,1,505.21,551.94Zm142.91-6.07a1.22,1.22,0,0,1-.32,0,1.65,1.65,0,0,1-1.3-1.94l.32-1.6a1.65,1.65,0,1,1,3.24.61l-.32,1.64A1.66,1.66,0,0,1,648.12,545.87ZM502,544.25l-.37-1.61a1.65,1.65,0,0,1,3.21-.75l.35,1.51-1.58.47Zm147.32-4.89a1.33,1.33,0,0,1-.28,0,1.65,1.65,0,0,1-1.35-1.9c.09-.55.18-1.09.27-1.61a1.64,1.64,0,0,1,3.25.51q-.12.81-.27,1.65A1.64,1.64,0,0,1,649.32,539.36Zm-147.16-.29a1.64,1.64,0,0,1-1.61-1.31l-.34-1.63a1.65,1.65,0,1,1,3.23-.66l.33,1.6a1.65,1.65,0,0,1-1.27,2A2,2,0,0,1,502.16,539.07Zm148.16-6.26-.23,0a1.65,1.65,0,0,1-1.41-1.85c.08-.59.15-1.13.22-1.63a1.63,1.63,0,0,1,1.84-1.43,1.65,1.65,0,0,1,1.43,1.84c-.06.51-.14,1.06-.22,1.66A1.65,1.65,0,0,1,650.32,532.81Zm-149.46-.24a1.65,1.65,0,0,1-1.62-1.35l-.3-1.64a1.65,1.65,0,0,1,3.25-.58l.29,1.62a1.63,1.63,0,0,1-1.32,1.92Z" fill="#b7b6b0"/><path d="M497.15,529.31a1.67,1.67,0,0,1-1.63-1.39l-.12-.84a1.65,1.65,0,0,1,3.26-.47l.12.78a1.64,1.64,0,0,1-1.36,1.89Z" fill="#7f7e78"/><path d="M576.54,638.15h0c-.57,0-1.13,0-1.7,0a1.65,1.65,0,0,1,.13-3.3c.53,0,1.07,0,1.61,0a1.65,1.65,0,0,1,0,3.3Zm4.93-.17a1.65,1.65,0,0,1-.13-3.29c.54,0,1.07-.1,1.59-.15a1.64,1.64,0,0,1,1.82,1.45,1.66,1.66,0,0,1-1.45,1.83l-1.69.16ZM570,637.69l-.22,0c-.56-.07-1.12-.16-1.68-.25a1.65,1.65,0,0,1,.54-3.25l1.58.23a1.65,1.65,0,0,1-.22,3.29Zm18-.64a1.64,1.64,0,0,1-1.61-1.31,1.65,1.65,0,0,1,1.27-2c.52-.1,1-.22,1.56-.35a1.65,1.65,0,0,1,.78,3.21c-.55.13-1.1.26-1.66.37A1.37,1.37,0,0,1,588,637.05Zm-24.49-.65a1.51,1.51,0,0,1-.42,0l-1.64-.46a1.66,1.66,0,0,1-1.1-2.06,1.63,1.63,0,0,1,2-1.1l1.54.43a1.65,1.65,0,0,1-.43,3.24Zm30.83-1.11a1.65,1.65,0,0,1-.54-3.21l1.5-.55a1.65,1.65,0,0,1,1.19,3.07c-.53.21-1.06.4-1.6.59A1.49,1.49,0,0,1,594.33,635.29Zm-37.07-1a1.5,1.5,0,0,1-.62-.13c-.53-.21-1-.43-1.57-.66a1.65,1.65,0,0,1,1.35-3c.48.22,1,.43,1.46.63a1.65,1.65,0,0,1-.62,3.18Zm43.14-1.6a1.65,1.65,0,0,1-.74-3.12c.48-.24,1-.48,1.42-.74a1.65,1.65,0,0,1,1.57,2.9c-.5.27-1,.54-1.51.79A1.63,1.63,0,0,1,600.4,632.71Zm-49.08-1.26a1.68,1.68,0,0,1-.8-.21c-.49-.28-1-.56-1.46-.85a1.65,1.65,0,1,1,1.69-2.83l1.38.8a1.65,1.65,0,0,1,.64,2.24A1.68,1.68,0,0,1,551.32,631.45Zm54.78-2a1.65,1.65,0,0,1-.91-3c.45-.29.89-.59,1.32-.89a1.65,1.65,0,1,1,1.9,2.69c-.46.33-.93.65-1.4,1A1.67,1.67,0,0,1,606.1,629.41Zm-60.34-1.49a1.64,1.64,0,0,1-1-.31l-1.37-1a1.65,1.65,0,0,1,2-2.64c.43.33.86.65,1.3,1a1.65,1.65,0,0,1-1,3Zm65.63-2.44a1.65,1.65,0,0,1-1.06-2.92l1.23-1a1.65,1.65,0,0,1,2.17,2.48c-.42.37-.85.74-1.29,1.1A1.65,1.65,0,0,1,611.39,625.48Zm-70.8-1.66a1.63,1.63,0,0,1-1.09-.41c-.42-.37-.84-.74-1.26-1.13a1.65,1.65,0,0,1,2.23-2.43c.4.36.79.72,1.2,1.07a1.65,1.65,0,0,1,.16,2.33A1.63,1.63,0,0,1,540.59,623.82Zm75.66-2.8a1.65,1.65,0,0,1-1.17-2.81l1.13-1.16a1.65,1.65,0,0,1,2.39,2.27c-.39.41-.78.81-1.18,1.21A1.65,1.65,0,0,1,616.25,621Zm-80.44-1.76a1.65,1.65,0,0,1-1.19-.51l-1.15-1.23a1.65,1.65,0,0,1,2.43-2.24c.36.4.73.8,1.11,1.18a1.66,1.66,0,0,1-1.2,2.8Zm84.89-3.13a1.62,1.62,0,0,1-1.06-.38,1.65,1.65,0,0,1-.2-2.33c.34-.41.68-.82,1-1.25a1.65,1.65,0,0,1,2.57,2.07c-.35.44-.7.87-1.07,1.3A1.63,1.63,0,0,1,620.7,616.13Zm-89.27-1.81a1.66,1.66,0,0,1-1.27-.6c-.36-.43-.71-.87-1.06-1.31a1.65,1.65,0,1,1,2.58-2l1,1.26a1.65,1.65,0,0,1-.22,2.32A1.62,1.62,0,0,1,531.43,614.32Zm93.32-3.41a1.64,1.64,0,0,1-1.34-2.61c.32-.44.63-.88.94-1.33a1.65,1.65,0,0,1,2.71,1.89l-1,1.37A1.65,1.65,0,0,1,624.75,610.91Zm-97.34-1.83a1.64,1.64,0,0,1-1.34-.68c-.33-.46-.65-.91-1-1.38a1.65,1.65,0,0,1,2.71-1.88l.93,1.33a1.64,1.64,0,0,1-1.33,2.61Zm101-3.64a1.64,1.64,0,0,1-1.39-2.52l.85-1.39a1.65,1.65,0,0,1,2.82,1.72c-.29.47-.58,1-.88,1.42A1.64,1.64,0,0,1,628.43,605.44ZM523.71,603.6a1.67,1.67,0,0,1-1.4-.76l-.89-1.43a1.65,1.65,0,1,1,2.81-1.73l.87,1.39a1.65,1.65,0,0,1-.51,2.28A1.68,1.68,0,0,1,523.71,603.6Zm108.08-3.85a1.61,1.61,0,0,1-.8-.2,1.66,1.66,0,0,1-.65-2.25c.27-.47.53-.95.79-1.43a1.65,1.65,0,0,1,2.9,1.56c-.26.49-.53,1-.8,1.47A1.63,1.63,0,0,1,631.79,599.75Zm-111.48-1.83a1.64,1.64,0,0,1-1.44-.84c-.28-.48-.55-1-.82-1.46a1.65,1.65,0,1,1,2.89-1.59c.27.48.53,1,.8,1.43a1.65,1.65,0,0,1-.63,2.25A1.55,1.55,0,0,1,520.31,597.92Zm114.54-4a1.59,1.59,0,0,1-.73-.17,1.66,1.66,0,0,1-.75-2.21c.24-.48.48-1,.71-1.46a1.65,1.65,0,1,1,3,1.42c-.24.5-.48,1-.73,1.5A1.65,1.65,0,0,1,634.85,593.88ZM517.18,592.1a1.65,1.65,0,0,1-1.47-.9l-.75-1.49a1.65,1.65,0,0,1,3-1.47c.24.49.48,1,.73,1.46a1.65,1.65,0,0,1-.72,2.22A1.69,1.69,0,0,1,517.18,592.1Zm120.45-4.21a1.74,1.74,0,0,1-.66-.14,1.67,1.67,0,0,1-.85-2.18c.22-.5.44-1,.65-1.5a1.65,1.65,0,1,1,3,1.3c-.22.51-.44,1-.67,1.53A1.64,1.64,0,0,1,637.63,587.89Zm-123.32-1.74a1.66,1.66,0,0,1-1.5-1l-.69-1.52a1.65,1.65,0,0,1,3-1.35l.68,1.49A1.65,1.65,0,0,1,515,586,1.72,1.72,0,0,1,514.31,586.15Zm125.86-4.37a1.61,1.61,0,0,1-.6-.12,1.64,1.64,0,0,1-.93-2.14c.2-.5.4-1,.59-1.52a1.65,1.65,0,0,1,3.08,1.18l-.6,1.56A1.67,1.67,0,0,1,640.17,581.78Zm-128.51-1.69a1.63,1.63,0,0,1-1.52-1c-.22-.51-.43-1-.64-1.54a1.65,1.65,0,0,1,3.06-1.24c.21.51.41,1,.62,1.51a1.64,1.64,0,0,1-.89,2.16A1.55,1.55,0,0,1,511.66,580.09Zm130.83-4.5a1.72,1.72,0,0,1-.55-.1,1.65,1.65,0,0,1-1-2.1l.54-1.55a1.65,1.65,0,1,1,3.12,1.07l-.55,1.57A1.65,1.65,0,0,1,642.49,575.59Zm-133.27-1.65a1.64,1.64,0,0,1-1.54-1.07l-.58-1.55a1.65,1.65,0,1,1,3.09-1.15l.58,1.54a1.64,1.64,0,0,1-1.55,2.23Zm135.37-4.63a1.77,1.77,0,0,1-.5-.07,1.65,1.65,0,0,1-1.07-2.08l.49-1.56a1.65,1.65,0,1,1,3.15,1l-.5,1.58A1.63,1.63,0,0,1,644.59,569.31ZM507,567.72a1.64,1.64,0,0,1-1.56-1.11l-.54-1.58a1.65,1.65,0,1,1,3.13-1l.53,1.55a1.66,1.66,0,0,1-1,2.1A1.7,1.7,0,0,1,507,567.72ZM646.5,563a1.74,1.74,0,0,1-.45-.06,1.65,1.65,0,0,1-1.13-2c.15-.52.3-1,.44-1.57a1.65,1.65,0,1,1,3.18.88l-.45,1.6A1.65,1.65,0,0,1,646.5,563Zm-141.58-1.54a1.66,1.66,0,0,1-1.58-1.16l-.49-1.59a1.65,1.65,0,0,1,3.16-1l.48,1.56a1.65,1.65,0,0,1-1.08,2.07A1.67,1.67,0,0,1,504.92,561.44Zm143.31-4.85a1.4,1.4,0,0,1-.41-.05,1.65,1.65,0,0,1-1.19-2l.4-1.59a1.65,1.65,0,0,1,3.2.79l-.41,1.62A1.64,1.64,0,0,1,648.23,556.59ZM503,555.1a1.65,1.65,0,0,1-1.58-1.2l-.45-1.61a1.65,1.65,0,1,1,3.18-.87l.44,1.57a1.65,1.65,0,0,1-1.13,2A1.51,1.51,0,0,1,503,555.1Zm146.76-4.94a2.33,2.33,0,0,1-.37,0,1.66,1.66,0,0,1-1.24-2l.36-1.6a1.65,1.65,0,1,1,3.22.71l-.36,1.62A1.66,1.66,0,0,1,649.78,550.16ZM501.3,548.71a1.65,1.65,0,0,1-1.6-1.24l-.41-1.61a1.65,1.65,0,0,1,3.2-.81l.41,1.6a1.66,1.66,0,0,1-1.19,2A2,2,0,0,1,501.3,548.71Zm149.86-5-.33,0a1.64,1.64,0,0,1-1.29-1.94l.31-1.61a1.65,1.65,0,0,1,3.24.61l-.32,1.64A1.64,1.64,0,0,1,651.16,543.68Zm-151.42-1.41a1.65,1.65,0,0,1-1.61-1.27l-.37-1.63a1.66,1.66,0,0,1,1.26-2,1.64,1.64,0,0,1,2,1.26l.37,1.59a1.65,1.65,0,0,1-1.24,2A1.61,1.61,0,0,1,499.74,542.27Zm152.62-5.1-.28,0a1.65,1.65,0,0,1-1.35-1.9l.27-1.62a1.65,1.65,0,1,1,3.26.52l-.27,1.65A1.66,1.66,0,0,1,652.36,537.17Zm-154-1.37a1.65,1.65,0,0,1-1.61-1.32c-.12-.58-.23-1.13-.33-1.64a1.65,1.65,0,1,1,3.24-.63l.32,1.61a1.66,1.66,0,0,1-1.29,1.95Z" fill="#7f7e78"/><path d="M653.35,530.65l-.21,0a1.65,1.65,0,0,1-1.43-1.85l.1-.77a1.65,1.65,0,0,1,3.28.35s0,.3-.11.85A1.64,1.64,0,0,1,653.35,530.65Z" fill="#7f7e78"/><g opacity="0.86"><path d="M600.23,629.1a1.65,1.65,0,0,1-.78-3.1c.47-.26.94-.51,1.4-.78a1.65,1.65,0,1,1,1.64,2.87c-.49.28-1,.55-1.49.82A1.65,1.65,0,0,1,600.23,629.1Zm-54.38-3.22a1.64,1.64,0,0,1-1-.32c-.45-.34-.9-.68-1.34-1a1.65,1.65,0,1,1,2-2.59l1.28,1a1.65,1.65,0,0,1-1,3Zm60-.21a1.65,1.65,0,0,1-.94-3l1.31-.92a1.65,1.65,0,0,1,1.94,2.67c-.46.33-.92.66-1.38,1A1.62,1.62,0,0,1,605.87,625.67Zm-65.08-4a1.64,1.64,0,0,1-1.12-.43l-1.23-1.16a1.65,1.65,0,0,1,2.29-2.38c.39.38.78.75,1.18,1.11a1.65,1.65,0,0,1,.09,2.33A1.62,1.62,0,0,1,540.79,621.67Zm70.29,0a1.63,1.63,0,0,1-1.25-.57,1.66,1.66,0,0,1,.18-2.33l1.21-1.06a1.65,1.65,0,1,1,2.2,2.46l-1.27,1.11A1.66,1.66,0,0,1,611.08,621.66Zm4.8-4.5a1.64,1.64,0,0,1-1.19-2.8c.38-.38.75-.77,1.11-1.16a1.65,1.65,0,1,1,2.42,2.24c-.38.41-.77.82-1.16,1.22A1.62,1.62,0,0,1,615.88,617.16ZM536.16,617a1.66,1.66,0,0,1-1.23-.54c-.37-.42-.75-.84-1.11-1.27a1.65,1.65,0,0,1,2.49-2.16c.36.41.71.82,1.07,1.22a1.64,1.64,0,0,1-1.22,2.75Zm84.1-4.74a1.57,1.57,0,0,1-1-.38,1.64,1.64,0,0,1-.23-2.32c.34-.41.68-.83,1-1.25a1.65,1.65,0,1,1,2.59,2l-1.05,1.31A1.68,1.68,0,0,1,620.26,612.24Zm4-5.24a1.65,1.65,0,0,1-1.35-2.6c.31-.44.62-.88.92-1.33a1.65,1.65,0,1,1,2.73,1.86c-.31.46-.63.92-.95,1.37A1.63,1.63,0,0,1,624.25,607Z" fill="#fff"/></g><g opacity="0.86"><path d="M497.15,529.31a1.67,1.67,0,0,1-1.63-1.39l-.12-.84a1.65,1.65,0,0,1,3.26-.47l.12.78a1.64,1.64,0,0,1-1.36,1.89Z" fill="#fff"/><path d="M606.1,629.41a1.65,1.65,0,0,1-.91-3c.45-.29.89-.59,1.32-.89a1.65,1.65,0,1,1,1.9,2.69c-.46.33-.93.65-1.4,1A1.67,1.67,0,0,1,606.1,629.41Zm5.29-3.93a1.65,1.65,0,0,1-1.06-2.92l1.23-1a1.65,1.65,0,0,1,2.17,2.48c-.42.37-.85.74-1.29,1.1A1.65,1.65,0,0,1,611.39,625.48Zm-70.8-1.66a1.63,1.63,0,0,1-1.09-.41c-.42-.37-.84-.74-1.26-1.13a1.65,1.65,0,0,1,2.23-2.43c.4.36.79.72,1.2,1.07a1.65,1.65,0,0,1,.16,2.33A1.63,1.63,0,0,1,540.59,623.82Zm75.66-2.8a1.65,1.65,0,0,1-1.17-2.81l1.13-1.16a1.65,1.65,0,0,1,2.39,2.27c-.39.41-.78.81-1.18,1.21A1.65,1.65,0,0,1,616.25,621Zm-80.44-1.76a1.65,1.65,0,0,1-1.19-.51l-1.15-1.23a1.65,1.65,0,0,1,2.43-2.24c.36.4.73.8,1.11,1.18a1.66,1.66,0,0,1-1.2,2.8Zm84.89-3.13a1.62,1.62,0,0,1-1.06-.38,1.65,1.65,0,0,1-.2-2.33c.34-.41.68-.82,1-1.25a1.65,1.65,0,0,1,2.57,2.07c-.35.44-.7.87-1.07,1.3A1.63,1.63,0,0,1,620.7,616.13Zm-89.27-1.81a1.66,1.66,0,0,1-1.27-.6c-.36-.43-.71-.87-1.06-1.31a1.65,1.65,0,1,1,2.58-2l1,1.26a1.65,1.65,0,0,1-.22,2.32A1.62,1.62,0,0,1,531.43,614.32Z" fill="#fff"/><path d="M653.35,530.65l-.21,0a1.65,1.65,0,0,1-1.43-1.85l.1-.77a1.65,1.65,0,0,1,3.28.35s0,.3-.11.85A1.64,1.64,0,0,1,653.35,530.65Z" fill="#fff"/></g></svg>