<svg xmlns="http://www.w3.org/2000/svg" width="1000" height="1550" viewBox="0 0 1000 1550"><path d="M296.22 1019s-11.62 57.38-21.45 88.33-13.09 105-15.36 135.22c-1 12.66 4.65 27 4.65 27l-61 1.5c-16.33-18.74-8.92-129.52-14.45-197.94A619.79 619.79 0 01192.25 945s-18.05-297.29 26.68-324.24 145.46-89.52 145.46-89.52 15.56 54.92 86.94 54c80.35-1.05 82.84-55 82.84-55s131.41 49.11 142.29 56.21c38.3 25 52.89 331.94 52.89 331.94s19 68.76 22.88 124.63c5.58 81.26 18.66 177.57 17.85 189.79s-5.3 18.89-5.3 18.89h-58.1s-1.25-8-2.89-34.36c-2.47-39.8-31-134-48.07-177.22" fill="#262521" stroke="#262521" stroke-linecap="round" stroke-linejoin="round" stroke-width="3"/><path d="M676.71 1106.11c37.35-24.58 1.37-106.33-4.68-134.09-8.29-30.62 8.55-85.42-31-97.14-33.33 61.96 26.07 180.99 35.68 231.23z" fill="#514f48"/><path d="M682.21 1006.69C678 992.44 673.77 980 672 972c-2-7.28-2.52-15.92-2.75-25-.14-2-.19-10.5-.19-11.91V935c-3 14.53-14.63 51.77-19.31 83.79 10.82 34.85 23 66.79 26.94 87.29 7.57-5 12.13-12.31 14.53-21.07-6.22-5.26-35.5-56.52-9.01-78.32z" fill="#fff" opacity=".3"/><path d="M271.73 1119.33c.56-2.27 2.42-10 3-12 9.83-30.95 21.45-88.33 21.45-88.33l9.07-125.14s-34.82-6.42-38.21 23.31-26.91 200.26 4.69 202.16z" fill="#514f48"/><path d="M260.5 974.74c-1.57 15.74-3.06 33-4 50 27.63 13.71 8.7 54.47 1.5 71.67 2.39 13.73 6.69 22.51 13.73 22.93.56-2.27 2.42-10 3-12 6.07-19.11 12.82-48.3 17.1-67.83-7.02-27.27-23.1-52.51-31.33-64.77z" fill="#fff" opacity=".3"/><path d="M703.79 1217.34c-.38-39.88-31-134-48.07-177.22" fill="none" stroke="#262521" stroke-linecap="round" stroke-linejoin="round" stroke-width="3"/><path d="M675.54 1223.65l5.66 56.15s-67.06 9.28-180.87 13.77-226.51-13.77-226.51-13.77l4.64-34.94z" fill="#fff" stroke="#262521" stroke-linecap="round" stroke-miterlimit="10" stroke-width="3"/><path d="M285.65 807.61s15.24 227 9.54 261.76-23.46 194.93-23.46 194.93 71 16.39 148 15.46c137.53-1.66 265.66-20.89 265.66-20.89s-18.72-164.53-38.27-269.61c-9.91-53.24-5.7-181.65-5.7-181.65" fill="#262521" stroke="#262521" stroke-linecap="round" stroke-linejoin="round" stroke-width="3"/><path d="M240 922.43c16.9 0 33.26-4.84 49-10.61 4.56-1.68 9.08-3.44 13.6-5.2 1.78-.69 1-3.6-.79-2.89-15.46 6-31.11 12.11-47.6 14.61a96.47 96.47 0 01-14.2 1.09 1.5 1.5 0 000 3zM243.18 936.13a237.09 237.09 0 0057.61-3c1.9-.33 1.09-3.22-.8-2.89a234 234 0 01-56.81 2.93c-1.93-.13-1.92 2.87 0 3zM245.32 948.44c13.79 1.55 27.8 4.85 41.72 3a29.49 29.49 0 0010.19-3c1.7-.91.19-3.5-1.52-2.59-5.57 3-12.44 3.21-18.62 3.08a181.09 181.09 0 01-21.55-2.1c-3.41-.48-6.81-1-10.22-1.37-1.91-.22-1.9 2.78 0 3zM246.3 964.13a96.43 96.43 0 0046.12 3.41 39.15 39.15 0 006.69-1.56c1.81-.64 1-3.54-.79-2.9-4.39 1.55-9.24 2-13.85 2.41a101.19 101.19 0 01-22.94-.76 82.94 82.94 0 01-14.43-3.49c-1.83-.62-2.62 2.27-.8 2.89zM249.87 979.3a72.93 72.93 0 0025.66 6.92 79.63 79.63 0 0021-.59 18.19 18.19 0 006.33-1.93c1.64-1 .14-3.61-1.52-2.59a5.42 5.42 0 01-1.7.72 26.24 26.24 0 01-3 .74 59.2 59.2 0 01-8.39.95 83.85 83.85 0 01-23.16-2 62.65 62.65 0 01-13.7-4.82c-1.73-.86-3.25 1.73-1.52 2.59zM249 995.6a113.53 113.53 0 0055.76 11.94c1.92-.08 1.93-3.08 0-3a110.37 110.37 0 01-54.2-11.54c-1.72-.86-3.24 1.73-1.52 2.59zM247.18 1012.51A75.68 75.68 0 00296.8 1033c1.93.06 1.93-2.94 0-3a72.92 72.92 0 01-47.5-19.6c-1.41-1.32-3.53.8-2.12 2.12zM243.83 1031.41c6.19 5.65 13.6 9.9 21.14 13.48a137.38 137.38 0 0019.36 7.6c1.41.43 3.42 1.31 4.94 1.12 1.89-.24 1.91-3.24 0-3-.16 0-.66-.06-.11 0-.27 0-.54-.1-.81-.16-.84-.18-1.68-.42-2.52-.66-2.66-.78-5.29-1.69-7.9-2.66a130.94 130.94 0 01-21.05-9.94 67.06 67.06 0 01-10.93-7.92c-1.43-1.3-3.55.81-2.12 2.12zM244.19 1049.87a42.39 42.39 0 0016.12 15 70.23 70.23 0 0016.79 6c2.21.53 4.46 1 6.63 1.64 1.85.57 2.64-2.32.8-2.89-4.23-1.31-8.63-2-12.87-3.33a48.57 48.57 0 01-16.61-8.49 38.3 38.3 0 01-8.27-9.45c-1-1.63-3.61-.13-2.59 1.52zM239.07 1068.1a74.66 74.66 0 0040 21c1.89.33 2.7-2.56.8-2.89a72 72 0 01-38.7-20.21 1.5 1.5 0 00-2.12 2.12zM234.54 1082.36c12.05 9.88 25.08 20.36 41 22.51a1.56 1.56 0 001.85-1 1.52 1.52 0 00-1.05-1.85c-15.45-2.08-28-12.17-39.71-21.74-1.48-1.22-3.62.89-2.12 2.12zM633.44 893c13.76.48 28.11.81 40.92-5 1.76-.8.23-3.39-1.51-2.59-12.27 5.57-26.25 5.05-39.41 4.59-1.93-.06-1.93 2.94 0 3zM633.68 911.8c10.88.52 22.32 2.34 32.73-2a19.3 19.3 0 008-5.79c1.18-1.5-.93-3.64-2.12-2.12-3.56 4.55-9.3 6.36-14.82 7.17a78.85 78.85 0 01-17.17.23c-2.21-.17-4.42-.41-6.63-.51-1.93-.09-1.93 2.91 0 3zM634 928.73c5 .31 10 1.21 15.1 1.44 6.72.31 13.73-.07 20.09-2.45a27.28 27.28 0 009.85-6.19 1.5 1.5 0 00-2.12-2.12c-9.21 9.21-24 8.43-35.94 7.08-2.32-.27-4.64-.62-7-.76-1.92-.12-1.92 2.88 0 3zM634.53 946a29.63 29.63 0 015.4.33c2.49.29 5 .61 7.47.8 6.06.47 12.3.21 18.1-1.76a32.55 32.55 0 0010.31-5.81c1.49-1.23-.65-3.35-2.12-2.12a30.88 30.88 0 01-17.52 6.75 79.4 79.4 0 01-15.63-.79 33.61 33.61 0 00-6-.4c-1.92.13-1.93 3.13 0 3zM639.5 960.53a82.88 82.88 0 0010.56.6 70.67 70.67 0 0021.26-2.77 33.47 33.47 0 0011-5.69c1.5-1.21-.63-3.32-2.12-2.12-5.46 4.39-12.8 6.18-19.62 7a92.93 92.93 0 01-17.57.32c-1.18-.09-2.36-.18-3.54-.34a1.5 1.5 0 000 3zM637.91 981.16a59.36 59.36 0 0025.45-.27 38.08 38.08 0 0014.72-6.71c1.51-1.2-.62-3.31-2.12-2.12-3.69 2.93-8.74 4.8-13.4 5.94a55.61 55.61 0 01-23.85.26c-1.89-.37-2.7 2.52-.8 2.9zM641.72 998.12c13.41 3 29.09 2.42 41.07-5a20.26 20.26 0 005.28-4.43c1.19-1.5-.92-3.64-2.12-2.13-2.58 3.26-6.63 5.35-10.43 6.82a53 53 0 01-19.15 3.41 64.61 64.61 0 01-13.85-1.55c-1.88-.41-2.68 2.48-.8 2.89zM648.26 1016.6a56.7 56.7 0 0034.88-6.17c1.7-.91.19-3.5-1.52-2.59a53.23 53.23 0 01-32.57 5.86 1.55 1.55 0 00-1.84 1 1.52 1.52 0 001 1.85zM647 1038a71.11 71.11 0 0040.35-9.38 1.5 1.5 0 00-1.51-2.59 68.34 68.34 0 01-38.84 9c-1.93-.14-1.92 2.86 0 3zM662.18 1055.32a46 46 0 0030.74-8.61c1.54-1.12.05-3.73-1.52-2.59a43.47 43.47 0 01-29.22 8.2c-1.92-.17-1.91 2.84 0 3zM667.6 1073.71a41.47 41.47 0 0029.07-10.8c1.43-1.31-.7-3.43-2.12-2.13a38.38 38.38 0 01-26.95 9.93c-1.93-.06-1.93 2.94 0 3zM672.17 1089.55a25.74 25.74 0 0027.6-10c1.13-1.58-1.47-3.08-2.59-1.52a22.62 22.62 0 01-24.22 8.62 1.5 1.5 0 00-.79 2.9z" fill="#262521"/><path d="M296.22 1019s-11.62 57.38-21.45 88.33-13.09 105-15.36 135.22" fill="none" stroke="#262521" stroke-linecap="round" stroke-linejoin="round" stroke-width="3"/></svg>