<svg xmlns="http://www.w3.org/2000/svg" width="1000" height="1550" viewBox="0 0 1000 1550"><path d="M675.54 1223.65l-26.64-647-124.34-50.1s-7.62 55.38-75 58.47-73.43-58.47-73.43-58.47L271.73 617l6.73 627.86-4.64 34.94s112.7 18.26 226.51 13.77 180.87-13.77 180.87-13.77z" fill="#fff" stroke="#262521" stroke-linecap="round" stroke-miterlimit="10" stroke-width="3"/><path d="M422.23 717.36c-21.88-62.51-51.29-163.3-56.91-182.77 9.56-5 16.27-9.61 17.73-13.36 2.32-6 3-14.93 3-24.11-14.32.79-25.64 2.81-28.64 6.92-9.9 13.57-12.16 13.57-12.16 13.57s-8.2-8.2-14.7 0-35.63 29.41-30 40.15c1.11 2.1 4.49 4.61 9.2 7.29-31.06 19.17-68.15 42-90.81 55.71C163.65 654.21 192.25 945 192.25 945s-25.4 203.66 0 287.68c2.36 15.94 3 28 6.43 41.4l64-1.5s-4.07-29.79-3.12-42.45c12.87-27.53 11.44-91.85 21.27-122.8 6-18.8 10.39-47.35 12.94-66.86a165.41 165.41 0 01-1.33 19.9c-3.73 22.75-25 83.8-14.05 144.17-3 26.45-6.6 59.72-6.6 59.72s110 14.21 147.79 4.08c-.06.04 26.27-483.48 2.65-550.98zM735.35 918.39s-1.41-298-58.89-331.94c-5.16-3.05-35.88-15.26-67.45-27.52a2.61 2.61 0 00.8-.95c2.21-6.91-4.71-10-13.56-15.54s-8-14.34-11.34-21-13.84 1.66-13.84 1.66-10.79-15.77-17.71-24.44c-3-3.78-20.84-3.88-40-2.79.85 13.67 2.77 26.49 6.85 30 1.75 1.5 6.82 3.88 13.93 6.79-.51 19-4.58 144-24.28 182.44-21.34 41.61 15.44 553.27 15.44 553.27 120-4.44 160.08-9.51 160.08-9.51s-.25-33.66-4.15-65c3.94-36.14-5.66-81.16-16.45-126.52 13.83 47.61 26 148.48 36.2 157.63 1.64 26.39 1.89 36.36 1.89 36.36l64.1-1.5s-1-14.31-2.6-35.73c25.63-83.1-29.02-305.71-29.02-305.71z" fill="#262521" stroke="#262521" stroke-linecap="round" stroke-linejoin="round" stroke-width="3"/><path d="M598 590.09S535.13 712 518.71 718.52" fill="none" stroke="#636363" stroke-linecap="round" stroke-linejoin="round"/><path d="M511.83 716.61c-22.07 11.44 14.44 554.27 14.44 554.27M420.23 717.36c28 58.19-1.21 550.52-1.21 550.52" fill="none" stroke="#8e8e8e" stroke-linecap="round" stroke-linejoin="round" stroke-width="3" stroke-dasharray="2 5"/><path d="M527.13 688.79c2.34 33.29 2.8 66.68 2.82 100.05s-.37 66.52.26 99.77c.36 18.85 1.06 37.7 2.33 56.51.13 1.91 3.13 1.93 3 0-2.26-33.49-2.68-67.07-2.69-100.63 0-33.2.38-66.41-.3-99.61-.38-18.71-1.11-37.42-2.42-56.09-.14-1.92-3.14-1.93-3 0z" fill="#fff"/><path d="M538.52 922c-.95-5.68-9.17-4.53-9.82.74-1.26 4.48 5 8.19 7.21 3.42a4 4 0 002.61-4.16z" fill="#fff"/><path d="M330.49 590s68.43 121 84.86 127.54" fill="none" stroke="#636363" stroke-linecap="round" stroke-linejoin="round"/><path d="M400.44 688.63q3.54 50.1 4.7 100.34 1.17 50 0 99.94-.66 28-2.07 56.05c-.1 1.93 2.9 1.93 3 0q2.5-50.16 2.67-100.41.14-50-2.06-99.92-1.23-28-3.21-56c-.13-1.92-3.13-1.93-3 0z" fill="#fff"/><path d="M410 921.88c-.95-5.67-9.17-4.53-9.83.75-1.26 4.47 5 8.19 7.22 3.41a4 4 0 002.61-4.16z" fill="#fff"/><path d="M406.94 922a.26.26 0 01-.05-.09l.06.1z" fill="#fff"/><path d="M525.48 1261.38h-4.67a2.33 2.33 0 00-2.1 1.92l-.9 16.37c0 .78-.08 1.55-.13 2.32a2.39 2.39 0 002.5 2.72H527a2.12 2.12 0 001.74-1.08.35.35 0 010-.08l.08-.15a2.88 2.88 0 00.13-.31v-.09a3.18 3.18 0 00.08-.33 2.57 2.57 0 000-.48l-1-16.36c0-.78-.09-1.55-.14-2.33a2.39 2.39 0 00-2.41-2.12zm.81 14.35l-.06 4.3a1.56 1.56 0 01-1.58 1.53h-2.33a1.56 1.56 0 01-1.53-1.57l.07-4.3a1.55 1.55 0 011.58-1.53h2.33a1.54 1.54 0 011.52 1.57z" fill="#84837e"/><path fill="#ffc802" d="M263.35 133.02h347.83V324.7H263.35z"/><path d="M341 320.72s1.9 38.95 6.56 37.44 69.05-45.38 195.31-9.5c0 0 6.39-29.19 6.39-34.83S418.72 261.87 341 320.72z" fill="#262521" stroke="#262521" stroke-linecap="round" stroke-linejoin="round" stroke-width="3"/><path d="M346.3 328.6s-9.19-59.3 22.2-82.07 29.4-85.74 69.93-85.74 49.57 75.11 67.71 81.93c30.22 11.39 37.48 56.28 35 74.13" fill="#262521" stroke="#262521" stroke-linecap="round" stroke-linejoin="round" stroke-width="3"/><rect x="521.96" y="1256.98" width="2.86" height="11.41" rx=".68" transform="rotate(180 523.39 1262.68)" fill="#aaa9a3"/></svg>