<svg xmlns="http://www.w3.org/2000/svg" width="1000" height="1550" viewBox="0 0 1000 1550"><path d="M296.22 1019s-11.62 57.38-21.45 88.33-13.09 105-15.36 135.22c-1 12.66 4.65 27 4.65 27l-61 1.5c-16.33-18.74-8.92-129.52-14.45-197.94A619.79 619.79 0 01192.25 945s-18.05-297.29 26.68-324.24 145.46-89.52 145.46-89.52-.24-.24.73 2.61c4.11 12.15 21.13 51.38 86.21 51.38 80.35 0 82.84-55 82.84-55s131.41 49.11 142.29 56.21c38.3 25 52.89 331.94 52.89 331.94s19 68.76 22.88 124.63c5.58 81.26 18.66 177.57 17.85 189.79s-5.3 18.89-5.3 18.89h-58.1s-1.25-8-2.89-34.36c-2.47-39.8-31-134-48.07-177.22" fill="#fff" stroke="#262521" stroke-linecap="round" stroke-linejoin="round" stroke-width="3"/><path d="M285.65 807.61s15.24 227 9.54 261.76-20.42 139.44-14.26 283.3c.36 8.29 71 16.4 148 15.47 137.52-1.66 262.15-20.89 262.15-20.89s-19.66-249.65-44-358c-11.86-52.84-5.7-181.65-5.7-181.65" fill="#fff" stroke="#262521" stroke-linecap="round" stroke-linejoin="round" stroke-width="3"/><path fill="#ffc802" d="M263.35 133.02h347.83V324.7H263.35z"/><path d="M341 320.72s1.9 38.95 6.56 37.44 69.05-45.38 195.31-9.5c0 0 6.39-29.19 6.39-34.83S418.72 261.87 341 320.72z" fill="#262521" stroke="#262521" stroke-linecap="round" stroke-linejoin="round" stroke-width="3"/><path d="M346.3 328.6s-9.19-59.3 22.2-82.07 29.4-85.74 69.93-85.74 49.57 75.11 67.71 81.93c30.22 11.39 37.48 56.28 35 74.13" fill="#262521" stroke="#262521" stroke-linecap="round" stroke-linejoin="round" stroke-width="3"/><path d="M711 1220.48s30.63-3.83 52.36 0M222.57 628.77s29.7 25.62 34.57 60.22M245.18 632.31s63.37-55.12 119.6-74.76M673.5 595.78s-25 21.1-18.4 74.6M536.82 554s87.55 27 115.9 45.41M200.27 1238s30.63-3.83 52.37 0" fill="none" stroke="#636363" stroke-linecap="round" stroke-linejoin="round"/><path d="M418.14 610.68a23.38 23.38 0 00-11 3.28c-13.4-20.39-40.74-68.19-23.13-95.9 1.62-6.93 1.75-16.37 1.32-25.18-43.17 37 3.34 112.56 13.8 128.32a36.4 36.4 0 00-7 23.35c.7 18.12 13.48 32.34 28.54 31.75s26.7-15.74 26-33.87-13.47-32.34-28.53-31.75zM512.86 615.65c11-19.09 45.92-88.15.16-126a212 212 0 002.08 25.66c23.13 27.81 2.27 75.2-8.68 95.72a23.32 23.32 0 00-11.59-2.6c-15.06.58-26.7 15.74-26 33.86s13.48 32.35 28.54 31.76 26.7-15.75 26-33.87c-.37-9.95-4.44-18.74-10.51-24.53z" fill="#262521" stroke="#262521" stroke-linecap="round" stroke-linejoin="round" stroke-width="3"/><path d="M506.4 657.41c22.8 41.2 45 84.17 50.83 131.53 3.08 24.84 2.17 50 1.11 74.93q-1.61 37.67-4.73 75.25c-1 11.57-2.32 23.14-2.93 34.74-.54 10.1-.37 20.43 2.25 30.27a52.94 52.94 0 0015.14 24.92c7.52 7.22 15.87 13.48 21.12 22.71 10.43 18.31 9.16 40.67 7 60.87-2.23 20.72-4.63 45.65 11.77 61.69 12 11.71 29.84 12.64 45.33 15.91 7.73 1.63 15.77 3.85 22 8.92 7.83 6.36 10.9 16.12 10.21 26a47.86 47.86 0 01-3.64 14.75c-.73 1.79 2.17 2.57 2.89.8 3.7-9 5.24-19.43 2.4-28.94a31.08 31.08 0 00-14.86-18.2c-14.29-8-31.62-7.27-46.89-12.44-8.87-3-16.4-8.25-21.17-16.45-5.82-10-7.11-21.73-6.69-33.09.43-11.87 2.5-23.61 3-35.48.39-9.93-.08-20-2.44-29.69a58.42 58.42 0 00-13-25.34c-7.22-8.06-16.68-14.06-22.79-23.12-12.22-18.07-9.07-41.72-7.19-62.19q3.5-37.83 5.44-75.77c1.3-25.39 2.68-51 1-76.36a247.83 247.83 0 00-14.74-68.88c-8-21.94-18.4-42.91-29.45-63.44-2.77-5.15-5.59-10.28-8.42-15.39-.93-1.69-3.52-.18-2.59 1.51z" fill="#262521"/></svg>