<svg xmlns="http://www.w3.org/2000/svg" width="1000" height="1550" viewBox="0 0 1000 1550"><path d="M374.35 528.39s12.74 107.09 76.95 107.09 74.86-107.56 74.86-107.56" fill="none" stroke="#262521" stroke-linecap="round" stroke-linejoin="round" stroke-width="8.27" stroke-dasharray="1.65 4.96"/><path d="M378.36 545.32a1.67 1.67 0 01-1.62-1.31l-.34-1.64a1.65 1.65 0 113.24-.66l.34 1.61a1.65 1.65 0 01-1.28 2 2 2 0 01-.34 0zM518.58 565a1.53 1.53 0 01-.47-.07 1.64 1.64 0 01-1.12-2l.46-1.57a1.65 1.65 0 013.18.9l-.47 1.6a1.64 1.64 0 01-1.58 1.14zm-134.88-.49a1.65 1.65 0 01-1.57-1.15l-.5-1.59a1.65 1.65 0 013.16-1l.49 1.57a1.65 1.65 0 01-1.08 2.08 1.68 1.68 0 01-.5.05zm136.65-5.89a1.52 1.52 0 01-.42-.06 1.65 1.65 0 01-1.19-2c.14-.53.28-1.06.41-1.58a1.65 1.65 0 113.21.8c-.13.53-.27 1.07-.41 1.62a1.67 1.67 0 01-1.6 1.18zm-138.57-.45a1.66 1.66 0 01-1.59-1.19l-.46-1.61a1.66 1.66 0 113.19-.89l.45 1.58a1.66 1.66 0 01-1.13 2.05 1.82 1.82 0 01-.46.02zm140.14-6a1.55 1.55 0 01-.37 0 1.64 1.64 0 01-1.24-2l.36-1.6a1.64 1.64 0 012-1.26 1.66 1.66 0 011.26 2l-.37 1.63a1.65 1.65 0 01-1.64 1.19zM380 551.74a1.66 1.66 0 01-1.6-1.23l-.42-1.62a1.66 1.66 0 013.21-.82l.41 1.59a1.65 1.65 0 01-1.18 2 1.52 1.52 0 01-.42.08zm143.28-6.09h-.32a1.65 1.65 0 01-1.3-2l.31-1.61a1.65 1.65 0 113.25.62l-.32 1.64a1.66 1.66 0 01-1.6 1.35zm1.2-6.53h-.28a1.65 1.65 0 01-1.35-1.91c.09-.55.18-1.09.26-1.62a1.66 1.66 0 013.27.52c-.08.54-.18 1.09-.27 1.65a1.66 1.66 0 01-1.61 1.36zM377 538.83a1.66 1.66 0 01-1.62-1.31l-.34-1.63a1.65 1.65 0 113.24-.67l.34 1.61a1.65 1.65 0 01-1.28 2 1.32 1.32 0 01-.34 0zm148.54-6.27h-.22a1.66 1.66 0 01-1.42-1.86c.08-.59.15-1.13.22-1.63a1.65 1.65 0 113.28.41c-.07.51-.14 1.07-.22 1.67a1.66 1.66 0 01-1.68 1.41zm-149.84-.24A1.66 1.66 0 01374 531l-.3-1.64a1.66 1.66 0 013.26-.58l.29 1.63a1.64 1.64 0 01-1.32 1.92z" fill="#b7b6b0"/><path d="M523.41 556.4a1.51 1.51 0 01-.42 0 1.66 1.66 0 01-1.19-2l.41-1.6a1.65 1.65 0 113.21.8l-.41 1.62a1.65 1.65 0 01-1.6 1.18zm-145.59-1.5a1.65 1.65 0 01-1.59-1.2l-.45-1.61a1.65 1.65 0 013.19-.88l.45 1.58a1.66 1.66 0 01-1.14 2.05 1.82 1.82 0 01-.46.06zM525 550a1.61 1.61 0 01-.37 0 1.65 1.65 0 01-1.24-2l.36-1.6a1.65 1.65 0 113.23.7l-.37 1.63A1.64 1.64 0 01525 550zm-148.91-1.5a1.66 1.66 0 01-1.6-1.25l-.4-1.61a1.65 1.65 0 113.2-.81l.41 1.6a1.65 1.65 0 01-1.19 2 1.52 1.52 0 01-.42.07zm150.25-5h-.32a1.66 1.66 0 01-1.3-1.95l.31-1.61a1.65 1.65 0 113.25.61l-.32 1.64a1.65 1.65 0 01-1.62 1.27zm-151.81-1.41a1.66 1.66 0 01-1.61-1.28l-.37-1.64a1.65 1.65 0 113.23-.71l.36 1.6a1.64 1.64 0 01-1.24 2 1.57 1.57 0 01-.37-.01zm153-5.12h-.28a1.64 1.64 0 01-1.35-1.9l.26-1.63a1.66 1.66 0 013.27.52l-.27 1.66a1.67 1.67 0 01-1.61 1.31zm-154.42-1.38a1.66 1.66 0 01-1.62-1.32c-.12-.58-.22-1.13-.32-1.65a1.65 1.65 0 011.31-1.93 1.67 1.67 0 011.94 1.31c.09.51.2 1 .31 1.61a1.64 1.64 0 01-1.29 1.95z" fill="#7f7e78"/><path d="M371.94 529a1.64 1.64 0 01-1.63-1.39l-.13-.83a1.65 1.65 0 113.27-.48l.12.79a1.64 1.64 0 01-1.37 1.91 1.18 1.18 0 01-.26 0zM528.54 530.39h-.21a1.66 1.66 0 01-1.43-1.86l.1-.78a1.63 1.63 0 011.82-1.46 1.64 1.64 0 011.46 1.82s0 .29-.1.85a1.66 1.66 0 01-1.64 1.43z" fill="#f4f4f4"/><path d="M364.37 531.26s.01-.03 0 0z" fill="#262521"/><path d="M752.23 1043c-3.83-55.87-22.88-124.63-22.88-124.63s-14.59-306.95-52.89-331.94c-10.88-7.1-142.29-56.21-142.29-56.21s-2.49 55-82.84 55c-65.08 0-82.1-39.23-86.21-51.38a10.79 10.79 0 01-.75-2.59c-1 .65-100.94 62.69-145.44 89.5C174.2 647.71 192.25 945 192.25 945a619.79 619.79 0 00-3.6 128.12c5.53 68.42-1.88 179.2 14.45 197.94l61-1.5s-5.6-14.35-4.65-27c2.27-30.22 5.53-104.27 15.36-135.22s21.45-88.31 21.45-88.33c.49 23.68.3 42.23-1 50.33-3.6 21.92-31.66 102.78-17.78 133.07-3.34 29.28-4.88 70.37-4.88 70.37s75.15 22.84 152.15 21.92c137.52-1.66 259.4-32.43 259.4-32.43s-1.79-39.51-4.83-64.33c9.94-22.62-4.2-83.52-17.92-143 17.07 47.16 40.25 126.63 42.46 162.33 1.64 26.39 2.89 34.36 2.89 34.36h58.1s4.48-6.67 5.3-18.89-12.34-108.46-17.92-189.74z" fill="#262521" stroke="#262521" stroke-linecap="round" stroke-linejoin="round" stroke-width="3"/><path fill="#dbd7c6" stroke="#dbd7c6" stroke-linecap="round" stroke-linejoin="round" d="M652.43 736.95l1.86 75.58 60.44-54.37-8.66-74.84-53.64 53.63zM281.82 749.71l-1.86 75.58-90.42-67.13 7.17-74.34 85.11 65.89zM317.44 561.03l57.57 52.48 156.74-2.87 64.57-57.31 65.48 25.59-94.91 92.58-219.7 4.03-87.87-79.18 58.12-35.32z"/><path d="M594.59 552.75c-4.74 1.53-8.62 5-12.25 8.25-.76.69-1.56 1.36-2.29 2.08-.18.18-.88 1-.51.6a6 6 0 01-.45.43c.28-.24-.21.15-.27.19l-.54.34c-2.11 1.32-3.82 2.51-4.78 4.89l.77-1.32c.2-.18.31-.19.06-.12a7.72 7.72 0 00-1.17.47 4.26 4.26 0 00-1.9 1.74 3.69 3.69 0 00-.42 1.19c-.18 1-.15 1.06.09.08.62-.54.72-.67.29-.37a16.16 16.16 0 00-1.89.87 7.62 7.62 0 00-2 1.81 3.94 3.94 0 01-1.16.82 19.44 19.44 0 00-1.9 1.18 8.58 8.58 0 00-1.17 1c-.09.1-1.17 1.67-1 1.73-.19-.05.91-.72.9-.71.46-.08.26-.06-.6.07a5.86 5.86 0 00-1 .39 5.93 5.93 0 00-1.85 1.49c-.33.4-.62.83-.94 1.24s-.1-.05-.31.38c-.26.25-.3.28-.11.11h-.12a6.48 6.48 0 00-.88.29 5.22 5.22 0 00-2.76 2 2.71 2.71 0 00-.46 1c-.11.84-.14 1.07-.09.68a.82.82 0 01.1-.37c.22-.27.21-.28 0 0 .24-.16.27-.19.1-.06l-.32.23a10.07 10.07 0 00-1.22.93 5.51 5.51 0 00-1.44 2.26c-1.08 3 3 4.81 5 2.92l3.63-3.36-4.71-3.63a2.74 2.74 0 01-.91 1.13c-.15.12-.79.51-1.21.75-1.57.87-3 1.39-3.49 3.31-.11.65-.05.53.15-.34l.58-.59c-.53.42.46-.15-.22.12a10.37 10.37 0 00-1.7.76c-1.22.74-1.53 1.62-2.71 2.63s-3.48 2.35-5.13 3.6a14.1 14.1 0 00-5 6.23 3 3 0 002.1 3.69 3.07 3.07 0 003.69-2.09c-.17.43.17-.32.21-.4a7.57 7.57 0 01.49-.76c-.29.38.25-.26.31-.33.21-.22.43-.43.66-.64a7.68 7.68 0 011.1-.9c.57-.41 1.15-.79 1.72-1.18a23.9 23.9 0 006.46-5.59l-1.08 1.07c.06 0 .67-.42.35-.25s.21-.08.27-.1a8.9 8.9 0 001.63-.75 4.66 4.66 0 002.09-3.78l-1.49 2.59c2.43-1.41 4.94-2.55 6.33-5.16a3 3 0 00-4.72-3.63l-3.63 3.36 5 2.92-.2.46c.11-.22-.32.21.09-.07a13.15 13.15 0 001.45-1.1 5.35 5.35 0 001.66-3.72l-.41 1.52-.48.48c-.24.07-.25.07 0 0a3.1 3.1 0 00.73-.23 7.74 7.74 0 001.69-.74 11.72 11.72 0 002.63-2.81c-.21.25.09 0 .11-.11s.37-.32-.24 0c-.46.11-.43.13.07 0a5.07 5.07 0 00.68-.11 5.23 5.23 0 001-.41 5.72 5.72 0 002.43-3.37l-.78 1.33c.4-.45.25-.33.57-.54s.73-.44 1.1-.66a13 13 0 002.24-1.52 6.15 6.15 0 001.14-1.3c.26-.34.26-.36 0-.05s-.29.3.05.08a8.82 8.82 0 002.12-1 5 5 0 002.06-2.58 2.74 2.74 0 00.2-1.06 2.5 2.5 0 01-1 1.35c.49-.36-.49.11.14-.06a5.77 5.77 0 002.58-1.43 2.19 2.19 0 00.62-1c.17-.42.2-.48.1-.18.19-.3.21-.33 0-.09a5.36 5.36 0 01.43-.4c-.34.28.55-.35.65-.41l.81-.49a13.9 13.9 0 002.39-1.76c.72-.7.93-1 1.64-1.64s1.3-1.2 2-1.79c2.67-2.39 5.72-5.12 9-6.18a3 3 0 00-1.6-5.79z" fill="#dbd7c6"/><path d="M542.42 602.54l.14-.11-.61.47a2 2 0 01.47-.27l-.72.3a1.86 1.86 0 01.56-.15l-.79.1h.15a2.26 2.26 0 001.15-.26 2.68 2.68 0 001.59-1.59 2.26 2.26 0 00.26-1.15l-.11-.8a2.94 2.94 0 00-.77-1.32l-.61-.47a3 3 0 00-1.51-.41c-.32 0-.64.08-1 .12h-.19l-.37.11c-.28.12-.58.23-.86.38l-.16.09a.91.91 0 00-.16.11l-.66.51-.08.07a2.22 2.22 0 00-.62 1 2.17 2.17 0 00-.26 1.15 2.22 2.22 0 00.26 1.16 2.25 2.25 0 00.62 1l.61.47a3 3 0 001.51.41l.8-.11a2.94 2.94 0 001.32-.77z" fill="#dbd7c6"/><path d="M536.81 600.77a10.73 10.73 0 00-1.46.89 6.13 6.13 0 00-1.63 1.58 3.54 3.54 0 00-.42.93 4.24 4.24 0 00-.12.87 3.28 3.28 0 00.44 1.64l-.3-.72v.04l-.11-.8v.07l.41-1.52v.06l.47-.6.6-.47.71-.3h-.06l.79-.1H536l.8.11a.48.48 0 01-.17-.05l.71.31a3.6 3.6 0 00-1.91-.58 3.22 3.22 0 00-2.73 1.55 5.46 5.46 0 00-.55 2.21l.11-.8a2 2 0 01-.06.23l.3-.72a.6.6 0 01-.06.11l.47-.61-.06.06.61-.47h-.07l2.31-.31a3.66 3.66 0 00-2.71.35 11.71 11.71 0 00-1 .82l.61-.47a.82.82 0 01-.17.11l.72-.3h-.13l.8-.11h-.07l.8.11a.61.61 0 01-.18-.05l.71.3a4.45 4.45 0 00-1.78-.51 3.34 3.34 0 00-3.22 2.4c0 .14-.06.29-.11.43l.31-.71-.08.12.47-.6a.58.58 0 01-.12.1l.61-.47c-.28.2-.62.3-.9.5a3.86 3.86 0 00-1.54 2 2.83 2.83 0 00-.14 1 3.49 3.49 0 00.16 1 3.25 3.25 0 001.38 1.79 3 3 0 004.1-1.07 3 3 0 00.31-2.32.53.53 0 01-.05-.18l.11.8a.17.17 0 010-.1l-.11.79v-.09l-.3.72a.22.22 0 010-.08l-.47.6.11-.11-.61.47c.26-.19.58-.29.85-.46a3.85 3.85 0 001.3-1.3 6.52 6.52 0 00.44-1.23l-.31.72v-.07l-.47.61h.05l-.61.47h.06l-.71.3h.08l-.8.11h.09l-.8-.11h.09l-.71-.31a6 6 0 001.08.44 3.28 3.28 0 002.14-.2 6 6 0 001.46-1l-.61.47.17-.1-.72.3h.13l-.8.11h.14l-.8-.11a3.23 3.23 0 003.07-.79 3.5 3.5 0 00.89-1.49 9.52 9.52 0 00.2-1.42l-.11.8a.8.8 0 01.05-.21l-.31.72a.28.28 0 01.06-.09l-.47.61-.61.46h.06l-.72.31-.79.11h.08l-.8-.11.15.05-.72-.3a5.7 5.7 0 001.09.45 3.35 3.35 0 002.48-.34 3.15 3.15 0 001.48-1.91 3.62 3.62 0 000-1.67 6.52 6.52 0 00-.36-.88l.41 1.52-.11.8a.27.27 0 010-.12l-.3.72a1 1 0 01.1-.17l-.47.61a2.67 2.67 0 01.49-.46l-.61.47a10.47 10.47 0 011.53-.94 3 3 0 001.38-1.79 3 3 0 00-2.1-3.69 3.32 3.32 0 00-2.31.3z" fill="#dbd7c6"/><path d="M534.82 609.05l-.76-.88c-1.91-2.24-6 .13-5 2.92l.3.81 5-2.92a11.42 11.42 0 00-3.37-2.47c-1.53-.73-4.11-.29-4.4 1.79-.07.47-.36.67.1.17s.34-.5.81-.72c-.16.08-.53 0 .11 0a2.68 2.68 0 01-.49 0l-.61-.15c-.42-.11-.83-.29-1.25-.39a20.66 20.66 0 00-4.38-.05c-1.52 0-3-.08-4.57-.11s-2.87 0-4.3.07a29.34 29.34 0 01-4.38.32c-2.45-.18-4.8-1-7.28-.67a8.48 8.48 0 00-2.12.48l-.19.08c-.78.3-1 .39-.53.25-.07.17-.73-.09.08 0s-.14-.07-.37-.14a7.91 7.91 0 00-1.75-.38 5.61 5.61 0 00-3.13.69c-.89.48-.94.45-2.13.16a21.71 21.71 0 00-3.84-.74 16.94 16.94 0 00-3.83.64c-.84.13-1.53-.63-2.6-.87a9.63 9.63 0 00-4.43.24 14.18 14.18 0 01-3.74.86c-1.46 0-2.91-.53-4.37-.64a9.7 9.7 0 00-2.41.11c-.27 0-.54.09-.8.16-.44.13-1.06.64-1.5.61-1.13-.08.51-.18.48-.13s-.94-.17-1.09-.19a5.38 5.38 0 00-2.95.19 3.1 3.1 0 00-2.1 3.69c.39 1.42 2.18 2.71 3.69 2.09.5-.2.37-.14.17-.12s.71.13.69.12a8.32 8.32 0 002.28.15 9.66 9.66 0 001.93-.62 4 4 0 011.62-.07c1.39.15 2.75.55 4.15.64a13.27 13.27 0 004.37-.73 7.46 7.46 0 012.6-.54c.57.14 1.1.64 1.77.83a6.38 6.38 0 002.26.22c1.17-.09 2.39-.62 3.44-.66a17.73 17.73 0 013.37.72 8.58 8.58 0 004.33-.07 3.66 3.66 0 001.22-.6c.94-.72.11-.1.15-.15l.26-.07h-.19c.22 0-.56-.2.07.06a6.64 6.64 0 002.61.48c1.32 0 2.2-.79 3.31-.89 2.57-.26 5.12.89 7.72.77 1.37-.06 2.73-.33 4.11-.39 1.59-.07 3.19 0 4.79 0 1.76.05 3.53.12 5.29.08.85 0 .73-.11 1.39.08a10.69 10.69 0 001.38.34c2.79.48 6.1-.38 6.56-3.66l-4.4 1.79a6.86 6.86 0 012.15 1.53c2 2.08 6.06-.05 5-2.92l-.29-.81-5 2.92.76.88a3 3 0 004.24 0 3.06 3.06 0 000-4.24z" fill="#dbd7c6"/><path d="M459.92 607.79a36.13 36.13 0 01-6.24 0 20 20 0 01-2.86-.85c-1.31-.36-2.41.48-3.44.85-3.45 1.25-7.42.63-11.06.43a8.8 8.8 0 00-2.76 0 6 6 0 00-2.37 1.44c-.27.23-.23.08-.14.12-.07 0 1.59-.28 1.59-.27s-1.91-.47-1.06-.2c.08 0 .36.06.05-.06L431 609a8.4 8.4 0 00-1.61-.59 5.32 5.32 0 00-3.46.49c-.66.28-.27.13-.17.09-.11 0-.53.05-.13 0a3.84 3.84 0 01-.48 0c-.12 0-.72-.09-.35 0-1.73-.29-3.41-.95-5.2-.91-1.43 0-3.14.43-3.92 1.76-.64 1.09-.26.7 1.27.23 2.22-.69 1.85-.18 1.21-.76a4 4 0 00-.86-.57 3.59 3.59 0 00-2.56-.4 14.6 14.6 0 01-1.57.62 15.83 15.83 0 01-3.43-.18 3 3 0 00-3 3 3.06 3.06 0 003 3c2.58.19 5 .37 7.31-1l-2.31.3c-.56-.21.09.13.19.2s.25.21.39.3a3.88 3.88 0 002.11.7c2 0 3.06-1.51 3.73-3.18l-2.16 2.19a1.9 1.9 0 011.24-.13c.34.05 1.33.31 1.9.45a10.86 10.86 0 004.84.27 6.41 6.41 0 001.33-.48 3.14 3.14 0 00.58-.29l-.66.19q-.47 0 .09.09h-.11a9.77 9.77 0 001.48.65c.39.14.75.19 1.15.3s.54.05.16.07l1 .14a4.23 4.23 0 002.32-.69 9.69 9.69 0 001-.76c.35-.3.44-.18.11-.11-1.88.41.25.27.86.3 1.71.1 3.42.24 5.13.27a19.14 19.14 0 0010.09-2.07h-3c3.69 1.64 7.46 1.49 11.41 1.34a3 3 0 100-6z" fill="#dbd7c6"/><path d="M411.08 608.51a19.35 19.35 0 00-2.84.18 7.61 7.61 0 01-1.35 0c-.35 0 .39.14-.13-.06.33.13 1.05 1.06.68.38a3 3 0 00-5.18 0c-.3.6-.07.11.07 0 .3-.15.4-.12 0-.08-.9.08.34 0-.2 0h-.74a17.08 17.08 0 00-4 .53 7.75 7.75 0 01-3.19.49 17.24 17.24 0 00-3.13-.35 94.84 94.84 0 00-12.83.66l2.59 1.48c-2.66-3.83-7.56-3.26-10.67-.29-2.8 2.67 1.45 6.91 4.24 4.24.26-.22.28-.26.06-.1a5.69 5.69 0 01.52-.33c.32-.16.36-.19.11-.09.2-.07.39-.13.59-.18.36-.08.39-.08.08 0h.06q.51.15.06 0a.47.47 0 01-.23-.21 3 3 0 002.59 1.49 84.87 84.87 0 0113.89-.63 2.78 2.78 0 01.58 0c.18 0 .15 0-.11.06l.39.11a6.45 6.45 0 003.15 0c1.39-.2 2.71-.78 4.1-.94a29.6 29.6 0 003.51-.26 5.29 5.29 0 003.61-2.73h-5.18a5.42 5.42 0 004.78 2.66c1.35.07 2.69-.32 4-.22a3 3 0 000-6z" fill="#dbd7c6"/><path d="M348.5 591.11c.42-.08.5-.09.25 0h.58c.58-.08-.36-.18.13 0s-.3-.14-.21-.15c-.21-.18-.23-.18-.06 0s.15.16-.15-.21a25.65 25.65 0 001.23 2.46 3.41 3.41 0 001.35 1.53c.29.16.35.17.19 0a1.73 1.73 0 01-.54-1.22c-.22.73.61 2.42.93 3a9 9 0 003.64 3.63 8.61 8.61 0 002.36.88 7.06 7.06 0 001.59.19q1.4.09-1.72-1.42c0 .18.05.36.08.53a5.55 5.55 0 002.85 3.47c.42.23.87.44 1.32.64a3.72 3.72 0 01.38.22c-.31-.26-.34-.29-.1-.07-.36-.28-.16-.18.07.18a5.5 5.5 0 002.16 1.87c.39.18.82.35 1.23.5s.34.13 0 0a3.35 3.35 0 01.45.27l-1.48-2.59a6.75 6.75 0 001.75 4.12l.49.6c.11.12.5.73.17.18l.13.21q.19.38.06.06c-.09-.22-.09-.2 0 .07a1.16 1.16 0 010-.64 3 3 0 005.78 1.6 5.67 5.67 0 00-1.41-5.12l-.48-.59c-.06-.08-.61-.78-.42-.5s.11.13-.06-.11-.16-.29 0 .06c-.07-.29-.08-.32 0-.08.07.41.05.2-.08-.65-.38-1.39-1.58-2-2.79-2.47-.25-.1-.52-.18-.76-.3.29.12.29.1 0 0a.72.72 0 01.25.21 7.67 7.67 0 00-2.89-2.46c-.21-.1-.42-.18-.62-.29s-.71-.64-.3-.13c-.37-.47.27.31.18.39a4.88 4.88 0 00-.15-.77 4 4 0 00-1.89-2.53 4.14 4.14 0 00-1.75-.46h-.58c.27.05.22 0-.15 0a3.08 3.08 0 01-2.1-1.69c.27.51-.25-.76-.15-.37s0 .12-.11-.71a6.19 6.19 0 00-.38-1 4.52 4.52 0 00-2.09-1.92l1.08 1.07c-.82-1.31-1.24-2.84-2.35-4-1.74-1.76-4.23-1.61-6.47-1.24a3 3 0 00-2.1 3.69 3.08 3.08 0 003.69 2.1z" fill="#dbd7c6"/><path d="M321.09 565.57h.64c-.36 0 .23 0 .27.06.24.25-.45-.29-.54-.36l-.24-.34c.12.21.12.2 0 0s0-.12 0 .08l.15.53c.12.42.24.84.39 1.26a3.1 3.1 0 002.89 2.2c.09 0 .43 0 .42.08l-.2-.06c-.19-.18-.21-.2-.06-.05 0 0 0-.07.13.21-.16-.44.13.58.13.56l2.89-3.8c-.55.05-.31.08-.83-.11a3 3 0 00-3.69 2.1 3.08 3.08 0 002.09 3.69 14.66 14.66 0 011.82.9l.72.46c-.54-.35 0 0 .09.09s.23.26.36.38c-.62-.57-.25-.4-.16-.15a5.12 5.12 0 00.31.62c1 2 2.94 2.39 5 2.62L331.1 575a7.93 7.93 0 002.16 2.34 6.92 6.92 0 003.11.64l-2.89-2.2a7.76 7.76 0 002.36 3.61c.35.32.72.62 1.05 1 .14.16.12.12-.07-.1q.21.39.09.12c-.08-.2-.07-.14 0 .17-.06-.29-.05-.2 0 .25a4.89 4.89 0 003.35 3.88 19 19 0 003.69.4l-2.9-2.2a18.5 18.5 0 001.82 4.09 6.64 6.64 0 002 1.91 8.94 8.94 0 001.3.59l.64.22-.27-.13-.77-1.32.11.28 5.48-2.31a10.47 10.47 0 00-2.58-3.72 8.25 8.25 0 00-2-1.36 7.31 7.31 0 00-1.35-.54c-1-.21.32.32 0 .14s-.11-.1.09.15l-.21-.31c-.13-.21-.26-.43-.4-.64a11 11 0 00-1.16-1.64 4.75 4.75 0 00-4-1.7 3.09 3.09 0 00-3 3c0 1.48 1.38 3.18 3 3 .55-.06 0-.11-.22-.18s-.2-.09 0 0l-.27-.18c.47.59-.28-.54.12.15.08.14.18.28.27.43a9.1 9.1 0 002.07 2.59c.93.73 2.25.89 2.82 1.32a8.88 8.88 0 01.68.75 10.49 10.49 0 01.91 1.72 3 3 0 005.48-2.31 4.42 4.42 0 00-1.93-2.46 10.38 10.38 0 00-1.33-.56l-.44-.16c-.06 0-.1-.12-.14-.18l-.33-.61c-.12-.27-.43-1.17-.62-1.67a3.2 3.2 0 00-2.89-2.2 11.5 11.5 0 00-1.18-.07h-.68c.35 0 .22.13 0 0a1.71 1.71 0 01.51.41c.19.26.43 1.66.11-.11a5.8 5.8 0 00-.58-1.7 7.84 7.84 0 00-1.81-2.16c-.3-.27-.61-.52-.88-.81s-.23-.27-.05 0c-.39-.54 0 .32-.18-.38a3.13 3.13 0 00-2.9-2.21H335.84c-.68-.27 1.28.59.57.28-.22-.31-.44-.6-.68-.9a3.73 3.73 0 00-2.38-.9c.8.13-.05-.05-.21-.08s-.66-.35.21.11c-.3-.16.81.52.65.7 0 0-.16-.28-.17-.31-1.13-2.76-4.18-4-6.74-5.1l-1.6 5.79a5.75 5.75 0 002.43.32 3.05 3.05 0 002.89-3.8 6.35 6.35 0 00-6.2-5.14l2.89 2.21a11.49 11.49 0 00-1.52-3.71c-1.23-1.55-3.1-1.88-5-1.89-3.87 0-3.87 6 0 6zM268.92 608.86a7.12 7.12 0 003.29 3.87 20.24 20.24 0 002.09.9l.42.17c-.21-.09-.22-.09 0 0a6.77 6.77 0 01.87.5l-1.37-1.79a5.73 5.73 0 002.34 4 8.16 8.16 0 001.83.89l.4.14c.49.19.39.12-.28-.19l-.13-.13a5.45 5.45 0 01.29.53c.78 1.59 1.61 3.17 3.45 3.73.41.12.84.16 1.26.24 0 0 .69.18.7.17a1.21 1.21 0 01-.6-.39c-.14-2.11-.36-2.71-.68-1.81-.8 1.9 1.16 3.74 2.89 3.8.77 0-.45-.11 0 0s-.53-.19-.15 0-.5-.47 0 0c.11.11.32.42-.06-.1a13 13 0 011.07 1.89 11 11 0 003.4 4.39 6.34 6.34 0 00.92.51l.71.3c-.59-.38-.75-.45-.48-.2 0 0 .47.49.24.23a20.19 20.19 0 001.85 2.21 6 6 0 001.37.88c-.56-.25 1 .4 1 .4l-.48-.31a2.82 2.82 0 01.36.33c.66.79 1.33 1.58 2 2.38a10.09 10.09 0 002.35 2.12c.18.11.37.21.56.31s1.12.66.72.34c-.18-.15-.11-.19.1.12a20.29 20.29 0 002.79 2.68c.44.26 2.25 1.18.81.08-.33-.26-1.13-.78-.9-1.39a1.37 1.37 0 000 .45c.1 2.41 1.49 4.55 4.19 4.18.26 0 .9 0 .33-.1-.12 0-.58-.18-.11 0-.21-.08-.38-.23-.58-.31a1.42 1.42 0 01.31.33c-.16-.48-.14-.21-.06 0a4.74 4.74 0 00.31.54c.2.38.38.76.59 1.13a7.31 7.31 0 002 2.42 3.86 3.86 0 002.12.85c-.14 0 .23.24.11 0 0 .06 0 0 0 0 .49.44.83 1 1.32 1.45a4.35 4.35 0 004 1 3 3 0 002.09-3.69 3.07 3.07 0 00-3.69-2.1c.5-.09 1.59-.06 1.81.51 0-.09-.3-.31-.36-.39-.28-.31-.52-.65-.81-.94a6.65 6.65 0 00-4.33-1.78l1.51.41c-.48-.25 0 .07.05.11a1.42 1.42 0 01-.32-.33c.37.48 0-.09-.14-.29-.34-.58-.61-1.2-1-1.78a5.72 5.72 0 00-4.56-3.06 3 3 0 00-1.56.19c1-.52 3.38 2.75 2.76 1.67 0 .06 0 .8.05.31a6.48 6.48 0 00-.24-2 4 4 0 00-1.77-2.25c.37.22-1.48-.62-.91-.33.11.06.3.39-.11-.09-.16-.2-.35-.38-.53-.58a11.19 11.19 0 00-2-1.95 10.87 10.87 0 00-1.18-.62 1.88 1.88 0 01-.61-.44c-1.22-1.17-2.05-2.67-3.35-3.76a4.48 4.48 0 00-1.71-1.06c-1-.24-.17 0-.2 0-.22 0-.36-.23-.09 0a4.75 4.75 0 01-.38-.4c.08.09.33.44 0 0s-.63-.87-1-1.29a6.35 6.35 0 00-.81-.83 6.43 6.43 0 00-.73-.56c-.21-.13-1.2-.57-.74-.34s-.7-.48-.15 0c-.13-.11-.25-.23-.37-.35s-.47-.58-.25-.28-.09-.15-.13-.22l-.33-.56c-.18-.33-.35-.68-.53-1a16.93 16.93 0 00-1-1.82 6.14 6.14 0 00-5.05-3l2.89 3.8c1.16-2.76-1.26-4.9-3.73-5.37-.12 0-.89-.26-1-.18.68.49.88.59.59.31a3.35 3.35 0 00-.28-.53 6.94 6.94 0 00-2.29-3.12 7.45 7.45 0 00-1.69-.73c-.28-.1-.53-.23-.12 0-.18-.08-.42-.42-.23-.11 0 .06.62.64.24.22.26.28.09.32 0-.1a3.86 3.86 0 00-.92-2.09 10.07 10.07 0 00-3.43-1.8h-.12a5.13 5.13 0 01-.66-.34c-.14-.08-.59-.31-.22-.14-.24-.11-.19-.35-.05 0a3.1 3.1 0 00-3.69-2.09 3 3 0 00-2.1 3.69z" fill="#dbd7c6"/><path d="M314.29 649.69a6.6 6.6 0 003.51 5.31 6.68 6.68 0 006.43 0l-4.51-2.59a6.79 6.79 0 001.65 5.27c1.35 1.32 3.3 1.52 5.08 1.59l-2.12-.87c-.29-.74-.36-.85-.2-.34l.07.31a6.77 6.77 0 00.46 1.33 5.38 5.38 0 001.48 1.8l.26.2c.37.37.35.27-.06-.29l.16.77a10.1 10.1 0 00.73 2c1.32 2.63 4 3.51 6.75 3.69l-2.12-.88a10.67 10.67 0 004 2.54 4 4 0 001.05.33c-.06 0-.58-.36-.25-.15s-.14-.33.08.11c.12.24.26.47.38.71 1.07 2.21 1.95 4.44 4.6 5.11a3 3 0 003.54-1.74 3.05 3.05 0 00-1.22-3.75 34.46 34.46 0 01-5.16-4.72c-2.11-2.32-5.66.15-5 2.92a7.27 7.27 0 006 5.57c.49.1 1 .17 1.46.27a4.88 4.88 0 01.55.12c.34.09.77.44.11 0 .67.46-.33-.35.06 0l-.26-.36a3.07 3.07 0 01.17.31c-.17-.44-.21-.49-.12-.17 0-.44-.05-.48 0-.12s0 .75-.07 1.13a3 3 0 001.48 2.59 5.07 5.07 0 00.91.56c.79.32-.17-.22-.37-.53a1 1 0 01-.16-.58 7.48 7.48 0 00.12 1.16 3.59 3.59 0 001.28 1.8c2 1.61 3.93.46 5.92-.39l-1.52.41c1.78 0 3.49.51 5.26.62 1.95.12 3.49-.56 5.32-1-.37-.1-.42-.07-.14.07a4.72 4.72 0 00.53.33 11.56 11.56 0 001.44.65 9.13 9.13 0 002.69.54 12.15 12.15 0 005.9-1.41c2.63-1.26 1.42-5.86-1.51-5.59l-4.95.44a3 3 0 000 6c5 .46 10-.49 15.05-.79 1.22-.07 2.44 0 3.66-.06a4.8 4.8 0 002.2-.7 1.35 1.35 0 01.52-.16c2.08-.25 4 .52 6.13.42a3 3 0 000-6c-3.45.15-6.92-1.38-10.13.85l1.51-.41c-6.33-.22-12.6 1.43-18.94.85v6l4.95-.44-1.51-5.6a4.36 4.36 0 01-4 .23 7.25 7.25 0 00-3-1.21 9.17 9.17 0 00-3.39.66 9.25 9.25 0 01-4.73 0 9.52 9.52 0 00-3.68-.17 8 8 0 00-1.21.53c-.17.1-.35.19-.53.28a1.68 1.68 0 011.87.35l.87 2.12a5.13 5.13 0 00-1.24-3.57 15.43 15.43 0 00-2.12-1.43l1.49 2.59a5.74 5.74 0 00-4.54-6.64c-1-.23-2-.35-2.92-.62-.74-.21.47.05-.11-.06a2.39 2.39 0 01-.34-.21c.33.27.38.29.13.07s-.19-.21.06.1a3.38 3.38 0 01-.24-.41c.25.68-.1-.45-.13-.57l-5 2.92a42.85 42.85 0 006.38 5.65l2.31-5.48c-.85-.21.84.44.1.08.33.16.12.18-.1-.2-.31-.55-.53-1.15-.79-1.72a7.37 7.37 0 00-2.72-3.41 16.7 16.7 0 00-2.29-.83 8.73 8.73 0 01-1.72-1.26 3.87 3.87 0 00-2.16-.66c-1-.09.4.14-.42-.07a4.28 4.28 0 01-.51-.15c.29.14.34.17.15.07l-.3-.17c.3.25.33.27.09 0-.46-.46.25.41-.07-.11-.15-.3-.15-.28 0 .05a5.08 5.08 0 01-.17-.51 10.13 10.13 0 00-.63-2.23c-.49-.88-1.31-1.19-1.88-1.93.22.3.12.24.1-.07a4.74 4.74 0 00-.57-1.58 3.7 3.7 0 00-3-1.92c-.37 0-.75 0-1.12-.07.8.09-.05 0-.12-.06-.24-.25.17.11.17.12a.93.93 0 01.4.45c-.15-.28-.14-.22 0 .18-.08-.06-.16-.88-.08-.18a9.4 9.4 0 010-1.3 3 3 0 00-4.51-2.59c-.21.11-.33.17-.1.06-.18.08-.42-.05-.05 0l-.46-.12c.29.07-.28-.26-.08 0l-.24-.24c.1.12.1.1 0 0s-.09-.17 0 0a.39.39 0 01.06.33 3.1 3.1 0 00-3-3c-1.46 0-3.21 1.38-3 3z" fill="#dbd7c6"/><path d="M388.6 678.19l.9.75a3.09 3.09 0 004.24 0c-.08.07-.4.28.13-.05-.09.05-.33.11 0 .06.48-.08-.41 0 .09 0h.47c1 0 1.37.17 2.61.31a9.53 9.53 0 002.72 0 8.61 8.61 0 012-.41c1.08.08 2.11.55 3.21.6a4.8 4.8 0 001.89-.39.93.93 0 01.55-.1c1.72.14 3.57 1.25 5.48 1.24 1.14 0 1.61-.61 2.46-1.19 0 0 .48-.17.25-.12h.9c-.08 0-.34 0 0 0s.55.1.82.16a12.65 12.65 0 002.8.31 7.72 7.72 0 001.66-.23 2.64 2.64 0 001.2-.58c.79-.75-.63 0-.6 0s2.2 1.08 2.38 1.13a9.84 9.84 0 002.64.42 9.36 9.36 0 004.36-1.09c.47-.24.91-.52 1.36-.8l.68-.42c.41-.25.52-.12 0 0 .55-.07.37-.07-.1-.06.45 0-.79-.19-.1 0-.57-.15-.54-.18-.28-.08-.27-.11-.42-.36-.08 0l.24.25c-.43-.45.14.22.19.3l3.39-4.41a91.34 91.34 0 00-11.43-1.33 3 3 0 000 6 77 77 0 019.83 1.12 3.07 3.07 0 003.16-1.08 3 3 0 00.23-3.33c-1.19-1.79-2.73-3.35-5-3.42a7.52 7.52 0 00-4.06 1.56c-.25.16-.51.31-.77.46l-.46.23c-.29.15.56-.14 0 0-.26.05-1.24.21-.55.18h-.62c-.13 0-.72-.08-.16 0-1.17-.2-2-1-3.27-1.34a5.27 5.27 0 00-4.93 1.29l1.32-.77a2.63 2.63 0 01-1.44 0 19.08 19.08 0 00-2.59-.4 7.36 7.36 0 00-5.57 2.18l2.12-.88c-1-.06-2.5-.76-3.74-1a7.49 7.49 0 00-5.3.69l1.51-.41c-1.44-.1-2.89-.74-4.42-.62a15.42 15.42 0 00-2.35.54c-.21 0-.2 0 0 0h-.32c-.32 0-.65 0-1-.06a24.28 24.28 0 00-3.56-.35 6.61 6.61 0 00-4.28 1.74h4.24l-.9-.75a3.09 3.09 0 00-4.24 0 3 3 0 000 4.24z" fill="#dbd7c6"/><path d="M436.2 679.32c2.53.93 6.14 0 6.61-3.06a3.08 3.08 0 00-2.09-3.69 5.7 5.7 0 00-5.47 1.21c-2 1.6-.34 5.29 2.12 5.13 4.4-.3 9.05 1.15 13-1.48l-4.1-1.07c1.41 2.38 3.78 4 6.56 2.79a15.54 15.54 0 002.09-1.21c.15-.09.31-.16.45-.25.56-.36-.58.19 0 0s-.69.16 0 0l-.35-.05c.31.1.3.08 0 0l1.51-5.6-7.51.22a3 3 0 00-.8 5.89 16.78 16.78 0 005.74.35c1.73 0 3.17.88 4.89.92a4.65 4.65 0 003.2-1.15c.11-.09 1.06-1 .89-1.14.09.08-.77.4-.76.39h.1c.31 0 .35 0 0 0l.83.18a11.85 11.85 0 002.44.34l-.8-5.89c-.35.08-.37.09-.06 0a3 3 0 01-.6 0c.52.06-.35-.09-.45-.11-.87-.19-1.73-.4-2.62-.51a5.94 5.94 0 00-5.48 1.83 3.08 3.08 0 000 4.24 3 3 0 004.24 0c.58-.67 0 0-.1-.12.35-.09.36-.1 0 0h.3c.65.09-.19-.1.43 0l1.11.25a10.49 10.49 0 004.79.24c3.35-.79 2.53-5.84-.8-5.9-.54 0 .32.13-.42 0l-.84-.19a10.23 10.23 0 00-2.27-.29 5.33 5.33 0 00-2.44.66 4.87 4.87 0 00-1 .8c-.43.44-1.47 1.46-.18.76.82-.44.92-.23.27-.42-.39-.11-.75-.27-1.13-.39a10.6 10.6 0 00-2.73-.45c-1.66-.06-3.38.38-5-.14l-.79 5.9 7.51-.22a3.06 3.06 0 002.9-2.2 3 3 0 00-1.38-3.39 6.42 6.42 0 00-6.38.47l-.84.55a3.85 3.85 0 00-.4.24c-.4.32.45-.15.15 0s-.45-.05.25 0c.18 0 1 .27.78.19s-.11-.06.19.14l-.17-.18.13.16a5.5 5.5 0 01-.36-.57 3 3 0 00-4.11-1.08c-2.62 1.74-6.71.44-10 .66l2.12 5.12c-.43.33-.89.15-.37.32l-2-3.86c-.19.85.22.52 1.23-1-.34.08-.33.08 0 0-.36 0-.37 0 0 0a3 3 0 01-.48-.15 3 3 0 00-3.69 2.1 3.07 3.07 0 002.1 3.69z" fill="#dbd7c6"/><path d="M466.84 677.88a8.39 8.39 0 003.53-.58c.38-.12 1-.3 1.22-.39 0 0 .64.07.09-.07s.39.29.45.32a8.29 8.29 0 003.48 1.12 6.25 6.25 0 004.15-1.63l-2.12.88c12.35-.51 24.72-1.07 37.09-.84 3.86.07 3.86-5.93 0-6-8.64-.16-17.28.07-25.91.39l-6.45.25-3.32.14c-.47 0-.95 0-1.41.06a2.89 2.89 0 00-1.52.41.81.81 0 01-.65.47c-.21 0-.06 0 .47-.13.25.09.19.08-.19 0l-.59-.27a6.86 6.86 0 00-3.25-1.08c-1.78 0-3.54 1.13-5.07 1a3 3 0 000 6z" fill="#dbd7c6"/><path d="M483.43 677.22a5.64 5.64 0 002.61.62 12 12 0 011.47 0l-.8-.1a3.54 3.54 0 01.44.11l-1.33-.77a5.93 5.93 0 002.38 1.31 5.81 5.81 0 002.59 0 16.88 16.88 0 003.16-1.28l-.72.3a6.55 6.55 0 011.37-.41l-.8.11a3.29 3.29 0 01.83 0l-.8-.11h.12a3.25 3.25 0 002.31-.3 3.08 3.08 0 001.38-1.79 3 3 0 00-.3-2.32 2.89 2.89 0 00-1.79-1.37 6.78 6.78 0 00-3.46.22c-.89.32-1.73.75-2.59 1.13l.71-.31a5.31 5.31 0 01-1.17.37l.8-.11a2.62 2.62 0 01-.74 0l.8.11a2.31 2.31 0 01-.53-.15l.72.3-.32-.17c-.17-.12-.14-.09.1.08.4.31.26.21-.41-.31a4.81 4.81 0 00-2.1-.54c-.62 0-1.23.07-1.85 0l.8.11a2.7 2.7 0 01-.43-.12l.71.3-.13-.06a3.21 3.21 0 00-2.31-.3 3.08 3.08 0 00-1.8 1.38 3 3 0 001.08 4.1zM514.37 676.57l2.86.91a3 3 0 002.92-.77c.12-.13.54-.37.11-.14s0 0 .14 0c.63-.27-.55.13 0 0 .23 0 .46-.15.69-.21l.57-.13c.12 0 .9-.13.43-.07h.37l.94-.06a71.84 71.84 0 017.48.18c2.52.15 5 .34 7.58.31a14.9 14.9 0 006.57-1.18 3.75 3.75 0 00.44-.24l.16-.12c.75-.54.82-.62.22-.24-.43.21-.52.28-.26.2s0 .1-.17 0h.27c-.3 0-.34-.05-.11 0l1 .21c2.06.42 4.36.42 5.8-1.38l-3.63.46c2 1.59 4.86 1.71 7.33 1.42 1.46-.17 2.91-.43 4.36-.66a19.73 19.73 0 013-.19c6 0 11.13-4.76 14.25-9.43l-1.79 1.38a6.73 6.73 0 004.26-2.54 9.13 9.13 0 00.53-.84c.14-.2.14-.21 0 0s-.14.2.06 0c-.23.16-.24.17-.05 0s.18-.11 0-.07a9.57 9.57 0 003.71-2.9c.43-.56.82-1.14 1.22-1.71.07-.1.56-.74.2-.3a7.68 7.68 0 01.55-.59c.23-.2.26-.24.1-.1s-.11.12.14-.05c-.26.1-.29.12-.08.05l.42-.09a7.13 7.13 0 001.77-.82 10.63 10.63 0 002.92-3.09c.31-.43.59-.88.88-1.31l.45-.65c.43-.64-.38.34.15-.2a6.26 6.26 0 00.51-.52c.4-.48-.36.17.14-.1.29-.16.26-.15-.09 0a1.89 1.89 0 01.34-.09c.21-.05.15 0-.19 0a4.7 4.7 0 01.53 0 3 3 0 003-3v-.2c-.13.32.26-.29.11-.14s-.22.14 0 0c.41-.21-.42.07.38-.1a3 3 0 10-1.6-5.78 6.44 6.44 0 00-5 6.21l3-3c-4.21-.27-6.05 3.34-8.2 6.23.36-.49-.24.24-.34.36s-.24.22-.36.33c.46-.4.18-.1 0-.05-.53.2 0 0 .08 0l-.51.13a7 7 0 00-1.71.72 8.15 8.15 0 00-2.19 2.07q-.42.54-.81 1.11c-.14.19-.27.39-.4.59s-.47.65-.27.39-.17.2-.22.26-.25.27-.39.4c-.36.35.56-.31-.18.14-.06 0-.49.27-.09.06a7.86 7.86 0 00-3.1 2.4c-.14.2-.28.39-.4.6-.23.38-.38.45 0 .08-.36.34.09-.09.14-.1-.41.06-.18.07 0 0a5 5 0 00-2.47 1.09c-.75.75-1.22 1.71-1.9 2.47a19.46 19.46 0 01-2.53 2.44 9.34 9.34 0 01-4.95 2.17 47.36 47.36 0 00-6.92.73 14.83 14.83 0 01-3 .23h-.64c.41.07-.12 0-.27-.1s-.68-.3-.25-.08a4.66 4.66 0 01-.75-.5 3 3 0 00-3.64.47c-.33.41.15.05.44-.07.07 0 0 0 0 0-.88-.14-1.72-.38-2.61-.47a5.46 5.46 0 00-2.2.22 5.21 5.21 0 00-1.36.72c-.85.62.59-.29-.2.11-.55.28.56-.14.09 0-.17 0-.33.11-.49.15s-.41.1-.62.15-.67.09-.09 0a29.52 29.52 0 01-3.26.15c-5 0-10-.82-15-.45-2.39.17-5.12.57-6.85 2.41l2.91-.78-2.85-.91a3 3 0 00-1.6 5.79zM616 630.16c2.68-.84 4.1-3.06 4.51-5.75l-1.38 1.79c.09-.06.67-.36.29-.21s.12 0 .19 0a5.35 5.35 0 001.54-.56 4.35 4.35 0 002.16-3.17l-1.39 1.74a6.37 6.37 0 002.73-2.89c.21-.45.38-.92.6-1.37a5.71 5.71 0 01.35-.64c-.27.39.18-.15.28-.24l-1.32.77a9.16 9.16 0 006.67-4.52c.21-.34.44-.67.62-1s-.46.41.06-.06-.46.23.07-.07-.59.11.07 0a5.41 5.41 0 001.24-.45 5.64 5.64 0 001.82-1.36 13.18 13.18 0 001.34-1.89c.16-.24.33-.47.47-.72-.25.42.34-.16-.08.06a10.21 10.21 0 003.39-3.31c.35-.49.67-1 1-1.52.19-.3.38-.6.58-.89.06-.09.62-.87.32-.48a7.09 7.09 0 01.57-.66s.68-.62.25-.29a3.83 3.83 0 01.73-.44c-.45.21.57-.13.71-.16a3.07 3.07 0 002.21-2.87v-.08c0-.14 0-.29.08-.44.1-.32.06-.24-.11.23a1.58 1.58 0 01-.46.53c-.38.3-.82.31-.14.22.4-.05.8-.13 1.2-.18a2.94 2.94 0 002.09-2.1c.06-.19.12-.38.19-.56-.11.24-.08.2.08-.12-.2.19-.17.16.08-.09a1 1 0 01-.71.34 3.07 3.07 0 003-3 3 3 0 00-3-3c-2.94.19-4.6 2.16-5.42 4.84l2.09-2.1a5.78 5.78 0 00-3.58 1.41c-1.1 1.13-1.23 2.62-1.38 4.1l2.2-2.89c-3.68.7-5.49 3.84-7.41 6.7l-.34.49s-.3.4-.13.18-.4.45-.53.58a4.07 4.07 0 01-.43.4c.13-.09.3-.28-.14 0a6.23 6.23 0 00-1.25 1 12.6 12.6 0 00-1.45 2c-.08.12-.68.92-.34.53-.07.08-.19.34-.1.13s-.34.07 0 0a6.66 6.66 0 00-3.8 2.66c-.26.37-.5.76-.73 1.15-.14.23-.31.45-.44.69 0 .06-.24.36 0 0s-.11.13-.18.2-.22.21-.32.32.42-.29.13-.1a4.73 4.73 0 01-.81.47c.39-.17-.67.16-.81.19a4.27 4.27 0 00-2.08.9c-1.3 1.12-1.71 2.67-2.52 4.1.06-.11.37-.33-.08.07.24-.21 0-.06-.15 0a3.83 3.83 0 00-1.08 1.08l-.3.72c-.1.37-.1.45 0 .25s.53-.57.68-.71c.34-.32.39-.13 0-.06a5.59 5.59 0 00-1.49.51 3.66 3.66 0 00-2.12 2.78c0 .21-.09.41-.15.61l-.09.3c.09-.19.09-.19 0 0-.2.38 0 0 0 0 .26.21-.54.2 0 0-3.67 1.15-2.11 7 1.59 5.78z" fill="#dbd7c6"/><path d="M650.44 595.68a8.85 8.85 0 004.24-5.06 9.26 9.26 0 00.36-1.8c0-.23.05-.45.05-.68v-.31a1.77 1.77 0 01-.25 1l-.8.79c-.47.19-.57.24-.3.16l.51-.15c.31-.08.62-.18.93-.29a6.24 6.24 0 002.63-1.64 4.86 4.86 0 001.08-2c.1-.37.06-.8.14-1.16 0 1.15-.8 1.88-2.29 2.19h.33a8.18 8.18 0 005.9-3.73 3 3 0 00-1.07-4.1 3.09 3.09 0 00-4.11 1.07c-.18.26-.13.2.16-.19l-.22.26a4 4 0 01-.35.36l-.25.22c.4-.3.47-.36.22-.18l-.41.25c-.28.14-.19.1.28-.1l-.3.11c-.16 0-.33.06-.48.11.52-.06.62-.07.3 0a5.24 5.24 0 00-1 .11 3.73 3.73 0 00-2.62 2.75 7.47 7.47 0 00-.12.95q.15-.82.06-.36c-.15.47.36-.67.08-.24.36-.43.43-.53.23-.31s-.12.12.11-.07c.47-.36 0 0-.14.05-.6.32.35-.11.15-.05s-.31.11-.47.15a6 6 0 00-2.85 1.36 4.12 4.12 0 00-1.09 2.63v.51c-.05.16-.07.34-.11.5s-.07.22-.1.33c-.11.3-.08.22.11-.24a2.82 2.82 0 00-.23.46c-.09.16-.34.41-.37.58l.26-.34c-.08.09-.15.18-.23.26a4.26 4.26 0 01-.43.42c-.53.47.49-.28 0 0l-.6.34a3 3 0 00-1.07 4.1 3.06 3.06 0 004.1 1.08zM599.32 646.84a4.61 4.61 0 002-2.59q.14-.39.24-.81c0-.16.24-.4 0-.13-.07.09-.53.65-.16.33l-1.32.77c1.3-.45 2.73-.49 3.77-1.49 1.46-1.4 1.17-3.37.84-5.15l-3.69 3.69a4.68 4.68 0 004.72-1.41 10 10 0 001.21-1.69c.14-.23.26-.47.42-.69-.35.47.17-.1.26-.19.26-.22.27-.24 0-.05l.44-.32.68-.46a14.41 14.41 0 001.89-1.49 19.11 19.11 0 001.44-1.79c-.49.61.32-.26.33-.3-.14.61-2.32.28-1.1.44a3.69 3.69 0 003.2-1 4.45 4.45 0 001.07-3.21v-.41c-.06.4-.07.44 0 .13 0-.13.31-.8 0-.26a2.4 2.4 0 01-2.26 1.25c-.71-.11.14.07.31.11a6.33 6.33 0 001.43.21 4.46 4.46 0 003.37-1.49 3 3 0 00-4.24-4.24c-.45.5.17-.08.12 0a2.06 2.06 0 01.62-.18h.19c-.2 0-.15 0 .47.08a1.55 1.55 0 00-.31-.06 5.56 5.56 0 00-2.22-.23 3.69 3.69 0 00-2.81 2 5 5 0 00-.53 1.53c-.08.42-.13.85-.17 1.27 0 .18 0 .37-.05.55v.08l.77-1.32.29-.25 1.51-.41c-.32 0-.28 0 .15.07a5.07 5.07 0 00-1-.11 5.73 5.73 0 00-1.22.19 5 5 0 00-2.21 1.45c-.34.37-.63.78-.94 1.18-.15.21-.48.56-.12.18-.25.26-.5.52-.78.76.45-.39-.28.19-.38.26a12.23 12.23 0 00-3.5 3.18 8.33 8.33 0 00-.78 1.27c-.13.18-.08.12.14-.18a4.11 4.11 0 01-.29.3c.15-.42 1-.52 1.4-.44a3 3 0 00-3.69 3.7c0 .15.11 1 0 .15v.44c.08.49 0-.17.07-.35-.09.3 0 .15.29-.45a1.59 1.59 0 01.8-.91c-.34.21.72-.16.4-.16a1 1 0 00-.29.07c-.29.05-.58.12-.86.19a4.63 4.63 0 00-3.09 2.1 6.51 6.51 0 00-.59 1.5 3.62 3.62 0 01-.18.61l.14-.35a2.21 2.21 0 01.55-.55 3 3 0 103 5.18zM327.82 663.61a16 16 0 001.21 1.12q.92.76 1.89 1.44a2.17 2.17 0 001.12.35 2.29 2.29 0 001.19 0 2.2 2.2 0 001-.54 2.25 2.25 0 00.78-.84l.3-.72a3.06 3.06 0 000-1.59l-.3-.72A3 3 0 00334 661l-.81-.59.61.47a16 16 0 01-1.69-1.5 2.22 2.22 0 00-1-.62 2.17 2.17 0 00-1.15-.26 2.2 2.2 0 00-1.16.26 2.25 2.25 0 00-1 .62l-.47.6a3 3 0 00-.41 1.52l.11.8a2.9 2.9 0 00.77 1.32zM362.3 679.19a32.37 32.37 0 006.95-.32l2.24-.31.79-.11c.35 0 .35 0 0 0l.39-.05c1.18-.15 2.36-.27 3.55-.33a3 3 0 000-6c-1.14.06-2.28.17-3.42.32l-2.37.31-.79.11-.65.09c.37 0-.56.07-.65.09l-.79.09c-.56.06-1.13.11-1.7.14a24.61 24.61 0 01-3.54 0 3 3 0 00-3 3 3.08 3.08 0 003 3zM273.18 605.26c-.43-.13.73.37.35.13 0 0 .68.55.34.23s.48.73.22.25l-.15-.24a12.14 12.14 0 00-.61-1.12 4.19 4.19 0 00-5-1.86l-.32.12c-.44.2.25 0 .38 0a2.55 2.55 0 012.35 1.76v-.17a2.78 2.78 0 00-.43-.92 4.25 4.25 0 00-3.34-1.79h-.69c-.44 0-.23-.18.26 0-.12 0-.55-.19 0 0a2.13 2.13 0 011.29 1.92c-.11.53-.12.64 0 .32l-.17.41c.13-.2.12-.19 0 0s-.17.22 0 0 .23-.23.36-.34a3 3 0 00.62-3.28 3 3 0 00-2.74-1.84l-3.64-.21 2.12 5.12a4.34 4.34 0 001.37-3.58 3.69 3.69 0 00-2-2.79c-.4-.2-.82-.36-1.24-.52a2.26 2.26 0 00-.33-.13c-.25-.09.72.35.5.21a1.3 1.3 0 00-.17-.08c-.15-.09-.5-.34 0 0s.26.22.18.13.48.68.35.47.23.57.21.52c-.09-.3.09.69.08.6 0-.37-.14.87-.07.55s.28-.53-.18.42a3.07 3.07 0 00-1.08-4.11 3 3 0 00-4.1 1.08 4 4 0 00-.06 3.94 4.51 4.51 0 002.28 1.82l.94.38c.3.11-.81-.4-.37-.15a1.82 1.82 0 00.27.15c.13 0-.55-.44-.46-.36s.22.27-.14-.2a2.9 2.9 0 01-.54-1.45c0 .07.17-.93.07-.61 0 .06.36-.82.2-.5-.05.11-.28.4.06 0s.08-.11 0 0a3 3 0 002.12 5.12l3.64.21-2.12-5.12a5.17 5.17 0 00-1.76 2.83 4.07 4.07 0 001.93 4.38 5.65 5.65 0 003 .6c-.58-.09-.72-.11-.42 0h.12a2.12 2.12 0 01-1.34-1.05c-.21-.46-.27-.59-.19-.37a6 6 0 00.33.79 2.59 2.59 0 00.52.72 3.45 3.45 0 00.76.61 3.76 3.76 0 003.47.08c.22-.07.17-.08-.14 0s-.36 0-.16 0c-.61-.11-.78-.12-.49 0l-.54-.22c-.62-.33-.55-.43-.26-.17s.05 0-.31-.4l.12.19c.76 1.47 1.63 2.81 3.32 3.32a3 3 0 101.59-5.79zM367.68 609.55a6.11 6.11 0 00.53 1.13 5.82 5.82 0 002.15 2 16.77 16.77 0 011.8 1l-.61-.47a2.79 2.79 0 01.52.51l-.47-.61a2.39 2.39 0 01.28.49l-.3-.71a1.14 1.14 0 01.09.26 3.11 3.11 0 001.38 1.8 2.17 2.17 0 001.12.35 2.2 2.2 0 001.19 0 3 3 0 001.8-1.38 3.1 3.1 0 00.3-2.31 5.77 5.77 0 00-2.7-3.35 20.42 20.42 0 01-1.93-1.1l.61.47a3 3 0 01-.47-.47l.47.61a2.82 2.82 0 01-.26-.44l.31.71a2.2 2.2 0 00-.54-1 2.31 2.31 0 00-.84-.77 2.25 2.25 0 00-1.12-.36 2.2 2.2 0 00-1.19.06 3 3 0 00-1.79 1.38l-.31.71a3.1 3.1 0 000 1.6zM407.53 672.12a4.15 4.15 0 00-.14 1 .31.31 0 000 .1c0 .19.08.62.11.81s0 0 0 .06a5 5 0 00.37.9.41.41 0 01.05.09c.16.24.35.46.53.69a1.06 1.06 0 00.15.15c.21.17.42.34.63.49l.1.07h.09l.75.32H410.4c.24 0 .58.09.82.11h.18l.8-.11h.12l.4-.17a3.79 3.79 0 00.42-.18 2.23 2.23 0 00.84-.77 2.29 2.29 0 00.54-1 2.33 2.33 0 00.05-1.2 2.3 2.3 0 00-.35-1.11l-.47-.61a3 3 0 00-1.33-.77l-.8-.11a3 3 0 00-1.51.41h-.06l.72-.3h-.19l.79-.11h-.19l.79.11a1.09 1.09 0 01-.24-.07l.72.31a1 1 0 01-.24-.15l.6.47a1.26 1.26 0 01-.2-.2l.47.61a.94.94 0 01-.12-.22l.3.72a.83.83 0 01-.06-.21l.11.8a.67.67 0 010-.2l-.11.8v-.11a2.33 2.33 0 00.05-1.2 2.25 2.25 0 00-.36-1.11 2.15 2.15 0 00-.77-.84 2.2 2.2 0 00-1-.54l-.8-.11a3.08 3.08 0 00-1.51.41l-.61.47a3 3 0 00-.77 1.33z" fill="#dbd7c6"/><path d="M374.47 675.76a5.08 5.08 0 003 4.35 14.57 14.57 0 003.65 1.07 7.6 7.6 0 002.89.1 5.94 5.94 0 002.55-1.35c.39-.32.73-.69 1.09-1l.54-.51c.34-.3-.74.51-.2.17a2.37 2.37 0 01.35-.19l-4.45-3.4a4.22 4.22 0 01-.24.84l.3-.72a7.25 7.25 0 01-.48.86c.47-.81.28-.36.07-.13s-.24.24-.37.35c-.54.48.52-.34.11-.07l-.44.28a6.13 6.13 0 01-.92.47l.71-.3a8.1 8.1 0 01-1.94.54l.79-.11h-.59l1.51.41a16.68 16.68 0 01-1.9-1.34 6.84 6.84 0 00-2.72-1.22 3.26 3.26 0 00-2.31.3 3.11 3.11 0 00-1.38 1.8c-.33 1.45.44 3.41 2.1 3.69a3.93 3.93 0 01.83.23l-.71-.3a29.4 29.4 0 012.82 1.88 4.54 4.54 0 003.33.37 8.39 8.39 0 001.47-.39c2.63-1 5.2-3 5.75-5.9a3 3 0 00-4.41-3.38 7.35 7.35 0 00-2.06 1.63c-.22.23-.45.46-.69.68-.49.43.64-.43.1-.08a4.79 4.79 0 01-.45.25l.71-.31a2.64 2.64 0 01-.61.17l.79-.11a2.81 2.81 0 01-.58 0l.79.1a14.44 14.44 0 01-3.43-.83l.72.3c-.15-.07-.29-.13-.43-.21l-.18-.11c-.24-.14-.23-.33.33.27 0 0-.22-.26-.27-.27s.45.73.28.35a2 2 0 01-.11-.2l.3.71a3.57 3.57 0 01-.1-.35l.11.79a1.23 1.23 0 010-.19 3.2 3.2 0 00-.88-2.12 3 3 0 00-5.12 2.12zM430.48 679.05c1.85.78 3.95 2.47 6 2.19a3.88 3.88 0 002.78-1.84c.14-.21.23-.44.35-.66a1.48 1.48 0 00.17-.33c.14-.22 0-.12-.33.29a1.73 1.73 0 01-.78.58l-3.39-1.38c.51 1.15 1.06 2.27 1.66 3.38a3 3 0 003 1.43 3.11 3.11 0 002.5-2.15c.14-.35.15-.39 0-.12.05-.12.11-.25.17-.37s.22-.45.34-.67.28-.44.41-.66c.29-.49-.43.39 0 0a3.64 3.64 0 00.34-.34c.35-.41-.57.38-.15.12s-.08 0-.27.08a2.07 2.07 0 01.33-.1c-1.05.18-.57.06-.29.07.56 0-.65-.17-.36-.06a3.3 3.3 0 00.72.22c-.24.07-.74-.35-.28-.11l.33.16.71.37a7.31 7.31 0 004.36 1.06 6.45 6.45 0 004.6-3.54 3 3 0 10-5.18-3 4.9 4.9 0 00-.38.62c-.14.19-.07.11.19-.24a2.62 2.62 0 01-.22.25 3.46 3.46 0 00-.33.31c0-.17.66-.43.17-.17s.72-.26.28-.12.47 0 .31 0a1 1 0 00-.38 0c.17-.06.85.21.36 0l-.33-.1c-.5-.14.16 0 .29.12a5 5 0 00-.77-.37c-.55-.29-1.1-.56-1.67-.8a5.65 5.65 0 00-5.11.13c-2.1 1.2-3.15 3.54-4 5.68l5.49-.71c-.6-1.11-1.15-2.23-1.66-3.38s-2.17-1.57-3.39-1.38a3.77 3.77 0 00-2.43 1.82 6.82 6.82 0 00-.34.66c-.05.11-.11.22-.17.33a2.1 2.1 0 011.16-.9h1.59a4.94 4.94 0 01-1.52-.61c-.63-.32-1.25-.65-1.9-.93-1.44-.61-3.28-.48-4.11 1.08-.67 1.29-.46 3.45 1.08 4.11zM494.2 675.1a7.34 7.34 0 002.28 3.24 22.12 22.12 0 012.2 1.89 3 3 0 005-1.32c.07-.38.15-.76.26-1.14a3.57 3.57 0 01.12-.4c0-.12.25-.65 0-.12s.11-.13.19-.28c.19-.39-.54.6-.23.3.11-.11.35-.3-.11.05s-.22.17-.1.1c.36-.21-.82.29-.44.18.63-.19-.78.07-.28 0a1.28 1.28 0 01.19 0c.32 0-.91-.16-.53-.07l.49.11c.63.17 1.23.41 1.88.52a5.75 5.75 0 004.06-.64 3 3 0 001.37-3.39 3.16 3.16 0 00-2.89-2.2c1.54.17.16 0-.27-.13l-1.6-.43a32.66 32.66 0 00-4.4-.89c-1.71-.22-3.61.09-4.58 1.7a3.65 3.65 0 000 3.63 5 5 0 00.79 1.12 4.23 4.23 0 003.38.94c3.06-.16 5.82-1.38 8.73-2.17a3 3 0 10-1.6-5.79c-1.49.41-2.94.95-4.43 1.39-.75.22-1.5.39-2.26.54-.57.1.46 0 .08 0h-.52a9.9 9.9 0 01-1.22 0l2.12.88c.66.85.35.45.21.24s-.23-.49 0 .11c.13.33.16.41.11.25s0-.06.08.65v-.09a2.63 2.63 0 01-.37 1.37 2.44 2.44 0 01-1.46 1.12h.15c.37-.09-1 .08-.49.07a8.62 8.62 0 011.14.06c-1.25-.12-.34 0 0 0l.79.16a56.55 56.55 0 005.59 1.29l-1.51-5.59a2.15 2.15 0 00-.26.14c.63-.5.69-.23.37-.17-.75.16.77 0 .18 0-.4 0-.81-.21.19.06-.17 0-.35-.07-.53-.12a15.26 15.26 0 00-2.71-.63 4.6 4.6 0 00-3.61 1.37 8.13 8.13 0 00-1.9 4.3l5-1.33a15.68 15.68 0 00-1.95-1.68 11.13 11.13 0 01-1-.86c-.53-.57.22.43 0 0-.13-.24-.34-.85 0 0a3 3 0 10-5.78 1.6zM527.93 676.15c.88 1.46 2.19 2.78 4 2.78a4.44 4.44 0 003.6-2.27c.16-.22.32-.45.47-.69s-.62.73-.31.41l.1-.09c.25-.24-.8.54-.45.34a3.1 3.1 0 01-1 .31 2.52 2.52 0 01-1.71-.32c.29.17-.75-.65-.44-.33s-.48-.75-.32-.42a2.34 2.34 0 00.15.27c.3.52-.26-.71-.11-.26 0 .12.09.23.13.35.14.39.25.79.36 1.19a3 3 0 005.79 0 12 12 0 01.27-1.19c.05-.16.11-.32.16-.48.17-.54-.33.63-.07.19 0-.1.14-.23.18-.33.17-.41-.47.58-.21.27s.49-.32-.33.23l.22-.13c-.05 0-.87.3-.42.21 0 0-1 .09-.48.07s-.9-.21-.26 0a3.13 3.13 0 01.52.16l.26.1c.31.11-.84-.37-.35-.15a10.91 10.91 0 003.51 1.12 5.19 5.19 0 004-1.51 3 3 0 000-4.25 3.07 3.07 0 00-4.24 0c-.44.42.26-.14.26-.18s-.72.35 0 .05c.55-.23.18-.08 0 0-.5.13.73 0 .43 0a1.14 1.14 0 00-.32 0c-.43 0 .86.18.42 0-.19 0-.38-.09-.56-.15s-1-.44.06 0l-.55-.24a13.55 13.55 0 00-1.73-.69 4.74 4.74 0 00-4.54 1 7.75 7.75 0 00-2.08 4.38h5.79c-.44-1.58-1-3.44-2.47-4.35a3.51 3.51 0 00-4.64 1.08 9.7 9.7 0 00-.68 1 2.43 2.43 0 00-.14.2c-.21.31.63-.72.29-.38a3.31 3.31 0 00-.27.26c.5-.58.71-.5.41-.33.87-.48.81-.31.54-.24a2.1 2.1 0 011.31 0c-.44-.11.79.41.46.21s.41.31.39.32-.21-.21-.23-.22c-.44-.41.4.61.16.21-.08-.14-.18-.28-.27-.42a3 3 0 00-5.18 3zM551.51 674.33c1.34 2.07 3.52 3.46 6.06 2.81a8.14 8.14 0 004.66-3.79l-5.48-.72c.73 2 1.69 4.89 4.09 5.49 2 .49 3.51-.59 4.7-2a18.64 18.64 0 011.37-1.56l.46-.41c-.25.23-.39.24 0 0l.54-.32c.25-.16-.54.08 0 0 .22 0 .44-.12.66-.15-.84.14.2 0 .27 0a7.11 7.11 0 002-.4 6 6 0 003.51-3.81l-3.69 2.1c2.89 1 5.64 0 6.7-2.93a7.75 7.75 0 00.24-.78c.15-.61-.32.63-.12.27a3.14 3.14 0 01-1.08.91 1.89 1.89 0 01-.91.2c-.63-.11-.78-.13-.47-.06s-.63-.43 0 0c.26.19.55.35.81.54-.31-.23.62.52.72.6a3.09 3.09 0 004.25 0 3 3 0 000-4.24c-2.28-1.93-6.25-4.74-8.49-1a6.55 6.55 0 00-.56 1.34c0 .14-.09.28-.13.42-.15.56.1-.19.1-.2-.26.51.16-.16.16-.16a1.87 1.87 0 01.72-.43c-.31.08.75-.07.38-.05-.1 0-.52 0 0 0h-.11l-.6-.19a3.07 3.07 0 00-3.69 2.1c.13-.33 0 .07-.09.1l.41-.35c.23-.19-.31.07-.11 0s-.34 0-.41 0a8.43 8.43 0 00-2.81.62A9.75 9.75 0 00562 671c-.33.38-.64.78-1 1.16-.14.17-.3.32-.45.49-.41.47.37-.24.14-.11a2.48 2.48 0 012.24 0c-.25-.14.56.48.32.24s.33.62.11.15a17.7 17.7 0 01-.86-1.9 3 3 0 00-5.48-.72c-.4.64-.41.73-1 1 .29-.11.28-.12 0 0a.93.93 0 01.57 0c.31 0 .49.48.15 0a3 3 0 10-5.18 3z" fill="#dbd7c6"/><path d="M581.82 668.12a37.41 37.41 0 00-.4-4.73 2.37 2.37 0 00-.54-1 2.31 2.31 0 00-.84-.77 3.45 3.45 0 00-2.31-.3 3 3 0 00-1.8 1.38l-.3.72a3.06 3.06 0 000 1.59v.15l-.11-.79a29.9 29.9 0 01.28 3.78 3.15 3.15 0 00.88 2.12 2.24 2.24 0 001 .62 2.19 2.19 0 001.15.26 3 3 0 003-3z" fill="#dbd7c6"/><path d="M577.74 661.06a8.7 8.7 0 00-1 .4 1.82 1.82 0 00-.23.15c-.23.17-.47.35-.7.54l-.1.09-.19.21a7.59 7.59 0 00-.61.82 4 4 0 00-.27.59 4.54 4.54 0 00-.24.61 7.85 7.85 0 00-.16 1 2.3 2.3 0 00.26 1.16 2.25 2.25 0 00.62 1 2.13 2.13 0 001 .62 2.17 2.17 0 001.15.26l.8-.11a2.85 2.85 0 001.32-.77l.47-.6a3 3 0 00.41-1.52l-.11.8a2.09 2.09 0 01.13-.49l-.3.72a2 2 0 01.25-.43l-.47.6a2.38 2.38 0 01.36-.35l-.61.47a2.22 2.22 0 01.42-.25l-.72.31h.08a2.27 2.27 0 001-.53 2.36 2.36 0 00.78-.85 2.2 2.2 0 00.35-1.11 2.33 2.33 0 00-.05-1.2l-.3-.71a3.1 3.1 0 00-1.08-1.08l-.72-.3a2.87 2.87 0 00-1.59 0zM587.74 656.08a9.07 9.07 0 003.48.08 3.88 3.88 0 002.53-1.87 4.42 4.42 0 00.52-2.34 5 5 0 010-1l-.11.8a2.22 2.22 0 01.09-.37l-.3.72a1.59 1.59 0 01.13-.22l-.47.61a1.7 1.7 0 01.19-.19l-.61.47.09-.06h-3a9.22 9.22 0 001.56.62 4.64 4.64 0 00.51.11 5.74 5.74 0 001.24.13 3.71 3.71 0 002.91-1.42 3.76 3.76 0 00.57-3.42 3.16 3.16 0 00-1.38-1.8 3 3 0 00-4.41 3.39 1.55 1.55 0 01.07.31l-.11-.8a1 1 0 010 .25l.11-.8a.75.75 0 010 .16l.3-.72-.06.1.47-.61-.1.1.61-.47-.13.07.71-.3a.86.86 0 01-.23.06l.79-.11a2.26 2.26 0 01-.52 0l.8.11a4.89 4.89 0 01-1.13-.33l.71.3-.23-.11a3.14 3.14 0 00-2.31-.3 3.77 3.77 0 00-2.07 1.63 4.41 4.41 0 00-.64 2.11c0 .5.07 1 0 1.5l.1-.8a1.18 1.18 0 01-.08.31l.3-.72a.7.7 0 01-.09.17l.46-.61a1 1 0 01-.14.15l.61-.47-.24.13.72-.3a1.89 1.89 0 01-.41.1l.8-.11a5.23 5.23 0 01-1.31 0l.8.1-.44-.06a3.28 3.28 0 00-2.31.3 3 3 0 00-1.08 4.1 2.94 2.94 0 001.79 1.38zM636.88 609a5.1 5.1 0 003.09.18 3.86 3.86 0 002.61-2.7 17.63 17.63 0 00.14-3.63l-4.51 2.59a6.5 6.5 0 003.47 1.31 3.63 3.63 0 003.51-2.76c.37-1.5 0-3 .06-4.5a3 3 0 00-3-3 3 3 0 00-2.12.87 3.29 3.29 0 00-.88 2.13c-.08 1.16.23 2.35.08 3.51l.11-.8a1.54 1.54 0 01-.09.37l.3-.72a.81.81 0 01-.1.18l.47-.61-.09.1.6-.47-.11.06.72-.3H641l.8-.11h-.25l.8.11a2.66 2.66 0 01-.55-.16l.72.3a8.22 8.22 0 01-1.29-.73 3 3 0 00-3 0 3.08 3.08 0 00-1.49 2.59c-.06.86.12 1.72 0 2.58l.1-.8a1.6 1.6 0 01-.11.43l.31-.72a1.18 1.18 0 01-.11.19l.47-.61-.12.12.61-.47a.72.72 0 01-.19.11l.72-.3a1 1 0 01-.25.06l.8-.11a2.16 2.16 0 01-.44 0l.8.1a4.35 4.35 0 01-.86-.22 3 3 0 00-3.38 4.41 3.33 3.33 0 001.79 1.38zM603.82 638.56c.51.23 1 .45 1.56.65a4.64 4.64 0 00.66.22l.26.06a8.52 8.52 0 001 .12h.09a8.46 8.46 0 00.88-.11h.08a6.88 6.88 0 00.74-.32h.06a7.47 7.47 0 00.63-.48l.47-.62v-.07c.1-.21.23-.53.31-.75a.75.75 0 00.05-.16c.07-.32.1-.65.14-1v-.23-.53c0-.54-.06-1.08-.07-1.63a2.17 2.17 0 00-.26-1.15 2.22 2.22 0 00-.62-1 2.25 2.25 0 00-1-.62 2.32 2.32 0 00-1.16-.26l-.8.11a3 3 0 00-1.32.77l-.47.61a3 3 0 00-.41 1.51c0 .48 0 1 .06 1.44a5.57 5.57 0 010 1l.11-.79a1.67 1.67 0 01-.08.3l.3-.72a.54.54 0 01-.07.13l.47-.61-.08.08.6-.47a.21.21 0 01-.1.06l.71-.3h-.16l.8-.1a1.71 1.71 0 01-.32 0l.8.1a6 6 0 01-1.43-.46l.72.3-.37-.16a2.28 2.28 0 00-1.12-.36 2.19 2.19 0 00-1.19.06 2.27 2.27 0 00-1 .53 2.36 2.36 0 00-.78.85l-.3.71a3.1 3.1 0 000 1.6l.3.71a3 3 0 001.08 1.08zM569.72 578.08c-.05-.64-.11-1.29-.17-1.93a7.07 7.07 0 010-1.38l-.11.8a2.13 2.13 0 01.1-.42l-.3.72a.72.72 0 01.12-.21l-.47.6.14-.14-.6.47a.77.77 0 01.18-.1l-.72.3a1.31 1.31 0 01.34-.09l-.8.11a3 3 0 01.73 0l-.79-.11a12.33 12.33 0 012 .49 3.45 3.45 0 002.31-.3 2.25 2.25 0 00.84-.78 2.39 2.39 0 00.54-1 3.06 3.06 0 00-.31-2.31 3.25 3.25 0 00-1.79-1.38 15.37 15.37 0 00-2.85-.6 4.2 4.2 0 00-2.6.54 3.88 3.88 0 00-1.81 2.48 8.06 8.06 0 00-.12 2.08c.05.72.13 1.44.18 2.16a2.2 2.2 0 00.26 1.16 2.25 2.25 0 00.62 1 2.16 2.16 0 001 .62 2.22 2.22 0 001.16.26 3 3 0 003-3zM580.63 567.3c0-.18-.07-.35-.1-.53l.11.8a3.37 3.37 0 010-.71l-.1.8a1.32 1.32 0 01.08-.33l-.3.72.09-.17-.46.61a.49.49 0 01.12-.13l-.61.47a.72.72 0 01.19-.11l-.72.3a1.56 1.56 0 01.37-.1l-.8.11a9.26 9.26 0 011.29 0 6.21 6.21 0 002.78-.65c1.63-.83 1.85-2.7 2.47-4.24l-.3.72a1.45 1.45 0 01.18-.32l-.47.61a.54.54 0 01.15-.15l-.61.47a.76.76 0 01.23-.13l-.71.3a4.64 4.64 0 011.23-.25l-.8.1 1.23-.15a2.32 2.32 0 001.16-.26 2.25 2.25 0 001-.62 3.08 3.08 0 00.88-2.12 3 3 0 00-.88-2.12 2.85 2.85 0 00-2.12-.88c-1.72.22-3.55.22-4.89 1.48-1 1-1.23 2.51-1.75 3.75l.3-.72-.12.28 1.08-1.08a1.63 1.63 0 01-.34.19l.72-.3a4.21 4.21 0 01-.61.16l.8-.11a13.72 13.72 0 00-3 .25 3.91 3.91 0 00-2.56 2.61 6.34 6.34 0 00.06 3.06 3 3 0 001.38 1.79 3 3 0 004.41-3.38zM541.42 594.9c-1.13.05-2.27.06-3.4 0l-.8.1a2.29 2.29 0 00-1 .54 2.94 2.94 0 00-1.07 1.56 7.28 7.28 0 00-.19 2.75 7.41 7.41 0 01.11 1.76l.1-.8a2.09 2.09 0 01-.11.43l.3-.71a1.92 1.92 0 01-.18.31l.47-.61a1.72 1.72 0 01-.27.27l.61-.46a2.35 2.35 0 01-.56.31l.72-.3a5.15 5.15 0 01-1.07.29 3 3 0 00-1.79 1.38 3 3 0 001.07 4.1l.72.31a3.06 3.06 0 001.59 0 6 6 0 003-1.45 4 4 0 00.66-.82 1.49 1.49 0 00.18-.3 5.46 5.46 0 00.54-2c.09-1-.27-2.09-.14-3.15l-.1.8a2.73 2.73 0 01.1-.48l-2.9 2.21h3.4a3.16 3.16 0 002.12-.87 3 3 0 00-2.12-5.13zM512.82 609.58a5.41 5.41 0 00-2.75-5 3 3 0 00-4.4 1.79c0 .09-.12.21-.16.31-.17.41 0 .15 0 .09 0 .16-.37.2.08 0 .13-.07.53-.23.16-.1.12 0 .64-.12.21-.08.64-.06.37.08.09 0s-.57-.19-.85-.3a8.06 8.06 0 00-4.86-.64 3.87 3.87 0 00-1.78.93c-.44.44-.68.67 0 .37-.25.12-.31.06 0 0a5.42 5.42 0 01-.57 0h-.09l-.61-.12a10.17 10.17 0 00-3.77-.18c-.49.08-1 .22-1.46.29-.31 0-.27 0-.64-.14l1.33.77a8.69 8.69 0 00-4.68-2.77c-3.05-.4-4.55 2.24-4.66 4.91a3 3 0 006 0v-.12c.1-.35.08-.32-.07.1a2.11 2.11 0 01-1.81 1q-.79-.15-.3 0c-.74-.14-.11 0 .19.16s.5.39.12.07a7.83 7.83 0 002.3 1.65 6.5 6.5 0 003.47.2 7.92 7.92 0 001.27-.25c.38-.08.48-.1.29-.05s-.14-.1.21 0a26 26 0 002.78.46 5.85 5.85 0 005.46-2.75l-1.79 1.38c.11 0 .92-.3.12-.11.1 0 .75.05.29 0s.19.07.28.1l.67.22a11.63 11.63 0 002.52.76c3.19.45 5.06-1.81 6.12-4.51l-4.4 1.79c-.24-.14-.18-.85-.23-.16a3 3 0 003 3 3.07 3.07 0 003-3zM439.7 607.22h-.33l.8.1a9.36 9.36 0 01-2.26-.62l.72.3c-.34-.15-.66-.31-1-.49l-.42-.27c-.18-.12-.73-.55 0 0a3.73 3.73 0 00-1.32-.77 3 3 0 00-1.95.15 3 3 0 00-1.85 2.74v.37l.1-.8a2.61 2.61 0 01-.14.55l.3-.72a5 5 0 01-.25.46c.48-.84.48-.57.28-.38a1.54 1.54 0 00-.19.17c-.18.18.78-.54.34-.27l-.2.12c-.16.09-.32.16-.49.24l.72-.31c-1.28.53-2.67.68-3.92 1.31a4.07 4.07 0 00-2.09 2.47 4.76 4.76 0 00.55 3.57 3 3 0 004.1 1.08 3.06 3.06 0 001.08-4.1 2.3 2.3 0 01-.15-.32l.3.72a2.54 2.54 0 01-.14-.47l.11.8a1.41 1.41 0 010-.29l-.11.8a.94.94 0 01.06-.24l-.3.71c.07-.15.27-.4-.11.1s.3-.16-.31.32 0 0 .21-.05l-.71.3a11.52 11.52 0 011.52-.45 15.14 15.14 0 002.29-.8 5.41 5.41 0 003.17-4.89l-5.11 2.1a13.35 13.35 0 003.41 2 12.13 12.13 0 003.31.74 3 3 0 003-3 3 3 0 00-.88-2.13 3.42 3.42 0 00-2.12-.87z" fill="#dbd7c6"/><path d="M438.78 613.69a3 3 0 01.67 0l-.79-.11a3.56 3.56 0 01.89.24l-.72-.3a3.55 3.55 0 01.76.43l-.6-.46a2.09 2.09 0 01.28.24 2.34 2.34 0 001 .62 2.7 2.7 0 002.31 0 2.28 2.28 0 001-.62l.47-.61a3.05 3.05 0 00.41-1.51l-.11-.8a2.94 2.94 0 00-.77-1.32 3.47 3.47 0 00-.29-.25c-.28-.22-.56-.45-.87-.65l-.33-.18c-.33-.16-.68-.3-1-.43a3 3 0 00-.72-.18 6.38 6.38 0 00-1.51-.13 2.26 2.26 0 00-1.15.25 2.31 2.31 0 00-1 .62 2.34 2.34 0 00-.62 1 2.3 2.3 0 00-.26 1.16l.11.79a3 3 0 00.77 1.33l.61.47a3.08 3.08 0 001.51.41zM368.82 605.28a41.24 41.24 0 01-.19-4.3 3 3 0 00-3.8-2.89l-.66.14c-.1 0-.65.09-.07 0s.14 0 0 0a10.1 10.1 0 01-1.23 0h-.33c-.36 0 .75.13.4 0l-.49-.1-.46-.14c-.29-.1-.32-.28.33.14l-.26-.13-.38-.23c-.48-.3.56.52.17.12l-.35-.35c-.29-.27.49.72.1.12a4 4 0 01-.23-.39 1.26 1.26 0 01-.13-.26s.3.8.17.39c0-.16-.1-.31-.14-.47s-.06-.56-.13-.61.08.84.06.4a2.28 2.28 0 010-.26v-.56V595.02c0-.58-.14.77 0 .18a11.11 11.11 0 00.31-1.8 3.19 3.19 0 00-1.59-2.73c-2-1.14-4.1.2-5.66 1.43a5.83 5.83 0 00-1.49 1.64 3.25 3.25 0 002 4.8 3 3 0 101.6-5.78c-.28-.06.64.29.57.25l.65.85a1.74 1.74 0 01.74 1.57 2.8 2.8 0 01-.22 1c-.22.53-.16.37-.09.24.19-.37-.56.64-.29.36l.23-.23c.13-.13.78-.65.27-.26s-.1.08 0 0l.37-.24a2.63 2.63 0 00.6-.32c-.07.08-.87.28-.4.18s-.6 0-.52 0c-.77 0-.85-.21-1.54-.74l-.84-.66-.31-2a4.56 4.56 0 00-.14.64c-.11.62-.19 1.24-.24 1.87a9.34 9.34 0 001 5 7.54 7.54 0 004.07 3.38 10.78 10.78 0 006.14.08l-3.8-2.89a41.24 41.24 0 00.19 4.3 3.24 3.24 0 00.88 2.12 3.06 3.06 0 002.12.88c1.49-.07 3.17-1.33 3-3zM333.74 571.46c-.83-.05.46.15 0 0l-.47-.13c-.56-.15.59.3.11 0l-.58-.31-.42-.28-.27-.19.34.26a7.2 7.2 0 00-.92-.81c-1.27-1.2-2.45-2.45-3.84-3.53l-.72 5.48a8.55 8.55 0 004-2 3.81 3.81 0 001.33-2.84 3.66 3.66 0 00-2.78-3.38 5.3 5.3 0 00-1.73-.21c-.58 0 0-.07.18 0a3.39 3.39 0 00-.59-.16c-.53-.14.65.33.15.07l-.54-.29c-.32-.19-.62-.39-.92-.6a9.43 9.43 0 00-5-2 2.83 2.83 0 00-2.35 1.18 3.08 3.08 0 00-.54 2.61 4.36 4.36 0 002.25 3 3 3 0 003-5.18c-.21-.12-.21-.1 0 0a1.17 1.17 0 01.42.46l.15.41a2.09 2.09 0 01-.08-.34l-2.89 3.8c.55 0-.75-.19-.22 0l.41.12c.47.12-.54-.29-.24-.12.13.08.27.13.4.2a16.5 16.5 0 011.42.93 9.44 9.44 0 003.69 1.74 4.45 4.45 0 001.5.14c.33-.08-.69-.2-.23-.05s-.66-.33-.28-.11a2.67 2.67 0 01-.91-3.41c-.14.25.6-.71.24-.34s.32-.24.31-.24c-.11.27-.94.53-1.19.65 1-.47.21-.1-.07 0a5.11 5.11 0 01-.53.13 3 3 0 00-2.15 2.49 3.08 3.08 0 001.43 3c-.78-.6-.14-.09 0 0l.44.4c.31.29.62.6.92.91.58.58 1.15 1.17 1.77 1.71a9.81 9.81 0 006 2.69 3 3 0 003-3 3.08 3.08 0 00-3-3zM284.72 622.54a25.9 25.9 0 011.26 6.08 3 3 0 005.12 2.12c-.42.36.24 0-.15.09-.18 0-.85.09-.38.09-.44-.08-.55-.09-.32 0s.12 0-.09 0-.23-.1 0 0l.18.11c-.61-.46.27.26.44.43s.58.61.86.91a14.08 14.08 0 002.17 2 6 6 0 001.44.75c.19.07.36.13.55.18a6.07 6.07 0 00.87.11c-.37-.08.4.13.39.13-.4-.12-.11 0 .12.08s.58.41.15.06c.17.14.33.3.49.46s.48.54.16.13c.14.19.27.39.4.59a13.59 13.59 0 01.7 1.3c.23.49-.23-.64.11.26.08.23.17.47.25.71q.24.72.42 1.44c.12.47.22.94.31 1.41.05.23.08.45.12.68.13.66-.05-.48 0 .21a3 3 0 004.51 2.59l3.16-1.48a3 3 0 00.6-4.71 4.8 4.8 0 00-4.25-1.14l1.6 5.78a3.7 3.7 0 012.25.2 5.06 5.06 0 011.83 1.28 4.28 4.28 0 011 4.22 3.05 3.05 0 002.1 3.69l4.82 1.32c3.73 1 5.32-4.77 1.6-5.79l-4.83-1.32 2.1 3.7c2.13-7.6-4.94-14.69-12.5-13.08a3 3 0 00-2.09 3.69 3.07 3.07 0 003.69 2.09l.36-.05h-1.6l-.35-.34.61-4.72-3.16 1.48 4.52 2.59c-.62-5-2.42-11.78-8.06-13.23-.44-.11-.93-.06-1.34-.2h.28c-.24-.08-.24-.08 0 0s.24.09 0 0-.24-.16 0 0c.35.26-.34-.31-.4-.38-.72-.69-1.34-1.48-2.07-2.14-2.42-2.19-5.27-2.54-7.83-.35l5.12 2.12a33 33 0 00-1.47-7.68 3 3 0 00-5.79 1.6zM325.34 659.37l.1 5.26a3 3 0 001.49 2.59 3.14 3.14 0 003 0s-.65.26-.34.15l.22-.09.43-.15a9.1 9.1 0 011-.27 2.35 2.35 0 01.41-.07s-.73.07-.47.06h.19a5.63 5.63 0 01.82 0c.14 0 .62.06 0 0s-.13 0 0 0 .47.13.71.2-.73-.37-.27-.1l.29.16.27.19c.19.11-.41-.28-.39-.3s.16.13.17.14a3.07 3.07 0 00.46.49c-.14-.08-.47-.65-.2-.23.08.11.15.23.22.35l.2.39c.21.41-.25-.7-.11-.25.09.28.19.55.26.84l.09.41c0 .13.1.67 0 .12s0 0 0 .13v.56a4.07 4.07 0 001.09 3.13 3.88 3.88 0 003.77.76c.27-.07.53-.18.8-.27s1.2-.25 0-.11a3.27 3.27 0 002.12-.88 3 3 0 00.88-2.12c-.06-1.48-1.33-3.19-3-3a7.85 7.85 0 00-1.94.46c-.22.07-.46.11-.67.2a1.64 1.64 0 01.8 0h.32l1.14.67.65 1.13c.06.63.08.81.07.55a11 11 0 00-.23-2.63 8.69 8.69 0 00-.47-1.73 8.52 8.52 0 00-3-4 7.67 7.67 0 00-4-1.29 11.8 11.8 0 00-5.34 1.22l4.51 2.59-.1-5.26a3 3 0 00-6 0z" fill="#dbd7c6"/><path fill="#dbd7c6" stroke="#dbd7c6" stroke-linecap="round" stroke-linejoin="round" d="M277.76 761.01l374.13-6.86 2.31 70.5-372.24 6.86-4.2-70.5z"/><path d="M704.35 678.49a8.3 8.3 0 00-6.69 5l1.08-1.08c-2.69 1.54-4.5 4-6.58 6.19a15.65 15.65 0 01-1.61 1.54 6.46 6.46 0 00-1.82 1.59 3 3 0 00-.41 1.51v-.23a1.31 1.31 0 01.53-.82c.19-.14.16-.13-.08 0a6.15 6.15 0 00-1.28.71 3.71 3.71 0 00-1.82 2.93c0 .41 0 .32.08 0a.55.55 0 01.2-.3c-.23.2-.26.25-.1.13a5.52 5.52 0 01-.53.33l-.64.39a6.31 6.31 0 00-2.08 1.79 3.14 3.14 0 01-.92 1.18c.28-.24-.45.31-.43.3l-.79.56a10.67 10.67 0 00-1.75 1.53 5 5 0 00-1.06 1.91c-.17.5-.11.47.2-.09l1.32-.77a6 6 0 00-3.33 1.9 13.56 13.56 0 00-1.17 1.54l-.42.62c-.06.09-.46.51-.18.25a5.36 5.36 0 01-1 .54 7.92 7.92 0 00-1.49 1 5.72 5.72 0 00-1.82 4.1l.41-1.51c.12-.22.09-.1-.11.06a12.57 12.57 0 00-1.15.89 4.49 4.49 0 00-1.36 3.08c-.18 2.56 3.44 4 5.12 2.13l3.29-3.7-5-2.92a4.82 4.82 0 01-1.66 1.55c-.5.35-1 .68-1.53 1a4.86 4.86 0 00-1.11 1c-.18.24-.94 1.47-.64 1.82-.16-.18.6-1 .59-1 .19-.13.15-.12-.1 0l-.23.13a9.08 9.08 0 00-1.49.9c-1.16.9-1.35 1.73-2.22 2.63-3.36 3.46-7.84 5.68-9.25 10.65-1.05 3.72 4.74 5.31 5.79 1.6.06-.2.11-.41.18-.61-.1.29 0 0 .07-.14a7.59 7.59 0 01.63-1.06 3.11 3.11 0 01.5-.6c.29-.32.59-.62.9-.91 1.31-1.23 2.77-2.29 4.13-3.47a19.33 19.33 0 001.82-1.8 16.84 16.84 0 001.06-1.34 2.56 2.56 0 00.35-.51c.14-.35-.59.35-.28.28a5 5 0 003.53-4.69l-1.49 2.59c1.17-.83 2.39-1.57 3.5-2.49a9.48 9.48 0 002.72-3.86c1.15-2.8-3.11-5.06-5-2.92l-3.29 3.69 5.12 2.12c-.68 1.18-.81 1.57-.4 1.16l-.07.06a8.45 8.45 0 001.08-.81 4.58 4.58 0 001.34-1.77c.07-.19.4-1.66.2-1-.12.41-.28.09 0 0-.42.08.23-.1.39-.18s.6-.27.88-.43a9.2 9.2 0 003-3.26c.1-.14.43-.5.16-.2.11-.12.65-.5.25-.27s.32-.06.43-.09a3.51 3.51 0 001.55-1 4.49 4.49 0 00.92-1.62c.07-.22.48-1 .06-.43s.31-.19.42-.28.16-.14 0 0l.26-.18c1.1-.78 3-1.86 3.46-3.22.23-.67-.41.09-.15 0a4 4 0 00.78-.48 14.27 14.27 0 001.69-1.19 5.39 5.39 0 001.88-4.32l-.88 2.12c.36-.41-.26.09 0-.07l.43-.23a8.87 8.87 0 001.25-.76 4.63 4.63 0 001.78-3.67l-1.49 2.59c2.64-1.68 4.42-4.11 6.56-6.32a12 12 0 011.48-1.37 6.47 6.47 0 002-1.63c.29-.47.63-1.2.87-1.48.09-.11.5-.46.48-.45s.51-.15.16-.1a3.1 3.1 0 003-3c0-1.46-1.38-3.22-3-3zM537.5 754.72l-.76-.89c-1.92-2.23-6 .14-5 2.92l.3.81 5-2.91a11.33 11.33 0 00-3.36-2.47c-1.53-.73-4.11-.29-4.41 1.79-.07.47-.35.67.11.17s.33-.5.81-.72c-.17.08-.54 0 .11 0a2.1 2.1 0 01-.5 0l-.61-.15c-.42-.12-.82-.29-1.24-.39a20.75 20.75 0 00-4.39-.05c-1.52 0-3-.09-4.57-.11s-2.87 0-4.3.07a32.27 32.27 0 01-4.38.32c-2.45-.18-4.8-1-7.28-.68a8.49 8.49 0 00-2.12.49l-.18.08c-.79.3-1 .38-.54.24-.06.18-.72-.08.08 0s-.14-.06-.37-.14a7.81 7.81 0 00-1.74-.37 5.64 5.64 0 00-3.14.69c-.89.48-.94.45-2.13.16a22.75 22.75 0 00-3.83-.75 17.51 17.51 0 00-3.84.64c-.84.14-1.53-.63-2.6-.86a9.5 9.5 0 00-4.43.24 14.09 14.09 0 01-3.74.86c-1.46-.05-2.91-.53-4.37-.65a9.73 9.73 0 00-2.41.12 7.55 7.55 0 00-.8.16c-.44.13-1.05.64-1.5.61-1.13-.09.51-.18.48-.13s-.93-.17-1.09-.19a5.39 5.39 0 00-2.95.19 3.09 3.09 0 00-2.1 3.69c.4 1.42 2.18 2.7 3.69 2.09.5-.2.37-.15.17-.12s.71.13.69.12a8.32 8.32 0 002.28.15 9.46 9.46 0 001.93-.62 4 4 0 011.62-.07c1.39.15 2.75.55 4.15.63a13.11 13.11 0 004.38-.72 7.15 7.15 0 012.59-.54c.57.14 1.1.64 1.77.83a6.62 6.62 0 002.26.22c1.17-.09 2.4-.63 3.44-.66a17.73 17.73 0 013.37.72 8.7 8.7 0 004.33-.07 3.86 3.86 0 001.22-.6c.94-.72.11-.1.15-.15l.26-.07c-.34 0-.41.05-.19.05s-.56-.2.07.06a6.52 6.52 0 002.61.47c1.33-.05 2.2-.78 3.31-.89 2.57-.25 5.13.9 7.72.78 1.37-.06 2.73-.33 4.11-.39 1.6-.07 3.2 0 4.79 0 1.77 0 3.53.11 5.29.08.85 0 .73-.12 1.39.08a10.69 10.69 0 001.38.34c2.79.48 6.1-.38 6.57-3.66l-4.41 1.79a6.7 6.7 0 012.15 1.53c2 2.08 6.06 0 5-2.92l-.29-.81-5 2.92.76.88a3 3 0 004.25 0 3.07 3.07 0 000-4.24z" fill="#dbd7c6"/><path d="M462.59 753.46a37.15 37.15 0 01-6.24 0 23 23 0 01-2.86-.85c-1.31-.37-2.41.48-3.44.85-3.45 1.25-7.41.63-11.06.43a8.81 8.81 0 00-2.76.05 6.11 6.11 0 00-2.37 1.44c-.26.23-.22.08-.13.12-.08 0 1.58-.28 1.58-.28s-1.91-.46-1.05-.19c.07 0 .35.06 0-.07l-.66-.29a9.16 9.16 0 00-1.61-.6 5.29 5.29 0 00-3.45.5c-.67.28-.27.12-.17.09h-.62c-.12 0-.72-.09-.35 0-1.73-.28-3.41-1-5.2-.9-1.42 0-3.14.43-3.92 1.75-.64 1.1-.26.71 1.28.23 2.22-.69 1.85-.17 1.2-.76a3.74 3.74 0 00-.86-.56 3.59 3.59 0 00-2.56-.4c-.58.16-1 .52-1.56.62a15.77 15.77 0 01-3.43-.18 3 3 0 00-3 3 3.06 3.06 0 003 3c2.57.19 5 .37 7.3-1l-2.31.3c-.56-.21.09.13.19.2l.39.3a4 4 0 002.11.7c2 0 3.06-1.52 3.74-3.18l-2.1 2.09a1.9 1.9 0 011.24-.13c.34 0 1.33.31 1.9.44a10.91 10.91 0 004.85.28 6.33 6.33 0 001.32-.48 4.6 4.6 0 00.59-.29l-.67.19q-.46 0 .09.09h-.11a8.82 8.82 0 001.48.64 9.41 9.41 0 001.16.3c.48 0 .53.06.15.08l1 .14a4.22 4.22 0 002.31-.69 11.42 11.42 0 001-.76c.36-.3.44-.18.11-.11-1.88.4.25.26.86.3 1.71.09 3.42.24 5.13.27a19.1 19.1 0 0010.09-2.07h-3c3.69 1.64 7.46 1.49 11.41 1.34a3.07 3.07 0 003-3 3 3 0 00-3-3z" fill="#dbd7c6"/><path d="M413.76 754.18a18.11 18.11 0 00-2.85.18 7.52 7.52 0 01-1.34 0c-.36 0 .38.13-.13-.07.33.13 1.05 1.07.67.39a3 3 0 00-5.18 0c-.29.6-.07.1.08 0 .3-.15.39-.12 0-.09-.91.09.33 0-.21 0h-.73a17.64 17.64 0 00-4 .52 7.41 7.41 0 01-3.19.49 18.06 18.06 0 00-3.12-.34A95 95 0 00381 756l2.59 1.48c-2.66-3.83-7.56-3.26-10.67-.29-2.8 2.67 1.45 6.91 4.24 4.24.26-.22.28-.26.07-.1a4.45 4.45 0 01.51-.33q.48-.24.12-.09a5.58 5.58 0 01.58-.18h.14c.34.1.36.11.06 0a.45.45 0 01-.23-.2A3 3 0 00381 762a84.92 84.92 0 0113.89-.63 3.63 3.63 0 01.58 0c.19 0 .15 0-.1.07l.38.1a6.49 6.49 0 003.16.06c1.38-.21 2.71-.78 4.09-.94a29.45 29.45 0 003.51-.26 5.3 5.3 0 003.61-2.73h-5.18a5.43 5.43 0 004.78 2.66c1.35.07 2.69-.32 4.05-.22a3 3 0 100-6zM227.63 708a8.62 8.62 0 011.14-.28c-.48.06.26 0 .36 0-.41-.07-.45-.07-.14 0l-.36-.14c.51.36-.48-.36 0 0-.53-.41-.14-.2 0 0s.24.4.36.59c.28.46.57.91.89 1.35a4.41 4.41 0 001.27 1.31c1.55.91.26-.23 0-.34-.17-.28-.17-.23 0 .15l.14.32a8.09 8.09 0 00.63 1.33 9.07 9.07 0 006.41 4.19 8.8 8.8 0 001.26.11c1.59 0-1.15-1.73-1.17-1.17-.05 1.52 2 3 3.15 3.49a16.92 16.92 0 001.68.62l.35.13q-.44-.18-.15 0c.21.36-.76-.91 0 0a5.7 5.7 0 002.22 1.7 9.44 9.44 0 001.13.39c.12 0 1 .35.63.16l-1.43-1.8a6.32 6.32 0 002 3.37c.35.34.71.67 1.05 1l-.15-.21c.17.29.18.27 0-.09-.1.6.05-.55 0 .2-.2 1.61 1.52 3 3 3a3.08 3.08 0 003-3 5.4 5.4 0 00-1.69-4.23A14.28 14.28 0 00252 719c-.46-.4.34.15-.17-.21l.08.26a2.78 2.78 0 01-.11-.5 3.72 3.72 0 00-2.66-2.34c-.2-.07-1.63-.5-1-.2s-.35-.44-.55-.64a5.21 5.21 0 00-1-.76 10.51 10.51 0 00-2-.84c-.24-.09-.49-.15-.72-.25h.14c-.24-.15-.28-.17-.1 0a.57.57 0 01.26.31c.08.27.09.29 0 .07.15-.25-.42-1.19-.56-1.41a3.84 3.84 0 00-2.44-1.78 5 5 0 00-1.45 0s-.88-.07-.58 0a3 3 0 01-2.26-1.62 11.11 11.11 0 00-.74-1.71 4.75 4.75 0 00-2.73-1.9l1.32.77c.24.31-.27-.41-.35-.55-.19-.3-.37-.62-.56-.92a6.91 6.91 0 00-1.9-2.09c-1.8-1.21-4-1-5.94-.4-3.71 1-2.13 6.84 1.6 5.78z" fill="#dbd7c6"/><path d="M197.49 685.53h.91c.31 0 .52.17.14 0 .47.22-.19-.09-.34-.2s-.55-.69-.33-.31 0 0-.06-.18c.07.18.13.35.19.53.23.62.48 1.23.74 1.84a2.9 2.9 0 002.59 1.48h.43l-.18-.11c.26.16.32.18.16.07s.21.48 0 0c.21.48 0-.08.21.52l2.1-3.69a.12.12 0 010-.1c-3.74-1.06-5.24 4.58-1.6 5.79a15.56 15.56 0 011.9.72c.26.12.5.26.75.4s.51.38.12 0c.13.1.25.26.39.35.42.27-.28-.57-.12-.18a4.42 4.42 0 00.34.6c1.16 1.9 3 2.37 5.07 2.44l-2.12-.87a6 6 0 002.13 1.8 7 7 0 002.77.38l-2.89-2.21a8.17 8.17 0 002.91 3.8l.63.48c-.33-.27-.09-.06.09.1a2.37 2.37 0 01.27.28c-.17-.24-.2-.26-.09-.08s.09.16 0-.07a3.89 3.89 0 01.09.47 4.94 4.94 0 003.43 3.57 16.29 16.29 0 003.69.18l-2.59-1.48a15.07 15.07 0 002.13 3.74 6.54 6.54 0 001.8 1.42 7.05 7.05 0 001.34.53l.49.13q1 .35-.57-.54l5.18-3a9.77 9.77 0 00-7.71-5.53l1.52.41c-.29-.16-.28-.12 0 .11a3.76 3.76 0 01-.35-.34c-.44-.39.2.33-.17-.22a13.23 13.23 0 00-1.33-1.75 5.15 5.15 0 00-4.94-1.52 3 3 0 00-2.09 3.69 3.06 3.06 0 003.69 2.09 1.44 1.44 0 01-.77 0c-.21-.06-.58-.38-.22-.07s-.11-.18.1.09l.38.54A8.29 8.29 0 00220 704a4.81 4.81 0 001 .46c-.09 0 1.14.21.7.11a2.15 2.15 0 011.11.48 6.38 6.38 0 011.52 2.07 3 3 0 005.18-3 4.14 4.14 0 00-2.39-2c-.31-.12-.63-.2-.94-.3s-.34-.07-.43-.15a1.72 1.72 0 01-.13-.18c-.17-.26-.31-.54-.46-.82-.3-.59-.55-1.22-.84-1.82a3 3 0 00-2.59-1.49 11.42 11.42 0 00-1.17 0h-.68c-.51.06 0-.08 0 0-.29-.08-.33-.09-.12 0a.51.51 0 01.23.12c.17.24.46 1 .38.28a4.44 4.44 0 00-.65-1.67 8.22 8.22 0 00-2.32-2.38l-.42-.31c-.25-.2.25.28-.12-.11l-.38-.39c.4.39-.12-.34 0 0a3.1 3.1 0 00-2.89-2.2 5.39 5.39 0 00-1.13 0c.31-.41 1.42.86 1.09.32a3.56 3.56 0 00-3-1.61c-.9-.06.16.07-.22 0s-.75-.37.1.09c-.28-.15.83.53.67.72 0 0-.15-.25-.16-.27-1.32-2.67-4.33-3.82-7-4.7l-1.6 5.79a7.05 7.05 0 003.23.1 3 3 0 002.1-3.69 6.37 6.37 0 00-6.41-4.9l2.59 1.49c.23.53-.14-.42-.17-.52l-.23-.6a5.82 5.82 0 00-1.24-2.1 6 6 0 00-4.79-1.39 3.08 3.08 0 00-3 3 3 3 0 003 3zM209.69 777.92a6.89 6.89 0 003.74 3.22 17.2 17.2 0 001.71.58l.71.23a3.52 3.52 0 01.42.15c-.28-.11-.26-.09 0 .07l-1.38-1.79a6.12 6.12 0 002.54 3.91 7.52 7.52 0 002 .82c.26.08 1.37.35 0-.23.23.25.25.26.06 0 .08.12.15.25.22.37a6.69 6.69 0 003.28 3.39 7.34 7.34 0 002.19.37c.64 0-.37-.21.15 0 .33.1.3.07-.11-.09-.41-2.54-.75-3.26-1-2.18a3 3 0 002.9 3.8 2.36 2.36 0 01.46 0c-.43-.07-.49-.06-.17 0-.39-.18-.45-.19-.16 0-.33-.27-.36-.29-.12-.07s.68.88.26.26c.18.27.36.53.53.81a17.7 17.7 0 002.55 3.51 7.71 7.71 0 002.58 1.64c.1 0 .72.38.31.11s.38.4.47.5a7.68 7.68 0 005.17 2.9l-1.51-.41c1.08.64 2.21 2.21 3.46 3.24a10.41 10.41 0 002.68 1.6 1.92 1.92 0 00.4.14c.35.28.65.63 1 .94a7.48 7.48 0 002.91 1.89 2.49 2.49 0 00.71.14c.93.17.57 0-1.1-.6-.48-1-.65-1.26-.49-.76.06.32.06.23 0-.27a7.78 7.78 0 00.61 2.48 3.44 3.44 0 002.57 1.74 3.72 3.72 0 001.52-.08 6.21 6.21 0 00.93-.37 1.31 1.31 0 01-1.11.21c-.37-.18-.41-.2-.12 0-.3-.25-.33-.26-.09 0s.22.23 0-.06c.1.13.2.27.29.41a11.35 11.35 0 003 3.59 4.45 4.45 0 001.3.62 4.33 4.33 0 001.14.1c-.28-.06-.26 0 .08 0-.58-.14 0 0 .16.14-.5-.58.07.13.19.25 1.31 1.31 2.81 2.11 4.72 1.57 3.71-1 2.13-6.84-1.6-5.79-.68.2.89 0 .9 0l.42.18.27.22c-.07-.18-.47-.49-.61-.62A6.92 6.92 0 00259 809a5.3 5.3 0 00-1.61-.32c-.83 0 .3.16.46.2.4.13.26.29.07.06 0 0-.5-.59-.23-.24s-.07-.12-.12-.2l-.69-1.07c-1.17-1.76-2.72-3.28-5-3.3a3.8 3.8 0 00-2 .45c1.08-.75 3.62 2.61 3.17 1.49 0-.11-.16-.5 0 0s0 .1 0-.05a7.73 7.73 0 00-.15-1.06 4.55 4.55 0 00-.48-1.27 3.91 3.91 0 00-1.33-1.35 15.36 15.36 0 00-1.82-.53l.71.18-.28-.16c.14.26-.1-.08-.16-.13-.43-.37-.79-.8-1.22-1.17a7.81 7.81 0 00-1.56-1.12c-.32-.17-.68-.28-1-.42-.56-.22.56.36-.32-.13a2 2 0 01-.66-.49c-.4-.37-.77-.77-1.15-1.17a16.2 16.2 0 00-2.25-2.05 4.6 4.6 0 00-1.91-.89c-1-.23-.25 0-.17 0h-.1c-.6-.53-1.05-1.2-1.64-1.73a7.61 7.61 0 00-1.34-1 4.73 4.73 0 00-1-.37c-.33-.12-.34-.12 0 0L235 791c0 .06-.36-.3 0 0-.19-.17-.35-.35-.54-.53-.38-.38-.09-.11 0 0l-.44-.64c-.45-.7-.86-1.44-1.34-2.12-1.3-1.84-3.08-3.27-5.45-3.14l2.89 3.79a3.89 3.89 0 00-1-4 5.83 5.83 0 00-3.59-1.3h-.59c-.51 0-.67.31.58.22l.18.16c-.21-.22-.24-.26-.11-.11s-.22-.39-.23-.4a7.63 7.63 0 00-2.4-2.88 7 7 0 00-1.85-.66l-.5-.15c.62.17.09.09-.07-.07a3.86 3.86 0 01.5.49c-.34-.48.07.51-.11-.2a3.84 3.84 0 00-1.25-2.18 10 10 0 00-3.35-1.41l-.72-.24c-.48-.18 0 0-.23-.11s-.5-.4-.23-.13-.2-.35-.25-.44a3 3 0 00-5.18 3zM391.27 832.86l.9.75a3.09 3.09 0 004.24 0c-.2.19-.48-.05 0 0h.16a6.48 6.48 0 011.46.12 11.45 11.45 0 004.44.12 5.46 5.46 0 011.93-.31 17.52 17.52 0 011.9.32c.43.07.86.17 1.3.2a4.77 4.77 0 001.91-.36 4.25 4.25 0 011.21-.12c1.3 0 2.58.23 3.86.31a11.32 11.32 0 002.1 0c.58-.07 1.52-.36 1.84-.42.9-.17 2.52.49 3.63.59a6.36 6.36 0 004.85-1.66l-2.12.88h.08a5.4 5.4 0 01.57.18c-.43-.16.36.19.44.23a11.48 11.48 0 002.52 1 6.13 6.13 0 001.76.1c.86-.15 1.06-.17.61-.05h.26a7.46 7.46 0 002.34-.44 14.87 14.87 0 003.26-1.82c.59-.42-.41 0 .08-.07.33-.07-.32 0-.32 0a1.09 1.09 0 01-.58-.17c.26.17.24.15-.05 0 .21.24.25.27.11.08.14.2.28.4.4.61l3.39-4.4a89.56 89.56 0 00-11.42-1.33 3 3 0 00-3 3 3.06 3.06 0 003 3 79.27 79.27 0 019.83 1.11c2.41.44 4.88-2 3.39-4.4a6.69 6.69 0 00-3.88-3.3 5.55 5.55 0 00-4.25.9c-.45.28-.87.59-1.32.86-.14.09-1.05.5-.34.24a6 6 0 01-.69.21c.7-.18-.27-.07-.48-.07-1.57 0-.25.23-1 .12.65.1-.81-.36-.31-.15-.34-.14-.67-.32-1-.48a7.55 7.55 0 00-3-.83 3.51 3.51 0 00-2 .41c-1.17.69-.72.47-.52.4a2.23 2.23 0 01-.54-.06c-.43-.07-.85-.19-1.27-.28a8.75 8.75 0 00-3.22-.22 11.4 11.4 0 01-2.39.41c-.91 0-1.82-.13-2.72-.23a11.91 11.91 0 00-6.16.82l2.31-.3a33 33 0 00-4.84-.7 8.6 8.6 0 00-2.62.37c-.86.28 0 .21-.61.14h-.84l-1.54-.22a11.45 11.45 0 00-1.94-.15 6.4 6.4 0 00-4.27 1.75h4.24l-.9-.75a3.08 3.08 0 00-4.24 0 3 3 0 000 4.24z" fill="#dbd7c6"/><path d="M438.87 834c2.54.94 6.14 0 6.62-3.05a3.09 3.09 0 00-2.1-3.69 5.7 5.7 0 00-5.47 1.21c-2 1.6-.33 5.29 2.12 5.12 4.4-.29 9.06 1.16 13-1.47L449 831c1.42 2.39 3.78 4 6.56 2.8a17.56 17.56 0 002.1-1.21c.14-.09.3-.16.44-.26.56-.35-.58.2.05 0s-.69.16 0 0l-.35-.05c.31.09.3.08 0-.06l1.52-5.59-7.52.21a3 3 0 00-.8 5.9 17 17 0 005.74.35c1.74 0 3.17.88 4.9.92a4.69 4.69 0 003.2-1.15c.1-.09 1.05-1 .89-1.14.08.08-.78.4-.77.39h.1c.31 0 .35 0 0 0l.83.18a12.48 12.48 0 002.43.34l-.8-5.89c-.35.08-.37.08-.05 0h-.61c.53.06-.35-.09-.45-.11-.87-.19-1.73-.4-2.61-.52a6 6 0 00-5.49 1.84 3.08 3.08 0 000 4.24 3 3 0 004.24 0c.59-.67 0 0-.1-.12.35-.09.36-.11.05-.05h.29c.66.1-.19-.09.43.05l1.12.24a10.19 10.19 0 004.78.24c3.35-.78 2.53-5.83-.8-5.89-.54 0 .32.12-.42 0l-.84-.18a9.59 9.59 0 00-2.26-.29 5.22 5.22 0 00-2.45.66 4.56 4.56 0 00-1 .8c-.43.44-1.47 1.45-.18.76.82-.44.92-.23.27-.42-.38-.11-.75-.27-1.13-.39a10.46 10.46 0 00-2.73-.45c-1.66-.06-3.37.38-5-.14l-.8 5.89 7.52-.21a3.06 3.06 0 002.89-2.2 3 3 0 00-1.38-3.39 6.4 6.4 0 00-6.38.47l-.84.55c-.12.08-.29.15-.4.24-.4.32.45-.16.16-.05s-.46 0 .24 0c.18 0 1 .27.79.18s-.12-.06.19.15l-.17-.18.12.16q-.19-.29-.36-.57a3 3 0 00-4.1-1.08c-2.63 1.73-6.72.44-10 .65l2.13 5.12c-.44.34-.9.16-.37.33l-2.1-3.69c-.19.85.22.52 1.23-1-.34.08-.33.08 0 0-.36 0-.36 0 0 0a3.68 3.68 0 01-.47-.15 3 3 0 00-3.69 2.09 3.06 3.06 0 002.09 3.69z" fill="#dbd7c6"/><path d="M469.51 832.55A8.52 8.52 0 00473 832l1.23-.39s.63.07.08-.07.4.29.45.32a8.14 8.14 0 003.48 1.11 6.19 6.19 0 004.15-1.62l-2.12.87c12.35-.51 24.72-1.06 37.09-.83 3.86.07 3.86-5.93 0-6-8.64-.16-17.28.07-25.91.39-2.15.07-4.3.16-6.45.25l-3.32.14c-.47 0-.94 0-1.41.05a3.12 3.12 0 00-1.52.41.81.81 0 01-.65.48c-.21 0-.06 0 .47-.13q.38.13-.18 0l-.6-.27a7 7 0 00-3.25-1.09c-1.77 0-3.53 1.14-5.07 1a3 3 0 00-3 3 3.07 3.07 0 003 3z" fill="#dbd7c6"/><path d="M486.1 831.89a5.76 5.76 0 002.61.62 12 12 0 011.47 0l-.8-.1a2.18 2.18 0 01.44.11l-1.32-.77a5.94 5.94 0 002.37 1.31 5.85 5.85 0 002.6 0 18.25 18.25 0 003.15-1.28l-.71.3a5.92 5.92 0 011.36-.41l-.8.11a3.29 3.29 0 01.83 0l-.8-.11h.12a3.33 3.33 0 002.32-.3 3.06 3.06 0 001.37-1.8 3 3 0 00-.3-2.31 2.92 2.92 0 00-1.79-1.38 6.89 6.89 0 00-3.46.23c-.89.32-1.73.75-2.59 1.12l.72-.3a5 5 0 01-1.18.36l.8-.1a3.05 3.05 0 01-.74 0l.8.11a2.14 2.14 0 01-.53-.16l.72.31c-.11 0-.21-.12-.31-.17s-.14-.09.09.08l-.41-.31a4.78 4.78 0 00-2.1-.54c-.62-.05-1.23.07-1.85 0l.8.11a3 3 0 01-.43-.12l.72.3-.14-.06a3.21 3.21 0 00-2.31-.31 3 3 0 00-.72 5.49zM695.56 782.45c2.71-.67 4.17-3 4.69-5.63l-1.38 1.8a1.06 1.06 0 01.26-.17c.2-.11.11-.07-.27.11a2.85 2.85 0 01.54-.12 5 5 0 001.18-.36 4.37 4.37 0 002.57-3.28l-1.38 1.8a6.26 6.26 0 002.81-2.81c.22-.4.4-.82.62-1.23.1-.2.23-.39.34-.58s.16-.25-.07.08c.23-.23.2-.21-.11 0l-1.52.41a10.22 10.22 0 005.91-2.41 20.13 20.13 0 003.41-4.17l-1.79 1.38a7.23 7.23 0 005.92-4.81 3 3 0 00-2.09-3.69 3.09 3.09 0 00-3.69 2.1c.12-.27.1-.26-.06 0s-.19.3 0 0c-.25.23-.24.23 0 0l-.21.14c-.31.15-.29.16 0 0a4 4 0 01-.49.16 7.25 7.25 0 01-.78.17 4.11 4.11 0 00-2.54 2.11c-.21.3-.42.6-.65.9.31-.41-.13.13-.22.24a9 9 0 01-.74.77c-.1.1-.7.57-.2.21a8.46 8.46 0 01-.91.55c-.5.28.33 0-.3.1l-.55.14h.06a4.43 4.43 0 00-1.85.56 6.28 6.28 0 00-1.8 1.9 13.46 13.46 0 00-.74 1.41l-.32.61-.24.38c.25-.31.26-.34 0-.09s.38-.1-.12.06a2.83 2.83 0 00-1.61 1.89 1.37 1.37 0 01-.09.4c-.13.42 0 .19.44-.68a1.76 1.76 0 01.77-.42l-.33.08a4.17 4.17 0 00-3.73 2.88c-.07.23-.11.48-.18.72s-.1.31-.16.47c.13-.3.15-.36 0-.16a1.92 1.92 0 01-.18.31c.24-.28.24-.3 0-.06.3-.21.31-.22 0 0 .33-.13.32-.15 0-.05a3 3 0 001.6 5.79zM365 833.86a33 33 0 006.95-.32l2.24-.31.79-.11c.35 0 .35 0 0 0h.39c1.18-.15 2.37-.27 3.56-.33a3 3 0 100-6c-1.15 0-2.29.17-3.43.31l-2.37.32-.79.11-.65.09-.65.08-.78.09-1.71.15a24.61 24.61 0 01-3.54 0 3 3 0 00-3 3 3.08 3.08 0 003 3zM213.66 773.55c.07 0 .89.45.78.63a4.29 4.29 0 00-.39-.61 7.43 7.43 0 00-1.47-1.74 4.12 4.12 0 00-2.47-.91 4 4 0 00-1.5.28c-.22.08-.43.18-.64.28-.69.32-.32.31 1.13 0l1.33.77-.16-.18.77 1.32a4 4 0 00-2.76-2.8 5.89 5.89 0 00-1.57-.14c-.78 0-.39-.12 0 .14l1.08 1.08c.69 1-.58 2 .07 1.3 1.72-1.83.55-5.21-2.13-5.13l-3.64.11 2.59 4.52a3.73 3.73 0 00-.53-5.3 6 6 0 00-1.86-.89c-.21-.07-.43-.14-.64-.19s-.23-.08.23.1a2.24 2.24 0 01.65.65l.3 2.32c.72-3.41-1.46-6.08-4.81-6.66a14.92 14.92 0 01-1.86-.38c-.46-.12-.34-.26-.09 0-.35-.37.49.56.56.68a1.71 1.71 0 01.27.87c0 .35.05.42 0 .23a.87.87 0 000-.28 4.76 4.76 0 00-.34-1.58 4.27 4.27 0 00-3.64-2.66c-.41 0-.87-.17-1.34-.26-.67-.14.45.26 0 0 .16.1.74.76.66.61.3.53.23.52.13 0a5.67 5.67 0 00-.15-.69 6 6 0 00-2.51-3.06 3 3 0 00-4.11 1.07 3.07 3.07 0 001.08 4.11c-.48-.33-.06-.09 0 0 .23.33-.35-.55-.09-.12-.31-.51-.14-.39 0 .07a5.39 5.39 0 00.52 1.67c1.17 2.13 3.91 2.39 6.05 2.6l-2.12-.88c.11.1.22.19.32.3-.33-.35-.18-.16-.28-.47s-.18-1.16-.17-.58a3.91 3.91 0 00.5 2.06 4.2 4.2 0 002.14 1.71 10.88 10.88 0 001.45.48c.27.07.54.14.82.19l.79.11h.17c-.31-.06.88.28.6.18s.21.28 0 0a4.07 4.07 0 01-.37-.55 3.75 3.75 0 010-.44 12.13 12.13 0 000 1.6 3.63 3.63 0 001 1.61 5.83 5.83 0 002.37 1.22 3.11 3.11 0 00.7.21 1.24 1.24 0 01-1-1.19 1.2 1.2 0 01-.44-1.53c.23-.9 0-.34-.19 0-1.37 1.85.48 4.58 2.59 4.51l3.64-.11-2.12-5.12c-1.55 1.64-2.36 3.95-1 6a3.94 3.94 0 002.49 1.65 5.6 5.6 0 001.35.11c.83 0 .34.09-.05-.18l-1.08-1.08c-.11-.46 0-.3.26.5a8 8 0 00.62.79 3.37 3.37 0 001.92.9 5.46 5.46 0 003.18-.84l-1.52.41c.67-.08-.56-.21-.68-.28s-.45-.52-.41-.36a4.36 4.36 0 00.59.9 5 5 0 002.8 2.14c3.74 1 5.34-4.81 1.6-5.79zM370.36 755.22a6.38 6.38 0 00.52 1.13 7 7 0 00.77.95 7.24 7.24 0 001.38 1 16.77 16.77 0 011.8 1l-.6-.47a3 3 0 01.51.5l-.47-.6a2.64 2.64 0 01.29.49l-.31-.72c0 .09.07.18.1.27a3.13 3.13 0 001.37 1.8 2.38 2.38 0 001.12.35 2.33 2.33 0 001.2-.05 3 3 0 002.09-3.69 5.77 5.77 0 00-2.7-3.35 20.26 20.26 0 01-1.92-1.1l.6.47a3 3 0 01-.47-.47l.47.61a2.46 2.46 0 01-.25-.45l.3.72a2.2 2.2 0 00-.54-1 3.06 3.06 0 00-3.15-1.07 3 3 0 00-1.79 1.37l-.3.72a2.9 2.9 0 000 1.6zM650.69 731.49l.17 2.33a2.3 2.3 0 00.26 1.16 2.34 2.34 0 00.62 1 2.22 2.22 0 001 .62 2.26 2.26 0 001.15.25l.8-.1A3 3 0 00656 736l.47-.61a3 3 0 00.41-1.52l-.17-2.33a2.22 2.22 0 00-.26-1.16 2.72 2.72 0 00-1.58-1.58 2.2 2.2 0 00-1.16-.26l-.79.11a3 3 0 00-1.33.77l-.47.6a3 3 0 00-.41 1.52z" fill="#dbd7c6"/><path d="M692.5 776.7a5.64 5.64 0 01-2.53 1c-2 .31-2.67 2.88-1.79 4.4.38.66-.06-.47.06.13a2 2 0 01.17-1.34l.27-.34c-.17.16-.16.16 0 0s.22-.16 0 0a1.74 1.74 0 01-.26.15l-.48.23c.71-.33 0 0-.12 0-.4.13-.8.28-1.19.42a8.48 8.48 0 00-3 1.63 4 4 0 00-1.09 1.67 7.63 7.63 0 00-.2.95c-.13.79.19-.36-.1.3 0 .08-.4.66-.16.31s-.23.23-.29.29c-.24.28-.29.23 0 0l-.54.36c-.67.41-1.39.75-2 1.19a8.73 8.73 0 00-3.79 6.72l5.89-.8-.61-2.53c-.78-3.26-6-2.61-5.89.79a6.68 6.68 0 010 1c0-.57-.07.26-.08.32-.08.57.24-.24-.06.19-.11.15-.52.68-.05.14a8.83 8.83 0 01-.88.85c-.16.14.43-.3-.11.08l-.55.39c-2.09 1.51-3.75 3.2-4.39 5.78l.77-1.32c.4-.28.45-.34.16-.17q.6-.24.12-.06l-.66.25a7.44 7.44 0 00-2 1c-1.75 1.34-1.89 3.34-1 5.24l4.1-4.11-1.51-.7c-1.83-.85-4.77.1-4.52 2.59a4.41 4.41 0 010 .52c0-.54 0 0-.06.15-.2.42.14-.38 0 .06 0 .11-.41.59-.07.19-.42.5-.41.24.12.1a1.47 1.47 0 011.32.39 3 3 0 00-3-1.43 2.93 2.93 0 00-2.49 2.15c-.07.48 0 0 .09 0-.15.25-.17.28 0 .1s.1-.14 0 0c-.33.31.35-.24 0 0a4.87 4.87 0 01-.47.32 12 12 0 00-2.39 1.86 5.51 5.51 0 00-1 1.53 7.58 7.58 0 00-.28 1c0 .12-.15.45 0 .15-.16.37-.22.59-.4.61l.46-.2c.09 0 .76.18-.08 0-3.72-1-5.31 4.75-1.59 5.78a5.54 5.54 0 005.23-1.1 6.63 6.63 0 001.34-1.6c.23-.4 1-1.69.88-2.15-.08-.24 0 0-.22.21.09-.08.64-.56.25-.26.45-.35 1-.62 1.42-1a5.75 5.75 0 002.65-3.65l-5.48.72c1.53 2.38 4.31 3.34 6.8 1.73a7 7 0 003.07-6.17l-4.51 2.59 1.52.7a3 3 0 004.1-4.1c.4.86 0 1.58-.37 2.39 0 .09-.49.39-.12.13s-.34.12 0 0l.44-.16a6.65 6.65 0 002.47-1.36 3.86 3.86 0 00.93-1.9c.07-.25.16-.32 0 0 .1-.19.21-.37.32-.56.21-.36-.31.32 0 0l.33-.35c.15-.14.93-.78.37-.36a18.89 18.89 0 003.23-2.63 8.2 8.2 0 001.88-5.81l-5.89.8.6 2.53a3 3 0 003.3 2.15 3.06 3.06 0 002.6-2.94c0 .21.49-1.41.22-.8.05-.13.5-.73.05-.19.15-.17.33-.31.47-.48.34-.44-.44.22.07-.07.19-.1.37-.23.55-.34l1-.58c2-1.14 4-3 4.37-5.43.15-1-.69.87-.32.32-.22.31-.47.28 0 .08.08 0 .63-.29.21-.11s.28-.1.37-.13a22.18 22.18 0 002.92-1.16 4.74 4.74 0 002-6.84l-1.79 4.41a9.58 9.58 0 004-1.63 3.09 3.09 0 001.07-4.11 3 3 0 00-4.1-1.07zM518.36 832.18L523 832a3 3 0 002.59-1.48 6.33 6.33 0 00.46-4.34l-3.69 3.69c7.64 2 15.5 1.26 23.3 1 1.9 0 3.8-.07 5.7 0a27.77 27.77 0 014.64.4c.71.19 1.32.64 2.06.78a5.67 5.67 0 002.56 0c2.09-.59 3-2.38 3.24-4.41.16-1.73-1.52-2.84-3-3l-1.45-.15a3 3 0 00-2.94 2.6 3 3 0 002.14 3.29c3.41 1.27 6.88 1 10.34.13 1.24-.3 3-.78 3.94-.88a16.89 16.89 0 014.6.33 65.17 65.17 0 0012.64.61c2.2-.12 4.39-.37 6.57-.69.75-.11 1.54-.27 2-.3.08 0 .89-.17.57-.06.36.11.42.11.2 0s-.15-.11.1.16a2.89 2.89 0 002.92.77l4.88-1.9-2.32-.31c3.72 2.31 7.84 1.65 11.91.94h-1.59c3.36.81 6.73 1.51 10.19 1 1.44-.22 2.85-.59 4.31-.73a44.31 44.31 0 014.89-.18c6.42.09 12.81 1.2 19.23.66a3.08 3.08 0 003-3 3 3 0 00-3-3c-9.26.78-18.47-1.68-27.7 0a16.07 16.07 0 01-6.18.17c-1.06-.2-2.09-.52-3.15-.71a11.4 11.4 0 00-3.62.35 8.24 8.24 0 01-4.89-.45 3.73 3.73 0 00-2.28-.58 7.63 7.63 0 00-1.73.57l-3.54 1.39 2.92.77c-2.75-3.26-7.76-1.39-11.31-1.06a62.33 62.33 0 01-12.81-.14 43.4 43.4 0 00-5.78-.69 22.79 22.79 0 00-4.92.75c-3.25.79-5.62 1.48-8.82.29l-.8 5.89 1.45.15-3-3c.07-.75.58-1 1.16-1.38h.34-.1c.35.19-.26-.09-.36-.13.59.24-.12-.15-.19-.19-1.53-.81-3.82-.78-5.54-.91a84.49 84.49 0 00-9.81 0c-6.47.27-13.07.78-19.41-.9a3 3 0 00-3.69 3.69c.11.1.15 0 .15-.28L523 826l-4.65.18a3.06 3.06 0 00-3 3 3 3 0 003 3zM537.19 758.33c.74-.5 1.29-.51 1.77-.08a3 3 0 005-2.92 2 2 0 01-.91 2.21.92.92 0 01-.76-.06 9.31 9.31 0 011.47.75 6.91 6.91 0 004.21.69 34.9 34.9 0 003.36-1.13 30.89 30.89 0 013.3-.75c4.57-.76 9.31-.38 13.9-.08l-1.53-5.59a7.35 7.35 0 01-7.25.7l-1.52 5.59 16.38-.36a3 3 0 002.12-5.12l-.17-.18.77 1.33a2 2 0 01-1.13 2.2h-1.59c7.8 2.89 16.07.92 24.12 1.05a20.58 20.58 0 004.36 0 22.59 22.59 0 003.67-1.14 20.8 20.8 0 013.52-1.1c-.87.15.07 0 .13 0 .35 0 .3 0-.15-.05a2.6 2.6 0 01.4.1c-.09.09-.38-.17-.42-.24.22.23.21.21 0-.08a4.17 4.17 0 01.26.46l1.08-4.11a2.66 2.66 0 01-2.5 0l-.8 5.89a49.57 49.57 0 0015.22-.9 3 3 0 00-1.6-5.79 44.16 44.16 0 01-13.62.69 3 3 0 00-2.94 2.6 3 3 0 002.14 3.29 8.57 8.57 0 007.13-.6 3 3 0 001.07-4.1c-1.53-2.85-4.5-3.54-7.46-2.88a27.91 27.91 0 00-3.45 1.15c-.59.22-1.18.44-1.78.62-.27.09-.54.16-.81.23s-1 .19-.39.12h-.88c-.29 0 .14 0 .19.05l-.35-.08a16 16 0 00-3.1-.18c-1.91 0-3.83.14-5.75.26a53.84 53.84 0 01-11.28.06 21 21 0 01-2.95-.66c-1.38-.41-2.65-.87-4-.13a4 4 0 00-1.14 6.32l2.12-5.12-16.38.36c-2.78.06-4.32 4.24-1.51 5.59a13.54 13.54 0 0013.31-.7 3 3 0 00-1.52-5.59c-5.9-.39-11.9-.68-17.7.75-.66.17-1.32.35-2 .57s-1.6.84-2.1.79-1.87-1.11-2.68-1.31c-3.3-.82-6.65 1.65-5.92 5.17l5-2.92a7.39 7.39 0 00-9.05-.86 3.09 3.09 0 00-1.08 4.11 3 3 0 004.11 1.07z" fill="#dbd7c6"/><path d="M625.17 755.51c-.32.42 0 .08 0 0 .33-.29-.11-.08-.12.05l.32-.2s-.62.22-.32.14-.7 0-.33 0c.14 0 .5 0 0 0h-.1c.42.07.27.31-.12-.07a5.16 5.16 0 001 .64c-.73-.43-.13-.09.08.07s.71.57 1.07.84c2.46 1.82 5.55 1.49 7.16-1.27.19-.33.3-.68.47-1s.24-.32.27-.46c.14-.59.11 0 0 0l-.77.42-1.63-.2c-.45-.06-.29-.36-.11-.06a2.83 2.83 0 00.32.37c-.28-.34 0 0 .1.16.69 1 1.36 2.05 2.57 2.38a6.77 6.77 0 003-.06 8.15 8.15 0 002.8-1.38c.14-.09.3-.17.43-.27.48-.38-.52.14-.09 0 .73-.21-.41-.1.1-.05h.43c.55 0-.28-.08.1 0 1.11.24 2.32.92 3.44.92a4.55 4.55 0 001.91-.7c-.26.18.41 0 .1 0h.55c2.19.06 4.33.69 6.48-.13a3.08 3.08 0 002.09-3.69 3 3 0 00-3.69-2.1 3.17 3.17 0 01-1.79.21c-.75 0-1.5-.16-2.25-.23a7 7 0 00-4.91 1l2.31-.3c-2.46-.94-5.15-1.53-7.61-.27a13.81 13.81 0 00-1.47 1c-.13.08-.28.14-.41.22.2-.12.63-.24.15-.1s.28.08 0 0a6 6 0 00-.85 0l2.12.87c-.43-.51.14.22-.23-.28-.16-.22-.32-.45-.49-.67a8 8 0 00-1.58-1.71 3.89 3.89 0 00-4.85 0 6.38 6.38 0 00-1.79 2.23l-.3.71c.13-.29.12-.3 0 0s-.55.47 0 .06c-.24.17-.55.29.16-.08a1.3 1.3 0 01.93-.26c.2 0 .82.2.31 0 .27.09.64.37.22.07-.21-.16-1-.8-.3-.18-.26-.22-.54-.43-.82-.64a9 9 0 00-2.76-1.65c-2.73-.9-4.93.54-6.54 2.65-1 1.29-.2 3.36 1.07 4.11a3.09 3.09 0 004.11-1.08zM258.45 814.19a5.08 5.08 0 00.69 2.77 3 3 0 003.39 1.38l1.41-.56-3.69-2.1a5.94 5.94 0 005.93 5.08l-2.59-1.49a6.79 6.79 0 002.12 2.51 5.85 5.85 0 004 .31h-1.6c.49.11-.43-.27-.57-.38-.51-.37-.22-.32-.06 0 .28.56-.2-.56 0 0 .07.19.14.38.22.57a5.71 5.71 0 002.3 3.09 4.4 4.4 0 002.21.56 3.33 3.33 0 001.83-.6c.33-.17.39-.21.19-.14l.14-.05c-.76 0-1.53-.23-1.64-.63.05.17.24.44.31.6-.29-.62.07.21.1.28a5.69 5.69 0 002.66 3.2 19.77 19.77 0 002.87 1.25l.62.23c.57.22-.5-.28.07 0 .32.18.67.41 1 .56.16.07-.37-.43 0 .05.12.14-.21-.57 0 0 .11.2.08.12-.08-.24 0 .1.07.21.1.31s0 .15 0-.22a3.05 3.05 0 010 .52 3.06 3.06 0 003 3 3 3 0 003-3 6.73 6.73 0 00-3.82-6.09 30 30 0 00-2.93-1.2c-.34-.14-.51-.25-.08 0l-.56-.28c-.08 0-.78-.49-.38-.2s-.2-.21-.27-.29l.77 1.33c-.62-1.67-1.2-3.51-2.79-4.52-1.82-1.16-3.94-.57-5.64.51l1.51-.41a1.8 1.8 0 01.82.26c.37.32.44.37.22.15.29.38.34.43.17.16s-.11-.23.06.18c-.25-.61-.45-1.24-.75-1.84a4.35 4.35 0 00-4.63-2.54c.6-.07-.38.07-.43 0a1.26 1.26 0 011 .35c.5.35.64.41.4.19.66.64.13.1 0-.16a4.1 4.1 0 00-1.36-1.53 4.56 4.56 0 00-1.8-.42q.53.09 0 0c.33.17.35.17.06 0 .29.24.32.25.08 0 .22.29.24.29.06 0 .13.32.14.3 0-.05a5.59 5.59 0 01-.11-.59 3 3 0 00-3.69-2.1l-1.42.57 3.39 1.38c.08.69.13.78.13.25a3 3 0 00-3-3 3.06 3.06 0 00-3 3zM390 827.07c-.14.15-.77.67-.35.38-.15.1-.32.18-.47.29-.45.3.13 0-.16.08-.1 0-.51.26-.23.09s-.16-.08.06 0c.42.19.71.29.89.76a3 3 0 00-5.48-.72c-.63 1 .23-.29-.41.49.18-.22 0-.09-.12 0 .26-.28-.24 0 .18-.08h-.7c-.24 0 .33.09-.21 0l-.74-.15c-.53-.12-1.07-.25-1.61-.35a8.81 8.81 0 00-3.79 0 4.4 4.4 0 00-2.06 1.2l-.72.74s.29-.12.32-.11c.32 0 0-.06-.33-.11s-.89-.13-1.34-.19c-.84-.11-1.69-.21-2.53-.29-1.67-.15-3.34-.21-5-.2s-3.18.09-4.76.25c-1 .09-1.95.22-2.93.36l-1.18.18-.47.08c-.69.11-.62.11.21 0l1.33.77c.08.23.07.24 0 0a1.65 1.65 0 00-.18-.32 4.52 4.52 0 00-2.52-1.9 7.28 7.28 0 00-3.41-.06c-.39.06-.77.13-1.15.21l-.7.14h-.09a1.79 1.79 0 00-.52 0c-.27.11.61.17.14 0 .45.15.27 0 .59.34.14.15.47 1 .33.39l-3.69 3.69 9.85 2.67c2.76.74 5.27-3 2.92-5-3.19-2.75-6.84-4-11-3-1.3.32-2.54.84-3.83 1.24-.33.1-.66.2-1 .28l-.5.1h.05a8.34 8.34 0 01-1 0c.73.06-.31-.11-.48-.16l1.33.77a5.25 5.25 0 00-7.24-1.19c-.35.22-.7.45-1.06.65a2.86 2.86 0 00-.35.18c-.16.13.47-.09.25-.11a2.67 2.67 0 00-.78.22c.15-.07.63 0 .21 0h-.99c-.43 0 .49.12.05 0a11.61 11.61 0 01-2.53-.91 3.15 3.15 0 00-3.64.47 6.77 6.77 0 01-.78.64c-.68.43-.21.1.32 0-.32 0-.24 0 .25.05-.29-.1-.25-.08.12.07-.33-.15-.65-.34-1-.51a5.44 5.44 0 00-3.64-1c-1.11.16-2.21.37-3.31.62-4.18 1-8.24 2.3-12.46.74l-.8 5.89a22.84 22.84 0 0010.32-1.45 3 3 0 000-5.78 12.33 12.33 0 00-8.75 0 3.06 3.06 0 00-2.15 2.5 3 3 0 001.43 3 20.21 20.21 0 0013.84 1.16c3.71-1 2.14-6.83-1.6-5.79a13.7 13.7 0 01-9.21-.55l-.71 5.48a7.17 7.17 0 015.55 0v-5.78a18.8 18.8 0 01-8.72 1.23 3 3 0 00-2.94 2.6 3 3 0 002.15 3.29c6.45 2.39 12.56-.49 19-1.35l-2.31-.31c1.49.77 3 1.88 4.78 1.92 2 0 3.48-1.23 4.88-2.45l-3.63.47c2.5 1.27 5.25 2.18 8.07 1.52.11 0 4-1.67 3.89-1.91 0 .05-.84.26-.3.13s-.81.05-.37.05-.78-.17-.35 0c-.41-.13-.57-.33-.17 0-.1-.08-.37-.39 0 0 .15.17.3.35.45.5a4.74 4.74 0 002.75 1.07c2.5.34 4.75-.54 7.09-1.31.6-.2 1.21-.37 1.83-.52l.4-.07c-.3 0-.25 0 0 0h1a3.11 3.11 0 01.43 0c-.34 0-.1 0 .08.05s.78.22.86.26a9 9 0 012 1.31l2.92-5-9.86-2.67a3 3 0 00-3.71 3.66c.89 3.5 4.14 3.93 7.17 3.36l1.39-.27c.53-.11-.5-.14.19 0s-.49-.18.08 0-.52-.33-.55-.34c-.28-.4-.31-.4-.1 0l.19.24a4 4 0 003.39 1.8c1 0 2.08-.36 3.09-.49s1.95-.22 2.93-.29a51.14 51.14 0 016.19-.07c2.05.09 4.05.53 6.08.68s3.75-1.08 5.15-2.6l-1.33.78s.76-.23.37-.16.32 0 .41 0h.19l.72.14a28.21 28.21 0 003.28.6 6.79 6.79 0 006.52-3.38l-5.49-.71a5 5 0 005.11 3.59 7.87 7.87 0 005.18-2.57 3.07 3.07 0 000-4.24 3 3 0 00-4.24 0zM285.26 762.8a2.63 2.63 0 011.3-.44c-.51.08.43 0 .45 0h1c1.3.07 2.21.28 3.65.49 3.26.49 6.37.62 9.38-.94s.93-6.37-2.31-5.48a8.68 8.68 0 01-4.44.08l2.09 3.69c0-.28.12-.56.17-.84 0 .13-.33.47 0 .11a2.73 2.73 0 01-.43.47 2.08 2.08 0 01-.61.32s-.73.07-.41.07c-.07 0-.56-.19 0 0s-.46-.26.16.08l.62.33c.49.28 1 .58 1.47.86a9.21 9.21 0 003.35 1.26c1.89.23 3.2-1.1 4.73-1.41-.34.06.29.1.11 0a7.52 7.52 0 001.31.54 7 7 0 003-.06 17.11 17.11 0 002-.61l.9-.28c.08 0 .67-.21.31-.09s.31.1 0 0a1.82 1.82 0 00-.4-.11c-.13 0-.27-.27-.07 0a4.51 4.51 0 001.21.89 8 8 0 002.22.88 11.72 11.72 0 005.17-.08 29.28 29.28 0 009.43-4.37l-4.4-1.8.74 3.93 3.69-3.69-2.26-.4-.79 5.89 8.6-1a3.15 3.15 0 002.59-1.48 2.94 2.94 0 000-3l-1.28-1.67-2.59 4.52a13.14 13.14 0 017 1.07l.72-5.49-5.28 1.29 2.92 5a3.08 3.08 0 012.54-.48 13.9 13.9 0 011.6.33l.9.25q.39.14-.06-.09l.72.3a11.73 11.73 0 005.4 0c.87-.13 1.73-.29 2.6-.44l1.44-.25.64-.09H356c.41 0 .83-.08 1.25-.08h.36a3.26 3.26 0 01.48.11s-.65-.33-.32-.12a1.86 1.86 0 01-.85-1.45l4.52-2.59c.26.19.57.48.47.85l-4.41 1.8a8.66 8.66 0 006.11 1.63 3.11 3.11 0 002.89-2.21c.15-.68-.18.4-.49.62a1.17 1.17 0 01-.73.25c.41 0 .08.07-.09 0-.52-.34-.68-.33-1-1.07a3.07 3.07 0 004.41 1.79l2-.88c3.08-1.37.88-6.67-2.31-5.48l-2 .73 2.31 5.48a30.89 30.89 0 015.39-1.93l-3.69-3.69a2.22 2.22 0 01-.43.87c-1.59 1.75-.64 5.38 2.12 5.12l2.9-.27-2.59-4.52c.48-.68-.36.24.29-.28-.07.06-.64.31-.26.16s-.26.06-.34.08-.9.1-.27.06a22.05 22.05 0 01-3.35-.07 27.1 27.1 0 00-6.85-.12 3 3 0 00-2.1 3.69 3.07 3.07 0 003.69 2.09c-.77.13 0 0 .16 0h.94c.59 0 1.19.07 1.78.12 1.32.11 2.63.28 4 .32 2.94.1 5.76-.49 7.54-3 1.25-1.78-.4-4.72-2.6-4.51l-2.9.27 2.12 5.12a8.25 8.25 0 002-3.52 3 3 0 00-3.69-3.69 40.52 40.52 0 00-6.82 2.54c-3 1.44-.89 6.67 2.31 5.48l2-.73-2.31-5.48-2 .88 4.4 1.79a4.88 4.88 0 00-9.3.26l2.9-2.2a3.8 3.8 0 01-3.08-.81c-1.56-1.17-4 .07-4.4 1.79a5.41 5.41 0 002.28 5.92c1.81 1.34 4.65-.46 4.51-2.59-.38-6.22-8-4.3-12-3.63-.51.09-1 .18-1.53.25.73-.1 0 0-.16 0s-.51.05-.77.06-.48 0-.7 0c-.55.06.63.17.1 0s0 .16.16.12a12.79 12.79 0 01-1.42-.51c-3.82-1.07-7.52-1.17-10.7 1.5-2.42 2 .21 5.67 2.92 5l5.28-1.28c2.38-.58 3.07-4.37.71-5.48a18.9 18.9 0 00-10.06-1.89 3.12 3.12 0 00-2.59 1.48 2.94 2.94 0 000 3l1.28 1.67 2.59-4.52-8.6 1a3 3 0 00-2.95 2.61 3 3 0 002.15 3.29l2.26.4a3 3 0 003.69-3.69l-.75-3.93a3 3 0 00-4.41-1.79 24.37 24.37 0 01-7.83 3.72 4.74 4.74 0 01-1.76.17h-.45c.07 0 .39.08.06 0a5.15 5.15 0 01-.56-.16c-.46-.16.34.18-.09-.05a3 3 0 01-.38-.23c.09.07.4.28-.07-.09a6.93 6.93 0 00-1.05-.75 5.11 5.11 0 00-3.19-.48 10.58 10.58 0 00-2.15.54l-.93.31-.62.17c-.23.08-.33.19-.12 0h-.15c-.33 0-.21 0 .36.13a3.94 3.94 0 01-.75-.32 6.5 6.5 0 00-4.67-.1 9.93 9.93 0 00-2.56 1.18c-.45.35.5-.11.64-.12.78-.05.49.14.27 0s-.92-.41-.24-.06c-.95-.5-1.86-1.07-2.81-1.57a6.36 6.36 0 00-4.57-.9 4.78 4.78 0 00-3.26 4.14c-.23 1.56.36 3.27 2.09 3.69a15.17 15.17 0 007.63-.09l-2.29-5.45a5.71 5.71 0 01-3.12.49 32.72 32.72 0 01-3.72-.48c-3.06-.47-6.12-.72-8.91.88-3.35 1.93-.33 7.11 3 5.18zM661.89 727.39l-.39-6.14-4.5 2.59c1.39 1 2.86 2.25 4.68 2.22a3.72 3.72 0 003.23-2 7.43 7.43 0 00.64-3.78l-.41 1.51c.17-.36-.07.05-.18.15l-.32.24c.22-.12.22-.13 0 0-.45.14 0 0 .09 0l.47-.09h-1.59a6.56 6.56 0 004.52-.65 6.79 6.79 0 002.43-2.72c.39-.75.68-1.56 1-2.34a6.53 6.53 0 00.64-1.1c0 .11-.54.6-.19.25l.22-.22c.23-.29-.24.22-.32.23a3.33 3.33 0 001.4-4.31 3.06 3.06 0 00-4.1-1.08 7.31 7.31 0 00-2.94 3.46c-.25.55-.47 1.11-.72 1.66-.12.24-.24.49-.37.72s-.17.25-.24.38c-.2.36.52-.54.12-.16a2.13 2.13 0 00-.26.26c-.08.11.64-.42.21-.18a.51.51 0 00-.16.09s.65-.2.43-.18a1.83 1.83 0 00-.46.12c.06 0 .81 0 .37-.07h-.44c-.06 0 1.07.15.06 0a4.45 4.45 0 00-2.13.3 4.39 4.39 0 00-3.11 4v.67a2.81 2.81 0 000 .29c0 .3 0-.35.06-.38a1.5 1.5 0 00-.09.42c0 .09-.17.43.07-.15s-.15.1.24-.4a2 2 0 011.49-.86c.54-.08.38 0 .24-.05s.92.12.54.06h-.15c-.24-.09.64.35.42.17s-.27-.14-.39-.21c-.67-.41-1.3-.91-1.94-1.37-1.81-1.32-4.65.44-4.51 2.59l.39 6.14a3 3 0 006 0zM687.1 705.75a33.85 33.85 0 00-.32-3.76c-.06-.58-.12-1.17-.13-1.75v-.86c0-.29 0-.37 0 0a5.3 5.3 0 01.1-.55l-.77 1.33c.1-.12.24-.18-.08 0-.58.37.38-.07-.26.15s.08 0 .2 0a9.69 9.69 0 001.64-.58 4 4 0 001.56-1.43 3.55 3.55 0 00.42-1 4.24 4.24 0 00.12-.87l-.11-.8v.41c0 .78-.42.75-1.18 1.36l-1.11.89c-.52 0-.52 0 0 0a5 5 0 001.44-.09 5.23 5.23 0 001-.26 6.22 6.22 0 002.37-1.5 7.34 7.34 0 001.69-4.36c0-.22 0-.44.08-.65.1-.86-.14.68 0 0 0-.18.09-.37.13-.56.1-.49-.21.48-.17.38a1.88 1.88 0 01.14-.24c-.64 1-.48.58-.32.43s-.48.36-.42.32c.25-.17.58-.21-.35.11.15-.05.58-.11 0 0s-.06 0 .12 0h.19c.38 0-.31 0-.37-.06a3.51 3.51 0 00.66.13 15.17 15.17 0 011.62.5 3 3 0 003.69-2.09 3.07 3.07 0 00-2.09-3.69 9.08 9.08 0 00-5.21-.63 4.67 4.67 0 00-3.26 3.25 11.1 11.1 0 00-.31 1.83c0 .21 0 .42-.07.64-.05.49 0-.28.06-.4 0 .12 0 .24-.06.35s-.08.4-.13.6a.92.92 0 00-.09.28c0 .05.39-.72.12-.31a2.26 2.26 0 00-.16.26c-.17.38.44-.66.22-.29-.05.08-.19.13-.23.21.14-.3.67-.35.19-.18s.65-.18.2-.08l-.47.14h-.23 1.06l-.8-.1a3.62 3.62 0 00-1.23.1c-2.21.59-2.93 2.78-2.5 4.81v-1.6c-.1.52.09.24.56-.84l.4-.31c-.41.26.74-.2.08-.06a7.76 7.76 0 00-1 .29 4.09 4.09 0 00-2.94 3.4c-.39 2.62.29 5.13.29 7.73a3 3 0 006 0zM204.8 692.86a8.65 8.65 0 011.32-.29h.76c.73 0-.33-.14.36 0 .11 0 1.17.36.63.13a6.67 6.67 0 011 .55c.48.31-.12-.2.3.26.07.08.77.84.53.54a9.61 9.61 0 01.7 1.09 3.06 3.06 0 003.39 1.38 3 3 0 002.2-2.89 12.29 12.29 0 01-.11-1.6v-.5c0 .6-.08.38 0 .12a2.28 2.28 0 01-1.76 1.35 1 1 0 01-.58 0c-.33 0-.38-.06-.17 0 0 0-.72-.32-.35-.14.06 0 .54.32.09 0s0 0 .09.1c.24.24.45.48.68.72s0 .06-.08-.1c.1.15.21.29.31.45a9.88 9.88 0 01.56.95 3.49 3.49 0 00.19.39c.21.28-.17-.55 0 0 .11.34.22.68.32 1a10.93 10.93 0 001.19 3 5.13 5.13 0 003.12 2.29 5.39 5.39 0 001.6.09 3.41 3.41 0 01.46 0c0 .12-1.07-.43-1.09-.46l-.77-1.32c0-.51 0-.57-.05-.19l4.51-2.59a37.31 37.31 0 01-8.15-5.79l-3.63 4.72c.18.1.36.22.54.34.37.23-.34-.29 0 0s.6.52.88.8c.59.58 1.13 1.2 1.67 1.82a24.81 24.81 0 003.92 3.88 9.19 9.19 0 005.35 1.84 1.94 1.94 0 00.54 0c.45 0 .17-.14-.82-.3l-.7-.71c.24.3-.08 0-.07-.17a3.76 3.76 0 00.12.54 11.36 11.36 0 00.4 2 3.08 3.08 0 003.69 2.1 3 3 0 002.09-3.69 13.82 13.82 0 01-.41-2.13 4.67 4.67 0 00-2-3 5.44 5.44 0 00-3.17-.59c-.35 0 .4.14-.13 0l-.62-.18c-.4-.13.54.33-.11-.05l-.55-.32c-.18-.11-.36-.24-.53-.36.24.17.18.15 0 0s-.65-.61-1-.93c-.64-.66-1.24-1.37-1.84-2.06a18.18 18.18 0 00-4.31-3.9c-2.9-1.71-6.15 2.35-3.64 4.72a43.2 43.2 0 009.4 6.75c2.18 1.16 4.22-.34 4.51-2.59a3.7 3.7 0 00-3.08-3.91 5 5 0 00-1.9-.12c-.32 0-.26 0 .17.06l.67.4c-.23-.24-.24-.24 0 0l-.14-.24c-.15-.32-.16-.34 0-.08-.05-.13-.1-.27-.14-.41s-.17-.55-.25-.83a11.86 11.86 0 00-.43-1.27 13.26 13.26 0 00-1.57-2.89c-1.31-1.79-3.15-3.71-5.59-3.39-3.21.43-3.67 3.9-3.36 6.53l5.59-1.52a10.47 10.47 0 00-12.35-5.07c-3.72 1-2.14 6.81 1.59 5.78zM212 778.53c-.14 0-.13-.17 0 .05s.15-.15.27.38c-.09-.4-.1.52-.09.63a13.55 13.55 0 00.33 3.17 4.39 4.39 0 004 3.5 9 9 0 003.16-.64l.76-.23c.16 0 1-.16.51-.11s.42 0 .56 0h-.19a6.06 6.06 0 00.61.16c.66.13-.34-.2 0 0 .18.11.36.2.54.32s.41.33 0 0c.16.13.3.27.45.41.76.76 1.57 1.49 2.32 2.27.3.32.6.65.87 1-.38-.49.07.12.19.32s.31.58.48.86.07.45-.09-.23c0 .15.13.3.17.46a6.32 6.32 0 01.29 1.27s-.09-1 0-.11l.06.63a7.11 7.11 0 00.85 3.13c2 3.28 7 3.7 10.34 4.2l-2.1-3.69-.9 4 2.09-2.1a1.77 1.77 0 011.32.23c1.19.86.74 3.5-1.46 3.76 1.22-.14 2.65-.82 2.89-2.2a5.18 5.18 0 00-.53-3.7l-2.59 4.52c-.39 0 .42.1.52.14-.4-.17.63.47.44.31a2.15 2.15 0 01.54 1l5.48-2.31a7.64 7.64 0 00-4.71-3.44c-.75-.25-1.52-.44-2.26-.69-.06 0-.57-.24-.32-.12s-.23-.13-.27-.16-.48-.35-.26-.16-.29-.37-.28-.35a3 3 0 00-4.24 0 3.06 3.06 0 000 4.24 9.13 9.13 0 004.62 2.6 19.47 19.47 0 012.09.66c-.54-.23.4.24.49.32-.26-.2-.27-.18 0 .06-.2-.26-.21-.24 0 .06 1.62 3 6.38 1 5.48-2.31a8 8 0 00-7.28-5.81c-2.37-.18-3.62 2.65-2.59 4.51l-.08-.93 2.9-2.2A4.13 4.13 0 00234 798a3.68 3.68 0 00-.21 3.31 4.59 4.59 0 005.33 2.69 3 3 0 002.1-2.1l.9-4c.32-1.43-.43-3.44-2.1-3.69a34.33 34.33 0 01-6-1.24l-.39-.14c-.63-.17.46.24.11.05-.2-.11-.41-.23-.62-.33-.64-.31.48.39.06 0s.32.54.05 0 .19.84.11.26a4.31 4.31 0 00-.11-.49c-.14-.4.07.9 0 .26 0-.21 0-.42-.06-.63a12.19 12.19 0 00-.64-3.22 13.56 13.56 0 00-2.81-4.39c-.65-.7-1.4-1.31-2.06-2a11 11 0 00-2.6-2.12 9.64 9.64 0 00-8.48 0c-.44.21.8.05 0 0a2.84 2.84 0 011.37.52c.42.42.42.52.26.28.45.65.13.42.08.09 0 0-.14-.7-.06-.24s0-.42 0-.53c-.09-1.58 0-3-.75-4.46a7 7 0 00-3.88-3.19 3 3 0 00-3.69 2.1 3.07 3.07 0 002.1 3.69z" fill="#dbd7c6"/><path d="M652.11 731.57c-1.61.21-3.35.39-4.43 1.78-1.35 1.76-.56 3.91 1.15 5a18.12 18.12 0 005.19 1.88l-1.33-5c-.28.29-.59.56-.89.83-.51.43.28-.18.05 0s-.28.19-.41.28a15.25 15.25 0 01-1.61.93 9.08 9.08 0 00-2.52 1.51 3.44 3.44 0 00.28 5.06 18.73 18.73 0 004.56 2.5v-5.18c-2.29 1.52-7.29 4.11-4.64 7.54a5.53 5.53 0 002.15 1.46c.18.1.36.19.53.3l.3.2c.41.26-.22-.12-.25-.2.07.19.47.43.62.59s.25.55-.07-.12a3.93 3.93 0 00.29.42 3 3 0 105.18-3 10.12 10.12 0 00-4.52-3.79c-.07 0-.15-.11-.22-.12.8.18 1.25 1.58 1.29 2.31a3 3 0 01-.36 1.34c.15-.27-.32.47-.34.44a2.23 2.23 0 01.31-.29c.45-.42-.63.45 0 0l.71-.5c.68-.47 1.37-.92 2.06-1.38a3.06 3.06 0 001.49-2.59 3 3 0 00-1.49-2.59c-1.26-.58-2.51-1.16-3.71-1.86-.55-.32.55.57.15.11-.27-.3.37.5.34.44a2.6 2.6 0 01.35 1.31 2.79 2.79 0 01-.57 1.62c-.36.47-.23.29-.13.19-.69.7-.57.41-.24.22.7-.41 1.46-.7 2.17-1.1a15.26 15.26 0 003.4-2.58 3 3 0 00-1.33-5c-1.15-.32-2.28-.68-3.41-1.07-.25-.08.77.38.18.07l-.31-.15c-.06 0-.18-.15-.25-.16.43.08.77.72.93 1.13a2.7 2.7 0 01-1 3.31c.35-.21-.81.23-.31.13.15 0 .29-.08.44-.12s1-.16.26-.06a3.27 3.27 0 002.12-.88 3 3 0 00.88-2.12c-.06-1.45-1.33-3.22-3-3zM652.43 816.08c.93.23 1.85.48 2.76.78.32.1.64.22 1 .34.54.2-.63-.29-.23-.09.13.06.25.11.37.18l.26.15c.43.24-.28-.17-.33-.28 0 .05.11.1.16.14.28.3-.51-.74-.32-.41a2.28 2.28 0 01-.29-1.55 2.83 2.83 0 01.3-.93c-.19.3.53-.56.34-.44l-.12.12c-.28.28.72-.5.41-.31l-.4.25c-.31.17-.64.32-1 .46-.66.29.79-.33.11 0l-.58.24c-.57.24-1.15.47-1.71.75a5 5 0 00-2.53 2.21 3.18 3.18 0 00-.3 2.32 3.22 3.22 0 001.37 1.79c.15.09.32.23.48.31-.57-.27-.35-.29-.1-.06 0 0 .3.26.29.3s-.49-.7-.22-.25-.16-.58-.12-.31a2.33 2.33 0 00.07.25c-.23-.55-.07-.77-.07-.37s-.18.32.06-.36c-.15.43-.22.89-.38 1.32s-.43 1.14-.62 1.72a3 3 0 002.1 3.69 3.06 3.06 0 003.69-2.09 14.52 14.52 0 001.15-4.28c0-2.26-1.48-3.92-3.3-5l1.08 4.1.08-.16c.17-.28-.65.69-.31.42l.14-.14c.24-.26-.75.51-.34.27a11.21 11.21 0 011-.55l.56-.25c.47-.21-.74.3-.38.15l.39-.16c.6-.25 1.2-.49 1.79-.76a5.62 5.62 0 002.5-2.07c1.16-1.9.1-4-1.57-5.11a10.71 10.71 0 00-2.39-1.07 33.16 33.16 0 00-3.27-1 3 3 0 00-1.59 5.79zM314.82 829.3a6.8 6.8 0 00-7 2l4.71.6c.09.71.14.87.14.48v-.51a5.47 5.47 0 00-.08-1.06 4 4 0 00-1.76-2.7 4.16 4.16 0 00-4.06-.44c-2.14.91-2.88 3.07-4.07 4.87h5.19l.21.9a3 3 0 00-2.1-3.69 10.6 10.6 0 00-7.6.77 3 3 0 00-1.23 3.75 3.05 3.05 0 003.54 1.74 5.82 5.82 0 002.8-1.51c2.18-2-.09-6-2.92-5a56.32 56.32 0 01-8.08 2.07l3.69 3.69.2-1a3 3 0 00-2.9-3.8q-3 0-6 .3l1.51 5.59a13.87 13.87 0 012.2-.64l-1.6-5.79c-.26.09-.53.15-.8.22l-.37.07c.34 0 .39-.05.16 0s-.61 0-.91 0-.9-.17-.24 0l-.73-.19c.59.17 0 0-.14-.1.29.25.32.26.08 0l.19.26c-.16-.29-.16-.25 0 .1-.07-.28-.08-.31 0-.08s0 .19 0-.13c-.26.74-.31.94-.13.6a2.07 2.07 0 01.22-.35c-.18.23-.15.22.08-.05.4-.42.83-.8 1.21-1.23a5.46 5.46 0 001.49-5 3 3 0 00-3.69-2.09 3.06 3.06 0 00-2.09 3.69 1.5 1.5 0 010-.63c.15-.34.13-.36 0-.06.19-.26.17-.26-.06 0l-.4.41a10.59 10.59 0 00-1.79 2.11 5.54 5.54 0 00.12 5.78c1.94 3 6.34 3.43 9.48 2.39 3.65-1.21 2.18-6.68-1.6-5.79a23.59 23.59 0 00-3.63 1.25c-2.72 1.16-1.34 5.84 1.52 5.59q3-.25 6-.3l-2.89-3.8-.2 1a3 3 0 003.69 3.69 55.13 55.13 0 008.09-2.06l-2.92-5c.12-.12.5-.16-.15 0l2.31 5.49a4.15 4.15 0 013-.18l-2.1-3.69a4.6 4.6 0 00.39 3.73c1.08 2.13 4 1.76 5.19 0 .44-.67.77-1.41 1.19-2.09.09-.15.19-.3.29-.45-.33.49-.05 0 .07-.06.31-.15-.44.25-.54.27a1.94 1.94 0 01-1.49-.21l-.77-1.32c-.08-.24 0-.06 0 .16v.84a4.35 4.35 0 00.68 2.22c1 1.5 3.38 2.16 4.71.61a2.53 2.53 0 01.48-.5c-.09.06-.25.12 0 0s.24-.09.62 0c3.72 1.07 5.3-4.72 1.59-5.78zM283.27 761.11a4.89 4.89 0 004.56-2.53 3 3 0 00-2.59-4.52l-5.88-.26 2.12 5.12q1.93-2.48 3.91-4.9a3.38 3.38 0 00.83-1.73 2.9 2.9 0 00-.36-1.91 3.59 3.59 0 00-1.08-1.08 3 3 0 00-2.31-.3 1.68 1.68 0 01-.32.09l.8-.11a1.81 1.81 0 01-.52 0l.79.11a2.42 2.42 0 01-.51-.14l.72.3a1.66 1.66 0 01-.43-.25l.61.47a1.45 1.45 0 01-.22-.21l.47.61a1.58 1.58 0 01-.15-.24l.31.71a.5.5 0 010-.13l.11.8a1.34 1.34 0 010-.2l-.1.8a.35.35 0 010-.14l-.3.72a1.39 1.39 0 01.11-.21l-.47.61a2.37 2.37 0 01.28-.27 3 3 0 00.88-2.13 3 3 0 00-3-3l-.8.11a3 3 0 00-1.32.77 3.78 3.78 0 00-1.31 2.88 3.84 3.84 0 001.23 2.72 4.94 4.94 0 004.78 1.13l-2.92-5c-1.32 1.62-2.63 3.26-3.91 4.91a3.75 3.75 0 00-.78 1.32 3 3 0 00.16 2 3 3 0 002.74 1.85l5.88.26-2.59-4.51a2.29 2.29 0 01-.18.29l.47-.61a1.93 1.93 0 01-.31.33l.61-.47a2.43 2.43 0 01-.49.29l.72-.3a2.12 2.12 0 01-.55.14l.8-.1a2.26 2.26 0 01-.45 0 3 3 0 00-3 3 3 3 0 00.87 2.12l.61.47a3 3 0 001.52.41z" fill="#dbd7c6"/><path d="M255.7 730.06l1.69.05-2.12-5.11c-.41.44-.09.08.33 0 .1 0 .25.07.33.11l-.72 5.48c.23-.08.45-.13.68-.2.79-.22-.33 0 .2 0h1.83l1 .09h.16a17.68 17.68 0 011.78.41c.26.08.51.18.77.27-.83-.27-.13 0 .08.06s.5.47-.15-.14q.33.32-.24-.36c.27.46.17.07-.28-1.16 0-.5.34-1.82 1-1.88-.06 0-1 .46-.14.14a15.81 15.81 0 01-2.45.66 3 3 0 00-2.1 3.69 3.07 3.07 0 003.65 2.03h.82a3.64 3.64 0 011.24.38 3.71 3.71 0 011.79 1.85l.47-3.63-1.44 1.71a3 3 0 003.63 4.72c.52-.31.05-.05-.14 0 .56-.13 0 .15 0 0s.26.29 0 0 .13.24.17.35a3 3 0 004.11 1.08 8.42 8.42 0 002.53-2.65l-5.59-1.52.12 4a3 3 0 005.89.8 1.24 1.24 0 01.4-.55l-4.41-1.79 2.07 7.18a3 3 0 005.48.71l3.4-6.13h-5.18a7.34 7.34 0 01.41 2.88 31.42 31.42 0 00.28 4.34c.25 1.53.89 3.38 2.42 4a4.06 4.06 0 002.53.07 4.18 4.18 0 00.61-.15l.25-.06a2.18 2.18 0 01-1.29-.23l-1.07-1.08-.12-.28c1 3.72 6.81 2.14 5.79-1.59a3.62 3.62 0 00-3-2.74 5 5 0 00-1.76.1l-.5.13c-.58.19-.64-.12.6.11l1.79 1.38a4.41 4.41 0 01-.37-1.46c-.07-.88-.05-1.77-.07-2.65a14.08 14.08 0 00-1.23-5.91c-1-2.06-4.15-1.86-5.18 0l-3.4 6.13 5.48.72-2.07-7.18a3 3 0 00-4.4-1.79 7.68 7.68 0 00-3.15 4.13l5.89.8-.12-4a3 3 0 00-5.59-1.51 2.36 2.36 0 01-.38.5l4.1 1.07c-1.34-3.1-5.46-4.06-8.25-2.43l3.64 4.71 1.44-1.72a3.12 3.12 0 00.47-3.63 9.85 9.85 0 00-10.62-5l1.51 5.83c2.13-.43 4.73-1.1 5.67-3.28s-.39-4.14-2.28-5.09a16 16 0 00-5.52-1.44 11.69 11.69 0 00-5.26.38 3 3 0 00-2.15 2.49 3 3 0 001.43 3 5.46 5.46 0 006.61-1 3 3 0 00-2.12-5.12l-1.69-.05c-3.86-.11-3.86 5.89 0 6z" fill="#dbd7c6"/><path d="M375.2 605.1c-7 15.16-37.12 61.92-42.35 81.17M531.23 602.24c7.51 14.89 37 61.9 44.35 74.5M644.66 742.51c7.51 14.89 14.26 68.41 13.94 81.07M290.7 749.58c-6.35 13.39-9.64 77.87-10.29 94" fill="none" stroke="#262521" stroke-linecap="round" stroke-linejoin="round" stroke-width=".75" stroke-dasharray="1 1"/><path d="M364.37 531.26h0s.01-.03 0 0z" fill="none" stroke="#262521" stroke-linecap="round" stroke-linejoin="round" stroke-width="3"/><path d="M272.53 1272.81s75.15 22.84 152.15 21.92c137.52-1.66 259.4-32.43 259.4-32.43" fill="none" stroke="#636363" stroke-linecap="round" stroke-linejoin="round"/><path d="M357.53 362s50-32 82.24-32 92.59 32 92.59 32l-6.89-33.91-86.93-42.45-74.78 47.87z" fill="#262521" stroke="#262521" stroke-linecap="round" stroke-miterlimit="10" stroke-width="3"/><path fill="#ffc802" d="M598.42 363.7l-157.49-51.69-157.03 51.33-23.75-181h347.83l-9.56 181.36z"/><path d="M340.57 343.1s4.67 22.5 13.21 18 41.16-37 82.44-38.35S520.14 358 530 358s12-15.54 12-15.54l-102.91-99.63z" fill="#383f5b" stroke="#262521" stroke-linecap="round" stroke-linejoin="round" stroke-width="3"/><path d="M340.44 342.7s4.39-57.45 19.72-81.45 44.4-33.31 74.23-33.31 51.4-1.53 78.62 27.54 29 87 29 87-83.49-83.33-201.57.22z" fill="#383f5b" stroke="#262521" stroke-linecap="round" stroke-linejoin="round" stroke-width="3"/><path d="M344.63 332.46c4.27-17.9-1.36-99.43 81.95-101.08" fill="none" stroke="#fff" stroke-linecap="round" stroke-linejoin="round" stroke-width="2" opacity=".3"/><path d="M441.26 229.63c58.74 0 88.73 36.87 96.59 99.11" fill="none" stroke="#fff" stroke-linecap="round" stroke-linejoin="round" stroke-width="2" opacity=".61"/><ellipse cx="434.76" cy="229.63" rx="10.66" ry="5.87" fill="#383f5b" stroke="#262521" stroke-linecap="round" stroke-linejoin="round" stroke-width="3"/><g opacity=".62" fill="#fff"><path d="M402.81 292.27l-.22-6.39-1.78.06-.26-7.73 7.28-.24.26 7.73-1.79.06.21 6.39 10.35-.34-.21-6.39-1.83.06-.72-21.55 1.83-.06-.21-6.39-10.35.34.21 6.39 1.79-.06.23 6.7-7.29.24-.22-6.7 1.79-.06-.21-6.39-10.31.34.21 6.4 1.75-.06.71 21.55-1.74.05.21 6.4zm-9.41-.82l-.14-4.12 1.75-.06-.79-23.82-1.75.06-.13-4.12 8.47-.28.14 4.12-1.79.06.29 8.92 9.07-.3-.29-8.92-1.79.06-.14-4.13 8.52-.28.14 4.12-1.79.06.79 23.82 1.79-.06.13 4.13-8.51.28-.14-4.13 1.79-.06-.33-10-9.07.3.33 10 1.79-.06.13 4.12zM431.25 291.33L431 285l-1.83.06-.72-21.6 1.84-.06-.22-6.39-10.3.34.21 6.39 1.79-.06.71 21.6-1.78.06.21 6.34zm-9.4-.82l-.14-4.13 1.74-.05-.78-23.82-1.75.06-.14-4.13 8.48-.28.13 4.13-1.79.06.79 23.81 1.79-.06.14 4.13zM439.68 291.05l12.57-.41 4.08-5.3-.43-13.15-9 .3.19 5.62 2.25-.07.15 4.48-1.43 1.85-4.64.16-1.55-1.76-.59-17.94 1.43-1.85 4.64-.15 1.55 1.75.13 3.92 6.73-.22-.23-6.91-4.48-5.07-12.56.42-4.09 5.3.8 24zm-3.56-5.76l-.75-22.63 3.72-4.82 11.5-.39 4.08 4.62.16 5.1-4.94.16-.11-3.5-1.91-2.16-5.79.2-1.75 2.27.64 19.39 1.9 2.15 5.79-.19 1.76-2.28-.21-6.29-2.21.08-.11-3.46 7.11-.23.37 11.34-3.76 4.87-11.45.38zM470.09 290l-.21-6.39-1.79.06-.26-7.73 7.28-.24.26 7.73-1.79.06.21 6.39 10.35-.34-.21-6.39-1.83.06-.72-21.55 1.83-.06-.21-6.4-10.35.35.22 6.39 1.78-.06.23 6.7-7.29.24-.22-6.7 1.79-.06-.21-6.39-10.31.34.22 6.39 1.74-.05.72 21.55-1.75.05.21 6.4zm-9.41-.82l-.14-4.12 1.75-.06-.79-23.82-1.74.06-.14-4.12 8.47-.29.14 4.13-1.79.06.3 8.92 9.07-.3-.3-8.92-1.79.06-.13-4.13 8.51-.28.14 4.12-1.79.06.79 23.82 1.79-.06.14 4.12-8.52.29-.14-4.13 1.79-.06-.33-10-9.07.3.33 10 1.79-.05.14 4.12z"/></g><path d="M364.37 531.26c-1 .65-100.94 62.69-145.44 89.5C174.2 647.71 192.25 945 192.25 945M729.35 918.39s-14.59-306.95-52.89-331.94c-10.88-7.1-142.29-56.21-142.29-56.21" fill="none" stroke="#262521" stroke-linecap="round" stroke-linejoin="round" stroke-width="3"/></svg>