<svg xmlns="http://www.w3.org/2000/svg" width="1250" height="1550" viewBox="0 0 1250 1550"><title>s01e04-01</title><path d="M762.91,849.63c58.38,11.42,118.48-39.89,118.48-39.89S813.16,592.1,801.46,586.45c-10.45-5.05-115.8-45.94-138.13-54.6a161.65,161.65,0,0,0-20.21-25s-10.21,26.32-42.32,40.83l-25.48,7.62-17.72-5c-32.19-14.07-52.29-43.48-52.29-43.48a150.21,150.21,0,0,0-19,26.31c-20.05,12.56-131.73,82.44-142.37,87.58-2.17,1-15.49,16.94-15.81,45.24l0,0C312.38,730.34,290,838.76,290,838.76s103.21,50.51,123.25,10.35h0l4.11,7.63-20,406s91.48,25.55,210.71,21.55S804,1247.13,804,1247.13l-42.4-410.37Z" fill="#262521" stroke="#262521" stroke-linecap="round" stroke-linejoin="round" stroke-width="3"/><path d="M397.42,1262.76s91.48,25.55,210.71,21.55S804,1247.13,804,1247.13" fill="none" stroke="#636363" stroke-linecap="round" stroke-linejoin="round"/><line x1="413.27" y1="849.11" x2="413.27" y2="849.11" fill="none" stroke="#636363" stroke-linecap="round" stroke-linejoin="round"/><path d="M754.32,807c3.47,24.84,6.44,21.89,8.59,42.64" fill="none" stroke="#262521" stroke-linecap="round" stroke-miterlimit="10" stroke-width="3"/><polygon points="641.53 654.99 685.3 656.76 651.45 629.16 663.42 670.9 678.1 630.12 641.53 654.99" fill="#fff" stroke="#fff" stroke-linecap="round" stroke-linejoin="round" stroke-width="3"/><polygon points="675.44 580.27 719.21 578.5 685.36 606.1 697.32 564.36 712.01 605.14 675.44 580.27" fill="#fff" stroke="#fff" stroke-linecap="round" stroke-linejoin="round" stroke-width="3"/><polyline points="558.39 568.4 558.39 693.17 588.36 693.17" fill="none" stroke="#636363" stroke-linecap="round" stroke-linejoin="round"/><circle cx="576.22" cy="587.78" r="6.96" fill="#636363"/><circle cx="576.22" cy="627.76" r="6.96" fill="#636363"/><circle cx="576.22" cy="667.74" r="6.96" fill="#636363"/><polygon points="432.01 578.85 475.78 577.08 441.93 604.68 453.89 562.94 468.58 603.73 432.01 578.85" fill="#fff" stroke="#fff" stroke-linecap="round" stroke-linejoin="round" stroke-width="3"/><polygon points="465.86 654.99 509.64 656.76 475.79 629.16 487.75 670.9 502.43 630.12 465.86 654.99" fill="#fff" stroke="#fff" stroke-linecap="round" stroke-linejoin="round" stroke-width="3"/><path d="M572.13,555.32l-69,61.9s-27.26-64-18.66-80.69" fill="none" stroke="#636363" stroke-linecap="round" stroke-linejoin="round"/><path d="M575.32,555.32l69.95,61.9s30.78-61.58,22.18-78.24" fill="none" stroke="#636363" stroke-linecap="round" stroke-linejoin="round"/><line x1="761.58" y1="836.76" x2="771.75" y2="808.27" fill="none" stroke="#636363" stroke-linecap="round" stroke-linejoin="round"/><path d="M366,696.25s12.17,87.67,26.55,114.4l24.8,46.09" fill="none" stroke="#636363" stroke-linecap="round" stroke-linejoin="round"/><path d="M767,700.68S750.86,782.15,754.32,807s6.44,21.89,8.59,42.64" fill="none" stroke="#636363" stroke-linecap="round" stroke-linejoin="round"/></svg>