<svg xmlns="http://www.w3.org/2000/svg" width="1250" height="1550" viewBox="0 0 1250 1550"><title>s01e01-04</title><rect x="388.35" y="133.02" width="347.83" height="191.68" fill="#ffc802"/><path d="M489.67,531.26l0,0S489.68,531.23,489.67,531.26Z" fill="#fff"/><path d="M763.21,849.63c58.38,11.42,118.48-39.89,118.48-39.89S813.46,592.1,801.76,586.45s-142.29-56.21-142.29-56.21-2.49,55-82.84,55c-65.08,0-82.1-39.23-86.21-51.38a10.79,10.79,0,0,1-.75-2.59c-1.05.66-133.79,83.87-145.44,89.5-2.17,1-15.49,16.94-15.81,45.24l0,0c-15.72,64.39-38.08,172.8-38.08,172.8s103.21,50.51,123.26,10.35h0l4.1,7.63-20,406s91.48,25.55,210.72,21.55,195.84-37.18,195.84-37.18l-41.07-397.5Z" fill="#fff"/><path d="M328.1,666C312.38,730.34,290,838.76,290,838.76s103.21,50.51,123.25,10.35" fill="none" stroke="#262521" stroke-linecap="round" stroke-miterlimit="10" stroke-width="3"/><path d="M762.91,849.63c58.38,11.42,118.48-39.89,118.48-39.89S813.16,592.1,801.46,586.45s-142.29-56.21-142.29-56.21-2.49,55-82.84,55c-65.08,0-82.1-39.23-86.21-51.38-1-2.85-.73-2.61-.73-2.61s-133.76,83.87-145.46,89.52c-2.81,1.36-24.27,27.5-12.15,73.24" fill="none" stroke="#262521" stroke-linecap="round" stroke-linejoin="round" stroke-width="3"/><path d="M366,696.25s12.17,87.67,26.55,114.4l24.8,46.09-20,406s91.48,25.55,210.71,21.55S804,1247.13,804,1247.13l-42.4-410.37,10.17-28.49" fill="none" stroke="#262521" stroke-linecap="round" stroke-miterlimit="10" stroke-width="3"/><path d="M767,700.68S750.86,782.15,754.32,807s6.44,21.89,8.59,42.64" fill="none" stroke="#262521" stroke-linecap="round" stroke-miterlimit="10" stroke-width="3"/><path d="M813.88,647.07s6.82-23.29-2.08-41.13" fill="none" stroke="#262521" stroke-linecap="round" stroke-miterlimit="10" stroke-width="3"/><path d="M466,320.72s1.9,38.95,6.56,37.44,69.05-45.38,195.31-9.5c0,0,6.39-29.19,6.39-34.83S543.72,261.87,466,320.72Z" fill="#262521" stroke="#262521" stroke-linecap="round" stroke-linejoin="round" stroke-width="3"/><path d="M471.3,328.6s-9.19-59.3,22.2-82.07,29.4-85.74,69.93-85.74S613,235.9,631.14,242.72c30.22,11.39,37.48,56.28,35,74.13" fill="#262521" stroke="#262521" stroke-linecap="round" stroke-linejoin="round" stroke-width="3"/><path d="M401.32,1069.37c2.6-12,4.6-25.5,7.12-30.88,1.79-36.42,8.94-181.75,8.94-181.75l-4.11-7.63c-20.13,32-85.17,5-85.17,5l.24,27.76C426.92,854.13,401.21,1067.19,401.32,1069.37Z" fill="#262521"/><path d="M839.76,855.59l-2.3-18.17c-35.9,20.67-74.55,12.21-74.55,12.21s12,143.46,18.39,179.36a73.22,73.22,0,0,1,4.91,9.78C785.2,1027.91,763.77,859.79,839.76,855.59Z" fill="#262521"/></svg>