<svg xmlns="http://www.w3.org/2000/svg" width="1250" height="1550" viewBox="0 0 1250 1550"><defs><clipPath id="a"><path fill="none" d="M0 0h6.67v4.01H0z"/></clipPath><pattern id="b" width="6.67" height="4.01" patternTransform="matrix(3.28 0 0 3.28 10.02 -9.56)" patternUnits="userSpaceOnUse" viewBox="0 0 6.67 4.01"><path fill="none" d="M0 0h6.67v4.01H0z"/><g clip-path="url(#a)"><path fill="#262521" d="M0 0h6.67v4.01H0z"/><path fill="none" stroke="#636363" stroke-linecap="round" stroke-linejoin="round" stroke-width=".6" d="M1.62 1.16l3.43 1.69M4.95 1.16l3.43 1.69M-1.72 1.16l3.44 1.69"/></g></pattern></defs><path fill="#262521" d="M420.16 1376.57h385.21v201.81H420.16z"/><path d="M404.44 1264.52s61.79 24.3 203.69 19.79S801 1248.13 801 1248.13l20.1 342.24-158.7-1.85-28.9-196.61-25.5 8.68-8.84 196.24-153.94-.22z" fill="#262521" stroke="#636363" stroke-linecap="round" stroke-linejoin="round"/><path d="M773.9 576.67l-124.34-50.1s-7.62 55.38-75 58.47-73.43-58.47-73.43-58.47L396.73 617l13.92 664.55s100.87 16.51 214.68 12 180.87-13.75 180.87-13.75z" fill="#fff" stroke="#262521" stroke-linecap="round" stroke-miterlimit="10" stroke-width="3"/><path d="M526.67 767.51c-31.7-167-14-237.51-17.83-248.78-.7-2.07-120.46 75.14-164.91 102C288.65 654.21 317.25 945 317.25 945s-27.67 203.28-2.29 287.31c2.36 15.93 3 28 6.43 41.4l64-1.5s-4.07-29.79-3.12-42.46c12.87-27.53 13.71-91.47 23.54-122.42 6-18.8 10.39-47.35 12.93-66.86a163.78 163.78 0 01-1.32 19.9c-3.73 22.75-25 83.8-14.05 144.17-3 26.45-.92 365.29-.92 365.29s132.52-13.35 158.14-189.07c15.17-104.26-2.49-447.64-33.92-613.25zM860.35 918.39s-1.41-298-58.89-331.94c-11.18-6.61-158.6-67.76-158.6-67.76s8.2 105.2-4.85 267.77c-13 162 .43 251.7 31.16 482.47S836 1582 836 1582s-25.88-356.76-29.78-388.06c3.94-36.14-5.66-81.16-16.45-126.52 13.83 47.61 27 143 37.17 152.17 1.64 26.39 1.89 36.36 1.89 36.36l64.1-1.5s-1-14.31-2.61-35.73c25.61-83.17-29.97-300.33-29.97-300.33z" fill="#262521"/><g opacity=".4" fill="url(#b)"><path d="M499.31 769.22c-31.7-167-11.63-224.61-15.45-235.87-.7-2.07-95.48 60.52-139.93 87.41C288.65 654.21 317.25 945 317.25 945s-27.67 203.28-2.29 287.31c2.36 15.93 3 28 6.43 41.4l64-1.5s-4.07-29.79-3.12-42.46c12.87-27.53 13.71-91.47 23.54-122.42 6-18.8 10.39-47.35 12.93-66.86a163.78 163.78 0 01-1.32 19.9c-3.73 22.75-25 83.8-14.05 144.17-3 26.45-.92 340.87-.92 340.87s113.84-10.8 134.87-164.65c14.24-104.39-6.58-445.93-38.01-611.54zM860.35 918.39s-1.41-298-58.89-331.94c-11.18-6.61-133.65-57.37-133.65-57.37s8.71 99.42-4.34 262c-13 162-5 239.85 27.37 470.39C722.13 1484.33 832.36 1540 832.36 1540s-22.26-314.77-26.16-346.07c3.94-36.14-5.66-81.16-16.45-126.52 13.83 47.61 27 143 37.17 152.17 1.64 26.39 1.89 36.36 1.89 36.36l64.1-1.5s-1-14.31-2.61-35.73c25.63-83.16-29.95-300.32-29.95-300.32z"/></g><path d="M402.41 1569.87s132.52-13.35 158.14-189.07c3-20.61 4.73-50.56 5.31-86.63" fill="none" stroke="#636363" stroke-linecap="round" stroke-linejoin="round"/><path d="M406.14 1545.45s111.66-23.71 129.43-150c14.69-104.38-2.45-447.68-33.88-613.29-31.7-167-14-237.52-17.83-248.78M669.17 1268.93q1.44 10.82 3.18 21.2C708.26 1504.76 836 1582 836 1582" fill="none" stroke="#636363" stroke-linecap="round" stroke-linejoin="round"/><path d="M667.68 531.44s8.2 105.19-4.85 267.76c-13 162-4.85 252.47 31.16 482.47 30.72 196.25 135.3 256.81 135.3 256.81" fill="none" stroke="#636363" stroke-linecap="round" stroke-linejoin="round"/><circle cx="541.9" cy="991.58" r="8.29" fill="#cec8b2"/><circle cx="548.69" cy="1085.5" r="8.29" fill="#cec8b2"/><circle cx="552.97" cy="1307.42" r="8.29" fill="#cec8b2"/><circle cx="552.97" cy="1190.06" r="8.29" fill="#cec8b2"/><path d="M526.67 767.51c-31.7-167-14-237.51-17.83-248.78-.7-2.07-120.46 75.14-164.91 102C288.65 654.21 317.25 945 317.25 945s-27.67 203.28-2.29 287.31c2.36 15.93 3 28 6.43 41.4l64-1.5s-4.07-29.79-3.12-42.46c12.87-27.53 13.71-91.47 23.54-122.42 6-18.8 10.39-47.35 12.93-66.86a163.78 163.78 0 01-1.32 19.9c-3.73 22.75-25 83.8-14.05 144.17-3 26.45-.92 365.29-.92 365.29s132.52-13.35 158.14-189.07c15.17-104.26-2.49-447.64-33.92-613.25z" fill="none" stroke="#262521" stroke-linecap="round" stroke-linejoin="round" stroke-width="3"/><path d="M402.41 1569.87s132.52-13.35 158.14-189.07a630.34 630.34 0 007.31-84.63" fill="none" stroke="#636363" stroke-linecap="round" stroke-linejoin="round"/><path d="M860.35 918.39s-1.41-298-58.89-331.94c-11.18-6.61-158.6-67.76-158.6-67.76s8.2 105.2-4.85 267.77c-13 162 .43 251.7 31.16 482.47S836 1582 836 1582s-25.88-356.76-29.78-388.06c3.94-36.14-5.66-81.16-16.45-126.52 13.83 47.61 27 143 37.17 152.17 1.64 26.39 1.89 36.36 1.89 36.36l64.1-1.5s-1-14.31-2.61-35.73c25.61-83.17-29.97-300.33-29.97-300.33z" fill="none" stroke="#262521" stroke-linecap="round" stroke-linejoin="round" stroke-width="3"/><path d="M670.35 1292.13C706.26 1506.76 836 1582 836 1582" fill="none" stroke="#636363" stroke-linecap="round" stroke-linejoin="round"/></svg>