<svg xmlns="http://www.w3.org/2000/svg" width="1250" height="1550" viewBox="0 0 1250 1550"><title>s01e01-03</title><path d="M501.08,526.57s6,61.57,73.43,58.47,75-58.47,75-58.47l124.34,50.1L584.59,745.84,396.73,617Z" fill="#bababa" stroke="#262521" stroke-linecap="round" stroke-linejoin="round" stroke-width="3"/><path d="M498.79,529s12.74,107.09,76.95,107.09S650.6,528.53,650.6,528.53" fill="none" stroke="#262521" stroke-linecap="round" stroke-linejoin="round" stroke-width="8.27" stroke-dasharray="1.65 4.96"/><path d="M502.8,545.93a1.65,1.65,0,0,1-1.61-1.31l-.35-1.64a1.66,1.66,0,0,1,1.29-2,1.64,1.64,0,0,1,1.95,1.29l.34,1.61a1.65,1.65,0,0,1-1.27,2A2.09,2.09,0,0,1,502.8,545.93Zm71.58,90.3a1.66,1.66,0,0,1,0-3.31c.53,0,1.06,0,1.6,0a1.66,1.66,0,0,1,.15,3.31l-1.71.05Zm-5-.2h-.15c-.57,0-1.14-.11-1.7-.19a1.64,1.64,0,0,1-1.43-1.85,1.66,1.66,0,0,1,1.85-1.43c.52.07,1,.13,1.58.18a1.65,1.65,0,0,1-.15,3.3Zm11.54-.3a1.65,1.65,0,0,1-.22-3.29l1.59-.24a1.66,1.66,0,0,1,.53,3.27l-1.68.25Zm-18-.77a1.81,1.81,0,0,1-.39-.05l-1.65-.43a1.66,1.66,0,0,1,.89-3.19c.51.14,1,.28,1.54.4a1.66,1.66,0,0,1-.39,3.27Zm24.51-.49a1.65,1.65,0,0,1-.41-3.25l1.55-.42a1.65,1.65,0,1,1,.91,3.18l-1.63.44A1.51,1.51,0,0,1,587.44,634.47ZM556.66,633a1.67,1.67,0,0,1-.62-.12c-.53-.21-1-.43-1.57-.66a1.65,1.65,0,0,1,1.33-3c.49.22,1,.42,1.47.62a1.65,1.65,0,0,1-.61,3.19Zm37.06-.49a1.66,1.66,0,0,1-.59-3.2c.5-.19,1-.39,1.48-.6a1.66,1.66,0,1,1,1.29,3.05l-1.58.64A1.56,1.56,0,0,1,593.72,632.46Zm-43-2.37a1.66,1.66,0,0,1-.81-.21q-.75-.42-1.47-.87a1.65,1.65,0,0,1,1.72-2.82l1.38.81a1.65,1.65,0,0,1-.82,3.09Zm-19.47-17.62a1.67,1.67,0,0,1-1.32-.64c-.34-.45-.68-.89-1-1.34a1.65,1.65,0,1,1,2.65-2l1,1.3a1.65,1.65,0,0,1-1.3,2.66Zm-3.86-5.37a1.66,1.66,0,0,1-1.38-.74c-.31-.46-.62-.93-.92-1.4a1.65,1.65,0,1,1,2.77-1.8l.9,1.36a1.66,1.66,0,0,1-.45,2.3A1.68,1.68,0,0,1,527.4,607.1Zm100-5.07a1.59,1.59,0,0,1-.86-.25,1.64,1.64,0,0,1-.55-2.27l.84-1.4a1.65,1.65,0,1,1,2.84,1.69c-.28.48-.57,1-.86,1.43A1.66,1.66,0,0,1,627.44,602Zm-103.56-.54a1.64,1.64,0,0,1-1.43-.82l-.84-1.44a1.66,1.66,0,0,1,2.87-1.65l.82,1.42a1.65,1.65,0,0,1-.59,2.26A1.58,1.58,0,0,1,523.88,601.49Zm106.85-5.21a1.71,1.71,0,0,1-.78-.2,1.65,1.65,0,0,1-.67-2.24l.77-1.45a1.65,1.65,0,0,1,2.93,1.53l-.79,1.49A1.67,1.67,0,0,1,630.73,596.28Zm-110.07-.58a1.66,1.66,0,0,1-1.47-.88l-.77-1.49a1.65,1.65,0,1,1,3-1.5l.75,1.45a1.65,1.65,0,0,1-1.46,2.42Zm113.06-5.34a1.63,1.63,0,0,1-.71-.16,1.66,1.66,0,0,1-.79-2.2l.7-1.49a1.65,1.65,0,1,1,3,1.39l-.71,1.51A1.64,1.64,0,0,1,633.72,590.36Zm-116-.59a1.65,1.65,0,0,1-1.5-.95c-.24-.51-.47-1-.7-1.52a1.65,1.65,0,1,1,3-1.38l.69,1.49a1.65,1.65,0,0,1-.79,2.2A1.59,1.59,0,0,1,517.71,589.77Zm118.7-5.46a1.58,1.58,0,0,1-.63-.13,1.65,1.65,0,0,1-.89-2.16l.63-1.52a1.65,1.65,0,1,1,3.06,1.25l-.64,1.54A1.66,1.66,0,0,1,636.41,584.31ZM515,583.73a1.66,1.66,0,0,1-1.53-1l-.64-1.54a1.65,1.65,0,0,1,.9-2.16,1.67,1.67,0,0,1,2.16.9l.63,1.51a1.67,1.67,0,0,1-1.52,2.3Zm123.84-5.58a1.7,1.7,0,0,1-.58-.11,1.64,1.64,0,0,1-1-2.12c.19-.52.38-1,.56-1.54A1.66,1.66,0,1,1,641,575.5l-.58,1.57A1.65,1.65,0,0,1,638.85,578.15Zm-126.32-.56a1.66,1.66,0,0,1-1.55-1.06l-.59-1.56a1.65,1.65,0,1,1,3.1-1.16l.58,1.53a1.66,1.66,0,0,1-1,2.14A1.58,1.58,0,0,1,512.53,577.59Zm128.52-5.69a1.54,1.54,0,0,1-.52-.09,1.65,1.65,0,0,1-1-2.09c.17-.52.34-1,.5-1.55a1.66,1.66,0,1,1,3.16,1c-.17.53-.35,1.06-.52,1.6A1.66,1.66,0,0,1,641.05,571.9Zm-130.8-.53a1.66,1.66,0,0,1-1.57-1.11l-.54-1.57a1.65,1.65,0,0,1,3.13-1.07l.54,1.55a1.66,1.66,0,0,1-1,2.11A1.7,1.7,0,0,1,510.25,571.37ZM643,565.57a1.58,1.58,0,0,1-.47-.07,1.66,1.66,0,0,1-1.12-2l.46-1.57a1.65,1.65,0,0,1,3.18.9l-.46,1.6A1.66,1.66,0,0,1,643,565.57Zm-134.87-.49a1.65,1.65,0,0,1-1.58-1.15l-.5-1.59a1.65,1.65,0,0,1,3.16-1l.49,1.57a1.65,1.65,0,0,1-1.07,2.08A1.77,1.77,0,0,1,508.15,565.08Zm136.64-5.89a1.52,1.52,0,0,1-.42-.06,1.65,1.65,0,0,1-1.18-2c.14-.53.27-1.06.4-1.58a1.65,1.65,0,1,1,3.21.8c-.13.53-.27,1.07-.41,1.62A1.67,1.67,0,0,1,644.79,559.19Zm-138.57-.45a1.64,1.64,0,0,1-1.58-1.19l-.46-1.61a1.65,1.65,0,1,1,3.18-.89l.45,1.58a1.66,1.66,0,0,1-1.13,2A1.76,1.76,0,0,1,506.22,558.74Zm140.14-6a1.61,1.61,0,0,1-.37,0,1.65,1.65,0,0,1-1.24-2l.36-1.6a1.65,1.65,0,0,1,3.23.71l-.37,1.63A1.65,1.65,0,0,1,646.36,552.74Zm-141.9-.39a1.66,1.66,0,0,1-1.6-1.23l-.42-1.62a1.66,1.66,0,0,1,3.21-.82l.41,1.59a1.65,1.65,0,0,1-1.18,2A1.52,1.52,0,0,1,504.46,552.35Zm143.29-6.09-.33,0a1.65,1.65,0,0,1-1.3-2l.32-1.61a1.65,1.65,0,1,1,3.25.62l-.32,1.64A1.66,1.66,0,0,1,647.75,546.26Zm1.19-6.53-.28,0a1.66,1.66,0,0,1-1.35-1.91c.09-.56.18-1.09.27-1.62a1.65,1.65,0,0,1,3.26.52q-.12.81-.27,1.65A1.66,1.66,0,0,1,648.94,539.73Zm-147.54-.29a1.64,1.64,0,0,1-1.61-1.31l-.35-1.63a1.67,1.67,0,0,1,1.29-2,1.65,1.65,0,0,1,1.95,1.29l.34,1.61a1.65,1.65,0,0,1-1.27,2A1.39,1.39,0,0,1,501.4,539.44ZM650,533.17l-.23,0a1.66,1.66,0,0,1-1.42-1.86c.08-.59.16-1.13.22-1.63a1.65,1.65,0,1,1,3.28.41c-.06.51-.14,1.07-.22,1.66A1.66,1.66,0,0,1,650,533.17Zm-149.85-.24a1.67,1.67,0,0,1-1.63-1.36l-.29-1.64a1.65,1.65,0,1,1,3.25-.58l.3,1.62a1.66,1.66,0,0,1-1.33,1.93Z" fill="#b7b6b0"/><path d="M576,638.78h0c-.58,0-1.14,0-1.71,0a1.65,1.65,0,0,1,.14-3.3l1.6,0a1.65,1.65,0,0,1,0,3.3Zm4.94-.17a1.65,1.65,0,0,1-.13-3.3q.81-.06,1.59-.15a1.64,1.64,0,0,1,1.83,1.46,1.66,1.66,0,0,1-1.46,1.83l-1.69.16Zm-11.54-.29-.22,0c-.56-.07-1.13-.16-1.68-.25a1.65,1.65,0,1,1,.54-3.26l1.58.23a1.66,1.66,0,0,1-.22,3.3Zm18.07-.64a1.66,1.66,0,0,1-.33-3.28c.52-.1,1-.22,1.56-.35a1.66,1.66,0,1,1,.78,3.22c-.55.13-1.11.26-1.67.37A1.27,1.27,0,0,1,587.45,637.68ZM562.91,637a2,2,0,0,1-.43,0l-1.64-.47a1.65,1.65,0,1,1,.95-3.17c.51.16,1,.3,1.54.44a1.65,1.65,0,0,1-.42,3.25Zm30.91-1.12a1.66,1.66,0,0,1-.55-3.22c.5-.17,1-.36,1.5-.55a1.66,1.66,0,0,1,1.19,3.09l-1.6.59A1.7,1.7,0,0,1,593.82,635.91Zm-37.17-1a1.76,1.76,0,0,1-.63-.12l-1.57-.67a1.66,1.66,0,0,1,1.35-3l1.47.63a1.66,1.66,0,0,1-.62,3.19Zm43.25-1.6a1.65,1.65,0,0,1-.74-3.13c.48-.24,1-.49,1.42-.74a1.66,1.66,0,0,1,1.58,2.91c-.5.27-1,.53-1.52.79A1.63,1.63,0,0,1,599.9,633.33Zm-49.21-1.27a1.65,1.65,0,0,1-.8-.21l-1.47-.84a1.66,1.66,0,0,1,1.69-2.85c.46.28.93.54,1.39.8a1.65,1.65,0,0,1-.81,3.1Zm-5.58-3.53a1.64,1.64,0,0,1-1-.31l-1.37-1a1.65,1.65,0,0,1,2-2.64l1.31,1a1.66,1.66,0,0,1-1,3Zm79.2-17a1.66,1.66,0,0,1-1.34-2.63c.32-.44.63-.88.94-1.33a1.65,1.65,0,1,1,2.71,1.9l-1,1.37A1.65,1.65,0,0,1,624.31,611.48Zm-97.59-1.84a1.65,1.65,0,0,1-1.35-.69c-.33-.45-.65-.91-1-1.37a1.66,1.66,0,1,1,2.72-1.89c.31.44.62.89.94,1.33a1.66,1.66,0,0,1-.38,2.31A1.64,1.64,0,0,1,526.72,609.64ZM628,606a1.61,1.61,0,0,1-.88-.26,1.65,1.65,0,0,1-.52-2.27l.86-1.39a1.65,1.65,0,0,1,2.82,1.72c-.29.48-.58,1-.88,1.42A1.65,1.65,0,0,1,628,606Zm-105-1.84a1.66,1.66,0,0,1-1.4-.77c-.3-.48-.6-1-.89-1.43a1.65,1.65,0,1,1,2.81-1.73l.87,1.39a1.65,1.65,0,0,1-.51,2.28A1.69,1.69,0,0,1,523,604.15Zm108.35-3.87a1.64,1.64,0,0,1-1.44-2.45c.26-.48.53-1,.78-1.44a1.66,1.66,0,0,1,2.92,1.57l-.81,1.47A1.63,1.63,0,0,1,631.36,600.28ZM519.6,598.45a1.67,1.67,0,0,1-1.45-.84l-.81-1.47a1.65,1.65,0,0,1,2.9-1.59L521,596a1.66,1.66,0,0,1-.62,2.26A1.72,1.72,0,0,1,519.6,598.45Zm114.84-4.05a1.7,1.7,0,0,1-.73-.17A1.66,1.66,0,0,1,633,592c.24-.48.48-1,.72-1.47a1.65,1.65,0,1,1,3,1.43c-.24.5-.48,1-.73,1.5A1.65,1.65,0,0,1,634.44,594.4Zm-118-1.79a1.65,1.65,0,0,1-1.47-.9l-.75-1.5a1.65,1.65,0,1,1,3-1.46l.74,1.46a1.66,1.66,0,0,1-1.48,2.4Zm120.77-4.22a1.79,1.79,0,0,1-.67-.14,1.66,1.66,0,0,1-.84-2.18c.22-.5.43-1,.65-1.51a1.65,1.65,0,0,1,3,1.3c-.22.51-.44,1-.67,1.54A1.65,1.65,0,0,1,637.23,588.39Zm-123.65-1.75a1.65,1.65,0,0,1-1.5-1c-.23-.51-.47-1-.69-1.52a1.65,1.65,0,1,1,3-1.35c.22.49.45,1,.67,1.49a1.64,1.64,0,0,1-.81,2.19A1.54,1.54,0,0,1,513.58,586.64Zm126.19-4.37a1.61,1.61,0,0,1-.6-.12,1.66,1.66,0,0,1-.93-2.15c.2-.51.4-1,.59-1.52a1.65,1.65,0,1,1,3.09,1.18c-.2.52-.4,1-.61,1.56A1.65,1.65,0,0,1,639.77,582.27Zm-128.84-1.7a1.66,1.66,0,0,1-1.53-1c-.21-.51-.43-1-.64-1.55a1.66,1.66,0,0,1,3.07-1.24c.2.51.41,1,.62,1.52a1.64,1.64,0,0,1-.89,2.16A1.58,1.58,0,0,1,510.93,580.57Zm131.16-4.52a1.81,1.81,0,0,1-.55-.09,1.66,1.66,0,0,1-1-2.11l.55-1.55a1.65,1.65,0,1,1,3.12,1.07l-.55,1.58A1.64,1.64,0,0,1,642.09,576.05Zm-133.61-1.64a1.64,1.64,0,0,1-1.54-1.07l-.59-1.57a1.66,1.66,0,0,1,3.11-1.14l.57,1.54a1.66,1.66,0,0,1-1,2.13A1.76,1.76,0,0,1,508.48,574.41Zm135.72-4.64a1.8,1.8,0,0,1-.5-.08,1.65,1.65,0,0,1-1.07-2.08l.49-1.57a1.65,1.65,0,0,1,3.16,1l-.5,1.59A1.66,1.66,0,0,1,644.2,569.77Zm-138-1.6a1.66,1.66,0,0,1-1.56-1.12l-.54-1.58a1.66,1.66,0,0,1,3.14-1.05l.53,1.56a1.66,1.66,0,0,1-1,2.1A1.7,1.7,0,0,1,506.23,568.17Zm139.89-4.75a1.51,1.51,0,0,1-.46-.07,1.65,1.65,0,0,1-1.13-2c.15-.53.3-1.06.44-1.58a1.67,1.67,0,0,1,2-1.16,1.65,1.65,0,0,1,1.15,2l-.45,1.62A1.67,1.67,0,0,1,646.12,563.42Zm-141.95-1.55a1.65,1.65,0,0,1-1.58-1.16l-.49-1.6a1.65,1.65,0,1,1,3.16-1l.48,1.57a1.64,1.64,0,0,1-1.08,2.07A1.67,1.67,0,0,1,504.17,561.87ZM647.85,557a1.44,1.44,0,0,1-.41,0,1.65,1.65,0,0,1-1.19-2l.4-1.6a1.65,1.65,0,1,1,3.21.8l-.41,1.62A1.64,1.64,0,0,1,647.85,557Zm-145.58-1.5a1.65,1.65,0,0,1-1.59-1.2l-.45-1.61a1.65,1.65,0,1,1,3.18-.88l.45,1.58a1.66,1.66,0,0,1-1.14,2.05A1.74,1.74,0,0,1,502.27,555.51Zm147.14-5a1.5,1.5,0,0,1-.37,0,1.66,1.66,0,0,1-1.25-2l.36-1.6a1.65,1.65,0,1,1,3.23.7l-.36,1.63A1.66,1.66,0,0,1,649.41,550.56Zm-148.87-1.45a1.65,1.65,0,0,1-1.6-1.25l-.41-1.61a1.65,1.65,0,0,1,1.2-2,1.67,1.67,0,0,1,2,1.2l.4,1.6a1.65,1.65,0,0,1-1.19,2A1.51,1.51,0,0,1,500.54,549.11Zm150.25-5-.33,0a1.67,1.67,0,0,1-1.3-1.95l.32-1.61a1.65,1.65,0,0,1,3.25.61l-.32,1.64A1.66,1.66,0,0,1,650.79,544.07ZM499,542.66a1.66,1.66,0,0,1-1.61-1.29l-.37-1.63a1.65,1.65,0,0,1,3.23-.71l.37,1.6a1.66,1.66,0,0,1-1.25,2A1.57,1.57,0,0,1,499,542.66Zm153-5.12-.27,0a1.65,1.65,0,0,1-1.36-1.9l.27-1.63a1.65,1.65,0,1,1,3.26.52l-.27,1.66A1.65,1.65,0,0,1,652,537.54Zm-154.42-1.38a1.66,1.66,0,0,1-1.62-1.32c-.11-.58-.22-1.13-.32-1.65a1.65,1.65,0,0,1,3.25-.62c.1.51.2,1,.32,1.61a1.65,1.65,0,0,1-1.29,2Z" fill="#7f7e78"/><path d="M599.72,629.71a1.65,1.65,0,0,1-.77-3.11c.47-.26.94-.51,1.4-.78a1.66,1.66,0,0,1,1.65,2.87l-1.5.83A1.66,1.66,0,0,1,599.72,629.71Zm-54.51-3.23a1.67,1.67,0,0,1-1-.32l-1.35-1a1.66,1.66,0,0,1,2-2.6c.42.33.85.65,1.28,1a1.65,1.65,0,0,1-1,3Zm60.17-.21a1.65,1.65,0,0,1-.94-3l1.31-.93a1.65,1.65,0,1,1,2,2.67c-.46.34-.92.66-1.39,1A1.6,1.6,0,0,1,605.38,626.27Zm-65.25-4a1.6,1.6,0,0,1-1.12-.44c-.42-.38-.83-.77-1.23-1.16a1.65,1.65,0,0,1,0-2.34,1.67,1.67,0,0,1,2.34,0c.38.38.78.75,1.17,1.11a1.66,1.66,0,0,1-1.12,2.87Zm70.48,0a1.63,1.63,0,0,1-1.26-.58,1.66,1.66,0,0,1,.18-2.33l1.21-1.06a1.65,1.65,0,1,1,2.21,2.46c-.42.38-.84.75-1.27,1.11A1.62,1.62,0,0,1,610.61,622.25Zm4.8-4.51a1.66,1.66,0,0,1-1.18-2.81l1.11-1.17a1.65,1.65,0,1,1,2.42,2.25l-1.16,1.23A1.68,1.68,0,0,1,615.41,617.74Zm-79.92-.18a1.66,1.66,0,0,1-1.23-.55l-1.12-1.26a1.66,1.66,0,1,1,2.5-2.17c.36.41.71.82,1.08,1.22a1.65,1.65,0,0,1-.13,2.33A1.61,1.61,0,0,1,535.49,617.56Zm84.32-4.76a1.64,1.64,0,0,1-1.27-2.7l1-1.26a1.66,1.66,0,0,1,2.6,2c-.35.44-.7.88-1.06,1.31A1.64,1.64,0,0,1,619.81,612.8Zm4-5.25a1.65,1.65,0,0,1-1.35-2.61c.31-.44.62-.88.92-1.33a1.66,1.66,0,0,1,2.74,1.86l-1,1.38A1.63,1.63,0,0,1,623.81,607.55Z" fill="#f4f4f4"/><path d="M605.62,630a1.65,1.65,0,0,1-.92-3l1.32-.9a1.65,1.65,0,1,1,1.91,2.7c-.46.33-.93.64-1.4,1A1.69,1.69,0,0,1,605.62,630Zm5.3-3.94a1.68,1.68,0,0,1-1.28-.6,1.65,1.65,0,0,1,.22-2.33l1.22-1a1.65,1.65,0,1,1,2.18,2.48c-.42.37-.85.74-1.29,1.1A1.63,1.63,0,0,1,610.92,626.08Zm-71-1.67a1.67,1.67,0,0,1-1.09-.4l-1.26-1.14a1.65,1.65,0,0,1,2.23-2.43l1.2,1.07a1.65,1.65,0,0,1-1.08,2.9Zm75.86-2.81a1.65,1.65,0,0,1-1.17-2.81c.38-.39.75-.77,1.12-1.17a1.66,1.66,0,0,1,2.4,2.28c-.39.41-.78.82-1.17,1.21A1.65,1.65,0,0,1,615.79,621.6Zm-80.65-1.76a1.65,1.65,0,0,1-1.19-.51l-1.16-1.23a1.66,1.66,0,0,1,2.44-2.24c.36.4.74.79,1.11,1.18a1.66,1.66,0,0,1-.05,2.34A1.63,1.63,0,0,1,535.14,619.84Zm85.11-3.13a1.64,1.64,0,0,1-1.06-.39A1.66,1.66,0,0,1,619,614c.35-.41.69-.83,1-1.25a1.65,1.65,0,1,1,2.58,2.07c-.35.44-.71.87-1.07,1.31A1.66,1.66,0,0,1,620.25,616.71Zm-89.5-1.82a1.68,1.68,0,0,1-1.28-.6L528.41,613a1.65,1.65,0,1,1,2.59-2.06l1,1.26a1.65,1.65,0,0,1-.23,2.33A1.67,1.67,0,0,1,530.75,614.89Z" fill="#f4f4f4"/><path d="M653,531h-.21a1.66,1.66,0,0,1-1.43-1.86l.1-.78a1.63,1.63,0,0,1,1.82-1.46,1.65,1.65,0,0,1,1.47,1.82s0,.29-.11.85A1.66,1.66,0,0,1,653,531Z" fill="#f4f4f4"/><path d="M800.54,1223.65l5.66,56.15s-67.06,9.28-180.87,13.77-226.51-13.77-226.51-13.77l4.64-34.94Z" fill="#bababa" stroke="#262521" stroke-linecap="round" stroke-linejoin="round" stroke-width="3"/><path d="M860.35,918.39s-1.4-298-58.89-331.94c-5.16-3.05-35.89-15.27-67.47-27.53a2.61,2.61,0,0,0,.82-.94c2.21-6.91-4.71-10-13.56-15.54s-8-14.34-11.34-21-13.84,1.66-13.84,1.66-10.79-15.77-17.71-24.44c-3-3.78-20.84-3.88-40-2.79.85,13.67,2.77,26.49,6.85,30,1.69,1.45,6.51,3.74,13.28,6.52-6.23,18.73-51.83,153.38-75.91,152.85-25.45-.56-86.26-134.69-92.18-150.69,9.54-4.95,16.22-9.58,17.68-13.33,2.32-6,3-14.93,3-24.11-14.32.79-25.64,2.81-28.64,6.92-9.9,13.57-12.16,13.57-12.16,13.57s-8.2-8.2-14.7,0-35.63,29.41-30,40.15c1.15,2.19,4.5,4.71,9.11,7.34-31,19.16-68.08,42-90.72,55.66C288.65,654.21,317.25,945,317.25,945s-24,202.14,1.42,286.16c2.37,15.93,6.05,26.45,9.43,39.9l61-1.5s-4.07-28.29-3.11-41c12.87-27.53,10-90.32,19.82-121.27,6-18.8-13.38,36.84-2.44,97.21-3,26.45-6.6,59.72-6.6,59.72s71,16.39,148,15.46c137.53-1.66,265.66-20.89,265.66-20.89s-.25-33.66-4.15-65c3.36-30.83-3.13-68.12-11.81-106.57,12.77,53,25.26,121.81,34.4,130,1.64,26.39,1.89,34.36,1.89,34.36h61.6s-1-13.81-2.61-35.23C915.3,1133.33,860.35,918.39,860.35,918.39Z" fill="#262521"/><path d="M490,631.74s80.36,45,90.73,54.58l9.58,594.06" fill="none" stroke="#636363" stroke-linecap="round" stroke-linejoin="round"/><path d="M668.35,629.15s-93,66.71-87.39,76.65" fill="none" stroke="#636363" stroke-linecap="round" stroke-linejoin="round"/><path d="M498.71,631.52q3.53,50.1,4.7,100.34,1.15,49.95,0,99.94-.66,28-2.07,56.05c-.1,1.93,2.9,1.92,3,0q2.52-50.18,2.67-100.41.15-50-2.06-99.92-1.23-28-3.2-56c-.14-1.92-3.14-1.93-3,0Z" fill="#fff"/><path d="M504.12,862.25c-2.9,0-4.35,4.14-2.21,6.07a3.68,3.68,0,0,0,4.34.31,3.92,3.92,0,0,0,2-3.86,4.62,4.62,0,0,0-3-3.6,4.75,4.75,0,0,0-4.36.61,6,6,0,0,0-2.46,3.73,5.41,5.41,0,0,0,1.07,4.36,3.58,3.58,0,0,0,4.61.82,3.34,3.34,0,0,0,1.41-4.51,1.5,1.5,0,1,0-2.59,1.51,1,1,0,0,0,.08.15s-.08-.3-.07-.17a.45.45,0,0,0,0,.11c.05.16-.1.06,0-.16,0,0,0,.08,0,.11s0-.23,0-.2a.79.79,0,0,0-.08.3s.17-.33.05-.14l-.06.11-.07.11c-.09.15-.07,0,.09-.11-.06,0-.13.14-.18.19a1.5,1.5,0,0,0-.13.11s.28-.18.1-.07l-.26.15c-.28.16.23,0,0,0a1,1,0,0,0-.25.06s.39,0,.15,0h-.17c-.05,0-.21,0,0,0s.05,0,0,0l-.12,0c-.21-.06.09,0,.1,0a1.26,1.26,0,0,0-.23-.13c-.16-.09,0-.09.08.07,0,0-.11-.09-.13-.11s-.14-.16-.22-.23.1.11.09.12-.06-.1-.07-.11a2.54,2.54,0,0,1-.16-.28s-.07-.16-.08-.17.11.31,0,.1-.11-.39-.15-.59c-.08-.37,0,.24,0,0s0-.25,0-.38,0-.22,0-.33,0,.15,0,.16,0-.11,0-.14.05-.22.08-.33a1.82,1.82,0,0,0,.14-.39s-.13.27,0,.12l.09-.18.15-.27c0-.06.2-.24.2-.3s-.18.22-.07.09l.16-.19.26-.26.12-.11c-.17.15.13-.08.18-.12l.36-.2c.23-.12-.29.1.06,0l.29-.08.2,0c.16,0-.14,0-.15,0a1.91,1.91,0,0,0,.41,0h.15c.2,0-.3-.06-.1,0l.29.07.19.06c.15,0-.12,0-.12,0a2.31,2.31,0,0,0,.35.18,1.28,1.28,0,0,0,.26.17c-.17,0-.19-.16-.07,0l.11.1c.05,0,.17.23.24.26s-.17-.25-.08-.11.09.13.13.21.08.19.14.26c-.14-.17-.08-.24,0-.09s0,.09,0,.14,0,.13,0,.19,0-.15,0-.16a1.27,1.27,0,0,0,0,.39s.08-.31,0-.18l0,.13c0,.05-.13.39,0,.14s-.05.07-.09.13l-.07.11c-.08.15.23-.24.05-.06l-.19.19a1.27,1.27,0,0,0-.13.11s.26-.16.13-.1-.17.11-.26.16l-.11.06c-.15.1.32-.1.07,0l-.24.08-.17,0s.33,0,.19,0h-.29c-.05,0-.22,0,0,0s0,0-.05,0l-.12,0c-.13,0,.3.18.09,0a.47.47,0,0,0-.12-.07c-.13,0,.2.18.12.1s-.27-.31-.1-.09,0-.06,0-.11.08.17.08.19a1.77,1.77,0,0,0-.06-.17c0-.07-.08-.41,0-.12s0,0,0-.09,0-.1,0-.15,0,.15,0,.18,0-.19.06-.28,0-.1,0-.15-.05.13-.07.16a2.1,2.1,0,0,0,.13-.26s0-.05.06-.09-.25.27-.08.11a.9.9,0,0,0,.2-.19s-.28.17-.17.13a.47.47,0,0,0,.12-.07c.25-.17-.33.13,0,0s-.38,0,0,0a1.5,1.5,0,0,0,1.5-1.5,1.52,1.52,0,0,0-1.5-1.5Z" fill="#fff"/><path d="M656.26,629.64c2.34,33.3,2.8,66.69,2.83,100.06s-.38,66.51.26,99.77c.36,18.85,1,37.69,2.32,56.5.13,1.92,3.13,1.93,3,0C662.41,852.48,662,818.9,662,785.35c0-33.21.38-66.41-.3-99.61-.38-18.72-1.11-37.43-2.42-56.1-.13-1.92-3.13-1.93-3,0Z" fill="#fff"/><path d="M663.55,860.38c-2.9,0-4.35,4.13-2.2,6.06a3.65,3.65,0,0,0,4.33.31,3.92,3.92,0,0,0,2-3.86,4.59,4.59,0,0,0-3-3.59,4.69,4.69,0,0,0-4.36.61,5.9,5.9,0,0,0-2.45,3.72,5.37,5.37,0,0,0,1.06,4.36,3.58,3.58,0,0,0,4.62.82,3.34,3.34,0,0,0,1.4-4.51,1.5,1.5,0,1,0-2.59,1.51.68.68,0,0,0,.08.15s-.08-.3-.07-.17a.7.7,0,0,0,0,.12c.06.16-.1.05,0-.17,0,0,0,.08,0,.11s0-.23,0-.2a.84.84,0,0,0-.08.3s.17-.33.05-.13l-.06.1-.06.11c-.09.15-.08,0,.08-.1-.06,0-.13.14-.18.18s-.12.09-.13.12.28-.19.1-.08l-.26.15c-.28.16.23,0,0,0a.94.94,0,0,0-.24.06s.38,0,.14,0h-.17c-.05,0-.21,0,0,0s0,0,0,0l-.13,0c-.21-.06.09,0,.1,0a1.57,1.57,0,0,0-.23-.13c-.16-.08,0-.09.08.08,0,0-.1-.09-.13-.12s-.14-.16-.22-.23.1.11.1.12l-.08-.11c-.05-.09-.11-.18-.16-.28s-.06-.15-.08-.16.11.31,0,.1-.12-.4-.16-.6c-.08-.36,0,.24,0,0s0-.25,0-.38,0-.22,0-.33,0,.15,0,.16,0-.11,0-.14,0-.22.08-.33a1.4,1.4,0,0,0,.14-.39s-.13.27-.05.13l.09-.19.15-.27s.2-.24.2-.3-.18.22-.07.1l.17-.2a3,3,0,0,1,.25-.25s.29-.26.12-.12.13-.08.18-.12l.36-.19c.23-.13-.29.09.06,0l.29-.08.2,0c.16,0-.14,0-.15,0a2.81,2.81,0,0,0,.41,0h.15c.2,0-.3-.07-.1,0l.29.07.19.07c.16,0-.11,0-.12-.06a3,3,0,0,0,.36.19,1.32,1.32,0,0,0,.25.16c-.17,0-.19-.16-.07,0l.11.11s.17.23.24.25l-.08-.11.14.21c0,.07.08.19.13.26-.14-.16-.08-.24,0-.09s0,.09,0,.14,0,.13.05.19,0-.14,0-.15a1.21,1.21,0,0,0,0,.38s.08-.31,0-.18,0,.09,0,.13-.14.39,0,.15,0,.06-.08.12l-.08.11c-.08.16.23-.24,0-.06l-.18.19s-.13.09-.14.12.26-.17.13-.11l-.26.17a.6.6,0,0,0-.11.06c-.15.09.32-.11.08,0l-.25.07a1,1,0,0,0-.17,0s.33,0,.19,0a1.41,1.41,0,0,0-.29,0s-.21,0,0,0,0,0-.05,0l-.12,0c-.13,0,.31.18.09,0l-.11-.07c-.14,0,.19.19.12.1s-.28-.31-.11-.08,0-.07,0-.12.08.18.08.2a.85.85,0,0,0-.06-.17c0-.08-.08-.42,0-.12s0,0,0-.1,0-.09,0-.14c0-.21,0,.14,0,.18s0-.2.06-.29,0-.1,0-.14,0,.12-.07.15l.14-.25s0-.06,0-.09-.25.26-.08.11a1.26,1.26,0,0,0,.2-.2s-.27.17-.17.14l.12-.08c.26-.16-.33.13,0,0s-.38,0,0,0a1.5,1.5,0,0,0,0-3Z" fill="#fff"/><path d="M584.16,702.25h-5.62a2.79,2.79,0,0,0-2.52,2.32l-1.08,19.68c-.06.93-.11,1.86-.16,2.79a2.87,2.87,0,0,0,3,3.27H586a2.56,2.56,0,0,0,2.09-1.3l.06-.09a1.14,1.14,0,0,0,.1-.19c.06-.12.11-.24.16-.37l0-.11c0-.13.07-.25.09-.39a3.88,3.88,0,0,0,0-.59q-.59-9.82-1.15-19.67c-.06-.94-.11-1.87-.17-2.8A2.86,2.86,0,0,0,584.16,702.25Zm1,17.26-.08,5.17a1.87,1.87,0,0,1-1.9,1.84l-2.8,0a1.88,1.88,0,0,1-1.84-1.9l.08-5.17a1.88,1.88,0,0,1,1.9-1.84l2.8,0A1.88,1.88,0,0,1,585.14,719.51Z" fill="#84837e"/><path d="M593.33,1276.73H587.7a2.78,2.78,0,0,0-2.51,2.32q-.56,9.84-1.09,19.68l-.15,2.79a2.86,2.86,0,0,0,3,3.27h8.17a2.56,2.56,0,0,0,2.1-1.3l.06-.09.09-.19a2.06,2.06,0,0,0,.16-.37l0-.11a2.46,2.46,0,0,0,.09-.39,2.27,2.27,0,0,0,0-.58q-.57-9.84-1.15-19.68c0-.94-.11-1.87-.16-2.8A2.87,2.87,0,0,0,593.33,1276.73Zm1,17.26-.08,5.17a1.86,1.86,0,0,1-1.89,1.84l-2.8,0a1.87,1.87,0,0,1-1.84-1.9l.08-5.17a1.87,1.87,0,0,1,1.89-1.84l2.81,0A1.86,1.86,0,0,1,594.3,1294Z" fill="#84837e"/><rect x="579.76" y="696.82" width="3.77" height="15.03" rx="0.68" transform="translate(1163.29 1408.67) rotate(180)" fill="#aaa9a3"/><rect x="589.11" y="1271.1" width="3.77" height="15.03" rx="0.68" transform="translate(1181.99 2557.23) rotate(180)" fill="#aaa9a3"/></svg>