<svg xmlns="http://www.w3.org/2000/svg" width="1250" height="1550" viewBox="0 0 1250 1550"><title>Artboard 1</title><path d="M758.44,890.92c13.8.51,28.23.84,40.92-5.43,1.73-.86.21-3.45-1.51-2.59-12.17,6-26.2,5.51-39.41,5-1.93-.07-1.93,2.93,0,3Z" fill="#262521"/><path d="M489.37,531.26l0,0S489.38,531.23,489.37,531.26Z" fill="#fff" stroke="#262521" stroke-linecap="round" stroke-linejoin="round" stroke-width="3"/><path d="M807.5,1308.48l-7.39-22.59,4.88-3.09-43.41-446s47-246.89,39.88-250.31c-11.69-5.66-142.29-56.21-142.29-56.21s-2.49,55-82.84,55c-65.08,0-82.1-39.23-86.21-51.38a10.79,10.79,0,0,1-.75-2.59c-1.05.66-133.79,83.87-145.44,89.5-2.81,1.36,73.45,236,73.45,236l-8.09,422.1,8.09,9.86-8.56,11.49,8,6.16s-.15,6.28-8.76,9.89-.45,22.46-.45,22.46,58.07-23.41,83-19.71c51.32,7.63,105.33,40.06,226.06-3.09,65.18-23.3,93.84,22.8,93.84,22.8Z" fill="#fff" stroke="#262521" stroke-linecap="round" stroke-linejoin="round" stroke-width="3"/><path d="M698.74,1164.12c-43.83,40.92-87.33,65.29-148,43.29-20.86-8.7-41.55-17.82-64-21.45,39.91,19.47,79.86,53.39,124.58,53.45,46.48,0,68.87-24.08,102.4-42.82,24.8-15.83,50.7-31.35,79.08-39.69l-2-20.11C758.56,1138.21,725.41,1145.14,698.74,1164.12Z" fill="#262521" opacity="0.15"/><path d="M705.3,1245c-5.5,3.06-10.61,6.7-15.87,10.13s-10.62,6.68-16.07,9.78c-10,5.67-20.25,10.79-30.72,15.48a103.19,103.19,0,0,0,35.88-3.68c11.21-3,22-7.35,32.8-11.61,5.54-2.19,11.08-4.45,16.71-6.39a113,113,0,0,1,18.85-4.62,165.81,165.81,0,0,1,18.74-1.85,159.31,159.31,0,0,1,19,0,128.89,128.89,0,0,1,17.61,2.7l-2.87-29.5c-9,.13-18.1.45-27.12,1.2C749.06,1228.54,725.82,1233.53,705.3,1245Z" fill="#262521" opacity="0.15"/><path d="M557.82,1256.15a68.52,68.52,0,0,0-14.92-1.45c-9.33-.1-18.7.73-28,1.5-15.26,1.28-31.28,3-45.25-4.73-5.49-3-10.19-7.06-14.78-11.3s-9.22-8.69-14.61-12c-5-3-11.39-5.27-17.21-3.43a7.36,7.36,0,0,0-3.37,2.13.94.94,0,0,1,.16.52v8.82c.19.35.38.7.58,1a.94.94,0,0,1-.58,1.41v5.18a.88.88,0,0,1-.45.8c1.86,5.23,7.11,8.68,12.08,10.89,8.35,3.69,17.71,5.19,26.72,6.16a237.68,237.68,0,0,0,28.11,1.19c9.57-.12,19.09-.93,28.67-.72,17.85.39,35.76,2.41,53.57.33a8,8,0,0,0-.62-1C565.65,1258.33,561.44,1257,557.82,1256.15Z" fill="#262521" opacity="0.15"/><path d="M780.07,1273.35c-27.47-2.24-54.56,5.91-79.51,16.74-12.1,5.21-24.17,11.26-37.35,13.11-30.32,1.27-60.72-3.2-91,2.4,19.35,4,38.49,9.21,57.84,13.11,19.18,1.88,37.22-5.84,54.74-12.57,24.95-7.74,50.19-18.26,76.48-19.5,18.63.91,33.76,15.21,46.72,27.39.7-3.8-6.79-24.25-7.93-28.14l4.88-3.09-.18-1.87C798.11,1275,788.61,1274.17,780.07,1273.35Z" fill="#262521" opacity="0.15"/><path d="M413.46,1312.75a74.73,74.73,0,0,0,9,.15c7.82-.25,15.63-.88,23.4-1.84q10.89-1.33,21.65-3.55a173.46,173.46,0,0,0,20.34-5.26c14.13-4.77,27.7-11,41.69-16.15a154.07,154.07,0,0,1,21.61-6.64,83.86,83.86,0,0,1,22.31-1.26c14.06.88,28,3.84,42.13,3.15l-2.09-1.19c-12.57-6.9-26.76-10-41-10s-28.59,2.86-42.36,6.8c-7.62,2.18-15.17,4.55-22.84,6.54q-11.79,3.08-23.74,5.5a409.18,409.18,0,0,1-43.48,6.89c-9.08.85-18.74,1.34-27.95-.11l-3.25,4.36,8,6.16A10.22,10.22,0,0,1,413.46,1312.75Z" fill="#262521" opacity="0.15"/><path d="M495.51,528.29l.1.59q3.58-2.28,7.1-4.67a4,4,0,0,0,.3-.77A77.2,77.2,0,0,1,495.51,528.29Z" fill="#262521"/><path d="M659.39,528.38l-1.34-.17c-2.08-.1-4.15-.29-6.22-.51l-1,.42a4.32,4.32,0,0,0,.51,1.88,4.22,4.22,0,0,0-1.23,2.37l-.28,1.65a4.33,4.33,0,0,0,.39,2.65A4.23,4.23,0,0,0,649,539l-.33,1.65a4.36,4.36,0,0,0,.32,2.66,4.25,4.25,0,0,0-1.36,2.3l-.37,1.63a4.17,4.17,0,0,1-1.18,4.92l-.42,1.62a4.14,4.14,0,0,1-1.32,4.88l-.46,1.61a4.16,4.16,0,0,0,.09,2.66,4.31,4.31,0,0,0-1.56,2.16l-.51,1.59a4.32,4.32,0,0,0,0,2.66,4.2,4.2,0,0,0-1.62,2.11l-.57,1.57a4.3,4.3,0,0,0-.09,2.65,4.24,4.24,0,0,0-1.7,2l-.62,1.54a4.05,4.05,0,0,1-2,4.6c-.22.51-.45,1-.68,1.52a4.17,4.17,0,0,0-.31,2.61,4.23,4.23,0,0,0-1.86,1.88c-.25.5-.5,1-.76,1.48a4,4,0,0,1-2.37,4.36l-.83,1.42a4,4,0,0,1-2.61,4.19l-.9,1.35a4,4,0,0,1-2.87,4c-.32.43-.66.86-1,1.28a4.3,4.3,0,0,0-.92,2.42,4.25,4.25,0,0,0-2.22,1.31c-.36.41-.72.8-1.09,1.2a4.23,4.23,0,0,0-1.1,2.3,4.33,4.33,0,0,0-2.31,1.1c-.39.37-.79.73-1.19,1.08a3.79,3.79,0,0,1-3.7,3c-.42.32-.85.63-1.28.93a4.28,4.28,0,0,0-1.54,2,4.17,4.17,0,0,0-2.45.57c-.45.27-.9.52-1.36.77a4.33,4.33,0,0,0-1.76,1.79,4.18,4.18,0,0,0-2.48.26l-1.46.59a4.31,4.31,0,0,0-2,1.54,4.22,4.22,0,0,0-2.49-.06c-.5.14-1,.27-1.52.39a4.27,4.27,0,0,0-2.14,1.27,4.21,4.21,0,0,0-2.47-.38l-1.56.2a4.32,4.32,0,0,0-2.3,1,4.13,4.13,0,0,0-2.41-.69l-1.11,0h-.47a4.47,4.47,0,0,0-2.41.72,4.21,4.21,0,0,0-2.32-1l-1.56-.19a4.19,4.19,0,0,0-2.46.41,4.29,4.29,0,0,0-2.15-1.25l-1.52-.38a4.21,4.21,0,0,0-2.49.07,4.42,4.42,0,0,0-2-1.52c-.49-.18-1-.38-1.46-.58a4.35,4.35,0,0,0-2.48-.24,4.28,4.28,0,0,0-1.78-1.77l-1.38-.76a4.15,4.15,0,0,0-2.45-.55,4.2,4.2,0,0,0-1.55-2q-.65-.45-1.29-.93a4.35,4.35,0,0,0-2.4-.83,4.23,4.23,0,0,0-1.35-2.16l-1.2-1.07a3.87,3.87,0,0,1-3.46-3.37c-.37-.39-.74-.78-1.1-1.18a3.92,3.92,0,0,1-3.19-3.69l-1-1.28a4.28,4.28,0,0,0-2.14-1.46,4.33,4.33,0,0,0-.78-2.48q-.46-.66-.93-1.35a4,4,0,0,1-2.68-4.14l-.86-1.42a4.24,4.24,0,0,0-2-1.73,4.17,4.17,0,0,0-.48-2.59l-.79-1.47a4.06,4.06,0,0,1-2.25-4.45l-.72-1.51a4.07,4.07,0,0,1-2.05-4.54l-.66-1.54a4.09,4.09,0,0,1-1.89-4.64l-.6-1.57a4.1,4.1,0,0,1-1.72-4.72l-.56-1.59a4.13,4.13,0,0,1-1.57-4.78l-.51-1.61a4.27,4.27,0,0,0-1.54-2.18,4.19,4.19,0,0,0,.1-2.67l-.45-1.61a4.32,4.32,0,0,0-1.49-2.22,4.15,4.15,0,0,0,.18-2.66l-.41-1.64a4.18,4.18,0,0,0-1.43-2.25,4.25,4.25,0,0,0,.25-2.67l-.37-1.64a4.27,4.27,0,0,0-1.37-2.3,4.19,4.19,0,0,0,.32-2.65l-.33-1.66a4.14,4.14,0,0,1-.92-5l-.28-1.65a3.67,3.67,0,0,0-.2-.74q-3.75,2.55-7.57,5a2.94,2.94,0,0,1,.58,4l.34,1.71a4.29,4.29,0,0,0,1.38,2.38,4.23,4.23,0,0,0-.29,2.73l.38,1.71a4.41,4.41,0,0,1,1.22,5.08l.42,1.68a4.24,4.24,0,0,0,1.51,2.31,4.2,4.2,0,0,0-.16,2.74L502,557a4.43,4.43,0,0,1,1.49,5l.52,1.65a4.46,4.46,0,0,1,1.64,5l.57,1.65a4.42,4.42,0,0,1,1.8,4.92l.63,1.63a4.49,4.49,0,0,1,2,4.88l.68,1.61a4.48,4.48,0,0,1,2.17,4.79l.75,1.58a4.27,4.27,0,0,0,2,2,4.23,4.23,0,0,0,.42,2.75l.84,1.56a4.54,4.54,0,0,1,2.63,4.62c.3.51.61,1,.91,1.51a4.29,4.29,0,0,0,2.17,1.77,4.21,4.21,0,0,0,.73,2.7c.33.5.67,1,1,1.47a4.62,4.62,0,0,1,3.19,4.3l1.11,1.39a4.23,4.23,0,0,0,2.4,1.48,4.32,4.32,0,0,0,1.12,2.6l1.23,1.31a4.75,4.75,0,0,1,3.88,3.78l1.36,1.21a4.82,4.82,0,0,1,4.27,3.42c.49.36,1,.71,1.49,1.06a4.88,4.88,0,0,1,4.63,2.93l1.61.89a4.92,4.92,0,0,1,5,2.36l1.71.68a5,5,0,0,1,5.26,1.7c.6.16,1.19.31,1.8.45a5,5,0,0,1,5.43,1c.6.09,1.22.16,1.83.22a4.27,4.27,0,0,0,2.8-.7,4.21,4.21,0,0,0,2.7,1h1.83a4.29,4.29,0,0,0,2.7-1,4.21,4.21,0,0,0,2.8.66c.61-.06,1.22-.14,1.82-.23a4.2,4.2,0,0,0,2.55-1.35,4.26,4.26,0,0,0,2.87.31c.6-.15,1.2-.3,1.79-.47a5,5,0,0,1,5.25-1.74c.57-.22,1.14-.45,1.7-.69a4.21,4.21,0,0,0,2.13-2,4.28,4.28,0,0,0,2.85-.44c.54-.3,1.08-.6,1.61-.91a4.26,4.26,0,0,0,1.84-2.19,4.32,4.32,0,0,0,2.77-.78c.5-.35,1-.71,1.48-1.08a4.25,4.25,0,0,0,1.58-2.39,4.31,4.31,0,0,0,2.65-1.06l1.34-1.22a4.74,4.74,0,0,1,3.84-3.84c.41-.44.82-.88,1.22-1.33a4.7,4.7,0,0,1,3.46-4.13c.37-.46.74-.94,1.1-1.41a4.26,4.26,0,0,0,.87-2.68,4.33,4.33,0,0,0,2.26-1.67l1-1.48a4.59,4.59,0,0,1,2.81-4.51l.9-1.54a4.31,4.31,0,0,0,.52-2.74,4.26,4.26,0,0,0,2-1.92l.81-1.58a4.27,4.27,0,0,0,.37-2.75,4.22,4.22,0,0,0,1.92-2c.25-.53.49-1.06.73-1.6a4.5,4.5,0,0,1,2.07-4.85l.66-1.63a4.44,4.44,0,0,1,1.87-4.91l.6-1.65a4.35,4.35,0,0,0,0-2.76,4.3,4.3,0,0,0,1.66-2.2l.53-1.67a4.17,4.17,0,0,0-.06-2.75,4.31,4.31,0,0,0,1.59-2.26l.48-1.68a4.23,4.23,0,0,0-.15-2.75,4.29,4.29,0,0,0,1.52-2.3l.43-1.69a4.19,4.19,0,0,0-.23-2.74,4.25,4.25,0,0,0,1.45-2.34l.39-1.71a4.23,4.23,0,0,0-.31-2.73,4.29,4.29,0,0,0,1.39-2.39l.33-1.71a4.3,4.3,0,0,0-.37-2.73,4.19,4.19,0,0,0,1.31-2.42l.29-1.73a4.42,4.42,0,0,1,.79-5.19Z" fill="#262521"/><path d="M533.65,607.67c-.34-.45-.68-.89-1-1.34a1.71,1.71,0,1,0-2.75,2l1.05,1.38a1.72,1.72,0,0,0,1.36.67,1.76,1.76,0,0,0,1-.35A1.71,1.71,0,0,0,533.65,607.67Z" fill="#b7b6b0"/><path d="M536.83,611.57a1.71,1.71,0,1,0-2.58,2.24c.38.44.76.87,1.15,1.3a1.71,1.71,0,0,0,1.27.57,1.74,1.74,0,0,0,1.15-.44,1.72,1.72,0,0,0,.12-2.42Z" fill="#b7b6b0"/><path d="M529.73,602.2q-.47-.69-.93-1.41a1.71,1.71,0,0,0-2.87,1.86l1,1.45a1.69,1.69,0,0,0,1.42.76,1.66,1.66,0,0,0,1-.29A1.71,1.71,0,0,0,529.73,602.2Z" fill="#b7b6b0"/><path d="M522.86,590.58q-.4-.75-.78-1.5a1.71,1.71,0,0,0-3.05,1.55l.8,1.54a1.72,1.72,0,0,0,1.51.92,1.76,1.76,0,0,0,.8-.2A1.72,1.72,0,0,0,522.86,590.58Z" fill="#b7b6b0"/><path d="M526.14,596.49l-.85-1.46a1.71,1.71,0,0,0-3,1.7l.86,1.49a1.72,1.72,0,0,0,1.48.85,1.72,1.72,0,0,0,1.47-2.58Z" fill="#b7b6b0"/><path d="M553.28,625.44c-.48-.27-1-.55-1.43-.84a1.71,1.71,0,0,0-1.78,2.92l1.52.89a1.67,1.67,0,0,0,.84.22,1.71,1.71,0,0,0,.85-3.19Z" fill="#b7b6b0"/><path d="M547.74,621.82c-.44-.33-.88-.66-1.32-1a1.71,1.71,0,0,0-2.11,2.69l1.39,1.07a1.77,1.77,0,0,0,1,.33,1.71,1.71,0,0,0,1-3.08Z" fill="#b7b6b0"/><path d="M565.45,630.29l-1.6-.41a1.71,1.71,0,0,0-.92,3.29c.57.16,1.14.3,1.71.44a1.44,1.44,0,0,0,.41,0,1.71,1.71,0,0,0,.4-3.37Z" fill="#b7b6b0"/><path d="M519.84,584.51c-.24-.51-.48-1-.71-1.53A1.71,1.71,0,1,0,516,584.4c.24.52.48,1.05.73,1.57a1.7,1.7,0,0,0,1.55,1,1.68,1.68,0,0,0,.72-.16A1.72,1.72,0,0,0,519.84,584.51Z" fill="#b7b6b0"/><path d="M541.42,616.43a1.71,1.71,0,1,0-2.38,2.46l1.27,1.2a1.73,1.73,0,0,0,1.16.45,1.71,1.71,0,0,0,1.16-3Z" fill="#b7b6b0"/><path d="M559.19,628.29c-.51-.2-1-.41-1.52-.64a1.71,1.71,0,0,0-1.38,3.13c.54.24,1.08.47,1.63.69a1.77,1.77,0,0,0,.64.12,1.71,1.71,0,0,0,.63-3.3Z" fill="#b7b6b0"/><path d="M517.08,578.33l-.66-1.56a1.71,1.71,0,0,0-3.16,1.31l.67,1.58a1.71,1.71,0,0,0,1.57,1.05,1.75,1.75,0,0,0,.67-.14A1.71,1.71,0,0,0,517.08,578.33Z" fill="#b7b6b0"/><path d="M504.58,539.42l-.36-1.56a1.71,1.71,0,0,0-3.34.77l.4,1.67,1.66-.39Z" fill="#b7b6b0"/><path d="M505,548.21a1.71,1.71,0,0,0,1.22-2.08l-.43-1.65a1.71,1.71,0,1,0-3.31.85L503,547a1.71,1.71,0,0,0,1.65,1.27A1.67,1.67,0,0,0,505,548.21Z" fill="#b7b6b0"/><path d="M501.47,524.52c-1,.71-2.05,1.4-3.1,2.07l0,.21a1.45,1.45,0,0,0,.09.22c1-.67,2-1.34,3.06-2Z" fill="#b7b6b0"/><path d="M506.9,554.81a1.7,1.7,0,0,0,1.16-2.12l-.46-1.63a1.71,1.71,0,1,0-3.29.93l.47,1.65a1.72,1.72,0,0,0,1.64,1.24A1.59,1.59,0,0,0,506.9,554.81Z" fill="#b7b6b0"/><path d="M514.53,572l-.6-1.59a1.71,1.71,0,1,0-3.2,1.21l.61,1.61a1.7,1.7,0,0,0,1.6,1.09,1.64,1.64,0,0,0,.61-.11A1.71,1.71,0,0,0,514.53,572Z" fill="#b7b6b0"/><path d="M512.19,565.66l-.55-1.61a1.71,1.71,0,0,0-3.24,1.11l.57,1.63a1.7,1.7,0,0,0,1.61,1.14,1.77,1.77,0,0,0,.56-.09A1.71,1.71,0,0,0,512.19,565.66Z" fill="#b7b6b0"/><path d="M508.93,561.35a1.7,1.7,0,0,0,1.11-2.14l-.51-1.63a1.71,1.71,0,1,0-3.26,1l.51,1.64a1.71,1.71,0,0,0,1.63,1.19A1.57,1.57,0,0,0,508.93,561.35Z" fill="#b7b6b0"/><path d="M501.8,534.89a1.71,1.71,0,0,0,1.31-2l-.35-1.66a1.71,1.71,0,0,0-3.35.68l.36,1.69a1.71,1.71,0,0,0,1.67,1.36A2.2,2.2,0,0,0,501.8,534.89Z" fill="#b7b6b0"/><path d="M644.69,570a1.72,1.72,0,0,0-2.19,1c-.19.52-.39,1.05-.58,1.58a1.71,1.71,0,0,0,1,2.2,1.59,1.59,0,0,0,.6.11,1.71,1.71,0,0,0,1.6-1.11l.6-1.63A1.72,1.72,0,0,0,644.69,570Z" fill="#b7b6b0"/><path d="M642.3,576.43a1.72,1.72,0,0,0-2.23.94l-.65,1.57a1.71,1.71,0,0,0,3.16,1.32l.66-1.6A1.71,1.71,0,0,0,642.3,576.43Z" fill="#b7b6b0"/><path d="M646.84,563.51a1.72,1.72,0,0,0-2.15,1.11c-.17.54-.34,1.07-.52,1.61a1.71,1.71,0,1,0,3.24,1.08q.29-.82.54-1.65A1.71,1.71,0,0,0,646.84,563.51Z" fill="#b7b6b0"/><path d="M636.73,588.94a1.71,1.71,0,0,0-2.31.72c-.26.5-.53,1-.8,1.5a1.73,1.73,0,0,0,.7,2.32,1.83,1.83,0,0,0,.81.2,1.72,1.72,0,0,0,1.51-.9l.81-1.54A1.7,1.7,0,0,0,636.73,588.94Z" fill="#b7b6b0"/><path d="M639.65,582.75a1.7,1.7,0,0,0-2.26.84l-.72,1.53a1.71,1.71,0,0,0,.82,2.28,1.68,1.68,0,0,0,.72.16,1.7,1.7,0,0,0,1.55-1l.73-1.56A1.7,1.7,0,0,0,639.65,582.75Z" fill="#b7b6b0"/><path d="M653.36,536.9a1.72,1.72,0,0,0-2,1.36l-.32,1.67a1.7,1.7,0,0,0,1.34,2l.33,0a1.71,1.71,0,0,0,1.68-1.37l.33-1.7A1.71,1.71,0,0,0,653.36,536.9Z" fill="#b7b6b0"/><path d="M633.48,595a1.7,1.7,0,0,0-2.34.59c-.29.49-.58,1-.88,1.45a1.71,1.71,0,0,0,1.46,2.6,1.7,1.7,0,0,0,1.46-.82l.9-1.48A1.71,1.71,0,0,0,633.48,595Z" fill="#b7b6b0"/><path d="M654.5,530.14a1.71,1.71,0,0,0-2,1.42c-.09.54-.18,1.1-.28,1.67a1.71,1.71,0,0,0,1.4,2l.29,0a1.72,1.72,0,0,0,1.69-1.43c.1-.58.19-1.15.28-1.71A1.71,1.71,0,0,0,654.5,530.14Z" fill="#b7b6b0"/><path d="M648.77,556.94a1.71,1.71,0,0,0-2.11,1.18l-.47,1.63a1.71,1.71,0,0,0,1.16,2.12,1.59,1.59,0,0,0,.48.07,1.71,1.71,0,0,0,1.64-1.23l.48-1.66A1.71,1.71,0,0,0,648.77,556.94Z" fill="#b7b6b0"/><path d="M650.5,550.31a1.71,1.71,0,0,0-2.08,1.25c-.13.54-.27,1.08-.42,1.64a1.7,1.7,0,0,0,1.23,2.08,1.59,1.59,0,0,0,.43.06,1.71,1.71,0,0,0,1.65-1.28c.15-.56.29-1.12.43-1.68A1.71,1.71,0,0,0,650.5,550.31Z" fill="#b7b6b0"/><path d="M652,543.63a1.71,1.71,0,0,0-2,1.3l-.37,1.66a1.71,1.71,0,0,0,1.28,2,2.58,2.58,0,0,0,.39,0,1.71,1.71,0,0,0,1.66-1.33l.38-1.68A1.71,1.71,0,0,0,652,543.63Z" fill="#b7b6b0"/><path d="M629.9,600.81a1.71,1.71,0,0,0-2.37.45q-.46.69-1,1.38a1.71,1.71,0,0,0,2.8,2l1-1.43A1.7,1.7,0,0,0,629.9,600.81Z" fill="#b7b6b0"/><path d="M603.72,624.22c-.48.27-1,.54-1.45.8a1.71,1.71,0,0,0,.8,3.22,1.64,1.64,0,0,0,.8-.2c.53-.28,1-.56,1.55-.85a1.71,1.71,0,1,0-1.7-3Z" fill="#b7b6b0"/><path d="M597.79,627.16l-1.53.62a1.71,1.71,0,0,0,.61,3.3,1.66,1.66,0,0,0,.62-.11c.55-.21,1.09-.44,1.63-.66a1.71,1.71,0,1,0-1.33-3.15Z" fill="#b7b6b0"/><path d="M571.92,631.36c-.55-.05-1.1-.11-1.64-.18a1.71,1.71,0,0,0-.43,3.39c.58.08,1.16.14,1.75.19h.16a1.71,1.71,0,0,0,.16-3.41Z" fill="#b7b6b0"/><path d="M585.1,630.81l-1.64.25a1.71,1.71,0,0,0,.23,3.4h.23l1.73-.26a1.71,1.71,0,1,0-.55-3.38Z" fill="#b7b6b0"/><path d="M578.51,631.51l-1.65,0a1.71,1.71,0,0,0,0,3.42h0l1.77-.05a1.71,1.71,0,1,0-.16-3.42Z" fill="#b7b6b0"/><path d="M591.56,629.36l-1.6.44a1.71,1.71,0,0,0,.42,3.36,1.63,1.63,0,0,0,.43,0l1.69-.46a1.71,1.71,0,0,0-.94-3.29Z" fill="#b7b6b0"/><path d="M619.22,611.75c-.38.41-.77.82-1.15,1.21a1.72,1.72,0,0,0,1.22,2.91,1.74,1.74,0,0,0,1.23-.52c.41-.42.81-.84,1.2-1.27a1.71,1.71,0,1,0-2.5-2.33Z" fill="#b7b6b0"/><path d="M626,606.38a1.71,1.71,0,0,0-2.4.29c-.35.43-.69.87-1.05,1.3a1.71,1.71,0,0,0,2.64,2.17l1.09-1.35A1.72,1.72,0,0,0,626,606.38Z" fill="#b7b6b0"/><path d="M609.31,620.61l-1.36,1a1.71,1.71,0,0,0,1,3.12,1.76,1.76,0,0,0,1-.3c.48-.33,1-.67,1.43-1a1.71,1.71,0,0,0-2-2.76Z" fill="#b7b6b0"/><path d="M614.46,616.43l-1.24,1.09a1.7,1.7,0,0,0-.19,2.41,1.67,1.67,0,0,0,1.3.6,1.7,1.7,0,0,0,1.11-.41c.44-.38.88-.76,1.31-1.15a1.71,1.71,0,1,0-2.29-2.54Z" fill="#b7b6b0"/><path d="M533.09,610.12,532,608.81a1.71,1.71,0,0,0-2.68,2.13c.36.46.73.91,1.1,1.36a1.68,1.68,0,0,0,1.32.62,1.71,1.71,0,0,0,1.31-2.8Z" fill="#7f7e78"/><path d="M521.73,593.38c-.27-.5-.55-1-.82-1.48a1.71,1.71,0,1,0-3,1.64l.84,1.52a1.74,1.74,0,0,0,1.5.87,1.66,1.66,0,0,0,.83-.22A1.7,1.7,0,0,0,521.73,593.38Z" fill="#7f7e78"/><path d="M571.94,633.73c-.55-.07-1.1-.15-1.64-.24a1.71,1.71,0,1,0-.56,3.37c.58.1,1.16.18,1.74.26l.23,0a1.71,1.71,0,0,0,.23-3.41Z" fill="#7f7e78"/><path d="M525.22,599.19q-.47-.72-.9-1.44a1.71,1.71,0,0,0-2.92,1.79l.92,1.48a1.72,1.72,0,0,0,1.45.79,1.68,1.68,0,0,0,.91-.26A1.71,1.71,0,0,0,525.22,599.19Z" fill="#7f7e78"/><path d="M529,604.78c-.33-.45-.65-.91-1-1.37a1.71,1.71,0,1,0-2.81,2c.33.48.67.95,1,1.42a1.71,1.71,0,0,0,2.38.39A1.71,1.71,0,0,0,529,604.78Z" fill="#7f7e78"/><path d="M536.4,613.92a1.71,1.71,0,1,0-2.51,2.32l1.19,1.27a1.73,1.73,0,0,0,1.24.53,1.72,1.72,0,0,0,1.23-2.9Z" fill="#7f7e78"/><path d="M559.19,630.34c-.51-.21-1-.42-1.52-.65a1.71,1.71,0,0,0-1.39,3.13l1.62.69a1.81,1.81,0,0,0,.64.12,1.71,1.71,0,0,0,.65-3.29Z" fill="#7f7e78"/><path d="M565.45,632.45l-1.59-.45a1.71,1.71,0,1,0-1,3.27c.56.17,1.13.33,1.69.48a1.71,1.71,0,0,0,2.1-1.21A1.71,1.71,0,0,0,565.45,632.45Z" fill="#7f7e78"/><path d="M547.62,623.92l-1.35-1a1.71,1.71,0,0,0-2,2.74c.46.35.93.7,1.41,1a1.74,1.74,0,0,0,1,.32,1.71,1.71,0,0,0,1-3.1Z" fill="#7f7e78"/><path d="M578.54,634.2l-1.66,0a1.71,1.71,0,0,0-.13,3.42l1.76,0h0a1.71,1.71,0,0,0,0-3.42Z" fill="#7f7e78"/><path d="M553.23,627.47l-1.44-.83a1.71,1.71,0,0,0-1.75,2.94c.5.3,1,.59,1.52.87a1.66,1.66,0,0,0,.83.22,1.71,1.71,0,0,0,.84-3.2Z" fill="#7f7e78"/><path d="M501,544.86a1.7,1.7,0,0,0,1.23-2.07l-.42-1.66a1.71,1.71,0,1,0-3.31.83l.42,1.67a1.72,1.72,0,0,0,1.66,1.29A1.52,1.52,0,0,0,501,544.86Z" fill="#7f7e78"/><path d="M502.8,551.47a1.7,1.7,0,0,0,1.18-2.11l-.46-1.63a1.71,1.71,0,1,0-3.3.91l.47,1.66a1.71,1.71,0,0,0,1.64,1.24A1.49,1.49,0,0,0,502.8,551.47Z" fill="#7f7e78"/><path d="M504.81,558a1.71,1.71,0,0,0,1.12-2.14l-.51-1.62a1.7,1.7,0,1,0-3.26,1l.5,1.65a1.72,1.72,0,0,0,1.64,1.2A1.55,1.55,0,0,0,504.81,558Z" fill="#7f7e78"/><path d="M499.31,538.21a1.7,1.7,0,0,0,1.28-2.05l-.37-1.66a1.71,1.71,0,1,0-3.34.74l.38,1.69a1.72,1.72,0,0,0,1.67,1.32A1.69,1.69,0,0,0,499.31,538.21Z" fill="#7f7e78"/><path d="M499.07,529l-2.89,1.87a1.68,1.68,0,0,0,1.3.64,2,2,0,0,0,.34,0,1.71,1.71,0,0,0,1.34-2Z" fill="#7f7e78"/><path d="M518.53,587.4c-.26-.5-.51-1-.76-1.51a1.71,1.71,0,1,0-3.06,1.52c.25.52.51,1,.77,1.54a1.71,1.71,0,0,0,1.53.94,1.65,1.65,0,0,0,.77-.19A1.71,1.71,0,0,0,518.53,587.4Z" fill="#7f7e78"/><path d="M512.86,575.07c-.22-.52-.43-1-.64-1.56a1.71,1.71,0,1,0-3.17,1.28c.21.53.43,1.07.66,1.6a1.7,1.7,0,0,0,1.57,1.05,1.65,1.65,0,0,0,.66-.13A1.71,1.71,0,0,0,512.86,575.07Z" fill="#7f7e78"/><path d="M508.05,562.36l-.55-1.61a1.71,1.71,0,1,0-3.24,1.09l.56,1.63a1.7,1.7,0,0,0,1.61,1.16,1.78,1.78,0,0,0,.56-.1A1.71,1.71,0,0,0,508.05,562.36Z" fill="#7f7e78"/><path d="M515.58,581.3c-.23-.52-.47-1-.7-1.54a1.71,1.71,0,1,0-3.12,1.39c.24.53.47,1.05.72,1.58a1.7,1.7,0,0,0,1.55,1,1.78,1.78,0,0,0,.71-.15A1.71,1.71,0,0,0,515.58,581.3Z" fill="#7f7e78"/><path d="M510.36,568.76l-.6-1.6a1.71,1.71,0,0,0-3.21,1.19l.61,1.61a1.71,1.71,0,0,0,1.6,1.11,1.59,1.59,0,0,0,.6-.11A1.71,1.71,0,0,0,510.36,568.76Z" fill="#7f7e78"/><path d="M541.14,618.65a1.71,1.71,0,0,0-2.31,2.52c.44.4.87.79,1.31,1.17a1.71,1.71,0,0,0,2.41-.16,1.72,1.72,0,0,0-.16-2.42C542,619.4,541.55,619,541.14,618.65Z" fill="#7f7e78"/><path d="M650.07,561.3a1.71,1.71,0,0,0-2.14,1.12l-.51,1.63a1.71,1.71,0,0,0,1.12,2.14,1.52,1.52,0,0,0,.51.09,1.71,1.71,0,0,0,1.63-1.2l.52-1.64A1.71,1.71,0,0,0,650.07,561.3Z" fill="#7f7e78"/><path d="M648,567.83a1.71,1.71,0,0,0-2.17,1.06l-.56,1.61a1.71,1.71,0,0,0,1,2.18,1.77,1.77,0,0,0,.56.09,1.72,1.72,0,0,0,1.62-1.14l.56-1.63A1.7,1.7,0,0,0,648,567.83Z" fill="#7f7e78"/><path d="M645.71,574.29a1.72,1.72,0,0,0-2.21,1c-.2.52-.41,1.05-.61,1.58a1.71,1.71,0,0,0,1.59,2.34,1.69,1.69,0,0,0,1.58-1.09c.22-.53.43-1.07.63-1.61A1.71,1.71,0,0,0,645.71,574.29Z" fill="#7f7e78"/><path d="M643.2,580.67a1.72,1.72,0,0,0-2.25.9c-.22.52-.44,1-.67,1.56a1.71,1.71,0,0,0,3.13,1.37l.69-1.59A1.72,1.72,0,0,0,643.2,580.67Z" fill="#7f7e78"/><path d="M652,554.7a1.72,1.72,0,0,0-2.1,1.2c-.15.54-.3,1.08-.46,1.63a1.7,1.7,0,0,0,1.17,2.11,1.58,1.58,0,0,0,.47.07,1.72,1.72,0,0,0,1.65-1.24c.16-.56.31-1.11.47-1.66A1.72,1.72,0,0,0,652,554.7Z" fill="#7f7e78"/><path d="M653.65,548.06a1.71,1.71,0,0,0-2.07,1.25l-.41,1.65A1.7,1.7,0,0,0,652.4,553a2,2,0,0,0,.42.05,1.72,1.72,0,0,0,1.66-1.28l.42-1.68A1.7,1.7,0,0,0,653.65,548.06Z" fill="#7f7e78"/><path d="M658.5,528.27l-.45-.06c-.52,0-1-.07-1.57-.1a1.7,1.7,0,0,0-.78,1.18l-.28,1.67a1.7,1.7,0,0,0,1.4,2,1.43,1.43,0,0,0,.29,0,1.7,1.7,0,0,0,1.68-1.43l.28-1.71A1.68,1.68,0,0,0,658.5,528.27Z" fill="#7f7e78"/><path d="M656.5,534.64a1.71,1.71,0,0,0-2,1.36l-.32,1.67a1.72,1.72,0,0,0,1.34,2l.34,0a1.72,1.72,0,0,0,1.68-1.38l.32-1.7A1.7,1.7,0,0,0,656.5,534.64Z" fill="#7f7e78"/><path d="M655.17,541.37a1.71,1.71,0,0,0-2,1.3l-.37,1.66a1.72,1.72,0,0,0,1.29,2,1.69,1.69,0,0,0,.38,0,1.72,1.72,0,0,0,1.67-1.33l.37-1.68A1.7,1.7,0,0,0,655.17,541.37Z" fill="#7f7e78"/><path d="M640.44,586.94a1.72,1.72,0,0,0-2.28.81c-.24.51-.49,1-.74,1.52a1.72,1.72,0,0,0,1.54,2.47,1.69,1.69,0,0,0,1.53-1c.26-.52.51-1,.76-1.56A1.71,1.71,0,0,0,640.44,586.94Z" fill="#7f7e78"/><path d="M630.46,604.88a1.71,1.71,0,0,0-2.38.42l-1,1.38a1.71,1.71,0,0,0,.39,2.39,1.75,1.75,0,0,0,1,.32,1.7,1.7,0,0,0,1.38-.71c.34-.47.68-.94,1-1.42A1.71,1.71,0,0,0,630.46,604.88Z" fill="#7f7e78"/><path d="M604,628c-.49.26-1,.52-1.47.76a1.71,1.71,0,0,0,.77,3.24,1.63,1.63,0,0,0,.76-.18c.53-.26,1.05-.53,1.57-.81a1.71,1.71,0,0,0-1.63-3Z" fill="#7f7e78"/><path d="M609.59,624.49c-.45.32-.91.63-1.37.93a1.71,1.71,0,0,0,1.89,2.86l1.45-1a1.71,1.71,0,0,0-2-2.8Z" fill="#7f7e78"/><path d="M598,630.75c-.52.2-1,.39-1.56.57a1.71,1.71,0,0,0,.57,3.33,1.54,1.54,0,0,0,.56-.1c.56-.19,1.11-.4,1.66-.61a1.71,1.71,0,0,0-1.23-3.19Z" fill="#7f7e78"/><path d="M614.82,620.38l-1.27,1.08a1.71,1.71,0,0,0,1.09,3,1.74,1.74,0,0,0,1.1-.39l1.33-1.14a1.71,1.71,0,0,0-2.25-2.57Z" fill="#7f7e78"/><path d="M637.41,593.1a1.7,1.7,0,0,0-2.31.7l-.81,1.48a1.71,1.71,0,1,0,3,1.66c.28-.51.56-1,.83-1.53A1.7,1.7,0,0,0,637.41,593.1Z" fill="#7f7e78"/><path d="M591.65,632.73c-.53.13-1.07.25-1.61.36a1.71,1.71,0,0,0,.35,3.39,2,2,0,0,0,.35,0c.58-.12,1.16-.25,1.73-.39a1.71,1.71,0,1,0-.82-3.32Z" fill="#7f7e78"/><path d="M634.1,599.09a1.72,1.72,0,0,0-2.35.57l-.89,1.44a1.72,1.72,0,0,0,.54,2.36,1.77,1.77,0,0,0,.91.26,1.7,1.7,0,0,0,1.44-.8c.31-.49.61-1,.91-1.48A1.71,1.71,0,0,0,634.1,599.09Z" fill="#7f7e78"/><path d="M585.15,633.87l-1.65.16a1.71,1.71,0,0,0,.14,3.41h.14l1.75-.17a1.71,1.71,0,0,0-.38-3.4Z" fill="#7f7e78"/><path d="M626.45,610.43a1.7,1.7,0,0,0-2.4.27L623,612a1.71,1.71,0,0,0,.22,2.41,1.67,1.67,0,0,0,1.09.4,1.7,1.7,0,0,0,1.31-.61q.57-.68,1.11-1.35A1.71,1.71,0,0,0,626.45,610.43Z" fill="#7f7e78"/><path d="M619.64,615.75l-1.17,1.2a1.71,1.71,0,1,0,2.43,2.4c.41-.41.81-.83,1.22-1.25a1.71,1.71,0,1,0-2.48-2.35Z" fill="#7f7e78"/><g opacity="0.86"><path d="M603.07,628.24a1.71,1.71,0,0,1-.8-3.22c.49-.26,1-.53,1.45-.8a1.71,1.71,0,1,1,1.7,3c-.51.29-1,.57-1.55.85A1.64,1.64,0,0,1,603.07,628.24Zm-56.35-3.34a1.77,1.77,0,0,1-1-.33l-1.39-1.07a1.71,1.71,0,0,1,2.11-2.69c.44.35.88.68,1.32,1a1.71,1.71,0,0,1-1,3.08Zm62.2-.21a1.71,1.71,0,0,1-1-3.12l1.36-1a1.71,1.71,0,0,1,2,2.76c-.48.35-1,.69-1.43,1A1.76,1.76,0,0,1,608.92,624.69Zm-67.45-4.15a1.73,1.73,0,0,1-1.16-.45l-1.27-1.2a1.71,1.71,0,1,1,2.38-2.46l1.21,1.15a1.71,1.71,0,0,1-1.16,3Zm72.86,0a1.67,1.67,0,0,1-1.3-.6,1.7,1.7,0,0,1,.19-2.41l1.24-1.09a1.71,1.71,0,1,1,2.29,2.54c-.43.39-.87.77-1.31,1.15A1.7,1.7,0,0,1,614.33,620.53Zm5-4.66a1.72,1.72,0,0,1-1.22-2.91c.38-.39.77-.8,1.15-1.21a1.71,1.71,0,1,1,2.5,2.33c-.39.43-.79.85-1.2,1.27A1.74,1.74,0,0,1,619.29,615.87Zm-82.62-.19a1.71,1.71,0,0,1-1.27-.57c-.39-.43-.77-.86-1.15-1.3a1.71,1.71,0,1,1,2.58-2.24l1.11,1.25a1.72,1.72,0,0,1-.12,2.42A1.74,1.74,0,0,1,536.67,615.68Zm87.17-4.92a1.71,1.71,0,0,1-1.32-2.79c.36-.43.7-.87,1.05-1.3a1.71,1.71,0,1,1,2.68,2.12l-1.09,1.35A1.7,1.7,0,0,1,623.84,610.76Zm4.13-5.43a1.71,1.71,0,0,1-1.4-2.69q.49-.69,1-1.38a1.71,1.71,0,0,1,2.83,1.92l-1,1.43A1.72,1.72,0,0,1,628,605.33Z" fill="#fff"/></g><g opacity="0.86"><path d="M609.17,628.56a1.71,1.71,0,0,1-.95-3.14c.46-.3.92-.61,1.37-.93a1.71,1.71,0,0,1,2,2.8l-1.45,1A1.72,1.72,0,0,1,609.17,628.56Zm5.47-4.08a1.71,1.71,0,0,1-1.09-3l1.27-1.08a1.71,1.71,0,0,1,2.25,2.57l-1.33,1.14A1.74,1.74,0,0,1,614.64,624.48Zm-73.38-1.72a1.68,1.68,0,0,1-1.12-.42c-.44-.38-.87-.77-1.31-1.17a1.71,1.71,0,0,1,2.31-2.52c.41.38.83.75,1.25,1.11a1.72,1.72,0,0,1,.16,2.42A1.68,1.68,0,0,1,541.26,622.76Zm78.42-2.9a1.71,1.71,0,0,1-1.21-2.91l1.17-1.2a1.71,1.71,0,1,1,2.48,2.35c-.41.42-.81.84-1.22,1.25A1.72,1.72,0,0,1,619.68,619.86ZM536.32,618a1.73,1.73,0,0,1-1.24-.53l-1.19-1.27a1.71,1.71,0,1,1,2.51-2.32l1.15,1.22a1.72,1.72,0,0,1-1.23,2.9Zm88-3.24a1.67,1.67,0,0,1-1.09-.4A1.71,1.71,0,0,1,623,612l1.07-1.29a1.71,1.71,0,1,1,2.66,2.14q-.54.67-1.11,1.35A1.7,1.7,0,0,1,624.29,614.8Zm-92.51-1.88a1.68,1.68,0,0,1-1.32-.62c-.37-.45-.74-.9-1.1-1.36a1.71,1.71,0,0,1,2.68-2.13l1.05,1.31a1.71,1.71,0,0,1-1.31,2.8Z" fill="#fff"/></g><path d="M562.52,743.26c-1.49-37.81-49.08-194.87-60.68-215.2,3.16-2.23,5.28-4.31,6-6.15,2-5.21,2.69-13,2.68-21L505,501c-30.35-3.08-73.6,59.17-75.92,60.41h0c-29.94,19-59.32,40.58-85.19,59.32-44.73,27-35.81,384-30.28,452.4,5.65,69.91,0,239.25,5.69,259.2l89.1-1.54L412,1244c18.34.81,48.64.62,94.44-1.47C510.25,1195.16,564.07,782.62,562.52,743.26Z" fill="#262521" stroke="#262521" stroke-linecap="round" stroke-linejoin="round" stroke-width="3"/><path d="M877.23,1043c-3.83-55.87-37.47-431.58-75.77-456.57-33.32-21.7-70.55-35-107.81-47.67-6.52-12.32-24.82-41.19-53.23-41.19l-2.14.05c.77,12.89,2.54,25.12,6.38,28.41A36,36,0,0,0,652,530c-9.61,29.48-34.8,188.64-34.8,228.83,0,44.66,27.72,439,36,480.67,65-1.29,146.19-2.86,146.49-3.9,1-3.55,1.74-9.82,2.16-18.29,6.13,55.14,11.07,101.12,11.07,101.12s99.8,2.06,100.61-10.16S882.81,1124.28,877.23,1043Z" fill="#262521" stroke="#262521" stroke-linecap="round" stroke-linejoin="round" stroke-width="3"/><path d="M427.61,564.58S407.2,599,397.13,614.36s154.93,26.93,160.54,142" fill="none" stroke="#636363" stroke-linecap="round" stroke-linejoin="round"/><path d="M476.06,656.57c.23.22.46.46.69.71" fill="none" stroke="#8e8e8e" stroke-linecap="round" stroke-linejoin="round" stroke-width="3"/><path d="M479.52,661.41c32.85,61.86,24.92,529.42,24.07,574.5" fill="none" stroke="#8e8e8e" stroke-linecap="round" stroke-linejoin="round" stroke-width="3" stroke-dasharray="1.99 4.98"/><path d="M503.54,1238.41c0,.66,0,1,0,1" fill="none" stroke="#8e8e8e" stroke-linecap="round" stroke-linejoin="round" stroke-width="3"/><path d="M401,738C383.1,622.22,345.61,624,345.61,624" fill="none" stroke="#636363" stroke-linecap="round" stroke-linejoin="round"/><path d="M512.52,562.5s-48.2,42.71-44.2,77.59" fill="none" stroke="#636363" stroke-linecap="round" stroke-linejoin="round"/><path d="M319.49,1276.94s43.3,6,86-3.39" fill="none" stroke="#636363" stroke-linecap="round" stroke-linejoin="round"/><path d="M497.64,1204.13s-45.45,7.55-111.63,1.25" fill="none" stroke="#636363" stroke-linecap="round" stroke-linejoin="round"/><polyline points="406.58 1074.41 456 980.46 431.21 967.42 405.88 1015.57" fill="none" stroke="#636363" stroke-linecap="round" stroke-linejoin="round"/><path d="M697.33,542.75S757.37,609,758,621.2" fill="none" stroke="#636363" stroke-linecap="round" stroke-linejoin="round"/><path d="M758,621.2c.64,12.25-116.52,13.47-140.86,133.25,0,0,17.87,286,36,485" fill="none" stroke="#8e8e8e" stroke-linecap="round" stroke-linejoin="round" stroke-width="3" stroke-dasharray="2 5"/><path d="M647,562.44s49.09,41.29,49.09,76.12" fill="none" stroke="#636363" stroke-linecap="round" stroke-linejoin="round"/><path d="M802.46,589.84s-20.07,31.36-23.94,131" fill="none" stroke="#636363" stroke-linecap="round" stroke-linejoin="round"/><path d="M809,1259.42s59.21,4.08,90-4" fill="none" stroke="#636363" stroke-linecap="round" stroke-linejoin="round"/><path d="M655.61,1204.36s96.19,8.05,144.5-4.66" fill="none" stroke="#636363" stroke-linecap="round" stroke-linejoin="round"/><polyline points="791.65 1068.13 738.35 975.8 762.7 961.74 790.03 1009.06" fill="none" stroke="#636363" stroke-linecap="round" stroke-linejoin="round"/></svg>