<svg xmlns="http://www.w3.org/2000/svg" width="1250" height="1550" viewBox="0 0 1250 1550"><title>s01e05-01</title><path d="M404.44,1264.52s61.79,24.3,203.69,19.79S801,1248.13,801,1248.13l20.1,342.24-375.9,6.24Z" fill="#ccccca" stroke="#262521" stroke-linecap="round" stroke-linejoin="round" stroke-width="3"/><path d="M721.25,542.44c-8.85-5.58-8-14.34-11.34-21s-13.84,1.66-13.84,1.66-10.79-15.77-17.71-24.44c-3-3.78-20.84-3.88-40-2.79.85,13.67,2.77,26.49,6.85,30,1.88,1.61,7.6,4.25,15.59,7.46-.83,3.65-5.75,48.4-5.84,60.78,39.36-16,78.78-32.7,79.88-36.14C737,551.07,730.1,548,721.25,542.44Z" fill="#262521"/><path d="M773.9,576.67l-124.34-50.1s-7.62,55.38-75,58.47-73.43-58.47-73.43-58.47L396.73,617l13.92,664.55s100.87,16.51,214.68,12S806.2,1279.8,806.2,1279.8Z" fill="#262521" stroke="#262521" stroke-linecap="round" stroke-linejoin="round" stroke-width="3"/><path d="M488.78,535.38c10.38-5.26,17.73-10.2,19.27-14.15,2.32-6,3-14.93,3-24.11-14.32.79-25.64,2.81-28.64,6.92-9.9,13.57-12.16,13.57-12.16,13.57s-8.2-8.2-14.7,0-35.63,29.41-30,40.15,70.9,32.33,70.9,32.33C497.55,577.76,490.26,539.47,488.78,535.38Z" fill="#262521"/><path d="M547.23,717.36c-24.29-69.4-53.3-172.25-57.11-183.51a10.79,10.79,0,0,1-.75-2.59c-1,.65-101,62.61-145.44,89.5C288.65,654.21,317.25,945,317.25,945s-24.38,212.36,1,296.39c2.37,15.93,3.05,28,6.44,41.4l63.95-1.5s-4.06-29.79-3.11-42.46c12.87-27.53,10.41-100.55,20.24-131.5,6-18.8,10.39-47.35,12.93-66.86a163.78,163.78,0,0,1-1.32,19.9c-3.73,22.75-25,83.8-14.05,144.17-3,26.45,11.15,256.17,11.15,256.17s107,43.07,144.72,32.94C559.2,1493.69,570.85,784.86,547.23,717.36Z" fill="#262521" stroke="#262521" stroke-linecap="round" stroke-linejoin="round" stroke-width="3"/><path d="M860.35,918.39s-1.41-298-58.89-331.94c-11.18-6.61-142.29-56.21-142.29-56.21s-3,143.26-24.34,184.87,36,782.51,36,782.51c120-4.44,151.87-52.33,151.87-52.33s-12.62-220.08-16.52-251.38c3.94-36.14-5.66-81.16-16.45-126.52,13.83,47.61,28.27,153.84,38.48,163,1.64,26.39,1.88,36.36,1.88,36.36l64.1-1.5s-1-14.3-2.6-35.73C917.24,1146.38,860.35,918.39,860.35,918.39Z" fill="#262521" stroke="#262521" stroke-linecap="round" stroke-linejoin="round" stroke-width="3"/><path d="M559.2,1493.69s11.65-708.83-12-776.33c-24.29-69.4-53.3-172.25-57.11-183.51a10.79,10.79,0,0,1-.75-2.59" fill="none" stroke="#636363" stroke-linecap="round" stroke-linejoin="round"/><path d="M659.17,530.24s-3,143.26-24.34,184.87,36,782.51,36,782.51" fill="none" stroke="#636363" stroke-linecap="round" stroke-linejoin="round"/><path d="M723,590.09s-77.8,151.06-86.8,259" fill="none" stroke="#636363" stroke-linecap="round" stroke-linejoin="round"/><path d="M455.49,590s89.62,166.51,98.11,271.31" fill="none" stroke="#636363" stroke-linecap="round" stroke-linejoin="round"/><path d="M549.1,1462q4.13,41.57,4.18,83.38,0,11.77-.29,23.54a4.53,4.53,0,0,0,4.5,4.5,4.59,4.59,0,0,0,4.5-4.5q1.1-41.75-1.88-83.46-.84-11.74-2-23.46c-.23-2.33-1.9-4.61-4.5-4.5-2.24.11-4.75,2-4.5,4.5Z" fill="#262521"/><path d="M673.66,1448.18c.41,8.46.81,16.94.13,25.39-.08,1-.18,1.94-.29,2.91,0,.49-.11,1-.17,1.45,0-.21.1-.68,0,.26l-.15,1c-.32,2-.72,4-1.15,6-.82,3.94-1.73,7.86-2.33,11.84a54.18,54.18,0,0,0-.69,12.46,64.63,64.63,0,0,0,1.89,11c1.77,6.83,4.41,13.39,6.54,20.1a75.77,75.77,0,0,1,2.79,11.2c0,.19,0,.38.08.58-.06-.42-.06-.5,0,0s.1.9.14,1.36c.09,1,.14,1.94.16,2.92s0,1.83-.06,2.74c0,.53-.07,1-.13,1.58l-.06.59c-.08.73.16-1.08,0,.18-.37,2.32.59,5,3.14,5.54,2.16.49,5.14-.66,5.54-3.15a51.61,51.61,0,0,0-1.73-22.05c-1.88-6.79-4.53-13.33-6.58-20.06a74.24,74.24,0,0,1-2.43-10.18c0-.2-.06-.4-.08-.59h0c0-.39-.09-.79-.12-1.19-.08-.86-.14-1.72-.16-2.59a46.3,46.3,0,0,1,.24-6.23c0-.47.11-.94.17-1.41-.09.65.07-.48.1-.66.17-1.09.36-2.18.56-3.26.39-2,.82-4,1.25-6,.92-4.28,1.75-8.57,2.27-12.92,1.13-9.56.67-19.2.21-28.79a4.58,4.58,0,0,0-4.5-4.5c-2.34.11-4.62,2-4.5,4.5Z" fill="#262521"/></svg>