<svg xmlns="http://www.w3.org/2000/svg" width="1000" height="1550" viewBox="0 0 1000 1550"><path d="M364.37 531.26h0s.01-.03 0 0zM682.5 1308.48l-7.39-22.59 4.88-3.09-43.41-446-102.41-306.56s-2.49 55-82.84 55c-65.08 0-82.1-39.23-86.21-51.38a10.79 10.79 0 01-.75-2.59c-1.05.66-72 325.48-72 325.48l-8.09 422.1 8.09 9.86-8.56 11.49 8 6.16s-.15 6.28-8.76 9.89-.45 22.46-.45 22.46 58.07-23.41 83-19.71c51.32 7.63 105.33 40.06 226.06-3.09 65.18-23.3 93.84 22.8 93.84 22.8z" fill="#fff" stroke="#262521" stroke-linecap="round" stroke-linejoin="round" stroke-width="3"/><path d="M573.74 1164.12C489.9 1242.73 457 1214.27 361.68 1186c166.61 107.39 159.63 28 306.06-29.06l-2-20.11c-32.18 1.38-65.33 8.31-92 27.29z" fill="#262521" opacity=".15"/><path d="M377 532.87S389.7 640 453.91 640c38.12 0 57.36-37.92 66.71-68.72" fill="none" stroke="#262521" stroke-linecap="round" stroke-linejoin="round" stroke-width="8.27" stroke-dasharray="1.65 4.96"/><path d="M452.55 640.09a1.66 1.66 0 010-3.31h1.6a1.68 1.68 0 011.73 1.58 1.65 1.65 0 01-1.58 1.72c-.57 0-1.14.05-1.71.05zm-4.95-.2h-.15l-1.7-.19a1.65 1.65 0 11.42-3.28c.52.07 1.05.12 1.58.17a1.65 1.65 0 01-.15 3.3zm11.54-.29a1.66 1.66 0 01-.22-3.3l1.59-.23a1.65 1.65 0 01.53 3.26l-1.68.25zm-18-.78a1.31 1.31 0 01-.39-.05c-.55-.13-1.11-.27-1.65-.43a1.65 1.65 0 11.89-3.18l1.54.4a1.65 1.65 0 01-.39 3.26zm24.51-.48a1.66 1.66 0 01-.41-3.26c.52-.13 1-.27 1.55-.42a1.65 1.65 0 11.91 3.18c-.54.16-1.09.31-1.64.45a1.84 1.84 0 01-.45.05zm-30.79-1.52a1.66 1.66 0 01-.61-.12c-.53-.21-1.06-.44-1.58-.67a1.65 1.65 0 011.34-3l1.47.62a1.65 1.65 0 01.92 2.15 1.67 1.67 0 01-1.58 1.02zm37.07-.49a1.66 1.66 0 01-.6-3.2c.5-.19 1-.39 1.49-.6a1.65 1.65 0 011.29 3c-.52.23-1.05.44-1.58.64a1.61 1.61 0 01-.64.16zm-43-2.37a1.63 1.63 0 01-.82-.22l-1.46-.86a1.66 1.66 0 011.72-2.83c.45.28.91.55 1.38.82a1.65 1.65 0 01-.82 3.09zm-19.48-17.62a1.65 1.65 0 01-1.31-.65c-.34-.44-.68-.89-1-1.34a1.65 1.65 0 012.65-2c.32.43.65.87 1 1.29a1.65 1.65 0 01-.3 2.32 1.61 1.61 0 01-1.07.38zm96.18-10.45a1.7 1.7 0 01-.86-.24 1.66 1.66 0 01-.55-2.27c.29-.47.57-.94.85-1.41a1.65 1.65 0 012.84 1.69c-.28.48-.57 1-.86 1.44a1.66 1.66 0 01-1.45.79zm3.3-5.75a1.69 1.69 0 01-.78-.19 1.67 1.67 0 01-.68-2.24c.26-.49.52-1 .77-1.46a1.66 1.66 0 112.93 1.54c-.25.49-.52 1-.78 1.48a1.65 1.65 0 01-1.49.87zm3-5.92a1.76 1.76 0 01-.7-.15 1.66 1.66 0 01-.79-2.21l.69-1.48a1.66 1.66 0 013 1.38l-.71 1.52a1.65 1.65 0 01-1.54.94z" fill="#b7b6b0"/><path d="M454.14 642.65h-1.71a1.66 1.66 0 01.13-3.31h1.61a1.66 1.66 0 010 3.31zm4.95-.17a1.65 1.65 0 01-.13-3.3l1.59-.16a1.66 1.66 0 11.37 3.29c-.56.06-1.13.12-1.7.16zm-11.54-.3h-.22l-1.69-.25a1.66 1.66 0 01.54-3.27c.53.09 1.05.17 1.59.24a1.65 1.65 0 01-.22 3.29zm18.07-.64a1.65 1.65 0 01-.33-3.27l1.55-.35a1.65 1.65 0 11.79 3.21c-.55.14-1.11.26-1.67.38a2 2 0 01-.34.03zm-24.55-.64a1.52 1.52 0 01-.42-.06l-1.64-.46a1.66 1.66 0 01-1.11-2.06 1.64 1.64 0 012.06-1.11c.51.15 1 .3 1.54.43a1.66 1.66 0 01-.43 3.26zm30.93-1.12a1.66 1.66 0 01-.54-3.22l1.5-.55a1.65 1.65 0 111.19 3.08c-.53.21-1.06.4-1.6.59a1.78 1.78 0 01-.55.1zm-37.17-1a1.67 1.67 0 01-.62-.12c-.53-.21-1.05-.44-1.57-.67a1.65 1.65 0 111.35-3q.72.33 1.47.63a1.65 1.65 0 01-.63 3.18zm43.26-1.59a1.66 1.66 0 01-.74-3.14c.47-.23.95-.48 1.41-.74a1.67 1.67 0 012.24.69 1.65 1.65 0 01-.67 2.24c-.5.27-1 .54-1.52.79a1.58 1.58 0 01-.74.17zm-49.21-1.27a1.72 1.72 0 01-.81-.21c-.49-.28-1-.56-1.46-.85a1.65 1.65 0 111.69-2.84c.46.27.92.54 1.39.8a1.66 1.66 0 01.64 2.25 1.68 1.68 0 01-1.47.86zm-5.58-3.54a1.64 1.64 0 01-1-.31c-.46-.33-.92-.66-1.37-1a1.66 1.66 0 112-2.65c.43.33.87.65 1.3 1a1.65 1.65 0 01-1 3zm79.19-17a1.65 1.65 0 01-1.33-2.62l.94-1.33a1.65 1.65 0 012.71 1.89c-.32.46-.64.92-1 1.37a1.66 1.66 0 01-1.34.65zm3.7-5.49a1.65 1.65 0 01-1.4-2.53l.86-1.39a1.65 1.65 0 012.82 1.72c-.29.48-.58 1-.88 1.43a1.64 1.64 0 01-1.42.73zm3.36-5.7a1.68 1.68 0 01-.8-.21 1.65 1.65 0 01-.64-2.25l.78-1.43a1.65 1.65 0 112.91 1.56l-.8 1.48a1.66 1.66 0 01-1.47.81zm3.07-5.89a1.55 1.55 0 01-.72-.17 1.65 1.65 0 01-.76-2.21c.24-.49.48-1 .71-1.47a1.66 1.66 0 013 1.42c-.24.51-.48 1-.73 1.51a1.67 1.67 0 01-1.52.88z" fill="#7f7e78"/><path d="M477.89 633.58a1.66 1.66 0 01-.78-3.12c.48-.25.95-.51 1.41-.77a1.65 1.65 0 111.64 2.87c-.49.28-1 .55-1.5.82a1.64 1.64 0 01-.77.2zm-54.51-3.23a1.66 1.66 0 01-1-.33c-.45-.33-.9-.68-1.35-1a1.66 1.66 0 112-2.6c.42.33.84.66 1.27 1a1.65 1.65 0 01-1 3zm60.17-.21a1.65 1.65 0 01-.94-3c.44-.3.88-.61 1.31-.93a1.65 1.65 0 111.94 2.68c-.45.33-.91.66-1.38 1a1.7 1.7 0 01-.93.25zm-65.25-4a1.67 1.67 0 01-1.13-.44l-1.23-1.16a1.66 1.66 0 010-2.34 1.64 1.64 0 012.33 0l1.18 1.11a1.66 1.66 0 01-1.12 2.87zm70.48 0a1.65 1.65 0 01-1.08-2.91l1.21-1.06a1.65 1.65 0 012.21 2.46l-1.27 1.11a1.62 1.62 0 01-1.07.38zm4.8-4.52a1.63 1.63 0 01-1.15-.46 1.66 1.66 0 010-2.34l1.12-1.17a1.65 1.65 0 112.42 2.25c-.38.41-.77.82-1.16 1.22a1.64 1.64 0 01-1.23.48zm-79.93-.18a1.63 1.63 0 01-1.22-.54c-.38-.42-.75-.84-1.12-1.27a1.65 1.65 0 112.5-2.16c.35.41.71.81 1.07 1.21a1.65 1.65 0 01-1.23 2.76zm84.35-4.77a1.66 1.66 0 01-1.3-2.67c.35-.41.68-.83 1-1.25a1.65 1.65 0 112.59 2c-.34.44-.7.87-1.05 1.3a1.65 1.65 0 01-1.24.62zm4-5.25a1.61 1.61 0 01-1-.31 1.66 1.66 0 01-.4-2.3c.32-.44.62-.89.93-1.34a1.65 1.65 0 112.73 1.87c-.31.46-.63.92-.95 1.37a1.68 1.68 0 01-1.31.71z" fill="#f4f4f4"/><path d="M483.78 633.88a1.65 1.65 0 01-.91-3q.67-.44 1.32-.9a1.65 1.65 0 111.91 2.7q-.69.5-1.41 1a1.59 1.59 0 01-.91.2zm5.3-3.94A1.65 1.65 0 01488 627l1.23-1a1.65 1.65 0 012.18 2.49c-.42.37-.86.74-1.29 1.1a1.62 1.62 0 01-1.04.35zm-71-1.66a1.61 1.61 0 01-1.09-.41c-.43-.37-.85-.75-1.27-1.13a1.66 1.66 0 112.28-2.44l1.2 1.08a1.65 1.65 0 01.16 2.33 1.61 1.61 0 01-1.26.57zm75.92-2.81a1.68 1.68 0 01-1.17-.48 1.66 1.66 0 010-2.34c.38-.38.76-.77 1.13-1.16a1.66 1.66 0 012.4 2.28c-.39.41-.78.81-1.18 1.21a1.63 1.63 0 01-1.18.49zm-80.65-1.77a1.64 1.64 0 01-1.19-.51c-.39-.4-.78-.81-1.16-1.22a1.66 1.66 0 012.43-2.25c.37.4.74.8 1.12 1.18a1.66 1.66 0 01-1.2 2.8zm85.11-3.13a1.62 1.62 0 01-1.06-.38 1.65 1.65 0 01-.21-2.33c.35-.42.69-.83 1-1.26a1.65 1.65 0 012.58 2.07c-.36.44-.71.88-1.07 1.31a1.66 1.66 0 01-1.28.59zm-89.5-1.82a1.64 1.64 0 01-1.28-.6c-.36-.43-.71-.87-1.06-1.31a1.65 1.65 0 012.59-2.06l1 1.27a1.64 1.64 0 01-1.27 2.7z" fill="#f4f4f4"/><path d="M580.3 1245c-20.24 12.92-40.46 26-62.66 35.39 58.73 3 89.34-41.37 159.64-25.45l-2.87-29.5c-32.18.35-65.52 3.56-94.11 19.56zM432.82 1256.15c-29-6.44-60.55 9.15-88.16-4.68-15.93-7.29-30.27-36-50-24.58a.94.94 0 01.16.52v8.82c.5.78 1.26 2 0 2.44-.17.64.44 5.74-.45 6 14.82 25 70.07 16.59 95.58 17.52 17.85.39 35.76 2.41 53.57.33-1.98-3.9-6.72-5.46-10.7-6.37zM655.07 1273.35c-42-5.09-77.85 20.39-116.86 29.85-30.32 1.27-60.72-3.2-91 2.4 19.35 4 38.49 9.21 57.84 13.11 45.4.4 85.55-31.1 131.22-32.07 18.63.91 33.76 15.21 46.72 27.39.7-3.8-6.79-24.25-7.93-28.14l4.7-5c-6.65-5.89-16.15-6.72-24.69-7.54zM288.46 1312.75a237 237 0 0074.37-10.5c21.26-7.1 41.34-17.83 63.3-22.79 21.4-4.53 42.94 2.93 64.44 1.89-33.62-20.37-73.55-8.3-108.33 2.21-31.08 7.09-63.06 15.51-95.17 12.27l-3.25 4.36 8 6.16a10.22 10.22 0 01-3.36 6.4z" fill="#262521" opacity=".15"/><path d="M437.52 743.26c-1.49-37.81-49.08-194.87-60.68-215.2 3.16-2.23 5.28-4.31 6-6.15 2-5.21 2.69-13 2.68-21L380 501c-30.35-3.08-73.6 59.17-75.92 60.41h0c-29.94 19-59.32 40.58-85.19 59.32-44.73 27-35.81 384-30.28 452.4 5.65 69.91 0 239.25 5.69 259.2l89.1-1.54L287 1244c18.34.81 48.64.62 94.44-1.47 3.81-47.37 57.63-459.91 56.08-499.27zM752.23 1043c-3.83-55.87-37.47-431.58-75.77-456.57-33.32-21.7-70.55-35-107.81-47.67-6.52-12.32-24.82-41.19-53.23-41.19l-2.14.05c.77 12.89 2.54 25.12 6.38 28.41A36 36 0 00527 530c-9.61 29.48-34.8 188.64-34.8 228.83 0 44.66 27.72 439 36 480.67 65-1.29 146.19-2.86 146.49-3.9 1-3.55 1.74-9.82 2.16-18.29 6.13 55.14 11.07 101.12 11.07 101.12s99.8 2.06 100.61-10.16-30.72-183.99-36.3-265.27z" fill="#262521" stroke="#262521" stroke-linecap="round" stroke-linejoin="round" stroke-width="3"/><path d="M302.61 564.58S282.2 599 272.13 614.36s154.93 26.93 160.54 142" fill="none" stroke="#636363" stroke-linecap="round" stroke-linejoin="round"/><path d="M351.06 656.57c.23.22.46.46.69.71" fill="none" stroke="#8e8e8e" stroke-linecap="round" stroke-linejoin="round" stroke-width="3"/><path d="M354.52 661.41c32.85 61.86 24.92 529.42 24.07 574.5" fill="none" stroke="#8e8e8e" stroke-linecap="round" stroke-linejoin="round" stroke-width="3" stroke-dasharray="1.99 4.98"/><path d="M378.54 1238.41v1" fill="none" stroke="#8e8e8e" stroke-linecap="round" stroke-linejoin="round" stroke-width="3"/><path d="M276 738c-17.9-115.78-55.39-114-55.39-114M387.52 562.5s-48.2 42.71-44.2 77.59M194.49 1276.94s43.3 6 86-3.39M372.64 1204.13s-45.45 7.55-111.63 1.25M281.58 1074.41L331 980.46l-24.79-13.04-25.33 48.15M572.33 542.75S632.37 609 633 621.2" fill="none" stroke="#636363" stroke-linecap="round" stroke-linejoin="round"/><path d="M633 621.2c.64 12.25-116.52 13.47-140.86 133.25 0 0 17.87 286 36 485" fill="none" stroke="#8e8e8e" stroke-linecap="round" stroke-linejoin="round" stroke-width="3" stroke-dasharray="2 5"/><path d="M522 562.44s49.09 41.29 49.09 76.12M677.46 589.84s-20.07 31.36-23.94 131M684 1259.42s59.21 4.08 90-4M530.61 1204.36s96.19 8.05 144.5-4.66M666.65 1068.13l-53.3-92.33 24.35-14.06 27.33 47.32" fill="none" stroke="#636363" stroke-linecap="round" stroke-linejoin="round"/></svg>