<svg xmlns="http://www.w3.org/2000/svg" width="1000" height="1550" viewBox="0 0 1000 1550"><path d="M296.22 1019s-11.62 57.38-21.45 88.33-13.09 105-15.36 135.22c-1 12.66 4.65 27 4.65 27l-61 1.5c-16.33-18.74-8.92-129.52-14.45-197.94A619.79 619.79 0 01192.25 945s-18.05-297.29 26.68-324.24 148.6-94.93 149.57-92.08c4.11 12.15 15.06 50 79.65 50s79.23-52 79.23-52 138.2 52.7 149.08 59.8c38.3 25 52.89 331.94 52.89 331.94s19 68.76 22.88 124.63c5.58 81.26 18.66 177.57 17.85 189.79s-5.3 18.89-5.3 18.89h-58.1s-1.25-8-2.89-34.36c-2.47-39.8-31-134-48.07-177.22" fill="#f9f9f7" stroke="#262521" stroke-linecap="round" stroke-linejoin="round" stroke-width="3"/><path d="M285.65 807.61s5.34 199.1 3.83 238.13c-.83 21.49-28.07 166.52-15.76 193.7 0 13 1 44.83 1 44.83s35.46 23.26 90.75 19c9.17-.7.28 72.79 16.94 72.59 14.57-.18 204.3-1.86 211.73-7.48s-4.93-73.63 4.4-74.64 85-12.36 85-12.36.06-30.34-.71-43.93c14.49-25-23.66-192.61-25.46-262.56-1.22-47.59-16.09-167.28-16.09-167.28" fill="#f9f9f7" stroke="#262521" stroke-linecap="round" stroke-linejoin="round" stroke-width="3"/><path fill="none" stroke="#d6d6d2" stroke-linecap="round" stroke-linejoin="round" stroke-width="6" d="M744.97 1214.68v29.46M729.26 1214.74l.84 29.34M759.88 1214.56l-1.89 29.7M714.6 1214.94l2.74 28.94M234.56 1233.68l1.98 29.4M220.2 1234.4l3.05 28.74M205.25 1234.5l3.89 29.51M248.65 1233.62l.21 29.07M482.84 1302.1l2.62 64.61M502.35 1302.11l2.61 64.6M521.85 1301.62l2.61 64.6M541.35 1300.63l2.61 64.6M560.83 1299.75l2.61 64.61M580.33 1299.26l2.61 64.6M617.06 1248.94v36.08M347.98 1261.18l1 36.08M385.34 1303.56l2.61 64.61M404.86 1303.95l2.61 64.6M287.02 1246.08l.02 35.03M307.08 1252.01l-.5 38.17M327.46 1258.38v36.08M424.36 1303.46l2.62 64.6M443.82 1303.7l2.61 64.61M463.34 1302.09l2.62 64.61M636.07 1246.33l.22 36.06M654.83 1243.08l-.16 36.02M671.38 1240.17l1.04 36.06M531.18 536.59l24.02 8.59M448.08 586.22v25.5M465.04 584.91l1.32 25.47M480.06 582.35l4.25 25.14M493.67 577.14l9.1 23.83M505.82 568.96l14.34 21.1M516.01 559.83l20.3 15.43M524.62 549.03l23.39 10.17M363.83 540.31l-21.94 12.99M431.13 584.91l-1.32 25.47M416.61 582.85l-4.25 25.14M403.07 577.83l-9.1 23.82M390.47 571.8l-14.34 21.1M379.23 563.52l-19.39 16.57M369.92 552.25l-21.34 13.97M335.26 562.83l30.79 730.72M564.08 554.11l30.63 729.84M454.28 702s-8.4 27.84-8.46 26.45 10.18 26.71 10.64 25.3-8.34 29.58-8.34 29.58l10.71 27M455.22 702s10.71 27 10.65 25.65-7.91 27.47-8.48 26.1 10.78 28.78 10.78 28.78l-8.41 27.84M458.83 810.41s-8.4 27.84-8.46 26.45 10.18 26.72 10.63 25.31-8.33 29.58-8.33 29.58l10.71 27M459.76 810.37s10.71 27 10.66 25.65-7.91 27.48-8.48 26.11 10.78 28.77 10.78 28.77l-8.41 27.85M463.38 918.79s-8.41 27.84-8.46 26.45 10.17 26.71 10.63 25.3-8.33 29.58-8.33 29.58l10.71 27M464.31 918.75S475 945.79 475 944.4s-7.9 27.47-8.48 26.1 10.79 28.78 10.79 28.78l-8.41 27.84M467.93 1027.16s-8.41 27.84-8.47 26.45 10.18 26.72 10.64 25.3-8.33 29.58-8.33 29.58l10.71 27M468.86 1027.12s10.71 27 10.65 25.65-7.9 27.47-8.48 26.11 10.78 28.77 10.78 28.77l-8.4 27.84M472.48 1135.53s-8.41 27.84-8.47 26.45 10.18 26.72 10.64 25.31-8.33 29.58-8.33 29.58l10.71 27M473.41 1135.49s10.71 27 10.65 25.65-7.9 27.48-8.48 26.11 10.78 28.75 10.78 28.75l-8.4 27.85M477.07 1244.93s-8.41 27.84-8.47 26.45 10.18 26.71 10.64 25.3M440.25 702.63s-8.41 27.84-8.46 26.45 10.17 26.71 10.63 25.3-8.33 29.62-8.33 29.62l10.71 27M444.8 811s-8.41 27.84-8.47 26.45 10.18 26.72 10.64 25.31-8.33 29.57-8.33 29.57l10.71 27M449.35 919.37s-8.41 27.85-8.47 26.46 10.18 26.71 10.64 25.3-8.33 29.58-8.33 29.58l10.7 27M453.89 1027.75s-8.4 27.84-8.46 26.45 10.18 26.71 10.64 25.3-8.34 29.58-8.34 29.58l10.71 27M458.44 1136.12S450 1164 450 1162.57s10.18 26.72 10.63 25.31-8.33 29.58-8.33 29.58l10.71 27M463 1245.52s-8.4 27.84-8.46 26.45 10.18 26.71 10.64 25.3M478 1244.89s10.71 27 10.65 25.65-7.9 27.47-8.48 26.1M468.37 701.45s10.71 27 10.65 25.65-7.9 27.47-8.47 26.1 10.78 28.8 10.78 28.8l-8.41 27.84M441.27 620c-.06-1.39 10.18 26.72 10.63 25.3s-8.33 29.58-8.33 29.58l10.71 27M461.31 619.18c-.05-1.39-7.9 27.47-8.47 26.11s10.78 28.77 10.78 28.77l-8.41 27.84M427.23 620.61c-.05-1.39 10.18 26.71 10.64 25.3s-8.33 29.58-8.33 29.58l10.71 27M474.47 618.63c-.06-1.39-7.9 27.47-8.48 26.1s10.78 28.78 10.78 28.78l-8.4 27.84"/><path d="M472.92 809.82s10.71 27 10.65 25.65-7.9 27.47-8.48 26.11 10.79 28.77 10.79 28.77l-8.41 27.84M477.47 918.19s10.71 27 10.65 25.65-7.9 27.48-8.48 26.11 10.78 28.78 10.78 28.78l-8.4 27.84M482 1026.57s10.71 27 10.65 25.65-7.91 27.47-8.48 26.1S495 1107.1 495 1107.1l-8.4 27.84M486.57 1134.94s10.7 27 10.65 25.65-7.91 27.47-8.48 26.11 10.78 28.77 10.78 28.77l-8.41 27.84M491.16 1244.34s10.71 27 10.65 25.65-7.91 27.47-8.48 26.1M534.23 690.94l24.81-16.79M533.72 678.66l24.81-16.79M536.06 734.61l24.82-16.79M538.46 791.67l24.81-16.78M540.89 849.67l24.81-16.79M543.25 905.85l24.81-16.79M545.67 963.42l24.81-16.78M548.01 1019.31l24.81-16.79M550.44 1077.16l24.81-16.79M552.79 1133.04l24.81-16.79M555.24 1191.44l24.81-16.79M557.68 1249.74l24.81-16.78M568.18 1290.9l14.31-9.68M536.58 746.99l24.82-16.79M531.29 620.84l24.81-16.78M547.49 575.26l8.61-5.83M531.81 633.22l24.81-16.78M538.97 803.75l24.81-16.78M541.4 861.69l24.81-16.79M543.78 918.45l24.81-16.78M546.14 974.76l24.81-16.79M548.53 1031.52l24.81-16.79M550.96 1089.46l24.81-16.79M553.34 1146.22l24.81-16.79M555.77 1204.24l24.81-16.79M558.16 1261l24.81-16.79M375.44 697.6l-26.13-14.65M377.8 753.66l-26.13-14.65M380.18 810.42l-26.13-14.65M382.61 868.35l-26.13-14.64M384.99 925.12l-26.13-14.65M387.36 981.42l-26.13-14.65M389.74 1038.18l-26.13-14.65M392.17 1096.12l-26.13-14.65M394.55 1152.88l-26.13-14.65M396.99 1210.9l-26.13-14.65M399.37 1267.66l-26.13-14.65M382.75 1295.27l-9.51-5.33M374.93 685.32l-26.13-14.65M377.28 741.38l-26.13-14.65M372.87 636.14l-26.14-14.65M372.35 623.86l-26.13-14.65M379.66 798.14l-26.13-14.65M382.1 856.08l-26.14-14.65M384.48 912.84l-26.13-14.65M386.84 969.14l-26.13-14.65M389.22 1025.9l-26.13-14.65M391.65 1083.84l-26.13-14.65M394.04 1140.6l-26.13-14.65M396.47 1198.62l-26.13-14.65M398.85 1255.38l-26.13-14.65" fill="none" stroke="#d6d6d2" stroke-linecap="round" stroke-linejoin="round" stroke-width="6"/><rect x="496.31" y="719.36" width="22.3" height="43.8" rx="11.15" transform="rotate(-67.98 507.478 741.262)" stroke-width="6" stroke="#d6d6d2" stroke-linecap="round" stroke-linejoin="round" fill="none"/><rect x="495.27" y="694.6" width="22.3" height="43.8" rx="11.15" transform="rotate(-67.98 506.437 716.505)" stroke-width="6" stroke="#d6d6d2" stroke-linecap="round" stroke-linejoin="round" fill="none"/><rect x="498.45" y="770.34" width="22.3" height="43.8" rx="11.15" transform="rotate(-67.98 509.615 792.247)" stroke-width="6" stroke="#d6d6d2" stroke-linecap="round" stroke-linejoin="round" fill="none"/><rect x="497.41" y="745.59" width="22.3" height="43.8" rx="11.15" transform="rotate(-67.98 508.574 767.49)" stroke-width="6" stroke="#d6d6d2" stroke-linecap="round" stroke-linejoin="round" fill="none"/><rect x="500.5" y="819.15" width="22.3" height="43.8" rx="11.15" transform="rotate(-67.98 511.664 841.058)" stroke-width="6" stroke="#d6d6d2" stroke-linecap="round" stroke-linejoin="round" fill="none"/><rect x="499.46" y="794.39" width="22.3" height="43.8" rx="11.15" transform="rotate(-67.98 510.628 816.294)" stroke-width="6" stroke="#d6d6d2" stroke-linecap="round" stroke-linejoin="round" fill="none"/><path d="M511.25 608.23l5.13 2.08a11.19 11.19 0 016.15 14.52h0A11.18 11.18 0 01508 631l-19.92-8.06a11.12 11.12 0 01-6.27-6.49" fill="none" stroke="#d6d6d2" stroke-linecap="round" stroke-linejoin="round" stroke-width="6"/><rect x="493.22" y="645.71" width="22.3" height="43.8" rx="11.15" transform="rotate(-67.98 504.386 667.617)" stroke-width="6" stroke="#d6d6d2" stroke-linecap="round" stroke-linejoin="round" fill="none"/><rect x="492.18" y="620.95" width="22.3" height="43.8" rx="11.15" transform="rotate(-67.98 503.35 642.853)" stroke-width="6" stroke="#d6d6d2" stroke-linecap="round" stroke-linejoin="round" fill="none"/><rect x="495.27" y="694.51" width="22.3" height="43.8" rx="11.15" transform="rotate(-67.98 506.433 716.416)" stroke-width="6" stroke="#d6d6d2" stroke-linecap="round" stroke-linejoin="round" fill="none"/><rect x="494.23" y="669.76" width="22.3" height="43.8" rx="11.15" transform="rotate(-67.98 505.391 691.66)" stroke-width="6" stroke="#d6d6d2" stroke-linecap="round" stroke-linejoin="round" fill="none"/><rect x="502.64" y="870.14" width="22.3" height="43.8" rx="11.15" transform="rotate(-67.98 513.808 892.048)" stroke-width="6" stroke="#d6d6d2" stroke-linecap="round" stroke-linejoin="round" fill="none"/><rect x="501.6" y="845.38" width="22.3" height="43.8" rx="11.15" transform="rotate(-67.98 512.767 867.291)" stroke-width="6" stroke="#d6d6d2" stroke-linecap="round" stroke-linejoin="round" fill="none"/><rect x="504.73" y="919.89" width="22.3" height="43.8" rx="11.15" transform="rotate(-67.98 515.897 941.793)" stroke-width="6" stroke="#d6d6d2" stroke-linecap="round" stroke-linejoin="round" fill="none"/><rect x="503.69" y="895.13" width="22.3" height="43.8" rx="11.15" transform="rotate(-67.98 514.856 917.036)" stroke-width="6" stroke="#d6d6d2" stroke-linecap="round" stroke-linejoin="round" fill="none"/><rect x="506.87" y="970.88" width="22.3" height="43.8" rx="11.15" transform="rotate(-67.98 518.029 992.785)" stroke-width="6" stroke="#d6d6d2" stroke-linecap="round" stroke-linejoin="round" fill="none"/><rect x="505.83" y="946.12" width="22.3" height="43.8" rx="11.15" transform="rotate(-67.98 517 968.026)" stroke-width="6" stroke="#d6d6d2" stroke-linecap="round" stroke-linejoin="round" fill="none"/><rect x="508.91" y="1019.68" width="22.3" height="43.8" rx="11.15" transform="rotate(-67.98 520.083 1041.589)" stroke-width="6" stroke="#d6d6d2" stroke-linecap="round" stroke-linejoin="round" fill="none"/><rect x="507.87" y="994.92" width="22.3" height="43.8" rx="11.15" transform="rotate(-67.98 519.042 1016.832)" stroke-width="6" stroke="#d6d6d2" stroke-linecap="round" stroke-linejoin="round" fill="none"/><rect x="511.05" y="1070.67" width="22.3" height="43.8" rx="11.15" transform="rotate(-67.98 522.227 1092.579)" stroke-width="6" stroke="#d6d6d2" stroke-linecap="round" stroke-linejoin="round" fill="none"/><rect x="510.01" y="1045.91" width="22.3" height="43.8" rx="11.15" transform="rotate(-67.98 521.186 1067.822)" stroke-width="6" stroke="#d6d6d2" stroke-linecap="round" stroke-linejoin="round" fill="none"/><rect x="513.11" y="1119.66" width="22.3" height="43.8" rx="11.15" transform="rotate(-67.98 524.278 1141.564)" stroke-width="6" stroke="#d6d6d2" stroke-linecap="round" stroke-linejoin="round" fill="none"/><rect x="512.07" y="1094.9" width="22.3" height="43.8" rx="11.15" transform="rotate(-67.98 523.244 1116.812)" stroke-width="6" stroke="#d6d6d2" stroke-linecap="round" stroke-linejoin="round" fill="none"/><rect x="515.25" y="1170.65" width="22.3" height="43.8" rx="11.15" transform="rotate(-67.98 526.422 1192.553)" stroke-width="6" stroke="#d6d6d2" stroke-linecap="round" stroke-linejoin="round" fill="none"/><rect x="514.21" y="1145.89" width="22.3" height="43.8" rx="11.15" transform="rotate(-67.98 525.38 1167.797)" stroke-width="6" stroke="#d6d6d2" stroke-linecap="round" stroke-linejoin="round" fill="none"/><rect x="517.3" y="1219.45" width="22.3" height="43.8" rx="11.15" transform="rotate(-67.98 528.47 1241.365)" stroke-width="6" stroke="#d6d6d2" stroke-linecap="round" stroke-linejoin="round" fill="none"/><rect x="516.26" y="1194.69" width="22.3" height="43.8" rx="11.15" transform="rotate(-67.98 527.43 1216.608)" stroke-width="6" stroke="#d6d6d2" stroke-linecap="round" stroke-linejoin="round" fill="none"/><rect x="518.4" y="1245.68" width="22.3" height="43.8" rx="11.15" transform="rotate(-67.98 529.566 1267.593)" stroke-width="6" stroke="#d6d6d2" stroke-linecap="round" stroke-linejoin="round" fill="none"/><path d="M509.33 1291.86a11.14 11.14 0 01-.08-8.53h0a11.19 11.19 0 0114.52-6.15l19.93 8.06a11.16 11.16 0 016.85 8.8M406.54 1294.17a11 11 0 01.56-6.48h0a11.18 11.18 0 0114.52-6.16l19.92 8.06a11.06 11.06 0 015.94 5.68" fill="none" stroke="#d6d6d2" stroke-linecap="round" stroke-linejoin="round" stroke-width="6"/><rect x="394.75" y="723.62" width="22.3" height="43.8" rx="11.15" transform="rotate(-67.98 405.918 745.52)" stroke-width="6" stroke="#d6d6d2" stroke-linecap="round" stroke-linejoin="round" fill="none"/><rect x="393.71" y="698.86" width="22.3" height="43.8" rx="11.15" transform="rotate(-67.98 404.877 720.764)" stroke-width="6" stroke="#d6d6d2" stroke-linecap="round" stroke-linejoin="round" fill="none"/><rect x="396.89" y="774.61" width="22.3" height="43.8" rx="11.15" transform="rotate(-67.98 408.062 796.51)" stroke-width="6" stroke="#d6d6d2" stroke-linecap="round" stroke-linejoin="round" fill="none"/><rect x="395.85" y="749.85" width="22.3" height="43.8" rx="11.15" transform="rotate(-67.98 407.021 771.754)" stroke-width="6" stroke="#d6d6d2" stroke-linecap="round" stroke-linejoin="round" fill="none"/><rect x="398.94" y="823.41" width="22.3" height="43.8" rx="11.15" transform="rotate(-67.98 410.104 845.317)" stroke-width="6" stroke="#d6d6d2" stroke-linecap="round" stroke-linejoin="round" fill="none"/><rect x="397.9" y="798.65" width="22.3" height="43.8" rx="11.15" transform="rotate(-67.98 409.063 820.56)" stroke-width="6" stroke="#d6d6d2" stroke-linecap="round" stroke-linejoin="round" fill="none"/><rect x="390.64" y="625.59" width="22.3" height="43.8" rx="11.15" transform="rotate(-67.98 401.8 647.496)" stroke-width="6" stroke="#d6d6d2" stroke-linecap="round" stroke-linejoin="round" fill="none"/><path d="M414.9 616.43a11.19 11.19 0 016.15 14.57h0a11.19 11.19 0 01-14.52 6.15l-19.92-8.05a11.19 11.19 0 01-6.16-14.52h0a11.13 11.13 0 016-6.08" fill="none" stroke="#d6d6d2" stroke-linecap="round" stroke-linejoin="round" stroke-width="6"/><rect x="392.69" y="674.4" width="22.3" height="43.8" rx="11.15" transform="rotate(-67.98 403.849 696.307)" stroke-width="6" stroke="#d6d6d2" stroke-linecap="round" stroke-linejoin="round" fill="none"/><rect x="391.65" y="649.64" width="22.3" height="43.8" rx="11.15" transform="rotate(-67.98 402.808 671.55)" stroke-width="6" stroke="#d6d6d2" stroke-linecap="round" stroke-linejoin="round" fill="none"/><rect x="401.08" y="874.4" width="22.3" height="43.8" rx="11.15" transform="rotate(-67.98 412.248 896.307)" stroke-width="6" stroke="#d6d6d2" stroke-linecap="round" stroke-linejoin="round" fill="none"/><rect x="400.04" y="849.64" width="22.3" height="43.8" rx="11.15" transform="rotate(-67.98 411.207 871.55)" stroke-width="6" stroke="#d6d6d2" stroke-linecap="round" stroke-linejoin="round" fill="none"/><rect x="403.17" y="924.15" width="22.3" height="43.8" rx="11.15" transform="rotate(-67.98 414.332 946.058)" stroke-width="6" stroke="#d6d6d2" stroke-linecap="round" stroke-linejoin="round" fill="none"/><rect x="402.13" y="899.39" width="22.3" height="43.8" rx="11.15" transform="rotate(-67.98 413.29 921.302)" stroke-width="6" stroke="#d6d6d2" stroke-linecap="round" stroke-linejoin="round" fill="none"/><rect x="405.31" y="975.14" width="22.3" height="43.8" rx="11.15" transform="rotate(-67.98 416.476 997.048)" stroke-width="6" stroke="#d6d6d2" stroke-linecap="round" stroke-linejoin="round" fill="none"/><rect x="404.27" y="950.38" width="22.3" height="43.8" rx="11.15" transform="rotate(-67.98 415.435 972.291)" stroke-width="6" stroke="#d6d6d2" stroke-linecap="round" stroke-linejoin="round" fill="none"/><rect x="407.36" y="1023.94" width="22.3" height="43.8" rx="11.15" transform="rotate(-68.3 414.33 1041.911)" stroke-width="6" stroke="#d6d6d2" stroke-linecap="round" stroke-linejoin="round" fill="none"/><rect x="406.32" y="999.19" width="22.3" height="43.8" rx="11.15" transform="rotate(-67.98 417.489 1021.095)" stroke-width="6" stroke="#d6d6d2" stroke-linecap="round" stroke-linejoin="round" fill="none"/><rect x="409.5" y="1074.93" width="22.3" height="43.8" rx="11.15" transform="rotate(-67.98 420.662 1096.844)" stroke-width="6" stroke="#d6d6d2" stroke-linecap="round" stroke-linejoin="round" fill="none"/><rect x="408.46" y="1050.17" width="22.3" height="43.8" rx="11.15" transform="rotate(-67.98 419.625 1072.08)" stroke-width="6" stroke="#d6d6d2" stroke-linecap="round" stroke-linejoin="round" fill="none"/><rect x="411.55" y="1123.92" width="22.3" height="43.8" rx="11.15" transform="rotate(-67.98 422.72 1145.834)" stroke-width="6" stroke="#d6d6d2" stroke-linecap="round" stroke-linejoin="round" fill="none"/><rect x="410.51" y="1099.16" width="22.3" height="43.8" rx="11.15" transform="rotate(-68.3 417.305 1116.787)" stroke-width="6" stroke="#d6d6d2" stroke-linecap="round" stroke-linejoin="round" fill="none"/><rect x="413.69" y="1174.91" width="22.3" height="43.8" rx="11.15" transform="rotate(-67.98 424.856 1196.82)" stroke-width="6" stroke="#d6d6d2" stroke-linecap="round" stroke-linejoin="round" fill="none"/><rect x="412.65" y="1150.15" width="22.3" height="43.8" rx="11.15" transform="rotate(-67.98 423.823 1172.067)" stroke-width="6" stroke="#d6d6d2" stroke-linecap="round" stroke-linejoin="round" fill="none"/><rect x="415.74" y="1223.71" width="22.3" height="43.8" rx="11.15" transform="rotate(-68.3 422.239 1240.775)" stroke-width="6" stroke="#d6d6d2" stroke-linecap="round" stroke-linejoin="round" fill="none"/><rect x="414.7" y="1198.96" width="22.3" height="43.8" rx="11.15" transform="rotate(-67.98 425.87 1220.866)" stroke-width="6" stroke="#d6d6d2" stroke-linecap="round" stroke-linejoin="round" fill="none"/><rect x="416.84" y="1249.95" width="22.3" height="43.8" rx="11.15" transform="rotate(-67.98 428.013 1271.856)" stroke-width="6" stroke="#d6d6d2" stroke-linecap="round" stroke-linejoin="round" fill="none"/></svg>