<svg xmlns="http://www.w3.org/2000/svg" width="1000" height="1550" viewBox="0 0 1000 1550"><path d="M676.34 601.25C665.45 594.15 526.81 528 526.81 528s-9 42.67-63.91 47.58c-64.83 5.79-86.64-36-90.76-48.14l-87.91 73.8" fill="#fff" stroke="#262521" stroke-linecap="round" stroke-linejoin="round" stroke-width="3"/><path d="M296.22 1019s-11.62 57.38-21.45 88.33-13.09 105-15.36 135.22c-1 12.66 4.65 27 4.65 27l-61 1.5c-16.33-18.74-8.92-129.52-14.45-197.94A619.79 619.79 0 01192.25 945s-18.05-297.29 26.68-324.24 145.46-89.52 145.46-89.52-.24-.24.73 2.61c4.11 12.15 21.13 51.38 86.21 51.38 80.35 0 82.84-55 82.84-55s131.41 49.11 142.29 56.21c38.3 25 52.89 331.94 52.89 331.94s19 68.76 22.88 124.63c5.58 81.26 18.66 177.57 17.85 189.79s-5.3 18.89-5.3 18.89h-58.1s-1.25-8-2.89-34.36c-2.47-39.8-31-134-48.07-177.22" fill="#fff" stroke="#262521" stroke-linecap="round" stroke-linejoin="round" stroke-width="3"/><path d="M711 1220.48s30.63-3.83 52.36 0M200.27 1238s30.63-3.83 52.37 0M353 546.43s21.5 56.9 100.8 56.9 94.27-62 94.27-62" fill="none" stroke="#636363" stroke-linecap="round" stroke-linejoin="round"/><path fill="none" stroke="#636363" stroke-linecap="round" stroke-linejoin="round" d="M425.93 601.08l28.03 44.28 26.24-44.53M537.53 563.25s98.28 70.26 112.5 115.2M366.37 567.22s-98.29 70.27-112.51 115.2"/><path d="M678 1225.79s9.18 34.21 6.13 45.9-62.43-5.22-174.82 13.26c-114 18.74-231.65 7.83-235.53-3s4.9-56.15 4.9-56.15z" fill="#fff" stroke="#262521" stroke-linecap="round" stroke-miterlimit="10" stroke-width="3"/><path d="M285.65 807.61s5.34 199.1 3.83 238.13c-.83 21.49-23.3 121.8-11 149 0 13-6.32 43-6.32 43s73.26 22.14 150.25 21.21c137.53-1.65 263.37-26.63 263.37-26.63s-6.68-30-7.46-43.64c14.5-25-19.07-143.81-20.87-213.76-1.22-47.59-16.09-167.28-16.09-167.28" fill="#fff" stroke="#262521" stroke-linecap="round" stroke-linejoin="round" stroke-width="3"/><path d="M289.48 1199.78S455 1230.3 662.63 1195" fill="none" stroke="#636363" stroke-linecap="round" stroke-linejoin="round"/><path d="M374.38 528.8s12.75 107.08 76.95 107.08 74.87-107.55 74.87-107.55" fill="none" stroke="#262521" stroke-linecap="round" stroke-linejoin="round" stroke-width="8.27" stroke-dasharray="1.65 4.96"/><path d="M378.4 545.72a1.65 1.65 0 01-1.62-1.31l-.34-1.63a1.65 1.65 0 113.24-.66l.33 1.6a1.65 1.65 0 01-1.27 2 2 2 0 01-.34 0zM450 636a1.65 1.65 0 110-3.3l1.6-.05a1.66 1.66 0 01.15 3.31h-1.71zm-5-.19h-.16c-.57-.05-1.13-.12-1.7-.19a1.65 1.65 0 11.42-3.28l1.59.18a1.64 1.64 0 011.49 1.79 1.66 1.66 0 01-1.64 1.52zm11.53-.3a1.66 1.66 0 01-.22-3.3l1.59-.23a1.65 1.65 0 11.54 3.26c-.56.09-1.12.18-1.68.25zm-18-.78a1.72 1.72 0 01-.39 0c-.56-.14-1.11-.28-1.66-.44a1.63 1.63 0 01-1.14-2 1.66 1.66 0 012-1.15c.5.14 1 .28 1.54.4a1.65 1.65 0 01-.39 3.26zm24.51-.48a1.66 1.66 0 01-.41-3.26c.52-.13 1-.27 1.55-.42a1.66 1.66 0 012 1.14 1.64 1.64 0 01-1.13 2c-.54.16-1.09.31-1.64.45a2 2 0 01-.41.11zm-30.79-1.52a1.66 1.66 0 01-.61-.12c-.53-.21-1.06-.43-1.58-.66a1.66 1.66 0 011.34-3c.48.22 1 .42 1.47.62a1.65 1.65 0 01-.62 3.19zm37.07-.49a1.66 1.66 0 01-.6-3.2c.5-.19 1-.39 1.48-.6a1.66 1.66 0 011.3 3l-1.58.64a1.81 1.81 0 01-.6.18zm-43-2.37a1.63 1.63 0 01-.82-.22c-.49-.28-1-.56-1.47-.86a1.65 1.65 0 111.73-2.82l1.37.81a1.65 1.65 0 01-.81 3.09zm-19.48-17.62a1.64 1.64 0 01-1.31-.64l-1-1.35a1.66 1.66 0 012.66-2c.32.44.65.87 1 1.3a1.65 1.65 0 01-1.31 2.66zm-3.84-5.36a1.64 1.64 0 01-1.37-.73c-.32-.47-.62-.93-.93-1.4a1.66 1.66 0 112.78-1.8c.29.45.59.91.9 1.36a1.66 1.66 0 01-.46 2.29 1.63 1.63 0 01-.92.28zm100-5.07a1.7 1.7 0 01-.86-.24 1.65 1.65 0 01-.55-2.27l.85-1.4a1.65 1.65 0 012.84 1.68l-.87 1.44a1.64 1.64 0 01-1.41.79zm-103.56-.53a1.67 1.67 0 01-1.43-.82l-.81-1.47a1.65 1.65 0 012.87-1.64l.83 1.42a1.65 1.65 0 01-.6 2.26 1.68 1.68 0 01-.83.25zm106.86-5.22a1.65 1.65 0 01-1.46-2.43l.77-1.45a1.65 1.65 0 112.93 1.53l-.78 1.48a1.65 1.65 0 01-1.43.87zm-110.08-.57a1.65 1.65 0 01-1.46-.88l-.77-1.49a1.65 1.65 0 112.94-1.5l.75 1.45a1.65 1.65 0 01-.69 2.23 1.62 1.62 0 01-.74.19zm113.06-5.34a1.78 1.78 0 01-.7-.16 1.65 1.65 0 01-.79-2.2l.69-1.49a1.65 1.65 0 013 1.38l-.7 1.52a1.65 1.65 0 01-1.47.95zm-116-.6a1.65 1.65 0 01-1.49-.94l-.71-1.52a1.66 1.66 0 113-1.38c.23.5.45 1 .69 1.48a1.67 1.67 0 01-.79 2.21 1.78 1.78 0 01-.68.15zM512 584.11a1.83 1.83 0 01-.64-.13 1.66 1.66 0 01-.89-2.17l.63-1.51a1.65 1.65 0 113.06 1.25l-.63 1.54a1.67 1.67 0 01-1.53 1.02zm-121.41-.59a1.65 1.65 0 01-1.52-1l-.64-1.54a1.65 1.65 0 113.05-1.26l.63 1.5a1.65 1.65 0 01-1.52 2.3zM514.44 578a1.75 1.75 0 01-.58-.11 1.66 1.66 0 01-1-2.13l.57-1.53a1.65 1.65 0 113.11 1.12c-.19.52-.38 1.05-.58 1.57a1.67 1.67 0 01-1.52 1.08zm-126.32-.56a1.66 1.66 0 01-1.54-1.06l-.6-1.56a1.66 1.66 0 013.1-1.17l.58 1.54a1.65 1.65 0 01-1 2.14 1.71 1.71 0 01-.54.06zm128.52-5.69a1.58 1.58 0 01-.52-.09 1.65 1.65 0 01-1-2.09l.51-1.55a1.65 1.65 0 113.15 1c-.17.53-.34 1.06-.52 1.59a1.66 1.66 0 01-1.62 1.09zm-130.8-.53a1.66 1.66 0 01-1.56-1.11l-.55-1.58a1.65 1.65 0 113.13-1.07l.54 1.56a1.66 1.66 0 01-1 2.11 1.7 1.7 0 01-.56.04zm132.78-5.8a1.49 1.49 0 01-.47-.07 1.65 1.65 0 01-1.12-2l.45-1.58a1.66 1.66 0 013.19.91l-.47 1.6a1.65 1.65 0 01-1.58 1.09zm-134.88-.49a1.65 1.65 0 01-1.57-1.15l-.5-1.59a1.66 1.66 0 013.16-1l.49 1.58a1.65 1.65 0 01-1.08 2.07 1.42 1.42 0 01-.5.04zM520.38 559a1.84 1.84 0 01-.41-.05 1.66 1.66 0 01-1.19-2c.14-.53.28-1.06.41-1.59a1.65 1.65 0 013.21.8l-.42 1.63a1.65 1.65 0 01-1.6 1.21zm-138.56-.44a1.65 1.65 0 01-1.59-1.2l-.46-1.6a1.65 1.65 0 013.18-.9l.46 1.58a1.65 1.65 0 01-1.13 2.05 1.51 1.51 0 01-.46.05zm140.14-6a1.5 1.5 0 01-.37 0 1.66 1.66 0 01-1.25-2l.36-1.61a1.65 1.65 0 013.23.72l-.36 1.62a1.66 1.66 0 01-1.57 1.25zm-141.9-.39a1.64 1.64 0 01-1.6-1.24l-.46-1.63a1.65 1.65 0 113.2-.82l.42 1.59a1.66 1.66 0 01-1.18 2 1.52 1.52 0 01-.38.08zm143.28-6.1h-.33a1.65 1.65 0 01-1.29-1.94l.31-1.62a1.66 1.66 0 013.25.63l-.32 1.63a1.65 1.65 0 01-1.62 1.28zm1.2-6.52a1.27 1.27 0 01-.28 0 1.65 1.65 0 01-1.36-1.9q.15-.84.27-1.62a1.66 1.66 0 113.27.52l-.27 1.65a1.66 1.66 0 01-1.63 1.33zM377 539.24a1.64 1.64 0 01-1.61-1.31l-.34-1.64a1.65 1.65 0 113.24-.66l.33 1.61a1.65 1.65 0 01-1.27 2 1.34 1.34 0 01-.35 0zM525.54 533h-.23a1.66 1.66 0 01-1.41-1.86c.08-.59.15-1.13.21-1.63a1.66 1.66 0 013.29.41c-.07.51-.14 1.06-.22 1.66a1.66 1.66 0 01-1.64 1.42zm-149.85-.23a1.66 1.66 0 01-1.62-1.36l-.3-1.64a1.66 1.66 0 113.26-.58l.29 1.62a1.66 1.66 0 01-1.32 1.89z" fill="#b7b6b0"/><path d="M451.57 638.58h-1.7a1.66 1.66 0 11.13-3.31h1.61a1.66 1.66 0 010 3.31zm4.95-.17a1.65 1.65 0 01-.14-3.3c.54 0 1.07-.1 1.6-.15a1.65 1.65 0 11.37 3.28c-.56.07-1.13.12-1.7.17zm-11.52-.29h-.22l-1.69-.25a1.65 1.65 0 11.54-3.26l1.58.23a1.66 1.66 0 01-.21 3.3zm18.07-.65a1.65 1.65 0 01-.34-3.27l1.56-.35a1.65 1.65 0 11.78 3.21c-.55.14-1.1.26-1.66.38zm-24.55-.64a1.65 1.65 0 01-.43-.06c-.55-.14-1.09-.3-1.64-.46a1.66 1.66 0 111-3.17l1.53.44a1.65 1.65 0 01-.42 3.25zm30.91-1.12a1.66 1.66 0 01-.54-3.22l1.5-.55a1.65 1.65 0 111.19 3.08c-.53.21-1.06.41-1.6.59a1.52 1.52 0 01-.57.1zm-37.17-1a1.58 1.58 0 01-.63-.13c-.52-.21-1.05-.44-1.56-.67a1.65 1.65 0 111.34-3q.74.33 1.47.63a1.66 1.66 0 01-.62 3.19zm43.25-1.6a1.65 1.65 0 01-.74-3.13c.48-.24.95-.49 1.42-.74a1.65 1.65 0 111.58 2.9c-.5.28-1 .54-1.52.79a1.65 1.65 0 01-.76.2zm-49.2-1.27a1.69 1.69 0 01-.81-.21c-.49-.28-1-.56-1.46-.85a1.65 1.65 0 111.69-2.84c.46.27.92.54 1.39.8a1.66 1.66 0 01-.81 3.1zm-5.58-3.54a1.62 1.62 0 01-1-.31c-.46-.33-.92-.66-1.37-1a1.65 1.65 0 112-2.64c.43.32.86.64 1.3 1a1.66 1.66 0 01-1 3zm79.19-17.05a1.65 1.65 0 01-1.34-2.62c.32-.44.63-.88.94-1.33a1.66 1.66 0 012.72 1.89l-1 1.38a1.65 1.65 0 01-1.34.7zm-97.59-1.83a1.65 1.65 0 01-1.34-.69l-1-1.38a1.65 1.65 0 012.72-1.88l.94 1.33a1.65 1.65 0 01-.37 2.3 1.7 1.7 0 01-.97.34zm101.29-3.66a1.65 1.65 0 01-1.4-2.53c.28-.46.57-.92.85-1.39a1.66 1.66 0 112.83 1.73L505 605a1.65 1.65 0 01-1.4.78zm-105-1.84a1.65 1.65 0 01-1.4-.77l-.89-1.42a1.66 1.66 0 112.82-1.74c.28.47.58.93.87 1.4a1.65 1.65 0 01-1.4 2.53zM507 600.08a1.55 1.55 0 01-.8-.21 1.65 1.65 0 01-.65-2.24c.27-.48.53-1 .79-1.44a1.65 1.65 0 112.91 1.56c-.26.5-.53 1-.8 1.48a1.66 1.66 0 01-1.45.85zm-111.77-1.83a1.66 1.66 0 01-1.44-.84c-.28-.49-.55-1-.82-1.47a1.65 1.65 0 012.9-1.59c.26.48.53.95.8 1.43A1.64 1.64 0 01396 598a1.62 1.62 0 01-.81.25zm114.84-4a1.77 1.77 0 01-.73-.17 1.66 1.66 0 01-.75-2.22c.24-.49.48-1 .71-1.47a1.66 1.66 0 013 1.42c-.24.51-.49 1-.73 1.51a1.66 1.66 0 01-1.57.88zm-118-1.79a1.66 1.66 0 01-1.48-.91l-.75-1.49a1.66 1.66 0 113-1.47c.24.49.48 1 .73 1.46a1.67 1.67 0 01-.72 2.23 1.69 1.69 0 01-.79.13zm120.76-4.22a1.55 1.55 0 01-.66-.15 1.65 1.65 0 01-.85-2.18c.22-.5.44-1 .65-1.5a1.65 1.65 0 013 1.3l-.66 1.54a1.67 1.67 0 01-1.49.94zm-123.64-1.75a1.67 1.67 0 01-1.51-1L387 584a1.65 1.65 0 013-1.35l.68 1.5a1.65 1.65 0 01-.81 2.19 1.72 1.72 0 01-.69.1zm126.19-4.38a1.87 1.87 0 01-.61-.11 1.66 1.66 0 01-.93-2.15l.6-1.53a1.65 1.65 0 113.08 1.19l-.6 1.56a1.65 1.65 0 01-1.55.99zm-128.85-1.69a1.67 1.67 0 01-1.53-1l-.63-1.55a1.65 1.65 0 113.06-1.24l.63 1.52a1.65 1.65 0 01-.89 2.16 1.63 1.63 0 01-.65.06zm131.17-4.52a1.76 1.76 0 01-.55-.09 1.65 1.65 0 01-1-2.11l.54-1.56a1.66 1.66 0 013.13 1.08l-.55 1.58a1.65 1.65 0 01-1.58 1.05zm-133.62-1.7a1.64 1.64 0 01-1.55-1.07l-.58-1.56a1.65 1.65 0 013.1-1.15l.57 1.55a1.65 1.65 0 01-1 2.13 1.69 1.69 0 01-.54.1zm135.72-4.64a1.68 1.68 0 01-.5-.07 1.66 1.66 0 01-1.08-2.08l.49-1.57a1.65 1.65 0 013.16 1l-.5 1.59a1.65 1.65 0 01-1.57 1.13zm-138-1.59a1.66 1.66 0 01-1.57-1.12l-.53-1.58a1.65 1.65 0 113.13-1l.53 1.55a1.66 1.66 0 01-1 2.11 1.7 1.7 0 01-.53.07zm139.88-4.76a1.74 1.74 0 01-.45-.06 1.66 1.66 0 01-1.14-2c.16-.53.3-1.05.45-1.57a1.65 1.65 0 113.19.87c-.15.54-.3 1.07-.46 1.61a1.65 1.65 0 01-1.56 1.15zm-142-1.54a1.67 1.67 0 01-1.58-1.16l-.49-1.6a1.65 1.65 0 013.16-1l.49 1.57a1.65 1.65 0 01-1.09 2.07 1.67 1.67 0 01-.41.12zm143.68-4.86a2 2 0 01-.41 0 1.66 1.66 0 01-1.19-2l.4-1.59a1.65 1.65 0 113.21.79l-.4 1.63a1.67 1.67 0 01-1.53 1.17zm-145.58-1.5a1.65 1.65 0 01-1.59-1.2l-.45-1.61a1.65 1.65 0 113.19-.88l.44 1.58a1.66 1.66 0 01-1.13 2 1.88 1.88 0 01-.38.11zM525 550.36a2.33 2.33 0 01-.37 0 1.65 1.65 0 01-1.24-2l.35-1.61a1.66 1.66 0 013.24.71l-.37 1.63a1.65 1.65 0 01-1.61 1.27zm-148.87-1.46a1.65 1.65 0 01-1.6-1.24l-.41-1.61a1.66 1.66 0 113.21-.81l.41 1.6a1.66 1.66 0 01-1.2 2 1.4 1.4 0 01-.41.06zm150.25-5a1.73 1.73 0 01-.32 0 1.64 1.64 0 01-1.3-1.94l.31-1.61a1.65 1.65 0 013.25.61l-.32 1.64a1.65 1.65 0 01-1.62 1.26zm-151.81-1.41a1.64 1.64 0 01-1.61-1.28l-.37-1.63a1.65 1.65 0 113.23-.71l.36 1.6a1.65 1.65 0 01-1.24 2 1.61 1.61 0 01-.37-.02zm153-5.12a1.32 1.32 0 01-.28 0 1.66 1.66 0 01-1.29-1.97l.27-1.62a1.66 1.66 0 013.27.52l-.27 1.65a1.66 1.66 0 01-1.68 1.38zM373.17 536a1.66 1.66 0 01-1.62-1.32q-.18-.87-.33-1.65a1.65 1.65 0 113.25-.62c.1.5.21 1 .32 1.61a1.66 1.66 0 01-1.29 1.95 1.84 1.84 0 01-.33.03z" fill="#7f7e78"/><path d="M475.32 629.51a1.63 1.63 0 01-1.46-.88 1.65 1.65 0 01.68-2.24l1.41-.77a1.65 1.65 0 011.64 2.87c-.49.28-1 .56-1.5.82a1.55 1.55 0 01-.77.2zm-54.52-3.23a1.63 1.63 0 01-1-.33c-.45-.33-.91-.68-1.35-1a1.65 1.65 0 112-2.6c.43.34.85.66 1.28 1a1.65 1.65 0 01-1 3zm60.17-.21a1.66 1.66 0 01-.94-3c.45-.3.88-.61 1.32-.93a1.65 1.65 0 011.94 2.68l-1.38 1a1.63 1.63 0 01-.91.25zm-65.25-4a1.67 1.67 0 01-1.12-.44l-1.23-1.16a1.65 1.65 0 012.3-2.38c.39.38.78.75 1.18 1.11a1.66 1.66 0 01-1.13 2.87zm70.48 0a1.65 1.65 0 01-1.07-2.91l1.21-1.06a1.65 1.65 0 012.21 2.46c-.42.38-.85.75-1.27 1.11a1.66 1.66 0 01-1.08.38zm4.81-4.51a1.69 1.69 0 01-1.16-.47 1.67 1.67 0 010-2.34q.57-.59 1.11-1.17a1.66 1.66 0 012.43 2.25q-.57.62-1.17 1.23a1.64 1.64 0 01-1.22.48zm-79.93-.19a1.66 1.66 0 01-1.23-.54c-.37-.42-.75-.84-1.11-1.27a1.65 1.65 0 112.5-2.16c.35.41.71.81 1.07 1.21a1.65 1.65 0 01-1.23 2.76zm84.33-4.75a1.62 1.62 0 01-1.05-.38 1.64 1.64 0 01-.23-2.32l1-1.26a1.65 1.65 0 112.59 2.05l-1.03 1.29a1.68 1.68 0 01-1.28.6zm4-5.25a1.65 1.65 0 01-1.35-2.61l.93-1.33a1.65 1.65 0 112.73 1.86c-.32.46-.63.92-1 1.38a1.66 1.66 0 01-1.32.68zM372 529.45a1.66 1.66 0 01-1.63-1.39l-.13-.84a1.66 1.66 0 013.28-.47l.12.78a1.67 1.67 0 01-1.37 1.9z" fill="#f4f4f4"/><path d="M481.21 629.82a1.64 1.64 0 01-1.38-.75 1.66 1.66 0 01.47-2.29q.66-.43 1.32-.9a1.65 1.65 0 011.9 2.71l-1.4.95a1.62 1.62 0 01-.91.28zm5.3-4a1.65 1.65 0 01-1.06-2.92l1.23-1.05a1.65 1.65 0 012.18 2.49l-1.29 1.1a1.64 1.64 0 01-1.06.43zm-71-1.66a1.61 1.61 0 01-1.08-.41c-.43-.37-.85-.75-1.27-1.13a1.66 1.66 0 112.24-2.44q.58.56 1.2 1.08a1.65 1.65 0 01-1.09 2.9zm75.87-2.81a1.66 1.66 0 01-1.18-2.82c.38-.38.76-.77 1.13-1.16a1.66 1.66 0 012.4 2.28c-.39.41-.78.81-1.18 1.21a1.63 1.63 0 01-1.16.54zm-80.65-1.76a1.62 1.62 0 01-1.19-.51l-1.16-1.23a1.66 1.66 0 112.43-2.25l1.11 1.19a1.66 1.66 0 01-1.19 2.8zm85.1-3.14a1.64 1.64 0 01-1.26-2.71l1-1.25a1.65 1.65 0 112.57 2.07c-.35.44-.71.87-1.07 1.3a1.63 1.63 0 01-1.23.64zm-89.49-1.81a1.64 1.64 0 01-1.28-.61c-.36-.43-.71-.87-1.06-1.31a1.65 1.65 0 112.59-2l1 1.26a1.66 1.66 0 01-1.27 2.71zM528.58 530.8h-.22a1.65 1.65 0 01-1.42-1.85l.09-.78a1.65 1.65 0 113.29.36s0 .29-.1.85a1.66 1.66 0 01-1.64 1.42z" fill="#f4f4f4"/></svg>