<svg xmlns="http://www.w3.org/2000/svg" width="1250" height="1550" viewBox="0 0 1250 1550"><title>s01e12-03</title><path d="M322.89,1262.79l3.44,22s50.26,9.39,64.93-5.41c3.48-3.51,0-31.27,0-31.27Z" fill="#fff" stroke="#262521" stroke-linecap="round" stroke-linejoin="round" stroke-width="3"/><path d="M825.91,1226.11l3.44,22s50.26,9.39,64.93-5.41c3.48-3.51,0-31.27,0-31.27Z" fill="#fff" stroke="#262521" stroke-linecap="round" stroke-linejoin="round" stroke-width="3"/><rect x="523.65" y="1151.2" width="149.27" height="133.77" stroke-width="3" stroke="#262521" stroke-linecap="round" stroke-linejoin="round" fill="#262521"/><path d="M658.24,530.89s-63,24.43-84.61,24.43-81.06-23.88-81.06-23.88l-97.08,65.27L581.55,844l188-270.23Z" fill="#fff" stroke="#262521" stroke-linecap="round" stroke-linejoin="round" stroke-width="3"/><path d="M499.93,523.91S512.67,631,576.87,631s74.87-107.55,74.87-107.55" fill="none" stroke="#262521" stroke-linecap="round" stroke-linejoin="round" stroke-width="8.27" stroke-dasharray="1.65 4.96"/><path d="M575.52,631.13a1.66,1.66,0,0,1,0-3.31c.53,0,1.06,0,1.6,0a1.67,1.67,0,0,1,1.72,1.58,1.64,1.64,0,0,1-1.57,1.72c-.58,0-1.15,0-1.71,0Zm-4.95-.2h-.16l-1.7-.19a1.65,1.65,0,1,1,.42-3.28c.53.07,1.06.12,1.59.17a1.65,1.65,0,0,1-.15,3.3Zm11.53-.29a1.66,1.66,0,0,1-.22-3.3l1.59-.23a1.65,1.65,0,1,1,.54,3.26l-1.68.25Zm-18-.78a1.31,1.31,0,0,1-.39-.05c-.56-.13-1.11-.27-1.66-.43a1.65,1.65,0,0,1,.9-3.18l1.54.4a1.65,1.65,0,0,1-.39,3.26Zm24.51-.48a1.66,1.66,0,0,1-.41-3.26c.52-.13,1-.27,1.55-.42a1.65,1.65,0,0,1,.91,3.18c-.54.16-1.09.31-1.64.45A2,2,0,0,1,588.58,629.38Zm-30.79-1.52a1.66,1.66,0,0,1-.61-.12c-.53-.21-1.06-.44-1.58-.67a1.65,1.65,0,0,1,1.34-3c.48.21,1,.42,1.47.62a1.65,1.65,0,0,1-.62,3.19Zm37.07-.49a1.66,1.66,0,0,1-.6-3.2c.5-.19,1-.39,1.48-.6a1.65,1.65,0,0,1,1.3,3c-.53.23-1,.44-1.58.64A1.61,1.61,0,0,1,594.86,627.37Zm-43-2.37a1.63,1.63,0,0,1-.82-.22l-1.47-.86a1.66,1.66,0,0,1,1.73-2.83c.45.28.91.55,1.37.82a1.65,1.65,0,0,1-.81,3.09Zm-19.48-17.62a1.62,1.62,0,0,1-1.31-.65l-1-1.34a1.66,1.66,0,0,1,2.66-2c.32.43.65.87,1,1.29a1.65,1.65,0,0,1-.3,2.32A1.61,1.61,0,0,1,532.39,607.38ZM528.53,602a1.66,1.66,0,0,1-1.37-.73c-.31-.47-.62-.93-.93-1.41a1.65,1.65,0,0,1,2.78-1.79c.29.45.59.91.9,1.36a1.66,1.66,0,0,1-.46,2.29A1.63,1.63,0,0,1,528.53,602Z" fill="#b7b6b0"/><path d="M577.11,633.69h0l-1.7,0a1.66,1.66,0,1,1,.13-3.31c.53,0,1.07,0,1.61,0a1.66,1.66,0,0,1,0,3.31Zm4.95-.17a1.65,1.65,0,0,1-.13-3.3l1.59-.16a1.66,1.66,0,1,1,.37,3.29c-.56.06-1.13.12-1.7.16Zm-11.54-.3h-.22l-1.69-.25a1.66,1.66,0,0,1,.54-3.27c.53.09,1.05.17,1.59.24a1.65,1.65,0,0,1-.22,3.29Zm18.07-.64a1.65,1.65,0,0,1-.34-3.27l1.56-.35a1.65,1.65,0,0,1,.79,3.21c-.56.14-1.11.26-1.67.38A2,2,0,0,1,588.59,632.58ZM564,631.94a1.65,1.65,0,0,1-.43-.06l-1.64-.46a1.66,1.66,0,0,1,1-3.17c.51.15,1,.3,1.54.43a1.66,1.66,0,0,1-.43,3.26ZM595,630.82a1.66,1.66,0,0,1-.54-3.22l1.5-.55a1.65,1.65,0,1,1,1.19,3.08c-.53.21-1.06.4-1.6.59A1.78,1.78,0,0,1,595,630.82Zm-37.17-1a1.67,1.67,0,0,1-.62-.12c-.53-.21-1-.44-1.57-.67a1.65,1.65,0,1,1,1.34-3c.49.22,1,.43,1.48.63a1.65,1.65,0,0,1-.63,3.18ZM601,628.24a1.66,1.66,0,0,1-.74-3.14c.48-.23,1-.48,1.42-.73a1.65,1.65,0,1,1,1.58,2.9c-.5.27-1,.54-1.52.79A1.65,1.65,0,0,1,601,628.24ZM551.83,627a1.72,1.72,0,0,1-.81-.21c-.49-.28-1-.56-1.46-.85a1.65,1.65,0,1,1,1.69-2.84c.46.27.92.54,1.39.8a1.66,1.66,0,0,1-.81,3.1Zm-5.58-3.54a1.64,1.64,0,0,1-1-.31c-.46-.33-.92-.66-1.37-1a1.66,1.66,0,1,1,2-2.65c.43.33.86.65,1.3,1a1.65,1.65,0,0,1,.39,2.31A1.68,1.68,0,0,1,546.25,623.43Zm-18.4-18.89a1.64,1.64,0,0,1-1.34-.68l-1-1.38a1.66,1.66,0,0,1,2.72-1.89c.31.45.62.89.94,1.33a1.66,1.66,0,0,1-.37,2.31A1.69,1.69,0,0,1,527.85,604.54Z" fill="#7f7e78"/><path d="M600.86,624.62a1.66,1.66,0,0,1-.78-3.12l1.41-.77a1.65,1.65,0,0,1,1.64,2.87c-.49.28-1,.55-1.5.82A1.67,1.67,0,0,1,600.86,624.62Zm-54.52-3.23a1.65,1.65,0,0,1-1-.33c-.45-.33-.9-.68-1.35-1a1.65,1.65,0,1,1,2-2.6l1.28,1a1.65,1.65,0,0,1-1,3Zm60.17-.21a1.66,1.66,0,0,1-.94-3c.45-.3.88-.61,1.32-.93a1.65,1.65,0,1,1,1.94,2.68c-.45.33-.92.66-1.38,1A1.7,1.7,0,0,1,606.51,621.18Zm-65.25-4a1.67,1.67,0,0,1-1.12-.44l-1.23-1.16a1.67,1.67,0,0,1,0-2.34,1.65,1.65,0,0,1,2.34,0l1.18,1.11a1.66,1.66,0,0,1-1.13,2.87Zm70.48,0a1.65,1.65,0,0,1-1.07-2.91l1.21-1.06a1.65,1.65,0,0,1,2.21,2.46l-1.27,1.11A1.64,1.64,0,0,1,611.74,617.16Zm4.81-4.52a1.64,1.64,0,0,1-1.19-2.8q.57-.58,1.11-1.17a1.66,1.66,0,0,1,2.43,2.25c-.38.41-.77.82-1.17,1.22A1.6,1.6,0,0,1,616.55,612.64Zm-79.93-.18a1.66,1.66,0,0,1-1.23-.54c-.37-.42-.75-.84-1.11-1.27a1.65,1.65,0,1,1,2.5-2.16c.35.41.71.81,1.07,1.21a1.65,1.65,0,0,1-1.23,2.76ZM621,607.71a1.67,1.67,0,0,1-1.05-.38,1.65,1.65,0,0,1-.23-2.33l1-1.25a1.65,1.65,0,1,1,2.59,2l-1,1.3A1.65,1.65,0,0,1,621,607.71Z" fill="#f4f4f4"/><path d="M606.75,624.92a1.65,1.65,0,0,1-.91-3l1.32-.9a1.65,1.65,0,0,1,1.9,2.7c-.46.33-.93.65-1.4,1A1.59,1.59,0,0,1,606.75,624.92Zm5.3-3.94a1.65,1.65,0,0,1-1.06-2.92l1.23-1a1.65,1.65,0,0,1,2.18,2.49l-1.29,1.1A1.64,1.64,0,0,1,612.05,621Zm-71-1.66a1.61,1.61,0,0,1-1.08-.41c-.43-.37-.85-.75-1.27-1.13a1.66,1.66,0,1,1,2.24-2.44l1.2,1.08a1.65,1.65,0,0,1-1.09,2.9Zm75.87-2.81a1.66,1.66,0,0,1-1.18-2.82c.38-.38.76-.77,1.13-1.16a1.66,1.66,0,0,1,2.4,2.28c-.39.41-.78.81-1.18,1.21A1.63,1.63,0,0,1,616.93,616.51Zm-80.65-1.77a1.62,1.62,0,0,1-1.19-.51c-.39-.4-.78-.81-1.16-1.22a1.66,1.66,0,0,1,2.43-2.25c.37.4.74.8,1.11,1.18a1.66,1.66,0,0,1-.05,2.34A1.63,1.63,0,0,1,536.28,614.74Zm85.1-3.13a1.64,1.64,0,0,1-1.26-2.71c.34-.42.69-.83,1-1.26a1.65,1.65,0,0,1,2.57,2.07c-.35.44-.71.88-1.07,1.31A1.63,1.63,0,0,1,621.38,611.61Zm-89.49-1.82a1.63,1.63,0,0,1-1.28-.6c-.36-.43-.71-.87-1.06-1.31a1.65,1.65,0,0,1,2.59-2.06l1,1.27a1.64,1.64,0,0,1-1.27,2.7Z" fill="#f4f4f4"/><path d="M563.33,596.5s-16,220.38-7.43,243.18,48.58,21.63,48.52-6.35S600.87,806.11,586,596.5Z" fill="#262521"/><path d="M585.74,560.29c-7.17-2-35.63,2.42-34.6,11.8,3.25,9,6.92,33.57,18.84,32.93,5.33-.43,14.27,2.31,16.56-4.12,3-11.25,16.25-30.67,3.35-39.21" fill="#262521"/><path d="M505.31,506.87s26.26,38.43,66.82,48.45l-69,73.32s-27.26-75.45-18.66-92.11A148.1,148.1,0,0,1,505.31,506.87Z" fill="#fff" stroke="#262521" stroke-linecap="round" stroke-linejoin="round" stroke-width="3"/><path d="M643.12,506.87s-15.39,39.69-67.8,48.45l69.95,73.32s30.78-73,22.18-89.66S643.12,506.87,643.12,506.87Z" fill="#fff" stroke="#262521" stroke-linecap="round" stroke-linejoin="round" stroke-width="3"/><path d="M877.23,1043c-3.83-55.87-37.47-431.58-75.77-456.57C768.14,564.75,716,543,678.75,530.32c-13.69-19.43-40.17-28.19-40-26,0,0,14.31,10.13,13.16,25.65-7.45,22.84-58.66,194.63-81.35,289.55-20-96-64.9-277.94-66.09-292.48-1-11.83,5.6-16.15,5.6-16.15l.28-6.84s-28.55,8-37.45,26.86c0,0-103.14,71.13-129,89.87-44.73,27-35.81,384-30.28,452.4,5.65,69.91,3,199.59,6.16,203.57,6.52,8.08,84.32-2.58,84.32-2.58l.52,25.49c18.35.81,403.59-15.42,403.59-15.42l-3-78.56,9.36,36.6c25.12.15,90.23-.41,90.88-10.27C906.28,1219.77,882.81,1124.28,877.23,1043Z" fill="#262521" stroke="#262521" stroke-linecap="round" stroke-linejoin="round" stroke-width="3"/><path d="M404.65,1299.64s106.28,11.57,155.17-26.56c24.19-18.87,35.39-67.21,35.39-67.21" fill="none" stroke="#636363" stroke-linecap="round" stroke-linejoin="round"/><path d="M652,530c-9.61,29.48-92.13,307.1-92.13,347.3,0,44.66,9,331.93,63.15,387.17,44.08,45,185.27,19.8,185.27,19.8" fill="none" stroke="#636363" stroke-linecap="round" stroke-linejoin="round"/><polygon points="648.64 739.41 655.36 714.71 744.86 732.21 746.46 739.41 648.64 739.41" fill="#fff"/><path d="M680.25,533.94S669,695.15,572.19,864.75" fill="none" stroke="#636363" stroke-linecap="round" stroke-linejoin="round"/><path d="M472.55,536.35s45.59,231,96.26,290.72" fill="none" stroke="#636363" stroke-linecap="round" stroke-linejoin="round"/><polyline points="644.15 739.41 750.64 739.41 750.64 763 635.89 763" fill="none" stroke="#636363" stroke-linecap="round" stroke-linejoin="round"/><circle cx="578.49" cy="890.81" r="5.63" fill="none" stroke="#636363" stroke-linecap="round" stroke-linejoin="round"/><circle cx="584.11" cy="987.53" r="5.63" fill="none" stroke="#636363" stroke-linecap="round" stroke-linejoin="round"/><path d="M790.34,1085.13h-98a12.1,12.1,0,0,1-12.07-12.07V1057.6c0-5.33,74.29-7,106.58-3.77" fill="none" stroke="#636363" stroke-linecap="round" stroke-linejoin="round"/><path d="M407.66,1059.05c35.53-2.53,88.2-.66,88.2,4.34v15.46a12.1,12.1,0,0,1-12.07,12.07l-75.41-.64" fill="none" stroke="#636363" stroke-linecap="round" stroke-linejoin="round"/></svg>