<svg xmlns="http://www.w3.org/2000/svg" width="1250" height="1550" viewBox="0 0 1250 1550"><path d="M417.73 1398.32s-21.1 175.81-18.59 179.34 102.8 3.75 114.21-5.57-24.24-185.33-32.06-186.17-63.56 12.4-63.56 12.4z" fill="#fff" stroke="#262521" stroke-linecap="round" stroke-miterlimit="10" stroke-width="3"/><path d="M407.15 1280.24s-21.15 175.81-18.59 179.34 102.79 3.76 114.2-5.56-24.23-185.34-32.06-186.17-63.55 12.39-63.55 12.39z" fill="#fff" stroke="#262521" stroke-linecap="round" stroke-miterlimit="10" stroke-width="3"/><path d="M404.44 1264.52s61.79 24.3 203.69 19.79S801 1248.13 801 1248.13l20.1 342.24-158.7-1.85-28.9-196.61-25.5 8.68-8.84 196.24-153.94-.22z" fill="#adaaa5" stroke="#262521" stroke-linecap="round" stroke-linejoin="round" stroke-width="3"/><path d="M543.57 1219.57s-11 173.12-9.33 176.79 69.21 2.16 69.21 2.16-5.53-186.31-11.34-187.6-48.54 8.65-48.54 8.65zM726.91 1432s-24.38 174.08-21.74 177.52 104.14-3 115.21-12.71S808 1441.53 800.18 1441s-73.27-9-73.27-9z" fill="#fff" stroke="#262521" stroke-linecap="round" stroke-miterlimit="10" stroke-width="3"/><path d="M793.17 1351.13s31.36 158 28.85 161.53-99.66-30.48-109.67-53.08z" fill="#fff" stroke="#262521" stroke-linecap="round" stroke-miterlimit="10" stroke-width="3"/><path d="M731 1280.24s-21.11 175.81-18.6 179.34 89.8-17.9 97.51-60.23-7.54-130.67-15.36-131.5-63.55 12.39-63.55 12.39zM589.43 1210.23s2.6 173.45 4.52 177 69.17-3.27 69.17-3.27-20.09-185.3-26-186.13-47.69 12.4-47.69 12.4z" fill="#fff" stroke="#262521" stroke-linecap="round" stroke-miterlimit="10" stroke-width="3"/><path d="M567.23 1198.44s-14.84 176.45-12.2 179.89 102.86.09 113.93-9.63-30.81-184.36-38.66-184.91-63.07 14.65-63.07 14.65z" fill="#fff" stroke="#262521" stroke-linecap="round" stroke-miterlimit="10" stroke-width="3"/><path d="M825.48 1175.63a119.12 119.12 0 0121.68-21.12 115.57 115.57 0 0130.77-17.25c-.13-2.17-.27-4.34-.4-6.54h-62.31c4.09 15.09 6.76 25.62 6.76 25.62zM338.42 1181.52a102.66 102.66 0 0129.6 8.16 82.31 82.31 0 0114.25 7.77l1.3-24.29s2.32-18.73 5.82-42.44h-65.78c1.2 17.36 2.36 34.55 3.28 50.11 3.85.09 7.7.27 11.53.69z" fill="#262521"/><path d="M644.66 526.05c1.74 1.49 25.47 11.29 32.85 14.26 18.44 7.36 13.5-37.83-28.24-54.1 0 0-8.11-3.48-11.53-4.08.73 13.38 2.94 40.51 6.92 43.92z" fill="#ccc1ac" stroke="#262521" stroke-linecap="round" stroke-linejoin="round" stroke-width="3"/><path d="M651.81 528s-9 42.67-63.91 47.58c-64.83 5.79-86.64-36-90.76-48.14l-87.91 73.8L598.45 724.9l202.89-123.65C790.45 594.15 651.81 528 651.81 528z" fill="#fff" stroke="#262521" stroke-linecap="round" stroke-linejoin="round" stroke-width="3"/><path d="M489.37 531.26h0s.01-.03 0 0zM882.74 1072.91l-3.11 1c-.89-10.42-1.7-20.79-2.4-30.92-3.83-55.87-22.88-124.63-22.88-124.63s-14.59-306.95-52.89-331.94c-7.53-4.92-72.81-30-112.29-44.91C671.62 534.9 701.54 648 621.19 648c-65.08 0-127-102-131.07-114.11a10.79 10.79 0 01-.75-2.59c-1 .65-100.94 62.69-145.44 89.5C299.2 647.71 317.25 945 317.25 945a619.79 619.79 0 00-3.6 128.12c1.12 13.79 1.7 29.31 2.07 45.45l-3.85-.43c-2.23 4.69-1 48.36 0 52.19s79 7.19 80.87 7.19 9.91-43 5.13-49.75l-2.75-.31a160.16 160.16 0 014.65-20.13c9.83-30.95 21.45-88.33 21.45-88.33l359.5 21.08c6 15.1 13.34 36.45 20.51 59.53l-3.36 1.1c1.24 5.85 5.91 30 14.93 42.6 11.14 15.55 69.21-12.75 71.62-14.81s1.12-54.69-1.68-55.59z" fill="#ccc1ac" stroke="#262521" stroke-linecap="round" stroke-linejoin="round" stroke-width="3"/><path d="M726.77 848.75s65.93 297.14 62.88 308.83-33.17 40.78-145.56 59.26c-114 18.73-206.55 14.58-210.44 3.74S459.55 837 459.55 837z" fill="#fff" stroke="#262521" stroke-linecap="round" stroke-miterlimit="10" stroke-width="3"/><path d="M650.82 1159.23c-22.58.92-45.19 1.38-67.11 7.58 44.41.81 94.94 14.7 135.5-4.12 42.17-19.56 52.28-50.89 74.77-82 15.81-24.84-78.85 72.87-143.16 78.54zM491.4 1225a237 237 0 0074.37-10.5c21.27-7.1 41.35-17.83 63.31-22.79 21.4-4.53 42.94 2.93 64.44 1.89-33.62-20.37-73.55-8.3-108.34 2.2-31.07 7.1-63 15.52-95.16 12.28l-3.25 4.36 8 6.16a10.27 10.27 0 01-3.37 6.4z" fill="#262521" opacity=".15"/><path d="M410.65 807.61s5.34 199.1 3.83 238.13c-.83 21.49-30.49 206.73-5.66 282.38 0 0 80.5 22.06 157.49 21.13 7.24-.09 20-486.25 20-486.25s65.83 470.73 76.63 478.66 149.89-14.59 149.89-14.59-28.53-282.23-30.33-352.18c-1.22-47.59-16.09-167.28-16.09-167.28M499.13 493l10.83-5.9s1.09 16.69.31 21.94S499.13 493 499.13 493z" fill="#ccc1ac" stroke="#262521" stroke-linecap="round" stroke-linejoin="round" stroke-width="3"/><path d="M797.34 595.86s-33.67 31.43-30.9 85.06M352.06 629.1s30.72 35.13 30.51 86.91" fill="none" stroke="#91816a" stroke-linecap="round" stroke-linejoin="round"/><path d="M586.28 863c-54.69-75.48-117.71-243.53-108.34-323.39l22.38-53.4S545.75 602 638 616.17c0 0 68.81-88.72 11.26-130 0 0 72.49 22.25 64.38 108.27-6.81 72.34-81.57 156.19-81.57 156.19" fill="#ccc1ac" stroke="#262521" stroke-linecap="round" stroke-linejoin="round" stroke-width="3"/><circle cx="574.17" cy="930.15" r="4.69" fill="#91816a"/><circle cx="571.4" cy="1011.7" r="4.69" fill="#91816a"/><circle cx="567.21" cy="1098.82" r="4.69" fill="#91816a"/><circle cx="564.07" cy="1187.12" r="4.69" fill="#91816a"/><circle cx="559.38" cy="1264.61" r="4.69" fill="#91816a"/><path d="M544.56 669.46s59.65 115.32 122.61-3.32M494.12 562.32S507.93 704.78 599 843.15" fill="none" stroke="#91816a" stroke-linecap="round" stroke-linejoin="round"/><circle cx="500.82" cy="525.35" r="5.39" fill="#91816a"/><circle cx="490.42" cy="540.31" r="5.39" fill="#91816a"/><circle cx="581.37" cy="835.79" r="4.69" fill="#91816a"/><path fill="none" stroke="#91816a" stroke-linecap="round" stroke-linejoin="round" d="M569.9 852.27l-25.51 478.55M410.65 1319.56s109.9 19.14 149.23 18.51M668.55 1333s124.94-9.61 136.86-16.19M602.58 863.92l73.66 461.01M557.14 831.1l-56.15-23.49M562.51 840.48l-65.54 13.65M807.33 1097.8s46.86-19.54 67.07-21.16M829 1141s49-30.47 49.64-47M321.49 1119.45s44.84 9.47 66.86 7.33M317.25 1142.36s28.68 28.4 60.75 28.71"/><path fill="none" stroke="#636363" stroke-linecap="round" stroke-linejoin="round" d="M592.59 1229.8l-11.68 84.36M625 1225.18l22.42 103.64"/><path d="M628 327.33c-4.28-7.37-1.79-16.42-5.4-23.95-6.56-11-21.23-15.39-33.33-16.05-10.5.89-20.22 9.2-31 4.68-24.41-6.33-58.59-12.78-58.71 23.58.88 20-.12 27.46-8.89 45.62-6.8 18.28 5.52 35.71 8.2 53.57 5.16 32.51 16.87 67.62 46.31 85.82 17.12 7.69 38.66 7.55 56 .43 41.08-23.07 45.72-82 53.21-124-.86-19.77-17.29-33.51-26.39-49.7zm-59.19 98.87h.07c2.21 0 4.44.2 6.41-1 2.26-1.37 3.82-3.68 6.29-4.77 2.07-.91 5.06-1.26 7.1-.05a5.21 5.21 0 011 .8 11.86 11.86 0 017 1.69c1.62.94 6.2 3.42 4.6 6-1.36 2.2-5.52 1.84-7.67 1.92-3.9.15-7.77-.35-11.67-.28a27.24 27.24 0 00-6.28.87 43.82 43.82 0 01-6.18 1.5c-4 .43-8-.21-11.85 1.23-3.61 1.34-7.14 3.67-11.13 3.36a1 1 0 01-1-.73c-.86-4.16 2-8.27 4.8-11s7.08-5.43 11.26-4.56a.91.91 0 01.52 1.48 38.12 38.12 0 016.73 3.54zM526.15 398c-7.26-1.86-12.91-7.61-16.9-13.71-2.27-3.48-5.39-9-5.3-13.62a7.4 7.4 0 01-5.8-2.41 7.63 7.63 0 01-1-7.61c1.17-3.14 3.83-5.46 6.41-7.48a32.86 32.86 0 019.56-5.23 31 31 0 0122.38 1.18 55.6 55.6 0 006.19 2.56 20.68 20.68 0 005.21.53c3.23.1 6.77.53 8.66 3.52 2.32 3.65-.53 7.5-3.55 10.44 4.4.83-1.9 23-3.2 25.13a21.73 21.73 0 01-2.45 2.11c-5.58 3.98-13.44 6.29-20.21 4.59zm65.41 81.49c-2.47 1-4.91-.41-7.36-.74a22.86 22.86 0 00-8.83.58c-2.44.69-4.62 2.06-7 2.81-1.65.5-4.66 1.2-6-.32a2.21 2.21 0 01.38-3.35 1.1 1.1 0 01.22-.39 20.24 20.24 0 017.08-4.58 24.06 24.06 0 018.3-1.66c4.53-.2 10.5-.32 14 3 1.65 1.57 1.38 3.68-.79 4.6zm17.83-20.31a10.28 10.28 0 01-1.6.87 33.38 33.38 0 01-8.16 1.88 25.49 25.49 0 00-3.86.82 29.81 29.81 0 00-4.58 2.4 18.7 18.7 0 01-10.56 2.28c-2.93-.25-5.84-1-8.79-.82-4.41.23-8.77 1.14-13.17 1.54s-9.48.76-13.71-1c-3.5-1.47-7.12-6.42-3.44-9.7a10.14 10.14 0 016.65-2.09c1.7 0 3.41.42 5.09 0a11.51 11.51 0 004-2.5c2.93-2.3 6.64-3.15 10.31-3.35a51.64 51.64 0 016.09.2 17.93 17.93 0 005.5-.58c3.35-.8 6.64-2.07 10.13-2.1a11.42 11.42 0 014.95 1.09c1.72.76 3.42 1.7 5.36 1.58 1.78-.11 3.4-1 5.13-1.35a8.1 8.1 0 014.09.1 6.47 6.47 0 014.09 4c1.01 2.6.18 7.47-3.52 6.68zM626 359.51a10.28 10.28 0 012 3c2.07 4.69.6 9.83-1.26 14.33-4.33 10.46-15.13 20.51-27.25 17.34-4.34-1.14-8.07-4.56-11.1-7.72-2.75-2.87-5.56-6.29-7.08-10.09-2.77-2.05-5.54-4.18-7.43-7.07-2.71-4.13-2-9 .36-13.15a25.42 25.42 0 0111.13-10 49.6 49.6 0 017.17-2.33 54.24 54.24 0 018.52-2.06 39.08 39.08 0 019.72.31 65.68 65.68 0 0110.49 2.13c5.56 1.65 13.16 4.76 14.2 11.3.96 5.69-4.71 4.95-9.47 4.01z" fill="#bababa" opacity=".43"/></svg>