<svg xmlns="http://www.w3.org/2000/svg" width="1000" height="1550" viewBox="0 0 1000 1550"><path fill="#fff" d="M355.22 1332.64h-65.74l-8.34-57.7h65.04l9.04 57.7zM693.35 1536.17h-71.72l-5.36-52.61h74.2l2.88 52.61zM697.02 1596.18H581.1l-5.36-52.61h118.39l2.89 52.61z"/><path d="M320.18 1596.61l-40.74-332.09s61.79 24.3 203.69 19.79S676 1248.13 676 1248.13l20.1 342.24" fill="none" stroke="#262521" stroke-linecap="round" stroke-linejoin="round" stroke-width="3"/><path d="M279.68 1268s143.08 51 187.11 51l15-83.06zM680.3 1263.58S545.85 1319 501.81 1319l-15-83.06zM533.24 530.89s-63 24.43-84.61 24.43-81.06-23.88-81.06-23.88l-97.08 65.27L456.55 844l188-270.23z" fill="#fff" stroke="#262521" stroke-linecap="round" stroke-linejoin="round" stroke-width="3"/><path d="M380.31 506.87s26.26 38.43 66.82 48.45l-69 73.32s-27.26-75.45-18.66-92.11a148.1 148.1 0 0120.84-29.66zM518.12 506.87s-15.39 39.69-67.8 48.45l69.95 73.32s30.78-73 22.18-89.66-24.33-32.11-24.33-32.11zM436.54 567.95v175.3" fill="#fff" stroke="#262521" stroke-linecap="round" stroke-linejoin="round" stroke-width="3"/><circle cx="448.72" cy="569.55" r="4.65" fill="#262521" opacity=".2"/><path d="M752.23 1043c-3.83-55.87-22.88-124.63-22.88-124.63s-14.59-306.95-52.89-331.94c-10.88-7.1-133.85-55.21-133.85-55.21s-10.93 54-91.28 54c-65.08 0-87.71-36.56-91.83-48.7a11 11 0 01-.24-5.64s-95.6 62.92-140.33 89.87S192.25 945 192.25 945a619.79 619.79 0 00-3.6 128.12c5.53 68.42 3.58 178.08 13.95 197.94l61.46-1.5s-5.6-14.35-4.65-27c2.27-30.22 5.53-104.27 15.36-135.22 4.81-15.14 10.05-36.61 14.14-54.59-3.58 34.79-21.76 150.2-10.41 175.24 0 13-1.32 43-1.32 43s68.26 22.14 145.25 21.21c137.53-1.66 258.37-26.64 258.37-26.64s-1.68-30-2.46-43.63c9.14-15.78-.82-82.08-9.89-146.45 15.78 47.16 33.42 110.92 35.34 141.84 1.64 26.39 2.89 34.36 2.89 34.36h58.1s4.48-6.67 5.3-18.89-12.27-108.51-17.85-189.79z" fill="#262521" stroke="#262521" stroke-linecap="round" stroke-linejoin="round" stroke-width="3"/><path d="M532.56 628.64c7 16.86 137.55 9.87 183.17 119-8.47-71.81-22-149.95-39.27-161.2-7.63-5-67.87-28.51-104.68-43.09-4.11 55.27-46.24 68.43-39.22 85.29z" fill="#514f48"/><path d="M677.9 587.53c-7.63-5-69.31-29.59-106.12-44.17a37 37 0 01-.72 6.74c6.82 2.68 35.39 20.94 43.78 23.53a208.44 208.44 0 0121.34 7.52 82.83 82.83 0 0110.24 5.22 17.54 17.54 0 016.54 6.4c5.87 10.72-2.83 23 1.12 34.06a22 22 0 001.55 2.78c7.86-20.17 22.27-42.08 22.27-42.08z" fill="#fff" opacity=".2"/><path d="M388 628.64c5.3-17.35-47.51-42.36-57.75-78.54-29.66 19.39-78.38 50.84-111.28 70.66-21.06 12.69-28.21 85.34-29.86 158.67C242.32 659.69 379.93 654.93 388 628.64z" fill="#514f48"/><path d="M235.83 648q2.58-4.31 5.48-8.38c4.68-6.5 5.22-16.72 11.11-22.15 11.91-11 78.46-59.2 79.71-61.82a52.59 52.59 0 01-1.92-5.54c-29.66 19.39-113.69 72.27-115 73.75 7.48 7.44 13.97 15.89 20.62 24.14z" fill="#fff" opacity=".3"/><path d="M277.18 1271s68.26 22.14 145.25 21.21c137.53-1.66 258.37-26.64 258.37-26.64" fill="none" stroke="#636363" stroke-linecap="round" stroke-linejoin="round"/><path d="M219.88 628.64s50.61 53 50.61 100M674.43 593.65s-30.81 42.28-32.79 103.7" fill="none" stroke="#262521" stroke-linecap="round" stroke-linejoin="round"/><path d="M542.61 531.24s123 48.11 133.85 55.21c38.3 25 52.89 331.94 52.89 331.94M192.25 945s-18.05-297.29 26.68-324.24 140.33-89.87 140.33-89.87" fill="none" stroke="#262521" stroke-linecap="round" stroke-linejoin="round" stroke-width="3"/></svg>