<svg xmlns="http://www.w3.org/2000/svg" width="1000" height="1550" viewBox="0 0 1000 1550"><defs><pattern id="a" width="8.96" height="8.96" patternTransform="matrix(1.87 0 0 1.87 -24.42 -27.4)" patternUnits="userSpaceOnUse" viewBox="0 0 8.96 8.96"><path fill="none" d="M0 0h8.96v8.96H0z"/><path fill="#bababa" d="M0 0h8.96v8.96H0z"/><path fill="#636363" opacity=".5" d="M8.01 8.01H.95V.95l7.06 7.06z"/></pattern></defs><path d="M675.54 1223.65l5.66 56.15s-67.06 9.28-180.87 13.77-226.51-13.77-226.51-13.77l4.64-34.94z" fill="#fff" stroke="#262521" stroke-linecap="round" stroke-miterlimit="10" stroke-width="3"/><path d="M676.34 601.25C665.45 594.15 526.81 528 526.81 528s-9 42.67-63.91 47.58c-64.83 5.79-86.64-36-90.76-48.14l-87.91 73.8" fill="#fff" stroke="#262521" stroke-linecap="round" stroke-linejoin="round" stroke-width="3"/><path d="M681.54 1219.51h-406c-.31 3-3.82 40.29-3.82 40.29s71 13.89 148 13c137.53-1.66 264.08-24.63 264.08-24.63s-.8-12.58-2.26-28.66zM260.32 1229.3h-66.8c1.57 20.41 4.36 35.81 9.58 41.8l61-1.5s-10.18-21.36-3.78-40.3zM587.51 550.42c-28.77-11-53.34-20.18-53.34-20.18s-2.31 53.85-82.84 55c-67.56.95-82.84-41.82-87-54-.7-2.08-27.57 15.94-42.92 25.65 133.07 184.97 256.23 7.41 266.1-6.47zM703.11 1210c.31 2.63 3.57 41.75 3.57 41.75h58.1s10-14.49 3.69-41.75zM364.37 531.26s.01-.03 0 0z" fill="#bababa"/><path d="M364.37 531.26s.01-.03 0 0zM752.23 1043c-3.83-55.87-22.88-124.63-22.88-124.63s-14.59-306.95-52.89-331.94c-10.88-7.1-119.88-47.78-119.88-47.78s-14.07 68-104.7 68c-89.57 0-100.14-54.14-104.26-66.29-.7-2.08 0 0 0-.08-1.05.64-84.21 53.64-128.71 80.45C174.2 647.71 192.25 945 192.25 945a619.79 619.79 0 00-3.6 128.12c4 49.47 1.23 121.09 5.57 164a200 200 0 0165.9-4.75c2.27-30.22 4.82-94.14 14.65-125.09s21.45-88.31 21.45-88.33c.49 23.68.3 42.23-1 50.33-3.6 21.92-31.66 102.78-17.78 133.07 6.74 25.77 323.14 16.71 401.84-4.47 9.94-22.62-4.2-83.52-17.92-143 17.07 47.16 40.25 126.63 42.46 162.33 8.65-3.66 48.09-6.24 65.6-2.16.79-12.05-11.61-90.77-17.19-172.05z" fill="url(#a)"/><path d="M364.37 531.26h0s.01-.03 0 0zM752.23 1043c-3.83-55.87-22.88-124.63-22.88-124.63s-14.59-306.95-52.89-331.94c-10.88-7.1-142.29-56.21-142.29-56.21s-2.49 55-82.84 55c-65.08 0-82.1-39.23-86.21-51.38a10.79 10.79 0 01-.75-2.59c-1 .65-100.94 62.69-145.44 89.5C174.2 647.71 192.25 945 192.25 945a619.79 619.79 0 00-3.6 128.12c5.53 68.42-1.88 179.2 14.45 197.94l61-1.5s-5.6-14.35-4.65-27c2.27-30.22 5.53-104.27 15.36-135.22s21.45-88.31 21.45-88.33c.49 23.68.3 42.23-1 50.33-3.6 21.92-31.66 102.78-17.78 133.07-3.34 29.28-5.68 57.36-5.68 57.36s71 13.89 148 13c137.53-1.66 264.08-24.63 264.08-24.63s-1.48-25.34-4.52-50.16c9.94-22.62-4.2-83.52-17.92-143 17.07 47.16 40.25 126.63 42.46 162.33 1.64 26.39 2.89 34.36 2.89 34.36h58.1s4.48-6.67 5.3-18.89-12.38-108.5-17.96-189.78z" fill="none" stroke="#262521" stroke-linecap="round" stroke-linejoin="round" stroke-width="3"/><path d="M349.55 549.86c11.06 26.43 36.16 57.49 102.33 56.82 67.54-.68 92.26-35.2 102.27-61.63M445.07 593.15l.14 13.49M449.11 593.11l.13 13.49M453.15 593.07l.13 13.49M457.19 593.03l.13 13.49M469.45 592.13l3.87 13.08M473.38 591.32l3.86 13.08M477.3 590.5l3.86 13.08M481.22 589.68l3.87 13.09M494.97 585.31l8.42 11.49M498.43 583.54l8.41 11.49M501.88 581.78l8.41 11.49M505.33 580.02l8.41 11.49M517.08 572.02l12.17 8.85M519.74 569.48l12.17 8.85M522.41 566.94l12.16 8.85M525.07 564.39l12.17 8.86M531.87 554.51l14.85 5.31M533.48 551.41l14.84 5.32M535.08 548.32l14.85 5.31M536.69 545.22l14.84 5.32M434.51 592.49l-3.6 13.16M430.57 591.75l-3.6 13.16M426.63 591.01l-3.59 13.16M422.69 590.28l-3.59 13.16M408.86 586.18l-8.19 11.66M405.37 584.49l-8.18 11.66M401.88 582.8l-8.18 11.65M398.4 581.1l-8.18 11.66M386.48 573.34l-11.98 9.1M383.77 570.86l-11.98 9.09M381.06 568.37l-11.99 9.1M378.34 565.88l-11.98 9.1M371.34 556.14l-14.73 5.61M369.67 553.08l-14.73 5.61M368 550.01l-14.73 5.62M366.34 546.95l-14.74 5.62" fill="none" stroke="#636363" stroke-linecap="round" stroke-linejoin="round"/><path fill="none" stroke="#8e8e8e" stroke-linecap="round" stroke-linejoin="round" stroke-width="5" d="M228.61 1236.01l1.55 28.83M215.92 1237.02l2.99 27.82M241.98 1236.04l-.59 27.88M253.27 1236.04l-1.32 28.21M202.8 1237.99l4.88 26.85M738.29 1216.88l-.16 27.88M724.8 1218.91l1.89 25.85M750.94 1217.88l-1.19 26.88M763.01 1219.48l-3.02 26.13M712.64 1220.7l2.64 24.06M483.69 1234.93v29.03M499.39 1234.51v29.03M515.08 1233.51v29.03M530.77 1231.84v29.02M546.46 1231.03v29.02M562.15 1228.87v29.02M577.85 1227.37v29.03M593.54 1225.87v29.02M373.85 1234.01v31.16M389.54 1234.51v30.45M405.23 1234.51v30.45M420.93 1235.93v29.03M328.88 1232.36l.12 28.98M311.69 1230.05l.13 28.98M295.25 1227.89l.12 28.98M281.88 1225.89l-1.87 28.98M343.9 1232.55l.26 30.38M358.16 1233.01v31.16M436.62 1235.93v29.03M452.31 1235.93v29.03M468 1235.93v29.03M608.74 1223.38l-.03 29M624.79 1221.29l-.74 28.98M641.2 1218.78l-1.17 29M656.31 1216.78l-1.17 29M670.38 1214.78l.33 29"/><path d="M336.78 541.52s1.09 126.78 122.67 126.78 104.82-131 104.82-131 63.85 23.61 85.22 31.11c-1.81 91.81 45.59 662.74 39.4 664.09-101.48 22.25-425 18-423.87 5.42 18.8-207-1.67-651.38-1.67-651.38z" fill="#377566" stroke="#262521" stroke-linecap="round" stroke-linejoin="round" stroke-width="3"/><path d="M286 1081.94s197.57 13.67 382-8.28M286 1097.52s197.57 13.66 382-8.29M477.08 1085.76l.82 139.97" fill="none" stroke="#215145" stroke-linecap="round" stroke-linejoin="round"/><path stroke-width="3" stroke="#262521" stroke-linecap="round" stroke-linejoin="round" fill="#ffc802" d="M517.08 720.46h91.95v59.86h-91.95z"/><path stroke-width="3" stroke="#262521" stroke-linecap="round" stroke-linejoin="round" fill="#fff" d="M517.08 749.89h91.95v16.31h-91.95z"/></svg>