<svg xmlns="http://www.w3.org/2000/svg" width="1250" height="1550" viewBox="0 0 1250 1550"><path d="M421.22 1019s-11.62 57.38-21.45 88.33-13.09 105-15.36 135.22c-1 12.66 4.65 27 4.65 27l-61 1.5c-16.33-18.74-8.92-129.52-14.45-197.94A619.79 619.79 0 01317.25 945s-18.05-297.29 26.68-324.24 145.46-89.52 145.46-89.52-.24-.24.73 2.61c4.11 12.15 21.13 51.38 86.21 51.38 80.35 0 82.84-55 82.84-55s131.41 49.11 142.29 56.21c38.3 25 52.89 331.94 52.89 331.94s19 68.76 22.88 124.63c5.58 81.26 18.66 177.57 17.85 189.79s-5.3 18.89-5.3 18.89h-58.1s-1.25-8-2.89-34.36c-2.47-39.8-31-134-48.07-177.22" fill="#262521" stroke="#262521" stroke-linecap="round" stroke-linejoin="round" stroke-width="3"/><path d="M801.71 1106.11a62.76 62.76 0 007.85-8 32.14 32.14 0 006.12-11.23c1.35-4.84.82-9.79-.25-14.62-1.22-5.46-2.6-10.87-3.69-16.36s-2.07-11.15-3-16.75-1.71-11.15-2.53-16.73-1.52-11.29-2.58-16.88C801.54 994.32 799 983.23 797 972a205.07 205.07 0 01-3.1-32.8c-.13-9.33.13-18.75-1.31-28s-4.55-18.52-10-26.07a25.31 25.31 0 00-16.56-10.27c-29.46 20.94 14.67 165.24 14.67 165.24 6.53 16.48 13.92 40.46 21.01 66.01z" fill="#514f48"/><path d="M800.29 1068.48c-4.11-9.23-7.31-19.48-6.92-29.69.42-11.15 6.2-21.22 10.65-31.22-.12-.69-.23-1.38-.36-2.07-2.12-11.18-4.66-22.27-6.66-33.5a205.07 205.07 0 01-3.1-32.8v-4.19c-3.65 17.86-8.26 35.51-12.32 53.28-3.87 16.94-7.17 34.05-8.73 51.34l7.88.47c6.51 16.46 13.9 40.44 21 66a62.76 62.76 0 007.85-8 36.64 36.64 0 004.5-7 94.89 94.89 0 01-13.79-22.62z" fill="#fff" opacity=".3"/><path d="M380.79 1060.09c.74 53.49 9.42 57.35 15.94 59.24.56-2.27 2.42-10 3-12 9.83-30.95 21.45-88.33 21.45-88.33s25.31-125.19 25.32-125.5q-8.13 0-16.25.36c-19.64.8-39.53 5.56-38.21 23.31.96 11.76-11.3 139.68-11.25 142.92z" fill="#514f48"/><path d="M388.17 975.14c-1.42 16.89-3 34.79-4.35 49.77.68.47 10.3 7.12 14.72 17.53s-11.89 50.89-14.43 57.89c3.29 15.73 8.41 17.78 12.62 19 .56-2.27 10.61-38.69 14.08-53.23 2.85-47.1-21.93-88.27-22.64-90.96z" fill="#fff" opacity=".3"/><path d="M828.79 1217.34c-.38-39.88-31-134-48.07-177.22" fill="none" stroke="#262521" stroke-linecap="round" stroke-linejoin="round" stroke-width="3"/><path d="M800.54 1223.65l5.66 56.15s-67.06 9.28-180.87 13.77-226.51-13.77-226.51-13.77l4.64-34.94z" fill="#fff" stroke="#262521" stroke-linecap="round" stroke-miterlimit="10" stroke-width="3"/><path d="M410.65 807.61s15.24 227 9.54 261.76-23.46 194.93-23.46 194.93 71 16.39 148 15.46c137.53-1.66 265.66-20.89 265.66-20.89s-18.72-164.53-38.27-269.61c-9.91-53.24-5.7-181.65-5.7-181.65" fill="#262521" stroke="#262521" stroke-linecap="round" stroke-linejoin="round" stroke-width="3"/><path d="M365 922.43c16.9 0 33.26-4.84 49-10.61 4.56-1.68 9.08-3.44 13.6-5.2 1.78-.69 1-3.6-.79-2.89-15.46 6-31.11 12.11-47.6 14.61a96.47 96.47 0 01-14.2 1.09 1.5 1.5 0 000 3zm2.68 14.2a237.09 237.09 0 0057.61-3c1.9-.33 1.09-3.22-.8-2.89a234 234 0 01-56.81 2.93c-1.93-.13-1.92 2.87 0 3zm2.64 11.81q13.15 1.45 26.41 1.76 6.56.15 13.11 0c4.06-.09 8.16-.3 12-1.64 1.81-.62 1-3.52-.8-2.89-3.79 1.31-7.75 1.46-11.73 1.54q-6.55.13-13.11 0-13-.32-25.91-1.75c-1.92-.21-1.9 2.79 0 3zm.98 15.69a146.65 146.65 0 0026.7 4.14c8.7.53 17.8.63 26.13-2.29 1.81-.64 1-3.54-.79-2.9-8.1 2.84-16.88 2.71-25.34 2.19a142.38 142.38 0 01-25.88-4c-1.87-.47-2.67 2.42-.8 2.89zm3.27 14.93c3.05 3 7.19 4.11 11.26 5a145 145 0 0014.81 2.26 109.44 109.44 0 0014.48.68c4.45-.14 8.92-.9 12.77-3.25 1.64-1 .14-3.61-1.52-2.59-3.52 2.16-7.6 2.75-11.67 2.85a113.85 113.85 0 01-13.57-.64 138.39 138.39 0 01-14-2.1c-3.68-.75-7.64-1.55-10.41-4.28-1.38-1.35-3.5.77-2.12 2.12zM374 995.6a113.53 113.53 0 0055.76 11.94c1.92-.08 1.93-3.08 0-3a110.37 110.37 0 01-54.2-11.54c-1.72-.86-3.24 1.73-1.52 2.59zm-1.82 16.91A75.68 75.68 0 00421.8 1033c1.93.06 1.93-2.94 0-3a72.92 72.92 0 01-47.5-19.6c-1.41-1.32-3.53.8-2.12 2.12zm-3.05 19.13a178.78 178.78 0 0021.74 13.09q5.67 2.87 11.52 5.34 2.89 1.23 5.83 2.35a12.81 12.81 0 006 1.19c1.89-.23 1.92-3.24 0-3-2.15.26-4.14-.65-6.1-1.41s-3.7-1.47-5.52-2.25q-5.62-2.43-11.07-5.23a179.06 179.06 0 01-20.94-12.67c-1.58-1.11-3.08 1.49-1.51 2.59zm.06 18.23c9.43 12.88 24.93 18.06 39.54 22.64 1.85.58 2.64-2.32.8-2.89-13.74-4.31-28.85-9.11-37.75-21.27-1.13-1.54-3.74 0-2.59 1.52zm-5.12 18.23a74.66 74.66 0 0040 21c1.89.33 2.7-2.56.8-2.89a72 72 0 01-38.7-20.21 1.5 1.5 0 00-2.12 2.12zm-4.53 14.26c12 9.88 25.08 20.36 41 22.51a1.56 1.56 0 001.85-1 1.52 1.52 0 00-1.05-1.85c-15.45-2.08-28-12.17-39.71-21.74-1.48-1.22-3.62.89-2.12 2.12zm398.9-191.44c13.8.51 28.23.84 40.92-5.43 1.73-.86.21-3.45-1.51-2.59-12.17 6-26.2 5.51-39.41 5-1.93-.07-1.93 2.93 0 3zm-2.17 16.79c13.73.62 28.8 1 40.44-7.53 1.54-1.13 0-3.73-1.51-2.59-11.23 8.25-25.69 7.72-38.93 7.12-1.93-.08-1.93 2.92 0 3zm2.73 21.02c15.12.88 31.45 1.57 44.74-7 1.62-1 .12-3.64-1.52-2.59-12.83 8.24-28.63 7.41-43.22 6.56-1.92-.11-1.92 2.89 0 3zm.53 17.27c13.64-1 29.07 2.41 41-6.21 1.55-1.12 0-3.72-1.52-2.59-11.41 8.26-26.38 4.87-39.46 5.8-1.92.13-1.93 3.14 0 3zm3.47 13c0 1.74 1.5 2.6 3.1 2.72a41.59 41.59 0 005.79-.29c4.11-.28 8.22-.64 12.3-1.22 8-1.13 15.85-3.25 22.86-7.34a1.5 1.5 0 00-1.52-2.59A57.22 57.22 0 01786 957c-3.43.58-6.9.95-10.37 1.24-1.73.14-3.47.26-5.2.36l-2.59.16c-.41 0-.82.07-1.23.06a2.41 2.41 0 01-.38 0q-.52-.25-.18.27c0-1.92-3-1.93-3 0zm.31 22.21c13.58 1.13 28.44 1.92 39.77-7 1.52-1.2-.62-3.31-2.12-2.12-10.58 8.36-25.06 7.2-37.65 6.15-1.93-.16-1.92 2.84 0 3zm3.81 16.97c9-1.09 18 .6 26.92-.43 7.11-.82 14.43-3.29 19-9.07 1.19-1.5-.92-3.64-2.12-2.13-4.35 5.47-11.3 7.71-18.05 8.32-8.58.76-17.2-.74-25.78.31-1.89.23-1.91 3.23 0 3zm6.14 18.42a56.7 56.7 0 0034.88-6.17c1.7-.91.19-3.5-1.52-2.59a53.23 53.23 0 01-32.57 5.86 1.55 1.55 0 00-1.84 1 1.52 1.52 0 001 1.85zM772 1038a71.11 71.11 0 0040.35-9.38 1.5 1.5 0 00-1.51-2.59 68.34 68.34 0 01-38.84 9c-1.93-.14-1.92 2.86 0 3zm15.18 17.32a46 46 0 0030.74-8.61c1.54-1.12.05-3.73-1.52-2.59a43.47 43.47 0 01-29.22 8.2c-1.92-.17-1.91 2.84 0 3zm5.42 18.39a41.47 41.47 0 0029.07-10.8c1.43-1.31-.7-3.43-2.12-2.13a38.38 38.38 0 01-26.95 9.93c-1.93-.06-1.93 2.94 0 3zm4.07 15.84a26.35 26.35 0 0028.1-10c1.13-1.58-1.47-3.08-2.59-1.52a23.26 23.26 0 01-24.72 8.62 1.5 1.5 0 00-.79 2.9z" fill="#262521"/><path d="M421.22 1019s-11.62 57.38-21.45 88.33-13.09 105-15.36 135.22" fill="none" stroke="#262521" stroke-linecap="round" stroke-linejoin="round" stroke-width="3"/></svg>