<svg xmlns="http://www.w3.org/2000/svg" width="1250" height="1550" viewBox="0 0 1250 1550"><title>s01e05-02</title><path d="M800.54,1223.65l5.66,56.15s-67.06,9.28-180.87,13.77-226.51-13.77-226.51-13.77l4.64-34.94Z" fill="#fff" stroke="#262521" stroke-linecap="round" stroke-miterlimit="10" stroke-width="3"/><path d="M489.37,531.26l0,0S489.38,531.23,489.37,531.26Z" fill="#262521" stroke="#262521" stroke-linecap="round" stroke-linejoin="round" stroke-width="3"/><path d="M877.23,1043c-3.83-55.87-22.88-124.63-22.88-124.63s-14.59-306.95-52.89-331.94c-10.88-7.1-142.29-56.21-142.29-56.21s-2.49,55-82.84,55c-65.08,0-82.1-39.23-86.21-51.38a10.79,10.79,0,0,1-.75-2.59c-1,.65-100.94,62.69-145.44,89.5C299.2,647.71,317.25,945,317.25,945a619.79,619.79,0,0,0-3.6,128.12c5.53,68.42-1.88,179.2,14.45,197.94l61-1.5s-5.6-14.35-4.65-27c2.27-30.22,5.53-104.27,15.36-135.22s21.45-88.31,21.45-88.33c.49,23.68.3,42.23-1,50.33-3.6,21.92-31.66,102.78-17.78,133.07-3.34,29.28-5.68,57.36-5.68,57.36s71,13.89,148,13c137.53-1.66,264.08-24.63,264.08-24.63s-1.48-25.34-4.52-50.16c9.94-22.62-4.2-83.52-17.92-143,17.07,47.16,40.25,126.63,42.46,162.33,1.64,26.39,2.89,34.36,2.89,34.36h58.1s4.48-6.67,5.3-18.89S882.81,1124.28,877.23,1043Z" fill="#262521" stroke="#262521" stroke-linecap="round" stroke-linejoin="round" stroke-width="3"/><path d="M633.12,361.92a12.29,12.29,0,0,1,6.65,8.54A46.59,46.59,0,0,1,638,397.57a14,14,0,0,1-8.32,8.14,60.5,60.5,0,0,1-19,3.86,56.48,56.48,0,0,1-13.23-.82c-6-1-10.08-4.52-12.73-9.66a71.06,71.06,0,0,1-5.21-11.63c-1.9-6.22-2.07-12.6,2.48-18,2.5-3,6.34-4.13,10-5.32,10.17-3.34,20.66-4.28,31.31-4.06C623.55,360.1,631.9,361.29,633.12,361.92Z" fill="#221717" opacity="0.95"/><path d="M510.83,366.39c10.92-1.34,21.82-1.79,32.64.78,1.35.33,2.65.83,4,1.2,5.4,1.5,7.83,5.45,9.12,10.59,1.37,5.45.38,10.61-1.39,15.69A76.7,76.7,0,0,1,551,405c-2.37,4.57-6.75,6.58-11.51,7.79a61.17,61.17,0,0,1-29.4.18c-6.12-1.44-9.36-5.77-11.45-11.35a51.61,51.61,0,0,1-3.32-21.26,13.55,13.55,0,0,1,5.33-10.58C501.09,369.4,510.36,366.45,510.83,366.39Z" fill="#221717" opacity="0.95"/><path d="M508.86,416.82c-6-1.31-10.14-5-12.75-10.34-2.24-4.56-4.07-9.32-5.93-14.06-1.07-2.74-2-5.43-4.91-6.9a2.46,2.46,0,0,1-.92-1.81c-.41-6.13-.74-12.27-1.09-18.4a1.76,1.76,0,0,1,1.68-2.06c2.83-.37,5.64-.91,8.48-1.12,6.78-.51,13.56-1,20.36-1.24,6-.2,12.08-.19,18.11,0a72.85,72.85,0,0,1,19.29,2.81c2.72.84,5.34,2.07,8.11,2.66a27.72,27.72,0,0,0,19.76-2.89c5.7-3.17,11.87-4.8,18.17-6.1,12-2.45,24.14-3.19,36.3-3.9,4.55-.26,9.12-.19,13.69-.14,2.21,0,2.4.31,2.56,2.53.4,5.8.76,11.6,1.14,17.39a3.12,3.12,0,0,1-1.44,3c-1.86,1.31-2.46,3.4-3,5.51-1.39,5.24-2.6,10.54-4.33,15.67-2,5.86-5.77,10.25-11.85,12.28-.22.07-16.12,3.78-26.76,3.89a24.31,24.31,0,0,1-20-11.06,84,84,0,0,1-7.26-15.81c-.57-1.56-1.18-3.12-1.82-4.66a3.64,3.64,0,0,0-3.55-2.42c-2,0-4.09.16-6.11.38a3.78,3.78,0,0,0-3.33,3.11c-1.16,4.32-2.19,8.68-3.47,13-1.48,4.94-3.3,9.74-6.8,13.71-2.29,2.61-5.36,4-8.27,5.68-3.91,2.32-8.14,2.15-12.31,2.61C522.58,419,509.27,416.91,508.86,416.82ZM622.45,361c-10.06-.23-20,.67-29.57,3.87-3.43,1.15-7,2.27-9.41,5.12-4.29,5.2-4.12,11.35-2.32,17.36a69,69,0,0,0,4.93,11.23c2.51,5,6.35,8.31,12,9.33a52.37,52.37,0,0,0,12.49.8A56,56,0,0,0,628.56,405a13.3,13.3,0,0,0,7.85-7.84A46,46,0,0,0,638.09,371a11.84,11.84,0,0,0-6.29-8.24C630.64,362.15,622.76,361,622.45,361Zm-120.8,9.85A12.88,12.88,0,0,0,496.56,381a49,49,0,0,0,3.17,20.3c2,5.33,5.1,9.47,10.94,10.84a58.49,58.49,0,0,0,28.11-.16c4.55-1.16,8.73-3.08,11-7.44a75,75,0,0,0,4-9.87c1.69-4.85,2.64-9.78,1.33-15-1.24-4.92-3.55-8.69-8.72-10.12-1.28-.36-2.53-.84-3.82-1.14-10.34-2.46-20.76-2-31.2-.75C511,367.69,502.1,370.5,501.65,370.84Z" fill="#3f5443" stroke="#262521" stroke-linecap="round" stroke-linejoin="round" stroke-width="3"/></svg>