<svg xmlns="http://www.w3.org/2000/svg" width="1000" height="1550" viewBox="0 0 1000 1550"><path d="M364.37 531.26h0s.01-.03 0 0zM680 1282.8L534.17 530.24s-2.49 55-82.84 55c-65.08 0-82.1-39.23-86.21-51.38-.71-2.07-85.44 744.47-85.44 744.47l-.47 21.35s10.56 8.3 2.19 14.37c-7.56 5.48 1.17 24.66 1.17 24.66s58.07-6.49 83-2.79c51.32 7.62 99.39 8.43 226.17-10.65 70.77-10.66 93.73 13.44 93.73 13.44z" fill="#fff" stroke="#262521" stroke-linecap="round" stroke-linejoin="round" stroke-width="3"/><path d="M376.24 528.5S389 635.59 453.19 635.59 528.05 528 528.05 528" fill="none" stroke="#262521" stroke-linecap="round" stroke-linejoin="round" stroke-width="8.27" stroke-dasharray="1.65 4.96"/><path d="M451.83 635.73a1.66 1.66 0 010-3.31h1.6a1.69 1.69 0 011.73 1.58 1.66 1.66 0 01-1.58 1.73l-1.71.05zm-4.95-.2h-.16c-.57 0-1.13-.11-1.69-.19a1.65 1.65 0 11.42-3.28c.52.07 1.05.13 1.58.18a1.65 1.65 0 01-.15 3.3zm11.54-.3a1.65 1.65 0 01-.22-3.29c.53-.07 1.06-.15 1.58-.24a1.66 1.66 0 01.54 3.27l-1.68.25zm-18-.77a1.74 1.74 0 01-.39-.05l-1.65-.43a1.66 1.66 0 01.89-3.19c.51.14 1 .28 1.54.4a1.66 1.66 0 01-.39 3.27zm24.51-.49a1.65 1.65 0 01-.41-3.25l1.55-.42a1.65 1.65 0 01.91 3.18l-1.64.44a1.48 1.48 0 01-.45.08zm-30.79-1.52a1.66 1.66 0 01-.61-.12c-.53-.21-1.06-.43-1.58-.66a1.66 1.66 0 011.34-3c.48.22 1 .42 1.47.62a1.65 1.65 0 01-.62 3.19zm37.07-.49a1.66 1.66 0 01-.6-3.2c.5-.19 1-.39 1.49-.6a1.66 1.66 0 011.29 3.05l-1.58.64a1.59 1.59 0 01-.64.15zm-43-2.37a1.72 1.72 0 01-.82-.21c-.49-.28-1-.57-1.46-.87a1.65 1.65 0 111.72-2.82c.45.28.91.55 1.37.81a1.65 1.65 0 01-.81 3.09zM408.7 612a1.67 1.67 0 01-1.31-.64l-1-1.34a1.66 1.66 0 012.66-2c.32.44.65.87 1 1.3a1.65 1.65 0 01-1.35 2.68zm-3.86-5.37a1.65 1.65 0 01-1.37-.74l-.93-1.4a1.66 1.66 0 112.78-1.8c.29.46.59.91.9 1.36a1.67 1.67 0 01-.46 2.3 1.63 1.63 0 01-.92.25zm100-5.07a1.61 1.61 0 01-.86-.25 1.65 1.65 0 01-.55-2.27l.85-1.4a1.65 1.65 0 112.84 1.69c-.29.48-.57 1-.86 1.43a1.68 1.68 0 01-1.38.77zm3.3-5.75a1.71 1.71 0 01-.78-.2 1.65 1.65 0 01-.68-2.24l.77-1.45a1.65 1.65 0 112.93 1.53l-.78 1.49a1.67 1.67 0 01-1.42.84zm3-5.92a1.62 1.62 0 01-.7-.16 1.65 1.65 0 01-.79-2.2l.69-1.49a1.66 1.66 0 013 1.39l-.71 1.51a1.65 1.65 0 01-1.47.92zm2.7-6.05a1.63 1.63 0 01-.64-.13 1.65 1.65 0 01-.89-2.16L513 580a1.65 1.65 0 113.06 1.25l-.63 1.54a1.66 1.66 0 01-1.57 1.02zm2.43-6.16a1.75 1.75 0 01-.58-.11 1.65 1.65 0 01-1-2.12c.19-.52.38-1 .56-1.54a1.65 1.65 0 113.11 1.12c-.19.52-.38 1-.58 1.57a1.65 1.65 0 01-1.49 1.05z" fill="#b7b6b0"/><path d="M453.42 638.28h-1.71a1.65 1.65 0 11.13-3.3h1.61a1.65 1.65 0 110 3.3zm4.95-.17a1.65 1.65 0 01-.13-3.3q.79-.06 1.59-.15a1.65 1.65 0 011.83 1.46 1.67 1.67 0 01-1.46 1.88l-1.7.16zm-11.54-.29h-.22c-.57-.07-1.13-.16-1.69-.25a1.65 1.65 0 11.54-3.26l1.59.23a1.66 1.66 0 01-.22 3.3zm18.07-.64a1.66 1.66 0 01-.34-3.28c.53-.1 1.05-.22 1.56-.35a1.66 1.66 0 01.79 3.22c-.55.13-1.11.26-1.67.37a1.32 1.32 0 01-.34.04zm-24.55-.65a2.18 2.18 0 01-.43 0l-1.64-.47a1.66 1.66 0 011-3.17c.51.16 1 .3 1.54.44a1.65 1.65 0 01-.43 3.25zm30.91-1.12a1.66 1.66 0 01-.54-3.22c.5-.17 1-.36 1.5-.55a1.66 1.66 0 011.19 3.09l-1.6.59a1.76 1.76 0 01-.55.09zm-37.17-1a1.67 1.67 0 01-.62-.12l-1.57-.67a1.66 1.66 0 011.34-3c.49.22 1 .43 1.48.63a1.66 1.66 0 01-.63 3.19zm43.26-1.6a1.65 1.65 0 01-.75-3.13c.48-.24.95-.49 1.42-.74a1.66 1.66 0 111.58 2.91c-.5.27-1 .53-1.52.79a1.59 1.59 0 01-.73.19zm-49.21-1.27a1.72 1.72 0 01-.81-.21c-.49-.27-1-.56-1.46-.84a1.66 1.66 0 111.69-2.85c.46.28.92.54 1.39.8a1.67 1.67 0 01.63 2.26 1.64 1.64 0 01-1.44.86zm-5.58-3.54a1.64 1.64 0 01-1-.31l-1.37-1a1.65 1.65 0 112-2.64l1.3 1a1.64 1.64 0 01.39 2.3 1.66 1.66 0 01-1.32.65zm79.19-17a1.67 1.67 0 01-1.34-2.63l.95-1.33a1.65 1.65 0 112.71 1.9l-1 1.37a1.66 1.66 0 01-1.32.69zm3.7-5.49a1.58 1.58 0 01-.88-.26 1.64 1.64 0 01-.52-2.27l.86-1.39a1.65 1.65 0 012.82 1.72c-.29.48-.58 1-.88 1.42a1.65 1.65 0 01-1.4.76zm3.36-5.71a1.64 1.64 0 01-.8-.2 1.66 1.66 0 01-.65-2.25c.27-.48.53-1 .79-1.44a1.65 1.65 0 012.91 1.57c-.26.49-.53 1-.8 1.47a1.64 1.64 0 01-1.45.83zm3.07-5.88a1.77 1.77 0 01-.73-.17 1.66 1.66 0 01-.75-2.22c.24-.48.48-1 .71-1.47a1.66 1.66 0 113 1.43c-.24.5-.48 1-.73 1.5a1.66 1.66 0 01-1.5.91zm2.79-6a1.74 1.74 0 01-.66-.14 1.65 1.65 0 01-.85-2.18c.22-.5.44-1 .65-1.51a1.66 1.66 0 013.05 1.3l-.67 1.54a1.66 1.66 0 01-1.52.96z" fill="#7f7e78"/><path d="M477.17 629.21a1.65 1.65 0 01-.78-3.11l1.41-.78a1.65 1.65 0 111.64 2.87c-.49.28-1 .56-1.5.83a1.62 1.62 0 01-.77.19zM422.65 626a1.64 1.64 0 01-1-.32l-1.35-1a1.66 1.66 0 112.05-2.6l1.27 1a1.65 1.65 0 01-1 3zm60.17-.21a1.66 1.66 0 01-1.36-.71 1.64 1.64 0 01.43-2.3l1.31-.93a1.65 1.65 0 111.94 2.67c-.45.34-.92.66-1.38 1a1.63 1.63 0 01-.94.25zm-65.25-4a1.62 1.62 0 01-1.12-.44l-1.23-1.16a1.65 1.65 0 012.3-2.38c.39.38.78.75 1.18 1.11a1.66 1.66 0 01-1.13 2.87zm70.48 0a1.61 1.61 0 01-1.25-.58 1.64 1.64 0 01.18-2.33l1.21-1.06a1.65 1.65 0 012.21 2.46c-.42.38-.84.75-1.27 1.11a1.64 1.64 0 01-1.08.36zm4.81-4.51a1.66 1.66 0 01-1.19-2.81q.57-.57 1.11-1.17a1.66 1.66 0 112.43 2.25q-.57.62-1.17 1.23a1.64 1.64 0 01-1.18.46zm-79.93-.18a1.67 1.67 0 01-1.23-.55l-1.11-1.26a1.66 1.66 0 112.5-2.17c.35.41.71.82 1.07 1.22a1.66 1.66 0 01-1.23 2.76zm84.33-4.76a1.65 1.65 0 01-1.28-2.7l1-1.26a1.65 1.65 0 012.59 2l-1 1.31a1.64 1.64 0 01-1.31.61zm4-5.25a1.65 1.65 0 01-1.35-2.61l.93-1.33a1.65 1.65 0 112.73 1.86l-.95 1.38a1.66 1.66 0 01-1.37.66z" fill="#f4f4f4"/><path d="M483.06 629.52a1.65 1.65 0 01-.91-3l1.32-.9a1.65 1.65 0 011.91 2.7l-1.41 1a1.67 1.67 0 01-.91.2zm5.3-3.94a1.67 1.67 0 01-1.27-.6 1.65 1.65 0 01.21-2.33l1.23-1a1.65 1.65 0 012.18 2.48l-1.29 1.1a1.66 1.66 0 01-1.06.35zm-71-1.67a1.64 1.64 0 01-1.08-.4c-.43-.38-.85-.75-1.27-1.14a1.65 1.65 0 112.24-2.43c.39.36.79.72 1.2 1.07a1.65 1.65 0 01-1.09 2.9zm75.87-2.81a1.68 1.68 0 01-1.17-.48 1.64 1.64 0 010-2.33c.38-.39.76-.77 1.13-1.17a1.66 1.66 0 012.4 2.28c-.39.41-.78.82-1.18 1.21a1.63 1.63 0 01-1.17.49zm-80.65-1.76a1.64 1.64 0 01-1.19-.51l-1.16-1.23a1.65 1.65 0 112.43-2.24l1.11 1.18a1.65 1.65 0 01-1.19 2.8zm85.1-3.13a1.66 1.66 0 01-1.26-2.72l1-1.25a1.65 1.65 0 112.57 2.07c-.35.44-.7.87-1.07 1.31a1.63 1.63 0 01-1.23.59zm-89.49-1.82a1.68 1.68 0 01-1.28-.6l-1.06-1.31a1.65 1.65 0 112.59-2.06l1 1.26a1.66 1.66 0 01-1.27 2.71z" fill="#f4f4f4"/><path d="M437.52 743.26c-1.49-37.81-49.08-194.87-60.68-215.2 3.16-2.23 5.28-4.31 6-6.15 2-5.21 2.69-13 2.68-21L380 501c-30.35-3.08-73.6 59.17-75.92 60.41h0c-29.94 19-59.32 40.58-85.19 59.32-44.73 27-35.81 384-30.28 452.4 5.65 69.91 0 198.42 5.74 218.37l89.1-1.54.29-59.69c18.34.81 48.63.62 94.44-1.47 3.82-47.36 60.89-446.18 59.34-485.54zM752.23 1043c-3.83-55.87-37.47-431.58-75.77-456.57-33.32-21.7-70.55-35-107.81-47.67-6.52-12.32-24.82-41.19-53.23-41.19l-2.14.05c.77 12.89 2.54 25.12 6.38 28.41A36 36 0 00527 530c-9.61 29.48-34.8 188.64-34.8 228.83 0 44.66 27.72 426.49 36 468.17 65-1.29 148.41-1.8 148.71-2.83 1-3.56 4.14 41.34 4.14 41.34s99.8 2.07 100.61-10.15-23.85-131.08-29.43-212.36z" fill="#262521" stroke="#262521" stroke-linecap="round" stroke-linejoin="round" stroke-width="3"/><path d="M374.1 799.44v1" fill="none" stroke="#8e8e8e" stroke-linecap="round" stroke-linejoin="round" stroke-width="3"/><path d="M374.43 805.46c8.76 160.72 4.17 383 3.48 413.47" fill="none" stroke="#8e8e8e" stroke-linecap="round" stroke-linejoin="round" stroke-width="3" stroke-dasharray="2.01 5.04"/><path d="M377.85 1221.44v1M351.06 656.57c.23.22.46.46.69.71" fill="none" stroke="#8e8e8e" stroke-linecap="round" stroke-linejoin="round" stroke-width="3"/><path d="M354.41 661.21c3.81 7 7.07 19.52 9.86 36.13" fill="none" stroke="#8e8e8e" stroke-linecap="round" stroke-linejoin="round" stroke-width="3" stroke-dasharray="1.9 4.76"/><path d="M364.65 699.69c.06.33.11.66.16 1" fill="none" stroke="#8e8e8e" stroke-linecap="round" stroke-linejoin="round" stroke-width="3"/><path d="M276 738c-17.9-115.78-55.39-114-55.39-114M194.49 1238.82s43.3 6 86-3.38M372.64 1197.82s-45.45 7.55-111.63 1.25M281.58 1074.41L331 980.46l-24.79-13.04-25.33 48.15M677.46 589.84s-20.07 31.36-23.94 131M682.11 1210.88s59.2 4.08 90-4M530.61 1195.31s96.19 8 144.5-4.67M666.65 1068.13l-53.3-92.33 24.35-14.06 27.33 47.32" fill="none" stroke="#636363" stroke-linecap="round" stroke-linejoin="round"/><path d="M516.43 1223.67l.15 2.55q.51 9 1 17.93a2.36 2.36 0 00.09.52 1.8 1.8 0 00.12.35v.1a1.92 1.92 0 00.18.31c0 .06.07.11.1.16l.07.08a2.31 2.31 0 002 .95l7.4-.84a2.6 2.6 0 002.37-3.27c-.14-.84-.29-1.67-.43-2.51q-1.51-8.85-3-17.7a2.53 2.53 0 00-2.52-1.83l-5.09.58a2.61 2.61 0 00-2.44 2.62zm4.87 11.19l2.53-.33a1.71 1.71 0 011.91 1.46l.61 4.67a1.71 1.71 0 01-1.47 1.91l-2.53.33a1.7 1.7 0 01-1.91-1.46l-.61-4.67a1.71 1.71 0 011.47-1.91z" fill="#84837e"/><path d="M304.45 565.3s-12.92 30.52-23.59 45.45c-7.79 10.92 75.7 21 122.82 72.09M569.37 542.47s65.52 67.32 66.16 79.52c0 0-91 60.26-92.11 72" fill="none" stroke="#636363" stroke-linecap="round" stroke-linejoin="round"/><path d="M596.42 723.87s-68.91 56-92.1 188.82c0 0 8 111.54 26.08 309.75" fill="none" stroke="#8e8e8e" stroke-linecap="round" stroke-linejoin="round" stroke-width="3" stroke-dasharray="2 5"/><rect x="516.13" y="1202.32" width="9.14" height="23.71" rx="1" transform="rotate(-3.45 520.932 1214.808)" stroke-width="3" stroke="#262521" stroke-linecap="round" stroke-linejoin="round" fill="#262521"/><path d="M601.2 721.52s-80.06-33.76-93.64-51.91M420 669.61c-13.58 18.15-94.81 54.26-94.81 54.26s65.4 47.59 88.55 183" fill="none" stroke="#636363" stroke-linecap="round" stroke-linejoin="round"/><circle cx="575.95" cy="721.52" r="4.12" fill="#636363"/><circle cx="354.36" cy="723.02" r="4.12" fill="#636363"/><path d="M233.28 617.28s-3.16-12.23 4-18.28 32.47-23.14 39.21-27.7 20.51-1.45 20.51-1.45l-3.54 1.95s-7.92-4.87-17 1.49-32 22.18-37.2 26.47-4.08 16.46-4.08 16.46zM664.63 584.25s.78-12.62-7.4-17.18-36.29-16.53-43.78-19.73-20.38 2.48-20.38 2.48l3.85 1.24s6.85-6.29 17-1.77 35.61 15.68 41.57 18.89 7.14 15.38 7.14 15.38zM320.79 1275.25c-2.22-17.32-8.85-62.51-8.85-62.51h-31.43s4.45 46.61 9.53 68.57c1.73 7.44 22.08 21.12 22.08 21.12s9.3-22.28 8.67-27.18zm-25.13-29.94a5 5 0 115 5 5 5 0 01-5-5zm2.81 18.15a5 5 0 115 5 5 5 0 01-5-5zm8.6 25.53a5 5 0 115-5 5 5 0 01-5 5.01z" fill="#262521" stroke="#262521" stroke-linecap="round" stroke-linejoin="round" stroke-width="3"/><path fill="none" stroke="#84837e" stroke-linecap="round" stroke-miterlimit="10" stroke-width="3" d="M666.38 1281.97l.33 11.95"/><rect x="646.84" y="1279.65" width="39.63" height="24.49" rx="3" transform="rotate(-1.57 668.077 1294.273)" fill="none" stroke="#84837e" stroke-miterlimit="10" stroke-width="3"/><path stroke-width="3" stroke="#262521" stroke-linecap="round" stroke-linejoin="round" fill="#262521" d="M650.084 1216.155l28.84-.79 1.848 67.465-28.839.79z"/></svg>