<svg xmlns="http://www.w3.org/2000/svg" width="1000" height="1550" viewBox="0 0 1000 1550"><path d="M675.54 1223.65l5.66 56.15s-67.06 9.28-180.87 13.77-226.51-13.77-226.51-13.77l4.64-34.94z" fill="#fff" stroke="#262521" stroke-linecap="round" stroke-miterlimit="10" stroke-width="3"/><path d="M508.12 361.92c11.56 7.21 8.32 24.55 4.84 35.65-7 13.62-27.35 12.57-40.56 11.18-10.75-1.61-14.59-12.48-17.95-21.29-4-10.06 1.25-21.43 12.46-23.31 13.45-3.95 27.27-5.84 41.21-2.23zM385.83 366.39c14-.81 41.3-5.27 45.75 12.57 1.85 12.25-3.32 31.2-17.11 33.8-13.61 2.71-35.45 5.25-40.85-11.17-3.08-9.88-7.17-24.12 2-31.84.47-.35 9.74-3.3 10.21-3.36z" fill="#221717" opacity=".95"/><path d="M383.86 416.82c-16.06-3.39-14.69-23.61-24.51-33.11.59-4.1-3.26-19.45.59-20.46 21.81-2.38 44.7-4.86 66.24.44 17.1 9.13 29.67-3.43 46-6.33 12-2.45 53.55-6.26 52.55-1.51-.53 5.95 3.15 15.76-.3 20.42-7.65 10.2-3.87 29.06-19.2 33.46-8.08 1.84-38.07 10-46.79-7.18-4.85-5.05-6.75-22.28-12.63-22.88-3.29.34-8.48-.77-9.44 3.49-5.65 34.93-23.37 38.27-52.51 33.66zM497.45 361c-13 .21-28.48.4-39 9-7.19 8.81-1.9 19.9 2.61 28.59 4.1 9.53 15.33 10.64 24.54 10.13 9.15-1 21.86-1.64 25.79-11.53 4.61-14.09 6.4-36.7-13.94-36.19zm-120.8 9.85c-10.54 8.13-4.46 38.56 9 41.25 12.59 2.23 30.78 4.13 39.12-7.6 6.58-11.63 11.06-33.41-7.19-36.11-13.41-2.81-28.12-2.82-40.93 2.45z" fill="#3f5443" stroke="#262521" stroke-linecap="round" stroke-linejoin="round" stroke-width="3"/><path d="M752.23 1043c-3.83-55.87-22.88-124.63-22.88-124.63s-14.59-306.95-52.89-331.94c-10.88-7.1-142.29-56.21-142.29-56.21s-2.49 55-82.84 55c-65.08 0-82.1-39.23-86.21-51.38a10.79 10.79 0 01-.75-2.59c-1 .65-100.94 62.69-145.44 89.5C174.2 647.71 192.25 945 192.25 945a619.79 619.79 0 00-3.6 128.12c5.53 68.42-1.88 179.2 14.45 197.94l61-1.5s-5.6-14.35-4.65-27c2.27-30.22 5.53-104.27 15.36-135.22s21.45-88.31 21.45-88.33c.49 23.68.3 42.23-1 50.33-3.6 21.92-31.66 102.78-17.78 133.07-3.34 29.28-5.68 57.36-5.68 57.36s71 13.89 148 13c137.53-1.66 264.08-24.63 264.08-24.63s-1.48-25.34-4.52-50.16c9.94-22.62-4.2-83.52-17.92-143 17.07 47.16 40.25 126.63 42.46 162.33 1.64 26.39 2.89 34.36 2.89 34.36h58.1s4.48-6.67 5.3-18.89-12.38-108.5-17.96-189.78z" fill="#262521" stroke="#262521" stroke-linecap="round" stroke-linejoin="round" stroke-width="3"/></svg>