<svg xmlns="http://www.w3.org/2000/svg" width="1250" height="1550" viewBox="0 0 1250 1550"><path d="M421.22 1019s-11.62 57.38-21.45 88.33-13.09 105-15.36 135.22c-1 12.66 4.65 27 4.65 27l-61 1.5c-16.33-18.74-8.92-129.52-14.45-197.94A619.79 619.79 0 01317.25 945s-18.05-297.29 26.68-324.24 148.6-94.93 149.57-92.08c4.11 12.15 15.06 50 79.65 50s79.23-52 79.23-52 138.2 52.7 149.08 59.8c38.3 25 52.89 331.94 52.89 331.94s19 68.76 22.88 124.63c5.58 81.26 18.66 177.57 17.85 189.79s-5.3 18.89-5.3 18.89h-58.1s-1.25-8-2.89-34.36c-2.47-39.8-31-134-48.07-177.22" fill="#f9f9f7" stroke="#262521" stroke-linecap="round" stroke-linejoin="round" stroke-width="3"/><path d="M410.65 807.61s5.34 199.1 3.83 238.13c-.83 21.49-28.07 166.52-15.76 193.7 0 13 1 44.83 1 44.83s35.46 23.26 90.75 19c9.17-.7.28 72.79 16.94 72.59 14.57-.18 204.3-1.86 211.73-7.48s-4.93-73.63 4.4-74.64 85-12.36 85-12.36.06-30.34-.71-43.93c14.49-25-23.66-192.61-25.46-262.56-1.22-47.59-16.09-167.28-16.09-167.28" fill="#f9f9f7" stroke="#262521" stroke-linecap="round" stroke-linejoin="round" stroke-width="3"/><path fill="none" stroke="#d6d6d2" stroke-linecap="round" stroke-linejoin="round" stroke-width="6" d="M869.97 1214.68v29.46M854.26 1214.74l.84 29.34M884.88 1214.56l-1.89 29.7M839.6 1214.94l2.74 28.94M359.56 1233.68l1.98 29.4M345.2 1234.4l3.05 28.74M330.25 1234.5l3.89 29.51M373.65 1233.62l.21 29.07M607.84 1302.1l2.62 64.61M627.35 1302.11l2.61 64.6M646.85 1301.62l2.61 64.6M666.35 1300.63l2.61 64.6M685.83 1299.75l2.61 64.61M705.33 1299.26l2.61 64.6M742.06 1248.94v36.08M472.98 1261.18l1 36.08M510.34 1303.56l2.61 64.61M529.86 1303.95l2.61 64.6M412.02 1246.08l.02 35.03M432.08 1252.01l-.5 38.17M452.46 1258.38v36.08M549.36 1303.46l2.62 64.6M568.82 1303.7l2.61 64.61M588.34 1302.09l2.62 64.61M761.07 1246.33l.22 36.06M779.83 1243.08l-.16 36.02M796.38 1240.17l1.04 36.06M656.18 536.59l24.02 8.59M573.08 586.22v25.5M590.04 584.91l1.32 25.47M605.06 582.35l4.25 25.14M618.67 577.14l9.1 23.83M630.82 568.96l14.34 21.1M641.01 559.83l20.3 15.43M649.62 549.03l23.39 10.17M488.83 540.31l-21.94 12.99M556.13 584.91l-1.32 25.47M541.61 582.85l-4.25 25.14M528.07 577.83l-9.1 23.82M515.47 571.8l-14.34 21.1M504.23 563.52l-19.39 16.57M494.92 552.25l-21.34 13.97M460.26 562.83l30.79 730.72M689.08 554.11l30.63 729.84M579.28 702s-8.4 27.84-8.46 26.45 10.18 26.71 10.64 25.3-8.34 29.58-8.34 29.58l10.71 27M580.22 702s10.71 27 10.65 25.65-7.91 27.47-8.48 26.1 10.78 28.78 10.78 28.78l-8.41 27.84M583.83 810.41s-8.4 27.84-8.46 26.45 10.18 26.72 10.63 25.31-8.33 29.58-8.33 29.58l10.71 27M584.76 810.37s10.71 27 10.66 25.65-7.91 27.48-8.48 26.11 10.78 28.77 10.78 28.77l-8.41 27.85M588.38 918.79s-8.41 27.84-8.46 26.45 10.17 26.71 10.63 25.3-8.33 29.58-8.33 29.58l10.71 27M589.31 918.75S600 945.79 600 944.4s-7.9 27.47-8.48 26.1 10.79 28.78 10.79 28.78l-8.41 27.84M592.93 1027.16s-8.41 27.84-8.47 26.45 10.18 26.72 10.64 25.3-8.33 29.58-8.33 29.58l10.71 27M593.86 1027.12s10.71 27 10.65 25.65-7.9 27.47-8.48 26.11 10.78 28.77 10.78 28.77l-8.4 27.84M597.48 1135.53s-8.41 27.84-8.47 26.45 10.18 26.72 10.64 25.31-8.33 29.58-8.33 29.58l10.71 27M598.41 1135.49s10.71 27 10.65 25.65-7.9 27.48-8.48 26.11 10.78 28.75 10.78 28.75l-8.4 27.85M602.07 1244.93s-8.41 27.84-8.47 26.45 10.18 26.71 10.64 25.3M565.25 702.63s-8.41 27.84-8.46 26.45 10.17 26.71 10.63 25.3-8.33 29.62-8.33 29.62l10.71 27M569.8 811s-8.41 27.84-8.47 26.45 10.18 26.72 10.64 25.31-8.33 29.57-8.33 29.57l10.71 27M574.35 919.37s-8.41 27.85-8.47 26.46 10.18 26.71 10.64 25.3-8.33 29.58-8.33 29.58l10.7 27M578.89 1027.75s-8.4 27.84-8.46 26.45 10.18 26.71 10.64 25.3-8.34 29.58-8.34 29.58l10.71 27M583.44 1136.12S575 1164 575 1162.57s10.18 26.72 10.63 25.31-8.33 29.58-8.33 29.58l10.71 27M588 1245.52s-8.4 27.84-8.46 26.45 10.18 26.71 10.64 25.3M603 1244.89s10.71 27 10.65 25.65-7.9 27.47-8.48 26.1M593.37 701.45s10.71 27 10.65 25.65-7.9 27.47-8.47 26.1 10.78 28.8 10.78 28.8l-8.41 27.84M566.27 620c-.06-1.39 10.18 26.72 10.63 25.3s-8.33 29.58-8.33 29.58l10.71 27M586.31 619.18c0-1.39-7.9 27.47-8.47 26.11s10.78 28.77 10.78 28.77l-8.41 27.84M552.23 620.61c-.05-1.39 10.18 26.71 10.64 25.3s-8.33 29.58-8.33 29.58l10.71 27M599.47 618.63c-.06-1.39-7.9 27.47-8.48 26.1s10.78 28.78 10.78 28.78l-8.4 27.84"/><path d="M597.92 809.82s10.71 27 10.65 25.65-7.9 27.47-8.48 26.11 10.79 28.77 10.79 28.77l-8.41 27.84M602.47 918.19s10.71 27 10.65 25.65-7.9 27.48-8.48 26.11 10.78 28.78 10.78 28.78l-8.4 27.84M607 1026.57s10.71 27 10.65 25.65-7.91 27.47-8.48 26.1S620 1107.1 620 1107.1l-8.4 27.84M611.57 1134.94s10.7 27 10.65 25.65-7.91 27.47-8.48 26.11 10.78 28.77 10.78 28.77l-8.41 27.84M616.16 1244.34s10.71 27 10.65 25.65-7.91 27.47-8.48 26.1M659.23 690.94l24.81-16.79M658.72 678.66l24.81-16.79M661.06 734.61l24.82-16.79M663.46 791.67l24.81-16.78M665.89 849.67l24.81-16.79M668.25 905.85l24.81-16.79M670.67 963.42l24.81-16.78M673.01 1019.31l24.81-16.79M675.44 1077.16l24.81-16.79M677.79 1133.04l24.81-16.79M680.24 1191.44l24.81-16.79M682.68 1249.74l24.81-16.78M693.18 1290.9l14.31-9.68M661.58 746.99l24.82-16.79M656.29 620.84l24.81-16.78M672.49 575.26l8.61-5.83M656.81 633.22l24.81-16.78M663.97 803.75l24.81-16.78M666.4 861.69l24.81-16.79M668.78 918.45l24.81-16.78M671.14 974.76l24.81-16.79M673.53 1031.52l24.81-16.79M675.96 1089.46l24.81-16.79M678.34 1146.22l24.81-16.79M680.77 1204.24l24.81-16.79M683.16 1261l24.81-16.79M500.44 697.6l-26.13-14.65M502.8 753.66l-26.13-14.65M505.18 810.42l-26.13-14.65M507.61 868.35l-26.13-14.64M509.99 925.12l-26.13-14.65M512.36 981.42l-26.13-14.65M514.74 1038.18l-26.13-14.65M517.17 1096.12l-26.13-14.65M519.55 1152.88l-26.13-14.65M521.99 1210.9l-26.13-14.65M524.37 1267.66l-26.13-14.65M507.75 1295.27l-9.51-5.33M499.93 685.32l-26.13-14.65M502.28 741.38l-26.13-14.65M497.87 636.14l-26.14-14.65M497.35 623.86l-26.13-14.65M504.66 798.14l-26.13-14.65M507.1 856.08l-26.14-14.65M509.48 912.84l-26.13-14.65M511.84 969.14l-26.13-14.65M514.22 1025.9l-26.13-14.65M516.65 1083.84l-26.13-14.65M519.04 1140.6l-26.13-14.65M521.47 1198.62l-26.13-14.65M523.85 1255.38l-26.13-14.65" fill="none" stroke="#d6d6d2" stroke-linecap="round" stroke-linejoin="round" stroke-width="6"/><rect x="621.31" y="719.36" width="22.3" height="43.8" rx="11.15" transform="rotate(-67.98 632.48 741.257)" stroke-width="6" stroke="#d6d6d2" stroke-linecap="round" stroke-linejoin="round" fill="none"/><rect x="620.27" y="694.6" width="22.3" height="43.8" rx="11.15" transform="rotate(-67.98 631.44 716.5)" stroke-width="6" stroke="#d6d6d2" stroke-linecap="round" stroke-linejoin="round" fill="none"/><rect x="623.45" y="770.34" width="22.3" height="43.8" rx="11.15" transform="rotate(-67.98 634.612 792.249)" stroke-width="6" stroke="#d6d6d2" stroke-linecap="round" stroke-linejoin="round" fill="none"/><rect x="622.41" y="745.59" width="22.3" height="43.8" rx="11.15" transform="rotate(-67.98 633.583 767.49)" stroke-width="6" stroke="#d6d6d2" stroke-linecap="round" stroke-linejoin="round" fill="none"/><rect x="625.5" y="819.15" width="22.3" height="43.8" rx="11.15" transform="rotate(-67.98 636.666 841.053)" stroke-width="6" stroke="#d6d6d2" stroke-linecap="round" stroke-linejoin="round" fill="none"/><rect x="624.46" y="794.39" width="22.3" height="43.8" rx="11.15" transform="rotate(-67.98 635.625 816.296)" stroke-width="6" stroke="#d6d6d2" stroke-linecap="round" stroke-linejoin="round" fill="none"/><path d="M636.25 608.23l5.13 2.08a11.19 11.19 0 016.15 14.52h0A11.18 11.18 0 01633 631l-19.92-8.06a11.12 11.12 0 01-6.27-6.49" fill="none" stroke="#d6d6d2" stroke-linecap="round" stroke-linejoin="round" stroke-width="6"/><rect x="618.22" y="645.71" width="22.3" height="43.8" rx="11.15" transform="rotate(-67.98 629.388 667.612)" stroke-width="6" stroke="#d6d6d2" stroke-linecap="round" stroke-linejoin="round" fill="none"/><rect x="617.18" y="620.95" width="22.3" height="43.8" rx="11.15" transform="rotate(-67.98 628.347 642.855)" stroke-width="6" stroke="#d6d6d2" stroke-linecap="round" stroke-linejoin="round" fill="none"/><rect x="620.27" y="694.51" width="22.3" height="43.8" rx="11.15" transform="rotate(-67.98 631.43 716.418)" stroke-width="6" stroke="#d6d6d2" stroke-linecap="round" stroke-linejoin="round" fill="none"/><rect x="619.23" y="669.76" width="22.3" height="43.8" rx="11.15" transform="rotate(-67.98 630.4 691.659)" stroke-width="6" stroke="#d6d6d2" stroke-linecap="round" stroke-linejoin="round" fill="none"/><rect x="627.64" y="870.14" width="22.3" height="43.8" rx="11.15" transform="rotate(-67.98 638.81 892.043)" stroke-width="6" stroke="#d6d6d2" stroke-linecap="round" stroke-linejoin="round" fill="none"/><rect x="626.6" y="845.38" width="22.3" height="43.8" rx="11.15" transform="rotate(-67.98 637.769 867.286)" stroke-width="6" stroke="#d6d6d2" stroke-linecap="round" stroke-linejoin="round" fill="none"/><rect x="629.73" y="919.89" width="22.3" height="43.8" rx="11.15" transform="rotate(-67.98 640.894 941.795)" stroke-width="6" stroke="#d6d6d2" stroke-linecap="round" stroke-linejoin="round" fill="none"/><rect x="628.69" y="895.13" width="22.3" height="43.8" rx="11.15" transform="rotate(-67.98 639.853 917.038)" stroke-width="6" stroke="#d6d6d2" stroke-linecap="round" stroke-linejoin="round" fill="none"/><rect x="631.87" y="970.88" width="22.3" height="43.8" rx="11.15" transform="rotate(-67.98 643.038 992.784)" stroke-width="6" stroke="#d6d6d2" stroke-linecap="round" stroke-linejoin="round" fill="none"/><rect x="630.83" y="946.12" width="22.3" height="43.8" rx="11.15" transform="rotate(-67.98 641.997 968.028)" stroke-width="6" stroke="#d6d6d2" stroke-linecap="round" stroke-linejoin="round" fill="none"/><rect x="633.91" y="1019.68" width="22.3" height="43.8" rx="11.15" transform="rotate(-67.98 645.08 1041.59)" stroke-width="6" stroke="#d6d6d2" stroke-linecap="round" stroke-linejoin="round" fill="none"/><rect x="632.87" y="994.92" width="22.3" height="43.8" rx="11.15" transform="rotate(-67.98 644.05 1016.832)" stroke-width="6" stroke="#d6d6d2" stroke-linecap="round" stroke-linejoin="round" fill="none"/><rect x="636.05" y="1070.67" width="22.3" height="43.8" rx="11.15" transform="rotate(-67.98 647.224 1092.58)" stroke-width="6" stroke="#d6d6d2" stroke-linecap="round" stroke-linejoin="round" fill="none"/><rect x="635.01" y="1045.91" width="22.3" height="43.8" rx="11.15" transform="rotate(-67.98 646.183 1067.824)" stroke-width="6" stroke="#d6d6d2" stroke-linecap="round" stroke-linejoin="round" fill="none"/><rect x="638.11" y="1119.66" width="22.3" height="43.8" rx="11.15" transform="rotate(-67.98 649.282 1141.57)" stroke-width="6" stroke="#d6d6d2" stroke-linecap="round" stroke-linejoin="round" fill="none"/><rect x="637.07" y="1094.9" width="22.3" height="43.8" rx="11.15" transform="rotate(-67.98 648.246 1116.806)" stroke-width="6" stroke="#d6d6d2" stroke-linecap="round" stroke-linejoin="round" fill="none"/><rect x="640.25" y="1170.65" width="22.3" height="43.8" rx="11.15" transform="rotate(-67.98 651.419 1192.555)" stroke-width="6" stroke="#d6d6d2" stroke-linecap="round" stroke-linejoin="round" fill="none"/><rect x="639.21" y="1145.89" width="22.3" height="43.8" rx="11.15" transform="rotate(-67.98 650.377 1167.799)" stroke-width="6" stroke="#d6d6d2" stroke-linecap="round" stroke-linejoin="round" fill="none"/><rect x="642.3" y="1219.45" width="22.3" height="43.8" rx="11.15" transform="rotate(-67.98 653.473 1241.36)" stroke-width="6" stroke="#d6d6d2" stroke-linecap="round" stroke-linejoin="round" fill="none"/><rect x="641.26" y="1194.69" width="22.3" height="43.8" rx="11.15" transform="rotate(-67.98 652.431 1216.603)" stroke-width="6" stroke="#d6d6d2" stroke-linecap="round" stroke-linejoin="round" fill="none"/><rect x="643.4" y="1245.68" width="22.3" height="43.8" rx="11.15" transform="rotate(-67.98 654.576 1267.592)" stroke-width="6" stroke="#d6d6d2" stroke-linecap="round" stroke-linejoin="round" fill="none"/><path d="M634.33 1291.86a11.14 11.14 0 01-.08-8.53h0a11.19 11.19 0 0114.52-6.15l19.93 8.06a11.16 11.16 0 016.85 8.8M531.54 1294.17a11 11 0 01.56-6.48h0a11.18 11.18 0 0114.52-6.16l19.92 8.06a11.06 11.06 0 015.94 5.68" fill="none" stroke="#d6d6d2" stroke-linecap="round" stroke-linejoin="round" stroke-width="6"/><rect x="519.75" y="723.62" width="22.3" height="43.8" rx="11.15" transform="rotate(-67.98 530.915 745.523)" stroke-width="6" stroke="#d6d6d2" stroke-linecap="round" stroke-linejoin="round" fill="none"/><rect x="518.71" y="698.86" width="22.3" height="43.8" rx="11.15" transform="rotate(-67.98 529.874 720.766)" stroke-width="6" stroke="#d6d6d2" stroke-linecap="round" stroke-linejoin="round" fill="none"/><rect x="521.89" y="774.61" width="22.3" height="43.8" rx="11.15" transform="rotate(-67.98 533.06 796.512)" stroke-width="6" stroke="#d6d6d2" stroke-linecap="round" stroke-linejoin="round" fill="none"/><rect x="520.85" y="749.85" width="22.3" height="43.8" rx="11.15" transform="rotate(-67.98 532.018 771.756)" stroke-width="6" stroke="#d6d6d2" stroke-linecap="round" stroke-linejoin="round" fill="none"/><rect x="523.94" y="823.41" width="22.3" height="43.8" rx="11.15" transform="rotate(-67.98 535.113 845.316)" stroke-width="6" stroke="#d6d6d2" stroke-linecap="round" stroke-linejoin="round" fill="none"/><rect x="522.9" y="798.65" width="22.3" height="43.8" rx="11.15" transform="rotate(-67.98 534.072 820.56)" stroke-width="6" stroke="#d6d6d2" stroke-linecap="round" stroke-linejoin="round" fill="none"/><rect x="515.64" y="625.59" width="22.3" height="43.8" rx="11.15" transform="rotate(-67.98 526.804 647.503)" stroke-width="6" stroke="#d6d6d2" stroke-linecap="round" stroke-linejoin="round" fill="none"/><path d="M539.9 616.43a11.19 11.19 0 016.15 14.57h0a11.19 11.19 0 01-14.52 6.15l-19.92-8.05a11.19 11.19 0 01-6.16-14.52h0a11.13 11.13 0 016-6.08" fill="none" stroke="#d6d6d2" stroke-linecap="round" stroke-linejoin="round" stroke-width="6"/><rect x="517.69" y="674.4" width="22.3" height="43.8" rx="11.15" transform="rotate(-67.98 528.85 696.302)" stroke-width="6" stroke="#d6d6d2" stroke-linecap="round" stroke-linejoin="round" fill="none"/><rect x="516.65" y="649.64" width="22.3" height="43.8" rx="11.15" transform="rotate(-67.98 527.81 671.545)" stroke-width="6" stroke="#d6d6d2" stroke-linecap="round" stroke-linejoin="round" fill="none"/><rect x="526.08" y="874.4" width="22.3" height="43.8" rx="11.15" transform="rotate(-67.98 537.245 896.309)" stroke-width="6" stroke="#d6d6d2" stroke-linecap="round" stroke-linejoin="round" fill="none"/><rect x="525.04" y="849.64" width="22.3" height="43.8" rx="11.15" transform="rotate(-67.98 536.209 871.544)" stroke-width="6" stroke="#d6d6d2" stroke-linecap="round" stroke-linejoin="round" fill="none"/><rect x="528.17" y="924.15" width="22.3" height="43.8" rx="11.15" transform="rotate(-67.98 539.334 946.053)" stroke-width="6" stroke="#d6d6d2" stroke-linecap="round" stroke-linejoin="round" fill="none"/><rect x="527.13" y="899.39" width="22.3" height="43.8" rx="11.15" transform="rotate(-67.98 538.3 921.301)" stroke-width="6" stroke="#d6d6d2" stroke-linecap="round" stroke-linejoin="round" fill="none"/><rect x="530.31" y="975.14" width="22.3" height="43.8" rx="11.15" transform="rotate(-67.98 541.478 997.043)" stroke-width="6" stroke="#d6d6d2" stroke-linecap="round" stroke-linejoin="round" fill="none"/><rect x="529.27" y="950.38" width="22.3" height="43.8" rx="11.15" transform="rotate(-67.98 540.437 972.286)" stroke-width="6" stroke="#d6d6d2" stroke-linecap="round" stroke-linejoin="round" fill="none"/><rect x="532.36" y="1023.94" width="22.3" height="43.8" rx="11.15" transform="rotate(-68.3 538.747 1042.183)" stroke-width="6" stroke="#d6d6d2" stroke-linecap="round" stroke-linejoin="round" fill="none"/><rect x="531.32" y="999.19" width="22.3" height="43.8" rx="11.15" transform="rotate(-67.98 542.486 1021.097)" stroke-width="6" stroke="#d6d6d2" stroke-linecap="round" stroke-linejoin="round" fill="none"/><rect x="534.5" y="1074.93" width="22.3" height="43.8" rx="11.15" transform="rotate(-67.98 545.664 1096.839)" stroke-width="6" stroke="#d6d6d2" stroke-linecap="round" stroke-linejoin="round" fill="none"/><rect x="533.46" y="1050.17" width="22.3" height="43.8" rx="11.15" transform="rotate(-67.98 544.63 1072.087)" stroke-width="6" stroke="#d6d6d2" stroke-linecap="round" stroke-linejoin="round" fill="none"/><rect x="536.55" y="1123.92" width="22.3" height="43.8" rx="11.15" transform="rotate(-67.98 547.722 1145.829)" stroke-width="6" stroke="#d6d6d2" stroke-linecap="round" stroke-linejoin="round" fill="none"/><rect x="535.51" y="1099.16" width="22.3" height="43.8" rx="11.15" transform="rotate(-68.3 541.723 1117.06)" stroke-width="6" stroke="#d6d6d2" stroke-linecap="round" stroke-linejoin="round" fill="none"/><rect x="538.69" y="1174.91" width="22.3" height="43.8" rx="11.15" transform="rotate(-67.98 549.866 1196.819)" stroke-width="6" stroke="#d6d6d2" stroke-linecap="round" stroke-linejoin="round" fill="none"/><rect x="537.65" y="1150.15" width="22.3" height="43.8" rx="11.15" transform="rotate(-67.98 548.825 1172.062)" stroke-width="6" stroke="#d6d6d2" stroke-linecap="round" stroke-linejoin="round" fill="none"/><rect x="540.74" y="1223.71" width="22.3" height="43.8" rx="11.15" transform="rotate(-68.3 546.656 1241.047)" stroke-width="6" stroke="#d6d6d2" stroke-linecap="round" stroke-linejoin="round" fill="none"/><rect x="539.7" y="1198.96" width="22.3" height="43.8" rx="11.15" transform="rotate(-67.98 550.873 1220.873)" stroke-width="6" stroke="#d6d6d2" stroke-linecap="round" stroke-linejoin="round" fill="none"/><rect x="541.84" y="1249.95" width="22.3" height="43.8" rx="11.15" transform="rotate(-67.98 553.01 1271.858)" stroke-width="6" stroke="#d6d6d2" stroke-linecap="round" stroke-linejoin="round" fill="none"/></svg>