<svg xmlns="http://www.w3.org/2000/svg" width="1250" height="1550" viewBox="0 0 1250 1550"><title>s01e01-02</title><path d="M489.37,531.26l0,0S489.38,531.23,489.37,531.26Z" fill="#fff" stroke="#262521" stroke-linecap="round" stroke-linejoin="round" stroke-width="3"/><path d="M807.5,1308.48l-7.39-22.59,4.88-3.09-43.41-446L659.17,530.24s-2.49,55-82.84,55c-65.08,0-82.1-39.23-86.21-51.38a10.79,10.79,0,0,1-.75-2.59c-1.05.66-72,325.48-72,325.48l-8.09,422.1,8.09,9.86-8.56,11.49,8,6.16s-.15,6.28-8.76,9.89-.45,22.46-.45,22.46,58.07-23.41,83-19.71c51.32,7.63,105.33,40.06,226.06-3.09,65.18-23.3,93.84,22.8,93.84,22.8Z" fill="#fff" stroke="#262521" stroke-linecap="round" stroke-linejoin="round" stroke-width="3"/><path d="M698.74,1164.12C614.9,1242.73,582,1214.27,486.68,1186c166.61,107.39,159.63,28,306.06-29.06l-2-20.11C758.56,1138.21,725.41,1145.14,698.74,1164.12Z" fill="#262521" opacity="0.15"/><path d="M502,532.87S514.7,640,578.91,640c38.12,0,57.36-37.92,66.71-68.72" fill="none" stroke="#262521" stroke-linecap="round" stroke-linejoin="round" stroke-width="8.27" stroke-dasharray="1.65 4.96"/><path d="M577.55,640.09a1.66,1.66,0,0,1,0-3.31c.53,0,1.06,0,1.6,0a1.68,1.68,0,0,1,1.73,1.58,1.65,1.65,0,0,1-1.58,1.72c-.57,0-1.14.05-1.71.05Zm-4.95-.2h-.15l-1.7-.19a1.65,1.65,0,0,1,.42-3.28c.52.07,1.05.12,1.58.17a1.65,1.65,0,0,1-.15,3.3Zm11.54-.29a1.66,1.66,0,0,1-.22-3.3l1.59-.23a1.65,1.65,0,0,1,.53,3.26l-1.68.25Zm-18-.78a1.31,1.31,0,0,1-.39-.05c-.55-.13-1.11-.27-1.65-.43a1.65,1.65,0,1,1,.89-3.18l1.54.4a1.65,1.65,0,0,1-.39,3.26Zm24.51-.48a1.66,1.66,0,0,1-.41-3.26c.52-.13,1-.27,1.55-.42a1.65,1.65,0,1,1,.91,3.18c-.54.16-1.09.31-1.64.45A1.84,1.84,0,0,1,590.61,638.34Zm-30.79-1.52a1.66,1.66,0,0,1-.61-.12c-.53-.21-1.06-.44-1.58-.67a1.65,1.65,0,1,1,1.34-3l1.47.62a1.65,1.65,0,0,1,.92,2.15A1.67,1.67,0,0,1,559.82,636.82Zm37.07-.49a1.66,1.66,0,0,1-.6-3.2c.5-.19,1-.39,1.49-.6a1.65,1.65,0,0,1,1.29,3c-.52.23-1.05.44-1.58.64A1.61,1.61,0,0,1,596.89,636.33Zm-43-2.37a1.63,1.63,0,0,1-.82-.22l-1.46-.86a1.66,1.66,0,0,1,1.72-2.83c.45.28.91.55,1.38.82a1.65,1.65,0,0,1-.82,3.09Zm-19.48-17.62a1.65,1.65,0,0,1-1.31-.65c-.34-.44-.68-.89-1-1.34a1.65,1.65,0,0,1,2.65-2c.32.43.65.87,1,1.29a1.65,1.65,0,0,1-.3,2.32A1.61,1.61,0,0,1,534.42,616.34ZM530.57,611a1.66,1.66,0,0,1-1.38-.73c-.31-.47-.62-.93-.92-1.41A1.65,1.65,0,1,1,531,607l.9,1.36a1.65,1.65,0,0,1-.46,2.29A1.62,1.62,0,0,1,530.57,611Zm100-5.07a1.7,1.7,0,0,1-.86-.24,1.66,1.66,0,0,1-.55-2.27c.29-.47.57-.94.85-1.41a1.65,1.65,0,0,1,2.84,1.69c-.28.48-.57,1-.86,1.44A1.66,1.66,0,0,1,630.6,605.89Zm3.3-5.75a1.69,1.69,0,0,1-.78-.19,1.67,1.67,0,0,1-.68-2.24c.26-.49.52-1,.77-1.46a1.66,1.66,0,1,1,2.93,1.54c-.25.49-.52,1-.78,1.48A1.65,1.65,0,0,1,633.9,600.14Zm3-5.92a1.76,1.76,0,0,1-.7-.15,1.66,1.66,0,0,1-.79-2.21l.69-1.48a1.66,1.66,0,0,1,3,1.38l-.71,1.52A1.65,1.65,0,0,1,636.88,594.22Zm2.7-6.05a1.81,1.81,0,0,1-.64-.12,1.66,1.66,0,0,1-.88-2.17l.62-1.51a1.65,1.65,0,1,1,3.06,1.25l-.63,1.54A1.66,1.66,0,0,1,639.58,588.17Z" fill="#b7b6b0"/><path d="M579.14,642.65h0l-1.71,0a1.66,1.66,0,0,1,.13-3.31c.54,0,1.07,0,1.61,0a1.66,1.66,0,0,1,0,3.31Zm5-.17a1.65,1.65,0,0,1-.13-3.3l1.59-.16a1.66,1.66,0,1,1,.37,3.29c-.56.06-1.13.12-1.7.16Zm-11.54-.3h-.22l-1.69-.25a1.66,1.66,0,0,1,.54-3.27c.53.09,1.05.17,1.59.24a1.65,1.65,0,0,1-.22,3.29Zm18.07-.64a1.65,1.65,0,0,1-.33-3.27l1.55-.35a1.65,1.65,0,0,1,.79,3.21c-.55.14-1.11.26-1.67.38A2,2,0,0,1,590.62,641.54Zm-24.55-.64a1.52,1.52,0,0,1-.42-.06l-1.64-.46a1.66,1.66,0,0,1-1.11-2.06,1.64,1.64,0,0,1,2.06-1.11c.51.15,1,.3,1.54.43a1.66,1.66,0,0,1-.43,3.26ZM597,639.78a1.66,1.66,0,0,1-.54-3.22l1.5-.55a1.65,1.65,0,1,1,1.19,3.08c-.53.21-1.06.4-1.6.59A1.78,1.78,0,0,1,597,639.78Zm-37.17-1a1.67,1.67,0,0,1-.62-.12c-.53-.21-1.05-.44-1.57-.67a1.65,1.65,0,1,1,1.35-3q.72.33,1.47.63a1.65,1.65,0,0,1-.63,3.18Zm43.26-1.59a1.66,1.66,0,0,1-.74-3.14c.47-.23.95-.48,1.41-.74A1.67,1.67,0,0,1,606,634a1.65,1.65,0,0,1-.67,2.24c-.5.27-1,.54-1.52.79A1.58,1.58,0,0,1,603.07,637.2Zm-49.21-1.27a1.72,1.72,0,0,1-.81-.21c-.49-.28-1-.56-1.46-.85a1.65,1.65,0,1,1,1.69-2.84c.46.27.92.54,1.39.8a1.66,1.66,0,0,1,.64,2.25A1.68,1.68,0,0,1,553.86,635.93Zm-5.58-3.54a1.64,1.64,0,0,1-1-.31c-.46-.33-.92-.66-1.37-1a1.66,1.66,0,0,1,2-2.65c.43.33.87.65,1.3,1a1.65,1.65,0,0,1-1,3Zm79.19-17a1.65,1.65,0,0,1-1.33-2.62l.94-1.33a1.65,1.65,0,0,1,2.71,1.89c-.32.46-.64.92-1,1.37A1.66,1.66,0,0,1,627.47,615.34Zm3.7-5.49a1.65,1.65,0,0,1-1.4-2.53l.86-1.39a1.65,1.65,0,0,1,2.82,1.72c-.29.48-.58,1-.88,1.43A1.64,1.64,0,0,1,631.17,609.85Zm3.36-5.7a1.68,1.68,0,0,1-.8-.21,1.65,1.65,0,0,1-.64-2.25l.78-1.43a1.65,1.65,0,1,1,2.91,1.56l-.8,1.48A1.66,1.66,0,0,1,634.53,604.15Zm3.07-5.89a1.55,1.55,0,0,1-.72-.17,1.65,1.65,0,0,1-.76-2.21c.24-.49.48-1,.71-1.47a1.66,1.66,0,0,1,3,1.42c-.24.51-.48,1-.73,1.51A1.67,1.67,0,0,1,637.6,598.26Z" fill="#7f7e78"/><path d="M602.89,633.58a1.66,1.66,0,0,1-.78-3.12c.48-.25.95-.51,1.41-.77a1.65,1.65,0,1,1,1.64,2.87c-.49.28-1,.55-1.5.82A1.64,1.64,0,0,1,602.89,633.58Zm-54.51-3.23a1.66,1.66,0,0,1-1-.33c-.45-.33-.9-.68-1.35-1a1.66,1.66,0,1,1,2.05-2.6c.42.33.84.66,1.27,1a1.65,1.65,0,0,1-1,3Zm60.17-.21a1.65,1.65,0,0,1-.94-3c.44-.3.88-.61,1.31-.93a1.65,1.65,0,1,1,1.94,2.68c-.45.33-.91.66-1.38,1A1.7,1.7,0,0,1,608.55,630.14Zm-65.25-4a1.67,1.67,0,0,1-1.13-.44l-1.23-1.16a1.66,1.66,0,0,1,0-2.34,1.64,1.64,0,0,1,2.33,0l1.18,1.11a1.66,1.66,0,0,1-1.12,2.87Zm70.48,0a1.65,1.65,0,0,1-1.08-2.91l1.21-1.06a1.65,1.65,0,0,1,2.21,2.46l-1.27,1.11A1.62,1.62,0,0,1,613.78,626.12Zm4.8-4.52a1.63,1.63,0,0,1-1.15-.46,1.66,1.66,0,0,1,0-2.34l1.12-1.17a1.65,1.65,0,1,1,2.42,2.25c-.38.41-.77.82-1.16,1.22A1.64,1.64,0,0,1,618.58,621.6Zm-79.93-.18a1.63,1.63,0,0,1-1.22-.54c-.38-.42-.75-.84-1.12-1.27a1.65,1.65,0,0,1,2.5-2.16c.35.41.71.81,1.07,1.21a1.65,1.65,0,0,1-1.23,2.76ZM623,616.67A1.66,1.66,0,0,1,621.7,614c.35-.41.68-.83,1-1.25a1.65,1.65,0,1,1,2.59,2c-.34.44-.7.87-1,1.3A1.65,1.65,0,0,1,623,616.67Zm4-5.25a1.61,1.61,0,0,1-1-.31,1.66,1.66,0,0,1-.4-2.3c.32-.44.62-.89.93-1.34a1.65,1.65,0,1,1,2.73,1.87c-.31.46-.63.92-.95,1.37A1.68,1.68,0,0,1,627,611.42Z" fill="#f4f4f4"/><path d="M608.78,633.88a1.65,1.65,0,0,1-.91-3q.68-.44,1.32-.9a1.65,1.65,0,1,1,1.91,2.7q-.69.5-1.41,1A1.59,1.59,0,0,1,608.78,633.88Zm5.3-3.94A1.65,1.65,0,0,1,613,627l1.23-1a1.65,1.65,0,0,1,2.18,2.49c-.42.37-.86.74-1.29,1.1A1.62,1.62,0,0,1,614.08,629.94Zm-71-1.66a1.61,1.61,0,0,1-1.09-.41c-.43-.37-.85-.75-1.27-1.13A1.66,1.66,0,1,1,543,624.3l1.2,1.08a1.65,1.65,0,0,1,.16,2.33A1.61,1.61,0,0,1,543.1,628.28ZM619,625.47a1.68,1.68,0,0,1-1.17-.48,1.66,1.66,0,0,1,0-2.34c.38-.38.76-.77,1.13-1.16a1.66,1.66,0,0,1,2.4,2.28c-.39.41-.78.81-1.18,1.21A1.63,1.63,0,0,1,619,625.47Zm-80.65-1.77a1.64,1.64,0,0,1-1.19-.51c-.39-.4-.78-.81-1.16-1.22a1.66,1.66,0,0,1,2.43-2.25c.37.4.74.8,1.12,1.18a1.66,1.66,0,0,1-1.2,2.8Zm85.11-3.13a1.62,1.62,0,0,1-1.06-.38,1.65,1.65,0,0,1-.21-2.33c.35-.42.69-.83,1-1.26a1.65,1.65,0,0,1,2.58,2.07c-.36.44-.71.88-1.07,1.31A1.66,1.66,0,0,1,623.42,620.57Zm-89.5-1.82a1.64,1.64,0,0,1-1.28-.6c-.36-.43-.71-.87-1.06-1.31a1.65,1.65,0,0,1,2.59-2.06l1,1.27a1.64,1.64,0,0,1-1.27,2.7Z" fill="#f4f4f4"/><path d="M705.3,1245c-20.24,12.92-40.46,26-62.66,35.39,58.73,3,89.34-41.37,159.64-25.45l-2.87-29.5C767.23,1225.79,733.89,1229,705.3,1245Z" fill="#262521" opacity="0.15"/><path d="M557.82,1256.15c-29-6.44-60.55,9.15-88.16-4.68-15.93-7.29-30.27-36-50-24.58a.94.94,0,0,1,.16.52v8.82c.5.78,1.26,2,0,2.44-.17.64.44,5.74-.45,6,14.82,25,70.07,16.59,95.58,17.52,17.85.39,35.76,2.41,53.57.33C566.54,1258.62,561.8,1257.06,557.82,1256.15Z" fill="#262521" opacity="0.15"/><path d="M780.07,1273.35c-42-5.09-77.85,20.39-116.86,29.85-30.32,1.27-60.72-3.2-91,2.4,19.35,4,38.49,9.21,57.84,13.11,45.4.4,85.55-31.1,131.22-32.07,18.63.91,33.76,15.21,46.72,27.39.7-3.8-6.79-24.25-7.93-28.14l4.7-5C798.11,1275,788.61,1274.17,780.07,1273.35Z" fill="#262521" opacity="0.15"/><path d="M413.46,1312.75a237,237,0,0,0,74.37-10.5c21.26-7.1,41.34-17.83,63.3-22.79,21.4-4.53,42.94,2.93,64.44,1.89-33.62-20.37-73.55-8.3-108.33,2.21-31.08,7.09-63.06,15.51-95.17,12.27l-3.25,4.36,8,6.16A10.22,10.22,0,0,1,413.46,1312.75Z" fill="#262521" opacity="0.15"/><path d="M562.52,743.26c-1.49-37.81-49.08-194.87-60.68-215.2,3.16-2.23,5.28-4.31,6-6.15,2-5.21,2.69-13,2.68-21L505,501c-30.35-3.08-73.6,59.17-75.92,60.41h0c-29.94,19-59.32,40.58-85.19,59.32-44.73,27-35.81,384-30.28,452.4,5.65,69.91,0,239.25,5.69,259.2l89.1-1.54L412,1244c18.34.81,48.64.62,94.44-1.47C510.25,1195.16,564.07,782.62,562.52,743.26Z" fill="#262521" stroke="#262521" stroke-linecap="round" stroke-linejoin="round" stroke-width="3"/><path d="M877.23,1043c-3.83-55.87-37.47-431.58-75.77-456.57-33.32-21.7-70.55-35-107.81-47.67-6.52-12.32-24.82-41.19-53.23-41.19l-2.14.05c.77,12.89,2.54,25.12,6.38,28.41A36,36,0,0,0,652,530c-9.61,29.48-34.8,188.64-34.8,228.83,0,44.66,27.72,439,36,480.67,65-1.29,146.19-2.86,146.49-3.9,1-3.55,1.74-9.82,2.16-18.29,6.13,55.14,11.07,101.12,11.07,101.12s99.8,2.06,100.61-10.16S882.81,1124.28,877.23,1043Z" fill="#262521" stroke="#262521" stroke-linecap="round" stroke-linejoin="round" stroke-width="3"/><path d="M427.61,564.58S407.2,599,397.13,614.36s154.93,26.93,160.54,142" fill="none" stroke="#636363" stroke-linecap="round" stroke-linejoin="round"/><path d="M476.06,656.57c.23.22.46.46.69.71" fill="none" stroke="#8e8e8e" stroke-linecap="round" stroke-linejoin="round" stroke-width="3"/><path d="M479.52,661.41c32.85,61.86,24.92,529.42,24.07,574.5" fill="none" stroke="#8e8e8e" stroke-linecap="round" stroke-linejoin="round" stroke-width="3" stroke-dasharray="1.99 4.98"/><path d="M503.54,1238.41c0,.66,0,1,0,1" fill="none" stroke="#8e8e8e" stroke-linecap="round" stroke-linejoin="round" stroke-width="3"/><path d="M401,738C383.1,622.22,345.61,624,345.61,624" fill="none" stroke="#636363" stroke-linecap="round" stroke-linejoin="round"/><path d="M512.52,562.5s-48.2,42.71-44.2,77.59" fill="none" stroke="#636363" stroke-linecap="round" stroke-linejoin="round"/><path d="M319.49,1276.94s43.3,6,86-3.39" fill="none" stroke="#636363" stroke-linecap="round" stroke-linejoin="round"/><path d="M497.64,1204.13s-45.45,7.55-111.63,1.25" fill="none" stroke="#636363" stroke-linecap="round" stroke-linejoin="round"/><polyline points="406.58 1074.41 456 980.46 431.21 967.42 405.88 1015.57" fill="none" stroke="#636363" stroke-linecap="round" stroke-linejoin="round"/><path d="M697.33,542.75S757.37,609,758,621.2" fill="none" stroke="#636363" stroke-linecap="round" stroke-linejoin="round"/><path d="M758,621.2c.64,12.25-116.52,13.47-140.86,133.25,0,0,17.87,286,36,485" fill="none" stroke="#8e8e8e" stroke-linecap="round" stroke-linejoin="round" stroke-width="3" stroke-dasharray="2 5"/><path d="M647,562.44s49.09,41.29,49.09,76.12" fill="none" stroke="#636363" stroke-linecap="round" stroke-linejoin="round"/><path d="M802.46,589.84s-20.07,31.36-23.94,131" fill="none" stroke="#636363" stroke-linecap="round" stroke-linejoin="round"/><path d="M809,1259.42s59.21,4.08,90-4" fill="none" stroke="#636363" stroke-linecap="round" stroke-linejoin="round"/><path d="M655.61,1204.36s96.19,8.05,144.5-4.66" fill="none" stroke="#636363" stroke-linecap="round" stroke-linejoin="round"/><polyline points="791.65 1068.13 738.35 975.8 762.7 961.74 790.03 1009.06" fill="none" stroke="#636363" stroke-linecap="round" stroke-linejoin="round"/></svg>