<svg xmlns="http://www.w3.org/2000/svg" width="1250" height="1550" viewBox="0 0 1250 1550"><path d="M831.12 1219.94s-2.1 26.34 1.24 26.91 58.49 2.86 59.82 0-1.15-29.59-1.15-29.59M320.41 1237.47s4.71 35.24 7 35.33 55.78-.66 57.1-4.43-3-28.83-3-28.83" fill="#fff" stroke="#262521" stroke-linecap="round" stroke-miterlimit="10" stroke-width="3"/><path d="M721.25 542.44c-8.85-5.58-8-14.34-11.34-21s-13.84 1.66-13.84 1.66-10.79-15.77-17.71-24.44c-3-3.78-20.84-3.88-40-2.79.85 13.67 2.77 26.49 6.85 30 1.88 1.61 7.6 4.25 15.59 7.46-.83 3.65-5.75 48.4-5.84 60.78 39.36-16 78.78-32.7 79.88-36.14 2.16-6.9-4.74-9.97-13.59-15.53z" fill="#262521"/><path d="M800.54 1223.65l-26.64-647-124.34-50.1s-7.62 55.38-75 58.47-73.43-58.47-73.43-58.47L396.73 617l28.09 396-21.36 231.85-4.64 34.94s112.7 18.26 226.51 13.77 180.87-13.76 180.87-13.76z" fill="#fff" stroke="#262521" stroke-linecap="round" stroke-miterlimit="10" stroke-width="3"/><path d="M490.42 539.52c5.36 16.3 15.13 60.52 87 57.3 60.36-2.7 76.3-45.57 80.47-59.44" fill="none" stroke="#636363" stroke-linecap="round" stroke-linejoin="round"/><path d="M488.78 535.38c10.38-5.26 17.73-10.2 19.27-14.15 2.32-6 3-14.93 3-24.11-14.32.79-25.64 2.81-28.64 6.92-9.9 13.57-12.16 13.57-12.16 13.57s-8.2-8.2-14.7 0-35.63 29.41-30 40.15 70.9 32.33 70.9 32.33c1.1-12.33-6.19-50.62-7.67-54.71z" fill="#262521"/><path d="M547.23 717.36c-24.29-69.4-53.3-172.25-57.11-183.51a10.79 10.79 0 01-.75-2.59c-1 .65-101 62.61-145.44 89.5C288.65 654.21 317.25 945 317.25 945s-28.67 183.25-3.29 267.27c2.36 15.94 3 28 6.43 41.4l64-1.5s-4.07-29.79-3.12-42.45c12.87-27.53 14.71-71.44 24.54-102.39 6-18.8-13.38 36.84-2.44 97.21-3 26.45-6.6 59.72-6.6 59.72s110 14.21 147.79 4.08c-.04.04 26.29-483.48 2.67-550.98zM860.35 918.39s-1.41-298-58.89-331.94c-11.18-6.61-142.29-56.21-142.29-56.21s-3 143.26-24.34 184.87 15.44 553.27 15.44 553.27c120-4.44 160.08-9.51 160.08-9.51s-.25-33.66-4.15-65c3.94-36.14-5.66-81.16-16.45-126.52 13.83 47.61 27 114.89 37.17 124 1.64 26.39 1.89 36.37 1.89 36.37l64.1-1.5s-1-14.31-2.61-35.73c25.63-83.07-29.95-272.1-29.95-272.1z" fill="#262521" stroke="#262521" stroke-linecap="round" stroke-linejoin="round" stroke-width="3"/><path d="M723 590.09S660.13 712 643.71 718.52" fill="none" stroke="#636363" stroke-linecap="round" stroke-linejoin="round"/><path d="M636.83 716.61c-22.07 11.44 14.44 554.27 14.44 554.27M545.23 717.36c28 58.19-1.21 550.52-1.21 550.52" fill="none" stroke="#8e8e8e" stroke-linecap="round" stroke-linejoin="round" stroke-width="3" stroke-dasharray="2 5"/><path d="M652.13 688.79c2.34 33.29 2.8 66.68 2.82 100.05s-.37 66.52.26 99.77c.36 18.85 1.06 37.7 2.33 56.51.13 1.91 3.13 1.93 3 0-2.26-33.49-2.68-67.07-2.69-100.63 0-33.2.38-66.41-.3-99.61-.38-18.71-1.11-37.42-2.42-56.09-.14-1.92-3.14-1.93-3 0z" fill="#fff"/><path d="M659.42 919.52c-2.9 0-4.35 4.14-2.2 6.07a3.67 3.67 0 004.33.31 3.92 3.92 0 002-3.86 4.62 4.62 0 00-3-3.6 4.75 4.75 0 00-4.36.61 6 6 0 00-2.46 3.73 5.41 5.41 0 001.07 4.36 3.58 3.58 0 004.61.82 3.34 3.34 0 001.41-4.51 1.5 1.5 0 10-2.59 1.51 1 1 0 00.08.15s-.08-.3-.07-.17a.45.45 0 000 .11c.06.16-.1.06 0-.16v.11a1.81 1.81 0 000-.2.79.79 0 00-.08.3s.17-.33.05-.14l-.06.11-.07.11c-.09.15-.07 0 .09-.11-.06 0-.13.14-.18.19a1.5 1.5 0 00-.13.11s.28-.18.1-.07l-.26.15c-.28.16.23-.05 0 0a.76.76 0 00-.25.06h.15-.17c-.05 0-.21 0 0 0s.06 0 0 0h-.12c-.21-.06.09-.05.1 0a1.26 1.26 0 00-.23-.13c-.16-.09 0-.09.08.07 0 0-.1-.09-.13-.11s-.14-.16-.22-.23.1.11.09.12-.06-.1-.07-.11a2.54 2.54 0 01-.16-.28s-.07-.16-.08-.17.11.31 0 .1-.11-.39-.15-.59c-.08-.37 0 .24 0 0v-.38-.33V923.49c0-.03 0-.22.08-.33a2 2 0 00.14-.39s-.13.27-.05.12l.09-.18q.07-.15.15-.27c0-.06.2-.24.2-.31s-.18.23-.07.1l.17-.19.25-.26.12-.11c-.17.15.13-.09.18-.12l.36-.2c.23-.12-.29.1.06 0l.29-.09H658.56a1.91 1.91 0 00.41 0h.15c.2 0-.3-.06-.1 0l.29.07.19.06h-.12a2 2 0 00.36.18c.07 0 .17.15.25.17-.17 0-.19-.16-.07-.05l.11.1s.17.23.24.26-.17-.25-.08-.11l.13.2a1.59 1.59 0 00.14.26c-.14-.16-.08-.23 0-.08s0 .09 0 .14 0 .13.05.19 0-.15 0-.16a1.27 1.27 0 000 .39s.08-.31 0-.18v.13c0 .05-.13.39 0 .14s0 .07-.09.13l-.07.11c-.08.15.23-.24 0-.06l-.19.19a1.27 1.27 0 00-.13.11s.26-.16.13-.1-.17.11-.26.16l-.11.06c-.15.1.32-.1.07 0l-.24.08a.51.51 0 00-.17 0h.19-.29s-.22 0 0 0H659.18c-.13 0 .31.18.09 0a.47.47 0 00-.12-.07c-.13 0 .2.18.12.1s-.27-.31-.1-.09 0-.06 0-.11.08.17.08.19a1.77 1.77 0 00-.06-.17c0-.07-.08-.41 0-.12s0 0 0-.09v-.15.18c0 .03 0-.19.06-.29s0-.09 0-.14 0 .13-.07.16.09-.17.14-.26 0-.06 0-.09-.25.27-.08.11a.9.9 0 00.2-.19s-.28.16-.17.13a.47.47 0 00.12-.07c.25-.17-.33.13 0 0s-.38 0 0 0a1.5 1.5 0 100-3z" fill="#fff"/><path d="M455.49 590s68.43 121 84.86 127.54" fill="none" stroke="#636363" stroke-linecap="round" stroke-linejoin="round"/><path d="M525.44 688.63q3.54 50.1 4.7 100.34 1.17 50 0 99.94-.66 28-2.07 56.05c-.1 1.93 2.9 1.93 3 0q2.51-50.16 2.67-100.41.13-50-2.06-99.92-1.23-28-3.21-56c-.13-1.92-3.13-1.93-3 0z" fill="#fff"/><path d="M530.86 919.37c-2.9 0-4.35 4.13-2.21 6.06a3.67 3.67 0 004.34.31 3.92 3.92 0 002-3.86 4.61 4.61 0 00-3-3.59 4.69 4.69 0 00-4.36.61 5.91 5.91 0 00-2.46 3.72 5.37 5.37 0 001.03 4.38 3.57 3.57 0 004.61.82 3.33 3.33 0 001.4-4.51 1.5 1.5 0 00-2.59 1.51 1.46 1.46 0 00.09.15s-.09-.3-.07-.17a.7.7 0 000 .12c.05.16-.1.05 0-.17a.41.41 0 000 .11c0 .17.05-.23 0-.2a1.67 1.67 0 00-.08.3s.18-.33.06-.13l-.06.1-.07.11c-.09.15-.07 0 .08-.1-.05 0-.12.14-.17.18s-.12.09-.13.12.28-.19.1-.08l-.26.15c-.28.16.22 0 0 0a.92.92 0 00-.25.06h.15-.17s-.21 0 0 0 .05 0 0 0h-.12c-.21-.06.08 0 .1 0a1.73 1.73 0 00-.24-.13c-.15-.08 0-.09.09.08 0 0-.11-.09-.14-.12l-.21-.23c-.11-.1.1.11.09.12s-.06-.09-.07-.11a1.56 1.56 0 01-.16-.28l-.08-.16s.11.31 0 .1-.11-.4-.16-.6c-.07-.36 0 .24 0 0v-.38-.33V923.35c0-.03.05-.22.08-.33a1.79 1.79 0 00.13-.39s-.12.27 0 .13a1.11 1.11 0 01.09-.19c0-.09.1-.18.15-.27s.2-.23.2-.3-.18.22-.08.1l.17-.2a3.07 3.07 0 01.26-.25s.28-.26.12-.12.13-.08.18-.12l.35-.19c.24-.13-.28.09.07 0l.34-.22H530.05a2.67 2.67 0 00.4 0h.15c.21 0-.29-.07-.1 0l.3.07.19.07c.15 0-.12 0-.13-.06s.26.12.36.19a1.4 1.4 0 00.26.16c-.17 0-.19-.16-.07 0l.11.11c.05 0 .17.23.24.25s-.17-.24-.08-.11l.13.21c0 .07.08.19.14.26-.15-.16-.08-.24 0-.09s0 .1 0 .14a1.62 1.62 0 010 .19v-.15a1.58 1.58 0 000 .38s.08-.31 0-.18v.13s-.13.39 0 .15 0 .06-.08.12l-.07.11c-.08.16.23-.24.05-.06s-.12.13-.19.19-.12.09-.13.12.26-.17.13-.11l-.26.17-.12.06c-.14.09.33-.11.08 0l-.24.07a1 1 0 00-.17 0h.19a1.53 1.53 0 00-.3 0c-.05 0-.21 0 0 0h-.12c-.13 0 .3.18.09 0l-.12-.07c-.13 0 .2.19.12.1s-.27-.31-.1-.08 0-.07-.06-.12.08.18.08.2 0-.13-.05-.17-.08-.42 0-.12 0 0 0-.1v-.14.18c0 .04 0-.2.06-.29s0-.1 0-.14-.05.12-.07.15.09-.17.13-.25a.47.47 0 00.06-.09c0-.11-.25.26-.08.11s.17-.14.19-.2-.27.17-.16.14l.12-.08c.25-.16-.33.13 0 0s-.39 0 0 0a1.5 1.5 0 000-3z" fill="#fff"/><path d="M650.48 1261.38h-4.67a2.33 2.33 0 00-2.1 1.92l-.9 16.37c0 .78-.08 1.55-.13 2.32a2.39 2.39 0 002.5 2.72H652a2.12 2.12 0 001.74-1.08.35.35 0 010-.08l.08-.15a2.88 2.88 0 00.13-.31v-.09a3.18 3.18 0 00.08-.33 2.57 2.57 0 000-.48l-1-16.36c0-.78-.09-1.55-.14-2.33a2.39 2.39 0 00-2.41-2.12zm.81 14.35l-.06 4.3a1.56 1.56 0 01-1.58 1.53h-2.33a1.56 1.56 0 01-1.53-1.57l.07-4.3a1.55 1.55 0 011.58-1.53h2.33a1.54 1.54 0 011.52 1.57z" fill="#84837e"/><rect x="646.66" y="1254.87" width="3.77" height="15.03" rx=".68" transform="rotate(-180 648.545 1262.38)" fill="#aaa9a3"/></svg>