<svg xmlns="http://www.w3.org/2000/svg" width="1250" height="1550" viewBox="0 0 1250 1550"><title>s01e13-01</title><polygon points="480.22 1332.64 414.48 1332.64 406.14 1274.94 471.18 1274.94 480.22 1332.64" fill="#fff"/><polygon points="818.35 1536.17 746.63 1536.17 741.27 1483.56 815.47 1483.56 818.35 1536.17" fill="#fff"/><polygon points="822.02 1596.18 706.1 1596.18 700.74 1543.57 819.13 1543.57 822.02 1596.18" fill="#fff"/><path d="M445.18,1596.61l-40.74-332.09s61.79,24.3,203.69,19.79S801,1248.13,801,1248.13l20.1,342.24" fill="none" stroke="#262521" stroke-linecap="round" stroke-linejoin="round" stroke-width="3"/><path d="M404.68,1268S547.76,1319,591.79,1319l15-83.06Z" fill="#fff" stroke="#262521" stroke-linecap="round" stroke-linejoin="round" stroke-width="3"/><path d="M805.3,1263.58S670.85,1319,626.81,1319l-15-83.06Z" fill="#fff" stroke="#262521" stroke-linecap="round" stroke-linejoin="round" stroke-width="3"/><path d="M658.24,530.89s-63,24.43-84.61,24.43-81.06-23.88-81.06-23.88l-97.08,65.27L581.55,844l188-270.23Z" fill="#fff" stroke="#262521" stroke-linecap="round" stroke-linejoin="round" stroke-width="3"/><path d="M505.31,506.87s26.26,38.43,66.82,48.45l-69,73.32s-27.26-75.45-18.66-92.11A148.1,148.1,0,0,1,505.31,506.87Z" fill="#fff" stroke="#262521" stroke-linecap="round" stroke-linejoin="round" stroke-width="3"/><path d="M643.12,506.87s-15.39,39.69-67.8,48.45l69.95,73.32s30.78-73,22.18-89.66S643.12,506.87,643.12,506.87Z" fill="#fff" stroke="#262521" stroke-linecap="round" stroke-linejoin="round" stroke-width="3"/><line x1="561.54" y1="567.95" x2="561.54" y2="743.25" fill="#fff" stroke="#262521" stroke-linecap="round" stroke-linejoin="round" stroke-width="3"/><circle cx="573.72" cy="569.55" r="4.65" fill="#262521" opacity="0.2"/><path d="M877.23,1043c-3.83-55.87-22.88-124.63-22.88-124.63s-14.59-306.95-52.89-331.94c-10.88-7.1-133.85-55.21-133.85-55.21s-10.93,54-91.28,54c-65.08,0-87.71-36.56-91.83-48.7a11,11,0,0,1-.24-5.64s-95.6,62.92-140.33,89.87S317.25,945,317.25,945a619.79,619.79,0,0,0-3.6,128.12c5.53,68.42,3.58,178.08,14,197.94l61.46-1.5s-5.6-14.35-4.65-27c2.27-30.22,5.53-104.27,15.36-135.22,4.81-15.14,10.05-36.61,14.14-54.59-3.58,34.79-21.76,150.2-10.41,175.24,0,13-1.32,43-1.32,43s68.26,22.14,145.25,21.21c137.53-1.66,258.37-26.64,258.37-26.64s-1.68-30-2.46-43.63c9.14-15.78-.82-82.08-9.89-146.45,15.78,47.16,33.42,110.92,35.34,141.84,1.64,26.39,2.89,34.36,2.89,34.36h58.1s4.48-6.67,5.3-18.89S882.81,1124.28,877.23,1043Z" fill="#262521" stroke="#262521" stroke-linecap="round" stroke-linejoin="round" stroke-width="3"/><path d="M657.56,628.64c7,16.86,137.55,9.87,183.17,119-8.47-71.81-22-149.95-39.27-161.2-7.63-5-67.87-28.51-104.68-43.09C692.67,598.62,650.54,611.78,657.56,628.64Z" fill="#514f48"/><path d="M802.9,587.53c-7.63-5-69.31-29.59-106.12-44.17a37,37,0,0,1-.72,6.74c6.82,2.68,35.39,20.94,43.78,23.53a208.44,208.44,0,0,1,21.34,7.52,82.83,82.83,0,0,1,10.24,5.22,17.54,17.54,0,0,1,6.54,6.4c5.87,10.72-2.83,23,1.12,34.06a22,22,0,0,0,1.55,2.78C788.49,609.44,802.9,587.53,802.9,587.53Z" fill="#fff" opacity="0.2"/><path d="M513,628.64c5.3-17.35-47.51-42.36-57.75-78.54-29.66,19.39-78.38,50.84-111.28,70.66-21.06,12.69-28.21,85.34-29.86,158.67C367.32,659.69,504.93,654.93,513,628.64Z" fill="#514f48"/><path d="M360.83,648q2.58-4.31,5.48-8.38c4.68-6.5,5.22-16.72,11.11-22.15,11.91-11,78.46-59.2,79.71-61.82a52.59,52.59,0,0,1-1.92-5.54c-29.66,19.39-113.69,72.27-115,73.75C347.69,631.3,354.18,639.75,360.83,648Z" fill="#fff" opacity="0.3"/><path d="M402.18,1271s68.26,22.14,145.25,21.21c137.53-1.66,258.37-26.64,258.37-26.64" fill="none" stroke="#636363" stroke-linecap="round" stroke-linejoin="round"/><path d="M344.88,628.64s50.61,53,50.61,100" fill="none" stroke="#262521" stroke-linecap="round" stroke-linejoin="round"/><path d="M799.43,593.65s-30.81,42.28-32.79,103.7" fill="none" stroke="#262521" stroke-linecap="round" stroke-linejoin="round"/><path d="M667.61,531.24s123,48.11,133.85,55.21c38.3,25,52.89,331.94,52.89,331.94" fill="none" stroke="#262521" stroke-linecap="round" stroke-linejoin="round" stroke-width="3"/><path d="M317.25,945S299.2,647.71,343.93,620.76s140.33-89.87,140.33-89.87" fill="none" stroke="#262521" stroke-linecap="round" stroke-linejoin="round" stroke-width="3"/></svg>