<svg xmlns="http://www.w3.org/2000/svg" width="1250" height="1550" viewBox="0 0 1250 1550"><title>s01e01-03</title><path d="M501.08,526.57s6,61.57,73.43,58.47,75-58.47,75-58.47l124.34,50.1L584.59,745.84,396.73,617Z" fill="#bababa" stroke="#262521" stroke-linecap="round" stroke-linejoin="round" stroke-width="3"/><path d="M721.25,542.44c-8.85-5.58-8-14.34-11.34-21s-13.84,1.66-13.84,1.66-10.79-15.77-17.71-24.44c-3-3.78-20.84-3.88-40-2.79.85,13.67,2.77,26.49,6.85,30,1.88,1.61,7.6,4.25,15.59,7.46A65.78,65.78,0,0,1,654,550.77q.07,3.11.16,6.22c.37,12.35.88,24.75.79,37.13,39.36-16,78.78-32.7,79.88-36.14C737,551.07,730.1,548,721.25,542.44Z" fill="#262521"/><path d="M493,528.29l.1.59q3.58-2.28,7.1-4.67a4,4,0,0,0,.3-.77A77.2,77.2,0,0,1,493,528.29Z" fill="#262521"/><path d="M656.89,528.38l-1.34-.17c-2.08-.1-4.15-.29-6.22-.51l-1,.42a4.32,4.32,0,0,0,.51,1.88,4.22,4.22,0,0,0-1.23,2.37l-.28,1.65a4.33,4.33,0,0,0,.39,2.65,4.23,4.23,0,0,0-1.3,2.33l-.33,1.65a4.36,4.36,0,0,0,.32,2.66,4.25,4.25,0,0,0-1.36,2.3l-.37,1.63a4.17,4.17,0,0,1-1.18,4.92l-.42,1.62a4.14,4.14,0,0,1-1.32,4.88l-.46,1.61a4.16,4.16,0,0,0,.09,2.66,4.31,4.31,0,0,0-1.56,2.16l-.51,1.59a4.32,4.32,0,0,0,0,2.66,4.2,4.2,0,0,0-1.62,2.11l-.57,1.57a4.3,4.3,0,0,0-.09,2.65,4.24,4.24,0,0,0-1.7,2l-.62,1.54a4.05,4.05,0,0,1-2,4.6c-.22.51-.45,1-.68,1.52a4.17,4.17,0,0,0-.31,2.61,4.23,4.23,0,0,0-1.86,1.88c-.25.5-.5,1-.76,1.48a4,4,0,0,1-2.37,4.36l-.83,1.42a4,4,0,0,1-2.61,4.19l-.9,1.35a4,4,0,0,1-2.87,4c-.32.43-.66.86-1,1.28a4.3,4.3,0,0,0-.92,2.42,4.25,4.25,0,0,0-2.22,1.31c-.36.41-.72.8-1.09,1.2a4.23,4.23,0,0,0-1.1,2.3,4.33,4.33,0,0,0-2.31,1.1c-.39.37-.79.73-1.19,1.08a3.79,3.79,0,0,1-3.7,3c-.42.32-.85.63-1.28.93a4.28,4.28,0,0,0-1.54,2,4.17,4.17,0,0,0-2.45.57c-.45.27-.9.52-1.36.77a4.33,4.33,0,0,0-1.76,1.79,4.18,4.18,0,0,0-2.48.26l-1.46.59a4.31,4.31,0,0,0-2,1.54,4.22,4.22,0,0,0-2.49-.06c-.5.14-1,.27-1.52.39a4.27,4.27,0,0,0-2.14,1.27,4.21,4.21,0,0,0-2.47-.38l-1.56.2a4.32,4.32,0,0,0-2.3,1,4.13,4.13,0,0,0-2.41-.69l-1.11,0h-.47a4.47,4.47,0,0,0-2.41.72,4.21,4.21,0,0,0-2.32-1l-1.56-.19a4.19,4.19,0,0,0-2.46.41,4.29,4.29,0,0,0-2.15-1.25l-1.52-.38a4.21,4.21,0,0,0-2.49.07,4.42,4.42,0,0,0-2-1.52c-.49-.18-1-.38-1.46-.58a4.35,4.35,0,0,0-2.48-.24,4.28,4.28,0,0,0-1.78-1.77l-1.38-.76a4.15,4.15,0,0,0-2.45-.55,4.2,4.2,0,0,0-1.55-2q-.65-.45-1.29-.93a4.35,4.35,0,0,0-2.4-.83,4.23,4.23,0,0,0-1.35-2.16l-1.2-1.07a3.87,3.87,0,0,1-3.46-3.37c-.37-.39-.74-.78-1.1-1.18a3.92,3.92,0,0,1-3.19-3.69l-1-1.28a4.28,4.28,0,0,0-2.14-1.46,4.33,4.33,0,0,0-.78-2.48q-.46-.66-.93-1.35a4,4,0,0,1-2.68-4.14l-.86-1.42a4.24,4.24,0,0,0-2-1.73,4.17,4.17,0,0,0-.48-2.59l-.79-1.47a4.06,4.06,0,0,1-2.25-4.45l-.72-1.51a4.07,4.07,0,0,1-2.05-4.54l-.66-1.54a4.09,4.09,0,0,1-1.89-4.64l-.6-1.57a4.1,4.1,0,0,1-1.72-4.72l-.56-1.59a4.13,4.13,0,0,1-1.57-4.78l-.51-1.61a4.27,4.27,0,0,0-1.54-2.18,4.19,4.19,0,0,0,.1-2.67l-.45-1.61a4.32,4.32,0,0,0-1.49-2.22,4.15,4.15,0,0,0,.18-2.66l-.41-1.64a4.18,4.18,0,0,0-1.43-2.25,4.25,4.25,0,0,0,.25-2.67l-.37-1.64a4.27,4.27,0,0,0-1.37-2.3,4.19,4.19,0,0,0,.32-2.65l-.33-1.66a4.14,4.14,0,0,1-.92-5l-.28-1.65a3.67,3.67,0,0,0-.2-.74q-3.75,2.55-7.57,5a2.94,2.94,0,0,1,.58,4l.34,1.71a4.29,4.29,0,0,0,1.38,2.38,4.23,4.23,0,0,0-.29,2.73l.38,1.71a4.41,4.41,0,0,1,1.22,5.08l.42,1.68a4.24,4.24,0,0,0,1.51,2.31,4.2,4.2,0,0,0-.16,2.74l.48,1.69a4.43,4.43,0,0,1,1.49,5l.52,1.65a4.46,4.46,0,0,1,1.64,5l.57,1.65a4.42,4.42,0,0,1,1.8,4.92l.63,1.63a4.49,4.49,0,0,1,2,4.88l.68,1.61A4.48,4.48,0,0,1,511,588.1l.75,1.58a4.27,4.27,0,0,0,2,2,4.23,4.23,0,0,0,.42,2.75L515,596a4.54,4.54,0,0,1,2.63,4.62c.3.51.61,1,.91,1.51a4.29,4.29,0,0,0,2.17,1.77,4.21,4.21,0,0,0,.73,2.7c.33.5.67,1,1,1.47a4.62,4.62,0,0,1,3.19,4.3l1.11,1.39a4.23,4.23,0,0,0,2.4,1.48,4.32,4.32,0,0,0,1.12,2.6l1.23,1.31a4.75,4.75,0,0,1,3.88,3.78l1.36,1.21a4.82,4.82,0,0,1,4.27,3.42c.49.36,1,.71,1.49,1.06a4.88,4.88,0,0,1,4.63,2.93l1.61.89a4.92,4.92,0,0,1,5,2.36l1.71.68a5,5,0,0,1,5.26,1.7c.6.16,1.19.31,1.8.45a5,5,0,0,1,5.43,1c.6.09,1.22.16,1.83.22a4.27,4.27,0,0,0,2.8-.7,4.21,4.21,0,0,0,2.7,1h1.83a4.29,4.29,0,0,0,2.7-1,4.21,4.21,0,0,0,2.8.66c.61-.06,1.22-.14,1.82-.23a4.2,4.2,0,0,0,2.55-1.35,4.26,4.26,0,0,0,2.87.31c.6-.15,1.2-.3,1.79-.47a5,5,0,0,1,5.25-1.74c.57-.22,1.14-.45,1.7-.69a4.21,4.21,0,0,0,2.13-2,4.28,4.28,0,0,0,2.85-.44c.54-.3,1.08-.6,1.61-.91a4.26,4.26,0,0,0,1.84-2.19,4.32,4.32,0,0,0,2.77-.78c.5-.35,1-.71,1.48-1.08a4.25,4.25,0,0,0,1.58-2.39,4.31,4.31,0,0,0,2.65-1.06l1.34-1.22a4.74,4.74,0,0,1,3.84-3.84c.41-.44.82-.88,1.22-1.33a4.7,4.7,0,0,1,3.46-4.13c.37-.46.74-.94,1.1-1.41a4.26,4.26,0,0,0,.87-2.68,4.33,4.33,0,0,0,2.26-1.67l1-1.48a4.59,4.59,0,0,1,2.81-4.51l.9-1.54a4.31,4.31,0,0,0,.52-2.74,4.26,4.26,0,0,0,2-1.92l.81-1.58a4.27,4.27,0,0,0,.37-2.75,4.22,4.22,0,0,0,1.92-2c.25-.53.49-1.06.73-1.6a4.5,4.5,0,0,1,2.07-4.85l.66-1.63a4.44,4.44,0,0,1,1.87-4.91l.6-1.65a4.35,4.35,0,0,0,0-2.76,4.3,4.3,0,0,0,1.66-2.2l.53-1.67a4.17,4.17,0,0,0-.06-2.75,4.31,4.31,0,0,0,1.59-2.26L650,561a4.23,4.23,0,0,0-.15-2.75,4.29,4.29,0,0,0,1.52-2.3l.43-1.69a4.19,4.19,0,0,0-.23-2.74,4.25,4.25,0,0,0,1.45-2.34l.39-1.71a4.23,4.23,0,0,0-.31-2.73,4.29,4.29,0,0,0,1.39-2.39l.33-1.71a4.3,4.3,0,0,0-.37-2.73,4.19,4.19,0,0,0,1.31-2.42l.29-1.73a4.42,4.42,0,0,1,.79-5.19Z" fill="#262521"/><path d="M531.15,607.67c-.34-.45-.68-.89-1-1.34a1.71,1.71,0,1,0-2.75,2l1.05,1.38a1.72,1.72,0,0,0,1.36.67,1.76,1.76,0,0,0,1-.35A1.71,1.71,0,0,0,531.15,607.67Z" fill="#b7b6b0"/><path d="M534.33,611.57a1.71,1.71,0,1,0-2.58,2.24c.38.44.76.87,1.15,1.3a1.71,1.71,0,0,0,1.27.57,1.74,1.74,0,0,0,1.15-.44,1.72,1.72,0,0,0,.12-2.42Z" fill="#b7b6b0"/><path d="M527.23,602.2q-.47-.69-.93-1.41a1.71,1.71,0,0,0-2.87,1.86l1,1.45a1.69,1.69,0,0,0,1.42.76,1.66,1.66,0,0,0,1-.29A1.71,1.71,0,0,0,527.23,602.2Z" fill="#b7b6b0"/><path d="M520.36,590.58q-.4-.75-.78-1.5a1.71,1.71,0,0,0-3.05,1.55l.8,1.54a1.72,1.72,0,0,0,1.51.92,1.76,1.76,0,0,0,.8-.2A1.72,1.72,0,0,0,520.36,590.58Z" fill="#b7b6b0"/><path d="M523.64,596.49l-.85-1.46a1.71,1.71,0,0,0-3,1.7l.86,1.49a1.72,1.72,0,0,0,1.48.85,1.72,1.72,0,0,0,1.47-2.58Z" fill="#b7b6b0"/><path d="M550.78,625.44c-.48-.27-1-.55-1.43-.84a1.71,1.71,0,0,0-1.78,2.92l1.52.89a1.67,1.67,0,0,0,.84.22,1.71,1.71,0,0,0,.85-3.19Z" fill="#b7b6b0"/><path d="M545.24,621.82c-.44-.33-.88-.66-1.32-1a1.71,1.71,0,0,0-2.11,2.69l1.39,1.07a1.77,1.77,0,0,0,1,.33,1.71,1.71,0,0,0,1-3.08Z" fill="#b7b6b0"/><path d="M563,630.29l-1.6-.41a1.71,1.71,0,0,0-.92,3.29c.57.16,1.14.3,1.71.44a1.44,1.44,0,0,0,.41,0,1.71,1.71,0,0,0,.4-3.37Z" fill="#b7b6b0"/><path d="M517.34,584.51c-.24-.51-.48-1-.71-1.53a1.71,1.71,0,1,0-3.11,1.42c.24.52.48,1.05.73,1.57a1.7,1.7,0,0,0,1.55,1,1.68,1.68,0,0,0,.72-.16A1.72,1.72,0,0,0,517.34,584.51Z" fill="#b7b6b0"/><path d="M538.92,616.43a1.71,1.71,0,1,0-2.38,2.46l1.27,1.2a1.73,1.73,0,0,0,1.16.45,1.71,1.71,0,0,0,1.16-3Z" fill="#b7b6b0"/><path d="M556.69,628.29c-.51-.2-1-.41-1.52-.64a1.71,1.71,0,0,0-1.38,3.13c.54.24,1.08.47,1.63.69a1.77,1.77,0,0,0,.64.12,1.71,1.71,0,0,0,.63-3.3Z" fill="#b7b6b0"/><path d="M514.58,578.33l-.66-1.56a1.71,1.71,0,0,0-3.16,1.31l.67,1.58a1.71,1.71,0,0,0,1.57,1.05,1.75,1.75,0,0,0,.67-.14A1.71,1.71,0,0,0,514.58,578.33Z" fill="#b7b6b0"/><path d="M502.08,539.42l-.36-1.56a1.71,1.71,0,0,0-3.34.77l.4,1.67,1.66-.39Z" fill="#b7b6b0"/><path d="M502.54,548.21a1.71,1.71,0,0,0,1.22-2.08l-.43-1.65a1.71,1.71,0,1,0-3.31.85l.43,1.67a1.71,1.71,0,0,0,1.65,1.27A1.67,1.67,0,0,0,502.54,548.21Z" fill="#b7b6b0"/><path d="M504.4,554.81a1.7,1.7,0,0,0,1.16-2.12l-.46-1.63a1.71,1.71,0,1,0-3.29.93l.47,1.65a1.72,1.72,0,0,0,1.64,1.24A1.59,1.59,0,0,0,504.4,554.81Z" fill="#b7b6b0"/><path d="M512,572l-.6-1.59a1.71,1.71,0,1,0-3.2,1.21l.61,1.61a1.7,1.7,0,0,0,1.6,1.09,1.64,1.64,0,0,0,.61-.11A1.71,1.71,0,0,0,512,572Z" fill="#b7b6b0"/><path d="M509.69,565.66l-.55-1.61a1.71,1.71,0,0,0-3.24,1.11l.57,1.63a1.7,1.7,0,0,0,1.61,1.14,1.77,1.77,0,0,0,.56-.09A1.71,1.71,0,0,0,509.69,565.66Z" fill="#b7b6b0"/><path d="M506.43,561.35a1.7,1.7,0,0,0,1.11-2.14l-.51-1.63a1.71,1.71,0,1,0-3.26,1l.51,1.64a1.71,1.71,0,0,0,1.63,1.19A1.57,1.57,0,0,0,506.43,561.35Z" fill="#b7b6b0"/><path d="M499.3,534.89a1.71,1.71,0,0,0,1.31-2l-.35-1.66a1.71,1.71,0,0,0-3.35.68l.36,1.69a1.71,1.71,0,0,0,1.67,1.36A2.2,2.2,0,0,0,499.3,534.89Z" fill="#b7b6b0"/><path d="M642.19,570a1.72,1.72,0,0,0-2.19,1c-.19.52-.39,1.05-.58,1.58a1.71,1.71,0,0,0,1,2.2,1.59,1.59,0,0,0,.6.11,1.71,1.71,0,0,0,1.6-1.11l.6-1.63A1.72,1.72,0,0,0,642.19,570Z" fill="#b7b6b0"/><path d="M639.8,576.43a1.72,1.72,0,0,0-2.23.94l-.65,1.57a1.71,1.71,0,0,0,3.16,1.32l.66-1.6A1.71,1.71,0,0,0,639.8,576.43Z" fill="#b7b6b0"/><path d="M644.34,563.51a1.72,1.72,0,0,0-2.15,1.11c-.17.54-.34,1.07-.52,1.61a1.71,1.71,0,1,0,3.24,1.08q.29-.82.54-1.65A1.71,1.71,0,0,0,644.34,563.51Z" fill="#b7b6b0"/><path d="M634.23,588.94a1.71,1.71,0,0,0-2.31.72c-.26.5-.53,1-.8,1.5a1.73,1.73,0,0,0,.7,2.32,1.83,1.83,0,0,0,.81.2,1.72,1.72,0,0,0,1.51-.9l.81-1.54A1.7,1.7,0,0,0,634.23,588.94Z" fill="#b7b6b0"/><path d="M637.15,582.75a1.7,1.7,0,0,0-2.26.84l-.72,1.53a1.71,1.71,0,0,0,.82,2.28,1.68,1.68,0,0,0,.72.16,1.7,1.7,0,0,0,1.55-1L638,585A1.7,1.7,0,0,0,637.15,582.75Z" fill="#b7b6b0"/><path d="M650.86,536.9a1.72,1.72,0,0,0-2,1.36l-.32,1.67a1.7,1.7,0,0,0,1.34,2l.33,0a1.71,1.71,0,0,0,1.68-1.37l.33-1.7A1.71,1.71,0,0,0,650.86,536.9Z" fill="#b7b6b0"/><path d="M631,595a1.7,1.7,0,0,0-2.34.59c-.29.49-.58,1-.88,1.45a1.71,1.71,0,0,0,1.46,2.6,1.7,1.7,0,0,0,1.46-.82l.9-1.48A1.71,1.71,0,0,0,631,595Z" fill="#b7b6b0"/><path d="M652,530.14a1.71,1.71,0,0,0-2,1.42c-.09.54-.18,1.1-.28,1.67a1.71,1.71,0,0,0,1.4,2l.29,0a1.72,1.72,0,0,0,1.69-1.43c.1-.58.19-1.15.28-1.71A1.71,1.71,0,0,0,652,530.14Z" fill="#b7b6b0"/><path d="M646.27,556.94a1.71,1.71,0,0,0-2.11,1.18l-.47,1.63a1.71,1.71,0,0,0,1.16,2.12,1.59,1.59,0,0,0,.48.07,1.71,1.71,0,0,0,1.64-1.23l.48-1.66A1.71,1.71,0,0,0,646.27,556.94Z" fill="#b7b6b0"/><path d="M648,550.31a1.71,1.71,0,0,0-2.08,1.25c-.13.54-.27,1.08-.42,1.64a1.7,1.7,0,0,0,1.23,2.08,1.59,1.59,0,0,0,.43.06,1.71,1.71,0,0,0,1.65-1.28c.15-.56.29-1.12.43-1.68A1.71,1.71,0,0,0,648,550.31Z" fill="#b7b6b0"/><path d="M649.53,543.63a1.71,1.71,0,0,0-2,1.3l-.37,1.66a1.71,1.71,0,0,0,1.28,2,2.58,2.58,0,0,0,.39,0,1.71,1.71,0,0,0,1.66-1.33l.38-1.68A1.71,1.71,0,0,0,649.53,543.63Z" fill="#b7b6b0"/><path d="M627.4,600.81a1.71,1.71,0,0,0-2.37.45q-.46.69-1,1.38a1.71,1.71,0,0,0,2.8,2l1-1.43A1.7,1.7,0,0,0,627.4,600.81Z" fill="#b7b6b0"/><path d="M601.22,624.22c-.48.27-1,.54-1.45.8a1.71,1.71,0,0,0,.8,3.22,1.64,1.64,0,0,0,.8-.2c.53-.28,1-.56,1.55-.85a1.71,1.71,0,1,0-1.7-3Z" fill="#b7b6b0"/><path d="M595.29,627.16l-1.53.62a1.71,1.71,0,0,0,.61,3.3A1.66,1.66,0,0,0,595,631c.55-.21,1.09-.44,1.63-.66a1.71,1.71,0,1,0-1.33-3.15Z" fill="#b7b6b0"/><path d="M569.42,631.36c-.55-.05-1.1-.11-1.64-.18a1.71,1.71,0,0,0-.43,3.39c.58.08,1.16.14,1.75.19h.16a1.71,1.71,0,0,0,.16-3.41Z" fill="#b7b6b0"/><path d="M582.6,630.81l-1.64.25a1.71,1.71,0,0,0,.23,3.4h.23l1.73-.26a1.71,1.71,0,1,0-.55-3.38Z" fill="#b7b6b0"/><path d="M576,631.51l-1.65,0a1.71,1.71,0,0,0,0,3.42h0l1.77-.05a1.71,1.71,0,1,0-.16-3.42Z" fill="#b7b6b0"/><path d="M589.06,629.36l-1.6.44a1.71,1.71,0,0,0,.42,3.36,1.63,1.63,0,0,0,.43,0l1.69-.46a1.71,1.71,0,0,0-.94-3.29Z" fill="#b7b6b0"/><path d="M616.72,611.75c-.38.41-.77.82-1.15,1.21a1.72,1.72,0,0,0,1.22,2.91,1.74,1.74,0,0,0,1.23-.52c.41-.42.81-.84,1.2-1.27a1.71,1.71,0,1,0-2.5-2.33Z" fill="#b7b6b0"/><path d="M623.47,606.38a1.71,1.71,0,0,0-2.4.29c-.35.43-.69.87-1.05,1.3a1.71,1.71,0,0,0,2.64,2.17l1.09-1.35A1.72,1.72,0,0,0,623.47,606.38Z" fill="#b7b6b0"/><path d="M606.81,620.61l-1.36,1a1.71,1.71,0,0,0,1,3.12,1.76,1.76,0,0,0,1-.3c.48-.33,1-.67,1.43-1a1.71,1.71,0,0,0-2-2.76Z" fill="#b7b6b0"/><path d="M612,616.43l-1.24,1.09a1.7,1.7,0,0,0-.19,2.41,1.67,1.67,0,0,0,1.3.6,1.7,1.7,0,0,0,1.11-.41c.44-.38.88-.76,1.31-1.15a1.71,1.71,0,1,0-2.29-2.54Z" fill="#b7b6b0"/><path d="M530.59,610.12l-1.05-1.31a1.71,1.71,0,0,0-2.68,2.13c.36.46.73.91,1.1,1.36a1.68,1.68,0,0,0,1.32.62,1.71,1.71,0,0,0,1.31-2.8Z" fill="#7f7e78"/><path d="M519.23,593.38c-.27-.5-.55-1-.82-1.48a1.71,1.71,0,1,0-3,1.64l.84,1.52a1.74,1.74,0,0,0,1.5.87,1.66,1.66,0,0,0,.83-.22A1.7,1.7,0,0,0,519.23,593.38Z" fill="#7f7e78"/><path d="M569.44,633.73c-.55-.07-1.1-.15-1.64-.24a1.71,1.71,0,1,0-.56,3.37c.58.1,1.16.18,1.74.26l.23,0a1.71,1.71,0,0,0,.23-3.41Z" fill="#7f7e78"/><path d="M522.72,599.19q-.47-.72-.9-1.44a1.71,1.71,0,0,0-2.92,1.79l.92,1.48a1.72,1.72,0,0,0,1.45.79,1.68,1.68,0,0,0,.91-.26A1.71,1.71,0,0,0,522.72,599.19Z" fill="#7f7e78"/><path d="M526.49,604.78c-.33-.45-.65-.91-1-1.37a1.71,1.71,0,1,0-2.81,2c.33.48.67.95,1,1.42a1.71,1.71,0,0,0,2.38.39A1.71,1.71,0,0,0,526.49,604.78Z" fill="#7f7e78"/><path d="M533.9,613.92a1.71,1.71,0,1,0-2.51,2.32l1.19,1.27a1.73,1.73,0,0,0,1.24.53,1.72,1.72,0,0,0,1.23-2.9Z" fill="#7f7e78"/><path d="M556.69,630.34c-.51-.21-1-.42-1.52-.65a1.71,1.71,0,0,0-1.39,3.13l1.62.69a1.81,1.81,0,0,0,.64.12,1.71,1.71,0,0,0,.65-3.29Z" fill="#7f7e78"/><path d="M563,632.45l-1.59-.45a1.71,1.71,0,1,0-1,3.27c.56.17,1.13.33,1.69.48a1.71,1.71,0,0,0,2.1-1.21A1.71,1.71,0,0,0,563,632.45Z" fill="#7f7e78"/><path d="M545.12,623.92l-1.35-1a1.71,1.71,0,0,0-2,2.74c.46.35.93.7,1.41,1a1.74,1.74,0,0,0,1,.32,1.71,1.71,0,0,0,1-3.1Z" fill="#7f7e78"/><path d="M576,634.2l-1.66,0a1.71,1.71,0,0,0-.13,3.42l1.76,0h0a1.71,1.71,0,0,0,0-3.42Z" fill="#7f7e78"/><path d="M550.73,627.47l-1.44-.83a1.71,1.71,0,0,0-1.75,2.94c.5.3,1,.59,1.52.87a1.66,1.66,0,0,0,.83.22,1.71,1.71,0,0,0,.84-3.2Z" fill="#7f7e78"/><path d="M498.47,544.86a1.7,1.7,0,0,0,1.23-2.07l-.42-1.66A1.71,1.71,0,1,0,496,542l.42,1.67a1.72,1.72,0,0,0,1.66,1.29A1.52,1.52,0,0,0,498.47,544.86Z" fill="#7f7e78"/><path d="M500.3,551.47a1.7,1.7,0,0,0,1.18-2.11l-.46-1.63a1.71,1.71,0,1,0-3.3.91l.47,1.66a1.71,1.71,0,0,0,1.64,1.24A1.49,1.49,0,0,0,500.3,551.47Z" fill="#7f7e78"/><path d="M502.31,558a1.71,1.71,0,0,0,1.12-2.14l-.51-1.62a1.7,1.7,0,1,0-3.26,1l.5,1.65a1.72,1.72,0,0,0,1.64,1.2A1.55,1.55,0,0,0,502.31,558Z" fill="#7f7e78"/><path d="M496.81,538.21a1.7,1.7,0,0,0,1.28-2.05l-.37-1.66a1.71,1.71,0,1,0-3.34.74l.38,1.69a1.72,1.72,0,0,0,1.67,1.32A1.69,1.69,0,0,0,496.81,538.21Z" fill="#7f7e78"/><path d="M496.57,529l-2.89,1.87a1.68,1.68,0,0,0,1.3.64,2,2,0,0,0,.34,0,1.71,1.71,0,0,0,1.34-2Z" fill="#7f7e78"/><path d="M516,587.4c-.26-.5-.51-1-.76-1.51a1.71,1.71,0,1,0-3.06,1.52c.25.52.51,1,.77,1.54a1.71,1.71,0,0,0,1.53.94,1.65,1.65,0,0,0,.77-.19A1.71,1.71,0,0,0,516,587.4Z" fill="#7f7e78"/><path d="M510.36,575.07c-.22-.52-.43-1-.64-1.56a1.71,1.71,0,1,0-3.17,1.28c.21.53.43,1.07.66,1.6a1.7,1.7,0,0,0,1.57,1.05,1.65,1.65,0,0,0,.66-.13A1.71,1.71,0,0,0,510.36,575.07Z" fill="#7f7e78"/><path d="M505.55,562.36l-.55-1.61a1.71,1.71,0,1,0-3.24,1.09l.56,1.63a1.7,1.7,0,0,0,1.61,1.16,1.78,1.78,0,0,0,.56-.1A1.71,1.71,0,0,0,505.55,562.36Z" fill="#7f7e78"/><path d="M513.08,581.3c-.23-.52-.47-1-.7-1.54a1.71,1.71,0,1,0-3.12,1.39c.24.53.47,1.05.72,1.58a1.7,1.7,0,0,0,1.55,1,1.78,1.78,0,0,0,.71-.15A1.71,1.71,0,0,0,513.08,581.3Z" fill="#7f7e78"/><path d="M507.86,568.76l-.6-1.6a1.71,1.71,0,0,0-3.21,1.19l.61,1.61a1.71,1.71,0,0,0,1.6,1.11,1.59,1.59,0,0,0,.6-.11A1.71,1.71,0,0,0,507.86,568.76Z" fill="#7f7e78"/><path d="M538.64,618.65a1.71,1.71,0,0,0-2.31,2.52c.44.4.87.79,1.31,1.17a1.71,1.71,0,0,0,2.41-.16,1.72,1.72,0,0,0-.16-2.42C539.47,619.4,539.05,619,538.64,618.65Z" fill="#7f7e78"/><path d="M647.57,561.3a1.71,1.71,0,0,0-2.14,1.12l-.51,1.63a1.71,1.71,0,0,0,1.12,2.14,1.52,1.52,0,0,0,.51.09,1.71,1.71,0,0,0,1.63-1.2l.52-1.64A1.71,1.71,0,0,0,647.57,561.3Z" fill="#7f7e78"/><path d="M645.49,567.83a1.71,1.71,0,0,0-2.17,1.06l-.56,1.61a1.71,1.71,0,0,0,1,2.18,1.77,1.77,0,0,0,.56.09,1.72,1.72,0,0,0,1.62-1.14l.56-1.63A1.7,1.7,0,0,0,645.49,567.83Z" fill="#7f7e78"/><path d="M643.21,574.29a1.72,1.72,0,0,0-2.21,1c-.2.52-.41,1.05-.61,1.58A1.71,1.71,0,0,0,642,579.2a1.69,1.69,0,0,0,1.58-1.09c.22-.53.43-1.07.63-1.61A1.71,1.71,0,0,0,643.21,574.29Z" fill="#7f7e78"/><path d="M640.7,580.67a1.72,1.72,0,0,0-2.25.9c-.22.52-.44,1-.67,1.56a1.71,1.71,0,0,0,3.13,1.37l.69-1.59A1.72,1.72,0,0,0,640.7,580.67Z" fill="#7f7e78"/><path d="M649.45,554.7a1.72,1.72,0,0,0-2.1,1.2c-.15.54-.3,1.08-.46,1.63a1.7,1.7,0,0,0,1.17,2.11,1.58,1.58,0,0,0,.47.07,1.72,1.72,0,0,0,1.65-1.24c.16-.56.31-1.11.47-1.66A1.72,1.72,0,0,0,649.45,554.7Z" fill="#7f7e78"/><path d="M651.15,548.06a1.71,1.71,0,0,0-2.07,1.25l-.41,1.65A1.7,1.7,0,0,0,649.9,553a2,2,0,0,0,.42.05,1.72,1.72,0,0,0,1.66-1.28l.42-1.68A1.7,1.7,0,0,0,651.15,548.06Z" fill="#7f7e78"/><path d="M656,529.94l-.27,0-.08,0-.29,0-.58-.11c-.4-.08-.8-.19-1.2-.28-.13,0-.26-.06-.39-.09l-.26,1.59a1.7,1.7,0,0,0,1.4,2,1.43,1.43,0,0,0,.29,0,1.7,1.7,0,0,0,1.68-1.43l.24-1.45Z" fill="#7f7e78"/><path d="M654,534.64a1.71,1.71,0,0,0-2,1.36l-.32,1.67a1.72,1.72,0,0,0,1.34,2l.34,0a1.72,1.72,0,0,0,1.68-1.38l.32-1.7A1.7,1.7,0,0,0,654,534.64Z" fill="#7f7e78"/><path d="M652.67,541.37a1.71,1.71,0,0,0-2,1.3l-.37,1.66a1.72,1.72,0,0,0,1.29,2,1.69,1.69,0,0,0,.38,0,1.72,1.72,0,0,0,1.67-1.33l.37-1.68A1.7,1.7,0,0,0,652.67,541.37Z" fill="#7f7e78"/><path d="M637.94,586.94a1.72,1.72,0,0,0-2.28.81c-.24.51-.49,1-.74,1.52a1.72,1.72,0,0,0,1.54,2.47,1.69,1.69,0,0,0,1.53-1c.26-.52.51-1,.76-1.56A1.71,1.71,0,0,0,637.94,586.94Z" fill="#7f7e78"/><path d="M628,604.88a1.71,1.71,0,0,0-2.38.42l-1,1.38a1.71,1.71,0,0,0,.39,2.39,1.75,1.75,0,0,0,1,.32,1.7,1.7,0,0,0,1.38-.71c.34-.47.68-.94,1-1.42A1.71,1.71,0,0,0,628,604.88Z" fill="#7f7e78"/><path d="M601.46,628c-.49.26-1,.52-1.47.76a1.71,1.71,0,0,0,.77,3.24,1.63,1.63,0,0,0,.76-.18c.53-.26,1.05-.53,1.57-.81a1.71,1.71,0,0,0-1.63-3Z" fill="#7f7e78"/><path d="M607.09,624.49c-.45.32-.91.63-1.37.93a1.71,1.71,0,0,0,1.89,2.86l1.45-1a1.71,1.71,0,0,0-2-2.8Z" fill="#7f7e78"/><path d="M595.46,630.75c-.52.2-1,.39-1.56.57a1.71,1.71,0,0,0,.57,3.33,1.54,1.54,0,0,0,.56-.1c.56-.19,1.11-.4,1.66-.61a1.71,1.71,0,0,0-1.23-3.19Z" fill="#7f7e78"/><path d="M612.32,620.38l-1.27,1.08a1.71,1.71,0,0,0,1.09,3,1.74,1.74,0,0,0,1.1-.39l1.33-1.14a1.71,1.71,0,0,0-2.25-2.57Z" fill="#7f7e78"/><path d="M634.91,593.1a1.7,1.7,0,0,0-2.31.7l-.81,1.48a1.71,1.71,0,1,0,3,1.66c.28-.51.56-1,.83-1.53A1.7,1.7,0,0,0,634.91,593.1Z" fill="#7f7e78"/><path d="M589.15,632.73c-.53.13-1.07.25-1.61.36a1.71,1.71,0,0,0,.35,3.39,2,2,0,0,0,.35,0c.58-.12,1.16-.25,1.73-.39a1.71,1.71,0,1,0-.82-3.32Z" fill="#7f7e78"/><path d="M631.6,599.09a1.72,1.72,0,0,0-2.35.57l-.89,1.44a1.72,1.72,0,0,0,.54,2.36,1.77,1.77,0,0,0,.91.26,1.7,1.7,0,0,0,1.44-.8c.31-.49.61-1,.91-1.48A1.71,1.71,0,0,0,631.6,599.09Z" fill="#7f7e78"/><path d="M582.65,633.87,581,634a1.71,1.71,0,0,0,.14,3.41h.14l1.75-.17a1.71,1.71,0,0,0-.38-3.4Z" fill="#7f7e78"/><path d="M624,610.43a1.7,1.7,0,0,0-2.4.27L620.48,612a1.71,1.71,0,0,0,.22,2.41,1.67,1.67,0,0,0,1.09.4,1.7,1.7,0,0,0,1.31-.61q.57-.68,1.11-1.35A1.71,1.71,0,0,0,624,610.43Z" fill="#7f7e78"/><path d="M617.14,615.75,616,617a1.71,1.71,0,1,0,2.43,2.4c.41-.41.81-.83,1.22-1.25a1.71,1.71,0,1,0-2.48-2.35Z" fill="#7f7e78"/><g opacity="0.86"><path d="M600.57,628.24a1.71,1.71,0,0,1-.8-3.22c.49-.26,1-.53,1.45-.8a1.71,1.71,0,1,1,1.7,3c-.51.29-1,.57-1.55.85A1.64,1.64,0,0,1,600.57,628.24Zm-56.35-3.34a1.77,1.77,0,0,1-1-.33l-1.39-1.07a1.71,1.71,0,0,1,2.11-2.69c.44.35.88.68,1.32,1a1.71,1.71,0,0,1-1,3.08Zm62.2-.21a1.71,1.71,0,0,1-1-3.12l1.36-1a1.71,1.71,0,0,1,2,2.76c-.48.35-1,.69-1.43,1A1.76,1.76,0,0,1,606.42,624.69ZM539,620.54a1.73,1.73,0,0,1-1.16-.45l-1.27-1.2a1.71,1.71,0,1,1,2.38-2.46l1.21,1.15a1.71,1.71,0,0,1-1.16,3Zm72.86,0a1.67,1.67,0,0,1-1.3-.6,1.7,1.7,0,0,1,.19-2.41l1.24-1.09a1.71,1.71,0,1,1,2.29,2.54c-.43.39-.87.77-1.31,1.15A1.7,1.7,0,0,1,611.83,620.53Zm5-4.66a1.72,1.72,0,0,1-1.22-2.91c.38-.39.77-.8,1.15-1.21a1.71,1.71,0,1,1,2.5,2.33c-.39.43-.79.85-1.2,1.27A1.74,1.74,0,0,1,616.79,615.87Zm-82.62-.19a1.71,1.71,0,0,1-1.27-.57c-.39-.43-.77-.86-1.15-1.3a1.71,1.71,0,1,1,2.58-2.24l1.11,1.25a1.72,1.72,0,0,1-.12,2.42A1.74,1.74,0,0,1,534.17,615.68Zm87.17-4.92A1.71,1.71,0,0,1,620,608c.36-.43.7-.87,1.05-1.3a1.71,1.71,0,1,1,2.68,2.12l-1.09,1.35A1.7,1.7,0,0,1,621.34,610.76Zm4.13-5.43a1.71,1.71,0,0,1-1.4-2.69q.49-.69,1-1.38a1.71,1.71,0,0,1,2.83,1.92l-1,1.43A1.72,1.72,0,0,1,625.47,605.33Z" fill="#fff"/></g><g opacity="0.86"><path d="M606.67,628.56a1.71,1.71,0,0,1-.95-3.14c.46-.3.92-.61,1.37-.93a1.71,1.71,0,0,1,2,2.8l-1.45,1A1.72,1.72,0,0,1,606.67,628.56Zm5.47-4.08a1.71,1.71,0,0,1-1.09-3l1.27-1.08a1.71,1.71,0,0,1,2.25,2.57l-1.33,1.14A1.74,1.74,0,0,1,612.14,624.48Zm-73.38-1.72a1.68,1.68,0,0,1-1.12-.42c-.44-.38-.87-.77-1.31-1.17a1.71,1.71,0,0,1,2.31-2.52c.41.38.83.75,1.25,1.11a1.72,1.72,0,0,1,.16,2.42A1.68,1.68,0,0,1,538.76,622.76Zm78.42-2.9A1.71,1.71,0,0,1,616,617l1.17-1.2a1.71,1.71,0,1,1,2.48,2.35c-.41.42-.81.84-1.22,1.25A1.72,1.72,0,0,1,617.18,619.86ZM533.82,618a1.73,1.73,0,0,1-1.24-.53l-1.19-1.27a1.71,1.71,0,1,1,2.51-2.32l1.15,1.22a1.72,1.72,0,0,1-1.23,2.9Zm88-3.24a1.67,1.67,0,0,1-1.09-.4,1.71,1.71,0,0,1-.22-2.41l1.07-1.29a1.71,1.71,0,1,1,2.66,2.14q-.54.67-1.11,1.35A1.7,1.7,0,0,1,621.79,614.8Zm-92.51-1.88a1.68,1.68,0,0,1-1.32-.62c-.37-.45-.74-.9-1.1-1.36a1.71,1.71,0,0,1,2.68-2.13l1.05,1.31a1.71,1.71,0,0,1-1.31,2.8Z" fill="#fff"/></g><path d="M800.54,1223.65l5.66,56.15s-67.06,9.28-180.87,13.77-226.51-13.77-226.51-13.77l4.64-34.94Z" fill="#bababa" stroke="#262521" stroke-linecap="round" stroke-linejoin="round" stroke-width="3"/><path d="M421.22,1019s-5.62,57.38-15.45,88.33-6.95,93.74-19.82,121.27c-1,12.67,3.11,41,3.11,41l-61,1.5c-3.38-13.45-7.06-24-9.43-39.9-25.38-84-1.42-286.16-1.42-286.16s-28.6-290.83,26.68-324.28c44.68-27,145.46-89.52,145.46-89.52s-.24-.24.73,2.61c4.11,12.15,66.55,150.83,92.43,151.4s76.62-155,76.62-155,131.11,49.6,142.29,56.21c57.48,33.95,58.89,331.94,58.89,331.94s54.95,214.94,29.32,298.08c1.58,21.42,2.61,35.23,2.61,35.23h-61.6s-.25-8-1.89-34.36c-12.41-11.12-31-134-48.07-177.22" fill="#262521" stroke="#262521" stroke-linecap="round" stroke-linejoin="round" stroke-width="3"/><path d="M410.65,807.61s12.43,218.06,6.73,252.8c-3.73,22.75-25,83.8-14.05,144.17-3,26.45-6.6,59.72-6.6,59.72s71,16.39,148,15.46c137.53-1.66,265.66-20.89,265.66-20.89s-.25-33.66-4.15-65c6.24-57.25-21.49-136.77-34.12-204.65-9.91-53.24-5.7-181.65-5.7-181.65" fill="#262521" stroke="#262521" stroke-linecap="round" stroke-linejoin="round" stroke-width="3"/><path d="M497.78,553a79.26,79.26,0,0,1-9-17.59c10.38-5.26,17.73-10.2,19.27-14.15,2.32-6,3-14.93,3-24.11-14.32.79-25.64,2.81-28.64,6.92-9.9,13.57-12.16,13.57-12.16,13.57s-8.2-8.2-14.7,0-35.63,29.41-30,40.15S490,587.45,490,587.45l6.43,2.64C497.55,577.76,497.75,565.35,497.78,553Z" fill="#262521"/><path d="M490,631.74s80.36,45,90.73,54.58l9.58,594.06" fill="none" stroke="#636363" stroke-linecap="round" stroke-linejoin="round"/><path d="M668.35,629.15s-93,66.71-87.39,76.65" fill="none" stroke="#636363" stroke-linecap="round" stroke-linejoin="round"/><path d="M498.71,631.52q3.53,50.1,4.7,100.34,1.15,49.95,0,99.94-.66,28-2.07,56.05c-.1,1.93,2.9,1.92,3,0q2.52-50.18,2.67-100.41.15-50-2.06-99.92-1.23-28-3.2-56c-.14-1.92-3.14-1.93-3,0Z" fill="#fff"/><path d="M504.12,862.25c-2.9,0-4.35,4.14-2.21,6.07a3.68,3.68,0,0,0,4.34.31,3.92,3.92,0,0,0,2-3.86,4.62,4.62,0,0,0-3-3.6,4.75,4.75,0,0,0-4.36.61,6,6,0,0,0-2.46,3.73,5.41,5.41,0,0,0,1.07,4.36,3.58,3.58,0,0,0,4.61.82,3.34,3.34,0,0,0,1.41-4.51,1.5,1.5,0,1,0-2.59,1.51,1,1,0,0,0,.08.15s-.08-.3-.07-.17a.45.45,0,0,0,0,.11c.05.16-.1.06,0-.16,0,0,0,.08,0,.11s0-.23,0-.2a.79.79,0,0,0-.08.3s.17-.33.05-.14l-.06.11-.07.11c-.09.15-.07,0,.09-.11-.06,0-.13.14-.18.19a1.5,1.5,0,0,0-.13.11s.28-.18.1-.07l-.26.15c-.28.16.23,0,0,0a1,1,0,0,0-.25.06s.39,0,.15,0h-.17c-.05,0-.21,0,0,0s.05,0,0,0l-.12,0c-.21-.06.09,0,.1,0a1.26,1.26,0,0,0-.23-.13c-.16-.09,0-.09.08.07,0,0-.11-.09-.13-.11s-.14-.16-.22-.23.1.11.09.12-.06-.1-.07-.11a2.54,2.54,0,0,1-.16-.28s-.07-.16-.08-.17.11.31,0,.1-.11-.39-.15-.59c-.08-.37,0,.24,0,0s0-.25,0-.38,0-.22,0-.33,0,.15,0,.16,0-.11,0-.14.05-.22.08-.33a1.82,1.82,0,0,0,.14-.39s-.13.27,0,.12l.09-.18.15-.27c0-.06.2-.24.2-.3s-.18.22-.07.09l.16-.19.26-.26.12-.11c-.17.15.13-.08.18-.12l.36-.2c.23-.12-.29.1.06,0l.29-.08.2,0c.16,0-.14,0-.15,0a1.91,1.91,0,0,0,.41,0h.15c.2,0-.3-.06-.1,0l.29.07.19.06c.15,0-.12,0-.12,0a2.31,2.31,0,0,0,.35.18,1.28,1.28,0,0,0,.26.17c-.17,0-.19-.16-.07,0l.11.1c.05,0,.17.23.24.26s-.17-.25-.08-.11.09.13.13.21.08.19.14.26c-.14-.17-.08-.24,0-.09s0,.09,0,.14,0,.13,0,.19,0-.15,0-.16a1.27,1.27,0,0,0,0,.39s.08-.31,0-.18l0,.13c0,.05-.13.39,0,.14s-.05.07-.09.13l-.07.11c-.08.15.23-.24.05-.06l-.19.19a1.27,1.27,0,0,0-.13.11s.26-.16.13-.1-.17.11-.26.16l-.11.06c-.15.1.32-.1.07,0l-.24.08-.17,0s.33,0,.19,0h-.29c-.05,0-.22,0,0,0s0,0-.05,0l-.12,0c-.13,0,.3.18.09,0a.47.47,0,0,0-.12-.07c-.13,0,.2.18.12.1s-.27-.31-.1-.09,0-.06,0-.11.08.17.08.19a1.77,1.77,0,0,0-.06-.17c0-.07-.08-.41,0-.12s0,0,0-.09,0-.1,0-.15,0,.15,0,.18,0-.19.06-.28,0-.1,0-.15-.05.13-.07.16a2.1,2.1,0,0,0,.13-.26s0-.05.06-.09-.25.27-.08.11a.9.9,0,0,0,.2-.19s-.28.17-.17.13a.47.47,0,0,0,.12-.07c.25-.17-.33.13,0,0s-.38,0,0,0a1.5,1.5,0,0,0,1.5-1.5,1.52,1.52,0,0,0-1.5-1.5Z" fill="#fff"/><path d="M656.26,629.64c2.34,33.3,2.8,66.69,2.83,100.06s-.38,66.51.26,99.77c.36,18.85,1,37.69,2.32,56.5.13,1.92,3.13,1.93,3,0C662.41,852.48,662,818.9,662,785.35c0-33.21.38-66.41-.3-99.61-.38-18.72-1.11-37.43-2.42-56.1-.13-1.92-3.13-1.93-3,0Z" fill="#fff"/><path d="M663.55,860.38c-2.9,0-4.35,4.13-2.2,6.06a3.65,3.65,0,0,0,4.33.31,3.92,3.92,0,0,0,2-3.86,4.59,4.59,0,0,0-3-3.59,4.69,4.69,0,0,0-4.36.61,5.9,5.9,0,0,0-2.45,3.72,5.37,5.37,0,0,0,1.06,4.36,3.58,3.58,0,0,0,4.62.82,3.34,3.34,0,0,0,1.4-4.51,1.5,1.5,0,1,0-2.59,1.51.68.68,0,0,0,.08.15s-.08-.3-.07-.17a.7.7,0,0,0,0,.12c.06.16-.1.05,0-.17,0,0,0,.08,0,.11s0-.23,0-.2a.84.84,0,0,0-.08.3s.17-.33.05-.13l-.06.1-.06.11c-.09.15-.08,0,.08-.1-.06,0-.13.14-.18.18s-.12.09-.13.12.28-.19.1-.08l-.26.15c-.28.16.23,0,0,0a.94.94,0,0,0-.24.06s.38,0,.14,0h-.17c-.05,0-.21,0,0,0s0,0,0,0l-.13,0c-.21-.06.09,0,.1,0a1.57,1.57,0,0,0-.23-.13c-.16-.08,0-.09.08.08,0,0-.1-.09-.13-.12s-.14-.16-.22-.23.1.11.1.12l-.08-.11c-.05-.09-.11-.18-.16-.28s-.06-.15-.08-.16.11.31,0,.1-.12-.4-.16-.6c-.08-.36,0,.24,0,0s0-.25,0-.38,0-.22,0-.33,0,.15,0,.16,0-.11,0-.14,0-.22.08-.33a1.4,1.4,0,0,0,.14-.39s-.13.27-.05.13l.09-.19.15-.27s.2-.24.2-.3-.18.22-.07.1l.17-.2a3,3,0,0,1,.25-.25s.29-.26.12-.12.13-.08.18-.12l.36-.19c.23-.13-.29.09.06,0l.29-.08.2,0c.16,0-.14,0-.15,0a2.81,2.81,0,0,0,.41,0h.15c.2,0-.3-.07-.1,0l.29.07.19.07c.16,0-.11,0-.12-.06a3,3,0,0,0,.36.19,1.32,1.32,0,0,0,.25.16c-.17,0-.19-.16-.07,0l.11.11s.17.23.24.25l-.08-.11.14.21c0,.07.08.19.13.26-.14-.16-.08-.24,0-.09s0,.09,0,.14,0,.13.05.19,0-.14,0-.15a1.21,1.21,0,0,0,0,.38s.08-.31,0-.18,0,.09,0,.13-.14.39,0,.15,0,.06-.08.12l-.08.11c-.08.16.23-.24,0-.06l-.18.19s-.13.09-.14.12.26-.17.13-.11l-.26.17a.6.6,0,0,0-.11.06c-.15.09.32-.11.08,0l-.25.07a1,1,0,0,0-.17,0s.33,0,.19,0a1.41,1.41,0,0,0-.29,0s-.21,0,0,0,0,0-.05,0l-.12,0c-.13,0,.31.18.09,0l-.11-.07c-.14,0,.19.19.12.1s-.28-.31-.11-.08,0-.07,0-.12.08.18.08.2a.85.85,0,0,0-.06-.17c0-.08-.08-.42,0-.12s0,0,0-.1,0-.09,0-.14c0-.21,0,.14,0,.18s0-.2.06-.29,0-.1,0-.14,0,.12-.07.15l.14-.25s0-.06,0-.09-.25.26-.08.11a1.26,1.26,0,0,0,.2-.2s-.27.17-.17.14l.12-.08c.26-.16-.33.13,0,0s-.38,0,0,0a1.5,1.5,0,0,0,0-3Z" fill="#fff"/><path d="M584.16,702.25h-5.62a2.79,2.79,0,0,0-2.52,2.32l-1.08,19.68c-.06.93-.11,1.86-.16,2.79a2.87,2.87,0,0,0,3,3.27H586a2.56,2.56,0,0,0,2.09-1.3l.06-.09a1.14,1.14,0,0,0,.1-.19c.06-.12.11-.24.16-.37l0-.11c0-.13.07-.25.09-.39a3.88,3.88,0,0,0,0-.59q-.59-9.82-1.15-19.67c-.06-.94-.11-1.87-.17-2.8A2.86,2.86,0,0,0,584.16,702.25Zm1,17.26-.08,5.17a1.87,1.87,0,0,1-1.9,1.84l-2.8,0a1.88,1.88,0,0,1-1.84-1.9l.08-5.17a1.88,1.88,0,0,1,1.9-1.84l2.8,0A1.88,1.88,0,0,1,585.14,719.51Z" fill="#84837e"/><path d="M593.33,1276.73H587.7a2.78,2.78,0,0,0-2.51,2.32q-.56,9.84-1.09,19.68l-.15,2.79a2.86,2.86,0,0,0,3,3.27h8.17a2.56,2.56,0,0,0,2.1-1.3l.06-.09.09-.19a2.06,2.06,0,0,0,.16-.37l0-.11a2.46,2.46,0,0,0,.09-.39,2.27,2.27,0,0,0,0-.58q-.57-9.84-1.15-19.68c0-.94-.11-1.87-.16-2.8A2.87,2.87,0,0,0,593.33,1276.73Zm1,17.26-.08,5.17a1.86,1.86,0,0,1-1.89,1.84l-2.8,0a1.87,1.87,0,0,1-1.84-1.9l.08-5.17a1.87,1.87,0,0,1,1.89-1.84l2.81,0A1.86,1.86,0,0,1,594.3,1294Z" fill="#84837e"/><rect x="579.76" y="696.82" width="3.77" height="15.03" rx="0.68" transform="translate(1163.29 1408.67) rotate(180)" fill="#aaa9a3"/><rect x="589.11" y="1271.1" width="3.77" height="15.03" rx="0.68" transform="translate(1181.99 2557.23) rotate(180)" fill="#aaa9a3"/></svg>