<svg xmlns="http://www.w3.org/2000/svg" width="1000" height="1550" viewBox="0 0 1000 1550"><path d="M675.54 1223.65L556 532.59l-31.45-6s-7.62 55.38-75 58.47-73.43-58.47-73.43-58.47l-27.3 12.56-70.32 705.73-4.64 34.94s112.7 18.26 226.51 13.77 180.83-13.79 180.83-13.79z" fill="#bababa" stroke="#262521" stroke-linecap="round" stroke-linejoin="round" stroke-width="3"/><path d="M373.79 529s12.74 107.09 76.95 107.09 74.86-107.56 74.86-107.56" fill="none" stroke="#262521" stroke-linecap="round" stroke-linejoin="round" stroke-width="8.27" stroke-dasharray="1.65 4.96"/><path d="M377.8 545.93a1.65 1.65 0 01-1.61-1.31l-.35-1.64a1.66 1.66 0 011.29-2 1.64 1.64 0 011.95 1.29l.34 1.61a1.65 1.65 0 01-1.27 2 2.09 2.09 0 01-.35.05zm71.58 90.3a1.66 1.66 0 010-3.31h1.6a1.66 1.66 0 01.15 3.31l-1.71.05zm-4.95-.2h-.15c-.57 0-1.14-.11-1.7-.19a1.64 1.64 0 01-1.43-1.85 1.66 1.66 0 011.85-1.43c.52.07 1.05.13 1.58.18a1.65 1.65 0 01-.15 3.3zm11.54-.3a1.65 1.65 0 01-.22-3.29l1.59-.24a1.66 1.66 0 01.53 3.27l-1.68.25zm-18-.77a1.81 1.81 0 01-.39-.05l-1.65-.43a1.66 1.66 0 11.89-3.19c.51.14 1 .28 1.54.4a1.66 1.66 0 01-.39 3.27zm24.51-.49a1.65 1.65 0 01-.41-3.25l1.55-.42a1.65 1.65 0 11.91 3.18l-1.63.44a1.51 1.51 0 01-.46.05zM431.66 633a1.67 1.67 0 01-.62-.12c-.53-.21-1.05-.43-1.57-.66a1.65 1.65 0 011.33-3c.49.22 1 .42 1.47.62a1.65 1.65 0 01-.61 3.19zm37.06-.49a1.66 1.66 0 01-.59-3.2c.5-.19 1-.39 1.48-.6a1.66 1.66 0 111.29 3.05l-1.58.64a1.56 1.56 0 01-.6.06zm-43-2.37a1.66 1.66 0 01-.81-.21q-.75-.42-1.47-.87a1.65 1.65 0 011.72-2.82l1.38.81a1.65 1.65 0 01-.82 3.09zm-19.47-17.62a1.67 1.67 0 01-1.32-.64c-.34-.45-.68-.89-1-1.34a1.65 1.65 0 112.65-2l1 1.3a1.65 1.65 0 01-1.3 2.66zm-3.86-5.37a1.66 1.66 0 01-1.38-.74c-.31-.46-.62-.93-.92-1.4a1.65 1.65 0 112.77-1.8l.9 1.36a1.66 1.66 0 01-.45 2.3 1.68 1.68 0 01-.91.23zm100-5.07a1.59 1.59 0 01-.86-.25 1.64 1.64 0 01-.55-2.27l.84-1.4a1.65 1.65 0 112.84 1.69c-.28.48-.57 1-.86 1.43a1.66 1.66 0 01-1.36.72zm-103.56-.54a1.64 1.64 0 01-1.43-.82l-.84-1.44a1.66 1.66 0 012.87-1.65l.82 1.42a1.65 1.65 0 01-.59 2.26 1.58 1.58 0 01-.78.18zm106.85-5.21a1.71 1.71 0 01-.78-.2 1.65 1.65 0 01-.67-2.24l.77-1.45a1.65 1.65 0 012.93 1.53l-.79 1.49a1.67 1.67 0 01-1.41.82zm-110.07-.58a1.66 1.66 0 01-1.47-.88l-.77-1.49a1.65 1.65 0 112.95-1.5l.75 1.45a1.65 1.65 0 01-1.46 2.42zm113.06-5.34a1.63 1.63 0 01-.71-.16 1.66 1.66 0 01-.79-2.2l.7-1.49a1.65 1.65 0 113 1.39l-.71 1.51a1.64 1.64 0 01-1.44.9zm-116-.59a1.65 1.65 0 01-1.5-.95c-.24-.51-.47-1-.7-1.52a1.65 1.65 0 113-1.38l.69 1.49a1.65 1.65 0 01-.79 2.2 1.59 1.59 0 01-.66.11zm118.7-5.46a1.58 1.58 0 01-.63-.13 1.65 1.65 0 01-.89-2.16l.63-1.52a1.65 1.65 0 113.06 1.25l-.64 1.54a1.66 1.66 0 01-1.49.97zM390 583.73a1.66 1.66 0 01-1.53-1l-.64-1.54a1.65 1.65 0 01.9-2.16 1.67 1.67 0 012.16.9l.63 1.51a1.67 1.67 0 01-1.52 2.3zm123.84-5.58a1.7 1.7 0 01-.58-.11 1.64 1.64 0 01-1-2.12c.19-.52.38-1 .56-1.54a1.66 1.66 0 113.18 1.12l-.58 1.57a1.65 1.65 0 01-1.57 1.08zm-126.32-.56a1.66 1.66 0 01-1.55-1.06l-.59-1.56a1.65 1.65 0 113.1-1.16l.58 1.53a1.66 1.66 0 01-.95 2.14 1.58 1.58 0 01-.58.11zm128.52-5.69a1.54 1.54 0 01-.52-.09 1.65 1.65 0 01-1-2.09c.17-.52.34-1 .5-1.55a1.66 1.66 0 113.16 1c-.17.53-.35 1.06-.52 1.6a1.66 1.66 0 01-1.61 1.13zm-130.8-.53a1.66 1.66 0 01-1.57-1.11l-.54-1.57a1.65 1.65 0 013.13-1.07l.54 1.55a1.66 1.66 0 01-1 2.11 1.7 1.7 0 01-.55.09zm132.76-5.8a1.58 1.58 0 01-.47-.07 1.66 1.66 0 01-1.12-2l.46-1.57a1.65 1.65 0 013.18.9l-.46 1.6a1.66 1.66 0 01-1.59 1.14zm-134.87-.49a1.65 1.65 0 01-1.58-1.15l-.5-1.59a1.65 1.65 0 013.16-1l.49 1.57a1.65 1.65 0 01-1.07 2.08 1.77 1.77 0 01-.48.09zm136.64-5.89a1.52 1.52 0 01-.42-.06 1.65 1.65 0 01-1.18-2c.14-.53.27-1.06.4-1.58a1.65 1.65 0 113.21.8c-.13.53-.27 1.07-.41 1.62a1.67 1.67 0 01-1.58 1.22zm-138.57-.45a1.64 1.64 0 01-1.58-1.19l-.46-1.61a1.65 1.65 0 113.18-.89l.45 1.58a1.66 1.66 0 01-1.13 2 1.76 1.76 0 01-.44.11zm140.14-6a1.61 1.61 0 01-.37 0 1.65 1.65 0 01-1.24-2l.36-1.6a1.65 1.65 0 013.23.71l-.37 1.63a1.65 1.65 0 01-1.59 1.26zm-141.9-.39a1.66 1.66 0 01-1.6-1.23l-.42-1.62a1.66 1.66 0 013.21-.82l.41 1.59a1.65 1.65 0 01-1.18 2 1.52 1.52 0 01-.4.08zm143.29-6.09h-.33a1.65 1.65 0 01-1.3-2l.32-1.61a1.65 1.65 0 113.25.62l-.32 1.64a1.66 1.66 0 01-1.6 1.35zm1.19-6.53h-.28a1.66 1.66 0 01-1.35-1.91c.09-.56.18-1.09.27-1.62a1.65 1.65 0 013.26.52q-.12.81-.27 1.65a1.66 1.66 0 01-1.61 1.36zm-147.54-.29a1.64 1.64 0 01-1.61-1.31l-.35-1.63a1.67 1.67 0 011.29-2 1.65 1.65 0 011.95 1.29l.34 1.61a1.65 1.65 0 01-1.27 2 1.39 1.39 0 01-.33.04zM525 533.17h-.23a1.66 1.66 0 01-1.42-1.86c.08-.59.16-1.13.22-1.63a1.65 1.65 0 113.28.41c-.06.51-.14 1.07-.22 1.66a1.66 1.66 0 01-1.63 1.42zm-149.85-.24a1.67 1.67 0 01-1.63-1.36l-.29-1.64a1.65 1.65 0 113.25-.58l.3 1.62a1.66 1.66 0 01-1.33 1.93z" fill="#b7b6b0"/><path d="M451 638.78h-1.71a1.65 1.65 0 01.14-3.3h1.6a1.65 1.65 0 010 3.3zm4.94-.17a1.65 1.65 0 01-.13-3.3q.81-.06 1.59-.15a1.64 1.64 0 011.83 1.46 1.66 1.66 0 01-1.46 1.83l-1.69.16zm-11.54-.29h-.22c-.56-.07-1.13-.16-1.68-.25a1.65 1.65 0 11.54-3.26l1.58.23a1.66 1.66 0 01-.22 3.3zm18.07-.64a1.66 1.66 0 01-.33-3.28c.52-.1 1-.22 1.56-.35a1.66 1.66 0 11.78 3.22c-.55.13-1.11.26-1.67.37a1.27 1.27 0 01-.36.04zm-24.56-.68a2 2 0 01-.43 0l-1.64-.47a1.65 1.65 0 111-3.17c.51.16 1 .3 1.54.44a1.65 1.65 0 01-.42 3.25zm30.91-1.12a1.66 1.66 0 01-.55-3.22c.5-.17 1-.36 1.5-.55a1.66 1.66 0 011.19 3.09l-1.6.59a1.7 1.7 0 01-.54.12zm-37.17-1a1.76 1.76 0 01-.63-.12l-1.57-.67a1.66 1.66 0 011.35-3l1.47.63a1.66 1.66 0 01-.62 3.19zm43.25-1.6a1.65 1.65 0 01-.74-3.13c.48-.24.95-.49 1.42-.74a1.66 1.66 0 011.58 2.91c-.5.27-1 .53-1.52.79a1.63 1.63 0 01-.74.22zm-49.21-1.27a1.65 1.65 0 01-.8-.21l-1.47-.84a1.66 1.66 0 011.69-2.85c.46.28.93.54 1.39.8a1.65 1.65 0 01-.81 3.1zm-5.58-3.53a1.64 1.64 0 01-1-.31l-1.37-1a1.65 1.65 0 012-2.64l1.31 1a1.66 1.66 0 01-1 3zm79.2-17a1.66 1.66 0 01-1.34-2.63c.32-.44.63-.88.94-1.33a1.65 1.65 0 112.71 1.9l-1 1.37a1.65 1.65 0 01-1.31.69zm-97.59-1.84a1.65 1.65 0 01-1.35-.69c-.33-.45-.65-.91-1-1.37a1.66 1.66 0 112.72-1.89c.31.44.62.89.94 1.33a1.66 1.66 0 01-.38 2.31 1.64 1.64 0 01-.93.31zM503 606a1.61 1.61 0 01-.88-.26 1.65 1.65 0 01-.52-2.27l.86-1.39a1.65 1.65 0 012.82 1.72c-.29.48-.58 1-.88 1.42a1.65 1.65 0 01-1.4.78zm-105-1.84a1.66 1.66 0 01-1.4-.77c-.3-.48-.6-1-.89-1.43a1.65 1.65 0 112.81-1.73l.87 1.39a1.65 1.65 0 01-.51 2.28 1.69 1.69 0 01-.88.25zm108.35-3.87a1.64 1.64 0 01-1.44-2.45c.26-.48.53-1 .78-1.44a1.66 1.66 0 012.92 1.57l-.81 1.47a1.63 1.63 0 01-1.44.84zm-111.75-1.84a1.67 1.67 0 01-1.45-.84l-.81-1.47a1.65 1.65 0 012.9-1.59L396 596a1.66 1.66 0 01-.62 2.26 1.72 1.72 0 01-.78.19zm114.84-4.05a1.7 1.7 0 01-.73-.17A1.66 1.66 0 01508 592l.72-1.47a1.65 1.65 0 113 1.43c-.24.5-.48 1-.73 1.5a1.65 1.65 0 01-1.55.94zm-118-1.79a1.65 1.65 0 01-1.47-.9l-.75-1.5a1.65 1.65 0 113-1.46l.74 1.46a1.66 1.66 0 01-1.48 2.4zm120.77-4.22a1.79 1.79 0 01-.67-.14 1.66 1.66 0 01-.84-2.18c.22-.5.43-1 .65-1.51a1.65 1.65 0 013 1.3c-.22.51-.44 1-.67 1.54a1.65 1.65 0 01-1.45.99zm-123.65-1.75a1.65 1.65 0 01-1.5-1c-.23-.51-.47-1-.69-1.52a1.65 1.65 0 113-1.35l.67 1.49a1.64 1.64 0 01-.81 2.19 1.54 1.54 0 01-.65.19zm126.19-4.37a1.61 1.61 0 01-.6-.12 1.66 1.66 0 01-.93-2.15c.2-.51.4-1 .59-1.52a1.65 1.65 0 113.09 1.18c-.2.52-.4 1-.61 1.56a1.65 1.65 0 01-1.52 1.05zm-128.84-1.7a1.66 1.66 0 01-1.53-1c-.21-.51-.43-1-.64-1.55a1.66 1.66 0 013.07-1.24c.2.51.41 1 .62 1.52a1.64 1.64 0 01-.89 2.16 1.58 1.58 0 01-.61.11zm131.16-4.52a1.81 1.81 0 01-.55-.09 1.66 1.66 0 01-1-2.11l.55-1.55a1.65 1.65 0 113.12 1.07l-.55 1.58a1.64 1.64 0 01-1.55 1.1zm-133.61-1.64a1.64 1.64 0 01-1.54-1.07l-.59-1.57a1.66 1.66 0 013.11-1.14l.57 1.54a1.66 1.66 0 01-1 2.13 1.76 1.76 0 01-.53.11zm135.72-4.64a1.8 1.8 0 01-.5-.08 1.65 1.65 0 01-1.07-2.08l.49-1.57a1.65 1.65 0 113.16 1l-.5 1.59a1.66 1.66 0 01-1.56 1.14zm-138-1.6a1.66 1.66 0 01-1.56-1.12l-.54-1.58a1.66 1.66 0 013.14-1.05l.53 1.56a1.66 1.66 0 01-1 2.1 1.7 1.7 0 01-.52.09zm139.89-4.75a1.51 1.51 0 01-.46-.07 1.65 1.65 0 01-1.13-2c.15-.53.3-1.06.44-1.58a1.67 1.67 0 012-1.16 1.65 1.65 0 011.15 2l-.45 1.62a1.67 1.67 0 01-1.5 1.19zm-141.95-1.55a1.65 1.65 0 01-1.58-1.16l-.49-1.6a1.65 1.65 0 113.16-1l.48 1.57a1.64 1.64 0 01-1.08 2.07 1.67 1.67 0 01-.44.12zM522.85 557a1.44 1.44 0 01-.41 0 1.65 1.65 0 01-1.19-2l.4-1.6a1.65 1.65 0 113.21.8l-.41 1.62a1.64 1.64 0 01-1.6 1.18zm-145.58-1.5a1.65 1.65 0 01-1.59-1.2l-.45-1.61a1.65 1.65 0 113.18-.88l.45 1.58a1.66 1.66 0 01-1.14 2.05 1.74 1.74 0 01-.45.07zm147.14-5a1.5 1.5 0 01-.37 0 1.66 1.66 0 01-1.25-2l.36-1.6a1.65 1.65 0 113.23.7l-.36 1.63a1.66 1.66 0 01-1.61 1.33zm-148.87-1.45a1.65 1.65 0 01-1.6-1.25l-.41-1.61a1.65 1.65 0 011.2-2 1.67 1.67 0 012 1.2l.4 1.6a1.65 1.65 0 01-1.19 2 1.51 1.51 0 01-.4.12zm150.25-5h-.33a1.67 1.67 0 01-1.3-1.95l.32-1.61a1.65 1.65 0 013.25.61l-.32 1.64a1.66 1.66 0 01-1.62 1.33zM374 542.66a1.66 1.66 0 01-1.61-1.29l-.37-1.63a1.65 1.65 0 013.23-.71l.37 1.6a1.66 1.66 0 01-1.25 2 1.57 1.57 0 01-.37.03zm153-5.12h-.27a1.65 1.65 0 01-1.36-1.9l.27-1.63a1.65 1.65 0 113.26.52l-.27 1.66a1.65 1.65 0 01-1.63 1.35zm-154.42-1.38a1.66 1.66 0 01-1.62-1.32c-.11-.58-.22-1.13-.32-1.65a1.65 1.65 0 013.25-.62c.1.51.2 1 .32 1.61a1.65 1.65 0 01-1.29 2z" fill="#7f7e78"/><path d="M474.72 629.71a1.65 1.65 0 01-.77-3.11c.47-.26.94-.51 1.4-.78a1.66 1.66 0 011.65 2.87l-1.5.83a1.66 1.66 0 01-.78.19zm-54.51-3.23a1.67 1.67 0 01-1-.32l-1.35-1a1.66 1.66 0 012.05-2.6c.42.33.85.65 1.28 1a1.65 1.65 0 01-1 3zm60.17-.21a1.65 1.65 0 01-.94-3l1.31-.93a1.65 1.65 0 011.95 2.66c-.46.34-.92.66-1.39 1a1.6 1.6 0 01-.93.27zm-65.25-4a1.6 1.6 0 01-1.12-.44c-.42-.38-.83-.77-1.23-1.16a1.65 1.65 0 010-2.34 1.67 1.67 0 012.34 0c.38.38.78.75 1.17 1.11a1.66 1.66 0 01-1.12 2.87zm70.48 0a1.63 1.63 0 01-1.26-.58 1.66 1.66 0 01.18-2.33l1.21-1.06a1.65 1.65 0 112.21 2.46c-.42.38-.84.75-1.27 1.11a1.62 1.62 0 01-1.07.38zm4.8-4.51a1.66 1.66 0 01-1.18-2.81l1.11-1.17a1.65 1.65 0 112.42 2.25l-1.16 1.23a1.68 1.68 0 01-1.19.48zm-79.92-.18a1.66 1.66 0 01-1.23-.55l-1.12-1.26a1.66 1.66 0 112.5-2.17c.36.41.71.82 1.08 1.22a1.65 1.65 0 01-.13 2.33 1.61 1.61 0 01-1.1.41zm84.32-4.76a1.64 1.64 0 01-1.27-2.7l1-1.26a1.66 1.66 0 012.6 2c-.35.44-.7.88-1.06 1.31a1.64 1.64 0 01-1.27.63zm4-5.25a1.65 1.65 0 01-1.35-2.61c.31-.44.62-.88.92-1.33a1.66 1.66 0 112.74 1.86l-1 1.38a1.63 1.63 0 01-1.31.68z" fill="#f4f4f4"/><path d="M480.62 630a1.65 1.65 0 01-.92-3l1.32-.9a1.65 1.65 0 111.91 2.7c-.46.33-.93.64-1.4 1a1.69 1.69 0 01-.91.2zm5.3-3.94a1.68 1.68 0 01-1.28-.6 1.65 1.65 0 01.22-2.33l1.22-1a1.65 1.65 0 112.18 2.48c-.42.37-.85.74-1.29 1.1a1.63 1.63 0 01-1.05.37zm-71-1.67a1.67 1.67 0 01-1.09-.4l-1.26-1.14a1.65 1.65 0 012.23-2.43l1.2 1.07a1.65 1.65 0 01-1.08 2.9zm75.86-2.81a1.65 1.65 0 01-1.17-2.81c.38-.39.75-.77 1.12-1.17a1.66 1.66 0 012.4 2.28c-.39.41-.78.82-1.17 1.21a1.65 1.65 0 01-1.17.51zm-80.65-1.76a1.65 1.65 0 01-1.19-.51l-1.16-1.23a1.66 1.66 0 112.44-2.24c.36.4.74.79 1.11 1.18a1.66 1.66 0 010 2.34 1.63 1.63 0 01-1.19.48zm85.11-3.13a1.64 1.64 0 01-1.06-.39 1.66 1.66 0 01-.18-2.3c.35-.41.69-.83 1-1.25a1.65 1.65 0 112.58 2.07c-.35.44-.71.87-1.07 1.31a1.66 1.66 0 01-1.26.58zm-89.5-1.82a1.68 1.68 0 01-1.28-.6l-1.05-1.27a1.65 1.65 0 112.59-2.06l1 1.26a1.65 1.65 0 01-.23 2.33 1.67 1.67 0 01-1.02.36zM528 531h-.21a1.66 1.66 0 01-1.43-1.86l.1-.78a1.63 1.63 0 011.82-1.46 1.65 1.65 0 011.47 1.82s0 .29-.11.85A1.66 1.66 0 01528 531z" fill="#f4f4f4"/><path d="M735.35 918.39s-1.4-298-58.89-331.94c-5.16-3.05-35.89-15.27-67.47-27.53a2.61 2.61 0 00.82-.94c2.21-6.91-4.71-10-13.56-15.54s-8-14.34-11.34-21-13.84 1.66-13.84 1.66-10.79-15.77-17.71-24.44c-3-3.78-20.84-3.88-40-2.79.85 13.67 2.77 26.49 6.85 30 1.69 1.45 6.51 3.74 13.28 6.52-6.23 18.73-51.83 153.38-75.91 152.85-25.45-.56-86.26-134.69-92.18-150.69 9.54-4.95 16.22-9.58 17.68-13.33 2.32-6 3-14.93 3-24.11-14.32.79-25.64 2.81-28.64 6.92-9.9 13.57-12.16 13.57-12.16 13.57s-8.2-8.2-14.7 0-35.63 29.41-30 40.15c1.15 2.19 4.5 4.71 9.11 7.34-31 19.16-68.08 42-90.72 55.66C163.65 654.21 192.25 945 192.25 945s-24 202.14 1.42 286.16c2.37 15.93 6.05 26.45 9.43 39.9l61-1.5s-4.07-28.29-3.11-41c12.87-27.53 10-90.32 19.82-121.27 6-18.8-13.38 36.84-2.44 97.21-3 26.45-6.6 59.72-6.6 59.72s71 16.39 148 15.46c137.53-1.66 265.66-20.89 265.66-20.89s-.25-33.66-4.15-65c3.36-30.83-3.13-68.12-11.81-106.57 12.77 53 25.26 121.81 34.4 130 1.64 26.39 1.89 34.36 1.89 34.36h61.6s-1-13.81-2.61-35.23c25.55-83.02-29.4-297.96-29.4-297.96z" fill="#262521"/><path d="M365 631.74s80.36 45 90.73 54.58l9.58 594.06M543.35 629.15s-93 66.71-87.39 76.65" fill="none" stroke="#636363" stroke-linecap="round" stroke-linejoin="round"/><path d="M373.71 631.52q3.53 50.1 4.7 100.34 1.15 49.95 0 99.94-.66 28-2.07 56.05c-.1 1.93 2.9 1.92 3 0q2.52-50.18 2.67-100.41.15-50-2.06-99.92-1.23-28-3.2-56c-.14-1.92-3.14-1.93-3 0z" fill="#fff"/><path d="M380.2 864.92a.41.41 0 01-.05-.09.31.31 0 00.05.11z" fill="#fff"/><path d="M383.22 864.77c-1-5.68-9.17-4.53-9.83.74-1.25 4.48 5 8.19 7.22 3.42a4 4 0 002.61-4.16zM531.26 629.64c2.34 33.3 2.8 66.69 2.83 100.06s-.38 66.51.26 99.77c.36 18.85 1 37.69 2.32 56.5.13 1.92 3.13 1.93 3 0-2.26-33.49-2.67-67.07-2.67-100.62 0-33.21.38-66.41-.3-99.61-.38-18.72-1.11-37.43-2.42-56.1-.13-1.92-3.13-1.93-3 0z" fill="#fff"/><path d="M542.65 862.89c-.95-5.67-9.17-4.52-9.82.75-1.26 4.47 5 8.19 7.21 3.41a4 4 0 002.61-4.16z" fill="#fff"/><path d="M459.16 702.25h-5.62a2.79 2.79 0 00-2.52 2.32l-1.08 19.68c-.06.93-.11 1.86-.16 2.79a2.87 2.87 0 003 3.27H461a2.56 2.56 0 002.09-1.3l.06-.09a1.14 1.14 0 00.1-.19c.06-.12.11-.24.16-.37v-.11c0-.13.07-.25.09-.39a3.88 3.88 0 000-.59q-.58-9.82-1.15-19.67c-.06-.94-.11-1.87-.17-2.8a2.86 2.86 0 00-3.02-2.55zm1 17.26l-.08 5.17a1.87 1.87 0 01-1.9 1.84h-2.8a1.88 1.88 0 01-1.84-1.9l.08-5.17a1.88 1.88 0 011.9-1.84h2.8a1.88 1.88 0 011.82 1.9zM468.33 1276.73h-5.63a2.78 2.78 0 00-2.51 2.32q-.56 9.84-1.09 19.68l-.15 2.79a2.86 2.86 0 003 3.27h8.17a2.56 2.56 0 002.1-1.3l.06-.09.09-.19a2.06 2.06 0 00.16-.37v-.11a2.46 2.46 0 00.09-.39 2.27 2.27 0 000-.58q-.57-9.84-1.15-19.68c0-.94-.11-1.87-.16-2.8a2.87 2.87 0 00-2.98-2.55zm1 17.26l-.08 5.17a1.86 1.86 0 01-1.89 1.84h-2.8a1.87 1.87 0 01-1.84-1.9l.08-5.17a1.87 1.87 0 011.89-1.84h2.81a1.86 1.86 0 011.8 1.91z" fill="#84837e"/><rect x="454.76" y="696.82" width="3.77" height="15.03" rx=".68" transform="rotate(180 456.645 704.335)" fill="#aaa9a3"/><rect x="464.11" y="1271.1" width="3.77" height="15.03" rx=".68" transform="rotate(180 465.995 1278.615)" fill="#aaa9a3"/></svg>