<svg xmlns="http://www.w3.org/2000/svg" width="1250" height="1550" viewBox="0 0 1250 1550"><title>s01e12-02</title><path d="M505.31,506.87s26.26,38.43,66.82,48.45l-69,73.32s-27.26-75.45-18.66-92.11A148.1,148.1,0,0,1,505.31,506.87Z" fill="#fff" stroke="#262521" stroke-linecap="round" stroke-linejoin="round" stroke-width="3"/><path d="M643.12,506.87s-15.39,39.69-67.8,48.45l69.95,73.32s30.78-73,22.18-89.66S643.12,506.87,643.12,506.87Z" fill="#fff" stroke="#262521" stroke-linecap="round" stroke-linejoin="round" stroke-width="3"/><line x1="561.54" y1="567.95" x2="561.54" y2="743.25" fill="#fff" stroke="#262521" stroke-linecap="round" stroke-linejoin="round" stroke-width="3"/><circle cx="573.72" cy="569.55" r="4.65" fill="#262521" opacity="0.2"/><path d="M877.23,1043c-3.83-55.87-22.88-124.63-22.88-124.63s-14.59-306.95-52.89-331.94c-10.88-7.1-133.85-55.21-133.85-55.21s-10.93,54-91.28,54c-65.08,0-87.71-36.56-91.83-48.7a11,11,0,0,1-.24-5.64s-95.6,62.92-140.33,89.87S317.25,945,317.25,945a619.79,619.79,0,0,0-3.6,128.12c5.53,68.42,3.58,178.08,14,197.94l61.46-1.5s-5.6-14.35-4.65-27c2.27-30.22,5.53-104.27,15.36-135.22,4.81-15.14,10.05-36.61,14.14-54.59-3.58,34.79-21.76,150.2-10.41,175.24,0,13-1.32,43-1.32,43s68.26,22.14,145.25,21.21c137.53-1.66,258.37-26.64,258.37-26.64s-1.68-30-2.46-43.63c9.14-15.78-.82-82.08-9.89-146.45,15.78,47.16,33.42,110.92,35.34,141.84,1.64,26.39,2.89,34.36,2.89,34.36h58.1s4.48-6.67,5.3-18.89S882.81,1124.28,877.23,1043Z" fill="#262521" stroke="#262521" stroke-linecap="round" stroke-linejoin="round" stroke-width="3"/><path d="M413.91,1052.78c-2.57,25,382.39,43.42,379.54,22.72-4.07-29.55-15.11-118.18-30.54-336,2.27-128.2,55.22-142.7,38.55-153-10.88-7.1-108.56-45.64-108.56-45.64S669,610.21,577,612.12c-76.67,1.59-112-54.54-116.07-66.69,0,0-72.26,48.38-117,75.33-19.57,11.79,66.72,113.55,66.72,186.85C413.92,854.13,412.31,1059.79,413.91,1052.78Z" fill="#33322e"/><path d="M434.14,563.19c-25.12,16.54-62.82,41.07-90.21,57.57-6.12,3.69-1.89,16.17,6.82,33.82C355.1,633.51,432.11,565.18,434.14,563.19Z" fill="#fff" opacity="0.3"/><path d="M515.2,602.7a139,139,0,0,0,37.49,21.94,67.8,67.8,0,0,0,40.1,3,85,85,0,0,0,35.65-18.5,97.56,97.56,0,0,0,11.79-12c-16.21,8.38-36.94,14.45-63.24,15-30.38.63-54.25-7.8-72.27-19A129.48,129.48,0,0,0,515.2,602.7Z" fill="#fff" opacity="0.2"/><path d="M792.57,613.05c9.76-16.41,16.41-21.94,8.89-26.6-3.51-2.3-16.1-7.87-31.52-14.37C779.16,582.53,790.86,608.35,792.57,613.05Z" fill="#fff" opacity="0.2"/><path d="M752.91,565c-10.61-4.36-21.47-8.76-31-12.6.52.63,43.16,60.67,54.93,95a182.6,182.6,0,0,1,9.07-22.09C785.66,624.7,769.94,587,752.91,565Z" fill="#fff" opacity="0.3"/><path d="M806,1189c-1.52-37-9.71-92.8-12.56-113.5-3.79-27.49-13.6-106.14-27.38-292.38C744.63,773.67,622.49,728,518.2,706.4s-138.88-38.58-163.1-43.24c20.33,39.17,55.55,97.62,55.55,144.45,3.27,46.52,1.66,252.18,3.26,245.17-2.57,25-12.65,91.4-14,136.22Z" fill="#514f48"/><path d="M804.34,1218c9.14-15.78-6.82-112.89-10.89-142.45-3.06-22.25-10.08-78-19.94-197.13-21.18,22.4-122.82,114.76-370.85,270.37-3.26,34.63-4.59,67.3.84,79.28C487.28,1273.6,805.12,1231.55,804.34,1218Z" fill="#fff"/><path d="M667.61,531.24s123,48.11,133.85,55.21c6.47,4.22,12.25,16.46,17.41,33.9" fill="none" stroke="#262521" stroke-linecap="round" stroke-linejoin="round" stroke-width="3"/><path d="M327.27,651c4.23-15.21,9.68-26,16.66-30.21,44.73-27,140.33-89.87,140.33-89.87" fill="none" stroke="#262521" stroke-linecap="round" stroke-linejoin="round" stroke-width="3"/><path d="M836,1220.48s30.63-3.83,52.36,0" fill="none" stroke="#636363" stroke-linecap="round" stroke-linejoin="round"/><path d="M327.27,1238s28.63-3.83,50.37,0" fill="none" stroke="#636363" stroke-linecap="round" stroke-linejoin="round"/><path d="M410.65,807.61s5.34,199.1,3.83,238.13c-.83,21.49-23.3,155.1-11,182.28,0,13-1.32,43-1.32,43s68.26,22.14,145.25,21.21c137.53-1.66,258.37-26.64,258.37-26.64s-1.68-30-2.46-43.63c14.5-25-19.07-177.11-20.87-247.06-1.22-47.59-19.56-228.71-19.56-228.71" fill="none" stroke="#262521" stroke-linecap="round" stroke-linejoin="round" stroke-width="3"/></svg>