<svg xmlns="http://www.w3.org/2000/svg" width="1000" height="1550" viewBox="0 0 1000 1550"><path d="M533.24 530.89s-63 24.43-84.61 24.43-81.06-23.88-81.06-23.88l-97.08 65.27L456.55 844l188-270.23z" fill="#fff" stroke="#262521" stroke-linecap="round" stroke-linejoin="round" stroke-width="3"/><path d="M380.31 506.87s26.26 38.43 66.82 48.45l-69 73.32s-27.26-75.45-18.66-92.11a148.1 148.1 0 0120.84-29.66zM518.12 506.87s-15.39 39.69-67.8 48.45l69.95 73.32s30.78-73 22.18-89.66-24.33-32.11-24.33-32.11zM436.54 567.95v175.3" fill="#fff" stroke="#262521" stroke-linecap="round" stroke-linejoin="round" stroke-width="3"/><circle cx="448.72" cy="569.55" r="4.65" fill="#262521" opacity=".2"/><path d="M767.28 1236.58s-.76 25.87-3.31 26.38-54.51 3.12-56.24-.38 2.56-29.07 2.56-29.07M198 1249.69s2.21 25.79 4.79 26.16 54.59.05 56.13-3.54-4.18-28.88-4.18-28.88M675.54 1216.52l4.63 45.91s-66 19.52-179.84 24-226.51-13.77-226.51-13.77l4.64-34.94z" fill="#fff" stroke="#262521" stroke-linecap="round" stroke-miterlimit="10" stroke-width="3"/><path d="M333.83 550.78h0s.01-.04 0 0zM752.23 1043c-3.83-55.87-22.88-124.63-22.88-124.63s-14.59-306.95-52.89-331.94c-10.88-7.1-108.3-44.4-108.3-44.4s-44.25 46-124.61 46c-65.08 0-104.86-22.48-109-34.63a10.94 10.94 0 01-.75-2.59c-1 .64-70.4 43.17-114.9 70C174.2 647.71 192.25 945 192.25 945a619.79 619.79 0 00-3.6 128.12c5.53 68.42-3.55 161.42 9.95 186.94l61-1.5s-4.8-23.92-3.84-36.59c2.27-30.22 9.22-83.69 19-114.64s21.45-88.31 21.45-88.33c.49 23.68.3 42.23-1 50.33-3.6 21.92-31.66 102.78-17.78 133.07-3.34 29.28-5.68 57.36-5.68 57.36s71 11.34 148 13c151.82 3.2 264.08-24.63 264.08-24.63s-1.48-25.34-4.52-50.16c9.94-22.62-4.2-83.52-17.92-143 17.07 47.16 40.25 124.13 42.46 159.83 1.64 26.39.89 34.36.89 34.36h65.6s-.82-20.45 0-32.67-12.53-92.21-18.11-173.49z" fill="#262521" stroke="#262521" stroke-linecap="round" stroke-linejoin="round" stroke-width="3"/><path d="M282.69 769.52s79.31-97.65 96.83-180.35" fill="none" stroke="#8e8e8e" stroke-linecap="round" stroke-linejoin="round" stroke-width="3" stroke-dasharray="2 5"/><path d="M382.17 589.86l-5.09-1.64a2.67 2.67 0 00-3 1.36l-6.76 17.49-1 2.48a2.72 2.72 0 001.76 3.83l7.4 2.39a2.38 2.38 0 002.27-.56l.08-.06.14-.14a2.43 2.43 0 00.26-.29l.06-.09a3.54 3.54 0 00.19-.33 2.5 2.5 0 00.19-.52l4.74-18.14c.22-.86.45-1.72.67-2.58a2.72 2.72 0 00-1.91-3.2zM378 605.77l-1.6 4.65a1.78 1.78 0 01-2.25 1.11l-2.52-.86a1.78 1.78 0 01-1.11-2.26l1.59-4.66a1.78 1.78 0 012.26-1.1l2.52.86a1.8 1.8 0 011.11 2.26z" fill="#84837e"/><rect x="377.11" y="583.15" width="4.19" height="16.74" rx=".68" transform="rotate(18.87 379.199 591.518)" fill="#aaa9a3"/><path d="M631.93 755.9s-86.26-91.61-109.72-172.82" fill="none" stroke="#8e8e8e" stroke-linecap="round" stroke-linejoin="round" stroke-width="3" stroke-dasharray="2 5"/><path d="M517.86 587.3c.28.84.57 1.68.86 2.52q3 8.88 6 17.75a2.94 2.94 0 00.23.51 2.44 2.44 0 00.22.31l.07.09a2.29 2.29 0 00.27.27l.15.13.09.06a2.42 2.42 0 002.31.39l7.2-2.92a2.72 2.72 0 001.47-4c-.37-.8-.75-1.6-1.13-2.4q-4-8.47-8-16.95a2.66 2.66 0 00-3-1.14l-5 2a2.73 2.73 0 00-1.74 3.38zm8 9.9l2.46-1.05a1.79 1.79 0 012.33.94l1.92 4.53a1.77 1.77 0 01-.94 2.33l-2.45 1a1.78 1.78 0 01-2.33-.94l-1.85-4.48a1.78 1.78 0 01.88-2.33z" fill="#84837e"/><rect x="520.59" y="577.04" width="4.19" height="16.74" rx=".68" transform="rotate(156.95 522.685 585.413)" fill="#aaa9a3"/></svg>