<svg xmlns="http://www.w3.org/2000/svg" width="1000" height="1550" viewBox="0 0 1000 1550"><path d="M676.34 601.25C665.45 594.15 526.81 528 526.81 528s-9 42.67-63.91 47.58c-64.83 5.79-86.64-36-90.76-48.14l-87.91 73.8" fill="#fff" stroke="#262521" stroke-linecap="round" stroke-linejoin="round" stroke-width="3"/><path d="M279.44 1264.52L676 1248.13l21.74 262.23c-209.14 38.46-397.55 3.9-397.55 3.9z" fill="#262521" stroke="#262521" stroke-linecap="round" stroke-linejoin="round" stroke-width="3"/><path d="M752.23 1043c-3.83-55.87-22.88-124.63-22.88-124.63s-14.59-306.95-52.89-331.94c-10.88-7.1-142.29-56.21-142.29-56.21s-2.49 55-82.84 55c-65.08 0-82.1-39.23-86.21-51.38a10.79 10.79 0 01-.75-2.59c-1 .65-100.94 62.69-145.44 89.5C174.2 647.71 192.25 945 192.25 945a619.79 619.79 0 00-3.6 128.12c5.53 68.42-1.88 179.2 14.45 197.94l61-1.5s-5.6-14.35-4.65-27c2.27-30.22 5.53-104.27 15.36-135.22s21.45-88.31 21.45-88.33c.49 23.68.3 42.23-1 50.33-3.6 21.92-31.66 102.78-17.78 133.07-3.34 29.28-3.7 60.94-3.7 60.94S367.4 1295 444.4 1294c137.52-1.66 240.17-35.54 240.17-35.54s-2.28-35.7-5.32-60.52c9.94-22.62-4.2-83.52-17.92-143 17.07 47.16 40.25 126.63 42.46 162.33 1.64 26.39 2.89 34.36 2.89 34.36h58.1s4.48-6.67 5.3-18.89-12.27-108.46-17.85-189.74z" fill="#262521" stroke="#262521" stroke-linecap="round" stroke-linejoin="round" stroke-width="3"/><path d="M527.19 824.61S324.6 601.12 299 571.74c-28.5 17.59-59.93 36.91-80 49C174.2 647.71 192.25 945 192.25 945a619.73 619.73 0 00-3.6 128.12c3.47 42.87 1.85 102.37 4.18 145.44q5.52.12 11 .56c18.94 1.5 37.86 4 56.89 2.65 2.3-35.4 5.94-89 14-114.44 9.83-30.95 21.45-88.31 21.45-88.33.49 23.68.3 42.23-1 50.33-.69 4.16-2.25 10.46-4.25 18.13.49-.59 1-1.18 1.45-1.76 30.93-36.95 234.82-261.09 234.82-261.09z" fill="#606060"/><path d="M295.11 1000.92c.15 8.67 3.35 59.49-1.48 76.81-3.74 13.41-8.66 26.56-11 40.3l272.22-287.86L327 554.42c-22.69 14-40.33 23.82-61 37.62l193.9 234.64z" fill="#33322e"/><path d="M285.18 584.31c9-2.08 18.28-4.4 27.59-4.8 8.17-.36 16.34 1.53 24 4.3 8.66 3.15 47.47 44.44 55.31 49.34L327 554.42c-19.65 12.15-35.52 21.12-52.83 32.27 3.68-.69 7.35-1.54 11.01-2.38z" fill="#fff" opacity=".2"/><path d="M365.12 533.85a10.79 10.79 0 01-.75-2.59c-1 .65-100.94 62.69-145.44 89.5C174.2 647.71 192.25 945 192.25 945a619.79 619.79 0 00-3.6 128.12c5.53 68.42-1.88 179.2 14.45 197.94l61-1.5s-5.6-14.35-4.65-27c2.27-30.22 5.53-104.27 15.36-135.22s21.45-88.31 21.45-88.33c.49 23.68.3 42.23-1 50.33-1.8 11-9.72 36.65-15.45 63.39" fill="none" stroke="#262521" stroke-linecap="round" stroke-linejoin="round" stroke-width="3"/><path d="M273.71 1263.38S367.4 1295 444.4 1294c137.52-1.66 240.17-35.54 240.17-35.54" fill="none" stroke="#636363" stroke-linecap="round" stroke-linejoin="round"/><path d="M364.37 531.26h0s.01-.03 0 0z" fill="#262521" stroke="#262521" stroke-linecap="round" stroke-linejoin="round" stroke-width="3"/><path d="M285.65 770.51s12.19 215.25 10.68 254.28" fill="none" stroke="#262521" stroke-linecap="round" stroke-linejoin="round" stroke-width="3"/></svg>