<svg xmlns="http://www.w3.org/2000/svg" width="1000" height="1550" viewBox="0 0 1000 1550"><path d="M692 1537.08c-4-31-3.5-62.1-5.06-93.22-.87-27-4.34-53.83-6.55-80.77-13.36-.82-10.64 17.46-18.5 24.18a34.32 34.32 0 00-31.14-18.62 27.26 27.26 0 019.85 15.26c-9.18 2.3-12.12-5.09-17.56-5-4 4.22-2.79 11.88-1.31 17.08a168.23 168.23 0 00-31.33-.8c29.74 9.36 2.22 23.63-5 14.23-6.95 10.5-4.09 26.27 6.11 33.67l-33.92 4a2.1 2.1 0 01-2.76-2.16c-.44-5.33.87-13.4-5.41-15.62-4.07-.06-5.11-3.09-5.51-6.74-6.71-9.42-5.74 7.84-1.57 10.58 2.56 3 6.71 6.27 4.95 9.76-5.94 8.29-15.28-9.85-21.89-4.67a32.17 32.17 0 0010.6 10.34c-.57 4.79-9.76 6.92-7.46 11.16 1.88 3.48 7.08-.12 11 .1 7.46.39 8.53 15 16.86 13a27.22 27.22 0 01-24.87 5.53 56.2 56.2 0 0022.14 9.48A21.43 21.43 0 01538 1497c2.85 3 7.59 3 11.54 4.28s7.46 6.56 4.37 9.35l4.72-1.25q2.7 7.08 5.39 14.17a63 63 0 00-2-26.22c5.09 5.19 14.2-7.28 20-2.91 2.51 1.88 2.26 5.82.86 8.63-10.2 10.47.22 24.55-10.78 28.77a27.72 27.72 0 0010.88 9c-14.92 6.39-10.87 23.56 2.47 29.11 5.69 5.32 1.61 14.81 3 22.48 1.67 9.4 39.13 5.47 44.21-2.61 4.28 4.78 41.72 4.46 42.8-.84 1.55-10.6 9.89-17.24 18.39-8.8-.48-14.33-.7-28.73-1.85-43.08z" fill="#8c8b8b"/><path d="M693.48 1537.08c-2.86-22.56-3.42-45.32-4.11-68-.34-11.28-.73-22.57-1.31-33.84s-1.55-22.68-2.62-34c-1.2-12.71-2.52-25.41-3.57-38.13a1.54 1.54 0 00-1.5-1.5 11.31 11.31 0 00-10.83 6.06c-2.26 4-3.15 8.53-4.88 12.73a15.28 15.28 0 01-3.85 5.83l2.35.31a35.88 35.88 0 00-32.43-19.37c-1.17 0-2.15 1.71-1.06 2.56a26.33 26.33 0 019.46 14.6l1-1.85a10.94 10.94 0 01-7.33-.59c-1.86-.88-3.47-2.18-5.27-3.16a10.35 10.35 0 00-2.72-1.1c-1.43-.33-2.49-.34-3.45.88a13.55 13.55 0 00-2.58 8 33.15 33.15 0 001.43 9.84l1.45-1.9a170 170 0 00-31.33-.8 1.51 1.51 0 00-.4 3c3.69 1.17 7.83 2.59 10.68 5.34a5.92 5.92 0 011.62 2.38 2.67 2.67 0 01-.12 2 5.51 5.51 0 01-1.36 1.78 9.71 9.71 0 01-2.35 1.52 13.35 13.35 0 01-6.18 1.3 7.34 7.34 0 01-5.79-2.63 1.5 1.5 0 00-2.35.3c-7.4 11.37-4.2 27.73 6.64 35.72l.76-2.79-21.63 2.56-10.81 1.27c-.72.09-2.42.71-2.72-.23a13.45 13.45 0 01-.14-3.3c-.08-4 0-8.83-3.05-11.94a8.15 8.15 0 00-2.76-1.84c-1-.43-2.21-.21-3.16-.89a4.11 4.11 0 01-1.36-2.24c-.32-1.08-.24-2.46-.85-3.4-1.35-2.09-4.8-5.07-6.71-1.84-1.36 2.3-.81 5.8-.26 8.26a15.39 15.39 0 001.58 4.29 7.16 7.16 0 001.2 1.58c.77.73 1.48 1.49 2.21 2.28 1.23 1.32 4.18 4 2.89 6.1a2.93 2.93 0 01-2.76 1.36 10.2 10.2 0 01-4.21-2c-1.62-1.09-3.14-2.32-4.76-3.4-2.8-1.87-6.5-3.55-9.56-1.24a1.53 1.53 0 00-.54 2 34.57 34.57 0 0011.11 10.88l-.68-1.69c-.48 3.2-4.49 4.72-6.44 6.94a4.68 4.68 0 00-1.28 4.42 4.51 4.51 0 004.47 3.21c3.56 0 7.56-2.92 10.78-.37 2.43 1.92 3.76 5 5.56 7.48 2.26 3.08 5.18 5.3 9.18 4.38l-1.46-2.51a25.8 25.8 0 01-23.41 5.14c-1.72-.48-2.49 1.79-1.16 2.74a58.05 58.05 0 0022.51 9.63l-.9-2.2a20 20 0 01-14.36 8.5 1.52 1.52 0 00-1.06 2.56c3.09 3.14 7.51 3.28 11.5 4.45 2.31.68 7.14 4.4 4.41 7.06a1.51 1.51 0 001.46 2.5l4.72-1.25-1.85-1 5.4 14.17a1.5 1.5 0 002.94-.4 64.72 64.72 0 00-2-26.62l-2.5 1.46c2.83 2.76 6.55 1.58 9.68 0 1.7-.83 3.32-1.8 5-2.56a6.86 6.86 0 014.38-.79c2 .54 2.54 2.61 2.34 4.45a5.8 5.8 0 01-1.38 3.33 18.64 18.64 0 00-2.29 3.34c-2.21 4.21-2.39 8.91-2.43 13.57 0 4.19-.08 8.79-4.59 10.59a1.53 1.53 0 00-.9 2.21 29.94 29.94 0 0011.42 9.58v-2.59a16.92 16.92 0 00-9.24 8.93 15.29 15.29 0 00.17 11.27 20.87 20.87 0 008 9.63 23.48 23.48 0 002.82 1.56 5 5 0 012.26 2.71 16.74 16.74 0 01.8 7.21c-.12 2.68-.44 5.35-.42 8 0 1.77 0 3.85.91 5.44 1.22 2.14 3.71 3.23 6 3.88 6.82 2 14.52 1.36 21.43.31a54.66 54.66 0 0011.6-2.93c2.73-1.07 5.75-2.46 7.4-5l-2.35.31a8.23 8.23 0 003.63 1.92 35.15 35.15 0 005.93 1.17 98.5 98.5 0 0015.16.69 72.08 72.08 0 0014.28-1.46 14.63 14.63 0 004.44-1.58c1.82-1.12 1.82-2.53 2.31-4.5.85-3.37 2.66-7.07 6-8.65 3.47-1.67 7 .34 9.49 2.77a1.51 1.51 0 002.56-1.06c-.51-14.38-.75-28.78-1.91-43.13-.15-1.91-3.15-1.93-3 0 1.16 14.35 1.4 28.75 1.91 43.13l2.56-1.06c-2.46-2.38-5.62-4.4-9.17-4.27A10.64 10.64 0 00678 1579a20.23 20.23 0 00-4 9.61c0 .3.08-.29 0-.05s-.23.26-.05.11-.07.07-.12.1c-.32.25.18-.09-.12.1a5.82 5.82 0 01-1.46.73c-3.92 1.41-8.32 1.69-12.45 1.91a109.21 109.21 0 01-15.56-.21 46.58 46.58 0 01-7-1 19.56 19.56 0 01-2.35-.72l-.8-.42c-.14-.07-.4-.26-.12-.06a2.35 2.35 0 01-.33-.3 1.52 1.52 0 00-2.36.3 2.82 2.82 0 01-.21.31c.18-.22 0 0 0 0a5.79 5.79 0 01-.48.51 6.53 6.53 0 01-1.16.91 19.1 19.1 0 01-3.26 1.71 47.79 47.79 0 01-9.38 2.66c-6.55 1.25-13.7 1.9-20.31.68a18.75 18.75 0 01-3.68-1 7.8 7.8 0 01-2.27-1.42 1.86 1.86 0 01-.56-.82c.15.32-.07-.21-.09-.32a9.77 9.77 0 01-.2-1.41 47.77 47.77 0 01.16-7.47c.33-4.59.63-9.7-2.45-13.5-1.38-1.71-3.72-2.34-5.5-3.62a17.73 17.73 0 01-3.93-3.9 14 14 0 01-2.77-11c1-4.47 4.47-7.43 8.51-9.2a1.51 1.51 0 000-2.59 26.83 26.83 0 01-10.35-8.51l-.89 2.21a9.92 9.92 0 005.19-4.17 13.85 13.85 0 001.5-5.89c.33-4.7-.27-9.46 1.44-14a15.08 15.08 0 011.81-3.35c.45-.63 1-1.16 1.5-1.77a6.79 6.79 0 00.9-1.88 8.86 8.86 0 00-.46-7.43c-2.57-4-7.35-2.9-10.93-1.18-2 1-3.86 2.15-5.92 2.93-1.54.58-3.19 1-4.47-.28a1.51 1.51 0 00-2.51 1.46 62.73 62.73 0 011.92 25.82l3-.4-5.4-14.17a1.53 1.53 0 00-1.84-1l-4.72 1.25 1.46 2.51c3.5-3.41.63-8.39-2.67-10.68-4-2.75-9.74-1.52-13.24-5.07l-1.02 2.47a23.24 23.24 0 0017-9.94 1.51 1.51 0 00-.9-2.2 56 56 0 01-21.78-9.33l-1.16 2.74a28.89 28.89 0 0026.33-5.91c1.21-1-.1-2.82-1.46-2.51-2.69.62-4.54-1.24-6-3.28-1.75-2.45-3.13-5.26-5.34-7.36-2.77-2.64-5.94-2.64-9.5-1.73-1.25.33-4 1.49-5.09.4-.88-.84-.28-1.71.43-2.45 2.39-2.47 6.35-4.17 6.91-8a1.57 1.57 0 00-.69-1.69 31 31 0 01-10-9.8l-.54 2c2.28-1.71 4.92.11 7.11 1.63 2.61 1.82 5.13 4.14 8.23 5.11s7.19-.81 7.66-4.43c.33-2.6-1.33-4.84-2.95-6.69a35.63 35.63 0 00-2.81-3.07 4.41 4.41 0 01-1-1 14.36 14.36 0 01-1.86-7.94 5.44 5.44 0 01.22-1.53c.11-.38 0 0 .14-.35s-.37 0-.4.06.2.06.34.16a6.64 6.64 0 011.58 1.66s-.15-.85 0 .15c.07.34.1.69.15 1 .09.5.2 1 .34 1.5a8.31 8.31 0 001.48 2.9 5.88 5.88 0 002.63 1.78c1.12.38 2.18.26 3.19 1 3.3 2.28 2.86 7.55 2.94 11 .06 2.43 0 5.6 3 6.15 1.63.29 3.64-.29 5.27-.49l5.9-.69 24.09-2.85a1.52 1.52 0 00.76-2.8c-9.58-7.06-12-21.72-5.57-31.62l-2.36.31c3.49 4.45 10.34 4.13 15 2.07a10.51 10.51 0 005.35-4.61 6.43 6.43 0 00-1-7c-3.07-3.88-8.44-5.75-13-7.2l-.4 3a170 170 0 0131.33.8 1.5 1.5 0 001.44-1.89c-1.33-4.75-2.74-11.55.93-15.63l-1.06.44c2.71 0 4.94 2.19 7.17 3.46a14.37 14.37 0 0010.79 1.49 1.52 1.52 0 001-1.84 29 29 0 00-10.24-15.92l-1.06 2.56a32.91 32.91 0 0130.03 17.88 1.52 1.52 0 002.36.3c3.28-2.87 4.75-7.22 6.09-11.24 1.22-3.64 2.27-8 5.22-10.67a8.12 8.12 0 016.13-1.83l-1.5-1.5c1.86 22.65 4.61 45.23 6 67.93s1.53 45.27 2.57 67.89c.58 12.76 1.47 25.5 3.08 38.17.2 1.95 3.2 1.95 2.96.03z" fill="#8c8b8b"/><path d="M693.35 1563.47c-.37-22.6-3.55-45.12-5.13-72.32.54-39.38-4.12-78.45-7.23-117.65-9.64-1.19-7.84 13-9.69 19.32-.53 13.24-13.13 19.44-18.57 4.72-6.28-14.79-18.67-5.8-15.42 7.11-5.27-.85-11.07-3.47-16.34-2.22-4.62 4.61-.11 13.22 3 17.75-5.77-4.29-17-7.7-20.31.87-1.35 4.46 1.58 10.87-2.53 13-3.4 1.79-9.11-1.51-10.72 2-.66 7.84 10.67 11.89 11.44 19.47 2 15.75-23 60.94-9.34 70.43 7.53 2.86 12.48 4.91 10.93 14.29l2.77.84c-2.91 14.23-7.82 28.8-7.16 43.39 7.8 21.79 26.42-6.57 32.69-15.7 7.14 6.94 14.07 25.41 25.31 23.71 10.7-6.57 7.48-27.5 5.56-38.27 10.75 1.42 20.39 6.22 30.74 9.26z" fill="#a8a8a8"/><path d="M694.85 1563.47c-.39-23-3.43-45.76-4.91-68.64-.41-6.5-.15-13-.27-19.55s-.36-12.87-.68-19.3c-.65-13-1.64-25.87-2.74-38.78-1.23-14.57-2.6-29.12-3.76-43.7a1.57 1.57 0 00-1.5-1.5 7.51 7.51 0 00-7.15 3 17.1 17.1 0 00-2.54 7.46c-.42 2.78-.56 5.61-1.07 8.38-.57 3-.7 6.09-2.15 8.85-1.14 2.17-3 4.31-5.53 4.78s-4.63-1.06-6.06-2.94a25.1 25.1 0 01-2.63-5.13 18 18 0 00-3.16-5 8.43 8.43 0 00-7.46-3c-7.35 1.18-8.8 10.66-7.37 16.55l1.84-1.84c-3.81-.65-7.48-2-11.33-2.44a15.55 15.55 0 00-5.4.14c-1.51.34-2.4 2-2.91 3.35-2.13 5.57 1.55 12.19 4.59 16.69l2.05-2c-4.45-3.28-11.28-6-16.8-4a9.19 9.19 0 00-5.89 6.53 20.58 20.58 0 00-.18 5.08 13.12 13.12 0 01-.19 4.76c-1 3.06-5.38 1.67-7.73 1.65a5.49 5.49 0 00-4 1.29c-1.24 1.22-1.17 2.86-.85 4.46 1.23 6.1 7.66 9.12 10.42 14.34 1.94 3.68.73 8.68-.13 12.51-1.22 5.51-3 10.91-4.65 16.3-1.81 5.78-3.67 11.55-5.2 17.42a66.77 66.77 0 00-2.62 15.74c-.06 3.89.56 8.22 3.4 11.12 1.9 1.94 4.87 2.41 7.22 3.67s4 2.79 4.52 5.34a13.35 13.35 0 010 4.8 1.54 1.54 0 001 1.84l2.77.84-1-1.85c-1.91 9.32-4.58 18.48-6.09 27.88a81.48 81.48 0 00-1.18 14 8.49 8.49 0 00.4 3.06c.29.74.6 1.47 1 2.18a14.77 14.77 0 002.16 3.26c7.31 8.33 17.76-2.87 22.44-8.49 3.46-4.16 6.53-8.61 9.58-13.07l-2.35.31c3.69 3.64 6.25 8.35 9.24 12.55s6.45 8.81 11.37 10.83c2 .83 5.15 1.53 7.07.2a15.07 15.07 0 004.81-5.55c2.52-4.89 3-10.67 2.93-16.09a113 113 0 00-2-18l-1.45 1.9c10.54 1.41 20.23 6.17 30.35 9.18 1.85.55 2.64-2.35.79-2.9-10.4-3.09-20.29-7.83-31.14-9.28-1.05-.15-1.59 1.06-1.44 1.9A120.91 120.91 0 01663 1569c.28 5.09.19 10.41-1.5 15.27a14.16 14.16 0 01-3.36 5.54 3.37 3.37 0 01-2.49 1.36 8.75 8.75 0 01-2.87-.5c-4.4-1.54-7.59-6-10.18-9.6-3.17-4.44-5.89-9.43-9.8-13.28a1.53 1.53 0 00-2.36.3c-2.4 3.5-4.78 7-7.4 10.34-2.92 3.72-6.11 7.53-10 10.27a12.44 12.44 0 01-5 2.34 4.93 4.93 0 01-3.92-1 10.75 10.75 0 01-3.57-5.92 32.28 32.28 0 01.1-6.59c.15-2.22.39-4.44.71-6.64 1.46-9.89 4.3-19.51 6.31-29.29a1.52 1.52 0 00-1-1.84l-2.76-.84 1 1.84c.49-3.08.6-6.38-1-9.17a13 13 0 00-6.06-5c-1.4-.66-2.87-1.14-4.28-1.77a4.75 4.75 0 01-1.66-1.44 10.38 10.38 0 01-1.75-4.57c-.72-4.39.13-9.22 1-13.57 1.23-5.76 2.94-11.4 4.69-17s3.55-11.07 5.09-16.68c1.22-4.42 2.42-9 2.5-13.64a12.75 12.75 0 00-1.63-6.87c-1.53-2.62-3.82-4.7-5.88-6.89-1.78-1.87-3.79-4.08-4-6.78a3.86 3.86 0 010-1c-.1.49 0 0 .23-.12a3.51 3.51 0 011.67-.35c1.56 0 3.11.31 4.68.28 3.27-.06 5.82-1.9 6.32-5.22a25.69 25.69 0 000-5 11.07 11.07 0 01.39-4.76c2.45-5.87 10.1-4.09 14.51-1.88a23.94 23.94 0 013.49 2.13c1.21.89 2.87-.85 2-2.06a33.44 33.44 0 01-3.55-6.48c-.87-2.21-1.63-4.8-1-7.17a5.28 5.28 0 01.64-1.46c.41-.63.48-.57 1.25-.65a16.8 16.8 0 014.64.24c3.26.57 6.4 1.64 9.67 2.19a1.51 1.51 0 001.84-1.84 13.5 13.5 0 01.58-8.91c.89-1.88 2.51-3.74 4.7-3.94 2.62-.24 4.67 2 5.92 4 2 3.19 2.76 6.89 5.6 9.54 4.15 3.89 10 3 13.44-1.26a17.37 17.37 0 003.58-8.5c.38-2.7.85-5.38 1.15-8.09.32-2.92.54-6 1.67-8.75A4.92 4.92 0 01681 1375l-1.5-1.5c2.06 25.93 4.79 51.81 6.25 77.78.73 12.94 1.14 25.91 1 38.88 0 3.15.32 6.34.54 9.49s.46 6.1.71 9.14c.48 5.89 1 11.77 1.53 17.65 1.09 12.32 2.13 24.66 2.34 37 .01 1.96 3.01 1.96 2.98.03z" fill="#a8a8a8"/><path d="M540.82 1422.1c-1 5.87 3.45 10.2 8.31 12.46-2-4.64-6.3-7.87-8.31-12.46z" fill="#c6abab"/><path d="M539.37 1421.7a11.23 11.23 0 002.06 8.67 18.26 18.26 0 006.94 5.49 1.51 1.51 0 002-2c-2-4.63-6.25-7.85-8.31-12.46a1.51 1.51 0 00-2.05-.54 1.54 1.54 0 00-.54 2c2.06 4.61 6.28 7.83 8.31 12.46l2.06-2a15.85 15.85 0 01-5.83-4.36 8.2 8.2 0 01-1.8-6.41 1.53 1.53 0 00-1-1.84 1.51 1.51 0 00-1.84.99zM536 1426.62a9.91 9.91 0 00-4.81-1.76 35.06 35.06 0 004.81 1.76z" fill="#c6abab"/><path d="M536.8 1425.32a11.64 11.64 0 00-5.57-2 1.35 1.35 0 00-.91.32 1.43 1.43 0 00-.54.78 1.8 1.8 0 000 .8 1.49 1.49 0 00.69.9 36.81 36.81 0 005.17 1.9 1.5 1.5 0 10.8-2.89 35 35 0 01-4.1-1.44l.36.15-.72-.31-.75 2.79.5.05-.4-.05a10.15 10.15 0 012.48.69l-.35-.15a11.12 11.12 0 011.82 1 1.52 1.52 0 002.06-.54 1.54 1.54 0 00-.54-2zM544.69 1483.66a30.58 30.58 0 008.65.26c-2.5-2.13-6.43-2.73-8.65-.26z" fill="#c6abab"/><path d="M544.29 1485.11a32.66 32.66 0 009.05.31 1.51 1.51 0 001.06-2.56 9.58 9.58 0 00-5.49-2.3 6.6 6.6 0 00-5.28 2 1.5 1.5 0 002.12 2.12 5.66 5.66 0 01.43-.42c.12-.11.07-.06 0 0l.24-.16a3.3 3.3 0 01.45-.26s.33-.15.13-.07h.08c.18 0 .36-.11.55-.15l.22-.05c.2 0 .16-.07 0 0a3.12 3.12 0 011.1 0h.23c.19 0-.28 0 0 0l.52.11a7.7 7.7 0 011.09.35c-.3-.12.14.08.25.13s.32.17.48.27a5.54 5.54 0 01.51.33l.2.14c-.28-.2 0 0 .08.07l1.06-2.56a31.81 31.81 0 01-4.25.18c-.7 0-1.39-.06-2.09-.13a17.53 17.53 0 01-1.91-.26 1.55 1.55 0 00-1.85 1 1.53 1.53 0 001.02 1.91z" fill="#c6abab"/><path d="M687 1445.29c-1-4.9 1.5-22.83-7.5-28.8a59.18 59.18 0 005.65-3.18c-.54-11.67-2.16-23.2-3.64-34.8-8.74-6.34-4.2 16.84-12.14 20.44-10.32 8.2-32.1-7.4-38.61 7.73-.65 2-.65 4.43-2.29 5.72-7.94 1.83-10.09 4.2-11.71 14.37-9.13-2.14-19.48-10.93-28.2-5.86 8.94 7.68 14.37 33.47-1.8 34.06-3.77-.72-6.32-4.45-10-5.49-9.14-1.63-22.13 11.53-26.09-4.71-.28-3.54 1.43-7.88-1.55-10.21 4.06 8.1-3.34 14.51-11.5 11.32a10.18 10.18 0 014.14 5.78 9.58 9.58 0 00-9.4 7.71c7.9.16 16.64-2.87 24.18-.25 6.84 4.19.63 17.49 7.45 21.7a30.8 30.8 0 01-10.66 3.1c5.94 5-.63 13.74-7.36 13.36a10.32 10.32 0 019.21 11.18 8.9 8.9 0 014.86 6.84c.37-4.78-6-20 .14-20.85 13.25-3.85 40.19-11.18 46.45 4.58-4.25 13-42 30.66-20.2 43.72 4.06 4.08-2.92 10.67-1.88 16.33.94 5.09 8.05 6.56 12.68 4.24 16.18-11.91 12.25-19.39 31.6-3.68 10.85 7.42 13.52-1.23 23.39-1.42 11.95-4.36-.6-21.07 5.2-28.8 18.81-13.25-.22-17.53 3.44-32.17 2-4 7-5.19 10.87-7.49 18.7-14.11.62-25.3 4.64-36.2 2.16-4 7.77-4.87 10.63-8.27z" fill="#c6abab"/><path d="M688.47 1444.89a4.8 4.8 0 01-.12-.9c0-.49-.06-1-.08-1.47 0-1.13 0-2.26-.08-3.39a84.36 84.36 0 00-.49-8.56c-.71-5.76-2.36-11.93-7.42-15.37v2.59q2.91-1.45 5.65-3.18a1.51 1.51 0 00.74-1.3c-.38-7.88-1.22-15.72-2.2-23.54-.24-2-.49-3.91-.75-5.87-.1-.82-.21-1.63-.31-2.45a17.66 17.66 0 00-.44-3.34c-.48-1.36-2.83-2.25-4.19-2.19-3 .14-4 3.49-4.52 5.88-.8 3.5-1.11 7.11-2.12 10.57a11.47 11.47 0 01-1.88 4 10.91 10.91 0 01-3.89 2.62c-3.69 1.55-8.06 1-11.91.51-7.87-1-18.38-3.68-23.75 4.14a11.13 11.13 0 00-1.66 3.64c-.19.81-.32 1.64-.59 2.43a3.71 3.71 0 01-.39.89c-.07.11-.6.56-.29.4a11.51 11.51 0 01-2 .51c-.57.18-1.15.37-1.71.58a14 14 0 00-2.76 1.38c-4.24 2.86-5.26 8.15-6 12.87l1.84-1c-9.38-2.28-19.51-11.23-29.35-5.71a1.5 1.5 0 00-.3 2.35c4.07 3.56 6.33 9.13 7.46 14.3 1 4.59 1.45 10.89-2 14.62-1.48 1.6-4.43 3.12-6.64 2.41-3.91-1.25-6.31-5.2-10.67-5.45-5.84-.33-11 3.5-16.71 3.63-3.23.07-5.15-2-6.18-5a8.54 8.54 0 01-.59-3.45c.06-1.18.21-2.34.24-3.51.07-2.28-.41-4.53-2.22-6.06a1.51 1.51 0 00-2.36 1.82c1.32 2.73 1.37 6-1 8.17s-5.9 2-8.77.94c-1.7-.64-2.45 1.82-1.16 2.74a8.93 8.93 0 013.46 4.89l1.44-1.9a11.15 11.15 0 00-10.85 8.81 1.52 1.52 0 001.45 1.9c4.1.06 8.15-.64 12.22-1a44.54 44.54 0 016.11-.25c1.64.08 4.16.13 5.53 1.14 1.82 1.34 2.21 4 2.39 6.08.22 2.71.14 5.44.52 8.14.42 2.89 1.57 5.55 4.1 7.18v-2.59a29.81 29.81 0 01-9.9 2.9c-1.17.14-2.14 1.62-1.06 2.56 4.93 4.36-1.08 11-6.3 10.8-2-.07-1.9 2.85 0 3 4.73.39 8.22 5.08 7.71 9.68a1.47 1.47 0 00.74 1.29 7.72 7.72 0 014.18 5.94c.25 1.76 2.85 1.19 2.94-.39.16-2.57-.67-5.26-1.22-7.74A38.7 38.7 0 01559 1499a5.29 5.29 0 01.54-2.54 1 1 0 01.7-.45c.62-.19 1.27-.33 1.89-.51 2.8-.8 5.62-1.56 8.46-2.23 6.39-1.5 13-2.67 19.62-2.3 5.4.3 11.26 1.92 14.17 6.87.18.3.34.6.49.91.07.13.12.38.23.47s.1-.32 0-.3a7.83 7.83 0 00-.52 1.14 19.58 19.58 0 01-1.81 2.79 55.62 55.62 0 01-5.22 5.64c-4.19 4.07-8.67 7.86-12.61 12.18-3.15 3.47-6.61 7.76-6.73 12.67a9.87 9.87 0 002.08 6.17 15.94 15.94 0 003 3c1.1.85 2.57 1.38 2.83 2.89s-.42 3.08-.93 4.44a49.75 49.75 0 00-1.84 5c-.93 3.48-.33 7 2.69 9.22a11.71 11.71 0 009.59 1.5 13.27 13.27 0 005-3c1.44-1.16 2.84-2.38 4.19-3.64 1.88-1.74 3.63-3.67 5.65-5.25a9.25 9.25 0 012-1.17 4.05 4.05 0 012-.2c2.54.42 4.86 2.13 6.91 3.58 3.75 2.66 7 6.09 11.47 7.63a12.26 12.26 0 008.93-.48c2.86-1.18 5.55-2.73 8.66-3.15a10.6 10.6 0 002.64-.39 10.28 10.28 0 002.21-1.2 8.29 8.29 0 002.64-3.06 14.55 14.55 0 00.88-8.23c-.37-3-1.1-6-1.44-9.08-.24-2.16-.61-5.79 1.12-7.52.44-.44 1.68-1.18 2.37-1.74a27.34 27.34 0 002.46-2.23 15.84 15.84 0 002.83-3.78 9.83 9.83 0 00.73-7.18c-1.31-4.84-4.93-8.74-5.09-14 0-1.54 0-3.36 1-4.63a12.5 12.5 0 014.58-3.27 38.75 38.75 0 005.26-2.67 26.74 26.74 0 005.13-4.78 16.59 16.59 0 004-9.6 22.63 22.63 0 00-1.52-8.6c-1.52-4.39-5.55-11.64-1.1-15.51 2.72-2.37 6.4-3.3 8.84-6.07 1.27-1.44-.84-3.57-2.12-2.12-2.47 2.81-6.36 3.75-9.08 6.28-2.37 2.21-2.87 5.28-2.47 8.38.76 5.71 4.38 10.75 4.47 16.58a13.19 13.19 0 01-3.41 8.82 20 20 0 01-5.39 4.69c-1.77.94-3.64 1.69-5.4 2.66a13 13 0 00-4.41 3.7 8.94 8.94 0 00-1.36 4.93 18.5 18.5 0 001.72 8.32c1.68 3.87 5.19 8.2 3 12.51a14 14 0 01-2.84 3.65c-.73.71-1.51 1.38-2.3 2a10.73 10.73 0 00-2.65 2.27c-1.56 2.39-1.71 5.43-1.47 8.19.27 3 1 6 1.42 9.07.35 2.45.7 5.4-.53 7.68a5.91 5.91 0 01-2.75 2.5 7.49 7.49 0 01-2.32.41 18.3 18.3 0 00-2.65.54c-2.86.82-5.39 2.47-8.24 3.32-3.5 1-7-.33-9.82-2.47-3.25-2.46-6.32-5.18-9.88-7.19a11.12 11.12 0 00-6.36-1.83 9.92 9.92 0 00-5.41 2.74c-2.07 1.77-3.94 3.76-6 5.58a72.29 72.29 0 01-4.48 3.75 7.78 7.78 0 01-4.82 1.57c-2.86 0-6.35-1.28-6.64-4.54-.3-3.46 2-6.71 2.89-9.95a7.58 7.58 0 00-.05-4.71c-.7-1.76-2.09-2.43-3.52-3.51a9.71 9.71 0 01-3.89-5.19c-1-4 2.28-8.38 4.94-11.42 3.84-4.39 8.31-8.19 12.52-12.21a67.72 67.72 0 005.55-5.82 18.9 18.9 0 003.57-5.8c.45-1.37-.72-3.09-1.48-4.21a14.52 14.52 0 00-2.86-3.15 19 19 0 00-7.67-3.66c-6.37-1.53-13.15-.86-19.54.24-3.2.55-6.37 1.27-9.52 2.08-2.59.66-5.29 1.25-7.81 2.14s-3.1 3.54-3.11 5.88a42.52 42.52 0 001.38 9c.52 2.31 1.33 4.81 1.18 7.21l3-.4a10.48 10.48 0 00-5.55-7.74l.74 1.3c.7-6.33-4.48-12.17-10.71-12.68v3c7.77.28 15.35-9.79 8.42-15.92l-1.06 2.56a34 34 0 0011.42-3.31 1.52 1.52 0 000-2.59c-2-1.32-2.58-3.83-2.79-6.1-.26-2.74-.15-5.5-.53-8.22s-1.23-5.14-3.34-6.81c-1.45-1.15-3.48-1.41-5.27-1.63a31.24 31.24 0 00-6-.12c-4.82.31-9.58 1.29-14.42 1.23l1.44 1.9a8.15 8.15 0 018-6.61 1.51 1.51 0 001.45-1.9 12.21 12.21 0 00-4.84-6.68l-1.15 2.74c4 1.49 8.74 1.17 11.89-1.91s3.16-7.76 1.3-11.6l-2.35 1.81c1.7 1.44 1.39 3.67 1.23 5.68a23.57 23.57 0 00-.14 3.14 11.29 11.29 0 00.94 3.5c1.18 3 3.25 5.65 6.54 6.33 6.17 1.27 11.82-3.14 17.87-3.42 4.23-.19 6.93 3.84 10.67 5.23 2.91 1.07 6.65-.3 9-2.18 4.63-3.78 5-10.6 4.17-16.05-.92-6.42-3.66-13.64-8.66-18l-.3 2.36c4.26-2.39 9-1.1 13.32.58 4.57 1.8 8.92 4.26 13.72 5.43a1.51 1.51 0 001.84-1c.53-3.29 1-7.38 3.38-10a8.72 8.72 0 013.31-2.19c1.62-.65 3.93-.7 5.13-2 1.59-1.78 1.4-4.18 2.35-6.23a9.17 9.17 0 013-3.68c2.6-1.82 5.94-1.95 9-1.78 7 .38 14.35 2.94 21.32 1.1a14.71 14.71 0 004.26-2 10.63 10.63 0 002.94-2.54c1.66-2.28 2.36-5.2 2.9-7.92.61-3 .87-6.19 1.84-9.14a5.32 5.32 0 01.59-1.33c.18-.31.19-.4.56-.55-.44.18.46-.09 0 0a1 1 0 01.3 0h.18a6 6 0 011.51.84l-.74-1.3c1.48 11.57 3.08 23.14 3.64 34.8l.74-1.29q-2.74 1.73-5.64 3.18a1.51 1.51 0 000 2.59c4.46 3 5.61 9.21 6.08 14.23.25 2.61.31 5.23.36 7.85a34.34 34.34 0 00.36 5.82c.34 1.95 3.24 1.15 2.88-.74z" fill="#c6abab"/><path d="M592.45 1544.16a9.23 9.23 0 004.9 3.58 10.49 10.49 0 005.77-.21 20.31 20.31 0 009.66-6.8 1.54 1.54 0 000-2.12 1.52 1.52 0 00-2.12 0c-3.23 4.06-11.27 9.82-15.62 4a1.54 1.54 0 00-2-.54 1.52 1.52 0 00-.54 2.05zM611 1448.47c-8.48.29-19 3.11-23.58 11a10.06 10.06 0 00-1.27 2.89 6.15 6.15 0 00.48 3 15 15 0 003 4.87 30.42 30.42 0 0010.62 7.24c4.11 1.79 8.7 3.24 13.23 3.06l-.75-2.79c-4.32 2.13-9 6-8 11.36.8 4.39 5.16 7.26 9.17 8.39a19.67 19.67 0 009.09.26c1.9-.37 1.1-3.26-.79-2.89-4.56.89-10.56 0-13.49-4-3.38-4.62 1.73-8.6 5.57-10.49a1.51 1.51 0 00-.76-2.8 26 26 0 01-10-2 32 32 0 01-9.85-5.63 15.81 15.81 0 01-3.36-3.89 9.14 9.14 0 01-.87-1.94 2.47 2.47 0 01.21-2.24c1.7-3.53 5-5.89 8.47-7.47a34.35 34.35 0 0112.95-2.85c1.92-.07 1.93-3.07 0-3zM620.15 1517.4c2.3 7.89 8.71 14.62 16.19 17.89 3 1.33 6.47 2.23 9.81 1.56a7.84 7.84 0 006.07-5.76c1.42-5.23-.81-11.07-2.83-15.81l-1.7 2.2c3.19.88 7.22 1.57 10-.62s2.83-6.44 2.31-9.78c-.29-1.91-3.19-1.1-2.89.79.32 2.07.64 5.26-1.33 6.69s-5.19.62-7.34 0a1.52 1.52 0 00-1.7 2.2c1.61 3.76 3.35 8.5 2.75 12.52a12 12 0 01-.44 1.72 5.77 5.77 0 01-.81 1.35 4.51 4.51 0 01-2.46 1.47 9.17 9.17 0 01-3.58.13 19.77 19.77 0 01-4.23-1.21 27.31 27.31 0 01-8.44-5.67 24.27 24.27 0 01-6.54-10.5 1.5 1.5 0 00-2.89.8zM640.71 1426.1c.39-2.86-.13-5.69-.14-8.55a8.24 8.24 0 01.56-3.58 3.78 3.78 0 012.72-1.9 6.89 6.89 0 013.39-.46 2.4 2.4 0 011.56 1.27c1.1 1.88 1.13 4.4 1.17 6.53.06 2.63-.16 5.3.11 7.93.13 1.3 2.11 2.26 2.79.75 2.58-5.69 7.61-11.72 14.36-11.72a7.45 7.45 0 015.82 2.5c1.53 1.79 1.92 4.54 1.59 7-.68 4.94-3.59 9.5-6.61 13.34-1.18 1.5.93 3.64 2.12 2.12 3.2-4.08 6.21-8.69 7.24-13.86.64-3.22.5-6.79-1.37-9.6-3.69-5.58-11.24-5.36-16.49-2.25a24 24 0 00-9.25 11l2.8.76c-.27-2.63-.05-5.3-.11-7.93s-.2-5.68-1.58-8.05-4.12-3.2-6.83-2.6c-3.34.73-6 2.25-6.75 5.83s.5 7.16 0 10.71a1.55 1.55 0 001 1.85 1.52 1.52 0 001.85-1.05zM559.1 1488.58a42.4 42.4 0 0116.66-3.76c5.66-.15 11.51.74 16.47 3.6a1.5 1.5 0 001.52-2.59c-5.41-3.12-11.81-4.17-18-4a46.14 46.14 0 00-18.17 4.17c-1.75.82-.23 3.4 1.51 2.59zM562.93 1461.09c3.77-6.27 13.8-6.74 18.26-1a1.5 1.5 0 002.12 0 1.53 1.53 0 000-2.12c-5.68-7.27-18.3-6.12-23 1.65a1.5 1.5 0 002.59 1.51zM544.53 1448.26v-.13a1.8 1.8 0 010 .22v1.44c0 .65-.06 1.31 0 2a5.33 5.33 0 001.47 4 4.61 4.61 0 002.31 1c.69.11 1.37.25 2.06.35 1.23.19 2.8.45 3.77-.55 1.45-1.49 0-3.77-.87-5.14a1.5 1.5 0 10-2.59 1.51c.24.37.47.75.68 1.14.07.14.15.28.22.43l.09.2c.05.1-.13-.37 0 0 0 .11.07.21.1.32a1 1 0 000 .17c-.19-.5 0-.36 0-.24v-.12c-.08.31.21-.37 0-.12a.9.9 0 01.35-.35c-.25.16.3-.08.15-.06l-.22.05c.32-.14.4 0 .2 0h-.15a4.72 4.72 0 01-.65 0h-.38c-.13 0 .42.06.18 0h-.31c-.6-.09-1.21-.21-1.81-.31-.33-.06-.64-.12-1-.21s.12 0 .14.06a1.36 1.36 0 00-.21-.1l-.15-.1c-.28-.16.23.23 0 .05a1.88 1.88 0 00-.24-.25c.26.18.18.26.08.09l-.07-.12s-.06-.12-.1-.18c-.14-.22.11.32.06.14s-.1-.27-.14-.4-.06-.26-.08-.4c-.07-.39 0 .36 0 0a8.44 8.44 0 010-.87 31.94 31.94 0 00-.07-4.15 1.5 1.5 0 00-1.85-1 1.55 1.55 0 00-1.05 1.84zM568.87 1465a6.51 6.51 0 00-2.72 6.92 1.51 1.51 0 001.85 1 1.53 1.53 0 001-1.84 3.06 3.06 0 01-.1-.51v.39a5.31 5.31 0 010-1.26v.4a6.11 6.11 0 01.22-.94 1.36 1.36 0 01.11-.28l-.1.22.07-.14c.07-.14.14-.29.22-.42s.19-.27.27-.41c-.21.36-.13.18 0 .07l.18-.19a3.76 3.76 0 01.35-.34l.11-.09-.19.14a1.38 1.38 0 01.25-.17 1.5 1.5 0 10-1.52-2.59zM607.41 1508.33c-7.5 3.87-15.73 17.27-7.38 24.19 1.48 1.22 3.61-.89 2.12-2.12-3.24-2.69-3-6.86-1.35-10.42a19 19 0 018.12-9.06c1.72-.88.2-3.47-1.51-2.59zM615.44 1432.19c-2.75-2.1-4.9-4.89-7.63-7a14.74 14.74 0 00-4.58-2.55 12.16 12.16 0 00-5.87-.28c-1.36.24-1.35 2.1-.36 2.74a18.31 18.31 0 014.35 4 1.52 1.52 0 002.13 0 1.55 1.55 0 000-2.12 21.07 21.07 0 00-5-4.45l-.36 2.75c3.18-.56 6 .68 8.35 2.72 2.56 2.18 4.74 4.77 7.42 6.82a1.51 1.51 0 002.05-.54 1.53 1.53 0 00-.53-2z" fill="#bf9595"/><path d="M570.54 1265.18c-6 5.34-4.29 16.78 3 20.13 3.81 1.74 17.05-4.13 19.6-.81 1.77 2.29-6.58 11.43-7.75 14.06-4.08 8.86-16.21 9.49-22 16.74-12 23.4 28 16.53 29-2.66 2.63-15.44 22.13-1.45 6.43 14.22 6.48.56 15.16 8.93 7.2 13.44 6.82 8.1 20.61.8 17.73-9.39-.55-2.05-1.73-4-1.53-6.11a168.23 168.23 0 0119.68-30c4.64-3.31 11.63-.22 14.29 4.82 6.38 8.73-6.73 27.55 8.87 29.05 23.93.24 9.08-64.75 10-72.53-.86-1-75.47 3.77-109.35 12.71" fill="#8c8b8b"/><path d="M569.48 1264.12c-5.61 5.14-5.25 14.81 0 20.1a9.91 9.91 0 004.21 2.71 10.86 10.86 0 004 0c3.4-.44 6.71-1.41 10.1-1.86a8.23 8.23 0 013.86.07c-.16-.06.42.24.3.18.23.12-.23-.18 0 0-.14-.09 0 .07 0 0a5.79 5.79 0 01-.25.93c-1.11 3-3.42 5.57-5.26 8.08a27.13 27.13 0 00-2.16 3.16 15.64 15.64 0 01-2.94 4.18c-2.78 2.67-6.44 4.23-9.83 6a42.06 42.06 0 00-5 2.88 15.17 15.17 0 00-4.33 4 17.15 17.15 0 00-2.44 8.19c-.08 4.38 2.85 7.59 7 8.53 4.72 1 9.78-.13 14.12-2.06 4.64-2.07 9-5.52 11.36-10.13a16.68 16.68 0 001.34-3.61c.33-1.46.35-3 .81-4.38a6.1 6.1 0 011.86-3 3 3 0 012.33-.63 5 5 0 012.32 1.09 7.19 7.19 0 011.87 2.56c1.27 2.92.66 6.31-.73 9.06a22.48 22.48 0 01-4.2 5.63 1.52 1.52 0 001.06 2.56 11.78 11.78 0 017.58 4.31 5 5 0 011.3 3.3 4.2 4.2 0 01-2.44 3 1.51 1.51 0 00-.3 2.35 11.69 11.69 0 0015.64 1.58 11.82 11.82 0 004.73-6.75 11.23 11.23 0 00.13-4.51c-.34-2-1.72-4-1.75-6a6.52 6.52 0 011.16-2.73c.58-1.09 1.17-2.17 1.77-3.25q1.78-3.17 3.72-6.25c2.59-4.12 5.37-8.13 8.29-12 .76-1 1.53-2 2.31-3a11.91 11.91 0 012.24-2.64 6.29 6.29 0 014.48-.69c3.45.62 5.73 3 7.52 5.78 2.6 4.1 1.13 9.94.63 14.42s-.85 10 3.32 13a11.55 11.55 0 0012.17.28c3.08-1.83 5-5 6.23-8.24a45.25 45.25 0 002.48-12.78 117.21 117.21 0 000-15.11c-.49-9.32-1.73-18.57-2.84-27.83a50.8 50.8 0 01-.68-7.88c.08-2.52-2.23-2.22-4.05-2.2-8.08.12-16.17.79-24.22 1.42q-19.11 1.5-38.14 3.78c-12.53 1.53-25.07 3.27-37.4 5.93q-3.72.8-7.4 1.75a1.5 1.5 0 00.79 2.9c16.67-4.38 34-6.48 51.08-8.4 15.78-1.78 31.63-3.21 47.49-4.06 2.44-.14 4.88-.26 7.33-.31h2.69c.2 0-.38-.11-.17 0s-.51-.33-.52-.34l-.44-1.06c-.36 3.14.4 6.59.79 9.69.69 5.62 1.41 11.23 2 16.86a175.83 175.83 0 011 19.33c-.09 5.52-.47 11.2-2.24 16.47a17.16 17.16 0 01-2.83 5.4 8.7 8.7 0 01-4.35 2.93 8.52 8.52 0 01-7.13-1.08c-2.09-1.58-2.26-4.44-2.18-6.85.19-6.14 2.61-13.1-.37-18.91a14.48 14.48 0 00-9.23-7.73 10 10 0 00-6.4.48c-2.42 1.07-3.93 3.79-5.49 5.85a173.31 173.31 0 00-10.39 15.14q-2.37 3.88-4.49 7.9c-.63 1.2-1.5 2.44-1.46 3.83a12.58 12.58 0 001 4 10.11 10.11 0 01.78 5.78 8.47 8.47 0 01-2.4 4.24 9.41 9.41 0 01-8.81 2.49 8.32 8.32 0 01-4.18-2.75l-.3 2.36a7.35 7.35 0 003.82-4.76 7.19 7.19 0 00-1.31-5.27 14.83 14.83 0 00-10.47-6.21l1.07 2.56c4.89-5 9.14-13.2 4.56-19.76a8.15 8.15 0 00-6.11-3.71 6.64 6.64 0 00-6 3.68c-1.46 2.63-1.23 5.59-2.28 8.34a15.87 15.87 0 01-4.05 5.77 24.57 24.57 0 01-13.09 6.21 14.89 14.89 0 01-6-.22 6.58 6.58 0 01-2.17-1 4.62 4.62 0 01-1.43-1.51 5.4 5.4 0 01-.66-2.11 9.55 9.55 0 01.29-3.16 15.73 15.73 0 011.58-4.19 12.46 12.46 0 014-3.6c3.28-2.14 7-3.59 10.33-5.59a19.53 19.53 0 007.78-7.9c1.34-2.56 3.37-4.79 5-7.17 1.37-2 3.82-5.09 3-7.68-.9-2.83-5-2.5-7.21-2.2-3.4.44-6.7 1.42-10.1 1.85a15.22 15.22 0 01-2 .13 3.59 3.59 0 01-1.36-.25 9.2 9.2 0 01-3.68-3.26 12.22 12.22 0 01-1.48-10.12 9.36 9.36 0 012.7-4.27c1.43-1.31-.7-3.43-2.12-2.12z" fill="#8c8b8b"/><path d="M622.31 1256.61c-.62 6.73 12.18 7.29 11.14 14.17-1 7.17-17.51 7.64-12.6 15.22 2.93 6.49 8.43 6.26 13.34 1.87 11.65-9 32-2.59 31.95 13.31-1.16 6.38 2.12 14 8 7.39 5.14-13.82-.65-34.6-1.68-49.49-.28-4.77-2.94-8.83-7.94-9.25" fill="#c6abab"/><path d="M620.81 1256.61c-.4 5.63 6 7.37 9.42 10.32 1.5 1.29 2.37 3 1.28 4.91s-3.35 3-5.19 4c-3.44 1.84-9.3 4.36-7.57 9.31 1 3 3.27 6.16 6.43 7.12 3.36 1 6.78-.62 9.36-2.7a19.6 19.6 0 0116.25-3.86c5.38 1.09 10.49 4.32 12.7 9.51a14.65 14.65 0 011.07 4.21c.17 1.7-.22 3.36-.14 5.07.13 2.79 1 6.45 3.77 7.76a4.72 4.72 0 004.23-.26 9.59 9.59 0 002.08-1.56 5.45 5.45 0 001.51-2.56 41.08 41.08 0 001.74-11.5c.23-8.58-1.18-17.12-2.38-25.59-.55-3.88-1.07-7.76-1.37-11.67-.26-3.49-1.53-6.91-4.46-9a10.1 10.1 0 00-5-1.73c-1.91-.19-1.9 2.81 0 3 3.27.34 5.41 2.76 6.16 5.84a40.26 40.26 0 01.58 5.27c.2 1.87.44 3.75.69 5.62 1.08 8 2.49 16.07 2.75 24.19a50.28 50.28 0 01-.71 11.23c-.28 1.43-.53 3.62-1.51 4.66-.66.71-1.94 1.81-3 1.41s-1.51-1.92-1.76-2.88a12.7 12.7 0 01-.24-4.64 16.19 16.19 0 00-1.55-8.62c-4.84-10.48-18.89-13.6-28.82-9.07a19.26 19.26 0 00-3.6 2.15 15.52 15.52 0 01-4.21 2.68c-3.26 1.11-5.56-.72-7-3.56a4.44 4.44 0 01-.87-2.53 2.33 2.33 0 01.25-.58 3.61 3.61 0 01.74-.88 25.1 25.1 0 015.39-3.23c3.77-2 8.66-5.39 6.83-10.41-1.69-4.61-7.32-5.26-10.11-8.83a3.56 3.56 0 01-.74-2.54c.14-1.93-2.86-1.92-3 0zM609 1294.3c-9.89 4.6-41.08 15.65-40.11 27.87 7 7.43 18.39-1.44 19.23-9.91 4.82 2.33 6.87-2.12 7.18-6.15 2.1-3.35 7.32-2.62 10.78-3.6 7.94-2.82 13.75 6.13 8.9 12.64-4.77 5-.74 9.07 5.27 8.28 3.42-3.45.07-9.23 1.12-13.54 4.13-8.37-2.55-19.14-12.25-16.59" fill="#c6abab"/><path d="M608.23 1293c-9.64 4.47-19.68 8.06-28.72 13.76-4.08 2.58-8.54 5.72-10.86 10.08-.79 1.5-2 4.42-1.06 6.08.73 1.32 2.64 2.34 4 2.87a9.46 9.46 0 004.34.61c7-.66 12.92-7.34 13.69-14.15l-2.26 1.29a6.3 6.3 0 005.37.38 6.45 6.45 0 003-3.43 11.71 11.71 0 00.74-2.33c.09-.43.14-.87.2-1.3 0-.12.2-.6 0-.36s.32-.24.36-.27c1.22-1.11 3.08-1.35 4.65-1.55a33.51 33.51 0 005.19-.89 6.46 6.46 0 014.54.19 6.62 6.62 0 013.63 7.22c-.68 3.49-4.76 5.67-3.56 9.61 1 3.41 5.13 4.46 8.29 4.15 2.07-.2 3-2.5 3.33-4.35a20.25 20.25 0 00-.29-5.81 10.15 10.15 0 01.29-5.39 13.53 13.53 0 00.91-5.19 13.72 13.72 0 00-4.4-9.82 11.94 11.94 0 00-11-2.56c-1.88.46-1.08 3.36.79 2.89 5.88-1.45 11.13 3 11.56 8.89a11.14 11.14 0 01-.55 4.4 12.45 12.45 0 00-.73 2.1 11.62 11.62 0 00-.13 2.43c.15 3 1.85 7.31-.48 9.81l1.06-.44c-1.71.2-4 .23-5.3-1.15s-.05-3.24.94-4.41a10 10 0 001.22-11 9.19 9.19 0 00-9.5-4.79c-1 .13-1.84.47-2.78.67s-2 .29-3.05.42a13.3 13.3 0 00-5.79 1.65 4.7 4.7 0 00-2.16 2.57 18 18 0 01-.65 3.07c-.77 2-2.22 2.93-4.3 2a1.53 1.53 0 00-2.26 1.3c-.8 7-10.45 15.26-16.67 8.85l.44 1.06c-.37-5.51 6-9.84 10.16-12.5a137.79 137.79 0 0120.27-10.2c3-1.29 6-2.51 8.94-3.87 1.75-.81.23-3.4-1.52-2.59z" fill="#c6abab"/><path d="M480.08 1432.71c-6.28 2.31-12.56 8.63-19.64 5.93-3.27-1.33-5.4-5.64-3.46-8.59-15.3 23.18-39.41-1.59-13.87-17-6.23-1.4-12.9-3-17.1-7.86s-4-13.85 1.94-16.29c3.83-1.58 10-1.25 10.19-5.4.12-3.41-4.44-4.5-7.82-5s-7.62-3.51-5.67-6.31 7.66-.63 9-3.76-4.06-5.61-3.61-9c1.94-.77 4.09.32 6.18.37s4.43-2.43 2.9-3.84c-2.75-2.66-7.2-1.52-11-1.6s-8.37-4-6-7c3.11 1.45 4.48-4.72 7.79-5.6 4-1.18 8.22 8.21 12 3.78 4.61-5.72-12-12.25-5.58-17.71 3.07-1.9 6.16 2.44 7.2 5.89 2.1-2.24 2-6.3 4.81-7.67 7.26-2 7.62 8.17 4.42 12.57 9.74-1.92 6.45 8 13.87 9.15 8.86 3.23 12.15 16 22.11 17.14 4.74.45 9.92-4.38 8-8.73 5.64-3.12 6.06 6.85 9.27 9 4.56 2.15 9.62-.11 10.42 6.35 1.68 3.25 7.19 2.39 9.2 5.45 2.15 10.33-10.13 22.06-9.81 32.92.56 3.75 3.49 10.17-1.64 11.81q-2.64-13.59-5.29-27.19c-.17-2.49-2.13-3.85-4.45-2.79-34.36 9.58-22.17 5.18-24.29 39.79" fill="#8c8b8b"/><path d="M479.68 1431.26c-4.68 1.78-8.73 5.27-13.67 6.33-2.19.47-4.82.26-6.53-1.33-1.48-1.38-2.32-3.61-1.2-5.45 1-1.67-1.53-3.11-2.59-1.52-3.5 5.23-9.95 10.86-16.68 8-5.08-2.18-6.66-8.06-4.71-13 1.75-4.39 5.65-7.62 9.57-10a1.52 1.52 0 00-.36-2.74c-6.35-1.43-15.17-3.27-18-10a10.56 10.56 0 01-.14-8.11c1.21-2.74 3.69-3.48 6.39-4.1 2.51-.57 5.73-1.08 7.2-3.48 1.64-2.68.15-5.76-2.4-7.14-2.83-1.52-6.27-1.11-9-2.77-.86-.53-2.44-1.69-1.71-2.85.57-.9 2-1 3-1.09 2.89-.33 6.68-1 6.52-4.76a7.31 7.31 0 00-1.94-4c-.84-1.08-2-2.26-1.87-3.73l-1.1 1.45c1.92-.64 3.83.44 5.78.42a5.3 5.3 0 003.77-1.7 3.46 3.46 0 00.83-3.79 5.91 5.91 0 00-3.65-2.66c-3.18-1-6.41.12-9.61-.33-1.87-.26-5.83-2.39-4.14-4.69l-1.7.69c2.05.85 3.81-.49 5-2 .92-1.14 2.14-3.48 3.74-3.64s3.2 1.74 4.25 2.61c1.4 1.15 3 2.47 4.93 2.47a4.86 4.86 0 004.34-3.42 5.66 5.66 0 00-.62-4.45c-1.61-3-4.58-5-6.35-7.88-.73-1.17-1.07-2.15-.12-3.14 2.14-2.26 4.73 3.39 5.17 4.77a1.52 1.52 0 002.51.66c1.69-1.92 1.94-4.51 3.43-6.51a2.66 2.66 0 014.09-.06c2.09 2.52 1.07 7.21-.64 9.65-.82 1.17.53 2.42 1.69 2.2 1.6-.29 3.42-.38 4.68.76a11.87 11.87 0 012.17 3.37 10.48 10.48 0 003.1 3.79c1.54 1.09 3.46 1.23 5.07 2.2 7.49 4.53 10.61 15.06 20.26 16.19 5.4.63 12.08-4.81 9.72-10.59l-.69 1.69c1.88-1 2.71.42 3.55 2.1 1 2 1.66 4.26 3.13 6 1.69 2 4.72 2 7.1 2.48a4.51 4.51 0 012.78 1.2c1 1.14.69 2.72 1.61 3.88 1.83 2.33 4.9 2.36 7.35 3.63.43.22 1 .53 1.23 1a5.92 5.92 0 01.14 2.22 17.33 17.33 0 01-.82 4.5c-2 6.56-6.11 12.25-8.18 18.79a22.29 22.29 0 00-1 5.43 15 15 0 00.64 4.46c.54 2.25 1.76 6.15-1.2 7.19l1.85 1-3.54-18.21c-.58-3-1.24-5.94-1.73-8.93-.33-2-1.4-3.78-3.51-4.21a5.63 5.63 0 00-3 .37c-1.05.34-2.13.59-3.18.89-1.85.51-3.7 1-5.54 1.55-2.66.76-5.33 1.52-7.94 2.47-3 1.07-6.41 2.45-8 5.42s-1.07 6.38-.87 9.46a171.7 171.7 0 01.27 21.4c-.12 1.93 2.88 1.92 3 0a150.07 150.07 0 00-.1-18.85c-.13-1.92-.29-3.84-.34-5.77v-2.26c0-.15 0-.3.05-.45v-.14c0-.22.11-.6.19-.9a7.83 7.83 0 01.25-.78c-.05.13-.07.13.05-.11l.22-.41c.09-.14.52-.71.25-.39a7.31 7.31 0 01.6-.64l.35-.31c.28-.24-.18.12.12-.1s.58-.4.88-.57a19.49 19.49 0 012.14-1.08 64.36 64.36 0 016.17-2.1c3.18-1 6.39-1.84 9.6-2.73 1.12-.31 2.24-.72 3.36-1a1.38 1.38 0 011.78 1 32 32 0 01.79 4.15l.9 4.61 3.78 19.43a1.5 1.5 0 001.84 1c3.14-1.1 4.34-3.79 4-7-.31-3-1.58-5.75-1.14-8.79 1.06-7.38 5.94-13.7 8.46-20.6 1.11-3.07 2.05-6.81 1.19-10.07-.82-3.11-5.36-3.41-7.75-4.54a3.16 3.16 0 01-1.46-1.11c-.37-.75-.38-1.74-.75-2.54a5.6 5.6 0 00-2.77-2.76 14.55 14.55 0 00-3.86-1c-1.17-.18-3-.36-3.85-1a8.23 8.23 0 01-1.79-3.05 33.62 33.62 0 00-1.79-3.73c-1.65-2.7-4.21-3.7-7.11-2.18a1.51 1.51 0 00-.69 1.7c.92 2.24-.31 4.35-2.2 5.64a6.9 6.9 0 01-6.25.75c-3.88-1.25-6.64-4.69-9.17-7.7s-5.4-6.56-9.21-8.35c-1.5-.71-3.15-.78-4.35-2a15.38 15.38 0 01-2.14-3.44 9 9 0 00-3.2-3.68 9.23 9.23 0 00-6.38-.61l1.69 2.2c2.49-3.54 3.33-10.09 0-13.43a5.87 5.87 0 00-7-.88c-2.7 1.83-2.59 5.32-4.6 7.6l2.51.67c-.85-2.66-2.44-5.7-5.07-7a4.5 4.5 0 00-5.94 1.94c-1.89 3.25.86 6.53 2.95 8.85a32.86 32.86 0 013.47 4.07c.73 1.12 1.16 2.13.56 3.09-.95 1.54-2.23.76-3.42-.13-1.57-1.16-2.93-2.65-4.72-3.48-2.31-1.07-4.52-.3-6.2 1.49-.84.9-1.51 1.94-2.31 2.87-.58.67-1 1.2-1.8.85a1.52 1.52 0 00-1.69.69c-1.69 2.3-.61 5.1 1.34 6.83 2.35 2.07 5.1 2.52 8.13 2.37a29.46 29.46 0 014.6-.06c.62.06 3.16.51 3.21 1.35 0 .38-.78.86-1 1a3.4 3.4 0 01-2.14.06c-1.79-.32-3.51-.76-5.29-.16a1.59 1.59 0 00-1.11 1.44 6 6 0 001.29 4c.77 1.1 2 2.17 2.42 3.46.82 2.38-4.05 2.12-5.31 2.37-3 .62-5.39 3.49-3.68 6.55A8.28 8.28 0 00427 1379a19.62 19.62 0 004.76 1.23c1.56.31 6.43 1.57 4.6 4.15-.68 1-2.23 1.28-3.29 1.55-1.51.39-3.06.65-4.56 1.13-6.25 2-8.1 9.12-6 14.88 3 8.27 12.54 10.77 20.23 12.5l-.35-2.74c-6.88 4.21-14.15 11.94-11.36 20.73a12.53 12.53 0 0015.64 8c5-1.5 8.81-5.4 11.64-9.63l-2.59-1.52a7.06 7.06 0 00.48 7.68 9.17 9.17 0 007.39 3.82c6.35.28 11.3-4.51 16.91-6.63 1.79-.68 1-3.58-.79-2.9z" fill="#8c8b8b"/><path d="M452.47 1380.34c3.15 13.87-25.26 7.73-21 22a24.84 24.84 0 0017 .49c3.52 12.63-10.7 27-3.29 29.68 7.06-.77 11.52-9.52 14.88-15.16 22 26.43 13.37-21.14 12.08-32.49 12.5-2.27 26.13 8.46 38.56.6 11.92-6.82-2.66-20-12.66-17.1-13.68 2.82-26.74 14.12-41.38 9" fill="#a8a8a8"/><path d="M451 1380.74a5.17 5.17 0 01-2.38 6c-2.46 1.61-5.39 2.37-8.17 3.27s-5.78 1.87-8.11 3.78a7.79 7.79 0 00-2.65 7.69 6.12 6.12 0 00.3 1.28c.4 1 1.34 1.19 2.27 1.5a25.57 25.57 0 005.47 1.2 26.26 26.26 0 0011.1-1.16l-1.84-1c2.11 7.89-2.63 15.2-4.86 22.48-.72 2.36-1.25 5.37.83 7.22 3 2.71 7.74-.67 10.06-2.89 3.51-3.38 5.84-7.78 8.3-11.93l-2.35.3a39.26 39.26 0 005.79 5.88 10.69 10.69 0 004.47 2.34c3.2.58 5.19-1.81 6.08-4.6 1.15-3.61 1.11-7.66 1-11.4-.13-4.63-.59-9.24-1.15-13.83-.49-4.11-1.1-8-1.55-11.94l-1.1 1.45c8.35-1.43 16.63 2.65 24.86 3.43a22.7 22.7 0 0012.27-2c2.95-1.45 6.08-3.63 6.82-7 1.31-6.07-4.58-11.09-9.59-13.1-7.15-2.86-14.73.64-21.35 3.42-9 3.78-18.61 8.26-28.49 4.92-1.84-.61-2.63 2.28-.8 2.9 8.13 2.74 16.35.67 24.05-2.41 3.85-1.55 7.62-3.28 11.52-4.7 3.15-1.14 6.74-2.52 10.15-2.27 4.6.34 10.92 3.88 11.65 8.89.42 2.85-1.84 4.71-4 6a19.2 19.2 0 01-11.45 2.42c-8.9-.64-17.35-4.94-26.4-3.38a1.49 1.49 0 00-1.1 1.44c.86 7.52 2.1 14.92 2.56 22.54a54.3 54.3 0 01-.2 11.43 16.28 16.28 0 01-.49 2.2c-.09.3-.19.6-.3.89s.08-.16-.07.15-.16.32-.25.47-.48.69-.25.42a4.23 4.23 0 01-.56.56c.33-.27-.19.09-.33.16.47-.22-.5.09-.26 0s-.88-.07-.43 0a4.84 4.84 0 01-1-.27c-.3-.11 0 0-.27-.12s-.4-.2-.6-.32c-.39-.22-.77-.48-1.14-.74a34.71 34.71 0 01-5.94-6 1.52 1.52 0 00-2.36.31c-2 3.32-3.82 6.8-6.36 9.74a15.86 15.86 0 01-4.2 3.63 11.78 11.78 0 01-2.35.91c-.07 0-.7.12-.36.14s-.12 0-.22-.11a1.61 1.61 0 01-.39-.31 1.33 1.33 0 01-.33-.71 5.54 5.54 0 010-1.3 18.2 18.2 0 011.06-3.72c1.19-3.26 2.62-6.42 3.62-9.75 1.23-4.12 1.81-8.49.68-12.69a1.51 1.51 0 00-1.84-1.05 23.86 23.86 0 01-16.2-.49l1 1.05a7.43 7.43 0 01-.3-3.22 4.07 4.07 0 011.12-2.14 13.71 13.71 0 015.36-3c4.32-1.54 9.85-2.42 13.09-6a8.34 8.34 0 001.75-7.68c-.41-1.89-3.3-1.09-2.9.8z" fill="#a8a8a8"/><path d="M514.25 1418.17c-2-9-4-18.64-.67-27.25 1.65-3.76 4.45-9.26.51-12.48-1.82-1.33-5-.49-5.34 1.75-2.39-15-9-2-14.59-3.64 3.36-5.23-3.89-11.16-8.35-6.82-1.45 1.39-3.17 3.8-4.79 2.61-2.28-3.18-1.22-7.8-2.72-11.36-3.49-9.09-12.35-5.34-12.75 3.33-3.23-14.6-23.93-18.59-18.14 0-2.93-1.35-6.5 2.69-4.81 5.43 1.51 2.46 5.42 2.71 6.65 5.32-6.68-2.34-9.57 8.16-2.29 8.67-1.62 2.73-8.87 6.21-4.94 9.44 3.76 2.58 10.18-.15 12.73 3.63 2.57 4.3-2.16 8.32-4.11 11.86-3.15 4.53 2.43 10.82 5.27 5.32.37 4.5 3.84 11.23 9.11 8.58 3-2 3.81-11.87 9-8.22a33.94 33.94 0 00-1.16-19.52c6.06 10.75 19.46-.41 27.52-3.09 4.08-2.57 7.92-.14 8.27 4.52q2.39 11.76 4.76 23.51" fill="#c6abab"/><path d="M515.69 1417.78c-1.72-7.68-3.57-15.91-1.54-23.72.8-3.1 2.57-5.87 3.2-9 .57-2.89.07-6.25-2.62-8s-6.8-.5-7.43 2.72h2.89c-.61-3.72-2.23-9.83-7.31-8.13a25.15 25.15 0 00-4.44 2.35c-1.27.72-2.66 1.43-3.88 1.1l.9 2.2a6.91 6.91 0 00-2.77-9.71 6.79 6.79 0 00-5.27-.57 6.92 6.92 0 00-2.43 1.42 26.68 26.68 0 01-2.54 2.45 1.75 1.75 0 01-.49.26c.17 0 .29.61 0-.21a13.44 13.44 0 01-.59-1.53 23 23 0 01-.57-3.78 17.54 17.54 0 00-1.9-7c-1.66-3-4.88-5.17-8.38-4.11-4.19 1.28-6.18 5.75-6.42 9.81l2.95-.4a18.06 18.06 0 00-10.35-12.65c-4-1.66-9.16-1.19-11 3.3-1.34 3.19-.63 6.93.35 10.12l1.84-1.85c-3.5-1.41-7.42 2.14-7.12 5.7a5.79 5.79 0 003.1 4.27c1.43.87 3.34 1.41 4.17 3l1.69-2.21a6.31 6.31 0 00-8.25 4.41c-1 3.91 1.76 6.87 5.56 7.21l-1.29-2.26c-1.73 2.74-5.72 4.08-6.25 7.6-.68 4.56 5.28 5.29 8.45 5.42 1.65.08 3.82 0 5.15 1.1 1.76 1.52.79 4-.19 5.63-2 3.36-5.74 6.63-4.3 11a5.65 5.65 0 003.65 3.83c2.22.56 4-.91 5-2.76l-2.79-.76a14.31 14.31 0 003.53 8.45c2.06 2.18 5.75 3.16 8.27 1.1 1.75-1.43 2.48-3.86 3.46-5.81a6.87 6.87 0 011.66-2.45 1 1 0 01.66-.23 3.21 3.21 0 011.26.6 1.51 1.51 0 002.2-.9 35.9 35.9 0 00-1.15-20.32l-2.74 1.16a10 10 0 008.79 5.33c3.79 0 7.46-1.62 10.82-3.22 1.82-.87 3.6-1.8 5.41-2.69 1.48-.73 3.07-1.25 4.55-2s3.27-1.37 4.7.07a4.77 4.77 0 011.18 2.32c.31 1.37.5 2.79.78 4.17l4.16 20.57c.39 1.89 3.28 1.09 2.9-.8l-3.78-18.38c-.3-1.47-.61-2.94-.9-4.41a15.59 15.59 0 00-.82-3.43 6.54 6.54 0 00-4.12-3.76c-2.15-.6-3.86.23-5.78 1.05-1.59.67-3.17 1.33-4.72 2.09-3.56 1.77-7.08 3.77-10.93 4.82a10.49 10.49 0 01-5.33.34 7.1 7.1 0 01-4.38-3.63c-.83-1.43-3.33-.49-2.74 1.15a33 33 0 011.15 18.72l2.21-.89a4.35 4.35 0 00-6 .49c-1.53 1.65-2.23 3.88-3.25 5.84a6 6 0 01-1.29 1.88 3.15 3.15 0 01-3.48-.28c-2.06-1.51-3.15-4.54-3.38-7-.13-1.38-2-2.16-2.8-.75-.52.94-1.25 1.87-2.27 1a3.55 3.55 0 01-1-3.41c.36-1.7 1.85-3.3 2.84-4.68a15 15 0 002.66-5.09 6.27 6.27 0 00-5.39-7.8c-1.75-.28-3.53-.23-5.3-.39-1-.09-3.58-.36-3.74-1.71-.13-1.12 1.72-2.49 2.43-3.13a18.06 18.06 0 003.47-3.57 1.52 1.52 0 00-1.3-2.25c-2.06-.19-3.19-1.71-2.62-3.6.63-2.08 2.55-2.77 4.51-2.12a1.52 1.52 0 001.7-2.21 7.15 7.15 0 00-2.82-2.74 15.25 15.25 0 01-3.42-2.08c-1.7-1.72.6-4.57 2.7-3.72 1.08.43 2.16-.84 1.85-1.85-.72-2.35-1.37-5-.72-7.47a3.83 3.83 0 012.58-2.88 7.25 7.25 0 014.68.44 13.76 13.76 0 015 3.56 15.7 15.7 0 013.7 7.18c.39 1.71 2.85 1.23 2.94-.4.16-2.63 1.32-5.83 4-6.84s4.86 1.59 5.79 3.91a24 24 0 011.11 6.19c.23 1.89.57 4.41 2 5.83s3.55.56 4.85-.56 2.27-2.84 4.07-3.09a4.05 4.05 0 014 6 1.52 1.52 0 00.9 2.2c3.29.9 6.12-1.5 8.83-3a5.51 5.51 0 011.63-.65 1 1 0 011 .18c1.41 1.08 1.81 4.24 2.1 6 .24 1.45 2.62 1.41 2.89 0a1.91 1.91 0 012.67-1.14c1.32.57 1.77 2.27 1.73 3.56-.09 3.46-2.31 6.57-3.22 9.83-2.35 8.46-.44 17.38 1.43 25.73.42 1.89 3.32 1.09 2.89-.79zM449.94 1354.62c3.67-32.38-16.68-15.82-.47-9.75" fill="#c6abab"/><path d="M451.44 1354.62c.53-4.74.84-9.72-.24-14.41-.51-2.19-1.51-4.91-3.66-6a3.85 3.85 0 00-4.78.91 5.34 5.34 0 00-.76 5.29 10.31 10.31 0 005.66 5.33c.46.21.94.41 1.41.59a1.52 1.52 0 001.85-1 1.55 1.55 0 00-1.05-1.85l-.56-.22c-.25-.1.29.13.05 0l-.3-.13c-.33-.15-.65-.31-1-.48s-.57-.33-.85-.51l-.36-.24-.18-.13-.08-.06c-.21-.15.12.07.13.1 0-.14-.51-.43-.63-.55a7 7 0 01-.54-.55l-.21-.26c-.05-.05.25.34.09.12a.71.71 0 00-.1-.14c-.12-.19-.24-.37-.35-.57s-.09-.19-.14-.28c-.17-.35.12.34 0 0a3.54 3.54 0 01-.18-.55 1.29 1.29 0 01-.06-.25v-.14c-.06-.27 0 .25 0 .21v-.75c0-.09.05-.44 0-.08a2 2 0 01.05-.24 1.72 1.72 0 01.07-.21c0-.08.15-.38 0-.06s.06-.11.12-.21l.12-.18c.18-.29-.22.24-.09.11l.29-.3.07-.06c.15-.16-.18.14-.2.15s.11-.08.16-.11l.17-.1c.26-.15 0 0-.15.06l.37-.12c.31-.08-.16 0-.17 0a1.21 1.21 0 00.19 0h.19c.32 0-.44-.09-.15 0l.41.12c.2 0-.41-.21-.13-.06l.22.12.2.13c.3.19-.3-.27-.06 0a5 5 0 01.41.39l.19.21c.16.19-.22-.3-.11-.14l.09.14a9.27 9.27 0 01.74 1.3c.1.22 0 0 0-.11 0 .07.06.14.08.21s.11.28.16.42c.11.31.21.63.3.95a19.25 19.25 0 01.46 2.26 1.19 1.19 0 010 .32c0-.21 0-.25 0 0s.05.48.08.73c0 .49.08 1 .11 1.47a52.18 52.18 0 01-.18 7.29c-.06.74-.13 1.48-.22 2.23a1.51 1.51 0 001.5 1.5 1.54 1.54 0 001.5-1.5zM446.51 1363.23c-7.16.13-10.9-10.27-18.06-10.53-6.82.86-3 7.12 5.1 1.82" fill="#c6abab"/><path d="M446.51 1361.73c-2.56 0-4.66-1.61-6.48-3.28-2.12-1.93-4.08-4.11-6.54-5.63s-5.42-2.19-8.06-.78c-2.1 1.12-2.76 3.79-.64 5.28 2.85 2 7 .12 9.52-1.51 1.62-1 .11-3.64-1.51-2.59a11.63 11.63 0 01-4.14 1.82 5 5 0 01-1.39.07l-.36-.08a2.13 2.13 0 01-.33-.11c.19.08.08 0 0 0-.31-.18.09.13-.13-.11.14.15 0 0 0 0 .09.25 0 0 0-.08s.11.36 0 .13c0 0-.07.38 0 .13s-.1.21 0 0-.13.09.11-.14c.05-.05.27-.21.05-.05l.24-.15a5 5 0 011.37-.46c1.9-.38 4.11 1.23 5.49 2.39 1.86 1.55 3.49 3.36 5.36 4.9 2.16 1.8 4.61 3.2 7.49 3.19a1.5 1.5 0 000-3zM446 1394.31c-18.79 12.31 3.65 17.3 3.48-1.16" fill="#c6abab"/><path d="M445.22 1393a33.07 33.07 0 00-4.71 3.64 14.47 14.47 0 00-2.61 3.17 6.35 6.35 0 00-.92 3 3.87 3.87 0 001 2.63 3.63 3.63 0 001 .74 4.37 4.37 0 001.19.45 6.48 6.48 0 002.84-.05 8.39 8.39 0 002.65-1.17 11.13 11.13 0 002.67-2.59 12.86 12.86 0 001.81-3.56 18.25 18.25 0 00.87-4.87v-1.28a1.5 1.5 0 00-1.5-1.5 1.53 1.53 0 00-1.5 1.5 20.71 20.71 0 01-.16 2.84l.05-.4a15 15 0 01-1 3.78l.15-.36a11.1 11.1 0 01-1.42 2.45l.24-.3a9.09 9.09 0 01-1.61 1.61l.31-.23a7.49 7.49 0 01-1.68 1l.36-.15a6.3 6.3 0 01-1.58.44h.4a5.06 5.06 0 01-1.23 0h.4a3.29 3.29 0 01-.87-.23l.36.15a2.66 2.66 0 01-.59-.34l.31.24a2.65 2.65 0 01-.41-.41l.24.31a2.4 2.4 0 01-.27-.46l.15.35a2.07 2.07 0 01-.16-.59l.05.39a2.84 2.84 0 010-.77l-.06.4a5.09 5.09 0 01.32-1.14l-.15.36a8.83 8.83 0 011.11-1.84l-.23.31a18.1 18.1 0 012.6-2.65c.33-.28.67-.55 1-.82l-.3.24c.79-.61 1.6-1.18 2.43-1.72a1.6 1.6 0 00.69-.9 1.54 1.54 0 00-.16-1.15 1.5 1.5 0 00-.89-.69 1.52 1.52 0 00-1.16.15z" fill="#c6abab"/><path d="M455.71 1395.59a24.35 24.35 0 00.3 10.51 7.44 7.44 0 001.9 3.64 3.36 3.36 0 004.07.38c2-1.2 3.35-3.63 4.4-5.66l-1.69.69 3.71 1.21a1.5 1.5 0 10.8-2.89l-3.71-1.21a1.51 1.51 0 00-1.7.69 24.67 24.67 0 01-1.76 3c0 .08-.36.48-.22.3l-.39.47c-.24.26-.5.47-.75.72s.3-.18 0 0l-.16.1-.3.17c-.15.09.34-.12 0 0s.18 0 0 0h-.13c.33 0-.13 0-.11-.05s.39.21.07 0a.75.75 0 00-.12-.07c-.19-.09.23.23.09.06a2 2 0 00-.21-.2c-.27-.27.14.23 0 0s-.29-.47-.41-.71-.19-.48-.05-.08c0-.12-.1-.25-.14-.37a8.51 8.51 0 01-.3-1 15.65 15.65 0 01-.4-2c.05.36 0-.2 0-.29s0-.34-.05-.51c0-.41-.06-.83-.07-1.24a25.25 25.25 0 010-2.61c0-.4.06-.8.11-1.2v-.31c0 .2 0 .15 0 0s.07-.43.1-.64a1.54 1.54 0 00-1-1.85 1.52 1.52 0 00-1.85 1zM458.76 1369.24a5.1 5.1 0 00-4.3-.16 5.87 5.87 0 00-2.57 2.62 14.33 14.33 0 00-1.38 8.08 8.51 8.51 0 001.22 3.94 1.53 1.53 0 002 .54 1.5 1.5 0 00.54-2 4.85 4.85 0 01-.29-.49c0-.06-.17-.36-.07-.14l-.08-.21a10.08 10.08 0 01-.35-1.44v-.22-.27c0-.29 0-.58-.05-.87a14.55 14.55 0 01.07-1.75v-.43.1a2 2 0 010-.24c.05-.3.1-.59.17-.89a14.94 14.94 0 01.49-1.61c.08-.26-.11.21 0-.1.05-.12.11-.23.16-.34a5.77 5.77 0 01.4-.68c.09-.13.22-.28 0-.05a2.75 2.75 0 01.22-.26l.23-.24c.14-.13.31-.22.05 0a3.13 3.13 0 01.3-.2c.19-.11.32-.1 0 0 .11 0 .22-.08.33-.11s.33 0 .05 0h.57c.27 0-.21-.07 0 0a2.73 2.73 0 00.41.1c.11 0 .56.22.24.08a1.55 1.55 0 002.05-.54 1.5 1.5 0 00-.54-2zM454.61 1358.15a14.9 14.9 0 00-.48-7.08 1.5 1.5 0 10-2.89.79c.15.48.28 1 .39 1.46a5.42 5.42 0 01.13.79v1.97c0 .25 0 .5-.05.75a2.07 2.07 0 010 .35c.1-.4 0 .08 0 .17a1.62 1.62 0 00.15 1.16 1.56 1.56 0 00.9.69 1.51 1.51 0 001.84-1zM469 1371c1.46-1.64 3.85-.08 4.76 1.39 1.12 1.81.79 4.3 1.32 6.3a6.64 6.64 0 001.44 2.77c1 1.08 2.34.74 3.64.61 2.75-.28 5.48-.67 7.84 1.07 1.17.87 2.39-.56 2.2-1.69a2.25 2.25 0 011.76-2.67 1.31 1.31 0 011.07.15 1.77 1.77 0 01.33 1.44 1.55 1.55 0 001 1.85 1.51 1.51 0 001.85-1 4.87 4.87 0 00-1-4.26 4.19 4.19 0 00-3.62-1.1c-3.19.45-4.84 3.42-4.32 6.43l2.2-1.69c-3.53-2.61-7.6-1.43-11.61-1.32l1.06.44c-1.16-1.12-1.21-2.88-1.4-4.39a9.85 9.85 0 00-1.68-5.06c-2.08-2.65-6.39-4.27-9-1.34-1.28 1.44.84 3.57 2.12 2.12zM489.13 1391.72a20 20 0 01-2.48-1.31c-.9-.54-1.78-1.11-2.68-1.65a15.49 15.49 0 00-6-2.37 2.19 2.19 0 00-1.9.37 5 5 0 00-.95 1.1 5.48 5.48 0 00-.82 2.54 7.7 7.7 0 001.39 4.78 7.92 7.92 0 004.65 3.47 1.52 1.52 0 001.84-1.05 1.5 1.5 0 00-1.05-1.84 4 4 0 01-1.9-1 6 6 0 01-1.54-2.11c-.12-.25 0 .06 0-.09s-.08-.22-.11-.33a4.81 4.81 0 01-.18-.65s-.08-.4 0-.19 0-.16 0-.2v-.64c0-.38-.07.26 0-.11 0-.08 0-.16.05-.25s.07-.24.11-.36-.06.1 0 0 .1-.19.16-.28.22-.31.1-.16.12-.13.15-.16a4 4 0 01.3-.28l-1.06.44a7.58 7.58 0 012.67.64 22.2 22.2 0 012.69 1.44 41.56 41.56 0 005.8 3.22 1.52 1.52 0 001.85-1 1.54 1.54 0 00-1.05-1.85zM503.25 1385.44a3.69 3.69 0 01.58 0c.15 0 .43.1-.06 0h.24l.24.08c.22.06-.38-.21-.09 0l.15.09c.17.1.19.24-.06-.07.09.11.22.22.33.33s-.24-.36-.06-.07a1.37 1.37 0 01.13.2c.08.12.12.27.2.38-.24-.37-.09-.22 0-.06a2.25 2.25 0 00.08.24 4.7 4.7 0 01.12.51 2.23 2.23 0 010 .23c.06.33 0-.36 0-.09a9.84 9.84 0 010 1.09v.47c0 .16-.07.47 0-.07v.26a6.58 6.58 0 01-.25 1 1.51 1.51 0 001.05 1.84 1.53 1.53 0 001.84-1 8.89 8.89 0 00.29-4.19 4.94 4.94 0 00-2.16-3.54 4 4 0 00-2.55-.52 1.67 1.67 0 00-1.07.43 1.53 1.53 0 00-.43 1.07c0 .72.66 1.6 1.5 1.5zM651.44 1256.83c-4.34-1-9.14-.09-11.72 3.83a7.77 7.77 0 001 9.88 11.14 11.14 0 007.32 2.64l-1.29-2.25c-.93 2.19-3.27 3-5.29 3.93s-4.62 2.17-5.62 4.38a3.44 3.44 0 001.49 4 6.41 6.41 0 004.4.41c3.85-.68 7.58-2.63 11-4.49 1.66-.92 3.29-1.89 4.86-2.94.55-.37 1.09-.75 1.61-1.15l.7-.55c.15-.11.45-.24.46-.26 0 .13-.25-.21-.06.06a4.7 4.7 0 01.52.86 17.39 17.39 0 01.87 2.91c.43 1.85.63 4 1.68 5.69a1.52 1.52 0 002.35.3 9.18 9.18 0 002.93-7.73c-.21-1.89-3.21-1.92-3 0a6.43 6.43 0 01-2 5.61l2.36.3c-.72-1.12-.93-3-1.27-4.49a13.76 13.76 0 00-1.82-5 3.15 3.15 0 00-4.48-.84c-.57.38-.8.66-1.17.93q-.88.64-1.8 1.23a58.39 58.39 0 01-10.28 5.43 18.09 18.09 0 01-4.69 1.33 3.11 3.11 0 01-1.38-.08c-.25-.08-.31-.16-.36-.31s-.12-.2 0-.16c0-.27 0-.2-.09.2l.24-.37a9.27 9.27 0 011.11-1.06 20.15 20.15 0 013.6-1.87c2.32-1 4.78-2.29 5.83-4.77a1.53 1.53 0 00-1.3-2.26c-2-.09-4.32-.59-5.68-2.25a4.53 4.53 0 01-.85-3.91c1-4.06 5.48-5.13 9.14-4.3 1.88.43 2.68-2.46.8-2.89zM586.66 1310.23a6.41 6.41 0 00-4.84-.4 7 7 0 00-3.41 2.78c-1.45 2.19-1.95 5.52-.11 7.64a5 5 0 004.81 1.23 1.5 1.5 0 001-1.85 1.53 1.53 0 00-1.84-1s-.24.05-.25 0 .42 0 .09 0h-.45a2.81 2.81 0 01-.41 0c-.18 0-.22-.11.14 0a2 2 0 00-.24-.05l-.34-.1c-.32-.1.35.21 0 0l-.23-.14c-.17-.09 0-.16.13.11 0 0-.11-.09-.16-.14s-.13-.15-.21-.22.22.34.11.14a1.48 1.48 0 00-.08-.13c-.06-.09-.1-.19-.16-.28s0-.17.07.17a1.18 1.18 0 00-.07-.2 4.56 4.56 0 01-.14-.59c-.06-.25 0 .42 0 .17a1 1 0 000-.17v-.41-.36a1.1 1.1 0 010-.18c0-.26-.07.41 0 .15s.1-.53.17-.79.18-.44.23-.67c-.12.5 0 .1 0 0a4 4 0 01.21-.41c.13-.22.28-.44.43-.65s-.25.3-.08.1l.13-.15c.08-.1.17-.19.26-.29l.28-.26.15-.13c.2-.17-.32.23-.1.08a6.38 6.38 0 01.71-.43l.18-.08c-.38.24-.22.09-.06 0l.38-.11H584.05c.29 0-.39-.08-.1 0l.29.06.53.14.24.09c.39.13-.21-.1 0 0a1.55 1.55 0 002.06-.54 1.53 1.53 0 00-.54-2z" fill="#bf9595"/><path d="M281.42 1258.55c2 12.06-.43 26.56 5.47 38.13 3.35 6.22.6 13.11.65 19.84 1 5 8.74 4.44 12.47 8 3.18 3 4.52 9.54 8.81 8.64l.89-14.3a52.54 52.54 0 018.07 14.53 21.52 21.52 0 00.16-18.7c11.72-2.69 5.67-18.55 9.5-26.56 8.45 3.63 4.41 14.72 5.44 21.81.72 5.66 10.65 19.38 16.95 18.1 5.22-5 3.48-14.7-1.48-19.32l7-5c14 22.41 45.4 11.67 30.87-2.59 10 .52 19.5-8.29 19.74-18.29-12.09-3.26-24.87-1.72-37.38-2a124.85 124.85 0 01-47-10.56c-12.12-5.35-24.15-12.81-37.38-12.16" fill="#8c8b8b"/><path d="M280 1259c1.09 6.64.86 13.41 1.31 20.11a67 67 0 001.32 9.88 50.82 50.82 0 003.4 9.31c1.48 3.39 1.11 7.21.69 10.78-.2 1.62-.42 3.23-.54 4.85a8 8 0 00.53 4.61c2.21 4.19 7.93 4 11.49 6.44 4.06 2.73 4.78 10.75 11.05 9.64a1.52 1.52 0 001.1-1.44l.89-14.3-2.57 1.06a51.2 51.2 0 017.69 13.87c.4 1.1 2.12 1.61 2.74.35a23.33 23.33 0 00.17-20.21l-.9 2.2a10.46 10.46 0 006.58-4.5 16.8 16.8 0 002.14-7.3c.29-2.71.26-5.45.38-8.17a19.49 19.49 0 011.29-7.27l-2.05.54c5 2.23 4.93 7.62 4.72 12.36a53.33 53.33 0 00-.11 7.37 16.52 16.52 0 001.8 5.85 34.62 34.62 0 009.44 11.86 11.76 11.76 0 005.76 2.7 3.24 3.24 0 003-.93 11.53 11.53 0 002.22-3.56c2.33-5.79.28-13.18-4.15-17.42l-.31 2.36 7-5-2.05-.53c4.89 7.71 13 13.21 22.23 13.61 5.56.24 13.67-1.74 15-8.13.81-3.81-1.42-7.31-4-9.89l-1.06 2.56c10.92.45 20.86-8.92 21.24-19.79a1.53 1.53 0 00-1.1-1.45c-8.18-2.16-16.66-2.26-25.06-2.14s-16.93.17-25.38-.93a123.74 123.74 0 01-24.3-5.73c-7.73-2.66-14.95-6.37-22.38-9.74-7.9-3.59-16.25-6.64-25.07-6.27-1.92.08-1.93 3.08 0 3 7.83-.33 15.3 2.18 22.36 5.32 7.24 3.21 14.24 6.9 21.68 9.65a125.34 125.34 0 0024.11 6.26 146.23 146.23 0 0024.74 1.5c9.53-.13 19.19-.48 28.5 2l-1.1-1.45c-.33 9.3-9 17.17-18.24 16.79a1.52 1.52 0 00-1.06 2.56c1.88 1.87 3.57 4.21 3.29 6.77a5.28 5.28 0 01-1.07 2.42 8.57 8.57 0 01-2.41 1.95c-5.39 3-12.7 2-18-.74a26.76 26.76 0 01-10.32-9.63 1.51 1.51 0 00-2-.54l-7 5a1.52 1.52 0 00-.3 2.35c3.56 3.41 5.25 9.19 3.6 13.92a20.32 20.32 0 01-1.67 2.82l-.22.23c.53-.14.62-.18.27-.14a5.61 5.61 0 00-.58 0 5 5 0 01-1-.21 13.21 13.21 0 01-4.88-3.24 32.47 32.47 0 01-7.68-10.9c-1.61-3.91-.72-8.33-.65-12.44.09-5.23-1-10.64-6.27-13a1.52 1.52 0 00-2.05.53c-2.16 4.68-1.62 10.09-1.93 15.09a17.44 17.44 0 01-1.43 6.85 7.47 7.47 0 01-5.23 3.93 1.51 1.51 0 00-.9 2.2 20.09 20.09 0 01-.17 17.19l2.74.36a56 56 0 00-8.45-15.19c-.87-1.12-2.49-.09-2.56 1.06l-.89 14.3 1.1-1.45c-1.9.33-3.12-2.12-3.92-3.43-1.2-2-2.34-4-4.21-5.47a22.32 22.32 0 00-6.3-2.87c-1.64-.57-3.9-1.23-4.72-2.93-.55-1.13-.16-2.78 0-4 .17-1.77.43-3.52.61-5.28a21.65 21.65 0 00-.75-9.8c-.54-1.47-1.35-2.82-1.92-4.27a35.56 35.56 0 01-1.48-4.7 57.19 57.19 0 01-1.37-9.47c-.51-7.11-.29-14.28-1.45-21.33-.31-1.9-3.2-1.1-2.89.8z" fill="#8c8b8b"/><path d="M290.2 1293.89c.33 4.72-.24 9.66.6 14.27 10.73 5.5 14.7.18 11.95-10.69a23.16 23.16 0 006.75 5.08 17.38 17.38 0 00-1.71-17.44c2.86-1.17 6.22 1.47 9.09.34 7.55-5 6.06-16.94.59-23.27-4.82-7-25.86-13.65-26.37-.83" fill="#a8a8a8"/><path d="M288.7 1293.89c.26 4.08-.1 8.18.31 12.24a7.62 7.62 0 00.49 2.79c.41.67 1.38 1 2.06 1.26a20 20 0 004.09 1.4 8.4 8.4 0 006.15-.7 7.12 7.12 0 003-4.77 21.28 21.28 0 00-.64-9l-2.51 1.46a25.63 25.63 0 007.05 5.32 1.51 1.51 0 002.05-.54 19 19 0 00-1.7-19l-.9 2.21c3.07-1.1 6.35 1.83 9.45.18 2.38-1.26 4.1-4 5-6.4 1.92-5.24.74-11.5-2-16.24a21.25 21.25 0 00-9.38-8.54c-3.94-1.92-8.56-3.33-13-2.92a10.3 10.3 0 00-6 2.34 8.88 8.88 0 00-2.68 6.37c-.1 1.93 2.9 1.93 3 0 .42-8.28 11.29-5.81 16.25-3.62a19.87 19.87 0 018.06 6.13 17.74 17.74 0 013.4 13.69 10.19 10.19 0 01-3.67 6.25c-1.22.9-2.94.24-4.27-.07a8.76 8.76 0 00-5-.07 1.52 1.52 0 00-.9 2.21 16 16 0 011.7 15.92l2.06-.53a23.22 23.22 0 01-6.45-4.85 1.51 1.51 0 00-2.5 1.46c.69 2.83 1.78 7.53-.48 10s-6.89.24-9.28-1l.69.9c-.78-4.57-.25-9.26-.54-13.87-.13-1.91-3.13-1.93-3 0zM337.32 1246.93l.17 36.87c-1.23 9 5.49 20.83 14.75 12.91 8.33 2.22 13.16 13.63 22.08 15 9.08-.66 7.79-11.68 8.26-18.17.78-1.24 2.65-.56 4-.12 4.56 1.45 9.73-1.67 11.57-6.08 3.78-9.56-3.85-18.63-10.46-24.84" fill="#a8a8a8"/><path d="M335.82 1246.93l.15 33.63c0 4-.41 7.8.87 11.63 1 3 2.83 6.15 5.75 7.69 3.76 2 7.66.44 10.71-2.11l-1.46.39c3.46 1 6.14 3.5 8.65 5.95s5.27 5.37 8.52 7.23a12 12 0 005.31 1.84 8.67 8.67 0 004.63-1.42c2.6-1.7 3.85-4.66 4.39-7.62.64-3.51.49-7.08.74-10.63l-.44 1.06c.61-.79 2.75.36 3.59.51a9.89 9.89 0 004.68-.28 12.41 12.41 0 007-5.64c3.5-6.13 1.27-13.53-2.43-19a53.87 53.87 0 00-7.73-8.79c-1.4-1.32-3.53.8-2.12 2.13 4.07 3.84 8.26 8.26 10.14 13.66 1.78 5.14.89 11.4-4.29 14.15a7.63 7.63 0 01-3.53.91 16.85 16.85 0 01-3.57-.77 4 4 0 00-3.51.55c-.9.78-.86 1.79-.91 2.9-.15 3.75.11 7.86-1.37 11.4a6.07 6.07 0 01-3.18 3.38 4.56 4.56 0 01-2.93.28 11.88 11.88 0 01-3-1.24c-4.06-2.32-7-6.14-10.5-9.16a21.24 21.24 0 00-5.72-3.74 9.58 9.58 0 00-1.39-.5 2 2 0 00-2.05.56 9.47 9.47 0 01-3.15 1.71c-4.07 1.13-6.87-2.86-8-6.23a19.31 19.31 0 01-.74-7.59c.24-3.94 0-8-.06-12l-.11-24.91a1.5 1.5 0 00-3 0z" fill="#a8a8a8"/><path d="M301.35 1259c-8.54 14.52 7.67 23.55-8.21 36.11-.46 2.59.17 5.88-2.46 7.55-3.65 2.49-6.86-1.21-6.63-5l-2.94-33c-2.06-10.42 11.83-9.44 18.16-6.65" fill="#c6abab"/><path d="M300.06 1258.2a20.51 20.51 0 00-2.87 10.41 53.48 53.48 0 001.29 9.15 16.71 16.71 0 01-.11 8.34 13.19 13.19 0 01-2.45 4.27 25.15 25.15 0 01-2.16 2.22c-1 .89-2 1.4-2.17 2.78-.21 1.6 0 3.5-.78 5a2.57 2.57 0 01-4.06.86c-1.54-1.52-1.24-4-1.42-6l-.75-8.37q-.72-8.13-1.45-16.25c-.21-2.44-.56-4.89-.71-7.32a5 5 0 01.73-3.22c1.48-2.08 4.57-2.39 6.89-2.39a21.75 21.75 0 018.47 1.66c1.75.76 3.28-1.82 1.51-2.59a25.7 25.7 0 00-8.73-2c-2.85-.17-6.1.1-8.55 1.71a7.6 7.6 0 00-3.23 7.68c.77 6 1.12 12.06 1.66 18.07l.81 9.11c.13 1.48.26 3 .4 4.43.11 1.3.08 2.65.32 3.93a6.76 6.76 0 003.46 4.82 5.57 5.57 0 006-1.06c1.62-1.39 2-3.42 2.21-5.45 0-.49.07-1 .11-1.45a2.29 2.29 0 01.07-.79c-.22.39.56-.26.36-.12a17.42 17.42 0 002.77-2.66 15.94 15.94 0 004.28-10c.15-3.7-1-7.3-1.5-10.93a18.42 18.42 0 012.19-12.23 1.5 1.5 0 00-2.59-1.52zM330 1263.25c-6.5 3.73-6.25 14 .42 17.39 4.34 2.35 10.91 2.07 12.62 6.7 1.12 10-8.36 22.93-.21 31.63 1.76 2.18 3.82.12 3.8-2.27.89-5.81-1.13-12.08.88-17.63 3.39-5.85 6.56-4 10.94-1.19 1.37.22 2.53-2.13 1.17-2.4 4.57-3.19 7.9 3.32 10.26 6.38 6 6 10.25-1.47 6-7.34 2.06-1.65 4.79 1.36 7.44 1.44 7-1.15 3.36-10.15-1.74-11.89" fill="#c6abab"/><path d="M329.2 1262c-6.2 3.69-7.29 12.72-2.34 17.92 2.64 2.77 6.47 3.46 10 4.57a8.21 8.21 0 014.15 2.32c1 1.33.63 3.51.43 5.08-1 7.6-5.45 15.84-2.58 23.52a12.54 12.54 0 003.46 5.22 3.29 3.29 0 005-.95c1.2-1.88 1.08-4.76 1.06-6.91 0-2.69-.34-5.36-.28-8s.41-5.54 2.62-7.29c1.33-1 2.79-.59 4.17.12 1 .49 1.84 1.21 2.81 1.67a2.68 2.68 0 002.91-.59c1.5-1.35 1.56-3.87-.58-4.55l.36 2.74c2.48-1.63 4.44.69 5.89 2.61 1.79 2.39 3.28 5.13 6.39 6a4.89 4.89 0 006-3.18c1.09-2.81.21-6-1.46-8.43l-.54 2c1-.72 2.4.27 3.39.71a6.5 6.5 0 004.28.76 5.55 5.55 0 004.28-4.24c.81-4.37-2.61-9-6.6-10.43-1.81-.66-2.6 2.23-.79 2.89 2.45.9 5.4 4.58 4.34 7.34a2.27 2.27 0 01-1.16 1.24 2.87 2.87 0 01-2.7-.09c-2.1-.87-4.37-2.3-6.55-.77a1.53 1.53 0 00-.54 2c1.21 1.73 2.37 4.68.86 6.61s-3.95-.34-4.87-1.62c-2.64-3.71-6.49-9.51-11.7-6.09a1.52 1.52 0 00.36 2.74c1.59.51-.52-1.14-.51-.71 0 0-.12.14-.12.16-.16.07 0 .08.35 0a2.52 2.52 0 00-.44-.28 25.82 25.82 0 00-2.34-1.35 8.18 8.18 0 00-4.12-1c-3.82.3-6.11 4.27-6.64 7.68-.72 4.64.31 9.3-.09 14a6 6 0 01-.47 2.6c-.54.81-1-.08-1.41-.62a10.54 10.54 0 01-2.17-4.65c-.69-3.37.08-6.93.87-10.21a97.47 97.47 0 002.35-10.66 12.38 12.38 0 00-.07-5.18 7.13 7.13 0 00-3-3.48c-2.72-1.77-6.1-2.09-9.06-3.28a8.63 8.63 0 01-1.6-15.36 1.5 1.5 0 00-1.51-2.59z" fill="#c6abab"/><path d="M347.69 1274.58c6.3-1.64 14.79.37 16.44 7.57.21.9.16 1.8.29 2.71a13.6 13.6 0 001.21 3.54 8.79 8.79 0 002.79 3.69c2.28 1.56 4.81.46 6.29-1.61 2.16-3 2.33-7.21 1.66-10.75l-2.2 1.7 2.52 1.26c1.72.87 3.24-1.72 1.51-2.59l-2.51-1.26a1.52 1.52 0 00-2.21 1.69c.5 2.65.4 6-1.24 8.27a3.94 3.94 0 01-.77.8 1.18 1.18 0 01-.73.26 1.43 1.43 0 01-.8-.36 4.7 4.7 0 01-1.07-1.36 12.92 12.92 0 01-1.1-2.46 15.29 15.29 0 01-.52-3 12.54 12.54 0 00-1.56-4.71 13.88 13.88 0 00-7.48-5.92 19.33 19.33 0 00-11.32-.35c-1.87.48-1.07 3.38.8 2.89zM353.3 1286.35c-4.81-1.11-5.53 5-6.11 8.27-.08.47-.16.93-.27 1.39 0 .21-.1.41-.16.62s-.29.8-.06.26a1.54 1.54 0 00.53 2 1.52 1.52 0 002.06-.54 21.92 21.92 0 001.11-4.82 22.77 22.77 0 01.59-2.6l.18-.53c0-.06.17-.39.06-.15s0-.08.07-.14a3.62 3.62 0 01.24-.43c0-.07.12-.16.15-.23s-.09.16-.12.15a1.09 1.09 0 00.1-.11l.2-.21.08-.07c.09-.1-.26.15-.13.11l.2-.13c.28-.17-.23 0 0 0l.24-.06h-.06a.82.82 0 00.31 0s-.33-.06-.19 0h.22a1.5 1.5 0 00.8-2.9zM287.89 1287.94a5.15 5.15 0 003.06.89 4.85 4.85 0 002.86-1.26 8.53 8.53 0 002.49-5.07 9.81 9.81 0 000-3.46 1.51 1.51 0 00-1.85-1 1.53 1.53 0 00-1 1.84v.24c.06.34 0-.32 0-.07v.6a8.47 8.47 0 01-.05 1.13c0 .33.05-.3 0 0 0 .1 0 .19-.05.28s-.08.4-.13.6a9.17 9.17 0 01-.36 1.16c-.09.24.15-.34 0 0l-.12.25a5.21 5.21 0 01-.28.52l-.28.44c-.19.28.18-.22 0 0a2 2 0 01-.19.22l-.35.35-.1.09c-.13.11-.06-.06.14-.11a1.5 1.5 0 00-.23.15c-.13.09-.28.14-.41.22s.38-.13.18-.08h-.1l-.25.07h.03-.27a1.37 1.37 0 00-.28 0s.36.06.22 0h-.18l-.3-.08h-.15c-.19-.06.09 0 .13.06-.23-.15-.49-.24-.72-.39a1.51 1.51 0 00-2 .54 1.53 1.53 0 00.54 2z" fill="#bf9595"/><path d="M472.72 1551.53c-2.51-4.81-5.35-8.81-10.78-8.69 6.7-5.59 4-13.95 2.73-21.13.19-6.13 8.1-13 3.21-18.81-1.14 1.74-2.65 3.68-4.73 3.61-4.48-.14-4.95-8.85-9.42-8.51-2 .16-3.26 2.29-3.21 4.25 5.58 11.13-.7 25.44-12.7 29.3 1.12-6.57.76-16.25-7-18.2-4.09-.86-8.69 1.81-12.36-.19.14-14.39 4.19-50.49-20.45-35.1 1.46-14.84-19.71-19.58-24.72-5.55-8.24-38.22-17.56-21.5-22.91 5.36-2.25-5.45-10.55-6-15-2.13-9.4 8.59-3.8 22.81-5.52 33.83-4.21-3.48-11.75-1-13.05 4.33-2.06-2.46-3.24-2.43-6.13-.89 0 3 5.43 32.06 7.15 44 24.61-.76 49.19 5 73.81 7.65 25.65 2.68 50.87 2.18 76.59 2.57-.6-5.45 7-10.88 4.49-15.7z" fill="#8c8b8b"/><path d="M474 1550.77c-2.57-4.88-6-9.46-12.08-9.43l1.06 2.56c5.06-4.35 5.24-10.66 4.21-16.78-.26-1.5-.57-3-.85-4.47a6.84 6.84 0 01.45-3.81c1-2.77 2.6-5.27 3.52-8.06a9 9 0 00-1.39-8.94 1.5 1.5 0 00-2.35.3c-.88 1.31-2.46 3.68-4.3 2.59-1.23-.73-1.93-2.34-2.62-3.52-1.65-2.86-4.53-6.36-8.16-4-1.82 1.2-3.09 4-2.14 6a18.07 18.07 0 011.63 6 20.19 20.19 0 01-2.75 11.93 19.85 19.85 0 01-10.83 8.84l1.85 1.85c.85-5.16 1.07-11.44-2.09-15.92a10.06 10.06 0 00-7.14-4.31c-3.46-.34-7.55 1.78-10.82.14l.74 1.3c.08-7.69.71-15.39 0-23.07-.6-6.13-2.12-15.25-9.27-17-4.67-1.14-9.53 1.27-13.39 3.66l2.26 1.3a13.83 13.83 0 00-7.09-13.55 14.92 14.92 0 00-14.71.12 14.38 14.38 0 00-5.87 7.48h2.9c-1.26-5.78-2.66-11.69-5.2-17.08-1.15-2.45-2.89-5.56-5.74-6.29-2.54-.64-4.67 1.14-6.1 3a34 34 0 00-4.55 9.45 123.09 123.09 0 00-4.21 16.25l2.74-.36c-2.9-6.6-12.49-6.71-17.37-2.43-6.12 5.38-6.32 14-5.94 21.48.22 4.31.67 8.72 0 13l2.51-.66c-5.2-4.11-13.8-1.55-15.55 5l2.5-.67a5.87 5.87 0 00-3.7-2.36 7.8 7.8 0 00-4.25 1.24 1.48 1.48 0 00-.74 1.3 36.49 36.49 0 00.59 4.65c.44 2.82.91 5.63 1.39 8.44 1.2 7.09 2.44 14.18 3.63 21.27.56 3.33 1.11 6.65 1.59 10a1.5 1.5 0 001.45 1.1c19.62-.57 39 2.91 58.35 5.67 9.71 1.39 19.44 2.5 29.23 3.14s19.59.92 29.39 1.07c11.15.17 22.29.17 33.43.34a1.51 1.51 0 001.5-1.5c-.25-3 1.88-5.63 3.23-8.11s2.45-5.43 1.07-8.3c-.84-1.73-3.43-.21-2.59 1.52 1.1 2.28-.93 5-2 6.93-1.39 2.41-2.93 5.06-2.69 8l1.5-1.5c-19.63-.29-39.28-.07-58.89-1.17q-14.79-.84-29.45-2.86c-9.68-1.34-19.34-2.91-29-4.15a210.86 210.86 0 00-33-2l1.45 1.1c-1.88-12.87-4.39-25.64-6.43-38.49a35.78 35.78 0 01-.67-5.06l-.75 1.29a4.62 4.62 0 012.51-.86c.75.14 1.35 1 1.81 1.52a1.52 1.52 0 002.51-.67c1.11-4.16 7.05-6.42 10.54-3.66.76.61 2.32.59 2.5-.66 1-6.93-.38-13.88 0-20.83.34-6.07 3.05-13.6 10-14.34 3.14-.34 6.41.79 7.75 3.83a1.51 1.51 0 002.74-.36 138.15 138.15 0 013.4-13.76 43.92 43.92 0 014-9.64 10.15 10.15 0 012.05-2.59c.3-.27 0 0 .3-.23l.51-.3a2.71 2.71 0 01.7-.14c.44 0-.21-.08.23 0 .24 0 .48.17.33.09a2.89 2.89 0 011 .74 12.74 12.74 0 012.23 3.31c2.69 5.29 4 11.37 5.26 17.13.34 1.56 2.43 1.28 2.9 0a10.81 10.81 0 019.63-7.27 11.89 11.89 0 0110.48 5 11.36 11.36 0 011.66 7.42 1.51 1.51 0 002.26 1.29c3-1.87 7-4 10.51-3.48 2.61.41 4.21 2.2 5.38 4.64a28.84 28.84 0 012.24 9.46 102.43 102.43 0 01.37 11.75c-.06 3.82-.27 7.62-.31 11.44a1.48 1.48 0 00.74 1.29c3.2 1.61 6.42.65 9.78.31 2.74-.28 5.29.4 7 2.65 2.84 3.71 2.6 9.38 1.88 13.74-.18 1 .65 2.24 1.84 1.84A23.4 23.4 0 00454 1513.1a21.64 21.64 0 00-.36-6.52 19.67 19.67 0 00-.85-2.93c-.2-.52-.49-1-.66-1.56-.24-.73-.14.21-.05-.42a3.14 3.14 0 01.28-.9c1.94-4.13 5 2.54 5.91 3.88 1.06 1.61 2.45 3.1 4.47 3.32 3 .32 5-2.08 6.47-4.32l-2.36.31c2.17 2.72.74 6.09-.56 8.86s-3.42 6.1-3 9.28c.41 3.45 1.48 6.76 1.56 10.26a11.37 11.37 0 01-3.9 9.42 1.51 1.51 0 001.06 2.56c4.89 0 7.44 4.06 9.49 8 .82 1.66 3.41.14 2.5-1.57z" fill="#8c8b8b"/><path d="M329.55 1558.87a129.67 129.67 0 00-8.75-30.93c-1.34-3.23-2.71-7.25-.46-9.92 6.28-6 13.2 4.32 19.46 5.24-8.56-21-9-64.21 15.76-24.4 1.42-6.59-.18-14.85 3.9-20.43 6.31-4.76 12.5 3.29 14.05 9.13 5.59-1 8.39-9.41 14-8.74 9.23 3.44 8.11 18 9.08 26.3 4.67-3.32 9.51-13.71 15.91-11.21 4.39 8.9 2.59 20.53 1.1 30.14 3.42-.1 6.48-2.91 9.85-2.39 9.58 4.06 10 18.78 8.51 27.76 6.8.18 10.42-10.36 17.2-9.73 8.34 2.59 18.06 13.59 13.26 22.58" fill="#a8a8a8"/><path d="M331 1558.47a129.28 129.28 0 00-7.86-28.76c-1.15-2.89-4.5-8.78-1-11.22 2.58-1.81 5.54-.2 7.87 1.25 3 1.83 5.89 4.38 9.42 5 1 .17 2.32-.67 1.85-1.84a73.41 73.41 0 01-5.25-27.35 34.72 34.72 0 01.39-5.61 14 14 0 011.22-4.08 3.5 3.5 0 01.86-1.18 2 2 0 01.82-.47 1.86 1.86 0 011 0 4.79 4.79 0 011.67.68 21.44 21.44 0 015.22 4.79 83 83 0 017.07 10 1.52 1.52 0 002.74-.36A76.13 76.13 0 00358 1489a29.91 29.91 0 01.73-5.24c.33-1.34.86-3.32 1.85-4.3 2-2 5.26-.73 7 .9a16.22 16.22 0 014.49 7.56 1.53 1.53 0 001.84 1c3.05-.64 5.27-3 7.36-5.08 1.45-1.49 4.05-4.52 6.43-3.43 5.31 2.43 6.22 9.66 6.7 14.76.3 3.28.37 6.58.74 9.86.11 1 1.23 2 2.25 1.29 2.79-2 4.77-4.94 7.09-7.46 2-2.13 4.54-4.74 7.67-3.6l-.89-.69c4.29 8.91 2.39 19.63.95 29a1.52 1.52 0 001.44 1.9 19.53 19.53 0 005.88-1.69 9.46 9.46 0 012.86-.76 1.48 1.48 0 01.89.1 6.49 6.49 0 011 .55 13 13 0 015.15 6.72c2.16 5.81 2.13 12.5 1.13 18.55a1.52 1.52 0 001.45 1.9c6.17 0 9-6.19 13.81-8.93a4.61 4.61 0 013.41-.72 15.68 15.68 0 014.32 2.23 22 22 0 016.91 7.43c1.82 3.27 2.49 7.14.72 10.58-.88 1.72 1.71 3.24 2.59 1.52 3.72-7.25-.44-15.25-6.1-20.12a25.38 25.38 0 00-4.58-3.19c-1.5-.8-3.19-1.67-4.93-1.54-3.23.23-5.75 2.4-8 4.55s-4.76 5.21-8.16 5.19l1.44 1.9a45.26 45.26 0 00-.06-16.37c-1.06-5.15-3.65-10.45-8.6-12.84-3.81-1.84-7.39 1.72-11.14 1.94l1.45 1.9c1.27-8.25 2.66-16.83.88-25.12a22.56 22.56 0 00-2-5.82c-.74-1.4-2.65-1.59-4.1-1.44-2.93.3-5.3 2.36-7.24 4.42-2.25 2.38-4.13 5.39-6.8 7.33l2.26 1.3c-.73-6.43-.33-13.16-2.56-19.33a14 14 0 00-5.42-7.35 6 6 0 00-4.59-1 9.42 9.42 0 00-4.12 2.19c-2.65 2.19-4.76 5.76-8.33 6.5l1.84 1.05c-1.64-5.94-7.61-14.23-14.73-10.94-3.65 1.69-4.57 6.52-5 10.14-.49 4-.26 8.12-1.08 12.1l2.74-.36c-3.36-5.38-7.08-11.36-12.31-15.15-2.49-1.82-5.9-2.77-8.33-.31s-2.88 6.54-3.11 9.81a65.67 65.67 0 00.86 14.68 74.7 74.7 0 004.38 16.52l1.85-1.84c-6.36-1.06-11.53-9.72-18.58-6.48-4.42 2-4.48 6.79-3.1 10.85.85 2.49 2 4.9 2.89 7.37s1.78 5 2.55 7.52a124.81 124.81 0 014.14 18.2c.28 1.9 3.17 1.1 2.89-.8z" fill="#a8a8a8"/><path d="M332.22 1555.2c-6.16-2.45-13.06-8.64-12.83-15.68 3.09-3.07 2.48-6.53.21-10.25-4.28-15.67 14.45.31 19.83 2.42 2.1-6.7-.55-36.13 12.5-24.09 1.69 1.88 3.17 4.17 5.54 5.06 4 1.45 11.46-2.11 13.07 3.52 3-8.49-6.13-24.48.92-28.37 10.55-.9 17.77 13 18 22.29 11.43-14.47 15.2 3.4 14.64 13.53 5.93-2.41 16.64 1.78 12.17 9 14.93-8 15.3 13.65 12.85 23" fill="#c6abab"/><path d="M332.62 1553.75c-5.65-2.3-11.84-7.63-11.73-14.23l-.44 1.06a8.26 8.26 0 002.56-5.76 9.12 9.12 0 00-.51-2.93c-.39-1.17-1.11-2.19-1.54-3.33a8.75 8.75 0 01-.47-3.65 2.23 2.23 0 01.27-.79c-.05.12.17-.09.15-.09a3.23 3.23 0 011.84.15 16.8 16.8 0 013 1.22c2.41 1.21 4.7 2.67 7 4.11a40.62 40.62 0 006.33 3.63 1.52 1.52 0 001.85-1.05c.87-2.85.87-6 1.08-9a79.29 79.29 0 011.26-11.08 15.74 15.74 0 011.33-4.06 3.68 3.68 0 01.94-1.26c.08-.08.3-.23.08-.08a2.07 2.07 0 01.32-.19c.26-.13 0-.11.48-.16h.1a3.53 3.53 0 01.46 0h.15a4.91 4.91 0 01.51.15 8.31 8.31 0 011.87 1c2.32 1.67 3.64 4.34 6.09 5.89s5.16 1.17 7.83 1c2.17-.11 4.93-.33 5.71 2.18a1.51 1.51 0 002.89 0c1.24-3.64.61-7.68 0-11.37s-1.78-7.7-1.71-11.61a5.94 5.94 0 011-3.7c.14-.16.31-.29.46-.45s.67-.28.08-.16a3.88 3.88 0 01.59 0 9.63 9.63 0 012.87.41c3.84 1.13 6.74 4.34 8.75 7.66a26.52 26.52 0 013.93 12.76c0 1.18 1.7 2.14 2.56 1.06 1.49-1.85 3.78-4.78 6.31-5 1.52-.13 2.63 1.21 3.41 2.7 2.28 4.33 2.6 10 2.36 14.76a1.5 1.5 0 001.89 1.45 10.59 10.59 0 018.5.55 5.42 5.42 0 012.61 2.48 4.21 4.21 0 01-.62 3.78 1.51 1.51 0 002.05 2c1.85-1 4.15-1.91 6.22-1.42a5.54 5.54 0 013.48 3c2.09 3.78 2.19 8.66 2 12.86a36.3 36.3 0 01-1 7c-.48 1.87 2.41 2.67 2.89.79a40.08 40.08 0 00.85-15.23c-.61-4.37-2.31-9.7-7-11.13-3-.93-6.22.21-8.88 1.62l2 2.05a7 7 0 00-2.4-10 13.45 13.45 0 00-11.47-1.23l1.9 1.44a36.15 36.15 0 00-1.78-14c-1.29-3.52-3.93-7.34-8.22-6.26-3 .74-5.35 3.37-7.2 5.68l2.56 1.06a29.57 29.57 0 00-3.64-13c-2.11-3.94-5.24-7.73-9.41-9.59a12.21 12.21 0 00-6.4-1.17c-1.76.26-3.06 2.11-3.64 3.67-1.37 3.65-.28 8.07.42 11.74.85 4.44 2.36 9.61.85 14.06h2.8a6 6 0 00-5.51-4.34c-2.46-.28-4.94.33-7.39 0-3.13-.35-4.52-3.63-6.68-5.48a10.52 10.52 0 00-4.87-2.68c-3.46-.58-5.47 2.31-6.47 5.2-1.29 3.7-1.58 7.77-1.89 11.64-.29 3.71-.15 7.73-1.19 11.12l1.85-1c.31.12-.38-.18-.49-.24l-.85-.46c-.74-.41-1.46-.86-2.18-1.3-1.58-1-3.15-2-4.74-3-2.86-1.75-6.12-3.9-9.53-4.26-3.59-.37-4.85 2.66-4.47 5.75a11.48 11.48 0 00.73 3.28c.73 1.59 1.71 3 1.71 4.79a4.59 4.59 0 01-.45 2c-.37.76-1.09 1.24-1.46 2-.59 1.12-.1 3.11.2 4.25 1.65 6.44 7.61 11.22 13.52 13.63 1.79.72 2.56-2.18.8-2.9zM438.44 1556.74a67.32 67.32 0 0017.38-43.34c-.8-3.13 3.34-7.12 4.66-2.71 3.94 10-1 11.68-3.41 19.58 2.82 7-4.2 12.09-4.68 18.76.3 1.16 1.84 1.32 3 1.61a6.16 6.16 0 014.15 7.73" fill="#c6abab"/><path d="M439.5 1557.8c11-12.14 18-28.7 17.72-45.17 0-.59.52-2.44 1.37-2.39.48 0 1.25 3.14 1.4 3.73a11.14 11.14 0 01-.85 8.19c-.65 1.31-1.38 2.58-2 3.9s-1.83 3.37-1.37 5a8.52 8.52 0 01.18 4.72 22.31 22.31 0 01-1.95 4.62 37.24 37.24 0 00-2.39 5.22c-.6 1.73-1.29 4 .31 5.34 1.4 1.2 3.43.87 4.82 2.11a4.69 4.69 0 011.37 5c-.59 1.84 2.31 2.63 2.9.8a7.72 7.72 0 00-4.07-9.16 22.09 22.09 0 00-2.52-.75 1.33 1.33 0 01-.48-.18c-.31-.27 0 0 0 0a3.88 3.88 0 01.32-1.55 26 26 0 012.11-4.84c1.64-3.19 3.3-6.51 2.76-10.2a8 8 0 01-.37-2.14 15.23 15.23 0 011.12-2.67c.65-1.34 1.4-2.63 2-4a13.91 13.91 0 001.2-9.23c-.56-2.69-2.08-8.54-6-6.45-3.39 1.78-2.66 5.7-2.88 8.84a65.94 65.94 0 01-16.8 39.2c-1.3 1.43.82 3.56 2.12 2.12z" fill="#c6abab"/><path d="M378.52 1539.22a27.31 27.31 0 00.2-6.64 16 16 0 01.09-2.81 4.93 4.93 0 011-2.42 1.55 1.55 0 000-2.12 1.51 1.51 0 00-2.13 0 9.71 9.71 0 00-2 6.59c0 2.19.37 4.53-.07 6.6a1.5 1.5 0 102.89.8zM345.39 1540.2a3.88 3.88 0 01-.77-1.53c0 .11.1-.14 0 0s.07-.09.09-.12c-.13.25 0 0 .09-.06-.29.21.41-.2.32-.16a5.48 5.48 0 01.72-.2 7.79 7.79 0 011.79-.16 15.52 15.52 0 014.28.65 6.45 6.45 0 012.86 1.5c1 1.08 3 0 2.51-1.46a34.76 34.76 0 01-2.1-7 11.15 11.15 0 010-3.46 2.94 2.94 0 01.22-.93c-.12.18.07 0 .13 0a4.78 4.78 0 011.21-.67c3.38-1.35 7.56.25 9.84 2.89 1.27 1.46 3.39-.67 2.13-2.13-3.09-3.56-8.77-5.34-13.22-3.47a5.2 5.2 0 00-2.87 2.26 10.48 10.48 0 00-.53 4.38 30.18 30.18 0 002.33 8.94l2.5-1.46a9.3 9.3 0 00-4.57-2.38 16.7 16.7 0 00-5.84-.6c-1.62.15-3.53.59-4.42 2.11-1.07 1.82.05 3.76 1.19 5.21s3.29-.61 2.12-2.12zM395.92 1536.67c1.06-.92 4.47-3.85 5.66-1.76s0 5.37-.86 7.33c-.78 1.72 1.61 3.22 2.59 1.51 1.73-3 4.62-6.41 8.13-7.35 1.17-.31 2-.18 2.61.65 1.19 1.74.86 4.45.65 6.4-.14 1.33 1.72 1.94 2.56 1.06 1.4-1.45 3.31-3.34 5.49-3.32a4.28 4.28 0 013.39 2.35c2.2 3.49 2.73 8.1 2.49 12.13-.11 1.93 2.89 1.92 3 0 .29-4.87-.52-10.72-3.62-14.66a6.73 6.73 0 00-5.47-2.82c-3 .12-5.44 2.17-7.4 4.2l2.56 1.06c.28-2.61.41-5.78-1.16-8.06a5 5 0 00-5.2-2c-4.56.76-8.45 5.07-10.62 8.88l2.59 1.51c1.42-3.13 2.84-7.86.47-10.93-2.77-3.57-7.47-.44-10 1.73-1.46 1.26.67 3.38 2.12 2.12zM382.73 1518.75a12.29 12.29 0 011.38-2.38c-.15.2.13-.14.17-.19s.24-.27.37-.4l.38-.35.19-.16c.13-.12-.2.13 0 0s.51-.33.79-.48l.2-.09c-.31.15-.14 0-.06 0l.5-.16.4-.08c.24-.06-.31 0 .1 0h.79.09a2.36 2.36 0 01.38.1c.13 0 .25.09.38.13-.4-.11.07 0 .19.1a8 8 0 01.69.43c-.27-.18 0 0 .11.1l.35.33c.1.11.2.21.29.32s.25.33.08.09a10.07 10.07 0 01.56.88c.07.13.14.28.21.42a2.14 2.14 0 01.1.22s-.1-.28 0 0a9.43 9.43 0 01.32 1 9.86 9.86 0 01-.15 4.93 1.5 1.5 0 002.89.79c1-3.58.6-7.62-1.91-10.5a6.62 6.62 0 00-8.31-1.51 10.49 10.49 0 00-4.09 4.9 1.53 1.53 0 00.54 2 1.51 1.51 0 002.05-.54zM454.68 1532c.94 8.45-2.87 16.3-6.55 23.65-.87 1.73 1.72 3.25 2.59 1.52 3.9-7.79 8-16.21 7-25.17-.21-1.9-3.21-1.92-3 0z" fill="#bf9595"/><path d="M752.23 1043c-3.83-55.87-22.88-124.63-22.88-124.63s-14.59-306.95-52.89-331.94c-10.88-7.1-142.29-56.21-142.29-56.21s-2.49 55-82.84 55c-65.08 0-82.1-39.23-86.21-51.38a10.79 10.79 0 01-.75-2.59c-1 .65-100.94 62.69-145.44 89.5C174.2 647.71 192.25 945 192.25 945a619.79 619.79 0 00-3.6 128.12c5.53 68.42-1.88 179.2 14.45 197.94l61-1.5s-5.6-14.35-4.65-27c2.27-30.22 5.53-104.27 15.36-135.22s21.45-88.31 21.45-88.33c.49 23.68.3 42.23-1 50.33-3.6 21.92-31.66 102.78-17.78 133.07-3.34 29.28-3.7 60.94-3.7 60.94S367.4 1295 444.4 1294c137.52-1.66 240.17-35.54 240.17-35.54s-2.28-35.7-5.32-60.52c9.94-22.62-4.2-83.52-17.92-143 17.07 47.16 40.25 126.63 42.46 162.33 1.64 26.39 2.89 34.36 2.89 34.36h58.1s4.48-6.67 5.3-18.89-12.27-108.46-17.85-189.74z" fill="#262521" stroke="#262521" stroke-linecap="round" stroke-linejoin="round" stroke-width="3"/><path d="M670.47 1095.37c-2.87-13.22-6-26.83-9.14-40.36 2.75 7.6-1.33-36.17-3.22-53.94-3-28.37-12-147.2-13.5-168.3-1.26-18.19-6.4-69.15-5-65.58 5.65 14.93-10.91-29.42-18.67-43.38s-16.15-28-26.17-40.65-20.87-24.54-30.06-37.77c-4.93-7.09-9.4-14.54-13.93-21.88S534.67 597.07 529 588c-4.62 8-40.24 20.73-76.72 23.13-35.41 2.33-66.71-13-66.71-13-5.15 6.8-31 47.82-40.62 64-4.83 8.17-9.52 16.46-14.63 24.45-4.37 6.84-8.79 13.65-13.09 20.54a315.69 315.69 0 00-22.14 41.26c-4 9.19-7.25 21.67-8.47 38 0 .64 3.07 46.07 3.35 64.06.59 37.17 6.29 168.56 6.29 168.55.49 23.68.3 42.23-1 50.33-3.6 21.92-31.66 102.78-17.78 133.07 109.11 58 369 32.22 401.84-4.47 7.35-16.83-8.78-101.37-8.85-102.55z" fill="#33322e"/><path d="M290.55 874.15c2.13-4.91 20.5-21.45 21.62-36s-10.74-38-11.37-42.29c-1.23-8.22 2.6-26.9 4.49-34.92 2-8.38 12.86-51.14 13.95-57-.68 1.08-1.37 2.15-2.05 3.24a315.69 315.69 0 00-22.14 41.26c-4 9.19-7.25 21.67-8.47 38-.04.63 3.67 78.08 3.97 87.71zM661.33 1055c2.75 7.6-22.94-289.59-21.83-288-3.41-8.78-13.16-33.46-18.6-43.24-7.84-14.09-16.15-28-26.17-40.65-1.29-1.63-2.59-3.24-3.9-4.85 9.5 28.36 32.25 84 34.5 143.52s15.57 121.71 15.52 157.74a329.36 329.36 0 01-4.11 52.85c-1.43 8.69-3.58 17.22-4.79 25.95a112.52 112.52 0 00-.8 27.56c1.77 16.37 16.2 35.31 18.84 51.5 1.63 10 1.84 21-1.86 30.61-5.89 15.25-23.21 57.75-321.22 53 123.49 32.54 323.8 8.87 352.34-23 11.85-24.61-14.79-129.45-17.92-142.99z" fill="#fff" opacity=".13"/><path d="M402.88 614.31c10.94 12.22 25.11 22.8 41.19 26.94a45.13 45.13 0 0037.53-6.07c10.23-6.67 18.15-16.34 25.66-25.82 3.6-4.54 7.13-9.21 10.84-13.7-14.19 6.76-39.8 13.76-65.86 15.48-24.88 1.64-47.72-5.44-59.11-9.8a123.4 123.4 0 009.75 12.97z" fill="#fff" opacity=".2"/><path d="M273.71 1263.38S367.4 1295 444.4 1294c137.52-1.66 240.17-35.54 240.17-35.54" fill="none" stroke="#636363" stroke-linecap="round" stroke-linejoin="round"/><path d="M364.37 531.26h0s.01-.03 0 0z" fill="#262521" stroke="#262521" stroke-linecap="round" stroke-linejoin="round" stroke-width="3"/><path d="M661.33 1055c-1.22-47.59-23.42-300-23.42-300M285.65 770.51s12.19 215.25 10.68 254.28M475.21 1572.59l7.75-172 25.52-8.68L535 1572.59h160l-21.08-352.53s-50.92 31.68-192.82 36.18-205.19-19.79-205.19-19.79l41.32 336.14zM679.25 1198c9.94-22.62-4.2-83.52-17.92-143" fill="none" stroke="#262521" stroke-linecap="round" stroke-linejoin="round" stroke-width="3"/><path d="M296.22 1019c.49 23.68.3 42.23-1 50.33-3.6 21.92-31.66 102.78-17.78 133.07" fill="none" stroke="#262521" stroke-linecap="round" stroke-linejoin="round" stroke-width="3"/></svg>