<svg xmlns="http://www.w3.org/2000/svg" width="1000" height="1550" viewBox="0 0 1000 1550"><defs><clipPath id="a"><path d="M279.44 1264.52s61.79 24.3 203.69 19.79S676 1248.13 676 1248.13l20.1 342.24-158.7-1.85-28.9-196.61-25.5 8.68-8.84 196.24-153.94-.22z" fill="none"/></clipPath></defs><path d="M279.44 1264.52s61.79 24.3 203.69 19.79S676 1248.13 676 1248.13l20.1 342.24-158.7-1.85-28.9-196.61-25.5 8.68-8.84 196.24-153.94-.22z" fill="#e5e5e5"/><g clip-path="url(#a)"><path d="M380 1429.47c4.83-11.54-6.31-87.87-26.08-59.25-1.81 5-.38 10.45 1.06 15.53l28.94 102.18a84.71 84.71 0 00-4.24-35c3.32 2.42 4.4-3 2.7-5.32a43.61 43.61 0 01-2.4-23.49M391.62 1432.09c-7.45-10-15-86.81 11.09-63.79 3 4.38 2.88 10.06 2.7 15.34l-3.56 106.14a84.84 84.84 0 01-4.29-35c-2.64 3.14-5-1.85-3.89-4.52a43.71 43.71 0 00-3.31-23.38M274.17 1277.44c47.68-8.85 67.82 24.77 103.13 45.5 4.4 1.19 6.82 6.88 1.24 7.92-7.21-.46-13.82-5-19.84-8.75l-2 9.92a128.66 128.66 0 01-15-8.46c-.57 4.19 8.26 9 3.52 12.85-2.64 1.57-7.3-2.87-9.23.55a6.31 6.31 0 00-.83 2.19c-.26 7.18-1.62 6.92-2.24 6.78-3.5-.79-6.57-8.36-10-9.4a104.76 104.76 0 0116 41.61c-5 1.13-9.18-3.64-12.08-7.86q1.62 11.25 2.66 22.58c-24.68-23.12-9 4.57-17.2 15.84-2.24 1.51-4.77-1.42-6-3.85a126.77 126.77 0 00-24.04-33.86c-2.09-1.63-1.4-33.4 1.59-38.14 2.64-2 4.24-5.88 7.53-6 13.73 5.31 20.71 21.13 28 33.36 1.15-7.73-3.08-14.4-5.21-21.34 1.88-7.3-4.17-13.55-7.08-19.84-5.11-13-20.53 4-25.76-5.42" fill="#3f3e39"/><path d="M460.75 1280c-20.24-4.27-42 2.53-61.77 8.7-12.39 3.88-37.34 3.49-45.89 13.26-6.18 7.06 2.56 20.35-3.14 27.8 4 3.47 10.11-6.36 5.69 8.94l17.93-.28a145.37 145.37 0 00-8.75 12.57c7.54.39 14.24-3.44 20.93-5.79 2.16.48 1.45 3.65 1.67 5.85 0 3.89 6.15 5.18 6.57.93 8.43 4.34 8 6 14.83-1.63l4.38 13.65a32.54 32.54 0 0010.54-9 26.53 26.53 0 013.22 9.79c4.91.35 8.82-5.9 13.61-4.73 6.23 3 6.55 8.61 15.21 5.85 17.45 3 14.17.19 29.27-4.86 5.33 0 11.22-1.08 9.6-7.49-3.27-12.91 8.65-27.59 2.91-38.43-9.29-7.87-4.73-11.72 0-21a2.06 2.06 0 00-1.69-3l-35.13-11M359.41 1352.05l-4.81.91c.84-2.33-1.76-3.24-3.62-3.33-2.09-3.28-9.58-5.6-9.64.24-.53 4.12 2.24 8 1.81 12a2.25 2.25 0 004.09 1.72c1.26-1.91 3.07-4.72 5.67-4 7.17 6.64 12.69-8.51 6.5-7.54zM364.94 1481.59s-17.39-91.88-23.3-91.88 16.41 59.72 23.3 91.88zM339 1447.28v2.38a1.7 1.7 0 00.2.86 1.68 1.68 0 00.46.72 1.71 1.71 0 00.72.46 1.67 1.67 0 00.86.19l.59-.08a2.24 2.24 0 001-.57 2.34 2.34 0 00.65-1.58v-2.38a1.72 1.72 0 00-.19-.86 2 2 0 00-1.18-1.18 1.72 1.72 0 00-.86-.19l-.6.08a2.24 2.24 0 00-1.64 2.15zM345.06 1458.88a73.46 73.46 0 019 14.82 2.25 2.25 0 003.06.8 2.29 2.29 0 00.8-3 78.27 78.27 0 00-9.7-15.73 2.25 2.25 0 00-3.16 0 2.29 2.29 0 000 3.16zM338.62 1465.89v13.46a2.23 2.23 0 104.46 0v-13.46a2.23 2.23 0 10-4.46 0z" fill="#3f3e39"/><path d="M338.68 1467.68l6 15a2.31 2.31 0 002.75 1.56 2.25 2.25 0 001.55-2.75l-6-15a2.31 2.31 0 00-2.75-1.56 2.25 2.25 0 00-1.56 2.75zM421.35 1386.51a5.92 5.92 0 00.89-1.27 5.17 5.17 0 00.46-1.32 6.27 6.27 0 00.11-1 7.5 7.5 0 00-.1-.94 4.14 4.14 0 00-.41-1.18 4.26 4.26 0 00-.66-1l-.2-.2a3.89 3.89 0 00-.66-.49l-.1-.06a6.11 6.11 0 00-.64-.26h-.1a4.19 4.19 0 00-.7-.09h-.1a4.19 4.19 0 00-.7.09h-.1a3.15 3.15 0 00-.63.27 4.26 4.26 0 00-.54.41l-.11.1a6.07 6.07 0 00-.43.57l-.09.14a5.45 5.45 0 00-.36.9 6.33 6.33 0 00-.17 1.06 1.7 1.7 0 00.19.86 1.71 1.71 0 00.46.72 1.74 1.74 0 00.72.46 1.7 1.7 0 00.86.19 2.22 2.22 0 001.58-.65l.35-.45a2.25 2.25 0 00.3-1.13l-.08.59a2.68 2.68 0 01.17-.69l-.22.53a1.39 1.39 0 01.18-.31l-.35.45a1.14 1.14 0 01.15-.16l-.45.35.18-.1-.54.22h.17l-.59.08h.2l-.59-.08a1 1 0 01.23.06l-.54-.22a.92.92 0 01.27.16l-.45-.35a1.82 1.82 0 01.31.31l-.35-.45a3.24 3.24 0 01.28.47l-.23-.53a2.26 2.26 0 01.17.63l-.08-.6a2.66 2.66 0 010 .69l.08-.6a2.79 2.79 0 01-.19.7l.22-.53a3.14 3.14 0 01-.44.75l.35-.45-.14.18a1.62 1.62 0 00-.46.72 1.68 1.68 0 00-.2.86 2.57 2.57 0 00.66 1.58 2.23 2.23 0 003.15 0zM375.87 1365.94l1.74 9.7c.39 2.16 3.88 2.11 4.31 0 .69-3.38 1.81-7.24.5-10.62a6.73 6.73 0 00-1.66-2.71 5.22 5.22 0 00-3-1.21 4.35 4.35 0 00-4.67 3 2.23 2.23 0 104.3 1.18c.14-.41-.24.43 0 .1-.24.29-.29.36-.14.18s.11-.1-.05 0c-.35.22.05 0 .11 0s.07 0-.26.11h.34-.23a1.61 1.61 0 00.38 0c.4 0-.51-.14-.1 0 .09 0 .3.13.37.11-.15 0-.48-.25-.08 0 .17.1.38.34 0-.06.3.28-.25-.41 0 0a3.34 3.34 0 01.25.4c0 .07.23.33.22.42-.12-.3-.14-.34-.05-.11l.05.15a6.62 6.62 0 01.26 1 2 2 0 010 .24c0-.31-.05-.38 0-.2s0 .31.05.47v1.06c0 .35 0 .66-.06 1a2.73 2.73 0 01-.06.5c.16-.55 0-.07 0 .07-.2 1.32-.51 2.63-.78 3.94h4.31l-1.75-9.7a2.23 2.23 0 00-2.74-1.56 2.28 2.28 0 00-1.56 2.74zM381 1351.92a9.81 9.81 0 00-11.65 4.72 2.23 2.23 0 103.86 2.25 5.45 5.45 0 01.29-.53 3.21 3.21 0 01.19-.31c.05-.08.29-.36 0-.07l.06-.06c.06-.06.13-.15.2-.23s.31-.32.48-.47l.18-.16c.34-.29-.44.31-.07 0l.51-.34a5.54 5.54 0 01.53-.3l.33-.16c.35-.17-.4.15-.14 0a9.86 9.86 0 011.17-.36l.3-.06h-.11 1.52a1.34 1.34 0 10-.17 0c.42.13.87.18 1.3.33a2.23 2.23 0 002.74-1.56 2.28 2.28 0 00-1.56-2.74zM362 1344.72c-1.29-.21-2.58-.43-3.84-.74-.6-.14-1.19-.3-1.77-.49l-.8-.28c-.08 0-.57-.23-.19-.07l-.18-.08a9.78 9.78 0 01-1.33-.77c-.41-.27.32.29.07.06l-.24-.21c-.17-.16-.31-.36-.48-.51 0 0 .33.48.17.21l-.08-.12-.15-.26c-.19-.36 0-.08 0 .14a1.83 1.83 0 00-.11-.33c0-.12-.05-.24-.08-.35-.11-.33 0 .54 0 .18v-.78c.05-.57-.07.33 0 0 0-.17.07-.34.12-.51a8.56 8.56 0 01.34-1c.08-.23-.07.17-.07.17s.1-.23.13-.29c.1-.21.2-.41.31-.61.24-.45.51-.88.78-1.3a2.23 2.23 0 10-3.85-2.26c-1.75 2.69-3.11 6.14-1.47 9.21 1.31 2.44 4.18 3.62 6.7 4.33a46 46 0 004.78 1 2.3 2.3 0 002.75-1.56 2.27 2.27 0 00-1.56-2.75zM417.26 1400.83a45.37 45.37 0 00-1.59 17.91 2.34 2.34 0 001.64 2.16 2.28 2.28 0 002.52-1 31.7 31.7 0 004.27-18.15c-.13-1.81-2.41-3.09-3.81-1.58a4.9 4.9 0 00-1.16 4.95 2.3 2.3 0 002.75 1.56 2.27 2.27 0 001.56-2.75c-.06-.27-.09-.32-.09-.13v-.15c.09-.27.1-.32 0-.17.14-.24.17-.29.1-.15l-3.81-1.58a27.55 27.55 0 01-3.65 15.9l4.16 1.12a41.86 41.86 0 011.43-16.73c.82-2.76-3.49-3.94-4.31-1.18z" fill="#3f3e39"/><path d="M417.16 1419a12.31 12.31 0 010 2.71 30.19 30.19 0 01-.63 3c-.6 2.36-1.37 4.68-2 7-1.1 4.4-1.57 9.32 2.47 12.34l1.13-4.16c-2.85.16-6.3.3-8.73 2s-2.52 4.62-1 7a16 16 0 001.53 1.95 21.12 21.12 0 012 2.09 13.34 13.34 0 011.72 5 34.23 34.23 0 01-.38 11.24c-.69 4.43-1.67 8.83-2 13.3a2.25 2.25 0 002.23 2.24 2.28 2.28 0 002.23-2.24c.59-7.13 2.85-14.09 2.7-21.3a22.44 22.44 0 00-2.5-10.33c-.84-1.53-2.39-2.47-3.43-3.86a7.32 7.32 0 01-.52-.8c-.19-.35 0 0-.14-.3a2.72 2.72 0 01-.11-.38c0 .15.11.21 0 .14a.71.71 0 010-.25c0 .14-.06.4 0 .12-.05.18-.18.3-.05.16s.25-.2.05 0 .25-.16.25-.15a4.56 4.56 0 011.32-.5 23.7 23.7 0 014.75-.63 2.25 2.25 0 001.13-4.16 3.55 3.55 0 01-.83-1.18 5.31 5.31 0 01-.25-2.26 26.27 26.27 0 011.22-5.94c1.19-4.19 2.84-8.61 2.05-13a2.25 2.25 0 00-2.75-1.56 2.29 2.29 0 00-1.56 2.75zM425.82 1465.68a33.9 33.9 0 011.18 5.07c0 .1 0 .19.05.29 0-.27 0-.27 0 0s0 .39.07.59c.05.42.08.85.11 1.27.06.89.08 1.77.07 2.66h4.47v-6.89a2.24 2.24 0 00-4.47 0v6.89a2.24 2.24 0 004.47 0 35.42 35.42 0 00-1.64-11.06 2.23 2.23 0 00-4.3 1.19z" fill="#3f3e39"/><path d="M421.61 1447.82h-1.8v4.46a9 9 0 011.87 0h.08l.57.12c.3.08.59.17.88.27a8.19 8.19 0 011.42.62c.61.32 1.2.67 1.79 1 2.25 1.41 4.34 3.08 6.73 4.27a2.27 2.27 0 003.28-1.34 46.58 46.58 0 002.06-12.4 2.25 2.25 0 00-1.64-2.15 7.34 7.34 0 00-5.58 1.28c-1.36 1-2.44 2.25-3.73 3.32l2.71-.35a2.75 2.75 0 00-.38-.2c-.26-.07.36.21 0 0 .18.12.19.28 0 0-.08-.13-.16-.45 0 0-.07-.26-.14-.51-.19-.77s0 .38 0-.06v-.48-.87c0-.61-.05.27 0-.08l.09-.47a11.5 11.5 0 01.43-1.63l-4.38-.6a35.89 35.89 0 00.7 6.47 5.15 5.15 0 002.06 3.13 4 4 0 004.24-.31l-1.72.23c.49.14-.27-.16 0 0s-.37-.29-.06 0c-.15-.12-.23-.35-.07 0s-.18-.53 0-.06c.08.28 0 0 0-.13V1451.91c0 .41.1-.21 0 0a5.25 5.25 0 00-.2.78s-.2.53-.08.23-.07.15-.1.21c-.12.24-.3.46-.42.7.06-.12.28-.27.07-.1l-.29.29a2.26 2.26 0 000 3.16 2.29 2.29 0 003.16 0 7.93 7.93 0 002.34-5.94 4.65 4.65 0 00-1.42-3.28 3.56 3.56 0 00-2.26-1 2.67 2.67 0 00-1.4.48c-.56.31.21 0-.1 0h.26c-.23 0-.14 0 .29.06-.51-.11.39.24.1 0 .57.37.23.2.08 0 .47.58.15.13 0 0s.15.52 0 0c-.05-.18-.11-.35-.15-.53a11.93 11.93 0 01-.24-1.19c.12.67 0 0 0-.19l-.06-.63c0-.41-.05-.81-.08-1.22 0-.64-.05-1.28-.11-1.92a2.24 2.24 0 00-4.38-.59c-1 3-1.45 8 2.05 9.63a2.38 2.38 0 002.71-.35c1-.81 1.83-1.74 2.78-2.58.1-.1.23-.19 0 0l.35-.24.45-.27s.4-.2.2-.11.27-.09.32-.1a3.06 3.06 0 01.41-.1c-.48.08.73 0 .41 0l-1.64-2.15a41.61 41.61 0 01-1.9 11.22l3.28-1.34c-5-2.51-9.45-7.56-15.59-6.94a2.29 2.29 0 00-2.23 2.23 2.25 2.25 0 002.23 2.23h1.8a2.24 2.24 0 000-4.47z" fill="#3f3e39"/><path d="M431.66 1431.27a4.15 4.15 0 00-6.45 1.3 4.86 4.86 0 00-.38 2.79c0 .39.12.78.14 1.17a2.35 2.35 0 000 .53c-.2-.54.63-1.22 1.15-1.25l2.15 1.64a13 13 0 00-4.3-7.16l.57 2.17c3.15-9.14 9.2-17.09 9.65-27.06h-4.47c.26 8.77.57 17.62 2.74 26.17l1-2.53a15.16 15.16 0 00-3.65 2.32l3.73 1a29.44 29.44 0 01.16-8.84 2.25 2.25 0 00-3.73-2.17 30.61 30.61 0 00-5.77 6.91c-1.21 2 1.15 4.1 3 3.06a11.16 11.16 0 005.22-6.38c.9-2.74-3.41-3.91-4.3-1.19a6.52 6.52 0 01-3.17 3.71l3.05 3.06a26.36 26.36 0 015.08-6l-3.74-2.18a36.71 36.71 0 00-.15 11.22c.25 1.82 2.61 1.92 3.73 1a10.71 10.71 0 012.75-1.62 2.25 2.25 0 001-2.52c-2.07-8.17-2.33-16.6-2.57-25a2.24 2.24 0 00-4.47 0c-.42 9.38-6.51 17.24-9.48 25.88a2.18 2.18 0 00.57 2.17 9.17 9.17 0 013.16 5.18 2.23 2.23 0 002.15 1.64 3.33 3.33 0 003.32-3.63c0-.62-.15-1.25-.2-1.88 0-.47.06-.46-.14 0 0 0 .14 0 0-.11s-.1.09-.1 0-.21-.27-.55-.22c2.12 1.93 5.29-1.22 3.16-3.16zM438.49 1413.25c-.23 18.9-.77 38.14 3.72 56.65.67 2.79 5 1.61 4.3-1.19-4.39-18.11-3.78-37-3.55-55.46 0-2.87-4.43-2.88-4.47 0z" fill="#3f3e39"/><path d="M432.55 1283.74c-9.54-1.4-107.48 7-37.63 37.53 0 0 14.3-32.66 37.63-37.53zM291.77 1287.58a6.4 6.4 0 011.81.19 17.3 17.3 0 012.34.66 15.44 15.44 0 013.7 1.89c.29.2-.37-.33.07 0l.27.23c.09.09.18.2.28.29.32.27 0 .1 0-.06s.17.58.07.06c0-.18-.11-.06-.08-.44a2.75 2.75 0 01.36-.83c.09-.13.36-.34.08-.08s.47-.13 0 0a8.08 8.08 0 01-1.08.26 23 23 0 01-3.17.09 2.25 2.25 0 00-1.93 3.36 7.75 7.75 0 003.76 3 16.78 16.78 0 014 1.85c1.89 1.52 2.43 4 2.6 6.26.22 2.86.1 5.72.54 8.56a11.46 11.46 0 001.26 4 6.36 6.36 0 003.34 2.39c1.21.45 2.49.63 3.72 1a3.13 3.13 0 011.34.58c-.28-.21.33.43.14.15.15.23.12.19.21.63a2.26 2.26 0 002.75 1.56 2.3 2.3 0 001.56-2.75 16 16 0 00-2.12-6.49 7.87 7.87 0 00-2.41-2.43 7.62 7.62 0 00-1.7-.76c-.17-.06-.71-.32-.89-.25h-.15q.8 1.14-.63 1.89h-1.18.23a2.29 2.29 0 002.74-1.56 2.25 2.25 0 00-1.56-2.75 3.11 3.11 0 00-3.78 3.18c0 2.17 1.85 3.16 3.68 3.69 2.68.77 3.1 4.32 3.46 6.67l4.31-1.19c-.64-2.88-3.17-4.11-5.8-4.73-.55-.14-1.11-.25-1.65-.4a8.2 8.2 0 01-1.32-.45c-.39-.21-.43-.24-.56-.48a7.9 7.9 0 01-.53-1.84c-1.17-5.59.58-11.7-3.33-16.52a10.73 10.73 0 00-4.29-3.05c-1.25-.52-3.11-.87-3.86-2.09l-1.93 3.36c2.3.05 5.55.19 7.33-1.59 1.56-1.56.95-3.75-.44-5.16a15.13 15.13 0 00-5.26-3.14 16.84 16.84 0 00-6.26-1.36c-2.87 0-2.87 4.46 0 4.46z" fill="#5e5d57"/><path d="M341.91 1302a47.35 47.35 0 01-12.81-4.53l-1.13 4.16c.39 0-.2-.06.34.06.26.06.52.11.77.18.47.13.94.28 1.4.45a26.06 26.06 0 013.06 1.41 66.9 66.9 0 017.15 4.48 137.68 137.68 0 0112.07 9.6 2.24 2.24 0 003.16-3.16l-10.28-12.93-1 3.73a168.48 168.48 0 0021.26-7.69l-2.25-3.86a128.08 128.08 0 00-16.94 10.64 2.24 2.24 0 002.26 3.86l7.88-3.5a2.26 2.26 0 00.8-3.06 2.29 2.29 0 00-3.05-.8l-7.89 3.5 2.26 3.86a127.59 127.59 0 0116.93-10.64 2.25 2.25 0 00.8-3 2.29 2.29 0 00-3-.81 158.74 158.74 0 01-20.2 7.24 2.27 2.27 0 00-1 3.73l10.28 12.94 3.16-3.16a150.5 150.5 0 00-13.26-10.5c-4.32-3-9.31-6.43-14.69-7-2.23-.23-3 3.17-1.13 4.16a52 52 0 0013.88 5c2.8.57 4-3.74 1.19-4.31zM433.47 1329.65c-13.39 7.82-28.55 13.89-37.82 27-1 1.47.38 3.28 1.92 3.36a33.09 33.09 0 0021.48-6.55c6.16-4.51 11.17-10.3 16.51-15.7a2.25 2.25 0 00-2.17-3.73c-12.59 3.29-21.28 13.91-33.22 18.52l1.72 4.08c11.47-7.43 28-9.39 35.05-22.41l-3.86-2.26c-5.26 9.83-16.66 14.12-25.68 19.67-2.45 1.5-.21 5.36 2.25 3.85 9.74-6 21.6-10.66 27.29-21.26 1.36-2.54-2.48-4.79-3.86-2.26-3.18 5.86-9.08 9.23-14.93 12-6.19 2.89-12.76 5.11-18.51 8.84-2 1.3-.76 5 1.72 4.09 6.09-2.35 11.38-6.09 16.7-9.79 5.13-3.56 10.41-7.14 16.51-8.73l-2.17-3.73c-5 5-9.63 10.55-15.33 14.79a29.34 29.34 0 01-19.5 6.14l1.93 3.36c8.73-12.31 23.63-18 36.22-25.38 2.48-1.45.24-5.31-2.25-3.85zM315.11 1359.62v.2c.07.45-.07-.54 0-.22s.11.86.17 1.29c.09.64.18 1.28.31 1.91.33 1.57 1 3.4 2.8 3.65 2 .27 3.11-1.7 3.45-3.4.16-.82.25-1.65.36-2.48 0-.15.13-.79 0-.09 0-.18.05-.37.08-.55q.07-.54.18-1.08a10.34 10.34 0 01.26-1.1l.15-.44c.1-.32-.08.23-.1.24a1.69 1.69 0 00.13-.27l.08-.12c.16-.3-.11.15-.17.21.32-.36-.45.25-.11.06s-.56.2-.32.14-.3 0-.32 0c.47 0-.58-.16-.07 0l-1-.57a9.73 9.73 0 011.32 1.25c.28.31-.11-.18 0 0s.18.24.26.37.33.51.48.77.26.48.38.73.12.28.19.42c.18.38-.06-.19 0 .06.22.59.44 1.18.63 1.78.75 2.35 1.23 4.79 2.19 7.08a2.29 2.29 0 002.74 1.56c1-.34 2-1.6 1.56-2.75-1.13-2.72-1.61-5.66-2.65-8.42a16.1 16.1 0 00-2.29-4.29c-1.09-1.41-2.57-2.87-4.51-2.41-2.45.57-3.08 3.31-3.4 5.45q-.15 1-.27 2c-.07.47.06-.45 0-.13v.32c0 .28-.09.57-.14.85s-.19.71-.27 1.07.26-.55.1-.25-.34.38.13-.12c-.09.1-.26.19.07 0a2 2 0 012.1-.14c.14.09.57.4.59.6a.84.84 0 00-.15-.26c.23.13.21.56.09.19l-.09-.29a13.33 13.33 0 01-.34-1.52c0-.28-.09-.56-.13-.85v-.34c-.06-.42.07.55 0 .17s-.12-1-.21-1.55a2.23 2.23 0 00-2.74-1.56 2.29 2.29 0 00-1.56 2.75zM364.1 1405.51a414.25 414.25 0 009.14 47.76c.7 2.78 5 1.6 4.3-1.19a408.82 408.82 0 01-9-46.57 2.3 2.3 0 00-2.23-2.23c-1.08 0-2.39 1-2.23 2.23zM392.74 1426.22c2 11.63 1 23.53 1.1 35.26 0 2.87 4.5 2.88 4.47 0-.12-12.16.8-24.39-1.27-36.45a2.24 2.24 0 00-2.74-1.55 2.27 2.27 0 00-1.56 2.74zM416.53 1422.78l-.07 12.47 3.36-1.93a5.47 5.47 0 01-2.21-3.79 2.24 2.24 0 00-3.73-1 11.9 11.9 0 00-2.76 5 13.93 13.93 0 000 5.15c.12.82.28 1.64.43 2.46.08.43.17.87.24 1.31 0 .23.08.46.11.69s.13.87.07.45a32.47 32.47 0 01.16 7.24 46.89 46.89 0 01-2.88 11.84l4.31 1.19c.59-2.74.79-5.54 1.31-8.29.45-2.44 1.06-5.06 2.93-6.82l-1.58.65a1.12 1.12 0 01-.8-.3c.16.18.18.19.05 0 .1.19.26.38.38.56a8.54 8.54 0 001.12 1.49 3.21 3.21 0 004.17.45 2.27 2.27 0 00.8-3.06c-1.2-2-2.62-3.81-3.69-5.86-.9-1.72-1.53-3.5-.27-5.14a2.26 2.26 0 00-.81-3.06 2.29 2.29 0 00-3 .8c-3.93 5.14 1.32 11.2 4 15.52l.8-3.06c-.39.27.43 0 .73.07a.71.71 0 01.5.19l-.13-.15c0 .13.06.07-.1-.16s-.2-.32-.31-.48a5.57 5.57 0 00-1.9-1.93c-2.61-1.38-4.6 1.76-5.52 3.8-1.95 4.29-1.93 9-2.91 13.57a2.24 2.24 0 004.31 1.19c2.13-5.93 3.58-12.26 3.06-18.6-.17-2-.52-4-.89-6-.07-.36-.14-.73-.2-1.1l-.09-.56c-.09-.54 0 .33 0-.2a14.6 14.6 0 01-.06-2.09c0-.28.08-.49 0-.06 0-.2.07-.39.12-.58a5.5 5.5 0 01.16-.58c.06-.2.27-.64.06-.2a11.88 11.88 0 01.6-1.11l.42-.61c.15-.2 0 0-.05.06l.4-.48-3.73-1a9.85 9.85 0 004.26 6.46c1.43 1 3.35-.34 3.36-1.93l.07-12.47c0-2.87-4.45-2.88-4.47 0zM346.55 1457c.21.42.42.84.62 1.27l.33.73.09.21c.37.9.71 1.81 1 2.73a38.28 38.28 0 011.38 5.56 2.24 2.24 0 002.75 1.56 2.3 2.3 0 001.56-2.75 41.06 41.06 0 00-3.89-11.56 2.23 2.23 0 00-3-.8 2.27 2.27 0 00-.8 3zM367.5 1330.45l-.1 7.47 2.23-2.23c-.11 0-.58-.12-.66-.06s.44.07.09 0l-.33-.06a12.58 12.58 0 01-1.38-.32c-.43-.13-.86-.27-1.27-.43-.06 0-.4-.17-.13 0h-.11l-.68-.34c-.4-.2-.78-.43-1.16-.67-.19-.12-.37-.25-.55-.38s-.26-.14-.27-.19.3.24.05 0a15.9 15.9 0 01-2-2 2.25 2.25 0 00-3.73 1 22.65 22.65 0 00-.57 8.32 2.3 2.3 0 002.24 2.23c1.08 0 2.38-1 2.23-2.23a20 20 0 01-.13-3.79c0-.3 0-.6.07-.9s0-.33.05-.49c0 .22 0 .21 0 0 .11-.66.24-1.31.4-2l-3.73 1a16.72 16.72 0 0011.58 5.8 2.25 2.25 0 002.24-2.23l.09-7.47a2.25 2.25 0 00-2.23-2.23 2.28 2.28 0 00-2.23 2.23zM341.27 1328a4.56 4.56 0 00-1.52-1.41 4.68 4.68 0 00-2-.51 5.37 5.37 0 00-3.14 1 6 6 0 00-2.3 3 6.94 6.94 0 00.15 4.25 17.3 17.3 0 002.2 4.11 2.24 2.24 0 003.86-2.26c-.38-.55-.76-1.11-1.1-1.7-.16-.29-.32-.58-.47-.89l-.06-.13c-.1-.22-.08-.17.05.14 0-.08-.12-.3-.15-.39a7.66 7.66 0 01-.25-.94c-.1-.44 0 .55 0 0v-.48a1.49 1.49 0 000-.42c-.05.35-.06.42 0 .23a1.21 1.21 0 01.05-.18c0-.09.06-.18.09-.27-.2.66-.16.36-.05.16l.18-.28c.2-.31-.38.43-.12.16l.48-.46c-.5.47-.3.24-.14.13a3.37 3.37 0 01.32-.19c.17-.09.47-.15-.2.07l.3-.1.3-.08c.36-.09-.6 0-.24 0h.34c.34 0-.62-.13-.27 0l.24.07c.33.09-.58-.31-.16-.06.23.14.12.22-.18-.14.12.14.42.49 0-.13a2.46 2.46 0 001.34 1 2.21 2.21 0 002.74-1.56 2.16 2.16 0 00-.22-1.72z" fill="#5e5d57"/><path d="M612 1428.63c-6.72-10.55-8.79-87.66 15.57-62.84 2.64 4.58 2.17 10.23 1.62 15.49l-11.02 105.62a84.69 84.69 0 01-1.8-35.21c-2.87 3-4.85-2.2-3.57-4.78a43.65 43.65 0 00-1.65-23.56M601.06 1433.19c5.63-11.17-.09-88.09-21.83-61-2.16 4.82-1.12 10.4 0 15.57l21.65 104a84.69 84.69 0 00-1.76-35.21c3.15 2.65 4.6-2.68 3.07-5.12a43.52 43.52 0 01-.73-23.6M690.35 1260.74c-48.49-.57-62.59 36-93.83 62.46-4.14 1.92-5.55 7.94.13 8 7-1.68 12.75-7.31 18.05-12l3.7 9.43a127.18 127.18 0 0013.29-10.89c1.27 4-6.6 10.23-1.28 13.26 2.88 1.1 6.71-4.07 9.19-1a6.44 6.44 0 011.2 2c1.48 7 2.78 6.55 3.36 6.3 3.32-1.38 5.05-9.36 8.26-11a104.71 104.71 0 00-8.69 43.73c5.11.26 8.42-5.15 10.56-9.8q.33 11.35 1.24 22.7c3-2 9.52-15.6 12.87-9.34 3.42 6.86.65 16.75 6.78 22 2.46 1.1 4.46-2.22 5.21-4.81a126.82 126.82 0 0118-37.49c1.77-2-13.28-42.38-16.54-41.91-12.61 7.58-16.79 24.36-21.88 37.65-2.46-7.42.57-14.72 1.49-21.92-3.23-4.23 3.31-24.58 7.83-26.62 5.85-1.83 12.74 1.41 18.43-.83" fill="#3f3e39"/><path d="M507 1295.2c19.22-7.67 41.84-4.7 62.35-2 12.87 1.7 37.39-2.94 47.48 5.22 7.3 5.9 1 20.49 7.85 26.86-3.35 4.09-11-4.54-4.08 9.78l-17.72 2.78a143.84 143.84 0 0110.77 10.9c-7.36 1.67-14.62-1-21.61-2.13-2 .84-.8 3.84-.64 6 .65 3.84-5.18 6.16-6.32 2-7.57 5.72-6.84 7.23-14.89.93l-2 14.14a32.44 32.44 0 01-11.93-7.11 26.17 26.17 0 00-1.5 10.19c-4.78 1.19-9.7-4.3-14.22-2.34-5.63 4-5 9.61-14 8.37-16.5 5.9-14.09 2.61-29.68.21-5.24.92-11.24.86-10.73-5.74 1-13.31-13.3-25.9-9.44-37.36 7.81-9.35 2.66-12.36-3.6-20.67a2.06 2.06 0 011.15-3.29L507 1295.2M619.12 1348.83l4.89.07c-1.23-2.16 1.18-3.5 3-3.9 1.51-3.59 8.49-7.15 9.55-1.41 1.23 4-.85 8.23.26 12.16a2.24 2.24 0 01-3.72 2.4c-1.58-1.68-3.84-4.14-6.27-3-1.67 1.62-3.89 3.4-6.25 1.89-2.16-1.69-6.58-7.62-1.46-8.21zM635.81 1477.41s1.43-93.51 7.25-94.51-5.96 61.64-7.25 94.51zM651.14 1440.15l.4 2.34a1.69 1.69 0 00.4.76 2.06 2.06 0 001.46.84 1.8 1.8 0 00.89 0l.53-.23a2.19 2.19 0 00.8-.8l.23-.53a2.4 2.4 0 000-1.19l-.41-2.34a1.69 1.69 0 00-.4-.76 1.82 1.82 0 00-.62-.58 1.69 1.69 0 00-.83-.26 1.72 1.72 0 00-.9 0l-.53.22a2.3 2.3 0 00-.8.81l-.22.53a2.19 2.19 0 000 1.19zM647.76 1449.22a78.14 78.14 0 00-6.83 17.18 2.23 2.23 0 004.31 1.18 72.6 72.6 0 016.38-16.11 2.28 2.28 0 00-.8-3 2.25 2.25 0 00-3.06.8zM654.71 1458.41l2.3 13.26a2.23 2.23 0 002.74 1.56 2.29 2.29 0 001.56-2.75l-2.3-13.26a2.25 2.25 0 00-2.75-1.56 2.29 2.29 0 00-1.55 2.75z" fill="#3f3e39"/><path d="M654.93 1458.4l-3.34 15.82a2.3 2.3 0 001.56 2.75 2.27 2.27 0 002.75-1.56l3.33-15.83a2.27 2.27 0 00-1.56-2.74 2.24 2.24 0 00-2.74 1.56zM566.84 1390a3.59 3.59 0 01-.58-.59l.35.45a3 3 0 01-.38-.65l.22.54a2.91 2.91 0 01-.17-.66l.08.6a2.58 2.58 0 010-.68l-.08.6a2.41 2.41 0 01.16-.6l-.22.53a1.76 1.76 0 01.24-.42l-.35.46a1.14 1.14 0 01.24-.25l-.45.35.21-.13-.53.23a.66.66 0 01.2-.06l-.59.08h.17l-.59-.08h.19l-.54-.22a.72.72 0 01.19.11l-.45-.35a1.39 1.39 0 01.21.21l-.37-.47a2.34 2.34 0 01.27.49l-.22-.53a2.83 2.83 0 01.11.31 2.32 2.32 0 001 1.33 1.74 1.74 0 00.83.27 1.8 1.8 0 00.89 0 2.25 2.25 0 001.56-2.75 9.53 9.53 0 00-.38-.93 1.74 1.74 0 00-.18-.33 3.87 3.87 0 00-.54-.67 4.34 4.34 0 00-.54-.42l-.11-.08a5.45 5.45 0 00-.62-.26h-.12a3.72 3.72 0 00-.68-.09h-.12a4.92 4.92 0 00-.67.1h-.11a3.2 3.2 0 00-.73.33 4 4 0 00-1.14 1.15 1.35 1.35 0 00-.15.26 7.22 7.22 0 00-.33.81 1.67 1.67 0 00-.08.32 7.06 7.06 0 00-.11.91 2.41 2.41 0 000 .38 7.46 7.46 0 00.14.93 6.17 6.17 0 00.36.93 2.93 2.93 0 00.23.43 7.25 7.25 0 00.63.83 3.39 3.39 0 00.44.41 1.62 1.62 0 00.72.46 1.68 1.68 0 00.86.2 1.7 1.7 0 00.86-.2 1.62 1.62 0 00.72-.46 2.22 2.22 0 00.65-1.58l-.08-.59a2.16 2.16 0 00-.57-1zM600.82 1365.11l-.06 9.86 4.38-.6c-.49-1.26-1-2.51-1.45-3.79a17.09 17.09 0 01-.55-2l-.09-.52c-.11-.57 0 .49 0-.09v-1.5c0-.47-.11.42 0-.07l.24-.89c.06-.15 0-.1-.07.14l.12-.23c.23-.46 0 0-.07 0a2.29 2.29 0 00.27-.27c-.28.21-.33.26-.13.13l.11-.07c.35-.24-.45.12-.06 0l.37-.1c.41-.12-.5 0-.08 0a2.3 2.3 0 00.37 0h-.35l.23.07c-.1 0-.53-.25-.11 0s-.31-.27-.13-.1.06.05-.16-.22a1.59 1.59 0 01.13.22 2.25 2.25 0 003 .8 2.28 2.28 0 00.8-3.05 4.4 4.4 0 00-5.06-1.95 5.22 5.22 0 00-3.74 4.17c-.81 3.67.77 7.16 2.08 10.51a2.26 2.26 0 002.45 1.6 2.23 2.23 0 001.93-2.19l.07-9.86a2.25 2.25 0 00-2.23-2.23 2.27 2.27 0 00-2.24 2.23zM600 1356.32a6.19 6.19 0 00.57-.3 1.16 1.16 0 10-.17.08l.3-.11a10.24 10.24 0 011.19-.28c-.7.15 0 0 .18 0h.65a5.46 5.46 0 01.58 0c.28 0-.53-.09-.14 0l.32.06a10 10 0 011.18.35c.28.11-.11 0-.18-.07l.3.14a4.4 4.4 0 01.56.31c.17.1.33.21.49.32.37.25-.29-.25-.1-.08l.25.22a4.78 4.78 0 01.45.45c.06.07.12.13.17.2.32.35-.3-.43 0-.05a2.41 2.41 0 001.34 1 2.3 2.3 0 001.72-.22 2.27 2.27 0 00.8-3.06 9.78 9.78 0 00-12.69-2.88 2.23 2.23 0 102.26 3.85zM616.85 1346.22a44 44 0 005.56-2.25 11.91 11.91 0 004-3 6.52 6.52 0 001.43-5.37 11.87 11.87 0 00-3.35-5.69 2.25 2.25 0 00-3.16 0 2.27 2.27 0 000 3.15c.22.24.43.47.64.72 0 0 .44.55.2.23a11.29 11.29 0 01.76 1.14l.32.61c.21.4-.12-.4 0 0a6.13 6.13 0 00.26 1c-.22-.39 0-.37 0-.07a2 2 0 010 .5c-.05 0 .14-.6 0-.11-.05.15-.1.31-.14.46-.09.38.27-.43 0-.09-.08.12-.14.26-.21.38s-.41.38 0 0c-.11.1-.19.24-.29.35a7.31 7.31 0 01-.64.6c-.47.4.22-.13-.11.09l-.36.25a15.73 15.73 0 01-1.92 1.08c-.36.18-.72.34-1.08.49s.33-.13-.11 0l-.65.26c-.78.3-1.57.58-2.36.86a2.23 2.23 0 001.18 4.3zM566.5 1408.85a40.8 40.8 0 014.15 15.68l3.81-1.58a27.17 27.17 0 01-6.16-14.51l-3.36 1.93c-.38-.29.12.16-.07-.07.1.12.06.37.09.18a2.3 2.3 0 001.56 2.74 2.25 2.25 0 002.75-1.56 5 5 0 00-2.07-5.15 2.25 2.25 0 00-3.36 1.93 32.29 32.29 0 007.46 17.67c1.24 1.47 3.92.29 3.81-1.58a46.24 46.24 0 00-4.75-17.93 2.23 2.23 0 00-3.86 2.25z" fill="#3f3e39"/><path d="M569.2 1424.42c0 4.44 2.51 8.61 4.36 12.5a25.91 25.91 0 012.15 5.65 3.1 3.1 0 01.15 1V1444.44c0 .18-.08.35-.12.53s-.27.62-.09.27a2.16 2.16 0 01-.59.81c-1.24 1.26-.44 4 1.58 3.81a31.46 31.46 0 014.45-.27c.31 0 .62 0 .92.06s.27 0 .35 0l.73.17.28.09c.27.1-.34-.14 0 0 .23.1.4.13.07 0 .21.06.08.07 0-.11a1.22 1.22 0 01.12.19c0-.11-.13 0-.08-.3 0 .12-.09.79 0 .33a8.9 8.9 0 01-1.65 3.16 10.39 10.39 0 00-1.56 2.57 16 16 0 00-.68 2.62 22.29 22.29 0 00-.29 5.59 45.29 45.29 0 002.58 11.18c1.37 4 3 7.88 4 12 .72 2.78 5 1.6 4.31-1.18-1.32-5.08-3.48-9.88-5-14.9-1.45-4.8-2.3-9.81-.46-14.62l-.57 1c2.1-2.63 5.59-7.2 2.59-10.45-2.4-2.6-7.06-2-10.17-1.63l1.57 3.81c3.53-3.57 1.86-8.59.11-12.59-1-2.22-2.12-4.37-3.11-6.59a14.68 14.68 0 01-1.55-5.6c0-2.87-4.45-2.88-4.46 0zM568.73 1471.32a36.83 36.83 0 00.26 11.76 2.24 2.24 0 002.74 1.56 2.29 2.29 0 001.56-2.75l-1.17-6.78a2.24 2.24 0 00-2.75-1.56 2.3 2.3 0 00-1.56 2.74l1.18 6.79 4.3-1.19c-.08-.43-.14-.87-.22-1.31v.09-.3c0-.21 0-.41-.07-.61-.09-.85-.14-1.7-.16-2.55s0-1.63 0-2.45c0-.41 0-.81.08-1.22 0-.24.05-.48.08-.71s.1-.82 0-.32a2.45 2.45 0 00-.23-1.72 2.28 2.28 0 00-1.33-1c-1.05-.24-2.58.32-2.75 1.56z" fill="#3f3e39"/><path d="M575.18 1458.17l1.77-.28a2.24 2.24 0 00-.59-4.39 14.23 14.23 0 00-8.25 3.84c-1.07.91-2.06 1.9-3.06 2.87-.51.49-1 1-1.55 1.45l-.78.68-.35.29c-.56.46.32-.23-.25.19l3 .8a41.52 41.52 0 01-3.74-10.76l-1.56 2.74.51-.15h.15a3.85 3.85 0 01.48 0c.13 0 .34.06.1 0a3.58 3.58 0 011.51.6c1.12.64 2.13 1.45 3.24 2.1a2.25 2.25 0 002.26 0c3.45-2.4 2.33-7.09.6-10.23-1-1.87-4.34-1.12-4.16 1.12.11 1.48.38 2.94.43 4.43v1.11c0 .17-.14.82 0 .14 0 .17-.07.35-.11.52s-.29.7 0 0c-.08.18-.32.4.12-.09-.35.4.36-.2.06 0 .39-.15.47-.19.25-.12.42 0 .51-.06.26 0s-.16 0 .22 0l-.28-.07c-.22-.08-.2-.06.07 0a2.34 2.34 0 00-1.13-.31 3.29 3.29 0 00-2.13 1 4.41 4.41 0 00-1.19 3.37 8 8 0 003.53 6c2.44 1.52 4.69-2.34 2.25-3.86-.23-.15 0 0 .08.09l-.3-.27-.24-.26c-.22-.22.2.29 0 0a5 5 0 01-.46-.73 3.84 3.84 0 01-.18-.35c-.19-.37 0 .15 0-.09s-.14-.48-.2-.72-.05.45 0 0a1.29 1.29 0 000-.34c0 .12-.06.42 0 .12s0 0 0 .11c.17-.36-.15.11-.17.15s0 0 .2-.1h-2.25c1.54.67 3.25.93 4.61-.3a5.16 5.16 0 001.45-3.44 32.42 32.42 0 00-.4-6.03l-4.16 1.13c.11.2.22.41.32.62 0 0 .23.52.12.26s.07.17.08.21a17.07 17.07 0 01.49 1.73c0 .18 0 .27 0 0v.8a2.21 2.21 0 00-.08.37c-.08.51.1-.19 0 0 0 0-.17.38-.08.14s-.26.15.08-.09h2.26c-1.32-.76-2.49-1.77-3.87-2.43a7.39 7.39 0 00-5.57-.54 2.29 2.29 0 00-1.56 2.75 46.38 46.38 0 004.19 11.82 2.25 2.25 0 003.06.81 81.26 81.26 0 006.18-5.55 15 15 0 012.79-2.13c.29-.17.6-.32.9-.48.1 0 .3-.13.08 0l.42-.15a8.21 8.21 0 011-.27s.46-.09.26-.06.4 0 .39 0l-.6-4.39-1.77.28a2.26 2.26 0 00-1.56 2.75 2.29 2.29 0 002.75 1.56z" fill="#3f3e39"/><path d="M564.88 1442.09c.33-.42-.12-.14-.34 0 0 0-.53-.38 0 .07s-.28-.31-.2-.32 0 0 .06.22 0-.22 0 .18v.47c0 .34 0 .67.06 1 .19 1.91 1.39 3.69 3.55 3.44a2.3 2.3 0 002.23-2.23 8.57 8.57 0 012-5.14 2.32 2.32 0 00.35-2.7c-4.43-8-11.69-14.68-13.72-23.92a2.26 2.26 0 00-2.75-1.55 2.29 2.29 0 00-1.56 2.74c1.2 8.3 2.33 16.66 1.68 25.06a2.24 2.24 0 001.64 2.15 10.45 10.45 0 013 1.17 2.25 2.25 0 003.36-1.93 34.73 34.73 0 00-1.94-10.44l-3.28 2.52a26.78 26.78 0 016 5.09l2.18-3.73a6.52 6.52 0 01-3.67-3.23c-1.35-2.54-5.2-.29-3.85 2.25a11.1 11.1 0 006.33 5.28c2.25.78 3.54-2.18 2.17-3.73a30.91 30.91 0 00-6.9-5.79c-1.58-1-3.94.67-3.28 2.52a30.85 30.85 0 011.79 9.26l3.36-1.93a15.07 15.07 0 00-4-1.62l1.63 2.16c.68-8.8-.58-17.56-1.83-26.25l-4.31 1.19c2.13 9.69 9.54 16.55 14.18 25l.35-2.71a13.66 13.66 0 00-3.28 8.3l2.24-2.23c-.4 0 .08.14.4.38a.78.78 0 01.53.53v-.18-.26-.46a6.54 6.54 0 00-.64-3c-1.17-2.08-4.82-3.11-6.58-.84a2.29 2.29 0 000 3.15 2.25 2.25 0 003.16 0zM547.3 1423.61c3.39 18.2 7.15 36.65 5.92 55.26-.19 2.87 4.28 2.86 4.47 0 1.25-19-2.62-37.87-6.08-56.44a2.25 2.25 0 00-2.75-1.56 2.28 2.28 0 00-1.56 2.74z" fill="#3f3e39"/><path d="M535.38 1294c9.16-3 107.1-11.44 43.49 30.55 0 .02-19.67-29.73-43.49-30.55zM673.77 1269.39a17.17 17.17 0 00-10.46 6.5c-1.12 1.68-1.17 4 .72 5.14 2.14 1.31 5.26.59 7.53.14l-2.75-2.74c-.4 1-1.85 1.59-2.7 2.09a12.83 12.83 0 00-3.73 3.18 12.61 12.61 0 00-2.09 8.64c.22 3 1 5.94 1 9a9.46 9.46 0 01-.15 1.84 2.18 2.18 0 01-.14.54 2.88 2.88 0 01-.27.28 12.8 12.8 0 01-2.56 1.29c-2.75 1.16-5.09 2.74-5.25 6h4.47c-.05-2.37-.18-5.72 2.27-7 1.65-.84 3.14-1.9 3-4a3.1 3.1 0 00-3.92-2.91c-2.72.91-1.55 5.22 1.18 4.3h-.12l-1.12-.31c-.31-.94-.47-1.13-.48-.55l.3-1.12c-.14.34-.74.48-1.1.66a7.37 7.37 0 00-1.58 1.08 7.48 7.48 0 00-1.91 2.79 17.24 17.24 0 00-1 7c.06 2.88 4.33 2.86 4.47 0 0-.35 0-.09.07-.39-.1.27.1-.19.16-.27-.25.33.36-.32.19-.17l.54-.35a26 26 0 012.86-1.3 9 9 0 002.88-1.86 6.53 6.53 0 001.59-4.13c.31-2.92-.34-5.83-.71-8.71-.33-2.55-.61-5.49 1-7.69a11.92 11.92 0 013.59-2.69 8.34 8.34 0 003.59-4.06c.69-1.72-1.26-3-2.74-2.75a17.4 17.4 0 01-3.12.39h-.73c-.12 0-.24-.07-.37-.1s.42.24.14 0a1.35 1.35 0 01.66 1.2c-.05-.35-.13.56 0 .18s-.21.37-.07.14.23-.41.37-.61c-.2.29.16-.17.38-.4a13 13 0 013.31-2.44 11.1 11.1 0 014.05-1.54 2.25 2.25 0 001.56-2.75 2.29 2.29 0 00-2.74-1.56z" fill="#5e5d57"/><path d="M629.36 1300.7a51.6 51.6 0 0012.87-7.18 2.28 2.28 0 00.91-2.79 2.25 2.25 0 00-2.64-1.3 19.51 19.51 0 00-6.24 3.38 67 67 0 00-6.84 6 142.72 142.72 0 00-11 12.3l3.51 2.71 7.92-14.5a2.27 2.27 0 00-1.93-3.36 158.76 158.76 0 01-21.1-3.73 2.24 2.24 0 00-1.19 4.31 123.66 123.66 0 0118 7.35l1.72-4.08-8.36-2.1c-2.79-.69-4 3.61-1.19 4.31l8.37 2.1c2.37.6 4-2.9 1.72-4.08a132.42 132.42 0 00-19-7.81l-1.19 4.31a170.08 170.08 0 0022.29 3.89l-1.92-3.36-7.93 14.5a2.25 2.25 0 00.58 2.88 2.21 2.21 0 002.93-.18 145.55 145.55 0 0110.52-11.82 66.75 66.75 0 016.18-5.59 28.16 28.16 0 013-2 8.08 8.08 0 012.39-1.06l-1.72-4.08a47.64 47.64 0 01-11.8 6.74 2.3 2.3 0 00-1.56 2.74 2.25 2.25 0 002.75 1.56zM540.94 1343.65c13.72 5.12 29.23 8.22 40 18.9l1-3.73a29 29 0 01-20-2.78c-6.38-3.29-12-7.9-17.8-12l-1.13 4.16c6.14.52 11.89 3.14 17.41 5.7 5.78 2.69 11.6 5.53 17.89 6.79a2.26 2.26 0 002.63-1.29 2.19 2.19 0 00-.91-2.79c-6.45-2.75-13.37-3.92-20.11-5.74-6.32-1.7-12.68-4.06-16.88-9.36a2.25 2.25 0 00-3.15 0 2.29 2.29 0 000 3.16c7.38 9.45 20 12 30.58 16.21a2.24 2.24 0 002.74-1.56 2.27 2.27 0 00-1.56-2.74c-9.88-3.94-21.71-6.24-28.61-15.07l-3.15 3.16c9.09 11.49 25.48 10.5 37.89 15.79l1.72-4.08c-12.76-2.54-23.33-11.54-36.49-12.65a2.24 2.24 0 00-2.15 1.64 2.32 2.32 0 001 2.52c6.12 4.36 12 9.25 18.78 12.54a33.44 33.44 0 0022.5 2.74 2.25 2.25 0 001-3.73c-11.34-11.28-27.45-14.64-41.94-20a2.23 2.23 0 10-1.19 4.3zM659.61 1348.49c0 .71.06 1.43.07 2.14v1.92c0 .44.12-.56 0-.16 0 .1 0 .19-.06.29s-.24.4.12-.23c-.07.12-.18.23.07-.06a1.79 1.79 0 011.49-.72l.49.06c.43.21.54.25.35.14 0 0 .5.4.25.17s.22.46.1.15a3.46 3.46 0 00-.27-.5c-.18-.36.17.45.08.17 0-.09-.08-.18-.11-.28s-.15-.41-.21-.61c-.17-.5-.32-1-.48-1.5-.62-2-1.32-4.59-3.33-5.62-3.57-1.83-5.8 3-6.54 5.68a33.28 33.28 0 00-.84 5.35c-.08.88-.16 1.75-.26 2.63 0 .17 0 .34-.07.51.07-.49 0 .22 0 .32-.07.43-.15.85-.25 1.28a2.23 2.23 0 004.31 1.18 39.75 39.75 0 00.69-4.86c.07-.74.14-1.48.22-2.22 0-.17 0-.35.07-.53-.07.5 0-.19 0-.24.06-.41.14-.82.22-1.23a14.7 14.7 0 01.54-2s.26-.67.07-.22c.05-.12.11-.24.17-.36a8.4 8.4 0 01.64-1.13c.06-.08.32-.44.07-.12.17-.22.49-.33 0-.16 0 0-.56.2-.26.13-.64.15-.48 0-.25 0-.73 0-.17.06-.54-.11s-.11 0 0 0c-.58-.4-.29-.26-.16-.12s-.11 0-.09-.14c0 .09.26.39.31.48s.2.42.32.63-.2-.54 0-.1l.15.4c.1.28.2.55.29.83.32 1 .59 2 .94 2.91a5.58 5.58 0 002 3 2.63 2.63 0 003.8-1c.95-1.82.49-4.18.49-6.15a2.23 2.23 0 00-4.46 0zM619.2 1402.68a411.43 411.43 0 01-.86 48c-.22 2.87 4.24 2.85 4.46 0a411.43 411.43 0 00.87-48c-.12-2.86-4.58-2.87-4.47 0zM594.5 1427.38c0 12.22 3.08 24.14 5 36.12a2.24 2.24 0 002.74 1.56 2.27 2.27 0 001.56-2.74c-1.89-11.6-4.85-23.12-4.87-34.94 0-2.87-4.47-2.87-4.47 0zM570.57 1429.25l2.2 12.28c.3 1.7 2.62 2.08 3.73 1a9.93 9.93 0 003-7.18l-3.36 1.93c1.86 1.22 2.39 3.28 2.48 5.39.11 2.55-.26 5.09-.23 7.64.08 6.61 4.65 11.46 6.39 17.56l4.31-1.19c-1.73-4.28-2.48-9.11-5.14-13-1.21-1.78-3.53-4.68-5.94-3.28a4.41 4.41 0 00-1.71 2.14c-.15.32-.31.65-.44 1s-.18.09 0 .1c.47 0 .81-.48 1.42-.2l1 2.52c1.91-4.81 5.89-11.45 1.07-15.91-2.11-2-5.28 1.2-3.16 3.16 1.5 1.38 1 3.41.42 5.16-.7 2.21-1.79 4.26-2.64 6.41a2.23 2.23 0 001 2.52 3.32 3.32 0 004.45-1.09 7.89 7.89 0 00.65-1.3 4.17 4.17 0 00.37-.77c0-.34-.08.16-.44.25l-1.72-.22c2 1.31 3 3.76 3.82 5.92.94 2.57 1.62 5.24 2.64 7.78a2.3 2.3 0 002.75 1.56 2.26 2.26 0 001.56-2.75c-1-3.38-2.79-6.39-4.34-9.52a17 17 0 01-1.87-8.4c.22-5.65.91-11.79-4.49-15.34a2.25 2.25 0 00-3.36 1.93 5.38 5.38 0 01-1.66 4l3.73 1-2.2-12.27a2.24 2.24 0 00-2.74-1.56 2.28 2.28 0 00-1.56 2.74zM645.48 1448.66a41.27 41.27 0 00-1.8 12.09 2.24 2.24 0 004.47 0c0-1 0-1.91.09-2.86 0-.48.08-1 .13-1.43l.09-.76c-.05.39 0-.2 0-.28a39.1 39.1 0 011.28-5.57 2.26 2.26 0 00-1.56-2.75 2.29 2.29 0 00-2.75 1.56zM603.1 1329.9l1.38 7.34a2.24 2.24 0 002.74 1.56 16.76 16.76 0 0010.31-7.81h-3.85c.05.11.13.3 0 .08.06.14.11.28.16.41s.21.56.31.84c.2.6.38 1.21.52 1.82s.24 1.16.34 1.75c.06.37 0-.31 0 .07v.44c0 .33 0 .66.07 1a2.24 2.24 0 004.47 0 23.79 23.79 0 00-2.11-8.66c-.7-1.58-3.08-1.34-3.85 0-.25.42-.51.84-.79 1.23l-.22.3q.21-.29.06-.09c-.14.15-.27.32-.41.48a14.6 14.6 0 01-1 1l-.42.36c-.07.07-.69.54-.26.23a15.62 15.62 0 01-2.35 1.42l-.5.24c.5-.23-.22.08-.32.11a14.1 14.1 0 01-1.4.43l2.74 1.56-1.37-7.34a2.24 2.24 0 00-2.75-1.56 2.28 2.28 0 00-1.56 2.74zM636.91 1324l.12-.22c.15-.28-.39.42-.16.2a.86.86 0 00.14-.13c.14-.16-.55.36-.22.17l.16-.09c.13-.07.09-.05-.13 0h-.13l.44-.11-.59.08a3.62 3.62 0 01.87 0l-.6-.08a3.86 3.86 0 01.49.1l.24.08c.32.11-.55-.26-.22-.09.14.07.28.14.41.22l.21.14c.2.12-.49-.42-.18-.14a3.43 3.43 0 01.33.33c.15.17.16.33-.14-.19 0 .07.09.14.14.21a1.51 1.51 0 00.11.22c-.09-.08-.23-.63-.08-.17a5.06 5.06 0 01.18.77l-.08-.59a5.65 5.65 0 010 1.59l.08-.6a9.83 9.83 0 01-.5 2c-.11.3-.28.6-.36.91.14-.32.16-.37.07-.15l-.12.25c-.07.17-.15.34-.22.5a2.4 2.4 0 00-.23 1.72 2.23 2.23 0 004.08.54c1.24-2.71 2.42-5.74 1.19-8.67a5.49 5.49 0 00-2.37-2.6 5.67 5.67 0 00-3.19-.78 4.36 4.36 0 00-3.6 2.22 2.24 2.24 0 003.86 2.26zM494.23 1318.37c-3.07 7.21-8.38 13.08-12.44 19.7a2.26 2.26 0 002.52 3.28 97.83 97.83 0 0011.93-4.7l-3.28-1.34c.55 3.55-.89 7.2-2.34 10.36-1.64 3.57-3.57 7-4.83 10.76-.65 1.91 1.66 3.43 3.28 2.52l7.77-4.37-3-3-3.6 5.08c-1.32 1.85 1.23 4.2 3.05 3.06 6.66-4.18 14.4-6.91 19.71-13 1-1.12.81-3.47-1-3.73a42 42 0 00-16.56.76l1.19 4.31a130.44 130.44 0 0125.91-5l-1.93-3.36c-3.25 4.67-7.9 8.13-12.42 11.48a2.32 2.32 0 00-1 2.52 2.24 2.24 0 002.15 1.64 128.24 128.24 0 0113.72-.54l-2.16-2.83a1.92 1.92 0 01-1.58 1.22c-2.8.61-1.61 4.91 1.19 4.3a6.45 6.45 0 004.7-4.33 2.26 2.26 0 00-2.15-2.83 130.9 130.9 0 00-13.72.54l1.13 4.16c5.18-3.83 10.31-7.73 14-13.07a2.25 2.25 0 00-1.93-3.36 136.53 136.53 0 00-27.1 5.1 2.24 2.24 0 001.19 4.31 36.25 36.25 0 0114.18-.77l-1-3.73c-5 5.74-12.48 8.3-18.8 12.26l3.05 3.06 3.6-5.09c1.35-1.9-1.23-4.08-3.05-3l-7.78 4.36 3.28 2.52c2.65-7.81 8.53-14.77 7.17-23.48-.24-1.55-2.12-1.88-3.27-1.34a88.68 88.68 0 01-10.87 4.25l2.52 3.28c4.07-6.62 9.38-12.49 12.45-19.7a2.31 2.31 0 00-.8-3 2.25 2.25 0 00-3.06.8z" fill="#5e5d57"/><path d="M710.09 1460.62c-48.12-6-66.21 28.8-100.2 51.61-4.33 1.45-6.41 7.28-.77 8 7.17-.89 13.49-5.85 19.28-9.92l2.63 9.78a126.35 126.35 0 0014.41-9.35c.82 4.15-7.7 9.44-2.74 13 2.74 1.41 7.11-3.3 9.25 0a6.38 6.38 0 011 2.15c.69 7.14 2 6.81 2.64 6.63 3.45-1 6.06-8.74 9.43-10a104.92 104.92 0 00-13.51 42.5c5 .82 8.95-4.19 11.59-8.57q-.94 11.33-1.3 22.7c23.24-24.56 9.2 4 18.11 14.78 2.33 1.37 4.68-1.71 5.72-4.2a127 127 0 0122-35.25c2-1.76-8.47-43.6-11.76-43.5-13.38 6.13-19.4 22.34-25.94 35-1.62-7.64 2.21-14.56 3.92-21.61-2.31-7.17 3.34-13.77 5.87-20.22 4.32-13.32 20.73 2.71 25.39-7" fill="#3f3e39"/><path d="M637.6 1517.44c-6.14-7.09 1.79-20.89-4.81-27.56-9.12-9.24-34-7.36-46.6-10.48-20.08-5-42.23-10.45-62.18-5l-10.57 4v81.09c6.29 2.35 7.86 3.24 20.69.24 8.81 2.24 8.78-3.37 14.82-6.76 4.71-1.45 9 4.56 13.87 3.91a26.34 26.34 0 012.63-10 32.59 32.59 0 0011.07 8.4l3.54-13.83c7.3 7.15 6.75 5.57 14.91.73.67 4.22 6.72 2.57 6.5-1.32.09-2.21-.81-5.33 1.31-5.94 6.82 1.94 13.74 5.37 21.25 4.53a143 143 0 00-9.5-12l17.92-.79c-5.33-14.96 1.36-5.52 5.15-9.22zM629.49 1540.22l4.86.62c-1-2.28 1.57-3.35 3.41-3.55 1.9-3.39 9.23-6.16 9.65-.33.78 4.07-1.76 8.08-1.09 12.11a2.25 2.25 0 01-4 2c-1.38-1.84-3.36-4.54-5.9-3.63-1.85 1.41-4.24 2.94-6.42 1.17-1.93-1.99-5.63-8.37-.51-8.39z" fill="#3f3e39"/><path d="M609.82 1545.42c-.66.28 0 0 .18 0a5.84 5.84 0 01.6-.15l.3-.06c.28-.06-.55 0-.16 0h1.56c.26 0-.6-.1-.16 0a11.91 11.91 0 011.21.31c.21.07.78.38.17 0 .18.1.38.18.56.27a6 6 0 01.54.33l.21.14s.39.28.07 0 0 0 .06.07a1.51 1.51 0 01.23.21 6.09 6.09 0 01.44.44 1.5 1.5 0 00.2.24c-.12-.09-.3-.4-.09-.1s.25.38.37.58a2.23 2.23 0 103.85-2.25 9.77 9.77 0 00-12.39-4 2.22 2.22 0 00-1 1.34 2.25 2.25 0 00.22 1.72 2.3 2.3 0 001.33 1 2.62 2.62 0 001.72-.22zM627.77 1537.32c5.08-1.14 12.81-3.2 11.74-10a12.12 12.12 0 00-2.42-5.06 2.27 2.27 0 00-3.05-.8 2.24 2.24 0 00-.8 3 16.83 16.83 0 011.31 2c.08.15.16.3.23.45a.64.64 0 00.1.22s-.15-.4-.08-.17.21.58.29.88c0 .13 0 .26.08.39.09.39 0-.49 0-.1v.75c0 .24.05-.31.05-.32a1.1 1.1 0 000 .16l-.08.32c0 .1-.08.2-.1.3s.12-.3.12-.29-.07.13-.1.18a6.1 6.1 0 00-.34.54c.09-.2.32-.38.07-.12-.09.09-.17.19-.27.28l-.29.26c-.27.26.39-.27.08-.06l-.66.44a15.52 15.52 0 00-1.47.74l.21-.09-.19.08-.4.15-.9.31c-1.4.45-2.83.8-4.27 1.12a2.23 2.23 0 00-1.55 2.74 2.27 2.27 0 002.74 1.56z" fill="#3f3e39"/><path d="M552.38 1476.43c9.43-2 107.71.56 39.81 35.2 0 0-16.19-31.75-39.81-35.2zM693 1467.34c-3.89.23-8.63 2.13-11.27 5.08-1.3 1.47-1.93 3.66-.32 5.19 1.84 1.75 5.08 1.43 7.38 1.25l-1.93-3.36c-.62 1.15-2 1.6-3.13 2.12a11.83 11.83 0 00-3.93 2.62 12.65 12.65 0 00-3.1 8.31c-.15 2.84.22 5.68 0 8.52a10.75 10.75 0 01-.24 1.69 8.75 8.75 0 01-.23.88c-.06.19-.14.37-.2.56.12-.38.31-.25 0-.18-.1 0-.65.44-.88.54s-1.05.36-1.54.51c-2.78.83-5.84 2-6.36 5.21l4.38.59c.22-2.35.54-5.48 3.06-6.42 1.74-.65 3.44-1.64 3.41-3.75a3.13 3.13 0 00-3.85-3.12c-2.79.66-1.61 5 1.19 4.31l.23-.06h-1.19c-.77-.3-1-.75-.65-1.34s.31-.65.09-.51a7.65 7.65 0 00-.77.28 8.36 8.36 0 00-1.71.81 7.8 7.8 0 00-2.51 2.75 17.55 17.55 0 00-1.76 7c-.23 2.48 4 3.08 4.38.6a4 4 0 01.18-.76c-.06.17.1-.09.09-.08a2.56 2.56 0 011-.62c.63-.28 2.07-.63 3-1a8.74 8.74 0 003.32-1.8 6.89 6.89 0 001.76-3.91 46.27 46.27 0 00.22-8.73c0-2.37 0-5.07 1.61-7a9.94 9.94 0 013.86-2.43 8.33 8.33 0 004.11-3.45c.75-1.38-.15-3.51-1.92-3.36a23.39 23.39 0 01-3.45.08c-.25 0-.33 0-.76-.12-.6-.11.09.15-.32-.13a1.47 1.47 0 01.62 1.16s-.17.5-.1.38l.22-.34c-.08.12-.26.3-.06.1s.46-.45.7-.66c.07-.06.42-.32.09-.08.14-.11.29-.21.43-.3.31-.21.62-.41.94-.6a20 20 0 012.12-1.07c.32-.13 1.3-.49 1.93-.66.37-.1.73-.18 1.1-.26.16 0 .48-.08.14 0h.61c2.85-.17 2.87-4.64 0-4.47z" fill="#5e5d57"/><path d="M645.27 1493.48a51.61 51.61 0 0013.57-5.77c2.27-1.38.69-4.48-1.72-4.08a19.47 19.47 0 00-6.56 2.72 67.53 67.53 0 00-7.43 5.23 144.43 144.43 0 00-12.31 11l3.5 2.71 9.49-13.53a2.25 2.25 0 00-1.33-3.28 163.53 163.53 0 01-21.14-6.2c-2.35-.86-4 3-1.72 4.08a128.55 128.55 0 0117.54 9.6l1.72-4.08-8.08-3a2.25 2.25 0 00-2.74 1.56 2.28 2.28 0 001.56 2.75l8.08 3c2.47.93 3.74-2.76 1.72-4.08a128.66 128.66 0 00-17.55-9.6l-1.72 4.09a165.13 165.13 0 0021.14 6.2l-1.33-3.28-9.49 13.48c-1.48 2.11 1.75 4.45 3.51 2.7a143.67 143.67 0 0111.76-10.57 62 62 0 016.81-4.81 15.63 15.63 0 015.75-2.42l-1.72-4.08a47.62 47.62 0 01-12.5 5.32c-2.77.73-1.59 5 1.19 4.3zM552.08 1526.22c13.25 6.71 28.46 11.58 38.08 23.56l1.58-3.81a29.29 29.29 0 01-19.85-4.9c-5.95-3.89-10.94-9.08-16.21-13.81l-2.17 3.73c6.21 1.23 11.67 4.44 17 7.7 5.52 3.36 11 6.82 17.25 8.79 2.42.77 3.91-2.84 1.72-4.08-6-3.42-12.8-5.3-19.22-7.82-5.9-2.31-12-5.35-15.47-10.9-1.52-2.43-5.37-.2-3.85 2.26 6.33 10.28 18.34 14.23 28.47 19.63 2.53 1.36 4.79-2.5 2.25-3.85-9.3-5-21-8.58-26.87-18l-3.85 2.26c7.88 12.64 24.32 13.55 36.28 20.31l1.72-4.08c-12.18-3.87-21.53-14-34.27-16.48-2-.4-4 2.13-2.17 3.73 5.64 5.06 11 10.58 17.41 14.7a33.12 33.12 0 0021.81 5.32 2.27 2.27 0 001.58-3.81c-9.88-12.3-25.39-17.38-39-24.26-2.55-1.3-4.82 2.55-2.25 3.85zM669.75 1544.64c-.08.73-.1 1.46-.17 2.18 0 .22-.05.43-.07.64 0 .47.09-.55 0-.09l-.06.36c0 .19-.07.38-.12.56-.09.36-.29.67 0 .13a.83.83 0 01-.09.16c.26-.36.21-.36.6-.59a1.92 1.92 0 011.91 0c.51.3.42.35.28.21s.35.49.1.13a.82.82 0 00-.11-.21c.17 0 .21.6.11.25 0-.12-.08-.23-.11-.34a28.22 28.22 0 01-.63-2.9c-.4-2-.89-4.63-2.91-5.68-3.49-1.82-6 3-7 5.58-1.17 3.12-1.4 6.48-2.49 9.62a2.24 2.24 0 001.56 2.75 2.29 2.29 0 002.74-1.56c.82-2.34 1.16-4.8 1.76-7.19.14-.57.3-1.14.48-1.7.1-.31.21-.61.33-.91s.07-.18 0 0c.06-.15.13-.29.2-.43a11.2 11.2 0 01.89-1.54c.24-.35-.12.12 0-.07l.31-.35a8.7 8.7 0 01.69-.67l-1 .58c.26-.1.56-.06-.14 0 .43 0-.29-.07-.23 0 .24.07-.52-.27-.31-.14s.23.17-.06-.06c-.45-.37.23.35-.09-.1s0 .06.07.14l.17.33c.16.31-.09-.18-.09-.21a.92.92 0 00.09.23l.15.48c.41 1.38.6 2.82.92 4.22s1 3.24 2.66 3.74c2.14.64 3.3-1.52 3.6-3.24.25-1.4.29-2.81.45-4.22a2.25 2.25 0 00-2.24-2.23 2.29 2.29 0 00-2.23 2.23zM615.66 1519.28l.54 7.45a2.28 2.28 0 002.83 2.15 16.7 16.7 0 0011-6.77l-4.08-.53c.19.6.36 1.21.5 1.82q.1.46.18.93c0 .14.05.28.07.42.08.37-.05-.52 0 .14a21.69 21.69 0 01.1 3.78 2.24 2.24 0 002.23 2.23 2.28 2.28 0 002.23-2.23 22.57 22.57 0 00-1-8.28 2.23 2.23 0 00-1.85-1.6 2.29 2.29 0 00-2.23 1.07c-.14.19-.13.18 0 0l-.22.27c-.14.17-.29.35-.45.52-.31.33-.64.66-1 1l-.52.44c-.2.16-.18.15 0 0l-.28.21c-.37.27-.76.52-1.15.75a12 12 0 01-1.23.64l-.31.14-.64.24a14.58 14.58 0 01-2.69.62l2.83 2.16-.55-7.45a2.23 2.23 0 10-4.46 0zM650.08 1517.3c.16-.24-.19.23-.2.24a.73.73 0 00.14-.16c.06-.06.26-.21-.07 0s-.11.09 0 0 .13-.08.14-.07-.59.2-.31.13.25-.07.39-.09l-.6.08a3.05 3.05 0 01.74 0l-.59-.08a2.78 2.78 0 01.5.11l.21.07c.35.11-.22-.07-.24-.11s.37.2.47.26l.19.13c.19.12-.48-.42-.17-.13l.35.36c.24.25-.32-.48-.13-.17 0 .06.09.12.13.19l.1.2c.18.3-.18-.55-.08-.21a5 5 0 01.15.67l-.08-.59a5.71 5.71 0 010 1.37l.08-.59a9.1 9.1 0 01-.26 1.15c-.06.18-.12.36-.19.54s-.15.38 0 .06-.05.09-.07.13a20.45 20.45 0 01-1.18 2.15 2.24 2.24 0 103.86 2.26c1.45-2.41 2.93-5.37 2-8.25a5.87 5.87 0 00-5.4-4 4.36 4.36 0 00-3.73 2 2.25 2.25 0 00.8 3.06 2.3 2.3 0 003.06-.8z" fill="#5e5d57"/><path d="M368.32 1602h17.2c1.55-24.65-3.84-68.67-21.91-47.89-2.35 4.73-1.54 10.35-.67 15.56q2.69 16.14 5.38 32.33zM294.62 1453c48.37-3.51 64.66 32.14 97.44 56.65 4.25 1.68 6 7.6.36 8-7.11-1.26-13.17-6.53-18.75-10.89l-3.12 9.64a127.32 127.32 0 01-13.92-10.08c-1 4.11 7.21 9.82 2.08 13.17-2.81 1.27-6.94-3.66-9.24-.48a6.29 6.29 0 00-1.07 2.09c-1 7.1-2.38 6.7-3 6.49-3.4-1.18-5.61-9-8.92-10.46a104.64 104.64 0 0111.33 43.13c-5.09.57-8.72-4.63-11.13-9.15q.36 11.37.14 22.74c-22-25.8-9.39 3.7-18.85 13.84-2.4 1.25-4.59-2-5.5-4.49-4.68-13.11-9.54-79.43-6.25-79.17 13.05 6.81 18.23 23.3 24.12 36.26 2-7.55-1.47-14.65-2.81-21.78 2.67-7-2.64-13.93-4.84-20.5-3.63-13.52-20.84 1.65-25-8.24a71.71 71.71 0 01-3.89-37.94" fill="#3f3e39"/><path d="M482.81 1477.65l-3.05-1.34c-19.64-6.49-42-2.15-62.35 1.8-12.75 2.47-37.5-.68-47.08 8.08-6.93 6.33.29 20.52-6.21 27.29 3.59 3.88 10.76-5.21 4.67 9.51l17.85 1.71a147.18 147.18 0 00-10.09 11.52c7.45 1.23 14.54-1.84 21.45-3.43 2.08.71 1 3.79 1 6-.41 3.88 5.55 5.84 6.43 1.65 7.9 5.26 7.27 6.81 14.92 0l2.84 14a32.43 32.43 0 0011.48-7.83 26.32 26.32 0 012.12 10.08c4.84.9 9.42-4.87 14-3.19 5.86 3.69 5.55 9.29 14.46 7.5 10.18 3 13.25 3 17.51 1.79zM371.06 1536.64l-4.88.37c1.09-2.22-1.39-3.42-3.22-3.71-1.72-3.48-8.9-6.62-9.62-.82-1 4 1.35 8.16.47 12.15a2.25 2.25 0 003.87 2.16c1.47-1.76 3.58-4.35 6.08-3.32 1.77 1.51 4.08 3.15 6.35 1.5 2.04-1.87 6.06-8.05.95-8.33zM385.85 1551.91l.66 9.84a2.23 2.23 0 004.38.59c1.09-3.37 2.54-7.06 1.51-10.64a5.26 5.26 0 00-3.84-4c-1.89-.39-4.19.18-5.05 2.09a2.3 2.3 0 00.8 3.06 2.26 2.26 0 003.05-.81c0-.08.16-.22.17-.31-.23.29-.28.35-.12.19l.08-.08c-.3.22-.36.28-.16.16l.1-.06c-.36.14-.43.18-.21.1h.12c.39-.13-.52 0-.12 0a2.28 2.28 0 00.37 0c-.29.09-.47-.09-.1 0a1.69 1.69 0 00.36.12c-.33 0-.37-.19-.08 0s0 .12 0-.05a.86.86 0 01.14.13c.1.11.06.06-.14-.17 0 0 .23.42.24.45.25.47-.13-.44 0 .07l.15.47c0 .16.07.32.1.49.11.53 0-.49 0 .06a8.63 8.63 0 01-.06 2c.07-.38 0-.15 0 .09s-.06.35-.1.52c-.07.34-.15.69-.24 1-.35 1.32-.81 2.6-1.23 3.9l4.38.59-.66-9.84a2.23 2.23 0 00-4.46 0z" fill="#3f3e39"/><path d="M392.78 1539a9.87 9.87 0 00-12.54 3.46 2.25 2.25 0 00.8 3 2.27 2.27 0 003.06-.8l.17-.26c.21-.3 0 0-.08.1a5 5 0 00.42-.48 6.14 6.14 0 01.45-.43 1.56 1.56 0 00.2-.16c-.29.36-.26.2-.05 0a8.32 8.32 0 011-.61 1.43 1.43 0 00.28-.13c-.13.09-.46.19-.12.06a6.17 6.17 0 01.61-.19 4.92 4.92 0 01.55-.14l.31-.06c.28 0-.55.06-.15 0a10.6 10.6 0 011.26 0h.31c.26 0-.59-.11-.15 0l.61.13a5 5 0 01.55.17 2.49 2.49 0 00.29.11l-.3-.13.23.11a2.29 2.29 0 003.06-.8 2.26 2.26 0 00-.81-3zM374.22 1529.56c-1.58-.44-3.14-.93-4.67-1.52-.22-.09-.19-.07.11 0l-.28-.12-.54-.25c-.3-.15-.59-.3-.88-.47s-.57-.36-.85-.54c-.45-.31.31.27 0 0-.12-.11-.25-.21-.37-.33l-.33-.34c-.36-.38.08.08.06.09s-.41-.77-.46-.78c.15.36.18.44.1.22l-.06-.21c0-.11-.05-.22-.08-.33-.09-.35 0 .6 0 0v-.48c0-.45-.11.49 0 .08a4.56 4.56 0 01.13-.53c0-.11.09-.5.18-.56-.12.29-.14.32 0 .1l.15-.3a12 12 0 01.63-1.1l.47-.66c.15-.21.16-.23 0-.06l.29-.36a2.3 2.3 0 000-3.16 2.27 2.27 0 00-3.16 0c-2 2.41-4.06 5.73-2.79 9 1.12 2.84 3.79 4.3 6.49 5.39a44.47 44.47 0 004.66 1.52 2.24 2.24 0 101.19-4.31z" fill="#3f3e39"/><path d="M451.33 1476.86c-9.33-2.45-107.6-4.93-41.56 33.13 0 .01 17.83-30.89 41.56-33.13zM311.24 1465.08c-.46 0 .45.08.61.12.36.09.72.19 1.07.3a10.6 10.6 0 012 .81 18 18 0 012.05 1.16 7.34 7.34 0 011.46 1.11q.32.3.6.63c-.34-.38 0 .1.15.27-.15-.21-.12-.25-.1-.38a1.28 1.28 0 01.66-1.17c-.37.29.28 0-.28.11-.05 0-.65.09-.2 0h-.6a22.23 22.23 0 01-3.55-.25c-1.84-.25-2.55 2-1.92 3.36a7.66 7.66 0 003.24 3.21 19.33 19.33 0 013.57 2.1c1.95 1.79 2.18 4.4 2.1 6.9-.09 2.86-.61 5.71-.4 8.58a9.65 9.65 0 001.11 4.45 6.65 6.65 0 002.83 2.28c.64.29 1.29.54 1.94.77.43.16 1.33.46 1.48.53a6.53 6.53 0 01.75.37c.1 0 .62.41.39.23a1.14 1.14 0 01.45.65 2.3 2.3 0 002.23 2.23 2.25 2.25 0 002.23-2.23 17.59 17.59 0 00-1.45-7.13 7.62 7.62 0 00-2.19-2.66 7.13 7.13 0 00-1.64-.92 2.41 2.41 0 00-.76-.32c-.37 0 .48 1.08-.37 1.51l-1.12.31h-.16c2.76.8 3.94-3.51 1.18-4.31a3.13 3.13 0 00-3.89 3.06c-.09 2.18 1.65 3 3.32 3.84 2.41 1.15 2.52 4.31 2.62 6.66h4.46c-.33-3-2.31-4.58-5-5.61a21.84 21.84 0 01-2.84-1.12l-.45-.27c.11.09-.38-.48-.21-.18a6.44 6.44 0 01-.36-1.47c-.86-5.81 2.06-12.11-1.54-17.43a11 11 0 00-4.08-3.61c-1.3-.7-2.9-1.22-3.57-2.64l-1.93 3.36c2.29.31 5.55.78 7.42-1 1.63-1.52 1-3.69-.24-5.19-2.54-3.08-7.12-5.14-11-5.57a2.24 2.24 0 00-2.23 2.23 2.29 2.29 0 002.23 2.24z" fill="#5e5d57"/><path d="M359 1484.88a47.49 47.49 0 01-12.2-6l-1.72 4.08a16.13 16.13 0 015.61 2.73 61.34 61.34 0 016.53 5.18 145.85 145.85 0 0111.22 11.16c1.7 1.87 4.85-.56 3.5-2.71l-8.78-14-1.34 3.28a164.11 164.11 0 0021.43-5.12l-1.19-4.3a131.58 131.58 0 00-18.54 8.91c-2.15 1.25-.74 4.86 1.72 4.08l8.22-2.6c2.73-.86 1.57-5.18-1.18-4.3l-8.23 2.6 1.72 4.08a124.61 124.61 0 0117.48-8.47 2.3 2.3 0 001.56-2.74 2.26 2.26 0 00-2.75-1.56 163.93 163.93 0 01-21.42 5.11 2.25 2.25 0 00-1.34 3.28l8.79 14 3.5-2.71a141.35 141.35 0 00-11.73-11.62 67.83 67.83 0 00-7.17-5.58 19.49 19.49 0 00-6.42-3 2.24 2.24 0 00-1.72 4.08 51.49 51.49 0 0013.26 6.43c2.74.88 3.92-3.43 1.19-4.31zM446.93 1522.7c-14 6.19-29.64 10.46-40.15 22.26-1 1.13-.79 3.44 1 3.73a33.56 33.56 0 0022.48-4.09c6.67-3.78 12.34-9.11 18.27-13.91a2.24 2.24 0 00.35-2.7 2.35 2.35 0 00-2.52-1c-12.83 1.87-22.71 11.47-35.07 14.72l1.72 4.08c12.35-6.17 28.67-6.19 37.24-18.48l-3.86-2.25c-3.07 4.46-7.75 7.42-12.51 9.81-5 2.5-10.24 4.41-15.28 6.79a2.25 2.25 0 00-.8 3 2.27 2.27 0 003.05.8c10.43-4.9 22.52-8.21 29.4-18.2a2.26 2.26 0 00-.8-3 2.29 2.29 0 00-3.06.8c-3.73 5.36-10.07 8-16.05 10-6.56 2.19-13.37 3.75-19.58 6.86-2.3 1.15-.68 4.71 1.72 4.08 12.35-3.25 22.28-12.86 35.07-14.72l-2.18-3.73c-5.46 4.42-10.67 9.27-16.75 12.85a28.87 28.87 0 01-19.65 4l1 3.74c10.21-11.46 25.7-15.56 39.25-21.57a2.25 2.25 0 00.8-3 2.27 2.27 0 00-3.05-.8zM326.16 1538.89a23.54 23.54 0 00.45 5.24c.44 1.49 1.71 2.73 3.38 2.26a4.12 4.12 0 002.47-2.87c.32-.91.52-1.87.76-2.8.13-.52.26-1 .41-1.54.07-.21.14-.43.22-.65a1.4 1.4 0 01.13-.36l-.08.19.11-.22c.08-.16.19-.31.27-.47.19-.35-.36.42-.1.14l.13-.13c-.58.47-.34.24-.18.16-.61.3-.43.16-.23.12-.62.13-.54 0-.34.06-.45-.08-.56-.09-.34 0s.14 0-.56-.34c0 .09.72.82.42.43a8.82 8.82 0 01.63 1c.16.28.3.57.44.86.27.57-.14-.41.07.18.07.19.14.37.2.55 1.09 3.24 1.13 6.71 2.08 10a2.24 2.24 0 004.31-1.19c-.84-2.89-1-5.93-1.74-8.83a14.77 14.77 0 00-1.81-4.29c-.91-1.4-2.05-2.78-3.87-2.73-2.74.07-3.74 3.16-4.32 5.33-.26 1-.47 2-.78 3-.05.18-.12.36-.17.54-.12.39.27-.49.07-.17a1.19 1.19 0 01-.08.16c-.35.46.34-.27 0 .06a1.93 1.93 0 012.56.07c.44.44.33.47.22.27s.2.65.09.2c-.05-.19-.1-.38-.14-.58-.1-.49 0 .13 0 .14a2.82 2.82 0 01-.05-.43l-.06-.83c0-.81 0-1.63-.07-2.44a2.24 2.24 0 00-4.47 0zM381.48 1516.31l-.93 7.42 2.83-2.16a15.23 15.23 0 01-2.73-.79c.54.21-.18-.09-.28-.14a4.16 4.16 0 01-.47-.24q-.63-.33-1.23-.72l-.58-.4c-.2-.15-.2-.14 0 0l-.28-.23c-.32-.26-.62-.54-.92-.83a12 12 0 01-1-1l-.23-.27q.25.33 0 0l-.41-.59a2.26 2.26 0 00-2.22-1.07 2.3 2.3 0 00-1.86 1.6 22.62 22.62 0 00-1.41 8.22 2.23 2.23 0 104.46 0c0-.61 0-1.22.05-1.83 0-.33.06-.65.1-1 0 .24 0 .11 0 0s0-.36.09-.54a20.9 20.9 0 011-3.64l-4.08.53a16.76 16.76 0 0010.7 7.26 2.29 2.29 0 002.83-2.15l.93-7.42a2.24 2.24 0 00-2.24-2.23 2.31 2.31 0 00-2.23 2.23zM355.58 1510.54a4.16 4.16 0 00-2.87-2 5.82 5.82 0 00-3.68.64 5.57 5.57 0 00-2.32 2.34 7.28 7.28 0 00-.45 4.67 16.43 16.43 0 001.82 4.43 2.25 2.25 0 003.05.8 2.28 2.28 0 00.8-3.06l-.52-1-.24-.52-.12-.26c-.1-.22-.08-.17.06.14 0-.1-.17-.42-.2-.52s-.13-.36-.18-.53a8 8 0 01-.23-1.08l.08.6a5.24 5.24 0 010-1.48l-.08.59a6.27 6.27 0 01.17-.75c.09-.33-.27.53-.1.21a1.74 1.74 0 00.1-.19l.14-.22c.13-.22-.38.45-.16.21s.24-.26.37-.38.41-.22-.17.13l.18-.12c.14-.09.28-.16.43-.24.32-.17-.56.2-.22.09l.25-.08a2.78 2.78 0 01.5-.11l-.6.08a3 3 0 01.73 0l-.59-.08a2.7 2.7 0 01.39.08c.23 0 .26.22-.25-.12l.17.09c.17.08.27.29-.23-.2l.15.14s.08.12.13.15-.36-.52-.16-.18a2.23 2.23 0 003.86-2.25z" fill="#5e5d57"/></g><path d="M279.44 1264.52s61.79 24.3 203.69 19.79S676 1248.13 676 1248.13l20.1 342.24-158.7-1.85-28.9-196.61-25.5 8.68-8.84 196.24-153.94-.22z" fill="none" stroke="#262521" stroke-linecap="round" stroke-linejoin="round" stroke-width="3"/><path d="M364.37 531.26h0s.01-.03 0 0zM752.23 1043c-3.83-55.87-22.88-124.63-22.88-124.63s-14.59-306.95-52.89-331.94c-10.88-7.1-142.29-56.21-142.29-56.21s-2.49 55-82.84 55c-65.08 0-82.1-39.23-86.21-51.38a10.79 10.79 0 01-.75-2.59c-1 .65-100.94 62.69-145.44 89.5C174.2 647.71 192.25 945 192.25 945a619.79 619.79 0 00-3.6 128.12c5.53 68.42-1.88 179.2 14.45 197.94l61-1.5s-5.6-14.35-4.65-27c2.27-30.22 5.53-104.27 15.36-135.22s21.45-88.31 21.45-88.33c.49 23.68.3 42.23-1 50.33-3.6 21.92-31.66 102.78-17.78 133.07-3.34 29.28-5.7 66.94-5.7 66.94S367.4 1295 444.4 1294c137.52-1.66 240.17-35.54 240.17-35.54s-2.28-35.7-5.32-60.52c9.94-22.62-4.2-83.52-17.92-143 17.07 47.16 40.25 126.63 42.46 162.33 1.64 26.39 2.89 34.36 2.89 34.36h58.1s4.48-6.67 5.3-18.89-12.27-108.46-17.85-189.74z" fill="#262521" stroke="#262521" stroke-linecap="round" stroke-linejoin="round" stroke-width="3"/></svg>