<svg xmlns="http://www.w3.org/2000/svg" width="1000" height="1550" viewBox="0 0 1000 1550"><path d="M676.34 601.25C665.45 594.15 526.81 528 526.81 528s-9 42.67-63.91 47.58c-64.83 5.79-86.64-36-90.76-48.14l-87.91 73.8" fill="#fff" stroke="#262521" stroke-linecap="round" stroke-linejoin="round" stroke-width="3"/><path d="M296.22 1019s-11.62 57.38-21.45 88.33-13.09 105-15.36 135.22c-1 12.66 4.65 27 4.65 27l-61 1.5c-16.33-18.74-8.92-129.52-14.45-197.94A619.79 619.79 0 01192.25 945s-18.05-297.29 26.68-324.24 145.46-89.52 145.46-89.52-.24-.24.73 2.61c4.11 12.15 21.13 51.38 86.21 51.38 80.35 0 82.84-55 82.84-55s131.41 49.11 142.29 56.21c38.3 25 52.89 331.94 52.89 331.94s19 68.76 22.88 124.63c5.58 81.26 18.66 177.57 17.85 189.79s-5.3 18.89-5.3 18.89h-58.1s-1.25-8-2.89-34.36c-2.47-39.8-31-134-48.07-177.22" fill="#d8d8d8" stroke="#262521" stroke-linecap="round" stroke-linejoin="round" stroke-width="3"/><path d="M711 1220.48s30.63-3.83 52.36 0M200.27 1238s30.63-3.83 52.37 0M353 546.43s21.5 56.9 100.8 56.9 94.27-62 94.27-62" fill="none" stroke="#636363" stroke-linecap="round" stroke-linejoin="round"/><path d="M285.65 807.61s5.34 199.1 3.83 238.13c-.83 21.49-26.88 158.94-14.57 186.12 0 13-1.32 43-1.32 43s73.26 22.14 150.26 21.22c137.52-1.66 263.37-26.64 263.37-26.64s-6.69-30-7.46-43.63c14.49-25-20.49-181-22.29-250.9-1.22-47.59-16.09-167.28-16.09-167.28" fill="#d8d8d8" stroke="#262521" stroke-linecap="round" stroke-linejoin="round" stroke-width="3"/><path d="M285.89 1236.91s170.48 30.52 378.15-4.83" fill="none" stroke="#636363" stroke-linecap="round" stroke-linejoin="round"/><path d="M587.38 809.1c-1.89-8.07-9.92-8.57-17-9.2-17.72-3.62-21.79 15.5-29.19 27.78-3.69 5.87-8.45 17.58.93 20.71 7.56 3.3 10.57-5.87 13.88-10.81 7.37 4.74 12.25 16.46 22.35 11.08 9.87-4.18.61-12.42-3.83-16.77 6.6-6.25 16.98-12.42 12.86-22.79zm-17.93 7.9c-.75 2.16-4.55 5.24-6.19.56 1.24-2 1.56-3.79 4.82-2.79.62.17 2.12.04 1.37 2.23zM521.32 814.94c4.75 1.67 10-.8 11.2 4.76.43 3.36-.53 6.51-4 7.63-4.91 1.36-10.2 1.53-15.26 2.38-1 .91-.24.94.1 1.34 5.43.2 12.62-.5 14.06 6.14 0 7.25-9.89 7.08-15.1 8.37-35.18 5.26-13.67-28.87-1.68-42.49 4.85-5.69 44-9.41 31.88 5.8-5.99 7.91-13.58.62-21.2 6.07zM489.71 801.3c-3.52-2.38-12.08-4.47-12.21-4.09-19.44-.44-24.56 23.1-32.63 36.92-4.54 23 39.05 6.71 43.37-5.92 3.41-8.34 11.32-19.87 1.47-26.91zm-13.83 16.07c-1.51 5.17-4.89 8.66-10.61 11.09-.52-4.61 9.73-20.84 10.61-11.09zM435.73 809c4-5.08 5.69-13.45 13.46-13.55 5.94-.23 9 3.34 6.87 8.91-5.79 11.65-12.2 23.18-17.42 35.18-6 11.5-19.08 5.85-19.43-6.35-3.46 6.44-6.47 13.23-14.44 13.81-5 .68-8.6-3.13-6.75-7.79 3.27-11.26 28.66-62.24 36.61-30.47.23 1.62.78.9 1.1.26zM384.08 832.15c11.64-1.92 11.85 4.73 7.64 13.17-42.23 12.43-20.65-18.39-12.29-40.25 2-7.84 37.24-13.33 29.78.38-1.53 7.07-22.78 7.07-18.48 10.31 12.77-3.13 9.45 11.54.13 13.16-1.32.52-10.1 1.49-6.78 3.23zM484.89 712.4c-9.53.23-23.1-2.51-27.9 7.94-2.61 9.32-24.37 37.23-5.54 38.73a72.85 72.85 0 0021.66-.72c6.56-1.71 5.86-14.21-2.31-12.63-18.44-.69-1.33-3.45 5.05-4.38 8.32-4.07 1.42-13.41-6.28-11.7l-.24-1.58c5.07-2.08 10.29-1.89 15.65-1.75 9.96.22 9.41-13.78-.09-13.91zM425.77 732.91c6.29-7.92 11.38-18.6 21.72-21.66 5.39-1.48 8.4 2.43 6.1 7.53-5.36 12.68-14.9 22.77-23.76 33.07-3.62 4.11-7.93 7.13-14 6.06-13.35-2.86-4.37-20.13-5.69-29.53-1.64-9.39-.22-22.18 12.36-21.13 10.29 2.22 2.2 18.09 2.45 25.45.05.52.22 1.13.82.21zM384.62 712.19c-13.29 5.89-21.48 22.11-19 36.62 7.1 30.15 43.11-1.79 39.12-23.53.09-14.47-10.43-17.39-20.12-13.09zm.29 28.81c-7.78 3.11.36-12.21 4.46-13.21 1.11 4.78-1.03 10.91-4.46 13.21z"/><path d="M538.28 800.94c10.74 8.61-13.52 7.67-17.51 10.79-7.74 5.46 3.16 5.17 6.79 6.16 1.3.63 2.14.77 2.32 3.53-2.42 5-9.43 2.2-13.84 3.5-2.53 1.29-6.74 1.73-5.77 5.62 2.19 6.47 12.87-.85 14.24 6.67-4.62 7.86-16.93 4.58-24.4 3.58-11.29-4.44 8.64-30.12 13.2-36.21 4.09-4.84 11.23-3.5 17-4.35a30.78 30.78 0 017.97.71zM466.46 747.86c3.32-.45 12.28 1.25 7.26 5.61-5.57 4.36-13 2.27-19.51 1.93-14.95-2.93-.25-22.88 3.27-30.59 4-11.34 17.8-13.1 28.13-10.43 9.24 4.31-1.07 9.26-6.82 7.21-5.19-1.11-18 6.85-8.3 10 2.46.46 6.2-.39 6 3.06-1.3 2.87-8.66 4.77-12.41 4.2-7.72 1.3-4.67 9.99 2.38 9.01zM425.09 738.87c8.25-8.29 12.15-20.36 22.58-26.81 4.09 3.2 4.46 4.33 1.85 8.38-3.83 7.93-32.59 50.41-37.27 26.43 2.27-11.58-5.48-29.58 5.79-37 3.17-1.2 7.12 1.41 6.72 5.06.8 7.5-5.87 18.27.33 23.94zM396.72 819.55c.29 9-14 2.35-15.53 12.41 1.86.8 3.65 2 5.58 2.3s5.29-1.1 5.31 1.93c-.87 9.82-12.59 6.81-19.5 7.59-9.71-.88 3.52-21.88 4-27.85 3.52-10.18 9.68-16.06 20.86-16.26 6.08-1.51 14.24-.3 7.13 6.37-5.63 3.19-15.61 2.05-16.59 10.32l4 1.32c.32-.45 4.48.59 4.74 1.87z" fill="#fff"/><path d="M610.91 731.12c-.4-1.89-2.38-3.44-3.57-5 0 .18.12.36.18.54-9.24-5.15-19.87-7.32-26.25 2.6-5.78 8.54-22.32 32.08-6.8 37.59 6.56-.81 24.63 6 24.84-3.83 1.53-10-9-7.62-15.25-8.77-.1-.37-.25-2.33-.35-2.7 5.44-.56 21.7 3.76 17-6.64a11.54 11.54 0 00-8.81-5.67v-2.14c7.46-.72 21.8 7.74 19.01-5.98zM541.08 723.34c9.93-7.81 17.47-24.28 32-22.05 5.47 1.16 7.84 4.92 6 10.19-8.45 18.78-19.13 36.57-27.29 55.56-2.9 8.26-15.79 5.29-16.12-2.77 1.26-8.18 8.31-14.51 11-22.37l-.88-.61c-4.59 5.5-9.19 11-13.67 16.57-9.16 8.73-16.26-3-12.26-12.34l-.9-.46c-4 5-6.83 10.77-10.31 16.11-6.42 8.4-19.43 3.37-15.68-7.72 6.3-15.28 17.23-28 24.3-43 2.82-8.74 22.19-18.1 23.72-4.29-.11 5.64-1 11.3-.87 17zM384.37 780.08c8.49-2.21 13.62 7.37 7.33 13.39-4.71 7.8-16.37 1.44-18.23 12.07-4.53 15.31-9.25 30.85-15.27 45.62-2.2 4.07-7.41 5.57-11.58 4-10.12-4.84-1-19.3.49-27.37 0-4.72 11.89-25 4-24.29-13.4 2.14-21.61-12.12-7.7-18.09 5.18-1.12 10.45-1.83 15.69-2.71 0 .17 16.9-1.54 25.27-2.62zM360.86 707.09a6.89 6.89 0 00-9.84-9.21c-10.82 8.29-13.62 25.74-21.55 37.1-17.82 32.64 1.56 50.09 28.67 22.62 5.37-6.23 4.81-17.49-5.57-12.6l-9 5.54c-.57-12.45 12.98-30.73 17.29-43.45z"/><path d="M599.66 724.78c-16.66-4.57-25.66 17.38-28.35 30.59-2.42 11 19.33 10.65 25.72 6.78.58-10.53-13.91-1.51-14.75-8.7-.55-7.52 8-5.08 12.81-5.67 5-.64 4.11-3.7.68-6.17-3.3-.05-8.77-1.49-5.07-6.06 3-5.08 8.12-3.06 12.33-2.5 5.86 2.75 8.2-.29 4.38-5.31-.78-.83-6.52-2.54-7.75-2.96zM524.62 730.82c-9.22 2.25-14.93 33.8-26.68 28.39-4.74-8.44 5.59-17.24 8.4-25.08 8.28-11.27 10.92-29.8 26-33.82 8.85-1.46 6.38 14.73 5.68 20.21 2.67 16.52 22-20.45 32.4-18.65 4.28-.87 8 2.07 5.83 6.6-8.49 17.5-16.46 35.26-25.48 52.49-2.42 4.49-7.25 5.51-10.29 2.25-3.07-6.82 6.37-14.62 8.56-21.21 2.09-2.6 5.67-11.87-1-9-8.11 3.72-15.41 25.33-23.78 21-3-1.72-2.58-4.14-1.79-6.77 1.53-5.15 3.53-10.23 2.15-16.41zM368.61 784.19c6.63.58 19.54-5.52 22.48.4.26 5.55-5.56 8.81-10.65 9.09-12.8 1.14-14.86 35.45-20.56 46.41-1.66 10.83-16.79 16.58-14.48 1.13 1.43-8.08 21.33-43.17 5.92-42.47-4.14-1-10.87-.15-11.13-5.93-.38-7.6 22.81-7.61 28.42-8.63zM434.48 817.7c4.66-6.8 7-17.57 15.66-20.12 13-.82-10.34 26.77-11.21 32.93-2.95 7.93-7.58 16-14.61 5.8-1.62-3.37-1.34-7.81-3.34-11.23l-1.39-.25c-3.49 6.36-5.16 15.54-13.3 17.36-13.58-.49 4.45-21.21 6.28-27.37 9.26-15.58 21.09-20 21.08 2.89zM567.89 801.62c9.87.64 21.74 6.73 14.63 18-2.51 5.33-15.3 9.13-8.16 15.22 1.25 1.33 2.23 3 3.65 4.06 4.59 3.53-.64 8.4-4.59 7.87-3.3-.9-6.55-3.75-8.61-6.61-14.15-17-10.42 8.6-21.42 4.41-8.9-4.51 5.08-20.27 6.62-27.21 3.99-7.76 7.99-15.26 17.88-15.74zm-3 20.6c8.76 0 12.81-9.62 3.85-10.39-6.35.43-9.35 6.97-3.84 10.39zM477.51 799.57c11.46 0 16.11 7.66 12 17.85-4.28 14.38-14.59 21.75-29.12 23.78-6.57 2.36-14.35-2.43-10.77-9.76 6.66-12.09 10.43-32.64 27.89-31.87zm-10.42 30.95c7.7 1.23 20.53-22.23 5.39-19.12-4.03 1.89-15.19 18.73-5.39 19.12zM403.07 725.1c0 12.41-5.35 22.17-15.44 29.09-19.1 11.3-24.11-15.51-13.93-27.51 5.72-12.52 27.71-21.54 29.37-1.58zm-9.76 2.72c-.35-.67-1.09-2.85-1.59-2.8-1.83.2-4.22.63-5.24 1.9-2.08 4.38-11.56 12.2-5.89 16.32 9.12 3.31 12.16-7.96 12.72-15.42zM357.13 699.73c-8-4.54-11.45 11.59-15.51 16.26-5.9 13.65-16.64 26.6-16 42.08-.28 18.78 35.63 1 33.86-10.68-4.95-3.94-9.09 1.12-13.26 4.23-19.69 2.92 22.85-48.12 10.91-51.89z" fill="#fff"/></svg>