<svg xmlns="http://www.w3.org/2000/svg" width="1250" height="1550" viewBox="0 0 1250 1550"><title>s02e05-02</title><rect x="458.04" y="1233.37" width="297.15" height="355.2" stroke-width="3" stroke="#262521" stroke-linecap="round" stroke-linejoin="round" fill="#262521"/><path d="M489.37,531.26l0,0S489.38,531.23,489.37,531.26Z" fill="#262521" stroke="#262521" stroke-linecap="round" stroke-linejoin="round" stroke-width="3"/><path d="M877.23,1043c-3.83-55.87-22.88-124.63-22.88-124.63s-14.59-306.95-52.89-331.94c-10.88-7.1-142.29-56.21-142.29-56.21s-2.49,55-82.84,55c-65.08,0-82.1-39.23-86.21-51.38a10.79,10.79,0,0,1-.75-2.59c-1,.65-100.94,62.69-145.44,89.5C299.2,647.71,317.25,945,317.25,945a619.79,619.79,0,0,0-3.6,128.12c5.53,68.42-1.88,179.2,14.45,197.94l61-1.5s-5.6-14.35-4.65-27c2.27-30.22,5.53-104.27,15.36-135.22s21.45-88.31,21.45-88.33c.49,23.68.3,42.23-1,50.33-3.6,21.92-2.81,193.2-2.81,193.2s83.87,54.51,160.87,53.58c137.52-1.66,231.32-57.66,231.32-57.66s-9.52-144-23.24-203.48c17.07,47.16,40.25,126.63,42.46,162.33,1.64,26.39,2.89,34.36,2.89,34.36h58.1s4.48-6.67,5.3-18.89S882.81,1124.28,877.23,1043Z" fill="#262521" stroke="#262521" stroke-linecap="round" stroke-linejoin="round" stroke-width="3"/><path d="M578.25,1316.15c137.52-1.66,231.32-57.66,231.32-57.66" fill="none" stroke="#636363" stroke-linecap="round" stroke-linejoin="round"/><polyline points="821.08 1590.37 662.38 1588.52 633.48 1391.91 607.96 1400.59 599.12 1596.83 445.18 1596.61" fill="none" stroke="#636363" stroke-linecap="round" stroke-linejoin="round"/><path d="M499.38,528.62s12.75,107.09,77,107.09S651.2,528.15,651.2,528.15" fill="none" stroke="#262521" stroke-linecap="round" stroke-linejoin="round" stroke-width="8.27" stroke-dasharray="1.65 4.96"/><path d="M575,635.85a1.66,1.66,0,0,1,0-3.31c.53,0,1.06,0,1.6,0a1.68,1.68,0,0,1,1.72,1.58,1.65,1.65,0,0,1-1.57,1.73c-.58,0-1.15,0-1.71.05Zm-5-.2h-.16c-.57,0-1.13-.11-1.7-.18a1.67,1.67,0,0,1-1.43-1.85,1.65,1.65,0,0,1,1.85-1.43l1.59.17a1.65,1.65,0,0,1-.15,3.3Zm11.53-.3a1.65,1.65,0,0,1-.22-3.29q.81-.1,1.59-.24a1.66,1.66,0,0,1,.54,3.27l-1.68.25Zm-18-.77a1.74,1.74,0,0,1-.39-.05c-.56-.13-1.11-.28-1.66-.43a1.66,1.66,0,0,1,.9-3.19c.5.15,1,.28,1.54.41a1.63,1.63,0,0,1,1.21,2A1.65,1.65,0,0,1,563.53,634.58Zm24.51-.49a1.65,1.65,0,0,1-.41-3.25l1.55-.42a1.65,1.65,0,0,1,.91,3.18l-1.64.44A1.48,1.48,0,0,1,588,634.09Zm-30.79-1.52a1.66,1.66,0,0,1-.61-.12c-.53-.21-1.06-.43-1.58-.66a1.65,1.65,0,1,1,1.34-3c.48.21,1,.42,1.47.61a1.65,1.65,0,0,1-.62,3.19Zm37.07-.49a1.65,1.65,0,0,1-.6-3.19l1.48-.61a1.66,1.66,0,0,1,1.3,3.05l-1.58.64A1.59,1.59,0,0,1,594.32,632.08Zm-43-2.37a1.72,1.72,0,0,1-.82-.21l-1.47-.87a1.65,1.65,0,1,1,1.73-2.82c.45.28.91.55,1.37.81a1.65,1.65,0,0,1-.81,3.09Zm-19.48-17.62a1.64,1.64,0,0,1-1.31-.64l-1-1.34a1.66,1.66,0,1,1,2.66-2c.32.44.65.87,1,1.3a1.65,1.65,0,0,1-1.31,2.66ZM528,606.72a1.65,1.65,0,0,1-1.37-.74c-.32-.46-.62-.93-.93-1.4a1.66,1.66,0,1,1,2.78-1.8c.29.46.59.91.9,1.36a1.67,1.67,0,0,1-.46,2.3A1.63,1.63,0,0,1,528,606.72Zm100-5.07a1.61,1.61,0,0,1-.86-.25,1.64,1.64,0,0,1-.55-2.27l.85-1.4a1.64,1.64,0,0,1,2.26-.58,1.66,1.66,0,0,1,.58,2.27l-.87,1.43A1.65,1.65,0,0,1,628,601.65Zm-103.56-.54a1.65,1.65,0,0,1-1.43-.82l-.84-1.44a1.66,1.66,0,0,1,2.87-1.65l.83,1.42a1.65,1.65,0,0,1-.6,2.26A1.58,1.58,0,0,1,524.47,601.11Zm106.86-5.21a1.56,1.56,0,0,1-.78-.2,1.65,1.65,0,0,1-.68-2.24l.77-1.45a1.65,1.65,0,0,1,2.93,1.53l-.78,1.49A1.67,1.67,0,0,1,631.33,595.9Zm-110.08-.58a1.65,1.65,0,0,1-1.46-.88c-.26-.49-.52-1-.77-1.49a1.65,1.65,0,0,1,2.94-1.5l.75,1.45a1.65,1.65,0,0,1-1.46,2.42ZM634.31,590a1.62,1.62,0,0,1-.7-.16,1.65,1.65,0,0,1-.79-2.2l.69-1.49a1.65,1.65,0,1,1,3,1.39l-.7,1.51A1.65,1.65,0,0,1,634.31,590Zm-116-.59a1.64,1.64,0,0,1-1.49-.95c-.24-.51-.48-1-.71-1.52a1.66,1.66,0,0,1,3-1.38c.23.5.45,1,.69,1.49a1.66,1.66,0,0,1-.79,2.2A1.63,1.63,0,0,1,518.3,589.39ZM637,583.93a1.63,1.63,0,0,1-.64-.13,1.65,1.65,0,0,1-.89-2.16l.63-1.52a1.65,1.65,0,0,1,3.06,1.25l-.63,1.54A1.66,1.66,0,0,1,637,583.93Zm-121.41-.58a1.66,1.66,0,0,1-1.52-1l-.64-1.53a1.65,1.65,0,1,1,3-1.27l.63,1.51a1.65,1.65,0,0,1-.87,2.17A1.84,1.84,0,0,1,515.6,583.35Zm123.84-5.58a1.53,1.53,0,0,1-.58-.11,1.65,1.65,0,0,1-1-2.12l.57-1.54a1.65,1.65,0,1,1,3.11,1.12c-.19.52-.38,1-.58,1.57A1.65,1.65,0,0,1,639.44,577.77Zm-126.32-.56a1.65,1.65,0,0,1-1.54-1.06l-.6-1.56a1.65,1.65,0,0,1,3.1-1.16l.58,1.53a1.65,1.65,0,0,1-.95,2.14A1.51,1.51,0,0,1,513.12,577.21Zm128.52-5.69a1.88,1.88,0,0,1-.52-.08,1.66,1.66,0,0,1-1-2.1l.51-1.55a1.65,1.65,0,1,1,3.15,1c-.17.53-.34,1.06-.52,1.6A1.66,1.66,0,0,1,641.64,571.52ZM510.84,571a1.66,1.66,0,0,1-1.56-1.11l-.55-1.57a1.65,1.65,0,1,1,3.13-1.07l.54,1.55a1.65,1.65,0,0,1-1,2.11A1.7,1.7,0,0,1,510.84,571Zm132.78-5.8a1.84,1.84,0,0,1-.47-.06,1.66,1.66,0,0,1-1.12-2.06l.45-1.57a1.66,1.66,0,0,1,3.19.9L645.2,564A1.64,1.64,0,0,1,643.62,565.19Zm-134.88-.49a1.65,1.65,0,0,1-1.57-1.15l-.5-1.59a1.65,1.65,0,1,1,3.16-1l.49,1.57a1.64,1.64,0,0,1-1.58,2.15Zm136.64-5.89a1.4,1.4,0,0,1-.41-.06,1.65,1.65,0,0,1-1.19-2c.14-.53.28-1.06.41-1.58a1.65,1.65,0,1,1,3.21.8q-.21.79-.42,1.62A1.65,1.65,0,0,1,645.38,558.81Zm-138.56-.45a1.66,1.66,0,0,1-1.59-1.19l-.46-1.61a1.65,1.65,0,1,1,3.18-.89l.46,1.58a1.66,1.66,0,0,1-1.13,2A1.88,1.88,0,0,1,506.82,558.36Zm140.14-6a1.5,1.5,0,0,1-.37,0,1.66,1.66,0,0,1-1.25-2l.36-1.6a1.65,1.65,0,1,1,3.23.71l-.36,1.63A1.66,1.66,0,0,1,647,552.36Zm1.38-6.48-.33,0a1.65,1.65,0,0,1-1.29-2l.31-1.61a1.65,1.65,0,1,1,3.25.62l-.32,1.64A1.65,1.65,0,0,1,648.34,545.88Z" fill="#b7b6b0"/><path d="M576.57,638.41h0c-.57,0-1.14,0-1.7,0a1.65,1.65,0,1,1,.13-3.3l1.61,0a1.66,1.66,0,0,1,0,3.31Zm4.95-.18a1.65,1.65,0,0,1-.14-3.3c.54,0,1.07-.09,1.6-.15a1.66,1.66,0,0,1,.37,3.29l-1.7.16ZM570,637.94l-.22,0c-.57-.07-1.13-.16-1.69-.25a1.65,1.65,0,1,1,.54-3.26l1.58.24a1.65,1.65,0,0,1-.21,3.29Zm18.07-.64a1.66,1.66,0,0,1-1.62-1.32,1.65,1.65,0,0,1,1.28-2l1.56-.36a1.66,1.66,0,1,1,.78,3.22c-.55.13-1.1.26-1.66.37A1.37,1.37,0,0,1,588.05,637.3Zm-24.55-.65a1.63,1.63,0,0,1-.43,0c-.55-.15-1.09-.3-1.64-.47a1.66,1.66,0,1,1,1-3.17c.51.16,1,.3,1.53.44a1.65,1.65,0,0,1-.42,3.25Zm30.91-1.12a1.66,1.66,0,0,1-1.56-1.11,1.64,1.64,0,0,1,1-2.1l1.5-.56a1.66,1.66,0,0,1,1.19,3.09l-1.6.59A1.76,1.76,0,0,1,594.41,635.53Zm-37.17-1a1.76,1.76,0,0,1-.63-.12c-.52-.22-1.05-.44-1.56-.67a1.65,1.65,0,1,1,1.34-3l1.47.62a1.66,1.66,0,0,1-.62,3.19Zm43.25-1.6a1.65,1.65,0,0,1-.74-3.13c.48-.24,1-.48,1.42-.74a1.66,1.66,0,0,1,1.58,2.91c-.5.27-1,.53-1.52.79A1.63,1.63,0,0,1,600.49,633Zm-49.2-1.27a1.58,1.58,0,0,1-.81-.21c-.49-.27-1-.55-1.46-.84a1.65,1.65,0,1,1,1.69-2.84c.46.27.92.54,1.39.8a1.65,1.65,0,0,1-.81,3.09Zm-5.58-3.53a1.62,1.62,0,0,1-1-.31l-1.37-1a1.65,1.65,0,1,1,2-2.64l1.3,1a1.66,1.66,0,0,1-1,3Zm79.19-17a1.67,1.67,0,0,1-1.34-2.63c.32-.44.63-.88.94-1.33a1.66,1.66,0,0,1,2.72,1.9c-.32.46-.65.92-1,1.37A1.63,1.63,0,0,1,624.9,611.1Zm-97.59-1.84a1.65,1.65,0,0,1-1.34-.69c-.33-.45-.66-.91-1-1.37a1.66,1.66,0,1,1,2.72-1.89c.31.45.62.89.94,1.33a1.66,1.66,0,0,1-.37,2.31A1.69,1.69,0,0,1,527.31,609.26Zm101.29-3.65a1.65,1.65,0,0,1-1.4-2.53l.85-1.39a1.66,1.66,0,0,1,2.83,1.72c-.29.48-.59,1-.88,1.42A1.66,1.66,0,0,1,628.6,605.61Zm-105-1.84a1.65,1.65,0,0,1-1.4-.77c-.3-.48-.6-1-.89-1.43a1.65,1.65,0,1,1,2.82-1.73c.28.46.58.93.87,1.39a1.66,1.66,0,0,1-1.4,2.54ZM632,599.91a1.66,1.66,0,0,1-1.45-2.46c.27-.48.53-1,.79-1.44a1.65,1.65,0,1,1,2.91,1.57c-.26.49-.53,1-.8,1.47A1.65,1.65,0,0,1,632,599.91Zm-111.77-1.84a1.64,1.64,0,0,1-1.44-.84l-.82-1.46a1.66,1.66,0,0,1,2.9-1.6c.26.48.53,1,.8,1.44a1.65,1.65,0,0,1-.63,2.25A1.72,1.72,0,0,1,520.19,598.07ZM635,594a1.62,1.62,0,0,1-.73-.17,1.65,1.65,0,0,1-.75-2.21c.24-.49.48-1,.71-1.48a1.66,1.66,0,0,1,3,1.43c-.24.5-.49,1-.73,1.51A1.67,1.67,0,0,1,635,594Zm-118-1.79a1.66,1.66,0,0,1-1.48-.9l-.75-1.5a1.65,1.65,0,0,1,3-1.46l.73,1.46a1.65,1.65,0,0,1-.72,2.22A1.69,1.69,0,0,1,517.06,592.23ZM637.82,588a1.7,1.7,0,0,1-.66-.14,1.65,1.65,0,0,1-.85-2.18c.22-.5.44-1,.65-1.51a1.65,1.65,0,0,1,3,1.3l-.66,1.54A1.67,1.67,0,0,1,637.82,588Zm-123.64-1.75a1.65,1.65,0,0,1-1.51-1l-.69-1.52a1.65,1.65,0,1,1,3-1.35l.68,1.49a1.65,1.65,0,0,1-.81,2.19A1.57,1.57,0,0,1,514.18,586.26Zm126.19-4.37a1.66,1.66,0,0,1-1.54-2.27l.6-1.52a1.65,1.65,0,1,1,3.08,1.18l-.6,1.56A1.66,1.66,0,0,1,640.37,581.89Zm-128.85-1.7a1.66,1.66,0,0,1-1.53-1l-.63-1.54a1.65,1.65,0,1,1,3.06-1.25l.63,1.52a1.65,1.65,0,0,1-.89,2.16A1.63,1.63,0,0,1,511.52,580.19Zm131.17-4.52a1.76,1.76,0,0,1-.55-.09,1.65,1.65,0,0,1-1-2.11l.54-1.55A1.65,1.65,0,1,1,644.8,573l-.55,1.58A1.65,1.65,0,0,1,642.69,575.67ZM509.08,574a1.66,1.66,0,0,1-1.55-1.07l-.58-1.57a1.65,1.65,0,1,1,3.1-1.14l.57,1.54a1.65,1.65,0,0,1-1,2.13A1.7,1.7,0,0,1,509.08,574Zm135.72-4.64a1.69,1.69,0,0,1-.5-.08,1.66,1.66,0,0,1-1.08-2.08l.49-1.57a1.65,1.65,0,0,1,3.16,1l-.5,1.59A1.64,1.64,0,0,1,644.8,569.39Zm-138-1.6a1.66,1.66,0,0,1-1.57-1.11l-.53-1.59a1.65,1.65,0,1,1,3.13-1.05l.53,1.56a1.65,1.65,0,0,1-1,2.1A1.7,1.7,0,0,1,506.83,567.79ZM646.71,563a1.41,1.41,0,0,1-.45-.07,1.65,1.65,0,0,1-1.14-2c.16-.53.3-1.06.45-1.58a1.65,1.65,0,1,1,3.19.88c-.15.53-.3,1.07-.46,1.61A1.67,1.67,0,0,1,646.71,563Zm1.73-6.41a1.48,1.48,0,0,1-.41,0,1.66,1.66,0,0,1-1.19-2l.4-1.6a1.65,1.65,0,1,1,3.21.8l-.4,1.62A1.66,1.66,0,0,1,648.44,556.63Zm1.56-6.45a1.55,1.55,0,0,1-.37,0,1.64,1.64,0,0,1-1.24-2l.35-1.6a1.66,1.66,0,1,1,3.24.7l-.37,1.63A1.65,1.65,0,0,1,650,550.18Z" fill="#7f7e78"/><path d="M600.32,629.33a1.65,1.65,0,0,1-.78-3.11l1.41-.78a1.65,1.65,0,0,1,1.64,2.87c-.49.28-1,.56-1.5.83A1.65,1.65,0,0,1,600.32,629.33ZM545.8,626.1a1.62,1.62,0,0,1-1-.32c-.45-.34-.91-.68-1.35-1a1.65,1.65,0,1,1,2-2.6l1.28,1a1.65,1.65,0,0,1-1,3Zm60.17-.21a1.65,1.65,0,0,1-.94-3l1.32-.93a1.65,1.65,0,1,1,1.94,2.67c-.46.34-.92.66-1.38,1A1.63,1.63,0,0,1,606,625.89Zm-65.25-4a1.62,1.62,0,0,1-1.12-.44l-1.23-1.16a1.65,1.65,0,0,1,2.3-2.38c.39.38.78.75,1.18,1.11a1.66,1.66,0,0,1-1.13,2.87Zm70.48,0a1.61,1.61,0,0,1-1.25-.58,1.64,1.64,0,0,1,.18-2.33l1.21-1.06a1.65,1.65,0,0,1,2.21,2.46l-1.27,1.12A1.71,1.71,0,0,1,611.2,621.87Zm4.81-4.51a1.69,1.69,0,0,1-1.16-.47,1.67,1.67,0,0,1,0-2.34q.57-.57,1.11-1.17a1.66,1.66,0,1,1,2.43,2.25q-.57.63-1.17,1.23A1.64,1.64,0,0,1,616,617.36Zm-79.93-.18a1.67,1.67,0,0,1-1.23-.55c-.37-.42-.75-.84-1.11-1.26a1.66,1.66,0,1,1,2.5-2.17c.35.41.71.82,1.07,1.22a1.66,1.66,0,0,1-1.23,2.76Zm84.33-4.76a1.65,1.65,0,0,1-1.28-2.7l1-1.26a1.65,1.65,0,0,1,2.59,2l-1,1.31A1.64,1.64,0,0,1,620.41,612.42Zm4-5.25a1.65,1.65,0,0,1-1.35-2.61l.93-1.33a1.65,1.65,0,1,1,2.73,1.86c-.32.46-.63.92-1,1.38A1.63,1.63,0,0,1,624.4,607.17Z" fill="#f4f4f4"/><path d="M606.21,629.64a1.65,1.65,0,0,1-.91-3l1.32-.9a1.65,1.65,0,1,1,1.9,2.7c-.46.33-.93.65-1.4,1A1.69,1.69,0,0,1,606.21,629.64Zm5.3-3.94a1.66,1.66,0,0,1-1.06-2.93l1.23-1a1.64,1.64,0,0,1,2.33.15,1.66,1.66,0,0,1-.15,2.33c-.43.38-.86.74-1.29,1.1A1.66,1.66,0,0,1,611.51,625.7Zm-71-1.67a1.64,1.64,0,0,1-1.08-.4c-.43-.37-.85-.75-1.27-1.13a1.66,1.66,0,0,1,2.24-2.44c.39.36.79.72,1.2,1.07a1.65,1.65,0,0,1-1.09,2.9Zm75.87-2.81a1.67,1.67,0,0,1-1.17-.47,1.66,1.66,0,0,1,0-2.34c.38-.39.76-.77,1.13-1.17a1.66,1.66,0,1,1,2.4,2.28c-.39.41-.78.82-1.18,1.22A1.66,1.66,0,0,1,616.39,621.22Zm-80.65-1.76a1.62,1.62,0,0,1-1.19-.51c-.39-.4-.78-.82-1.16-1.23a1.65,1.65,0,1,1,2.43-2.24l1.11,1.18a1.66,1.66,0,0,1,0,2.34A1.63,1.63,0,0,1,535.74,619.46Zm85.1-3.13a1.66,1.66,0,0,1-1.26-2.72l1-1.25a1.65,1.65,0,0,1,2.57,2.07c-.35.44-.71.88-1.07,1.31A1.63,1.63,0,0,1,620.84,616.33Zm-89.49-1.82a1.66,1.66,0,0,1-1.28-.6L529,612.6a1.65,1.65,0,1,1,2.59-2.06c.34.42.68.85,1,1.26a1.66,1.66,0,0,1-.22,2.33A1.62,1.62,0,0,1,531.35,614.51Z" fill="#f4f4f4"/><path d="M653.61,543.07c3.13,6.54-9.88,154.49-45.09,197" fill="none" stroke="#636363" stroke-linecap="round" stroke-linejoin="round" opacity="0.95"/><path d="M768.68,572.28S637.3,514.61,642.76,519.37c16,14-2,157.32-37.23,199.82S768.68,572.28,768.68,572.28Z" fill="#262521" stroke="#262521" stroke-linecap="round" stroke-linejoin="round" stroke-width="3"/><path d="M642.76,519.37c16,14-2,157.32-37.23,199.82" fill="none" stroke="#636363" stroke-linecap="round" stroke-linejoin="round"/><path d="M846.27,1593.84c-5.22-69.61-46.11-444.13-46.11-444.13l-229.44-44.63s100.39,377.59,161.56,488.76Z" fill="#262521" stroke="#262521" stroke-linecap="round" stroke-linejoin="round" stroke-width="3"/><path d="M570.72,1105.08s100.39,377.58,161.56,488.76" fill="none" stroke="#636363" stroke-linecap="round" stroke-linejoin="round"/><path d="M715.62,523.73c-13-.4-47.9,112.19-103.6,124.89-109.53,25-111.31-114-103.72-133,0,0-55,13-66.19,44.89L378.53,1569.87s6.79,24.57,115.79,0c74.6-16.81,145.28-509.46,208.42-638C759.73,815.85,728.67,524.14,715.62,523.73Z" fill="#262521" stroke="#262521" stroke-linecap="round" stroke-linejoin="round" stroke-width="3"/><path d="M378.53,1569.87s6.79,24.57,115.79,0c74.6-16.81,145.28-509.46,208.42-638,57-116,25.93-407.74,12.88-408.15S667.72,635.92,612,648.62c-109.53,25-111.31-114-103.72-133" fill="none" stroke="#636363" stroke-linecap="round" stroke-linejoin="round"/><path d="M444.25,575.59s30.11,239,75.71,281.19" fill="none" stroke="#636363" stroke-linecap="round" stroke-linejoin="round" opacity="0.95"/><path d="M482.1,598.36s26.46,221,79.41,312.56" fill="none" stroke="#636363" stroke-linecap="round" stroke-linejoin="round" opacity="0.95"/><path d="M543.49,696.59S657.84,822,704.12,644.34" fill="none" stroke="#636363" stroke-linecap="round" stroke-linejoin="round" opacity="0.95"/></svg>