<svg xmlns="http://www.w3.org/2000/svg" width="1000" height="1550" viewBox="0 0 1000 1550"><path fill="#fff" stroke="#262521" stroke-linecap="round" stroke-miterlimit="10" stroke-width="3" d="M279.44 1264.52l396.54-16.39 21.74 342.24-177.92-1.85-14.32-193.61-22.52 5.68-8.84 196.24-174.94-.22-19.74-332.09z"/><path fill="#262521" stroke="#262521" stroke-linecap="round" stroke-linejoin="round" stroke-width="3" d="M660.21 1275.11l5.57 71.7h10.58l-6.45-71.7h-9.7z"/><path fill="#262521" stroke="#262521" stroke-linecap="round" stroke-linejoin="round" stroke-width="3" d="M553.79 1588.87l-11.17-242.06 138.58-15.8 2.52 33.11-106.85 12.53 9.95 212.45-33.03-.23z"/><path fill="#262521" stroke="#262521" stroke-linecap="round" stroke-linejoin="round" stroke-width="3" d="M616.35 1558.01l-6.2-146.26 75.93-10.32 2.52 33.1-44.21 7.06 4.98 116.64-33.02-.22zM444.18 1587.57l6.64-242.23-167.38-17.97 2 38.01 131.7 10.44-5.97 212.59 33.01-.84z"/><path fill="#262521" stroke="#262521" stroke-linecap="round" stroke-linejoin="round" stroke-width="3" d="M381.06 1557.88l3.47-146.34-96.2-11.26 2.42 33.29 60.1 8.44-2.8 116.71 33.01-.84z"/><path d="M675.54 1225.65l5.66 56.15s-67.39 24.67-181.2 29.2-226.18-29.16-226.18-29.16l4.64-34.94z" fill="#fff" stroke="#262521" stroke-linecap="round" stroke-miterlimit="10" stroke-width="3"/><path d="M296.22 1019s-11.62 57.38-21.45 88.33-13.09 105-15.36 135.22c-1 12.66 4.65 27 4.65 27l-61 1.5c-16.33-18.74-8.92-129.52-14.45-197.94A619.79 619.79 0 01192.25 945s-18.05-297.29 26.68-324.24 149.6-93.12 149.6-93.12-.25-.25.72 2.6c4.11 12.15 18.37 50.54 83.45 50.54 80.36 0 75.14-53.15 75.14-53.15s137.74 51.72 148.62 58.82c38.3 25 52.89 331.94 52.89 331.94s19 68.76 22.88 124.63c5.58 81.26 18.66 177.57 17.85 189.79s-5.3 18.89-5.3 18.89h-58.1s-1.25-8-2.89-34.36c-2.47-39.8-31-134-48.07-177.22" fill="#fff" stroke="#262521" stroke-linecap="round" stroke-linejoin="round" stroke-width="3"/><path d="M191.85 937.83l.34 7.64c-.8 5.47-8.8 62.63-3.54 127.69 5.53 68.42-1.88 179.2 14.45 197.94l61-1.5s-5.6-14.35-4.65-27c2.27-30.22 5.53-104.27 15.36-135.22s21.41-88.38 21.41-88.38l-3.6-61.56s-62.95-6.44-100.77-19.61zM752.23 1043c-3.65-53.17-21.08-118-22.75-124.15-.44.21-.76-16.36-.76-16.36-17.39 15.16-57.28 25.51-74.45 27.37-4.78.52 1.45 110.24 1.45 110.24 17.07 43.17 45.6 137.42 48.07 177.22 1.64 26.39 2.89 34.36 2.89 34.36h58.1s4.48-6.67 5.3-18.89-12.27-108.51-17.85-189.79z" fill="#262521" stroke="#262521" stroke-linecap="round" stroke-linejoin="round" stroke-width="3"/><path d="M711 1220.48s30.63-3.83 52.36 0M200.27 1238s30.63-3.83 52.37 0" fill="none" stroke="#636363" stroke-linecap="round" stroke-linejoin="round"/><path d="M285.65 807.61s5.34 199.1 3.83 238.13c-.83 21.49-22.5 142.14-10.19 169.31 0 13-6.31 43-6.31 43s91 20.68 168 19.75c137.52-1.66 246.39-30.38 246.39-30.38s-6.68-30-7.46-43.63c14.5-25-20.61-158.94-22.41-228.89-1.22-47.59-16.09-167.28-16.09-167.28" fill="#fff" stroke="#262521" stroke-linecap="round" stroke-linejoin="round" stroke-width="3"/><path d="M244 673.14c14.9 9.41 30.14 17.22 47.24 21.77 36.67 9.77 75.73 7.53 113 3 42.23-5.1 96.79-6.49 139.1-10.92 11-1.15 72.8-6.11 82.12-8.52 9-2.34 42.29-42.1 68.64-57.42-5.21-17.83-11.06-30.36-17.62-34.63-10.88-7.1-148.62-58.82-148.62-58.82s5.22 53.15-75.14 53.15c-65.08 0-79.34-38.39-83.45-50.54a10.79 10.79 0 01-.75-2.59c-1 .66-105.06 66.3-149.57 93.11-7.28 4.39-12.9 15.94-17.2 32.2 15.44 3.18 29.04 11.89 42.25 20.21zM204.86 884.59c27.27 8.15 55.72 12.76 84.21 12.25l-3.42-58.5c-10.43-2.49-83.92-8.48-96.92-20.61-.21 23 0 43.85.49 61.75q7.78 2.74 15.64 5.11zM665.39 874c20.57-7.92 40.89-17.68 59.07-30.18-1.46-19.78-3.31-42.35-5.57-65.77-13.71 17.93-67.57 36.21-75.68 38-.37.38-.57.57-.57.57s4.67 35.73 7.36 61.38a86.89 86.89 0 0015.39-4z" fill="#262521" stroke="#262521" stroke-linecap="round" stroke-linejoin="round" stroke-width="3"/><path d="M290.84 969c120.59 6.62 347.55-20.12 364.6-17.6-2.44-34.57-7.39-84.4-7.39-84.4-30.85-5-114 22.86-360.44 20.33 0-.05 2.67 81.61 3.23 81.67zM659.94 1022.2c-163.32 26.46-366.73 14.48-366.9 16.29-2.11 22.1-26.06 149.39-13.75 176.56 0 13-6.31 43-6.31 43s91 20.68 168 19.75c137.52-1.66 246.39-30.38 246.39-30.38s-6.68-30-7.46-43.63c8.47-14.62.7-74-10.09-128.54-4.47-22.41-7.26-32.13-9.88-53.05z" fill="#262521" stroke="#262521" stroke-linecap="round" stroke-linejoin="round" stroke-width="3"/><path d="M290.28 1220.11s171.05 37.78 379.51-12.17" fill="none" stroke="#636363" stroke-linecap="round" stroke-linejoin="round"/></svg>