<svg xmlns="http://www.w3.org/2000/svg" width="1250" height="1550" viewBox="0 0 1250 1550"><title>s02e02-02</title><path d="M421.22,1019s-9.26,285.28-11.09,296.17-88.19,5.87-88.19,5.87c-9.73-21.32-2.76-179.5-8.29-247.92A619.79,619.79,0,0,1,317.25,945S299.2,647.71,343.93,620.76s145.46-89.52,145.46-89.52-.24-.24.73,2.61c4.11,12.15,21.13,51.38,86.21,51.38,80.35,0,82.84-55,82.84-55s131.41,49.11,142.29,56.21c38.3,25,52.89,331.94,52.89,331.94s19,68.76,22.88,124.63c5.58,81.26,33.92,236.51,25.26,251.32s-75,19-84.94,9.83-19.76-220.88-36.83-264.05" fill="#f9f9f4" stroke="#262521" stroke-linecap="round" stroke-linejoin="round" stroke-width="3"/><path d="M410.65,729.2s5.34,277.51,3.83,316.54c-.83,21.49-24,238.18-5.84,246.45,16.7,7.61,98.35,4.27,175.28,1,133.05-5.72,221.33.48,229.5-15s-29.15-233.3-30.95-303.25c-1.22-47.59-21.2-260.47-21.2-260.47" fill="#f9f9f4" stroke="#262521" stroke-linecap="round" stroke-linejoin="round" stroke-width="3"/><path d="M478.54,544.42c4.45,23,39.21,59.94,100.26,59.94,62.09,0,89.84-42.78,93.29-62.32" fill="none" stroke="#ccc" stroke-linecap="round" stroke-linejoin="round"/><path d="M509.53,585s-70.07,46.46-84.85,64.12-21.25,20.33-24.44,80.34" fill="none" stroke="#ccc" stroke-linecap="round" stroke-linejoin="round"/><path d="M649.73,579s69.94,35.76,84.72,53.42,25.45,61.77,28.64,121.77" fill="none" stroke="#ccc" stroke-linecap="round" stroke-linejoin="round"/><path d="M655.63,572.25s69.82,35.87,84.71,53.43c41.47,48.88,53.52,251.42,56.72,311.42l42.84,362.12" fill="none" stroke="#ccc" stroke-linecap="round" stroke-linejoin="round"/><path d="M660.72,566.13s71.81,35.34,86.71,52.9c41.47,48.88,55,258.07,58.16,318.07l42.85,365.12" fill="none" stroke="#ccc" stroke-linecap="round" stroke-linejoin="round"/><path d="M666.06,559.22s70.67,36.38,86.71,52.9c45.36,46.71,60,260.07,63.16,320.07L857.13,1301" fill="none" stroke="#ccc" stroke-linecap="round" stroke-linejoin="round"/><path d="M669.54,552.23s74.73,38.26,92.72,52.63c45.6,36.41,60.09,258.68,63.29,318.68l42.34,375.68" fill="none" stroke="#ccc" stroke-linecap="round" stroke-linejoin="round"/><path d="M672.09,544.83s79.85,39.54,97.84,53.91c45.6,36.41,61.93,256.34,65.13,316.34l43.11,383.07" fill="none" stroke="#ccc" stroke-linecap="round" stroke-linejoin="round"/><path d="M710.34,553.94s51.37,25.46,69.37,39.83c45.6,36.42,62.43,259.34,65.62,319.34l43.12,383.07" fill="none" stroke="#ccc" stroke-linecap="round" stroke-linejoin="round"/><path d="M579.66,604.36c-.14,226.66-.14,452.66,0,679.55" fill="none" stroke="#ccc" stroke-linecap="round" stroke-linejoin="round"/><path d="M590.23,603.86c.29,227.16.29,453.16,0,680.05" fill="none" stroke="#ccc" stroke-linecap="round" stroke-linejoin="round"/><path d="M600.79,602.43c-.27,226.59-.27,454.59,0,681.5" fill="none" stroke="#ccc" stroke-linecap="round" stroke-linejoin="round"/><path d="M611.35,599.94q.25,342.12,0,683.93" fill="none" stroke="#ccc" stroke-linecap="round" stroke-linejoin="round"/><path d="M621.91,596.24c-.39,228.78-.39,458.78,0,687.67" fill="none" stroke="#ccc" stroke-linecap="round" stroke-linejoin="round"/><path d="M632.48,591.09q.06,346.39,0,692.8" fill="none" stroke="#ccc" stroke-linecap="round" stroke-linejoin="round"/><path d="M643,584.11c.48,232.91.48,466.91,0,699.77" fill="none" stroke="#ccc" stroke-linecap="round" stroke-linejoin="round"/><path d="M653.6,582q-.12,351,0,701.9" fill="none" stroke="#ccc" stroke-linecap="round" stroke-linejoin="round"/><path d="M664.16,587c.36,232,.36,465,0,696.86" fill="none" stroke="#ccc" stroke-linecap="round" stroke-linejoin="round"/><path d="M674.72,592.59c-.2,230.43-.2,461.43,0,691.28" fill="none" stroke="#ccc" stroke-linecap="round" stroke-linejoin="round"/><path d="M685.29,598.77c.23,228.25.23,457.25,0,685.11" fill="none" stroke="#ccc" stroke-linecap="round" stroke-linejoin="round"/><path d="M695.85,604.86c-.33,226.16-.33,453.16,0,679" fill="none" stroke="#ccc" stroke-linecap="round" stroke-linejoin="round"/><path d="M706.41,611.06c.11,224,.11,449,0,672.82" fill="none" stroke="#ccc" stroke-linecap="round" stroke-linejoin="round"/><path d="M717,618q-.68,333,0,665.87" fill="none" stroke="#ccc" stroke-linecap="round" stroke-linejoin="round"/><path d="M727.54,625.88c0,219.14,0,439.14,0,658" fill="none" stroke="#ccc" stroke-linecap="round" stroke-linejoin="round"/><line x1="738.1" y1="637.49" x2="738.1" y2="1283.54" fill="none" stroke="#ccc" stroke-linecap="round" stroke-linejoin="round"/><line x1="748.66" y1="661.34" x2="748.66" y2="1280.18" fill="none" stroke="#ccc" stroke-linecap="round" stroke-linejoin="round"/><line x1="421.23" y1="653.77" x2="421.23" y2="1280.18" fill="none" stroke="#ccc" stroke-linecap="round" stroke-linejoin="round"/><line x1="431.79" y1="642.3" x2="431.79" y2="1278.94" fill="none" stroke="#ccc" stroke-linecap="round" stroke-linejoin="round"/><line x1="410.6" y1="1124.2" x2="410.6" y2="1280.18" fill="none" stroke="#ccc" stroke-linecap="round" stroke-linejoin="round"/><line x1="410.6" y1="682.8" x2="410.6" y2="722.27" fill="none" stroke="#ccc" stroke-linecap="round" stroke-linejoin="round"/><line x1="421.16" y1="653.77" x2="421.16" y2="1278.94" fill="none" stroke="#ccc" stroke-linecap="round" stroke-linejoin="round"/><line x1="442.35" y1="633.1" x2="442.35" y2="1283.14" fill="none" stroke="#ccc" stroke-linecap="round" stroke-linejoin="round"/><line x1="452.92" y1="624.9" x2="452.92" y2="1283.14" fill="none" stroke="#ccc" stroke-linecap="round" stroke-linejoin="round"/><line x1="463.48" y1="617.05" x2="463.48" y2="1283.94" fill="none" stroke="#ccc" stroke-linecap="round" stroke-linejoin="round"/><line x1="474.04" y1="609.44" x2="474.04" y2="1288.67" fill="none" stroke="#ccc" stroke-linecap="round" stroke-linejoin="round"/><line x1="484.6" y1="602" x2="484.6" y2="1288.67" fill="none" stroke="#ccc" stroke-linecap="round" stroke-linejoin="round"/><path d="M495.17,594.71c.35,230.31.35,459.31,0,689.12" fill="none" stroke="#ccc" stroke-linecap="round" stroke-linejoin="round"/><path d="M505.73,588q-.32,348,0,695.84" fill="none" stroke="#ccc" stroke-linecap="round" stroke-linejoin="round"/><path d="M516.29,588.53c.23,232.49.23,463.49,0,695.31" fill="none" stroke="#ccc" stroke-linecap="round" stroke-linejoin="round"/><path d="M526.85,594q-.5,345,0,689.93" fill="none" stroke="#ccc" stroke-linecap="round" stroke-linejoin="round"/><path d="M537.41,598c.11,229,.11,457,0,685.84" fill="none" stroke="#ccc" stroke-linecap="round" stroke-linejoin="round"/><path d="M548,601c-.46,228.06-.46,455.06,0,682.94" fill="none" stroke="#ccc" stroke-linecap="round" stroke-linejoin="round"/><path d="M558.54,602.93q0,340.64,0,681" fill="none" stroke="#ccc" stroke-linecap="round" stroke-linejoin="round"/><path d="M569.1,604.2c.42,226.82.42,452.82,0,679.71" fill="none" stroke="#ccc" stroke-linecap="round" stroke-linejoin="round"/><line x1="759.22" y1="714.42" x2="759.22" y2="1281.43" fill="none" stroke="#ccc" stroke-linecap="round" stroke-linejoin="round"/><path d="M769.79,883.66s1.29,120.75-1.44,252.49c-.67,32.75.86,142-.8,144" fill="none" stroke="#ccc" stroke-linecap="round" stroke-linejoin="round"/><line x1="780.65" y1="1006.7" x2="780.65" y2="1272.43" fill="none" stroke="#ccc" stroke-linecap="round" stroke-linejoin="round"/><line x1="791.22" y1="1100.72" x2="791.22" y2="1273.67" fill="none" stroke="#ccc" stroke-linecap="round" stroke-linejoin="round"/><line x1="801.78" y1="1177.24" x2="801.78" y2="1268.54" fill="none" stroke="#ccc" stroke-linecap="round" stroke-linejoin="round"/><path d="M773.15,771.85s8.85,88.71,13.4,156.92S832,1299.22,832,1299.22" fill="none" stroke="#ccc" stroke-linecap="round" stroke-linejoin="round"/><line x1="818.19" y1="1269.54" x2="823.93" y2="1300.52" fill="none" stroke="#ccc" stroke-linecap="round" stroke-linejoin="round"/><path d="M766.57,577.14s23,9.44,31.56,21.63,28.1,60.17,35.23,123.48" fill="none" stroke="#ccc" stroke-linecap="round" stroke-linejoin="round"/><path d="M857.46,945.48s16.32,90.8,16.59,125.09,23.32,217.7,23.32,217.7" fill="none" stroke="#ccc" stroke-linecap="round" stroke-linejoin="round"/><path d="M502.31,579s-74.62,47.33-87.54,66.39c-36,53.07-29.41,252-26.13,312l-3.58,356.46" fill="none" stroke="#ccc" stroke-linecap="round" stroke-linejoin="round"/><path d="M495.17,573.2s-77.07,48.49-90,67.55c-36,53.07-28.32,257.56-25,317.56l-3.26,359.45" fill="none" stroke="#ccc" stroke-linecap="round" stroke-linejoin="round"/><path d="M489.52,566.13s-77.41,48.82-91.58,67c-40.08,51.32-31.88,261.44-28.59,321.44l-1.22,363" fill="none" stroke="#ccc" stroke-linecap="round" stroke-linejoin="round"/><path d="M484.6,559.11s-78,49.56-94.38,65.79C348.8,666,355.57,887,358.86,947l-1.62,369.89" fill="none" stroke="#ccc" stroke-linecap="round" stroke-linejoin="round"/><path d="M480.21,550.22s-82.31,54.2-98.65,70.42c-41.41,41.11-36.35,259-33.07,319l-1.59,377.33" fill="none" stroke="#ccc" stroke-linecap="round" stroke-linejoin="round"/><path d="M445.18,562.63S385.27,598,368.93,614.19c-41.41,41.11-34.15,264.55-30.87,324.55l-1.59,377.33" fill="none" stroke="#ccc" stroke-linecap="round" stroke-linejoin="round"/><path d="M400.24,729.46S393.41,871.11,398.19,948c4.24,68.22-5.3,365-5.3,365" fill="none" stroke="#ccc" stroke-linecap="round" stroke-linejoin="round"/><line x1="403.42" y1="1287.67" x2="401.08" y2="1313.44" fill="none" stroke="#ccc" stroke-linecap="round" stroke-linejoin="round"/><path d="M326.75,1312.65s3.14-180.16-.29-214.28,2.09-147.52,2.09-147.52c-1-17.54-6.35-155.81-1.13-203.16,6-54.41,4.43-110.2,25.2-125.83" fill="none" stroke="#ccc" stroke-linecap="round" stroke-linejoin="round"/><path d="M406.62,877.34s1.12,180.74-2.18,223.38" fill="none" stroke="#ccc" stroke-linecap="round" stroke-linejoin="round"/><path d="M661.38,538.45l7.79,2.79" fill="none" stroke="#ccc" stroke-linecap="round" stroke-linejoin="round"/><path d="M573.08,589.91v11.14" fill="none" stroke="#ccc" stroke-linecap="round" stroke-linejoin="round"/><path d="M590.25,589.46c.21,4,.42,7.58.63,11.62" fill="none" stroke="#ccc" stroke-linecap="round" stroke-linejoin="round"/><path d="M605.75,586.43l1.72,10.2" fill="none" stroke="#ccc" stroke-linecap="round" stroke-linejoin="round"/><path d="M620.59,582.19l3.61,9.45" fill="none" stroke="#ccc" stroke-linecap="round" stroke-linejoin="round"/><path d="M635,575.1l4.93,7.26" fill="none" stroke="#ccc" stroke-linecap="round" stroke-linejoin="round"/><path d="M647.45,564.73l6.45,4.9" fill="none" stroke="#ccc" stroke-linecap="round" stroke-linejoin="round"/><path d="M657,552.26l6.81,3" fill="none" stroke="#ccc" stroke-linecap="round" stroke-linejoin="round"/><path d="M488.83,540.31l-7.44,4.4" fill="none" stroke="#ccc" stroke-linecap="round" stroke-linejoin="round"/><path d="M556,587.67,555.45,598" fill="none" stroke="#ccc" stroke-linecap="round" stroke-linejoin="round"/><path d="M541.15,585.57l-1.49,8.82" fill="none" stroke="#ccc" stroke-linecap="round" stroke-linejoin="round"/><path d="M527.33,579.76l-3,7.72" fill="none" stroke="#ccc" stroke-linecap="round" stroke-linejoin="round"/><path d="M514.35,573.45l-4.12,6" fill="none" stroke="#ccc" stroke-linecap="round" stroke-linejoin="round"/><path d="M504.23,563.52l-6.83,5.83" fill="none" stroke="#ccc" stroke-linecap="round" stroke-linejoin="round"/><path d="M494.92,552.25l-7.51,4.92" fill="none" stroke="#ccc" stroke-linecap="round" stroke-linejoin="round"/><path d="M411.79,751.92c0,2.07.06,4.14.07,6.21,0,.88,0,1.75,0,2.63,0,1.7,0,3.4,0,5.1a4,4,0,0,0,1.64.3,4.89,4.89,0,0,0,3.9-2.48l4.23-.11a4.83,4.83,0,0,0,4,2.27,4.89,4.89,0,0,0,3.9-2.48l4.15-.11a4.48,4.48,0,0,0,7.91-.2l4.23-.11a4.83,4.83,0,0,0,4,2.27,4.89,4.89,0,0,0,3.9-2.48l4.38-.11a4.48,4.48,0,0,0,7.91-.21l4.23-.11a4.48,4.48,0,0,0,7.91-.2l4.23-.11a4.48,4.48,0,0,0,7.91-.21l4.23-.11a4.47,4.47,0,0,0,7.91-.21l4.07-.1a4.83,4.83,0,0,0,4,2.27,4.89,4.89,0,0,0,3.9-2.48l4.23-.11a4.86,4.86,0,0,0,4,2.28,4.92,4.92,0,0,0,3.9-2.48l4.38-.12a4.48,4.48,0,0,0,7.91-.2l4.23-.11a4.48,4.48,0,0,0,7.91-.21l4.23-.11a4.47,4.47,0,0,0,7.91-.21l4.22-.11a4.49,4.49,0,0,0,7.92-.2l4.06-.11a4.49,4.49,0,0,0,7.92-.2l4.22-.11a4.49,4.49,0,0,0,7.92-.21l4.38-.11a4.48,4.48,0,0,0,7.91-.21l4.23-.11a4.47,4.47,0,0,0,7.91-.21l4.22-.11A4.49,4.49,0,0,0,636,758l4.22-.11a4.47,4.47,0,0,0,7.91-.21l4.07-.1a4.48,4.48,0,0,0,7.91-.21l4.23-.11a4.47,4.47,0,0,0,7.91-.21l4.39-.11a4.47,4.47,0,0,0,7.91-.21l4.22-.11a4.49,4.49,0,0,0,7.92-.2l4.22-.11a4.47,4.47,0,0,0,7.91-.21L713,756a4.48,4.48,0,0,0,7.91-.2l4.07-.11a4.47,4.47,0,0,0,7.91-.21l4.23-.11a4.48,4.48,0,0,0,7.91-.2l4.38-.12a4.49,4.49,0,0,0,7.92-.2l4.22-.11a5,5,0,0,0,3.62,2.26c-.1-.78-.22-1.57-.33-2.35h0c-1.51-10.75-.92-21.62-3.77-32.36l-4.58.12a4.46,4.46,0,0,0-7.78.2l-4.51.12a4.47,4.47,0,0,0-7.79.2l-4.35.12a4.46,4.46,0,0,0-7.78.2l-4.2.11a4.46,4.46,0,0,0-7.78.2l-4.36.11a4.46,4.46,0,0,0-7.78.21l-4.36.11a4.82,4.82,0,0,0-3.94-2.18,4.88,4.88,0,0,0-3.84,2.38l-4.35.12a4.47,4.47,0,0,0-7.79.2l-4.51.12a4.46,4.46,0,0,0-7.78.2l-4.36.11a4.46,4.46,0,0,0-7.78.21l-4.2.1a4.46,4.46,0,0,0-7.78.21l-4.36.11a4.82,4.82,0,0,0-3.94-2.18,4.88,4.88,0,0,0-3.84,2.38l-4.35.12a4.47,4.47,0,0,0-7.79.2l-4.35.11a4.47,4.47,0,0,0-7.79.2l-4.51.12a4.46,4.46,0,0,0-7.78.2l-4.36.12a4.82,4.82,0,0,0-3.94-2.18,4.88,4.88,0,0,0-3.84,2.38l-4.2.11a4.82,4.82,0,0,0-3.94-2.18,4.88,4.88,0,0,0-3.84,2.38l-4.35.12a4.47,4.47,0,0,0-7.79.2l-4.35.11a4.47,4.47,0,0,0-7.79.2l-4.35.12a4.46,4.46,0,0,0-7.78.2l-4.52.12a4.82,4.82,0,0,0-3.94-2.18A4.88,4.88,0,0,0,518,728.6l-4.35.11a4.46,4.46,0,0,0-7.79.21l-4.19.11a4.47,4.47,0,0,0-7.79.2l-4.35.11a4.47,4.47,0,0,0-7.79.2l-4.35.12a4.46,4.46,0,0,0-7.78.2l-4.36.11a4.46,4.46,0,0,0-7.78.21l-4.51.11a4.46,4.46,0,0,0-7.79.21l-4.35.11a4.46,4.46,0,0,0-7.78.2l-4.28.11a4.46,4.46,0,0,0-7.78.21l-4.36.11a4.82,4.82,0,0,0-3.94-2.18,3.84,3.84,0,0,0-.9.14c-.06.72-.09,1.44-.13,2.17h0c0,.44,0,.89-.05,1.33,0,.14,0,.28,0,.43,0,1.1-.06,2.2-.07,3.3,0,.27,0,.55,0,.83,0,.85,0,1.71,0,2.57,0,.67,0,1.35.05,2,0,.5,0,1,0,1.48,0,.28,0,.57,0,.85h0c.06,1.84.12,3.68.16,5.52Z" fill="#262521"/><path d="M415.31,842.63a5,5,0,0,0,4.11-2.83l3.79-.1a4.57,4.57,0,0,0,8.35-.22l3.71-.09a4.57,4.57,0,0,0,8.35-.22l3.79-.1a4.57,4.57,0,0,0,8.35-.22l3.95-.1a4.56,4.56,0,0,0,8.34-.22l3.79-.09a4.57,4.57,0,0,0,8.35-.22l3.79-.1a4.57,4.57,0,0,0,8.35-.22l3.79-.1a5,5,0,0,0,4.24,2.61,5.05,5.05,0,0,0,4.11-2.82l3.63-.1a4.57,4.57,0,0,0,8.35-.22l3.79-.09a4.57,4.57,0,0,0,8.34-.22l3.95-.1a4.57,4.57,0,0,0,8.35-.22l3.79-.1a4.57,4.57,0,0,0,8.35-.22l3.79-.1a5,5,0,0,0,4.24,2.61,5.05,5.05,0,0,0,4.11-2.82l3.79-.1a4.56,4.56,0,0,0,8.34-.22l3.64-.09a4.57,4.57,0,0,0,8.34-.22l3.8-.1a4.56,4.56,0,0,0,8.34-.22l4-.1a4.57,4.57,0,0,0,8.35-.22l3.79-.1a5,5,0,0,0,4.24,2.61,5.05,5.05,0,0,0,4.11-2.82l3.79-.1a4.56,4.56,0,0,0,8.34-.22l3.79-.1a4.57,4.57,0,0,0,8.35-.21l3.63-.1a4.57,4.57,0,0,0,8.35-.22l3.79-.1a4.57,4.57,0,0,0,8.35-.21l4-.11a5,5,0,0,0,4.24,2.61,5.05,5.05,0,0,0,4.11-2.82l3.79-.1a4.56,4.56,0,0,0,8.34-.22l3.79-.1a4.57,4.57,0,0,0,8.35-.21l3.79-.1a4.57,4.57,0,0,0,8.35-.22l3.63-.1a5,5,0,0,0,4.24,2.61,5.05,5.05,0,0,0,4.11-2.82l3.79-.1a4.57,4.57,0,0,0,8.35-.22l3.95-.1a4.56,4.56,0,0,0,8.34-.22l3.79-.1a4.56,4.56,0,0,0,8.34-.21h.21c0-.16-.05-.32-.08-.48-.25-1.57-.49-3.14-.7-4.72l-.18-1.3c-.18-1.39-.35-2.79-.5-4.19-.39-3.42-.7-6.85-1-10.29-.12-1.67-.25-3.34-.36-5,0-.56-.07-1.13-.11-1.69q-.19-3.08-.38-6.15a4,4,0,0,0-1.9-.43,4.73,4.73,0,0,0-3.58,2l-4.88.13a4.36,4.36,0,0,0-7.26.19l-5,.13a4.37,4.37,0,0,0-7.27.19l-4.87.12a4.7,4.7,0,0,0-3.68-1.85,4.75,4.75,0,0,0-3.59,2l-4.71.12a4.7,4.7,0,0,0-3.68-1.85,4.75,4.75,0,0,0-3.59,2l-4.87.13a4.67,4.67,0,0,0-3.68-1.85,4.73,4.73,0,0,0-3.58,2l-4.88.13a4.36,4.36,0,0,0-7.26.19l-4.87.12a4.37,4.37,0,0,0-7.27.19l-5,.13a4.36,4.36,0,0,0-7.26.19l-4.88.13a4.36,4.36,0,0,0-7.26.19l-4.72.12a4.67,4.67,0,0,0-3.68-1.85,4.73,4.73,0,0,0-3.58,2l-4.88.13a4.36,4.36,0,0,0-7.26.19l-4.87.12a4.37,4.37,0,0,0-7.27.19l-4.87.13a4.37,4.37,0,0,0-7.27.19l-5,.13a4.36,4.36,0,0,0-7.26.19L588,803a4.37,4.37,0,0,0-7.27.19l-4.71.13a4.36,4.36,0,0,0-7.27.19l-4.87.12a4.37,4.37,0,0,0-7.27.19l-4.87.13a4.37,4.37,0,0,0-7.27.19l-4.87.12a4.36,4.36,0,0,0-7.26.19l-5,.13a4.37,4.37,0,0,0-7.27.19l-4.87.13a4.37,4.37,0,0,0-7.27.19l-4.71.12a4.69,4.69,0,0,0-3.68-1.85,4.74,4.74,0,0,0-3.59,2l-4.87.13a4.37,4.37,0,0,0-7.27.19l-4.87.12a4.36,4.36,0,0,0-7.26.19l-4.88.13a4.67,4.67,0,0,0-3.68-1.85,4.73,4.73,0,0,0-3.58,2l-5,.13a4.69,4.69,0,0,0-3.68-1.85,4.74,4.74,0,0,0-3.59,2l-4.87.13a4.7,4.7,0,0,0-3.68-1.86,4.75,4.75,0,0,0-3.59,2l-4.79.13a4.36,4.36,0,0,0-7.26.19l-4.88.13a4.68,4.68,0,0,0-3.68-1.86,4.31,4.31,0,0,0-2.57,1v1h0c0,10.82-.06,21.64-.09,32.46h0v1A4.63,4.63,0,0,0,415.31,842.63Z" fill="#262521"/><path d="M768.29,871.79a4.88,4.88,0,0,0-3.87,2.43l-4.29.12a4.47,4.47,0,0,0-7.85.2l-4.45.12a4.47,4.47,0,0,0-7.85.2l-4.29.11a4.46,4.46,0,0,0-7.84.21l-4.14.1a4.82,4.82,0,0,0-4-2.22,4.88,4.88,0,0,0-3.87,2.43l-4.29.11a4.47,4.47,0,0,0-7.85.2l-4.29.12a4.47,4.47,0,0,0-7.85.2l-4.29.11a4.47,4.47,0,0,0-7.85.21l-4.45.11a4.46,4.46,0,0,0-7.84.21l-4.29.11a4.47,4.47,0,0,0-7.85.2l-4.13.11a4.47,4.47,0,0,0-7.85.2l-4.29.12a4.47,4.47,0,0,0-7.85.2l-4.29.11a4.47,4.47,0,0,0-7.85.21l-4.29.11a4.47,4.47,0,0,0-7.85.2l-4.44.12a4.47,4.47,0,0,0-7.85.2l-4.29.11a4.48,4.48,0,0,0-7.85.21l-4.13.11a4.47,4.47,0,0,0-7.85.2l-4.29.11a4.47,4.47,0,0,0-7.85.21l-4.29.11a4.46,4.46,0,0,0-7.84.2l-4.3.11a4.83,4.83,0,0,0-4-2.23,4.92,4.92,0,0,0-3.87,2.44l-4.45.11a4.82,4.82,0,0,0-4-2.22,4.88,4.88,0,0,0-3.87,2.43l-4.29.11a4.47,4.47,0,0,0-7.85.2l-4.13.11a4.47,4.47,0,0,0-7.85.21l-4.29.11a4.46,4.46,0,0,0-7.84.2l-4.29.11a4.47,4.47,0,0,0-7.85.21l-4.29.11a4.47,4.47,0,0,0-7.85.2l-4.45.12a4.47,4.47,0,0,0-7.85.2l-4.29.12a4.46,4.46,0,0,0-7.84.2l-4.22.11a4.83,4.83,0,0,0-4-2.23,4.88,4.88,0,0,0-3.87,2.43l-4.29.12a4.86,4.86,0,0,0-4-2.23,4.23,4.23,0,0,0-2.5.93c0,1.35,0,2.7,0,4.05,0,2.3-.05,4.6-.08,6.91l0,2.29h0c0,1.94-.05,3.87-.06,5.81,0,2.47,0,4.95.05,7.43h0c0,1.07,0,2.14,0,3.21,0,.25,0,.5,0,.76,0,1,0,2-.1,3l0,.84a4.68,4.68,0,0,0,3.68,1.86,4.85,4.85,0,0,0,3.86-2.44l4.3-.11a4.83,4.83,0,0,0,4,2.23,4.88,4.88,0,0,0,3.87-2.43l4.21-.11a4.47,4.47,0,0,0,7.85-.21l4.29-.11a4.47,4.47,0,0,0,7.85-.2l4.45-.12a4.47,4.47,0,0,0,7.85-.2l4.29-.11a4.83,4.83,0,0,0,4,2.23,4.89,4.89,0,0,0,3.87-2.44l4.29-.11a4.47,4.47,0,0,0,7.85-.2l4.29-.12a4.47,4.47,0,0,0,7.85-.2l4.13-.11a4.47,4.47,0,0,0,7.85-.2l4.29-.11a4.47,4.47,0,0,0,7.85-.21l4.45-.11a4.83,4.83,0,0,0,4,2.23,4.89,4.89,0,0,0,3.87-2.44l4.29-.11a4.47,4.47,0,0,0,7.85-.2l4.29-.11a4.48,4.48,0,0,0,7.85-.21l4.29-.11a4.47,4.47,0,0,0,7.85-.21l4.13-.1a4.47,4.47,0,0,0,7.85-.21l4.29-.11a4.47,4.47,0,0,0,7.85-.2l4.44-.12a4.47,4.47,0,0,0,7.85-.2l4.29-.11a4.48,4.48,0,0,0,7.85-.21l4.29-.11a4.47,4.47,0,0,0,7.85-.21l4.29-.11a4.47,4.47,0,0,0,7.85-.2l4.13-.11a4.46,4.46,0,0,0,7.84-.2l4.3-.11a4.82,4.82,0,0,0,4,2.22,4.88,4.88,0,0,0,3.87-2.43l4.45-.11a4.48,4.48,0,0,0,7.85-.21l4.29-.11a4.47,4.47,0,0,0,7.85-.2l4.29-.12a4.46,4.46,0,0,0,7.84-.2l4.29-.11a4.47,4.47,0,0,0,7.85-.21l4.13-.1a4.48,4.48,0,0,0,7.85-.21l4.29-.11a4.47,4.47,0,0,0,7.85-.2L753,907a4.47,4.47,0,0,0,7.85-.2l4.29-.12a4.46,4.46,0,0,0,7.84-.2l4.3-.11a5.72,5.72,0,0,0,2,1.77c-.53-4.46-1.06-8.92-1.54-13.38h0q-.6-5.54-1-11.08c-.07-1-.13-1.95-.19-2.93l-.12-2-.12-2.93c0-.62-.05-1.25-.07-1.87l-4,.1A4.86,4.86,0,0,0,768.29,871.79Z" fill="#262521"/><path d="M778.34,950l-4.29.11a4.47,4.47,0,0,0-7.85.2l-4.29.12a4.47,4.47,0,0,0-7.85.2l-4.45.12a4.47,4.47,0,0,0-7.85.2l-4.29.11a4.46,4.46,0,0,0-7.84.21l-4.14.1a4.83,4.83,0,0,0-4-2.23,4.89,4.89,0,0,0-3.87,2.44l-4.29.11a4.47,4.47,0,0,0-7.85.2l-4.29.12a4.47,4.47,0,0,0-7.85.2l-4.29.11a4.47,4.47,0,0,0-7.85.21l-4.45.11a4.46,4.46,0,0,0-7.84.21l-4.29.11a4.47,4.47,0,0,0-7.85.2l-4.13.11a4.47,4.47,0,0,0-7.85.2l-4.29.12a4.47,4.47,0,0,0-7.85.2l-4.29.11a4.47,4.47,0,0,0-7.85.21l-4.29.11a4.47,4.47,0,0,0-7.85.2l-4.44.12a4.47,4.47,0,0,0-7.85.2l-4.29.11a4.47,4.47,0,0,0-7.85.21l-4.13.11a4.47,4.47,0,0,0-7.85.2l-4.29.11a4.47,4.47,0,0,0-7.85.21l-4.29.11a4.47,4.47,0,0,0-7.85.2l-4.29.11a4.83,4.83,0,0,0-4-2.23,4.89,4.89,0,0,0-3.87,2.44l-4.45.11a4.47,4.47,0,0,0-7.85.21l-4.29.11a4.47,4.47,0,0,0-7.85.2l-4.13.11a4.47,4.47,0,0,0-7.85.21l-4.29.11a4.47,4.47,0,0,0-7.85.2l-4.28.11a4.47,4.47,0,0,0-7.85.21l-4.29.11a4.47,4.47,0,0,0-7.85.2l-4.45.12a4.47,4.47,0,0,0-7.85.2l-4.29.11a4.47,4.47,0,0,0-7.84.21l-4.22.11a4.83,4.83,0,0,0-4-2.23,4.88,4.88,0,0,0-3.87,2.43l-4.29.11a4.85,4.85,0,0,0-4-2.22,4.6,4.6,0,0,0-3.46,1.87c0,.22,0,.44,0,.66,0,3.36,0,6.73,0,10.09v.67h0c0,2.51,0,5,0,7.54,0,3.36.24,6.72.35,10.08,0,.21,0,.42,0,.63,0,1,0,2.06,0,3.08,0,.12,0,.23,0,.35a4.45,4.45,0,0,0,7.76-.32l4.3-.11a4.83,4.83,0,0,0,4,2.23,4.88,4.88,0,0,0,3.87-2.43l4.21-.11a4.47,4.47,0,0,0,7.85-.21l4.29-.11a4.47,4.47,0,0,0,7.85-.2l4.45-.12a4.47,4.47,0,0,0,7.85-.2l4.29-.11a4.79,4.79,0,0,0,4,2.22,4.88,4.88,0,0,0,3.87-2.43l4.29-.11a4.47,4.47,0,0,0,7.85-.2l4.29-.12a4.47,4.47,0,0,0,7.85-.2l4.13-.11a4.47,4.47,0,0,0,7.85-.2l4.29-.11a4.47,4.47,0,0,0,7.85-.21l4.45-.11a4.83,4.83,0,0,0,4,2.23,4.92,4.92,0,0,0,3.87-2.44l4.29-.11a4.47,4.47,0,0,0,7.85-.2l4.29-.12a4.47,4.47,0,0,0,7.85-.2l4.29-.11a4.47,4.47,0,0,0,7.85-.21l4.13-.1a4.47,4.47,0,0,0,7.85-.21l4.29-.11a4.47,4.47,0,0,0,7.85-.2l4.44-.12a4.47,4.47,0,0,0,7.85-.2l4.29-.12a4.47,4.47,0,0,0,7.85-.2l4.29-.11a4.47,4.47,0,0,0,7.85-.21l4.29-.11a4.46,4.46,0,0,0,7.84-.2l4.14-.11a4.46,4.46,0,0,0,7.84-.2l4.3-.12a4.83,4.83,0,0,0,4,2.23,4.88,4.88,0,0,0,3.87-2.43L682,985a4.47,4.47,0,0,0,7.85-.2l4.29-.11a4.47,4.47,0,0,0,7.85-.21l4.29-.11a4.46,4.46,0,0,0,7.84-.2l4.29-.11a4.47,4.47,0,0,0,7.85-.21l4.13-.11a4.47,4.47,0,0,0,7.85-.2l4.29-.11a4.47,4.47,0,0,0,7.85-.21l4.45-.11a4.47,4.47,0,0,0,7.85-.21l4.29-.11a4.46,4.46,0,0,0,7.84-.2l4.29-.11a4.86,4.86,0,0,0,4,2.23,4,4,0,0,0,1.46-.33c-.11-.84-.2-1.68-.29-2.52s-.21-1.88-.3-2.81c-.05-.44-.09-.87-.13-1.3-.08-.77-.15-1.54-.21-2.32-.06-.61-.11-1.22-.16-1.84l-.12-1.56-.18-2.53c-.15-2.26-.27-4.53-.37-6.79s-.18-4.8-.23-7.2c0-.13,0-.27,0-.41q-.09-3.74-.1-7.49h-.22A4.89,4.89,0,0,0,778.34,950Z" fill="#262521"/><path d="M792.5,1058.15c-1-5.35-2-10.74-2.77-16.12-.33-2.19-.63-4.38-.93-6.57h0c-.16-1.19-.32-2.38-.49-3.56-.08-.54-.17-1.08-.25-1.62l-.27-1.68,0-.19c-.07-.48-.14-1-.2-1.43,0-.12,0-.23,0-.35-.07-.5-.12-1-.17-1.5a4.48,4.48,0,0,0-3.37-1.51,4.86,4.86,0,0,0-3.84,2.39l-4.34.11a4.46,4.46,0,0,0-7.8.21l-4.34.11a4.47,4.47,0,0,0-7.8.2l-4.5.12a4.46,4.46,0,0,0-7.79.2l-4.34.12a4.46,4.46,0,0,0-7.8.2l-4.18.11a4.47,4.47,0,0,0-7.8.2l-4.34.11a4.46,4.46,0,0,0-7.8.21L703,1028a4.47,4.47,0,0,0-7.8.2l-4.34.12a4.82,4.82,0,0,0-4-2.2,4.88,4.88,0,0,0-3.85,2.4l-4.49.12a4.46,4.46,0,0,0-7.8.2l-4.34.11a4.47,4.47,0,0,0-7.8.2l-4.18.11a4.46,4.46,0,0,0-7.8.21l-4.34.11a4.47,4.47,0,0,0-7.8.2l-4.34.12a4.82,4.82,0,0,0-3.95-2.2,4.88,4.88,0,0,0-3.85,2.4l-4.34.11a4.46,4.46,0,0,0-7.79.2l-4.5.12a4.47,4.47,0,0,0-7.8.2l-4.34.12a4.47,4.47,0,0,0-7.8.2l-4.18.11a4.47,4.47,0,0,0-7.8.2l-4.34.11a4.46,4.46,0,0,0-7.8.21l-4.34.11a4.46,4.46,0,0,0-7.79.2l-4.34.12a4.47,4.47,0,0,0-7.8.2l-4.5.12a4.47,4.47,0,0,0-7.8.2l-4.34.11a4.81,4.81,0,0,0-4-2.19,4.88,4.88,0,0,0-3.85,2.4l-4.18.1a4.46,4.46,0,0,0-7.8.21l-4.34.11a4.46,4.46,0,0,0-7.79.2l-4.34.12a4.47,4.47,0,0,0-7.8.2l-4.34.11a4.46,4.46,0,0,0-7.8.21l-4.5.11a4.81,4.81,0,0,0-3.95-2.19,4.88,4.88,0,0,0-3.85,2.4l-4.34.11a4.81,4.81,0,0,0-4-2.19,4.86,4.86,0,0,0-3.84,2.39l-4.26.11a4.46,4.46,0,0,0-7.8.21l-4.34.11a4.47,4.47,0,0,0-7.8.2l-2.14.06c-.46,5.91-.57,11.85-.92,17.77-.1,1.58-.21,3.16-.32,4.74h0v0q-.21,2.91-.38,5.82c-.05.72-.08,1.44-.12,2.16,0,.21,0,.42-.05.63,0,.71-.09,1.41-.17,2.1a7.46,7.46,0,0,0,.56-.76l4.25-.11a4.48,4.48,0,0,0,7.9-.2l4.24-.11a4.47,4.47,0,0,0,7.89-.21l4.17-.11a4.47,4.47,0,0,0,7.89-.2L453,1067a4.48,4.48,0,0,0,7.9-.21l4.4-.11a4.86,4.86,0,0,0,4,2.26,4.92,4.92,0,0,0,3.9-2.47l4.24-.11a4.47,4.47,0,0,0,7.89-.21l4.24-.11a4.48,4.48,0,0,0,7.9-.2l4.24-.11a4.48,4.48,0,0,0,7.9-.21l4.08-.1a4.48,4.48,0,0,0,7.9-.21l4.24-.11a4.47,4.47,0,0,0,7.9-.21l4.4-.11a4.47,4.47,0,0,0,7.89-.21l4.24-.11a4.48,4.48,0,0,0,7.9-.2l4.24-.11a4.48,4.48,0,0,0,7.9-.21l4.24-.11a4.48,4.48,0,0,0,7.9-.2l4.08-.11a4.47,4.47,0,0,0,7.9-.21l4.24-.11a4.85,4.85,0,0,0,4,2.27,4.92,4.92,0,0,0,3.9-2.47l4.39-.12a4.48,4.48,0,0,0,7.9-.2l4.24-.11a4.48,4.48,0,0,0,7.9-.21l4.24-.11a4.48,4.48,0,0,0,7.9-.2l4.24-.11a4.86,4.86,0,0,0,4,2.26,4.92,4.92,0,0,0,3.9-2.47l4.08-.11a4.85,4.85,0,0,0,4,2.27,4.92,4.92,0,0,0,3.9-2.47l4.24-.11a4.47,4.47,0,0,0,7.89-.21l4.4-.11a4.47,4.47,0,0,0,7.9-.21l4.24-.11a4.48,4.48,0,0,0,7.9-.2l4.24-.11a4.86,4.86,0,0,0,4,2.26,4.92,4.92,0,0,0,3.9-2.47l4.24-.11a4.47,4.47,0,0,0,7.89-.2l4.09-.11a4.47,4.47,0,0,0,7.89-.21l4.24-.11a4.48,4.48,0,0,0,7.9-.2l4.4-.12a4.48,4.48,0,0,0,7.9-.2l4.24-.11a4.86,4.86,0,0,0,4,2.26,4.92,4.92,0,0,0,3.9-2.47l4.24-.11a4.47,4.47,0,0,0,7.89-.2Z" fill="#262521"/><path d="M406.92,1130.56c-.24,4.66-.49,9.34-1,14l394.27-10.26c-.55-5.19-1.22-10.36-1.89-15.52-.73-5.59-1.92-11.19-2.47-16.83l-388,10.1C407.21,1118.16,407.24,1124.42,406.92,1130.56Z" fill="#262521"/><path d="M409.42,1110.11a3.89,3.89,0,0,0-1.39.3c-.58,4.68-.73,9.45-.88,14.19a4.32,4.32,0,0,0,2.63.86c3-.08,5.39-3.58,5.29-7.82S412.44,1110,409.42,1110.11Z" fill="#262521"/><ellipse cx="421.74" cy="1117.47" rx="5.47" ry="7.68" transform="translate(-22.97 8.94) rotate(-1.18)" fill="#262521"/><ellipse cx="433.88" cy="1117.15" rx="5.47" ry="7.68" transform="translate(-22.96 9.19) rotate(-1.18)" fill="#262521"/><path d="M409.93,1131.86a4.52,4.52,0,0,0-3.16,1.53c-.2,3.69-.43,7.37-.83,11a5.1,5.1,0,0,0,4.35,2.78c3-.08,5.39-3.58,5.29-7.82S413,1131.78,409.93,1131.86Z" fill="#262521"/><ellipse cx="422.25" cy="1139.22" rx="5.47" ry="7.68" transform="translate(-23.41 8.95) rotate(-1.18)" fill="#262521"/><ellipse cx="434.38" cy="1138.91" rx="5.47" ry="7.68" transform="translate(-23.41 9.2) rotate(-1.18)" fill="#262521"/><ellipse cx="445.93" cy="1116.84" rx="5.47" ry="7.68" transform="translate(-22.95 9.44) rotate(-1.18)" fill="#262521"/><ellipse cx="458.07" cy="1116.52" rx="5.47" ry="7.68" transform="translate(-22.94 9.69) rotate(-1.18)" fill="#262521"/><ellipse cx="470.37" cy="1116.2" rx="5.47" ry="7.68" transform="translate(-22.93 9.94) rotate(-1.18)" fill="#262521"/><ellipse cx="482.51" cy="1115.89" rx="5.47" ry="7.68" transform="matrix(1, -0.02, 0.02, 1, -22.92, 10.19)" fill="#262521"/><ellipse cx="494.64" cy="1115.57" rx="5.47" ry="7.68" transform="translate(-22.91 10.44) rotate(-1.18)" fill="#262521"/><ellipse cx="506.78" cy="1115.25" rx="5.47" ry="7.68" transform="translate(-22.9 10.69) rotate(-1.18)" fill="#262521"/><ellipse cx="446.44" cy="1138.59" rx="5.47" ry="7.68" transform="matrix(1, -0.02, 0.02, 1, -23.4, 9.45)" fill="#262521"/><ellipse cx="458.58" cy="1138.28" rx="5.47" ry="7.68" transform="translate(-23.39 9.7) rotate(-1.18)" fill="#262521"/><ellipse cx="470.88" cy="1137.96" rx="5.47" ry="7.68" transform="translate(-23.38 9.96) rotate(-1.18)" fill="#262521"/><ellipse cx="483.02" cy="1137.64" rx="5.47" ry="7.68" transform="matrix(1, -0.02, 0.02, 1, -23.37, 10.21)" fill="#262521"/><ellipse cx="495.15" cy="1137.32" rx="5.47" ry="7.68" transform="translate(-23.36 10.46) rotate(-1.18)" fill="#262521"/><ellipse cx="507.29" cy="1137.01" rx="5.47" ry="7.68" transform="translate(-23.35 10.71) rotate(-1.18)" fill="#262521"/><ellipse cx="518.76" cy="1114.94" rx="5.47" ry="7.68" transform="matrix(1, -0.02, 0.02, 1, -22.89, 10.94)" fill="#262521"/><ellipse cx="530.9" cy="1114.63" rx="5.47" ry="7.68" transform="translate(-22.88 11.19) rotate(-1.18)" fill="#262521"/><ellipse cx="543.2" cy="1114.31" rx="5.47" ry="7.68" transform="translate(-22.87 11.44) rotate(-1.18)" fill="#262521"/><ellipse cx="555.33" cy="1113.99" rx="5.47" ry="7.68" transform="translate(-22.87 11.69) rotate(-1.18)" fill="#262521"/><ellipse cx="567.47" cy="1113.67" rx="5.47" ry="7.68" transform="translate(-22.86 11.94) rotate(-1.18)" fill="#262521"/><ellipse cx="579.61" cy="1113.36" rx="5.47" ry="7.68" transform="translate(-22.85 12.2) rotate(-1.18)" fill="#262521"/><ellipse cx="519.27" cy="1136.7" rx="5.47" ry="7.68" transform="translate(-23.34 10.96) rotate(-1.18)" fill="#262521"/><ellipse cx="531.41" cy="1136.38" rx="5.47" ry="7.68" transform="translate(-23.33 11.21) rotate(-1.18)" fill="#262521"/><ellipse cx="543.7" cy="1136.06" rx="5.47" ry="7.68" transform="translate(-23.32 11.46) rotate(-1.18)" fill="#262521"/><ellipse cx="555.84" cy="1135.74" rx="5.47" ry="7.68" transform="translate(-23.31 11.71) rotate(-1.18)" fill="#262521"/><ellipse cx="567.98" cy="1135.43" rx="5.47" ry="7.68" transform="translate(-23.3 11.96) rotate(-1.18)" fill="#262521"/><ellipse cx="580.12" cy="1135.11" rx="5.47" ry="7.68" transform="translate(-23.3 12.21) rotate(-1.18)" fill="#262521"/><ellipse cx="591.59" cy="1113.05" rx="5.47" ry="7.68" transform="translate(-22.84 12.44) rotate(-1.18)" fill="#262521"/><ellipse cx="603.73" cy="1112.73" rx="5.47" ry="7.68" transform="translate(-22.83 12.69) rotate(-1.18)" fill="#262521"/><ellipse cx="616.02" cy="1112.41" rx="5.47" ry="7.68" transform="translate(-22.82 12.95) rotate(-1.18)" fill="#262521"/><ellipse cx="628.16" cy="1112.1" rx="5.47" ry="7.68" transform="translate(-22.81 13.2) rotate(-1.18)" fill="#262521"/><ellipse cx="640.3" cy="1111.78" rx="5.47" ry="7.68" transform="translate(-22.8 13.45) rotate(-1.18)" fill="#262521"/><ellipse cx="652.44" cy="1111.46" rx="5.47" ry="7.68" transform="translate(-22.79 13.7) rotate(-1.18)" fill="#262521"/><ellipse cx="592.1" cy="1134.8" rx="5.47" ry="7.68" transform="translate(-23.29 12.46) rotate(-1.18)" fill="#262521"/><ellipse cx="604.24" cy="1134.48" rx="5.47" ry="7.68" transform="translate(-23.28 12.71) rotate(-1.18)" fill="#262521"/><ellipse cx="616.53" cy="1134.16" rx="5.47" ry="7.68" transform="translate(-23.27 12.96) rotate(-1.18)" fill="#262521"/><ellipse cx="628.67" cy="1133.85" rx="5.47" ry="7.68" transform="translate(-23.26 13.21) rotate(-1.18)" fill="#262521"/><ellipse cx="640.81" cy="1133.53" rx="5.47" ry="7.68" transform="translate(-23.25 13.46) rotate(-1.18)" fill="#262521"/><ellipse cx="652.95" cy="1133.22" rx="5.47" ry="7.68" transform="translate(-23.24 13.71) rotate(-1.18)" fill="#262521"/><ellipse cx="664.42" cy="1111.15" rx="5.47" ry="7.68" transform="translate(-22.78 13.94) rotate(-1.18)" fill="#262521"/><ellipse cx="676.56" cy="1110.84" rx="5.47" ry="7.68" transform="translate(-22.77 14.19) rotate(-1.18)" fill="#262521"/><ellipse cx="688.85" cy="1110.52" rx="5.47" ry="7.68" transform="matrix(1, -0.02, 0.02, 1, -22.77, 14.45)" fill="#262521"/><ellipse cx="700.99" cy="1110.2" rx="5.47" ry="7.68" transform="translate(-22.76 14.7) rotate(-1.18)" fill="#262521"/><ellipse cx="713.13" cy="1109.88" rx="5.47" ry="7.68" transform="translate(-22.75 14.95) rotate(-1.18)" fill="#262521"/><ellipse cx="725.27" cy="1109.57" rx="5.47" ry="7.68" transform="translate(-22.74 15.2) rotate(-1.18)" fill="#262521"/><ellipse cx="664.93" cy="1132.9" rx="5.47" ry="7.68" transform="translate(-23.23 13.96) rotate(-1.18)" fill="#262521"/><ellipse cx="677.06" cy="1132.59" rx="5.47" ry="7.68" transform="matrix(1, -0.02, 0.02, 1, -23.22, 14.21)" fill="#262521"/><ellipse cx="689.36" cy="1132.27" rx="5.47" ry="7.68" transform="translate(-23.21 14.46) rotate(-1.18)" fill="#262521"/><ellipse cx="701.5" cy="1131.95" rx="5.47" ry="7.68" transform="translate(-23.2 14.71) rotate(-1.18)" fill="#262521"/><ellipse cx="713.64" cy="1131.64" rx="5.47" ry="7.68" transform="translate(-23.2 14.96) rotate(-1.18)" fill="#262521"/><ellipse cx="725.77" cy="1131.32" rx="5.47" ry="7.68" transform="translate(-23.19 15.21) rotate(-1.18)" fill="#262521"/><ellipse cx="737.25" cy="1109.26" rx="5.47" ry="7.68" transform="translate(-22.73 15.45) rotate(-1.18)" fill="#262521"/><ellipse cx="749.38" cy="1108.94" rx="5.47" ry="7.68" transform="translate(-22.72 15.7) rotate(-1.18)" fill="#262521"/><ellipse cx="761.68" cy="1108.62" rx="5.47" ry="7.68" transform="translate(-22.71 15.95) rotate(-1.18)" fill="#262521"/><ellipse cx="773.82" cy="1108.3" rx="5.47" ry="7.68" transform="matrix(1, -0.02, 0.02, 1, -22.7, 16.2)" fill="#262521"/><ellipse cx="785.95" cy="1107.99" rx="5.47" ry="7.68" transform="translate(-22.69 16.45) rotate(-1.18)" fill="#262521"/><path d="M795.74,1100.69c-1.9,1.24-3.19,4-3.12,7.12.09,4,2.38,7.26,5.19,7.51C797.05,1110.47,796.12,1105.59,795.74,1100.69Z" fill="#262521"/><ellipse cx="737.75" cy="1131.01" rx="5.47" ry="7.68" transform="translate(-23.18 15.46) rotate(-1.18)" fill="#262521"/><ellipse cx="749.89" cy="1130.69" rx="5.47" ry="7.68" transform="translate(-23.17 15.71) rotate(-1.18)" fill="#262521"/><ellipse cx="762.19" cy="1130.37" rx="5.47" ry="7.68" transform="translate(-23.16 15.97) rotate(-1.18)" fill="#262521"/><ellipse cx="774.33" cy="1130.06" rx="5.47" ry="7.68" transform="translate(-23.15 16.22) rotate(-1.18)" fill="#262521"/><ellipse cx="786.46" cy="1129.74" rx="5.47" ry="7.68" transform="translate(-23.14 16.47) rotate(-1.18)" fill="#262521"/><path d="M798.7,1121.76h-.28c-3,.08-5.39,3.58-5.29,7.82s2.63,7.61,5.65,7.53a4.19,4.19,0,0,0,1.67-.41C800,1131.7,799.34,1126.73,798.7,1121.76Z" fill="#262521"/><path d="M402.81,1220.64,810.4,1210c-.45-4.76-.8-9.54-1.52-14.27-.91-6-2.25-12-2.57-18.08L403,1188.18C403,1199,402.86,1209.82,402.81,1220.64Z" fill="#262521"/><path d="M403,1188.14c0,3.73,0,7.45-.05,11.18a9.27,9.27,0,0,0,1.75-5.84A9.38,9.38,0,0,0,403,1188.14Z" fill="#262521"/><ellipse cx="411.37" cy="1193.31" rx="5.47" ry="7.68" transform="translate(-24.53 8.74) rotate(-1.18)" fill="#262521"/><ellipse cx="423.5" cy="1192.99" rx="5.47" ry="7.68" transform="translate(-24.52 8.99) rotate(-1.18)" fill="#262521"/><ellipse cx="435.64" cy="1192.68" rx="5.47" ry="7.68" transform="translate(-24.51 9.24) rotate(-1.18)" fill="#262521"/><path d="M402.88,1209.16q0,6.31-.08,12.63a8.73,8.73,0,0,0,2.41-6.56A9,9,0,0,0,402.88,1209.16Z" fill="#262521"/><ellipse cx="411.87" cy="1215.06" rx="5.47" ry="7.68" transform="translate(-24.98 8.76) rotate(-1.18)" fill="#262521"/><ellipse cx="424.01" cy="1214.74" rx="5.47" ry="7.68" transform="translate(-24.97 9.01) rotate(-1.18)" fill="#262521"/><ellipse cx="436.15" cy="1214.43" rx="5.47" ry="7.68" transform="translate(-24.96 9.26) rotate(-1.18)" fill="#262521"/><ellipse cx="447.7" cy="1192.36" rx="5.47" ry="7.68" transform="translate(-24.51 9.49) rotate(-1.18)" fill="#262521"/><ellipse cx="459.84" cy="1192.05" rx="5.47" ry="7.68" transform="translate(-24.5 9.74) rotate(-1.18)" fill="#262521"/><ellipse cx="472.13" cy="1191.73" rx="5.47" ry="7.68" transform="translate(-24.49 9.99) rotate(-1.18)" fill="#262521"/><ellipse cx="484.27" cy="1191.41" rx="5.47" ry="7.68" transform="translate(-24.48 10.24) rotate(-1.18)" fill="#262521"/><ellipse cx="496.41" cy="1191.09" rx="5.47" ry="7.68" transform="translate(-24.47 10.5) rotate(-1.18)" fill="#262521"/><ellipse cx="508.55" cy="1190.78" rx="5.47" ry="7.68" transform="translate(-24.46 10.75) rotate(-1.18)" fill="#262521"/><ellipse cx="448.21" cy="1214.11" rx="5.47" ry="7.68" transform="translate(-24.95 9.51) rotate(-1.18)" fill="#262521"/><ellipse cx="460.35" cy="1213.8" rx="5.47" ry="7.68" transform="translate(-24.94 9.76) rotate(-1.18)" fill="#262521"/><ellipse cx="472.64" cy="1213.48" rx="5.47" ry="7.68" transform="translate(-24.94 10.01) rotate(-1.18)" fill="#262521"/><ellipse cx="484.78" cy="1213.16" rx="5.47" ry="7.68" transform="translate(-24.93 10.26) rotate(-1.18)" fill="#262521"/><ellipse cx="496.92" cy="1212.85" rx="5.47" ry="7.68" transform="translate(-24.92 10.51) rotate(-1.18)" fill="#262521"/><ellipse cx="509.06" cy="1212.53" rx="5.47" ry="7.68" transform="translate(-24.91 10.76) rotate(-1.18)" fill="#262521"/><ellipse cx="520.53" cy="1190.47" rx="5.47" ry="7.68" transform="translate(-24.45 10.99) rotate(-1.18)" fill="#262521"/><ellipse cx="532.67" cy="1190.15" rx="5.47" ry="7.68" transform="translate(-24.44 11.24) rotate(-1.18)" fill="#262521"/><ellipse cx="544.96" cy="1189.83" rx="5.47" ry="7.68" transform="translate(-24.43 11.5) rotate(-1.18)" fill="#262521"/><ellipse cx="557.1" cy="1189.51" rx="5.47" ry="7.68" transform="translate(-24.42 11.75) rotate(-1.18)" fill="#262521"/><ellipse cx="569.24" cy="1189.2" rx="5.47" ry="7.68" transform="translate(-24.41 12) rotate(-1.18)" fill="#262521"/><ellipse cx="581.38" cy="1188.88" rx="5.47" ry="7.68" transform="matrix(1, -0.02, 0.02, 1, -24.4, 12.25)" fill="#262521"/><ellipse cx="521.04" cy="1212.22" rx="5.47" ry="7.68" transform="translate(-24.9 11.01) rotate(-1.18)" fill="#262521"/><ellipse cx="533.17" cy="1211.9" rx="5.47" ry="7.68" transform="translate(-24.89 11.26) rotate(-1.18)" fill="#262521"/><ellipse cx="545.47" cy="1211.58" rx="5.47" ry="7.68" transform="translate(-24.88 11.51) rotate(-1.18)" fill="#262521"/><ellipse cx="557.61" cy="1211.27" rx="5.47" ry="7.68" transform="translate(-24.87 11.76) rotate(-1.18)" fill="#262521"/><ellipse cx="569.75" cy="1210.95" rx="5.47" ry="7.68" transform="matrix(1, -0.02, 0.02, 1, -24.86, 12.01)" fill="#262521"/><ellipse cx="581.88" cy="1210.63" rx="5.47" ry="7.68" transform="translate(-24.85 12.26) rotate(-1.18)" fill="#262521"/><ellipse cx="593.36" cy="1188.57" rx="5.47" ry="7.68" transform="translate(-24.4 12.49) rotate(-1.18)" fill="#262521"/><ellipse cx="605.49" cy="1188.25" rx="5.47" ry="7.68" transform="translate(-24.39 12.75) rotate(-1.18)" fill="#262521"/><ellipse cx="617.79" cy="1187.93" rx="5.47" ry="7.68" transform="translate(-24.38 13) rotate(-1.18)" fill="#262521"/><ellipse cx="629.93" cy="1187.62" rx="5.47" ry="7.68" transform="translate(-24.37 13.25) rotate(-1.18)" fill="#262521"/><ellipse cx="642.07" cy="1187.3" rx="5.47" ry="7.68" transform="translate(-24.36 13.5) rotate(-1.18)" fill="#262521"/><ellipse cx="654.2" cy="1186.99" rx="5.47" ry="7.68" transform="translate(-24.35 13.75) rotate(-1.18)" fill="#262521"/><ellipse cx="593.86" cy="1210.32" rx="5.47" ry="7.68" transform="translate(-24.84 12.51) rotate(-1.18)" fill="#262521"/><ellipse cx="606" cy="1210.01" rx="5.47" ry="7.68" transform="translate(-24.84 12.76) rotate(-1.18)" fill="#262521"/><ellipse cx="618.3" cy="1209.69" rx="5.47" ry="7.68" transform="translate(-24.83 13.01) rotate(-1.18)" fill="#262521"/><ellipse cx="630.44" cy="1209.37" rx="5.47" ry="7.68" transform="translate(-24.82 13.26) rotate(-1.18)" fill="#262521"/><ellipse cx="642.57" cy="1209.05" rx="5.47" ry="7.68" transform="translate(-24.81 13.51) rotate(-1.18)" fill="#262521"/><ellipse cx="654.71" cy="1208.74" rx="5.47" ry="7.68" transform="translate(-24.8 13.77) rotate(-1.18)" fill="#262521"/><ellipse cx="666.18" cy="1186.67" rx="5.47" ry="7.68" transform="translate(-24.34 14) rotate(-1.18)" fill="#262521"/><ellipse cx="678.32" cy="1186.36" rx="5.47" ry="7.68" transform="translate(-24.33 14.25) rotate(-1.18)" fill="#262521"/><ellipse cx="690.62" cy="1186.04" rx="5.47" ry="7.68" transform="translate(-24.32 14.5) rotate(-1.18)" fill="#262521"/><ellipse cx="702.76" cy="1185.72" rx="5.47" ry="7.68" transform="translate(-24.31 14.75) rotate(-1.18)" fill="#262521"/><ellipse cx="714.89" cy="1185.41" rx="5.47" ry="7.68" transform="translate(-24.3 15) rotate(-1.18)" fill="#262521"/><ellipse cx="727.03" cy="1185.09" rx="5.47" ry="7.68" transform="translate(-24.3 15.25) rotate(-1.18)" fill="#262521"/><ellipse cx="666.69" cy="1208.43" rx="5.47" ry="7.68" transform="translate(-24.79 14.01) rotate(-1.18)" fill="#262521"/><ellipse cx="678.83" cy="1208.11" rx="5.47" ry="7.68" transform="translate(-24.78 14.26) rotate(-1.18)" fill="#262521"/><ellipse cx="691.13" cy="1207.79" rx="5.47" ry="7.68" transform="translate(-24.77 14.52) rotate(-1.18)" fill="#262521"/><ellipse cx="703.26" cy="1207.47" rx="5.47" ry="7.68" transform="translate(-24.76 14.77) rotate(-1.18)" fill="#262521"/><ellipse cx="715.4" cy="1207.16" rx="5.47" ry="7.68" transform="translate(-24.75 15.02) rotate(-1.18)" fill="#262521"/><ellipse cx="727.54" cy="1206.84" rx="5.47" ry="7.68" transform="translate(-24.74 15.27) rotate(-1.18)" fill="#262521"/><ellipse cx="739.01" cy="1184.78" rx="5.47" ry="7.68" transform="translate(-24.29 15.5) rotate(-1.18)" fill="#262521"/><ellipse cx="751.15" cy="1184.46" rx="5.47" ry="7.68" transform="translate(-24.28 15.75) rotate(-1.18)" fill="#262521"/><ellipse cx="763.44" cy="1184.14" rx="5.47" ry="7.68" transform="translate(-24.27 16) rotate(-1.18)" fill="#262521"/><ellipse cx="775.58" cy="1183.83" rx="5.47" ry="7.68" transform="matrix(1, -0.02, 0.02, 1, -24.26, 16.25)" fill="#262521"/><ellipse cx="787.72" cy="1183.51" rx="5.47" ry="7.68" transform="translate(-24.25 16.5) rotate(-1.18)" fill="#262521"/><ellipse cx="799.86" cy="1183.19" rx="5.47" ry="7.68" transform="translate(-24.24 16.75) rotate(-1.18)" fill="#262521"/><ellipse cx="739.52" cy="1206.53" rx="5.47" ry="7.68" transform="matrix(1, -0.02, 0.02, 1, -24.74, 15.51)" fill="#262521"/><ellipse cx="751.66" cy="1206.22" rx="5.47" ry="7.68" transform="translate(-24.73 15.76) rotate(-1.18)" fill="#262521"/><ellipse cx="763.95" cy="1205.9" rx="5.47" ry="7.68" transform="translate(-24.72 16.02) rotate(-1.18)" fill="#262521"/><ellipse cx="776.09" cy="1205.58" rx="5.47" ry="7.68" transform="translate(-24.71 16.27) rotate(-1.18)" fill="#262521"/><ellipse cx="788.23" cy="1205.26" rx="5.47" ry="7.68" transform="translate(-24.7 16.52) rotate(-1.18)" fill="#262521"/><ellipse cx="800.37" cy="1204.95" rx="5.47" ry="7.68" transform="translate(-24.69 16.77) rotate(-1.18)" fill="#262521"/><path d="M809.27,1198.64a9,9,0,0,0-2,6.13c.07,3,1.41,5.65,3.28,6.84C810.12,1207.28,809.81,1203,809.27,1198.64Z" fill="#262521"/><path d="M814.08,1269.54c-.22-5.24-.21-10.48-.18-15.73l-411.28,10.71c.44,9.08,1.33,18,5.09,26.2.67.37,2.33,1.72,2.94,2,12.36,6.11,106.72,1.4,165.73.45,97.88-1.58,219.08-2,229.22-7C814.29,1282.05,814.3,1274.84,814.08,1269.54Z" fill="#262521"/><path d="M404.07,1276.32a8.68,8.68,0,0,0,2.41-6.55c-.08-3.41-1.73-6.25-3.94-7.2A79.84,79.84,0,0,0,404.07,1276.32Z" fill="#262521"/><ellipse cx="413.15" cy="1269.59" rx="5.47" ry="7.68" transform="translate(-26.11 8.79) rotate(-1.18)" fill="#262521"/><ellipse cx="425.29" cy="1269.28" rx="5.47" ry="7.68" transform="matrix(1, -0.02, 0.02, 1, -26.1, 9.04)" fill="#262521"/><ellipse cx="437.43" cy="1268.96" rx="5.47" ry="7.68" transform="matrix(1, -0.02, 0.02, 1, -26.09, 9.29)" fill="#262521"/><ellipse cx="449.48" cy="1268.65" rx="5.47" ry="7.68" transform="translate(-26.08 9.54) rotate(-1.18)" fill="#262521"/><ellipse cx="461.62" cy="1268.33" rx="5.47" ry="7.68" transform="translate(-26.07 9.79) rotate(-1.18)" fill="#262521"/><ellipse cx="473.92" cy="1268.01" rx="5.47" ry="7.68" transform="translate(-26.06 10.05) rotate(-1.18)" fill="#262521"/><ellipse cx="486.06" cy="1267.7" rx="5.47" ry="7.68" transform="translate(-26.05 10.3) rotate(-1.18)" fill="#262521"/><ellipse cx="498.19" cy="1267.38" rx="5.47" ry="7.68" transform="translate(-26.04 10.55) rotate(-1.18)" fill="#262521"/><ellipse cx="510.33" cy="1267.06" rx="5.47" ry="7.68" transform="translate(-26.03 10.8) rotate(-1.18)" fill="#262521"/><ellipse cx="522.31" cy="1266.75" rx="5.47" ry="7.68" transform="translate(-26.02 11.05) rotate(-1.18)" fill="#262521"/><ellipse cx="534.45" cy="1266.44" rx="5.47" ry="7.68" transform="translate(-26.01 11.3) rotate(-1.18)" fill="#262521"/><ellipse cx="546.75" cy="1266.12" rx="5.47" ry="7.68" transform="translate(-26.01 11.55) rotate(-1.18)" fill="#262521"/><ellipse cx="558.88" cy="1265.8" rx="5.47" ry="7.68" transform="translate(-26 11.8) rotate(-1.18)" fill="#262521"/><ellipse cx="571.02" cy="1265.48" rx="5.47" ry="7.68" transform="translate(-25.99 12.05) rotate(-1.18)" fill="#262521"/><ellipse cx="583.16" cy="1265.17" rx="5.47" ry="7.68" transform="translate(-25.98 12.3) rotate(-1.18)" fill="#262521"/><ellipse cx="595.14" cy="1264.86" rx="5.47" ry="7.68" transform="translate(-25.97 12.55) rotate(-1.18)" fill="#262521"/><ellipse cx="607.28" cy="1264.54" rx="5.47" ry="7.68" transform="translate(-25.96 12.8) rotate(-1.18)" fill="#262521"/><ellipse cx="619.57" cy="1264.22" rx="5.47" ry="7.68" transform="translate(-25.95 13.05) rotate(-1.18)" fill="#262521"/><ellipse cx="631.71" cy="1263.9" rx="5.47" ry="7.68" transform="translate(-25.94 13.3) rotate(-1.18)" fill="#262521"/><ellipse cx="643.85" cy="1263.59" rx="5.47" ry="7.68" transform="translate(-25.93 13.55) rotate(-1.18)" fill="#262521"/><ellipse cx="655.99" cy="1263.27" rx="5.47" ry="7.68" transform="translate(-25.92 13.8) rotate(-1.18)" fill="#262521"/><ellipse cx="667.97" cy="1262.96" rx="5.47" ry="7.68" transform="translate(-25.91 14.05) rotate(-1.18)" fill="#262521"/><ellipse cx="680.11" cy="1262.64" rx="5.47" ry="7.68" transform="translate(-25.91 14.3) rotate(-1.18)" fill="#262521"/><ellipse cx="692.4" cy="1262.32" rx="5.47" ry="7.68" transform="matrix(1, -0.02, 0.02, 1, -25.9, 14.55)" fill="#262521"/><ellipse cx="704.54" cy="1262.01" rx="5.47" ry="7.68" transform="matrix(1, -0.02, 0.02, 1, -25.89, 14.8)" fill="#262521"/><ellipse cx="716.68" cy="1261.69" rx="5.47" ry="7.68" transform="translate(-25.88 15.05) rotate(-1.18)" fill="#262521"/><ellipse cx="728.81" cy="1261.38" rx="5.47" ry="7.68" transform="translate(-25.87 15.31) rotate(-1.18)" fill="#262521"/><ellipse cx="740.79" cy="1261.06" rx="5.47" ry="7.68" transform="translate(-25.86 15.55) rotate(-1.18)" fill="#262521"/><ellipse cx="752.93" cy="1260.75" rx="5.47" ry="7.68" transform="translate(-25.85 15.8) rotate(-1.18)" fill="#262521"/><ellipse cx="765.23" cy="1260.43" rx="5.47" ry="7.68" transform="translate(-25.84 16.06) rotate(-1.18)" fill="#262521"/><ellipse cx="777.37" cy="1260.11" rx="5.47" ry="7.68" transform="translate(-25.83 16.31) rotate(-1.18)" fill="#262521"/><ellipse cx="789.5" cy="1259.8" rx="5.47" ry="7.68" transform="translate(-25.82 16.56) rotate(-1.18)" fill="#262521"/><ellipse cx="801.64" cy="1259.48" rx="5.47" ry="7.68" transform="translate(-25.81 16.81) rotate(-1.18)" fill="#262521"/><path d="M813.9,1251.49h0c-3,.08-5.39,3.58-5.3,7.82s2.52,7.45,5.45,7.52C813.86,1261.71,813.88,1256.6,813.9,1251.49Z" fill="#262521"/><path d="M314.17,788.53a4.9,4.9,0,0,0,3.9-2.49l4.23-.11a4.48,4.48,0,0,0,7.91-.2l4.23-.11a4.47,4.47,0,0,0,7.91-.21l4.07-.1a4.48,4.48,0,0,0,7.91-.21l4.23-.11a4.86,4.86,0,0,0,4,2.28,4.92,4.92,0,0,0,3.9-2.49l4.38-.11a4.47,4.47,0,0,0,7.91-.21l4.23-.11a4.48,4.48,0,0,0,7.91-.2l4.23-.11a4.47,4.47,0,0,0,7.91-.21l4.22-.11a4.89,4.89,0,0,0,4,2.28l.24,0c0-.79,0-1.58,0-2.37h0c0-3.34-.07-6.67-.1-10l0-2.93h0q-.08-6.74-.12-13.47c0-2.75-.06-5.49-.07-8.23a3.43,3.43,0,0,0-.78-.07,4.88,4.88,0,0,0-3.84,2.38l-4.35.11a4.47,4.47,0,0,0-7.79.21l-4.35.11a4.47,4.47,0,0,0-7.79.2l-4.35.12a4.46,4.46,0,0,0-7.78.2l-4.52.12a4.82,4.82,0,0,0-3.94-2.18,4.88,4.88,0,0,0-3.84,2.38l-4.35.11a4.46,4.46,0,0,0-7.79.21l-4.19.1a4.47,4.47,0,0,0-7.79.21l-4.35.11a4.47,4.47,0,0,0-7.79.2l-4.36.12a5.43,5.43,0,0,0-2.33-1.89c0,2-.09,3.95-.16,5.92,0,.87-.05,1.74-.08,2.61-.07,1.85-.15,3.69-.24,5.53-.12,2.47-.23,4.94-.36,7.41h0c-.05,1-.09,2-.14,3,0,.79-.08,1.57-.11,2.36-.08,1.81-.14,3.62-.2,5.42,0,.73-.07,1.46-.09,2.18h0c0,.77-.06,1.55-.07,2.32A5.34,5.34,0,0,0,314.17,788.53Z" fill="#262521"/><path d="M411.77,825.41a4.82,4.82,0,0,0-3.16,2l-4.87.13a4.69,4.69,0,0,0-3.68-1.85,4.74,4.74,0,0,0-3.59,2l-4.87.13a4.37,4.37,0,0,0-7.27.19l-4.87.12a4.36,4.36,0,0,0-7.26.19l-5,.13a4.37,4.37,0,0,0-7.27.19l-4.87.13a4.37,4.37,0,0,0-7.27.19l-4.71.12a4.69,4.69,0,0,0-3.68-1.85,4.74,4.74,0,0,0-3.59,2l-4.87.13a4.37,4.37,0,0,0-7.27.19l-4.87.12a4.7,4.7,0,0,0-3.68-1.85,4.16,4.16,0,0,0-1.1.19c0,.59,0,1.19,0,1.79h0c0,1.47,0,2.94,0,4.41,0,2.91,0,5.82,0,8.74h0l.06,12q0,4.79.05,9.56A4,4,0,0,0,316,865a5,5,0,0,0,4.11-2.82l3.79-.1a4.57,4.57,0,0,0,8.35-.22l3.79-.1a5,5,0,0,0,4.24,2.61,5.05,5.05,0,0,0,4.11-2.82l3.63-.1a4.57,4.57,0,0,0,8.35-.22l3.79-.1a5,5,0,0,0,4.23,2.61,5.05,5.05,0,0,0,4.12-2.82l3.94-.11a4.57,4.57,0,0,0,8.35-.21l3.79-.1a4.57,4.57,0,0,0,8.35-.22l3.79-.1a5,5,0,0,0,4.24,2.61A5.05,5.05,0,0,0,405,860l3.79-.1a5,5,0,0,0,4.23,2.6l.3,0c0-.9-.07-1.8-.11-2.7h0c-.06-1.43-.12-2.87-.19-4.3,0-.92-.09-1.83-.14-2.75l-.27-5.11,0-.46h0c-.36-6.46-.72-12.93-.84-19.4C411.79,827,411.77,826.18,411.77,825.41Z" fill="#262521"/><path d="M413.65,920c-.14-4.09-.49-8.17-.72-12.26,0-.29,0-.58-.05-.87-.05-1-.09-2-.12-3s-.06-1.91-.07-2.86a5.3,5.3,0,0,0-2.57,2.18l-4.32.11a4.47,4.47,0,0,0-7.85.21l-4.29.11a4.46,4.46,0,0,0-7.84.2l-4.3.11a4.83,4.83,0,0,0-4-2.23,4.89,4.89,0,0,0-3.87,2.44l-4.45.11a4.47,4.47,0,0,0-7.85.21l-4.29.11a4.47,4.47,0,0,0-7.85.2l-4.13.11a4.47,4.47,0,0,0-7.85.21l-4.29.11a4.84,4.84,0,0,0-4-2.23,4.9,4.9,0,0,0-3.87,2.43l-4.28.11a4.86,4.86,0,0,0-4-2.23,4.25,4.25,0,0,0-1.9.54c0,.62,0,1.23,0,1.85h0c0,1.6,0,3.21.07,4.82l0,1.19c.05,2.12.11,4.24.2,6.36v.14h0c.29,6.65.78,13.29,1.62,19.89h0c.1.77.19,1.53.29,2.29a3.05,3.05,0,0,0,.52,0,4.88,4.88,0,0,0,3.87-2.43l4.29-.11a4.47,4.47,0,0,0,7.85-.2l4.29-.12a4.47,4.47,0,0,0,7.85-.2l4.13-.11a4.47,4.47,0,0,0,7.85-.2l4.29-.11a4.86,4.86,0,0,0,4,2.23,4.92,4.92,0,0,0,3.87-2.44l4.45-.11a4.83,4.83,0,0,0,4,2.23,4.92,4.92,0,0,0,3.87-2.44l4.29-.11a4.47,4.47,0,0,0,7.85-.2l4.29-.12a4.47,4.47,0,0,0,7.85-.2l4.3-.11a5.11,5.11,0,0,0,3.15,2.15l0-2.23h0c0-1,0-1.92-.05-2.88s0-2.18-.05-3.27C413.83,926.29,413.75,923.13,413.65,920Z" fill="#262521"/><path d="M411.87,979.36l-4.29.11a4.47,4.47,0,0,0-7.85.2l-4.29.12a4.46,4.46,0,0,0-7.84.2l-4.3.11a4.46,4.46,0,0,0-7.84.21l-4.45.11a4.47,4.47,0,0,0-7.85.21l-4.29.11a4.47,4.47,0,0,0-7.85.2l-4.13.11a4.47,4.47,0,0,0-7.85.2l-4.29.12a4.46,4.46,0,0,0-7.84.2l-4.29.11a4.45,4.45,0,0,0-7.83.21l-.84,0c0,.72-.1,1.43-.18,2.15h0c-.11,1-.25,2-.4,3-.66,4.28-1.62,8.55-1.81,12.88-.06,1.55-.06,3.09,0,4.63h0c0,.15,0,.3,0,.44,0,1.22.06,2.43.11,3.64,0,.26,0,.52,0,.78.08,1.66.17,3.31.26,5l3.59-.09a4.82,4.82,0,0,0,4,2.22,4.88,4.88,0,0,0,3.87-2.43l4.29-.11a4.47,4.47,0,0,0,7.85-.21l4.29-.11a4.47,4.47,0,0,0,7.85-.2l4.13-.11a4.47,4.47,0,0,0,7.85-.2l4.29-.11a4.48,4.48,0,0,0,7.85-.21l4.45-.11a4.82,4.82,0,0,0,4,2.22,4.88,4.88,0,0,0,3.87-2.43l4.29-.11a4.47,4.47,0,0,0,7.85-.2l4.29-.12a4.47,4.47,0,0,0,7.85-.2l4.31-.11a5.35,5.35,0,0,0,2.78,2.08c0-3.6.07-7.19.11-10.78s.07-7.23.11-10.85h0c.07-5.1.12-10.21.12-15.32h0A4.88,4.88,0,0,0,411.87,979.36Z" fill="#262521"/><path d="M417.58,998.89c-.05,3.75-.09,7.49-.13,11.24q1-5.25,1.46-10.53A5,5,0,0,0,417.58,998.89Z" fill="#262521"/><path d="M413.6,1055.56l-.06.09-4.34.11a4.47,4.47,0,0,0-7.8.2l-4.34.12a4.46,4.46,0,0,0-7.8.2l-4.5.12a4.46,4.46,0,0,0-7.79.2l-4.34.11a4.46,4.46,0,0,0-7.8.21l-4.18.1a4.46,4.46,0,0,0-7.8.21l-4.34.11a4.47,4.47,0,0,0-7.8.2l-4.34.12a4.46,4.46,0,0,0-7.8.2l-4.34.11a4.81,4.81,0,0,0-4-2.19,4.88,4.88,0,0,0-3.85,2.4l-4,.1c0,.34.07.69.11,1v0l0,.28c.1.93.22,1.86.35,2.79l.12.84c.1.63.19,1.25.29,1.88,0,.24.07.49.11.73h0c.36,2.32.71,4.64.87,7,.42,5.94.56,11.92.6,17.88l2.21-.06a4.48,4.48,0,0,0,7.9-.2l4.24-.11a4.47,4.47,0,0,0,7.9-.21l4.24-.11a4.48,4.48,0,0,0,7.9-.2l4.24-.11a4.47,4.47,0,0,0,7.89-.21l4.09-.1a4.47,4.47,0,0,0,7.89-.21l4.24-.11a4.47,4.47,0,0,0,7.9-.21l4.4-.11a4.47,4.47,0,0,0,7.9-.21l4.24-.11a4.48,4.48,0,0,0,7.9-.2l.9,0c.13-1,.23-2.05.31-3.09,0,0,0,0,0,0s0-.25,0-.38c0-.48.07-1,.1-1.44,0-.21,0-.43,0-.64v0c.17-3.34.21-6.69.43-10,.18-2.74.53-5.46.88-8.18h0l0-.1c0-.13,0-.26,0-.39.08-.61.16-1.22.23-1.84,0-.13,0-.27.05-.4C413.28,1059.6,413.49,1057.59,413.6,1055.56Z" fill="#262521"/><path d="M318.79,1166.59a4.59,4.59,0,0,0,8.44-.22l3.7-.09a4.59,4.59,0,0,0,8.43-.22l3.71-.1a4.59,4.59,0,0,0,8.43-.22l3.55-.09a4.59,4.59,0,0,0,8.43-.22l3.71-.1a4.59,4.59,0,0,0,8.43-.22l3.86-.1a4.59,4.59,0,0,0,8.43-.22l3.71-.09a4.59,4.59,0,0,0,8.43-.22l3.73-.1a6.08,6.08,0,0,0,2.22,2.18c.08-.75.14-1.5.19-2.24h0l.06-1.27c0-.07,0-.14,0-.21,0-.55.05-1.1.06-1.66a1,1,0,0,1,0-.17c0-1.38.05-2.77.07-4.16v-.31c0-.43,0-.86,0-1.29s0-.63,0-1l0-.92c0-.33,0-.66,0-1,0-1.12.11-2.23.21-3.34s.27-2.51.46-3.77h0c.36-2.41.79-4.81,1.19-7.22l.27-1.66.12-.82c.14-1,.27-1.91.37-2.86,0-.31,0-.63,0-.94h0c0-.45,0-.91,0-1.37a4.11,4.11,0,0,0-1.94-.46,4.73,4.73,0,0,0-3.54,2l-5,.13a4.36,4.36,0,0,0-7.16.19l-5,.13a4.34,4.34,0,0,0-7.16.19l-5.13.13a4.35,4.35,0,0,0-7.17.19l-5,.13a4.35,4.35,0,0,0-7.16.18l-4.82.13a4.65,4.65,0,0,0-3.63-1.79,4.69,4.69,0,0,0-3.53,2l-5,.13a4.36,4.36,0,0,0-7.16.19l-5,.13a4.34,4.34,0,0,0-7.16.19l-2.73.07c.07,10.81.36,21.63.48,32.44Z" fill="#262521"/><path d="M316.47,1242.82l.1-.15,4.29-.11a4.47,4.47,0,0,0,7.85-.21l4.29-.11a4.47,4.47,0,0,0,7.85-.2l4.29-.12a4.47,4.47,0,0,0,7.85-.2l4.13-.11a4.47,4.47,0,0,0,7.85-.2l4.29-.11a4.83,4.83,0,0,0,4,2.23,4.89,4.89,0,0,0,3.87-2.44l4.45-.11a4.47,4.47,0,0,0,7.85-.21l4.29-.11a4.46,4.46,0,0,0,7.84-.2l1.33,0c0-1.13,0-2.26,0-3.4,0,0,0,0,0-.06,0-1.18,0-2.36,0-3.54,0,0,0-.05,0-.08-.13-8.45-.33-16.91-.41-25.36l-1.6,0a4.83,4.83,0,0,0-4-2.23,4.88,4.88,0,0,0-3.87,2.43l-4.29.11a4.48,4.48,0,0,0-7.85.21l-4.44.11a4.48,4.48,0,0,0-7.85.21l-4.29.11a4.47,4.47,0,0,0-7.85.2l-4.13.11a4.47,4.47,0,0,0-7.85.21l-4.29.11a4.47,4.47,0,0,0-7.85.2l-4.29.11a4.86,4.86,0,0,0-4-2.23,4.92,4.92,0,0,0-3.87,2.44l-3.78.1v.82h0q0,4.7,0,9.39h0c0,7.25.08,14.51.1,21.76Z" fill="#262521"/><path d="M410.72,1281.76a4.88,4.88,0,0,0-3.87,2.43l-4.29.11a4.86,4.86,0,0,0-4-2.23,4.91,4.91,0,0,0-3.87,2.44l-4.29.11a4.83,4.83,0,0,0-4-2.23,4.88,4.88,0,0,0-3.87,2.43l-4.45.12a4.47,4.47,0,0,0-7.85.2l-4.29.12a4.47,4.47,0,0,0-7.85.2l-4.13.11a4.47,4.47,0,0,0-7.85.2l-4.29.11a4.86,4.86,0,0,0-4-2.23,4.91,4.91,0,0,0-3.87,2.44l-4.28.11a4.47,4.47,0,0,0-7.85.2l-5.37.14a83.58,83.58,0,0,0,1.09,13.68c.77,4.33,1.3,15.58,4,20s45.23,2,64.37,2c9.24,0,16.67-2.73,24.65-5.32a139.85,139.85,0,0,0,2-20.21l.1,0c.13-4.81.07-9.63,0-14.43A4,4,0,0,0,410.72,1281.76Z" fill="#262521"/><path d="M771.13,776.23A4.48,4.48,0,0,0,779,776l4.23-.11a4.47,4.47,0,0,0,7.91-.21l4.23-.11a4.48,4.48,0,0,0,7.91-.2l4.23-.11a4.86,4.86,0,0,0,4,2.28,4.92,4.92,0,0,0,3.9-2.49l4.14-.11a4.49,4.49,0,0,0,7.92-.2l4.22-.11a4.88,4.88,0,0,0,4,2.28,5,5,0,0,0,3.9-2.49l4.38-.11a6.37,6.37,0,0,0,.51.63c0-.21-.07-.43-.1-.64h0c-.17-1.22-.35-2.43-.54-3.64l-.87-5.44h0A180.57,180.57,0,0,1,840.28,742l-1.45,0a4.46,4.46,0,0,0-7.78.21l-4.36.11a4.82,4.82,0,0,0-3.94-2.18,4.88,4.88,0,0,0-3.84,2.38l-4.27.11a4.46,4.46,0,0,0-7.79.21l-4.35.11a4.47,4.47,0,0,0-7.79.2l-4.35.12a4.46,4.46,0,0,0-7.78.2l-4.36.11a4.46,4.46,0,0,0-7.78.21l-4.53.11a5.53,5.53,0,0,0-2.42-1.92c0,.67,0,1.32.07,2h0c0,.25,0,.49.05.74,0,.85.09,1.69.16,2.54l.09,1.21c.1,1.13.22,2.26.36,3.38l0,.32c.16,1.35.34,2.7.54,4h0c1,6.7,2.22,13.38,2.71,20.13Z" fill="#262521"/><path d="M778.23,854.93a5,5,0,0,0,4.11-2.82l3.79-.1a4.57,4.57,0,0,0,8.35-.22l3.79-.1a5,5,0,0,0,4.24,2.61,5.05,5.05,0,0,0,4.11-2.82l3.79-.1a4.56,4.56,0,0,0,8.34-.22l3.72-.1a5,5,0,0,0,4.23,2.61,5,5,0,0,0,4.11-2.82l3.79-.1a4.57,4.57,0,0,0,8.35-.22l4-.1a5.11,5.11,0,0,0,4,2.6c-.07-1.19-.14-2.37-.19-3.56-.13-2.58-.24-5.16-.43-7.74v-.19c-.09-1.14-.2-2.27-.33-3.41l0-.31h0c-.06-.49-.1-1-.17-1.48-.88-6.11-2-12.22-2-18.39h0v-1a5.85,5.85,0,0,0-1,1.05l-5,.13a4.36,4.36,0,0,0-7.26.19l-4.88.12a4.36,4.36,0,0,0-7.26.19l-4.79.13a4.37,4.37,0,0,0-7.27.19l-4.87.12a4.37,4.37,0,0,0-7.27.19l-4.87.13a4.37,4.37,0,0,0-7.27.19l-4.87.12a4.36,4.36,0,0,0-7.26.19l-3.26.09c0,1.34,0,2.68,0,4h0c0,1.22,0,2.44,0,3.65v0a217.9,217.9,0,0,0,1.58,24.77l1.82,0A5,5,0,0,0,778.23,854.93Z" fill="#262521"/><path d="M782.55,930.3c2.4-.06,4.38-2.28,5.05-5.32l1.79,0c.82,3,2.9,5.1,5.29,5s4.35-2.24,5-5.23l1.84,0c.82,2.95,2.89,5,5.26,5s4.31-2.21,5-5.15l1.89,0c.84,2.9,2.89,4.93,5.24,4.87s4.27-2.16,5-5.07l1.85,0c.86,2.85,2.89,4.85,5.22,4.79s4.24-2.13,5-5l2,0c.87,2.82,2.89,4.77,5.2,4.71s4.2-2.08,5-4.9l2.17,0c.88,2.77,2.89,4.68,5.17,4.62a4.06,4.06,0,0,0,1.86-.52c-.86-4.84-1.75-9.68-2.55-14.54-.39-2.42-.76-4.85-1.08-7.28-.11-.81-.22-1.63-.31-2.44l-.15-1.26c-.09-.81-.18-1.61-.26-2.42,0-.41-.07-.82-.11-1.23-.08-.82-.14-1.65-.2-2.47,0-.4,0-.8-.08-1.19-.06-1-.12-2-.16-3a6,6,0,0,0-1.68,1.73l-4.46.12a4.47,4.47,0,0,0-7.85.2l-4.29.12a4.47,4.47,0,0,0-7.85.2l-4.21.11a4.47,4.47,0,0,0-7.85.2l-4.29.12a4.46,4.46,0,0,0-7.84.2l-4.29.11a4.47,4.47,0,0,0-7.85.21l-4.29.11a4.47,4.47,0,0,0-7.84.18l0,3.5c0,5.18-.12,10.37.28,15.54.24,3.15.77,6.26,1.27,9.38.28,1.84.56,3.68.75,5.52A4.22,4.22,0,0,0,782.55,930.3Z" fill="#262521"/><path d="M792.77,1002.32c1,2.3,2.81,3.82,4.84,3.76s3.76-1.65,4.66-4l2.66-.06c1,2.27,2.8,3.77,4.82,3.72s3.74-1.63,4.64-3.93l2.69-.06c1,2.24,2.8,3.72,4.81,3.67s3.71-1.61,4.62-3.89l2.73-.06c1,2.22,2.79,3.69,4.79,3.64s3.69-1.6,4.6-3.85l2.69-.06c1,2.2,2.78,3.64,4.77,3.59s3.67-1.57,4.58-3.8l2.81-.06c1,2.17,2.77,3.6,4.75,3.55s3.64-1.56,4.56-3.76l3-.07c1,2.15,2.77,3.56,4.73,3.51a4.33,4.33,0,0,0,1.33-.28c-.08-.49-.16-1-.23-1.47s-.16-1.25-.22-1.88h0c-.12-1.2-.21-2.39-.33-3.59-.08-.83-.18-1.66-.29-2.49,0-.27-.07-.54-.11-.8-.08-.58-.17-1.15-.26-1.72,0-.28-.09-.57-.14-.86-.13-.74-.26-1.48-.4-2.22-.19-1-.38-2-.59-3-.25-1.24-.48-2.49-.7-3.73-.42-2.45-.8-4.91-1.19-7.36-.08-.46-.15-.93-.22-1.41a.36.36,0,0,0,0-.1c-.06-.45-.14-.9-.22-1.35a2,2,0,0,0,0-.26q-.11-.6-.24-1.17l-.09-.35c-.06-.23-.12-.47-.19-.7h0c-.05-.17-.09-.35-.15-.52a5.3,5.3,0,0,0-.39.54l-4.45.11a4.47,4.47,0,0,0-7.85.21l-4.29.11a4.47,4.47,0,0,0-7.85.2l-4.21.11a4.47,4.47,0,0,0-7.85.21l-4.29.11a4.47,4.47,0,0,0-7.85.2l-4.29.12a4.83,4.83,0,0,0-4-2.23A4.88,4.88,0,0,0,805,971.1l-4.29.11a4.47,4.47,0,0,0-7.85.21l-4.45.11a4.86,4.86,0,0,0-4-2.23,4.64,4.64,0,0,0-3.47,1.89l0,.53h0c0,.21,0,.42,0,.63,0,.94.09,1.88.16,2.81,0,.37,0,.73.07,1.09l.21,2.58c0,.36.06.72.1,1.08.08.92.17,1.83.27,2.75,0,.28,0,.56.08.84v.1h0c.32,3,.68,6.08,1,9.12.09.8.18,1.59.26,2.39,0,.44.09.88.13,1.32.09.84.17,1.68.25,2.52,0,.08,0,.17,0,.25.21,2.34.39,4.69.5,7a4.06,4.06,0,0,0,1.21.16c2,0,3.78-1.67,4.67-4Z" fill="#262521"/><path d="M802.49,1079.64l4.4-.11a4.47,4.47,0,0,0,7.89-.21l4.24-.11a4.48,4.48,0,0,0,7.9-.2l4.24-.11a4.48,4.48,0,0,0,7.9-.21l4.24-.11a4.48,4.48,0,0,0,7.9-.2l4.16-.11a4.48,4.48,0,0,0,7.9-.21l4.24-.11a4.47,4.47,0,0,0,7.89-.2l4.42-.12a6.15,6.15,0,0,0,1.56,1.54c0-.52-.13-1.05-.2-1.57h0c-.31-2.43-.72-4.86-1.17-7.29,0-.08,0-.16,0-.23-1.52-8.25-3.46-16.44-3.66-24.81l-1.73,0a4.47,4.47,0,0,0-7.8.2l-4.34.11a4.46,4.46,0,0,0-7.8.21l-4.26.11a4.47,4.47,0,0,0-7.8.2l-4.34.11a4.46,4.46,0,0,0-7.8.21l-4.34.11a4.81,4.81,0,0,0-4-2.19,4.87,4.87,0,0,0-3.85,2.39l-4.34.12a4.82,4.82,0,0,0-4-2.2,4.88,4.88,0,0,0-3.84,2.4l-4.5.12a4.46,4.46,0,0,0-7.8.2l-4.12.11c0,.13,0,.27,0,.4v0c0,.39.09.78.14,1.18,0,.22,0,.44.08.66.08.61.18,1.21.27,1.82l.15,1.06c.06.37.12.74.16,1.12.09.67.17,1.35.22,2,.21,3,.47,6,.9,9q1.08,7.55,1.62,15.15l1.25,0a4.47,4.47,0,0,0,7.9-.21Z" fill="#262521"/><path d="M810.25,1155.77a5,5,0,0,0,4.28,2.67,5.06,5.06,0,0,0,4.15-2.89l3.7-.09a4.59,4.59,0,0,0,8.44-.22l3.7-.1a4.59,4.59,0,0,0,8.43-.22l3.71-.1a4.58,4.58,0,0,0,8.43-.21l3.63-.1a4.59,4.59,0,0,0,8.43-.22l3.71-.1a5,5,0,0,0,4.28,2.68,5.11,5.11,0,0,0,4.15-2.89l3.86-.11a5.05,5.05,0,0,0,4.28,2.68,4.15,4.15,0,0,0,1.73-.45c-.08-.79-.19-1.58-.29-2.37h0c0-.26-.07-.52-.11-.77q-.13-1.07-.3-2.13l-.18-1.25c-.4-2.64-.83-5.28-1.21-7.93-.1-.71-.2-1.42-.29-2.14-.21-1.59-.39-3.18-.56-4.77h0c-.26-2.39-.49-4.79-.71-7.19,0-.16,0-.33,0-.49-.21-2.39-.42-4.79-.61-7.18a5.48,5.48,0,0,0-1.81,1.54l-5.15.13a4.37,4.37,0,0,0-7.17.19l-5,.13a4.35,4.35,0,0,0-7.17.19l-4.89.12a4.37,4.37,0,0,0-7.17.19l-5,.13a4.34,4.34,0,0,0-7.16.19l-5,.13a4.61,4.61,0,0,0-3.62-1.79,4.68,4.68,0,0,0-3.54,2l-5,.13a4.35,4.35,0,0,0-7.17.19l-5.13.13a4.69,4.69,0,0,0-3.63-1.79,4.13,4.13,0,0,0-2.07.64c0,.43,0,.87,0,1.3h0v.12q.12,6.49.75,13h0q.33,3.43.75,6.87h0v.05q.46,3.67,1,7.34a2,2,0,0,1,0,.26q.36,2.37.75,4.74h0c.15.89.28,1.78.43,2.67a5.43,5.43,0,0,0,3.27-2.77Z" fill="#262521"/><path d="M813.2,1234.83a4.06,4.06,0,0,0,1.85.34,4.88,4.88,0,0,0,3.8-2.55l4.28-.24a4.47,4.47,0,0,0,7.84-.44l4.29-.24a4.46,4.46,0,0,0,7.83-.44l4.29-.24a4.47,4.47,0,0,0,7.84-.44l4.2-.24a4.47,4.47,0,0,0,7.84-.44l4.29-.24a4.46,4.46,0,0,0,7.83-.44l4.45-.25a4.46,4.46,0,0,0,7.83-.44l4.29-.24a5,5,0,0,0,3.71,2.1c-.13-1.26-.26-2.52-.44-3.77a2.51,2.51,0,0,0,0-.27c-.08-.54-.17-1.08-.28-1.62-.61-3-1.29-5.91-1.93-8.87h0c-.14-.67-.29-1.33-.43-2-1.22-6-.23-11.93-1-17.94l-5.5.31a4.49,4.49,0,0,0-8,.43l-4.32.24a4.49,4.49,0,0,0-8,.44l-4.18.23a4.48,4.48,0,0,0-7.93.44l-4.13.22a4.85,4.85,0,0,0-4.08-2.16,4.91,4.91,0,0,0-3.83,2.6l-4.22.23a4.48,4.48,0,0,0-7.89.43l-4.25.24a4.46,4.46,0,0,0-7.86.43l-4.27.24a4.46,4.46,0,0,0-7.85.43l-2.71.15c.59,5.88,3.06,11.52,4.23,17.28.21,1,.39,2.07.58,3.11h0C812.15,1225.73,812.74,1230.27,813.2,1234.83Z" fill="#262521"/><path d="M905.15,1277a2.83,2.83,0,0,1,0-.29,43.17,43.17,0,0,0,0-4.56l-.88.05c-.69-1.67-1.8-2.69-3.5-2.58a5,5,0,0,0-4,3l-3.76.2a4.56,4.56,0,0,0-8.32.47l-4,.22a4.54,4.54,0,0,0-8.24.45l-3.93.22a4.53,4.53,0,0,0-8.16.45l-3.92.22a4.51,4.51,0,0,0-8.08.45l-4.09.22a4.5,4.5,0,0,0-8,.44l-4.17.23a4.48,4.48,0,0,0-7.91.44l-4.26.24a4.83,4.83,0,0,0-4.06-2.1,4.09,4.09,0,0,0-2.1.73c0,.57,0,1.14.07,1.7l-1.37.08a124.67,124.67,0,0,0,5.13,26.94c2.83,8.41,71,5.41,84.16-8.2.59-.61,2.09-6.87,2.91-13.57A14.08,14.08,0,0,0,905.15,1277Z" fill="#262521"/><path d="M408.64,1292.19c16.7,7.61,98.35,4.27,175.28,1,133.05-5.72,221.33.48,229.5-15" fill="none" stroke="#636363" stroke-linecap="round" stroke-linejoin="round"/></svg>