<svg xmlns="http://www.w3.org/2000/svg" width="1250" height="1550" viewBox="0 0 1250 1550"><title>s02e10-01</title><path d="M489.67,531.26l0,0S489.68,531.23,489.67,531.26Z" fill="#262521"/><path d="M763.21,849.63c58.38,11.42,118.48-39.89,118.48-39.89S813.46,592.1,801.76,586.45s-142.29-56.21-142.29-56.21-2.49,55-82.84,55c-65.08,0-82.1-39.23-86.21-51.38a10.79,10.79,0,0,1-.75-2.59c-1.05.66-133.79,83.87-145.44,89.5-2.17,1-15.49,16.94-15.81,45.24l0,0c-15.72,64.39-38.08,172.8-38.08,172.8s103.21,50.51,123.26,10.35h0l4.1,7.63-20,406s91.48,29,210.72,25,195.84-40.68,195.84-40.68l-41.07-397.5Z" fill="#262521"/><path d="M404.47,1264.74c23.2,6.47,103.79,26.43,204,23.07,104.33-3.49,176-32,192.31-39.1" fill="none" stroke="#636363" stroke-linecap="round" stroke-linejoin="round"/><path d="M328.1,666C312.38,730.34,290,838.76,290,838.76s103.21,50.51,123.25,10.35" fill="none" stroke="#262521" stroke-linecap="round" stroke-miterlimit="10" stroke-width="3"/><path d="M762.91,849.63c58.38,11.42,118.48-39.89,118.48-39.89S813.16,592.1,801.46,586.45s-142.29-56.21-142.29-56.21-2.49,55-82.84,55c-65.08,0-82.1-39.23-86.21-51.38-1-2.85-.73-2.61-.73-2.61s-133.76,83.87-145.46,89.52c-2.81,1.36-24.27,27.5-12.15,73.24" fill="none" stroke="#262521" stroke-linecap="round" stroke-linejoin="round" stroke-width="3"/><path d="M813.88,647.07s6.82-23.29-2.08-41.13" fill="none" stroke="#262521" stroke-linecap="round" stroke-miterlimit="10" stroke-width="3"/></svg>