<svg xmlns="http://www.w3.org/2000/svg" width="1000" height="1550" viewBox="0 0 1000 1550"><defs><pattern id="a" width="15.23" height="9.39" patternTransform="matrix(1.57 0 0 1.57 .79 1.64)" patternUnits="userSpaceOnUse" viewBox="0 0 15.23 9.39"><path fill="none" d="M0 0h15.23v9.39H0z"/><path fill="#353430" d="M0 3.13h15.23v6.26H0z"/><path fill="#262521" d="M0 0h15.23v3.13H0z"/></pattern></defs><path fill="#fff" stroke="#262521" stroke-linecap="round" stroke-linejoin="round" stroke-width="3" d="M675.98 1248.13l20.1 342.24-158.7-1.85-28.9-196.61-25.52 8.68-8.84 196.24-153.94-.22-40.74-332.09"/><path d="M653 1412.88c-7.44 1.72-16.49 3.66-19.88-4.78.39 1.67-2.65 5.42-3.63 2.65a8.84 8.84 0 00-.88-4.58c-.76-.8.35-1.72.29-2.59a1 1 0 011.43-.89 12 12 0 00-7.16-5.46c2.59 6.22-4.81.72-6.85-.23-1.45-.52-4.48 1.08-5-.45-7.72.85-18.46.72-21.45-7.12-8.31 1.68-7.18-4.7-4.94-10.11 2.25-2.92 2.66 4.45 4.27 5.51.38-15.14 22.42-45.95 1.31-54.27-8.48 9.34-1.82 28.27-13 34.17-5 2.64-12.38 1.54-15.2 6.43-4 26.78-37.29 1.09-32.67-13.54-1.86-5.1 9.3-8.21 8.67-4.43 13.51-.56 12.31-7.15 6.89-16.67-.24 2.43-3.66 3.1-4.05.38-.32-1.63-.48-7.37 2.28-5.9a1 1 0 011.78.59c3.47-6.4 17.22.43 19.12-9-2.36-1.41-4.31-11.7-.29-10.79 1.42-1.8 4.33-1 6 0 6-1.77 14.92-5.13 7.44-11a5.4 5.4 0 01-4.69-1.61c-10.38.34-12.5-7.39-13.16-16.45-1.65-7.84-9.81-12.11-13.45-4 2.64 3.51 5.79 10.07.82 12.94-2.69-.14-2.37-6.87-3.46-9.12-7.44 8.53-16.42 33.33-30.52 22.45-1.7-2.17-1.93-5.09-2.6-7.75-3.23-12.73-19.63-19.45-31.26-14.18-7.64 13.53-21.26 4.78-12.4 29.73-15.89 3.94-22.35 8.53-22.1 24.4-1.52 3.8-6.69 6.11-6.26 10.18.59 5.52 9 4.31 14.09 6.52 10.75 5.62 5 19.81-1.15 27.07 21.8 9.45 17-3 31.05-6.54a139.32 139.32 0 001.14-16.46 43.33 43.33 0 00-7.23-12.58c8-7.06 13.82 6.83 19.06 11 3.44 2.41 9.72 1.36 9.94-2.84 10.19 5.4 5.83 22.89 14.8 30.13 8.06 5.48 9.76 7.36 2.64 14.28-3.1 8.35 10.64 10.07 12.68 16.47 1.45 4.4-1.11 11 1.81 13.5 5.24 1.34 5.71-6.59 8-5.17a8.23 8.23 0 014.29-.52c12.13-13.71 16.12 1.85 29.09 9.93 5.49.34 8.82-12.47 13-8 7.73 5.33 17.4 11.3 26.75 7.08 2-2.16 10.08-.31 11.29 2.49 11.35-1.75 14.33 16.85 26.09 13.61 2.29-1 1.7-4.23 2.69-6.23-3.35-8.3 2.37-6.4 3.34 0a5.71 5.71 0 001.19-.25 32.75 32.75 0 00-.13-7.1.87.87 0 01-.09-1 5 5 0 00-.22-1.54c-.79-1.32-4.65-8.71.44-5.48 5.4-8.26-.45-13.94-9.96-12.88zm-92.64-114.82c1.25-1.42 5.22 1.48 5.12 3.09-1.44 2.47-6 .51-5.19-2.28a1.08 1.08 0 01.07-.81zm-83.66 60.15c-.29-1.82 2.86-1.59 2.32.16 1.86 3.69 4.12 10.57-1.09 12a1 1 0 01-1.27-1c-.22-3.72.5-7.51.04-11.16zm28.87-9.09c-.46 3.85-6.14 6.27-4.93.39-2.57-4.87 5.17-6.67 4.93-.39zm19.8-32.77c-2.38-2.56 3.24-6.48 2.36-9.86.06-1.64 2.45-1 2 .52 2.17 2.99.11 10.14-4.36 9.34zm14.51 102.75a1 1 0 01-1 1c-1.66-.18-.76-2.37-1-3.48-.06-.86-.75-2.06.45-2.44 2.2-.03 1.4 3.45 1.55 4.92zm14.35-6.08c-1 .91-.38 3.49-2.16 3.24-2.58-1.02 2.32-7.78 2.16-3.26zm4.93-4.19a1 1 0 01-1.15.7c-.94 0-2.4 1.19-2.58-.53.1-1.68 4.03-2.27 3.73-.17zm-2.28-20.2a1 1 0 01-.37-1.92c7.18-7.44 11.43 3.69.37 1.92zm8.18 22.19c-.39 1-3.62.09-3.48-.94.1-1.96 4.42-.8 3.48.94zm5.11-38.73c-2.91.52-1.55 2.35-3.46 2.31-3.29-1.95 4.83-6.5 3.46-2.31zm11.83 34.3c.77-3.44 6.83 2 3.56 2.88-1.08-.12-3.43.37-3.31-1.31a1.65 1.65 0 01-.25-1.57zm5.61 11.51c-9.24-.34-14-6.4-1-4.93a1 1 0 01.93 1.19c.9.84 1.9 3.47.07 3.74zm7-19.76c-.59 1.67-4.8 0-4-1.65.24-1.17 4.61.57 3.96 1.65zm19 33.52c-2.45 2.12-7.28-2.9-9.81-4.09-3.1-3.51 11.89-2.37 9.8 4.09zm-.22-30.94c-1.34-1.76-3.29.94-4.66 1.52-1.2 1.36-11.76 1.66-7.5-1.12 6.25 2 10.37-6.23 13.89-1.41.71 1.08-1.03 2.08-1.74 1.01zm24.4 33a1 1 0 01-1.19-.63c-.69-1-3.05.6-3.16-1.26.49-2.65 7.29-.28 4.34 1.84zm.76-16.5c-1.54-.36-5.16.09-5.21-2 1-1.76 3.59.37 5.21 0a1 1 0 01-.01 1.95zm15.45 26.16c-.27.13-.56.24-.85.35-1.07 2.16-4 .44-5.43-.5-1.47-1.1.58-2.58 1.65-1.34a1 1 0 011.27 0 .87.87 0 00.82.17c.36-1.99 4.43-.06 2.54 1.32zm6.81-22a5.42 5.42 0 01-1.45-.37c-3.24 3.93-4.88-3.74-3.3-5.7a1 1 0 011.45-.61c2.2.74 6.32 5.07 3.27 6.71z" fill="#314251" opacity=".2"/><path d="M478.89 1272.06l-3.75 13.45a18.17 18.17 0 014-2.44 13.23 13.23 0 00-.25-11.01z" fill="#262521" opacity=".2"/><path d="M686.38 1411.64c-2.36 0-3.48-2.88-3.92-4.89-3-2.49-1.29-5.28 1.46-6.74a1 1 0 011.49-.25h.06c-2.43-31.62-8.16-106.72-8.31-121.09-11.7 3-11.41 12.46-7.44 21.7.93 6.64-4.83 12.52-7.32 18.67 1.43.6.74 1.57-.16 2.36-.26.74.17 1.42.52 2.11 3.87.06 2.33 4.37-.26 5.34 6.5 8.63 7.49 14.24-.84 22.17-4.06 3.83-6.26 14 1.22 13.8 3.32-3.16 7.12.43 2.37 3.09a38.44 38.44 0 018.77 9.57c6.12 1.08 6.12 18.65 6.3 24-.81 5.06-.44 12.89 6.22 12.29-.01-.24-.07-.97-.16-2.13zm-14.46-43.43c-.56 2.66-3.45.31-2.23-1.4-.19-3 3.07-.52 2.23 1.4zm1.08-11.47c-1.5 1-3.38 1.37-4.83 2.49-1.09.68-2.14-1.09-1-1.73.15-.55.7-.71 1.19-.78 1-.52 1.77-1.57 2.91-1.92 1.2-.54 3.16.85 1.73 1.94zm1.19-73.19c-.73 1.13-2.45 1.46-3.12 2.78-.42.68-.54 1.85-1.63 1.58-3-1.33 4.63-8.31 4.75-4.36zM627.83 1535.91a14 14 0 00-4.19-4.09c-.56.39-1.09.84-1.66 1.23.25.59 1.21.89 1 1.62 1.13.63 1.72 2.63-.13 2.52-1.64-.22-5.63-.33-7.87-1.33a1 1 0 01-1.28-1.3c-.76-3.28 3.51-3 5.49-3.91.07-.24.14-.48.22-.71-13.53-4.16-11.61 11.75-20.07 12.62-4.07-.49-5.95-5.85-10-7 1 7.77-5.36 2.84-6.26-1.47a84.76 84.76 0 01-8.54-1.11c-6.12-1.38-12-9.08-7.43-13.37-6-4.07-16.64 15.54-17.44-5.37-1.25-11.23-15.09-16.4-17.08-27.32-4 3.7-4.21-12.36-.48-11.28a1 1 0 01.35 1.37c-1.14 2.86-1.64 6.45 0 9.19-.44-4.71 2-9.91 6.59-10.74a13 13 0 003.4 13.45h1.59c1.47-3.37 11.45-.95 14.3.55 5.57-5.61 4.44-8.24 13.5-10.09 10.84-4.89 4.29-21.79-7-18.06-14 7.8-10.36-1.42-19.05-7.52-14.22-.06-12.31 7.37-21.8-9.31-3.64-4.91-2.41-8.87-8.11-6.69 4.31 32.87 17.46 124 17.57 124.81 31.71.2 66-.29 97.79-4.43.49-7.68.76-15.86-3.41-22.26zm-65.36-71.25c.72-1.5 9.77-1.54 8 1.27-1.68 1.52-7.61 2.93-7.81-.25a1 1 0 01-.19-1.02zm-15.34-4.83c1-1.45 4.75 1.29 3.56 2.66-.64 1.02-4.44-1.72-3.56-2.66zm-5.67-2.6c1-2.5 5.66-.45 2.88 1.41a1 1 0 01-1.34.4h.1c-.8-.2-2.1-.77-1.64-1.81zm12.23 70.36c-9.52 3-12-14.7-6.36-11 .83 2.72.88 5.77 2.54 8.17a2.79 2.79 0 003.29.91 1 1 0 01.53 1.92zm72.25 25.93c-.47 1.35-1.92.44-2.77 0-1.33.29-2.55 1.36-4 .53-1.28 0-3.1 0-3.78-1.28-3.06-.56.6-4 2.38-3.23 1.96-.03 7.95 2.03 8.17 3.98zM478.42 1428.68a18.15 18.15 0 00-.87 1.77c1.9 2 0 10.08-3.08 6.68a4.41 4.41 0 01-.84-1.19 18.57 18.57 0 00-.18 12.14c4.14 1.25 2.59 6.61-.89 7.62-18.33 21.88 5.9 15.6-3.31 28.57.67-.64 1.73-1.6 2.15-2.13a3.67 3.67 0 00.86-2.14c.07-1.28 2.07-1.29 2 0 0 4.33-5.85 5.69-5.74 9.94a.9.9 0 01-.94 1c-.34 5.61 4.76 10.44 10.27 10.19.26-4.4 3.17-64.7 3.3-74.45a17.08 17.08 0 00-2.73 2zm-8.64 44.73c-2.52 1.47-3.91-5.26-1.64-5.74 1.67.16.68 2.27 1 3.34.22.85 1.51 1.49.64 2.4z" fill="#314251" opacity=".2"/><path d="M597.69 1349.12a7.48 7.48 0 00-1-7.95c3.13 11.72-8.48 12.78-5.29 24 .6-6.17 1.88-11.57 6.29-16.05z" fill="#262521" opacity=".6"/><path d="M553.42 1400.46v-.06zM651.11 1431.32c-3-1.35-7.63.51-9.19-2.4-1.07-2 .68-4.21 2.84-5.27a2.86 2.86 0 01-.73-.7 1 1 0 01-1.1-1c1.71-2.64 6.58 0 9.31-.23a5.52 5.52 0 001.58-1c-8.47-4.19-26.52 6.53-28.09-7.22-6.7 16.32-17.41-3.37-.55-6.65-4.81-6.8-10.31 3.67-13.91 6.58-2.58 1.7-7.3.38-6.82-2.68 1.43-3.32 3-6.26-2.16-6.1-8.88 1-12.64-9.56-19.94-11.11-7.63 2-11.06-2.47-4.93-8.49 2.77-2.08 6.53-3.69 7.24-7.08-1.41-2.32-5.07 1.37-7.57.32s-.72-5.08 1.84-5.77c3.77-.77 8.63.65 10.88-3.42-4.23-19.24 8.1-13.06 4.69-29.88a6.37 6.37 0 00-3.31-1c4 3.2 4 10.27 0 13.47-3.54 1.67-4 5-4.54 8.53-2.31 7.58-17.55 8.38-15.66 17.91.93 2 1.26 4.14-.77 5.58l-7.54 7.19c-1.49 1.92-3.05 0-4.51-.8.06 2.79 2.48 5.31 1.44 8.21-.87 1.77-3.3 0-3.69-1.38-.75-2.72-.76-5.84-2.54-8.17a24.56 24.56 0 01-15.92-7.14 3.13 3.13 0 01-3.14 2.17c-1.79-.32-.75-3-1.12-4.24-1.46-5.72-8.37-9-9.3-15.17-4.26-24.29 26.16-5.4 12.84-29.38a5.4 5.4 0 00-.4.75c2.44.36.76 5.1-.52 6.1-3.69 2.88-2.06-7.9.06-8.9-3.6-11.41 14.22-12.29 21.67-10.69 2.23-3.83-4.54-9.79-.89-12.31 6.19-1.75 13-1.62 19.36-2.68-1.87-3-6.23-2.73-9.74-2.34-20.1 1.38 2.55-17.33-13-30.44 0 2.25-.13 4.49-.32 6.74a3 3 0 01.75 1.14c4.66.43.17 16.25-1.4 4.65-1.07 5-4.39 27.51-11.08 25.44-1.42-5.64 2.09-12.31 2.55-18.21-8.69 4.89-7.22 17.19-12.75 24.44-4.51 6.1-11.93 5.49-16.3 0-4.4-2.91-10.13-.16-15.15 1.48-2.78 1.41-8.13.35-6.91-3.56 7.87-6.39 20.65-5.39 29.56-1.43 1.74-6.77-21.5-5.72-26.42-7.56-1.35-4.49 6.3-3.45 7.77-6.25 1.08-2-1.41-4.64-3.44-3.73l-1.09-1.94c-3.74-1.59-5.69-7.06-9.74-6.74-4.29.35-4.87 6.38-4.16 10.62l-11.39.27c-.95 4.27 2.94 13.88-3.29 14.47-16.76 2.35-21.38 20.09-26.1 33.73 17.93-5.36 23.66 16.57 13.47 28.63 15.59 1.2 19.09-20.55 7.15-28.29 3.69.93 5.87-4.34 5-8.05s-3-7.58-1.46-11.07c2 6.24 8.48 6.63 13.85 6.81 2.77 2.41 3.72 2.37 7.2 2.55 3.67 1.44.56 9.18 4.4 10 2.35-3 7.66-26.31 12.5-18.59 2.23 4.46-1.34 10.74 2.35 14.67 1.77 1.82 5.64 1.39 6-1.11 2.81 7.89 1.66 33.09 10.68 34.51 2.78-.46 5.9-.7 5.94 2.92-.06 5.38 4 12.77.52 17.29-6.54 1.55-1.35 7.82 2.55 9.52a6.12 6.12 0 01-.2-1.83c-3-2.68-4.36-7.44 1.44-4.9 1.36.22 5.47.14 3.16 2.2-.12.32-.23.65-.33 1a4.89 4.89 0 01-1.19 4.92c8.82 1.81 2.77 5.19 6.2 8.4 5.5-1.57 5.23-10.88 10.63-12.77s10.72 5.73 16.32 4.22c4.94-1.34 7.25-9.25 12.27-8.21 11.47 3.82 6.57 20.84 17.54 20.32-6.29-3.2-3.78-9.49-7.83-13.89a1 1 0 01.83-1.78c3.63 1.86 3.85 7.09 5.67 10.4 1 2.88 4.47 3.07 6.06 5.36a43.18 43.18 0 0110.27 1.78c1.91-.77 4.17-1.46 5.51.67.62.83 2.7 1.12 2.17 2.52 5.2 4.08 8 1.28 13.33.49 6.31.53 6.29 12.51 12.61 12.85 4.78.34 6.42-6.42 2.13-8.27zm-71.63-62.53c1.45-2.32 9.31-6.54 6.71-.56-.62 1.28-8.32 3.65-6.71.56zm-28.12-65.67c1-6.27 3.7-5 3.43.54-.37 5.04-5.32 4.64-3.43-.54zm-.94 12.22c1.47-.66 4.78.18 5.14 1.85 1.72.8.79 3.88-1.08 2.75-1.88-.59-6.6-2.07-4.06-4.6zm-7.11 2.66l.1-.24a1.39 1.39 0 00-.06.13c.47-1.38 4.11-1.41 3.67.43 1.38 2.69-5.09 2.33-3.67-.43-.01.04-.03.11-.04.11zm-85.12 17.14c-.58 2.32-.64 5.35-3 6.64-1.26.51-5.38 2.66-4.79-.19 2.04-5.59 10.9-24.73 7.79-6.45zm9.14 27.57s.19-.34.06-.12a4.7 4.7 0 00.29-1.1c.35-1.24-.79-3.67 1-4a1 1 0 011 1c-.08 1.62.61 6.06-2 5.54a1 1 0 01-.35-1.32zm-2-8.6c1.55-.19 2.06 3.4.38 3.46-1.25-.03-1.79-3.29-.36-3.46zm-.1-10.84a1 1 0 01-1.71.71c-.51-.39-.22-2.14-.29-2.68a1 1 0 012 0zm15-13.46c-2 5.31-10.24-2.1-6.15-5 1.57-2.45 7.05 2.74 6.19 5zm-1.12-17c-1.79-2.65-3.14-7.47-.27-9.8 1-.57 3.14-.94 3.52.44.84.51.14 1.44-.06 2.13 1.54-1.7 6.21-5.35 7.16-1.5-1.36 3.39-6.67 9-10.31 8.74zm17.61 19.65c-.28 4.89-5.05 10-4.83 1.76.41-.92-1.25-9 1.72-7 1.97 1.21 4.21 2.71 3.15 5.25zm16.72 11c-2.92 3.11-6.75.07-4.58-3.62 1.72-4.45 1.28-9.32 0-13.81 3.1-4.61 3.6 10.4 2.53 12.09 2.28.27 3.28 3.79 2.09 5.39zm.4-19.32c-1.23.69-1.57-1.21-2.51-1.49a4.56 4.56 0 00-3 .16 1 1 0 01-1.23-.7c-.14-1.92 3-1.68 4.29-1.52s4 2.25 2.49 3.6zm20.64-4.83a27.73 27.73 0 002.66-9.43c.42-1.4 2.41-.54 1.89.78-1 4.88-.28 14.1-6.81 14.81-3.22-1.47 1.35-4.54 2.3-6.11zm-6.48 14.31c.68-1.17 1.27-4 3.05-3.46.83.47.38 1.34.07 2-.53 2.07.66 4.9-1.3 6.44-2.96 1.2-2.72-3.32-1.82-4.98zm-5.74 19.38c-3.53.72-1-8.34 1.64-7.25 3-2.4 6.51 1.89 2 3-1.61.88-1.82 3.42-3.64 4.25zm19.45 33c1.91-.19 4.64 2.31 4.15 4.37-.88 1.66-3.87 5.11-5.79 3.62-.99-1.18-.87-9.56 1.64-7.99zm3.64 26.61c-2.57 1.28-1.34-2.58-2.08-3.73-.83-.77-2.19-1.13-2.33-2.42s.43-4.33 2.13-4c3.62.86 6.06 7.7 2.28 10.16zm8-10.24c-1.26 1.42-3.25-1-4.12-2-1.37-3.48 3.76-2.26 4.19.07a1.7 1.7 0 01-.08 1.94zm20.82-20.59c.56-.86 2.19-1.93 2.85-.65 6.15-1.13-5.59 7.87-2.86.66zm-3.7 4.32c1.42-2 4 .2 2.72 2.16-1.06 1.53-3.14-.94-2.73-2.15zm-.14 4.61a1.06 1.06 0 011.73 1c.81.76.67 2.59-.74 2.29a2.51 2.51 0 01-1-3.28zm-2.74-1.57c1-2.12 3.07-.1 1.52 1.36-1.26 2.04-3.96-.21-1.53-1.35zm10.55 10.62c-2.84 2-4.38 5.62-7.38 7.39-3.54-.08-.47-4.2 1.11-5.13.85-6.61 8.94-4.88 6.26-2.25zm25.83 7.89c-1.44 4.25-7.51 3.06-3.64-.91 1-.36 1.72-2.2 2.84-1.25 1.08.07 1.33 1.37.83 2.17zm12.77 12.63c-1 1.33-2.43-.4-3.22-1.12-2.54 1.78-2.89-4.64-.49-4.44 1.42-.7 1.53 1.29 1.5 2 .05 1.53 2.89 1.93 2.2 3.57zm6.46 2.64c-.51 1.49-2.31.36-2.39-.79.19-1.89 2.71-.62 2.38.8zm1.64-.68a1.59 1.59 0 01-.06-2.52l-.14.1.2-.15h-.06c1.63-1.4 6.65 2.78 2.68 2.65a1.87 1.87 0 01-2.63-.07zm4.1 2.49a.82.82 0 01-.12.2c.17 1.86-2.68 1.24-2.56-.32-.26-1.77 3.35-1.68 2.67.13zm11.93.4c-1.6 1.84-2.73-1-.88-2 1.48-1.06 2.34 1.26.87 2.01zm8.13 13c-.54 1.19-2.31.44-2.81-.44a1 1 0 011.67-1.07c.59.21 1.55.57 1.14 1.49zm2.92-1.71c-.88 1.24-2-.17-2.55-1a12.32 12.32 0 00-1.36-1.28l.06.06a1.89 1.89 0 00-.75-.4 1 1 0 01-.93-1.48c1.69-2.18 7.53 1.3 5.52 4.08zM475.34 1499.37c-2.27-3.7-1.1-8.95 3.37-10.21-.22-17.2 3.59-34.11 2.67-51.35-2.52 2.29-6.88 4.34-7.54 7.85 5.28.12 7.26 6 4.27 10-2.71 4.16-8.7 7.26-8.18 12.88 2.86-.42 4.88-2.59 7.22-3.92 5.25 2.58-2.44 8.24-6.06 8.88 1.25 1.8 3.43 1.78 5.33 2 4.11 8-13.19 18.42-1.05 24zM683.54 1373c-1.39-19 0-38.22-2.86-57.16-7.31 2.07-4.35-4.53-.93-7.36-1-8-2-15.91-2.3-23.93-10.58 2.82-5.29 13-3.87 20.21 1.31 5.54-15.48 22.85-.35 15.94a9.22 9.22 0 01-7.11 10.09c-1 4.31 7 6.36 6.55 10.75-.84 4.73-15.37 13.58-9 17.83 4.54-11.2 18-8.19 12.31-.3-10.14 3.49-.58 4.69-.43 9.4-1.56 2.92-5 5.1.58 5.5 7.95 2.07.67 15.46 9.06 17.15q-1.09-9.05-1.65-18.12zm-9.19-37.76a1.45 1.45 0 01-.15-2.9c1.49-.62 4.45 2 1.95 2.6-.41.67-1.15.24-1.8.3zm2.77 9.1c-.48 2-2.48.73-2-1 .49-1.96 2.49-.72 2 1zm.46-15.3c-2.84 1.82-2-6.12.46-3.94 1.96.35.29 3.04-.46 3.9zm5.79 46.35c-.75 1.15-2-.07-2.87-.5-2 3.79-3.42-3.92.13-2.24.91.79 3.37 1.15 2.74 2.74zM624.75 1542.09c-13.2-13.3-21.86 8.71-32.28 5.13-4.78-3.54-9.74-6.61-15.74-7.81-5-1.8-9.85-1.2-12.6 3.39-7.5 4.3.76-11.09-2.28-17.57-3.05 2.35-3.84 7.1-7.32 8.75-8.75 2.71-15.53-8.83-15.38-16.5 1.63-10.48-3.53-9-6.88-16.56l-6-14.05c-10.73-23.59 24.75-15 20.37-5.45 2.84 3.48 7.88 3.73 10.24-.22 2.67-4.48 21.87-6.71 15.4-13.6-5.73 1.12-10 7.24-16.1 8.07-5 1.14-11.22-1-12.53-5.91a30.73 30.73 0 0013.21 1c-8-7.49-9-5.78-17.84-7a5.9 5.9 0 00-6.42-3.51c-6.42-.53-11-7.46-16.78-9.53 5 34.3 12 68.23 16.39 102.68 8.49 5.43 16.73-8.78 6.09-11.37a40.77 40.77 0 0115.45-2.2 15.05 15.05 0 003.07 17.14c24.22-16 30 1.7 46-7.2a4.73 4.73 0 01.69-.86c-4.86-.22 7.51-8.54 7.89-5.67a1 1 0 011 1.43c4.14-2.1 14.28 6.61 12.35-2.58zm-100.51-80a1 1 0 01.7-.66 1.06 1.06 0 011.29-1.16c1.91 1.32 6.42 1.9 6.64 4.34.44 1.25-1.29 2-2.29 1.57-1.77 1.69-5.31-.6-5.54-2.84a1 1 0 01-.8-1.25zm8.26 61.73c-.52-1.48-2.41-12 .11-11.37 5.44.85 3.16 14.94-.11 11.37zm7.65 24.35c.27 1.68-3.12 5.82-3.52 2.52a2.85 2.85 0 00-.7-2.4c-4.17-3.61 4.23-4.13 4.22-.12zm.61-14.85c-.23.68-1.07.64-1.65.62-1.25 1.26-2.93-1.3-2.89-2.51.42-2.36 5.04.17 4.54 1.89zm29.83 14.21c-1.28 1.8-8.7 7.7-9.56 3.91.32-2.27 2.3-4.83 4.7-4.8 1.27-.79 6.15-1.89 4.86.89z" fill="#314251" opacity=".6"/><path d="M549.52 1428.26a25.4 25.4 0 00.6 7.41l1.61 8.86a5.8 5.8 0 001.21 3.09 4.37 4.37 0 004.27.81c1.47-.39 2.8-1.19 4.24-1.65a1.94 1.94 0 011.55 0c.69.39.73 1.34.94 2.1.64 2.31 3.31 3.37 5.68 3.67s4.94.22 6.94 1.54a11.18 11.18 0 012.87 3.17l4.7 6.73c1.25 1.81 2.79 3.78 5 4 3.08.27 5.34-3.11 8.4-3.61-1.57-2.53-5.54-1.65-8.13-3.13a9.55 9.55 0 01-2.3-2.1l-6.84-7.76a14 14 0 019.91 1.2c1.7.9 3.3 2.18 5.22 2.33 1.64.14 3.21-.59 4.82-.9a10 10 0 017.73 1.76 15.16 15.16 0 00-10.84-6.81c-2.39-.32-4.87-.11-7.19-.8a19.18 19.18 0 01-6.25-3.76 1.2 1.2 0 01-.46-.54c-.2-.59.48-1.06 1.05-1.29a21 21 0 014.46-1.19 11 11 0 003.32-.78 2.77 2.77 0 001.67-2.72c-.26-1.54-2.14-2.18-3.7-2.18a11.72 11.72 0 00-10.66 7.19c-.52 1.29-.83 2.73-1.8 3.73-1.7 1.78-4.73 1.41-6.84.13s-3.73-3.26-5.79-4.61-5-2-6.9-.41c-.18-2.57 1.54-4.83 2.68-7.14s1.52-5.59-.6-7l-2.81 4.3c-.53.81-1.27 1.72-2.23 1.61a2.57 2.57 0 01-1.41-.9 50.54 50.54 0 01-3.75-4.26M577.18 1495.05l-4.79-.34a8.43 8.43 0 00-2.88.12 2.9 2.9 0 00-2.08 1.83 4 4 0 01-.33 1.15 2 2 0 01-1.64.66 39.06 39.06 0 01-8.23-.29c-.55-.07-1.27-.07-1.47.45s.55 1.11 1.19 1.31l9.48 3a6.8 6.8 0 002.55.45 2.3 2.3 0 002-1.38c.27-.82-.06-1.83.5-2.49a1.94 1.94 0 011.13-.54c2.29-.43 4.69.42 7-.16.85-.22 1.8-1.11 1.29-1.84a1.48 1.48 0 00-.61-.43 9.4 9.4 0 00-2.64-.76M577.65 1515.46a8.36 8.36 0 00-3 1.66 2.87 2.87 0 00-.77 3.14 4.19 4.19 0 001.42 1.45l5.8 4.28a1.87 1.87 0 001 .47c.8 0 1.26-.87 1.74-1.52 1.15-1.55 3.34-2.15 4.29-3.83a.64.64 0 00.11-.46c-.08-.28-.46-.34-.75-.34h-7.11a2 2 0 01-1-.17 1.67 1.67 0 01-.57-.58 6 6 0 01-1-3.66M596.27 1498.33c.24 1.06-.37 2.09-.82 3.09s-.67 2.31.15 3a1.91 1.91 0 002.31 0 4 4 0 001.33-2.06 4.37 4.37 0 00.2-2.5 2.18 2.18 0 00-1.73-1.66M490.78 1395.93a7.85 7.85 0 014.67-10.53c1.49-.42 3.25-.47 4.24-1.65.81-1 .79-2.35 1-3.59s.92-2.66 2.18-2.73c2.06-.14 2.4 3 3.83 4.46a9.21 9.21 0 003 1.64c4.51 2.09 6.57 7.47 6.77 12.44.18 4.5-.69 9.47 1.92 13.14 2.08 2.93 6 4.34 7.58 7.55a3.06 3.06 0 01.37 1.95 3.46 3.46 0 01-1.56 1.94 13.2 13.2 0 01-9 2.28 3 3 0 01-1.53-.5 3.32 3.32 0 01-.94-1.66c-2.69-8.59-2.34-17.89-5-26.49a2.72 2.72 0 00-.87-1.5 2.76 2.76 0 00-1.78-.3 38.14 38.14 0 00-13.66 3.55M686.34 1485.59a1 1 0 01-1.86-.51c-.42-3.69-1-7.78.92-11.21.79-1.44 2.42-2.3 3.6-3.44l-1.68-32.35c-3.17 0-4.47 4-5.41 7-2.25 7.29-7.3 13.4-10.06 20.52a9.8 9.8 0 00-.78 3.23 20.84 20.84 0 00.3 2.7 11.84 11.84 0 01-3.17 9.36c2.64.42 5.09-1.78 6.08-4.26s1-5.24 1.37-7.89a24.64 24.64 0 018.52-15.09c.32 3.66.63 7.31.94 11 .18 2.12.31 4.45-1 6.15-.75 1-1.9 1.63-2.72 2.57-2.43 2.79-1.25 7-.51 10.66 1.27 6.19 1.76 13.81-1.32 18.67 1.46 1.13 3.45-.79 3.78-2.61s.1-3.93 1.41-5.23c3 3.8 2.42 9.38.66 13.92s0 8.83-5.46 13.51c1.82.42 3.33-1.37 4.34-3l6.69-10.41-1.53-29.88a22.89 22.89 0 01-3.11 6.59z" fill="#314251" opacity=".2"/><path d="M752.23 1043c-3.83-55.87-22.88-124.63-22.88-124.63s-14.59-306.95-52.89-331.94c-10.88-7.1-142.29-56.21-142.29-56.21s-2.49 55-82.84 55c-65.08 0-82.1-39.23-86.21-51.38a10.79 10.79 0 01-.75-2.59c-1 .65-100.94 62.69-145.44 89.5C174.2 647.71 192.25 945 192.25 945a619.79 619.79 0 00-3.6 128.12c5.53 68.42-1.88 179.2 14.45 197.94l61-1.5s-5.6-14.35-4.65-27c2.27-30.22 5.53-104.27 15.36-135.22s21.45-88.31 21.45-88.33c.49 23.68.3 42.23-1 50.33-3.6 21.92-31.66 102.78-17.78 133.07-3.34 29.28-5.7 66.94-5.7 66.94S367.4 1295 444.4 1294c137.52-1.66 240.17-35.54 240.17-35.54s-2.28-35.7-5.32-60.52c9.94-22.62-4.2-83.52-17.92-143 17.07 47.16 40.25 126.63 42.46 162.33 1.64 26.39 2.89 34.36 2.89 34.36h58.1s4.48-6.67 5.3-18.89-12.27-108.46-17.85-189.74z" fill="#262521" stroke="#262521" stroke-linecap="round" stroke-linejoin="round" stroke-width="3"/><path d="M676.46 586.45c-10.88-7.1-126-50.1-126-50.1s-13 65.71-99.86 65.43c-65.08-.21-96.8-45.85-100.2-60.24-.5-2.13-86.95 52.41-131.45 79.22 40.48 52.53 58.27 138.09 62.53 172.31 3.82 30.76 19.6 139.48 13.55 184.77.49 23.68 1.51 83.43.18 91.53-3.6 21.92-31.66 102.78-17.78 133.07 1.29 13.58 122.24 24 199.24 23 137.52-1.65 202.59-17 202.6-27.52 9.94-22.62-4.2-83.52-17.92-143-10.68-99.61-24.71-184.17-20-247.4 11.34-150.23 62.07-203.52 35.11-221.07z" fill="url(#a)"/><path d="M364.37 531.26h0s.01-.03 0 0z" fill="#262521" stroke="#262521" stroke-linecap="round" stroke-linejoin="round" stroke-width="3"/><path d="M271.71 1269.38S367.4 1295 444.4 1294c137.52-1.66 240.17-35.54 240.17-35.54" fill="none" stroke="#636363" stroke-linecap="round" stroke-linejoin="round"/><path d="M679.25 1198c9.94-22.62-4.2-83.52-17.92-143M296.22 1019c.49 23.68.3 42.23-1 50.33-3.6 21.92-31.66 102.78-17.78 133.07M364.37 531.26c-1 .65-100.94 62.69-145.44 89.5C174.2 647.71 192.25 945 192.25 945M729.35 918.39s-14.59-306.95-52.89-331.94c-10.88-7.1-142.29-56.21-142.29-56.21" fill="none" stroke="#262521" stroke-linecap="round" stroke-linejoin="round" stroke-width="3"/></svg>