<svg xmlns="http://www.w3.org/2000/svg" width="1000" height="1550" viewBox="0 0 1000 1550"><path d="M279.44 1264.52L676 1248.13l21.74 262.23c-209.14 38.46-397.55 3.9-397.55 3.9z" fill="#262521" stroke="#262521" stroke-linecap="round" stroke-linejoin="round" stroke-width="3"/><path d="M296.22 1019s-11.62 57.38-21.45 88.33-13.09 105-15.36 135.22c-1 12.66 4.65 27 4.65 27l-61 1.5c-16.33-18.74-8.92-129.52-14.45-197.94A619.79 619.79 0 01192.25 945s-18.05-297.29 26.68-324.24 149.6-93.12 149.6-93.12-.25-.25.72 2.6c4.11 12.15 18.37 50.54 83.45 50.54 80.36 0 75.14-53.15 75.14-53.15s137.74 51.72 148.62 58.82c38.3 25 52.89 331.94 52.89 331.94s19 68.76 22.88 124.63c5.58 81.26 18.66 177.57 17.85 189.79s-5.3 18.89-5.3 18.89h-58.1s-1.25-8-2.89-34.36c-2.47-39.8-31-134-48.07-177.22" fill="#fff" stroke="#262521" stroke-linecap="round" stroke-linejoin="round" stroke-width="3"/><path d="M276.62 723.93c9.09-2.69 17.89-5 26.78-7.69 32.58-8.94 60.49.22 91.69 10.71 56.06 19.35 141 65.72 173.91-1.26 25.31-42.83 25.62-123.12 64.7-157.41-44.08-17.45-105.86-40.65-105.86-40.65 6.23 70.25-148.66 70.8-159.34 0-1 .66-105.06 66.3-149.57 93.11-9.1 5.49-15.6 22.17-20.19 45.26 12.82 7.3 46.74 67.16 77.88 57.93z" fill="#262521" stroke="#262521" stroke-linecap="round" stroke-linejoin="round" stroke-width="3"/><path d="M711 1220.48s30.63-3.83 52.36 0M200.27 1238s30.63-3.83 52.37 0" fill="none" stroke="#636363" stroke-linecap="round" stroke-linejoin="round"/><path d="M285.65 807.61s5.34 199.1 3.83 238.13c-.83 21.49-22 157.14-9.69 184.31 0 13-6.31 43-6.31 43s91 20.68 168 19.75c137.52-1.66 246.39-30.38 246.39-30.38s-6.68-30-7.46-43.63c14.5-25-21.11-173.94-22.91-243.89-1.22-47.59-16.09-167.28-16.09-167.28" fill="#fff" stroke="#262521" stroke-linecap="round" stroke-linejoin="round" stroke-width="3"/><path d="M290.78 1235.11s171.05 37.78 379.51-12.17" fill="none" stroke="#636363" stroke-linecap="round" stroke-linejoin="round"/></svg>