<svg xmlns="http://www.w3.org/2000/svg" width="1000" height="1550" viewBox="0 0 1000 1550"><defs><pattern id="a" width="15.02" height="16.06" patternTransform="matrix(1.35 0 0 1.35 17.16 -4.61)" patternUnits="userSpaceOnUse" viewBox="0 0 15.02 16.06"><path fill="none" d="M0 0h15.02v16.06H0z"/><path fill="#262521" d="M0 0h7.51v16.06H0z"/><path fill="#353b3f" d="M7.51 0h7.51v16.06H7.51z"/></pattern><pattern id="b" width="15.02" height="16.06" patternTransform="rotate(90 8.64 21.65) scale(1.35)" patternUnits="userSpaceOnUse" viewBox="0 0 15.02 16.06"><path fill="none" d="M0 0h15.02v16.06H0z"/><path fill="#262521" d="M0 0h7.51v16.06H0z"/><path fill="#353b3f" d="M7.51 0h7.51v16.06H7.51z"/></pattern><pattern id="c" width="15.02" height="16.06" patternTransform="rotate(22.81 5.4 48.256) scale(1.35)" patternUnits="userSpaceOnUse" viewBox="0 0 15.02 16.06"><path fill="none" d="M0 0h15.02v16.06H0z"/><path fill="#262521" d="M0 0h7.51v16.06H0z"/><path fill="#353b3f" d="M7.51 0h7.51v16.06H7.51z"/></pattern><pattern id="d" width="15.02" height="16.06" patternTransform="matrix(-1.24 .52 .52 1.24 -2.45 11.06)" patternUnits="userSpaceOnUse" viewBox="0 0 15.02 16.06"><path fill="none" d="M0 0h15.02v16.06H0z"/><path fill="#262521" d="M0 0h7.51v16.06H0z"/><path fill="#353b3f" d="M7.51 0h7.51v16.06H7.51z"/></pattern></defs><path d="M533.24 530.89s-63 24.43-84.61 24.43-81.06-23.88-81.06-23.88l-97.08 65.27L456.55 844l188-270.23z" fill="#fff" stroke="#262521" stroke-linecap="round" stroke-linejoin="round" stroke-width="3"/><path d="M438.33 596.5s-16 220.38-7.43 243.18 48.58 21.63 48.52-6.35-3.55-27.22-18.42-236.83z" fill="#262521"/><path d="M460.74 560.29c-7.17-2-35.63 2.42-34.6 11.8 3.25 9 6.92 33.57 18.84 32.93 5.33-.43 14.27 2.31 16.56-4.12 3-11.25 16.25-30.67 3.35-39.21" fill="#262521"/><path d="M380.31 506.87s26.26 38.43 66.82 48.45l-69 73.32s-27.26-75.45-18.66-92.11a148.1 148.1 0 0120.84-29.66zM518.12 506.87s-15.39 39.69-67.8 48.45l69.95 73.32s30.78-73 22.18-89.66-24.33-32.11-24.33-32.11zM700.91 1226.11l3.44 22s50.26 9.39 64.93-5.41c3.48-3.51 0-31.27 0-31.27zM197.89 1262.79l3.44 22s50.26 9.39 64.93-5.41c3.48-3.51 0-31.27 0-31.27z" fill="#fff" stroke="#262521" stroke-linecap="round" stroke-linejoin="round" stroke-width="3"/><path d="M279.65 1299.64l-.52-25.49s-77.8 10.66-84.32 2.58c-3.21-4-.51-133.66-6.16-203.57-5.53-68.42-14.45-425.45 30.28-452.4 25.87-18.74 131-90.37 131-90.37 8.9-18.85 35.45-26.36 35.45-26.36l-.28 6.84s-6.58 4.32-5.6 16.15c1.19 14.54 46.06 196.43 66.09 292.48C468.29 724.58 519.5 552.79 527 530c1.15-15.52-13.16-25.65-13.16-25.65-.21-2.17 26.27 6.59 40 26 37.16 12.65 89.3 34.4 122.62 56.1 38.3 25 71.94 400.7 75.77 456.57 5.58 81.26 29 176.75 28.23 189-.65 9.86-65.76 10.42-90.88 10.27l-9.36-36.6 3 78.56-5.11.62 18 305.53-158.7-1.85-28.9-196.61-25.51 8.65-8.84 196.24-153.94-.22-36.24-296.44z" fill="#262521"/><path d="M279.65 1299.64l-.52-25.49s-77.8 10.66-84.32 2.58c-3.21-4-.51-133.66-6.16-203.57-5.53-68.42-14.45-425.45 30.28-452.4 25.87-18.74 131-90.37 131-90.37 8.9-18.85 35.45-26.36 35.45-26.36l-.28 6.84s-6.58 4.32-5.6 16.15c1.19 14.54 46.06 196.43 66.09 292.48C468.29 724.58 519.5 552.79 527 530c1.15-15.52-13.16-25.65-13.16-25.65-.21-2.17 26.27 6.59 40 26 37.16 12.65 89.3 34.4 122.62 56.1 38.3 25 71.94 400.7 75.77 456.57 5.58 81.26 29 176.75 28.23 189-.65 9.86-65.76 10.42-90.88 10.27l-9.36-36.6 3 78.56-5.11.62 18 305.53-158.7-1.85-28.9-196.61-25.51 8.65-8.84 196.24-153.94-.22-36.24-296.44z" stroke="#262521" stroke-linecap="round" stroke-linejoin="round" stroke-width="3" fill="url(#a)"/><path d="M386.13 504.22s-22.93 2-36.19 26.17C336 555.71 326.68 569 326.68 569l27.62 14.51 30.49-28.94-4.56-36zM519 506.26s21.56.1 38.1 30.09c14 25.31 21.27 36.22 21.27 36.22l-26.87 8.26L520.89 552s3.28-16.94 6.16-24.78c1.53-4.22-8.05-20.96-8.05-20.96z" fill="url(#b)"/><path d="M520.41 551.54l51.84 47.75c-14.62 51.78-62.9 140.12-123.35 224.35l3.77-19.33c17.33-85.53 50.24-200.08 67.74-252.77z" fill="url(#c)"/><path fill="none" stroke="#546068" stroke-linecap="round" stroke-linejoin="round" d="M519.15 739.41h106.49V763H510.89"/><circle cx="444.44" cy="876.06" r="5.63" fill="#262521"/><circle cx="450.06" cy="989.42" r="5.63" fill="#262521"/><path d="M665.34 1085.13h-98a12.1 12.1 0 01-12.07-12.07v-15.46c0-5.33 74.29-7 106.58-3.77M282.66 1059.05c35.53-2.53 88.2-.66 88.2 4.34v15.46a12.1 12.1 0 01-12.07 12.07l-75.41-.64M555.39 534.51l22.93 38.06-26.87 8.26 20.8 18.46c-8 36-61.95 137.88-123.35 224.35" fill="none" stroke="#546068" stroke-linecap="round" stroke-linejoin="round"/><path d="M384.39 548.09l-51.93 52.1C345.84 633.34 414.88 791.63 445.6 820l5-20.82c-24.31-34.92-56.94-198.27-66.21-251.09z" fill="url(#d)"/><path d="M346.5 535.8L326.68 569l24.23 12.94-18.45 18.27s77.1 182.39 107.91 214.2M472 718.61c-19.76 71.6-37.17 140.17-37.17 158.64 0 34.86 13.89 223.23 35.52 329.53" fill="none" stroke="#546068" stroke-linecap="round" stroke-linejoin="round"/><path d="M287.44 1300.46c34.58 3.61 168.66 13.32 182.77-94.59 15.3 112.59 165.77 88.43 204.15 80.37" fill="none" stroke="#4c5760" stroke-linecap="round" stroke-linejoin="round"/><path d="M349.94 530.39c8.9-18.85 35.45-26.36 35.45-26.36l-.28 6.84s-6.58 4.32-5.6 16.15c1.19 14.54 46.06 196.43 66.09 292.48 22.69-94.92 73.9-266.71 81.4-289.5 1.15-15.52-13.16-25.65-13.16-25.65-.21-2.17 26.27 6.59 40 26" fill="none" stroke="#262521" stroke-linecap="round" stroke-linejoin="round" stroke-width="3"/></svg>