<svg xmlns="http://www.w3.org/2000/svg" width="1000" height="1550" viewBox="0 0 1000 1550"><path stroke-width="3" stroke="#262521" stroke-linecap="round" stroke-linejoin="round" fill="#262521" d="M333.04 1233.37h297.15v355.2H333.04zM364.37 531.26h0s.01-.03 0 0z"/><path d="M752.23 1043c-3.83-55.87-22.88-124.63-22.88-124.63s-14.59-306.95-52.89-331.94c-10.88-7.1-142.29-56.21-142.29-56.21s-2.49 55-82.84 55c-65.08 0-82.1-39.23-86.21-51.38a10.79 10.79 0 01-.75-2.59c-1 .65-100.94 62.69-145.44 89.5C174.2 647.71 192.25 945 192.25 945a619.79 619.79 0 00-3.6 128.12c5.53 68.42-1.88 179.2 14.45 197.94l61-1.5s-5.6-14.35-4.65-27c2.27-30.22 5.53-104.27 15.36-135.22s21.45-88.31 21.45-88.33c.49 23.68.3 42.23-1 50.33-3.6 21.92-2.81 193.2-2.81 193.2s83.87 54.51 160.87 53.58c137.52-1.66 231.32-57.66 231.32-57.66s-9.52-144-23.24-203.48c17.07 47.16 40.25 126.63 42.46 162.33 1.64 26.39 2.89 34.36 2.89 34.36h58.1s4.48-6.67 5.3-18.89-12.34-108.5-17.92-189.78z" fill="#262521" stroke="#262521" stroke-linecap="round" stroke-linejoin="round" stroke-width="3"/><path d="M453.25 1316.15c137.52-1.66 231.32-57.66 231.32-57.66M696.08 1590.37l-158.7-1.85-28.9-196.61-25.52 8.68-8.84 196.24-153.94-.22" fill="none" stroke="#636363" stroke-linecap="round" stroke-linejoin="round"/><path d="M374.38 528.62s12.75 107.09 76.95 107.09 74.87-107.56 74.87-107.56" fill="none" stroke="#262521" stroke-linecap="round" stroke-linejoin="round" stroke-width="8.27" stroke-dasharray="1.65 4.96"/><path d="M450 635.85a1.66 1.66 0 010-3.31h1.6a1.68 1.68 0 011.72 1.58 1.65 1.65 0 01-1.57 1.73c-.58 0-1.15 0-1.71.05zm-5-.2h-.16c-.57 0-1.13-.11-1.7-.18a1.67 1.67 0 01-1.43-1.85 1.65 1.65 0 011.85-1.43l1.59.17a1.65 1.65 0 01-.15 3.3zm11.53-.3a1.65 1.65 0 01-.22-3.29q.81-.1 1.59-.24a1.66 1.66 0 01.54 3.27l-1.68.25zm-18-.77a1.74 1.74 0 01-.39-.05c-.56-.13-1.11-.28-1.66-.43a1.66 1.66 0 01.9-3.19c.5.15 1 .28 1.54.41a1.63 1.63 0 011.21 2 1.65 1.65 0 01-1.6 1.26zm24.51-.49a1.65 1.65 0 01-.41-3.25l1.55-.42a1.65 1.65 0 01.91 3.18l-1.64.44a1.48 1.48 0 01-.45.05zm-30.79-1.52a1.66 1.66 0 01-.61-.12c-.53-.21-1.06-.43-1.58-.66a1.65 1.65 0 011.34-3c.48.21 1 .42 1.47.61a1.65 1.65 0 01-.62 3.19zm37.07-.49a1.65 1.65 0 01-.6-3.19l1.48-.61a1.66 1.66 0 011.3 3.05l-1.58.64a1.59 1.59 0 01-.6.11zm-43-2.37a1.72 1.72 0 01-.82-.21l-1.47-.87a1.65 1.65 0 111.73-2.82c.45.28.91.55 1.37.81a1.65 1.65 0 01-.81 3.09zm-19.48-17.62a1.64 1.64 0 01-1.31-.64l-1-1.34a1.66 1.66 0 112.66-2c.32.44.65.87 1 1.3a1.65 1.65 0 01-1.31 2.66zm-3.84-5.37a1.65 1.65 0 01-1.37-.74c-.32-.46-.62-.93-.93-1.4a1.66 1.66 0 112.78-1.8c.29.46.59.91.9 1.36a1.67 1.67 0 01-.46 2.3 1.63 1.63 0 01-.92.28zm100-5.07a1.61 1.61 0 01-.86-.25 1.64 1.64 0 01-.55-2.27l.85-1.4a1.64 1.64 0 012.26-.58 1.66 1.66 0 01.58 2.27l-.87 1.43a1.65 1.65 0 01-1.41.8zm-103.56-.54a1.65 1.65 0 01-1.43-.82l-.84-1.44a1.66 1.66 0 012.87-1.65l.83 1.42a1.65 1.65 0 01-.6 2.26 1.58 1.58 0 01-.8.23zm106.86-5.21a1.56 1.56 0 01-.78-.2 1.65 1.65 0 01-.68-2.24l.77-1.45a1.65 1.65 0 112.93 1.53l-.78 1.49a1.67 1.67 0 01-1.43.87zm-110.08-.58a1.65 1.65 0 01-1.46-.88c-.26-.49-.52-1-.77-1.49a1.65 1.65 0 112.94-1.5l.75 1.45a1.65 1.65 0 01-1.46 2.42zM509.31 590a1.62 1.62 0 01-.7-.16 1.65 1.65 0 01-.79-2.2l.69-1.49a1.65 1.65 0 113 1.39l-.7 1.51a1.65 1.65 0 01-1.5.95zm-116-.59a1.64 1.64 0 01-1.49-.95c-.24-.51-.48-1-.71-1.52a1.66 1.66 0 013-1.38c.23.5.45 1 .69 1.49a1.66 1.66 0 01-.79 2.2 1.63 1.63 0 01-.71.14zM512 583.93a1.63 1.63 0 01-.64-.13 1.65 1.65 0 01-.89-2.16l.63-1.52a1.65 1.65 0 013.06 1.25l-.63 1.54a1.66 1.66 0 01-1.53 1.02zm-121.41-.58a1.66 1.66 0 01-1.52-1l-.64-1.53a1.65 1.65 0 113.05-1.27l.63 1.51a1.65 1.65 0 01-.87 2.17 1.84 1.84 0 01-.64.12zm123.84-5.58a1.53 1.53 0 01-.58-.11 1.65 1.65 0 01-1-2.12l.57-1.54a1.65 1.65 0 113.11 1.12c-.19.52-.38 1-.58 1.57a1.65 1.65 0 01-1.51 1.08zm-126.32-.56a1.65 1.65 0 01-1.54-1.06l-.6-1.56a1.65 1.65 0 113.1-1.16l.58 1.53a1.65 1.65 0 01-1 2.14 1.51 1.51 0 01-.53.11zm128.52-5.69a1.88 1.88 0 01-.52-.08 1.66 1.66 0 01-1-2.1l.51-1.55a1.65 1.65 0 113.15 1c-.17.53-.34 1.06-.52 1.6a1.66 1.66 0 01-1.61 1.13zM385.84 571a1.66 1.66 0 01-1.56-1.11l-.55-1.57a1.65 1.65 0 113.13-1.07l.54 1.55a1.65 1.65 0 01-1 2.11 1.7 1.7 0 01-.56.09zm132.78-5.8a1.84 1.84 0 01-.47-.06 1.66 1.66 0 01-1.12-2.06l.45-1.57a1.66 1.66 0 013.19.9l-.47 1.59a1.64 1.64 0 01-1.58 1.19zm-134.88-.49a1.65 1.65 0 01-1.57-1.15l-.5-1.59a1.65 1.65 0 113.16-1l.49 1.57a1.64 1.64 0 01-1.58 2.15zm136.64-5.89a1.4 1.4 0 01-.41-.06 1.65 1.65 0 01-1.19-2c.14-.53.28-1.06.41-1.58a1.65 1.65 0 113.21.8q-.21.79-.42 1.62a1.65 1.65 0 01-1.6 1.21zm-138.56-.45a1.66 1.66 0 01-1.59-1.19l-.46-1.61a1.65 1.65 0 113.18-.89l.46 1.58a1.66 1.66 0 01-1.13 2 1.88 1.88 0 01-.46.1zm140.14-6a1.5 1.5 0 01-.37 0 1.66 1.66 0 01-1.25-2l.36-1.6a1.65 1.65 0 113.23.71l-.36 1.63a1.66 1.66 0 01-1.57 1.25zm1.38-6.48h-.33a1.65 1.65 0 01-1.29-2l.31-1.61a1.65 1.65 0 113.25.62l-.32 1.64a1.65 1.65 0 01-1.62 1.34z" fill="#b7b6b0"/><path d="M451.57 638.41h-1.7a1.65 1.65 0 11.13-3.3h1.61a1.66 1.66 0 010 3.31zm4.95-.18a1.65 1.65 0 01-.14-3.3c.54 0 1.07-.09 1.6-.15a1.66 1.66 0 11.37 3.29l-1.7.16zm-11.52-.29h-.22c-.57-.07-1.13-.16-1.69-.25a1.65 1.65 0 11.54-3.26l1.58.24a1.65 1.65 0 01-.21 3.29zm18.07-.64a1.66 1.66 0 01-1.62-1.32 1.65 1.65 0 011.28-2l1.56-.36a1.66 1.66 0 11.78 3.22c-.55.13-1.1.26-1.66.37a1.37 1.37 0 01-.36.09zm-24.55-.65a1.63 1.63 0 01-.43 0c-.55-.15-1.09-.3-1.64-.47a1.66 1.66 0 111-3.17c.51.16 1 .3 1.53.44a1.65 1.65 0 01-.42 3.25zm30.91-1.12a1.66 1.66 0 01-1.56-1.11 1.64 1.64 0 011-2.1l1.5-.56a1.66 1.66 0 011.19 3.09l-1.6.59a1.76 1.76 0 01-.55.09zm-37.17-1a1.76 1.76 0 01-.63-.12c-.52-.22-1.05-.44-1.56-.67a1.65 1.65 0 111.34-3l1.47.62a1.66 1.66 0 01-.62 3.19zm43.25-1.6a1.65 1.65 0 01-.74-3.13c.48-.24.95-.48 1.42-.74a1.66 1.66 0 011.58 2.91c-.5.27-1 .53-1.52.79a1.63 1.63 0 01-.76.24zm-49.2-1.27a1.58 1.58 0 01-.81-.21c-.49-.27-1-.55-1.46-.84a1.65 1.65 0 111.69-2.84c.46.27.92.54 1.39.8a1.65 1.65 0 01-.81 3.09zm-5.58-3.53a1.62 1.62 0 01-1-.31l-1.37-1a1.65 1.65 0 112-2.64l1.3 1a1.66 1.66 0 01-1 3zm79.19-17a1.67 1.67 0 01-1.34-2.63c.32-.44.63-.88.94-1.33a1.66 1.66 0 112.72 1.9c-.32.46-.65.92-1 1.37a1.63 1.63 0 01-1.34.66zm-97.59-1.84a1.65 1.65 0 01-1.34-.69c-.33-.45-.66-.91-1-1.37a1.66 1.66 0 112.72-1.89c.31.45.62.89.94 1.33a1.66 1.66 0 01-.37 2.31 1.69 1.69 0 01-.97.28zm101.29-3.65a1.65 1.65 0 01-1.4-2.53l.85-1.39a1.66 1.66 0 012.83 1.72c-.29.48-.59 1-.88 1.42a1.66 1.66 0 01-1.42.75zm-105-1.84a1.65 1.65 0 01-1.4-.77c-.3-.48-.6-1-.89-1.43a1.65 1.65 0 112.82-1.73c.28.46.58.93.87 1.39a1.66 1.66 0 01-1.4 2.54zM507 599.91a1.66 1.66 0 01-1.45-2.46c.27-.48.53-1 .79-1.44a1.65 1.65 0 112.91 1.57c-.26.49-.53 1-.8 1.47a1.65 1.65 0 01-1.45.86zm-111.77-1.84a1.64 1.64 0 01-1.44-.84l-.82-1.46a1.66 1.66 0 012.9-1.6c.26.48.53 1 .8 1.44a1.65 1.65 0 01-.63 2.25 1.72 1.72 0 01-.85.21zM510 594a1.62 1.62 0 01-.73-.17 1.65 1.65 0 01-.75-2.21c.24-.49.48-1 .71-1.48a1.66 1.66 0 013 1.43c-.24.5-.49 1-.73 1.51a1.67 1.67 0 01-1.5.92zm-118-1.79a1.66 1.66 0 01-1.48-.9l-.75-1.5a1.65 1.65 0 013-1.46l.73 1.46a1.65 1.65 0 01-.72 2.22 1.69 1.69 0 01-.72.2zM512.82 588a1.7 1.7 0 01-.66-.14 1.65 1.65 0 01-.85-2.18c.22-.5.44-1 .65-1.51a1.65 1.65 0 013 1.3l-.66 1.54a1.67 1.67 0 01-1.48.99zm-123.64-1.75a1.65 1.65 0 01-1.51-1l-.69-1.52a1.65 1.65 0 113-1.35l.68 1.49a1.65 1.65 0 01-.81 2.19 1.57 1.57 0 01-.67.2zm126.19-4.37a1.66 1.66 0 01-1.54-2.27l.6-1.52a1.65 1.65 0 113.08 1.18l-.6 1.56a1.66 1.66 0 01-1.54 1.06zm-128.85-1.7a1.66 1.66 0 01-1.53-1l-.63-1.54a1.65 1.65 0 113.06-1.25l.63 1.52a1.65 1.65 0 01-.89 2.16 1.63 1.63 0 01-.64.12zm131.17-4.52a1.76 1.76 0 01-.55-.09 1.65 1.65 0 01-1-2.11l.54-1.55a1.65 1.65 0 113.12 1.09l-.55 1.58a1.65 1.65 0 01-1.56 1.09zM384.08 574a1.66 1.66 0 01-1.55-1.07l-.58-1.57a1.65 1.65 0 113.1-1.14l.57 1.54a1.65 1.65 0 01-1 2.13 1.7 1.7 0 01-.54.11zm135.72-4.64a1.69 1.69 0 01-.5-.08 1.66 1.66 0 01-1.08-2.08l.49-1.57a1.65 1.65 0 013.16 1l-.5 1.59a1.64 1.64 0 01-1.57 1.17zm-138-1.6a1.66 1.66 0 01-1.57-1.11l-.53-1.59a1.65 1.65 0 113.13-1.05l.53 1.56a1.65 1.65 0 01-1 2.1 1.7 1.7 0 01-.53.12zM521.71 563a1.41 1.41 0 01-.45-.07 1.65 1.65 0 01-1.14-2c.16-.53.3-1.06.45-1.58a1.65 1.65 0 113.19.88c-.15.53-.3 1.07-.46 1.61a1.67 1.67 0 01-1.59 1.16zm1.73-6.41a1.48 1.48 0 01-.41 0 1.66 1.66 0 01-1.19-2l.4-1.6a1.65 1.65 0 113.21.8l-.4 1.62a1.66 1.66 0 01-1.61 1.22zm1.56-6.45a1.55 1.55 0 01-.37 0 1.64 1.64 0 01-1.24-2l.35-1.6a1.66 1.66 0 113.24.7l-.37 1.63a1.65 1.65 0 01-1.61 1.31z" fill="#7f7e78"/><path d="M475.32 629.33a1.65 1.65 0 01-.78-3.11l1.41-.78a1.65 1.65 0 011.64 2.87c-.49.28-1 .56-1.5.83a1.65 1.65 0 01-.77.19zm-54.52-3.23a1.62 1.62 0 01-1-.32c-.45-.34-.91-.68-1.35-1a1.65 1.65 0 112-2.6l1.28 1a1.65 1.65 0 01-1 3zm60.17-.21a1.65 1.65 0 01-.94-3l1.32-.93a1.65 1.65 0 111.94 2.67c-.46.34-.92.66-1.38 1a1.63 1.63 0 01-.91.26zm-65.25-4a1.62 1.62 0 01-1.12-.44l-1.23-1.16a1.65 1.65 0 012.3-2.38c.39.38.78.75 1.18 1.11a1.66 1.66 0 01-1.13 2.87zm70.48 0a1.61 1.61 0 01-1.25-.58 1.64 1.64 0 01.18-2.33l1.21-1.06a1.65 1.65 0 012.21 2.46l-1.27 1.12a1.71 1.71 0 01-1.08.37zm4.81-4.51a1.69 1.69 0 01-1.16-.47 1.67 1.67 0 010-2.34q.57-.57 1.11-1.17a1.66 1.66 0 012.43 2.25q-.57.63-1.17 1.23a1.64 1.64 0 01-1.22.48zm-79.93-.18a1.67 1.67 0 01-1.23-.55c-.37-.42-.75-.84-1.11-1.26a1.66 1.66 0 112.5-2.17c.35.41.71.82 1.07 1.22a1.66 1.66 0 01-1.23 2.76zm84.33-4.76a1.65 1.65 0 01-1.28-2.7l1-1.26a1.65 1.65 0 012.59 2l-1.05 1.31a1.64 1.64 0 01-1.26.63zm4-5.25a1.65 1.65 0 01-1.35-2.61l.93-1.33a1.65 1.65 0 112.73 1.86c-.32.46-.63.92-1 1.38a1.63 1.63 0 01-1.32.68z" fill="#f4f4f4"/><path d="M481.21 629.64a1.65 1.65 0 01-.91-3l1.32-.9a1.65 1.65 0 111.9 2.7c-.46.33-.93.65-1.4 1a1.69 1.69 0 01-.91.2zm5.3-3.94a1.66 1.66 0 01-1.06-2.93l1.23-1a1.64 1.64 0 012.33.15 1.66 1.66 0 01-.15 2.33c-.43.38-.86.74-1.29 1.1a1.66 1.66 0 01-1.06.35zm-71-1.67a1.64 1.64 0 01-1.08-.4c-.43-.37-.85-.75-1.27-1.13a1.66 1.66 0 112.24-2.44c.39.36.79.72 1.2 1.07a1.65 1.65 0 01-1.09 2.9zm75.87-2.81a1.67 1.67 0 01-1.17-.47 1.66 1.66 0 010-2.34c.38-.39.76-.77 1.13-1.17a1.66 1.66 0 012.4 2.28c-.39.41-.78.82-1.18 1.22a1.66 1.66 0 01-1.17.48zm-80.65-1.76a1.62 1.62 0 01-1.19-.51c-.39-.4-.78-.82-1.16-1.23a1.65 1.65 0 112.43-2.24l1.11 1.18a1.66 1.66 0 01-.05 2.34 1.63 1.63 0 01-1.13.46zm85.1-3.13a1.66 1.66 0 01-1.26-2.72l1-1.25a1.65 1.65 0 012.57 2.07c-.35.44-.71.88-1.07 1.31a1.63 1.63 0 01-1.23.59zm-89.49-1.82a1.66 1.66 0 01-1.28-.6L404 612.6a1.65 1.65 0 112.59-2.06c.34.42.68.85 1 1.26a1.66 1.66 0 01-.22 2.33 1.62 1.62 0 01-1.02.38z" fill="#f4f4f4"/><path d="M528.61 543.07c3.13 6.54-9.88 154.49-45.09 197" fill="none" stroke="#636363" stroke-linecap="round" stroke-linejoin="round" opacity=".95"/><path d="M643.68 572.28s-131.38-57.67-125.92-52.91c16 14-2 157.32-37.23 199.82s163.15-146.91 163.15-146.91z" fill="#262521" stroke="#262521" stroke-linecap="round" stroke-linejoin="round" stroke-width="3"/><path d="M517.76 519.37c16 14-2 157.32-37.23 199.82" fill="none" stroke="#636363" stroke-linecap="round" stroke-linejoin="round"/><path d="M721.27 1593.84c-5.22-69.61-46.11-444.13-46.11-444.13l-229.44-44.63s100.39 377.59 161.56 488.76z" fill="#262521" stroke="#262521" stroke-linecap="round" stroke-linejoin="round" stroke-width="3"/><path d="M445.72 1105.08s100.39 377.58 161.56 488.76" fill="none" stroke="#636363" stroke-linecap="round" stroke-linejoin="round"/><path d="M590.62 523.73c-13-.4-47.9 112.19-103.6 124.89-109.53 25-111.31-114-103.72-133 0 0-55 13-66.19 44.89l-63.58 1009.36s6.79 24.57 115.79 0c74.6-16.81 145.28-509.46 208.42-638 56.99-116.02 25.93-407.73 12.88-408.14z" fill="#262521" stroke="#262521" stroke-linecap="round" stroke-linejoin="round" stroke-width="3"/><path d="M253.53 1569.87s6.79 24.57 115.79 0c74.6-16.81 145.28-509.46 208.42-638 57-116 25.93-407.74 12.88-408.15s-47.9 112.2-103.62 124.9c-109.53 25-111.31-114-103.72-133" fill="none" stroke="#636363" stroke-linecap="round" stroke-linejoin="round"/><path d="M319.25 575.59s30.11 239 75.71 281.19M357.1 598.36s26.46 221 79.41 312.56M418.49 696.59S532.84 822 579.12 644.34" fill="none" stroke="#636363" stroke-linecap="round" stroke-linejoin="round" opacity=".95"/></svg>