<svg xmlns="http://www.w3.org/2000/svg" width="1250" height="1550" viewBox="0 0 1250 1550"><title>s02e02-01</title><path d="M880.5,1043c-3.84-55.87-22.89-124.63-22.89-124.63S843,611.44,804.73,586.45c-10.88-7.1-142.29-56.21-142.29-56.21s-2.49,55-82.85,55c-65.08,0-82.1-39.23-86.21-51.38a11.55,11.55,0,0,1-.75-2.59c-1,.65-100.94,62.69-145.44,89.5C302.46,647.71,320.52,945,320.52,945a619.36,619.36,0,0,0-3.61,128.12c5.53,68.42-1.87,179.2,14.46,197.94l60.95-1.5s-5.6-14.35-4.65-27c2.28-30.22,5.54-104.27,15.36-135.22s21.45-88.31,21.45-88.33c.49,23.68.3,42.23-1,50.33-3.6,21.92-34.82,133.38-20.94,163.66-3.34,29.29.32,57.36.32,57.36s62.52,17.08,139.52,16.15c137.52-1.65,269.68-29.37,269.68-29.37s-1.47-25.34-4.52-50.16c9.94-22.61-4.2-112.56-17.91-172,17.07,47.16,40.24,126.63,42.45,162.33,1.64,26.39,2.89,34.36,2.89,34.36H893s4.49-6.67,5.3-18.89S886.07,1124.28,880.5,1043Z" fill="#262521"/><path d="M850,809.54s-12.61-144-18.53-148.88c-12.12,20.89-77.12,60.82-77.12,60.82s-51.58,11-165.89,7.92c-113.42-3-173.76,3.05-173.76,3.05s-75-28.58-90.87-47.52c0,0-6.6,124.78-6.49,140.89,8.78,17.26,101,48.36,101,48.36l1.12,13.46s108.66,7.23,197.43-2.31,156.27-10.68,156.27-10.68L772,863.17S845.55,830.17,850,809.54Z" fill="#b5a48e"/><path d="M880.5,1043c-3.84-55.87-22.89-124.63-22.89-124.63S843,611.44,804.73,586.45c-10.88-7.1-142.29-56.21-142.29-56.21s-2.49,55-82.85,55c-65.08,0-82.1-39.23-86.21-51.38a11.55,11.55,0,0,1-.75-2.59c-1,.65-100.94,62.69-145.44,89.5C302.46,647.71,320.52,945,320.52,945a619.36,619.36,0,0,0-3.61,128.12c5.53,68.42-1.87,179.2,14.46,197.94l60.95-1.5s-5.6-14.35-4.65-27c2.28-30.22,5.54-104.27,15.36-135.22s21.45-88.31,21.45-88.33c.49,23.68.3,42.23-1,50.33-3.6,21.92-34.82,133.38-20.94,163.66-3.34,29.29.32,57.36.32,57.36s62.52,17.08,139.52,16.15c137.52-1.65,269.68-29.37,269.68-29.37s-1.47-25.34-4.52-50.16c9.94-22.61-4.2-112.56-17.91-172,17.07,47.16,40.24,126.63,42.45,162.33,1.64,26.39,2.89,34.36,2.89,34.36H893s4.49-6.67,5.3-18.89S886.07,1124.28,880.5,1043Z" fill="none" stroke="#262521" stroke-linecap="round" stroke-linejoin="round" stroke-width="3"/><path d="M399.57,1290.39s62.52,17.08,139.52,16.15c137.52-1.65,269.68-29.37,269.68-29.37" fill="none" stroke="#636363" stroke-linecap="round" stroke-linejoin="round"/><path d="M766.38,807.61s10,123.7,16.09,167.28l3.86,80.12" fill="none" stroke="#262521" stroke-linecap="round" stroke-linejoin="round" stroke-width="3"/><path d="M416.83,789.65s5.34,199.1,3.83,238.13" fill="none" stroke="#262521" stroke-linecap="round" stroke-linejoin="round" stroke-width="3"/><polygon points="664.87 842.72 507.65 848.43 500.87 643.64 658.08 638.43 664.87 842.72" fill="#a07e5a" stroke="#916c4a" stroke-miterlimit="10"/><path d="M639.28,731.62C626.77,749,609,764.07,587.67,768.78a71.14,71.14,0,0,1-31.34-.31c-11.17-2.58-21.27-7.64-30.94-13.65-7.08-4.39-14.3-8.56-21.27-13.12l3.54,106.73,157.21-5.71-5.12-154C655.21,704,648.62,718.68,639.28,731.62Z" fill="#e0d194" opacity="0.3"/><path d="M547,749.28c-2.26-1.6.47-5.43.47-5.43,2.66-3.47,10.12-8.5,19.3-2.65l-2,4.32C553.21,736.59,551.54,752.47,547,749.28Z" fill="#262521"/><path d="M546.63,737.62c-2.27-1.6.47-5.43.47-5.43,2.65-3.47,10.11-8.5,19.3-2.65l-2,4.31C552.82,724.92,551.16,740.81,546.63,737.62Z" fill="#262521"/><path d="M582.05,804.14,575.1,682.26s2.84,3.3,3,6.11S584.68,804,584.68,804Z" fill="#262521"/><path d="M569.31,732.32a438.27,438.27,0,0,0-7.51-47.63l-7.71,1.73c5.27,23.36,15.36,85.61,1.83,103.38-.09.13-.18.26-.28.38-.25.31-.53.58-.79.86a4.84,4.84,0,0,1-2.68,1.33c-3.54.43-5.89-2-7.35-3.15,0,0-1.06-1.15-1.76-.41s.38,1.83.38,1.83c3.72,6.77,16.22,6.8,16.22,6.8C569.37,788.43,572.62,766.52,569.31,732.32Z" fill="#262521"/><path d="M631.8,713.12s1-3.58-5.48-5.7c-9.83-4-12.53-19-12.55-19.1-.16-1.06-.4-2.28-.47-3.39l-53.3,9,1.41,7.78,45.45-8.25c1.53,5.36,5.41,14.76,14.14,20-1.88,10-7.76,46.94.75,81.14a34.74,34.74,0,0,0-21.07,10.69c-12.4-5.07-44.23-16.37-57.16-4.8-5.72,5.12-6.87,13.27-3.42,24.22,0,0,3.38,7.39,7.79,6,5.39-1.67,2.26-9.2,2.26-9.2-1.44-4.57-2.54-10.57.4-13.2,7.07-6.32,33.27,1,49.62,8.18a5.27,5.27,0,0,0,6.45-1.82c7.55-10.87,21-10,21.51-9.93a5.27,5.27,0,0,0,5.49-6.8C621.89,759.92,631.7,713.59,631.8,713.12Z" fill="#262521"/><rect x="579.27" y="730.14" width="44.48" height="2.63" transform="translate(-23.89 20.32) rotate(-1.9)" fill="#262521"/><rect x="579.61" y="740.4" width="44.48" height="2.63" transform="translate(-24.23 20.34) rotate(-1.9)" fill="#262521"/><path d="M546.71,675.2c-2.91-1-10.26-9-9.89-9.43,1.26-1.51-.31-4.91-3.51-7.6s-6.83-3.65-8.09-2.15.18,4.58,3.07,7.2c3.28,3.49,12.26,12.68,17.58,14.47,5.55,1.88,9.3,11,9.34,11.08l6.59-4.08C560.54,679.3,553.41,677.46,546.71,675.2Z" fill="#262521"/></svg>