<svg xmlns="http://www.w3.org/2000/svg" xmlns:xlink="http://www.w3.org/1999/xlink" width="1250" height="1550" viewBox="0 0 1250 1550"><defs><clipPath id="a"><path d="M404.44-335.48s61.79,24.3,203.69,19.79S801-351.87,801-351.87L821.08-9.63l-158.7-1.85-28.9-196.61L608-199.41,599.12-3.17,445.18-3.39Z" fill="none"/></clipPath><clipPath id="b"><path d="M486.17,533c-9.83,30.14,17.49,87.22,17.49,87.22l71.16-63.4,70.95,63.4s32.06-53.07,17.43-88.54c49.1,18.66,103.39,37.24,135.76,52.77-12.46,33-20.82,159.94-31.45,188.95s8.32,314.13,8.32,314.13l-367.69-51s3.7-259,1.93-272.3-4.3-15-24.85-50.88S299,660.9,344.28,620.55C399.66,586.72,486.17,533,486.17,533Z" fill="none"/></clipPath></defs><title>s02e08-01</title><g clip-path="url(#a)"><path d="M738.56,18.73a98.8,98.8,0,0,1,6.92-61,12.14,12.14,0,0,1,2.7-4.11c4-3.49,10.75-.43,12.86,4.41s1,10.41-.12,15.57L738.16,77.33a85,85,0,0,1,2.13-35.2c-.75,1.29-2.95.59-3.48-.8s0-2.93.47-4.34a43.63,43.63,0,0,0,1-23.6" fill="#3f3e39"/><path d="M727.15,22a98.72,98.72,0,0,0,.57-61.39,11.87,11.87,0,0,0-2.17-4.42c-3.51-3.94-10.62-1.74-13.3,2.81S710-30.75,710.46-25.49L720.4,80.25a84.82,84.82,0,0,0,2.18-35.19c.59,1.36,2.86.94,3.55-.38s.35-2.91.06-4.37a43.48,43.48,0,0,1,1.91-23.53" fill="#3f3e39"/><path d="M756.75,69.86s11.84-92.76,17.74-93.12S761.7,37.34,756.75,69.86Z" fill="#3f3e39"/><path d="M776.11,34.19l.14,2.37a1.72,1.72,0,0,0,.19.86,2,2,0,0,0,1.18,1.18,1.7,1.7,0,0,0,.86.19l.6-.08a2.37,2.37,0,0,0,1-.57,2.21,2.21,0,0,0,.65-1.58l-.14-2.37a1.67,1.67,0,0,0-.19-.86,2,2,0,0,0-1.18-1.18,1.7,1.7,0,0,0-.86-.2l-.59.08a2.26,2.26,0,0,0-1,.58,2.19,2.19,0,0,0-.65,1.58Z" fill="#3f3e39"/><path d="M771.63,43.38A77.65,77.65,0,0,0,763,59.72a2.23,2.23,0,1,0,4.3,1.19,73.52,73.52,0,0,1,8.2-15.28,2.25,2.25,0,0,0-.8-3.05,2.29,2.29,0,0,0-3.06.8Z" fill="#3f3e39"/><path d="M777.62,52.73l.81,13.44a2.23,2.23,0,0,0,4.46,0l-.81-13.44a2.23,2.23,0,0,0-4.46,0Z" fill="#3f3e39"/><path d="M777.79,53.33l-5.08,15.36A2.23,2.23,0,0,0,777,69.87l5.08-15.35a2.24,2.24,0,0,0-4.31-1.19Z" fill="#3f3e39"/><path d="M695.4-6.31a41.79,41.79,0,0,1,2.47,16.61L702,9.18a27.57,27.57,0,0,1-4.67-15.63l-3.81,1.58c.19.19.24.23.14.12.14.23.16.28.07.15s0-.14,0,.15c0-.18,0-.14,0,.14-.79,2.77,3.52,4,4.31,1.19A4.93,4.93,0,0,0,696.71-8a2.26,2.26,0,0,0-3.81,1.58,31.73,31.73,0,0,0,5.28,17.88,2.25,2.25,0,0,0,4.16-1.13,45.26,45.26,0,0,0-2.63-17.79A2.29,2.29,0,0,0,697-9a2.25,2.25,0,0,0-1.56,2.74Z" fill="#3f3e39"/><path d="M696.44,10A59.15,59.15,0,0,0,699,22.58c.61,1.88,1.47,3.7,2,5.63.29,1.18.36,2.81-.82,3.52a2.25,2.25,0,0,0,1.13,4.16l3.42.26c.65.05,1.3.11,2,.15.28,0,.89,0,1.12.15-.22-.17,0,.35,0,.57a3.37,3.37,0,0,1-1.09,1.82,17.36,17.36,0,0,0-3.42,4.57,15.38,15.38,0,0,0-1.17,5.44c-.18,4,.68,8.14,1.34,12.09q1.14,6.7,2.72,13.33c.66,2.79,5,1.61,4.3-1.19-1.12-4.73-2.09-9.49-2.87-14.29-.64-3.92-1.72-8.46-.66-12.4s5.53-5.55,5.3-9.87a4.67,4.67,0,0,0-3.45-4.43c-2.36-.6-5.07-.48-7.49-.66l1.12,4.16a6.77,6.77,0,0,0,3.17-5.27A13.89,13.89,0,0,0,704.23,24a54.55,54.55,0,0,1-3.32-14,2.29,2.29,0,0,0-2.24-2.23A2.25,2.25,0,0,0,696.44,10Z" fill="#3f3e39"/><path d="M690.69,56.57a35.37,35.37,0,0,0-1,11.13,2.23,2.23,0,0,0,4.46,0l-.41-6.87a2.24,2.24,0,1,0-4.47,0l.42,6.87h4.46a33.44,33.44,0,0,1,0-5.2c0-.4.08-.8.12-1.2h0c0-.1,0-.2,0-.3l.12-.69c.14-.86.33-1.71.54-2.55a2.24,2.24,0,0,0-4.31-1.19Z" fill="#3f3e39"/><path d="M698.29,44l1.8-.08A2.25,2.25,0,0,0,702.28,42a2.22,2.22,0,0,0-1.6-2.45c-3.12-.43-5.76.76-8.29,2.5s-5,3.48-7.47,5.23l3.28,1.33a42.21,42.21,0,0,1-2.61-11.07l-2.23,2.23a4.46,4.46,0,0,1,3.52.86,9.44,9.44,0,0,1,1.31,1.5,3.27,3.27,0,0,0,3.13,1.15c2.16-.48,2.78-2.66,3-4.58a11.15,11.15,0,0,0-1.07-5.85c-.92-2-4.25-1-4.16,1.12a21.68,21.68,0,0,1-.3,5.63,3.21,3.21,0,0,1-.15.53c.09-.22,0,0-.07.08l.1-.11q-.33.3.12,0a.63.63,0,0,1,.74-.11c.49.12.62.11.39,0-.18-.3-.89-.51-1.19-.59a3,3,0,0,0-2.09.27c-1.68.94-2.14,3-1.95,4.81a7.74,7.74,0,0,0,2.49,5,2.29,2.29,0,0,0,3.16,0,2.26,2.26,0,0,0,0-3.16,3.47,3.47,0,0,1-1-1.28,3.19,3.19,0,0,1-.23-1.57c0,.23,0-.09,0-.15,0-.34.07-.05,0-.06l-.11.11-1.63.27c0,.08.36.24.46.29a3.19,3.19,0,0,0,3.07,0,5.27,5.27,0,0,0,2.31-4.07,31.69,31.69,0,0,0,.32-5.92l-4.16,1.13a6.49,6.49,0,0,1,.49,3.29c0,.28-.12.56-.17.84s-.08.27,0,.07c-.28.42-.07.3.62-.36,1.19.51,1.56.54,1.09.12l.08.1c-.29-.32-.51-.69-.79-1a8.75,8.75,0,0,0-7.35-2.84c-1.11.13-2.35.92-2.23,2.24a46.48,46.48,0,0,0,2.76,12.26c.47,1.23,2,2.23,3.28,1.33l6.74-4.71c1.56-1.1,3.78-2.81,5.58-2.56l.6-4.39-1.8.09a2.27,2.27,0,0,0-2.23,2.23A2.25,2.25,0,0,0,698.29,44Z" fill="#3f3e39"/><path d="M690.38,26.69a1.87,1.87,0,0,1-.54.16c-.2.15,0-.23-.05.22a10.15,10.15,0,0,0,0,2.64,3.1,3.1,0,0,0,3.9,2.5,2.21,2.21,0,0,0,1.56-1.56,9.16,9.16,0,0,1,2.78-5.4,2.21,2.21,0,0,0,.57-2.17c-1.4-4.57-4.41-8.27-6.63-12.43a44.12,44.12,0,0,1-4.51-13.42c-.42-2.49-4.46-1.89-4.38.6.26,8.36.54,16.83-1,25.09a2.3,2.3,0,0,0,1.56,2.74,11,11,0,0,1,2.78,1.56c1.48,1.09,3.24-.43,3.36-1.93a34.91,34.91,0,0,0-.84-10.59l-3.73,2.17a26.64,26.64,0,0,1,5.45,5.67l3.06-3.05A6.63,6.63,0,0,1,690.18,16a2.28,2.28,0,0,0-2.74-1.55,2.23,2.23,0,0,0-1.56,2.74,11.06,11.06,0,0,0,5.52,6.12,2.3,2.3,0,0,0,2.7-.35,2.24,2.24,0,0,0,.35-2.7,30.5,30.5,0,0,0-6.15-6.58c-1.7-1.33-4.28-.15-3.73,2.17a30.66,30.66,0,0,1,.67,9.41l3.36-1.93a14.63,14.63,0,0,0-3.84-2l1.56,2.75c1.66-8.68,1.47-17.49,1.19-26.28l-4.38.59a47.94,47.94,0,0,0,4.54,13.69c2.08,4.09,5.23,7.73,6.59,12.16l.58-2.17a13.09,13.09,0,0,0-3.93,7.36l1.56-1.55-.24.07h1.19c.56.89.82,1,.79.23a6.33,6.33,0,0,0,0-.76,7,7,0,0,0-.13-1.36,4.64,4.64,0,0,0-1.57-2.74,3.94,3.94,0,0,0-5.34.19c-2,2.05,1.15,5.21,3.16,3.15Z" fill="#3f3e39"/><path d="M674.76,6.19a240.73,240.73,0,0,1,1.41,28.28c0,4.69-.1,9.38-.23,14.06-.06,2.3-.13,4.61-.2,6.91-.06,1.9.18,4.14-.93,5.8-1.61,2.39,2.25,4.62,3.85,2.25a11.19,11.19,0,0,0,1.48-6.08c.09-2.47.16-4.93.23-7.4.14-4.85.24-9.7.27-14.55a246.55,246.55,0,0,0-1.41-29.27A2.3,2.3,0,0,0,677,4a2.25,2.25,0,0,0-2.24,2.23Z" fill="#3f3e39"/><path d="M748.56-6a406.88,406.88,0,0,1-6.13,47A2.28,2.28,0,0,0,744,43.77a2.24,2.24,0,0,0,2.74-1.56A413.65,413.65,0,0,0,753-6c.21-2.87-4.26-2.86-4.46,0Z" fill="#5e5d57"/><path d="M721.57,14.67a7.2,7.2,0,0,0-.77,4c0,1.57,0,3.15,0,4.72q.07,4.71.25,9.42.36,9.43,1.14,18.83a2.29,2.29,0,0,0,2.23,2.23,2.25,2.25,0,0,0,2.23-2.23q-.74-8.91-1.1-17.83c-.11-2.9-.2-5.79-.26-8.69l-.06-4.46c0-1-.37-2.9.15-3.75,1.5-2.46-2.36-4.71-3.85-2.25Z" fill="#5e5d57"/><path d="M697.26,14.38l.81,12.45a2.27,2.27,0,0,0,3.82,1.58,9.87,9.87,0,0,0,3.57-6.89l-3.81,1.58c1.88,1.45,2.27,3.72,2.14,6-.17,3.17-1.27,6.22-1.21,9.42.11,5.83,3.6,10.77,4.55,16.41l4.31-1.19a67.47,67.47,0,0,0-3.73-13.31c-.75-1.89-1.77-4.18-4.2-4.11a3.53,3.53,0,0,0-2.49,1.2,5.47,5.47,0,0,0-.8,1.22c-.09.19-.18.37-.26.55-.2.41.15.43,1,.08l.8,3a35.42,35.42,0,0,0,4.25-8.64c.76-2.56.74-5.66-1.43-7.53s-5.34,1.27-3.16,3.15c1.17,1,.42,3-.05,4.17a38.42,38.42,0,0,1-3.46,6.6,2.28,2.28,0,0,0,.8,3.05c1.78,1.34,4.11,0,5.06-1.68a3.58,3.58,0,0,0,.4-.81c0-.24.07-.33.16-.26l-1.4.16a12.45,12.45,0,0,0,.93,2.28,67.51,67.51,0,0,1,3.23,12,2.26,2.26,0,0,0,2.75,1.56,2.29,2.29,0,0,0,1.56-2.75c-1-5.83-4.93-11-4.32-17.1.31-3.07,1.35-6.07,1.13-9.18-.19-2.82-1.13-5.72-3.44-7.51A2.27,2.27,0,0,0,701,21.52a5.57,5.57,0,0,1-2.27,3.73l3.81,1.58-.82-12.45c-.19-2.85-4.65-2.87-4.46,0Z" fill="#5e5d57"/><path d="M769.71,42.07a42.74,42.74,0,0,0-3.29,12.36,2.24,2.24,0,0,0,2.23,2.23,2.29,2.29,0,0,0,2.23-2.23c0-.28.06-.55.1-.83-.05.4,0-.11,0-.23.07-.48.15-1,.25-1.44q.26-1.32.6-2.64c.23-.87.5-1.73.79-2.59.16-.46.32-.92.5-1.37.07-.19.15-.39.23-.58s.1-.26.16-.39c-.09.22-.09.2,0,0a2.29,2.29,0,0,0-.8-3,2.27,2.27,0,0,0-3.06.8Z" fill="#5e5d57"/><path d="M508,15.86a98.7,98.7,0,0,0-3.8-61.28,12,12,0,0,0-2.48-4.25c-3.78-3.68-10.71-1-13.07,3.75s-1.54,10.35-.67,15.56L505.37,74.4A84.82,84.82,0,0,0,505,39.14c.68,1.32,2.92.74,3.52-.62s.14-2.93-.25-4.36a43.67,43.67,0,0,1,.22-23.62" fill="#3f3e39"/><path d="M519.19,19.75a98.82,98.82,0,0,1,2.56-61.35,11.83,11.83,0,0,1,2.39-4.29c3.71-3.77,10.7-1.2,13.15,3.48s1.75,10.31,1,15.54L523,78.22A84.61,84.61,0,0,1,522.59,43c-.66,1.33-2.91.79-3.54-.56s-.2-2.92.17-4.36a43.74,43.74,0,0,0-.7-23.61" fill="#3f3e39"/><path d="M487.19,66s-7.09-93.24-13-93.9S483.91,33.27,487.19,66Z" fill="#3f3e39"/><path d="M465.22,29.27,465,31.63a1.72,1.72,0,0,0,.19.86,2.14,2.14,0,0,0,1.18,1.18,1.72,1.72,0,0,0,.86.19l.6-.08a2.23,2.23,0,0,0,1-.58l.35-.45a2.22,2.22,0,0,0,.31-1.12l.26-2.36a2.43,2.43,0,0,0-.65-1.58,1.7,1.7,0,0,0-.72-.47,1.81,1.81,0,0,0-.86-.19l-.6.08a2.29,2.29,0,0,0-1,.58l-.35.45a2.22,2.22,0,0,0-.3,1.13Z" fill="#3f3e39"/><path d="M469.77,40.94a73,73,0,0,1,7.37,15.69,2.3,2.3,0,0,0,2.75,1.56,2.26,2.26,0,0,0,1.56-2.75,77.93,77.93,0,0,0-7.83-16.75,2.23,2.23,0,0,0-3.85,2.25Z" fill="#3f3e39"/><path d="M462.76,47.71l-1.49,13.38a2.24,2.24,0,0,0,2.23,2.23,2.29,2.29,0,0,0,2.23-2.23l1.49-13.38A2.24,2.24,0,0,0,465,45.48a2.29,2.29,0,0,0-2.23,2.23Z" fill="#3f3e39"/><path d="M462.69,49.49,467,65.08c.76,2.77,5.07,1.6,4.31-1.18L467,48.3c-.76-2.76-5.07-1.59-4.3,1.19Z" fill="#3f3e39"/><path d="M548.07-8.24a45.07,45.07,0,0,0-3.5,17.64,2.28,2.28,0,0,0,1.63,2.16,2.36,2.36,0,0,0,2.53-1,31.66,31.66,0,0,0,6.12-17.6c.09-2.08-2.43-2.76-3.81-1.58a4.88,4.88,0,0,0-1.45,4.86,2.26,2.26,0,0,0,2.74,1.56A2.26,2.26,0,0,0,553.89-5c.05.22,0,.06,0-.09,0,.35,0-.22,0,0s.14-.26,0-.11.28-.26.3-.28l-3.81-1.57a27.64,27.64,0,0,1-5.52,15.35L549,9.4A41.72,41.72,0,0,1,552.38-7a2.26,2.26,0,0,0-1.56-2.75,2.3,2.3,0,0,0-2.75,1.56Z" fill="#3f3e39"/><path d="M546.09,8.61a55.64,55.64,0,0,1-4,14c-.92,2.09-1.91,4.26-1.76,6.6a6.79,6.79,0,0,0,3,5.37l1.13-4.16a48.12,48.12,0,0,0-7.31.27,4.62,4.62,0,0,0-3.75,4.22c-.49,4.32,3.91,6.32,4.78,10.2s-.49,8.54-1.33,12.43c-1,4.75-2.24,9.46-3.6,14.12-.81,2.77,3.5,3.95,4.3,1.19,1.28-4.35,2.42-8.75,3.39-13.17.87-3.91,1.9-8,1.93-12a14.38,14.38,0,0,0-.91-5.44,18.93,18.93,0,0,0-3.24-4.78c-.34-.42-1.41-1.91-.79-2.4a3.61,3.61,0,0,1,1.13-.05l2,0,3.43-.08a2.25,2.25,0,0,0,1.12-4.16c-1.12-.76-.82-2.54-.5-3.62.54-1.82,1.46-3.53,2.15-5.3a56.45,56.45,0,0,0,3.17-12,2.31,2.31,0,0,0-1.56-2.75,2.24,2.24,0,0,0-2.74,1.56Z" fill="#3f3e39"/><path d="M549.51,57.17c.08.44.16.87.23,1.31,0,.09.12.81,0,.31,0,.21.05.41.08.61q.14,1.27.18,2.55a32.17,32.17,0,0,1-.24,5.19h4.47L555,60.3a2.23,2.23,0,0,0-2.23-2.23,2.29,2.29,0,0,0-2.23,2.23l-.77,6.84a2.24,2.24,0,0,0,2.24,2.24,2.3,2.3,0,0,0,2.23-2.24A35.15,35.15,0,0,0,553.81,56a2.25,2.25,0,0,0-2.74-1.56,2.29,2.29,0,0,0-1.56,2.75Z" fill="#3f3e39"/><path d="M547,38.7l-1.78-.18V43c2-.18,3.79,1.12,5.44,2.4,2.22,1.71,4.41,3.43,6.62,5.15,1,.77,2.86,1,3.5-.45A45.76,45.76,0,0,0,564.28,38c.16-1.1-.25-2.53-1.55-2.75a9,9,0,0,0-7.87,2.29c-.21.2-.4.42-.59.64a3.36,3.36,0,0,1-.24.29c-.55.49-.11.52,1.32.1.52.31.47.73.32.09a2.43,2.43,0,0,1-.08-.54,6.45,6.45,0,0,1,.7-3.55l-4.16-1.13a28.77,28.77,0,0,0,0,5.49c.17,1.73.59,3.63,2.24,4.57a3.18,3.18,0,0,0,3,.06,1.75,1.75,0,0,0,.48-.27q.56-.3-.84-.3c-.81-.46-1.11-.51-.88-.16.06.11.07.12,0,0s-.05-.09,0,0c0,.35,0-.27,0,.13a3.33,3.33,0,0,1-1.44,2.88,2.26,2.26,0,0,0,0,3.16,2.3,2.3,0,0,0,3.16,0,7.45,7.45,0,0,0,2.61-4.45c.31-1.9.12-4.26-1.74-5.32a3,3,0,0,0-3.21.21c-.46.37.58,0,.78,0a.77.77,0,0,1,.57.34c.06.1.06.09,0,0s-.07-.12,0,0,0,.09-.06-.15a3.34,3.34,0,0,1-.1-.43,24.54,24.54,0,0,1,0-5.75c.22-2.22-3.18-3-4.16-1.13a11.23,11.23,0,0,0-1.32,5.53c.07,1.88.59,4.31,2.7,4.89a3.34,3.34,0,0,0,3.11-.84c.5-.44,1-1.17,1.43-1.49a4.45,4.45,0,0,1,1.56-.73c.2-.05.4-.1.6-.13-.23,0,.08,0,.15,0h.49s.69.08.39,0L560,36.85a42.16,42.16,0,0,1-3.05,11l3.5-.45c-2.5-2-5-3.92-7.52-5.85-2.21-1.7-4.79-3.26-7.69-3a2.24,2.24,0,1,0,0,4.47l1.78.17a2.25,2.25,0,0,0,2.24-2.23A2.29,2.29,0,0,0,547,38.7Z" fill="#3f3e39"/><path d="M558.91,23.2a4,4,0,0,0-5.56-.14,5,5,0,0,0-1.43,2.53,7.75,7.75,0,0,0-.17,1.73c0,.25,0,.48,0,.72,0,.61.09.48.39-.41l1.13-.31.09,0,1.64,2.15a13.55,13.55,0,0,0-3.67-8.12l.57,2.17c1.57-4.32,4.93-7.79,7.2-11.73a48,48,0,0,0,5.24-13.52L560-2.3c-.73,8.78-1.33,17.54-.12,26.3l1.56-2.74a15,15,0,0,0-3.93,1.82L560.88,25a30.18,30.18,0,0,1,1.19-9.35c.5-1.76-1.65-3.67-3.28-2.52a30.49,30.49,0,0,0-6.56,6.17,2.32,2.32,0,0,0-.35,2.7,2.23,2.23,0,0,0,2.52,1,11.05,11.05,0,0,0,6.06-5.58,2.3,2.3,0,0,0-.8-3.05,2.25,2.25,0,0,0-3,.8,6.67,6.67,0,0,1-3.4,3.53l2.17,3.73A27.23,27.23,0,0,1,561,17l-3.28-2.52A35.08,35.08,0,0,0,556.41,25a2.26,2.26,0,0,0,3.36,1.93,10.86,10.86,0,0,1,2.87-1.38,2.32,2.32,0,0,0,1.56-2.75C563,14.5,563.79,6,564.47-2.3c.21-2.51-3.84-3-4.38-.59a44.07,44.07,0,0,1-5.24,13.2c-2.43,4-5.57,7.56-7.2,12a2.21,2.21,0,0,0,.57,2.17,8.59,8.59,0,0,1,2.37,5,2.35,2.35,0,0,0,1.64,2.15,3.11,3.11,0,0,0,4-2.63c.12-.72-.09-1.45,0-2.15.22-1.3.08.12-.48-.51,1.91,2.16,5.06-1,3.16-3.15Z" fill="#3f3e39"/><path d="M567.94,5.88a248.86,248.86,0,0,0-3,29.47c-.23,4.89-.37,9.77-.48,14.66q-.09,3.66-.16,7.33a11.48,11.48,0,0,0,1.23,6.37c1.48,2.46,5.34.22,3.85-2.25-1-1.66-.61-4-.58-5.83,0-2.28.09-4.56.15-6.84.11-4.65.25-9.29.48-13.92a237.49,237.49,0,0,1,2.78-27.8,2.3,2.3,0,0,0-1.56-2.75,2.24,2.24,0,0,0-2.74,1.56Z" fill="#3f3e39"/><path d="M494.78-9.46A415.84,415.84,0,0,0,498.63,39a2.25,2.25,0,0,0,2.75,1.56,2.3,2.3,0,0,0,1.56-2.74,404.43,404.43,0,0,1-3.7-47.28c-.06-2.87-4.52-2.88-4.46,0Z" fill="#5e5d57"/><path d="M521.23,14.82a2.63,2.63,0,0,1,0,1.28c0,.74-.08,1.47-.12,2.2-.09,1.47-.18,2.93-.28,4.39-.21,2.93-.44,5.86-.71,8.78q-.78,8.72-1.95,17.39a2.32,2.32,0,0,0,1.56,2.75,2.26,2.26,0,0,0,2.75-1.56c.85-6.34,1.58-12.7,2.15-19.07q.42-4.62.73-9.26c.11-1.63.21-3.26.3-4.88a7.6,7.6,0,0,0-.61-4.27c-1.37-2.53-5.22-.28-3.86,2.25Z" fill="#5e5d57"/><path d="M545,13.51,543.52,25.9l3.81-1.58a5.48,5.48,0,0,1-2-3.88c-.08-1.55-1.88-3-3.36-1.92a9.86,9.86,0,0,0-4.08,6.84c-.49,3.26.29,6.39.52,9.63.43,6.3-3.87,11.37-5.19,17.32-.62,2.79,3.67,4,4.31,1.18a64.5,64.5,0,0,1,3.8-11.73l.57-1.26a6.25,6.25,0,0,0,.54-1c.32-.38-.14-.41-1.37-.09-.09.06-.05.15.12.28a5.55,5.55,0,0,0,.36.83c.91,1.79,3.16,3,5,1.79a2.3,2.3,0,0,0,.8-3.06,36.69,36.69,0,0,1-3.09-6.78c-.44-1.32-1-3.14.26-4.13a2.23,2.23,0,0,0,0-3.15,2.26,2.26,0,0,0-3.15,0c-2.27,1.76-2.33,4.92-1.71,7.47a35.45,35.45,0,0,0,3.83,8.85l.8-3.06h1.2s.19.43-.11-.19a10.89,10.89,0,0,0-.64-1.33,3.68,3.68,0,0,0-2.22-1.62c-2.51-.57-3.9,1.66-4.78,3.6a69.87,69.87,0,0,0-4.54,13.43l4.31,1.18c1.24-5.59,4.93-10.33,5.35-16.15.23-3.12-.68-6.17-.73-9.28,0-2,.32-4.47,2.07-5.69l-3.36-1.93a9.91,9.91,0,0,0,3.31,7A2.26,2.26,0,0,0,548,25.9l1.45-12.39a2.24,2.24,0,0,0-2.23-2.23A2.29,2.29,0,0,0,545,13.51Z" fill="#5e5d57"/><path d="M471.53,39.2a38.8,38.8,0,0,1,1.61,5.49c.2.9.35,1.8.49,2.71-.07-.46,0,.27,0,.36,0,.24.05.49.08.74,0,.49.08,1,.11,1.48a2.24,2.24,0,0,0,4.47,0,41.22,41.22,0,0,0-2.5-12,2.29,2.29,0,0,0-2.74-1.56,2.26,2.26,0,0,0-1.56,2.75Z" fill="#5e5d57"/></g><polygon points="818.35 1536.17 746.63 1536.17 741.27 1483.56 815.47 1483.56 818.35 1536.17" fill="#fff"/><polygon points="822.02 1596.18 706.1 1596.18 700.74 1543.57 819.13 1543.57 822.02 1596.18" fill="#fff"/><polygon points="480.22 1332.64 414.48 1332.64 406.14 1274.94 471.18 1274.94 480.22 1332.64" fill="#fff"/><path d="M445.18,1596.61l-40.74-332.09s61.79,24.3,203.69,19.79S801,1248.13,801,1248.13l20.1,342.24" fill="none" stroke="#262521" stroke-linecap="round" stroke-linejoin="round" stroke-width="3"/><path d="M408,1042.08s1.13-37,2.7-48.55L317.25,995c.5,7.41-.46,7.69,0,14.66C405.89,1014.37,394.49,1030.79,408,1042.08Z" fill="#262521" stroke="#262521" stroke-linecap="round" stroke-linejoin="round" stroke-width="3"/><path d="M769.61,979.37c.92,3.56,13,53,13,53,.9-1.68-10.51-43.1,80.29-62.69-.18-2.63.91-9.36.73-12.09Z" fill="#262521" stroke="#262521" stroke-linecap="round" stroke-linejoin="round" stroke-width="3"/><path d="M854.35,918.39s-14.59-306.95-52.89-331.94l-.27-.17h.14l-.82-.38c-13.14-7.25-101.08-40.52-131.22-51.85l-6.09-2.36a161.44,161.44,0,0,0-20.21-25S632.78,533,600.67,547.52l-25.48,7.62-17.72-5c-32.19-14.07-52.29-43.49-52.29-43.49a150.21,150.21,0,0,0-19,26.31c-7,4.42-25.42,15.91-46.74,29.19-29.82,18.43-66.44,41-90.57,55.6-2.38,1.37-4.12,2.34-5.06,2.8l.48,0-.35.21C299.2,647.71,317.25,945,317.25,945L478,957.58,421.22,1019l359.5,21.08s-18.38-70.67-4.7-95.28C796.51,908,854.35,918.39,854.35,918.39Z" fill="#fff"/><path d="M854.35,918.39s-14.59-306.95-52.89-331.94l-.27-.17h.14l-.82-.38c-13.14-7.25-101.08-40.52-131.22-51.85l-6.09-2.36a161.44,161.44,0,0,0-20.21-25S632.78,533,600.67,547.52l-25.48,7.62-17.72-5c-32.19-14.07-52.29-43.49-52.29-43.49a150.21,150.21,0,0,0-19,26.31c-7,4.42-25.42,15.91-46.74,29.19-29.82,18.43-66.44,41-90.57,55.6-2.38,1.37-4.12,2.34-5.06,2.8l.48,0-.35.21C299.2,647.71,317.25,945,317.25,945L478,957.58,421.22,1019l359.5,21.08s-18.38-70.67-4.7-95.28C796.51,908,854.35,918.39,854.35,918.39Z" fill="none" stroke="#262521" stroke-linecap="round" stroke-linejoin="round" stroke-width="3"/><path d="M425.34,949c.27,3.93.75,54.27-2.84,54.32-8.93.11-88.63,2-108.49-10.62-2-1.27-1.14-52.15-.15-54.85S424.56,937.61,425.34,949Z" fill="#fff" stroke="#262521" stroke-linecap="round" stroke-linejoin="round" stroke-width="3"/><path d="M762.91,927.9c-.11,3.93,3.87,52.72,7.44,52.38s93.7-15.8,96.06-15.74-8.1-52.11-9.21-54.77S763.22,916.52,762.91,927.9Z" fill="#fff" stroke="#262521" stroke-linecap="round" stroke-linejoin="round" stroke-width="3"/><path d="M410.65,784.81s.94,248-4.76,282.76-9.11,69.92-2.95,213.79c.34,7.77,74.46,54.62,173.46,51.28,4.61-.16,11.23-50.23,11.23-50.23s15.57,50.43,18.34,50.23c131.6-9.58,206.31-47.78,206.31-47.78s-15.89-187.26-40.2-295.6c-11.86-52.84-4.57-215.86-4.57-215.86" fill="#fff"/><g clip-path="url(#b)"><rect x="721.5" y="624.87" width="31.38" height="193.6" transform="matrix(-0.99, -0.13, 0.13, -0.99, 1373.26, 1533.88)" fill="#262521"/><path d="M721.8,813.48c3.58-6.24,9.53-9.51,16.13-11.79l4.7-1.61L756.5,695.36c-3.44-2.89-5.15-17.85-5.83-13.34-1,6.87-11.37,8.06-13.94,8.73-1.79.48-2.68,1.7-3.77,3.14-2.3,3-4.84,4.73-8.48,4.26L708.93,815.58l11.15,1.47A30.79,30.79,0,0,1,721.8,813.48Z" fill="#545350"/><path d="M733.08,755c-.3.08-.61.14-.92.21-.5,4.77-.45,9.61-1.19,14.36-.31,2-3.27,1.95-3.17-.14l.58-13.45-.84.15c-1.1,4.9-2.54,9.73-3.6,14.64-.43,2-3.43,1-3-1a97.37,97.37,0,0,0,1.85-13.16c-1,0-1.93.07-2.89,0s-2.09-.14-3.12-.28l-6,45.32c1.33-1.38,2.43-3,3.63-4.47a17.2,17.2,0,0,1,5-4.61,22.39,22.39,0,0,1,8.28-2.36,22.79,22.79,0,0,1,5.55.14c0-5.9.28-11.78,2.08-17.44.44-1.38,2.89-1.49,3.06.14a102.3,102.3,0,0,1-.17,18.52,33.23,33.23,0,0,1,5.21,2.34l5.63-42.53C743.72,752.14,738.46,753.69,733.08,755Z" fill="#cccbca"/><rect x="610.47" y="556.41" width="33.34" height="166.88" transform="translate(1429.44 1038.65) rotate(160.86)" fill="#262521"/><rect x="651.76" y="520.13" width="33.51" height="94.83" transform="translate(430.84 -276.57) rotate(33.94)" fill="#262521"/><rect x="635.67" y="642.49" width="33.51" height="94.83" transform="translate(353.77 -211.44) rotate(25.07)" fill="#545350"/><path d="M665.21,700.85c-.15.7-.27,1.4-.39,2.1l22.87-48.9-6.92-3.24a51.87,51.87,0,0,1-1.32,10.42A97.61,97.61,0,0,1,673.09,680C670.06,686.83,666.73,693.46,665.21,700.85Z" fill="#8e8c86"/><rect x="532.32" y="705.55" width="33.51" height="94.83" transform="translate(514.03 -178.28) rotate(33.94)" fill="#262521"/><path d="M525.42,758.1,508.7,783l27.8,18.71,6.55-9.73C537.62,780.42,531.88,769,525.42,758.1Z" fill="#545350"/><rect x="414.75" y="808.11" width="33.51" height="163.55" transform="translate(228.72 -78.09) rotate(14.04)" fill="#262521"/><path d="M431.68,957.31a8.57,8.57,0,0,0-1.4.8c-1.67,1.14-3.33,2.71-5.48,2.74-3.27,0-3.81-3.3-3.66-5.88a38.76,38.76,0,0,1,.81-5.63,21.16,21.16,0,0,1-3.53,4.65,1.61,1.61,0,0,1-2.65-.7c-1.81-4.7-.34-10.28-1.81-15-1.87,2.72-3.12,5.87-5.61,8.15a1.62,1.62,0,0,1-1.92.24c-2.57-1.45-3.34-5-3.81-7.67-.1-.55-.17-1.11-.25-1.67l-6.95,27.82,32.51,8.13,3.95-15.82C431.82,957.41,431.76,957.33,431.68,957.31Z" fill="#545350"/><rect x="550.35" y="835.43" width="33.51" height="94.83" transform="translate(937.76 -98.8) rotate(53.4)" fill="#cccbca"/><path d="M594.58,883.31,615.16,868l-20-26.91-15,11.16C582.81,863.29,588.45,873.66,594.58,883.31Z" fill="#8e8c86"/><path d="M561,866.47l-42,31.19,20,26.91,23.88-17.73C561.82,893.41,561.23,880,561,866.47Z" fill="#8e8c86"/><rect x="383.84" y="552.1" width="33.51" height="94.83" transform="translate(1121.63 601.95) rotate(123.94)" fill="#545350"/><path d="M379.86,585.25c-.5-3.84-3.16-7.56-5.65-10.39a47.67,47.67,0,0,0-9.88-8.37,59.25,59.25,0,0,0-7.49-4.14L343.7,581.87l36.18,24.36C376.58,600.12,380.71,591.82,379.86,585.25Z" fill="#8e8c86"/><path d="M412.91,621.17A40.9,40.9,0,0,0,401,617.89c-1.4-.22-2.85-.45-4.26-.79l33.86,22.79,3-4.41C427.06,630.12,420.51,624.8,412.91,621.17Z" fill="#8e8c86"/><rect x="366.24" y="608.94" width="33.51" height="123.57" transform="matrix(-0.87, 0.5, -0.5, -0.87, 1050.05, 1060.09)" fill="#8e8c86"/><path d="M348.77,644.94l14.84,25.72c1.4,2,2.85,3.86,4.41,5.67,1.75,2,4.54,5.18,7,5.51,5.19.67,4.42-7.06,4.56-10.42a7.67,7.67,0,0,1,2.33-5.82,12.76,12.76,0,0,1,5.51-3c3.38-.85,6.9-.45,10.31.16l-31.14-53.93-28,16.19C342.21,631.52,345.38,638.32,348.77,644.94Z" fill="#cccbca"/><path d="M385.73,652.44c3.67,8.39,7.09,16.84,11.06,25.09,7.1,14.75,14.85,29.17,21.78,44l6.51-3.76a160.53,160.53,0,0,0-8.94-15.53A121.85,121.85,0,0,1,409,691.36c-2.09-3.9-3.31-8.19-5.06-12.25a118.84,118.84,0,0,0-13.72-23.5c-5.32-7.2-9.31-15.3-13.66-23.15C379.59,639.13,382.8,645.72,385.73,652.44Z" fill="#262521"/><path d="M404.91,700.91c-4.11-8.12-8.24-16.22-12.13-24.44s-7.22-16.84-11-25.18-7.63-16.31-11.17-24.61c-1.54-3.6-3.11-7.23-4.92-10.72-.83-1-1.69-2-2.6-2.91a1.46,1.46,0,0,1-.16-1.91l-.07-.12-1,.61a29.18,29.18,0,0,1,3.43,6.72c1.8,4.28,4,8.4,6.09,12.55a191.26,191.26,0,0,1,10.32,25,112.71,112.71,0,0,0,4.95,13c2,4.28,4.38,8.43,6.55,12.65,7.21,14.07,14.17,28.27,21.44,42.31l1.25-.73C412.33,715.64,408.64,708.27,404.91,700.91Z" fill="#262521"/><path d="M387.72,709.88c-3.86-8-7.11-16.38-11.05-24.39-3.79-7.7-8.76-14.58-13.74-21.55a135,135,0,0,1-12.79-21.48c-2.95-6.33-5.77-12.72-9.14-18.83l-3.4,2,61.78,107,.72-.42A175.74,175.74,0,0,1,387.72,709.88Z" fill="#262521"/><rect x="412.79" y="715.86" width="25.46" height="73.95" transform="translate(1101.5 1292.17) rotate(158.06)" fill="#262521"/><rect x="735.99" y="514.32" width="33.51" height="107.6" transform="translate(445.52 -323.5) rotate(33.94)" fill="#262521"/><path d="M722.81,597.18c2.7-6.49,6.89-12.2,10.84-18s8-11.86,11.67-18A75,75,0,0,0,754,542.39a41.18,41.18,0,0,0,1.37-8.11L708.8,603.4l12.07,8.13A26.19,26.19,0,0,1,722.81,597.18Z" fill="#545350"/><rect x="718.58" y="580.8" width="31.38" height="112.25" transform="translate(1686.71 442.79) rotate(127.54)" fill="#5e5e5b"/><path d="M702.93,598.06c3.9,4.49,7.71,8.83,12.52,12.39,5.78,4.26,11.94,8,17.82,12.13s11.58,8.33,17.1,12.85a1.6,1.6,0,0,1-.7,2.65c-3.92.85-8.06-1.52-11.37-3.34a124.64,124.64,0,0,1-12.24-7.3c-2.44-1.72-4.92-3.43-7.28-5.26s-4.55-3.75-7-5.41c-.4-.28-.8-.51-1.2-.74a102.34,102.34,0,0,0,10.08,8.84c4.74,3.53,10.93,6.74,13.35,12.45a1.62,1.62,0,0,1-1.37,2.39c-6.2.39-11.77-3.87-16.31-7.58-2.41-2-4.69-4.13-7.13-6.07a27,27,0,0,0-4.65-2.94c5,6.29,11.82,11.11,18.44,15.44,4.23,2.76,8.48,5.48,12.73,8.21a74.05,74.05,0,0,0,9.93,5.5c-2.55-3.06-5.3-6.07-6.25-9.92a1.61,1.61,0,0,1,1.11-2c5.42-.74,9.31,3.38,13.54,6.22-.23-1.87-1-3.84-1-5.58a1.59,1.59,0,0,1,1.17-1.53c4.76-1,8.92-.21,11.93,3.83,1.71,2.3,2.7,5,4.37,7.35,1.8,2.5,4,4.69,5.66,7.25a1.6,1.6,0,0,1-1.37,2.39c-4.49.25-8.16-2.47-12.11-4.23,1.78,3.39,6.83,5.68,9.73,7.22a78.23,78.23,0,0,1,8.31,5.26l.68-.89a70.7,70.7,0,0,1-4.88-11.07,28.76,28.76,0,0,0-4.43-8.21c-1.06-1.46-2.07-3-3-4.52l-69.76-53.6-1.78,2.32A40.64,40.64,0,0,1,702.93,598.06Z" fill="#8e8c86"/><rect x="766.12" y="751.48" width="31.38" height="112.25" transform="translate(1898.56 679.77) rotate(127.54)" fill="#262521"/><path d="M738.63,792.54c6.61,1.86,11.75,7.93,18.24,9.88-6.66-7.82-16-13.14-22.14-21.48-.89-1.19.58-2.59,1.79-2.33,4.52,1,7.33,5.93,11.6,7.22-1.41-3.22-3.79-6-4.68-9.49a1.59,1.59,0,0,1,1.53-2c3.67.28,6.29,2.16,8.64,4.45-.16-.19-.32-.38-.47-.58-2.84-3.68-5.73-8-5.06-12.84a1.6,1.6,0,0,1,2.33-1c2.69,2,5.27,4.11,8.08,5.93.83.53,1.73,1.09,2.67,1.6l-14.29-11-19.12,24.88,9.31,7.16A1.65,1.65,0,0,1,738.63,792.54Z" fill="#545350"/><rect x="532.98" y="528.17" width="33.51" height="94.83" transform="translate(1334.25 709.93) rotate(143.4)" fill="#262521"/><path d="M566.08,596a22.1,22.1,0,0,0-2.37,6.52,9.88,9.88,0,0,0,2.45-3.36,71.79,71.79,0,0,0,2.86-6.62c1-2.51,2.44-4.8,3.51-7.28a26.67,26.67,0,0,0,1.55-4.94l-3.71-5c.33,4.34.42,8.67-.86,12.9A56.72,56.72,0,0,1,566.08,596Z" fill="#cccbca"/><rect x="529.61" y="618.99" width="33.51" height="208.12" transform="translate(1416.1 977.78) rotate(143.4)" fill="#262521"/><path d="M512.71,704.83c1.2.56,2.91,1.3,4.14.44,1.8-1.25,2.1-4.65,2.32-6.57a51.85,51.85,0,0,0,.11-9.07c-.26-4.22-1.08-9.12,1.06-13,1.72-3.12,5-4.6,8.43-5.37l-31-41.73-26.9,20,40.63,54.72C511.91,704.43,512.3,704.64,512.71,704.83Z" fill="#545350"/><rect x="673.7" y="843.96" width="33.51" height="94.83" transform="translate(236.81 -140.85) rotate(14.04)" fill="#545350"/><path d="M702.31,845.46l-16.61-4.15L675,884C685.6,872.09,698.49,860.52,702.31,845.46Z" fill="#8e8c86"/><rect x="727.86" y="907.6" width="33.51" height="94.83" transform="translate(-302.89 347.36) rotate(-21.94)" fill="#262521"/><rect x="518.62" y="513.29" width="33.51" height="157.77" transform="translate(548.5 1390.38) rotate(-138.83)" fill="#8e8c86"/><path d="M509.34,634.45a63.7,63.7,0,0,0,3.42-6.15,1.53,1.53,0,0,1,.09-1.66c2.39-3.49,4.13-4.06,4.1-8.71-7.43,3.9-10.11,6.86-17.57,10.63-.75.93-1.49,1.86-2.17,2.85-1.21,1.76-2.25,3.62-3.36,5.45-2.15,3.51-4.85,7.67-9.05,8.88-1,.3-2.51-.41-2.17-1.71,1.05-4,3.75-7.24,6.24-10.46,1.54-2,3.15-3.93,4.83-5.81,3.88-7.73,8.23-15.26,11.35-23.34.63-1.62,1.16-3.26,1.64-4.9l-35.86,41,15.77,13.79c2.69-2.78,5.62-5.34,8.45-7.74,3.79-3.22,7.7-6.28,11.46-9.53C507.48,636.2,508.42,635.33,509.34,634.45Z" fill="#262521"/><path d="M583.55,529.51a245.28,245.28,0,0,1-17.7,33.8c-7,11.34-14.58,22.29-22.2,33.21-7.9,11.32-15.82,22.45-25,32.77a110.29,110.29,0,0,1-10.75,10.76c-3.8,3.25-7.73,6.33-11.53,9.58-2.43,2.09-5,4.33-7.37,6.76l7.09,6.2L599.93,543.83Z" fill="#262521"/><rect x="557.47" y="515.58" width="33.51" height="94.83" transform="translate(1057.45 -79.81) rotate(82.5)" fill="#cccbca"/><rect x="426.38" y="590.24" width="33.51" height="94.83" transform="translate(311.92 -127.69) rotate(25.07)" fill="#262521"/><path d="M468.11,612.06c-2.77.17-4.27,2.26-5.22,4.7-2,5-.75,10.77,1.18,15.7l9.15-19.57A12.85,12.85,0,0,0,468.11,612.06Z" fill="#545350"/><rect x="424.61" y="665.6" width="33.51" height="99.65" transform="translate(1242.48 460.75) rotate(104.04)" fill="#cccbca"/><path d="M473.9,719.24c5.72,1.23,11.74,1.07,17.64,1l2.23-8.94L397.1,687.08l-1.77,7.1a42.27,42.27,0,0,1,10.28,2.13c3.87,1.2,7.77,2.19,11.68,3.27A97.15,97.15,0,0,1,437.77,708c4.7,2.53,11.7,4.13,17.77,6C461.91,714.88,467.64,717.89,473.9,719.24Z" fill="#8e8c86"/><path d="M429.19,715.55a37.4,37.4,0,0,1-15.13-3.83c-6.7-3.48-12.85-9.56-20.25-11.47l-1.16,4.64c.94.73,1.82,1.57,2.65,2.36,2.58,2.44,5.68,4.24,8.49,6.42,4.5,3.49,8.77,7.53,11.52,12.51l13.3,3.33c1.84-2.19,3.46-4.61,5-6.8.89-1.24,3.62-3.89,3.45-5.5C436.82,714.66,430.79,715.63,429.19,715.55Z" fill="#8e8c86"/><path d="M428.61,716.6a42.9,42.9,0,0,1-4.39.12c-6.54-.06-12.38-2.61-18.13-5.53-4.32-2.19-8-7.22-13.18-7.36l-.24,1c2.28,1.26,4.1,3.46,6.16,5,2.88,2.12,6.06,3.81,9.11,5.65,4.79,2.89,9.25,6.37,11.12,11.69l3,.74c1.62-2.48,3.44-4.82,5.09-7.3.55-.83,1.08-1.67,1.55-2.54.18-.32.35-1,.56-1.47Z" fill="#262521"/><path d="M483.46,721a63.38,63.38,0,0,0-18.39,2c-6,1.56-18.22-.74-23.78,1.87-2.54,1.19,1.76,7-.91,7.59l45.26,11.32,5.5-22A56.53,56.53,0,0,0,483.46,721Z" fill="#8e8c86"/><rect x="398.82" y="508" width="33.51" height="144.03" transform="translate(528.97 -124.45) rotate(44.77)" fill="#262521"/><path d="M360.81,627.12a17.94,17.94,0,0,0,3.69-2.66c3.41-3.27,4.6-8.71,3.84-13.29a13.47,13.47,0,0,0-2.1-5.21L353,619.34Z" fill="#545350"/><path d="M439.72,699.4c7.31,3.16,14.64,6.23,21.82,9.7,7,3.37,14,7.26,21.69,8.88a45.21,45.21,0,0,0,8.21.55l.51,0,1.82-7.3-64.18-16C433,696.52,436.37,698,439.72,699.4Z" fill="#262521"/><path d="M446,715.54c-2.77-.42-5.52-1.16-8.24-1.84a113.17,113.17,0,0,1-16-5.22c-8.94-3.71-18.11-8.36-27.94-8.33l-.14.59c6.81.65,12.83,5.14,19.19,7.42,4.24,1.51,8.53,2.48,12.89,3.57,4.62,1.15,9.16,2.57,13.88,3.29a1.6,1.6,0,0,1,1,2.33c-2.18,3.18-5.47,5.14-8.22,7.77a14.55,14.55,0,0,0-3.18,4.54l1.44.35a19,19,0,0,1,6.18-7,72.15,72.15,0,0,1,7.77-4.24,56.28,56.28,0,0,0,5.06-2.58A30,30,0,0,0,446,715.54Z" fill="#262521"/><path d="M484.48,729.35c-1.54-.22-3.9-1.11-5.77-1a9.28,9.28,0,0,1,.61.83c.81,1.26-.52,2.57-1.79,2.33-3.19-.59-6.32-2.37-9.33-3.55-1.62-.64-3.26-1.27-4.94-1.77l-.87-.25a33.53,33.53,0,0,0,3.36,2.21c3,1.8,6.1,3.41,9.18,5,1.74.93,4.21,1.84,5.54,3.36a1.6,1.6,0,0,1-1.54,2.65c-6.58-1.76-12.9-4.53-19.64-5.72-2.54-.44-8.58-1.42-10.78,1l37.13,9.29,3.43-13.7C487.56,729.72,486,729.56,484.48,729.35Z" fill="#262521"/><path d="M542.49,573.11c8.81.76,17.61-1.45,26.46-1.41,4,0,7.95.48,11.89,0a73.17,73.17,0,0,0,10.39-2.43A88.66,88.66,0,0,1,606,566.73" fill="#545350"/><path d="M544.07,579.56c7.6-.74,15.5,1.2,22.81-1,3-.92,5.75-2.51,8.72-3.51a47.69,47.69,0,0,1,9.94-1.81l17.12-1.87" fill="#8e8c86"/><rect x="742.63" y="535.96" width="33.51" height="94.83" transform="translate(1708.87 458.92) rotate(135)" fill="#262521"/><path d="M782.39,582.68c-4.35,1.32-9.91,2.17-11,7.32-1.21,5.66,1.74,10.84,5.15,15,3.28,4,6.44,8.32,4.73,13.75a24.36,24.36,0,0,1-3.5,6.68l3.3,3.3,23.7-23.7Z" fill="#5e5e5b"/><path d="M547.1,888a9.47,9.47,0,0,0-2.57,1.2,1.6,1.6,0,0,1-2.17-2.17,110.67,110.67,0,0,0,4.82-10.22L519,897.66l4.54,6.1c3.78-3,8.24-5.22,12.44-7.46a79.55,79.55,0,0,0,8.85-5.25c.94-.68,1.82-1.42,2.69-2.18A1.51,1.51,0,0,1,547.1,888Z" fill="#262521"/><path d="M582.52,856.1c-4.41,2-8.84,4.61-13.62,4.54l-10.21,7.58a1.71,1.71,0,0,1,.5,1.07,9.67,9.67,0,0,1-1.57,5.81c.27-.08.52-.19.8-.25a1.61,1.61,0,0,1,2,1.43,56.74,56.74,0,0,1,10.09-7.55c9.43-5.36,17.88-13.16,27.62-18.11A78.4,78.4,0,0,0,582.52,856.1Z" fill="#262521"/><path d="M536.19,901.76c1.16-1.18,2.21-2.46,3.25-3.74-.92.52-1.86,1-2.82,1.55-3.71,2-7.78,4-11.18,6.7L528.2,910C530.43,906.9,533.51,904.47,536.19,901.76Z" fill="#262521"/><path d="M580.54,869.48c7.8-5.43,14.8-12.46,23.47-16.47l-.86-1.16a80.72,80.72,0,0,0-15.08,8.8c-3.09,2.16-6.13,4.39-9.23,6.53s-6.1,3.79-9.16,5.7a53,53,0,0,0-9.23,7.6C567,876.67,574.26,873.86,580.54,869.48Z" fill="#262521"/><path d="M551.45,895.28q11-6.74,22-13.64c3.85-2.43,7.66-4.93,11.51-7.36,3.54-2.24,7.11-4.32,9.87-7.53a35.42,35.42,0,0,1,12.61-9.18l-1.47-2c-8.86,3.85-15.94,11.16-23.79,16.63-9.54,6.66-21.45,9.57-29.58,18.23a1.44,1.44,0,0,1-2.15,0c-.63.55-1.27,1.09-1.93,1.6a1.48,1.48,0,0,1-.56,2c-4,2.39-6.28,6.67-9.49,9.91C542.73,901,547,898,551.45,895.28Z" fill="#262521"/><path d="M559.47,903c5.62-4.18,10.49-9.49,16.21-13.5-1.46.35-2.9.73-4.32,1.19-5.21,1.71-9.81,5-14,8.51s-8,7.47-11.91,11.28C550.25,908.16,555.19,906.22,559.47,903Z" fill="#262521"/><path d="M539.91,917.15c-1.47.88-2.93,1.79-4.33,2.78l3.44,4.64,9.81-7.29C545.86,917.32,542.87,917.21,539.91,917.15Z" fill="#262521"/><path d="M553.32,914l37.37-27.75h-.05c-1.52.46-3.07.83-4.63,1.18a1.49,1.49,0,0,1-.85.69c-9.6,3.24-16.18,11.82-24.08,17.7-4.28,3.18-9.2,5.08-13.93,7.45-.59.29-1.17.6-1.75.89A72,72,0,0,0,553.32,914Z" fill="#262521"/></g><path d="M410.65,784.81s.94,248-4.76,282.76-9.11,69.92-2.95,213.79c.34,7.77,74.46,54.62,173.46,51.28,4.61-.16,11.23-50.23,11.23-50.23s15.57,50.43,18.34,50.23c131.6-9.58,206.31-47.78,206.31-47.78s-15.89-187.26-40.2-295.6c-11.86-52.84-4.57-215.86-4.57-215.86" fill="none" stroke="#262521" stroke-linecap="round" stroke-linejoin="round" stroke-width="3"/><line x1="558.71" y1="571.16" x2="587.33" y2="1277.94" fill="none" stroke="#636363" stroke-linecap="round" stroke-linejoin="round"/><path d="M627.33,604a29.47,29.47,0,0,0-4.38-3.73,4.17,4.17,0,0,0-.7,2.41,4.27,4.27,0,0,0-2.12,1.49l-1,1.29a4.33,4.33,0,0,0-.91,2.41A4.27,4.27,0,0,0,616,609.2c-.36.4-.72.8-1.09,1.19a3.85,3.85,0,0,1-3.41,3.41l-1.19,1.08a4.2,4.2,0,0,0-1.32,2.17,4.24,4.24,0,0,0-2.39.85c-.42.32-.84.63-1.28.94a3.75,3.75,0,0,1-4,2.57l-1.37.77a3.69,3.69,0,0,1-4.23,2c-.49.21-1,.41-1.46.6a4.17,4.17,0,0,0-2,1.53,4.25,4.25,0,0,0-2.5-.06l-1.51.4a4.23,4.23,0,0,0-2.15,1.27,4.29,4.29,0,0,0-2.47-.39c-.51.08-1,.14-1.56.2a4.2,4.2,0,0,0-2.29,1,4.1,4.1,0,0,0-2.41-.69h-1.59a4.51,4.51,0,0,0-2.41.71,4.26,4.26,0,0,0-2.31-1c-.53-.05-1-.12-1.56-.18a4.17,4.17,0,0,0-2.46.4,4.27,4.27,0,0,0-2.16-1.25l-1.51-.38a4.21,4.21,0,0,0-2.49.08,4.26,4.26,0,0,0-2-1.52l-1.46-.58a3.72,3.72,0,0,1-4.25-2c-.46-.24-.92-.5-1.38-.76a4.23,4.23,0,0,0-2.45-.55,4.32,4.32,0,0,0-1.55-2c-.44-.3-.87-.61-1.3-.92a4.15,4.15,0,0,0-2.4-.83,4.26,4.26,0,0,0-1.34-2.17l-1.2-1.07a3.85,3.85,0,0,1-3.46-3.37c-.37-.39-.74-.78-1.1-1.18a3.9,3.9,0,0,1-3.19-3.68l-1-1.28a3.93,3.93,0,0,1-2.92-3.94q-.48-.67-.93-1.35a4.33,4.33,0,0,0-1-1c-.33.37-5.13,4.53-6.25,5.55.05.09.09.18.15.27.33.49.67,1,1,1.46a4.62,4.62,0,0,1,3.19,4.3c.37.47.74.94,1.12,1.4a4.67,4.67,0,0,1,3.51,4.07l1.24,1.32a4.75,4.75,0,0,1,3.88,3.78q.68.62,1.35,1.2a4.22,4.22,0,0,0,2.67,1,4.28,4.28,0,0,0,1.61,2.38c.49.36,1,.72,1.48,1.06a4.88,4.88,0,0,1,4.64,2.93c.53.31,1.07.6,1.61.89a4.93,4.93,0,0,1,5,2.36c.57.24,1.14.46,1.72.68a5,5,0,0,1,5.26,1.7c.59.16,1.19.31,1.79.45a4.2,4.2,0,0,0,2.87-.33,4.28,4.28,0,0,0,2.56,1.33c.61.08,1.22.15,1.84.21a4.22,4.22,0,0,0,2.8-.69,4.27,4.27,0,0,0,2.7,1h1.83a4.92,4.92,0,0,1,5.49-.36l1.82-.23a4.33,4.33,0,0,0,2.56-1.35,4.26,4.26,0,0,0,2.87.3c.6-.14,1.2-.3,1.79-.46a4.94,4.94,0,0,1,5.25-1.74l1.7-.7a5,5,0,0,1,5-2.4c.55-.29,1.08-.59,1.61-.9a4.86,4.86,0,0,1,4.61-3c.5-.36,1-.72,1.48-1.09a4.18,4.18,0,0,0,1.58-2.38,4.22,4.22,0,0,0,2.65-1.07l1.34-1.22a4.8,4.8,0,0,1,3.85-3.84c.41-.44.82-.88,1.22-1.33a4.64,4.64,0,0,1,3.46-4.12c.37-.47.74-.94,1.1-1.42a4.29,4.29,0,0,0,.87-2.67,4.45,4.45,0,0,0,1.37-.74C628.57,605.28,628,604.64,627.33,604Z" fill="#262521"/><path d="M531.69,605.2l-1-1.34a1.71,1.71,0,1,0-2.74,2c.35.47.69.93,1.05,1.39a1.73,1.73,0,0,0,2.4.31A1.73,1.73,0,0,0,531.69,605.2Z" fill="#b7b6b0"/><path d="M534.87,609.1a1.71,1.71,0,0,0-2.59,2.24c.38.44.77.87,1.16,1.31a1.72,1.72,0,0,0,1.27.56,1.65,1.65,0,0,0,1.14-.44,1.71,1.71,0,0,0,.13-2.41C535.6,609.94,535.24,609.52,534.87,609.1Z" fill="#b7b6b0"/><path d="M527.77,599.74l-.63-.94s-2.54,2.36-2.22,2.84a1.73,1.73,0,0,0,1.43.76,1.79,1.79,0,0,0,.95-.29A1.72,1.72,0,0,0,527.77,599.74Z" fill="#b7b6b0"/><path d="M551.31,623c-.48-.27-.95-.55-1.42-.84a1.71,1.71,0,0,0-1.78,2.92c.5.31,1,.61,1.51.9a1.74,1.74,0,0,0,.85.22,1.71,1.71,0,0,0,.84-3.2Z" fill="#b7b6b0"/><path d="M545.78,619.36l-1.32-1a1.71,1.71,0,0,0-2.12,2.68c.47.37.93.72,1.4,1.07a1.7,1.7,0,0,0,2.39-.35A1.71,1.71,0,0,0,545.78,619.36Z" fill="#b7b6b0"/><path d="M563.48,627.82c-.53-.13-1.06-.26-1.59-.41a1.71,1.71,0,1,0-.92,3.29q.84.24,1.71.45a1.83,1.83,0,0,0,.4.05,1.71,1.71,0,0,0,.4-3.38Z" fill="#b7b6b0"/><path d="M539.45,614a1.71,1.71,0,0,0-2.37,2.46c.42.41.84.81,1.27,1.2a1.71,1.71,0,0,0,2.32-2.51C540.26,614.73,539.85,614.35,539.45,614Z" fill="#b7b6b0"/><path d="M557.23,625.83l-1.52-.64a1.71,1.71,0,1,0-1.38,3.13L556,629a1.71,1.71,0,0,0,1.27-3.17Z" fill="#b7b6b0"/><path d="M601.76,621.75c-.48.28-1,.54-1.45.8a1.71,1.71,0,0,0,.8,3.22,1.66,1.66,0,0,0,.8-.2c.52-.27,1-.56,1.55-.85a1.71,1.71,0,0,0-1.7-3Z" fill="#b7b6b0"/><path d="M595.82,624.69c-.5.22-1,.42-1.53.62a1.71,1.71,0,0,0,.62,3.31,1.75,1.75,0,0,0,.62-.12c.55-.21,1.09-.43,1.63-.66a1.71,1.71,0,0,0-1.34-3.15Z" fill="#b7b6b0"/><path d="M570,628.89c-.55,0-1.09-.11-1.63-.18a1.71,1.71,0,1,0-.44,3.39c.58.08,1.17.14,1.76.2h.16a1.71,1.71,0,0,0,.15-3.42Z" fill="#b7b6b0"/><path d="M583.14,628.35c-.54.09-1.09.17-1.64.24a1.71,1.71,0,0,0,.22,3.41l.23,0c.59-.08,1.17-.16,1.74-.26a1.71,1.71,0,1,0-.55-3.37Z" fill="#b7b6b0"/><path d="M576.55,629c-.56,0-1.11,0-1.65.05a1.71,1.71,0,0,0,0,3.42h0c.58,0,1.17,0,1.76,0a1.71,1.71,0,0,0,1.63-1.79A1.72,1.72,0,0,0,576.55,629Z" fill="#b7b6b0"/><path d="M589.59,626.9c-.52.15-1.06.29-1.6.43a1.71,1.71,0,0,0,.43,3.37,1.52,1.52,0,0,0,.42-.06c.57-.14,1.14-.3,1.7-.46a1.71,1.71,0,1,0-.95-3.28Z" fill="#b7b6b0"/><path d="M617.25,609.29c-.38.41-.76.81-1.15,1.21a1.71,1.71,0,0,0,1.23,2.9,1.67,1.67,0,0,0,1.22-.52c.41-.42.81-.84,1.21-1.27a1.71,1.71,0,0,0-2.51-2.32Z" fill="#b7b6b0"/><path d="M624,603.92a1.7,1.7,0,0,0-2.4.28l-1.05,1.3a1.71,1.71,0,1,0,2.64,2.17c.37-.44.73-.9,1.09-1.35A1.71,1.71,0,0,0,624,603.92Z" fill="#b7b6b0"/><path d="M607.34,618.14l-1.35,1a1.71,1.71,0,0,0,1,3.12,1.7,1.7,0,0,0,1-.3l1.43-1a1.71,1.71,0,0,0-2-2.77Z" fill="#b7b6b0"/><path d="M612.5,614c-.41.37-.83.74-1.25,1.09a1.71,1.71,0,0,0,1.11,3,1.66,1.66,0,0,0,1.11-.41c.44-.37.88-.76,1.31-1.14A1.71,1.71,0,0,0,612.5,614Z" fill="#b7b6b0"/><path d="M531.13,607.66l-1.06-1.31a1.71,1.71,0,1,0-2.67,2.13l1.09,1.35a1.71,1.71,0,0,0,2.64-2.17Z" fill="#7f7e78"/><path d="M570,631.27l-1.64-.25a1.71,1.71,0,0,0-.55,3.38l1.74.26h.23a1.71,1.71,0,0,0,.22-3.4Z" fill="#7f7e78"/><path d="M527,602.32l-1.22-1.72-2.56,2.29,1,1.43a1.73,1.73,0,0,0,1.39.71,1.72,1.72,0,0,0,1.39-2.71Z" fill="#7f7e78"/><path d="M534.44,611.45a1.71,1.71,0,0,0-2.52,2.32l1.2,1.27a1.72,1.72,0,0,0,1.23.53,1.71,1.71,0,0,0,1.24-2.89C535.2,612.27,534.82,611.87,534.44,611.45Z" fill="#7f7e78"/><path d="M557.23,627.88l-1.52-.65a1.71,1.71,0,1,0-1.4,3.12q.81.36,1.62.69a1.68,1.68,0,0,0,.65.13,1.71,1.71,0,0,0,.65-3.29Z" fill="#7f7e78"/><path d="M563.49,630q-.79-.21-1.59-.45a1.71,1.71,0,1,0-1,3.27c.57.17,1.13.33,1.7.48a1.67,1.67,0,0,0,.44.06,1.71,1.71,0,0,0,.44-3.36Z" fill="#7f7e78"/><path d="M545.66,621.45l-1.35-1a1.71,1.71,0,1,0-2.06,2.73c.47.35.94.7,1.42,1a1.67,1.67,0,0,0,1,.32,1.71,1.71,0,0,0,1-3.1Z" fill="#7f7e78"/><path d="M576.58,631.73c-.56,0-1.11,0-1.66,0a1.71,1.71,0,1,0-.14,3.42c.58,0,1.17,0,1.77,0h0a1.71,1.71,0,0,0,0-3.42Z" fill="#7f7e78"/><path d="M551.26,625c-.48-.27-1-.54-1.43-.82a1.71,1.71,0,1,0-1.75,2.93l1.51.88a1.73,1.73,0,0,0,.84.22,1.71,1.71,0,0,0,.83-3.21Z" fill="#7f7e78"/><path d="M539.18,616.19a1.71,1.71,0,1,0-2.31,2.52l1.31,1.17a1.71,1.71,0,1,0,2.24-2.58Z" fill="#7f7e78"/><path d="M626.11,602.84s-.64.92-1,1.37a1.71,1.71,0,0,0,2.77,2l1-1.42Z" fill="#7f7e78"/><path d="M602,625.52c-.48.26-1,.51-1.46.76a1.71,1.71,0,1,0,1.52,3.06c.53-.27,1.06-.54,1.57-.82a1.71,1.71,0,1,0-1.63-3Z" fill="#7f7e78"/><path d="M607.62,622l-1.36.93a1.71,1.71,0,0,0-.49,2.37,1.73,1.73,0,0,0,1.43.76,1.69,1.69,0,0,0,.94-.28c.49-.32,1-.65,1.45-1a1.71,1.71,0,1,0-2-2.79Z" fill="#7f7e78"/><path d="M596,628.29c-.51.2-1,.39-1.55.57a1.71,1.71,0,0,0,.56,3.32,1.88,1.88,0,0,0,.57-.09c.56-.2,1.11-.4,1.65-.61a1.71,1.71,0,1,0-1.23-3.19Z" fill="#7f7e78"/><path d="M612.85,617.91,611.59,619a1.71,1.71,0,0,0,1.09,3,1.69,1.69,0,0,0,1.09-.4c.45-.37.9-.75,1.34-1.14a1.71,1.71,0,0,0-2.26-2.57Z" fill="#7f7e78"/><path d="M589.69,630.26l-1.61.37a1.71,1.71,0,0,0,.35,3.38,1.45,1.45,0,0,0,.35,0c.58-.12,1.15-.25,1.72-.39a1.7,1.7,0,0,0,1.26-2.06A1.72,1.72,0,0,0,589.69,630.26Z" fill="#7f7e78"/><path d="M583.19,631.41q-.83.09-1.65.15a1.71,1.71,0,0,0,.13,3.42h.14c.59-.05,1.18-.1,1.76-.17a1.71,1.71,0,1,0-.38-3.39Z" fill="#7f7e78"/><path d="M624.48,608a1.7,1.7,0,0,0-2.4.26c-.35.44-.7.87-1.06,1.3a1.71,1.71,0,0,0,2.62,2.19l1.11-1.35A1.7,1.7,0,0,0,624.48,608Z" fill="#7f7e78"/><path d="M617.67,613.28c-.38.41-.77.8-1.16,1.2a1.7,1.7,0,0,0,0,2.42,1.71,1.71,0,0,0,2.41,0c.41-.41.82-.83,1.22-1.26a1.71,1.71,0,0,0-2.48-2.35Z" fill="#7f7e78"/><g opacity="0.86"><path d="M601.11,625.77a1.71,1.71,0,0,1-.8-3.22c.49-.26,1-.52,1.45-.8a1.71,1.71,0,0,1,1.7,3c-.51.29-1,.58-1.55.85A1.66,1.66,0,0,1,601.11,625.77Zm-56.35-3.33a1.69,1.69,0,0,1-1-.34c-.47-.35-.93-.7-1.4-1.07a1.71,1.71,0,0,1,2.12-2.68l1.32,1a1.71,1.71,0,0,1-1,3.08Zm62.2-.22a1.71,1.71,0,0,1-1-3.12l1.35-1a1.71,1.71,0,0,1,2,2.77l-1.43,1A1.7,1.7,0,0,1,607,622.22Zm-67.45-4.15a1.71,1.71,0,0,1-1.16-.45c-.43-.39-.85-.79-1.27-1.2a1.71,1.71,0,0,1,2.37-2.46c.4.39.81.77,1.22,1.15a1.71,1.71,0,0,1-1.16,3Zm72.85,0a1.71,1.71,0,0,1-1.11-3c.42-.35.84-.72,1.25-1.09a1.71,1.71,0,0,1,2.28,2.55c-.43.38-.87.77-1.31,1.14A1.66,1.66,0,0,1,612.36,618.06Zm5-4.66a1.71,1.71,0,0,1-1.23-2.9c.39-.4.77-.8,1.15-1.21a1.71,1.71,0,0,1,2.51,2.32c-.4.43-.8.85-1.21,1.27A1.67,1.67,0,0,1,617.33,613.4Zm-82.62-.19a1.72,1.72,0,0,1-1.27-.56c-.39-.44-.78-.87-1.16-1.31a1.71,1.71,0,0,1,2.59-2.24c.37.42.73.84,1.11,1.26a1.71,1.71,0,0,1-.13,2.41A1.65,1.65,0,0,1,534.71,613.21Zm87.17-4.91a1.71,1.71,0,0,1-1.32-2.8l1.05-1.3a1.71,1.71,0,1,1,2.68,2.12c-.36.45-.72.91-1.09,1.35A1.72,1.72,0,0,1,621.88,608.3Z" fill="#fff"/></g><g opacity="0.86"><path d="M607.2,626.09a1.73,1.73,0,0,1-1.43-.76,1.71,1.71,0,0,1,.49-2.37l1.36-.93a1.71,1.71,0,1,1,2,2.79c-.47.34-1,.67-1.45,1A1.69,1.69,0,0,1,607.2,626.09Zm5.48-4.07a1.71,1.71,0,0,1-1.1-3c.43-.35.85-.71,1.27-1.08a1.71,1.71,0,0,1,2.26,2.57c-.44.39-.89.77-1.34,1.14A1.69,1.69,0,0,1,612.68,622ZM539.3,620.3a1.7,1.7,0,0,1-1.12-.42l-1.31-1.17a1.71,1.71,0,1,1,2.31-2.52l1.24,1.11a1.71,1.71,0,0,1-1.12,3Zm78.42-2.91a1.68,1.68,0,0,1-1.2-.49,1.7,1.7,0,0,1,0-2.42c.39-.4.78-.79,1.16-1.2a1.71,1.71,0,0,1,2.48,2.35c-.4.43-.81.85-1.22,1.26A1.67,1.67,0,0,1,617.72,617.39Zm-83.37-1.82a1.72,1.72,0,0,1-1.23-.53l-1.2-1.27a1.71,1.71,0,0,1,2.52-2.32c.38.42.76.82,1.15,1.23a1.71,1.71,0,0,1-1.24,2.89Zm88-3.24a1.71,1.71,0,0,1-1.31-2.8c.36-.43.71-.86,1.06-1.3a1.71,1.71,0,0,1,2.67,2.14l-1.11,1.35A1.71,1.71,0,0,1,622.33,612.33Zm-92.52-1.88a1.71,1.71,0,0,1-1.32-.62l-1.09-1.35a1.71,1.71,0,1,1,2.67-2.13l1.06,1.31a1.71,1.71,0,0,1-1.32,2.79Z" fill="#fff"/></g><path d="M572.63,558.32l-69,61.9s-27.26-64-18.66-80.69" fill="none" stroke="#262521" stroke-linecap="round" stroke-linejoin="round" stroke-width="3"/><path d="M575.82,558.32l69.95,61.9s34.64-60.35,19.12-84.27" fill="none" stroke="#262521" stroke-linecap="round" stroke-linejoin="round" stroke-width="3"/><circle cx="572.24" cy="603.55" r="4.45" fill="#cccbca"/><circle cx="575.82" cy="723.08" r="4.45" fill="#cccbca"/><circle cx="581.27" cy="841.87" r="4.45" fill="#cccbca"/><circle cx="587.33" cy="957.58" r="4.45" fill="#cccbca"/><circle cx="591.77" cy="1083.08" r="4.45" fill="#cccbca"/><circle cx="596.22" cy="1200.71" r="4.45" fill="#cccbca"/></svg>