<svg xmlns="http://www.w3.org/2000/svg" width="1000" height="1550" viewBox="0 0 1000 1550"><defs><clipPath id="a"><path fill="none" d="M0 99.91h100v100H0z"/></clipPath><clipPath id="b"><path fill="none" d="M0-.09h100v100H0z"/></clipPath><pattern id="c" width="100" height="100" patternTransform="matrix(1.6 0 0 1.6 -80.67 -78)" patternUnits="userSpaceOnUse" viewBox="0 0 100 100"><path fill="none" d="M0 0h100v100H0z"/><g clip-path="url(#a)"><path fill="#262521" d="M.05 99.92h100v100H.05z"/><path fill="none" stroke="#7a7a7a" stroke-linejoin="round" d="M0 200.09h50l-50-100v64.02l50 35.98M100 200.09H50l50-100v64.02l-50 35.98M50.05 100.09l24.9 17.04 25-17.04M.14 100.09l24.91 17.04 25-17.04"/><path fill="none" stroke="#7a7a7a" stroke-linejoin="round" d="M50.09 100.09l-25 50 25-17.05L75 150.09l-24.91-50M0 100.09h100M0 200.09h50l-50-100v64.02l50 35.98"/><path fill="none" stroke="#7a7a7a" stroke-linejoin="round" d="M100 200.09H50l50-100v64.02l-50 35.98M50.05 100.09l24.9 17.04 25-17.04M.14 100.09l24.91 17.04 25-17.04"/><path fill="none" stroke="#7a7a7a" stroke-linejoin="round" d="M50.09 100.09l-25 50 25-17.05L75 150.09l-24.91-50M0 100.09h100"/><circle cx="50.05" cy="100.09" r=".69" fill="#fff"/><circle cx="50.05" cy="100.09" r="1.27" fill="#fff" opacity=".4"/><circle cx="100" cy="100.09" r=".69" fill="#fff"/><circle cx="100" cy="100.09" r="1.27" fill="#fff" opacity=".4"/><circle cy="100.09" r=".69" fill="#fff"/><circle cy="100.09" r="1.27" fill="#fff" opacity=".4"/></g><g clip-path="url(#b)"><path fill="#262521" d="M.05-.08h100v100H.05z"/><path fill="none" stroke="#7a7a7a" stroke-linejoin="round" d="M0 100.09h50L0 .09v64.02l50 35.98M100 100.09H50l50-100v64.02l-50 35.98M75 50.09H25.09L50 67.13l25-17.04zM50 67.13v32.96M50.05.09l24.9 17.04 25-17.04M74.96 17.13v32.96"/><path fill="none" stroke="#7a7a7a" stroke-linejoin="round" d="M.14.09l24.91 17.04 25-17.04M25.05 17.13v32.96M50.09.09l-25 50 25-17.04L75 50.09 50.09.09M50.09 33.05V.09M0 .09h100M0 100.09h50L0 .09v64.02l50 35.98"/><path fill="none" stroke="#7a7a7a" stroke-linejoin="round" d="M100 100.09H50l50-100v64.02l-50 35.98M75 50.09H25.09L50 67.13l25-17.04zM50 67.13v32.96M50.05.09l24.9 17.04 25-17.04M74.96 17.13v32.96"/><path fill="none" stroke="#7a7a7a" stroke-linejoin="round" d="M.14.09l24.91 17.04 25-17.04M25.05 17.13v32.96M50.09.09l-25 50 25-17.04L75 50.09 50.09.09M50.09 33.05V.09M0 .09h100"/><circle cx="50.05" cy=".09" r=".69" fill="#fff"/><circle cx="50.05" cy=".09" r="1.27" fill="#fff" opacity=".4"/><circle cx="100" cy=".09" r=".69" fill="#fff"/><circle cx="100" cy=".09" r="1.27" fill="#fff" opacity=".4"/><circle cy=".09" r=".69" fill="#fff"/><circle cy=".09" r="1.27" fill="#fff" opacity=".4"/><circle cx="50.05" cy="99.91" r=".69" fill="#fff"/><circle cx="50.05" cy="99.91" r="1.27" fill="#fff" opacity=".4"/><path d="M74.93 51.34l1-2.06a1.23 1.23 0 00-1-.46 1.26 1.26 0 00-.07 2.52z" fill="#fff" opacity=".4"/><path d="M75 50.77a1 1 0 00.24 0l.41-.83a.68.68 0 00-.65-.5.69.69 0 00-.69.69.68.68 0 00.69.64z" fill="#fff"/><path d="M25.07 51.34l-1-2.06a1.23 1.23 0 011-.46 1.26 1.26 0 01.07 2.52z" fill="#fff" opacity=".4"/><path d="M25 50.77a.86.86 0 01-.24 0l-.41-.83a.67.67 0 01.65-.5.68.68 0 01.68.69.67.67 0 01-.68.64z" fill="#fff"/></g></pattern></defs><path fill="#f4f4f4" d="M279.44 1262.52l396.54-16.39 20.1 342.24-158.7-1.85-28.9-196.61-25.52 8.68-8.84 196.24-153.94-.22-40.74-332.09z"/><path fill="none" stroke="#636363" stroke-linecap="round" stroke-linejoin="round" d="M294.88 1324.15l31.56 241.95"/><path d="M522.94 1490.48c17.58-3.66 6.18-21.24 25.52-30.31 6.39-3.5-1.51-18.1 9.74-14.59 13.34 14.3 19.65-4.52 9.7-14.17-4.23-4.3-10.1-5.15-15.27-7.79-12.39-7.09-12.1-23.84-18.76-35.22 1.25-15.74 24.42 7 29.55 11.26 5.2 4.91 5.47-3.68 11.32-4.32 32.2-7.6 15 47.41 44.67 46-.91-6.08.52-12.42-2-18.23-2.62-6.38-13.73-14.6-1.75-18.41 3.81-1.34 7.8 3.75 11.39 1.77 5.79-12.82 15.5-8.29 21.92 1.31 11.18 16.77 27.1 4.86 13.68-10.07-20.69-7-15.82-9.09-24.9-25.91-3.2-4.72-8.63-6.66-13.51-9.13-10.16-5.63-14.38-17.16-20.69-26.28-3.63-5.31-148-1.7-152.51 7.64a49.31 49.31 0 01-16.41 19.8c-5.08 2.69-12.25 11.13-5.33 15.52 2.74 1 6.23 1.44 7.55 4.48 1.7 7-7.08 11.21-8.87 17.48-3.52 6.62-7.39 16.83-.1 22.3 6.78 4 15.29-.26 22.47 2.5 14.08 5.36 6.29 35.89 30.43 23l2.18-48.3 25.52-8.67z" fill="#c5cbd3" opacity=".4"/><g opacity=".8"><path d="M545.74 1363.2h-7.4c-2.79 0-5.82.77-7.36 3.33a5.6 5.6 0 00-.07 5.52 6.6 6.6 0 004.08 3 22.31 22.31 0 007.92.79l-4.34-5.69a6.84 6.84 0 003.35 7.5c2 1.15 4.39 1.08 6.63 1.11 2 0 4.19.33 6.12-.14a5.48 5.48 0 003.81-7.34 53.38 53.38 0 00-2.86-5.71c-.84-1.6-1.59-3.29-2.54-4.83a6.34 6.34 0 00-7-2.9 12.46 12.46 0 00-1.78.61 8.54 8.54 0 00-.9.27c.83-.07 1-.11.54-.1.83.16 1 .17.56 0l-2.39 8.68 2.42.55a4.59 4.59 0 005.54-3.14c.52-2.29-.69-5-3.14-5.54l-2.43-.55a4.5 4.5 0 10-2.39 8.68 6.85 6.85 0 004.36-.11c.38-.13.75-.3 1.13-.43.21-.08.44-.14.66-.21.65-.23-.71 0-1 0a2.87 2.87 0 01-1.63-.78c-.74-.74-.37-.47-.15-.06s.59 1.12.88 1.69l1.93 3.71.88 1.68.53 1 .18.33c.21.44.23.45.06.05s-.15-.38 0 0l3.21-4.38a6.68 6.68 0 00-1 0h-6.22c.38.06.37 0 0-.05l.47.21c-.32-.19-.31-.18 0 0a1.6 1.6 0 01.6.66 2.83 2.83 0 01.18 2 4.54 4.54 0 00-.8-3.92 4.3 4.3 0 00-3.54-1.78 20.82 20.82 0 01-2.5 0c-.41 0-.83-.07-1.24-.1h.31l-.7-.13-1-.24-.58-.16c.67.32.81.37.4.15l1.52 2a3.49 3.49 0 01-.85 3.37c-.66.47-.79.58-.4.33s.27-.14-.11 0c-.73.39.21 0 .39 0-.77.08-1 .12-.61.1h8.3a4.5 4.5 0 000-9z" fill="#8d8d8c" opacity=".9"/><path d="M492.71 1373.67a7.16 7.16 0 00-6.75 4.9 6.88 6.88 0 002.42 7.49 7.16 7.16 0 008 .43 7.89 7.89 0 001-.66l1.1-.85c.71-.56-.88.63-.15.12a11.55 11.55 0 012.05-1.17l-1.08.45a11.76 11.76 0 012.73-.75l-1.2.16a11.73 11.73 0 012.84 0l-1.2-.16a11.07 11.07 0 011.39.29 4.56 4.56 0 004.38-1.16 4.4 4.4 0 001.15-4.38 22 22 0 01-1.18-4.14 4.52 4.52 0 00-2.06-2.69 4.62 4.62 0 00-3.47-.45 4.55 4.55 0 00-2.69 2.07 5 5 0 00-.45 3.47 20.5 20.5 0 001.18 4.13l5.53-5.53a15.16 15.16 0 00-8.34.12 14.26 14.26 0 00-3.74 1.72c-.71.47-1.38 1-2.05 1.55 1.08-.86.39-.3.14-.13a6.3 6.3 0 01-.8.45l1.07-.46a3.74 3.74 0 01-.87.24l1.2-.16a3.4 3.4 0 01-.64 0l1.19.16a2.79 2.79 0 01-.58-.18l1.07.45a2.43 2.43 0 01-.35-.2c.59.49.76.62.51.37s-.12-.07.38.52a2.6 2.6 0 01-.21-.36l.46 1.08a4.06 4.06 0 01-.19-.59l.16 1.2a3.21 3.21 0 010-.62l-.16 1.2a3 3 0 01.15-.59l-.45 1.07a2.42 2.42 0 01.18-.36c-.52.62-.62.76-.32.42s.19-.19-.43.32l.36-.19-1.07.46a3.06 3.06 0 01.59-.17l-1.2.16a1.89 1.89 0 01.41 0 4.5 4.5 0 100-9z" fill="#8d8d8c" opacity=".8"/><path d="M568.33 1416.53a8.59 8.59 0 001.42 1.64 8.6 8.6 0 003.84 1.93 8.66 8.66 0 002.22.19 7.85 7.85 0 002.15-.4 6.27 6.27 0 001.38-.6 6.2 6.2 0 001-.78 11.17 11.17 0 00.74-1 5.74 5.74 0 00.59-1.32v-.16-.08a10.93 10.93 0 00.17-1.28 4.94 4.94 0 00-.24-1.87 11.86 11.86 0 00-.51-1.21l-.1-.17a5.21 5.21 0 00-.93-1.17 5.38 5.38 0 00-2.24-1.3h-.2a10.39 10.39 0 00-1.23-.17h-.13a5 5 0 00-3.19 1.31 3.55 3.55 0 00-.93 1.45 3.36 3.36 0 00-.38 1.74l.16 1.19a4.48 4.48 0 004.34 3.31h.17l-1.2-.16a1.05 1.05 0 01.24.06l-1.08-.45a.82.82 0 01.2.12l-.91-.71a1.31 1.31 0 01.2.21l-.7-.91a1.35 1.35 0 01.16.29l-.45-1.08a2 2 0 01.11.42l-.16-1.2a2.41 2.41 0 010 .38l.16-1.19a1.57 1.57 0 01-.08.31l.45-1.07a1.13 1.13 0 01-.12.21l.7-.91-.16.16.91-.7a.81.81 0 01-.18.1l1.07-.45a4.19 4.19 0 01-1 .28l1.2-.16a4.35 4.35 0 01-1 0l1.19.16a4.29 4.29 0 01-1.05-.28l1.07.45a3.88 3.88 0 01-.88-.51l.91.7a3.6 3.6 0 01-.68-.67l.7.91a3.38 3.38 0 00-1.16-1.27 3.42 3.42 0 00-1.53-.8 5.06 5.06 0 00-3.46.45 4.54 4.54 0 00-2.07 2.69l-.16 1.2a4.42 4.42 0 00.61 2.27zM615.74 1454.38l3 2.3c.49.38 1 .81 1.49 1.14a5.3 5.3 0 002.66.68c.2 0 1-.13 1.23-.17h.12a5.15 5.15 0 001.24-.51l.2-.13a6.5 6.5 0 001.05-.83 8.69 8.69 0 00.84-1.06 1.64 1.64 0 00.14-.22 7.6 7.6 0 00.31-.73 5.56 5.56 0 00.32-.8 6.49 6.49 0 00.21-1.65 8.87 8.87 0 00-.17-1.36 1.45 1.45 0 00-.06-.3 7.13 7.13 0 00-.54-1.27l-.15-.23a6.69 6.69 0 00-1.58-1.68 6.9 6.9 0 00-1-.67 12.38 12.38 0 00-1.64-.69c-1-.34-2.08-.4-3.06-.81l1.07.46a4.13 4.13 0 01-.79-.45l.91.7a3 3 0 01-.4-.39l.7.91a2.68 2.68 0 01-.28-.49 3.46 3.46 0 00-1.16-1.27 3.52 3.52 0 00-1.53-.8 3.44 3.44 0 00-1.8-.08 3.36 3.36 0 00-1.67.53 4.54 4.54 0 00-2.07 2.69l-.16 1.2a4.52 4.52 0 00.61 2.27 5.82 5.82 0 001 1.43 7.65 7.65 0 001.35 1.12 4.59 4.59 0 00.61.35 15.14 15.14 0 001.68.68c1 .3 2 .37 2.9.75l-1.07-.45a3.66 3.66 0 01.74.43l-.91-.71a3.33 3.33 0 01.42.42l-.7-.91a2.17 2.17 0 01.19.33l-.45-1.08a1.38 1.38 0 01.1.4l-.16-1.2a2 2 0 010 .42l.16-1.2a2.52 2.52 0 01-.13.47l.46-1.07a2.44 2.44 0 01-.24.41l.71-.91a1.72 1.72 0 01-.27.27l.91-.7a1.35 1.35 0 01-.26.15l1.07-.45-.22.05 1.19-.16h-.17l1.19.16-.24-.06 1.07.46h-.06l.91.7-3.5-2.7a3.36 3.36 0 00-1.45-.93 4 4 0 00-3.46 0 3.36 3.36 0 00-1.45.93 4.51 4.51 0 00-1.32 3.18l.16 1.19a4.41 4.41 0 001.16 2zM570.82 1479.76a54.17 54.17 0 004.32 12.63 4.44 4.44 0 002.69 2.07 4.68 4.68 0 002.93-.22 4.32 4.32 0 002.15-1.85l.45-1.07a4.41 4.41 0 000-2.39 21.83 21.83 0 00-3.62-9.25 4.76 4.76 0 00-2.69-2.07 4.62 4.62 0 00-3.47.45 4.55 4.55 0 00-2.06 2.69 4.47 4.47 0 00.45 3.47 19.39 19.39 0 011.84 3.34l-.45-1.08a19.41 19.41 0 011.32 4.84l8.23-3.47c-.34-.71-.66-1.42-1-2.15l.45 1.08a49.93 49.93 0 01-2.89-9.41 4.5 4.5 0 00-8.22-1.07 5 5 0 00-.46 3.46z" fill="#8d8d8c"/><path d="M590.55 1456.62l-1.78-3.44c-.58-1.11-1.22-2.21-1.72-3.36l.46 1.08a2.59 2.59 0 01-.18-.66l.16 1.2a2.81 2.81 0 010-.41l-.16 1.2a1.9 1.9 0 01.15-.53l-.46 1.08a2.85 2.85 0 01.23-.37l-.71.91a2.79 2.79 0 01.39-.38l-.91.7a4.54 4.54 0 01.83-.47l-1.07.45a7.41 7.41 0 011.74-.44l-1.2.16c.21 0 .41 0 .62-.06a4.82 4.82 0 003.18-1.32 4.57 4.57 0 001.32-3.18 4.5 4.5 0 00-1.32-3.18 4.43 4.43 0 00-3.18-1.32 12.27 12.27 0 00-5 1.27 6.52 6.52 0 00-3.48 5.54c0 2.14 1.15 4 2.1 5.84l2.2 4.23a4.5 4.5 0 007.77-4.54z" fill="#8d8d8c" opacity=".8"/><path d="M549.27 1450a4.5 4.5 0 10-4.5-4.5 4.55 4.55 0 004.5 4.5zM607.06 1417.54a16.12 16.12 0 007.77-3.75 4.64 4.64 0 000-6.37 4.5 4.5 0 00-3.18-1.31l-1.2.16a4.5 4.5 0 00-2 1.15l-.38.31.91-.71a11.52 11.52 0 01-2.61 1.51l1.08-.45a11.84 11.84 0 01-2.81.78 3.44 3.44 0 00-1.53.81 4 4 0 00-1.69 2.94 3.41 3.41 0 00.08 1.79 4.55 4.55 0 002.07 2.69l1.07.45a4.45 4.45 0 002.4 0z" fill="#8d8d8c"/><path d="M614.09 1371.39a13.32 13.32 0 012.33-.53l-1.2.16a13 13 0 013.36 0l-1.2-.16h.22a5.1 5.1 0 003.47-.45 3.51 3.51 0 001.26-1.16 3.44 3.44 0 00.81-1.53 4.57 4.57 0 00-.46-3.47l-.7-.91a4.56 4.56 0 00-2-1.16 18.29 18.29 0 00-4.18-.25 18.61 18.61 0 00-4.11.76 4.73 4.73 0 00-2.69 2.07 3.37 3.37 0 00-.54 1.67 3.55 3.55 0 00.08 1.8 4.59 4.59 0 002.07 2.69 4.53 4.53 0 003.47.45zM454.42 1358.68a9.05 9.05 0 00-6.51.88 7.89 7.89 0 00-2.16 1.69 9.42 9.42 0 00-1.93 3.31l-.16 1.2.16 1.19a4.43 4.43 0 001.61 2.34 4.29 4.29 0 002.13.89 2.44 2.44 0 001.2 0 3.37 3.37 0 001.67-.54 5.49 5.49 0 002.91-4.32 6.52 6.52 0 00-.14-2.56 7.72 7.72 0 00-.56-1.4 2.3 2.3 0 00-.25-.43 6.75 6.75 0 00-2.13-2.09 8.52 8.52 0 00-1.52-.66 3.87 3.87 0 00-.67-.17 9.66 9.66 0 00-2.34-.19c-.83.07-1.66.2-2.49.34a4.54 4.54 0 00-2.69 2.07 4.59 4.59 0 00-.45 3.46 4.55 4.55 0 002.07 2.69l1.07.46a4.65 4.65 0 002.4 0l.71-.12-1.2.17a6.21 6.21 0 011.72 0l-1.19-.16a3.17 3.17 0 01.8.22l-1.08-.46a3.6 3.6 0 01.54.31l-.92-.7.28.28-.71-.91a2.62 2.62 0 01.3.51l-.46-1.07a2.82 2.82 0 01.15.57l-.16-1.2a3.84 3.84 0 010 .48l.16-1.2a2 2 0 01-.13.44l.46-1.08a1.09 1.09 0 01-.14.23l.71-.91-.18.19.91-.7a2 2 0 01-.32.18l6.61 5.08a2 2 0 01.08-.22l-.45 1.08a4.27 4.27 0 01.54-.92l-.71.91a4.9 4.9 0 01.76-.75l-.92.7a5 5 0 011-.6l-1.08.45a5.09 5.09 0 011.14-.32l-1.19.16a4.69 4.69 0 011.06 0l-1.2-.16a3.89 3.89 0 01.47.09 4.72 4.72 0 003.47-.45 4.59 4.59 0 002.06-2.69 4.52 4.52 0 00-.45-3.47 4.58 4.58 0 00-2.69-2.07zM450.1 1399.9a9.59 9.59 0 00-2.24 9 4.39 4.39 0 001.61 2.34 4.54 4.54 0 002.73 1l2.65.1-4.34-5.69-.05.13.45-1.07a12.21 12.21 0 01-1.47 2.52l.7-.91a13 13 0 01-1.27 1.41 4.5 4.5 0 003.19 7.68 4.77 4.77 0 003.18-1.32 16.16 16.16 0 003.95-6 4.41 4.41 0 000-2.39 3.42 3.42 0 00-.8-1.53 4.5 4.5 0 00-3.54-1.78l-2.65-.1 4.34 3.3a4.69 4.69 0 01-.11-.54l.16 1.2a5.71 5.71 0 010-1.37l-.16 1.2a5.34 5.34 0 01.34-1.32l-.45 1.07a5.32 5.32 0 01.68-1.18l-.7.91.17-.22a4.78 4.78 0 001.32-3.18 4.57 4.57 0 00-1.32-3.18 4.51 4.51 0 00-3.18-1.32 4.44 4.44 0 00-3.18 1.32z" fill="#8d8d8c" opacity=".8"/><path d="M422.09 1434.85l.1.21-.46-1.07a3.26 3.26 0 01.23.81l-.16-1.19a3.87 3.87 0 010 .9l.16-1.19a3.49 3.49 0 01-.24.88l.46-1.08a4.2 4.2 0 01-.43.74l.71-.91a3.71 3.71 0 01-.56.56l.91-.71h-.05a3.43 3.43 0 00-1.26 1.16 3.23 3.23 0 00-.8 1.53 5 5 0 00.45 3.47l.7.91a4.54 4.54 0 002 1.15l1.19.16a4.45 4.45 0 002.28-.61 9.81 9.81 0 001.33-1.08c.19-.21.36-.45.53-.68s.36-.44.52-.68a8.14 8.14 0 00.48-1 6.44 6.44 0 00.41-1.11c0-.1 0-.21.06-.31.07-.47.15-1 .18-1.42a3.32 3.32 0 000-.63 10.93 10.93 0 00-.27-1.75c0-.09-.06-.18-.1-.27a14 14 0 00-.57-1.33 3.43 3.43 0 00-1.16-1.26 3.34 3.34 0 00-1.53-.81 3.51 3.51 0 00-1.79-.08 3.41 3.41 0 00-1.68.54l-.91.7a4.48 4.48 0 00-1.15 2l-.16 1.19a4.39 4.39 0 00.61 2.27z" fill="#8d8d8c"/><path d="M458.75 1451.18v5.3a3.47 3.47 0 00.39 1.74 4 4 0 002.38 2.38 3.31 3.31 0 001.73.38 4.55 4.55 0 003.18-1.31 4.69 4.69 0 001.32-3.19v-5.3a3.41 3.41 0 00-.39-1.73 4 4 0 00-2.38-2.38 3.41 3.41 0 00-1.73-.39 4.56 4.56 0 00-3.18 1.32 4.66 4.66 0 00-1.32 3.18z" fill="#8d8d8c" opacity=".6"/><path d="M636 1491.22a3.51 3.51 0 01.4.27l-.91-.71a4.37 4.37 0 01.68.68l-.71-.91a4 4 0 01.51.86l-.46-1.07a4 4 0 01.27 1l-.16-1.19v.13a3.41 3.41 0 00.38 1.72 4 4 0 002.38 2.38 3.41 3.41 0 001.73.39l1.2-.16a4.52 4.52 0 002-1.16l.71-.91a4.52 4.52 0 00.61-2.27c0-.47-.12-.93-.18-1.39v-.24a3.17 3.17 0 00-.12-.44l-.09-.22c-.17-.42-.33-.84-.52-1.24a4.49 4.49 0 00-.24-.42 14.41 14.41 0 00-.94-1.24 3.39 3.39 0 00-.31-.34 10.34 10.34 0 00-1.24-1 4.56 4.56 0 00-.39-.27 3.41 3.41 0 00-1.68-.54 3.51 3.51 0 00-1.79.08 3.34 3.34 0 00-1.53.81 3.43 3.43 0 00-1.16 1.26l-.46 1.08a4.61 4.61 0 000 2.39l.46 1.08a4.6 4.6 0 001.61 1.61z" fill="#8d8d8c" opacity=".8"/><path d="M621.75 1513.6a4.5 4.5 0 10-4.5-4.5 4.55 4.55 0 004.5 4.5zM670.78 1523.82l3.05 4a3.28 3.28 0 001.16 1.26 3.34 3.34 0 001.53.81 3.41 3.41 0 001.79.08 3.5 3.5 0 001.68-.53l.91-.71a4.52 4.52 0 001.16-2l.16-1.2a4.53 4.53 0 00-.62-2.27l-3.05-4a3.43 3.43 0 00-1.16-1.26 3.34 3.34 0 00-1.53-.81 3.51 3.51 0 00-1.79-.08 3.34 3.34 0 00-1.67.54l-.91.7a4.41 4.41 0 00-1.16 2l-.16 1.19a4.49 4.49 0 00.61 2.27z" fill="#8d8d8c"/><path d="M668.65 1448.65l1.18 1.17a3.44 3.44 0 001.44.94 3.36 3.36 0 001.74.38 3.31 3.31 0 001.73-.38 3.47 3.47 0 001.45-.94l.7-.91a4.43 4.43 0 00.62-2.27l-.16-1.19a4.5 4.5 0 00-1.16-2l-1.18-1.18a3.36 3.36 0 00-1.45-.93 4 4 0 00-3.46 0 3.36 3.36 0 00-1.45.93l-.71.91a4.52 4.52 0 00-.61 2.27l.16 1.2a4.52 4.52 0 001.16 2zM646.11 1413.74a6.13 6.13 0 011.14.7l-.92-.71a7.63 7.63 0 011.1 1.1l-.71-.91a7.26 7.26 0 01.91 1.54l-.46-1.08a7.33 7.33 0 01.51 1.83l-.16-1.2a6.56 6.56 0 010 1.77l.16-1.19a6 6 0 01-.41 1.49 3.44 3.44 0 00-.08 1.8 3.36 3.36 0 00.53 1.67 4.51 4.51 0 006.16 1.62l.91-.71a4.52 4.52 0 001.16-2 9.44 9.44 0 00.63-3.64 14.46 14.46 0 00-.27-2.36 7.84 7.84 0 00-.37-1.28 12.88 12.88 0 00-2.36-4 9.05 9.05 0 00-2.93-2.24 4.87 4.87 0 00-3.47-.46 4.6 4.6 0 00-2.68 2.07 4.54 4.54 0 00-.46 3.47 4.45 4.45 0 002.07 2.69z" fill="#8d8d8c" opacity=".8"/><path d="M663.39 1378.23l.09-.14-.7.91a.54.54 0 01.15-.15l-.92.71a.52.52 0 01.19-.11l-1.07.45a1.09 1.09 0 01.24-.07l-1.19.16h.35l-1.2-.16a1.55 1.55 0 01.42.12l-1.08-.46a1.79 1.79 0 01.38.22l-.91-.7a1.72 1.72 0 01.27.27l-.7-.91a1.38 1.38 0 01.14.24l-.45-1.07a1.68 1.68 0 01.07.24l-.17-1.19a.74.74 0 010 .21l.16-1.19a.79.79 0 01-.06.22l.45-1.07a4.34 4.34 0 00.36 5 3.36 3.36 0 001.26 1.16l1.07.45a4.45 4.45 0 002.4 0l1.06-.37a4.49 4.49 0 001.62-1.62 5.58 5.58 0 00.7-2.6.76.76 0 000-.15 9 9 0 00-.19-1.35 9.25 9.25 0 00-.51-1.22.86.86 0 00-.1-.16c-.19-.26-.51-.67-.72-.92v-.07l-.14-.13-.52-.41c-.16-.12-.34-.27-.52-.39a1.08 1.08 0 00-.18-.11h-.07c-.37-.17-.76-.33-1.14-.48l-.18-.07h-.19c-.4-.07-.86-.13-1.26-.17h-.27a9.08 9.08 0 00-1.36.19 6.31 6.31 0 00-1.24.51l-.17.1c-.21.16-.72.55-.92.72l-.07.08a6.65 6.65 0 00-.81 1.07 3.4 3.4 0 00-.54 1.67 3.55 3.55 0 00.08 1.8 5.09 5.09 0 002.07 2.69l1.08.45a4.41 4.41 0 002.39 0l1.08-.45a4.54 4.54 0 001.61-1.62z" fill="#8d8d8c"/><path d="M521.78 1478.62c.33 4 .63 8 1 12a15.27 15.27 0 001.64 6.37 10.69 10.69 0 00.66 1l.71.91c-.31-.41-.31-.4 0 0 .06.09.68 1.18.25.34v.78a12.13 12.13 0 001 5.83 6.93 6.93 0 006.41 3.77c4.39-.11 8.35-4 9.31-8.13a11 11 0 00-3.48-10.76 18 18 0 00-1.49-1.11l-.3-.19a2.62 2.62 0 011 3l-.15.32a7.74 7.74 0 01.43-.73c.21-.36.45-.71.65-1.07a21.75 21.75 0 002.12-5.84c.82-3.81 1.45-8.33-1-11.73-2.75-3.9-8.52-5.15-12-1.45-3.35 3.54-1.53 8.14-.57 12.2.1.44.19.88.27 1.33 0 .29.1.59.14.88q-.09-.67 0 .15c.06 1.05.13 2.09.09 3.14 0 .45 0 .9-.07 1.35l-.09.9c.06-.46.05-.41 0 .13-.2 1-.43 2-.72 3.07a4.5 4.5 0 008.22 3.46c.72-1.38 1.45-2.77 2.3-4.09l.56-.84c.72-1-.55.58.29-.37a17.25 17.25 0 011.72-1.7 4.52 4.52 0 000-6.36 4.61 4.61 0 00-6.36 0c-2.79 2.36-4.62 5.62-6.28 8.82l8.23 3.47a30.53 30.53 0 001.24-9.64 42.5 42.5 0 00-1.69-9.16c-.09-.34-.16-.69-.24-1-.15-.6-.18-.06 0 .17v-.34c0-.42 0-.44 0 0l-.05.28c.13-.48.08-.41-.17.2.37-.7-.16.17-.36.33a2.09 2.09 0 01-1.3.45c.76 0-.13 0-.28-.06.47.15.41.11-.18-.1.35.22.38.22.09 0-.56-.38.41.73-.26-.34.36.58.12.1 0-.06.07.15.31 1.41.19.4v.82c0 .27 0 .7-.05 1s-.14 1.14 0 .25c-.11.77-.25 1.54-.41 2.3s-.3 1.23-.49 1.84c-.13.4-.26.8-.43 1.19.09-.2.35-.67-.06.07-.9 1.64-1.91 3.08-2.17 5a6.31 6.31 0 002.94 6 8.59 8.59 0 00.73.5c.61.35-.79-.66.07.08.56.49.12.08 0-.1.08.11.73 1.27.47.71s.11.44.12.48c.25.75 0 .07 0-.14a9.55 9.55 0 010 1.07c0-.3.25-.76 0-.15-.5 1 .4-.51 0 .09-.16.24-.3.52-.46.76.45-.72.21-.24 0-.08a6 6 0 01-.53.48c.39-.3.45-.36.18-.19s-1 .4-.11.1c-1 .35-.16 0 0 0 .93.45 1.33.14 1.92 1 .07.1.36 1 .08.14-.33-1-.07.6 0 0a9.55 9.55 0 000-1.07 15.11 15.11 0 00-.24-3.42 8.75 8.75 0 00-1-2.6 8.39 8.39 0 00-.67-.93l-.7-.91c.31.4.31.4 0 0a6 6 0 01-.4-.7c.36.79-.07-.56-.13-.73-.24-.72.07 1 0-.29l-.12-1.34c-.3-3.69-.61-7.37-.92-11.06-.19-2.34-1.93-4.62-4.5-4.5-2.27.1-4.71 2-4.5 4.5z" fill="#8d8d8c" opacity=".9"/><path d="M582.14 1347.25a1.88 1.88 0 01-.36.21l1.07-.46a1.7 1.7 0 01-.39.09l1.2-.16a3.33 3.33 0 01-.55 0l1.19.16c-1-.19-1.93-.79-2.95-1a6 6 0 00-6.85 2.83 6.45 6.45 0 002.46 8.3 8.5 8.5 0 004.1 1.13c.83 0 1.67 0 2.51.09l-1.2-.16a5.33 5.33 0 011 .28l-1.08-.46c.12.06.25.12.36.19-.6-.51-.77-.64-.52-.4s-.6-1-.23-.19l-.45-1.08a4.23 4.23 0 01.18.7l-.16-1.19c.08.72 0 1.44.08 2.16a6.92 6.92 0 001.79 4.5c2.13 2.18 5.55 2.28 8.34 1.63a8.41 8.41 0 006.23-5.53 5.77 5.77 0 00-1.5-5.67 6.78 6.78 0 00-1.28-.93c-.56-.32-.34-.4.28.32l-.12-.11c-.29-.31-.15-.13.42.56-.05-.13-.14-.26-.2-.4l.45 1.08a3.19 3.19 0 01-.15-.59l.16 1.19a3.31 3.31 0 010-.77l-.16 1.19a3.93 3.93 0 01.19-.75l-.45 1.08c0-.12.11-.23.17-.35.2-.41.46-.17-.4.48.73-.55-1 .58-.18.18l-1.07.46a1.42 1.42 0 01.29-.1c3.12-.89 4.57-5.21 2-7.52a12.25 12.25 0 00-9.16-3.3 4.87 4.87 0 00-3.18 1.32 4.57 4.57 0 00-1.32 3.18c.1 2.25 2 4.74 4.5 4.5a8.81 8.81 0 011.85 0l-1.2-.17a8.5 8.5 0 012 .57l-1.07-.46a9 9 0 011 .54c.13.08.26.19.39.26-1-.53-.54-.43-.19-.12l2-7.52a7.22 7.22 0 00-4 10.53 5.89 5.89 0 001.22 1.46 8.93 8.93 0 001.24.89l.38.21c-1-1.34-1.41-1.67-1.09-1l-.45-1.07v.19l-.16-1.2a1.34 1.34 0 010 .4l.16-1.2a1.91 1.91 0 01-.11.41l.46-1.07c0 .1-.09.19-.14.29q-.27.45.39-.48a3.41 3.41 0 00-.38.38c-.27.29 1-.57.31-.26l-.56.29 1.07-.45a6.9 6.9 0 01-1.67.46l1.2-.16a8.74 8.74 0 01-2 0l1.19.16a5.37 5.37 0 01-.67-.15l1.07.45c-.66-.3.61.63.32.32s.68 1 .38.44l.45 1.07a2.91 2.91 0 01-.18-.64l.16 1.19c-.1-.74 0-1.49-.09-2.24a7.21 7.21 0 00-2-4.78 7.54 7.54 0 00-4.35-2c-1.17-.16-2.33-.09-3.5-.2l1.2.16a4.59 4.59 0 01-1-.24l1.07.46a2.38 2.38 0 01-.39-.2c.62.52.8.66.55.41s.64 1.07.22.22l.46 1.07a2.55 2.55 0 01-.15-.52l.16 1.19a1.29 1.29 0 010-.34l-.16 1.19a1.3 1.3 0 01.07-.33l-.45 1.08.07-.16a2.48 2.48 0 01-.84.89c-.65.49-.32.24-.12.15l-1.08.45a2.34 2.34 0 01.38-.09l-1.2.16h.4l-1.2-.16a14.78 14.78 0 012.57.9 6.32 6.32 0 005.43-.56 4.76 4.76 0 002.07-2.69 4.59 4.59 0 00-.45-3.46c-1.23-1.92-4.1-3.06-6.16-1.62z" fill="#8d8d8c"/><path d="M584.12 1394.76h.38a1.73 1.73 0 00.87-.19 2.3 2.3 0 001.38-2.06l-.08-.6a2.17 2.17 0 00-.58-1l-.45-.35a2.17 2.17 0 00-1.14-.31h-.38a2.42 2.42 0 00-1.59.66 1.64 1.64 0 00-.47.72 1.73 1.73 0 00-.19.87l.08.6a2.26 2.26 0 00.58 1l.45.35a2.17 2.17 0 001.14.31zM472.36 1400.89a7.64 7.64 0 00-.77.61 5.07 5.07 0 00-.48.56 5.79 5.79 0 00-.42.59 6.88 6.88 0 00-.42.92 5.48 5.48 0 00-.2 2.94 1.66 1.66 0 00.41.76 1.54 1.54 0 00.63.58 2.42 2.42 0 001.73.23 6.64 6.64 0 001.08-.4 2.5 2.5 0 00.53-.3 5.63 5.63 0 00.9-.71 6 6 0 00.71-.89 2.65 2.65 0 00.29-.52 5.16 5.16 0 00.31-.77v-.15a5.71 5.71 0 00.08-.71.38.38 0 000-.15 3.84 3.84 0 00-.09-.68 3 3 0 00-.68-1.18 2.08 2.08 0 00-.59-.47 3.16 3.16 0 00-.6-.25 2.33 2.33 0 00-.34-.05H474a4.13 4.13 0 00-.69.11l-.29.12a3.05 3.05 0 00-.31.13h-.06a3.32 3.32 0 00-.47.37 2.73 2.73 0 00-.37.47v.05a3.5 3.5 0 00-.24.56 3.4 3.4 0 00-.08.64 2.38 2.38 0 000 .32 2.23 2.23 0 00.05.36 2.42 2.42 0 001 1.35 2.56 2.56 0 001.73.22 2.24 2.24 0 001.34-1 2.28 2.28 0 00.23-1.73.13.13 0 010-.06l.08.6v-.06l-.08.6-.23.53a.43.43 0 000-.07l-.35.46.06-.06-.46.35.11-.06-.54.23h.12l-.6.08h.16l-.6-.08h.09l-.54-.23h.08l-.45-.36.07.08-.35-.46a.3.3 0 01.06.11l-.22-.53s0 .1.05.16l-.09-.6a.76.76 0 010 .26l.08-.6a1.74 1.74 0 01-.11.39l.22-.54a3 3 0 01-.36.63l.35-.46a3.18 3.18 0 01-.58.58l.46-.35a3.29 3.29 0 01-.7.41l.53-.22a3.13 3.13 0 01-.52.16l2.77 1.57v-.13l.08.6a3.75 3.75 0 010-.82l-.08.6a3.56 3.56 0 01.22-.79l-.23.54a3.14 3.14 0 01.44-.75l-.36.46a3.65 3.65 0 01.52-.52l-.46.36.11-.08a1.85 1.85 0 00.63-.58 1.73 1.73 0 00.4-.77 1.62 1.62 0 000-.9 1.65 1.65 0 00-.26-.83 2.27 2.27 0 00-1.35-1 2.22 2.22 0 00-1.73.23zM408.23 1385.35a6.65 6.65 0 01-2.31.11c-.63-.06-1.6-.26-2.39-.39a10.4 10.4 0 00-5.8.29 8.76 8.76 0 00-3.84 3.66l-.62 1c-.08.13-.16.26-.25.39s-.42.56-.17.26a6.35 6.35 0 01-.67.7c-.17.14.2-.09-.14.08s.25-.05-.26.11l2.77 1.57s-.08.76-.15.72l.52-.5c.24-.2.51-.38.77-.56a7.23 7.23 0 012.2-1.19 2.11 2.11 0 011.19 0 1.88 1.88 0 01.44.24c-.07 0-.17-.2 0 0s.39.67.61 1a3.71 3.71 0 005.57.62c1.81-1.56 1.64-4 1.09-6.06l-2.17 2.85a30.57 30.57 0 015.63.66 2.25 2.25 0 001.19-4.34 37.27 37.27 0 00-6.82-.82 2.26 2.26 0 00-2.17 2.84 7.15 7.15 0 01.26 1.22c0 .17.06.36 0 .36s.14-.16.22-.16c.33 0 .64.32.94.29.05 0 0 0-.1-.16a6.48 6.48 0 00-.33-.57 5.73 5.73 0 00-4.91-2.53 9.29 9.29 0 00-5.18 2c-1.87 1.33-3.59 2.81-3.08 5.34a2.28 2.28 0 002.77 1.57 7.62 7.62 0 004-3.41c.41-.61.78-1.25 1.19-1.85l.14-.18a4.72 4.72 0 01.37-.41 4.86 4.86 0 01.41-.38c-.26.19.14-.06.24-.11a3.13 3.13 0 011.69-.25 16.34 16.34 0 012.35.32 13.7 13.7 0 006 .09c2.79-.77 1.6-5.11-1.2-4.34zM418.24 1370.09h-.3l.6.08a5 5 0 01-1.15-.31l.54.23a5.4 5.4 0 01-1-.6 2.2 2.2 0 00-2.27 0 4.6 4.6 0 00-1.54 1.65 4.7 4.7 0 00-.56 2.23 2.28 2.28 0 001.65 2.17 11.55 11.55 0 003.66.23 13.87 13.87 0 002-.34 14.14 14.14 0 002-.73 2.24 2.24 0 001-1.34 2.3 2.3 0 00-.23-1.74 2.27 2.27 0 00-1.34-1l-.6-.08a2.16 2.16 0 00-1.13.31h-.1l.54-.23a10 10 0 01-2.51.69l.6-.08a10.28 10.28 0 01-2.6 0l.6.08-.72-.13 1.65 2.17v-.36l-.08.6a2.64 2.64 0 01.17-.61l-.23.54a2.78 2.78 0 01.28-.47l-.35.45a2.72 2.72 0 01.37-.39l-.45.36.14-.11h-2.27a6.9 6.9 0 003.62 1.24 2.24 2.24 0 001.59-.65 2.26 2.26 0 000-3.19 2.58 2.58 0 00-1.59-.66zM624.7 1425.17a5.55 5.55 0 002.94 3.69 6.47 6.47 0 002.59.68 5.55 5.55 0 002.65-.61 2.33 2.33 0 001-1.35 2.27 2.27 0 00-1.57-2.77 2.51 2.51 0 00-1.74.23l-.16.08.54-.23a2.87 2.87 0 01-.75.2l.6-.08a3.39 3.39 0 01-.9 0l.6.08a4.27 4.27 0 01-1-.27l.54.23a4 4 0 01-.83-.49l.45.35a4.24 4.24 0 01-.64-.63l.35.45a3.23 3.23 0 01-.42-.72l.23.54a3.13 3.13 0 01-.18-.57 2.3 2.3 0 00-1-1.35 2.24 2.24 0 00-3.08.81 2.52 2.52 0 00-.23 1.73zM657.94 1469.06v2.47a1.73 1.73 0 00.19.87 2.09 2.09 0 001.19 1.19 1.73 1.73 0 00.87.19l.6-.08a2.26 2.26 0 001-.58 2.35 2.35 0 00.66-1.59v-2.47a1.68 1.68 0 00-.2-.86 1.71 1.71 0 00-.46-.73 1.65 1.65 0 00-.73-.46 1.68 1.68 0 00-.86-.2l-.6.08a2.26 2.26 0 00-1 .58 2.31 2.31 0 00-.66 1.59zM676.26 1497.9l2.22 2.77a1.81 1.81 0 00.73.46 1.58 1.58 0 00.86.19 1.63 1.63 0 00.87-.19 1.71 1.71 0 00.72-.46 2.25 2.25 0 00.66-1.6l-.08-.59a2.2 2.2 0 00-.58-1l-2.22-2.76a1.68 1.68 0 00-.72-.46 2 2 0 00-1.74 0 1.62 1.62 0 00-.72.46 2.22 2.22 0 00-.66 1.59l.08.6a2.26 2.26 0 00.58 1zM657.19 1504.43a5.69 5.69 0 00-.26.56 4.25 4.25 0 00-.21.56 7.12 7.12 0 00-.13.91 1.37 1.37 0 000 .35 6.56 6.56 0 00.11.89 1.89 1.89 0 00.09.34 8.16 8.16 0 00.34.81 3.28 3.28 0 00.2.31 1.76 1.76 0 00.58.63 2 2 0 001.66.44 1.61 1.61 0 00.84-.27 2.27 2.27 0 001-1.34l.08-.6a2.29 2.29 0 00-.3-1.14 1.76 1.76 0 01-.26-.44l.22.54a2.18 2.18 0 01-.15-.57l.08.6a2.57 2.57 0 010-.62l-.08.6a2.55 2.55 0 01.15-.54l-.23.54a1.59 1.59 0 01.15-.29 1.81 1.81 0 00.27-.84 1.83 1.83 0 000-.9 1.71 1.71 0 00-.41-.76 1.6 1.6 0 00-.63-.58 2.28 2.28 0 00-1.73-.23l-.54.23a2.25 2.25 0 00-.81.81zM605 1538.33l.78 3.89a2.29 2.29 0 001 1.35 2.35 2.35 0 001.74.23 2.29 2.29 0 001.34-1l.23-.54a2.19 2.19 0 000-1.19l-.78-3.9a2.27 2.27 0 00-1-1.34 2.35 2.35 0 00-1.74-.23 2.29 2.29 0 00-1.34 1l-.23.53a2.44 2.44 0 000 1.2zM654.48 1548.07v2.46a1.64 1.64 0 00.2.87 1.62 1.62 0 00.46.72 1.7 1.7 0 00.72.47 1.63 1.63 0 00.87.19l.6-.08a2.17 2.17 0 001-.58 2.31 2.31 0 00.66-1.59v-2.46a2.48 2.48 0 00-.66-1.6 2.48 2.48 0 00-1.59-.65l-.6.08a2.24 2.24 0 00-1 .57 2.38 2.38 0 00-.66 1.6zM598.32 1477.81a4.44 4.44 0 001.92 0 3.87 3.87 0 00.65-.23 5.12 5.12 0 00.62-.31 4.91 4.91 0 001.32-1.33 4.28 4.28 0 00.39-.84 1.62 1.62 0 00.12-.43 1.83 1.83 0 000-.9 1.81 1.81 0 00-.27-.84 2.25 2.25 0 00-3.08-.8l-.45.35a2.17 2.17 0 00-.58 1 3.83 3.83 0 00-.18 1 2.4 2.4 0 000 .46 5.32 5.32 0 00.52 1.92 2.88 2.88 0 00.22.38 5.73 5.73 0 00.63.77 4.64 4.64 0 001.69 1 1.83 1.83 0 00.9 0 1.77 1.77 0 00.83-.27 2.32 2.32 0 001-1.34 2.29 2.29 0 00-.23-1.74l-.35-.45a2.15 2.15 0 00-1-.58h-.08l.54.23a2.09 2.09 0 01-.44-.25l.45.35a3.59 3.59 0 01-.39-.39l.35.45a2.43 2.43 0 01-.3-.52l.22.54a2.72 2.72 0 01-.17-.62l.08.6a2.1 2.1 0 010-.56l-.08.6a1.8 1.8 0 01.1-.4l-4.34-1.2a1.67 1.67 0 01-.13.45l.23-.53a2.12 2.12 0 01-.21.36l.35-.46a2.53 2.53 0 01-.36.37l.45-.35a2.07 2.07 0 01-.45.27l.54-.23a2.11 2.11 0 01-.49.14l.59-.08a1.77 1.77 0 01-.46 0l.59.08h-.14a2.38 2.38 0 00-1.73.23 2.24 2.24 0 00-1 1.34 2.25 2.25 0 001.57 2.77zM600.82 1452l2.47 1a1.83 1.83 0 00.9 0 1.81 1.81 0 00.84-.27 1.76 1.76 0 00.63-.58 1.68 1.68 0 00.4-.77l.08-.59a2.17 2.17 0 00-.31-1.14l-.35-.45a2.17 2.17 0 00-1-.58l-2.47-1a2.56 2.56 0 00-1.73.22 1.79 1.79 0 00-.64.58 1.83 1.83 0 00-.4.77l-.08.6a2.26 2.26 0 00.31 1.13l.35.46a2.26 2.26 0 001 .58zM565.9 1430.06a3.69 3.69 0 01.88 0l-.6-.08a4.3 4.3 0 011 .26l-.53-.22a4.09 4.09 0 01.9.53l-.46-.36a4.12 4.12 0 01.66.66l-.35-.45a3.37 3.37 0 01.47.8 1.76 1.76 0 00.58.63 1.68 1.68 0 00.77.4 2.32 2.32 0 001.73-.22 2.29 2.29 0 001-1.35l.08-.6a2.25 2.25 0 00-.3-1.13 5.54 5.54 0 00-1-1.47 4.2 4.2 0 00-.44-.41 7.73 7.73 0 00-.94-.68 5.67 5.67 0 00-1.63-.67 5.43 5.43 0 00-1.8-.16 2.63 2.63 0 00-1.59.66 2.26 2.26 0 000 3.19 2.15 2.15 0 001.59.65zM549.74 1463.14a6 6 0 00.9 3.09 6.1 6.1 0 002.31 2.2 2.37 2.37 0 001.73.23 2.29 2.29 0 001.34-1 2.24 2.24 0 00-.8-3.07 3.82 3.82 0 01-.58-.37l.45.35a4.15 4.15 0 01-.69-.7l.35.46a4.05 4.05 0 01-.52-.9l.22.54a4.22 4.22 0 01-.27-1l.08.6v-.39a2.4 2.4 0 00-.66-1.59 2.27 2.27 0 00-1.59-.66 2.24 2.24 0 00-2.25 2.25zM523.21 1447.87a5.26 5.26 0 002 7.22 4.79 4.79 0 002.19.57 5.07 5.07 0 00.56-.05l.6-.08h.08.33.06l-.24-.1c.15.1.15.09 0 0s-.16-.12 0 0l-.21-.25c.24.34-.09-.44 0-.05a1.42 1.42 0 010 .2v-.24a3.7 3.7 0 000 .74s-.05.44 0 .45.09-.57 0 0h4.34a52.4 52.4 0 01-3-11.35 2.25 2.25 0 00-2.76-1.57 3.61 3.61 0 00-2.42 2.64 3.53 3.53 0 001 3.47 2.25 2.25 0 003.18-3.18l-.18-.16a1.16 1.16 0 01.35.59c-.06-.24-.06-.15 0 .24a1 1 0 010-.24c-.06.4-.07.48 0 .24-.16.35-.18.42-.07.21-.25.29-.29.35-.13.19a1.18 1.18 0 01-.58.34l-2.77-1.57a52.31 52.31 0 003 11.34 2.32 2.32 0 002.17 1.65 2.27 2.27 0 002.17-1.65 6.91 6.91 0 00-.3-4.31c-.83-1.76-2.72-2.23-4.5-2h-.27a3.24 3.24 0 00-.44 0c-.25 0 .51.14.15 0l-.19-.06c-.16 0-.08 0 .25.11a1.08 1.08 0 00-.28-.15c-.23-.09.36.35.1.08a3.5 3.5 0 00-.28-.27c.1 0 .3.46.08.09l-.17-.29c-.22-.36.13.47 0 .06 0-.09-.06-.17-.08-.25-.1-.41.1-.13 0 .09a.86.86 0 000-.32c0-.26-.14.52 0 .15a1.21 1.21 0 010-.18q.08-.26-.12.24c.08-.06.15-.26.2-.34a2.26 2.26 0 00-.81-3.08 2.3 2.3 0 00-3.08.81zM523.42 1388.85h4a2.36 2.36 0 001.59-.65 2.33 2.33 0 00.66-1.6 2.31 2.31 0 00-.67-1.6 2.35 2.35 0 00-1.59-.66h-4a2.38 2.38 0 00-1.6.66 2.28 2.28 0 000 3.19 2.37 2.37 0 001.6.65zM597 1381.69l.2.08-.54-.23a5.45 5.45 0 011.12.65l-.46-.35a5.75 5.75 0 011 1l-.36-.45a5.47 5.47 0 01.69 1.16l-.23-.54a4.71 4.71 0 01.26.83 2.25 2.25 0 004.12.53 2.41 2.41 0 00.22-1.73 7.58 7.58 0 00-1.73-3.23 7.4 7.4 0 00-3.06-2 1.72 1.72 0 00-.9 0 1.6 1.6 0 00-.83.27 2.23 2.23 0 00-.81 3.07l.35.46a2.24 2.24 0 001 .58zM658.1 1393.11a8 8 0 00.36.92 3.72 3.72 0 00.21.39 5.8 5.8 0 00.9 1.08 4.85 4.85 0 001.16.79 6.1 6.1 0 00.92.37 6.72 6.72 0 001 .16 1.73 1.73 0 00.87-.19 1.7 1.7 0 00.72-.47 1.62 1.62 0 00.46-.72 1.64 1.64 0 00.2-.87l-.08-.6a2.26 2.26 0 00-.58-1l-.46-.35a2.26 2.26 0 00-1.13-.31l.6.08a3.28 3.28 0 01-.68-.19l.53.23a3.18 3.18 0 01-.64-.38l.45.35a2.9 2.9 0 01-.52-.53l.35.46a2.72 2.72 0 01-.36-.61l.22.53a2.06 2.06 0 01-.12-.35 1.73 1.73 0 00-.4-.77 1.85 1.85 0 00-.63-.58 1.69 1.69 0 00-.84-.26 1.62 1.62 0 00-.9 0 2.24 2.24 0 00-1.34 1 2.35 2.35 0 00-.23 1.74z" fill="#8d8d8c" opacity=".6"/><path d="M519.24 1420.92a30.93 30.93 0 012.26-2.32l.92-.8c.2-.18.41-.35.62-.52-.37.29-.36.28.06 0s.63-.47 1-.68.42-.27.63-.39c.47-.23.45-.23-.06 0 .51-.13.46-.16-.14-.08h-.14l-.46-.19a5.84 5.84 0 01.57.35 25.1 25.1 0 005.74 2.82l1.1.39c.21.07 1.72.73.68.23a8.35 8.35 0 012 1.18c-.83-.79 0 .14.2.29s.16.16-.19-.28a6.26 6.26 0 01.34.55c-.22-.59-.25-.64-.09-.17s.12.42 0-.16a2.61 2.61 0 011.75-2.57q.54-.2 0 0c-.49.12-1 .27-1.48.37-.27.06-.53.12-.8.16.46 0 .52-.06.19 0s-.94 0-1.41 0c1.06.09-.42-.08-.59-.25.54.24.66.28.36.13l-.41-.23-.52-.34c-.4-.29-.35-.25.15.13-.56-.22-1.25-1.11-1.68-1.51a21.14 21.14 0 00-4.49-3.45 4.57 4.57 0 00-6.61 2.69 19 19 0 00-.64 6.49c.06.92.2 1.83.29 2.75 0 .28 0 .57.06.86s0 .38 0 .57c.11-.68.13-.84.07-.5-.24 1 .31-.47.56-.71a2.93 2.93 0 012.51-.66 1.73 1.73 0 01.85.53c-.33-.34-.31-.31.05.1l-.18-.32c.21.53.22.55 0 .07-.62-2-1.25-3.9-1.88-5.86a4.5 4.5 0 00-8.68 2.4c.85 2.65 1.47 5.65 2.84 8.09 1.84 3.3 6.22 5.11 9.61 3 2.55-1.61 3.45-4.66 3.16-7.53-.12-1.19-.29-2.38-.33-3.58 0-.69 0-1.36.05-2 0 .44-.08.4 0 0s.18-.8.3-1.19l-6.61 2.69a9.38 9.38 0 011 .56c.13.08.71.48.19.11.61.54 1.21 1.09 1.81 1.64a17.61 17.61 0 004.35 3.24 12.88 12.88 0 008 .84c2.4-.42 5.08-1.22 6.33-3.51 2.61-4.76-1.25-10-5.47-12.09-1.88-.94-3.9-1.5-5.84-2.29.9.37-.48-.27-.66-.37s-.63-.39-.93-.6a8.64 8.64 0 00-3.16-1.55c-2.88-.59-5.55.52-7.84 2.2a35.22 35.22 0 00-5.69 5.08c-1.56 1.76-1.86 4.65 0 6.36s4.7 1.88 6.37 0z" fill="#8d8d8c"/></g><path d="M279.44 1264.71s61.79 24.3 203.69 19.8S676 1248.32 676 1248.32l20.1 342.25-158.7-1.86-28.9-196.6-25.5 8.67-8.88 196.22-153.94-.22z" fill="none" stroke="#262521" stroke-linecap="round" stroke-linejoin="round" stroke-width="3"/><path d="M752.23 1043.21c-3.83-55.86-22.88-124.62-22.88-124.62s-14.59-307-52.89-332c-10.88-7.1-142.29-56.2-142.29-56.2s-2.49 55-82.84 55c-65.08 0-82.1-39.23-86.21-51.37a10.75 10.75 0 01-.75-2.6c-1 .65-100.94 62.7-145.44 89.51-44.73 26.95-26.68 324.27-26.68 324.27a619.79 619.79 0 00-3.6 128.12c5.53 68.43-1.88 179.21 14.45 197.94l61-1.5s-5.6-14.34-4.65-27c2.27-30.22 5.53-104.26 15.36-135.22s21.45-88.31 21.45-88.32c.49 23.68.3 42.22-1 50.32-3.6 21.92-28.56 160.73-14.67 191-3.34 29.29 2.3 68.44 2.3 68.44s128 21.28 204.94 20.35c137.53-1.66 197-25.83 197-25.83s-1.28-35.71-4.33-60.53c9.94-22.61-5.38-148.35-19.1-207.8 17.07 47.17 40.25 126.64 42.46 162.33 1.64 26.39 2.89 34.36 2.89 34.36h58.1s4.48-6.66 5.3-18.88-12.34-108.5-17.92-189.77z" fill="#262521" stroke="#262521" stroke-linecap="round" stroke-linejoin="round" stroke-width="3"/><path d="M662.72 1061.21c-2.42-5.66-10.08-44.46-11.9-58-2.49-18.6-2.17-37.39-2.1-56.11 0-9.42 0-18.84-.5-28.25S646.39 900 645 890.56c-2.63-18.13-5-36.31-6.44-54.59a367.15 367.15 0 01-.27-56.28c1.45-18.51 2.88-37 4.39-55.53a627.86 627.86 0 0112.32-82.5c2.67-12.27 5.87-24.53 10.64-36.17 2.71-6.6 6-13.36 10.46-19.06-12.57-7.67-119.37-48.9-119.37-48.9S542.91 605.46 452 605.32c-80.81-.13-106.72-62.19-106.7-62.28-1 .65-81.86 51.11-126.36 77.92a18.38 18.38 0 00-3.76 3c3.79 5.85 16.88 30.9 19.9 37.38 3.15 6.78 27.15 81.74 33.78 113.61 6.45 31 28.61 173.68 29.22 189.86.58 15.35 1 30.72.53 46.08a259.06 259.06 0 01-2.14 27.54c0 14.35-.33 25.34-1.27 31.08-3.6 21.92-28.56 160.73-14.67 191 102 56.9 403 27.25 399.91 2.43 9.56-21.79-4.44-144.23-17.72-201.73z" fill="url(#c)"/><path d="M364.37 531.45h0s.01-.03 0 0z" fill="#262521" stroke="#262521" stroke-linecap="round" stroke-linejoin="round" stroke-width="3"/><path d="M680.43 1263c9.94-22.61-5.38-148.35-19.1-207.8M295.19 1069.56c-3.6 21.92-28.56 160.73-14.67 191M364.37 531.45c-1 .65-100.94 62.7-145.44 89.51M676.46 586.64c-10.88-7.1-142.29-56.2-142.29-56.2" fill="none" stroke="#262521" stroke-linecap="round" stroke-linejoin="round" stroke-width="3"/><path fill="none" stroke="#636363" stroke-linecap="round" stroke-linejoin="round" d="M513.48 1391.61L541.96 1581"/></svg>