<svg xmlns="http://www.w3.org/2000/svg" width="1000" height="1550" viewBox="0 0 1000 1550"><path d="M364.37 531.26h0s.01-.03 0 0z" fill="#fff" stroke="#262521" stroke-linecap="round" stroke-linejoin="round" stroke-width="3"/><path d="M681.62 1298.2s1.92-708.33-5.16-711.75c-11.69-5.66-142.29-56.21-142.29-56.21s-2.49 55-82.84 55c-65.08 0-82.1-39.23-86.21-51.38-.71-2.07-134.54 81.28-146.19 86.91-2.81 1.36 65.33 680.94 65.33 680.94s114.19 3.06 194.55-9.84 202.81 6.33 202.81 6.33z" fill="#262521" stroke="#262521" stroke-linecap="round" stroke-linejoin="round" stroke-width="3"/><path d="M284.26 1301.7s114.19 3.06 194.55-9.84 202.81 6.34 202.81 6.34" fill="none" stroke="#636363" stroke-linecap="round" stroke-linejoin="round"/><path d="M453 635.05a1.66 1.66 0 010-3.31h1.6a1.67 1.67 0 011.72 1.58 1.65 1.65 0 01-1.57 1.73h-1.71zm-5-.2h-.16c-.57-.05-1.13-.11-1.7-.19a1.65 1.65 0 11.42-3.28q.8.11 1.59.18a1.65 1.65 0 01-.15 3.3zm11.53-.3a1.65 1.65 0 01-.22-3.29l1.59-.24a1.65 1.65 0 11.54 3.26c-.56.09-1.12.18-1.68.25zm-18-.78a1.72 1.72 0 01-.39 0l-1.66-.43a1.66 1.66 0 01.9-3.19c.51.14 1 .28 1.54.4a1.65 1.65 0 01-.39 3.26zm24.51-.48a1.65 1.65 0 01-.41-3.25l1.55-.43a1.66 1.66 0 01.91 3.19l-1.64.44a1.48 1.48 0 01-.45.05zm-30.79-1.52a1.66 1.66 0 01-.61-.12c-.53-.21-1.06-.43-1.58-.66a1.66 1.66 0 011.34-3c.48.22 1 .42 1.47.62a1.65 1.65 0 01-.62 3.19zm37.07-.49a1.66 1.66 0 01-.6-3.2c.5-.19 1-.39 1.48-.6a1.66 1.66 0 011.3 3l-1.58.64a1.81 1.81 0 01-.6.16zm-43-2.37a1.72 1.72 0 01-.82-.21l-1.47-.87a1.65 1.65 0 111.73-2.82c.45.27.91.55 1.37.81a1.65 1.65 0 01-.81 3.09zm-19.48-17.62a1.64 1.64 0 01-1.31-.64l-1-1.35a1.66 1.66 0 012.66-2c.32.44.65.87 1 1.3a1.65 1.65 0 01-1.31 2.66zm-3.84-5.38a1.64 1.64 0 01-1.37-.73l-.93-1.4a1.66 1.66 0 112.78-1.8c.29.46.59.91.9 1.36a1.65 1.65 0 01-.46 2.29 1.63 1.63 0 01-.92.28zm100-5.07a1.6 1.6 0 01-.86-.24 1.64 1.64 0 01-.55-2.27l.85-1.4a1.65 1.65 0 112.84 1.69c-.29.48-.57 1-.87 1.43a1.64 1.64 0 01-1.41.79zm-103.56-.53a1.67 1.67 0 01-1.43-.82l-.84-1.44a1.66 1.66 0 012.87-1.65l.83 1.42a1.65 1.65 0 01-.6 2.26 1.58 1.58 0 01-.8.23zm106.86-5.21a1.68 1.68 0 01-.78-.2 1.65 1.65 0 01-.68-2.24l.77-1.45a1.65 1.65 0 112.93 1.53l-.78 1.48a1.66 1.66 0 01-1.43.88zm-110.08-.58a1.65 1.65 0 01-1.46-.88c-.26-.5-.52-1-.77-1.49a1.65 1.65 0 113-1.5l.74 1.45a1.65 1.65 0 01-.69 2.23 1.62 1.62 0 01-.79.19zm113.06-5.34a1.62 1.62 0 01-.7-.16 1.65 1.65 0 01-.79-2.2l.69-1.49a1.66 1.66 0 013 1.38l-.71 1.52a1.65 1.65 0 01-1.46.95zm2.7-6a1.63 1.63 0 01-.64-.13 1.65 1.65 0 01-.89-2.16l.63-1.52a1.65 1.65 0 113.06 1.25l-.63 1.54a1.66 1.66 0 01-1.51.97zm2.43-6.16a1.75 1.75 0 01-.58-.11 1.67 1.67 0 01-1-2.13c.2-.51.38-1 .57-1.53a1.65 1.65 0 113.11 1.12c-.19.52-.38 1-.58 1.57a1.65 1.65 0 01-1.49 1.06z" fill="#b7b6b0"/><path d="M454.57 637.6h-1.7a1.65 1.65 0 11.13-3.3h1.61a1.66 1.66 0 010 3.31zm4.95-.17a1.65 1.65 0 01-.13-3.3L461 634a1.65 1.65 0 11.37 3.28c-.56.07-1.13.12-1.7.17zm-11.52-.29h-.22c-.57-.07-1.13-.16-1.69-.25a1.65 1.65 0 11.54-3.26l1.59.23a1.66 1.66 0 01-.22 3.3zm18.07-.64a1.66 1.66 0 01-.34-3.28c.53-.11 1.05-.22 1.56-.35a1.67 1.67 0 012 1.22 1.65 1.65 0 01-1.21 2c-.56.14-1.11.26-1.67.38a1.32 1.32 0 01-.36.03zm-24.55-.65a1.65 1.65 0 01-.43-.06c-.55-.14-1.09-.3-1.64-.46a1.66 1.66 0 011-3.17c.51.16 1 .3 1.54.44a1.65 1.65 0 01-.43 3.25zm30.91-1.12a1.66 1.66 0 01-.54-3.22c.5-.17 1-.36 1.5-.55a1.65 1.65 0 111.19 3.08c-.53.21-1.06.41-1.6.59a1.52 1.52 0 01-.57.1zm-37.17-1a1.5 1.5 0 01-.62-.13c-.53-.21-1.05-.43-1.57-.66a1.66 1.66 0 011.34-3c.49.22 1 .43 1.48.63a1.66 1.66 0 01-.63 3.19zm43.25-1.6a1.65 1.65 0 01-.74-3.13c.48-.24.95-.49 1.42-.74a1.66 1.66 0 011.58 2.91c-.5.27-1 .53-1.52.79a1.63 1.63 0 01-.76.19zm-49.2-1.27a1.72 1.72 0 01-.81-.21c-.49-.27-1-.56-1.46-.85a1.65 1.65 0 111.69-2.84c.46.28.92.54 1.39.8a1.66 1.66 0 01.63 2.25 1.63 1.63 0 01-1.46.87zm-5.58-3.54a1.64 1.64 0 01-1-.31c-.46-.32-.92-.66-1.37-1a1.65 1.65 0 112-2.64l1.3 1a1.64 1.64 0 01.39 2.3 1.68 1.68 0 01-1.34.67zm79.19-17.05a1.64 1.64 0 01-1-.31 1.66 1.66 0 01-.38-2.31l.95-1.33a1.65 1.65 0 012.71 1.89c-.32.47-.65.92-1 1.38a1.62 1.62 0 01-1.3.7zm-97.59-1.83a1.65 1.65 0 01-1.34-.69c-.33-.46-.66-.91-1-1.38a1.65 1.65 0 012.72-1.88c.31.44.62.89.94 1.33a1.66 1.66 0 01-1.34 2.62zm101.29-3.65a1.67 1.67 0 01-.88-.26 1.65 1.65 0 01-.52-2.28l.86-1.38a1.65 1.65 0 112.82 1.72c-.29.48-.58.95-.88 1.42a1.66 1.66 0 01-1.42.8zM401.6 603a1.65 1.65 0 01-1.4-.77l-.89-1.42a1.66 1.66 0 112.82-1.74l.87 1.4a1.65 1.65 0 01-1.4 2.53zm108.4-3.9a1.64 1.64 0 01-.8-.2 1.66 1.66 0 01-.65-2.25c.27-.48.53-1 .79-1.44a1.65 1.65 0 112.91 1.56c-.26.5-.53 1-.8 1.48a1.64 1.64 0 01-1.45.85zm3.07-5.88a1.77 1.77 0 01-.73-.17 1.66 1.66 0 01-.75-2.22c.24-.49.48-1 .71-1.47a1.66 1.66 0 013 1.42c-.24.51-.49 1-.73 1.51a1.66 1.66 0 01-1.57.93zm2.79-6a1.7 1.7 0 01-.66-.14 1.65 1.65 0 01-.85-2.18c.22-.51.44-1 .65-1.51a1.65 1.65 0 013 1.3l-.66 1.54a1.67 1.67 0 01-1.52.98z" fill="#7f7e78"/><path d="M478.32 628.53a1.66 1.66 0 01-.78-3.12l1.41-.77a1.65 1.65 0 011.64 2.87c-.49.28-1 .56-1.5.83a1.65 1.65 0 01-.77.19zm-54.52-3.23a1.59 1.59 0 01-1-.33c-.45-.33-.9-.68-1.35-1a1.65 1.65 0 112-2.6c.43.34.85.66 1.28 1a1.65 1.65 0 01-1 3zm60.17-.21a1.66 1.66 0 01-.94-3c.45-.3.88-.61 1.32-.92a1.65 1.65 0 111.94 2.67c-.45.33-.92.66-1.38 1a1.63 1.63 0 01-.91.25zm-65.25-4a1.62 1.62 0 01-1.12-.44l-1.23-1.16a1.65 1.65 0 012.3-2.38c.39.38.78.75 1.18 1.11a1.66 1.66 0 01-1.13 2.87zm70.48 0a1.65 1.65 0 01-1.07-2.91l1.21-1.06a1.65 1.65 0 012.21 2.46c-.42.38-.85.75-1.27 1.11a1.64 1.64 0 01-1.08.38zm4.81-4.51a1.69 1.69 0 01-1.16-.47 1.67 1.67 0 010-2.34q.57-.57 1.11-1.17a1.66 1.66 0 012.43 2.25q-.57.61-1.17 1.23a1.64 1.64 0 01-1.22.48zm-79.93-.18a1.67 1.67 0 01-1.23-.55c-.37-.42-.75-.84-1.11-1.27a1.65 1.65 0 01.16-2.33 1.67 1.67 0 012.34.17c.35.41.71.81 1.07 1.21a1.66 1.66 0 01-.12 2.34 1.68 1.68 0 01-1.11.41zm84.33-4.76a1.62 1.62 0 01-1.05-.38 1.64 1.64 0 01-.23-2.32l1-1.26a1.65 1.65 0 012.59 2.05l-1.03 1.27a1.64 1.64 0 01-1.28.62zm4-5.25a1.65 1.65 0 01-1.35-2.61l.93-1.33a1.65 1.65 0 112.73 1.86l-.95 1.38a1.69 1.69 0 01-1.37.68z" fill="#f4f4f4"/><path d="M484.21 628.84a1.65 1.65 0 01-1.38-.74 1.67 1.67 0 01.47-2.3q.66-.43 1.32-.9a1.65 1.65 0 011.9 2.71l-1.4.95a1.6 1.6 0 01-.91.28zm5.3-4a1.65 1.65 0 01-1.06-2.92l1.23-1.05a1.65 1.65 0 012.18 2.49l-1.29 1.1a1.64 1.64 0 01-1.06.43zm-71-1.66a1.64 1.64 0 01-1.08-.4c-.43-.38-.85-.75-1.27-1.14a1.66 1.66 0 012.24-2.44q.58.56 1.2 1.08a1.65 1.65 0 01-1.09 2.9zm75.87-2.81a1.66 1.66 0 01-1.18-2.82c.38-.38.76-.77 1.13-1.16a1.66 1.66 0 012.4 2.28c-.39.41-.78.81-1.18 1.21a1.63 1.63 0 01-1.16.54zm-80.65-1.76a1.62 1.62 0 01-1.19-.51l-1.16-1.23a1.65 1.65 0 112.43-2.24l1.11 1.18a1.66 1.66 0 01-1.19 2.8zm85.1-3.13a1.66 1.66 0 01-1.26-2.72l1-1.25a1.65 1.65 0 112.57 2.07c-.35.44-.71.87-1.07 1.3a1.64 1.64 0 01-1.23.65zm-89.49-1.82a1.64 1.64 0 01-1.28-.61c-.36-.43-.71-.86-1.06-1.31a1.65 1.65 0 112.59-2l1 1.26a1.66 1.66 0 01-1.27 2.71z" fill="#f4f4f4"/><path d="M437.52 743.26c-1.49-37.81-49.08-194.87-60.68-215.2 3.16-2.23 5.28-4.31 6-6.15 2-5.21 2.69-13 2.68-21L380 501c-30.35-3.08-73.6 59.17-75.92 60.41h0c-29.94 19-59.32 40.58-85.19 59.32-44.73 27-35.81 384-30.28 452.4 5.65 69.91 0 239.25 5.69 259.2l89.1-1.54L287 1244c18.34.81 48.64.62 94.44-1.47 3.81-47.37 57.63-459.91 56.08-499.27z" fill="#262521" stroke="#262521" stroke-linecap="round" stroke-linejoin="round" stroke-width="3"/><path d="M287 1244c18.34.81 48.64.62 94.44-1.47 3.81-47.39 57.63-459.93 56.08-499.29-1.49-37.81-49.08-194.87-60.68-215.2" fill="none" stroke="#636363" stroke-linecap="round" stroke-linejoin="round"/><path d="M752.23 1043c-3.83-55.87-37.47-431.58-75.77-456.57-33.32-21.7-70.55-35-107.81-47.67-6.52-12.32-24.82-41.19-53.23-41.19l-2.14.05c.77 12.89 2.54 25.12 6.38 28.41A36 36 0 00527 530c-9.61 29.48-34.8 188.64-34.8 228.83 0 44.66 27.72 439 36 480.67 65-1.29 146.19-2.86 146.49-3.9 1-3.55 1.74-9.82 2.16-18.29 6.13 55.14 11.07 101.12 11.07 101.12s99.8 2.06 100.61-10.16-30.72-183.99-36.3-265.27z" fill="#262521" stroke="#262521" stroke-linecap="round" stroke-linejoin="round" stroke-width="3"/><path d="M528.16 1239.45c65-1.29 146.19-2.86 146.49-3.9M527 530c-9.61 29.48-34.8 188.64-34.8 228.83M302.61 564.58S282.2 599 272.13 614.36s154.93 26.93 160.54 142" fill="none" stroke="#636363" stroke-linecap="round" stroke-linejoin="round"/><path d="M351.06 656.57c.23.22.46.46.69.71" fill="none" stroke="#8e8e8e" stroke-linecap="round" stroke-linejoin="round" stroke-width="3"/><path d="M354.52 661.41c32.85 61.86 24.92 529.42 24.07 574.5" fill="none" stroke="#8e8e8e" stroke-linecap="round" stroke-linejoin="round" stroke-width="3" stroke-dasharray="1.99 4.98"/><path d="M378.54 1238.41v1" fill="none" stroke="#8e8e8e" stroke-linecap="round" stroke-linejoin="round" stroke-width="3"/><path d="M276 738c-17.9-115.78-55.39-114-55.39-114M387.52 562.5s-48.2 42.71-44.2 77.59M194.49 1276.94s43.3 6 86-3.39M372.64 1204.13s-45.45 7.55-111.63 1.25M281.58 1074.41L331 980.46l-24.79-13.04-25.33 48.15M572.33 542.75S632.37 609 633 621.2" fill="none" stroke="#636363" stroke-linecap="round" stroke-linejoin="round"/><path d="M633 621.2c.64 12.25-116.52 13.47-140.86 133.25 0 0 17.87 286 36 485" fill="none" stroke="#8e8e8e" stroke-linecap="round" stroke-linejoin="round" stroke-width="3" stroke-dasharray="2 5"/><path d="M522 562.44s49.09 41.29 49.09 76.12M677.46 589.84s-20.07 31.36-23.94 131M684 1259.42s59.21 4.08 90-4M530.61 1204.36s96.19 8.05 144.5-4.66M666.65 1068.13l-53.3-92.33 24.35-14.06 27.33 47.32" fill="none" stroke="#636363" stroke-linecap="round" stroke-linejoin="round"/></svg>