<svg xmlns="http://www.w3.org/2000/svg" width="1250" height="1550" viewBox="0 0 1250 1550"><title>s02e07-02</title><path d="M489.37,531.26l0,0S489.38,531.23,489.37,531.26Z" fill="#fff" stroke="#262521" stroke-linecap="round" stroke-linejoin="round" stroke-width="3"/><path d="M806.62,1298.2s1.92-708.33-5.16-711.75c-11.69-5.66-142.29-56.21-142.29-56.21s-2.49,55-82.84,55c-65.08,0-82.1-39.23-86.21-51.38-.71-2.07-134.54,81.28-146.19,86.91-2.81,1.36,65.33,680.94,65.33,680.94s114.19,3.06,194.55-9.84S806.62,1298.2,806.62,1298.2Z" fill="#262521" stroke="#262521" stroke-linecap="round" stroke-linejoin="round" stroke-width="3"/><path d="M409.26,1301.7s114.19,3.06,194.55-9.84,202.81,6.34,202.81,6.34" fill="none" stroke="#636363" stroke-linecap="round" stroke-linejoin="round"/><path d="M578,635.05a1.66,1.66,0,0,1,0-3.31c.53,0,1.06,0,1.6,0a1.67,1.67,0,0,1,1.72,1.58,1.65,1.65,0,0,1-1.57,1.73l-1.71,0Zm-5-.2h-.16c-.57-.05-1.13-.11-1.7-.19a1.65,1.65,0,0,1,.42-3.28q.79.11,1.59.18a1.65,1.65,0,0,1-.15,3.3Zm11.53-.3a1.65,1.65,0,0,1-.22-3.29l1.59-.24a1.65,1.65,0,0,1,.54,3.26c-.56.09-1.12.18-1.68.25Zm-18-.78a1.72,1.72,0,0,1-.39,0l-1.66-.43a1.66,1.66,0,0,1,.9-3.19c.51.14,1,.28,1.54.4a1.65,1.65,0,0,1-.39,3.26Zm24.51-.48a1.65,1.65,0,0,1-.41-3.25l1.55-.43a1.66,1.66,0,0,1,.91,3.19l-1.64.44A1.48,1.48,0,0,1,591,633.29Zm-30.79-1.52a1.66,1.66,0,0,1-.61-.12c-.53-.21-1.06-.43-1.58-.66a1.66,1.66,0,0,1,1.34-3c.48.22,1,.42,1.47.62a1.65,1.65,0,0,1-.62,3.19Zm37.07-.49a1.66,1.66,0,0,1-.6-3.2c.5-.19,1-.39,1.48-.6a1.66,1.66,0,0,1,1.3,3l-1.58.64A1.81,1.81,0,0,1,597.32,631.28Zm-43-2.37a1.72,1.72,0,0,1-.82-.21l-1.47-.87a1.65,1.65,0,1,1,1.73-2.82c.45.27.91.55,1.37.81a1.65,1.65,0,0,1-.81,3.09Zm-19.48-17.62a1.64,1.64,0,0,1-1.31-.64l-1-1.35a1.66,1.66,0,0,1,2.66-2c.32.44.65.87,1,1.3a1.65,1.65,0,0,1-1.31,2.66ZM531,605.91a1.64,1.64,0,0,1-1.37-.73l-.93-1.4a1.66,1.66,0,0,1,2.78-1.8c.29.46.59.91.9,1.36a1.65,1.65,0,0,1-.46,2.29A1.63,1.63,0,0,1,531,605.91Zm100-5.07a1.6,1.6,0,0,1-.86-.24,1.64,1.64,0,0,1-.55-2.27l.85-1.4a1.65,1.65,0,1,1,2.84,1.69c-.29.48-.57,1-.87,1.43A1.64,1.64,0,0,1,631,600.84Zm-103.56-.53a1.67,1.67,0,0,1-1.43-.82l-.84-1.44a1.66,1.66,0,0,1,2.87-1.65l.83,1.42a1.65,1.65,0,0,1-.6,2.26A1.58,1.58,0,0,1,527.47,600.31Zm106.86-5.21a1.68,1.68,0,0,1-.78-.2,1.65,1.65,0,0,1-.68-2.24l.77-1.45a1.65,1.65,0,0,1,2.93,1.53l-.78,1.48A1.66,1.66,0,0,1,634.33,595.1Zm-110.08-.58a1.65,1.65,0,0,1-1.46-.88c-.26-.5-.52-1-.77-1.49a1.65,1.65,0,1,1,3-1.5l.74,1.45a1.65,1.65,0,0,1-.69,2.23A1.62,1.62,0,0,1,524.25,594.52Zm113.06-5.34a1.62,1.62,0,0,1-.7-.16,1.65,1.65,0,0,1-.79-2.2l.69-1.49a1.66,1.66,0,0,1,3,1.38l-.71,1.52A1.65,1.65,0,0,1,637.31,589.18Zm2.7-6a1.63,1.63,0,0,1-.64-.13,1.65,1.65,0,0,1-.89-2.16l.63-1.52a1.65,1.65,0,1,1,3.06,1.25l-.63,1.54A1.66,1.66,0,0,1,640,583.13Zm2.43-6.16a1.75,1.75,0,0,1-.58-.11,1.67,1.67,0,0,1-1-2.13c.2-.51.38-1,.57-1.53a1.65,1.65,0,1,1,3.11,1.12c-.19.52-.38,1-.58,1.57A1.65,1.65,0,0,1,642.44,577Z" fill="#b7b6b0"/><path d="M579.57,637.6h0c-.57,0-1.14,0-1.7,0a1.65,1.65,0,1,1,.13-3.3c.53,0,1.07,0,1.61,0a1.66,1.66,0,0,1,0,3.31Zm4.95-.17a1.65,1.65,0,0,1-.13-3.3L586,634a1.65,1.65,0,1,1,.37,3.28c-.56.07-1.13.12-1.7.17ZM573,637.14l-.22,0c-.57-.07-1.13-.16-1.69-.25a1.65,1.65,0,1,1,.54-3.26l1.59.23a1.66,1.66,0,0,1-.22,3.3Zm18.07-.64a1.66,1.66,0,0,1-.34-3.28c.53-.11,1-.22,1.56-.35a1.67,1.67,0,0,1,2,1.22,1.65,1.65,0,0,1-1.21,2c-.56.14-1.11.26-1.67.38A1.32,1.32,0,0,1,591.05,636.5Zm-24.55-.65a1.65,1.65,0,0,1-.43-.06c-.55-.14-1.09-.3-1.64-.46a1.66,1.66,0,0,1,1-3.17c.51.16,1,.3,1.54.44a1.65,1.65,0,0,1-.43,3.25Zm30.91-1.12a1.66,1.66,0,0,1-.54-3.22c.5-.17,1-.36,1.5-.55a1.65,1.65,0,1,1,1.19,3.08c-.53.21-1.06.41-1.6.59A1.52,1.52,0,0,1,597.41,634.73Zm-37.17-1a1.5,1.5,0,0,1-.62-.13c-.53-.21-1-.43-1.57-.66a1.66,1.66,0,0,1,1.34-3c.49.22,1,.43,1.48.63a1.66,1.66,0,0,1-.63,3.19Zm43.25-1.6a1.65,1.65,0,0,1-.74-3.13c.48-.24,1-.49,1.42-.74a1.66,1.66,0,0,1,1.58,2.91c-.5.27-1,.53-1.52.79A1.63,1.63,0,0,1,603.49,632.15Zm-49.2-1.27a1.72,1.72,0,0,1-.81-.21c-.49-.27-1-.56-1.46-.85a1.65,1.65,0,1,1,1.69-2.84c.46.28.92.54,1.39.8a1.66,1.66,0,0,1,.63,2.25A1.63,1.63,0,0,1,554.29,630.88Zm-5.58-3.54a1.64,1.64,0,0,1-1-.31c-.46-.32-.92-.66-1.37-1a1.65,1.65,0,1,1,2-2.64l1.3,1a1.64,1.64,0,0,1,.39,2.3A1.68,1.68,0,0,1,548.71,627.34Zm79.19-17.05a1.64,1.64,0,0,1-1-.31,1.66,1.66,0,0,1-.38-2.31l1-1.33a1.65,1.65,0,1,1,2.71,1.89c-.32.47-.65.92-1,1.38A1.62,1.62,0,0,1,627.9,610.29Zm-97.59-1.83a1.65,1.65,0,0,1-1.34-.69c-.33-.46-.66-.91-1-1.38a1.65,1.65,0,1,1,2.72-1.88c.31.44.62.89.94,1.33a1.66,1.66,0,0,1-1.34,2.62Zm101.29-3.65a1.67,1.67,0,0,1-.88-.26,1.65,1.65,0,0,1-.52-2.28l.86-1.38a1.65,1.65,0,1,1,2.82,1.72c-.29.48-.58.95-.88,1.42A1.66,1.66,0,0,1,631.6,604.81ZM526.6,603a1.65,1.65,0,0,1-1.4-.77l-.89-1.42a1.66,1.66,0,1,1,2.82-1.74l.87,1.4a1.65,1.65,0,0,1-1.4,2.53ZM635,599.1a1.64,1.64,0,0,1-.8-.2,1.66,1.66,0,0,1-.65-2.25c.27-.48.53-1,.79-1.44a1.65,1.65,0,1,1,2.91,1.56c-.26.5-.53,1-.8,1.48A1.64,1.64,0,0,1,635,599.1Zm3.07-5.88a1.77,1.77,0,0,1-.73-.17,1.66,1.66,0,0,1-.75-2.22c.24-.49.48-1,.71-1.47a1.66,1.66,0,0,1,3,1.42c-.24.51-.49,1-.73,1.51A1.66,1.66,0,0,1,638,593.22Zm2.79-6a1.7,1.7,0,0,1-.66-.14,1.65,1.65,0,0,1-.85-2.18c.22-.51.44-1,.65-1.51a1.65,1.65,0,0,1,3,1.3l-.66,1.54A1.67,1.67,0,0,1,640.82,587.21Z" fill="#7f7e78"/><path d="M603.32,628.53a1.66,1.66,0,0,1-.78-3.12l1.41-.77a1.65,1.65,0,0,1,1.64,2.87c-.49.28-1,.56-1.5.83A1.65,1.65,0,0,1,603.32,628.53ZM548.8,625.3a1.59,1.59,0,0,1-1-.33c-.45-.33-.9-.68-1.35-1a1.65,1.65,0,1,1,2-2.6c.43.34.85.66,1.28,1a1.65,1.65,0,0,1-1,3Zm60.17-.21a1.66,1.66,0,0,1-.94-3c.45-.3.88-.61,1.32-.92a1.65,1.65,0,1,1,1.94,2.67c-.45.33-.92.66-1.38,1A1.63,1.63,0,0,1,609,625.09Zm-65.25-4a1.62,1.62,0,0,1-1.12-.44l-1.23-1.16a1.65,1.65,0,0,1,2.3-2.38c.39.38.78.75,1.18,1.11a1.66,1.66,0,0,1-1.13,2.87Zm70.48,0a1.65,1.65,0,0,1-1.07-2.91l1.21-1.06a1.65,1.65,0,0,1,2.21,2.46c-.42.38-.85.75-1.27,1.11A1.64,1.64,0,0,1,614.2,621.07Zm4.81-4.51a1.69,1.69,0,0,1-1.16-.47,1.67,1.67,0,0,1,0-2.34q.57-.57,1.11-1.17a1.66,1.66,0,1,1,2.43,2.25q-.57.61-1.17,1.23A1.64,1.64,0,0,1,619,616.56Zm-79.93-.18a1.67,1.67,0,0,1-1.23-.55c-.37-.42-.75-.84-1.11-1.27a1.65,1.65,0,0,1,.16-2.33,1.67,1.67,0,0,1,2.34.17c.35.41.71.81,1.07,1.21a1.66,1.66,0,0,1-.12,2.34A1.68,1.68,0,0,1,539.08,616.38Zm84.33-4.76a1.62,1.62,0,0,1-1-.38,1.64,1.64,0,0,1-.23-2.32l1-1.26a1.65,1.65,0,0,1,2.59,2.05l-1,1.31A1.64,1.64,0,0,1,623.41,611.62Zm4-5.25a1.65,1.65,0,0,1-1.35-2.61l.93-1.33a1.65,1.65,0,1,1,2.73,1.86l-1,1.38A1.69,1.69,0,0,1,627.4,606.37Z" fill="#f4f4f4"/><path d="M609.21,628.84a1.65,1.65,0,0,1-1.38-.74,1.67,1.67,0,0,1,.47-2.3q.66-.43,1.32-.9a1.65,1.65,0,0,1,1.9,2.71l-1.4.95A1.6,1.6,0,0,1,609.21,628.84Zm5.3-4a1.65,1.65,0,0,1-1.06-2.92l1.23-1.05a1.65,1.65,0,0,1,2.18,2.49l-1.29,1.1A1.64,1.64,0,0,1,614.51,624.89Zm-71-1.66a1.64,1.64,0,0,1-1.08-.4c-.43-.38-.85-.75-1.27-1.14a1.66,1.66,0,0,1,2.24-2.44q.58.56,1.2,1.08a1.65,1.65,0,0,1-1.09,2.9Zm75.87-2.81a1.66,1.66,0,0,1-1.18-2.82c.38-.38.76-.77,1.13-1.16a1.66,1.66,0,1,1,2.4,2.28c-.39.41-.78.81-1.18,1.21A1.63,1.63,0,0,1,619.39,620.42Zm-80.65-1.76a1.62,1.62,0,0,1-1.19-.51l-1.16-1.23a1.65,1.65,0,1,1,2.43-2.24l1.11,1.18a1.66,1.66,0,0,1-1.19,2.8Zm85.1-3.13a1.66,1.66,0,0,1-1.26-2.72l1-1.25a1.65,1.65,0,1,1,2.57,2.07c-.35.44-.71.87-1.07,1.3A1.64,1.64,0,0,1,623.84,615.53Zm-89.49-1.82a1.64,1.64,0,0,1-1.28-.61c-.36-.43-.71-.86-1.06-1.31a1.65,1.65,0,1,1,2.59-2l1,1.26a1.66,1.66,0,0,1-1.27,2.71Z" fill="#f4f4f4"/><path d="M562.52,743.26c-1.49-37.81-49.08-194.87-60.68-215.2,3.16-2.23,5.28-4.31,6-6.15,2-5.21,2.69-13,2.68-21L505,501c-30.35-3.08-73.6,59.17-75.92,60.41h0c-29.94,19-59.32,40.58-85.19,59.32-44.73,27-35.81,384-30.28,452.4,5.65,69.91,0,239.25,5.69,259.2l89.1-1.54L412,1244c18.34.81,48.64.62,94.44-1.47C510.25,1195.16,564.07,782.62,562.52,743.26Z" fill="#262521" stroke="#262521" stroke-linecap="round" stroke-linejoin="round" stroke-width="3"/><path d="M412,1244c18.34.81,48.64.62,94.44-1.47,3.81-47.39,57.63-459.93,56.08-499.29-1.49-37.81-49.08-194.87-60.68-215.2" fill="none" stroke="#636363" stroke-linecap="round" stroke-linejoin="round"/><path d="M877.23,1043c-3.83-55.87-37.47-431.58-75.77-456.57-33.32-21.7-70.55-35-107.81-47.67-6.52-12.32-24.82-41.19-53.23-41.19l-2.14.05c.77,12.89,2.54,25.12,6.38,28.41A36,36,0,0,0,652,530c-9.61,29.48-34.8,188.64-34.8,228.83,0,44.66,27.72,439,36,480.67,65-1.29,146.19-2.86,146.49-3.9,1-3.55,1.74-9.82,2.16-18.29,6.13,55.14,11.07,101.12,11.07,101.12s99.8,2.06,100.61-10.16S882.81,1124.28,877.23,1043Z" fill="#262521" stroke="#262521" stroke-linecap="round" stroke-linejoin="round" stroke-width="3"/><path d="M653.16,1239.45c65-1.29,146.19-2.86,146.49-3.9" fill="none" stroke="#636363" stroke-linecap="round" stroke-linejoin="round"/><path d="M652,530c-9.61,29.48-34.8,188.64-34.8,228.83" fill="none" stroke="#636363" stroke-linecap="round" stroke-linejoin="round"/><path d="M427.61,564.58S407.2,599,397.13,614.36s154.93,26.93,160.54,142" fill="none" stroke="#636363" stroke-linecap="round" stroke-linejoin="round"/><path d="M476.06,656.57c.23.22.46.46.69.71" fill="none" stroke="#8e8e8e" stroke-linecap="round" stroke-linejoin="round" stroke-width="3"/><path d="M479.52,661.41c32.85,61.86,24.92,529.42,24.07,574.5" fill="none" stroke="#8e8e8e" stroke-linecap="round" stroke-linejoin="round" stroke-width="3" stroke-dasharray="1.99 4.98"/><path d="M503.54,1238.41c0,.66,0,1,0,1" fill="none" stroke="#8e8e8e" stroke-linecap="round" stroke-linejoin="round" stroke-width="3"/><path d="M401,738C383.1,622.22,345.61,624,345.61,624" fill="none" stroke="#636363" stroke-linecap="round" stroke-linejoin="round"/><path d="M512.52,562.5s-48.2,42.71-44.2,77.59" fill="none" stroke="#636363" stroke-linecap="round" stroke-linejoin="round"/><path d="M319.49,1276.94s43.3,6,86-3.39" fill="none" stroke="#636363" stroke-linecap="round" stroke-linejoin="round"/><path d="M497.64,1204.13s-45.45,7.55-111.63,1.25" fill="none" stroke="#636363" stroke-linecap="round" stroke-linejoin="round"/><polyline points="406.58 1074.41 456 980.46 431.21 967.42 405.88 1015.57" fill="none" stroke="#636363" stroke-linecap="round" stroke-linejoin="round"/><path d="M697.33,542.75S757.37,609,758,621.2" fill="none" stroke="#636363" stroke-linecap="round" stroke-linejoin="round"/><path d="M758,621.2c.64,12.25-116.52,13.47-140.86,133.25,0,0,17.87,286,36,485" fill="none" stroke="#8e8e8e" stroke-linecap="round" stroke-linejoin="round" stroke-width="3" stroke-dasharray="2 5"/><path d="M647,562.44s49.09,41.29,49.09,76.12" fill="none" stroke="#636363" stroke-linecap="round" stroke-linejoin="round"/><path d="M802.46,589.84s-20.07,31.36-23.94,131" fill="none" stroke="#636363" stroke-linecap="round" stroke-linejoin="round"/><path d="M809,1259.42s59.21,4.08,90-4" fill="none" stroke="#636363" stroke-linecap="round" stroke-linejoin="round"/><path d="M655.61,1204.36s96.19,8.05,144.5-4.66" fill="none" stroke="#636363" stroke-linecap="round" stroke-linejoin="round"/><polyline points="791.65 1068.13 738.35 975.8 762.7 961.74 790.03 1009.06" fill="none" stroke="#636363" stroke-linecap="round" stroke-linejoin="round"/></svg>