<svg xmlns="http://www.w3.org/2000/svg" width="1000" height="1550" viewBox="0 0 1000 1550"><path d="M755.5 1043c-3.84-55.87-22.89-124.63-22.89-124.63S718 611.44 679.73 586.45c-10.88-7.1-142.29-56.21-142.29-56.21s-2.49 55-82.85 55c-65.08 0-82.1-39.23-86.21-51.38a11.55 11.55 0 01-.75-2.59c-1 .65-100.94 62.69-145.44 89.5C177.46 647.71 195.52 945 195.52 945a619.36 619.36 0 00-3.61 128.12c5.53 68.42-1.87 179.2 14.46 197.94l60.95-1.5s-5.6-14.35-4.65-27c2.28-30.22 5.54-104.27 15.36-135.22s21.45-88.31 21.45-88.33c.49 23.68.3 42.23-1 50.33-3.6 21.92-34.82 133.38-20.94 163.66-3.34 29.29.32 57.36.32 57.36s62.52 17.08 139.52 16.15c137.52-1.65 269.68-29.37 269.68-29.37s-1.47-25.34-4.52-50.16c9.94-22.61-4.2-112.56-17.91-172 17.07 47.16 40.24 126.63 42.45 162.33 1.64 26.39 2.89 34.36 2.89 34.36H768s4.49-6.67 5.3-18.89-12.23-108.5-17.8-189.78z" fill="#262521" stroke="#262521" stroke-linecap="round" stroke-linejoin="round" stroke-width="3"/><path d="M277.83 1290.39s62.52 17.08 139.52 16.15c137.52-1.65 269.68-29.37 269.68-29.37" fill="none" stroke="#636363" stroke-linecap="round" stroke-linejoin="round"/><path d="M725 809.54s-12.61-144-18.53-148.88c-12.12 20.89-77.12 60.82-77.12 60.82s-51.58 11-165.89 7.92c-113.42-3-173.76 3.05-173.76 3.05s-75-28.58-90.87-47.52c0 0-6.6 124.78-6.49 140.89 8.78 17.26 101 48.36 101 48.36l1.12 13.46s108.66 7.23 197.43-2.31 156.27-10.68 156.27-10.68L647 863.17s73.55-33 78-53.63z" fill="#b5a48e"/><path d="M641.38 807.61s10 123.7 16.09 167.28M291.83 789.65s5.34 199.1 3.83 238.13" fill="none" stroke="#262521" stroke-linecap="round" stroke-linejoin="round" stroke-width="3"/><path fill="#a07e5a" stroke="#916c4a" stroke-miterlimit="10" d="M539.87 842.72l-157.22 5.71-6.78-204.79 157.21-5.21 6.79 204.29z"/><path d="M379.12 741.7l3.54 106.73 157.21-5.71-5.12-154c-4.54 15.28-61.2 138.39-155.63 52.98z" fill="#e0d194" opacity=".3"/><path d="M422 749.28c-2.26-1.6.47-5.43.47-5.43 2.66-3.47 10.12-8.5 19.3-2.65l-2 4.32c-11.56-8.93-13.23 6.95-17.77 3.76zM421.63 737.62c-2.27-1.6.47-5.43.47-5.43 2.65-3.47 10.11-8.5 19.3-2.65l-2 4.31c-11.58-8.93-13.24 6.96-17.77 3.77zM457.05 804.14l-6.95-121.88s2.84 3.3 3 6.11L459.68 804z" fill="#262521"/><path d="M444.31 732.32a438.27 438.27 0 00-7.51-47.63l-7.71 1.73c5.27 23.36 15.36 85.61 1.83 103.38-.09.13-.18.26-.28.38-.25.31-.53.58-.79.86a4.84 4.84 0 01-2.68 1.33c-3.54.43-5.89-2-7.35-3.15 0 0-1.06-1.15-1.76-.41s.38 1.83.38 1.83c3.72 6.77 16.22 6.8 16.22 6.8 9.71-9.01 12.96-30.92 9.65-65.12z" fill="#262521"/><path d="M506.8 713.12s1-3.58-5.48-5.7c-9.83-4-12.53-19-12.55-19.1-.16-1.06-.4-2.28-.47-3.39l-53.3 9 1.41 7.78 45.45-8.25c1.53 5.36 5.41 14.76 14.14 20-1.88 10-7.76 46.94.75 81.14a34.74 34.74 0 00-21.07 10.69c-12.4-5.07-44.23-16.37-57.16-4.8-5.72 5.12-6.87 13.27-3.42 24.22 0 0 3.38 7.39 7.79 6 5.39-1.67 2.26-9.2 2.26-9.2-1.44-4.57-2.54-10.57.4-13.2 7.07-6.32 33.27 1 49.62 8.18a5.27 5.27 0 006.45-1.82c7.55-10.87 21-10 21.51-9.93a5.27 5.27 0 005.49-6.8c-11.73-38.02-1.92-84.35-1.82-84.82z" fill="#262521"/><path fill="#262521" d="M454.268 730.857l44.456-1.475.087 2.629-44.456 1.475zM454.608 741.12l44.456-1.474.087 2.628-44.456 1.475zM421.71 675.2c-2.91-1-10.26-9-9.89-9.43 1.26-1.51-.31-4.91-3.51-7.6s-6.83-3.65-8.09-2.15.18 4.58 3.07 7.2c3.28 3.49 12.26 12.68 17.58 14.47 5.55 1.88 9.3 11 9.34 11.08l6.59-4.08c-1.26-5.39-8.39-7.23-15.09-9.49z"/><path d="M222.19 620.76C177.46 647.71 195.52 945 195.52 945M732.61 918.39S718 611.44 679.73 586.45" fill="none" stroke="#262521" stroke-linecap="round" stroke-linejoin="round" stroke-width="3"/></svg>