<svg xmlns="http://www.w3.org/2000/svg" width="1250" height="1550" viewBox="0 0 1250 1550"><title>s02e04-01</title><path d="M404.44,1264.52s61.79,24.3,203.69,19.79S801,1248.13,801,1248.13l21.74,262.23c-209.14,38.46-397.55,3.9-397.55,3.9Z" fill="#262521" stroke="#262521" stroke-linecap="round" stroke-linejoin="round" stroke-width="3"/><path d="M421.22,1019s-11.62,57.38-21.45,88.33-13.09,105-15.36,135.22c-1,12.66,4.65,27,4.65,27l-61,1.5c-16.33-18.74-8.92-129.52-14.45-197.94A619.79,619.79,0,0,1,317.25,945S299.2,647.71,343.93,620.76s149.6-93.12,149.6-93.12-.25-.25.72,2.6c4.11,12.15,18.37,50.54,83.45,50.54,80.36,0,75.14-53.15,75.14-53.15s137.74,51.72,148.62,58.82c38.3,25,52.89,331.94,52.89,331.94s19,68.76,22.88,124.63c5.58,81.26,18.66,177.57,17.85,189.79s-5.3,18.89-5.3,18.89h-58.1s-1.25-8-2.89-34.36c-2.47-39.8-31-134-48.07-177.22" fill="#fff" stroke="#262521" stroke-linecap="round" stroke-linejoin="round" stroke-width="3"/><path d="M401.62,723.93c9.09-2.69,17.89-5,26.78-7.69,32.58-8.94,60.49.22,91.69,10.71C576.15,746.3,661,792.67,694,725.69c25.31-42.83,25.62-123.12,64.7-157.41-44.08-17.45-105.86-40.65-105.86-40.65,6.23,70.25-148.66,70.8-159.34,0-1,.66-105.06,66.3-149.57,93.11-9.1,5.49-15.6,22.17-20.19,45.26C336.56,673.3,370.48,733.16,401.62,723.93Z" fill="#262521" stroke="#262521" stroke-linecap="round" stroke-linejoin="round" stroke-width="3"/><path d="M836,1220.48s30.63-3.83,52.36,0" fill="none" stroke="#636363" stroke-linecap="round" stroke-linejoin="round"/><path d="M325.27,1238s30.63-3.83,52.37,0" fill="none" stroke="#636363" stroke-linecap="round" stroke-linejoin="round"/><path d="M410.65,807.61s5.34,199.1,3.83,238.13c-.83,21.49-22,157.14-9.69,184.31,0,13-6.31,43-6.31,43s91,20.68,168,19.75c137.52-1.66,246.39-30.38,246.39-30.38s-6.68-30-7.46-43.63c14.5-25-21.11-173.94-22.91-243.89-1.22-47.59-16.09-167.28-16.09-167.28" fill="#fff" stroke="#262521" stroke-linecap="round" stroke-linejoin="round" stroke-width="3"/><path d="M415.78,1235.11s171.05,37.78,379.51-12.17" fill="none" stroke="#636363" stroke-linecap="round" stroke-linejoin="round"/></svg>