<svg xmlns="http://www.w3.org/2000/svg" width="1000" height="1550" viewBox="0 0 1000 1550"><defs><clipPath id="a"><path d="M688.14-318.62s17.06 186.25 15.65 194.79 3.46 77.74 2.89 93.7-184.27 0-184.27 0L508.5-174.61c-4.82.6-21.34-1.9-20.74 19.85s1.77 119.26 1.77 119.26H306.25l-28.73-277.7" fill="none"/></clipPath></defs><g clip-path="url(#a)"><path fill="#765942" d="M244.34-362.54h595.88v393.4H244.34z"/><path d="M646.32-104.14c-48.21-5.81-79.05-43.36-66.87-92.46 4-17 6.22-91.06 22-93.64 23.21-2.41 13.28 34.65 27.35 43.67 28.94 11.37 32-30.39 28.27-50.18-.23-21.28 18.08-17.71 24 .05 17.17 27-2 153 .66 162l15.95 92.61c-.52 19.89-113.48 49-90.06 41.37 78.18-26.57-37.14-38.4-18.88-76 15.43-6.56 90.14 8.87 57.58-27.42z" fill="#84754c"/><path d="M366-293.89q-7.36 30.42-14.08 61-7.9 36-14.82 72.22c-4.81 25.38-9.22 50.85-13 76.41-3.81 25.85-7.11 51.81-9.19 77.87-1.69 21.13-2.67 42.41-1.7 63.6.11 2.31.24 4.61.4 6.92.34 4.81 1.78 9.24 5.27 12.73 3.13 3.12 8.25 5.47 12.73 5.27 4.66-.21 9.49-1.74 12.73-5.27 3.1-3.38 5.6-8 5.27-12.73a400.56 400.56 0 01-.32-44.24c.7-17 2.12-34 4-51q1.65-15.42 3.74-30.8l-.64 4.78c4.34-32.25 9.8-64.35 15.91-96.32q8.52-44.7 18.65-89.07 4.74-20.94 9.8-41.8a18.88 18.88 0 00-1.82-13.87c-2.18-3.74-6.47-7.3-10.76-8.28-4.6-1-9.78-.82-13.87 1.82-3.87 2.5-7.15 6.16-8.27 10.76z" fill="#b5ac95"/><path d="M654-124.78a187.78 187.78 0 01-5.2 49.64c-3.72 16-9 31.68-14.33 47.23-3 8.7-6.06 17.38-8.92 26.13-.55 1.84 2.31 2.63 2.91.78 5.14-15.69 10.88-31.18 15.88-46.92s9.22-31.85 11.34-48.29a170.8 170.8 0 001.32-28.57c-.07-1.92-3.07-1.93-3 0zM563.43-128.93q-.36 26.72-.48 53.44t0 53.18q.06 15.1.21 30.21a1.5 1.5 0 003 0q-.25-26.72-.27-53.43t.21-53.18q.12-15.11.33-30.22a1.5 1.5 0 00-3 0zM546.3-124.21c-5.81 16.2-11 32.6-16 49.08s-9.64 33.06-14.4 49.6c-2.69 9.31-5.4 18.62-8.2 27.91-.56 1.85 2.33 2.64 2.89.79 5-16.48 9.67-33 14.43-49.58s9.59-33.06 14.84-49.46q4.43-13.84 9.31-27.55c.66-1.82-2.24-2.6-2.89-.79z" fill="#56412d"/><path d="M508.39-.15c.61-28.24.27-56.5-.1-84.74s-.75-56.53-.2-84.79c.31-15.83.91-31.66 2-47.46l-.43 1.06c11.15-12.21 27.65-17.18 41.29-25.87 1.62-1 .12-3.64-1.52-2.59-12.27 7.83-26.46 12.62-37.62 22.19a50.59 50.59 0 00-3.89 3.72c-1.38 1.49-1 4.18-1.13 6.12q-.4 6.7-.72 13.43-.65 13.71-.91 27.44c-.38 18.3-.36 36.6-.21 54.91s.46 36.53.64 54.79.26 36.62 0 54.92q-.06 3.43-.13 6.87c0 1.93 3 1.93 3 0z" fill="#56412d"/></g><path d="M513.49 359.16c12.25 7.56 8.9 25.91 5.27 37.66-7.36 14.42-28.86 13.4-42.83 12-11.36-1.66-15.47-13.13-19.05-22.43-4.24-10.63 1.23-22.66 13.07-24.7 14.2-4.24 28.8-6.29 43.54-2.53zM384.26 364.4c14.81-.93 43.63-5.75 48.41 13.09 2 12.94-3.38 33-17.95 35.8-14.37 2.92-37.44 5.69-43.22-11.64-3.29-10.43-7.68-25.47 2-33.66.5-.38 10.26-3.53 10.76-3.59z" fill="#221717" opacity=".95"/><path d="M528.67 354.17c-11.44-2.5-60.49-7.17-76.77 12.34 0 0-8.64-4.37-15.09 1.76-2.93-.62-8-9-30.32-9.79-5.12.31-36.9-3-51.26 9.63-.36 16.39 4.43 14.46 14.4 21.26-2-14 .74-20.89 15.24-23.67 16.74-1.67 48.8-5.22 47 19.71 0 .06 0 1.6 2.21 1.55s2.7-3.26 2.93-4.13c1.25-6.07 5.38-6.58 10.63-6.38 4.33.39 4.37 8.49 8.34 8.48 1.76-.34 1.69-2.26 1.74-2.36-3.83-23.67 28.12-24 44.51-24.35 15 .37 18 8.64 17.8 22.39a109.18 109.18 0 0011-11.86c1.57-2.38.49-5.77.34-11.91-.05-2.71-.37-2.2-2.7-2.67z" fill="#d2d6d3" stroke="#636363" stroke-linecap="round" stroke-linejoin="round" stroke-width="2"/><path fill="#ffc802" d="M574.19 294.48l-295.86 28.96-91.46-189.94h402.91l-15.59 160.98z"/><path d="M632.43 1228.8s43.58 253.42 34 260.91c-69.22 53.9-340.4 24.42-340.4 24.42l-7.73-268.54zM364.37 534h0s.01-.08 0 0z" fill="#262521" stroke="#262521" stroke-linecap="round" stroke-linejoin="round" stroke-width="3"/><path d="M752.23 1045.71c-3.83-55.86-22.88-124.62-22.88-124.62s-14.59-307-52.89-332c-10.88-7.1-142.29-56.2-142.29-56.2s-66.35 47.7-81.47 48.64-83.47-32.89-87.58-45a10.75 10.75 0 01-.75-2.6c-1 .65-100.94 62.7-145.44 89.51-44.73 26.95-26.68 324.27-26.68 324.27a619.79 619.79 0 00-3.6 128.12c5.53 68.43-1.88 179.21 14.45 197.94l61-1.5s-5.6-14.34-4.65-27c2.27-30.22 5.53-104.26 15.36-135.22s21.45-88.31 21.45-88.32c.49 23.68-36.81 203.38-12.78 354.34 12.94 27.82 406.06 22.22 411.94-6 5.53-26.53-20.33-252.92-34-312.37 17.07 47.17 40.25 126.64 42.46 162.33 1.64 26.39 61 34.36 61 34.36s4.48-6.66 5.3-18.88-12.37-108.51-17.95-189.8z" fill="#262521" stroke="#262521" stroke-linecap="round" stroke-linejoin="round" stroke-width="3"/><path d="M283.44 1376.08c12.94 27.82 406.06 22.22 411.94-6" fill="none" stroke="#636363" stroke-linecap="round" stroke-linejoin="round"/><path d="M352.74 540.31c-22.75 1.23 7-34.56 2.29-48.83-14-42.83-26.08-86.93-26.91-132-.3-16.77 1-33.84 6.86-49.56 7.48-20.07 21.86-36.71 36.42-52.43 12.23-13.21 25.17-26.39 41.41-34.18s36.6-9.3 51.67.58c8 5.28 13.88 13.24 20.08 20.61a204.07 204.07 0 0034.69 32.6c12.2 9 26.28 17.78 31.07 32.18 4.4 13.22-.33 27.72 1.21 41.57 1.31 11.81 7.18 23 6.9 34.88-.28 12.09 4.36 30.79-3.06 40.34-3.59 4.63-2.79 14.29-4.93 19.75-5.54 14.12-8.87 26.14-14.09 40.39-.49 1.36-10.86 34.09 4.64 41.33 26.33 12.3 4.2 14.59-4.22 19.37-13.6 7.71-24.54 20.22-31.67 34.14l-39 1.2c7.43-5.81 21.75-21 29.18-26.78a39.38 39.38 0 007.4-6.89c3.28-4.34 4.59-9.81 5.77-15.12 4.81-21.73-4.35-45.29 8.64-71.22s10.22-78.82 8.54-121.06c-.22-5.54-.54-11.23-2.81-16.29s-7-9.42-12.49-9.68c-6-.28-11.13 4.08-16.73 6.32-10.43 4.16-22.13.8-33.11-1.57a179.77 179.77 0 00-55.28-3.22c-19.42 1.87-40.81 8.68-49.53 26.13-5.52 11-7 24.6-3.22 36.33 25.44 78.06 36.36 133.28 63.85 196.79z" fill="#262521"/><path d="M352.74 535.81h-1.65c-.55 0-1.95-.33-.52 0l-1.11-.24c-1.22-.27.53.44-.27-.08-.1-.07-.25-.15-.36-.21-.87-.4.52 0 .28.24s-.86-1.23-.3-.23c.45.79 0-.17-.15-.34-.44-.52.19.88.19.46a3.36 3.36 0 00-.21-.66c-.35-1.13.14.13 0 .17 0 0-.06-1-.06-1.11 0-.4 0-.8.05-1.19 0-.17 0-.34.05-.5.06-.9-.2 1 0 .16.44-1.94.88-3.85 1.51-5.75 2.87-8.69 7.48-16.93 9.26-26a26.2 26.2 0 00.62-6.23c-.15-3-1.21-5.75-2.14-8.61-2.74-8.47-5.39-17-7.87-25.51a499.78 499.78 0 01-12.53-52.51 302.53 302.53 0 01-4.91-52.88c0-16.63 1.9-33.63 8.89-48.9 6.72-14.71 16.92-27.39 27.67-39.32s21.6-24 34.84-33c12.3-8.35 26.66-13.57 41.6-11.83a38.5 38.5 0 0119.1 7.75c6.16 4.85 10.95 11.24 15.93 17.22a210.28 210.28 0 0037.23 34.86c5.64 4.14 11.19 7.92 16.34 12.55 4.86 4.38 9.28 9.43 11.44 15.3 3 8 2.15 16.62 1.55 25-.62 8.76-.57 17.18 1.53 25.76 1.92 7.79 5 15.53 5.22 23.64.1 3.28.06 6.54.3 9.82.24 3.44.56 6.88.74 10.33a72.1 72.1 0 010 9.75 21.94 21.94 0 01-.64 4c-.16.66-.35 1.32-.57 2-.11.35-.24.7-.37 1 .3-.75-.25.49-.26.52-.62 1.21-1.47 2.23-2.17 3.38a18.76 18.76 0 00-2 5 89.41 89.41 0 00-1.51 9.32 49.48 49.48 0 01-3.06 10.27c-1.54 4.14-3 8.32-4.39 12.51a2477.2 2477.2 0 01-8 23.38 78.73 78.73 0 00-3.91 21.06c-.26 4.82 0 10 1.65 14.55A19.28 19.28 0 00540 532c1.76.85 3.5 1.75 5.17 2.76.59.35 1.18.72 1.75 1.12.29.19.56.39.84.59-.8-.59.11.11.22.2.37.35.71.72 1.08 1.07s-.41-.87.09.18c.42.87-.3-1.07 0-.07a2.86 2.86 0 010-1c-.15.53.68-1.13.07-.24.21-.31.65-.74 0-.12-.1.1-.3.21-.37.34-.22.38 1-.6.31-.25-.37.2-.72.48-1.09.69-.73.42-1.48.76-2.24 1.11-1.14.52.63-.24-.37.16l-1.51.59a67.07 67.07 0 00-12.6 5.85 81.22 81.22 0 00-17.52 15.25 95.42 95.42 0 00-12.57 18.58l3.88-2.23L471 577.6l-4.86.15 3.18 7.68c7.42-5.84 13.94-12.86 20.8-19.33 3.19-3 6.45-5.89 9.88-8.63a32 32 0 0011.11-16c3.51-11.26 3.56-22.84 3.27-34.5-.31-12.17-.23-24.28 3.87-35.91 1.74-4.93 4.35-9.47 6.08-14.41a94.23 94.23 0 003.46-13 215.31 215.31 0 003.5-32.63c1-23.67-.12-47.42-1.18-71.06-.29-6.53-.93-13.39-4.33-19.14-3.15-5.36-8.38-9.32-14.64-10s-11.8 3-17.18 5.68-11.39 2.91-17.32 2.16c-6.52-.83-12.89-2.68-19.34-3.9a189.79 189.79 0 00-21.51-2.83 166.64 166.64 0 00-39.6 1.54c-10.34 1.73-20.86 5-29.6 10.93a46.07 46.07 0 00-18.82 26.88 53.27 53.27 0 00-1.65 18.89c.68 6.83 3 13.14 5.06 19.63q6.07 19 11.71 38.2c6.78 22.9 13.21 45.91 20.18 68.76 6.68 21.91 13.95 43.65 22.47 64.92q3.34 8.36 6.93 16.62l6.15-6.16-21.49-12.05-34.26-19.22-7.87-4.45c-5.06-2.84-9.6 4.93-4.54 7.77L372 556.25l34.26 19.22 7.86 4.41a4.61 4.61 0 005.45-.71 4.72 4.72 0 00.71-5.45c-8.87-20.5-16.47-41.52-23.3-62.78-6.95-21.62-13.16-43.47-19.49-65.28C374 433.82 370.54 422 367 410.2q-2.86-9.46-5.85-18.88c-1.95-6.2-4.49-12.42-5.65-18.82a43.83 43.83 0 016.5-31.43c5-7.31 13.58-12.4 22.05-15.33 10.63-3.68 20.84-4.81 31.94-5.22a174.94 174.94 0 0140.28 3.14c12.58 2.49 26.26 7.16 38.82 2.1 4.75-1.92 9.84-6.06 14.71-6.06a8.35 8.35 0 015.26 2.07 13.62 13.62 0 014 5.49c2.23 5.41 2.06 11.54 2.29 17.28s.47 11.53.68 17.3c.42 11.65.73 23.3.64 35a307.56 307.56 0 01-1.74 33c-1 8.31-2.66 17.83-5.87 26.21-.17.44-.34.88-.52 1.32s0-.08.07-.15c-.11.24-.21.49-.32.73-.51 1.14-1.08 2.25-1.61 3.37a75 75 0 00-3.79 9.57 81.51 81.51 0 00-3.32 18.59c-.79 11.25.51 22.52-.16 33.77a66.43 66.43 0 01-2.98 15.75 22 22 0 01-3.48 7.1 40.16 40.16 0 01-6.81 6.14c-7.16 5.66-13.48 12.39-20.08 18.66-2.95 2.8-5.91 5.61-9.1 8.13s-.46 7.79 3.18 7.68l34.1-1 4.86-.15a4.52 4.52 0 003.89-2.23c6.83-13.24 17-25.44 30.26-32.64.77-.42 1.56-.77 2.36-1.13-1 .44-.11.05.37-.13l1.51-.59c2.12-.8 4.24-1.59 6.33-2.48 3.7-1.6 8-4.18 8.16-8.74.16-5.69-5.8-9.29-10.15-11.66-1.65-.9-3.36-1.65-5-2.52-.44-.23-.84-.52-1.27-.75-.9-.47.62.64-.1-.07-.23-.22-.48-.41-.7-.63s-1.28-1.52-.54-.51c-.31-.43-.6-.86-.87-1.31s-.46-.85-.68-1.28c-.13-.25-.38-1 0 0-.11-.31-.23-.61-.34-.93a23.4 23.4 0 01-.86-3.29c-.06-.31-.29-2.11-.17-.9-.06-.6-.12-1.19-.17-1.79a50.87 50.87 0 01.09-7.51c.09-1.15.22-2.28.36-3.42-.16 1.23.1-.65.14-.89.1-.67.22-1.33.34-2q.53-2.91 1.25-5.79a93.71 93.71 0 012.84-8.94c3-8.37 5.6-16.85 8.53-25.23 1.41-4.07 3.17-8.07 4.46-12.18a28.09 28.09 0 00.91-4.24c.3-1.93.55-4.09.75-5.47a37.62 37.62 0 01.89-4.57 15.18 15.18 0 01.64-1.94c-.35.82.25-.41.28-.46a12 12 0 01.68-1 23.76 23.76 0 003.81-8.67c1.54-6.86 1.07-14 .54-20.92-.26-3.38-.57-6.75-.66-10.14a85.34 85.34 0 00-.85-12.26c-1.44-8.39-4.82-16.36-6-24.81s.29-17.13.58-25.64c.3-8.75-.88-17.44-5.3-25.12-3.64-6.33-8.92-11.57-14.55-16.13-6-4.83-12.35-9.07-18.41-13.77a202.71 202.71 0 01-19.15-17c-6-6-11.46-12.57-16.93-19.12-5.2-6.23-10.87-12.26-18-16.26-14.05-7.85-31.53-7.53-46.39-2.21-15.83 5.71-28.98 16.63-40.63 28.42s-23.26 24.4-32.86 38.1a109.84 109.84 0 00-19.24 47.68c-2.56 17.91-1.93 36.2-.05 54.15 3.88 36.95 14.17 72.45 25.39 107.71.13.41.26.81.35 1.23.05.24.07.48.13.71-.3-1.22-.07-.78-.07-.45v2.93c-.08 1.21.14-.66 0 .38-.09.44-.16.89-.25 1.34-.24 1.15-.54 2.29-.87 3.42-1.34 4.59-3.2 9-5 13.44a87.76 87.76 0 00-4.49 12.79c-.9 3.87-1.36 8.32.85 11.86 2.46 3.94 7.21 5 11.57 4.81a4.6 4.6 0 004.5-4.5 4.54 4.54 0 00-4.57-4.5z" fill="#262521"/><path d="M505 555.42c2.34 33.3 2.81 66.69 2.83 100.06s-.38 66.52.26 99.77c.36 18.85 1.06 37.69 2.32 56.51.13 1.91 3.13 1.93 3 0-2.25-33.5-2.68-67.07-2.68-100.63 0-33.2.38-66.41-.3-99.61-.39-18.71-1.11-37.42-2.43-56.1-.13-1.91-3.13-1.93-3 0z" fill="#636363"/><path d="M512.31 786.16c-2.91 0-4.35 4.13-2.21 6.06a3.67 3.67 0 004.34.32 3.91 3.91 0 002-3.87 4.57 4.57 0 00-3-3.59 4.69 4.69 0 00-4.36.61 5.93 5.93 0 00-2.45 3.73 5.31 5.31 0 001.07 4.35 3.55 3.55 0 004.61.82 3.33 3.33 0 001.4-4.51 1.5 1.5 0 00-2.59 1.52s.07.14.09.15-.09-.31-.08-.18a.42.42 0 000 .12c.05.16-.1.06 0-.17v-.09a1.57 1.57 0 00-.08.31s.18-.34.05-.14a.6.6 0 01-.06.11l-.06.1c-.09.15-.08 0 .08-.1-.06 0-.13.14-.17.19s-.13.09-.13.11.27-.19.09-.08l-.26.16c-.27.15.23-.06 0 0-.06 0-.21 0-.25.07s.39 0 .15 0h-.17c-.05 0-.22 0 0 0s.05 0 0 0h-.13c-.2-.05.09 0 .11 0a2.55 2.55 0 00-.24-.14c-.16-.08 0-.08.09.08 0 0-.11-.09-.14-.12s-.14-.16-.22-.23.1.11.1.13a.44.44 0 00-.08-.11c0-.1-.11-.19-.16-.28a.67.67 0 00-.08-.17s.11.31 0 .1-.12-.39-.16-.59c-.08-.37 0 .23 0 0v-.38-.34.03c0-.02.05-.22.08-.33a2 2 0 00.13-.39s-.12.26 0 .12l.09-.19c.05-.09.1-.18.16-.27s.2-.23.2-.3-.19.22-.08.1l.17-.19.25-.26s.29-.26.13-.11.12-.09.18-.12l.35-.2c.23-.13-.29.1.06 0l.29-.09h.06a2.75 2.75 0 00.4 0h.15c.2 0-.3-.06-.1 0l.29.07.2.06c.15 0-.12 0-.13-.06s.25.12.36.19.17.15.25.17c-.17-.05-.19-.17-.07-.05l.12.1c0 .05.17.23.24.25s-.17-.24-.09-.1a1.43 1.43 0 01.14.2 1.08 1.08 0 00.14.26c-.15-.16-.09-.23 0-.08s0 .09 0 .14a1.62 1.62 0 000 .19v-.16a1.69 1.69 0 000 .39s.08-.32 0-.18a.42.42 0 000 .12c0 .06-.14.39 0 .15s0 .07-.08.13l-.07.11c-.08.15.22-.25 0-.07l-.18.19s-.12.09-.13.12.25-.17.13-.1a2.26 2.26 0 00-.26.16l-.12.06c-.15.1.33-.11.08 0l-.25.07H512.52a2.81 2.81 0 00-.29 0s-.21 0 0 0h-.12c-.13 0 .3.18.08 0a.24.24 0 00-.11-.06c-.13 0 .19.18.12.09s-.28-.3-.11-.08 0-.07 0-.12.08.18.08.2a.58.58 0 00-.06-.17c0-.07-.08-.41 0-.12s0 0 0-.09v-.15.18a2.47 2.47 0 00.06-.29v-.14c.05-.19 0 .13-.07.16s.09-.18.13-.26a.47.47 0 00.06-.09c0-.11-.25.26-.09.11a1.84 1.84 0 00.2-.19s-.27.16-.16.13l.11-.07c.26-.17-.32.12 0 0s-.38 0 0 0a1.5 1.5 0 000-3zM399.17 559.33q3.52 50.1 4.7 100.34 1.15 50 0 99.94-.68 28-2.08 56c-.09 1.93 2.91 1.93 3 0q2.52-50.16 2.67-100.41.15-50-2.05-99.92-1.23-28-3.21-56c-.13-1.91-3.13-1.93-3 0z" fill="#636363"/><path d="M404.59 790.07c-2.91 0-4.35 4.13-2.21 6.06a3.67 3.67 0 004.34.31 3.92 3.92 0 002-3.86 4.59 4.59 0 00-3-3.59 4.69 4.69 0 00-4.36.61 5.93 5.93 0 00-2.45 3.73 5.32 5.32 0 001.07 4.35 3.55 3.55 0 004.61.82 3.33 3.33 0 001.4-4.51 1.5 1.5 0 10-2.59 1.52s.07.14.09.14-.09-.3-.08-.17a.56.56 0 000 .12c.05.16-.1.06 0-.17v-.09a1.67 1.67 0 00-.08.3s.18-.33.05-.13l-.06.11-.06.1c-.09.15-.08 0 .08-.1-.06 0-.13.14-.17.18s-.13.1-.13.12.27-.19.09-.08l-.26.15c-.27.16.23 0 0 0a.92.92 0 00-.25.06h.15-.17c-.05 0-.22 0 0 0s.05 0 0 0h-.13c-.2-.06.09 0 .11 0a1.38 1.38 0 00-.24-.14c-.16-.08 0-.09.09.08 0 0-.11-.09-.14-.12s-.14-.16-.22-.23.1.11.1.13-.07-.1-.08-.12-.11-.18-.16-.28a.8.8 0 00-.08-.16c.05 0 .11.31.05.1s-.12-.4-.16-.6c-.08-.36 0 .24 0 0v-.39-.33V794.01a3 3 0 01.08-.32 2.23 2.23 0 00.13-.39s-.12.26-.05.12l.09-.19c.05-.09.1-.18.16-.27s.2-.23.2-.3-.19.22-.08.1l.17-.2.25-.25.13-.12c-.17.15.12-.08.18-.11a2.43 2.43 0 01.35-.2c.23-.13-.29.09.06 0l.29-.08h.2c.16-.05-.13 0-.14 0a2.71 2.71 0 00.4 0h.15c.2 0-.3-.07-.1 0l.29.07.2.07c.15 0-.12-.05-.13-.06s.25.12.36.19a1.32 1.32 0 00.25.16c-.17 0-.19-.16-.07 0l.12.1c.05.05.17.23.24.25s-.17-.24-.09-.11l.14.21a1.3 1.3 0 00.14.26c-.15-.16-.09-.24-.05-.09s0 .1.05.14a1.06 1.06 0 000 .19v-.15a1.69 1.69 0 000 .39s.08-.32 0-.19a.61.61 0 000 .13s-.14.39 0 .15 0 .06-.08.13l-.07.1c-.08.16.22-.24 0-.06l-.18.19s-.12.09-.13.12.25-.17.13-.11l-.26.17a.67.67 0 00-.12.06c-.15.1.33-.11.08 0l-.25.07H404.8a1.41 1.41 0 00-.29 0c-.05 0-.21 0 0 0a.56.56 0 00-.12 0c-.13 0 .3.18.08 0l-.11-.07c-.13 0 .19.19.12.1s-.28-.3-.11-.08 0-.07-.05-.12.08.18.08.2a.58.58 0 00-.06-.17c0-.07-.08-.42 0-.12s0 0 0-.09v-.15.18c0 .04 0-.2.06-.29l.05-.14c.05-.19-.05.12-.07.15s.08-.17.13-.25a.47.47 0 00.06-.09c0-.11-.25.26-.09.11a1.26 1.26 0 00.2-.2s-.27.17-.17.14l.12-.07c.26-.17-.32.12 0 0s-.38 0 0 0a1.5 1.5 0 100-3z" fill="#636363"/><path d="M374.82 278.22a94.1 94.1 0 00-32.82 3.93 22.5 22.5 0 0111.78-9.38l-6.49-1.64c1-2.35 4.16-2.58 6.55-3.49s4.08-4.81 1.66-5.63l7.22-3.31-2.46-4.61 8.51-1.63a49.4 49.4 0 00-14.23-11.06 51.76 51.76 0 0119.44 2l-11.67-17.91a88.39 88.39 0 0122.61 18.21l-3.7-6.85 5.62 5.27a42.29 42.29 0 00-4.15-20.31 53.87 53.87 0 0110.9 10.9l-.54-18.82 6.44 3.83-.44-5.25 8.42 6.76-1.2-20.68a11.85 11.85 0 013.45 6.5 87.35 87.35 0 00-19.13-19.35 72 72 0 0126.67 21.39 25.28 25.28 0 000-10.71 32.06 32.06 0 013.23 12.52l6.42-12.9a22.47 22.47 0 012.41 12.58A63.39 63.39 0 01445.6 194l-4.51 11.31a171.39 171.39 0 0118.34-14.1l-2.73 8.12 18.3-6.53a44.41 44.41 0 00-17.81 16.46l15.81 3.26a3.6 3.6 0 013.51 4.7l-.7 11.78a68.87 68.87 0 0112.47-9.11 37.22 37.22 0 01-7.67 23.33" fill="#262521"/><path d="M374.82 276.72a96.42 96.42 0 00-33.21 4l1.69 2.2a21.28 21.28 0 0110.89-8.68 1.51 1.51 0 000-2.89l-6.49-1.64.9 2.2c.7-1.45 2.34-1.79 3.76-2.21a8.57 8.57 0 004.06-2c2.05-2.12 2.68-5.79-.52-7.1l.36 2.74 7.23-3.3a1.52 1.52 0 00.53-2.06l-2.46-4.61-.89 2.21 8.51-1.63a1.52 1.52 0 00.66-2.51 51.74 51.74 0 00-14.54-11.3l-.75 2.8a51.7 51.7 0 0119 1.93 1.51 1.51 0 001.69-2.2l-11.66-17.91-2.06 2.06a88 88 0 0122.31 18c1.16 1.3 3.14-.36 2.35-1.82l-3.69-6.85-2.36 1.82 5.62 5.27a1.52 1.52 0 002.56-1.06 44.53 44.53 0 00-4.31-21.13l-2.05 2a52.74 52.74 0 0110.37 10.36c.82 1.09 2.84.87 2.79-.76l-.54-18.82-2.25 1.29 6.43 3.84a1.51 1.51 0 002.26-1.3l-.44-5.25-2.57 1.12 8.42 6.75c.92.74 2.64.36 2.56-1.06l-1.2-20.68-2.56 1.06a11 11 0 013.07 5.84l2.74-1.15a90.73 90.73 0 00-19.67-19.89l-1.52 2.6A70.92 70.92 0 01416 207.84c.7.91 2.45 1 2.74-.36a28.07 28.07 0 000-11.51l-2.74 1.16a31.13 31.13 0 013 11.76c.08 1.37 2.09 2.18 2.8.75l6.41-12.91h-2.59a21.38 21.38 0 012.21 11.82 1.51 1.51 0 002.56 1.06 63.84 63.84 0 0116-14.29l-2.2-1.69-4.5 11.31c-.6 1.51 1.49 2.35 2.5 1.46a170.73 170.73 0 0118-13.87l-2.19-1.69-2.74 8.16a1.51 1.51 0 001.84 1.85l18.33-6.56-1.16-2.74a46.34 46.34 0 00-18.35 17 1.51 1.51 0 00.9 2.2c5.49 1.13 11.1 2 16.53 3.42a1.89 1.89 0 011.73 2.1c0 1.31-.14 2.63-.22 3.93l-.55 8.85a1.52 1.52 0 002.56 1.06 69 69 0 0112.13-8.92l-2.26-1.29a36.26 36.26 0 01-7.47 22.58c-1.17 1.53 1.44 3 2.59 1.51a38.89 38.89 0 007.88-24.09 1.52 1.52 0 00-2.26-1.3 72.32 72.32 0 00-12.73 9.4l2.56 1.06.61-9.83c.17-2.61.62-5.77-2.06-7.3a13.15 13.15 0 00-3.86-1.1l-4.56-.94-9.82-2 .89 2.2a43.5 43.5 0 0117.28-15.92c1.49-.77.45-3.32-1.16-2.74l-18.33 6.55 1.85 1.85 2.73-8.12a1.52 1.52 0 00-2.21-1.7A177.13 177.13 0 00440 204.28l2.51 1.46 4.5-11.31c.49-1.24-1.16-2.35-2.2-1.7a65.81 65.81 0 00-16.58 14.76l2.56 1.06a24.25 24.25 0 00-2.62-13.33 1.51 1.51 0 00-2.59 0l-6.41 12.91 2.79.76a35 35 0 00-3.43-13.28c-.77-1.6-3.08-.42-2.75 1.16a24.33 24.33 0 010 9.91l2.74-.36a74.22 74.22 0 00-27.21-21.92 1.5 1.5 0 00-1.52 2.59 86 86 0 0118.6 18.81 1.51 1.51 0 002.74-1.16 13.71 13.71 0 00-3.84-7.16 1.52 1.52 0 00-2.56 1.06l1.2 20.68 2.56-1.06-8.42-6.76c-.9-.72-2.68-.37-2.56 1.06l.44 5.25 2.25-1.29-6.43-3.84a1.52 1.52 0 00-2.26 1.3l.54 18.82 2.8-.75a57.2 57.2 0 00-11.45-11.44c-1.32-1-2.62.86-2.05 2.05a41.37 41.37 0 014 19.55l2.56-1.06-5.62-5.27a1.5 1.5 0 00-2.35 1.82l3.69 6.84 2.36-1.81a90.48 90.48 0 00-22.91-18.44c-1.26-.71-2.9.75-2.05 2.05l11.66 17.91 1.7-2.21a54.09 54.09 0 00-19.84-2c-1.38.11-2.18 2-.76 2.79a49.43 49.43 0 0113.93 10.83l.66-2.5-8.51 1.62a1.52 1.52 0 00-.9 2.21l2.46 4.61.54-2-7.22 3.3c-1.32.61-.69 2.32.36 2.75.06 0 .13.14.07.43a3.23 3.23 0 01-.48 1.15 4.22 4.22 0 01-2.65 1.61c-2.32.68-4.9 1.36-6 3.73a1.52 1.52 0 00.9 2.2l6.48 1.64v-2.89a24.51 24.51 0 00-12.68 10.06 1.51 1.51 0 001.69 2.2 94.06 94.06 0 0132.42-3.87c1.93.1 1.92-2.9 0-3z" fill="#262521"/><path d="M379.46 259.53a15.25 15.25 0 0110.79-2.64l-5.25 9.23 11.14-2a11.83 11.83 0 01-1.21 5.69c1.8-.83 3.84 10 3.37 11.66 1.86-1.52 5-7.62 6.82-9.15a72.14 72.14 0 011.16 17.89 10.14 10.14 0 006.19-4.21l1 13.05 3-2.13a8.35 8.35 0 011.48 8.76l9.73-5.95a117.64 117.64 0 005.65 27.36l3.2-6.76a46.84 46.84 0 0019 14.47l3.91-11.13 4.14 1.52c-.35-1.94-.67-4 .38-5.76s4.05-2.78 5.77-1.47l1.69-13.5a19.56 19.56 0 018.7 4 55.69 55.69 0 00-15.92-30.08 42.15 42.15 0 0113.6 5.75l1.24-8a56.59 56.59 0 0114.28 8.48 19.23 19.23 0 00-.75-10.69l4.3.56a40.47 40.47 0 00-12.24-21.62l3.6-.82" fill="#262521" stroke="#636363" stroke-linecap="round" stroke-linejoin="round"/><path d="M482.53 241.44a20.51 20.51 0 0013.56-6.8 2.37 2.37 0 01.16 2.22 50 50 0 01-2.17 6.35c-.9 2.14-2.17 4.41-4.39 5.09" fill="#262521"/><path d="M482.53 242.94a22.22 22.22 0 0014.62-7.24l-2.36-.3c.22.28.16.47.07.88-.17.69-.38 1.37-.59 2.05-.42 1.35-.91 2.69-1.44 4-.69 1.69-1.66 3.9-3.53 4.51s-1.05 3.5.79 2.89c2.94-1 4.42-3.68 5.53-6.37a46.86 46.86 0 001.69-4.74c.44-1.47 1.13-3.37.07-4.74a1.52 1.52 0 00-2.35-.31 19.13 19.13 0 01-12.5 6.36 1.54 1.54 0 00-1.5 1.5 1.51 1.51 0 001.5 1.5zM310.7 578.21a43.21 43.21 0 00-16.53-9.91l10.33-2a15.07 15.07 0 00-2.54-6.23l30.14.25a66.77 66.77 0 00-40.52-2.38c9.66-7.06 22.64-6.87 34.6-6.39l14.64.6a31 31 0 00-17.76-9.52l17.39-6-4.32-3.94 10-1.84c.77-.14 1.66-.36 2-1.07s-.24-1.81-.85-2.53l-7.67-9.09 12.76-10.84-9.06-2.5 8.34-12.2-5.3 2 .87-6.6-8.49 6.62a122.67 122.67 0 009.23-16.19 31.11 31.11 0 00-14.1 13.24 69.74 69.74 0 019.1-26.83l-7.79-.59a43.13 43.13 0 009.26-17.27 23.86 23.86 0 01-22.67 4.24 26.53 26.53 0 007.54-9.09l-7.79-1.31A27 27 0 00332.25 421l-4.33.7a48.06 48.06 0 002.51-17.8 65.92 65.92 0 00-11.3 10.1l9.46-22.68a9.33 9.33 0 00-7.46 3.58c0-7.91 12.29-18.87 17.94-24.41L388.33 548z" fill="#262521"/><path d="M311.76 577.15a45.78 45.78 0 00-17.19-10.3v2.89l10.33-2a1.53 1.53 0 001.05-1.84 16.91 16.91 0 00-2.7-6.6l-1.25 2.25 30.14.25c1.79 0 1.91-2.36.4-2.94a68.51 68.51 0 00-41.32-2.38l1.16 2.74c6.46-4.66 14.37-6.07 22.18-6.33 8.75-.3 17.56.38 26.3.74a1.52 1.52 0 001.06-2.56 32.68 32.68 0 00-18.42-9.9v2.89l17.39-6a1.52 1.52 0 00.66-2.51l-4.32-3.94-.66 2.5 7.85-1.44c2-.36 4.95-.53 5.31-3.08.34-2.33-2.27-4.48-3.61-6.07l-5.43-6.44v2.12l12.76-10.84a1.5 1.5 0 00-.66-2.5l-9.06-2.51.9 2.21 8.34-12.21a1.52 1.52 0 00-1.7-2.2l-5.3 2 1.9 1.45.87-6.6c.19-1.47-1.69-1.75-2.56-1.07l-8.5 6.63 2.36 1.82a124.57 124.57 0 009.23-16.2 1.51 1.51 0 00-2.05-2.05 32.88 32.88 0 00-14.63 13.78l2.79.76a68.71 68.71 0 018.9-26.07 1.53 1.53 0 00-1.3-2.26l-7.79-.59 1.06 2.56a45.54 45.54 0 009.67-17.82 1.52 1.52 0 00-2.51-1.46 22.48 22.48 0 01-21.21 3.86l.66 2.5a28.12 28.12 0 007.77-9.39 1.5 1.5 0 00-.89-2.2l-7.79-1.32.36 2.74A28.84 28.84 0 00333.75 421a1.52 1.52 0 00-1.9-1.44l-4.33.69 1.85 1.85a50.43 50.43 0 002.56-18.2 1.51 1.51 0 00-2.26-1.29 69.62 69.62 0 00-11.6 10.39l2.51 1.46 9.42-22.72a1.51 1.51 0 00-1.45-1.9 11 11 0 00-8.52 4l2.56 1.06c.05-4.68 3.85-9.1 6.75-12.43 3.35-3.87 7.1-7.34 10.75-10.92l-2.51-.66 1.32 4.75 3.58 12.92 5.31 19.11L354.3 431l7.08 25.54 7.15 25.77 6.64 23.93 5.64 20.32 4.06 14.62c.63 2.29 1.1 4.72 1.93 6.94 0 .1.05.2.08.3l1.05-1.84-26.21 10.19-41.8 16.23-9.62 3.74c-1.78.69-1 3.59.8 2.89l26.21-10.19 41.8-16.25 9.62-3.74a1.53 1.53 0 001-1.85l-1.31-4.74-3.55-12.86-5.3-19.11-6.47-23.32L366 462l-7.15-25.78-6.64-23.92-5.63-20.3-4.06-14.62c-.64-2.31-1.22-4.64-1.92-6.93l-.09-.31a1.51 1.51 0 00-2.5-.66c-3.91 3.82-7.92 7.53-11.44 11.72-3.21 3.81-6.88 8.52-6.94 13.75 0 1.2 1.72 2.1 2.56 1.06a8.11 8.11 0 016.4-3.14l-1.44-1.9-9.47 22.68c-.58 1.4 1.56 2.52 2.51 1.46a66.18 66.18 0 0111-9.89l-2.25-1.3a48 48 0 01-2.45 17.4c-.4 1.19.8 2 1.84 1.84l4.33-.69-1.9-1.45a25.6 25.6 0 01-10 18.59c-.89.68-1.06 2.5.36 2.74l7.79 1.32-.9-2.2a26.34 26.34 0 01-7.3 8.78c-.95.75-.29 2.19.66 2.51a25.53 25.53 0 0024.13-4.63l-2.5-1.49a41.94 41.94 0 01-8.89 16.5 1.52 1.52 0 001.06 2.56l7.79.59-1.31-2.29a72.52 72.52 0 00-9.31 27.59c-.19 1.52 2.12 2 2.8.75a30.22 30.22 0 0113.55-12.7l-2.05-2.05a124.46 124.46 0 01-9.23 16.19c-1 1.54 1.13 2.78 2.36 1.82l8.49-6.62-2.56-.98-.87 6.6a1.51 1.51 0 001.9 1.45l5.3-2-1.69-2.2L342 504a1.51 1.51 0 00.9 2.2l9.07 2.51-.67-2.51-12.76 10.84a1.52 1.52 0 000 2.12l4.15 4.93 1.92 2.27 1 1.14c.27.32.94.87 1 1.3s.11.28-.34.44a9.17 9.17 0 01-1.46.28l-2.85.53-6.19 1.13a1.51 1.51 0 00-.66 2.51l4.32 3.94.66-2.51-17.39 6c-1.26.43-1.58 2.63 0 2.89a30 30 0 0117.1 9.13l1.06-2.56c-9-.37-18.1-1.11-27.12-.71-8 .35-16.23 1.92-22.88 6.71a1.51 1.51 0 001.16 2.74 65.71 65.71 0 0139.72 2.38l.4-3-30.14-.15a1.51 1.51 0 00-1.3 2.26 14.9 14.9 0 012.4 5.87l1.05-1.84-10.34 2c-1.54.3-1.3 2.46 0 2.89a42.32 42.32 0 0115.87 9.53c1.32 1.34 3.48-.78 2.08-2.11z" fill="#262521"/></svg>