<svg xmlns="http://www.w3.org/2000/svg" width="1250" height="1550" viewBox="0 0 1250 1550"><title>s02e02-02</title><path d="M421.22,1019s-9.26,285.28-11.09,296.17-88.19,5.87-88.19,5.87c-9.73-21.32-2.76-179.5-8.29-247.92A619.79,619.79,0,0,1,317.25,945S299.2,647.71,343.93,620.76s145.46-89.52,145.46-89.52-.24-.24.73,2.61c4.11,12.15,21.13,51.38,86.21,51.38,80.35,0,82.84-55,82.84-55s131.41,49.11,142.29,56.21c38.3,25,52.89,331.94,52.89,331.94s19,68.76,22.88,124.63c5.58,81.26,33.92,236.51,25.26,251.32s-75,19-84.94,9.83-19.76-220.88-36.83-264.05" fill="#f9f9f4" stroke="#262521" stroke-linecap="round" stroke-linejoin="round" stroke-width="3"/><path d="M410.65,729.2s5.34,277.51,3.83,316.54c-.83,21.49-24,238.18-5.84,246.45,16.7,7.61,98.35,4.27,175.28,1,133.05-5.72,221.33.48,229.5-15s-29.15-233.3-30.95-303.25c-1.22-47.59-21.2-260.47-21.2-260.47" fill="#f9f9f4" stroke="#262521" stroke-linecap="round" stroke-linejoin="round" stroke-width="3"/><path d="M478.54,544.42c4.45,23,39.21,59.94,100.26,59.94,62.09,0,89.84-42.78,93.29-62.32" fill="none" stroke="#ccc" stroke-linecap="round" stroke-linejoin="round"/><path d="M509.53,585s-70.07,46.46-84.85,64.12-21.25,20.33-24.44,80.34" fill="none" stroke="#ccc" stroke-linecap="round" stroke-linejoin="round"/><path d="M649.73,579s69.94,35.76,84.72,53.42,25.45,61.77,28.64,121.77" fill="none" stroke="#ccc" stroke-linecap="round" stroke-linejoin="round"/><path d="M655.63,572.25s69.82,35.87,84.71,53.43c41.47,48.88,53.52,251.42,56.72,311.42l42.84,362.12" fill="none" stroke="#ccc" stroke-linecap="round" stroke-linejoin="round"/><path d="M660.72,566.13s71.81,35.34,86.71,52.9c41.47,48.88,55,258.07,58.16,318.07l42.85,365.12" fill="none" stroke="#ccc" stroke-linecap="round" stroke-linejoin="round"/><path d="M666.06,559.22s70.67,36.38,86.71,52.9c45.36,46.71,60,260.07,63.16,320.07L857.13,1301" fill="none" stroke="#ccc" stroke-linecap="round" stroke-linejoin="round"/><path d="M669.54,552.23s74.73,38.26,92.72,52.63c45.6,36.41,60.09,258.68,63.29,318.68l42.34,375.68" fill="none" stroke="#ccc" stroke-linecap="round" stroke-linejoin="round"/><path d="M672.09,544.83s79.85,39.54,97.84,53.91c45.6,36.41,61.93,256.34,65.13,316.34l43.11,383.07" fill="none" stroke="#ccc" stroke-linecap="round" stroke-linejoin="round"/><path d="M710.34,553.94s51.37,25.46,69.37,39.83c45.6,36.42,62.43,259.34,65.62,319.34l43.12,383.07" fill="none" stroke="#ccc" stroke-linecap="round" stroke-linejoin="round"/><path d="M579.66,604.36c-.14,226.66-.14,452.66,0,679.55" fill="none" stroke="#ccc" stroke-linecap="round" stroke-linejoin="round"/><path d="M590.23,603.86c.29,227.16.29,453.16,0,680.05" fill="none" stroke="#ccc" stroke-linecap="round" stroke-linejoin="round"/><path d="M600.79,602.43c-.27,226.59-.27,454.59,0,681.5" fill="none" stroke="#ccc" stroke-linecap="round" stroke-linejoin="round"/><path d="M611.35,599.94q.25,342.12,0,683.93" fill="none" stroke="#ccc" stroke-linecap="round" stroke-linejoin="round"/><path d="M621.91,596.24c-.39,228.78-.39,458.78,0,687.67" fill="none" stroke="#ccc" stroke-linecap="round" stroke-linejoin="round"/><path d="M632.48,591.09q.06,346.39,0,692.8" fill="none" stroke="#ccc" stroke-linecap="round" stroke-linejoin="round"/><path d="M643,584.11c.48,232.91.48,466.91,0,699.77" fill="none" stroke="#ccc" stroke-linecap="round" stroke-linejoin="round"/><path d="M653.6,582q-.12,351,0,701.9" fill="none" stroke="#ccc" stroke-linecap="round" stroke-linejoin="round"/><path d="M664.16,587c.36,232,.36,465,0,696.86" fill="none" stroke="#ccc" stroke-linecap="round" stroke-linejoin="round"/><path d="M674.72,592.59c-.2,230.43-.2,461.43,0,691.28" fill="none" stroke="#ccc" stroke-linecap="round" stroke-linejoin="round"/><path d="M685.29,598.77c.23,228.25.23,457.25,0,685.11" fill="none" stroke="#ccc" stroke-linecap="round" stroke-linejoin="round"/><path d="M695.85,604.86c-.33,226.16-.33,453.16,0,679" fill="none" stroke="#ccc" stroke-linecap="round" stroke-linejoin="round"/><path d="M706.41,611.06c.11,224,.11,449,0,672.82" fill="none" stroke="#ccc" stroke-linecap="round" stroke-linejoin="round"/><path d="M717,618q-.68,333,0,665.87" fill="none" stroke="#ccc" stroke-linecap="round" stroke-linejoin="round"/><path d="M727.54,625.88c0,219.14,0,439.14,0,658" fill="none" stroke="#ccc" stroke-linecap="round" stroke-linejoin="round"/><line x1="738.1" y1="637.49" x2="738.1" y2="1283.54" fill="none" stroke="#ccc" stroke-linecap="round" stroke-linejoin="round"/><line x1="748.66" y1="661.34" x2="748.66" y2="1280.18" fill="none" stroke="#ccc" stroke-linecap="round" stroke-linejoin="round"/><line x1="421.23" y1="653.77" x2="421.23" y2="1280.18" fill="none" stroke="#ccc" stroke-linecap="round" stroke-linejoin="round"/><line x1="431.79" y1="642.3" x2="431.79" y2="1278.94" fill="none" stroke="#ccc" stroke-linecap="round" stroke-linejoin="round"/><line x1="410.6" y1="1124.2" x2="410.6" y2="1280.18" fill="none" stroke="#ccc" stroke-linecap="round" stroke-linejoin="round"/><line x1="410.6" y1="682.8" x2="410.6" y2="722.27" fill="none" stroke="#ccc" stroke-linecap="round" stroke-linejoin="round"/><line x1="421.16" y1="653.77" x2="421.16" y2="1278.94" fill="none" stroke="#ccc" stroke-linecap="round" stroke-linejoin="round"/><line x1="442.35" y1="633.1" x2="442.35" y2="1283.14" fill="none" stroke="#ccc" stroke-linecap="round" stroke-linejoin="round"/><line x1="452.92" y1="624.9" x2="452.92" y2="1283.14" fill="none" stroke="#ccc" stroke-linecap="round" stroke-linejoin="round"/><line x1="463.48" y1="617.05" x2="463.48" y2="1283.94" fill="none" stroke="#ccc" stroke-linecap="round" stroke-linejoin="round"/><line x1="474.04" y1="609.44" x2="474.04" y2="1288.67" fill="none" stroke="#ccc" stroke-linecap="round" stroke-linejoin="round"/><line x1="484.6" y1="602" x2="484.6" y2="1288.67" fill="none" stroke="#ccc" stroke-linecap="round" stroke-linejoin="round"/><path d="M495.17,594.71c.35,230.31.35,459.31,0,689.12" fill="none" stroke="#ccc" stroke-linecap="round" stroke-linejoin="round"/><path d="M505.73,588q-.32,348,0,695.84" fill="none" stroke="#ccc" stroke-linecap="round" stroke-linejoin="round"/><path d="M516.29,588.53c.23,232.49.23,463.49,0,695.31" fill="none" stroke="#ccc" stroke-linecap="round" stroke-linejoin="round"/><path d="M526.85,594q-.5,345,0,689.93" fill="none" stroke="#ccc" stroke-linecap="round" stroke-linejoin="round"/><path d="M537.41,598c.11,229,.11,457,0,685.84" fill="none" stroke="#ccc" stroke-linecap="round" stroke-linejoin="round"/><path d="M548,601c-.46,228.06-.46,455.06,0,682.94" fill="none" stroke="#ccc" stroke-linecap="round" stroke-linejoin="round"/><path d="M558.54,602.93q0,340.64,0,681" fill="none" stroke="#ccc" stroke-linecap="round" stroke-linejoin="round"/><path d="M569.1,604.2c.42,226.82.42,452.82,0,679.71" fill="none" stroke="#ccc" stroke-linecap="round" stroke-linejoin="round"/><line x1="759.22" y1="714.42" x2="759.22" y2="1281.43" fill="none" stroke="#ccc" stroke-linecap="round" stroke-linejoin="round"/><path d="M769.79,883.66s1.29,120.75-1.44,252.49c-.67,32.75.86,142-.8,144" fill="none" stroke="#ccc" stroke-linecap="round" stroke-linejoin="round"/><line x1="780.65" y1="1006.7" x2="780.65" y2="1272.43" fill="none" stroke="#ccc" stroke-linecap="round" stroke-linejoin="round"/><line x1="791.22" y1="1100.72" x2="791.22" y2="1273.67" fill="none" stroke="#ccc" stroke-linecap="round" stroke-linejoin="round"/><line x1="801.78" y1="1177.24" x2="801.78" y2="1268.54" fill="none" stroke="#ccc" stroke-linecap="round" stroke-linejoin="round"/><path d="M773.15,771.85s8.85,88.71,13.4,156.92S832,1299.22,832,1299.22" fill="none" stroke="#ccc" stroke-linecap="round" stroke-linejoin="round"/><line x1="818.19" y1="1269.54" x2="823.93" y2="1300.52" fill="none" stroke="#ccc" stroke-linecap="round" stroke-linejoin="round"/><path d="M766.57,577.14s23,9.44,31.56,21.63,28.1,60.17,35.23,123.48" fill="none" stroke="#ccc" stroke-linecap="round" stroke-linejoin="round"/><path d="M857.46,945.48s16.32,90.8,16.59,125.09,23.32,217.7,23.32,217.7" fill="none" stroke="#ccc" stroke-linecap="round" stroke-linejoin="round"/><path d="M502.31,579s-74.62,47.33-87.54,66.39c-36,53.07-29.41,252-26.13,312l-3.58,356.46" fill="none" stroke="#ccc" stroke-linecap="round" stroke-linejoin="round"/><path d="M495.17,573.2s-77.07,48.49-90,67.55c-36,53.07-28.32,257.56-25,317.56l-3.26,359.45" fill="none" stroke="#ccc" stroke-linecap="round" stroke-linejoin="round"/><path d="M489.52,566.13s-77.41,48.82-91.58,67c-40.08,51.32-31.88,261.44-28.59,321.44l-1.22,363" fill="none" stroke="#ccc" stroke-linecap="round" stroke-linejoin="round"/><path d="M484.6,559.11s-78,49.56-94.38,65.79C348.8,666,355.57,887,358.86,947l-1.62,369.89" fill="none" stroke="#ccc" stroke-linecap="round" stroke-linejoin="round"/><path d="M480.21,550.22s-82.31,54.2-98.65,70.42c-41.41,41.11-36.35,259-33.07,319l-1.59,377.33" fill="none" stroke="#ccc" stroke-linecap="round" stroke-linejoin="round"/><path d="M445.18,562.63S385.27,598,368.93,614.19c-41.41,41.11-34.15,264.55-30.87,324.55l-1.59,377.33" fill="none" stroke="#ccc" stroke-linecap="round" stroke-linejoin="round"/><path d="M400.24,729.46S393.41,871.11,398.19,948c4.24,68.22-5.3,365-5.3,365" fill="none" stroke="#ccc" stroke-linecap="round" stroke-linejoin="round"/><line x1="403.42" y1="1287.67" x2="401.08" y2="1313.44" fill="none" stroke="#ccc" stroke-linecap="round" stroke-linejoin="round"/><path d="M326.75,1312.65s3.14-180.16-.29-214.28,2.09-147.52,2.09-147.52c-1-17.54-6.35-155.81-1.13-203.16,6-54.41,4.43-110.2,25.2-125.83" fill="none" stroke="#ccc" stroke-linecap="round" stroke-linejoin="round"/><path d="M406.62,877.34s1.12,180.74-2.18,223.38" fill="none" stroke="#ccc" stroke-linecap="round" stroke-linejoin="round"/><path d="M661.38,538.45l7.79,2.79" fill="none" stroke="#ccc" stroke-linecap="round" stroke-linejoin="round"/><path d="M573.08,589.91v11.14" fill="none" stroke="#ccc" stroke-linecap="round" stroke-linejoin="round"/><path d="M590.25,589.46c.21,4,.42,7.58.63,11.62" fill="none" stroke="#ccc" stroke-linecap="round" stroke-linejoin="round"/><path d="M605.75,586.43l1.72,10.2" fill="none" stroke="#ccc" stroke-linecap="round" stroke-linejoin="round"/><path d="M620.59,582.19l3.61,9.45" fill="none" stroke="#ccc" stroke-linecap="round" stroke-linejoin="round"/><path d="M635,575.1l4.93,7.26" fill="none" stroke="#ccc" stroke-linecap="round" stroke-linejoin="round"/><path d="M647.45,564.73l6.45,4.9" fill="none" stroke="#ccc" stroke-linecap="round" stroke-linejoin="round"/><path d="M657,552.26l6.81,3" fill="none" stroke="#ccc" stroke-linecap="round" stroke-linejoin="round"/><path d="M488.83,540.31l-7.44,4.4" fill="none" stroke="#ccc" stroke-linecap="round" stroke-linejoin="round"/><path d="M556,587.67,555.45,598" fill="none" stroke="#ccc" stroke-linecap="round" stroke-linejoin="round"/><path d="M541.15,585.57l-1.49,8.82" fill="none" stroke="#ccc" stroke-linecap="round" stroke-linejoin="round"/><path d="M527.33,579.76l-3,7.72" fill="none" stroke="#ccc" stroke-linecap="round" stroke-linejoin="round"/><path d="M514.35,573.45l-4.12,6" fill="none" stroke="#ccc" stroke-linecap="round" stroke-linejoin="round"/><path d="M504.23,563.52l-6.83,5.83" fill="none" stroke="#ccc" stroke-linecap="round" stroke-linejoin="round"/><path d="M494.92,552.25l-7.51,4.92" fill="none" stroke="#ccc" stroke-linecap="round" stroke-linejoin="round"/><path d="M411.88,765.86a4,4,0,0,0,1.64.3,4.89,4.89,0,0,0,3.9-2.48l4.23-.11a4.83,4.83,0,0,0,4,2.27,4.89,4.89,0,0,0,3.9-2.48l4.15-.11a4.48,4.48,0,0,0,7.91-.2l4.23-.11a4.83,4.83,0,0,0,4,2.27,4.89,4.89,0,0,0,3.9-2.48l4.38-.11a4.48,4.48,0,0,0,7.91-.21l4.23-.11a4.48,4.48,0,0,0,7.91-.2l4.23-.11a4.48,4.48,0,0,0,7.91-.21l4.23-.11a4.47,4.47,0,0,0,7.91-.21l4.07-.1a4.83,4.83,0,0,0,4,2.27,4.89,4.89,0,0,0,3.9-2.48l4.23-.11a4.86,4.86,0,0,0,4,2.28,4.92,4.92,0,0,0,3.9-2.48l4.38-.12a4.48,4.48,0,0,0,7.91-.2l4.23-.11a4.48,4.48,0,0,0,7.91-.21l4.23-.11a4.47,4.47,0,0,0,7.91-.21l4.22-.11a4.49,4.49,0,0,0,7.92-.2l4.06-.11a4.49,4.49,0,0,0,7.92-.2l4.22-.11a4.49,4.49,0,0,0,7.92-.21l4.38-.11a4.48,4.48,0,0,0,7.91-.21l4.23-.11a4.47,4.47,0,0,0,7.91-.21l4.22-.11A4.49,4.49,0,0,0,636,758l4.22-.11a4.47,4.47,0,0,0,7.91-.21l4.07-.1a4.48,4.48,0,0,0,7.91-.21l4.23-.11a4.47,4.47,0,0,0,7.91-.21l4.39-.11a4.47,4.47,0,0,0,7.91-.21l4.22-.11a4.49,4.49,0,0,0,7.92-.2l4.22-.11a4.47,4.47,0,0,0,7.91-.21L713,756a4.48,4.48,0,0,0,7.91-.2l4.07-.11a4.47,4.47,0,0,0,7.91-.21l4.23-.11a4.48,4.48,0,0,0,7.91-.2l4.38-.12a4.49,4.49,0,0,0,7.92-.2l4.22-.11a5,5,0,0,0,3.62,2.26l-3.09-34.71-5.58.12a4.46,4.46,0,0,0-7.78.2l-4.51.12a4.47,4.47,0,0,0-7.79.2l-4.35.12a4.46,4.46,0,0,0-7.78.2l-4.2.11a4.46,4.46,0,0,0-7.78.2l-4.36.11a4.46,4.46,0,0,0-7.78.21l-4.36.11a4.82,4.82,0,0,0-3.94-2.18,4.88,4.88,0,0,0-3.84,2.38l-4.35.12a4.47,4.47,0,0,0-7.79.2l-4.51.12a4.46,4.46,0,0,0-7.78.2l-4.36.11a4.46,4.46,0,0,0-7.78.21l-4.2.1a4.46,4.46,0,0,0-7.78.21l-4.36.11a4.82,4.82,0,0,0-3.94-2.18,4.88,4.88,0,0,0-3.84,2.38l-4.35.12a4.47,4.47,0,0,0-7.79.2l-4.35.11a4.47,4.47,0,0,0-7.79.2l-4.51.12a4.46,4.46,0,0,0-7.78.2l-4.36.12a4.82,4.82,0,0,0-3.94-2.18,4.88,4.88,0,0,0-3.84,2.38l-4.2.11a4.82,4.82,0,0,0-3.94-2.18,4.88,4.88,0,0,0-3.84,2.38l-4.35.12a4.47,4.47,0,0,0-7.79.2l-4.35.11a4.47,4.47,0,0,0-7.79.2l-4.35.12a4.46,4.46,0,0,0-7.78.2l-4.52.12a4.82,4.82,0,0,0-3.94-2.18A4.88,4.88,0,0,0,518,728.6l-4.35.11a4.46,4.46,0,0,0-7.79.21l-4.19.11a4.47,4.47,0,0,0-7.79.2l-4.35.11a4.47,4.47,0,0,0-7.79.2l-4.35.12a4.46,4.46,0,0,0-7.78.2l-4.36.11a4.46,4.46,0,0,0-7.78.21l-4.51.11a4.46,4.46,0,0,0-7.79.21l-4.35.11a4.46,4.46,0,0,0-7.78.2l-4.28.11a4.46,4.46,0,0,0-7.78.21l-4.36.11a4.82,4.82,0,0,0-3.94-2.18,3.84,3.84,0,0,0-.9.14S411.88,764.16,411.88,765.86Z" fill="#262521"/><path d="M415.31,842.63a5,5,0,0,0,4.11-2.83l3.79-.1a4.57,4.57,0,0,0,8.35-.22l3.71-.09a4.57,4.57,0,0,0,8.35-.22l3.79-.1a4.57,4.57,0,0,0,8.35-.22l3.95-.1a4.56,4.56,0,0,0,8.34-.22l3.79-.09a4.57,4.57,0,0,0,8.35-.22l3.79-.1a4.57,4.57,0,0,0,8.35-.22l3.79-.1a5,5,0,0,0,4.24,2.61,5.05,5.05,0,0,0,4.11-2.82l3.63-.1a4.57,4.57,0,0,0,8.35-.22l3.79-.09a4.57,4.57,0,0,0,8.34-.22l3.95-.1a4.57,4.57,0,0,0,8.35-.22l3.79-.1a4.57,4.57,0,0,0,8.35-.22l3.79-.1a5,5,0,0,0,4.24,2.61,5.05,5.05,0,0,0,4.11-2.82l3.79-.1a4.56,4.56,0,0,0,8.34-.22l3.64-.09a4.57,4.57,0,0,0,8.34-.22l3.8-.1a4.56,4.56,0,0,0,8.34-.22l4-.1a4.57,4.57,0,0,0,8.35-.22l3.79-.1a5,5,0,0,0,4.24,2.61,5.05,5.05,0,0,0,4.11-2.82l3.79-.1a4.56,4.56,0,0,0,8.34-.22l3.79-.1a4.57,4.57,0,0,0,8.35-.21l3.63-.1a4.57,4.57,0,0,0,8.35-.22l3.79-.1a4.57,4.57,0,0,0,8.35-.21l4-.11a5,5,0,0,0,4.24,2.61,5.05,5.05,0,0,0,4.11-2.82l3.79-.1a4.56,4.56,0,0,0,8.34-.22l3.79-.1a4.57,4.57,0,0,0,8.35-.21l3.79-.1a4.57,4.57,0,0,0,8.35-.22l3.63-.1a5,5,0,0,0,4.24,2.61,5.05,5.05,0,0,0,4.11-2.82l3.79-.1a4.57,4.57,0,0,0,8.35-.22l3.95-.1a4.56,4.56,0,0,0,8.34-.22l3.79-.1a4.56,4.56,0,0,0,8.34-.21s-3-31.8-3.07-33.85a4,4,0,0,0-1.9-.43,4.73,4.73,0,0,0-3.58,2l-4.88.13a4.36,4.36,0,0,0-7.26.19l-5,.13a4.37,4.37,0,0,0-7.27.19l-4.87.12a4.7,4.7,0,0,0-3.68-1.85,4.75,4.75,0,0,0-3.59,2l-4.71.12a4.7,4.7,0,0,0-3.68-1.85,4.75,4.75,0,0,0-3.59,2l-4.87.13a4.67,4.67,0,0,0-3.68-1.85,4.73,4.73,0,0,0-3.58,2l-4.88.13a4.36,4.36,0,0,0-7.26.19l-4.87.12a4.37,4.37,0,0,0-7.27.19l-5,.13a4.36,4.36,0,0,0-7.26.19l-4.88.13a4.36,4.36,0,0,0-7.26.19l-4.72.12a4.67,4.67,0,0,0-3.68-1.85,4.73,4.73,0,0,0-3.58,2l-4.88.13a4.36,4.36,0,0,0-7.26.19l-4.87.12a4.37,4.37,0,0,0-7.27.19l-4.87.13a4.37,4.37,0,0,0-7.27.19l-5,.13a4.36,4.36,0,0,0-7.26.19L588,803a4.37,4.37,0,0,0-7.27.19l-4.71.13a4.36,4.36,0,0,0-7.27.19l-4.87.12a4.37,4.37,0,0,0-7.27.19l-4.87.13a4.37,4.37,0,0,0-7.27.19l-4.87.12a4.36,4.36,0,0,0-7.26.19l-5,.13a4.37,4.37,0,0,0-7.27.19l-4.87.13a4.37,4.37,0,0,0-7.27.19l-4.71.12a4.69,4.69,0,0,0-3.68-1.85,4.74,4.74,0,0,0-3.59,2l-4.87.13a4.37,4.37,0,0,0-7.27.19l-4.87.12a4.36,4.36,0,0,0-7.26.19l-4.88.13a4.67,4.67,0,0,0-3.68-1.85,4.73,4.73,0,0,0-3.58,2l-5,.13a4.69,4.69,0,0,0-3.68-1.85,4.74,4.74,0,0,0-3.59,2l-4.87.13a4.7,4.7,0,0,0-3.68-1.86,4.75,4.75,0,0,0-3.59,2l-4.79.13a4.36,4.36,0,0,0-7.26.19l-4.88.13a4.68,4.68,0,0,0-3.68-1.86,4.31,4.31,0,0,0-2.57,1c0,.34-.09,33.49-.09,33.49v1A4.63,4.63,0,0,0,415.31,842.63Z" fill="#262521"/><path d="M768.29,871.79a4.88,4.88,0,0,0-3.87,2.43l-4.29.12a4.47,4.47,0,0,0-7.85.2l-4.45.12a4.47,4.47,0,0,0-7.85.2l-4.29.11a4.46,4.46,0,0,0-7.84.21l-4.14.1a4.82,4.82,0,0,0-4-2.22,4.88,4.88,0,0,0-3.87,2.43l-4.29.11a4.47,4.47,0,0,0-7.85.2l-4.29.12a4.47,4.47,0,0,0-7.85.2l-4.29.11a4.47,4.47,0,0,0-7.85.21l-4.45.11a4.46,4.46,0,0,0-7.84.21l-4.29.11a4.47,4.47,0,0,0-7.85.2l-4.13.11a4.47,4.47,0,0,0-7.85.2l-4.29.12a4.47,4.47,0,0,0-7.85.2l-4.29.11a4.47,4.47,0,0,0-7.85.21l-4.29.11a4.47,4.47,0,0,0-7.85.2l-4.44.12a4.47,4.47,0,0,0-7.85.2l-4.29.11a4.48,4.48,0,0,0-7.85.21l-4.13.11a4.47,4.47,0,0,0-7.85.2l-4.29.11a4.47,4.47,0,0,0-7.85.21l-4.29.11a4.46,4.46,0,0,0-7.84.2l-4.3.11a4.83,4.83,0,0,0-4-2.23,4.92,4.92,0,0,0-3.87,2.44l-4.45.11a4.82,4.82,0,0,0-4-2.22,4.88,4.88,0,0,0-3.87,2.43l-4.29.11a4.47,4.47,0,0,0-7.85.2l-4.13.11a4.47,4.47,0,0,0-7.85.21l-4.29.11a4.46,4.46,0,0,0-7.84.2l-4.29.11a4.47,4.47,0,0,0-7.85.21l-4.29.11a4.47,4.47,0,0,0-7.85.2l-4.45.12a4.47,4.47,0,0,0-7.85.2l-4.29.12a4.46,4.46,0,0,0-7.84.2l-4.22.11a4.83,4.83,0,0,0-4-2.23,4.88,4.88,0,0,0-3.87,2.43l-4.29.12a4.86,4.86,0,0,0-4-2.23,4.23,4.23,0,0,0-2.5.93c0,1.35-.3,34-.31,34.31a4.68,4.68,0,0,0,3.68,1.86,4.85,4.85,0,0,0,3.86-2.44l4.3-.11a4.83,4.83,0,0,0,4,2.23,4.88,4.88,0,0,0,3.87-2.43l4.21-.11a4.47,4.47,0,0,0,7.85-.21l4.29-.11a4.47,4.47,0,0,0,7.85-.2l4.45-.12a4.47,4.47,0,0,0,7.85-.2l4.29-.11a4.83,4.83,0,0,0,4,2.23,4.89,4.89,0,0,0,3.87-2.44l4.29-.11a4.47,4.47,0,0,0,7.85-.2l4.29-.12a4.47,4.47,0,0,0,7.85-.2l4.13-.11a4.47,4.47,0,0,0,7.85-.2l4.29-.11a4.47,4.47,0,0,0,7.85-.21l4.45-.11a4.83,4.83,0,0,0,4,2.23,4.89,4.89,0,0,0,3.87-2.44l4.29-.11a4.47,4.47,0,0,0,7.85-.2l4.29-.11a4.48,4.48,0,0,0,7.85-.21l4.29-.11a4.47,4.47,0,0,0,7.85-.21l4.13-.1a4.47,4.47,0,0,0,7.85-.21l4.29-.11a4.47,4.47,0,0,0,7.85-.2l4.44-.12a4.47,4.47,0,0,0,7.85-.2l4.29-.11a4.48,4.48,0,0,0,7.85-.21l4.29-.11a4.47,4.47,0,0,0,7.85-.21l4.29-.11a4.47,4.47,0,0,0,7.85-.2l4.13-.11a4.46,4.46,0,0,0,7.84-.2l4.3-.11a4.82,4.82,0,0,0,4,2.22,4.88,4.88,0,0,0,3.87-2.43l4.45-.11a4.48,4.48,0,0,0,7.85-.21l4.29-.11a4.47,4.47,0,0,0,7.85-.2l4.29-.12a4.46,4.46,0,0,0,7.84-.2l4.29-.11a4.47,4.47,0,0,0,7.85-.21l4.13-.1a4.48,4.48,0,0,0,7.85-.21l4.29-.11a4.47,4.47,0,0,0,7.85-.2L753,907a4.47,4.47,0,0,0,7.85-.2l4.29-.12a4.46,4.46,0,0,0,7.84-.2l4.3-.11-1-32.43-4,.1A4.86,4.86,0,0,0,768.29,871.79Z" fill="#262521"/><path d="M778.34,950l-4.29.11a4.47,4.47,0,0,0-7.85.2l-4.29.12a4.47,4.47,0,0,0-7.85.2l-4.45.12a4.47,4.47,0,0,0-7.85.2l-4.29.11a4.46,4.46,0,0,0-7.84.21l-4.14.1a4.83,4.83,0,0,0-4-2.23,4.89,4.89,0,0,0-3.87,2.44l-4.29.11a4.47,4.47,0,0,0-7.85.2l-4.29.12a4.47,4.47,0,0,0-7.85.2l-4.29.11a4.47,4.47,0,0,0-7.85.21l-4.45.11a4.46,4.46,0,0,0-7.84.21l-4.29.11a4.47,4.47,0,0,0-7.85.2l-4.13.11a4.47,4.47,0,0,0-7.85.2l-4.29.12a4.47,4.47,0,0,0-7.85.2l-4.29.11a4.47,4.47,0,0,0-7.85.21l-4.29.11a4.47,4.47,0,0,0-7.85.2l-4.44.12a4.47,4.47,0,0,0-7.85.2l-4.29.11a4.47,4.47,0,0,0-7.85.21l-4.13.11a4.47,4.47,0,0,0-7.85.2l-4.29.11a4.47,4.47,0,0,0-7.85.21l-4.29.11a4.47,4.47,0,0,0-7.85.2l-4.29.11a4.83,4.83,0,0,0-4-2.23,4.89,4.89,0,0,0-3.87,2.44l-4.45.11a4.47,4.47,0,0,0-7.85.21l-4.29.11a4.47,4.47,0,0,0-7.85.2l-4.13.11a4.47,4.47,0,0,0-7.85.21l-4.29.11a4.47,4.47,0,0,0-7.85.2l-4.28.11a4.47,4.47,0,0,0-7.85.21l-4.29.11a4.47,4.47,0,0,0-7.85.2l-4.45.12a4.47,4.47,0,0,0-7.85.2l-4.29.11a4.47,4.47,0,0,0-7.84.21l-4.22.11a4.83,4.83,0,0,0-4-2.23,4.88,4.88,0,0,0-3.87,2.43l-4.29.11a4.85,4.85,0,0,0-4-2.22,4.6,4.6,0,0,0-3.46,1.87c0,.22.43,33,.43,33.11a4.45,4.45,0,0,0,7.76-.32l4.3-.11a4.83,4.83,0,0,0,4,2.23,4.88,4.88,0,0,0,3.87-2.43l4.21-.11a4.47,4.47,0,0,0,7.85-.21l4.29-.11a4.47,4.47,0,0,0,7.85-.2l4.45-.12a4.47,4.47,0,0,0,7.85-.2l4.29-.11a4.79,4.79,0,0,0,4,2.22,4.88,4.88,0,0,0,3.87-2.43l4.29-.11a4.47,4.47,0,0,0,7.85-.2l4.29-.12a4.47,4.47,0,0,0,7.85-.2l4.13-.11a4.47,4.47,0,0,0,7.85-.2l4.29-.11a4.47,4.47,0,0,0,7.85-.21l4.45-.11a4.83,4.83,0,0,0,4,2.23,4.92,4.92,0,0,0,3.87-2.44l4.29-.11a4.47,4.47,0,0,0,7.85-.2l4.29-.12a4.47,4.47,0,0,0,7.85-.2l4.29-.11a4.47,4.47,0,0,0,7.85-.21l4.13-.1a4.47,4.47,0,0,0,7.85-.21l4.29-.11a4.47,4.47,0,0,0,7.85-.2l4.44-.12a4.47,4.47,0,0,0,7.85-.2l4.29-.12a4.47,4.47,0,0,0,7.85-.2l4.29-.11a4.47,4.47,0,0,0,7.85-.21l4.29-.11a4.46,4.46,0,0,0,7.84-.2l4.14-.11a4.46,4.46,0,0,0,7.84-.2l4.3-.12a4.83,4.83,0,0,0,4,2.23,4.88,4.88,0,0,0,3.87-2.43L682,985a4.47,4.47,0,0,0,7.85-.2l4.29-.11a4.47,4.47,0,0,0,7.85-.21l4.29-.11a4.46,4.46,0,0,0,7.84-.2l4.29-.11a4.47,4.47,0,0,0,7.85-.21l4.13-.11a4.47,4.47,0,0,0,7.85-.2l4.29-.11a4.47,4.47,0,0,0,7.85-.21l4.45-.11a4.47,4.47,0,0,0,7.85-.21l4.29-.11a4.46,4.46,0,0,0,7.84-.2l4.29-.11a4.86,4.86,0,0,0,4,2.23l-.86-37.11A4.89,4.89,0,0,0,778.34,950Z" fill="#262521"/><path d="M790.5,1058.15s-3.1-32.52-3.15-33a4.48,4.48,0,0,0-3.37-1.51,4.86,4.86,0,0,0-3.84,2.39l-4.34.11a4.46,4.46,0,0,0-7.8.21l-4.34.11a4.47,4.47,0,0,0-7.8.2l-4.5.12a4.46,4.46,0,0,0-7.79.2l-4.34.12a4.46,4.46,0,0,0-7.8.2l-4.18.11a4.47,4.47,0,0,0-7.8.2l-4.34.11a4.46,4.46,0,0,0-7.8.21L703,1028a4.47,4.47,0,0,0-7.8.2l-4.34.12a4.82,4.82,0,0,0-4-2.2,4.88,4.88,0,0,0-3.85,2.4l-4.49.12a4.46,4.46,0,0,0-7.8.2l-4.34.11a4.47,4.47,0,0,0-7.8.2l-4.18.11a4.46,4.46,0,0,0-7.8.21l-4.34.11a4.47,4.47,0,0,0-7.8.2l-4.34.12a4.82,4.82,0,0,0-3.95-2.2,4.88,4.88,0,0,0-3.85,2.4l-4.34.11a4.46,4.46,0,0,0-7.79.2l-4.5.12a4.47,4.47,0,0,0-7.8.2l-4.34.12a4.47,4.47,0,0,0-7.8.2l-4.18.11a4.47,4.47,0,0,0-7.8.2l-4.34.11a4.46,4.46,0,0,0-7.8.21l-4.34.11a4.46,4.46,0,0,0-7.79.2l-4.34.12a4.47,4.47,0,0,0-7.8.2l-4.5.12a4.47,4.47,0,0,0-7.8.2l-4.34.11a4.81,4.81,0,0,0-4-2.19,4.88,4.88,0,0,0-3.85,2.4l-4.18.1a4.46,4.46,0,0,0-7.8.21l-4.34.11a4.46,4.46,0,0,0-7.79.2l-4.34.12a4.47,4.47,0,0,0-7.8.2l-4.34.11a4.46,4.46,0,0,0-7.8.21l-4.5.11a4.81,4.81,0,0,0-3.95-2.19,4.88,4.88,0,0,0-3.85,2.4l-4.34.11a4.81,4.81,0,0,0-4-2.19,4.86,4.86,0,0,0-3.84,2.39l-4.26.11a4.46,4.46,0,0,0-7.8.21l-4.34.11a4.47,4.47,0,0,0-7.8.2l-2.14.06c-.46,5.91-1.58,32.76-1.4,32.49l4.25-.11a4.48,4.48,0,0,0,7.9-.2l4.24-.11a4.47,4.47,0,0,0,7.89-.21l4.17-.11a4.47,4.47,0,0,0,7.89-.2L453,1067a4.48,4.48,0,0,0,7.9-.21l4.4-.11a4.86,4.86,0,0,0,4,2.26,4.92,4.92,0,0,0,3.9-2.47l4.24-.11a4.47,4.47,0,0,0,7.89-.21l4.24-.11a4.48,4.48,0,0,0,7.9-.2l4.24-.11a4.48,4.48,0,0,0,7.9-.21l4.08-.1a4.48,4.48,0,0,0,7.9-.21l4.24-.11a4.47,4.47,0,0,0,7.9-.21l4.4-.11a4.47,4.47,0,0,0,7.89-.21l4.24-.11a4.48,4.48,0,0,0,7.9-.2l4.24-.11a4.48,4.48,0,0,0,7.9-.21l4.24-.11a4.48,4.48,0,0,0,7.9-.2l4.08-.11a4.47,4.47,0,0,0,7.9-.21l4.24-.11a4.85,4.85,0,0,0,4,2.27,4.92,4.92,0,0,0,3.9-2.47l4.39-.12a4.48,4.48,0,0,0,7.9-.2l4.24-.11a4.48,4.48,0,0,0,7.9-.21l4.24-.11a4.48,4.48,0,0,0,7.9-.2l4.24-.11a4.86,4.86,0,0,0,4,2.26,4.92,4.92,0,0,0,3.9-2.47l4.08-.11a4.85,4.85,0,0,0,4,2.27,4.92,4.92,0,0,0,3.9-2.47l4.24-.11a4.47,4.47,0,0,0,7.89-.21l4.4-.11a4.47,4.47,0,0,0,7.9-.21l4.24-.11a4.48,4.48,0,0,0,7.9-.2l4.24-.11a4.86,4.86,0,0,0,4,2.26,4.92,4.92,0,0,0,3.9-2.47l4.24-.11a4.47,4.47,0,0,0,7.89-.2l4.09-.11a4.47,4.47,0,0,0,7.89-.21l4.24-.11a4.48,4.48,0,0,0,7.9-.2l4.4-.12a4.48,4.48,0,0,0,7.9-.2l4.24-.11a4.86,4.86,0,0,0,4,2.26,4.92,4.92,0,0,0,3.9-2.47l4.24-.11a4.47,4.47,0,0,0,7.89-.2Z" fill="#262521"/><path d="M795.74,1100.69a5.86,5.86,0,0,0-1.36,1.28l-5,.13a4.34,4.34,0,0,0-7.16.19l-5,.13a4.61,4.61,0,0,0-3.62-1.79,4.68,4.68,0,0,0-3.54,2l-5,.13a4.37,4.37,0,0,0-7.17.19l-5.13.13a4.36,4.36,0,0,0-7.16.19l-5,.13a4.34,4.34,0,0,0-7.16.19l-4.82.12a4.34,4.34,0,0,0-7.16.19l-5,.13a4.61,4.61,0,0,0-3.62-1.79,4.68,4.68,0,0,0-3.54,2l-5,.13a4.37,4.37,0,0,0-7.17.19l-5,.13a4.35,4.35,0,0,0-7.17.19L680,1105a4.34,4.34,0,0,0-7.16.19l-5,.12a4.63,4.63,0,0,0-3.62-1.78,4.68,4.68,0,0,0-3.54,2l-4.82.13a4.61,4.61,0,0,0-3.62-1.79,4.68,4.68,0,0,0-3.54,2l-5,.13a4.35,4.35,0,0,0-7.17.19l-5,.13a4.35,4.35,0,0,0-7.17.19l-5,.12a4.36,4.36,0,0,0-7.16.19l-5.13.13a4.37,4.37,0,0,0-7.17.19l-5,.13a4.35,4.35,0,0,0-7.17.19l-4.81.12a4.35,4.35,0,0,0-7.17.19l-5,.13a4.68,4.68,0,0,0-3.63-1.79,4.73,4.73,0,0,0-3.54,2l-5,.13a4.36,4.36,0,0,0-7.16.19l-5,.13a4.34,4.34,0,0,0-7.16.19l-5.13.13a4.35,4.35,0,0,0-7.17.19l-5,.13a4.65,4.65,0,0,0-3.63-1.79,4.7,4.7,0,0,0-3.54,2l-4.81.13a4.65,4.65,0,0,0-3.63-1.79,4.73,4.73,0,0,0-3.54,2l-5,.13a4.36,4.36,0,0,0-7.16.19l-5,.13a4.34,4.34,0,0,0-7.16.19l-5,.13a4.61,4.61,0,0,0-3.62-1.79,4.68,4.68,0,0,0-3.54,2l-5.13.14a4.35,4.35,0,0,0-7.16.18l-5,.13a4.34,4.34,0,0,0-7.16.19l-4.9.13a4.35,4.35,0,0,0-7.16.18l-5,.13a4.67,4.67,0,0,0-3.62-1.79,4.72,4.72,0,0,0-3.54,2l-5,.13a4.65,4.65,0,0,0-3.63-1.79c-.48,0-3.4,34.43-3.4,34.43a5,5,0,0,0,4.27,2.67,5.06,5.06,0,0,0,4.15-2.89l3.71-.1a5,5,0,0,0,4.28,2.68,5.1,5.1,0,0,0,4.15-2.9l3.7-.09a4.59,4.59,0,0,0,8.43-.22l3.63-.1a4.58,4.58,0,0,0,8.43-.22l3.71-.09a4.59,4.59,0,0,0,8.43-.22l3.87-.1a4.59,4.59,0,0,0,8.43-.22l3.7-.1a4.59,4.59,0,0,0,8.44-.22l3.7-.09a4.59,4.59,0,0,0,8.43-.22l3.71-.1a4.59,4.59,0,0,0,8.43-.22l3.55-.09a4.59,4.59,0,0,0,8.43-.22l3.71-.1a4.59,4.59,0,0,0,8.43-.22l3.86-.1a4.59,4.59,0,0,0,8.43-.22l3.71-.09a4.59,4.59,0,0,0,8.43-.22l3.71-.1a4.59,4.59,0,0,0,8.43-.22l3.71-.1a5,5,0,0,0,4.28,2.68,5.1,5.1,0,0,0,4.15-2.9l3.55-.09a4.59,4.59,0,0,0,8.43-.22l3.71-.09a5,5,0,0,0,4.28,2.67,5.11,5.11,0,0,0,4.15-2.89l3.86-.1a4.59,4.59,0,0,0,8.43-.22l3.71-.1a4.59,4.59,0,0,0,8.43-.22l3.71-.1a5,5,0,0,0,4.28,2.68,5.1,5.1,0,0,0,4.15-2.9l3.7-.09a4.59,4.59,0,0,0,8.44-.22l3.54-.09a4.59,4.59,0,0,0,8.44-.22l3.7-.1a4.59,4.59,0,0,0,8.43-.22l3.87-.1a4.59,4.59,0,0,0,8.43-.22l3.71-.1a5,5,0,0,0,4.28,2.68,5.11,5.11,0,0,0,4.15-2.89l3.7-.1a4.59,4.59,0,0,0,8.44-.22l3.7-.1a4.59,4.59,0,0,0,8.43-.22l3.55-.09a4.59,4.59,0,0,0,8.43-.22l3.71-.1a4.58,4.58,0,0,0,8.43-.21l3.87-.11a5,5,0,0,0,4.28,2.68,5.11,5.11,0,0,0,4.15-2.89l3.7-.1a4.59,4.59,0,0,0,8.44-.22l3.7-.1a4.59,4.59,0,0,0,8.43-.22l3.71-.09a5,5,0,0,0,4.28,2.67,4.19,4.19,0,0,0,1.67-.41C800.37,1135.88,795.93,1103.12,795.74,1100.69Z" fill="#262521"/><path d="M806.31,1177.68l-2.65.07a4.47,4.47,0,0,0-7.85.2l-4.29.12a4.47,4.47,0,0,0-7.85.2l-4.29.11a4.47,4.47,0,0,0-7.85.21l-4.29.11a4.83,4.83,0,0,0-4-2.23,4.88,4.88,0,0,0-3.87,2.43L755,1179a4.47,4.47,0,0,0-7.85.2l-4.29.11a4.47,4.47,0,0,0-7.85.21l-4.13.11a4.47,4.47,0,0,0-7.85.2l-4.29.11a4.47,4.47,0,0,0-7.85.21l-4.29.11a4.83,4.83,0,0,0-4-2.23,4.88,4.88,0,0,0-3.87,2.43l-4.29.11a4.47,4.47,0,0,0-7.85.21l-4.45.11a4.47,4.47,0,0,0-7.85.21l-4.29.11a4.47,4.47,0,0,0-7.85.2l-4.13.11a4.47,4.47,0,0,0-7.85.21l-4.29.11a4.83,4.83,0,0,0-4-2.23,4.88,4.88,0,0,0-3.87,2.43l-4.29.11a4.47,4.47,0,0,0-7.85.21l-4.29.11a4.47,4.47,0,0,0-7.85.2l-4.45.12a4.46,4.46,0,0,0-7.84.2l-4.3.11a4.47,4.47,0,0,0-7.84.21l-4.14.11a4.83,4.83,0,0,0-4-2.23,4.88,4.88,0,0,0-3.87,2.43l-4.29.11a4.47,4.47,0,0,0-7.85.21l-4.29.11a4.47,4.47,0,0,0-7.85.2l-4.29.11a4.48,4.48,0,0,0-7.85.21l-4.44.11a4.48,4.48,0,0,0-7.85.21l-4.29.11a4.47,4.47,0,0,0-7.85.21l-4.13.1a4.47,4.47,0,0,0-7.85.21l-4.29.11a4.47,4.47,0,0,0-7.85.2l-4.29.11a4.48,4.48,0,0,0-7.85.21l-4.29.11a4.46,4.46,0,0,0-7.84.2l-4.45.12a4.47,4.47,0,0,0-7.85.2l-4.29.12a4.47,4.47,0,0,0-7.85.2l-4.21.11a4.47,4.47,0,0,0-7.85.2l-4.29.12a4.47,4.47,0,0,0-7.85.2l-4.29.11a4.83,4.83,0,0,0-4-2.23,4.89,4.89,0,0,0-3.87,2.44l-4.3.11,0,0v.11c0,7,.49,32.81.78,32.37l4.3-.11a4.82,4.82,0,0,0,4,2.22,4.88,4.88,0,0,0,3.87-2.43l4.29-.11a4.47,4.47,0,0,0,7.85-.2l4.29-.12a4.47,4.47,0,0,0,7.85-.2l4.21-.11a4.47,4.47,0,0,0,7.85-.2l4.29-.12a4.47,4.47,0,0,0,7.85-.2l4.44-.12a4.47,4.47,0,0,0,7.85-.2l4.29-.11a4.47,4.47,0,0,0,7.85-.21l4.29-.11a4.47,4.47,0,0,0,7.85-.2l4.29-.11a4.85,4.85,0,0,0,4,2.22,4.9,4.9,0,0,0,3.87-2.43l4.13-.11a4.47,4.47,0,0,0,7.85-.2l4.29-.11a4.46,4.46,0,0,0,7.84-.21l4.45-.11a4.47,4.47,0,0,0,7.85-.21l4.29-.11a4.47,4.47,0,0,0,7.85-.2l4.29-.11a4.85,4.85,0,0,0,4,2.22,4.9,4.9,0,0,0,3.87-2.43l4.29-.11a4.83,4.83,0,0,0,4,2.23,4.88,4.88,0,0,0,3.87-2.43l4.14-.11a4.46,4.46,0,0,0,7.84-.21l4.29-.11a4.47,4.47,0,0,0,7.85-.2l4.45-.12a4.47,4.47,0,0,0,7.85-.2l4.29-.11a4.86,4.86,0,0,0,4,2.23,4.93,4.93,0,0,0,3.87-2.44l4.28-.11a4.47,4.47,0,0,0,7.85-.2l4.29-.12a4.47,4.47,0,0,0,7.85-.2l4.13-.11a4.47,4.47,0,0,0,7.85-.2l4.29-.11a4.47,4.47,0,0,0,7.85-.21l4.45-.11a4.46,4.46,0,0,0,7.84-.21l4.29-.11a4.47,4.47,0,0,0,7.85-.2l4.29-.12a4.47,4.47,0,0,0,7.85-.2l4.29-.11a4.47,4.47,0,0,0,7.85-.21l4.13-.1a4.47,4.47,0,0,0,7.85-.21l4.29-.11a4.47,4.47,0,0,0,7.85-.2l4.44-.12a4.47,4.47,0,0,0,7.85-.2l4.29-.12a4.47,4.47,0,0,0,7.85-.2l4.29-.11a4.47,4.47,0,0,0,7.85-.21l4.29-.11a4.47,4.47,0,0,0,7.85-.2l4.55-.12C809.44,1210.7,806.63,1183.77,806.31,1177.68Z" fill="#262521"/><path d="M813.9,1251.49h0a4.87,4.87,0,0,0-3.87,2.44l-4.54.11a4.48,4.48,0,0,0-7.85.21l-4.29.11a4.46,4.46,0,0,0-7.84.2l-4.29.12a4.47,4.47,0,0,0-7.85.2L769,1255a4.47,4.47,0,0,0-7.85.21l-4.45.11a4.86,4.86,0,0,0-4-2.23,4.91,4.91,0,0,0-3.87,2.44l-4.29.11a4.83,4.83,0,0,0-4-2.23,4.88,4.88,0,0,0-3.87,2.43l-4.14.11a4.83,4.83,0,0,0-4-2.23,4.88,4.88,0,0,0-3.87,2.43l-4.29.12a4.47,4.47,0,0,0-7.85.2l-4.29.11a4.47,4.47,0,0,0-7.85.21l-4.29.11a4.47,4.47,0,0,0-7.85.2l-4.45.12a4.83,4.83,0,0,0-4-2.23,4.88,4.88,0,0,0-3.87,2.43l-4.29.11a4.48,4.48,0,0,0-7.85.21l-4.13.11a4.47,4.47,0,0,0-7.85.2l-4.29.11a4.47,4.47,0,0,0-7.85.21l-4.29.11a4.47,4.47,0,0,0-7.85.2l-4.29.11a4.85,4.85,0,0,0-4-2.22,4.9,4.9,0,0,0-3.87,2.43l-4.44.11a4.48,4.48,0,0,0-7.85.21l-4.29.11a4.47,4.47,0,0,0-7.85.2l-4.13.11a4.47,4.47,0,0,0-7.85.21l-4.29.11a4.47,4.47,0,0,0-7.85.2l-4.29.11a4.82,4.82,0,0,0-4-2.22,4.9,4.9,0,0,0-3.87,2.43l-4.29.11a4.83,4.83,0,0,0-4-2.23,4.88,4.88,0,0,0-3.87,2.43l-4.45.12a4.47,4.47,0,0,0-7.85.2l-4.29.12a4.47,4.47,0,0,0-7.85.2l-4.13.11a4.47,4.47,0,0,0-7.85.2l-4.29.11a4.86,4.86,0,0,0-4-2.23,4.93,4.93,0,0,0-3.87,2.44l-4.29.11a4.83,4.83,0,0,0-4-2.23,4.88,4.88,0,0,0-3.87,2.43l-4.29.12a4.47,4.47,0,0,0-7.85.2l-4.45.12a4.47,4.47,0,0,0-7.85.2l-4.29.11a4.46,4.46,0,0,0-7.84.21l-4.22.11a4.83,4.83,0,0,0-4-2.23,4.88,4.88,0,0,0-3.87,2.43l-4.29.11a4.47,4.47,0,0,0-7.85.21l-4.29.11a4.47,4.47,0,0,0-7.85.2l-4.3.11a5.62,5.62,0,0,0-2.26-1.89c-1.46,26.1,7.5,29.87,8.11,30.18,12.36,6.11,106.72,1.4,165.73.45,97.88-1.58,221.29-5.12,231.43-10C816.5,1279,813.9,1252.26,813.9,1251.49Z" fill="#262521"/><path d="M410.41,748.9a4.88,4.88,0,0,0-3.84,2.38l-4.35.11a4.47,4.47,0,0,0-7.79.21l-4.35.11a4.47,4.47,0,0,0-7.79.2l-4.35.12a4.46,4.46,0,0,0-7.78.2l-4.52.12a4.82,4.82,0,0,0-3.94-2.18,4.88,4.88,0,0,0-3.84,2.38l-4.35.11a4.46,4.46,0,0,0-7.79.21l-4.19.1a4.47,4.47,0,0,0-7.79.21l-4.35.11a4.47,4.47,0,0,0-7.79.2l-4.36.12a5.43,5.43,0,0,0-2.33-1.89c0,2-1,36.81-.74,36.81a4.9,4.9,0,0,0,3.9-2.49l4.23-.11a4.48,4.48,0,0,0,7.91-.2l4.23-.11a4.47,4.47,0,0,0,7.91-.21l4.07-.1a4.48,4.48,0,0,0,7.91-.21l4.23-.11a4.86,4.86,0,0,0,4,2.28,4.92,4.92,0,0,0,3.9-2.49l4.38-.11a4.47,4.47,0,0,0,7.91-.21l4.23-.11a4.48,4.48,0,0,0,7.91-.2l4.23-.11a4.47,4.47,0,0,0,7.91-.21l4.22-.11a5,5,0,0,0,3.63,2.26S410.57,748.89,410.41,748.9Z" fill="#262521"/><path d="M411.77,825.41a4.82,4.82,0,0,0-3.16,2l-4.87.13a4.69,4.69,0,0,0-3.68-1.85,4.74,4.74,0,0,0-3.59,2l-4.87.13a4.37,4.37,0,0,0-7.27.19l-4.87.12a4.36,4.36,0,0,0-7.26.19l-5,.13a4.37,4.37,0,0,0-7.27.19l-4.87.13a4.37,4.37,0,0,0-7.27.19l-4.71.12a4.69,4.69,0,0,0-3.68-1.85,4.74,4.74,0,0,0-3.59,2l-4.87.13a4.37,4.37,0,0,0-7.27.19l-4.87.12a4.7,4.7,0,0,0-3.68-1.85,4.06,4.06,0,0,0-.7.09V864.7A3.81,3.81,0,0,0,316,865a5,5,0,0,0,4.11-2.82l3.79-.1a4.57,4.57,0,0,0,8.35-.22l3.79-.1a5,5,0,0,0,4.24,2.61,5.05,5.05,0,0,0,4.11-2.82l3.63-.1a4.57,4.57,0,0,0,8.35-.22l3.79-.1a5,5,0,0,0,4.23,2.61,5.05,5.05,0,0,0,4.12-2.82l3.94-.11a4.57,4.57,0,0,0,8.35-.21l3.79-.1a4.57,4.57,0,0,0,8.35-.22l3.79-.1a5,5,0,0,0,4.24,2.61A5.05,5.05,0,0,0,405,860l3.79-.1a5,5,0,0,0,4.23,2.6C413.16,862.46,411.77,826.18,411.77,825.41Z" fill="#262521"/><path d="M413.65,920c-.14-4.09-.49-8.17-.72-12.26,0-.29,0-.58-.05-.87-.05-1-.09-2-.12-3s-.06-1.91-.07-2.86a5.3,5.3,0,0,0-2.57,2.18l-4.32.11a4.47,4.47,0,0,0-7.85.21l-4.29.11a4.46,4.46,0,0,0-7.84.2l-4.3.11a4.83,4.83,0,0,0-4-2.23,4.89,4.89,0,0,0-3.87,2.44l-4.45.11a4.47,4.47,0,0,0-7.85.21l-4.29.11a4.47,4.47,0,0,0-7.85.2l-4.13.11a4.47,4.47,0,0,0-7.85.21l-4.29.11a4.84,4.84,0,0,0-4-2.23,4.9,4.9,0,0,0-3.87,2.43l-4.28.11a4.86,4.86,0,0,0-4-2.23,4.25,4.25,0,0,0-1.9.54c0,.62,0,1.23,0,1.85h0c0,1.6,0,3.21.07,4.82l0,1.19c.05,2.12.11,4.24.2,6.36v.14h0c.29,6.65.78,13.29,1.62,19.89h0c.1.77.19,1.53.29,2.29a3.05,3.05,0,0,0,.52,0,4.88,4.88,0,0,0,3.87-2.43l4.29-.11a4.47,4.47,0,0,0,7.85-.2l4.29-.12a4.47,4.47,0,0,0,7.85-.2l4.13-.11a4.47,4.47,0,0,0,7.85-.2l4.29-.11a4.86,4.86,0,0,0,4,2.23,4.92,4.92,0,0,0,3.87-2.44l4.45-.11a4.83,4.83,0,0,0,4,2.23,4.92,4.92,0,0,0,3.87-2.44l4.29-.11a4.47,4.47,0,0,0,7.85-.2l4.29-.12a4.47,4.47,0,0,0,7.85-.2l4.3-.11a5.11,5.11,0,0,0,3.15,2.15l0-2.23h0c0-1,0-1.92-.05-2.88s0-2.18-.05-3.27C413.83,926.29,413.75,923.13,413.65,920Z" fill="#262521"/><path d="M414,977.41a5.75,5.75,0,0,0-2.08,2l-4.29.11a4.47,4.47,0,0,0-7.85.2l-4.29.12a4.46,4.46,0,0,0-7.84.2l-4.3.11a4.46,4.46,0,0,0-7.84.21l-4.45.11a4.47,4.47,0,0,0-7.85.21l-4.29.11a4.47,4.47,0,0,0-7.85.2l-4.13.11a4.47,4.47,0,0,0-7.85.2l-4.29.12a4.46,4.46,0,0,0-7.84.2l-4.29.11a4.45,4.45,0,0,0-7.83.21l-.84,0c0,.72-3.27,16.09-2,32.51l3.59-.09a4.82,4.82,0,0,0,4,2.22,4.88,4.88,0,0,0,3.87-2.43l4.29-.11a4.47,4.47,0,0,0,7.85-.21l4.29-.11a4.47,4.47,0,0,0,7.85-.2l4.13-.11a4.47,4.47,0,0,0,7.85-.2l4.29-.11a4.48,4.48,0,0,0,7.85-.21l4.45-.11a4.82,4.82,0,0,0,4,2.22,4.88,4.88,0,0,0,3.87-2.43l4.29-.11a4.47,4.47,0,0,0,7.85-.2l4.29-.12a4.47,4.47,0,0,0,7.85-.2l4.31-.11a6.57,6.57,0,0,0,1.3,1.33Z" fill="#262521"/><path d="M413.54,1055.65l-4.34.11a4.47,4.47,0,0,0-7.8.2l-4.34.12a4.46,4.46,0,0,0-7.8.2l-4.5.12a4.46,4.46,0,0,0-7.79.2l-4.34.11a4.46,4.46,0,0,0-7.8.21l-4.18.1a4.46,4.46,0,0,0-7.8.21l-4.34.11a4.47,4.47,0,0,0-7.8.2l-4.34.12a4.46,4.46,0,0,0-7.8.2l-4.34.11a4.81,4.81,0,0,0-4-2.19,4.88,4.88,0,0,0-3.85,2.4l-4,.1c0,.34,2.47,32.39,2.47,32.39l2.21-.06a4.48,4.48,0,0,0,7.9-.2l4.24-.11a4.47,4.47,0,0,0,7.9-.21l4.24-.11a4.48,4.48,0,0,0,7.9-.2l4.24-.11a4.47,4.47,0,0,0,7.89-.21l4.09-.1a4.47,4.47,0,0,0,7.89-.21l4.24-.11a4.47,4.47,0,0,0,7.9-.21l4.4-.11a4.47,4.47,0,0,0,7.9-.21l4.24-.11a4.48,4.48,0,0,0,7.9-.2S413.56,1055.62,413.54,1055.65Z" fill="#262521"/><path d="M407.17,1130a4.73,4.73,0,0,0-3.54,2l-5,.13a4.36,4.36,0,0,0-7.16.19l-5,.13a4.34,4.34,0,0,0-7.16.19l-5.13.13a4.35,4.35,0,0,0-7.17.19l-5,.13a4.35,4.35,0,0,0-7.16.18l-4.82.13a4.65,4.65,0,0,0-3.63-1.79,4.69,4.69,0,0,0-3.53,2l-5,.13a4.36,4.36,0,0,0-7.16.19l-5,.13a4.34,4.34,0,0,0-7.16.19l-2.73.07c.07,10.81.36,21.63.48,32.44l2.37-.06a4.59,4.59,0,0,0,8.44-.22l3.7-.09a4.59,4.59,0,0,0,8.43-.22l3.71-.1a4.59,4.59,0,0,0,8.43-.22l3.55-.09a4.59,4.59,0,0,0,8.43-.22l3.71-.1a4.59,4.59,0,0,0,8.43-.22l3.86-.1a4.59,4.59,0,0,0,8.43-.22l3.71-.09a4.59,4.59,0,0,0,8.43-.22l3.73-.1a6.83,6.83,0,0,0,1.14,1.39C405,1163.25,407.74,1129.93,407.17,1130Z" fill="#262521"/><path d="M316.47,1242.82s4.39-.26,4.39-.26a4.47,4.47,0,0,0,7.85-.21l4.29-.11a4.47,4.47,0,0,0,7.85-.2l4.29-.12a4.47,4.47,0,0,0,7.85-.2l4.13-.11a4.47,4.47,0,0,0,7.85-.2l4.29-.11a4.83,4.83,0,0,0,4,2.23,4.89,4.89,0,0,0,3.87-2.44l4.45-.11a4.47,4.47,0,0,0,7.85-.21l4.29-.11a4.46,4.46,0,0,0,7.84-.2s.92-24,.84-32.48l-1.6,0a4.83,4.83,0,0,0-4-2.23,4.88,4.88,0,0,0-3.87,2.43l-4.29.11a4.48,4.48,0,0,0-7.85.21l-4.44.11a4.48,4.48,0,0,0-7.85.21l-4.29.11a4.47,4.47,0,0,0-7.85.2l-4.13.11a4.47,4.47,0,0,0-7.85.21l-4.29.11a4.47,4.47,0,0,0-7.85.2l-4.29.11a4.86,4.86,0,0,0-4-2.23,4.92,4.92,0,0,0-3.87,2.44l-3.78.1c0,.27,0,7.07,0,10.2C316.36,1220.42,316.47,1242.61,316.47,1242.82Z" fill="#262521"/><path d="M411.78,1285l-9.22-.71a4.86,4.86,0,0,0-4-2.23,4.91,4.91,0,0,0-3.87,2.44l-4.29.11a4.83,4.83,0,0,0-4-2.23,4.88,4.88,0,0,0-3.87,2.43l-4.45.12a4.47,4.47,0,0,0-7.85.2l-4.29.12a4.47,4.47,0,0,0-7.85.2l-4.13.11a4.47,4.47,0,0,0-7.85.2l-4.29.11a4.86,4.86,0,0,0-4-2.23,4.91,4.91,0,0,0-3.87,2.44l-4.28.11a4.47,4.47,0,0,0-7.85.2l-5.37.14c.06,4.58,2.39,29.26,5.06,33.65s78.24,3.19,89-3.27C411.78,1310.62,411.78,1285,411.78,1285Z" fill="#262521"/><path d="M771.13,776.23A4.48,4.48,0,0,0,779,776l4.23-.11a4.47,4.47,0,0,0,7.91-.21l4.23-.11a4.48,4.48,0,0,0,7.91-.2l4.23-.11a4.86,4.86,0,0,0,4,2.28,4.92,4.92,0,0,0,3.9-2.49l4.14-.11a4.49,4.49,0,0,0,7.92-.2l4.22-.11a4.88,4.88,0,0,0,4,2.28,5,5,0,0,0,3.9-2.49l4.38-.11c.16.22-5.21-32.33-5.21-32.33a4.46,4.46,0,0,0-7.78.21l-4.36.11a4.82,4.82,0,0,0-3.94-2.18,4.88,4.88,0,0,0-3.84,2.38l-4.27.11a4.46,4.46,0,0,0-7.79.21l-4.35.11a4.47,4.47,0,0,0-7.79.2l-4.35.12a4.46,4.46,0,0,0-7.78.2l-4.36.11a4.46,4.46,0,0,0-7.78.21l-4.53.11a5.53,5.53,0,0,0-2.42-1.92c0,.67,4,34.34,4,34.34Z" fill="#262521"/><path d="M778.23,854.93a5,5,0,0,0,4.11-2.82l3.79-.1a4.57,4.57,0,0,0,8.35-.22l3.79-.1a5,5,0,0,0,4.24,2.61,5.05,5.05,0,0,0,4.11-2.82l3.79-.1a4.56,4.56,0,0,0,8.34-.22l3.72-.1a5,5,0,0,0,4.23,2.61,5,5,0,0,0,4.11-2.82l3.79-.1a4.57,4.57,0,0,0,8.35-.22l4-.1a5.11,5.11,0,0,0,4,2.6c-.07-1.19-3.91-35.45-4.21-35l-5,.13a4.36,4.36,0,0,0-7.26.19l-4.88.12a4.36,4.36,0,0,0-7.26.19l-4.79.13a4.37,4.37,0,0,0-7.27.19l-4.87.12a4.37,4.37,0,0,0-7.27.19l-4.87.13a4.37,4.37,0,0,0-7.27.19l-4.87.12a4.36,4.36,0,0,0-7.26.19l-3.26.09c0,1.34,3.47,32.37,3.47,32.37A5,5,0,0,0,778.23,854.93Z" fill="#262521"/><path d="M782.55,930.3c2.4-.06,4.38-2.28,5.05-5.32l1.79,0c.82,3,2.9,5.1,5.29,5s4.35-2.24,5-5.23l1.84,0c.82,2.95,2.89,5,5.26,5s4.31-2.21,5-5.15l1.89,0c.84,2.9,2.89,4.93,5.24,4.87s4.27-2.16,5-5.07l1.85,0c.86,2.85,2.89,4.85,5.22,4.79s4.24-2.13,5-5l2,0c.87,2.82,2.89,4.77,5.2,4.71s4.2-2.08,5-4.9l2.17,0c.88,2.77,2.89,4.68,5.17,4.62a7.39,7.39,0,0,0,1.86-.52l-2.82-10.25s-2-24.61-2.08-25.63a6,6,0,0,0-1.68,1.73l-4.46.12a4.47,4.47,0,0,0-7.85.2l-4.29.12a4.47,4.47,0,0,0-7.85.2l-4.21.11a4.47,4.47,0,0,0-7.85.2l-4.29.12a4.46,4.46,0,0,0-7.84.2l-4.29.11a4.47,4.47,0,0,0-7.85.21l-4.29.11a4.47,4.47,0,0,0-7.84.18c0,1.17,2.08,32.1,2.27,33.94A4.22,4.22,0,0,0,782.55,930.3Z" fill="#262521"/><path d="M792.77,1002.32c1,2.3,2.81,3.82,4.84,3.76s3.76-1.65,4.66-4l2.66-.06c1,2.27,2.8,3.77,4.82,3.72s3.74-1.63,4.64-3.93l2.69-.06c1,2.24,2.8,3.72,4.81,3.67s3.71-1.61,4.62-3.89l2.73-.06c1,2.22,2.79,3.69,4.79,3.64s3.69-1.6,4.6-3.85l2.69-.06c1,2.2,2.78,3.64,4.77,3.59s3.67-1.57,4.58-3.8l2.81-.06c1,2.17,2.77,3.6,4.75,3.55s3.64-1.56,4.56-3.76l3-.07c1,2.15,2.77,3.56,4.73,3.51a4.33,4.33,0,0,0,1.33-.28c-.08-.49-5.94-34.58-6.06-34.39l-4.45.11a4.47,4.47,0,0,0-7.85.21l-4.29.11a4.47,4.47,0,0,0-7.85.2l-4.21.11a4.47,4.47,0,0,0-7.85.21l-4.29.11a4.47,4.47,0,0,0-7.85.2l-4.29.12a4.83,4.83,0,0,0-4-2.23A4.88,4.88,0,0,0,805,971.1l-4.29.11a4.47,4.47,0,0,0-7.85.21l-4.45.11a4.86,4.86,0,0,0-4-2.23,4.64,4.64,0,0,0-3.47,1.89c0,.18,3.92,35.22,4.34,35.21,2,0,3.78-1.67,4.67-4Z" fill="#262521"/><path d="M802.49,1079.64l4.4-.11a4.47,4.47,0,0,0,7.89-.21l4.24-.11a4.48,4.48,0,0,0,7.9-.2l4.24-.11a4.48,4.48,0,0,0,7.9-.21l4.24-.11a4.48,4.48,0,0,0,7.9-.2l4.16-.11a4.48,4.48,0,0,0,7.9-.21l4.24-.11a4.47,4.47,0,0,0,7.89-.2l4.42-.12a6.15,6.15,0,0,0,1.56,1.54c0-.52-.13-1.05-.18-1.58-.31-2.43-.72-4.86-1.17-7.29,0-.08,0-.16,0-.23-1.52-8.25-3.46-16.44-3.66-24.81l-1.73,0a4.47,4.47,0,0,0-7.8.2l-4.34.11a4.46,4.46,0,0,0-7.8.21l-4.26.11a4.47,4.47,0,0,0-7.8.2l-4.34.11a4.46,4.46,0,0,0-7.8.21l-4.34.11a4.81,4.81,0,0,0-4-2.19,4.87,4.87,0,0,0-3.85,2.39l-4.34.12a4.82,4.82,0,0,0-4-2.2,4.88,4.88,0,0,0-3.84,2.4l-4.5.12a4.46,4.46,0,0,0-7.8.2l-4.12.11,3.58,32.36,1.25,0a4.47,4.47,0,0,0,7.9-.21Z" fill="#262521"/><path d="M810.25,1155.77a5,5,0,0,0,4.28,2.67,5.06,5.06,0,0,0,4.15-2.89l3.7-.09a4.59,4.59,0,0,0,8.44-.22l3.7-.1a4.59,4.59,0,0,0,8.43-.22l3.71-.1a4.58,4.58,0,0,0,8.43-.21l3.63-.1a4.59,4.59,0,0,0,8.43-.22l3.71-.1a5,5,0,0,0,4.28,2.68,5.11,5.11,0,0,0,4.15-2.89l3.86-.11a5.05,5.05,0,0,0,4.28,2.68,4.15,4.15,0,0,0,1.73-.45c-.08-.79-4.11-33.83-4.3-36.22a5.48,5.48,0,0,0-1.81,1.54l-5.15.13a4.37,4.37,0,0,0-7.17.19l-5,.13a4.35,4.35,0,0,0-7.17.19l-4.89.12a4.37,4.37,0,0,0-7.17.19l-5,.13a4.34,4.34,0,0,0-7.16.19l-5,.13a4.61,4.61,0,0,0-3.62-1.79,4.68,4.68,0,0,0-3.54,2l-5,.13a4.35,4.35,0,0,0-7.17.19l-5.13.13a4.69,4.69,0,0,0-3.63-1.79,4.13,4.13,0,0,0-2.07.64c0,.43,3.66,35.45,3.81,36.34a5.43,5.43,0,0,0,3.27-2.77Z" fill="#262521"/><path d="M813.2,1234.83a4.06,4.06,0,0,0,1.85.34,4.88,4.88,0,0,0,3.8-2.55l4.28-.24a4.47,4.47,0,0,0,7.84-.44l4.29-.24a4.46,4.46,0,0,0,7.83-.44l4.29-.24a4.47,4.47,0,0,0,7.84-.44l4.2-.24a4.47,4.47,0,0,0,7.84-.44l4.29-.24a4.46,4.46,0,0,0,7.83-.44l4.45-.25a4.46,4.46,0,0,0,7.83-.44l4.29-.24a5,5,0,0,0,3.71,2.1c-.13-1.26-3.35-28.46-4.16-34.47l-5.5.31a4.49,4.49,0,0,0-8,.43l-4.32.24a4.49,4.49,0,0,0-8,.44l-4.18.23a4.48,4.48,0,0,0-7.93.44l-4.13.22a4.85,4.85,0,0,0-4.08-2.16,4.91,4.91,0,0,0-3.83,2.6l-4.22.23a4.48,4.48,0,0,0-7.89.43l-4.25.24a4.46,4.46,0,0,0-7.86.43l-4.27.24a4.46,4.46,0,0,0-7.85.43S812.74,1230.27,813.2,1234.83Z" fill="#262521"/><path d="M904.24,1272.15c-.69-1.67-1.8-2.69-3.5-2.58a5,5,0,0,0-4,3l-3.76.2a4.56,4.56,0,0,0-8.32.47l-4,.22a4.54,4.54,0,0,0-8.24.45l-3.93.22a4.53,4.53,0,0,0-8.16.45l-3.92.22a4.51,4.51,0,0,0-8.08.45l-4.09.22a4.5,4.5,0,0,0-8,.44l-4.17.23a4.48,4.48,0,0,0-7.91.44l-4.26.24a4.83,4.83,0,0,0-4.06-2.1,4.09,4.09,0,0,0-2.1.73c0,.57-2.88,12,3.83,28.72,3.31,8.23,71,5.41,84.16-8.2C904.86,1293,904.24,1272.15,904.24,1272.15Z" fill="#262521"/><path d="M408.64,1292.19c16.7,7.61,98.35,4.27,175.28,1,133.05-5.72,221.33.48,229.5-15" fill="none" stroke="#636363" stroke-linecap="round" stroke-linejoin="round"/></svg>