<svg xmlns="http://www.w3.org/2000/svg" xmlns:xlink="http://www.w3.org/1999/xlink" width="1250" height="1550" viewBox="0 0 1250 1550"><defs><clipPath id="a"><rect width="9.18" height="7.93" fill="none"/></clipPath><pattern id="b" width="9.18" height="7.93" patternTransform="translate(23.8 15.22) scale(1.71)" patternUnits="userSpaceOnUse" viewBox="0 0 9.18 7.93"><rect width="9.18" height="7.93" fill="none"/><g clip-path="url(#a)"><rect width="9.18" height="7.93" fill="#262521"/><polyline points="0 0.92 1.51 3.54 3.06 0.92" fill="none" stroke="#636363" stroke-linecap="round" stroke-linejoin="round"/><polyline points="3.06 0.92 4.57 3.54 6.12 0.92" fill="none" stroke="#636363" stroke-linecap="round" stroke-linejoin="round"/><polyline points="6.12 0.92 7.63 3.54 9.18 0.92" fill="none" stroke="#636363" stroke-linecap="round" stroke-linejoin="round"/></g></pattern></defs><title>s02e06-02</title><polygon points="402.11 1359.93 414.48 1567.08 833.81 1560.63 818.01 1347.56 402.11 1359.93" stroke="#262521" stroke-miterlimit="10" stroke-width="3" fill="url(#b)"/><path d="M416.47,1279.56s49.76,9.26,191.66,4.75,188.55-16.84,188.55-16.84l18.77,323L432,1596.83Z" fill="#262521" stroke="#262521" stroke-linecap="round" stroke-linejoin="round" stroke-width="3"/><path d="M877.23,1043c-3.83-55.87-22.88-124.63-22.88-124.63s-14.59-306.95-52.89-331.94c-10.88-7.1-142.29-56.21-142.29-56.21s-2.49,55-82.84,55c-65.08,0-82.1-39.23-86.21-51.38a10.79,10.79,0,0,1-.75-2.59c-1,.65-100.94,62.69-145.44,89.5C299.2,647.71,317.25,945,317.25,945a619.79,619.79,0,0,0-3.6,128.12c5.53,68.42-1.88,179.2,14.45,197.94l61-1.5s-5.6-14.35-4.65-27c2.27-30.22,5.53-104.27,15.36-135.22s21.45-88.31,21.45-88.33c-29,128.14-18.39,361-18.39,361S502,1391.66,579,1390.73c137.53-1.65,240.17-21.53,240.17-21.53S800.05,1114.45,786.33,1055c17.07,47.16,40.25,126.63,42.46,162.33,1.64,26.39,2.89,34.36,2.89,34.36h58.1s4.48-6.67,5.3-18.89S882.81,1124.28,877.23,1043Z" stroke="#262521" stroke-miterlimit="10" stroke-width="3" fill="url(#b)"/><path d="M489.37,531.26l0,0S489.38,531.23,489.37,531.26Z" stroke="#262521" stroke-miterlimit="10" stroke-width="3" fill="url(#b)"/><path d="M786.33,1055c-1.22-47.59-20-247.4-20-247.4" fill="none" stroke="#262521" stroke-linecap="round" stroke-linejoin="round" stroke-width="3"/><path d="M410.65,807.61S422.73,980,421.22,1019" fill="none" stroke="#262521" stroke-linecap="round" stroke-linejoin="round" stroke-width="3"/><path d="M478.78,544.24S502.59,609.65,588,602.52c81.49-6.81,81.07-62.71,81.07-62.71" fill="none" stroke="#636363" stroke-linecap="round" stroke-linejoin="round"/></svg>