<svg xmlns="http://www.w3.org/2000/svg" width="1000" height="1550" viewBox="0 0 1000 1550"><defs><clipPath id="a"><path fill="none" d="M0 0h9.18v7.93H0z"/></clipPath><pattern id="b" width="9.18" height="7.93" patternTransform="matrix(1.71 0 0 1.71 23.8 15.22)" patternUnits="userSpaceOnUse" viewBox="0 0 9.18 7.93"><path fill="none" d="M0 0h9.18v7.93H0z"/><g clip-path="url(#a)"><path fill="#262521" d="M0 0h9.18v7.93H0z"/><path fill="none" stroke="#636363" stroke-linecap="round" stroke-linejoin="round" d="M0 .92l1.51 2.62L3.06.92M3.06.92l1.51 2.62L6.12.92M6.12.92l1.51 2.62L9.18.92"/></g></pattern></defs><path stroke="#262521" stroke-miterlimit="10" stroke-width="3" fill="url(#b)" d="M277.11 1359.93l12.37 207.15 419.33-6.45-15.8-213.07-415.9 12.37z"/><path fill="#262521" stroke="#262521" stroke-linecap="round" stroke-linejoin="round" stroke-width="3" d="M291.47 1279.56l380.21-12.09 18.77 323-383.5 6.36-15.48-317.27z"/><path d="M752.23 1043c-3.83-55.87-22.88-124.63-22.88-124.63s-14.59-306.95-52.89-331.94c-10.88-7.1-142.29-56.21-142.29-56.21s-2.49 55-82.84 55c-65.08 0-82.1-39.23-86.21-51.38a10.79 10.79 0 01-.75-2.59c-1 .65-100.94 62.69-145.44 89.5C174.2 647.71 192.25 945 192.25 945a619.79 619.79 0 00-3.6 128.12c5.53 68.42-1.88 179.2 14.45 197.94l61-1.5s-5.6-14.35-4.65-27c2.27-30.22 5.53-104.27 15.36-135.22s21.45-88.31 21.45-88.33c-29 128.14-18.39 361-18.39 361S377 1391.66 454 1390.73c137.53-1.65 240.17-21.53 240.17-21.53s-19.12-254.75-32.84-314.2c17.07 47.16 40.25 126.63 42.46 162.33 1.64 26.39 2.89 34.36 2.89 34.36h58.1s4.48-6.67 5.3-18.89-12.27-108.52-17.85-189.8zM364.37 531.26h0s.01-.03 0 0z" stroke="#262521" stroke-linejoin="round" stroke-width="3" fill="url(#b)"/><path d="M661.33 1055c-1.22-47.59-20-247.4-20-247.4M285.65 807.61S297.73 980 296.22 1019" fill="none" stroke="#262521" stroke-linecap="round" stroke-linejoin="round" stroke-width="3"/><path d="M353.78 544.24s23.81 65.41 109.22 58.28c81.49-6.81 81.07-62.71 81.07-62.71" fill="none" stroke="#636363" stroke-linecap="round" stroke-linejoin="round"/></svg>