<svg xmlns="http://www.w3.org/2000/svg" xmlns:xlink="http://www.w3.org/1999/xlink" width="1250" height="1550" viewBox="0 0 1250 1550"><defs><clipPath id="a"><path d="M877.23,1043c-3.83-55.87-37.47-431.58-75.77-456.57C768.14,564.75,716,543,678.75,530.32c-13.69-19.43-40.17-28.19-40-26,0,0,14.31,10.13,13.16,25.65-7.45,22.84-58.66,194.63-81.35,289.55-20-96-64.9-277.94-66.09-292.48-1-11.83,5.6-16.15,5.6-16.15l.28-6.84s-26.55,7.51-35.45,26.36c0,0-105.14,71.63-131,90.37-44.73,27-35.81,384-30.28,452.4,5.65,69.91,3,199.59,6.16,203.57,6.52,8.08,84.32-2.58,84.32-2.58l.52,25.49,3.08-.12,34.2,272.92L600.65,1563,608,1400.59l25.52-8.68,25.2,171.46,160.35-8-15.36-270.59,4.57-.59-3-78.56,9.36,36.6c25.12.15,90.23-.41,90.88-10.27C906.28,1219.77,882.81,1124.28,877.23,1043Z" fill="none"/></clipPath><clipPath id="b"><path d="M511.13,504.22s-22.93,2-36.19,26.17C461,555.71,451.68,569,451.68,569l27.62,14.51,30.49-28.94-4.56-36Z" fill="none"/></clipPath><clipPath id="c"><path d="M644,506.26s21.56.1,38.1,30.09c14,25.31,21.27,36.22,21.27,36.22l-26.87,8.26L645.89,552s3.28-16.94,6.16-24.78C653.58,523,644,506.26,644,506.26Z" fill="none"/></clipPath><clipPath id="d"><path d="M645.41,551.54l51.84,47.75c-14.62,51.78-62.9,140.12-123.35,224.35l3.77-19.33C595,718.78,627.91,604.23,645.41,551.54Z" fill="none"/></clipPath><clipPath id="e"><path d="M509.39,548.09l-51.93,52.1C470.84,633.34,539.88,791.63,570.6,820l5-20.82C551.29,764.26,518.66,600.91,509.39,548.09Z" fill="none"/></clipPath></defs><title>s02e12-02</title><path d="M404.44,1264.52s47.13-60.4,189-64.91S801,1248.13,801,1248.13l20.1,342.24-158.7-1.85-28.9-196.61L608,1400.59l-8.84,196.24-153.94-.22Z" fill="none" stroke="#262521" stroke-linecap="round" stroke-linejoin="round" stroke-width="3"/><path d="M322.89,1262.79l3.44,22s50.26,9.39,64.93-5.41c3.48-3.51,0-31.27,0-31.27Z" fill="#fff" stroke="#262521" stroke-linecap="round" stroke-linejoin="round" stroke-width="3"/><path d="M825.91,1226.11l3.44,22s50.26,9.39,64.93-5.41c3.48-3.51,0-31.27,0-31.27Z" fill="#fff" stroke="#262521" stroke-linecap="round" stroke-linejoin="round" stroke-width="3"/><path d="M658.24,530.89s-63,24.43-84.61,24.43-81.06-23.88-81.06-23.88l-97.08,65.27L581.55,844l188-270.23Z" fill="#fff" stroke="#262521" stroke-linecap="round" stroke-linejoin="round" stroke-width="3"/><path d="M563.33,596.5s-16,220.38-7.43,243.18,48.58,21.63,48.52-6.35S600.87,806.11,586,596.5Z" fill="#262521"/><path d="M585.74,560.29a47.72,47.72,0,0,0-33,7.58,4,4,0,0,0-1.63,1.65,4.11,4.11,0,0,0,.06,2.57,131.7,131.7,0,0,0,9.57,26.78,11.61,11.61,0,0,0,3.26,4.55c1.71,1.23,3.91,1.48,6,1.6a75.59,75.59,0,0,0,11.16-.16,6.55,6.55,0,0,0,3.54-1,6.64,6.64,0,0,0,1.86-2.92,208.87,208.87,0,0,0,7.28-20.74c1-3.32,1.87-6.76,1.51-10.21s-2.24-6.92-5.44-8.26" fill="#262521"/><path d="M505.31,506.87s26.26,38.43,66.82,48.45l-69,73.32s-27.26-75.45-18.66-92.11A148.1,148.1,0,0,1,505.31,506.87Z" fill="#fff" stroke="#262521" stroke-linecap="round" stroke-linejoin="round" stroke-width="3"/><path d="M643.12,506.87s-15.39,39.69-67.8,48.45l69.95,73.32s30.78-73,22.18-89.66S643.12,506.87,643.12,506.87Z" fill="#fff" stroke="#262521" stroke-linecap="round" stroke-linejoin="round" stroke-width="3"/><g clip-path="url(#a)"><rect x="284.4" y="527.88" width="693.28" height="1128.02" fill="#262521"/><rect x="337.85" y="531.22" width="10.25" height="1087.11" fill="#3f4954" opacity="0.6"/><rect x="317.34" y="531.22" width="10.25" height="1087.11" fill="#3f4954" opacity="0.6"/><rect x="358.43" y="531.22" width="10.25" height="1087.11" fill="#3f4954" opacity="0.6"/><rect x="378.92" y="531.22" width="10.25" height="1087.11" fill="#3f4954" opacity="0.6"/><rect x="399.49" y="531.22" width="10.25" height="1087.11" fill="#3f4954" opacity="0.6"/><rect x="420.76" y="531.22" width="10.25" height="1087.11" fill="#3f4954" opacity="0.6"/><rect x="441.34" y="531.22" width="10.25" height="1087.11" fill="#3f4954" opacity="0.6"/><rect x="461.83" y="531.22" width="10.25" height="1087.11" fill="#3f4954" opacity="0.6"/><rect x="482.41" y="531.22" width="10.25" height="1087.11" fill="#3f4954" opacity="0.6"/><rect x="503.73" y="531.22" width="10.25" height="1087.11" fill="#3f4954" opacity="0.6"/><rect x="524.3" y="531.22" width="10.25" height="1087.11" fill="#3f4954" opacity="0.6"/><rect x="648.2" y="531.22" width="10.25" height="1087.11" fill="#3f4954" opacity="0.6"/><rect x="627.69" y="531.22" width="10.25" height="1087.11" fill="#3f4954" opacity="0.6"/><rect x="668.78" y="531.22" width="10.25" height="1087.11" fill="#3f4954" opacity="0.6"/><rect x="689.26" y="531.22" width="10.25" height="1087.11" fill="#3f4954" opacity="0.6"/><rect x="709.84" y="531.22" width="10.25" height="1087.11" fill="#3f4954" opacity="0.6"/><rect x="731.11" y="531.22" width="10.25" height="1087.11" fill="#3f4954" opacity="0.6"/><rect x="751.69" y="531.22" width="10.25" height="1087.11" fill="#3f4954" opacity="0.6"/><rect x="772.18" y="531.22" width="10.25" height="1087.11" fill="#3f4954" opacity="0.6"/><rect x="792.76" y="531.22" width="10.25" height="1087.11" fill="#3f4954" opacity="0.6"/><rect x="814.07" y="531.22" width="10.25" height="1087.11" fill="#3f4954" opacity="0.6"/><rect x="834.65" y="531.22" width="10.25" height="1087.11" fill="#3f4954" opacity="0.6"/><rect x="856.11" y="531.22" width="10.25" height="1087.11" fill="#3f4954" opacity="0.6"/><rect x="876.69" y="531.22" width="10.25" height="1087.11" fill="#3f4954" opacity="0.6"/><rect x="897.3" y="531.22" width="10.25" height="1087.11" fill="#3f4954" opacity="0.6"/><rect x="544.79" y="531.22" width="10.25" height="1087.11" fill="#3f4954" opacity="0.6"/><rect x="565.37" y="531.22" width="10.25" height="1087.11" fill="#3f4954" opacity="0.6"/><rect x="586.33" y="531.22" width="10.25" height="1087.11" fill="#3f4954" opacity="0.6"/><rect x="606.9" y="531.22" width="10.25" height="1087.11" fill="#3f4954" opacity="0.6"/></g><g clip-path="url(#b)"><rect x="450.17" y="486.42" width="84.47" height="109.61" transform="translate(1033.63 48.82) rotate(90)" fill="#262521"/><rect x="485.61" y="457.98" width="10.25" height="105.63" transform="translate(1001.54 20.06) rotate(90)" fill="#3f4954" opacity="0.6"/><rect x="485.61" y="479.25" width="10.25" height="105.63" transform="translate(1022.81 41.33) rotate(90)" fill="#3f4954" opacity="0.6"/><rect x="485.61" y="499.83" width="10.25" height="105.63" transform="translate(1043.39 61.91) rotate(90)" fill="#3f4954" opacity="0.6"/><rect x="485.61" y="520.32" width="10.25" height="105.63" transform="translate(1063.88 82.4) rotate(90)" fill="#3f4954" opacity="0.6"/></g><g clip-path="url(#c)"><rect x="620.44" y="484.51" width="84.47" height="109.61" transform="translate(1202 -123.36) rotate(90)" fill="#262521"/><rect x="659.22" y="456.08" width="10.25" height="105.63" transform="translate(1173.24 -155.44) rotate(90)" fill="#3f4954" opacity="0.6"/><rect x="659.22" y="477.35" width="10.25" height="105.63" transform="translate(1194.51 -134.17) rotate(90)" fill="#3f4954" opacity="0.6"/><rect x="659.22" y="497.93" width="10.25" height="105.63" transform="translate(1215.09 -113.6) rotate(90)" fill="#3f4954" opacity="0.6"/><rect x="659.22" y="518.42" width="10.25" height="105.63" transform="translate(1235.57 -93.11) rotate(90)" fill="#3f4954" opacity="0.6"/></g><g clip-path="url(#d)"><rect x="570.3" y="552.4" width="123.38" height="302.3" transform="translate(322.15 -189.98) rotate(22.81)" fill="#262521"/><rect x="591.37" y="537.98" width="10.25" height="291.33" transform="translate(311.66 -177.77) rotate(22.81)" fill="#3f4954" opacity="0.6"/><rect x="610.34" y="545.96" width="10.25" height="291.33" transform="translate(316.24 -184.5) rotate(22.81)" fill="#3f4954" opacity="0.6"/><rect x="629.22" y="553.9" width="10.25" height="291.33" transform="translate(320.79 -191.2) rotate(22.81)" fill="#3f4954" opacity="0.6"/><rect x="648.19" y="561.88" width="10.25" height="291.33" transform="translate(325.37 -197.93) rotate(22.81)" fill="#3f4954" opacity="0.6"/></g><path d="M404.65,1299.64l-.52-25.49s-77.8,10.66-84.32,2.58c-3.21-4-.51-133.66-6.16-203.57-5.53-68.42-14.45-425.45,30.28-452.4,25.87-18.74,131-90.37,131-90.37,8.9-18.85,35.45-26.36,35.45-26.36l-.28,6.84s-6.58,4.32-5.6,16.15c1.19,14.54,46.06,196.43,66.09,292.48C593.29,724.58,644.5,552.79,652,530c1.15-15.52-13.16-25.65-13.16-25.65-.21-2.17,26.27,6.59,40,26C716,543,768.14,564.75,801.46,586.45c38.3,25,71.94,400.7,75.77,456.57,5.58,81.26,29,176.75,28.23,189-.65,9.86-65.76,10.42-90.88,10.27l-9.36-36.6,3,78.56-5.11.62,18,305.53-158.7-1.85-28.9-196.61L608,1400.59l-8.84,196.24-153.94-.22-36.24-296.44Z" fill="none" stroke="#262521" stroke-linecap="round" stroke-linejoin="round" stroke-width="3"/><polyline points="644.15 739.41 750.64 739.41 750.64 763 635.89 763" fill="none" stroke="#4c5760" stroke-linecap="round" stroke-linejoin="round"/><circle cx="569.44" cy="876.06" r="5.63" fill="#262521"/><circle cx="575.06" cy="989.42" r="5.63" fill="#262521"/><path d="M790.34,1085.13h-98a12.1,12.1,0,0,1-12.07-12.07V1057.6c0-5.33,74.29-7,106.58-3.77" fill="none" stroke="#4c5760" stroke-linecap="round" stroke-linejoin="round"/><path d="M407.66,1059.05c35.53-2.53,88.2-.66,88.2,4.34v15.46a12.1,12.1,0,0,1-12.07,12.07l-75.41-.64" fill="none" stroke="#4c5760" stroke-linecap="round" stroke-linejoin="round"/><path d="M680.39,534.51l22.93,38.06-26.87,8.26,20.8,18.46c-8,36-62,137.88-123.35,224.35" fill="none" stroke="#4c5760" stroke-linecap="round" stroke-linejoin="round"/><g clip-path="url(#e)"><rect x="465.79" y="550.47" width="123.38" height="302.3" transform="translate(1285.69 1143.9) rotate(157.19)" fill="#262521"/><rect x="557.85" y="536.05" width="10.25" height="291.33" transform="translate(1346.19 1091.89) rotate(157.19)" fill="#3f4954" opacity="0.6"/><rect x="538.88" y="544.03" width="10.25" height="291.33" transform="translate(1312.83 1114.58) rotate(157.19)" fill="#3f4954" opacity="0.6"/><rect x="519.99" y="551.97" width="10.25" height="291.33" transform="translate(1279.61 1137.16) rotate(157.19)" fill="#3f4954" opacity="0.6"/><rect x="501.02" y="559.95" width="10.25" height="291.33" transform="translate(1246.25 1159.85) rotate(157.19)" fill="#3f4954" opacity="0.6"/></g><path d="M471.5,535.8,451.68,569l24.23,12.94-18.45,18.27s77.1,182.39,107.91,214.2" fill="none" stroke="#4c5760" stroke-linecap="round" stroke-linejoin="round"/><path d="M652,530c-9.61,29.48-92.13,307.1-92.13,347.3,0,34.86,13.89,223.23,35.52,329.53" fill="none" stroke="#4c5760" stroke-linecap="round" stroke-linejoin="round"/><path d="M412.44,1300.46c34.58,3.61,168.66,13.32,182.77-94.59,15.3,112.59,165.77,88.43,204.15,80.37" fill="none" stroke="#4c5760" stroke-linecap="round" stroke-linejoin="round"/></svg>