<svg xmlns="http://www.w3.org/2000/svg" width="1250" height="1550" viewBox="0 0 1250 1550"><title>s02e04-02</title><path d="M404.44,1264.52s61.79,24.3,203.69,19.79S801,1248.13,801,1248.13l21.74,342.24-177.92-1.85-14.32-193.61L608,1400.59l-8.84,196.24-174.94-.22Z" fill="#fff" stroke="#262521" stroke-linecap="round" stroke-miterlimit="10" stroke-width="3"/><polygon points="785.21 1275.11 790.78 1346.81 801.36 1346.81 794.91 1275.11 785.21 1275.11" fill="#262521" stroke="#262521" stroke-linecap="round" stroke-linejoin="round" stroke-width="3"/><polygon points="678.79 1588.87 667.62 1346.81 806.2 1331.01 808.72 1364.12 701.87 1376.65 711.82 1589.1 678.79 1588.87" fill="#262521" stroke="#262521" stroke-linecap="round" stroke-linejoin="round" stroke-width="3"/><polygon points="741.35 1558.01 735.15 1411.75 811.08 1401.43 813.6 1434.53 769.39 1441.59 774.37 1558.23 741.35 1558.01" fill="#262521" stroke="#262521" stroke-linecap="round" stroke-linejoin="round" stroke-width="3"/><polygon points="569.18 1587.57 575.82 1345.34 408.44 1327.37 410.44 1365.38 542.14 1375.82 536.17 1588.41 569.18 1587.57" fill="#262521" stroke="#262521" stroke-linecap="round" stroke-linejoin="round" stroke-width="3"/><polygon points="506.06 1557.88 509.53 1411.54 413.33 1400.28 415.75 1433.57 475.85 1442.01 473.05 1558.72 506.06 1557.88" fill="#262521" stroke="#262521" stroke-linecap="round" stroke-linejoin="round" stroke-width="3"/><path d="M800.54,1225.65l5.66,56.15S738.81,1306.47,625,1311s-226.18-29.16-226.18-29.16l4.64-34.94Z" fill="#fff" stroke="#262521" stroke-linecap="round" stroke-miterlimit="10" stroke-width="3"/><path d="M421.22,1019s-11.62,57.38-21.45,88.33-13.09,105-15.36,135.22c-1,12.66,4.65,27,4.65,27l-61,1.5c-16.33-18.74-8.92-129.52-14.45-197.94A619.79,619.79,0,0,1,317.25,945S299.2,647.71,343.93,620.76s149.6-93.12,149.6-93.12-.25-.25.72,2.6c4.11,12.15,18.37,50.54,83.45,50.54,80.36,0,75.14-53.15,75.14-53.15s137.74,51.72,148.62,58.82c38.3,25,52.89,331.94,52.89,331.94s19,68.76,22.88,124.63c5.58,81.26,18.66,177.57,17.85,189.79s-5.3,18.89-5.3,18.89h-58.1s-1.25-8-2.89-34.36c-2.47-39.8-31-134-48.07-177.22" fill="#fff" stroke="#262521" stroke-linecap="round" stroke-linejoin="round" stroke-width="3"/><path d="M316.85,937.83l.34,7.64c-.8,5.47-8.8,62.63-3.54,127.69,5.53,68.42-1.88,179.2,14.45,197.94l61-1.5s-5.6-14.35-4.65-27c2.27-30.22,5.53-104.27,15.36-135.22S421.22,1019,421.22,1019l-3.6-61.56S354.67,951,316.85,937.83Z" fill="#262521" stroke="#262521" stroke-linecap="round" stroke-linejoin="round" stroke-width="3"/><path d="M877.23,1043c-3.65-53.17-21.08-118-22.75-124.15-.44.21-.76-16.36-.76-16.36-17.39,15.16-57.28,25.51-74.45,27.37-4.78.52,1.45,110.24,1.45,110.24,17.07,43.17,45.6,137.42,48.07,177.22,1.64,26.39,2.89,34.36,2.89,34.36h58.1s4.48-6.67,5.3-18.89S882.81,1124.28,877.23,1043Z" fill="#262521" stroke="#262521" stroke-linecap="round" stroke-linejoin="round" stroke-width="3"/><path d="M836,1220.48s30.63-3.83,52.36,0" fill="none" stroke="#636363" stroke-linecap="round" stroke-linejoin="round"/><path d="M325.27,1238s30.63-3.83,52.37,0" fill="none" stroke="#636363" stroke-linecap="round" stroke-linejoin="round"/><path d="M410.65,807.61s5.34,199.1,3.83,238.13c-.83,21.49-22.5,142.14-10.19,169.31,0,13-6.31,43-6.31,43s91,20.68,168,19.75c137.52-1.66,246.39-30.38,246.39-30.38s-6.68-30-7.46-43.63c14.5-25-20.61-158.94-22.41-228.89-1.22-47.59-16.09-167.28-16.09-167.28" fill="#fff" stroke="#262521" stroke-linecap="round" stroke-linejoin="round" stroke-width="3"/><path d="M369,673.14c14.9,9.41,30.14,17.22,47.24,21.77,36.67,9.77,75.73,7.53,113,3,42.23-5.1,96.79-6.49,139.1-10.92,11-1.15,72.8-6.11,82.12-8.52,9-2.34,42.29-42.1,68.64-57.42-5.21-17.83-11.06-30.36-17.62-34.63-10.88-7.1-148.62-58.82-148.62-58.82s5.22,53.15-75.14,53.15c-65.08,0-79.34-38.39-83.45-50.54a10.79,10.79,0,0,1-.75-2.59c-1,.66-105.06,66.3-149.57,93.11-7.28,4.39-12.9,15.94-17.2,32.2C342.19,656.11,355.79,664.82,369,673.14Z" fill="#262521" stroke="#262521" stroke-linecap="round" stroke-linejoin="round" stroke-width="3"/><path d="M329.86,884.59c27.27,8.15,55.72,12.76,84.21,12.25l-3.42-58.5c-10.43-2.49-83.92-8.48-96.92-20.61-.21,23,0,43.85.49,61.75Q322,882.22,329.86,884.59Z" fill="#262521" stroke="#262521" stroke-linecap="round" stroke-linejoin="round" stroke-width="3"/><path d="M790.39,874c20.57-7.92,40.89-17.68,59.07-30.18-1.46-19.78-3.31-42.35-5.57-65.77-13.71,17.93-67.57,36.21-75.68,38-.37.38-.57.57-.57.57S772.31,852.35,775,878A86.89,86.89,0,0,0,790.39,874Z" fill="#262521" stroke="#262521" stroke-linecap="round" stroke-linejoin="round" stroke-width="3"/><path d="M415.84,969c120.59,6.62,347.55-20.12,364.6-17.6C778,916.83,773.05,867,773.05,867c-30.85-5-114,22.86-360.44,20.33C412.61,887.28,415.28,968.94,415.84,969Z" fill="#262521" stroke="#262521" stroke-linecap="round" stroke-linejoin="round" stroke-width="3"/><path d="M784.94,1022.2c-163.32,26.46-366.73,14.48-366.9,16.29-2.11,22.1-26.06,149.39-13.75,176.56,0,13-6.31,43-6.31,43s91,20.68,168,19.75c137.52-1.66,246.39-30.38,246.39-30.38s-6.68-30-7.46-43.63c8.47-14.62.7-74-10.09-128.54C790.35,1052.84,787.56,1043.12,784.94,1022.2Z" fill="#262521" stroke="#262521" stroke-linecap="round" stroke-linejoin="round" stroke-width="3"/><path d="M415.28,1220.11s171.05,37.78,379.51-12.17" fill="none" stroke="#636363" stroke-linecap="round" stroke-linejoin="round"/></svg>