<svg xmlns="http://www.w3.org/2000/svg" xmlns:xlink="http://www.w3.org/1999/xlink" width="1250" height="1550" viewBox="0 0 1250 1550"><defs><clipPath id="a"><path d="M813.14-318.62s17.06,186.25,15.65,194.79,3.46,77.74,2.89,93.7-184.27,0-184.27,0L633.5-174.61c-4.82.6-21.34-1.9-20.74,19.85s-1.53,25.56,1.77,41.33,0,77.93,0,77.93S446.1,23,431.25-35.5s-28.73-277.7-28.73-277.7" fill="none"/></clipPath></defs><title>s02e01-01</title><g clip-path="url(#a)"><path d="M771.32-104.14c-6.66-4-14.79-4.31-22.36-6a60.35,60.35,0,0,1-43.53-41c-4.3-14.65-2.78-30.29-1-45.45q4.53-38.1,11.12-75.91c1.27-7.24,3.78-15.84,10.88-17.73,9.16-2.43,16.12,8.58,17.63,17.93s1.83,20.49,9.72,25.74c10,6.68,24-2.79,27.62-14.28s.75-23.87.65-35.9c0-5.38,1.1-11.72,5.94-14.05,7.78-3.74,14.91,6.06,18,14.1l8,20.43c-.08,5.15-.33,10.3-.64,15.45-1.19,19.46-3.12,39.28.75,58.5l-7.41,67.62,15.95,92.61c-.52,19.89-113.48,49-90.06,41.37,6.17-2,30.16-13.42,28.72-19.74-1.3-5.71-7.24-8.85-12.39-11.62A126.55,126.55,0,0,1,718-55.55c-5.65-5.86-10.52-16-4.26-21.21,3.21-2.67,7.86-2.38,12-2.08a211.43,211.43,0,0,0,38.81-.73c4.61-.52,9.64-1.41,12.62-5C782.19-90.48,778-100.16,771.32-104.14Z" fill="#84754c"/><path d="M491-293.89q-7.36,30.42-14.08,61-7.9,36-14.82,72.22c-4.81,25.38-9.22,50.85-13,76.41-3.81,25.85-7.11,51.81-9.19,77.87-1.69,21.13-2.67,42.41-1.7,63.6.11,2.31.24,4.61.4,6.92.34,4.81,1.78,9.24,5.27,12.73,3.13,3.12,8.25,5.47,12.73,5.27,4.66-.21,9.49-1.74,12.73-5.27,3.1-3.38,5.6-8,5.27-12.73a400.56,400.56,0,0,1-.32-44.24c.7-17,2.12-34,4-51q1.65-15.42,3.74-30.8l-.64,4.78c4.34-32.25,9.8-64.35,15.91-96.32q8.52-44.7,18.65-89.07,4.74-20.94,9.8-41.8a18.88,18.88,0,0,0-1.82-13.87c-2.18-3.74-6.47-7.3-10.76-8.28-4.6-1-9.78-.82-13.87,1.82-3.87,2.5-7.15,6.16-8.27,10.76Z" fill="#b5ac95"/><path d="M779-124.78c-1,16.82-2.08,33.68-4.91,50.31C771.3-58,766.58-42.12,759-27.23c-4.14,8.1-8.6,16.51-8.45,25.85,0,1.93,3,1.94,3,0-.13-8.34,3.73-15.92,7.44-23.16a155.69,155.69,0,0,0,9.72-22.89c5.17-15.86,7.69-32.45,9.28-49,.9-9.43,1.5-18.88,2.07-28.34.12-1.92-2.88-1.92-3,0Z" fill="#56412d"/><path d="M688.43-128.93q-.36,26.72-.48,53.44t0,53.18q.06,15.1.21,30.21a1.5,1.5,0,0,0,3,0q-.25-26.72-.27-53.43t.21-53.18q.12-15.11.33-30.22a1.5,1.5,0,0,0-3,0Z" fill="#56412d"/><path d="M671.3-124.21c-5.9,16-11,32.33-15.81,48.7-4.91,16.57-9.71,33.18-14.56,49.77L632.72,2.38a1.5,1.5,0,0,0,2.89.79q7.3-25,14.62-50c4.81-16.46,9.52-33,14.7-49.31,2.9-9.14,6-18.24,9.26-27.24.67-1.81-2.23-2.59-2.89-.79Z" fill="#56412d"/><path d="M633.39-.15V-53l0-52.64,0-52.88V-198c0-4.19-.19-8.44.09-12.62A12.7,12.7,0,0,1,638-220c2.89-2.43,6.44-4.18,9.69-6.07q11.25-6.54,22.67-12.82,2.81-1.55,5.61-3.06c1.7-.92.18-3.51-1.52-2.59q-11.55,6.27-23,12.81c-3.73,2.14-7.47,4.27-11.15,6.5-2.95,1.78-5.9,3.84-7.73,6.83-2,3.25-2.21,7.14-2.23,10.85,0,4.44,0,8.89,0,13.33v26.69l0,53.63v53.63l0,53.39V-.15a1.5,1.5,0,0,0,3,0Z" fill="#56412d"/><path d="M662.76,30.38a444.13,444.13,0,0,1,1.13-54.6q.65-7.77,1.56-15.5c.22-1.92-2.78-1.9-3,0a445.54,445.54,0,0,0-3.06,54.53q.06,7.78.37,15.57c.08,1.92,3.08,1.93,3,0Z" fill="#968a6f"/><path d="M522.17,30.75Q526.64,3,528.8-25.1c.14-1.93-2.86-1.92-3,0Q523.68,2.54,519.28,30c-.31,1.89,2.58,2.7,2.89.8Z" fill="#968a6f"/><path d="M410.85,22c6.56-7.09,11.36-15.53,16.2-23.82s9.59-16.76,13.07-25.77a76.82,76.82,0,0,0,4.29-15.66c.3-1.89-2.59-2.7-2.89-.8-1.47,9.33-4.94,18.14-9.2,26.53S423.27-1,418.29,7a85.87,85.87,0,0,1-9.56,12.87c-1.31,1.41.81,3.54,2.12,2.12Z" fill="#968a6f"/><path d="M470.77,22.66c4.87-7.86,12.29-14,18.94-20.27l21.88-20.77c1.4-1.33-.72-3.45-2.12-2.12L487.22.61c-6.73,6.39-14.11,12.57-19,20.54-1,1.64,1.58,3.15,2.59,1.51Z" fill="#968a6f"/></g><polygon points="699.19 294.48 403.33 323.44 311.87 133.5 714.78 133.5 699.19 294.48" fill="#ffc802"/><path d="M757.43,1228.8s43.58,253.42,34,260.91c-69.22,53.9-340.4,24.42-340.4,24.42l-7.73-268.54Z" fill="#262521" stroke="#262521" stroke-linecap="round" stroke-linejoin="round" stroke-width="3"/><path d="M489.37,534h0S489.38,533.92,489.37,534Z" fill="#262521" stroke="#262521" stroke-linecap="round" stroke-linejoin="round" stroke-width="3"/><path d="M877.23,1045.71c-3.83-55.86-22.88-124.62-22.88-124.62s-14.59-307-52.89-332c-10.88-7.1-142.29-56.2-142.29-56.2s-66.35,47.7-81.47,48.64-83.47-32.89-87.58-45a10.75,10.75,0,0,1-.75-2.6c-1,.65-100.94,62.7-145.44,89.51-44.73,26.95-26.68,324.27-26.68,324.27a619.79,619.79,0,0,0-3.6,128.12c5.53,68.43-1.88,179.21,14.45,197.94l61-1.5s-5.6-14.34-4.65-27c2.27-30.22,5.53-104.26,15.36-135.22s21.45-88.31,21.45-88.32c.49,23.68-36.81,203.38-12.78,354.34,12.94,27.82,406.06,22.22,411.94-6,5.53-26.53-20.33-252.92-34-312.37,17.07,47.17,40.25,126.64,42.46,162.33,1.64,26.39,61,34.36,61,34.36s4.48-6.66,5.3-18.88S882.81,1127,877.23,1045.71Z" fill="#262521" stroke="#262521" stroke-linecap="round" stroke-linejoin="round" stroke-width="3"/><path d="M408.44,1376.08c12.94,27.82,406.06,22.22,411.94-6" fill="none" stroke="#636363" stroke-linecap="round" stroke-linejoin="round"/><path d="M638.49,359.16a12.93,12.93,0,0,1,7.07,9,49.26,49.26,0,0,1-1.81,28.67,14.81,14.81,0,0,1-8.75,8.64,63.87,63.87,0,0,1-20.08,4.15,60.19,60.19,0,0,1-14-.8c-6.36-1.09-10.68-4.74-13.5-10.16a74.9,74.9,0,0,1-5.55-12.27c-2-6.57-2.24-13.31,2.54-19,2.63-3.15,6.68-4.39,10.53-5.67,10.73-3.57,21.82-4.61,33.07-4.41C628.38,357.27,637.2,358.49,638.49,359.16Z" fill="#221717" opacity="0.95"/><path d="M509.26,364.4c11.53-1.47,23-2,34.5.68,1.43.34,2.81.86,4.23,1.25,5.71,1.56,8.29,5.73,9.68,11.16,1.47,5.75.44,11.2-1.41,16.58a81.14,81.14,0,0,1-4.4,10.94c-2.49,4.83-7.11,7-12.14,8.28a64.55,64.55,0,0,1-31.07.3c-6.47-1.49-9.91-6.06-12.15-11.94a54.37,54.37,0,0,1-3.6-22.46,14.29,14.29,0,0,1,5.59-11.2C499,367.61,508.76,364.46,509.26,364.4Z" fill="#221717" opacity="0.95"/><path d="M653.67,354.17c-5.15-1.06-34-5.14-53.14.32-6.53,1.87-17.53,4.09-23.63,12,0,0-8.64-4.37-15.09,1.76-2.93-.62-8-9-30.32-9.79-6.37-.22-30.87-1.87-49.49,7.45-1.16.58-1.84.94-1.77,2.18.39,6.48.43,11.59,2,13.19s11.62,7.55,12.41,8.07a51.23,51.23,0,0,1-.4-9.53,13.66,13.66,0,0,1,5.34-10.7c.47-.36,9.83-3.38,10.3-3.44,11-1.4,22-1.9,33,.66,1.37.32,2.69.82,4,1.19,5.47,1.49,7.93,5.47,9.26,10.66a27.79,27.79,0,0,1,.7,7.2c0,.06,0,1.6,2.21,1.55s2.7-3.26,2.93-4.13c.48-1.82,2.26-5.74,4.17-5.95a63.51,63.51,0,0,1,6.46-.44c1.76,0,4.14,3.43,4.83,5.09.29.69,1.42,3.81,3.51,3.4,1.76-.34,1.69-2.26,1.74-2.36-.72-4.84-.09-10.49,3.35-14.68,2.48-3,6.3-4.23,9.93-5.45,10.13-3.43,20.6-4.42,31.23-4.22.33,0,8.67,1.19,9.89,1.83a12.54,12.54,0,0,1,6.69,8.69A51.15,51.15,0,0,1,645,380.61a109.18,109.18,0,0,0,11-11.86c1.57-2.38.49-5.77.34-11.91C656.32,354.13,656,354.64,653.67,354.17Z" fill="#d2d6d3" stroke="#636363" stroke-linecap="round" stroke-linejoin="round" stroke-width="2"/><path d="M477.74,540.31c-22.75,1.23,7-34.56,2.29-48.83-14-42.83-26.08-86.93-26.91-132-.3-16.77,1-33.84,6.86-49.56,7.48-20.07,21.86-36.71,36.42-52.43,12.23-13.21,25.17-26.39,41.41-34.18s36.6-9.3,51.67.58c8,5.28,13.88,13.24,20.08,20.61a204.07,204.07,0,0,0,34.69,32.6c12.2,9,26.28,17.78,31.07,32.18,4.4,13.22-.33,27.72,1.21,41.57,1.31,11.81,7.18,23,6.9,34.88-.28,12.09,4.36,30.79-3.06,40.34-3.59,4.63-2.79,14.29-4.93,19.75-5.54,14.12-8.87,26.14-14.09,40.39-.49,1.36-10.86,34.09,4.64,41.33,26.33,12.3,4.2,14.59-4.22,19.37-13.6,7.71-24.54,20.22-31.67,34.14L598,572.88l22.3-17.41a39.38,39.38,0,0,0,7.4-6.89c3.28-4.34,4.59-9.81,5.77-15.12,4.81-21.73-4.35-45.29,8.64-71.22s10.22-78.82,8.54-121.06c-.22-5.54-.54-11.23-2.81-16.29s-7-9.42-12.49-9.68c-6-.28-11.13,4.08-16.73,6.32-10.43,4.16-22.13.8-33.11-1.57a179.77,179.77,0,0,0-55.28-3.22c-19.42,1.87-40.81,8.68-49.53,26.13-5.52,11-7,24.6-3.22,36.33,25.44,78.06,36.36,133.28,63.85,196.79Z" fill="#262521"/><path d="M477.74,535.81c-.55,0-1.1,0-1.64,0s-2-.32-.52,0c-.36-.09-.74-.14-1.1-.25-.18-.05-.37-.14-.55-.17-.63-.11.72.5.28.1,0,0-.33-.14-.36-.2-.38-1-.5,1.21.28.24-.2.24-.67-1.35-.3-.23.26.76.05-.09-.15-.33-.45-.51.2.9.18.47a3.16,3.16,0,0,0-.21-.66c-.29-.87,0-.28,0,.08,0-.32-.05-.67-.06-1s0-.79.05-1.18c0-.16,0-.33,0-.49.05-.87-.22,1.14,0,0a48.47,48.47,0,0,1,1.45-5.57c2.85-8.67,7.41-16.87,9.26-25.86a26.84,26.84,0,0,0,.67-6.5,30.32,30.32,0,0,0-1.93-7.94c-2.81-8.68-5.53-17.4-8.08-26.16a501.53,501.53,0,0,1-12.47-52.17,303.82,303.82,0,0,1-5-52.56c0-16.84,1.81-34.08,8.89-49.56,6.72-14.71,16.92-27.39,27.67-39.32s21.6-24,34.84-33c12.4-8.41,27.08-13.79,42.16-11.77a38.63,38.63,0,0,1,18.54,7.69c6.24,4.92,11.07,11.4,16.12,17.45a209.21,209.21,0,0,0,36.61,34.31c5.77,4.25,11.5,8.12,16.77,12.87,4.86,4.38,9.27,9.43,11.44,15.3,2.93,7.9,2.17,16.4,1.58,24.63-.64,8.87-.63,17.39,1.5,26.09,1.92,7.79,5,15.53,5.22,23.64.1,3.28.06,6.54.3,9.82.24,3.44.56,6.88.74,10.33a69.4,69.4,0,0,1-.05,10c0,.41-.08.82-.13,1.22.08-.63,0,.15,0,.24-.14.77-.28,1.54-.46,2.3a16.72,16.72,0,0,1-1.2,3.53c-.65,1.27-1.57,2.33-2.28,3.55a19.59,19.59,0,0,0-1.89,4.79,89.55,89.55,0,0,0-1.54,9.56,49,49,0,0,1-3,10c-1.52,4.08-3,8.19-4.33,12.32q-4,11.82-8,23.6a78.72,78.72,0,0,0-3.9,20.73c-.29,4.94-.07,10.23,1.63,14.92A19.28,19.28,0,0,0,665,532c1.68.81,3.34,1.67,4.95,2.63.61.36,1.21.73,1.8,1.13l.85.59-.16-.12.54.44c.34.32.66.65,1,1s.36.73-.13-.21c0,0,.26.32.25.39s.18,1.07.06,0c-.09-.73-.11-.24,0,0,.16.63-.09-.71-.09-.68.06.94.17-.77.09-.45-.2.8.63-1.06.1-.23-.22.33.85-.93,0,0a2.44,2.44,0,0,0-.29.27c-.48.6.94-.57.23-.18-.33.19-.65.43-1,.63a24.18,24.18,0,0,1-2.22,1.11l-.65.28c1.06-.47.53-.21.28-.12l-1.64.65a66.13,66.13,0,0,0-12.35,5.69,81.23,81.23,0,0,0-17.77,15.41,95.42,95.42,0,0,0-12.57,18.58l5.08-2.07-28-7.13-4.07-1,2,7.52,16.44-12.84c5.1-4,10.76-7.7,14.48-13.11,3.41-5,4.92-11.22,6-17.06a90,90,0,0,0,1.38-16.8c0-11.14-1.1-22.43.73-33.5a64.28,64.28,0,0,1,5.43-17.6A78,78,0,0,0,650.5,453c2.78-9.35,4.09-19.15,5-28.85,1-11.11,1.22-22.29,1.18-33.45,0-11.5-.42-23-.86-34.48-.21-5.54-.41-11.09-.67-16.63-.3-6.42-1-13.17-4.32-18.82-3-5-7.91-9.07-13.79-9.87-6.16-.84-11.48,2.16-16.75,4.91a28.9,28.9,0,0,1-16.37,3c-6-.49-11.91-2.12-17.81-3.37a185.94,185.94,0,0,0-40.74-4.05c-11.47.14-23.16,1.13-34.23,4.25-9.77,2.76-19.38,7.27-26.64,14.51-8.19,8.15-12.36,19.54-13.37,30.9a49.6,49.6,0,0,0,1.73,18.18c1.9,6.45,4.12,12.81,6.13,19.23q5.61,18,10.89,36.07c6.39,21.77,12.52,43.62,19.2,65.3,6.48,21.07,13.54,41.95,21.76,62.41q3.23,8,6.68,16l6.15-6.16L522.1,560l-34.17-19.17L480,536.42c-5.06-2.84-9.6,4.93-4.54,7.77L497,556.27l34.17,19.16,7.92,4.45a4.61,4.61,0,0,0,5.45-.71,4.72,4.72,0,0,0,.71-5.45c-8.52-19.7-15.88-39.89-22.5-60.3s-12.64-41.34-18.65-62.1c-6.78-23.41-13.66-46.78-21.16-70-1.76-5.44-3.09-10.6-3-16.35a47.17,47.17,0,0,1,3.24-16.55c3.39-8.82,9.56-14.81,17.69-19.15a61.09,61.09,0,0,1,12.91-5q3.62-1,7.31-1.72c2.28-.44,4.61-.8,6.43-1a173.68,173.68,0,0,1,38.07-.23,168.26,168.26,0,0,1,18.8,3c6.16,1.32,12.29,2.84,18.58,3.46a37,37,0,0,0,18.51-2.56c4.44-1.93,9-5.61,13.66-5.5a8.68,8.68,0,0,1,5,2.07,13.67,13.67,0,0,1,3.91,5.39c2.17,5.16,2.08,11,2.3,16.52.44,11,.91,22.07,1.16,33.11s.33,22.21-.11,33.31c-.2,5.22-.52,10.44-1,15.64-.48,5-1,8.8-1.85,13.67a103.45,103.45,0,0,1-3.07,12.64q-.87,2.76-2,5.45c.32-.8-.14.31-.25.55q-.28.63-.57,1.23c-.67,1.39-1.36,2.77-2,4.18-4.85,11.25-6.41,23.2-6.38,35.38,0,10.34,1.12,21.41-.66,31.28-1,5.24-2.1,11-5.22,15.45a30.43,30.43,0,0,1-6.22,5.93c-2.55,2-5.13,4-7.69,6L594.84,569.7c-2.73,2.13-1,6.76,2,7.52l28,7.13,4.08,1a4.58,4.58,0,0,0,5.08-2.07c6.83-13.24,17-25.44,30.26-32.64.77-.42,1.56-.77,2.36-1.13-1.09.48.06,0,.51-.19l1.37-.53c2.17-.82,4.33-1.62,6.46-2.54,3.71-1.62,7.9-4.21,8-8.76.17-5.63-5.88-9.25-10.15-11.58-1.69-.93-3.47-1.68-5.17-2.6-.48-.25-.92-.56-1.38-.85.13.08.7.65.16.11-.26-.25-.55-.48-.81-.75s-1.06-1.25-.43-.39c-.31-.42-.6-.86-.87-1.31s-.5-.95-.75-1.42c-.37-.7,0,0,.06.17-.15-.41-.31-.82-.45-1.25a25.31,25.31,0,0,1-.75-3c-.06-.3-.29-2.09-.17-.9-.07-.72-.15-1.43-.19-2.15a51.4,51.4,0,0,1,.12-7.34c0-.6.11-1.2.18-1.81,0-.3.28-2.15.1-.93.17-1.13.34-2.25.55-3.38q.53-2.91,1.25-5.79c.81-3.27,1.92-6.34,3-9.52,2.86-8.14,5.44-16.37,8.28-24.51,1.41-4.06,3.12-8,4.45-12.12a28.13,28.13,0,0,0,1-4.44c.16-1.05.3-2.11.44-3.16s.16-1.3.27-2.06a42.18,42.18,0,0,1,.87-4.59,15.24,15.24,0,0,1,.7-2.17c-.3.71.08-.12.18-.28.26-.41.5-.81.78-1.2a23.76,23.76,0,0,0,3.81-8.67c1.54-6.86,1.07-14,.54-20.92-.26-3.38-.57-6.75-.66-10.14a85.34,85.34,0,0,0-.85-12.26c-1.44-8.39-4.8-16.36-6-24.81-1.21-8.6.33-17.35.59-26s-.94-17.22-5.31-24.79c-3.64-6.33-8.92-11.56-14.55-16.13-6-4.84-12.39-9.1-18.46-13.81a200.36,200.36,0,0,1-19-16.86c-6-6-11.38-12.44-16.8-18.94-5.25-6.31-11-12.47-18.21-16.5-14-7.79-31.3-7.53-46.11-2.31-15.82,5.58-29,16.5-40.66,28.26-11.83,11.93-23.42,24.54-33.07,38.32a109.72,109.72,0,0,0-19.24,47.68c-2.59,18.13-1.92,36.66,0,54.83a406.68,406.68,0,0,0,9.9,54.51c2.23,9,4.7,17.88,7.33,26.74s5.58,17.37,8.2,26.11c.11.37.19.75.29,1.13.29,1.16,0-1,0,.27a26.29,26.29,0,0,1-.05,2.66c-.08,1.25.17-.72-.06.51-.09.5-.18,1-.29,1.49-.23,1.1-.52,2.19-.84,3.26-1.36,4.63-3.24,9.08-5,13.54a86.29,86.29,0,0,0-4.4,12.57c-.91,3.88-1.38,8.37.86,11.92,2.47,3.92,7.2,5,11.55,4.78a4.6,4.6,0,0,0,4.5-4.5A4.54,4.54,0,0,0,477.74,535.81Z" fill="#262521"/><path d="M630,555.42c2.34,33.3,2.81,66.69,2.83,100.06s-.38,66.52.26,99.77c.36,18.85,1.06,37.69,2.32,56.51.13,1.91,3.13,1.93,3,0-2.25-33.5-2.68-67.07-2.68-100.63,0-33.2.38-66.41-.3-99.61-.39-18.71-1.11-37.42-2.43-56.1-.13-1.91-3.13-1.93-3,0Z" fill="#636363"/><path d="M637.31,786.16c-2.91,0-4.35,4.13-2.21,6.06a3.67,3.67,0,0,0,4.34.32,3.91,3.91,0,0,0,2-3.87,4.57,4.57,0,0,0-3-3.59,4.69,4.69,0,0,0-4.36.61,5.93,5.93,0,0,0-2.45,3.73,5.31,5.31,0,0,0,1.07,4.35,3.55,3.55,0,0,0,4.61.82,3.33,3.33,0,0,0,1.4-4.51,1.5,1.5,0,0,0-2.59,1.52s.07.14.09.15-.09-.31-.08-.18a.42.42,0,0,0,0,.12c0,.16-.1.06,0-.17,0,0,0,.08,0,.12s0-.23,0-.21a1.57,1.57,0,0,0-.08.31s.18-.34.05-.14a.6.6,0,0,1-.06.11l-.06.1c-.09.15-.08,0,.08-.1-.06,0-.13.14-.17.19s-.13.09-.13.11.27-.19.09-.08l-.26.16c-.27.15.23-.06,0,0-.06,0-.21,0-.25.07s.39,0,.15,0h-.17c-.05,0-.22,0,0,0s0,0,0,0l-.13,0c-.2-.05.09,0,.11,0a2.55,2.55,0,0,0-.24-.14c-.16-.08,0-.08.09.08,0,0-.11-.09-.14-.12s-.14-.16-.22-.23.1.11.1.13a.44.44,0,0,0-.08-.11c-.05-.1-.11-.19-.16-.28a.67.67,0,0,0-.08-.17s.11.31,0,.1-.12-.39-.16-.59c-.08-.37,0,.23,0,0s0-.26,0-.38,0-.23,0-.34,0,.16,0,.17,0-.12,0-.14,0-.22.08-.33a2,2,0,0,0,.13-.39s-.12.26-.05.12l.09-.19c0-.09.1-.18.16-.27s.2-.23.2-.3-.19.22-.08.1l.17-.19.25-.26s.29-.26.13-.11.12-.09.18-.12l.35-.2c.23-.13-.29.1.06,0l.29-.09.2,0c.16,0-.13,0-.14,0a2.75,2.75,0,0,0,.4,0h.15c.2,0-.3-.06-.1,0l.29.07.2.06c.15,0-.12,0-.13-.06s.25.12.36.19.17.15.25.17c-.17-.05-.19-.17-.07-.05l.12.1c0,.05.17.23.24.25s-.17-.24-.09-.1a1.43,1.43,0,0,1,.14.2,1.08,1.08,0,0,0,.14.26c-.15-.16-.09-.23,0-.08s0,.09,0,.14a1.62,1.62,0,0,0,0,.19c0,.15,0-.15,0-.16a1.69,1.69,0,0,0,0,.39s.08-.32,0-.18a.42.42,0,0,0,0,.12c0,.06-.14.39,0,.15s0,.07-.08.13l-.07.11c-.08.15.22-.25,0-.07l-.18.19s-.12.09-.13.12.25-.17.13-.1a2.26,2.26,0,0,0-.26.16l-.12.06c-.15.1.33-.11.08,0l-.25.07s-.14,0-.16,0,.32,0,.18,0a2.81,2.81,0,0,0-.29,0s-.21,0,0,0,0,0,0,0l-.12,0c-.13,0,.3.18.08,0a.24.24,0,0,0-.11-.06c-.13,0,.19.18.12.09s-.28-.3-.11-.08,0-.07,0-.12.08.18.08.2a.58.58,0,0,0-.06-.17c0-.07-.08-.41,0-.12s0,0,0-.09v-.15c0-.2,0,.15,0,.18a2.47,2.47,0,0,0,.06-.29l0-.14c.05-.19,0,.13-.07.16s.09-.18.13-.26a.47.47,0,0,0,.06-.09c0-.11-.25.26-.09.11a1.84,1.84,0,0,0,.2-.19s-.27.16-.16.13l.11-.07c.26-.17-.32.12,0,0s-.38,0,0,0a1.5,1.5,0,0,0,0-3Z" fill="#636363"/><path d="M524.17,559.33q3.52,50.1,4.7,100.34,1.15,50,0,99.94-.68,28-2.08,56c-.09,1.93,2.91,1.93,3,0q2.52-50.16,2.67-100.41.15-50-2-99.92-1.23-28-3.21-56c-.13-1.91-3.13-1.93-3,0Z" fill="#636363"/><path d="M529.59,790.07c-2.91,0-4.35,4.13-2.21,6.06a3.67,3.67,0,0,0,4.34.31,3.92,3.92,0,0,0,2-3.86,4.59,4.59,0,0,0-3-3.59,4.69,4.69,0,0,0-4.36.61,5.93,5.93,0,0,0-2.45,3.73,5.32,5.32,0,0,0,1.07,4.35,3.55,3.55,0,0,0,4.61.82,3.33,3.33,0,0,0,1.4-4.51,1.5,1.5,0,1,0-2.59,1.52s.07.14.09.14-.09-.3-.08-.17a.56.56,0,0,0,0,.12c.05.16-.1.06,0-.17,0,0,0,.08,0,.12s0-.24,0-.21a1.67,1.67,0,0,0-.08.3s.18-.33,0-.13l-.06.11-.06.1c-.09.15-.08,0,.08-.1-.06,0-.13.14-.17.18s-.13.1-.13.12.27-.19.09-.08l-.26.15c-.27.16.23,0,0,0a.92.92,0,0,0-.25.06s.39,0,.15,0h-.17c-.05,0-.22,0,0,0s.05,0,0,0l-.13,0c-.2-.06.09,0,.11,0a1.38,1.38,0,0,0-.24-.14c-.16-.08,0-.09.09.08,0,0-.11-.09-.14-.12s-.14-.16-.22-.23.1.11.1.13-.07-.1-.08-.12-.11-.18-.16-.28a.8.8,0,0,0-.08-.16s.11.31,0,.1-.12-.4-.16-.6c-.08-.36,0,.24,0,0s0-.26,0-.39,0-.22,0-.33,0,.16,0,.16,0-.11,0-.14a3,3,0,0,1,.08-.32,2.23,2.23,0,0,0,.13-.39s-.12.26,0,.12l.09-.19c.05-.09.1-.18.16-.27s.2-.23.2-.3-.19.22-.08.1l.17-.2.25-.25.13-.12c-.17.15.12-.08.18-.11a2.43,2.43,0,0,1,.35-.2c.23-.13-.29.09.06,0l.29-.08.2,0c.16-.05-.13,0-.14,0a2.71,2.71,0,0,0,.4,0h.15c.2,0-.3-.07-.1,0l.29.07.2.07c.15,0-.12-.05-.13-.06s.25.12.36.19a1.32,1.32,0,0,0,.25.16c-.17,0-.19-.16-.07,0l.12.1c.05.05.17.23.24.25s-.17-.24-.09-.11l.14.21a1.3,1.3,0,0,0,.14.26c-.15-.16-.09-.24-.05-.09s0,.1.05.14a1.06,1.06,0,0,0,0,.19c0,.16,0-.14,0-.15a1.69,1.69,0,0,0,0,.39s.08-.32,0-.19a.61.61,0,0,0,0,.13s-.14.39,0,.15,0,.06-.08.13l-.07.1c-.08.16.22-.24,0-.06l-.18.19s-.12.09-.13.12.25-.17.13-.11l-.26.17a.67.67,0,0,0-.12.06c-.15.1.33-.11.08,0l-.25.07s-.14,0-.16,0,.32,0,.18,0a1.41,1.41,0,0,0-.29,0c-.05,0-.21,0,0,0s0,0,0,0a.56.56,0,0,0-.12,0c-.13,0,.3.18.08,0l-.11-.07c-.13,0,.19.19.12.1s-.28-.3-.11-.08,0-.07,0-.12.08.18.08.2a.58.58,0,0,0-.06-.17c0-.07-.08-.42,0-.12s0,0,0-.09v-.15c0-.2,0,.14,0,.18s0-.2.06-.29l.05-.14c0-.19-.05.12-.07.15s.08-.17.13-.25a.47.47,0,0,0,.06-.09c0-.11-.25.26-.09.11a1.26,1.26,0,0,0,.2-.2s-.27.17-.17.14l.12-.07c.26-.17-.32.12,0,0s-.38,0,0,0a1.5,1.5,0,0,0,0-3Z" fill="#636363"/><path d="M499.82,278.22A94.1,94.1,0,0,0,467,282.15a22.5,22.5,0,0,1,11.78-9.38l-6.49-1.64c1-2.35,4.16-2.58,6.55-3.49s4.08-4.81,1.66-5.63l7.22-3.31-2.46-4.61,8.51-1.63a49.4,49.4,0,0,0-14.23-11.06,51.76,51.76,0,0,1,19.44,2l-11.67-17.91a88.39,88.39,0,0,1,22.61,18.21l-3.7-6.85,5.62,5.27a42.29,42.29,0,0,0-4.15-20.31,53.87,53.87,0,0,1,10.9,10.9l-.54-18.82,6.44,3.83-.44-5.25,8.42,6.76-1.2-20.68a11.85,11.85,0,0,1,3.45,6.5,87.35,87.35,0,0,0-19.13-19.35,72,72,0,0,1,26.67,21.39,25.28,25.28,0,0,0,0-10.71,32.06,32.06,0,0,1,3.23,12.52L551.91,196a22.47,22.47,0,0,1,2.41,12.58A63.39,63.39,0,0,1,570.6,194l-4.51,11.31a171.39,171.39,0,0,1,18.34-14.1l-2.73,8.12L600,192.8a44.41,44.41,0,0,0-17.81,16.46L598,212.52a3.6,3.6,0,0,1,3.51,4.7L600.81,229a68.87,68.87,0,0,1,12.47-9.11,37.22,37.22,0,0,1-7.67,23.33" fill="#262521"/><path d="M499.82,276.72a96.42,96.42,0,0,0-33.21,4l1.69,2.2a21.28,21.28,0,0,1,10.89-8.68,1.51,1.51,0,0,0,0-2.89l-6.49-1.64.9,2.2c.7-1.45,2.34-1.79,3.76-2.21a8.57,8.57,0,0,0,4.06-2c2.05-2.12,2.68-5.79-.52-7.1l.36,2.74,7.23-3.3a1.52,1.52,0,0,0,.53-2.06l-2.46-4.61-.89,2.21,8.51-1.63a1.52,1.52,0,0,0,.66-2.51,51.74,51.74,0,0,0-14.54-11.3l-.75,2.8a51.7,51.7,0,0,1,19,1.93,1.51,1.51,0,0,0,1.69-2.2l-11.66-17.91-2.06,2.06a88,88,0,0,1,22.31,18c1.16,1.3,3.14-.36,2.35-1.82l-3.69-6.85-2.36,1.82,5.62,5.27a1.52,1.52,0,0,0,2.56-1.06A44.53,44.53,0,0,0,509,221.05l-2.05,2a52.74,52.74,0,0,1,10.37,10.36c.82,1.09,2.84.87,2.79-.76l-.54-18.82-2.25,1.29,6.43,3.84a1.51,1.51,0,0,0,2.26-1.3l-.44-5.25L523,213.53l8.42,6.75c.92.74,2.64.36,2.56-1.06l-1.2-20.68-2.56,1.06a11,11,0,0,1,3.07,5.84l2.74-1.15a90.73,90.73,0,0,0-19.67-19.89L514.84,187A70.92,70.92,0,0,1,541,207.84c.7.91,2.45,1,2.74-.36a28.07,28.07,0,0,0,0-11.51L541,197.13a31.13,31.13,0,0,1,3,11.76c.08,1.37,2.09,2.18,2.8.75l6.41-12.91h-2.59a21.38,21.38,0,0,1,2.21,11.82,1.51,1.51,0,0,0,2.56,1.06,63.84,63.84,0,0,1,16-14.29l-2.2-1.69-4.5,11.31c-.6,1.51,1.49,2.35,2.5,1.46a170.73,170.73,0,0,1,18-13.87L583,190.84,580.26,199a1.51,1.51,0,0,0,1.84,1.85l18.33-6.56-1.16-2.74a46.34,46.34,0,0,0-18.35,17,1.51,1.51,0,0,0,.9,2.2c5.49,1.13,11.1,2,16.53,3.42a1.89,1.89,0,0,1,1.73,2.1c0,1.31-.14,2.63-.22,3.93l-.55,8.85a1.52,1.52,0,0,0,2.56,1.06A69,69,0,0,1,614,221.19l-2.26-1.29a36.26,36.26,0,0,1-7.47,22.58c-1.17,1.53,1.44,3,2.59,1.51a38.89,38.89,0,0,0,7.88-24.09,1.52,1.52,0,0,0-2.26-1.3A72.32,72.32,0,0,0,599.75,228l2.56,1.06.61-9.83c.17-2.61.62-5.77-2.06-7.3a13.15,13.15,0,0,0-3.86-1.1l-4.56-.94-9.82-2,.89,2.2a43.5,43.5,0,0,1,17.28-15.92c1.49-.77.45-3.32-1.16-2.74l-18.33,6.55,1.85,1.85,2.73-8.12a1.52,1.52,0,0,0-2.21-1.7A177.13,177.13,0,0,0,565,204.28l2.51,1.46,4.5-11.31c.49-1.24-1.16-2.35-2.2-1.7a65.81,65.81,0,0,0-16.58,14.76l2.56,1.06a24.25,24.25,0,0,0-2.62-13.33,1.51,1.51,0,0,0-2.59,0l-6.41,12.91,2.79.76a35,35,0,0,0-3.43-13.28c-.77-1.6-3.08-.42-2.75,1.16a24.33,24.33,0,0,1,0,9.91l2.74-.36a74.22,74.22,0,0,0-27.21-21.92,1.5,1.5,0,0,0-1.52,2.59,86,86,0,0,1,18.6,18.81,1.51,1.51,0,0,0,2.74-1.16,13.71,13.71,0,0,0-3.84-7.16,1.52,1.52,0,0,0-2.56,1.06l1.2,20.68,2.56-1.06-8.42-6.76c-.9-.72-2.68-.37-2.56,1.06l.44,5.25,2.25-1.29-6.43-3.84a1.52,1.52,0,0,0-2.26,1.3l.54,18.82,2.8-.75a57.2,57.2,0,0,0-11.45-11.44c-1.32-1-2.62.86-2.05,2.05a41.37,41.37,0,0,1,4,19.55l2.56-1.06-5.62-5.27a1.5,1.5,0,0,0-2.35,1.82l3.69,6.84,2.36-1.81a90.48,90.48,0,0,0-22.91-18.44c-1.26-.71-2.9.75-2.05,2.05l11.66,17.91,1.7-2.21a54.09,54.09,0,0,0-19.84-2c-1.38.11-2.18,2-.76,2.79a49.43,49.43,0,0,1,13.93,10.83l.66-2.5-8.51,1.62a1.52,1.52,0,0,0-.9,2.21l2.46,4.61.54-2-7.22,3.3c-1.32.61-.69,2.32.36,2.75.06,0,.13.14.07.43a3.23,3.23,0,0,1-.48,1.15,4.22,4.22,0,0,1-2.65,1.61c-2.32.68-4.9,1.36-6,3.73a1.52,1.52,0,0,0,.9,2.2l6.48,1.64v-2.89a24.51,24.51,0,0,0-12.68,10.06,1.51,1.51,0,0,0,1.69,2.2,94.06,94.06,0,0,1,32.42-3.87c1.93.1,1.92-2.9,0-3Z" fill="#262521"/><path d="M504.46,259.53a15.25,15.25,0,0,1,10.79-2.64L510,266.12l11.14-2a11.83,11.83,0,0,1-1.21,5.69c1.8-.83,3.84,10,3.37,11.66,1.86-1.52,5-7.62,6.82-9.15a72.14,72.14,0,0,1,1.16,17.89,10.14,10.14,0,0,0,6.19-4.21l1,13.05,3-2.13a8.35,8.35,0,0,1,1.48,8.76l9.73-5.95a117.64,117.64,0,0,0,5.65,27.36l3.2-6.76a46.84,46.84,0,0,0,19,14.47l3.91-11.13,4.14,1.52c-.35-1.94-.67-4,.38-5.76s4-2.78,5.77-1.47l1.69-13.5a19.56,19.56,0,0,1,8.7,4,55.69,55.69,0,0,0-15.92-30.08,42.15,42.15,0,0,1,13.6,5.75l1.24-8a56.59,56.59,0,0,1,14.28,8.48,19.23,19.23,0,0,0-.75-10.69l4.3.56a40.47,40.47,0,0,0-12.24-21.62l3.6-.82" fill="#262521" stroke="#636363" stroke-linecap="round" stroke-linejoin="round"/><path d="M607.53,241.44a20.51,20.51,0,0,0,13.56-6.8,2.37,2.37,0,0,1,.16,2.22,50,50,0,0,1-2.17,6.35c-.9,2.14-2.17,4.41-4.39,5.09" fill="#262521"/><path d="M607.53,242.94a22.22,22.22,0,0,0,14.62-7.24l-2.36-.3c.22.28.16.47.07.88-.17.69-.38,1.37-.59,2.05-.42,1.35-.91,2.69-1.44,4-.69,1.69-1.66,3.9-3.53,4.51s-1,3.5.79,2.89c2.94-1,4.42-3.68,5.53-6.37a46.86,46.86,0,0,0,1.69-4.74c.44-1.47,1.13-3.37.07-4.74a1.52,1.52,0,0,0-2.35-.31,19.13,19.13,0,0,1-12.5,6.36,1.54,1.54,0,0,0-1.5,1.5,1.51,1.51,0,0,0,1.5,1.5Z" fill="#262521"/><path d="M435.7,578.21a43.21,43.21,0,0,0-16.53-9.91l10.33-2a15.07,15.07,0,0,0-2.54-6.23l30.14.25a66.77,66.77,0,0,0-40.52-2.38c9.66-7.06,22.64-6.87,34.6-6.39l14.64.6a31,31,0,0,0-17.76-9.52l17.39-6-4.32-3.94,10-1.84c.77-.14,1.66-.36,2-1.07s-.24-1.81-.85-2.53l-7.67-9.09,12.76-10.84-9.06-2.5,8.34-12.2-5.3,2,.87-6.6-8.49,6.62a122.67,122.67,0,0,0,9.23-16.19,31.11,31.11,0,0,0-14.1,13.24,69.74,69.74,0,0,1,9.1-26.83l-7.79-.59A43.13,43.13,0,0,0,469.43,447a23.86,23.86,0,0,1-22.67,4.24,26.53,26.53,0,0,0,7.54-9.09l-7.79-1.31A27,27,0,0,0,457.25,421l-4.33.7a48.06,48.06,0,0,0,2.51-17.8A65.92,65.92,0,0,0,444.13,414l9.46-22.68a9.33,9.33,0,0,0-7.46,3.58c0-7.91,12.29-18.87,17.94-24.41L513.33,548Z" fill="#262521"/><path d="M436.76,577.15a45.78,45.78,0,0,0-17.19-10.3v2.89l10.33-2a1.53,1.53,0,0,0,1.05-1.84,16.91,16.91,0,0,0-2.7-6.6L427,561.55l30.14.25c1.79,0,1.91-2.36.4-2.94a68.51,68.51,0,0,0-41.32-2.38l1.16,2.74c6.46-4.66,14.37-6.07,22.18-6.33,8.75-.3,17.56.38,26.3.74a1.52,1.52,0,0,0,1.06-2.56,32.68,32.68,0,0,0-18.42-9.9v2.89l17.39-6a1.52,1.52,0,0,0,.66-2.51l-4.32-3.94-.66,2.5,7.85-1.44c2-.36,4.95-.53,5.31-3.08.34-2.33-2.27-4.48-3.61-6.07l-5.43-6.44v2.12l12.76-10.84a1.5,1.5,0,0,0-.66-2.5l-9.06-2.51.9,2.21,8.34-12.21a1.52,1.52,0,0,0-1.7-2.2l-5.3,2,1.9,1.45.87-6.6c.19-1.47-1.69-1.75-2.56-1.07l-8.5,6.63,2.36,1.82a124.57,124.57,0,0,0,9.23-16.2,1.51,1.51,0,0,0-2.05-2.05,32.88,32.88,0,0,0-14.63,13.78l2.79.76a68.71,68.71,0,0,1,8.9-26.07,1.53,1.53,0,0,0-1.3-2.26l-7.79-.59,1.06,2.56a45.54,45.54,0,0,0,9.67-17.82,1.52,1.52,0,0,0-2.51-1.46,22.48,22.48,0,0,1-21.21,3.86l.66,2.5a28.12,28.12,0,0,0,7.77-9.39,1.5,1.5,0,0,0-.89-2.2l-7.79-1.32.36,2.74A28.84,28.84,0,0,0,458.75,421a1.52,1.52,0,0,0-1.9-1.44l-4.33.69,1.85,1.85a50.43,50.43,0,0,0,2.56-18.2,1.51,1.51,0,0,0-2.26-1.29A69.62,69.62,0,0,0,443.07,413l2.51,1.46L455,391.74a1.51,1.51,0,0,0-1.45-1.9,11,11,0,0,0-8.52,4l2.56,1.06c.05-4.68,3.85-9.1,6.75-12.43,3.35-3.87,7.1-7.34,10.75-10.92l-2.51-.66,1.32,4.75,3.58,12.92,5.31,19.11L479.3,431l7.08,25.54,7.15,25.77,6.64,23.93,5.64,20.32,4.06,14.62c.63,2.29,1.1,4.72,1.93,6.94,0,.1.05.2.08.3l1-1.84-26.21,10.19L444.92,573l-9.62,3.74c-1.78.69-1,3.59.8,2.89l26.21-10.19,41.8-16.25,9.62-3.74a1.53,1.53,0,0,0,1-1.85l-1.31-4.74L509.87,530l-5.3-19.11-6.47-23.32L491,462l-7.15-25.78-6.64-23.92L471.58,392l-4.06-14.62c-.64-2.31-1.22-4.64-1.92-6.93l-.09-.31a1.51,1.51,0,0,0-2.5-.66c-3.91,3.82-7.92,7.53-11.44,11.72-3.21,3.81-6.88,8.52-6.94,13.75,0,1.2,1.72,2.1,2.56,1.06a8.11,8.11,0,0,1,6.4-3.14l-1.44-1.9-9.47,22.68c-.58,1.4,1.56,2.52,2.51,1.46a66.18,66.18,0,0,1,11-9.89l-2.25-1.3a48,48,0,0,1-2.45,17.4c-.4,1.19.8,2,1.84,1.84l4.33-.69-1.9-1.45a25.6,25.6,0,0,1-10,18.59c-.89.68-1.06,2.5.36,2.74l7.79,1.32-.9-2.2a26.34,26.34,0,0,1-7.3,8.78c-.95.75-.29,2.19.66,2.51a25.53,25.53,0,0,0,24.13-4.63L468,446.64a41.94,41.94,0,0,1-8.89,16.5,1.52,1.52,0,0,0,1.06,2.56l7.79.59L466.65,464a72.52,72.52,0,0,0-9.31,27.59c-.19,1.52,2.12,2,2.8.75a30.22,30.22,0,0,1,13.55-12.7l-2.05-2.05a124.46,124.46,0,0,1-9.23,16.19c-1,1.54,1.13,2.78,2.36,1.82l8.49-6.62L470.7,488l-.87,6.6a1.51,1.51,0,0,0,1.9,1.45l5.3-2-1.69-2.2L467,504a1.51,1.51,0,0,0,.9,2.2l9.07,2.51-.67-2.51-12.76,10.84a1.52,1.52,0,0,0,0,2.12l4.15,4.93,1.92,2.27,1,1.14c.27.32.94.87,1,1.3s.11.28-.34.44a9.17,9.17,0,0,1-1.46.28l-2.85.53-6.19,1.13a1.51,1.51,0,0,0-.66,2.51l4.32,3.94.66-2.51-17.39,6c-1.26.43-1.58,2.63,0,2.89a30,30,0,0,1,17.1,9.13l1.06-2.56c-9-.37-18.1-1.11-27.12-.71-8,.35-16.23,1.92-22.88,6.71a1.51,1.51,0,0,0,1.16,2.74,65.71,65.71,0,0,1,39.72,2.38l.4-3L427,558.55a1.51,1.51,0,0,0-1.3,2.26,14.9,14.9,0,0,1,2.4,5.87l1.05-1.84-10.34,2c-1.54.3-1.3,2.46,0,2.89a42.32,42.32,0,0,1,15.87,9.53C436,580.6,438.16,578.48,436.76,577.15Z" fill="#262521"/></svg>