<svg xmlns="http://www.w3.org/2000/svg" width="1000" height="1550" viewBox="0 0 1000 1550"><path fill="#6a6d61" stroke="#262521" stroke-linecap="round" stroke-linejoin="round" stroke-width="3" d="M277.41 1236.45l396.53-16.39 22.14 370.31-158.7-1.85-28.9-196.61-25.52 8.68-8.84 196.24-153.94-.22-42.77-360.16z"/><path fill="none" stroke="#4f5147" stroke-linecap="round" stroke-linejoin="round" d="M412.61 1245.75l11.56 313.7M415.61 1327.17l-126.13-10.86M416.84 1360.52l-118.29-10.79M315.76 1501.42h105.77M301.81 1416.61s81.45 11.91 91.87 5.87 15.5-39.43 23.52-52.09l-118.65-11M549.35 1243.33l34.52 320.32M557.8 1321.74l115.33-29.72M561.68 1357.73l113.45-26.31M577.04 1498.88l107.15-6.49M679.59 1395.06s-69.81 16.26-86.23 16.93-30.68-43.52-30.68-43.52l112.45-25.81"/><path d="M460.1 1243.35q-3.69 42.5-5.49 85.12t-1.61 85.28q.07 23.88.76 47.75a4.5 4.5 0 009 0q-1.22-42.64-.51-85.3t3.34-85.23q1.47-23.84 3.54-47.62c.21-2.35-2.21-4.6-4.5-4.5a4.62 4.62 0 00-4.5 4.5z" fill="#c1b891"/><path d="M456.84 1447.29a1.91 1.91 0 01.34.1l-1.08-.45a2.51 2.51 0 01.45.26l-.91-.7a2.52 2.52 0 01.4.4l-.71-.91a2.59 2.59 0 01.34.58l-.46-1.08a3.2 3.2 0 01.19.69l-.16-1.2a2.91 2.91 0 010 .66l.16-1.2a2.64 2.64 0 01-.15.55l.45-1.08a1.76 1.76 0 01-.24.42l.7-.92a1.82 1.82 0 01-.34.34l.91-.7a2.16 2.16 0 01-.44.25l1.07-.45a2.91 2.91 0 01-.58.15l1.2-.16a2.83 2.83 0 01-.65 0l1.19.16a3 3 0 01-.71-.2l1.08.46a2.37 2.37 0 01-.53-.31l.91.71a3.59 3.59 0 01-.39-.39l.7.91a2.75 2.75 0 01-.24-.41l.46 1.08a1.94 1.94 0 01-.14-.51l.16 1.19a2.09 2.09 0 010-.5l-.16 1.2a2.94 2.94 0 01.16-.58l-.45 1.07a3.25 3.25 0 01.33-.57l-.7.91a3 3 0 01.47-.47l-.91.7a2.84 2.84 0 01.56-.33l-1.07.45a2.31 2.31 0 01.53-.15l-1.2.17a1.68 1.68 0 01.5 0l-1.19-.16h.15a3.52 3.52 0 001.79.08 4 4 0 002.94-1.7 3.34 3.34 0 00.81-1.53l.16-1.19a4.53 4.53 0 00-.62-2.27l-.7-.91a4.46 4.46 0 00-2-1.16c-.44-.09-.9-.14-1.35-.19h-.2a8.43 8.43 0 00-1.54.18 2.22 2.22 0 00-.39.11c-.41.15-.82.33-1.22.51l-.18.09a2.46 2.46 0 00-.34.22 11.1 11.1 0 00-1.19 1 11.25 11.25 0 00-.92 1.17c-.08.12-.16.24-.23.37s-.2.47-.3.7-.2.45-.28.68a1.89 1.89 0 00-.1.41 6.86 6.86 0 000 3.09 5.17 5.17 0 00.34.88 4.56 4.56 0 00.39.84c.13.19.29.38.43.56s.28.39.44.57a1.55 1.55 0 00.27.24 6.57 6.57 0 001.46 1 6.89 6.89 0 001.71.63 14.63 14.63 0 001.5.2h.34a12.59 12.59 0 001.5-.21 1.7 1.7 0 00.32-.1c.4-.15.81-.32 1.2-.5l.15-.08a8.36 8.36 0 001.16-.87 1.88 1.88 0 00.25-.24c.27-.32.54-.68.79-1l.09-.14a8.38 8.38 0 00.59-1.35 2.35 2.35 0 00.11-.35 7.08 7.08 0 00-.12-3.79 7.17 7.17 0 00-.81-1.73 9.71 9.71 0 00-.94-1.18 9.47 9.47 0 00-1.17-.92 1.93 1.93 0 00-.34-.19 7.86 7.86 0 00-1.44-.57 3.31 3.31 0 00-1.79-.08 3.23 3.23 0 00-1.67.53 3.38 3.38 0 00-1.27 1.16 3.42 3.42 0 00-.8 1.53l-.16 1.2a4.42 4.42 0 00.61 2.27l.7.91a4.61 4.61 0 002 1.16zM471.13 1236.41q.83 42.67.58 85.37-.22 42.43-1.52 84.86-.74 24-1.8 47.9a4.53 4.53 0 004.5 4.5 4.59 4.59 0 004.5-4.5q1.89-42.64 2.73-85.33.83-42.43.6-84.87-.14-24-.59-47.93a4.5 4.5 0 00-9 0z" fill="#c1b891"/><path d="M471.3 1424.51a12.38 12.38 0 00-1.84 5.65 8.44 8.44 0 00.21 1.87 7.76 7.76 0 00.65 1.7 3.5 3.5 0 00.39.65 6.71 6.71 0 003.59 2.77 6.15 6.15 0 005-.55 6.69 6.69 0 002.26-2.29 9.09 9.09 0 00.64-1.47 3.29 3.29 0 00.15-.6 8.56 8.56 0 000-3.42 3.53 3.53 0 00-.13-.54 8.8 8.8 0 00-.69-1.57 8.33 8.33 0 00-4.87-3.56 13.55 13.55 0 00-2.75-.42 14.43 14.43 0 00-1.74 0 13.46 13.46 0 00-2.61.29 6.73 6.73 0 00-2.66 1.29 5.57 5.57 0 00-2.22 4.49 5.62 5.62 0 002.66 4.64 1.51 1.51 0 00.28.15 7.91 7.91 0 001.32.53 7 7 0 001.82.23 7.59 7.59 0 003.52-.94 4.63 4.63 0 002.06-2.69 4.5 4.5 0 00-3.14-5.54 4.88 4.88 0 00-3.47.45 1.08 1.08 0 01-.24.12l1.08-.45a3.64 3.64 0 01-.72.19l1.19-.16a3.42 3.42 0 01-.64 0l1.19.16a2.15 2.15 0 01-.5-.12l1.08.45a1.51 1.51 0 01-.35-.2l.91.71-.16-.16.7.91-.12-.2.46 1.08a1.11 1.11 0 01-.09-.31l.16 1.2a2.62 2.62 0 010-.28l-.16 1.2a1 1 0 01.06-.25l-.45 1.07a1.59 1.59 0 01.13-.22l-.71.91.25-.25-.91.7a2.6 2.6 0 01.49-.28l-1.07.45a4.25 4.25 0 011-.26l-1.19.16a12.88 12.88 0 013.34 0l-1.2-.16a6.28 6.28 0 011.61.43l-1.07-.45a4.6 4.6 0 01.91.53l-.91-.7a3.31 3.31 0 01.5.49l-.71-.91a2.59 2.59 0 01.34.58l-.45-1.08a3.19 3.19 0 01.2.75l-.16-1.2a3.7 3.7 0 010 .94l.16-1.2a3.47 3.47 0 01-.19.72l.45-1.07a2.86 2.86 0 01-.3.54l.7-.91a2.36 2.36 0 01-.31.32l.91-.7a2.14 2.14 0 01-.38.23l1.07-.46a1.58 1.58 0 01-.37.11l1.2-.16a2.44 2.44 0 01-.54 0l1.2.16a2.62 2.62 0 01-.4-.11l1.07.45a2.38 2.38 0 01-.44-.25l.91.7a2.34 2.34 0 01-.45-.44l.7.91a3.3 3.3 0 01-.39-.65l.46 1.08a3.72 3.72 0 01-.24-.85l.17 1.2a4.31 4.31 0 010-.88l-.16 1.2a6.13 6.13 0 01.43-1.46l-.46 1.07c.23-.51.49-1 .77-1.5a4.71 4.71 0 00.45-3.47 4.61 4.61 0 00-2.07-2.69 4.53 4.53 0 00-3.47-.45 4.6 4.6 0 00-2.68 2.07z" fill="#c1b891"/><path d="M364.37 531.26s.01-.03 0 0z" fill="#262521"/><path d="M729.35 918.39s-2.72-57.3-8.91-124.39H188.8c-1 77.34 3.45 151 3.45 151a619.79 619.79 0 00-3.6 128.12c5.53 68.42-1.88 179.2 14.45 197.94l61-1.5s-5.6-14.35-4.65-27c2.27-30.22 5.53-104.27 15.36-135.22s21.41-88.34 21.41-88.34l359.5 21.08c17.07 43.17 45.6 137.42 48.07 177.22 1.64 26.39 2.89 34.36 2.89 34.36h58.1s4.48-6.67 5.3-18.89-12.27-108.49-17.85-189.77c-3.83-55.85-22.88-124.61-22.88-124.61z" fill="#fff" stroke="#262521" stroke-linecap="round" stroke-linejoin="round" stroke-width="3"/><path d="M672.16 1099c-20.75-103.43-31-207.75-34.55-249.48l.3.1c58.38 11.42 118.48-39.89 118.48-39.89s-68.23-217.63-79.93-223.28-142.29-56.21-142.29-56.21-2.49 55-82.84 55c-65.08 0-82.1-39.23-86.21-51.38a10.79 10.79 0 01-.75-2.59c-1.05.66-133.79 83.87-145.44 89.5-2.17 1-15.49 16.94-15.81 45.24h0C187.38 730.34 165 838.76 165 838.76s103.21 50.51 123.25 10.35h0l4.11 7.63s5.1 107.66-.91 214.44c-6.5 115.55-40.87 181.13-5.35 253.09 23.77-62.8 84-63.92 147-66.39 7.19-.29 40.07 7.27 47.83 7 6.32-.21 35.31-8.44 42.12-8.4 31.12.22 42.34 2.2 51.29 2.59a319.43 319.43 0 0053.89 41.82l24-35.68 20.46-1.25 7 41c11-44.43 6.75-123.14-5-168.2-3.11-12.19.2-24.18-2.53-37.76z" fill="#fff" stroke="#262521" stroke-linecap="round" stroke-linejoin="round" stroke-width="3"/><path d="M711 1220.48s30.63-3.83 52.36 0" fill="none" stroke="#636363" stroke-linecap="round" stroke-linejoin="round"/><path d="M672.16 1099c-19.54-97.39-29.8-195.56-33.86-241.54-.34-.08-4.65-29.2-4.65-29.2-4.82 39.29 9.28 165.81 13 195.82 8.5 68.15-13.55 100.91-14 131.21-.23 15.15 33.16 16.53 33.28 31.67s-21 24-28 27.54c-12.11 6.07 27.59 6.64 0 31.24 2.46 9.74 4.14 27 3.71 35.27l10.61-15.8 22.13-.34s-1.37-8.47-3.69-21.55c-.92-5.22 7.61-11.31 8.81-17.72 3.62-19.47 2.85-45.2-.45-67.38-1.15-7.72-8.5-12.79-10.18-19.24-3.19-12.19 6.02-26.4 3.29-39.98zM275.13 1294.59c1.73-107.12 26.77-128.75 32.57-195.44 2.89-76.1 1.83-151.23-14.66-225.29 1.15 34.52 3 116.17-1.57 197.32-5.6 99.55-31.88 162.01-16.34 223.41z" fill="#262521"/><path d="M200.27 1238s30.63-3.83 52.37 0" fill="none" stroke="#636363" stroke-linecap="round" stroke-linejoin="round"/><path d="M642 700.68S625.86 782.15 629.32 807s6.44 21.89 8.59 42.64M688.88 647.07s6.82-23.29-2.08-41.13" fill="none" stroke="#262521" stroke-linecap="round" stroke-miterlimit="10" stroke-width="3"/><path d="M387.14 1260.35s-76.26 3.36-94.54 17.8M636.58 836.76l10.17-28.49M241 696.25s12.17 87.67 26.55 114.4l24.8 46.09M568.41 1258.75s67.46.1 97.53-27.52M513 1257.92s58.27-14.22 102.84-31.76M364.39 531.24s-133.76 83.87-145.46 89.52c-2.81 1.36-24.27 27.5-12.15 73.24" fill="none" stroke="#262521" stroke-linecap="round" stroke-linejoin="round" stroke-width="3"/></svg>