<svg xmlns="http://www.w3.org/2000/svg" width="1250" height="1550" viewBox="0 0 1250 1550"><title>s02e09-01</title><path d="M402.41,1236.45s61.78,24.3,203.69,19.79,192.84-36.18,192.84-36.18l22.14,370.31-158.7-1.85-28.9-196.61L608,1400.59l-8.84,196.24-153.94-.22Z" fill="#6a6d61" stroke="#262521" stroke-linecap="round" stroke-linejoin="round" stroke-width="3"/><line x1="537.61" y1="1245.75" x2="549.17" y2="1559.45" fill="none" stroke="#4f5147" stroke-linecap="round" stroke-linejoin="round"/><line x1="540.61" y1="1327.17" x2="414.48" y2="1316.31" fill="none" stroke="#4f5147" stroke-linecap="round" stroke-linejoin="round"/><line x1="541.84" y1="1360.52" x2="423.55" y2="1349.73" fill="none" stroke="#4f5147" stroke-linecap="round" stroke-linejoin="round"/><line x1="440.76" y1="1501.42" x2="546.53" y2="1501.42" fill="none" stroke="#4f5147" stroke-linecap="round" stroke-linejoin="round"/><path d="M426.81,1416.61s81.45,11.91,91.87,5.87,15.5-39.43,23.52-52.09l-118.65-11" fill="none" stroke="#4f5147" stroke-linecap="round" stroke-linejoin="round"/><line x1="674.35" y1="1243.33" x2="708.87" y2="1563.65" fill="none" stroke="#4f5147" stroke-linecap="round" stroke-linejoin="round"/><line x1="682.8" y1="1321.74" x2="798.13" y2="1292.02" fill="none" stroke="#4f5147" stroke-linecap="round" stroke-linejoin="round"/><line x1="686.68" y1="1357.73" x2="800.13" y2="1331.42" fill="none" stroke="#4f5147" stroke-linecap="round" stroke-linejoin="round"/><line x1="702.04" y1="1498.88" x2="809.19" y2="1492.39" fill="none" stroke="#4f5147" stroke-linecap="round" stroke-linejoin="round"/><path d="M804.59,1395.06s-69.81,16.26-86.23,16.93-30.68-43.52-30.68-43.52l112.45-25.81" fill="none" stroke="#4f5147" stroke-linecap="round" stroke-linejoin="round"/><path d="M585.1,1243.35q-3.69,42.5-5.49,85.12T578,1413.75q.07,23.88.76,47.75a4.5,4.5,0,0,0,9,0q-1.22-42.64-.51-85.3t3.34-85.23q1.47-23.84,3.54-47.62c.21-2.35-2.21-4.6-4.5-4.5a4.62,4.62,0,0,0-4.5,4.5Z" fill="#c1b891"/><path d="M581.84,1447.29a1.91,1.91,0,0,1,.34.1l-1.08-.45a2.51,2.51,0,0,1,.45.26l-.91-.7a2.52,2.52,0,0,1,.4.4l-.71-.91a2.59,2.59,0,0,1,.34.58l-.46-1.08a3.2,3.2,0,0,1,.19.69l-.16-1.2a2.91,2.91,0,0,1,0,.66l.16-1.2a2.64,2.64,0,0,1-.15.55l.45-1.08a1.76,1.76,0,0,1-.24.42l.7-.92a1.82,1.82,0,0,1-.34.34l.91-.7a2.16,2.16,0,0,1-.44.25l1.07-.45a2.91,2.91,0,0,1-.58.15l1.2-.16a2.83,2.83,0,0,1-.65,0l1.19.16a3,3,0,0,1-.71-.2l1.08.46a2.37,2.37,0,0,1-.53-.31l.91.71a3.59,3.59,0,0,1-.39-.39l.7.91a2.75,2.75,0,0,1-.24-.41l.46,1.08a1.94,1.94,0,0,1-.14-.51l.16,1.19a2.09,2.09,0,0,1,0-.5l-.16,1.2a2.94,2.94,0,0,1,.16-.58l-.45,1.07a3.25,3.25,0,0,1,.33-.57l-.7.91a3,3,0,0,1,.47-.47l-.91.7a2.84,2.84,0,0,1,.56-.33l-1.07.45a2.31,2.31,0,0,1,.53-.15l-1.2.17a1.68,1.68,0,0,1,.5,0l-1.19-.16.15,0a3.52,3.52,0,0,0,1.79.08,4,4,0,0,0,2.94-1.7,3.34,3.34,0,0,0,.81-1.53l.16-1.19a4.53,4.53,0,0,0-.62-2.27l-.7-.91a4.46,4.46,0,0,0-2-1.16c-.44-.09-.9-.14-1.35-.19h-.2a8.43,8.43,0,0,0-1.54.18,2.22,2.22,0,0,0-.39.11c-.41.15-.82.33-1.22.51l-.18.09a2.46,2.46,0,0,0-.34.22,11.1,11.1,0,0,0-1.19,1,11.25,11.25,0,0,0-.92,1.17c-.08.12-.16.24-.23.37s-.2.47-.3.7-.2.45-.28.68a1.89,1.89,0,0,0-.1.41,6.86,6.86,0,0,0,0,3.09,5.17,5.17,0,0,0,.34.88,4.56,4.56,0,0,0,.39.84c.13.19.29.38.43.56s.28.39.44.57a1.55,1.55,0,0,0,.27.24,6.57,6.57,0,0,0,1.46,1,6.89,6.89,0,0,0,1.71.63,14.63,14.63,0,0,0,1.5.2h.34a12.59,12.59,0,0,0,1.5-.21,1.7,1.7,0,0,0,.32-.1c.4-.15.81-.32,1.2-.5l.15-.08a8.36,8.36,0,0,0,1.16-.87,1.88,1.88,0,0,0,.25-.24c.27-.32.54-.68.79-1l.09-.14a8.38,8.38,0,0,0,.59-1.35,2.35,2.35,0,0,0,.11-.35,7.08,7.08,0,0,0-.12-3.79,7.17,7.17,0,0,0-.81-1.73,9.71,9.71,0,0,0-.94-1.18,9.47,9.47,0,0,0-1.17-.92,1.93,1.93,0,0,0-.34-.19,7.86,7.86,0,0,0-1.44-.57,3.31,3.31,0,0,0-1.79-.08,3.23,3.23,0,0,0-1.67.53,3.38,3.38,0,0,0-1.27,1.16,3.42,3.42,0,0,0-.8,1.53l-.16,1.2a4.42,4.42,0,0,0,.61,2.27l.7.91a4.61,4.61,0,0,0,2,1.16Z" fill="#c1b891"/><path d="M596.13,1236.41q.82,42.67.58,85.37-.23,42.43-1.52,84.86-.74,24-1.8,47.9a4.53,4.53,0,0,0,4.5,4.5,4.59,4.59,0,0,0,4.5-4.5q1.89-42.64,2.73-85.33.82-42.43.6-84.87-.13-24-.59-47.93a4.5,4.5,0,0,0-9,0Z" fill="#c1b891"/><path d="M596.3,1424.51a12.38,12.38,0,0,0-1.84,5.65,8.44,8.44,0,0,0,.21,1.87,7.76,7.76,0,0,0,.65,1.7,3.5,3.5,0,0,0,.39.65,6.71,6.71,0,0,0,3.59,2.77,6.15,6.15,0,0,0,5-.55,6.69,6.69,0,0,0,2.26-2.29,9.09,9.09,0,0,0,.64-1.47,3.29,3.29,0,0,0,.15-.6,8.56,8.56,0,0,0,0-3.42,3.53,3.53,0,0,0-.13-.54,8.8,8.8,0,0,0-.69-1.57,8.33,8.33,0,0,0-4.87-3.56,13.55,13.55,0,0,0-2.75-.42,14.43,14.43,0,0,0-1.74,0,13.46,13.46,0,0,0-2.61.29,6.73,6.73,0,0,0-2.66,1.29,5.57,5.57,0,0,0-2.22,4.49,5.62,5.62,0,0,0,2.66,4.64,1.51,1.51,0,0,0,.28.15,7.91,7.91,0,0,0,1.32.53,7,7,0,0,0,1.82.23,7.59,7.59,0,0,0,3.52-.94,4.63,4.63,0,0,0,2.06-2.69,4.5,4.5,0,0,0-3.14-5.54,4.88,4.88,0,0,0-3.47.45,1.08,1.08,0,0,1-.24.12l1.08-.45a3.64,3.64,0,0,1-.72.19l1.19-.16a3.42,3.42,0,0,1-.64,0l1.19.16a2.15,2.15,0,0,1-.5-.12l1.08.45a1.51,1.51,0,0,1-.35-.2l.91.71-.16-.16.7.91-.12-.2.46,1.08a1.11,1.11,0,0,1-.09-.31l.16,1.2a2.62,2.62,0,0,1,0-.28l-.16,1.2a1,1,0,0,1,.06-.25l-.45,1.07a1.59,1.59,0,0,1,.13-.22l-.71.91.25-.25-.91.7a2.6,2.6,0,0,1,.49-.28l-1.07.45a4.25,4.25,0,0,1,1-.26l-1.19.16a12.88,12.88,0,0,1,3.34,0l-1.2-.16a6.28,6.28,0,0,1,1.61.43l-1.07-.45a4.6,4.6,0,0,1,.91.53l-.91-.7a3.31,3.31,0,0,1,.5.49l-.71-.91a2.59,2.59,0,0,1,.34.58l-.45-1.08a3.19,3.19,0,0,1,.2.75l-.16-1.2a3.7,3.7,0,0,1,0,.94l.16-1.2a3.47,3.47,0,0,1-.19.72l.45-1.07a2.86,2.86,0,0,1-.3.54l.7-.91a2.36,2.36,0,0,1-.31.32l.91-.7a2.14,2.14,0,0,1-.38.23l1.07-.46a1.58,1.58,0,0,1-.37.11l1.2-.16a2.44,2.44,0,0,1-.54,0l1.2.16a2.62,2.62,0,0,1-.4-.11l1.07.45a2.38,2.38,0,0,1-.44-.25l.91.7a2.34,2.34,0,0,1-.45-.44l.7.91a3.3,3.3,0,0,1-.39-.65l.46,1.08a3.72,3.72,0,0,1-.24-.85l.17,1.2a4.31,4.31,0,0,1,0-.88l-.16,1.2a6.13,6.13,0,0,1,.43-1.46l-.46,1.07c.23-.51.49-1,.77-1.5a4.71,4.71,0,0,0,.45-3.47,4.61,4.61,0,0,0-2.07-2.69,4.53,4.53,0,0,0-3.47-.45,4.6,4.6,0,0,0-2.68,2.07Z" fill="#c1b891"/><path d="M800.54,1225.65l5.66,56.15S738.81,1306.47,625,1311s-226.18-29.16-226.18-29.16l4.64-34.94Z" fill="#fff" stroke="#262521" stroke-linecap="round" stroke-miterlimit="10" stroke-width="3"/><path d="M489.37,531.26l0,0S489.38,531.23,489.37,531.26Z" fill="#262521" stroke="#262521" stroke-linecap="round" stroke-linejoin="round" stroke-width="3"/><path d="M877.23,1043c-3.83-55.87-22.88-124.63-22.88-124.63s-14.59-306.95-52.89-331.94c-10.88-7.1-142.29-56.21-142.29-56.21s-2.49,55-82.84,55c-65.08,0-82.1-39.23-86.21-51.38a10.79,10.79,0,0,1-.75-2.59c-1,.65-100.94,62.69-145.44,89.5C299.2,647.71,317.25,945,317.25,945a619.79,619.79,0,0,0-3.6,128.12c5.53,68.42-1.88,179.2,14.45,197.94l61-1.5s-5.6-14.35-4.65-27c2.27-30.22,5.53-104.27,15.36-135.22s21.45-88.31,21.45-88.33c.49,23.68.3,42.23-1,50.33-3.6,21.92-31.66,102.78-17.78,133.07-3.34,29.28-5.7,66.94-5.7,66.94S492.4,1295,569.4,1294c137.52-1.66,240.17-35.54,240.17-35.54s-2.28-35.7-5.32-60.52c9.94-22.62-4.2-83.52-17.92-143,17.07,47.16,40.25,126.63,42.46,162.33,1.64,26.39,2.89,34.36,2.89,34.36h58.1s4.48-6.67,5.3-18.89S882.81,1124.28,877.23,1043Z" fill="#262521" stroke="#262521" stroke-linecap="round" stroke-linejoin="round" stroke-width="3"/><polygon points="570.53 682.28 611.7 680.62 579.86 706.57 591.11 667.32 604.92 705.68 570.53 682.28" fill="#fff" stroke="#fff" stroke-linecap="round" stroke-linejoin="round" stroke-width="4.36"/><polygon points="570.53 940.04 611.7 938.37 579.86 964.33 591.11 925.08 604.92 963.43 570.53 940.04" fill="#fff" stroke="#fff" stroke-linecap="round" stroke-linejoin="round" stroke-width="4.36"/><polygon points="699.01 815.51 740.18 813.85 708.35 839.81 719.6 800.56 733.41 838.91 699.01 815.51" fill="#fff" stroke="#fff" stroke-linecap="round" stroke-linejoin="round" stroke-width="4.36"/><polygon points="443.1 815.51 484.27 813.85 452.44 839.81 463.69 800.56 477.5 838.91 443.1 815.51" fill="#fff" stroke="#fff" stroke-linecap="round" stroke-linejoin="round" stroke-width="4.36"/><polygon points="458 748.64 499.17 746.98 467.33 772.93 478.58 733.68 492.39 772.04 458 748.64" fill="#fff" stroke="#fff" stroke-linecap="round" stroke-linejoin="round" stroke-width="4.36"/><polygon points="506.42 706.26 547.59 704.6 515.75 730.55 527.01 691.3 540.81 729.66 506.42 706.26" fill="#fff" stroke="#fff" stroke-linecap="round" stroke-linejoin="round" stroke-width="4.36"/><polygon points="726.08 748.64 684.91 746.98 716.75 772.93 705.5 733.68 691.69 772.04 726.08 748.64" fill="#fff" stroke="#fff" stroke-linecap="round" stroke-linejoin="round" stroke-width="4.36"/><polygon points="458 871.86 499.17 870.2 467.33 896.15 478.58 856.9 492.39 895.26 458 871.86" fill="#fff" stroke="#fff" stroke-linecap="round" stroke-linejoin="round" stroke-width="4.36"/><polygon points="726.08 872.61 684.91 870.95 716.75 896.9 705.5 857.65 691.69 896 726.08 872.61" fill="#fff" stroke="#fff" stroke-linecap="round" stroke-linejoin="round" stroke-width="4.36"/><polygon points="677.66 706.26 636.49 704.6 668.32 730.55 657.07 691.3 643.26 729.66 677.66 706.26" fill="#fff" stroke="#fff" stroke-linecap="round" stroke-linejoin="round" stroke-width="4.36"/><polygon points="499.17 922.83 540.34 921.17 508.5 947.12 519.75 907.87 533.56 946.23 499.17 922.83" fill="#fff" stroke="#fff" stroke-linecap="round" stroke-linejoin="round" stroke-width="4.36"/><polygon points="684.91 922.83 643.74 921.17 675.58 947.12 664.33 907.87 650.52 946.23 684.91 922.83" fill="#fff" stroke="#fff" stroke-linecap="round" stroke-linejoin="round" stroke-width="4.36"/></svg>