<svg xmlns="http://www.w3.org/2000/svg" width="1250" height="1550" viewBox="0 0 1250 1550"><title>s02e01-02</title><path d="M801.34,601.25C790.45,594.15,651.81,528,651.81,528s-9,42.67-63.91,47.58c-64.83,5.79-86.64-36-90.76-48.14l-87.91,73.8" fill="#fff" stroke="#262521" stroke-linecap="round" stroke-linejoin="round" stroke-width="3"/><path d="M421.22,1019s-11.62,57.38-21.45,88.33-13.09,105-15.36,135.22c-1,12.66,4.65,27,4.65,27l-61,1.5c-16.33-18.74-8.92-129.52-14.45-197.94A619.79,619.79,0,0,1,317.25,945S299.2,647.71,343.93,620.76s145.46-89.52,145.46-89.52-.24-.24.73,2.61c4.11,12.15,21.13,51.38,86.21,51.38,80.35,0,82.84-55,82.84-55s131.41,49.11,142.29,56.21c38.3,25,52.89,331.94,52.89,331.94s19,68.76,22.88,124.63c5.58,81.26,18.66,177.57,17.85,189.79s-5.3,18.89-5.3,18.89h-58.1s-1.25-8-2.89-34.36c-2.47-39.8-31-134-48.07-177.22" fill="#d8d8d8" stroke="#262521" stroke-linecap="round" stroke-linejoin="round" stroke-width="3"/><path d="M836,1220.48s30.63-3.83,52.36,0" fill="none" stroke="#636363" stroke-linecap="round" stroke-linejoin="round"/><path d="M325.27,1238s30.63-3.83,52.37,0" fill="none" stroke="#636363" stroke-linecap="round" stroke-linejoin="round"/><path d="M478,546.43s21.5,56.9,100.8,56.9,94.27-62,94.27-62" fill="none" stroke="#636363" stroke-linecap="round" stroke-linejoin="round"/><path d="M410.65,807.61s5.34,199.1,3.83,238.13c-.83,21.49-26.88,158.94-14.57,186.12,0,13-1.32,43-1.32,43s73.26,22.14,150.26,21.22c137.52-1.66,263.37-26.64,263.37-26.64s-6.69-30-7.46-43.63c14.49-25-20.49-181-22.29-250.9-1.22-47.59-16.09-167.28-16.09-167.28" fill="#d8d8d8" stroke="#262521" stroke-linecap="round" stroke-linejoin="round" stroke-width="3"/><path d="M410.89,1236.91s170.48,30.52,378.15-4.83" fill="none" stroke="#636363" stroke-linecap="round" stroke-linejoin="round"/><path d="M652.49,796.68c2.64.29,5.37.25,7.87,1,1.25.38,3.08,2.39,2.88,3.28a5.46,5.46,0,0,1-3.33,3.42c-4.13,1.14-8.42,1.67-12.62,2.55a9.88,9.88,0,0,0-4.07,1.46c-1.1.85-1.67,2.37-2.47,3.6a26.39,26.39,0,0,0,3.92,1.59c1.73.41,3.71.1,5.25.83,1.28.6,2.88.71,3.08,3.42a3.52,3.52,0,0,1-3.07,2.41,88,88,0,0,1-9.06,1,6.66,6.66,0,0,0-2.22.18c-2.47,1.28-6.61,1.74-5.63,5.56s5.1,2.47,8,2.94c1,.17,2.51-.61,3.2-.13,1.25.88,2.61,2.28,2.85,3.65.15.84-1.55,2.28-2.7,3-4.66,2.94-9.91,1.64-14.94,1.67-2.1,0-4.2-.72-6.31-1-3.86-.53-3.81-3.26-3.12-5.94,1-3.94,1.81-8.12,3.77-11.59a146.8,146.8,0,0,1,12.09-18.12c3.06-3.9,8.24-3.58,12.8-4,1.28-.14,2.55-.22,3.83-.33Z" fill="#fff"/><path d="M584.31,743.14c.88,2.49,2.65,3,5.16,2.83a17,17,0,0,1,6.84.95c2.48,1,2.15,3.18.33,4.52a11.65,11.65,0,0,1-5.79,2.53,82,82,0,0,1-13.38-.51c-5.58-.65-6.53-2.57-6.11-8.09.63-8.4,5.68-14.84,9.14-22,2-4.12,4.42-8.06,9.15-9.68a32.45,32.45,0,0,1,18.41-.74c1.54.37,4.71,2.37,4.48,4.1s-3.38,2.62-5,3.1a15.44,15.44,0,0,1-6.09-.07c-4.29-.61-7.28,2.16-10.54,4-.79.45-1.22,2.71-.81,3.72s2,1.87,3.26,2.09c2.43.44,6.09-.42,5.91,3-.07,1.41-4.06,2.91-6.48,3.81-1.71.63-3.77.37-5.68.38-3,0-3.94,2.08-4.42,4.43-.08.44,1.16,1.15,1.77,1.72Z" fill="#fff"/><path d="M548.77,737.4c8.05-8.2,11.8-20.08,22-26.48,4,3.11,4.41,4.23,1.87,8.22-4.8,7.54-9.29,15.36-14.88,22.29-3.33,4.13-8.18,7.37-12.92,10s-8.69-.47-8.65-6c.06-8.87,0-17.73-.15-26.59-.08-4.47,1.64-8,5.61-9.82a5.79,5.79,0,0,1,4.88.73,5.44,5.44,0,0,1,1.75,4.2c-.41,5.47-1.2,10.91-1.9,16.35C546,732.91,545.62,735.57,548.77,737.4Z" fill="#fff"/><path d="M485.47,706.57c1.47-3.24,1.18-6.36-1.45-8.82s-5.52-1.4-8.28-.17c-3.13,1.41-4.88,3.57-6.36,7-4.3,10.09-9.6,19.75-14.58,29.55-4.17,8.21-7.44,16.58-6.12,26.08,1.08,7.76,5.12,10.89,12.8,9.06a39,39,0,0,0,21.63-13.09c1.63-2,2.47-4.72,3.26-7.25a4.33,4.33,0,0,0-2.63-5.69c-2.07-.81-4.25-1.13-6.18.59h0c-2,1.25-6.79,4.26-8.79,5.5l-1.39-.87c.9-2.69,1.59-5.48,2.75-8.06C475.16,729.12,480.35,717.86,485.47,706.57Z" fill="#fff"/><path d="M521.4,816.84c.56,2.7-1.22,4.46-4,5s-5.71.81-8.06,2.11c-1.52.85-2.1,3.36-3.1,5.13,1.82.77,3.59,2,5.49,2.22s5.19-1.12,5.23,1.86c0,2.17-2,5.86-3.71,6.26-5,1.17-10.24,1.22-15.4,1.33-3.6.07-4.19-2.89-3.44-5.42,2.17-7.39,4.76-14.66,7.2-22,.2-.6.54-1.14.75-1.73,3.4-9.52,9.46-13.92,19.64-14.38,1.77-.07,3.57-.87,5.27-.66,1.39.17,4.59.9,4.59,1.63a8.07,8.07,0,0,1-2.82,5.24c-2,1.32-4.76,1.55-7.13,2.42s-5.12,1.68-7.19,3.18c-1.16.84-1.31,3-1.91,4.65l4,1.27C517,814.59,521.13,815.58,521.4,816.84Z" fill="#fff"/><path d="M733.33,728.24a8.58,8.58,0,0,0-2.37-3.55,1.6,1.6,0,0,0-.22-.24c-.34-.37-.67-.75-1-1.12l.19.52a25.58,25.58,0,0,0-4-2c-1.45-.45-2.91-.9-4.37-1.32-7.67-2.17-12.75-.51-17.38,6.06-2.79,4-5.7,7.95-7.73,12.31a70.79,70.79,0,0,0-5,15.11c-.95,4.58,2.43,9.2,6.32,9.55,6.11.56,12.25.91,18.38,1.1,4.64.14,5.71-.93,6-5,.36-5.07-1-7.06-5.34-7.61-3.22-.4-6.47-.61-9.7-.9-.1-.36-.26-2.29-.36-2.65.94-.46,1.9.33,2.86.27,2.93-.2,5.89-.11,8.83-.14,5.51-.05,7-1.78,5-6.76-.83-2-2.77-3-4.72-4.44-.86-.61-2.81-.87-4-1.08l0-2.1a9.2,9.2,0,0,1,3.39.2c3.28.37,6.51,1.17,9.79,1.54,1.62.18,4.52.19,4.76-.47A13.85,13.85,0,0,0,733.33,728.24Z" fill="#fff"/><path d="M662.62,721.42q7.93-8.05,15.85-16.09c4.25-4.31,9.16-7.06,15.43-5.77,5.39,1.1,7.73,4.78,6,10A97.28,97.28,0,0,1,694.13,722c-2.49,4.88-5.4,9.55-7.77,14.48-4.44,9.21-8.55,18.58-13,27.8-1.6,3.33-4.28,5.53-8.3,4.93s-7.31-3.8-7.56-7.54a7.77,7.77,0,0,1,.88-4c2.12-3.93,4.5-7.71,6.67-11.61,1.16-2.09,2.09-4.3,3.13-6.46l-.87-.6c-3.25,4-6.51,7.9-9.75,11.87-1.21,1.48-2.33,3-3.57,4.5a7.49,7.49,0,0,1-9,2.25c-3.11-1.22-4.64-4.84-4-8.74.29-1.86.61-3.7.92-5.56l-.89-.44c-1,1.45-2.16,2.85-3.1,4.37-2.34,3.82-4.52,7.74-6.93,11.52-2.18,3.44-8.81,5.34-12,3.61-3.44-1.87-4.75-6.78-3.47-11.1,2.18-7.4,6.89-13.29,10.9-19.66,4.61-7.35,8.42-15.19,12.71-22.74,3.49-6.15,8-10.95,15.86-11,4.88,0,7.28,1.76,7.41,6.63.09,3.18-.42,6.38-.58,9.57-.12,2.37-.12,4.74-.17,7.11Zm-16.07,8.79c1.42,6-.54,11.06-2,16.14-.75,2.58-1.15,5,1.8,6.63s5,.89,6.88-1.66c3.12-4.22,6.23-8.45,9.57-12.48a55.65,55.65,0,0,1,6.79-6.68c.69-.59,2.67-.84,3-.4a4.23,4.23,0,0,1,.76,3.41,33.44,33.44,0,0,1-2.78,5.87c-3.07,5.65-6.31,11.23-9.18,17-.48,1,.08,3,.9,3.91,3,3.18,7.74,2.15,10.09-2.27,3-5.69,5.81-11.52,8.62-17.33,1.43-3,2.64-6,4-9,4-8.46,8.19-16.85,12-25.39.66-1.48.72-4.3-.2-5.17a7.08,7.08,0,0,0-5.57-1.28c-6.2,1.32-10.77,5.32-14.82,10-3.48,4-7,8.12-10.77,11.86-.9.88-3.31,1.08-4.54.52-1-.44-1.84-2.68-1.58-3.87a36.33,36.33,0,0,0-.26-15.87c-.81-3.67-1.68-4.51-5.45-4-7.65,1.12-10.71,7-13.95,12.82-3.83,6.83-7.64,13.68-11.36,20.57-3.25,6-6.62,12-9.34,18.3-.74,1.7,0,5,1.25,6.39,2,2.21,4.47.36,6.4-1.24,6-4.93,8.81-11.95,12.27-18.56C640.85,735.28,642.05,731.62,646.55,730.21Z"/><path d="M509,778.13c3.79-.51,7.39-.13,9.34,3.6,1.84,3.54.15,6.64-2.05,9.51a11.47,11.47,0,0,1-9.16,4.87c-4.78.13-7.33,1.9-8.69,7.11-3,11.69-7.14,23.12-10.87,34.63a63.64,63.64,0,0,1-3.84,10.28c-2.13,4-7.25,5.52-11.36,4-3.42-1.29-5.49-5-4.49-9.57,1.26-5.85,3.07-11.59,4.81-17.32,2.07-6.85,4.31-13.64,6.51-20.45.85-2.62-.2-3.47-2.76-3.45a43.06,43.06,0,0,1-6.9-.51c-4.58-.74-7.55-3.79-7.78-7.72s3-8.59,7-9.49c5.08-1.14,10.26-1.86,15.39-2.76C484.21,781,500.77,779.25,509,778.13Zm-15.46,4.15a84.36,84.36,0,0,0-8.62.78c-5.36,1-10.67,2.18-16,3.45-2.17.51-3.58,1.83-3.28,4.42s1.37,4.12,3.85,4.6,4.74.82,7.12,1.15c5.54.78,7.19,2.73,5.74,8-2.06,7.45-4.48,14.8-6.9,22.14-1.3,3.94-3.08,7.73-4.39,11.67-1,2.91.63,8.33,2.36,9.06,2.66,1.11,6.78-.4,8.89-3.67a26.07,26.07,0,0,0,3-6.59q5.79-19.05,11.35-38.17c1.28-4.37,3.83-6.94,8.56-7.55,2.6-.34,5.53-1.08,7.47-2.67,1.69-1.37,3.2-4.32,2.94-6.34-.29-2.27-3-2.8-5.69-2.36C504.81,781,499.61,781.52,493.56,782.28Z"/><path d="M559.66,806.22c1.52-2.45,3.21-4.83,4.53-7.39,1.84-3.59,4.37-5.81,8.6-6,5.84-.27,8.9,3.22,6.81,8.71-1.62,4.26-4.29,8.11-6.3,12.24-3.63,7.43-7.23,14.87-10.6,22.42a10.44,10.44,0,0,1-9.51,6.27c-3.9,0-6.39-2.38-7.78-5.81a59.12,59.12,0,0,1-1.83-6.57c-1.38,2.5-2.56,4.57-3.68,6.68-2.22,4.21-5.89,6.34-10.42,7-5,.7-8.48-3-6.69-7.61a193.28,193.28,0,0,1,10.13-22.21c2.7-5,6.44-9.47,10.1-13.86a12.2,12.2,0,0,1,5.79-3.4c4.89-1.45,7.84.58,8.94,5.61.27,1.24.58,2.1.82,3.69S559.34,806.86,559.66,806.22Zm-1.18,8.56-.82,0a62.38,62.38,0,0,0-1.06-8.12c-.73-2.82-.58-7.08-4.21-7.33-2.74-.2-6.19,1.4-8.33,3.3a36.9,36.9,0,0,0-7.13,9.44c-3.83,6.77-7.33,13.74-10.71,20.76a5.26,5.26,0,0,0,.2,4.64,5.41,5.41,0,0,0,4.52,1.53c4.95-1,7.29-5,9.28-9.19,1.25-2.64,2.45-5.3,3.68-7.94l1.37.23a39.35,39.35,0,0,1,1.57,4c.64,2.33.57,5,1.77,7a11.89,11.89,0,0,0,5.52,4.58c2.38.93,4.31-1,5.44-3.12,1.25-2.35,2.17-4.87,3.36-7.25,2.21-4.39,4.43-8.78,6.77-13.1,2.53-4.68,5.43-9.17,7.75-13.94,1.59-3.26-.22-6-3.71-5.37a11.24,11.24,0,0,0-6.46,4.46C564,804.27,561.37,809.62,558.48,814.78Z"/><path d="M643.78,811.53a40.15,40.15,0,0,0,5.67.88c2.77,0,5,.75,5.36,3.73.44,3.3-.48,6.4-3.89,7.52-3,1-6.23,1.13-9.36,1.62-1.87.3-3.75.55-5.62.82-1,.89-.23.92.11,1.31,1.44.07,2.87.11,4.31.22,1.9.13,4.17-.26,5.62.64a9,9,0,0,1,3.92,5.09c.31,1.49-1,4.42-2.37,5a48.7,48.7,0,0,1-12.42,3.35c-3.89.48-7.92-.09-11.89-.28-5.24-.24-8.16-3.81-7.17-9,2.41-12.55,8.87-23.06,17.16-32.45a13.13,13.13,0,0,1,7.81-3.68,159.47,159.47,0,0,1,19.43-.87c5.8.05,8.5,5.08,4.11,10.05-3,3.41-6.17,4.7-10.45,4A13.29,13.29,0,0,0,643.78,811.53Zm8.69-14.5c-1.28.11-2.55.19-3.83.33-4.56.47-9.74.15-12.8,4a146.8,146.8,0,0,0-12.09,18.12c-2,3.47-2.75,7.65-3.77,11.59-.69,2.68-.74,5.41,3.12,5.94,2.11.29,4.21,1,6.31,1,5,0,10.28,1.27,14.94-1.67,1.15-.73,2.85-2.17,2.7-3-.24-1.37-1.6-2.77-2.85-3.65-.69-.48-2.15.3-3.2.13-2.88-.47-7,.81-8-2.94s3.16-4.28,5.63-5.56a6.66,6.66,0,0,1,2.22-.18,88,88,0,0,0,9.06-1,2.74,2.74,0,0,0,2.21-2.83,3.23,3.23,0,0,0-2.22-3c-1.54-.73-3.52-.42-5.25-.83-1.36-.32-3.37.37-3.92-1.59s1.37-2.75,2.47-3.6a9.88,9.88,0,0,1,4.07-1.46c4.2-.88,8.49-1.41,12.62-2.55a5.46,5.46,0,0,0,3.33-3.42c.2-.89-1.63-2.9-2.88-3.28A30.12,30.12,0,0,0,652.47,797Z"/><path d="M607.35,711c-5.11-.12-10.23,0-15.33.18A13.73,13.73,0,0,0,580,719c-4.61,9.07-8.52,18.51-12.31,28-2.31,5.74.81,9.77,7.11,10.13a63.69,63.69,0,0,0,6.86.51,97.38,97.38,0,0,0,14.41-1.36c3.2-.65,5-5.18,4.17-8.5s-3.31-4-6.51-3.89c-2.45.08-8.29-.15-8.27-1.1s2.32-1.33,3.84-1.67c3.09-.69,6.39-.6,9.36-1.57s4-3.46,3.36-6.53-2.67-4.52-5.72-4.69l-3.88-.23-.25-1.55a41.28,41.28,0,0,1,6.54-1.74c2.91-.3,5.89.06,8.83-.08,4.61-.2,7.15-2.7,7.16-6.8C614.71,714.27,611.54,711.12,607.35,711Zm.15,9.14a15.26,15.26,0,0,1-6.09-.08c-4.29-.6-7.28,2.17-10.54,4-.79.45-1.22,2.71-.81,3.72s2,1.87,3.26,2.09c2.43.44,6.09-.42,5.91,3-.07,1.41-4.06,2.91-6.48,3.81-1.71.63-3.77.37-5.68.38-3,0-3.94,2.08-4.42,4.43-.06.3-.29,1.31.28,1.71,1.14,2.09,4.21,2.86,6.54,2.74a17,17,0,0,1,6.84.95c2.48,1,2.15,3.18.33,4.52a11.65,11.65,0,0,1-5.79,2.53,82,82,0,0,1-13.38-.51c-5.58-.65-6.53-2.57-6.11-8.09.63-8.4,5.68-14.84,9.14-22,2-4.12,4.42-8.06,9.14-9.68a32.49,32.49,0,0,1,18.42-.74,5.17,5.17,0,0,1,3.44,4.09C611.56,718.74,609.16,719.68,607.5,720.16Z"/><path d="M549.39,731.53c3.8-5.1,7.25-10.53,11.53-15.2a22,22,0,0,1,9.68-6.21c5.29-1.48,8.26,2.33,6,7.36a72.51,72.51,0,0,1-7.45,13.38c-4.89,6.67-10.26,13-15.69,19.26-3.53,4.06-7.75,7-13.72,6-5.16-.87-7.69-4.24-7.18-9.45.63-6.5,1.16-13,1.4-19.53.13-3.53-.8-7.11-.58-10.63.38-6.17,6.39-10.81,12.59-10.2,3.77.37,5.62,3.23,5,8-.75,5.67-1.62,11.33-2.44,17C548.68,731.85,548.81,732.44,549.39,731.53Zm-.62,5.87c-1.93.37-3.16-2.61-2.38-7.19.7-5.44,1.49-10.88,1.9-16.35a5.44,5.44,0,0,0-1.75-4.2,5.79,5.79,0,0,0-4.88-.73c-4,1.87-5.69,5.35-5.61,9.82.14,8.86.21,17.72.15,26.59,0,5.58,3.76,8.72,8.65,6s9.59-5.83,12.92-10c5.59-6.93,10.08-14.75,14.88-22.29,2.54-4,.68-7.89-2.68-7.13C565.66,713,550.69,737,548.77,737.4Z"/><path d="M696.12,827.85c1.92,2,4.1,4.11,6.11,6.38,3.49,4,2.57,7.92-2.25,10.07-5.29,2.37-8.43,1.84-12.49-2.13-1.55-1.52-3-3.11-4.65-4.56s-3.13-2.6-4.88-4.05c-1.52,2.52-3.28,5.24-4.84,8.08-2.08,3.8-5.48,3.39-8.73,2.62s-4.93-3.53-5.36-6.77c-.68-5.15,2.23-9.27,4.31-13.56,2.5-5.13,6-9.87,7.84-15.19,3.67-10.5,11.23-13,20.67-12.29,2.29.18,4.56.8,6.84.82,5.57.05,8.28,3.64,10,8.12a12.23,12.23,0,0,1-2.6,13.18C703,821.8,699.6,824.62,696.12,827.85Zm-6.67-29.69c-6.63.88-11.42,3.52-14.14,9.62-.91,2.06-2.38,3.88-3.33,5.93-3.06,6.58-6.18,13.15-8.91,19.86-1.08,2.66-1.08,5.53,2.57,6.92s6,.08,7.07-3c2.84-8.5,8-9.32,13.95-1.42a15.13,15.13,0,0,0,2.81,3.1c1.78,1.32,3.65,3,5.69,3.34a6.71,6.71,0,0,0,5.17-2.07c1.45-1.64,1.59-3.92-.71-5.69-1.4-1.07-2.38-2.67-3.61-4-3.35-3.51-3.17-4.36.48-7.46a56.46,56.46,0,0,0,7.44-7.55c3.44-4.26,2-12.36-2.91-14.66C697.48,799.42,693.33,799.08,689.45,798.16Z"/><path d="M485.47,706.57c1.47-3.24,1.18-6.36-1.45-8.82s-5.52-1.4-8.28-.17c-3.13,1.41-4.88,3.57-6.36,7-4.3,10.09-9.6,19.75-14.58,29.55-4.17,8.21-7.44,16.58-6.12,26.08,1.08,7.76,5.12,10.89,12.8,9.06a39,39,0,0,0,21.63-13.09c1.63-2,2.47-4.72,3.26-7.25a4.33,4.33,0,0,0-2.63-5.69c-2.07-.81-4.25-1.13-6.18.59h0c-2,1.25-6.79,4.26-8.79,5.5-1.39-.87.2-6.35,1.36-8.93C475.16,729.12,480.35,717.86,485.47,706.57Zm-19,41.11a3.07,3.07,0,0,0,4.9,2.74c1.5-.93,6-5.14,7.15-5.5s5.61.36,5.85,1.25-.65,4.9-1.95,6.59c-5.43,7.08-13.29,9.89-21.72,11.76-6.26,1.38-8.69-.22-9.53-7.64-.83-7.25,1.87-13.71,4.94-20,3.46-7.15,6.81-14.36,10.48-21.41,2.63-5,5.57-9.93,8.64-14.7,1.5-2.33,3.65-3.44,6.51-1.37,3,2.19,3.51,3.65,1.17,8.62-4.85,10.3-10,20.45-14.73,30.81A22.51,22.51,0,0,0,466.49,747.68Z"/><path d="M733.33,728.24c-.4-1.85-3.15-4.54-3.55-4.91a45.87,45.87,0,0,0-8.2-2.82c-7.67-2.17-12.75-.51-17.38,6.06-2.79,4-5.7,7.95-7.73,12.31a70.79,70.79,0,0,0-5,15.11c-.95,4.58,2.43,9.2,6.32,9.55,6.11.56,12.25.91,18.38,1.1,4.64.14,5.71-.93,6-5,.36-5.07-1-7.06-5.34-7.61-3.22-.4-6.47-.61-9.7-.9-.1-.36-.06-.43.19-1.13a2.72,2.72,0,0,1,2.31-1.25c2.93-.2,5.89-.11,8.83-.14,5.51-.05,7-1.78,5-6.76-.83-2-2.4-3.11-4.35-4.5-.87-.61-3.18-.81-4.34-1a2.74,2.74,0,0,1,.53-1.11,3.57,3.57,0,0,1,2.83-.79c3.28.37,6.51,1.17,9.79,1.54,1.62.18,4.52.19,4.76-.47A13.85,13.85,0,0,0,733.33,728.24Zm-3.52-4.85,1.83,6.42c-1.18,3-3.94.63-6,.37-.25,0-.48-.24-.72-.25-4-.12-8.59-2.16-11.38,2.79-.55,1-1.49,2.38-1.29,2.95.71,2,2.11,2.1,3.41,2.74.81.41,2.3-.28,2.9.22,1.21,1,2.92,2.57,3,3.8s-2.33,2.1-3.61,2.27c-2.77.36-5.62,0-8.42.21-3.23.26-4.14,2.69-4.13,5.44,0,2.95,2.25,2.92,4.38,2.89a32.76,32.76,0,0,1,4.54,0c3.06.38,5.83,1.23,5.62,5.57-6.68,3.71-13.66,2.8-20.62.79-4.6-1.33-5.25-2.56-4.68-7.28,1.26-10.44,6.62-19,13.27-26.6,3.59-4.11,8.8-5.48,14.39-3.63,1.21.4,6.86,2,7.62,2.85S732.17,728.49,731.64,729.81Z"/><path d="M509.06,829.29c1.45,0,2.91-.09,4.36-.16,4.31-.2,6.38,1.81,5.61,6a45.46,45.46,0,0,1-2.39,7c-3,.54-5.45,1-7.89,1.42-3.27.56-6.53,1.28-9.83,1.57-4.61.41-7.18-2.2-6.92-6.92.17-2.91.16-6,1.18-8.67,3.47-9.05,7.21-18,11.14-26.86,2.2-5,7.23-5.81,11.87-6.6a85.47,85.47,0,0,1,13-1.2c4.55-.09,6.84,4.13,4.41,8a12.25,12.25,0,0,1-9.63,6.17c-3,.3-5.85,1.65-8.77,2.54-1.08.93-.41,1.15.31,1.54a26.63,26.63,0,0,0,4.2-.2c2.84-.57,3.71.92,3.9,3.33.36,4.83-3,8.85-7.9,9.79-2.33.44-4.61,1.19-6.92,1.8C507.43,828.72,508.55,829.15,509.06,829.29Zm3.73-15.53a4.17,4.17,0,0,1,1.91-4.65c2.07-1.5,4.72-2.27,7.19-3.18s5.09-1.1,7.13-2.42c1.26-.81,2.06-3.41,2-4.8s-2.39-1.9-3.78-2.07c-1.7-.21-3.5.59-5.27.66-10.18.46-16.24,4.86-19.64,14.38-.21.59-.55,1.13-.75,1.73-2.44,7.31-5,14.58-7.2,22-.75,2.53-.16,5.49,3.44,5.42,5.16-.11,10.44-.16,15.4-1.33,1.72-.4,3.74-4.09,3.71-6.26,0-3-3.2-1.6-5.23-1.86s-5.3.42-5.49-2.22c-.18-2.12,1.58-4.28,3.1-5.13,2.35-1.3,5.32-1.53,8.06-2.11s4.58-2.35,4-5C521.13,815.58,513.27,816.39,512.79,813.76Z"/><path d="M612.64,798.33c6.2,4.12,5.13,10.34,3.14,16.27-1.18,3.49-3,6.74-4.42,10.18-4,10.11-26.31,19-35.24,17.08-6.66-1.45-9.52-4.66-7.33-11,1.9-5.47,5.15-10.49,7.88-15.66,1.56-2.93,3.6-5.64,4.89-8.68,3.58-8.47,10.21-11.95,19.06-12.13C600.74,794,609.16,796,612.64,798.33Zm-12-1.62c-9.12-1-13.81,5.15-17.66,11.67a182.6,182.6,0,0,0-9.59,19.81c-2.12,4.84,0,8.87,5.13,10,1.71.39,3.68-.25,5.52-.52,14.26-2.08,24.33-9.39,28.46-23.54,2.43-8.37,2.55-14.51-7.43-17A29.43,29.43,0,0,0,600.65,796.71Z"/><path d="M528.68,724.18c.75,16.06-8.16,28-20.09,33.7-6.51,3.14-12.16,1.78-16-3.59-1.31-1.85-1.78-4.43-2.19-6.76-2.53-14.24,5.42-30.22,18.44-36.09C518.34,707.16,528.69,710,528.68,724.18Zm-1.63-.18c0-5.63-3.66-10.6-8.33-11.35a14.56,14.56,0,0,0-13.43,4.44,67.69,67.69,0,0,0-7.09,8.65c-5.19,7.18-6.1,14.53-3.72,22.65,1.31,4.46,4.07,7,8.53,6.8,3.07-.12,6.6-.81,9-2.51C521.93,745.82,527.08,736.19,527.05,724Z"/><path d="M646.55,730.21c-4.5,1.41-5.7,5.07-7.37,8.25-3.46,6.61-6.29,13.63-12.27,18.56-1.93,1.6-4.38,3.45-6.4,1.24-1.29-1.41-2-4.69-1.25-6.39,2.72-6.27,6.09-12.26,9.34-18.3,3.72-6.89,7.53-13.74,11.36-20.57,3.24-5.78,6.3-11.7,13.95-12.82,3.77-.55,4.64.29,5.45,4a36.33,36.33,0,0,1,.26,15.87c-.26,1.19.62,3.43,1.58,3.87,1.23.56,3.64.36,4.54-.52,3.8-3.74,7.29-7.81,10.77-11.86,4-4.7,8.62-8.7,14.82-10a7.08,7.08,0,0,1,5.57,1.28c.92.87.86,3.69.2,5.17-3.85,8.54-8,16.93-12,25.39-1.41,3-2.62,6-4,9-2.81,5.81-5.58,11.64-8.62,17.33-2.35,4.42-7.08,5.45-10.09,2.27-.82-.87-1.38-3-.9-3.91,2.87-5.75,6.11-11.33,9.18-17a33.44,33.44,0,0,0,2.78-5.87,4.23,4.23,0,0,0-.76-3.41c-.36-.44-2.34-.19-3,.4a55.65,55.65,0,0,0-6.79,6.68c-3.34,4-6.45,8.26-9.57,12.48-1.88,2.55-4,3.31-6.88,1.66s-2.55-4.05-1.8-6.63C646,741.27,648,736.25,646.55,730.21Z" fill="#fff"/><path d="M493.56,782.28c6.05-.76,11.25-1.25,16.4-2.12,2.64-.44,5.4.09,5.69,2.36.26,2-1.25,5-2.94,6.34-1.94,1.59-4.87,2.33-7.47,2.67-4.73.61-7.28,3.18-8.56,7.55q-5.6,19.09-11.35,38.17a26.07,26.07,0,0,1-3,6.59c-2.11,3.27-6.23,4.78-8.89,3.67-1.73-.73-3.33-6.15-2.36-9.06,1.31-3.94,3.09-7.73,4.39-11.67,2.42-7.34,4.84-14.69,6.9-22.14,1.45-5.23-.2-7.18-5.74-8-2.38-.33-4.76-.69-7.12-1.15s-3.57-2.15-3.85-4.6,1.11-3.91,3.28-4.42c5.3-1.27,10.61-2.49,16-3.45A84.36,84.36,0,0,1,493.56,782.28Z" fill="#fff"/><path d="M558.48,814.78c2.89-5.16,5.5-10.51,8.8-15.39a11.24,11.24,0,0,1,6.46-4.46c3.49-.66,5.3,2.11,3.71,5.37-2.32,4.77-5.22,9.26-7.75,13.94-2.34,4.32-4.56,8.71-6.77,13.1-1.19,2.38-2.11,4.9-3.36,7.25-1.13,2.11-3.06,4-5.44,3.12a11.89,11.89,0,0,1-5.52-4.58c-1.2-2-1.13-4.66-1.77-7a39.35,39.35,0,0,0-1.57-4l-1.37-.23c-1.23,2.64-2.43,5.3-3.68,7.94-2,4.18-4.33,8.19-9.28,9.19a5.41,5.41,0,0,1-4.52-1.53,5.26,5.26,0,0,1-.2-4.64c3.38-7,6.88-14,10.71-20.76a36.9,36.9,0,0,1,7.13-9.44c2.14-1.9,5.59-3.5,8.33-3.3,3.63.25,3.48,4.51,4.21,7.33a62.38,62.38,0,0,1,1.06,8.12Z" fill="#fff"/><path d="M689.45,798.16c3.88.92,8,1.26,11.57,2.91,4.92,2.3,6.35,10.4,2.91,14.66a56.46,56.46,0,0,1-7.44,7.55c-3.65,3.1-3.83,4-.48,7.46,1.23,1.29,2.21,2.89,3.61,4,2.3,1.77,2.16,4,.71,5.69a6.71,6.71,0,0,1-5.17,2.07c-2-.34-3.91-2-5.69-3.34a15.13,15.13,0,0,1-2.81-3.1c-5.94-7.9-11.11-7.08-13.95,1.42-1.05,3.13-3.56,4.38-7.07,3s-3.65-4.26-2.57-6.92c2.73-6.71,5.85-13.28,8.91-19.86.95-2.05,2.42-3.87,3.33-5.93C678,801.68,682.82,799,689.45,798.16Zm-2.82,20.25c4.72-.15,9.14-3.58,8.84-6-.35-2.9-2.4-4.13-5.11-4.2-3.27-.08-7.44,3.63-6.75,6.41C684,816.26,685.93,817.57,686.63,818.41Z" fill="#fff"/><path d="M600.65,796.71a29.43,29.43,0,0,1,4.43.46c10,2.49,9.86,8.63,7.43,17-4.13,14.15-14.2,21.46-28.46,23.54-1.84.27-3.81.91-5.52.52-5.12-1.17-7.25-5.2-5.13-10A182.6,182.6,0,0,1,583,808.38C586.84,801.86,591.53,795.74,600.65,796.71Zm-10.06,30.47c5.48-.8,11.89-6.91,12-14.65,0-4-3.1-5.87-6.8-4.17-3.44,1.58-9.65,11.82-9,15.72C587.21,826.45,588.18,827.54,590.59,827.18Z" fill="#fff"/><path d="M527.05,724c0,12.19-5.12,21.82-15,28.68-2.45,1.7-6,2.39-9,2.51-4.46.18-7.22-2.34-8.53-6.8-2.38-8.12-1.47-15.47,3.72-22.65a67.69,67.69,0,0,1,7.09-8.65,14.56,14.56,0,0,1,13.43-4.44C523.39,713.4,527.06,718.37,527.05,724Zm-9.57,2.74c-.36-.65-1.1-2.8-1.58-2.74-1.8.21-4.15.64-5.14,1.9-2.64,3.36-4.66,7.2-7,10.82a3.44,3.44,0,0,0,1.29,5.25,6.61,6.61,0,0,0,5.45.11C516,738.86,516.73,733.15,517.48,726.74Z" fill="#fff"/><path d="M686.63,818.41c-.7-.84-2.61-2.15-3-3.82-.69-2.78,3.48-6.49,6.75-6.41,2.71.07,4.76,1.3,5.11,4.2C695.77,814.83,691.35,818.26,686.63,818.41ZM685,813.82c1.63,4.59,5.35,1.54,6.08-.59s-.75-2-1.37-2.18C686.5,810.09,686.2,811.88,685,813.82Z"/><path d="M590.59,827.18c-2.41.36-3.38-.73-3.79-3.1-.68-3.9,5.53-14.14,9-15.72,3.7-1.7,6.84.19,6.8,4.17C602.48,820.27,596.07,826.38,590.59,827.18Zm-1.8-2c5.61-2.43,8.91-5.88,10.36-11,.23-.8-.09-2.43-.58-2.63-.89-.35-2.66-.33-3.08.25C592.69,815.65,589.27,819.22,588.79,825.17Z"/><path d="M517.48,726.74c-.75,6.41-1.49,12.12-7,15.34a6.61,6.61,0,0,1-5.45-.11,3.44,3.44,0,0,1-1.29-5.25c2.31-3.62,3.6-7.36,6.24-10.72,1-1.25,4.07-1.79,5.87-2C516.38,723.94,517.12,726.09,517.48,726.74Zm-3.88,0c-4.69,2.69-6.27,6.95-7.49,11.38a2.4,2.4,0,0,0,.79,2.17,3.1,3.1,0,0,0,2.4-.54C512.66,737.45,514.72,731.42,513.6,726.73Z"/></svg>