<svg xmlns="http://www.w3.org/2000/svg" xmlns:xlink="http://www.w3.org/1999/xlink" width="1250" height="1550" viewBox="0 0 1250 1550"><defs><clipPath id="a"><path d="M404.44-335.48s61.79,24.3,203.69,19.79S801-351.87,801-351.87L821.08-9.63l-158.7-1.85-28.9-196.61L608-199.41,599.12-3.17,445.18-3.39Z" fill="none"/></clipPath><clipPath id="b"><path d="M486.17,533c-9.83,30.14,17.49,87.22,17.49,87.22l71.16-63.4,70.95,63.4s32.06-53.07,17.43-88.54c49.1,18.66,103.39,37.24,135.76,52.77-12.46,33-20.82,159.94-31.45,188.95s8.32,314.13,8.32,314.13l-367.69-51s3.7-259,1.93-272.3-4.3-15-24.85-50.88S299,660.9,344.28,620.55C399.66,586.72,486.17,533,486.17,533Z" fill="none"/></clipPath></defs><title>s02e08-01</title><g clip-path="url(#a)"><path d="M756.75,69.86s11.84-92.76,17.74-93.12S761.7,37.34,756.75,69.86Z" fill="#3f3e39"/><path d="M493.32,2h17.2c1.55-24.65-3.84-68.67-21.91-47.89-2.35,4.73-1.54,10.35-.67,15.56Q490.63-14.19,493.32,2Z" fill="#3f3e39"/><path d="M534.08,2l4.2-28.84c.76-5.23,1.46-10.86-1-15.54C519.76-61.77,514.8-23.07,516.09,2Z" fill="#3f3e39"/><path d="M487.19,66s-7.09-93.24-13-93.9S483.91,33.27,487.19,66Z" fill="#3f3e39"/><path d="M548.07-8.24a45.07,45.07,0,0,0-3.5,17.64,2.28,2.28,0,0,0,1.63,2.16,2.36,2.36,0,0,0,2.53-1,31.66,31.66,0,0,0,6.12-17.6c.09-2.08-2.43-2.76-3.81-1.58a4.88,4.88,0,0,0-1.45,4.86,2.26,2.26,0,0,0,2.74,1.56A2.26,2.26,0,0,0,553.89-5c.05.22,0,.06,0-.09,0,.35,0-.22,0,0s.14-.26,0-.11.28-.26.3-.28l-3.81-1.57a27.64,27.64,0,0,1-5.52,15.35L549,9.4A41.72,41.72,0,0,1,552.38-7a2.26,2.26,0,0,0-1.56-2.75,2.3,2.3,0,0,0-2.75,1.56Z" fill="#3f3e39"/></g><polygon points="818.35 1536.17 746.63 1536.17 741.27 1483.56 815.47 1483.56 818.35 1536.17" fill="#fff"/><polygon points="822.02 1596.18 706.1 1596.18 700.74 1543.57 819.13 1543.57 822.02 1596.18" fill="#fff"/><polygon points="480.22 1332.64 414.48 1332.64 406.14 1274.94 471.18 1274.94 480.22 1332.64" fill="#fff"/><path d="M445.18,1596.61l-40.74-332.09s61.79,24.3,203.69,19.79S801,1248.13,801,1248.13l20.1,342.24" fill="none" stroke="#262521" stroke-linecap="round" stroke-linejoin="round" stroke-width="3"/><path d="M408,1042.08s1.13-37,2.7-48.55L317.25,995c.5,7.41-.46,7.69,0,14.66C405.89,1014.37,394.49,1030.79,408,1042.08Z" fill="#262521" stroke="#262521" stroke-linecap="round" stroke-linejoin="round" stroke-width="3"/><path d="M769.61,979.37c.92,3.56,13,53,13,53,.9-1.68-10.51-43.1,80.29-62.69-.18-2.63.91-9.36.73-12.09Z" fill="#262521" stroke="#262521" stroke-linecap="round" stroke-linejoin="round" stroke-width="3"/><path d="M854.35,918.39s-14.59-306.95-52.89-331.94l-.27-.17h.14l-.82-.38c-13.14-7.25-101.08-40.52-131.22-51.85l-6.09-2.36a161.44,161.44,0,0,0-20.21-25S632.78,533,600.67,547.52l-25.48,7.62-17.72-5c-32.19-14.07-52.29-43.49-52.29-43.49a150.21,150.21,0,0,0-19,26.31c-7,4.42-25.42,15.91-46.74,29.19-29.82,18.43-66.44,41-90.57,55.6-2.38,1.37-4.12,2.34-5.06,2.8l.48,0-.35.21C299.2,647.71,317.25,945,317.25,945l463.47,95.08L767,944.84Z" fill="#fff"/><path d="M854.35,918.39s-14.59-306.95-52.89-331.94l-.27-.17h.14l-.82-.38c-13.14-7.25-101.08-40.52-131.22-51.85l-6.09-2.36a161.44,161.44,0,0,0-20.21-25S632.78,533,600.67,547.52l-25.48,7.62-17.72-5c-32.19-14.07-52.29-43.49-52.29-43.49a150.21,150.21,0,0,0-19,26.31c-7,4.42-25.42,15.91-46.74,29.19-29.82,18.43-66.44,41-90.57,55.6-2.38,1.37-4.12,2.34-5.06,2.8l.48,0-.35.21C299.2,647.71,317.25,945,317.25,945l463.47,95.08s-18.38-70.67-4.7-95.28C796.51,908,854.35,918.39,854.35,918.39Z" fill="none" stroke="#262521" stroke-linecap="round" stroke-linejoin="round" stroke-width="3"/><path d="M425.34,949c.27,3.93.75,54.27-2.84,54.32-8.93.11-88.63,2-108.49-10.62-2-1.27-1.14-52.15-.15-54.85S424.56,937.61,425.34,949Z" fill="#fff" stroke="#262521" stroke-linecap="round" stroke-linejoin="round" stroke-width="3"/><path d="M762.91,927.9c-.11,3.93,3.87,52.72,7.44,52.38s93.7-15.8,96.06-15.74-8.1-52.11-9.21-54.77S763.22,916.52,762.91,927.9Z" fill="#fff" stroke="#262521" stroke-linecap="round" stroke-linejoin="round" stroke-width="3"/><path d="M410.65,784.81s.94,248-4.76,282.76-9.11,69.92-2.95,213.79c.34,7.77,74.46,54.62,173.46,51.28,4.61-.16,11.23-50.23,11.23-50.23s15.57,50.43,18.34,50.23c131.6-9.58,206.31-47.78,206.31-47.78s-15.89-187.26-40.2-295.6c-11.86-52.84-4.57-215.86-4.57-215.86" fill="#fff"/><g clip-path="url(#b)"><rect x="640.39" y="705.98" width="193.6" height="31.38" transform="translate(-75.01 1357.74) rotate(-82.46)" fill="#262521"/><path d="M721.8,813.48c4.38-7.83,12.77-10.79,20.83-13.4L756.5,695.36c-3.44-2.89-5.15-17.85-5.83-13.34-1,6.87-11.37,8.06-13.94,8.73-4.51,2-6.36,8.76-12.25,7.4L708.93,815.58l11.15,1.47A30.79,30.79,0,0,1,721.8,813.48Z" fill="#545350"/><path d="M733.08,755c-.3.08-.61.14-.92.21-.53,2.16.08,21.63-4.37,14.22l.59-13.45-.84.15c-.87,2-3.83,22.57-6.62,13.67a97.37,97.37,0,0,0,1.85-13.16,30.19,30.19,0,0,1-6-.25l-6,45.32c5-7.71,13-13.17,22.5-11.3.15-26.57,8-22.84,5,1.22a33.23,33.23,0,0,1,5.21,2.34l5.63-42.53C743.72,752.14,738.46,753.69,733.08,755Z" fill="#cccbca"/><rect x="610.47" y="556.41" width="33.34" height="166.88" transform="matrix(0.94, -0.33, 0.33, 0.94, -175.15, 241.05)" fill="#262521"/><rect x="621.1" y="550.79" width="94.83" height="33.51" transform="translate(-175.6 805.22) rotate(-56.06)" fill="#262521"/><rect x="605.01" y="673.15" width="94.83" height="33.51" transform="translate(-248.92 988.56) rotate(-64.93)" fill="#545350"/><path d="M665.21,700.85c-.15.7-.27,1.4-.39,2.1l22.87-48.9-6.92-3.24C680.72,668.89,669.36,683.84,665.21,700.85Z" fill="#8e8c86"/><rect x="501.66" y="736.21" width="94.83" height="33.51" transform="translate(-382.17 788.02) rotate(-56.06)" fill="#262521"/><path d="M525.42,758.1,508.7,783l27.8,18.71,6.55-9.73C537.62,780.42,531.88,769,525.42,758.1Z" fill="#545350"/><rect x="349.73" y="873.13" width="163.55" height="33.51" transform="translate(-536.47 1092.68) rotate(-75.96)" fill="#262521"/><path d="M431.68,957.31c-9.49,7.48-12.11,1.81-9.73-8-8.47,13.89-6.55-5.37-8-11.05-5.15,10.29-9.71,12.08-11.59-.95l-6.95,27.82,32.51,8.13,3.95-15.82C431.82,957.41,431.76,957.33,431.68,957.31Z" fill="#545350"/><rect x="519.69" y="866.09" width="94.83" height="33.51" transform="translate(-414.55 512.19) rotate(-36.6)" fill="#cccbca"/><path d="M594.58,883.31,615.16,868l-20-26.91-15,11.16C582.81,863.29,588.45,873.66,594.58,883.31Z" fill="#8e8c86"/><path d="M561,866.47l-42,31.19,20,26.91,23.88-17.73C561.82,893.41,561.23,880,561,866.47Z" fill="#8e8c86"/><rect x="383.84" y="552.1" width="33.51" height="94.83" transform="matrix(0.56, -0.83, 0.83, 0.56, -320.44, 597.07)" fill="#545350"/><path d="M379.86,585.25c-2.63-11-13.4-18.09-23-22.9L343.7,581.87l36.18,24.36C376.58,600.12,380.71,591.82,379.86,585.25Z" fill="#8e8c86"/><path d="M412.91,621.17c-5.15-2.57-10.65-2.89-16.2-4.07l33.86,22.79,3-4.41C427.06,630.12,420.51,624.8,412.91,621.17Z" fill="#8e8c86"/><rect x="366.24" y="608.94" width="33.51" height="123.57" transform="translate(-284.05 281.36) rotate(-30)" fill="#8e8c86"/><path d="M348.77,644.94c6.13,8.74,15.69,32.9,26.28,36.9,11-.87-5.5-23.46,22.71-19.07l-31.14-53.93-28,16.19C342.21,631.52,345.38,638.32,348.77,644.94Z" fill="#cccbca"/><path d="M385.73,652.44c9.54,23.69,21.86,46.07,32.84,69.09l6.51-3.76c-6.33-13.36-16.82-24.32-21.13-38.66-7.18-16.7-19.66-30.16-27.38-46.65C379.59,639.13,382.8,645.72,385.73,652.44Z" fill="#262521"/><path d="M404.91,700.91c-15.38-29-27.35-61.36-42-89.77l-.07-.12-1,.61c10.08,18.26,17.48,37.76,24.79,57.25,9.48,18.24,18.61,36.67,28,55l1.25-.73C412.33,715.64,408.64,708.27,404.91,700.91Z" fill="#262521"/><path d="M387.72,709.88c-7.1-16-13.8-32.15-24.79-45.94-9.42-12.27-14.77-26.76-21.93-40.31l-3.4,2,61.78,107,.72-.42A175.74,175.74,0,0,1,387.72,709.88Z" fill="#262521"/><rect x="412.79" y="715.86" width="25.46" height="73.95" transform="translate(-250.46 213.5) rotate(-21.94)" fill="#262521"/><rect x="698.94" y="551.37" width="107.6" height="33.51" transform="translate(-138.89 875.35) rotate(-56.06)" fill="#262521"/><path d="M722.81,597.18c9.84-21.31,30.21-38.48,32.51-62.9L708.8,603.4l12.07,8.13A26.19,26.19,0,0,1,722.81,597.18Z" fill="#545350"/><rect x="718.58" y="580.8" width="31.38" height="112.25" transform="translate(-218.17 831.06) rotate(-52.46)" fill="#5e5e5b"/><path d="M702.93,598.06c4.18,10.4,54.34,36.8,46.74,40-15.07-1-26.87-14.24-39.07-22.05,6.72,8.16,18.36,11.87,23.43,21.29a1.62,1.62,0,0,1-1.37,2.39c-11.79.23-18.49-11.77-28.09-16.59,11.17,12.59,26.57,21.06,41.1,29.15-13-14.27-2.6-15.16,8.4-5.65,0-2.26-2.47-5.86.13-7.11,4.77-1,8.93-.21,11.94,3.83a98.4,98.4,0,0,0,10,14.6c.54,6.19-10.83-.73-13.48-1.84,4.36,6.21,12.58,7.73,18,12.48l.68-.89c-4.09-8-6.54-16.68-12.33-23.8l-69.76-53.6-1.78,2.32A40.64,40.64,0,0,1,702.93,598.06Z" fill="#8e8c86"/><rect x="766.12" y="751.48" width="31.38" height="112.25" transform="translate(-334.93 935.45) rotate(-52.46)" fill="#262521"/><path d="M738.63,792.54c6.61,1.86,11.75,7.93,18.24,9.88-6.66-7.82-16-13.14-22.14-21.48-.22-7.47,10.6,4.75,13.39,4.89-6.78-10.35-6.33-16.34,5.49-7-2.28-2-9.7-14.95-3.2-14.37,3.55,2.62,6.85,5.4,10.75,7.53l-14.29-11-19.12,24.88,9.31,7.16A1.65,1.65,0,0,1,738.63,792.54Z" fill="#545350"/><rect x="532.98" y="528.17" width="33.51" height="94.83" transform="translate(-234.78 441.25) rotate(-36.6)" fill="#262521"/><path d="M566.08,596a22.1,22.1,0,0,0-2.37,6.52c4.75-6.47,7.72-14.64,10.37-22.2l-3.71-5A32.47,32.47,0,0,1,566.08,596Z" fill="#cccbca"/><rect x="529.61" y="618.99" width="33.51" height="208.12" transform="translate(-323.36 468.32) rotate(-36.6)" fill="#262521"/><path d="M512.71,704.83c8.35,3.86,6.49-10.45,6.57-15.2-1.4-7.76.09-17.25,9.49-18.38l-31-41.73-26.9,20C472,650.1,510.9,705.21,512.71,704.83Z" fill="#545350"/><rect x="643.03" y="874.62" width="94.83" height="33.51" transform="translate(-341.77 1345.02) rotate(-75.96)" fill="#545350"/><path d="M702.31,845.46l-16.61-4.15L675,884C685.6,872.09,698.49,860.52,702.31,845.46Z" fill="#8e8c86"/><rect x="727.86" y="907.6" width="33.51" height="94.83" transform="translate(-302.89 347.36) rotate(-21.94)" fill="#262521"/><rect x="456.49" y="575.42" width="157.77" height="33.51" transform="translate(-262.83 605.29) rotate(-48.83)" fill="#8e8c86"/><path d="M509.34,634.45a63.7,63.7,0,0,0,3.42-6.15c-.23-4,4.94-5,4.19-10.37-9,5.85-18.34,8.77-23.1,18.93-1.2,2.68-9.4,13.12-11.22,7.17,1.95-6.35,6.95-11.23,11.07-16.27,4.61-9.26,10.06-18.26,13-28.24l-35.86,41,15.77,13.79C493.7,647,502,641.39,509.34,634.45Z" fill="#262521"/><path d="M583.55,529.51c-10.08,24.08-25,45.69-39.9,67-14.72,23.22-33.49,42.54-54.68,59.87l7.09,6.2L599.93,543.83Z" fill="#262521"/><rect x="526.81" y="546.24" width="94.83" height="33.51" transform="translate(-68.58 79.78) rotate(-7.5)" fill="#cccbca"/><rect x="395.71" y="620.9" width="94.83" height="33.51" transform="translate(-322.22 768.88) rotate(-64.93)" fill="#262521"/><path d="M468.11,612.06c-8.53,2-6.61,14.19-4,20.4l9.15-19.57A12.85,12.85,0,0,0,468.11,612.06Z" fill="#545350"/><rect x="424.61" y="665.6" width="33.51" height="99.65" transform="translate(-359.74 970.1) rotate(-75.96)" fill="#cccbca"/><path d="M473.9,719.24c5.72,1.23,11.74,1.07,17.64,1l2.23-8.94L397.1,687.08l-1.77,7.1c14.6,2.52,29.28,6.84,42.45,13.79C448.36,712.79,462.45,715.34,473.9,719.24Z" fill="#8e8c86"/><path d="M429.19,715.55c-13.86.56-23.2-11.28-35.38-15.3l-1.16,4.64c7.53,7.09,17.62,11.86,22.66,21.29l13.3,3.33C432.33,723.3,444.89,713.78,429.19,715.55Z" fill="#8e8c86"/><path d="M428.61,716.6c-8,.91-15.54-1.69-22.52-5.41-4.32-2.19-8-7.22-13.18-7.36l-.24,1c8.14,8.14,21.79,11.13,26.39,22.31l3,.74c2.34-3.82,5.62-7.05,7.2-11.31Z" fill="#262521"/><path d="M483.46,721a63.38,63.38,0,0,0-18.39,2c-6,1.56-18.22-.74-23.78,1.87-2.54,1.19,1.76,7-.91,7.59l45.26,11.32,5.5-22A56.53,56.53,0,0,0,483.46,721Z" fill="#8e8c86"/><rect x="343.57" y="563.25" width="144.03" height="33.51" transform="translate(-288.88 466.62) rotate(-45.23)" fill="#262521"/><path d="M360.81,627.12c7.62-3.59,10.06-14.33,5.43-21.16L353,619.34Z" fill="#545350"/><path d="M439.72,699.4C457.2,705.32,473,718.69,492,718.55l1.82-7.3-64.18-16C433,696.52,436.37,698,439.72,699.4Z" fill="#262521"/><path d="M446,715.54c-18.25-2-33.86-14.46-52.14-15.39l-.14.59c6.81.65,12.83,5.14,19.19,7.42,33.26,11.39,34.05.38,16.32,21.5l1.44.35c3.53-7.53,12.2-10,19-13.86A30,30,0,0,0,446,715.54Z" fill="#262521"/><path d="M484.48,729.35c-1.54-.22-3.9-1.11-5.77-1,4.19,8.11-13.51-2.47-16.32-2.41,1.66,2.65,25.29,11.17,16.54,13.27-9.62-1.89-20.81-9.55-30.42-4.71l37.13,9.29,3.43-13.7C487.56,729.72,486,729.56,484.48,729.35Z" fill="#262521"/><path d="M542.49,573.11c12.75.21,25.54-1.92,38.35-1.37,8.41-1.41,16.52-4.57,25.13-5" fill="#545350"/><path d="M544.07,579.56c7.6-.74,15.5,1.2,22.81-1,11.13-5.61,23.61-5.77,35.78-7.19" fill="#8e8c86"/><rect x="742.63" y="535.96" width="33.51" height="94.83" transform="translate(-190.09 707.84) rotate(-45)" fill="#262521"/><path d="M782.39,582.68c-13.82,1.68-13.71,13.54-5.85,22.35,6,5.78,6.79,14,1.23,20.43l3.3,3.3,23.7-23.7Z" fill="#5e5e5b"/><path d="M547.1,888c-10.21,5.27-.85-7.38.08-11.19L519,897.66l4.54,6.1c7.45-5.87,16.87-8.58,24-14.89A1.51,1.51,0,0,1,547.1,888Z" fill="#262521"/><path d="M582.52,856.1c-4.41,2-8.84,4.61-13.62,4.54l-10.21,7.58c1.36,2.07,0,4.92-1.07,6.88,1.13-.62,2.7-.17,2.78,1.18a408,408,0,0,1,37.71-25.66A78.4,78.4,0,0,0,582.52,856.1Z" fill="#262521"/><path d="M536.19,901.76c1.16-1.18,2.21-2.46,3.25-3.74-4.64,2.66-9.7,4.85-14,8.25L528.2,910C530.43,906.9,533.51,904.47,536.19,901.76Z" fill="#262521"/><path d="M580.54,869.48c7.8-5.43,14.8-12.46,23.47-16.47l-.86-1.16a255.78,255.78,0,0,0-42.7,28.63C567,876.67,574.26,873.86,580.54,869.48Z" fill="#262521"/><path d="M551.45,895.28c14.36-9.51,30.33-17.24,43.34-28.53a35.42,35.42,0,0,1,12.61-9.18l-1.47-2c-8.86,3.85-15.94,11.16-23.79,16.63-9.54,6.66-21.45,9.57-29.58,18.23a1.44,1.44,0,0,1-2.15,0c-.63.55-1.27,1.09-1.93,1.6a1.48,1.48,0,0,1-.56,2c-4,2.39-6.28,6.67-9.49,9.91C542.73,901,547,898,551.45,895.28Z" fill="#262521"/><path d="M559.47,903c5.62-4.18,10.49-9.49,16.21-13.5-12.57,2.46-21.35,12.47-30.18,21C550.25,908.16,555.19,906.22,559.47,903Z" fill="#262521"/><path d="M539.91,917.15c-1.47.88-2.93,1.79-4.33,2.78l3.44,4.64,9.81-7.29C545.86,917.32,542.87,917.21,539.91,917.15Z" fill="#262521"/><path d="M553.32,914l37.37-27.75c-1.54.46-3.11.84-4.68,1.19-14.84,6.85-24.63,21.3-40.61,26.73A72,72,0,0,0,553.32,914Z" fill="#262521"/></g><line x1="558.71" y1="571.16" x2="587.33" y2="1277.94" fill="none" stroke="#636363" stroke-linecap="round" stroke-linejoin="round"/><path d="M525.81,604.68c11.49,16.61,27.48,29.26,49.55,29.26s37.63-12.57,48.78-29.11" fill="none" stroke="#262521" stroke-linecap="round" stroke-linejoin="round" stroke-width="8.27" stroke-dasharray="1.65 4.96"/><path d="M574,634.08a1.66,1.66,0,0,1,0-3.31c.53,0,1.06,0,1.6,0a1.67,1.67,0,0,1,1.73,1.57,1.66,1.66,0,0,1-1.58,1.73c-.58,0-1.15,0-1.71.05Zm-5-.2h-.15l-1.7-.19a1.65,1.65,0,0,1-1.43-1.85,1.63,1.63,0,0,1,1.85-1.43c.52.07,1,.12,1.58.17a1.65,1.65,0,0,1-.15,3.3Zm11.54-.3a1.65,1.65,0,0,1-.22-3.29c.53-.07,1.06-.15,1.58-.24a1.66,1.66,0,0,1,.54,3.27l-1.68.25Zm-18-.77a1.74,1.74,0,0,1-.39,0c-.55-.13-1.11-.28-1.65-.43a1.65,1.65,0,1,1,.89-3.18l1.54.4a1.65,1.65,0,0,1-.39,3.26Zm24.51-.48a1.66,1.66,0,0,1-.41-3.26c.52-.13,1-.27,1.55-.42a1.65,1.65,0,1,1,.91,3.18c-.54.16-1.09.3-1.64.45A1.92,1.92,0,0,1,587.06,632.33Zm-30.79-1.52a1.66,1.66,0,0,1-.61-.12l-1.58-.67a1.65,1.65,0,1,1,1.34-3c.49.21,1,.42,1.47.62a1.65,1.65,0,0,1,.92,2.15A1.67,1.67,0,0,1,556.27,630.81Zm37.07-.49a1.66,1.66,0,0,1-.6-3.2l1.49-.6a1.65,1.65,0,0,1,1.29,3c-.52.22-1,.44-1.58.64A1.61,1.61,0,0,1,593.34,630.32Zm-43-2.37a1.63,1.63,0,0,1-.82-.22l-1.46-.86a1.66,1.66,0,0,1,1.72-2.83c.45.28.91.55,1.37.81a1.66,1.66,0,0,1,.63,2.26A1.68,1.68,0,0,1,550.35,628Zm-19.48-17.62a1.68,1.68,0,0,1-1.31-.65l-1-1.34a1.66,1.66,0,1,1,2.66-2l1,1.29a1.65,1.65,0,0,1-.3,2.32A1.67,1.67,0,0,1,530.87,610.33ZM527,605a1.66,1.66,0,0,1-1.37-.73l-.93-1.41a1.66,1.66,0,0,1,2.78-1.8l.9,1.36a1.67,1.67,0,0,1-.46,2.3A1.63,1.63,0,0,1,527,605Z" fill="#b7b6b0"/><path d="M575.59,636.64h0c-.58,0-1.15,0-1.71,0a1.65,1.65,0,1,1,.13-3.3l1.61,0a1.66,1.66,0,0,1,0,3.31Zm4.95-.17a1.65,1.65,0,0,1-.13-3.3L582,633a1.66,1.66,0,1,1,.37,3.29c-.56.06-1.13.12-1.7.16Zm-11.54-.3h-.22c-.57-.08-1.13-.16-1.69-.26a1.65,1.65,0,1,1,.54-3.26c.53.09,1,.17,1.59.24a1.65,1.65,0,0,1-.22,3.29Zm18.07-.64a1.65,1.65,0,0,1-.33-3.27l1.55-.35a1.65,1.65,0,0,1,.79,3.21l-1.67.38A2,2,0,0,1,587.07,635.53Zm-24.55-.64a1.65,1.65,0,0,1-.43-.06c-.54-.15-1.09-.3-1.63-.47a1.65,1.65,0,1,1,.95-3.16c.51.15,1,.3,1.54.43a1.66,1.66,0,0,1-.43,3.26Zm30.91-1.13a1.65,1.65,0,0,1-.54-3.21c.5-.18,1-.36,1.5-.56a1.66,1.66,0,0,1,1.19,3.09l-1.6.59A1.76,1.76,0,0,1,593.43,633.76Zm-37.17-1a1.67,1.67,0,0,1-.62-.12l-1.57-.67a1.65,1.65,0,1,1,1.35-3l1.47.63a1.65,1.65,0,0,1-.63,3.18Zm43.26-1.59a1.66,1.66,0,0,1-.75-3.14c.48-.24,1-.48,1.42-.74a1.67,1.67,0,0,1,2.25.67,1.65,1.65,0,0,1-.67,2.24c-.5.27-1,.54-1.52.79A1.61,1.61,0,0,1,599.52,631.19Zm-49.21-1.27a1.72,1.72,0,0,1-.81-.21c-.49-.28-1-.56-1.46-.85a1.65,1.65,0,1,1,1.69-2.84c.46.27.92.54,1.39.8a1.65,1.65,0,0,1,.64,2.25A1.68,1.68,0,0,1,550.31,629.92Zm-5.58-3.54a1.64,1.64,0,0,1-1-.31c-.46-.33-.92-.66-1.37-1a1.66,1.66,0,1,1,2-2.65c.43.33.87.65,1.3,1a1.65,1.65,0,0,1-1,3Zm79.19-17a1.65,1.65,0,0,1-1.33-2.62l.94-1.33a1.65,1.65,0,0,1,2.71,1.89l-1,1.37A1.66,1.66,0,0,1,623.92,609.33Zm-97.59-1.84a1.65,1.65,0,0,1-1.34-.69c-.33-.45-.65-.91-1-1.37a1.65,1.65,0,1,1,2.71-1.89c.31.45.62.89.94,1.33a1.65,1.65,0,0,1-1.34,2.62Z" fill="#7f7e78"/><path d="M599.34,627.56a1.65,1.65,0,0,1-.78-3.11c.48-.25.94-.51,1.41-.78a1.65,1.65,0,1,1,1.64,2.87c-.49.29-1,.56-1.5.83A1.62,1.62,0,0,1,599.34,627.56Zm-54.51-3.22a1.66,1.66,0,0,1-1-.33l-1.35-1a1.66,1.66,0,1,1,2-2.6c.42.33.84.66,1.27,1a1.65,1.65,0,0,1-1,3Zm60.16-.21a1.65,1.65,0,0,1-.93-3c.44-.3.87-.61,1.31-.93a1.65,1.65,0,0,1,1.94,2.68c-.45.33-.92.66-1.38,1A1.7,1.7,0,0,1,605,624.13Zm-65.24-4a1.67,1.67,0,0,1-1.13-.44l-1.23-1.17a1.65,1.65,0,0,1,2.3-2.37l1.18,1.11a1.66,1.66,0,0,1-1.12,2.87Zm70.47,0a1.63,1.63,0,0,1-1.25-.57,1.66,1.66,0,0,1,.18-2.34c.41-.34.81-.7,1.21-1.05a1.65,1.65,0,0,1,2.21,2.46l-1.27,1.11A1.67,1.67,0,0,1,610.22,620.1Zm4.81-4.51a1.6,1.6,0,0,1-1.15-.47,1.66,1.66,0,0,1,0-2.34c.38-.38.75-.77,1.12-1.16a1.65,1.65,0,0,1,2.42,2.24c-.38.42-.77.83-1.16,1.23A1.64,1.64,0,0,1,615,615.59Zm-79.93-.18a1.64,1.64,0,0,1-1.23-.55l-1.11-1.26a1.66,1.66,0,0,1,2.5-2.17c.35.41.71.82,1.07,1.22a1.66,1.66,0,0,1-1.23,2.76Zm84.33-4.75a1.66,1.66,0,0,1-1.28-2.71c.35-.41.68-.83,1-1.26a1.65,1.65,0,0,1,2.59,2l-1,1.31A1.65,1.65,0,0,1,619.43,610.66Zm4-5.26a1.6,1.6,0,0,1-.95-.3,1.66,1.66,0,0,1-.4-2.3c.32-.44.62-.89.93-1.34a1.65,1.65,0,0,1,2.73,1.86c-.31.47-.63.93-1,1.38A1.66,1.66,0,0,1,623.42,605.4Z" fill="#f4f4f4"/><path d="M605.23,627.87a1.65,1.65,0,0,1-.91-3l1.32-.9a1.65,1.65,0,1,1,1.91,2.7c-.47.33-.93.65-1.41,1A1.67,1.67,0,0,1,605.23,627.87Zm5.3-3.94a1.64,1.64,0,0,1-1.27-.6,1.66,1.66,0,0,1,.21-2.33c.42-.34.82-.69,1.23-1a1.65,1.65,0,0,1,2.18,2.48c-.42.38-.86.75-1.29,1.11A1.7,1.7,0,0,1,610.53,623.93Zm-71-1.66a1.66,1.66,0,0,1-1.09-.41c-.43-.37-.85-.75-1.27-1.13a1.66,1.66,0,1,1,2.24-2.44l1.2,1.08a1.65,1.65,0,0,1-1.08,2.9Zm75.86-2.81a1.68,1.68,0,0,1-1.17-.48,1.66,1.66,0,0,1,0-2.34c.38-.38.76-.77,1.13-1.16a1.65,1.65,0,0,1,2.4,2.27c-.39.41-.78.82-1.18,1.22A1.67,1.67,0,0,1,615.41,619.46Zm-80.65-1.77a1.64,1.64,0,0,1-1.19-.51c-.39-.4-.78-.81-1.16-1.23a1.65,1.65,0,0,1,2.43-2.24l1.11,1.18a1.65,1.65,0,0,1,0,2.34A1.67,1.67,0,0,1,534.76,617.69Zm85.11-3.13a1.62,1.62,0,0,1-1.06-.39,1.64,1.64,0,0,1-.21-2.33l1-1.25a1.65,1.65,0,0,1,2.58,2.07c-.36.44-.71.88-1.08,1.31A1.63,1.63,0,0,1,619.87,614.56Zm-89.5-1.82a1.64,1.64,0,0,1-1.28-.6c-.36-.43-.71-.87-1.06-1.31a1.65,1.65,0,0,1,2.59-2.06l1,1.27a1.65,1.65,0,0,1-.22,2.32A1.62,1.62,0,0,1,530.37,612.74Z" fill="#f4f4f4"/><path d="M410.65,784.81s.94,248-4.76,282.76-9.11,69.92-2.95,213.79c.34,7.77,74.46,54.62,173.46,51.28,4.61-.16,11.23-50.23,11.23-50.23s15.57,50.43,18.34,50.23c131.6-9.58,206.31-47.78,206.31-47.78s-15.89-187.26-40.2-295.6c-11.86-52.84-4.57-215.86-4.57-215.86" fill="none" stroke="#262521" stroke-linecap="round" stroke-linejoin="round" stroke-width="3"/><path d="M572.63,558.32l-69,61.9s-27.26-64-18.66-80.69" fill="none" stroke="#262521" stroke-linecap="round" stroke-linejoin="round" stroke-width="3"/><path d="M575.82,558.32l69.95,61.9s34.64-60.35,19.12-84.27" fill="none" stroke="#262521" stroke-linecap="round" stroke-linejoin="round" stroke-width="3"/><circle cx="572.24" cy="603.55" r="4.45" fill="#cccbca"/><circle cx="575.82" cy="723.08" r="4.45" fill="#cccbca"/><circle cx="581.27" cy="841.87" r="4.45" fill="#cccbca"/><circle cx="587.33" cy="957.58" r="4.45" fill="#cccbca"/><circle cx="591.77" cy="1083.08" r="4.45" fill="#cccbca"/><circle cx="596.22" cy="1200.71" r="4.45" fill="#cccbca"/></svg>