<svg xmlns="http://www.w3.org/2000/svg" xmlns:xlink="http://www.w3.org/1999/xlink" width="1250" height="1550" viewBox="0 0 1250 1550"><defs><clipPath id="a"><path d="M523.3,569.62c-25.23-24-32.67-40-33.6-39.67-45.26,28.19-91.11,57.18-145.77,90.81,23.39,37.45,66.15,129.88,66.72,186.85,1.44,23.36-.72,160.4.39,157.95-.39,28,1.85,90.31,1.85,90.31S401.51,1113,400,1123.39c-.89,6.25,68.83,9.44,83.66-35.33C515.21,937.78,523.3,569.62,523.3,569.62Z" fill="none"/></clipPath><clipPath id="b"><path d="M618.09,577c39.76-19.42,36.87-47.36,37.82-47,51.8,18.76,104.82,31.62,151.34,62.6-22.17,54.68-36.85,162.1-32,225,6.45,83.26,11.21,127.13,10,124.72-2.52,53.77,8.41,101.34,17.83,155.24.38,2.17-41.11,19.28-65.09,19-15.36-.2-31.11,4-39.22-29.58C661.38,938,618.09,577,618.09,577Z" fill="none"/></clipPath></defs><title>s02e10-02</title><path d="M800.54,1190.56l5.66,85.5s-67.39,30.73-181.2,36.32-226.18-36.32-226.18-36.32l4.64-43.52Z" fill="#262521" stroke="#262521" stroke-linecap="round" stroke-linejoin="round" stroke-width="3"/><path d="M806.2,1276.06s-67.39,30.73-181.2,36.32-226.18-36.32-226.18-36.32" fill="none" stroke="#636363" stroke-linecap="round" stroke-linejoin="round"/><path d="M877.23,1043c-3.83-55.87-22.88-124.63-22.88-124.63s-14.59-306.95-52.89-331.94c-10.88-7.1-148.62-58.82-148.62-58.82s5.22,53.15-75.14,53.15c-65.08,0-79.34-38.39-83.45-50.54a10.79,10.79,0,0,1-.75-2.59c-1,.66-105.06,66.3-149.57,93.11C299.2,647.71,317.25,945,317.25,945a619.73,619.73,0,0,0-3.6,128.12c1.7,21,3,70.64,3.31,95.69,19.51,10.76,63.67,11.89,73.42,9.39,2-17,7.07-60.41,10.39-70.87,4.8-15.12,9-36.54,13.12-54.5-3.55,33.39-23.06,109.68-11.75,134.64.05,13-4.81,56.49-4.81,56.49s91,20.68,168,19.75c137.52-1.66,242.39-30.38,242.39-30.38s-2.68-42.53-3.46-56.13c8.43-14.54,5.71-23.73-3.1-77.91,9.79,30,9.55,27.79,14.44,52.14,8.51,6.57,32.89,6.48,45.65,4.2,5-.89,19.36-6.5,23.95-8.49C881.08,1109.39,880.42,1089.54,877.23,1043Z" fill="#262521"/><path d="M493.5,527.65h0S493.51,527.62,493.5,527.65Z" fill="#bab1af"/><path d="M803.1,1103.65c1.65,5.06.54,2.37,1.69,5.88,44.56,1.12,69-11.88,76.06-14.29-1.07-15.46-2-29-3.62-52.22-3.83-55.87-22.88-124.63-22.88-124.63s-14.59-306.95-52.89-331.94c-10.88-7.1-148.62-58.82-148.62-58.82S638,579.91,577.7,580.78c-65.07.93-79.34-38.39-83.45-50.54a10.79,10.79,0,0,1-.75-2.59c-1,.66-105.06,66.3-149.57,93.11C299.2,647.71,317.25,945,317.25,945a619.73,619.73,0,0,0-3.6,128.12c.86,10.59,2,28.51,3,46.87a101.35,101.35,0,0,1,12.55,2.87,223.63,223.63,0,0,0,34.29,6.78c6.06.69,12.14.91,18.21,1.34,4.87.33,9.75.68,14.63.83,1.57-10.89,3.17-20.31,4.49-24.48,4.8-15.12,9-36.54,13.12-54.5-3.55,33.39-23.56,108.68-12.25,133.64,0,8.65,25.23,17.61,90,21.12,3.87.21-16.17,48.7-16.17,48.7s76.55,7.29,82.13,7.44c37.91-111.08,50.43-328.43,50.43-328.43s61.76,281.9,84,318.81c2.78-.36,40.36-5.63,43.35-6-4.72-10.74-19.35-49.34-17.62-49.57,54.6-7.32,78.33-17,86.38-25.32C812.66,1158.7,811.9,1157.83,803.1,1103.65Z" fill="#d1c8c7"/><g clip-path="url(#a)"><line x1="515.94" y1="504.45" x2="482.15" y2="1133.06" fill="none" stroke="#998f8f" stroke-linecap="round" stroke-linejoin="round"/><line x1="490.74" y1="513.76" x2="457.38" y2="1134.25" fill="none" stroke="#998f8f" stroke-linecap="round" stroke-linejoin="round"/><line x1="503.77" y1="504.93" x2="469.98" y2="1133.54" fill="none" stroke="#998f8f" stroke-linecap="round" stroke-linejoin="round"/><line x1="466.04" y1="514.74" x2="432.68" y2="1135.22" fill="none" stroke="#998f8f" stroke-linecap="round" stroke-linejoin="round"/><line x1="479.07" y1="505.91" x2="445.28" y2="1134.52" fill="none" stroke="#998f8f" stroke-linecap="round" stroke-linejoin="round"/><line x1="441.37" y1="515.71" x2="408.01" y2="1136.2" fill="none" stroke="#998f8f" stroke-linecap="round" stroke-linejoin="round"/><line x1="454.4" y1="506.88" x2="420.61" y2="1135.49" fill="none" stroke="#998f8f" stroke-linecap="round" stroke-linejoin="round"/><line x1="416.67" y1="516.68" x2="383.31" y2="1137.17" fill="none" stroke="#998f8f" stroke-linecap="round" stroke-linejoin="round"/><line x1="429.7" y1="507.86" x2="395.91" y2="1136.47" fill="none" stroke="#998f8f" stroke-linecap="round" stroke-linejoin="round"/><line x1="391.75" y1="517.67" x2="358.39" y2="1138.15" fill="none" stroke="#998f8f" stroke-linecap="round" stroke-linejoin="round"/><line x1="404.78" y1="508.84" x2="370.98" y2="1137.45" fill="none" stroke="#998f8f" stroke-linecap="round" stroke-linejoin="round"/><line x1="367.04" y1="518.64" x2="353.81" y2="764.88" fill="none" stroke="#998f8f" stroke-linecap="round" stroke-linejoin="round"/><line x1="380.07" y1="509.81" x2="346.28" y2="1138.42" fill="none" stroke="#998f8f" stroke-linecap="round" stroke-linejoin="round"/><line x1="354.12" y1="519.15" x2="320.76" y2="1139.64" fill="none" stroke="#998f8f" stroke-linecap="round" stroke-linejoin="round"/><line x1="342.45" y1="511.3" x2="308.66" y2="1139.91" fill="none" stroke="#998f8f" stroke-linecap="round" stroke-linejoin="round"/><line x1="703.02" y1="878.07" x2="73.5" y2="878.03" fill="none" stroke="#998f8f" stroke-linecap="round" stroke-linejoin="round"/><line x1="692.37" y1="832.75" x2="70.99" y2="832.72" fill="none" stroke="#998f8f" stroke-linecap="round" stroke-linejoin="round"/><line x1="701.89" y1="855.78" x2="72.37" y2="855.74" fill="none" stroke="#998f8f" stroke-linecap="round" stroke-linejoin="round"/><line x1="690.08" y1="787.55" x2="68.7" y2="787.51" fill="none" stroke="#998f8f" stroke-linecap="round" stroke-linejoin="round"/><line x1="699.59" y1="810.57" x2="70.07" y2="810.54" fill="none" stroke="#998f8f" stroke-linecap="round" stroke-linejoin="round"/><line x1="687.78" y1="742.4" x2="66.4" y2="742.36" fill="none" stroke="#998f8f" stroke-linecap="round" stroke-linejoin="round"/><line x1="697.3" y1="765.43" x2="67.78" y2="765.39" fill="none" stroke="#998f8f" stroke-linecap="round" stroke-linejoin="round"/><line x1="685.49" y1="697.19" x2="64.11" y2="697.15" fill="none" stroke="#998f8f" stroke-linecap="round" stroke-linejoin="round"/><line x1="695" y1="720.22" x2="65.48" y2="720.18" fill="none" stroke="#998f8f" stroke-linecap="round" stroke-linejoin="round"/><line x1="709.23" y1="1035.55" x2="79.72" y2="1035.51" fill="none" stroke="#998f8f" stroke-linecap="round" stroke-linejoin="round"/><line x1="698.59" y1="990.24" x2="77.21" y2="990.2" fill="none" stroke="#998f8f" stroke-linecap="round" stroke-linejoin="round"/><line x1="708.1" y1="1013.27" x2="78.58" y2="1013.23" fill="none" stroke="#998f8f" stroke-linecap="round" stroke-linejoin="round"/><line x1="696.29" y1="945.03" x2="74.91" y2="944.99" fill="none" stroke="#998f8f" stroke-linecap="round" stroke-linejoin="round"/><line x1="705.8" y1="968.06" x2="76.29" y2="968.02" fill="none" stroke="#998f8f" stroke-linecap="round" stroke-linejoin="round"/><line x1="702.16" y1="1080.74" x2="80.78" y2="1080.7" fill="none" stroke="#998f8f" stroke-linecap="round" stroke-linejoin="round"/><line x1="711.67" y1="1103.77" x2="82.15" y2="1103.73" fill="none" stroke="#998f8f" stroke-linecap="round" stroke-linejoin="round"/><line x1="709.37" y1="1058.56" x2="79.86" y2="1058.52" fill="none" stroke="#998f8f" stroke-linecap="round" stroke-linejoin="round"/><line x1="694" y1="899.89" x2="72.62" y2="899.85" fill="none" stroke="#998f8f" stroke-linecap="round" stroke-linejoin="round"/><line x1="703.51" y1="922.91" x2="73.99" y2="922.88" fill="none" stroke="#998f8f" stroke-linecap="round" stroke-linejoin="round"/><line x1="683.17" y1="651.58" x2="61.79" y2="651.54" fill="none" stroke="#998f8f" stroke-linecap="round" stroke-linejoin="round"/><line x1="692.68" y1="674.61" x2="63.17" y2="674.57" fill="none" stroke="#998f8f" stroke-linecap="round" stroke-linejoin="round"/><line x1="680.87" y1="606.37" x2="59.49" y2="606.33" fill="none" stroke="#998f8f" stroke-linecap="round" stroke-linejoin="round"/><line x1="690.39" y1="629.4" x2="60.87" y2="629.36" fill="none" stroke="#998f8f" stroke-linecap="round" stroke-linejoin="round"/><line x1="679.67" y1="582.71" x2="58.29" y2="582.67" fill="none" stroke="#998f8f" stroke-linecap="round" stroke-linejoin="round"/><line x1="686.89" y1="560.53" x2="57.37" y2="560.49" fill="none" stroke="#998f8f" stroke-linecap="round" stroke-linejoin="round"/></g><g clip-path="url(#b)"><line x1="621.68" y1="488.38" x2="680.23" y2="1115.16" fill="none" stroke="#998f8f" stroke-linecap="round" stroke-linejoin="round"/><line x1="647.23" y1="496.68" x2="705.02" y2="1115.37" fill="none" stroke="#998f8f" stroke-linecap="round" stroke-linejoin="round"/><line x1="633.86" y1="488.38" x2="692.41" y2="1115.16" fill="none" stroke="#998f8f" stroke-linecap="round" stroke-linejoin="round"/><line x1="671.95" y1="496.68" x2="729.74" y2="1115.37" fill="none" stroke="#998f8f" stroke-linecap="round" stroke-linejoin="round"/><line x1="658.58" y1="488.38" x2="717.13" y2="1115.16" fill="none" stroke="#998f8f" stroke-linecap="round" stroke-linejoin="round"/><line x1="696.64" y1="496.68" x2="754.43" y2="1115.37" fill="none" stroke="#998f8f" stroke-linecap="round" stroke-linejoin="round"/><line x1="683.27" y1="488.38" x2="741.82" y2="1115.16" fill="none" stroke="#998f8f" stroke-linecap="round" stroke-linejoin="round"/><line x1="721.36" y1="496.68" x2="779.15" y2="1115.37" fill="none" stroke="#998f8f" stroke-linecap="round" stroke-linejoin="round"/><line x1="707.99" y1="488.38" x2="766.54" y2="1115.16" fill="none" stroke="#998f8f" stroke-linecap="round" stroke-linejoin="round"/><line x1="746.3" y1="496.68" x2="804.09" y2="1115.37" fill="none" stroke="#998f8f" stroke-linecap="round" stroke-linejoin="round"/><line x1="732.93" y1="488.38" x2="791.48" y2="1115.16" fill="none" stroke="#998f8f" stroke-linecap="round" stroke-linejoin="round"/><line x1="771.02" y1="496.68" x2="828.81" y2="1115.37" fill="none" stroke="#998f8f" stroke-linecap="round" stroke-linejoin="round"/><line x1="757.65" y1="488.38" x2="816.2" y2="1115.16" fill="none" stroke="#998f8f" stroke-linecap="round" stroke-linejoin="round"/><line x1="783.96" y1="496.68" x2="841.75" y2="1115.37" fill="none" stroke="#998f8f" stroke-linecap="round" stroke-linejoin="round"/><line x1="795.31" y1="488.38" x2="853.86" y2="1115.16" fill="none" stroke="#998f8f" stroke-linecap="round" stroke-linejoin="round"/><line x1="449.48" y1="869.07" x2="1078.5" y2="844.22" fill="none" stroke="#998f8f" stroke-linecap="round" stroke-linejoin="round"/><line x1="458.33" y1="823.38" x2="1079.23" y2="798.84" fill="none" stroke="#998f8f" stroke-linecap="round" stroke-linejoin="round"/><line x1="449.73" y1="846.76" x2="1078.76" y2="821.91" fill="none" stroke="#998f8f" stroke-linecap="round" stroke-linejoin="round"/><line x1="458.84" y1="778.11" x2="1079.74" y2="753.58" fill="none" stroke="#998f8f" stroke-linecap="round" stroke-linejoin="round"/><line x1="450.24" y1="801.5" x2="1079.27" y2="776.64" fill="none" stroke="#998f8f" stroke-linecap="round" stroke-linejoin="round"/><line x1="459.35" y1="732.91" x2="1080.25" y2="708.37" fill="none" stroke="#998f8f" stroke-linecap="round" stroke-linejoin="round"/><line x1="450.75" y1="756.3" x2="1079.78" y2="731.44" fill="none" stroke="#998f8f" stroke-linecap="round" stroke-linejoin="round"/><line x1="459.86" y1="687.65" x2="1080.76" y2="663.11" fill="none" stroke="#998f8f" stroke-linecap="round" stroke-linejoin="round"/><line x1="451.27" y1="711.03" x2="1080.29" y2="686.17" fill="none" stroke="#998f8f" stroke-linecap="round" stroke-linejoin="round"/><line x1="449.48" y1="1026.68" x2="1078.5" y2="1001.83" fill="none" stroke="#998f8f" stroke-linecap="round" stroke-linejoin="round"/><line x1="458.33" y1="980.99" x2="1079.23" y2="956.45" fill="none" stroke="#998f8f" stroke-linecap="round" stroke-linejoin="round"/><line x1="449.73" y1="1004.37" x2="1078.76" y2="979.52" fill="none" stroke="#998f8f" stroke-linecap="round" stroke-linejoin="round"/><line x1="458.84" y1="935.72" x2="1079.74" y2="911.19" fill="none" stroke="#998f8f" stroke-linecap="round" stroke-linejoin="round"/><line x1="450.24" y1="959.11" x2="1079.27" y2="934.25" fill="none" stroke="#998f8f" stroke-linecap="round" stroke-linejoin="round"/><line x1="458.33" y1="1071.56" x2="1079.23" y2="1047.02" fill="none" stroke="#998f8f" stroke-linecap="round" stroke-linejoin="round"/><line x1="449.73" y1="1094.94" x2="1078.76" y2="1070.09" fill="none" stroke="#998f8f" stroke-linecap="round" stroke-linejoin="round"/><line x1="450.24" y1="1049.68" x2="1079.27" y2="1024.82" fill="none" stroke="#998f8f" stroke-linecap="round" stroke-linejoin="round"/><line x1="459.35" y1="890.52" x2="1080.25" y2="865.98" fill="none" stroke="#998f8f" stroke-linecap="round" stroke-linejoin="round"/><line x1="450.75" y1="913.91" x2="1079.78" y2="889.05" fill="none" stroke="#998f8f" stroke-linecap="round" stroke-linejoin="round"/><line x1="460.38" y1="641.98" x2="1081.28" y2="617.44" fill="none" stroke="#998f8f" stroke-linecap="round" stroke-linejoin="round"/><line x1="451.78" y1="665.37" x2="1080.81" y2="640.51" fill="none" stroke="#998f8f" stroke-linecap="round" stroke-linejoin="round"/><line x1="460.89" y1="596.72" x2="1081.79" y2="572.18" fill="none" stroke="#998f8f" stroke-linecap="round" stroke-linejoin="round"/><line x1="452.3" y1="620.1" x2="1081.32" y2="595.24" fill="none" stroke="#998f8f" stroke-linecap="round" stroke-linejoin="round"/><line x1="461.16" y1="573.03" x2="1082.06" y2="548.49" fill="none" stroke="#998f8f" stroke-linecap="round" stroke-linejoin="round"/><line x1="453.08" y1="551.15" x2="1082.1" y2="526.29" fill="none" stroke="#998f8f" stroke-linecap="round" stroke-linejoin="round"/></g><path d="M411.39,1062c-6,25.3-17.28,91.78-21.66,117.46,0,0-44.32,2.67-72.77-10.64,0,0-8.81-166,.19-227-5-92-7-183,6-276,2-14,6-28,15-40,8-8,18-13,27-19,45-26,85-53,128.38-79.17.8,3-1.72,1.33,0,0,3.62,7.17,4.62,14.17,9.62,21.17,8,10,16,18,27,23,30,12,65,15,94,0,1-1,27-40,28.69-44.18.67.25,1.34.5,2,.77-.68-.24-1.35-.49-2-.77,46.31,18.18,93.31,33.18,138.31,54.18,7,3,13,6,17,12,5,6,6,13,9,20,8,25,12,49,16,75,3,23,6,44,9,67,6,55,10,109,12,163,15,52,23,106,26,161,0,5,0,11,1,16,1,17,2,34,4,51-20,11-45,14-66,6-8-4-7-15-9-23a7.58,7.58,0,0,1-2-4c-1-9-3-12.68-5-22.16" fill="none" stroke="#262521" stroke-linecap="round" stroke-linejoin="round" stroke-width="3"/><path d="M410.65,807.61s-.35,196.56,1.83,238.13c1.13,21.48-22.65,114.59-10.34,141.77.05,13,6.68,54.68,6.68,54.68s79.48,22.49,156.48,21.56c137.52-1.66,242.39-30.38,242.39-30.38s-2.68-42.53-3.46-56.13c14.5-25-16-132.4-17.76-202.35-1.22-47.59-12.09-167.28-12.09-167.28" fill="none" stroke="#262521" stroke-linecap="round" stroke-linejoin="round" stroke-width="3"/><path d="M738,1247.25c42.54-7.3,69.68-13.88,69.68-13.88" fill="none" stroke="#636363" stroke-linecap="round" stroke-linejoin="round"/><path d="M403.79,1245.39s30.59,5,69.35,10.31" fill="none" stroke="#636363" stroke-linecap="round" stroke-linejoin="round"/><path d="M579.75,585.73s30.62-60,61-81.29L656.39,529S631.13,592.46,579.75,585.73Z" fill="#262521" stroke="#262521" stroke-linecap="round" stroke-linejoin="round" stroke-width="3"/><path d="M573.15,585.23s-30.62-60.56-65.55-77.41l-17.18,21.45S521.78,592,573.15,585.23Z" fill="#262521" stroke="#262521" stroke-linecap="round" stroke-linejoin="round" stroke-width="3"/><line x1="576.37" y1="584.23" x2="581.18" y2="819.59" fill="none" stroke="#262521" stroke-linecap="round" stroke-linejoin="round" stroke-width="6"/><path d="M582,819.59s-29.33,354.29-67.74,440.85" fill="none" stroke="#262521" stroke-linecap="round" stroke-linejoin="round" stroke-width="3" stroke-dasharray="2 5"/><path d="M579.58,817.57S549.41,1173.88,511,1260.44" fill="none" stroke="#262521" stroke-linecap="round" stroke-linejoin="round" stroke-width="3"/><path d="M580.77,819.59s69.68,348,108.09,434.56" fill="none" stroke="#262521" stroke-linecap="round" stroke-linejoin="round" stroke-width="3" stroke-dasharray="2 5"/><path d="M583.19,817.57s70.52,350,108.93,436.58" fill="none" stroke="#262521" stroke-linecap="round" stroke-linejoin="round" stroke-width="3"/><path d="M578.57,585.73h-4.91a2.43,2.43,0,0,0-2.2,2q-.48,8.6-1,17.2c0,.81-.09,1.63-.13,2.44a2.51,2.51,0,0,0,2.62,2.86l7.14,0a2.19,2.19,0,0,0,1.83-1.13L582,609l.08-.16a3.09,3.09,0,0,0,.14-.32s0-.07,0-.1a1.87,1.87,0,0,0,.08-.34,1.76,1.76,0,0,0,0-.51q-.5-8.61-1-17.2c0-.82-.09-1.63-.14-2.44A2.5,2.5,0,0,0,578.57,585.73Zm.86,15.08-.07,4.52a1.65,1.65,0,0,1-1.66,1.61l-2.45,0a1.62,1.62,0,0,1-1.6-1.66l.07-4.52a1.62,1.62,0,0,1,1.65-1.6l2.45,0A1.65,1.65,0,0,1,579.43,600.81Z" fill="#51504d"/><path d="M617.65,573.31S679.58,1096.72,712.4,1112s88.73-12.62,88.73-12.62" fill="none" stroke="#262521" stroke-linecap="round" stroke-linejoin="round" stroke-width="2"/><path d="M523.3,569.62s-14,499-46.9,532.73c-31.11,32-74.94,24.27-74.94,24.27" fill="none" stroke="#262521" stroke-linecap="round" stroke-linejoin="round" stroke-width="2"/><line x1="549.18" y1="672.15" x2="536.4" y2="791.98" fill="none" stroke="#262521" stroke-linecap="round" stroke-linejoin="round" stroke-width="6"/><line x1="602.99" y1="672.15" x2="615.77" y2="791.98" fill="none" stroke="#262521" stroke-linecap="round" stroke-linejoin="round" stroke-width="6"/><path d="M538.59,791.35l-4.9-.37a2.45,2.45,0,0,0-2.35,1.85l-2.25,17.08c-.11.81-.21,1.62-.32,2.43a2.5,2.5,0,0,0,2.4,3l7.13.53a2.23,2.23,0,0,0,1.91-1,.35.35,0,0,0,0-.08l.1-.15a1.82,1.82,0,0,0,.16-.31,1,1,0,0,1,0-.1c0-.11.07-.21.1-.33a2.22,2.22,0,0,0,.06-.51l.3-17.23c0-.81,0-1.63,0-2.44A2.5,2.5,0,0,0,538.59,791.35Zm-.29,15.1-.42,4.5a1.64,1.64,0,0,1-1.77,1.48l-2.44-.23a1.64,1.64,0,0,1-1.48-1.77l.42-4.5a1.64,1.64,0,0,1,1.77-1.48l2.44.23A1.64,1.64,0,0,1,538.3,806.45Z" fill="#51504d"/><path d="M612.41,792.79c0,.81,0,1.63.05,2.44q.13,8.61.29,17.23a3,3,0,0,0,.06.51c0,.11.07.22.11.33l0,.1a3,3,0,0,0,.16.31l.1.15.06.08a2.21,2.21,0,0,0,1.91,1l7.12-.53a2.5,2.5,0,0,0,2.4-3c-.11-.81-.21-1.62-.32-2.43l-2.25-17.08a2.44,2.44,0,0,0-2.35-1.85l-4.89.36A2.52,2.52,0,0,0,612.41,792.79Zm4.24,10.9,2.44-.22a1.63,1.63,0,0,1,1.77,1.48l.42,4.5a1.64,1.64,0,0,1-1.48,1.77l-2.44.23a1.64,1.64,0,0,1-1.77-1.48l-.41-4.5A1.64,1.64,0,0,1,616.65,803.69Z" fill="#51504d"/><path d="M805.19,595.12s-35,116.17-31,206.8" fill="none" stroke="#998f8f" stroke-linecap="round" stroke-linejoin="round"/><path d="M346.37,624.76s63,113.4,63.71,174.33" fill="none" stroke="#998f8f" stroke-linecap="round" stroke-linejoin="round"/><rect x="574.49" y="582.67" width="3.77" height="11.66" rx="0.68" transform="translate(1152.75 1177) rotate(180)" fill="#93928f"/><rect x="534.28" y="787.24" width="3.77" height="11.07" rx="0.68" transform="translate(973.12 1644.26) rotate(-173.09)" fill="#93928f"/><rect x="615.05" y="786" width="3.77" height="10.76" rx="0.68" transform="translate(1304.79 1521.95) rotate(174.66)" fill="#93928f"/></svg>