<svg xmlns="http://www.w3.org/2000/svg" width="1250" height="1550" viewBox="0 0 1250 1550"><title>s02e10-03</title><path d="M817,1537.08c-1.25-15.31-3.13-30.58-3.76-45.93-.32-7.85-.11-15.73-.24-23.59s-.42-15.81-1.06-23.7c-1.26-15.57-1.35-31.19-3-46.72-1.24-11.3-3.31-22.66-3.5-34.05a9.41,9.41,0,0,0-5.44,1.1c-7.89,4.4-6.17,17.25-13.06,23.08a34.32,34.32,0,0,0-31.14-18.62,27.26,27.26,0,0,1,9.85,15.26,15.79,15.79,0,0,1-12.91-3.19c-1.37-1.12-3-2.56-4.65-1.82a3.84,3.84,0,0,0-1.73,2.65,24.49,24.49,0,0,0,.42,14.43,168.23,168.23,0,0,0-31.33-.8,22.48,22.48,0,0,1,12.83,7.88,3.18,3.18,0,0,1-.46,5.17c-4.78,4.48-13.43,6.44-17.33,1.18-6.95,10.5-4.09,26.27,6.11,33.67l-33.92,4a2.71,2.71,0,0,1-1.91-.24,2.59,2.59,0,0,1-.85-1.92c-.33-2.93,0-5.93-.44-8.85s-2.14-5.93-5-6.77c-1.11-.32-2.34-.31-3.3-.94-1.78-1.17-1.65-3.74-2.21-5.8s-3.56-3.8-4.55-1.92a14.15,14.15,0,0,0,3,12.5c2.56,3,6.71,6.27,4.95,9.76-1.9,3.79-7.71,1.73-10.85-1.11s-7.72-6.19-11-3.56A32.17,32.17,0,0,0,661,1448.58c-.57,4.79-9.76,6.92-7.46,11.16,1.88,3.48,7.08-.12,11,.1,3.79.2,6.08,4.1,8,7.36s5.26,6.77,8.86,5.6a27.22,27.22,0,0,1-24.87,5.53,56.2,56.2,0,0,0,22.14,9.48A21.43,21.43,0,0,1,663,1497c2.85,3,7.59,3,11.54,4.28s7.46,6.56,4.37,9.35l4.72-1.25q2.7,7.08,5.39,14.17a63,63,0,0,0-2-26.22c5.09,5.19,14.2-7.28,20-2.91,2.51,1.88,2.26,5.82.86,8.63s-3.69,5.18-4.67,8.16c-1.22,3.68-.29,7.68-.39,11.55s-1.91,8.35-5.72,9.06a27.72,27.72,0,0,0,10.88,9,14.4,14.4,0,0,0-3.1,25.6c1.83,1.21,4,2,5.57,3.51,5.69,5.32,1.61,14.81,3,22.48,1.67,9.4,12.41,15.26,21.86,13.87s17.27-8.4,22.35-16.48l12.83,14.34c3.4,3.8,7.3,7.87,12.39,8.36,5.38.52,10.38-3.34,13-8s3.47-10.19,4.55-15.49c1.18-5.77,4.2-12.72,10.09-12.76,3.09,0,5.71,2,8.3,4C818.37,1565.83,818.15,1551.43,817,1537.08Z" fill="#8c8b8b"/><path d="M818.48,1537.08c-.93-11.36-2.2-22.69-3.05-34.06-.44-5.75-.77-11.51-.86-17.27-.09-5.57,0-11.14-.07-16.71-.13-11.38-1-22.68-1.69-34s-1-22.66-2-34c-1.18-12.67-3.66-25.22-3.9-38a1.54,1.54,0,0,0-1.5-1.5,11.14,11.14,0,0,0-9,3.48,19.52,19.52,0,0,0-3.83,6.81c-1.8,4.89-2.62,10.74-6.75,14.33l2.35.31a35.88,35.88,0,0,0-32.43-19.37c-1.17,0-2.15,1.71-1.06,2.56a26.33,26.33,0,0,1,9.46,14.6l1-1.85a14.32,14.32,0,0,1-9.41-1.47c-2.5-1.35-5.13-4.9-8.33-3.46-2.8,1.26-3.17,5.52-3.42,8.16a26,26,0,0,0,1.24,10.69l1.45-1.9a170,170,0,0,0-31.33-.8c-1.6.11-2.15,2.57-.4,3a21.31,21.31,0,0,1,8.84,4.15,18.21,18.21,0,0,1,3.45,3.51,1.57,1.57,0,0,1,0,2.3,9.54,9.54,0,0,1-1.52,1.39c-3.62,2.8-10.64,5-14,.67a1.53,1.53,0,0,0-2.59,0c-7.4,11.37-4.2,27.73,6.64,35.72l.76-2.79-30.72,3.63a33.94,33.94,0,0,1-3.6.42c-.65,0-.75-.07-.86-.73a16.08,16.08,0,0,1-.13-1.83,55.26,55.26,0,0,0-.36-7.39c-.63-3.68-2.94-7.19-6.78-8-.84-.18-1.86-.2-2.46-.89a5,5,0,0,1-.81-2.41c-.31-1.75-.58-3.37-1.95-4.64a4.21,4.21,0,0,0-4.34-1.16c-1.83.79-1.95,3-2,4.78a15.94,15.94,0,0,0,4.16,11.25c1.47,1.63,6.75,6,3.71,8.38-1.2.94-3.15.37-4.41-.13a18.09,18.09,0,0,1-4.71-3.23c-3.08-2.55-7.73-5.52-11.57-2.69a1.51,1.51,0,0,0-.54,2,34.57,34.57,0,0,0,11.11,10.88l-.68-1.69c-.7,4.68-11,6.89-7.08,12.69,2.29,3.34,6.76,1.33,9.87.67a5.44,5.44,0,0,1,5,1,18.75,18.75,0,0,1,3.56,4.77c2.24,3.78,5.94,8.3,10.91,6.89l-1.46-2.51a25.8,25.8,0,0,1-23.41,5.14c-1.72-.48-2.49,1.79-1.16,2.74a58.05,58.05,0,0,0,22.51,9.63l-.9-2.2A20,20,0,0,1,663,1495.5a1.52,1.52,0,0,0-1.06,2.56c3.09,3.14,7.51,3.28,11.5,4.45,2.31.68,7.14,4.4,4.41,7.06a1.51,1.51,0,0,0,1.46,2.5l4.72-1.25-1.85-1,5.4,14.17a1.5,1.5,0,0,0,2.94-.4,64.72,64.72,0,0,0-2-26.62l-2.5,1.46c5.39,5.26,12-2.73,17.56-3.39,4.15-.49,4.47,4.29,3.15,7.14-1.12,2.42-3,4.42-4.12,6.81a16.58,16.58,0,0,0-1.44,8c.1,2.9.59,5.88-.2,8.72-.6,2.18-1.85,4.24-4.19,4.74a1.52,1.52,0,0,0-.9,2.21,29.94,29.94,0,0,0,11.42,9.58l.36-2.74c-8,3-12.66,11.88-9.81,20.08a17,17,0,0,0,8.32,9.41c1.84,1,3.64,2,4.71,3.9a11.35,11.35,0,0,1,1.27,5.24c.15,4.11-.66,8.2-.4,12.31a17.29,17.29,0,0,0,4.09,10.25c4.94,5.84,13.25,8.38,20.67,7,9.66-1.74,17.4-9,22.49-17.05l-2.35.31c5,5.54,9.77,11.28,14.94,16.62,4,4.19,9.31,7.75,15.4,6.16s10-6.83,12-12.36c2.18-5.8,2.15-12.33,4.83-17.94,1.09-2.28,2.72-4.74,5.3-5.45,3.4-.93,6.47,1.64,9,3.57.91.7,2.3-.26,2.26-1.3-.51-14.38-.75-28.78-1.91-43.13-.15-1.91-3.15-1.93-3,0,1.16,14.35,1.4,28.75,1.91,43.13l2.26-1.29c-2.47-1.9-5.07-3.83-8.27-4.14a8.87,8.87,0,0,0-6.75,2.38c-4,3.63-5.17,9.41-6.18,14.47-1.22,6.17-2.72,13-8,17a10.49,10.49,0,0,1-7.91,2.36c-2.9-.44-5.38-2.25-7.47-4.21-2.78-2.61-5.23-5.6-7.78-8.44l-8.55-9.56a1.52,1.52,0,0,0-2.36.3c-4.17,6.58-10.16,12.57-17.76,14.94a19.73,19.73,0,0,1-19.35-4.13,14.14,14.14,0,0,1-4.45-8.48c-.46-3.74.18-7.52.3-11.26.1-3.45-.25-7.1-2.4-9.94-2.47-3.24-6.7-4.11-9.39-7.1a13.06,13.06,0,0,1-3-11.79,13.33,13.33,0,0,1,8.1-9c1.09-.4,1.63-2.14.36-2.74a26.83,26.83,0,0,1-10.35-8.51l-.89,2.21c4.87-1.06,6.79-6.51,6.83-11,0-3.12-.64-6.33,0-9.42.59-2.91,2.55-5.18,4.06-7.65,2.29-3.76,3.48-9.9-1.17-12.49-3.24-1.81-7-.08-9.93,1.46-2.34,1.21-6.75,4.46-9.21,2.06a1.51,1.51,0,0,0-2.51,1.46,62.73,62.73,0,0,1,1.92,25.82l3-.4-5.4-14.17a1.53,1.53,0,0,0-1.84-1l-4.72,1.25,1.46,2.51c3.5-3.41.63-8.39-2.67-10.68-4-2.75-9.74-1.52-13.24-5.07L663,1498.5a23.24,23.24,0,0,0,17-9.94,1.51,1.51,0,0,0-.9-2.2,56,56,0,0,1-21.78-9.33l-1.16,2.74a28.89,28.89,0,0,0,26.33-5.91c1.17-1-.08-2.9-1.46-2.51-3.8,1.09-6.37-3.62-8-6.26-1.77-2.92-4.1-6.15-7.74-6.67a13.36,13.36,0,0,0-5.28.61c-1.24.32-3.22,1.17-4.5.62-2.29-1,.44-3.17,1.43-4,2.19-1.79,5-3.65,5.49-6.69a1.57,1.57,0,0,0-.69-1.69,31,31,0,0,1-10-9.8l-.54,2c3.19-2.35,7.13,1.55,9.45,3.53s5.83,3.81,9.12,3.31a5.33,5.33,0,0,0,4.13-7.14c-1.34-3.73-5-5.85-6.89-9.26a12.8,12.8,0,0,1-1.51-5.83c0-.54-.15-2.31.26-2.72.23-.22-.23,0,.16,0s.65.33.84.49c1.26,1.08,1,3.18,1.48,4.66a5.17,5.17,0,0,0,3.55,3.74c.85.25,1.77.27,2.6.6a5,5,0,0,1,2.14,1.81,10.75,10.75,0,0,1,1.64,5.72c.16,3.39-1.12,10.67,4.26,10.21,5.65-.49,11.29-1.33,16.91-2l17.21-2a1.52,1.52,0,0,0,.76-2.8c-9.58-7.06-12-21.72-5.57-31.62h-2.59c3.62,4.71,9.79,4.59,14.82,2.35,2.45-1.09,5.8-3.09,6.68-5.79,1-3.2-2.49-6.28-4.69-8.06a24.45,24.45,0,0,0-10.16-4.93l-.4,3a170,170,0,0,1,31.33.8,1.49,1.49,0,0,0,1.44-1.89,23.91,23.91,0,0,1-1.19-9.23,20,20,0,0,1,.87-4.73c.43-1.36,1.09-1.72,2.35-.93s2.18,1.75,3.38,2.48a17.34,17.34,0,0,0,12.42,2.17,1.52,1.52,0,0,0,1-1.84,29,29,0,0,0-10.24-15.92l-1.06,2.56A32.91,32.91,0,0,1,785.57,1388a1.52,1.52,0,0,0,2.36.3c4-3.46,5.26-8.8,6.82-13.62,1.67-5.14,4.3-10.56,10.62-10.12l-1.5-1.5c.21,11.27,2.2,22.38,3.45,33.56s1.65,22.61,2.25,33.93,1.6,22.65,1.85,34,0,22.65.7,34c.82,12.86,2.31,25.67,3.36,38.51C815.64,1539,818.64,1539,818.48,1537.08Z" fill="#8c8b8b"/><path d="M818.35,1563.47c-.29-8.81-.65-17.61-1.37-26.39-.32-3.94-3.32-35.13-3.76-45.93-.32-7.85-.11-15.73-.24-23.59s-.42-15.81-1.06-23.7c-1.26-15.57-2.35-31.19-4-46.72-.86-7.85-1.13-15.73-1.88-23.64a5.48,5.48,0,0,0-3.35.18c-3.16,1.29-4.12,5.22-4.66,8.59q-.84,5.28-1.67,10.55c-.5,3.13-1,6.35-2.69,9.06s-4.75,4.78-7.88,4.28c-4-.64-6.26-4.92-8-8.62s-4.5-7.85-8.59-7.78c-3.09.06-5.64,2.73-6.57,5.68s-.6,6.13-.26,9.21c-4.12-1-8.3-1.87-12.51-2.51a6,6,0,0,0-3.83.29c-1.77,1-2,3.44-1.85,5.47a24.12,24.12,0,0,0,4.84,12.28c-3.37-2-6.89-4.14-10.81-4.5s-8.36,1.6-9.5,5.37c-1.35,4.46,1.58,10.87-2.53,13-3.4,1.79-9.11-1.51-10.72,2-.64,1.38,0,3,.82,4.29,3.32,5.29,9.44,9.05,10.62,15.18.6,3.13-.23,6.34-1.06,9.42l-11.19,41.59c-1.83,6.79-3,15.57,2.92,19.42,2.77,1.82,6.54,2,8.86,4.34s2.33,6.46,2.06,10l2.77.84q-4.17,16.64-6.84,33.59c-.51,3.25-1,6.58-.32,9.8s2.65,6.35,5.74,7.48c5.25,1.93,10.57-2.46,14.26-6.67a161.11,161.11,0,0,0,12.69-16.51l12.75,16.67c3.12,4.09,7.69,8.66,12.57,7,3.8-1.27,5.43-5.71,6.19-9.65a67.7,67.7,0,0,0-.64-28.62,102,102,0,0,1,21,5.91A67.17,67.17,0,0,0,818.35,1563.47Z" fill="#a8a8a8"/><path d="M819.85,1563.47c-.36-10.74-.91-21.45-1.89-32.15-.82-9-1.63-18-2.35-27-.32-4-.63-7.95-.83-11.93-.36-7-.22-14-.26-21-.08-15.41-1.33-30.73-2.56-46.08-.69-8.61-1.42-17.23-2.32-25.82s-1.33-17.4-2.15-26.09a1.53,1.53,0,0,0-1.1-1.44,7,7,0,0,0-7.48,2.83c-1.49,2.1-2,4.73-2.41,7.22-.57,3.58-1.13,7.16-1.71,10.74-.51,3.14-1,6.68-3.13,9.21-1.7,2-4.46,3.43-7,2.2-2.34-1.11-3.72-3.7-4.84-5.91-2.21-4.38-5.12-10.48-11-10.07a8.83,8.83,0,0,0-7,5.07c-1.75,3.52-1.41,7.52-1,11.3l1.9-1.45q-5.72-1.42-11.54-2.36c-3-.47-6.36-.76-7.89,2.44-1.27,2.65-.65,6,.05,8.72a25.69,25.69,0,0,0,4.33,8.94l2.05-2c-4.93-3-10.78-6.21-16.67-4a9.44,9.44,0,0,0-5.46,4.78c-1,2.14-.86,4.53-.74,6.81.09,1.76.57,4.52-.86,5.9s-4.25.69-6,.56c-2-.15-4.24,0-5.5,1.82-1.74,2.48-.27,5.41,1.3,7.56,3,4.13,7.92,7.52,9.4,12.59,1,3.3,0,6.7-.87,9.9q-1.38,5.14-2.77,10.28-2.84,10.52-5.66,21c-1.55,5.75-3.55,11.56-4.1,17.52-.5,5.28.59,11.25,5.64,14,2.5,1.36,5.9,1.61,7.93,3.72,2.2,2.28,1.84,6,1.62,8.89a1.51,1.51,0,0,0,1.1,1.45l2.77.84-1-1.85q-2.49,10-4.46,20.08-1,5.06-1.83,10.13a65.46,65.46,0,0,0-1.24,9.86c-.07,5.29,2.25,11.44,7.91,12.88s11-2.88,14.57-6.84A151.48,151.48,0,0,0,758,1569.55h-2.59l11.39,14.89c2.87,3.76,6,8.19,10.82,9.56,4.53,1.3,8.53-1.43,10.4-5.46,2.12-4.6,2.59-10.07,2.84-15.06a69.79,69.79,0,0,0-1.83-19.64l-1.85,1.84a104.12,104.12,0,0,1,15.58,3.9c5.08,1.71,9.94,4.1,15.17,5.34,1.87.44,2.68-2.45.79-2.9-5.23-1.23-10.08-3.62-15.16-5.33a102.91,102.91,0,0,0-15.58-3.9,1.52,1.52,0,0,0-1.84,1.85,67.06,67.06,0,0,1,1.81,15.53,53.74,53.74,0,0,1-1.73,14.62c-1,3.34-3.2,7.27-7.29,6.45-4.27-.85-7.24-5.3-9.69-8.51L758,1568a1.52,1.52,0,0,0-2.59,0,158.23,158.23,0,0,1-10.63,14.11c-3,3.6-7.17,8.8-12.4,8.8-5.59,0-7.35-6.35-7.16-10.87a71.51,71.51,0,0,1,1.19-8.85q.78-4.59,1.66-9.16,2-10.33,4.55-20.56a1.52,1.52,0,0,0-1-1.84l-2.76-.84,1.1,1.44c.2-2.61.33-5.39-.59-7.89a9,9,0,0,0-5.26-5.27c-2.27-1-4.92-1.42-6.77-3.18a9.16,9.16,0,0,1-2.56-5.57c-.68-5.15,1-10.32,2.31-15.22l5.4-20.08c1.8-6.66,3.79-13.3,5.36-20,.72-3,1.1-6.24.11-9.26a19.46,19.46,0,0,0-3.83-6.37c-1.14-1.36-10.25-10.23-6.49-11.4,1.84-.57,4.11.22,6,.16a6.2,6.2,0,0,0,5.37-2.8c2.46-4.23-1.21-10.19,2.32-13.91,4.79-5.06,12.23-.82,16.9,2,1.21.73,3-.82,2-2.06a23.37,23.37,0,0,1-3.74-7.21c-.66-2.15-1.43-5-.71-7.18.85-2.62,4.55-1.31,6.51-1q4.85.84,9.61,2c.85.21,2-.44,1.89-1.44-.34-3.12-.84-6.67.52-9.62,1-2.2,3.18-4.2,5.76-3.69,2.38.48,4,2.76,5.17,4.72,1.26,2.15,2.13,4.49,3.51,6.57a11.26,11.26,0,0,0,5.29,4.64,8.38,8.38,0,0,0,7.73-1.28c5.11-3.67,5.59-10.43,6.5-16.13a92.33,92.33,0,0,1,1.76-10.19c.73-2.68,2.31-5.41,5.54-4.72l-1.1-1.45c.73,7.71,1,15.45,1.83,23.15s1.54,15.39,2.18,23.1c1.28,15.42,2.65,30.85,3,46.33.15,7.7,0,15.41.2,23.1.12,4,.41,8,.71,12,.7,9.17,1.53,18.33,2.36,27.49,1.06,11.59,1.74,23.16,2.13,34.79C816.91,1565.39,819.91,1565.4,819.85,1563.47Z" fill="#a8a8a8"/><path d="M665.82,1422.1a10.74,10.74,0,0,0,5.22,10.69,21.33,21.33,0,0,1,3.09,1.77,16.52,16.52,0,0,0-1.23-2.32C670.66,1428.76,667.49,1425.88,665.82,1422.1Z" fill="#c6abab"/><path d="M664.37,1421.7a12.33,12.33,0,0,0,1.82,8.47,12.59,12.59,0,0,0,3,3.23c1.2.88,2.69,1.31,3.85,2.22a1.5,1.5,0,0,0,2.35-1.81c-2-4.64-6.22-7.86-8.31-12.46a1.5,1.5,0,0,0-2.05-.54,1.54,1.54,0,0,0-.54,2c2.09,4.6,6.29,7.83,8.31,12.46l2.36-1.82c-1.2-.94-2.59-1.47-3.86-2.28A8.91,8.91,0,0,1,669,1429a9.32,9.32,0,0,1-1.72-6.45,1.53,1.53,0,0,0-1-1.84A1.51,1.51,0,0,0,664.37,1421.7Z" fill="#c6abab"/><path d="M661,1426.62a9.91,9.91,0,0,0-4.81-1.76A35.06,35.06,0,0,0,661,1426.62Z" fill="#c6abab"/><path d="M661.8,1425.32a11.64,11.64,0,0,0-5.57-2,1.35,1.35,0,0,0-.91.32,1.43,1.43,0,0,0-.54.78,1.8,1.8,0,0,0,0,.8,1.49,1.49,0,0,0,.69.9,36.81,36.81,0,0,0,5.17,1.9,1.5,1.5,0,1,0,.8-2.89,35,35,0,0,1-4.1-1.44l.36.15-.72-.31-.75,2.79.5.05-.4-.05a10.15,10.15,0,0,1,2.48.69l-.35-.15a11.12,11.12,0,0,1,1.82,1,1.52,1.52,0,0,0,2.06-.54A1.54,1.54,0,0,0,661.8,1425.32Z" fill="#c6abab"/><path d="M669.69,1483.66a30.58,30.58,0,0,0,8.65.26C675.84,1481.79,671.91,1481.19,669.69,1483.66Z" fill="#c6abab"/><path d="M669.29,1485.11a32.66,32.66,0,0,0,9.05.31,1.51,1.51,0,0,0,1.06-2.56,9.58,9.58,0,0,0-5.49-2.3,6.6,6.6,0,0,0-5.28,2,1.5,1.5,0,0,0,2.12,2.12,5.66,5.66,0,0,1,.43-.42c.12-.11.07-.06,0,0l.24-.16a3.3,3.3,0,0,1,.45-.26s.33-.15.13-.07l.08,0c.18,0,.36-.11.55-.15l.22-.05c.2,0,.16-.07,0,0a3.12,3.12,0,0,1,1.1,0l.23,0c.19,0-.28,0,0,0l.52.11a7.7,7.7,0,0,1,1.09.35c-.3-.12.14.08.25.13s.32.17.48.27a5.54,5.54,0,0,1,.51.33l.2.14c-.28-.2,0,0,.08.07l1.06-2.56a31.81,31.81,0,0,1-4.25.18c-.7,0-1.39-.06-2.09-.13a17.53,17.53,0,0,1-1.91-.26,1.55,1.55,0,0,0-1.85,1A1.53,1.53,0,0,0,669.29,1485.11Z" fill="#c6abab"/><path d="M812,1445.29c0-.48-.92-14-1.23-20.28a30.36,30.36,0,0,0-6.27-8.52,59.18,59.18,0,0,0,5.65-3.18c-.32-5.4-.71-10.79-1.3-16.17-.68-6.19-1.61-12.4-2.34-18.63-1.5-1.15-3.31-1.6-4.55-.3a5.06,5.06,0,0,0-1.06,2.87c-.9,6.46-1.37,13.88-6.53,17.87-5.57,4.32-13.5,2.31-20.44,1.11s-16-.09-18.17,6.62c-.65,2-.65,4.43-2.29,5.72-1.29,1-3.09.92-4.7,1.24-3.59.7-6.42,7.55-7,13.13a45.78,45.78,0,0,1-5.94-2c-7.24-3.06-15.54-7.87-22.26-3.81a32.3,32.3,0,0,1,8.67,20c.41,6.75-3.82,15.35-10.47,14.09-3.77-.72-6.32-4.45-10-5.49-5.91-1.67-11.65,4.06-17.78,3.6a9.32,9.32,0,0,1-8.31-8.3c-.25-3.37,1.22-7.32-1.07-9.8a4.81,4.81,0,0,0-.48-.42c1.33,3.1,1.65,6.66-.34,9.26-2.51,3.29-6.92,3.22-11.16,2.06a10.18,10.18,0,0,1,4.14,5.78,9.58,9.58,0,0,0-9.4,7.71l17.12-1.21c2.41-.17,5-.3,7.06,1,6.84,4.19.63,17.49,7.45,21.7a30.8,30.8,0,0,1-10.66,3.1,6.29,6.29,0,0,1,2.29,4.2c.4,5-4.65,9.24-9.65,9.16a10.32,10.32,0,0,1,9.21,11.18,8.9,8.9,0,0,1,4.86,6.84q-1.27-8.37-2.54-16.73a3,3,0,0,1,2.68-4.12c13.62-4,28.81-8,41.52-1.66,2.53,1.26,5.14,3.43,4.93,6.24-.14,1.9-1.55,3.44-2.88,4.8l-16.67,17.11c-2.67,2.74-5.42,5.61-6.69,9.22s-.62,8.21,2.54,10.38c1.14.79,2.53,1.22,3.5,2.21,4.06,4.08-2.92,10.67-1.88,16.33.94,5.09,8.05,6.56,12.68,4.24s7.64-6.85,11.46-10.34a8.32,8.32,0,0,1,4.17-2.37,7.87,7.87,0,0,1,4.59,1c4.15,2.08,7.47,5.49,11.38,8s9,4.11,13.15,2.06c1.87-.92,3.43-2.51,5.45-3,1.56-.39,3.23-.09,4.79-.45,5.18-1.19,6.15-8.21,5.06-13.4s-3-11.11.14-15.4c2-2.8,5.77-4.08,7.49-7.07,4.4-7.66-7.9-17.15-4-25.1,2-4,7-5.19,10.87-7.49a18.24,18.24,0,0,0,7.81-20.54c-1.67-5.26-5.78-10.8-3.17-15.66C803.53,1449.56,809.14,1448.69,812,1445.29Zm-50.91-17.14,9.36-2.11A48.4,48.4,0,0,1,761.11,1428.15Z" fill="#c6abab"/><path d="M813.52,1445.29c-.3-4.14-.54-8.29-.79-12.44-.16-2.57-.05-5.29-.44-7.84-.28-1.77-1.8-3.69-2.84-5.12a32.84,32.84,0,0,0-3.87-4.46l-.3,2.36q2.91-1.45,5.65-3.18a1.51,1.51,0,0,0,.74-1.3c-.69-11.59-2.18-23-3.61-34.55-.27-2.16-3.37-3.23-5.3-2.7-2.47.67-3.08,3.1-3.38,5.33-.55,4.08-.87,8.48-2.69,12.25a11.22,11.22,0,0,1-9.9,6.41c-4.54.26-8.93-.94-13.38-1.58-6.9-1-16.55.06-19.08,7.81-.68,2.1-.49,4.9-3.1,5.48-1.08.24-2.23.21-3.29.55a6.54,6.54,0,0,0-2.38,1.48c-3.41,3.16-4.77,8.54-5.28,13l1.89-1.44c-5.24-1.47-10-4.11-15.08-5.93-4.67-1.67-9.79-2.38-14.27.22a1.51,1.51,0,0,0-.3,2.35,30.7,30.7,0,0,1,8.21,18.7c.29,4.37-1.34,11.14-6.11,12.68-2.74.88-5.15-.86-7.27-2.41-2.52-1.84-5.11-3.42-8.36-3.25-3.07.16-5.86,1.5-8.68,2.58s-5.75,2-8.53.72a8,8,0,0,1-4.61-7.87c.15-3.28,1-7.26-2-9.62-1-.8-3.15-.09-2.51,1.46,1.2,2.9,1.8,6.72-1,8.92-2.42,1.87-5.91,1.28-8.63.55a1.51,1.51,0,0,0-1.16,2.74,8.93,8.93,0,0,1,3.46,4.89l1.44-1.9a11.15,11.15,0,0,0-10.85,8.81,1.52,1.52,0,0,0,1.45,1.9l13.45-.95c2-.15,4.08-.38,6.11-.37a6.58,6.58,0,0,1,4.58,1.41c1.68,1.56,2,4.09,2.14,6.25.19,2.67.12,5.34.53,8a9.56,9.56,0,0,0,4.06,6.91v-2.59a29.81,29.81,0,0,1-9.9,2.9c-1.18.14-2.13,1.61-1.06,2.56a5.23,5.23,0,0,1,.62,7.32,8.68,8.68,0,0,1-6.92,3.48c-2,0-1.9,2.85,0,3,4.73.39,8.22,5.08,7.71,9.68a1.47,1.47,0,0,0,.74,1.29,7.72,7.72,0,0,1,4.18,5.94l2.89-.79-1.8-11.81-.45-2.95a16,16,0,0,1-.37-2.74c.07-1.49,2.21-1.66,3.37-2,6.7-2,13.55-3.8,20.54-4.3,6.49-.47,13.78.14,19.42,3.69a6.54,6.54,0,0,1,2.72,2.84c.61,1.5-.21,2.88-1.17,4-2.48,2.9-5.34,5.53-8,8.26l-8.34,8.55a51.32,51.32,0,0,0-6.68,7.68c-3,4.64-3.82,11.83,1.17,15.51,1.92,1.42,4.6,1.94,4.28,4.85-.25,2.35-1.52,4.56-2.29,6.76s-1.38,4.94-.47,7.32a8.16,8.16,0,0,0,5,4.63c5.45,2,10.68-.56,14.63-4.29,2.32-2.19,4.33-4.71,6.7-6.86,1.23-1.12,2.64-2.18,4.4-2a12,12,0,0,1,4.73,2.11c5.57,3.54,10.12,8.85,17,9.81a12.28,12.28,0,0,0,8.87-2.22,8.62,8.62,0,0,1,4-1.79c1.7-.17,3.37,0,5-.68,4.8-2,5.85-8.06,5.35-12.66-.57-5.24-4.13-12.41.09-17,2-2.12,4.69-3.35,6.45-5.68a9,9,0,0,0,1.69-6.47c-.54-4.77-3.52-8.76-5-13.23-.65-2-1.06-4.15-.21-6.12,1.07-2.49,3.69-3.78,6-4.89a29.41,29.41,0,0,0,7.24-4.3,19.51,19.51,0,0,0,4.8-6.77,20,20,0,0,0,1.69-8.2,22.4,22.4,0,0,0-2.12-8.57c-1.18-2.78-2.93-5.9-2.63-9,.27-2.84,2.55-4.44,4.83-5.74s4.5-2.39,6.19-4.31c1.27-1.44-.84-3.57-2.12-2.12-3.58,4.07-10.31,4.65-11.69,10.69-1.44,6.31,3.87,11.63,4.47,17.69a17.08,17.08,0,0,1-6.07,14.69c-4.2,3.41-10.76,4.06-13.21,9.45-2.1,4.6.23,9.45,2.21,13.64,1.75,3.69,4.43,8.69,1.14,12.31-1.95,2.14-4.68,3.35-6.46,5.68a12.15,12.15,0,0,0-2.06,8.6c.49,5.4,3.21,11,1.14,16.35a6.05,6.05,0,0,1-1.76,2.58,6.41,6.41,0,0,1-4.06,1,10.17,10.17,0,0,0-4.37,1c-1.52.77-2.79,2-4.37,2.63-6.41,2.61-12.72-3.23-17.37-6.79-2.59-2-5.59-4.22-8.92-4.65-3.48-.45-6.1,1.87-8.38,4.18-3.85,3.9-7.79,9.69-13.89,9.58-2.1,0-4.52-.75-5.71-2.62-1.31-2.09-.38-4.74.41-6.84.87-2.3,2-4.58,2.2-7.07a6.29,6.29,0,0,0-3.54-6,9,9,0,0,1-3.07-2.21,7.09,7.09,0,0,1-1.3-4c-.13-3.1,1.35-5.87,3.24-8.24a106.33,106.33,0,0,1,7.43-7.88l8.34-8.56,4.17-4.27a15.12,15.12,0,0,0,3-3.84c1.36-2.89.31-5.87-2-7.89a22.16,22.16,0,0,0-8.52-4.16,37.77,37.77,0,0,0-9.92-1.39c-7-.11-13.87,1.33-20.56,3.12-1.69.45-3.37.93-5,1.42a11.57,11.57,0,0,0-4.15,1.66,4.25,4.25,0,0,0-1.35,4c.21,1.91.57,3.81.86,5.71l1.8,11.8c.29,1.91,3.16,1.09,2.89-.79a10.48,10.48,0,0,0-5.55-7.74l.74,1.3c.7-6.33-4.48-12.17-10.71-12.68v3a11.73,11.73,0,0,0,9.7-5.25,8.13,8.13,0,0,0-1.28-10.67l-1.06,2.56a34,34,0,0,0,11.42-3.31,1.52,1.52,0,0,0,0-2.59c-2-1.26-2.54-3.63-2.77-5.82-.28-2.72-.16-5.46-.51-8.17-.31-2.47-1-5-2.94-6.78-2.92-2.63-6.88-2.24-10.52-2l-15.65,1.11,1.44,1.9a8.15,8.15,0,0,1,8-6.61,1.51,1.51,0,0,0,1.45-1.9,12.21,12.21,0,0,0-4.84-6.68l-1.15,2.74c3.82,1,8.29,1.4,11.53-1.31,3.54-3,3.44-7.91,1.82-11.85l-2.51,1.46c2.58,2.07.86,6.51,1.13,9.33a10.86,10.86,0,0,0,4.87,8,11.24,11.24,0,0,0,9.41,1.15c3.24-.89,6.21-2.67,9.53-3.25,3.54-.62,6,1.46,8.71,3.38,2.51,1.77,5.48,3,8.57,2.1,5.64-1.65,8.26-8.5,8.47-13.84.32-8.22-3.61-16.68-9.12-22.59l-.3,2.36c4.16-2.41,8.94-1.1,13.14.53,4.67,1.8,9.06,4.13,13.9,5.48a1.53,1.53,0,0,0,1.9-1.45,22.1,22.1,0,0,1,3-9.14,5.81,5.81,0,0,1,2.4-2.41c1.39-.56,3-.33,4.41-.9,3.42-1.38,3.1-4.85,4.3-7.74A8.6,8.6,0,0,1,763,1402c11.38-3.58,27.13,7.36,35.34-5.2,1.92-2.94,2.72-6.48,3.26-9.9.29-1.8.49-3.61.75-5.41.11-.76.18-2,.93-2.42s1.85.3,2.47.75l-.74-1.3c.69,5.81,1.54,11.59,2.2,17.4s1.1,11.59,1.44,17.4l.74-1.29q-2.74,1.73-5.64,3.18a1.5,1.5,0,0,0-.31,2.35,29.17,29.17,0,0,1,3.65,4.2,27.29,27.29,0,0,1,1.58,2.52,7.16,7.16,0,0,1,.61,1.12c-.12-.35,0,.23,0,.34.15,2.64.3,5.29.46,7.93.24,3.88.46,7.76.74,11.63C810.66,1447.2,813.66,1447.22,813.52,1445.29Z" fill="#c6abab"/><path d="M761.51,1429.6l8.19-1.85,1.17-.27-.8-2.89c-1.49.5-3,.92-4.54,1.27s-3.1.62-4.42.79a1.54,1.54,0,0,0-1.5,1.5c0,.73.67,1.61,1.5,1.5a51,51,0,0,0,9.76-2.17,1.51,1.51,0,0,0,1-1.84,1.53,1.53,0,0,0-1.84-1.05l-8.19,1.85-1.17.27a1.5,1.5,0,0,0-1,1.84A1.54,1.54,0,0,0,761.51,1429.6Z" fill="#c6abab"/><path d="M717.45,1544.16c2.15,3.29,6.21,4.35,9.93,3.65,4.24-.81,7.55-4.06,10.4-7.08,1.33-1.4-.79-3.52-2.12-2.12-2.35,2.48-5,5.22-8.36,6.14-2.51.68-5.74.22-7.26-2.1-1-1.61-3.64-.11-2.59,1.51Z" fill="#bf9595"/><path d="M736,1448.47a33,33,0,0,0-12.88,2.67c-3.81,1.64-7.86,4.06-10.37,7.44-6,8.07,5.31,14.8,11.24,18.06,4.45,2.44,9.36,4.17,14.49,3.83l-.75-2.79c-2.53,1.41-5.1,3-6.78,5.42a8.1,8.1,0,0,0-.6,8.21c3.11,6.53,11,6.77,17.21,6.43,1.92-.1,1.93-3.1,0-3-4.92.27-11.4.61-14.28-4.31-2.8-4.75,2.36-8.15,6-10.16a1.52,1.52,0,0,0-.76-2.8,22,22,0,0,1-11-2.41,49.7,49.7,0,0,1-9.74-6.12c-2.51-2.07-4.84-5-2.8-8.22,1.86-3,5.51-5,8.57-6.47a29.44,29.44,0,0,1,12.52-2.78,1.5,1.5,0,0,0,0-3Z" fill="#bf9595"/><path d="M745.15,1517.4a28.92,28.92,0,0,0,14,16.72,27,27,0,0,0,10.73,3.18,6.07,6.07,0,0,0,5.42-2,10.27,10.27,0,0,0,1.86-5.31,25.49,25.49,0,0,0-2.76-14.67l-1.3,2.26c3.3.18,6.63,2,9.57-.45s2.82-6.25,2.45-9.61c-.21-1.9-3.21-1.92-3,0,.25,2.35.77,5.9-1.56,7.46a4.52,4.52,0,0,1-3.41.27,27.82,27.82,0,0,0-4-.67,1.51,1.51,0,0,0-1.3,2.25,22.47,22.47,0,0,1,2.52,11,11.42,11.42,0,0,1-.93,4.94c-.89,1.73-2.56,1.71-4.29,1.5a25.72,25.72,0,0,1-15.88-8.53,24.65,24.65,0,0,1-5.17-9.09c-.57-1.84-3.47-1-2.89.8Z" fill="#bf9595"/><path d="M765.76,1425.7c0-3.42-.08-6.85,0-10.26a2.76,2.76,0,0,1,1.78-2.89,12.31,12.31,0,0,1,3.46-1c1-.12,2.26-.09,2.84.93.72,1.25.67,3.13.81,4.53a95.68,95.68,0,0,1,.43,10.3,1.5,1.5,0,0,0,2.94.4c2.08-7,10.22-13,17.66-10.64,4.56,1.42,4.52,6.59,3.46,10.44-1.19,4.4-3.82,8.24-6.35,12-1.08,1.6,1.52,3.11,2.6,1.52a50.39,50.39,0,0,0,6.15-11.1c1.29-3.64,1.92-8.1.07-11.67-3.67-7.08-14.26-4.91-19.47-1.1a18.75,18.75,0,0,0-7,9.78l3,.4a92.94,92.94,0,0,0-.73-12.92c-.23-1.75-.58-3.49-2-4.69a5.73,5.73,0,0,0-4.37-1.15c-2.89.28-6.89,1.4-7.92,4.48-.59,1.79-.32,3.89-.32,5.74v6.9a1.5,1.5,0,0,0,3,0Z" fill="#bf9595"/><path d="M684.1,1488.58c5.09-3,11.09-3.37,16.86-3.4,5.24,0,11.6-.44,16,3,1.5,1.18,3.64-.93,2.12-2.12-5-4-11.56-3.91-17.67-3.89-6.44,0-13.12.45-18.79,3.81a1.5,1.5,0,0,0,1.51,2.59Z" fill="#bf9595"/><path d="M687.93,1461.09a14.12,14.12,0,0,1,3.65-3.7,10.31,10.31,0,0,1,5-1.07,13.89,13.89,0,0,1,5.41.4,11.36,11.36,0,0,1,4.21,3.33c1.32,1.42,3.44-.71,2.12-2.12a14.34,14.34,0,0,0-5.19-4,17,17,0,0,0-6.91-.62,12.59,12.59,0,0,0-6.28,1.56,18.28,18.28,0,0,0-4.59,4.69,1.51,1.51,0,0,0,.54,2.05,1.53,1.53,0,0,0,2-.54Z" fill="#bf9595"/><path d="M669.48,1447.86l.11,4.22a7,7,0,0,0,.22,2,3.54,3.54,0,0,0,1.4,1.91,8.28,8.28,0,0,0,3.71,1.09,19.5,19.5,0,0,0,2.15.19,2.89,2.89,0,0,0,2.31-.65,2,2,0,0,0,.46-1.85,5.76,5.76,0,0,0-.53-1.19l-1.07-2.13a1.51,1.51,0,0,0-2-.54,1.53,1.53,0,0,0-.54,2l.76,1.51.34.69a3.93,3.93,0,0,0,.21.41c-.08,0-.07-.42-.06-.45l.39-.66s.5-.25.5-.19h-.41l-.83,0-.83-.07-.45,0-.12,0a14.2,14.2,0,0,1-1.6-.34,2.46,2.46,0,0,1-.29-.09c-.15,0-.21-.08,0,0l-.31-.16-.15-.09.08.06s-.24-.28-.11-.11-.14-.34,0-.1,0-.14,0-.18c-.11-.37,0,.29,0-.1s0-1.06,0-1.58l-.09-3.6a1.5,1.5,0,0,0-3,0Z" fill="#bf9595"/><path d="M693.87,1465a6.51,6.51,0,0,0-2.72,6.92,1.51,1.51,0,0,0,1.85,1,1.53,1.53,0,0,0,1-1.84,3.06,3.06,0,0,1-.1-.51l0,.39a5.31,5.31,0,0,1,0-1.26l0,.4a6.11,6.11,0,0,1,.22-.94,1.36,1.36,0,0,1,.11-.28l-.1.22.07-.14c.07-.14.14-.29.22-.42s.19-.27.27-.41c-.21.36-.13.18,0,.07l.18-.19a3.76,3.76,0,0,1,.35-.34l.11-.09-.19.14a1.38,1.38,0,0,1,.25-.17,1.5,1.5,0,1,0-1.52-2.59Z" fill="#bf9595"/><path d="M732.41,1508.33a21,21,0,0,0-9.3,10.58c-1.71,4.25-2.76,11.35,2.22,13.85,1.73.86,3.25-1.73,1.52-2.6-3.72-1.86-2-8.06-.61-11a18,18,0,0,1,7.68-8.26c1.7-.92.19-3.51-1.51-2.59Z" fill="#bf9595"/><path d="M740.44,1432.19c-2.79-1.67-4.52-4.57-6.91-6.7a12,12,0,0,0-4.49-2.62,20.43,20.43,0,0,0-6.28-.58,1.51,1.51,0,0,0-.76,2.79,18.31,18.31,0,0,1,4.35,4,1.52,1.52,0,0,0,2.13,0,1.55,1.55,0,0,0,0-2.12,21.07,21.07,0,0,0-5-4.45l-.75,2.8a17.44,17.44,0,0,1,5.62.52,9.34,9.34,0,0,1,3.71,2.45c2.26,2.22,4.07,4.87,6.83,6.52a1.5,1.5,0,0,0,1.52-2.59Z" fill="#bf9595"/><path d="M695.54,1265.18c-6,5.34-4.29,16.78,3,20.13,3.81,1.74,17.05-4.13,19.6-.81,1.77,2.29-6.58,11.43-7.75,14.06-1.91,4.27-6.22,6.91-10.4,9s-8.65,4.06-11.57,7.73-3.52,9.67.08,12.65a10.13,10.13,0,0,0,4.81,2c10.84,1.88,22.4-6.4,24.11-17.27a12.44,12.44,0,0,1,.92-3.88c1.64-3.16,6.59-3.38,9.17-.92s3,6.56,1.91,10-3.34,6.27-5.57,9.06c3.33.94,6.9,2,9,4.8s1.53,7.68-1.79,8.64a10.29,10.29,0,0,0,17.73-9.39c-.55-2.05-1.73-4-1.53-6.11a9.63,9.63,0,0,1,1.88-4.19l14.17-21.56a15.57,15.57,0,0,1,3.63-4.27c4.64-3.31,11.63-.22,14.29,4.82s2.13,11.11,1.19,16.73c-.44,2.63-.93,5.44.17,7.86,1.27,2.79,4.45,4.34,7.51,4.45,7,.27,10.89-5.82,12.82-12.52s.83-13.85-.29-20.73c-1.9-11.62-1.8-23.24-3.69-34.86a5.74,5.74,0,0,0-1.09-3,5.64,5.64,0,0,0-3.49-1.42c-34.66-5.25-69.71,3.76-103.59,12.7" fill="#8c8b8b"/><path d="M694.48,1264.12c-4.13,3.79-5,10.11-3.09,15.22a13.43,13.43,0,0,0,5,6.48,8.35,8.35,0,0,0,6,1.19c2.62-.32,5.19-.94,7.78-1.45,1.89-.36,4.35-1,6.19-.44a3.77,3.77,0,0,1,.5.23c.24.11-.07,0,0-.08s0,.07,0,.13a8,8,0,0,1-.95,2.32,60.74,60.74,0,0,1-4.24,6.21c-.65.88-1.31,1.76-1.91,2.67s-1,1.93-1.6,2.85c-1.91,2.92-5.08,4.81-8.1,6.39-6,3.14-13.54,6.14-15.24,13.52a10.08,10.08,0,0,0,1.69,8.75c2.22,2.67,6,3.46,9.32,3.56a23.36,23.36,0,0,0,17.1-7.23,22.49,22.49,0,0,0,5.06-8.09,27.49,27.49,0,0,0,1.08-4.9c.25-1.44.68-2.75,2.09-3.39a5.09,5.09,0,0,1,6.7,3c1.36,3.32.21,7-1.54,9.88a46,46,0,0,1-3.56,4.9,1.52,1.52,0,0,0,.67,2.5c2.93.84,6.7,1.8,8.41,4.6,1.07,1.76,1.12,5.18-1.22,6a1.51,1.51,0,0,0-.66,2.5,12.24,12.24,0,0,0,11.47,3.66,12,12,0,0,0,8.77-14.51c-.67-2.51-2.22-4.75-.91-7.33A74.85,74.85,0,0,1,754,1316l4.9-7.46,4.91-7.47c1.3-2,2.56-4.35,4.74-5.48,3.47-1.81,7.76.24,10.13,2.92,3.28,3.71,3.29,9.36,2.8,14s-2.45,10.15,1,14.24c2.74,3.24,7.77,4.18,11.69,2.88s6.58-4.51,8.31-8.06a31.26,31.26,0,0,0,3-14.56c-.13-5.64-1.39-11.16-2.06-16.75-.7-5.87-1-11.78-1.55-17.67-.25-2.94-.54-5.87-.93-8.79-.31-2.3-.32-5.29-1.9-7.15s-4.2-1.94-6.41-2.24q-4.25-.59-8.52-.9a154.37,154.37,0,0,0-17.21-.29c-23.12.85-45.79,6.19-68.1,12l-8.41,2.21a1.5,1.5,0,0,0,.79,2.9c21.52-5.68,43.22-11.37,65.44-13.42a160,160,0,0,1,32.75.11c1.38.16,2.76.33,4.13.54a6.3,6.3,0,0,1,3.06.85,4.14,4.14,0,0,1,1,2.57c.25,1.5.46,3,.64,4.51.68,5.55,1,11.13,1.48,16.69s1.24,11.26,2.08,16.88c.78,5.2,1.31,10.65,0,15.82-.94,3.75-2.59,7.8-5.64,10.33a8.61,8.61,0,0,1-10.5.41c-1.87-1.44-2.28-3.62-2.12-5.87.17-2.42.75-4.8,1-7.22.5-4.72.29-9.86-2.18-14.07a13.43,13.43,0,0,0-9.24-6.36c-4.44-.67-7.77,1.53-10.23,5.07-3.19,4.59-6.17,9.35-9.24,14l-4.64,7c-1.33,2-3,4.11-3.17,6.61s1.22,4.63,1.7,7a8.89,8.89,0,0,1-.78,5.55,8.57,8.57,0,0,1-9.65,4.72,9.06,9.06,0,0,1-4.91-2.84l-.66,2.51c3.78-1.25,4.93-5.76,3.56-9.23-1.73-4.33-6.66-5.94-10.76-7.11l.67,2.51c4.2-5.27,9.41-12.89,4.9-19.63a8,8,0,0,0-7.74-3.54,6.68,6.68,0,0,0-5.87,5.9,21.66,21.66,0,0,1-3.24,9.07,21,21,0,0,1-6.81,6.25,19.65,19.65,0,0,1-8.94,2.69c-3,.13-7.15-.28-8.86-3.14-1.52-2.55-.87-6,.61-8.39,1.86-3.06,5.25-5,8.35-6.55s6.58-3.15,9.48-5.4a18.39,18.39,0,0,0,3.56-3.6c.72-1,1.17-2.12,1.82-3.16,1.24-2,2.73-3.78,4.08-5.68a21.67,21.67,0,0,0,3.4-6,3.34,3.34,0,0,0-2.15-4.4c-2-.71-4.4-.3-6.45,0-2.61.43-5.17,1.08-7.77,1.51a16,16,0,0,1-3.09.25,4,4,0,0,1-2.29-.9c-4.27-2.85-5.66-9.25-3.63-13.84a9.42,9.42,0,0,1,2.3-3.15c1.43-1.31-.7-3.43-2.12-2.12Z" fill="#8c8b8b"/><path d="M766,1247.38a29.71,29.71,0,0,0-14.92,4.51c-1.77,1.11-3.56,2.64-3.81,4.72-.38,3.19,2.91,5.46,5.72,7s6,4,5.42,7.16a6.76,6.76,0,0,1-2.37,3.53,27.24,27.24,0,0,1-6.88,4.6c-1.9.88-4.22,1.95-4.38,4a5.4,5.4,0,0,0,1,3c1.29,2.2,2.86,4.61,5.36,5.13,2.9.6,5.53-1.6,8-3.26,5.88-4,13.65-5.42,20.31-2.94s11.77,9.15,11.64,16.25c-.07,3.62-.7,8.5,2.72,9.67,2,.68,4.12-.59,5.32-2.28,2.12-3,2.12-6.92,2-10.58a359.81,359.81,0,0,0-3.65-38.91c-.39-2.62-.93-5.47-2.93-7.21a10.74,10.74,0,0,0-5-2,81.83,81.83,0,0,0-21-1.61" fill="#c6abab"/><path d="M766,1245.88a32.06,32.06,0,0,0-12,2.76c-3.12,1.38-7.31,3.54-8.11,7.21s1.92,6.29,4.66,8.07c2.1,1.36,6.92,3.23,6.42,6.46-.29,1.81-2.35,3.28-3.7,4.31a28.6,28.6,0,0,1-5.17,3.06c-3.18,1.5-6,3.93-4.26,7.72,1.37,3,3.8,6.62,7.33,7.17,4,.63,7.07-2.6,10.27-4.43,6.48-3.72,14.95-4.28,21.25.12a16.61,16.61,0,0,1,6.11,8c1.09,3.18.54,6.26.74,9.53.18,2.92,1.31,6.08,4.58,6.62,3.77.62,6.63-2.77,7.72-6,1.31-3.85.8-8.21.61-12.2q-.36-7-1-14.07t-1.52-14q-.45-3.51-1-7a21,21,0,0,0-1.29-5.32c-1.63-3.84-5.14-5-8.94-5.71a84.13,84.13,0,0,0-13.52-1.5c-2.24-.07-4.48,0-6.72.07-1.92.1-1.93,3.1,0,3a83.73,83.73,0,0,1,12.47.3q3.15.32,6.26.89a18.94,18.94,0,0,1,5.25,1.39c3.27,1.69,3.39,6.19,3.85,9.39q.92,6.4,1.58,12.86c.88,8.38,1.65,16.86,1.74,25.29,0,3.13-.19,7.58-3.33,9.29s-3.81-2.22-3.82-4.42c0-3,.24-5.92-.71-8.86a19.47,19.47,0,0,0-4.93-7.91c-4.9-4.8-11.78-6.47-18.46-5.38a25.37,25.37,0,0,0-9.85,3.9c-2.55,1.7-6,4.88-9,2.19a14.72,14.72,0,0,1-2.81-4c-.88-1.62-.39-2.6,1.13-3.49s3-1.47,4.49-2.34a29.06,29.06,0,0,0,4.52-3.35c2.48-2.23,4-5.29,2.23-8.46-1.59-2.85-4.66-4.11-7.25-5.83a7.39,7.39,0,0,1-3-3.09c-.59-1.51.29-2.87,1.39-3.85,2.68-2.4,6.55-3.84,10-4.66a28.62,28.62,0,0,1,5.67-.75c1.93-.06,1.94-3.06,0-3Z" fill="#c6abab"/><path d="M734,1294.3c-13.33,5.47-27,11.15-37.5,21-1.93,1.81-3.88,4.55-2.61,6.87a4.77,4.77,0,0,0,2.55,2,11.38,11.38,0,0,0,11-2,17,17,0,0,0,5.69-10,4.56,4.56,0,0,0,6.56-2.56c.3-1.18.11-2.49.62-3.59.83-1.76,3-2.3,5-2.62l5.83-1a12.53,12.53,0,0,1,5.87,0,7.21,7.21,0,0,1,4.63,5.51,9.87,9.87,0,0,1-1.6,7.18c-1,1.55-2.47,3.14-2.17,5,.42,2.49,3.59,3.24,6.11,3.43a2.83,2.83,0,0,0,1.33-.12,2.4,2.4,0,0,0,1.12-1.56c1.18-3.84-.72-8,0-12,.23-1.3.75-2.54,1-3.84a10.81,10.81,0,0,0-13.28-12.75" fill="#c6abab"/><path d="M733.59,1292.86c-10.65,4.37-21.47,8.8-30.92,15.51a69.92,69.92,0,0,0-6.61,5.29c-1.87,1.7-3.81,3.81-4,6.45-.56,5.93,7.54,6.92,11.66,5.7,6-1.77,9.64-7.3,10.89-13.15l-2.21.89a6.14,6.14,0,0,0,7.73-1.46c1.14-1.42,1.07-2.92,1.37-4.62s2-2.11,3.5-2.41c2.08-.41,4.18-.71,6.27-1.06,1.92-.32,4.13-.76,5.95.18,3.34,1.73,3.67,6.06,2.13,9.12-1.38,2.78-4.52,5.61-2.24,8.87,1.55,2.22,5.28,3.19,7.86,2.86,4-.51,3.43-6.31,3.11-9.1a19.22,19.22,0,0,1-.18-5.86c.36-1.87,1.12-3.59,1.25-5.52.55-8.34-7.42-14.6-15.38-12.7-1.88.45-1.09,3.34.79,2.89A9.42,9.42,0,0,1,746,1305.1c-.23,1.65-.95,3.17-1.2,4.82a20.8,20.8,0,0,0,.14,5.57,19.65,19.65,0,0,1,.21,4.72c-.06.44-.15,1.61-.6,1.86s-1.7-.12-2.16-.22a4.71,4.71,0,0,1-2.84-1.28c-.92-1.22.33-2.73,1-3.72,1.9-2.75,3.08-5.9,2.4-9.28a8.72,8.72,0,0,0-5.34-6.43c-3.42-1.27-7.46,0-10.9.58-3.16.53-7.31,1-8.18,4.75-.34,1.43,0,3.12-1.26,4.15a3.06,3.06,0,0,1-3.47.34,1.53,1.53,0,0,0-2.21.9c-.91,4.3-3.18,8.55-7.32,10.5a9.6,9.6,0,0,1-6.41.73,4.35,4.35,0,0,1-2.66-1.53,2.68,2.68,0,0,1,.28-2.77c1.13-2,3.14-3.52,4.89-5a70.45,70.45,0,0,1,5.85-4.31,106.44,106.44,0,0,1,12.88-7.16c5-2.39,10.1-4.5,15.22-6.6,1.76-.73,1-3.63-.8-2.89Z" fill="#c6abab"/><path d="M605.08,1432.71c-3.32,1.2-6.23,3.31-9.42,4.83s-6.95,2.44-10.22,1.1-5.4-5.64-3.46-8.59c-2.55,4.7-7.07,8.57-12.37,9.26s-11.16-2.44-12.61-7.58c-2.1-7.46,4.89-14.11,11.11-18.72-6.23-1.4-12.9-3-17.1-7.86s-4-13.85,1.94-16.29c3.83-1.58,10-1.25,10.19-5.4.12-3.41-4.44-4.5-7.82-5s-7.62-3.51-5.67-6.31,7.66-.63,9-3.76-4.06-5.61-3.61-9c1.94-.77,4.09.32,6.18.37s4.43-2.43,2.9-3.84c-2.75-2.66-7.2-1.52-11-1.6s-8.37-4-6-7c3.11,1.45,4.48-4.72,7.79-5.6,2.27-.61,4.23,1.52,5.94,3.13s4.88,2.67,6.08.65c2.32-2.69-.8-6.54-3.51-8.85s-5.09-7-2.07-8.86,6.16,2.44,7.2,5.89c2.1-2.24,2.05-6.3,4.81-7.67s5.86,1.24,6.39,4.13-.73,5.77-2,8.44a7.15,7.15,0,0,1,8.44,4.12,11.49,11.49,0,0,0,1.14,2.83c1,1.31,2.75,1.64,4.29,2.2,4.47,1.64,7.53,5.67,10.59,9.33s6.78,7.35,11.52,7.81,9.92-4.38,8-8.73c1.84-1.66,4.78.36,5.79,2.62s1.42,5.05,3.48,6.43c2.81,1.87,7.55.26,9.3,3.15.59,1,.6,2.19,1.12,3.2,1.68,3.25,7.19,2.39,9.2,5.45,1.35,2,.44,4.75-.51,7l-7.27,17.41c-1.13,2.71-2.29,5.57-2,8.5.2,2.22,1.2,4.31,1.39,6.53s-.84,4.86-3,5.28q-2.64-13.59-5.29-27.19c-.21-1.1-.52-2.34-1.51-2.88a3.9,3.9,0,0,0-2.94.09l-19.21,5.78c-1.57.47-3.25,1-4.19,2.35a7.46,7.46,0,0,0-.9,4.36v27.3" fill="#8c8b8b"/><path d="M604.68,1431.26c-4.92,1.84-9.19,5.79-14.51,6.45a6.74,6.74,0,0,1-6.14-1.92,4.25,4.25,0,0,1-.75-5l-2.59-1.52c-3.13,5.64-9.44,10.24-16.09,8a9.36,9.36,0,0,1-6.11-5.82c-1-3.18.13-6.31,1.92-9a35.47,35.47,0,0,1,8.46-8.21c1-.71,1-2.43-.36-2.74-6.35-1.43-15.17-3.27-18-10a10.56,10.56,0,0,1-.14-8.11c1.21-2.74,3.69-3.48,6.39-4.1,2.51-.57,5.73-1.08,7.2-3.48,1.64-2.68.15-5.76-2.4-7.14-2.83-1.52-6.27-1.11-9-2.77-.86-.53-2.44-1.69-1.71-2.85.57-.9,2-1,3-1.09,2.89-.33,6.68-1,6.52-4.76a7.31,7.31,0,0,0-1.94-4c-.84-1.08-2-2.26-1.87-3.73l-1.1,1.45c1.92-.64,3.83.44,5.78.42a5.3,5.3,0,0,0,3.77-1.7,3.46,3.46,0,0,0,.83-3.79,5.91,5.91,0,0,0-3.65-2.66c-3.18-1-6.41.12-9.61-.33-1.87-.26-5.83-2.39-4.14-4.69l-1.7.69c3.18,1.32,5.06-2.25,6.77-4.2,1.21-1.39,2.35-1.88,4-.71s2.84,2.83,4.78,3.66c1.64.71,3.71.94,5.16-.32a5.23,5.23,0,0,0,1.63-5.24,12,12,0,0,0-3.49-5.37c-1.39-1.38-2.86-2.55-3.68-4.4-.52-1.18-.79-3.76,1.34-3.32s3.33,3.5,3.87,5.21a1.52,1.52,0,0,0,2.51.66,14.58,14.58,0,0,0,2.43-4.53c.51-1.27,1.24-3.08,2.88-3s3.11,1.81,3.38,3.37c.44,2.51-.79,5.08-1.81,7.29a1.52,1.52,0,0,0,1.69,2.2,5.71,5.71,0,0,1,5.06,1.09c1.75,1.42,1.67,3.62,2.94,5.33s3.37,2.07,5.25,2.81a16.12,16.12,0,0,1,5.4,3.86c3.11,3.16,5.53,7,9,9.76,3.2,2.57,7.51,4.49,11.6,3s7.53-5.73,5.74-10.1l-.38,1.46c.78-.63,2,.43,2.54,1a9.2,9.2,0,0,1,1.64,3.37c.89,2.46,2.09,4.7,4.7,5.63,2.06.74,4.48.27,6.46,1.19,1,.49,1.17,1.52,1.46,2.53a5.83,5.83,0,0,0,1.94,3.08c1.68,1.35,3.84,1.66,5.79,2.43a3.81,3.81,0,0,1,2.2,1.69c.62,1.26.15,2.8-.28,4-1.14,3.3-2.67,6.5-4,9.72s-2.81,6.67-4.18,10c-1.43,3.51-2.21,6.88-1.27,10.62.51,2.05,2.3,7-1,7.79l1.85,1L636.84,1402l-.94-4.86a28.28,28.28,0,0,0-1-4.4c-1.06-2.8-3.56-3-6.13-2.28q-9.37,2.79-18.75,5.64c-2.46.74-4.92,1.71-5.9,4.29a10.45,10.45,0,0,0-.52,3.56c0,1.78,0,3.56,0,5.34v22.34a1.5,1.5,0,0,0,3,0v-26.8a10.1,10.1,0,0,1,.28-3.29,3.78,3.78,0,0,1,2.62-2.13c5.33-1.9,10.89-3.3,16.32-4.93,1.33-.4,2.65-.81,4-1.2a3.3,3.3,0,0,1,1.63-.26c.52.15.66.69.79,1.17.74,2.72,1.11,5.59,1.65,8.36l3.83,19.67a1.51,1.51,0,0,0,1.84,1c2.83-.69,4.24-3.68,4.15-6.41a23.61,23.61,0,0,0-1.06-5.06,10.78,10.78,0,0,1,.09-5.72c1.06-3.79,2.9-7.43,4.41-11s3.23-7.47,4.69-11.26c1.06-2.74,1.6-6.08-.69-8.38-1.78-1.79-4.34-2-6.56-3a3.32,3.32,0,0,1-2-1.87c-.56-1.47-.7-2.91-2-4-2-1.76-4.84-1.34-7.29-1.9-3.39-.79-3.31-4.58-4.83-7.11-1.63-2.71-5.08-4.55-7.84-2.34a1.44,1.44,0,0,0-.39,1.46c1.37,3.34-2.06,6.42-5.2,6.82-4.06.51-7.74-2.85-10.25-5.59-2.81-3.06-5.16-6.53-8.48-9.08a17.51,17.51,0,0,0-5.33-2.74,5.55,5.55,0,0,1-2.26-1.1c-.73-.73-.85-1.94-1.23-2.86a8.69,8.69,0,0,0-10.15-4.86l1.69,2.2c1.35-2.94,2.71-6.06,2.15-9.36a7.25,7.25,0,0,0-4.66-5.52,5.26,5.26,0,0,0-6,2.14c-1.3,1.85-1.53,4.33-3,6l2.51.67c-1.07-3.37-4.14-8.68-8.47-7.23-4.51,1.51-3.15,6.78-1,9.66,1.31,1.74,3.15,3,4.44,4.71.82,1.12,2.23,3.75.27,4.62-.69.31-1.76-.21-2.35-.55a14.43,14.43,0,0,1-2.39-2c-1.65-1.47-3.69-2.81-6-2.2-1.81.48-3,2-4.14,3.42-.69.89-1.62,2.69-2.85,2.18a1.52,1.52,0,0,0-1.69.69c-1.69,2.3-.61,5.1,1.34,6.83,2.35,2.07,5.1,2.52,8.13,2.37a29.46,29.46,0,0,1,4.6-.06c.62.06,3.16.51,3.21,1.35,0,.38-.78.86-1,1a3.4,3.4,0,0,1-2.14.06c-1.79-.32-3.51-.76-5.29-.16a1.59,1.59,0,0,0-1.11,1.44,6,6,0,0,0,1.29,4c.77,1.1,2,2.17,2.42,3.46.82,2.38-4,2.12-5.31,2.37-3,.62-5.39,3.49-3.68,6.55A8.28,8.28,0,0,0,552,1379a19.62,19.62,0,0,0,4.76,1.23c1.56.31,6.43,1.57,4.6,4.15-.68,1-2.23,1.28-3.29,1.55-1.51.39-3.06.65-4.56,1.13-6.25,2-8.1,9.12-6,14.88,3,8.27,12.54,10.77,20.23,12.5l-.35-2.74c-6.06,4.51-13.72,11.22-12,19.69,1.62,7.88,11.07,11.23,18,8.45a20.09,20.09,0,0,0,9.88-9,1.5,1.5,0,0,0-2.59-1.52c-3,5,1.5,10.65,6.56,11.37,7,1,12.16-4.24,18.22-6.5,1.8-.67,1-3.57-.79-2.9Z" fill="#8c8b8b"/><path d="M577.47,1380.34c1.37,3.63-1.78,7.52-5.33,9.1s-7.59,1.8-11.07,3.51-6.38,5.91-4.61,9.37a24.84,24.84,0,0,0,17,.49,34.31,34.31,0,0,1-3.64,20.41,14.69,14.69,0,0,0-2,5c-.21,1.78.65,3.84,2.38,4.32s3.24-.64,4.51-1.73a41.73,41.73,0,0,0,10.37-13.43c2.29,1.47,3.63,4,5.6,5.89s5.34,3,7.28,1c1.16-1.15,1.34-2.94,1.42-4.58a154.64,154.64,0,0,0-2.22-34.84c6.86-2.06,13.93,1.87,21,3.12a28.53,28.53,0,0,0,17.58-2.52,9.31,9.31,0,0,0,3-2.12,7.16,7.16,0,0,0,1.06-6.55c-1.9-6.54-10-9.42-16.7-8.43s-12.71,4.7-19,7.21c-7.08,2.81-15.07,4.11-22.34,1.83" fill="#a8a8a8"/><path d="M576,1380.74c1.11,3.26-1.88,6.18-4.64,7.4-3.55,1.57-7.56,1.77-11.07,3.51a10.57,10.57,0,0,0-5.76,7.17c-.23,1.35-.21,3.51.85,4.56a6.37,6.37,0,0,0,2.5,1,24.87,24.87,0,0,0,3,.72,26.67,26.67,0,0,0,13-.88l-1.89-1.44a33.53,33.53,0,0,1-.59,12,31.88,31.88,0,0,1-1.89,5.66c-.8,1.8-1.89,3.47-2.6,5.3-1.12,2.87-.66,7,2.74,8.09,3.7,1.17,7.2-2.84,9.43-5.23a43.54,43.54,0,0,0,7.29-10.56l-2.05.54c2.86,1.93,4.19,5.44,7.29,7.11,2.82,1.51,6.58,1.48,8.3-1.61a11.61,11.61,0,0,0,1-5.18c.1-2.18.15-4.37.16-6.55q0-6.57-.53-13.11c-.41-5-1.06-9.93-1.93-14.84l-1.05,1.84c4-1.13,8.07-.16,12,1s7.93,2.4,12.1,2.61a29.89,29.89,0,0,0,12.06-1.91c3.63-1.4,7.22-3.31,7.8-7.54.93-6.74-5-11.75-11-13.19-7.4-1.78-14.45,1.24-21.07,4.3-8.6,4-17.88,7.29-27.37,4.41-1.86-.56-2.65,2.34-.8,2.9,7.56,2.29,15.69,1.08,22.93-1.75,6.68-2.62,13.29-7.08,20.64-7.41,5.22-.24,11.87,1.92,13.46,7.5a5.87,5.87,0,0,1-.46,4.78c-1,1.49-2.94,2.29-4.54,2.94a27.32,27.32,0,0,1-11.23,2c-8.56-.3-16.64-5.93-25.32-3.48a1.54,1.54,0,0,0-1.05,1.84,153.47,153.47,0,0,1,2.34,29.34,39.59,39.59,0,0,1-.34,6.8c-.37,1.89-1.62,2.74-3.48,2.21s-3-1.91-4.19-3.32a20.29,20.29,0,0,0-4.2-4.23,1.51,1.51,0,0,0-2.06.54,41,41,0,0,1-7.1,10.25c-1.34,1.41-3,3.4-4.88,4.08s-2.74-1.36-2.43-3c.41-2,1.79-3.87,2.64-5.75a36.57,36.57,0,0,0,2.18-6.15,36.07,36.07,0,0,0,.8-13.25,1.53,1.53,0,0,0-1.9-1.45,23.86,23.86,0,0,1-16.2-.49l.89.69c-1.15-2.47.89-5.22,2.84-6.59,2.57-1.81,5.94-2.19,8.9-3a14.63,14.63,0,0,0,7.56-4.34,7.91,7.91,0,0,0,1.87-7.66c-.62-1.82-3.52-1-2.9.8Z" fill="#a8a8a8"/><path d="M639.25,1418.17c-2-9-4-18.64-.67-27.25.82-2.1,1.95-4.11,2.37-6.33s0-4.81-1.86-6.15-5-.49-5.34,1.75c-.26-3-1.22-6.79-4.21-7.21-3.78-.53-6.93,5.2-10.38,3.57a5.43,5.43,0,0,0-8.35-6.83c-1.45,1.4-3.17,3.81-4.79,2.62a2.88,2.88,0,0,1-.91-1.64c-.85-3.19-.72-6.61-1.81-9.72s-4.13-6-7.35-5.28c-3.51.81-4.77,5.06-5.4,8.61-1.67-4-3.5-8.26-7.06-10.78s-9.37-2.36-11.48,1.45c-1.55,2.8-.59,6.26.4,9.3-2.93-1.35-6.5,2.69-4.81,5.43,1.51,2.46,5.42,2.71,6.65,5.32a5.15,5.15,0,0,0-6.54,3.15c-.74,2.61,1.54,5.69,4.25,5.52l-5.23,5.52a3.36,3.36,0,0,0-1,1.53,2.53,2.53,0,0,0,1.27,2.39c3.76,2.58,10.18-.15,12.73,3.63,1.24,1.85.72,4.39-.37,6.33s-2.71,3.56-3.74,5.53-1.35,4.6.08,6.3,4.92,1.24,5.19-1c.47,2.44,1,5,2.54,6.9s4.48,3,6.57,1.68,2.39-4,3.4-6.14,4.08-3.92,5.59-2.08a33.94,33.94,0,0,0-1.16-19.52c1,3,4.36,4.61,7.49,4.58s6.08-1.34,8.93-2.63l11.1-5c1.65-.75,3.55-1.5,5.22-.8,2,.83,2.63,3.23,3,5.32l4.76,23.51" fill="#c6abab"/><path d="M640.69,1417.78c-1.63-7.27-3.38-15-1.84-22.44a27,27,0,0,1,1.73-5.33,22.32,22.32,0,0,0,1.88-5.38c.45-2.84-.32-6.34-3.09-7.77-2.6-1.34-6.47-.14-7.07,2.93l3,.4c-.35-3.66-1.73-8.9-6.37-8.74a9.6,9.6,0,0,0-4.92,2.1c-1,.66-2.73,2.26-4,1.71l.54,2c1.91-3.26.93-7.92-2.54-9.73a7.32,7.32,0,0,0-5.47-.49c-2,.64-3.07,2.19-4.63,3.51-.75.64-1,.72-1.26-.29a23.71,23.71,0,0,1-.68-3.82,24.13,24.13,0,0,0-1.49-6.78c-1.53-3.48-5.3-6.62-9.29-5.32s-5.33,5.84-6,9.52H592c-2.52-6.06-5.93-13.1-13.38-13.55a8.51,8.51,0,0,0-7.58,3.34c-2.27,3.29-1.2,7.49-.07,11l1.84-1.85c-3.5-1.41-7.42,2.14-7.12,5.7a5.79,5.79,0,0,0,3.1,4.27c1.43.87,3.34,1.41,4.17,3l1.69-2.21c-3.31-1.09-7.42.72-8.38,4.2a6,6,0,0,0,5.69,7.42l-1.06-2.56c-1.74,1.84-3.52,3.65-5.23,5.52-1.45,1.58-2,3.51-.51,5.29,2.35,2.8,6.53,2.35,9.78,2.62,1.38.12,3,.43,3.71,1.79,1,2-.36,4.3-1.47,5.89-2.26,3.22-5.5,7.23-3.17,11.34,1.77,3.11,7.61,3.33,8.34-.74h-2.89c.55,2.81,1.22,5.8,3.27,7.94a7,7,0,0,0,6.79,2.09c2.5-.74,3.64-3.06,4.46-5.32a7.62,7.62,0,0,1,1.65-3.16c.6-.55,1.63-1.26,2.32-.53a1.51,1.51,0,0,0,2.5-.66,35.9,35.9,0,0,0-1.15-20.32l-2.89.8c1.28,3.48,4.63,5.41,8.23,5.66,4.37.31,8.54-2,12.39-3.72l6.66-3c1.67-.76,4.37-2.59,6.27-1.84,1.48.59,1.87,2.65,2.16,4,.52,2.39,1,4.79,1.46,7.19l3.37,16.65c.39,1.89,3.28,1.09,2.9-.8l-3-14.69-1.49-7.35a18.21,18.21,0,0,0-1.55-5.26,5.37,5.37,0,0,0-4.23-2.88c-2.16-.19-4.19.89-6.09,1.76-4.29,1.95-8.54,4.13-12.94,5.8-3.5,1.33-9.58,2.26-11.27-2.32-.66-1.79-3.55-1-2.89.8a33,33,0,0,1,1.15,18.72l2.51-.66c-1.65-1.76-4.14-1.35-5.91,0-2,1.53-2.47,3.75-3.42,6a3.74,3.74,0,0,1-2,2.3,3.59,3.59,0,0,1-3-.58c-2.38-1.53-2.89-4.79-3.39-7.35a1.51,1.51,0,0,0-2.89,0c-.16.9-1.24,1.08-2,.78-1.41-.54-1.3-2.55-1-3.73,1-3.5,4.37-5.73,5.25-9.33.77-3.2-.49-6.38-3.64-7.59-2.61-1-5.46-.44-8.14-1a5.28,5.28,0,0,1-2-.77c-.92-.67-.64-1.1,0-1.82l5.07-5.35a1.52,1.52,0,0,0-1.06-2.56,3,3,0,0,1-2.7-3.92,3.73,3.73,0,0,1,4.59-1.8,1.52,1.52,0,0,0,1.7-2.21,7.15,7.15,0,0,0-2.82-2.74,15.25,15.25,0,0,1-3.42-2.08c-1.7-1.72.6-4.57,2.7-3.72,1.07.43,2.18-.84,1.85-1.85-.85-2.61-2.1-6.2-.23-8.66,1.27-1.67,3.62-2.09,5.58-1.8,5.5.81,8,6.75,9.9,11.29.5,1.19,2.59,1.64,2.89,0,.44-2.43,1.07-6.08,3.56-7.29,3.36-1.63,6,2.56,6.68,5.25.5,2,.63,4,.94,6,.26,1.7.52,3.91,2.08,5,3.31,2.2,5.19-2.5,7.67-3.55a4,4,0,0,1,4.93,5.71,1.51,1.51,0,0,0,.54,2c3.45,1.46,5.87-1.15,8.67-2.74,1.21-.69,2.63-1,3.65.17s1.37,3.27,1.53,4.91,2.59,2.19,2.94.4a1.87,1.87,0,0,1,2.5-1.19c1.49.47,1.93,2.39,1.91,3.75a14.3,14.3,0,0,1-1.61,5.35,30.61,30.61,0,0,0-2,5.83c-1.74,8.06,0,16.35,1.8,24.24.42,1.89,3.32,1.09,2.89-.79Z" fill="#c6abab"/><path d="M574.94,1354.62a50.34,50.34,0,0,0-.71-15.73c-.27-1.33-.71-2.81-1.91-3.45-1.55-.84-3.65.37-4.11,2.08a5,5,0,0,0,1.67,4.76,14.84,14.84,0,0,0,4.59,2.59" fill="#c6abab"/><path d="M576.44,1354.62a51.35,51.35,0,0,0,.18-9.36c-.12-1.6-.32-3.2-.58-4.78a16.85,16.85,0,0,0-1-4,4.18,4.18,0,0,0-5.95-2.22,5,5,0,0,0-2.1,6.39c1.21,3.11,4.18,4.5,7.07,5.7a1.52,1.52,0,0,0,1.85-1,1.55,1.55,0,0,0-1-1.85c-2-.84-4.79-2-5.24-4.43a1.9,1.9,0,0,1,1-2.17c.76-.37,1.31,0,1.66.72a13.06,13.06,0,0,1,.85,3.55q.36,2.16.51,4.35a51.19,51.19,0,0,1-.19,9.18,1.5,1.5,0,0,0,3,0Z" fill="#c6abab"/><path d="M571.51,1363.23c-7.16.13-10.9-10.27-18.06-10.53a3.61,3.61,0,0,0-2.9,1,1.85,1.85,0,0,0,.28,2.76,2.58,2.58,0,0,0,1.56.18,15,15,0,0,0,6.16-2.13" fill="#c6abab"/><path d="M571.51,1361.73c-4.6,0-7.75-4.8-11-7.42a12.49,12.49,0,0,0-6.62-3.08,5.47,5.47,0,0,0-4.12,1.12,3.57,3.57,0,0,0-1,4c.83,1.94,2.89,1.93,4.67,1.63a16.59,16.59,0,0,0,5.8-2.18,1.5,1.5,0,0,0-1.51-2.59,13.48,13.48,0,0,1-5.41,1.93c-.53,0-1.1.25-.76-.4.21-.39.86-.5,1.24-.54,2.29-.25,4.46,1.28,6.1,2.69,3.72,3.21,7.15,7.84,12.54,7.83a1.5,1.5,0,0,0,0-3Z" fill="#c6abab"/><path d="M571,1394.31c-1.4,1.71-3.57,2.58-5.28,4s-3,4-1.71,5.79a3.69,3.69,0,0,0,4.11,1.17,7.25,7.25,0,0,0,3.51-2.83,14.9,14.9,0,0,0,2.85-9.27" fill="#c6abab"/><path d="M569.92,1393.25c-1.52,1.8-3.81,2.63-5.54,4.21s-3,4.14-2.14,6.43a5,5,0,0,0,6,2.87c2.49-.62,4.33-2.83,5.54-5a16.59,16.59,0,0,0,2.16-8.65c-.05-1.93-3.05-1.94-3,0a13.55,13.55,0,0,1-1.1,5.85,9.52,9.52,0,0,1-3.48,4.49,3.25,3.25,0,0,1-1.07.41c-.17,0,0,0,0,0l-.33,0h-.5c.1,0,.1,0,0,0a4.94,4.94,0,0,1-.55-.15c.17.06-.07,0-.09,0a1.48,1.48,0,0,1-.27-.16c.13.1-.2-.18-.25-.23s.09.14-.06-.08c0,0-.18-.32-.11-.16,0-.09-.06-.2-.1-.3s0-.25,0-.11c0,0,0-.39,0-.52s0-.05,0,0a3,3,0,0,1,.07-.32,3.93,3.93,0,0,1,.17-.52,5.13,5.13,0,0,1,1.53-2c1.71-1.39,3.82-2.25,5.28-4a1.55,1.55,0,0,0,0-2.13,1.52,1.52,0,0,0-2.12,0Z" fill="#c6abab"/><path d="M580.71,1395.59a22.52,22.52,0,0,0-.31,7,23.53,23.53,0,0,0,.71,3.63,11.08,11.08,0,0,0,1.2,3c1.44,2.19,4.17,1.95,5.87.21,1.31-1.33,1.54-3.47,3-4.61l-1.46.39,3.71,1.21a1.5,1.5,0,1,0,.8-2.89,37.35,37.35,0,0,0-3.71-1.21c-1.25-.28-2.21,1-2.77,2-.46.77-.75,1.62-1.19,2.4a3,3,0,0,1-.76.9s-.41.23-.32.2c-.06,0-.48.06-.27.08s-.2,0-.14,0a1.24,1.24,0,0,1-.34-.48,8.42,8.42,0,0,1-.49-1.26,19.84,19.84,0,0,1-.76-3.2,18.94,18.94,0,0,1,.15-6.46,1.54,1.54,0,0,0-1-1.85,1.52,1.52,0,0,0-1.85,1Z" fill="#bf9595"/><path d="M584.07,1369.47a4.32,4.32,0,0,0-5-.27,6.83,6.83,0,0,0-2.85,4.4c-.8,3.19-1.58,7.25.49,10.12a1.54,1.54,0,0,0,2,.54,1.51,1.51,0,0,0,.54-2c-1.41-2-.87-4.56-.4-6.84a6.6,6.6,0,0,1,1.2-3.17,1.79,1.79,0,0,1,1.06-.64,1.1,1.1,0,0,1,.46,0c-.13,0,.23.06.27.07-.2,0,.18.13,0,0a1.55,1.55,0,0,0,2.12,0,1.51,1.51,0,0,0,0-2.12Z" fill="#bf9595"/><path d="M579.61,1358.15a14.9,14.9,0,0,0-.48-7.08,1.5,1.5,0,0,0-2.89.79c.15.48.28,1,.39,1.46a5.42,5.42,0,0,1,.13.79c0-.4,0,0,0,.06s0,.27,0,.41c0,.5,0,1,0,1.5,0,.25,0,.5-.05.75a2.07,2.07,0,0,1,0,.35c.1-.4,0,.08,0,.17a1.62,1.62,0,0,0,.15,1.16,1.56,1.56,0,0,0,.9.69,1.51,1.51,0,0,0,1.84-1Z" fill="#bf9595"/><path d="M594,1371c1.28-1.44,3.52-.37,4.43,1,1.45,2.14,1.22,4.88,1.8,7.29a4.2,4.2,0,0,0,1.63,2.6,4.45,4.45,0,0,0,3.71.18,9.26,9.26,0,0,1,7.43,1.1,1.5,1.5,0,0,0,2.25-1.29c-.12-1.13.16-2.69,1.39-3.13a1.34,1.34,0,0,1,1.72,1.65c-.69,1.81,2.21,2.59,2.89.8,1-2.74-1.6-5.66-4.38-5.53-3,.15-4.93,3.41-4.62,6.21l2.26-1.3a12.15,12.15,0,0,0-8.17-1.73c-.74.1-1.46.4-2.19.49s-.86-.16-1-.85c-.34-1.41-.38-2.88-.68-4.3-.53-2.48-1.72-5-4.1-6.13-2.13-1-4.8-1-6.46.85-1.28,1.44.84,3.57,2.12,2.12Z" fill="#bf9595"/><path d="M614.49,1391.87l-5.8-3.13-2.85-1.54a6.24,6.24,0,0,0-3.08-1c-2.3.07-3.28,2.31-3.37,4.31a8,8,0,0,0,1.38,4.77,8.12,8.12,0,0,0,4.61,3.39,1.5,1.5,0,0,0,.79-2.89,5.15,5.15,0,0,1-3.18-2.61,4.5,4.5,0,0,1-.38-3.72c.1-.19.1-.3.35-.25a3.5,3.5,0,0,1,.94.38c1,.52,2,1.06,2.94,1.59l6.14,3.31c1.69.92,3.21-1.67,1.51-2.59Z" fill="#bf9595"/><path d="M628.64,1385.38c.27-.06-.27,0-.08,0h.17a1.7,1.7,0,0,0,.22,0c-.05,0-.34-.07-.13,0l.21.06c.15,0,.15.14-.07,0a4,4,0,0,0,.35.2c.13.09.13.18,0,0a.41.41,0,0,0,.14.12c.1.1.19.21.28.31s-.18-.27,0,0l.1.15.12.21c0,.1.08.29,0-.06,0,.14.1.28.14.43l.06.22c.06.32.05,0,0,0s0,.45,0,.52a4.51,4.51,0,0,1,0,.52,1.65,1.65,0,0,1-.05.59c.05-.06,0-.26,0,0s0,.2,0,.29c-.06.37-.14.74-.22,1.11a1.5,1.5,0,0,0,2.89.8c.42-2,.75-4-.18-5.85a4.26,4.26,0,0,0-4.64-2.35,1.5,1.5,0,0,0,.79,2.89Z" fill="#bf9595"/><path d="M776,1256.78c-2.72-.19-5.58-.27-8.13.85a7.55,7.55,0,0,0-4.48,5.88c-.8,5.63,4.18,10,9.6,9.67l-1.29-2.25c-1.08,2.54-4.08,3.32-6.36,4.43s-6.51,4-4.59,6.89c1,1.54,3.36,1.44,5,1.34a19.91,19.91,0,0,0,5.61-1.18,48.09,48.09,0,0,0,10.42-5.79c.91-.62,1.82-1.25,2.74-1.86.19-.14.48-.28.66-.44.52-.44.07.07,0-.27a8.24,8.24,0,0,0,.49,1.58l2.46,7.83a1.51,1.51,0,0,0,2.5.66,9.18,9.18,0,0,0,2.93-7.73c-.21-1.89-3.21-1.92-3,0a6.43,6.43,0,0,1-2,5.61l2.51.66-2-6.45c-.49-1.54-.77-4.07-2.45-4.81s-3.54.73-5,1.69-3.1,2.13-4.69,3.13c-3.17,2-6.64,3.86-10.41,4.3a13.31,13.31,0,0,1-2.6.08,2.23,2.23,0,0,1-.66-.09c.2.09,0,.37.19.12s.35-.56.57-.8a10,10,0,0,1,3.23-2.07c2.68-1.25,5.8-2.38,7-5.32.4-1,0-2.33-1.3-2.26-3.7.22-7.47-2.55-6.57-6.59.94-4.3,6.17-4,9.58-3.81,1.93.13,1.92-2.87,0-3Z" fill="#bf9595"/><path d="M711.3,1310.08a6.83,6.83,0,0,0-8,2.42c-1.66,2.32-1.73,6.06.44,8.1,1.23,1.16,3.2,1.8,4.7.73a1.53,1.53,0,0,0,.54-2,1.51,1.51,0,0,0-2-.54l-.18.12c-.15.08-.13.07.07,0l-.2.06c.23,0,.26,0,.1,0h-.21q.35,0,.09,0c-.09,0-.51-.2-.15,0l-.4-.22q-.2-.15,0,0l-.18-.15a3.4,3.4,0,0,1-.32-.34c-.11-.13-.1-.12,0,0l-.12-.2c0-.07-.24-.52-.1-.15a4.5,4.5,0,0,1-.16-.48c0-.12-.06-.24-.08-.36s0-.17,0,0a2.29,2.29,0,0,1,0-.25,5.55,5.55,0,0,1,0-1c0,.38,0-.15.05-.22s.09-.32.14-.48.24-.55.08-.23c.07-.15.15-.3.23-.44s.18-.28.27-.42c-.19.28.11-.13.16-.18l.36-.35c.22-.21-.19.11.09-.07a5.77,5.77,0,0,1,.87-.5c-.33.15.16-.05.22-.07a3.92,3.92,0,0,1,.49-.13c.07,0,.6-.08.22,0,.16,0,.33,0,.5,0l.5,0c.17,0,.16,0,0,0l.25,0a4.53,4.53,0,0,1,1,.29,1.51,1.51,0,0,0,1.85-1,1.54,1.54,0,0,0-1.05-1.84Z" fill="#bf9595"/><path d="M406.42,1258.55c2,12.06-.43,26.56,5.47,38.13,2.51,4.91,1.58,9.61,1,15.09-.16,1.59-.71,3.19-.39,4.75,1,5,8.74,4.44,12.47,8,3.18,3,4.52,9.54,8.81,8.64l.89-14.3a52.54,52.54,0,0,1,8.07,14.53,21.52,21.52,0,0,0,.16-18.7c5-.64,7.6-6.5,7.89-11.56s-.6-10.44,1.61-15c3.78,1.33,5.47,5.81,5.6,9.81s-.81,8-.15,12c1.09,6.6,6.32,11.62,11.27,16.13,1.58,1.44,3.79,3,5.67,2a4.46,4.46,0,0,0,1.75-2.12,15.26,15.26,0,0,0-3.23-17.19l7-5a28.71,28.71,0,0,0,18.55,12.69c4.74.92,10.17.41,13.56-3s3.16-10.29-1.24-12.26c10,.52,19.5-8.29,19.74-18.29-12.09-3.26-24.87-1.72-37.38-2a124.85,124.85,0,0,1-47-10.56c-12.12-5.35-24.15-12.81-37.38-12.16" fill="#8c8b8b"/><path d="M405,1259c1.09,6.64.85,13.41,1.31,20.11a66.14,66.14,0,0,0,1.41,10.29,37,37,0,0,0,1.28,4.33c.63,1.71,1.54,3.29,2.18,5,1.22,3.24,1,6.7.6,10.08-.16,1.61-.36,3.2-.61,4.8a7.81,7.81,0,0,0,.43,4.73c2.11,4.39,8,4.23,11.6,6.66,4.07,2.74,4.77,10.75,11.05,9.64a1.52,1.52,0,0,0,1.1-1.44l.89-14.3-2.57,1.06a51.2,51.2,0,0,1,7.69,13.87c.4,1.1,2.12,1.61,2.74.35a23.33,23.33,0,0,0,.17-20.21l-.9,2.2c4.82-.72,7.6-5.42,8.55-9.81,1.25-5.71-.68-12,1.84-17.43l-1.69.69c4.68,1.77,4.67,8.14,4.38,12.21a34.66,34.66,0,0,0,.09,8.93,19.75,19.75,0,0,0,3,7.08,37.88,37.88,0,0,0,4.81,5.76,36.53,36.53,0,0,0,5.77,5.14c2.09,1.35,4.76,1.7,6.6-.25a11.74,11.74,0,0,0,2.54-6.25,16.87,16.87,0,0,0-4.83-14.54l-.31,2.36,7-5-2.05-.53a30.34,30.34,0,0,0,19.45,13.38c6.93,1.33,16.42-.55,17.65-8.83.53-3.57-.73-7.54-4.17-9.2l-.76,2.8c10.92.45,20.86-8.92,21.24-19.79a1.53,1.53,0,0,0-1.1-1.45c-8.18-2.16-16.66-2.26-25.06-2.14s-16.93.17-25.38-.93a123.74,123.74,0,0,1-24.3-5.73c-7.73-2.66-14.95-6.37-22.38-9.74-7.9-3.59-16.25-6.64-25.07-6.27-1.92.08-1.93,3.08,0,3,7.83-.33,15.3,2.18,22.36,5.32,7.24,3.21,14.24,6.9,21.68,9.65a125.34,125.34,0,0,0,24.11,6.26,146.23,146.23,0,0,0,24.74,1.5c9.53-.13,19.19-.48,28.5,2l-1.1-1.45c-.33,9.3-9,17.17-18.24,16.79a1.51,1.51,0,0,0-.76,2.8c2.26,1.08,3.07,3.53,2.78,5.91a7.55,7.55,0,0,1-4.81,6c-6.08,2.58-13.64.07-18.86-3.35a27.07,27.07,0,0,1-7.93-8,1.51,1.51,0,0,0-2-.54l-7,5a1.51,1.51,0,0,0-.3,2.35,13.89,13.89,0,0,1,4.09,11.31,13.12,13.12,0,0,1-.64,2.92c-.29.85-.72,2.17-1.53,2.65-1.79,1-4.32-1.94-5.45-3-3.32-3.1-6.75-6.5-8.49-10.78-2-5-.42-10.24-.75-15.45-.29-4.48-2.25-9.07-6.68-10.76a1.52,1.52,0,0,0-1.7.69c-2.47,5.33-1.25,11-1.87,16.57-.44,3.92-2.37,8.65-6.72,9.3-1.05.16-1.26,1.43-.9,2.2a20.09,20.09,0,0,1-.17,17.19l2.74.36a56,56,0,0,0-8.45-15.19c-.87-1.12-2.49-.09-2.56,1.06l-.89,14.3,1.1-1.45c-1.94.34-3.19-2.23-4-3.56-1.21-2-2.38-4-4.29-5.46a22.77,22.77,0,0,0-6.14-2.75c-1.64-.57-3.9-1.24-4.72-2.93-.67-1.37-.15-3,.06-4.37.24-1.7.39-3.43.55-5.13a22.4,22.4,0,0,0-.7-9.22c-.5-1.47-1.28-2.81-1.87-4.23a33.67,33.67,0,0,1-1.53-4.68,54.91,54.91,0,0,1-1.44-9.45c-.55-7.25-.3-14.56-1.48-21.75-.31-1.9-3.2-1.1-2.89.8Z" fill="#8c8b8b"/><path d="M415.2,1293.89l.28,12.79a2.87,2.87,0,0,0,.32,1.48,2.68,2.68,0,0,0,1.64.92,41.28,41.28,0,0,0,5.82,1.14,4.73,4.73,0,0,0,2.82-.26,4.45,4.45,0,0,0,1.84-2.84,17.13,17.13,0,0,0-.17-9.65,23.16,23.16,0,0,0,6.75,5.08,17.38,17.38,0,0,0-1.71-17.44c2.86-1.17,6.22,1.47,9.09.34a5.89,5.89,0,0,0,2.47-2.15c4.47-6.17,3-15.31-1.89-21.12a23,23,0,0,0-18.16-7.9,10.78,10.78,0,0,0-5.91,1.67,5.29,5.29,0,0,0-2.29,5.4" fill="#a8a8a8"/><path d="M413.7,1293.89c.09,4.1.17,8.2.27,12.3,0,1.74.36,3.23,2.09,4a21.63,21.63,0,0,0,5.22,1.26c1.68.27,3.56.68,5.19,0a5.28,5.28,0,0,0,2.74-3.39,18.34,18.34,0,0,0,0-11l-2.51,1.46a25.63,25.63,0,0,0,7.05,5.32,1.51,1.51,0,0,0,2.05-.54,19,19,0,0,0-1.7-19l-.9,2.21c2.27-.82,4.68.66,7,.68,2.52,0,4.32-1.49,5.68-3.48a17.51,17.51,0,0,0,2.2-13.53c-2.18-10.06-11.75-16.93-21.79-17.44-2.92-.15-6.17.14-8.64,1.87a6.9,6.9,0,0,0-3,7.09c.41,1.89,3.3,1.09,2.9-.8-.45-2.07,1.27-3.81,3.06-4.5a14.52,14.52,0,0,1,6.45-.61,21.71,21.71,0,0,1,11.54,4.65c5.9,4.77,9.25,13.83,5.24,20.85a7,7,0,0,1-2.06,2.48,3.7,3.7,0,0,1-2.79.28c-2.2-.43-4.38-1.23-6.59-.44a1.52,1.52,0,0,0-.9,2.21,16,16,0,0,1,1.7,15.92l2.06-.53a23.22,23.22,0,0,1-6.45-4.85,1.51,1.51,0,0,0-2.5,1.46,15.74,15.74,0,0,1,.32,8.2c-.24,1-.52,2.44-1.71,2.71s-3-.23-4.19-.47q-1-.19-2-.45c-.4-.09-1.26-.15-1.55-.46s-.2-1.22-.21-1.7l0-2.46-.21-9.35c-.05-1.92-3.05-1.93-3,0Z" fill="#a8a8a8"/><path d="M462.32,1246.93l.17,36.87c0,4,.09,8.17,2.19,11.55s7,5.33,10.16,3a7,7,0,0,1,2.4-1.6c1.26-.27,2.45.62,3.43,1.46l11.49,9.82c2.09,1.78,4.42,3.66,7.16,3.69,3.47,0,6.32-3,7.35-6.31s.7-6.86.63-10.32a2.7,2.7,0,0,1,.28-1.54c.78-1.24,2.65-.56,4-.12,4.56,1.45,9.73-1.67,11.57-6.08s.91-9.61-1.35-13.82-5.72-7.65-9.11-11" fill="#a8a8a8"/><path d="M460.82,1246.93c.06,12.91-.09,25.83.19,38.73.1,5,.94,10.46,5.35,13.5a9,9,0,0,0,6.16,1.62,6.68,6.68,0,0,0,3-1.08c1.08-.74,1.78-2,3.17-1.19a22.79,22.79,0,0,1,3.19,2.62l3.71,3.17c2.38,2,4.7,4.15,7.17,6.08,2,1.55,4.35,2.92,7,2.8a8.74,8.74,0,0,0,6.16-3.26,13.09,13.09,0,0,0,2.83-6.79,28.79,28.79,0,0,0,.23-4.45c0-.68,0-1.36,0-2,0-.27-.26-2.11,0-2.31.42-.35,2,.39,2.41.51a9.37,9.37,0,0,0,3.61.36,11.7,11.7,0,0,0,6.25-2.67c4.7-3.85,5.44-10.39,3.68-15.92-1.94-6.12-6.53-10.79-11-15.21a1.5,1.5,0,0,0-2.12,2.13c3.71,3.68,7.68,7.53,9.7,12.46,1.8,4.38,2.08,10-1.49,13.59a8.65,8.65,0,0,1-5.38,2.65c-2.11.16-4-1.25-6.14-.86-2.75.51-2.57,3.3-2.51,5.49a24,24,0,0,1-.63,8.11,7.82,7.82,0,0,1-4,4.8c-2.28,1-4.56-.12-6.41-1.5-2.25-1.67-4.33-3.63-6.46-5.46s-4.43-3.82-6.67-5.7c-1.82-1.52-4-2.69-6.22-1.25a13.73,13.73,0,0,1-2.48,1.75,4.52,4.52,0,0,1-2.65.1c-4.91-1.15-6.14-6.43-6.33-10.8-.3-6.5-.11-13.05-.14-19.55l-.09-20.43a1.5,1.5,0,0,0-3,0Z" fill="#a8a8a8"/><path d="M426.35,1259a21.32,21.32,0,0,0-2.78,11.92c.37,3.63,2,7.06,2.16,10.7a13.21,13.21,0,0,1-4.85,10.64c-1,.84-2.28,1.6-2.74,2.85a9.59,9.59,0,0,0-.21,3,5.77,5.77,0,0,1-2.25,4.52,4.08,4.08,0,0,1-4.85-.06c-1.37-1.15-1.62-3.13-1.78-4.91l-2.94-33c-.17-1.91-.31-4,.74-5.6s3.4-2.44,5.49-2.7a23.54,23.54,0,0,1,11.93,1.65" fill="#c6abab"/><path d="M425.06,1258.2a25,25,0,0,0-3.06,10.48c-.14,3.84,1.38,7.33,2,11a12,12,0,0,1-2.28,9.51c-1.95,2.49-5.15,3.53-5.33,7.12-.08,1.6.14,3.12-1,4.46-.91,1.09-2.74,1.56-3.82.45s-1-2.78-1.12-4.1l-.57-6.4-2.16-24.13c-.17-1.89-.7-4.24,0-6.08.62-1.64,2.32-2.25,3.91-2.57a21.66,21.66,0,0,1,12.18,1.47c1.78.73,2.56-2.17.79-2.89a24.94,24.94,0,0,0-12.32-1.7c-3.43.42-6.92,1.93-7.66,5.68a21.44,21.44,0,0,0,.1,6.09l.62,6.89,1.25,14,.62,6.89a38.18,38.18,0,0,0,.68,5.94c.87,3.52,4.31,5.51,7.73,3.94a6.51,6.51,0,0,0,3.3-3.81,8.29,8.29,0,0,0,.45-2.42c.05-1-.24-2.17.43-3,1.07-1.37,2.76-2.2,3.89-3.56a15.4,15.4,0,0,0,2.68-4.73c1.6-4.49.26-8.73-.83-13.15-1.21-4.89-.24-9.49,2-13.9.88-1.72-1.71-3.24-2.59-1.52Z" fill="#c6abab"/><path d="M455,1263.25a10,10,0,0,0,.42,17.39c4.34,2.35,10.91,2.07,12.62,6.7.72,1.94.2,4.09-.33,6.09L466.2,1299c-1.78,6.76-3.24,14.9,1.57,20a2.6,2.6,0,0,0,1.66,1c1.43,0,2-1.79,2.15-3.22a67.15,67.15,0,0,0,.13-8.51c-.15-3.08-.49-6.3.75-9.12s4.78-4.91,7.46-3.4c1.21.68,2.11,2,3.48,2.21s2.53-2.13,1.17-2.4c1.7-1.54,4.52-.71,6.15.89s2.58,3.78,4.11,5.49,4.12,2.89,6.08,1.72c2.88-1.73,1.56-6.13-.09-9.06,2.06-1.65,4.79,1.36,7.44,1.44s4.56-3.35,3.8-6-3.15-4.5-5.54-5.88c4.51,1.37,9.65-3.23,8.78-7.86s-7.33-7-11-4.13" fill="#c6abab"/><path d="M454.2,1262a11.54,11.54,0,0,0,.1,19.81c2.87,1.71,6.29,2,9.3,3.33a5.12,5.12,0,0,1,3,2.86c.75,2.18-.33,4.82-.88,6.94-1.93,7.32-5.09,16.86-.17,23.72,1.06,1.48,2.63,3.25,4.67,2.71,1.69-.45,2.48-2.2,2.74-3.78.79-4.81-.16-9.64.11-14.45.13-2.22.79-4.47,2.75-5.73a3.85,3.85,0,0,1,2.5-.68,5.68,5.68,0,0,1,2.48,1.54c1.58,1.22,3.64,1.72,5.07,0,1.21-1.43,1-3.59-.91-4.2l.66,2.51c1-.82,2.61-.2,3.53.47a12.06,12.06,0,0,1,2.69,3.33c1.65,2.49,3.7,4.92,6.89,5.18a4.93,4.93,0,0,0,5.28-4.3c.38-2.58-.68-5.24-1.91-7.45l-.54,2c.8-.56,1.65-.09,2.45.28a14.49,14.49,0,0,0,3.36,1.26,5.19,5.19,0,0,0,5.47-2.75c2.77-5-1.49-9.44-5.57-11.84l-1.15,2.74c5.85,1.6,12.36-4.38,10.44-10.4-1.63-5.12-8.69-7.58-13.05-4.33-1.53,1.15,0,3.75,1.51,2.59a5.84,5.84,0,0,1,8.57,2.32c1.56,3.85-2.94,8-6.68,6.93a1.5,1.5,0,0,0-1.15,2.74,10.87,10.87,0,0,1,4.51,4.14,3.74,3.74,0,0,1-.7,4.47c-1.32,1.12-3,0-4.35-.6-1.68-.75-3.53-1.29-5.17-.14a1.53,1.53,0,0,0-.54,2c.9,1.62,2.23,4.29,1.38,6.17-1.15,2.53-4.35.21-5.41-1.12-1.65-2.1-2.75-4.66-5.11-6.11a5.82,5.82,0,0,0-6.87.2,1.5,1.5,0,0,0,.66,2.5s-.57-.77-.5-.74-.08.16-.09.15-.34,0-.25,0c-.65-.07-1.56-1.18-2.07-1.54a5.78,5.78,0,0,0-4.49-1c-3.32.62-5.66,3.59-6.35,6.75-.88,4-.06,8.3-.15,12.39,0,1.1-.07,2.2-.16,3.31,0,.52-.05,1.62-.48,2s-.81-.32-1.16-.73a9.63,9.63,0,0,1-1.39-2.22c-1.37-3-1.24-6.58-.76-9.77a110.81,110.81,0,0,1,2.66-11.22c.91-3.47,1.58-7.37-1.32-10.11-2.07-2-5-2.62-7.64-3.39-3.43-1-6.59-2.49-7.88-6.11a8.65,8.65,0,0,1,3.57-10.14c1.63-1,.12-3.63-1.51-2.59Z" fill="#c6abab"/><path d="M473.05,1274.43c1.37-.64,3.2-.34,4.67-.24a25,25,0,0,1,4.55.69c3,.81,5.28,2.51,6.19,5.58s.94,6.48,2.78,9.25c1.64,2.46,5.35,4.64,7.87,2,1.29-1.34,1.81-3.48,2.14-5.26a20.13,20.13,0,0,0,.18-6.34l-2.26,1.3,2.52,1.26c1.72.87,3.24-1.72,1.51-2.59l-2.51-1.26c-.89-.45-2.42.07-2.26,1.29a17.65,17.65,0,0,1-.42,7,5.38,5.38,0,0,1-1,2.43c-.79.73-1.9,0-2.53-.65-2.71-2.65-2.22-7.32-3.58-10.63s-4.46-5.48-8-6.38a29.35,29.35,0,0,0-5.36-.77,11.8,11.8,0,0,0-6,.66c-1.74.82-.22,3.4,1.52,2.59Z" fill="#bf9595"/><path d="M478.65,1286.5a2.75,2.75,0,0,0-3.22.11,6.16,6.16,0,0,0-2.07,3,32,32,0,0,0-.88,3.66l-.94,4a1.5,1.5,0,0,0,2.9.8l1.54-6.65a6.86,6.86,0,0,1,.35-1.23c-.08.2,0,0,.05-.09l.14-.25c0-.08.09-.16.14-.24s.18-.25,0-.08c.12-.15.29-.28.4-.43s-.16.07,0,0l.19-.11c.14-.12-.26.1,0,0-.07,0-.3,0-.09,0l-.19,0c.13,0,.14,0,0,0s-.1,0,0,0l.15.1a1.5,1.5,0,0,0,2.05-.53,1.54,1.54,0,0,0-.54-2.06Z" fill="#bf9595"/><path d="M412.59,1287.71c2,1.78,5,1.22,6.79-.61,2-2,2-5,1.94-7.66a1.5,1.5,0,0,0-3,0c0,.57,0,1.13,0,1.7,0,.26,0,.52,0,.78l0,.43c0,.06,0,.46,0,.07a5.18,5.18,0,0,1-.38,1.55,1.22,1.22,0,0,1-.07.17c.08-.18.08-.19,0,0l-.16.32c-.06.11-.13.21-.2.32-.18.31.18-.18,0,0l-.46.47c-.21.19.26-.18,0,0a1.88,1.88,0,0,1-.23.16l-.33.19-.09,0c-.14.07-.11.06.11,0a3,3,0,0,0-.62.2,2.16,2.16,0,0,0-.27,0c.33-.14.21,0,0,0h-.35c-.31,0,.34.08.05,0l-.3-.07c-.34-.08.24.14,0,0a1.71,1.71,0,0,0-.23-.13l-.14-.1q.27.21.09.06a1.53,1.53,0,0,0-2.12,0,1.51,1.51,0,0,0,0,2.12Z" fill="#bf9595"/><path d="M597.72,1551.53c-2.51-4.81-5.35-8.81-10.78-8.69a14.58,14.58,0,0,0,4.4-12.91c-.47-2.76-1.76-5.42-1.67-8.22.1-3.36,2.13-6.29,3.51-9.35s2-7-.3-9.46c-1.14,1.74-2.65,3.68-4.73,3.61-4.48-.14-4.95-8.85-9.42-8.51-2,.16-3.26,2.29-3.21,4.25a11.63,11.63,0,0,0,2.05,5.44c1.55,10-5.06,20.75-14.75,23.86.42-3.57.83-7.23-.07-10.7s-3.42-6.77-6.93-7.5c-4.09-.86-8.69,1.81-12.36-.19a153.92,153.92,0,0,0-.73-27.32c-.42-3.64-1.18-7.63-4.09-9.85-4.44-3.4-10.77-.7-15.63,2.07a12.74,12.74,0,0,0-24.72-5.55,130.94,130.94,0,0,0-6-18.73c-.58-1.42-1.28-2.94-2.66-3.61-3-1.46-5.94,2-7.31,5a91,91,0,0,0-6.92,22.65c-2.25-5.45-10.55-6-15-2.13s-5.73,10.27-5.69,16.17,1.1,11.84.17,17.66c-4.21-3.48-11.75-1-13.05,4.33-2.06-2.46-3.24-2.43-6.13-.89,0,3,5.43,32.06,7.15,44,24.61-.76,49.19,5,73.81,7.65,18.62,2,37.38,2.18,56.11,2.37l20.48.2C592.63,1561.78,600.23,1556.35,597.72,1551.53Z" fill="#8c8b8b"/><path d="M599,1550.77c-2.57-4.88-6-9.46-12.08-9.43l1.06,2.56a16.18,16.18,0,0,0,4.9-9.76,16,16,0,0,0-.29-5.47c-.45-2-1.29-4-1.43-6.08-.26-4,2.55-7.29,3.87-10.84,1.22-3.31,1.34-7.14-1.11-9.91a1.5,1.5,0,0,0-2.35.3c-.84,1.26-2.32,3.53-4.12,2.69-1.2-.56-1.92-2.1-2.55-3.18-1.46-2.54-3.43-5.84-6.91-5.05a5.47,5.47,0,0,0-3.9,4.6,7.41,7.41,0,0,0,.34,3.49c.41,1.27,1.39,2.42,1.71,3.69a15.18,15.18,0,0,1-.34,6.53,21.35,21.35,0,0,1-2.35,5.95,20.3,20.3,0,0,1-11.05,9.24l1.9,1.45c.7-6,1.1-13-3.88-17.42a9.87,9.87,0,0,0-7.56-2.41c-2.76.22-6,1.46-8.66.14l.74,1.3a155.64,155.64,0,0,0-.62-26.35c-.36-3.28-.75-6.79-2.6-9.61a9.49,9.49,0,0,0-8.35-4.3c-4,.11-7.74,1.94-11.14,3.86l2.26,1.3c.68-6.93-4.41-14.06-11.31-15.39a14.78,14.78,0,0,0-16.36,9.44h2.9q-1.55-6.37-3.7-12.59c-.73-2.06-1.49-4.11-2.32-6.14a9,9,0,0,0-2.76-4.14c-3.11-2.22-6.5,0-8.43,2.64a23.39,23.39,0,0,0-2.61,5.07q-1.28,3-2.33,6.09a91.86,91.86,0,0,0-3.65,14.43l2.74-.36c-2.55-5.81-10.47-6.59-15.49-3.76-6.68,3.76-8.15,12.56-8,19.52.12,5.42,1,10.9.2,16.3l2.51-.66c-5.2-4.11-13.8-1.55-15.55,5l2.5-.67a5.87,5.87,0,0,0-3.7-2.36,7.8,7.8,0,0,0-4.25,1.24,1.48,1.48,0,0,0-.74,1.3,36.49,36.49,0,0,0,.59,4.65c.44,2.82.91,5.63,1.39,8.44,1.2,7.09,2.44,14.18,3.63,21.27.56,3.33,1.11,6.65,1.59,10a1.5,1.5,0,0,0,1.45,1.1c20.94-.61,41.58,3.39,62.24,6.22,20.83,2.84,41.75,3.52,62.75,3.75l25.41.25a1.5,1.5,0,0,0,1.5-1.5c-.25-3,1.88-5.63,3.23-8.11s2.45-5.43,1.07-8.3c-.84-1.73-3.43-.21-2.59,1.52,1.1,2.28-.93,5-2,6.93-1.39,2.41-2.93,5.06-2.69,8l1.5-1.5c-17.66-.17-35.35-.13-53-.88-10.48-.44-20.94-1.27-31.35-2.62s-20.71-3.06-31.08-4.43a217.62,217.62,0,0,0-35-2.29l1.45,1.1c-1.88-12.87-4.39-25.64-6.43-38.49a35.78,35.78,0,0,1-.67-5.06l-.75,1.29a4.62,4.62,0,0,1,2.51-.86c.75.14,1.35,1,1.81,1.52a1.52,1.52,0,0,0,2.51-.67c1.11-4.16,7.05-6.42,10.54-3.66.77.61,2.32.59,2.5-.66,1.19-7.83-1.06-15.76.3-23.55,1-5.76,4.39-11.73,10.94-11.68,2.79,0,5.4,1.25,6.56,3.89a1.52,1.52,0,0,0,2.74-.36,93.24,93.24,0,0,1,3.5-14c.8-2.38,1.69-4.73,2.69-7a13.66,13.66,0,0,1,3.12-4.94c1.35-1.21,2.86-1.32,3.9.29a31.44,31.44,0,0,1,2.63,6.4,131.62,131.62,0,0,1,4.17,13.91,1.52,1.52,0,0,0,2.9,0,11.25,11.25,0,0,1,21.77,5.15,1.51,1.51,0,0,0,2.26,1.29c3.25-1.83,7.32-4,11.19-3.36s5.41,4.52,6,8a105.62,105.62,0,0,1,1.19,14c.18,5,.11,10.1-.2,15.14a1.46,1.46,0,0,0,.74,1.29c2.44,1.22,5,1,7.58.62s5.23-.84,7.51.76c5,3.48,4.14,10.52,3.53,15.72a1.5,1.5,0,0,0,1.9,1.44,24,24,0,0,0,16-20.43,19.25,19.25,0,0,0,0-3.13,11.94,11.94,0,0,0-.19-1.8,6.53,6.53,0,0,0-.83-1.8c-.87-1.6-2.31-5.14.17-6.21,1.24-.53,2.18.71,2.78,1.62.87,1.31,1.54,2.74,2.47,4a5.89,5.89,0,0,0,4.5,2.76c2.77.06,4.63-2.26,6-4.36l-2.36.31c2.11,2.39.84,6.1-.38,8.6-1.55,3.16-3.49,6.37-3.26,10s2,6.79,1.83,10.4a13.17,13.17,0,0,1-4.13,8.79,1.51,1.51,0,0,0,1.06,2.56c4.89,0,7.44,4.06,9.49,8C597.32,1554,599.91,1552.48,599,1550.77Z" fill="#8c8b8b"/><path d="M454.55,1558.87a129.67,129.67,0,0,0-8.75-30.93c-1.34-3.23-2.71-7.25-.46-9.92s6.9-1.9,10,0,5.87,4.71,9.47,5.22c-3.38-11.21-6.79-22.88-5-34.44.45-2.84,1.94-6.25,4.82-6.27a6.23,6.23,0,0,1,3.42,1.41,37.77,37.77,0,0,1,12.49,14.9l1.46-13.65c.26-2.44.63-5.12,2.44-6.78,2.44-2.25,6.56-1.54,9.06.64s3.79,5.4,5,8.49c5.59-1,8.39-9.41,14-8.74,3.65.43,5.58,4.49,6.55,8a72.34,72.34,0,0,1,2.53,18.27l8.72-8.87c1.94-2,5-4.08,7.19-2.34a5.56,5.56,0,0,1,1.59,3.53,70.68,70.68,0,0,1-.49,26.61c3.42-.1,6.48-2.91,9.85-2.39,2.92.46,4.85,3.24,6.09,5.92a35.2,35.2,0,0,1,2.42,21.84c6.8.18,10.42-10.36,17.2-9.73,2.27.21,4.19,1.71,5.91,3.2,2.85,2.46,5.63,5.15,7.29,8.54s2,7.61.06,10.84" fill="#a8a8a8"/><path d="M456,1558.47a128.08,128.08,0,0,0-6.93-26.37c-.76-2-1.63-4-2.38-6a10.92,10.92,0,0,1-1-5.33c.59-3.81,5.07-3.35,7.69-2.1,3.83,1.83,6.65,5.29,11,6a1.52,1.52,0,0,0,1.85-1.84c-2.64-8.75-5.34-17.69-5.43-26.91a38.76,38.76,0,0,1,.48-6.89,8.18,8.18,0,0,1,1.76-4.24c1.33-1.39,2.92-.49,4.26.44a34.65,34.65,0,0,1,4.46,3.74,37,37,0,0,1,7.49,10.62c.7,1.49,2.66.55,2.79-.76l1.2-11.21c.27-2.57.14-6.45,2.37-8.25,2-1.61,5.05-.76,6.83.73,2.36,2,3.52,5,4.6,7.83a1.55,1.55,0,0,0,1.84,1c3.15-.66,5.4-3.1,7.57-5.3,1.75-1.78,4.17-4.33,6.94-3.14,3.31,1.44,4.22,6.35,4.94,9.44a71.14,71.14,0,0,1,1.78,15.11,1.52,1.52,0,0,0,2.56,1.06c3-3,5.91-6.17,9-9.13,1-1,2.52-2.33,4-2.29,1.74,0,1.9,2.52,2.11,3.78a69.27,69.27,0,0,1-.6,25.11,1.51,1.51,0,0,0,1.44,1.9,13.88,13.88,0,0,0,4.44-1.12,14,14,0,0,1,4.3-1.33c3-.14,4.8,2.86,5.9,5.24a33.57,33.57,0,0,1,2.27,20.68,1.52,1.52,0,0,0,1.45,1.9c5.45,0,8.57-5,12.43-8,2.15-1.68,4.5-2.35,7-.92a25.07,25.07,0,0,1,4.35,3.48,28.76,28.76,0,0,1,3.83,4.2c2.41,3.4,3.76,8,1.56,11.83a1.5,1.5,0,0,0,2.59,1.52,13.1,13.1,0,0,0,.19-11.81c-1.72-3.88-4.89-7-8.09-9.66-2.7-2.29-6-4.19-9.59-3-2.72.87-4.83,3-6.83,4.9s-4.36,4.52-7.44,4.5l1.44,1.9a36.88,36.88,0,0,0-2.72-23.32c-1.36-2.82-3.56-5.71-6.83-6.28-3.75-.67-6.66,2.12-10.25,2.33l1.45,1.9a73.47,73.47,0,0,0,1.57-14.64,72.25,72.25,0,0,0-.38-7.64,33.15,33.15,0,0,0-1.08-6.73,4.92,4.92,0,0,0-3.78-3.61,7.2,7.2,0,0,0-5.27,1.74,45.42,45.42,0,0,0-5,4.81l-5.59,5.68,2.57,1.06a75.36,75.36,0,0,0-1.26-12.89c-.66-3.53-1.39-7.31-3.2-10.46-1.5-2.6-4-4.71-7.19-4.47-2.63.19-4.71,1.89-6.51,3.67-2,2-4,4.54-6.86,5.14l1.84,1.05c-1.31-3.39-2.73-7-5.63-9.38-2.56-2.08-6.31-3-9.37-1.48-3.32,1.62-4.05,5.41-4.41,8.73-.51,4.61-1,9.22-1.48,13.83l2.8-.76a39.67,39.67,0,0,0-7.53-10.79,40.1,40.1,0,0,0-5-4.29c-1.74-1.27-3.76-2.4-6-1.79-4,1.09-4.88,6-5.26,9.49a54.88,54.88,0,0,0,.8,15.61,154.43,154.43,0,0,0,4.47,17.32l1.85-1.84c-4.22-.69-7-4.26-10.76-5.92-3.23-1.43-7.61-1.89-10.16,1.07-2.83,3.29-1.39,7.83.07,11.38a142,142,0,0,1,5.08,14.3,124.28,124.28,0,0,1,3.67,16.63c.28,1.9,3.17,1.1,2.89-.8Z" fill="#a8a8a8"/><path d="M457.22,1555.2a21.65,21.65,0,0,1-12.55-12.56,4.52,4.52,0,0,1-.28-3.12c.36-.92,1.22-1.54,1.73-2.38,1.45-2.39-.31-5.34-1.52-7.87s-1.17-6.55,1.58-7.06a5.2,5.2,0,0,1,3.41,1l14.84,8.47,2.47-20.07c.32-2.59,1-5.66,3.41-6.63s4.93.73,6.62,2.61,3.17,4.17,5.54,5.06,4.83.17,7.28.11,5.38,1,5.79,3.41a47.92,47.92,0,0,0-1-17.45,21,21,0,0,1-1-6c.1-2,1.08-4.16,3-5,2-.87,4.38.1,6.25,1.3a25.82,25.82,0,0,1,11.69,21,17.26,17.26,0,0,1,4.5-4.36,5.8,5.8,0,0,1,6-.21c1.74,1.14,2.41,3.35,2.84,5.4a62.3,62.3,0,0,1,1.32,12.7c3.29-.68,6.9-1.06,9.85.56s4.55,5.94,2.32,8.46c3.13-1.37,6.92-2.69,9.75-.78,1.88,1.26,2.69,3.6,3.19,5.81a39.74,39.74,0,0,1-.09,18" fill="#c6abab"/><path d="M457.62,1553.75a20.17,20.17,0,0,1-8.46-6.21,19.34,19.34,0,0,1-2.77-4.62,5.11,5.11,0,0,1-.66-2.62c.16-.82,1-1.43,1.48-2.1a6.13,6.13,0,0,0,.59-5.34c-.53-1.77-1.64-3.31-2.17-5.07a4.69,4.69,0,0,1,.06-3.55c.93-1.48,3.21.31,4.21.88l13.77,7.87a1.53,1.53,0,0,0,2.26-1.3L467.5,1519l.78-6.36a15.33,15.33,0,0,1,1-4.44c1.69-3.73,5.32-1,7.13,1.07,2.34,2.74,4.54,5.2,8.39,5.35,2.46.09,8.52-1.67,9.33,2,.39,1.79,2.76,1.15,3-.4a49,49,0,0,0-.07-12.52,55.28,55.28,0,0,0-1.22-6.23c-.48-1.89-1.07-3.93-.52-5.87,1.27-4.42,5.85-2,8.29-.07a24.49,24.49,0,0,1,9.39,18.61c0,1.19,1.7,2.13,2.56,1.06,1.4-1.73,2.92-3.77,5.1-4.55a3.69,3.69,0,0,1,5,2.19,27.58,27.58,0,0,1,1.44,6.73,62.61,62.61,0,0,1,.54,8.1,1.52,1.52,0,0,0,1.89,1.45c2.91-.59,6.66-1.16,9.24.74,1.61,1.18,3,4,1.48,5.77a1.51,1.51,0,0,0,1.82,2.35c2.1-.91,4.73-2,7-1.34s3.2,3.3,3.7,5.48a38.36,38.36,0,0,1-.1,17.22c-.44,1.87,2.45,2.68,2.89.79,1.54-6.6,1.78-14.15-.41-20.66-.94-2.79-2.79-5.26-5.83-5.85s-6.06.59-8.8,1.77l1.81,2.36c2.41-2.93,1.6-7.12-1-9.65-3.35-3.18-8.42-2.72-12.58-1.87l1.9,1.44a67.63,67.63,0,0,0-.78-9.84c-.42-2.7-.81-5.81-2.52-8a6.5,6.5,0,0,0-7.1-2.14c-2.93.82-5,3.16-6.8,5.44l2.56,1.06a27.45,27.45,0,0,0-10.28-20.74c-3-2.38-7.59-5-11.13-2.07s-2.32,8.1-1.36,12.07a47.36,47.36,0,0,1,.9,16.82l2.94-.4c-.81-3.71-5-4.71-8.32-4.45-2.05.16-4.38.68-6.28-.36-1.72-1-2.87-2.7-4.14-4.15-2.38-2.72-6.49-5-9.82-2.43-3,2.36-3,7-3.41,10.41l-2.08,16.89,2.26-1.29-14.41-8.24c-1.82-1-3.92-2.09-6-1a4.85,4.85,0,0,0-2.4,4,9.42,9.42,0,0,0,.91,4.9c.81,1.75,2.67,4.39,1.52,6.35a25.39,25.39,0,0,0-1.72,2.39,5.19,5.19,0,0,0-.13,3.5,19.31,19.31,0,0,0,2.82,5.74,23.62,23.62,0,0,0,11,8.64c1.8.69,2.58-2.21.8-2.9Z" fill="#c6abab"/><path d="M563.44,1556.74a67.32,67.32,0,0,0,17.38-43.34,7,7,0,0,1,.65-3.44,2.25,2.25,0,0,1,3-1,3.16,3.16,0,0,1,1,1.69c1.29,3.93,2.2,8.4.34,12.1-1.27,2.53-3.77,4.65-3.75,7.48,0,1.43.7,2.79.75,4.22.07,2-1.07,3.77-2,5.49a37.21,37.21,0,0,0-3.25,7.7,2.52,2.52,0,0,0-.14,1.35c.3,1.16,1.84,1.32,3,1.61a6.16,6.16,0,0,1,4.15,7.73" fill="#c6abab"/><path d="M564.5,1557.8A69.37,69.37,0,0,0,582,1518.73c.19-1.84.3-3.68.35-5.53a5.17,5.17,0,0,1,.35-2.31c.13-.23.39-.63.71-.65s.3.11.47.4a9.86,9.86,0,0,1,.79,2.52,20.74,20.74,0,0,1,.62,3,11,11,0,0,1-.55,5.44c-1.26,3.06-4.32,5.26-4.14,8.86.1,2,1.13,3.7.47,5.67a45.1,45.1,0,0,1-2.59,5,35.06,35.06,0,0,0-2.38,6.1,3.3,3.3,0,0,0,2.09,4.33c1.49.55,2.91.57,4,1.88a4.66,4.66,0,0,1,.91,4.48c-.59,1.84,2.31,2.63,2.9.8a7.76,7.76,0,0,0-3-8.52,7,7,0,0,0-2.1-1c-.41-.12-2-.2-2.15-.63a4.32,4.32,0,0,1,.3-.95c.15-.49.32-1,.49-1.47a32,32,0,0,1,1.27-3.1c.86-1.82,2-3.5,2.78-5.36a8.9,8.9,0,0,0,.19-6c-.49-2,0-3.28,1.14-4.91a21,21,0,0,0,2.79-4.84c1.29-3.82.41-8.2-.89-11.89-.56-1.58-1.58-3-3.41-2.91a4.22,4.22,0,0,0-3.76,3c-.58,1.75-.37,3.77-.48,5.6q-.18,3-.65,5.93a67.38,67.38,0,0,1-2.86,11.35,65.48,65.48,0,0,1-13.33,22.53c-1.3,1.43.82,3.56,2.12,2.12Z" fill="#c6abab"/><path d="M503.52,1539.22a27.31,27.31,0,0,0,.2-6.64,16,16,0,0,1,.09-2.81,4.93,4.93,0,0,1,1-2.42,1.55,1.55,0,0,0,0-2.12,1.51,1.51,0,0,0-2.13,0,9.71,9.71,0,0,0-2,6.59c0,2.19.37,4.53-.07,6.6a1.5,1.5,0,1,0,2.89.8Z" fill="#bf9595"/><path d="M470.09,1540a.83.83,0,0,1-.26-1.33c.59-.82,2-.85,2.87-.83a13.57,13.57,0,0,1,7.39,2.53c1.38,1,2.59-.84,2.06-2.06a25.26,25.26,0,0,1-1.88-6.72,15.39,15.39,0,0,1-.19-3.32c.09-1.07.78-1.4,1.74-1.69a9.43,9.43,0,0,1,9.75,2.91c1.28,1.45,3.39-.68,2.13-2.13a12.34,12.34,0,0,0-13.65-3.32c-2.93,1.22-3.13,3.87-2.87,6.69a29.28,29.28,0,0,0,2.38,9.1l2.05-2c-3.12-2.16-7.91-3.85-11.69-2.58a4.49,4.49,0,0,0-3.22,3.43,3.58,3.58,0,0,0,1.87,4,1.55,1.55,0,0,0,2.05-.54,1.5,1.5,0,0,0-.53-2Z" fill="#bf9595"/><path d="M520.92,1536.67a8,8,0,0,1,2.92-1.94,7.77,7.77,0,0,1,1.71-.42c.63-.08.81-.2,1.06.34a7.84,7.84,0,0,1,.23,3.64,11.39,11.39,0,0,1-1.12,4c-.84,1.71,1.64,3.22,2.59,1.51a17,17,0,0,1,7.36-7c1.28-.64,3.1-1.31,3.54.54a24.32,24.32,0,0,1,.49,6.2,1.51,1.51,0,0,0,2.56,1.06,10.5,10.5,0,0,1,4.6-3,3.57,3.57,0,0,1,2.81-.11,5.25,5.25,0,0,1,1.54,2.22,23.82,23.82,0,0,1,2.42,12.06c-.1,1.93,2.9,1.92,3,0,.27-5.07-.78-11-3.78-15.22-3.26-4.58-9.72-1.32-12.71,1.94l2.56,1.06c.06-2.5.09-5.56-.89-7.91s-3.36-2.85-5.6-2.25c-4.45,1.19-8.31,5-10.49,9l2.59,1.51a15.28,15.28,0,0,0,1.58-6.1c.05-1.67,0-4.08-1.15-5.41s-3.36-1-5-.64a11,11,0,0,0-5,3c-1.35,1.38.77,3.5,2.12,2.12Z" fill="#bf9595"/><path d="M507.93,1518c0,.11,0,.07,0-.11l.09-.33c-.06.18.15-.28.14-.26a3,3,0,0,1,.62-.8,7.48,7.48,0,0,1,1.79-1.32,5.17,5.17,0,0,1,2.1-.67,3,3,0,0,1,1.86.46,4.53,4.53,0,0,1,1.21,1.22,5.5,5.5,0,0,1,.84,2,16.78,16.78,0,0,1-.1,5.74,1.51,1.51,0,0,0,1.5,1.5,1.54,1.54,0,0,0,1.5-1.5c.44-3.6.61-7.43-1.94-10.32a6.26,6.26,0,0,0-4.39-2.13,8.26,8.26,0,0,0-5,1.66,6.67,6.67,0,0,0-3.23,4.83,1.51,1.51,0,0,0,1.5,1.5,1.53,1.53,0,0,0,1.5-1.5Z" fill="#bf9595"/><path d="M579.68,1532c.94,8.45-2.87,16.3-6.55,23.65-.87,1.73,1.72,3.25,2.59,1.52,3.9-7.79,8-16.21,7-25.17-.21-1.9-3.21-1.92-3,0Z" fill="#bf9595"/><path d="M877.23,1043c-3.83-55.87-22.88-124.63-22.88-124.63s-14.59-306.95-52.89-331.94c-10.88-7.1-142.29-56.21-142.29-56.21s-2.49,55-82.84,55c-65.08,0-82.1-39.23-86.21-51.38a10.79,10.79,0,0,1-.75-2.59c-1,.65-100.94,62.69-145.44,89.5C299.2,647.71,317.25,945,317.25,945a619.79,619.79,0,0,0-3.6,128.12c5.53,68.42-1.88,179.2,14.45,197.94l61-1.5s-5.6-14.35-4.65-27c2.27-30.22,5.53-104.27,15.36-135.22s21.45-88.31,21.45-88.33c.49,23.68.3,42.23-1,50.33-3.6,21.92-31.66,102.78-17.78,133.07-3.34,29.28-3.7,60.94-3.7,60.94S492.4,1295,569.4,1294c137.52-1.66,240.17-35.54,240.17-35.54s-2.28-35.7-5.32-60.52c9.94-22.62-4.2-83.52-17.92-143,17.07,47.16,40.25,126.63,42.46,162.33,1.64,26.39,2.89,34.36,2.89,34.36h58.1s4.48-6.67,5.3-18.89S882.81,1124.28,877.23,1043Z" fill="#262521"/><path d="M795.66,1098.92c-.07-1.18-.12-2.37-.19-3.55-2.87-13.22-6-26.83-9.14-40.36,2.75,7.6-1.33-36.17-3.22-53.94-3-28.37-12-147.2-13.5-168.3-1.26-18.19-6.4-69.15-5-65.58,5.65,14.93-10.91-29.42-18.67-43.38s-16.15-28-26.17-40.65-20.87-24.54-30.06-37.77c-4.93-7.09-9.4-14.54-13.93-21.88S659.67,597.07,654,588c-4.62,8-40.24,20.73-76.72,23.13-35.41,2.33-66.71-13-66.71-13-5.15,6.8-31,47.82-40.62,64-4.83,8.17-9.52,16.46-14.63,24.45-4.37,6.84-8.79,13.65-13.09,20.54a315.69,315.69,0,0,0-22.14,41.26c-4,9.19-7.25,21.67-8.47,38,0,.64,3.07,46.07,3.35,64.06.59,37.17,6.29,168.56,6.29,168.55.49,23.68.3,42.23-1,50.33-3.6,21.92-31.66,102.78-17.78,133.07,109.11,58,369,32.22,401.84-4.47,7.42-16.88,1.42-55.11-7.81-98.13A1,1,0,0,1,795.66,1098.92Z" fill="#33322e"/><path d="M415.55,874.15c2.13-4.91,4.42-9.75,6.7-14.59a216.14,216.14,0,0,0,9.32-22c2.17-6.34,4.13-13,2.25-19.65a57.85,57.85,0,0,0-4.14-9.85,40.9,40.9,0,0,1-3.88-12.2c-1.23-8.22,0-16.49,1.93-24.5,2-8.39,4.39-16.67,6.61-25s4.33-16.62,6.24-25c1.32-5.77,2.57-11.58,3.66-17.42-.68,1.08-1.37,2.15-2.05,3.24a315.69,315.69,0,0,0-22.14,41.26c-4,9.19-7.25,21.67-8.47,38,0,.64,3.07,46.07,3.35,64.06C415,856.33,415.25,864.52,415.55,874.15Z" fill="#fff" opacity="0.13"/><path d="M796.44,1099.84a1,1,0,0,1-.78-.92c-.07-1.18-.12-2.37-.19-3.55-2.87-13.22-6-26.83-9.14-40.36,2.75,7.6-1.33-36.17-3.22-53.94-3-28.37-12-147.2-13.5-168.3-1.24-17.87-6.22-67.35-5.11-65.72-3.41-8.78-13.16-33.46-18.6-43.24-7.84-14.09-16.15-28-26.17-40.65-1.29-1.63-2.59-3.24-3.9-4.85,9.5,28.36,19.66,56.57,25.64,85.93,3.57,17.52,5.59,35.44,7.52,53.21,2,18.08,3.5,36.2,5,54.32,3,35.86,11.89,71.77,11.84,107.8a329.36,329.36,0,0,1-4.11,52.85c-1.43,8.69-3.58,17.22-4.79,25.95a112.52,112.52,0,0,0-.8,27.56c1.77,16.37,16.2,35.31,18.84,51.5,1.63,10,1.84,21-1.86,30.61-5.89,15.25-23.21,57.75-321.22,53,123.49,32.54,323.8,8.87,352.34-23C811.67,1181.09,805.67,1142.86,796.44,1099.84Z" fill="#fff" opacity="0.13"/><path d="M527.88,614.31c10.94,12.22,25.11,22.8,41.19,26.94a45.13,45.13,0,0,0,37.53-6.07c10.23-6.67,18.15-16.34,25.66-25.82,3.6-4.54,7.13-9.21,10.84-13.7-14.19,6.76-39.8,13.76-65.86,15.48-24.88,1.64-47.72-5.44-59.11-9.8A123.4,123.4,0,0,0,527.88,614.31Z" fill="#fff" opacity="0.2"/><path d="M877.23,1043c-3.83-55.87-22.88-124.63-22.88-124.63s-14.59-306.95-52.89-331.94c-10.88-7.1-142.29-56.21-142.29-56.21s-2.49,55-82.84,55c-65.08,0-82.1-39.23-86.21-51.38a10.79,10.79,0,0,1-.75-2.59c-1,.65-100.94,62.69-145.44,89.5C299.2,647.71,317.25,945,317.25,945a619.79,619.79,0,0,0-3.6,128.12c5.53,68.42-1.88,179.2,14.45,197.94l61-1.5s-5.6-14.35-4.65-27c2.27-30.22,5.53-104.27,15.36-135.22s21.45-88.31,21.45-88.33c.49,23.68.3,42.23-1,50.33-3.6,21.92-31.66,102.78-17.78,133.07-3.34,29.28-3.7,60.94-3.7,60.94S492.4,1295,569.4,1294c137.52-1.66,240.17-35.54,240.17-35.54s-2.28-35.7-5.32-60.52c9.94-22.62-4.2-83.52-17.92-143,17.07,47.16,40.25,126.63,42.46,162.33,1.64,26.39,2.89,34.36,2.89,34.36h58.1s4.48-6.67,5.3-18.89S882.81,1124.28,877.23,1043Z" fill="none" stroke="#262521" stroke-linecap="round" stroke-linejoin="round" stroke-width="3"/><path d="M398.71,1263.38S492.4,1295,569.4,1294c137.52-1.66,240.17-35.54,240.17-35.54" fill="none" stroke="#636363" stroke-linecap="round" stroke-linejoin="round"/><path d="M489.37,531.26l0,0S489.38,531.23,489.37,531.26Z" fill="#262521" stroke="#262521" stroke-linecap="round" stroke-linejoin="round" stroke-width="3"/><path d="M786.33,1055c-1.22-47.59-23.42-300-23.42-300" fill="none" stroke="#262521" stroke-linecap="round" stroke-linejoin="round" stroke-width="3"/><path d="M410.65,770.51s12.19,215.25,10.68,254.28" fill="none" stroke="#262521" stroke-linecap="round" stroke-linejoin="round" stroke-width="3"/><path d="M400.91,1236.45s63.28,24.3,205.19,19.79,192.84-36.18,192.84-36.18l22.14,370.31-158.7-1.85-28.9-196.61L608,1400.59l-8.84,196.24-153.94-.22Z" fill="none" stroke="#262521" stroke-linecap="round" stroke-linejoin="round" stroke-width="3"/></svg>