<svg xmlns="http://www.w3.org/2000/svg" width="1250" height="1550" viewBox="0 0 1250 1550"><title>s03e03-01</title><path d="M397.45,1202.23l-1,2.43q-3.54,8.55-7.09,17.09a3.24,3.24,0,0,0-.16.53c0,.13,0,.25,0,.37s0,.07,0,.11a2.43,2.43,0,0,0,0,.38c0,.06,0,.13,0,.19l0,.1a2.38,2.38,0,0,0,1.46,1.8l7.24,2.53a2.69,2.69,0,0,0,3.67-2c.24-.84.48-1.68.73-2.53q2.55-8.88,5.11-17.78a2.64,2.64,0,0,0-1.52-2.83l-5-1.74A2.68,2.68,0,0,0,397.45,1202.23Zm-.5,12.56,2.5.83a1.76,1.76,0,0,1,1.11,2.21l-1.52,4.61a1.77,1.77,0,0,1-2.22,1.12l-2.5-.83a1.76,1.76,0,0,1-1.11-2.21l1.52-4.61A1.77,1.77,0,0,1,397,1214.79Z" fill="#70706e"/><path d="M807.23,1192.29l-4.88,2a2.63,2.63,0,0,0-1.36,2.91l6.06,17.48.86,2.49a2.69,2.69,0,0,0,3.77,1.77l7.09-2.92a2.38,2.38,0,0,0,1.36-1.87.43.43,0,0,0,0-.11c0-.06,0-.12,0-.19a2.38,2.38,0,0,0,0-.38s0-.07,0-.11a2.58,2.58,0,0,0-.06-.37,1.84,1.84,0,0,0-.19-.51q-4-8.35-8-16.69l-1.14-2.37A2.68,2.68,0,0,0,807.23,1192.29Zm7,14.65,1.77,4.52a1.75,1.75,0,0,1-1,2.27l-2.45,1a1.75,1.75,0,0,1-2.27-1l-1.77-4.52a1.75,1.75,0,0,1,1-2.27l2.45-1A1.75,1.75,0,0,1,814.22,1206.94Z" fill="#70706e"/><path d="M800.54,1223.65c19.84,21.91,11.73,172.38,11.73,172.38s-10.62-52.62-153.93-31.21c-67.82,10.14-138.9-7.88-155.85-2.85-68.94,20.48-84,40-84,40s-18.71-26.33-15-157.13Z" fill="#596166" stroke="#262521" stroke-linecap="round" stroke-linejoin="round" stroke-width="3"/><path d="M877.23,1043c-3.83-55.87-22.88-124.63-22.88-124.63s-14.59-306.95-52.89-331.94c-10.88-7.1-142.29-56.21-142.29-56.21s-2.49,55-82.84,55c-65.08,0-82.1-39.23-86.21-51.38a10.79,10.79,0,0,1-.75-2.59c-1,.65-100.94,62.69-145.44,89.5C299.2,647.71,317.25,945,317.25,945a619.79,619.79,0,0,0-3.6,128.12c5.53,68.42-1.88,179.2,14.45,197.94l61-1.5s-5.6-14.35-4.65-27c2.27-30.22,5.53-104.27,15.36-135.22s21.45-88.31,21.45-88.33c.49,23.68.3,42.23-1,50.33-3.6,21.92-31.66,102.78-17.78,133.07-3.34,29.28-5.68,57.36-5.68,57.36s71,13.89,148,13c137.53-1.66,264.08-24.63,264.08-24.63s-1.48-25.34-4.52-50.16c9.94-22.62-4.2-83.52-17.92-143,17.07,47.16,40.25,126.63,42.46,162.33,1.64,26.39,2.89,34.36,2.89,34.36h58.1s4.48-6.67,5.3-18.89S882.81,1124.28,877.23,1043Z" fill="#262521" stroke="#262521" stroke-linecap="round" stroke-linejoin="round" stroke-width="3"/><polygon points="525.27 756.67 521.78 741.24 520.5 756.74 525.27 756.67" fill="#565c63"/><polygon points="511.95 759.71 496.78 749.99 508.89 762.26 511.95 759.71" fill="#565c63"/><polygon points="504.85 767.38 489.94 769.13 503.89 770.66 504.85 767.38" fill="#565c63"/><polygon points="504.03 774.09 493.5 777.02 504.15 777.24 504.03 774.09" fill="#565c63"/><path d="M528.26,756a24.71,24.71,0,0,0-13.35,1.74c-7.5,3-13.87,10.55-11.24,21.67l1.79,3.71s-1.38,3.11-.88,5.28-2.36,7.17-2.36,7.17-4.51-2.26-3.84-4.12a6.25,6.25,0,0,0-.24-4s0-5.85-2.32-5.76-2.08-4.69-4.23-4.48-19.1-5.6-23.73,19.71,8.16,28,10.34,24.37c0,0-3,7.19-1.65,7.75s8.68,7,8.7,7.47-2.31,6.32-.19,7.58,1.62,4,.35,5.84-.88,5.77,2.57,6.61,7.95,13,7.95,13-9.76,22.34-6.9,30,10,6.08,10,6.08A13.65,13.65,0,0,1,498,915.91c-2.85,5.11-2.27,13.75-.3,17.46s5.61,12.47,5.92,20.51,1,17,.12,18.91-1.71,6.29.78,7.42c0,0-3.75,13.44-2.34,21.68s3.42,22.2,2.13,23.47-3.62,4.29.22,8.78c0,0-1.43,15.37-9.13,22.65l48.12-1.86-.32-8.5,2.55-.1Z" fill="#d3d3d3"/><path d="M473.92,794.32c-2.38,4.85-6.28,10.22-4.94,15.59.46-.27.94-.52,1.42-.77a1.25,1.25,0,0,1,1.69.37A12.81,12.81,0,0,1,473.5,814a7.81,7.81,0,0,1,.17.84h0l.14-.09a8.17,8.17,0,0,0,1.3-1.12c3.21-3.09,3.76-7.93,5.69-11.8,3.62-7.24,9.25-16.6,7.19-25a16.94,16.94,0,0,0-10.07,2.06A38.57,38.57,0,0,1,473.92,794.32Z" fill="#a7aaaf"/><path d="M495.93,869.5s-.54,1.24-1.32,3.22a1.24,1.24,0,0,1,.19.56c.42,5.41-1.22,10.65-1.2,16s2.87,10.35,4.79,15.35a1.11,1.11,0,0,1-.19,1.07,6.76,6.76,0,0,0,.83-.11,7.79,7.79,0,0,1,.24.92,41.46,41.46,0,0,0,1.22-4.32c.6-2.8.8-5.67,1.32-8.49a41.45,41.45,0,0,1,2.52-8.26c.57-1.36,1.17-2.7,1.79-4-1,1.54-2.08,3.07-3.23,4.52a1.24,1.24,0,0,1-2.13-.78c-.25-4,1.32-7.95,3.27-11.41,3.91-6.93,9.62-12.47,14.71-18.49a103.78,103.78,0,0,0,14.19-21.35l-3.31-55-2.11.05a1.25,1.25,0,0,1-.19,1.34,5.92,5.92,0,0,0-.51,2.77c0,1.33,0,2.66,0,4a9.84,9.84,0,0,1-.41,2.56,8.74,8.74,0,0,1,1.41,4.52,6.93,6.93,0,0,1,.09,1.58.87.87,0,0,1-.05.22l.4,0c.56,0,.88.67.95,1.15.4,3-2.19,4-4.74,3.88-2.18-.11-4.68-.17-6.59-1.35-2.29-1.42-3-4.11-3.51-6.58s-.82-5.16.75-7.2a5.57,5.57,0,0,1,3.08-1.93c1.3-.31,2.85.25,3.82-.83a1.28,1.28,0,0,1,.29-.24c0-.56-.09-1.12-.15-1.69a35.3,35.3,0,0,0-5.77,1.51c-1.51.54-2.18-1.75-.74-2.34s4.17-3,6.31-3a.91.91,0,0,1,.58-.41,45.38,45.38,0,0,1,7-.53l-.14-2.29a11.93,11.93,0,0,1-1.88-.72c-1.4-.68-2.71-1.53-4.1-2.22-2.15,3.1-4.14,6.47-7.76,8a1.24,1.24,0,0,1-1.6-1.12c-.36-3.69,0-8.69,3.15-11.17,1.73-1.36,4.14-1.49,6.26-1.48,1.81,0,3.61.21,5.42.26l-.33-5.43a19.74,19.74,0,0,0-4.36-.95,18.41,18.41,0,0,0-5.33.59,4.73,4.73,0,0,1-3.62-.23,3.2,3.2,0,0,1-1.18-1.54c-7.1,3.25-12.85,10.59-10.33,21.26l1.79,3.71s-1.38,3.11-.88,5.28-2.36,7.17-2.36,7.17-4.51-2.26-3.84-4.12a6.25,6.25,0,0,0-.24-4s0-5.85-2.32-5.76-2.08-4.69-4.23-4.48a6,6,0,0,1-1.11-.09,22.64,22.64,0,0,1-.55,9.7c-.43,1.66-3.23,14.73-4.22,17.77a30.45,30.45,0,0,1-3.64,7.69c-1.44,2.12-3.21,4.37-5.69,5.3a8.11,8.11,0,0,1-8.15-1.69c2.68,7.42,8.55,7.75,10,5.4,0,0-3,7.19-1.65,7.75s8.25,6.6,8.66,7.4c.47-1.23,1-2.44,1.32-3.71a12.12,12.12,0,0,0,.2-3.51,15.73,15.73,0,0,1,.42-4.27,31.34,31.34,0,0,0,.92-8.57,1.23,1.23,0,0,1,2.46-.09,33,33,0,0,1-.74,8.11,18.74,18.74,0,0,0-.62,4.28,22.49,22.49,0,0,1-.06,3.76,26.39,26.39,0,0,1-1.63,4.88c-.36,1-1.45,3.24-.69,4.22,1,1.25-1.1,2.55-2.07,1.32a2.82,2.82,0,0,1-.54-1.3,2.66,2.66,0,0,0,.88,2.53c2.12,1.26,1.62,4,.35,5.84s-.88,5.77,2.57,6.61S495.93,869.5,495.93,869.5Zm11.2-44.43c.83-3.67.37-7.4.22-11.11a1.23,1.23,0,0,1,2.46-.09c.16,3.93.59,7.87-.28,11.76A1.23,1.23,0,0,1,507.13,825.07Zm3.09,26.18c2-4.87,2-9.94,2.26-15.11.3-7.23,1.46-17.2,8.32-21.34a1.16,1.16,0,0,1,1.27,0,1.25,1.25,0,0,1,1.86,1.55c-2.12,4.23-2.79,8.89-3.27,13.54a82.89,82.89,0,0,1-2.12,13c-2.1,7.85-5.61,15.86-10.92,22.08a1.25,1.25,0,0,1-2.13-.79C505,859.15,508.43,855.67,510.22,851.25Zm-23.36.58a1.06,1.06,0,0,1-.45-1.23c.79-2.43,2.47-4.38,4.07-6.32a26.71,26.71,0,0,0,2.13-2.82,1.17,1.17,0,0,1-.7-1.37c1.19-4.69,3.81-8.82,4.77-13.61,1-5.14.91-10.42.71-15.63a1.23,1.23,0,0,1,2.46-.1l0,.93a7.82,7.82,0,0,1,.4-1,1.24,1.24,0,0,1,2.25.21c.94,3,.61,6.22.13,9.28-.42,2.66-.83,5.37-1.48,8-.13.49-.28,1-.42,1.53.21,1.87.56,3.71.88,5.56.91,3.27,2.24,6.47,2.7,9.82a45.46,45.46,0,0,1,.23,8.49c-.25,5-1.66,13.14-8.53,11.49a1.28,1.28,0,0,1-.94-1.15c-1.07-7.18.6-14.34,1.35-21.52a31.67,31.67,0,0,1-1.49,3.67c-1.34,2.81-3.41,6.5-6.62,7.47A1.26,1.26,0,0,1,486.86,851.83Z" fill="#a7aaaf"/><path d="M506.22,932.53c1.34-7.58,1.75-15.2,4.67-22.42A115.58,115.58,0,0,0,515,898c1.08-3.82,2-7.72,3.45-11.41q7.67-19.51,15.31-39l-.24-4a68.79,68.79,0,0,1-13.44,18.24,54.46,54.46,0,0,0-6.57,8.22.35.35,0,0,0,0,.08s0,.05,0,.08a1.08,1.08,0,0,1,.1.42v0a1.49,1.49,0,0,1,0,.21c-.65,5.23-1.66,10.4-2.8,15.54-1,4.57-2.06,9.14-3.22,13.68-1.25,4.87-2.79,9.67-3.86,14.59-1.45,6.66.36,15-4.21,20.62a1.19,1.19,0,0,1-.85.39,61.63,61.63,0,0,1,3.54,10A73.76,73.76,0,0,0,506.22,932.53Z" fill="#a7aaaf"/><path d="M511.6,997.16c1.57-.39,2.36-2.16,2.93-3.51.75-1.76,1.23-3.62,1.93-5.39,1.65-4.19,4.31-8,6.29-12,2.24-4.55,4-9.4,3.47-14.54-.16-1.58,2.3-1.66,2.45-.09.48,4.77-.85,9.4-2.78,13.73-1.79,4-4.08,7.75-6.11,11.63-1.53,2.94-2.12,6.27-3.72,9.17a7,7,0,0,1-.56.88,1,1,0,0,1-.15.33c-4.26,6.45-4.67,14.54-6.87,21.87,1.83.12,3.68.49,5.37-.41a24,24,0,0,0,6-5.08c.43-.46.85-.92,1.26-1.4.61-1.53,1.19-3.07,1.67-4.67,3.6-12.16,7.07-24.56,9.23-37.06.62-3.53,1.1-7.08,1.53-10.64a68.75,68.75,0,0,1,1.18-10.8,49.65,49.65,0,0,1,1.24-6.68c.76-2.86,1.66-5.68,2.33-8.57a1.13,1.13,0,0,1,.56-.77l-3.54-58.73c-1,2.75-2.06,5.48-2.94,8.27-1.62,5.15-2.72,10.54-3.89,15.81a120,120,0,0,0-2.66,16.31c-.78,9.79.9,20.21-2.44,29.64a59.83,59.83,0,0,1-3,6.06,8.58,8.58,0,0,0-1.13,4c0,1.21.13,2.4.14,3.61,0,4.11-1.87,7.74-4.37,10.9-3.24,4.08-7.41,7.23-11.74,10.13a2.5,2.5,0,0,0,1.15,1.1l0,.11a8.5,8.5,0,0,1,4.3-.43,1.24,1.24,0,0,1,.62,2,20.06,20.06,0,0,1-4.09,4.14,8.2,8.2,0,0,1-2.36,1.11c-.33,1.82-.64,3.84-.85,5.9,1.36.9,2.73,1.79,4.17,2.55S509.86,997.6,511.6,997.16Zm14.6-58.22c7.62-11.56,7.14-25.82,6.62-39.09a1.23,1.23,0,0,1,2.46-.1c.53,13.69.94,28.43-6.91,40.35C527.5,941.41,525.33,940.26,526.2,938.94Z" fill="#a7aaaf"/><path d="M527.64,1027c0,.08,0,.16,0,.23.86-2,1.81-4.73,1.62-6.93a20.1,20.1,0,0,0-.69,2.55C528.22,1024.2,528,1025.6,527.64,1027Z" fill="#a7aaaf"/><path d="M539.3,939.82c-.43,1.51-.86,3-1.24,4.55-.15.63-.27,1.26-.39,1.9a1.13,1.13,0,0,1,.09.78c-.24,1-.44,1.9-.62,2.86-.17,1.43-.31,2.87-.45,4.31-.2,1.86-.4,3.72-.62,5.58-.09,2.24-.1,4.49-.07,6.73.17,11.07-2.07,22.24-3.07,33.3-.42,4.71-1.72,9.32-5.17,12.74-3.79,3.75-4.44,7.31-7.21,11.93a50,50,0,0,1-4.83,6,26.76,26.76,0,0,1-3.6,3.53,47,47,0,0,1-4.2,8.05,38.7,38.7,0,0,1-8.82,9.8,21.46,21.46,0,0,1-3.74,4.86l7.18-.28a80.75,80.75,0,0,0,6.86-10.39,27,27,0,0,1,1.71-3.4c.54-1.19,1.07-2.39,1.53-3.63.55-1.46,3-.92,2.39.56-.29.78-.61,1.54-.94,2.31a.69.69,0,0,1,0,.17,24.46,24.46,0,0,1-1.42,9.58,35.56,35.56,0,0,1-1.76,4.48l11.78-.46v0c8.53-13.08,12.48-29.37,13-44.86l-.06-1.74a1.23,1.23,0,0,1,2.45-.1l.06,1.72h0v.1c.3,8,.48,16.13-.8,24.11a41.31,41.31,0,0,1-1.5,6.11c-.51,5.11-.94,10.23-3.74,14.31l11.33-.44-.32-8.5,2.55-.1Zm-11.52,92.74a57,57,0,0,1-6,9.45c-.91,1.12-2.58-.21-2-1.41a73.49,73.49,0,0,0,5.45-14l.09-.42c.55-3.62-.59-7.41,1.44-10.78a1.26,1.26,0,0,1,1.67-.51,5.91,5.91,0,0,1,1.67,1.32,1.3,1.3,0,0,1,.77,1.14,7.07,7.07,0,0,1,.73,2.48C532,1024.19,529.74,1028.83,527.78,1032.56Z" fill="#a7aaaf"/><path d="M511.13,1048.3c-.66,1.56-1.27,3.14-2,4.68-.24.52-.5,1-.76,1.51a1.34,1.34,0,0,1,.48.44,34.11,34.11,0,0,0,1.56-4.1C510.69,1050,510.92,1049.15,511.13,1048.3Z" fill="#a7aaaf"/><path d="M506.09,875.11a25.38,25.38,0,0,0-2.35,5.49c4-5.94,7.33-12.41,12-17.83a1.64,1.64,0,0,1-.25-.19c-.82.93-1.63,1.87-2.43,2.81A61.22,61.22,0,0,0,506.09,875.11Z" fill="#a7aaaf"/><path d="M492.74,779.62c.16.76-.07,2.92.63,3.26.28.13.76,0,1.1.16a2.4,2.4,0,0,1,1,1,4.28,4.28,0,0,1,.31,3.18c-.27,1-1.23,2.35-1.16,3.43.06.86,1.06,1.54,1.29,2.5.51,2.17-.57,4.64-1.48,6.56a18.9,18.9,0,0,1-2.2,3.34c-.54.71-1.09,1.42-1.59,2.16-.22.34-.46.95-.72,1.38h.14a11.32,11.32,0,0,1,1.17-.14,3.15,3.15,0,0,1,2,.27c1.51.89,1.88,2.84,2,4.45s-.1,3.22-.08,4.84c0,1.31-.12,4,2,2.59a7.75,7.75,0,0,0,1.73-2.48,8.66,8.66,0,0,1,1.69-2.07,8.44,8.44,0,0,1,5.26-2.11,5.49,5.49,0,0,1,4.76,2.27,6.61,6.61,0,0,1,.61,4.33c-.2,1.75-.73,3.43-1,5.17a4.89,4.89,0,0,0-.05.55c1.71-2.23,2.61-5.38,3.45-8,.34-1.08.58-2.79,1.82-3.21.82-.27,1,1.45,2.1.75s-.73-3.21.19-3.8,3.39,3.12,4.56,2.88-1.87-5.08-1.58-6.93c.35-2.21,2.19-3,4.13-2a12.9,12.9,0,0,1,4.63,4.68c.75,1.23,1.38,2.5,2.2,3.59l-.77-12.72c-1,0-9.79,2-12.43-.36s-3.71-16.09-3.94-17.75a4.69,4.69,0,0,0-.62-1.93,16.08,16.08,0,0,1-4.78,1.45,1.26,1.26,0,0,1-1.28-1.18A12.11,12.11,0,0,1,513,769.8a22.07,22.07,0,0,1-3.06-5.77c-4.66,3.61-7.65,9-6.25,15.37l1.79,3.71s-1.38,3.11-.88,5.28-2.36,7.17-2.36,7.17-4.51-2.26-3.84-4.12a6.25,6.25,0,0,0-.24-4s0-5.85-2.32-5.76c-2.13.08-2.11-3.94-3.76-4.43C492.31,778,492.57,778.81,492.74,779.62Z" fill="#565c63"/><path d="M476.63,793.65a9.44,9.44,0,0,1-1.87,3.29c-.88,1-2,1.73-2.93,2.67-1.92,1.95-2.17,4.65-1.93,7.25.11,1.17,2,1.18,1.84,0a10.91,10.91,0,0,1,.13-3.65,5.57,5.57,0,0,1,2.05-3,17.68,17.68,0,0,0,2.7-2.63,11.94,11.94,0,0,0,1.79-3.43c.38-1.12-1.4-1.61-1.78-.49Z" fill="#565c63"/><path d="M476.72,793.94c-1,3.85-2.08,7.69-3.08,11.55-.78,3-1.95,7.22,0,10.07.66,1,2.25.06,1.59-.93a6.69,6.69,0,0,1-.61-4.62,36.53,36.53,0,0,1,1.14-5.18q1.38-5.21,2.77-10.4a.92.92,0,0,0-1.78-.49Z" fill="#565c63"/><path d="M476,799.36a10,10,0,0,1-.11,3.06c-.18,1.05-.39,2.54.68,3.22a1.56,1.56,0,0,0,1.71,0,3.75,3.75,0,0,0,1.06-1.25,14.75,14.75,0,0,0,1.36-2.9.92.92,0,0,0-.64-1.13A.94.94,0,0,0,479,801a11.88,11.88,0,0,1-1,2.16c-.1.17-.2.34-.31.51l-.16.24c.1-.14-.06.07-.07.08a.49.49,0,0,1-.13.12l.06,0c-.1.05-.09.06,0,0l-.07,0a.39.39,0,0,1,.28,0c.1,0,.17.22.08,0s0,0,0,0l0-.11a.43.43,0,0,1,0-.11c0,.12,0,.13,0,0s0-.46,0-.69,0-.29.07-.5.08-.42.11-.63a10.18,10.18,0,0,0,.05-2.81.94.94,0,0,0-.92-.92c-.45,0-1,.41-.92.92Z" fill="#565c63"/><path d="M460.81,728.62s1.46,29.07,7.51,39.16c0,0,6,13.52,6.07,15.54s.44,11.52,2.88,11.83c0,0-1.28,8.55.39,10.1s14.95-21.62,14.82-24.85-3.5-6.95-4.54-13-10.61-30.14-12.13-34.53-5.8-26.81-5.8-26.81Z" fill="#d3d3d3"/><path d="M469.28,730.2c2.06,8.73,6.68,17.2,7.22,26.22,2.26,11.39,9.37,21.06,12.63,32.08,6.34-10.13,1.42-10.12-1.2-21.08-1-6-10.6-30.14-12.12-34.53s-5.8-26.81-5.8-26.81L464.32,720C464.75,731.18,466.73,725.39,469.28,730.2Z" fill="#565c63"/><polygon points="478.61 630.07 442.44 690.72 454.87 697.67 443.08 736.42 460.69 737.32 481.42 667.81 465.68 673.25 478.61 630.07" fill="#474640"/><path d="M449.38,711.25a4.6,4.6,0,0,0,1.81-.9c.22-.16.43-.33.65-.48l.19-.11c.14-.1.3-.08-.17.06l.37-.12c.13-.05-.35,0-.22,0a.89.89,0,0,0,.23,0l.23,0h-.09a6.85,6.85,0,0,1,1,.22l.22.07c.22.06-.37-.16-.06,0l.46.22a2.43,2.43,0,0,0,.45.26s-.33-.25-.11-.07l.27.22a1.84,1.84,0,0,0,2.5-2.7,7.5,7.5,0,0,0-2.61-1.47,7.28,7.28,0,0,0-2.65-.41,4.38,4.38,0,0,0-2.34.94c-.24.18-.47.37-.73.53l-.19.12c-.07,0-.33.17,0,0s0,0,0,0l-.27.07a1.82,1.82,0,0,0-1.07.89,1.87,1.87,0,0,0-.13,1.43,1.89,1.89,0,0,0,2.31,1.19Z" fill="#cfd1d3"/><path d="M451.66,706.12a10.65,10.65,0,0,1,1.13,0l.49,0,.21,0h-.07a15.9,15.9,0,0,1,2.08.39c.32.08.64.18.95.28.09,0,.69.2.22.07.17,0,.35.15.52.22a15.21,15.21,0,0,1,1.87,1,1.85,1.85,0,0,0,2.49-.76,1.88,1.88,0,0,0-.76-2.49,16.28,16.28,0,0,0-9.27-2.41,1.85,1.85,0,0,0,.14,3.69Z" fill="#cfd1d3"/><path d="M452.58,701.68l.42-.24.22-.11c-.07,0-.33.14-.1,0a8.59,8.59,0,0,1,1-.34l.47-.11c.25,0-.37.05-.12,0l.24,0a8.87,8.87,0,0,1,1,0H456c.26,0,0,0-.12,0,.15,0,.32,0,.48.07a7.58,7.58,0,0,1,.94.23,2.09,2.09,0,0,0,.23.08c-.08,0-.34-.14-.1,0l.49.22c.15.07.29.15.43.23s.59.4.17.1a2,2,0,0,0,1.32.49,1.84,1.84,0,0,0,1.18-3.19,9.49,9.49,0,0,0-5.28-1.86,9.06,9.06,0,0,0-5.09,1.38,1.84,1.84,0,0,0,2,3.1Z" fill="#cfd1d3"/><path d="M453.87,708a10.08,10.08,0,0,0-3.81.87c-1,.38-2,.8-3,1.18a0,0,0,0,0,0,0,1.89,1.89,0,0,0,2.31,1.19,4.6,4.6,0,0,0,1.81-.9c.22-.16.43-.33.65-.48l.16-.09-.14,0,.14,0,0,0,0,0h.24l.17,0h-.09a6.85,6.85,0,0,1,1,.22l.2.06.42.2c.06,0,.33.22.41.25l.2.16a1.86,1.86,0,0,0,2.6-.1,2,2,0,0,0,.42-.84A6.25,6.25,0,0,0,453.87,708Zm.49,2.44.06.05C454.34,710.42,454.18,710.28,454.36,710.42Z" fill="#a7aaaf"/><path d="M456.56,705c-2.17-.7-4.49-.28-6.74-.28a1.84,1.84,0,0,0,1.84,1.38,10.65,10.65,0,0,1,1.13,0l.49,0h.16a15.92,15.92,0,0,1,2.06.39c.32.08.64.18.95.28.09,0,.69.2.22.07.17,0,.35.15.52.22a15.21,15.21,0,0,1,1.87,1,1.82,1.82,0,0,0,2.09-.25A12.08,12.08,0,0,0,456.56,705Z" fill="#a7aaaf"/><path d="M460.78,701.92a9.84,9.84,0,0,0-10.93-1.19,1.56,1.56,0,0,0,.19.39,1.88,1.88,0,0,0,2.55.56c.13-.08.27-.17.41-.24l.08,0c-.06,0-.09,0,0,0h0l.09,0-.06,0a7.86,7.86,0,0,1,.93-.32l.4-.09.19,0a8.87,8.87,0,0,1,1,0h.23l.37.05a7.58,7.58,0,0,1,.94.23l.14.05c-.09,0-.18-.09,0,0l.06,0,0,0,0,0,.43.2c.15.07.29.15.43.23s.59.4.17.1a1.85,1.85,0,0,0,2.31.16Z" fill="#a7aaaf"/><path d="M462.34,698.3c3,2.11,4.64,5.68,5.5,9.16a57.06,57.06,0,0,1,1.29,12.9c0,2.38,3.71,2.23,3.69-.14-.11-8.84-.81-19.64-8.75-25.18a1.86,1.86,0,0,0-2.49.76,1.88,1.88,0,0,0,.76,2.5Z" fill="#565c63"/><path d="M466,700.14c-.55-1.68-2.08-3.94-4.08-3.82a1.21,1.21,0,0,1-.48-.08,2,2,0,0,0,.93,2.06,12.72,12.72,0,0,1,4.15,5.23A10.81,10.81,0,0,0,466,700.14Z" fill="#a7aaaf"/><rect x="487.56" y="1054.57" width="130.52" height="11.47" transform="translate(-40.56 22.16) rotate(-2.21)" fill="#d3d3d3"/><rect x="487.72" y="1063.99" width="130.52" height="0.81" transform="translate(-40.72 22.17) rotate(-2.21)" fill="#a2a7aa"/><polygon points="481.3 1072.82 485.69 1077.43 618.59 1072.29 618.25 1063.51 487.83 1068.56 481.3 1072.82" fill="#565c63"/><polygon points="488.05 1074.88 618.49 1069.84 618.46 1068.97 488.04 1074.02 488.05 1074.88" fill="#474b4f"/><rect x="485.85" y="1074.86" width="133" height="11.27" transform="translate(-41.34 22.15) rotate(-2.21)" fill="#a7aaaf"/><rect x="483.38" y="1086.18" width="135.92" height="11.27" transform="translate(-41.78 22.12) rotate(-2.21)" fill="#a8abaf"/><rect x="483.25" y="1088.18" width="135.92" height="0.98" transform="translate(-41.66 22.12) rotate(-2.21)" fill="#565c63"/><rect x="501.76" y="1090.42" width="117.52" height="1.74" transform="translate(-41.76 22.48) rotate(-2.21)" fill="#565c63"/><rect x="469.24" y="1097.73" width="150.49" height="11.27" transform="matrix(1, -0.04, 0.04, 1, -42.23, 21.87)" fill="#a7aaaf"/><rect x="469.61" y="1109" width="150.49" height="8" transform="translate(-42.61 21.89) rotate(-2.21)" fill="#a7aaaf"/><rect x="469.06" y="1097.73" width="150.49" height="2.06" transform="translate(-42.06 21.86) rotate(-2.21)" fill="#565c63"/><rect x="469.6" y="1111.55" width="150.49" height="2.06" transform="translate(-42.59 21.89) rotate(-2.21)" fill="#565c63"/><rect x="469.51" y="1109" width="150.49" height="2.55" transform="translate(-42.5 21.88) rotate(-2.21)" fill="#97999b"/><rect x="469.25" y="1098.06" width="4.87" height="13.76" transform="translate(-42.35 19.05) rotate(-2.21)" fill="#a7aaaf"/><rect x="525.62" y="1095.88" width="4.87" height="13.76" transform="translate(-42.22 21.23) rotate(-2.21)" fill="#a7aaaf"/><rect x="474.11" y="1100.42" width="1.48" height="11.27" transform="translate(-42.39 19.18) rotate(-2.21)" fill="#565c63"/><rect x="530.54" y="1098.24" width="1.48" height="11.27" transform="translate(-42.26 21.36) rotate(-2.21)" fill="#565c63"/><rect x="496.25" y="1097.02" width="4.87" height="13.76" transform="matrix(1, -0.04, 0.04, 1, -42.29, 20.1)" fill="#a7aaaf"/><rect x="469.25" y="1098.06" width="4.87" height="13.76" transform="translate(-42.35 19.05) rotate(-2.21)" fill="#a7aaaf"/><polyline points="514.82 1082.22 522.28 1086.07 522.75 1098.37 520.13 1098.47" fill="#565c63"/><polygon points="520.13 1098.47 519.65 1086.17 509.98 1078.27 500.46 1086.92 500.94 1099.21 520.13 1098.47" fill="#a8abaf"/><rect x="505.38" y="1088.56" width="9.85" height="8.58" transform="translate(1062.46 2165.16) rotate(177.79)" fill="#565c63"/><rect x="501.12" y="1097.01" width="1.48" height="13.64" transform="translate(-42.28 20.22) rotate(-2.21)" fill="#565c63"/><path d="M525.79,760.43l.17,4.46a.92.92,0,0,0,1.84,0l-.17-4.46a.92.92,0,1,0-1.84,0Z" fill="#565c63"/><path d="M521.42,760.38l.2,5a.92.92,0,0,0,1.84,0l-.2-5a.92.92,0,1,0-1.84,0Z" fill="#565c63"/><path d="M517.3,761.07a27.24,27.24,0,0,0,.53,5,.92.92,0,0,0,1.13.65,1,1,0,0,0,.64-1.14c-.07-.39-.14-.78-.2-1.18a2.51,2.51,0,0,1,0-.27c-.05-.3,0,.18,0-.13s-.05-.39-.07-.59c-.08-.78-.12-1.57-.13-2.36a.92.92,0,0,0-1.84,0Z" fill="#565c63"/><path d="M512.87,763.22l2,4.48a.92.92,0,0,0,1.26.33,1,1,0,0,0,.33-1.26l-2-4.48a.92.92,0,0,0-1.26-.33.94.94,0,0,0-.33,1.26Z" fill="#565c63"/><path d="M509.9,765.24l2.25,4.08a.92.92,0,1,0,1.59-.93l-2.25-4.08a.92.92,0,0,0-1.26-.33.94.94,0,0,0-.33,1.26Z" fill="#565c63"/><path d="M521.88,771.12a3.56,3.56,0,0,1-.89,1.59,16.61,16.61,0,0,1-1.2,1.46,17,17,0,0,1-2.9,2.52,22.83,22.83,0,0,1-3.36,1.84,3.31,3.31,0,0,0-2.2,2.6.92.92,0,1,0,1.84,0c0-.37.56-.63.83-.78.52-.29,1.09-.5,1.62-.77a19.08,19.08,0,0,0,3.35-2.15,18.47,18.47,0,0,0,2.79-2.73c.85-1,1.86-2.19,2-3.58.09-1.18-1.75-1.17-1.84,0Z" fill="#565c63"/><path d="M522.63,771.32a14.92,14.92,0,0,0,5.86,4.22.92.92,0,1,0,.49-1.77l-.14-.06-.09,0-.37-.17-.76-.4a14.27,14.27,0,0,1-1.39-.89l-.15-.11-.06-.05-.31-.25-.61-.54c-.41-.39-.8-.81-1.17-1.24a.91.91,0,0,0-1.3,0,1,1,0,0,0,0,1.3Z" fill="#565c63"/><path d="M529.48,779.12a2.07,2.07,0,0,0-2.64.75c-.68,1-.46,2.34-.41,3.49l.43,8.68.46-.79a5.05,5.05,0,0,1-2.27.87l.24,1.81a3.73,3.73,0,0,0,2.78-3.1,1.12,1.12,0,0,0-1.24-1.19,30.12,30.12,0,0,0-3.13.41l.25,1.81,2.47-.48.62-.12c.21,0,.23,0,0-.13.17.19.16.91.2,1.16.1.59.51,1.67.12,2.1a3.21,3.21,0,0,1-2.09.6.93.93,0,0,0,0,1.85,5.56,5.56,0,0,0,3.37-1.11c1.12-.93.66-2.21.45-3.46s-.18-2.63-1.59-2.85a5.22,5.22,0,0,0-1.76.21l-2.32.46c-1,.19-.79,1.94.24,1.8l1.72-.22.79-.11.31,0q.56,0,.15-.09l-.45-.79c0,.73-.81,1.34-1.42,1.52-.95.28-.82,1.93.25,1.81a5.67,5.67,0,0,0,3.38-1.28c.44-.49.24-1.31.21-1.91l-.11-2.21-.22-4.42c0-.72-.09-1.44-.1-2.15,0-.17,0-1.42.34-1.29,1.08.45,2-1.13.93-1.59Z" fill="#565c63"/><path d="M516.33,784.7a4.84,4.84,0,0,1,.43-.34l.55-.4c.37-.26.76-.5,1.15-.73s.79-.44,1.2-.64q.29-.15.57-.27l.31-.14.17-.06c.07,0,.06,0,0,0a.53.53,0,0,1-.44-.26c.1.13,0-.12,0,0a.7.7,0,0,1,0,.14c0-.13,0-.14,0,0s0,.15,0,.22a.61.61,0,0,1,0,.14c0,.11,0,.1,0,0,0,.06-.11.22,0,0l0,0a.28.28,0,0,1,.1-.09.17.17,0,0,1,.1,0h-.18c-1,0-2-.17-3-.25a.92.92,0,1,0,0,1.84c1,.09,2,.18,2.93.25a1.63,1.63,0,0,0,1.4-.51,1.94,1.94,0,0,0,.43-1.37,2.48,2.48,0,0,0-.32-1.25,1.37,1.37,0,0,0-1.67-.51,17.31,17.31,0,0,0-2.53,1.22,20.17,20.17,0,0,0-2.58,1.8.93.93,0,0,0,0,1.31,1,1,0,0,0,1.3,0Z" fill="#565c63"/><path d="M492.88,782.29a5.08,5.08,0,0,1-.39,2c-.21.66-.42,1.32-.65,2a12.3,12.3,0,0,1-1.83,3.45,1,1,0,0,0,0,1.3.93.93,0,0,0,1.3,0,14.7,14.7,0,0,0,2.26-4.13c.25-.7.48-1.4.69-2.11a6.62,6.62,0,0,0,.47-2.48,1,1,0,0,0-.93-.92.93.93,0,0,0-.92.92Z" fill="#565c63"/><path d="M491.21,793c-.92,4.6-3.14,8.92-5.35,13-2,3.78-4.48,7.45-8.13,9.83-1,.65-.07,2.25.93,1.6,3.81-2.5,6.46-6.22,8.61-10.17,2.36-4.33,4.75-8.94,5.72-13.8.23-1.16-1.54-1.65-1.78-.49Z" fill="#565c63"/><path d="M491.21,804.8a62.49,62.49,0,0,0-4.54,6.18,14,14,0,0,1-2.46,2.63c-1,.8-2.36,1.54-3.67,1.1-1.13-.38-1.61,1.4-.49,1.77,3,1,5.85-1.58,7.55-3.71s3-4.65,4.91-6.66c.81-.86-.49-2.17-1.3-1.31Z" fill="#565c63"/><path d="M484.94,813.06a29.26,29.26,0,0,1-4.94,6.15.92.92,0,1,0,1.3,1.31,31.33,31.33,0,0,0,5.23-6.53.93.93,0,0,0-.33-1.26.94.94,0,0,0-1.26.33Z" fill="#565c63"/><path d="M494.94,805.09q-4,5.68-7.93,11.38c-1.21,1.75-2.39,3.52-3.43,5.39-.92,1.63-1.8,3.38-3.4,4.46-1,.66-.06,2.25.93,1.59a11.6,11.6,0,0,0,3.48-4.1c1.12-2,2.27-3.88,3.55-5.74,2.77-4,5.59-8,8.39-12.05.68-1-.92-1.9-1.59-.93Z" fill="#565c63"/><path d="M485.47,819.71A41.06,41.06,0,0,1,485,825c-.19,1.38-.47,3-1.8,3.71-1,.57-.12,2.16.93,1.59,1.66-.9,2.33-2.74,2.6-4.51a43.12,43.12,0,0,0,.58-6.1.93.93,0,0,0-1.85,0Z" fill="#565c63"/><path d="M489.3,816.53c2,.64,1.36,3.56.92,5-.56,1.87-1.39,3.68-1.47,5.66-.09,2.21.91,4.28.42,6.5a17.47,17.47,0,0,1-2.82,5.68c-.65,1,.94,1.92,1.59.93,1.34-2.06,2.73-4.24,3.12-6.71s-.86-5.12-.27-7.72c.71-3.19,4-9.55-1-11.13-1.13-.37-1.61,1.41-.49,1.77Z" fill="#565c63"/><path d="M495.05,807.41c-3.29,3.63-3.12,8.64-4.35,13.1l1.81.25c0-1.51-.05-3-.07-4.52a6.63,6.63,0,0,1,.6-3.66c.62-1-1-1.94-1.59-.93a21.79,21.79,0,0,0-1.72,3.41.92.92,0,0,0,.64,1.13.94.94,0,0,0,1.13-.64,20.37,20.37,0,0,1,1.54-3l-1.59-.93a7.58,7.58,0,0,0-.86,4.16c0,1.65.05,3.3.08,5a.93.93,0,0,0,1.81.24c1.12-4,.88-9,3.87-12.29.8-.87-.5-2.18-1.3-1.3Z" fill="#565c63"/><path d="M499.53,815.88a27.89,27.89,0,0,1-1.28,3.84c-.13.29-.25.58-.39.86-.07.13-.13.25-.21.37.08-.13-.18.16,0,.06,0,0-.22.12-.12.08s-.08,0-.1,0-.25.07-.37.12a2,2,0,0,0-.88.54,1,1,0,0,0,0,1.31.94.94,0,0,0,1.3,0c.11-.13-.05,0,0-.05s.16-.08.07,0,.11,0,.14,0l.16-.05a2.66,2.66,0,0,0,1-.54,4.76,4.76,0,0,0,1-1.72,30.56,30.56,0,0,0,1.47-4.29.92.92,0,1,0-1.78-.48Z" fill="#565c63"/><path d="M502.09,810.55c.9,7.73-.87,15.37-3.55,22.59-1.33,3.58-2.85,7.1-4.43,10.59a22.08,22.08,0,0,1-2.64,4.63,35.71,35.71,0,0,1-3.74,3.94c-.81.78.22,1.85,1.12,1.45,3.36-1.47,5.65-5,7.28-8.15A48.69,48.69,0,0,0,500,834.46c.27-1.15-1.5-1.64-1.78-.49a47.51,47.51,0,0,1-3.48,10.32c-1.51,3-3.59,6.46-6.81,7.87l1.11,1.45a28.05,28.05,0,0,0,6.58-8.75c1.62-3.55,3.17-7.14,4.54-10.79,2.82-7.49,4.72-15.48,3.78-23.52-.14-1.16-2-1.18-1.84,0Z" fill="#565c63"/><path d="M502.11,819.73c-.57,3.92-2.44,7.69-4,11.3a48.88,48.88,0,0,1-5.83,10.3c-.72.92.58,2.24,1.3,1.3A50.45,50.45,0,0,0,499.67,832c1.66-3.75,3.63-7.66,4.22-11.74.17-1.16-1.61-1.66-1.78-.49Z" fill="#565c63"/><path d="M506.26,810.65l.28,7.26a.94.94,0,0,0,.92.92.93.93,0,0,0,.92-.92l-.28-7.26a.94.94,0,0,0-.92-.92.93.93,0,0,0-.92.92Z" fill="#565c63"/><path d="M509.31,812.4a34,34,0,0,1-.12,11.34c-.21,1.16,1.56,1.66,1.77.49a36.66,36.66,0,0,0,.13-12.32.94.94,0,0,0-1.14-.65,1,1,0,0,0-.64,1.14Z" fill="#565c63"/><path d="M503.2,842.79a59.92,59.92,0,0,1,.4,11.12c-.11,1.18,1.73,1.17,1.84,0a59.07,59.07,0,0,0-.4-11.12.94.94,0,0,0-.92-.92.92.92,0,0,0-.92.92Z" fill="#565c63"/><path d="M494,852.2a101.49,101.49,0,0,1,.28,11c0,1.19,1.81,1.18,1.85,0a101.5,101.5,0,0,0-.29-11c-.1-1.17-1.94-1.18-1.84,0Z" fill="#565c63"/><path d="M491.22,853.21l.14,3.49a.92.92,0,0,0,1.84,0l-.14-3.49a.92.92,0,1,0-1.84,0Z" fill="#565c63"/><path d="M531.58,825.74c-5.11,7.25-9.77,14.77-14.4,22.32-4.43,7.24-8.84,14.52-11.88,22.48-.43,1.11,1.35,1.59,1.77.49,3-7.95,7.52-15.21,11.95-22.44,4.54-7.42,9.13-14.8,14.15-21.92.69-1-.91-1.89-1.59-.93Z" fill="#565c63"/><path d="M531.62,825.82c-.11,2.27-1.54,4.26-2.64,6.16s-2.28,3.9-3.5,5.81a53.33,53.33,0,0,1-8.41,10.45c-.87.82.44,2.12,1.3,1.31a55.88,55.88,0,0,0,8.91-11.17c1.28-2,2.49-4.09,3.69-6.16s2.38-4,2.49-6.4c0-1.18-1.79-1.18-1.84,0Z" fill="#565c63"/><path d="M532.84,840.81a47.06,47.06,0,0,1-5.28,10.54,44.34,44.34,0,0,1-7.73,9.22c-5.29,4.75-11.42,9.17-13.59,16.29a.92.92,0,0,0,1.77.49c2.25-7.35,9.14-11.65,14.42-16.68a46.11,46.11,0,0,0,7.08-9,48.13,48.13,0,0,0,5.11-10.41c.38-1.13-1.4-1.61-1.78-.49Z" fill="#565c63"/><path d="M533.43,839.69a56.19,56.19,0,0,1-6,14.78,19.53,19.53,0,0,1-4.94,5.76,40.74,40.74,0,0,1-6.77,3.85c-1.07.52-.13,2.11.93,1.59a41.2,41.2,0,0,0,7.11-4.11,20.75,20.75,0,0,0,5-5.8,57.17,57.17,0,0,0,6.46-15.58.92.92,0,0,0-1.78-.49Z" fill="#565c63"/><path d="M536.47,866.72c-.53,4.3-2.12,8.44-3.05,12.67s-1.56,8.27-2.28,12.42-1.56,8.24-2.51,12.34A47.77,47.77,0,0,0,527,916.49c0,1.19,1.88,1.19,1.84,0-.14-4.35.82-8.57,1.81-12.78s1.74-8.21,2.46-12.35,1.4-8.3,2.33-12.41,2.39-8.06,2.9-12.23c.14-1.18-1.7-1.17-1.84,0Z" fill="#565c63"/><path d="M535.08,898.61a75.49,75.49,0,0,1-5.38,38.84c-.46,1.08,1.13,2,1.59.93a77.19,77.19,0,0,0,5.63-39.77c-.15-1.16-2-1.18-1.84,0Z" fill="#565c63"/><path d="M522.05,872.84c-2.29,4.83-4.71,9.62-6.79,14.54a94,94,0,0,0-4.59,15.14c-1.82,7.7-3.21,15.49-4.71,23.26-.79,4.1-1.58,8.21-2.53,12.27-.27,1.16,1.5,1.65,1.77.49,1.76-7.54,3.08-15.18,4.56-22.78,1.66-8.55,3.25-17.32,6.32-25.49,2.12-5.65,5-11,7.56-16.5.51-1.07-1.08-2-1.59-.93Z" fill="#565c63"/><path d="M518.75,879.79a109.92,109.92,0,0,0-4.85,15.79c-1.57,6.09-3.49,12.07-5.46,18-.37,1.13,1.41,1.61,1.78.49,1.93-5.84,3.81-11.69,5.36-17.65,1.37-5.29,2.61-10.7,4.76-15.74.46-1.08-1.12-2-1.59-.93Z" fill="#565c63"/><path d="M505.27,880.54A36.41,36.41,0,0,0,499.94,892c-.52,2.06-.88,4.16-1.21,6.26a36.29,36.29,0,0,0-.7,6.48c0,1.19,1.88,1.19,1.84,0a35.52,35.52,0,0,1,.7-6.41c.31-2,.67-3.92,1.15-5.84a34.75,34.75,0,0,1,5.14-11c.66-1-.93-1.91-1.59-.93Z" fill="#565c63"/><path d="M499.58,895.32a19.3,19.3,0,0,1-.76-12l-1.78-.49a37.13,37.13,0,0,0-.21,10.63c.22,1.72.57,3.42.76,5.15a20.79,20.79,0,0,1,.14,2.37c0,.39,0,2.34-.29,2.5l.71-.09c-.71-.19-1.51-1.61-1.86-2.17a14.22,14.22,0,0,1-1.29-2.59,28.91,28.91,0,0,1-1.4-5.51c-.19-1.07-1.75-.74-1.81.24-.17,2.83-.31,5.87,1.1,8.43a6.5,6.5,0,0,0,5.8,3.56c1.18-.05,1.19-1.89,0-1.84a4.86,4.86,0,0,1-4.51-3.28c-.88-2.15-.69-4.6-.55-6.87l-1.81.25a24.34,24.34,0,0,0,2.54,8,11.71,11.71,0,0,0,2.47,3.13,1.4,1.4,0,0,0,2.4-.77c.9-3.06,0-6.49-.42-9.55a35.8,35.8,0,0,1,0-11.08c.18-1.14-1.47-1.66-1.78-.49a21.07,21.07,0,0,0,.76,13c.43,1.09,2.21.62,1.78-.49Z" fill="#565c63"/><path d="M506.85,898.87c-1.46,6.46-2.74,13-4.72,19.32-1.92,6.1-2.18,12.35-2.28,18.7l1.72-.47a24.77,24.77,0,0,1-3.13-6.64l-1.54.89c.89,1,1.75,2.07,2.58,3.14s2-.37,1.3-1.3-1.69-2.11-2.57-3.14a.93.93,0,0,0-1.54.9,26.15,26.15,0,0,0,3.31,7.08.92.92,0,0,0,1.71-.46c.1-6.37.42-12.54,2.35-18.65s3.16-12.58,4.59-18.88c.26-1.16-1.51-1.65-1.78-.49Z" fill="#565c63"/><path d="M541.45,926.43l-7.93,13.74c-1.24,2.15-2.44,4.34-3.81,6.41s-2.91,3.69-4.36,5.56c-5.33,6.9-6.28,17.75-14.58,22.14A.94.94,0,0,0,511,976c1.62.47,3.17.57,4.41-.75a28.14,28.14,0,0,0,3-4.57,50.54,50.54,0,0,0,2.82-5.16c.82-1.78,1.42-3.64,2.18-5.44,1.54-3.58,4.38-6.06,6.89-8.94,2.18-2.51,4.48-5.36,4.43-8.85a.92.92,0,0,0-1.84,0c0,3.29-2.51,6-4.59,8.33s-4.43,4.45-5.88,7.26-2.4,6.19-4,9.13c-.8,1.46-1.68,2.87-2.57,4.27-.48.75-.94,1.51-1.45,2.23-.81,1.14-1.72,1.07-2.95.71l.22,1.69c6.36-3.37,8.72-10.44,11.57-16.55a35.42,35.42,0,0,1,2.64-4.84c1.1-1.63,2.45-3.07,3.67-4.61a80,80,0,0,0,6.15-9.85L543,927.36a.92.92,0,0,0-1.59-.93Z" fill="#565c63"/><path d="M525.27,954.82c-2.37,5.07-2.09,11.09-4.57,16.11-1.52,3.07-4,5.62-5.29,8.8-.66,1.63-1,3.38-1.56,5-1.19,3.4-3.39,6.33-5.56,9.21,2.91-3.45,7.23-5.77,9.2-9.82a44.87,44.87,0,0,0,1.8-5.47c1.56-4.67,4.87-8.73,5.64-13.59.29-1.88.3-4.05,1.74-5.29a.85.85,0,0,1,.69-.27c.3.06.47.38.58.66,1.35,3.56-.45,7.48-.51,11.28,1.61-2.72,3.25-5.56,3.55-8.71.29-2.94-.62-5.95,0-8.84.24-1.17.73-2.27,1-3.43a5.06,5.06,0,0,0-.17-3.5" fill="#565c63"/><path d="M524.47,954.36c-1.46,3.24-2,6.7-2.71,10.15a27.51,27.51,0,0,1-1.44,5,26.21,26.21,0,0,1-2.79,4.77,30.24,30.24,0,0,0-2.67,4.39,41,41,0,0,0-1.63,5c-1.13,3.68-3.44,6.78-5.73,9.82-.63.83.76,1.91,1.44,1.12,2.07-2.4,4.69-4.2,6.84-6.51a14.15,14.15,0,0,0,2.69-3.9,49.92,49.92,0,0,0,1.64-5.07c1.07-3.31,3-6.24,4.37-9.42a19.24,19.24,0,0,0,1.39-4.74c.16-1.1.19-4.34,1.73-4.56l-.71-.09c.64.33.63,2.24.63,2.8a17,17,0,0,1-.3,3,39.75,39.75,0,0,0-.71,5.32.93.93,0,0,0,1.72.47,33.76,33.76,0,0,0,3-6,15.87,15.87,0,0,0,.65-6.43,17.58,17.58,0,0,1,.48-7c.65-2,1.14-3.91.26-5.93-.47-1.08-2.06-.15-1.59.93.89,2-.53,4.25-.94,6.23a20.94,20.94,0,0,0-.05,5.81,14.55,14.55,0,0,1-.59,5.94,30.66,30.66,0,0,1-2.8,5.58l1.71.46c.12-3.74,2-8,.43-11.63-.61-1.42-2-1.54-3-.45a7.3,7.3,0,0,0-1.56,4.25c-.52,3.91-2.26,7.13-4,10.61a31.87,31.87,0,0,0-2.07,5A20.92,20.92,0,0,1,516,985c-2.18,3.29-5.76,5.37-8.32,8.33l1.45,1.12c2.17-2.88,4.34-5.8,5.57-9.22.65-1.78,1-3.67,1.71-5.41a28.27,28.27,0,0,1,2.75-4.57,26.56,26.56,0,0,0,4.2-9.21c.83-3.6,1.21-7.35,2.74-10.74.49-1.08-1.1-2-1.59-.93Z" fill="#565c63"/><path d="M520.91,986.86a34.39,34.39,0,0,1-2.32,13.25,43.26,43.26,0,0,0-2.37,5.88,47.69,47.69,0,0,0-1,6.62c-.13,1.18,1.71,1.17,1.84,0a37.82,37.82,0,0,1,1.2-7c.64-2.05,1.75-3.92,2.5-5.93a37.72,37.72,0,0,0,2-12.82.92.92,0,0,0-1.84,0Z" fill="#565c63"/><path d="M542.19,986.13c.46,3.44-1.48,6.7-2.12,10.11a44.14,44.14,0,0,0-.43,5c-.17,2.39-.59,4.74-.89,7.11-1.32,10.45-.22,21.06-1.18,31.55-.44,4.81-1.51,10-5.08,13.23,3.4-.17,6.8-.5,10.18-1l0-3.83a2,2,0,0,1,.22-1.12c.57-.86,2-.46,2.81-1-.29-5.66-2.92-48.64-2.9-52.12,0-2.53.29-5.11-.36-7.55" fill="#565c63"/><path d="M541.27,986.13a15.06,15.06,0,0,1-1.08,6.28,25,25,0,0,0-1.31,6.1c-.33,4.68-1.12,9.3-1.46,14-.68,9.38.14,18.83-.85,28.2-.45,4.28-1.5,8.76-4.73,11.82a.93.93,0,0,0,.65,1.57c3.49-.18,7-.53,10.42-1a.91.91,0,0,0,.68-.89l0-1.92a6.21,6.21,0,0,1,.13-2.28c.26-.55.63-.44,1.21-.56a4,4,0,0,0,1.25-.43.92.92,0,0,0,.46-.79c-.36-7-.81-13.9-1.22-20.85-.52-8.81-1.05-17.63-1.49-26.46-.07-1.31-.14-2.64-.18-4-.09-2.9.28-5.79-.41-8.65-.27-1.15-2.05-.66-1.77.49.63,2.65.25,5.35.33,8,0,1.06.09,2.12.14,3.19.18,3.76.39,7.53.61,11.3q.78,13.89,1.62,27.8c.18,3,.37,6.06.52,9.1l.46-.8c-1.13.62-2.53.16-3.22,1.53a4.81,4.81,0,0,0-.28,2.13l0,3.12.67-.88c-3.29.47-6.61.78-9.93,1l.65,1.57c2.79-2.64,4.17-6.28,4.84-10a81.21,81.21,0,0,0,.94-13.59c.06-4.86,0-9.72.17-14.58s1.16-9.71,1.49-14.6a30.52,30.52,0,0,1,1.25-7.71c.75-2.34,1.54-4.69,1.28-7.19-.12-1.16-2-1.18-1.84,0Z" fill="#565c63"/><path d="M539.23,1004c-3.84,5.82-12.15,6.8-15.11,13.47-.88,2-1.43,3.93-3,5.53-1.17,1.21-2.54,2.21-3.73,3.4a8.78,8.78,0,0,0-2.55,4.31,22,22,0,0,1-.68,3.3,20.53,20.53,0,0,1-1.79,3.29c-.63,1,1,1.93,1.59.93a15.38,15.38,0,0,0,2.51-6.06,7.76,7.76,0,0,1,2.7-4.93,50.21,50.21,0,0,0,3.71-3.43,17.75,17.75,0,0,0,2.75-5.24c2.78-6.65,11.33-7.8,15.18-13.64.66-1-.93-1.91-1.59-.93Z" fill="#565c63"/><path d="M514.79,1038.37c-.48,2.35-1,4.67-1.72,7a.92.92,0,0,0,1.78.49c.67-2.31,1.24-4.63,1.72-7a.92.92,0,1,0-1.78-.49Z" fill="#565c63"/><path d="M519.46,1024.75a14.21,14.21,0,0,0-1,7.3c.18,2.58.55,5.2-.27,7.7-.37,1.13,1.41,1.62,1.78.49a18.81,18.81,0,0,0,.39-7.4c-.19-2.39-.38-4.94.68-7.16.51-1.06-1.08-2-1.59-.93Z" fill="#565c63"/><path d="M531,1011.45c-.62,5.27-.86,10.73-2.64,15.76-1.67,4.69-3.66,9.73-6.75,13.68-.73.92.57,2.23,1.3,1.3,3.23-4.11,5.28-9.19,7.07-14.06,2-5.32,2.21-11.1,2.86-16.68.14-1.17-1.71-1.16-1.84,0Z" fill="#565c63"/><path d="M525.35,1035.54c.16,3.54.18,7.3-1.87,10.36-.66,1,.93,1.91,1.59.93,2.22-3.33,2.3-7.44,2.13-11.29-.06-1.18-1.9-1.19-1.85,0Z" fill="#565c63"/><path d="M529.36,1033.1a35.77,35.77,0,0,1,.26,10.12c-.61,3.6-2.59,6.22-5,8.85-.8.88.5,2.18,1.3,1.31,2.53-2.77,4.7-5.58,5.42-9.35a35.78,35.78,0,0,0-.14-10.93c-.13-1.16-2-1.17-1.84,0Z" fill="#565c63"/><path d="M526.48,1017l2.4-.93.52-.2c-.1-.25-.12-.25,0,0a6.56,6.56,0,0,0,0,1.17l.13,5.12a.93.93,0,0,0,1.85,0c.14-1.92.29-3.83.43-5.74.11-1.43,0-3.31-1.79-3.62l.55,1.35a1.71,1.71,0,0,1,1.24-.74l-1.16-.89.09,2.38a.93.93,0,0,0,1.57.65,13,13,0,0,0,3.8-5.72c.3-.92-.9-1.48-1.54-.9a8.12,8.12,0,0,0-2.15,3.23c-.38,1,1.14,1.54,1.69.71,1.59-2.46,3.29-5,6-6.3,1.07-.52.14-2.1-.93-1.59-3,1.44-4.9,4.25-6.66,7l1.68.71a6.27,6.27,0,0,1,1.67-2.42l-1.54-.89a11.19,11.19,0,0,1-3.32,4.91l1.57.65-.09-2.38a.94.94,0,0,0-1.17-.89,3.51,3.51,0,0,0-2.34,1.59.94.94,0,0,0,.55,1.36c1,.17.37,2.74.32,3.43l-.32,4.15h1.85l-.09-3.52a16.1,16.1,0,0,0-.16-3.33c-.63-2.46-3.7-.61-5.12-.07-1.09.43-.61,2.21.49,1.78Z" fill="#565c63"/><path d="M511,840.83l.17.77a.92.92,0,0,0,.89.68.93.93,0,0,0,.89-.68,3.09,3.09,0,0,1,.18-.59l-.1.22a4.25,4.25,0,0,1,.44-.74l-.14.18a3.91,3.91,0,0,1,.61-.61l-.19.15a3.14,3.14,0,0,1,.75-.44l-.22.09a3.21,3.21,0,0,1,.75-.21.91.91,0,0,0,.64-1.13.93.93,0,0,0-.42-.55,1.08,1.08,0,0,0-.71-.09,4.21,4.21,0,0,0-3.37,3.23H513l-.17-.77a.92.92,0,0,0-1.78.49Z" fill="#565c63"/><path d="M517.24,825.13a30,30,0,0,0,3.69,4.42.92.92,0,1,0,1.31-1.3c-.65-.64-1.27-1.31-1.86-2l-.41-.51-.21-.27c-.09-.11.08.11,0,0l-.12-.15c-.28-.37-.54-.74-.8-1.12a1,1,0,0,0-1.27-.33.94.94,0,0,0-.33,1.26Z" fill="#565c63"/><path d="M519,818.48a12.94,12.94,0,0,0,4.7,7.65.94.94,0,0,0,1.3,0,.93.93,0,0,0,0-1.3,11.45,11.45,0,0,1-4.22-6.84.93.93,0,0,0-1.13-.64,1,1,0,0,0-.65,1.13Z" fill="#565c63"/><path d="M523.35,820.74l2.92,3a.92.92,0,0,0,1.31-1.3l-2.93-3a.92.92,0,0,0-1.3,1.3Z" fill="#565c63"/><path d="M524,811.87c-.44,3.77,2.53,6.74,5,9.09.87.81,2.17-.49,1.3-1.3-2.16-2-4.88-4.51-4.5-7.79a.92.92,0,0,0-.92-.92.94.94,0,0,0-.92.92Z" fill="#565c63"/><path d="M528.7,807a52.65,52.65,0,0,1,2,8.6c.15,1,1.83.77,1.81-.25a97.59,97.59,0,0,0-1.28-13.65c-.2-1.17-2-.67-1.78.49a93.59,93.59,0,0,1,1.22,13.16l1.81-.24a52.65,52.65,0,0,0-2-8.6c-.37-1.13-2.15-.65-1.78.49Z" fill="#565c63"/><path d="M538.44,944l1.72,48.4a.93.93,0,0,0,1.85,0,125.18,125.18,0,0,0,.2-17.43c-.07-1.18-1.91-1.19-1.84,0a123.66,123.66,0,0,1-.21,17.43H542L540.28,944c0-1.18-1.89-1.19-1.84,0Z" fill="#565c63"/><polygon points="652.64 751.74 654.92 736.09 657.4 751.44 652.64 751.74" fill="#565c63"/><polygon points="666.15 753.74 680.53 742.88 669.4 756.05 666.15 753.74" fill="#565c63"/><polygon points="673.83 760.85 688.82 761.44 675.03 764.05 673.83 760.85" fill="#565c63"/><polygon points="675.16 767.47 685.89 769.58 675.29 770.62 675.16 767.47" fill="#565c63"/><path d="M649.6,751.3a24.68,24.68,0,0,1,13.45.71c7.71,2.43,14.64,9.43,12.88,20.73l-1.5,3.84s1.61,3,1.29,5.19,2.91,7,2.91,7,4.32-2.61,3.5-4.41a6.2,6.2,0,0,1-.06-4s-.46-5.84,1.86-5.93,1.71-4.83,3.88-4.79,18.6-7.06,25.17,17.82-6,28.54-8.42,25.1c0,0,3.56,6.93,2.25,7.6s-8.13,7.63-8.11,8.12,2.8,6.11.78,7.53-1.31,4.08.1,5.86,1.32,5.68-2.05,6.79S690.61,862,690.61,862s11.45,21.52,9.19,29.42-9.5,6.83-9.5,6.83a13.68,13.68,0,0,0,1.86,10.18c3.24,4.88,3.33,13.54,1.65,17.39s-4.63,12.86-4.32,20.9.3,17.08,1.34,18.87,2.19,6.13-.2,7.45c0,0,4.78,13.11,4,21.44s-1.7,22.39-.31,23.56,3.93,4,.46,8.77c0,0,2.61,15.21,10.85,21.88l-48.13,1.86-.32-8.5-2.56.1Z" fill="#d3d3d3"/><path d="M706.74,785.32c2.75,4.64,7,9.7,6.14,15.16-.49-.24-1-.45-1.48-.66a1.26,1.26,0,0,0-1.66.5,12.6,12.6,0,0,0-1,4.61,8.43,8.43,0,0,0-.11.86h0l-.15-.07a8.63,8.63,0,0,1-1.38-1c-3.44-2.84-4.36-7.62-6.59-11.32-4.16-7-10.5-15.84-9.1-24.43a17,17,0,0,1,10.2,1.28A38.68,38.68,0,0,0,706.74,785.32Z" fill="#a7aaaf"/><path d="M697.53,848.41c3.37-1.11,3.46-5,2.05-6.79s-2.12-4.44-.1-5.86c.7-.49.81-1.48.68-2.58a2.84,2.84,0,0,1-.44,1.34c-.87,1.3-3.05.16-2.17-1.16.69-1-.58-3.19-1-4.15a26.93,26.93,0,0,1-2-4.74,23.56,23.56,0,0,1-.35-3.75,18.55,18.55,0,0,0-1-4.22,32.61,32.61,0,0,1-1.36-8,1.23,1.23,0,0,1,2.46-.09,31.3,31.3,0,0,0,1.58,8.46,16,16,0,0,1,.75,4.23,11.76,11.76,0,0,0,.47,3.49c.44,1.23,1,2.4,1.59,3.59.36-.82,6.8-7.4,8.08-8s-2.25-7.6-2.25-7.6c1.59,2.23,7.42,1.45,9.52-6.16a8.14,8.14,0,0,1-8,2.32c-2.54-.74-4.48-2.84-6.08-4.85a30.09,30.09,0,0,1-4.22-7.39c-1.22-2.95-5-15.77-5.58-17.38a22.64,22.64,0,0,1-1.3-9.63,5.84,5.84,0,0,1-1.09.17c-2.17,0-1.57,4.7-3.88,4.79s-1.86,5.93-1.86,5.93a6.2,6.2,0,0,0,.06,4c.82,1.8-3.5,4.41-3.5,4.41s-3.24-4.76-2.91-7-1.29-5.19-1.29-5.19l1.5-3.84c1.69-10.83-4.62-17.71-11.94-20.4a3.14,3.14,0,0,1-1.06,1.62,4.67,4.67,0,0,1-3.59.51,18.53,18.53,0,0,0-5.36-.17,20.85,20.85,0,0,0-4.28,1.28l.1,5.44c1.79-.19,3.58-.52,5.38-.67,2.11-.18,4.52-.24,6.36,1,3.35,2.23,4.07,7.18,4,10.89a1.23,1.23,0,0,1-1.51,1.24c-3.72-1.23-6-4.44-8.35-7.35-1.34.79-2.58,1.73-3.92,2.52a11.16,11.16,0,0,1-1.82.86l0,2.3a45.44,45.44,0,0,1,7,0,.91.91,0,0,1,.61.36c2.13-.21,4.95,2,6.52,2.46s1,2.81-.56,2.39a35.32,35.32,0,0,0-5.87-1.06c0,.57,0,1.13,0,1.7a1.21,1.21,0,0,1,.31.21c1,1,2.55.32,3.87.53a5.54,5.54,0,0,1,3.22,1.69c1.73,1.92,1.63,4.72,1.31,7.12s-.82,5.24-3,6.83c-1.82,1.33-4.31,1.58-6.47,1.85-2.54.32-5.19-.45-5-3.5,0-.48.3-1.12.85-1.21l.4-.07a1.29,1.29,0,0,1-.07-.21,7.06,7.06,0,0,1,0-1.59,8.76,8.76,0,0,1,1.05-4.61,10.25,10.25,0,0,1-.59-2.52c-.17-1.32-.22-2.65-.36-4a5.92,5.92,0,0,0-.72-2.73,1.25,1.25,0,0,1-.29-1.32l-2.11.11,1,55.11a103.39,103.39,0,0,0,15.8,20.18c5.53,5.62,11.65,10.7,16.09,17.3,2.21,3.3,4.07,7.08,4.14,11.13,0,1-1.31,1.77-2.06.94-1.26-1.36-2.43-2.8-3.57-4.25.72,1.28,1.42,2.57,2.09,3.89a41.21,41.21,0,0,1,3.16,8c.74,2.76,1.16,5.61,2,8.36a41.83,41.83,0,0,0,1.55,4.21c.08-.59.16-.94.16-.94a6.27,6.27,0,0,0,.85,0,1.08,1.08,0,0,1-.28-1c1.52-5.14,4-10.19,3.59-15.68S692,871.08,692,865.66a1.27,1.27,0,0,1,.15-.58c-.93-1.92-1.56-3.11-1.56-3.11S694.15,849.51,697.53,848.41Zm-23.87-29.13c-1.17-3.81-1-7.77-1.19-11.7a1.23,1.23,0,0,1,2.46-.1c.13,3.71,0,7.47,1.07,11A1.23,1.23,0,0,1,673.66,819.28Zm7,38.16a1.25,1.25,0,0,1-2.07.95c-5.77-5.78-9.89-13.5-12.59-21.16a83.92,83.92,0,0,1-3.12-12.83c-.84-4.6-1.86-9.19-4.3-13.24a1.25,1.25,0,0,1,1.73-1.7,1.18,1.18,0,0,1,1.27-.1c7.15,3.59,9.08,13.45,9.93,20.63.61,5.14,1.09,10.18,3.43,14.89C677.08,849.15,680.74,852.35,680.67,857.44Zm16.27-12c-3.28-.72-5.62-4.23-7.18-6.93A31.51,31.51,0,0,1,688,835c1.3,7.09,3.52,14.1,3,21.34a1.28,1.28,0,0,1-.86,1.22c-6.72,2.18-8.75-5.84-9.38-10.79a45.53,45.53,0,0,1-.44-8.49c.21-3.37,1.29-6.67,1.94-10,.17-1.86.38-3.73.45-5.6-.18-.51-.37-1-.53-1.5-.86-2.55-1.48-5.22-2.1-7.84-.71-3-1.3-6.2-.59-9.27a1.24,1.24,0,0,1,2.23-.38,6.76,6.76,0,0,1,.47.93c0-.31,0-.62,0-.93a1.23,1.23,0,0,1,2.46-.09c.2,5.21.49,10.48,1.92,15.53,1.32,4.7,4.25,8.61,5.8,13.2a1.17,1.17,0,0,1-.59,1.42,26.71,26.71,0,0,0,2.34,2.65c1.75,1.81,3.57,3.62,4.54,6a1,1,0,0,1-.35,1.26A1.26,1.26,0,0,1,696.94,845.48Z" fill="#a7aaaf"/><path d="M685.22,925.61c-1.93-7.46-2.92-15-6.4-22a116.8,116.8,0,0,1-5-11.81c-1.37-3.72-2.59-7.53-4.32-11.1q-9.15-18.87-18.28-37.75l-.07-4A68.33,68.33,0,0,0,666,856.1a56.15,56.15,0,0,1,7.19,7.69.41.41,0,0,0,0,.09s0,0,0,.08a1.42,1.42,0,0,0-.06.42v0a1.47,1.47,0,0,0,0,.21c1,5.16,2.46,10.24,4,15.27,1.36,4.48,2.76,9,4.27,13.39,1.62,4.76,3.52,9.43,5,14.25,2,6.53.8,15,5.8,20.24a1.16,1.16,0,0,0,.87.32,60.55,60.55,0,0,0-2.75,10.3A74.15,74.15,0,0,1,685.22,925.61Z" fill="#a7aaaf"/><path d="M690.07,988.51c1.37-.87,2.67-1.87,4-2.86-.37-2-.84-4-1.31-5.82a8.46,8.46,0,0,1-2.44-.93,19.7,19.7,0,0,1-4.39-3.81,1.24,1.24,0,0,1,.46-2.07,8.52,8.52,0,0,1,4.32.1l0-.11a2.54,2.54,0,0,0,1.07-1.18c-4.54-2.56-9-5.38-12.49-9.2-2.74-3-4.92-6.43-5.21-10.53-.08-1.2,0-2.4-.13-3.6a8.51,8.51,0,0,0-1.43-3.87,58.9,58.9,0,0,1-3.46-5.81c-4.06-9.14-3.2-19.66-4.73-29.36a118.22,118.22,0,0,0-3.91-16.06c-1.57-5.16-3.09-10.45-5.1-15.46-1.09-2.71-2.37-5.35-3.57-8l1,58.83a1.13,1.13,0,0,1,.62.72c.89,2.83,2,5.57,3,8.37A47.77,47.77,0,0,1,658,944.4a69.11,69.11,0,0,1,2,10.68c.7,3.51,1.46,7,2.34,10.49,3.13,12.29,7.54,24.39,12.07,36.23.6,1.57,1.3,3.05,2,4.53.45.44.91.88,1.37,1.3a24,24,0,0,0,6.42,4.6c1.76.77,3.57.26,5.39,0-2.76-7.15-3.8-15.18-8.54-21.28a1,1,0,0,1-.18-.32,7.47,7.47,0,0,1-.62-.83c-1.82-2.77-2.66-6-4.42-8.86-2.32-3.71-4.9-7.27-7-11.13-2.25-4.16-3.94-8.67-3.84-13.47,0-1.57,2.49-1.68,2.46-.1-.11,5.16,2,9.87,4.58,14.23,2.29,3.86,5.23,7.45,7.2,11.49.83,1.72,1.46,3.53,2.34,5.23.67,1.3,1.6,3,3.19,3.27C686.61,990.76,688.67,989.4,690.07,988.51Zm-26.35-53.65c-8.75-11.27-9.48-26-10-39.69a1.23,1.23,0,0,1,2.45-.09c.52,13.27,1.14,27.52,9.63,38.46C666.76,934.79,664.68,936.1,663.72,934.86Z" fill="#a7aaaf"/><path d="M671.15,1021.42l.06.23c-1-2-2.17-4.58-2.15-6.79a20.57,20.57,0,0,1,.88,2.49C670.36,1018.7,670.7,1020.08,671.15,1021.42Z" fill="#a7aaaf"/><path d="M654.63,1042.12l2.56-.1.32,8.5,11.34-.44c-3.11-3.85-3.94-8.92-4.83-14a39.89,39.89,0,0,1-2-6c-1.89-7.86-2.34-15.93-2.66-24,0,0,0-.07,0-.1h0l-.06-1.72a1.23,1.23,0,0,1,2.45-.09c0,.58.05,1.16.07,1.75,1.69,15.39,6.9,31.33,16.4,43.72,0,0,0,0,0,0l11.79-.46a34.53,34.53,0,0,1-2.1-4.33,24.13,24.13,0,0,1-2.15-9.44c0-.07,0-.12,0-.17-.38-.74-.76-1.47-1.11-2.23-.67-1.43,1.68-2.16,2.34-.75.56,1.2,1.17,2.36,1.81,3.5a30,30,0,0,1,2,3.26,79.41,79.41,0,0,0,7.64,9.83l7.18-.27a21.59,21.59,0,0,1-4.1-4.56A38.57,38.57,0,0,1,692,1035a45.83,45.83,0,0,1-4.81-7.7,26.83,26.83,0,0,1-3.87-3.25,49.47,49.47,0,0,1-5.28-5.65c-3.11-4.39-4-7.89-8.11-11.34-3.71-3.14-5.36-7.64-6.14-12.3-1.85-10.95-4.95-21.91-5.63-33-.14-2.24-.33-4.48-.59-6.71-.36-1.84-.71-3.67-1-5.52-.26-1.42-.5-2.84-.78-4.26-.25-.94-.53-1.87-.84-2.8a1.08,1.08,0,0,1,0-.78c-.17-.63-.34-1.25-.54-1.87-.49-1.5-1-3-1.59-4.44Zm12.06-27.5a6.9,6.9,0,0,1,.53-2.54,1.29,1.29,0,0,1,.68-1.19,5.44,5.44,0,0,1,1.57-1.44,1.25,1.25,0,0,1,1.69.37c2.29,3.21,1.44,7.07,2.27,10.64.05.14.09.28.13.41a73.24,73.24,0,0,0,6.51,13.53c.69,1.15-.87,2.61-1.87,1.56a56.67,56.67,0,0,1-6.75-9C669.2,1023.44,666.57,1019,666.69,1014.62Z" fill="#a7aaaf"/><path d="M689.26,1041.41c.78,1.51,1.51,3,2.34,4.51.27.5.57,1,.88,1.45a1.35,1.35,0,0,0-.45.47,31.12,31.12,0,0,1-1.87-4C689.84,1043.07,689.53,1042.25,689.26,1041.41Z" fill="#a7aaaf"/><path d="M680.91,868.35a25.12,25.12,0,0,1,2.76,5.29c-4.46-5.61-8.27-11.8-13.35-16.85a1.51,1.51,0,0,0,.23-.21c.88.87,1.77,1.74,2.64,2.62A61.32,61.32,0,0,1,680.91,868.35Z" fill="#a7aaaf"/><path d="M686.85,772.11c-.1.78.29,2.91-.38,3.3-.28.15-.76.05-1.09.24a2.41,2.41,0,0,0-.91,1.06,4.24,4.24,0,0,0-.06,3.19c.35,1,1.41,2.25,1.42,3.34,0,.86-.94,1.61-1.09,2.58-.34,2.21.92,4.59,2,6.43a18.69,18.69,0,0,0,2.45,3.16c.59.67,1.19,1.34,1.75,2,.25.32.53.91.83,1.32l-.14,0a9.24,9.24,0,0,0-1.18,0,3.08,3.08,0,0,0-2,.43c-1.44,1-1.65,3-1.61,4.58s.35,3.21.45,4.82c.09,1.31.43,4-1.77,2.73a7.79,7.79,0,0,1-1.91-2.34,8.91,8.91,0,0,0-1.85-1.93,8.48,8.48,0,0,0-5.4-1.7,5.51,5.51,0,0,0-4.57,2.64,6.66,6.66,0,0,0-.28,4.36c.34,1.73,1,3.37,1.4,5.08a4.68,4.68,0,0,1,.09.54c-1.87-2.09-3-5.16-4.05-7.72-.43-1.05-.8-2.74-2.07-3.05-.84-.21-.91,1.51-2,.91s.49-3.26-.48-3.78-3.13,3.37-4.32,3.22,1.47-5.21,1-7c-.52-2.18-2.42-2.84-4.28-1.68a12.83,12.83,0,0,0-4.24,5c-.66,1.28-1.19,2.6-1.92,3.75l-.22-12.74c.94-.11,9.91,1.23,12.37-1.32s2.45-16.33,2.55-18a4.61,4.61,0,0,1,.47-2,16.56,16.56,0,0,0,4.88,1.07,1.24,1.24,0,0,0,1.18-1.28,12.06,12.06,0,0,0-5.92-9.45,22.54,22.54,0,0,0,2.6-6c4.93,3.24,8.32,8.38,7.42,14.84l-1.5,3.84s1.61,3,1.29,5.19,2.91,7,2.91,7,4.32-2.61,3.5-4.41a6.2,6.2,0,0,1-.06-4s-.46-5.84,1.86-5.93c2.13-.08,1.8-4.09,3.41-4.7A20.1,20.1,0,0,0,686.85,772.11Z" fill="#565c63"/><path d="M702.32,785.64a11.71,11.71,0,0,0,2,3.12,16.49,16.49,0,0,0,3,2.45,5.47,5.47,0,0,1,2.19,2.7,10.85,10.85,0,0,1,.44,3.67.92.92,0,0,0,1.84,0c0-2.65-.41-5.41-2.55-7.2-1-.84-2.16-1.49-3.09-2.42a10.18,10.18,0,0,1-2.17-3.25.93.93,0,0,0-1.26-.33,1,1,0,0,0-.33,1.26Z" fill="#565c63"/><path d="M702.17,785.71q1.79,5.07,3.56,10.15a44.45,44.45,0,0,1,1.45,4.68c.37,1.61.75,3.54-.11,5.06a.92.92,0,0,0,1.59.93c1.71-3,.26-7.07-.78-10.09-1.29-3.75-2.62-7.48-3.94-11.22-.39-1.11-2.17-.64-1.77.49Z" fill="#565c63"/><path d="M703.19,790.57a10.22,10.22,0,0,0,.25,2.81c.1.43.23.85.31,1.28,0,0,0,.29,0,.16,0,.1,0,.2,0,.3a2.09,2.09,0,0,1,0,.25c0-.24,0,0,0,.08s0,0,0-.05c0,.07,0,.08,0,0a.55.55,0,0,1,.28-.15h.09c-.1,0-.1,0,0,0l-.07,0c.07.07.06.06,0,0l-.18-.19c-.07-.08-.08-.08,0,0l-.06-.08c-.13-.18-.26-.35-.38-.53a13.63,13.63,0,0,1-1.23-2.25.93.93,0,0,0-1.26-.33,1,1,0,0,0-.33,1.26,14.15,14.15,0,0,0,1.49,2.62,3.85,3.85,0,0,0,1.14,1.17,1.57,1.57,0,0,0,1.86-.18c.83-.78.58-2.09.33-3.07a9.58,9.58,0,0,1-.36-3.06.93.93,0,0,0-1.85,0Z" fill="#565c63"/><path d="M714.74,718.8s.79,29.1-4.47,39.62c0,0-4.92,14-4.84,16s.44,11.51-2,12c0,0,1.95,8.42.39,10.1s-16.57-20.4-16.69-23.63,3-7.2,3.53-13.29,8.24-30.87,9.42-35.36S703.83,697,703.83,697Z" fill="#d3d3d3"/><path d="M706.42,721c-1.38,8.86-5.33,17.66-5.18,26.7-1.37,11.53-7.72,21.72-10.11,33-7.1-9.62-2.2-10-.44-21.11.58-6.09,8.24-30.87,9.42-35.36S703.83,697,703.83,697l6.75,13.47C711,721.65,708.59,716,706.42,721Z" fill="#565c63"/><polygon points="689.38 621.92 730.13 679.59 718.27 687.48 733.02 725.21 715.53 727.46 689.49 659.76 705.61 663.98 689.38 621.92" fill="#474640"/><path d="M724.79,700.6a4.57,4.57,0,0,1-1.87-.76c-.23-.14-.45-.29-.69-.42l-.19-.11c-.15-.08-.31,0,.17.06l-.38-.1c-.13,0,.35,0,.23,0a1,1,0,0,1-.24,0l-.22,0c.16,0,.37-.07.08,0a7.12,7.12,0,0,0-1,.29l-.21.09c-.22.08.36-.19.07,0a4.79,4.79,0,0,0-.45.25,3.83,3.83,0,0,1-.43.3s.31-.28.1-.08l-.24.24a1.84,1.84,0,0,1-2.71-2.5,7.48,7.48,0,0,1,2.49-1.67,7.21,7.21,0,0,1,2.61-.61,4.36,4.36,0,0,1,2.4.75c.26.16.51.33.77.48l.21.1c.07,0,.33.14,0,0s0,0,0,0l.27,0a1.89,1.89,0,0,1,1.14.81,1.93,1.93,0,0,1,.24,1.41,1.9,1.9,0,0,1-2.22,1.37Z" fill="#cfd1d3"/><path d="M722.12,695.66c-.37,0-.75,0-1.12.07l-.49.07-.21,0c.25-.05.28-.05.07,0a16.28,16.28,0,0,0-2,.54c-.31.11-.61.23-.92.36-.09,0-.67.25-.21.09a4.66,4.66,0,0,0-.5.25,15.93,15.93,0,0,0-1.79,1.14,1.86,1.86,0,0,1-2.54-.57,1.88,1.88,0,0,1,.56-2.54A16.36,16.36,0,0,1,722,692a1.85,1.85,0,0,1,.14,3.69Z" fill="#cfd1d3"/><path d="M720.86,691.31a3.55,3.55,0,0,0-.44-.21c-.06,0-.16-.06-.22-.1s.34.12.11,0-.66-.19-1-.26l-.48-.07c-.25,0,.38,0,.13,0l-.25,0a7.1,7.1,0,0,0-1,0l-.24,0a.92.92,0,1,1,.13,0c-.16,0-.32.07-.48.11a7.6,7.6,0,0,0-.92.3,2.18,2.18,0,0,1-.23.09c.09,0,.33-.17.11,0l-.48.26-.41.27c-.11.08-.55.44-.16.11a2,2,0,0,1-1.28.59,1.84,1.84,0,0,1-1.43-3.09,9.42,9.42,0,0,1,5.13-2.26,9,9,0,0,1,5.18,1,1.86,1.86,0,0,1,.75,2.49,1.88,1.88,0,0,1-2.49.76Z" fill="#cfd1d3"/><path d="M716.43,699.69a2.15,2.15,0,0,0,.48.81,1.88,1.88,0,0,0,2.61-.1l.18-.18c.08,0,.33-.24.39-.28l.41-.23.18-.08a7.12,7.12,0,0,1,1-.29l.07,0-.15,0,.17,0H722l0,0,.14,0-.14,0,.16.09c.24.13.46.28.69.42a4.57,4.57,0,0,0,1.87.76,1.9,1.9,0,0,0,2.22-1.37v0c-1-.31-2-.65-3.08-1a10.21,10.21,0,0,0-3.87-.58A6.27,6.27,0,0,0,716.43,699.69Zm3.28.52,0-.05C719.93,700,719.79,700.15,719.71,700.21Z" fill="#a7aaaf"/><path d="M717.15,694.94c2.11-.87,4.45-.62,6.7-.8a1.85,1.85,0,0,1-1.73,1.52c-.37,0-.75,0-1.12.07l-.49.07-.16,0a16.44,16.44,0,0,0-2,.54c-.31.11-.61.23-.92.36-.09,0-.67.25-.21.09a4.66,4.66,0,0,0-.5.25,15.93,15.93,0,0,0-1.79,1.14,1.84,1.84,0,0,1-2.1-.09A12.07,12.07,0,0,1,717.15,694.94Z" fill="#a7aaaf"/><path d="M712.71,692.17a9.85,9.85,0,0,1,10.8-2,1.29,1.29,0,0,1-.16.41,1.88,1.88,0,0,1-2.49.76l-.44-.22-.08,0c.07,0,.1,0,0,0h0a.25.25,0,0,1-.09,0l.06,0a7.81,7.81,0,0,0-1-.25l-.41-.06h-.19a7.1,7.1,0,0,0-1,0l-.23,0-.36.08a7.6,7.6,0,0,0-.92.3l-.14.06c.09-.05.18-.1,0,0l-.06,0,0,0,0,0-.42.23-.41.27c-.11.08-.55.44-.16.11a2,2,0,0,1-1.28.59A1.93,1.93,0,0,1,712.71,692.17Z" fill="#a7aaaf"/><path d="M710.88,688.68c-2.86,2.35-4.2,6-4.78,9.57a56.73,56.73,0,0,0-.3,13c.16,2.37-3.52,2.51-3.68.14-.57-8.82-.71-19.64,6.77-25.77a1.86,1.86,0,0,1,2.55.56,1.88,1.88,0,0,1-.56,2.54Z" fill="#565c63"/><path d="M707.39,690.8c.42-1.71,1.77-4.08,3.77-4.13a1.17,1.17,0,0,0,.48-.1,2,2,0,0,1-.76,2.11,12.63,12.63,0,0,0-3.74,5.55A11,11,0,0,1,707.39,690.8Z" fill="#a7aaaf"/><rect x="583.37" y="1050.87" width="130.52" height="11.47" transform="translate(1337.6 2087.34) rotate(177.79)" fill="#d3d3d3"/><rect x="583.53" y="1060.29" width="130.52" height="0.81" transform="matrix(-1, 0.04, -0.04, -1, 1338.07, 2095.52)" fill="#a2a7aa"/><polygon points="720.89 1063.56 716.88 1068.49 583.98 1073.63 583.64 1064.85 714.06 1059.81 720.89 1063.56" fill="#565c63"/><polygon points="714.33 1066.13 583.88 1071.18 583.85 1070.31 714.27 1065.27 714.33 1066.13" fill="#474b4f"/><rect x="584.15" y="1071.06" width="133" height="11.27" transform="translate(-41.12 25.95) rotate(-2.21)" fill="#a7aaaf"/><rect x="584.58" y="1082.27" width="135.92" height="11.27" transform="translate(-41.56 26.03) rotate(-2.21)" fill="#a8abaf"/><rect x="584.46" y="1084.27" width="135.92" height="0.98" transform="translate(-41.43 26.02) rotate(-2.21)" fill="#565c63"/><rect x="584.58" y="1087.21" width="117.52" height="1.74" transform="translate(-41.57 25.68) rotate(-2.21)" fill="#565c63"/><rect x="585.01" y="1093.25" width="150.49" height="11.27" transform="translate(-41.97 26.34) rotate(-2.21)" fill="#a7aaaf"/><rect x="585.38" y="1104.52" width="150.49" height="8" transform="translate(-42.35 26.36) rotate(-2.21)" fill="#a7aaaf"/><rect x="584.83" y="1093.26" width="150.49" height="2.06" transform="translate(-41.8 26.33) rotate(-2.21)" fill="#565c63"/><rect x="585.37" y="1107.07" width="150.49" height="2.06" transform="translate(-42.33 26.36) rotate(-2.21)" fill="#565c63"/><rect x="585.28" y="1104.52" width="150.49" height="2.55" transform="translate(-42.24 26.35) rotate(-2.21)" fill="#97999b"/><rect x="730.53" y="1087.96" width="4.87" height="13.76" transform="matrix(-1, 0.04, -0.04, -1, 1507.69, 2160.53)" fill="#a7aaaf"/><rect x="674.15" y="1090.14" width="4.87" height="13.76" transform="translate(1395.07 2167.06) rotate(177.79)" fill="#a7aaaf"/><rect x="729.15" y="1090.56" width="1.48" height="11.27" transform="translate(1501.6 2163.37) rotate(177.79)" fill="#565c63"/><rect x="672.72" y="1092.74" width="1.48" height="11.27" transform="translate(1388.87 2169.91) rotate(177.79)" fill="#565c63"/><rect x="703.53" y="1089" width="4.87" height="13.76" transform="translate(1453.75 2163.66) rotate(177.79)" fill="#a7aaaf"/><rect x="730.53" y="1087.96" width="4.87" height="13.76" transform="matrix(-1, 0.04, -0.04, -1, 1507.69, 2160.53)" fill="#a7aaaf"/><polyline points="688.2 1075.52 681.07 1079.93 681.54 1092.23 684.16 1092.13" fill="#565c63"/><polygon points="684.16 1092.13 683.69 1079.83 692.72 1071.2 702.88 1079.09 703.35 1091.38 684.16 1092.13" fill="#a8abaf"/><rect x="688.6" y="1081.47" width="9.85" height="8.58" transform="translate(-41.44 27.61) rotate(-2.21)" fill="#565c63"/><rect x="702.05" y="1089.24" width="1.48" height="13.64" transform="translate(1447.42 2164.14) rotate(177.79)" fill="#565c63"/><path d="M650.57,755.6l.17,4.47a.93.93,0,0,0,1.85,0l-.18-4.47a.92.92,0,0,0-1.84,0Z" fill="#565c63"/><path d="M654.92,755.22l.2,5a.92.92,0,1,0,1.84,0l-.2-5a.92.92,0,0,0-1.84,0Z" fill="#565c63"/><path d="M659.09,755.59a26.54,26.54,0,0,1-.13,4.8.92.92,0,0,0,.92.92.94.94,0,0,0,.92-.92,25.66,25.66,0,0,0,.13-4.8.92.92,0,0,0-1.84,0Z" fill="#565c63"/><path d="M663.79,756.67l-1.69,4.62a.94.94,0,0,0,.65,1.14,1,1,0,0,0,1.13-.65l1.69-4.62a.93.93,0,0,0-.64-1.13,1,1,0,0,0-1.14.64Z" fill="#565c63"/><path d="M667,758.23l-1.93,4.25a.94.94,0,0,0,.33,1.26.93.93,0,0,0,1.26-.33l1.93-4.25a.92.92,0,1,0-1.59-.93Z" fill="#565c63"/><path d="M655.33,766.21c.2,1.28,1.37,2.4,2.24,3.29a19.52,19.52,0,0,0,3,2.53,19.28,19.28,0,0,0,3.51,1.85c.74.3,2.31.54,2.49,1.49.21,1.16,2,.67,1.77-.49s-1.41-1.88-2.5-2.3a22.9,22.9,0,0,1-3.42-1.56,17.38,17.38,0,0,1-3.08-2.32,15.76,15.76,0,0,1-1.38-1.45,3.3,3.3,0,0,1-.91-1.53.91.91,0,0,0-1.13-.64.94.94,0,0,0-.64,1.13Z" fill="#565c63"/><path d="M654.91,765.08l-.25.34c-.1.14,0,0,0,.05l-.13.16c-.18.22-.36.43-.55.64a14.09,14.09,0,0,1-1.18,1.14c-.1.08-.19.17-.29.24l-.17.14,0,0-.69.49a14.13,14.13,0,0,1-1.46.84.92.92,0,0,0-.33,1.26,1,1,0,0,0,1.26.33A14.91,14.91,0,0,0,656.5,766a.93.93,0,0,0-.33-1.26.94.94,0,0,0-1.26.33Z" fill="#565c63"/><path d="M651.16,776c.56-.29.56,3,.56,3.24l.13,4.44.06,2.15c0,.57-.14,1.45.23,1.93a3.4,3.4,0,0,0,1.58.83,6.8,6.8,0,0,0,1.95.32.92.92,0,0,0,.25-1.8c-.59-.13-1.59-.62-1.6-1.36l-.46.8c-.21,0-.22,0,0,0l.43,0,.86,0,1.72.1c1.21.06,1.15-1.71,0-1.85l-2.13-.25a4.87,4.87,0,0,0-1.86-.07c-1.3.35-1.22,1.77-1.32,2.85s-.46,2.49.49,3.35a5.21,5.21,0,0,0,3.6,1c1.18-.07,1.19-1.91,0-1.85-.59,0-1.89,0-2.31-.5-.25-.31,0-1.5.07-2a8.47,8.47,0,0,1,.09-1.13c-.21.05-.24.07-.07.06h.21c.18,0,.35,0,.53.06l2.7.32V784.9c-1,0-1.91-.13-2.87-.15-.78,0-1.56.27-1.5,1.2a3.7,3.7,0,0,0,2.95,2.93l.24-1.81a5.06,5.06,0,0,1-2.34-.66l.46.79-.24-8.57c0-1.18.1-2.58-.64-3.58a2.1,2.1,0,0,0-2.68-.64c-1.05.54-.12,2.13.93,1.59Z" fill="#565c63"/><path d="M664.78,777.5a19.47,19.47,0,0,0-4.94-2.45,1.56,1.56,0,0,0-1.62.22,1.8,1.8,0,0,0-.48,1.33c0,1,.48,2.06,1.63,2a11,11,0,0,0,1.71-.26l1.7-.27a.94.94,0,0,0,.65-1.14,1,1,0,0,0-1.14-.64l-1.54.25-.65.11-.39.06s-.39.06-.2,0h-.14c-.07,0-.06,0,0,0a.29.29,0,0,1,.15.09c.07.09.08.11.05.05s0,0,0,.06a.57.57,0,0,1,0-.14c.06.16,0,0,0,0a2.43,2.43,0,0,1,0-.27.34.34,0,0,1,0-.1c0,.12,0,.13,0,0s0-.09,0,0a.34.34,0,0,1-.09.12.46.46,0,0,1-.45.15l.12,0a16.29,16.29,0,0,1,4.69,2.32.92.92,0,0,0,1.26-.33.94.94,0,0,0-.33-1.26Z" fill="#565c63"/><path d="M685.07,774.86a6.37,6.37,0,0,0,.62,2.41c.29.74.59,1.48.93,2.21a14,14,0,0,0,2.47,3.83c.82.87,2.12-.44,1.31-1.3a12.21,12.21,0,0,1-2.14-3.34c-.27-.58-.51-1.17-.75-1.77a5.71,5.71,0,0,1-.6-2,.92.92,0,0,0-1.84,0Z" fill="#565c63"/><path d="M687.64,785.88c1.36,4.81,4.1,9.25,6.81,13.41,2.43,3.73,5.33,7.24,9.29,9.41,1,.57,2-1,.93-1.59-3.79-2.08-6.52-5.46-8.82-9.05-2.54-3.94-5.15-8.12-6.43-12.67a.92.92,0,0,0-1.78.49Z" fill="#565c63"/><path d="M689.07,798.46c2.06,1.87,3.54,4.26,5.44,6.29s4.92,4.35,7.77,3.16a.94.94,0,0,0,.64-1.13.93.93,0,0,0-1.13-.65c-2.43,1-5-1.56-6.46-3.22a67.83,67.83,0,0,0-5-5.76c-.88-.79-2.18.51-1.3,1.31Z" fill="#565c63"/><path d="M695.65,805.84a31.53,31.53,0,0,0,5.7,6.12,1,1,0,0,0,1.31,0,1,1,0,0,0,0-1.31,29.69,29.69,0,0,1-5.42-5.74,1,1,0,0,0-1.26-.33.93.93,0,0,0-.33,1.26Z" fill="#565c63"/><path d="M685.21,798.85c3,3.72,6.09,7.42,9.11,11.14,1.39,1.71,2.66,3.47,3.89,5.29a12,12,0,0,0,3.9,4.05.92.92,0,0,0,.93-1.59c-1.7-1-2.72-2.6-3.77-4.19-1.2-1.79-2.53-3.49-3.89-5.16-2.94-3.62-5.91-7.23-8.87-10.84-.75-.92-2,.39-1.3,1.3Z" fill="#565c63"/><path d="M695.34,811.59a43.15,43.15,0,0,0,1,6.08c.4,1.71,1.19,3.54,2.9,4.3a1,1,0,0,0,1.26-.33.93.93,0,0,0-.33-1.26c-1.41-.63-1.83-2.15-2.13-3.53a41,41,0,0,1-.89-5.26,1,1,0,0,0-.92-.92.93.93,0,0,0-.93.92Z" fill="#565c63"/><path d="M692.56,806.89c-4.82,1.94-1.26,7.88-.25,11,.82,2.57-.23,5.15.34,7.75s2.12,4.56,3.63,6.52c.71.93,2.32,0,1.59-.93a17.74,17.74,0,0,1-3.3-5.52c-.64-2.18.18-4.33-.09-6.53-.24-2-1.21-3.7-1.9-5.53-.51-1.32-1.41-4.26.47-5,1.09-.43.62-2.22-.49-1.78Z" fill="#565c63"/><path d="M685.44,801.35c3.25,3.08,3.4,7.95,4.84,11.94.33.91,1.88.86,1.81-.25-.1-1.68-.19-3.35-.31-5a7.47,7.47,0,0,0-1.14-4l-1.59.93a21.11,21.11,0,0,1,1.87,3c.54,1.06,2.13.13,1.59-.93a21.11,21.11,0,0,0-1.87-3,.94.94,0,0,0-1.26-.33.92.92,0,0,0-.33,1.26,6.27,6.27,0,0,1,.91,3.47c.1,1.54.19,3.09.29,4.63l1.81-.24c-1.57-4.33-1.78-9.41-5.32-12.75-.86-.82-2.17.48-1.3,1.3Z" fill="#565c63"/><path d="M681.12,809.34a30.13,30.13,0,0,0,1.72,4.06,5.71,5.71,0,0,0,1.12,1.7,2.36,2.36,0,0,0,1,.53l.42.1s.15.06.16,0-.22-.17-.07,0a.92.92,0,0,0,1.31-1.3,2.17,2.17,0,0,0-.91-.51l-.38-.09a1.66,1.66,0,0,1-.21-.06c.09,0,0,0,0,0-.22-.12,0,.05-.07,0l-.08-.08c.06.06-.08-.11-.09-.13s-.07-.11-.1-.16c-.17-.3-.33-.6-.49-.9a26.76,26.76,0,0,1-1.54-3.62.94.94,0,0,0-1.13-.64.92.92,0,0,0-.64,1.13Z" fill="#565c63"/><path d="M678.08,803.74c-.32,8,2.13,15.75,5.45,23,1.67,3.61,3.52,7.14,5.45,10.62a28,28,0,0,0,7.22,8.22l.9-1.53c-3.28-1.15-5.66-4.57-7.34-7.44a48.14,48.14,0,0,1-4.15-9.78c-.36-1.12-2.14-.64-1.78.49a47.69,47.69,0,0,0,4.77,10.93c1.92,3.08,4.47,6.34,8,7.57.84.3,1.6-1,.9-1.54a26.87,26.87,0,0,1-6.94-7.85c-1.85-3.34-3.63-6.74-5.25-10.2-3.29-7-5.71-14.6-5.4-22.45,0-1.18-1.8-1.18-1.84,0Z" fill="#565c63"/><path d="M678.84,813.38c.91,4,3.15,7.77,5.08,11.37a50.53,50.53,0,0,0,6.93,10.2c.8.88,2.1-.43,1.3-1.3a48.78,48.78,0,0,1-6.64-9.83c-1.86-3.47-4-7.06-4.89-10.93-.26-1.16-2-.67-1.78.49Z" fill="#565c63"/><path d="M673.92,804.17l.28,7.25a.93.93,0,0,0,1.85,0l-.28-7.25a.93.93,0,0,0-1.85,0Z" fill="#565c63"/><path d="M671,805.89a35.93,35.93,0,0,0,1.07,12,.92.92,0,0,0,1.78-.49,34.57,34.57,0,0,1-1-11.55c.1-1.18-1.75-1.17-1.84,0Z" fill="#565c63"/><path d="M679.46,836a59.9,59.9,0,0,0,.49,11.36.94.94,0,0,0,1.14.65,1,1,0,0,0,.64-1.14A58,58,0,0,1,681.3,836a.92.92,0,0,0-1.84,0Z" fill="#565c63"/><path d="M689.34,844.65a98.65,98.65,0,0,0,.56,11,1,1,0,0,0,.92.93.94.94,0,0,0,.93-.93,98.65,98.65,0,0,1-.57-11,.92.92,0,0,0-1.84,0Z" fill="#565c63"/><path d="M692.2,845.44l.14,3.49a.92.92,0,1,0,1.84,0l-.14-3.49a.92.92,0,1,0-1.84,0Z" fill="#565c63"/><path d="M650.27,822.28c5.66,6.83,10.88,14,16.08,21.14,4.88,6.74,9.76,13.54,13.34,21.09.5,1.07,2.09.13,1.59-.93-3.65-7.7-8.64-14.6-13.62-21.47-5.2-7.18-10.43-14.31-16.08-21.14-.76-.91-2.06.4-1.31,1.31Z" fill="#565c63"/><path d="M649.81,821.25c.28,2.31,1.52,4.13,2.81,6,1.39,2,2.79,4.06,4.26,6a55.78,55.78,0,0,0,9.76,10.48c.91.74,2.23-.56,1.3-1.3a53.7,53.7,0,0,1-9.24-9.81c-1.33-1.76-2.6-3.57-3.85-5.39s-2.92-3.76-3.19-6c-.15-1.16-2-1.18-1.85,0Z" fill="#565c63"/><path d="M649.83,836.77a47.39,47.39,0,0,0,5.75,9.82,46.44,46.44,0,0,0,7.87,8.58c5.63,4.59,12.9,8.36,15.69,15.5.43,1.09,2.21.61,1.78-.49-2.69-6.88-9-10.82-14.61-15.09a44.15,44.15,0,0,1-8.47-8.53,48.36,48.36,0,0,1-6.23-10.28c-.46-1.07-2.24-.6-1.78.49Z" fill="#565c63"/><path d="M649.16,835.7a56.5,56.5,0,0,0,7.75,15.22,21,21,0,0,0,5.53,5.38,41.55,41.55,0,0,0,7.42,3.5c1.1.44,1.58-1.34.49-1.77a40.7,40.7,0,0,1-6.81-3.21,19.49,19.49,0,0,1-5.5-5.47,56.59,56.59,0,0,1-7.1-14.13c-.37-1.12-2.15-.64-1.78.48Z" fill="#565c63"/><path d="M648.17,862.64c.81,4,2.57,7.82,3.78,11.74,1.27,4.09,2.29,8.26,3.35,12.41s2.17,8.21,3.46,12.27a48.06,48.06,0,0,1,2.69,12.23c.06,1.18,1.9,1.19,1.84,0A48.15,48.15,0,0,0,660.67,899q-1.92-6.07-3.48-12.23c-1.06-4.16-2.07-8.33-3.32-12.43s-3.08-8-3.93-12.19c-.23-1.16-2-.67-1.77.49Z" fill="#565c63"/><path d="M652,894.09a77.36,77.36,0,0,0,8.65,39.23c.55,1,2.14.12,1.59-.93a75.37,75.37,0,0,1-8.39-38.3c0-1.19-1.79-1.18-1.85,0Z" fill="#565c63"/><path d="M663.27,868.31c2.62,4.57,5.36,9.09,7.78,13.77a94.88,94.88,0,0,1,5.8,15c2.38,7.44,4.32,15,6.4,22.55,1.09,4,2.18,7.94,3.42,11.87.36,1.12,2.14.64,1.78-.49-2.38-7.5-4.31-15.14-6.4-22.72-2.33-8.43-4.63-17.07-8.37-25-2.57-5.47-5.82-10.64-8.82-15.87a.92.92,0,0,0-1.59.93Z" fill="#565c63"/><path d="M667.09,875c2.55,4.87,4.21,10.14,6,15.32,2,5.82,4.33,11.51,6.7,17.18.45,1.08,2.24.61,1.78-.49-2.42-5.8-4.8-11.61-6.84-17.56-1.78-5.2-3.48-10.49-6-15.38-.55-1-2.14-.12-1.6.93Z" fill="#565c63"/><path d="M680.74,874.88a34.32,34.32,0,0,1,6,10.77c.58,1.79,1.06,3.61,1.49,5.45a34.5,34.5,0,0,1,1.18,6.19c.05,1.18,1.89,1.19,1.84,0a33.79,33.79,0,0,0-1.15-6.29c-.49-2.1-1-4.18-1.71-6.23A36.81,36.81,0,0,0,682,873.58c-.74-.94-2,.38-1.3,1.3Z" fill="#565c63"/><path d="M690.76,888.42a21.11,21.11,0,0,0-.21-13,.92.92,0,0,0-1.78.49,35.61,35.61,0,0,1,.93,10.49c-.2,3.29-.9,6.91.25,10.11a1.42,1.42,0,0,0,2.43.7,11.45,11.45,0,0,0,2.3-3.45,25.12,25.12,0,0,0,1.9-8.24l-1.81.24c.32,2.31.69,4.86-.19,7.1a4.72,4.72,0,0,1-4,3.23c-1.19,0-1.19,1.88,0,1.84a6.43,6.43,0,0,0,5.49-3.83c1.33-2.77.92-5.9.51-8.83-.15-1.1-1.72-.71-1.81.25a23.71,23.71,0,0,1-1.56,7.11,13.37,13.37,0,0,1-.85,1.64,10,10,0,0,0-1,1.39c-.33.22-.3.32.1.3.38.17.45.06.21-.32a4.16,4.16,0,0,0-.22-1,13.65,13.65,0,0,1-.2-2.3c-.05-2.8.43-5.58.42-8.38a38.16,38.16,0,0,0-1.06-8.58l-1.78.49a19.33,19.33,0,0,1,.21,12c-.35,1.13,1.43,1.62,1.78.49Z" fill="#565c63"/><path d="M680.23,892.65c1.91,6.18,3.6,12.47,6,18.47s3.21,12.07,3.8,18.41a.93.93,0,0,0,1.72.47,26.7,26.7,0,0,0,2.77-7.32.93.93,0,0,0-1.69-.71c-.8,1.09-1.58,2.2-2.32,3.33s.94,1.92,1.59.93,1.52-2.24,2.33-3.33l-1.69-.71a24.86,24.86,0,0,1-2.58,6.88l1.71.46c-.58-6.32-1.31-12.53-3.69-18.46-2.47-6.16-4.25-12.57-6.21-18.91-.35-1.13-2.12-.64-1.77.49Z" fill="#565c63"/><path d="M648.07,923.24l7.28,10.63a114.28,114.28,0,0,0,7,9.79c1.18,1.4,2.52,2.65,3.77,4a28.06,28.06,0,0,1,3.4,4.64c1.88,3.12,3.37,6.46,5.39,9.5a19.33,19.33,0,0,0,8.15,7.42l.22-1.68c-1.09.41-2,.63-2.92-.29a21,21,0,0,1-1.59-2c-1-1.39-2.08-2.79-3-4.24-1.86-2.87-3-6.12-4.81-9s-4.3-4.7-6.6-6.9c-2.13-2.05-4.76-4.51-5-7.64-.08-1.18-1.92-1.19-1.85,0,.22,3.44,2.59,6.07,4.93,8.38,2.66,2.63,5.73,4.86,7.55,8.22.91,1.67,1.62,3.46,2.53,5.14a46.6,46.6,0,0,0,3.16,5,48.05,48.05,0,0,0,3.36,4.42c1.36,1.47,2.93,1.43,4.72.76.64-.25,1-1.34.22-1.69-6.57-2.85-9.19-9.94-12.55-15.71a47.38,47.38,0,0,0-6.75-8.39,79.3,79.3,0,0,1-7-9.55l-8-11.66c-.67-1-2.27,0-1.59.93Z" fill="#565c63"/><path d="M667.94,949.3c2.75,4.88,2.95,10.9,5.8,15.71,1.75,3,4.42,5.3,6,8.36.79,1.58,1.25,3.3,1.95,4.91,1.45,3.3,3.87,6.05,6.25,8.75-3.16-3.21-7.64-5.19-9.93-9.08a44.29,44.29,0,0,1-2.21-5.31c-1.92-4.53-5.54-8.33-6.67-13.12-.44-1.85-.61-4-2.15-5.14a.84.84,0,0,0-.7-.21c-.3.08-.45.41-.53.71-1.08,3.64,1,7.41,1.37,11.2-1.81-2.59-3.66-5.3-4.21-8.41-.51-2.91.16-6-.67-8.81-.33-1.15-.9-2.21-1.28-3.35a5,5,0,0,1-.1-3.5" fill="#565c63"/><path d="M667.15,949.77c1.79,3.28,2.47,7,3.59,10.49a26.59,26.59,0,0,0,4.89,8.89,29,29,0,0,1,3.08,4.32c.9,1.68,1.37,3.54,2.14,5.28,1.49,3.38,4,6.19,6.39,8.93l1.31-1.3c-2.47-2.45-5.56-4.14-8-6.6-2.79-2.84-3.43-6.9-5.34-10.28-1.82-3.21-4.18-6.23-5.14-9.84-.43-1.58-.55-3.3-1.42-4.72-.62-1-2-2.35-3.23-1.34s-1,3.88-.79,5.35c.36,2.41,1.26,4.7,1.52,7.13l1.72-.47a33.63,33.63,0,0,1-3.16-5.16,14.7,14.7,0,0,1-1.15-6.32,18.25,18.25,0,0,0-.62-5.94c-.65-1.93-2-3.84-1.24-5.94.39-1.12-1.39-1.6-1.78-.49-.74,2.15.14,4.1.93,6.08a17.82,17.82,0,0,1,.87,6.73,15.79,15.79,0,0,0,1.13,6.2,31.37,31.37,0,0,0,3.43,5.77c.46.67,1.82.54,1.71-.46-.25-2.31-1-4.49-1.44-6.76a9.62,9.62,0,0,1-.08-3.78c.15-.68.27-.17.59.33a5,5,0,0,1,.57,1.4,39.27,39.27,0,0,0,1.7,5.7,48.31,48.31,0,0,0,3,5.38,34.2,34.2,0,0,1,3,5.77,20.23,20.23,0,0,0,2.8,5.71c2.51,3.18,6.25,5,9.09,7.85.85.85,2.09-.42,1.31-1.3-2.47-2.79-5-5.65-6.35-9.16a38.27,38.27,0,0,0-2.1-5,31.49,31.49,0,0,0-2.91-4,27.55,27.55,0,0,1-3.06-4.36,26.8,26.8,0,0,1-1.92-5c-1-3.37-1.77-6.81-3.47-9.92-.57-1-2.16-.11-1.59.93Z" fill="#565c63"/><path d="M672.93,981a38.2,38.2,0,0,0,3,12.64c1,2.09,2.32,4,3.11,6.13a40.77,40.77,0,0,1,1.63,6.71c.22,1.17,2,.67,1.78-.49a42.9,42.9,0,0,0-1.63-6.71,49.85,49.85,0,0,0-2.71-5.36A34.19,34.19,0,0,1,674.77,981c-.1-1.17-1.95-1.18-1.84,0Z" fill="#565c63"/><path d="M653.49,981.83c-.19,3.46,2,6.56,2.89,9.91a43.45,43.45,0,0,1,.82,5c.36,2.36,1,4.68,1.44,7,2.12,10.31,1.85,21,3.61,31.35.81,4.77,2.28,9.83,6.09,12.81q-5.12.13-10.23-.21l-.32-3.83a2.13,2.13,0,0,0-.31-1.09c-.63-.81-2-.3-2.89-.81-.14-5.67-.84-48.72-1.12-52.19-.21-2.52-.69-5.07-.23-7.56" fill="#565c63"/><path d="M652.57,981.83c-.13,4.37,2.73,8.14,3.37,12.4.72,4.77,1.89,9.45,2.59,14.23,1.4,9.54,1.19,19.31,3.19,28.77.89,4.23,2.51,8.52,6,11.32l.65-1.57q-5.12.12-10.23-.21l.92.92-.24-2.87a5.84,5.84,0,0,0-.43-2.35c-.78-1.38-2.1-.78-3.3-1.31l.46.8c-.18-6.92-.27-13.83-.4-20.74-.16-8.79-.31-17.59-.55-26.37,0-1.35-.07-2.7-.13-4.05-.12-2.78-.76-5.56-.32-8.34.19-1.16-1.59-1.66-1.77-.49-.6,3.74.23,7.69.34,11.48s.19,7.45.26,11.17q.3,14.05.54,28.12c.06,3.07.1,6.14.18,9.22a.92.92,0,0,0,.46.79,4,4,0,0,0,1.11.34c.58.09,1.1,0,1.44.45a4.31,4.31,0,0,1,.33,2l.18,2.15a1,1,0,0,0,.92.92q5.11.33,10.23.21c.73,0,1.31-1,.65-1.57-3.08-2.49-4.52-6.18-5.37-9.94a99,99,0,0,1-1.78-13.62c-.39-4.77-.7-9.55-1.33-14.3s-1.91-9.1-2.53-13.71a28.29,28.29,0,0,0-1.68-7c-.91-2.22-2-4.43-1.89-6.89,0-1.19-1.8-1.19-1.84,0Z" fill="#565c63"/><path d="M656.41,1000.58c4.37,5.61,13,6,16.25,12.64a15.42,15.42,0,0,0,3.17,4.85c1.28,1.19,2.78,2.1,4.11,3.23a7.73,7.73,0,0,1,2.77,4.61,15.41,15.41,0,0,0,2.9,5.61c.7.94,2.3,0,1.6-.93a23.52,23.52,0,0,1-1.83-2.72,13.4,13.4,0,0,1-1.07-3.26,8.47,8.47,0,0,0-2.69-4.29c-1.34-1.2-2.89-2.14-4.24-3.33-1.61-1.42-2.35-3.2-3.32-5.08-3.43-6.64-12-7-16.35-12.63-.72-.93-2,.38-1.3,1.3Z" fill="#565c63"/><path d="M683.09,1032.35q1,3.45,2.25,6.83a1,1,0,0,0,1.13.64.93.93,0,0,0,.65-1.13q-1.27-3.37-2.26-6.83a.92.92,0,1,0-1.77.49Z" fill="#565c63"/><path d="M677.59,1019.56c1.23,2.15,1.27,4.66,1.26,7.07a18.71,18.71,0,0,0,.95,7.36.92.92,0,1,0,1.77-.49c-2-4.76.28-10.25-2.39-14.87a.92.92,0,0,0-1.59.93Z" fill="#565c63"/><path d="M664.76,1006.53c1.07,5.45,1.79,11.07,4.09,16.17,2.12,4.72,4.58,9.65,8.1,13.48.81.88,2.11-.43,1.31-1.3-3.41-3.71-5.77-8.55-7.82-13.11-2.22-4.93-2.87-10.47-3.9-15.73-.23-1.16-2-.67-1.78.49Z" fill="#565c63"/><path d="M672.25,1029.86c.13,4,.56,8.05,3.11,11.29a.93.93,0,0,0,1.3,0,1,1,0,0,0,0-1.31c-2.21-2.8-2.45-6.57-2.56-10a.93.93,0,0,0-1.85,0Z" fill="#565c63"/><path d="M668.07,1027.74c-.15,3.64-.27,7.38.7,10.93s3.35,6.34,6.08,8.9c.87.81,2.17-.49,1.3-1.31-2.59-2.42-4.79-4.85-5.68-8.38a35.18,35.18,0,0,1-.56-10.14c.05-1.19-1.79-1.18-1.84,0Z" fill="#565c63"/><path d="M672,1009.63c-1.46-.44-4.64-2-5.15.38a13.21,13.21,0,0,0,.07,3.2l.19,3.64,1.81-.25-.6-3.9c-.09-.61-.85-3.25,0-3.46a.92.92,0,0,0,.55-1.35,3.53,3.53,0,0,0-2.67-1.48.92.92,0,0,0-.92.92l.09,2.38,1.39-.8a11.21,11.21,0,0,1-3.63-4.7l-1.45,1.12a6.65,6.65,0,0,1,2,2.48l1.59-.93c-2-2.66-4.17-5.3-7.38-6.55-1.11-.43-1.59,1.36-.49,1.78,2.7,1,4.57,3.47,6.28,5.7a.92.92,0,0,0,1.59-.93,7.76,7.76,0,0,0-2.26-2.85.92.92,0,0,0-1.45,1.11,12.86,12.86,0,0,0,4.29,5.36.93.93,0,0,0,1.39-.79l-.1-2.38-.92.92a1.49,1.49,0,0,1,1.08.57l.55-1.36c-1.84.48-1.77,2.41-1.54,3.93q.43,2.85.88,5.7c.15,1,1.86.79,1.81-.24l-.27-5.16a4.6,4.6,0,0,0-.06-1.12c-.09-.28.09-.05-.12-.06a3,3,0,0,1,.51.14l2.49.75c1.13.35,1.62-1.43.49-1.77Z" fill="#565c63"/><path d="M671.54,834.13l-.11.79h1.78a4.28,4.28,0,0,0-3.81-3,.92.92,0,0,0-.92.92.94.94,0,0,0,.92.92l.22,0-.25,0a3.17,3.17,0,0,1,.8.22l-.22-.1a5.45,5.45,0,0,1,.53.29l.15.1,0,0,.24.22.21.22c.05.06.14.21,0,0,0,0,.06.08.08.12a3.81,3.81,0,0,1,.31.56l-.1-.22a2.32,2.32,0,0,1,.13.37.94.94,0,0,0,.89.67,1.31,1.31,0,0,0,.47-.12,1,1,0,0,0,.42-.55l.11-.79a1,1,0,0,0-.09-.71,1,1,0,0,0-.55-.42.92.92,0,0,0-.71.09.91.91,0,0,0-.43.55Z" fill="#565c63"/><path d="M664.3,818.51a26.18,26.18,0,0,1-1.47,2.29q-.18.27-.39.54l-.19.26c0-.07,0-.05,0,0a1.13,1.13,0,0,0-.1.13q-.43.56-.9,1.08a.94.94,0,0,0,0,1.3.93.93,0,0,0,1.3,0,29.75,29.75,0,0,0,3.35-4.68.92.92,0,0,0-.33-1.26,1,1,0,0,0-1.26.33Z" fill="#565c63"/><path d="M661.83,812.71a11.29,11.29,0,0,1-3.61,6.92.92.92,0,0,0,1.3,1.3,13.17,13.17,0,0,0,4.16-8.22.94.94,0,0,0-.93-.92,1,1,0,0,0-.92.92Z" fill="#565c63"/><path d="M658.15,814.22l-2.68,3.26a1,1,0,0,0-.27.65.91.91,0,0,0,.27.65.93.93,0,0,0,1.3,0l2.68-3.25a1,1,0,0,0,.27-.66,1,1,0,0,0-.27-.65.93.93,0,0,0-1.3,0Z" fill="#565c63"/><path d="M656.34,807c.61,3.09-2,5.81-3.87,7.88-.8.88.5,2.18,1.31,1.31,2.42-2.65,5.1-5.81,4.34-9.68a.92.92,0,0,0-1.78.49Z" fill="#565c63"/><path d="M651.31,801.76a54.42,54.42,0,0,0-1.37,9h1.84a97.51,97.51,0,0,1,.21-13.46c.11-1.19-1.74-1.18-1.84,0a94.47,94.47,0,0,0-.21,13.46.92.92,0,0,0,1.84,0,51.69,51.69,0,0,1,1.31-8.49c.28-1.15-1.5-1.64-1.78-.49Z" fill="#565c63"/><path d="M652.14,939.59l2,48.39,1.81-.24a119.93,119.93,0,0,1-1.52-17.12.93.93,0,0,0-1.85,0,125.27,125.27,0,0,0,1.59,17.61c.16,1,1.85.78,1.81-.25l-2-48.39c-.05-1.18-1.89-1.19-1.84,0Z" fill="#565c63"/><rect x="544.85" y="1000.77" width="109" height="44.14" transform="translate(-39.08 23.93) rotate(-2.21)" fill="#a7aaaf"/><rect x="538.57" y="921.77" width="114.45" height="18.72" transform="translate(-35.54 23.72) rotate(-2.21)" fill="#878b8e"/><rect x="542.62" y="985.06" width="111.04" height="13.53" transform="translate(-37.88 23.86) rotate(-2.21)" fill="#d3d3d3"/><rect x="540.32" y="939.05" width="113.17" height="41.54" transform="translate(-36.65 23.79) rotate(-2.21)" fill="#d3d3d3"/><rect x="536.17" y="866.88" width="116.41" height="54.97" transform="translate(-34.12 23.64) rotate(-2.21)" fill="#d3d3d3"/><rect x="532.33" y="821.08" width="118.95" height="13.69" transform="translate(-31.55 23.49) rotate(-2.21)" fill="#d3d3d3"/><rect x="531.56" y="807.41" width="119.38" height="12.34" transform="translate(-31 23.46) rotate(-2.21)" fill="#d3d3d3"/><rect x="533.78" y="845.66" width="118.02" height="15.14" transform="matrix(1, -0.04, 0.04, 1, -32.53, 23.55)" fill="#d3d3d3"/><rect x="533.3" y="838.1" width="118.02" height="5.78" transform="translate(-32.06 23.52) rotate(-2.21)" fill="#d3d3d3"/><rect x="528.27" y="753.64" width="121.43" height="2.6" transform="translate(-28.74 23.33) rotate(-2.21)" fill="#d3d3d3"/><rect x="528.37" y="756.24" width="121.43" height="2.6" transform="translate(-28.84 23.33) rotate(-2.21)" fill="#a7aaaf"/><rect x="528.92" y="768.1" width="121.43" height="7.37" transform="translate(-29.39 23.36) rotate(-2.21)" fill="#a7aaaf"/><rect x="529.44" y="783.61" width="121.43" height="3.18" transform="translate(-29.9 23.39) rotate(-2.21)" fill="#a7aaaf"/><rect x="529.56" y="786.78" width="121.43" height="3.18" transform="matrix(1, -0.04, 0.04, 1, -30.03, 23.4)" fill="#878b8e"/><rect x="534.99" y="860.79" width="116.41" height="6.11" transform="translate(-32.94 23.57) rotate(-2.21)" fill="#878b8e"/><rect x="543.19" y="998.67" width="110.52" height="2.12" transform="translate(-38.19 23.87) rotate(-2.21)" fill="#878b8e"/><rect x="541.36" y="980.57" width="112.88" height="4.5" transform="translate(-37.54 23.84) rotate(-2.21)" fill="#878b8e"/><rect x="529.68" y="789.96" width="121.43" height="3.18" transform="translate(-30.15 23.41) rotate(-2.21)" fill="#a7aaaf"/><rect x="531.23" y="805.17" width="119.54" height="3.58" transform="translate(-30.74 23.44) rotate(-2.21)" fill="#a7aaaf"/><rect x="531.77" y="819.74" width="119.54" height="2.41" transform="translate(-31.28 23.47) rotate(-2.21)" fill="#a7aaaf"/><rect x="532.98" y="833.82" width="118.31" height="4.97" transform="translate(-31.88 23.51) rotate(-2.21)" fill="#a7aaaf"/><rect x="535.53" y="880.33" width="116.7" height="2.48" transform="translate(-33.63 23.61) rotate(-2.21)" fill="#a7aaaf"/><rect x="535.73" y="885.81" width="116.7" height="1.89" transform="translate(-33.83 23.62) rotate(-2.21)" fill="#c6c9ce"/><rect x="536.89" y="896.29" width="115.17" height="1.24" transform="matrix(1, -0.04, 0.04, 1, -34.22, 23.64)" fill="#a7aaaf"/><rect x="537.31" y="907.19" width="115.17" height="1.24" transform="translate(-34.64 23.67) rotate(-2.21)" fill="#878b8e"/><rect x="537.25" y="900.12" width="114.74" height="1.24" transform="translate(-34.37 23.65) rotate(-2.21)" fill="#a7aaaf"/><rect x="537.41" y="903.52" width="114.74" height="2.55" transform="translate(-34.52 23.66) rotate(-2.21)" fill="#c6c9ce"/><rect x="538.41" y="926.67" width="114.74" height="8.14" transform="translate(-35.52 23.72) rotate(-2.21)" fill="#c6c9ce" opacity="0.19"/><rect x="533.32" y="843.99" width="118.31" height="2.46" transform="translate(-32.22 23.53) rotate(-2.21)" fill="#878b8e"/><rect x="532.53" y="824.15" width="118.31" height="1.21" transform="translate(-31.43 23.48) rotate(-2.21)" fill="#a7aaaf"/><rect x="530.22" y="793.13" width="120.61" height="3.18" transform="translate(-30.27 23.41) rotate(-2.21)" fill="#d3d3d3"/><rect x="529.22" y="775.47" width="121.43" height="8.14" transform="translate(-29.69 23.38) rotate(-2.21)" fill="#878b8e"/><rect x="530.8" y="796.3" width="119.9" height="8.88" transform="translate(-30.5 23.43) rotate(-2.21)" fill="#878b8e"/><rect x="528.6" y="758.81" width="121.43" height="9.74" transform="translate(-29.07 23.35) rotate(-2.21)" fill="#d3d3d3"/><rect x="540.93" y="972.74" width="113.17" height="5.77" transform="translate(-37.26 23.82) rotate(-2.21)" fill="#a7aaaf"/><rect x="542.62" y="985.06" width="111.04" height="13.53" transform="translate(-37.88 23.86) rotate(-2.21)" fill="#d3d3d3"/><rect x="542.93" y="995.17" width="110.82" height="3.5" transform="translate(-38.08 23.87) rotate(-2.21)" fill="#a7aaaf"/><rect x="543.53" y="1044.89" width="113.86" height="13.53" transform="translate(-40.19 23.99) rotate(-2.21)" fill="#d3d3d3"/><rect x="545.25" y="1028.79" width="108.7" height="1.63" transform="translate(-39.34 23.94) rotate(-2.21)" fill="#878b8e"/><rect x="545.42" y="1033" width="108.7" height="1.63" transform="translate(-39.5 23.95) rotate(-2.21)" fill="#878b8e"/><rect x="545.57" y="1037" width="108.7" height="1.63" transform="translate(-39.66 23.96) rotate(-2.21)" fill="#878b8e"/><rect x="545.69" y="1040.05" width="108.7" height="1.63" transform="matrix(1, -0.04, 0.04, 1, -39.78, 23.97)" fill="#878b8e"/><rect x="545.81" y="1043.26" width="108.7" height="1.63" transform="translate(-39.9 23.97) rotate(-2.21)" fill="#878b8e"/></svg>