<svg xmlns="http://www.w3.org/2000/svg" width="1250" height="1550" viewBox="0 0 1250 1550"><title>s03e06-01</title><path d="M521.83,302.65s-2.54-10.58-2.37-15.43c.11-3.49,5-5.78,5.49-9.23s4.06-6.11,5.16-9.53,3.3-8.46,1.6-11.61c-1.3,5.93-6.89,12.16-9.58,17.62.39-6.39,2.74-17.86-.48-23.39-.4,4-3.71,9.06-4.11,13.1-.67-6.26-1.48-14.73-2.15-21-.57,3.63-2,13.47-2.56,17.1a221.35,221.35,0,0,0-6-33.33A70.28,70.28,0,0,1,505.65,251c-1.24-9.41-.92-18.54-4.27-27.42.13,2.24-2.39,4.34-2.26,6.59a12,12,0,0,0-1.95-3.88,7.69,7.69,0,0,0-2.34,2.13c-1.63-4.16-.58-8.46-1-12.91-.22,1.13-2.52,2.18-2.73,3.31L477,191.9l2.17,16.81a28.59,28.59,0,0,1-3.75-6.75l-1.07,8.62c-2.32-5.14-8.43-20.5-11.7-25.08.07,3.21,3.45,16.88,3.53,20.09-4.26-4.7-7.86-9.74-13.09-13.35.42.68-.37,2.2,0,2.88a22.16,22.16,0,0,0-16.66-5.9,70.1,70.1,0,0,1,18.67,19.59c-3.76.21-10.77,1.16-11.28.84l7.07,1.73-3.84,3.15,6.55.58-6.49,3A47.47,47.47,0,0,1,463.57,223l-20.7,4.87a30.9,30.9,0,0,1,10.85,3.81l-2.45,1.26a75.42,75.42,0,0,1,20,6.91,49.41,49.41,0,0,1-12.63,2.9,36.79,36.79,0,0,1,15.9,3l-24.06,8.05,27.27,5.07-14,4.68,20.38,4.83-10.22,3.38A87,87,0,0,1,492.34,277a92.34,92.34,0,0,1-16.45,8.17c7.83,1.86,12.26.75,20.09,2.61-3.35,1.3-3.61,4.77-7.18,4.41,5.68-.27,26.22-5.52,27.55-3.83s3.8,14.47,3.8,14.47" fill="#e5e07a"/><path d="M522.76,302.39c-.46-1.9-.86-3.82-1.22-5.75-.57-3-1.36-6.33-1.12-9.42.13-1.74,1.53-3.08,2.63-4.31a11.62,11.62,0,0,0,2.66-4,18.93,18.93,0,0,1,.8-2.66,18.4,18.4,0,0,1,1.65-2.63,20.21,20.21,0,0,0,2.88-4.94c1.31-3.75,3.42-8.48,1.5-12.36a1,1,0,0,0-1.76.23c-1.51,6.5-6.54,11.54-9.48,17.39l1.8.49c.26-4.14.93-8.24,1.13-12.38.18-3.81.17-8.07-1.75-11.49a1,1,0,0,0-1.79.48c-.54,4.59-3.58,8.49-4.11,13.1h1.92c-.74-7-1.4-14-2.14-21-.11-1-1.71-1.42-1.9-.25-.9,5.69-1.66,11.4-2.56,17.09l1.9.26a227.61,227.61,0,0,0-6-33.59c-.26-1-2-.85-1.89.26a70.77,70.77,0,0,1-1.14,23.8l1.89.26c-1.19-9.27-1-18.8-4.3-27.68a1,1,0,0,0-1.89.26c0,2.38-2.27,4.12-2.26,6.59l1.89-.26a13.6,13.6,0,0,0-2.05-4.1,1,1,0,0,0-1.32-.35A9.78,9.78,0,0,0,494,228l1.76.23c-1.5-4.08-.6-8.43-.94-12.66a1,1,0,0,0-1.89-.25c-.21.67-1.09,1.17-1.58,1.63a3.79,3.79,0,0,0-1.15,1.67l1.76-.23L477.8,191.41c-.42-.8-1.91-.48-1.79.49l2.17,16.81,1.8-.49a29,29,0,0,1-3.66-6.51,1,1,0,0,0-1.9.25l-1.06,8.62,1.79-.48c-1.9-4.23-3.63-8.52-5.49-12.75s-3.59-8.6-6.21-12.34a1,1,0,0,0-1.79.49c.11,3.34,1.07,6.74,1.73,10s1.68,6.73,1.79,10.09l1.65-.68c-4.24-4.71-8-9.83-13.28-13.5-.65-.46-1.73.31-1.42,1.08s-.35,1.93,0,2.89l1.61-.94a23.35,23.35,0,0,0-17.34-6.18,1,1,0,0,0-.48,1.79,69.79,69.79,0,0,1,18.31,19.25l.84-1.45c-2.19.13-4.36.37-6.54.59-1,.09-1.92.19-2.88.26-.35,0-.7.05-1.05.05-.18,0-.69-.09-.32.07l-.74,1.76,7.06,1.73-.43-1.61-3.83,3.15c-.71.58-.06,1.58.68,1.65l6.55.57-.48-1.79-6.5,3c-1,.44-.35,1.7.49,1.79a47,47,0,0,1,16,4.73l.23-1.76-20.7,4.86c-.88.21-1,1.7,0,1.86a31.13,31.13,0,0,1,10.62,3.71v-1.66l-2.45,1.26a1,1,0,0,0,.23,1.75,76.66,76.66,0,0,1,19.73,6.82l.23-1.76a49.72,49.72,0,0,1-12.38,2.86c-1.21.12-1.26,2,0,1.93A36.51,36.51,0,0,1,474,246.53l.23-1.76-24.05,8c-.83.28-1,1.67,0,1.86l27.27,5.07V257.9l-14,4.67a1,1,0,0,0,0,1.85l20.38,4.84V267.4l-10.22,3.39c-.82.27-1,1.68,0,1.85a89.25,89.25,0,0,1,18.48,5.27l-.23-1.76a92.89,92.89,0,0,1-16.22,8.07c-.82.32-1,1.63,0,1.86,6.62,1.54,13.47,1.07,20.08,2.6l-.23-1.76a9.87,9.87,0,0,0-3.33,2.58c-1,1.08-1.81,1.81-3.36,1.7v1.93a64.5,64.5,0,0,0,8.49-1.3c3.66-.7,7.32-1.44,11-2.07a45.07,45.07,0,0,1,7.25-.75c.22,0,.24.08.2.06-.28-.16-.1-.18,0,.1.17.48.4.94.55,1.43.49,1.5.87,3,1.24,4.57.63,2.62,1.19,5.25,1.7,7.9.24,1.21,2.09.7,1.86-.51q-.69-3.58-1.52-7.12c-.39-1.66-.79-3.33-1.29-5a6.69,6.69,0,0,0-1.31-2.89,3.5,3.5,0,0,0-2.43-.54,32.34,32.34,0,0,0-4,.41c-3.71.54-7.4,1.29-11.08,2a78.19,78.19,0,0,1-10.61,1.73,1,1,0,0,0,0,1.93c3.62.25,4.71-3.29,7.66-4.54a1,1,0,0,0-.23-1.76c-6.62-1.54-13.46-1.07-20.08-2.61v1.86a96.27,96.27,0,0,0,16.68-8.27,1,1,0,0,0-.23-1.76,88.52,88.52,0,0,0-18.47-5.26v1.85l10.22-3.38a1,1,0,0,0,0-1.86L464,262.57v1.85l14-4.67c.83-.27,1-1.67,0-1.85l-27.27-5.08v1.86l24.06-8.05c.69-.23,1.05-1.41.23-1.76a38.77,38.77,0,0,0-16.39-3.13v1.93a51.85,51.85,0,0,0,12.89-2.93,1,1,0,0,0,.23-1.76,77.71,77.71,0,0,0-20.18-7l.23,1.76,2.44-1.26a1,1,0,0,0,0-1.66,32.67,32.67,0,0,0-11.08-3.91v1.86l20.7-4.87a1,1,0,0,0,.23-1.76,50.19,50.19,0,0,0-16.93-5l.48,1.8,6.5-3c.95-.44.36-1.72-.49-1.79l-6.55-.58.68,1.64,3.84-3.14a1,1,0,0,0-.43-1.61l-7.06-1.74c-1-.24-1.78,1.31-.74,1.76,1.29.58,3.24.07,4.59-.06,2.38-.23,4.77-.5,7.17-.64a1,1,0,0,0,.83-1.45,72.2,72.2,0,0,0-19-19.94l-.49,1.79a21.5,21.5,0,0,1,16,5.62c.64.6,2,0,1.61-.93s.35-1.93,0-2.89l-1.41,1.09c5.08,3.57,8.77,8.63,12.88,13.2a1,1,0,0,0,1.65-.68c-.12-3.34-1.07-6.74-1.74-10s-1.67-6.73-1.79-10.09l-1.79.48c2.62,3.74,4.38,8.19,6.21,12.34s3.59,8.53,5.49,12.75c.44,1,1.69.33,1.79-.49l1.07-8.62-1.89.26a30.78,30.78,0,0,0,3.85,7c.49.66,1.93.58,1.8-.48l-2.17-16.81-1.8.49,14.15,26.93a1,1,0,0,0,1.76-.23c.2-.67,1.08-1.17,1.58-1.63a3.87,3.87,0,0,0,1.15-1.67l-1.89-.26c.35,4.41-.56,8.91,1,13.17a1,1,0,0,0,1.76.23,7.13,7.13,0,0,1,2-1.79l-1.32-.34a12.15,12.15,0,0,1,1.85,3.64,1,1,0,0,0,1.89-.25c0-2.38,2.27-4.13,2.27-6.59l-1.89.26c3.22,8.71,3.05,18,4.22,27.16.13,1,1.64,1.42,1.9.25a72.5,72.5,0,0,0,1.2-24.31l-1.89.25a223.62,223.62,0,0,1,6,33.08c.1,1,1.71,1.42,1.89.25.9-5.69,1.66-11.4,2.56-17.09l-1.89-.26c.75,7,1.4,14,2.15,21a1,1,0,0,0,1.92,0c.54-4.58,3.58-8.49,4.11-13.1l-1.79.49c1.85,3.31,1.66,7.58,1.44,11.25-.23,3.89-.84,7.75-1.09,11.65A1,1,0,0,0,523,275c3-6,8.12-11.16,9.68-17.85l-1.76.23c.87,1.76.45,3.89,0,5.71a51.13,51.13,0,0,1-1.79,5.5,27.31,27.31,0,0,1-3.2,5.06,13.38,13.38,0,0,0-1.34,2.43c-.36.88-.42,1.83-.78,2.7-1.26,3-4.8,4.62-5.21,8.07-.35,3,.41,6.25.93,9.16.42,2.32.89,4.65,1.44,7,.29,1.2,2.15.69,1.86-.52Z" fill="#afa748"/><path d="M662.35,346.2s-1.8-8.8-8.34-19.88a1.57,1.57,0,0,0,.37-1.92c-.81-1.64-1.59-3.31-2.5-4.9a5.29,5.29,0,0,0-1.4-1.68,2.91,2.91,0,0,0-1.36-.54c-.07-.68,0-1.43-.09-2.07a5.63,5.63,0,0,0-1-2.66,3.89,3.89,0,0,0-2.51-1.58,5.79,5.79,0,0,0-1.61,0,3.32,3.32,0,0,0-.27-.9,4.09,4.09,0,0,0-1.61-1.76,5.07,5.07,0,0,0-3-.64c-13.86-13-35.56-24.47-69.18-25.46-1.84-2.58-6-2.82-8.92-1.91-.33.1-1,.62-1.26.63s-.7-.38-1-.47a4.31,4.31,0,0,0-2.68-.18,4.48,4.48,0,0,0-2,1.16,5.09,5.09,0,0,0-.7,1.17c-1.07.09-2.13.18-3.18.29l-.09,0a12.23,12.23,0,0,0-2.79-.62,5.34,5.34,0,0,0-2.81.52c-.34.17-.74.66-1.08.75a2.17,2.17,0,0,1-1.29-.31c-1.76-.67-3.68-1.32-5.51-.5a4.26,4.26,0,0,0-2,1.77,5.12,5.12,0,0,0-5.87,2.5,1.89,1.89,0,0,0-.13.35c-18.54,5.89-31.08,16-39.51,26.48a6.19,6.19,0,0,0-1.78.17,3,3,0,0,0-1.75,1.27,3.14,3.14,0,0,0-.37,1.79h0a2.21,2.21,0,0,0-2.11,1.06,4.07,4.07,0,0,0-.27,2.39c0,.22.09.43.13.64a2.78,2.78,0,0,0-1.68,1,2.41,2.41,0,0,0,.14,3.11,78,78,0,0,0-9.14,25.36s5.52,18.61,10.6,22.26c.78.55,1.39-.51,2.14-2.69a3.15,3.15,0,0,0,2.29-1.44c1.05-1.66,1-4,.63-6,1.67-1.4,1.73-3.69,1.72-6v-.43l.21-.52a3.87,3.87,0,0,1,.36-.28,4.8,4.8,0,0,0,1.26-1.32,4.86,4.86,0,0,0,.72-2.18c1.86-.66,2.59-2.83,2.72-4.86a5.42,5.42,0,0,0,3.13-4.34,15.61,15.61,0,0,0,.17-1.81c.06-.93,0-.63.71-1a5.69,5.69,0,0,0,2.5-2.26,6.16,6.16,0,0,0,.62-1.5c.16-.66,0-.6.68-.63a7.92,7.92,0,0,0,3.44-.89,5.62,5.62,0,0,0,2.94-4.75,5.89,5.89,0,0,0,3.75-4.66C524.37,317,541,310.9,565.1,310.9a127,127,0,0,1,22.91,2,13.35,13.35,0,0,0,7.39,2.22,4.11,4.11,0,0,0,3.64,2.15,10.23,10.23,0,0,0,1.65-.15,2.29,2.29,0,0,1,1.75.46,25.15,25.15,0,0,0,2.72,1.43,22.79,22.79,0,0,0,3.28,1.15c.56.15,1.14.28,1.72.38.31.05,1.37,0,1.59.25s.21.91.35,1.25a2.82,2.82,0,0,0,.74,1.1,3.78,3.78,0,0,0,2.28.84,7.15,7.15,0,0,1,2.31.23,8.34,8.34,0,0,1,2.09,1.71,10.49,10.49,0,0,0,2.29,1.63,2.26,2.26,0,0,1,1.47,1.95c.84,3.86,4.25,4.77,7.73,4.69.41.18.82.37,1.24.54h0l.67.67c0,.05,0,.09,0,.13a3.78,3.78,0,0,0,3.07,4.25,13.15,13.15,0,0,0,3,4.82,23,23,0,0,0,2.64,2.84c.38.31,1,.58,1.08,1s0,1,.18,1.55a5.62,5.62,0,0,0,1.68,2.43,14.36,14.36,0,0,0,1.31,1,5.6,5.6,0,0,1,1.27.87c.28.4.11.94.13,1.42a4.78,4.78,0,0,0,.37,1.62,4.66,4.66,0,0,0,1.27,1.73,3.46,3.46,0,0,0,.59,2.49,3.78,3.78,0,0,0,1.57,1.16,2,2,0,0,0,.27.11s0,.06.08.22a7,7,0,0,1,.36,1.69c.35,1.66.43,3.86,1.55,5.22a4.31,4.31,0,0,0,2.7,1.43c.52.69,1,1,1.45,1C663.24,371.64,662.35,346.2,662.35,346.2Z" fill="#5d4028"/><path d="M384.49,1268.08c.18.55.35,1.1.53,1.65l3.75,11.6a2.07,2.07,0,0,0,.15.34,1.43,1.43,0,0,0,.14.2l0,.06.18.18.09.08.06,0a1.57,1.57,0,0,0,1.5.28l4.71-1.83a1.78,1.78,0,0,0,1-2.56l-.72-1.57-5-11.1a1.73,1.73,0,0,0-2-.77l-3.25,1.25A1.77,1.77,0,0,0,384.49,1268.08Zm5.12,6.52,1.6-.66a1.16,1.16,0,0,1,1.51.64l1.21,3a1.15,1.15,0,0,1-.64,1.5l-1.6.66a1.17,1.17,0,0,1-1.51-.63l-1.21-3A1.15,1.15,0,0,1,389.61,1274.6Z" fill="#7a7977"/><path d="M833.72,1244.2l-3.24-1.25a1.73,1.73,0,0,0-2,.76l-5,11.11-.72,1.57a1.78,1.78,0,0,0,1,2.56l4.72,1.83a1.58,1.58,0,0,0,1.49-.28l.06,0a.39.39,0,0,1,.1-.08l.17-.18,0-.06a1.53,1.53,0,0,0,.14-.21,1.66,1.66,0,0,0,.15-.33l3.75-11.6c.18-.55.36-1.1.53-1.65A1.77,1.77,0,0,0,833.72,1244.2Zm-3.31,10.17-1.21,3a1.16,1.16,0,0,1-1.51.64l-1.6-.66a1.16,1.16,0,0,1-.64-1.5l1.21-3a1.17,1.17,0,0,1,1.51-.63l1.6.66A1.15,1.15,0,0,1,830.41,1254.37Z" fill="#7a7977"/><path d="M803,1225.79s10.81,106.24,7.76,124.42-50-28-172.81,1.63c-114.38,27.55-225.66,11.82-229.55-5s-4.72-121-4.72-121L599.26,899.05Z" fill="#999" stroke="#262521" stroke-linecap="round" stroke-linejoin="round" stroke-width="3.74"/><path d="M801.77,586.45C790.07,580.79,649,526.71,649,526.71S649.27,574,577.7,576c-65.05,1.88-78.61-48.75-78.59-48.83-1.05.66-143.23,87.92-154.88,93.55-2.17,1-15.49,16.94-15.81,45.24l0,0C326.69,673,807.2,589.07,801.77,586.45Z" fill="#999" stroke="#262521" stroke-linecap="round" stroke-linejoin="round" stroke-width="3"/><path d="M489.67,531.26l0,0S489.68,531.23,489.67,531.26Z" fill="#999" stroke="#262521" stroke-linecap="round" stroke-linejoin="round" stroke-width="3"/><path d="M481.78,324.51l-.14.25-.22,0a3.21,3.21,0,0,0-3,1.74,4.21,4.21,0,0,0-.4,2.39,4.81,4.81,0,0,0-3,1.95,3.73,3.73,0,0,0-.19,3.57,4.32,4.32,0,0,0-1.86,4.71,3.26,3.26,0,0,0-1,.38,3.38,3.38,0,0,0-1.41,1.94,4.4,4.4,0,0,0,.24,2.82,9.64,9.64,0,0,0,.71,1.35c.09.14.18.27.26.41a6.12,6.12,0,0,0-1.41,2.34,5.56,5.56,0,0,0-.34,2.85,4.55,4.55,0,0,0,3.38,3.75l.23,0c.25.7.51,1.47.81,2.28a5.43,5.43,0,0,0,1.85-.49c2.71-1.33.63-4.93.54-7.15a1,1,0,0,1,1.27-1c.76.15,2.15.45,2.78-.21a2.18,2.18,0,0,0,.28-1.77,17,17,0,0,0-1.9-5.14,1,1,0,0,1,.87-1.51c1.2,0,3.23-.12,3.19-1.74s-1.24-2.95-2.18-4a1,1,0,0,1,.44-1.68c1.32-.27,2.9-.8,3.31-2.25a4.31,4.31,0,0,0-.72-3.27A8.66,8.66,0,0,0,481.78,324.51Z" fill="#b78a30"/><path d="M638.47,304.85a3.5,3.5,0,0,0-1.27-.88c-.6-.24-1.24-.08-1.81-.27-.41-.14-.58-.74-.88-1.11a4.73,4.73,0,0,0-1.31-1.13,4.34,4.34,0,0,0-1.45-.51,4.11,4.11,0,0,0-1-2c-1.1-1.2-2.6-1.49-4-2.25s-1.69-2.26-3-3c-.63-.33-1.57-.17-2.08-.54s-.72-1.2-1.33-1.61c-1.44-1-3.23-.39-4.84-.66s-3.76-.72-4.91-1.75-1.68-2.28-3.13-2.72a3.35,3.35,0,0,0-2.66.33,3.93,3.93,0,0,0-1.91-.85,13.15,13.15,0,0,0-2.73.18c-1,0-1.23-.43-1.79-1.15a4.59,4.59,0,0,0-6.29-.95,5.22,5.22,0,0,0-4.88-.6,5.34,5.34,0,0,0-7.69-.89c-2.28-1.76-5.6-1.24-8.35-.4a1.83,1.83,0,0,0-.31.12l-.68,0a6.64,6.64,0,0,0-1.62,3,1,1,0,0,1-1.67.44c-2.49-2.89-9.82-5-10.47.54a1,1,0,0,1-1.26,1c-4.26-1-5.76,3.3-7.3,6.4a1,1,0,0,1-1.57.21c-2.23-1.85-4.86-1.65-7.22-.16a1,1,0,0,1-1.46-.6c-.2-1-.52-2.11-1.7-2.23a5.71,5.71,0,0,0-3.08,1,1,1,0,0,1-1.36-.36A13.3,13.3,0,0,0,529,288a3.48,3.48,0,0,0-.85-.58c-2,.65-4,1.36-5.82,2.1a4.57,4.57,0,0,0-4.7-.34,4.42,4.42,0,0,0-2.27,3.34,23,23,0,0,0-5.32,1.43,3.62,3.62,0,0,0-2.24,2.31,4.86,4.86,0,0,0-5,1.73,5,5,0,0,0-.93,1.79s-.1.47-.15.78a5.47,5.47,0,0,1-.55.13c-1.52.29-3.05.39-4.34,1.33a4.28,4.28,0,0,0-1.88,3.26,3.85,3.85,0,0,0,.09.8,8.49,8.49,0,0,0-1.74,1.06c-2.14,1.45-4.9,4-4.07,6.84a1.73,1.73,0,0,0,.64,1.25c1.36,1.1,3.65-.9,4.8-1.6a1,1,0,0,1,1.5.86c.08,1.05-.4,2.93.8,3.45,1.67.71,2.73-1.24,3.35-2.45a1,1,0,0,1,1.82.24c.37,1.14,1,2.45,2.39,2.15a6.25,6.25,0,0,0,3.08-2.22c.63-.72,1.61-.07,1.7.71a4,4,0,0,0,1.51,3,4.45,4.45,0,0,0,3.42.21,1,1,0,0,1,1.21,1.3,1.7,1.7,0,0,0-1.32,1.14h0a1.48,1.48,0,0,0-1.13.61,6.25,6.25,0,0,0-2.07,1.48,1.56,1.56,0,0,0,.29,2.47c.25-.2.53-.4.79-.6a1.67,1.67,0,0,0,.56.62,3.39,3.39,0,0,0,5.15-3,11.73,11.73,0,0,0,4-1.25,7,7,0,0,0,2.91-3.14l.19,0a4.36,4.36,0,0,0,1.25,0,4.8,4.8,0,0,0,1.88-.75c.31-.21.88-.6,1-1l.09-.11a7.38,7.38,0,0,0,2.4.61,4.71,4.71,0,0,0,4.22-1.46c.31-.37.4-.85.68-1.21,0,0,0,0,0,0a1.07,1.07,0,0,0,.21.12,3.64,3.64,0,0,0,2.26-.07,4.56,4.56,0,0,0,1.92-1.15,4.65,4.65,0,0,0,.63-.83.57.57,0,0,0,.08-.13l.26-.05.27,0c.41.07.83.11,1.24.14s.89,0,1.33,0a4.57,4.57,0,0,0,2,.91,5.37,5.37,0,0,0,4.41-1.55c.15-.14.27-.3.41-.44a8.81,8.81,0,0,0,1.42-.77l1.36-.12a3.86,3.86,0,0,0,1.67,1,3.52,3.52,0,0,0,3.23-.69,8.07,8.07,0,0,0,8.25-.72l1.18,0a4.07,4.07,0,0,0,1.83,1.34,3.76,3.76,0,0,0,3.41-.39,5.11,5.11,0,0,0,4-.29,3.07,3.07,0,0,0,2.73,1.61,5,5,0,0,0,2.69-.76,3.58,3.58,0,0,0,1.56,1.33,3.13,3.13,0,0,0,3.68-.83l.56.1a1,1,0,0,1,.75-.46c2-.21,2.91-1.74,3.64-3.44.32-.75,1.35-.55,1.73,0,.52.75,1.06,1.87,1.93,2.28a4.25,4.25,0,0,0,3-.09c2.58-.74,4.52,2.27,7.1,1.79,1-.18,1.77-.74,2.7-1a4.32,4.32,0,0,1,3,.4,5.72,5.72,0,0,1,1.46,1.13c.2.22.4.57.69.68a3.4,3.4,0,0,0,1.9-.32,3.48,3.48,0,0,0,1.86-1.7,1,1,0,0,1,1.37-.36,30.24,30.24,0,0,0,5.14,2.68,6,6,0,0,0,2.88.53c1-.17,1.15-1.08,1.17-2a1,1,0,0,1,1.71-.71,4.44,4.44,0,0,0,2.82,1.64.82.82,0,0,0,.46,0,.21.21,0,0,1,0-.06c.19-.51-.5-1.44-.73-1.83a1,1,0,0,1,.86-1.5c1.31-.06,3.12,0,4.15-1a3.13,3.13,0,0,0,.85-1.7l-.09-.08A3.71,3.71,0,0,0,638.47,304.85Z" fill="#b78a30"/><path d="M663.24,343a4.73,4.73,0,0,0-.7-.84c0-.1.07-.2.1-.3a4,4,0,0,0,.08-2.76,3,3,0,0,0-1.34-1.74c.15-1.84-1.33-3.49-2.93-4.59a6.23,6.23,0,0,0-2.76-5.49,3.65,3.65,0,0,0-3.62-4.05l-.08-.13-.32.14a1.4,1.4,0,0,0-.92.48,5.67,5.67,0,0,0-.64.45c-1.89,1.68.1,3.56,1.62,4.61a1,1,0,0,1,0,1.73c-1.49.78-3.3,2.06-1.83,3.75a8,8,0,0,0,4.72,2.22,1,1,0,0,1,.44,1.67c-1.53,1.52-3.43,2.94-4.58,4.79-.29.47-.58.91-.16,1.33.83.86,3,.84,4,.92a1,1,0,0,1,.86,1.5,5.08,5.08,0,0,0,.1,5c1.08,1.61,2.36.63,3.17-.68a1,1,0,0,1,1.86.5,5.36,5.36,0,0,0,.57,3,1.2,1.2,0,0,0,.85.93,2.3,2.3,0,0,0,.52.26,1.7,1.7,0,0,0,0-.22h0c2.8-.3,1.91-3.27,1.16-5.27C664.92,348.28,664.35,344.69,663.24,343Z" fill="#b78a30"/><path d="M877.23,1043c-3.83-55.87-22.88-124.63-22.88-124.63s-14.59-306.95-52.89-331.94C790.58,579.35,655.53,527,655.53,527S653.4,583,578.06,581.22c-65.07-1.5-80.64-40-84.76-52.13-1-2.85-104.64,64.72-149.37,91.67S317.25,945,317.25,945a619.73,619.73,0,0,0-3.6,128.12c5.53,68.42-1.88,179.2,14.45,197.94l61-1.5s-5.6-14.35-4.65-27c2.27-30.22,5.53-104.27,15.36-135.22S421.22,1019,421.22,1019l240.44-69.68,119.06,90.76c17.07,43.17,45.6,137.42,48.07,177.22,1.64,26.39,2.89,34.36,2.89,34.36h58.1s4.48-6.67,5.3-18.89S882.81,1124.28,877.23,1043Z" fill="#484c42" stroke="#262521" stroke-linecap="round" stroke-linejoin="round" stroke-width="3"/><path d="M836,1220.48s30.63-3.83,52.36,0" fill="none" stroke="#32352d" stroke-linecap="round" stroke-linejoin="round"/><path d="M325.27,1238s30.63-3.83,52.37,0" fill="none" stroke="#32352d" stroke-linecap="round" stroke-linejoin="round"/><path d="M478,546.43s21.5,56.9,100.8,56.9,94.27-62,94.27-62" fill="none" stroke="#32352d" stroke-linecap="round" stroke-linejoin="round"/><path d="M412.19,807.61s5.34,199.1,3.82,238.13c-.83,21.49-23.29,121.8-11,149,0,13-6.32,51-6.32,51S472,1267.85,549,1266.92c23.82-.28,50.29-302.37,50.29-302.37" fill="#484c42" stroke="#262521" stroke-linecap="round" stroke-linejoin="round" stroke-width="3"/><path d="M523.65,602.16S542,725.31,552.71,773.71s122.15,484.8,122.15,484.8l137.48-18.22s-6.69-38-7.46-51.64c14.49-25-19.08-143.81-20.87-213.76-1.22-47.59-16.1-167.28-16.1-167.28" fill="#484c42" stroke="#262521" stroke-linecap="round" stroke-linejoin="round" stroke-width="3"/><path d="M533.89,607.06s17.6,118.25,28.32,166.65,120.95,478,120.95,478" fill="none" stroke="#32352d" stroke-linecap="round" stroke-linejoin="round"/><path d="M672,1208.16a1003.52,1003.52,0,0,0,115.62-15.71" fill="none" stroke="#32352d" stroke-linecap="round" stroke-linejoin="round"/><path d="M414.48,1197.28s56.88,11.77,145.09,13.77" fill="none" stroke="#32352d" stroke-linecap="round" stroke-linejoin="round"/><path d="M635.64,314c3.86,0,3.87-6,0-6s-3.87,6,0,6Z" fill="#fcf9d4"/><path d="M600.18,312.84c3.87,0,3.87-6,0-6s-3.86,6,0,6Z" fill="#fcf9d4"/><path d="M586.11,302.7c3.86,0,3.86-6,0-6s-3.87,6,0,6Z" fill="#fcf9d4"/><path d="M521.63,305.52c3.86,0,3.87-6,0-6s-3.87,6,0,6Z" fill="#fcf9d4"/><path d="M528.67,296.79c3.86,0,3.87-6,0-6s-3.87,6,0,6Z" fill="#fcf9d4"/><path d="M535.43,299c3.86,0,3.86-6,0-6s-3.87,6,0,6Z" fill="#fcf9d4"/><path d="M562.74,284.68c3.86,0,3.86-6,0-6s-3.87,6,0,6Z" fill="#fcf9d4"/><path d="M507,319.6c3.86,0,3.87-6,0-6s-3.87,6,0,6Z" fill="#fcf9d4"/><path d="M514.31,329.45c3.86,0,3.87-6,0-6s-3.87,6,0,6Z" fill="#fcf9d4"/><path d="M482.77,337.34c3.87,0,3.87-6,0-6s-3.86,6,0,6Z" fill="#fcf9d4"/><path d="M484.46,324.67c3.86,0,3.87-6,0-6s-3.86,6,0,6Z" fill="#fcf9d4"/><path d="M501.36,338.74c3.86,0,3.86-6,0-6s-3.87,6,0,6Z" fill="#fcf9d4"/><path d="M641.86,332.83c3.86,0,3.86-6,0-6s-3.87,6,0,6Z" fill="#fcf9d4"/><path d="M652,332.27c3.86,0,3.87-6,0-6s-3.87,6,0,6Z" fill="#fcf9d4"/><path d="M657.9,341.84c3.87,0,3.87-6,0-6s-3.86,6,0,6Z" fill="#fcf9d4"/><path d="M648.33,340.15c3.86,0,3.87-6,0-6s-3.87,6,0,6Z" fill="#d6b170"/><path d="M645.8,324.38c3.86,0,3.86-6,0-6s-3.87,6,0,6Z" fill="#d6b170"/><path d="M639,343.53c3.86,0,3.87-6,0-6s-3.87,6,0,6Z" fill="#d6b170"/><path d="M613.7,318.19c3.86,0,3.87-6,0-6s-3.87,6,0,6Z" fill="#d6b170"/><path d="M624.4,307.49c3.86,0,3.87-6,0-6s-3.87,6,0,6Z" fill="#d6b170"/><path d="M574.56,290c3.86,0,3.87-6,0-6s-3.86,6,0,6Z" fill="#d6b170"/><path d="M573.44,300.45c3.86,0,3.86-6,0-6s-3.87,6,0,6Z" fill="#d6b170"/><path d="M553.45,291.44c3.86,0,3.86-6,0-6s-3.87,6,0,6Z" fill="#d6b170"/><path d="M548.66,302.42c3.86,0,3.87-6,0-6s-3.87,6,0,6Z" fill="#d6b170"/><path d="M518.81,296.79c3.86,0,3.87-6,0-6s-3.86,6,0,6Z" fill="#d6b170"/><path d="M513.46,303.55c3.87,0,3.87-6,0-6s-3.86,6,0,6Z" fill="#d6b170"/><path d="M523.32,317.91c3.86,0,3.87-6,0-6s-3.87,6,0,6Z" fill="#d6b170"/><path d="M531.48,306.65c3.86,0,3.87-6,0-6s-3.86,6,0,6Z" fill="#d6b170"/><path d="M498,320.44c3.86,0,3.87-6,0-6s-3.87,6,0,6Z" fill="#d6b170"/><path d="M501.92,327.76c3.86,0,3.87-6,0-6s-3.87,6,0,6Z" fill="#d6b170"/><path d="M486.15,354c3.86,0,3.87-6,0-6s-3.86,6,0,6Z" fill="#d6b170"/><path d="M473.48,344.94c3.86,0,3.87-6,0-6s-3.86,6,0,6Z" fill="#d6b170"/><path d="M614,305c3.86,0,3.87-6,0-6s-3.87,6,0,6Z" fill="#5d4028"/><path d="M587,310.59c3.86,0,3.87-6,0-6s-3.87,6,0,6Z" fill="#5d4028"/><path d="M597.65,305.24c3.86,0,3.87-6,0-6s-3.87,6,0,6Z" fill="#5d4028"/><path d="M556.82,299c3.87,0,3.87-6,0-6s-3.86,6,0,6Z" fill="#5d4028"/><path d="M565,307.21c3.86,0,3.87-6,0-6s-3.87,6,0,6Z" fill="#5d4028"/><path d="M505,307.77c3.86,0,3.86-6,0-6s-3.87,6,0,6Z" fill="#5d4028"/><path d="M660.72,352c3.86,0,3.87-6,0-6s-3.87,6,0,6Z" fill="#5d4028"/><path d="M594.84,292c3.86,0,3.86-6,0-6s-3.87,6,0,6Z" fill="#5d4028"/></svg>