<svg xmlns="http://www.w3.org/2000/svg" width="1250" height="1550" viewBox="0 0 1250 1550"><defs><clipPath id="a"><path d="M801.46 586.45c-10.88-7.1-126-50.1-126-50.1s-13 65.71-99.86 65.43c-65.08-.21-96.8-45.85-100.2-60.24-.5-2.13-86.95 52.41-131.45 79.22 40.48 52.53 58.27 138.09 62.53 172.31 3.82 30.76 19.6 139.48 13.55 184.77.49 23.68 1.51 83.43.18 91.53-3.6 21.92-31.66 102.78-17.78 133.07 1.29 13.58 122.24 24 199.24 23 137.52-1.65 202.59-17 202.6-27.52 9.94-22.62-4.2-83.52-17.92-143-10.68-99.61-24.71-184.17-20-247.4 11.34-150.23 62.07-203.52 35.11-221.07z" fill="none"/></clipPath></defs><path d="M406.44 1264.52s59.79 24.3 201.69 19.79S801 1248.13 801 1248.13l19 231.09c-209.13 38.46-397.54 3.9-397.54 3.9z" fill="#262521" stroke="#262521" stroke-linecap="round" stroke-linejoin="round" stroke-width="3"/><path d="M877.23 1043c-3.83-55.87-22.88-124.63-22.88-124.63s-14.59-306.95-52.89-331.94c-10.88-7.1-142.29-56.21-142.29-56.21s-2.49 55-82.84 55c-65.08 0-82.1-39.23-86.21-51.38a10.79 10.79 0 01-.75-2.59c-1 .65-100.94 62.69-145.44 89.5C299.2 647.71 317.25 945 317.25 945a619.79 619.79 0 00-3.6 128.12c5.53 68.42-1.88 179.2 14.45 197.94l61-1.5s-5.6-14.35-4.65-27c2.27-30.22 5.53-104.27 15.36-135.22s21.45-88.31 21.45-88.33c.49 23.68.3 42.23-1 50.33-3.6 21.92-31.66 102.78-17.78 133.07-3.34 29.28-5.7 66.94-5.7 66.94S492.4 1295 569.4 1294c137.52-1.66 240.17-35.54 240.17-35.54s-2.28-35.7-5.32-60.52c9.94-22.62-4.2-83.52-17.92-143 17.07 47.16 40.25 126.63 42.46 162.33 1.64 26.39 2.89 34.36 2.89 34.36h58.1s4.48-6.67 5.3-18.89-12.27-108.46-17.85-189.74z" fill="#262521" stroke="#262521" stroke-linecap="round" stroke-linejoin="round" stroke-width="3"/><g clip-path="url(#a)" fill="#353430"><path d="M344.38 648.23h519.19v10.48H344.38zM344.38 633.13h519.19v10.48H344.38zM344.38 618.29h519.19v10.48H344.38zM344.38 603.06h519.19v10.48H344.38zM344.38 588.22h519.19v10.48H344.38zM344.38 573h519.19v10.48H344.38zM344.38 558.15h519.19v10.48H344.38zM344.38 542.93h519.19v10.48H344.38zM344.38 528.09h519.19v10.48H344.38zM344.38 768.11h519.19v10.48H344.38zM344.38 753.01h519.19v10.48H344.38zM344.38 738.17h519.19v10.48H344.38zM344.38 722.95h519.19v10.48H344.38zM344.38 708.1h519.19v10.48H344.38zM344.38 692.88h519.19v10.48H344.38zM344.38 678.04h519.19v10.48H344.38zM344.38 662.82h519.19v10.48H344.38zM344.38 887.89h519.19v10.48H344.38zM344.38 872.79h519.19v10.48H344.38zM344.38 857.95h519.19v10.48H344.38zM344.38 842.73h519.19v10.48H344.38zM344.38 827.89h519.19v10.48H344.38zM344.38 812.66h519.19v10.48H344.38zM344.38 797.82h519.19v10.48H344.38zM344.38 782.6h519.19v10.48H344.38zM344.38 1007.78h519.19v10.48H344.38zM344.38 992.68h519.19v10.48H344.38zM344.38 977.84h519.19v10.48H344.38zM344.38 962.61h519.19v10.48H344.38zM344.38 947.77h519.19v10.48H344.38zM344.38 932.55h519.19v10.48H344.38zM344.38 917.7h519.19v10.48H344.38zM344.38 902.48h519.19v10.48H344.38zM344.38 1023.46h519.19v10.48H344.38zM344.38 1143.24h519.19v10.48H344.38zM344.38 1128.14h519.19v10.48H344.38zM344.38 1113.29h519.19v10.48H344.38zM344.38 1098.07h519.19v10.48H344.38zM344.38 1083.23h519.19v10.48H344.38zM344.38 1068h519.19v10.48H344.38zM344.38 1053.16h519.19v10.48H344.38zM344.38 1037.94h519.19v10.48H344.38zM344.38 1263.12h519.19v10.48H344.38zM344.38 1248.02h519.19v10.48H344.38zM344.38 1233.18h519.19v10.48H344.38zM344.38 1217.95h519.19v10.48H344.38zM344.38 1203.11h519.19v10.48H344.38zM344.38 1187.89h519.19v10.48H344.38zM344.38 1173.04h519.19v10.48H344.38zM344.38 1157.82h519.19v10.48H344.38z"/></g><path d="M489.37 531.26h0s.01-.03 0 0z" fill="#262521" stroke="#262521" stroke-linecap="round" stroke-linejoin="round" stroke-width="3"/><path d="M396.71 1269.38S492.4 1295 569.4 1294c137.52-1.66 240.17-35.54 240.17-35.54" fill="none" stroke="#636363" stroke-linecap="round" stroke-linejoin="round"/><path d="M804.25 1198c9.94-22.62-4.2-83.52-17.92-143M421.22 1019c.49 23.68.3 42.23-1 50.33-3.6 21.92-31.66 102.78-17.78 133.07M489.37 531.26c-1 .65-100.94 62.69-145.44 89.5C299.2 647.71 317.25 945 317.25 945M854.35 918.39s-14.59-306.95-52.89-331.94c-10.88-7.1-142.29-56.21-142.29-56.21" fill="none" stroke="#262521" stroke-linecap="round" stroke-linejoin="round" stroke-width="3"/></svg>