<svg xmlns="http://www.w3.org/2000/svg" xmlns:xlink="http://www.w3.org/1999/xlink" width="1250" height="1550" viewBox="0 0 1250 1550"><defs><clipPath id="a"><path d="M801.46,586.45c-10.88-7.1-126-50.1-126-50.1s-13,65.71-99.86,65.43c-65.08-.21-96.8-45.85-100.2-60.24-.5-2.13-86.95,52.41-131.45,79.22,40.48,52.53,58.27,138.09,62.53,172.31,3.82,30.76,19.6,139.48,13.55,184.77.49,23.68,1.51,83.43.18,91.53-3.6,21.92-31.66,102.78-17.78,133.07,1.29,13.58,122.24,24,199.24,23,137.52-1.65,202.59-17,202.6-27.52,9.94-22.62-4.2-83.52-17.92-143-10.68-99.61-24.71-184.17-20-247.4C777.69,657.29,828.42,604,801.46,586.45Z" fill="none"/></clipPath></defs><title>s03e10-01</title><path d="M406.44,1264.52s59.79,24.3,201.69,19.79S801,1248.13,801,1248.13l19,231.09c-209.13,38.46-397.54,3.9-397.54,3.9Z" fill="#262521" stroke="#262521" stroke-linecap="round" stroke-linejoin="round" stroke-width="3"/><path d="M877.23,1043c-3.83-55.87-22.88-124.63-22.88-124.63s-14.59-306.95-52.89-331.94c-10.88-7.1-142.29-56.21-142.29-56.21s-2.49,55-82.84,55c-65.08,0-82.1-39.23-86.21-51.38a10.79,10.79,0,0,1-.75-2.59c-1,.65-100.94,62.69-145.44,89.5C299.2,647.71,317.25,945,317.25,945a619.79,619.79,0,0,0-3.6,128.12c5.53,68.42-1.88,179.2,14.45,197.94l61-1.5s-5.6-14.35-4.65-27c2.27-30.22,5.53-104.27,15.36-135.22s21.45-88.31,21.45-88.33c.49,23.68.3,42.23-1,50.33-3.6,21.92-31.66,102.78-17.78,133.07-3.34,29.28-5.7,66.94-5.7,66.94S492.4,1295,569.4,1294c137.52-1.66,240.17-35.54,240.17-35.54s-2.28-35.7-5.32-60.52c9.94-22.62-4.2-83.52-17.92-143,17.07,47.16,40.25,126.63,42.46,162.33,1.64,26.39,2.89,34.36,2.89,34.36h58.1s4.48-6.67,5.3-18.89S882.81,1124.28,877.23,1043Z" fill="#262521"/><g clip-path="url(#a)"><rect x="344.38" y="648.23" width="519.19" height="10.48" fill="#353430"/><rect x="344.38" y="633.13" width="519.19" height="10.48" fill="#353430"/><rect x="344.38" y="618.29" width="519.19" height="10.48" fill="#353430"/><rect x="344.38" y="603.06" width="519.19" height="10.48" fill="#353430"/><rect x="344.38" y="588.22" width="519.19" height="10.48" fill="#353430"/><rect x="344.38" y="573" width="519.19" height="10.48" fill="#353430"/><rect x="344.38" y="558.15" width="519.19" height="10.48" fill="#353430"/><rect x="344.38" y="542.93" width="519.19" height="10.48" fill="#353430"/><rect x="344.38" y="528.09" width="519.19" height="10.48" fill="#353430"/><rect x="344.38" y="768.11" width="519.19" height="10.48" fill="#353430"/><rect x="344.38" y="753.01" width="519.19" height="10.48" fill="#353430"/><rect x="344.38" y="738.17" width="519.19" height="10.48" fill="#353430"/><rect x="344.38" y="722.95" width="519.19" height="10.48" fill="#353430"/><rect x="344.38" y="708.1" width="519.19" height="10.48" fill="#353430"/><rect x="344.38" y="692.88" width="519.19" height="10.48" fill="#353430"/><rect x="344.38" y="678.04" width="519.19" height="10.48" fill="#353430"/><rect x="344.38" y="662.82" width="519.19" height="10.48" fill="#353430"/><rect x="344.38" y="887.89" width="519.19" height="10.48" fill="#353430"/><rect x="344.38" y="872.79" width="519.19" height="10.48" fill="#353430"/><rect x="344.38" y="857.95" width="519.19" height="10.48" fill="#353430"/><rect x="344.38" y="842.73" width="519.19" height="10.48" fill="#353430"/><rect x="344.38" y="827.89" width="519.19" height="10.48" fill="#353430"/><rect x="344.38" y="812.66" width="519.19" height="10.48" fill="#353430"/><rect x="344.38" y="797.82" width="519.19" height="10.48" fill="#353430"/><rect x="344.38" y="782.6" width="519.19" height="10.48" fill="#353430"/><rect x="344.38" y="1007.78" width="519.19" height="10.48" fill="#353430"/><rect x="344.38" y="992.68" width="519.19" height="10.48" fill="#353430"/><rect x="344.38" y="977.84" width="519.19" height="10.48" fill="#353430"/><rect x="344.38" y="962.61" width="519.19" height="10.48" fill="#353430"/><rect x="344.38" y="947.77" width="519.19" height="10.48" fill="#353430"/><rect x="344.38" y="932.55" width="519.19" height="10.48" fill="#353430"/><rect x="344.38" y="917.7" width="519.19" height="10.48" fill="#353430"/><rect x="344.38" y="902.48" width="519.19" height="10.48" fill="#353430"/><rect x="344.38" y="1023.46" width="519.19" height="10.48" fill="#353430"/><rect x="344.38" y="1143.24" width="519.19" height="10.48" fill="#353430"/><rect x="344.38" y="1128.14" width="519.19" height="10.48" fill="#353430"/><rect x="344.38" y="1113.29" width="519.19" height="10.48" fill="#353430"/><rect x="344.38" y="1098.07" width="519.19" height="10.48" fill="#353430"/><rect x="344.38" y="1083.23" width="519.19" height="10.48" fill="#353430"/><rect x="344.38" y="1068" width="519.19" height="10.48" fill="#353430"/><rect x="344.38" y="1053.16" width="519.19" height="10.48" fill="#353430"/><rect x="344.38" y="1037.94" width="519.19" height="10.48" fill="#353430"/><rect x="344.38" y="1263.12" width="519.19" height="10.48" fill="#353430"/><rect x="344.38" y="1248.02" width="519.19" height="10.48" fill="#353430"/><rect x="344.38" y="1233.18" width="519.19" height="10.48" fill="#353430"/><rect x="344.38" y="1217.95" width="519.19" height="10.48" fill="#353430"/><rect x="344.38" y="1203.11" width="519.19" height="10.48" fill="#353430"/><rect x="344.38" y="1187.89" width="519.19" height="10.48" fill="#353430"/><rect x="344.38" y="1173.04" width="519.19" height="10.48" fill="#353430"/><rect x="344.38" y="1157.82" width="519.19" height="10.48" fill="#353430"/></g><path d="M489.37,531.26l0,0S489.38,531.23,489.37,531.26Z" fill="#262521" stroke="#262521" stroke-linecap="round" stroke-linejoin="round" stroke-width="3"/><path d="M877.23,1043c-3.83-55.87-22.88-124.63-22.88-124.63s-14.59-306.95-52.89-331.94c-10.88-7.1-142.29-56.21-142.29-56.21s-2.49,55-82.84,55c-65.08,0-82.1-39.23-86.21-51.38a10.79,10.79,0,0,1-.75-2.59c-1,.65-100.94,62.69-145.44,89.5C299.2,647.71,317.25,945,317.25,945a619.79,619.79,0,0,0-3.6,128.12c5.53,68.42-1.88,179.2,14.45,197.94l61-1.5s-5.6-14.35-4.65-27c2.27-30.22,5.53-104.27,15.36-135.22s21.45-88.31,21.45-88.33c.49,23.68.3,42.23-1,50.33-3.6,21.92-31.66,102.78-17.78,133.07-3.34,29.28-5.7,66.94-5.7,66.94S492.4,1295,569.4,1294c137.52-1.66,240.17-35.54,240.17-35.54s-2.28-35.7-5.32-60.52c9.94-22.62-4.2-83.52-17.92-143,17.07,47.16,40.25,126.63,42.46,162.33,1.64,26.39,2.89,34.36,2.89,34.36h58.1s4.48-6.67,5.3-18.89S882.81,1124.28,877.23,1043Z" fill="none" stroke="#262521" stroke-linecap="round" stroke-linejoin="round" stroke-width="3"/><path d="M396.71,1269.38S492.4,1295,569.4,1294c137.52-1.66,240.17-35.54,240.17-35.54" fill="none" stroke="#636363" stroke-linecap="round" stroke-linejoin="round"/></svg>