<svg xmlns="http://www.w3.org/2000/svg" width="1000" height="1550" viewBox="0 0 1000 1550"><defs><clipPath id="a"><path d="M756.72 1043.63c-3.83-55.87-18.11-124.58-18.11-124.58s-23.86-307-62.16-332c-10.88-7.1-142.29-56.21-142.29-56.21s-2.49 55-82.84 55c-65.09 0-82.1-39.23-86.22-51.38a11.08 11.08 0 01-.74-2.59c-1.05.65-100.94 62.69-145.44 89.5-44.74 27-31.68 324.28-31.68 324.28a752.78 752.78 0 00-1.1 128.12c5.53 68.42-.88 179.2 15.45 197.94l62.46-1.5s-5.6-14.35-4.65-27c2.27-30.23 5.53-104.27 15.36-135.22s21.44-88.32 21.45-88.33c.48 23.68.29 42.23-1 50.32-3.59 21.92-31.66 102.79-17.77 133.08-3.34 29.28-2.63 35-2.63 35s71 13.89 148 13c137.52-1.66 259.57-24.64 259.57-24.64s-2.23-21.67-3.08-27.81c4.7-10.68-6.7-94.71-15.51-142.77 17.07 47.16 37.84 126.44 40.06 162.13 1.64 26.39 2.88 34.37 2.88 34.37h61.1s4.49-6.67 5.3-18.89-10.83-108.56-16.41-189.82z" fill="none"/></clipPath></defs><path d="M276.89 1235.47l399.72-12.35 21.11 287.24c-209.14 38.46-397.55 3.9-397.55 3.9z" fill="#262521" stroke="#262521" stroke-linecap="round" stroke-linejoin="round" stroke-width="3"/><g clip-path="url(#a)"><path fill="#262521" d="M155.94 481.71h678.32v834.48H155.94z"/><rect x="404.71" y="683.72" width="23.98" height="22.39" rx="3.75" transform="rotate(-2.13 417.023 695.46)" fill="#fff"/><path d="M402 666.74l-13.18.49a3.77 3.77 0 00-3.61 3.9l.56 14.87a3.75 3.75 0 003.89 3.61l16.45-.61a3.77 3.77 0 003.62-3.89l-.54-14.33a33.42 33.42 0 01-7.19-4.04zM423.12 673.3l.42 11.3a3.77 3.77 0 003.89 3.61l16.46-.62a3.75 3.75 0 003.61-3.89l-.22-6.05c-8.19-.74-16.45-1.4-24.16-4.35zM463 677.3l.22 5.82a3.77 3.77 0 003.89 3.61l16.46-.61a3.77 3.77 0 003.61-3.9l-.52-14.08c-3.73 1.46-19.31 8.01-23.66 9.16z" fill="#fff"/><rect x="443.4" y="682.28" width="23.98" height="22.39" rx="3.75" transform="translate(-25.48 17.42)" fill="#fff"/><rect x="386.83" y="704.1" width="23.98" height="22.39" rx="3.75" transform="rotate(-2.13 399.156 715.845)" fill="#fff"/><rect x="424.64" y="702.7" width="23.98" height="22.39" rx="3.75" transform="translate(-26.25 16.74)" fill="#fff"/><rect x="406.01" y="718.71" width="23.98" height="22.39" rx="3.75" transform="translate(-26.86 16.05)" fill="#fff"/><path d="M464.6 739.38l-16.46.61a3.77 3.77 0 01-3.89-3.61l-.55-14.88c-.08-2.06 1.55-3.81 4.35-3.92l16.45-.58c1.33-.05 3.08 1.58 3.16 3.64l.55 14.88a3.77 3.77 0 01-3.61 3.86z" fill="#fff"/><rect x="388.14" y="739.09" width="23.98" height="22.39" rx="3.75" transform="rotate(-2.13 400.388 750.846)" fill="#fff"/><rect x="425.94" y="737.69" width="23.98" height="22.39" rx="3.75" transform="rotate(-2.13 438.352 749.399)" fill="#fff"/><rect x="407.35" y="754.59" width="23.98" height="22.39" rx="3.75" transform="rotate(-2.13 419.743 766.273)" fill="#fff"/><rect x="446.04" y="753.15" width="23.98" height="22.39" rx="3.75" transform="rotate(-2.13 458.514 764.84)" fill="#fff"/><rect x="389.47" y="774.97" width="23.98" height="22.39" rx="3.75" transform="rotate(-2.13 401.87 786.927)" fill="#fff"/><rect x="371.71" y="755.91" width="23.98" height="22.39" rx="3.75" transform="rotate(-2.13 383.93 767.76)" fill="#fff"/><rect x="353.83" y="776.3" width="23.98" height="22.39" rx="3.75" transform="rotate(-2.13 366.063 788.144)" fill="#fff"/><rect x="427.28" y="773.56" width="23.98" height="22.39" rx="3.75" transform="rotate(-2.13 439.565 785.475)" fill="#fff"/><rect x="408.75" y="792.33" width="23.98" height="22.39" rx="3.75" transform="rotate(-2.13 421.19 804.236)" fill="#fff"/><rect x="447.44" y="790.89" width="23.98" height="22.39" rx="3.75" transform="rotate(-2.13 459.691 802.8)" fill="#fff"/><rect x="390.88" y="812.71" width="23.98" height="22.39" rx="3.75" transform="rotate(-2.13 403.322 824.622)" fill="#fff"/><rect x="373.11" y="793.66" width="23.98" height="22.39" rx="3.75" transform="rotate(-2.13 385.382 805.454)" fill="#fff"/><rect x="335.88" y="795.04" width="23.98" height="22.39" rx="3.75" transform="rotate(-2.13 348.225 806.916)" fill="#fff"/><rect x="355.24" y="814.04" width="23.98" height="22.39" rx="3.75" transform="rotate(-2.13 367.515 825.84)" fill="#fff"/><rect x="428.69" y="811.31" width="23.98" height="22.39" rx="3.75" transform="rotate(-2.13 441.017 823.17)" fill="#fff"/><rect x="484.3" y="680.76" width="23.98" height="22.39" rx="3.75" transform="rotate(177.87 496.298 691.947)" fill="#fff"/><rect x="502.26" y="662.57" width="23.98" height="22.39" rx="3.75" transform="rotate(177.87 514.252 673.764)" fill="#fff"/><rect x="503.64" y="699.76" width="23.98" height="22.39" rx="3.75" transform="rotate(177.87 515.636 710.948)" fill="#fff"/><rect x="464.36" y="701.22" width="23.98" height="22.39" rx="3.75" transform="rotate(177.87 476.356 712.408)" fill="#fff"/><rect x="485.6" y="715.75" width="23.98" height="22.39" rx="3.75" transform="rotate(177.87 497.598 726.938)" fill="#fff"/><rect x="503.47" y="734.8" width="23.98" height="22.39" rx="3.75" transform="rotate(177.87 515.47 745.992)" fill="#fff"/><rect x="465.66" y="736.21" width="23.98" height="22.39" rx="3.75" transform="rotate(177.87 477.66 747.4)" fill="#fff"/><rect x="485.46" y="751.68" width="23.98" height="22.39" rx="3.75" transform="rotate(177.87 497.46 762.868)" fill="#fff"/><rect x="504.8" y="770.68" width="23.98" height="22.39" rx="3.75" transform="rotate(177.87 516.804 781.87)" fill="#fff"/><rect x="521.1" y="750.35" width="23.98" height="22.39" rx="3.75" transform="rotate(177.87 533.102 761.54)" fill="#fff"/><rect x="540.44" y="769.35" width="23.98" height="22.39" rx="3.75" transform="rotate(177.87 552.446 780.541)" fill="#fff"/><rect x="467" y="772.09" width="23.98" height="22.39" rx="3.75" transform="rotate(177.87 478.994 783.277)" fill="#fff"/><rect x="486.87" y="789.42" width="23.98" height="22.39" rx="3.75" transform="rotate(177.87 498.87 800.612)" fill="#fff"/><rect x="506.21" y="808.42" width="23.98" height="22.39" rx="3.75" transform="rotate(177.87 518.213 819.608)" fill="#fff"/><rect x="522.51" y="788.1" width="23.98" height="22.39" rx="3.75" transform="rotate(177.87 534.506 799.284)" fill="#fff"/><rect x="468.4" y="809.83" width="23.98" height="22.39" rx="3.75" transform="rotate(177.87 480.404 821.016)" fill="#fff"/><rect x="559.74" y="786.71" width="23.98" height="22.39" rx="3.75" transform="rotate(177.87 571.735 797.9)" fill="#fff"/><rect x="541.85" y="807.09" width="23.98" height="22.39" rx="3.75" transform="rotate(177.87 553.85 818.285)" fill="#fff"/><path d="M378.48 670.81s13.86 91.37-52.69 137.4c4.13 6.87-3.81 12.22-3.81 12.22l19 29.84s51.44-14.91 98.94-3.68c0 0 6.67-9.7 21.75-10.26M532.41 665.08s-10 100 70.93 137.66l-20.24 38.52s-52.4-11-98.93 3.68c0 0-7.38-9.18-22.46-8.61" fill="none" stroke="#fff" stroke-linecap="round" stroke-linejoin="round" stroke-width="8.84"/><circle cx="452.43" cy="633.54" r="10.69" fill="none" stroke="#fff" stroke-linecap="round" stroke-miterlimit="10" stroke-width="1.47"/><circle cx="452.44" cy="633.69" r="9.07" fill="none" stroke="#fff" stroke-linecap="round" stroke-miterlimit="10" stroke-width="1.47"/><path fill="none" stroke="#fff" stroke-linecap="round" stroke-miterlimit="10" stroke-width="2.95" d="M451.87 618.56l.34 8.97"/><ellipse cx="304.36" cy="715.45" rx="75.6" ry="44.16" transform="rotate(-72.78 304.38 715.46)" fill="none" stroke="#fff" stroke-linecap="round" stroke-miterlimit="10" stroke-width="10.31"/><ellipse cx="303.39" cy="715.72" rx="52.6" ry="28.98" transform="rotate(-72.78 303.4 715.723)" fill="none" stroke="#fff" stroke-linecap="round" stroke-miterlimit="10" stroke-width="5.89"/><ellipse cx="302.04" cy="712.51" rx="23.9" ry="13.17" transform="rotate(-72.78 302.047 712.517)" fill="none" stroke="#fff" stroke-linecap="round" stroke-miterlimit="10" stroke-width="5.89"/><path fill="none" stroke="#fff" stroke-linecap="round" stroke-miterlimit="10" stroke-width="1.47" d="M297 672.16l37.76 19.18M291.6 681.28l42.3 21.49M284.71 689.45l47.84 24.31M281.31 697.62l47.84 24.3M276.92 707.7l47.84 24.31M274.17 717.73l47.84 24.3M269.56 727.97l47.84 24.31M274.64 739.72l38.89 19.76M232.32 623.21s19.21 51.23 25.85 44.53 12.83-25.82 45.64-37c7.07-2.4-14.35-43-14.35-43M248.13 612.85s14 35.81 19.32 41.3M262.64 602.17s13.39 38.45 16.52 41.45M276.62 596s11.73 30.46 15.23 39.76"/><path fill="none" stroke="#fff" stroke-linecap="round" stroke-linejoin="round" stroke-width="2.95" d="M244.44 683.18L220.2 707.9l14.25 45"/><ellipse cx="608.88" cy="704.12" rx="44.16" ry="75.6" transform="rotate(-21.48 608.972 704.185)" fill="none" stroke="#fff" stroke-linecap="round" stroke-miterlimit="10" stroke-width="10.31"/><ellipse cx="609.88" cy="704.31" rx="28.98" ry="52.6" transform="rotate(-21.48 609.947 704.37)" fill="none" stroke="#fff" stroke-linecap="round" stroke-miterlimit="10" stroke-width="5.89"/><ellipse cx="610.98" cy="701.01" rx="13.17" ry="23.9" transform="rotate(-21.48 611.067 701.06)" fill="none" stroke="#fff" stroke-linecap="round" stroke-miterlimit="10" stroke-width="5.89"/><path fill="none" stroke="#fff" stroke-linecap="round" stroke-miterlimit="10" stroke-width="1.47" d="M619.07 669.09l-40.59 24.58M626.55 676.72l-45.9 27.8M630.55 684.62l-45.9 27.79M635.68 694.35l-45.91 27.8M639.16 704.14l-45.9 27.8M644.52 714.02l-45.9 27.79M612.11 660.43l-36.23 21.93M639.34 727.78l-35.17 21.29M671.31 596.79s-12.79 62.5-19.91 56.32-14.71-24.8-48.26-33.46c-7.23-1.87 12.4-47 12.4-47M657 586.14s-11 48.23-15.88 54.1M645.58 580.67s-14 46.71-16.9 49.94M630.93 576.42s-12.69 37.73-15.49 47.26"/><path fill="none" stroke="#fff" stroke-linecap="round" stroke-linejoin="round" stroke-width="2.95" d="M660.54 668.38l26.01 22.85-10.87 45.94"/><path d="M291.46 911.66c0 7.67 0 15.33.08 23 2.39 4.64 5.11 8.12 7.88 8 8.2-.31 9.73-31.67 9.73-31.67z" fill="#fff"/><path d="M304.06 911.19l25.7-1s-1.53 31.37-9.73 31.67-15.97-30.67-15.97-30.67z" fill="#fff"/><path d="M324.67 910.43l25.7-1s-1.53 31.37-9.73 31.67-15.97-30.67-15.97-30.67z" fill="#fff"/><path d="M345.34 909.66l25.69-1s-1.53 31.37-9.73 31.68-15.96-30.68-15.96-30.68z" fill="#fff"/><path d="M365.94 908.89l25.7-1s-1.53 31.37-9.73 31.68-15.97-30.68-15.97-30.68z" fill="#fff"/><path d="M386.23 908.14l25.7-1s-1.53 31.37-9.73 31.67-15.97-30.67-15.97-30.67z" fill="#fff"/><path d="M406.84 907.37l25.7-1s-1.53 31.37-9.73 31.68-15.97-30.68-15.97-30.68z" fill="#fff"/><path d="M427.5 906.6l25.7-1s-1.53 31.37-9.73 31.68-15.97-30.68-15.97-30.68z" fill="#fff"/><path d="M448.11 905.83l25.7-1s-1.53 31.36-9.73 31.67-15.97-30.67-15.97-30.67zM489.9 904.28l25.69-1s-1.53 31.37-9.73 31.67-15.96-30.67-15.96-30.67z" fill="#fff"/><path d="M468.63 905.07l25.7-1s-1.53 31.37-9.73 31.68-15.97-30.68-15.97-30.68zM510.51 903.51l25.69-1s-1.53 31.37-9.73 31.68-15.96-30.68-15.96-30.68z" fill="#fff"/><path d="M530.79 902.76l25.7-1s-1.53 31.37-9.73 31.67-15.97-30.67-15.97-30.67z" fill="#fff"/><path d="M551.4 902l25.7-1s-1.53 31.37-9.73 31.67S551.4 902 551.4 902z" fill="#fff"/><path d="M572.06 901.22l25.7-1s-1.53 31.37-9.73 31.68-15.97-30.68-15.97-30.68z" fill="#fff"/><path d="M592.67 900.45l25.7-1s-1.53 31.36-9.73 31.67-15.97-30.67-15.97-30.67z" fill="#fff"/><path d="M613.36 899.68l25.7-.95s-1.53 31.36-9.73 31.67-15.97-30.72-15.97-30.72z" fill="#fff"/><path d="M651.17 898.27l-17.15.64s7.77 31 16 30.72c2.12-.08 3.79-2.24 5.1-5.39-1.63-8.62-3.73-17.17-3.95-25.97z" fill="#fff"/><path d="M293.54 955.51c3.29-.13 3.95 17.54 7.24 17.42s2.63-17.79 5.92-17.92 3.95 17.55 7.25 17.42 2.63-17.79 5.92-17.91 3.95 17.54 7.24 17.42 2.64-17.79 5.89-17.94 3.95 17.54 7.24 17.42 2.63-17.79 5.93-17.91 4 17.54 7.24 17.42 2.63-17.79 5.92-17.91 4 17.54 7.25 17.41 2.63-17.78 5.92-17.91 4 17.55 7.25 17.42 2.63-17.79 5.92-17.91 4 17.54 7.25 17.42 2.63-17.79 5.92-17.91 3.95 17.54 7.25 17.42 2.63-17.79 5.92-17.91 3.95 17.54 7.25 17.42 2.63-17.79 5.92-17.92 3.95 17.55 7.25 17.42 2.63-17.78 5.92-17.91 3.95 17.54 7.25 17.42 2.63-17.79 5.92-17.91 3.95 17.54 7.24 17.42 2.64-17.79 5.93-17.91 3.95 17.54 7.24 17.42 2.63-17.79 5.92-17.91 3.95 17.54 7.24 17.42 2.64-17.79 5.93-17.92 3.95 17.55 7.24 17.42 2.63-17.79 5.93-17.91 3.95 17.54 7.24 17.42 2.63-17.79 5.93-17.91 4 17.54 7.24 17.42 2.63-17.79 5.93-17.91 3.95 17.54 7.24 17.42 2.63-17.79 5.93-17.91 4 17.54 7.24 17.41 2.64-17.78 5.93-17.91 4 17.55 7.25 17.42 2.63-17.79 5.93-17.91 3.95 17.54 7.24 17.42 2.64-17.79 5.93-17.91 4 17.54 7.25 17.42 2.63-17.79 5.92-17.91 4 17.54 7.25 17.41 2.63-17.78 5.93-17.91 3.95 17.55 7.25 17.42 2.63-17.79 5.92-17.91 4 17.54 7.26 17.42 2.63-17.79 5.92-17.91 4 17.54 7.25 17.42 2.64-17.79 5.94-17.91 4 17.54 7.26 17.41M283.76 1135.68c2.27.08 3.92 17.83 6.17 17.91s5.12-17.52 7.37-17.45 4 17.82 6.24 17.89 5-17.54 7.31-17.48 4.06 17.8 6.31 17.86 5-17.56 7.23-17.51 4.13 17.78 6.39 17.83 4.9-17.58 7.15-17.53 4.21 17.76 6.47 17.8 4.83-17.6 7.08-17.56 4.28 17.74 6.54 17.77 4.75-17.62 7-17.59 4.37 17.72 6.62 17.74 4.68-17.64 6.93-17.62 4.44 17.7 6.69 17.71 4.6-17.66 6.85-17.65 4.53 17.68 6.78 17.68 4.51-17.68 6.76-17.69 4.61 17.67 6.86 17.66 4.43-17.7 6.68-17.72 4.69 17.64 6.94 17.62 4.35-17.72 6.6-17.75 4.78 17.62 7 17.59 4.26-17.75 6.51-17.79 4.87 17.6 7.11 17.55 4.17-17.77 6.42-17.82 5 17.58 7.2 17.52 4.08-17.79 6.32-17.85 5.06 17.54 7.3 17.47 4-17.81 6.23-17.88 5.15 17.51 7.39 17.43 3.88-17.83 6.12-17.92 5.26 17.49 7.5 17.4 3.78-17.86 6-18 5.36 17.45 7.59 17.35 3.68-17.88 5.91-18 5.47 17.42 7.7 17.3 3.57-17.91 5.8-18 5.59 17.38 7.82 17.25 3.45-17.93 5.67-18.07 5.71 17.34 7.94 17.19 3.32-17.95 5.54-18.1 5.85 17.3 8.06 17.13 3.2-18 5.42-18.15 6 17.26 8.19 17.08 3.06-18 5.27-18.19 6.13 17.2 8.33 17 2.91-18 5.1-18.23 6.31 17.15 8.49 16.92 2.75-18 4.93-18.28c2.33-.25 6.5 17.08 8.66 16.84 2.35-.26 2.58-18.09 4.72-18.34 2.37-.28 6.74 17 8.86 16.74 2.41-.3 2.4-18.13 4.49-18.4 2.46-.33 7.09 16.88 9.11 16.6 2.62-.37 2.29-18.19 4.14-18.48 4.45-.67 8 16.5 8 16.5" fill="none" stroke="#fff" stroke-linecap="round" stroke-linejoin="round" stroke-width="1.47"/><path d="M368.58 880.56a4.69 4.69 0 00-.19-1.15 2.32 2.32 0 00-.56-.93 2.48 2.48 0 00-1-.63 3.88 3.88 0 00-1.53-.21v-.72c1.68.06 3.34.05 5 0 .9 0 1.82-.08 2.74-.16l2.74-.22v.72a4.28 4.28 0 00-1.58.32 2.66 2.66 0 00-1 .7 2.5 2.5 0 00-.48 1 4.4 4.4 0 00-.11 1.16l.23 6.12c.16-.13.44-.38.84-.74s.85-.81 1.36-1.3 1-1 1.6-1.58 1.06-1.1 1.51-1.63a15.85 15.85 0 001.13-1.47 2 2 0 00.43-1.06 1.07 1.07 0 00-.23-.65 2.56 2.56 0 00-.55-.48 3.39 3.39 0 00-.7-.31 3 3 0 00-.67-.12v-.73a21 21 0 002.37.08l2.4-.08c.85 0 1.67-.07 2.45-.12s1.61-.13 2.45-.24v.73a8.19 8.19 0 00-2.83 1 15.68 15.68 0 00-2.44 1.7c-.77.64-1.51 1.33-2.22 2s-1.44 1.41-2.18 2l6.54 8.68c.34.46.68.86 1 1.23a6.15 6.15 0 001.06.93 5.07 5.07 0 001.23.62 6.36 6.36 0 001.59.29v.73h-2.75c-.92 0-1.83 0-2.74.07s-1.81.08-2.7.13-1.79.12-2.69.19v-.6l.67-.18a3.72 3.72 0 00.82-.31 2.93 2.93 0 00.7-.46.83.83 0 00.27-.66 2.09 2.09 0 00-.38-.82c-.24-.41-.56-.88-.94-1.43s-.81-1.12-1.27-1.74-.9-1.21-1.34-1.77L375.5 887l-.74-1-1.85 1.59.19 5.18a8.93 8.93 0 00.14 1.29 1.94 1.94 0 00.45.92 2 2 0 001 .56 6.54 6.54 0 001.74.21v.73h-2.76c-.91 0-1.82 0-2.73.07s-1.65.07-2.46.12l-2.45.18v-.72a6.64 6.64 0 001.71-.34 2.15 2.15 0 00.92-.63 2 2 0 00.37-1 7.59 7.59 0 000-1.29zM409.29 881.62a9 9 0 00-1-2.65 4.25 4.25 0 00-1.44-1.45 4.66 4.66 0 00-1.9-.59 15.73 15.73 0 00-2.43-.06l.54 14.49a12.84 12.84 0 00.15 1.67 1.94 1.94 0 00.47 1 1.85 1.85 0 001 .54 9.62 9.62 0 001.83.21v.6H404l-2.59.06c-.93 0-1.85.08-2.76.14s-1.84.12-2.81.19v-.6a11.17 11.17 0 001.8-.34 2 2 0 001-.62 2 2 0 00.39-1.06 14.43 14.43 0 000-1.68l-.56-14.47a16.36 16.36 0 00-2.42.24 4.72 4.72 0 00-1.86.74 4.14 4.14 0 00-1.32 1.55 9 9 0 00-.79 2.71h-.79c0-.38 0-.77.06-1.17s0-.83 0-1.32v-1.67c0-.67 0-1.36-.05-2.18l4.49-.05c1.47 0 3 0 4.45-.1s3-.14 4.55-.23l4.57-.3c0 .83.07 1.56.11 2.19s.09 1.18.14 1.66.1.92.14 1.31l.15 1.17zM416.3 881.51q0-.36-.06-.87v-1.07a20.93 20.93 0 010-2.26 18.79 18.79 0 01.32-2.3h4.09c1.35 0 2.7 0 4.08-.07l4.31-.19c1.43-.08 2.87-.18 4.32-.32l.36.72q-1.89 2.16-3.62 4.44t-3.36 4.62q-1.65 2.34-3.25 4.71c-1.08 1.57-2.18 3.13-3.32 4.67q.6 0 1.23.06h1.23a21.66 21.66 0 003.51-.39 11.34 11.34 0 003-1 8.32 8.32 0 002.43-1.87 8 8 0 001.63-2.91h.75A28.74 28.74 0 01433 891a29.06 29.06 0 01-1.4 3.48c-1.4 0-2.77 0-4.13.06s-2.73.07-4.12.13-2.71.11-4.06.18-2.71.15-4.06.24l-.54-.62 13.6-18.81q-2.76.11-4.83.3a11.84 11.84 0 00-3.47.8 4.66 4.66 0 00-2.1 1.7 6 6 0 00-.8 3zM507.54 878a8.77 8.77 0 00-1-2.65 4.14 4.14 0 00-1.43-1.45 4.76 4.76 0 00-1.91-.6 17.1 17.1 0 00-2.43-.06l.54 14.49a15.11 15.11 0 00.15 1.68 2 2 0 00.47 1 2 2 0 001 .54 10.67 10.67 0 001.83.2v.61h-2.56c-.86 0-1.73 0-2.6.07s-1.85.08-2.75.13-1.85.12-2.82.2v-.61a10.31 10.31 0 001.81-.34 1.91 1.91 0 001-.61 1.94 1.94 0 00.39-1.07 14.38 14.38 0 000-1.68l-.54-14.49a16.36 16.36 0 00-2.42.24 4.78 4.78 0 00-1.86.74 4.14 4.14 0 00-1.32 1.55 9 9 0 00-.79 2.72h-.79c0-.39 0-.78.06-1.18s0-.83 0-1.32v-1.67c0-.67 0-1.35-.05-2.18h4.49c1.47 0 3 0 4.46-.1s3-.14 4.54-.23l4.57-.29c0 .83.07 1.55.11 2.18s.09 1.18.14 1.66.1.92.14 1.32l.15 1.16zM511.49 871.47h4c1.64-.06 3.27-.18 4.9-.37v.73c-.26 0-.52 0-.77.06a2 2 0 00-.69.21 1.26 1.26 0 00-.5.44 1.32 1.32 0 00-.17.8 5.25 5.25 0 00.26.76c.17.45.39 1 .67 1.72l.95 2.36c.36.88.72 1.78 1.09 2.7s.73 1.82 1.09 2.7.67 1.7.94 2.44h.06l3-8.58c-.5-1.24-.92-2.21-1.27-2.93a10.08 10.08 0 00-1-1.65 2.58 2.58 0 00-1-.78 4.59 4.59 0 00-1.19-.3v-.73c1.5.06 3 .07 4.43 0 .85 0 1.7-.09 2.56-.16l2.56-.22v.73l-.84.11a3.71 3.71 0 00-.9.23 2 2 0 00-.71.47 1 1 0 00-.28.81 5.58 5.58 0 00.32 1.13c.2.59.46 1.29.78 2.12s.66 1.72 1.05 2.66l1.14 2.77c.36.9.71 1.71 1 2.44s.55 1.28.71 1.65c.11-.28.29-.76.54-1.43s.53-1.42.84-2.28.63-1.75 1-2.7.63-1.86.9-2.71.49-1.6.66-2.27a5.74 5.74 0 00.24-1.42 1.46 1.46 0 00-.29-.87 2 2 0 00-.67-.5 3.63 3.63 0 00-.83-.26 6.12 6.12 0 00-.8-.09v-.73h3.79c.64 0 1.17-.06 1.74-.13l1.74-.18v.73a4.69 4.69 0 00-1.2.33 2.7 2.7 0 00-.83.56 3.8 3.8 0 00-.62.8 8.71 8.71 0 00-.56 1.07c-.18.41-.44 1-.78 1.85s-.7 1.76-1.11 2.82l-1.28 3.35c-.46 1.18-.89 2.34-1.3 3.48s-.79 2.21-1.14 3.2-.63 1.82-.85 2.48h-1.06l-5-12.17c-.71 2.14-1.46 4.23-2.27 6.28s-1.6 4.14-2.39 6.25h-.91l-6.52-16.27c-.16-.42-.33-.81-.5-1.17a4 4 0 00-.63-.93 2.47 2.47 0 00-.87-.62 3.13 3.13 0 00-1.27-.23zM563.56 875.88a8.87 8.87 0 00-1-2.65 4.25 4.25 0 00-1.44-1.45 4.82 4.82 0 00-1.9-.6 18.72 18.72 0 00-2.43-.06l.54 14.49a11.31 11.31 0 00.15 1.68 2 2 0 00.46 1 1.92 1.92 0 001 .54 10.52 10.52 0 001.83.21v.6h-2.57l-2.59.06c-.93 0-1.85.08-2.76.14s-1.84.11-2.81.19v-.6a10 10 0 001.81-.35 1.88 1.88 0 001-.61 2.07 2.07 0 00.39-1.06 14.61 14.61 0 000-1.69l-.54-14.49a17.71 17.71 0 00-2.42.25 4.71 4.71 0 00-1.86.73 4.18 4.18 0 00-1.32 1.56 9.24 9.24 0 00-.8 2.71h-.78c0-.38 0-.78.06-1.17s0-.84 0-1.32v-1.67c0-.67 0-1.36-.06-2.19h4.5c1.47 0 3 0 4.45-.11s3-.13 4.55-.23l4.57-.29c0 .83.07 1.56.11 2.18s.09 1.18.14 1.67.09.92.14 1.31.09.78.15 1.17zM587.09 876.7a9.56 9.56 0 00-1-2.65 9.21 9.21 0 00-1.66-2.21 7.81 7.81 0 00-2.2-1.5 5.74 5.74 0 00-2.61-.49 5.39 5.39 0 00-3 .93 6.51 6.51 0 00-1.93 2.15 9.17 9.17 0 00-1 2.84 14.93 14.93 0 00-.2 3 11.13 11.13 0 00.64 3.45 7.78 7.78 0 001.62 2.7 6.83 6.83 0 002.57 1.73 8.82 8.82 0 003.52.52 7.74 7.74 0 002.58-.52 8.36 8.36 0 002-1.17 9.34 9.34 0 001.58-1.56 20.57 20.57 0 001.2-1.7l.75.73a12.85 12.85 0 01-4.1 4.67 11 11 0 01-5.92 1.8 11.55 11.55 0 01-4.21-.58 9.56 9.56 0 01-5.69-5.2 11.35 11.35 0 01-.94-4.29 11 11 0 01.65-4.32 9.65 9.65 0 012.16-3.37 10.4 10.4 0 013.4-2.25 12.58 12.58 0 014.43-.92 13.31 13.31 0 012 .09c.77.08 1.51.18 2.22.29l1.93.31a7.12 7.12 0 001 .13 1.14 1.14 0 00.34 0v2.34c0 .85.1 1.69.19 2.52s.2 1.68.33 2.53z" fill="#fff" stroke="#fff" stroke-linecap="round" stroke-linejoin="round" stroke-width="2.21"/><path d="M310.24 986.4a3.59 3.59 0 00-3.71-3.45l-13 .49c0 7.37.18 14.75.73 22.1l13.07-.48a3.61 3.61 0 003.45-3.72z" fill="#fff"/><rect x="319.97" y="982.05" width="22.12" height="22.12" rx="3.58" transform="rotate(-2.13 331.297 993.864)" fill="#fff"/><rect x="305.29" y="997.76" width="22.12" height="22.12" rx="3.58" transform="rotate(-2.13 316.742 1009.737)" fill="#fff"/><rect x="605.1" y="971.43" width="22.12" height="22.12" rx="3.58" transform="translate(-36.12 23.6)" fill="#fff"/><rect x="636.66" y="970.26" width="22.12" height="22.12" rx="3.58" transform="translate(-36.05 24.77)" fill="#fff"/><rect x="621.98" y="985.98" width="22.12" height="22.12" rx="3.58" transform="rotate(-2.13 633.642 997.87)" fill="#fff"/><rect x="413.18" y="978.58" width="22.12" height="22.12" rx="3.58" transform="rotate(-2.13 424.723 990.489)" fill="#fff"/><rect x="444.74" y="977.4" width="22.12" height="22.12" rx="3.58" transform="rotate(-2.13 456.226 989.191)" fill="#fff"/><rect x="430.06" y="993.12" width="22.12" height="22.12" rx="3.58" transform="rotate(-2.13 441.402 1005.059)" fill="#fff"/><rect x="397.39" y="994.34" width="22.12" height="22.12" rx="3.58" transform="rotate(-2.13 408.823 1006.337)" fill="#fff"/><rect x="478.26" y="976.16" width="22.12" height="22.12" rx="3.58" transform="rotate(-2.13 489.613 987.928)" fill="#fff"/><rect x="509.82" y="974.98" width="22.12" height="22.12" rx="3.58" transform="rotate(-2.13 521.38 986.905)" fill="#fff"/><rect x="495.14" y="990.7" width="22.12" height="22.12" rx="3.58" transform="rotate(-2.13 506.561 1002.504)" fill="#fff"/><rect x="526.09" y="989.55" width="22.12" height="22.12" rx="3.58" transform="rotate(-2.13 537.522 1001.465)" fill="#fff"/><rect x="462.47" y="991.91" width="22.12" height="22.12" rx="3.58" transform="rotate(-2.13 473.982 1003.781)" fill="#fff"/><path d="M550.71 979.08q2.12.1 4.14 0c.69 0 1.36-.07 2-.14l2-.19v.72a2.4 2.4 0 00-1 .26 1 1 0 00-.44 1 3 3 0 00.43 1.13c.28.51.6 1 1 1.61s.72 1.11 1.06 1.63.59.9.73 1.15q.21-.48.63-1.23c.28-.51.57-1 .85-1.57s.53-1.06.75-1.57a3 3 0 00.31-1.24 1.14 1.14 0 00-.22-.67 1.41 1.41 0 00-.48-.37 2.21 2.21 0 00-.6-.17 2.88 2.88 0 00-.56 0v-.72l1.56.06h1.56a30 30 0 003.29-.3v.72a3 3 0 00-1.87.79 9.25 9.25 0 00-1.64 1.91c-.52.77-1 1.61-1.53 2.53s-1 1.8-1.5 2.66l4.83 7.47q.36.56.78 1.08a7.28 7.28 0 00.88.95 3.62 3.62 0 001 .66 2.61 2.61 0 001.17.23v.72h-2.26l-2.27.06c-.77 0-1.53.06-2.29.11l-2.31.18v-.72a4.8 4.8 0 00.75-.09 2.08 2.08 0 00.67-.26 1.46 1.46 0 00.49-.55 1.82 1.82 0 00.16-.89 2.46 2.46 0 00-.38-1c-.25-.42-.55-.91-.93-1.46l-1.2-1.8c-.43-.65-.83-1.29-1.2-1.94-.17.35-.43.83-.78 1.46s-.71 1.26-1.07 1.92-.67 1.29-.94 1.88a3.24 3.24 0 00-.4 1.31 1.17 1.17 0 00.73 1.16 6.16 6.16 0 001.73.31v.72h-3.83c-.88 0-1.61.07-2.18.11a12.88 12.88 0 00-1.29.14V998a3.51 3.51 0 001.66-.6 7.32 7.32 0 001.39-1.24 11.2 11.2 0 001.16-1.59c.36-.57.69-1.11 1-1.62l2.3-3.9-4.51-6.7a10.53 10.53 0 00-1.58-2 2.48 2.48 0 00-1.7-.61zM571.61 978.3h4.46c.75 0 1.42-.07 2.11-.14l2.11-.2v.72a4.46 4.46 0 00-1.29.32 1.79 1.79 0 00-.84.6 2.28 2.28 0 00-.39 1 7.78 7.78 0 00-.07 1.52l.48 12.7a2.16 2.16 0 00.67 1.69 3.61 3.61 0 002.13.55v.72h-4.27c-.72 0-1.46.06-2.2.11s-1.46.1-2.2.17v-.72a3.53 3.53 0 002.08-.71 2.17 2.17 0 00.55-1.73l-.48-12.7a4.23 4.23 0 00-.64-2.48 2.6 2.6 0 00-2.1-.72zM582.91 977.88c1.36.07 2.71.08 4.07 0 .7 0 1.4-.07 2.11-.14l2.12-.2v.72l-.78.18a2.48 2.48 0 00-.68.31 1.4 1.4 0 00-.47.55 1.78 1.78 0 00-.15.93 7 7 0 00.44 1.65c.28.8.65 1.77 1.09 2.91s.94 2.42 1.5 3.83 1.11 2.88 1.66 4.4c.47-1.7.93-3.27 1.35-4.72s.81-2.73 1.14-3.87.58-2.08.76-2.86a7 7 0 00.25-1.7 1.62 1.62 0 00-.26-.89 1.74 1.74 0 00-.61-.54 3.29 3.29 0 00-1.42-.32v-.72l1.6.06h1.59a14 14 0 001.43-.11l1.43-.17v.72a5 5 0 00-.79.3 2 2 0 00-.58.39 2.48 2.48 0 00-.42.57 6.82 6.82 0 00-.36.83q-1.76 4.86-3.09 9.1t-2.39 8.29l-1.34.05c-.52-1.26-1-2.58-1.58-4s-1.08-2.8-1.64-4.25-1.13-2.9-1.71-4.37-1.16-2.91-1.75-4.33a3.37 3.37 0 00-1-1.36 3.32 3.32 0 00-1.54-.59zM344.34 986.76c1.5.07 3 .07 4.42 0 .73 0 1.44-.07 2.14-.14l2.13-.2v.72a2.58 2.58 0 00-1.13.27.94.94 0 00-.47 1 2.84 2.84 0 00.46 1.12c.3.51.64 1.05 1 1.61s.76 1.11 1.13 1.63.62.9.77 1.15a12.22 12.22 0 01.68-1.24q.45-.75.9-1.56c.31-.54.58-1.07.81-1.58a3 3 0 00.33-1.24 1.08 1.08 0 00-.23-.67 1.67 1.67 0 00-.51-.37 2.62 2.62 0 00-.64-.17 4.52 4.52 0 00-.6 0v-.71h3.33a34.14 34.14 0 003.51-.31v.72a3.36 3.36 0 00-2 .79 10.19 10.19 0 00-1.75 1.91c-.56.78-1.1 1.62-1.64 2.54s-1.07 1.81-1.61 2.67l5.14 7.46c.26.37.53.73.83 1.08a7.52 7.52 0 00.93.94 4.13 4.13 0 001.1.66 3 3 0 001.25.23v.71h-2.32l-2.43.06c-.82 0-1.63.08-2.44.13l-2.46.18v-.72a5.6 5.6 0 00.8-.09 2.23 2.23 0 00.72-.27 1.47 1.47 0 00.51-.54 1.73 1.73 0 00.18-.89 2.28 2.28 0 00-.4-1c-.26-.42-.59-.91-1-1.47l-1.29-1.79c-.46-.65-.88-1.29-1.27-1.94-.18.35-.46.83-.84 1.46s-.76 1.27-1.14 1.93-.72 1.29-1 1.88a3.1 3.1 0 00-.43 1.31 1.16 1.16 0 00.78 1.16 6.54 6.54 0 001.84.3v.72h-4l-2.34.12c-.61 0-1.07.09-1.36.14v-.84a3.89 3.89 0 001.76-.6 7.92 7.92 0 001.49-1.24 11.56 11.56 0 001.24-1.6c.38-.57.74-1.11 1.07-1.62l2.47-3.91-4.8-6.69a10.63 10.63 0 00-1.68-2 2.75 2.75 0 00-1.81-.61zM366.63 985.93h4.76c.8 0 1.52-.08 2.26-.15l2.25-.2v.72a5.12 5.12 0 00-1.47.28 2 2 0 00-.89.6 2.12 2.12 0 00-.42 1 7.58 7.58 0 00-.08 1.51l.48 12.71a2.09 2.09 0 00.71 1.68 4 4 0 002.27.54v.73h-4.55c-.78 0-1.57.07-2.35.12l-2.35.18v-.72a4 4 0 002.22-.71 2.11 2.11 0 00.59-1.73l-.47-12.71a4.15 4.15 0 00-.68-2.48 2.89 2.89 0 00-2.24-.71zM376 985.58h4.76c.8 0 1.52-.08 2.26-.15l2.25-.2v.72a5.12 5.12 0 00-1.47.28 2 2 0 00-.89.6 2.12 2.12 0 00-.42 1 7 7 0 00-.07 1.51l.47 12.71a2.1 2.1 0 00.71 1.68 4 4 0 002.27.55v.72h-2.28l-2.27.06c-.78 0-1.57.06-2.35.11l-2.34.18v-.72a4 4 0 002.22-.71 2.09 2.09 0 00.59-1.73L379 989.5a4.11 4.11 0 00-.68-2.48 2.85 2.85 0 00-2.24-.72z" fill="#fff" stroke="#fff" stroke-linecap="round" stroke-linejoin="round" stroke-width="2.21"/><path d="M385 985.25h4.75c.77 0 1.52-.07 2.26-.14l2.25-.21v.72a5.91 5.91 0 00-1.47.28 2.11 2.11 0 00-.89.61 2.08 2.08 0 00-.42 1 7.78 7.78 0 00-.07 1.52l.47 12.7a2.08 2.08 0 00.72 1.68 3.88 3.88 0 002.27.55v.72h-2.27c-.75 0-1.51 0-2.28.05l-2.35.12-2.34.18v-.72a3.9 3.9 0 002.22-.72 2.05 2.05 0 00.59-1.73l-.47-12.7a4.06 4.06 0 00-.68-2.48A2.89 2.89 0 00385 986z" fill="#fff" stroke="#fff" stroke-linecap="round" stroke-linejoin="round" stroke-width="2.21"/><path fill="none" stroke="#fff" stroke-linecap="round" stroke-linejoin="round" stroke-width="1.47" d="M295.17 1090.51l13.76 14.23 12.67-15.21 13.76 14.23 12.66-15.22 13.77 14.23 12.66-15.21 13.77 14.23 12.66-15.21 13.76 14.22 12.67-15.21 13.76 14.23 12.67-15.21 13.76 14.23 12.66-15.22 13.77 14.23 12.66-15.21 13.76 14.23 12.67-15.21 13.77 14.22 12.66-15.21 13.77 14.23 12.67-15.21 13.76 14.23 12.67-15.22 13.77 14.23 12.66-15.21 13.78 14.23 12.68-15.21"/><path fill="#fff" d="M640.83 1073.46l11.38 11.87 10.72-12.57-22.1.7z"/><path fill="none" stroke="#fff" stroke-linecap="round" stroke-linejoin="round" stroke-width="2.95" d="M640.83 1073.46l11.38 11.87 10.72-12.57-22.1.7z"/><path fill="#fff" d="M617.96 1074.31l7.19 6.67 6.82-7.11-14.01.44z"/><path fill="none" stroke="#fff" stroke-linecap="round" stroke-linejoin="round" stroke-width="2.95" d="M617.96 1074.31l7.19 6.67 6.82-7.11-14.01.44z"/><path fill="#fff" d="M587.82 1075.43l11.38 11.87 10.72-12.57-22.1.7z"/><path fill="none" stroke="#fff" stroke-linecap="round" stroke-linejoin="round" stroke-width="2.95" d="M587.82 1075.43l11.38 11.87 10.72-12.57-22.1.7z"/><path fill="#fff" d="M564.95 1076.29l7.19 6.66 6.82-7.11-14.01.45z"/><path fill="none" stroke="#fff" stroke-linecap="round" stroke-linejoin="round" stroke-width="2.95" d="M564.95 1076.29l7.19 6.66 6.82-7.11-14.01.45z"/><path fill="#fff" d="M535.05 1077.4l11.38 11.87 10.72-12.57-22.1.7z"/><path fill="none" stroke="#fff" stroke-linecap="round" stroke-linejoin="round" stroke-width="2.95" d="M535.05 1077.4l11.38 11.87 10.72-12.57-22.1.7z"/><path fill="#fff" d="M512.19 1078.25l7.18 6.67 6.83-7.11-14.01.44z"/><path fill="none" stroke="#fff" stroke-linecap="round" stroke-linejoin="round" stroke-width="2.95" d="M512.19 1078.25l7.18 6.67 6.83-7.11-14.01.44z"/><path fill="#fff" d="M482.37 1079.36l11.38 11.87 10.72-12.57-22.1.7z"/><path fill="none" stroke="#fff" stroke-linecap="round" stroke-linejoin="round" stroke-width="2.95" d="M482.37 1079.36l11.38 11.87 10.72-12.57-22.1.7z"/><path fill="#fff" d="M459.99 1080.19l7.19 6.67 6.82-7.11-14.01.44z"/><path fill="none" stroke="#fff" stroke-linecap="round" stroke-linejoin="round" stroke-width="2.95" d="M459.99 1080.19l7.19 6.67 6.82-7.11-14.01.44z"/><path fill="#fff" d="M429.44 1081.33l11.38 11.87 10.72-12.57-22.1.7z"/><path fill="none" stroke="#fff" stroke-linecap="round" stroke-linejoin="round" stroke-width="2.95" d="M429.44 1081.33l11.38 11.87 10.72-12.57-22.1.7z"/><path fill="#fff" d="M407.47 1082.15l7.18 6.67 6.83-7.12-14.01.45z"/><path fill="none" stroke="#fff" stroke-linecap="round" stroke-linejoin="round" stroke-width="2.95" d="M407.47 1082.15l7.18 6.67 6.83-7.12-14.01.45z"/><path fill="#fff" d="M376.59 1083.3l11.38 11.86 10.72-12.56-22.1.7z"/><path fill="none" stroke="#fff" stroke-linecap="round" stroke-linejoin="round" stroke-width="2.95" d="M376.59 1083.3l11.38 11.86 10.72-12.56-22.1.7z"/><path fill="#fff" d="M354.62 1084.12l7.18 6.66 6.83-7.11-14.01.45z"/><path fill="none" stroke="#fff" stroke-linecap="round" stroke-linejoin="round" stroke-width="2.95" d="M354.62 1084.12l7.18 6.66 6.83-7.11-14.01.45z"/><path fill="#fff" d="M323.42 1085.28l11.38 11.86 10.72-12.56-22.1.7z"/><path fill="none" stroke="#fff" stroke-linecap="round" stroke-linejoin="round" stroke-width="2.95" d="M323.42 1085.28l11.38 11.86 10.72-12.56-22.1.7z"/><path fill="#fff" d="M301.45 1086.09l7.18 6.67 6.83-7.11-14.01.44z"/><path fill="none" stroke="#fff" stroke-linecap="round" stroke-linejoin="round" stroke-width="2.95" d="M301.45 1086.09l7.18 6.67 6.83-7.11-14.01.44z"/><path d="M301.06 801.65h.41l.41 11 .19.26h1.62v.74l-5 .18v-.75l1.71-.17.17-.31-.35-9.51-2.32.58v-.74zM311.15 807.12a2.67 2.67 0 012.72 2.75 3.45 3.45 0 01-1 2.6 3.73 3.73 0 01-2.68 1.12 3.61 3.61 0 01-2.1-.51 1.67 1.67 0 01-.92-1.33.87.87 0 01.22-.64.77.77 0 01.58-.28 1 1 0 01.24 0l.21.06.52 1.48a2.26 2.26 0 00.63.3 2.39 2.39 0 00.66.08 2.14 2.14 0 001.64-.86 3 3 0 00.59-2 2.26 2.26 0 00-.63-1.61 2.2 2.2 0 00-1.66-.51 2.69 2.69 0 00-.4 0l-.38.06v-1h.31a2.36 2.36 0 001.69-.66 2.32 2.32 0 00.54-1.71 2.59 2.59 0 00-.58-1.65 1.71 1.71 0 00-1.4-.57 2.27 2.27 0 00-.75.15 2.15 2.15 0 00-.65.41l.06 1.67a1.17 1.17 0 01-.28.17.67.67 0 01-.33.07.7.7 0 01-.58-.24 1 1 0 01-.25-.68 2.05 2.05 0 01.85-1.68 3.58 3.58 0 012.21-.79 2.88 2.88 0 012.16.73 2.94 2.94 0 01.88 2.13 2.78 2.78 0 01-.5 1.79 3.49 3.49 0 01-1.62 1.15z" fill="#fff" stroke="#fff" stroke-linecap="round" stroke-linejoin="round" stroke-width="1.47"/><path d="M315.05 567.76s53.39 104.62 138.21 106.46c94.09-18 127.41-121.55 127.41-121.55" fill="none" stroke="#fff" stroke-linecap="round" stroke-miterlimit="10" stroke-width="1.47"/><path d="M289.61 874.31c5.95 8.06 11 14.1 13.4 14.88M298.6 822.57l1.71 45.83" fill="none" stroke="#fff" stroke-linecap="round" stroke-linejoin="round" stroke-width="1.47"/><circle cx="305.53" cy="877.65" r="10.17" fill="none" stroke="#fff" stroke-linecap="round" stroke-linejoin="round" stroke-width="1.47"/><path d="M303.48 878.86s-3-6.71-3.1.12 4.47 11.69 8.48 4.8" fill="none" stroke="#fff" stroke-linecap="round" stroke-miterlimit="10" stroke-width="2.95"/><path d="M306 889.86s14.62 5.11 24.37.41" fill="none" stroke="#fff" stroke-linecap="round" stroke-miterlimit="10" stroke-width="7.37"/><path d="M648.21 863.34c-4.67 7.25-8.63 12.54-10.7 13.4M636.96 809.98l1.7 45.83" fill="none" stroke="#fff" stroke-linecap="round" stroke-linejoin="round" stroke-width="1.47"/><circle cx="634.15" cy="865.42" r="10.17" fill="none" stroke="#fff" stroke-linecap="round" stroke-linejoin="round" stroke-width="1.47"/><path d="M636.28 866.47s2.53-6.91 3.09-.11-3.58 12-8.09 5.42" fill="none" stroke="#fff" stroke-linecap="round" stroke-miterlimit="10" stroke-width="2.95"/><path d="M634.6 877.62s-14.19 6.19-24.27 2.23" fill="none" stroke="#fff" stroke-linecap="round" stroke-miterlimit="10" stroke-width="7.37"/><path fill="#fff" stroke="#fff" stroke-linecap="round" stroke-linejoin="round" stroke-width="1.47" d="M521.22 641.72l2.03-12.2 3.74 11.98-5.77.22z"/><path fill="#fff" stroke="#fff" stroke-linecap="round" stroke-linejoin="round" stroke-width="1.47" d="M526.99 641.47l-2.04 12.2-3.73-11.98 5.77-.22z"/><path fill="#fff" stroke="#fff" stroke-linecap="round" stroke-linejoin="round" stroke-width="1.47" d="M523.98 638.71l12.2 2.04-11.98 3.73-.22-5.77z"/><path fill="#fff" stroke="#fff" stroke-linecap="round" stroke-linejoin="round" stroke-width="1.47" d="M524.22 644.48l-12.2-2.04 11.99-3.73.21 5.77z"/><path fill="#fff" stroke="#fff" stroke-linecap="round" stroke-linejoin="round" stroke-width="1.47" d="M525.32 640.27l4.51 6.32-6.98-3.66 2.47-2.66z"/><path fill="#fff" stroke="#fff" stroke-linecap="round" stroke-linejoin="round" stroke-width="1.47" d="M522.86 642.94l-4.51-6.31 6.98 3.66-2.47 2.65z"/><path fill="#fff" stroke="#fff" stroke-linecap="round" stroke-linejoin="round" stroke-width="1.47" d="M525.42 642.84l-6.32 4.51 3.67-6.98 2.65 2.47z"/><path fill="#fff" stroke="#fff" stroke-linecap="round" stroke-linejoin="round" stroke-width="1.47" d="M522.75 640.38l6.32-4.51-3.66 6.98-2.66-2.47z"/><path d="M336.77 869a2.21 2.21 0 01-2.1-1.3 2.47 2.47 0 01-.19-.78 2.21 2.21 0 01-4.08.46l-2.08-3.9a2.21 2.21 0 013.9-2.08l2.08 3.9a2.24 2.24 0 01.26.92 2.18 2.18 0 011.23-1.44c1.12-.5 2.51-1.1 4.16-1.76a2.21 2.21 0 111.64 4.1c-1.59.64-2.92 1.21-4 1.69a2.14 2.14 0 01-.82.19zm253.6-10.6a2.21 2.21 0 01-.62-.06l-2.67-.66a2.21 2.21 0 111-4.3l1 .25a2.21 2.21 0 013.92 2.17l-.76 1.46a2.19 2.19 0 01-1.87 1.18zm-148.25 3.35a1.85 1.85 0 01-.62-.07 85.62 85.62 0 00-4.22-1 2.21 2.21 0 111-4.3c1.43.33 2.87.69 4.32 1.07l-.55 2.11v0l1.26 1.81a2.19 2.19 0 01-1.19.42zm-95.75 3.47a2.21 2.21 0 01-.81-4.3c1.33-.46 2.75-.94 4.26-1.41a2.21 2.21 0 011.33 4.21c-1.47.46-2.84.93-4.13 1.38a2.48 2.48 0 01-.65.16zM582 856.44a2.2 2.2 0 01-.57-.05c-1.44-.32-2.87-.63-4.29-.92a2.21 2.21 0 01.9-4.33c1.43.3 2.88.61 4.35.94a2.21 2.21 0 01-.39 4.36zm-101 3.21a2.18 2.18 0 01-1.32-.37 29.59 29.59 0 00-3.55-2 2.21 2.21 0 011.92-4 35.24 35.24 0 014.1 2.36 2.22 2.22 0 01.6 3.07 2.18 2.18 0 01-1.84.94zm5.2-1.41a2.21 2.21 0 01-.94-4.25c1.33-.56 2.76-1.11 4.25-1.64a2.21 2.21 0 011.46 4.18c-1.4.49-2.74 1-4 1.53a2.16 2.16 0 01-.86.18zm85.73-3.85a2.59 2.59 0 01-.48 0c-1.46-.27-2.9-.52-4.32-.76a2.21 2.21 0 01.73-4.36c1.45.24 2.91.5 4.39.77a2.21 2.21 0 01-.32 4.39zm-139.73 5.1a2.32 2.32 0 01-.52 0c-1.44-.28-2.87-.55-4.29-.79a2.21 2.21 0 11.75-4.35c1.45.24 2.92.51 4.4.8a2.21 2.21 0 01-.34 4.38zm15.14-.67a2.21 2.21 0 01-1.06-4.19 45.59 45.59 0 014.26-1.84 2.21 2.21 0 111.55 4.13c-1.3.49-2.6 1.05-3.86 1.67a2.22 2.22 0 01-.98.23zm-91 3.38a2.21 2.21 0 01-.67-4.34c1.4-.38 2.84-.76 4.34-1.13a2.21 2.21 0 011.05 4.29c-1.46.36-2.86.73-4.22 1.1a2.17 2.17 0 01-.62.08zM594 851.77a2.28 2.28 0 01-1.11-.25 2.22 2.22 0 01-.93-3l2-3.91a2.21 2.21 0 013.92 2l-2.06 3.92a2.22 2.22 0 01-1.94 1.24zm-32.21 1a2.75 2.75 0 01-.4 0c-1.47-.21-2.91-.4-4.34-.58a2.21 2.21 0 11.55-4.39c1.45.18 2.92.38 4.42.59a2.21 2.21 0 01-.23 4.4zm-139.73 5.09a2.42 2.42 0 01-.38 0c-1.46-.2-2.9-.37-4.33-.52a2.21 2.21 0 01.47-4.4q2.21.24 4.44.54a2.21 2.21 0 01-.2 4.4zm-55.69 2a2.21 2.21 0 01-.53-4.37c1.43-.3 2.89-.58 4.4-.85a2.21 2.21 0 01.78 4.35c-1.47.26-2.9.54-4.29.82a2.23 2.23 0 01-.48-.02zm129.61-4.89a2.21 2.21 0 01-.67-4.34q2-.57 4.38-1.11a2.21 2.21 0 011 4.31c-1.49.34-2.89.7-4.19 1.06a3 3 0 01-.64.01zm-24.31.55a2.68 2.68 0 01-.62-.07 26.58 26.58 0 00-4-.69 2.21 2.21 0 01.42-4.4 31.77 31.77 0 014.68.8 2.22 2.22 0 01-.46 4.36zm-14.6-.06a2.21 2.21 0 01-.55-4.37 38 38 0 014.63-.72 2.21 2.21 0 11.41 4.4 33.46 33.46 0 00-4.1.64 2.6 2.6 0 01-.46-.02zm-45.27 1.37h-.24c-1.47-.1-2.92-.18-4.36-.25a2.21 2.21 0 11.2-4.41c1.48.06 3 .15 4.47.25a2.21 2.21 0 01-.07 4.42zM376.41 858a2.21 2.21 0 01-.4-4.39c1.46-.21 2.94-.4 4.45-.58a2.24 2.24 0 012.45 1.94 2.21 2.21 0 01-2 2.45c-1.47.17-2.91.36-4.32.56zm175-6.53a1.51 1.51 0 01-.3 0c-1.47-.14-2.93-.27-4.35-.38a2.21 2.21 0 11.34-4.4c1.45.11 2.94.24 4.44.39a2.21 2.21 0 01-.13 4.4zm-223.85 8a2.21 2.21 0 01-2-1.17l-2.08-3.9a2.21 2.21 0 013.9-2.08l2.08 3.9a2.21 2.21 0 01-.91 3 2.09 2.09 0 01-.97.27zm178.34-6.85a2.21 2.21 0 01-.47-4.38c1.42-.25 2.9-.49 4.44-.71a2.21 2.21 0 01.62 4.38c-1.49.21-2.92.44-4.29.68zm-104.54 3.71H396.89a2.21 2.21 0 01-.08-4.42h4.48a2.21 2.21 0 01.07 4.42zm-14.73.52a2.21 2.21 0 01-.25-4.41c1.46-.12 3-.22 4.46-.3h0a2.21 2.21 0 01.2 4.42c-1.47.07-2.92.17-4.35.29zm154.5-6.14H541c-1.49-.08-2.94-.13-4.37-.17a2.21 2.21 0 01.12-4.42c1.45 0 2.94.1 4.46.17a2.21 2.21 0 010 4.42zm-25 .52a2.21 2.21 0 01-.3-4.41c1.45-.14 2.94-.26 4.47-.37a2.18 2.18 0 012.36 2 2.21 2.21 0 01-2 2.36c-1.5.1-2.94.22-4.34.36zm14.71-.75h-.07c-1.49 0-2.94 0-4.36.09a2.21 2.21 0 01-.15-4.42h0c1.45 0 2.94-.07 4.47-.09a2.21 2.21 0 01.1 4.42zm67.83-7.86a2.34 2.34 0 01-1.11-.25 2.23 2.23 0 01-.93-3l2.06-3.91a2.21 2.21 0 013.91 2l-2.05 3.92a2.22 2.22 0 01-1.88 1.26zm-275.94 7.75a2.19 2.19 0 01-2-1.17l-2.08-3.9a2.21 2.21 0 013.9-2.08l2.08 3.9a2.22 2.22 0 01-.91 3 2.13 2.13 0 01-.99.27zm280.73-16.88a2.27 2.27 0 01-1.1-.25 2.22 2.22 0 01-.93-3l2.05-3.91a2.21 2.21 0 013.92 2l-2.06 3.92a2.22 2.22 0 01-1.88 1.26zm-285.58 7.78a2.2 2.2 0 01-2-1.17l-2.08-3.89a2.21 2.21 0 013.9-2.08l2.08 3.89a2.21 2.21 0 01-.91 3 2.17 2.17 0 01-.99.27zm290.38-16.91a2.31 2.31 0 01-1.11-.25 2.22 2.22 0 01-.93-3l2.06-3.91a2.21 2.21 0 013.91 2l-2.06 3.92a2.22 2.22 0 01-1.87 1.26zM313 832.19a2.19 2.19 0 01-2-1.16l-2.08-3.9a2.21 2.21 0 013.9-2.08l2.08 3.9a2.19 2.19 0 01-1.87 3.24zm300-16.94a2.27 2.27 0 01-1-.25 2.21 2.21 0 01-.93-3l2.05-3.91a2.21 2.21 0 013.91 2l-2.05 3.92a2.22 2.22 0 01-1.93 1.24zM308 816l2.08 3.9a2.21 2.21 0 01-.91 3 2.38 2.38 0 01-1 .26 2.21 2.21 0 01-2-1.17l-2.08-3.9m313.79-11.91a2.28 2.28 0 01-1.11-.25 2.22 2.22 0 01-.93-3l2.05-3.91a2.21 2.21 0 013.92 2l-2.06 3.92a2.22 2.22 0 01-1.9 1.18zm4.1-8.83a2 2 0 01-.64-.07c-.73-.19-2.27-.61-4.4-1.33a2.21 2.21 0 111.41-4.19c2 .68 3.43 1.07 4.1 1.25a2.21 2.21 0 01-.47 4.34zm-9.82-3.35a2.12 2.12 0 01-.92-.17c-1.29-.52-2.68-1.12-4.15-1.78a2.21 2.21 0 011.83-4c1.41.65 2.74 1.22 4 1.72a2.21 2.21 0 01-.75 4.26zm-297 3.39q1.74-1.33 3.43-2.7a2.21 2.21 0 112.78 3.43q-1.72 1.41-3.51 2.77a2.1 2.1 0 01-1.26.46m286.15-11.69a2.3 2.3 0 01-1.1-.25q-1.92-1-4-2.16a2.21 2.21 0 012.2-3.84c1.3.74 2.57 1.44 3.8 2.08a2.21 2.21 0 01-.94 4.17zm-278.17 5.18a2.22 2.22 0 01-1.53-3.88q1.67-1.44 3.27-2.9a2.21 2.21 0 113 3.27c-1.09 1-2.21 2-3.34 3a2.25 2.25 0 01-1.37.46zm269.25-10.36a2.29 2.29 0 01-1.28-.35c-1.23-.8-2.48-1.63-3.74-2.52a2.21 2.21 0 012.53-3.62c1.21.85 2.42 1.66 3.6 2.42a2.21 2.21 0 01-1.11 4.07zm-8.41-6A2.22 2.22 0 01584 778c-1.16-.91-2.33-1.87-3.49-2.86a2.21 2.21 0 112.87-3.36c1.11 1 2.23 1.87 3.35 2.74a2.22 2.22 0 01-1.29 4zm-253.22 9.33a2.21 2.21 0 01-1.63-3.79c1.05-1 2.07-2 3.08-3.09a2.21 2.21 0 113.17 3.07q-1.54 1.61-3.16 3.18a2.18 2.18 0 01-1.46.63zm245.46-16.11a2.2 2.2 0 01-1.61-.61q-1.6-1.53-3.2-3.18a2.21 2.21 0 013.19-3.07q1.51 1.57 3.06 3a2.21 2.21 0 01-1.44 3.81zm-238.33 8.66a2.21 2.21 0 01-1.73-3.68c1-1.09 1.92-2.18 2.85-3.29a2.21 2.21 0 113.38 2.85q-1.43 1.69-2.94 3.39a2.19 2.19 0 01-1.56.73zm231.24-16.14a2.15 2.15 0 01-1.76-.77c-1-1.14-1.95-2.32-2.87-3.49a2.21 2.21 0 013.48-2.72c.9 1.14 1.81 2.26 2.74 3.34a2.21 2.21 0 01-1.59 3.64zm-224.66 8.21a2.25 2.25 0 01-1.43-.45 2.22 2.22 0 01-.4-3.1q1.34-1.74 2.6-3.49a2.21 2.21 0 013.59 2.58q-1.31 1.81-2.69 3.61a2.17 2.17 0 01-1.67.85zm6-8.4a2.26 2.26 0 01-1.29-.36 2.21 2.21 0 01-.64-3.06c.79-1.21 1.56-2.44 2.3-3.67a2.21 2.21 0 113.79 2.27q-1.16 1.92-2.39 3.82a2.24 2.24 0 01-1.8.97zm212.38-8a2.21 2.21 0 01-1.9-.94c-.84-1.22-1.68-2.47-2.49-3.76a2.21 2.21 0 113.7-2.33 97.7 97.7 0 002.39 3.6 2.21 2.21 0 01-.55 3.08 2.16 2.16 0 01-1.18.39zm-207.13-.91a2.25 2.25 0 01-1.12-.26 2.21 2.21 0 01-.91-3c.69-1.28 1.35-2.56 2-3.86a2.21 2.21 0 014 1.93q-1 2-2.05 4a2.22 2.22 0 01-1.95 1.23zm201.68-7.83a2.21 2.21 0 01-2-1.13c-.72-1.3-1.43-2.63-2.11-4a2.21 2.21 0 113.95-2c.66 1.3 1.33 2.58 2 3.82a2.22 2.22 0 01-.86 3 2.19 2.19 0 01-1.01.35zm-197.23-1.47a2.21 2.21 0 01-2.12-3.06c.56-1.34 1.09-2.68 1.6-4a2.21 2.21 0 014.14 1.54c-.53 1.41-1.08 2.8-1.67 4.19a2.19 2.19 0 01-1.98 1.37zm192.68-7.76a2.22 2.22 0 01-2.11-1.34c-.59-1.36-1.16-2.74-1.71-4.16a2.21 2.21 0 014.13-1.6c.52 1.37 1.07 2.7 1.63 4a2.19 2.19 0 01-1.14 2.9 2.08 2.08 0 01-.83.24zm-189.14-1.91a2.07 2.07 0 01-.74-.1 2.21 2.21 0 01-1.46-2.76c.43-1.38.83-2.76 1.2-4.15a2.21 2.21 0 114.27 1.13c-.38 1.45-.8 2.89-1.25 4.33a2.19 2.19 0 01-2.05 1.59zm185.49-7.73a2.21 2.21 0 01-2.18-1.52c-.46-1.41-.9-2.84-1.31-4.31a2.21 2.21 0 014.25-1.2q.6 2.1 1.26 4.14a2.2 2.2 0 01-1.41 2.78 1.87 1.87 0 01-.64.15zm-182.93-2.24a2.38 2.38 0 01-.53-.05 2.2 2.2 0 01-1.72-2.6c.28-1.41.54-2.83.76-4.25a2.21 2.21 0 014.37.68c-.24 1.48-.5 3-.8 4.45a2.22 2.22 0 01-2.11 1.81zm180.18-7.68a2.22 2.22 0 01-2.24-1.71c-.33-1.44-.64-2.91-.93-4.39a2.21 2.21 0 114.34-.85c.28 1.44.58 2.85.9 4.24a2.23 2.23 0 01-1.66 2.66 2 2 0 01-.44.09zM369.2 716a1.51 1.51 0 01-.3 0 2.21 2.21 0 01-2-2.41c.14-1.42.25-2.87.32-4.31a2.21 2.21 0 014.42.23c-.08 1.5-.19 3-.34 4.51a2.2 2.2 0 01-2.1 1.98zm176.74-7.6a2.2 2.2 0 01-2.26-1.89c-.14-.93-.27-1.86-.39-2.8-.06-.6-.11-1.13-.17-1.66a2.21 2.21 0 014.39-.5c.06.55.12 1.1.17 1.66.11.85.24 1.76.37 2.65a2.21 2.21 0 01-1.86 2.51 2.13 2.13 0 01-.25.05zm-176.29-2.7h-.06a2.23 2.23 0 01-2.23-2.2c0-1 0-2-.07-2.94q0-.69-.06-1.38a2.22 2.22 0 012.1-2.32h0a2.22 2.22 0 012.29 2.1l.06 1.44c0 1 .06 2.05.07 3.07a2.2 2.2 0 01-2.1 2.25zm175-7.53a2.22 2.22 0 01-2.27-1.89c-.17-1.18-.35-2.35-.53-3.52l-.13-.83a2.21 2.21 0 014.37-.67l.13.83.54 3.55a2.22 2.22 0 01-1.87 2.51zm-175.57-2.75a2.22 2.22 0 01-2.28-2c-.15-1.43-.34-2.86-.55-4.29a2.21 2.21 0 114.37-.66c.22 1.49.42 3 .58 4.47a2.23 2.23 0 01-2 2.44zM543.1 688a2.22 2.22 0 01-2.27-1.92c-.19-1.47-.37-3-.51-4.46a2.2 2.2 0 012-2.41 2.22 2.22 0 012.41 2c.14 1.45.31 2.88.5 4.3a2.21 2.21 0 01-1.9 2.48zm-175.66-2.73a2.2 2.2 0 01-2.24-1.76c-.3-1.4-.62-2.81-1-4.22a2.21 2.21 0 014.29-1.07c.37 1.47.7 2.93 1 4.39a2.21 2.21 0 01-1.71 2.62 2.46 2.46 0 01-.34.03zm174.79-7.53h0a2.21 2.21 0 01-2.27-2.15c-.05-1.52 0-3.05 0-4.54a2.21 2.21 0 014.42.13c0 1.41-.05 2.85 0 4.29a2.21 2.21 0 01-2.15 2.26zm-177.34-2.45a2.23 2.23 0 01-2.2-1.57c-.41-1.37-.86-2.75-1.33-4.13a2.2 2.2 0 114.17-1.43c.5 1.42 1 2.85 1.39 4.28a2.2 2.2 0 01-1.47 2.75 2.28 2.28 0 01-.56.09zm177.76-7.84a1.82 1.82 0 01-.33 0 2.2 2.2 0 01-2-2.44c.16-1.47.37-3 .62-4.49a2.21 2.21 0 114.36.72c-.24 1.43-.44 2.86-.59 4.26a2.2 2.2 0 01-2.06 1.94zm-181.17-1.89a2.21 2.21 0 01-2.14-1.39c-.53-1.34-1.09-2.67-1.67-4a2.21 2.21 0 114.05-1.77c.6 1.38 1.18 2.77 1.73 4.15a2.21 2.21 0 01-1.24 2.87 2.38 2.38 0 01-.73.13zm182.93-8.25a2 2 0 01-.59-.06 2.2 2.2 0 01-1.64-2.65c.33-1.42.7-2.87 1.12-4.37a2.21 2.21 0 014.26 1.19c-.41 1.44-.76 2.83-1.08 4.19a2.21 2.21 0 01-2.07 1.69zm-187.11-1.18a2.23 2.23 0 01-2.07-1.24c-.63-1.29-1.28-2.58-2-3.88a2.21 2.21 0 113.91-2.06c.71 1.33 1.38 2.67 2 4a2.2 2.2 0 01-1 2.95 2.22 2.22 0 01-.84.23zm189.94-8.73a2.34 2.34 0 01-.78-.11 2.21 2.21 0 01-1.4-2.8c.46-1.37 1-2.78 1.48-4.23a2.21 2.21 0 014.15 1.53c-.52 1.4-1 2.77-1.44 4.1a2.2 2.2 0 01-2.01 1.51zm-194.79-.4a2.2 2.2 0 01-2-1.1c-.72-1.25-1.47-2.49-2.24-3.74a2.21 2.21 0 013.77-2.32q1.18 1.93 2.29 3.85a2.2 2.2 0 01-1.83 3.31zm198.38-9.28a2.14 2.14 0 01-.92-.17 2.2 2.2 0 01-1.2-2.88c.54-1.34 1.12-2.71 1.73-4.11a2.21 2.21 0 014.06 1.76c-.6 1.37-1.17 2.71-1.7 4a2.24 2.24 0 01-1.97 1.43zm-203.83.56a2.19 2.19 0 01-1.92-1q-1.2-1.8-2.46-3.6a2.21 2.21 0 113.61-2.54q1.31 1.85 2.53 3.7a2.21 2.21 0 01-.62 3.06 2.27 2.27 0 01-1.14.38zm208-10a2.17 2.17 0 01-1-.2 2.22 2.22 0 01-1.07-2.94c.62-1.31 1.26-2.65 1.93-4a2.21 2.21 0 114 1.94c-.66 1.35-1.29 2.66-1.89 3.95a2.21 2.21 0 01-1.97 1.28zm-213.92 1.55a2.19 2.19 0 01-1.85-.88q-1.31-1.74-2.66-3.46a2.21 2.21 0 113.47-2.74q1.39 1.79 2.72 3.55a2.2 2.2 0 01-.44 3.09 2.15 2.15 0 01-1.26.47zm218.46-10.79a2.26 2.26 0 01-1.09-.25 2.21 2.21 0 01-.95-3c.66-1.29 1.35-2.61 2.06-3.94a2.21 2.21 0 113.9 2.07c-.7 1.32-1.38 2.62-2 3.89a2.23 2.23 0 01-1.94 1.26zm-224.86 2.71a2.23 2.23 0 01-1.78-.79c-.93-1.11-1.87-2.22-2.84-3.33a2.21 2.21 0 013.34-2.9c1 1.13 1.95 2.26 2.89 3.4a2.21 2.21 0 01-.28 3.11 2.25 2.25 0 01-1.35.54zM564.38 610a2.15 2.15 0 01-1.15-.27 2.21 2.21 0 01-.87-3c.7-1.27 1.43-2.56 2.17-3.88a2.21 2.21 0 013.85 2.18c-.74 1.3-1.45 2.58-2.15 3.83a2.17 2.17 0 01-1.85 1.14zm-236.51 4a2.21 2.21 0 01-1.71-.72c-1-1.06-2-2.13-3-3.2a2.21 2.21 0 113.2-3c1 1.09 2.05 2.17 3.05 3.26a2.21 2.21 0 01-.14 3.12 2.19 2.19 0 01-1.4.54zm241.6-13a2.17 2.17 0 01-1.2-.3 2.2 2.2 0 01-.79-3c.73-1.25 1.48-2.53 2.25-3.82a2.21 2.21 0 113.8 2.26c-.76 1.28-1.51 2.54-2.23 3.79a2.19 2.19 0 01-1.83 1.07zm-248.72 5.56a2.18 2.18 0 01-1.65-.65q-1.53-1.54-3.12-3.07a2.21 2.21 0 013.08-3.18c1.07 1 2.13 2.09 3.17 3.13a2.21 2.21 0 010 3.13 2.24 2.24 0 01-1.48.65zm254-14.41a2.18 2.18 0 01-1.23-.32 2.22 2.22 0 01-.74-3l2.32-3.83a2.21 2.21 0 013.76 2.33c-.79 1.27-1.55 2.52-2.31 3.75a2.21 2.21 0 01-1.8 1.08zm-261.43 7.25a2.19 2.19 0 01-1.58-.59q-1.59-1.47-3.24-3a2.21 2.21 0 113-3.28q1.67 1.5 3.29 3a2.21 2.21 0 01-1.43 3.83zm266.86-16a2.14 2.14 0 01-1.26-.34 2.22 2.22 0 01-.69-3l2.38-3.74a2.21 2.21 0 113.72 2.39l-2.33 3.66a2.18 2.18 0 01-1.82 1.03zm-274.53 9.13a2.2 2.2 0 01-1.53-.53q-1.65-1.43-3.34-2.85a2.21 2.21 0 112.84-3.38q1.72 1.44 3.39 2.88a2.21 2.21 0 01-1.36 3.88zm280.09-17.81a2.2 2.2 0 01-1.28-.35 2.22 2.22 0 01-.65-3.06l2.42-3.71a2.21 2.21 0 013.7 2.43q-1.23 1.86-2.41 3.69a2.21 2.21 0 01-1.78 1zM293.48 1030.44a6.53 6.53 0 01.3 12.32" fill="none" stroke="#fff" stroke-linecap="round" stroke-linejoin="round" stroke-width="1.47"/><circle cx="300.01" cy="1036.33" r="6.53" fill="none" stroke="#fff" stroke-linecap="round" stroke-linejoin="round" stroke-width="1.47"/><circle cx="308.51" cy="1036.02" r="6.53" fill="none" stroke="#fff" stroke-linecap="round" stroke-linejoin="round" stroke-width="1.47"/><circle cx="317.07" cy="1035.7" r="6.53" fill="none" stroke="#fff" stroke-linecap="round" stroke-linejoin="round" stroke-width="1.47"/><circle cx="326.11" cy="1035.36" r="6.53" fill="none" stroke="#fff" stroke-linecap="round" stroke-linejoin="round" stroke-width="1.47"/><circle cx="334.66" cy="1035.04" r="6.53" fill="none" stroke="#fff" stroke-linecap="round" stroke-linejoin="round" stroke-width="1.47"/><circle cx="343.16" cy="1034.73" r="6.53" fill="none" stroke="#fff" stroke-linecap="round" stroke-linejoin="round" stroke-width="1.47"/><circle cx="351.72" cy="1034.41" r="6.53" fill="none" stroke="#fff" stroke-linecap="round" stroke-linejoin="round" stroke-width="1.47"/><circle cx="360.5" cy="1034.08" r="6.53" fill="none" stroke="#fff" stroke-linecap="round" stroke-linejoin="round" stroke-width="1.47"/><circle cx="369.06" cy="1033.76" r="6.53" fill="none" stroke="#fff" stroke-linecap="round" stroke-linejoin="round" stroke-width="1.47"/><circle cx="377.55" cy="1033.45" r="6.53" fill="none" stroke="#fff" stroke-linecap="round" stroke-linejoin="round" stroke-width="1.47"/><circle cx="386.11" cy="1033.13" r="6.53" fill="none" stroke="#fff" stroke-linecap="round" stroke-linejoin="round" stroke-width="1.47"/><circle cx="395.35" cy="1032.78" r="6.53" fill="none" stroke="#fff" stroke-linecap="round" stroke-linejoin="round" stroke-width="1.47"/><circle cx="403.9" cy="1032.47" r="6.53" fill="none" stroke="#fff" stroke-linecap="round" stroke-linejoin="round" stroke-width="1.47"/><circle cx="412.4" cy="1032.15" r="6.53" fill="none" stroke="#fff" stroke-linecap="round" stroke-linejoin="round" stroke-width="1.47"/><circle cx="420.96" cy="1031.83" r="6.53" fill="none" stroke="#fff" stroke-linecap="round" stroke-linejoin="round" stroke-width="1.47"/><circle cx="430" cy="1031.49" r="6.53" fill="none" stroke="#fff" stroke-linecap="round" stroke-linejoin="round" stroke-width="1.47"/><circle cx="438.55" cy="1031.18" r="6.53" fill="none" stroke="#fff" stroke-linecap="round" stroke-linejoin="round" stroke-width="1.47"/><circle cx="447.05" cy="1030.86" r="6.53" fill="none" stroke="#fff" stroke-linecap="round" stroke-linejoin="round" stroke-width="1.47"/><circle cx="455.61" cy="1030.54" r="6.53" fill="none" stroke="#fff" stroke-linecap="round" stroke-linejoin="round" stroke-width="1.47"/><circle cx="464.39" cy="1030.21" r="6.53" fill="none" stroke="#fff" stroke-linecap="round" stroke-linejoin="round" stroke-width="1.47"/><circle cx="472.95" cy="1029.9" r="6.53" fill="none" stroke="#fff" stroke-linecap="round" stroke-linejoin="round" stroke-width="1.47"/><circle cx="481.44" cy="1029.58" r="6.53" fill="none" stroke="#fff" stroke-linecap="round" stroke-linejoin="round" stroke-width="1.47"/><circle cx="490" cy="1029.26" r="6.53" fill="none" stroke="#fff" stroke-linecap="round" stroke-linejoin="round" stroke-width="1.47"/><circle cx="499.04" cy="1028.92" r="6.53" fill="none" stroke="#fff" stroke-linecap="round" stroke-linejoin="round" stroke-width="1.47"/><circle cx="507.6" cy="1028.61" r="6.53" fill="none" stroke="#fff" stroke-linecap="round" stroke-linejoin="round" stroke-width="1.47"/><circle cx="516.09" cy="1028.29" r="6.53" fill="none" stroke="#fff" stroke-linecap="round" stroke-linejoin="round" stroke-width="1.47"/><circle cx="524.65" cy="1027.97" r="6.53" fill="none" stroke="#fff" stroke-linecap="round" stroke-linejoin="round" stroke-width="1.47"/><circle cx="533.69" cy="1027.63" r="6.53" fill="none" stroke="#fff" stroke-linecap="round" stroke-linejoin="round" stroke-width="1.47"/><circle cx="542.25" cy="1027.32" r="6.53" fill="none" stroke="#fff" stroke-linecap="round" stroke-linejoin="round" stroke-width="1.47"/><circle cx="550.74" cy="1027" r="6.53" fill="none" stroke="#fff" stroke-linecap="round" stroke-linejoin="round" stroke-width="1.47"/><circle cx="559.3" cy="1026.68" r="6.53" fill="none" stroke="#fff" stroke-linecap="round" stroke-linejoin="round" stroke-width="1.47"/><circle cx="568.08" cy="1026.35" r="6.53" fill="none" stroke="#fff" stroke-linecap="round" stroke-linejoin="round" stroke-width="1.47"/><circle cx="576.64" cy="1026.04" r="6.53" fill="none" stroke="#fff" stroke-linecap="round" stroke-linejoin="round" stroke-width="1.47"/><circle cx="585.13" cy="1025.72" r="6.53" fill="none" stroke="#fff" stroke-linecap="round" stroke-linejoin="round" stroke-width="1.47"/><circle cx="593.69" cy="1025.4" r="6.53" fill="none" stroke="#fff" stroke-linecap="round" stroke-linejoin="round" stroke-width="1.47"/><circle cx="602.46" cy="1025.07" r="6.53" fill="none" stroke="#fff" stroke-linecap="round" stroke-linejoin="round" stroke-width="1.47"/><circle cx="611.02" cy="1024.76" r="6.53" fill="none" stroke="#fff" stroke-linecap="round" stroke-linejoin="round" stroke-width="1.47"/><circle cx="619.52" cy="1024.44" r="6.53" fill="none" stroke="#fff" stroke-linecap="round" stroke-linejoin="round" stroke-width="1.47"/><circle cx="628.07" cy="1024.12" r="6.53" fill="none" stroke="#fff" stroke-linecap="round" stroke-linejoin="round" stroke-width="1.47"/><circle cx="637.11" cy="1023.79" r="6.53" fill="none" stroke="#fff" stroke-linecap="round" stroke-linejoin="round" stroke-width="1.47"/><circle cx="645.67" cy="1023.47" r="6.53" fill="none" stroke="#fff" stroke-linecap="round" stroke-linejoin="round" stroke-width="1.47"/><circle cx="654.17" cy="1023.15" r="6.53" fill="none" stroke="#fff" stroke-linecap="round" stroke-linejoin="round" stroke-width="1.47"/><path d="M275.65 1131c.54-2.35 1.41-4.63 2-7l-116.16-3.54-.41 13.45 113.19 3.45c.44-2.13.89-4.26 1.38-6.36z" fill="#fff"/><ellipse cx="172.1" cy="794.97" rx="66.16" ry="51.99" transform="rotate(-88.25 172.142 794.996)" fill="none" stroke="#fff" stroke-linecap="round" stroke-miterlimit="10" stroke-width="10.94"/><ellipse cx="171.43" cy="794.15" rx="45.97" ry="36.12" transform="rotate(-88.25 171.47 794.173)" fill="none" stroke="#fff" stroke-linecap="round" stroke-miterlimit="10" stroke-width="10.94"/><ellipse cx="171.68" cy="793.98" rx="28.62" ry="22.49" transform="rotate(-88.25 171.726 794.012)" fill="#fff"/><path d="M228.32 800.47c3.63.11 3.12 16.72 6.74 16.83s4.13-16.5 7.75-16.39 3.11 16.72 6.73 16.83 4.13-16.5 7.75-16.39 3.12 16.72 6.74 16.83 4.13-16.5 7.75-16.39 3.12 16.72 6.74 16.83 4.14-16.5 7.76-16.39" fill="none" stroke="#fff" stroke-linecap="round" stroke-linejoin="round" stroke-width="1.33"/><rect x="231.75" y="821.86" width="15.17" height="15.17" rx="2.46" transform="rotate(1.75 238.577 827.11)" fill="#fff"/><rect x="219.6" y="833.76" width="15.17" height="15.17" rx="2.46" transform="rotate(1.75 226.643 839.081)" fill="#fff"/><rect x="254.74" y="822.56" width="15.17" height="15.17" rx="2.46" transform="rotate(1.75 261.508 827.743)" fill="#fff"/><rect x="242.59" y="834.46" width="15.17" height="15.17" rx="2.46" transform="rotate(1.75 249.575 839.713)" fill="#fff"/><path d="M286.73 823.3l-6-.18a2.46 2.46 0 00-2.53 2.38l-.32 10.25a2.47 2.47 0 002.39 2.53l8.42.26c-.17-1.95-1.77-12.07-1.96-15.24z" fill="#fff"/><rect x="265.86" y="835.17" width="15.17" height="15.17" rx="2.46" transform="rotate(1.75 272.834 840.34)" fill="#fff"/><path d="M151.74 865.28s47.27-5.65 62.87 34.5c16.5 42.45-3.23 94.12-12.12 104.75s-40 10.73-40 10.73M151.29 880.14s34.89-6.87 46.8 25.21" fill="none" stroke="#fff" stroke-linecap="round" stroke-miterlimit="10" stroke-width="9.7"/><path d="M196.1 970.7s-3.1 20.71-13.1 24.87-27.44 5.6-27.44 5.6" fill="none" stroke="#fff" stroke-linecap="round" stroke-miterlimit="10" stroke-width="9.7"/><path d="M286.29 1089.46c-27-8.22-47.2-54-52-78.06-3.26-16.42-.89-30.68 1.87-47.19a318.87 318.87 0 004.45-35.63c2.12-37-39.91-75.34-41.7-77a4.85 4.85 0 10-6.49 7.2c.4.36 40.36 36.83 38.51 69.19a304.91 304.91 0 01-4.34 34.6c-2.91 17.44-5.42 32.51-1.81 50.67 4.9 24.65 26.35 77.07 60.13 85.87.6-3.11.73-6.47 1.38-9.65z" fill="#fff"/><path d="M285.63 1078.57a2.13 2.13 0 01-.91-.24c-1-.56-2.06-1.12-3.06-1.7a2.08 2.08 0 012.08-3.6c.95.56 1.93 1.1 2.93 1.63a2.08 2.08 0 01-1 3.91zm-7.71-4.57a2 2 0 01-1.08-.35c-1.18-.78-2.35-1.59-3.49-2.42a2.08 2.08 0 012.45-3.36c1.08.79 2.2 1.57 3.33 2.32a2.08 2.08 0 01-1.21 3.81zm-7.77-5.78a2.07 2.07 0 01-1.27-.48c-1.09-.91-2.16-1.85-3.19-2.81a2.08 2.08 0 112.82-3c1 .91 2 1.81 3 2.67a2.08 2.08 0 01-1.4 3.67zm-7-6.63a2.08 2.08 0 01-1.45-.66c-1-1-1.93-2.11-2.83-3.18a2.08 2.08 0 113.17-2.68c.86 1 1.77 2 2.69 3a2.08 2.08 0 01-1.58 3.5zm-6.18-7.46a2.07 2.07 0 01-1.61-.85c-.84-1.15-1.65-2.33-2.42-3.52a2.07 2.07 0 113.48-2.26c.73 1.13 1.51 2.25 2.3 3.33a2.08 2.08 0 01-.46 2.9 2.12 2.12 0 01-1.34.4zm-5.2-8.17a2.07 2.07 0 01-1.76-1.07c-.68-1.24-1.34-2.51-2-3.78a2.08 2.08 0 113.73-1.82c.59 1.21 1.22 2.41 1.87 3.59a2.08 2.08 0 01-1.88 3.08zm-4.18-8.74a2.08 2.08 0 01-1.86-1.29c-.53-1.31-1-2.65-1.51-4a2.08 2.08 0 113.92-1.38c.45 1.27.93 2.55 1.44 3.79a2.08 2.08 0 01-1.14 2.71 2.12 2.12 0 01-.9.17zm-3.15-9.16a2.08 2.08 0 01-1.93-1.51c-.39-1.35-.75-2.73-1.08-4.11a2.08 2.08 0 014.05-1q.47 2 1 3.93A2.07 2.07 0 01245 1028a2 2 0 01-.61.06zm-2.18-9.45a2.08 2.08 0 01-2-1.71c-.25-1.4-.47-2.79-.66-4.18a2.07 2.07 0 114.11-.57c.19 1.33.4 2.67.64 4a2.08 2.08 0 01-1.68 2.41 1.56 1.56 0 01-.46.05zm-1.28-9.61a2.07 2.07 0 01-2-1.89c-.13-1.42-.22-2.82-.3-4.22a2.08 2.08 0 012-2.18 2.06 2.06 0 012.18 2c.07 1.35.17 2.71.29 4.07a2.08 2.08 0 01-1.89 2.26zm-.46-9.68a2.07 2.07 0 01-2-2.06v-4.22a2.08 2.08 0 014.16.09c0 1.35-.05 2.71 0 4.1a2.08 2.08 0 01-2.06 2.09zm.28-9.69h-.07a2.08 2.08 0 01-1.94-2.2c.09-1.44.2-2.84.33-4.21a2.08 2.08 0 014.14.39c-.13 1.33-.23 2.69-.32 4.08a2.09 2.09 0 01-2.19 1.94zm.95-9.66h-.21a2.08 2.08 0 01-1.79-2.33c.19-1.44.39-2.84.61-4.17a2.08 2.08 0 114.1.65c-.21 1.3-.41 2.66-.59 4.06a2.07 2.07 0 01-2.17 1.82zm1.58-9.56h-.35a2.08 2.08 0 01-1.63-2.44c.29-1.48.59-2.86.88-4.13a2.08 2.08 0 014 .92c-.28 1.24-.57 2.58-.86 4a2.08 2.08 0 01-2.09 1.65zm2.2-9.45a2 2 0 01-.48-.07 2.08 2.08 0 01-1.46-2.55c.71-2.6 1.21-4.06 1.23-4.12a2.08 2.08 0 013.93 1.35s-.48 1.41-1.15 3.86a2.08 2.08 0 01-2.12 1.57z" fill="none" stroke="#fff" stroke-miterlimit="10" stroke-width="1.39"/><path d="M250.4 972.35s-14.5 52.08 35.63 93.25M260.82 986.07l-2.26 46.14M270.23 1006.11l-2.85 40.19M280.59 1018.14L277 1057.4" fill="none" stroke="#fff" stroke-linecap="round" stroke-linejoin="round" stroke-width="1.39"/><path d="M288.81 858.07l-12.81-.39s5.32 29.59 13 29.82a3.16 3.16 0 001.55-.37c-.24-9.71-1.61-19.35-1.74-29.06zM242.16 856.65l24.16.73s-3.42 29.33-11.14 29.09-13.02-29.82-13.02-29.82z" fill="#fff"/><path d="M214.63 855.81l34 1s-3.43 29.33-11.14 29.1c-5.16-.13-22.86-30.1-22.86-30.1zM258.26 857.14l24.17.73S279 887.2 271.29 887s-13.03-29.86-13.03-29.86zM293.66 992.51c-7.66-6.74-16.84-19.51-23.36-36.25-8.69-22.36-11.81-43.26-11.3-51.64 8.24 1.74 20.39 3.4 31.45 4.73-.45-5.14-.81-10.29-.85-15.45-12.05-1.48-24.73-3.3-31.17-5.07-4.8-1.32-10.76.56-13.27 7.71-4.12 11.74 1.51 38.61 8.48 58.61 5.88 16.87 21.51 47.26 41.44 56.21z" fill="#fff"/><path d="M291.36 948.94a10.86 10.86 0 00-3.34-.62 11.08 11.08 0 103.34 21.51z" fill="#fff"/><rect x="277.55" y="914.43" width="13.99" height="27.33" rx="2.77" transform="rotate(1.75 283.96 925.636)" fill="#fff"/><rect x="259.83" y="913.89" width="13.99" height="27.33" rx="2.77" transform="rotate(1.75 266.267 924.924)" fill="#fff"/><path fill="none" stroke="#fff" stroke-linecap="round" stroke-miterlimit="10" stroke-width="6.93" d="M165.24 913.63l32.57.99M163.76 962.21l32.57.99M193.89 914.51l-1.45 47.38M184.67 914.22l-1.45 47.39M175.39 913.94l-1.44 47.38"/><path d="M169 1151.93l24.17.74S189.7 1182 182 1181.76s-13-29.83-13-29.83z" fill="#fff"/><path d="M188.34 1152.52l24.17.74s-3.43 29.33-11.14 29.09-13.03-29.83-13.03-29.83z" fill="#fff"/><path d="M207.72 1153.11l24.17.74s-3.43 29.33-11.14 29.09-13.03-29.83-13.03-29.83z" fill="#fff"/><path d="M227.16 1153.71l24.16.73s-3.43 29.33-11.14 29.09-13.02-29.82-13.02-29.82z" fill="#fff"/><path d="M246.54 1154.3l24.16.73s-3.43 29.33-11.14 29.09-13.02-29.82-13.02-29.82z" fill="#fff"/><path d="M273.65 1155.12l-8-.24s2.34 13 6.17 21.85c.31-2.91 1.54-17.31 1.83-21.61z" fill="#fff"/><path d="M272.32 1148.6h-.14l-4.15-.12a2.08 2.08 0 11.12-4.16l4.16.13a2.08 2.08 0 010 4.15zm-9.69-.29h-.14l-4.16-.13a2.08 2.08 0 11.13-4.15l4.15.13a2.08 2.08 0 010 4.15zm-9.69-.3h-.14l-4.16-.12a2.08 2.08 0 01.13-4.16l4.15.13a2.08 2.08 0 010 4.15zm-9.69-.29h-.14l-4.16-.13a2.08 2.08 0 01.13-4.15l4.15.13a2.08 2.08 0 010 4.15zm-9.69-.3h-.14l-4.16-.12a2.08 2.08 0 01.13-4.16l4.15.13a2.08 2.08 0 010 4.15zm-9.69-.29h-.15l-4.15-.13a2.08 2.08 0 11.13-4.15l4.15.12a2.08 2.08 0 010 4.16zm-9.69-.3H214l-4.15-.12a2.08 2.08 0 01.13-4.16l4.15.13a2.08 2.08 0 010 4.15zm-9.69-.29h-.15l-4.15-.13a2.08 2.08 0 11.13-4.15l4.15.12a2.08 2.08 0 010 4.16zm-9.7-.3h-.14l-4.15-.12a2.08 2.08 0 11.12-4.16l4.16.13a2.08 2.08 0 010 4.15zm-9.69-.29h-.1l-4.15-.13a2.08 2.08 0 11.12-4.15l4.16.12a2.08 2.08 0 010 4.16zm-9.69-.3h-.14l-4.15-.13a2.08 2.08 0 11.12-4.15l4.16.13a2.08 2.08 0 010 4.15zm-9.69-.29h-.14l-4.15-.13a2.08 2.08 0 11.12-4.15l4.15.12a2.08 2.08 0 010 4.16z" fill="none" stroke="#fff" stroke-linecap="round" stroke-linejoin="round" stroke-width="1.75"/><rect x="184.95" y="1023.1" width="17.77" height="17.77" rx="2.88" transform="rotate(1.75 193.2 1029.189)" fill="#fff"/><rect x="170.72" y="1037.04" width="17.77" height="17.77" rx="2.88" transform="rotate(1.75 179.005 1043.159)" fill="#fff"/><rect x="212.38" y="1023.94" width="17.77" height="17.77" rx="2.88" transform="rotate(1.75 220.72 1030.078)" fill="#fff"/><rect x="158.05" y="1022.28" width="17.77" height="17.77" rx="2.88" transform="rotate(1.75 166.662 1028.284)" fill="#fff"/><rect x="198.15" y="1037.88" width="17.77" height="17.77" rx="2.88" transform="rotate(1.75 206.52 1043.72)" fill="#fff"/><rect x="184.04" y="1053.04" width="17.77" height="17.77" rx="2.88" transform="rotate(1.75 192.345 1059)" fill="#fff"/><rect x="169.81" y="1066.98" width="17.77" height="17.77" rx="2.88" transform="rotate(1.75 178.15 1072.97)" fill="#fff"/><rect x="211.46" y="1053.88" width="17.77" height="17.77" rx="2.88" transform="rotate(1.75 219.865 1059.89)" fill="#fff"/><rect x="157.13" y="1052.22" width="17.77" height="17.77" rx="2.88" transform="rotate(1.75 165.48 1058.1)" fill="#fff"/><rect x="197.23" y="1067.81" width="17.77" height="17.77" rx="2.88" transform="rotate(1.75 205.67 1073.86)" fill="#fff"/><rect x="225.33" y="1068.67" width="17.77" height="17.77" rx="2.88" transform="rotate(1.75 233.517 1074.744)" fill="#fff"/><rect x="183.19" y="1080.79" width="17.77" height="17.77" rx="2.88" transform="rotate(1.75 191.46 1086.847)" fill="#fff"/><rect x="168.96" y="1094.73" width="17.77" height="17.77" rx="2.88" transform="rotate(1.75 177.26 1100.49)" fill="#fff"/><rect x="210.62" y="1081.63" width="17.77" height="17.77" rx="2.88" transform="rotate(1.75 218.975 1087.41)" fill="#fff"/><rect x="238.25" y="1082.47" width="17.77" height="17.77" rx="2.88" transform="rotate(1.75 246.495 1088.299)" fill="#fff"/><rect x="156.29" y="1079.97" width="17.77" height="17.77" rx="2.88" transform="rotate(1.75 164.923 1085.943)" fill="#fff"/><rect x="196.39" y="1095.57" width="17.77" height="17.77" rx="2.88" transform="rotate(1.75 204.78 1101.38)" fill="#fff"/><rect x="224.1" y="1096.41" width="17.77" height="17.77" rx="2.88" transform="rotate(1.75 232.3 1102.269)" fill="#fff"/><rect x="251.52" y="1097.25" width="17.77" height="17.77" rx="2.88" transform="rotate(1.75 259.82 1103.158)" fill="#fff"/><path d="M678 1126.1l121.51-19-2.09-13.44-121.87 19a112.78 112.78 0 012.45 13.44z" fill="#fff"/><ellipse cx="746.39" cy="768.16" rx="53.04" ry="67.16" transform="rotate(-8.87 746.542 768.31)" fill="none" stroke="#fff" stroke-linecap="round" stroke-miterlimit="10" stroke-width="11.13"/><ellipse cx="746.97" cy="767.25" rx="36.85" ry="46.66" transform="rotate(-8.87 747.133 767.383)" fill="none" stroke="#fff" stroke-linecap="round" stroke-miterlimit="10" stroke-width="11.13"/><ellipse cx="746.69" cy="767.11" rx="22.95" ry="29.05" transform="rotate(-8.87 746.82 767.23)" fill="#fff"/><path d="M692.74 797.69c-3.11.44-5.5-16.19-8.6-15.74s-.71 17.07-3.82 17.52-5.49-16.18-8.59-15.74-.72 17.08-3.82 17.52-5.49-16.18-8.6-15.73-.71 17.07-3.82 17.52-5.49-16.19-8.6-15.74-.72 17.08-3.83 17.52" fill="none" stroke="#fff" stroke-linecap="round" stroke-linejoin="round" stroke-width="1.4"/><rect x="675.17" y="803.85" width="15.34" height="15.34" rx="2.48" transform="rotate(171.13 682.844 811.507)" fill="#fff"/><rect x="688.85" y="814.26" width="15.34" height="15.34" rx="2.48" transform="rotate(171.13 696.528 821.92)" fill="#fff"/><rect x="652.2" y="807.44" width="15.34" height="15.34" rx="2.48" transform="rotate(171.13 659.875 815.093)" fill="#fff"/><rect x="665.88" y="817.85" width="15.34" height="15.34" rx="2.48" transform="rotate(171.13 673.554 825.505)" fill="#fff"/><path d="M658.67 833.09l-1.6-10.25a2.49 2.49 0 00-2.84-2.07l-9.4 1.47a104.16 104.16 0 002 15.21l9.77-1.53a2.49 2.49 0 002.07-2.83z" fill="#fff"/><path d="M775.2 836.49s-48.13.25-58.74 42.48c-11.23 44.66 15 94 25.29 103.56s41.43 5.76 41.43 5.76M777.51 851.33s-35.86-2.51-43.78 31.16" fill="none" stroke="#fff" stroke-linecap="round" stroke-miterlimit="10" stroke-width="9.8"/><path d="M743.92 947.79s5.69 20.4 16.3 23.3 28.22 2.19 28.22 2.19" fill="none" stroke="#fff" stroke-linecap="round" stroke-miterlimit="10" stroke-width="9.8"/><path d="M733.05 828.2a4.9 4.9 0 00-6.91.51c-1.59 1.84-38.95 45.55-32.18 82.42a323.12 323.12 0 008.93 35.19c4.84 16.21 9 30.21 7.8 47.1-1.79 24.91-16.52 73.93-43 85.07a88.48 88.48 0 012.21 9.64c13.61-5.09 25.67-18 35.2-37.92 9.8-20.46 14.37-43 15.31-56.09 1.35-18.67-3.06-33.47-8.17-50.6a309.85 309.85 0 01-8.69-34.16c-5.92-32.24 29.6-73.83 30-74.24a4.92 4.92 0 00-.5-6.92z" fill="#fff"/><path d="M667.64 1067.23a2.1 2.1 0 01-1.53-3.79c.93-.66 1.84-1.32 2.73-2a2.1 2.1 0 112.54 3.35c-.93.7-1.88 1.4-2.86 2.09a2 2 0 01-.88.35zm7.16-5.55a2.1 2.1 0 01-1.69-3.67c1-.89 2.06-1.81 3-2.74a2.1 2.1 0 112.88 3.06c-1 1-2.11 1.94-3.2 2.87a2.15 2.15 0 01-.99.48zm7.07-6.77a2.08 2.08 0 01-1.76-.54 2.1 2.1 0 01-.1-3c.93-1 1.84-2 2.71-3.06a2.1 2.1 0 013.22 2.71c-.92 1.09-1.88 2.17-2.86 3.22a2.06 2.06 0 01-1.21.67zm6.24-7.54a2.1 2.1 0 01-2-3.31c.8-1.11 1.58-2.24 2.32-3.37a2.1 2.1 0 013.52 2.29c-.78 1.19-1.6 2.39-2.45 3.55a2.07 2.07 0 01-1.39.84zm5.26-8.25a2.13 2.13 0 01-1.34-.24 2.11 2.11 0 01-.82-2.86c.66-1.18 1.29-2.4 1.88-3.62a2.1 2.1 0 113.78 1.83c-.62 1.29-1.29 2.57-2 3.83a2.12 2.12 0 01-1.5 1.06zm4.2-8.85a2 2 0 01-1.11-.13 2.11 2.11 0 01-1.17-2.73c.51-1.26 1-2.55 1.43-3.83a2.1 2.1 0 114 1.36c-.46 1.35-1 2.71-1.5 4a2.08 2.08 0 01-1.65 1.33zm3.09-9.29a2.15 2.15 0 01-.87-.05 2.1 2.1 0 01-1.48-2.57c.35-1.31.68-2.65 1-4a2.1 2.1 0 014.1.9c-.3 1.39-.65 2.8-1 4.18a2.14 2.14 0 01-1.75 1.56zm2-9.59a2.29 2.29 0 01-.64 0 2.11 2.11 0 01-1.76-2.39c.21-1.37.39-2.72.54-4.08a2.1 2.1 0 114.17.46c-.15 1.42-.34 2.85-.56 4.25a2.1 2.1 0 01-1.74 1.76zm1-9.75a2 2 0 01-.43 0 2.11 2.11 0 01-2-2.21c.07-1.38.12-2.76.14-4.12a2.1 2.1 0 114.2.06c0 1.42-.07 2.84-.14 4.28a2.11 2.11 0 01-1.76 1.99zm.08-9.8a1.9 1.9 0 01-.25 0 2.1 2.1 0 01-2.17-2c-.06-1.38-.13-2.76-.23-4.12a2.1 2.1 0 014.19-.3c.1 1.41.18 2.83.23 4.27a2.09 2.09 0 01-1.76 2.15zm-.75-9.77h-.08a2.09 2.09 0 01-2.33-1.84c-.16-1.39-.35-2.76-.55-4.1a2.1 2.1 0 114.16-.62c.2 1.39.39 2.8.56 4.23a2.1 2.1 0 01-1.75 2.33zm-1.5-9.69a2.09 2.09 0 01-2.38-1.68 180.5 180.5 0 00-.84-4.06 2.1 2.1 0 114.1-.9c.3 1.35.59 2.75.86 4.17a2.1 2.1 0 01-1.67 2.46zm-2.16-9.56a2.1 2.1 0 01-2.35-1.55c-.36-1.38-.73-2.71-1.1-4a2.1 2.1 0 114-1.17c.38 1.31.76 2.68 1.13 4.1a2.08 2.08 0 01-1.5 2.56zm-2.78-9.4a2.1 2.1 0 01-2.31-1.42c-.47-1.4-.93-2.71-1.36-3.91a2.1 2.1 0 014-1.44c.44 1.24.91 2.59 1.39 4a2.1 2.1 0 01-1.33 2.66zm-3.4-9.2a2.09 2.09 0 01-2.25-1.22c-1-2.38-1.64-3.73-1.64-3.74a2.1 2.1 0 113.77-1.84c0 .06.71 1.46 1.75 4a2.12 2.12 0 01-1.14 2.75 2.85 2.85 0 01-.48.05z" fill="none" stroke="#fff" stroke-miterlimit="10" stroke-width="1.4"/><path d="M689.66 956.26s21.07 50.43-24 98M680.92 971.33l8.06 46M674 992.61l7.9 39.96M665.12 1005.98l8.52 38.93" fill="none" stroke="#fff" stroke-linecap="round" stroke-linejoin="round" stroke-width="1.4"/><path d="M683.41 839.16l-24.14 3.77s7.11 29 14.82 27.79 9.32-31.56 9.32-31.56z" fill="#fff"/><path d="M710.93 834.86l-34 5.31s7.12 29 14.82 27.79c5.17-.81 19.18-33.1 19.18-33.1zM645.81 845c0 3.72.35 7.44.58 11.15 2.79 8.12 7.1 17.75 11.61 17.05 7.7-1.21 9.32-31.56 9.32-31.56zM685.39 879.56c-3.42-6.86-9.63-8-14.28-6.07s-12.75 4.31-21.5 6.63c.17 5.23.66 10.45.93 15.68 8.13-2.13 16.1-4.38 22-6.4 1.58 8.32 1.07 29.69-4.84 53.22-2.88 11.45-6.49 21.21-10.56 28.78a1 1 0 01.16.5c.19 7.46 1.56 14.82 2.24 22.23 14.14-14 21.44-39.42 24.71-54.72 4.47-20.93 6.75-48.59 1.14-59.85z" fill="#fff"/><path d="M661.7 946.21a11.19 11.19 0 00-7.34-8.84c0 3.2 1 16.92 1.26 20.6a11.21 11.21 0 006.08-11.76zM658.54 925.94l-3.4-21.77a2.81 2.81 0 00-3.2-2.33l-.83.13a132.22 132.22 0 003 27.49l2.06-.33a2.8 2.8 0 002.37-3.19z" fill="#fff"/><rect x="660.49" y="899.57" width="14.15" height="27.62" rx="2.8" transform="rotate(171.9 669.007 911.171)" fill="#fff"/><path fill="none" stroke="#fff" stroke-linecap="round" stroke-miterlimit="10" stroke-width="7" d="M749.36 889.54l-14.19 2.22M756.93 938.09l-14.18 2.21M775.26 885.5l-14.18 2.22M782.83 934.05l-14.18 2.21"/><path d="M793.87 1126.19l-24.14 3.81s7.11 29 14.82 27.79 9.32-31.6 9.32-31.6z" fill="#fff"/><path d="M774.51 1129.22l-24.15 3.78s7.12 29 14.82 27.79 9.33-31.57 9.33-31.57z" fill="#fff"/><path d="M755.14 1132.24L731 1136s7.12 29 14.82 27.78 9.32-31.54 9.32-31.54z" fill="#fff"/><path d="M735.72 1135.27l-24.15 3.73s7.12 29 14.82 27.79 9.33-31.52 9.33-31.52z" fill="#fff"/><path d="M716.35 1138.29l-24.15 3.77s7.12 29 14.83 27.79 9.32-31.56 9.32-31.56z" fill="#fff"/><path d="M681.24 1143.77a234.92 234.92 0 001.72 28.08c1 .76 4 1.13 5 1 7.71-1.2 9.33-31.55 9.33-31.55z" fill="#fff"/><path d="M679.58 1133.16l4.15-.65a2.1 2.1 0 01.65 4.15l-4.15.65h-.14m9.68-1.51a2.1 2.1 0 01-.5-4.17l4.15-.65a2.1 2.1 0 11.65 4.15l-4.15.65zm9.68-1.51a2.1 2.1 0 01-.5-4.17l4.15-.65a2.1 2.1 0 01.65 4.15l-4.15.65zm9.69-1.52a2.1 2.1 0 01-.5-4.16l4.15-.65a2.1 2.1 0 11.64 4.15l-4.15.65zm9.68-1.51a2.1 2.1 0 01-.5-4.17l4.15-.64a2.1 2.1 0 01.65 4.15l-4.15.65zm9.69-1.51a2.1 2.1 0 01-.51-4.17l4.15-.65a2.11 2.11 0 01.65 4.16l-4.15.64zm9.68-1.51a2.1 2.1 0 01-.5-4.17l4.15-.65a2.1 2.1 0 01.65 4.15l-4.15.65zm9.69-1.51a2.1 2.1 0 01-.51-4.17l4.15-.65a2.1 2.1 0 01.65 4.15l-4.15.65zm9.68-1.51a2.1 2.1 0 01-.5-4.17l4.15-.65a2.1 2.1 0 01.65 4.15l-4.15.65zm9.68-1.52a2.1 2.1 0 01-.5-4.16l4.15-.65a2.1 2.1 0 01.65 4.15l-4.15.65zm9.69-1.51a2.1 2.1 0 01-.5-4.16l4.15-.65a2.1 2.1 0 01.65 4.15l-4.16.65zm9.68-1.51a2.1 2.1 0 01-.5-4.17l4.15-.64a2.1 2.1 0 01.65 4.15l-4.15.64zm9.69-1.51a2.1 2.1 0 01-.5-4.17l4.15-.65a2.14 2.14 0 012.4 1.76 2.11 2.11 0 01-1.76 2.4l-4.15.64z" fill="none" stroke="#fff" stroke-linecap="round" stroke-linejoin="round" stroke-width="1.77"/><rect x="744.9" y="1000.01" width="17.96" height="17.96" rx="2.91" transform="rotate(171.13 753.894 1008.981)" fill="#fff"/><rect x="760.92" y="1012.21" width="17.96" height="17.96" rx="2.91" transform="rotate(171.13 769.915 1021.174)" fill="#fff"/><rect x="717.5" y="1004.29" width="17.96" height="17.96" rx="2.91" transform="rotate(171.13 726.49 1013.259)" fill="#fff"/><rect x="771.79" y="995.81" width="17.96" height="17.96" rx="2.91" transform="rotate(171.13 780.778 1004.784)" fill="#fff"/><rect x="733.52" y="1016.48" width="17.96" height="17.96" rx="2.91" transform="rotate(171.13 742.511 1025.452)" fill="#fff"/><rect x="749.57" y="1029.93" width="17.96" height="17.96" rx="2.91" transform="rotate(171.9 760.196 1036.397)" fill="#fff"/><rect x="765.59" y="1042.12" width="17.96" height="17.96" rx="2.91" transform="rotate(171.13 774.586 1051.088)" fill="#fff"/><rect x="722.16" y="1034.2" width="17.96" height="17.96" rx="2.91" transform="rotate(171.13 731.157 1043.172)" fill="#fff"/><rect x="776.46" y="1025.73" width="17.96" height="17.96" rx="2.91" transform="rotate(171.13 785.45 1034.698)" fill="#fff"/><rect x="738.19" y="1046.4" width="17.96" height="17.96" rx="2.91" transform="rotate(171.13 747.183 1055.366)" fill="#fff"/><rect x="710.11" y="1050.78" width="17.96" height="17.96" rx="2.91" transform="rotate(171.13 719.102 1059.752)" fill="#fff"/><rect x="753.9" y="1057.66" width="17.96" height="17.96" rx="2.91" transform="rotate(171.13 762.893 1066.63)" fill="#fff"/><rect x="769.92" y="1069.86" width="17.96" height="17.96" rx="2.91" transform="rotate(171.13 778.914 1078.823)" fill="#fff"/><rect x="726.49" y="1061.94" width="17.96" height="17.96" rx="2.91" transform="rotate(171.13 735.49 1070.907)" fill="#fff"/><rect x="698.88" y="1066.25" width="17.96" height="17.96" rx="2.91" transform="rotate(171.13 707.877 1075.22)" fill="#fff"/><rect x="780.78" y="1053.46" width="17.96" height="17.96" rx="2.91" transform="rotate(171.13 789.778 1062.432)" fill="#fff"/><rect x="742.52" y="1074.13" width="17.96" height="17.96" rx="2.91" transform="rotate(171.13 751.51 1083.1)" fill="#fff"/><rect x="714.82" y="1078.46" width="17.96" height="17.96" rx="2.91" transform="rotate(171.13 723.816 1087.426)" fill="#fff"/><rect x="687.42" y="1082.73" width="17.96" height="17.96" rx="2.91" transform="rotate(171.9 698.209 1089.297)" fill="#fff"/><path fill="none" stroke="#fff" stroke-linecap="round" stroke-miterlimit="10" stroke-width="7" d="M742.27 890.65l33.47 44.5M768.17 886.61l-18.33 52.58"/><path fill="#fff" d="M664.03 1060.62l-368.59 14.39.3-14.31 367.4-13.68.89 13.6z"/><path fill="none" stroke="#fff" stroke-linecap="round" stroke-linejoin="round" stroke-width="1.47" d="M296.45 1051.86l366.17-13.9M291.05 1114.15c175.36.4 372.24-13.86 372.24-13.86M284.7 1121.49c208.72 9.8 383.46-14.27 383.46-14.27M570.54 548.91C564.75 609.66 466 667.44 453 667.93M561.68 547.31c-10.34 55.13-81.54 100.49-104 108.51M327.23 558c10.29 60.14 113 110.43 126 109.95M335.94 555.71c14.45 54.36 89.22 94.39 111.94 100.53"/><path d="M447 658.46a5.68 5.68 0 015.47-4.83c3.45-.13 6.18 3.21 6.18 3.21M461.22 654.38s-9.67 9.51 4 8.89M471.6 649.31s-9.44 9.11 4.25 8.48M482.27 643s-8.9 8.55 4.78 7.92M494.71 634.7s-8.1 11.63 5.87 6.86M507.17 625.43s-8.1 11.63 5.87 6.86M518.82 615.22s-8.1 11.63 5.87 6.87M529.17 605s-7.09 11 6.88 6.28M539 593.69s-7.1 11 6.87 6.29M547.19 582.09s-4.94 11.48 8.38 5.23M554.65 568.6s-3.84 14.85 9.15 4.08M560.5 552.58s0 16.46 8.83 3.52M444 655s10.35 8.78-3.34 9.17M433.31 650.74s10.08 8.38-3.61 8.77M422.19 645.28s9.52 7.86-4.17 8.25M409.17 637.88s8.94 11-5.34 7.28M396.05 629.56s8.95 11-5.34 7.28M383.68 620.25s8.94 11-5.34 7.28M372.59 610.78s7.9 10.5-6.39 6.79M362 600.28s7.9 10.49-6.38 6.78M352.93 589.32s5.77 11.08-8 5.84M344.48 576.42s4.94 14.53-8.82 4.75M337.45 560.88s1.19 16.42-8.53 4.17" fill="none" stroke="#fff" stroke-linecap="round" stroke-miterlimit="10" stroke-width="1.47"/><path fill="none" stroke="#fff" stroke-linecap="round" stroke-linejoin="round" stroke-width="1.47" d="M447.72 660.21l7.25 3.98M457.88 659.83l-6.93 4.51"/><path d="M273.76 1170.19s199.4 13.47 405.45-12.29" fill="none" stroke="#fff" stroke-linejoin="round" stroke-width="16"/></g><path d="M756.73 1043c-3.83-55.87-18.1-124.58-18.1-124.58s-23.87-307-62.17-332c-10.88-7.1-142.29-56.21-142.29-56.21s-2.49 55-82.84 55c-65.08 0-82.1-39.23-86.21-51.38a10.79 10.79 0 01-.75-2.59c-1 .65-100.94 62.69-145.44 89.5C174.2 647.71 187.75 945 187.75 945a721.68 721.68 0 00-1.6 128.12c5.53 68.42-.88 179.2 15.45 197.94l62.46-1.5s-5.6-14.35-4.65-27c2.27-30.22 5.53-104.27 15.36-135.22s21.45-88.31 21.45-88.33c.49 23.68.3 42.23-1 50.33-3.6 21.92-31.66 102.78-17.78 133.07-3.34 29.28-2.63 35-2.63 35s71 13.9 148 13c137.52-1.66 259.58-24.63 259.58-24.63s-2-22.13-3.08-27.82c4.69-10.68-8.58-94-15.53-142.16 17.07 47.16 37.86 125.83 40.07 161.53 1.64 26.39 2.89 34.36 2.89 34.36h61.1s4.48-6.67 5.3-18.89-10.83-108.52-16.41-189.8z" fill="none" stroke="#262521" stroke-linecap="round" stroke-linejoin="round" stroke-width="3"/><path d="M274.77 1238.06s71 13.89 148 13c137.52-1.66 259.57-24.64 259.57-24.64" fill="none" stroke="#636363" stroke-linecap="round" stroke-linejoin="round"/></svg>