<svg xmlns="http://www.w3.org/2000/svg" width="1000" height="1550" viewBox="0 0 1000 1550"><path d="M280.89 1256.3l395.11-9.17 19 226c-67.24 12.37-132.35 17.18-189.73 18-121.13 1.8-207.85-14.13-207.85-14.13z" fill="#262521" stroke="#262521" stroke-linecap="round" stroke-linejoin="round" stroke-width="3"/><path d="M752.23 1043c-3.83-55.87-22.88-124.63-22.88-124.63s-14.59-306.95-52.89-331.94c-10.88-7.1-142.29-56.21-142.29-56.21s-2.49 55-82.84 55c-65.08 0-82.1-39.23-86.21-51.38a10.79 10.79 0 01-.75-2.59c-1 .65-100.94 62.69-145.44 89.5C174.2 647.71 192.25 945 192.25 945a619.79 619.79 0 00-3.6 128.12c5.53 68.42 9 178.57 13.95 197.94l55-1.5s.9-14.35 1.85-27c2.27-30.22 5.53-104.27 15.36-135.22s21.45-88.31 21.45-88.33c.49 23.68.3 42.23-1 50.33-3.6 21.92-31.66 102.78-17.78 133.07-3.34 29.28-5.68 57.36-5.68 57.36s84.4 31 161.4 30.11c137.52-1.65 250.64-41.78 250.64-41.78s-1.48-25.34-4.52-50.16c9.94-22.62-4.2-83.52-17.92-143 17.07 47.16 40.25 126.63 42.46 162.33 1.64 26.39 4.39 34.36 4.39 34.36h53.6s1.18-12.46 2-24.68-6.04-102.67-11.62-183.95z" fill="#262521" stroke="#262521" stroke-linecap="round" stroke-linejoin="round" stroke-width="3"/><path d="M271.73 1259.8s84.4 31 161.4 30.11c137.52-1.65 250.64-41.78 250.64-41.78" fill="none" stroke="#636363" stroke-linecap="round" stroke-linejoin="round"/><path fill="none" stroke="#fff" stroke-miterlimit="10" stroke-width="5.34" d="M404.67 630.52l109.03-4.78M405.94 659.53l109.03-4.78M407.21 688.54l109.03-4.78M408.49 717.55l109.03-4.78M409.76 746.56l109.03-4.78M411.03 775.57l109.03-4.78M412.3 804.58l109.03-4.78M413.58 833.59l109.03-4.79M414.85 862.6l109.03-4.79M416.24 894.33l109.03-4.78M417.51 923.34l109.03-4.78M418.79 952.35l109.03-4.78M420.06 981.36l109.03-4.78M421.33 1010.37l109.03-4.78M422.6 1039.38l109.03-4.78M423.88 1068.39l109.03-4.78M425.15 1097.4l109.03-4.78M426.42 1126.41l109.03-4.78M427.69 1155.42l109.03-4.78M428.97 1184.43l109.03-4.78M430.24 1213.44l109.03-4.78"/><path d="M287.69 1428.1c6.32-10.21-12.42-16.36-12.42-16.36 1.76-.87 2.44-2.18 3.19-4.62 11.34-.8 2.83-11.58 2.68-11.71-.34-15.32-4.85-34.71-4.85-34.71 7.53-54.83-6.15-68.46-13.2-83.66-.7-1.52-1-8.37-1.36-10.43l1.55-34.27c-16-14.2-68.12 6.43-68.12 6.43s1.46 8.91 3 19.13c.28 1.86-3.2 4.52-2.93 6.43.37 2.61 4.48 4.47 4.81 7 .77 6 1.35 11.27 1.41 14.14-3.72 22.85-6.45 82.43 1.66 96.35 4.82 5.19 27.56 42 27.56 42s46 34.47 54.47 17.1l.12.14c12.74-8.97 2.43-12.96 2.43-12.96zm-36.05-68.2s1.47 22.12 1.89 24.2L241 1367.37zm-3.14 42.85l-.93-4.39s9.81 2.3 11.2 3.09l2.18 6.06z" fill="#34b1e8"/><path d="M243.25 1346.24s7.35 6.87 8.24 12.56-.45 4.12 1.12 19.33 10.67 39.83 22.16 34.11 1.52-51.54 1.52-51.54c7.65-72.51-13.08-69.67-14.51-90.43-.48-6.87 1.5-37.93 1.5-37.93-12.76-13.7-68.12 6.43-68.12 6.43" fill="none" stroke="#262521" stroke-linecap="round" stroke-linejoin="round" stroke-width="3"/><path d="M251.49 1358.8c-4.1 4.29-9 4.22-11 10.22-1 5 4.21 30.79 8.67 36.89s32.36 25.09 34.36 29.09c2 3 3.85 7.67-1 10-14 6.75-38-14-50-20-2-1-3-3-4-5-8-17-25.45-29-30.49-52.65s3.5-77.34 2.5-83.34c0-2.1-.75-8-1.69-15-.2-1.53-3.42-3.11-3.64-4.7-.28-2 2.44-4.1 2.16-6.13-1.18-8.73-2.24-16.85-2.2-19.43M241.9 1368.52l11.6 15.43M280.83 1393.41s10.06 12.9-1.37 13.71M245.86 1396.76l13.55 5.18M249.53 1404.05l13.82 4.19M276.68 1411.59s17.87 5.29 11.56 15.5M266.65 1420.47s41.61 6.12 19.45 20.51" fill="none" stroke="#262521" stroke-linecap="round" stroke-miterlimit="10" stroke-width="3"/><path d="M703.35 1424.82l.11-.15c10.38 16.28 52.13-23.27 52.13-23.27s18.36-39.15 22.55-44.87c6.45-14.75-3.13-73.63-9.45-95.89-.28-2.85-.32-8.16-.23-14.21 0-2.5 3.9-4.82 4-7.46.05-1.92-3.71-4.17-3.65-6 .32-10.32.74-19.35.74-19.35s-54.15-14.48-68.4 1.47l5.49 33.87c-.15 2.08.37 8.92-.16 10.51-5.24 15.92-19.27 28.82-3.46 84.62 0 0-2.24 19.79-.82 35-.13.15-7.35 11.84 4 11.33 1 2.33 1.86 3.56 3.7 4.22 0 0-17.9 8.27-10.45 17.68-.02-.01-9.81 5.14 3.9 12.5zm35.43-78.21l-10.49 18.06c.17-2.12-.91-24.26-.91-24.26zm-15.16 42.17l1.47-6.28c1.29-.94 10.77-4.36 10.77-4.36l-.43 4.47z" fill="#34b1e8"/><path d="M734.14 1325.87s-6.51 7.67-6.74 13.43.93 4 1.12 19.33-6 40.79-18.08 36.44-7.45-51-7.45-51c-16-71.14 5-70.7 4-91.49-.32-6.88-5.86-37.51-5.86-37.51 11.09-15.08 68.4-1.47 68.4-1.47" fill="none" stroke="#262521" stroke-linecap="round" stroke-linejoin="round" stroke-width="3"/><path d="M727.4 1339.3c4.57 3.79 9.4 3.16 12.08 8.89 1.57 4.85-.64 31.06-4.37 37.64s-29.21 28.67-30.74 32.88c-1.64 3.21-2.94 8 2.15 9.81 14.68 5.09 36.13-18.28 47.36-25.62 1.87-1.23 2.64-3.33 3.4-5.43 6-17.81 21.93-31.75 24.21-55.81s-12.38-76.43-12.08-82.51c-.25-2.09-.19-8.08-.06-15.09 0-1.54 3-3.48 3.08-5.09 0-2-2.9-3.79-2.86-5.84.18-8.8.29-17-.05-19.56M738.05 1347.85l-9.74 16.66M702.24 1377.07s-8.49 14 3 13.45M737.37 1376.36l-12.86 6.7M734.56 1384.02l-13.24 5.76M708.47 1394.64s-17.15 7.32-9.7 16.73M719.45 1402.3s-40.63 10.88-17 22.62" fill="none" stroke="#262521" stroke-linecap="round" stroke-miterlimit="10" stroke-width="3"/></svg>