<svg xmlns="http://www.w3.org/2000/svg" width="1000" height="1550" viewBox="0 0 1000 1550"><path d="M278.47 1248.13s-4.39 99.24 5.35 98.68 110.42-16.78 149-15.66 131.44 8.95 148.22 3.92 111.86 6.71 108.5-.56-8.76-90.41-8.76-90.41z" fill="#262521" stroke="#262521" stroke-linecap="round" stroke-linejoin="round" stroke-width="3"/><path d="M752.23 1043c-3.83-55.87-22.88-124.63-22.88-124.63s-14.59-306.95-52.89-331.94c-10.88-7.1-142.29-56.21-142.29-56.21s-2.49 55-82.84 55c-65.08 0-82.1-39.23-86.21-51.38a10.79 10.79 0 01-.75-2.59c-1 .65-100.94 62.69-145.44 89.5C174.2 647.71 192.25 945 192.25 945a619.79 619.79 0 00-3.6 128.12c5.53 68.42-1.88 179.2 14.45 197.94l61-1.5s-5.6-14.35-4.65-27c2.27-30.22 5.53-104.27 15.36-135.22s21.45-88.31 21.45-88.33c.49 23.68.3 42.23-1 50.33-3.6 21.92-31.66 102.78-17.78 133.07-3.34 29.28-5.7 66.94-5.7 66.94S367.4 1295 444.4 1294c137.52-1.66 240.17-35.54 240.17-35.54s-2.28-35.7-5.32-60.52c9.94-22.62-4.2-83.52-17.92-143 17.07 47.16 40.25 126.63 42.46 162.33 1.64 26.39 2.89 34.36 2.89 34.36h58.1s4.48-6.67 5.3-18.89-12.27-108.46-17.85-189.74z" fill="#262521" stroke="#262521" stroke-linecap="round" stroke-linejoin="round" stroke-width="3"/><path d="M271.71 1269.38S367.4 1295 444.4 1294c137.52-1.66 240.17-35.54 240.17-35.54" fill="none" stroke="#636363" stroke-linecap="round" stroke-linejoin="round"/><path fill="#fff" stroke="#fff" stroke-linecap="round" stroke-linejoin="round" stroke-width="4.36" d="M445.53 682.28l41.17-1.66-31.84 25.95 11.25-39.25 13.81 38.36-34.39-23.4zM445.53 940.04l41.17-1.67-31.84 25.96 11.25-39.25 13.81 38.35-34.39-23.39zM574.01 815.51l41.17-1.66-31.83 25.96 11.25-39.25 13.81 38.35-34.4-23.4zM318.1 815.51l41.17-1.66-31.83 25.96 11.25-39.25 13.81 38.35-34.4-23.4zM333 748.64l41.17-1.66-31.84 25.95 11.25-39.25 13.81 38.36-34.39-23.4zM381.42 706.26l41.17-1.66-31.84 25.95 11.26-39.25 13.8 38.36-34.39-23.4zM601.08 748.64l-41.17-1.66 31.84 25.95-11.25-39.25-13.81 38.36 34.39-23.4zM333 871.86l41.17-1.66-31.84 25.95 11.25-39.25 13.81 38.36-34.39-23.4zM601.08 872.61l-41.17-1.66 31.84 25.95-11.25-39.25L566.69 896l34.39-23.39zM552.66 706.26l-41.17-1.66 31.83 25.95-11.25-39.25-13.81 38.36 34.4-23.4zM374.17 922.83l41.16-1.66-31.83 25.95 11.25-39.25 13.81 38.36-34.39-23.4zM559.91 922.83l-41.17-1.66 31.84 25.95-11.25-39.25-13.81 38.36 34.39-23.4z"/></svg>