<svg xmlns="http://www.w3.org/2000/svg" width="1000" height="1550" viewBox="0 0 1000 1550"><path d="M281.44 1264.52L676 1248.13l21.74 262.23c-209.14 38.46-397.55 3.9-397.55 3.9z" fill="#262521" stroke="#262521" stroke-linecap="round" stroke-linejoin="round" stroke-width="3"/><path d="M296.22 1019s-11.62 57.38-21.45 88.33-13.09 105-15.36 135.22c-1 12.66 4.65 27 4.65 27l-61 1.5c-16.33-18.74-8.92-129.52-14.45-197.94A619.79 619.79 0 01192.25 945s-18.05-297.29 26.68-324.24 148.41-94.52 149.37-91.67c4.12 12.15 19.69 50.63 84.76 52.13C528.4 583 530 529 530 529s135.55 50.34 146.43 57.44c38.3 25 52.89 331.94 52.89 331.94s19 68.76 22.88 124.63c5.58 81.26 18.66 177.57 17.85 189.79s-5.3 18.89-5.3 18.89h-58.1s-1.25-8-2.89-34.36c-2.47-39.8-31-134-48.07-177.22" fill="#fff" stroke="#262521" stroke-linecap="round" stroke-linejoin="round" stroke-width="3"/><path d="M711 1220.48s30.63-3.83 52.36 0M200.27 1238s30.63-3.83 52.37 0M353 546.43s21.5 56.9 100.8 56.9 94.27-62 94.27-62" fill="none" stroke="#636363" stroke-linecap="round" stroke-linejoin="round"/><path d="M678 1225.79s8.68 30.71 5.63 42.4-162.25 157.27-187.48 160.08c-114.8 12.79-211.36-6-212.37-17.52-16.82-192-.38-224.71-.38-224.71z" fill="#fff" stroke="#262521" stroke-linecap="round" stroke-miterlimit="10" stroke-width="3"/><path d="M285.65 807.61s5.34 199.1 3.83 238.13c-.83 21.49-22.35 130.52-10 157.7.05 13 120.18 8.58 120.18 8.58s.55 57.63 9.51 57.63c174.6 0 276.67-24.92 276.67-24.92s-6.68-42.48-7.46-56.08c14.5-25-19.07-143.81-20.87-213.76-1.22-47.59-16.09-167.28-16.09-167.28" fill="#fff" stroke="#262521" stroke-linecap="round" stroke-linejoin="round" stroke-width="3"/><path d="M411.13 1211.17c66.35 2.29 161.74-2.6 257.67-18.93" fill="none" stroke="#636363" stroke-linecap="round" stroke-linejoin="round"/><path d="M487.53 977.63l114.92-94L481.1 798l-.68-19 121.19 82.84L598 761l-35-23 33.44-19.07-1.28-35.81-92.83 53 64.48 42.44.78 21.61-104.86-71.76-99.52 79-.78-21.61 61.29-47-96.38-46.16 1.28 35.81 34.72 16.63-33.21 25.44 3.61 100.77 115-91.29.68 19.11-113.95 94 120.38 85.57.71 19.76-121.2-82.84 3.61 100.77 34.95 23-33.44 19.07 1.28 35.81 92.83-52.94-64.48-42.44-.78-21.61L474.21 1049l99.52-79 .77 21.6-61.28 46.95 96.38 46.17-1.28-35.81-34.72-16.63 33.21-25.44-3.61-100.79-115 91.3zM550 885.47l-63.92 52.31-.72-20 38.36-31.39-40.51-28.56-.71-20zm-162.44 5.82l63.22-52.14.71 19.83-38.36 31.39 40.51 28.57.71 19.83z" fill="#262521"/></svg>