<svg xmlns="http://www.w3.org/2000/svg" width="1000" height="1550" viewBox="0 0 1000 1550"><path d="M396.83 302.65s-2.54-10.58-2.37-15.43c.11-3.49 5-5.78 5.49-9.23s4.06-6.11 5.16-9.53 3.3-8.46 1.6-11.61c-1.3 5.93-6.89 12.16-9.58 17.62.39-6.39 2.74-17.86-.48-23.39-.4 4-3.71 9.06-4.11 13.1-.67-6.26-1.48-14.73-2.15-21-.57 3.63-2 13.47-2.56 17.1a221.35 221.35 0 00-6-33.33 70.28 70.28 0 01-1.18 24.05c-1.24-9.41-.92-18.54-4.27-27.42.13 2.24-2.39 4.34-2.26 6.59a12 12 0 00-1.95-3.88 7.69 7.69 0 00-2.34 2.13c-1.63-4.16-.58-8.46-1-12.91-.22 1.13-2.52 2.18-2.73 3.31L352 191.9l2.17 16.81a28.59 28.59 0 01-3.75-6.75l-1.07 8.62c-2.32-5.14-8.43-20.5-11.7-25.08.07 3.21 3.45 16.88 3.53 20.09-4.26-4.7-7.86-9.74-13.09-13.35.42.68-.37 2.2 0 2.88a22.16 22.16 0 00-16.66-5.9 70.1 70.1 0 0118.67 19.59c-3.76.21-10.77 1.16-11.28.84l7.07 1.73-3.84 3.15 6.55.58-6.49 3a47.47 47.47 0 0116.46 4.89l-20.7 4.87a30.9 30.9 0 0110.85 3.81l-2.45 1.26a75.42 75.42 0 0120 6.91 49.41 49.41 0 01-12.63 2.9 36.79 36.79 0 0115.9 3l-24.06 8.05 27.27 5.07-14 4.68 20.38 4.83-10.22 3.38a87 87 0 0118.43 5.24 92.34 92.34 0 01-16.45 8.17c7.83 1.86 12.26.75 20.09 2.61-3.35 1.3-3.61 4.77-7.18 4.41 5.68-.27 26.22-5.52 27.55-3.83s3.8 14.47 3.8 14.47" fill="#e5e07a"/><path d="M397.76 302.39c-.46-1.9-.86-3.82-1.22-5.75-.57-3-1.36-6.33-1.12-9.42.13-1.74 1.53-3.08 2.63-4.31a11.62 11.62 0 002.66-4 18.93 18.93 0 01.8-2.66 18.4 18.4 0 011.65-2.63 20.21 20.21 0 002.88-4.94c1.31-3.75 3.42-8.48 1.5-12.36a1 1 0 00-1.76.23c-1.51 6.5-6.54 11.54-9.48 17.39l1.8.49c.26-4.14.93-8.24 1.13-12.38.18-3.81.17-8.07-1.75-11.49a1 1 0 00-1.79.48c-.54 4.59-3.58 8.49-4.11 13.1h1.92c-.74-7-1.4-14-2.14-21-.11-1-1.71-1.42-1.9-.25-.9 5.69-1.66 11.4-2.56 17.09l1.9.26a227.61 227.61 0 00-6.05-33.59c-.26-1-2-.85-1.89.26a70.77 70.77 0 01-1.14 23.8l1.89.26c-1.19-9.27-1-18.8-4.3-27.68a1 1 0 00-1.89.26c0 2.38-2.27 4.12-2.26 6.59l1.89-.26a13.6 13.6 0 00-2.05-4.1 1 1 0 00-1.32-.35A9.78 9.78 0 00369 228l1.76.23c-1.5-4.08-.6-8.43-.94-12.66a1 1 0 00-1.89-.25c-.21.67-1.09 1.17-1.58 1.63a3.79 3.79 0 00-1.15 1.67l1.76-.23-14.16-26.98c-.42-.8-1.91-.48-1.79.49l2.17 16.81 1.8-.49a29 29 0 01-3.66-6.51 1 1 0 00-1.9.25l-1.06 8.62 1.79-.48c-1.9-4.23-3.63-8.52-5.49-12.75s-3.59-8.6-6.21-12.34a1 1 0 00-1.79.49c.11 3.34 1.07 6.74 1.73 10s1.68 6.73 1.79 10.09l1.65-.68c-4.24-4.71-8-9.83-13.28-13.5-.65-.46-1.73.31-1.42 1.08s-.35 1.93 0 2.89l1.61-.94a23.35 23.35 0 00-17.34-6.18 1 1 0 00-.48 1.79 69.79 69.79 0 0118.31 19.25l.84-1.45c-2.19.13-4.36.37-6.54.59-1 .09-1.92.19-2.88.26-.35 0-.7.05-1.05.05-.18 0-.69-.09-.32.07l-.74 1.76 7.06 1.73-.43-1.61-3.83 3.15c-.71.58-.06 1.58.68 1.65l6.55.57-.48-1.79-6.5 3c-1 .44-.35 1.7.49 1.79a47 47 0 0116 4.73l.23-1.76-20.7 4.86c-.88.21-1 1.7 0 1.86a31.13 31.13 0 0110.62 3.71v-1.66l-2.45 1.26a1 1 0 00.23 1.75 76.66 76.66 0 0119.73 6.82l.23-1.76a49.72 49.72 0 01-12.38 2.86c-1.21.12-1.26 2 0 1.93a36.51 36.51 0 0115.41 2.86l.23-1.76-24.05 8c-.83.28-1 1.67 0 1.86l27.27 5.07v-1.8l-14 4.67a1 1 0 000 1.85l20.38 4.84v-1.86l-10.22 3.39c-.82.27-1 1.68 0 1.85a89.25 89.25 0 0118.48 5.27l-.23-1.76a92.89 92.89 0 01-16.22 8.07c-.82.32-1 1.63 0 1.86 6.62 1.54 13.47 1.07 20.08 2.6l-.23-1.76a9.87 9.87 0 00-3.33 2.58c-1 1.08-1.81 1.81-3.36 1.7v1.93a64.5 64.5 0 008.49-1.3c3.66-.7 7.32-1.44 11-2.07a45.07 45.07 0 017.25-.75c.22 0 .24.08.2.06-.28-.16-.1-.18 0 .1.17.48.4.94.55 1.43.49 1.5.87 3 1.24 4.57.63 2.62 1.19 5.25 1.7 7.9.24 1.21 2.09.7 1.86-.51q-.69-3.58-1.52-7.12c-.39-1.66-.79-3.33-1.29-5a6.69 6.69 0 00-1.31-2.89 3.5 3.5 0 00-2.43-.54 32.34 32.34 0 00-4 .41c-3.71.54-7.4 1.29-11.08 2a78.19 78.19 0 01-10.61 1.73 1 1 0 000 1.93c3.62.25 4.71-3.29 7.66-4.54a1 1 0 00-.23-1.76c-6.62-1.54-13.46-1.07-20.08-2.61v1.86a96.27 96.27 0 0016.68-8.27 1 1 0 00-.23-1.76 88.52 88.52 0 00-18.47-5.26v1.85l10.22-3.38a1 1 0 000-1.86l-20.4-4.78v1.85l14-4.67c.83-.27 1-1.67 0-1.85l-27.27-5.08v1.86l24.06-8.05c.69-.23 1.05-1.41.23-1.76a38.77 38.77 0 00-16.39-3.13v1.93a51.85 51.85 0 0012.89-2.93 1 1 0 00.23-1.76 77.71 77.71 0 00-20.18-7l.23 1.76 2.44-1.26a1 1 0 000-1.66 32.67 32.67 0 00-11.08-3.91v1.86l20.7-4.87a1 1 0 00.23-1.76 50.19 50.19 0 00-16.93-5l.48 1.8 6.5-3c.95-.44.36-1.72-.49-1.79l-6.55-.58.68 1.64 3.84-3.14a1 1 0 00-.43-1.61l-7.06-1.74c-1-.24-1.78 1.31-.74 1.76 1.29.58 3.24.07 4.59-.06 2.38-.23 4.77-.5 7.17-.64a1 1 0 00.83-1.45 72.2 72.2 0 00-19-19.94l-.49 1.79a21.5 21.5 0 0116 5.62c.64.6 2 0 1.61-.93s.35-1.93 0-2.89l-1.41 1.09c5.08 3.57 8.77 8.63 12.88 13.2a1 1 0 001.65-.68c-.12-3.34-1.07-6.74-1.74-10s-1.67-6.73-1.79-10.09l-1.79.48c2.62 3.74 4.38 8.19 6.21 12.34s3.59 8.53 5.49 12.75c.44 1 1.69.33 1.79-.49l1.07-8.62-1.89.26a30.78 30.78 0 003.85 7c.49.66 1.93.58 1.8-.48l-2.17-16.81-1.8.49 14.15 26.93a1 1 0 001.76-.23c.2-.67 1.08-1.17 1.58-1.63a3.87 3.87 0 001.15-1.67l-1.89-.26c.35 4.41-.56 8.91 1 13.17a1 1 0 001.76.23 7.13 7.13 0 012-1.79l-1.32-.34a12.15 12.15 0 011.85 3.64 1 1 0 001.89-.25c0-2.38 2.27-4.13 2.27-6.59l-1.89.26c3.22 8.71 3.05 18 4.22 27.16.13 1 1.64 1.42 1.9.25a72.5 72.5 0 001.2-24.31l-1.89.25a223.62 223.62 0 016 33.08c.1 1 1.71 1.42 1.89.25.9-5.69 1.66-11.4 2.56-17.09l-1.89-.26c.75 7 1.4 14 2.15 21a1 1 0 001.92 0c.54-4.58 3.58-8.49 4.11-13.1l-1.79.49c1.85 3.31 1.66 7.58 1.44 11.25-.23 3.89-.84 7.75-1.09 11.65a1 1 0 001.71.49c3-6 8.12-11.16 9.68-17.85l-1.76.23c.87 1.76.45 3.89 0 5.71a51.13 51.13 0 01-1.79 5.5 27.31 27.31 0 01-3.2 5.06 13.38 13.38 0 00-1.34 2.43c-.36.88-.42 1.83-.78 2.7-1.26 3-4.8 4.62-5.21 8.07-.35 3 .41 6.25.93 9.16.42 2.32.89 4.65 1.44 7 .29 1.2 2.15.69 1.86-.52z" fill="#afa748"/><path d="M537.35 346.2s-1.8-8.8-8.34-19.88a1.57 1.57 0 00.37-1.92c-.81-1.64-1.59-3.31-2.5-4.9a5.29 5.29 0 00-1.4-1.68 2.91 2.91 0 00-1.36-.54c-.07-.68 0-1.43-.09-2.07a5.63 5.63 0 00-1-2.66 3.89 3.89 0 00-2.51-1.58 5.79 5.79 0 00-1.61 0 3.32 3.32 0 00-.27-.9 4.09 4.09 0 00-1.61-1.76 5.07 5.07 0 00-3-.64c-13.86-13-35.56-24.47-69.18-25.46-1.84-2.58-6.05-2.82-8.92-1.91-.33.1-1 .62-1.26.63s-.7-.38-.95-.47a4.31 4.31 0 00-2.68-.18 4.48 4.48 0 00-2 1.16 5.09 5.09 0 00-.7 1.17c-1.07.09-2.13.18-3.18.29h-.09a12.23 12.23 0 00-2.79-.62 5.34 5.34 0 00-2.81.52c-.34.17-.74.66-1.08.75a2.17 2.17 0 01-1.29-.31c-1.76-.67-3.68-1.32-5.51-.5a4.26 4.26 0 00-2 1.77 5.12 5.12 0 00-5.87 2.5 1.89 1.89 0 00-.13.35c-18.54 5.89-31.08 16-39.51 26.48a6.19 6.19 0 00-1.78.17 3 3 0 00-1.75 1.27 3.14 3.14 0 00-.37 1.79 2.21 2.21 0 00-2.11 1.06 4.07 4.07 0 00-.27 2.39c0 .22.09.43.13.64a2.78 2.78 0 00-1.68 1 2.41 2.41 0 00.14 3.11 78 78 0 00-9.14 25.36s5.52 18.61 10.6 22.26c.78.55 1.39-.51 2.14-2.69a3.15 3.15 0 002.29-1.44c1.05-1.66 1-4 .63-6 1.67-1.4 1.73-3.69 1.72-6v-.43l.21-.52a3.87 3.87 0 01.36-.28 4.8 4.8 0 001.26-1.32 4.86 4.86 0 00.72-2.18c1.86-.66 2.59-2.83 2.72-4.86a5.42 5.42 0 003.13-4.34 15.61 15.61 0 00.17-1.81c.06-.93 0-.63.71-1a5.69 5.69 0 002.5-2.26 6.16 6.16 0 00.62-1.5c.16-.66 0-.6.68-.63a7.92 7.92 0 003.44-.89 5.62 5.62 0 002.94-4.75 5.89 5.89 0 003.75-4.66C399.37 317 416 310.9 440.1 310.9a127 127 0 0122.91 2 13.35 13.35 0 007.39 2.22 4.11 4.11 0 003.64 2.15 10.23 10.23 0 001.65-.15 2.29 2.29 0 011.75.46 25.15 25.15 0 002.72 1.43 22.79 22.79 0 003.28 1.15c.56.15 1.14.28 1.72.38.31.05 1.37 0 1.59.25s.21.91.35 1.25a2.82 2.82 0 00.74 1.1 3.78 3.78 0 002.28.84 7.15 7.15 0 012.31.23 8.34 8.34 0 012.09 1.71 10.49 10.49 0 002.29 1.63 2.26 2.26 0 011.47 1.95c.84 3.86 4.25 4.77 7.73 4.69.41.18.82.37 1.24.54l.67.67v.13a3.78 3.78 0 003.07 4.25 13.15 13.15 0 003 4.82 23 23 0 002.64 2.84c.38.31 1 .58 1.08 1s0 1 .18 1.55a5.62 5.62 0 001.68 2.43 14.36 14.36 0 001.31 1 5.6 5.6 0 011.27.87c.28.4.11.94.13 1.42a4.78 4.78 0 00.37 1.62 4.66 4.66 0 001.27 1.73 3.46 3.46 0 00.59 2.49 3.78 3.78 0 001.57 1.16 2 2 0 00.27.11s0 .06.08.22a7 7 0 01.36 1.69c.35 1.66.43 3.86 1.55 5.22a4.31 4.31 0 002.7 1.43c.52.69 1 1 1.45 1 5.75-.74 4.86-26.18 4.86-26.18z" fill="#5d4028"/><path d="M259.49 1268.08c.18.55.35 1.1.53 1.65l3.75 11.6a2.07 2.07 0 00.15.34 1.43 1.43 0 00.14.2v.06l.18.18.09.08h.06a1.57 1.57 0 001.5.28l4.71-1.83a1.78 1.78 0 001-2.56l-.72-1.57-5-11.1a1.73 1.73 0 00-2-.77l-3.25 1.25a1.77 1.77 0 00-1.14 2.19zm5.12 6.52l1.6-.66a1.16 1.16 0 011.51.64l1.21 3a1.15 1.15 0 01-.64 1.5l-1.6.66a1.17 1.17 0 01-1.51-.63l-1.21-3a1.15 1.15 0 01.64-1.51zM708.72 1244.2l-3.24-1.25a1.73 1.73 0 00-2 .76l-5 11.11-.72 1.57a1.78 1.78 0 001 2.56l4.72 1.83a1.58 1.58 0 001.49-.28h.06a.39.39 0 01.1-.08l.17-.18v-.06a1.53 1.53 0 00.14-.21 1.66 1.66 0 00.15-.33l3.75-11.6c.18-.55.36-1.1.53-1.65a1.77 1.77 0 00-1.15-2.19zm-3.31 10.17l-1.21 3a1.16 1.16 0 01-1.51.64l-1.6-.66a1.16 1.16 0 01-.64-1.5l1.21-3a1.17 1.17 0 011.51-.63l1.6.66a1.15 1.15 0 01.64 1.49z" fill="#7a7977"/><path d="M678 1225.79s10.81 106.24 7.76 124.42-50-28-172.81 1.63c-114.38 27.55-225.66 11.82-229.55-5s-4.72-121-4.72-121l195.58-326.79z" fill="#999" stroke="#262521" stroke-linecap="round" stroke-linejoin="round" stroke-width="3.74"/><path d="M676.77 586.45C665.07 580.79 524 526.71 524 526.71s.27 47.29-71.3 49.29c-65.05 1.88-78.61-48.75-78.59-48.83-1.05.66-143.23 87.92-154.88 93.55-2.17 1.09 462.97-31.65 457.54-34.27zM364.67 531.26h0s.01-.03 0 0z" fill="#999" stroke="#262521" stroke-linecap="round" stroke-linejoin="round" stroke-width="3"/><path d="M356.78 324.51l-.14.25h-.22a3.21 3.21 0 00-3 1.74 4.21 4.21 0 00-.4 2.39 4.81 4.81 0 00-3 1.95 3.73 3.73 0 00-.19 3.57 4.32 4.32 0 00-1.86 4.71 3.26 3.26 0 00-1 .38 3.38 3.38 0 00-1.41 1.94 4.4 4.4 0 00.24 2.82 9.64 9.64 0 00.71 1.35c.09.14.18.27.26.41a6.12 6.12 0 00-1.41 2.34 5.56 5.56 0 00-.34 2.85 4.55 4.55 0 003.38 3.75h.23c.25.7.51 1.47.81 2.28a5.43 5.43 0 001.85-.49c2.71-1.33.63-4.93.54-7.15a1 1 0 011.27-1c.76.15 2.15.45 2.78-.21a2.18 2.18 0 00.28-1.77 17 17 0 00-1.9-5.14 1 1 0 01.87-1.51c1.2 0 3.23-.12 3.19-1.74s-1.24-2.95-2.18-4a1 1 0 01.44-1.68c1.32-.27 2.9-.8 3.31-2.25a4.31 4.31 0 00-.72-3.27 8.66 8.66 0 00-2.39-2.52zM513.47 304.85a3.5 3.5 0 00-1.27-.88c-.6-.24-1.24-.08-1.81-.27-.41-.14-.58-.74-.88-1.11a4.73 4.73 0 00-1.31-1.13 4.34 4.34 0 00-1.45-.51 4.11 4.11 0 00-1-2c-1.1-1.2-2.6-1.49-4-2.25s-1.69-2.26-3-3c-.63-.33-1.57-.17-2.08-.54s-.72-1.2-1.33-1.61c-1.44-1-3.23-.39-4.84-.66s-3.76-.72-4.91-1.75-1.68-2.28-3.13-2.72a3.35 3.35 0 00-2.66.33 3.93 3.93 0 00-1.91-.85 13.15 13.15 0 00-2.73.18c-1 0-1.23-.43-1.79-1.15a4.59 4.59 0 00-6.29-.95 5.22 5.22 0 00-4.88-.6 5.34 5.34 0 00-7.69-.89c-2.28-1.76-5.6-1.24-8.35-.4a1.83 1.83 0 00-.31.12h-.68a6.64 6.64 0 00-1.62 3 1 1 0 01-1.67.44c-2.49-2.89-9.82-5-10.47.54a1 1 0 01-1.26 1c-4.26-1-5.76 3.3-7.3 6.4a1 1 0 01-1.57.21c-2.23-1.85-4.86-1.65-7.22-.16a1 1 0 01-1.46-.6c-.2-1-.52-2.11-1.7-2.23a5.71 5.71 0 00-3.08 1 1 1 0 01-1.36-.36A13.3 13.3 0 00404 288a3.48 3.48 0 00-.85-.58c-2 .65-3.95 1.36-5.82 2.1a4.57 4.57 0 00-4.7-.34 4.42 4.42 0 00-2.27 3.34 23 23 0 00-5.32 1.43 3.62 3.62 0 00-2.24 2.31 4.86 4.86 0 00-5 1.73 5 5 0 00-.93 1.79s-.1.47-.15.78a5.47 5.47 0 01-.55.13c-1.52.29-3.05.39-4.34 1.33a4.28 4.28 0 00-1.88 3.26 3.85 3.85 0 00.09.8 8.49 8.49 0 00-1.74 1.06c-2.14 1.45-4.9 4-4.07 6.84a1.73 1.73 0 00.64 1.25c1.36 1.1 3.65-.9 4.8-1.6a1 1 0 011.5.86c.08 1.05-.4 2.93.8 3.45 1.67.71 2.73-1.24 3.35-2.45a1 1 0 011.82.24c.37 1.14 1 2.45 2.39 2.15a6.25 6.25 0 003.08-2.22c.63-.72 1.61-.07 1.7.71a4 4 0 001.51 3 4.45 4.45 0 003.42.21 1 1 0 011.21 1.3 1.7 1.7 0 00-1.32 1.14 1.48 1.48 0 00-1.13.61 6.25 6.25 0 00-2.07 1.48 1.56 1.56 0 00.29 2.47c.25-.2.53-.4.79-.6a1.67 1.67 0 00.56.62 3.39 3.39 0 005.15-3 11.73 11.73 0 004-1.25 7 7 0 002.91-3.14h.19a4.36 4.36 0 001.25 0 4.8 4.8 0 001.88-.75c.31-.21.88-.6 1-1l.09-.11a7.38 7.38 0 002.4.61 4.71 4.71 0 004.22-1.46c.31-.37.4-.85.68-1.21a1.07 1.07 0 00.21.12 3.64 3.64 0 002.26-.07 4.56 4.56 0 001.92-1.15 4.65 4.65 0 00.63-.83.57.57 0 00.08-.13l.26-.05h.27c.41.07.83.11 1.24.14s.89 0 1.33 0a4.57 4.57 0 002 .91 5.37 5.37 0 004.41-1.55c.15-.14.27-.3.41-.44a8.81 8.81 0 001.42-.77l1.36-.12a3.86 3.86 0 001.67 1 3.52 3.52 0 003.23-.69 8.07 8.07 0 008.25-.72h1.18a4.07 4.07 0 001.83 1.34 3.76 3.76 0 003.41-.39 5.11 5.11 0 004-.29 3.07 3.07 0 002.73 1.61 5 5 0 002.69-.76 3.58 3.58 0 001.56 1.33 3.13 3.13 0 003.68-.83l.56.1a1 1 0 01.75-.46c2-.21 2.91-1.74 3.64-3.44.32-.75 1.35-.55 1.73 0 .52.75 1.06 1.87 1.93 2.28a4.25 4.25 0 003-.09c2.58-.74 4.52 2.27 7.1 1.79.95-.18 1.77-.74 2.7-1a4.32 4.32 0 013 .4 5.72 5.72 0 011.46 1.13c.2.22.4.57.69.68a3.4 3.4 0 001.9-.32 3.48 3.48 0 001.86-1.7 1 1 0 011.37-.36 30.24 30.24 0 005.14 2.68 6 6 0 002.88.53c1-.17 1.15-1.08 1.17-2a1 1 0 011.71-.71 4.44 4.44 0 002.82 1.64.82.82 0 00.46 0 .21.21 0 010-.06c.19-.51-.5-1.44-.73-1.83a1 1 0 01.86-1.5c1.31-.06 3.12 0 4.15-1a3.13 3.13 0 00.85-1.7l-.09-.08a3.71 3.71 0 00-.81-3.08zM538.24 343a4.73 4.73 0 00-.7-.84c0-.1.07-.2.1-.3a4 4 0 00.08-2.76 3 3 0 00-1.34-1.74c.15-1.84-1.33-3.49-2.93-4.59a6.23 6.23 0 00-2.76-5.49 3.65 3.65 0 00-3.62-4.05l-.08-.13-.32.14a1.4 1.4 0 00-.92.48 5.67 5.67 0 00-.64.45c-1.89 1.68.1 3.56 1.62 4.61a1 1 0 010 1.73c-1.49.78-3.3 2.06-1.83 3.75a8 8 0 004.72 2.22 1 1 0 01.44 1.67c-1.53 1.52-3.43 2.94-4.58 4.79-.29.47-.58.91-.16 1.33.83.86 3 .84 4 .92a1 1 0 01.86 1.5 5.08 5.08 0 00.1 5c1.08 1.61 2.36.63 3.17-.68a1 1 0 011.86.5 5.36 5.36 0 00.57 3 1.2 1.2 0 00.85.93 2.3 2.3 0 00.52.26 1.7 1.7 0 000-.22c2.8-.3 1.91-3.27 1.16-5.27 1.51-1.93.94-5.52-.17-7.21z" fill="#b78a30"/><path d="M752.23 1043c-3.83-55.87-22.88-124.63-22.88-124.63s-14.59-306.95-52.89-331.94C665.58 579.35 530.53 527 530.53 527s-2.13 56-77.47 54.22c-65.07-1.5-80.64-40-84.76-52.13-1-2.85-104.64 64.72-149.37 91.67S192.25 945 192.25 945a619.73 619.73 0 00-3.6 128.12c5.53 68.42-1.88 179.2 14.45 197.94l61-1.5s-5.6-14.35-4.65-27c2.27-30.22 5.53-104.27 15.36-135.22s21.41-88.34 21.41-88.34l240.44-69.68 119.06 90.76c17.07 43.17 45.6 137.42 48.07 177.22 1.64 26.39 2.89 34.36 2.89 34.36h58.1s4.48-6.67 5.3-18.89-12.27-108.49-17.85-189.77z" fill="#484c42" stroke="#262521" stroke-linecap="round" stroke-linejoin="round" stroke-width="3"/><path d="M711 1220.48s30.63-3.83 52.36 0M200.27 1238s30.63-3.83 52.37 0M353 546.43s21.5 56.9 100.8 56.9 94.27-62 94.27-62" fill="none" stroke="#32352d" stroke-linecap="round" stroke-linejoin="round"/><path d="M287.19 807.61s5.34 199.1 3.82 238.13c-.83 21.49-23.29 121.8-11 149 0 13-6.32 51-6.32 51S347 1267.85 424 1266.92c23.82-.28 50.29-302.37 50.29-302.37M398.65 602.16S417 725.31 427.71 773.71s122.15 484.8 122.15 484.8l137.48-18.22s-6.69-38-7.46-51.64c14.49-25-19.08-143.81-20.87-213.76-1.22-47.59-16.1-167.28-16.1-167.28" fill="#484c42" stroke="#262521" stroke-linecap="round" stroke-linejoin="round" stroke-width="3"/><path d="M408.89 607.06s17.6 118.25 28.32 166.65 121 478 121 478M547 1208.16a1003.52 1003.52 0 00115.62-15.71M289.48 1197.28s56.88 11.77 145.09 13.77" fill="none" stroke="#32352d" stroke-linecap="round" stroke-linejoin="round"/><path d="M510.64 314c3.86 0 3.87-6 0-6s-3.87 6 0 6zM475.18 312.84c3.87 0 3.87-6 0-6s-3.86 6 0 6zM461.11 302.7c3.86 0 3.86-6 0-6s-3.87 6 0 6zM396.63 305.52c3.86 0 3.87-6 0-6s-3.87 6 0 6zM403.67 296.79c3.86 0 3.87-6 0-6s-3.87 6 0 6zM410.43 299c3.86 0 3.86-6 0-6s-3.87 6 0 6zM437.74 284.68c3.86 0 3.86-6 0-6s-3.87 6 0 6zM382 319.6c3.86 0 3.87-6 0-6s-3.87 6 0 6zM389.31 329.45c3.86 0 3.87-6 0-6s-3.87 6 0 6zM357.77 337.34c3.87 0 3.87-6 0-6s-3.86 6 0 6zM359.46 324.67c3.86 0 3.87-6 0-6s-3.86 6 0 6zM376.36 338.74c3.86 0 3.86-6 0-6s-3.87 6 0 6zM516.86 332.83c3.86 0 3.86-6 0-6s-3.87 6 0 6zM527 332.27c3.86 0 3.87-6 0-6s-3.87 6 0 6zM532.9 341.84c3.87 0 3.87-6 0-6s-3.86 6 0 6z" fill="#fcf9d4"/><path d="M523.33 340.15c3.86 0 3.87-6 0-6s-3.87 6 0 6zM520.8 324.38c3.86 0 3.86-6 0-6s-3.87 6 0 6zM514 343.53c3.86 0 3.87-6 0-6s-3.87 6 0 6zM488.7 318.19c3.86 0 3.87-6 0-6s-3.87 6 0 6zM499.4 307.49c3.86 0 3.87-6 0-6s-3.87 6 0 6zM449.56 290c3.86 0 3.87-6 0-6s-3.86 6 0 6zM448.44 300.45c3.86 0 3.86-6 0-6s-3.87 6 0 6zM428.45 291.44c3.86 0 3.86-6 0-6s-3.87 6 0 6zM423.66 302.42c3.86 0 3.87-6 0-6s-3.87 6 0 6zM393.81 296.79c3.86 0 3.87-6 0-6s-3.86 6 0 6zM388.46 303.55c3.87 0 3.87-6 0-6s-3.86 6 0 6zM398.32 317.91c3.86 0 3.87-6 0-6s-3.87 6 0 6zM406.48 306.65c3.86 0 3.87-6 0-6s-3.86 6 0 6zM373 320.44c3.86 0 3.87-6 0-6s-3.87 6 0 6zM376.92 327.76c3.86 0 3.87-6 0-6s-3.87 6 0 6zM361.15 354c3.86 0 3.87-6 0-6s-3.86 6 0 6zM348.48 344.94c3.86 0 3.87-6 0-6s-3.86 6 0 6z" fill="#d6b170"/><path d="M489 305c3.86 0 3.87-6 0-6s-3.87 6 0 6zM462 310.59c3.86 0 3.87-6 0-6s-3.87 6 0 6zM472.65 305.24c3.86 0 3.87-6 0-6s-3.87 6 0 6zM431.82 299c3.87 0 3.87-6 0-6s-3.86 6 0 6zM440 307.21c3.86 0 3.87-6 0-6s-3.87 6 0 6zM380 307.77c3.86 0 3.86-6 0-6s-3.87 6 0 6zM535.72 352c3.86 0 3.87-6 0-6s-3.87 6 0 6zM469.84 292c3.86 0 3.86-6 0-6s-3.87 6 0 6z" fill="#5d4028"/></svg>