<svg xmlns="http://www.w3.org/2000/svg" width="1250" height="1550" viewBox="0 0 1250 1550"><title>s03e02-03</title><path d="M817-62.92c-1.25-15.31-3.13-30.58-3.76-45.93-.32-7.85-.11-15.73-.24-23.59s-.42-15.81-1.06-23.7c-1.26-15.57-1.35-31.19-3-46.72-1.24-11.3-3.31-22.66-3.5-34a9.41,9.41,0,0,0-5.44,1.1c-7.89,4.4-6.17,17.25-13.06,23.08a34.32,34.32,0,0,0-31.14-18.62,27.26,27.26,0,0,1,9.85,15.26,15.79,15.79,0,0,1-12.91-3.19c-1.37-1.12-3-2.56-4.65-1.82a3.84,3.84,0,0,0-1.73,2.65,24.49,24.49,0,0,0,.42,14.43,168.23,168.23,0,0,0-31.33-.8,22.48,22.48,0,0,1,12.83,7.88,4.07,4.07,0,0,1,1.12,2.49,4.09,4.09,0,0,1-1.58,2.68c-4.78,4.48-13.43,6.44-17.33,1.18-6.95,10.5-4.09,26.27,6.11,33.67l-33.92,4a2.71,2.71,0,0,1-1.91-.24,2.59,2.59,0,0,1-.85-1.92c-.33-2.93,0-5.93-.44-8.85s-2.14-5.93-5-6.77c-1.11-.32-2.34-.31-3.3-.94-1.78-1.17-1.65-3.74-2.21-5.8s-3.56-3.8-4.55-1.92a14.15,14.15,0,0,0,3,12.5c2.56,3,6.71,6.27,4.95,9.76-1.9,3.79-7.71,1.73-10.85-1.11s-7.72-6.19-11-3.56A32.17,32.17,0,0,0,661-151.42c-.57,4.79-9.76,6.92-7.46,11.16,1.88,3.48,7.08-.12,11,.1,3.79.2,6.08,4.1,8,7.36s5.26,6.77,8.86,5.6a27.22,27.22,0,0,1-24.87,5.53,56.2,56.2,0,0,0,22.14,9.48A21.43,21.43,0,0,1,663-103c2.85,3,7.59,3,11.54,4.28s7.46,6.56,4.37,9.35l4.72-1.25q2.7,7.08,5.39,14.17a63,63,0,0,0-2-26.22c5.09,5.19,14.2-7.28,20-2.91,2.51,1.88,2.26,5.82.86,8.63s-3.69,5.18-4.67,8.16c-1.22,3.68-.29,7.68-.39,11.55s-1.91,8.35-5.72,9.06a27.72,27.72,0,0,0,10.88,9.05,14.71,14.71,0,0,0-9.48,11.84A14.73,14.73,0,0,0,705-33.53c1.83,1.21,4,2,5.57,3.51,5.69,5.32,1.61,14.81,3,22.48,1.67,9.4,12.41,15.26,21.86,13.87s17.27-8.4,22.35-16.48L770.53,4.19c3.4,3.8,7.3,7.87,12.39,8.36,5.38.52,10.38-3.34,13-8S799.42-5.69,800.5-11c1.18-5.77,4.2-12.72,10.09-12.76,3.09,0,5.71,2,8.3,4C818.37-34.17,818.15-48.57,817-62.92Z" fill="#8c8b8b"/><path d="M818.48-62.92c-.93-11.36-2.2-22.69-3.05-34.06-.44-5.75-.77-11.51-.86-17.27-.09-5.57,0-11.14-.07-16.71-.13-11.38-1-22.68-1.69-34s-1-22.66-2-33.95c-1.18-12.67-3.66-25.22-3.9-38a1.54,1.54,0,0,0-1.5-1.5,11.14,11.14,0,0,0-9,3.48,19.52,19.52,0,0,0-3.83,6.81c-1.8,4.89-2.62,10.74-6.75,14.33l2.35.31a35.88,35.88,0,0,0-32.43-19.37c-1.17,0-2.15,1.71-1.06,2.56a26.33,26.33,0,0,1,9.46,14.6l1-1.85a14.32,14.32,0,0,1-9.41-1.47c-2.5-1.35-5.13-4.9-8.33-3.46-2.8,1.26-3.17,5.52-3.42,8.16a26,26,0,0,0,1.24,10.69l1.45-1.9a170,170,0,0,0-31.33-.8c-1.6.11-2.15,2.57-.4,2.95a21.31,21.31,0,0,1,8.84,4.15,18.21,18.21,0,0,1,3.45,3.51,1.57,1.57,0,0,1,0,2.3,9.54,9.54,0,0,1-1.52,1.39c-3.62,2.8-10.64,5.05-14,.67a1.53,1.53,0,0,0-2.59,0c-7.4,11.37-4.2,27.73,6.64,35.72l.76-2.79-30.72,3.63a33.94,33.94,0,0,1-3.6.42c-.65,0-.75-.07-.86-.73a16.08,16.08,0,0,1-.13-1.83,55.26,55.26,0,0,0-.36-7.39c-.63-3.68-2.94-7.19-6.78-8-.84-.18-1.86-.2-2.46-.89a5,5,0,0,1-.81-2.41c-.31-1.75-.58-3.37-1.95-4.64a4.21,4.21,0,0,0-4.34-1.16c-1.83.79-1.95,3-2,4.78a15.94,15.94,0,0,0,4.16,11.25c1.47,1.63,6.75,6,3.71,8.38-1.2.94-3.15.37-4.41-.13a18.09,18.09,0,0,1-4.71-3.23c-3.08-2.55-7.73-5.52-11.57-2.69a1.51,1.51,0,0,0-.54,2.05,34.57,34.57,0,0,0,11.11,10.88l-.68-1.69c-.7,4.68-11,6.89-7.08,12.69,2.29,3.34,6.76,1.33,9.87.67a5.44,5.44,0,0,1,5,1,18.75,18.75,0,0,1,3.56,4.77c2.24,3.78,5.94,8.3,10.91,6.89l-1.46-2.51A25.8,25.8,0,0,1,657-123.12c-1.72-.48-2.49,1.79-1.16,2.74a58.05,58.05,0,0,0,22.51,9.63l-.9-2.2A20,20,0,0,1,663-104.5a1.52,1.52,0,0,0-1.06,2.56c3.09,3.14,7.51,3.28,11.5,4.45,2.31.68,7.14,4.4,4.41,7.06a1.51,1.51,0,0,0,1.46,2.5l4.72-1.25-1.85-1L687.6-76a1.5,1.5,0,0,0,2.94-.4,64.72,64.72,0,0,0-2-26.62l-2.5,1.46c5.39,5.26,12-2.73,17.56-3.39,4.15-.49,4.47,4.29,3.15,7.14-1.12,2.42-3,4.42-4.12,6.81a16.58,16.58,0,0,0-1.44,8c.1,2.9.59,5.88-.2,8.72-.6,2.18-1.85,4.24-4.19,4.74a1.52,1.52,0,0,0-.9,2.21,29.94,29.94,0,0,0,11.42,9.58l.36-2.74c-8,3-12.66,11.88-9.81,20.08a17,17,0,0,0,8.32,9.41c1.84,1,3.64,2,4.71,3.9a11.35,11.35,0,0,1,1.27,5.24c.15,4.11-.66,8.2-.4,12.31A17.29,17.29,0,0,0,715.83.61c4.94,5.84,13.25,8.38,20.67,7,9.66-1.74,17.4-9,22.49-17l-2.35.31c5,5.54,9.77,11.28,14.94,16.62,4,4.19,9.31,7.75,15.4,6.16s10-6.83,12-12.36c2.18-5.8,2.15-12.33,4.83-17.94,1.09-2.28,2.72-4.74,5.3-5.45,3.4-.93,6.47,1.64,9,3.57.91.7,2.3-.26,2.26-1.3-.51-14.38-.75-28.78-1.91-43.13-.15-1.91-3.15-1.93-3,0,1.16,14.35,1.4,28.75,1.91,43.13l2.26-1.29c-2.47-1.9-5.07-3.83-8.27-4.14a8.87,8.87,0,0,0-6.75,2.38c-4,3.63-5.17,9.41-6.18,14.47-1.22,6.17-2.72,13-8,17A10.49,10.49,0,0,1,782.56,11c-2.9-.44-5.38-2.25-7.47-4.21-2.78-2.61-5.23-5.6-7.78-8.44l-8.55-9.56a1.52,1.52,0,0,0-2.36.3C752.23-4.33,746.24,1.66,738.64,4A19.73,19.73,0,0,1,719.29-.1a14.14,14.14,0,0,1-4.45-8.48c-.46-3.74.18-7.52.3-11.26.1-3.45-.25-7.1-2.4-9.94-2.47-3.24-6.7-4.11-9.39-7.1a13.06,13.06,0,0,1-3-11.79,13.33,13.33,0,0,1,8.1-9c1.09-.4,1.63-2.14.36-2.74a26.83,26.83,0,0,1-10.35-8.51l-.89,2.21c4.87-1.06,6.79-6.51,6.83-11,0-3.12-.64-6.33,0-9.42.59-2.91,2.55-5.18,4.06-7.65,2.29-3.76,3.48-9.9-1.17-12.49-3.24-1.81-7-.08-9.93,1.46-2.34,1.21-6.75,4.46-9.21,2.06a1.51,1.51,0,0,0-2.51,1.46,62.73,62.73,0,0,1,1.92,25.82l3-.4L685.09-91a1.53,1.53,0,0,0-1.84-1l-4.72,1.25L680-88.31c3.5-3.41.63-8.39-2.67-10.68-4-2.75-9.74-1.52-13.24-5.07L663-101.5a23.24,23.24,0,0,0,17-9.94,1.51,1.51,0,0,0-.9-2.2A56,56,0,0,1,657.32-123l-1.16,2.74a28.89,28.89,0,0,0,26.33-5.91c1.17-1-.08-2.9-1.46-2.51-3.8,1.09-6.37-3.62-8-6.26-1.77-2.92-4.1-6.15-7.74-6.67A13.36,13.36,0,0,0,660-141c-1.24.32-3.22,1.17-4.5.62-2.29-1,.44-3.17,1.43-4,2.19-1.79,5-3.65,5.49-6.69a1.57,1.57,0,0,0-.69-1.69,31,31,0,0,1-10-9.8l-.54,2c3.19-2.35,7.13,1.55,9.45,3.53s5.83,3.81,9.12,3.31a5.33,5.33,0,0,0,4.13-7.14c-1.34-3.73-5-5.85-6.89-9.26a12.8,12.8,0,0,1-1.51-5.83c0-.54-.15-2.31.26-2.72.23-.22-.23,0,.16-.05s.65.33.84.49c1.26,1.08,1,3.18,1.48,4.66a5.17,5.17,0,0,0,3.55,3.74c.85.25,1.77.27,2.6.6a5,5,0,0,1,2.14,1.81,10.75,10.75,0,0,1,1.64,5.72c.16,3.39-1.12,10.67,4.26,10.21,5.65-.49,11.29-1.33,16.91-2l17.21-2a1.52,1.52,0,0,0,.76-2.8c-9.58-7.06-12-21.72-5.57-31.62h-2.59c3.62,4.71,9.79,4.59,14.82,2.35,2.45-1.09,5.8-3.09,6.68-5.79,1-3.2-2.49-6.28-4.69-8.06a24.45,24.45,0,0,0-10.16-4.93l-.4,3a170,170,0,0,1,31.33.8,1.49,1.49,0,0,0,1.44-1.89,23.91,23.91,0,0,1-1.19-9.23,20,20,0,0,1,.87-4.73c.43-1.36,1.09-1.72,2.35-.93s2.18,1.75,3.38,2.48a17.66,17.66,0,0,0,3.84,1.73,17.57,17.57,0,0,0,8.58.44,1.52,1.52,0,0,0,1-1.84,29,29,0,0,0-10.24-15.92l-1.06,2.56A32.91,32.91,0,0,1,785.57-212a1.52,1.52,0,0,0,2.36.3c4-3.46,5.26-8.8,6.82-13.62,1.67-5.14,4.3-10.56,10.62-10.12l-1.5-1.5c.21,11.27,2.2,22.38,3.45,33.56s1.65,22.61,2.25,33.93,1.6,22.65,1.85,34,0,22.65.7,34c.82,12.86,2.31,25.67,3.36,38.51C815.64-61,818.64-61,818.48-62.92Z" fill="#8c8b8b"/><path d="M667.72,358.7s-3.46-101.94-101.64-101.94c-4.86.36-168.76,83.6-168.76,83.6L387.3,149H735.13Z" fill="#ffc802"/><path d="M653,236.65c-3.21-3.5-7.15-7.5-6.09-12,.5-2.11,2.09-3.88,2.83-5.93,1.42-3.9-.48-8.31-3.68-11.19s-7.49-4.48-11.76-5.76c-23-6.86-47.78-5.92-71.94-4.91-8.35.35-16.83.72-24.74,3.2-7.15,2.23-13.55,6.1-19.85,9.93-9.38,5.7-19.64,10.16-28.15,17.1-25.58,20.86-24.8,66.37-23.45,78.46l99-59,99,47.34C663.78,280.57,662.39,246.83,653,236.65Z" fill="#465652" stroke="#262521" stroke-linecap="round" stroke-linejoin="round" stroke-width="3"/><path d="M488.78,535.38c10.38-5.26,17.73-10.2,19.27-14.15,2.32-6,3-14.93,3-24.11-14.32.79-25.64,2.81-28.64,6.92-9.9,13.57-12.16,13.57-12.16,13.57s-8.2-8.2-14.7,0-35.63,29.41-30,40.15S490,587.45,490,587.45l6.43,2.64C497.55,577.76,490.26,539.47,488.78,535.38Z" fill="#c1bfbd"/><path d="M721.25,542.44c-8.85-5.58-8-14.34-11.34-21s-13.84,1.66-13.84,1.66-10.79-15.77-17.71-24.44c-3-3.78-20.84-3.88-40-2.79.85,13.67,2.77,26.49,6.85,30,1.88,1.61,7.6,4.25,15.59,7.46A65.78,65.78,0,0,1,654,550.77q.07,3.11.16,6.22c.37,12.35.88,24.75.79,37.13,39.36-16,78.78-32.7,79.88-36.14C737,551.07,730.1,548,721.25,542.44Z" fill="#c1bfbd"/><path d="M800.54,1223.65l-26.64-647-124.34-50.1s-7.62,55.38-75,58.47-73.43-58.47-73.43-58.47L385.82,607.22l39,405.79-14.17,333.31s100.87,16.5,214.68,12,180.87-13.77,180.87-13.77Z" fill="#828282" stroke="#262521" stroke-linecap="round" stroke-linejoin="round" stroke-width="3"/><path d="M860.35,918.39s-1.41-298-58.89-331.94c-11.18-6.61-142.4-59-142.4-59s-2.9,146.06-24.23,187.67c-36.38,81.94,36,782.51,36,782.51,120-4.44,149.53-106,149.53-106s0-200.33-30.63-324.22c13.83,47.61,28.27,153.84,38.48,163,1.64,26.39,1.88,36.36,1.88,36.36l64.1-1.5s-1-14.3-2.6-35.73C917.24,1146.38,860.35,918.39,860.35,918.39Z" fill="#c1bfbd"/><path d="M734.81,558c2.21-6.91-4.71-10-13.56-15.54s-8-14.34-11.34-21-13.84,1.66-13.84,1.66-10.79-15.77-17.71-24.44c-3-3.78-20.84-3.88-40-2.79.85,13.67,2.77,26.49,6.85,30a22.3,22.3,0,0,0,4.06,2.43" fill="none" stroke="#262521" stroke-linecap="round" stroke-linejoin="round" stroke-width="3"/><path d="M547.23,717.36c-24.29-69.4-53.3-172.25-57.11-183.51a10.79,10.79,0,0,1-.75-2.59c-1,.65-101,62.61-145.44,89.5C288.65,654.21,317.25,945,317.25,945s-24.38,212.36,1,296.39c2.37,15.93,3.05,28,6.44,41.4l63.95-1.5s-4.06-29.79-3.11-42.46c12.87-27.53,10.41-100.55,20.24-131.5,6-18.8,10.39-47.35,12.93-66.86a163.78,163.78,0,0,1-1.32,19.9c-25.31,154.75-12.94,356-12.94,356s117,87.39,154.76,77.26C559.2,1493.69,588.78,828.92,547.23,717.36Z" fill="#c1bfbd"/><path d="M431.93,566.78c-31,19.16-65.36,40.28-88,54C288.65,654.21,317.25,945,317.25,945s-24.38,212.36,1,296.39c2.37,15.93,3.05,28,6.44,41.4l63.95-1.5s-4.06-29.79-3.11-42.46c12.87-27.53,10.41-100.55,20.24-131.5,6-18.8,10.39-47.35,12.93-66.86a163.78,163.78,0,0,1-1.32,19.9c-22.54,204.27-12.94,356-12.94,356s117,87.39,154.76,77.26c0,0,29.58-680.56-12-776.33-24.29-69.4-53.3-172.25-57.11-183.51a10.79,10.79,0,0,1-.75-2.59" fill="none" stroke="#262521" stroke-linecap="round" stroke-linejoin="round" stroke-width="3"/><path d="M659.17,528.74s-3,144.76-24.34,186.37c-36.38,98,36,782.51,36,782.51,120-4.44,149.53-106,149.53-106s-6.89-250.83-30.63-324.22c13.83,47.61,28.27,153.84,38.48,163,1.64,26.39,1.88,36.36,1.88,36.36l64.1-1.5s-1-14.3-2.6-35.73c25.63-83.13-31.26-311.12-31.26-311.12s-1.41-298-58.89-331.94c-5.14-3-35.63-15.16-67.07-27.38l-6.87,18.51" fill="none" stroke="#262521" stroke-linecap="round" stroke-linejoin="round" stroke-width="3"/><path d="M723,590.09S634.83,761,632.74,933.92" fill="none" stroke="#636363" stroke-linecap="round" stroke-linejoin="round"/><path d="M455.49,590S556.81,760.18,562.81,942.84" fill="none" stroke="#636363" stroke-linecap="round" stroke-linejoin="round"/><path d="M789.75,1067.39C788.52,1019.81,762.91,755,762.91,755" fill="none" stroke="#262521" stroke-linecap="round" stroke-linejoin="round" stroke-width="3"/><path d="M410.65,770.51s9.57,231,8.05,270" fill="none" stroke="#262521" stroke-linecap="round" stroke-linejoin="round" stroke-width="3"/><path d="M501.09,528.27c3.68-2.56,6.14-4.94,7-7,2.32-6,3-14.93,3-24.11-14.32.79-25.64,2.81-28.64,6.92-9.9,13.57-12.16,13.57-12.16,13.57s-8.2-8.2-14.7,0-35.63,29.41-30,40.15,16.8,8,25,23.3" fill="none" stroke="#262521" stroke-linecap="round" stroke-linejoin="round" stroke-width="3"/><rect x="752.21" y="1162.29" width="27.43" height="126.99" fill="none" stroke="#636363" stroke-linecap="round" stroke-linejoin="round" transform="translate(-171.89 125.92) rotate(-8.45)"/><rect x="437.11" y="1172.85" width="25.93" height="126.78" fill="none" stroke="#636363" stroke-linecap="round" stroke-linejoin="round" transform="translate(687.04 2530.34) rotate(-170.37)"/><path d="M471.92,267.51c-12.93,33.62-.61,92.85,4.21,91.15,2.54-.9-5.22-83.14,90.5-83.14s84.26,71,94.72,81.16c0,0,10.77-70.52-6.36-102.36S549.11,155.76,471.92,267.51Z" fill="#465652" stroke="#262521" stroke-linecap="round" stroke-linejoin="round" stroke-width="3"/><path d="M529.64,273s105.7-43.57,133.12,64.05" fill="none" stroke="#262521" stroke-linecap="round" stroke-linejoin="round" stroke-width="3"/><path d="M553.25,261.25s-71.66,5-83.62,84.29" fill="none" stroke="#262521" stroke-linecap="round" stroke-linejoin="round" stroke-width="3"/></svg>