<svg xmlns="http://www.w3.org/2000/svg" width="1000" height="1550" viewBox="0 0 1000 1550"><path d="M277.41 1253.81l398.59-5.68 18.48 197.11c-209.13 38.46-398.79 10.35-398.79 10.35z" fill="#262521" stroke="#262521" stroke-linecap="round" stroke-linejoin="round" stroke-width="3"/><path d="M752.23 1043c-3.83-55.87-22.88-124.63-22.88-124.63s-14.59-306.95-52.89-331.94c-10.88-7.1-142.29-56.21-142.29-56.21s-2.49 55-82.84 55c-65.08 0-82.1-39.23-86.21-51.38a10.79 10.79 0 01-.75-2.59c-1 .65-100.94 62.69-145.44 89.5C174.2 647.71 192.25 945 192.25 945a619.79 619.79 0 00-3.6 128.12c5.53 68.42-1.88 179.2 14.45 197.94l61-1.5s-5.6-14.35-4.65-27c2.27-30.22 5.53-104.27 15.36-135.22s21.45-88.31 21.45-88.33c.49 23.68.3 42.23-1 50.33-3.6 21.92-31.66 102.78-17.78 133.07-3.34 29.28-5.7 66.94-5.7 66.94S367.4 1295 444.4 1294c137.52-1.66 240.17-35.54 240.17-35.54s-2.28-35.7-5.32-60.52c9.94-22.62-4.2-83.52-17.92-143 17.07 47.16 40.25 126.63 42.46 162.33 1.64 26.39 2.89 34.36 2.89 34.36h58.1s4.48-6.67 5.3-18.89-12.27-108.46-17.85-189.74z" fill="#262521" stroke="#262521" stroke-linecap="round" stroke-linejoin="round" stroke-width="3"/><path fill="#fff" stroke="#fff" stroke-linecap="round" stroke-linejoin="round" stroke-width="6.69" d="M567.66 545.44l-196.63 369.5 116.01-31.72-39.98 246.18 188.96-386.86-106.51 35.99 46.2-230.83-8.05-2.26z"/><path d="M271.71 1269.38S367.4 1295 444.4 1294c137.52-1.66 240.17-35.54 240.17-35.54" fill="none" stroke="#636363" stroke-linecap="round" stroke-linejoin="round"/><path d="M591.35 551.89c-13.88-5.32-27-10.29-37.18-14.13" fill="none" stroke="#262521" stroke-linecap="round" stroke-linejoin="round" stroke-width="3"/></svg>