<svg xmlns="http://www.w3.org/2000/svg" width="1250" height="1550" viewBox="0 0 1250 1550"><defs><clipPath id="a"><path d="M877.23-557c-3.83-55.87-37.47-431.58-75.77-456.57-33.32-21.7-85.46-43.44-122.71-56.13-13.69-19.43-40.17-28.19-40-26 0 0 14.31 10.13 13.16 25.65-7.45 22.84-58.66 194.63-81.35 289.55-20-96-64.9-277.94-66.09-292.48-1-11.83 5.6-16.15 5.6-16.15l.28-6.84s-26.55 7.51-35.45 26.36c0 0-105.14 71.63-131 90.37-44.73 27-35.81 384-30.28 452.4 5.65 69.91 3 199.59 6.16 203.57 6.52 8.08 84.32-2.58 84.32-2.58l.52 25.49 3.08-.12 34.2 272.92L600.65-37 608-199.41l25.52-8.68 25.2 171.46L819-44.6l-15.33-270.59 4.57-.59-3-78.56 9.36 36.6c25.12.15 90.23-.41 90.88-10.27.8-12.22-22.67-107.71-28.25-188.99z" fill="none"/></clipPath><clipPath id="b"><path d="M410.65 807.61s5.34 199.1 3.83 238.13c-.83 21.49-27.4 142.88-15.09 170.06 0 13-.32 49.48-.32 49.48s80.59 14.31 157.59 13.38c137.52-1.65 248-12.3 248-12.3s-4.69-43-5.46-56.63c14.49-25-15-164.89-16.77-234.84-1.22-47.59-16.09-167.28-16.09-167.28s42.22-47.43 35.08-221.16C801.55 583.36 655 529 655 529s-17.69 52.06-66.25 52.06-95.48-52-95.48-52-84.27 49.44-149.34 91.7c-32.06 58.09 66.72 186.85 66.72 186.85z" fill="none"/></clipPath></defs><g clip-path="url(#a)"><path fill="#262521" d="M284.4-1072.12h693.28V55.9H284.4z"/><path fill="#3f4954" opacity=".6" d="M337.85-1068.78h10.25V18.33h-10.25zM317.34-1068.78h10.25V18.33h-10.25zM358.43-1068.78h10.25V18.33h-10.25zM378.92-1068.78h10.25V18.33h-10.25zM399.49-1068.78h10.25V18.33h-10.25zM420.76-1068.78h10.25V18.33h-10.25zM441.34-1068.78h10.25V18.33h-10.25zM461.83-1068.78h10.25V18.33h-10.25zM482.41-1068.78h10.25V18.33h-10.25zM503.73-1068.78h10.25V18.33h-10.25zM524.3-1068.78h10.25V18.33H524.3zM648.2-1068.78h10.25V18.33H648.2zM627.69-1068.78h10.25V18.33h-10.25zM668.78-1068.78h10.25V18.33h-10.25zM689.26-1068.78h10.25V18.33h-10.25zM709.84-1068.78h10.25V18.33h-10.25zM731.11-1068.78h10.25V18.33h-10.25zM751.69-1068.78h10.25V18.33h-10.25zM772.18-1068.78h10.25V18.33h-10.25zM792.76-1068.78h10.25V18.33h-10.25zM814.07-1068.78h10.25V18.33h-10.25zM834.65-1068.78h10.25V18.33h-10.25zM856.11-1068.78h10.25V18.33h-10.25zM876.69-1068.78h10.25V18.33h-10.25zM897.3-1068.78h10.25V18.33H897.3zM544.79-1068.78h10.25V18.33h-10.25zM565.37-1068.78h10.25V18.33h-10.25zM586.33-1068.78h10.25V18.33h-10.25zM606.9-1068.78h10.25V18.33H606.9z"/></g><path fill="#262521" stroke="#262521" stroke-linecap="round" stroke-linejoin="round" stroke-width="3" d="M417.38 1245.48l20.35 58.97 351.31-21.32-2.1-56.62-369.56 18.97z"/><path d="M421.22 1019s-11.62 57.38-21.45 88.33-13.09 105-15.36 135.22c-1 12.66 4.65 27 4.65 27l-61 1.5c-16.33-18.74-8.92-129.52-14.45-197.94A619.79 619.79 0 01317.25 945s-18.05-297.29 26.68-324.24 148.41-94.52 149.37-91.67c4.12 12.15 19.69 50.63 84.76 52.13C653.4 583 655 529 655 529s135.55 50.34 146.43 57.44c38.3 25 52.89 331.94 52.89 331.94s19 68.76 22.88 124.63c5.58 81.26 18.66 177.57 17.85 189.79s-5.3 18.89-5.3 18.89h-58.1s-1.25-8-2.89-34.36c-2.47-39.8-31-134-48.07-177.22" fill="#fff" stroke="#262521" stroke-linecap="round" stroke-linejoin="round" stroke-width="3"/><path d="M834 1212.88s32.63-3.84 54.36 0M478 546.43s21.5 56.9 100.8 56.9 94.27-62 94.27-62" fill="none" stroke="#636363" stroke-linecap="round" stroke-linejoin="round"/><path d="M410.65 807.61s5.34 199.1 3.83 238.13c-.83 21.49-27.4 142.88-15.09 170.06 0 13-.32 49.48-.32 49.48s80.59 14.31 157.59 13.38c137.52-1.65 248-12.3 248-12.3s-4.69-43-5.46-56.63c14.49-25-15-164.89-16.77-234.84-1.22-47.59-16.09-167.28-16.09-167.28" fill="#fff" stroke="#262521" stroke-linecap="round" stroke-linejoin="round" stroke-width="3"/><path d="M798.65 585.23c-10.44 28.64-25.94 77.85-18.2 99.48 11.27 31.47 11.91 71.3 44.66 67.12a138.06 138.06 0 0116-1M767.71 812.37s19.74-2.21 40 2.71c12.43 3 25.7 7.79 39.18 11.31M770.5 836.51s16.38 15.08 35.29 31.36c8 6.9 26.94 8.77 46.11 8.65M775.29 885.4s18.37 32.85 32.51 34.3c6 .62 25.51-.12 46.78-.47M780 935.15s16.93 36.86 57.64 29.62a131.13 131.13 0 0127.44-1.65M783.91 991.48s13.9 15.66 36.19 10.55c10.7-2.46 32-1.57 52.42 1.11M786.94 1025.58s20.8 9.79 48.92 6.74c11.12-1.21 26.36.5 40.73 3M790.53 1059.61s6.93 12.5 33.43 7.22c15-3 36.68-4.42 54.71-3.66M797.29 1088.43a36.27 36.27 0 0032 1.66c9.72-4.22 31.86-5.64 51.42-3.76M812 1133.8s22.82 9.3 50.68-2c7-2.82 14.55-3.13 22-2" fill="none" stroke="#262521" stroke-linecap="round" stroke-linejoin="round" stroke-width="1.78"/><path d="M854.06 1212.53s-8 27.74-24.21 17.3M862.63 1211.58s-7.19 33.2-29.16 36.29M866.9 1212s-6.71 32.7-13.87 38.49M871.26 1211.86s-2.92 15.87-3.63 22-7.29 15.16-7.29 15.16M881 1213.74s-7.9 9.42-7.23 15.79-5.41 20-5.41 20M884.82 1214.94s-7 9.22-6.74 15.62-5.55 19.41-5.55 19.41M886.11 1216.19a57.16 57.16 0 00-5.75 18.07 30.41 30.41 0 002.92 17.41M890 1216.51s-10.09 14.44-3.21 35.19M894 1220.45s-10.34 14.7-2.36 26.69" fill="none" stroke="#262521" stroke-linecap="round" stroke-linejoin="round" stroke-width="1.95"/><path d="M409 818.6s-19.84-.68-39.7 5.78c-17.44 5.68-36.4 15.09-55.52 19.26M410.85 853.35S398 865.9 380.18 883.6c-10.16 10.11-40.73 12.65-65.1 13M411.75 913.06c-6 10-15.08 22.71-23.4 24.21s-42.44 2.39-71.26 4.93M413.55 948.21s-11.93 36.15-53 32.06c-15.41-1.53-31.93.54-46.56 3.72M413.84 1004.8a37.79 37.79 0 01-21.11 2.72c-16.35-2.45-56.2 4.55-80.86 12.67M414.34 1031.88s-20.09 11.37-48.35 10.5c-14.9-.46-36.77 4.81-54.12 9.9M410.14 1070.32s-16 16.34-42.81 13.12c-14.59-1.76-35.38-1.6-52.94.35M400 1106.56s-22.15 14.11-40 7.92c-8.76-3-27-3.18-44.38-.87M392.77 1141.15s-19.55 10.94-48.08 1.85c-9.23-2.94-19.23-1.62-28.54 1.5" fill="none" stroke="#262521" stroke-linecap="round" stroke-linejoin="round" stroke-width="1.78"/><path d="M361.37 1231.45s7.26 24.74 22.76 14.21M352.75 1231.23s9.27 29.16 31.4 30.29M348.52 1232s8.76 28.74 16.26 33.39M344.16 1232.12s3.9 14 5 19.43 8.24 13 8.24 13M334.55 1234.52s8.48 7.85 8.21 13.58 6.66 17.5 6.66 17.5M330.81 1235.88s7.52 7.73 7.71 13.47 6.77 17 6.77 17M329.6 1237.09a47.64 47.64 0 016.88 15.73c1.92 8.82-2.61 18-2.61 18M325.73 1237.67a39 39 0 015 32.87M322 1241.49s10.79 13.72 3.59 25" fill="none" stroke="#262521" stroke-linecap="round" stroke-linejoin="round" stroke-width="1.85"/><path d="M368.54 605.07c7.49 23.06 16.88 57.1 13.69 80-5.1 36.57-7.07 68.77-39.22 81.35-9.39 3.67-19.4 7-28.87 10" fill="none" stroke="#262521" stroke-linecap="round" stroke-linejoin="round" stroke-width="1.78"/><path d="M822 1176.2s40.87-15.52 68 1" fill="none" stroke="#262521" stroke-linecap="round" stroke-linejoin="round" stroke-width="1.95"/><path d="M316.78 1188.52s54.91-11.1 70-2.15" fill="none" stroke="#262521" stroke-linecap="round" stroke-linejoin="round" stroke-width="1.78"/><g clip-path="url(#b)" stroke="#262521" stroke-linecap="round" stroke-linejoin="round"><ellipse cx="597.07" cy="981.35" rx="21.3" ry="20.16" transform="rotate(-89.02 597.08 981.352)" stroke-width="1.78" fill="none"/><path d="M598.26 1017.42c12.68-.49 37.3-9.33 36.7-27.72-1.35-41-29.26-56.65-39.46-56.26s-37 18.16-35.67 59.16c.6 18.4 25.74 25.31 38.43 24.82z" fill="none" stroke-width="1.78"/><path d="M598.56 1025.25c32.16-1.24 53-14.59 35.46-66.64-15-44.4-37.15-45.35-39.1-45.28s-25.13 2.45-36.11 48.19c-12.95 53.92 7.59 64.98 39.75 63.73z" fill="none" stroke-width="1.78"/><path d="M599.08 1034a54.69 54.69 0 0049.48-37.54c5-14.82-8.67-40.71-14.81-60.44-14-44.78-37.24-45.35-39.19-45.28h-.38c-1.95.07-25.14 2.44-36.12 48.19-4.83 20.14-16.78 47-10.81 61.42a53.92 53.92 0 0051.83 33.65z" fill="none" stroke-width="1.78"/><ellipse cx="587.35" cy="677.1" rx="55.89" ry="30.8" transform="rotate(-2.36 586.394 676.023)" stroke-width="1.78" fill="none"/><path d="M635.51 1017.75c19.87 0 25.13-14.51 25.4-24s-22.29-61-35.18-91.4-32.28-31.2-32.28-31.2-18.75 2.26-29.6 33.59-30 84.43-29.09 93.89 7.09 23.5 26.91 22" fill="none" stroke-width="1.78"/><path d="M649 1014.74c20.74 1.72 21.4-20.39 16.87-29.83s-29-72.7-41.41-102.44-31.66-30.72-31.66-30.72-18.63 2.44-29 33.06-30.67 95.61-34.57 105.38-1.79 31.81 18.77 28.45" fill="none" stroke-width="1.78"/><path d="M655.58 1014.4c10.21 7.13 26-6.06 18.58-24.66s-39.31-98.06-51.37-128.82-30.32-28-30.32-28-18.39-1.29-28.4 30.31-36.59 113.33-42.79 132.46 10.44 31.06 20.16 23.16" fill="none" stroke-width="1.78"/><path d="M663.79 1016.3c18.09 10.72 19.8-15.66 14.67-27.64s-46-122.15-57.38-151-29.64-27.77-29.64-27.77-17.69.33-27.2 30-43 142.69-47.32 155-.89 38.52 16.45 26.43" fill="none" stroke-width="1.78"/><path d="M674 1018.71c7.06 9 22.36 1.68 8.82-29.93s-47.18-129.53-59-166.56-33.41-43-33.41-43-20.61 7.58-29.95 45.42S524 962.79 512.57 995.36s4.31 38.66 10.76 29.17" fill="none" stroke-width="1.78"/><path d="M687.77 1004.85c-.82-22.86-34.68-103.78-39-116.25S625 810 614 768.51s-24.86-37.11-24.86-37.11-14.08-3.32-22.36 38.93S543.47 880 540 892.8s-32 96.11-31.27 119" fill="none" stroke-width="1.78"/><path d="M525.94 609.52s-40.88 39.61-39.83 71.48-1.46 46.09 27.38 53.22 48.25 10.69 42.4 59.95-31.42 132-39 154.05c-16.6 48.55-8.37 68.62-8.37 68.62" fill="none" stroke-width="1.78"/><path d="M509.71 590.7s-50.87 45.3-51.61 88.72 1.48 63.89 29.38 64.52 54.1-1.3 61.25 24.47-10.05 96.88-17.73 117.16-36.92 80.78-34.5 114.43 16.84 50.08 14 77.35-26 66.08 12.29 88.38c0 0-20.24 9.8-20.27 18.56 0 8 1.88 25.58 9.22 32.94" fill="none" stroke-width="1.78"/><path d="M443.05 638c-12.26 40.21-14.05 109.91 12.53 112.88s81.48-4.86 85.37 15 16.2 48.79-20.13 127.68-39.59 94.93-37 124.27 11.32 48.42 11.42 67.83-24.3 57.69 13.8 80.08c0 0-20.5 8.58-20.48 19.06 0 7.08 5.41 22.66 8.9 32" fill="none" stroke-width="1.78"/><path fill="none" stroke-width="1.7" d="M461.52 1216.79l-47.61 52.49M524.11 1218.91l-54.12 60.37M575.5 1218.95l-61.24 66.5M613.44 1218.44l-64.11 68.06M650.66 1217.09l-61.37 67.66M692.62 1214.7l-63.01 69.02M724.47 1211.3l-64.06 70.46M751.3 1210.44l-59.89 68.89M786.36 1205.65l-59.44 69.22M801.11 1221.13l-46.13 51.78M802.64 1251.7l-14.95 16.48"/><path d="M417.69 677.06s-19.77 81.87 37.21 83 78.34-3.75 83.69 17.65 7.1 68.77-29.39 113.77-42.46 149.5-36.5 171.89 10.35 28.85 7.73 44.4-4.26 43.11 12.75 58.58c0 0-17.74 6.2-17.44 15.57.27 8 2.7 24.11 7.86 34.39" fill="none" stroke-width="1.78"/><path d="M398 726.54s-1.46 41.83 35.27 40.93 81.18-9.55 94.06 4.33 19.07 51.27-4.45 82.66-60.45 69.25-60.46 126.17-2 82.49 3.23 98.4-2 38.58-.7 49.48 4.29 29.72 16.5 36.45c0 0-20.25 9.85-19.35 17.46.77 6.5.85 20.94 5 33.13M402.31 563.21s30.25 48.11 27.13 90.81M461.56 560.92s4.36 21.2 10.88 27" fill="none" stroke-width="1.78"/><path d="M399.37 771s18.84-.73 11.7 10-6.61 13.27 6.3 12.78" fill="none" stroke-width="1.78"/><path d="M388 818.18s11.6-21.18 42.23-28.72S490 799.5 492 802.59s1.52 15.13-38.29 26.17-59.07 8.61-59.07 8.61M402.93 837.56l24.49 34.02M439.54 787.8l20.74-21.38" fill="none" stroke-width="1.78"/><path d="M461 789.15s19.88-7.41 21.93-5.75 12.33 9.35 11.5 4.45-10.43-17.21-5.43-17.4 12.55 5.56 18.9 12 11.31 16.11 5.44 19.87-13.88-5.82-13.88-5.82l.39 11.63s-21.85 18.11-33.67 23.51-28.32 12 6.69 20.7c0 0-53.09 44.34-54.88 88s31.81 119.92 32.87 152.15c1.38 42-7.14 90.47.58 122.26" fill="none" stroke-width="1.78"/><path d="M485.68 764.22s36.19 6.37 42.17 24.47 7.69 43.34-10.28 58.72-67 61.21-70.49 95.71S457.13 1044 457.59 1058s1.77 33.44.84 45.82-3.49 50.66 13 66.94M573.24 1028.34s1.67 15.08 24.19 13.55 25.84-14.82 25.84-14.82" fill="none" stroke-width="1.78"/><path d="M573.24 1028.34s1.87 21 24.41 20.15 25.62-21.42 25.62-21.42" fill="none" stroke-width="1.78"/><path d="M573.24 1028.34s2 25 24.54 24.11 25.49-25.38 25.49-25.38" fill="none" stroke-width="1.78"/><path d="M629.18 1022.34s4.84 20-7.53 29.18c-19.31 14.35-15.69 5.39-22.43 5.65s-2.54 8.91-22.74-3.9c-12.94-8.21-9.43-28.53-9.43-28.53M601.82 1153.6c35.3-1.37 41.18-30.19 40.94-37.58S619.34 1083 619.34 1083c-8 26.88-15.07 23.57-18.77 23.71s-10.58 4-20.29-22.2c0 0-21.43 27.4-21.18 34.79s8 35.69 43.29 34.32M629.52 1216.45c8.17-3.47 17.69-25.31 17.69-25.31l-25-19.2-41 1.58-23.65 21.09s10.86 20 19.24 22.88" fill="none" stroke-width="1.78"/><path d="M643.77 1016.76s5 12.42-1.7 23.43-10.73 21.5-2.52 36.14 21.59 27 22 40c.66 19.84-11.69 47.61-58.17 49.4s-60.63-25-61.27-44.78c-.42-13 12.11-26.33 19.34-41.57s2.57-25.39-4.87-35.86-3.24-23.23-3.24-23.23" fill="none" stroke-width="1.78"/><path d="M518.31 1028.35s22.5 7.78 23.53 29.79-15.3 53.3-15 72.93 21.23 36.46 37.48 36.14c0 0-30.17 16.64-29.93 23.86l.4 12c.15 4.47 12.27 14.52 12.27 14.52" fill="none" stroke-width="1.78"/><path d="M512.3 1026.86s12 28.16 10 50-12.17 50.08-7.73 66.1 29 23 29 23-25.91 11.26-25.91 21.12c0 9.2-1.09 21.8 9.62 30.47M421.61 863.5s-30.56 47.42-19.88 96.18 39.64 113.48 40.68 145.11c.89 27.12-6.06 80.35-.13 109.35" fill="none" stroke-width="1.78"/><path d="M414.93 854.23s-32.57 56.26-22.55 97.1 39.65 125.43 43.7 150.29c3.54 21.74-7.41 76.15-.33 111.89" fill="none" stroke-width="1.78"/><path d="M409.1 846.14s-31.75 50.86-26.38 96.41 49.12 141.32 50.09 162.75c.83 18.36-7.14 75.1-.89 108.12" fill="none" stroke-width="1.78"/><path d="M385.79 977.44s43.63 113.46 43.62 125.17c0 10-7.13 75.79-1.35 110.52" fill="none" stroke-width="1.78"/><path d="M386.13 987.67s40.7 103.51 40.69 115.21c0 10-7.39 75.55-1.57 110" fill="none" stroke-width="1.78"/><path d="M384.49 990.48s39.75 100.8 39.74 112.5c0 9.9-7.2 74.73-1.74 109.7" fill="none" stroke-width="1.78"/><path d="M384.71 997.4s37 94.51 36.94 106.21c0 9.9-7.22 74.08-1.77 108.85" fill="none" stroke-width="1.78"/><path d="M406 1211.42c3.9.38 7.2.34 11.11.59-5.36-34.84 2.55-98.06 2.56-108 0-11.7-33.08-95.75-33.08-95.75s-.45 135.86 8 202.57c3.71.45 7.55.23 11.41.59z" fill="#262521" stroke-width="1.78"/><path d="M644.48 604.94s43.37 36.36 44.42 68.24 4.48 45.86-23.81 55.19-47.43 14.39-38.36 63.07 40 129.26 49 150.66c19.75 47.14 12.86 67.8 12.86 67.8" fill="none" stroke-width="1.78"/><path d="M659.44 584.91s53.71 41.26 57.3 84.52 2.72 63.84-25.07 66.62-54 2.88-59.49 29.14 16.39 95.81 25.34 115.49 42.17 77.73 42 111.42-13.5 51.26-8.93 78.24 30.23 63.92-6.45 89.11c0 0 20.84 8.21 21.44 16.94s-.36 29.16-9.17 35.57" fill="none" stroke-width="1.78"/><path d="M729 627c14.87 39.12 21.23 108.51-5.09 113.53S642.36 742 639.77 762s-12.95 50 28.46 125.85 45.77 91.63 45.07 121.09-8.12 49.17-6.94 68.54 28 55.67-8.51 81c0 0 21 7 21.68 17.42s-7.87 36.18-7.87 36.18" fill="none" stroke-width="1.78"/><path d="M756.89 664s25.1 80.14-31.67 85.64-78.38 2.32-82.32 24.07-2.57 69.14 36.79 111.21 52.16 145.85 47.69 168.65-8.44 29.56-4.8 44.87 7.08 42.68-8.87 59.42c0 0 18.1 4.82 18.41 14.18s-1.12 29.56-7.65 39.31" fill="none" stroke-width="1.78"/><path d="M779.82 711.79s4.2 41.61-32.49 43.54-81.6-3.26-93.55 11.59-15.65 52.61 9.88 82.1 64.84 64.41 68.59 121.18 7.41 82.13 3.23 98.41 4.49 38.33 3.94 49.3-2.32 30-14.06 37.63c0 0 20.85 8.25 20.45 15.92s.86 24.68-4.9 38.19M764.76 549.21s-27 50.32-21.11 92.67M705.51 551.5s-3 21.48-9.08 27.78" fill="none" stroke-width="1.78"/><path d="M781.33 756.26s-18.84.73-11 10.88S779 780.45 766.1 781" fill="none" stroke-width="1.78"/><path d="M795.76 802.43s-13-20.26-44-25.39-58.94 14.62-60.76 17.86-.52 15.21 39.91 23.15 59.49 4 59.49 4M782.15 822.91l-22.2 35.82M742.36 776.1l-22.09-19.72" fill="none" stroke-width="1.78"/><path d="M721 779.1s-20.31-5.85-22.26-4-11.68 10.28-11.18 5.33 9.27-18 4.35-17.79-12.15 6.52-18.06 13.43-10.23 16.94-4.12 20.23 13.45-6.87 13.45-6.87l.39 11.63s22.91 16.39 35.08 20.86 29 9.77-5.32 21.17c0 0 55.87 40.13 60.52 83.5s-23.86 122.07-22.8 154.3c1.47 44.62 14.58 95.75 6.17 127.93" fill="none" stroke-width="1.78"/><path d="M694.8 756.14s-35.69 9.14-40.46 27.67-4.83 43.81 14.11 57.77 70.8 55.89 76.59 90-3.4 101.36-2.94 115.45.43 33.49 2.17 45.77 6.8 50.26-8.59 67.77M679.58 1022.12s-21.92 9.49-21.51 31.53 18.76 52 19.7 71.59-18.78 38-35 38.94c0 0 31.18 14.27 31.42 21.49l.39 12c.15 4.47-11.22 16.43-11.22 16.43" fill="none" stroke-width="1.78"/><path d="M685.49 1020.17s-10.15 29-6.72 50.59 15.42 49 12.05 65.35-27.41 25.17-27.41 25.17 26.58 9.23 27.23 19.07 2.8 23.48-10 33.13M765.22 850.23s33.6 44.94 26.14 94.4-32.09 116.25-31.05 147.88c1 29.23 13 88 6.1 115.48" fill="none" stroke-width="1.78"/><path d="M771.28 840.46s36.18 53.61 28.86 95.11-31.32 128.18-33.72 153.28c-2.24 23.4 14.35 82.49 6.49 118.43" fill="none" stroke-width="1.78"/><path d="M776.55 832s35 48.31 32.65 94.12-39.72 144.75-39.28 166.2c.4 19.7 13.79 82.62 6.86 114.62" fill="none" stroke-width="1.78"/><path d="M808.43 961.11s-36.08 116.55-35.3 128.22c.71 10.67 13.78 84.62 7.62 117.16" fill="none" stroke-width="1.78"/><path d="M808.76 971.34s-33.81 106.39-33 118.06c.72 10.73 14.11 84.63 7.76 116.8" fill="none" stroke-width="1.78"/><path d="M810.58 974s-33 103.61-32.25 115.28c.7 10.58 13.77 83.37 8 116.35" fill="none" stroke-width="1.78"/><path d="M810.81 980.94s-30.65 97.12-29.87 108.79c.71 10.62 13.86 83.27 7.93 115.9" fill="none" stroke-width="1.78"/><path d="M809.71 992s-27.49 86.35-26.71 98c.7 10.57 14 82.66 8.32 115.57a82.72 82.72 0 009-.38c3.3-.37 6.43-1.58 9.65-2.37a1 1 0 011.23.7c.36 2.48-.18 4.89-.27 7.36 0 .83 0 1.66-.08 2.48l2.45-.12c10.49-49.36-3.59-221.24-3.59-221.24z" fill="#262521" stroke-width="1.78"/></g><path d="M324.4 1233.82s33.77-6.06 55.73-3.82M419 1213s154.9 15.78 370.08-6.62" fill="none" stroke="#636363" stroke-linecap="round" stroke-linejoin="round"/></svg>