<svg xmlns="http://www.w3.org/2000/svg" width="1000" height="1550" viewBox="0 0 1000 1550"><path d="M638.21 849.63c58.38 11.42 118.48-39.89 118.48-39.89s-68.23-217.64-79.93-223.29-142.29-56.21-142.29-56.21-2.49 55-82.84 55c-65.08 0-87-53.89-87-54-1.05.66-133.79 83.87-145.44 89.5-2.17 1-15.49 16.94-15.81 45.24h0c-15.72 64.39-38.08 172.8-38.08 172.8s103.21 50.51 123.26 10.35h0l4.1 7.63-20 406s91.48 25.55 210.72 21.55 195.84-37.18 195.84-37.18l-41.07-397.5z" fill="#fff" stroke="#262521" stroke-linecap="round" stroke-linejoin="round" stroke-width="3"/><path d="M218.93 620.76c-2.81 1.36-24.27 27.5-12.15 73.24" fill="none" stroke="#262521" stroke-linecap="round" stroke-linejoin="round" stroke-width="3"/><path fill="none" stroke="#262521" stroke-linecap="round" stroke-miterlimit="10" stroke-width="3" d="M638.21 849.63l-1.63-12.87 10.17-28.49M241 696.25s12.17 87.67 26.55 114.4l24.8 46.09"/><path d="M642 700.68S625.86 782.15 629.32 807c2.52 18.07 5.39 21.3 7.26 29.77M688.88 647.07s6.82-23.29-2.08-41.13" fill="none" stroke="#262521" stroke-linecap="round" stroke-miterlimit="10" stroke-width="3"/><path d="M276.32 1069.37c2.6-12 4.6-25.5 7.12-30.88 1.79-36.42 8.94-181.75 8.94-181.75l-4.11-7.63c-20.13 32-85.17 5-85.17 5l.24 27.76c98.58-27.74 72.87 185.32 72.98 187.5zM714.76 855.59l-2.3-18.17c-35.9 20.67-74.55 12.21-74.55 12.21s12 143.46 18.39 179.36a73.22 73.22 0 014.91 9.78c-1.01-10.86-22.44-178.98 53.55-183.18zM304.15 720.93l23-.32c20.86-.3 38.7 8.22 39.11 37.54.43 30.36-17.46 39.37-38 39.66l-23 .33zM329.07 781c14.31-.2 18.49-6.73 18.27-22.38-.2-14.29-4.65-20.91-19.06-20.71l-5 .07.61 43.09zM372.74 758.58c-.39-28.28 17-40.31 33.94-40.55s34.57 11.31 35 39.58-17 40.31-33.84 40.55-34.7-11.31-35.1-39.58zm49.95-.7c-.2-14.19-5.91-22.77-15.77-22.63s-15.42 8.87-15.22 23.06 5.92 23.3 15.87 23.16 15.32-9.4 15.12-23.59zM450.87 718.87l18.67-.26 26.29 42.94h.17l-.6-43.3 17.34-.24 1.08 77.2-17.53.25-27.43-42.82h-.19l.61 43.2-17.35.24zM530.08 736.55l-6.25.08-.27-18.78 18.68-.26.24 17.11-8.16 20.14-8.72.13zM568.54 734.55l-20.19.28-.24-17.32 59.34-.83.24 17.32-20.19.28.84 59.89-19 .27z" fill="#262521"/></svg>