<svg xmlns="http://www.w3.org/2000/svg" width="1250" height="1550" viewBox="0 0 1250 1550"><path d="M397.45 1202.23l-1 2.43q-3.54 8.55-7.09 17.09a3.24 3.24 0 00-.16.53v.48a2.43 2.43 0 000 .38V1223.43a2.38 2.38 0 001.46 1.8l7.24 2.53a2.69 2.69 0 003.67-2c.24-.84.48-1.68.73-2.53q2.55-8.88 5.11-17.78a2.64 2.64 0 00-1.52-2.83l-5-1.74a2.68 2.68 0 00-3.44 1.35zm-.5 12.56l2.5.83a1.76 1.76 0 011.11 2.21l-1.52 4.61a1.77 1.77 0 01-2.22 1.12l-2.5-.83a1.76 1.76 0 01-1.11-2.21l1.52-4.61a1.77 1.77 0 012.27-1.12zM807.23 1192.29l-4.88 2a2.63 2.63 0 00-1.36 2.91l6.06 17.48.86 2.49a2.69 2.69 0 003.77 1.77l7.09-2.92a2.38 2.38 0 001.36-1.87.43.43 0 000-.11v-.19a2.38 2.38 0 000-.38v-.11a2.58 2.58 0 00-.06-.37 1.84 1.84 0 00-.19-.51q-4-8.35-8-16.69l-1.14-2.37a2.68 2.68 0 00-3.51-1.13zm7 14.65l1.77 4.52a1.75 1.75 0 01-1 2.27l-2.45 1a1.75 1.75 0 01-2.27-1l-1.77-4.52a1.75 1.75 0 011-2.27l2.45-1a1.75 1.75 0 012.26 1z" fill="#70706e"/><path d="M800.54 1223.65c19.84 21.91 11.73 172.38 11.73 172.38s-10.62-52.62-153.93-31.21c-67.82 10.14-138.9-7.88-155.85-2.85-68.94 20.48-84 40-84 40s-18.71-26.33-15-157.13z" fill="#596166" stroke="#262521" stroke-linecap="round" stroke-linejoin="round" stroke-width="3"/><path d="M877.23 1043c-3.83-55.87-22.88-124.63-22.88-124.63s-14.59-306.95-52.89-331.94c-10.88-7.1-142.29-56.21-142.29-56.21s-2.49 55-82.84 55c-65.08 0-82.1-39.23-86.21-51.38a10.79 10.79 0 01-.75-2.59c-1 .65-100.94 62.69-145.44 89.5C299.2 647.71 317.25 945 317.25 945a619.79 619.79 0 00-3.6 128.12c5.53 68.42-1.88 179.2 14.45 197.94l61-1.5s-5.6-14.35-4.65-27c2.27-30.22 5.53-104.27 15.36-135.22s21.45-88.31 21.45-88.33c.49 23.68.3 42.23-1 50.33-3.6 21.92-31.66 102.78-17.78 133.07-3.34 29.28-5.68 57.36-5.68 57.36s71 13.89 148 13c137.53-1.66 264.08-24.63 264.08-24.63s-1.48-25.34-4.52-50.16c9.94-22.62-4.2-83.52-17.92-143 17.07 47.16 40.25 126.63 42.46 162.33 1.64 26.39 2.89 34.36 2.89 34.36h58.1s4.48-6.67 5.3-18.89-12.38-108.5-17.96-189.78z" fill="#262521" stroke="#262521" stroke-linecap="round" stroke-linejoin="round" stroke-width="3"/><path fill="#565c63" d="M525.27 756.67l-3.49-15.43-1.28 15.5 4.77-.07zM511.95 759.71l-15.17-9.72 12.11 12.27 3.06-2.55zM504.85 767.38l-14.91 1.75 13.95 1.53.96-3.28zM504.03 774.09l-10.53 2.93 10.65.22-.12-3.15z"/><path d="M528.26 756c-11.31-3-32.75 9.5-22.8 27.12 0 0-1.38 3.11-.88 5.28s-2.36 7.17-2.36 7.17-4.51-2.26-3.84-4.12a6.25 6.25 0 00-.24-4s0-5.85-2.32-5.76-2.08-4.69-4.23-4.48c-28.5-8.83-31.7 52.77-13.39 44.08-4.67 10.72.05 6.67 7.05 15.22-3.81 9.87 4.05 6.58.16 13.42-1.27 1.88-.88 5.77 2.57 6.61s7.95 13 7.95 13c-1.45 2.93-16.95 38.76 3.1 36.12 2.74 7.1-6.91 17.73-1.37 27.75 5 6 7.9 33.09 6 39.42-.9 1.87-1.71 6.29.78 7.42-6.05 15.57 1.48 34.43-.21 45.15-1.29 1.27-3.62 4.29.22 8.78 0 0-1.43 15.37-9.13 22.65l48.12-1.86-.32-8.5 2.55-.1z" fill="#d3d3d3"/><path d="M473.92 794.32c-2.38 4.85-6.28 10.22-4.94 15.59 3.6-3 4.21 2.39 4.69 5 4.39-2.89 5-8.6 7.13-13 3.62-7.24 9.25-16.6 7.19-25a16.94 16.94 0 00-10.07 2.06 38.57 38.57 0 01-4 15.35z" fill="#a7aaaf"/><path d="M495.93 869.5s-.54 1.24-1.32 3.22c1 5.48-1.16 11.06-1 16.59-.48 5.89 4.31 11.05 4.6 16.42a6.76 6.76 0 00.83-.11 7.79 7.79 0 01.24.92c2.53-8.35 2.37-17.34 6.85-25.11-7.54 12.36-5.85-2.76-2.09-7.67 8.78-13.9 22.2-24.51 28.9-39.84l-3.31-55-2.11.05c-.91 3.21-.43 7.19-1.15 10.66a10.28 10.28 0 011.45 6.32 1.26 1.26 0 011.35 1.18c.35 5.68-8.08 4.08-11.33 2.53-3.65-2.9-5.18-9.72-2.76-13.78 1.64-2.74 5.21-1.2 7.19-3 0-.56-.09-1.12-.15-1.69a35.3 35.3 0 00-5.77 1.51c-1.51.54-2.18-1.75-.74-2.34s4.17-3 6.31-3c2.13-1.24 5.13-.67 7.56-.94l-.14-2.29c-2.15-.6-4-2-6-2.94-1.45 2-7.08 11-9.36 6.86-.36-3.69 0-8.69 3.15-11.17 3.37-2.38 7.83-1.22 11.68-1.22l-.33-5.43c-4.56-3-12.06 2.49-14.49-2.13-8.19 3.09-14.68 15-8.54 25 0 0-1.38 3.11-.88 5.28s-2.36 7.17-2.36 7.17-4.51-2.26-3.84-4.12a6.25 6.25 0 00-.24-4s0-5.85-2.32-5.76c-2.75-.39-1.91-5.31-5.34-4.57.75 9.25-5.85 50.59-22.25 38.77 2.68 7.42 8.55 7.75 10 5.4-4.64 10.65 0 6.72 7 15.15 2.18-6.34 2.25-13.37 2.86-20.06a1.23 1.23 0 012.46-.09c.25 5.48-1.68 10.68-1.42 16.15-.2 3-3.24 6.14-2.32 9.1 1.18 2.26-2.72 2.34-2.61 0 0 3.73 4.45 3.5 1.23 8.37-1.27 1.88-.88 5.77 2.57 6.61s7.94 13 7.94 13zm11.2-44.43c.83-3.67.37-7.4.22-11.11 3.72-5.64 2.8 9.84 2.18 11.67a1.23 1.23 0 01-2.4-.56zm3.09 26.18c4.92-10.93-1.76-31.3 11.85-36.44a1.25 1.25 0 011.86 1.55c-4 8.3-2.83 17.85-5.39 26.57-.48 3.23-9.53 26.73-13 21.29-.54-5.07 2.89-8.55 4.68-12.97zm-23.36.58c-1.46-3.71 4.21-7.14 5.75-10.37-2-3.78 3.91-10.38 4.07-15 1-5.14.91-10.42.71-15.63.26-2.24 3.05-1.11 2.49.83 5.81-7.24 2 15.83.88 18 .88 8.08 5 15.56 3.81 23.87-.25 5-1.66 13.14-8.53 11.49-3.44-6.37.21-15.46.41-22.67-.06 2.65-8.37 16.16-9.59 9.48z" fill="#a7aaaf"/><path d="M506.22 932.53c1.54-16 7.72-30.71 12.21-46q7.67-19.51 15.31-39l-.24-4c-4.49 10.34-13.81 17.31-20 26.46-.92 15.06-6.26 29.91-9.67 44.64-1.7 6.56.88 16.45-5.06 21a61.63 61.63 0 013.54 10 73.76 73.76 0 003.91-13.1zM511.6 997.16c3.33-1.43 3.46-6 4.86-8.9 3.66-8.64 10.76-16.59 9.76-26.55-.16-1.58 2.3-1.66 2.45-.09.88 9.35-4.75 17.45-8.89 25.36-4.66 10.56-9.36 20.66-11.3 32.25 23.21 4 22.8-71.09 30.42-86.08l-3.54-58.73a166.21 166.21 0 00-9.49 40.39c-.81 12 1.51 25.12-5.45 35.7-2.2 16-2.74 18.77-17.09 28.6a2.5 2.5 0 001.15 1.1v.11c9.69-2.87 3.16 5.56-1.53 6.85-.33 1.82-.64 3.84-.85 5.9 2.84 1.65 5.98 4.47 9.5 4.09zm14.6-58.22c7.62-11.56 7.14-25.82 6.62-39.09a1.23 1.23 0 012.46-.1c.53 13.69.94 28.43-6.91 40.35-.87 1.31-3.04.16-2.17-1.16zM527.64 1027v.23c.86-2 1.81-4.73 1.62-6.93-.8 2.17-1.05 4.44-1.62 6.7z" fill="#a7aaaf"/><path d="M539.3 939.82a64.75 64.75 0 00-1.63 6.45c-3.74 18.09.72 51.88-9.91 66.3-5.78 6.84-8 15.94-15.64 21.51-3.24 9.21-10.78 15.49-16.76 22.71l7.18-.28a70.39 70.39 0 0010.1-17.42c.55-1.46 3-.92 2.39.56-.29.78-.61 1.54-.94 2.31.52 4.88-1.17 9.81-3.13 14.23l11.78-.46c8.74-13.59 13-30.55 12.93-46.62 6.62-9 .43 44.78-3.52 46.26l11.33-.44-.32-8.5 2.55-.1zm-11.52 92.74c-1 1.65-7.37 14.43-8 8a71.14 71.14 0 005.54-14.41c.55-3.62-.59-7.41 1.44-10.78.91-1.45 2.59 0 3.34.81 3.72 4.68.01 11.82-2.32 16.38z" fill="#a7aaaf"/><path d="M511.13 1048.3c-.88 2.08-1.66 4.21-2.74 6.19a1.34 1.34 0 01.48.44 36.51 36.51 0 002.26-6.63zM506.09 875.11a25.38 25.38 0 00-2.35 5.49c4-5.94 7.33-12.41 12-17.83a1.64 1.64 0 01-.25-.19 74.14 74.14 0 00-9.4 12.53z" fill="#a7aaaf"/><path d="M492.74 779.62c.16.76-.07 2.92.63 3.26 2.22-.13 2.95 2.52 2.4 4.32-3.61 8.35 5.9 3-5.86 19.37 9.64-2.6 2 14.44 7.21 12 2.2-3 4.34-6.78 8.68-6.66 7.2-.15 5.38 7.7 4.32 12.32 2.87-3 2.33-8.55 5.27-11.22.82-.27 1 1.45 2.1.75s-.73-3.21.19-3.8 3.39 3.12 4.56 2.88-1.87-5.08-1.58-6.93c2.89-7.1 9.21 3.06 11 6.26l-.77-12.72c-1 0-9.79 2-12.43-.36-3.42-3.75-3.08-16.78-4.56-19.68-9.93 5.43-5.79-6.58-.88-9.62a22.07 22.07 0 01-3.06-5.77c-5.82 4.18-8.88 12.5-4.46 19.08 0 0-1.38 3.11-.88 5.28s-2.36 7.17-2.36 7.17-4.51-2.26-3.84-4.12a6.25 6.25 0 00-.24-4s0-5.85-2.32-5.76c-2.13.08-2.11-3.94-3.76-4.43.21.76.47 1.57.64 2.38zM476.63 793.65c-.76 2.47-2.92 4.11-4.56 6a10.43 10.43 0 00-2.07 3.25 7.24 7.24 0 00-.09 4.2.92.92 0 001.78-.48 5.35 5.35 0 01.2-3.51 10.27 10.27 0 012-2.81c1.75-1.87 3.68-3.63 4.46-6.16.35-1.13-1.42-1.62-1.78-.49z" fill="#565c63"/><path d="M476.72 793.94c-1.14 7-5.88 14.18-3.2 21.4.4 1.1 2.19.62 1.77-.49-2.52-6.82 2.13-13.78 3.21-20.42.18-1.16-1.59-1.66-1.78-.49z" fill="#565c63"/><path d="M476 799.36c-.08.9-.13 1.8-.14 2.71a11.35 11.35 0 00.15 2.25 1.76 1.76 0 001.08 1.51c.81.26 1.45-.43 1.87-1a9.66 9.66 0 00.72-1.19c.34-.65.64-1.31.93-2a1 1 0 00.09-.71.91.91 0 00-1.13-.64.87.87 0 00-.55.42c-.3.69-.61 1.37-1 2a8.4 8.4 0 01-.75 1.21l.15-.19a2.28 2.28 0 01-.37.39l.19-.14-.17.1.22-.1h-.11.25-.08.24-.08l.22.09h-.07l.19.14-.08-.08.14.18a1.32 1.32 0 01-.12-.2l.1.22a2.83 2.83 0 01-.18-.75v.25a17 17 0 010-3.35c0-.38 0-.77.08-1.15a.91.91 0 00-.27-.65.92.92 0 00-1.57.65z" fill="#565c63"/><path d="M460.81 728.62s1.46 29.07 7.51 39.16c0 0 6 13.52 6.07 15.54s.44 11.52 2.88 11.83c0 0-1.28 8.55.39 10.1s14.95-21.62 14.82-24.85C489 770.06 480 743 475.81 732.89c-1.52-4.39-5.8-26.81-5.8-26.81z" fill="#d3d3d3"/><path d="M469.28 730.2c2.06 8.73 6.68 17.2 7.22 26.22 2.26 11.39 9.37 21.06 12.63 32.08 6.34-10.13 1.42-10.12-1.2-21.08-1-6-10.6-30.14-12.12-34.53s-5.8-26.81-5.8-26.81L464.32 720c.43 11.18 2.41 5.39 4.96 10.2z" fill="#565c63"/><path fill="#474640" d="M478.61 630.07l-36.17 60.65 12.43 6.95-11.79 38.75 17.61.9 20.73-69.51-15.74 5.44 12.93-43.18z"/><path d="M449.38 711.25a7.91 7.91 0 002.65-1.49c.14-.1.3-.08-.17.06l.37-.12c.13-.05-.35 0-.22 0h.46-.09a4.47 4.47 0 012.09.74c4.89 2.52 4.22-4.8-2.6-4.43-1.13-.09-2.94 1.39-3.29 1.61.3-.14 0 0 0 0-2.58.47-1.67 4.38.8 3.63z" fill="#cfd1d3"/><path d="M451.66 706.12a14 14 0 011.83 0 17.11 17.11 0 013 .66c.09 0 .69.2.22.07a14.49 14.49 0 012.39 1.21c2.07 1.16 3.83-2.11 1.73-3.25-2.7-1.42-9.82-4.74-11-.49a1.88 1.88 0 001.83 1.8z" fill="#cfd1d3"/><path d="M452.58 701.68c.21-.13.43-.24.64-.35-.47.21.63-.26.87-.29l.47-.11c.25 0-.37.05-.12 0a7 7 0 011.51-.07h-.12a7.75 7.75 0 011.65.38c-.48-.19.62.25.82.41s.59.4.17.1c4.59 1.94 4.26-4.54-2.78-4.56-2.14-.05-7.06.89-5.65 3.92a1.87 1.87 0 002.54.56z" fill="#cfd1d3"/><path d="M453.87 708c-2.4 0-4.59 1.27-6.81 2 .93 2.38 3.59.88 4.94-.25h-.14a.7.7 0 00.2-.08H452.47h-.16c1.84.09 4.41 3 5.34 0a6.25 6.25 0 00-3.78-1.67zm.49 2.44l.06.05c-.08-.07-.24-.21-.06-.07zM456.56 705c-2.17-.7-4.49-.28-6.74-.28.79 2.37 5.7 1 6.85 2.14 1.48.4 3 2.27 4.48 1a12.08 12.08 0 00-4.59-2.86zM460.78 701.92a9.84 9.84 0 00-10.93-1.19 2 2 0 003.23.67c-.17.06.1 0 .14-.07h-.06a5.68 5.68 0 014.23-.14c-.24-.11 0 0 .09 0 .22 0 1.54.87 1 .53a1.88 1.88 0 002.3.2z" fill="#a7aaaf"/><path d="M462.34 698.3c6.59 5.06 6.51 14.49 6.79 22.06 0 2.38 3.71 2.23 3.69-.14-.11-8.84-.81-19.64-8.75-25.18-2.07-1.15-3.83 2.11-1.73 3.26z" fill="#565c63"/><path d="M466 700.14c-.6-2-2.34-4-4.56-3.9.3 2.89 4.42 4.17 5.08 7.29a10.81 10.81 0 00-.52-3.39z" fill="#a7aaaf"/><path fill="#d3d3d3" d="M487.304 1057.144l130.423-5.033.442 11.462-130.423 5.033z"/><path fill="#a2a7aa" d="M487.667 1066.561l130.423-5.033.031.81-130.423 5.032z"/><path fill="#565c63" d="M481.3 1072.82l4.39 4.61 132.9-5.14-.34-8.78-130.42 5.05-6.53 4.26z"/><path fill="#474b4f" d="M488.05 1074.88l130.44-5.04-.03-.87-130.42 5.05.01.86z"/><path fill="#a7aaaf" d="M485.598 1077.475l132.9-5.129.435 11.262-132.9 5.129z"/><path fill="#a8abaf" d="M483.126 1088.852l135.819-5.241.434 11.261-135.818 5.242z"/><path fill="#565c63" d="M483.193 1090.855l135.82-5.241.037.98-135.819 5.24zM501.676 1092.74l117.432-4.532.067 1.739-117.432 4.532z"/><path fill="#a7aaaf" d="M468.992 1100.689l150.378-5.804.435 11.262-150.379 5.803zM471.36 1112.106l150.49-6.02.32 8-150.49 6.02z"/><path fill="#565c63" d="M468.982 1100.686l150.378-5.804.08 2.059-150.379 5.803zM469.525 1114.504l150.378-5.803.079 2.059-150.378 5.803z"/><path fill="#97999b" d="M469.426 1111.95l150.378-5.803.099 2.548-150.378 5.803z"/><path fill="#a7aaaf" d="M468.895 1098.198l4.866-.188.53 13.75-4.866.188zM525.269 1096.026l4.866-.188.53 13.75-4.866.188z"/><path fill="#565c63" d="M473.802 1100.499l1.479-.057.434 11.261-1.478.057zM530.236 1098.324l1.479-.057.434 11.262-1.478.057z"/><path fill="#a7aaaf" d="M495.894 1097.168l4.867-.188.53 13.75-4.866.187zM468.895 1098.198l4.866-.188.53 13.75-4.866.188z"/><path fill="#565c63" d="M514.82 1082.22l7.46 3.85.47 12.3-2.62.1"/><path fill="#a8abaf" d="M520.13 1098.47l-.48-12.3-9.67-7.9-9.52 8.65.48 12.29 19.19-.74z"/><path fill="#565c63" d="M505.131 1088.802l9.843-.38.33 8.574-9.842.38zM500.77 1097.09l1.48-.057.525 13.63-1.479.057zM525.79 760.43l.17 4.46a.92.92 0 001.84 0l-.17-4.46a.92.92 0 10-1.84 0zM521.42 760.38l.2 5a.92.92 0 001.84 0l-.2-5a.92.92 0 10-1.84 0zM517.3 761.07a27.24 27.24 0 00.53 5 .92.92 0 001.13.65 1 1 0 00.64-1.14c-.07-.39-.14-.78-.2-1.18a2.51 2.51 0 010-.27c-.05-.3 0 .18 0-.13s-.05-.39-.07-.59c-.08-.78-.12-1.57-.13-2.36a.92.92 0 00-1.84 0zM512.87 763.22l2 4.48a.92.92 0 001.26.33 1 1 0 00.33-1.26l-2-4.48a.92.92 0 00-1.26-.33.94.94 0 00-.33 1.26zM509.9 765.24l2.25 4.08a.92.92 0 101.59-.93l-2.25-4.08a.92.92 0 00-1.26-.33.94.94 0 00-.33 1.26zM521.91 770.88a12 12 0 01-4.83 5.66 22.68 22.68 0 01-3.29 1.87c-1.21.56-2.31 1.28-2.46 2.72a.92.92 0 101.84 0c.05-.39.61-.66.89-.81.53-.29 1.09-.51 1.62-.79a22.86 22.86 0 003.25-2.06 13.53 13.53 0 004.76-6.1c.39-1.12-1.38-1.6-1.78-.49z"/><path d="M522.63 771.32a14.92 14.92 0 005.86 4.22.92.92 0 10.49-1.77l-.14-.06h-.09l-.37-.17-.76-.4a14.27 14.27 0 01-1.39-.89l-.15-.11-.06-.05-.31-.25-.61-.54c-.41-.39-.8-.81-1.17-1.24a.91.91 0 00-1.3 0 1 1 0 000 1.3zM529 779c-2.79-.18-2.83 3.42-2.73 5.34.08 1.44.28 2.88.44 4.31.07.63.14 1.26.18 1.89a9.81 9.81 0 010 1.27l.43-.55a5.05 5.05 0 01-2.27.87l.24 1.81a3.71 3.71 0 002.77-3.29 1 1 0 00-.92-.93 18.15 18.15 0 00-3.44.34v1.84c1.22-.11 2.62-.89 3.82-.51l-.64-.65a6.91 6.91 0 01.62 3.06c-.16 1.11-1.26 1.21-2.19 1.2a.93.93 0 000 1.85 4.23 4.23 0 003.25-1.09 3.56 3.56 0 00.76-2.8 9 9 0 00-.31-1.63c-.15-.52-.29-1.33-.78-1.63-1.33-.82-3.16.23-4.53.36-1.16.11-1.19 1.93 0 1.84a18.14 18.14 0 013.44-.33l-.92-.92a1.87 1.87 0 01-1.42 1.52c-.95.28-.83 1.93.25 1.81a5.67 5.67 0 003.38-1.28 2.57 2.57 0 00.34-1.73c0-1.38-.25-2.76-.41-4.12a24 24 0 01-.23-4.4 3.44 3.44 0 01.31-1.35c.11-.19.12-.18.22-.24-.13.08.05 0 .11 0h.25c1.18.08 1.18-1.76 0-1.84zM516.14 784.84c.79-.59 1.58-1.18 2.42-1.69a12 12 0 011.28-.68c.06 0 .11 0 0 0l.16-.06.32-.11a6.77 6.77 0 01.74-.2l-1-.42c.09.14.17.28.25.43s-.06-.22 0 0a.84.84 0 00.05.17c0 .12-.06.12 0-.09a.33.33 0 000 .14c-.06-.1.06-.27 0-.1s.13-.25 0-.09.18-.2.07-.08-.06 0 .08-.06c0 0-.09 0-.11.06s.2-.06.07 0l-.25.06c-.1 0-.25 0 0 0h-.17a15.68 15.68 0 01-2.73-.2.92.92 0 00-.92.92.94.94 0 00.92.92 19.6 19.6 0 002.42.22c.93 0 2.1-.27 2.35-1.33a2.54 2.54 0 00-.51-1.91 1 1 0 00-1-.42 14 14 0 00-5.38 2.93 1 1 0 00-.33 1.26.93.93 0 001.26.33zM492.88 782.29a16 16 0 01-3 7.6.93.93 0 00.33 1.27.94.94 0 001.26-.34 17.8 17.8 0 003.27-8.53.93.93 0 00-.93-.92.94.94 0 00-.92.92zM491.21 793c-2.44 8.44-6.15 17.51-13.48 22.86-1 .7 0 2.3.93 1.6 7.75-5.68 11.73-15 14.33-24a.92.92 0 00-1.78-.49z" fill="#565c63"/><path d="M491.21 804.8c-1.94 1.91-3.19 4.4-4.8 6.56-1.41 1.89-3.33 3.7-5.87 3.35a1 1 0 00-1.14.64.92.92 0 00.65 1.13 7.18 7.18 0 006.13-2.06 32.37 32.37 0 004.13-5.53 16.92 16.92 0 012.2-2.78c.85-.83-.46-2.14-1.3-1.31z" fill="#565c63"/><path d="M484.94 813.06a29.26 29.26 0 01-4.94 6.15.92.92 0 101.3 1.31 31.33 31.33 0 005.23-6.53.93.93 0 00-.33-1.26.94.94 0 00-1.26.33zM495.08 804.9c-5.44 6.9-9.25 15-15.09 21.56-.78.89.52 2.2 1.3 1.31 5.85-6.6 9.65-14.67 15.09-21.56.73-.92-.56-2.24-1.3-1.31z" fill="#565c63"/><path d="M485.47 819.71c-.2 1.69-.12 3.4-.34 5.09a5.44 5.44 0 01-1.92 3.93 1 1 0 00-.34 1.26.93.93 0 001.27.33c3.46-2.42 2.74-7 3.18-10.61a.92.92 0 00-.92-.92 1 1 0 00-.93.92zM489.08 816.44c3.49 1.84.35 6.69-.18 9.45-.39 2 .4 4 .33 6a12.5 12.5 0 01-2.74 7.28c-.72.92.58 2.23 1.3 1.3a14.67 14.67 0 003.19-7.43 15.37 15.37 0 00-.11-4.12 7.56 7.56 0 010-3.38c.94-3.55 3.54-8.41-.85-10.73-1-.56-2 1-.93 1.59z" fill="#565c63"/><path d="M495.05 807.41c-3.28 3.65-3.11 8.63-4.35 13.1l1.81.25c.14-2.66-.73-5.69.53-8.18a.92.92 0 00-1.59-.93 21.79 21.79 0 00-1.72 3.41.92.92 0 00.64 1.13.94.94 0 001.13-.64 20.37 20.37 0 011.54-3l-1.59-.93c-1.46 2.88-.62 6-.78 9.11a.93.93 0 001.81.24c1.12-4.07.89-9 3.87-12.29.79-.88-.51-2.18-1.3-1.3zM499.53 815.88c-.39 1.17-.66 2.38-1.1 3.54-.07.18.06-.12 0 .07l-.08.18c-.06.13-.13.26-.2.39a3.14 3.14 0 01-.24.39 1.27 1.27 0 01-.13.19c.1-.13 0 0 0 .05a2.76 2.76 0 01-.29.3.86.86 0 01-.14.13c-.15.14.11-.06 0 0s-.26.17-.39.24l-.22.11c.15-.07 0 0-.09 0a.94.94 0 00-.64 1.13.92.92 0 001.13.64 5.17 5.17 0 003-3c.56-1.29.84-2.66 1.29-4a.93.93 0 00-.64-1.13.94.94 0 00-1.14.65z" fill="#565c63"/><path d="M502.09 810.55c.79 14.87-4.18 30.73-14.36 41.75a.93.93 0 001.12 1.45c6.93-3.9 9.26-12.1 11.14-19.29a.92.92 0 00-1.78-.49c-1.75 6.7-3.81 14.54-10.29 18.19l1.11 1.45c10.5-11.38 15.72-27.7 14.9-43.06-.07-1.18-1.91-1.19-1.84 0z" fill="#565c63"/><path d="M502.11 819.73a63.67 63.67 0 01-10 21.78c-.69 1 .9 1.89 1.59.93a65 65 0 0010.19-22.22.92.92 0 00-1.78-.49zM506.26 810.65l.28 7.26a.94.94 0 00.92.92.93.93 0 00.92-.92l-.28-7.26a.94.94 0 00-.92-.92.93.93 0 00-.92.92zM509.31 812.4a34 34 0 01-.12 11.34c-.21 1.16 1.56 1.66 1.77.49a36.66 36.66 0 00.13-12.32.94.94 0 00-1.14-.65 1 1 0 00-.64 1.14zM503.2 842.79a59.92 59.92 0 01.4 11.12c-.11 1.18 1.73 1.17 1.84 0a59.07 59.07 0 00-.4-11.12.94.94 0 00-.92-.92.92.92 0 00-.92.92zM494 852.2a101.49 101.49 0 01.28 11c0 1.19 1.81 1.18 1.85 0a101.5 101.5 0 00-.29-11c-.1-1.17-1.94-1.18-1.84 0zM491.22 853.21l.14 3.49a.92.92 0 001.84 0l-.14-3.49a.92.92 0 10-1.84 0zM531.58 825.74c-9.61 14.42-19.53 28.76-26.28 44.8-.46 1.09 1.32 1.57 1.77.49 6.69-15.88 16.59-30.09 26.1-44.36.66-1-.93-1.91-1.59-.93z" fill="#565c63"/><path d="M531.65 825.58c-2.59 8.72-8.38 16.17-14.58 22.66-.82.86.48 2.17 1.3 1.31 6.42-6.73 12.37-14.45 15-23.48a.92.92 0 00-1.77-.49zM532.84 840.81c-1.52 6-5 11-9.19 15.4-4 4.16-8.45 7.86-12.16 12.29a33.79 33.79 0 00-5.16 8.14c-.47 1.08 1.12 2 1.59.93 4.76-11 16-17 22.44-26.7a31.17 31.17 0 004.26-9.57.92.92 0 00-1.78-.49z" fill="#565c63"/><path d="M533.43 839.69c-2.68 9.82-7.27 20.51-17.54 24.29-1.11.41-.63 2.19.49 1.78 10.94-4 16-15.06 18.83-25.58a.92.92 0 00-1.78-.49zM536.5 866.47c-3.44 16.62-8 33.07-9.53 50-.11 1.19 1.73 1.18 1.84 0 1.53-16.78 6.06-33.07 9.47-49.53.24-1.15-1.54-1.65-1.78-.49zM535.08 898.61a75.49 75.49 0 01-5.38 38.84c-.46 1.08 1.13 2 1.59.93a77.19 77.19 0 005.63-39.77c-.15-1.16-2-1.18-1.84 0zM522.05 872.84c-8.87 15.44-12.37 33.2-15.7 50.49-1 4.91-1.88 9.83-2.92 14.72-.25 1.16 1.52 1.65 1.77.49 3.66-17.13 6-34.7 12.12-51.2a91.88 91.88 0 016.32-13.57.92.92 0 00-1.59-.93z" fill="#565c63"/><path d="M518.66 880c-4.22 11-6.14 22.61-10.22 33.61-.41 1.11 1.37 1.59 1.78.49 4.07-11 6-22.66 10.21-33.61.43-1.11-1.35-1.58-1.77-.49zM505.27 880.54c-5.11 7-6.72 15.69-7.24 24.15-.07 1.19 1.77 1.18 1.84 0 .51-8.15 2.06-16.49 7-23.22.71-1-.89-1.88-1.59-.93z" fill="#565c63"/><path d="M499.58 895.32a19.3 19.3 0 01-.76-12 .92.92 0 00-1.78-.49c-1 3.49-.54 7.07 0 10.6s1.17 7.16 0 10.6l1.35-.55c-3.24-2.31-4.09-6.7-4.77-10.36-.21-1.12-1.69-.69-1.81.24-.65 4.87.77 12 6.9 12a.92.92 0 000-1.84c-5 0-5.56-6.42-5.06-10.15l-1.81.25c.79 4.23 1.92 8.82 5.62 11.46a.92.92 0 001.35-.55c2.36-7-2-14.19 0-21.2l-1.78-.49a21.07 21.07 0 00.76 13c.43 1.09 2.21.62 1.78-.49zM506.85 898.87c-2.36 12.67-7.54 24.92-7 38l1.72-.47a24.77 24.77 0 01-3.13-6.64l-1.54.89c.89 1 1.75 2.07 2.58 3.14s2-.37 1.3-1.3-1.69-2.11-2.57-3.14a.93.93 0 00-1.54.9 26.15 26.15 0 003.31 7.08.92.92 0 001.71-.46c-.53-12.93 4.6-25 6.94-37.53.22-1.16-1.56-1.66-1.78-.49zM541.45 926.43c-4.44 7.34-8.17 15.13-13.21 22.09-1.2 1.66-2.63 3.16-3.78 4.84a32.4 32.4 0 00-2.33 4.09c-1.43 2.94-2.6 6-4.13 8.9-1.73 3.25-3.93 6.16-7.23 7.93A.94.94 0 00511 976c5.15 1.4 8.08-5.61 9.64-9.25 1-2.42 1.91-4.93 3.06-7.3 1.39-2.86 3.61-5 5.77-7.33 2.63-2.79 5.11-5.84 5.3-9.83.06-1.19-1.78-1.18-1.84 0-.16 3.34-2.34 6-4.53 8.28s-4.28 4.33-5.79 7c-2.4 4.23-3.48 9.08-6.06 13.23-1.06 1.71-2.75 4.05-5.06 3.42l.22 1.69c6-3.24 8.44-9.67 11.11-15.55.68-1.5 1.39-3 2.21-4.41a45.27 45.27 0 013.48-4.7 95.07 95.07 0 007.11-10.85c2.5-4.32 4.85-8.73 7.43-13 .62-1-1-1.94-1.59-.93z" fill="#565c63"/><path d="M525.27 954.82c-2.48 8.8-4.22 17.43-9.86 24.9a35 35 0 01-7.12 14.28c2.91-3.45 7.23-5.77 9.2-9.82 1.63-6.66 5.84-12.49 7.44-19.06.09-1.59 1-7.19 3-4.9 1.35 3.56-.45 7.48-.51 11.28 4.2-5.24 3.37-11.41 3.54-17.55.48-2.24 2-4.67.85-6.93" fill="#565c63"/><path d="M524.38 954.58c-1.93 6.87-3.47 14-6.94 20.29-.41.75-.85 1.5-1.31 2.22a24.1 24.1 0 00-1.51 2.17 17.64 17.64 0 00-.72 2.41c-.27.85-.56 1.69-.88 2.52a32.18 32.18 0 01-5.38 9.13c-.76.9.53 2.21 1.3 1.31 2.23-2.58 5.12-4.48 7.34-7.06a10.64 10.64 0 002.37-4.2 43.18 43.18 0 012.11-5.58 111.21 111.21 0 004.41-10.22 24.41 24.41 0 00.83-3.75 7.28 7.28 0 01.92-3c.07-.09.22-.2.1-.21.14 0 .25.54.29.69a9.65 9.65 0 01.13 3.39c-.25 2.28-.86 4.51-.93 6.82 0 .74 1.07 1.3 1.57.65 2.85-3.66 3.66-7.94 3.76-12.49 0-2.23-.29-4.65.38-6.79s1.32-4.13.39-6.32c-.46-1.09-2.05-.15-1.59.93.9 2.12-.63 4.17-.94 6.23a42.64 42.64 0 00-.07 5.54c-.07 4.14-.62 8.23-3.23 11.6l1.57.65c.07-2.23.65-4.39.9-6.61.18-1.57.4-4.25-.82-5.49-2.1-2.13-3.6 1.21-4 2.87-.28 1.2-.33 2.44-.67 3.62a44.4 44.4 0 01-2.35 6.12c-.89 2-1.84 3.88-2.68 5.85-.4.93-.79 1.86-1.13 2.81s-.6 2.32-1.07 3.32a15.71 15.71 0 01-4.08 4.74 50.44 50.44 0 00-4.81 4.55l1.3 1.31a34.35 34.35 0 005.39-8.81c.7-1.65 1.18-3.35 1.76-5.05s2-3.32 2.95-5c3.53-6.46 5.14-13.7 7.12-20.73a.92.92 0 00-1.78-.49zM520.91 986.86c.74 9.06-5.15 16.86-5.71 25.75-.08 1.19 1.76 1.18 1.84 0 .56-8.91 6.46-16.62 5.71-25.75-.1-1.17-1.94-1.18-1.84 0zM542.19 986.13c-.85 7.3-3.08 14.7-3.44 22.25-2.84 14.43 3.52 32.56-6.26 44.77 3.4-.17 6.8-.5 10.18-1 .23-3.27-1.15-5.46 3.06-6-.87-11.35-2.68-50.87-3.26-59.67" fill="#565c63"/><path d="M541.27 986.13c-.63 5.19-1.89 10.28-2.7 15.44-.39 2.46-.45 5-.87 7.44a47.69 47.69 0 00-.61 5.86c-.38 8.33.9 16.75-.26 25.06a26 26 0 01-5 12.57c-.45.57-.23 1.62.65 1.57 3.49-.18 7-.53 10.42-1a.93.93 0 00.68-.89c.07-1.17-.16-2.37 0-3.53s1.33-1.41 2.42-1.57a.92.92 0 00.68-.88c-1.28-16.68-1.86-33.42-2.73-50.12-.17-3.18-.33-6.37-.53-9.55-.08-1.18-1.92-1.19-1.85 0 1.06 16.25 1.66 32.54 2.58 48.81.2 3.62.41 7.24.68 10.86l.68-.89c-1.5.21-3.1.74-3.6 2.33-.45 1.43-.06 3.07-.14 4.54l.67-.88c-3.29.47-6.61.78-9.93 1l.65 1.57c5.26-6.68 6.09-15.12 6-23.35 0-4.32-.31-8.65-.27-13a58 58 0 01.39-6.45c.3-2.41.52-4.82.84-7.23.79-5.92 2.3-11.73 3-17.67.14-1.17-1.7-1.16-1.84 0z" fill="#565c63"/><path d="M539.38 1003.81c-4.29 5.37-11.59 7.49-15.29 13.41a14.41 14.41 0 00-1.08 2.15 6.53 6.53 0 01-1.24 2.6c-1.27 1.26-2.56 2.52-3.78 3.84a11.44 11.44 0 00-2.66 3.94 66.53 66.53 0 01-3 7.54c-.52 1.06 1.07 2 1.59.93a48 48 0 002.9-7.22 8.25 8.25 0 011.92-3.33c1-1.17 2.15-2.28 3.26-3.38.64-.64 1.73-1.37 2.07-2.22s.45-1.74.83-2.57c1.44-3.13 4.19-5.29 7-7.21 3.1-2.16 6.38-4.18 8.77-7.18.73-.92-.56-2.23-1.3-1.3zM514.79 1038.37c-.48 2.35-1 4.67-1.72 7a.92.92 0 001.78.49c.67-2.31 1.24-4.63 1.72-7a.92.92 0 10-1.78-.49z" fill="#565c63"/><path d="M519.46 1024.75a14.54 14.54 0 00-1 7.44c.19 2.53.53 5.11-.28 7.56-.37 1.13 1.41 1.62 1.78.49a18.6 18.6 0 00.4-7.32c-.19-2.42-.4-5 .67-7.24.51-1.06-1.08-2-1.59-.93zM531 1011.45c-.76 10.48-3.24 21-9.54 29.62-.7 1 .9 1.88 1.59.93 6.49-8.86 9-19.76 9.79-30.55.08-1.18-1.76-1.17-1.84 0z" fill="#565c63"/><path d="M525.35 1035.54c.17 3.54.17 7.3-1.87 10.36-.66 1 .93 1.91 1.59.93 2.21-3.32 2.31-7.44 2.13-11.29-.06-1.18-1.9-1.19-1.85 0z" fill="#565c63"/><path d="M529.4 1033.35c1.1 6.68.57 14-4.78 18.72-.89.8.42 2.1 1.3 1.31 5.87-5.24 6.46-13.21 5.25-20.52-.19-1.17-2-.67-1.77.49zM526.7 1016.94a5 5 0 012.47-.92c.11 0 .1 0 .17.18a3.16 3.16 0 01.15.81c.12 1.81-.19 3.6.06 5.4.14 1 1.93.79 1.81-.24-.36-2.94 2.15-7.25-1.14-9.27l.33 1.26a1.71 1.71 0 011.24-.74l-1.16-.89.09 2.38a.93.93 0 001.57.65 13 13 0 003.8-5.72c.3-.92-.9-1.48-1.54-.9a8.12 8.12 0 00-2.15 3.23c-.38 1 1.14 1.54 1.69.71 1.59-2.46 3.29-5 6-6.3 1.07-.52.14-2.1-.93-1.59-3 1.44-4.9 4.25-6.66 7l1.68.71a6.27 6.27 0 011.67-2.42l-1.54-.89a11.19 11.19 0 01-3.32 4.91l1.57.65-.09-2.38a.94.94 0 00-1.17-.89 3.51 3.51 0 00-2.34 1.59.94.94 0 00.33 1.27c1.11.68.83 2.31.66 3.4a16.23 16.23 0 00-.44 4.27l1.81-.25c-.27-2 .41-4.14-.16-6.09-.79-2.65-3.7-1.44-5.39-.48a.92.92 0 00.93 1.59zM511 840.83l.17.77a.92.92 0 00.89.68.93.93 0 00.89-.68 3.09 3.09 0 01.18-.59l-.1.22a4.25 4.25 0 01.44-.74l-.14.18a3.91 3.91 0 01.61-.61l-.19.15a3.14 3.14 0 01.75-.44l-.22.09a3.21 3.21 0 01.75-.21.91.91 0 00.64-1.13.93.93 0 00-.42-.55 1.08 1.08 0 00-.71-.09 4.21 4.21 0 00-3.37 3.23H513l-.17-.77a.92.92 0 00-1.78.49zM517.24 825.13a30 30 0 003.69 4.42.92.92 0 101.31-1.3c-.65-.64-1.27-1.31-1.86-2l-.41-.51-.21-.27c-.09-.11.08.11 0 0l-.12-.15c-.28-.37-.54-.74-.8-1.12a1 1 0 00-1.27-.33.94.94 0 00-.33 1.26zM519 818.48a12.94 12.94 0 004.7 7.65.94.94 0 001.3 0 .93.93 0 000-1.3 11.45 11.45 0 01-4.22-6.84.93.93 0 00-1.13-.64 1 1 0 00-.65 1.13zM523.35 820.74l2.92 3a.92.92 0 001.31-1.3l-2.93-3a.92.92 0 00-1.3 1.3zM524 811.87c-.4 3.78 2.49 6.73 5 9.09.87.8 2.18-.5 1.3-1.3-2.19-2-4.84-4.51-4.5-7.79a.93.93 0 00-.92-.92.94.94 0 00-.92.92zM528.7 807a52.65 52.65 0 012 8.6c.15 1 1.83.77 1.81-.25a97.59 97.59 0 00-1.28-13.65c-.2-1.17-2-.67-1.78.49a93.59 93.59 0 011.22 13.16l1.81-.24a52.65 52.65 0 00-2-8.6c-.37-1.13-2.15-.65-1.78.49zM538.44 944l1.72 48.4a.93.93 0 001.85 0 125.18 125.18 0 00.2-17.43c-.07-1.18-1.91-1.19-1.84 0a123.66 123.66 0 01-.21 17.43H542l-1.72-48.4c0-1.18-1.89-1.19-1.84 0zM652.64 751.74l2.28-15.65 2.48 15.35-4.76.3zM666.15 753.74l14.38-10.86-11.13 13.17-3.25-2.31zM673.83 760.85l14.99.59-13.79 2.61-1.2-3.2zM675.16 767.47l10.73 2.11-10.6 1.04-.13-3.15z" fill="#565c63"/><path d="M649.6 751.3c11.06-3.85 33.39 6.94 24.83 25.28 0 0 1.61 3 1.29 5.19s2.91 7 2.91 7 4.32-2.61 3.5-4.41a6.2 6.2 0 01-.06-4s-.46-5.84 1.86-5.93 1.71-4.83 3.88-4.79c27.72-11 35.67 50.17 16.75 42.92 5.48 10.32.47 6.65-5.86 15.72 4.56 9.54-3.53 6.87.88 13.39 1.41 1.77 1.32 5.68-2.05 6.79S690.61 862 690.61 862c1.67 2.81 19.89 37.33-.31 36.25-2.18 7.36 8.26 17 3.51 27.57-4.54 6.4-5.32 33.59-3 39.77 1 1.78 2.19 6.13-.2 7.45 7.24 15.06 1.19 34.44 3.69 45 1.39 1.17 3.94 4 .47 8.77 0 0 2.61 15.21 10.85 21.88l-48.13 1.86-.32-8.5-2.56.1z" fill="#d3d3d3"/><path d="M706.74 785.32c2.75 4.64 7 9.7 6.14 15.16-3.83-2.7-4 2.71-4.3 5.31-4.6-2.54-5.63-8.19-8.12-12.41-4.16-7-10.5-15.84-9.1-24.43a17 17 0 0110.2 1.28 38.68 38.68 0 005.18 15.09z" fill="#a7aaaf"/><path d="M697.53 848.41c7.62-3.28-2.51-9 2-12.65.7-.49.81-1.48.68-2.58.28 2.29-3.6 2.54-2.61.18.69-3-2.57-5.93-3-8.89-.16-5.48-2.48-10.52-2.66-16a1.23 1.23 0 012.46-.09c1.13 6.62 1.73 13.62 4.39 19.77 6.33-8.92 11.29-5.39 5.83-15.64 1.59 2.23 7.42 1.45 9.52-6.16-15.43 13-25.2-27.59-25.18-36.93-3.48-.47-2.25 4.36-5 5-2.32.09-1.86 5.93-1.86 5.93a6.2 6.2 0 00.06 4c.82 1.8-3.5 4.41-3.5 4.41s-3.24-4.76-2.91-7-1.29-5.19-1.29-5.19c5.35-10.46-2-21.79-10.44-24.24-2 4.79-10-.07-14.29 3.24l.1 5.44c3.83-.3 8.19-1.8 11.74.32 3.35 2.23 4.07 7.18 4 10.89-1.95 4.27-8.25-4.2-9.86-6.11-1.91 1.12-3.64 2.62-5.74 3.38v2.3c2.45.08 5.39-.72 7.61.35 2.13-.21 4.95 2 6.52 2.46s1 2.81-.56 2.39a35.32 35.32 0 00-5.87-1.06v1.7c2.12 1.63 5.56-.18 7.4 2.43 2.73 3.86 1.73 10.77-1.68 13.95-3.12 1.81-11.4 4-11.49-1.65a1.25 1.25 0 011.25-1.28 10.24 10.24 0 011-6.41c-1-3.4-.81-7.41-2-10.54l-2.11.11 1 55.11c7.86 14.77 22.06 24.3 31.89 37.48 4.1 4.57 7 19.58-1.49 7.82 5.06 7.4 5.59 16.37 8.77 24.5.08-.59.16-.94.16-.94a6.27 6.27 0 00.85 0c-.13-5.38 4.24-10.89 3.31-16.73-.28-5.53-2.85-10.92-2.29-16.46-.93-1.92-1.56-3.11-1.56-3.11s3.47-12.4 6.85-13.5zm-23.87-29.13c-.76-1.75-2.88-17.14 1.27-11.8.13 3.71 0 7.47 1.07 11a1.23 1.23 0 01-2.34.8zm7 38.16c-3 5.78-14-17.09-14.66-20.21a83.92 83.92 0 01-3.12-12.83c-.84-4.6-1.86-9.19-4.3-13.24a1.25 1.25 0 011.73-1.7c14 4.1 8.87 24.88 14.63 35.42 2.14 4.27 5.8 7.47 5.73 12.56zm16.27-12c-4.61-1.24-7.04-6.44-8.93-10.44.75 7.17 5.09 16 2.15 22.56-6.72 2.18-8.75-5.84-9.38-10.79-1.82-8.2 1.69-16 2-24.09-1.34-2.19-6.87-24.77-.52-18.06-.7-1.88 2-3.25 2.42-1 .2 5.21.49 10.48 1.92 15.53.51 4.59 6.93 10.66 5.21 14.62 1.78 3.09 7.71 6.09 6.53 9.89a1.26 1.26 0 01-1.39 1.82z" fill="#a7aaaf"/><path d="M685.22 925.61c-2.77-15.79-10.07-30-15.73-44.9q-9.15-18.87-18.28-37.75l-.07-4c5.28 10 15.1 16.19 22 24.83 2.07 15 8.54 29.34 13.08 43.76 2.2 6.42.4 16.47 6.67 20.56a60.55 60.55 0 00-2.75 10.3 74.15 74.15 0 01-4.92-12.8zM690.07 988.51c1.37-.87 2.67-1.87 4-2.86-.37-2-.84-4-1.31-5.82-4.78-.93-11.93-8.83-2.05-6.71v-.11a2.54 2.54 0 001.07-1.18c-15.08-8.7-15.83-11.48-19.26-27.2-7.76-10-6.45-23.3-8.19-35.17a165.77 165.77 0 00-12.58-39.54l1 58.83c8.69 14.2 14.21 89.34 37 83.48-2.83-11.42-8.3-21.12-13.76-31.29-4.74-7.57-11-15.2-10.83-24.6 0-1.57 2.49-1.68 2.46-.1-.23 10 7.46 17.39 11.78 25.72 2.1 5.23 4.14 11.85 10.67 6.55zm-26.35-53.65c-8.75-11.27-9.48-26-10-39.69a1.23 1.23 0 012.45-.09c.52 13.27 1.14 27.52 9.63 38.46.96 1.25-1.12 2.56-2.08 1.32zM671.15 1021.42l.06.23c-1-2-2.17-4.58-2.15-6.79.94 2.14 1.35 4.38 2.09 6.56z" fill="#a7aaaf"/><path d="M654.63 1042.12l2.56-.1.32 8.5 11.34-.44c-4-.87-14.42-54.54-7.08-45.85 1.2 16 6.72 32.62 16.48 45.49l11.79-.46c-2.29-4.25-4.36-9-4.23-13.94-.38-.74-.76-1.47-1.11-2.23-.67-1.43 1.68-2.16 2.34-.75a70.62 70.62 0 0011.42 16.59l7.18-.27c-6.52-6.74-14.53-12.42-18.46-21.35-8.09-5-11-13.86-17.26-20.24-11.7-13.52-9.87-47.6-15-65.33a64.09 64.09 0 00-2.13-6.31zm12.06-27.5a5.76 5.76 0 012.78-5.17c4.58.1 2.85 7.88 4 11a70.94 70.94 0 006.63 13.94c-.43 8.4-15.3-16.79-13.41-19.77z" fill="#a7aaaf"/><path d="M689.26 1041.41a67.06 67.06 0 003.22 6 1.35 1.35 0 00-.45.47 36.15 36.15 0 01-2.77-6.47zM680.91 868.35a25.12 25.12 0 012.76 5.29c-4.46-5.61-8.27-11.8-13.35-16.85a1.51 1.51 0 00.23-.21 74.29 74.29 0 0110.36 11.77z" fill="#a7aaaf"/><path d="M686.85 772.11c-.1.78.29 2.91-.38 3.3-2.23 0-2.74 2.75-2.06 4.49 4.24 8.05-5.65 3.47 7.34 18.86-9.81-1.85-.91 14.56-6.27 12.54-2.41-2.83-4.84-6.43-9.17-6-7.19.42-4.77 8.1-3.35 12.62-3.09-2.81-3-8.35-6.12-10.77-.84-.21-.91 1.51-2 .91s.49-3.26-.48-3.78-3.13 3.37-4.32 3.22 1.47-5.21 1-7c-3.43-6.85-8.95 3.76-10.44 7.09l-.22-12.74c.94-.11 9.91 1.23 12.37-1.32 3.11-4 1.77-17 3-20 10.32 4.64 5.27-7 .14-9.66a22.54 22.54 0 002.6-6c6.13 3.72 9.82 11.77 5.92 18.68 0 0 1.61 3 1.29 5.19s2.91 7 2.91 7 4.32-2.61 3.5-4.41a6.2 6.2 0 01-.06-4s-.46-5.84 1.86-5.93c2.13-.08 1.8-4.09 3.41-4.7a20.1 20.1 0 00-.47 2.41zM702.23 785.42c1 2.48 3 4.08 4.91 5.83a10.8 10.8 0 012.25 2.61 5.29 5.29 0 01.53 3.47c-.2 1.16 1.57 1.66 1.77.49a7.35 7.35 0 00-.43-4.32 10 10 0 00-2.23-3c-1.76-1.71-4.08-3.19-5-5.56a1 1 0 00-1.14-.64.92.92 0 00-.64 1.13z" fill="#565c63"/><path d="M702.17 785.71c1.58 6.5 6.79 13.16 4.81 20.11a.92.92 0 001.77.49c2.12-7.44-3.12-14.16-4.81-21.09-.28-1.15-2.05-.67-1.77.49z" fill="#565c63"/><path d="M703.23 790.82l.18 1.23v-.24a18.74 18.74 0 01.24 3 6 6 0 01-.05.61v-.25a2.51 2.51 0 01-.12.49l.09-.22a.83.83 0 01-.09.16l.14-.18a.46.46 0 01-.07.07l.19-.14h-.08l.22-.09h-.07.25-.06.24-.12l.22.09a1.2 1.2 0 01-.21-.13l.19.15a3.84 3.84 0 01-.59-.62l.15.18a18.18 18.18 0 01-1.68-2.78.92.92 0 00-1.59.93 19.29 19.29 0 001.85 3 2 2 0 001.87 1 1.55 1.55 0 001.07-1.39 9.26 9.26 0 000-2.17c-.08-1.07-.23-2.13-.4-3.19a.87.87 0 00-.42-.55.93.93 0 00-.71-.1 1 1 0 00-.55.43 1 1 0 00-.09.71z" fill="#565c63"/><path d="M714.74 718.8s.79 29.1-4.47 39.62c0 0-4.92 14-4.84 16s.44 11.51-2 12c0 0 1.95 8.42.39 10.1s-16.57-20.4-16.69-23.63c2.66-10.58 9.59-38.23 13-48.65 1.18-4.5 3.72-27.19 3.72-27.19z" fill="#d3d3d3"/><path d="M706.42 721c-1.38 8.86-5.33 17.66-5.18 26.7-1.37 11.53-7.72 21.72-10.11 33-7.1-9.62-2.2-10-.44-21.11.58-6.09 8.24-30.87 9.42-35.36s3.72-27.23 3.72-27.23l6.75 13.47c.42 11.18-1.99 5.53-4.16 10.53z" fill="#565c63"/><path fill="#474640" d="M689.38 621.92l40.75 57.67-11.86 7.89 14.75 37.73-17.49 2.25-26.04-67.7 16.12 4.22-16.23-42.06z"/><path d="M724.79 700.6a7.79 7.79 0 01-2.75-1.29c-.15-.08-.31 0 .17.06l-.38-.1h.23c-.12 0-.32 0-.46.05.16 0 .37-.07.08 0a4.44 4.44 0 00-2 .9c-4.61 2.89-4.66-4.43 2.25-4.62 1.12-.18 3 1.16 3.41 1.35-.31-.12 0 0 0 0 2.55.22 1.95 4.15-.57 3.63z" fill="#cfd1d3"/><path d="M722.12 695.66a13.84 13.84 0 00-1.82.17 18.44 18.44 0 00-2.9.89c-.09 0-.67.25-.21.09a13.45 13.45 0 00-2.29 1.39c-2 1.31-4-1.82-2-3.11 2.58-1.62 9.42-5.48 11-1.35a1.87 1.87 0 01-1.77 1.92z" fill="#cfd1d3"/><path d="M720.86 691.31c-.21-.12-.44-.21-.66-.31.48.18-.65-.21-.89-.22l-.48-.07h.13a7 7 0 00-1.52 0 .92.92 0 11.13 0 7.69 7.69 0 00-1.63.5c.47-.22-.59.3-.78.48s-.55.44-.16.11c-4.43 2.29-4.6-4.2 2.42-4.76 2.12-.22 7.11.34 5.93 3.47a1.88 1.88 0 01-2.49.76z" fill="#cfd1d3"/><path d="M716.43 699.69c1.17 3 3.49-.12 5.32-.37h-.15.4l.2.07h-.14c1.43 1 4.2 2.32 4.94-.12-3.47-1.19-7.75-2.97-10.57.42zm3.28.52v-.05c.22-.16.08-.01 0 .05zM717.15 694.94c2.11-.87 4.45-.62 6.7-.8-.6 2.42-5.6 1.48-6.66 2.67-1.44.51-2.78 2.49-4.39 1.3a12.07 12.07 0 014.35-3.17zM712.71 692.17a9.85 9.85 0 0110.8-2 2 2 0 01-3.17.92c.18.05-.1 0-.14-.06h.06a5.68 5.68 0 00-4.23.19c.23-.13 0 0-.09 0-.22 0-1.47 1-1 .61a1.87 1.87 0 01-2.23.34z" fill="#a7aaaf"/><path d="M710.88 688.68c-6.19 5.57-5.38 15-5.08 22.53.16 2.37-3.52 2.51-3.68.14-.57-8.82-.71-19.64 6.77-25.77 2-1.32 4 1.8 2 3.1z" fill="#565c63"/><path d="M707.39 690.8c.45-2 2-4.2 4.25-4.23-.07 2.9-4.08 4.49-4.5 7.66a11 11 0 01.25-3.43z" fill="#a7aaaf"/><path fill="#d3d3d3" d="M583.11 1053.452l130.423-5.033.442 11.462-130.423 5.033z"/><path fill="#a2a7aa" d="M585.432 1062.819l130.52-5.221.032.81-130.52 5.22z"/><path fill="#565c63" d="M720.89 1063.56l-4.01 4.93-132.9 5.14-.34-8.78 130.42-5.04 6.83 3.75z"/><path fill="#474b4f" d="M714.33 1066.13l-130.45 5.05-.03-.87 130.42-5.04.06.86z"/><path fill="#a7aaaf" d="M583.898 1073.687l132.901-5.129.435 11.262-132.901 5.129z"/><path fill="#a8abaf" d="M584.32 1084.952l135.819-5.241.434 11.262-135.818 5.24z"/><path fill="#565c63" d="M584.407 1086.945l135.819-5.24.038.978-135.82 5.242zM584.5 1089.539l117.433-4.532.067 1.739-117.432 4.531z"/><path fill="#a7aaaf" d="M584.763 1096.218l150.378-5.804.435 11.262-150.378 5.803zM585.187 1107.485l150.378-5.803.309 7.994-150.378 5.803z"/><path fill="#565c63" d="M586.76 1096.197l150.49-6.02.083 2.06-150.49 6.02zM585.296 1110.033l150.378-5.803.08 2.059-150.379 5.803z"/><path fill="#97999b" d="M585.197 1107.479l150.378-5.803.099 2.548-150.378 5.803z"/><path fill="#a7aaaf" d="M730.18 1088.12l4.867-.188.53 13.75-4.866.188zM673.797 1090.302l4.866-.187.53 13.75-4.866.187z"/><path fill="#565c63" d="M728.842 1090.661l1.479-.057.435 11.262-1.48.057zM672.418 1092.836l1.479-.057.435 11.261-1.48.057z"/><path fill="#a7aaaf" d="M703.181 1089.16l4.866-.187.531 13.75-4.866.187zM730.18 1088.12l4.867-.188.53 13.75-4.866.188z"/><path fill="#565c63" d="M688.2 1075.52l-7.13 4.41.47 12.3 2.62-.1"/><path fill="#a8abaf" d="M684.16 1092.13l-.47-12.3 9.03-8.63 10.16 7.89.47 12.29-19.19.75z"/><path fill="#565c63" d="M688.352 1081.722l9.842-.38.331 8.573-9.842.38zM701.701 1089.337l1.48-.057.525 13.63-1.479.057zM650.57 755.6l.17 4.47a.93.93 0 001.85 0l-.18-4.47a.92.92 0 00-1.84 0zM654.92 755.22l.2 5a.92.92 0 101.84 0l-.2-5a.92.92 0 00-1.84 0zM659.09 755.59a26.54 26.54 0 01-.13 4.8.92.92 0 00.92.92.94.94 0 00.92-.92 25.66 25.66 0 00.13-4.8.92.92 0 00-1.84 0zM663.79 756.67l-1.69 4.62a.94.94 0 00.65 1.14 1 1 0 001.13-.65l1.69-4.62a.93.93 0 00-.64-1.13 1 1 0 00-1.14.64zM667 758.23l-1.93 4.25a.94.94 0 00.33 1.26.93.93 0 001.26-.33l1.93-4.25a.92.92 0 10-1.59-.93zM655.42 766.43a13.3 13.3 0 005.21 5.61 22.59 22.59 0 003.37 1.76c.53.23 1.08.41 1.6.64s.91.41 1 .93c.21 1.16 2 .67 1.77-.49-.24-1.32-1.5-1.94-2.64-2.35a23.71 23.71 0 01-3.46-1.63 12.3 12.3 0 01-5.28-5.4.92.92 0 00-1.26-.33.94.94 0 00-.33 1.26z"/><path d="M654.91 765.08l-.25.34c-.1.14 0 0 0 .05l-.13.16c-.18.22-.36.43-.55.64a14.09 14.09 0 01-1.18 1.14c-.1.08-.19.17-.29.24l-.17.14-.69.49a14.13 14.13 0 01-1.46.84.92.92 0 00-.33 1.26 1 1 0 001.26.33 14.91 14.91 0 005.38-4.71.93.93 0 00-.33-1.26.94.94 0 00-1.26.33zM650.94 776.09a.42.42 0 01.41.22 3.4 3.4 0 01.44 1.38 23.11 23.11 0 01.09 4.32c0 1.36-.16 2.74-.09 4.1a3.19 3.19 0 00.35 1.65 3.4 3.4 0 001.58.83 6.8 6.8 0 001.95.32.92.92 0 00.25-1.8c-.66-.15-1.5-.6-1.6-1.36l-.68.89a16.42 16.42 0 013.21.11.93.93 0 000-1.85c-1.44 0-3.06-.8-4.44-.09-.91.47-1 2.46-1 3.37a3.73 3.73 0 00.91 2.72 4.09 4.09 0 003.32.9c1.17-.11 1.18-1.95 0-1.85-.91.08-2 .11-2.32-1a6.2 6.2 0 01.34-3.1l-.64.64c1.21-.48 2.59.18 3.84.21v-1.8a19.89 19.89 0 00-3.7 0 .92.92 0 00-.67.89 3.68 3.68 0 002.95 3.13l.24-1.81a5.06 5.06 0 01-2.34-.66l.42.55a11.74 11.74 0 01-.1-3.11c.05-1.48.14-3 .11-4.44-.06-2.12-.4-5.51-3.31-5.09-1.17.17-.67 1.94.49 1.77zM664.78 777.5a14.53 14.53 0 00-5.83-2.56.9.9 0 00-.79.46 2.87 2.87 0 00-.45 1.73 1.55 1.55 0 001 1.22 5.06 5.06 0 002.81 0c.44-.08.87-.18 1.3-.25a.94.94 0 00.65-1.14 1 1 0 00-1.14-.64c-.42.07-.83.17-1.25.24l-.39.07h-.15c-.17 0 .25 0 0 0a5.34 5.34 0 01-.69.05h-.38a.69.69 0 00-.13 0s.25.12.1 0 .16.15.07.06-.13-.15 0 0c.14.28.06.17 0 .07.06.34 0 .19 0 .11v-.07.12c0-.06.06-.25.09-.33.09-.24-.06.1 0 0s.08-.16.13-.24l-.8.46h.21l.36.08a6.36 6.36 0 01.62.19l.36.13.17.07.65.31c.86.44 1.68 1 2.49 1.47a.92.92 0 00.93-1.59zM685.1 775.1a17.79 17.79 0 004 8.21.92.92 0 001.31-1.3 15.91 15.91 0 01-3.52-7.4.92.92 0 00-1.78.49zM687.64 785.88c3.28 8.71 7.94 17.78 16.1 22.82 1 .63 1.94-1 .93-1.59-7.72-4.77-12.15-13.48-15.25-21.72-.41-1.1-2.19-.62-1.78.49z" fill="#565c63"/><path d="M689.07 798.46c4.07 3.42 6.67 10.88 13.21 9.45 1.16-.25.67-2-.49-1.78-2.59.57-4.6-1.07-6.21-2.9-1.76-2-3.16-4.35-5.21-6.08-.9-.76-2.21.54-1.3 1.31z" fill="#565c63"/><path d="M695.65 805.84a31.53 31.53 0 005.7 6.12 1 1 0 001.31 0 1 1 0 000-1.31 29.69 29.69 0 01-5.42-5.74 1 1 0 00-1.26-.33.93.93 0 00-.33 1.26zM685.21 798.85c6 6.45 10.38 14.21 16.71 20.33.85.83 2.16-.47 1.3-1.3-6.33-6.12-10.74-13.88-16.71-20.33-.8-.87-2.1.43-1.3 1.3z" fill="#565c63"/><path d="M695.38 811.84c.69 3.49.34 8 3.9 10.13a.92.92 0 00.93-1.59 5.51 5.51 0 01-2.3-3.91c-.36-1.69-.42-3.43-.76-5.12a.93.93 0 00-1.13-.65.94.94 0 00-.64 1.14zM692.34 807c-4.3 2.71-1.23 7.34 0 10.91a6.9 6.9 0 01.22 3.16 15.56 15.56 0 00.18 4.09 14.42 14.42 0 003.73 7.24c.8.88 2.1-.43 1.3-1.3a12.68 12.68 0 01-3.26-6.43c-.37-2.18.37-4.38-.16-6.49-.68-2.68-4.35-7.5-1-9.59 1-.63.08-2.23-.93-1.59z" fill="#565c63"/><path d="M685.44 801.35c3.24 3.1 3.39 7.94 4.84 11.94a1 1 0 001 .66.91.91 0 00.8-.91c-.39-3 .22-6.29-1.45-9l-1.59.93a21.11 21.11 0 011.87 3c.54 1.06 2.13.13 1.59-.93a21.11 21.11 0 00-1.87-3c-.68-.94-2.22-.11-1.59.93 1.47 2.4.85 5.43 1.2 8.1l1.81-.24c-1.57-4.34-1.79-9.38-5.32-12.75-.86-.82-2.16.48-1.3 1.3zM681.21 809.56c-.09-.21 0 0 0 .09a2.44 2.44 0 01.1.24l.16.42.35 1a17.65 17.65 0 00.85 2 5.23 5.23 0 003.18 2.74.93.93 0 001.13-.64.94.94 0 00-.64-1.14 3.22 3.22 0 01-.44-.14c.19.08 0 0-.06 0l-.22-.13-.18-.12c-.17-.1 0 0-.05 0s-.21-.19-.32-.29-.21-.23-.31-.36l-.12-.18a7 7 0 01-.45-.79l-.2-.41-.09-.22c.09.2 0 0 0-.06-.12-.29-.23-.59-.34-.88-.24-.64-.47-1.29-.74-1.92a.92.92 0 00-1.26-.33 1 1 0 00-.33 1.26z" fill="#565c63"/><path d="M678.08 803.74c.36 15.37 6.77 31.27 18.12 41.8l1.12-1.44c-6.76-3.14-9.44-10.74-11.71-17.31-.39-1.11-2.17-.63-1.78.49 2.42 7 5.35 15.06 12.56 18.41.89.41 1.94-.69 1.12-1.45-11-10.21-17.24-25.6-17.59-40.5a.92.92 0 00-1.84 0z" fill="#565c63"/><path d="M678.84 813.38a65.43 65.43 0 0012 21.57c.76.91 2.06-.4 1.3-1.3a63.15 63.15 0 01-11.53-20.76c-.37-1.12-2.15-.64-1.78.49zM673.92 804.17l.28 7.25a.93.93 0 001.85 0l-.28-7.25a.93.93 0 00-1.85 0zM671 805.89a35.93 35.93 0 001.07 12 .92.92 0 001.78-.49 34.57 34.57 0 01-1-11.55c.1-1.18-1.75-1.17-1.84 0zM679.46 836a59.9 59.9 0 00.49 11.36.94.94 0 001.14.65 1 1 0 00.64-1.14 58 58 0 01-.43-10.87.92.92 0 00-1.84 0zM689.34 844.65a98.65 98.65 0 00.56 11 1 1 0 00.92.93.94.94 0 00.93-.93 98.65 98.65 0 01-.57-11 .92.92 0 00-1.84 0zM692.2 845.44l.14 3.49a.92.92 0 101.84 0l-.14-3.49a.92.92 0 10-1.84 0zM650.27 822.28c10.6 13.49 21.52 26.91 29.42 42.23.54 1 2.13.12 1.59-.93-8-15.46-19-29-29.7-42.61-.73-.93-2 .38-1.31 1.31z" fill="#565c63"/><path d="M649.85 821.5c3.37 8.8 9.86 16 16.79 22.26.88.79 2.18-.51 1.3-1.3-6.67-6-13.07-13-16.32-21.45-.42-1.1-2.2-.62-1.77.49zM649.83 836.77A36.15 36.15 0 00660 851.6c4.28 3.94 9.08 7.28 13.21 11.38a32.93 32.93 0 016 7.91c.55 1 2.14.11 1.59-.93-5.51-10.42-16.78-15.52-24.05-24.42a29.73 29.73 0 01-5.17-9.26c-.38-1.11-2.16-.63-1.78.49z" fill="#565c63"/><path d="M649.16 835.7c3.67 10.24 9.49 20.94 20.7 24.1a.92.92 0 00.49-1.77c-10.54-3-16-13.21-19.41-22.81-.4-1.11-2.18-.64-1.78.48zM648.17 862.64c4.69 16.23 10.48 32.2 13.31 48.9.2 1.17 2 .67 1.78-.49-2.84-16.7-8.63-32.67-13.32-48.9a.92.92 0 00-1.77.49zM652 894.09a77.36 77.36 0 008.65 39.23c.55 1 2.14.12 1.59-.93a75.37 75.37 0 01-8.39-38.3c0-1.19-1.79-1.18-1.85 0zM663.27 868.31c10 14.63 14.77 32 19.4 48.87 1.3 4.77 2.6 9.54 4 14.28a.92.92 0 001.78-.49c-5-17-8.75-34.55-16.3-50.69a91.92 91.92 0 00-7.29-12.9c-.66-1-2.26-.06-1.59.93z" fill="#565c63"/><path d="M667.09 875c5.06 10.59 7.87 22.08 12.79 32.72.49 1.08 2.08.14 1.59-.93-4.91-10.64-7.73-22.12-12.78-32.72-.51-1.06-2.1-.13-1.6.93zM680.74 874.88c5.42 6.31 7.56 14.59 8.68 22.66.16 1.17 1.94.67 1.78-.49-1.18-8.42-3.51-16.91-9.16-23.47-.78-.91-2.07.4-1.3 1.3z" fill="#565c63"/><path d="M690.76 888.42a21.11 21.11 0 00-.21-13l-1.78.49c2.55 6.91-1.17 14.5 1.76 21.35.25.59 1 .52 1.44.19 3.47-2.9 4.15-7.71 4.61-11.93l-1.81.24c.76 3.58.63 10-4.22 10.33-1.18.09-1.19 1.94 0 1.84 6.25-.48 7-7.75 6-12.66-.23-1.09-1.71-.71-1.81.25-.41 3.75-1 8-4.07 10.62l1.45.19c-1.4-3.26-1-7-.74-10.42s.41-7.13-.83-10.49c-.41-1.1-2.17-.65-1.78.49a19.33 19.33 0 01.21 12c-.35 1.13 1.43 1.62 1.78.49zM680.23 892.65c3.29 12.29 9.37 24 9.83 36.88a.93.93 0 001.72.47 26.7 26.7 0 002.77-7.32.93.93 0 00-1.69-.71c-.8 1.09-1.58 2.2-2.32 3.33s.94 1.92 1.59.93 1.52-2.24 2.33-3.33l-1.69-.71a24.86 24.86 0 01-2.58 6.88l1.71.46c-.47-13.11-6.55-24.9-9.9-37.37a.92.92 0 00-1.77.49zM648.07 923.24c5 7.06 9.43 14.62 15.07 21.25 1.35 1.58 2.93 3 4.21 4.63a32.81 32.81 0 012.7 4.12c1.68 2.93 3.13 6 5 8.81a19.07 19.07 0 008 7.16l.22-1.68c-2 .71-3.63-.83-4.83-2.28a35.83 35.83 0 01-4.07-6.75 70.18 70.18 0 00-3.27-6.26 30.42 30.42 0 00-5.68-6.15c-2.62-2.34-5.6-5-6.06-8.65-.15-1.16-2-1.18-1.85 0 .9 7.06 8.13 10 11.76 15.36 3 4.46 4.48 9.81 8 14 1.61 1.87 3.92 3.46 6.47 2.56.66-.24 1-1.34.22-1.69-6.25-2.77-8.92-9.28-12.08-14.87a41.76 41.76 0 00-2.53-4 54.09 54.09 0 00-3.64-4.08 95.19 95.19 0 01-7.89-10.3c-2.74-4-5.35-8.09-8.17-12-.69-1-2.29 0-1.59.93z" fill="#565c63"/><path d="M667.94 949.3c3.16 8.59 5.56 17.05 11.75 24.07a35 35 0 008.2 13.66c-3.16-3.21-7.64-5.19-9.93-9.08-2.13-6.51-6.78-12-8.88-18.43-.22-1.57-1.54-7.09-3.38-4.64-1.08 3.64 1 7.41 1.37 11.2-4.59-4.9-4.24-11.12-4.88-17.22-.65-2.2-2.31-4.51-1.38-6.85" fill="#565c63"/><path d="M667.06 949.55c2.51 6.87 4.67 14 8.72 20.19.51.77 1 1.52 1.6 2.25a15.12 15.12 0 011.56 2c.8 1.5 1.25 3.24 2 4.78a34.09 34.09 0 006.3 8.89l1.31-1.3c-2.68-2.66-6.15-4.42-8.63-7.28-1.37-1.59-1.88-3.69-2.78-5.57s-2-3.79-3-5.66-2.09-3.72-3-5.67a25.49 25.49 0 01-1.46-4.48c-.38-1.52-1.49-5.35-3.81-4.18-1.72.86-1.45 3.59-1.24 5.16.33 2.5 1.28 4.87 1.55 7.38l1.57-.65c-2.87-3.17-3.77-7.17-4.16-11.32a34.59 34.59 0 00-.54-5.68c-.56-2.08-2.08-3.94-1.32-6.18.38-1.12-1.4-1.61-1.78-.49-.74 2.22.19 4.19 1 6.23s.65 4.65.88 6.89c.47 4.39 1.6 8.51 4.63 11.85a.93.93 0 001.57-.65 45.87 45.87 0 00-1.2-5.68 15 15 0 01-.47-3c0-.48-.15-2 .36-2.24-.15.07-.13-.06.05.16a3.27 3.27 0 01.32.5 8.81 8.81 0 01.63 1.64c.32 1.1.46 2.21.86 3.28a70.87 70.87 0 005 9.91 57.15 57.15 0 012.65 5.24c.34.78.56 1.62.91 2.4a8.84 8.84 0 001.38 2c2.49 2.94 6 4.72 8.74 7.42a.92.92 0 001.31-1.3 32.38 32.38 0 01-6-8.52c-.42-.85-.81-1.72-1.16-2.6a18.94 18.94 0 00-.89-2.35 21.08 21.08 0 00-1.65-2c-.55-.73-1.08-1.48-1.58-2.25-3.9-6-6-12.91-8.43-19.58-.4-1.11-2.18-.63-1.77.49zM672.93 981c0 9.23 6.46 16.55 7.71 25.48.17 1.17 1.94.67 1.78-.49-1.23-8.74-7.69-16-7.65-25a.92.92 0 00-1.84 0zM653.49 981.83c1.41 7.21 4.21 14.42 5.15 21.91 4 14.17-1 32.74 9.7 44.16q-5.12.13-10.23-.21c-.48-3.25.73-5.54-3.52-5.73 0-11.38-1.25-50.93-1.35-59.75" fill="#565c63"/><path d="M652.6 982.07c1.08 5.37 2.81 10.56 4 15.88.57 2.5.91 5 1.48 7.53a48 48 0 011 6.19c.85 8.31.31 16.83 2.37 25a27.1 27.1 0 006.2 11.9l.65-1.57q-5.12.12-10.23-.21l.89.67c-.19-1.45.11-3.13-.53-4.49-.71-1.51-2.36-1.82-3.88-1.92l.93.93c0-16.73-.73-33.46-1.15-50.18-.08-3.19-.17-6.38-.21-9.57a.92.92 0 00-1.84 0c.2 16.29.86 32.58 1.2 48.87.07 3.62.15 7.25.15 10.88a.94.94 0 00.92.92c1.16.07 2.19.21 2.38 1.49s.1 2.38.25 3.56a.93.93 0 00.89.68q5.11.33 10.23.21a.93.93 0 00.65-1.57c-5.7-6.19-6.8-14.72-7.26-22.78-.24-4.15-.33-8.3-.73-12.44a55.59 55.59 0 00-.87-6c-.47-2.31-.87-4.63-1.35-6.93-1.23-5.89-3.22-11.59-4.4-17.5-.23-1.16-2-.67-1.78.49z" fill="#565c63"/><path d="M656.41 1000.58c2.33 2.5 5.29 4.19 8.22 5.88s6 3.41 7.93 6.21a12.24 12.24 0 011.23 2.17c.18.44.28.93.47 1.35a3.74 3.74 0 001.1 1.14c1.36 1.15 2.72 2.3 4 3.5a10 10 0 012.63 3.31 57.77 57.77 0 003.59 7.38.93.93 0 001.6-.93 47.44 47.44 0 01-3.35-6.78 9.79 9.79 0 00-2.4-3.56c-1.1-1.07-2.27-2.07-3.43-3.06a8.28 8.28 0 01-2.2-2.13c-.38-.8-.65-1.64-1.1-2.42-1.7-2.92-4.45-5-7.3-6.68-3.37-2-7-3.76-9.72-6.68-.81-.87-2.11.44-1.3 1.3zM683.09 1032.35q1 3.45 2.25 6.83a1 1 0 001.13.64.93.93 0 00.65-1.13q-1.27-3.37-2.26-6.83a.92.92 0 10-1.77.49z" fill="#565c63"/><path d="M677.59 1019.56c1.25 2.19 1.26 4.71 1.26 7.15a18.29 18.29 0 00.95 7.28.92.92 0 101.77-.49c-2-4.76.26-10.24-2.39-14.87a.92.92 0 00-1.59.93zM664.76 1006.53c1.61 10.71 5 21.32 12.19 29.65.78.9 2.08-.41 1.31-1.3-6.94-8.08-10.17-18.47-11.72-28.84-.18-1.17-1.95-.67-1.78.49z" fill="#565c63"/><path d="M672.25 1029.86c.12 4 .57 8.06 3.11 11.29a.93.93 0 001.3 0 1 1 0 000-1.31c-2.2-2.79-2.46-6.57-2.56-10a.93.93 0 00-1.85 0z" fill="#565c63"/><path d="M668.07 1027.74c-.65 7.44.71 15.2 7 20 .94.72 1.86-.88.93-1.59-5.7-4.34-6.64-11.7-6.06-18.38.1-1.18-1.74-1.18-1.84 0zM672.18 1009.72c-1.73-.81-4.84-1.89-5.39.87-.41 2 .41 4.19.28 6.26h1.85a16.23 16.23 0 00-.76-4.24c-.23-1-.71-2.72.32-3.46a.92.92 0 00.33-1.26 3.53 3.53 0 00-2.67-1.48.92.92 0 00-.92.92l.09 2.38 1.39-.8a11.21 11.21 0 01-3.63-4.7l-1.45 1.12a6.65 6.65 0 012 2.48l1.59-.93c-2-2.66-4.17-5.3-7.38-6.55-1.11-.43-1.59 1.36-.49 1.78 2.7 1 4.57 3.47 6.28 5.7a.92.92 0 001.59-.93 7.76 7.76 0 00-2.26-2.85.92.92 0 00-1.45 1.11 12.86 12.86 0 004.29 5.36.93.93 0 001.39-.79l-.1-2.38-.92.92a1.49 1.49 0 011.08.57l.33-1.26c-3.19 2.3-.34 6.27-.48 9.29-.05 1.19 1.78 1.18 1.85 0 .1-1.76-.37-3.48-.38-5.23a2.34 2.34 0 01.08-.78c.06-.17 0-.05.11-.22 0 .06 0 0 0 0a2.68 2.68 0 01.72 0 7.6 7.6 0 011.78.65c1.06.5 2-1.09.93-1.59zM671.54 834.13l-.11.79h1.78a4.28 4.28 0 00-3.81-3 .92.92 0 00-.92.92.94.94 0 00.92.92h.22-.25a3.17 3.17 0 01.8.22l-.22-.1a5.45 5.45 0 01.53.29l.15.1.24.22.21.22c.05.06.14.21 0 0 0 0 .06.08.08.12a3.81 3.81 0 01.31.56l-.1-.22a2.32 2.32 0 01.13.37.94.94 0 00.89.67 1.31 1.31 0 00.47-.12 1 1 0 00.42-.55l.11-.79a1 1 0 00-.09-.71 1 1 0 00-.55-.42.92.92 0 00-.71.09.91.91 0 00-.43.55zM664.3 818.51a26.18 26.18 0 01-1.47 2.29q-.18.27-.39.54l-.19.26c0-.07 0-.05 0 0a1.13 1.13 0 00-.1.13q-.43.56-.9 1.08a.94.94 0 000 1.3.93.93 0 001.3 0 29.75 29.75 0 003.35-4.68.92.92 0 00-.33-1.26 1 1 0 00-1.26.33zM661.83 812.71a11.29 11.29 0 01-3.61 6.92.92.92 0 001.3 1.3 13.17 13.17 0 004.16-8.22.94.94 0 00-.93-.92 1 1 0 00-.92.92zM658.15 814.22l-2.68 3.26a1 1 0 00-.27.65.91.91 0 00.27.65.93.93 0 001.3 0l2.68-3.25a1 1 0 00.27-.66 1 1 0 00-.27-.65.93.93 0 00-1.3 0zM656.34 807c.57 3.1-1.94 5.8-3.87 7.88-.8.87.5 2.18 1.31 1.31 2.46-2.66 5.05-5.8 4.34-9.68a.92.92 0 00-1.78.49zM651.31 801.76a54.42 54.42 0 00-1.37 9h1.84a97.51 97.51 0 01.21-13.46c.11-1.19-1.74-1.18-1.84 0a94.47 94.47 0 00-.21 13.46.92.92 0 001.84 0 51.69 51.69 0 011.31-8.49c.28-1.15-1.5-1.64-1.78-.49zM652.14 939.59l2 48.39 1.81-.24a119.93 119.93 0 01-1.52-17.12.93.93 0 00-1.85 0 125.27 125.27 0 001.59 17.61c.16 1 1.85.78 1.81-.25l-2-48.39c-.05-1.18-1.89-1.19-1.84 0z" fill="#565c63"/><path fill="#a7aaaf" d="M543.957 1002.945l108.919-4.203 1.702 44.107-108.92 4.203z"/><path fill="#878b8e" d="M538.175 924.036l114.365-4.414.722 18.707-114.365 4.413z"/><path fill="#d3d3d3" d="M542.322 987.263l110.958-4.282.522 13.52-110.958 4.282zM539.48 941.306l113.086-4.364 1.602 41.509-113.086 4.364zM536.725 869.073l116.41-4.656 2.199 54.97-116.41 4.656zM533.623 823.277l118.95-4.758.548 13.69-118.95 4.758zM531.3 809.771l119.291-4.603.476 12.33-119.291 4.604zM535.076 847.859l118.02-4.721.606 15.14-118.02 4.72zM533.162 840.431l117.933-4.55.222 5.775-117.932 4.551zM528.2 756.038l121.339-4.682.1 2.598-121.34 4.682z"/><path fill="#a7aaaf" d="M528.3 758.632l121.339-4.682.1 2.598-121.34 4.682zM528.756 770.492l121.34-4.682.284 7.364-121.34 4.683zM529.364 786l121.34-4.682.122 3.178-121.34 4.682z"/><path fill="#878b8e" d="M529.476 789.174l121.34-4.683.122 3.178-121.34 4.682zM536.482 862.96l116.41-4.656.244 6.11-116.41 4.656zM543.107 1000.85l110.438-4.261.081 2.118-110.437 4.262zM541.23 982.805l112.796-4.353.174 4.496-112.796 4.353z"/><path fill="#a7aaaf" d="M529.599 792.357l121.34-4.683.122 3.178-121.34 4.682zM531.144 807.526l119.451-4.61.138 3.577-119.45 4.61zM531.705 822.094l119.452-4.61.092 2.409-119.45 4.61zM532.858 836.157l118.222-4.562.191 4.966-118.222 4.562zM535.45 882.634l116.612-4.5.096 2.478-116.613 4.5z"/><path fill="#c6c9ce" d="M535.66 888.112l116.614-4.5.072 1.889-116.613 4.5z"/><path fill="#a7aaaf" d="M536.834 898.56l115.084-4.442.048 1.24-115.085 4.44z"/><path fill="#878b8e" d="M537.254 909.465l115.084-4.44.048 1.238-115.085 4.441z"/><path fill="#a7aaaf" d="M537.191 902.383l114.655-4.425.047 1.24-114.654 4.424z"/><path fill="#c6c9ce" d="M537.332 905.784l114.655-4.424.098 2.548-114.655 4.424z"/><path fill="#c6c9ce" opacity=".19" d="M538.224 928.938l114.655-4.424.314 8.134-114.655 4.424z"/><path fill="#878b8e" d="M533.25 846.326l118.221-4.562.095 2.458-118.222 4.562z"/><path fill="#a7aaaf" d="M532.485 826.481l118.222-4.562.047 1.21-118.222 4.562z"/><path fill="#d3d3d3" d="M530.14 795.504l120.52-4.651.123 3.177-120.52 4.651z"/><path fill="#878b8e" d="M529.04 777.865l121.34-4.682.314 8.134-121.34 4.682zM530.612 798.669l119.811-4.624.343 8.874-119.811 4.623z"/><path fill="#d3d3d3" d="M528.398 761.212l121.34-4.683.375 9.733-121.34 4.682z"/><path fill="#a7aaaf" d="M540.779 974.977l113.085-4.364.223 5.766-113.086 4.364z"/><path fill="#d3d3d3" d="M542.322 987.263l110.958-4.282.522 13.52-110.958 4.282z"/><path fill="#a7aaaf" d="M542.822 997.363l110.738-4.273.135 3.497-110.738 4.274z"/><path fill="#d3d3d3" d="M543.229 1047.143l113.775-4.39.522 13.52-113.775 4.39z"/><path fill="#878b8e" d="M545.177 1030.939l108.619-4.192.063 1.629-108.62 4.192zM545.35 1035.15l108.618-4.193.063 1.63-108.62 4.19zM545.493 1039.15l108.62-4.191.062 1.628-108.619 4.192zM547.512 1042.192l108.7-4.348.065 1.63-108.7 4.348zM545.734 1045.406l108.62-4.191.062 1.628-108.619 4.192z"/></svg>