<svg xmlns="http://www.w3.org/2000/svg" width="1000" height="1550" viewBox="0 0 1000 1550"><path stroke-width="3" stroke="#262521" stroke-linecap="round" stroke-linejoin="round" fill="#262521" d="M333.04 1233.37h297.15v355.2H333.04z"/><path fill="none" stroke="#636363" stroke-linecap="round" stroke-linejoin="round" d="M478.01 1510.38l-3.89 86.45-153.94-.22-40.74-332.09M675.98 1248.13l20.1 342.24-158.7-1.85-12.11-82.38"/><path d="M514.18 509.56c.86 13.66 1.92 12.82 6 16.32 1.88 1.61 7.6 4.25 15.59 7.46-.83 3.65-6.69 21.57-6.63 23.65.37 12.35 30-12.6 31.09-16 2.21-6.99-26.86-32.52-46.05-31.43z" fill="#262521"/><path d="M675.54 1223.65l-26.64-647-124.34-50.1s-7.62 55.38-75 58.47-73.43-58.47-73.43-58.47L271.73 617l28.09 396-14.17 268.54s100.87 16.51 214.68 12 180.87-13.74 180.87-13.74z" fill="#262521" stroke="#262521" stroke-linecap="round" stroke-linejoin="round" stroke-width="3"/><path d="M363.78 535.38c10.38-5.26 17.73-10.2 19.27-14.15 2.32-6 3.09-5.75 3-14.93-14.32.79-48.6 33.16-42.94 43.91s28.3 39.88 28.3 39.88c1.14-12.33-6.15-50.62-7.63-54.71z" fill="#262521"/><path d="M422.23 717.36c-24.29-69.4-53.3-172.25-57.11-183.51a10.79 10.79 0 01-.75-2.59c-1 .65-101 62.61-145.44 89.5C163.65 654.21 192.25 945 192.25 945s-24.38 212.36 1 296.39c2.37 15.93 3.05 28 6.44 41.4l63.95-1.5s-4.06-29.79-3.11-42.46c12.87-27.53 10.41-100.55 20.24-131.5 6-18.8 10.39-47.35 12.93-66.86a163.78 163.78 0 01-1.32 19.9c-3.73 22.75-25 83.8-14.05 144.17-3 26.45 11.27 294 11.27 294s109.65 95.18 147.41 85.05c-.01.06 8.84-798.73-14.78-866.23z" fill="#262521" stroke="#262521" stroke-linecap="round" stroke-linejoin="round" stroke-width="3"/><path d="M289.6 1498.6s109.65 95.18 147.41 85.05" fill="none" stroke="#636363" stroke-linecap="round" stroke-linejoin="round"/><path d="M735.35 918.39s-1.41-298-58.89-331.94c-11.18-6.61-142.29-56.21-142.29-56.21s-3 143.26-24.34 184.87 48.82 856.37 48.82 856.37c120-4.44 145.14-79.08 145.14-79.08s-18.69-267.19-22.59-298.49c3.94-36.14-5.66-81.16-16.45-126.52 13.83 47.61 28.27 153.84 38.48 163 1.64 26.39 1.88 36.36 1.88 36.36l64.1-1.5s-1-14.3-2.6-35.73c25.63-83.14-31.26-311.13-31.26-311.13z" fill="#262521" stroke="#262521" stroke-linecap="round" stroke-linejoin="round" stroke-width="3"/><path d="M558.65 1571.48c120-4.44 145.14-79.08 145.14-79.08M434.2 1562.48s-23.91-164.13-2.76-355.45c18.87-170.7-3.72-350.11-6-393.9-7.57-146.29-66.6-266-60.34-279.28M534.17 530.24c11.68 10.07-24.34 126.15-25.44 229.94-.7 66.44-12 384.88 34.91 597.55 27.45 124.47 15 213.75 15 213.75M433.83 1506.65s71.36 13.09 120.08-9.79" fill="none" stroke="#636363" stroke-linecap="round" stroke-linejoin="round"/><path d="M374.9 528.64s12.74 107.08 77 107.08 74.86-107.55 74.86-107.55" fill="none" stroke="#262521" stroke-linecap="round" stroke-linejoin="round" stroke-width="8.27" stroke-dasharray="1.65 4.96"/><path d="M378.91 545.56a1.66 1.66 0 01-1.62-1.31l-.34-1.63a1.65 1.65 0 113.24-.66l.34 1.6a1.66 1.66 0 01-1.28 2 2 2 0 01-.34 0zm71.58 90.3a1.65 1.65 0 010-3.3h1.6a1.66 1.66 0 01.15 3.31h-1.71zm-4.95-.19h-.15c-.57 0-1.14-.12-1.7-.19a1.65 1.65 0 11.42-3.28c.52.07 1.05.13 1.58.18a1.65 1.65 0 01-.15 3.3zm11.54-.3a1.66 1.66 0 01-.22-3.3l1.58-.23a1.65 1.65 0 11.54 3.26c-.56.09-1.12.18-1.68.25zm-18-.78a1.72 1.72 0 01-.39 0c-.56-.14-1.11-.28-1.65-.44a1.64 1.64 0 01-1.15-2 1.67 1.67 0 012-1.15c.51.14 1 .28 1.54.4a1.65 1.65 0 01-.39 3.26zm24.51-.48a1.66 1.66 0 01-.41-3.26c.52-.13 1-.27 1.55-.42a1.66 1.66 0 012 1.14 1.64 1.64 0 01-1.13 2c-.54.16-1.09.31-1.64.45a1.92 1.92 0 01-.41.09zm-30.79-1.52a1.66 1.66 0 01-.61-.12c-.53-.21-1.06-.43-1.58-.66a1.66 1.66 0 011.34-3c.48.22 1 .42 1.47.62a1.65 1.65 0 01-.62 3.19zm37.07-.49a1.66 1.66 0 01-.6-3.2c.5-.19 1-.39 1.49-.6a1.66 1.66 0 011.29 3.05l-1.58.64a1.81 1.81 0 01-.64.11zm-43-2.37a1.63 1.63 0 01-.82-.22c-.49-.28-1-.56-1.46-.86a1.65 1.65 0 011.72-2.82l1.37.81a1.65 1.65 0 01-.81 3.09zm-19.48-17.62a1.67 1.67 0 01-1.31-.64l-1-1.35a1.66 1.66 0 012.66-2c.32.44.65.87 1 1.3a1.65 1.65 0 01-1.31 2.66zm-3.86-5.38a1.64 1.64 0 01-1.37-.73l-.93-1.4a1.67 1.67 0 01.49-2.29 1.65 1.65 0 012.29.49l.9 1.36a1.66 1.66 0 01-.46 2.29 1.63 1.63 0 01-.95.28zm100-5.07a1.7 1.7 0 01-.86-.24 1.66 1.66 0 01-.55-2.27l.85-1.4a1.65 1.65 0 012.84 1.68l-.86 1.44a1.67 1.67 0 01-1.41.79zM400 601.13a1.67 1.67 0 01-1.43-.82l-.83-1.45a1.65 1.65 0 112.86-1.64l.83 1.42a1.66 1.66 0 01-.59 2.26 1.71 1.71 0 01-.84.23zm106.86-5.22a1.69 1.69 0 01-.78-.19 1.65 1.65 0 01-.68-2.24l.77-1.45a1.65 1.65 0 012.93 1.53l-.8 1.44a1.65 1.65 0 01-1.46.91zm-110.08-.57a1.66 1.66 0 01-1.46-.88l-.77-1.49a1.65 1.65 0 113-1.5c.24.48.49 1 .75 1.45a1.66 1.66 0 01-.7 2.23 1.62 1.62 0 01-.84.19zM509.82 590a1.78 1.78 0 01-.7-.16 1.65 1.65 0 01-.79-2.2l.69-1.49a1.66 1.66 0 013 1.38l-.71 1.52a1.65 1.65 0 01-1.49.95zm-116-.6a1.66 1.66 0 01-1.5-.94l-.71-1.52a1.66 1.66 0 113-1.38l.69 1.48a1.67 1.67 0 01-.79 2.21 1.76 1.76 0 01-.69.15zm118.7-5.4a1.63 1.63 0 01-.64-.13 1.66 1.66 0 01-.89-2.17l.63-1.51a1.65 1.65 0 113.06 1.25l-.63 1.54a1.66 1.66 0 01-1.53 1.02zm-121.41-.59a1.65 1.65 0 01-1.52-1l-.64-1.54a1.65 1.65 0 113.05-1.26l.64 1.5a1.66 1.66 0 01-.88 2.17 1.64 1.64 0 01-.65.08zM515 577.79a1.67 1.67 0 01-1.55-2.24c.19-.51.38-1 .56-1.53a1.65 1.65 0 113.11 1.12c-.19.52-.38 1.05-.58 1.57a1.65 1.65 0 01-1.54 1.08zm-126.33-.56a1.66 1.66 0 01-1.54-1.06l-.59-1.56a1.65 1.65 0 113.09-1.17l.59 1.54a1.67 1.67 0 01-.95 2.14 1.81 1.81 0 01-.64.11zm128.52-5.69a1.63 1.63 0 01-.52-.09 1.67 1.67 0 01-1-2.09c.18-.52.34-1 .51-1.55a1.65 1.65 0 113.15 1c-.17.53-.34 1.06-.52 1.59a1.65 1.65 0 01-1.66 1.14zM386.35 571a1.66 1.66 0 01-1.56-1.11l-.54-1.58a1.65 1.65 0 113.13-1.07l.53 1.56a1.66 1.66 0 01-1 2.11 1.76 1.76 0 01-.56.09zm132.78-5.8a1.53 1.53 0 01-.47-.07 1.65 1.65 0 01-1.12-2l.46-1.58a1.65 1.65 0 113.18.91l-.47 1.6a1.65 1.65 0 01-1.58 1.15zm-134.88-.49a1.65 1.65 0 01-1.57-1.15l-.5-1.59a1.66 1.66 0 013.16-1l.49 1.58a1.64 1.64 0 01-1.08 2.07 1.42 1.42 0 01-.5.1zm136.65-5.9a2 2 0 01-.42-.05 1.66 1.66 0 01-1.19-2c.14-.53.28-1.06.41-1.59a1.65 1.65 0 013.21.8c-.13.54-.27 1.08-.42 1.63a1.64 1.64 0 01-1.59 1.22zm-138.57-.44a1.65 1.65 0 01-1.59-1.2l-.46-1.6a1.66 1.66 0 013.19-.9l.45 1.58a1.65 1.65 0 01-1.13 2 1.47 1.47 0 01-.46.13zm140.14-6a1.55 1.55 0 01-.37 0 1.64 1.64 0 01-1.24-2l.36-1.61a1.63 1.63 0 012-1.25 1.66 1.66 0 011.26 2l-.37 1.62a1.66 1.66 0 01-1.64 1.25zm-141.9-.37a1.66 1.66 0 01-1.6-1.24l-.42-1.61a1.65 1.65 0 113.2-.82l.42 1.59a1.66 1.66 0 01-1.18 2 1.52 1.52 0 01-.42.08zm143.28-6.1h-.32a1.65 1.65 0 01-1.3-1.94l.31-1.61a1.65 1.65 0 113.25.62l-.32 1.63a1.65 1.65 0 01-1.62 1.29zm1.2-6.52a1.33 1.33 0 01-.28 0 1.64 1.64 0 01-1.35-1.9c.09-.56.18-1.1.26-1.62a1.66 1.66 0 113.27.52c-.08.53-.18 1.08-.27 1.65a1.66 1.66 0 01-1.63 1.34zm-147.54-.29a1.66 1.66 0 01-1.62-1.31l-.34-1.64a1.65 1.65 0 013.24-.66l.34 1.61a1.65 1.65 0 01-1.28 2 1.32 1.32 0 01-.34-.01zm148.54-6.28h-.22a1.66 1.66 0 01-1.42-1.86c.08-.59.15-1.13.22-1.63a1.64 1.64 0 011.84-1.44 1.66 1.66 0 011.44 1.85c-.07.51-.14 1.06-.22 1.66a1.65 1.65 0 01-1.64 1.41zm-149.84-.23a1.66 1.66 0 01-1.63-1.36l-.3-1.64a1.66 1.66 0 013.26-.58l.29 1.62a1.65 1.65 0 01-1.32 1.93z" fill="#b7b6b0"/><path d="M452.08 638.42h-1.71a1.66 1.66 0 11.13-3.31h1.61a1.66 1.66 0 010 3.31zm4.95-.17a1.65 1.65 0 01-.13-3.3l1.59-.15a1.65 1.65 0 11.37 3.28c-.56.07-1.13.12-1.7.17zm-11.54-.25h-.22c-.57-.07-1.13-.16-1.69-.25a1.65 1.65 0 01.54-3.26l1.59.23a1.66 1.66 0 01-.22 3.3zm18.07-.64a1.66 1.66 0 01-.33-3.28c.52-.11 1-.22 1.55-.35a1.67 1.67 0 012 1.21 1.65 1.65 0 01-1.21 2c-.55.14-1.11.26-1.67.38a2 2 0 01-.34 0zm-24.56-.69a1.65 1.65 0 01-.43-.06c-.54-.14-1.09-.3-1.64-.46a1.66 1.66 0 011-3.17l1.54.44a1.65 1.65 0 01-.43 3.25zm30.91-1.12a1.66 1.66 0 01-.54-3.22l1.5-.55a1.65 1.65 0 111.19 3.08c-.53.21-1.06.41-1.6.59a1.52 1.52 0 01-.54.1zm-37.17-1a1.5 1.5 0 01-.62-.13c-.53-.21-1.05-.44-1.57-.67a1.65 1.65 0 111.35-3q.72.33 1.47.63a1.66 1.66 0 01-.63 3.19zM476 633a1.65 1.65 0 01-.75-3.13c.48-.24.95-.49 1.42-.74a1.65 1.65 0 111.58 2.9c-.5.28-1 .54-1.52.8a1.73 1.73 0 01-.73.17zm-49.2-1.3a1.72 1.72 0 01-.81-.21c-.49-.28-1-.56-1.46-.85a1.65 1.65 0 111.69-2.84c.46.27.92.54 1.39.8a1.65 1.65 0 01-.81 3.1zm-5.58-3.54a1.64 1.64 0 01-1-.31c-.46-.33-.92-.66-1.37-1a1.65 1.65 0 112-2.64l1.3.95a1.66 1.66 0 01.39 2.31 1.68 1.68 0 01-1.32.69zm79.19-17a1.65 1.65 0 01-1.33-2.62l.94-1.33a1.65 1.65 0 012.71 1.89l-1 1.38a1.68 1.68 0 01-1.32.63zm-97.59-1.83a1.65 1.65 0 01-1.34-.69l-1-1.38a1.65 1.65 0 112.71-1.88l.94 1.33a1.65 1.65 0 01-.37 2.3 1.68 1.68 0 01-.94.27zm101.29-3.66a1.65 1.65 0 01-1.4-2.53l.86-1.39a1.65 1.65 0 112.82 1.73c-.29.47-.58 1-.88 1.42a1.64 1.64 0 01-1.4.72zm-105-1.84a1.65 1.65 0 01-1.4-.77l-.89-1.42a1.66 1.66 0 112.82-1.74l.87 1.4a1.65 1.65 0 01-1.4 2.53zm108.36-3.86a1.55 1.55 0 01-.8-.21 1.64 1.64 0 01-.64-2.24l.78-1.44a1.65 1.65 0 112.91 1.56c-.26.5-.53 1-.8 1.48a1.66 1.66 0 01-1.45.8zm-111.77-1.88a1.66 1.66 0 01-1.44-.84c-.28-.49-.55-1-.82-1.47a1.65 1.65 0 012.9-1.59l.8 1.43a1.64 1.64 0 01-.63 2.25 1.57 1.57 0 01-.81.22zM510.54 594a1.77 1.77 0 01-.73-.17 1.67 1.67 0 01-.75-2.22c.24-.49.48-1 .71-1.47a1.66 1.66 0 013 1.42c-.24.51-.48 1-.73 1.51a1.66 1.66 0 01-1.5.93zm-118-1.79a1.67 1.67 0 01-1.48-.91l-.75-1.49a1.66 1.66 0 113-1.47c.24.49.48 1 .73 1.46a1.66 1.66 0 01-.72 2.23 1.69 1.69 0 01-.75.22zM513.33 588a1.58 1.58 0 01-.66-.15 1.65 1.65 0 01-.85-2.18c.22-.5.44-1 .65-1.5a1.66 1.66 0 013 1.3c-.22.51-.45 1-.67 1.54a1.66 1.66 0 01-1.47.99zm-123.64-1.75a1.64 1.64 0 01-1.5-1q-.36-.77-.69-1.53a1.64 1.64 0 01.83-2.18 1.66 1.66 0 012.19.83c.22.5.44 1 .67 1.5a1.65 1.65 0 01-.81 2.19 1.68 1.68 0 01-.69.22zm126.19-4.38a1.64 1.64 0 01-.61-.11 1.66 1.66 0 01-.93-2.15l.6-1.53a1.66 1.66 0 013.06 1.22c-.2.52-.4 1-.61 1.56a1.65 1.65 0 01-1.51 1.04zM387 580.21a1.66 1.66 0 01-1.52-1c-.22-.52-.43-1-.64-1.55a1.66 1.66 0 013.07-1.24l.62 1.52a1.65 1.65 0 01-.89 2.16 1.59 1.59 0 01-.64.11zm131.17-4.52a1.76 1.76 0 01-.55-.09 1.66 1.66 0 01-1-2.11l.54-1.56a1.66 1.66 0 013.13 1.08l-.55 1.58a1.65 1.65 0 01-1.54 1.1zM384.59 574a1.64 1.64 0 01-1.59-1l-.58-1.56a1.65 1.65 0 013.1-1.15l.58 1.55a1.66 1.66 0 01-1 2.13 1.69 1.69 0 01-.51.03zm135.72-4.64a1.73 1.73 0 01-.5-.07 1.67 1.67 0 01-1.08-2.08l.5-1.57a1.65 1.65 0 013.16 1l-.5 1.59a1.67 1.67 0 01-1.58 1.17zm-138-1.59a1.64 1.64 0 01-1.56-1.12l-.54-1.58a1.65 1.65 0 113.13-1.05l.53 1.55a1.66 1.66 0 01-1 2.11 1.7 1.7 0 01-.53.13zm139.89-4.76a1.76 1.76 0 01-.46-.06 1.65 1.65 0 01-1.13-2c.15-.53.3-1.05.44-1.57a1.65 1.65 0 113.19.87c-.15.54-.3 1.07-.46 1.61a1.63 1.63 0 01-1.55 1.19zm-142-1.54a1.68 1.68 0 01-1.58-1.16l-.49-1.6a1.66 1.66 0 011.1-2.06 1.64 1.64 0 012.06 1.1l.49 1.57a1.65 1.65 0 01-1.08 2.07 1.74 1.74 0 01-.43.12zm143.8-4.82a2 2 0 01-.42 0 1.67 1.67 0 01-1.19-2l.4-1.59a1.66 1.66 0 013.22.79l-.41 1.63a1.66 1.66 0 01-1.6 1.17zm-145.59-1.5a1.65 1.65 0 01-1.59-1.2l-.45-1.61a1.65 1.65 0 113.19-.88L380 553a1.66 1.66 0 01-1.14 2.05 1.82 1.82 0 01-.49.1zm147.14-4.95a2.46 2.46 0 01-.37 0 1.65 1.65 0 01-1.24-2l.36-1.61a1.65 1.65 0 113.23.71l-.37 1.63a1.64 1.64 0 01-1.65 1.27zm-148.87-1.46a1.65 1.65 0 01-1.6-1.24l-.4-1.61a1.65 1.65 0 113.2-.81l.41 1.6a1.66 1.66 0 01-1.19 2 1.51 1.51 0 01-.46.06zm150.25-5h-.32a1.65 1.65 0 01-1.3-1.94l.31-1.61a1.65 1.65 0 013.25.61l-.32 1.64a1.64 1.64 0 01-1.66 1.26zm-151.81-1.41a1.65 1.65 0 01-1.61-1.28l-.37-1.63a1.65 1.65 0 113.23-.71l.36 1.6a1.64 1.64 0 01-1.24 2 1.55 1.55 0 01-.41-.02zm153-5.12a1.37 1.37 0 01-.28 0 1.65 1.65 0 01-1.35-1.91l.26-1.62a1.66 1.66 0 013.27.52l-.27 1.65a1.66 1.66 0 01-1.65 1.32zm-154.44-1.41a1.66 1.66 0 01-1.62-1.32c-.12-.58-.22-1.13-.32-1.65a1.65 1.65 0 011.31-1.94 1.68 1.68 0 011.94 1.32c.09.5.2 1 .31 1.61a1.65 1.65 0 01-1.29 1.95z" fill="#7f7e78"/><path d="M475.83 629.35a1.66 1.66 0 01-.78-3.12c.48-.25.94-.51 1.41-.77a1.65 1.65 0 111.64 2.87c-.49.28-1 .56-1.5.82a1.53 1.53 0 01-.77.2zm-54.52-3.23a1.65 1.65 0 01-1-.33c-.45-.33-.9-.68-1.35-1a1.66 1.66 0 112-2.6c.42.34.84.66 1.27 1a1.65 1.65 0 01-1 3zm60.17-.21a1.65 1.65 0 01-.93-3c.44-.3.87-.61 1.31-.93a1.65 1.65 0 011.94 2.68c-.45.33-.92.66-1.38 1a1.63 1.63 0 01-.94.25zm-65.24-4a1.67 1.67 0 01-1.13-.44l-1.23-1.16a1.65 1.65 0 012.3-2.38c.39.38.78.75 1.18 1.11a1.66 1.66 0 01-1.12 2.87zm70.47 0a1.65 1.65 0 01-1.07-2.91l1.21-1.06a1.65 1.65 0 012.21 2.46c-.42.38-.84.75-1.27 1.11a1.63 1.63 0 01-1.08.38zm4.81-4.51a1.66 1.66 0 01-1.19-2.81l1.12-1.17a1.65 1.65 0 112.42 2.25q-.57.61-1.17 1.23a1.64 1.64 0 01-1.18.48zm-79.93-.19a1.66 1.66 0 01-1.23-.54l-1.11-1.27a1.65 1.65 0 112.5-2.16c.35.41.71.81 1.07 1.21a1.65 1.65 0 01-1.23 2.76zm84.33-4.75a1.62 1.62 0 01-1.05-.38 1.65 1.65 0 01-.23-2.32c.35-.42.68-.84 1-1.26a1.65 1.65 0 012.59 2l-1.05 1.31a1.68 1.68 0 01-1.26.63zm4-5.25a1.65 1.65 0 01-1.35-2.61l.93-1.33a1.65 1.65 0 112.73 1.86l-1 1.38a1.69 1.69 0 01-1.32.68zM372.49 529.29a1.65 1.65 0 01-1.63-1.39l-.13-.84a1.65 1.65 0 013.27-.47l.12.78a1.66 1.66 0 01-1.37 1.9z" fill="#f4f4f4"/><path d="M481.72 629.66a1.66 1.66 0 01-.91-3c.45-.29.88-.59 1.32-.9a1.65 1.65 0 012.31.4 1.67 1.67 0 01-.4 2.31c-.47.32-.93.64-1.41 1a1.6 1.6 0 01-.91.19zm5.3-3.95a1.65 1.65 0 01-1.06-2.92c.42-.34.82-.69 1.23-1a1.65 1.65 0 012.18 2.49l-1.29 1.1a1.64 1.64 0 01-1.08.33zm-71-1.66a1.61 1.61 0 01-1.08-.41c-.43-.37-.85-.75-1.27-1.13a1.66 1.66 0 012.24-2.44q.58.55 1.2 1.08a1.65 1.65 0 01.16 2.33 1.62 1.62 0 01-1.27.57zm75.87-2.81a1.68 1.68 0 01-1.17-.48 1.66 1.66 0 010-2.34c.38-.38.76-.77 1.13-1.16a1.66 1.66 0 012.4 2.28c-.39.41-.78.81-1.18 1.21a1.63 1.63 0 01-1.17.49zm-80.65-1.76a1.64 1.64 0 01-1.19-.51l-1.16-1.23a1.66 1.66 0 012.43-2.25l1.11 1.19a1.65 1.65 0 010 2.34 1.72 1.72 0 01-1.18.46zm85.11-3.14a1.61 1.61 0 01-1.06-.38 1.64 1.64 0 01-.21-2.33l1-1.25a1.64 1.64 0 012.32-.26 1.66 1.66 0 01.26 2.33c-.36.44-.71.87-1.08 1.3a1.63 1.63 0 01-1.22.59zm-89.5-1.81a1.65 1.65 0 01-1.28-.61c-.36-.43-.71-.87-1.06-1.31a1.65 1.65 0 012.59-2.05l1 1.26a1.66 1.66 0 01-1.27 2.71zM529.09 530.64h-.21a1.65 1.65 0 01-1.43-1.85l.1-.78a1.65 1.65 0 113.28.36s0 .29-.1.85a1.66 1.66 0 01-1.64 1.42z" fill="#f4f4f4"/></svg>