<svg xmlns="http://www.w3.org/2000/svg" width="1000" height="1550" viewBox="0 0 1000 1550"><defs><clipPath id="a"><path d="M674.15 1203.54c-21 7.91-109 43.46-201 46.14-139.21 1.13-197.15-27.59-197.15-27.59-9.66-28.15 9.61-149.43 9.61-149.43-24.9 50.82-25.95 166-25.95 166s-27.64-4.81-65.33 0c1.16-42.87-14.89-241-2.12-293.59-13.72-204.3 5.38-306.88 22.83-321.14 13-10.61 135.78-84.26 135.78-84.26s19.77 63.69 102.89 63.69 95.94-66.88 95.94-66.88 111 41 126.77 50 43.1 100.89 52.89 331.94c24 73.82 40.1 303.09 40.1 303.09s-26.72-6.42-65.38.23c2-25.82-34.52-140.47-34.52-140.47s16.36 101.85 4.64 122.27z" fill="none"/></clipPath></defs><path fill="#262521" d="M281.04 1242.63l389.84-11.35v96.96H298.37l-17.33-85.61z"/><path d="M296.22 1019s-11.62 57.38-21.45 88.33-13.09 105-15.36 135.22c-1 12.66 4.65 27 4.65 27l-61 1.5c-16.33-18.74-8.92-129.52-14.45-197.94A619.79 619.79 0 01192.25 945s-18.05-297.29 26.68-324.24 145.46-89.52 145.46-89.52-.24-.24.73 2.61c4.11 12.15 21.13 51.38 86.21 51.38 80.35 0 82.84-55 82.84-55s131.41 49.11 142.29 56.21c38.3 25 52.89 331.94 52.89 331.94s19 68.76 22.88 124.63c5.58 81.26 18.66 177.57 17.85 189.79s-5.3 18.89-5.3 18.89h-58.1s-1.25-8-2.89-34.36c-2.47-39.8-31-134-48.07-177.22" fill="#f4f4ed" stroke="#262521" stroke-linecap="round" stroke-linejoin="round" stroke-width="3"/><path d="M711 1220.48s30.63-3.83 52.36 0M200.27 1238s30.63-3.83 52.37 0M353 546.43s21.5 56.9 100.8 56.9 94.27-62 94.27-62" fill="none" stroke="#636363" stroke-linecap="round" stroke-linejoin="round"/><path d="M285.65 807.61s5.34 199.1 3.83 238.13c-.83 21.49-25.74 146.36-13.43 173.54.05 13-1.31 43-1.31 43s125.58 15 202.58 14c137.52-1.66 203.71-31.15 203.71-31.15s-5.72-26.57-6.5-40.16c14.5-25-15.26-160.16-17.06-230.11-1.22-47.59-16.09-167.28-16.09-167.28" fill="#f4f4ed" stroke="#262521" stroke-linecap="round" stroke-linejoin="round" stroke-width="3"/><path d="M287 1224.34s164.11 22.31 371.78-13" fill="none" stroke="#636363" stroke-linecap="round" stroke-linejoin="round"/><g clip-path="url(#a)" fill="#262521"><path d="M641.87 824.15c7-13.11 11.76-36.92 4.43-48-5.14-6.64.25-19.56-9.78-21.11 4.15-14.43-8.22-45.18-24.18-45.17-1.56-.68-4.87-7-7.64-8.28-1.18 7.05-5.86 5.81-11.59 4.09 32.89 32.02 44.14 72.9 48.76 118.47zM630.93 752c0-3.66-5-7.12.29-11.43 1.79 4.93 3.51 9.68 5.24 14.43-3.46 2.5-5.58 2.08-5.53-3zM675.1 1131.47l-3.14-19.7c-4.47-.76-17.4-11.67-19.7-3.61-37.78 2.07-68.62-37.68-106.22-45.72-10.14 5.2-23.34-8.79-31.19 1 29.13 21 57 11.7 83 33.93 1.31 8.74 9.56 6.39 14.13 9.92 12 11.53 11.77.27 30.49 9.51 7.55.6 13.18 21.76 20 19-2.57-4.71-6.41-8.82-7-14.41 6.53.45 17.04 5.37 19.63 10.08zM288.42 960.22c-8.34-.86-16.93-3.26-24.36-4.84-9-4.12-22.07-3.92-28.47-9.54-6.42-3.63-17.1-3.32-20.81-8.61-2.76-2.37-.67-10.15-8.33-6.13-7.37 3.76-9-5.46-14.12-7.21-22.24 1.2-45 39-35.24 48.57 2.13-6.12 20.65-20.24 33.44-18.26 4.13 2.73 6.81 7 15.86 3.77 8.61 1.28 1.24 8 16 4.51 9.66-2.14 7.87 5.66 25 5.11 3.22.34 7.6-.57 6.49 3-.16.51 1.22 1.63 1.51 1.57 13.54-.36 19.32 10.1 33 7.52z"/><path d="M288.78 996.53c-12.6 1.72-21.38-.59-32.38-3.83-11.53-2.75-25.72-1.24-35-6.77-.06-8.67-21.85.06-21.46-9.15-.18-1.22-6.52-1.87-7.75-2.49-2-5.86-5.28-2.08-8.65 0-13.8-.28-21.42 21.06-16.83 31.55 27.63-15.54 7.27.79 24.42-1.06 3.69-.82 5.15.14 7.36 1.94 10.3 10.26 37.66 2.62 53.25 5.95 6.62 10.65 24.69 12.29 36.63 15 1.19.43.01-30.97.41-31.14z"/><path d="M187.39 1050.28c10.59-7.34 16.56 1.73 27.8 2 24.69 1.81 47.09-6 70.5 6.06-1.08-8.77-15.24-11.73-9.58-21.17-18.85 2.63-24.44-9.68-41.42-5.8-5.74 3-3.36-2.08-8.18-1.65-13.6 1.33-37.14 5.35-42.19-12.6-4.83-21.72-2.59 31.5 3.07 33.16zM275.42 1104.1c-13.15-6.58-26.24.51-39.54-5 2.16-2.09 5.46-4.43 9.36-3 5.65 4.14 21.93 1.9 31.93 2.27 12.22-17-59.13-4.39-65.78-18.59 13.56-4.19 23.57 2.52 36.36 1.84 21.56 1.15 34.61 17.14 37.19-13.26-4.07.46-7.67-3.5-12.46-2.07-10 3.7-17.56.2-26.73-.65-5.36-.25-2.69-5.92-8.16-2.13-5.51 5-59.58-16.25-65-7.35-4.36 8.37 3.79 42.62 19.39 32.11 22.51 12 42.9 5 41.82 10.48-.21 1.86-.37 3-4.64 2.28-3.14-.15-9.65.1-10.58 2.82 14.18-1.23 10.75 1.64 22.09 4.69 19.5 2.36 32.76 12.04 34.75-4.44zM266 948c7.8 1.08 16 1.62 23.71 3.09-.11-3.08-1.13-6.4-.52-9.4-2.92-.49-9.54-.81-9.13-1.37-2-5.8-10.72-3.06-16.13-4.18-12.71-.93-21.76-6.39-37.17-4.6 21.77 13.51 25.02 8.13 39.24 16.46z"/><path d="M287.52 918.46c-33.11-6.76-76.86-10.91-93.43-42.15 16.27-.61 28.31 7.77 41.34 11.82 22.84-.07 30.83-1 51.27 8.2V874.6c-6.3 1.46-18-6-19.87-11.52.22-6.23-3.76-3.77-11-1.51-10.45-1.23-22.19-1.24-26.84-7.52-9.72-5.71-39.57-8.52-28-24.09 2.06-.22 6 .24 6.08.83.91 5.19 9.56 5.63 13.3 9.19 17.86-13.32 24.31 5.18 44.36-.27 7.55-.45 15.24-3.67 22.65-1.45 1.71-32.51-51.86-24.3-15.67-8.55 1.05 2.68-7.66 3-9.91 2.63-24.2-3.65-5.55-19.86-26-17.77-15.68-8.28-27.08-3.79-35.53-16.45-3.52-2.61-2.59-7.36-10.83-7.83-1.92-1.25-2.87-7.36-7.94-7.73-17.05 5.4-26.5 125-21.18 149.19 6.74-3.25 24.74-25.77 32.52-17.33.54.45 5.23-1 8.07-1.6 2.57 1.94 4.71 5.12 8.7 6.25 7.93.95 11.41 13.47 17.7 11 4.32-4 36.65-2.11 38.83 1.54 6 2.55 17.22 1.25 21.29 5.87zM647.11 941a21.17 21.17 0 01-.35 3.1c-8.45-3.65-11.74-15-17.42-14.81-8.19 1.83-20-28.84-37.34-16.3 6.76 10.33 19.83 13.18 28.38 21 .89 2.05 1.25 4.25 3.84 1.67 4.72 1.68 24.59 22.2 32.55 34.43-.13-11.57.36-21.83-9.66-29.09z"/><path d="M668.07 1070c.16-15.37-12.31-14.57-20.57-24.4v1.33c-9.34-13.14-21.24-28.37-37.9-26.89.41 1.27.76 3.63 1.24 3.65 7 .39 8.66 7.56 12.95 11.31-28-.27-50.53-25-78.63-19.07-5.28 1.83-6.64-3.88-10.94-4.53-2.58.38-4.22 1-2.21-2.92 1.3-2.52-1-3.53-2.75-2.28-4.16 3-18.39-2.62-19.41-7.64-6.2 3.94-8-5.4-13.16-4.92-19.09-15.52-19.19-4.64-25.69 13.08-5.41-2.54-13.59-7.27-20-6.83-5.25 7.23-14.1-2.32-19.66 6.3-7.65 6.1-18.69-2.65-23.65 9.74-8.66 13.63-26.53 2.68-33.87 17.53-.72 1-2.16 2.39-3 2.23-10-1.86-12.8 10.36-21 12-1.71 8.32 1.58 4.25 6.46 4.69-12.21 21.41-50.5 19.64-62.26 45.47-2.54-11.79-2-11.46 4-22.28 6.3-7.44 1.46-27.89 14.23-26.84 1.08.21 3-1.74 3.84-3.16 4.09-9.12 13.42-10 20.15-16.11 9.2-5.44 21.57-1.54 28.94-9.91 1.78-2.65 5-4.12 9.13-3.35 6.65 1.63 14.35-10.86 19.46-2.11 6.17 8 5.24-10.66 13.79-9.45 5.73-1.61 10.66-11.26 17.7-6.61.83.63 4.16-.44 4.56-1.48 4.33-9.29 15.6 0 21.36-8.53 14.33-3.5 12.47-17 18.19-28 4.12 4.64 7.74 9.54 12.38 13.69 1.46-2.62.62-10.32 4.13-10.86 7.22 33.07 10.06 7.29 19.26 20.37 5.8 10.65 16.37 1 21.64 9.1.26.61 2.54 1.08 2.77.74 4.52-6.46 10.85-2.34 16.27-3.26 2.75-.47 6.15-1.28 7 3.53 12.64.5 11.76 5.92 25.22-.26 2 7.77 8.41 3.21 12.51 4.76 50.52 5.49 44.71 40.44 73.48 54.69 1.44-15.45-13.54-18.6-20.11-31.18-13.11-17.28-30-28.57-49.18-37.57 3.18-4.14 14 .9 19.8-1.35a9.1 9.1 0 007.41 7.12c18.59 8.51 22.63 37.45 40.62 45.83.72-22.42-7-24.32-19.29-39.75-9.12-6.71-14.72-17.21-28.78-13.33-8.47-5.42-.59-10.57-16.34-9.42-3.64 0-8.94-2.81-10 2.88-1.87 7.14-6.89-2-11.64.27-1.5-9.59-20.37-5.68-27.27-6.35-13.6-.07.42-17.65-18.34-5.15 15-25-35 17.12-41.9-33.72.4-7.42-5.44-8.81-10.3-5.93.25 5.43-6.38 5.62-7 10.4-.12.9-1.5 2.46-2 2.33-8.1-2.16-9.94 6.1-14.57 9.67-7.2 8.15-17.89 3.32-27.12 4.58-5.07-1.38-6.41-9.71-10.57-13.31 12.3-10.23 18.17-1.71 22.55-11.49 3.19-3.85 11.88.52 14.45-5.58 2.35-3.71 7.18-5.17 10.27-7.68 2.65-3.52 4.75-6.17 7.28 0 .13.32 1.9.4 2.34 0 15.49-20.55 5.45 7.16 19.56 3.51 13.77 1.6-1.14 15 34.7 12.84 15.64-2.27 18.75 21.26 35.41 20.81 29.82 0 16.52 14.56 28.76 8 16.91 1.4 43.39 12 52.5 31.79 4.89 4 9.54 8.45 14.88 11.78-2.56-25.76 1.61-19.66-25.22-35.71-14.58-19.06-32.65-37.29-53.66-48.72-16.45-3-31.12-10.45-45.24-18.34-3.45.85-24-6.88-24.77-10.06 4.78-7.23-8.95-3.45-12.5-6.14-.86-.24-1.76-1.87-1.91-3-1.19-10.48-8.56-1.57-11.87-12.52-8.98 2.97-4.98 10.65-12.47 2.16-.52 6.63-7.31 7-8.07 13.19-.07 1.62-1.62 2.81-4.26 3.49-7 .22-16.83 16.2-21.93 9.34-.77-.9-6.88-1.6-8.58 3.37-8.39 7.72-19.88 12.15-29.44 18.42-7.19 2.43.88-12 5.73-9.12 6.15 1.12 7.34-5.77 11.83-6.86-.48-1.81-.43-4.58-1.53-5.27-10.39-6 2.19-24 9.81-21.85 13 .31 23.12-10.85 34.72-14 4.78 6.65-3.72-16.1 16.11-16.23 9.36-6.44 9.23 13.57 18 6.33 10.76-6.23 5.24 10.12 17.41 6.53 1.57 0 4.29-.23 4.53.43 3.08 8.3 11.79 5.77 17.17 9.47 3.58 6.09 10.25 8.13 14.69 12.4 9 9.2 21 6.36 30.55 11.6 5.12 8.55 14.94 6.87 22.32 8.16 7 6.15 17.12 3.26 24.1 9 12.81 9.74 19 24.84 29.39 36.16 1.6-11.12-5.79-18.18-12.09-26.09-9.12-12.49-15-27.86-28.75-35.89-5.57-6.83-14.83-3.81-19.63-10.59-5.4-7.63-12.55-13.05-20-18.22-5.61-7.55-1.57-13.52-13.64-15.44-6.2-2.36-9.27-8.84-16.9-10.14-5.74-1.66-8 1.23-11.32-6.42-5.47 5.33-4.65-4.86-14.9-1.28 6.75 9.21 15.51 12.11 22.88 18.91 2.4 7-5 8.21-8.95 6-6.18-4.31-11.29-11.16-17.33-15.39-6.52 2.1-7.77-5.08-11.68-7.5-2.33-3.56-1.4-13.66-7.84-8.22-2.57 4.08-3.33 1.91-5.49-.54-5.24-11.15-10.24-.6-9.72-11.27-11.37 3.11-16.6 17.94-24.84 26.3-3.08 16.12-4.77 7.35-13.64 10.38-6.87 5.39-6.85-3.91-11.65 8.72-7.52 5.52-11.21-.35-15.78 11.4-5.51-4.61-5.05 3-7.7 4.23-4.53 3.88-12 1.34-13.67 8.67-.15.71-1.62 1.77-2.25 1.61-9.22-3.55-13.71 8.84-16.74 5.07-4.28-.34-7.89 5.11-11.75 6.94-4.53 1.5-8.49-.88-13 2.66-6.15 2-8.51 9.78-14.67 10-9.81-3.43-10.53 6.46-17.69 9.65-3.41 1.41-7.49 1.71-8 6.92-4 4.25-7.11-2.42-10.25 10-5.6 16.21-10.77 15.73-8.74 36.1 8.5-7.8 11.26-18.62 17.66-28.08 3.66 4.15 4.71-1.16 6.75-2.31 7.37-7.1 17.54-8.55 26.43-11.87 5.17 3.05 8.81-2.66 13.41-2.53 1.9-7 9.29-1.22 12.6-6 .66-1 5.43 1.27 8.3 2-2.36 4.81-3.23 10.31-9.48 10-11.64 5.76-22.93 8.5-34.82 10.18-2.35 5.62-7.3 7.2-12 9-11.39 2.48-12.89 14.36-23.58 18.91-7.82 3.81-5.36 10.22-5.63 17.8 8.26-7.8 17.42-16.84 21.16-20.74 7.31 1.73 10.5-7 16.89-7.61 18-19.59 46.12-17.77 68-31 .83 3.63-15.94 16.33-21.64 13.62-7.36-1.62-13.8 5.43-19.35 10-17 10.4 13.28 18.17-25.47 24.75-2.57 3.89-6.27 3.41-10 3.45-10.25 14.61-34.11 14.11-28.37 38 18.2-19.92 41-30.35 67.72-32.35 4.86-5.36 26-12.54 31.4-9-5.31 4.09-12.66 3.29-17.25 9.56-4 4.25-13.26.52-15.71 7.7-.32 1-3 1.25-5.06 2-5.47-3.1-5.29-3.79-9.92.79-5.74 4.61-17.39 9.67-24.48 7.71-10.82 11.29-31.17 16-26.36 36.31 10.87-7.05 23.93-22.16 28.24-18.83-51.76 57.33-10.45 43.47-38.63 105.24-1.2 4-3 13.45-2.2 17.58.06-3.15 6.8-10.27 9.31-11.82 6-10 10.09-20.75 19-28.92.8-7.79 8.84-5.88 12.92-10.48 9.82-11.12 27.4-9.81 34.14-24.74 6.09-3 13.32-3 19.44-5 4.46-6.31 11-6.1 17.32-6.37 10.58 1.48 10.26-10 18.08-8.09 6.72 8 9.66-5.2 16.33-3.15 2.15.49 5.25-2.27 6.86-2.73 7.34 5.35 10.18-6.35 17.09-3.5 7.68 4.47 8.19-6.28 14.3-6.83 2.51-.85 6.67 1.22 7.47-4.11.26-1.76 13.85-3.22 14.37-1.62 2.83 26.16-35 9.69-35.46 23.39a3.34 3.34 0 01-2.46 2.14c-11.76.56-20.14 10.77-31.27 14.17-8.8-1.06-19.65-2.65-26.82 5.34 2.36 1.77 5 6.14 8.22 3.89 3.27-4.77 37.76-5.59 42.25-2.28-13.59 9.78-32.92 6.58-46.71 14.7-3.48 4.63-8.2 5.76-13 7.15-2.49 14-20.59-.87-19.25 22.48-9.32-9.39-27.66 14.57-44.89 11.06-9.44-.82-2.3 13.48-11.47 13.84 3.82-18.8-19.85 3.75-26.33 7.4-.27.13-3.33 14.78-2.37 16.87 17.42-11.72 49.86-26.53 68.85-34.36 16.28-8.72 33.09-20.79 48.86-31.26 14.92-1.5 28.8-14.56 43.52-16.64 6.87.69 9.13-7.25 15.25-7.07 8.35-12.11 24.58-31.9 41.52-24.48 6.56-10.72 18.61 18.51 36.15 10 1.4-.54 4.41-.29 4.71.47 3.93 7.75 30.6 2.46 37.22-2.39-14.6-6-29.32-4.88-44-10.32-9-3-16.44-8.94-23-17.57 8.67.41 12.44 6.1 20.57 5 4.91 7.73 13.23 3.41 19.57 7 13.07 11.77 24-1.17 28.45 6 26.34-5.35 44.56 24.75 66.53 36 13.69 10.84 9.27 20.85 31.54 27.49q-1.39-18-2.68-36.26zm-243.21-94.78c29.49-4.66 17.4 7.85-1.7 3.92.56-1.37 1.02-3.84 1.7-3.92zm134.65-42.71c6 5 13.68 4.31 20.18 4.78 14.07 3.58 25.91 6.6 36.63 17.4-13.05 1.82-30.57-11.94-45.3-11.88-8.29 1.5-11.91-5.35-17.36-10.19 1.99-.09 4.66-1.09 5.85-.11zm-8.38-84c6.25 2 7.49 6.08 3.17 10.78-1.51-3.39-8.81-8.45-3.17-10.78zm-147.64 42.25l4.35 3.26c-5.17 8.07-9.7 5.6-4.35-3.26zm-8 71.77c1.94-8.73 16.2-2.09 21.78-6.2-1.93 6.5-17.72 11.67-21.82 6.2zM414 927.45c2.58-4 5.82-3.12 9.1-2.69-5.18 5.76-13.72 13.88-19.15 4.15 2.99-.22 7.81.44 10.05-1.46zm-41.47-31c7.87-14.4 21.21-4.45 2.7 1zm11.39 20.75c-14.06-7.61 7.27-9.54 10.15-15.33.87-1.13 3.38-.84 5.14-1.2-2.04 7.88-9.99 10.97-15.28 16.55zm-14.6 44c-2.19.8-5.63-.43-8.16-.22 5.87-7.24 37.32-20.57 45.37-14.35-9.18 12.62-24.92 8.88-37.2 14.6zm24.59 34.48c12.13 2.38 2.74 12.59-5.08 4zM367 993c-3 1.88-3.9 5.4-8 3.45-2.92.91-7.3 3.8-11.12 3.7.31-4.97 15.26-9.96 19.12-7.15zm-29.13 10.2c14.58.4-7 10-10.87 5.11 2.05-4.73 6.83-4.04 10.9-5.07zm-4.59 9.8c8.61-.21 54.21-23.83 52.37-11.13-.51 1.78-.55 5.59-4.5 4.07-10.25 1.1-20.16 7.45-30.84 8.56-7.54 1-26.67 18.14-31.76 13.32.65-4.82 9.45-14.46 14.76-14.82zm-38.64 40.46c5-4.72 8.32-12.8 15-14.71-1.08 11.7-15 20.24-15.39 33.69-2.17-4.02-2.73-14.44.42-18.94zm142.46-28c-6.13-1.32-7.22-7.66-.62-6.9 7.91-1.73 8.96 3.29.65 6.97zm190.24 33.41c-6.42-4.78-12.21-10.5-19.41-14 7.07-4.3 21.72 5.57 23.51 14.68-1.35-.12-3.05.14-4.07-.61zm3.71-14.94c-3.79-1.61-5.84-4.55-6.8-8.68 3.75.34 10.84 4.82 6.83 8.75zm23.83 39.69c-4.13-1.86-5.87-10.54-2.61-12.76 2.8 4.29 6.24 7.71 2.64 12.83z"/><path d="M638.08 849.83c-2.31-14.9-10.54-29.68-7.81-45.69-7.06-18.3-20.62-40.74-37.91-50.64-1.43 5.79 5.49 7.83 4.72 13.66-7.53-.86-11.58-9.85-16.85-14.65-5.75.7-8.08-4.22-11.63-7.41-7.74-8.79-8.46 1.14-15.23-6-19.34-15.43 5.43-19.48-32.84-17.58-8 0-.94-13.78-14.95-10.39a4.58 4.58 0 01-3.65-1.64c-3.89-7.42-12.44 3.53-13.32-3.69-2.56-9.74-11.56 2.53-10.39-15.13-.12-5.17 1-6.4 5.59-5.8 19.18 0 2.47 12.93 19.36 7.08 3 6.4 6.21 2.32 10.14 1 19-5.88 10.81 10.87 47.36 4.45 23.41 9.85-7.33-18.31-11.62-23.71-19.09-2.28-4.09 9.92 1.77 16.25-24.53 8-12.2-20.88-28.57-21.71-18.63-5.75-35.9-9.29-48.35-24.49-.28-.49-1.91-.83-2.06-.6-3 4.53-4.72-1.28-7.07-.95-6.61 1.57-1.28-12.18-8-6.77-9.57 3.51-10.22-7.41-24.86 6.84-4.48 6.19-11.69 3.16-16.38 8.34-4.1 5.13-6.77 11.92-14.27 12.74-6.22 12.07-21.78-.73-26.61 13.11-1.66 4-2.63 9.57-8.58 10.31-2 1.09-3.12 7.69 1 8 10.22-1 5.62-12.67 21.95-13.66 4.28-7 12.84-5.46 18.27-9.89 12.26 6.37 10-12.15 22.17 3.73 9.63 7.28 9-11.61 18.71-11.55 5.29-1.11 5-7.14 5.95-11.46 5.36-15.71 10.53 8.46 4 17.42-6.34 14.08 17.79 19.08 8.11 33.41-3.19 3.61-9.54-1.07-11.54 4.91-7.36 3.41-17.68 15.48-25.42 13.88-8.43-2.33-4.66 12.41-13.9 10.65-5-.64-12.38 5.95-17.12 2.1-5.8-9.87-10 15.47-22.41 9-2.86 3.48-9.64-.48-10.84 6.54-24.6 8.27-31.8 18.88-46.23 41.32-9.31 13.91-2.63 35.65-11.53 50.79-6.47 13.16-23.33 23-19.65 42 11.17-11.7 22.38-25.76 25.53-37 10.33-4.1 6.46-27 19-21.09 3.18 9 17.68-7.2 16.74-12 0-1.39 1.06-3.08 2.08-4.2 3.83-2.75 3.41-18.32-1.53-16.13-3.73 3.58-7.55 5.9-13 5.57-3.29.2-6.5 5.43-10.42 5.8-1.49-10.39 15.39-9 16.38-16.69-.12-4.64 1.95-4.4 4.92-3.61 5.41.76 9.88 4.16 14.3-1.47 7.23-7.36 15.63-13.18 23.12-20.32 2.44 10.1 19.87 1 27.37 2.23 6.77-9.37 11.49 1.36 18.29 1.81-9 10.73-13.94-1.71-22.53 9.34-5.67 11.07-12.24 5.34-14.65 14.3-1.27 4.85-2 6.62-7.45 6.21-.83 9.38-15.18 7-14.27 18.31.08 1-4.81 4.09-6.58 3.5-10-4.73-12.4 30.79-19.18 23.53-3.67-4.42-7.08-3.66-10 1.63-9.19 12.08-20.92 23.4-27.11 37.57-3.24 18-23.86 32.17-20 52.62 4.37-14.58 16.32-26.89 24.84-38.68 8.75-8.84 8.77-28.58 24.43-21.83 11.16 4.71 2.9-15.9 26-14.45 2.21-.11 3.33.33 4-2.69.47-2 2.92-5 4.61-5.1 9.95-1 18.14-7.6 27.45-10.68 13.88-6 23.43-24 39.31-22.91 2.77.77 6.61-4.48 10.26-5.15 5.35-1 9.55-3.51 10.92-8.54 2-7.44 8.76-10.54 11.89-16.81 4.36-6.49 5.54 11.64 12.05 1.9.5-.71 1.8-.8 2.72-1.18-1.08 6.75 7.27 4.26 7.92 9.26a2.91 2.91 0 001.42 2.12c6.5 1.69 9.12 7.85 12.82 12.62 1.59 2.06 2 2 4.2.86 7.38-3.85 15.8-1.83 23.59-.8 7.17 9.81 14.62 5.63 20.94 15.11 11.8 10.6 27.37 18.84 37.91 31.67 1.77 2.57 4.62 3 7.44 2.93-2.25-22.7-36.84-29.6-37.07-51.15 4.51-3.9-.6-5.26-1.8-5.32a490.5 490.5 0 01-64.19-35.1c-2.94-3.44-4-9.45-10.16-8.9-.42 0-1.48-1.48-1.37-2.1.94-5.3-4.47-6.55-5.8-10.42-1.71-.9-5.09-2-6.62-4.08 7-12 26.84 4.52 36.17 7.74 15 14.13 24.92-10 50.57 22.51 10.57 1.69 13.85 21.09 22.69 28.79 9.43 1.76 14.55 12.67 17.43 21.57-.44 18.06 22.24 9.2 25 25.57 4.29 8.76 5.26-.64 4.1-5.57zm-192-197.55c-1.85 3.59-6 5.57-9 8.09-4.54-6.06 7.5-17.23 9.04-8.09zM397.5 753.59c-1.74 1.41-5.58-1.87-5.93 2.94l-4.92-3.22c3.81-4.19 17.52-7.77 10.85.28zm39.67 35.32c-8-2.56-8.17 9.85-13.6 11.78-6 7.45-15.28 4.27-17.3 14.89-1.32 4.72-13.85 20.33-11.81 6.66 2.58-7.66 41.69-56 48.87-37.18-1.59 1.49-1.09 6.39-6.16 3.85zm24.7-30.75c-6.87 1.76-3.87 7.84-8.73 12.54 7.29 2.7 8.16 9.38 2.07 12.24-.49-5.51-5.27-1.36-7.34-3.57-.51-.55-2-.11-3-.12 1-5.77 6.85-8.46 6.56-14.82-9.08-2.08-15 9.42-17.87.64 1.19-.87 2.7-2.74 3.5-2.45 7.37 3.13 7.83-6.93 13.86-6.91 7.46 6.64 5.64-8.18 11.6-9.77 7.89-2.94 4.38 10.27-.65 12.22zM623 817.4c-5.34-6.78-11.44-13.53-15.55-21.47-11.78-9.54-28.23-17.72-36.91-29.4 10.82-10.94 38.33 37.94 33.32 5.2 12.41 9.93 19.84 29.94 19.14 45.67z"/><path d="M653 908.42c-1.87-9.52-2.14-19.25-7.42-27.52 0 .09 0 .17-.07.26-1.92-2.47-2.45-8.89-6.88-3.45-3.51-8.64-4.76-20.55-15.23-24.27-.07 1.49-.77 3.77-.12 4.36 8.07 7.25 9.07 17.18 10.64 27.42 3.79 16 10.72 31.21 20.81 43.16-.64-6.65-.8-13.38-1.73-19.96zM349.39 1049.39c-15 20.68-16.26 1.8-22.43 15.8-5 13.31-19.35 2.07-18.28 17.44l.21-.22c-5-3.87.24-9.56 1.5-14.3 7.12-2.64 15.63-2.87 19.67-11.72 2.5-3.78 10.44-4.17 13.49-7.55 2.89-4.22 4.14-1.24 5.82.82zM306.34 581c11.38-5 37.26 1.72 43.1-11.76-.64-7.39-8.18-10.43-12.63-1.38-2.68 4.7-11.7 7.41-15 4 .54-2.56 7.37-4.51 1-4.59-2.21-3.37 8.87-6.69 1.47-9.64-28 11.13-59.46 28.76-76.38 57.63 15.8-5.43 30.39-33.85 48.1-25.26 2.19 7.61 19.27 3.5 13.54 10.54-22 23.18-54.9 39.51-68.42 69.73 0 8.5-8.76 6.49-14.21 9.19.91-5.51 1.12-11.2 3.59-16.25-3.89.87-7.18-.59-10.55-2.5 6-8.47 6-9.11-1.36-15.67 2.32-14-10.91 2.12-15.75-5.67-14.41 2.65-38.1 103.83-34.34 119.79 2.76-8.49 22-9.63 23.69-8 6.7 7.92 10 2.67 14.82 6.24 2.22 6.87 11 5.86 13.31 12.71.44 1.32 2.74 1.93 4.18 2.86-10.25 2.29-25.36-16.83-24.14 8.93 5.39 3 8.27-5.65 13.43-.06 14.29 14.62 32.38 22.85 51 29.87-5.49-20.44-23.84-39-41.27-50.35-3.48-2.29-5.75-4.48-6.41-8.85-1.42-6.43-10.85-7.35-15.58-6.91-3.88 1-6.58-7.07-10.18-.79-2.29-3.24-7.09-9.33-3.94-13.21 2.82 5.88 5.49 6.61 10.92 5.86.76-.54 3.12-7.86 4.63-8.37 4.46 3.16 20 2 20.48-4.9.5-13.43 25.91 10.81 32.14 12.3 3.25-8.39-5.7-12.15-7.94-18.84-.55-1.67-5.47-1.66-8.38-2.46-15.23-12.7-17.72-4.43-29.74-29.55 24.79 4.81 14.32 17.13 22.65 10 1.12-.94 2.81-5.73 3.33.34 22.7 14.72 13.37 19.74 26.55-8.81 6-18.76 9.59-25.27 25.91-34.8 19.66-23.8 29.23-55.67 56.3-71.66-11.16-4.32-23.29 16.1-31.57 12.33 2.92-3.07 6.37-5.47 5.26-10.41-4.6-.23-10.65 6.8-13.7 1-.16-.47 1.16-2.26 2.09-2.63zM180.18 696.22c4.85 2.89 5.29 14.18 11.77 17.85 6.25 20.82-13.54-10.38-11.77-17.85zm2-9.93c7.25-12.85 12.57 11.34 14.36-20.94-3.76-6.59 10.48-13.94 5.21-.54-4.36 10.61 3.53 7.62 6.85 15.44-11.85 1.29-14.51 12.56-26.45 6.04zm34.63 24.32c-7.33 7.29-12.43-2.11-17.85-6.07-8.77-6.27 4.13-17.85 6.68-6.27 3.36 4.2 7.64 6.32 11.14 12.34zm44.44-34.4c-8.18 5.41-7.4 13.91-11.43 22.13-3.42-5.46-4.33-10.48-5.88-17.24 1.58-5.73 19.74-29.61 23.68-19.52-5.69 3.21-3.06 10.42-6.4 14.63zm10.2-26.72c3.85-10.39 8.84-13.45 16.87-9.92zm27.32-70.87c2-6.39 12.84-12.63 18.59-11.66-3.09 4.63-9.06 3.36-10.81 9.45-2.26 1.33-5.3 1.37-7.81 2.21zM720.27 721.83c-4-6-6.16 2.32-10.1 1.66-4.75 0-14.08 1.72-15 8.25-.35 4.41-2.46 6.79-5.77 9.37-23.53 19.33-28.59 30.72-30.21 50.14 15.39-7.79 30-16.93 41.36-30.57 4.75-6 8.21 2.32 13.38-1.1-.61-25.74-14.14-5.49-24.68-6.8 1.37-1.06 3.62-1.87 4-3.22 1.81-7 10.65-6.79 12.39-13.83.21-.84 2.19-1.85 3.21-1.71 5.05.72 8-2.27 11.13-5.8 9.79-4.85 1.61-8.61.29-6.39zM482.12 1068.53c-7.42.22-10.78 10.06-22.53 5.1 1.43-5 6.05-7.11 10-9.45 14-12.92 5.64-20.77 28.06-9.9 7.3 3.83 6.36 15 16.26 13.71 8.24-.31 6.79 8.19.1 8.51-31-6.91.13 7.94 11.15 16.34 4.93 12.24 17.83-1.85 24.29 8.25 5.93 2.88 13.74 5.3 19.4 10.1-15.21 3.74-30.44-.8-45.4-.75-23.49 3.94-47.13-38.24-57.87-1.11 29.07-3.2 23.6-3.5 41.62 21.27 1.05-2.67 2.21-4.15 1.92-5.13-4-15 20.46-10.16 24.27-2.46 3.31 5.65 8.71 4.31 12.54 7 4.61 4.17 9.94 2.36 14.8 4.57-4 10.46-15.89 4.13-22.58 9.85 5.22 5.62 12.4-.19 18.35 4.07-1.83 11.39-14.43 10.94-22.49 10.79-13.55 3.26-23.4-10.87-35.78-12.89 2.94 11 3 20.41-11 13.45-13.32-4.26-11.8-16.41-8.91-27.66-8.6 1.06-3.24 22.32-11.74 19-2.67 1.3-7.57 8.8-11.92 10.11-6.75 3.76.11 9.06-12 7.71-12.16 2.51-5.91-4.34-22.06-8.65 2.82-7.32 12.33-7.36 17.39-13-5.3-6.64-23.94 4.92-22.29-7.34 4.53-6 13.08 1.93 17.8-5.45a2.63 2.63 0 012.36-.29c4.37 1.61 4.34 1.66 5.49-2.89 1.35-3.1 1.53-4.82-2-5.86-2 4.25-3.11 2-2.9-.75.3-4-4-7.86-.32-11.91-9.84-7.75-28.28 10.2-36.22 18.21-2.77-15.6 11.64-20.19 21.24-26.45 3.51 5.11 4 .13 5.86-1.67 18.59-9.96 42.56-17.59 55.11-34.43zm30.43 62.25c1.06 5.41 12.12 15.29 18.26 10.67a96.19 96.19 0 00-18.26-10.67zm-57.18 8.69c-3.33 2.45-16.89 5.86-11.73 10.48 3.07-8.64 7.72 10.17 11.73-10.48z"/><path d="M502 590.42c3.51 17.49-18.44 1.8-13.79 16.61-5.23 10.64-15.13-4.33-27.8 5.43-7.3 5.44-11.7-6.21-16.94 5.61-2.11 3.64-3.8 6.1-8.08 4.07-13.5 5.21-28.41 9.32-41.14 16.76-9.32 2.62 1.65 16.45-8.57 15.59-16.57-2.4-6.68 8.45-14.86 6.81-5.15-1.81-5.46 4.37-8.48 6.27-9.44 14.12-22.72 24.18-33.17 38.41-16.12 1.72-23 16.54-34.84 25.69-11.07 4.1-10.86 14-12.11 24-21 27.7-1.36 30.64-4.34 47-5.65-4.24-7-12-15.89-12-16-14-19.4-27.42-40.49-38.54 12.68-7.45 22.38 8.6 30 17.55.62 1.4 6.25.42 9.53.1.4 0 .89-2.77.8-4.21-.21-3.63-.86-6.55 2.53-9.92 7.85-12.18 6-40.51 21.52-46.28 9 1.29.71-12.4 10.57-11.91 10.22-2.83 7.08-20.42 19.2-21.17 8.56-3.29 3.86-14.24 17.14-13.73-1.53 13.87-19.36 17-22.86 31.32 5.65-3 9.54-4.42 13.72-6.91 6.24-14.51 26-3.48 30.39-30.45-4.23 2.29-15.78 4.61-9.89-2.37 13.54-3 10.64-17.1 19.48-24.16 2.94-1.57 6.12-2 6.5-6.56 10.95-3.6 16.9-16.39 30.06-16.92 9-.36 18.82-2.83 26.39-7.68 24.88-5.39 50.87.14 75.59-8.22zM278.27 739.2c7.61-3.85 8.74-11.85 15.1-17.12 9.6-14 11.17-3.93 13.79-27.54-4.44-.2-7.47 4.43-9.43 7.91-2.93 7.09-11.32 10.33-11.65 19.24-1.41 6.31-10.78 10.14-7.81 17.51zm83.94-95.59l1.93-.15c-3.87 9.2 6.59 4.37 8.84 1.78 3.2-5.46 8.17-1.85 12.28-2.72 9.19-13.56-6.57-4.24-11.09-9.7-4.97.96-8.79 6.79-11.96 10.79zm45-25.22c-8.3-3.47-17-1.42-20.28 4.49 7.3-.88 15.85 4.24 20.26-4.49zM268.54 1162.72c0 1.59 0 3.18-.05 4.77 1.93-1.29 3.23-4.05.05-4.77z"/><path d="M266.54 1162.37c-5.46-.52-14.91 1-17.67-1.44 4-4 11.16-2.6 17.6-2.75 2.61-10.75-12.26-6.93-17.5-11.33-6.34-4.89-16.45-5.7-23.43-9.63 5.53-5.62 14.41-.37 20.44 0 8.32-2.93 15.06-.65 22.2 1 5-19.73-58-12-73.22-25.75 12-1.14 24.7 3.47 31.86-4.44-7.35-3.3-22 1.51-23.59-6-3.09-5.23-17.84-3.55-22.21-8.45-3.25 8.54 0 69.19-1.07 71.16-6 11.45 24.34 17.12 19.93 2.21-3.88-9.95 70.32 20.34 66.66-4.58zm-56.2-15.11c-8.17 7.75-18.1-20.94-39.26-2.93 1.68-6.2.79-17.32 14.51-13.5 10.93 4.3 25.37 2.23 36.47 5.83-4.06 4.39-15.77 4.81-11.72 10.6zm14.57 9.64c-2.95-2.44-9.4-3-11.89-5.91 8.42-2.59 9.06 4.57 19.11-1.52-3.68 4.2-.25 6 5.56 7.55-5.69 1.79-9.19 2.87-12.78-.12zM296.64 836.7c.94-23.29-.85-.83-7.3 2.93 1.85-9-2.85-18.06 1.83-27-6.81-5.81 1.81-14.21-3.28-21-2.36-3.15-.44-8.64 4.7-10.5 16.21-6 7-6.19 13.78-18.94 9 6.32 9.44-12.23 17.29-14.47 20-1.32 6.71-17.24 17-23.33 2.39-.19 3.76-.47 3.93 2.6 13.93 6.62 7.07-5.48 15.31-5.73 5.19-3.81 4.87-11.59 12.79-13.1 8.43-3.54 9.3-16 19.84-13.15 5.62.49 3.6 9.69 7.39-.12 5.76-10.92 21.42-2.74 28.83-10.3 24.44-14.57 22.77 4.61 4.22 11.49-4.25.43-8.18 4.41-12.29 6.72-2.62 1.48-5.37 4.17-7.48-.82-3.4-2.69-20.35 11.67-19.06 18.37-5.48 7.44-11.56-2.45-17.44 9.75-12.35 1.93-16 22.17-29.38 18.33-13.4 10.1-19.83 15.06-27.4 32.21-7.58 4.84-9.18 12.39-9.21 20.9-4.75 5.7-2.41 11.79-6.09 17.66-3.23 4.7-2.26 17.06-7.98 17.5zM676.25 682.88c.61-18.35 11.39-19.82 16.24-34.44 1.7-6.19 3.69-6.18-2.21-8.94-8.37-3.09-3.46-12.3-1.54-18.46 2.27-6 6.25-.5 9.08 1.77-3.64-19.68-58-52.11-77.23-52.36-2.18-16.62 56.5 19.67 66.55 20.8 8.9 3.92 32 78.83 27.53 94.52-5.79 15.85-21 26.53-31.63 39-3.85 3.71-11.45 2.64-12.25 9.69-14.71 16.54-6.36 13.23-10.71 26.54-7.81-10.24 11.37-34.86-10.57-67.63-1.67-4.78-14.18-23-5.46-23.79 17.08-2.12 6.78 10.17 12.18 19.2 14.92 19.7 13.95-2.26 12.89 32.83 5.76 6.45 10.38-13 16-14.77 9.76-10.49 15.53-24.65 13.06-39.33-12.52 7.76 6.82 10.12-21.93 15.37zm2.16-89c4.6 2.9 8.1 9.52 14 8.17-.59-6.19-8.11-9.05-14-8.17z"/><path d="M574.86 568.5c-1.84-7.7-15.11-8-12.71-15 4.6-1.56-1.19-11.31 1.68-20 21.07 10 7.22 5.74 17.31 16 7.74 4.53 14.52 9.5 18.6 18.2 7.15.35 9.67 7 14.2 11.07 11.3 3.83 20.75 10.7 29.44 18.71 7.59 3.43 14.45 7.63 18.27 15.7 2.15 3.13 2.45 7.77 7.24 8.81 6.49 5.37 4.56 17.78 12.37 23.31.75.67.85 2.61.68 3.88-1 2.63-.72 15.45-4.69 11.13-18.08-16.89-33.11-36.89-53.6-50.05-9.35-7.16-16.23-22.66-27.36-25.16 5.06 8.93 15.43 15.84 16.48 26-12.55-7.56-18.56-25.23-33.65-30.25-9.29-2.86-18.63-5.67-26.15-12.43-.29-14.42 13.7-2.56 21.89.08zm78 54c7-10.88-21.74-23.86-28.87-26.82 6.08 11.6 18.8 18.21 28.87 26.86zM449.88 1184.92c-.77-18.88 11.14-18.3 23.16-27.71 9.41-3.25.35 13.88 8.4 16 5.12.77 4.58-12.07 10.06-4.48 21.4 17.16 10.05 3.86 14.2-11.47 6.87 4.69 25.52 5.83 20.42 17.94-4 3.2-4.22 10.83-11.06 10.63-4.76 9.83-6.51 5.27-13.71 6.52-2.89 1.75-4.86 2.86-8.35 1.62-8.92-.94-8.86 8.47-22.5 1.2-4.92 3.2-6-2.26-7.95-4.38-.66-10.51-4.26-6.49-12.67-5.87zM603.76 656.47c17.33 21.71 51.57 37.9 50.39 69.85-9.07-10.94-9.66-30.39-24.67-36-12.47-4.66-19.11-16.33-29.25-24-4.81-3.89-11.39-5.68-13.05-13.32-8.16-4.91-7-9.58 2.32-3.71 2.33 3.17 4.65 3.92 8.37 3-3.25-9.6-14.35-17.49-24.1-16.31 13.4 12.73-1.91 9.65-5.32.56.64-6.17-5.17-3.19-6-5.59-5.46-7.23-14.87-9-21.76-14.85-3-2-8.77-.73-9.08-5.73 4.28-4.62 13.95 2.26 19.07 3.33 10.73-.81 11.3 6.45 17.61 12 6.55 3.8 23.7 1.86 24.68 10.6 11.94 14.4 34.19 16.85 39.61 41.31-8.21-8.89-18.57-15.07-27.94-22.49zM532 630.45c-2.15-9.84-15.62-6.13-18.71-15.07-1.87-3.86-27.11-1-21-7.47 2.45-9.07 2.52-1.79 9.31-1.84 23.8-.07 14.29 2.81 30.81 14.14 6.51 5 12.93 10.35 19.28 15.64-.16 1.25-2.74 6.15-1.76 7.7 4.55 3.91 7.4-3.38 10.66 4.78 2.35 6.06 13.7 10 13.73 15.68-16.64-.93-36-13-50.2-22.78-6-13.71-15-.35-23.66-5.83 16.12-23.93 11.24-4.32 31.68-5.16-.29 5.18 5.55 13.39 9.57 6.67-3.1-2.36-4.02-8.44-9.71-6.46zM186.05 1198.4c5.64-11.11 6.15-.55 16.63-.86 3.91-4-4.53-16.52 8.16-14 7.44 1.33 12.5 5.55 21.29 5.08-.34 1.91.2 5.08-1.19 5.5-7 2.15-7.05 8.34-15.66 9.41-.83.1-2 1.82-2 2.72-1 7-12.78-.09-20.63 9.29-13.56 10.99-11.3-19.54-6.6-17.14zM645.59 655c-8 22.18-8.81 9-22.17-4-3.42-11-19-8.3-19-20.62-.51-6.77-11.47-10.18-13.39-15.89 3-2.65 10.68 1.94 12.6 4.1C618.32 631 632 641.34 645.59 655zM372.14 584.09c-16 6.58-31.08 16.92-44.75 27.83C322 615.44 316.47 639 310 632.68c1.72-13.37 54-78.68 62.14-48.59zM502.15 590.53c11.86-2.47 23.63-5.52 33.72-12.9 6.33-4.62 12-1.54 18 0 4.85 1.55 28.11 13.92 23.95 19.59-61.49-36.19-30.43 4.66-75.78-6.76z"/><path d="M491.05 631.91c-5.56-3-18.58-2.34-18.83-8.21 5.23-4.17 36.35-.92 18.83 8.21zM230.58 606c-.68 9-18.48 8.91-10.54 18.62.89 1 3.27 2.66 0 4.16-20.39 12.75-3.74-19.53 10.57-22.7zM674.07 707.61c-10.41-7.12 23.64-34.46 14.22-13.36-5.47 3.95-11.56 6.2-14.22 13.36zM180.9 763.56c6.46-4.49 19 4.45 13.6 12.67-6.33-1.48-11.09-6.16-13.6-12.67zM732.63 926.18c-3.35 5.6-14 6.25-20.17 10.44-6 6.15-19.12 7.14-27.75 12-17.41 7.22-32.81 1.47-27.19 27 19.34.33 21.37-9.09 36.93-11.11.3 0 1.6-1.19 1.4-1.69-1.35-3.45 3.09-2.94 6.27-3.57 17.14-1 14.82-8.58 24.6-7.33 15 2.19 7.16-3.87 15.66-5.92 9.23 2.42-7.16-22.42-9.75-19.82zM750.08 964.18c1 9.13-21.3 2.4-20.78 11-8.89 6.34-23.14 6.11-34.45 9.88-11.16 5.16-23.4 6.92-35.91 7.24 0 34.59 2.52 36.45 33.5 19.78 11.2-5.79 5.95-8.88 14.36-9.27 15.68-.62 38.13-.08 46.73-9 2.09-1.98-3.35-30.81-3.45-29.63zM767.51 1036.15c-11-6.35-16.4 3.21-27.58 4.44-26.48 3.28-50.49 0-75.58 13.06.37-1.23-1-16-1.4-16.68 22.48.08 37.07-17.44 56.14-15.43 5.91 2.46 3.2-2.36 8-2.37 13.64.1 37.38 2 41.22-16.31 3.4-21.99 4.69 31.14-.8 33.29zM672.41 1119.28c4.11-17 11-8.48 45.84-20.38 11-4 7.64-6.61 21.71-6.64-1.1-2.62-7.61-2.28-10.73-1.86-4.21 1.11-4.44 0-4.78-1.84-1.44-5.34 19.35-.21 41-14.18-.44 8.57 22.09-25.74 17.18-33.67-5.94-8.37-58.57 17.71-64.27 13.14-5.7-3.28-2.66 2.12-8 2.85-9.08 1.67-16.37 5.83-26.61 3-6.48-.66-12.14 5.84-18.49 2.7.44 7.12 4.17 13.83 4.69 20.94 15.95-1.57 24.81-8.42 39.48-10.62 12.74-.45 22.35-8 36.13-5.08-13.5 11.43-52.38 16-75.56 16.39.87 11.77 1.75 23.5 2.41 35.25zm.9-23.13c-.57-7.34 31.66-2.35 39.59-9.21 3.8-1.77 7.25.26 9.54 2.14-10 4.5-20 3.91-30.8 4.64-5.41 1.68-16.71 10.35-18.33 2.43zM678.25 941.73c-7.71 1.72-15.81 2.94-23.43 5-.1-3 .69-6.26-.11-9.09 2.87-.72 9.46-1.61 9-2.11 1.63-5.76 10.49-3.88 15.8-5.43 12.61-2 21.26-8 36.75-7.66-20.83 14.9-24.44 10.01-38.01 19.29zM732.54 779.47c-7.57 13.35-19.25 9.91-34.32 19.55-20.49-.25-.81 14.2-24.69 20-2.22.62-10.93 1-10.06-1.73 27.58-14.64 1.14-24.5-21.6 3.84 1.12 7.73 3.65 7.71 10.94 4.65 6.1.06 12.18.7 18.29.84 20.36 3.61 25.54-15.36 44.24-3.72 3.5-3.87 16.59-11.74 18.65-11.7 12.59 14.54-17.08 19.91-26.27 26.46-4.22 6.67-15.93 7.73-26.27 9.89-7.33-1.6-11.47-3.69-10.83 2.49-17.19 28.19-27.7-5.93-21.16 36.64 22.08-12 28.6-12.67 54.14-14.54 12.73-5.2 24.17-14.62 40.43-15.47-2.91 8.33-10.09 16.48-19.41 23-2.6 2.13-1.54 7-10.08 4.65C696 896.5 672.85 902 651.39 907.79c.4 6.74.74 13.49 1.55 20.2 4.06-6.46 15.29-6.7 22.87-9.85 2-3.82 33.8-8.6 38.61-5 6.44 1.89 9.07-10.87 16.91-12.53 3.91-1.49 5.82-4.83 8.25-7 2.88.33 7.65 1.36 8.16.86 7.19-9.11-11.87-117.91-15.2-115zM755.18 1089c-1.08 7.64-16 4.17-23.11 8.12 7.66 7.22 20 1.49 32.06 1.55-13.86 14.61-87.11 16.39-78.36 34.08 10-1.81 17.9-7.79 29.15-4.91 6-.88 14.49-6.89 20.38-1.8-15.87 8.62-32.58 15.61-49.55 22.09 7.27 6.38 21-2.15 27.88 3.58-3.84 4-23.09.57-21.23 6.28 4.84 6.7 20.78 5.27 27.45 3.48 12 2.55 45.56-17.32 43-8.21-3.39 15.23 29.7-23 31-38.14.76-6.75-35.94-31.61-38.67-26.12zm-17.93 56.55c-3.38 3.3-7 2.54-12.73 1.27 5.68-2 9-4.16 5-8 10.43 5.16 10.59-2 19.16-.2-2.26 3.05-8.68 4.23-11.43 6.92zm15-8.55c-.41-.78-1.48-1.69-1.15-2.34 3.66-6.12-8.08-5.49-12.39-9.49 10.83-4.58 25.37-3.82 36-9.07 13.43-5 13.28 6.11 15.38 12.12-21.53-12.39-24.09 3.24-37.82 8.78zM776.91 1175.57c-6.37-10.55-6.17 0-16.64.64-4.17-3.62 3.41-16.84-9.07-13.21-7.33 2-12.09 6.65-20.89 7 .47 1.86.14 5.07 1.55 5.36 7.17 1.51 7.6 7.66 16.25 8 .84 0 2.13 1.64 2.17 2.53 1.46 6.91 12.73-1.24 21.18 7.39 14.39 9.6 9.97-20.56 5.45-17.71zM551.84 670.16c11.47-1 16.51 9.51 24.88 15.54-8.92 3.68-17.14-10.42-24.88-15.54zM594.42 701.37c-5.32-2.86-15-11.71-3.67-12.27 6.32 2.52 13.41 7.9 3.67 12.27zM211.25 734.15c9.94-1.89 17.76 14.81 10.12 11.42-3.18-3.24-19.45-8.05-10.12-11.42zM518.3 594.71c5.62 2.91 13.43 1.59 13.25 9.58a35.34 35.34 0 01-17.23-7zM318.76 644.3c-4.44 3.75-6.18 8.94-11.05 9.48-1.23-6.44 3.68-10.66 11.05-9.48zM230.64 630.05c.22 20.7-12.76 13.84-1.3-1.08zM246.6 620.13c-10.74 4.91-12.72 4.12-2.64-3a37.56 37.56 0 012.64 3zM592 912.9c-4.46 6.91-5.35-4.26-7.68-7.31 4.74-3.3 11.29 2.15 7.51 7.51zM583 903.08c-1.34 6-10.93-3.35-12.25-6.15 2.13-4.29 11.8 2.67 12.25 6.15z"/></g></svg>