<svg xmlns="http://www.w3.org/2000/svg" width="1250" height="1550" viewBox="0 0 1250 1550"><title>s03e09-01</title><path d="M403.47,1248.13s-4.39,99.24,5.35,98.68,110.42-16.78,149-15.66,131.44,8.95,148.22,3.92,111.86,6.71,108.5-.56-8.76-90.41-8.76-90.41Z" fill="#828282" stroke="#262521" stroke-linecap="round" stroke-linejoin="round" stroke-width="3"/><path d="M801.34,601.25C790.45,594.15,651.81,528,651.81,528s-9,42.67-63.91,47.58c-64.83,5.79-86.64-36-90.76-48.14l-87.91,73.8" fill="#828282" stroke="#262521" stroke-linecap="round" stroke-linejoin="round" stroke-width="3"/><path d="M489.37,531.26l0,0S489.38,531.23,489.37,531.26Z" fill="#bfbfbf"/><path d="M877.23,1043c-3.83-55.87-22.88-124.63-22.88-124.63s-14.59-306.95-52.89-331.94c-10.88-7.1-142.29-56.21-142.29-56.21s-2.49,55-82.84,55c-65.08,0-82.1-39.23-86.21-51.38a10.79,10.79,0,0,1-.75-2.59c-1,.65-100.94,62.69-145.44,89.5C299.2,647.71,317.25,945,317.25,945a619.73,619.73,0,0,0-3.6,128.12c5.53,68.42-1.88,179.2,14.45,197.94l61-1.5s-5.6-14.35-4.65-27c2.27-30.22,5.53-104.27,15.36-135.22,4.76-15,10-36.21,14-54.09-4.18,35.82-24.9,137.23-13.6,162.18,0,13-1.32,43-1.32,43s73.26,22.14,150.26,21.22C686.66,1278,812.51,1253,812.51,1253s-6.69-30-7.46-43.63c9.13-15.76-1.66-67.06-11.13-132.49,15.66,47,33,109.83,34.87,140.44,1.64,26.39,2.89,34.36,2.89,34.36h58.1s4.48-6.67,5.3-18.89S882.81,1124.28,877.23,1043Z" fill="#bfbfbf"/><path d="M408.94,954.82c-.61.41-1.44-19.59-4.49-22.14-1.57-1.31-18.89,21.44-21.79,24-.9.81-3.47-13.45-4.81-15-4.06,5.69-10.59,18.37-15.07,23.8a1.34,1.34,0,0,1-2.23-.23C357.88,959,356.44,947.83,351,944c-4.21,4.93-7.51,16.24-10.64,22a1.36,1.36,0,0,1-2.21.39c-4.85-4.25-9.06-10.78-15.57-11.43-.61,9,4.87,17.13,4.46,26.2,0,1-.78,1.8-1.74,1.57-3-.7-6.12-1.19-9.18-1.79a19.83,19.83,0,0,1,1.54,9.53c-.4,4.73-3.76,14.95-4.39,15-2.76.19,5.38,232,6.09,232.94,35.4-8.53,65.37,0,65.37,0,.41-.78,5.63-80.3,9.65-106.42,12.27-49.64,17.54-70.15,19.44-81.35C415.57,1046.1,413.78,951.6,408.94,954.82Z" fill="#f9f9f9"/><path d="M319.41,1157.32a119.8,119.8,0,0,0,2.87-18.7c1.1-13.06.8-26.13.49-39.22a139,139,0,0,1,.52-18.93,77.45,77.45,0,0,1,4.55-18.55c1.62-4.34,3.41-8.33,4.57-12.85,1.24-4.85,2.31-9.76,3.5-14.62a107.28,107.28,0,0,1,4-13.63c1.45-3.7,3.29-6.7,7.07-7.65,4.52-1.13,8.87,1.11,13.21,2.16A9.52,9.52,0,0,0,367,1015a10.92,10.92,0,0,0,4.85-5.91c1.7-4.59.91-9.75,1.08-14.57.18-5,1.5-9.58,5.19-12.74a28.79,28.79,0,0,1,12-5.62c3.39-.82,6.29-1.74,8.82-4.53a51.54,51.54,0,0,0,5.11-7.3c1.74-2.79,4.83-11,4.46-11.75-1.72-3.64-2.46-23.4-4-22.18-2.2,1.72-21.78,26.36-21.78,26.36s-4.44-13.09-5.78-14.65c-7.38,5.43-14.89,24-14.89,24l-10.57-21.23s-12.12,23-12.86,22.37c-4.84-4.25-15.95-16.7-15.95-16.7s5.19,20,4.78,29.12c-.05,1-10.1-2.21-13.16-2.8-3.48,5.06,2.77,9.13,2.49,12.52-.24,2.86-.07,12.83-3,16.93C311.74,1009,317.91,1163.34,319.41,1157.32Z" fill="#e5e5e5"/><path d="M805.94,1148.86c-3.62-19.63-9.32-39.06-9.45-59.16a43.07,43.07,0,0,1-1.92-3.92c-3.52-8.3-5-17.39-6-26.3-1.1-9.88-1.46-19.81-1.88-29.74-.19-4.4-.38-8.81-.71-13.21-.41-5.47-1.19-10.9-1.78-16.34-1.48-13.6-2.53-27.24-3.46-40.89-1.84-27.27-3.18-54.61-6.45-81.76-1.62-13.4-4.13-26.68-5.63-40.11a197.62,197.62,0,0,1-1.3-19.76c-.08-6.79.51-13.5,1.1-20.26,1.93-22,3.76-44.09,4.34-66.2-3.11-10.71-5.1-21.64-3.86-33,1.82-17.28-1.71-34.06-5.11-50.9-2.65-14.72-4.7-30.05-11.84-43.4-7.27-14.13-24-16.61-38.16-19.45-16.63-3.55-46-36.34-51.17-20.14-44.53,59.83-131.09,39-156,17.26-2.89-2.25-4.8,18.72-8.08,24.83-3.81,5.82-6.52,12.28-10.09,18.24-6.5,9.13-13.19,18.09-19.39,27.42-10.73,13.25-30.21,13.82-41.44,26.78-7.95,7.83,9.45,12.45,5.5,22.82-10.56,27.66,14.33,121.55-22.55,105.89-.37,8.31,7.53,130.41,3.83,238.13-2.65,77.42-18.41,144.68-14.28,169.72,36.66,11,97.65,15.54,162.72,15.71,91.47.22,191-8.16,242.33-19.17,1.47-17.17,2.06-35.71,2-55.19C806.88,1154.15,806.43,1151.5,805.94,1148.86Z" fill="#e5e5e5"/><path d="M451.33,1065.7c-3-11.44-9-21.8-11.79-33.3-3.09-12.92-3.65-26.21-4.48-39.42-.72-11.46-1.17-23.06-3.76-34.29a112.4,112.4,0,0,0-10.48-27.84c-5-9.32-.91-5-7.57-13.2,0,.37,1.81,125.76.55,133,.3,8.9-12.41,94.57-16.22,120.08-.32,16.46.34,41.81,2.62,44.74s29.17,6.28,29.17,6.28c.46-2.26.87-4.53,1.25-6.81,1.93-11.43,7.36-21.88,11.6-32.55a81.26,81.26,0,0,0,5-16.71C448.13,1159.82,452.81,1071.42,451.33,1065.7Z" fill="#f9f9f9"/><path d="M804.94,1211.94c1-.7,3-18.13,3.55-23.94-1.7-60.49-16.3-126.77-26.25-209.6-1.62,9.82-4.62,19.33-7.77,28.75s-6.44,18.88-8.65,28.6a155.16,155.16,0,0,0-3.44,30c-.31,10.5-5.09,103.49-4,113.94q.82,8.1,2.18,16.13a111.1,111.1,0,0,0,3.22,15,70.13,70.13,0,0,0,2.78,7.64C771.05,1218.23,803.83,1212.74,804.94,1211.94Z" fill="#f9f9f9"/><path d="M871.7,1029.73c-11.75-16-4.87-38.69-13.08-55.9-8.15-13.24-16.26-16.57-16.85-34.83-3.12-7.08-11.19-1.78-15.36-7.42-4.52-6.09-6.46-17.49-15.42-15.73-5,2.25-6.87,9.39-12,11.54-22.6,6.33-9.6-15.29-13.71-27.09-2.36-3-5.6-4.2-9.06-4.84.09.81.18,1.62.28,2.43,1.3,10.88,1.73,21.74,2.82,32.64,1.13,11.15,12.29,141.45,18.91,161.55,9.09,27.62,29.88,99.51,30.82,128.54,18-3,50.36-4.69,64.53-1.64C893.53,1219,877.43,1039.82,871.7,1029.73Z" fill="#f9f9f9"/><path d="M885.29,1132.55a.93.93,0,0,1,.28-.65c-.85-7.73-1.7-15.46-2.65-23.19-3.56-29.24-8.72-58.33-10-87.8-.52-.88-1-1.76-1.51-2.67A73.15,73.15,0,0,1,864.07,998c-1.47-7.41-1.09-14.94-1.59-22.51a40.51,40.51,0,0,0-4.27-16.56,79.44,79.44,0,0,0-5.47-8.71c-1.72-2.44-3.8-4.41-5.53-6.83a25.81,25.81,0,0,1-4.52-10c-.66-3.67,0-8-1.38-11.45-1.66-4.13-4.74-4.38-8-4.5a9.35,9.35,0,0,1-7.33-3.41c-2-2.23-3.07-5.43-4.26-8.34-1.25-3.08-2.38-5.23-4.91-6.78-1.88-1.15-4.13-2.24-6.28-1.59a8,8,0,0,0-3.65,3.12c-2.59,3.44-4.76,7.24-8.38,9.1s-9.31,2.2-12.21-1.48c-2.6-3.3-1.92-8.6-1.4-12.8.56-4.44,2-10.42-.14-14.48-2.25-4.33-6.68-4.94-10.78-5.23-.09,15.23,4.3,30,5.32,45.16,1,1.58,2,3.14,3,4.63,2.93,4.18,6.42,7.51,9.71,11.22,5.6,6.31,10.68,13.48,13.89,22.09,3.41,9.14,4.76,19.18,5.54,29.2.51,6.57.73,13.11.68,19.72-.05,5.29-.19,10.69.7,15.88a50.67,50.67,0,0,0,6.22,16.35c3.07,5.45,6.23,10.67,9.71,15.73,6.53,9.48,22.66,17.46,25.7,29.67,3.64,14.6,4.63,35.76,3.42,51.07-2.14,27-1.51,55.75-9.44,81,.42-.07,41.8.11,45.14,1.7C895.8,1213.21,884.8,1149.58,885.29,1132.55Z" fill="#e5e5e5"/><path d="M662.33,737.26c-15.49,3.15-32.49-2.58-46.92,3.88-7.29,3.26-12.94,9.28-18.1,15.38-12,14.21-22.56,29.63-33,45-1.74,2.54-3.51,5.17-4.16,8.18s-.12,6.18-.4,9.27a29.42,29.42,0,0,1-3.17,9.9,86.28,86.28,0,0,1-20.37,27c-7.19,6.38-15.43,11.54-22.3,18.26s-12.45,15.61-12.25,25.22c.13,6.08,2.55,11.84,4.29,17.67,9.76,32.74-1.77,67.76-.89,101.91.14,5.23.64,10.68,3.41,15.1,5.43,8.67,17.15,10.31,27.35,11.09,10.73.81,22.2,1.47,31.55-3.87,6.45-3.67,11.1-9.8,15.21-16a203,203,0,0,0,19.13-36.09c5.82-14.29,11.92-31.21,26.62-35.89,3-.94,6.1-1.29,9-2.45,8.17-3.27,12.48-12.11,15.34-20.43,9.43-27.51,10.92-57,12.31-86,.82-16.93,1.6-34.16-2.54-50.59-2-7.74-5-15.8-2.73-23.45,1.61-5.44,5.71-9.82,7.68-15.14s.49-12.89-5.05-14.11" fill="#f9f9f9"/><path d="M323.27,1014.26c-3.33-9.43.08-22.61,1.4-32.22l-8.35-4.17c-4.45,9.7-.4,159.15,1.41,158.41,8.5-3.49,6.42-9.45,7.41-16.82s-.56-14.83-.4-22.25c.2-9.77,3.32-19.77-.65-29.16-1.61-3.81-4.37-7.46-4.6-11.43-.42-7.5,8.18-13.43,9.86-20.78S325.8,1021.45,323.27,1014.26Z" fill="#aaa"/><path d="M325.57,1013.63c-1.69-5-1.49-10.28-.95-15.41s1.64-10.35,2.36-15.54a2.48,2.48,0,0,0-1.1-2.7l-8.35-4.18a2.41,2.41,0,0,0-3.27.86,16.44,16.44,0,0,0-1.1,4.85c-.29,2.31-.45,4.64-.58,7-.41,7.26-.53,14.53-.6,21.79-.1,9.53-.07,19.06,0,28.59q.13,15.56.47,31.09.32,14.68.77,29.38c.25,7.68.53,15.36.91,23,.21,4.43.33,8.92,1,13.32a6.39,6.39,0,0,0,.2,1.06,2.55,2.55,0,0,0,.94,1.4c1.3,1,2.62.29,3.93-.36a11.86,11.86,0,0,0,6.19-7.09c.86-2.79.74-5.81.93-8.7.13-2,.47-4.08.54-6.14.09-2.42,0-4.84-.17-7.26a105.51,105.51,0,0,1-.37-14.55c.67-9.33,2.65-18.68-1.3-27.59-1.52-3.42-4.28-6.88-4.11-10.81.14-3.15,2.28-6.05,4-8.56,2.06-3,4.23-5.89,5.4-9.35,1.37-4.06.69-8.41-.73-12.35s-3.56-7.75-5-11.76a2.45,2.45,0,0,0-2.94-1.67,2.41,2.41,0,0,0-1.67,2.94c1.47,4.08,3.61,7.88,5.06,12,1.22,3.42,1.82,7,.36,10.43-2.69,6.31-8.83,11-9.27,18.2-.26,4.26,2.09,8,3.93,11.68a26.38,26.38,0,0,1,2.66,12.39c-.05,4.47-.73,8.91-1.11,13.36a89.53,89.53,0,0,0,.17,14c.17,2.41.33,4.83.32,7.26,0,2.21-.27,4.38-.48,6.58-.14,1.51-.18,3-.26,4.53a16.49,16.49,0,0,1-.42,3.53,6.27,6.27,0,0,1-1.37,2.82,7.56,7.56,0,0,1-1.31,1.16,11.27,11.27,0,0,1-1,.61c-.29.16-1.16.39-1.34.66.46-.68,2.12.15,2.48.51-.07-.07.46.63.35.45s.16.71.19.43a2.13,2.13,0,0,0-.1-.42c-.09-.45-.05-.8,0,0,0-.29-.07-.59-.1-.89-.09-.79-.15-1.58-.21-2.37-.18-2.35-.32-4.7-.44-7.06-.38-7.13-.65-14.27-.89-21.41q-.48-13.93-.79-27.87-.35-15.15-.52-30.31c-.11-9.63-.17-19.25-.12-28.88,0-7.73.12-15.47.43-23.19.11-2.77.25-5.54.47-8.3.09-1,.19-2,.31-3.06.08-.74,0,.17,0-.06s.06-.4.09-.6c.06-.35.12-.7.19-1.05s.11-.52.19-.78c.13-.45.29-.75,0-.08l-3.28.86,8.35,4.18-1.09-2.71c-.79,5.62-1.94,11.18-2.53,16.82s-.7,11.36,1.12,16.68C322,1017.8,326.57,1016.55,325.57,1013.63Z" fill="#aaa"/><path d="M412.26,1052c-.63-47.35-2.32-97.19-2.32-97.19-23.49,33.93-5.74,42.37-24,69.86-1.3,5.39,2.79,10.69,5.79,15.77,8.6,10.4,7.67,35.11,10.42,52.92C404.39,1085.89,411.48,1054.23,412.26,1052Z" fill="#aaa"/><path d="M414.65,1052q-.36-26.71-1.06-53.43-.46-18.54-1-37.08-.1-3.35-.22-6.68a2.41,2.41,0,0,0-4.46-1.21c-6,8.73-11.09,18.29-13.07,28.79a102.65,102.65,0,0,0-1.32,11.18c-.13,1.68-.25,3.36-.42,5-.19,1.92-.3,2.82-.64,4.72a47.28,47.28,0,0,1-3.48,11.2,62.58,62.58,0,0,1-3.58,6.65c-.88,1.43-1.74,2.56-1.94,4.28a12.69,12.69,0,0,0,.31,4.55,31.07,31.07,0,0,0,4.12,8.64c.77,1.24,1.49,2.52,2.37,3.68a25.58,25.58,0,0,1,1.55,2.43c2.13,3.88,3.19,8.41,4,12.81,2.21,12,2.25,24.34,4.1,36.42.37,2.46,4,2.09,4.61,0,1.61-5.46,2.83-11,4.15-16.58,1.55-6.53,3.06-13.07,4.62-19.59.41-1.72.74-3.51,1.32-5.19,1-2.92-3.62-4.17-4.62-1.27-.47,1.38-.75,2.84-1.09,4.26-.69,2.85-1.36,5.72-2,8.58-1.62,6.88-3.22,13.76-4.91,20.62-.65,2.64-1.28,5.29-2.05,7.9h4.61c-1.64-10.72-1.88-21.61-3.43-32.35a63.82,63.82,0,0,0-3.34-14c-1.8-4.64-4.89-8.44-7.31-12.76a21.77,21.77,0,0,1-1.78-3.86,7.36,7.36,0,0,1-.44-4,17.73,17.73,0,0,1,1.88-3.06c.66-1.1,1.28-2.23,1.87-3.37a53.22,53.22,0,0,0,4.54-12,74.38,74.38,0,0,0,1.58-10.93c.13-1.64.24-3.29.38-4.94.07-.84.15-1.68.23-2.52l.15-1.34c.06-.51.12-.92.14-1.1,1.62-11.24,6.66-21.19,13.06-30.47l-4.46-1.2q.33,9.81.61,19.64.68,23.24,1.17,46.49.32,15.52.54,31.06C409.91,1055.08,414.69,1055.09,414.65,1052Z" fill="#aaa"/><path d="M442.64,671.06l-31.28,7.61a21.35,21.35,0,0,1-.49,5.2c1.35,4.54,3.33,8.94,5.08,13.35a83.55,83.55,0,0,1,5.25,23.26c1.27,13.75,0,27.48-1.92,41.1-1.2,8.4-2.14,16.88-4.68,25-1.22,3.91-1.24,124.88,2.64,127.32,5.77,3.64,11.8-4.54,13.24-11.22,5.47-25.47.62-52,3.35-77.94,2.78-26.4,13.32-51.3,19-77.23S458.59,692.28,442.64,671.06Z" fill="#aaa"/><path d="M441.77,667.9l-27.35,6.65-3.93,1a3.31,3.31,0,0,0-2.41,3.16,20.2,20.2,0,0,1-.33,4.1c-.33,1.88.45,3.6,1.08,5.35,1,2.84,2.2,5.63,3.34,8.43a80.61,80.61,0,0,1,4.86,17c2,12,1.65,24.28.42,36.3-.61,6-1.48,12.06-2.34,18.07-.44,3-.91,6.07-1.5,9.08s-1.48,5.78-2.17,8.69a29.59,29.59,0,0,0-.45,5.56c-.33,8.79-.34,17.59-.38,26.37q-.06,18.89.18,37.76c.15,12,.37,24,.86,36,.18,4.42.39,8.83.74,13.24a57.42,57.42,0,0,0,1.08,8.66,5.85,5.85,0,0,0,1.39,2.87,7.93,7.93,0,0,0,5.78,1.89,11.17,11.17,0,0,0,6.56-3c3.71-3.27,5.78-8.16,6.73-12.91a133.91,133.91,0,0,0,2.27-18.62c.68-12.24.06-24.49,0-36.73a175.94,175.94,0,0,1,3.08-35.86c4.65-23,13.56-44.92,17.81-68,3.72-20.24,4-41.89-4.38-61.06a62.49,62.49,0,0,0-7.24-12.46,3.38,3.38,0,0,0-4.48-1.18c-1.4.82-2.24,3.06-1.18,4.48,11.85,15.89,14.41,35.84,12.76,55.21-1.85,21.77-9.65,43-15.45,64.12a200.19,200.19,0,0,0-6.73,34.38c-1.11,11.89-.7,23.85-.51,35.78s.25,23.73-1.75,35.39a37,37,0,0,1-1.71,7.18,16.53,16.53,0,0,1-3.13,5l-.6.58c-.1.09-.64.53-.21.21-.33.25-.7.43-1,.66-.74.49.32-.07-.16.1-.22.08-.45.13-.68.21s-.62.07,0,0a8,8,0,0,1-.85,0c.64,0,.19,0,0,0,0,0-.87-.31-.47-.14s-.54-.28-.46-.28c-.1,0-6.44-6.35.62.48-.31-.3.64.89.34.44s.25.79.18.44c0-.15-.1-.3-.14-.44-.11-.4-.19-.81-.27-1.22l-.12-.72c0-.23-.17-1.23-.07-.47s0-.3-.06-.53-.08-.71-.12-1.06c-.4-3.76-.61-7.54-.8-11.31-.57-11.09-.81-22.2-1-33.3q-.31-18.87-.31-37.75c0-9.83,0-19.66.25-29.48.06-2.65.11-5.32.29-8l.09-1c0-.59-.25.71-.07.5,0,0,0-.18.05-.24a53.86,53.86,0,0,0,2.08-8.25c.56-2.77,1-5.57,1.42-8.37,3.46-23.59,6.91-48.84-1.18-71.91-1.88-5.38-4.4-10.5-6.05-16v1.74a27.55,27.55,0,0,0,.61-6.07l-2.41,3.16,27.35-6.66,3.93-.95a3.28,3.28,0,0,0-1.74-6.32Z" fill="#aaa"/><path d="M574.74,606.05c.63,7.27,8.74,48.72,9.37,56a13,13,0,0,1-.31,5.48c-.74,2.09-2.48,3.64-4.21,5-19,15-44.6,19.05-64.22,33.14a7,7,0,0,0-2.9,3.29c-1,3.12,2.41,5.8,5.44,7,11.93,4.72,25,.51,37.78-.66,55.79-5.11,26.63,57.5,23.1,61.12s-6.6,8.49-5.65,13.46c4.32,2,9.16-1.39,12.48-4.82,12.31-12.76,31.28-35.5,46.58-44.47,3.9-2.29,8.24-4.06,12.77-4.15s9.25,1.7,11.88,5.39,3.54,9.49,7.95,10.8c3.81,1.13,7.68-2.31,8.8-6.12s.4-7.88.28-11.85.61-8.4,3.74-10.85c5.53-4.32,15.82-.53,19.2-6.68,1.67-3.06.35-6.89-1.49-9.84-6.65-10.64-19-16-28.93-23.63a71.82,71.82,0,0,1-26.84-44.71c-.75-4.56-9.76-41.32-14.38-41.63-1.3-.08-2.58,1.36-3.82,1.78-14.4,4.9-31.42,7.1-46.62,7" fill="#aaa"/><path d="M572.22,606.05c.28,3.11.85,6.21,1.36,9.29.79,4.7,1.63,9.39,2.47,14.08,1.68,9.43,3.46,18.86,5,28.33.12.75.24,1.51.35,2.27,0,.29.15,1.2,0,.38,0,.3.08.6.11.9.32,2.75.55,5.37-1.49,7.49a44.9,44.9,0,0,1-8.63,6.42,108.7,108.7,0,0,1-9.7,5.33c-13.31,6.52-27.59,11-40.46,18.37-3.09,1.79-6.5,3.68-9.11,6.15-3.05,2.87-2.89,7.06-.08,10,2.65,2.8,6.7,4.08,10.38,4.81a46.19,46.19,0,0,0,12.48.59c7.94-.59,15.74-2.47,23.7-2.88a55.09,55.09,0,0,1,7.92.12c.55,0,1.11.11,1.66.18-.39,0,.21,0,.32.05l1,.17c1,.19,2,.42,3,.7s1.9.6,2.83,1c.12.05-.3-.14.14.06.22.1.43.19.64.3.41.19.81.4,1.21.62a24.1,24.1,0,0,1,2.21,1.39c.21.15.4.31.06.05a6,6,0,0,1,.49.39c.31.26.62.53.92.82a18.17,18.17,0,0,1,1.58,1.7c.08.09.45.56.23.27s.1.15.16.22c.24.35.48.7.7,1,.4.65.77,1.31,1.1,2,.11.23.52,1.2.26.56.15.36.3.73.43,1.1a27.11,27.11,0,0,1,1.17,4.59c0,.21.07.41.1.61s.06.45,0,0c0,.41.09.83.13,1.24.08.84.12,1.67.14,2.51a48.25,48.25,0,0,1-.15,5c-.07.86-.17,1.72-.27,2.59-.06.49.06-.43,0,.07,0,.21-.06.43-.1.64q-.09.65-.21,1.29a85.87,85.87,0,0,1-5.36,18.11c0,.1-.28.65-.1.24s0,.06-.07.15l-.41.95-.72,1.58c-.43.9-.87,1.79-1.34,2.67-.33.61-.67,1.22-1.06,1.81l-.2.3c-.29.46,0-.2.16-.2,0,0-.13.16-.15.18a19.31,19.31,0,0,0-1.81,2c-2.53,3.11-4.54,6.73-4.75,10.81a10.32,10.32,0,0,0,.22,2.88c.32,1.36,1.45,1.93,2.7,2.3a9.68,9.68,0,0,0,5.59-.13c3.64-1.13,6.57-3.74,9.16-6.45,2.11-2.2,4.18-4.44,6.25-6.68,9.47-10.25,18.82-20.76,29.54-29.74,4.88-4.08,10.35-8.25,16.56-10a15.18,15.18,0,0,1,10.17.36c3,1.31,4.56,3.62,5.91,6.46s2.57,5.56,5.11,7.39a8.38,8.38,0,0,0,9.81-.27c3.35-2.48,4.87-6.14,5.19-10.21s-.63-7.91-.17-11.85c.32-2.73,1.4-5.33,4-6.54,2.16-1,5-1.07,7.53-1.33,2.79-.27,5.81-.61,8.18-2.26a9.27,9.27,0,0,0,3.68-9.51c-.63-3.69-2.9-6.95-5.22-9.78a46.89,46.89,0,0,0-7.54-7.16c-5.63-4.38-11.84-7.92-17.61-12.1a69.26,69.26,0,0,1-24.68-33.37,127.1,127.1,0,0,1-3.39-13.85c-.84-3.71-1.78-7.41-2.76-11.08-1.25-4.7-2.59-9.38-4.1-14a71.61,71.61,0,0,0-4.5-11.43,11.25,11.25,0,0,0-2.3-3.2,4.42,4.42,0,0,0-1.84-1c-1.87-.48-3.42.67-4.93,1.55a23,23,0,0,1-5.27,1.76q-2.85.82-5.74,1.5-6,1.41-12.1,2.29a154.89,154.89,0,0,1-23.17,1.54c-3.24,0-3.25,5,0,5,15.56.12,31.46-1.84,46.27-6.71.33-.11,4.31-1.77,4.17-2,0,0-.81-.15-.42,0s-.65-.29-.35-.14c.51.26-.39-.46,0,0,.1.13.57.67.28.3s.22.32.31.47c.37.59.7,1.2,1,1.82.18.35.34.71.51,1.06.07.17.15.35.23.52l.19.44.19.46.24.6c.19.48.38,1,.56,1.46.75,2,1.44,4,2.1,6.08,2.54,7.94,4.73,16,6.55,24.16a130.1,130.1,0,0,0,3.12,13,74.79,74.79,0,0,0,9.32,18.8,73.07,73.07,0,0,0,14.18,15.45c5.36,4.34,11.31,7.82,17,11.74,5.3,3.67,10.77,8,13.76,13.9a8.35,8.35,0,0,1,1.09,4.54,4,4,0,0,1-.63,1.71,4.34,4.34,0,0,1-.76.84c-1.74,1.29-4.17,1.43-6.4,1.64a28.83,28.83,0,0,0-8.3,1.51,11.5,11.5,0,0,0-6.63,7.09c-1.21,3.39-1,7.05-.79,10.57s.67,7.5-1.62,10.35a5.37,5.37,0,0,1-3.22,2.08,3.13,3.13,0,0,1-2.54-.87c-1.87-1.71-2.75-4.67-4-7-3.52-6.64-10.85-9.33-18.06-8.29-6.71,1-12.68,4.81-18,8.87a156.52,156.52,0,0,0-15,13.35c-4.89,4.86-9.6,9.91-14.28,15q-3.23,3.51-6.46,7c-2,2.13-3.92,4.36-6.09,6.31-1.91,1.72-5.2,4.21-8,3l1.16,1.51c-.58-3.39,1.37-6.81,3.46-9.31a33.44,33.44,0,0,0,2.5-3,35.66,35.66,0,0,0,2.4-4.48A91.7,91.7,0,0,0,590,755.51c1.7-6.83,2.62-14,1.64-21-1-6.84-4.26-13.07-10-17-7.93-5.44-18.57-5.56-27.76-4.53-8.32.93-16.61,2.94-25,2.63-3.7-.14-7.82-.7-11.11-2.5-1.08-.59-2.51-1.49-2.84-2.72-.28-1,.91-1.9,1.76-2.53,12-8.84,26.52-13.59,40.05-19.48A121.82,121.82,0,0,0,576.29,678c3.1-2.08,6.49-4.3,8.69-7.37,1.95-2.73,1.94-6.09,1.58-9.29-.94-8.32-2.67-16.59-4.14-24.83-1.65-9.18-3.41-18.36-4.79-27.59l-.15-1c0-.16-.05-.33-.07-.5-.07-.45.08.66,0,.07s-.12-1-.16-1.44a2.58,2.58,0,0,0-2.52-2.51,2.53,2.53,0,0,0-2.52,2.51Z" fill="#aaa"/><path d="M709.08,579.41c6.65-1.33,13.44-2.66,20.16-1.77,3.87.51,7.62,1.76,11.51,2.18,2.28.25,4.59.21,6.86.6a37.29,37.29,0,0,1,6.11,1.82c8.23,3,16.56,6,23.74,11a42.65,42.65,0,0,1,15.69,19.32,32.51,32.51,0,0,1-.21,24.61c-4.24,9.56-13.71,17-14.59,27.4-.1,1.16-.14,2.48-1,3.25-1,.93-2.68.58-3.93,0a16,16,0,0,1-8.61-12.71c-.39-3.59.19-7.59-2-10.48-2.45-3.3-7.49-3.75-10-7-1.35-1.74-1.75-4-2.11-6.19l-2.17-13.18c-.47-2.89-1-5.85-2.51-8.35-1.88-3.07-5.06-5-8.14-6.92-4.29-2.62-8.68-5.27-13.59-6.38-5.68-1.28-12.49-.77-16.25-5.22a8.82,8.82,0,0,1,.09-11.13" fill="#aaa"/><path d="M709.75,581.84c5.16-1,10.36-2.07,15.65-2s10.32,2,15.57,2.49a54.08,54.08,0,0,1,7.31.77,66,66,0,0,1,7.07,2.38,129.17,129.17,0,0,1,13.39,5.54c8.09,4.05,15.29,9.8,19.83,17.75s5.8,17.55,2.59,26.14c-2.89,7.76-9.39,13.52-12.89,21a25.86,25.86,0,0,0-2,5.85,31.1,31.1,0,0,0-.42,3.18,3.34,3.34,0,0,1-.2,1.09c.09-.19.36-.11,0-.14-1.58-.13-3.19-1.47-4.27-2.54a13.85,13.85,0,0,1-3.09-4.61c-1.62-4-.61-8.35-1.84-12.42-1.33-4.38-4.91-6.09-8.66-8.06a7.11,7.11,0,0,1-3.64-3.36c-.92-2.17-1.08-4.75-1.45-7l-1.33-8.05a57,57,0,0,0-1.39-7.12c-1.43-4.76-4.65-7.95-8.73-10.58a66,66,0,0,0-13.06-7c-4-1.46-8.25-1.54-12.38-2.44-3.26-.71-6.65-2.28-7.1-6a6.24,6.24,0,0,1,1.25-4.65,2.6,2.6,0,0,0,0-3.57,2.54,2.54,0,0,0-3.56,0,11.49,11.49,0,0,0-1.21,13.17c2.4,4,6.89,5.56,11.25,6.26,2.11.34,4.25.54,6.35,1a27.65,27.65,0,0,1,6.91,2.35c2.33,1.14,4.55,2.49,6.77,3.84A31.58,31.58,0,0,1,742,609c3.7,3.51,3.94,8.89,4.72,13.64l1.41,8.54c.42,2.56.81,5.24,2.28,7.44a13,13,0,0,0,5,4.11,20.91,20.91,0,0,1,4.8,2.75c1.5,1.38,1.76,3.41,1.87,5.35a40.75,40.75,0,0,0,.62,6.8,18.78,18.78,0,0,0,7.43,11.22c1.89,1.34,4.34,2.49,6.71,2,2.92-.6,3.79-3.24,4-5.87.78-8.58,7.61-15.07,11.92-22.06a34.89,34.89,0,0,0,3.53-29c-2.95-9.34-9.44-17.16-17.39-22.73a72.9,72.9,0,0,0-14.09-7.42c-2.4-1-4.84-1.92-7.28-2.82s-4.93-1.9-7.47-2.57a47.46,47.46,0,0,0-8.4-1,57.75,57.75,0,0,1-7.6-1.41,47.8,47.8,0,0,0-17.28-.5c-2.81.39-5.59.95-8.37,1.5a2.52,2.52,0,0,0,1.34,4.86Z" fill="#aaa"/><path d="M714.13,743.82c.33-10.29-8.9-18.09-13-27.55-1.47-3.43-5.39-17.11-2.69-19.68a6.91,6.91,0,0,1,4.42-1.74c6-.31,22.39,13.39,25.9,18.28a290,290,0,0,1,30.32,52.36c4.53,10.21,8.93,44.71,10,50.83a85.65,85.65,0,0,1,.93,16.32c-.41,14.31-3.13,28.43-5.84,42.48l-5.79,30c-.52,2.7-1.08,5.49-2.62,7.78-1.67,2.48-4.34,4.12-6.18,6.48-2.53,3.26-3.24,7.52-4.64,11.4-5.33,14.84-20.32,23.6-34.36,30.77a6.16,6.16,0,0,1-2.63.87,5,5,0,0,1-3.07-1.31c-4.37-3.48-6.07-9.42-6.1-15s1.36-11.08,2-16.63c1.23-10.16,0-20.47.91-30.67,1.35-15.93,7.67-31,10.24-46.8,5.87-36-8-72-22.84-105.32-1.41-3.18-2.86-6.45-3.06-9.92s1.12-7.27,4.12-9c4.62-2.71,10.55.49,14.05,4.53S710.32,741.37,715,744" fill="#c6c6c6"/><path d="M716.14,743.82c.22-10.47-8-18-12.39-26.77a42.71,42.71,0,0,1-3.1-9.45,39.84,39.84,0,0,1-1-5.43,10.56,10.56,0,0,1,.18-4.13c-.12.38.29-.24-.05.08a4.37,4.37,0,0,1,1.26-.85,6.94,6.94,0,0,1,2.38-.41A12.83,12.83,0,0,1,706.8,698a56.2,56.2,0,0,1,9.57,6.21,84.38,84.38,0,0,1,8.48,7.44c2.9,3,5,6.37,7.54,10.09a294,294,0,0,1,18.31,30.74q2.09,4.08,4,8.23c.63,1.32,1.24,2.65,1.85,4,.27.6.54,1.2.8,1.8s-.09-.24,0,.09l.21.52a66.8,66.8,0,0,1,2.54,8.86c3.13,13.4,4.75,27.07,6.92,40.64,2,12.32.71,25.09-1.16,37.35-2,13-4.71,25.83-7.2,38.72l-1.85,9.56c-.54,2.79-.87,5.87-2.17,8.44s-3.55,4-5.43,6a19.34,19.34,0,0,0-4.25,7.22c-.9,2.53-1.51,5.16-2.53,7.64a33.44,33.44,0,0,1-3.4,6.18A47.22,47.22,0,0,1,729,948.06a95.56,95.56,0,0,1-12.7,8.16c-2.17,1.2-4.37,2.36-6.58,3.49-1.28.65-2.09.9-3.33,0a10.6,10.6,0,0,1-2.47-2.53c-3.07-4.31-3.44-9.83-3-14.93.58-6.39,2.07-12.61,2.34-19s-.07-13,.14-19.53a97,97,0,0,1,2.52-18.5c2.73-12,6.77-23.68,8.41-35.92,3.31-24.77-2.43-49.66-10.86-72.86-2.16-5.94-4.51-11.81-7-17.64q-1.8-4.29-3.68-8.57c-1.23-2.82-2.61-5.6-3.65-8.5-1.41-3.93-2.3-10.45,2.52-12.58,4.53-2,9.4,2.41,12,5.63,3.16,3.94,5.76,8.35,10.22,11,2.23,1.31,4.26-2.16,2-3.47-4.65-2.75-7.06-7.87-10.59-11.77-3.37-3.72-8.82-6.91-14-5.49s-7.75,7.1-7.31,12.18a29.22,29.22,0,0,0,2.63,8.94c1.29,3,2.62,5.9,3.9,8.86,10.26,23.7,19.57,48.75,20.62,74.81A109.72,109.72,0,0,1,710.4,849a153.78,153.78,0,0,1-4.09,18.86c-1.65,6.22-3.42,12.41-4.75,18.7a101.56,101.56,0,0,0-2.18,19.5c-.1,6.68.24,13.37-.26,20s-2.33,13.09-2.35,19.73c0,5.31,1.35,10.8,4.85,14.91,1.8,2.11,4.4,4.11,7.33,3.57a14,14,0,0,0,3.7-1.58c1.25-.64,2.5-1.3,3.74-2,9-4.86,18.11-10.56,24.51-18.74A42.66,42.66,0,0,0,748,927.91c.83-2.73,1.66-5.59,3.58-7.78s4.09-3.64,5.7-5.89c1.82-2.53,2.49-5.61,3.07-8.61.64-3.27,1.26-6.55,1.9-9.82q1.93-10.08,3.89-20.15c2.57-13.36,5.16-26.79,5.81-40.4a94.9,94.9,0,0,0-.92-19.57c-.36-2.24-.67-4.5-1-6.75-1.15-7.87-2.35-15.75-3.79-23.58-1.28-6.92-2.46-14.23-5.28-20.73A264,264,0,0,0,743.79,732q-4.9-8-10.27-15.68a56.61,56.61,0,0,0-7.45-9.09,98.11,98.11,0,0,0-9.58-7.91,43,43,0,0,0-9.93-5.76c-3.33-1.25-8.37-.89-10.24,2.63-1.64,3.08-.58,7.56.08,10.77a53.49,53.49,0,0,0,2.84,9.84c2,4.91,5.28,9.15,8.11,13.61,2.59,4.08,4.88,8.45,4.77,13.41,0,2.59,4,2.59,4,0Z" fill="#c6c6c6"/><path d="M561.16,806.11c1,10.09,1.9,20.48-.93,30.21a40.19,40.19,0,0,1-43.05,28.73c9.62-6.14,21.41-9.66,28.39-18.7,8-10.4,7.32-24.9,11.28-37.44.6-1.89,2.29-4.18,4-3.25" fill="#c6c6c6"/><path d="M559.15,806.11c1.08,11.38,2.28,23.57-2.54,34.32a38.51,38.51,0,0,1-21.34,20.33A39.53,39.53,0,0,1,517.18,863l1,3.75c8.58-5.44,18.63-8.75,26-15.94,7.72-7.49,9.81-18,11.61-28.17.51-2.89,1-5.79,1.7-8.65.33-1.41.69-2.82,1.13-4.21a5.6,5.6,0,0,1,.84-1.78c.11-.14.23-.26.35-.39.33-.37.43-.08,0-.25a2.08,2.08,0,0,0,2.75-.72,2,2,0,0,0-.72-2.75c-6.14-2.65-7.79,6.8-8.64,10.79-1.15,5.4-1.86,10.89-3.15,16.27-1.21,5.06-3,10.1-6.21,14.24s-7.47,6.95-11.89,9.45c-5.25,3-10.76,5.41-15.86,8.64a2,2,0,0,0,1,3.74,42.59,42.59,0,0,0,32.21-10.18c8.57-7.48,13.4-18,14.46-29.24.68-7.17,0-14.39-.68-21.53a2.07,2.07,0,0,0-2-2,2,2,0,0,0-2,2Z" fill="#c6c6c6"/><path d="M620.79,931.89q-13.27-5.62-26.95-10.17c-3-1-6.46-1.94-9.3-.49a34.26,34.26,0,0,0-3.56,2.62c-2.63,1.8-6,2.17-9.14,2.39s-6.49.37-9.32,1.85-5,4.71-4.2,7.79c1,3.73,5.49,5.11,9.29,5.85,16.81,3.25,34.95,5.68,50.46-1.57a7.38,7.38,0,0,0,3.78-3.08c.72-1.5.08-3.72-1.55-4" fill="#c6c6c6"/><path d="M621.8,930.15c-5.47-2.31-11-4.51-16.55-6.56-2.71-1-5.42-2-8.15-2.89a38.33,38.33,0,0,0-7.78-2.13,9.72,9.72,0,0,0-7.14,1.79,26.67,26.67,0,0,1-2.91,2.19,11.81,11.81,0,0,1-3.6,1.23c-5,1-10.67.06-15.11,3.15-3.89,2.69-6,8-2.87,12.09,2.69,3.5,7.46,4.29,11.53,5.06,10.47,1.95,21.23,3.52,31.89,2.51a54.76,54.76,0,0,0,17.18-4.33c2.35-1,5-2.51,5.7-5.2a4.82,4.82,0,0,0-3.15-5.94c-2.51-.67-3.57,3.21-1.07,3.87,1.31.35-.58,2.24-1,2.52a25.89,25.89,0,0,1-6,2.63,53.14,53.14,0,0,1-12.9,2.54c-9.25.69-18.52-.49-27.6-2.12-3.38-.61-7.66-.91-10.48-3.09-3.15-2.43-1-6.3,2-7.74,4-2,8.93-1.2,13.22-2.11a14.59,14.59,0,0,0,6.1-2.83c1.75-1.37,3.11-2.42,5.45-2.28s5,1.19,7.3,2c2.66.9,5.3,1.84,7.93,2.8q8.1,3,16,6.33a2.07,2.07,0,0,0,2.75-.73,2,2,0,0,0-.72-2.75Z" fill="#c6c6c6"/><path d="M501.74,906.32a15.08,15.08,0,0,1,11,14.87c-.25,5.13-3.12,10.58-.7,15.11,1.92,3.59,6.75,5.43,7.46,9.44a10.82,10.82,0,0,1-.8,5.12c-1.27,3.87-2.52,7.87-2.12,11.92s2.87,8.17,6.79,9.24c1.66.45,3.45.33,5.1.84,3.9,1.21,6,5.83,5.44,9.88s-3.06,7.56-5.89,10.51a3.69,3.69,0,0,1-2.14,1.35c-1.18.11-2.15-.85-3.09-1.57a9.35,9.35,0,0,0-14.83,9.43c.67,3,2.79,5.73,2.4,8.76a13,13,0,0,1-1.68,4.18,36,36,0,0,0-3.37,23.18c.54,2.78,1.18,6.23-1.06,8-1.63,1.27-4.08.83-5.79-.32s-2.94-2.89-4.38-4.37c-5.11-5.24-12.62-7.17-19.3-10.17-7.09-3.19-13.65-7.93-18-14.36s-6.4-14.68-4.44-22.21c.59-2.25,1.52-4.46,1.48-6.78,0-1.93-.72-3.9-.11-5.74.94-2.85,4.58-3.87,7.54-3.38s5.68,2,8.65,2.52c8,1.34,15.12-4.92,20.45-11,3.46-4,6.76-8.13,9.86-12.4a19.44,19.44,0,0,0,3.64-6.88c1.06-4.63-1.14-9.29-2.65-13.79a49,49,0,0,1,0-30.85" fill="#c6c6c6"/><path d="M501.21,908.26a13.13,13.13,0,0,1,9.56,11.5c.37,6.17-3.88,12.61.09,18.37,1.49,2.15,3.64,3.6,5.37,5.52a4.72,4.72,0,0,1,1.39,3c.06,1.84-.85,3.72-1.39,5.44-1.93,6.16-2.89,13.19,1.57,18.51a11.06,11.06,0,0,0,7.74,3.75,7.6,7.6,0,0,1,3.71,1.06,6.47,6.47,0,0,1,2.14,2.76,9.37,9.37,0,0,1-.47,7.76,19.42,19.42,0,0,1-2.36,3.71c-.43.54-.89,1.06-1.35,1.56-.26.29-1.08,1.38-1.43,1.38s-.92-.54-1.24-.78a12.86,12.86,0,0,0-1.92-1.33,11.92,11.92,0,0,0-4.51-1.32,11.26,11.26,0,0,0-8.27,2.57,11.67,11.67,0,0,0-3.95,7.52c-.41,3.35,1.11,6,2.12,9a5.44,5.44,0,0,1,.05,4c-.61,1.54-1.52,3-2.18,4.48a38.07,38.07,0,0,0-2.74,9.64,37.59,37.59,0,0,0-.13,10c.19,1.48.51,2.94.72,4.41a6.2,6.2,0,0,1-.14,3.47c-1.43,2.86-5.1-.62-6.23-1.87a30.82,30.82,0,0,0-7.21-6.16c-5.31-3.14-11.37-4.74-16.85-7.55-11-5.64-20.47-16.1-19.64-29.19.2-3.24,1.58-6.18,2-9.37a21.69,21.69,0,0,0-.18-5c-.1-1.29,0-2.45,1.1-3.24,2.25-1.61,5.28-.66,7.62.16,3.12,1.08,6.17,2.09,9.53,1.7,6.3-.75,11.55-4.87,15.82-9.31a134.83,134.83,0,0,0,13.13-16.27c2.08-3,3.59-6.26,3.41-10s-1.51-6.95-2.68-10.31A48,48,0,0,1,501,917.43a46.87,46.87,0,0,1,2.19-10.12c.81-2.46-3.07-3.52-3.88-1.07a50.92,50.92,0,0,0-2.18,22.09A51.73,51.73,0,0,0,499.57,939c1.18,3.38,2.79,6.93,2.54,10.59s-2.71,6.44-4.73,9.16c-2.21,3-4.53,5.89-6.93,8.72-4,4.77-8.73,10.15-15,11.91-3.22.91-6.07.28-9.15-.81s-6-2-9.2-1.19a7.1,7.1,0,0,0-5.61,6c-.19,1.79.37,3.53.31,5.32a21.51,21.51,0,0,1-1.17,5,28.89,28.89,0,0,0,1.71,19.75,37.54,37.54,0,0,0,12.71,14.92c5.36,3.85,11.41,6,17.43,8.57a36.49,36.49,0,0,1,8.14,4.44c2.6,2,4.32,5,7.16,6.73s6.47,1.7,8.61-.88c2-2.42,1.54-5.71,1-8.56a35.05,35.05,0,0,1,2-20c1.33-3.17,3.5-5.93,3-9.55-.46-3-2.6-5.67-2.53-8.79a7.42,7.42,0,0,1,11.8-5.73c1.25.9,2.32,1.92,4,2,1.89.1,3.29-1.25,4.47-2.53a23.86,23.86,0,0,0,5.31-8.44c1.79-5.46-.16-12.55-6-14.61-2.9-1-5.94-.29-8.26-2.73a10.58,10.58,0,0,1-2.52-7.85c.16-3.81,1.74-7.24,2.66-10.89a9,9,0,0,0-2.16-8.75c-1.68-1.86-4.07-3.26-5.25-5.53-1.49-2.86-.33-6.4.28-9.35a20.21,20.21,0,0,0,.14-9.5,17.67,17.67,0,0,0-4.4-7.62,16.63,16.63,0,0,0-7.57-4.42c-2.51-.67-3.58,3.21-1.07,3.87Z" fill="#c6c6c6"/><path d="M656,967.33c-2.42-1.51-3.85-4.16-5.85-6.19s-5.34-3.41-7.64-1.74c-3.39,2.45-.88,7.71,1.61,11.06A101.85,101.85,0,0,1,664,1031.35a15.27,15.27,0,0,1-1.06,6.45c-2,4.27-7.16,5.91-11.73,7.1l-37,9.68a15,15,0,0,1-5,.73c-3.81-.29-6.76-3.29-9.44-6a151.92,151.92,0,0,0-18.72-16.11c-5.43-4-11.26-7.6-17.79-9.12s-13.93-.64-19,3.71c-8.56,7.28-7.72,20.75-4.33,31.46a101.39,101.39,0,0,0,14.81,29.24c2.09,2.85,4.35,5.64,5.64,8.94,1.75,4.47,1.54,9.44,1.29,14.24-1.15,22.26-4.35,65,1.22,86.56.48,1.87,4.93,31.41,6.44,32.62,42.67-5.19,115.47-.13,117.41-4.85,2.83-6.89,5.5-66,6.67-73.37s1.49-15,3.2-22.37c2.18-9.38,6.6-18.08,11-26.67l31.78-62.39c2.72-5.35,5.53-11.09,4.87-17.06-1-9.51-10.23-15.85-14.35-24.48-5.07-10.63-3.06-25.57-12.93-32-4.24,7.21-6.45,15.42-10.15,22.91s-9.54,14.66-17.65,16.68c-3.37.84-7.15.66-10-1.28-2.59-1.76-4.12-4.67-5.55-7.46l-16.25-31.83" fill="#c6c6c6"/><path d="M657,965.59c-3.38-2.23-4.81-6.36-8.64-8.1-3.54-1.61-8.08-.69-9.28,3.44-1,3.47,1,7.35,3,10.1,2.48,3.52,4.91,7,7,10.78,8.61,15.24,13.48,33.17,12.91,50.73a9.47,9.47,0,0,1-1.6,5.63,10.83,10.83,0,0,1-4.23,3c-3.83,1.73-8.19,2.49-12.24,3.55l-29.7,7.77c-2.14.56-4.28,1.19-6.45.44a14.09,14.09,0,0,1-4.84-3.4c-3.31-3.18-6.5-6.44-10-9.46-6.73-5.87-14.07-11.86-22.26-15.56-7.59-3.42-16.51-4.59-24.17-.67-6.84,3.51-10.23,10.6-10.89,18-.69,7.67,1.28,15.36,3.93,22.51a103.05,103.05,0,0,0,12.87,24.35c2.55,3.55,5.53,7,6.67,11.29,1.09,4.15.72,8.55.49,12.79-.33,6.35-.72,12.69-1,19-.75,15-1.31,30-.51,44.94a126.16,126.16,0,0,0,2.3,19.47c.69,3.24,1.29,6.46,1.84,9.73.85,5.09,1.7,10.18,2.65,15.25.42,2.18.84,4.37,1.35,6.53a14.29,14.29,0,0,0,1.23,3.9c.75,1.3,2,1.19,3.33,1,1.59-.18,3.18-.34,4.78-.49,3.3-.32,6.61-.57,9.92-.78,7-.44,14-.7,21.09-.87,14.1-.34,28.2-.3,42.31-.29,10.17,0,20.42.24,30.57-.54,2.45-.19,5.42-.22,7.65-1.41,2-1.07,2.19-3.78,2.52-5.79,1.53-9.4,2.09-19,2.78-28.49.77-10.54,1.41-21.09,2.17-31.62.22-3,.43-6.05.77-9.06.07-.61-.07.41,0-.11.19-1.15.34-2.31.49-3.47.32-2.43.59-4.88.87-7.32a90.77,90.77,0,0,1,2.59-14.54c2.61-9.22,7.18-17.71,11.5-26.2l13.92-27.33,14-27.57c4-7.94,9.52-16.75,6.86-26-2.06-7.2-7.84-12.37-11.86-18.45s-4.86-13-6.39-19.92c-1.43-6.4-3.72-12.72-9.4-16.51a2,2,0,0,0-2.75.72c-6.37,11-8.29,24.78-17.87,33.74-4,3.7-10.33,6.91-15.78,4.63-2.76-1.16-4.33-3.85-5.66-6.38-1.72-3.25-3.35-6.55-5-9.83l-11.82-23.14c-1.17-2.31-4.64-.28-3.47,2l11.33,22.18c1.84,3.6,3.63,7.22,5.52,10.79,1.51,2.86,3.36,5.71,6.23,7.37,5.75,3.32,13.19,1.37,18.32-2.22s8.92-8.86,11.66-14.45c3.64-7.44,5.87-15.51,10-22.69l-2.75.72c5.58,3.73,6.92,10.88,8.16,17a89.83,89.83,0,0,0,2.4,10.1,34.53,34.53,0,0,0,5,9.65c4,5.57,10.18,11.2,10.76,18.47.37,4.63-1.44,9.06-3.44,13.15-2.22,4.54-4.58,9-6.87,13.53-9.27,18.2-18.62,36.37-27.81,54.61-4.24,8.41-8.24,17.07-10,26.38-.94,4.91-1.39,9.9-2,14.86-.28,2.38-.7,4.75-.95,7.14-.88,8.4-1.26,16.87-1.82,25.3-.74,10.9-1.45,21.82-2.53,32.7-.21,2.11-.44,4.22-.71,6.32,0,.23,0,.45-.08.68s0,0,0-.07c0,.12,0,.24,0,.37,0,.4-.11.8-.17,1.21-.11.72-.23,1.44-.37,2.15-.11.54-.22,1.07-.36,1.6-.06.2-.13.4-.18.6-.13.51.08-.13.16-.24s.26-.3.26-.24-.36.19-.41.22c.48-.28.25-.09-.07,0l-.69.18c-.53.13-1.07.22-1.62.31l-.27,0c.32-.05-.23,0-.31,0l-1.17.13c-1.8.17-3.62.27-5.43.35-4.92.22-9.85.26-14.78.29-13.29.07-26.58,0-39.87.07-14.05.13-28.12.43-42.12,1.6q-4.65.39-9.27.94l1.42.59c-.21-.19.41.5.09.07-.21-.28.15.44,0,.13,0-.11-.08-.23-.12-.35-.2-.65-.39-1.31-.55-2-.49-2-.88-4-1.27-6-1-4.93-1.78-9.87-2.61-14.82-.49-2.92-.85-5.91-1.51-8.8a113.32,113.32,0,0,1-2.54-17.59c-1-14.4-.59-28.9.06-43.31.29-6.49.66-13,1-19.45.42-7.46,1.52-15.47-1.9-22.41-1.9-3.84-4.84-7.1-7.22-10.64a102.05,102.05,0,0,1-6.69-11.49c-3.54-7.12-6.62-14.87-7.69-22.8-.85-6.37-.46-13.89,4-19,5.08-5.83,13.44-6.66,20.51-4.61,8.23,2.38,15.44,8,22,13.32q5.28,4.3,10.14,9.06c2.89,2.83,5.63,6.15,9.46,7.73,4.35,1.8,9,0,13.26-1.17l14.07-3.68,14.33-3.75c3.86-1,7.89-1.84,11.46-3.69a12,12,0,0,0,6.64-8.58c.71-4.12.35-8.54,0-12.68a104.08,104.08,0,0,0-16.06-48c-2-3.17-4.88-6.17-6.25-9.71-.43-1.11-1-2.71-.22-3.8s2.55-.85,3.67-.27a13,13,0,0,1,3.93,3.79,18.21,18.21,0,0,0,4.17,4c2.16,1.43,4.18-2,2-3.47Z" fill="#c6c6c6"/><path d="M624.81,609.76c-.66-5.14,3.71-10.49,4.21-13.93-12.88,6-39.79,11.43-51.61,10.19s-.09,20.18-.42,28a6.31,6.31,0,0,0,.41,3.19,1.76,1.76,0,0,0,2.87.35,8.31,8.31,0,0,0,1.77-3.58,69.2,69.2,0,0,0,2.89-18A37.27,37.27,0,0,0,586.15,627c1.33,4.31,4.48,7.94,7.74,7.3,4.38-.86,6.44-8.26,10.44-10.82,2.63-1.69,5.72-1,8.59-.18s5.83,1.94,8.66,1,5.39-4.68,4.8-8.73C626.09,613.54,625.07,611.8,624.81,609.76Z" fill="#797a7a"/><path d="M627.2,609.76c-.52-4.94,3.33-8.66,4.12-13.29a2.43,2.43,0,0,0-3.51-2.7c-7.39,3.4-16,5.57-24.21,7.27-7.86,1.63-16.07,3.06-24.14,2.74-2.91-.12-6-.59-8.09,1.94s-1.77,5.73-1.34,8.62a72.11,72.11,0,0,0,2.44,9.81c.47,1.63.95,3.26,1.37,4.9.18.71.34,1.43.49,2.16.06.31.11.62.17.94,0,.14.07.6,0,.06l.06.56c.2,2.53-.35,5.48,2.17,7.08,3.17,2,6-.9,7-3.67a48.51,48.51,0,0,0,2.46-9.71,77.78,77.78,0,0,0,1.07-10.54h-4.78c0,6,.39,12.6,4.35,17.47a8.31,8.31,0,0,0,6.41,3.37,8.12,8.12,0,0,0,5.59-2.87,49,49,0,0,0,3.87-5.28c1.07-1.54,2.25-3.17,4.06-3.64,2.55-.67,5.33.65,7.74,1.32,3,.84,6.23,1.23,9.06-.29a10.46,10.46,0,0,0,5-7,11.47,11.47,0,0,0-.1-4.88c-.4-1.69-1.14-3.25-1.41-5a2.4,2.4,0,0,0-2.93-1.67,2.45,2.45,0,0,0-1.67,2.94c.37,2.4,1.87,4.7,1.53,7.17a5.84,5.84,0,0,1-2.7,4.25c-2.05,1.12-4.77.12-6.88-.52a18.65,18.65,0,0,0-7.31-1.18c-4.69.49-7.17,4.1-9.6,7.7a15.32,15.32,0,0,1-3,3.65,2.22,2.22,0,0,1-2.91-.06c-2-1.46-3-4-3.53-6.35a38.17,38.17,0,0,1-.77-9.12c0-3.08-4.67-3.06-4.78,0A67.61,67.61,0,0,1,580,632.42a10.79,10.79,0,0,1-1.1,3c-.39.58-.46.34.19.34.36,0,.21.3.34.06s-.07-.6-.08-.8a28.89,28.89,0,0,0-.28-4.35c-1-6-3.58-11.59-4.43-17.6-.07-.44.05.56,0-.16,0-.15,0-.3,0-.45s0-.57-.05-.86a11.55,11.55,0,0,1,.06-1.76c-.08.67.06-.18.1-.31s.36-.84.05-.27l.31-.53c-.33.55,0,0,.22-.18-.47.44,0,0,.22-.08s-.44.14-.12.06c.11,0,.22-.08.33-.1l.44-.09c-.1,0-.51,0,0,0a9.87,9.87,0,0,1,1.09,0c1.44.1,2.87.2,4.31.2a118.92,118.92,0,0,0,23.39-2.94c8.62-1.8,17.33-4.06,25.35-7.76l-3.51-2.69c-.37,2.22-1.64,4.23-2.52,6.27-1.12,2.62-2.07,5.4-1.77,8.29a2.46,2.46,0,0,0,2.39,2.38A2.4,2.4,0,0,0,627.2,609.76Z" fill="#797a7a"/><path d="M877.58,1081.86a179.44,179.44,0,0,0-1.67-18.82c-.46-2.91-1-5.77-1.35-8.7s-.44-6-.53-9c-.17-6-.15-12.06-.66-18.08a119.87,119.87,0,0,0-2.51-16.45c-2.83,1.67-5.69,5.09-8.74,4.32s-4.1-5.18-4-8.85.84-7.62-.7-10.75c-1.06-2.15-3-3.46-4.35-5.35-2.25-3.13-2.74-7.49-3.08-11.6s-.69-8.46-2.74-11.78-6.48-4.93-9.2-2.2l-3.61-.79c.06-4.56.08-9.35-1.74-13.33s-6.1-6.74-9.66-4.79c-2,1.07-3.28,3.32-4.14,5.64-2.51,6.77-1.72,14.5,0,21.48.65,2.66,1.48,5.38,3.17,7.29s4.48,2.73,6.5,1.2,2.71-5,4.83-6.45c2.64-1.82,6.1.58,7.25,3.84s.72,7,.55,10.53c-.62,13.61,3,27.31,10.09,37.89,2.82,4.21,6.26,8.19,7.3,13.44,1.26,6.37-1.31,13-1.14,19.59.3,11.28,8.63,19.94,17.46,24.19,1,.46,1.94.91,2.87,1.46Z" fill="#aaa"/><path d="M880.31,1081.86c-.25-4.68-.5-9.36-1-14s-1.56-9.14-2-13.74c-.92-9.25-.41-18.57-1.26-27.83a128.62,128.62,0,0,0-2.51-16.2,2.76,2.76,0,0,0-4-1.63c-1.94,1.18-3.74,3.2-5.84,3.93a1.6,1.6,0,0,1-.88.12c.06,0-.36-.2-.18,0a3.33,3.33,0,0,1-1.17-1.84c-1.56-4.78.75-10.15-1-15.07-.95-2.63-2.89-4.32-4.65-6.39a13.28,13.28,0,0,1-2.55-6.54c-.92-5.43-.5-11.05-3-16.12s-9.39-8.23-14.07-3.83l2.66-.7-3.62-.79,2,2.64c.09-7.08-.09-16.25-7.12-20.23a8.43,8.43,0,0,0-9.54.56c-3,2.32-4.46,6.27-5.22,9.85a36.52,36.52,0,0,0-.43,11.8,48.38,48.38,0,0,0,2.44,11.3c1.28,3.42,3.6,6.94,7.48,7.59s6.55-1.74,8.36-5a19.48,19.48,0,0,1,1.1-1.87,3.47,3.47,0,0,1,.75-.8,1,1,0,0,1,.85,0,4.82,4.82,0,0,1,1.21.89c2.21,2.35,1.66,6.55,1.5,9.49a71.93,71.93,0,0,0,2.27,23,64.41,64.41,0,0,0,9.46,20c1.94,2.76,4.07,5.56,5.13,8.8,1.17,3.56.8,7.31.27,11-.58,4-1.3,8-.83,12a27.84,27.84,0,0,0,3.06,9.86,34.49,34.49,0,0,0,13.76,13.6c1.54.86,3.18,1.54,4.71,2.42a2.76,2.76,0,0,0,4.11-2.36l-.21-3.92a2.79,2.79,0,0,0-2.73-2.73,2.75,2.75,0,0,0-2.73,2.73l.21,3.92,4.11-2.36c-2.78-1.59-5.67-2.8-8.28-4.69a28.7,28.7,0,0,1-6-5.82,23.51,23.51,0,0,1-3.86-7.49,24.56,24.56,0,0,1-.61-9.88c.43-3.8,1.29-7.57,1.24-11.42A22.43,22.43,0,0,0,859,1033.8c-1.59-3-3.71-5.61-5.56-8.42a55.18,55.18,0,0,1-4.71-8.81A62,62,0,0,1,844,996.23c-.22-3.55,0-7.06.13-10.6s-.1-7.52-2.3-10.49c-1.89-2.54-5.09-4.4-8.3-3.37s-4.15,4.25-6,6.75a1.57,1.57,0,0,1-1.73.78,4.42,4.42,0,0,1-2.64-2.5c-1.51-2.83-2.06-6.39-2.56-9.52a32.55,32.55,0,0,1,0-11.85c.53-2.51,1.69-6.9,4.42-7.6a3.84,3.84,0,0,1,3,.91,8,8,0,0,1,2.4,3.24c1.54,3.68,1.36,7.92,1.31,11.82a2.75,2.75,0,0,0,2,2.63c1.2.26,2.39.57,3.6.79a3.07,3.07,0,0,0,2.67-.7,2.5,2.5,0,0,1,1-.54s.51-.06.16,0c0,0,.92,0,.48,0a4.08,4.08,0,0,1,1.42.47c2.13,1.18,3,3.72,3.51,6.09.62,2.89.67,5.86,1,8.78a25,25,0,0,0,2.39,9,16.86,16.86,0,0,0,2.74,3.61,11.63,11.63,0,0,1,2.42,3c1.16,2.58.51,5.82.36,8.54a17.48,17.48,0,0,0,1.32,8.18,6.91,6.91,0,0,0,7.37,4.24c3.21-.51,5.45-3.07,8.1-4.69l-4-1.63a138.24,138.24,0,0,1,2.93,27.44c.1,4.49.14,9,.5,13.47s1.37,9.13,2,13.72c.67,5.2,1,10.46,1.23,15.7a2.79,2.79,0,0,0,2.73,2.73A2.75,2.75,0,0,0,880.31,1081.86Z" fill="#aaa"/><path d="M884.19,1141.06c-.57-4.81-.83-9.59-1.12-14.41a30.89,30.89,0,0,0-1.05-7.17l0,0c-1.9,1.43-4.6,1.63-6,3.78-1.19,1.85-.91,4.42-.46,6.63,2.06,10.12,6.4,19.16,10.78,28.21C885.66,1152.38,884.87,1146.72,884.19,1141.06Z" fill="#aaa"/><path d="M886.92,1141.06c-.44-3.83-.71-7.68-.95-11.52-.21-3.59-.22-7.38-1.33-10.83-.5-1.55-2.5-2.7-4-1.64-1.31.93-2.87,1.34-4.24,2.16a7.85,7.85,0,0,0-3.6,4.67c-1.07,3.9.44,8.47,1.52,12.22,2.35,8.1,6,15.74,9.68,23.31,1.14,2.35,5.41,1.31,5.09-1.38-.68-5.67-1.47-11.33-2.15-17a2.82,2.82,0,0,0-2.73-2.74,2.76,2.76,0,0,0-2.73,2.74c.68,5.66,1.46,11.32,2.15,17l5.09-1.38a150.9,150.9,0,0,1-8.6-20.26c-.57-1.81-1.08-3.64-1.51-5.49a16.54,16.54,0,0,1-.67-4.73c.17-2.82,3.5-3,5.46-4.4l-4-1.63c1,3.16,1,6.58,1.17,9.86.23,3.68.49,7.37.92,11a2.81,2.81,0,0,0,2.73,2.73C885.54,1143.79,887.1,1142.53,886.92,1141.06Z" fill="#aaa"/><path d="M502.89,580.65c-.51,4.52-6.72,14.23-11,15.85-1.42.54-2.93.82-4.31,1.46-4.24,2-6.25,6.74-7.9,11.12-.84,2.24-1.7,4.62-1.26,7,.39,2.11,1.76,3.88,2.73,5.79s1.49,4.37.24,6.12c-2.07,2.9-6.58,1.38-10.1,2s-6.45,3.58-10,3.6c-1.55,0-3.4-.44-4.41.73-.83,1-.51,2.43-.71,3.69-.61,3.83-5.87,5.1-7.44,8.66-1,2.18-.29,4.71.66,6.89s2.2,4.29,2.45,6.65-.91,5.11-3.22,5.67c-3.13.77-5.54-2.65-7-5.55q-3.17-6.37-6.5-12.66c-.57-1.09-1.72-2.35-2.77-1.73a2.32,2.32,0,0,0-.84,1.28c-3.22,9.06-3.86,19-7.8,27.72a3.56,3.56,0,0,1-1.5,1.91c-1.79.83-3.44-1.41-4-3.3a36,36,0,0,1,2-26.11c-2.63-1.44-6,.23-7.8,2.65s-2.47,5.44-3.76,8.15a20.5,20.5,0,0,1-8.14,8.86c-2.74,1.61-6.14,2.85-7.32,5.8-.77,1.92-.37,4.07-.07,6.12A56.23,56.23,0,0,1,389,709.38c1.52.94,3.61.25,4.86-1a15.5,15.5,0,0,0,2.61-4.65,35.07,35.07,0,0,1,21.82-19,3.71,3.71,0,0,1,2.89,0c1.19.71,1.28,2.36,1.22,3.74l-.71,17.83c-.07,1.55.37,3.65,1.92,3.65.88,0,1.55-.78,2-1.53,2.37-3.85,2.68-8.57,2.83-13.08s.21-9.2,2.2-13.26,6.53-7.26,10.9-6.14c1.58.41,3,1.33,4.57,1.74s3.56.13,4.35-1.3a8.45,8.45,0,0,0,.58-2.56c.51-2.64,2.76-4.66,5.23-5.71a33.55,33.55,0,0,1,7.84-1.78,61.7,61.7,0,0,0,11.42-3.06,5,5,0,0,0,1.9-1.07,4.23,4.23,0,0,0,.95-3c.05-4.53-2.52-9.09-1.1-13.39,2.25-6.84,12.18-7.32,16.68-12.93,3.93-4.91,3-12.93,8-16.8,1.69-1.31,3.81-1.9,5.7-2.89,4.85-2.53,15.68-14.95,14.65-17.35-2.66-6.19-14.85-8-19.38-15.18" fill="#797a7a"/><path d="M500.81,580.65c0-.37-.07.27-.1.38s-.11.45-.18.68a15.79,15.79,0,0,1-.58,1.63,29.64,29.64,0,0,1-2,3.74,26.08,26.08,0,0,1-5.12,6.38,6.89,6.89,0,0,1-3,1.53,15.79,15.79,0,0,0-5.1,2.26c-2.8,2.09-4.52,5.14-5.87,8.31-1.48,3.49-3.22,7.38-2.4,11.25a19.46,19.46,0,0,0,2.42,5.21c.68,1.2,1.63,3,1,4.41-.46,1-1.66,1.24-2.68,1.29-1.53.08-3.07-.07-4.6,0a13.88,13.88,0,0,0-5.28,1.39,33.79,33.79,0,0,1-4.58,2.1c-1.58.46-3.18,0-4.78.28a4.32,4.32,0,0,0-3.66,3.45c-.26,1.32.08,2.73-.75,3.88a12.84,12.84,0,0,1-2.73,2.47c-2.61,2-4.79,4.4-4.67,8a15.21,15.21,0,0,0,1.57,5.7,19.47,19.47,0,0,1,2,5.22,3.78,3.78,0,0,1-1,3.34c-1,.75-2,.17-2.77-.54a13.84,13.84,0,0,1-2.74-4.17c-1-2-2-3.95-3-5.91s-2-3.94-3.06-5.88c-.86-1.6-2.21-3.36-4.22-3.35s-3.05,1.86-3.65,3.6c-.65,1.92-1.2,3.88-1.69,5.85-1,4-1.78,8.08-2.81,12.09-.5,2-1.06,3.91-1.74,5.81-.32.89-.65,1.77-1,2.63a6.11,6.11,0,0,0-.59,1.17c-.05.25-.06,0,.13.13-1.24-.78-1.55-2.54-1.88-3.86a31.45,31.45,0,0,1-.9-5.63A34.39,34.39,0,0,1,420,653.8a32.88,32.88,0,0,1,2-5.36,2.12,2.12,0,0,0-.74-2.85c-4.91-2.45-9.82,1.21-11.94,5.6-1.16,2.41-1.86,5-3.2,7.35A18.71,18.71,0,0,1,401.4,664c-3.64,2.82-9.08,4-10.45,9-.75,2.72.05,5.55.33,8.28a56.77,56.77,0,0,1,.22,8.55,53.9,53.9,0,0,1-4.32,18.58,2.13,2.13,0,0,0,.74,2.85,6.2,6.2,0,0,0,7.12-1.11c1.94-1.77,2.69-4.38,3.84-6.66a33.34,33.34,0,0,1,8.75-10.81,32.53,32.53,0,0,1,5.8-3.76,30.34,30.34,0,0,1,2.91-1.3,12.27,12.27,0,0,1,3.3-1c.73,0,.63.42.66,1.11.05,1.5-.1,3-.16,4.53l-.37,9.17c-.1,2.51-.67,5.5.24,7.91s3.55,3.61,5.78,2c2.08-1.49,3.11-4.56,3.71-6.93a39.81,39.81,0,0,0,1-8.15c.19-5-.11-10.9,3.17-15a8.62,8.62,0,0,1,5.32-3.32c2.52-.34,4.54,1.43,6.9,1.92s5.1-.12,6.38-2.33a12.55,12.55,0,0,0,.87-3.42,5.43,5.43,0,0,1,1.79-2.68c2-1.67,4.63-2.16,7.08-2.57a85.44,85.44,0,0,0,8.68-1.74c1.37-.37,2.73-.79,4.07-1.26a11.38,11.38,0,0,0,3.88-1.84c2-1.76,2-4.66,1.65-7.1-.56-4.19-2.94-9.29.52-12.83,2.58-2.64,6.41-3.82,9.56-5.6a16.54,16.54,0,0,0,7.9-9.33c1.27-3.58,1.61-8.23,4.54-10.95,1.75-1.63,4.24-2.13,6.27-3.31a23.91,23.91,0,0,0,3.57-2.7,59.44,59.44,0,0,0,7.57-8.05c1.62-2.06,4.12-4.86,4.23-7.65.11-3.15-3.69-5.78-6-7.24-3.28-2-6.87-3.57-10-5.82a13.75,13.75,0,0,1-3.69-3.72c-1.45-2.24-5.06-.16-3.6,2.11,2.17,3.36,5.49,5.61,8.93,7.52,3,1.69,6.49,3.09,9,5.55a5.57,5.57,0,0,1,1.1,1.38c.08.12.17.44.28.52s-.11-.36-.07-.13c-.1-.54-.07-.45,0-.27,0,.35.14-.46,0-.11s-.13.41-.2.61.23-.47,0,0l-.17.33c-.31.6-.67,1.17-1,1.74a51.81,51.81,0,0,1-6.51,7.75,23.72,23.72,0,0,1-7.7,5.66,14,14,0,0,0-5.92,4.13,18,18,0,0,0-2.74,5.66c-1.16,3.69-1.72,7.87-4.71,10.61-2.68,2.45-6.32,3.62-9.43,5.39-3.43,1.94-6.34,4.73-6.94,8.8-.4,2.77.28,5.5.86,8.2.31,1.46,1.43,5-.27,5.94a21.22,21.22,0,0,1-3.66,1.3c-1.43.45-2.88.84-4.34,1.19-2.77.65-5.59,1-8.37,1.54-5,1.05-9.42,3.89-10.25,9.22-.13.84-.16,1.32-1.06,1.47a5.89,5.89,0,0,1-3.15-.84,11.07,11.07,0,0,0-7.39-1c-4.81,1.19-8.18,5.43-9.6,10-1.61,5.2-1,10.72-1.61,16.07a17.76,17.76,0,0,1-2,7,6,6,0,0,0-.45.7c0,.29-.13-.07,0,.16,0,0,.65.14.49.28,0,0-.14-.18-.15-.28a18.26,18.26,0,0,1-.1-3.55l.35-8.92a63.87,63.87,0,0,0,.25-8.41c-.25-2.6-1.88-4.71-4.68-4.63-2.27,0-4.68,1.21-6.73,2.11a36.84,36.84,0,0,0-11.35,8A40.23,40.23,0,0,0,394,704.17c-.56,1.23-2.05,4.43-4,3.41l.75,2.85a59,59,0,0,0,4.39-31.57c-.31-2.22-.91-4.73.79-6.53,1.38-1.46,3.4-2.25,5.12-3.22a22.63,22.63,0,0,0,9.53-10.25c1.15-2.54,1.8-5.56,3.58-7.77,1.07-1.33,3.19-2.78,4.95-1.9l-.75-2.85a38.52,38.52,0,0,0-3,24.58c.67,3.17,2.1,8.3,6.26,8.13,2.19-.1,3.38-1.92,4.16-3.73a54.57,54.57,0,0,0,2.24-6.2c1.22-4.11,2-8.33,3-12.5.49-2.13,1-4.24,1.65-6.33.13-.43.26-.86.41-1.29,0-.15.54-1.22.46-1.37s-.74.08-.72.31a7.8,7.8,0,0,0,.72,1.16c2.22,4.14,4.27,8.37,6.43,12.55,1.53,3,4.08,6.4,7.79,6.37s6.15-3.71,6.15-7.21a14.44,14.44,0,0,0-1.62-5.87c-.79-1.75-1.82-3.54-2-5.5-.23-3.16,2.91-4.63,5-6.43a8.85,8.85,0,0,0,2.65-3.68,9.05,9.05,0,0,0,.37-2.43,4.24,4.24,0,0,1,.14-1.28c.48-.32,1.6,0,2.13,0a10.16,10.16,0,0,0,2.91-.27,26.52,26.52,0,0,0,5.24-2.29,10.31,10.31,0,0,1,4.73-1.17,38.94,38.94,0,0,0,4.83-.09,6.41,6.41,0,0,0,5.77-7.74c-.61-3.74-4.24-6.58-3.57-10.52a28.65,28.65,0,0,1,1.92-5.76,26,26,0,0,1,2.24-4.4,9.71,9.71,0,0,1,3.34-3.28c1.69-1,3.69-1.13,5.42-2,2.48-1.24,4.4-3.61,6-5.78a34.1,34.1,0,0,0,4.61-8.14,14.34,14.34,0,0,0,.9-3.52,2.1,2.1,0,0,0-2.08-2.09,2.13,2.13,0,0,0-2.08,2.09Z" fill="#797a7a"/><path d="M666.06,562.46a182.81,182.81,0,0,1,51.55.38,14.82,14.82,0,0,1,6,1.87c1.78,1.18,3.06,3.36,2.54,5.42-.48,1.88-2.23,4-.83,5.39a3.29,3.29,0,0,0,2.49.54l16.27-.91c3.66-.2,7.64-.31,10.58,1.87a12.83,12.83,0,0,0,2.54,1.82c3.81,1.6,8.15-3.77,11.81-1.85,3.06,1.59,2,6.26.09,9.1s-4.52,6.16-3.18,9.34c.54,1.28,1.69,2.34,1.83,3.72a4.57,4.57,0,0,1-.78,2.66c-1.81,3.16-4.7,5.52-7,8.31s-4.16,6.47-3.24,10c3.15,1.82,6.88-2.82,10.36-1.78,1.78.53,2.79,2.38,3.39,4.14a21.45,21.45,0,0,1-1.91,17.62c-2.57,4.29-6.86,8.91-4.84,13.49a13.67,13.67,0,0,0,2,2.9c9.09,11.3,10.75,27,9.07,41.37a68.72,68.72,0,0,1-5.19-31.29c.17-2.37.44-4.84-.48-7-1-2.42-3.34-4.06-4.62-6.36-2.12-3.81-1-8.59.74-12.61s4-8,4-12.36-3.43-9.13-7.75-8.55c-1.59.21-3.37,1.07-4.65.1a3.42,3.42,0,0,1-1.06-1.72,12.43,12.43,0,0,1,.59-9.26,12.27,12.27,0,0,0,1.46-3.45,6.65,6.65,0,0,0-.36-2.89c-1.92-6.23-7.15-11-13.07-13.79s-12.51-3.64-19-4.12c-11.28-.81-22.81-.4-33.56,3.11-3.69,1.2-7.29,2.77-11.1,3.51-9.38,1.84-25-2.48-32.49-8.46,10.45-8.88,10.81-12.09,17.3-19.76" fill="#797a7a"/><path d="M666.06,564.54A183.56,183.56,0,0,1,697,563q7.68.27,15.32,1.19a66.07,66.07,0,0,1,7.29,1.1c1.81.43,3.95,1.22,4.53,3.19.53,1.75-1.18,3.59-1.33,5.34a3.94,3.94,0,0,0,3.65,4.26c2.45.29,5.12-.17,7.58-.3l7.89-.44c3.89-.22,8.66-1,11.94,1.62,1.62,1.3,3.17,2.38,5.34,2.23a15.18,15.18,0,0,0,5.07-1.61c1-.47,2.47-1.23,3.59-.87s1.17,1.68,1,2.68c-.59,3.83-4.13,6.39-5.07,10.14a7.67,7.67,0,0,0,1.14,6.27c.44.7,1,1.3.68,2.15a9.41,9.41,0,0,1-1.73,2.77c-2.74,3.46-6.36,6.19-8.22,10.3a11.81,11.81,0,0,0-1.11,6.56,2.87,2.87,0,0,0,1.91,2.65,5.45,5.45,0,0,0,2.74.28,20.06,20.06,0,0,0,4.84-1.76c1.27-.52,2.57-.9,3.52.36a12,12,0,0,1,1.77,5.37,19.5,19.5,0,0,1-2.43,12.35c-1.11,1.9-2.45,3.67-3.57,5.57-2.22,3.79-3.17,8.1-.35,11.87a49.85,49.85,0,0,1,6.53,10.58c3.21,7.73,4.09,16.26,3.75,24.56-.09,2.14-.27,4.28-.51,6.41l4.09-.56A67.44,67.44,0,0,1,771.57,673q-.08-3.09.13-6.17a23.62,23.62,0,0,0-.1-6.34,11.37,11.37,0,0,0-2.58-4.9,18.3,18.3,0,0,1-2.94-3.91c-1.47-3.3-.18-7.31,1.16-10.43,1.6-3.75,3.54-7.37,4-11.49a11.91,11.91,0,0,0-3.1-9.49,8.73,8.73,0,0,0-4-2.46c-1.85-.48-3.43,0-5.25.3-.54.08-.72.12-1-.27a6.45,6.45,0,0,1-.62-2.6,10.47,10.47,0,0,1,.89-5.38c.86-1.81,1.91-3.44,1.77-5.54a15.31,15.31,0,0,0-1.62-5.34c-3.14-6.62-9.57-11.1-16.3-13.5-7.88-2.81-16.7-3.28-25-3.35A81.77,81.77,0,0,0,692,585.4c-4,1.26-7.89,3-12,3.78a30.07,30.07,0,0,1-8.63,0,49.08,49.08,0,0,1-18.3-5.87,26.08,26.08,0,0,1-3.26-2.13v2.94a69.58,69.58,0,0,0,10.22-10.44c2.39-3.09,4.57-6.33,7.09-9.32,1.71-2-1.22-5-2.95-2.94-2.61,3.09-4.87,6.43-7.33,9.64a68.13,68.13,0,0,1-10,10.12,2.07,2.07,0,0,0,0,2.94c5,3.93,11.06,6.35,17.16,7.88s12.89,2.34,19.17.71c4.06-1.06,7.91-2.78,11.95-3.91a70.71,70.71,0,0,1,12.43-2.22,103,103,0,0,1,25.06.77c7.27,1.17,14.51,3.72,19.44,9.42a19,19,0,0,1,2.74,4.24c.65,1.37,1.43,3.17.86,4.67-.67,1.8-1.74,3.32-2.15,5.24a15.25,15.25,0,0,0-.11,5.83c.31,1.8,1,3.88,2.62,4.86s3.54.52,5.36.15c2.75-.55,4.79,1.86,5.53,4.28,1.06,3.51-.61,7.27-2,10.43-1.6,3.56-3.22,7.1-3.48,11a12.36,12.36,0,0,0,.83,5.45,17,17,0,0,0,3.18,4.63,8.22,8.22,0,0,1,2.31,4.3,33.45,33.45,0,0,1-.18,6,70.44,70.44,0,0,0,3.21,24.68c.62,2,1.34,3.89,2.13,5.79a2.09,2.09,0,0,0,4.09-.55c1.5-13.13.37-27.43-6.82-38.87a44.33,44.33,0,0,0-2.86-4c-1-1.19-1.93-2.35-1.92-4,0-3.13,2.6-6.06,4.22-8.55a23.87,23.87,0,0,0,3.1-20.19c-1-3.33-3.36-6.6-7.28-6.17a15.7,15.7,0,0,0-4.59,1.57c-.84.38-2.09,1-3,.6l1,1.25c-1.27-5.42,4.47-9.65,7.53-13.22,1.78-2.08,4-4.81,3.52-7.73a11.46,11.46,0,0,0-1.7-3.54,3.54,3.54,0,0,1-.08-3.14c.89-2.36,2.8-4.15,3.84-6.43a10.29,10.29,0,0,0,1-6.71,5.61,5.61,0,0,0-4.58-4.2c-2.29-.35-4.37.64-6.41,1.55-1.71.76-3.18,1.41-4.77.16a13.93,13.93,0,0,0-7.41-3.18,49.67,49.67,0,0,0-8.27.11l-9.86.55c-1.48.08-3,.07-4.46.22-.21,0-.45-.19-.29.07s.08.12.13,0c.26-.57.42-1.2.67-1.78a7,7,0,0,0-.75-7.36c-1.78-2.36-4.6-3.39-7.42-3.89-3.16-.56-6.37-.93-9.56-1.27a182.94,182.94,0,0,0-43.81.61,2.15,2.15,0,0,0-2.08,2.08c0,1,.95,2.23,2.08,2.08Z" fill="#797a7a"/><path d="M870.65,1000.63c-6-.48-11,4.18-12.82,11.1.58,1.66,2.58,1.82,4,1.15s2.74-1.89,4.27-2.18c2.32-.42,4.52,1.55,5.5,4s1,5.31.92,8.06c-.08,3-.28,6.09-1.56,8.71-2.23,4.55-7.27,6.64-9.11,11.42-2.06,5.36.79,11.28,3.55,16l6.06,10.5c.4.69.86,1.43,1.55,1.62,1.49.39,2.47-1.83,3.79-2.78C877.71,1067.66,871.46,1003.62,870.65,1000.63Z" fill="#797a7a"/><path d="M870.65,998.38a13.18,13.18,0,0,0-10.16,4,17.48,17.48,0,0,0-3.33,4.75A22.86,22.86,0,0,0,856,1010a3.62,3.62,0,0,0,.53,3.85,5.21,5.21,0,0,0,5.53,1.35,12.36,12.36,0,0,0,2.72-1.42c.71-.44,1.52-1.07,2.39-.85,1.73.43,2.51,2.63,2.85,4.16a27.25,27.25,0,0,1,.25,6.93,15.61,15.61,0,0,1-1.37,6.61,17,17,0,0,1-3.56,4.24c-3.21,3.09-5.94,6.22-6.35,10.85-.43,4.81,1.8,9.54,4.09,13.62,1.33,2.35,2.7,4.68,4.05,7l1.82,3.15a11.19,11.19,0,0,0,2,2.84c1.88,1.67,4.23.95,5.8-.71.77-.83,2-1.74,2.34-2.87a8.43,8.43,0,0,0,.11-2.51c-.12-3.38-.41-6.76-.68-10.13-.86-10.73-1.87-21.44-2.94-32.15-.77-7.74-1.34-15.58-2.57-23.27,0-.24-.07-.47-.13-.71-.74-2.81-5.1-1.61-4.36,1.21a15.15,15.15,0,0,1,.27,1.64c-.14-.9,0,0,0,.18s.07.56.11.84c.07.64.15,1.28.23,1.92.42,3.64.8,7.29,1.18,10.94q1.47,14.29,2.76,28.62c.62,7,1.38,14.06,1.6,21.1,0,.36,0,.72,0,1.08,0,.12,0,.24,0,.36,0,.46.08-.43.05-.33s.26-.56.21-.46l.33-.44a4.14,4.14,0,0,0-.45.38c-.25.23-1.59,1.43-1.59,1.72,0,.75-.16-.13,0,.09h.49c.22-.06.13.21.16,0s-.23-.38-.28-.44c-.61-1-1.19-2.06-1.78-3.09-2.23-3.86-4.69-7.67-6.55-11.72-1.54-3.34-2.65-7.48-.75-10.91,1.63-2.94,4.64-4.83,6.72-7.43,2.67-3.35,3.44-7.27,3.61-11.47.17-4,.28-8.66-2.19-12.07a7.85,7.85,0,0,0-4.55-3.24c-2.11-.45-4,.39-5.73,1.49a4.84,4.84,0,0,1-1.9,1c-.52,0-.45,0-.62-.4l.23,1.74c1.39-5,4.94-9.81,10.64-9.44C873.55,1003.08,873.54,998.57,870.65,998.38Z" fill="#797a7a"/><path d="M315.69,980.17l10.52,3.43a2.41,2.41,0,0,0,2.94-2.94c-2.47-10.19-3.8-20.59-5.82-30.86l-1.1,2.7c.82-.51,2.79,2.23,3.32,2.82l4.61,5.06,9.22,10.13c1.47,1.62,4,.27,4.08-1.69.44-8.61,4.64-16.45,10.69-22.45l-3.76-.49a91,91,0,0,1,10.84,24.62c.71,2.63,4.64,2,4.7-.64.23-10.47,5.81-19.77,13.61-26.47l-4-1a101.3,101.3,0,0,1,4.82,15c.39,1.65,2.85,2.45,4,1.06l21.77-26.36-4-1.06A50.12,50.12,0,0,1,405,955.78c-.34,2.24,2.13,4.12,4,2.32l4.61-4.43c2.22-2.14-1.17-5.52-3.39-3.38l-4.6,4.43,4,2.33a54.94,54.94,0,0,0-2.85-27.33c-.56-1.52-2.74-2.57-4-1.06L381,955l4,1.05a101.38,101.38,0,0,0-4.81-15,2.43,2.43,0,0,0-4-1c-8.75,7.51-14.75,18.17-15,29.85l4.7-.64a95.35,95.35,0,0,0-11.32-25.75,2.42,2.42,0,0,0-3.75-.48c-7,6.91-11.59,16-12.1,25.83l4.09-1.69-10.87-11.94a74.9,74.9,0,0,0-5.13-5.55c-2-1.78-4.5-2.78-6.95-1.27a2.48,2.48,0,0,0-1.1,2.7c2,10.27,3.36,20.67,5.83,30.86l2.94-2.94L317,975.56c-2.94-1-4.19,3.66-1.27,4.61Z" fill="#797a7a"/><path d="M798.36,905.54c1.25-2.25,1.37-5.85-.65-7.11s-5,.21-6.05-2a4.82,4.82,0,0,1-.26-2.4,35.89,35.89,0,0,0,.35-6c-.17-2-1-4.1-2.6-4.89-2.79-1.41-5.6,1.76-8.51,2.8a6.21,6.21,0,0,1-4.56-.22c.75,13.87,3.08,27.57,4.17,41.42,2.19.42,4.35,2.92,5.81,5,1.64,2.4,4.25,4.81,6.61,3.49,1.5-.84,2.21-3,2.18-4.91a22.37,22.37,0,0,0-1.18-5.66c-1.24-4.4-1.84-9.5.25-13.42C795.14,909.37,797.12,907.79,798.36,905.54Z" fill="#797a7a"/><path d="M800.31,906.68c1.68-3.22,2-8.35-1.71-10.34a7.14,7.14,0,0,0-2.87-.71c-.58,0-1.61.08-2-.2.06.05.12.22,0,0s-.06-1.06,0-1.44c.08-1.16.26-2.32.34-3.48.29-4.07-1.08-9.89-6.14-10-2.1-.07-4,1-5.7,2.09s-3.33,1.77-5.48.92a2.27,2.27,0,0,0-2.86,2.18c.77,13.86,3.07,27.58,4.17,41.42a2.33,2.33,0,0,0,1.66,2.17c3.09.75,4.5,4.64,6.63,6.65,2.51,2.37,6.42,3.46,9,.47s2-7,1-10.42c-.91-3.22-1.81-6.53-1.39-9.91.49-3.94,3.55-6.12,5.42-9.37,1.46-2.53-2.44-4.8-3.9-2.28a56.59,56.59,0,0,1-3.58,4.74,13.25,13.25,0,0,0-2.28,5.62c-.69,4.22.23,8.34,1.37,12.4.49,1.73,1.07,3.73.36,5.5-.57,1.43-1.45,1.2-2.51.33-1.57-1.3-2.53-3.21-3.87-4.71a10.25,10.25,0,0,0-5-3.37l1.66,2.18c-1.1-13.84-3.4-27.56-4.17-41.42l-2.86,2.18a8.42,8.42,0,0,0,6.09.09c1.73-.67,3.16-1.83,4.83-2.59,3.71-1.67,3.16,4.6,3,6.57s-.59,4.2.6,6c1,1.55,2.68,2,4.42,2.12.94.08,2.11-.12,2.48.77a4.65,4.65,0,0,1-.44,3.57C795.08,907,799,909.26,800.31,906.68Z" fill="#797a7a"/><path d="M680.89,703.16c-5.41-22.8-18.94-43.22-37.08-56L648,668.94a82.58,82.58,0,0,1-36.66-3c-5.32-1.68-10.6-3.92-16.13-4.14-5.26-.22-10.42,1.42-15.42,3.2a241.14,241.14,0,0,0-43.13,20.46c4.58,5.17,12.19,4.21,18.69,3.27a158.41,158.41,0,0,1,62.57,3.49c7.78,2,15.6,4.73,22.07,9.9,5.27,4.23,9.64,10.07,15.73,12.63a5.61,5.61,0,0,0,4.43.36c1.72-.78,2.61-2.86,4.12-4,2.71-2.12,6.42-.88,9.76-.79s7.48-2.9,6.07-6.21" fill="#797a7a"/><path d="M682.92,702.6A100,100,0,0,0,656.43,655a91.2,91.2,0,0,0-11.56-9.66c-1.64-1.16-3.4.74-3.09,2.37l4.16,21.75,1.47-2.58a79.54,79.54,0,0,1-23.16-.11,82.79,82.79,0,0,1-11-2.47c-3.73-1.1-7.36-2.55-11.14-3.53a30.1,30.1,0,0,0-11.53-.85,54.42,54.42,0,0,0-10.92,2.88c-7.14,2.53-14.17,5.42-21,8.61a243.48,243.48,0,0,0-23,12.22,2.13,2.13,0,0,0-.42,3.3c3.29,3.6,8.07,4.71,12.79,4.62,5.32-.1,10.61-1.27,15.91-1.74a155.44,155.44,0,0,1,53.89,4.53A67.18,67.18,0,0,1,633,700.05c4.73,2.58,8.42,6.18,12.32,9.83a45.36,45.36,0,0,0,5.93,4.86c2.11,1.39,4.71,2.81,7.3,2.81,3.14,0,4.53-2.25,6.45-4.28s5-1.21,7.46-1a9.9,9.9,0,0,0,7.19-1.8c2.15-1.63,3.47-4.29,2.47-7a2.16,2.16,0,0,0-2.59-1.47,2.12,2.12,0,0,0-1.47,2.58c.58,1.53-.72,2.6-2,3.16-2,.87-4.41.13-6.52,0a9.26,9.26,0,0,0-6.84,1.92c-1.34,1.15-2.44,3.89-4.51,3.62s-4.35-1.85-6-3.13a58.4,58.4,0,0,1-5.26-4.68,55.92,55.92,0,0,0-11.9-9.21,70,70,0,0,0-14.62-5.6,156,156,0,0,0-16.85-3.64,161.3,161.3,0,0,0-34.36-1.8c-6.06.34-12,1.33-18.05,1.92-4.56.45-9.59.43-12.91-3.19l-.43,3.3a238.92,238.92,0,0,1,40.89-19.62,69.38,69.38,0,0,1,11.17-3.37,25.47,25.47,0,0,1,10.78.44c3.62.9,7.11,2.27,10.68,3.37a83.2,83.2,0,0,0,11.46,2.67,86.23,86.23,0,0,0,25.86.18c1.18-.17,1.66-1.59,1.47-2.58l-4.17-21.76L642.75,649a91.83,91.83,0,0,1,31.48,40.25,100.19,100.19,0,0,1,4.64,14.46c.63,2.63,4.68,1.51,4-1.12Z" fill="#797a7a"/><path d="M710.28,732.65q-9.27-6.18-19-11.64c-1.12-.63-2.48-1.26-3.64-.7a3.35,3.35,0,0,0-1.54,2.32c-1.27,5.29,2.54,10.28,5.71,14.7,12.89,18,18.24,40.15,22.35,61.88a752.26,752.26,0,0,1,11.06,84.06,4.76,4.76,0,0,0,1,3.14c1.81,1.78,4.75-.21,6.29-2.21,6.38-8.27,10-18.28,13.22-28.23,5.35-16.73,9.66-34.58,5.89-51.74a76.25,76.25,0,0,0-9.73-23.05c-3.3-5.44-7.11-10.69-9-16.78-1.62-5.3-1.66-10.94-2.35-16.44a70.29,70.29,0,0,0-9-26.57c-.81-1.4-2.22-3-3.73-2.4-1.82.7-1.3,3.33-1.32,5.28a6.6,6.6,0,0,1-5.78,6.3" fill="#797a7a"/><path d="M711.29,730.92c-6-4-12.23-7.86-18.57-11.41-1.47-.82-3.07-1.66-4.81-1.35a4.69,4.69,0,0,0-3.52,3.24c-1,2.8-.48,6,.63,8.7a42.88,42.88,0,0,0,5.06,8.25,89,89,0,0,1,5.29,8.31,111,111,0,0,1,7.86,17.48c4.44,12.48,7.14,25.49,9.55,38.49q4.05,21.92,6.81,44Q721,857.88,722,869.1q.5,5.37.93,10.75c.23,3-.14,7.28,3.06,8.82,2.8,1.35,5.93-.68,7.72-2.78a49.37,49.37,0,0,0,5.36-8.12,108.76,108.76,0,0,0,7.64-18.36c4.46-13.44,8.38-27.47,8.33-41.74a64.52,64.52,0,0,0-3.3-20.44,88.87,88.87,0,0,0-9-18.54c-3.46-5.56-7.14-11-8.54-17.5a92.1,92.1,0,0,1-1.29-10.47,82.19,82.19,0,0,0-1.62-10.35A72.57,72.57,0,0,0,724,721.55c-1.38-2.5-3.83-5.89-7.14-4.29-2.64,1.27-2.33,4.27-2.32,6.72a4.62,4.62,0,0,1-3.77,4.58,2.08,2.08,0,0,0-2,2,2,2,0,0,0,2,2,8.75,8.75,0,0,0,6.7-4.34,8.55,8.55,0,0,0,1.08-3.62c.07-1.15-.13-2.31,0-3.46,0-.11.19-.38,0-.3a9.09,9.09,0,0,1,.78.77,23,23,0,0,1,2.24,3.92,66.74,66.74,0,0,1,3.67,8.57,78.17,78.17,0,0,1,3.8,18.91,70.58,70.58,0,0,0,1.43,10.13,37.66,37.66,0,0,0,3.37,8.61c2.93,5.59,6.69,10.69,9.6,16.29a67.36,67.36,0,0,1,6.5,18.09c2.57,13.25.22,26.93-3.33,39.77-1.73,6.27-3.68,12.51-6,18.6a74.81,74.81,0,0,1-8.35,16.56,15.6,15.6,0,0,1-2.47,3c-.47.4-1.56,1.31-2.21.89s-.52-3-.57-3.68c-.14-1.87-.3-3.75-.45-5.62q-.9-10.5-2.08-21-2.35-20.85-5.85-41.56c-2.17-12.79-4.47-25.61-7.88-38.13-3.24-11.88-7.62-23.59-14.17-34.06-1.62-2.59-3.44-5-5.16-7.53-1.56-2.29-3.22-4.85-3.58-7.66-.11-.91-.25-2.76.46-3.48s3.09,1.13,3.75,1.51q4.43,2.52,8.76,5.21t8.38,5.38c2.16,1.44,4.17-2,2-3.47Z" fill="#797a7a"/><path d="M654.65,760.32a17.29,17.29,0,0,0-13.85,4.8c-4.6,4.54-6.51,11.57-11.86,15.19-2.48,1.67-5.5,2.45-7.85,4.3-4.66,3.65-5.47,10.4-4.86,16.29s2.26,11.84,1.1,17.65c-.8,4-2.92,8.13-1.47,12,.85,2.27,2.82,3.92,4.76,5.38a106,106,0,0,0,52,20.69c6.43.7,13.42.67,18.74-3,7.19-5,8.89-14.7,10-23.38,1.29-10.31,2.5-21.27-1.88-30.7-4.18-9-12.77-15.11-21-20.75L654.21,762" fill="#797a7a"/><path d="M654.65,758.31a19.31,19.31,0,0,0-13.77,4.08c-3.45,2.72-5.54,6.62-7.85,10.27a23.13,23.13,0,0,1-3.85,4.9c-1.72,1.59-3.89,2.44-6,3.45a15.11,15.11,0,0,0-8.33,9.86c-1.26,4.54-.84,9.22-.17,13.83a79.81,79.81,0,0,1,1,8.31,24.32,24.32,0,0,1-1,7.81c-.71,2.52-1.53,5.16-1.27,7.82a10.49,10.49,0,0,0,3.14,6.42,41.76,41.76,0,0,0,5.83,4.59q3.17,2.24,6.48,4.22A107.46,107.46,0,0,0,672,858.52c4.8.55,9.8.75,14.51-.54a19.46,19.46,0,0,0,10.9-7.71,32.43,32.43,0,0,0,4.68-11.93,133.34,133.34,0,0,0,2-14.09,66.13,66.13,0,0,0,0-15.72,33.41,33.41,0,0,0-5.21-14.18,47.67,47.67,0,0,0-9.55-10.15c-3.92-3.2-8.13-6-12.3-8.9l-14.63-10-7.21-5c-2.13-1.46-4.15,2-2,3.47,9,6.17,18,12.28,26.94,18.53,7.12,5,14.49,10.69,18,18.93,3.8,9,2.49,19.32,1.31,28.74-.93,7.41-2.14,16.47-8.41,21.43-3.44,2.72-7.92,3.5-12.2,3.52a70.43,70.43,0,0,1-13.65-1.49A104,104,0,0,1,625.65,837c-3.27-2.23-8.3-4.94-8.27-9.45,0-2.47,1-4.86,1.59-7.22a25.88,25.88,0,0,0,.74-7.59c-.23-4.95-1.57-9.8-1.65-14.76,0-3.6.49-7.71,2.93-10.55a15.26,15.26,0,0,1,5.36-3.51,21.87,21.87,0,0,0,5.54-3.44c3-2.73,4.92-6.46,7.11-9.85,2.29-3.55,5.16-6.46,9.29-7.74a15.93,15.93,0,0,1,6.36-.6,2,2,0,0,0,2-2,2.06,2.06,0,0,0-2-2Z" fill="#797a7a"/><path d="M583.08,836.1c.1,2.23.24,4.59,1.51,6.43s4.1,2.79,5.79,1.34c2.19-1.88,1-6.09,3.39-7.74,3.44.55,5.81,3.85,6.86,7.17s1.22,6.88,2.38,10.17c1.79,5,5.82,9,7.49,14.12s-.86,12.31-6.2,12.16c-3.2-.09-5.62-2.76-8.29-4.52s-7.11-2.17-8.33.79a11.28,11.28,0,0,0-.37,3.59c-.7,9-15.92,12.39-14.72,21.31.22,1.6,1,3.07,1.27,4.66.65,3.85-1.92,7.74-5.37,9.57s-7.57,2-11.44,1.46c-4.18-.54-8.74-2.16-10.52-6-1.63-3.5-.33-7.71,1.71-11a27.26,27.26,0,0,1,13.09-11c1.65-.65,3.42-1.18,4.68-2.43,2-1.94,2.08-5,2.11-7.74.08-7.83.31-15.73,2.31-23.29s6-14.85,12.24-19.5" fill="#797a7a"/><path d="M581.07,836.1c.11,2.47.29,5.14,1.68,7.28a6.82,6.82,0,0,0,5.81,3.2,5.39,5.39,0,0,0,4.86-3.88A20.82,20.82,0,0,0,594,840c.12-.6.23-1.72.76-2.12l-1.55.2c3.84.73,5.35,4.78,6.08,8.18.49,2.22.77,4.48,1.41,6.67a26.37,26.37,0,0,0,2.7,6c1.94,3.27,4.72,6.56,5.44,10.39.47,2.5-.1,5.83-2.12,7.57-2.63,2.26-5.75-.4-7.9-2-2.69-2.05-6-3.71-9.47-2.69a5.44,5.44,0,0,0-3.54,3.11c-.71,1.73-.28,3.65-.72,5.31-.6,2.25-2.4,4.08-4.16,5.66-3.77,3.39-9.29,6.59-10.27,12a10.23,10.23,0,0,0,.37,4.94c.6,1.94,1.22,3.61.54,5.62-1.24,3.67-5,5.57-8.67,6a20.55,20.55,0,0,1-11-1.63,7.41,7.41,0,0,1-3.56-3.34,7.58,7.58,0,0,1-.1-5.37c1.11-3.78,3.84-7.09,6.78-9.63a25.94,25.94,0,0,1,4.81-3.23c1.78-.92,3.74-1.46,5.51-2.39,3.93-2.06,4.71-6.22,4.78-10.29.08-4.76.14-9.52.64-14.26.88-8.26,3.27-16.83,8.79-23.24a26.55,26.55,0,0,1,4.14-3.93,2.08,2.08,0,0,0,.72-2.75,2,2,0,0,0-2.75-.72c-7.83,5.89-12.2,15-14,24.43a100.73,100.73,0,0,0-1.5,17c0,2.33.18,4.84-.39,7.12s-2.17,3.16-4.25,4a30.24,30.24,0,0,0-11.73,7.82c-3.17,3.49-6,8.06-6,12.94.07,10.45,13.7,12.94,21.74,11.15,4.58-1,8.74-4.23,10.06-8.87a11.55,11.55,0,0,0-.51-7,6.27,6.27,0,0,1-.15-4.54c.91-2.34,3.46-4.38,5.53-6.09,2.52-2.09,5.15-4.14,7-6.9a10.81,10.81,0,0,0,1.73-4.21c.18-1.07.1-2.12.2-3.19a1.61,1.61,0,0,1,.94-1.54c3.46-1.43,7,2.93,9.57,4.4,3.59,2,7.89,1.67,10.55-1.65a13.06,13.06,0,0,0,2.22-11c-1.15-4.71-4.57-8.48-6.75-12.7-2.37-4.61-2-10-4.27-14.66-1.56-3.23-7.27-9.22-10.39-4.49-1.08,1.64-1,3.62-1.61,5.42-.49,1.47-1.81,1.5-2.94.54-1.54-1.31-1.52-3.95-1.6-5.79-.12-2.58-4.14-2.59-4,0Z" fill="#797a7a"/><path d="M609.35,900c-.58,2.93-.8,6.69,1.81,8.13a6,6,0,0,0,3,.57,19.11,19.11,0,0,0,13.3-5.63l-17.15-3.88" fill="#797a7a"/><path d="M607.42,899.45c-.44,2.27-.77,4.79,0,7,1,2.9,3.57,4.2,6.55,4.21a21.2,21.2,0,0,0,14.88-6.22,2,2,0,0,0-.88-3.36l-17.16-3.88c-2.52-.57-3.59,3.3-1.07,3.88L626.92,905l-.89-3.36a17.19,17.19,0,0,1-10.87,5,6,6,0,0,1-2.94-.24,1.8,1.8,0,0,1-.94-1.1,9.59,9.59,0,0,1,0-4.79,2.06,2.06,0,0,0-1.4-2.47,2,2,0,0,0-2.47,1.41Z" fill="#797a7a"/><path d="M556.32,945.08c-.86-3.31-3.74-7.54-6.63-5.7-1.45.92-1.7,2.89-2.46,4.44a6.73,6.73,0,0,1-10.12,1.86,31.26,31.26,0,0,0-1.27,18.42,23,23,0,0,1,18.47-.6c1.59-2.65-.79-6.74,1.41-8.91,1.62-1.61,4.62-.57,5.77,1.42s1,4.42.79,6.7a26.55,26.55,0,0,1,11.26,4.3c1.33-2.48,4.53-3.29,7.34-3.15s5.59,1,8.39.71c7.34-.68,11.79-8.1,15.8-14.29.89-1.37,1.94-2.81,3.52-3.23,3.22-.87,5.82,3.48,4.75,6.64s-4.16,5.11-7,6.86-5.88,3.85-6.69,7.09c-.54,2.15,0,4.41-.11,6.63s-1.38,4.73-3.59,4.91a11.54,11.54,0,0,0-22.69,2.08c-2.14-3.59-4.44-7.33-8.07-9.42s-9-1.8-11.22,1.74c-1.22,1.92-1.28,4.33-1.3,6.61,0,3,.4,6.66,3.17,7.74,1.42.55,3,.18,4.52.14,6.93-.17,12.3,7,12.44,14s-3.55,13.33-7.65,18.92a107.89,107.89,0,0,1-17.72,18.89c-2.13,1.79-4.49,3.75-4.91,6.5-.39,2.5,1,4.9,2.23,7.07,3.47,5.86,7,11.83,12.26,16.2s12.5,6.89,19,4.73c6.62-2.21,10.93-8.81,12.78-15.54s1.75-13.84,2.56-20.78c1.1-9.46,4.17-19.15,11.07-25.72a33,33,0,0,1,19.87-8.49c6.17-.55,14.08-.68,16.26-6.47,1.8-4.77-2-9.74-5.94-13a64.57,64.57,0,0,0-12.63-8.25c-5.69-2.82-13-6.92-11.66-13.13.86-4,5.35-6.25,9.4-6s7.73,2.29,11.24,4.32l9.23,5.32c3.8,2.2,9.91,3.69,11.51-.39.85-2.17-.39-4.56-1.69-6.49a64.3,64.3,0,0,0-23.56-21c-2.18-1.13-4.9-2.11-6.95-.77-3.25,2.13-2.69,8.74-6.57,8.91-.77-3.46-1.63-7.09-4-9.7s-6.88-3.66-9.48-1.25c-2.37,2.2-2.12,5.92-2.18,9.15s-1.3,7.19-4.5,7.65a16.4,16.4,0,0,0-8.4-14.47,4.37,4.37,0,0,0-2.67-.7c-2.18.32-2.92,3.05-3.17,5.24l-1.57,13.62c-3.1-2.75-4.1-7.22-6.83-10.35s-9.22-3.57-10,.52" fill="#797a7a"/><path d="M558.25,944.55a11.87,11.87,0,0,0-4.31-6.72A4.89,4.89,0,0,0,547,939.3c-1.26,1.88-1.22,4.32-3.47,5.41a4.7,4.7,0,0,1-5-.45,2,2,0,0,0-3.36.89,33.65,33.65,0,0,0-1.26,19.48,2,2,0,0,0,3,1.2,21.33,21.33,0,0,1,16.91-.4,2,2,0,0,0,2.27-.92,8.9,8.9,0,0,0,.79-5.14c-.06-.87-.51-2.81.38-3.42s2.1.37,2.54,1.07c1,1.6.67,3.93.52,5.69a2,2,0,0,0,1.47,1.94,25.82,25.82,0,0,1,10.78,4.09,2,2,0,0,0,2.75-.72c1.21-2.06,3.93-2.28,6.08-2.12,3.32.24,6.48,1.12,9.82.4,5.26-1.13,9-5.4,12-9.58,1.52-2.13,2.75-4.55,4.41-6.57.57-.68,1.43-1.54,2.38-1.07a3.15,3.15,0,0,1,1.37,1.82c.8,2.33-1,4.33-2.71,5.69-2.16,1.73-4.69,2.92-6.85,4.66a10.86,10.86,0,0,0-4.41,8.73c0,2,1.08,6.85-2,7.27l2.47,1.4c-1.68-6.12-7.93-10.75-14.34-10.09a14,14,0,0,0-12.3,12.7l3.75-1c-3.64-6.09-8.61-12.81-16.64-11.57a8.67,8.67,0,0,0-7.18,6.36,20.91,20.91,0,0,0-.52,5.79,15.18,15.18,0,0,0,.71,4.78,6.92,6.92,0,0,0,3,3.85c1.82,1,3.78.7,5.75.63a9.48,9.48,0,0,1,7.77,4c4.75,6.1,2.77,14-.74,20.14-4.14,7.29-9.95,13.82-16,19.59q-2.26,2.16-4.65,4.19a27.51,27.51,0,0,0-4.09,3.91,8.72,8.72,0,0,0-2,5.32,12.79,12.79,0,0,0,2,6.23c3.92,7,8.38,14.24,15,19,6.22,4.5,14.68,6.36,21.74,2.7,6.51-3.37,10.33-10.49,11.92-17.4,1.92-8.32,1.37-17,3.17-25.31,1.57-7.27,4.63-14.39,10.3-19.41a28.47,28.47,0,0,1,9.84-5.55A44.6,44.6,0,0,1,625,1005.6c6-.51,13.92-1.55,15.69-8.47,2.11-8.29-6.9-14.86-12.81-18.78-3.24-2.15-6.73-3.77-10.11-5.66-2.58-1.44-5.47-3.16-7-5.81a4.9,4.9,0,0,1,1.86-6.68c3.08-1.92,6.71-1.37,9.91,0,4,1.68,7.69,4.16,11.42,6.31,3,1.74,6,3.59,9.46,4.1,3,.44,6.23-.15,7.77-3,2.07-3.85-.69-7.87-2.93-10.91a67,67,0,0,0-16.89-16.18c-3.08-2-6.7-4.57-10.44-5.11-3.54-.51-6.09,1.47-7.45,4.59-.49,1.13-.85,2.34-1.39,3.44a7.46,7.46,0,0,1-.62,1.05c-.23.26-.35.35-.61.37l1.94,1.48c-.87-3.91-1.94-8.25-5-11.06-2.69-2.46-6.86-3.6-10.24-1.91-3.7,1.86-4.3,6.16-4.35,9.86,0,2.44.13,7-3,7.55l2.54,1.94a18.32,18.32,0,0,0-3.19-10.51c-2-2.84-5.24-6.16-8.83-6.63-4.12-.55-5.77,3.55-6.2,6.89-.6,4.64-1.07,9.3-1.61,13.94l3.43-1.42c-3.8-3.51-4.42-9.77-9.33-12.24-3.72-1.87-9.74-1.64-10.82,3.29-.55,2.53,3.32,3.6,3.87,1.07.24-1.1,1-1.45,2.17-1.48a5.82,5.82,0,0,1,4,1.37c1.53,1.35,2.42,3.45,3.35,5.22a20.15,20.15,0,0,0,4,5.61,2,2,0,0,0,3.43-1.42l1.29-11.19c.13-1.19.14-6.14,2.28-5.6,2.43.61,4.72,3.22,6,5.25a14.43,14.43,0,0,1,2.23,7.85,2,2,0,0,0,2.55,1.94c3.27-.6,5.1-3.77,5.67-6.81s-.34-6.6,1.06-9.4c1.32-2.65,4.75-2.12,6.74-.55,2.77,2.2,3.51,6.26,4.23,9.51a2,2,0,0,0,1.94,1.47c2.91-.23,4.31-2.33,5.31-4.83.78-1.91,1.37-4.94,3.93-4.71a12.32,12.32,0,0,1,4.7,1.89q2.41,1.34,4.71,2.88A60.8,60.8,0,0,1,638,951c1.85,1.79,13.55,13.56,8.75,15.55-2.16.9-5.18-.36-7.09-1.37-3.75-2-7.36-4.28-11.07-6.37-3.42-1.93-7.1-3.71-11.1-3.85a12.07,12.07,0,0,0-8.85,3.38,8.74,8.74,0,0,0-2.13,8.79c1,3,3.31,5.16,5.78,6.94a76.17,76.17,0,0,0,8.59,4.83A61,61,0,0,1,631,985.62c2.56,2.13,5.59,5.08,5.95,8.6.28,2.76-1.5,4.83-3.92,5.84-2.65,1.12-5.67,1.33-8.5,1.56a48.3,48.3,0,0,0-10.41,1.74,32.5,32.5,0,0,0-17.51,12.74c-4.11,6-6.14,13.3-7.11,20.48-1.07,8-.62,16.45-3.47,24.16-2.18,5.9-6.85,11.71-13.52,12.32-7.52.7-14.09-4-18.65-9.54a72.92,72.92,0,0,1-6.37-9.47c-1.83-3-4.47-6.6-1.71-9.89a31.45,31.45,0,0,1,4-3.61q2.29-2,4.48-4.06a107.34,107.34,0,0,0,8.24-8.82c5-5.93,10.12-12.61,11.81-20.31,1.49-6.76-.29-14.12-5.91-18.51a13,13,0,0,0-9.22-2.71c-1.42.11-2.82.28-3.62-1.1a8.33,8.33,0,0,1-.8-3.88c-.09-2.83-.2-6.7,2.82-8.08,2.57-1.18,5.64-.38,7.81,1.24,2.72,2,4.5,5.1,6.21,8a2,2,0,0,0,3.74-1A9.53,9.53,0,0,1,594,979.72a2.08,2.08,0,0,0,2.48,1.4c3.12-.43,4.78-3.69,5-6.53.17-1.85-.27-3.71-.08-5.56a6.3,6.3,0,0,1,2.07-3.95c2.25-2.19,5.23-3.48,7.69-5.42s4.54-4.61,4.39-7.77c-.14-2.8-1.77-5.75-4.53-6.69-3.4-1.15-6,1.47-7.72,4.07-3,4.53-6.06,10.31-11.32,12.56-3.76,1.61-7.61.09-11.48,0-3.38-.07-6.95,1.1-8.74,4.15l2.75-.72a28.75,28.75,0,0,0-11.74-4.5l1.48,1.94c.22-2.64.31-5.52-1.15-7.85a6.48,6.48,0,0,0-5.85-3,5,5,0,0,0-4.46,4.4,15.67,15.67,0,0,0,0,3.49,5.11,5.11,0,0,1-.27,2.77l2.27-.92a25.23,25.23,0,0,0-20,.8l2.95,1.2A29.86,29.86,0,0,1,539,946.22l-3.35.88a8.82,8.82,0,0,0,12.33-.87,10.55,10.55,0,0,0,1.68-3.18c.23-.62.55-2,1.37-2.1.65-.08,1.37.83,1.72,1.29a9.9,9.9,0,0,1,1.59,3.38c.68,2.49,4.56,1.43,3.87-1.07Z" fill="#797a7a"/><path d="M520.36,951.75l.5,14.41c.1,2.75.75,6.22,3.44,6.82s4.81-2.23,7.46-2.83,5.38,1.24,6.7,3.63,1.53,5.21,1.73,7.93l.59,8.23a2.47,2.47,0,0,1-.15,1.32c-.48,1-1.87.89-2.84.47s-1.95-1.11-3-.93c-1.37.22-2.07,1.71-2.51,3-.91,2.72-1.72,5.66-3.83,7.6s-6.08,2.15-7.47-.36c-1.09-2-.06-4.46,1.32-6.24s3.17-3.37,3.81-5.54c.73-2.45-.21-5.13-1.66-7.25s-3.36-3.87-4.94-5.89a22.76,22.76,0,0,1-2.82-22.65,11.5,11.5,0,0,1,3.31-4.6" fill="#797a7a"/><path d="M518.35,951.75l.3,8.7c.09,2.53,0,5.1.36,7.61a9.21,9.21,0,0,0,2.26,5.46,5.52,5.52,0,0,0,5.78,1.18c1.81-.65,3.42-2.36,5.34-2.63s3.73,1.45,4.53,3.1c1,2.16,1.12,4.68,1.29,7,.11,1.45.21,2.9.31,4.36a36.83,36.83,0,0,0,.29,3.86c.11,0,.4-.49.44-.4s-.31,0-.37,0a10.52,10.52,0,0,0-1.18-.52,5.23,5.23,0,0,0-3.75-.53c-2.29.71-3.17,3-3.86,5.1s-1.26,4.21-2.78,5.69a3.69,3.69,0,0,1-3.91,1c-1.69-.83-.54-3.14.19-4.24,1.31-2,3.14-3.45,4.08-5.65,2.12-4.93-1-9.61-4.21-13.18a27.1,27.1,0,0,1-4.63-6.43,20.09,20.09,0,0,1-1.86-7c-.39-4.71.57-10.77,4.45-13.91a2,2,0,0,0,0-2.85,2.06,2.06,0,0,0-2.84,0c-3.93,3.19-5.49,9-5.69,13.87a24.77,24.77,0,0,0,3.77,14.24,62.34,62.34,0,0,0,5.08,6.17c1.48,1.78,3,4.18,2.53,6.61s-2.74,4-4,5.9c-1.43,2.07-2.27,4.82-1.25,7.24,1.85,4.38,7.78,4.15,10.89,1.34,1.91-1.73,2.91-4.23,3.73-6.61a16.59,16.59,0,0,1,1.06-2.91c.56-1,1.25-.24,2.11.14,2.15,1,5.21.71,5.91-2a12.53,12.53,0,0,0-.07-4l-.34-4.85c-.37-5.15-.92-11.44-6.3-13.9-2.7-1.23-5.28-.69-7.75.77-1.36.81-3.47,2.55-4.56.51s-.83-5-.91-7.37l-.38-10.93c-.09-2.58-4.11-2.59-4,0Z" fill="#797a7a"/><path d="M714.76,1068.85c-6.8,19.74-21.28,35.84-30.5,54.58-4.09,8.33-7.22,17.3-13.11,24.47-7.56,9.2-19,14.5-30.6,17.16a8.33,8.33,0,0,1-4.34.18,6.67,6.67,0,0,1-3.64-3.39c-2.75-5.09-1.81-11.52.91-16.61s7-9.15,11.15-13.18q20.68-20,39.39-42c8.88-10.43,17.5-21.33,22.93-33.9-8.62,0-16.45,4.7-24.73,7.13a47.92,47.92,0,0,1-39.17-5.77c-8.93-5.83-16.88-15-27.55-15.09a11.31,11.31,0,0,0-7.55,2.46c-2.09,1.85-3.1,4.62-3.74,7.33-1.93,8.07-1.56,17.06-6.37,23.82-5.52,7.77-16.31,10.23-22.23,17.71-.35.43-.67.88-1,1.34-1.28,3.77-2.29,7.8-1.88,11.62.55,5.15,5.26,4.89,9.3,3.7a31.19,31.19,0,0,0,11-6.15c3.05-2.45,6.28-4.36,10.28-4.65a38,38,0,0,1,7.45.58,18.62,18.62,0,0,0,7-.49c5.33-1.32,10.28-3.93,15.83-4.23a1.68,1.68,0,0,1,1.64,1.16c.91,2.59-.66,5.59-1.87,7.8a92.58,92.58,0,0,1-6.57,10c-2,2.85-4.17,5.67-6.06,8.63a53.16,53.16,0,0,0-3.66,7.74c-2.1,4.92-5.6,13.77-12.22,13.48-3.25-.14-6.19-2.75-7.77-5.43-1.22-2.09-2.46-6.61-5.79-5.21-2.69,1.13-4.37,5.43-5.64,7.8-1.53,2.85-2.92,6.13-5.26,8.43a1.67,1.67,0,0,1-2.62-.25c-1.14-2-1.16-4.3-1.67-6.54-.18-.77-.38-2-1.33-2.09-1.15-.17-1.83,1.5-2.3,2.31a13.15,13.15,0,0,1-3.15,3.78c-.19,10.79,3,71.94,2.86,82.73,0,1.06,83.76-.1,105.62-3.4,4.86-8.15,4.56-63.6,7.19-72.71,2.07-7.16,3.43-14.58,6.58-21.34,3.76-8.06,9.86-14.74,15-22a108.55,108.55,0,0,0,19.91-65.9C719.55,1050.38,717.74,1060.19,714.76,1068.85Z" fill="#797a7a"/><path d="M712.82,1068.31c-5.57,16-16.16,29.57-24.76,44-2.15,3.6-4.18,7.28-6,11.06s-3.48,7.7-5.32,11.51c-3.6,7.44-8.11,14.12-14.94,18.95a60.76,60.76,0,0,1-21.59,9.24c-1.94.45-3.68.68-5.08-1a10.54,10.54,0,0,1-2.08-5.14,18.23,18.23,0,0,1,2.59-11.45,46.59,46.59,0,0,1,8.08-9.74c3.32-3.27,6.67-6.5,10-9.8q9.9-10,19.35-20.36c6.19-6.83,12.28-13.77,18.07-20.94a134.42,134.42,0,0,0,14.72-21.54c1-1.94,2-3.93,2.87-5.95a2,2,0,0,0-1.74-3c-8.86,0-16.58,4.57-24.85,7.08a45.67,45.67,0,0,1-24.41.5,45.07,45.07,0,0,1-11.34-4.54,82.84,82.84,0,0,1-9.44-6.67c-6-4.67-12.41-9.55-20.29-10.06-3.93-.26-8.26.77-10.92,3.86s-3.55,7.36-4.21,11.33c-1.26,7.55-1.59,15.95-7.37,21.65-5.12,5.07-12.19,7.57-17.5,12.44a16.3,16.3,0,0,0-3.82,4.58A25.44,25.44,0,0,0,571,1101c-.57,3.56-1,8.34,2.28,10.78,2.51,1.89,6,1.45,8.86.67a31.78,31.78,0,0,0,10.73-5.57c3.09-2.36,6.19-4.87,10.22-5.27a32.82,32.82,0,0,1,7.2.51,21,21,0,0,0,7.07-.29c4.38-.9,8.45-2.88,12.81-3.87,1-.22,2-.31,3-.48.24,0,.49.12.32-.07s-.1-.11-.07,0a4.27,4.27,0,0,1,.07,1.47,15.58,15.58,0,0,1-2.28,5.3,120.77,120.77,0,0,1-7.81,11.48c-1.41,1.94-2.82,3.89-4.11,5.9a39.39,39.39,0,0,0-3.08,6.12,81.23,81.23,0,0,1-3.87,8.49c-1.26,2.24-2.94,4.86-5.49,5.75-3.32,1.15-6.5-1.54-8.06-4.26-1.34-2.35-2.27-5.51-5.24-6.25-3.63-.89-6.32,2.72-7.83,5.46-1.74,3.18-3.12,6.6-5.16,9.61a10.8,10.8,0,0,1-.76,1c-.17.21-.35.39-.52.59l-.14.14c-.18.16-.19.19,0,.07,0,0,.4.05.3.13l.13.1a4.53,4.53,0,0,1-.27-.54,9.35,9.35,0,0,1-.47-1.56c-.42-1.81-.45-3.78-1.21-5.49a3.2,3.2,0,0,0-4.74-1.48c-1.43.94-2,2.77-3,4.1s-2.5,2.05-2.55,3.81c0,.57,0,1.13,0,1.69,0,1.57,0,3.13.09,4.69.12,4.5.29,9,.47,13.48.44,11.43,1,22.86,1.42,34.29.37,8.75.81,17.52.89,26.28,0,1.49-.26,3.34,1.51,3.91a7.05,7.05,0,0,0,1.72.22c2.28.16,4.58.16,6.87.18,8.91.07,17.81-.06,26.71-.23q17-.32,34-1c9.75-.39,19.5-.83,29.21-1.7,1.74-.16,3.47-.33,5.2-.54.85-.11,1.72-.18,2.56-.34a2.6,2.6,0,0,0,2-1.74c1.42-3.17,1.82-6.81,2.27-10.22,1.4-10.62,1.82-21.37,2.37-32.06.27-5.34.53-10.69.86-16,.13-2.21.28-4.41.47-6.61.08-.93.16-1.85.26-2.78,0-.38.09-.76.13-1.15,0-.2.05-.41.08-.61s0,.32,0-.19a45.59,45.59,0,0,1,1.15-5c1.2-4.41,2.21-8.86,3.65-13.2,2.84-8.6,8.18-15.59,13.61-22.69a117.06,117.06,0,0,0,13.52-22,111.67,111.67,0,0,0,8.08-24.75,110,110,0,0,0,2.11-24.89,2,2,0,0,0-3.43-1.42c-7.37,6.42-9.25,16.48-12.27,25.3-.84,2.46,3,3.51,3.88,1.07,2.78-8.15,4.42-17.59,11.23-23.53l-3.43-1.42a106.61,106.61,0,0,1-10.28,49,121.25,121.25,0,0,1-13.55,21.53c-2.62,3.41-5.26,6.82-7.56,10.46a55.4,55.4,0,0,0-5.65,11.89c-1.43,4.25-2.45,8.63-3.6,13a50.55,50.55,0,0,0-1.3,5.37c-.57,3.81-.83,7.66-1.08,11.5-.69,10.78-1.08,21.58-1.78,32.36-.33,5.07-.7,10.14-1.3,15.19-.22,1.8-.45,3.51-.83,5.52a26.75,26.75,0,0,1-1.06,4.21c0,.12-.09.24-.14.37-.11.32.23-.44,0,0-.1.2-.2.42-.32.62l1.2-.93-.66.1-.42.06c.51-.07.16,0,0,0-.57.08-1.13.15-1.7.21-1.22.14-2.44.26-3.66.38-3,.27-6,.49-8.93.69-7.25.48-14.52.82-21.78,1.11q-23.07.9-46.15,1.12c-5.31.05-10.62.09-15.93,0-1.49,0-3,0-4.48-.13l-.65,0c-.67,0,.41.12,0,0s-.08-.07.26.14c.56.33.88,2.27,1,1.33,0-.2,0-.42,0-.62,0-12.91-.82-25.86-1.37-38.76-.57-13.54-1.35-27.1-1.5-40.66,0-.77,0-1.54,0-2.32l-.59,1.42a15.27,15.27,0,0,0,3-3.48c.29-.45.54-.91.79-1.37a3.41,3.41,0,0,0,.45-.74c.06-.35-1.11-.41-1.12-.32a8.45,8.45,0,0,0,.44,1.87c.13.69.23,1.39.35,2.08.3,1.64.74,3.66,2,4.87a3.71,3.71,0,0,0,4.26.54,10,10,0,0,0,3.2-3.53,73.3,73.3,0,0,0,4.21-7.81c.78-1.57,2-4.87,4.07-5.22,0,0,.38.05.17,0s.32.17.36.2a4.81,4.81,0,0,1,.47.58,23.32,23.32,0,0,1,1.63,3.09c2.61,5.07,8.54,8.74,14.11,6.11,4.35-2.06,6.79-7,8.64-11.14,1.14-2.58,2.12-5.25,3.38-7.79a67.74,67.74,0,0,1,6.26-9.44c2.08-2.87,4.19-5.73,6.07-8.74,1.73-2.78,3.72-6,4-9.3a5.74,5.74,0,0,0-1.12-4.25c-1.3-1.44-3.07-1.24-4.81-1a54.36,54.36,0,0,0-10.07,2.81c-3.52,1.19-7,2.13-10.73,1.7-3.5-.4-6.89-1-10.37-.13-6.28,1.55-10.4,7-16.22,9.47-2.07.89-4.74,1.84-7,1.58s-2.51-2.5-2.46-4.61a23.47,23.47,0,0,1,.82-5.33,10.66,10.66,0,0,1,2-4.54,28.36,28.36,0,0,1,6.11-5.19c4.71-3.12,9.93-5.65,13.87-9.79,4.41-4.64,6-10.72,7-16.88.51-3.21.89-6.44,1.61-9.61.68-2.93,1.68-6.08,4.48-7.62,5-2.76,11.55-.22,16,2.48,5.15,3.11,9.59,7.23,14.55,10.62a49.17,49.17,0,0,0,17.75,7.49,50.77,50.77,0,0,0,19.5.17c6.66-1.25,12.69-4.33,19.1-6.4a31.49,31.49,0,0,1,9.51-1.72l-1.73-3c-7.43,17.06-20.36,31.25-32.65,45q-9.77,10.9-20.06,21.33-5.13,5.19-10.39,10.27a63.65,63.65,0,0,0-8.93,10.12,24.46,24.46,0,0,0-4.26,12.34c-.18,4,1,8.84,4.14,11.54,3.6,3.07,8.47,1.31,12.5.13a68.65,68.65,0,0,0,11.57-4.51,47.34,47.34,0,0,0,18.75-16.55c4.8-7.45,7.71-15.93,11.86-23.74,8.24-15.49,19.57-29.23,26.52-45.43.88-2,1.7-4.11,2.43-6.22C717.55,1066.93,713.67,1065.88,712.82,1068.31Z" fill="#797a7a"/><path d="M711.69,939.12c-1.2,5.51,2.55,10.78,3.73,16.3.91,4.28.27,8.73.48,13.1a4.88,4.88,0,0,0,1.09,3.32,3.46,3.46,0,0,0,4.43-.07,8,8,0,0,0,2.39-4.12c3.2-10.75-2-23.39-11.91-28.71" fill="#797a7a"/><path d="M709.75,938.58c-1.23,6.28,2.46,11.47,3.73,17.38.7,3.26.39,6.66.37,10,0,2.81-.14,6.44,2.67,8.05,2.57,1.48,5.75.24,7.42-2s2.26-5.06,2.61-7.73a27.58,27.58,0,0,0-2.33-14.66,26.56,26.56,0,0,0-11.31-12.41c-2.27-1.24-4.3,2.23-2,3.47a23.52,23.52,0,0,1,11.85,20,21,21,0,0,1-.76,6.11c-.34,1.21-1.38,4.48-3.29,3.78-.69-.25-.72-1.24-.76-1.86-.09-1.47-.06-3,0-4.41a45.34,45.34,0,0,0-.36-8.48,44.53,44.53,0,0,0-2.58-8.09c-.94-2.56-1.87-5.31-1.32-8.07.49-2.53-3.38-3.61-3.88-1.07Z" fill="#797a7a"/><path d="M572.38,861l-3.66,21.47a7.66,7.66,0,0,1-1.12,3.35c-1.26,1.71-3.72,2.13-5.08,3.76-3.6,4.27,3.16,11.94-.71,16-1.5,1.57-4,1.67-6.11,1.2s-4.17-1.4-6.34-1.5c-2.17,2.26-2,6.15-.14,8.65a10.41,10.41,0,0,0,8.29,3.72c4.16,0,8.48-2.16,10.19-5.95,2-4.47.24-10.21,3-14.26.86-1.24,2.08-2.19,3-3.34,3.59-4.26,3.32-10.45,2.85-16-.53-6.28-1.31-13.14-5.79-17.57" fill="#c6c6c6"/><path d="M570.44,860.49l-3.36,19.76a17.23,17.23,0,0,1-.81,3.9c-.48,1.09-1.68,1.57-2.66,2.13a7.37,7.37,0,0,0-4.05,5.09,14.67,14.67,0,0,0,.55,6c.42,1.69,1.08,3.5.92,5.27-.44,5-8.92.53-11.67.64s-3.65,4.35-3.6,6.42a9.46,9.46,0,0,0,3,6.76c3.91,3.59,9.88,4,14.61,1.93a12.21,12.21,0,0,0,5.52-4.73,16.24,16.24,0,0,0,1.9-7.5c.16-2.4.06-5.08,1.32-7.22a16.92,16.92,0,0,1,2.49-2.8,13.59,13.59,0,0,0,2.41-3.41c2.61-5.38,1.93-11.72,1.31-17.48s-1.86-11.81-6.11-16.13c-1.82-1.85-4.66,1-2.84,2.84,3.64,3.7,4.53,9.1,5,14.06s1.38,11-1.29,15.51c-1.4,2.38-3.84,3.85-5,6.44s-1.16,5.16-1.33,7.8c-.15,2.42-.4,5-2.11,6.86a9.65,9.65,0,0,1-5.79,2.93,9.07,9.07,0,0,1-7.56-2.2c-1.7-1.69-2.31-4.75-.6-6.65l-1.42.59c2.36.17,4.55,1.28,6.89,1.61a8.39,8.39,0,0,0,6.25-1.27c3-2.28,2.78-6,2-9.34-.54-2.28-2.16-6-.06-7.77,1.54-1.3,3.49-1.78,4.75-3.46,1.46-2,1.58-4.64,2-7l3.15-18.54a2.07,2.07,0,0,0-1.4-2.48,2,2,0,0,0-2.47,1.41Z" fill="#c6c6c6"/><path d="M611.77,880.58a34.94,34.94,0,0,1-18.9-1.93c-.64,1.25.3,2.73,1.3,3.71,3.43,3.35,8.25,5.28,10.87,9.29,2.33,3.55,2.62,8.33,5.59,11.36a14,14,0,0,0,5.11,3c3.07,1.18,6.67,2,9.54.36,3.21-1.79,4.3-5.8,5-9.4.75-3.86,1.39-7.88.33-11.66-1.65-5.87-7-9.85-11.92-13.38l-7.08-5a2.18,2.18,0,0,0-.91-.46c-1-.13-1.6.94-1.82,1.88a9.39,9.39,0,0,0,1.58,7.68c1.12,1.49,2.8,3.14,2.13,4.88" fill="#c6c6c6"/><path d="M611.23,878.64a33.42,33.42,0,0,1-17.83-1.93,2.05,2.05,0,0,0-2.47,1.4c-1.65,4.21,3.9,7.53,6.72,9.5A30.41,30.41,0,0,1,602,891a13.19,13.19,0,0,1,2.85,4.7c1.43,3.78,2.56,7.57,6,10s8.26,4,12.33,3.39,6.73-3.82,8-7.6a37.29,37.29,0,0,0,1.38-5.91,30.7,30.7,0,0,0,.56-7.34c-.66-8.93-7.88-14.17-14.6-18.94L615.18,867a25.88,25.88,0,0,0-3.14-2.18c-2.38-1.18-4.51.73-5.1,3a11.23,11.23,0,0,0,.67,7.25,13.83,13.83,0,0,0,1.9,3c.48.61,1.39,1.5,1.14,2.31-.74,2.49,3.14,3.55,3.88,1.07,1.12-3.76-2.84-5.91-3.67-9.22a7.13,7.13,0,0,1-.19-2.48c0-.34.15-.67.19-1a3,3,0,0,0,.11-.29l.07-.12-.73.16c0,.28,2.2,1.55,2.45,1.73l2.56,1.81c5.19,3.68,11.85,7.68,13.47,14.31.92,3.74.1,7.85-.74,11.54-.6,2.66-1.57,6-4.41,7.08-3.08,1.14-7.11-.43-9.79-2-2.93-1.7-3.86-4.74-5-7.75a17,17,0,0,0-6.54-9.12c-1.48-1.14-3-2.16-4.54-3.27-.92-.68-3.52-2.31-3-3.63l-2.47,1.41a37.57,37.57,0,0,0,20,1.93,2,2,0,0,0,1.4-2.48,2.05,2.05,0,0,0-2.47-1.4Z" fill="#c6c6c6"/><path d="M517.81,707.27c-22,13.89-35.55,38.14-43.63,62.89-12.63,38.68-14,80.14-12.09,120.78a4.71,4.71,0,0,0,.83,3c2,2.29,5.49-.71,6.77-3.46,8.49-18.29,8.23-39.21,10-59.3a282.17,282.17,0,0,1,11.06-57.36c2.82-9.3,6.21-18.63,12.18-26.3,7.19-9.26,17.84-15.73,23.59-26,1.82-3.24,3.1-7.14,1.85-10.64s-6-5.79-8.89-3.49" fill="#c6c6c6"/><path d="M516.79,705.54C494.84,719.45,481.35,743,473.11,767c-9.76,28.47-13.23,58.79-13.69,88.77-.12,7.66,0,15.32.18,23,.11,3.75.26,7.49.43,11.23.08,1.72.1,3.49,1.15,4.94a4.25,4.25,0,0,0,3.73,1.79c3.07-.21,5.5-3.05,6.7-5.66a75.51,75.51,0,0,0,3.75-10,119.62,119.62,0,0,0,4-21.15c1.67-14.79,1.94-29.68,4.09-44.43a273.26,273.26,0,0,1,10.35-44.91,77.9,77.9,0,0,1,8.53-18.9c3.62-5.51,8.51-9.94,13.29-14.43s9.4-9,12.58-14.7c3-5.4,4.39-13.58-2.13-17a7.24,7.24,0,0,0-7.66.16,2.06,2.06,0,0,0-.72,2.75,2,2,0,0,0,2.75.72c1.79-1.3,4.11-.35,5.37,1.3,1.75,2.3.94,5.74-.11,8.15-2.41,5.55-6.89,10.07-11.19,14.19s-9,8.2-12.82,13a66.14,66.14,0,0,0-9.6,17.57,195.88,195.88,0,0,0-6.33,20.55q-2.78,10.67-4.73,21.54c-2.53,14.15-3.6,28.38-4.64,42.69-1,13.56-2.37,27.53-7.92,40.11a10.45,10.45,0,0,1-2,3.35c-.35.35-1.36,1.35-1.91,1.15-.79-.3-.54-3.54-.57-4.13-.08-1.87-.16-3.74-.23-5.61-.26-7.19-.4-14.38-.37-21.57.09-28.77,2.81-57.72,11.05-85.37,6.91-23.18,18-46.37,37.18-61.9a77.18,77.18,0,0,1,7.2-5.14c2.18-1.38.17-4.86-2-3.47Z" fill="#c6c6c6"/><path d="M686,790c-.94-2.4-4.41-2.9-6.59-1.53s-3.29,3.94-4,6.41c-2.36,8.15-1.81,16.83-3,25.23-.2,1.5-.54,3.13-1.72,4.06a5.56,5.56,0,0,1-2.91.94c-13.34,1.52-27.24-5.54-39.91-1.12a6,6,0,0,0-3.27,2.2,6,6,0,0,0-.45,4,15.15,15.15,0,0,0,2.52,6.49,21.32,21.32,0,0,0,5.89,5.12c8.41,5.55,17.65,10,27.53,12s20.46,1.23,29.52-3.18a16.86,16.86,0,0,0,5.94-4.91c2.48-3,2.72-6.84,3.38-10.66,1.59-9.3,2.72-19,.12-28.09-2.3-8-7-16.3-15-18.71" fill="#c6c6c6"/><path d="M687.71,789c-1.47-3.3-5.83-4-8.82-2.53-3.63,1.74-5.07,6.1-5.93,9.72a83,83,0,0,0-1.71,14.06c-.14,2.36-.28,4.72-.51,7.07-.14,1.45,0,4.12-1.19,5.22a4.12,4.12,0,0,1-2.39.65c-1.14.11-2.28.15-3.42.15a55.58,55.58,0,0,1-6.45-.42c-4.32-.51-8.59-1.35-12.91-1.9a44.51,44.51,0,0,0-12.73,0c-3.85.62-8.89,1.95-9.54,6.47-.58,4.08,1.36,8.8,4.06,11.79s6.87,5.38,10.5,7.49a73,73,0,0,0,24.85,9.36c8.75,1.41,18,.9,26.25-2.45a21.8,21.8,0,0,0,9.79-7.22c2.51-3.37,2.81-7.74,3.48-11.74,1.53-9.16,2.57-18.71.09-27.8-1.9-7-5.5-14.12-11.66-18.26a19,19,0,0,0-4.89-2.3c-2.47-.77-3.53,3.1-1.06,3.88,6.17,1.93,10.11,7.75,12.34,13.53,3,7.63,3.14,15.66,2.2,23.71-.46,4-1,8-1.87,12a13.36,13.36,0,0,1-5.67,8.42,31.3,31.3,0,0,1-10.91,4.1,46,46,0,0,1-11.88.84,60.68,60.68,0,0,1-22.94-6.26,94.53,94.53,0,0,1-10.64-6c-3.14-2-6.13-4.25-7.36-8-.46-1.4-1.33-3.91-.43-5.29.8-1.23,3-1.61,4.3-1.93a34.51,34.51,0,0,1,11.38-.51c7.81.74,15.51,2.89,23.41,2.55,1.92-.09,4.07-.15,5.79-1.1a6.24,6.24,0,0,0,2.88-4.17c1-4,.94-8.4,1.2-12.52A70,70,0,0,1,677,796.75c.62-2.49,1.7-6.75,4.85-7a2.22,2.22,0,0,1,2.44,1.27,2,2,0,0,0,2.75.72,2.06,2.06,0,0,0,.72-2.75Z" fill="#c6c6c6"/><path d="M437.59,780c-1.94,11.55-7.31,22.19-11,33.29-7.91,23.47-8.45,48.92-5.14,73.46s10.36,48.41,17.38,72.16l10.76,36.42c.89,3,2.19,6.47,5.19,7.42,3.51,1.1,7.13-2.26,7.76-5.88s-.78-7.25-2.09-10.68c-23.09-60.45-21.68-127.54-12.67-191.61.69-4.87,1.27-10.34-1.74-14.23s-11-3.21-11.23,1.7" fill="#c6c6c6"/><path d="M435.66,779.49c-1.39,8-4.37,15.65-7.32,23.22a157.84,157.84,0,0,0-7.43,23.46c-3.54,16.22-4.11,33-2.73,49.51,1.44,17,4.91,33.82,9.19,50.34,4.38,16.86,9.5,33.52,14.44,50.22l3.75,12.7c1.09,3.7,1.91,7.69,3.65,11.16,1.44,2.86,4.18,5.2,7.56,4.85s6.32-3.23,7.4-6.49c1.29-3.85-.05-8.08-1.41-11.71-1.45-3.84-2.86-7.68-4.16-11.57q-3.81-11.5-6.58-23.32A313.9,313.9,0,0,1,444.78,904a418.91,418.91,0,0,1-.73-48.84c.66-16.33,2.12-32.62,4.14-48.84.49-3.94,1-7.87,1.57-11.81.49-3.57.91-7.26,0-10.81-.72-2.88-2.41-5.7-5.2-7a9.89,9.89,0,0,0-7.55-.33,6.4,6.4,0,0,0-4.27,5.62c-.22,2.58,3.8,2.56,4,0a2,2,0,0,1,1-1.52,4.51,4.51,0,0,1,2.39-.67,5.18,5.18,0,0,1,5,2.78c1.54,2.82,1.29,6.33,1,9.4-.41,3.72-1,7.42-1.48,11.13-2,15.45-3.5,31-4.3,46.52a435.44,435.44,0,0,0,0,46.83,336.82,336.82,0,0,0,5.64,46A271.88,271.88,0,0,0,458.55,987c1.22,3.2,3.08,7.35,1.62,10.77-.93,2.21-3.67,4.36-5.91,2.53s-2.84-5.68-3.62-8.32L447,979.72c-4.72-16-9.6-31.93-14-48-4.31-15.82-8.07-31.86-10-48.16-1.88-15.64-2.22-31.61.11-47.21a131.13,131.13,0,0,1,5.51-22.93c2.51-7.35,5.68-14.46,8.1-21.84a77.56,77.56,0,0,0,2.8-11,2.05,2.05,0,0,0-1.4-2.47,2,2,0,0,0-2.47,1.4Z" fill="#c6c6c6"/><path d="M582.37,684s-79.29.55-122.92,60-48.13,146.39-28.39,182.84,20.31,54.33,22.87,68.78,58,65,135.36,63.21S710,1019,713.23,1007.1s-.48-26,7.76-34.69,49.26-66.52,38.46-140.85S682.91,683.48,582.37,684Z" fill="none" stroke="#fdfdfd" stroke-linecap="round" stroke-linejoin="round" stroke-width="5.32"/><path d="M452.72,988.06s19.34-101.46,19.77-163c.4-59.18,21.78-155,177.76-129" fill="none" stroke="#fdfdfd" stroke-linecap="round" stroke-linejoin="round" stroke-width="2.66"/><path d="M685.27,714.47s59.63,59.6,61.21,107.47-37.28,94.23-47,115.48-92.88,77.67-110.17,121.38" fill="none" stroke="#fdfdfd" stroke-linecap="round" stroke-linejoin="round" stroke-width="2.66"/><path d="M732.61,818.94s11.12,4.39,13.77,10.82c0,0,7-1.41,10.78,1.87" fill="none" stroke="#fdfdfd" stroke-linecap="round" stroke-linejoin="round" stroke-width="3.99"/><path d="M732.23,834.07s8.71,2.38,11.18,15.09c0,0,8.18.62,12,3.9" fill="none" stroke="#fdfdfd" stroke-linecap="round" stroke-linejoin="round" stroke-width="3.99"/><path d="M728.84,853.93s7.7-1.67,10.17,11c0,0,8.28,3.52,12.08,6.79" fill="none" stroke="#fdfdfd" stroke-linecap="round" stroke-linejoin="round" stroke-width="3.99"/><path d="M721.22,868.4s8.23,4.07,10.25,13.41c0,0,7.46,5.89,11.27,9.17" fill="none" stroke="#fdfdfd" stroke-linecap="round" stroke-linejoin="round" stroke-width="3.99"/><path d="M714.36,884.92c1.23-.26,7.38,8.31,7.3,14.76,0,0,7.13,1.05,8.15,5.18" fill="none" stroke="#fdfdfd" stroke-linecap="round" stroke-linejoin="round" stroke-width="3.99"/><path d="M726.36,800.3s7.17-6.83,17.92,6.59c0,0,2.09-2.67,7.67-1.79" fill="none" stroke="#fdfdfd" stroke-linecap="round" stroke-linejoin="round" stroke-width="3.99"/><path d="M722.85,784.57s7.6-5.19,15.31,4.6c0,0,2.67-3.95,6.39-3.37" fill="none" stroke="#fdfdfd" stroke-linecap="round" stroke-linejoin="round" stroke-width="3.99"/><path d="M717,766.63s3.17-4.67,12.49,5.4a6.11,6.11,0,0,1,5.71-3.59" fill="none" stroke="#fdfdfd" stroke-linecap="round" stroke-linejoin="round" stroke-width="3.99"/><path d="M706.74,751.36s2.61-3.36,10.68,1.9l4.21-5.64" fill="none" stroke="#fdfdfd" stroke-linecap="round" stroke-linejoin="round" stroke-width="3.99"/><path d="M694.78,735.3s7.29-.7,11.53,3.16l2.84-4.42" fill="none" stroke="#fdfdfd" stroke-linecap="round" stroke-linejoin="round" stroke-width="3.99"/><path d="M679.68,721.17s9.21-4.22,17.94,4" fill="none" stroke="#fdfdfd" stroke-linecap="round" stroke-linejoin="round" stroke-width="3.99"/><path d="M662.27,712.83s11.58-5.82,17.29-2.09" fill="none" stroke="#fdfdfd" stroke-linecap="round" stroke-linejoin="round" stroke-width="3.99"/><path d="M707.1,900.72s4.27,11.94,3.21,17.77c0,0,6.06-.12,8.23,3.47" fill="none" stroke="#fdfdfd" stroke-linecap="round" stroke-linejoin="round" stroke-width="2.66"/><path d="M700.05,915.89s3.75,8.29,3.35,14.06c0,0,6,4.66,6.06,7.85" fill="none" stroke="#fdfdfd" stroke-linecap="round" stroke-linejoin="round" stroke-width="2.66"/><path d="M692.23,931.29s3.14,8.3,2.93,12.68c0,0,7.76,3.42,8.39,8.66" fill="none" stroke="#fdfdfd" stroke-linecap="round" stroke-linejoin="round" stroke-width="2.66"/><path d="M679.69,943s2.45,11.87.55,16.55c0,0,8.93.65,10.42,4.15" fill="none" stroke="#fdfdfd" stroke-linecap="round" stroke-linejoin="round" stroke-width="2.66"/><path d="M664.59,954.9a31.77,31.77,0,0,1,3,16.23,12.53,12.53,0,0,1,10.81,3.15" fill="none" stroke="#fdfdfd" stroke-linecap="round" stroke-linejoin="round" stroke-width="2.66"/><path d="M650.18,965.71c2.58,1.36,4.06,4.33,5,6.95a20.49,20.49,0,0,1,1.62,7.27,1.52,1.52,0,0,0,1.5,1.5,15.87,15.87,0,0,1,9.79,3.52,1.53,1.53,0,0,0,2.11,0,1.49,1.49,0,0,0,0-2.11,19.19,19.19,0,0,0-11.9-4.41l1.49,1.5a22.8,22.8,0,0,0-1.89-8.51c-1.26-3.19-3.09-6.63-6.25-8.3-1.7-.89-3.21,1.69-1.51,2.59Z" fill="#fdfdfd"/><path d="M634.86,980.55a19.22,19.22,0,0,1,6.43,15.25,1.49,1.49,0,0,0,1.49,1.49A27.73,27.73,0,0,1,655.6,999c1.8.7,2.58-2.19.8-2.88a29.57,29.57,0,0,0-13.62-1.86l1.5,1.5A22.08,22.08,0,0,0,637,978.44c-1.43-1.28-3.56.83-2.11,2.11Z" fill="#fdfdfd"/><path d="M621.27,992.4a19.49,19.49,0,0,1,7.45,14.26,2,2,0,0,0,2,2,23,23,0,0,1,12.66,3c2.23,1.28,4.24-2.17,2-3.45a26.89,26.89,0,0,0-14.67-3.55l2,2a23.33,23.33,0,0,0-8.62-17.08,2.06,2.06,0,0,0-2.82,0,2,2,0,0,0,0,2.82Z" fill="#fdfdfd"/><path d="M608.66,1009a26,26,0,0,1,5.35,4.7c1.13,1.31,3.1,3.53,2.11,5.4a2,2,0,0,0,2.25,2.93,41.24,41.24,0,0,1,12.4-.17,2,2,0,0,0,2-2,2.05,2.05,0,0,0-2-2,44.67,44.67,0,0,0-13.46.31l2.25,2.93c1.72-3.23.26-6.47-1.81-9.11a29.56,29.56,0,0,0-7.08-6.44c-2.14-1.42-4.14,2-2,3.44Z" fill="#fdfdfd"/><path d="M597.07,1022.56l4.17,5.58c1.21,1.61,2.5,4.19,4.59,4.76a9.41,9.41,0,0,0,3.22,0q1.74-.11,3.48-.06a38,38,0,0,1,7,.8c2.51.52,3.58-3.33,1.06-3.85a46.61,46.61,0,0,0-12.91-.77c-.75.06-.79,0-1.25-.63-.66-.87-1.31-1.75-2-2.63l-3.93-5.24a2,2,0,0,0-2.72-.71,2,2,0,0,0-.72,2.72Z" fill="#fdfdfd"/><path d="M588,1033.22a28,28,0,0,0,7.82,7.89,17.16,17.16,0,0,0,2.1,1.26,4.41,4.41,0,0,0,2,.34l1.88,0h1l.35,0c.52,0-.34-.07,0,0a2,2,0,0,0,2.46-1.39,2,2,0,0,0-1.4-2.45,16,16,0,0,0-3.72-.12h-.74c-.11,0-.24,0-.36,0-.32,0,.4.09.23,0,0,0,.56.3.13,0-.19-.12-.39-.23-.59-.34-.36-.21-.72-.44-1.07-.67a23.52,23.52,0,0,1-6.57-6.58,2,2,0,0,0-2.73-.72,2,2,0,0,0-.72,2.73Z" fill="#fdfdfd"/><path d="M581.79,1041.22a21.33,21.33,0,0,0,10.52,8,2,2,0,0,0,2.45-1.39,2,2,0,0,0-1.39-2.46l-.7-.25-.27-.11c-.45-.18.25.12,0,0-.43-.2-.85-.4-1.27-.62a18.28,18.28,0,0,1-2.44-1.55l-.09-.07c.22.19-.1-.08-.15-.12l-.57-.48c-.35-.31-.69-.64-1-1s-.64-.69-.94-1.05l-.24-.28-.09-.12.09.11c-.16-.07-.34-.46-.44-.6a2,2,0,0,0-2.73-.72,2,2,0,0,0-.72,2.73Z" fill="#fdfdfd"/><path d="M595.21,1051.38a31.59,31.59,0,0,0,8.17-.64,1.51,1.51,0,0,0,1-1.84,1.54,1.54,0,0,0-1.84-1.05c-.64.14-1.28.25-1.92.34s.29,0-.2,0l-.45,0-1,.09a30.58,30.58,0,0,1-3.83,0,1.49,1.49,0,0,0-1.49,1.49,1.54,1.54,0,0,0,1.49,1.5Z" fill="#fdfdfd"/><path d="M575.56,1049.78a44.31,44.31,0,0,0,13.85,8.63,2,2,0,0,0,2.46-1.39,2,2,0,0,0-1.39-2.45,40.26,40.26,0,0,1-12.1-7.61,2,2,0,0,0-2.82,0,2,2,0,0,0,0,2.82Z" fill="#fdfdfd"/><path d="M639.33,694.7s.42.3.24.16.19.16.22.18l.7.59,1.29,1.13c.85.75,1.7,1.52,2.51,2.33.4.41.79.82,1.16,1.25.19.21.38.42.55.64l.22.26c.34.42-.13-.19,0,.07a19,19,0,0,1,1.79,3,2,2,0,0,0,2.73.71,2,2,0,0,0,.72-2.73,22.08,22.08,0,0,0-4.4-6c-.83-.83-1.7-1.62-2.58-2.39a36.51,36.51,0,0,0-3.19-2.63,2,2,0,0,0-2.72.72,2.05,2.05,0,0,0,.71,2.73Z" fill="#fdfdfd"/><path d="M624,695c.51.48,1,1,1.47,1.52.12.13.23.27.35.41l.15.19s.27.35.07.08,0,0,0,0l.18.24.32.44c.39.58.76,1.18,1.1,1.8.16.3.32.61.46.92.08.16.16.32.23.49s.17.4,0,.09l0,.1a2.14,2.14,0,0,0,.92,1.19,2,2,0,0,0,2.73-.72,2,2,0,0,0,.2-1.53,22.5,22.5,0,0,0-5.46-8.08A2,2,0,1,0,624,695Z" fill="#fdfdfd"/><path d="M603.86,685.69c-.22.57.16-.24-.13.3-.1.19-.2.38-.31.56s-.18.3-.28.45-.12.17-.19.25c.08-.09.07-.09,0,0a6.24,6.24,0,0,1-1.6,1.41,2,2,0,0,0,.48,3.64,25.76,25.76,0,0,1,3.43,1.51,31.33,31.33,0,0,1,3.55,2.15,27,27,0,0,1,2.91,2.37,31.21,31.21,0,0,1,2.84,3,2,2,0,0,0,2.83,0,2,2,0,0,0,0-2.82,33.53,33.53,0,0,0-14.5-10.07l.48,3.64a10.75,10.75,0,0,0,4.36-5.36,2,2,0,0,0-1.39-2.45,2,2,0,0,0-2.46,1.39Z" fill="#fdfdfd"/><path d="M583.72,685.73a9.78,9.78,0,0,1-1.37,4.09,2,2,0,0,0,1.72,3c.12,0,.29,0,.07,0l.4.07a8.63,8.63,0,0,1,.88.2c.26.07.51.16.77.25,0,0,.37.14.23.08l.22.1a12.17,12.17,0,0,1,1.5.83c.09.07.6.43.41.28.24.19.47.39.69.59a12.39,12.39,0,0,1,1.11,1.18c.22.25-.14-.2.07.07.08.1.15.21.23.32s.34.51.49.77.26.47.38.71l.17.36c-.09-.19,0,0,0,.09a12.81,12.81,0,0,1,.49,1.74,2,2,0,0,0,2.45,1.39,2,2,0,0,0,1.4-2.45,13.63,13.63,0,0,0-12-10.57l1.72,3a13.87,13.87,0,0,0,1.92-6.1,2,2,0,0,0-2-2,2,2,0,0,0-2,2Z" fill="#fdfdfd"/><path d="M562.2,688.53a22.75,22.75,0,0,1,3.12,4.48c1.07,1.81,3,2.47,4.8,3.44a27.44,27.44,0,0,1,4.71,3c1.27,1.11,1.1,2.7,1,4.26a2,2,0,0,0,4,0c.12-2,.09-4.18-1.12-5.89s-3.4-3-5.24-4.08c-.92-.56-1.86-1.08-2.81-1.57-.73-.37-1.56-.64-1.94-1.32a24.52,24.52,0,0,0-3.69-5.18c-1.79-1.85-4.61,1-2.82,2.82Z" fill="#fdfdfd"/><path d="M544.66,693.47a10.62,10.62,0,0,1,2.14,2.3c.59.88.88,2,1.5,2.8.93,1.28,2.24,1,3.6,1.22a9.63,9.63,0,0,1,2.81.91,27.19,27.19,0,0,1,3,1.74,10,10,0,0,1,2.47,1.86c1.2,1.48.57,3.78.19,5.45-.57,2.5,3.28,3.56,3.85,1.06s1-5.1,0-7.5-3.62-3.86-5.81-5.15a20.24,20.24,0,0,0-3.57-1.72A10.88,10.88,0,0,0,553,696a6.24,6.24,0,0,0-2.06-.22q-.91-.07.63.69l-.11-.27a6.49,6.49,0,0,0-.45-1,10.92,10.92,0,0,0-.88-1.52,14.33,14.33,0,0,0-2.68-3,2,2,0,0,0-2.82,0,2,2,0,0,0,0,2.82Z" fill="#fdfdfd"/><path d="M521.5,699.56l3.36,8c.58,1.39,1.26,2.63,2.93,2.78a34.83,34.83,0,0,0,3.82-.13,14.23,14.23,0,0,1,7.2,1.32,25.49,25.49,0,0,1,5.79,4.88c1.8,1.84,4.62-1,2.82-2.82-2.52-2.58-5.17-5.13-8.61-6.41a17.41,17.41,0,0,0-5.59-1c-.94,0-1.88,0-2.82,0a7.16,7.16,0,0,1-2.35,0l.88.52a5,5,0,0,1-.81-1.72l-.93-2.19-1.84-4.37a2.07,2.07,0,0,0-2.46-1.4,2,2,0,0,0-1.39,2.46Z" fill="#fdfdfd"/><path d="M508.22,708.37a39.17,39.17,0,0,1,6.63,9.35,2,2,0,0,0,2.25.91c2.5-.6,5.39-1.39,7.86-.27,2.18,1,3.63,3.16,4.95,5.06a2,2,0,0,0,3.45-2c-1.79-2.57-3.75-5.3-6.7-6.62-3.42-1.54-7.11-.85-10.62,0l2.26.91A42.84,42.84,0,0,0,511,705.55c-1.78-1.86-4.6,1-2.82,2.82Z" fill="#fdfdfd"/><path d="M492.08,725.82a11.4,11.4,0,0,1,5.47,2.81c.82.78,1.36,1.75,2.13,2.55,1.07,1.1,2.35,1,3.74.8,3.74-.44,9.91-.82,11.38,3.76.79,2.43,4.64,1.39,3.85-1.06-1.73-5.37-7.45-7.19-12.59-6.93-.66,0-1.32.1-2,.17L503,728c-.21,0-1,0-.49.3-.43-.24-.89-1.21-1.22-1.59a11.58,11.58,0,0,0-1.31-1.31,15.55,15.55,0,0,0-6.82-3.47c-2.5-.55-3.57,3.29-1.06,3.85Z" fill="#fdfdfd"/><path d="M482,744.15a11.11,11.11,0,0,1,3,1.88c.87.77,1.53,2,2.52,2.56,1.38.82,2.7,0,4.05-.47a15.6,15.6,0,0,1,4-.74,15.84,15.84,0,0,1,13.08,6c1.63,2,4.44-.84,2.82-2.82a19.66,19.66,0,0,0-10-6.48,19.28,19.28,0,0,0-6.59-.62,21.84,21.84,0,0,0-3.14.49c-.57.14-1.14.3-1.69.49a5.67,5.67,0,0,1-1.43.54l1,.28c-.42-.27-.76-1-1.13-1.33a14.09,14.09,0,0,0-1.7-1.48A16.41,16.41,0,0,0,483,740.3a2,2,0,0,0-2.45,1.4,2,2,0,0,0,1.39,2.45Z" fill="#fdfdfd"/><path d="M474.57,765a28.08,28.08,0,0,1,4.64,4.67,2,2,0,0,0,2.73.72c4.91-3,11.41-5.82,16.63-1.86a2,2,0,0,0,2.73-.71,2,2,0,0,0-.72-2.73c-6.35-4.82-14.61-1.87-20.65,1.85l2.73.72a32.54,32.54,0,0,0-5.26-5.49,2.08,2.08,0,0,0-2.83,0,2,2,0,0,0,0,2.83Z" fill="#fdfdfd"/><path d="M467.24,785.86a39.89,39.89,0,0,1,6,6.37,2,2,0,0,0,3.45,0,14.36,14.36,0,0,1,15.08-6.13c2.5.59,3.56-3.26,1.06-3.85a18.5,18.5,0,0,0-19.59,8h3.45a45.18,45.18,0,0,0-6.65-7.17c-1.94-1.66-4.77,1.15-2.82,2.82Z" fill="#fdfdfd"/><path d="M463.94,808.16q3.88,2.7,7.48,5.74a2,2,0,0,0,2.82,0c3.1-3.61,7.35-8.55,12.73-7.2,2.49.63,3.55-3.22,1.06-3.84-7-1.76-12.44,3.36-16.61,8.22h2.82c-2.66-2.25-5.42-4.38-8.28-6.36a2,2,0,0,0-2,3.44Z" fill="#fdfdfd"/><path d="M462.5,827.57A44,44,0,0,1,471,833.4a2,2,0,0,0,3.13-.4,3.17,3.17,0,0,1,.23-.36,2.4,2.4,0,0,1,.18-.26c.15-.22-.23.28,0,.06.32-.38.64-.75,1-1.11.82-.88,1.7-1.71,2.6-2.51a21.22,21.22,0,0,1,2.51-2c.41-.27.84-.49,1.26-.74.21-.13.06,0-.08,0l.3-.11c.05,0,.19,0,.23-.06s-.45,0-.18,0c2.56-.09,2.57-4.08,0-4s-4.77,2.19-6.53,3.71a21.27,21.27,0,0,0-4.88,5.27l3.13-.4a48,48,0,0,0-9.29-6.45c-2.26-1.21-4.28,2.24-2,3.44Z" fill="#fdfdfd"/><path d="M461,844.71a40.62,40.62,0,0,1,8.41,7.94,2,2,0,0,0,3.14-.4,15.48,15.48,0,0,1,8.06-6.93,2,2,0,0,0,1.39-2.45,2,2,0,0,0-2.45-1.39,19.71,19.71,0,0,0-10.45,8.76l3.13-.41a43.89,43.89,0,0,0-9.22-8.57,2,2,0,0,0-2.73.72,2,2,0,0,0,.72,2.73Z" fill="#fdfdfd"/><path d="M461.39,862.73c-.43-.08-.55-.09-.34,0-.34-.15-.42-.18-.22-.09a3.3,3.3,0,0,0,.32.18c.32.19.64.41,1,.63.85.61,1.41,1.06,2.25,1.75,1.59,1.29,3.16,2.63,4.65,4a2,2,0,0,0,3.13-.41,10.67,10.67,0,0,1,9.31-4.34c2.56.15,2.56-3.84,0-4a14.73,14.73,0,0,0-12.75,6.32l3.13-.41c-1.67-1.57-3.43-3.06-5.21-4.5-1.46-1.17-3.26-3-5.22-3.14a2,2,0,0,0-2,2,2,2,0,0,0,2,2Z" fill="#fdfdfd"/><path d="M460.17,880a45.58,45.58,0,0,1,6.82,4.81,2.11,2.11,0,0,0,2.42.31,13.92,13.92,0,0,1,10.8-1c2.46.77,3.51-3.08,1.06-3.84a18,18,0,0,0-13.87,1.36l2.42.31a52.3,52.3,0,0,0-7.64-5.42c-2.23-1.29-4.24,2.16-2,3.44Z" fill="#fdfdfd"/><path d="M456.23,897q3.28,4.51,7,8.74a2,2,0,0,0,2.42.31,10.83,10.83,0,0,1,11.1.2c2.19,1.35,4.19-2.1,2-3.45a14.88,14.88,0,0,0-15.13-.19l2.42.31q-3.34-3.82-6.35-7.93a2.06,2.06,0,0,0-2.73-.72,2,2,0,0,0-.71,2.73Z" fill="#fdfdfd"/><path d="M457.21,918.07c-.33-.24.26.23.32.29.21.2.41.41.61.63a15.07,15.07,0,0,1,1,1.29c.68.92,1.3,1.87,1.92,2.83a5.79,5.79,0,0,0,1.58,2,3.82,3.82,0,0,0,2.09.35c2.12-.06,4.24-.29,6.36-.35,2.34-.07,4.48-.17,6.52.61a2,2,0,0,0,2.45-1.39,2,2,0,0,0-1.39-2.45,18.78,18.78,0,0,0-7-.77c-2.19,0-4.37.24-6.56.34l-.95,0c-.23,0-.57-.12.14,0-.82-.2,1.19.71.95.76a12.45,12.45,0,0,1-1.23-1.9,20.66,20.66,0,0,0-4.88-5.8,2,2,0,0,0-2.73.72,2,2,0,0,0,.72,2.73Z" fill="#fdfdfd"/><path d="M456,930c-.42,2,.35,4,1.2,5.86a14.18,14.18,0,0,0,2.41,3.91c.72.72,2,.6,3,.69a49.35,49.35,0,0,1,5.08.74,13.25,13.25,0,0,1,5.54,2,1.5,1.5,0,0,0,2-.54,1.54,1.54,0,0,0-.53-2.05,13.26,13.26,0,0,0-4.72-2,43.41,43.41,0,0,0-5.56-1c-1.13-.14-2.27-.27-3.41-.35-.12,0-.26-.08,0,0a4.28,4.28,0,0,1,.72.35s-.08-.15-.13-.16.14.21,0-.06c-.4-.58-.77-1.17-1.12-1.78a16.65,16.65,0,0,1-1.2-2.61,7.84,7.84,0,0,1-.38-1.42,3.28,3.28,0,0,1,0-.44V931c0-.45-.06.24,0-.19.39-1.88-2.49-2.68-2.89-.79Z" fill="#fdfdfd"/><path d="M453.37,946.3A41.61,41.61,0,0,0,457,956.57a1.49,1.49,0,1,0,2.58-1.51,39.08,39.08,0,0,1-3.34-9.55,1.49,1.49,0,1,0-2.88.79Z" fill="#fdfdfd"/><path d="M458,956.64a20.78,20.78,0,0,0,14,2.56,1.5,1.5,0,0,0,1-1.84,1.53,1.53,0,0,0-1.84-1,17.56,17.56,0,0,1-11.66-2.26,1.5,1.5,0,0,0-1.51,2.58Z" fill="#fdfdfd"/><path d="M456.44,967.06a18.33,18.33,0,0,0,16.1,7.29,1.53,1.53,0,0,0,1.49-1.49,1.5,1.5,0,0,0-1.49-1.5A15.38,15.38,0,0,1,459,965.55a1.55,1.55,0,0,0-2-.53,1.5,1.5,0,0,0-.53,2Z" fill="#fdfdfd"/><path d="M454.17,975.07a24.13,24.13,0,0,0,14.89,10,1.53,1.53,0,0,0,1.84-1,1.5,1.5,0,0,0-1-1.84,21,21,0,0,1-13.1-8.62,1.54,1.54,0,0,0-2.05-.53,1.51,1.51,0,0,0-.54,2.05Z" fill="#fdfdfd"/><path d="M452.25,983.94c2.59,4.4,5.65,9.16,10.91,10.52a1.49,1.49,0,0,0,.8-2.88,8.5,8.5,0,0,1-2.77-1.25,12.29,12.29,0,0,1-2.32-2,32.27,32.27,0,0,1-4-5.89,1.5,1.5,0,1,0-2.59,1.51Z" fill="#fdfdfd"/><path d="M713.3,637.91a41.58,41.58,0,0,0-5.14,22.4,8,8,0,0,0,.72,3.36c1.12,2.16,3.84,3.07,6.25,2.8a18.29,18.29,0,0,0,6.72-2.7l-.3,21.12a4.19,4.19,0,0,0,.29,2c.67,1.34,2.65,1.54,4,.79a8.35,8.35,0,0,0,2.84-3.44c6.86,7.65,7.12,21,16.39,25.41,1.52.72,3.24,1.17,4.43,2.36,2,2,1.76,5.28,2,8.14a21.12,21.12,0,0,0,16.73,18.78q-.76-21.54-3.3-43c-.36-3.09-.87-6.41-3.06-8.61-1.36-1.37-3.22-2.13-4.62-3.46-5.47-5.23-.76-14.43-2.07-21.88a3,3,0,0,0-1-2c-1.26-.86-2.86.31-4.27.88-3.63,1.48-7.76-1.42-9.37-5s-1.52-7.64-2.09-11.51-2.15-8.05-5.68-9.74c-4.68-2.24-12.17-.11-14-5a51.9,51.9,0,0,1-4.51,8.85" fill="#f9f9f9"/><path d="M413.68,1052.1c-4.13,18.21-9,39.79-13.91,55.27-9.83,31-13.09,105-15.36,135.22-1,12.66,4.65,27,4.65,27l-61,1.5c-16.33-18.74-8.92-129.52-14.45-197.94A619.79,619.79,0,0,1,317.25,945S299.2,647.71,343.93,620.76s145.46-89.52,145.46-89.52-.24-.24.73,2.61c4.11,12.15,21.13,51.38,86.21,51.38,80.35,0,82.84-55,82.84-55s131.41,49.11,142.29,56.21c38.3,25,52.89,331.94,52.89,331.94s19,68.76,22.88,124.63c5.58,81.26,18.66,177.57,17.85,189.79s-5.3,18.89-5.3,18.89h-58.1s-1.25-8-2.89-34.36c-1.9-30.61-17.15-87.17-32.81-134.19" fill="none" stroke="#262521" stroke-linecap="round" stroke-linejoin="round" stroke-width="3"/><path d="M836,1219s30.63-3.83,52.36,0" fill="none" stroke="#636363" stroke-linecap="round" stroke-linejoin="round"/><path d="M325.27,1236.49s30.63-3.83,52.37,0" fill="none" stroke="#636363" stroke-linecap="round" stroke-linejoin="round"/><path d="M410.65,807.61s5.34,199.1,3.83,238.13c-.83,21.49-26.59,142.54-14.28,169.72,0,13-1.32,43-1.32,43s73.26,22.14,150.26,21.22C686.66,1278,812.51,1253,812.51,1253s-6.69-30-7.46-43.63c14.49-25-20.78-164.55-22.58-234.5-1.22-47.59-16.09-167.28-16.09-167.28" fill="none" stroke="#262521" stroke-linecap="round" stroke-linejoin="round" stroke-width="3"/><path d="M411.18,1219s168.08,32.87,378.15-4.33" fill="none" stroke="#636363" stroke-linecap="round" stroke-linejoin="round"/><path d="M478,546.43s21.5,56.9,100.8,56.9,94.27-62,94.27-62" fill="none" stroke="#636363" stroke-linecap="round" stroke-linejoin="round"/></svg>