<svg xmlns="http://www.w3.org/2000/svg" width="1250" height="1550" viewBox="0 0 1250 1550"><title>s03e05-02</title><path d="M404.44,1264.52s61.79,24.3,203.69,19.79S801,1248.13,801,1248.13l20.1,342.24-158.7-1.85-28.9-196.61L608,1400.59l-8.84,196.24-153.94-.22Z" fill="#5b5745" stroke="#262521" stroke-linecap="round" stroke-linejoin="round" stroke-width="3"/><path d="M804.54,1251s14.09,107.47,11,119.16c-1.22,4.65-22.34-70.94-42.35-69.91s-10.94,71.65-17.83,69.91c-85.14-21.55-159.46-67-276.59,19-18,13.21-20.92-71.45-34.42-68.63s-28,80-29.91,74.56c-3.89-10.84-9.26-144.1-9.26-144.1Z" fill="#262521" stroke="#262521" stroke-linecap="round" stroke-miterlimit="10" stroke-width="3"/><path d="M877.23,1043c-3.83-55.87-22.88-124.63-22.88-124.63s-14.59-306.95-52.89-331.94C790.58,579.35,655,529,655,529s-1.63,53.94-77,52.21c-65.07-1.5-80.64-40-84.76-52.13-1-2.85-104.64,64.72-149.37,91.67S317.25,945,317.25,945a619.73,619.73,0,0,0-3.6,128.12c5.53,68.42-1.88,179.2,14.45,197.94l61-1.5s-5.6-14.35-4.65-27c2.27-30.22,5.53-104.27,15.36-135.22,4.75-14.95,9.92-36.08,14-53.92-3.91,31.43,391,79.4,383.19,32.69,14.79,45.71,30.06,102.55,31.84,131.2,1.64,26.39,2.89,34.36,2.89,34.36h58.1s4.48-6.67,5.3-18.89S882.81,1124.28,877.23,1043Z" fill="#262521"/><path d="M588.78,641.06c-279.84-131.88-198.84,497.26-189,466.31,4.75-14.95,9.92-36.08,14-53.92-3.91,31.43-21.46,116.57-10.26,141.27,0,13-6.32,69.65-6.32,69.65s73.26,22.15,150.25,21.22C685,1283.93,810.8,1259,810.8,1259s-6.68-56.7-7.46-70.3c8-13.74,1.42-55.8-6.39-102.51C811.74,1131.85,853.52,479.37,588.78,641.06Z" fill="#b5b5b5"/><path d="M851.1,1054.28c-3.83-55.87-30.72-128.11-30.72-128.11s-8.49-281.5-46.79-306.49c-10.89-7.11-98.13-56.56-103-54S654.32,605.49,583,608c-65,2.27-91.08-31.27-92.83-35.08-1.26-2.73-59.06,36.1-101.77,66.15C337.05,675.14,356,944.51,356,944.51a1154.58,1154.58,0,0,0-6.71,129.85c.62,72.82-5.75,123.63.46,129.12s37,3.28,37,3.28c1.1-14.57,2.71-46.3,7.62-74.8,5.27-30.62,14-58.24,19.39-78.51-1.85,14.82-6.72,41.6-10.19,68.34,40.33-33.2,39.69-185.09,34.32-263.1-7.61-110.52-46.28-270.59,149.55-179C764.26,569.4,748.81,738.09,748.11,848.87c-.48,76.56,14.22,230.34,53.16,263.82-1.33-8.56-2.8-17.46-4.32-26.55,14.79,45.71,24.13,76.25,28.91,105.2,1.1,3.73,32.75,5.3,36-4.16S856.68,1135.55,851.1,1054.28Z" fill="#fff"/><path d="M405.18,1111.5c38.24-37,31.08-181.8,25.71-259.81-7.61-110.52-39.28-270.59,156.55-179C764.26,562.4,755.31,731.09,754.61,841.87c-.48,76.56,9.93,225.59,44.74,258.8" fill="none" stroke="#b5b5b5" stroke-linecap="round" stroke-linejoin="round" stroke-width="1.02"/><path d="M413.3,1057c-3.84,16.48-9.28,37-13.53,50.41-9.83,31-13.09,105-15.36,135.22-1,12.66,4.65,27,4.65,27l-61,1.5c-16.33-18.74-8.92-129.52-14.45-197.94A619.79,619.79,0,0,1,317.25,945S299.2,647.71,343.93,620.76s148.41-94.52,149.37-91.67c4.12,12.15,19.69,50.63,84.76,52.13C653.4,583,655,529,655,529s135.55,50.34,146.43,57.44c38.3,25,52.89,331.94,52.89,331.94s19,68.76,22.88,124.63c5.58,81.26,18.66,177.57,17.85,189.79s-5.3,18.89-5.3,18.89h-58.1s-1.25-8-2.89-34.36c-1.72-27.77-16.12-82-30.47-126.95" fill="none" stroke="#262521" stroke-linecap="round" stroke-linejoin="round" stroke-width="3"/><path d="M410.65,807.61s5.34,199.1,3.83,238.13c-.83,21.49-23.3,121.8-11,149,0,13-6.32,69.65-6.32,69.65s73.26,22.15,150.25,21.22C685,1283.93,810.8,1259,810.8,1259s-6.68-56.7-7.46-70.3c14.5-25-19.07-143.81-20.87-213.76-1.22-47.59-16.09-167.28-16.09-167.28" fill="none" stroke="#262521" stroke-linecap="round" stroke-linejoin="round" stroke-width="3"/><path d="M414.48,1199.78S580,1230.3,787.63,1195" fill="none" stroke="#636363" stroke-linecap="round" stroke-linejoin="round"/></svg>