<svg xmlns="http://www.w3.org/2000/svg" width="1250" height="1550" viewBox="0 0 1250 1550"><title>s03e02-02</title><path d="M762.91,849.63c58.38,11.42,118.48-39.89,118.48-39.89S813.16,592.1,801.46,586.45c-10.45-5.05-115.8-45.94-138.13-54.6a161.65,161.65,0,0,0-20.21-25s-10.21,26.32-42.32,40.83l-25.48,7.62-17.72-5c-32.19-14.07-52.29-43.48-52.29-43.48a150.21,150.21,0,0,0-19,26.31c-20.05,12.56-131.73,82.44-142.37,87.58-2.17,1-15.49,16.94-15.81,45.24l0,0C312.38,730.34,290,838.76,290,838.76s103.21,50.51,123.25,10.35h0l4.11,7.63-20,406s91.48,25.55,210.71,21.55S804,1247.13,804,1247.13l-42.4-410.37Z" fill="#fff" stroke="#262521" stroke-linecap="round" stroke-linejoin="round" stroke-width="3"/><path d="M397.42,1262.76s91.48,25.55,210.71,21.55S804,1247.13,804,1247.13" fill="none" stroke="#636363" stroke-linecap="round" stroke-linejoin="round"/><line x1="413.27" y1="849.11" x2="413.27" y2="849.11" fill="none" stroke="#636363" stroke-linecap="round" stroke-linejoin="round"/><path d="M754.32,807c3.47,24.84,6.44,21.89,8.59,42.64" fill="none" stroke="#262521" stroke-linecap="round" stroke-miterlimit="10" stroke-width="3"/><polygon points="641.53 654.99 685.3 656.76 651.45 629.16 663.42 670.9 678.1 630.12 641.53 654.99" fill="#262521" stroke="#262521" stroke-linecap="round" stroke-linejoin="round" stroke-width="3"/><polygon points="675.44 580.27 719.21 578.5 685.36 606.1 697.32 564.36 712.01 605.14 675.44 580.27" fill="#262521" stroke="#262521" stroke-linecap="round" stroke-linejoin="round" stroke-width="3"/><polyline points="558.39 568.4 558.39 693.17 588.36 693.17" fill="none" stroke="#636363" stroke-linecap="round" stroke-linejoin="round"/><circle cx="576.22" cy="587.78" r="6.96" fill="none" stroke="#636363" stroke-miterlimit="10"/><circle cx="576.22" cy="627.76" r="6.96" fill="none" stroke="#636363" stroke-miterlimit="10"/><circle cx="576.22" cy="667.74" r="6.96" fill="none" stroke="#636363" stroke-miterlimit="10"/><polygon points="432.01 578.85 475.78 577.08 441.93 604.68 453.89 562.94 468.58 603.73 432.01 578.85" fill="#262521" stroke="#262521" stroke-linecap="round" stroke-linejoin="round" stroke-width="3"/><polygon points="465.86 654.99 509.64 656.76 475.79 629.16 487.75 670.9 502.43 630.12 465.86 654.99" fill="#262521" stroke="#262521" stroke-linecap="round" stroke-linejoin="round" stroke-width="3"/><path d="M572.13,555.32l-69,61.9s-25.45-67.38-16.86-84" fill="none" stroke="#262521" stroke-linecap="round" stroke-linejoin="round" stroke-width="3"/><path d="M575.32,555.32l69.95,61.9s30.78-61.58,22.18-78.24" fill="none" stroke="#262521" stroke-linecap="round" stroke-linejoin="round" stroke-width="3"/><line x1="761.58" y1="836.76" x2="771.75" y2="808.27" fill="none" stroke="#262521" stroke-linecap="round" stroke-linejoin="round" stroke-width="3"/><path d="M366,696.25s12.17,87.67,26.55,114.4l24.8,46.09" fill="none" stroke="#262521" stroke-linecap="round" stroke-linejoin="round" stroke-width="3"/><path d="M767,700.68S750.86,782.15,754.32,807s6.44,21.89,8.59,42.64" fill="none" stroke="#262521" stroke-linecap="round" stroke-linejoin="round" stroke-width="3"/><path d="M871,794.12s-54.43,40.17-101.74,39" fill="none" stroke="#636363" stroke-linecap="round" stroke-linejoin="round"/><path d="M316.83,714c-.46,5.9-2.27,11.38-4.21,17-2.16,6.27-3.13,12.84-4.41,19.32-1.23,6.28-2.58,12.49-3.55,18.82-1.2,7.73-2.22,15.55-3.85,23.22L333,736.08l3.15-18.86Z" fill="#262521"/><path d="M336.83,716.76a.78.78,0,0,0-.52-.32l-19.44-3.25c0,.53-.08,1.06-.13,1.58l18.53,3.1-3,17.94-30.95,54.07q-.51,2.55-1.09,5.09l33.49-58.49a.62.62,0,0,0,.09-.26L337,717.35A.77.77,0,0,0,336.83,716.76Z" fill="#605e58"/><path d="M316.79,707.68c-8.8,38.79-17.88,81.37-23.29,107.09q1.51.11,3,.15c5.41-25.7,14.4-67.85,23.13-106.32C318.71,708.27,317.75,708,316.79,707.68Z" fill="#262521"/><path d="M298.19,824.54s62.55,34.94,105.72,16.06" fill="none" stroke="#636363" stroke-linecap="round" stroke-linejoin="round"/></svg>