<svg xmlns="http://www.w3.org/2000/svg" width="1000" height="1550" viewBox="0 0 1000 1550"><path d="M752.23 1043c-3.83-55.87-22.88-124.63-22.88-124.63s-14.59-306.95-52.89-331.94c-10.88-7.1-142.29-56.21-142.29-56.21s-2.49 55-82.84 55c-65.08 0-82.1-39.23-86.21-51.38a10.79 10.79 0 01-.75-2.59c-1 .65-100.94 62.69-145.44 89.5C174.2 647.71 192.25 945 192.25 945a619.79 619.79 0 00-3.6 128.12c5.53 68.42-1.88 179.2 14.45 197.94l61-1.5s-5.6-14.35-4.65-27c2.27-30.22 5.53-104.27 15.36-135.22s21.45-88.31 21.45-88.33c.49 23.68.3 42.23-1 50.33-3.6 21.92-31.66 102.78-17.78 133.07-3.34 29.28-5.7 66.94-5.7 66.94S367.4 1295 444.4 1294c137.52-1.66 240.17-35.54 240.17-35.54s-2.28-35.7-5.32-60.52c9.94-22.62-4.2-83.52-17.92-143 17.07 47.16 40.25 126.63 42.46 162.33 1.64 26.39 2.89 34.36 2.89 34.36h58.1s4.48-6.67 5.3-18.89-12.27-108.46-17.85-189.74z" fill="#262521" stroke="#262521" stroke-linecap="round" stroke-linejoin="round" stroke-width="3"/><path d="M271.71 1269.38S367.4 1295 444.4 1294c137.52-1.66 240.17-35.54 240.17-35.54" fill="none" stroke="#636363" stroke-linecap="round" stroke-linejoin="round"/><path d="M600 652.48c-28.47-1.88-46.82 21.29-46.82 21.29s-58.88-50.68-92.66 4.34.48 168 75.91 203.33c0 0 1.31 15.8 10.48 16.28s15.39-8.72 20.22-10.62 6.28.48 7.72-7.72 26.07-55.51 35.72-70 31.85-69.5 32.82-96.53-14.96-58.49-43.39-60.37zm14 93.69c-8.21 33.78-56 94.6-56 94.6-36.2-25.1-49.71-62.75-57-89.72s-1-52.18 6.27-53.63 19.31 3.86 21.24 29 11.1 32.82 29.44 31.79 16.41-21.17 14-42.41 14-46.82 34.27-38.61 15.93 35.19 7.78 68.98z" fill="#fff"/></svg>