<svg xmlns="http://www.w3.org/2000/svg" xmlns:xlink="http://www.w3.org/1999/xlink" width="1250" height="1550" viewBox="0 0 1250 1550"><defs><clipPath id="a"><path d="M767.14,804.3,410.65,815.38s-34-169.75-66.72-194.62c60.36-38.06,96.22-60.84,149.37-91.67,1.44-.83,11.39,51.92,89.86,52.16C655.44,581.47,655,529,655,529c57.39,19.5,88.17,33.37,146.43,57.44C774.27,619.59,767.14,804.3,767.14,804.3Z" fill="none"/></clipPath></defs><title>s03e01-02</title><path d="M421.22,1019s-11.62,57.38-21.45,88.33-13.09,105-15.36,135.22c-1,12.66,4.65,27,4.65,27l-61,1.5c-16.33-18.74-8.92-129.52-14.45-197.94A619.79,619.79,0,0,1,317.25,945S299.2,647.71,343.93,620.76s148.41-94.52,149.37-91.67c4.12,12.15,19.69,50.63,84.76,52.13C653.4,583,655,529,655,529s135.55,50.34,146.43,57.44c38.3,25,52.89,331.94,52.89,331.94s19,68.76,22.88,124.63c5.58,81.26,18.66,177.57,17.85,189.79s-5.3,18.89-5.3,18.89h-58.1s-1.25-8-2.89-34.36c-2.47-39.8-31-134-48.07-177.22" fill="#fff"/><g clip-path="url(#a)"><rect x="284.68" y="488.9" width="552.91" height="347.92" transform="translate(-24.11 21.19) rotate(-2.12)" fill="#a3a3a3"/><rect x="252.33" y="580.61" width="624.27" height="27.57" transform="translate(-21.58 21.26) rotate(-2.12)" fill="#262521"/><rect x="250.29" y="525.44" width="624.27" height="27.57" transform="translate(-19.54 21.15) rotate(-2.12)" fill="#262521"/><rect x="256.38" y="690.35" width="624.27" height="27.57" transform="translate(-25.63 21.49) rotate(-2.12)" fill="#262521"/><rect x="258.38" y="744.35" width="624.27" height="27.57" transform="translate(-27.62 21.6) rotate(-2.12)" fill="#262521"/><rect x="253.13" y="613.64" width="624.27" height="4.7" transform="translate(-22.37 21.31) rotate(-2.12)" fill="#262521"/><rect x="164.82" y="654.57" width="304.08" height="28.47" transform="translate(973.51 327.45) rotate(87.88)" fill="#262521"/><rect x="188" y="658.99" width="304.08" height="17.92" transform="translate(994.97 303.47) rotate(87.88)" fill="#fff" opacity="0.6"/><rect x="360.11" y="652.63" width="304.08" height="17.92" transform="translate(1154.37 125.34) rotate(87.88)" fill="#fff" opacity="0.6"/><rect x="274.79" y="655.78" width="304.08" height="17.92" transform="translate(1075.35 213.65) rotate(87.88)" fill="#fff" opacity="0.6"/><rect x="447.05" y="649.42" width="304.08" height="17.92" transform="translate(1234.88 35.37) rotate(87.88)" fill="#fff" opacity="0.6"/><rect x="618.43" y="643.08" width="304.08" height="17.92" transform="translate(1393.6 -142) rotate(87.88)" fill="#fff" opacity="0.6"/><rect x="534.65" y="646.18" width="304.08" height="17.92" transform="translate(1316.01 -55.29) rotate(87.88)" fill="#fff" opacity="0.6"/><rect x="142.52" y="667.21" width="304.08" height="4.85" transform="translate(952.86 350.53) rotate(87.88)" fill="#262521"/><rect x="211.18" y="652.86" width="304.08" height="28.47" transform="translate(1016.44 279.48) rotate(87.88)" fill="#262521"/><rect x="233.47" y="663.85" width="304.08" height="4.85" transform="translate(1037.09 256.4) rotate(87.88)" fill="#262521"/><rect x="336.93" y="648.21" width="304.08" height="28.47" transform="translate(1132.9 149.33) rotate(87.88)" fill="#262521"/><rect x="314.64" y="660.84" width="304.08" height="4.85" transform="translate(1112.25 172.4) rotate(87.88)" fill="#262521"/><rect x="383.29" y="646.5" width="304.08" height="28.47" transform="translate(1175.83 101.35) rotate(87.88)" fill="#262521"/><rect x="405.59" y="657.48" width="304.08" height="4.85" transform="translate(1196.48 78.28) rotate(87.88)" fill="#262521"/><rect x="511.47" y="641.76" width="304.08" height="28.47" transform="translate(1294.54 -31.3) rotate(87.88)" fill="#262521"/><rect x="489.17" y="654.39" width="304.08" height="4.85" transform="translate(1273.89 -8.23) rotate(87.88)" fill="#262521"/><rect x="679.5" y="635.54" width="304.08" height="28.47" transform="translate(1450.15 -205.2) rotate(87.88)" fill="#262521"/><rect x="657.2" y="648.18" width="304.08" height="4.85" transform="translate(1429.5 -182.12) rotate(87.88)" fill="#262521"/><rect x="557.83" y="640.04" width="304.08" height="28.47" transform="translate(1337.47 -79.28) rotate(87.88)" fill="#262521"/><rect x="580.12" y="651.03" width="304.08" height="4.85" transform="matrix(0.04, 1, -1, 0.04, 1358.12, -102.35)" fill="#262521"/><rect x="255.57" y="679.8" width="624.27" height="4.7" transform="translate(-24.82 21.44) rotate(-2.12)" fill="#262521"/><rect x="251.31" y="552.99" width="624.27" height="27.57" transform="translate(-20.56 21.2) rotate(-2.12)" fill="#fff" opacity="0.6"/><rect x="257.38" y="717.91" width="624.27" height="26.46" transform="translate(-26.63 21.54) rotate(-2.12)" fill="#fff" opacity="0.6"/><path d="M884.35,705.48a35.29,35.29,0,0,0-23.22-2.25c-3.9,1-7.69,3.65-11.83,2.82-1.94-.39-3.79-1.13-5.71-1.57a31.7,31.7,0,0,0-6.37-.77,30.64,30.64,0,0,0-12,2.21c-1.85.76-3.68,1.78-5.7,2a12.6,12.6,0,0,1-5.24-.64c-3.31-1-6.34-2.72-9.6-3.88a20.45,20.45,0,0,0-10.14-1c-7.46,1.18-15.14,6.66-22.84,4.37a1.7,1.7,0,0,0-2.14.91L761,706.32l-13.29-2.12a120.77,120.77,0,0,0-13-1.75,22.7,22.7,0,0,0-11.34,2.2c-3.61,1.78-6.69,4.26-10.71,5.19s-8.61.95-12.84,1-8.43,0-12.63-.26a191.88,191.88,0,0,1-25.8-3.87,58.12,58.12,0,0,0-12.33-1.4,44.73,44.73,0,0,0-11.93,2.09c-7.76,2.32-15.17,5.7-23.39,6.1-8.69.42-17.42-1.09-26.09-1.52a246.12,246.12,0,0,0-59.1,4.29h0l-30.36-2.24c-9.38-.69-18.86-1.48-28.18.22a47.82,47.82,0,0,0-6.46,1.66c-2.23.75-4.48,1.7-6.88,1.61-2.18-.07-4.27-.87-6.37-1.34a30.47,30.47,0,0,0-7-.71c-4.63.05-9.17,1-13.74,1.6a57.52,57.52,0,0,1-14,.1c-4.6-.5-9.13-.94-13.73-.19a78.55,78.55,0,0,0-12.76,3.6c-4.35,1.48-8.76,2.92-13.39,3.26A34.58,34.58,0,0,1,361.77,722c-7.24-2.48-15.89-7-23.24-2.24-1.55,1-2.82,2.32-4.26,3.43a7.46,7.46,0,0,1-6.24,1.5c-4.34-.69-8.62-1.91-12.94-2.73-18.87-3.57-39.42-4.78-56.79,4.64a1.66,1.66,0,0,0-.66,2.44l-.55,0,0,.41L881,706.39l.07,1.85c.49.19,1,.4,1.45.62C884.77,709.93,886.65,706.54,884.35,705.48Z" fill="#fff" opacity="0.4"/><path d="M444.16,551.31a28.18,28.18,0,0,0-4.5-.63q-3.56,3.65-7.26,7.14l308.52-11.4c-4.43-3-9-5.84-13.44-8.91a22.18,22.18,0,0,0-10.22,2.22c-3.61,1.78-6.68,4.26-10.7,5.19s-8.62,1-12.85,1-8.43,0-12.63-.26a191.88,191.88,0,0,1-25.8-3.87,58.12,58.12,0,0,0-12.33-1.4A44.8,44.8,0,0,0,631,542.52c-7.76,2.32-15.16,5.7-23.39,6.1-8.69.42-17.42-1.09-26.08-1.52a246.08,246.08,0,0,0-59.1,4.29h0l-30.36-2.24c-9.38-.69-18.85-1.48-28.18.22a47.82,47.82,0,0,0-6.46,1.66c-2.23.75-4.48,1.7-6.88,1.61C448.36,552.58,446.26,551.78,444.16,551.31Z" fill="#fff" opacity="0.4"/><rect x="254.34" y="641.68" width="624.27" height="14.5" transform="translate(-23.59 21.37) rotate(-2.12)" fill="#fff" opacity="0.6"/><rect x="260.09" y="797" width="624.27" height="14.5" transform="translate(-29.32 21.69) rotate(-2.12)" fill="#fff" opacity="0.6"/><g opacity="0.84"><path d="M391.47,823.16c12.16-6.21,21.79-13,32.46-21.45,12.13-9.56,26-13.65,41.42-16,17.75-2.74,18.18-1,32.22-11.86,3.16-2.46,6.06-5.43,9.86-6.8,6.88-2.5,15.05-4.81,20.64-9.43,2.36-2,3.57-4.92,5.79-7,5.34-5.07,21.59-5.66,21.59-5.66l84.18-3.12S670.5,767.12,687.15,770c8.59,1.5,21.32-1,29.18,2.66,10.71,5,8.65,8.18,20.54,8.52,8.06.23,43.69,22.84,37,23.08-33.19,1.17-382.37,18.86-382.37,18.86" fill="#fff"/></g><path d="M522.43,850.82l-.69-21.35a18.26,18.26,0,0,0-.62-5,28,28,0,0,0-1.46-3.33c-3-6.46-3.24-13.76-3.43-20.84a29.3,29.3,0,0,1,.77-9.44,24.22,24.22,0,0,1,5.1-8.42,62.28,62.28,0,0,1,23.42-16.87c3.37-1.39,6.89-2.5,10-4.35s5.89-4.62,6.7-8.08c.45-2,.48-4.4,2.29-5.39a22.92,22.92,0,0,0,3.52-3.37l61.27-2.27s12.21,21.58,18.46,28.24a44.4,44.4,0,0,1,7.34,11.44,99.17,99.17,0,0,1,9.52,47,10.44,10.44,0,0,1-1,4.78c-1.37,2.36-4.25,3.43-6.94,4.19a88.25,88.25,0,0,1-25.36,3.29" fill="#fff"/><rect x="576.97" y="716.67" width="51.86" height="26.46" transform="matrix(1, -0.04, 0.04, 1, -26.56, 22.77)" fill="#fff"/></g><path d="M421.22,1019s-11.62,57.38-21.45,88.33-13.09,105-15.36,135.22c-1,12.66,4.65,27,4.65,27l-61,1.5c-16.33-18.74-8.92-129.52-14.45-197.94A619.79,619.79,0,0,1,317.25,945S299.2,647.71,343.93,620.76s148.41-94.52,149.37-91.67c4.12,12.15,19.69,50.63,84.76,52.13C653.4,583,655,529,655,529s135.55,50.34,146.43,57.44c38.3,25,52.89,331.94,52.89,331.94s19,68.76,22.88,124.63c5.58,81.26,18.66,177.57,17.85,189.79s-5.3,18.89-5.3,18.89h-58.1s-1.25-8-2.89-34.36c-2.47-39.8-31-134-48.07-177.22" fill="none" stroke="#262521" stroke-linecap="round" stroke-linejoin="round" stroke-width="3"/><path d="M836,1220.48s30.63-3.83,52.36,0" fill="none" stroke="#636363" stroke-linecap="round" stroke-linejoin="round"/><path d="M325.27,1238s30.63-3.83,52.37,0" fill="none" stroke="#636363" stroke-linecap="round" stroke-linejoin="round"/><path d="M478,546.43s21.5,56.9,100.8,56.9,94.27-62,94.27-62" fill="none" stroke="#636363" stroke-linecap="round" stroke-linejoin="round"/><path d="M803,1225.79s9.18,34.21,6.13,45.9-62.43-5.22-174.82,13.26c-114,18.74-231.65,7.83-235.53-3s4.9-56.15,4.9-56.15Z" fill="#fff" stroke="#262521" stroke-linecap="round" stroke-miterlimit="10" stroke-width="3"/><path d="M410.65,807.61s5.34,199.1,3.83,238.13c-.83,21.49-23.3,121.8-11,149,0,13-6.32,43-6.32,43s73.26,22.14,150.25,21.21c137.53-1.65,263.37-26.63,263.37-26.63s-6.68-30-7.46-43.64c14.5-25-19.07-143.81-20.87-213.76-1.22-47.59-16.09-167.28-16.09-167.28" fill="#fff" stroke="#262521" stroke-linecap="round" stroke-linejoin="round" stroke-width="3"/><path d="M414.48,1199.78S580,1230.3,787.63,1195" fill="none" stroke="#636363" stroke-linecap="round" stroke-linejoin="round"/></svg>