<svg xmlns="http://www.w3.org/2000/svg" width="1000" height="1550" viewBox="0 0 1000 1550"><path d="M638.21 849.63c58.38 11.42 118.48-39.89 118.48-39.89s-68.23-217.64-79.93-223.29-142.29-56.21-142.29-56.21-2.49 55-82.84 55c-65.08 0-87-53.89-87-54-1.05.66-133.79 83.87-145.44 89.5-2.17 1-15.49 16.94-15.81 45.24h0c-15.72 64.39-38.08 172.8-38.08 172.8s103.21 50.51 123.26 10.35h0l4.1 7.63-20 406s91.48 25.55 210.72 21.55 195.84-37.18 195.84-37.18l-41.07-397.5z" fill="#fff" stroke="#262521" stroke-linecap="round" stroke-linejoin="round" stroke-width="3"/><path d="M218.93 620.76c-2.81 1.36-24.27 27.5-12.15 73.24" fill="none" stroke="#262521" stroke-linecap="round" stroke-linejoin="round" stroke-width="3"/><path fill="none" stroke="#262521" stroke-linecap="round" stroke-miterlimit="10" stroke-width="3" d="M638.21 849.63l-1.63-12.87 10.17-28.49M241 696.25s12.17 87.67 26.55 114.4l24.8 46.09"/><path d="M642 700.68S625.86 782.15 629.32 807c2.52 18.07 5.39 21.3 7.26 29.77M688.88 647.07s6.82-23.29-2.08-41.13" fill="none" stroke="#262521" stroke-linecap="round" stroke-miterlimit="10" stroke-width="3"/><path d="M276.32 1069.37c2.6-12 4.6-25.5 7.12-30.88 1.79-36.42 8.94-181.75 8.94-181.75l-4.11-7.63c-20.13 32-85.17 5-85.17 5l.24 27.76c98.58-27.74 72.87 185.32 72.98 187.5zM714.76 855.59l-2.3-18.17c-35.9 20.67-74.55 12.21-74.55 12.21s12 143.46 18.39 179.36a73.22 73.22 0 014.91 9.78c-1.01-10.86-22.44-178.98 53.55-183.18zM353.93 858.59s2.38-116.43 38-153.26 54.05-32.08 66.53-26.74 14.25 16 14.25 16 8.92-14.25 30.3-14.25 52.27 44.55 62.37 81.38 11.29 89.1 6.54 101c0 0-17.22-128.6-58.77-143.75l1-4.49a97.71 97.71 0 00-11.23-.32c-3.21.32-3.53 5.13-7.06 5.77s-5.73-.64-9.44-.64-4 2.89-7.56 3.21-9.01-2.5-11.86-2.5-4.82 1.93-9.31-.64-18.61-12.19-22.14-12.19-33 20.53-35 24.06-9.3 8-10.27 10.59-35.49 86.63-36.35 116.77z" fill="#262521"/><path d="M520.89 757.05a86.65 86.65 0 003.2-11.83c.7-4.6 1.81-9.47 0-11s.14-2.37.14-2.37S510.73 720 508.36 720s-5.85 2.09-5.85 2.09v28.12s3.76-4.88 5.15-4.88 3.9 5.29 4.88 5.29 3.48-3.2 4.59-2.92 3.76 9.35 3.76 9.35z" fill="#262521"/><path d="M501.82 755.38S498.48 793.54 495 797c0 0 22.83-30.5 24.36-35.23s-2.23-4.73-2.23-4.73l-.56-4.87-3.34 3.2-4-1.53-1-3.48zM442.51 717.09s-2.08 25.2-2.64 28.26-.56 5-2.23 5-2.09-5.71-5.43-6-5.29 9-7.79 8.91-5.16-13.92-4.6-17.4a14.27 14.27 0 013.2-14.62 63.41 63.41 0 0111.7-10.44s2.22 6.43 7.79 6.29z" fill="#262521"/><path d="M431.79 749.11s.56 6.69 6.27 5.57c0 0-7.66 30-16.57 42.33 0 0 3.62-34.25 1.67-40 0 .04 5.99 1.71 8.63-7.9zM357.61 866.57l4.6 3.86s4-8.24 7.88-7.69 4.61 12.45 5.8 12.9 33.9 16.65 49.66 19.33 44.16 4.9 65.12 2.67 77.91-31.82 77.91-31.82a21.25 21.25 0 01-8.77-4c-4.16-3.27-24.53-8-42.67-8.62s-25.13 4.9-28.84 6.09-10.41-.59-15.17 1.64-10.41 5.28-11.45 1.82-5.95-7.71-18.88-9.6-54.42-8.44-85.19 13.42zM418.12 808.14s4.9 19.77 6.84 24.38 1.19 10.85-2.53 11.15-6.24-5-6.24-5-1.49 5.52-5.36 5.06-7.58-6.55-4.61-10.27 11.9-20.27 11.9-25.32z" fill="#262521"/><path d="M369.66 862s5.55 25.92 7.74 32 1.35 14.23-2.86 14.62-7.07-6.63-7.07-6.63-1.69 7.24-6.06 6.64-8.59-8.59-5.22-13.46 13.47-26.58 13.47-33.17zM371.27 929.19s6.68 21.2 9.13 26.09 1.86 11.8-3 12.27c-4.2.41-6.54-5.12-6.54-5.12s-1.36 6.1-5.76 5.83-8.95-6.67-5.8-10.89 12.26-22.69 11.97-28.18z" fill="#262521"/></svg>