<svg xmlns="http://www.w3.org/2000/svg" xmlns:xlink="http://www.w3.org/1999/xlink" width="1250" height="1550" viewBox="0 0 1250 1550"><defs><clipPath id="a"><path d="M881.72,1043.63c-3.83-55.87-18.11-124.58-18.11-124.58s-23.86-307-62.16-332c-10.88-7.1-142.29-56.21-142.29-56.21s-2.49,55-82.84,55c-65.09,0-82.1-39.23-86.22-51.38a11.08,11.08,0,0,1-.74-2.59c-1.05.65-100.94,62.69-145.44,89.5-44.74,27-31.68,324.28-31.68,324.28a752.78,752.78,0,0,0-1.1,128.12c5.53,68.42-.88,179.2,15.45,197.94l62.46-1.5s-5.6-14.35-4.65-27c2.27-30.23,5.53-104.27,15.36-135.22s21.44-88.32,21.45-88.33c.48,23.68.29,42.23-1,50.32-3.59,21.92-31.66,102.79-17.77,133.08-3.34,29.28-2.63,35-2.63,35s71,13.89,148,13c137.52-1.66,259.57-24.64,259.57-24.64s-2.23-21.67-3.08-27.81c4.7-10.68-6.7-94.71-15.51-142.77,17.07,47.16,37.84,126.44,40.06,162.13,1.64,26.39,2.88,34.37,2.88,34.37h61.1s4.49-6.67,5.3-18.89S887.3,1124.89,881.72,1043.63Z" fill="none"/></clipPath></defs><title>s03e02-04</title><path d="M401.89,1235.47s59.7-17.78,201.6-22.29,198.12,9.94,198.12,9.94l21.11,287.24c-209.14,38.46-397.55,3.9-397.55,3.9Z" fill="#262521" stroke="#262521" stroke-linecap="round" stroke-linejoin="round" stroke-width="3"/><g clip-path="url(#a)"><rect x="280.94" y="481.71" width="678.32" height="834.48" fill="#262521"/><rect x="529.71" y="683.72" width="23.98" height="22.39" rx="3.75" transform="translate(-25.47 20.63) rotate(-2.13)" fill="#fff"/><path d="M527,666.74l-13.18.49a3.77,3.77,0,0,0-3.61,3.9l.56,14.87a3.75,3.75,0,0,0,3.89,3.61l16.45-.61a3.77,3.77,0,0,0,3.62-3.89l-.54-14.33A33.42,33.42,0,0,1,527,666.74Z" fill="#fff"/><path d="M548.12,673.3l.42,11.3a3.77,3.77,0,0,0,3.89,3.61l16.46-.62a3.75,3.75,0,0,0,3.61-3.89l-.22-6.05C564.09,676.91,555.83,676.25,548.12,673.3Z" fill="#fff"/><path d="M588,677.3l.22,5.82a3.77,3.77,0,0,0,3.89,3.61l16.46-.61a3.77,3.77,0,0,0,3.61-3.9l-.52-14.08C607.93,669.6,592.35,676.15,588,677.3Z" fill="#fff"/><rect x="568.4" y="682.28" width="23.98" height="22.39" rx="3.75" transform="matrix(1, -0.04, 0.04, 1, -25.39, 22.07)" fill="#fff"/><rect x="511.83" y="704.1" width="23.98" height="22.39" rx="3.75" transform="translate(-26.24 19.98) rotate(-2.13)" fill="#fff"/><rect x="549.64" y="702.7" width="23.98" height="22.39" rx="3.75" transform="translate(-26.17 21.39) rotate(-2.13)" fill="#fff"/><rect x="531.01" y="718.71" width="23.98" height="22.39" rx="3.75" transform="translate(-26.77 20.7) rotate(-2.13)" fill="#fff"/><path d="M589.6,739.38l-16.46.61a3.77,3.77,0,0,1-3.89-3.61l-.55-14.88c-.08-2.06,1.55-3.81,4.35-3.92L589.5,717c1.33-.05,3.08,1.58,3.16,3.64l.55,14.88A3.77,3.77,0,0,1,589.6,739.38Z" fill="#fff"/><rect x="513.14" y="739.09" width="23.98" height="22.39" rx="3.75" transform="translate(-27.55 20.05) rotate(-2.13)" fill="#fff"/><rect x="550.94" y="737.69" width="23.98" height="22.39" rx="3.75" transform="translate(-27.47 21.46) rotate(-2.13)" fill="#fff"/><rect x="532.35" y="754.59" width="23.98" height="22.39" rx="3.75" transform="translate(-28.11 20.78) rotate(-2.13)" fill="#fff"/><rect x="571.04" y="753.15" width="23.98" height="22.39" rx="3.75" transform="translate(-28.03 22.22) rotate(-2.13)" fill="#fff"/><rect x="514.47" y="774.97" width="23.98" height="22.39" rx="3.75" transform="translate(-28.88 20.13) rotate(-2.13)" fill="#fff"/><rect x="496.71" y="755.91" width="23.98" height="22.39" rx="3.75" transform="translate(-28.18 19.45) rotate(-2.13)" fill="#fff"/><rect x="478.83" y="776.3" width="23.98" height="22.39" rx="3.75" transform="translate(-28.95 18.8) rotate(-2.13)" fill="#fff"/><rect x="552.28" y="773.56" width="23.98" height="22.39" rx="3.75" transform="translate(-28.8 21.53) rotate(-2.13)" fill="#fff"/><rect x="533.75" y="792.33" width="23.98" height="22.39" rx="3.75" transform="translate(-29.51 20.86) rotate(-2.13)" fill="#fff"/><rect x="572.44" y="790.89" width="23.98" height="22.39" rx="3.75" transform="translate(-29.43 22.29) rotate(-2.13)" fill="#fff"/><rect x="515.88" y="812.71" width="23.98" height="22.39" rx="3.75" transform="translate(-30.28 20.21) rotate(-2.13)" fill="#fff"/><rect x="498.11" y="793.66" width="23.98" height="22.39" rx="3.75" transform="matrix(1, -0.04, 0.04, 1, -29.59, 19.53)" fill="#fff"/><rect x="460.88" y="795.04" width="23.98" height="22.39" rx="3.75" transform="translate(-29.66 18.15) rotate(-2.13)" fill="#fff"/><rect x="480.24" y="814.04" width="23.98" height="22.39" rx="3.75" transform="translate(-30.36 18.88) rotate(-2.13)" fill="#fff"/><rect x="553.69" y="811.31" width="23.98" height="22.39" rx="3.75" transform="translate(-30.2 21.61) rotate(-2.13)" fill="#fff"/><rect x="609.3" y="680.76" width="23.98" height="22.39" rx="3.75" transform="translate(1267.88 1360.32) rotate(177.87)" fill="#fff"/><rect x="627.26" y="662.57" width="23.98" height="22.39" rx="3.75" transform="translate(1303.11 1323.3) rotate(177.87)" fill="#fff"/><rect x="628.64" y="699.76" width="23.98" height="22.39" rx="3.75" transform="translate(1307.26 1397.59) rotate(177.87)" fill="#fff"/><rect x="589.36" y="701.22" width="23.98" height="22.39" rx="3.75" transform="translate(1228.78 1401.97) rotate(177.87)" fill="#fff"/><rect x="610.6" y="715.75" width="23.98" height="22.39" rx="3.75" transform="translate(1271.78 1430.23) rotate(177.87)" fill="#fff"/><rect x="628.47" y="734.8" width="23.98" height="22.39" rx="3.75" transform="translate(1308.22 1467.66) rotate(177.87)" fill="#fff"/><rect x="590.66" y="736.21" width="23.98" height="22.39" rx="3.75" transform="translate(1232.68 1471.88) rotate(177.87)" fill="#fff"/><rect x="610.46" y="751.68" width="23.98" height="22.39" rx="3.75" transform="translate(1272.85 1502.07) rotate(177.87)" fill="#fff"/><rect x="629.8" y="770.68" width="23.98" height="22.39" rx="3.75" transform="translate(1312.23 1539.34) rotate(177.87)" fill="#fff"/><rect x="646.1" y="750.35" width="23.98" height="22.39" rx="3.75" transform="translate(1344.05 1498.09) rotate(177.87)" fill="#fff"/><rect x="665.44" y="769.35" width="23.98" height="22.39" rx="3.75" transform="translate(1383.43 1535.36) rotate(177.87)" fill="#fff"/><rect x="592" y="772.09" width="23.98" height="22.39" rx="3.75" transform="translate(1236.69 1543.56) rotate(177.87)" fill="#fff"/><rect x="611.87" y="789.42" width="23.98" height="22.39" rx="3.75" transform="translate(1277.06 1577.48) rotate(177.87)" fill="#fff"/><rect x="631.21" y="808.42" width="23.98" height="22.39" rx="3.75" transform="translate(1316.44 1614.74) rotate(177.87)" fill="#fff"/><rect x="647.51" y="788.1" width="23.98" height="22.39" rx="3.75" transform="translate(1348.27 1573.5) rotate(177.87)" fill="#fff"/><rect x="593.4" y="809.83" width="23.98" height="22.39" rx="3.75" transform="translate(1240.9 1618.96) rotate(177.87)" fill="#fff"/><rect x="684.74" y="786.71" width="23.98" height="22.39" rx="3.75" transform="translate(1422.65 1569.35) rotate(177.87)" fill="#fff"/><rect x="666.85" y="807.09" width="23.98" height="22.39" rx="3.75" transform="translate(1387.64 1610.77) rotate(177.87)" fill="#fff"/><path d="M503.48,670.81s13.86,91.37-52.69,137.4c4.13,6.87-3.81,12.22-3.81,12.22l19,29.84s51.44-14.91,98.94-3.68c0,0,6.67-9.7,21.75-10.26" fill="none" stroke="#fff" stroke-linecap="round" stroke-linejoin="round" stroke-width="8.84"/><path d="M657.41,665.08s-10,100,70.93,137.66L708.1,841.26s-52.4-11-98.93,3.68c0,0-7.38-9.18-22.46-8.61" fill="none" stroke="#fff" stroke-linecap="round" stroke-linejoin="round" stroke-width="8.84"/><circle cx="577.43" cy="633.54" r="10.69" fill="none" stroke="#fff" stroke-linecap="round" stroke-miterlimit="10" stroke-width="1.47"/><circle cx="577.44" cy="633.69" r="9.07" fill="none" stroke="#fff" stroke-linecap="round" stroke-miterlimit="10" stroke-width="1.47"/><line x1="576.87" y1="618.56" x2="577.21" y2="627.53" fill="none" stroke="#fff" stroke-linecap="round" stroke-miterlimit="10" stroke-width="2.95"/><ellipse cx="429.36" cy="715.45" rx="75.6" ry="44.16" transform="translate(-381.12 913.78) rotate(-72.78)" fill="none" stroke="#fff" stroke-linecap="round" stroke-miterlimit="10" stroke-width="10.31"/><ellipse cx="428.39" cy="715.72" rx="52.6" ry="28.98" transform="translate(-382.06 913.04) rotate(-72.78)" fill="none" stroke="#fff" stroke-linecap="round" stroke-miterlimit="10" stroke-width="5.89"/><ellipse cx="427.04" cy="712.51" rx="23.9" ry="13.17" transform="translate(-379.95 909.49) rotate(-72.78)" fill="none" stroke="#fff" stroke-linecap="round" stroke-miterlimit="10" stroke-width="5.89"/><line x1="422" y1="672.16" x2="459.76" y2="691.34" fill="none" stroke="#fff" stroke-linecap="round" stroke-miterlimit="10" stroke-width="1.47"/><line x1="416.6" y1="681.28" x2="458.9" y2="702.77" fill="none" stroke="#fff" stroke-linecap="round" stroke-miterlimit="10" stroke-width="1.47"/><line x1="409.71" y1="689.45" x2="457.55" y2="713.76" fill="none" stroke="#fff" stroke-linecap="round" stroke-miterlimit="10" stroke-width="1.47"/><line x1="406.31" y1="697.62" x2="454.15" y2="721.92" fill="none" stroke="#fff" stroke-linecap="round" stroke-miterlimit="10" stroke-width="1.47"/><line x1="401.92" y1="707.7" x2="449.76" y2="732.01" fill="none" stroke="#fff" stroke-linecap="round" stroke-miterlimit="10" stroke-width="1.47"/><line x1="399.17" y1="717.73" x2="447.01" y2="742.03" fill="none" stroke="#fff" stroke-linecap="round" stroke-miterlimit="10" stroke-width="1.47"/><line x1="394.56" y1="727.97" x2="442.4" y2="752.28" fill="none" stroke="#fff" stroke-linecap="round" stroke-miterlimit="10" stroke-width="1.47"/><line x1="399.64" y1="739.72" x2="438.53" y2="759.48" fill="none" stroke="#fff" stroke-linecap="round" stroke-miterlimit="10" stroke-width="1.47"/><path d="M357.32,623.21s19.21,51.23,25.85,44.53,12.83-25.82,45.64-37c7.07-2.4-14.35-43-14.35-43" fill="none" stroke="#fff" stroke-linecap="round" stroke-miterlimit="10" stroke-width="1.47"/><path d="M373.13,612.85s14,35.81,19.32,41.3" fill="none" stroke="#fff" stroke-linecap="round" stroke-miterlimit="10" stroke-width="1.47"/><path d="M387.64,602.17s13.39,38.45,16.52,41.45" fill="none" stroke="#fff" stroke-linecap="round" stroke-miterlimit="10" stroke-width="1.47"/><path d="M401.62,596s11.73,30.46,15.23,39.76" fill="none" stroke="#fff" stroke-linecap="round" stroke-miterlimit="10" stroke-width="1.47"/><polyline points="369.44 683.18 345.2 707.9 359.45 752.9" fill="none" stroke="#fff" stroke-linecap="round" stroke-linejoin="round" stroke-width="2.95"/><ellipse cx="733.88" cy="704.12" rx="44.16" ry="75.6" transform="translate(-206.88 317.67) rotate(-21.48)" fill="none" stroke="#fff" stroke-linecap="round" stroke-miterlimit="10" stroke-width="10.31"/><ellipse cx="734.88" cy="704.31" rx="28.98" ry="52.6" transform="translate(-206.88 318.05) rotate(-21.48)" fill="none" stroke="#fff" stroke-linecap="round" stroke-miterlimit="10" stroke-width="5.89"/><ellipse cx="735.98" cy="701.01" rx="13.17" ry="23.9" transform="translate(-205.59 318.22) rotate(-21.48)" fill="none" stroke="#fff" stroke-linecap="round" stroke-miterlimit="10" stroke-width="5.89"/><line x1="744.07" y1="669.09" x2="703.48" y2="693.67" fill="none" stroke="#fff" stroke-linecap="round" stroke-miterlimit="10" stroke-width="1.47"/><line x1="751.55" y1="676.72" x2="705.65" y2="704.52" fill="none" stroke="#fff" stroke-linecap="round" stroke-miterlimit="10" stroke-width="1.47"/><line x1="755.55" y1="684.62" x2="709.65" y2="712.41" fill="none" stroke="#fff" stroke-linecap="round" stroke-miterlimit="10" stroke-width="1.47"/><line x1="760.68" y1="694.35" x2="714.77" y2="722.15" fill="none" stroke="#fff" stroke-linecap="round" stroke-miterlimit="10" stroke-width="1.47"/><line x1="764.16" y1="704.14" x2="718.26" y2="731.94" fill="none" stroke="#fff" stroke-linecap="round" stroke-miterlimit="10" stroke-width="1.47"/><line x1="769.52" y1="714.02" x2="723.62" y2="741.81" fill="none" stroke="#fff" stroke-linecap="round" stroke-miterlimit="10" stroke-width="1.47"/><line x1="737.11" y1="660.43" x2="700.88" y2="682.36" fill="none" stroke="#fff" stroke-linecap="round" stroke-miterlimit="10" stroke-width="1.47"/><line x1="764.34" y1="727.78" x2="729.17" y2="749.07" fill="none" stroke="#fff" stroke-linecap="round" stroke-miterlimit="10" stroke-width="1.47"/><path d="M796.31,596.79s-12.79,62.5-19.91,56.32-14.71-24.8-48.26-33.46c-7.23-1.87,12.4-47,12.4-47" fill="none" stroke="#fff" stroke-linecap="round" stroke-miterlimit="10" stroke-width="1.47"/><path d="M782,586.14s-11,48.23-15.88,54.1" fill="none" stroke="#fff" stroke-linecap="round" stroke-miterlimit="10" stroke-width="1.47"/><path d="M770.58,580.67s-14,46.71-16.9,49.94" fill="none" stroke="#fff" stroke-linecap="round" stroke-miterlimit="10" stroke-width="1.47"/><path d="M755.93,576.42s-12.69,37.73-15.49,47.26" fill="none" stroke="#fff" stroke-linecap="round" stroke-miterlimit="10" stroke-width="1.47"/><polyline points="785.54 668.38 811.55 691.23 800.68 737.17" fill="none" stroke="#fff" stroke-linecap="round" stroke-linejoin="round" stroke-width="2.95"/><path d="M416.46,911.66c0,7.67,0,15.33.08,23,2.39,4.64,5.11,8.12,7.88,8,8.2-.31,9.73-31.67,9.73-31.67Z" fill="#fff"/><path d="M429.06,911.19l25.7-1s-1.53,31.37-9.73,31.67S429.06,911.19,429.06,911.19Z" fill="#fff"/><path d="M449.67,910.43l25.7-1s-1.53,31.37-9.73,31.67S449.67,910.43,449.67,910.43Z" fill="#fff"/><path d="M470.34,909.66l25.69-1s-1.53,31.37-9.73,31.68S470.34,909.66,470.34,909.66Z" fill="#fff"/><path d="M490.94,908.89l25.7-1s-1.53,31.37-9.73,31.68S490.94,908.89,490.94,908.89Z" fill="#fff"/><path d="M511.23,908.14l25.7-1s-1.53,31.37-9.73,31.67S511.23,908.14,511.23,908.14Z" fill="#fff"/><path d="M531.84,907.37l25.7-1s-1.53,31.37-9.73,31.68S531.84,907.37,531.84,907.37Z" fill="#fff"/><path d="M552.5,906.6l25.7-1s-1.53,31.37-9.73,31.68S552.5,906.6,552.5,906.6Z" fill="#fff"/><path d="M573.11,905.83l25.7-1s-1.53,31.36-9.73,31.67S573.11,905.83,573.11,905.83Z" fill="#fff"/><path d="M614.9,904.28l25.69-1s-1.53,31.37-9.73,31.67S614.9,904.28,614.9,904.28Z" fill="#fff"/><path d="M593.63,905.07l25.7-1s-1.53,31.37-9.73,31.68S593.63,905.07,593.63,905.07Z" fill="#fff"/><path d="M635.51,903.51l25.69-1s-1.53,31.37-9.73,31.68S635.51,903.51,635.51,903.51Z" fill="#fff"/><path d="M655.79,902.76l25.7-1s-1.53,31.37-9.73,31.67S655.79,902.76,655.79,902.76Z" fill="#fff"/><path d="M676.4,902l25.7-1s-1.53,31.37-9.73,31.67S676.4,902,676.4,902Z" fill="#fff"/><path d="M697.06,901.22l25.7-1s-1.53,31.37-9.73,31.68S697.06,901.22,697.06,901.22Z" fill="#fff"/><path d="M717.67,900.45l25.7-1s-1.53,31.36-9.73,31.67S717.67,900.45,717.67,900.45Z" fill="#fff"/><path d="M738.36,899.68l25.7-.95s-1.53,31.36-9.73,31.67S738.36,899.68,738.36,899.68Z" fill="#fff"/><path d="M776.17,898.27l-17.15.64s7.77,31,16,30.72c2.12-.08,3.79-2.24,5.1-5.39C778.49,915.62,776.39,907.07,776.17,898.27Z" fill="#fff"/><path d="M418.54,955.51c3.29-.13,3.95,17.54,7.24,17.42s2.63-17.79,5.92-17.92,3.95,17.55,7.25,17.42,2.63-17.79,5.92-17.91,3.95,17.54,7.24,17.42S454.75,954.15,458,954s3.95,17.54,7.24,17.42,2.63-17.79,5.93-17.91,4,17.54,7.24,17.42,2.63-17.79,5.92-17.91,4,17.54,7.25,17.41,2.63-17.78,5.92-17.91,4,17.55,7.25,17.42,2.63-17.79,5.92-17.91,3.95,17.54,7.25,17.42,2.63-17.79,5.92-17.91,4,17.54,7.25,17.42,2.63-17.79,5.92-17.91,4,17.54,7.25,17.42,2.63-17.79,5.92-17.92,3.95,17.55,7.25,17.42,2.63-17.78,5.92-17.91,4,17.54,7.25,17.42,2.63-17.79,5.92-17.91,4,17.54,7.24,17.42,2.64-17.79,5.93-17.91,3.95,17.54,7.24,17.42,2.63-17.79,5.92-17.91,4,17.54,7.24,17.42,2.64-17.79,5.93-17.92,4,17.55,7.24,17.42,2.63-17.79,5.93-17.91,3.95,17.54,7.24,17.42,2.63-17.79,5.93-17.91,4,17.54,7.24,17.42,2.63-17.79,5.93-17.91,3.95,17.54,7.24,17.42,2.63-17.79,5.93-17.91,4,17.54,7.24,17.41,2.64-17.78,5.93-17.91,4,17.55,7.25,17.42,2.63-17.79,5.93-17.91,3.95,17.54,7.24,17.42,2.64-17.79,5.93-17.91,4,17.54,7.25,17.42,2.63-17.79,5.92-17.91,4,17.54,7.25,17.41,2.63-17.78,5.93-17.91,3.95,17.55,7.25,17.42,2.63-17.79,5.92-17.91,4,17.54,7.26,17.42,2.63-17.79,5.92-17.91,4,17.54,7.25,17.42,2.64-17.79,5.94-17.91,4,17.54,7.26,17.41" fill="none" stroke="#fff" stroke-linecap="round" stroke-linejoin="round" stroke-width="1.47"/><path d="M408.76,1135.68c2.27.08,3.92,17.83,6.17,17.91s5.12-17.52,7.37-17.45,4,17.82,6.24,17.89,5-17.54,7.31-17.48,4.06,17.8,6.31,17.86,5-17.56,7.23-17.51,4.13,17.78,6.39,17.83,4.9-17.58,7.15-17.53,4.21,17.76,6.47,17.8,4.83-17.6,7.08-17.56,4.28,17.74,6.54,17.77,4.75-17.62,7-17.59,4.37,17.72,6.62,17.74,4.68-17.64,6.93-17.62,4.44,17.7,6.69,17.71,4.6-17.66,6.85-17.65,4.53,17.68,6.78,17.68,4.51-17.68,6.76-17.69,4.61,17.67,6.86,17.66,4.43-17.7,6.68-17.72,4.69,17.64,6.94,17.62,4.35-17.72,6.6-17.75,4.78,17.62,7,17.59,4.26-17.75,6.51-17.79,4.87,17.6,7.11,17.55,4.17-17.77,6.42-17.82,5,17.58,7.2,17.52,4.08-17.79,6.32-17.85,5.06,17.54,7.3,17.47,4-17.81,6.23-17.88,5.15,17.51,7.39,17.43,3.88-17.83,6.12-17.92,5.26,17.49,7.5,17.4,3.78-17.86,6-18,5.36,17.45,7.59,17.35,3.68-17.88,5.91-18,5.47,17.42,7.7,17.3,3.57-17.91,5.8-18,5.59,17.38,7.82,17.25,3.45-17.93,5.67-18.07,5.71,17.34,7.94,17.19,3.32-17.95,5.54-18.1,5.85,17.3,8.06,17.13,3.2-18,5.42-18.15,6,17.26,8.19,17.08,3.06-18,5.27-18.19,6.13,17.2,8.33,17,2.91-18,5.1-18.23,6.31,17.15,8.49,16.92,2.75-18,4.93-18.28c2.33-.25,6.5,17.08,8.66,16.84,2.35-.26,2.58-18.09,4.72-18.34,2.37-.28,6.74,17,8.86,16.74,2.41-.3,2.4-18.13,4.49-18.4,2.46-.33,7.09,16.88,9.11,16.6,2.62-.37,2.29-18.19,4.14-18.48,4.45-.67,8,16.5,8,16.5" fill="none" stroke="#fff" stroke-linecap="round" stroke-linejoin="round" stroke-width="1.47"/><path d="M493.58,880.56a4.69,4.69,0,0,0-.19-1.15,2.32,2.32,0,0,0-.56-.93,2.48,2.48,0,0,0-1-.63,3.88,3.88,0,0,0-1.53-.21l0-.72c1.68.06,3.34.05,5,0,.9,0,1.82-.08,2.74-.16l2.74-.22,0,.72a4.28,4.28,0,0,0-1.58.32,2.66,2.66,0,0,0-1,.7,2.5,2.5,0,0,0-.48,1,4.4,4.4,0,0,0-.11,1.16l.23,6.12c.16-.13.44-.38.84-.74s.85-.81,1.36-1.3,1-1,1.6-1.58,1.06-1.1,1.51-1.63a15.85,15.85,0,0,0,1.13-1.47,2,2,0,0,0,.43-1.06,1.07,1.07,0,0,0-.23-.65,2.56,2.56,0,0,0-.55-.48,3.39,3.39,0,0,0-.7-.31,3,3,0,0,0-.67-.12l0-.73a21,21,0,0,0,2.37.08l2.4-.08c.85,0,1.67-.07,2.45-.12s1.61-.13,2.45-.24l0,.73a8.19,8.19,0,0,0-2.83,1,15.68,15.68,0,0,0-2.44,1.7c-.77.64-1.51,1.33-2.22,2s-1.44,1.41-2.18,2l6.54,8.68c.34.46.68.86,1,1.23a6.15,6.15,0,0,0,1.06.93,5.07,5.07,0,0,0,1.23.62,6.36,6.36,0,0,0,1.59.29l0,.73c-.91,0-1.83,0-2.75,0s-1.83,0-2.74.07-1.81.08-2.7.13-1.79.12-2.69.19l0-.6.67-.18a3.72,3.72,0,0,0,.82-.31,2.93,2.93,0,0,0,.7-.46.83.83,0,0,0,.27-.66,2.09,2.09,0,0,0-.38-.82c-.24-.41-.56-.88-.94-1.43s-.81-1.12-1.27-1.74-.9-1.21-1.34-1.77L500.5,887l-.74-1-1.85,1.59.19,5.18a8.93,8.93,0,0,0,.14,1.29,1.94,1.94,0,0,0,.45.92,2,2,0,0,0,1,.56,6.54,6.54,0,0,0,1.74.21l0,.73c-.93,0-1.85,0-2.76,0s-1.82,0-2.73.07-1.65.07-2.46.12l-2.45.18,0-.72a6.64,6.64,0,0,0,1.71-.34,2.15,2.15,0,0,0,.92-.63,2,2,0,0,0,.37-1,7.59,7.59,0,0,0,0-1.29Z" fill="#fff" stroke="#fff" stroke-linecap="round" stroke-linejoin="round" stroke-width="2.21"/><path d="M534.29,881.62a9,9,0,0,0-1-2.65,4.25,4.25,0,0,0-1.44-1.45,4.66,4.66,0,0,0-1.9-.59,15.73,15.73,0,0,0-2.43-.06l.54,14.49a12.84,12.84,0,0,0,.15,1.67,1.94,1.94,0,0,0,.47,1,1.85,1.85,0,0,0,1,.54,9.62,9.62,0,0,0,1.83.21l0,.6H529l-2.59.06c-.93,0-1.85.08-2.76.14s-1.84.12-2.81.19l0-.6a11.17,11.17,0,0,0,1.8-.34,2,2,0,0,0,1-.62,2,2,0,0,0,.39-1.06,14.43,14.43,0,0,0,0-1.68L523.47,877a16.36,16.36,0,0,0-2.42.24,4.72,4.72,0,0,0-1.86.74,4.14,4.14,0,0,0-1.32,1.55,9,9,0,0,0-.79,2.71l-.79,0c0-.38.05-.77.06-1.17s0-.83,0-1.32,0-1,0-1.67,0-1.36,0-2.18l4.49-.05c1.47,0,3,0,4.45-.1s3-.14,4.55-.23l4.57-.3c0,.83.07,1.56.11,2.19s.09,1.18.14,1.66.1.92.14,1.31.1.79.15,1.17Z" fill="#fff" stroke="#fff" stroke-linecap="round" stroke-linejoin="round" stroke-width="2.21"/><path d="M541.3,881.51q0-.36-.06-.87l0-1.07a20.93,20.93,0,0,1,0-2.26,18.79,18.79,0,0,1,.32-2.3c1.38,0,2.74,0,4.09,0s2.7,0,4.08-.07l4.31-.19c1.43-.08,2.87-.18,4.32-.32l.36.72q-1.89,2.16-3.62,4.44t-3.36,4.62q-1.65,2.34-3.25,4.71c-1.08,1.57-2.18,3.13-3.32,4.67q.6,0,1.23.06c.42,0,.82,0,1.23,0a21.66,21.66,0,0,0,3.51-.39,11.34,11.34,0,0,0,3-1,8.32,8.32,0,0,0,2.43-1.87,8,8,0,0,0,1.63-2.91l.75,0A28.74,28.74,0,0,1,558,891a29.06,29.06,0,0,1-1.4,3.48c-1.4,0-2.77,0-4.13.06s-2.73.07-4.12.13-2.71.11-4.06.18-2.71.15-4.06.24l-.54-.62,13.6-18.81q-2.76.11-4.83.3a11.84,11.84,0,0,0-3.47.8,4.66,4.66,0,0,0-2.1,1.7,6,6,0,0,0-.8,3Z" fill="#fff" stroke="#fff" stroke-linecap="round" stroke-linejoin="round" stroke-width="2.21"/><path d="M632.54,878a8.77,8.77,0,0,0-1-2.65,4.14,4.14,0,0,0-1.43-1.45,4.76,4.76,0,0,0-1.91-.6,17.1,17.1,0,0,0-2.43-.06l.54,14.49a15.11,15.11,0,0,0,.15,1.68,2,2,0,0,0,.47,1,2,2,0,0,0,1,.54,10.67,10.67,0,0,0,1.83.2l0,.61h-2.56c-.86,0-1.73,0-2.6.07s-1.85.08-2.75.13-1.85.12-2.82.2l0-.61a10.31,10.31,0,0,0,1.81-.34,1.91,1.91,0,0,0,1-.61,1.94,1.94,0,0,0,.39-1.07,14.38,14.38,0,0,0,0-1.68l-.54-14.49a16.36,16.36,0,0,0-2.42.24,4.78,4.78,0,0,0-1.86.74,4.14,4.14,0,0,0-1.32,1.55,9,9,0,0,0-.79,2.72l-.79,0c0-.39.05-.78.06-1.18s0-.83,0-1.32,0-1,0-1.67,0-1.35,0-2.18l4.49,0c1.47,0,3,0,4.46-.1s3-.14,4.54-.23l4.57-.29c0,.83.07,1.55.11,2.18s.09,1.18.14,1.66.1.92.14,1.32l.15,1.16Z" fill="#fff" stroke="#fff" stroke-linecap="round" stroke-linejoin="round" stroke-width="2.21"/><path d="M636.49,871.47l2,0c.66,0,1.32,0,2,0,1.64-.06,3.27-.18,4.9-.37l0,.73c-.26,0-.52,0-.77.06a2,2,0,0,0-.69.21,1.26,1.26,0,0,0-.5.44,1.32,1.32,0,0,0-.17.8,5.25,5.25,0,0,0,.26.76c.17.45.39,1,.67,1.72l.95,2.36c.36.88.72,1.78,1.09,2.7s.73,1.82,1.09,2.7.67,1.7.94,2.44h.06l3-8.58c-.5-1.24-.92-2.21-1.27-2.93a10.08,10.08,0,0,0-1-1.65,2.58,2.58,0,0,0-1-.78,4.59,4.59,0,0,0-1.19-.3l0-.73c1.5.06,3,.07,4.43,0,.85,0,1.7-.09,2.56-.16l2.56-.22,0,.73-.84.11a3.71,3.71,0,0,0-.9.23,2,2,0,0,0-.71.47,1,1,0,0,0-.28.81,5.58,5.58,0,0,0,.32,1.13c.2.59.46,1.29.78,2.12s.66,1.72,1.05,2.66l1.14,2.77c.36.9.71,1.71,1,2.44s.55,1.28.71,1.65c.11-.28.29-.76.54-1.43s.53-1.42.84-2.28.63-1.75,1-2.7.63-1.86.9-2.71.49-1.6.66-2.27a5.74,5.74,0,0,0,.24-1.42,1.46,1.46,0,0,0-.29-.87,2,2,0,0,0-.67-.5,3.63,3.63,0,0,0-.83-.26,6.12,6.12,0,0,0-.8-.09l0-.73,1.9,0c.61,0,1.25,0,1.89,0s1.17-.06,1.74-.13l1.74-.18,0,.73a4.69,4.69,0,0,0-1.2.33,2.7,2.7,0,0,0-.83.56,3.8,3.8,0,0,0-.62.8,8.71,8.71,0,0,0-.56,1.07c-.18.41-.44,1-.78,1.85s-.7,1.76-1.11,2.82l-1.28,3.35c-.46,1.18-.89,2.34-1.3,3.48s-.79,2.21-1.14,3.2-.63,1.82-.85,2.48l-1.06,0-5-12.17c-.71,2.14-1.46,4.23-2.27,6.28s-1.6,4.14-2.39,6.25l-.91,0-6.52-16.27c-.16-.42-.33-.81-.5-1.17a4,4,0,0,0-.63-.93,2.47,2.47,0,0,0-.87-.62,3.13,3.13,0,0,0-1.27-.23Z" fill="#fff" stroke="#fff" stroke-linecap="round" stroke-linejoin="round" stroke-width="2.21"/><path d="M688.56,875.88a8.87,8.87,0,0,0-1-2.65,4.25,4.25,0,0,0-1.44-1.45,4.82,4.82,0,0,0-1.9-.6,18.72,18.72,0,0,0-2.43-.06l.54,14.49a11.31,11.31,0,0,0,.15,1.68,2,2,0,0,0,.46,1,1.92,1.92,0,0,0,1,.54,10.52,10.52,0,0,0,1.83.21l0,.6c-.85,0-1.71,0-2.57,0l-2.59.06c-.93,0-1.85.08-2.76.14s-1.84.11-2.81.19l0-.6a10,10,0,0,0,1.81-.35,1.88,1.88,0,0,0,1-.61,2.07,2.07,0,0,0,.39-1.06,14.61,14.61,0,0,0,0-1.69l-.54-14.49a17.71,17.71,0,0,0-2.42.25,4.71,4.71,0,0,0-1.86.73,4.18,4.18,0,0,0-1.32,1.56,9.24,9.24,0,0,0-.8,2.71l-.78,0c0-.38,0-.78.06-1.17s0-.84,0-1.32,0-1,0-1.67,0-1.36-.06-2.19l4.5,0c1.47,0,3,0,4.45-.11s3-.13,4.55-.23l4.57-.29c0,.83.07,1.56.11,2.18s.09,1.18.14,1.67.09.92.14,1.31.09.78.15,1.17Z" fill="#fff" stroke="#fff" stroke-linecap="round" stroke-linejoin="round" stroke-width="2.21"/><path d="M712.09,876.7a9.56,9.56,0,0,0-1-2.65,9.21,9.21,0,0,0-1.66-2.21,7.81,7.81,0,0,0-2.2-1.5,5.74,5.74,0,0,0-2.61-.49,5.39,5.39,0,0,0-3,.93,6.51,6.51,0,0,0-1.93,2.15,9.17,9.17,0,0,0-1,2.84,14.93,14.93,0,0,0-.2,3,11.13,11.13,0,0,0,.64,3.45,7.78,7.78,0,0,0,1.62,2.7,6.83,6.83,0,0,0,2.57,1.73,8.82,8.82,0,0,0,3.52.52,7.74,7.74,0,0,0,2.58-.52,8.36,8.36,0,0,0,2-1.17,9.34,9.34,0,0,0,1.58-1.56,20.57,20.57,0,0,0,1.2-1.7l.75.73a12.85,12.85,0,0,1-4.1,4.67,11,11,0,0,1-5.92,1.8,11.55,11.55,0,0,1-4.21-.58,9.56,9.56,0,0,1-5.69-5.2,11.35,11.35,0,0,1-.94-4.29,11,11,0,0,1,.65-4.32,9.65,9.65,0,0,1,2.16-3.37,10.4,10.4,0,0,1,3.4-2.25,12.58,12.58,0,0,1,4.43-.92,13.31,13.31,0,0,1,2,.09c.77.08,1.51.18,2.22.29l1.93.31a7.12,7.12,0,0,0,1,.13,1.14,1.14,0,0,0,.34,0c0,.4,0,.79,0,1.17s0,.76,0,1.17c0,.85.1,1.69.19,2.52s.2,1.68.33,2.53Z" fill="#fff" stroke="#fff" stroke-linecap="round" stroke-linejoin="round" stroke-width="2.21"/><path d="M435.24,986.4a3.59,3.59,0,0,0-3.71-3.45l-13,.49c0,7.37.18,14.75.73,22.1l13.07-.48a3.61,3.61,0,0,0,3.45-3.72Z" fill="#fff"/><rect x="444.97" y="982.05" width="22.12" height="22.12" rx="3.58" transform="translate(-36.63 17.65) rotate(-2.13)" fill="#fff"/><rect x="430.29" y="997.76" width="22.12" height="22.12" rx="3.58" transform="translate(-37.22 17.12) rotate(-2.13)" fill="#fff"/><rect x="730.1" y="971.43" width="22.12" height="22.12" rx="3.58" transform="translate(-36.03 28.25) rotate(-2.13)" fill="#fff"/><rect x="761.66" y="970.26" width="22.12" height="22.12" rx="3.58" transform="translate(-35.97 29.42) rotate(-2.13)" fill="#fff"/><rect x="746.98" y="985.98" width="22.12" height="22.12" rx="3.58" transform="translate(-36.56 28.89) rotate(-2.13)" fill="#fff"/><rect x="538.18" y="978.58" width="22.12" height="22.12" rx="3.58" transform="translate(-36.43 21.12) rotate(-2.13)" fill="#fff"/><rect x="569.74" y="977.4" width="22.12" height="22.12" rx="3.58" transform="translate(-36.37 22.29) rotate(-2.13)" fill="#fff"/><rect x="555.06" y="993.12" width="22.12" height="22.12" rx="3.58" transform="translate(-36.96 21.75) rotate(-2.13)" fill="#fff"/><rect x="522.39" y="994.34" width="22.12" height="22.12" rx="3.58" transform="matrix(1, -0.04, 0.04, 1, -37.03, 20.54)" fill="#fff"/><rect x="603.26" y="976.16" width="22.12" height="22.12" rx="3.58" transform="translate(-36.3 23.53) rotate(-2.13)" fill="#fff"/><rect x="634.82" y="974.98" width="22.12" height="22.12" rx="3.58" transform="translate(-36.23 24.71) rotate(-2.13)" fill="#fff"/><rect x="620.14" y="990.7" width="22.12" height="22.12" rx="3.58" transform="translate(-36.83 24.17) rotate(-2.13)" fill="#fff"/><rect x="651.09" y="989.55" width="22.12" height="22.12" rx="3.58" transform="translate(-36.76 25.32) rotate(-2.13)" fill="#fff"/><rect x="587.47" y="991.91" width="22.12" height="22.12" rx="3.58" transform="translate(-36.89 22.96) rotate(-2.13)" fill="#fff"/><path d="M675.71,979.08q2.12.1,4.14,0c.69,0,1.36-.07,2-.14l2-.19,0,.72a2.4,2.4,0,0,0-1,.26,1,1,0,0,0-.44,1,3,3,0,0,0,.43,1.13c.28.51.6,1,1,1.61s.72,1.11,1.06,1.63.59.9.73,1.15q.21-.48.63-1.23c.28-.51.57-1,.85-1.57s.53-1.06.75-1.57a3,3,0,0,0,.31-1.24,1.14,1.14,0,0,0-.22-.67,1.41,1.41,0,0,0-.48-.37,2.21,2.21,0,0,0-.6-.17,2.88,2.88,0,0,0-.56,0l0-.72,1.56.06c.52,0,1,0,1.56,0a30,30,0,0,0,3.29-.3l0,.72a3,3,0,0,0-1.87.79,9.25,9.25,0,0,0-1.64,1.91c-.52.77-1,1.61-1.53,2.53s-1,1.8-1.5,2.66l4.83,7.47q.36.56.78,1.08a7.28,7.28,0,0,0,.88.95,3.62,3.62,0,0,0,1,.66,2.61,2.61,0,0,0,1.17.23l0,.72c-.76,0-1.51,0-2.26,0l-2.27.06c-.77,0-1.53.06-2.29.11l-2.31.18,0-.72a4.8,4.8,0,0,0,.75-.09,2.08,2.08,0,0,0,.67-.26,1.46,1.46,0,0,0,.49-.55,1.82,1.82,0,0,0,.16-.89,2.46,2.46,0,0,0-.38-1c-.25-.42-.55-.91-.93-1.46l-1.2-1.8c-.43-.65-.83-1.29-1.2-1.94-.17.35-.43.83-.78,1.46s-.71,1.26-1.07,1.92-.67,1.29-.94,1.88a3.24,3.24,0,0,0-.4,1.31,1.17,1.17,0,0,0,.73,1.16,6.16,6.16,0,0,0,1.73.31l0,.72c-.64,0-1.28,0-1.92,0s-1.27,0-1.91,0c-.88,0-1.61.07-2.18.11a12.88,12.88,0,0,0-1.29.14l0-.84a3.51,3.51,0,0,0,1.66-.6,7.32,7.32,0,0,0,1.39-1.24,11.2,11.2,0,0,0,1.16-1.59c.36-.57.69-1.11,1-1.62l2.3-3.9-4.51-6.7a10.53,10.53,0,0,0-1.58-2,2.48,2.48,0,0,0-1.7-.61Z" fill="#fff" stroke="#fff" stroke-linecap="round" stroke-linejoin="round" stroke-width="2.21"/><path d="M696.61,978.3l2.23,0c.73,0,1.48,0,2.23,0s1.42-.07,2.11-.14l2.11-.2,0,.72A4.46,4.46,0,0,0,704,979a1.79,1.79,0,0,0-.84.6,2.28,2.28,0,0,0-.39,1,7.78,7.78,0,0,0-.07,1.52l.48,12.7a2.16,2.16,0,0,0,.67,1.69,3.61,3.61,0,0,0,2.13.55l0,.72c-.72,0-1.43,0-2.14,0s-1.41,0-2.13,0-1.46.06-2.2.11-1.46.1-2.2.17l0-.72a3.53,3.53,0,0,0,2.08-.71,2.17,2.17,0,0,0,.55-1.73l-.48-12.7a4.23,4.23,0,0,0-.64-2.48,2.6,2.6,0,0,0-2.1-.72Z" fill="#fff" stroke="#fff" stroke-linecap="round" stroke-linejoin="round" stroke-width="2.21"/><path d="M707.91,977.88c1.36.07,2.71.08,4.07,0,.7,0,1.4-.07,2.11-.14l2.12-.2,0,.72-.78.18a2.48,2.48,0,0,0-.68.31,1.4,1.4,0,0,0-.47.55,1.78,1.78,0,0,0-.15.93,7,7,0,0,0,.44,1.65c.28.8.65,1.77,1.09,2.91s.94,2.42,1.5,3.83,1.11,2.88,1.66,4.4c.47-1.7.93-3.27,1.35-4.72s.81-2.73,1.14-3.87.58-2.08.76-2.86a7,7,0,0,0,.25-1.7,1.62,1.62,0,0,0-.26-.89,1.74,1.74,0,0,0-.61-.54,3.29,3.29,0,0,0-1.42-.32l0-.72,1.6.06q.81,0,1.59,0a14,14,0,0,0,1.43-.11l1.43-.17,0,.72a5,5,0,0,0-.79.3,2,2,0,0,0-.58.39,2.48,2.48,0,0,0-.42.57,6.82,6.82,0,0,0-.36.83q-1.76,4.86-3.09,9.1t-2.39,8.29l-1.34.05c-.52-1.26-1-2.58-1.58-4s-1.08-2.8-1.64-4.25-1.13-2.9-1.71-4.37-1.16-2.91-1.75-4.33a3.37,3.37,0,0,0-1-1.36,3.32,3.32,0,0,0-1.54-.59Z" fill="#fff" stroke="#fff" stroke-linecap="round" stroke-linejoin="round" stroke-width="2.21"/><path d="M469.34,986.76c1.5.07,3,.07,4.42,0,.73,0,1.44-.07,2.14-.14l2.13-.2,0,.72a2.58,2.58,0,0,0-1.13.27.94.94,0,0,0-.47,1,2.84,2.84,0,0,0,.46,1.12c.3.51.64,1.05,1,1.61s.76,1.11,1.13,1.63.62.9.77,1.15a12.22,12.22,0,0,1,.68-1.24q.45-.75.9-1.56c.31-.54.58-1.07.81-1.58a3,3,0,0,0,.33-1.24,1.08,1.08,0,0,0-.23-.67,1.67,1.67,0,0,0-.51-.37,2.62,2.62,0,0,0-.64-.17,4.52,4.52,0,0,0-.6,0l0-.71,1.67,0c.55,0,1.1,0,1.66,0a34.14,34.14,0,0,0,3.51-.31l0,.72a3.36,3.36,0,0,0-2,.79,10.19,10.19,0,0,0-1.75,1.91c-.56.78-1.1,1.62-1.64,2.54s-1.07,1.81-1.61,2.67l5.14,7.46c.26.37.53.73.83,1.08a7.52,7.52,0,0,0,.93.94,4.13,4.13,0,0,0,1.1.66,3,3,0,0,0,1.25.23l0,.71H487.3l-2.43.06c-.82,0-1.63.08-2.44.13l-2.46.18,0-.72a5.6,5.6,0,0,0,.8-.09,2.23,2.23,0,0,0,.72-.27,1.47,1.47,0,0,0,.51-.54,1.73,1.73,0,0,0,.18-.89,2.28,2.28,0,0,0-.4-1c-.26-.42-.59-.91-1-1.47l-1.29-1.79c-.46-.65-.88-1.29-1.27-1.94-.18.35-.46.83-.84,1.46s-.76,1.27-1.14,1.93-.72,1.29-1,1.88a3.1,3.1,0,0,0-.43,1.31,1.16,1.16,0,0,0,.78,1.16,6.54,6.54,0,0,0,1.84.3l0,.72c-.68,0-1.36,0-2,0s-1.36,0-2,0l-2.34.12c-.61,0-1.07.09-1.36.14l0-.84a3.89,3.89,0,0,0,1.76-.6,7.92,7.92,0,0,0,1.49-1.24,11.56,11.56,0,0,0,1.24-1.6c.38-.57.74-1.11,1.07-1.62l2.47-3.91-4.8-6.69a10.63,10.63,0,0,0-1.68-2,2.75,2.75,0,0,0-1.81-.61Z" fill="#fff" stroke="#fff" stroke-linecap="round" stroke-linejoin="round" stroke-width="2.21"/><path d="M491.63,985.93l2.38,0c.79,0,1.58,0,2.38,0s1.52-.08,2.26-.15l2.25-.2,0,.72a5.12,5.12,0,0,0-1.47.28,2,2,0,0,0-.89.6,2.12,2.12,0,0,0-.42,1,7.58,7.58,0,0,0-.08,1.51l.48,12.71a2.09,2.09,0,0,0,.71,1.68,4,4,0,0,0,2.27.54l0,.73c-.77,0-1.53,0-2.28,0l-2.27,0c-.78,0-1.57.07-2.35.12l-2.35.18,0-.72a4,4,0,0,0,2.22-.71,2.11,2.11,0,0,0,.59-1.73l-.47-12.71a4.15,4.15,0,0,0-.68-2.48,2.89,2.89,0,0,0-2.24-.71Z" fill="#fff" stroke="#fff" stroke-linecap="round" stroke-linejoin="round" stroke-width="2.21"/><path d="M501,985.58l2.38,0c.79,0,1.58,0,2.38,0s1.52-.08,2.26-.15l2.25-.2,0,.72a5.12,5.12,0,0,0-1.47.28,2,2,0,0,0-.89.6,2.12,2.12,0,0,0-.42,1,7,7,0,0,0-.07,1.51l.47,12.71a2.1,2.1,0,0,0,.71,1.68,4,4,0,0,0,2.27.55l0,.72c-.77,0-1.53,0-2.28,0l-2.27.06c-.78,0-1.57.06-2.35.11l-2.34.18,0-.72a4,4,0,0,0,2.22-.71,2.09,2.09,0,0,0,.59-1.73L504,989.5a4.11,4.11,0,0,0-.68-2.48,2.85,2.85,0,0,0-2.24-.72Z" fill="#fff" stroke="#fff" stroke-linecap="round" stroke-linejoin="round" stroke-width="2.21"/><path d="M510,985.25l2.38,0q1.17,0,2.37,0c.77,0,1.52-.07,2.26-.14l2.25-.21,0,.72a5.91,5.91,0,0,0-1.47.28,2.11,2.11,0,0,0-.89.61,2.08,2.08,0,0,0-.42,1,7.78,7.78,0,0,0-.07,1.52l.47,12.7a2.08,2.08,0,0,0,.72,1.68,3.88,3.88,0,0,0,2.27.55l0,.72h-2.27c-.75,0-1.51,0-2.28.05l-2.35.12-2.34.18,0-.72a3.9,3.9,0,0,0,2.22-.72,2.05,2.05,0,0,0,.59-1.73l-.47-12.7a4.06,4.06,0,0,0-.68-2.48A2.89,2.89,0,0,0,510,986Z" fill="#fff" stroke="#fff" stroke-linecap="round" stroke-linejoin="round" stroke-width="2.21"/><polyline points="420.17 1090.51 433.93 1104.74 446.6 1089.53 460.36 1103.76 473.02 1088.54 486.79 1102.77 499.45 1087.56 513.22 1101.79 525.88 1086.58 539.64 1100.8 552.31 1085.59 566.07 1099.82 578.74 1084.61 592.5 1098.84 605.16 1083.62 618.93 1097.85 631.59 1082.64 645.35 1096.87 658.02 1081.66 671.79 1095.88 684.45 1080.67 698.22 1094.9 710.89 1079.69 724.65 1093.92 737.32 1078.7 751.09 1092.93 763.75 1077.72 777.53 1091.95 790.21 1076.74" fill="none" stroke="#fff" stroke-linecap="round" stroke-linejoin="round" stroke-width="1.47"/><polygon points="765.83 1073.46 777.21 1085.33 787.93 1072.76 765.83 1073.46" fill="#fff"/><polygon points="765.83 1073.46 777.21 1085.33 787.93 1072.76 765.83 1073.46" fill="none" stroke="#fff" stroke-linecap="round" stroke-linejoin="round" stroke-width="2.95"/><polygon points="742.96 1074.31 750.15 1080.98 756.97 1073.87 742.96 1074.31" fill="#fff"/><polygon points="742.96 1074.31 750.15 1080.98 756.97 1073.87 742.96 1074.31" fill="none" stroke="#fff" stroke-linecap="round" stroke-linejoin="round" stroke-width="2.95"/><polygon points="712.82 1075.43 724.2 1087.3 734.92 1074.73 712.82 1075.43" fill="#fff"/><polygon points="712.82 1075.43 724.2 1087.3 734.92 1074.73 712.82 1075.43" fill="none" stroke="#fff" stroke-linecap="round" stroke-linejoin="round" stroke-width="2.95"/><polygon points="689.95 1076.29 697.14 1082.95 703.96 1075.84 689.95 1076.29" fill="#fff"/><polygon points="689.95 1076.29 697.14 1082.95 703.96 1075.84 689.95 1076.29" fill="none" stroke="#fff" stroke-linecap="round" stroke-linejoin="round" stroke-width="2.95"/><polygon points="660.05 1077.4 671.43 1089.27 682.15 1076.7 660.05 1077.4" fill="#fff"/><polygon points="660.05 1077.4 671.43 1089.27 682.15 1076.7 660.05 1077.4" fill="none" stroke="#fff" stroke-linecap="round" stroke-linejoin="round" stroke-width="2.95"/><polygon points="637.19 1078.25 644.37 1084.92 651.2 1077.81 637.19 1078.25" fill="#fff"/><polygon points="637.19 1078.25 644.37 1084.92 651.2 1077.81 637.19 1078.25" fill="none" stroke="#fff" stroke-linecap="round" stroke-linejoin="round" stroke-width="2.95"/><polygon points="607.37 1079.36 618.75 1091.23 629.47 1078.66 607.37 1079.36" fill="#fff"/><polygon points="607.37 1079.36 618.75 1091.23 629.47 1078.66 607.37 1079.36" fill="none" stroke="#fff" stroke-linecap="round" stroke-linejoin="round" stroke-width="2.95"/><polygon points="584.99 1080.19 592.18 1086.86 599 1079.75 584.99 1080.19" fill="#fff"/><polygon points="584.99 1080.19 592.18 1086.86 599 1079.75 584.99 1080.19" fill="none" stroke="#fff" stroke-linecap="round" stroke-linejoin="round" stroke-width="2.95"/><polygon points="554.44 1081.33 565.82 1093.2 576.54 1080.63 554.44 1081.33" fill="#fff"/><polygon points="554.44 1081.33 565.82 1093.2 576.54 1080.63 554.44 1081.33" fill="none" stroke="#fff" stroke-linecap="round" stroke-linejoin="round" stroke-width="2.95"/><polygon points="532.47 1082.15 539.65 1088.82 546.48 1081.7 532.47 1082.15" fill="#fff"/><polygon points="532.47 1082.15 539.65 1088.82 546.48 1081.7 532.47 1082.15" fill="none" stroke="#fff" stroke-linecap="round" stroke-linejoin="round" stroke-width="2.95"/><polygon points="501.59 1083.3 512.97 1095.16 523.69 1082.6 501.59 1083.3" fill="#fff"/><polygon points="501.59 1083.3 512.97 1095.16 523.69 1082.6 501.59 1083.3" fill="none" stroke="#fff" stroke-linecap="round" stroke-linejoin="round" stroke-width="2.95"/><polygon points="479.62 1084.12 486.8 1090.78 493.63 1083.67 479.62 1084.12" fill="#fff"/><polygon points="479.62 1084.12 486.8 1090.78 493.63 1083.67 479.62 1084.12" fill="none" stroke="#fff" stroke-linecap="round" stroke-linejoin="round" stroke-width="2.95"/><polygon points="448.42 1085.28 459.8 1097.14 470.52 1084.58 448.42 1085.28" fill="#fff"/><polygon points="448.42 1085.28 459.8 1097.14 470.52 1084.58 448.42 1085.28" fill="none" stroke="#fff" stroke-linecap="round" stroke-linejoin="round" stroke-width="2.95"/><polygon points="426.45 1086.09 433.63 1092.76 440.46 1085.65 426.45 1086.09" fill="#fff"/><polygon points="426.45 1086.09 433.63 1092.76 440.46 1085.65 426.45 1086.09" fill="none" stroke="#fff" stroke-linecap="round" stroke-linejoin="round" stroke-width="2.95"/><path d="M426.06,801.65h.41l.41,11,.19.26,1.62,0,0,.74-5,.18,0-.75,1.71-.17.17-.31-.35-9.51-2.32.58,0-.74Z" fill="#fff" stroke="#fff" stroke-linecap="round" stroke-linejoin="round" stroke-width="1.47"/><path d="M436.15,807.12a2.67,2.67,0,0,1,2.72,2.75,3.45,3.45,0,0,1-1,2.6,3.73,3.73,0,0,1-2.68,1.12,3.61,3.61,0,0,1-2.1-.51,1.67,1.67,0,0,1-.92-1.33.87.87,0,0,1,.22-.64.77.77,0,0,1,.58-.28,1,1,0,0,1,.24,0l.21.06.52,1.48a2.26,2.26,0,0,0,.63.3,2.39,2.39,0,0,0,.66.08,2.14,2.14,0,0,0,1.64-.86,3,3,0,0,0,.59-2,2.26,2.26,0,0,0-.63-1.61,2.2,2.2,0,0,0-1.66-.51,2.69,2.69,0,0,0-.4,0l-.38.06,0-1h.31a2.36,2.36,0,0,0,1.69-.66,2.32,2.32,0,0,0,.54-1.71,2.59,2.59,0,0,0-.58-1.65,1.71,1.71,0,0,0-1.4-.57,2.27,2.27,0,0,0-.75.15,2.15,2.15,0,0,0-.65.41l.06,1.67a1.17,1.17,0,0,1-.28.17.67.67,0,0,1-.33.07.7.7,0,0,1-.58-.24,1,1,0,0,1-.25-.68,2.05,2.05,0,0,1,.85-1.68,3.58,3.58,0,0,1,2.21-.79,2.88,2.88,0,0,1,2.16.73,2.94,2.94,0,0,1,.88,2.13,2.78,2.78,0,0,1-.5,1.79A3.49,3.49,0,0,1,436.15,807.12Z" fill="#fff" stroke="#fff" stroke-linecap="round" stroke-linejoin="round" stroke-width="1.47"/><path d="M440.05,567.76s53.39,104.62,138.21,106.46c94.09-18,127.41-121.55,127.41-121.55" fill="none" stroke="#fff" stroke-linecap="round" stroke-miterlimit="10" stroke-width="1.47"/><path d="M414.61,874.31c5.95,8.06,11,14.1,13.4,14.88" fill="none" stroke="#fff" stroke-linecap="round" stroke-linejoin="round" stroke-width="1.47"/><line x1="423.6" y1="822.57" x2="425.31" y2="868.4" fill="none" stroke="#fff" stroke-linecap="round" stroke-linejoin="round" stroke-width="1.47"/><circle cx="430.53" cy="877.65" r="10.17" fill="none" stroke="#fff" stroke-linecap="round" stroke-linejoin="round" stroke-width="1.47"/><path d="M428.48,878.86s-3-6.71-3.1.12,4.47,11.69,8.48,4.8" fill="none" stroke="#fff" stroke-linecap="round" stroke-miterlimit="10" stroke-width="2.95"/><path d="M431,889.86s14.62,5.11,24.37.41" fill="none" stroke="#fff" stroke-linecap="round" stroke-miterlimit="10" stroke-width="7.37"/><path d="M773.21,863.34c-4.67,7.25-8.63,12.54-10.7,13.4" fill="none" stroke="#fff" stroke-linecap="round" stroke-linejoin="round" stroke-width="1.47"/><line x1="761.96" y1="809.98" x2="763.66" y2="855.81" fill="none" stroke="#fff" stroke-linecap="round" stroke-linejoin="round" stroke-width="1.47"/><circle cx="759.15" cy="865.42" r="10.17" fill="none" stroke="#fff" stroke-linecap="round" stroke-linejoin="round" stroke-width="1.47"/><path d="M761.28,866.47s2.53-6.91,3.09-.11-3.58,12-8.09,5.42" fill="none" stroke="#fff" stroke-linecap="round" stroke-miterlimit="10" stroke-width="2.95"/><path d="M759.6,877.62s-14.19,6.19-24.27,2.23" fill="none" stroke="#fff" stroke-linecap="round" stroke-miterlimit="10" stroke-width="7.37"/><polygon points="646.22 641.72 648.25 629.52 651.99 641.5 646.22 641.72" fill="#fff" stroke="#fff" stroke-linecap="round" stroke-linejoin="round" stroke-width="1.47"/><polygon points="651.99 641.47 649.95 653.67 646.22 641.69 651.99 641.47" fill="#fff" stroke="#fff" stroke-linecap="round" stroke-linejoin="round" stroke-width="1.47"/><polygon points="648.98 638.71 661.18 640.75 649.2 644.48 648.98 638.71" fill="#fff" stroke="#fff" stroke-linecap="round" stroke-linejoin="round" stroke-width="1.47"/><polygon points="649.22 644.48 637.02 642.44 649.01 638.71 649.22 644.48" fill="#fff" stroke="#fff" stroke-linecap="round" stroke-linejoin="round" stroke-width="1.47"/><polygon points="650.32 640.27 654.83 646.59 647.85 642.93 650.32 640.27" fill="#fff" stroke="#fff" stroke-linecap="round" stroke-linejoin="round" stroke-width="1.47"/><polygon points="647.86 642.94 643.35 636.63 650.33 640.29 647.86 642.94" fill="#fff" stroke="#fff" stroke-linecap="round" stroke-linejoin="round" stroke-width="1.47"/><polygon points="650.42 642.84 644.1 647.35 647.77 640.37 650.42 642.84" fill="#fff" stroke="#fff" stroke-linecap="round" stroke-linejoin="round" stroke-width="1.47"/><polygon points="647.75 640.38 654.07 635.87 650.41 642.85 647.75 640.38" fill="#fff" stroke="#fff" stroke-linecap="round" stroke-linejoin="round" stroke-width="1.47"/><path d="M461.77,869a2.21,2.21,0,0,1-2.1-1.3,2.47,2.47,0,0,1-.19-.78,2.21,2.21,0,0,1-4.08.46l-2.08-3.9a2.21,2.21,0,1,1,3.9-2.08l2.08,3.9a2.24,2.24,0,0,1,.26.92,2.18,2.18,0,0,1,1.23-1.44c1.12-.5,2.51-1.1,4.16-1.76a2.21,2.21,0,1,1,1.64,4.1c-1.59.64-2.92,1.21-4,1.69A2.14,2.14,0,0,1,461.77,869Zm253.6-10.6a2.21,2.21,0,0,1-.62-.06l-2.67-.66a2.21,2.21,0,1,1,1-4.3l1,.25A2.21,2.21,0,0,1,718,855.8l-.76,1.46A2.19,2.19,0,0,1,715.37,858.44Zm-148.25,3.35a1.85,1.85,0,0,1-.62-.07c-1.42-.37-2.82-.71-4.22-1a2.21,2.21,0,1,1,1-4.3c1.43.33,2.87.69,4.32,1.07l-.55,2.11v0l1.26,1.81A2.19,2.19,0,0,1,567.12,861.79Zm-95.75,3.47a2.21,2.21,0,0,1-.81-4.3c1.33-.46,2.75-.94,4.26-1.41a2.21,2.21,0,0,1,1.33,4.21c-1.47.46-2.84.93-4.13,1.38A2.48,2.48,0,0,1,471.37,865.26ZM707,856.44a2.2,2.2,0,0,1-.57-.05c-1.44-.32-2.87-.63-4.29-.92a2.21,2.21,0,0,1,.9-4.33c1.43.3,2.88.61,4.35.94a2.21,2.21,0,0,1-.39,4.36Zm-101,3.21a2.18,2.18,0,0,1-1.32-.37,29.59,29.59,0,0,0-3.55-2,2.21,2.21,0,0,1,1.92-4,35.24,35.24,0,0,1,4.1,2.36,2.22,2.22,0,0,1,.6,3.07A2.18,2.18,0,0,1,605.91,859.65Zm5.2-1.41a2.21,2.21,0,0,1-.94-4.25c1.33-.56,2.76-1.11,4.25-1.64a2.21,2.21,0,0,1,1.46,4.18c-1.4.49-2.74,1-4,1.53A2.16,2.16,0,0,1,611.11,858.24Zm85.73-3.85a2.59,2.59,0,0,1-.48,0c-1.46-.27-2.9-.52-4.32-.76a2.21,2.21,0,0,1,.73-4.36c1.45.24,2.91.5,4.39.77a2.21,2.21,0,0,1-.32,4.39Zm-139.73,5.1a2.32,2.32,0,0,1-.52,0c-1.44-.28-2.87-.55-4.29-.79a2.21,2.21,0,1,1,.75-4.35c1.45.24,2.92.51,4.4.8a2.21,2.21,0,0,1-.34,4.38Zm15.14-.67a2.21,2.21,0,0,1-1.06-4.19,45.59,45.59,0,0,1,4.26-1.84,2.21,2.21,0,0,1,1.55,4.13c-1.3.49-2.6,1.05-3.86,1.67A2.22,2.22,0,0,1,572.25,858.82Zm-91,3.38a2.21,2.21,0,0,1-.67-4.34c1.4-.38,2.84-.76,4.34-1.13a2.21,2.21,0,0,1,1.05,4.29c-1.46.36-2.86.73-4.22,1.1A2.17,2.17,0,0,1,481.22,862.2Zm237.66-10.43a2.28,2.28,0,0,1-1.11-.25,2.22,2.22,0,0,1-.93-3l2-3.91a2.21,2.21,0,0,1,3.92,2l-2.06,3.92A2.22,2.22,0,0,1,718.88,851.77Zm-32.21,1a2.75,2.75,0,0,1-.4,0c-1.47-.21-2.91-.4-4.34-.58a2.21,2.21,0,1,1,.55-4.39c1.45.18,2.92.38,4.42.59a2.21,2.21,0,0,1-.23,4.4Zm-139.73,5.09a2.42,2.42,0,0,1-.38,0c-1.46-.2-2.9-.37-4.33-.52a2.21,2.21,0,0,1,.47-4.4q2.2.24,4.44.54a2.21,2.21,0,0,1-.2,4.4Zm-55.69,2a2.21,2.21,0,0,1-.53-4.37c1.43-.3,2.89-.58,4.4-.85a2.21,2.21,0,0,1,.78,4.35c-1.47.26-2.9.54-4.29.82A2.23,2.23,0,0,1,491.25,859.79Zm129.61-4.89a2.21,2.21,0,0,1-.67-4.34q2-.57,4.38-1.11a2.21,2.21,0,0,1,1,4.31c-1.49.34-2.89.7-4.19,1.06A3,3,0,0,1,620.86,854.9Zm-24.31.55a2.68,2.68,0,0,1-.62-.07,26.58,26.58,0,0,0-4-.69,2.21,2.21,0,0,1,.42-4.4,31.77,31.77,0,0,1,4.68.8,2.22,2.22,0,0,1-.46,4.36Zm-14.6-.06a2.21,2.21,0,0,1-.55-4.37,38,38,0,0,1,4.63-.72,2.21,2.21,0,1,1,.41,4.4,33.46,33.46,0,0,0-4.1.64A2.6,2.6,0,0,1,582,855.39Zm-45.27,1.37h-.24c-1.47-.1-2.92-.18-4.36-.25a2.21,2.21,0,1,1,.2-4.41c1.48.06,3,.15,4.47.25a2.21,2.21,0,0,1-.07,4.42ZM501.41,858a2.21,2.21,0,0,1-.4-4.39c1.46-.21,2.94-.4,4.45-.58a2.24,2.24,0,0,1,2.45,1.94,2.21,2.21,0,0,1-2,2.45c-1.47.17-2.91.36-4.32.56Zm175-6.53a1.51,1.51,0,0,1-.3,0c-1.47-.14-2.93-.27-4.35-.38a2.21,2.21,0,1,1,.34-4.4c1.45.11,2.94.24,4.44.39a2.21,2.21,0,0,1-.13,4.4Zm-223.85,8a2.21,2.21,0,0,1-2-1.17l-2.08-3.9a2.21,2.21,0,1,1,3.9-2.08l2.08,3.9a2.21,2.21,0,0,1-.91,3A2.09,2.09,0,0,1,452.58,859.49Zm178.34-6.85a2.21,2.21,0,0,1-.47-4.38c1.42-.25,2.9-.49,4.44-.71a2.21,2.21,0,0,1,.62,4.38c-1.49.21-2.92.44-4.29.68Zm-104.54,3.71h-.11c-1.47,0-2.92,0-4.36,0a2.21,2.21,0,0,1-.08-4.42c1.48,0,3,0,4.48,0a2.21,2.21,0,0,1,.07,4.42Zm-14.73.52a2.21,2.21,0,0,1-.25-4.41c1.46-.12,3-.22,4.46-.3h0a2.21,2.21,0,0,1,.2,4.42c-1.47.07-2.92.17-4.35.29Zm154.5-6.14H666c-1.49-.08-2.94-.13-4.37-.17a2.21,2.21,0,0,1,.12-4.42c1.45,0,2.94.1,4.46.17a2.21,2.21,0,0,1,0,4.42Zm-25,.52a2.21,2.21,0,0,1-.3-4.41c1.45-.14,2.94-.26,4.47-.37a2.18,2.18,0,0,1,2.36,2,2.21,2.21,0,0,1-2,2.36c-1.5.1-2.94.22-4.34.36Zm14.71-.75h-.07c-1.49,0-2.94,0-4.36.09a2.21,2.21,0,0,1-.15-4.42h0c1.45,0,2.94-.07,4.47-.09a2.21,2.21,0,0,1,.1,4.42Zm67.83-7.86a2.34,2.34,0,0,1-1.11-.25,2.23,2.23,0,0,1-.93-3l2.06-3.91a2.21,2.21,0,1,1,3.91,2l-2.05,3.92A2.22,2.22,0,0,1,723.67,842.64Zm-275.94,7.75a2.19,2.19,0,0,1-2-1.17l-2.08-3.9a2.21,2.21,0,0,1,3.9-2.08l2.08,3.9a2.22,2.22,0,0,1-.91,3A2.13,2.13,0,0,1,447.73,850.39Zm280.73-16.88a2.27,2.27,0,0,1-1.1-.25,2.22,2.22,0,0,1-.93-3l2.05-3.91a2.21,2.21,0,0,1,3.92,2l-2.06,3.92A2.22,2.22,0,0,1,728.46,833.51Zm-285.58,7.78a2.2,2.2,0,0,1-2-1.17l-2.08-3.89a2.21,2.21,0,0,1,3.9-2.08l2.08,3.89a2.21,2.21,0,0,1-.91,3A2.17,2.17,0,0,1,442.88,841.29Zm290.38-16.91a2.31,2.31,0,0,1-1.11-.25,2.22,2.22,0,0,1-.93-3l2.06-3.91a2.21,2.21,0,1,1,3.91,2l-2.06,3.92A2.22,2.22,0,0,1,733.26,824.38ZM438,832.19a2.19,2.19,0,0,1-2-1.16l-2.08-3.9a2.21,2.21,0,0,1,3.9-2.08l2.08,3.9a2.19,2.19,0,0,1-1.87,3.24Zm300-16.94A2.27,2.27,0,0,1,737,815a2.21,2.21,0,0,1-.93-3l2.05-3.91a2.21,2.21,0,1,1,3.91,2l-2.05,3.92A2.22,2.22,0,0,1,738.05,815.25ZM433,816l2.08,3.9a2.21,2.21,0,0,1-.91,3,2.38,2.38,0,0,1-1,.26,2.21,2.21,0,0,1-2-1.17l-2.08-3.9m313.79-11.91a2.28,2.28,0,0,1-1.11-.25,2.22,2.22,0,0,1-.93-3l2.05-3.91a2.21,2.21,0,0,1,3.92,2l-2.06,3.92A2.22,2.22,0,0,1,742.85,806.12Zm4.1-8.83a2,2,0,0,1-.64-.07c-.73-.19-2.27-.61-4.4-1.33a2.21,2.21,0,1,1,1.41-4.19c2,.68,3.43,1.07,4.1,1.25a2.21,2.21,0,0,1-.47,4.34ZM737.16,794a2.12,2.12,0,0,1-.92-.17c-1.29-.52-2.68-1.12-4.15-1.78a2.21,2.21,0,0,1,1.83-4c1.41.65,2.74,1.22,4,1.72a2.21,2.21,0,0,1-.75,4.26Zm-297,3.39q1.74-1.33,3.43-2.7a2.21,2.21,0,1,1,2.78,3.43q-1.72,1.41-3.51,2.77a2.1,2.1,0,0,1-1.26.46m286.15-11.69a2.3,2.3,0,0,1-1.1-.25q-1.92-1-4-2.16a2.21,2.21,0,0,1,2.2-3.84c1.3.74,2.57,1.44,3.8,2.08a2.21,2.21,0,0,1-.94,4.17Zm-278.17,5.18a2.22,2.22,0,0,1-1.53-3.88q1.67-1.44,3.27-2.9a2.21,2.21,0,1,1,3,3.27c-1.09,1-2.21,2-3.34,3A2.25,2.25,0,0,1,449.61,794.79Zm269.25-10.36a2.29,2.29,0,0,1-1.28-.35c-1.23-.8-2.48-1.63-3.74-2.52a2.21,2.21,0,0,1,2.53-3.62c1.21.85,2.42,1.66,3.6,2.42a2.21,2.21,0,0,1-1.11,4.07Zm-8.41-6A2.22,2.22,0,0,1,709,778c-1.16-.91-2.33-1.87-3.49-2.86a2.21,2.21,0,1,1,2.87-3.36c1.11,1,2.23,1.87,3.35,2.74a2.22,2.22,0,0,1-1.29,4ZM457.2,787.81a2.21,2.21,0,0,1-1.63-3.79c1.05-1,2.07-2,3.08-3.09a2.21,2.21,0,1,1,3.17,3.07q-1.54,1.61-3.16,3.18A2.18,2.18,0,0,1,457.2,787.81ZM702.66,771.7a2.2,2.2,0,0,1-1.61-.61q-1.6-1.53-3.2-3.18a2.21,2.21,0,0,1,3.19-3.07q1.51,1.57,3.06,3a2.21,2.21,0,0,1-1.44,3.81Zm-238.33,8.66a2.21,2.21,0,0,1-1.73-3.68c1-1.09,1.92-2.18,2.85-3.29a2.21,2.21,0,1,1,3.38,2.85q-1.43,1.69-2.94,3.39A2.19,2.19,0,0,1,464.33,780.36Zm231.24-16.14a2.15,2.15,0,0,1-1.76-.77c-1-1.14-1.95-2.32-2.87-3.49a2.21,2.21,0,0,1,3.48-2.72c.9,1.14,1.81,2.26,2.74,3.34a2.21,2.21,0,0,1-1.59,3.64Zm-224.66,8.21a2.25,2.25,0,0,1-1.43-.45,2.22,2.22,0,0,1-.4-3.1q1.34-1.74,2.6-3.49a2.21,2.21,0,0,1,3.59,2.58q-1.31,1.81-2.69,3.61A2.17,2.17,0,0,1,470.91,772.43Zm6-8.4a2.26,2.26,0,0,1-1.29-.36,2.21,2.21,0,0,1-.64-3.06c.79-1.21,1.56-2.44,2.3-3.67a2.21,2.21,0,1,1,3.79,2.27q-1.16,1.92-2.39,3.82A2.24,2.24,0,0,1,476.88,764Zm212.38-8a2.21,2.21,0,0,1-1.9-.94c-.84-1.22-1.68-2.47-2.49-3.76A2.21,2.21,0,1,1,688.6,749c.78,1.23,1.58,2.44,2.39,3.6a2.21,2.21,0,0,1-.55,3.08A2.16,2.16,0,0,1,689.26,756.07Zm-207.13-.91a2.25,2.25,0,0,1-1.12-.26,2.21,2.21,0,0,1-.91-3c.69-1.28,1.35-2.56,2-3.86a2.21,2.21,0,0,1,4,1.93q-1,2-2.05,4A2.22,2.22,0,0,1,482.13,755.16Zm201.68-7.83a2.21,2.21,0,0,1-2-1.13c-.72-1.3-1.43-2.63-2.11-4a2.21,2.21,0,1,1,3.95-2c.66,1.3,1.33,2.58,2,3.82a2.22,2.22,0,0,1-.86,3A2.19,2.19,0,0,1,683.81,747.33Zm-197.23-1.47a2.21,2.21,0,0,1-2.12-3.06c.56-1.34,1.09-2.68,1.6-4a2.21,2.21,0,0,1,4.14,1.54c-.53,1.41-1.08,2.8-1.67,4.19A2.19,2.19,0,0,1,486.58,745.86Zm192.68-7.76a2.22,2.22,0,0,1-2.11-1.34c-.59-1.36-1.16-2.74-1.71-4.16a2.21,2.21,0,0,1,4.13-1.6c.52,1.37,1.07,2.7,1.63,4a2.19,2.19,0,0,1-1.14,2.9A2.08,2.08,0,0,1,679.26,738.1Zm-189.14-1.91a2.07,2.07,0,0,1-.74-.1,2.21,2.21,0,0,1-1.46-2.76c.43-1.38.83-2.76,1.2-4.15a2.21,2.21,0,1,1,4.27,1.13c-.38,1.45-.8,2.89-1.25,4.33A2.19,2.19,0,0,1,490.12,736.19Zm185.49-7.73a2.21,2.21,0,0,1-2.18-1.52c-.46-1.41-.9-2.84-1.31-4.31a2.21,2.21,0,0,1,4.25-1.2q.6,2.1,1.26,4.14a2.2,2.2,0,0,1-1.41,2.78A1.87,1.87,0,0,1,675.61,728.46Zm-182.93-2.24a2.38,2.38,0,0,1-.53-.05,2.2,2.2,0,0,1-1.72-2.6c.28-1.41.54-2.83.76-4.25a2.21,2.21,0,0,1,4.37.68c-.24,1.48-.5,3-.8,4.45A2.22,2.22,0,0,1,492.68,726.22Zm180.18-7.68a2.22,2.22,0,0,1-2.24-1.71c-.33-1.44-.64-2.91-.93-4.39a2.21,2.21,0,1,1,4.34-.85c.28,1.44.58,2.85.9,4.24a2.23,2.23,0,0,1-1.66,2.66A2,2,0,0,1,672.86,718.54ZM494.2,716a1.51,1.51,0,0,1-.3,0,2.21,2.21,0,0,1-2-2.41c.14-1.42.25-2.87.32-4.31a2.21,2.21,0,0,1,4.42.23c-.08,1.5-.19,3-.34,4.51A2.2,2.2,0,0,1,494.2,716Zm176.74-7.6a2.2,2.2,0,0,1-2.26-1.89c-.14-.93-.27-1.86-.39-2.8-.06-.6-.11-1.13-.17-1.66a2.21,2.21,0,0,1,4.39-.5c.06.55.12,1.1.17,1.66.11.85.24,1.76.37,2.65a2.21,2.21,0,0,1-1.86,2.51A2.13,2.13,0,0,1,670.94,708.42Zm-176.29-2.7h-.06a2.23,2.23,0,0,1-2.23-2.2c0-1,0-2-.07-2.94q0-.69-.06-1.38a2.22,2.22,0,0,1,2.1-2.32h0a2.22,2.22,0,0,1,2.29,2.1l.06,1.44c0,1,.06,2.05.07,3.07A2.2,2.2,0,0,1,494.65,705.72Zm175-7.53a2.22,2.22,0,0,1-2.27-1.89c-.17-1.18-.35-2.35-.53-3.52l-.13-.83a2.21,2.21,0,0,1,4.37-.67l.13.83.54,3.55a2.22,2.22,0,0,1-1.87,2.51Zm-175.57-2.75a2.22,2.22,0,0,1-2.28-2c-.15-1.43-.34-2.86-.55-4.29a2.21,2.21,0,1,1,4.37-.66c.22,1.49.42,3,.58,4.47a2.23,2.23,0,0,1-2,2.44ZM668.1,688a2.22,2.22,0,0,1-2.27-1.92c-.19-1.47-.37-3-.51-4.46a2.2,2.2,0,0,1,2-2.41,2.22,2.22,0,0,1,2.41,2c.14,1.45.31,2.88.5,4.3a2.21,2.21,0,0,1-1.9,2.48Zm-175.66-2.73a2.2,2.2,0,0,1-2.24-1.76c-.3-1.4-.62-2.81-1-4.22a2.21,2.21,0,0,1,4.29-1.07c.37,1.47.7,2.93,1,4.39a2.21,2.21,0,0,1-1.71,2.62A2.46,2.46,0,0,1,492.44,685.26Zm174.79-7.53h0a2.21,2.21,0,0,1-2.27-2.15c-.05-1.52,0-3.05,0-4.54a2.21,2.21,0,0,1,4.42.13c0,1.41-.05,2.85,0,4.29A2.21,2.21,0,0,1,667.23,677.73Zm-177.34-2.45a2.23,2.23,0,0,1-2.2-1.57c-.41-1.37-.86-2.75-1.33-4.13a2.2,2.2,0,1,1,4.17-1.43c.5,1.42,1,2.85,1.39,4.28a2.2,2.2,0,0,1-1.47,2.75A2.28,2.28,0,0,1,489.89,675.28Zm177.76-7.84a1.82,1.82,0,0,1-.33,0,2.2,2.2,0,0,1-2-2.44c.16-1.47.37-3,.62-4.49a2.21,2.21,0,1,1,4.36.72c-.24,1.43-.44,2.86-.59,4.26A2.2,2.2,0,0,1,667.65,667.44Zm-181.17-1.89a2.21,2.21,0,0,1-2.14-1.39c-.53-1.34-1.09-2.67-1.67-4a2.21,2.21,0,1,1,4.05-1.77c.6,1.38,1.18,2.77,1.73,4.15a2.21,2.21,0,0,1-1.24,2.87A2.38,2.38,0,0,1,486.48,665.55Zm182.93-8.25a2,2,0,0,1-.59-.06,2.2,2.2,0,0,1-1.64-2.65c.33-1.42.7-2.87,1.12-4.37a2.21,2.21,0,0,1,4.26,1.19c-.41,1.44-.76,2.83-1.08,4.19A2.21,2.21,0,0,1,669.41,657.3ZM482.3,656.13a2.23,2.23,0,0,1-2.07-1.24c-.63-1.29-1.28-2.58-2-3.88a2.21,2.21,0,1,1,3.91-2.06c.71,1.33,1.38,2.67,2,4a2.2,2.2,0,0,1-1,2.95A2.22,2.22,0,0,1,482.3,656.13Zm189.94-8.73a2.34,2.34,0,0,1-.78-.11,2.21,2.21,0,0,1-1.4-2.8c.46-1.37,1-2.78,1.48-4.23a2.21,2.21,0,0,1,4.15,1.53c-.52,1.4-1,2.77-1.44,4.1A2.2,2.2,0,0,1,672.24,647.4ZM477.45,647a2.2,2.2,0,0,1-2-1.1c-.72-1.25-1.47-2.49-2.24-3.74a2.21,2.21,0,0,1,3.77-2.32q1.18,1.93,2.29,3.85a2.2,2.2,0,0,1-1.83,3.31Zm198.38-9.28a2.14,2.14,0,0,1-.92-.17,2.2,2.2,0,0,1-1.2-2.88c.54-1.34,1.12-2.71,1.73-4.11a2.21,2.21,0,0,1,4.06,1.76c-.6,1.37-1.17,2.71-1.7,4A2.24,2.24,0,0,1,675.83,637.75ZM472,638.28a2.19,2.19,0,0,1-1.92-1q-1.2-1.8-2.46-3.6a2.21,2.21,0,1,1,3.61-2.54q1.31,1.85,2.53,3.7a2.21,2.21,0,0,1-.62,3.06A2.27,2.27,0,0,1,472,638.28Zm208-10a2.17,2.17,0,0,1-1-.2,2.22,2.22,0,0,1-1.07-2.94c.62-1.31,1.26-2.65,1.93-4a2.21,2.21,0,1,1,4,1.94c-.66,1.35-1.29,2.66-1.89,3.95A2.21,2.21,0,0,1,680,628.31Zm-213.92,1.55a2.19,2.19,0,0,1-1.85-.88q-1.31-1.74-2.66-3.46a2.21,2.21,0,1,1,3.47-2.74q1.39,1.79,2.72,3.55a2.2,2.2,0,0,1-.44,3.09A2.15,2.15,0,0,1,466.06,629.86Zm218.46-10.79a2.26,2.26,0,0,1-1.09-.25,2.21,2.21,0,0,1-.95-3c.66-1.29,1.35-2.61,2.06-3.94a2.21,2.21,0,1,1,3.9,2.07c-.7,1.32-1.38,2.62-2,3.89A2.23,2.23,0,0,1,684.52,619.07Zm-224.86,2.71a2.23,2.23,0,0,1-1.78-.79c-.93-1.11-1.87-2.22-2.84-3.33a2.21,2.21,0,0,1,3.34-2.9c1,1.13,1.95,2.26,2.89,3.4a2.21,2.21,0,0,1-.28,3.11A2.25,2.25,0,0,1,459.66,621.78ZM689.38,610a2.15,2.15,0,0,1-1.15-.27,2.21,2.21,0,0,1-.87-3c.7-1.27,1.43-2.56,2.17-3.88a2.21,2.21,0,0,1,3.85,2.18c-.74,1.3-1.45,2.58-2.15,3.83A2.17,2.17,0,0,1,689.38,610Zm-236.51,4a2.21,2.21,0,0,1-1.71-.72c-1-1.06-2-2.13-3-3.2a2.21,2.21,0,1,1,3.2-3c1,1.09,2.05,2.17,3.05,3.26a2.21,2.21,0,0,1-.14,3.12A2.19,2.19,0,0,1,452.87,614Zm241.6-13a2.17,2.17,0,0,1-1.2-.3,2.2,2.2,0,0,1-.79-3c.73-1.25,1.48-2.53,2.25-3.82a2.21,2.21,0,1,1,3.8,2.26c-.76,1.28-1.51,2.54-2.23,3.79A2.19,2.19,0,0,1,694.47,601Zm-248.72,5.56a2.18,2.18,0,0,1-1.65-.65q-1.53-1.54-3.12-3.07a2.21,2.21,0,0,1,3.08-3.18c1.07,1,2.13,2.09,3.17,3.13a2.21,2.21,0,0,1,0,3.13A2.24,2.24,0,0,1,445.75,606.57Zm254-14.41a2.18,2.18,0,0,1-1.23-.32,2.22,2.22,0,0,1-.74-3L700.1,585a2.21,2.21,0,0,1,3.76,2.33c-.79,1.27-1.55,2.52-2.31,3.75A2.21,2.21,0,0,1,699.75,592.16Zm-261.43,7.25a2.19,2.19,0,0,1-1.58-.59q-1.59-1.47-3.24-3a2.21,2.21,0,1,1,3-3.28q1.67,1.5,3.29,3a2.21,2.21,0,0,1-1.43,3.83Zm266.86-16a2.14,2.14,0,0,1-1.26-.34,2.22,2.22,0,0,1-.69-3l2.38-3.74a2.21,2.21,0,1,1,3.72,2.39L707,582.37A2.18,2.18,0,0,1,705.18,583.4Zm-274.53,9.13a2.2,2.2,0,0,1-1.53-.53q-1.65-1.43-3.34-2.85a2.21,2.21,0,1,1,2.84-3.38q1.72,1.44,3.39,2.88a2.21,2.21,0,0,1-1.36,3.88Zm280.09-17.81a2.2,2.2,0,0,1-1.28-.35,2.22,2.22,0,0,1-.65-3.06l2.42-3.71a2.21,2.21,0,0,1,3.7,2.43q-1.23,1.86-2.41,3.69A2.21,2.21,0,0,1,710.74,574.72Z" fill="none" stroke="#fff" stroke-linecap="round" stroke-linejoin="round" stroke-width="1.47"/><path d="M418.48,1030.44a6.53,6.53,0,0,1,.3,12.32" fill="none" stroke="#fff" stroke-linecap="round" stroke-linejoin="round" stroke-width="1.47"/><circle cx="425.01" cy="1036.33" r="6.53" fill="none" stroke="#fff" stroke-linecap="round" stroke-linejoin="round" stroke-width="1.47"/><circle cx="433.51" cy="1036.02" r="6.53" fill="none" stroke="#fff" stroke-linecap="round" stroke-linejoin="round" stroke-width="1.47"/><circle cx="442.07" cy="1035.7" r="6.53" fill="none" stroke="#fff" stroke-linecap="round" stroke-linejoin="round" stroke-width="1.47"/><circle cx="451.11" cy="1035.36" r="6.53" fill="none" stroke="#fff" stroke-linecap="round" stroke-linejoin="round" stroke-width="1.47"/><circle cx="459.66" cy="1035.04" r="6.53" fill="none" stroke="#fff" stroke-linecap="round" stroke-linejoin="round" stroke-width="1.47"/><circle cx="468.16" cy="1034.73" r="6.53" fill="none" stroke="#fff" stroke-linecap="round" stroke-linejoin="round" stroke-width="1.47"/><circle cx="476.72" cy="1034.41" r="6.53" fill="none" stroke="#fff" stroke-linecap="round" stroke-linejoin="round" stroke-width="1.47"/><circle cx="485.5" cy="1034.08" r="6.53" fill="none" stroke="#fff" stroke-linecap="round" stroke-linejoin="round" stroke-width="1.47"/><circle cx="494.06" cy="1033.76" r="6.53" fill="none" stroke="#fff" stroke-linecap="round" stroke-linejoin="round" stroke-width="1.47"/><circle cx="502.55" cy="1033.45" r="6.53" fill="none" stroke="#fff" stroke-linecap="round" stroke-linejoin="round" stroke-width="1.47"/><circle cx="511.11" cy="1033.13" r="6.53" fill="none" stroke="#fff" stroke-linecap="round" stroke-linejoin="round" stroke-width="1.47"/><circle cx="520.35" cy="1032.78" r="6.53" fill="none" stroke="#fff" stroke-linecap="round" stroke-linejoin="round" stroke-width="1.47"/><circle cx="528.9" cy="1032.47" r="6.53" fill="none" stroke="#fff" stroke-linecap="round" stroke-linejoin="round" stroke-width="1.47"/><circle cx="537.4" cy="1032.15" r="6.53" fill="none" stroke="#fff" stroke-linecap="round" stroke-linejoin="round" stroke-width="1.47"/><circle cx="545.96" cy="1031.83" r="6.53" fill="none" stroke="#fff" stroke-linecap="round" stroke-linejoin="round" stroke-width="1.47"/><circle cx="555" cy="1031.49" r="6.53" fill="none" stroke="#fff" stroke-linecap="round" stroke-linejoin="round" stroke-width="1.47"/><circle cx="563.55" cy="1031.18" r="6.53" fill="none" stroke="#fff" stroke-linecap="round" stroke-linejoin="round" stroke-width="1.47"/><circle cx="572.05" cy="1030.86" r="6.53" fill="none" stroke="#fff" stroke-linecap="round" stroke-linejoin="round" stroke-width="1.47"/><circle cx="580.61" cy="1030.54" r="6.53" fill="none" stroke="#fff" stroke-linecap="round" stroke-linejoin="round" stroke-width="1.47"/><circle cx="589.39" cy="1030.21" r="6.53" fill="none" stroke="#fff" stroke-linecap="round" stroke-linejoin="round" stroke-width="1.47"/><circle cx="597.95" cy="1029.9" r="6.53" fill="none" stroke="#fff" stroke-linecap="round" stroke-linejoin="round" stroke-width="1.47"/><circle cx="606.44" cy="1029.58" r="6.53" fill="none" stroke="#fff" stroke-linecap="round" stroke-linejoin="round" stroke-width="1.47"/><circle cx="615" cy="1029.26" r="6.53" fill="none" stroke="#fff" stroke-linecap="round" stroke-linejoin="round" stroke-width="1.47"/><circle cx="624.04" cy="1028.92" r="6.53" fill="none" stroke="#fff" stroke-linecap="round" stroke-linejoin="round" stroke-width="1.47"/><circle cx="632.6" cy="1028.61" r="6.53" fill="none" stroke="#fff" stroke-linecap="round" stroke-linejoin="round" stroke-width="1.47"/><circle cx="641.09" cy="1028.29" r="6.53" fill="none" stroke="#fff" stroke-linecap="round" stroke-linejoin="round" stroke-width="1.47"/><circle cx="649.65" cy="1027.97" r="6.53" fill="none" stroke="#fff" stroke-linecap="round" stroke-linejoin="round" stroke-width="1.47"/><circle cx="658.69" cy="1027.63" r="6.53" fill="none" stroke="#fff" stroke-linecap="round" stroke-linejoin="round" stroke-width="1.47"/><circle cx="667.25" cy="1027.32" r="6.53" fill="none" stroke="#fff" stroke-linecap="round" stroke-linejoin="round" stroke-width="1.47"/><circle cx="675.74" cy="1027" r="6.53" fill="none" stroke="#fff" stroke-linecap="round" stroke-linejoin="round" stroke-width="1.47"/><circle cx="684.3" cy="1026.68" r="6.53" fill="none" stroke="#fff" stroke-linecap="round" stroke-linejoin="round" stroke-width="1.47"/><circle cx="693.08" cy="1026.35" r="6.53" fill="none" stroke="#fff" stroke-linecap="round" stroke-linejoin="round" stroke-width="1.47"/><circle cx="701.64" cy="1026.04" r="6.53" fill="none" stroke="#fff" stroke-linecap="round" stroke-linejoin="round" stroke-width="1.47"/><circle cx="710.13" cy="1025.72" r="6.53" fill="none" stroke="#fff" stroke-linecap="round" stroke-linejoin="round" stroke-width="1.47"/><circle cx="718.69" cy="1025.4" r="6.53" fill="none" stroke="#fff" stroke-linecap="round" stroke-linejoin="round" stroke-width="1.47"/><circle cx="727.46" cy="1025.07" r="6.53" fill="none" stroke="#fff" stroke-linecap="round" stroke-linejoin="round" stroke-width="1.47"/><circle cx="736.02" cy="1024.76" r="6.53" fill="none" stroke="#fff" stroke-linecap="round" stroke-linejoin="round" stroke-width="1.47"/><circle cx="744.52" cy="1024.44" r="6.53" fill="none" stroke="#fff" stroke-linecap="round" stroke-linejoin="round" stroke-width="1.47"/><circle cx="753.07" cy="1024.12" r="6.53" fill="none" stroke="#fff" stroke-linecap="round" stroke-linejoin="round" stroke-width="1.47"/><circle cx="762.11" cy="1023.79" r="6.53" fill="none" stroke="#fff" stroke-linecap="round" stroke-linejoin="round" stroke-width="1.47"/><circle cx="770.67" cy="1023.47" r="6.53" fill="none" stroke="#fff" stroke-linecap="round" stroke-linejoin="round" stroke-width="1.47"/><circle cx="779.17" cy="1023.15" r="6.53" fill="none" stroke="#fff" stroke-linecap="round" stroke-linejoin="round" stroke-width="1.47"/><path d="M400.65,1131c.54-2.35,1.41-4.63,2-7l-116.16-3.54-.41,13.45,113.19,3.45C399.71,1135.23,400.16,1133.1,400.65,1131Z" fill="#fff"/><ellipse cx="297.1" cy="794.97" rx="66.16" ry="51.99" transform="translate(-506.55 1067.72) rotate(-88.25)" fill="none" stroke="#fff" stroke-linecap="round" stroke-miterlimit="10" stroke-width="10.94"/><ellipse cx="296.43" cy="794.15" rx="45.97" ry="36.12" transform="translate(-506.38 1066.26) rotate(-88.25)" fill="none" stroke="#fff" stroke-linecap="round" stroke-miterlimit="10" stroke-width="10.94"/><ellipse cx="296.68" cy="793.98" rx="28.62" ry="22.49" transform="translate(-505.97 1066.35) rotate(-88.25)" fill="#fff"/><path d="M353.32,800.47c3.63.11,3.12,16.72,6.74,16.83s4.13-16.5,7.75-16.39,3.11,16.72,6.73,16.83,4.13-16.5,7.75-16.39,3.12,16.72,6.74,16.83,4.13-16.5,7.75-16.39,3.12,16.72,6.74,16.83,4.14-16.5,7.76-16.39" fill="none" stroke="#fff" stroke-linecap="round" stroke-linejoin="round" stroke-width="1.33"/><rect x="356.75" y="821.86" width="15.17" height="15.17" rx="2.46" transform="translate(25.43 -10.71) rotate(1.75)" fill="#fff"/><rect x="344.6" y="833.76" width="15.17" height="15.17" rx="2.46" transform="translate(25.79 -10.34) rotate(1.75)" fill="#fff"/><rect x="379.74" y="822.56" width="15.17" height="15.17" rx="2.46" transform="translate(25.46 -11.41) rotate(1.75)" fill="#fff"/><rect x="367.59" y="834.46" width="15.17" height="15.17" rx="2.46" transform="translate(25.82 -11.04) rotate(1.75)" fill="#fff"/><path d="M411.73,823.3l-6-.18a2.46,2.46,0,0,0-2.53,2.38l-.32,10.25a2.47,2.47,0,0,0,2.39,2.53l8.42.26C413.52,836.59,411.92,826.47,411.73,823.3Z" fill="#fff"/><rect x="390.86" y="835.17" width="15.17" height="15.17" rx="2.46" transform="translate(25.85 -11.74) rotate(1.75)" fill="#fff"/><path d="M276.74,865.28s47.27-5.65,62.87,34.5c16.5,42.45-3.23,94.12-12.12,104.75s-40,10.73-40,10.73" fill="none" stroke="#fff" stroke-linecap="round" stroke-miterlimit="10" stroke-width="9.7"/><path d="M276.29,880.14s34.89-6.87,46.8,25.21" fill="none" stroke="#fff" stroke-linecap="round" stroke-miterlimit="10" stroke-width="9.7"/><path d="M321.1,970.7S318,991.41,308,995.57s-27.44,5.6-27.44,5.6" fill="none" stroke="#fff" stroke-linecap="round" stroke-miterlimit="10" stroke-width="9.7"/><path d="M411.29,1089.46c-27-8.22-47.2-54-52-78.06-3.26-16.42-.89-30.68,1.87-47.19a318.87,318.87,0,0,0,4.45-35.63c2.12-37-39.91-75.34-41.7-77a4.85,4.85,0,1,0-6.49,7.2c.4.36,40.36,36.83,38.51,69.19a304.91,304.91,0,0,1-4.34,34.6c-2.91,17.44-5.42,32.51-1.81,50.67,4.9,24.65,26.35,77.07,60.13,85.87C410.51,1096,410.64,1092.64,411.29,1089.46Z" fill="#fff"/><path d="M410.63,1078.57a2.13,2.13,0,0,1-.91-.24c-1-.56-2.06-1.12-3.06-1.7a2.08,2.08,0,0,1,2.08-3.6c.95.56,1.93,1.1,2.93,1.63a2.08,2.08,0,0,1-1,3.91Zm-7.71-4.57a2,2,0,0,1-1.08-.35c-1.18-.78-2.35-1.59-3.49-2.42a2.08,2.08,0,0,1,2.45-3.36c1.08.79,2.2,1.57,3.33,2.32a2.08,2.08,0,0,1-1.21,3.81Zm-7.77-5.78a2.07,2.07,0,0,1-1.27-.48c-1.09-.91-2.16-1.85-3.19-2.81a2.08,2.08,0,1,1,2.82-3c1,.91,2,1.81,3,2.67a2.08,2.08,0,0,1-1.4,3.67Zm-7-6.63a2.08,2.08,0,0,1-1.45-.66c-1-1-1.93-2.11-2.83-3.18a2.08,2.08,0,1,1,3.17-2.68c.86,1,1.77,2,2.69,3a2.08,2.08,0,0,1-1.58,3.5Zm-6.18-7.46a2.07,2.07,0,0,1-1.61-.85c-.84-1.15-1.65-2.33-2.42-3.52a2.07,2.07,0,1,1,3.48-2.26c.73,1.13,1.51,2.25,2.3,3.33a2.08,2.08,0,0,1-.46,2.9A2.12,2.12,0,0,1,381.92,1054.13Zm-5.2-8.17a2.07,2.07,0,0,1-1.76-1.07c-.68-1.24-1.34-2.51-2-3.78a2.08,2.08,0,1,1,3.73-1.82c.59,1.21,1.22,2.41,1.87,3.59a2.08,2.08,0,0,1-1.88,3.08Zm-4.18-8.74a2.08,2.08,0,0,1-1.86-1.29c-.53-1.31-1-2.65-1.51-4a2.08,2.08,0,1,1,3.92-1.38c.45,1.27.93,2.55,1.44,3.79a2.08,2.08,0,0,1-1.14,2.71A2.12,2.12,0,0,1,372.54,1037.22Zm-3.15-9.16a2.08,2.08,0,0,1-1.93-1.51c-.39-1.35-.75-2.73-1.08-4.11a2.08,2.08,0,0,1,4.05-1q.46,2,1,3.93A2.07,2.07,0,0,1,370,1028,2,2,0,0,1,369.39,1028.06Zm-2.18-9.45a2.08,2.08,0,0,1-2-1.71c-.25-1.4-.47-2.79-.66-4.18a2.07,2.07,0,1,1,4.11-.57c.19,1.33.4,2.67.64,4a2.08,2.08,0,0,1-1.68,2.41A1.56,1.56,0,0,1,367.21,1018.61Zm-1.28-9.61a2.07,2.07,0,0,1-2-1.89c-.13-1.42-.22-2.82-.3-4.22a2.08,2.08,0,0,1,2-2.18,2.06,2.06,0,0,1,2.18,2c.07,1.35.17,2.71.29,4.07a2.08,2.08,0,0,1-1.89,2.26Zm-.46-9.68a2.07,2.07,0,0,1-2-2.06c0-1.43,0-2.83,0-4.22a2.08,2.08,0,0,1,4.16.09c0,1.35,0,2.71,0,4.1a2.08,2.08,0,0,1-2.06,2.09Zm.28-9.69h-.07a2.08,2.08,0,0,1-1.94-2.2c.09-1.44.2-2.84.33-4.21a2.08,2.08,0,0,1,4.14.39c-.13,1.33-.23,2.69-.32,4.08A2.09,2.09,0,0,1,365.75,989.63Zm.95-9.66h-.21a2.08,2.08,0,0,1-1.79-2.33c.19-1.44.39-2.84.61-4.17a2.08,2.08,0,1,1,4.1.65c-.21,1.3-.41,2.66-.59,4.06A2.07,2.07,0,0,1,366.7,980Zm1.58-9.56-.35,0a2.08,2.08,0,0,1-1.63-2.44c.29-1.48.59-2.86.88-4.13a2.08,2.08,0,0,1,4.05.92c-.28,1.24-.57,2.58-.86,4A2.08,2.08,0,0,1,368.28,970.41Zm2.2-9.45a2,2,0,0,1-.48-.07,2.08,2.08,0,0,1-1.46-2.55c.71-2.6,1.21-4.06,1.23-4.12a2.08,2.08,0,0,1,3.93,1.35s-.48,1.41-1.15,3.86A2.08,2.08,0,0,1,370.48,961Z" fill="none" stroke="#fff" stroke-miterlimit="10" stroke-width="1.39"/><path d="M375.4,972.35s-14.5,52.08,35.63,93.25" fill="none" stroke="#fff" stroke-linecap="round" stroke-linejoin="round" stroke-width="1.39"/><line x1="385.82" y1="986.07" x2="383.56" y2="1032.21" fill="none" stroke="#fff" stroke-linecap="round" stroke-linejoin="round" stroke-width="1.39"/><line x1="395.23" y1="1006.11" x2="392.38" y2="1046.3" fill="none" stroke="#fff" stroke-linecap="round" stroke-linejoin="round" stroke-width="1.39"/><line x1="405.59" y1="1018.14" x2="402" y2="1057.4" fill="none" stroke="#fff" stroke-linecap="round" stroke-linejoin="round" stroke-width="1.39"/><path d="M413.81,858.07,401,857.68s5.32,29.59,13,29.82a3.16,3.16,0,0,0,1.55-.37C415.31,877.42,413.94,867.78,413.81,858.07Z" fill="#fff"/><path d="M367.16,856.65l24.16.73s-3.42,29.33-11.14,29.09S367.16,856.65,367.16,856.65Z" fill="#fff"/><path d="M339.63,855.81l34,1s-3.43,29.33-11.14,29.1C357.33,885.78,339.63,855.81,339.63,855.81Z" fill="#fff"/><path d="M383.26,857.14l24.17.73S404,887.2,396.29,887,383.26,857.14,383.26,857.14Z" fill="#fff"/><path d="M418.66,992.51C411,985.77,401.82,973,395.3,956.26,386.61,933.9,383.49,913,384,904.62c8.24,1.74,20.39,3.4,31.45,4.73-.45-5.14-.81-10.29-.85-15.45-12.05-1.48-24.73-3.3-31.17-5.07-4.8-1.32-10.76.56-13.27,7.71-4.12,11.74,1.51,38.61,8.48,58.61,5.88,16.87,21.51,47.26,41.44,56.21Z" fill="#fff"/><path d="M416.36,948.94a10.86,10.86,0,0,0-3.34-.62,11.08,11.08,0,1,0,3.34,21.51Z" fill="#fff"/><rect x="402.55" y="914.43" width="13.99" height="27.33" rx="2.77" transform="translate(28.45 -12.04) rotate(1.75)" fill="#fff"/><rect x="384.83" y="913.89" width="13.99" height="27.33" rx="2.77" transform="translate(28.43 -11.5) rotate(1.75)" fill="#fff"/><line x1="290.24" y1="913.63" x2="322.81" y2="914.62" fill="none" stroke="#fff" stroke-linecap="round" stroke-miterlimit="10" stroke-width="6.93"/><line x1="288.76" y1="962.21" x2="321.33" y2="963.2" fill="none" stroke="#fff" stroke-linecap="round" stroke-miterlimit="10" stroke-width="6.93"/><line x1="318.89" y1="914.51" x2="317.44" y2="961.89" fill="none" stroke="#fff" stroke-linecap="round" stroke-miterlimit="10" stroke-width="6.93"/><line x1="309.67" y1="914.22" x2="308.22" y2="961.61" fill="none" stroke="#fff" stroke-linecap="round" stroke-miterlimit="10" stroke-width="6.93"/><line x1="300.39" y1="913.94" x2="298.95" y2="961.32" fill="none" stroke="#fff" stroke-linecap="round" stroke-miterlimit="10" stroke-width="6.93"/><path d="M294,1151.93l24.17.74S314.7,1182,307,1181.76,294,1151.93,294,1151.93Z" fill="#fff"/><path d="M313.34,1152.52l24.17.74s-3.43,29.33-11.14,29.09S313.34,1152.52,313.34,1152.52Z" fill="#fff"/><path d="M332.72,1153.11l24.17.74s-3.43,29.33-11.14,29.09S332.72,1153.11,332.72,1153.11Z" fill="#fff"/><path d="M352.16,1153.71l24.16.73s-3.43,29.33-11.14,29.09S352.16,1153.71,352.16,1153.71Z" fill="#fff"/><path d="M371.54,1154.3l24.16.73s-3.43,29.33-11.14,29.09S371.54,1154.3,371.54,1154.3Z" fill="#fff"/><path d="M398.65,1155.12l-8-.24s2.34,13,6.17,21.85C397.13,1173.82,398.36,1159.42,398.65,1155.12Z" fill="#fff"/><path d="M397.32,1148.6h-.14l-4.15-.12a2.08,2.08,0,1,1,.12-4.16l4.16.13a2.08,2.08,0,0,1,0,4.15Zm-9.69-.29h-.14l-4.16-.13a2.08,2.08,0,1,1,.13-4.15l4.15.13a2.08,2.08,0,0,1,0,4.15Zm-9.69-.3h-.14l-4.16-.12a2.08,2.08,0,0,1,.13-4.16l4.15.13a2.08,2.08,0,0,1,0,4.15Zm-9.69-.29h-.14l-4.16-.13a2.08,2.08,0,0,1,.13-4.15l4.15.13a2.08,2.08,0,0,1,0,4.15Zm-9.69-.3h-.14l-4.16-.12a2.08,2.08,0,0,1,.13-4.16l4.15.13a2.08,2.08,0,0,1,0,4.15Zm-9.69-.29h-.15l-4.15-.13a2.08,2.08,0,1,1,.13-4.15l4.15.12a2.08,2.08,0,0,1,0,4.16Zm-9.69-.3H339l-4.15-.12a2.08,2.08,0,0,1,.13-4.16l4.15.13a2.08,2.08,0,0,1,0,4.15Zm-9.69-.29h-.15l-4.15-.13a2.08,2.08,0,1,1,.13-4.15l4.15.12a2.08,2.08,0,0,1,0,4.16Zm-9.7-.3h-.14l-4.15-.12a2.08,2.08,0,1,1,.12-4.16l4.16.13a2.08,2.08,0,0,1,0,4.15Zm-9.69-.29H310l-4.15-.13a2.08,2.08,0,1,1,.12-4.15l4.16.12a2.08,2.08,0,0,1,0,4.16Zm-9.69-.3h-.14l-4.15-.13a2.08,2.08,0,1,1,.12-4.15l4.16.13a2.08,2.08,0,0,1,0,4.15Zm-9.69-.29h-.14l-4.15-.13a2.08,2.08,0,1,1,.12-4.15l4.15.12a2.08,2.08,0,0,1,0,4.16Z" fill="none" stroke="#fff" stroke-linecap="round" stroke-linejoin="round" stroke-width="1.75"/><rect x="309.95" y="1023.1" width="17.77" height="17.77" rx="2.88" transform="translate(31.58 -9.23) rotate(1.75)" fill="#fff"/><rect x="295.72" y="1037.04" width="17.77" height="17.77" rx="2.88" transform="translate(31.99 -8.79) rotate(1.75)" fill="#fff"/><rect x="337.38" y="1023.94" width="17.77" height="17.77" rx="2.88" transform="translate(31.62 -10.07) rotate(1.75)" fill="#fff"/><rect x="283.05" y="1022.28" width="17.77" height="17.77" rx="2.88" transform="translate(31.54 -8.41) rotate(1.75)" fill="#fff"/><rect x="323.15" y="1037.88" width="17.77" height="17.77" rx="2.88" transform="translate(32.03 -9.63) rotate(1.75)" fill="#fff"/><rect x="309.04" y="1053.04" width="17.77" height="17.77" rx="2.88" transform="translate(32.49 -9.19) rotate(1.75)" fill="#fff"/><rect x="294.81" y="1066.98" width="17.77" height="17.77" rx="2.88" transform="translate(32.91 -8.75) rotate(1.75)" fill="#fff"/><rect x="336.46" y="1053.88" width="17.77" height="17.77" rx="2.88" transform="translate(32.53 -10.02) rotate(1.75)" fill="#fff"/><rect x="282.13" y="1052.22" width="17.77" height="17.77" rx="2.88" transform="translate(32.45 -8.37) rotate(1.75)" fill="#fff"/><rect x="322.23" y="1067.81" width="17.77" height="17.77" rx="2.88" transform="translate(32.94 -9.58) rotate(1.75)" fill="#fff"/><rect x="350.33" y="1068.67" width="17.77" height="17.77" rx="2.88" transform="translate(32.98 -10.44) rotate(1.75)" fill="#fff"/><rect x="308.19" y="1080.79" width="17.77" height="17.77" rx="2.88" transform="translate(33.33 -9.15) rotate(1.75)" fill="#fff"/><rect x="293.96" y="1094.73" width="17.77" height="17.77" rx="2.88" transform="translate(33.75 -8.71) rotate(1.75)" fill="#fff"/><rect x="335.62" y="1081.63" width="17.77" height="17.77" rx="2.88" transform="translate(33.37 -9.99) rotate(1.75)" fill="#fff"/><rect x="363.25" y="1082.47" width="17.77" height="17.77" rx="2.88" transform="translate(33.41 -10.83) rotate(1.75)" fill="#fff"/><rect x="281.29" y="1079.97" width="17.77" height="17.77" rx="2.88" transform="translate(33.3 -8.33) rotate(1.75)" fill="#fff"/><rect x="321.39" y="1095.57" width="17.77" height="17.77" rx="2.88" transform="translate(33.79 -9.55) rotate(1.75)" fill="#fff"/><rect x="349.1" y="1096.41" width="17.77" height="17.77" rx="2.88" transform="translate(33.83 -10.39) rotate(1.75)" fill="#fff"/><rect x="376.52" y="1097.25" width="17.77" height="17.77" rx="2.88" transform="translate(33.87 -11.22) rotate(1.75)" fill="#fff"/><path d="M803,1126.1l121.51-19-2.09-13.44-121.87,19A112.78,112.78,0,0,1,803,1126.1Z" fill="#fff"/><ellipse cx="871.39" cy="768.16" rx="53.04" ry="67.16" transform="translate(-108.04 143.58) rotate(-8.87)" fill="none" stroke="#fff" stroke-linecap="round" stroke-miterlimit="10" stroke-width="11.13"/><ellipse cx="871.97" cy="767.25" rx="36.85" ry="46.66" transform="translate(-107.89 143.65) rotate(-8.87)" fill="none" stroke="#fff" stroke-linecap="round" stroke-miterlimit="10" stroke-width="11.13"/><ellipse cx="871.69" cy="767.11" rx="22.95" ry="29.05" transform="translate(-107.88 143.61) rotate(-8.87)" fill="#fff"/><path d="M817.74,797.69c-3.11.44-5.5-16.19-8.6-15.74s-.71,17.07-3.82,17.52-5.49-16.18-8.59-15.74-.72,17.08-3.82,17.52-5.49-16.18-8.6-15.73-.71,17.07-3.82,17.52-5.49-16.19-8.6-15.74-.72,17.08-3.83,17.52" fill="none" stroke="#fff" stroke-linecap="round" stroke-linejoin="round" stroke-width="1.4"/><rect x="800.17" y="803.85" width="15.34" height="15.34" rx="2.48" transform="translate(1731.16 1488.75) rotate(171.13)" fill="#fff"/><rect x="813.85" y="814.26" width="15.34" height="15.34" rx="2.48" transform="translate(1759.96 1507.34) rotate(171.13)" fill="#fff"/><rect x="777.2" y="807.44" width="15.34" height="15.34" rx="2.48" transform="translate(1686.04 1499.42) rotate(171.13)" fill="#fff"/><rect x="790.88" y="817.85" width="15.34" height="15.34" rx="2.48" transform="translate(1714.84 1518.01) rotate(171.13)" fill="#fff"/><path d="M783.67,833.09l-1.6-10.25a2.49,2.49,0,0,0-2.84-2.07l-9.4,1.47a104.16,104.16,0,0,0,2,15.21l9.77-1.53A2.49,2.49,0,0,0,783.67,833.09Z" fill="#fff"/><path d="M900.2,836.49s-48.13.25-58.74,42.48c-11.23,44.66,15,94,25.29,103.56s41.43,5.76,41.43,5.76" fill="none" stroke="#fff" stroke-linecap="round" stroke-miterlimit="10" stroke-width="9.8"/><path d="M902.51,851.33s-35.86-2.51-43.78,31.16" fill="none" stroke="#fff" stroke-linecap="round" stroke-miterlimit="10" stroke-width="9.8"/><path d="M868.92,947.79s5.69,20.4,16.3,23.3,28.22,2.19,28.22,2.19" fill="none" stroke="#fff" stroke-linecap="round" stroke-miterlimit="10" stroke-width="9.8"/><path d="M858.05,828.2a4.9,4.9,0,0,0-6.91.51c-1.59,1.84-38.95,45.55-32.18,82.42a323.12,323.12,0,0,0,8.93,35.19c4.84,16.21,9,30.21,7.8,47.1-1.79,24.91-16.52,73.93-43,85.07a88.48,88.48,0,0,1,2.21,9.64c13.61-5.09,25.67-18,35.2-37.92,9.8-20.46,14.37-43,15.31-56.09,1.35-18.67-3.06-33.47-8.17-50.6a309.85,309.85,0,0,1-8.69-34.16c-5.92-32.24,29.6-73.83,30-74.24A4.92,4.92,0,0,0,858.05,828.2Z" fill="#fff"/><path d="M792.64,1067.23a2.1,2.1,0,0,1-1.53-3.79c.93-.66,1.84-1.32,2.73-2a2.1,2.1,0,1,1,2.54,3.35c-.93.7-1.88,1.4-2.86,2.09A2,2,0,0,1,792.64,1067.23Zm7.16-5.55a2.1,2.1,0,0,1-1.69-3.67c1-.89,2.06-1.81,3-2.74a2.1,2.1,0,1,1,2.88,3.06c-1,1-2.11,1.94-3.2,2.87A2.15,2.15,0,0,1,799.8,1061.68Zm7.07-6.77a2.08,2.08,0,0,1-1.76-.54,2.1,2.1,0,0,1-.1-3c.93-1,1.84-2,2.71-3.06a2.1,2.1,0,0,1,3.22,2.71c-.92,1.09-1.88,2.17-2.86,3.22A2.06,2.06,0,0,1,806.87,1054.91Zm6.24-7.54a2.1,2.1,0,0,1-2-3.31c.8-1.11,1.58-2.24,2.32-3.37a2.1,2.1,0,0,1,3.52,2.29c-.78,1.19-1.6,2.39-2.45,3.55A2.07,2.07,0,0,1,813.11,1047.37Zm5.26-8.25a2.13,2.13,0,0,1-1.34-.24,2.11,2.11,0,0,1-.82-2.86c.66-1.18,1.29-2.4,1.88-3.62a2.1,2.1,0,1,1,3.78,1.83c-.62,1.29-1.29,2.57-2,3.83A2.12,2.12,0,0,1,818.37,1039.12Zm4.2-8.85a2,2,0,0,1-1.11-.13,2.11,2.11,0,0,1-1.17-2.73c.51-1.26,1-2.55,1.43-3.83a2.1,2.1,0,1,1,4,1.36c-.46,1.35-1,2.71-1.5,4A2.08,2.08,0,0,1,822.57,1030.27Zm3.09-9.29a2.15,2.15,0,0,1-.87-.05,2.1,2.1,0,0,1-1.48-2.57c.35-1.31.68-2.65,1-4a2.1,2.1,0,0,1,4.1.9c-.3,1.39-.65,2.8-1,4.18A2.14,2.14,0,0,1,825.66,1021Zm2-9.59a2.29,2.29,0,0,1-.64,0,2.11,2.11,0,0,1-1.76-2.39c.21-1.37.39-2.72.54-4.08a2.1,2.1,0,1,1,4.17.46c-.15,1.42-.34,2.85-.56,4.25A2.1,2.1,0,0,1,827.67,1011.39Zm1-9.75a2,2,0,0,1-.43,0,2.11,2.11,0,0,1-2-2.21c.07-1.38.12-2.76.14-4.12a2.1,2.1,0,1,1,4.2.06c0,1.42-.07,2.84-.14,4.28A2.11,2.11,0,0,1,828.67,1001.64Zm.08-9.8a1.9,1.9,0,0,1-.25,0,2.1,2.1,0,0,1-2.17-2c-.06-1.38-.13-2.76-.23-4.12a2.1,2.1,0,0,1,4.19-.3c.1,1.41.18,2.83.23,4.27A2.09,2.09,0,0,1,828.75,991.84Zm-.75-9.77h-.08a2.09,2.09,0,0,1-2.33-1.84c-.16-1.39-.35-2.76-.55-4.1a2.1,2.1,0,0,1,4.16-.62c.2,1.39.39,2.8.56,4.23A2.1,2.1,0,0,1,828,982.07Zm-1.5-9.69a2.09,2.09,0,0,1-2.38-1.68c-.27-1.38-.55-2.74-.84-4.06a2.1,2.1,0,1,1,4.1-.9c.3,1.35.59,2.75.86,4.17a2.1,2.1,0,0,1-1.67,2.46Zm-2.16-9.56a2.1,2.1,0,0,1-2.35-1.55c-.36-1.38-.73-2.71-1.1-4a2.1,2.1,0,1,1,4-1.17c.38,1.31.76,2.68,1.13,4.1a2.08,2.08,0,0,1-1.5,2.56Zm-2.78-9.4a2.1,2.1,0,0,1-2.31-1.42c-.47-1.4-.93-2.71-1.36-3.91a2.1,2.1,0,0,1,4-1.44c.44,1.24.91,2.59,1.39,4a2.1,2.1,0,0,1-1.33,2.66Zm-3.4-9.2A2.09,2.09,0,0,1,815.9,943c-1-2.38-1.64-3.73-1.64-3.74a2.1,2.1,0,1,1,3.77-1.84c0,.06.71,1.46,1.75,4a2.12,2.12,0,0,1-1.14,2.75A2.85,2.85,0,0,1,818.16,944.22Z" fill="none" stroke="#fff" stroke-miterlimit="10" stroke-width="1.4"/><path d="M814.66,956.26s21.07,50.43-24,98" fill="none" stroke="#fff" stroke-linecap="round" stroke-linejoin="round" stroke-width="1.4"/><line x1="805.92" y1="971.33" x2="813.98" y2="1017.33" fill="none" stroke="#fff" stroke-linecap="round" stroke-linejoin="round" stroke-width="1.4"/><line x1="799" y1="992.61" x2="806.9" y2="1032.57" fill="none" stroke="#fff" stroke-linecap="round" stroke-linejoin="round" stroke-width="1.4"/><line x1="790.12" y1="1005.98" x2="798.64" y2="1044.91" fill="none" stroke="#fff" stroke-linecap="round" stroke-linejoin="round" stroke-width="1.4"/><path d="M808.41,839.16l-24.14,3.77s7.11,29,14.82,27.79S808.41,839.16,808.41,839.16Z" fill="#fff"/><path d="M835.93,834.86l-34,5.31s7.12,29,14.82,27.79C821.92,867.15,835.93,834.86,835.93,834.86Z" fill="#fff"/><path d="M770.81,845c0,3.72.35,7.44.58,11.15,2.79,8.12,7.1,17.75,11.61,17.05,7.7-1.21,9.32-31.56,9.32-31.56Z" fill="#fff"/><path d="M810.39,879.56c-3.42-6.86-9.63-8-14.28-6.07s-12.75,4.31-21.5,6.63c.17,5.23.66,10.45.93,15.68,8.13-2.13,16.1-4.38,22-6.4,1.58,8.32,1.07,29.69-4.84,53.22-2.88,11.45-6.49,21.21-10.56,28.78a1,1,0,0,1,.16.5c.19,7.46,1.56,14.82,2.24,22.23,14.14-14,21.44-39.42,24.71-54.72C813.72,918.48,816,890.82,810.39,879.56Z" fill="#fff"/><path d="M786.7,946.21a11.19,11.19,0,0,0-7.34-8.84c0,3.2,1,16.92,1.26,20.6A11.21,11.21,0,0,0,786.7,946.21Z" fill="#fff"/><path d="M783.54,925.94l-3.4-21.77a2.81,2.81,0,0,0-3.2-2.33l-.83.13a132.22,132.22,0,0,0,3,27.49l2.06-.33A2.8,2.8,0,0,0,783.54,925.94Z" fill="#fff"/><rect x="785.49" y="899.57" width="14.15" height="27.62" rx="2.8" transform="matrix(-0.99, 0.15, -0.15, -0.99, 1716.51, 1693.61)" fill="#fff"/><line x1="874.36" y1="889.54" x2="860.17" y2="891.76" fill="none" stroke="#fff" stroke-linecap="round" stroke-miterlimit="10" stroke-width="7"/><line x1="881.93" y1="938.09" x2="867.75" y2="940.3" fill="none" stroke="#fff" stroke-linecap="round" stroke-miterlimit="10" stroke-width="7"/><line x1="900.26" y1="885.5" x2="886.08" y2="887.72" fill="none" stroke="#fff" stroke-linecap="round" stroke-miterlimit="10" stroke-width="7"/><line x1="907.83" y1="934.05" x2="893.65" y2="936.26" fill="none" stroke="#fff" stroke-linecap="round" stroke-miterlimit="10" stroke-width="7"/><path d="M918.87,1126.19,894.73,1130s7.11,29,14.82,27.79S918.87,1126.19,918.87,1126.19Z" fill="#fff"/><path d="M899.51,1129.22,875.36,1133s7.12,29,14.82,27.79S899.51,1129.22,899.51,1129.22Z" fill="#fff"/><path d="M880.14,1132.24,856,1136s7.12,29,14.82,27.78S880.14,1132.24,880.14,1132.24Z" fill="#fff"/><path d="M860.72,1135.27,836.57,1139s7.12,29,14.82,27.79S860.72,1135.27,860.72,1135.27Z" fill="#fff"/><path d="M841.35,1138.29l-24.15,3.77s7.12,29,14.83,27.79S841.35,1138.29,841.35,1138.29Z" fill="#fff"/><path d="M806.24,1143.77a234.92,234.92,0,0,0,1.72,28.08c1,.76,4,1.13,5,1,7.71-1.2,9.33-31.55,9.33-31.55Z" fill="#fff"/><path d="M804.58,1133.16l4.15-.65a2.1,2.1,0,0,1,.65,4.15l-4.15.65-.14,0m9.68-1.51a2.1,2.1,0,0,1-.5-4.17l4.15-.65a2.1,2.1,0,1,1,.65,4.15l-4.15.65Zm9.68-1.51a2.1,2.1,0,0,1-.5-4.17l4.15-.65a2.1,2.1,0,0,1,.65,4.15l-4.15.65Zm9.69-1.52a2.1,2.1,0,0,1-.5-4.16l4.15-.65a2.1,2.1,0,1,1,.64,4.15l-4.15.65Zm9.68-1.51a2.1,2.1,0,0,1-.5-4.17l4.15-.64a2.1,2.1,0,0,1,.65,4.15l-4.15.65Zm9.69-1.51a2.1,2.1,0,0,1-.51-4.17l4.15-.65a2.11,2.11,0,0,1,.65,4.16l-4.15.64Zm9.68-1.51a2.1,2.1,0,0,1-.5-4.17l4.15-.65a2.1,2.1,0,0,1,.65,4.15l-4.15.65Zm9.69-1.51a2.1,2.1,0,0,1-.51-4.17l4.15-.65a2.1,2.1,0,0,1,.65,4.15l-4.15.65Zm9.68-1.51a2.1,2.1,0,0,1-.5-4.17l4.15-.65a2.1,2.1,0,0,1,.65,4.15l-4.15.65Zm9.68-1.52a2.1,2.1,0,0,1-.5-4.16l4.15-.65a2.1,2.1,0,0,1,.65,4.15l-4.15.65Zm9.69-1.51a2.1,2.1,0,0,1-.5-4.16l4.15-.65a2.1,2.1,0,0,1,.65,4.15l-4.16.65Zm9.68-1.51a2.1,2.1,0,0,1-.5-4.17l4.15-.64a2.1,2.1,0,0,1,.65,4.15l-4.15.64Zm9.69-1.51a2.1,2.1,0,0,1-.5-4.17l4.15-.65a2.14,2.14,0,0,1,2.4,1.76,2.11,2.11,0,0,1-1.76,2.4l-4.15.64Z" fill="none" stroke="#fff" stroke-linecap="round" stroke-linejoin="round" stroke-width="1.77"/><rect x="869.9" y="1000.01" width="17.96" height="17.96" rx="2.91" transform="translate(1902.86 1870.37) rotate(171.13)" fill="#fff"/><rect x="885.92" y="1012.21" width="17.96" height="17.96" rx="2.91" transform="translate(1936.59 1892.14) rotate(171.13)" fill="#fff"/><rect x="842.5" y="1004.29" width="17.96" height="17.96" rx="2.91" transform="translate(1849.03 1883.1) rotate(171.13)" fill="#fff"/><rect x="896.79" y="995.81" width="17.96" height="17.96" rx="2.91" transform="translate(1955.66 1857.88) rotate(171.13)" fill="#fff"/><rect x="858.52" y="1016.48" width="17.96" height="17.96" rx="2.91" transform="translate(1882.76 1904.87) rotate(171.13)" fill="#fff"/><rect x="874.57" y="1029.93" width="17.96" height="17.96" rx="2.91" transform="translate(1916.75 1929.12) rotate(171.13)" fill="#fff"/><rect x="890.59" y="1042.12" width="17.96" height="17.96" rx="2.91" transform="translate(1950.49 1950.9) rotate(171.13)" fill="#fff"/><rect x="847.16" y="1034.2" width="17.96" height="17.96" rx="2.91" transform="matrix(-0.99, 0.15, -0.15, -0.99, 1862.93, 1941.85)" fill="#fff"/><rect x="901.46" y="1025.73" width="17.96" height="17.96" rx="2.91" transform="translate(1969.55 1916.63) rotate(171.13)" fill="#fff"/><rect x="863.19" y="1046.4" width="17.96" height="17.96" rx="2.91" transform="translate(1896.66 1963.63) rotate(171.13)" fill="#fff"/><rect x="835.11" y="1050.78" width="17.96" height="17.96" rx="2.91" transform="matrix(-0.99, 0.15, -0.15, -0.99, 1841.52, 1976.67)" fill="#fff"/><rect x="878.9" y="1057.66" width="17.96" height="17.96" rx="2.91" transform="translate(1929.64 1983.59) rotate(171.13)" fill="#fff"/><rect x="894.92" y="1069.86" width="17.96" height="17.96" rx="2.91" transform="translate(1963.37 2005.37) rotate(171.13)" fill="#fff"/><rect x="851.49" y="1061.94" width="17.96" height="17.96" rx="2.91" transform="translate(1875.81 1996.32) rotate(171.13)" fill="#fff"/><rect x="823.88" y="1066.25" width="17.96" height="17.96" rx="2.91" transform="translate(1821.58 2009.15) rotate(171.13)" fill="#fff"/><rect x="905.78" y="1053.46" width="17.96" height="17.96" rx="2.91" transform="translate(1982.44 1971.1) rotate(171.13)" fill="#fff"/><rect x="867.52" y="1074.13" width="17.96" height="17.96" rx="2.91" transform="translate(1909.54 2018.1) rotate(171.13)" fill="#fff"/><rect x="839.82" y="1078.46" width="17.96" height="17.96" rx="2.91" transform="translate(1855.16 2030.96) rotate(171.13)" fill="#fff"/><rect x="812.42" y="1082.73" width="17.96" height="17.96" rx="2.91" transform="translate(1801.33 2043.69) rotate(171.13)" fill="#fff"/><line x1="867.27" y1="890.65" x2="900.74" y2="935.15" fill="none" stroke="#fff" stroke-linecap="round" stroke-miterlimit="10" stroke-width="7"/><line x1="893.17" y1="886.61" x2="874.84" y2="939.19" fill="none" stroke="#fff" stroke-linecap="round" stroke-miterlimit="10" stroke-width="7"/><polygon points="789.03 1060.62 420.44 1075.01 420.74 1060.7 788.14 1047.02 789.03 1060.62" fill="#fff"/><line x1="421.45" y1="1051.86" x2="787.62" y2="1037.96" fill="none" stroke="#fff" stroke-linecap="round" stroke-linejoin="round" stroke-width="1.47"/><path d="M416.05,1114.15c175.36.4,372.24-13.86,372.24-13.86" fill="none" stroke="#fff" stroke-linecap="round" stroke-linejoin="round" stroke-width="1.47"/><path d="M409.7,1121.49c208.72,9.8,383.46-14.27,383.46-14.27" fill="none" stroke="#fff" stroke-linecap="round" stroke-linejoin="round" stroke-width="1.47"/><path d="M695.54,548.91C689.75,609.66,591,667.44,578,667.93" fill="none" stroke="#fff" stroke-linecap="round" stroke-linejoin="round" stroke-width="1.47"/><path d="M686.68,547.31c-10.34,55.13-81.54,100.49-104,108.51" fill="none" stroke="#fff" stroke-linecap="round" stroke-linejoin="round" stroke-width="1.47"/><path d="M452.23,558c10.29,60.14,113,110.43,126,109.95" fill="none" stroke="#fff" stroke-linecap="round" stroke-linejoin="round" stroke-width="1.47"/><path d="M460.94,555.71c14.45,54.36,89.22,94.39,111.94,100.53" fill="none" stroke="#fff" stroke-linecap="round" stroke-linejoin="round" stroke-width="1.47"/><path d="M572,658.46a5.68,5.68,0,0,1,5.47-4.83c3.45-.13,6.18,3.21,6.18,3.21" fill="none" stroke="#fff" stroke-linecap="round" stroke-miterlimit="10" stroke-width="1.47"/><path d="M586.22,654.38s-9.67,9.51,4,8.89" fill="none" stroke="#fff" stroke-linecap="round" stroke-miterlimit="10" stroke-width="1.47"/><path d="M596.6,649.31s-9.44,9.11,4.25,8.48" fill="none" stroke="#fff" stroke-linecap="round" stroke-miterlimit="10" stroke-width="1.47"/><path d="M607.27,643s-8.9,8.55,4.78,7.92" fill="none" stroke="#fff" stroke-linecap="round" stroke-miterlimit="10" stroke-width="1.47"/><path d="M619.71,634.7s-8.1,11.63,5.87,6.86" fill="none" stroke="#fff" stroke-linecap="round" stroke-miterlimit="10" stroke-width="1.47"/><path d="M632.17,625.43s-8.1,11.63,5.87,6.86" fill="none" stroke="#fff" stroke-linecap="round" stroke-miterlimit="10" stroke-width="1.47"/><path d="M643.82,615.22s-8.1,11.63,5.87,6.87" fill="none" stroke="#fff" stroke-linecap="round" stroke-miterlimit="10" stroke-width="1.47"/><path d="M654.17,605s-7.09,11,6.88,6.28" fill="none" stroke="#fff" stroke-linecap="round" stroke-miterlimit="10" stroke-width="1.47"/><path d="M664,593.69s-7.1,11,6.87,6.29" fill="none" stroke="#fff" stroke-linecap="round" stroke-miterlimit="10" stroke-width="1.47"/><path d="M672.19,582.09s-4.94,11.48,8.38,5.23" fill="none" stroke="#fff" stroke-linecap="round" stroke-miterlimit="10" stroke-width="1.47"/><path d="M679.65,568.6s-3.84,14.85,9.15,4.08" fill="none" stroke="#fff" stroke-linecap="round" stroke-miterlimit="10" stroke-width="1.47"/><path d="M685.5,552.58s0,16.46,8.83,3.52" fill="none" stroke="#fff" stroke-linecap="round" stroke-miterlimit="10" stroke-width="1.47"/><path d="M569,655s10.35,8.78-3.34,9.17" fill="none" stroke="#fff" stroke-linecap="round" stroke-miterlimit="10" stroke-width="1.47"/><path d="M558.31,650.74s10.08,8.38-3.61,8.77" fill="none" stroke="#fff" stroke-linecap="round" stroke-miterlimit="10" stroke-width="1.47"/><path d="M547.19,645.28s9.52,7.86-4.17,8.25" fill="none" stroke="#fff" stroke-linecap="round" stroke-miterlimit="10" stroke-width="1.47"/><path d="M534.17,637.88s8.94,11-5.34,7.28" fill="none" stroke="#fff" stroke-linecap="round" stroke-miterlimit="10" stroke-width="1.47"/><path d="M521.05,629.56s9,11-5.34,7.28" fill="none" stroke="#fff" stroke-linecap="round" stroke-miterlimit="10" stroke-width="1.47"/><path d="M508.68,620.25s8.94,11-5.34,7.28" fill="none" stroke="#fff" stroke-linecap="round" stroke-miterlimit="10" stroke-width="1.47"/><path d="M497.59,610.78s7.9,10.5-6.39,6.79" fill="none" stroke="#fff" stroke-linecap="round" stroke-miterlimit="10" stroke-width="1.47"/><path d="M487,600.28s7.9,10.49-6.38,6.78" fill="none" stroke="#fff" stroke-linecap="round" stroke-miterlimit="10" stroke-width="1.47"/><path d="M477.93,589.32s5.77,11.08-8,5.84" fill="none" stroke="#fff" stroke-linecap="round" stroke-miterlimit="10" stroke-width="1.47"/><path d="M469.48,576.42s4.94,14.53-8.82,4.75" fill="none" stroke="#fff" stroke-linecap="round" stroke-miterlimit="10" stroke-width="1.47"/><path d="M462.45,560.88s1.19,16.42-8.53,4.17" fill="none" stroke="#fff" stroke-linecap="round" stroke-miterlimit="10" stroke-width="1.47"/><line x1="572.72" y1="660.21" x2="579.97" y2="664.19" fill="none" stroke="#fff" stroke-linecap="round" stroke-linejoin="round" stroke-width="1.47"/><line x1="582.88" y1="659.83" x2="575.95" y2="664.34" fill="none" stroke="#fff" stroke-linecap="round" stroke-linejoin="round" stroke-width="1.47"/><path d="M398.76,1170.19s199.4,13.47,405.45-12.29" fill="none" stroke="#fff" stroke-linejoin="round" stroke-width="16"/></g><path d="M881.73,1043c-3.83-55.87-18.1-124.58-18.1-124.58s-23.87-307-62.17-332c-10.88-7.1-142.29-56.21-142.29-56.21s-2.49,55-82.84,55c-65.08,0-82.1-39.23-86.21-51.38a10.79,10.79,0,0,1-.75-2.59c-1,.65-100.94,62.69-145.44,89.5C299.2,647.71,312.75,945,312.75,945a721.68,721.68,0,0,0-1.6,128.12c5.53,68.42-.88,179.2,15.45,197.94l62.46-1.5s-5.6-14.35-4.65-27c2.27-30.22,5.53-104.27,15.36-135.22s21.45-88.31,21.45-88.33c.49,23.68.3,42.23-1,50.33-3.6,21.92-31.66,102.78-17.78,133.07-3.34,29.28-2.63,35-2.63,35s71,13.9,148,13c137.52-1.66,259.58-24.63,259.58-24.63s-2-22.13-3.08-27.82c4.69-10.68-8.58-94-15.53-142.16,17.07,47.16,37.86,125.83,40.07,161.53,1.64,26.39,2.89,34.36,2.89,34.36h61.1s4.48-6.67,5.3-18.89S887.31,1124.28,881.73,1043Z" fill="none" stroke="#262521" stroke-linecap="round" stroke-linejoin="round" stroke-width="3"/><path d="M399.77,1238.06s71,13.89,148,13c137.52-1.66,259.57-24.64,259.57-24.64" fill="none" stroke="#636363" stroke-linecap="round" stroke-linejoin="round"/></svg>