<svg xmlns="http://www.w3.org/2000/svg" width="1250" height="1550" viewBox="0 0 1250 1550"><title>s03e04-02</title><path d="M401.89,1235.47s59.7-17.78,201.6-22.29,198.12,9.94,198.12,9.94l21.11,287.24c-209.14,38.46-397.55,3.9-397.55,3.9Z" fill="#262521" stroke="#262521" stroke-linecap="round" stroke-linejoin="round" stroke-width="3"/><path d="M881.73,1043c-3.83-55.87-18.1-124.58-18.1-124.58s-23.87-307-62.17-332c-10.88-7.1-142.29-56.21-142.29-56.21s-2.49,55-82.84,55c-65.08,0-82.1-39.23-86.21-51.38a10.79,10.79,0,0,1-.75-2.59c-1,.65-100.94,62.69-145.44,89.5C299.2,647.71,312.75,945,312.75,945a721.68,721.68,0,0,0-1.6,128.12c5.53,68.42-.88,179.2,15.45,197.94l62.46-1.5s-5.6-14.35-4.65-27c2.27-30.22,5.53-104.27,15.36-135.22s21.45-88.31,21.45-88.33c.49,23.68.3,42.23-1,50.33-3.6,21.92-31.66,102.78-17.78,133.07-3.34,29.28-2.63,35-2.63,35s71,13.9,148,13c137.52-1.66,259.58-24.63,259.58-24.63s-2-22.13-3.08-27.82c4.69-10.68-8.58-94-15.53-142.16,17.07,47.16,37.86,125.83,40.07,161.53,1.64,26.39,2.89,34.36,2.89,34.36h61.1s4.48-6.67,5.3-18.89S887.31,1124.28,881.73,1043Z" fill="#262521" stroke="#262521" stroke-linecap="round" stroke-linejoin="round" stroke-width="3"/><path d="M399.77,1238.06s71,13.89,148,13c137.52-1.66,259.57-24.64,259.57-24.64" fill="none" stroke="#636363" stroke-linecap="round" stroke-linejoin="round"/><path d="M519.59,729.53l-5.51-12.62-2.86.07.31,12.74-6,.15-.76-31.3,8.67-.21c7.2-.18,10.71,3.21,10.85,9.1.1,3.9-1.22,6.76-4.53,8.09L526,729.37ZM511.1,712l3.07-.07c2.65-.07,4.22-1.4,4.15-4.44s-1.71-4.3-4.36-4.23l-3.07.07Z" fill="#fff"/><path d="M531,729.25l7-31.49,7.67-.19L554,728.69l-5.73.14-1.67-6.55-8.28.2-1.54,6.63Zm8.25-12.09,5.94-.14L542,704.43h-.09Z" fill="#fff"/><path d="M559.92,697.23l8.33-.2c6.85-.17,10.73,2.68,11.18,10.57l.24,9.62c-.07,7.9-3.81,10.94-10.66,11.11l-8.33.2Zm6.62,25.86,2.08-.05c3.29-.08,5.16-1.68,5-6.37l-.2-8.23c-.11-4.42-1.63-6.21-5.35-6.12l-2.09,0Z" fill="#fff"/><path d="M588.6,727.85l-.76-31.3,6-.15.76,31.3Z" fill="#fff"/><path d="M609,718.07c.08,3.47,1.62,4.39,4,4.33s3.88-1,3.79-4.52l0-2.08,6-.14,0,1.3c.18,7.71-3.82,10.59-9.63,10.73s-9.95-2.54-10.14-10.25l-.27-11.19c-.19-7.72,3.82-10.59,9.63-10.73s10,2.54,10.14,10.25v.09l-6,.14,0-.86c-.08-3.47-1.62-4.39-4-4.33s-3.87,1.05-3.79,4.52Z" fill="#fff"/><path d="M629.22,726.86l7-31.48,7.67-.19,8.3,31.12-5.72.13-1.67-6.55-8.28.2L635,726.72Zm8.25-12.08,5.94-.15-3.21-12.58h-.09Z" fill="#fff"/><path d="M658.91,726.14l-.76-31.3,6-.14.63,26,9.62-.24.13,5.29Z" fill="#fff"/><path d="M523.83,781.13l-.59-24.27,12.11-.3.1,4.11-7.47.18.14,5.58,5.85-.14.1,4.1-5.85.14.25,10.49Z" fill="#fff"/><path d="M539.43,780.75l-.59-24.27,12.71-.31.1,4.1-8.07.2.14,5.58,6.15-.15.1,4.1-6.15.15.15,6.39,8.41-.2.1,4.1Z" fill="#fff"/><path d="M557.18,780.32l-.59-24.27,6.49-.16,4.59,15.83h.07l3.81-16,6.49-.16.59,24.27-4,.1-.47-19.1h-.07L569.66,780l-3.5.08-5.41-19h-.06l.46,19.1Z" fill="#fff"/><path d="M584,779.67l-.59-24.27,4.64-.12.59,24.28Z" fill="#fff"/><path d="M594,779.43l-.59-24.28,5.08-.12,6.8,14.23h.07L605,754.87l4.24-.1.59,24.27-4.44.11L598,763.66h-.07l.38,15.66Z" fill="#fff"/><path d="M615.25,778.91l-.59-24.27,4.64-.11.59,24.27Z" fill="#fff"/><path d="M634.83,760.91c-.83-2.27-1.86-3.22-3.48-3.18a2.38,2.38,0,0,0-2.49,2.72c.09,3.66,10.45,3.68,10.64,11.28.1,4.17-2.69,7-7.57,7.11-3.76.1-6.74-1.88-8.1-6.63l4.55-1.08C629,774,630.7,775,632.07,775a2.72,2.72,0,0,0,2.79-3c-.11-4.58-10.47-4.39-10.63-11.18-.1-4.17,2.32-6.86,7.13-7a7.23,7.23,0,0,1,7.61,5.7Z" fill="#fff"/><path d="M657.83,753.59l.1,4.1-5.42.13L653,778l-4.64.11-.49-20.17-5.41.13-.1-4.1Z" fill="#fff"/></svg>