<svg xmlns="http://www.w3.org/2000/svg" width="1000" height="1550" viewBox="0 0 1000 1550"><path d="M364.37 531.26s.01-.03 0 0z" fill="#8e8e8e"/><path d="M752.23 1043c-3.83-55.87-22.88-124.63-22.88-124.63s-14.59-306.95-52.89-331.94c-10.88-7.1-142.29-56.21-142.29-56.21s-2.49 55-82.84 55c-65.08 0-82.1-39.23-86.21-51.38a10.79 10.79 0 01-.75-2.59c-1 .65-100.94 62.69-145.44 89.5C174.2 647.71 192.25 945 192.25 945a619.73 619.73 0 00-3.6 128.12c5.53 68.42-1.88 179.2 14.45 197.94l61-1.5s-5.6-14.35-4.65-27c2.27-30.22 5.53-104.27 15.36-135.22 4.76-15 10-36.21 14-54.09-4.18 35.82-25.19 153.63-13.89 178.58 0 13-1.32 43-1.32 43s73.26 22.14 150.26 21.22c137.52-1.66 263.37-26.64 263.37-26.64s-6.69-30-7.46-43.63c9.13-15.76-1.37-83.46-10.84-148.89 15.66 47 33 109.83 34.87 140.44 1.64 26.39 2.89 34.36 2.89 34.36h58.1s4.48-6.67 5.3-18.89-12.28-108.52-17.86-189.8z" fill="#8e8e8e" stroke="#262521" stroke-linecap="round" stroke-linejoin="round" stroke-width="3"/><path d="M245.86 951c12.67-49.63-10.92-231.4 13.09-277.05s98.55-90.44 112.76-100.14c-9.93-10.24-20.1-28.08-21.92-33.45-.71-2.08-86.36 53.64-130.86 80.45C174.2 647.71 192.25 945 192.25 945a619.73 619.73 0 00-3.6 128.12c5.53 68.42-1.88 179.2 14.45 197.94l28.26-.7c-2-48.65 2.1-97.48 4.41-146M752.23 1043c-3.83-55.87-22.88-124.63-22.88-124.63s-14.59-306.95-52.89-331.94c-10.88-7.1-126.86-50.72-126.86-50.72s-4 15.75-12.65 28.48c.12 0 84.74 28.28 113.27 67.73s24.64 235.42 37 296 54.19 238.43 49.78 323.78h27.83s4.48-6.67 5.3-18.89-12.32-108.53-17.9-189.81z" fill="#262521"/><path d="M289.91 1032.59c-.23-16.61-.59-33.22-.9-49.82q-.4-21.16-.54-42.34c-8.5-3.36-95-17.39-97.7-18.1 1 26.32 1.48 22.71 1.48 22.71s-7.93 78.9-2.4 147.32c.17 2.14 59.93 8.73 85 14.87 4.09-12.93 8.49-30.42 12.24-46.42a.83.83 0 01-.24-.94 60.79 60.79 0 002.77-10.54.84.84 0 01.47-.6l-.18-16.14zM755.15 1080s-2.09-24.86-2.92-37c-3.83-55.87-24.38-129.13-24.38-129.13l-74.32 5.94s3.09 67.53 6.75 98.53c2.86 24.2 10.34 58 15 76.62 1.36-.16 79.87-14.96 79.87-14.96z" fill="#fff"/><path d="M658 977.2c.07-4.09-4.73-62.39-4.73-62.39l-124.06 2.62 8.63 195.74 134.71-5.89S657.84 984.53 658 977.2z" fill="#fff"/><path fill="none" stroke="#262521" stroke-linejoin="round" stroke-width="24" d="M653.25 914.81l-124.06 2.62 8.63 187.24 135.21-5.89"/><path fill="#fff" d="M287.62 923.33l127.05-2.94-.07 195.93H279.76"/><path d="M711 1220.48s30.63-3.83 52.36 0M200.27 1238s30.63-3.83 52.37 0M353 546.43s21.5 56.9 100.8 56.9 94.27-62 94.27-62" fill="none" stroke="#636363" stroke-linecap="round" stroke-linejoin="round"/><path d="M679.76 1225.79c14.49-25-20.49-181-22.29-250.9-1.22-47.59-16.09-167.28-16.09-167.28M285.65 807.61s5.34 199.1 3.83 238.13c-.83 21.49-26.88 158.94-14.57 186.12M729.35 918.39s19 68.76 22.88 124.63c1.4 20.32 3.26 41.57 5.26 62.22M190.34 1104.72c-.37-11.12-.9-21.78-1.69-31.56a619.79 619.79 0 013.6-128.16s-.56-9.26-1.24-24.65M288.8 1053.28c-4.14 18.22-9.12 38.61-14 54.09" fill="none" stroke="#262521" stroke-linecap="round" stroke-linejoin="round" stroke-width="3"/><path d="M285.89 1236.91s167.71 34.19 382.11-9.33" fill="none" stroke="#636363" stroke-linecap="round" stroke-linejoin="round"/><path d="M414.6 1118.82H279.76l2-24H402.6l.06-162.15-114.77 2.65-.55-24 127.05-2.94a12 12 0 0112.27 12l-.06 186.44a12 12 0 01-12 12z" fill="#262521"/><path fill="#262521" d="M288.94 947.21l-97.19-8.48.04-23.92 99.2 8.49-2.05 23.91zM272.74 1113.17l-83.1-4.17 1.14-23.97 87.6 4.17-5.64 23.97z"/><path fill="none" stroke="#262521" stroke-linejoin="round" stroke-width="24" d="M654.03 925.39l75.31-11.12"/><path fill="#262521" d="M678.78 1104.67l-7.34-23.11 81.96-10.83 3.11 23.8-77.73 10.14z"/></svg>