<svg xmlns="http://www.w3.org/2000/svg" width="1000" height="1550" viewBox="0 0 1000 1550"><defs><clipPath id="a"><path d="M679.37 1224.33c-21 7.91-114.27 22.67-206.22 25.35-139.21 1.13-198.25-15-198.25-15-9.66-28.16 10.75-162 10.75-162-24.9 50.82-25.95 166-25.95 166s-27.64-4.81-65.33 0c-2.92-4.07-14.89-241-2.12-293.59-13.72-204.3 5.38-306.88 22.83-321.14 13-10.61 135.78-84.26 135.78-84.26s19.77 63.69 102.89 63.69 95.94-66.88 95.94-66.88 111 41 126.77 50 43.1 100.89 52.89 331.94c24 73.82 40.1 303.09 40.1 303.09s-26.72-6.42-65.38.23c2-25.82-34.52-140.47-34.52-140.47s21.54 122.62 9.82 143.04z" fill="none"/></clipPath></defs><path d="M281.44 1264.52L676 1248.13l19 231.09c-209.13 38.46-397.54 3.9-397.54 3.9z" fill="#262521" stroke="#262521" stroke-linecap="round" stroke-linejoin="round" stroke-width="3"/><path d="M296.22 1019s-11.62 57.38-21.45 88.33-13.09 105-15.36 135.22c-1 12.66 4.65 27 4.65 27l-61 1.5c-16.33-18.74-8.92-129.52-14.45-197.94A619.79 619.79 0 01192.25 945s-18.05-297.29 26.68-324.24 145.46-89.52 145.46-89.52-.24-.24.73 2.61c4.11 12.15 21.13 51.38 86.21 51.38 80.35 0 82.84-55 82.84-55s131.41 49.11 142.29 56.21c38.3 25 52.89 331.94 52.89 331.94s19 68.76 22.88 124.63c5.58 81.26 18.66 177.57 17.85 189.79s-5.3 18.89-5.3 18.89h-58.1s-1.25-8-2.89-34.36c-2.47-39.8-31-134-48.07-177.22" fill="#fff" stroke="#262521" stroke-linecap="round" stroke-linejoin="round" stroke-width="3"/><path d="M289.64 1003.13c.17 19.07.16 34.39-.16 42.61-.83 21.49-26.88 158.94-14.57 186.12 0 13-1.32 43-1.32 43s73.26 22.14 150.26 21.22c137.52-1.66 263.37-26.64 263.37-26.64s-6.69-30-7.46-43.63c14.49-25-20.49-181-22.29-250.9" fill="#fff" stroke="#262521" stroke-linecap="round" stroke-linejoin="round" stroke-width="3"/><g clip-path="url(#a)" fill="#262521" fill-rule="evenodd"><path d="M481.46 776.1c-3.86-2.63-.46-8.92-.64-13.59-.05-1.22-1-2.51-1-3.83-.21-3.79-.75-7.47-.75-11 0-1 1.11-1.58 1.29-2.53.07-.4-1.18-1.3-1.12-1.71.08-.57 1.22-.65 1.23-1.26 0-.82-.47-1.57-.48-2.55-.11-9.9-1.62-20.21.56-29.69-1.9-7-1.87-15.34-2.63-24.23-.36-4.29-1.05-8.44-1.28-13.17-.08-1.62-.79-3-1-4.68-.51-3.89-.31-8-.75-11.46-1.58-12.12 3.3-23.53.06-34.36 2.62-2.07.31-4.77.27-7.63-.05-3.71 1.11-6.8.38-11.44-.28-1.76-.05-3.66-.44-5.08-.47-1.67-2.14-3-2.26-4.63.32-1.46 1.93-2 3-3 2.31.46 3.62 2.17 4.41 4.25a27.18 27.18 0 011.26 6.33c.75 6.19-.52 13.24-.05 19.53.06.78-.79 2 1.1 2.56-2.17 3.48-.59 6.92-1 10.17-.56 5-2.74 10.5-.58 15.7a29 29 0 00-1.59 10.59c.34 5.49 1.36 11 1.76 16.57.5 7 1.88 13.8 2.73 21.68.13 1.15-.22 2.25-.13 3.39.06.66 1.09 1.53 1.11 2.13.08 3.67-1.21 7.35-1 11 .07 1.18.89 2.25 1.06 3.41 1 7-1.32 14.07-.81 20.78.06.9 1 2.09 1.07 3 .06 3.3-.91 6.64-1 9.74-.16 6.64 1.82 12.81 1 19.55a3.09 3.09 0 011.13 1.28c-2.51 1.57-.37 4-4.91 4.18zM491.89 1253c-3.86-1.66-.43-5.68-.6-8.65 0-.78-1-1.6-1-2.44-.19-2.41-.72-4.75-.71-7 0-.66 1.12-1 1.3-1.62.08-.26-1.17-.82-1.11-1.08s1.23-.43 1.24-.81c0-.53-.47-1-.48-1.62-.07-6.31-1.54-12.87.68-18.93-1.88-4.45-1.82-9.76-2.55-15.41-.35-2.74-1-5.38-1.23-8.39-.08-1-.79-1.92-1-3-.5-2.48-.28-5.1-.71-7.3-1.54-7.71 3.38-15 .18-21.88 2.63-1.35.32-3.05.29-4.87-.05-2.36 1.14-4.34.42-7.29-.28-1.11 0-2.32-.42-3.22-.46-1.07-2.14-1.86-2.24-2.91.33-.94 1.95-1.32 3.06-1.94 4.6.51 5.19 4.29 5.61 6.66.73 4-.57 8.45-.12 12.46 0 .49-.8 1.28 1.09 1.62-2.18 2.24-.62 4.42-1 6.49-.57 3.18-2.77 6.72-.63 10a12.67 12.67 0 00-1.62 6.76c.32 3.5 1.32 7 1.7 10.55.47 4.46 1.83 8.78 2.66 13.8.12.73-.23 1.44-.15 2.16.06.42 1.09 1 1.1 1.35.07 2.34-1.23 4.69-1.06 7 .06.75.88 1.43 1.05 2.17.95 4.45-1.37 9-.89 13.25.06.57 1 1.32 1.06 1.89 0 2.11-.94 4.24-1 6.22-.19 4.23 1.77 8.15.93 12.45a2.45 2.45 0 011.13.82c-2.58 1.08-.48 2.62-4.98 2.71zM489.87 1115.49c-5.71-1.8-3.15-11.12-3.49-17-.17-2.8-1.55-6.64-1.7-10.49s.82-7.29-.53-9.83c.76-48-1.73-92.75-2-133.79-.07-10.43-.78-19.15-.43-29.41.3-8.63-1.08-16.89-1.33-25.44-.11-3.82.35-7.7.29-11.5-.06-3.65-.38-7.28-.51-11-.11-3.08.21-6 .23-9.2 0-3.84-.85-7.76-.91-11.58 0-3.11.31-6.34.24-9.77-.19-9.24 2.06-26.3.08-38 1.43-2.7 3.21-4.8 4.48-7.78 4.68 14.82.87 34.67 2.87 50.33-1.4 6-.12 13.58-.11 20.72 0 9.89-.54 20.33 1.66 28.35-1.14 4.5.24 8.81.45 13.28.13 2.68-.27 5.31-.21 8.05.12 5.22 1.05 10.45 1.19 15.64.08 3.15-.8 6.64-.65 9.75.24 4.81 1.14 9.19 1.23 13.91s-.56 10-.39 15c.07 2.36.84 4.66 1 7 .62 8.79.19 18.12.47 27.11.09 2.49.57 5.08.6 7.53.06 4.63-.82 9.17-.76 13.78.08 6.56 1.08 13 1.06 19.66 0 8.65 0 16.65-.28 25.33-.14 4.12.53 11.06 0 14.4-1.54 9.71.26 24.46-2.55 34.95zM620.85 1167.75c-5.71-1.79-3.15-11.12-3.49-17-.16-2.8-1.55-6.64-1.7-10.49s.82-7.3-.53-9.84c.76-48-1.73-92.74-2-133.79-.07-10.42-.78-19.14-.42-29.4.29-8.64-1.09-16.9-1.34-25.44-.11-3.83.35-7.71.29-11.5s-.38-7.28-.51-11c-.11-3.09.21-6 .23-9.2 0-3.84-.85-7.76-.9-11.59-.05-3.11.3-6.33.23-9.77-.19-9.23 2.06-26.29.08-38 1.43-2.71 3.21-4.81 4.48-7.78 4.68 14.82.88 34.66 2.87 50.33-1.4 6-.12 13.57-.11 20.72 0 9.89-.54 20.32 1.66 28.35-1.13 4.5.24 8.81.45 13.28.14 2.68-.27 5.31-.2 8 .11 5.22 1 10.44 1.18 15.64.08 3.15-.8 6.63-.65 9.75.24 4.81 1.14 9.19 1.23 13.91.08 4.87-.56 9.94-.39 15 .07 2.36.84 4.65 1 7 .62 8.78.19 18.12.48 27.1.08 2.49.56 5.09.59 7.53.06 4.64-.82 9.17-.76 13.78.08 6.57 1.08 13 1.06 19.67 0 8.64 0 16.65-.28 25.32-.14 4.12.54 11.07 0 14.4-1.54 9.79.27 24.52-2.55 35.02zM537.71 540.81c3.9 3.88.58 13.19.82 20.09.06 1.8 1 3.72 1.09 5.67.25 5.6.85 11 .89 16.32 0 1.53-1.09 2.34-1.26 3.74-.07.59 1.2 1.93 1.14 2.53-.07.84-1.21 1-1.22 1.86 0 1.22.5 2.32.52 3.77.23 14.65 1.87 29.88-.2 43.91 2 10.37 2.06 22.69 2.91 35.82.42 6.35 1.15 12.5 1.44 19.48.09 2.41.83 4.49 1.06 6.93.56 5.77.4 11.85.87 17 1.71 18-3.06 34.79.27 50.83-2.6 3-.26 7.06-.2 11.29.08 5.49-1.07 10-.31 16.92.29 2.62.06 5.42.45 7.54.48 2.49 2.16 4.47 2.26 6.95-.33 2.21-1.94 3-3 4.33-4.61-1.61-5.2-10.3-5.66-15.81-.77-9.16.45-19.56-.07-28.86-.07-1.15.77-3-1.12-3.79 2.14-5.13.53-10.23.87-15 .51-7.35 2.63-15.5.42-23.2a61.76 61.76 0 001.48-15.65c-.4-8.13-1.48-16.25-1.94-24.51-.57-10.35-2-20.41-3-32.06-.14-1.7.19-3.34.09-5-.07-1-1.11-2.26-1.13-3.15-.13-5.43 1.12-10.86.89-16.3-.08-1.74-.92-3.33-1.1-5-1.06-10.34 1.14-20.79.56-30.72-.08-1.34-1.08-3.09-1.11-4.42-.1-4.88.82-9.81.86-14.41.07-9.81-2-18.94-1.26-28.89a4.49 4.49 0 01-1.16-1.91c2.49-2.45.35-6.03 4.85-6.3zM518.52 1053.5c-5.7-.86-3.07-5.54-3.36-8.47-.14-1.4-1.49-3.31-1.61-5.23s.88-3.65-.44-4.92c1.16-24-1-46.37-.88-66.89 0-5.21-.61-9.57-.17-14.7.36-4.32-.94-8.44-1.13-12.71-.08-1.91.42-3.85.39-5.75s-.32-3.64-.42-5.49c-.08-1.54.26-3 .3-4.6.06-1.92-.78-3.87-.8-5.78 0-1.56.36-3.17.31-4.89-.11-4.61 2.27-13.17.39-19 1.44-1.36 3.26-2.46 4.56-4 4.53 7.35.59 17.35 2.45 25.15-1.46 3-.23 6.8-.29 10.37-.08 5-.7 10.17 1.43 14.17-1.18 2.26.16 4.4.34 6.64.11 1.34-.31 2.66-.28 4 .08 2.61 1 5.21 1.06 7.81.06 1.58-.86 3.33-.73 4.88.19 2.41 1.06 4.59 1.11 7s-.64 5-.52 7.48c0 1.18.8 2.32.94 3.49.55 4.39 0 9.06.25 13.55.06 1.25.52 2.54.53 3.77 0 2.31-.9 4.59-.88 6.89 0 3.29 1 6.49.9 9.83-.09 4.33-.13 8.33-.5 12.67-.17 2.06.45 5.53-.11 7.2-1.62 4.91.05 12.27-2.84 17.53zM532 1003c-5.72-2.43-3.21-14.94-3.58-22.79-.18-3.76-1.58-8.91-1.76-14.09s.78-9.78-.58-13.19c.5-64.44-2.24-124.44-2.73-179.5-.13-14-.88-25.7-.58-39.46.24-11.58-1.18-22.67-1.48-34.14-.13-5.13.31-10.33.23-15.43-.08-4.89-.42-9.77-.57-14.73-.13-4.14.18-8 .18-12.34 0-5.15-.89-10.42-1-15.55-.06-4.17.28-8.5.19-13.11-.25-12.39 1.92-35.26-.13-51 1.42-3.63 3.18-6.42 4.43-10.38 4.77 19.91 1.07 46.5 3.15 67.52-1.37 8.06 0 18.22 0 27.81.06 13.26-.43 27.26 1.82 38-1.11 6 .28 11.82.52 17.82.15 3.59-.24 7.12-.16 10.8.14 7 1.1 14 1.27 21 .1 4.23-.77 8.9-.6 13.08.26 6.45 1.19 12.33 1.3 18.67.11 6.53-.5 13.33-.31 20.05.09 3.17.87 6.25 1 9.38.67 11.79.29 24.32.63 36.37.09 3.34.59 6.83.63 10.11.09 6.21-.77 12.29-.68 18.48.12 8.81 1.14 17.42 1.17 26.39 0 11.59.1 22.34-.15 34-.11 5.53.6 14.85.09 19.32-1.42 13.05.46 32.82-2.3 46.91zM580.47 955.31c-5.72-2.4-3.22-14.74-3.59-22.49-.17-3.72-1.58-8.8-1.75-13.9s.78-9.66-.58-13c.49-63.6-2.24-122.82-2.73-177.16-.13-13.81-.89-25.36-.59-38.94.25-11.44-1.17-22.38-1.47-33.7-.14-5.06.31-10.19.23-15.22-.08-4.83-.43-9.65-.58-14.54-.12-4.09.18-7.93.18-12.19 0-5.08-.89-10.27-1-15.34-.07-4.12.27-8.39.18-12.94-.25-12.23 1.92-34.8-.13-50.3 1.42-3.58 3.19-6.34 4.44-10.26 4.77 19.65 1.06 45.9 3.15 66.65-1.38 7.95 0 18 0 27.44.06 13.09-.42 26.91 1.82 37.55-1.11 5.94.29 11.66.53 17.58.14 3.55-.24 7-.17 10.66.15 6.91 1.11 13.84 1.27 20.71.1 4.18-.76 8.78-.6 12.91.27 6.37 1.2 12.17 1.31 18.42.1 6.45-.5 13.17-.31 19.8.09 3.12.86 6.16 1 9.26.67 11.63.29 24 .62 35.89.1 3.3.6 6.74.64 10 .09 6.13-.77 12.13-.69 18.23.12 8.7 1.15 17.2 1.17 26 0 11.45.11 22.05-.14 33.53-.12 5.46.6 14.66.09 19.07-1.42 12.87.46 32.38-2.3 46.28zM603.43 1252.2c-4.29-2.15-2.44-13.17-2.73-20.09-.14-3.32-1.2-7.87-1.35-12.43s.57-8.62-.46-11.63c.24-56.81-1.94-109.71-2.44-158.25-.13-12.33-.72-22.65-.53-34.78.16-10.22-.93-20-1.19-30.11-.11-4.52.21-9.1.14-13.59-.07-4.32-.34-8.62-.47-13-.1-3.65.12-7.08.11-10.88 0-4.54-.7-9.19-.77-13.71 0-3.68.19-7.49.11-11.56-.22-10.92 1.35-31.08-.25-44.93 1.06-3.2 2.36-5.66 3.28-9.14 3.67 17.55 1 41 2.58 59.53-1 7.1 0 16.05.06 24.51.08 11.69-.25 24 1.46 33.54-.82 5.31.24 10.42.44 15.71.11 3.17-.17 6.28-.1 9.52.12 6.17.86 12.36 1 18.5.08 3.73-.55 7.84-.42 11.53.21 5.69.92 10.87 1 16.46.1 5.76-.34 11.76-.19 17.68.08 2.79.67 5.51.81 8.27.53 10.4.27 21.44.54 32.06.08 2.95.46 6 .5 8.91.08 5.48-.55 10.84-.47 16.29.11 7.77.9 15.36.93 23.27.05 10.22.13 19.69 0 29.95-.08 4.87.48 13.09.11 17-1.13 11.53.35 28.97-1.7 41.37zM502.66 1050.11c5.7 1.11 3.08 7 3.38 10.65.14 1.76 1.49 4.17 1.62 6.59s-.87 4.58.46 6.17c-1.1 30.18 1.07 58.26 1.05 84 0 6.55.64 12 .21 18.47-.35 5.43 1 10.61 1.16 16 .08 2.4-.41 4.84-.38 7.23s.34 4.57.44 6.89c.09 1.94-.25 3.76-.29 5.78-.05 2.41.79 4.87.82 7.27 0 2-.35 4-.3 6.14.12 5.8-2.23 16.53-.34 23.85-1.44 1.69-3.25 3-4.54 4.94-4.56-9.27-.64-21.79-2.52-31.61 1.44-3.79.21-8.53.26-13 .06-6.21.67-12.77-1.47-17.81 1.17-2.83-.17-5.53-.36-8.34-.11-1.68.31-3.34.27-5.06-.08-3.28-1-6.55-1.07-9.82-.07-2 .84-4.17.72-6.13-.21-3-1.08-5.76-1.13-8.73s.62-6.25.5-9.39c-.06-1.49-.81-2.93-1-4.39-.56-5.52-.06-11.39-.28-17-.06-1.56-.53-3.19-.54-4.73 0-2.91.88-5.76.86-8.66 0-4.12-1-8.15-.92-12.35.08-5.43.1-10.46.46-15.91.17-2.59-.46-7 .09-9.05 1.65-6.11-.04-15.39 2.84-22zM491.69 723.29c-3.86-1.8-.44-6.18-.62-9.41 0-.84-1-1.73-1-2.64-.2-2.63-.74-5.17-.73-7.64 0-.72 1.12-1.1 1.3-1.76.07-.28-1.18-.9-1.11-1.18s1.22-.46 1.23-.88-.47-1.08-.48-1.76c-.08-6.86-1.56-14 .65-20.56-1.88-4.85-1.83-10.61-2.56-16.76-.35-3-1-5.84-1.23-9.11-.07-1.13-.78-2.1-1-3.24-.5-2.7-.28-5.54-.71-7.93-1.53-8.39 3.41-16.31.25-23.8 2.63-1.44.33-3.31.32-5.29 0-2.57 1.17-4.71.48-7.92-.27-1.23 0-2.54-.38-3.53-.45-1.16-2.11-2.08-2.19-3.24.35-1 2-1.41 3.1-2 4.59.73 5.09 4.79 5.49 7.37.69 4.28-.64 9.16-.21 13.51.05.54-.81 1.39 1.08 1.77-2.2 2.42-.64 4.79-1 7-.58 3.44-2.79 7.27-.65 10.87a14.46 14.46 0 00-1.64 7.33c.32 3.8 1.32 7.6 1.69 11.47.47 4.84 1.83 9.54 2.66 15 .12.8-.22 1.56-.14 2.35.05.46 1.09 1.05 1.1 1.47.07 2.54-1.23 5.09-1.06 7.64.06.81.89 1.55 1.05 2.35 1 4.84-1.35 9.75-.87 14.39.07.62 1.05 1.44 1.07 2.06.05 2.29-.93 4.6-1 6.75-.17 4.6 1.8 8.86 1 13.53a2.46 2.46 0 011.13.88c-2.62 1.08-.52 2.75-5.02 2.91zM506.26 581.63c3.9 4.19.58 14.21.82 21.65.06 1.94 1 4 1.09 6.11.25 6 .85 11.89.89 17.59 0 1.64-1.09 2.51-1.25 4-.08.64 1.19 2.08 1.13 2.73-.07.9-1.21 1-1.21 2 0 1.31.49 2.5.51 4.06.23 15.78 1.87 32.2-.2 47.31 2 11.17 2.06 24.44 2.92 38.59.41 6.84 1.14 13.47 1.43 21 .09 2.59.83 4.84 1.06 7.47.56 6.21.4 12.76.88 18.26 1.71 19.34-3.06 37.47.26 54.75-2.6 3.28-.26 7.61-.2 12.17.08 5.91-1.07 10.81-.31 18.23.29 2.82.06 5.84.46 8.12.47 2.68 2.15 4.83 2.25 7.5-.33 2.37-1.94 3.2-3 4.65-4.61-1.75-5.2-11.11-5.66-17.05-.77-9.86.45-21.06-.07-31.09-.06-1.23.78-3.17-1.12-4.08 2.14-5.52.53-11 .87-16.2.51-7.91 2.63-16.69.42-25a71.52 71.52 0 001.48-16.86c-.39-8.75-1.48-17.51-1.94-26.41-.57-11.15-2-22-3-34.54-.14-1.84.19-3.6.09-5.41-.06-1.06-1.11-2.44-1.13-3.4-.13-5.84 1.12-11.7.89-17.55-.08-1.88-.92-3.59-1.1-5.44-1.06-11.14 1.15-22.4.56-33.09-.08-1.44-1.08-3.33-1.11-4.77-.1-5.25.83-10.56.86-15.51.07-10.57-2-20.41-1.26-31.13a4.92 4.92 0 01-1.15-2.06c2.48-2.45.34-6.31 4.84-6.6zM607.61 547.56c3.9 3.88.58 13.19.83 20.09.06 1.81 1 3.72 1.08 5.67.26 5.6.85 11 .89 16.33 0 1.53-1.09 2.33-1.25 3.74-.07.59 1.19 1.92 1.13 2.52-.06.84-1.21 1-1.21 1.87 0 1.21.5 2.32.52 3.76.23 14.65 1.86 29.89-.21 43.92 2 10.37 2.06 22.68 2.92 35.82.41 6.34 1.15 12.49 1.43 19.48.1 2.4.83 4.49 1.06 6.92.56 5.77.4 11.85.88 17 1.71 17.94-3.06 34.79.27 50.82-2.61 3-.27 7.06-.21 11.29.08 5.49-1.07 10-.31 16.93.29 2.61.06 5.42.46 7.53.47 2.49 2.15 4.48 2.25 7-.32 2.2-1.94 3-3 4.32-4.61-1.61-5.2-10.29-5.66-15.8-.77-9.16.45-19.56-.07-28.87-.06-1.14.78-2.94-1.12-3.79 2.14-5.13.53-10.23.87-15 .51-7.35 2.64-15.51.43-23.21a61.63 61.63 0 001.41-15.75c-.39-8.13-1.48-16.25-1.94-24.51-.57-10.36-2-20.41-3-32.07-.14-1.7.19-3.33.09-5-.06-1-1.11-2.27-1.13-3.16-.13-5.42 1.12-10.86.89-16.29-.07-1.75-.91-3.33-1.1-5.05-1.06-10.33 1.15-20.79.56-30.72-.07-1.33-1.08-3.09-1.11-4.42-.1-4.88.83-9.81.86-14.4.08-9.81-2-18.95-1.26-28.9a4.44 4.44 0 01-1.15-1.9c2.54-2.31.4-5.89 4.9-6.17zM627.2 671.49c3.9 3.88.58 13.19.83 20.09.06 1.8 1 3.72 1.08 5.66.26 5.61.85 11 .89 16.33 0 1.53-1.09 2.34-1.25 3.74-.07.59 1.19 1.93 1.13 2.53-.06.83-1.21 1-1.21 1.86 0 1.22.5 2.32.52 3.77.23 14.65 1.86 29.88-.21 43.91 2 10.37 2.06 22.68 2.92 35.82.41 6.35 1.15 12.5 1.43 19.48.1 2.41.83 4.49 1.06 6.93.56 5.77.4 11.85.88 16.95 1.71 17.94-3.06 34.79.27 50.82-2.61 3.06-.27 7.07-.21 11.3.08 5.49-1.07 10-.31 16.92.29 2.62.06 5.42.46 7.54.47 2.49 2.15 4.47 2.25 7-.32 2.21-1.94 3-3.05 4.32-4.61-1.6-5.2-10.29-5.66-15.8-.77-9.16.45-19.56-.07-28.86-.06-1.15.78-3-1.12-3.79 2.14-5.13.53-10.23.87-15 .51-7.35 2.64-15.5.43-23.2a61.75 61.75 0 001.47-15.65c-.39-8.13-1.48-16.25-1.94-24.51-.57-10.35-2-20.41-3-32.06-.14-1.7.19-3.34.09-5-.06-1-1.11-2.26-1.13-3.15-.12-5.43 1.12-10.86.89-16.3-.07-1.74-.91-3.33-1.1-5-1.06-10.34 1.15-20.8.56-30.72-.07-1.34-1.08-3.09-1.11-4.42-.1-4.88.83-9.81.86-14.41.08-9.81-2-18.94-1.26-28.89a4.48 4.48 0 01-1.15-1.91c2.53-2.45.39-6.03 4.89-6.3zM559 708.11c3.91 4.73.62 16 .9 24.4.06 2.19 1 4.52 1.1 6.88.28 6.81.89 13.41 1 19.83 0 1.86-1.08 2.83-1.24 4.54-.07.72 1.2 2.34 1.15 3.07-.07 1-1.21 1.17-1.21 2.26 0 1.47.5 2.82.53 4.58.28 17.78 2 36.29 0 53.32 2 12.59 2.14 27.55 3 43.5.44 7.71 1.19 15.18 1.5 23.66.1 2.92.84 5.46 1.09 8.42.57 7 .44 14.38.93 20.59 1.78 21.79-2.93 42.23.45 61.71-2.59 3.69-.23 8.57-.16 13.71.1 6.67-1 12.19-.25 20.55.3 3.17.08 6.58.48 9.15.49 3 2.17 5.44 2.28 8.45-.31 2.68-1.93 3.61-3 5.24-4.62-2-5.24-12.52-5.72-19.21-.8-11.12.38-23.75-.17-35-.07-1.39.76-3.57-1.14-4.6 2.13-6.22.5-12.42.82-18.26.48-8.92 2.58-18.81.34-28.17a90.42 90.42 0 001.42-19c-.42-9.87-1.54-19.73-2-29.77-.61-12.57-2.11-24.78-3.09-38.94-.15-2.06.18-4.05.07-6.09-.07-1.19-1.12-2.75-1.14-3.83-.15-6.59 1.08-13.19.83-19.79-.08-2.11-.93-4-1.12-6.13-1.1-12.55 1.07-25.24.45-37.3-.08-1.61-1.09-3.75-1.13-5.37-.11-5.92.79-11.91.81-17.49 0-11.91-2-23-1.37-35.08a5.81 5.81 0 01-1.15-2.32c2.39-2.84.24-7.19 4.74-7.51zM555.5 696.5c-5.15-2.33-.61-8.1-.86-12.33 0-1.11-1.28-2.27-1.38-3.47-.27-3.44-1-6.77-1-10 0-.94 1.49-1.45 1.72-2.32.1-.36-1.57-1.17-1.48-1.53.1-.52 1.62-.61 1.64-1.16 0-.75-.64-1.42-.64-2.31-.14-9-2.13-18.34.8-27-2.53-6.34-2.47-13.91-3.46-22-.48-3.9-1.38-7.67-1.67-11.95-.1-1.48-1-2.75-1.34-4.25-.67-3.53-.38-7.27-1-10.4-2.06-11 4.5-21.42.26-31.23 3.51-1.9.44-4.34.41-6.94 0-3.37 1.55-6.18.61-10.4-.35-1.6 0-3.33-.51-4.63-.6-1.52-2.82-2.72-2.93-4.24.47-1.36 2.63-1.86 4.13-2.69 6.12.93 6.8 6.26 7.35 9.64.92 5.62-.84 12-.25 17.73.07.7-1.08 1.82 1.44 2.32-2.91 3.17-.83 6.29-1.34 9.24-.77 4.53-3.7 9.56-.84 14.27a18.8 18.8 0 00-2.16 9.63c.43 5 1.77 10 2.29 15 .64 6.35 2.46 12.51 3.58 19.66.17 1-.29 2-.18 3.08.08.61 1.46 1.38 1.47 1.93.11 3.33-1.62 6.69-1.38 10 .08 1.07 1.18 2 1.41 3.09 1.29 6.34-1.78 12.79-1.12 18.88.08.82 1.4 1.89 1.43 2.7.07 3-1.23 6-1.33 8.87-.21 6 2.42 11.61 1.34 17.73a3.52 3.52 0 011.51 1.16c-3.33 1.52-.52 3.7-6.52 3.92zM552.66 1246.93c-3.92-5-.64-17.08-.92-26-.06-2.34-1-4.82-1.11-7.34-.28-7.25-.9-14.3-1-21.14 0-2 1.08-3 1.24-4.84.07-.76-1.2-2.5-1.15-3.27.07-1.09 1.21-1.25 1.21-2.41 0-1.57-.51-3-.53-4.88-.3-19-2-38.7 0-56.85-2-13.43-2.16-29.37-3.07-46.39-.45-8.21-1.21-16.18-1.52-25.22-.11-3.11-.85-5.82-1.09-9-.59-7.47-.45-15.34-.95-22-1.79-23.23 2.91-45-.49-65.79 2.59-3.93.23-9.14.16-14.62-.11-7.11 1-13 .23-21.91-.3-3.38-.08-7-.49-9.76-.48-3.22-2.17-5.8-2.29-9 .32-2.85 1.94-3.85 3-5.58 4.62 2.11 5.24 13.36 5.73 20.49.81 11.86-.37 25.32.19 37.36.07 1.49-.76 3.81 1.14 4.92-2.12 6.63-.49 13.24-.81 19.46-.47 9.51-2.56 20.06-.32 30a102.54 102.54 0 00-1.41 20.25c.43 10.52 1.55 21 2 31.74.62 13.4 2.12 26.42 3.12 41.52.15 2.2-.18 4.32-.07 6.49.07 1.27 1.12 2.94 1.15 4.09.15 7-1.08 14.06-.83 21.09.09 2.26.94 4.31 1.13 6.54 1.11 13.38-1.06 26.91-.43 39.77.08 1.72 1.09 4 1.13 5.72.12 6.32-.78 12.7-.8 18.65 0 12.69 2.07 24.53 1.39 37.41a6.3 6.3 0 011.16 2.47c-2.36 3.1-.21 7.7-4.7 8.03zM532.45 1026.07c3.89 3.15.54 10.74.77 16.35 0 1.48 1 3 1.06 4.62.24 4.56.82 9 .84 13.28 0 1.25-1.1 1.91-1.26 3.06-.08.47 1.19 1.56 1.13 2-.08.68-1.22.79-1.23 1.52 0 1 .49 1.88.51 3.06.18 11.93 1.77 24.33-.34 35.75 2 8.44 2 18.46 2.8 29.16.4 5.16 1.11 10.17 1.37 15.85.09 2 .82 3.65 1 5.63.53 4.7.36 9.65.82 13.8 1.65 14.61-3.17 28.34.11 41.38-2.62 2.49-.29 5.75-.25 9.19.07 4.47-1.1 8.18-.36 13.78.29 2.13 0 4.41.44 6.14.46 2 2.13 3.63 2.23 5.65-.33 1.79-1.95 2.43-3.07 3.53-4.6-1.3-5.16-8.37-5.6-12.85-.75-7.46.51-15.93 0-23.5-.06-.93.79-2.4-1.1-3.08 2.15-4.18.56-8.33.91-12.24.54-6 2.69-12.63.5-18.89a41.08 41.08 0 001.52-12.75c-.36-6.61-1.42-13.22-1.86-20-.54-8.42-2-16.6-2.88-26.09-.13-1.38.2-2.71.11-4.08-.06-.8-1.11-1.84-1.12-2.57-.11-4.41 1.15-8.84.94-13.27-.07-1.41-.91-2.7-1.09-4.1-1-8.41 1.22-16.93.66-25-.07-1.08-1.07-2.51-1.1-3.59-.08-4 .86-8 .91-11.73.1-8-1.93-15.42-1.17-23.52a3.57 3.57 0 01-1.15-1.55c2.58-1.79.5-4.7 4.95-4.94zM500.18 961.73c-3.89-3.17-.54-10.84-.76-16.51-.06-1.48-1-3.05-1.08-4.66-.23-4.6-.81-9.07-.84-13.42 0-1.26 1.1-1.92 1.27-3.08.07-.48-1.19-1.58-1.13-2.07.07-.69 1.22-.8 1.22-1.53 0-1-.49-1.91-.5-3.1-.19-12-1.78-24.56.33-36.1-1.95-8.52-2-18.65-2.81-29.44-.39-5.22-1.11-10.27-1.37-16-.09-2-.82-3.68-1-5.69-.54-4.74-.37-9.73-.83-13.93-1.65-14.75 3.17-28.61-.11-41.78 2.61-2.52.28-5.81.24-9.29-.07-4.51 1.1-8.26.35-13.91-.28-2.15 0-4.46-.43-6.2-.46-2-2.14-3.67-2.23-5.71.33-1.81 2-2.45 3.06-3.56 4.61 1.31 5.17 8.45 5.61 13 .75 7.52-.51 16.08 0 23.72.06 1-.79 2.43 1.11 3.12-2.16 4.22-.57 8.41-.92 12.36-.53 6-2.68 12.76-.49 19.08a41.84 41.84 0 00-1.52 12.87c.37 6.68 1.43 13.35 1.86 20.14.54 8.51 2 16.77 2.88 26.35.14 1.4-.2 2.75-.1 4.13.06.8 1.11 1.86 1.12 2.59.11 4.46-1.15 8.93-.94 13.4.07 1.43.91 2.73 1.09 4.14 1 8.49-1.21 17.1-.65 25.26.07 1.09 1.06 2.53 1.09 3.63.09 4-.85 8.07-.9 11.84-.1 8.07 1.93 15.57 1.18 23.76a3.53 3.53 0 011.14 1.56c-2.57 1.86-.44 4.8-4.94 5.03zM587.33 1242.91c-3.9-3.84-.58-13.06-.82-19.89-.06-1.79-1-3.68-1.09-5.61-.25-5.55-.85-10.93-.89-16.17 0-1.51 1.1-2.31 1.26-3.7.07-.58-1.2-1.91-1.14-2.5.07-.83 1.22-1 1.22-1.84 0-1.21-.5-2.3-.52-3.74-.23-14.5-1.86-29.58.21-43.47-2-10.26-2-22.46-2.91-35.46-.41-6.29-1.14-12.37-1.42-19.29-.1-2.38-.83-4.44-1.07-6.85-.55-5.71-.39-11.73-.87-16.79-1.71-17.76 3.07-34.44-.26-50.31 2.61-3 .27-7 .21-11.18-.08-5.44 1.07-9.94.31-16.76-.29-2.59-.06-5.36-.45-7.46-.48-2.46-2.16-4.43-2.26-6.88.33-2.18 1.95-3 3.06-4.28 4.6 1.59 5.19 10.19 5.65 15.64.77 9.07-.46 19.37.07 28.58.06 1.13-.78 2.91 1.11 3.75-2.14 5.08-.53 10.13-.87 14.88-.51 7.28-2.63 15.35-.43 23a60.47 60.47 0 00-1.47 15.49c.39 8 1.47 16.08 1.93 24.26.57 10.25 2 20.21 3 31.74.14 1.69-.2 3.31-.09 5 .06 1 1.11 2.24 1.13 3.12.12 5.37-1.13 10.76-.9 16.14.08 1.72.92 3.29 1.1 5 1.06 10.23-1.15 20.58-.56 30.42.07 1.31 1.07 3 1.11 4.37.09 4.83-.83 9.71-.87 14.26-.07 9.71 2 18.75 1.26 28.61a4.37 4.37 0 011.15 1.88c-2.53 2.22-.4 5.77-4.89 6.04zM638.53 1241.63c-3.9-3.84-.57-13.06-.82-19.89-.06-1.79-1-3.68-1.08-5.61-.26-5.55-.85-10.93-.89-16.17 0-1.51 1.09-2.31 1.25-3.7.08-.58-1.19-1.91-1.13-2.5.07-.83 1.21-1 1.22-1.84 0-1.21-.5-2.3-.52-3.73-.23-14.51-1.86-29.59.21-43.48-2-10.26-2-22.45-2.91-35.46-.42-6.28-1.15-12.37-1.43-19.29-.1-2.38-.83-4.44-1.06-6.85-.56-5.71-.4-11.73-.87-16.79-1.71-17.76 3.06-34.44-.26-50.31 2.6-3 .26-7 .21-11.18-.08-5.44 1.07-9.94.31-16.76-.29-2.58-.06-5.36-.46-7.46-.47-2.46-2.15-4.43-2.25-6.88.32-2.18 1.94-3 3.05-4.28 4.61 1.59 5.2 10.19 5.65 15.64.78 9.07-.45 19.37.07 28.58.07 1.13-.78 2.91 1.12 3.75-2.14 5.08-.53 10.13-.87 14.88-.51 7.28-2.64 15.35-.43 23a60.52 60.52 0 00-1.48 15.49c.4 8 1.48 16.08 1.94 24.26.57 10.25 2 20.21 3 31.74.14 1.69-.19 3.31-.09 5 .07 1 1.11 2.24 1.13 3.12.13 5.37-1.12 10.76-.89 16.14.07 1.72.91 3.29 1.1 5 1.06 10.23-1.15 20.59-.57 30.42.08 1.31 1.08 3 1.11 4.37.1 4.83-.83 9.71-.86 14.26-.08 9.71 2 18.75 1.26 28.61a4.46 4.46 0 011.15 1.88c-2.54 2.22-.44 5.77-4.91 6.04zM504 1037.87c-4.27-.26-2.28-2-2.49-3.06-.1-.51-1.1-1.2-1.19-1.9s.68-1.34-.31-1.79c1-8.78-.49-16.92-.32-24.41 0-1.9-.41-3.49-.05-5.36.3-1.58-.65-3.08-.76-4.64-.05-.69.34-1.4.33-2.1s-.22-1.32-.28-2a11.43 11.43 0 01.26-1.68c.06-.7-.55-1.41-.56-2.11s.3-1.16.28-1.78c0-1.69 1.82-4.82.5-6.94 1.11-.51 2.49-.91 3.5-1.46 3.23 2.66.2 6.32 1.53 9.16-1.12 1.11-.23 2.48-.3 3.79-.09 1.8-.6 3.71 1 5.16-.89.83.1 1.6.22 2.42.07.48-.26 1-.23 1.47 0 1 .68 1.89.74 2.84 0 .58-.66 1.22-.58 1.79.13.87.77 1.67.79 2.53s-.5 1.82-.43 2.73c0 .43.59.84.69 1.27.39 1.59 0 3.3.12 4.94 0 .45.38.92.38 1.37 0 .84-.7 1.68-.69 2.52 0 1.2.69 2.36.62 3.58a36.4 36.4 0 01-.43 4.63c-.14.75.31 2-.11 2.63-1.29 1.79-.07 4.46-2.23 6.4zM519.5 1125.8c-4.28-.27-2.29-2-2.49-3.07-.1-.51-1.11-1.2-1.19-1.9s.67-1.34-.31-1.79c1-8.78-.5-16.92-.33-24.41.05-1.9-.41-3.48 0-5.36.3-1.58-.66-3.08-.76-4.63 0-.7.33-1.41.33-2.11s-.22-1.32-.28-2a11.43 11.43 0 01.26-1.68c.06-.7-.55-1.41-.56-2.11s.3-1.16.28-1.78c0-1.69 1.82-4.82.5-6.94 1.11-.51 2.49-.91 3.49-1.46 3.24 2.66.21 6.32 1.54 9.16-1.12 1.11-.23 2.48-.3 3.79-.1 1.8-.6 3.71 1 5.16-.89.83.09 1.6.21 2.42.08.48-.25 1-.23 1.47 0 1 .69 1.9.74 2.84 0 .58-.66 1.22-.57 1.79.13.87.77 1.67.79 2.53s-.51 1.82-.43 2.73c0 .43.59.84.69 1.27.39 1.59 0 3.3.11 4.94 0 .45.38.92.38 1.37 0 .85-.69 1.68-.69 2.52 0 1.2.7 2.36.63 3.58a36.4 36.4 0 01-.43 4.63c-.14.75.31 2-.12 2.63-1.31 1.79-.08 4.46-2.26 6.41zM521.6 1251.77c-4.28-.59-2.31-3.88-2.53-5.93-.1-1-1.11-2.32-1.21-3.67s.66-2.56-.33-3.44c.87-16.84-.69-32.5-.61-46.89 0-3.65-.44-6.71-.1-10.3.28-3-.69-5.92-.82-8.92 0-1.34.32-2.7.31-4s-.23-2.55-.31-3.85c0-1.08.21-2.1.25-3.22 0-1.35-.57-2.72-.58-4.06 0-1.09.28-2.22.25-3.43-.06-3.23 1.77-9.22.42-13.32 1.1-1 2.48-1.7 3.48-2.73 3.27 5.16.28 12.14 1.64 17.62-1.11 2.11-.2 4.76-.25 7.26-.08 3.47-.56 7.13 1 9.93-.89 1.58.11 3.09.24 4.65.08.94-.24 1.87-.22 2.83 0 1.83.71 3.65.78 5.47 0 1.11-.65 2.33-.56 3.42.15 1.69.79 3.22.82 4.87s-.48 3.49-.39 5.25c0 .82.59 1.62.7 2.44.41 3.08 0 6.35.17 9.5.05.87.39 1.78.4 2.64 0 1.62-.68 3.21-.66 4.83 0 2.3.72 4.54.66 6.89-.07 3-.1 5.83-.37 8.88-.14 1.44.33 3.87-.09 5-1.19 3.43.07 8.58-2.09 12.28zM303.93 1055.19c5.71 1 3.16 6.6 3.49 10.07.16 1.67 1.54 3.94 1.69 6.23s-.82 4.33.52 5.83c-.8 28.54 1.61 55.08 1.8 79.45.05 6.19.74 11.36.36 17.46-.31 5.14 1 10 1.28 15.09.1 2.27-.37 4.59-.32 6.84s.36 4.32.48 6.51c.1 1.83-.23 3.56-.26 5.48 0 2.28.82 4.58.87 6.85 0 1.85-.33 3.78-.27 5.82.15 5.48-2.16 15.69-.28 22.59-1.45 1.66-3.27 3-4.57 4.75-4.47-8.65-.64-20.58-2.56-29.84 1.43-3.62.16-8.08.18-12.33 0-5.89.59-12.11-1.59-16.83 1.15-2.7-.21-5.23-.42-7.89-.12-1.59.29-3.16.23-4.79-.1-3.11-1-6.19-1.15-9.28-.08-1.88.81-4 .67-5.81-.23-2.86-1.13-5.45-1.2-8.26s.57-5.92.42-8.9c-.07-1.4-.83-2.75-1-4.14-.61-5.22-.16-10.78-.43-16.12-.08-1.48-.56-3-.59-4.47-.05-2.76.84-5.46.78-8.21-.07-3.9-1.05-7.71-1-11.68 0-5.14 0-9.91.31-15.07.15-2.45-.52-6.58 0-8.56 1.54-5.79-.24-14.55 2.56-20.79zM293 728.36c-3.86-1.51-.44-5.25-.62-8 0-.72-1-1.47-1-2.25-.2-2.22-.74-4.39-.72-6.49 0-.61 1.11-.94 1.29-1.51.08-.23-1.18-.75-1.11-1s1.22-.4 1.23-.76-.47-.91-.48-1.49c-.08-5.84-1.56-11.89.65-17.5-1.88-4.12-1.83-9-2.55-14.25-.36-2.53-1-5-1.24-7.75-.07-1-.78-1.78-1-2.75-.5-2.29-.28-4.72-.71-6.75-1.52-7.13 3.41-13.89.25-20.25 2.64-1.24.33-2.81.32-4.5 0-2.19 1.17-4 .48-6.75-.27-1 0-2.16-.38-3s-2.11-1.76-2.19-2.74c.35-.89 2-1.21 3.1-1.76 4.59.6 5.09 4 5.5 6.24.68 3.65-.65 7.8-.22 11.5 0 .46-.81 1.19 1.08 1.5-2.19 2.07-.64 4.09-1 6-.59 2.94-2.79 6.21-.66 9.26a10.91 10.91 0 00-1.63 6.25c.31 3.23 1.31 6.46 1.68 9.75.47 4.12 1.83 8.11 2.66 12.74.12.68-.22 1.33-.14 2 .06.39 1.09.89 1.1 1.25.07 2.16-1.23 4.34-1.06 6.5.06.7.89 1.32 1.05 2 1 4.11-1.35 8.3-.87 12.25.07.53 1 1.22 1.07 1.75.05 1.94-.93 3.92-1 5.75-.17 3.91 1.8 7.53 1 11.5a2.54 2.54 0 011.13.75c-2.65.95-.55 2.36-5.01 2.51zM301 966.81c-3.89-3.18-.54-10.84-.76-16.51-.06-1.49-1-3.06-1.07-4.66-.24-4.6-.82-9.07-.84-13.42 0-1.26 1.1-1.92 1.26-3.08.08-.48-1.19-1.58-1.13-2.07.07-.69 1.22-.8 1.22-1.54 0-1-.49-1.9-.5-3.09-.19-12.05-1.78-24.57.33-36.11-1.95-8.51-2-18.64-2.81-29.44-.39-5.21-1.11-10.27-1.37-16-.09-2-.82-3.69-1-5.69-.54-4.74-.36-9.74-.83-13.94-1.65-14.74 3.17-28.61-.11-41.78 2.61-2.51.28-5.8.24-9.28-.07-4.51 1.1-8.26.36-13.92-.29-2.14 0-4.45-.44-6.19-.46-2-2.14-3.67-2.23-5.71.33-1.81 1.95-2.46 3.06-3.56 4.61 1.3 5.17 8.44 5.61 13 .75 7.53-.51 16.08 0 23.73.06.94-.79 2.42 1.11 3.11-2.16 4.23-.56 8.42-.92 12.37-.53 6-2.68 12.75-.49 19.07a41.88 41.88 0 00-1.52 12.87c.37 6.68 1.43 13.36 1.86 20.15.54 8.51 2 16.77 2.89 26.35.13 1.4-.2 2.74-.11 4.12.06.81 1.11 1.86 1.12 2.59.11 4.46-1.15 8.94-.94 13.4.07 1.44.91 2.74 1.09 4.15 1 8.49-1.21 17.1-.65 25.26.07 1.09 1.07 2.53 1.09 3.63.09 4-.85 8.06-.9 11.84-.1 8.07 1.93 15.57 1.18 23.75a3.61 3.61 0 011.14 1.57c-2.62 1.85-.49 4.79-4.94 5.03zM287.64 986.43c-3.89-3.18-.54-10.84-.76-16.51-.06-1.49-1-3.06-1.08-4.66-.23-4.6-.81-9.07-.84-13.42 0-1.26 1.1-1.92 1.27-3.08.07-.48-1.19-1.58-1.13-2.07.07-.69 1.22-.8 1.22-1.54 0-1-.49-1.9-.5-3.09-.19-12-1.78-24.57.33-36.1-1.95-8.52-2-18.65-2.81-29.45-.4-5.21-1.11-10.27-1.37-16-.09-2-.82-3.69-1-5.69-.54-4.74-.37-9.74-.83-13.93-1.65-14.75 3.17-28.61-.11-41.78 2.61-2.52.28-5.81.24-9.29-.07-4.51 1.1-8.26.35-13.91-.28-2.15 0-4.46-.43-6.2-.46-2-2.14-3.67-2.23-5.71.33-1.81 1.95-2.45 3.06-3.56 4.61 1.31 5.17 8.45 5.61 13 .75 7.53-.51 16.08 0 23.73.06.94-.79 2.43 1.11 3.12-2.16 4.22-.57 8.41-.92 12.36-.53 6-2.68 12.75-.49 19.08a41.81 41.81 0 00-1.52 12.87c.36 6.68 1.43 13.35 1.86 20.14.54 8.51 2 16.77 2.88 26.35.14 1.4-.2 2.74-.1 4.12.06.81 1.11 1.87 1.12 2.6.11 4.45-1.15 8.93-.94 13.39.07 1.44.91 2.74 1.09 4.15 1 8.49-1.21 17.1-.65 25.26.07 1.09 1.06 2.53 1.09 3.63.08 4-.85 8.07-.9 11.84-.1 8.07 1.93 15.57 1.18 23.75a3.7 3.7 0 011.14 1.57c-2.58 1.85-.44 4.79-4.94 5.03zM297.15 1251.18c-3.9-2.8-.58-9.65-.82-14.69-.06-1.32-1-2.71-1.08-4.13-.25-4.1-.84-8.07-.88-11.94 0-1.12 1.1-1.72 1.26-2.75.07-.43-1.19-1.39-1.14-1.83.07-.62 1.22-.72 1.22-1.38 0-.89-.5-1.69-.51-2.75-.22-10.71-1.85-21.84.23-32.12-2-7.57-2-16.57-2.89-26.17-.41-4.64-1.14-9.13-1.42-14.24-.1-1.76-.83-3.28-1.06-5.06-.55-4.21-.39-8.66-.86-12.39-1.7-13.11 3.08-25.47-.23-37.17 2.6-2.26.26-5.17.21-8.26-.08-4 1.08-7.36.32-12.38-.29-1.91-.05-4-.45-5.51-.47-1.82-2.15-3.26-2.25-5.07.32-1.61 1.94-2.2 3.05-3.19 4.61 1.13 5.19 7.48 5.65 11.51.77 6.69-.47 14.31.05 21.11.06.84-.78 2.16 1.12 2.76-2.15 3.77-.54 7.49-.88 11-.52 5.39-2.65 11.37-.44 17a33.43 33.43 0 00-1.49 11.46c.39 5.94 1.47 11.87 1.92 17.91.57 7.57 2 14.91 3 23.42.14 1.25-.19 2.45-.09 3.67.06.72 1.11 1.65 1.13 2.3.12 4-1.13 8-.91 11.93.08 1.28.92 2.42 1.1 3.68 1.06 7.55-1.16 15.22-.58 22.48.08 1 1.08 2.24 1.11 3.22.09 3.57-.83 7.18-.87 10.54-.08 7.18 2 13.84 1.24 21.13a3.15 3.15 0 011.15 1.38c-2.55 1.68-.42 4.28-4.91 4.53zM304.75 1043c-4.27-.27-2.28-2-2.49-3.06-.1-.51-1.1-1.2-1.19-1.9s.68-1.34-.31-1.79c1-8.78-.49-16.92-.32-24.41 0-1.9-.41-3.49-.05-5.37.3-1.58-.65-3.07-.76-4.63-.05-.7.34-1.41.33-2.1s-.22-1.33-.28-2A10.11 10.11 0 01300 996c.05-.7-.56-1.41-.56-2.11s.29-1.16.28-1.79c-.05-1.68 1.81-4.82.49-6.94 1.11-.51 2.5-.91 3.5-1.45 3.24 2.66.21 6.32 1.53 9.16-1.12 1.11-.23 2.48-.3 3.78-.09 1.81-.6 3.72 1 5.16-.9.83.09 1.61.21 2.42.07.49-.25 1-.23 1.47 0 1 .68 1.9.74 2.85 0 .57-.66 1.22-.58 1.78.13.88.77 1.67.79 2.53s-.5 1.82-.42 2.74c0 .43.58.84.68 1.26.39 1.6 0 3.31.12 5 0 .45.38.92.38 1.37 0 .84-.7 1.68-.69 2.52 0 1.2.69 2.36.62 3.58a36.4 36.4 0 01-.43 4.63c-.14.75.31 2-.11 2.62-1.31 1.75-.09 4.42-2.27 6.42zM620.64 1251.77c-4.27-.35-2.29-2.47-2.5-3.78-.1-.62-1.11-1.47-1.2-2.34s.67-1.64-.32-2.2c.94-10.78-.56-20.8-.41-30 0-2.34-.42-4.29-.07-6.6.3-1.94-.66-3.78-.78-5.7-.05-.85.33-1.73.33-2.58s-.23-1.63-.29-2.46a16.91 16.91 0 01.25-2.07c.06-.86-.56-1.73-.56-2.59 0-.7.29-1.42.27-2.2-.06-2.07 1.8-5.91.47-8.53 1.11-.61 2.49-1.1 3.49-1.77 3.25 3.28.23 7.77 1.57 11.27-1.12 1.36-.22 3-.29 4.65-.08 2.22-.58 4.56 1 6.34-.9 1 .1 2 .22 3 .07.6-.25 1.2-.23 1.81 0 1.17.7 2.33.76 3.5 0 .71-.66 1.49-.58 2.19.14 1.08.78 2 .81 3.11s-.5 2.24-.42 3.36c0 .53.59 1 .69 1.56.4 2 0 4.07.14 6.08 0 .56.38 1.13.38 1.68 0 1-.69 2.07-.68 3.1 0 1.48.7 2.91.64 4.4-.09 2-.13 3.74-.41 5.69-.14.93.31 2.48-.11 3.23-1.23 2.18 0 5.47-2.17 7.85zM674.78 1193.3c-4.28-.35-2.29-2.47-2.5-3.78-.1-.62-1.11-1.47-1.2-2.33s.67-1.65-.32-2.21c.94-10.78-.56-20.79-.41-30 0-2.34-.43-4.29-.07-6.6.29-1.94-.67-3.78-.78-5.7 0-.85.33-1.73.32-2.58s-.22-1.63-.28-2.46a15.16 15.16 0 01.25-2.07c.06-.86-.56-1.73-.57-2.59 0-.7.3-1.42.28-2.19-.06-2.08 1.8-5.92.47-8.54 1.1-.61 2.49-1.1 3.49-1.77 3.25 3.28.23 7.77 1.57 11.27-1.12 1.36-.22 3-.29 4.65-.09 2.22-.58 4.56 1 6.35-.9 1 .09 2 .22 3 .07.6-.25 1.2-.23 1.81 0 1.17.7 2.33.75 3.5 0 .71-.65 1.49-.57 2.19.14 1.08.78 2 .81 3.11s-.5 2.24-.42 3.36c0 .53.59 1 .69 1.56.4 2 0 4.07.14 6.08 0 .56.38 1.13.38 1.68 0 1-.69 2.07-.68 3.1 0 1.48.7 2.91.64 4.41-.09 1.94-.13 3.73-.41 5.68-.14.93.31 2.48-.11 3.23-1.23 2.17.05 5.46-2.17 7.84zM675.05 1236.53c-4.27-.11-2.27-1.06-2.47-1.64-.09-.27-1.09-.64-1.17-1s.69-.73-.3-1c1-4.77-.36-9.17-.13-13.23 0-1-.39-1.89 0-2.91.31-.86-.63-1.67-.72-2.51 0-.38.34-.77.34-1.14a8.61 8.61 0 00-.26-1.09c-.05-.3.22-.59.27-.91s-.54-.76-.54-1.14.31-.63.29-1c0-.92 1.86-2.63.56-3.77 1.11-.28 2.49-.51 3.5-.82 3.22 1.42.16 3.43 1.46 5-1.12.61-.24 1.35-.32 2.06-.11 1-.63 2 .93 2.79-.9.46.08.87.19 1.31.07.26-.26.53-.24.8 0 .51.67 1 .72 1.54 0 .31-.67.66-.59 1 .13.47.76.9.77 1.36s-.52 1-.45 1.49c0 .23.58.45.68.68.38.87 0 1.8.08 2.68 0 .25.37.5.37.74 0 .46-.71.92-.71 1.38 0 .65.67 1.27.59 1.93a11.25 11.25 0 01-.46 2.52c-.15.41.29 1.09-.14 1.42-1.3.93-.06 2.39-2.25 3.46zM545.32 877.92c-4.27-.22-2.28-1.72-2.48-2.64-.1-.44-1.1-1-1.18-1.63s.68-1.15-.31-1.54c1-7.57-.46-14.57-.27-21 0-1.64-.4-3 0-4.62.3-1.36-.65-2.65-.75-4 0-.6.34-1.21.34-1.81s-.22-1.14-.28-1.72a7.53 7.53 0 01.27-1.45c.06-.61-.55-1.22-.56-1.82s.3-1 .29-1.54c-.05-1.45 1.83-4.15.51-6 1.11-.44 2.49-.79 3.5-1.26 3.23 2.28.19 5.44 1.51 7.89-1.12 1-.23 2.14-.31 3.26-.1 1.55-.6 3.2 1 4.44-.89.72.09 1.39.21 2.09.07.42-.25.84-.24 1.27 0 .82.69 1.63.74 2.44 0 .5-.66 1.06-.58 1.54.13.76.77 1.44.79 2.18s-.51 1.57-.44 2.36c0 .37.59.72.69 1.09.38 1.37 0 2.84.1 4.26 0 .39.38.79.38 1.17 0 .73-.7 1.45-.7 2.18 0 1 .69 2 .61 3.08a27.18 27.18 0 01-.43 4c-.15.65.3 1.73-.13 2.26-1.31 1.54-.09 3.84-2.28 5.52zM570.23 1253c-5.71-1.09-3.09-6.87-3.39-10.48-.14-1.74-1.5-4.1-1.63-6.48s.86-4.52-.46-6.08c1.06-29.7-1.14-57.33-1.15-82.71 0-6.44-.65-11.83-.23-18.18.35-5.34-1-10.44-1.17-15.72-.09-2.36.4-4.76.36-7.11s-.34-4.5-.45-6.78c-.08-1.91.25-3.71.29-5.69.05-2.38-.79-4.79-.83-7.16 0-1.92.35-3.92.3-6-.13-5.71 2.21-16.27.32-23.47 1.43-1.67 3.25-3 4.53-4.87 4.57 9.12.66 21.44 2.55 31.1-1.44 3.73-.2 8.4-.24 12.82-.06 6.11-.66 12.57 1.48 17.52-1.16 2.79.18 5.45.37 8.21.11 1.65-.3 3.29-.26 5 .08 3.23 1 6.45 1.08 9.66.07 2-.84 4.11-.71 6 .21 3 1.09 5.68 1.14 8.6s-.62 6.15-.49 9.25c.06 1.46.81 2.87 1 4.31.57 5.43.07 11.21.3 16.76.07 1.54.53 3.14.55 4.65 0 2.87-.88 5.68-.85 8.53 0 4.06 1 8 .93 12.15-.07 5.35-.09 10.3-.44 15.66-.17 2.55.46 6.84-.09 8.91-1.64 6.03.06 15.13-2.81 21.6zM657.43 1236.28c-5.7-1.37-3.09-8.53-3.39-13-.15-2.15-1.51-5.09-1.64-8s.87-5.59-.46-7.54c1.06-36.82-1.13-71.08-1.13-102.54 0-8-.65-14.67-.23-22.54.35-6.61-1-12.94-1.17-19.49-.09-2.93.4-5.91.37-8.82s-.34-5.58-.45-8.41c-.08-2.36.25-4.59.29-7.05.06-2.94-.79-5.95-.82-8.88 0-2.38.35-4.85.3-7.49-.14-7.07 2.21-20.15.31-29.1 1.44-2.06 3.24-3.69 4.52-6 4.6 11.34.67 26.57 2.57 38.57-1.45 4.61-.21 10.41-.25 15.89-.06 7.57-.67 15.57 1.48 21.72-1.17 3.45.18 6.75.36 10.18.12 2-.3 4.07-.26 6.17.08 4 1 8 1.09 12 .06 2.42-.85 5.08-.72 7.47.21 3.69 1.08 7 1.14 10.66s-.62 7.62-.49 11.46c.06 1.81.81 3.57.95 5.36.57 6.73.08 13.89.3 20.77.07 1.91.53 3.9.55 5.78 0 3.55-.88 7-.85 10.56 0 5 1 10 .93 15.07-.08 6.62-.1 12.76-.45 19.41-.16 3.16.47 8.48-.08 11-1.61 7.45.1 18.74-2.77 26.79zM591.37 681.26c-3.86-2.19-.45-7.45-.64-11.36 0-1-1-2.09-1-3.2-.21-3.16-.75-6.23-.75-9.22 0-.87 1.11-1.33 1.29-2.12.07-.34-1.18-1.08-1.12-1.42s1.22-.56 1.23-1.06c0-.69-.47-1.31-.48-2.13-.11-8.28-1.62-16.88.56-24.83-1.9-5.85-1.88-12.81-2.64-20.23-.36-3.58-1-7.06-1.28-11-.08-1.36-.8-2.53-1-3.91-.52-3.25-.32-6.69-.76-9.57-1.58-10.13 3.3-19.7.06-28.72 2.62-1.75.3-4 .27-6.39-.06-3.1 1.11-5.68.37-9.56-.28-1.47 0-3.06-.44-4.24-.46-1.4-2.14-2.48-2.25-3.85.32-1.23 1.94-1.71 3-2.5 4.62.73 5.22 5.7 5.66 8.8.75 5.18-.53 11.08-.05 16.33.05.65-.8 1.67 1.09 2.13-2.16 2.93-.59 5.79-1 8.52-.55 4.16-2.73 8.79-.57 13.12a20.65 20.65 0 00-1.58 8.86c.33 4.59 1.36 9.17 1.75 13.84.5 5.85 1.89 11.53 2.74 18.11.13 1-.21 1.89-.13 2.84.06.55 1.1 1.27 1.11 1.77.08 3.07-1.21 6.15-1 9.22.06 1 .89 1.88 1.06 2.85 1 5.84-1.32 11.76-.81 17.37.06.75 1 1.74 1.07 2.49.06 2.76-.91 5.55-1 8.15-.16 5.55 1.82 10.7 1 16.34a2.67 2.67 0 011.13 1.07c-2.49 1.31-.39 3.34-4.89 3.5zM595.75 788c-4.28-.36-2.29-2.55-2.51-3.9-.1-.65-1.1-1.53-1.19-2.42s.67-1.7-.32-2.28c.93-11.15-.57-21.49-.44-31 0-2.42-.42-4.44-.07-6.82.3-2-.66-3.91-.78-5.89-.05-.89.33-1.79.32-2.67s-.22-1.69-.29-2.54a18.08 18.08 0 01.26-2.14c.06-.89-.56-1.79-.57-2.68 0-.72.29-1.47.27-2.27 0-2.14 1.8-6.11.47-8.82 1.1-.63 2.49-1.14 3.49-1.83 3.25 3.4.23 8 1.57 11.65-1.11 1.41-.22 3.15-.28 4.81-.09 2.29-.58 4.72 1 6.56-.9 1 .1 2 .22 3.07.08.62-.25 1.24-.23 1.87.05 1.21.7 2.42.76 3.62 0 .73-.66 1.55-.57 2.27.14 1.11.78 2.12.8 3.21s-.49 2.31-.41 3.47c0 .55.59 1.08.69 1.62.4 2 0 4.2.14 6.28 0 .58.38 1.17.39 1.74 0 1.07-.69 2.13-.68 3.2 0 1.53.7 3 .64 4.55-.09 2-.13 3.87-.41 5.88-.14 1 .32 2.56-.1 3.34-1.23 2.25 0 5.65-2.17 8.12zM638.22 567.36c4.28.66 2.33 4.38 2.56 6.7.1 1.11 1.12 2.62 1.22 4.15s-.65 2.89.35 3.89c-.8 19 .83 36.75.8 53 0 4.13.48 7.59.15 11.66-.27 3.42.72 6.69.85 10.07.07 1.52-.3 3.06-.28 4.56s.24 2.89.32 4.35c0 1.23-.2 2.38-.24 3.65 0 1.52.59 3.07.61 4.59 0 1.23-.28 2.51-.25 3.88.08 3.66-1.72 10.43-.36 15.06-1.1 1.08-2.47 1.93-3.47 3.09-3.29-5.84-.33-13.73-1.71-19.92 1.1-2.4.18-5.38.22-8.22.06-3.92.53-8.06-1.07-11.23.88-1.78-.13-3.49-.26-5.26-.09-1.06.23-2.1.2-3.19-.06-2.07-.72-4.13-.8-6.19 0-1.25.64-2.64.54-3.87-.15-1.9-.8-3.63-.84-5.51s.47-3.94.38-5.92c0-.94-.61-1.84-.72-2.77-.42-3.48 0-7.18-.21-10.74-.05-1-.4-2-.4-3 0-1.84.66-3.64.64-5.47 0-2.6-.74-5.14-.7-7.78.06-3.43.08-6.6.34-10 .12-1.64-.35-4.39.06-5.71 1.21-3.87-.07-9.69 2.07-13.87zM642.84 761.29c4.31 1 2.52 6.66 2.85 10.18.15 1.69 1.24 4 1.4 6.31s-.52 4.42.52 5.92c0 29 2.43 56 3.12 80.79.18 6.3.81 11.55.66 17.76-.12 5.22 1 10.19 1.3 15.34.12 2.31-.18 4.66-.09 7s.37 4.39.51 6.62c.11 1.86-.1 3.62-.08 5.56 0 2.32.72 4.68.81 7 .06 1.88-.17 3.83-.08 5.91.24 5.57-1.27 15.92.3 23-1 1.66-2.39 3-3.33 4.76-3.55-8.86-.94-20.92-2.59-30.34 1-3.66-.06-8.2-.13-12.52-.12-6 .17-12.29-1.57-17.1.8-2.74-.28-5.31-.49-8-.13-1.62.14-3.21.06-4.87-.14-3.15-.9-6.29-1.07-9.42-.1-1.91.53-4 .38-5.9-.24-2.9-1-5.53-1.09-8.38s.3-6 .12-9c-.08-1.43-.68-2.8-.84-4.21-.57-5.29-.36-10.94-.68-16.36-.09-1.5-.48-3.06-.53-4.54-.1-2.8.5-5.55.4-8.34-.14-4-1-7.82-1-11.85-.09-5.23-.21-10.06-.1-15.31.06-2.49-.54-6.67-.18-8.7.99-6.04-.54-14.91 1.42-21.31z"/><path d="M301 966.81c-3.89-3.18-.54-10.84-.76-16.51-.06-1.49-1-3.06-1.07-4.66-.24-4.6-.82-9.07-.84-13.42 0-1.26 1.1-1.92 1.26-3.08.08-.48-1.19-1.58-1.13-2.07.07-.69 1.22-.8 1.22-1.54 0-1-.49-1.9-.5-3.09-.19-12.05-1.78-24.57.33-36.11-1.95-8.51-2-18.64-2.81-29.44-.39-5.21-1.11-10.27-1.37-16-.09-2-.82-3.69-1-5.69-.54-4.74-.36-9.74-.83-13.94-1.65-14.74 3.17-28.61-.11-41.78 2.61-2.51.28-5.8.24-9.28-.07-4.51 1.1-8.26.36-13.92-.29-2.14 0-4.45-.44-6.19-.46-2-2.14-3.67-2.23-5.71.33-1.81 1.95-2.46 3.06-3.56 4.61 1.3 5.17 8.44 5.61 13 .75 7.53-.51 16.08 0 23.73.06.94-.79 2.42 1.11 3.11-2.16 4.23-.56 8.42-.92 12.37-.53 6-2.68 12.75-.49 19.07a41.88 41.88 0 00-1.52 12.87c.37 6.68 1.43 13.36 1.86 20.15.54 8.51 2 16.77 2.89 26.35.13 1.4-.2 2.74-.11 4.12.06.81 1.11 1.86 1.12 2.59.11 4.46-1.15 8.94-.94 13.4.07 1.44.91 2.74 1.09 4.15 1 8.49-1.21 17.1-.65 25.26.07 1.09 1.07 2.53 1.09 3.63.09 4-.85 8.06-.9 11.84-.1 8.07 1.93 15.57 1.18 23.75a3.61 3.61 0 011.14 1.57c-2.62 1.85-.49 4.79-4.94 5.03zM626.63 654.63c-4.28-.54-2.31-3.65-2.53-5.59-.11-.93-1.12-2.19-1.21-3.46s.65-2.42-.34-3.25c.85-15.92-.73-30.71-.66-44.29 0-3.46-.45-6.34-.12-9.74.28-2.86-.69-5.59-.82-8.42-.06-1.26.32-2.55.3-3.81s-.24-2.41-.31-3.63c-.05-1 .21-2 .24-3.05.05-1.27-.57-2.56-.59-3.83 0-1 .29-2.1.26-3.24-.07-3.06 1.75-8.72.4-12.59 1.1-.9 2.48-1.61 3.48-2.59 3.27 4.87.29 11.47 1.66 16.64-1.11 2-.2 4.5-.25 6.87-.07 3.27-.55 6.73 1 9.37-.88 1.5.12 2.92.25 4.4.08.88-.24 1.76-.21 2.67 0 1.72.71 3.45.78 5.17 0 1-.65 2.2-.55 3.23.14 1.59.79 3 .82 4.6s-.48 3.29-.39 4.95c0 .78.6 1.54.71 2.31.41 2.9 0 6 .18 9 .05.83.39 1.68.4 2.49 0 1.53-.67 3-.66 4.57 0 2.17.73 4.29.68 6.5-.07 2.87-.1 5.52-.37 8.39-.13 1.37.34 3.66-.08 4.77-1.17 3.2.09 8.07-2.07 11.56zM276.43 689.1c-4.27-.54-2.31-3.65-2.53-5.59-.1-.93-1.12-2.19-1.21-3.46s.66-2.42-.34-3.25c.86-15.92-.72-30.7-.65-44.29 0-3.46-.46-6.34-.12-9.74.27-2.86-.7-5.59-.83-8.42-.06-1.26.32-2.55.3-3.81s-.23-2.41-.3-3.63c-.06-1 .2-2 .24-3 .05-1.27-.58-2.56-.59-3.83 0-1 .28-2.1.25-3.24-.07-3.06 1.76-8.72.41-12.58 1.1-.91 2.48-1.62 3.47-2.6 3.28 4.87.3 11.47 1.66 16.64-1.1 2-.19 4.5-.25 6.87-.07 3.27-.54 6.73 1.05 9.37-.89 1.5.11 2.92.24 4.4.08.88-.24 1.76-.21 2.67.05 1.72.71 3.45.78 5.17 0 1-.64 2.2-.55 3.23.15 1.59.8 3 .83 4.6s-.48 3.29-.39 5c0 .78.6 1.54.7 2.31.41 2.9 0 6 .18 9 .05.83.4 1.68.4 2.49 0 1.53-.67 3-.65 4.57 0 2.17.72 4.29.67 6.5-.07 2.87-.1 5.52-.37 8.39-.13 1.37.34 3.66-.08 4.77-1.21 3.1.05 7.97-2.11 11.46zM596.7 844.41c-4.28-.14-2.28-1.26-2.48-1.93-.09-.33-1.09-.76-1.17-1.2s.68-.86-.3-1.14c1-5.58-.39-10.74-.18-15.51.06-1.21-.38-2.21 0-3.4.31-1-.63-2-.73-2.94 0-.45.34-.9.34-1.34a9.59 9.59 0 00-.27-1.27c0-.36.23-.7.28-1.07s-.55-.89-.55-1.34.31-.74.29-1.13c0-1.08 1.85-3.08.54-4.42 1.11-.33 2.5-.59 3.5-.94 3.23 1.67.17 4 1.48 5.81-1.12.71-.24 1.57-.32 2.4-.11 1.15-.62 2.37.94 3.28-.9.53.08 1 .2 1.53.07.31-.26.62-.24.94 0 .61.67 1.2.72 1.8 0 .37-.67.78-.59 1.14.13.56.77 1.06.78 1.6s-.52 1.16-.44 1.74c0 .28.58.53.68.8.38 1 0 2.11.08 3.14 0 .29.38.59.37.87 0 .54-.7 1.08-.7 1.61 0 .76.67 1.5.6 2.27a15.09 15.09 0 01-.46 2.94c-.14.48.3 1.28-.13 1.67-1.26 1.15-.05 2.84-2.24 4.09zM457.37 1171.84c-5.71-1.8-3.15-11.12-3.49-17-.16-2.8-1.54-6.64-1.7-10.49s.82-7.29-.52-9.83c.75-48-1.73-92.75-2-133.79-.07-10.43-.78-19.15-.42-29.41.29-8.63-1.08-16.89-1.34-25.44-.11-3.82.35-7.7.3-11.5-.06-3.65-.39-7.28-.52-11-.11-3.08.21-6 .23-9.2 0-3.84-.85-7.76-.9-11.58-.05-3.11.31-6.34.23-9.77-.19-9.24 2.06-26.3.08-38 1.43-2.71 3.21-4.81 4.48-7.78 4.68 14.82.88 34.67 2.88 50.33-1.41 6-.12 13.57-.12 20.72 0 9.89-.53 20.33 1.67 28.35-1.14 4.5.23 8.81.45 13.28.13 2.68-.27 5.31-.21 8.05.11 5.22 1.05 10.45 1.18 15.64.09 3.15-.8 6.64-.65 9.75.24 4.81 1.15 9.19 1.23 13.91s-.55 9.94-.39 15c.07 2.36.84 4.65 1 7 .63 8.79.19 18.12.48 27.11.08 2.49.56 5.08.59 7.53.06 4.63-.82 9.17-.76 13.78.09 6.56 1.08 13 1.06 19.66 0 8.65 0 16.65-.28 25.33-.14 4.12.54 11.06 0 14.4-1.54 9.71.26 24.44-2.56 34.95zM372.61 537.63c3.93 4 .66 13.54.95 20.62.07 1.86 1 3.82 1.12 5.82.28 5.74.91 11.32 1 16.75 0 1.57-1.08 2.4-1.23 3.85-.07.6 1.21 2 1.15 2.58-.06.86-1.21 1-1.21 1.92 0 1.25.52 2.38.55 3.87.31 15 2 30.66.05 45.07 2 10.64 2.19 23.28 3.13 36.76.45 6.51 1.22 12.82 1.54 20 .11 2.46.86 4.6 1.11 7.1.59 5.92.46 12.16 1 17.4 1.82 18.41-2.85 35.73.57 52.17-2.59 3.14-.22 7.25-.14 11.59.11 5.63-1 10.31-.21 17.37.31 2.69.09 5.57.5 7.74.49 2.55 2.18 4.58 2.3 7.13-.32 2.26-1.93 3.06-3 4.45-4.62-1.63-5.26-10.54-5.75-16.2-.83-9.4.34-20.08-.24-29.62-.07-1.18.76-3-1.14-3.89 2.11-5.27.47-10.5.78-15.44.47-7.54 2.54-15.93.29-23.82a65 65 0 001.27-16.08c-.44-8.34-1.58-16.67-2.08-25.15-.64-10.62-2.16-20.93-3.17-32.89-.15-1.75.17-3.43.06-5.15-.07-1-1.13-2.32-1.15-3.24-.16-5.56 1.06-11.15.79-16.73-.08-1.79-.93-3.41-1.13-5.17-1.12-10.6 1-21.35.38-31.54-.08-1.36-1.1-3.16-1.13-4.53-.13-5 .76-10.07.77-14.79 0-10.07-2.1-19.43-1.43-29.65a4.68 4.68 0 01-1.16-1.95c2.52-2.37.37-6.04 4.86-6.35zM364.34 811.73c5.75 2.49 3.38 15.24 3.84 23.24.21 3.84 1.67 9.09 1.9 14.37s-.68 10 .71 13.44c.16 65.69 3.47 126.83 4.49 183 .25 14.25 1.12 26.18 1 40.21-.14 11.81 1.38 23.1 1.78 34.78.18 5.23-.21 10.54-.09 15.73.12 5 .51 10 .71 15 .15 4.21-.11 8.19-.08 12.59 0 5.25 1 10.6 1.1 15.83.1 4.25-.2 8.67-.08 13.37.35 12.63-1.62 36 .49 52-1.39 3.73-3.17 6.65-4.42 10.67-4.77-20.17-1.33-47.39-3.57-68.79 1.31-8.25-.11-18.57-.23-28.36-.17-13.52.18-27.81-2.16-38.76 1.06-6.17-.39-12-.68-18.17-.18-3.66.17-7.27.06-11-.21-7.14-1.23-14.28-1.46-21.38-.14-4.32.68-9.09.47-13.35-.32-6.58-1.31-12.56-1.48-19-.16-6.65.38-13.6.12-20.45-.11-3.23-.92-6.37-1.13-9.56-.78-12-.52-24.8-1-37.09-.13-3.41-.66-7-.74-10.3-.14-6.34.65-12.55.51-18.85-.21-9-1.32-17.77-1.43-26.91-.14-11.83-.33-22.79-.2-34.65.06-5.64-.74-15.14-.28-19.7 1.34-13.4-.74-33.57 1.85-47.91zM440 1256.29c-4.29-2.15-2.43-13.18-2.73-20.1-.14-3.32-1.2-7.86-1.34-12.42s.56-8.62-.46-11.63c.23-56.82-1.95-109.71-2.45-158.26-.13-12.33-.72-22.65-.53-34.78.16-10.21-.93-20-1.18-30.1-.12-4.52.2-9.11.13-13.6-.07-4.31-.34-8.62-.47-13-.1-3.65.12-7.08.11-10.88 0-4.54-.69-9.18-.76-13.71-.06-3.68.18-7.49.1-11.55-.22-10.93 1.35-31.08-.24-44.94 1.05-3.19 2.36-5.66 3.28-9.14 3.67 17.55.95 41 2.57 59.53-1 7.1 0 16.06.07 24.51.07 11.69-.26 24 1.45 33.54-.82 5.31.24 10.42.44 15.71.12 3.17-.17 6.28-.1 9.52.12 6.18.86 12.36 1 18.51.09 3.73-.55 7.84-.42 11.52.22 5.69.93 10.88 1 16.46.1 5.76-.34 11.76-.18 17.68.07 2.79.66 5.51.8 8.27.53 10.4.27 21.44.55 32.07.08 2.94.46 6 .5 8.91.08 5.48-.55 10.83-.48 16.29.11 7.77.9 15.36.94 23.26 0 10.23.12 19.7 0 30-.07 4.88.48 13.09.11 17-1.16 11.49.29 28.92-1.71 41.33zM444.13 551.65c3.91 3.88.58 13.19.83 20.08.06 1.81 1 3.73 1.09 5.67.25 5.6.84 11 .88 16.33 0 1.53-1.09 2.34-1.25 3.74-.07.59 1.19 1.93 1.14 2.53-.07.83-1.22 1-1.22 1.86 0 1.21.5 2.32.52 3.77.23 14.65 1.86 29.88-.2 43.91 2 10.37 2.05 22.68 2.91 35.82.42 6.35 1.15 12.5 1.43 19.48.1 2.41.83 4.49 1.07 6.93.55 5.76.39 11.85.87 17 1.71 17.94-3.06 34.79.27 50.82-2.61 3.05-.27 7.07-.21 11.29.08 5.5-1.07 10-.31 16.93.3 2.62.06 5.42.46 7.54.47 2.48 2.15 4.47 2.26 7-.33 2.21-1.95 3-3.06 4.32-4.61-1.6-5.19-10.29-5.65-15.8-.78-9.16.45-19.56-.08-28.86-.06-1.15.78-2.95-1.12-3.79 2.14-5.13.53-10.23.87-15 .52-7.35 2.64-15.5.43-23.2a61.75 61.75 0 001.47-15.65c-.39-8.13-1.47-16.25-1.93-24.51-.58-10.35-2-20.41-3-32.06-.14-1.7.19-3.34.08-5-.06-1-1.11-2.26-1.13-3.15-.12-5.43 1.13-10.87.9-16.3-.08-1.74-.92-3.33-1.11-5-1.06-10.34 1.15-20.8.56-30.73-.07-1.33-1.07-3.08-1.11-4.41-.09-4.88.83-9.81.86-14.41.08-9.81-2-18.94-1.26-28.89a4.48 4.48 0 01-1.15-1.91c2.53-2.5.4-6.08 4.89-6.35zM463.72 675.57c3.91 3.88.58 13.19.83 20.09.06 1.81 1 3.72 1.09 5.67.25 5.6.84 11 .89 16.32 0 1.54-1.1 2.34-1.26 3.75-.07.59 1.2 1.92 1.14 2.52-.07.84-1.22 1-1.22 1.86 0 1.22.5 2.32.52 3.77.23 14.65 1.86 29.89-.2 43.92 2 10.36 2.05 22.68 2.91 35.82.42 6.34 1.15 12.49 1.43 19.48.1 2.4.83 4.49 1.07 6.92.55 5.77.39 11.85.87 17 1.71 17.94-3.06 34.79.27 50.82-2.61 3-.27 7.06-.21 11.29.08 5.49-1.07 10-.31 16.93.3 2.61.06 5.42.46 7.53.47 2.49 2.15 4.48 2.26 7-.33 2.2-1.95 3-3.06 4.32-4.61-1.61-5.19-10.3-5.65-15.81-.78-9.15.45-19.55-.08-28.86-.06-1.14.78-2.94-1.12-3.79 2.15-5.13.53-10.23.88-15 .51-7.35 2.63-15.51.42-23.21a61.3 61.3 0 001.47-15.65c-.39-8.12-1.47-16.24-1.93-24.51-.58-10.35-2-20.4-3-32.06-.14-1.7.19-3.33.09-5-.07-1-1.12-2.27-1.14-3.16-.12-5.42 1.13-10.86.9-16.29-.08-1.75-.92-3.33-1.1-5-1.07-10.33 1.14-20.79.55-30.72-.07-1.33-1.07-3.09-1.11-4.42-.09-4.88.83-9.81.87-14.4.07-9.81-2-18.95-1.27-28.9a4.54 4.54 0 01-1.15-1.9c2.53-2.47.4-6.06 4.89-6.33zM395.52 712.19c3.92 4.73.63 16 .9 24.4.06 2.19 1 4.52 1.11 6.89.27 6.8.88 13.4.94 19.82 0 1.86-1.08 2.84-1.24 4.55-.07.71 1.2 2.34 1.15 3.06-.07 1-1.21 1.17-1.21 2.26 0 1.48.51 2.82.53 4.58.28 17.79 2 36.29 0 53.32 2 12.6 2.13 27.55 3 43.51.44 7.7 1.19 15.17 1.5 23.66.11 2.91.85 5.45 1.09 8.41.58 7 .44 14.39.94 20.59 1.77 21.79-2.94 42.23.45 61.71-2.6 3.7-.24 8.58-.17 13.71.1 6.67-1 12.19-.25 20.55.3 3.18.08 6.58.49 9.16.48 3 2.16 5.44 2.28 8.45-.32 2.67-1.94 3.61-3 5.23-4.62-2-5.23-12.51-5.71-19.21-.81-11.12.38-23.74-.18-35-.07-1.39.77-3.58-1.13-4.61 2.12-6.22.49-12.42.81-18.25.49-8.92 2.58-18.82.34-28.18a89.71 89.71 0 001.42-19c-.42-9.87-1.54-19.74-2-29.77-.62-12.58-2.11-24.79-3.1-38.94-.15-2.07.18-4 .07-6.09-.07-1.2-1.12-2.76-1.14-3.84-.15-6.59 1.08-13.18.83-19.78-.08-2.12-.93-4.05-1.12-6.13-1.1-12.56 1.07-25.25.45-37.3-.08-1.62-1.09-3.76-1.12-5.37-.12-5.93.79-11.91.81-17.49 0-11.91-2.06-23-1.37-35.09a5.89 5.89 0 01-1.16-2.32c2.44-2.81.27-7.17 4.79-7.49zM392 700.59c-5.15-2.34-.61-8.1-.85-12.34-.06-1.11-1.29-2.27-1.39-3.47-.27-3.44-1-6.77-1-10 0-.94 1.48-1.45 1.71-2.31.11-.37-1.57-1.17-1.48-1.54s1.63-.61 1.64-1.16c0-.75-.63-1.42-.64-2.31-.13-9-2.13-18.34.8-27-2.52-6.35-2.47-13.92-3.46-22-.47-3.89-1.38-7.66-1.67-12-.1-1.48-1.05-2.75-1.33-4.24-.68-3.54-.39-7.28-1-10.41-2.07-11 4.49-21.41.25-31.22 3.51-1.91.44-4.35.41-6.94 0-3.38 1.55-6.19.62-10.41-.36-1.6 0-3.33-.52-4.62-.6-1.53-2.81-2.73-2.92-4.25.46-1.36 2.62-1.85 4.12-2.69 6.13.93 6.8 6.26 7.35 9.64.92 5.62-.84 12-.25 17.73.07.71-1.07 1.82 1.44 2.32-2.91 3.18-.83 6.29-1.34 9.25-.77 4.52-3.69 9.56-.84 14.26a18.83 18.83 0 00-2.16 9.63c.43 5 1.78 10 2.29 15 .64 6.36 2.47 12.52 3.59 19.67.16 1-.3 2.05-.18 3.08.07.6 1.45 1.38 1.47 1.92.1 3.33-1.63 6.69-1.39 10 .08 1.07 1.18 2 1.41 3.08 1.29 6.34-1.78 12.79-1.12 18.89.09.81 1.4 1.88 1.43 2.7.07 3-1.22 6-1.32 8.86-.22 6 2.42 11.61 1.33 17.74a3.34 3.34 0 011.51 1.16c-3.29 1.58-.51 3.75-6.51 3.98zM389.18 1253c-3.92-5.08-.64-17.18-.91-26.16-.07-2.35-1-4.85-1.12-7.39-.27-7.29-.89-14.37-1-21.26 0-2 1.09-3 1.24-4.86.07-.77-1.2-2.52-1.15-3.3.07-1.09 1.21-1.24 1.21-2.41 0-1.59-.51-3-.53-4.91-.3-19.08-2-38.92 0-57.17-2-13.51-2.15-29.55-3.07-46.66-.44-8.26-1.2-16.27-1.52-25.36-.11-3.13-.85-5.85-1.09-9-.58-7.51-.45-15.42-1-22.07-1.79-23.37 2.91-45.28-.49-66.17 2.59-4 .23-9.19.16-14.7-.11-7.15 1-13.07.23-22-.3-3.41-.08-7.06-.49-9.82-.48-3.24-2.17-5.84-2.28-9.07.31-2.86 1.93-3.86 3-5.6 4.62 2.11 5.24 13.43 5.73 20.6.81 11.93-.37 25.46.2 37.58.06 1.49-.77 3.83 1.13 4.94-2.12 6.66-.48 13.32-.8 19.57-.48 9.56-2.57 20.17-.33 30.21a102.94 102.94 0 00-1.4 20.36c.43 10.58 1.55 21.16 2 31.92.62 13.49 2.13 26.58 3.12 41.76.15 2.22-.17 4.34-.07 6.53.07 1.28 1.13 3 1.15 4.11.15 7.07-1.08 14.14-.82 21.21.08 2.27.93 4.34 1.12 6.58 1.11 13.46-1.06 27.06-.42 40 .08 1.73 1.09 4 1.12 5.76.12 6.35-.78 12.77-.79 18.75 0 12.77 2.07 24.67 1.39 37.62a6.38 6.38 0 011.15 2.49c-2.33 2.92-.18 7.63-4.67 7.92zM363.14 801c-3.92-3.72-.64-12.72-.92-19.38-.07-1.74-1-3.58-1.12-5.46-.28-5.41-.9-10.65-1-15.75 0-1.48 1.08-2.26 1.23-3.62.07-.57-1.2-1.85-1.15-2.43.07-.81 1.21-.94 1.21-1.8 0-1.18-.51-2.24-.54-3.64-.3-14.13-2-28.82 0-42.37-2-10-2.16-21.88-3.09-34.55-.44-6.12-1.2-12.05-1.52-18.79-.11-2.32-.85-4.33-1.1-6.68-.58-5.56-.45-11.43-1-16.35-1.79-17.31 2.9-33.59-.51-49 2.59-3 .23-6.82.15-10.9-.11-5.3 1-9.7.23-16.34-.31-2.52-.09-5.23-.5-7.27-.48-2.39-2.17-4.3-2.28-6.69.31-2.13 1.93-2.89 3-4.19 4.62 1.52 5.24 9.9 5.73 15.21.82 8.84-.35 18.88.21 27.85.07 1.11-.76 2.85 1.14 3.66-2.11 5-.48 9.87-.8 14.51-.47 7.09-2.55 15-.31 22.39a58.08 58.08 0 00-1.4 15.11c.44 7.84 1.56 15.67 2.06 23.64.62 10 2.13 19.68 3.14 30.92.14 1.64-.18 3.22-.07 4.84.07.95 1.12 2.18 1.15 3 .15 5.23-1.07 10.49-.82 15.73.09 1.68.94 3.21 1.13 4.86 1.11 10-1.05 20.07-.41 29.65.08 1.29 1.09 3 1.13 4.26.12 4.71-.78 9.47-.79 13.91 0 9.46 2.08 18.26 1.4 27.87A4.18 4.18 0 01368 795c-2.52 2.24-.36 5.68-4.86 6zM423.85 1253c-3.9-3.93-.58-13.35-.82-20.33-.06-1.83-1-3.77-1.09-5.74-.25-5.67-.84-11.17-.88-16.52 0-1.55 1.09-2.37 1.25-3.79.07-.6-1.19-2-1.13-2.55.06-.85 1.21-1 1.21-1.89 0-1.23-.5-2.35-.51-3.81-.23-14.83-1.87-30.25.2-44.44-2-10.5-2.05-23-2.9-36.25-.42-6.43-1.15-12.65-1.43-19.72-.1-2.43-.83-4.54-1.06-7-.56-5.83-.4-12-.88-17.16-1.7-18.15 3.07-35.2-.26-51.43 2.61-3.08.27-7.14.21-11.42-.08-5.56 1.07-10.17.31-17.13-.29-2.65-.05-5.49-.45-7.63-.47-2.52-2.15-4.53-2.26-7 .33-2.23 1.95-3 3.06-4.37 4.61 1.63 5.19 10.42 5.65 16 .77 9.27-.45 19.79.07 29.2.06 1.17-.78 3 1.12 3.84-2.14 5.19-.53 10.35-.87 15.22-.52 7.43-2.64 15.69-.43 23.48a63.17 63.17 0 00-1.48 15.83c.39 8.23 1.48 16.45 1.93 24.81.58 10.48 2 20.65 3 32.45.14 1.72-.19 3.37-.09 5.07.06 1 1.11 2.3 1.13 3.2.12 5.49-1.13 11-.9 16.49.08 1.76.92 3.36 1.1 5.1 1.07 10.46-1.15 21-.56 31.09.08 1.35 1.08 3.13 1.11 4.47.09 4.94-.83 9.93-.86 14.58-.08 9.93 2 19.17 1.25 29.24a4.55 4.55 0 011.15 1.93c-2.53 2.32-.39 5.94-4.89 6.18zM475.06 1257.12c-3.9-4-.58-13.61-.83-20.72-.05-1.86-1-3.84-1.08-5.85-.25-5.78-.85-11.39-.89-16.84 0-1.58 1.1-2.41 1.26-3.86.07-.61-1.2-2-1.14-2.6.07-.87 1.21-1 1.22-1.92 0-1.26-.5-2.4-.52-3.89-.23-15.11-1.86-30.83.21-45.3-2-10.69-2.05-23.4-2.91-37-.41-6.55-1.14-12.89-1.43-20.1-.09-2.47-.82-4.63-1.06-7.14-.55-6-.39-12.22-.87-17.49-1.71-18.51 3.06-35.88-.26-52.42 2.61-3.14.26-7.28.21-11.65-.08-5.66 1.07-10.36.31-17.45-.29-2.7-.06-5.6-.46-7.78-.47-2.57-2.15-4.62-2.25-7.18.33-2.27 1.94-3.07 3.05-4.45 4.61 1.66 5.2 10.62 5.66 16.31.77 9.45-.46 20.17.07 29.77.06 1.18-.78 3 1.11 3.91-2.14 5.29-.53 10.55-.87 15.51-.51 7.58-2.64 16-.43 23.93a65.64 65.64 0 00-1.47 16.14c.39 8.38 1.47 16.76 1.93 25.29.57 10.68 2 21 3 33.07.14 1.76-.19 3.44-.09 5.17.07 1 1.12 2.34 1.14 3.26.12 5.59-1.13 11.2-.9 16.81.08 1.8.92 3.43 1.1 5.2 1.06 10.66-1.15 21.45-.56 31.69.07 1.37 1.07 3.18 1.11 4.56.09 5-.83 10.12-.87 14.86-.07 10.11 2 19.54 1.26 29.8a4.64 4.64 0 011.15 2c-2.54 2.39-.41 6.08-4.9 6.36zM457.16 1255.85c-4.27-.34-2.29-2.46-2.5-3.77-.1-.63-1.11-1.48-1.19-2.34s.67-1.65-.32-2.2c.94-10.79-.56-20.8-.42-30 0-2.34-.42-4.29-.07-6.6.3-1.94-.66-3.78-.77-5.69-.06-.86.33-1.74.32-2.59s-.23-1.63-.29-2.46a15.07 15.07 0 01.26-2.06c.05-.87-.56-1.74-.57-2.6 0-.69.29-1.42.27-2.19-.05-2.07 1.8-5.92.47-8.53 1.11-.62 2.49-1.11 3.49-1.78 3.25 3.29.23 7.77 1.57 11.27-1.11 1.36-.22 3-.28 4.65-.09 2.22-.59 4.57 1 6.35-.89 1 .1 2 .22 3 .08.6-.25 1.2-.22 1.81 0 1.17.69 2.34.75 3.5 0 .71-.66 1.5-.57 2.2.13 1.07.78 2 .8 3.11s-.5 2.23-.42 3.35c0 .53.59 1 .7 1.56.39 2 0 4.07.13 6.08 0 .56.38 1.14.38 1.69 0 1-.68 2.06-.68 3.1 0 1.47.7 2.9.64 4.4a51.65 51.65 0 01-.41 5.68c-.14.93.31 2.48-.11 3.24-1.24 2.15 0 5.44-2.18 7.82zM381.85 882c-4.28-.22-2.28-1.72-2.49-2.63-.09-.44-1.1-1-1.18-1.64s.68-1.15-.31-1.54c1-7.56-.45-14.57-.26-21 0-1.64-.4-3 0-4.63.31-1.36-.64-2.64-.75-4 0-.6.34-1.21.34-1.81s-.22-1.14-.28-1.72a8.75 8.75 0 01.27-1.45c.06-.6-.55-1.21-.55-1.81s.3-1 .28-1.54c-.05-1.46 1.83-4.16.51-6 1.11-.44 2.5-.79 3.5-1.27 3.23 2.29.19 5.45 1.51 7.89-1.12 1-.23 2.14-.3 3.26-.1 1.56-.61 3.21 1 4.45-.9.72.08 1.38.2 2.08.08.42-.25.84-.23 1.27 0 .82.68 1.63.73 2.45 0 .49-.66 1-.58 1.54.13.75.77 1.43.79 2.17s-.51 1.57-.44 2.36c0 .37.59.72.69 1.09.38 1.38 0 2.85.1 4.26 0 .39.38.79.38 1.18 0 .73-.7 1.45-.7 2.17 0 1 .69 2 .62 3.09a27.22 27.22 0 01-.44 4c-.14.65.3 1.74-.12 2.27-1.33 1.51-.14 3.83-2.29 5.51zM406.75 1257.12c-5.7-1.09-3.09-6.86-3.39-10.48-.14-1.73-1.5-4.1-1.63-6.48s.87-4.51-.46-6.07c1.06-29.71-1.13-57.34-1.14-82.71 0-6.45-.66-11.84-.24-18.18.35-5.34-1-10.44-1.17-15.72-.09-2.37.4-4.77.36-7.12s-.33-4.49-.44-6.78c-.09-1.9.25-3.7.29-5.69.05-2.37-.8-4.79-.83-7.15 0-1.93.35-3.92.3-6-.13-5.7 2.21-16.27.31-23.47 1.44-1.67 3.25-3 4.54-4.87 4.56 9.12.66 21.44 2.55 31.11-1.45 3.73-.21 8.39-.25 12.81-.06 6.12-.66 12.58 1.49 17.52-1.17 2.79.17 5.45.36 8.21.12 1.66-.3 3.29-.26 5 .08 3.23 1 6.46 1.09 9.67.06 1.95-.85 4.1-.72 6 .21 3 1.09 5.67 1.14 8.59s-.62 6.15-.48 9.25c.05 1.46.81 2.87.95 4.32.57 5.42.08 11.2.3 16.75.07 1.54.54 3.14.55 4.66 0 2.86-.88 5.67-.85 8.52 0 4.06 1 8 .94 12.15-.08 5.35-.1 10.3-.45 15.67-.16 2.55.47 6.84-.08 8.9-1.61 5.98.1 15.08-2.78 21.59zM415.34 789.45c-3.87-2.86-.47-9.7-.67-14.78-.05-1.33-1-2.73-1.05-4.17-.22-4.12-.77-8.12-.78-12 0-1.12 1.11-1.72 1.28-2.75.08-.44-1.18-1.42-1.12-1.86.07-.61 1.22-.71 1.23-1.37 0-.9-.48-1.71-.49-2.77-.14-10.78-1.68-22 .48-32.31-1.92-7.62-1.92-16.68-2.7-26.35-.38-4.67-1.08-9.19-1.32-14.33-.09-1.76-.81-3.3-1-5.09-.52-4.24-.33-8.71-.78-12.47-1.62-13.19 3.23-25.6 0-37.38 2.61-2.26.28-5.19.24-8.3-.06-4 1.1-7.4.35-12.45-.28-1.92-.06-4-.45-5.53-.48-1.82-2.15-3.28-2.27-5 .31-1.59 1.92-2.19 3-3.21 2.31.51 3.63 2.37 4.43 4.63a32.71 32.71 0 011.27 6.89c.76 6.74-.49 14.4 0 21.25.06.84-.79 2.17 1.1 2.78-2.16 3.79-.57 7.53-.93 11.07-.54 5.41-2.71 11.42-.53 17.07a34.08 34.08 0 00-1.63 11.46c.35 6 1.39 11.95 1.8 18 .52 7.62 1.92 15 2.8 23.58.13 1.25-.21 2.46-.12 3.69.06.73 1.1 1.67 1.11 2.32.09 4-1.19 8-1 12 .06 1.29.89 2.45 1.07 3.71 1 7.61-1.28 15.3-.76 22.61.07 1 1.06 2.27 1.08 3.25.07 3.59-.89 7.22-.95 10.6-.14 7.22 1.85 13.93 1.06 21.26a3.28 3.28 0 011.13 1.4c-2.49 1.72-.38 4.36-4.88 4.55zM417.23 889.28c-4.27-.36-2.29-2.55-2.5-3.9-.1-.65-1.11-1.53-1.2-2.42s.67-1.7-.32-2.28c.94-11.15-.57-21.5-.43-31 0-2.42-.43-4.44-.07-6.82.29-2-.67-3.91-.78-5.89-.05-.89.33-1.79.32-2.67s-.23-1.69-.29-2.54a18 18 0 01.25-2.14c.06-.89-.56-1.79-.57-2.68 0-.72.3-1.47.28-2.27-.06-2.14 1.79-6.11.46-8.82 1.11-.64 2.49-1.14 3.49-1.83 3.25 3.4.24 8 1.57 11.65-1.11 1.4-.21 3.15-.27 4.81-.09 2.29-.59 4.71 1 6.56-.89 1.05.1 2 .22 3.07.08.62-.24 1.24-.22 1.87 0 1.21.69 2.42.75 3.62 0 .73-.65 1.55-.57 2.27.14 1.11.79 2.12.81 3.21s-.5 2.31-.42 3.47c0 .55.59 1.07.7 1.62.39 2 0 4.2.13 6.28.05.58.39 1.17.39 1.74 0 1.07-.69 2.13-.68 3.2 0 1.52.7 3 .64 4.55a55.32 55.32 0 01-.41 5.88c-.13 1 .32 2.56-.1 3.34-1.24 2.26 0 5.66-2.18 8.12zM463.15 658.72c-4.27-.55-2.31-3.66-2.53-5.6-.1-.92-1.12-2.18-1.21-3.46s.66-2.42-.34-3.25c.85-15.91-.72-30.7-.65-44.29 0-3.45-.46-6.34-.12-9.74.27-2.86-.7-5.58-.83-8.41-.06-1.27.32-2.56.3-3.81s-.23-2.41-.3-3.64c-.06-1 .2-2 .24-3 .05-1.27-.58-2.56-.59-3.83 0-1 .28-2.1.25-3.23-.07-3.06 1.76-8.72.41-12.59 1.1-.91 2.48-1.62 3.47-2.59 3.28 4.87.29 11.46 1.66 16.64-1.1 2-.19 4.49-.25 6.86-.07 3.28-.54 6.74 1 9.38-.89 1.49.11 2.91.24 4.39.08.89-.24 1.76-.21 2.67.05 1.73.71 3.45.78 5.17 0 1-.64 2.2-.55 3.23.14 1.59.8 3 .83 4.6s-.49 3.3-.39 5c0 .79.59 1.54.7 2.31.41 2.91 0 6 .18 9 0 .83.4 1.68.4 2.49 0 1.54-.67 3.05-.66 4.57 0 2.18.73 4.29.68 6.51-.07 2.86-.1 5.51-.37 8.38-.13 1.37.34 3.66-.08 4.77-1.16 3.1.1 7.97-2.06 11.47zM433.44 854.92c-4.29-1.43-2.39-8.93-2.65-13.61-.12-2.25-1.16-5.33-1.28-8.42s.61-5.85-.4-7.88c.55-38.52-1.31-74.37-1.51-107.28-.05-8.36-.58-15.36-.3-23.58.22-6.93-.81-13.55-1-20.41-.08-3.06.27-6.17.23-9.22s-.28-5.84-.38-8.8c-.08-2.48.17-4.8.18-7.38 0-3.08-.62-6.22-.66-9.29 0-2.5.24-5.08.19-7.84-.13-7.41 1.59-21.07.16-30.47 1.09-2.16 2.45-3.85 3.43-6.19 3.37 11.88.52 27.78 2 40.35-1.07 4.81-.11 10.88-.11 16.61 0 7.93-.42 16.29 1.22 22.73-.86 3.61.17 7.07.33 10.65.1 2.15-.2 4.26-.16 6.46.08 4.18.78 8.37.88 12.54.06 2.53-.6 5.32-.49 7.81.18 3.86.86 7.37.92 11.16s-.42 8-.3 12c.06 1.89.63 3.73.75 5.6.47 7 .14 14.53.36 21.74.06 2 .42 4.07.44 6 .05 3.71-.61 7.34-.57 11 .07 5.27.81 10.41.8 15.77 0 6.93 0 13.35-.2 20.3-.1 3.31.4 8.88 0 11.55-1.15 7.86.2 19.68-1.88 28.1zM418.26 950.43c-4.27-.14-2.27-1.26-2.47-1.93-.1-.32-1.1-.75-1.18-1.2s.69-.86-.3-1.14c1-5.58-.39-10.74-.17-15.5.05-1.21-.39-2.22 0-3.41.31-1-.63-2-.73-2.94 0-.45.35-.9.35-1.34a12 12 0 00-.27-1.27c-.05-.36.22-.7.27-1.07s-.55-.89-.55-1.34.31-.74.3-1.13c0-1.07 1.84-3.08.54-4.42 1.11-.33 2.49-.59 3.5-.94 3.22 1.67.17 4 1.47 5.81-1.12.71-.24 1.58-.31 2.41-.11 1.14-.63 2.36.94 3.27-.91.53.08 1 .19 1.54.07.3-.26.61-.24.93 0 .61.68 1.2.73 1.8 0 .37-.67.78-.59 1.14.13.56.76 1.06.78 1.6s-.52 1.16-.45 1.74c0 .28.58.54.68.8.38 1 0 2.11.09 3.15 0 .28.37.58.37.86 0 .54-.71 1.08-.71 1.61 0 .76.68 1.5.6 2.27a14.84 14.84 0 01-.45 2.94c-.15.48.29 1.28-.14 1.68-1.26 1.14-.06 2.83-2.25 4.08zM642.66 748.24c-4.27-.14-2.27-1.25-2.47-1.93-.09-.32-1.09-.75-1.17-1.2s.68-.85-.3-1.13c1-5.59-.39-10.75-.18-15.51.06-1.21-.39-2.22 0-3.41.31-1-.64-1.95-.73-2.94 0-.44.34-.9.34-1.34a9.94 9.94 0 00-.27-1.27c0-.36.23-.7.28-1.07s-.55-.89-.55-1.34.3-.73.29-1.13c0-1.07 1.85-3.08.54-4.42 1.11-.33 2.5-.59 3.5-.94 3.23 1.67.17 4 1.48 5.81-1.13.71-.24 1.58-.32 2.41-.11 1.14-.62 2.36.94 3.27-.9.53.08 1 .2 1.54.07.31-.26.62-.24.93 0 .61.67 1.2.72 1.81 0 .36-.67.77-.59 1.13.13.56.77 1.06.78 1.61s-.52 1.16-.44 1.74c0 .27.58.53.68.8.37 1 0 2.1.08 3.14 0 .29.37.58.37.87 0 .53-.7 1.07-.71 1.6 0 .76.68 1.5.61 2.27a15.07 15.07 0 01-.46 3c-.14.48.3 1.27-.13 1.67-1.26 1.09-.05 2.79-2.25 4.03zM654.66 635.11c-4.27-.15-2.27-1.26-2.47-1.93-.09-.33-1.09-.76-1.17-1.2s.68-.86-.31-1.14c1-5.58-.39-10.75-.17-15.51.06-1.21-.39-2.21 0-3.41.31-1-.64-1.95-.73-2.94 0-.44.34-.89.34-1.33a11.5 11.5 0 00-.27-1.27c0-.36.23-.7.28-1.07s-.55-.9-.55-1.34.3-.74.29-1.14c0-1.07 1.85-3.07.54-4.41 1.11-.33 2.5-.59 3.5-.95 3.22 1.68.17 4 1.48 5.82-1.13.71-.24 1.57-.32 2.4-.11 1.15-.62 2.37.94 3.28-.9.53.08 1 .2 1.53.07.31-.26.62-.24.94 0 .6.67 1.2.72 1.8 0 .37-.67.78-.59 1.14.13.56.76 1.06.78 1.6s-.52 1.16-.45 1.74c0 .28.59.53.68.8.38 1 0 2.1.09 3.14 0 .29.37.59.37.87 0 .54-.71 1.07-.71 1.61 0 .76.68 1.49.61 2.27a15.09 15.09 0 01-.46 2.94c-.15.48.29 1.28-.13 1.67-1.26 1.15-.06 2.84-2.25 4.09zM290.41 609c-4.28-.14-2.28-1.25-2.48-1.93-.09-.32-1.09-.75-1.17-1.2s.68-.85-.3-1.13c1-5.59-.39-10.75-.18-15.51.06-1.21-.38-2.22 0-3.41.31-1-.63-1.95-.73-2.94 0-.44.34-.9.34-1.34a9.94 9.94 0 00-.27-1.27c0-.36.23-.7.28-1.07s-.55-.89-.55-1.33.31-.74.29-1.14c0-1.07 1.85-3.08.54-4.42 1.11-.32 2.5-.59 3.5-.94 3.23 1.67.17 4 1.48 5.81-1.12.71-.24 1.58-.32 2.41-.11 1.14-.62 2.36.94 3.27-.9.53.08 1 .2 1.54.07.31-.26.62-.24.93 0 .61.67 1.2.72 1.81 0 .36-.67.78-.59 1.13.13.56.77 1.06.78 1.61s-.52 1.16-.44 1.74c0 .27.58.53.68.8.38 1 0 2.1.08 3.14 0 .29.37.58.37.87 0 .53-.7 1.07-.7 1.6 0 .76.67 1.5.6 2.27a15.07 15.07 0 01-.46 3c-.14.48.3 1.27-.13 1.67-1.26 1.03-.05 2.74-2.24 4.03zM281.53 746c-4.27-.15-2.27-1.26-2.47-1.93-.1-.33-1.1-.76-1.18-1.2s.68-.86-.3-1.14c1-5.58-.39-10.75-.17-15.51 0-1.21-.39-2.21 0-3.41.31-1-.63-1.95-.73-2.94 0-.44.35-.89.34-1.33a11 11 0 00-.26-1.27c-.05-.36.22-.7.27-1.08s-.55-.89-.55-1.33.31-.74.29-1.14c0-1.07 1.85-3.07.54-4.41 1.12-.33 2.5-.59 3.51-.95 3.22 1.67.17 4 1.47 5.81-1.12.72-.24 1.58-.32 2.41-.1 1.15-.62 2.37.94 3.27-.9.54.09 1 .2 1.54.07.31-.26.62-.24.94 0 .6.68 1.2.73 1.8 0 .37-.67.78-.59 1.14.13.55.76 1.05.78 1.6s-.52 1.16-.45 1.74c0 .27.58.53.68.8.38 1 0 2.1.09 3.14 0 .29.37.59.37.87 0 .54-.71 1.07-.71 1.61 0 .76.68 1.49.6 2.27a15.07 15.07 0 01-.45 2.94c-.15.48.29 1.28-.14 1.67-1.27 1.15-.06 2.84-2.25 4.09zM261.66 644c-4.27-.14-2.27-1.25-2.47-1.93-.09-.32-1.09-.75-1.17-1.2s.68-.85-.3-1.13c1-5.59-.39-10.75-.18-15.51.06-1.21-.38-2.22 0-3.41.31-1-.64-2-.73-2.94-.05-.44.34-.9.34-1.34a9.94 9.94 0 00-.27-1.27c0-.35.23-.7.28-1.07s-.55-.89-.55-1.33.3-.74.29-1.14c0-1.07 1.85-3.07.54-4.41 1.11-.33 2.5-.6 3.5-1 3.23 1.67.17 4 1.48 5.81-1.12.71-.24 1.58-.32 2.41-.11 1.15-.62 2.36.94 3.27-.9.53.08 1 .2 1.54.07.31-.26.62-.24.93 0 .61.67 1.21.72 1.81 0 .36-.67.78-.59 1.14.13.55.77 1.05.78 1.6s-.52 1.16-.44 1.74c0 .27.58.53.68.8.38 1 0 2.1.08 3.14 0 .29.37.58.37.87 0 .53-.7 1.07-.7 1.6 0 .76.67 1.5.6 2.27a15.07 15.07 0 01-.46 3c-.14.48.3 1.28-.13 1.67-1.26 1.15-.05 2.84-2.25 4.08zM283.17 1183.31c-4.27-.15-2.31-1.78-2.54-2.75-.1-.47-1.12-1.08-1.22-1.72s.66-1.24-.34-1.63c.83-8.06-.78-15.49-.73-22.35 0-1.75-.47-3.19-.14-4.92.28-1.45-.7-2.8-.83-4.22-.06-.64.31-1.3.29-1.94s-.24-1.21-.31-1.82a9.52 9.52 0 01.23-1.55c.05-.64-.58-1.28-.59-1.92s.28-1.07.25-1.64c-.08-1.54 1.74-4.45.38-6.37 1.1-.49 2.48-.89 3.47-1.41 3.28 2.37.31 5.79 1.68 8.36-1.1 1-.18 2.28-.23 3.48-.06 1.65-.54 3.41 1.06 4.7-.88.78.12 1.47.25 2.22.08.44-.23.89-.2 1.35.05.87.71 1.72.78 2.59.05.52-.64 1.13-.54 1.65.15.8.8 1.51.83 2.3s-.47 1.67-.38 2.51c0 .39.6.76.71 1.14.41 1.46 0 3 .2 4.53 0 .42.39.84.4 1.25 0 .77-.67 1.55-.65 2.32 0 1.1.73 2.15.68 3.27a29.12 29.12 0 01-.35 4.25c-.12.69.34 1.83-.07 2.41-1.21 1.66.06 4.08-2.09 5.91zM285.4 1244.1c-4-.29-2.12-1.7-2.3-2.59-.08-.42-1-1-1.08-1.6s.66-1.1-.27-1.49c1.08-7.29-.16-14.08.14-20.31.07-1.58-.33-2.91.05-4.46.31-1.31-.56-2.57-.63-3.87 0-.58.34-1.17.35-1.74s-.19-1.11-.23-1.67a7 7 0 01.28-1.39c.06-.59-.5-1.19-.49-1.77s.3-1 .29-1.48c0-1.4 1.81-4 .6-5.76 1.05-.41 2.37-.72 3.32-1.16 3 2.27.09 5.26 1.29 7.65-1.08.9-.26 2.06-.35 3.14-.13 1.5-.64 3.08.82 4.31-.86.68.06 1.34.16 2 .06.4-.26.8-.25 1.22 0 .79.62 1.59.65 2.37 0 .48-.64 1-.57 1.48.11.73.7 1.4.7 2.12s-.51 1.5-.46 2.26c0 .36.54.71.63 1.07.34 1.33-.08 2.75 0 4.11 0 .38.34.78.33 1.15 0 .7-.68 1.39-.69 2.08 0 1 .61 2 .52 3a25.22 25.22 0 01-.49 3.84c-.14.63.26 1.69-.15 2.19-1.18 1.48-.08 3.72-2.17 5.3zM653.28 736.29c4 2 .78 7.45 1.13 11.35.09 1 1.05 2.06 1.17 3.16.34 3.17 1 6.22 1.14 9.22 0 .87-1.06 1.37-1.2 2.18-.06.34 1.22 1 1.18 1.38s-1.2.6-1.19 1.11c0 .69.53 1.29.57 2.11.46 8.3 2.32 16.86.47 24.91 2.14 5.79 2.4 12.77 3.46 20.18.51 3.58 1.33 7 1.72 11 .14 1.35.9 2.5 1.17 3.87.65 3.25.58 6.7 1.13 9.58 2 10.09-2.52 19.87 1.05 28.8-2.56 1.85-.16 4 0 6.41.17 3.11-.92 5.75 0 9.61.33 1.47.14 3.08.57 4.26.51 1.38 2.22 2.43 2.36 3.83-.29 1.27-1.9 1.78-3 2.6-4.63-.7-5.35-5.6-5.89-8.7-.92-5.16.15-11.11-.52-16.36-.08-.65.74-1.71-1.17-2.1 2.06-3 .37-5.82.64-8.56.4-4.19 2.39-8.92.07-13.18a20.78 20.78 0 001.16-8.95c-.51-4.59-1.72-9.15-2.3-13.81-.74-5.84-2.35-11.48-3.47-18-.17-1 .14-1.9 0-2.85-.08-.55-1.14-1.23-1.18-1.73-.2-3.07 1-6.22.65-9.29-.11-1-1-1.84-1.18-2.81-1.22-5.81.83-11.84.09-17.44-.09-.75-1.12-1.7-1.17-2.45-.18-2.77.67-5.61.64-8.21-.08-5.57-2.28-10.65-1.71-16.33a2.74 2.74 0 01-1.17-1c2.5-1.5.29-3.43 4.78-3.79zM713.37 1026.7a6 6 0 01-3.29-3.24 21.33 21.33 0 01-1.58-5.84c-.69-4.45-.8-9.68-1.48-13.63-.66-3.79-2.7-8.83-3.54-14s-.47-10-2.26-13.29c-1-8.17-2-16.26-3-24.28l-1.52-12-.37-3c-.12-1-.24-2.12-.33-3.12l-.48-6q-1.93-23.73-4-46.58c-2.71-30.45-5.4-59.71-7.44-87.74-1-14.24-2.55-26.12-3.13-40.16-.5-11.82-2.62-23-3.65-34.7-.46-5.22-.35-10.54-.75-15.73-.39-5-1-9.93-1.5-15-.39-4.2-.33-8.19-.6-12.58-.32-5.25-1.54-10.56-1.94-15.79-.33-4.25-.26-8.67-.64-13.37-1-12.61-.29-36-3.31-51.92 1.18-3.78 2.8-6.74 3.77-10.85 6 20 4 47.31 7.37 68.61-.87 8.3 1.1 18.56 1.74 28.33.9 13.51 1.3 27.8 4.23 38.64-.73 6.21 1 12 1.65 18.13.38 3.65.22 7.27.53 11 .59 7.12 2 14.21 2.61 21.3.38 4.3-.18 9.11.25 13.35.68 6.56 2 12.49 2.51 18.94.54 6.65.38 13.62 1 20.45.29 3.22 1.27 6.31 1.66 9.49 1.45 12 1.89 24.74 3 37 .32 3.39 1 6.91 1.31 10.25.5 6.32.08 12.57.58 18.86.72 9 2.35 17.66 3 26.79.21 3 .42 5.85.63 8.72l.19 2 .24 2.11c.16 1.41.32 2.81.49 4.22.66 5.65 1.32 11.32 1.93 17.22.58 5.61 2.48 15 2.54 19.55.09 6.7 1.24 15 2.24 23.44s1.97 17.01 1.34 24.42zM749 1234.89c-2.21-.72-3-3.27-3.34-6.34s-.23-6.67-.59-9.4-1.69-6.15-2.12-9.75 0-6.9-1.2-9.2c-3.37-45.12-8.95-86.93-12.56-125.43-.91-9.77-2.17-17.92-2.76-27.57-.5-8.12-2.21-15.79-3.11-23.79-.4-3.58-.38-7.25-.73-10.81s-.9-6.81-1.3-10.27c-.34-2.89-.34-5.63-.59-8.65-.3-3.6-1.28-7.23-1.64-10.82-.29-2.91-.29-6-.63-9.18-.91-8.66-.63-24.8-3.06-35.67.85-2.62 2-4.71 2.74-7.54 4.66 13.62 3.47 32.47 6.26 47-.56 5.72 1 12.74 1.63 19.45.82 9.28 1.28 19.1 3.59 26.5-.47 4.29.91 8.25 1.44 12.44.33 2.5.24 5 .52 7.57.52 4.89 1.65 9.73 2.18 14.6.33 3 0 6.27.33 9.19.57 4.49 1.61 8.55 2.07 13s.41 9.36 1 14c.25 2.21 1 4.31 1.33 6.5 1.19 8.2 1.64 17 2.6 25.4.27 2.34.85 4.74 1.07 7 .43 4.34.15 8.65.57 13 .61 6.16 1.88 12.12 2.42 18.39.7 8.12 1.39 15.63 1.88 23.79.23 3.88 1.3 10.35 1.18 13.51-.39 9.31 2.19 23.03.82 33.08zM671.59 783.46c4.36 6.09 2.14 21.4 3.2 32.59.27 2.93 1.44 6 1.76 9.14.91 9.09 2.15 17.89 2.82 26.47.19 2.49-.82 3.86-.81 6.15 0 1 1.42 3.06 1.43 4 0 1.36-1.1 1.63-1 3.09.13 2 .77 3.74 1 6.1 2 23.78 5.4 48.43 5 71.33 3.2 16.74 4.71 36.74 7.11 58 1.16 10.29 2.61 20.24 3.71 31.57.38 3.89 1.36 7.24 1.88 11.19.92 7 1.46 14.23 2.11 20.72l-.11-.68c.62 2.43 1.19 4.57 1.77 6.61 8.08 28.29 8.8 56.07 16.7 81.26-1.75 5.33 1.75 11.39 2.87 18.22.74 4.43 1.17 8.51 1.59 12.89s1.07 9 2.11 14.54c.83 4.21 1.18 8.79 1.88 12.22.87 4 2.94 7.14 3.27 11.26-.08 3.67-1.61 5-2.57 7.25-2.39-1.26-4-5.38-5.09-10.26-.62-2.44-1.16-5.09-1.61-7.67s-.82-5.11-1.24-7.31c-2.5-14.63-3.92-31.48-7.06-46.31-.37-1.82 0-4.84-2.17-5.89a44.36 44.36 0 00-1.15-12.39c-.86-4-1.92-7.91-2.49-11.77-1.8-11.81-2.37-25.23-7.17-37.06a147 147 0 00-3.91-24.55l-.06-.63c-1.34-13.18-3.38-26.31-4.8-39.71-1.79-16.79-4.43-33-6.74-51.91-.34-2.76-.2-5.44-.5-8.16-.18-1.59-1.38-3.62-1.5-5.06-.76-8.8-.15-17.71-1-26.52-.29-2.83-1.31-5.35-1.7-8.13-2.29-16.73-1.32-33.84-3.08-49.93-.23-2.16-1.44-5-1.63-7.12-.67-7.92-.33-16-.84-23.45-1.09-15.93-4.23-30.65-4.68-46.86a9.07 9.07 0 01-1.38-3c2.18-3.83-.38-9.53 4.08-10.23zM667.33 772.11c-5.25-1.4-1-6.06-1.42-9.23-.11-.84-1.38-1.63-1.54-2.52-.42-2.58-1.3-5-1.44-7.49 0-.71 1.42-1.19 1.61-1.86.08-.28-1.62-.77-1.56-1.06s1.6-.57 1.59-1-.7-1-.75-1.69c-.54-6.78-3-13.68-.44-20.4-2.8-4.61-3.1-10.31-4.45-16.32-.66-2.9-1.73-5.68-2.22-8.89-.17-1.11-1.17-2-1.52-3.11-.84-2.61-.72-5.45-1.44-7.77-2.56-8.15 3.5-16.46-1.18-23.56 3.42-1.68.24-3.3.1-5.26-.2-2.54 1.26-4.77.13-7.88-.43-1.19-.16-2.51-.73-3.45-.67-1.11-2.93-1.86-3.11-3 .4-1 2.54-1.58 4-2.32 6.15.27 7.07 4.25 7.78 6.76 1.17 4.17-.29 9.12.56 13.38.1.53-1 1.45 1.55 1.64-2.77 2.6-.54 4.8-.92 7.07-.56 3.46-3.25 7.46-.19 10.81a11.51 11.51 0 00-1.7 7.41c.65 3.73 2.22 7.39 3 11.18.93 4.74 3 9.26 4.48 14.57.21.77-.2 1.56 0 2.33.1.45 1.51.94 1.55 1.35.26 2.5-1.31 5.16-.92 7.65.13.8 1.27 1.45 1.55 2.23 1.58 4.69-1.19 9.77-.25 14.31.12.61 1.48 1.32 1.55 1.94.2 2.25-.95 4.64-.92 6.77.06 4.56 3 8.59 2.15 13.28a3.4 3.4 0 011.56.76c-3.38 1.34-.48 2.78-6.46 3.37zM712 1243a7 7 0 01-.94-1.89 12.3 12.3 0 01-.52-2.15c-.09-.77-.16-1.6-.19-2.47s0-1.79 0-2.73c.09-3.78.52-8 0-11.57-.24-1.85-1.39-3.72-1.71-5.71-.89-5.72-2.21-11.21-3-16.62-.23-1.57.75-2.54.71-4 0-.62-1.45-1.81-1.47-2.43 0-.87 1.06-1.16.93-2.08-.16-1.25-.83-2.3-1.06-3.79-2.37-15-6.41-30.27-6.68-44.92-3.67-10.28-5.81-22.83-8.93-36.08-1.52-6.4-3.31-12.54-4.82-19.61-.53-2.43-1.62-4.43-2.28-6.87-1.58-5.78-2.51-12-3.91-17.1-.09-.32-.17-.63-.26-.94l-.06-.39c-3.15-18-.21-35.44-5-51.36 2.31-3.38-.41-7.3-.88-11.65-.61-5.64.1-10.44-1.32-17.46-.54-2.66-.58-5.57-1.18-7.72-.71-2.51-2.58-4.41-2.92-6.95.11-2.3 1.65-3.25 2.63-4.73 4.74 1.23 6.16 10.12 7.15 15.75 1.65 9.36 1.44 20.19 2.85 29.72.18 1.18-.49 3.11 1.48 3.8-1.63 5.48.46 10.59.59 15.57.19 7.61-1.13 16.21 1.81 23.94a72.51 72.51 0 00-.45 10.56q.35 2.87 1 5.63c1.86 8.2 4.37 16.29 6.28 24.64 2.39 10.46 5.57 20.47 8.48 32.22.42 1.72.38 3.44.76 5.14.23 1 1.48 2.14 1.64 3 1 5.53.7 11.28 1.82 16.8.36 1.78 1.45 3.26 1.9 5 2.72 10.42 2.17 21.46 4.22 31.56.27 1.36 1.52 3 1.75 4.38.8 5 .57 10.2 1.15 14.93 1.2 10.11 4.43 19.29 4.29 29.95a4.86 4.86 0 011.22 2c-1.18 1.25-1.34 2.94-1.7 4.29s-1.2 2.65-3.38 2.34zM734 1232.65c-4.09-2.4-1.28-9.25-1.89-14.09-.16-1.27-1.19-2.54-1.39-3.91-.55-3.92-1.43-7.7-1.75-11.43-.1-1.08 1-1.74 1-2.74 0-.43-1.29-1.26-1.26-1.68 0-.6 1.15-.79 1.11-1.42 0-.86-.62-1.6-.72-2.62-1-10.3-3.45-20.9-2.14-31-2.53-7.13-3.25-15.81-4.81-25-.75-4.43-1.81-8.7-2.46-13.6-.23-1.69-1.07-3.09-1.43-4.79-.87-4-1-8.32-1.78-11.88-2.66-12.5 1.19-24.79-3-35.8 2.44-2.38-.11-5-.39-8-.38-3.86.53-7.17-.6-12-.43-1.82-.35-3.82-.86-5.28-.6-1.71-2.38-3-2.61-4.7.2-1.58 1.77-2.27 2.81-3.32 4.68.73 5.72 6.81 6.48 10.65 1.25 6.39.59 13.83 1.61 20.34.12.8-.62 2.14 1.31 2.57-1.85 3.81 0 7.26-.06 10.68-.12 5.22-1.8 11.16.81 16.39a31.39 31.39 0 00-.63 11.16c.82 5.7 2.34 11.33 3.24 17.11 1.12 7.25 3.11 14.21 4.68 22.34.23 1.19 0 2.37.17 3.54.12.69 1.23 1.51 1.3 2.13.41 3.81-.54 7.76 0 11.57.17 1.22 1.09 2.26 1.36 3.46 1.62 7.19 0 14.75 1.09 21.7.14.93 1.23 2.08 1.34 3 .35 3.43-.3 7-.09 10.23.45 6.92 3 13.18 2.8 20.26a3.08 3.08 0 011.24 1.24c-2.38 1.96-.07 4.3-4.48 4.89zM761.24 1230.93c-4.15-3.57-1.44-13-2.14-19.79-.18-1.78-1.24-3.61-1.46-5.53-.62-5.51-1.56-10.84-1.95-16.07-.12-1.51.94-2.38 1-3.78 0-.58-1.32-1.82-1.3-2.41 0-.84 1.15-1 1.09-1.93-.06-1.2-.65-2.25-.76-3.68-1.19-14.46-3.82-29.4-2.67-43.4-2.66-10.11-3.53-22.27-5.25-35.19-.83-6.24-2-12.27-2.7-19.15-.26-2.36-1.12-4.38-1.52-6.77-.93-5.66-1.17-11.68-2-16.69-2.87-17.61.78-34.57-3.58-50.19 2.4-3.18-.2-7-.54-11.16-.44-5.42.42-10-.8-16.74-.46-2.57-.41-5.35-.94-7.42-.64-2.42-2.44-4.28-2.71-6.72.18-2.2 1.75-3.07 2.77-4.47 4.7 1.28 5.85 9.82 6.67 15.24 1.37 9 .83 19.35 2 28.5.14 1.13-.58 3 1.37 3.67-1.8 5.21.14 10.14.11 14.91 0 7.3-1.61 15.49 1.09 22.95a60.46 60.46 0 00-.45 15.56c.93 8 2.54 15.95 3.54 24.08 1.25 10.19 3.36 20 5.07 31.48.25 1.67 0 3.31.24 5 .13 1 1.26 2.16 1.33 3 .48 5.35-.41 10.8.18 16.16.19 1.71 1.13 3.22 1.43 4.91 1.73 10.14.21 20.61 1.45 30.38.16 1.31 1.27 3 1.39 4.29.42 4.82-.18 9.75.08 14.29.57 9.7 3.22 18.58 3.15 28.46a4.39 4.39 0 011.27 1.81c-2.36 2.47 0 5.83-4.46 6.4zM669.18 953.8c-4.27.07-2.38-1.56-2.65-2.46-.12-.43-1.16-1-1.29-1.55s.6-1.2-.41-1.52c.49-7.61-1.41-14.51-1.65-21-.06-1.64-.6-3-.34-4.61.21-1.38-.82-2.6-1-3.93-.09-.6.25-1.24.21-1.83s-.29-1.13-.39-1.7a8.5 8.5 0 01.17-1.47c0-.61-.63-1.17-.67-1.77s.23-1 .18-1.56c-.14-1.44 1.55-4.27.12-6 1.07-.51 2.43-1 3.4-1.49 3.38 2.07.56 5.42 2 7.77-1 1-.09 2.15-.09 3.28 0 1.55-.39 3.23 1.26 4.37-.85.77.18 1.37.34 2.06.1.42-.2.85-.15 1.28.09.82.79 1.59.9 2.4.06.49-.6 1.09-.48 1.57.18.75.86 1.38.93 2.12s-.41 1.6-.28 2.38c.06.37.63.68.75 1 .48 1.35.17 2.85.39 4.25.06.38.43.76.45 1.15.05.72-.6 1.49-.55 2.21.07 1 .82 2 .82 3a27.08 27.08 0 01-.17 4c-.1.65.41 1.71 0 2.26-1.09 1.76.27 3.99-1.8 5.79zM703.12 769.64c-4-2.11-1-8-1.46-12.21-.12-1.1-1.12-2.2-1.27-3.39-.43-3.4-1.2-6.67-1.42-9.9-.06-.93 1-1.5 1.13-2.37.06-.37-1.25-1.09-1.21-1.46s1.17-.68 1.15-1.23c0-.74-.57-1.38-.64-2.26-.71-8.93-2.84-18.11-1.24-26.82-2.32-6.19-2.8-13.7-4.1-21.66-.63-3.85-1.57-7.55-2.08-11.79-.18-1.46-1-2.68-1.3-4.15-.75-3.48-.8-7.2-1.45-10.28-2.31-10.83 1.86-21.46-2-31 2.49-2.06 0-4.33-.2-6.91-.28-3.34.7-6.2-.31-10.34-.39-1.57-.27-3.3-.75-4.55-.57-1.48-2.32-2.55-2.53-4 .23-1.35 1.8-2 2.85-2.89 4.66.5 5.63 5.82 6.29 9.14 1.12 5.53.28 12 1.13 17.62.1.69-.67 1.85 1.25 2.23-2 3.29-.17 6.28-.34 9.24-.25 4.53-2.09 9.66.38 14.2a23.79 23.79 0 00-.94 9.66c.67 4.93 2 9.81 2.76 14.82.93 6.28 2.72 12.31 4.05 19.36.2 1-.08 2 .08 3.07.09.6 1.18 1.3 1.23 1.84.3 3.31-.76 6.72-.35 10 .13 1.06 1 2 1.26 3 1.41 6.23-.46 12.78.46 18.8.11.8 1.17 1.8 1.25 2.62.25 3-.51 6-.39 8.85.24 6 2.59 11.43 2.19 17.56a2.77 2.77 0 011.2 1.09c-2.45 1.59-.21 3.64-4.68 4.11zM715.05 860.74c-4.29-.08-2.46-2.4-2.76-3.73-.14-.64-1.21-1.45-1.35-2.34s.55-1.74-.47-2.25c.19-11.18-2-21.41-2.49-30.92-.12-2.41-.72-4.39-.52-6.79.16-2-.93-3.86-1.17-5.83-.11-.88.21-1.81.14-2.68s-.33-1.67-.45-2.52a17.6 17.6 0 01.11-2.15c0-.89-.68-1.75-.75-2.64-.05-.72.2-1.49.13-2.28-.2-2.13 1.38-6.22-.12-8.83 1.06-.71 2.4-1.31 3.36-2.06 3.46 3.17.76 8 2.34 11.52-1 1.48 0 3.16 0 4.81.06 2.3-.27 4.75 1.42 6.49-.82 1.11.24 2 .43 3.05.12.61-.16 1.25-.1 1.88.12 1.2.85 2.36 1 3.56.09.73-.55 1.59-.41 2.3.21 1.1.91 2.06 1 3.15s-.34 2.34-.18 3.5c.07.54.66 1 .79 1.56.53 2 .28 4.19.56 6.26.08.57.46 1.14.5 1.71.08 1.07-.55 2.18-.47 3.24.11 1.52.9 3 .94 4.5a55.12 55.12 0 010 5.89c-.07 1 .49 2.54.12 3.34-1.06 2.35.4 5.66-1.6 8.26zM718.23 917c-4.28.14-2.35-1.11-2.6-1.77-.11-.31-1.14-.68-1.25-1.12s.62-.89-.38-1.11c.66-5.64-1.1-10.7-1.2-15.46 0-1.21-.53-2.18-.23-3.4.24-1-.77-1.91-.93-2.89-.07-.43.29-.92.25-1.35a9.3 9.3 0 00-.35-1.25c-.07-.36.18-.71.21-1.09s-.61-.85-.64-1.3.26-.75.22-1.15c-.11-1.07 1.64-3.19.24-4.44 1.09-.4 2.46-.76 3.44-1.18 3.32 1.46.43 4 1.85 5.71-1.07.78-.13 1.59-.16 2.42 0 1.15-.46 2.4 1.16 3.2-.86.6.15 1 .3 1.52.09.31-.22.64-.18 1 .07.6.75 1.16.84 1.75.06.37-.61.83-.51 1.18.16.55.83 1 .88 1.55s-.44 1.19-.33 1.76c0 .27.62.49.74.75.44 1 .09 2.1.29 3.13.05.29.41.56.42.85 0 .53-.63 1.11-.59 1.65 0 .76.77 1.44.75 2.22a15.83 15.83 0 01-.26 3c-.12.49.37 1.25 0 1.67-1.21 1.15.12 2.73-1.98 4.15zM241.44 1042.66c-3-.68-4.48-4.39-5.21-8.89s-.75-9.77-1.23-13.77c-.45-3.85-2.11-9.15-2.09-14.67a34.55 34.55 0 01.26-4c.12-1.31.3-2.41.42-3.56a15.14 15.14 0 00-.25-6.07c.64-8.12 1-16.2 1.17-24.23q.12-6 .1-12v-6.11c0-2.11.11-4 .16-6 .41-15.86.65-31.44.85-46.72.38-30.56.53-59.93 1.19-88 .32-14.27 0-26.24.69-40.27.62-11.82-.46-23.18-.39-34.89 0-5.23.64-10.53.72-15.73.08-5-.11-10-.11-15.05 0-4.22.44-8.19.58-12.59.17-5.25-.56-10.65-.47-15.89.07-4.27.55-8.67.6-13.38.17-12.66 3.05-35.9 1.63-52 1.56-3.63 3.46-6.48 4.93-10.36 3.76 20.39-.66 47.43.7 68.94-1.64 8.18-.63 18.58-.89 28.37-.37 13.53-1.29 27.8.61 38.87-1.31 6.12-.1 12.07 0 18.21 0 3.66-.46 7.25-.51 11-.08 7.15.66 14.34.6 21.45 0 4.32-1.05 9.06-1 13.33.05 6.59.79 12.62.69 19.09-.11 6.67-.94 13.59-1 20.45 0 3.24.66 6.41.73 9.61.26 12.06-.54 24.82-.63 37.13 0 3.42.35 7 .28 10.34-.13 6.34-1.21 12.52-1.35 18.83-.2 9 .5 17.83.18 27-.11 3-.21 5.86-.31 8.74V958.28c-.06 5.74-.22 11.5-.57 17.48-.31 5.67-.16 15.3-1.06 19.86-.32 1.66-.62 3.43-.87 5.28s-.44 3.6-.51 5.54a118.92 118.92 0 00.18 12.17c.4 8.29 1.31 16.8 1.18 24.05zM211.59 1252.85c-2.11-.9-2.6-3.57-2.56-6.68s.64-6.66.64-9.42-.86-6.31-.8-10 .94-6.83.06-9.27c2.81-45.18 3.13-87.35 4.94-126 .46-9.81.36-18 1.14-27.68.65-8.11 0-15.95.27-24 .1-3.6.64-7.23.79-10.81.14-3.43.08-6.86.17-10.35.07-2.9.46-5.62.64-8.64.21-3.61-.24-7.34-.09-10.94.13-2.93.56-6 .68-9.19.33-8.7 2.89-24.63 2.08-35.75 1.22-2.47 2.7-4.37 3.82-7.05 2.58 14.13-1.25 32.62-.57 47.45-1.37 5.59-.78 12.76-1.14 19.48-.5 9.3-1.43 19.1-.18 26.75-1.08 4.17-.27 8.29-.33 12.51 0 2.52-.47 5-.56 7.56-.17 4.92.27 9.88.12 14.77-.1 3-.93 6.2-1 9.14-.06 4.53.4 8.7.23 13.14s-.9 9.33-1 14c-.06 2.22.4 4.41.41 6.62 0 8.29-.74 17.06-1 25.52-.06 2.35.18 4.81.08 7.11-.18 4.36-1.05 8.59-1.23 12.93-.25 6.18.18 12.26-.15 18.54-.42 8.14-.79 15.67-1.41 23.82-.3 3.87-.12 10.43-.66 13.55-1.56 9.2-.92 23.14-3.39 32.89zM259 797.45c3.7 6.51-.09 21.52-.2 32.76 0 2.95.81 6.11.8 9.29 0 9.13.28 18 .05 26.63-.06 2.5-1.21 3.75-1.44 6-.1 1 1.09 3.19 1 4.16-.11 1.36-1.26 1.52-1.31 3-.07 2 .38 3.8.33 6.16-.52 23.87.34 48.77-2.45 71.51 0 .22 0 .44.06.69 2.63 16.67 3.56 36.47 5.32 57.57.16 1.75.31 3.49.47 5.38a1.22 1.22 0 010 .27v.16c-.93 8.36-1.76 16.85-3 26.22-.52 3.88-.35 7.36-.75 11.32-.48 4.68-1.15 9.46-1.82 14.11-.32 2.32-.64 4.61-.95 6.84s-.52 4.37-.7 6.43c-2.53 29.11-10.74 55.65-10.31 82-3.09 4.61-1.51 11.39-2.09 18.23-.77 8.89-2.6 16.15-2.62 27.37 0 4.25-.55 8.78-.29 12.23.29 4.06 1.75 7.37 1.81 11.34-.4 3.51-2.05 4.71-3.2 6.86-2.28-1.35-3.49-5.59-4.16-10.65-.28-2.52-.4-5.24-.46-7.89s-.07-5.25 0-7.5c.16-15 3-31.83 4.08-47 .12-1.87 1.27-4.68-.44-6.29 3-8 2.43-16.52 3.71-24.26 2-11.83 5.81-24.69 5.35-37.46a177.3 177.3 0 005.11-25c1.74-13.14 2.78-26.39 4.49-39.76.73-5.74 1.34-11.43 2-17.81v.45c-1.12-10.48-2.45-21.81-3.62-34.28-.25-2.76 0-5.43-.26-8.16-.13-1.6-1.27-3.67-1.35-5.11-.3-5.13-.13-10.28 0-15.42v-.31c.33-3.7.61-7.4.63-11.11 0-2.85-.75-5.47-.84-8.27-.54-16.89 2.21-33.81 2.13-50 0-2.18-.92-5.08-.89-7.25.16-8 1.33-15.94 1.6-23.43.57-16-1-30.94.21-47.12a9.3 9.3 0 01-1-3.16c2.46-3.57.51-9.51 5-9.74zM261.43 785.91c-5.08-1.94-.35-6.13-.46-9.33 0-.84-1.2-1.76-1.26-2.67-.16-2.6-.78-5.14-.66-7.59 0-.71 1.53-1 1.79-1.69.11-.27-1.53-.93-1.43-1.21s1.64-.4 1.68-.82-.59-1.09-.57-1.76c.16-6.8-1.53-13.91 1.68-20.34-2.31-4.87-2-10.58-2.74-16.69-.35-3-1.12-5.83-1.28-9.08-.05-1.11-1-2.1-1.19-3.24-.56-2.69-.15-5.5-.62-7.89-1.7-8.37 5.19-16 1.27-23.54 3.57-1.32.58-3.27.64-5.23.07-2.54 1.75-4.61 1-7.82-.3-1.23.1-2.52-.36-3.51-.55-1.17-2.72-2.15-2.78-3.3.5-1 2.68-1.31 4.21-1.9 6.09.91 6.59 5 7 7.53.73 4.27-1.23 9-.83 13.37 0 .53-1.14 1.33 1.36 1.79-3 2.3-1 4.72-1.64 6.94-.91 3.38-4 7.08-1.31 10.73a11.55 11.55 0 00-2.47 7.19c.27 3.78 1.45 7.58 1.8 11.42.43 4.82 2.05 9.53 2.94 15 .13.8-.36 1.54-.28 2.32.05.46 1.41 1.09 1.41 1.5 0 2.52-1.85 5-1.72 7.52.05.81 1.12 1.57 1.31 2.38 1.08 4.82-2.2 9.58-1.73 14.2.05.62 1.33 1.47 1.33 2.09 0 2.26-1.42 4.52-1.61 6.64-.41 4.54 2 8.85.76 13.43a3.54 3.54 0 011.47.92c-3.44.94-.71 2.67-6.71 2.64zM204.35 705.07c-3.63-2.22.28-6.13.48-9.32.06-.84-.75-1.83-.72-2.73.11-2.6-.12-5.17.18-7.6.08-.71 1.23-.95 1.49-1.58.11-.26-1.07-1-1-1.29s1.27-.31 1.33-.72c.09-.56-.35-1.12-.27-1.79.72-6.76.08-13.94 3-20.15-1.3-5-.57-10.66-.58-16.79 0-3-.33-5.87-.16-9.11.06-1.11-.53-2.16-.61-3.3-.18-2.71.37-5.49.23-7.89-.54-8.43 5.29-15.64 3-23.38 2.79-1.11.72-3.22.94-5.17.27-2.53 1.71-4.49 1.4-7.74-.12-1.23.29-2.5 0-3.52-.31-1.19-1.85-2.29-1.79-3.44.47-1 2.13-1.15 3.32-1.65 4.47 1.25 4.49 5.31 4.59 7.89.18 4.3-1.71 8.94-1.79 13.27 0 .54-1 1.27.86 1.87-2.45 2.12-1.18 4.64-1.83 6.81-1 3.32-3.62 6.83-1.93 10.62a14.24 14.24 0 00-2.47 7c-.14 3.77.41 7.63.33 11.47-.09 4.83.71 9.61.89 15.07 0 .8-.4 1.51-.41 2.29 0 .46 1 1.17.92 1.58-.23 2.5-1.82 4.86-1.94 7.39 0 .81.69 1.63.77 2.44.38 4.87-2.49 9.42-2.55 14 0 .62.87 1.54.82 2.16-.22 2.25-1.46 4.41-1.79 6.52-.71 4.5.75 8.93-.61 13.42a2.65 2.65 0 011 1c-2.51.86-.62 2.74-5.1 2.37zM248.68 1258.47c-3.88-4-.53-13.74-.71-20.89 0-1.87-.85-3.89-.86-5.93 0-2.91-.12-5.8-.19-8.64 0-1.42-.06-2.83-.08-4.23s.08-2.79.16-4.16c.1-1.6 1.26-2.36 1.53-3.81.11-.6-1.05-2.08-.95-2.7.13-.87 1.28-.91 1.35-1.84.11-1.26-.32-2.45-.24-4 .09-1.9.23-3.81.37-5.73s.25-3.84.38-5.77l.36-5.79.2-2.89.29-2.88c.42-3.83.9-7.63 1.52-11.36.16-.93.32-1.86.51-2.78s.41-1.83.63-2.74q.66-2.71 1.47-5.36c0-2.74 0-5.59.2-8.53s.58-6 1-9.09c.21-1.56.41-3.14.62-4.74s.5-3.2.76-4.83c.5-3.27 1-6.61 1.54-10 1.07-6.53 1.75-13 3.26-20.11.5-2.45.31-4.75.73-7.27 1-6 2.73-12.06 3.64-17.32a125.28 125.28 0 013.15-13.33c1.24-4.29 2.49-8.45 3.33-12.43 1.44-8.46 2.08-17 .65-25.36 2.69-3.09.43-7.31.43-11.69 0-5.69 1.16-10.41.38-17.55-.29-2.71-.07-5.63-.49-7.82-.49-2.58-2.19-4.62-2.32-7.19.3-2.28 1.9-3.11 3-4.51 4.64 1.58 5.34 10.64 5.81 16.38.82 9.55-.46 20.38-.15 30.09 0 1.2-.86 3 1 4-2.28 5.28-.88 10.66-1.54 15.68q-.37 2.88-1 5.87c-.23 1-.37 2-.66 3s-.53 2-.77 3a45 45 0 00-1.91 12.18 69.44 69.44 0 00-5.56 15.38c-1.8 8.27-2.85 16.72-4.42 25.16-1 5.29-1.64 10.57-2.31 16s-1.17 11-1.8 17.07c-.19 1.76-.82 3.36-1 5.08-.13 1 .66 2.51.51 3.41-.47 2.76-1.15 5.48-1.87 8.21a61.68 61.68 0 00-1.72 8.25c-.23 1.79.41 3.54.36 5.32a70.89 70.89 0 01-.77 8c-.39 2.64-.94 5.26-1.35 7.89a122.93 122.93 0 00-2 15.58c0 1.38.85 3.27.78 4.64-.24 5-1.6 10-1.87 14.79-.23 5.06.08 10 .3 14.89.08 2.46.27 4.92.35 7.41a71 71 0 01-.13 7.56 4.68 4.68 0 011.14 2c-2.66 2.41-.55 6.1-5.04 6.43zM221.61 1249.72c-3.58-3.15.44-9.48.73-14.42.08-1.3-.7-2.76-.64-4.16.18-4 0-8 .37-11.74.11-1.09 1.27-1.56 1.54-2.55.12-.41-1-1.49-.93-1.91.13-.59 1.28-.57 1.35-1.21.11-.87-.32-1.71-.22-2.74.9-10.48.45-21.52 3.59-31.33-1.18-7.6-.3-16.4-.14-25.86.08-4.57-.17-9 .08-14 .09-1.73-.48-3.29-.52-5-.11-4.17.52-8.5.44-12.19-.32-13 5.73-24.54 3.66-36.31 2.83-1.92.8-5 1.08-8 .34-3.93 1.84-7.07 1.61-12.05-.09-1.9.36-3.88.13-5.43-.28-1.82-1.8-3.4-1.71-5.18.49-1.54 2.16-1.94 3.37-2.79 4.46 1.59 4.38 7.85 4.41 11.83.06 6.61-2 13.92-2.16 20.61 0 .82-1 2 .82 2.81-2.52 3.46-1.31 7.26-2 10.65-1.08 5.2-3.82 10.82-2.22 16.53a32.48 32.48 0 00-2.67 11c-.24 5.84.21 11.74 0 17.68-.23 7.45.45 14.77.49 23.18 0 1.23-.44 2.36-.47 3.57 0 .71.93 1.73.88 2.36-.3 3.89-2 7.65-2.15 11.55-.06 1.25.66 2.47.71 3.71.26 7.48-2.75 14.73-2.93 21.88 0 1 .83 2.31.76 3.26-.28 3.49-1.58 6.92-2 10.2-.83 7 .52 13.72-1 20.75a3.28 3.28 0 011 1.47c-2.61 1.3-.76 4.11-5.26 3.83zM198.78 1249.66c-3.76-4-.09-13.08-.07-19.91 0-1.79-.86-3.72-.88-5.65 0-5.55-.43-10.95-.27-16.18 0-1.52 1.18-2.27 1.39-3.66.1-.58-1.12-2-1-2.54.1-.82 1.25-.91 1.29-1.79.06-1.21-.41-2.32-.38-3.75.32-14.5-.74-29.64 1.86-43.44-1.6-10.33-1.2-22.52-1.57-35.55-.18-6.29-.68-12.4-.7-19.32 0-2.38-.66-4.47-.8-6.89-.34-5.73 0-11.74-.24-16.81-1-17.81 4.37-34.3 1.65-50.29 2.72-2.92.53-7 .63-11.16.13-5.43 1.45-9.89.94-16.73-.19-2.6.15-5.37-.17-7.48-.38-2.47-2-4.5-2-7 .41-2.17 2-2.87 3.21-4.16 4.55 1.76 4.81 10.38 5.06 15.85.43 9.09-1.19 19.33-1 28.55 0 1.14-.89 2.89 1 3.8-2.33 5-.91 10.1-1.43 14.84-.79 7.25-3.22 15.24-1.3 22.94a60.18 60.18 0 00-2.06 15.42c.09 8.06.87 16.13 1 24.32.19 10.27 1.27 20.27 1.78 31.83.07 1.69-.32 3.3-.28 5 0 1 1 2.29 1 3.17-.08 5.37-1.53 10.7-1.5 16.08 0 1.73.79 3.33.91 5 .67 10.26-1.93 20.52-1.72 30.37 0 1.32 1 3.09.94 4.41-.08 4.83-1.19 9.68-1.4 14.22-.44 9.7 1.27 18.81.18 28.63a4.56 4.56 0 011.08 1.93c-2.65 2.22-.65 5.84-5.15 5.95zM273.88 967.37c-4.26-.38-2.21-1.8-2.38-2.73-.08-.44-1.06-1.07-1.12-1.67s.72-1.13-.25-1.56c1.28-7.52.1-14.58.53-21 .11-1.63-.29-3 .14-4.62.35-1.35-.55-2.67-.6-4 0-.6.39-1.2.4-1.8a17.36 17.36 0 00-.21-1.73 8.52 8.52 0 01.33-1.44c.08-.6-.51-1.23-.49-1.83s.34-1 .34-1.53c0-1.46 2-4.09.74-6 1.13-.4 2.52-.7 3.55-1.13 3.14 2.41 0 5.45 1.21 7.94-1.16.92-.32 2.13-.43 3.25-.16 1.55-.73 3.18.79 4.47-.92.69 0 1.39.13 2.1.05.42-.29.82-.29 1.25 0 .83.63 1.66.65 2.48 0 .49-.71 1-.64 1.52.1.75.71 1.46.7 2.2s-.57 1.55-.52 2.34c0 .37.56.74.64 1.11.33 1.39-.13 2.85-.06 4.26 0 .39.35.81.34 1.19 0 .73-.76 1.43-.78 2.15 0 1 .61 2.06.5 3.11a28.47 28.47 0 01-.59 4c-.17.65.23 1.75-.21 2.26-1.3 1.47-.17 3.81-2.42 5.41zM219.22 785.65c-1.86-1.28-1.91-3.43-1.42-5.74s1.45-4.84 1.51-7c0-1.14-.8-2.42-.79-3.66 0-3.56-.26-7.05 0-10.4.07-1 1.22-1.4 1.46-2.28.1-.37-1.09-1.3-1-1.68s1.26-.52 1.32-1.09c.08-.77-.37-1.51-.31-2.42.58-9.29-.19-19.06 2.67-27.78-1.39-6.71-.75-14.51-.85-22.89 0-4-.43-8-.3-12.43 0-1.53-.57-2.9-.66-4.46-.23-3.69.29-7.53.11-10.8-.67-11.48 5.06-21.78 2.67-32.17 2.77-1.73.67-4.45.86-7.13.23-3.48 1.63-6.27 1.27-10.68-.15-1.67.24-3.43 0-4.8-.33-1.6-1.9-3-1.88-4.53.44-1.35 2.1-1.74 3.28-2.52 4.52 1.28 4.64 6.87 4.79 10.38.25 5.86-1.56 12.35-1.58 18.28 0 .73-.94 1.8.9 2.48-2.43 3.09-1.12 6.43-1.74 9.45-.93 4.61-3.52 9.61-1.76 14.65a25.69 25.69 0 00-2.38 9.79c-.08 5.17.53 10.39.51 15.65 0 6.6.86 13.07 1.13 20.51 0 1.09-.38 2.1-.38 3.17 0 .62 1 1.51.95 2.08-.19 3.44-1.74 6.79-1.82 10.24 0 1.11.73 2.17.81 3.27.48 6.62-2.31 13.07-2.28 19.4 0 .85.91 2 .86 2.87-.17 3.09-1.35 6.15-1.64 9-.6 6.2 1 12.11-.21 18.33a3 3 0 011.07 1.24c-2.66 1.32-.66 3.61-5.17 3.67zM223.18 877.05c-4.27-.41-2.26-2.58-2.46-3.93-.09-.65-1.09-1.54-1.17-2.43s.69-1.69-.29-2.28c1.06-11.14-.33-21.5-.09-31 .07-2.42-.37-4.44 0-6.82.32-2-.62-3.92-.72-5.9 0-.88.36-1.78.36-2.66s-.21-1.69-.27-2.55a16.22 16.22 0 01.29-2.13c.06-.89-.55-1.8-.54-2.69 0-.72.3-1.46.29-2.26 0-2.14 1.87-6.1.57-8.81 1.11-.63 2.5-1.12 3.51-1.79 3.21 3.43.14 8 1.44 11.66-1.13 1.39-.25 3.14-.33 4.8-.12 2.29-.64 4.71.92 6.57-.91 1 .07 2 .19 3.08.07.62-.27 1.23-.25 1.87 0 1.21.67 2.42.71 3.62 0 .73-.67 1.54-.59 2.26.12 1.11.76 2.13.77 3.22s-.53 2.31-.46 3.47c0 .55.58 1.08.68 1.62.37 2-.05 4.2.07 6.28 0 .58.37 1.18.36 1.75 0 1.07-.71 2.12-.71 3.19 0 1.52.67 3 .58 4.56a55.47 55.47 0 01-.47 5.87c-.15.95.29 2.56-.14 3.34-1.25 2.24-.05 5.65-2.25 8.09zM223.65 933.64c-4.26-.3-2.22-1.34-2.4-2-.08-.33-1.06-.8-1.12-1.25s.71-.82-.26-1.14c1.23-5.54 0-10.76.41-15.51.1-1.2-.3-2.22.12-3.4.34-1-.56-2-.62-3 0-.44.38-.88.39-1.32a11.42 11.42 0 00-.22-1.28c0-.36.25-.69.32-1.06s-.52-.91-.5-1.36.33-.72.33-1.12c0-1.07 2-3 .71-4.39 1.12-.29 2.52-.5 3.53-.81 3.16 1.79 0 4 1.26 5.86-1.15.67-.3 1.57-.41 2.39-.15 1.15-.71 2.34.82 3.31-.92.5 0 1 .14 1.54 0 .31-.29.61-.28.93 0 .61.63 1.23.65 1.83 0 .36-.69.75-.63 1.11.11.56.73 1.09.72 1.63s-.56 1.14-.51 1.72c0 .28.56.56.65.83.34 1-.12 2.1 0 3.14 0 .29.35.6.33.88 0 .54-.74 1.05-.76 1.58 0 .76.62 1.52.51 2.3a15.21 15.21 0 01-.57 2.92c-.16.47.25 1.29-.19 1.66-1.32 1.11-.18 2.85-2.42 4.01zM273.41 900.66c-4.27-.45-2.28-3-2.49-4.55-.1-.76-1.11-1.78-1.19-2.82s.67-2-.32-2.65c1-12.95-.52-25-.37-36 0-2.81-.41-5.15-.05-7.92.3-2.33-.66-4.55-.77-6.85-.05-1 .33-2.08.33-3.1s-.23-2-.29-3a24.3 24.3 0 01.26-2.48c.06-1-.56-2.08-.56-3.11 0-.84.29-1.71.27-2.64-.05-2.49 1.81-7.09.49-10.24 1.11-.74 2.49-1.31 3.49-2.11 3.25 4 .22 9.33 1.55 13.55-1.11 1.62-.22 3.65-.29 5.58-.09 2.66-.59 5.48 1 7.63-.89 1.22.1 2.37.22 3.58.08.72-.25 1.43-.23 2.17 0 1.4.69 2.81.75 4.21 0 .84-.66 1.79-.58 2.63.14 1.29.78 2.47.8 3.74s-.5 2.68-.42 4c0 .63.59 1.25.69 1.88.39 2.36 0 4.88.12 7.3 0 .67.38 1.36.39 2 0 1.25-.7 2.48-.69 3.72 0 1.77.7 3.49.63 5.29-.09 2.33-.13 4.49-.42 6.83-.14 1.11.31 3-.11 3.88-1.26 2.68-.03 6.64-2.21 9.48zM207.3 951.88c-4.33-1.14-2.65-8-3-12.3-.19-2.05-1.31-4.82-1.5-7.63s.46-5.35-.6-7.17c-.36-35.12-2.7-67.76-2.85-97.79 0-7.62-.53-14-.17-21.51.29-6.31-.64-12.37-.68-18.64 0-2.8.39-5.63.45-8.41s-.13-5.34-.12-8.06c0-2.26.34-4.38.45-6.73.13-2.81-.35-5.72-.25-8.52.07-2.29.52-4.64.62-7.16.07-1.7.3-3.75.61-6s.64-4.7 1-7.21c.19-1.26.36-2.53.52-3.8s.35-2.53.48-3.78a70 70 0 00.47-7.12c1.4-1.81 3.11-3.08 4.47-4.92.43 5.57-.24 11.7-1 18l-.57 4.75c-.18 1.58-.32 3.16-.46 4.71a61.06 61.06 0 00-.16 9c-1.33 4.31-.66 9.87-.86 15.08-.31 7.19-.92 14.8.59 20.69-.94 3.26.05 6.43.15 9.69.06 2-.27 3.87-.25 5.87 0 3.81.69 7.63.77 11.42 0 2.3-.64 4.83-.53 7.11.17 3.51.83 6.7.9 10.15s-.41 7.25-.27 10.9c.07 1.73.65 3.4.78 5.1.5 6.41.24 13.22.54 19.77.08 1.82.46 3.71.51 5.49.1 3.38-.52 6.7-.42 10.07.14 4.79 1 9.45 1.06 14.33.11 6.31.26 12.15.2 18.49 0 3 .61 8.06.28 10.5-1 7.19.66 17.9-1.16 25.63z"/></g><path d="M711 1220.48s30.63-3.83 52.36 0M200.27 1238s30.63-3.83 52.37 0M285.89 1236.91s167.71 34.19 382.11-9.33M353 546.43s21.5 56.9 100.8 56.9 94.27-62 94.27-62" fill="none" stroke="#636363" stroke-linecap="round" stroke-linejoin="round"/></svg>