<svg xmlns="http://www.w3.org/2000/svg" xmlns:xlink="http://www.w3.org/1999/xlink" width="1250" height="1550" viewBox="0 0 1250 1550"><defs><clipPath id="a"><path d="M799.15,1203.54c-21,7.91-109,43.46-201,46.14C458.94,1250.81,401,1222.09,401,1222.09c-9.66-28.15,9.61-149.43,9.61-149.43-24.9,50.82-25.95,166-25.95,166s-27.64-4.81-65.33,0c1.16-42.87-14.89-241-2.12-293.59-13.72-204.3,5.38-306.88,22.83-321.14,13-10.61,135.78-84.26,135.78-84.26s19.77,63.69,102.89,63.69,95.94-66.88,95.94-66.88,111,41,126.77,50,43.1,100.89,52.89,331.94c24,73.82,40.1,303.09,40.1,303.09s-26.72-6.42-65.38.23c2-25.82-34.52-140.47-34.52-140.47S810.87,1183.12,799.15,1203.54Z" fill="none"/></clipPath></defs><title>s03e12-02</title><polygon points="786.84 1280.17 794.13 1234.28 404.44 1257.22 410.65 1276.35 612.76 1334.2 786.84 1280.17" fill="#262521" stroke="#262521" stroke-linecap="round" stroke-linejoin="round" stroke-width="3"/><path d="M421.22,1019s-11.62,57.38-21.45,88.33-13.09,105-15.36,135.22c-1,12.66,4.65,27,4.65,27l-61,1.5c-16.33-18.74-8.92-129.52-14.45-197.94A619.79,619.79,0,0,1,317.25,945S299.2,647.71,343.93,620.76s145.46-89.52,145.46-89.52-.24-.24.73,2.61c4.11,12.15,21.13,51.38,86.21,51.38,80.35,0,82.84-55,82.84-55s131.41,49.11,142.29,56.21c38.3,25,52.89,331.94,52.89,331.94s19,68.76,22.88,124.63c5.58,81.26,18.66,177.57,17.85,189.79s-5.3,18.89-5.3,18.89h-58.1s-1.25-8-2.89-34.36c-2.47-39.8-31-134-48.07-177.22" fill="#f4f4ed" stroke="#262521" stroke-linecap="round" stroke-linejoin="round" stroke-width="3"/><path d="M836,1220.48s30.63-3.83,52.36,0" fill="none" stroke="#636363" stroke-linecap="round" stroke-linejoin="round"/><path d="M325.27,1238s30.63-3.83,52.37,0" fill="none" stroke="#636363" stroke-linecap="round" stroke-linejoin="round"/><path d="M478,546.43s21.5,56.9,100.8,56.9,94.27-62,94.27-62" fill="none" stroke="#636363" stroke-linecap="round" stroke-linejoin="round"/><path d="M410.65,807.61s5.34,199.1,3.83,238.13c-.83,21.49-25.74,146.36-13.43,173.54.05,13-1.31,43-1.31,43s125.58,15,202.58,14c137.52-1.66,203.71-31.15,203.71-31.15s-5.72-26.57-6.5-40.16c14.5-25-15.26-160.16-17.06-230.11-1.22-47.59-16.09-167.28-16.09-167.28" fill="#f4f4ed" stroke="#262521" stroke-linecap="round" stroke-linejoin="round" stroke-width="3"/><path d="M412,1224.34s164.11,22.31,371.78-13" fill="none" stroke="#636363" stroke-linecap="round" stroke-linejoin="round"/><g clip-path="url(#a)"><path d="M766.87,824.15c.26-.17,1.42-4.47,2.4-6.14a51.85,51.85,0,0,0,3.79-8.55c2.19-12.81,3.23-25.66-1.76-33.35-5.14-6.75.27-19.14-9.66-21.19l-.12.08c4.15-14.43-8.22-45.18-24.18-45.17-1.56-.68-4.87-7-7.64-8.28-1.18,7.05-5.86,5.81-11.59,4.09,17.56,20.35,34,38.17,38.24,65.78C759.51,787.88,766.87,804.9,766.87,824.15ZM755.93,752c0-3.66-5-7.12.29-11.43,1.79,4.93,3.51,9.68,5.24,14.43C758,757.5,755.88,757.08,755.93,752Z" fill="#262521"/><path d="M800.1,1131.47l-3.14-19.7c-4.47-.76-17.4-11.67-19.7-3.61,0,.65-1.92,1.88-2.37,1.64-8.26-5.92-20-.57-27.8-7.36-24.67-14.65-48.59-32-76.05-40-10.14,5.2-23.34-8.79-31.19,1,22.47,19.41,44.08,9.85,64.7,23.55,6.28,2.92,12.32,6.84,18.27,10.38,1.31,8.74,9.56,6.39,14.13,9.92,2.91,2,6.88,6.51,10.3,6.22,7.46-4.08,13.61,2.15,20.19,3.29,6.82,2.59,12.45,14.5,18,20.59l2.06-1.56c-2.57-4.7-6.41-8.81-7-14.4C787,1121.84,797.51,1126.76,800.1,1131.47Z" fill="#262521"/><path d="M413.42,960.22c-8.22-1.17-16.61-2.57-24-5.06l-.36.22V955a10.5,10.5,0,0,1-2.33-1.55c-11,0-19.51-3.82-26.14-7.58-6.42-3.64-17.1-3.33-20.81-8.62-2.76-2.37-.67-10.15-8.33-6.13-7.37,3.76-9.05-5.46-14.12-7.21-22.24,1.2-45,39-35.24,48.57,2.13-6.12,20.65-20.24,33.44-18.26,4.13,2.73,6.81,7,15.86,3.77,8.61,1.28,1.24,8,16,4.51,9.66-2.14,7.87,5.66,25,5.11,3.22.34,7.6-.57,6.49,3-.16.51,1.22,1.63,1.51,1.57,9.23-1.15,12.51,3.45,19.05,6.9,4.62.08,9.28.54,13.95.62Z" fill="#262521"/><path d="M413.78,996.53c-6-.23-13.65,1.75-17.71.15-4.75-1.91-10-2.56-14.67-4-11.53-2.75-25.72-1.24-35-6.77-.06-8.67-21.85.06-21.46-9.15-.18-1.22-6.52-1.87-7.75-2.49-2-5.86-5.28-2.08-8.65,0-13.8-.28-21.42,21.06-16.83,31.55,5-2.45,10.62-4.53,14.51-7.71,3.76,2.86.53,9.06,9.91,6.65,3.69-.82,5.15.14,7.36,1.94,9.18,8.16,31.53,5.6,47.2,4.81,2-.26,6.06.61,6.05,1.14-.05,4,6.36,4.48,8.89,6.83,5.85,6,20,5.63,27.74,8.2a3.69,3.69,0,0,0,.42-.17Z" fill="#262521"/><path d="M295.43,1042.52c6.25,3.51,2.62-.46,7.3-2.4,5.73,2.57,3.59,7.67,9.66,10.16,10.59-7.34,16.56,1.73,27.8,2,17.79,1.15,35.5-1.45,53.68-1,2.52,3.25,11,4.89,16.82,7.11-1.08-8.77-15.24-11.73-9.58-21.17-8.82,1.07-18.64.1-20.83-5.11-7.48,2-12.89-3.58-20.59-.69-5.74,3-3.36-2.08-8.18-1.65-13.6,1.33-37.14,5.35-42.19-12.6C304.49,995.4,279.45,1034.65,295.43,1042.52Z" fill="#262521"/><path d="M400.42,1104.1c-3.12-1.12-6.33-2.63-8.52-3.1-7-1.63-14.42,3.58-20.81-.21-2.94-.65-7.44-.24-10.21-1.65,2.16-2.09,5.46-4.43,9.36-3,5.65,4.14,21.93,1.9,31.93,2.27.73-2.44,1.44-4.9,2.07-7.37a.84.84,0,0,1-.32-.48c-22.9-2.56-54.95.06-67.53-10.74,6.9-1.7,16.91-1.29,23.23-.52,2.38,4.26,8.43,2,13.13,2.35,12.06.72,20.48,4.88,31.86,6.45,1-3.18,1.82-6.44,2.79-9.64s2.31-6.59,2.54-10.06c-4.07.46-7.67-3.5-12.46-2.07-10,3.7-17.56.2-26.73-.65-5.36-.25-2.69-5.92-8.16-2.13-6.48,3.71-30.78-7.59-45.22-6.45-5.93-1.16-15.59-7.45-19.74-.89-4.36,8.36-11,16.71-6.73,25.63,4.07-1.61,3.89-5.4,11.4-5.89,5.65-.36,5,1.33,4,2.17-9.68,13.49-21.87,11.34-13.38,26,4.58-4,3.77-10.13,13.18-10.72l-.06.1c8.37-3.47,12,3.31,11-5.21,22.51,12,42.9,5,41.82,10.48-.21,1.86-.37,3-4.64,2.28-3.14-.15-9.65.1-10.58,2.82,1,.21,2.52.79,3,.56,8.72-3.69,11.81,3.54,19.11,4.12,15.41,3.79,25.31,4.23,32,4.86C398.54,1110.29,399.47,1107.19,400.42,1104.1Z" fill="#262521"/><path d="M391,948c7.8,1.08,16,1.62,23.71,3.09-.11-3.08-1.13-6.4-.52-9.4-2.92-.49-9.54-.81-9.13-1.37-2-5.8-10.72-3.06-16.13-4.18-12.71-.93-21.76-6.39-37.17-4.6,15.87,12.11,24.81,7.19,30.41,12.95C385.15,945.62,388,946.87,391,948Z" fill="#262521"/><path d="M412.52,918.46c-21.19-3.68-43.17-6.8-62.17-17.13-8.36,3.08-7.62-1.84-10.36-3.74-9.73-5.72-17.44-13.22-20.9-21.28,16.27-.61,28.31,7.77,41.34,11.82,11.41,2.57,28-4.23,36.12,3.23,5.17,1.54,10.31,3.15,15.15,5V874.6a17.73,17.73,0,0,1-5.83.26c-3.68-4.39-13.37-6-14-11.78.22-6.23-3.76-3.77-11-1.51-10.45-1.23-22.19-1.24-26.84-7.52-6.22-4.44-20-4.81-24.34-10.27C321.55,841.4,322.29,834,326,830c2.06-.22,6,.24,6.08.83.91,5.19,9.56,5.63,13.3,9.19,17.86-13.32,24.31,5.18,44.36-.27,6.08-.68,12.1-1.87,18.18-2.48,1.5.41,3,.77,4.47,1-.53-4.41-1.24-8.8-1.92-13.19-9.8-7.57-22.74-15.51-26.81-4.1,4.88,2.62,5.22,7.77,13.06,8.74,1.05,2.68-7.66,3-9.91,2.63-24.2-3.65-5.55-19.86-26-17.77-15.68-8.28-27.08-3.79-35.53-16.45-3.52-2.61-2.59-7.36-10.83-7.83-1.92-1.25-2.87-7.36-7.94-7.73-17,5.4-7.62,23.88-11.69,34.08,7-6.71,15.83-12.17,13.17-20l3.39.29c.16,11-9.25,23.44.37,33.12,4.92,4.55.75,11-6.92,15.11-5.28,2.84-11.23,5.72-11.21,11.19,1.37,24.73-13.61,51.22-8.29,75.4,6.74-3.25,24.74-25.77,32.52-17.33.54.45,5.23-1,8.07-1.6,2.57,1.94,4.71,5.12,8.7,6.25,7.93.95,11.41,13.47,17.7,11,6.08-3.81,12.52-2.24,18.9-1.67,6.55,1.9,16.9-1.56,19.93,3.21,6,2.55,17.22,1.25,21.29,5.87ZM296.1,892.73c4.65-4.14,3.76-9.7,11.12-12.8l2.79,2C305.5,886.67,303.32,893.65,296.1,892.73Z" fill="#262521"/><path d="M772.11,941a21.17,21.17,0,0,1-.35,3.1c-4.93-3.95-10.55-6.59-12.9-13.28-.42-1-3-1.56-4.52-1.53-3.62.09-6.6-.26-7.28-5C740.28,917,726.75,904.37,717,913c6.76,10.33,19.83,13.18,28.38,21,.89,2.05,1.25,4.25,3.84,1.67,4.72,1.68,24.59,22.2,32.55,34.43q-.64-9.82-.73-19.68C777.73,947.72,774.83,943.81,772.11,941Z" fill="#262521"/><path d="M793.07,1070c-1.17-4.52-2.38-9-3.39-13.59-6.27-2.3-13.18-4.63-17.18-10.81,0,.44,0,.88,0,1.33-9.34-13.14-21.24-28.37-37.9-26.89.41,1.27.76,3.63,1.24,3.65,7,.39,8.66,7.56,12.95,11.31-28-.27-50.53-25-78.63-19.07-5.28,1.83-6.64-3.88-10.94-4.53-2.58.38-4.22,1-2.21-2.92,1.3-2.52-1-3.53-2.75-2.28-4.16,3-18.39-2.62-19.41-7.64-6.2,3.94-8-5.4-13.16-4.92C602.6,978.12,602.5,989,596,1006.72c-5.41-2.54-13.59-7.27-20-6.83-5.25,7.23-14.1-2.32-19.66,6.3-7.65,6.1-18.69-2.65-23.65,9.74-8.66,13.63-26.53,2.68-33.87,17.53-.72,1-2.16,2.39-3,2.23-10-1.86-12.8,10.36-21,12-1.71,8.32,1.58,4.25,6.46,4.69a72.25,72.25,0,0,0-2.8,7.16c-20.42,10.6-46.87,17.09-59.46,38.31-2.54-11.79-2-11.46,4-22.28,6.3-7.44,1.46-27.89,14.23-26.84,1.08.21,3-1.74,3.84-3.16,4.09-9.12,13.42-10,20.15-16.11,9.2-5.44,21.57-1.54,28.94-9.91,1.78-2.65,5-4.12,9.13-3.35,6.65,1.63,14.35-10.86,19.46-2.11,6.17,8,5.24-10.66,13.79-9.45,5.73-1.61,10.66-11.26,17.7-6.61.83.63,4.16-.44,4.56-1.48,4.33-9.29,15.6,0,21.36-8.53,14.33-3.5,12.47-17,18.19-28,4.12,4.64,7.74,9.54,12.38,13.69.79-3.23,1.72-7,2.64-10.82l1.49,0c7.22,33.06,10.06,7.28,19.26,20.36,5.8,10.65,16.37,1,21.64,9.1.26.61,2.54,1.08,2.77.74,4.52-6.46,10.85-2.34,16.27-3.26,2.75-.47,6.15-1.28,7,3.53,12.64.5,11.76,5.92,25.22-.26,2,7.77,8.41,3.21,12.51,4.76,21,1.72,49.05,18.34,56.19,40.66,3.87,7.47,10.31,11.48,17.29,14a83.65,83.65,0,0,1-1.54-13.23c-7.72-3.19-14.15-10.9-18.57-18-13.11-17.28-30-28.57-49.18-37.57.1-.55.21-1.1.31-1.66,6.5.34,13,1.25,19.49.31a9.1,9.1,0,0,0,7.41,7.12c18.59,8.51,22.63,37.45,40.62,45.83-1.32-7.53-.95-15.3-2.74-22.75-6.32-4.79-12.83-10.21-16.54-17-9.2-6.77-14.52-17.06-28.81-13.38,0,0,0,0,0,0-8.47-5.42-.59-10.57-16.34-9.42-3.64,0-8.94-2.81-10,2.88-1.87,7.14-6.89-2-11.64.27-1.5-9.59-20.37-5.68-27.27-6.35-13.6-.07.42-17.65-18.34-5.15,15-25-35,17.12-41.9-33.72.4-7.42-5.44-8.81-10.3-5.93.25,5.43-6.38,5.62-7,10.4-.12.9-1.5,2.46-2,2.33-8.1-2.16-9.94,6.1-14.57,9.67-7.2,8.15-17.89,3.32-27.12,4.58-5.07-1.38-6.41-9.71-10.57-13.31.72-.34,2.87-.64,3.62-1.88,4.9-7.61,15.47.24,18.93-9.61,3.19-3.85,11.88.52,14.45-5.58,2.35-3.71,7.18-5.17,10.27-7.68,2.65-3.52,4.75-6.17,7.28,0,.13.32,1.9.4,2.34,0,15.49-20.55,5.45,7.16,19.56,3.51,13.77,1.6-1.14,15,34.7,12.84,15.64-2.27,18.75,21.26,35.41,20.81,6.56,1.35,16,.38,21,4.94.23,7.8,5.25,4.26,7.72,3,2.64-1.31,3.71-2.32,5.67.87,16.58,4.15,38.63,12.05,46.83,30.92,4.89,4,9.54,8.45,14.88,11.78-1-7.78-1.85-15.58-2.52-23.4-3.43-.5-10.47-4.08-22.7-12.31-8.67-10.48-15.58-21.76-27.52-28.86-8.67-6.95-15.5-16.34-26.14-19.86-7.63-2.14-16.43-2.41-22.59-8.45-9.63,1.91-14.54-8.1-22.65-9.89-3.45.85-24-6.88-24.77-10.06,4.78-7.23-9-3.45-12.5-6.14-.86-.24-1.76-1.87-1.91-3-1.19-10.48-8.56-1.57-11.87-12.52C601,871,605,878.68,597.51,870.19c-.52,6.63-7.31,7-8.07,13.19-.07,1.62-1.62,2.81-4.26,3.49-7,.22-16.83,16.2-21.93,9.34-.77-.9-6.88-1.6-8.58,3.37-8.39,7.72-19.88,12.15-29.44,18.42-7.19,2.43.88-12,5.73-9.12,6.15,1.12,7.34-5.77,11.83-6.86-.48-1.81-.43-4.58-1.53-5.27-10.39-6,2.19-24,9.81-21.85,13,.31,23.12-10.85,34.72-14,4.78,6.65-3.72-16.1,16.11-16.23,9.36-6.44,9.23,13.57,18,6.33,10.76-6.23,5.24,10.12,17.41,6.53,1.57,0,4.29-.23,4.53.43,3.08,8.3,11.79,5.77,17.17,9.47,3.58,6.09,10.25,8.13,14.69,12.4,9,9.2,21,6.36,30.55,11.6,5.12,8.55,14.94,6.87,22.32,8.16,7,6.15,17.12,3.26,24.1,9,7.38,7.86,18.64,16.11,21,27.25,3,2.52,5.55,6,8.39,8.91-.24-3.89-.5-7.78-.56-11.68-4.16-4.65-7.95-9.77-11.53-14.41-9.12-12.49-15-27.86-28.75-35.89-5.57-6.83-14.83-3.81-19.63-10.59-5.4-7.63-12.55-13.05-20-18.22-5.61-7.55-1.57-13.52-13.64-15.44-6.2-2.36-9.27-8.84-16.9-10.14-5.74-1.66-8,1.23-11.32-6.42-5.47,5.33-4.65-4.86-14.9-1.28,6.1,5.55,9.9,12.09,17.28,14.31a10,10,0,0,1,5.6,4.6c2.4,7-5,8.21-8.95,6-6.18-4.31-11.29-11.16-17.33-15.39-6.52,2.1-7.77-5.08-11.68-7.5-2.33-3.56-1.4-13.66-7.84-8.22-2.57,4.08-3.33,1.91-5.49-.54-5.24-11.15-10.24-.6-9.72-11.27-11.37,3.11-16.6,17.94-24.84,26.3-3.08,16.12-4.77,7.35-13.64,10.38-6.87,5.39-6.85-3.91-11.65,8.72-7.52,5.52-11.21-.35-15.78,11.4-5.51-4.61-5.05,3-7.7,4.23-4.53,3.88-12,1.34-13.67,8.67-.15.71-1.62,1.77-2.25,1.61-9.22-3.55-13.71,8.84-16.74,5.07-4.28-.34-7.89,5.11-11.75,6.94-4.53,1.5-8.49-.88-13,2.66-6.15,2-8.51,9.78-14.67,10-9.81-3.43-10.53,6.46-17.69,9.65-3.41,1.41-7.49,1.71-8,6.92-4,4.25-7.11-2.42-10.25,10-1,7.18-6.12,11.75-8.64,18.24,0,.41-.06.79-.1,1.18V961.3c1.31-1.42,2.61-2.85,4-4.11a5.65,5.65,0,0,1,1.28-2.87c6.24-5.67,6.87-14.68,12.35-21.1,3.66,4.15,4.71-1.16,6.75-2.31,7.37-7.1,17.54-8.55,26.43-11.87,5.17,3.05,8.81-2.66,13.41-2.53,1.9-7,9.29-1.22,12.6-6,.66-1,5.43,1.27,8.3,2-2.36,4.81-3.23,10.31-9.48,10-10.81,3.58-19.66,10.4-31.2,8.79-1.28.11-3.26.52-3.62,1.4-2.35,5.61-7.3,7.19-12,9-11.39,2.48-12.89,14.36-23.58,18.91-.41.38-2.72,2.15-5.63,4.37v13.43c8.26-7.8,17.42-16.84,21.16-20.74,7.31,1.73,10.5-7,16.89-7.61,8.93-10.57,11.31-9.89,23.63-13.49,14.12-8.83,30.55-8.57,44.41-17.54,0,1.42.25,2.46.07,2.54-7.37,3.24-11.4,13-21.71,11.08-7.36-1.62-13.8,5.43-19.35,10-17,10.4,13.28,18.17-25.47,24.75-2.57,3.89-6.27,3.41-10,3.45-1.32,6.28-7.51,6-11.11,9.26a51,51,0,0,0-17.75,15.3c.27,4.47.41,8.94.49,13.41,3.22-3,6.68-5.7,7.74-6.72,4.34-4.27,8.56-10.41,14.08-12.69,15.5-4.48,29.21-13.24,45.9-12.94,4.86-5.36,26-12.54,31.4-9-5.31,4.09-12.66,3.29-17.25,9.56-4,4.25-13.26.52-15.71,7.7-.32,1-3,1.25-5.06,2-5.47-3.1-5.29-3.79-9.92.79-5.74,4.61-17.39,9.67-24.48,7.71-3.49,6.13-10.73,6.56-15.1,11.15-1.39,1.45-6.91,7.35-11.47,10.58.07,4.85.23,9.72.21,14.58,10.28-7.5,23.37-19.65,27.3-19.81l.94,1c-46.08,60.7-20,21.06-30.46,85.61.54,7-6.26,13.19-8.17,19.62-1.2,4-3,13.46-2.2,17.59.06-3.15,6.8-10.27,9.31-11.82,6-10,10.09-20.75,19-28.92.8-7.79,8.84-5.88,12.92-10.48,9.82-11.12,27.4-9.81,34.14-24.74,6.09-3,13.32-3,19.44-5,4.46-6.31,11-6.1,17.32-6.37,10.58,1.48,10.26-10,18.08-8.09,6.72,8,9.66-5.2,16.33-3.15,2.15.49,5.25-2.27,6.86-2.73,7.34,5.35,10.18-6.35,17.09-3.5,7.68,4.47,8.19-6.28,14.3-6.83,2.51-.85,6.67,1.22,7.47-4.11.26-1.76,13.85-3.22,14.37-1.62.69,2.13,1,5.72-.18,7-11.4,19.3-32.25,1.89-35.29,16.4,0,.76-1.61,2.15-2.45,2.13-11.76.56-20.14,10.77-31.27,14.17-8.8-1.06-19.65-2.65-26.82,5.34,2.36,1.77,5,6.14,8.22,3.89,3.27-4.77,37.76-5.59,42.25-2.28-13.59,9.78-32.92,6.58-46.71,14.7-3.48,4.63-8.2,5.76-13,7.15-2.49,14-20.59-.87-19.25,22.48-9.32-9.39-27.66,14.57-44.89,11.06-9.44-.82-2.3,13.48-11.47,13.84.08-2.53.18-5.05.28-7.58-7.19-1.07-20.36,11-26.61,15-.27.13-3.33,14.78-2.37,16.87,7.56-8,41.4-20.32,50.62-26,5.71-3.45,11.38-7.84,18.24-8.37,16.27-8.73,33.08-20.8,48.85-31.27,14.92-1.5,28.8-14.56,43.52-16.64,6.87.69,9.13-7.25,15.25-7.07,1.09,0,2.73-2.4,3.33-4,3.22-8.66,17.27-18.43,24.8-21.47,4.41.75,9.1-2.29,13.39,1,.21.16,2.46-2.64,3.74-4,8.71,7.94,19.46,18.88,32.4,14.08,1.41-.54,4.42-.29,4.72.47,3.93,7.75,30.6,2.46,37.22-2.39-4.36-1.6-8.34-4.51-12-4.15-11.52,1.5-21.16-4.58-32-6.17-3.9-1.26-8.48-1.54-10.05-6.78-5.83-1.35-8.85-4.8-12.95-10.79,8.21-.56,11.14,6.67,18.69,4.63a2,2,0,0,1,1.88.41c4.91,7.73,13.23,3.41,19.57,7,13.07,11.77,24-1.17,28.45,6,26.34-5.35,44.56,24.75,66.53,36,13.69,10.84,9.27,20.85,31.54,27.49Q794.36,1088.26,793.07,1070ZM549.86,975.22c4.22.65,18-4.09,18,1.45a23.28,23.28,0,0,1-3.3,2.55c-6.89,0-10.91,1.3-16.37-.08C548.72,977.77,549.18,975.3,549.86,975.22Zm134.65-42.71c6,5,13.68,4.31,20.18,4.78,6.82.48,12.19,6.69,19.25,4.17,6,3.83,11.55,9,17.38,13.23-.4.53-.8,1-1.21,1.57-14.5-4.15-29.31-11.74-44.09-13.46-8.29,1.51-11.91-5.34-17.36-10.18C680.65,932.53,683.32,931.53,684.51,932.51Zm-8.38-84a56.57,56.57,0,0,1,6.94,4.28l-3.77,6.5C677.79,855.9,670.49,850.84,676.13,848.51ZM528.49,890.76l4.35,3.26-5.1,5.84C523.82,897,527,894.83,528.49,890.76Zm-8,71.77c-.35-4.95,12.81-6.33,16.45-4.24,1.05.53,3.06-1.06,5.33-2C540.34,962.83,524.55,968,520.45,962.53ZM539,927.45c2.58-4,5.82-3.12,9.1-2.69-5.18,5.76-13.72,13.88-19.15,4.15C531.94,928.69,536.76,929.35,539,927.45Zm-41.47-31c7.87-14.4,21.21-4.45,2.7,1Zm11.39,20.75c-14.06-7.61,7.27-9.54,10.15-15.33.87-1.13,3.38-.84,5.14-1.2C522.17,908.55,514.22,911.64,508.93,917.22Zm-14.6,44c-2.19.8-5.63-.43-8.16-.22,8.14-10.52,24.83-9.86,35.66-17.29a46.56,46.56,0,0,1,9.71,2.94C522.35,959.25,506.61,955.51,494.33,961.23Zm24.59,34.48,6,2.09c-1.55,9.06-6,5.49-11.08,2ZM492,993c-3,1.88-3.9,5.4-8,3.45-2.92.91-7.3,3.8-11.12,3.7C473.19,995.18,488.14,990.19,492,993Zm-29.13,10.2.06.4c1.79-.12,3.56-.32,5.26.44-.3,4.38-13.43,7.42-16.19,4.27C454.05,1003.58,458.83,1004.27,462.9,1003.24Zm-4.59,9.8c10.91-3.77,22.65-6.67,33.51-10.49,2.57-3.38,20.13-8.51,18.86-.64-.51,1.78-.55,5.59-4.5,4.07-10.25,1.1-20.16,7.45-30.84,8.56-7.54,1-26.67,18.14-31.76,13.32C444.2,1023,453,1013.36,458.31,1013Zm-38.64,40.46c5-4.72,8.32-12.8,15-14.71-1.08,11.7-15,20.24-15.39,33.69l-1-.26C418.73,1066.1,415.65,1058.59,419.67,1053.5Zm142.46-28c-6.13-1.32-7.22-7.66-.62-6.9,2.34.41,6.43-2.53,6.41,2.67C567.91,1022.6,564.47,1023.9,562.13,1025.53Zm190.24,33.41c-6.42-4.78-12.21-10.5-19.41-14l.85-1.56c9.21,1,20.23,5.91,22.66,16.24C755.09,1059.43,753.39,1059.69,752.37,1058.94Zm3.71-14.94c-3.79-1.61-5.84-4.55-6.8-8.68C753,1035.59,760.09,1040.07,756.08,1044Zm23.83,39.69c-4.92-2.59-3.85-7.52-4-12.37l1.38-.39C780.07,1075.15,783.51,1078.57,779.91,1083.69Z" fill="#262521"/><path d="M763.08,849.83c-2.31-14.9-10.54-29.68-7.81-45.69-3.56-5.9-3-13.65-8.82-18.81-9.11-10.21-16.13-26.83-29.09-31.83-1.43,5.79,5.49,7.83,4.72,13.66-7.53-.86-11.58-9.85-16.85-14.65-5.75.7-8.08-4.22-11.63-7.41-7.74-8.79-8.46,1.14-15.23-6-19.9-14.3,5.58-16.85-23.09-18a47.42,47.42,0,0,0-9.75.38c-8,0-.94-13.78-14.95-10.39a4.58,4.58,0,0,1-3.65-1.64c-3.89-7.42-12.44,3.53-13.32-3.69-2.56-9.74-11.56,2.53-10.39-15.13-.12-5.17,1-6.4,5.59-5.8,19.18,0,2.47,12.93,19.36,7.08,3,6.4,6.21,2.32,10.14,1,19-5.88,10.81,10.87,47.36,4.45,23.41,9.85-7.33-18.31-11.62-23.71-19.09-2.28-4.09,9.92,1.77,16.25-24.53,8-12.2-20.88-28.57-21.71-10.2-3.07-20.46-7.67-31-8.23-3-8.73-13.28-8.82-17.38-16.26-.28-.49-1.91-.83-2.06-.6-3,4.53-4.72-1.28-7.07-.95-4.57.64-3.29-3.23-3.9-5.54-.77-2.94-1.79-3.32-4.06-1.23-9.57,3.51-10.22-7.41-24.86,6.84-4.48,6.19-11.69,3.16-16.38,8.34-4.1,5.13-6.77,11.92-14.27,12.74-6.22,12.07-21.78-.73-26.61,13.11-1.66,4-2.63,9.57-8.58,10.31-2,1.09-3.12,7.69,1,8,10.22-1,5.62-12.67,21.95-13.66,4.28-7,12.84-5.46,18.27-9.89,5,2.46,9.21,2.16,12.17-3.57,3.7-.27,7.28,4.81,10,7.3,9.63,7.28,9-11.61,18.71-11.55,5.29-1.11,5-7.14,6-11.46.67-3.09,1.32-6.2,4.55-4.5,5.49,5,1.91,15.93-.52,21.92-6.34,14.08,17.79,19.08,8.11,33.41-3.19,3.61-9.54-1.07-11.54,4.91-3,1.72-6.44,5.05-9.61,6.41-5.66,1.64-8.51,9.64-15.81,7.46-8.43-2.32-4.66,12.42-13.9,10.66-5-.64-12.38,5.95-17.12,2.1-5.8-9.87-9.95,15.47-22.41,9-2.86,3.48-9.64-.48-10.84,6.54a4.59,4.59,0,0,1-3.52,2.81c-20.7,1-31.8,23.44-42.71,38.51-9.31,13.91-2.63,35.65-11.53,50.79-4.46,7.59-12.11,17.53-19.65,27v15c11.17-11.7,22.38-25.76,25.53-37,7.12-4.46,9.14-14.48,11.06-21.29,2.63-.61,7.32-1.08,7.95.2,3,6.24,7.66.74,8.24.08,3.17-3.61,8.66-5.64,8.5-12,0-1.39,1.06-3.08,2.08-4.2,3.83-2.75,3.41-18.32-1.53-16.13-3.73,3.58-7.55,5.9-13,5.57-3.29.2-6.5,5.43-10.42,5.8-1.49-10.39,15.39-9,16.38-16.69-.12-4.64,1.95-4.4,4.92-3.61,5.41.76,9.88,4.16,14.3-1.47,7.23-7.36,15.63-13.18,23.12-20.32,2.44,10.1,19.87,1,27.37,2.23,6.77-9.37,11.49,1.36,18.29,1.81-9,10.73-13.94-1.71-22.53,9.34-5.67,11.07-12.24,5.34-14.65,14.3-1.27,4.85-2,6.62-7.45,6.21-.83,9.38-15.18,7-14.27,18.31.08,1-4.81,4.09-6.58,3.5-10-4.73-12.4,30.79-19.18,23.53-3.67-4.42-7.08-3.66-10,1.63-9.19,12.08-20.92,23.4-27.11,37.57.15,10.1-10,16.46-13,26-2.5,4.55-4.92,9.31-7,14.25v12.37c4.37-14.58,16.32-26.89,24.84-38.68,8.75-8.84,8.77-28.58,24.43-21.83,11.16,4.71,2.9-15.9,26-14.45,2.21-.11,3.33.33,4-2.69.47-2,2.92-5,4.61-5.1,9.95-1,18.14-7.6,27.45-10.68,13.88-6,23.43-24,39.31-22.91,2.77.77,6.61-4.48,10.26-5.15,5.35-1,9.55-3.51,10.92-8.54,2-7.44,8.76-10.54,11.89-16.81,4.36-6.49,5.54,11.64,12,1.9.5-.71,1.8-.8,2.72-1.18C611,794.49,619.35,792,620,797a2.91,2.91,0,0,0,1.42,2.12c6.5,1.69,9.12,7.85,12.82,12.62,1.59,2.06,2,2,4.2.86,7.38-3.85,15.8-1.83,23.59-.8.63.08,1.71.32,1.77.65,1.92,8.45,15,5.61,19.17,14.46,11.8,10.6,27.37,18.84,37.91,31.67,1.77,2.57,4.62,3,7.44,2.93C725.76,843,706.54,838,697.75,823.25c-3.76-2.83-9.34-6.93-6.49-12.92,4.51-3.9-.6-5.26-1.8-5.32a274.9,274.9,0,0,1-50.19-27.57c-6.4-2.54-10.41-1.88-14-7.54-2.94-3.43-4-9.44-10.16-8.89-.42,0-1.48-1.48-1.37-2.1.94-5.3-4.47-6.55-5.8-10.42-1.71-.9-5.09-2-6.62-4.08,7-12,26.84,4.52,36.17,7.74,9.39,12.76,25.84-4.48,34.38,9.35,6.24,1.81,12.27,7.62,16.19,13.16,10.57,1.69,13.85,21.09,22.69,28.79,9.43,1.76,14.55,12.67,17.43,21.57-.44,18.06,22.24,9.2,25,25.57a4.47,4.47,0,0,0,4.46,3.79,88.65,88.65,0,0,0-.36-9.36Zm-192-197.55c-1.85,3.59-6,5.57-9,8.09-2.57-5.75,1.36-12.45,8.17-11.28C570.53,649.81,571.46,651.3,571.12,652.28ZM522.5,753.59c-1.74,1.41-5.58-1.87-5.93,2.94l-4.92-3.22c4.56-2.56,9-7.35,13.33-3.09A16.5,16.5,0,0,1,522.5,753.59Zm39.67,35.32c-2.8-1.39-8.63,2.39-8.94,5.91s-2.41,4.47-4.66,5.87-4.11,4.55-6.74,5.39c-7.55,1.35-7.9,2.47-10.56,9.51-1.32,4.71-13.85,20.32-11.81,6.65,3.42-3.69,2.51-11.4,9.57-11.76-.11-7,38.21-42.82,39.3-25.42C566.74,786.55,567.24,791.45,562.17,788.91Zm24.7-30.75C580,759.92,583,766,578.14,770.7c7.29,2.7,8.16,9.38,2.07,12.24-.49-5.51-5.27-1.36-7.34-3.57-.51-.55-2-.11-3-.12,1-5.77,6.85-8.46,6.56-14.82-9.08-2.08-15,9.42-17.87.64,1.19-.87,2.7-2.74,3.5-2.45,7.37,3.13,7.83-6.93,13.86-6.91,7.46,6.64,5.64-8.18,11.6-9.77C595.41,743,591.9,756.21,586.87,758.16ZM748,817.4c-1-.74-2.57-1.34-2.75-2.25-2.33-7.93-10.34-11.33-12.8-19.22-11.78-9.54-28.23-17.72-36.91-29.4,10.82-10.94,38.33,37.94,33.32,5.2C741.27,781.66,748.7,801.67,748,817.4Z" fill="#262521"/><path d="M778,908.42c-.9-6.34-2.5-12.6-3.2-19a2.15,2.15,0,0,1-.76-2.11c-1.22-2.11-2.39-4.25-3.46-6.45,0,.09,0,.17-.07.26-1.92-2.47-2.45-8.89-6.88-3.45-1.19-.24-1.85-2.37-1.78-3.64-.15-9.07-6.22-17.21-13.45-20.63-.07,1.49-.77,3.77-.12,4.36,8.07,7.25,9.07,17.18,10.64,27.42,3.79,16,10.72,31.21,20.81,43.16C779.09,921.73,778.93,915,778,908.42Z" fill="#262521"/><path d="M474.39,1049.39c-15,20.68-16.26,1.8-22.43,15.8-5,13.31-19.35,2.07-18.28,17.44l.21-.22c-5-3.87.24-9.56,1.5-14.3,7.12-2.64,15.63-2.87,19.67-11.72,2.5-3.78,10.44-4.17,13.49-7.55,2.89-4.22,4.14-1.24,5.82.82Z" fill="#262521"/><path d="M431.34,581c11.38-5,37.26,1.72,43.1-11.76-.64-7.39-8.18-10.43-12.63-1.38-2.68,4.7-11.7,7.41-15,4,.54-2.56,7.37-4.51,1-4.59-1.44-2.71,2.09-3.79,3.48-5.36,1-1.39-.15-4.69-2-4.28-5.45,5.14-15.61.5-18.85,10.22-23.42,7.3-44.35,26.26-57.53,47.41C388.7,609.83,403.29,581.41,421,590c2.19,7.61,19.27,3.5,13.54,10.54-13.61,17-34.36,25.09-48.36,41.85-5.34,10.36-17.4,17.13-20.06,27.88,0,8.5-8.76,6.49-14.21,9.19.91-5.51,1.12-11.2,3.59-16.25-3.89.87-7.18-.59-10.55-2.5,6-8.47,6-9.11-1.36-15.67,2.32-14-10.91,2.12-15.75-5.67-10.45,2.94-13.44,18.66-17.53,28.24l-1.66-.66,3.09-13.14-1.23-.75c-7.84,13.56-17,40.5-13.13,56.31-3.47,15.88-7.64,33.83-3.88,49.79,2.76-8.49,5.53-9.09,11.58-13.94,2.77-3.25,2.94,2.61,5.07,3.2,2.44.68,5.31,1.11,7,2.77,6.7,7.92,10,2.67,14.82,6.24,2.22,6.87,11,5.86,13.31,12.71.44,1.32,2.74,1.93,4.18,2.86-9.49,2.84-19.85-13.63-23.75,1.66-1.62,1.64-1.38,6.07-.39,7.27,5.39,3,8.27-5.65,13.43-.06,14.29,14.62,32.38,22.85,51,29.87a19.5,19.5,0,0,1-.38-6c-12-16.82-22.84-34.47-40.9-44.4-3.47-2.29-5.74-4.48-6.4-8.85-1.42-6.43-10.85-7.35-15.58-6.91-3.88,1-6.58-7.07-10.18-.79-2.29-3.24-7.09-9.33-3.94-13.21,2.82,5.88,5.49,6.61,10.92,5.86.76-.54,3.12-7.86,4.63-8.37,4.46,3.16,20,2,20.48-4.9.5-13.43,25.91,10.81,32.14,12.3,3.25-8.39-5.7-12.15-7.94-18.84-.55-1.67-5.47-1.66-8.38-2.46-1.05-.29-2.72-.4-3-1.1C348.4,700,346,711.49,334.57,685.67c4.91,1.65,9.78,3.19,14.57,5,4.36,2.5,1.75,11.35,8.08,5,1.12-.94,2.81-5.73,3.33.34,22.7,14.72,13.37,19.74,26.55-8.81,6-18.76,9.59-25.27,25.91-34.8,19.66-23.8,29.23-55.67,56.3-71.66-11-2-20.47,9.54-30.18,14.32l-1.39-2c2.92-3.06,6.37-5.46,5.26-10.4-4.6-.23-10.65,6.8-13.7,1C429.09,583.16,430.41,581.37,431.34,581ZM305.18,696.22l1.49-.19c2.18,6.86,4.95,13.41,10.28,18C323.2,734.89,303.41,703.69,305.18,696.22Zm2-9.93c7.25-12.85,12.57,11.34,14.36-20.94l-1.18-.43c1.24-9,10.35-11.47,6.39-.11-4.36,10.61,3.53,7.62,6.85,15.44C321.75,681.54,319.09,692.81,307.15,686.29Zm34.63,24.32c-7.33,7.29-12.43-2.11-17.85-6.07-8.77-6.27,4.13-17.85,6.68-6.27C334,702.47,338.28,704.59,341.78,710.61Zm44.44-34.4c-8.18,5.41-7.4,13.91-11.43,22.13-3.42-5.46-4.33-10.48-5.88-17.24,1.58-5.73,19.74-29.61,23.68-19.52C386.93,664.79,389.56,672,386.22,676.21Zm10.2-26.72c3.85-10.39,8.84-13.45,16.87-9.92Zm27.32-70.87c2-6.39,12.84-12.63,18.59-11.66-3.09,4.63-9.06,3.36-10.81,9.45C429.29,577.74,426.25,577.78,423.74,578.62Z" fill="#262521"/><path d="M849.47,713.15l-.06-.17c-.55,3.16-2.82,6.63-4.14,8.85-4-6-6.16,2.32-10.1,1.66-4.75,0-14.08,1.72-15,8.25-.35,4.41-2.46,6.79-5.77,9.37-14.75,9.78-27.57,31.19-27.57,33.89s-3.19,12.72-2.64,16.25c15.39-7.79,30-16.93,41.36-30.57,4.75-6,8.21,2.32,13.38-1.1.91-1.28.84-5.72-.88-7.21-5-14.91-14.14,2.41-23.8.41,1.37-1.06,3.62-1.87,4-3.22,1.81-7,10.65-6.79,12.39-13.83.21-.84,2.19-1.85,3.21-1.71,5.05.72,8-2.27,11.13-5.8,2-2.87,7.18-1.72,8.5-5.7C852.27,719.29,850.72,716.19,849.47,713.15Z" fill="#262521"/><path d="M607.12,1068.53c-7.42.22-10.78,10.06-22.53,5.1,1.43-5,6-7.11,10-9.45,14-12.92,5.64-20.77,28.06-9.9,7.3,3.83,6.36,15,16.26,13.71,8.24-.31,6.79,8.19.1,8.51-5-.09-10-1.78-14.88-3.15-.27.63-.55,1.26-.83,1.9,8.9,5.87,18.09,11.71,26.86,17.59,4.93,12.24,17.83-1.85,24.29,8.25,5.93,2.88,13.74,5.3,19.4,10.1-9.07,2.38-17.91,2.75-26.67-1-6.32,3.72-12.69-.16-18.73.3-13.41.94-23.3-7.16-34.2-12.33-1.29-6-6-3.74-9.27-4-8.64-1.18-12,8-14.4,15.18,29.07-3.2,23.6-3.5,41.62,21.27,1-2.67,2.21-4.15,1.92-5.13-4-15,20.46-10.16,24.27-2.46,3.31,5.65,8.71,4.31,12.54,7,4.61,4.17,9.94,2.36,14.8,4.57-4,10.46-15.89,4.13-22.58,9.85,5.22,5.62,12.4-.19,18.35,4.07-1.83,11.39-14.43,10.94-22.49,10.79-13.55,3.26-23.4-10.87-35.78-12.89,2.35,4.31,1,9.64.82,14.41-2.76,4.13-8.21-.65-11.86-1-6.09-1.32-8.88-6.92-11.21-11.53-1.7-4,2.56-11,2.3-16.13-5.81,1.41-4.66,9.19-7,13.89-.75,2.33,1,7.09-4.79,5.12-2.67,1.3-7.57,8.8-11.92,10.11-6.75,3.76.11,9.06-11.95,7.71-12.16,2.51-5.91-4.34-22.06-8.65,1.5-6.43,7.23-3.85,10-9a11,11,0,0,0,7.37-3.93c-5.3-6.64-23.94,4.92-22.29-7.34,4.53-6,13.08,1.93,17.8-5.45a2.63,2.63,0,0,1,2.36-.29c4.37,1.61,4.34,1.66,5.49-2.89,1.35-3.1,1.53-4.82-2-5.86-2,4.25-3.11,2-2.9-.75.3-4-4-7.86-.32-11.91-9.84-7.75-28.28,10.2-36.22,18.21-2.77-15.6,11.64-20.19,21.24-26.45,3.51,5.11,4,.13,5.86-1.67,6-4.12,13.79-6.18,19.84-10,13.53-2.81,24-15.41,35.73-23.18Zm30.43,62.25-.58,1.06c4.91,4.83,11.6,14.38,18.84,9.61A96.19,96.19,0,0,0,637.55,1130.78Zm-57.18,8.69c-4.79,2.51-10,4.25-13.73,8.55l2,1.93C571.71,1141.31,576.36,1160.12,580.37,1139.47Z" fill="#262521"/><path d="M627,590.42c3.51,17.49-18.44,1.8-13.79,16.61-5.23,10.64-15.13-4.33-27.8,5.43-7.3,5.44-11.7-6.21-16.94,5.61-2.11,3.64-3.8,6.1-8.08,4.07-13.5,5.21-28.41,9.32-41.14,16.76-9.32,2.62,1.65,16.45-8.57,15.59-16.57-2.4-6.68,8.45-14.86,6.81-5.15-1.81-5.46,4.37-8.48,6.27-3.39,2.18-5.47,8.06-7.69,11.4-3.61,1-4.86,3.9-6.5,7.09-7.79,4.29-13.28,12.93-19,19.92-16.12,1.72-23,16.54-34.84,25.69-11.07,4.1-10.86,14-12.11,24-6,4.24-5.86,11.81-8.63,17.75-6.13,10.16,8.15,19.35,4.29,29.21-5.65-4.24-7-12-15.89-12-16-14-19.4-27.42-40.49-38.54,6.34-2.89,11.57-3.72,16.37,2.85,3.89,5.33,10.54,7.9,13.59,14.71.62,1.39,6.25.41,9.53.09.4,0,.89-2.77.8-4.21-.21-3.63-.86-6.55,2.53-9.92,7.85-12.18,6-40.51,21.52-46.28,9,1.29.71-12.4,10.57-11.91,10.22-2.83,7.08-20.42,19.2-21.17,8.56-3.29,3.86-14.24,17.14-13.73-1.53,13.87-19.36,17-22.86,31.32,5.65-3,9.54-4.42,13.72-6.91,6.24-14.51,26-3.48,30.39-30.45-4.46,1.24-7.87,4.07-12,1.31.68-1.26,1.12-3.34,2.09-3.68,13.54-3,10.64-17.1,19.48-24.16,2.94-1.57,6.12-2,6.5-6.56,10.95-3.6,16.9-16.39,30.06-16.92,9-.36,18.82-2.83,26.39-7.68,24.88-5.39,50.87.14,75.59-8.22ZM403.27,739.2c2.41-1.31,4.31-1.68,4.61-2.62,2-6.18,6.92-9.74,10.48-14.5,9.61-14,11.18-3.93,13.8-27.54-4.44-.2-7.47,4.43-9.43,7.91-2.93,7.09-11.32,10.33-11.65,19.24C409.67,728,400.3,731.83,403.27,739.2Zm83.94-95.59,1.93-.15c-3.87,9.2,6.59,4.37,8.84,1.78,3.2-5.46,8.17-1.85,12.28-2.72,9.19-13.56-6.57-4.24-11.09-9.7C494.2,633.78,490.38,639.61,487.21,643.61Zm45-25.22c-8.3-3.47-17-1.42-20.28,4.49C519.23,622,527.78,627.12,532.19,618.39Z" fill="#262521"/><path d="M393.54,1162.72c0,1.59,0,3.18-.05,4.77a8.5,8.5,0,0,0,2-2.2C395.8,1163.91,395,1163.14,393.54,1162.72Z" fill="#262521"/><path d="M391.54,1162.37c-5.46-.52-14.91,1-17.67-1.44,4-4,11.16-2.6,17.6-2.75-.06-2.2-.14-4.39-.18-6.59-6.2-1.32-12.84-2.24-17.32-4.74-6.34-4.89-16.45-5.7-23.43-9.63,5.53-5.62,14.41-.37,20.44,0,8.32-2.93,15.06-.65,22.2,1,.55-2.73.92-5.49,1.22-8.26-23.44-6.5-51.71-6.39-74.44-17.49,12-1.14,24.7,3.47,31.86-4.44-7.35-3.3-22,1.51-23.59-6-3.09-5.23-17.84-3.55-22.21-8.45-3.25,8.54-15.51,16.2-14.32,25.08,4.16-1.81,5.65-2.53,10.44-4.49-6.18,6-11.91,10.78-10.7,17.44,2.43,14.47,1.82,29.76,6.8,43.71l1.61-.18q2.58-8.32,5.15-16.63a6.52,6.52,0,0,1-.05,6.23c-6,11.45,24.34,17.12,19.93,2.21-3.15-8.88,31.67,8,43.44,4.33,5.38,1,16.53,1.13,23.1-2.38C391.53,1166.7,391.56,1164.54,391.54,1162.37Zm-56.2-15.11c.38.62-.62,1.62-1,2.45-14-4.3-17.65-19.69-38.27-5.38,1.68-6.2.79-17.32,14.51-13.5,10.93,4.3,25.37,2.23,36.47,5.83C343,1141.05,331.29,1141.47,335.34,1147.26Zm14.57,9.64c-3-2.44-9.4-3-11.89-5.91,8.42-2.59,9.06,4.57,19.11-1.52-3.68,4.2-.25,6,5.56,7.55C357,1158.81,353.5,1159.89,349.91,1156.9Z" fill="#262521"/><path d="M421.64,836.7q.32-5.9.65-11.79l-.72-.09-5.55,15-1.68-.17c1.85-9-2.85-18.06,1.83-27-6.81-5.81,1.81-14.21-3.28-21-2.36-3.15-.44-8.64,4.7-10.5,16.21-6,7-6.19,13.78-18.94l4.14,2.2c5.41-5.11,6.6-13.13,13.15-16.67,6.06-2.27,10.94.16,11.72-8.63,2.05-4.52-.36-13.67,5.29-14.7,2.39-.19,3.76-.47,3.93,2.6,13.93,6.62,7.07-5.48,15.31-5.73a4.5,4.5,0,0,0,3-2.77c1.07-5.91,5.86-8.84,9.83-10.33,8.43-3.54,9.3-16,19.84-13.15,5.62.49,3.6,9.69,7.39-.12,5.76-10.92,21.42-2.74,28.83-10.3,3.46-3.16,22.42-9.5,17.92-.35-3.9,4.6-6.08,11.08-13.7,11.84-4.25.43-8.18,4.41-12.29,6.72-2.62,1.48-5.37,4.17-7.48-.82-3.4-2.69-20.35,11.67-19.06,18.37-5.48,7.44-11.56-2.45-17.44,9.75-12.35,1.93-16,22.17-29.38,18.33-.6-.41-2.65.64-3.42,1.58-11.32,12.92-17.08,12.84-24,30.63-7.58,4.84-9.18,12.39-9.21,20.9-.37,2.16-4,5.09-3.78,7.25,1.26,4.14-.75,7-2.31,10.41-2.6,5.75-3.08,12.49-6.42,18Z" fill="#262521"/><path d="M801.25,682.88c.61-18.35,11.39-19.82,16.24-34.44,1.7-6.19,3.69-6.18-2.21-8.94-8.37-3.09-3.46-12.3-1.54-18.46,2.27-6,6.25-.5,9.08,1.77-4.23-18.27-23.35-25.18-37.05-34.75-12.74-8.78-24.47-17.37-40.18-17.61.18-4.31,1.82-6.91,6.08-5,20.18,8.54,40.31,17.24,60.47,25.85,8.9,3.91,12.07,14.82,18.44,22,6.09,12.57-2.84,27.22,5.8,39.54,5.25,11.81-6,20.55-3.23,33.09,1.31,1,4.76.43,6.52-.07-5.79,15.85-21,26.53-31.63,39-3.85,3.71-11.45,2.64-12.25,9.69C781.08,751,789.43,747.69,785.08,761c-7.81-10.24,11.37-34.86-10.57-67.63-1.67-4.78-14.18-23-5.46-23.79,17.08-2.12,6.78,10.17,12.18,19.2,14.92,19.7,13.95-2.26,12.89,32.83,5.76,6.45,10.38-13,16-14.77,5.09-4.29,8-13,11.73-19,4.14-6.05.45-13.34,1.33-20.37-1.52,1.09-4.45,2.33-4.37,3.26C819.4,683.92,808.78,679.25,801.25,682.88Zm2.16-89c4.6,2.9,8.1,9.52,14,8.17C816.82,595.86,809.3,593,803.41,593.88Z" fill="#262521"/><path d="M699.86,568.5c-1.84-7.7-15.11-8-12.71-15,2.77-1.44,2.56-3.46,1.6-5.85-2.35-4.21.1-9.44.08-14.11,21.07,10,7.22,5.74,17.31,16,7.74,4.53,14.52,9.5,18.6,18.2,7.15.35,9.67,7,14.2,11.07,4.58,3.57,11.88,3.66,16.57,7.43,4.4,3.65,8,8.59,12.87,11.28,7.59,3.43,14.45,7.63,18.27,15.7,2.15,3.13,2.45,7.77,7.24,8.81,6.49,5.37,4.56,17.78,12.37,23.31.75.67.85,2.61.68,3.88-1,2.63-.72,15.45-4.69,11.13-18.08-16.89-33.11-36.89-53.6-50.05-9.35-7.16-16.23-22.66-27.36-25.16,5.06,8.93,15.43,15.84,16.48,26-12.55-7.56-18.56-25.23-33.65-30.25-9.29-2.86-18.63-5.67-26.15-12.43C677.68,554,691.67,565.86,699.86,568.5Zm78,54c7-10.88-21.74-23.86-28.87-26.82C755.07,607.28,767.79,613.89,777.86,622.54Z" fill="#262521"/><path d="M574.88,1184.92c-.77-18.88,11.14-18.3,23.16-27.71,9.41-3.25.35,13.88,8.4,16,5.12.77,4.58-12.07,10.06-4.48,21.4,17.16,10,3.86,14.2-11.47,6.87,4.69,25.52,5.83,20.42,17.94-4,3.2-4.22,10.83-11.06,10.63-4.76,9.83-6.51,5.27-13.71,6.52-2.89,1.75-4.86,2.86-8.35,1.62-8.73-1.83-7.08,8.42-20,2-.85-.22-2-1.1-2.46-.78-4.92,3.19-6-2.27-8-4.39C586.89,1180.28,583.29,1184.3,574.88,1184.92Z" fill="#262521"/><path d="M728.76,656.47c4,5.29,7.64,10.9,14.31,13.37,6.75,6.46,13.36,15.69,21.62,20.35,4.27,2.42,3,6.72,5.69,9.36,4.24,4,10.53,21.79,8.77,26.77-9.07-10.94-9.66-30.39-24.67-36-12.47-4.66-19.11-16.33-29.25-24-4.81-3.89-11.39-5.68-13.05-13.32-.3-1.42-3.25-2.09-4.81-3.34-3.35-5.69,5.13-2.19,7.13-.37,2.33,3.17,4.65,3.92,8.37,3-3.25-9.6-14.35-17.49-24.1-16.31,1.65,3.21,5.54,4.57,6.16,8.19-4,2.4-10.79-4.8-11.48-7.63.64-6.17-5.17-3.19-6-5.59-5.46-7.23-14.87-9-21.76-14.85-3-2-8.77-.73-9.08-5.73,4.28-4.62,13.95,2.26,19.07,3.33,10.73-.81,11.3,6.45,17.61,12,6.55,3.8,23.7,1.86,24.68,10.6-.12,1.48,1.4,3.7,2.75,4.58,16.22,8,31.25,17.4,36.86,36.73-8.21-8.89-18.57-15.07-27.94-22.49Z" fill="#262521"/><path d="M657,630.45c-2.15-9.84-15.62-6.13-18.71-15.07-1.87-3.86-27.11-1-21-7.47,2.45-9.07,2.52-1.79,9.31-1.84,23.8-.07,14.29,2.81,30.81,14.14,6.51,5,12.93,10.35,19.28,15.64-.16,1.25-2.74,6.15-1.76,7.7,4.55,3.91,7.4-3.38,10.66,4.78,2.35,6.06,13.7,10,13.73,15.68-1.79,2.2-4.86,0-6.92-.83-15-5.17-30.74-12.1-43.28-21.95-6-13.71-15-.35-23.66-5.83,16.12-23.93,11.24-4.32,31.68-5.16-.29,5.18,5.55,13.39,9.57,6.67C663.61,634.55,662.69,628.47,657,630.45Z" fill="#262521"/><path d="M308.83,1187.75c.75,3.51-2.48,8.21,2.22,10.65,5.64-11.11,6.15-.55,16.63-.86,3.91-4-4.53-16.52,8.16-14,7.44,1.33,12.5,5.55,21.29,5.08-.34,1.91.2,5.08-1.19,5.5-7,2.15-7.05,8.34-15.66,9.41-.83.1-2,1.82-2,2.72-1,7-12.78-.09-20.63,9.29a45.31,45.31,0,0,1-6.1,3.25c-9.88-8.38-14.29-20.65-5.29-31.27Z" fill="#262521"/><path d="M770.59,655c-3.26,5.08-3.74,15.69-10,10.83-2.08-6.93-9.43-8.86-12.21-14.85-3.43-11-19-8.3-19.06-20.62-.51-6.77-11.47-10.18-13.39-15.89,3-2.65,10.68,1.94,12.6,4.1,9,10.91,23.63,13.58,29.94,27.06C762.84,647.2,767,651.5,770.59,655Z" fill="#262521"/><path d="M497.14,584.09c-16,6.58-31.08,16.92-44.75,27.83C447,615.44,441.47,639,435,632.68,436.72,619.31,489,554,497.14,584.09Z" fill="#262521"/><path d="M627.15,590.53c11.86-2.47,23.63-5.52,33.72-12.9,6.33-4.62,12-1.54,18,0,4.85,1.55,28.11,13.92,23.95,19.59-61.49-36.19-30.43,4.66-75.78-6.76Z" fill="#262521"/><path d="M616.05,631.91c-5.56-3-18.58-2.34-18.83-8.21C602.45,619.53,633.57,622.78,616.05,631.91Z" fill="#262521"/><path d="M355.58,606c-.68,9-18.48,8.91-10.54,18.62.89,1,3.27,2.66,0,4.16-13.86,9.62-9.2-4-4.54-12.25,3.8-4.8,10.15-7.11,15.11-10.45Z" fill="#262521"/><path d="M799.07,707.61c-10.41-7.12,23.64-34.46,14.22-13.36C807.82,698.2,801.73,700.45,799.07,707.61Z" fill="#262521"/><path d="M305.9,763.56c6.46-4.49,19,4.45,13.6,12.67C313.17,774.75,308.41,770.07,305.9,763.56Z" fill="#262521"/><path d="M879.12,910.9c-4.94,2.2-6,11.51-13.6,8.44-7.91-3.31-5.3,4.24-7.89,6.84-3.35,5.6-14,6.25-20.17,10.44-6.36,4.33-14.6,8.88-25.56,9.88a10.83,10.83,0,0,1-2.21,1.76c0,.14,0,.28,0,.39l-.37-.19c-7.82,3.26-18.11,6-27.8,8.46.19,6.26,1,12.49,1,18.75,6.31-.95,12.69-1.87,18.4-2.53,6.29-4,9.25-8.89,18.53-8.57.3,0,1.6-1.2,1.4-1.7-1.35-3.45,3.09-2.94,6.27-3.57,17.14-1,14.82-8.58,24.6-7.33,15,2.19,7.16-3.87,15.66-5.92,9.23,2.37,11.63-2.08,15.56-5.17,12.62-3.12,32,9.26,34.56,15.16C926.62,945.64,901.37,910.1,879.12,910.9Z" fill="#262521"/><path d="M891.27,960.22c-3.5-1.75-7-5.22-8.63.79-1.18.72-7.46,1.94-7.56,3.17,1,9.13-21.3,2.4-20.78,11-8.89,6.34-23.14,6.11-34.45,9.88-4.56,1.84-9.75,2.94-14.36,5.27-4.8,2.39-15.25-.05-21.32,2.3a3.29,3.29,0,0,1-.23-.33,266.74,266.74,0,0,0,2,27.38,22.48,22.48,0,0,0,4.36,3c7.57-3.25,21.67-4.17,27.11-10.64,2.36-2.56,8.72-3.63,8.4-7.59,0-.53,3.94-1.75,6-1.68,15.68-.62,38.13-.08,46.73-9,2.09-2,3.48-3.08,7.21-2.6,9.51,1.56,5.88-4.32,9.44-7.5,4.08,2.82,9.79,4.39,15,6.37C914,979.24,905,958.7,891.27,960.22Z" fill="#262521"/><path d="M908.9,1026.9c-6,4.06-2.64-.22-7.44-1.72-5.54,3.07-3.06,7.94-9,11-11-6.35-16.4,3.21-27.58,4.44-17.67,2.74-35.5,1.75-53.6,3.78-2.29,3.46-16.37,6.55-22,9.28.37-1.23-1-16-1.4-16.68,8.88.28,33.81-7.51,35.65-12.89,7.59,1.35,12.61-4.72,20.49-2.54,5.91,2.46,3.2-2.36,8-2.37,13.64.1,37.38,2,41.22-16.31C896.71,980.87,924.31,1017.65,908.9,1026.9Z" fill="#262521"/><path d="M797.41,1119.28c4.11-17,11-8.48,45.84-20.38,7.25-1.23,9.84-8.7,18.79-5.81.47.18,1.92-.53,2.92-.83-1.1-2.62-7.61-2.28-10.73-1.86-4.21,1.11-4.44,0-4.78-1.84-1.44-5.34,19.35-.21,41-14.18-.44,8.57,2.76,1.49,11.33,4.2l-.06-.1c9.42-.25,9,5.94,13.86,9.48,7.48-15.36-4.53-12.13-15.08-24.67-1.1-.75-1.86-2.38,3.8-2.52,7.52-.19,7.59,3.6,11.76,4.83,3.62-9.24-3.52-17-8.43-24.89-4.58-6.15-13.79,1-19.61,2.66-14.48.17-38,13.59-44.66,10.48-5.7-3.28-2.66,2.12-8,2.85-9.08,1.67-16.37,5.83-26.61,3-1.7-.39-5.53.17-6.26,1-2.63,2.88-9.3,2.76-12.23,1.73.44,7.12,4.17,13.83,4.69,20.94,15.95-1.57,24.81-8.42,39.48-10.62,4.67-.77,10.85.93,12.94-3.52,6.24-1.32,16.2-2.63,23.19-1.56-12.43,12.55-48,12.15-70.59,17.61-1,.17-2.4-.47-5-1.22C795.87,1095.8,796.75,1107.53,797.41,1119.28Zm.9-23.13c-.57-7.34,31.66-2.35,39.59-9.21,3.8-1.77,7.25.26,9.54,2.14-2.67,1.66-7.18,1.65-10.06,2.56-6.12,4.34-13.83-.17-20.74,2.08C811.23,1095.4,799.93,1104.07,798.31,1096.15Z" fill="#262521"/><path d="M803.25,941.73c-7.71,1.72-15.81,2.94-23.43,5-.1-3,.69-6.26-.11-9.09,2.87-.72,9.46-1.61,9-2.11,1.63-5.76,10.49-3.88,15.8-5.43,12.61-2,21.26-8,36.75-7.66-15,13-24.25,9.08-29.45,15.11C808.89,938.9,806.11,940.35,803.25,941.73Z" fill="#262521"/><path d="M893,834.54c-.34-5.45-6.47-7.77-11.92-10.12C873.15,821,868.57,815,873.17,810c8.94-10.49-1.27-22-1.86-33l3.37-.59c-2.12,8,7,12.67,14.47,18.71-4.74-9.78,3.42-29-13.93-32.85-5,.83-5.57,7-7.41,8.4-8.18,1.22-6.94,5.85-10.27,8.76-7.57,13.35-19.25,9.91-34.32,19.55-20.49-.25-.81,14.2-24.69,20-2.22.62-10.93,1-10.06-1.73,7.75-1.66,7.75-6.82,12.44-9.86-6.37-14.49-25.9,5.94-34,13.7a47.28,47.28,0,0,1,1.82,6.94,34,34,0,0,0,9.12-2.29c6.1.06,12.18.7,18.29.84,20.36,3.61,25.54-15.36,44.24-3.72,3.5-3.87,12.09-5.09,12.65-10.33.08-.6,3.94-1.41,6-1.37,4,3.63,5.25,11-2.7,14.06-3.92,5.82-17.67,7.43-23.57,12.4-4.22,6.67-15.93,7.73-26.27,9.89-7.33-1.6-11.47-3.69-10.83,2.49-.28,5.84-9.83,8.27-13.2,13-2.8.81-6.62,0-10,.12.11,4.46.43,8.91.88,13.35.34,3.4.74,6.8,1.13,10.2a198.13,198.13,0,0,1,18.35-8.1c7.63-8.15,24.59-2.87,35.79-6.45,12.73-5.19,24.17-14.61,40.43-15.46-2.91,8.33-10.09,16.48-19.41,23-2.6,2.13-1.54,7-10.08,4.65C821,896.5,797.85,902,776.39,907.79c.4,6.74.74,13.49,1.55,20.2a2.35,2.35,0,0,0,1.27-.8c2.64-6.35,15.37-5.74,21.6-9.06,2.71-5,13.25-2.5,19.66-5,6.32-1.15,12.63-3.29,18.95,0,6.44,1.89,9.07-10.87,16.91-12.53,3.91-1.49,5.82-4.83,8.25-7,2.88.33,7.65,1.36,8.16.86,7.19-9.1,26.65,11.69,33.58,14.31C910,884.25,893.3,859.26,893,834.54Zm-14.54,26.87,2.65-2.21c7.54,2.42,7,8,11.94,11.73C885.92,872.5,883.27,865.75,878.46,861.41Z" fill="#262521"/><path d="M907,1098.72c4.91,1.52,6.44,2.1,10.7,3.53.59-8.93-12.13-15.45-16-23.66-4,5.27-18.85,4.92-21.58,10.4-1.08,7.64-16,4.17-23.11,8.12,7.66,7.22,20,1.49,32.06,1.55-24.46,14.59-56.7,15.93-80.77,27.32.36,2.33,2.1,6.81,2.42,6.76,10-1.81,17.89-7.79,29.14-4.91,6-.88,14.49-6.89,20.38-1.8-6.69,4.54-16.72,6.25-22.72,11.68-6.86,4.62-19.54,5.71-26.83,10.41,7.27,6.38,21-2.15,27.88,3.58-3.84,4-23.09.57-21.23,6.28,4.84,6.7,20.78,5.27,27.45,3.48,12,2.55,45.56-17.32,43-8.21-3.39,15.23,26.5,6.86,19.72-4a6.5,6.5,0,0,1-.46-6.19q3.12,8,6.25,16.07l1.61,0c4-14.33,2.4-29.48,3.86-44.08C919.61,1108.37,913.57,1104.18,907,1098.72Zm-44.76,46.82c-3.38,3.3-7,2.54-12.73,1.27,5.68-2,9-4.16,5-8,10.43,5.16,10.59-2,19.16-.2C871.42,1141.67,865,1142.85,862.25,1145.54Zm15-8.55c-.41-.78-1.48-1.69-1.15-2.34,3.66-6.12-8.08-5.49-12.39-9.49,10.83-4.58,25.37-3.82,36-9.07,13.43-5,13.28,6.11,15.38,12.12C893.56,1115.83,891,1131.46,877.27,1137Z" fill="#262521"/><path d="M903.41,1164.78c-.51,3.56,3,7.94-1.5,10.79-6.37-10.55-6.17,0-16.64.64-4.17-3.62,3.41-16.84-9.07-13.21-7.33,2-12.09,6.65-20.89,7,.47,1.86.14,5.07,1.55,5.36,7.17,1.51,7.6,7.66,16.25,8,.84,0,2.13,1.64,2.17,2.53,1.46,6.91,12.73-1.24,21.18,7.39a43.68,43.68,0,0,0,6.31,2.68c9.29-9.22,12.86-21.81,3.17-31.57Z" fill="#262521"/><path d="M676.84,670.16c7.46-.32,12.87,2.46,16.73,9.19,2,2.43,6.49,2.95,8.15,6.35C692.8,689.38,684.58,675.28,676.84,670.16Z" fill="#262521"/><path d="M719.42,701.37c-5.32-2.86-15-11.71-3.67-12.27C722.07,691.62,729.16,697,719.42,701.37Z" fill="#262521"/><path d="M336.25,734.15c9.94-1.89,17.76,14.81,10.12,11.42-4.12-3.71-11.33-4.57-13.63-9.86Z" fill="#262521"/><path d="M643.3,594.71c5.62,2.91,13.43,1.59,13.25,9.58a35.34,35.34,0,0,1-17.23-7Z" fill="#262521"/><path d="M443.76,644.3c-4.44,3.75-6.18,8.94-11.05,9.48C431.48,647.34,436.39,643.12,443.76,644.3Z" fill="#262521"/><path d="M355.64,630.05c-1,4,0,10-2.74,13.08-7.71.79-.94-10.85,1.44-14.16Z" fill="#262521"/><path d="M371.6,620.13c-10.74,4.91-12.72,4.12-2.64-3A37.56,37.56,0,0,1,371.6,620.13Z" fill="#262521"/><path d="M355.65,606.06c4-2.74,7.23-7.12,12.21-7.32-2.39,3.64-7.15,10.94-12.28,7.24Z" fill="#262521"/><path d="M717,912.9c-4.46,6.91-5.35-4.26-7.68-7.31,4.74-3.3,11.29,2.15,7.51,7.51Z" fill="#262521"/><path d="M708,903.08c-1.34,6-10.93-3.35-12.25-6.15C697.88,892.64,707.55,899.6,708,903.08Z" fill="#262521"/></g></svg>