<svg xmlns="http://www.w3.org/2000/svg" width="1000" height="1550" viewBox="0 0 1000 1550"><path d="M278.47 1248.13s-4.39 99.24 5.35 98.68 110.42-16.78 149-15.66 131.44 8.95 148.22 3.92 111.86 6.71 108.5-.56-8.76-90.41-8.76-90.41zM676.34 601.25C665.45 594.15 526.81 528 526.81 528s-9 42.67-63.91 47.58c-64.83 5.79-86.64-36-90.76-48.14l-87.91 73.8" fill="#828282" stroke="#262521" stroke-linecap="round" stroke-linejoin="round" stroke-width="3"/><path d="M364.37 531.26s.01-.03 0 0zM752.23 1043c-3.83-55.87-22.88-124.63-22.88-124.63s-14.59-306.95-52.89-331.94c-10.88-7.1-142.29-56.21-142.29-56.21s-2.49 55-82.84 55c-65.08 0-82.1-39.23-86.21-51.38a10.79 10.79 0 01-.75-2.59c-1 .65-100.94 62.69-145.44 89.5C174.2 647.71 192.25 945 192.25 945a619.73 619.73 0 00-3.6 128.12c5.53 68.42-1.88 179.2 14.45 197.94l61-1.5s-5.6-14.35-4.65-27c2.27-30.22 5.53-104.27 15.36-135.22 4.76-15 10-36.21 14-54.09-4.18 35.82-24.9 137.23-13.6 162.18 0 13-1.32 43-1.32 43s73.26 22.14 150.26 21.22C561.66 1278 687.51 1253 687.51 1253s-6.69-30-7.46-43.63c9.13-15.76-1.66-67.06-11.13-132.49 15.66 47 33 109.83 34.87 140.44 1.64 26.39 2.89 34.36 2.89 34.36h58.1s4.48-6.67 5.3-18.89-12.27-108.51-17.85-189.79z" fill="#bfbfbf"/><path d="M283.94 954.82c-.61.41-1.44-19.59-4.49-22.14-1.57-1.31-18.89 21.44-21.79 24-.9.81-3.47-13.45-4.81-15-25.68 40.73-10.37 23-26.87 2.33-3.92 2.34-9.14 25.13-12.85 22.38-4.85-4.26-9.06-10.79-15.57-11.44-2.16 10.39 15.37 33.9-6.46 26-3.95 11.74-.35 237.52 3.25 257.46 35.39-8.53 65.36 0 65.36 0 .41-.78 5.63-80.3 9.65-106.42 12.27-49.64 17.54-70.15 19.44-81.35 1.77-4.54-.02-99.04-4.86-95.82z" fill="#f9f9f9"/><path d="M194.41 1157.32c8.56-35.83-3.78-74.1 13-108.25 4.37-14.82 4.93-45.18 27.81-33.74 20.45 3.19 6.73-25.64 17.86-33.59 6-5.87 15-4.26 20.79-10.15 3.93-4 9.34-14.86 9.57-19.05-1.72-3.64-2.46-23.4-4-22.18-2.2 1.72-21.78 26.36-21.78 26.36s-4.44-13.09-5.78-14.65c-7.38 5.43-14.89 24-14.89 24l-10.57-21.23c-15.88 27.78-8.19 27.23-28.81 5.67 0 0 5.19 20 4.78 29.12 0 1-10.1-2.21-13.16-2.8.11 5.89.51 172.06 5.18 180.49z" fill="#e5e5e5"/><path d="M680.94 1148.86C655.75 1047 659.31 941.23 643.7 837.43c-3.05-46.71 7.42-92.75.26-139.17-2-40.71-1.12-112.31-55.1-113.75-16.63-3.55-46-36.34-51.17-20.14-44.53 59.83-131.09 39-156 17.26-2.89-2.25-4.8 18.72-8.08 24.83-8.25 16.27-19.07 30.74-29.48 45.66-10.73 13.25-30.21 13.82-41.44 26.78-7.95 7.83 9.45 12.45 5.5 22.82-10.56 27.66 14.33 121.55-22.55 105.89 9.67 18.91-.56 354.07-10.47 407.85 95.92 27.53 321.3 14.31 405.07-3.46.96-19.27 3.88-42 .7-63.14z" fill="#e5e5e5"/><path d="M326.33 1065.7c-24.33-46.7-6.24-104.59-38.08-148.05 3.47 70.1.44 173.24-15.67 253.07-.32 16.46.34 41.81 2.62 44.74s29.17 6.28 29.17 6.28c1.72-13.87 7.41-26.63 12.85-39.36 8.56-15.48 9.34-98.94 9.11-116.68zM679.94 1211.94c10.4-72.47-14-140.19-22.7-233.54-21.67 69.64-34 168.68-15.7 240.06 4.51-.23 37.29-5.72 38.4-6.52z" fill="#f9f9f9"/><path d="M746.7 1029.73c-11.75-16-4.87-38.69-13.08-55.9-8.15-13.24-16.26-16.57-16.85-34.83-3.12-7.08-11.19-1.78-15.36-7.42-4.52-6.09-6.46-17.49-15.42-15.73-5 2.25-6.87 9.39-12 11.54-28.51 8.47.31-30.34-22.77-31.93 4.06 36.82 11.6 150.92 22 196.61 9.09 27.63 29.88 99.52 30.82 128.55 18-3 50.36-4.69 64.53-1.64-.04.02-16.14-179.16-21.87-189.25z" fill="#f9f9f9"/><path d="M760.29 1132.55c-6.14-44.9-6.51-91.82-21.22-134.57-2.54-12.75.59-27.33-5.86-39.07-9.43-16.18-15.77-16.22-16.9-37-3.07-7.51-11.09-1.87-15.37-7.9-4.52-5.8-5.63-18.17-15.45-16.71-5.07 2.49-6.87 10-12 12.22-28.52 9.33 1-35.77-24.53-34 1.31 83.41 42.08 43.08 38.85 147.9 2.28 12.2 9.49 22 15.93 32.08 6.53 9.48 22.66 17.46 25.7 29.67 7.4 42.3 3.37 90.8-6 132.07.42-.07 41.8.11 45.14 1.7 2.22-5.73-8.78-69.36-8.29-86.39z" fill="#e5e5e5"/><path d="M537.33 737.26c-62.71-3.34-64.75 18.41-98.07 64.29-4.31 5-4.78 11.13-4.55 17.45-2.86 14.49-13 27-23.54 36.86-13.77 11.92-34.56 22.92-34.55 43.48 13.86 39.59 4.6 78.24 3.4 119.58-2 30.74 42.16 30.76 62.31 22.33 17.17-12.1 25.72-33.54 34.34-52.07 17.6-53.9 38.4-21.46 50.93-58.77 16.55-51.53 13.82-107.92 7-160.09 3.38-8.58 15.82-23.63 2.63-29.25" fill="#f9f9f9"/><path d="M198.27 1014.26c-3.33-9.43.08-22.61 1.4-32.22l-8.35-4.17c-3.25 2.29-4.45 215.38 8.82 141.6-1.44-17 3.09-34.89-1-51.42-14.78-25.78 18.48-23.15-.87-53.79z" fill="#aaa"/><path d="M200.57 1013.63c-1.69-5-1.49-10.28-.95-15.41s1.64-10.35 2.36-15.54a2.48 2.48 0 00-1.1-2.7l-8.35-4.18a2.41 2.41 0 00-2.42 0c-1.51 1.14-1.55 3-1.75 4.74-.27 2.39-.41 4.78-.53 7.18-.44 8.13-.63 16.28-.78 24.42q-.3 16.36-.26 32.74 0 17.44.41 34.9c.24 10.22.58 20.45 1.24 30.66.44 6.86.83 13.89 2.28 20.63.37 1.76.82 3.86 2.09 5.22 1.74 1.86 4.13 1 5.41-.84a20.41 20.41 0 002.32-6.27c.45-1.76.84-3.53 1.19-5.31.22-1.08.43-2.17.63-3.26a17.63 17.63 0 000-3.91c-.08-1.63-.11-3.25-.11-4.88 0-12.86 2.06-25.72.28-38.55q-.3-2.16-.75-4.29a15.1 15.1 0 00-1.52-3.8 25.16 25.16 0 01-2-4.89c-.2-.69-.36-1.38-.49-2.08l-.09-.52c.08.51 0 0 0-.08 0-.36-.07-.72-.08-1.09a14.44 14.44 0 010-1.86v-.45c0-.38-.1.59 0 0 .06-.34.12-.68.19-1 .13-.55.29-1.09.47-1.62.08-.24.18-.47.26-.71s.22-.51 0 0c.06-.15.13-.31.2-.46a33 33 0 011.64-3c1.19-2 2.5-3.82 3.6-5.82a21.49 21.49 0 001.92-16.66 46.36 46.36 0 00-5.62-11.88c-1.63-2.6-5.77-.21-4.13 2.41a40.51 40.51 0 015.3 11.35 14.13 14.13 0 01.6 4 17 17 0 010 1.89l-.06.56c0-.07.08-.52 0-.08s-.12.72-.2 1.08c-.12.52-.26 1-.42 1.54-.09.28-.18.55-.29.82l-.15.4c-.22.59.14-.3-.06.14a30.37 30.37 0 01-1.57 3c-1.13 1.91-2.41 3.73-3.51 5.65a19.67 19.67 0 00-2.24 15.37 31.19 31.19 0 002 5.18c.4.85 1 1.69 1.34 2.57a24.42 24.42 0 01.91 4.67 93.93 93.93 0 01.54 18.29c-.28 6.24-.79 12.48-.86 18.73v4.65c0 1.22.31 2.8.26 3.86a22.14 22.14 0 01-.61 3.21 62 62 0 01-2.24 8.9l-.24.65c-.24.65.3-.57-.06.14l-.49.9c-.28.55.31-.35.13-.15a1.42 1.42 0 01-.24.25s.65-.43.24-.22a1.52 1.52 0 01.94-.25 1.6 1.6 0 011.2.51c-.58-.48.19.5-.05 0a3.24 3.24 0 00-.2-.36c-.32-.55.07.24 0 .1-.1-.36-.25-.71-.36-1.07-.29-1-.51-2-.7-3-.11-.63-.22-1.26-.32-1.89-.05-.3-.09-.6-.14-.9s0-.35-.07-.53 0-.17 0-.26c-.07-.53.08.58 0 .15-.43-3.47-.77-6.93-1-10.41-.73-9.5-1.1-19-1.38-28.56-.33-11.27-.49-22.54-.56-33.81q-.09-16.49.12-33c.12-8.88.29-17.76.65-26.63.12-3 .26-6 .47-9 .08-1 .16-2.08.27-3.12l.06-.56v-.28c.06-.53-.11.65 0 .27s.09-.58.15-.87.12-.38.14-.56c0-.43-.3.6-.16.36v-.06a2.45 2.45 0 01-.8.8h-2.42l8.35 4.18-1.09-2.71c-.79 5.62-1.94 11.18-2.53 16.82s-.7 11.36 1.12 16.68c1.1 2.94 5.67 1.69 4.67-1.23zM287.26 1052c-.63-47.35-2.32-97.19-2.32-97.19-23.49 33.93-5.74 42.37-24 69.86-1.3 5.39 2.79 10.69 5.79 15.77 8.6 10.4 7.67 35.11 10.42 52.92 2.24-7.47 9.33-39.13 10.11-41.36z" fill="#aaa"/><path d="M289.65 1052q-.36-26.71-1.06-53.43-.46-18.54-1-37.08-.1-3.35-.22-6.68a2.41 2.41 0 00-4.46-1.21c-6 8.73-11.09 18.29-13.07 28.79a102.65 102.65 0 00-1.32 11.18c-.13 1.68-.25 3.36-.42 5-.19 1.92-.3 2.82-.64 4.72a47.28 47.28 0 01-3.48 11.2 62.58 62.58 0 01-3.58 6.65c-.88 1.43-1.74 2.56-1.94 4.28a12.69 12.69 0 00.31 4.55 31.07 31.07 0 004.12 8.64c.77 1.24 1.49 2.52 2.37 3.68a25.58 25.58 0 011.55 2.43c2.13 3.88 3.19 8.41 4 12.81 2.21 12 2.25 24.34 4.1 36.42.37 2.46 4 2.09 4.61 0 1.61-5.46 2.83-11 4.15-16.58 1.55-6.53 3.06-13.07 4.62-19.59.41-1.72.74-3.51 1.32-5.19 1-2.92-3.62-4.17-4.62-1.27-.47 1.38-.75 2.84-1.09 4.26-.69 2.85-1.36 5.72-2 8.58-1.62 6.88-3.22 13.76-4.91 20.62-.65 2.64-1.28 5.29-2.05 7.9h4.61c-1.64-10.72-1.88-21.61-3.43-32.35a63.82 63.82 0 00-3.34-14c-1.8-4.64-4.89-8.44-7.31-12.76a21.77 21.77 0 01-1.78-3.86 7.36 7.36 0 01-.44-4 17.73 17.73 0 011.88-3.06c.66-1.1 1.28-2.23 1.87-3.37a53.22 53.22 0 004.54-12 74.38 74.38 0 001.58-10.93c.13-1.64.24-3.29.38-4.94.07-.84.15-1.68.23-2.52l.15-1.34c.06-.51.12-.92.14-1.1 1.62-11.24 6.66-21.19 13.06-30.47l-4.46-1.2q.33 9.81.61 19.64.68 23.24 1.17 46.49.32 15.52.54 31.06c-.03 3.11 4.75 3.12 4.71.03zM317.64 671.06l-31.28 7.61c-1.29 6.72 2.24 12.42 4.59 18.55 7.91 20.47 6.31 43 3.33 64.36-6.89 19.43-7.17 131.7-2 152.33 25.43 5 12.12-72.75 16.59-89.16 5.51-49.75 41.97-107.07 8.77-153.69z" fill="#aaa"/><path d="M316.77 667.9l-27.35 6.65-3.93 1a3.2 3.2 0 00-2.29 2.28 21.87 21.87 0 00.5 9.85 72.93 72.93 0 003.3 8.42 81.06 81.06 0 015.15 18.13c2.08 12.44 1.45 25.25.08 37.73-.18 1.57-.36 3.14-.56 4.71a35.2 35.2 0 01-.57 4.12c-.18.71-.44 1.4-.62 2.1-.48 1.88-.83 3.78-1.13 5.69-.91 5.7-1.47 11.47-1.93 17.22-1.19 15.13-1.65 30.31-1.86 45.47-.23 15.94-.15 31.88.4 47.81.23 6.48.53 13 1 19.44a135.75 135.75 0 001.63 14.08c.14.73.29 1.46.47 2.18a3.18 3.18 0 002.29 2.29 13.42 13.42 0 008.23-.77 13.65 13.65 0 005.4-4.71c3.22-4.48 4.48-10.35 5.28-15.71 2.2-14.77 1.46-29.87 1.05-44.74-.17-6.25-.4-12.52-.14-18.77.06-1.2.13-2.4.25-3.6 0-.26.05-.52.08-.78a2.66 2.66 0 000-.28c.06-.58-.14.91 0 .34s.15-1 .25-1.47c.43-2.05.59-4 .85-5.74q.61-4.11 1.43-8.19c4.57-23 12.93-45.12 17.53-68.16 2.26-11.32 3.7-23 2.94-34.5a79.81 79.81 0 00-9.26-33 76.16 76.16 0 00-4.78-7.63 3.36 3.36 0 00-4.48-1.18 3.3 3.3 0 00-1.18 4.48 71.18 71.18 0 0112.44 30.69c1.57 10.1.93 21.85-.68 32-3.63 22.89-11.7 44.74-17 67.22-1.26 5.33-2.37 10.69-3.18 16.11-.22 1.45-.42 2.91-.6 4.37 0 .3-.08.61-.11.91-.13 1.09.18-.31 0 .07a2.37 2.37 0 00-.15.65 33.79 33.79 0 00-.53 3.47 123.56 123.56 0 00-.33 16.33c.3 14.5 1.17 29.08 0 43.58-.13 1.68-.31 3.37-.51 5l-.06.45c.12-1 0-.19 0 0-.06.36-.11.72-.17 1.08-.12.76-.25 1.53-.39 2.29a45.92 45.92 0 01-2.25 8c-.22.58.3-.62.11-.24-.07.12-.11.25-.17.38s-.23.49-.35.73c-.26.53-.55 1-.86 1.55l-.45.68-.17.24c-.38.56.13-.25.17-.21a9.72 9.72 0 01-1 1.13c-.17.17-.36.32-.53.49-.63.59.62-.4 0 0-.4.25-.79.5-1.2.72-.77.41.4-.11.08 0l-.61.21c-.25.07-.5.12-.75.18-.92.23.7 0-.05 0a13.09 13.09 0 01-1.4 0l-.73-.06c-.59 0 .84.22.27 0-.14 0-.31-.05-.46-.08l2.22 2.4c-.4-1.63-.67-3.28-.91-4.94 0-.12 0-.24-.05-.35-.08-.57.1.78.05.36l-.09-.74-.21-1.72c-.13-1.2-.25-2.41-.36-3.61-.56-6.06-.89-12.13-1.14-18.21-.66-15.55-.8-31.12-.66-46.68s.54-31 1.58-46.54c.22-3.22.47-6.43.77-9.65.14-1.42.28-2.85.44-4.27.07-.64.14-1.27.22-1.91a8.75 8.75 0 01.25-2s-.12.88-.05.34c0-.17.05-.34.07-.51l.12-.84c.09-.59.18-1.18.28-1.77.16-1 .34-2 .55-3 .33-1.66 1-3.3 1.24-5a174 174 0 002.25-38.34 99.65 99.65 0 00-3-19.11 77.62 77.62 0 00-3-9c-1.11-2.76-2.41-5.44-3.35-8.26a15.49 15.49 0 01-.93-7.75l-2.29 2.29 27.35-6.66 3.93-.95a3.28 3.28 0 00-1.74-6.32zM449.74 606.05c.51 11 10.72 50.83 9.06 61.46-4.7 16.62-91.41 34.06-65.89 48.44 11.93 4.72 25 .51 37.78-.66 65.14-1.1 18 62.39 17.45 74.58 10 6.48 43.49-43.76 59.06-49.29 7.33-4.71 18.84-6.62 24.65 1.24 2.67 3.74 3.54 9.49 7.95 10.8 9.6 1.48 10.11-11.14 9.08-18-2.25-23 32.64-4.25 21.45-27.37-6.65-10.64-19-16-28.93-23.63-30.15-19.31-24.61-62.37-41.21-86.34-15.13 6.71-33.87 8.71-50.45 8.74" fill="#aaa"/><path d="M447.22 606.05a113.31 113.31 0 002.27 15.09c1.28 6.81 2.66 13.61 3.91 20.43 1.17 6.33 2.28 12.42 2.83 18.5a43 43 0 01.16 6.62c0 .34-.24.63 0 0 0 0-.11.41-.1.41s-.13.32-.14.38c.14-.73.16-.33 0 0s-.28.51-.44.76-.18.24-.26.37c-.33.51.37-.4 0 .06s-1 1.1-1.52 1.6c-.29.28-.6.55-.91.81l-.46.38c-.59.48.19-.13-.22.17a56.47 56.47 0 01-5 3.27 137.1 137.1 0 01-13 6.49c-9.81 4.41-19.87 8.28-29.6 12.86a85.8 85.8 0 00-11.47 6.22c-2.59 1.74-5.45 3.87-6.78 6.8a7.18 7.18 0 001.82 8.43 16 16 0 007.21 3.76 45.05 45.05 0 0015.57.95c5.21-.47 10.36-1.43 15.55-2.11a57 57 0 0112.52-.21 45.26 45.26 0 018.77 1.54 31.62 31.62 0 013.66 1.26c-.49-.21.23.1.37.17l.75.35c.54.27 1.07.55 1.58.86s.92.56 1.37.87l.6.43c.29.21-.35-.28-.07-.06l.42.34a18.73 18.73 0 012.11 2.07c.17.19.32.39.49.58s-.27-.41.11.16c.28.41.56.81.82 1.24s.44.76.63 1.15c.1.19.2.39.29.58s.09.2.13.3c.25.53-.2-.54 0 0a23 23 0 01.86 2.67c.12.46.21.92.3 1.39 0 .22.07.44.11.67.1.55 0-.44 0 .25a33.49 33.49 0 01.09 6.09q-.06.78-.15 1.56l-.09.74c.09-.71 0 .26-.07.45-.16 1.07-.36 2.14-.59 3.2-.48 2.22-1.08 4.42-1.76 6.59s-1.47 4.41-2.3 6.58c-.41 1.06-.84 2.12-1.27 3.18l-.61 1.47c.23-.55-.07.17-.13.32l-.39.9c-1.67 3.86-3.45 7.66-5.18 11.48a78.14 78.14 0 00-3.71 9 13.78 13.78 0 00-.66 3.37 2.51 2.51 0 001.25 2.17c2.82 1.78 6.28.65 9-.82a50.81 50.81 0 009.95-7.83c8.12-7.66 15.4-16.17 23.09-24.25a155.51 155.51 0 0111.19-10.9c.41-.36.83-.7 1.25-1l.57-.46c.14-.11.82-.64.37-.3.75-.57 1.52-1.13 2.32-1.64a21.68 21.68 0 012.23-1.31l.48-.23c.29-.14.56-.22.07 0a11.43 11.43 0 001.92-1c5.11-3 12.31-4.79 17.57-1.66 2.87 1.7 4.1 4.6 5.5 7.5s3.56 6.33 7.08 7a9.41 9.41 0 008.43-2.5 14 14 0 003.44-7.41 32.5 32.5 0 00.35-8.47c0-.55-.11-1.09-.18-1.63 0-.27-.1-.59-.12-.89v-.08c0-.35 0-.69-.05-1a15.11 15.11 0 010-1.78c0-.19.1-.81 0-.3 0-.3.1-.6.17-.9.11-.47.26-.91.41-1.37s-.22.37.06-.13c.13-.22.24-.45.37-.67s.21-.33.31-.49c.31-.5-.3.28.11-.13s.58-.62.9-.9.43-.32 0 0c.18-.12.35-.25.53-.36a11.11 11.11 0 011.12-.63l.51-.24-.22.1.3-.12c.42-.14.84-.3 1.26-.43 3.34-1 6.85-1.14 10.23-1.94s6.53-2.47 7.37-6c1.31-5.4-2.34-11.35-5.65-15.21-5.23-6.11-12.24-10.38-18.89-14.75-3.2-2.1-6.31-4.32-9.44-6.53a45.31 45.31 0 01-7.21-6.42c-8.58-9.41-12.7-21.83-16-34s-5.65-25-11.14-36.52a51.87 51.87 0 00-4.18-7.31 2.6 2.6 0 00-3.44-.9c-15.3 6.72-32.64 8.35-49.18 8.4-3.24 0-3.25 5 0 5 17.5-.05 35.56-2 51.72-9.08l-3.45-.91c6.8 9.88 9.53 21.8 12.45 33.39 3.12 12.42 6.23 25.19 12.87 36.29a53.22 53.22 0 0012.61 14.57c6 4.73 12.63 8.68 18.94 13a60.67 60.67 0 018.91 7.14 31.93 31.93 0 013.5 4.11 15.85 15.85 0 012 3.86 16.82 16.82 0 01.8 3.03c-.1-.66 0 .4 0 .67v.6c0 .19.16-.54 0 0a4.23 4.23 0 00-.13.51c-.11.47 0-.08 0-.08-.2.28-.68.86-.14.35a7.49 7.49 0 00-.63.63s.5-.3.08-.06c-.17.09-.32.2-.48.3s-1 .46-.58.3-.19.07-.28.09-.35.13-.53.18a22.44 22.44 0 01-2.29.55c-1.64.32-3.31.53-5 .81-3.62.59-7.35 1.54-10.13 4.08a11.23 11.23 0 00-3.1 5.1 15.75 15.75 0 00-.57 3.54v1.82l.06.93c0 .31.08.62.12.94.07.49 0-.22 0 .1a32.14 32.14 0 01.08 7.78c0-.35-.06.4-.08.51-.05.3-.11.6-.17.89a18.13 18.13 0 01-.55 1.95 5 5 0 01-.52 1.16c-.15.27-.31.53-.48.79 0 0-.24.32-.07.11s-.19.22-.23.26a7.41 7.41 0 01-.64.61c.35-.29-.16.1-.29.18s-.74.37-.3.19a5.69 5.69 0 01-.89.27 3.57 3.57 0 01-2.85-.42c-2.22-1.62-3.19-5.33-4.6-7.81-3.73-6.57-11.09-8.68-18.2-7.59a28.08 28.08 0 00-9.67 3.45c-.17.1-.84.55-.7.47s-.19.09-.29.13c-.52.23-1 .43-1.55.68a20.66 20.66 0 00-2.14 1.22 67.54 67.54 0 00-10.44 8.66c-8 7.72-15.23 16.14-22.9 24.16a136.36 136.36 0 01-10.69 10.27l-1.11.9-.31.25s.34-.27.12-.09l-.69.51c-.7.52-1.43 1-2.18 1.48s-1.34.72-2 1.07c-.33.17.56-.19 0 0l-.44.16c-.31.1-.62.17-.94.26-.59.15.57 0-.22 0h-.78c.28 0 .62.16.23 0a1.28 1.28 0 00-.32-.09c-.5-.07.37.18.15.06l-.34-.19 1.25 2.18v-.28c0-.48-.14.66 0 .26.06-.24.09-.49.14-.73.12-.53.28-1.06.45-1.58s.44-1.27.68-1.9c.12-.32.24-.63.37-.95s.61-1.44.27-.65c1.5-3.48 3.11-6.91 4.67-10.36 3.8-8.36 7.54-16.94 9.39-26 1.72-8.42 1.75-17.68-3.85-24.71-7.19-9-20.69-10.33-31.36-10.23a60 60 0 00-7.78.89c-2.6.37-5.19.79-7.79 1.15a58.29 58.29 0 01-15.21.54 21.39 21.39 0 01-6.72-1.73 8.61 8.61 0 01-1-.65c-.16-.11-.31-.23-.47-.33-.33-.21.16.12.19.15l-.31-.25c-.24-.21-.48-.43-.71-.66s-.22-.26-.34-.38c-.32-.31.3.53 0 .06a6.52 6.52 0 00-.43-.72c-.24-.33.14.57.07.18a2.92 2.92 0 00-.13-.42 1.7 1.7 0 00-.07-.34c.11.11 0 .71 0 .24a2.41 2.41 0 000-.38c0-.5.11 0 0 .2a2.79 2.79 0 00.18-.73c.08-.34.31-.31-.08.17a3.36 3.36 0 00.2-.43l.42-.7c.08-.12.18-.23.25-.35-.44.72-.14.18 0 0a17.46 17.46 0 011.48-1.5l.83-.71c.41-.34.27-.2.12-.09l.54-.4c.76-.55 1.54-1.07 2.33-1.57 1.8-1.13 3.67-2.15 5.55-3.12 9.33-4.8 19.16-8.59 28.79-12.74 8.54-3.68 17.7-7.36 25-13.32 2.65-2.17 4.86-4.83 5.14-8.35.41-5.21-.58-10.63-1.38-15.76-2-13.13-5.12-26.06-7.17-39.19-.09-.59-.18-1.18-.26-1.77l-.06-.39c0 .07.07.56 0 .09l-.09-.73c-.1-.88-.19-1.77-.23-2.66-.16-3.22-5.2-3.24-5 0zM584.08 579.41c34-7.69 99.37 12.78 83.86 57.78-4.24 9.56-13.71 17-14.59 27.4.25 3-2.18 4.86-4.94 3.24-15.31-8.77-.94-21.48-20.57-30.18-5.72-11.31-.6-28.68-14.93-34.65-8.61-9.32-39.58-3.84-29.75-22.73" fill="#aaa"/><path d="M584.75 581.84c1.28-.29 2.57-.53 3.87-.73l1-.16c-.53.08.38 0 .49-.06.71-.08 1.42-.16 2.13-.22a81.89 81.89 0 018.72-.32c3 0 6 .24 9 .57s5.75.76 8.86 1.39c12.22 2.47 23.85 6.76 33.82 14.33a43.35 43.35 0 0110.72 11.76 36.61 36.61 0 011.87 3.63 2.14 2.14 0 01.2.47c.13.33.26.65.38 1 .24.66.46 1.33.66 2a32.86 32.86 0 01.89 3.93 14.32 14.32 0 01.19 1.61c.07.73.11 1.47.13 2.21a32.45 32.45 0 01-.89 8.58 26.49 26.49 0 01-1.41 4.78 37.28 37.28 0 01-3.16 5.48c-2.42 3.63-5.17 7-7.4 10.8a33.5 33.5 0 00-2.78 5.79 21.2 21.2 0 00-.85 2.92c-.26 1.24-.25 2.48-.43 3.71-.05.39-.12.58-.45.69.41-.14-.11-.1 0-.06-.44-.21-.89-.38-1.33-.64a15.09 15.09 0 01-3.78-3.3 13.62 13.62 0 01-1.68-3.07 22.71 22.71 0 01-.91-3.81 45.55 45.55 0 00-1.52-8 17.93 17.93 0 00-6.25-8.39 29.44 29.44 0 00-5.73-3.31l.9.9a32.93 32.93 0 01-2.52-9c-.55-3.37-.88-6.77-1.54-10.12a27.34 27.34 0 00-3.37-9.27 18.48 18.48 0 00-7.93-6.92c-.48-.23.24.26-.2-.07a1.9 1.9 0 01-.25-.24l-.54-.47A17.4 17.4 0 00612 599a21.26 21.26 0 00-3.41-1.7 48.08 48.08 0 00-7.18-2.21c-2.54-.61-5.11-1.14-7.65-1.78-1.19-.3-2.38-.62-3.55-1-.52-.17-1-.35-1.54-.54-.17-.07-.82-.35-.3-.12l-.86-.4a13.43 13.43 0 01-1.48-.84l-.35-.25c-.39-.25.27.24 0 0s-.38-.31-.56-.48-.36-.38-.54-.58-.26-.37.1.15c-.09-.13-.19-.25-.27-.39s-.22-.41-.34-.61c-.24-.41.07.41-.06-.19-.06-.26-.12-.54-.2-.78-.13-.4 0 .09 0 .17v-.51a7.45 7.45 0 010-.82 3.73 3.73 0 010-.47c0 .34-.05.28 0 0a15.17 15.17 0 011.49-4.11c1.48-2.88-2.86-5.43-4.35-2.55-1.91 3.72-3.31 8.26-1.08 12.17 1.82 3.21 5.47 4.85 8.82 6 3.87 1.28 7.91 2 11.87 3a49.88 49.88 0 015.74 1.73l.59.23c.35.14-.38-.17 0 0l.28.13c.42.19.84.39 1.25.61s.72.41 1.07.64l.46.31c.48.31-.21-.22.22.16s.56.52.84.78a9.38 9.38 0 002.13 1.23 12.33 12.33 0 013 2.12 14.72 14.72 0 013.54 5.48c1.83 4.95 2.1 10.32 3 15.49a36.39 36.39 0 001.93 7.55 18.07 18.07 0 00.87 2 4.62 4.62 0 002.48 1.94 24.25 24.25 0 014.09 2.46 15.79 15.79 0 011.49 1.35c.21.2.4.41.59.63a7 7 0 01.47.56 13 13 0 01.9 1.41c.12.22.23.44.34.66l.15.33c.19.4-.19-.53.08.18a28.09 28.09 0 011.34 6c.65 4.67 1.7 9.06 5.16 12.52 2.15 2.15 5.42 4.74 8.65 4.28a5.31 5.31 0 003.94-2.8c.79-1.54.58-3.16.9-4.8 1.23-6.4 5.67-11.6 9.31-16.8a38.53 38.53 0 005.1-8.89 39.9 39.9 0 001.82-7.39 36.53 36.53 0 00-5.56-26c-5.15-7.71-12.73-13.53-20.87-17.8a96.76 96.76 0 00-28-9.38 93.48 93.48 0 00-28-1.09c-2.14.27-4.27.61-6.38 1.08-3.16.71-1.82 5.57 1.34 4.86z" fill="#aaa"/><path d="M589.13 743.82c.33-10.29-8.9-18.09-13-27.55-1.47-3.43-5.39-17.11-2.69-19.68 23.22-8.74 52.53 51.23 60.64 68.89 16.33 48.6 10.22 92.62-.75 139.62-1.43 11.3-11.76 13.09-13.44 25.66-3.53 11.74-27.71 33.32-40.06 30.34-9.24-7.82-5.53-21.23-4.07-31.65-.76-26.61 4.41-51.83 11.24-77.45 7.43-39.93-12.89-78.06-25.91-115.24-.7-11.54 11.94-12.76 18.17-4.5 3.5 4 6.09 9.13 10.74 11.78" fill="#c6c6c6"/><path d="M591.14 743.82c.24-11.39-9.39-18.78-13.26-28.67a55.48 55.48 0 01-3-11.26 26.3 26.3 0 01-.29-2.64v-1.29c0-.24.09-1.2.06-1a7 7 0 01.24-.9c-.15.47 0-.07.08-.09-.31.08.08 1-.75.52a10.77 10.77 0 002-.55 6.93 6.93 0 011.54-.16 14.47 14.47 0 012.08.08l.62.1 1 .21a20 20 0 012.12.66 17.36 17.36 0 011.65.72c.73.36 1.44.76 2.14 1.18a35.1 35.1 0 013.87 2.71c6.13 4.94 11.17 11.21 15.72 17.6 9.17 12.91 16.71 27 23.49 41.29.55 1.16 1.09 2.32 1.63 3.48a60.81 60.81 0 012.76 8.71 188.45 188.45 0 014.68 20.58 199.34 199.34 0 012.48 39.84 283.84 283.84 0 01-4.31 39.44c-1.17 6.71-2.51 13.39-4 20-.73 3.37-1.66 6.74-2.29 10.13a18.49 18.49 0 01-2.07 6.22c-2.09 3.56-5.27 6.34-7.6 9.74a22.69 22.69 0 00-3 6.35c-.57 1.9-.78 3.9-1.56 5.5a41.15 41.15 0 01-6.69 9.46 72.76 72.76 0 01-10.12 9.33 49 49 0 01-11.09 6.61 21.9 21.9 0 01-5.27 1.5 14.88 14.88 0 01-2 .09c-.15 0-1-.07-.75 0a6.18 6.18 0 01-.62-.12l.39.22c-.19-.17-.38-.34-.56-.52-7.46-7.24-4.11-19.27-2.8-28.24a29.31 29.31 0 00.09-4.78v-5.58c.06-3.53.23-7.06.48-10.57.52-7 1.38-13.92 2.54-20.82s2.58-13.81 4.17-20.65 3.76-13.52 4.69-20.43c3.58-26.3-4.29-52.17-13.41-76.55-2.3-6.15-4.69-12.26-7-18.39a731.45 731.45 0 01-3.5-9.24q-.86-2.29-1.69-4.6a9.73 9.73 0 01-.94-4c.2-3.37 2.37-5.84 5.44-6.1 3.77-.32 7 1.84 9.31 4.71 3.44 4.25 6.31 9.25 11.14 12.1 2.23 1.31 4.26-2.16 2-3.47-5-2.94-7.48-8.56-11.33-12.66a14.34 14.34 0 00-11.15-4.7 9.9 9.9 0 00-8.92 7 13 13 0 00-.54 3.16 11.08 11.08 0 00.93 4.63q1.69 4.74 3.49 9.44c9.58 25.28 21 50.86 22.85 78.19a99.08 99.08 0 01-.63 20.15 97.32 97.32 0 01-2.31 10.39q-1.38 5.39-2.62 10.81a269.14 269.14 0 00-6.65 43.07c-.23 3.7-.37 7.4-.38 11.1v5.09a21.78 21.78 0 01-.36 4.1c-.85 5.34-1.88 10.78-1.5 16.21.37 5.28 2.2 10.46 6.27 14 1.46 1.29 3.79 1.23 5.64 1a23.54 23.54 0 005.74-1.36c8.77-3.24 16.57-9.57 22.9-16.33a50.71 50.71 0 007.63-10.15 17.82 17.82 0 002-5.35 19.13 19.13 0 012.66-6.8c2.27-3.59 5.55-6.41 7.8-10a19.08 19.08 0 002.62-6.62c.62-3.35 1.46-6.66 2.2-10a404.93 404.93 0 007.13-41.2c3.21-28 1.79-56.41-6.21-83.57a61.34 61.34 0 00-2.88-8.48c-.58-1.25-1.16-2.49-1.75-3.73q-2.19-4.61-4.51-9.14c-3.91-7.66-8.08-15.2-12.65-22.48a142.61 142.61 0 00-15.86-21.34c-4.77-5.13-10.49-10.27-17.35-12.29a16.89 16.89 0 00-8.84-.28 5.27 5.27 0 00-2.46 1.08 4.77 4.77 0 00-1.13 2.21 15.65 15.65 0 00-.06 5.75 59.75 59.75 0 003 12.28c1.79 5 5 9.32 7.86 13.73s5.64 9.14 5.52 14.58c0 2.59 4 2.59 4 0zM436.16 806.11c6.12 30.12-9.88 62.08-44 58.94 33.47-16.39 32.55-21.14 39.67-56.14.6-1.89 2.29-4.18 4-3.25" fill="#c6c6c6"/><path d="M434.22 806.64a57.62 57.62 0 01-2.63 32.66c-3.73 9.3-10.79 17.41-20.2 21.22a41.24 41.24 0 01-19.21 2.48l1 3.75a173 173 0 0016.58-9 49.65 49.65 0 0010.41-8.35c5.8-6.39 8.23-14.64 10.08-22.89.7-3.12 1.34-6.26 2-9.39.38-1.88.75-3.75 1.13-5.63A12.25 12.25 0 01434 809a4.05 4.05 0 01.77-1.19 1.39 1.39 0 00.21-.21c.22-.38.32 0-.07-.16a2.08 2.08 0 002.75-.72 2 2 0 00-.72-2.75 4.28 4.28 0 00-5.24 1.25 10.65 10.65 0 00-2.16 5.15c-.65 3.24-1.29 6.49-2 9.73a129.24 129.24 0 01-3.65 14.79 33.94 33.94 0 01-5.17 10.11c.21-.28-.22.27-.27.33l-.42.51c-.33.39-.67.77-1 1.15-.68.72-1.4 1.42-2.13 2.09a44.23 44.23 0 01-5.14 4 152.65 152.65 0 01-18.58 10.26c-2 .95-.78 3.58 1 3.74 12 1.07 24-2.28 32.8-10.72 8.27-7.94 12.68-19.05 14-30.27a64.74 64.74 0 00-.91-20.5c-.51-2.53-4.39-1.46-3.88 1.07zM495.79 931.89c-9.9-2.78-32.32-17.11-39.81-8-6.8 4.63-23.64-.49-22.66 12 2.1 11.18 71.17 13.47 62-2.83" fill="#c6c6c6"/><path d="M496.32 930a63 63 0 01-8.05-3.15c-3.46-1.51-6.9-3.06-10.41-4.43a53.64 53.64 0 00-10.12-3.06c-2.95-.52-6.17-.76-9 .3a9.32 9.32 0 00-3.7 2.33 3.19 3.19 0 01-1.25.86 14.1 14.1 0 01-1.54.52 56.1 56.1 0 01-8.31 1.26c-2.83.36-5.8.78-8.3 2.25a8.8 8.8 0 00-4.29 7.12 6.27 6.27 0 001.69 5.29 12.68 12.68 0 003.9 2.6 48.63 48.63 0 0012.6 3.49 107.84 107.84 0 0032.48.51c5.65-.82 17.83-3.2 16-11.46A9.32 9.32 0 00497 932c-1.26-2.26-4.73-.24-3.47 2l.23.45c.26.47-.05-.22 0 .08s.19.63.28.95c.14.48 0-.31 0 0v.79c0-.67 0-.18 0 0s-.08.25-.11.37c-.09.43.14-.23 0 0s-.3.51-.47.76c.35-.52-.12.13-.3.31l-.33.31c-.07.06-.51.4-.25.21s-.18.12-.23.16l-.48.3c-.32.2-.65.38-1 .55l-.51.25c-.06 0-.62.27-.35.16s-.32.13-.39.15l-.66.25a39.54 39.54 0 01-5.78 1.49 61.18 61.18 0 01-6.61.85q-3.75.3-7.52.33a119 119 0 01-15.45-.86c-1-.13-2.07-.28-3.31-.48s-2.21-.39-3.31-.62a49.6 49.6 0 01-5.89-1.57c-.43-.14-.85-.29-1.28-.46l-.56-.22h.07l-.33-.15a18.89 18.89 0 01-2-1l-.77-.53c.53.39-.24-.22-.39-.38a3.57 3.57 0 00-.27-.28c-.32-.3.14.23 0 0s-.25-.43-.38-.63c.22.35 0 .33 0 .06 0 0-.07-.49 0-.08a8.19 8.19 0 01.06-2 8.65 8.65 0 01.41-1.38 3.06 3.06 0 01.85-1.19 6.69 6.69 0 012.32-1.38 22.49 22.49 0 013.79-.91c2.6-.42 5.55-.6 8.29-1.08a19.13 19.13 0 003.59-.93 9.78 9.78 0 003.45-2.2 4.11 4.11 0 011.12-.79 5.54 5.54 0 011.51-.58 11.25 11.25 0 013.52-.28 33.15 33.15 0 019.06 2.05c6.31 2.14 12.24 5.19 18.43 7.63 1.16.46 2.34.89 3.54 1.24 2.49.71 3.56-3.17 1.07-3.88zM376.74 906.32c18.56 7.38 6.75 19.22 10.35 30 1.92 3.59 6.75 5.43 7.46 9.44-1.71 11.19-8.53 25.9 9 27.12 10.71 2.31 3.09 26.28-5.68 20.17-6.59-5.32-16.84 1.21-14.83 9.43.67 3 2.79 5.73 2.4 8.76-11.16 21.49-1.21 27.33-6.11 35.33-4 2.63-7.75-1.88-10.17-4.69-5.11-5.24-12.62-7.17-19.3-10.17-23.23-10-24.87-27-21.11-49.09 12.79-13.24 16.84 18.74 46.5-24.3 11.22-13.07-8.52-27.59 1-51.52" fill="#c6c6c6"/><path d="M376.21 908.26c3 1.22 6.31 2.94 8 5.83a11.06 11.06 0 011.22 6.78c-.18 2.66-.72 5.18-1 7.92s-.37 6 .87 8.52a16.63 16.63 0 004 4.53c1.4 1.27 2.85 2.52 3.25 4.44v-1.07c-1 6.52-3.66 13.25-2.56 19.91a10.64 10.64 0 005 7.46 15.33 15.33 0 005.33 1.9c1 .18 2.06.18 3 .42a2.4 2.4 0 01.38.12c.58.19-.18-.1.15.05a5.08 5.08 0 01.87.51c-.29-.21.26.23.35.32s.55.66.32.35a5.52 5.52 0 01.48.77 2.55 2.55 0 01.17.33c.2.41-.06-.19.09.21a8.76 8.76 0 01.56 3.62 15.86 15.86 0 01-2 7.44 8.32 8.32 0 01-2.05 2.57c-.41.37.2-.13-.06.06l-.35.24a5.84 5.84 0 01-.65.35c.14-.06 0 0-.34.1l-.38.08h-.08c-.17 0-.81-.08-.34 0a5.39 5.39 0 01-.81-.23c.36.14-.31-.16-.43-.23-.41-.24-.77-.56-1.18-.82a10.5 10.5 0 00-5.84-1.64 12 12 0 00-10.45 6.9 10.93 10.93 0 00-.65 7c.64 2.76 2.6 5.31 2.32 8.23l.28-1c-3.14 6.1-5.62 12.67-5.83 19.59a38.72 38.72 0 00.38 6.18l.09.67c0 .14.14 1.07.08.65.06.45.12.9.17 1.35a20.65 20.65 0 01.18 2.36v1.3c0 .43.05-.22 0 .26 0 .22-.08.43-.13.64a9.53 9.53 0 01-.41 1.28c-.09.21 0-.06 0-.08s-.12.27-.19.4-.27.5-.41.74l.72-.72c-2.59 1.59-5.1-1.39-6.69-3.17a28 28 0 00-8.18-6.32c-6.18-3.21-13-5-19-8.61a31.28 31.28 0 01-11.2-10.87 31.67 31.67 0 01-3.93-13.6 79.05 79.05 0 011.34-19.11l-.52.89a18 18 0 011.43-1.33c.07-.07.48-.36.05-.05l.35-.25c.25-.17.51-.34.78-.49s.44-.22.66-.34c.38-.2-.45.16-.05 0 .11 0 .21-.09.32-.12a11.41 11.41 0 011.31-.33c-.35.07-.24 0 .14 0h1.22c.65 0-.37-.09.27 0a21.51 21.51 0 012.54.66c4.21 1.36 8.18 2.59 12.62 1.38a24.83 24.83 0 008.85-4.89 68.21 68.21 0 0010.9-11.62c2.1-2.7 4.06-5.52 6.1-8.26a15.59 15.59 0 002.69-5.63c1-4 .27-8.11-.72-12-1.27-5-3-9.94-3.7-15.1a36.33 36.33 0 012.25-18.42 2 2 0 00-1.4-2.47 2.07 2.07 0 00-2.48 1.4c-3.19 8.15-3.33 16.68-1.38 25.13 1.4 6 4.22 12.26 3.85 18.38a13.16 13.16 0 01-3.1 7.33c-3.19 4.13-6 8.44-9.54 12.34a47.79 47.79 0 01-7.42 6.91 24.21 24.21 0 01-3.15 1.94l-.82.4-.32.14c.36-.15.08 0 0 0a14.68 14.68 0 01-1.54.52c-.43.13-.86.22-1.3.31-.22 0-.63.09-.17 0l-.69.07a15.43 15.43 0 01-2.45 0h-.07l-.6-.1c-.37-.07-.74-.15-1.1-.25-.69-.17-1.37-.38-2.05-.6-2.77-.92-5.49-2-8.46-1.47a10.21 10.21 0 00-4.38 1.92c-.94.7-2.46 1.72-2.81 2.89a39.59 39.59 0 00-.93 6.25c-.93 7.34-1.2 15 .84 22.2A32.68 32.68 0 00339.1 1028a57.08 57.08 0 0011.85 6.37c4.51 1.89 9.23 3.43 13.34 6.13a27.14 27.14 0 014.93 4.52 13.87 13.87 0 005.49 4c2 .66 5.06.44 6.33-1.43a10.57 10.57 0 001.4-3.38 18.14 18.14 0 000-6.53c-.12-.91-.12-.88-.22-1.69-.08-.61-.15-1.21-.21-1.82a31.71 31.71 0 012.21-15.5c.44-1.16.91-2.3 1.43-3.43.61-1.32 1.64-2.74 1.76-4.2.21-2.57-1-4.85-1.89-7.18-1.27-3.34-.88-6.73 2.08-9a7.3 7.3 0 018.79-.35 6.85 6.85 0 007.48.75 12 12 0 004.9-5.67c2.24-4.8 3.28-11.71-.46-16.07a7.83 7.83 0 00-3.33-2.25c-1.71-.63-3.65-.51-5.42-1a9 9 0 01-3.6-1.86 6.05 6.05 0 01-1.7-2.72c-.77-2.45-.5-5.35-.06-8 .53-3.23 1.36-6.41 2-9.62a10 10 0 00.33-2.53 7 7 0 00-1.17-3 25.9 25.9 0 00-4.37-4.57 12.55 12.55 0 01-1.73-1.91 5.11 5.11 0 01-.71-2.16 18.86 18.86 0 01-.09-4.4c.45-5.85 2.64-12.43-1.07-17.87-2.41-3.54-6.23-5.59-10.1-7.15a2 2 0 00-2.48 1.4 2.07 2.07 0 001.41 2.47zM531 967.33c-2.42-1.51-3.85-4.16-5.85-6.19-8.32-7.13-12.34 2.41-6 9.32 13.53 18.95 22.85 44 18.87 67.34-9.64 10.78-39.09 13.18-53.69 17.51-16.28-7.58-26.95-27.29-45.95-31.24-21.94-5.52-30.62 16.94-23.38 35.18 3.77 14.28 13.14 25.76 20.45 38.17 4.06 28.07-5.35 72.83 2.51 100.8.48 1.87 4.93 31.41 6.44 32.62 132.29-15.2 116.22 35.08 124.08-78.22 1.39-47.67 41.18-83.84 50.82-128.49-1-9.51-10.23-15.85-14.35-24.48-5.07-10.63-3.06-25.57-12.93-32-22.4 55.69-37.46 51.38-59.63-1" fill="#c6c6c6"/><path d="M532 965.59c-2.52-1.66-3.8-4.58-6.15-6.43-1.86-1.47-4.14-2.74-6.59-2.52-4.69.43-5.92 5.65-4.86 9.5.74 2.67 2.45 4.56 4 6.78q2.67 3.86 5 7.91a108.47 108.47 0 018.1 17.21c4.25 11.69 6.41 24.26 4.91 36.67a17.2 17.2 0 00-.31 2.12c0-.26.41-.38-.07.1l-.36.36a17.63 17.63 0 01-2.06 1.69 33.45 33.45 0 01-5.38 3 78.58 78.58 0 01-13.48 4.46c-10.25 2.61-20.85 3.91-31 6.91l1.55.2c-12.82-6-21.31-18.26-33.13-25.81-10.37-6.64-26.31-10.5-35.51.14a27.25 27.25 0 00-6.14 16c-.48 6.83 1.46 13.22 3.64 19.6 2.84 8.35 7.46 15.9 12.21 23.29 1.19 1.86 2.4 3.71 3.59 5.57.53.84 1.06 1.68 1.58 2.52a19.46 19.46 0 011.9 3.11 18.18 18.18 0 01.54 4.5c.15 1.74.25 3.49.33 5.24.68 15.78-.82 31.59-1.4 47.35-.29 7.92-.42 15.86.05 23.78.23 3.74.6 7.47 1.17 11.17.47 3 1.22 5.9 1.89 8.86.75 3.35 1.16 6.82 1.73 10.21.87 5.17 1.75 10.35 2.79 15.49.36 1.76.72 3.53 1.23 5.24a8.7 8.7 0 00.67 1.74c.82 1.45 2.3 1.19 3.74 1 7.25-.8 14.51-1.47 21.78-2q17.52-1.2 35.08-1c8.41.11 16.81.5 25.2 1 5.67.33 11.36.79 17 .7 3.91-.06 8-.39 11.53-2.12a14.2 14.2 0 006.63-7.26c2-4.54 2.69-9.55 3.27-14.43.91-7.62 1.3-15.31 1.75-23 .69-11.75 1.34-23.51 2.12-35.26 1-15.35 6.26-30 12.88-43.81 6.76-14 14.9-27.37 22.14-41.16a216.37 216.37 0 009.79-21c1.41-3.56 2.68-7.18 3.77-10.85q.83-2.74 1.49-5.54a16.53 16.53 0 00.57-2.58 9.64 9.64 0 00-.45-3.05c-1.86-7.4-7.8-12.69-11.9-18.84s-4.94-13-6.47-19.91c-1.42-6.46-3.69-12.85-9.43-16.68a2 2 0 00-3 1.2c-3.47 8.61-7.21 17.21-12.06 25.15-2.76 4.54-6.18 9.53-10.69 12.11a7.81 7.81 0 01-2.3 1 11.39 11.39 0 01-1.26.28c.46-.07-.17 0-.31 0h-1.42c-.22 0-.63-.08-.22 0a8.72 8.72 0 01-1.43-.33l-.59-.19-.33-.13c.33.13 0 0 0 0a14.3 14.3 0 01-1.35-.69c-4.37-2.55-7.78-7.33-10.56-11.73-5.36-8.46-9.5-17.7-13.41-26.9a2 2 0 00-2.75-.72 2.06 2.06 0 00-.72 2.75 196.76 196.76 0 0012.6 25.61c3.16 5.16 6.85 10.53 12 13.93a13 13 0 0012.62 1.37c5.11-2.21 8.84-7 11.86-11.49 6-8.92 10.26-19 14.26-28.92l-3 1.2c7.1 4.74 7.55 14.85 9.28 22.39a37.6 37.6 0 005 12.43c2.59 4 5.85 7.43 8.47 11.37a23.27 23.27 0 013 5.93 7 7 0 01.5 2.86 31.78 31.78 0 01-.94 3.85 125.83 125.83 0 01-4.47 13.52 230.88 230.88 0 01-12.47 26c-9.28 17.1-19.57 33.81-26.23 52.17a108.15 108.15 0 00-6.39 28.45c-.63 8-1 16.07-1.49 24.1-.64 10.83-1.07 21.69-2.17 32.48-.09 1-.2 1.94-.32 2.9 0 .46-.11.91-.17 1.36s.06-.37 0 .2c0 .24-.07.48-.11.72-.22 1.56-.49 3.12-.83 4.66a36.49 36.49 0 01-1 3.85c-.09.28-.19.57-.3.85s-.43 1-.15.4q-.33.77-.72 1.5t-.78 1.29c-.13.19-.26.37-.4.55.47-.64-.06.08-.2.23a11.21 11.21 0 01-1 1l-.49.41c.4-.34.08-.06-.23.15a10.77 10.77 0 01-1.18.7l-.59.29c-.4.2 0 0 .08 0l-.41.16a20.51 20.51 0 01-3 .81l-.78.13-.42.06c.48-.07.25 0-.05 0-.61.07-1.22.13-1.83.17-1.38.09-2.75.12-4.13.12-3.41 0-6.82-.19-10.23-.39-10-.57-20-1.17-30-1.31a444.43 444.43 0 00-45.58 1.76q-6.9.61-13.76 1.4l1.42.59c-.09-.08.45.38.06 0 0 0 .15.47.05.11 0-.16-.11-.32-.16-.48-.24-.77-.43-1.57-.62-2.36-.54-2.31-1-4.65-1.43-7-1-5.41-1.91-10.84-2.81-16.26-.29-1.69-.55-3.38-.87-5.06-.46-2.49-1.21-4.91-1.65-7.41a135 135 0 01-1.67-23.85c0-17.19 1.79-34.34 1.81-51.54 0-3.82-.09-7.65-.36-11.47-.13-1.79-.3-3.59-.53-5.38a7 7 0 00-.68-2.74c-.6-1.06-1.26-2.08-1.9-3.11-4.95-8-10.43-15.61-14.42-24.11a102.23 102.23 0 01-4.54-12.44 33.19 33.19 0 01-1.59-9.57c-.08-5.71 1.33-11.88 5.22-16.24 9.81-11 26.59-2.87 35.86 4.6 5.93 4.78 11.21 10.29 17.15 15a56 56 0 009.16 6.16 4.67 4.67 0 003 .9c.7-.12 1.4-.4 2.09-.58 1.49-.39 3-.75 4.51-1.09 7.05-1.57 14.17-2.81 21.21-4.46 6.76-1.58 13.66-3.44 19.82-6.72a22.27 22.27 0 006.94-5.17c.73-.93.73-2.23.89-3.37s.29-2.39.39-3.59c.19-2.22.26-4.46.23-6.69a87.28 87.28 0 00-5.07-27.32 114.21 114.21 0 00-12.37-25c-1.2-1.83-2.58-3.53-3.8-5.33a8.78 8.78 0 01-1.62-4.1 5.2 5.2 0 01.11-1.69 2.52 2.52 0 01.54-1.09 1.18 1.18 0 01.88-.44 4.23 4.23 0 011.49.26 10.73 10.73 0 014.34 3.62 20.34 20.34 0 004.57 4.55c2.16 1.43 4.18-2 2-3.47z" fill="#c6c6c6"/><path d="M499.81 609.76c-.66-5.14 3.71-10.49 4.21-13.93-12.88 6-39.79 11.43-51.61 10.19-12.24-.8.89 23.05 0 31.14 6 4.7 7.22-17.35 7.53-21.23-.35 6.31 1.36 18.87 9 18.38 4.38-.86 6.44-8.26 10.44-10.82 8.35-4.03 26.55 10.76 20.43-13.73z" fill="#797a7a"/><path d="M502.2 609.76c-.52-4.94 3.33-8.66 4.12-13.29a2.43 2.43 0 00-3.51-2.7c-9.2 4.24-20.06 6.67-30.22 8.41a105.94 105.94 0 01-14.75 1.61c-2 .05-3.91-.14-5.87-.17a7.07 7.07 0 00-4.9 1.62c-2.67 2.37-2.47 6.36-2 9.56a88.1 88.1 0 002.95 12c.55 1.9 1.09 3.79 1.52 5.72.17.77.33 1.55.44 2.34-.08-.58 0 .52.06.7v1.18a3 3 0 001.66 2.87 4.64 4.64 0 002.38.63 5.07 5.07 0 004-2.56c2.14-3.21 2.68-7.62 3.2-11.35.47-3.44.74-6.89 1-10.36h-4.78c-.29 5.83.54 13 4.41 17.64 1.93 2.29 5.33 3.9 8.31 2.83 3.44-1.23 5.35-4.67 7.31-7.51a24.37 24.37 0 012.85-3.26s.47-.26.1-.08 0 0 .07 0l.52-.16c.2-.06.41-.09.61-.14.66-.17-.37 0 .32-.05a22.12 22.12 0 012.82 0l.62.07c.68.07-.14 0 .27 0s1.1.17 1.64.27c3.84.67 8.32 2 12.05.29 6-2.82 3.88-11.85 2.67-16.75-.73-3-5.34-1.72-4.6 1.27a28.11 28.11 0 011.09 8.78c-.05.62 0-.15 0 .25-.05.24-.09.47-.16.7s-.12.37-.18.55.09-.21.09-.21l-.2.4c-.05.08-.37.56-.13.22s-.08.09-.16.17-.47.4-.15.16-.2.1-.29.16c-.38.27.06 0 0 0l-.44.14c-.18.06-.36.09-.53.13-.58.16.26 0-.07 0a16.29 16.29 0 01-2.42 0l-.58-.06H493h.2l-1.4-.22-2.8-.56c-3.88-.69-8.63-1.53-12 1.17-2.46 2-3.89 4.94-5.79 7.42a12.12 12.12 0 01-1.37 1.5 3.49 3.49 0 01-1.16.76c-.41.14-.25.07-.11 0a2.78 2.78 0 01-.5 0h-.15c.26 0-.2 0-.26-.06a6.65 6.65 0 01-.76-.23c.37.15-.41-.26-.52-.33-.4-.26-.07 0-.4-.34s-.5-.49-.72-.77c.2.25-.27-.4-.34-.51-.2-.32-.39-.65-.56-1a18 18 0 01-1.36-4.01 31.09 31.09 0 01-.72-8.67 2.4 2.4 0 00-2.39-2.38 2.43 2.43 0 00-2.39 2.38c-.24 3-.49 6.41-.86 9.16a56.62 56.62 0 01-1.04 5.91 25.86 25.86 0 01-.76 2.56l-.21.54c-.06.14.16-.31-.05.1s-.35.63-.52.94 0 .07 0 .06-.26.25-.37.38.45-.24.05 0 .57-.16.11 0 .5 0 .14 0 .61.13.12 0 .29.24 0 0-.35-.22-.51-.34l1.18 2.06a20.79 20.79 0 00-.81-6.64c-.64-2.69-1.46-5.34-2.22-8a74.88 74.88 0 01-1.94-7.95c-.05-.27-.09-.54-.13-.81.06.43 0-.33-.05-.48a17.53 17.53 0 01-.09-1.78v-.67c0-.22.1-.83 0-.28a8.38 8.38 0 01.32-1.29c-.2.61 0 .06.08-.12s.49-.55 0-.11l.36-.36c-.17.17-.21.14.19-.09s-.08 0-.14 0a2.81 2.81 0 01.31-.1c.23 0 .45-.11.68-.15-.5.08 0 0 .23 0h1a56 56 0 008.39 0 145.51 145.51 0 0021.92-3.47 112.77 112.77 0 0022.34-7.1l-3.51-2.69c-.37 2.22-1.64 4.23-2.52 6.27-1.12 2.62-2.07 5.4-1.77 8.29a2.46 2.46 0 002.39 2.38 2.4 2.4 0 002.39-2.39z" fill="#797a7a"/><path d="M752.58 1081.86c-3-23.64-2.67-47.6-6.72-71.06-15.12 12.8-11.38-5.88-13.41-15.28-4.3-5-7.6-9.79-7.43-16.95.28-6.6-3.82-19.62-11.94-14l-3.61-.79c.78-7.28-1.72-21.6-11.4-18.12-12 7.12-3.66 53 10.34 29.16 7.7-3.17 8.73 9 7.8 14.37-1.55 23.91 9.1 32.78 17.4 51.33-.57 22.6-5 33.49 19.18 45.24z" fill="#aaa"/><path d="M755.31 1081.86c-2.35-18.54-2.66-37.24-4.63-55.81a262.63 262.63 0 00-2.18-16c-.38-2.21-3.16-2.38-4.57-1.2a25.82 25.82 0 01-3.56 2.58l-.8.44c-.14.07-.88.37-.3.15-.43.17-.87.26-1.31.39.44-.13.36 0 0 0s-.34-.11.06 0a2 2 0 01-.4-.1c-.31-.18.6.3 0 0s.19.1.08.07-.24-.27-.33-.35c.24.22.28.45.08.08-.09-.18-.2-.35-.3-.53-.28-.53 0 .06 0 0s-.14-.38-.2-.57c-.13-.42-.24-.85-.33-1.27s-.17-.94-.24-1.41 0 .48 0-.23c0-.26-.06-.52-.08-.78-.22-2.22-.3-4.46-.46-6.68-.08-1.06-.17-2.12-.31-3.18-.21-1.69-.35-3-1.5-4.32a27.5 27.5 0 01-5.17-8 17.28 17.28 0 01-1.06-4.76c-.08-1.35 0-2.69-.08-4a26.79 26.79 0 00-1.72-7.75c-1.09-2.75-2.65-5.56-5.29-7.09-2.91-1.7-6.29-1.12-9 .7l2.11-.28-3.62-.79 2 2.64a31.43 31.43 0 00-.87-10.84c-.91-3.51-2.59-7.14-5.72-9.18a8.93 8.93 0 00-10.42.65 14.94 14.94 0 00-4.08 6.63c-1.92 5.63-1.85 11.93-1 17.74.68 4.69 2.1 10.53 5.92 13.71a7.1 7.1 0 007.79 1.1c3.1-1.41 5.27-4.56 6.95-7.39l-1.63 1.25a7 7 0 011.5-.44c-.66.1.05 0 .17 0s.71.19.09 0c.13 0 .26.05.39.1.53.22-.5 0 .05 0 .14 0 .65.5.09 0 .2.18.38.36.57.56.46.48-.29-.48.08.1l.23.37c.11.19.21.38.31.58s.32.78.09.19a15.94 15.94 0 01.78 2.86c0 .25.09.51.12.76-.08-.6 0 .25 0 .3q.06.65.09 1.29a25.7 25.7 0 010 3c0 .4-.07.8-.11 1.2.08-.75 0-.09 0 .06-.08.54-.12 1.07-.15 1.62-.09 1.71-.12 3.41-.08 5.12a54.73 54.73 0 002.89 16.64 88.22 88.22 0 006.41 13.72c3 5.38 6.07 10.71 8.6 16.33l-.37-1.38c-.2 7.35-1.19 14.83-.48 22.17a25.94 25.94 0 008.26 17.2 53.39 53.39 0 0012.75 8.23c1.74.84 4.24-.15 4.11-2.36l-.21-3.92a2.79 2.79 0 00-2.73-2.73 2.75 2.75 0 00-2.73 2.73l.21 3.92 4.11-2.36a70.78 70.78 0 01-6.46-3.53 33.69 33.69 0 01-4.58-3.31 25.39 25.39 0 01-3.52-3.66c.35.45-.3-.43-.4-.57-.21-.32-.42-.64-.61-1a21.47 21.47 0 01-1-2c0-.1-.34-.78-.08-.15-.06-.14-.11-.27-.16-.41-.13-.33-.26-.67-.37-1a21.75 21.75 0 01-.58-2.1c-.17-.73-.3-1.46-.41-2.19.11.67-.05-.46-.07-.63 0-.39-.07-.78-.1-1.16a84.76 84.76 0 01.07-10.33c.09-2 .21-4 .3-6 .05-1.08.09-2.16.13-3.24 0-.55.08-1.12.05-1.68a6.86 6.86 0 00-.85-2.42c-2-4.26-4.23-8.37-6.53-12.45-4.29-7.63-8.15-14.88-9.57-23.59a57.65 57.65 0 01-.26-14.29 23.5 23.5 0 00-1.18-10.1c-1.41-3.71-4.36-6.49-8.56-5.8a4.8 4.8 0 00-3.37 1.73c-.49.73-.92 1.51-1.44 2.23-.13.2-.27.39-.42.58.06-.08.33-.41 0 0s-.45.54-.69.79a14.59 14.59 0 01-1.34 1.27c.63-.54 0 0-.23.12s-.44.22-.63.35.22-.09.28-.11c-.13 0-.24.1-.37.13s-.41.08-.6.14c.82-.28.37 0 0 0-.74-.06.27.14.05 0a2.25 2.25 0 00-.55-.15c-.23 0-.23-.43.33.15-.07-.08-.23-.1-.32-.16a3.36 3.36 0 00-.51-.32c-.4-.16.37.39.2.17s-.17-.14-.24-.21c-.33-.33-.62-.66-.93-1 .59.68 0 0-.09-.16s-.28-.44-.41-.66a15.87 15.87 0 01-.76-1.48l-.21-.47s.23.6.07.15c-.1-.28-.22-.57-.33-.85-.21-.61-.4-1.22-.58-1.83a36.55 36.55 0 01-.87-4c-.06-.35-.11-.7-.16-1.06.1.75 0-.4-.06-.55-.08-.72-.14-1.45-.18-2.17q-.12-2.17 0-4.35c0-.71.09-1.42.16-2.13 0-.19.17-1.29 0-.52.05-.34.1-.67.16-1a24.6 24.6 0 011-3.78c.1-.29.22-.58.32-.86.2-.58-.2.43 0 .07l.18-.4a14.25 14.25 0 01.82-1.48c.14-.22.31-.44.46-.66-.48.71 0 0 .17-.17l.53-.53.23-.2c.35-.39-.47.37-.09.07l.37-.25c-.14.09-.56.15 0 0l.61-.17c.13 0 .7-.11.16-.05h1.19c.16 0 .49.12 0 0l.64.16c.13 0 .74.33.14 0l.38.2.46.28c.35.23-.47-.43 0 0 .27.25.53.5.78.78.11.11.2.23.3.34-.37-.46 0 .1.11.21a13 13 0 011.81 4.24q.35 1.3.57 2.64c0 .18.05.35.08.53-.08-.57 0 .31 0 .34.05.44.09.88.12 1.33a28.51 28.51 0 01-.06 4.8 2.72 2.72 0 002 2.63l2.82.61a7.26 7.26 0 001.52.28 3.65 3.65 0 001.9-.71c.13-.08 1-.52.59-.36.31-.13.64-.18.95-.29.47-.15.1 0 0 0h.86c-.15 0-.51-.16-.1 0 .22.09.84.34.32.07a7.38 7.38 0 01.73.43c.42.28 0 0 0 0l.33.3c.22.22.43.45.63.68s.3.41 0 0l.35.51a15.26 15.26 0 01.93 1.68c.07.16.15.32.22.49-.05-.11-.16-.42 0 .09s.29.76.42 1.15a25.57 25.57 0 011 4.22c.06.45 0-.39 0 0v.38c0 .32.06.65.07 1v2.21a22 22 0 001 6.4c1.39 4.53 4.23 8.31 7.29 11.86l-.7-1.21c.1.47.17 1 .25 1.42s0 0 0-.08l.06.44.09.89c.12 1.17.19 2.34.26 3.51.15 2.43.28 4.86.63 7.27.58 4 2.58 8.63 7.41 8.13 3.57-.37 6.64-2.87 9.29-5.09l-4.57-1.2c3.09 18.09 3.56 36.48 5 54.75.42 5.2.92 10.4 1.58 15.58a2.81 2.81 0 002.73 2.73c1.37.02 2.96-1.24 2.77-2.71zM759.19 1141.06c-1.09-7.18-.43-14.57-2.19-21.63-15.82 6.6.89 27.78 4.34 38.62-.68-5.67-1.47-11.33-2.15-16.99z" fill="#aaa"/><path d="M761.83 1140.33c-1.06-7.19-.48-14.51-2.19-21.62-.46-1.89-2.47-2.3-4-1.64a13 13 0 00-6.76 6.09 15.54 15.54 0 00-1 9.06c.95 6.44 4.23 12.45 7.1 18.19.76 1.52 1.52 3 2.23 4.58l.54 1.18c.06.15.13.31.2.46-.16-.36 0-.06.05.14.26.66.51 1.32.73 2a2.74 2.74 0 003 2 2.7 2.7 0 002.37-2.68c-.68-5.67-1.47-11.33-2.15-17a2.82 2.82 0 00-2.73-2.74 2.76 2.76 0 00-2.73 2.74c.68 5.66 1.46 11.32 2.15 17l5.36-.73c-1.77-5.47-4.83-10.49-7.24-15.68a47.09 47.09 0 01-3.08-8.23c-.16-.61-.3-1.23-.41-1.86 0-.17-.15-1.07-.09-.57 0-.34-.07-.67-.09-1a12.55 12.55 0 010-1.84c0-.2.12-.89 0-.33a9.18 9.18 0 01.19-.91c.09-.34.19-.66.31-1s-.19.39 0 0c.08-.17.16-.34.25-.51s.32-.53.49-.79c.28-.42.07-.1 0 0a5.82 5.82 0 01.4-.45A6 6 0 01756 1123a14.92 14.92 0 012.34-1.23l-4-1.63c1.7 7.07 1.13 14.45 2.19 21.62.21 1.46 2.06 2.27 3.36 1.91a2.82 2.82 0 001.94-3.34z" fill="#aaa"/><path d="M377.89 580.65c-2.58 17.45-25.71 16.09-24.45 35.41.74 3.87 5.56 7.87 3 11.91-2.07 2.9-6.58 1.38-10.1 2s-6.45 3.58-10 3.6c-1.55 0-3.4-.44-4.41.73-.59 10.75-12.17 8.21-7.5 19.24 2 3.67 4.58 10.43-.76 12.32-7.47 3-12.54-25.87-17.08-18.66-3.84 9.49-3.26 21.32-9.3 29.63-8.72-.69-5.55-23.94-2.05-29.41-11.19-3.13-10 16.46-19.7 19.66-14.93 5.29-1.82 29.24-11.51 42.33 7.58 4 8.2-19.58 29.29-24.68 9.7-3.18-.91 23.35 5.32 25.22 9.93-4.29-2.43-42.47 22.51-32.27 2.85.87 5-1 4.93-3.86 3.8-10.38 18.76-5.82 26.39-11.62 3-4.93-2.16-11.25-.15-16.37 2.25-6.84 12.18-7.32 16.68-12.93 4.52-7.17 3.74-17.58 13.68-19.69 26.42-22.44 11.85-16.27-4.73-32.53" fill="#797a7a"/><path d="M375.88 580.09c-.9 5.78-4.47 9.75-8.95 13.07s-9.49 6.29-12.66 11.05a18.23 18.23 0 00-2.88 8.55 11.4 11.4 0 00.52 5.38c.76 1.9 2 3.57 2.74 5.46.51 1.26.81 3-.66 3.77s-3.57.34-5.17.33a14.66 14.66 0 00-6.29 1.33c-1.89.85-3.76 2.22-5.87 2.41s-4.26-.48-6 1.13c-1.18 1.08-.94 3.46-1.53 4.82-.95 2.18-2.88 3.53-4.71 5.18a8.56 8.56 0 00-3.19 6.66c.11 3.52 2.26 6.27 3.16 9.56a6.06 6.06 0 01.11 3.8 2.3 2.3 0 01-1 1.07c-.2.1-.4.18-.6.26s-.17 0-.25.06.14-.15.07 0-.86-.16-.05 0l-.47-.12c-.27-.1.34.24-.08 0-.19-.13-.39-.24-.57-.37.38.27 0 0-.14-.14l-.45-.44c-.15-.16-.29-.33-.43-.49-.38-.43 0 .06-.32-.42-2.71-3.89-4.34-8.39-6.49-12.58a13.17 13.17 0 00-3.28-4.61 3.52 3.52 0 00-5 .48c-1.24 1.41-1.69 3.6-2.2 5.38-.61 2.15-1.07 4.35-1.52 6.54a82.62 82.62 0 01-3.22 13 24.51 24.51 0 01-3 5.57l1.8-1c-.39 0 .3.09-.21-.05-.07 0-.54-.16-.29-.07s-.25-.14-.33-.18l-.21-.12c-.24-.16.35.32 0 0l-.36-.34c-.06-.07-.4-.49-.27-.32s-.15-.23-.19-.3l-.36-.65a3 3 0 01-.35-.87 14.9 14.9 0 01-.41-1.45 16.64 16.64 0 01-.43-3 43.56 43.56 0 011.3-13.85 30.29 30.29 0 01.93-3.08c.08-.23.17-.47.26-.7-.16.4.08-.17.14-.28a10.17 10.17 0 01.55-1 2.1 2.1 0 00-1.24-3.06 8.84 8.84 0 00-7.06.78 13.44 13.44 0 00-4.43 5.14c-2.21 4-3.6 9.06-6.81 12.16a7.75 7.75 0 01-2.18 1.47 17.85 17.85 0 00-3.68 1.78 12.85 12.85 0 00-4.64 6.24c-1.92 5.21-1.28 11.21-1.13 16.65.18 6.37.29 13.34-3.62 18.73a2.09 2.09 0 00.74 2.85c3.34 1.7 6.09-.07 8.12-2.78 2.36-3.17 4.08-6.78 6.35-10a29.88 29.88 0 0111.32-9.91 26 26 0 014.12-1.51l1.63-.43c.3-.08-.37 0 .16 0h.07c.07 0 .58.11.19 0s.2.08.13.1-.5-.28-.05 0c-.08 0-.16-.32 0 0l.19.38c-.18-.36-.06-.18 0 .07s.18.71.24 1.08c-.09-.53 0 .06 0 .19v2.11c0 1-.09 2-.17 3-.19 2.19-.46 4.36-.67 6.54-.3 3.24-1 8.19 1.53 10.77 3.25 3.24 6.48-1.37 7.54-4.21 1.24-3.33 1.45-7 1.77-10.54.17-2 .33-3.92.56-5.87 0-.23.05-.46.08-.69s0-.26.05-.39v.06c.07-.47.14-1 .22-1.43.15-.92.34-1.84.56-2.74a23.36 23.36 0 01.76-2.42c0-.11.27-.64.07-.19.08-.18.15-.35.24-.52.17-.35.36-.7.56-1l.3-.45c.1-.16.34-.45.07-.12a8.39 8.39 0 01.75-.82l.38-.34c.27-.24-.29.18.11-.08s.63-.38 1-.55-.32.08.2-.08l.45-.14.63-.16h.24c.25-.05-.38 0 0 0a14.44 14.44 0 012.58 0 23.86 23.86 0 013.16.79c1.52.5 2.9 1.18 4.56 1a5.5 5.5 0 004.18-2.58c.8-1.29.62-2.77 1.34-4.05a8.87 8.87 0 015.21-3.92c5.28-1.75 11.06-1.41 16.24-3.51a12.67 12.67 0 003.69-2c1.34-1.17 1.75-3.45 1.79-5.14.07-3.46-1.59-6.68-1.6-10.11 0-6 7.55-7.92 11.75-10.35a14.55 14.55 0 006.25-6.34c1.29-2.69 2.13-5.54 3.16-8.33a15.1 15.1 0 013.82-6.35 8.93 8.93 0 013.34-1.75 6.44 6.44 0 002.66-1.43c.94-.79 1.86-1.59 2.78-2.4a92.91 92.91 0 007.27-6.9 19.32 19.32 0 003.63-5c1.41-3.16.35-6-2.26-8.13-3.27-2.64-7.09-4.54-10.5-7a55.82 55.82 0 01-6.4-5.39c-1.92-1.87-4.87 1.07-2.94 3a63.8 63.8 0 009.17 7.37c2.3 1.54 4.72 2.91 7 4.48.2.14.4.28.59.43.38.27-.16-.16.25.18a13.86 13.86 0 011.05 1c.19.2.37.5.1.1.11.16.21.32.31.48a1.86 1.86 0 01.1.2c.21.34-.12-.48 0-.1 0 .17.09.36.14.52-.19-.6 0-.15 0 .11v.22c0 .43.13-.5 0-.08-.05.16-.08.33-.13.49s-.09.26-.13.39c.11-.31.1-.2 0 0a15.09 15.09 0 01-1.91 2.82 100.44 100.44 0 01-11.71 11l.92-.54a13.87 13.87 0 00-9.53 7.64c-1.81 3.6-2.61 7.61-4.4 11.22a9.7 9.7 0 01-3.72 4 61.89 61.89 0 01-5.58 3c-3.81 1.91-7.35 4.29-8.7 8.55-.86 2.69-.27 5.52.36 8.18.56 2.38 1.42 5.1.11 7.38l.75-.75c-2.92 2.17-6.61 2.74-10.13 3.27-3.76.57-7.58 1-11 2.68a12.05 12.05 0 00-4.19 3.3 11.7 11.7 0 00-1.5 2.43 5.14 5.14 0 00-.56 1.74 2.66 2.66 0 01-.27 1.31c-.88 1.47-2.95.15-4.12-.23a20.78 20.78 0 00-4.8-1c-12.35-1-12.7 14.39-13.5 23-.06.71-.13 1.41-.21 2.12 0 .37-.09.75-.13 1.12 0 .12 0 .25-.05.37.07-.49 0 .16 0 .26a29.25 29.25 0 01-.76 3.7c-.08.27-.16.54-.26.8s-.37.94-.13.38a12.34 12.34 0 01-.68 1.3c-.35.59.14-.06-.2.28-.14.14-.27.29-.42.43l-.26.23c.2-.17.32-.19 0-.06s-.41.24-.62.33l1.6-.21c-.32-.1.17.09.19.09s-.17-.13-.24-.13c.83 0-.24.16 0-.07 0 0 .25.42 0 0l-.11-.22c-.21-.35.13.44 0 0s-.2-.74-.28-1.12 0 .33 0 0v-.33l-.06-.88a54 54 0 01.48-7.41 76.08 76.08 0 00.61-7.7c0-2-.13-4.22-1.32-5.87-1.57-2.21-4-2-6.29-1.37a29.46 29.46 0 00-9.81 4.62c-5 3.62-8.5 8.55-11.62 13.78-.65 1.09-1.29 2.18-2 3.26-.28.45-.58.9-.89 1.33-.09.13-.55.73-.22.32-.15.19-.3.37-.46.55l-.46.47c-.14.13-.68.51-.14.15a4.9 4.9 0 00-.48.31c-.41.32.33-.25-.09 0-.21.15-.74 0-.05 0h-.53-.05c-.59-.16.24.14-.26-.11l.75 2.85c3.5-4.82 4.22-11 4.25-16.77 0-5.4-.75-11.23.12-16.44a11.34 11.34 0 012.32-5.77 7.85 7.85 0 012.48-1.91c1-.54 2.19-.82 3.2-1.42 4.23-2.48 6.18-7.34 8.14-11.57.52-1.13 1.05-2.26 1.67-3.35a11.71 11.71 0 011.79-2.57c.2-.21.4-.4.62-.59s-.1 0 .33-.24c.21-.13.42-.25.64-.36s.37-.14 0 0a2.06 2.06 0 01.35-.12 5.32 5.32 0 012.92.09l-1.24-3.06c-2.4 3.84-3.09 9-3.57 13.41-.52 4.89-.7 10.6 1.62 15.1a7.14 7.14 0 005.8 4 2.12 2.12 0 001.8-1c6.2-8.69 5.76-20.05 9.37-29.77.1-.26-.26.31.06 0s0 0 0-.06a.66.66 0 01-.51.11c.46 0-.55-.11-.08 0 .21 0-.58-.2 0 0 .26.1-.14-.12-.18-.15s.17.14.24.22.25.27.37.4.27.37 0-.06c.08.11.17.23.24.34a52.88 52.88 0 013.48 6.73 62.84 62.84 0 003.91 7.56c1.26 2 2.94 4.2 5.34 4.82 3.39.89 6.9-1.94 7.48-5.22a12.21 12.21 0 00-.66-6c-.63-1.85-1.7-3.52-2.28-5.37a7.82 7.82 0 01-.43-2.56 3.18 3.18 0 01.37-1.4c.09-.16.19-.32.29-.47.23-.37-.19.2.12-.17a10.16 10.16 0 01.7-.76c.54-.53 1.13-1 1.71-1.51a14.1 14.1 0 005.41-10.2l-.61 1.48c.35-.35 1.12-.2 1.56-.18a13.89 13.89 0 002.88-.1 18.17 18.17 0 005.28-2.08 11.38 11.38 0 014.74-1.51c1.64-.06 3.28.12 4.92 0 3.61-.34 6.64-2.67 6.53-6.59a11.68 11.68 0 00-1.6-5c-.71-1.36-1.79-2.78-2.1-4.31a13.47 13.47 0 011-7.32 15.71 15.71 0 013.48-4.94c3.29-3.28 7.34-5.58 11-8.53 4.48-3.58 7.91-8.19 8.81-14a2.15 2.15 0 00-1.46-2.56 2.09 2.09 0 00-2.56 1.45zM541.06 562.46c11.87-.39 68.34-8.58 59.3 13.06 10.14 2.36 23.17-4.52 31.88 3.33 3.81 1.59 8.15-3.78 11.81-1.86 3.06 1.59 2 6.26.09 9.1-4.06 5.2-4.4 7.7-1.35 13.06-1.32 7.81-13.28 12-11 21 4.82 1.85 11.09-6.59 13.75 2.36 5.73 14.7-9.12 21.07-6.75 31.11 10.2 12.12 13.2 28.41 11.08 44.27-6-12-4.63-25.57-5.67-38.32-11.84-12.36-1.54-18.19.1-31.33-.88-9.24-5.8-8.18-12.4-8.45-2.46-2.93-2-7.68-.47-11 6.45-15.82-18.69-24.37-31-24.25-32.06-4.68-47.37 18.65-77.15-1.84 10.45-8.88 10.81-12.09 17.3-19.76" fill="#797a7a"/><path d="M541.06 564.54c3.65-.12 7.3-.52 11-.81 5.36-.43 10.74-.8 16.12-1a117.29 117.29 0 0116.66.5 45.27 45.27 0 016.67 1.26c.5.14 1 .29 1.5.46l.67.23.63.25.44.2.65.32a13 13 0 011.2.7c.19.12.37.25.55.38s-.39-.32 0 0a2.88 2.88 0 01.27.22c.32.3.62.61.91.93s0-.07-.07-.11.15.21.22.33a6.26 6.26 0 01.34.55c.09.16.33.8.12.21.07.19.14.37.19.56s.11.43.16.65.06.38 0 .06 0 .13 0 .2a12.66 12.66 0 010 1.38v-.09c0 .16-.05.31-.08.47s-.12.54-.19.81a14.62 14.62 0 01-.61 1.72 2.09 2.09 0 001.46 2.56c4.79 1.07 9.64.42 14.45-.07 4.49-.47 9.59-1.05 13.79 1a14.94 14.94 0 012.71 1.82 5.09 5.09 0 003.56.88c2.18-.19 4-1.31 6-2.06 1.19-.46 3-1 3.46.61s-.47 3.88-1.43 5.25c-1.62 2.32-3.31 4.5-3.64 7.42s.94 5.42 2.26 7.78l-.21-1.6c-.62 3.37-3.26 5.84-5.54 8.27-2.48 2.65-5.12 5.6-5.7 9.32-.32 2-.46 5.35 2 6a8.83 8.83 0 005.18-.41 27 27 0 014.34-1.45 1.52 1.52 0 011.08.17 4 4 0 011.11 1.72c1.41 3.74 2 7.4.78 11.27-1 3.09-2.86 5.86-4.49 8.67s-3 5.7-3.12 8.94a10.66 10.66 0 00.23 2.52c.28 1.28 1.32 2.18 2.08 3.21a47 47 0 014.12 6.66c5.36 10.54 6.42 22.73 4.91 34.32l3.88-1.05c-3.4-6.92-4.32-14.62-4.7-22.22-.18-3.79-.25-7.59-.45-11.38-.05-.94-.1-1.87-.17-2.81a8.22 8.22 0 00-.14-1.41 4.34 4.34 0 00-1.18-1.61 21 21 0 01-3-4.05c-2.52-4.56-1-8.89.87-13.4a56.77 56.77 0 002.75-7.83 13.61 13.61 0 00.57-4.94 15.58 15.58 0 00-1.18-4.45c-2.38-5.31-8.29-4.84-13.18-5l1.47.61c-3.08-3.89.65-9 1.1-13.09a14.2 14.2 0 00-3.28-10.37c-4.95-6.26-13.49-9.54-21-11.22-3.88-.86-7.77-1-11.69-1.42a64.74 64.74 0 00-16.16.33c-9.09 1.27-17.74 4.5-26.77 6a39.68 39.68 0 01-14.21 0 46.39 46.39 0 01-17-7.64l.42 3.27a69.58 69.58 0 0010.22-10.44c2.39-3.09 4.57-6.33 7.09-9.32 1.71-2-1.22-5-2.95-2.94-2.61 3.09-4.87 6.43-7.33 9.64a68.13 68.13 0 01-10 10.12 2.11 2.11 0 00.42 3.27c6.33 4.33 13.35 7.57 21 8.54 6.15.78 12.33-.09 18.32-1.48 6.19-1.44 12.27-3.34 18.53-4.48a63.72 63.72 0 0110.22-.95q2.9-.08 5.79.14c1.73.13 3.45.45 5.18.48a45.36 45.36 0 0115.21 3.25c4.59 1.78 9.62 4.54 12.24 8.63a9.46 9.46 0 011.62 6.09 12.05 12.05 0 01-.86 3.44 18.46 18.46 0 00-1.37 5.48A11.55 11.55 0 00629 619a6.24 6.24 0 001.59 2.35 4.65 4.65 0 002.81.49c1.28 0 2.56 0 3.83.15a7.26 7.26 0 011.33.23 3 3 0 011.23.47 3.51 3.51 0 011.55 1.82 8.19 8.19 0 01.66 4.72 48.12 48.12 0 01-3.06 9.41 29.77 29.77 0 00-2.42 8.34 14.92 14.92 0 002.26 9 29.31 29.31 0 003.91 5l-.61-1.47c1.06 13.3-.11 27 5.95 39.37a2.1 2.1 0 002.35 1 2.2 2.2 0 001.53-2c2.12-16.14-1.09-33-11.69-45.74l.54.92a7.85 7.85 0 01.07-3.67 15.52 15.52 0 011.63-3.88c1.55-2.84 3.39-5.51 4.67-8.49a20.25 20.25 0 00-.8-17.86 5.71 5.71 0 00-4.51-2.92 12.1 12.1 0 00-5 1.16 20.33 20.33 0 01-2.61.84 3 3 0 01-1.87-.11l1.45 1.46c-.82-3.54 1.34-6.36 3.66-8.9 2.67-2.91 5.72-5.71 7-9.55a4 4 0 00-.07-3.38 13.31 13.31 0 01-1.44-3.54c-.38-2 .69-3.81 1.8-5.42 1.43-2.06 2.78-4 3.18-6.52.36-2.28 0-4.72-1.78-6.33-2.06-1.81-4.79-1.62-7.19-.68-1.84.73-4.13 2.36-6.15 1.61l.92.53c-4.55-4-10.29-4.77-16.14-4.38-5.48.37-11.21 1.73-16.65.52l1.45 2.56c1.59-3.87 1.42-8.2-1.63-11.29s-7.79-4.37-12-5.1c-11.27-2-23-1.17-34.33-.31-4.45.34-8.92.86-13.38 1-2.68.09-2.69 4.25 0 4.16zM745.65 1000.63c-6-.48-11 4.18-12.82 11.1 1.9 3.8 5.77-.47 8.3-1 8.81.52 7 14.89 4.86 20.78-15.79 13.76-8.66 25.1 2 39.59 9.2 2.02-2.84-65.54-2.34-70.47z" fill="#797a7a"/><path d="M745.65 998.38a13.38 13.38 0 00-11.34 5.33A20.49 20.49 0 00731 1010a3.59 3.59 0 00.6 3.87 4.41 4.41 0 003 1.62c2.06.16 3.88-1 5.61-2 .36-.2.76-.37 1.11-.58-.23.14.33 0 .1 0h.07a3.16 3.16 0 011.7.7c-.32-.22.33.31.42.4s.24.26.35.4c-.06-.08-.21-.3 0 .06a5.94 5.94 0 01.82 1.7 13.52 13.52 0 01.65 4.38 28.1 28.1 0 01-1.68 10.23l.58-1c-5.1 4.49-9.52 10.23-9.84 17.28-.28 6 2.6 11.8 5.76 16.78q1.4 2.19 2.9 4.3l1.53 2.13a12.67 12.67 0 001.94 2.47 3.43 3.43 0 003.84-.11c1.91-1.25 2.47-3.82 2.77-5.93 1.06-7.31.29-14.93-.35-22.25-.79-8.86-1.9-17.68-3.05-26.5-.46-3.48-.93-7-1.36-10.45-.25-2.08-.58-4.19-.63-6.28a5.3 5.3 0 010-.69 2.28 2.28 0 00-2.26-2.25 2.3 2.3 0 00-2.26 2.25 16.82 16.82 0 00.18 3.09c.19 1.91.44 3.82.68 5.72.72 5.68 1.49 11.35 2.2 17 .81 6.55 1.56 13.1 2.11 19.67a127.39 127.39 0 01.59 16.69c0 .6-.06 1.19-.11 1.78l-.09.89v.28c0 .49.08-.48 0 0a18.62 18.62 0 01-.57 2.54c-.07.24-.4.77 0 .08a2.81 2.81 0 00-.19.39c0 .14-.21.26-.25.4.15-.49.36-.38.06-.11s.49-.32.13-.1.51-.16.19-.07.65 0 .21 0 .6.13.15 0l1.35 1c-3.68-5-7.75-10.2-9.82-16.11a17.16 17.16 0 01-1.06-7.4 15.84 15.84 0 012.76-7.1 26.25 26.25 0 013.19-3.87c1.26-1.29 2.75-2.25 3.33-4a34 34 0 001.35-6.39c.55-4.38.56-9.67-2.25-13.34-1.5-2-4.49-3.8-7.07-3.16a18 18 0 00-3.9 1.9 7.15 7.15 0 01-1.53.6c.27-.08-.06 0-.13 0s.22 0 .24.05-.33-.52-.32-.49l.23 1.74c1.39-5 4.94-9.81 10.64-9.44 2.93.31 2.92-4.2.03-4.39zM190.69 980.17l10.52 3.43a2.41 2.41 0 002.94-2.94c-2.47-10.19-3.8-20.59-5.82-30.86l-1.1 2.7c-.68.32-.18.11 0 0-.63.23-.26.13 0 .07-.55.11-.3-.06.06.07s.32.13 0 0a8.72 8.72 0 011.26.72c.07.05.75.55.34.23l.52.42a50 50 0 015.56 5.8c3.15 3.69 6 8.08 9.86 11 1.55 1.18 3.52-.46 3.6-2.07.44-8.61 4.64-16.45 10.69-22.45l-3.76-.49a91 91 0 0110.84 24.62c.71 2.63 4.64 2 4.7-.64.23-10.47 5.81-19.77 13.61-26.47l-4-1a101.3 101.3 0 014.82 15c.39 1.65 2.85 2.45 4 1.06l21.77-26.36-4-1.06a50.12 50.12 0 012.9 24.83c-.34 2.24 2.13 4.12 4 2.32l4.61-4.43c2.22-2.14-1.17-5.52-3.39-3.38l-4.6 4.43 4 2.33a54.94 54.94 0 00-2.85-27.33c-.56-1.52-2.74-2.57-4-1.06L256 955l4 1.05a101.38 101.38 0 00-4.81-15 2.43 2.43 0 00-4-1c-8.75 7.51-14.75 18.17-15 29.85l4.7-.64a95.35 95.35 0 00-11.32-25.75 2.42 2.42 0 00-3.75-.48c-7 6.91-11.59 16-12.1 25.83l3.6-2.07c.57.44-.13-.13-.31-.3s-.57-.55-.84-.84c-.64-.67-1.24-1.36-1.84-2.06-1.47-1.72-2.88-3.48-4.32-5.22-2.75-3.32-5.64-7.05-9.37-9.33a5.87 5.87 0 00-5.78-.63 2.44 2.44 0 00-1.1 2.7c2 10.27 3.36 20.67 5.83 30.86l2.94-2.94-10.53-3.47c-2.94-1-4.19 3.66-1.27 4.61zM673.36 905.54c3.66-10.41-4.49-5.78-6.7-9.12.31-23.53-4-9.1-15.58-10.75.75 13.87 3.08 27.57 4.17 41.42 4.69.57 7.15 10.81 12.42 8.54 7.2-8.47-7.67-16.81 5.69-30.09z" fill="#797a7a"/><path d="M675.54 906.14c1.09-3.18 2-7.79-1.72-9.59a11.7 11.7 0 00-3.45-.84 13 13 0 01-1.5-.33c-.48-.13.45.22 0 0-.1 0-.2-.12-.3-.18s.33.38.06 0c-.09-.11-.36-.47 0 0l.31 1.14a64.37 64.37 0 00-.45-10.48c-.27-1.76-.83-3.81-2.45-4.81a4.9 4.9 0 00-4.29-.18c-.8.29-1.57.65-2.34 1l-.47.21c-.51.23.37-.14-.16.07s-.86.34-1.29.49a17.37 17.37 0 01-3 .77c-.34 0 .38 0 0 0h-1.38a15.12 15.12 0 01-2-.14 2.26 2.26 0 00-2.26 2.26c.77 13.86 3.07 27.58 4.17 41.42a2.32 2.32 0 001.66 2.17c.16 0 1 .28.62.12a4.82 4.82 0 01.73.43 4.34 4.34 0 01.58.51c.29.29.56.58.83.89 1.06 1.22 2 2.56 3 3.79a9.42 9.42 0 003.94 2.92c1.71.57 4 .37 5.22-1.12a11.45 11.45 0 002.14-9.38c-.23-1.43-.63-2.82-1-4.21a30 30 0 01-.87-4.29c-.4-4.64 1.78-8.46 5.07-11.79 2-2.07-1.15-5.26-3.19-3.19a21.66 21.66 0 00-5.95 9.55 18.62 18.62 0 000 8.53c.48 2.32 1.32 4.57 1.62 6.93-.06-.44 0 .18 0 .27v.87a8.12 8.12 0 010 .86c0 .28 0 .29 0 0 0 .14-.05.28-.08.42a6.18 6.18 0 01-1.3 2.61l1-.58a3.33 3.33 0 01-.88.27c.42-.06 0 0-.12 0-.36 0 .35.07 0 0a2.36 2.36 0 01-.38-.1c-.33-.13.29.15 0 0-.15-.08-.78-.48-.53-.3a16.26 16.26 0 01-2.78-3.07c-1.67-2.16-3.6-4.87-6.51-5.31l1.66 2.18c-1.1-13.84-3.4-27.56-4.17-41.42l-2.26 2.26a17.26 17.26 0 008.66-1.28c.65-.26 1.29-.54 1.93-.82l.7-.3-.12.05.46-.19c.37-.13.76-.23 1.14-.35s-.57 0-.05 0-.5-.16 0 0-.6-.26 0 0c-.77-.36-.22-.06-.08 0-.41-.18-.19-.32 0 .13-.23-.52 0 .08.12.41a7.91 7.91 0 01.19.81c0 .19.07.38.1.56.11.64 0-.28 0 .13.12 1 .19 2 .23 3 .06 1.28.08 2.55.08 3.83 0 1.59-.29 3.21.92 4.46a6.53 6.53 0 003.68 1.69c.67.11 1.35.16 2 .31a8.19 8.19 0 01.85.23c-.6-.19-.16-.1 0 0 .39.32 0 0 0-.05 0 .61.3-.41 0 0l.15.25c-.12-.32-.14-.36 0-.12a1.57 1.57 0 01.08.33c-.07-.62 0 .25 0 .37a12 12 0 01-.84 3.61c-1.03 2.86 3.33 4.04 4.27 1.31zM555.89 703.16c-5.41-22.8-18.94-43.22-37.08-56l4.19 21.78c-62.15 4-34.48-26.64-111.34 16.54 4.58 5.17 12.19 4.21 18.69 3.27a158.41 158.41 0 0162.57 3.49c25.71 3.44 36.25 33.8 46.35 18.85 2.71-2.12 6.42-.88 9.76-.79s7.48-2.9 6.07-6.21" fill="#797a7a"/><path d="M557.92 702.6a100 100 0 00-26.49-47.6 91.2 91.2 0 00-11.56-9.66c-1.64-1.16-3.4.74-3.09 2.37l4.16 21.75 2-2.66a156.37 156.37 0 01-15.91.28q-3.12-.12-6.23-.41c-.95-.1-1.9-.2-2.84-.32l-1-.13-1.29-.2a120.55 120.55 0 01-15.65-3.91A41.18 41.18 0 00467 660c-6.39.2-12.62 2.24-18.51 4.59-11.2 4.46-21.89 10.2-32.44 16-1.83 1-3.65 2-5.48 3a2.13 2.13 0 00-.42 3.3c3.7 4 9.19 4.89 14.42 4.55 2.72-.18 5.41-.64 8.11-1q5-.66 10-1a156.26 156.26 0 0140.09 2.53c3.31.65 6.58 1.64 9.9 2.22a44 44 0 016.41 1.54 43.5 43.5 0 0110.68 5.53c5.75 4 10.52 9.1 16.22 13.11 2.17 1.53 4.82 3 7.57 2.8 3.34-.2 5.73-2.51 7.53-5.14l-.76.75c3.22-2.33 7.71.23 11.33-.88s7-4.55 5.47-8.49a2.16 2.16 0 00-2.59-1.47 2.12 2.12 0 00-1.47 2.58c.79 2.11-2 3.46-3.73 3.56-3 .16-5.95-1-9 0a6.18 6.18 0 00-3.3 2.39c-.11.14-.17.22-.44.53a11 11 0 01-.89.92l-.39.33c.35-.28.12-.1 0 0l-.78.47c-.11.06-.56.22 0 0a2.7 2.7 0 01-.4.14c-.19 0-1 .19-.37.12a5.49 5.49 0 01-.81 0c-.19 0-.9-.13-.27 0a9.4 9.4 0 01-1.7-.49c.53.2-.37-.18-.51-.25s-.5-.26-.75-.41a21.45 21.45 0 01-1.84-1.2c-1.16-.83-2.32-1.78-3.63-2.91s-2.88-2.5-4.33-3.74c-6.79-5.82-14.21-11.14-23.05-13.24-1.15-.27-2.31-.41-3.46-.63-1.88-.37-3.73-.94-5.6-1.35q-5.49-1.23-11.06-2a159 159 0 00-47-.1c-5.52.79-12.44 1.87-16.64-2.72l-.43 3.3c11.23-6.31 22.58-12.59 34.44-17.63a91.09 91.09 0 0110.68-3.86c1.43-.41 2.88-.77 4.35-1 .66-.13 1.33-.24 2-.33-.57.08.27 0 .47 0l.93-.09a28.55 28.55 0 013.46-.07c.53 0 1.05 0 1.57.1l.79.09c.6.06-.34-.06.34 0a48.75 48.75 0 016.08 1.42 152.7 152.7 0 0014.91 3.92 117 117 0 0025.84 1.49c1.47-.06 3-.14 4.42-.23a2.15 2.15 0 002-2.66l-4.17-21.76-3.04 2.37a91.83 91.83 0 0131.48 40.25 100.19 100.19 0 014.64 14.46c.63 2.63 4.68 1.51 4-1.12zM585.28 732.65c-12.55-9.67-35.75-22-18.46 4.69 26.82 42.67 27.5 97 33.41 145.93 12.89 18.77 34.06-68.89 26.41-79-4-20.17-22.21-34.68-21-56.27-1-6.76-5.52-27.86-12.69-29-3.45 2.41 1.57 10-7.1 11.58" fill="#797a7a"/><path d="M586.29 730.92a80.93 80.93 0 00-14.89-9.34c-3.16-1.48-9.43-4.39-12-.44-1.23 1.86-.71 4.38 0 6.34a52.81 52.81 0 005.74 10.87 145.28 145.28 0 0113.32 27.24c7.15 19.22 10.92 39.53 13.54 59.82 1.33 10.32 2.38 20.68 3.41 31 .51 5.09 1 10.17 1.56 15.25.27 2.51.55 5 .84 7.54q.19 1.82.42 3.63a4.13 4.13 0 001.07 2.41 6.11 6.11 0 007.73 1.9c2.95-1.47 5-4.68 6.57-7.43a83.32 83.32 0 005.94-13.38c2-5.48 3.63-11.08 5.08-16.72 2.77-10.77 5-21.9 5.61-33 .19-3.55.32-7.38-.66-10.84a10.1 10.1 0 00-.76-1.95 19.35 19.35 0 01-1-3.62 68.91 68.91 0 00-5.07-12.36c-4-7.76-9-15.05-12.12-23.21a41.46 41.46 0 01-2.94-12.75 48.12 48.12 0 00-.26-5.63c-.23-1.34-.49-2.68-.77-4-1.42-6.74-3.2-14-6.88-19.91-1.4-2.25-3.36-4.66-6.09-5.25-3.68-.79-4.09 4.4-4.21 6.79a6.11 6.11 0 01-.62 3 2.66 2.66 0 01-.93.93 7.12 7.12 0 01-2.57.87c-2.54.49-1.46 4.36 1.07 3.88 3.36-.65 6.17-2.64 6.81-6.16a39 39 0 00.33-3.89c0-.3.06-.65 0-.51 0-.24.1-.47.16-.7s.12-.34 0-.08a1.68 1.68 0 01.15-.3s.21-.23.09-.14l-1.55.2a5.38 5.38 0 01.79.2c-.42-.14.31.18.44.26a3 3 0 01.37.25c.28.2-.34-.31.11.09.27.24.53.5.78.77a18.48 18.48 0 012.48 3.85 57.36 57.36 0 013.8 10.6c.91 3.34 1.67 6.73 2.25 10.14.32 1.83.06 3.72.21 5.65a43 43 0 001.23 7.4c2.43 9.38 7.77 17.63 12.38 26a78.91 78.91 0 016 13c.37 1.14.71 2.28 1 3.44a11.33 11.33 0 00.81 2.77c.12.23.25.47.38.69s-.17-.52 0 0c.06.18.13.36.18.54a15.65 15.65 0 01.45 2.14c.06.34 0-.13 0-.16v.37l.06.66c0 .46.07.93.09 1.4a62.28 62.28 0 01-.13 6.83 138.88 138.88 0 01-2.31 16.9c-1.22 6.41-2.72 12.77-4.5 19-.86 3-1.78 6-2.78 8.94-.5 1.46-1 2.91-1.57 4.35-.22.6-.45 1.19-.69 1.78-.12.32-.25.64-.38 1l-.24.56c0 .06-.24.58-.1.26a66.31 66.31 0 01-3.24 6.68c-.52.92-1.07 1.82-1.66 2.69-.12.18-.25.35-.37.52s-.47.63-.29.4l-.25.31-.49.57a10.7 10.7 0 01-.82.83l-.4.34-.2.16c-.29.25.37-.25.08-.06l-.8.51-.41.19c.64-.31.17 0 0 0a1.58 1.58 0 00-.36.09c-.4.16.47.05.06 0a1.7 1.7 0 00-.39 0c-.53 0 .32.16 0 0a1.82 1.82 0 00-.38-.11c-.43 0 .37.23.06 0s-1-.72-.46-.24a9.85 9.85 0 01-.74-.7c-.13-.14-.25-.28-.37-.43.34.4 0 0-.11-.18l.27 1c-1.84-15.23-3.14-30.52-4.84-45.77a418.38 418.38 0 00-7.24-46 189.77 189.77 0 00-14.93-43.27 144.09 144.09 0 00-5.59-10.11c-1.8-3-3.73-5.85-5.27-9a22 22 0 01-1.26-3c-.13-.4-.25-.81-.34-1.22 0-.19-.08-.39-.11-.58s0 .13 0 .14v-.36c0-.28.14-1 0-.41l.09-.38c.1-.39-.17.29 0 .07s-.11.07-.07.06.14-.19.23-.23c-.16.06-.36.29-.09.11s-.26 0 0 0 .23-.07.35-.09-.47 0 0 0h1l.44.08c.39.07.78.17 1.17.28a24 24 0 014.71 1.91 81 81 0 0111.32 6.94c.87.63 1.74 1.27 2.6 1.93a2 2 0 002.75-.72 2.06 2.06 0 00-.73-2.75zM529.65 760.32c-13.77-2.24-17.49 13-25.71 20-19.78 6.54-10 23.26-11.61 38.24-12.63 25.23 57.47 45.7 74.08 35 12.07-9 13.68-41 8.1-54.09C565 782.09 544.35 774 529.21 762" fill="#797a7a"/><path d="M530.18 758.38a16.69 16.69 0 00-9.74 1.17 20.51 20.51 0 00-6.79 5.45c-3.87 4.48-6.62 10-11.13 13.89l.88-.52c-6.2 2.1-11.64 5.94-13.37 12.55-1.48 5.63-.45 11.59.1 17.27a52.75 52.75 0 01.19 10.36l.28-1a15.68 15.68 0 00.18 14.59c2.63 5 7.28 8.82 11.94 11.84a84.6 84.6 0 0018.45 8.71 107.82 107.82 0 0020.23 4.94 62.75 62.75 0 0018.15.35 22.57 22.57 0 006.68-2c2.67-1.31 4.71-3.8 6.28-6.26 4.36-6.82 6-15.3 6.74-23.23s.54-16.23-1.57-23.91a30.19 30.19 0 00-5.94-10.8 63.41 63.41 0 00-10.58-10.26c-7.87-6.19-16.6-11.12-24.84-16.77-1.94-1.32-3.85-2.69-5.69-4.13a2.07 2.07 0 00-2.84 0 2 2 0 000 2.84c10.1 7.92 21.7 13.71 31.67 21.81a53.84 53.84 0 0112.41 13.66c2.25 3.73 3 8.46 3.36 12.76 1 10.34.2 21.57-3.75 31.27-1.39 3.4-3.61 7.53-6.72 9.26-.27.15-.54.28-.82.41l-.39.18c.38-.16 0 0-.14.05-.67.24-1.34.46-2 .64s-1.45.35-2.18.47c-.36.07-.72.12-1.08.17h-.3l-.66.08c-8 .78-16-.41-23.75-2.23a96.27 96.27 0 01-24.93-9.29 47.68 47.68 0 01-9.35-6.54c-.63-.59-1.25-1.2-1.83-1.84-.26-.28-.52-.57-.77-.86l-.42-.51a1.86 1.86 0 01-.19-.26 21.06 21.06 0 01-1.29-1.94c-.19-.33-.37-.66-.54-1-.09-.17-.46-1-.32-.67a14.83 14.83 0 01-.66-2.05c-.08-.34-.15-.69-.2-1v-.1-.65a11.68 11.68 0 01.07-2.13c0-.1-.05.27 0-.12 0-.17.07-.33.1-.5.09-.39.19-.78.31-1.17.31-1 .46-1 .82-2a13.42 13.42 0 00.36-4.11 74.42 74.42 0 00-.45-7.75c-.46-4.6-1.29-9.61-.47-14.12.85-4.7 3.72-7.94 8.05-10 1.43-.68 3-1 4.19-2.05a27.1 27.1 0 002.5-2.64c1.62-1.93 3.07-4 4.53-6.06 2.59-3.65 5.43-7.83 9.71-9.64a12.12 12.12 0 016.53-.7 2.07 2.07 0 002.47-1.41 2 2 0 00-1.41-2.47zM458.08 836.1c-.45 4 2.6 10.72 7.3 7.77 2.19-1.88 1-6.09 3.39-7.74 7.66 1.66 7.26 11.33 9.24 17.34 3.91 7.32 15 23.31 1.28 26.29-5.37-1-16.91-12.77-17-.15-.7 9-15.92 12.39-14.72 21.31 2.22 5.24 1.6 11.43-4.1 14.23-10.65 5.42-29.69-1.73-20.25-15.52 3.75-7.09 11.29-9.77 17.77-13.39 5.31-16.29-.41-39 16.66-50.53" fill="#797a7a"/><path d="M456.07 836.1c-.36 3.89 1.64 9.42 5.88 10.38a5.52 5.52 0 006-2.75 13.18 13.18 0 001-3.44c.12-.66.21-2 .81-2.42l-1.55.2c7.35 1.71 5.49 11.76 8.33 16.94 1.51 2.77 3.14 5.47 4.53 8.29s2.75 6 2.83 8.91a5.09 5.09 0 01-.9 3.39 4.88 4.88 0 01-1.51 1.25 10.3 10.3 0 01-2.76 1h1.07a7.79 7.79 0 01-2.51-1c-1.11-.56-2.19-1.2-3.28-1.82a24.13 24.13 0 00-6.59-3c-2.39-.52-4.82.06-6.08 2.32-1.37 2.45-.6 5.35-1.82 7.64-2.5 4.69-7.91 7.07-11.23 11.1a10.59 10.59 0 00-2.79 7.33c.11 1.63 1 3.13 1.17 4.78a9 9 0 01-.54 4.53c-2.1 5-9.28 5.78-13.87 5a15.15 15.15 0 01-6.73-2.7 9 9 0 01-1.94-2.11 6.31 6.31 0 01-.89-2.49c-.28-2.86 1.31-5.33 2.8-7.76a21.81 21.81 0 017.8-7c1.55-.91 3.15-1.74 4.75-2.56s4.25-1.62 4.87-3.29a43.93 43.93 0 002-9.22c1.69-12.3.62-27.3 9.94-36.9a25.48 25.48 0 013.82-3.21c2.12-1.45.11-4.94-2-3.47-6.4 4.39-10.4 10.81-12.37 18.25-1.9 7.15-2.15 14.61-3 21.92a58.23 58.23 0 01-2.26 11.56l.93-1.2c-3.86 2.14-7.95 3.9-11.54 6.49a26 26 0 00-8.48 10.3 11.43 11.43 0 00-.29 9.79 13.07 13.07 0 006.65 6c6.08 2.7 14.46 2.81 20-1.34a11.7 11.7 0 004.36-11 17.2 17.2 0 00-.67-3.09 4.82 4.82 0 01-.43-2.41 7.22 7.22 0 011.52-3.21c3.91-5 11.24-7.79 12.93-14.51.42-1.64.08-3.46.76-5-.12.28.35-.56.21-.35a.55.55 0 01.16-.15 1.15 1.15 0 01.27-.14c-.44.16-.05 0 0 0 .3 0-.36 0 0 0h.51c.42 0-.07-.07.47.07l.87.24a12 12 0 011.7.71c1.42.7 2.77 1.5 4.14 2.28a33.87 33.87 0 003.94 2 8.66 8.66 0 001.56.52 6 6 0 003.27-.57 8.84 8.84 0 005.93-6.81c.5-3.23-.42-6.5-1.64-9.48a82 82 0 00-4.66-9.21 17.93 17.93 0 01-1.85-3.65c-.45-1.63-.75-3.29-1.09-5-.73-3.52-1.65-7.26-4.19-10a9.8 9.8 0 00-4.76-2.77c-2.54-.59-3.88 2.13-4.36 4.2-.29 1.27-.2 3.73-1.79 4.09-1.09.24-2-.87-2.57-2a8.22 8.22 0 01-.8-4.42 2 2 0 00-4 0zM484.35 900c-3.52 12.88 12.92 9.14 18.1 3.07l-17.15-3.88" fill="#797a7a"/><path d="M482.42 899.45a10.78 10.78 0 00.13 7.18 6.7 6.7 0 004.17 3.55c3.84 1.26 8.36-.08 11.84-1.79a17 17 0 005.31-3.92 2 2 0 00-.88-3.36l-17.16-3.88c-2.52-.57-3.59 3.3-1.07 3.88l17.16 3.89-.89-3.36a12.8 12.8 0 01-1.69 1.6c.39-.31-.13.1-.22.15a6 6 0 01-.52.36c-.36.24-.73.47-1.11.68s-.78.42-1.18.61l-.53.24c-.06 0-.39.17-.15.07s-.18.07-.23.09a20.62 20.62 0 01-2.53.8c-.4.1-.79.18-1.19.25h-.32c-.29.05.37 0 .07 0l-.69.06a10.47 10.47 0 01-1.12 0H488.84c-.47 0 .43.1 0 0s-.65-.13-1-.24c-.07 0-.61-.23-.3-.09s-.23-.12-.32-.18l-.36-.22c-.38-.23.23.26-.07-.06a2.83 2.83 0 00-.3-.3c-.36-.38.13.28-.12-.19-.08-.14-.16-.3-.25-.44-.17-.29 0 .06.05.12 0-.14-.09-.26-.13-.39s-.08-.38-.14-.56c-.09-.34 0 0 0 .09v-.4a8.25 8.25 0 01.05-1.57c0-.32-.05.29 0 0 0-.17.06-.34.1-.51.07-.36.16-.71.25-1.07.67-2.5-3.21-3.57-3.87-1.06zM431.32 945.08c-7.72-17.88-7.78 9.29-19.21.6a31.26 31.26 0 00-1.27 18.42 23 23 0 0118.47-.6c1.59-2.65-.79-6.74 1.41-8.91 4.85-3.25 7.71 4.06 6.56 8.12a26.55 26.55 0 0111.26 4.3c3.33-5.42 10.64-2 15.73-2.44 9.61-.39 12.37-12.68 19.31-17.52 3.23-.87 5.83 3.48 4.76 6.64-2.2 6.41-11.94 7.25-13.7 13.95-.81 3.7 1.52 10.51-3.7 11.54-3-12.34-21.95-10.6-22.69 2.08-8.28-19-29.41-9.32-17.42 6.67 34.48 1.76 7.37 41.44-8.41 51.92-18.62 16.92 33.27 56.91 41.31 19 3.52-23.68 2.58-52.1 33.51-55 14.66.46 23.39-8.47 10.32-19.48-6.6-7.64-25.08-9.8-24.29-21.38 5.82-13.46 21.58-.86 29.87 3.61 7 4.76 15.82 1.09 9.82-6.88-5.73-8-20.07-24-30.51-21.76-3.25 2.13-2.69 8.74-6.57 8.91-.55-6.42-6.5-16-13.5-11-4.48 4.05.65 15.05-6.68 16.8.11-6.39-4.35-14.28-11.07-15.17-5.5 3-3.07 13.35-4.74 18.86-3.68-4.56-10.69-19.79-16.79-9.83" fill="#797a7a"/><path d="M433.05 944.07c-1.5-3.44-4.87-9.91-9.34-6a20.68 20.68 0 00-3 3.9c-.23.33-.46.65-.7 1s.16-.17-.15.19c-.16.19-.31.38-.48.57a11.9 11.9 0 01-.87.87l-.21.19c-.21.18.29-.21.07-.06s-.38.26-.58.38l-.24.14c-.38.23.14 0 0 0s-.39.11-.58.18c-.5.17.22.06-.3 0h-.73c.54.05-.25-.08-.4-.13l-.33-.11c-.53-.18.34.18-.2-.08a11.91 11.91 0 01-1.83-1.14c-1.14-.85-2.54.12-2.95 1.2a33.65 33.65 0 00-1.26 19.48 2 2 0 002.95 1.2 21.33 21.33 0 0116.91-.4 2 2 0 002.27-.92c1-1.91.86-3.89.73-6a4.15 4.15 0 01.21-2.32 1.83 1.83 0 011.21-.42 1.55 1.55 0 011 .64A5.56 5.56 0 01435 958a7.24 7.24 0 01.3 4.18 2 2 0 001.4 2.47 25.82 25.82 0 0110.78 4.09 2 2 0 002.75-.72c1.56-2.41 4.52-2.24 7.07-2 3 .3 5.83.85 8.8.34 5.77-1 9.32-6.09 12.42-10.55a35 35 0 015.06-6.24 7 7 0 01.73-.62c-.11.07-.26-.09.1 0a1.86 1.86 0 011.15.64 3.73 3.73 0 01.92 3.13c-.45 2.39-3 4-4.85 5.24-2.28 1.48-4.77 2.84-6.6 4.89a10.17 10.17 0 00-2.37 4.25 16.32 16.32 0 00-.24 4.3 17.77 17.77 0 01-.15 3.88 2.09 2.09 0 01-1.9 2l2.47 1.4a12.91 12.91 0 00-10.15-9.68 14.46 14.46 0 00-13.12 4.08 13.19 13.19 0 00-3.33 8.14l3.75-1c-2.55-5.75-7.45-11.15-14.12-11.47a10 10 0 00-10.45 8 14.21 14.21 0 001.56 8.76 19.24 19.24 0 001.33 2.29c.78 1.17 1.35 2 2.85 2.12a33.94 33.94 0 014.71.63 20 20 0 013.64 1.15 15.32 15.32 0 011.5.8l.68.44a2 2 0 01.51.39 8.42 8.42 0 011.83 2 6.62 6.62 0 011.07 2.41 8.38 8.38 0 01.41 2.71v1.54c0 .27 0 .53-.06.79 0 .43-.05.5-.07.68a32.41 32.41 0 01-2.08 7.2 63 63 0 01-8.5 14.2 67.82 67.82 0 01-11.22 11.62c-.62.49-1.78 1.19-2.63 1.93a14 14 0 00-2.22 2.58 13.23 13.23 0 00-2.16 5.7c-1.24 9.21 5.91 17.75 12.75 23 7.1 5.39 17.3 9.35 25.92 5.22 4.66-2.23 7.63-6.74 9.31-11.48a46.37 46.37 0 001.89-9.63c.42-3.32.8-6.65 1.24-10 1.51-11.32 3.66-24.72 13.27-32.19a26.24 26.24 0 018.28-4.25 36.85 36.85 0 015.38-1.26c2.05-.33 4.07-.25 6.12-.4 6.3-.48 15-3.31 15.25-10.94.11-3.71-2.15-7.1-4.61-9.68a37.86 37.86 0 00-7.75-6.48c-5.16-3.12-11.54-5-15.84-9.4a7.84 7.84 0 01-2.48-6.3l-.28 1c1.37-3.06 3.47-5.07 6.72-5.05s6.69 1.58 9.63 3.12c3.19 1.67 6.21 3.63 9.32 5.44 3.37 2 6.73 3.74 10.77 3a6.25 6.25 0 005.38-7.36 13 13 0 00-2.68-5.25q-1.6-2.17-3.35-4.25c-5.07-6.09-11.08-12.3-18.29-15.82a20 20 0 00-5.76-1.94c-2-.3-4.51-.51-6.11.9s-2.23 3.31-2.93 5.16a13 13 0 01-.93 2.09 1.49 1.49 0 01-.51.64c.07-.06-.28.14-.38.14l2 2c-.56-5.87-4.35-13.84-11.05-14.35a7.67 7.67 0 00-7.67 4.68c-1 2.51-.92 5.32-1.07 8a11 11 0 01-.66 3.8 3.1 3.1 0 01-2.27 1.8l2.54 1.94c0-6.15-3.26-13.06-8.91-15.92-1.32-.66-3.48-1.65-4.95-1.09a7.15 7.15 0 00-3.06 2.81c-1.55 2.42-1.86 5.5-2 8.29-.19 3 0 6.15-.8 9.07l3.35-.89-.62-.86-.91-1.35c-.63-1-1.25-1.92-1.89-2.87a35.22 35.22 0 00-4.73-5.78c-1.58-1.48-3.58-2.83-5.84-2.74-2.72.11-4.64 2.15-6 4.3s2.1 4.22 3.47 2a6.42 6.42 0 011.86-2.06 1.31 1.31 0 01.83-.28c-.33 0 .58.11.33 0 1.37.32 2.61 1.55 3.75 2.85 2.61 3 4.4 6.58 6.87 9.68 1 1.24 3 .44 3.36-.88.94-3.27.74-6.78.95-10.14.16-2.59.39-6.1 2.86-7.52l-1.55.2c6.05.9 9.63 7.54 9.6 13.23a2 2 0 002.55 1.94c5.87-1.53 5.71-7.58 6-12.5.13-2 .3-4.17 2.14-5.14 2.25-1.18 4.36 0 5.93 1.71a14.78 14.78 0 013.54 8.14 2 2 0 002 2c4.23-.34 4.84-4.31 6.37-7.46a3.88 3.88 0 011.23-1.74c-.44.26 0 .13.19.11a10.59 10.59 0 011.38 0 13.54 13.54 0 014.62 1.19 37.83 37.83 0 019.92 6.81 84.51 84.51 0 018.55 9q1.53 1.85 3 3.78c.94 1.3 2.07 3.07 1.81 4.42a1.51 1.51 0 01-.65 1 3.78 3.78 0 01-1.76.67 8.56 8.56 0 01-4.71-.85c-3.27-1.56-6.3-3.74-9.43-5.56a42.52 42.52 0 00-10.57-4.74c-3.34-.85-7.1-.89-10 1.15A11.93 11.93 0 00482 961a7.59 7.59 0 00-.3 5.77c2 6.81 9.64 10 15.39 12.88 2.88 1.47 5.95 3 8.27 5.24 2.59 2.51 6.38 5.51 6.6 9.31a4.69 4.69 0 01-1 3.31 9.4 9.4 0 01-3.86 2.77c-4.24 1.8-8.78 1.24-13.22 1.93-7.34 1.13-14.39 4.3-19.32 10-4.55 5.26-7.08 11.88-8.66 18.57-1.71 7.24-2.44 14.67-3.36 22a43 43 0 01-2.1 10.17 16.6 16.6 0 01-4.23 6.47 11.83 11.83 0 01-5.47 2.84 11.1 11.1 0 01-3.13.34c-.56 0-1.11 0-1.67-.07l-.84-.09c-.36 0 .48.08-.12 0l-.56-.09a33.38 33.38 0 01-22.75-18c.15.34-.1-.25-.14-.37q-.16-.42-.3-.84a17 17 0 01-.48-1.69c-.05-.22-.1-.45-.14-.67s-.13-1-.08-.47a13.09 13.09 0 01-.09-1.66 9.15 9.15 0 011.51-5.2c.16-.24.32-.48.5-.71-.24.31.15-.19.24-.29s.4-.45.62-.67l.27-.26c.34-.33-.17.1.17-.15 1.08-.8 2.18-1.58 3.22-2.43a64 64 0 006.35-6.08 76.87 76.87 0 0011.48-16c2.66-5 5-10.85 4.73-16.65a13.7 13.7 0 00-8.38-12.17 29.61 29.61 0 00-10.31-2.16l1.74 1c-1.59-2.14-3.14-4.9-3.3-7.38a5.85 5.85 0 015.51-6.72 9.16 9.16 0 015.75 1.65c2.79 1.82 4.65 4.81 6 7.82.88 2 3.62.76 3.74-1a9.16 9.16 0 018.59-8.42c4.69-.35 8.9 2 10.15 6.88a2 2 0 002.48 1.4c3.39-.76 4.76-3.62 5-6.84.18-2.6-.55-5.38.72-7.57 1.43-2.43 4.23-3.8 6.52-5.28 2.64-1.71 5.16-3.68 6.37-6.68a7.58 7.58 0 00-3-9.11 4.61 4.61 0 00-5.11.15 20.65 20.65 0 00-3.19 3.08c-2.05 2.44-3.73 5.16-5.64 7.71-1.58 2.12-3.49 4.32-6 5.36-3.2 1.33-6.8.34-10.1 0-4-.36-7.89.42-10.22 4l2.75-.72a28.75 28.75 0 00-11.74-4.5l1.41 2.48c1-3.92-.42-10.15-4.9-11.32a5.28 5.28 0 00-6.26 3.26 9.57 9.57 0 00-.27 3.84c.08 1.11.33 2.43-.22 3.45l2.27-.92a25.23 25.23 0 00-20 .8l2.95 1.2a29.86 29.86 0 011.16-17.28l-3 1.2a7.48 7.48 0 0011.18-1 51.33 51.33 0 003.17-4.31c.23-.31.25-.31.12-.16l.32-.38a7.82 7.82 0 01.71-.7s-.39.24 0 0-.06 0-.07 0c.27 0 .22-.23.1-.06s-.3 0-.05 0-.4-.1-.19 0c.51.16-.25-.17 0 0l.19.1s-.14-.12 0 0l.49.49a2.43 2.43 0 01.2.25c-.18-.23 0-.06 0 .08a25.74 25.74 0 012.3 4.38 2 2 0 002.75.72 2.05 2.05 0 00.72-2.75z" fill="#797a7a"/><path d="M395.36 951.75c-1.69 47.13 19.61-6.94 20.42 38.19.4 1.82-1.45 2.56-3 1.79-6.56-4.07-5.46 7.18-9.34 9.69-2.12 1.93-6.08 2.15-7.47-.36-2.19-4.63 3.95-7.82 5.13-11.78.9-12.21-21.95-20.67-6.11-40.39" fill="#797a7a"/><path d="M393.35 951.75a95.24 95.24 0 00.12 11.08 27.51 27.51 0 001.16 6.69c.95 2.76 2.84 5.18 6 5.15 2.22 0 4.23-1.1 6.29-1.78.5-.16 1-.29 1.51-.41.69-.16-.33 0 .25 0h.76c.55 0-.42-.17.21 0a1.92 1.92 0 00.32.09c.42.07-.33-.2 0 0l.61.37c-.5-.32.06.09.28.31s.25.33 0 0c.09.13.18.25.26.38.21.33.39.68.57 1s0-.13.09.19.15.39.22.59c.18.51.33 1 .47 1.54a41.53 41.53 0 011.11 8c.07 1 .11 1.94.14 2.91 0 .49 0 1 .05 1.48a3 3 0 000 .84c.27.84 0-.32.19-.12a6.17 6.17 0 00-3.35-1.22c-2.82-.23-4.4 2.11-5.34 4.41-.48 1.18-.85 2.39-1.28 3.58a9.83 9.83 0 01-.55 1.34q-.18.38-.39.72l-.22.33c-.36.51.23-.28-.15.18a4.87 4.87 0 01-1.25 1 3.85 3.85 0 01-2 .51 1.78 1.78 0 01-1.91-2.08c.15-1.32 1.2-2.53 2-3.54a21.24 21.24 0 003-4.22c1.15-2.45.42-5.38-.58-7.78-2-4.71-5.58-8.48-8.09-12.89-2.74-4.82-3.34-9.88-.7-15.08a29.08 29.08 0 013.23-5 2.08 2.08 0 000-2.85 2 2 0 00-2.84 0c-4.48 5.63-7.61 12.44-5.46 19.68 1.58 5.36 5.33 9.56 8.27 14.18a14.91 14.91 0 012.7 6.31v.45a3.79 3.79 0 010 .89 9 9 0 01-.95 1.61c-1 1.44-2.25 2.69-3.21 4.16-2.14 3.28-2 8.11 2.14 9.72 3.37 1.32 7.33-.4 9.24-3.2a15.43 15.43 0 001.73-3.67c.4-1.12.83-2.56 1.21-3.34.11-.23.23-.47.36-.69s.33-.49.25-.38a.88.88 0 01.23-.24c.23-.18-.23.22 0 0s.34-.35 0-.05c0 0 .5-.14.19-.07s.07 0 .15 0c.34 0-.48-.13.11 0l.58.19a7.14 7.14 0 002.9 1 3.69 3.69 0 003.84-4c-.1-2-.12-4-.27-6a43.11 43.11 0 00-1.35-8.67c-.92-3.22-2.75-6.52-6.4-6.9-2.32-.25-4.5.79-6.62 1.56-.49.17-1 .34-1.48.47l-.77.16c-.29.07.58 0 .13 0h-.41c-.37 0-.73-.17-.17 0-.21-.07-.46-.13-.68-.18.64.14.06 0-.22-.17s.34.38.07 0a3.22 3.22 0 00-.32-.32c-.33-.29.14.22 0 0s-.16-.23-.23-.36-.55-1.11-.34-.6a15.62 15.62 0 01-.79-2.71 45.85 45.85 0 01-.68-8.45c0-2.06 0-4.12.09-6.19.09-2.58-3.93-2.58-4 0zM589.76 1068.85c-12.26 27.14-29.85 52.56-43.61 79.05-10.84 13.77-50.85 31.46-37.67-2.66 23.58-30 57-53.67 73.47-89.09-24.31 3.86-38.09 17.55-63.9 1.36-10.53-8.31-32.9-26.5-38.84-5.3-3.66 31-8.73 23.94-28.6 41.52-9.39 19.28 3.82 21.91 17.42 10.51 6.89-7.31 16.3-2.87 24.74-4.55 38.18-14.85 3.49 17-.69 31.06-2.82 9.32-12.3 20.27-20 8-1.22-2.08-2.46-6.6-5.79-5.2-5.5 3.55-6.18 11.85-10.9 16.23-5.17 2.42-2.54-7.51-5.62-8.88-12.66 10 .33 74.22-2.59 88.82 119.89-6.18 105.73 25.45 112.81-76.11 9.45-44.43 43.3-51.64 41.51-109.22-6.95 5.99-8.76 15.8-11.74 24.46z" fill="#797a7a"/><path d="M588 1067.83c-6.23 13.78-13.72 26.94-21.35 40-3.85 6.56-7.73 13.09-11.53 19.67q-2.79 4.82-5.48 9.68-1.35 2.41-2.66 4.85c-.81 1.51-1.51 3.17-2.37 4.61a17.82 17.82 0 01-3.12 3.32 59.961 59.961 0 01-3.55 3 62 62 0 01-9.27 5.75 43.11 43.11 0 01-9.42 3.61c-.68.17-1.36.31-2 .43a12.45 12.45 0 01-1.93.22 16 16 0 01-2 0h-.47c-.52 0 .44.08-.06 0-.29 0-.58-.1-.87-.17s-.63-.19-.95-.29c-.11 0-.53-.23 0 0l-.48-.24a7.85 7.85 0 01-.78-.49c.47.33-.26-.25-.39-.38l-.27-.3c-.3-.33.24.36 0 0s-.34-.55-.5-.83c0-.09-.24-.54 0-.05-.08-.19-.14-.38-.21-.57a10 10 0 01-.27-1.08l-.09-.5c.07.49 0-.27 0-.36v-1.35a19.31 19.31 0 01.25-2.57 42.7 42.7 0 012.31-7.89l-.51.89c9.34-11.86 20-22.56 30.56-33.34s21.2-21.93 30.18-34.27a133.6 133.6 0 0013-21.88 2 2 0 00-2.27-3c-8 1.28-15.55 3.88-23.26 6.15-6.81 2-13.86 3.54-21 2.55a41.17 41.17 0 01-12.18-3.84 38.41 38.41 0 01-6-3.4c-1.08-.8-2.11-1.67-3.17-2.49-5-3.85-10.12-7.67-15.86-10.29-4.95-2.26-11.12-4-16.14-1a14.26 14.26 0 00-5.59 7.09c-1.5 3.65-1.52 7.8-2.21 11.67a56.39 56.39 0 01-2.13 8.68 20.8 20.8 0 01-2.65 5.29l-.39.54c.23-.31-.07.08-.15.18-.3.36-.61.7-.93 1a23.29 23.29 0 01-2.06 1.91l-.53.44-.27.21c.06 0 .29-.23 0 0l-1.16.86c-.91.65-1.83 1.29-2.74 1.92-2.19 1.51-4.37 3-6.49 4.62q-2.06 1.56-4 3.19c-.64.52-1.28 1.06-1.91 1.6a7.41 7.41 0 00-2.2 2.76c-2.28 5-5.32 13.5.19 17.61 4.62 3.43 11.45.52 15.71-2.06A43 43 0 00469 1106c1.56-1.28 2.83-2.61 4.8-3.29 3.66-1.27 7.61-.84 11.41-.68a38.14 38.14 0 005.95-.1 28 28 0 006.05-1.77c1.64-.57 3.29-1.11 5-1.55.6-.15 1.2-.3 1.8-.42l.86-.17c.1 0 .94-.14.55-.09.46 0 .91-.09 1.37-.1h.6c.18 0 .88.14.25 0 .28.06.54.13.82.21 0 0-.43-.22-.05 0s-.17-.2 0 0c.36.39-.22-.36.14.18.13.21-.21-.5-.06-.08s0-.1 0 0v.8c0-.65-.06.23-.13.49s-.2.67-.32 1c-.07.18-.14.36-.22.54.21-.49-.11.23-.17.36-.4.86-.85 1.69-1.33 2.51-1.13 2-2.39 3.85-3.66 5.72-2.81 4.13-5.77 8.15-8.41 12.39a47.63 47.63 0 00-3.07 5.61c-1.14 2.57-1.81 5.26-3.22 7.73s-3.6 5.52-6.51 6.58c-3.17 1.16-5.83-1.27-7.48-3.91s-2.57-6.43-6.19-6.64c-3.83-.21-6.54 4.29-8.05 7.23-.82 1.6-1.54 3.27-2.34 4.88-.4.79-.82 1.58-1.29 2.34s-1.12 1.42-1.64 2.17c-.1.14-.48.34 0 .12a2 2 0 01-.4.12h.09.07c.21.08 0-.13.07 0s-.07-.13-.08-.18c-.1-.34 0-.06 0 0a3.38 3.38 0 01-.11-.34c-.06-.24-.13-.49-.18-.74-.13-.61-.21-1.24-.3-1.86-.3-2.14-.61-4.92-2.79-6a2.13 2.13 0 00-2.44.31c-3.4 2.75-4.58 7.73-5.25 11.83a104.2 104.2 0 00-.93 19.26c.37 14.39 2.08 28.7 3 43.06.2 3.09.38 6.19.4 9.29 0 1.25 0 2.51-.08 3.76 0 .53-.09 1-.14 1.58s.07-.31 0 .23c0 .24-.07.47-.12.71a2 2 0 001.94 2.54q21.42-1.1 42.89-.84c9.9.12 19.79.51 29.69.79 6.31.17 12.71.42 19-.39 4.4-.57 8.8-1.73 12.18-4.77s5-7.37 6-11.61c1.62-6.74 2.09-13.77 2.57-20.67.76-10.78 1.26-21.59 2-32.38a60.66 60.66 0 011-10.17 91.25 91.25 0 013-10 98.25 98.25 0 018-16.5c5.83-9.86 12.94-18.9 18.48-28.93a93.73 93.73 0 0011.38-39 128.49 128.49 0 00.22-12.87 2 2 0 00-3.43-1.42c-7.37 6.42-9.25 16.48-12.27 25.3-.84 2.46 3 3.51 3.88 1.07 2.78-8.15 4.42-17.59 11.23-23.53l-3.43-1.42c.43 14.66-1.44 29.39-7.52 42.85-4.72 10.47-11.55 19.69-17.81 29.25-6.89 10.51-12.54 21.69-15.51 34a60.48 60.48 0 00-1.16 10.5q-.3 4.68-.58 9.37c-.32 5.42-.62 10.84-.94 16.27-.26 4.35-.53 8.7-.91 13-.15 1.8-.32 3.59-.53 5.39 0 .4-.09.81-.14 1.22 0 .17 0 .35-.07.52s0 .2 0 .3c-.06.5.06-.46 0 0-.1.75-.21 1.5-.33 2.24a46.43 46.43 0 01-1.78 7.63c-.17.53-.38 1-.57 1.56s.12-.27 0 0-.09.2-.13.31-.22.48-.34.71a19.39 19.39 0 01-1.49 2.48c-.33.48.28-.31-.12.16l-.46.53a10.42 10.42 0 01-.94.94l-.46.4c-.5.44.33-.2-.23.18-.36.25-.72.49-1.1.72s-.8.44-1.22.64c-.24.11-.78.33-.19.09l-.74.29a21.6 21.6 0 01-3 .85c-.56.13-1.11.23-1.67.33l-.8.12c-.47.07 0 0 0 0l-.51.07c-1.3.15-2.6.25-3.91.32-3.19.17-6.38.16-9.56.11-8.92-.14-17.84-.56-26.76-.76q-19.54-.45-39.08.2-5.88.2-11.75.5l1.94 2.54c.87-4.46.54-9.19.29-13.7-.37-6.69-1-13.35-1.57-20-.62-7.34-1.21-14.68-1.51-22a130.2 130.2 0 01.32-19.65 37 37 0 011.66-8c.09-.26.19-.52.29-.78a1.82 1.82 0 01.2-.48c.23-.47.47-.94.74-1.38.13-.22.28-.43.43-.65s-.22.2.22-.28a10.06 10.06 0 011-1l-2.43.31c.43.22 0-.1.18.12-.26-.41.08.14.13.25-.16-.37.07.23.11.36a8 8 0 01.23 1c.23 1.15.32 2.32.54 3.47.48 2.59 2.1 4.89 5.05 4.24 1.84-.4 3-2 4-3.45a34.8 34.8 0 002.7-5 50 50 0 012.43-4.79c.66-1.1 1.9-3.2 3.25-3.51h.13a1.26 1.26 0 01.54.41 7.16 7.16 0 011.09 1.72 24.45 24.45 0 002.77 4.56c2.32 2.87 5.67 4.77 9.44 4.07 3.44-.64 6.19-3.29 8.22-6a31.9 31.9 0 004.59-9.3 13.46 13.46 0 01.93-2.22c.49-1 1-1.94 1.57-2.88 1.21-2.07 2.54-4.08 3.89-6.07 2.78-4.07 5.72-8 8.32-12.25 1.7-2.76 4.25-6.58 3.52-10-.87-4.07-5.82-3.7-8.93-3.12a58.3 58.3 0 00-9.57 2.9 12.56 12.56 0 01-2.55.79 26.91 26.91 0 01-3.23.19c-2 0-4-.13-6-.21-4-.15-8.18 0-11.81 2-1.86 1-3.23 2.57-4.88 3.84a34.2 34.2 0 01-4.66 3 15.71 15.71 0 01-7.52 2.22 4.84 4.84 0 01-2.33-.66 1.81 1.81 0 01-.29-.19s.25.2.08 0a5.44 5.44 0 01-.48-.48c-.19-.24.18.24 0 0l-.19-.3-.17-.32c-.1-.19.07.22-.06-.12-.92-2.51-.09-5.68.86-8.34.34-1 .74-1.94 1.17-2.88a6.54 6.54 0 012-2.19c1.29-1.09 2.59-2.16 3.92-3.18 3.92-3 8.17-5.61 12-8.68a23.25 23.25 0 007.25-9.61 43.17 43.17 0 002.25-7.66c.36-1.71.66-3.45.93-5.18.34-2.18.43-4.47.9-6.62.56-2.56 2.18-5.57 4.18-7a8.54 8.54 0 016.36-1.25c5.54.76 11.16 4.38 15.83 7.62 2.42 1.69 4.77 3.48 7.09 5.31a47.72 47.72 0 0010.85 6.34 42.5 42.5 0 0023.22 3c7.43-1.09 14.51-3.78 21.7-5.84a104.23 104.23 0 0112.09-2.77l-2.27-2.95c-8.94 19.18-23 35.11-37.6 50.2-7.31 7.58-14.79 15-22 22.72-3.57 3.84-7.07 7.76-10.41 11.8l-2.35 2.88a14.79 14.79 0 00-1.16 1.48 12.51 12.51 0 00-.79 2.06 41.27 41.27 0 00-1.58 5.58c-1 4.8-.93 10.82 3.83 13.64 4.16 2.47 9.7 1.44 14.05.1a58.29 58.29 0 0015.87-7.89 54 54 0 006.65-5.34 31.22 31.22 0 002.48-2.66 18.76 18.76 0 001.91-3.24c.72-1.36 1.44-2.71 2.18-4.06 11.74-21.6 25.31-42.19 36.21-64.25q2-4.11 3.93-8.3a2.06 2.06 0 00-.72-2.75 2 2 0 00-2.74.96zM586.69 939.12c-1.2 5.51 2.55 10.78 3.73 16.3-3.26 37.24 25.5 4.33-3.52-16.48" fill="#797a7a"/><path d="M584.75 938.58c-1 4.93 1.09 9.35 2.7 13.88a12.39 12.39 0 011 3.23 12.09 12.09 0 01-.13 1.25c0 .56-.07 1.11-.09 1.67a48.2 48.2 0 000 5.1c.24 3.52.92 9.39 5.11 10.49 3.61.95 6.18-2.78 7.34-5.63a21.86 21.86 0 00.51-13.5c-1.94-7.45-7.14-13.44-13.28-17.87a2 2 0 00-2.75.72 2.06 2.06 0 00.72 2.75 35.77 35.77 0 014 3.35c.59.57 1.17 1.16 1.71 1.77l.68.78.39.47c.08.1.16.21.25.31-.11-.14-.1-.12.05.07a27.9 27.9 0 012.34 3.58c.31.56.59 1.14.86 1.72 0 .06.25.59.06.15 0 .1.09.21.13.31.15.36.28.72.41 1.08a24.55 24.55 0 01.92 3.49c.05.26.09.53.14.8s-.06-.51 0 0c0 .14 0 .29.05.43.06.56.1 1.12.11 1.69a23.64 23.64 0 01-.14 3c0 .45.09-.49 0 0 0 .12 0 .24-.06.36s-.07.4-.11.59c-.1.46-.21.91-.34 1.35s-.23.76-.38 1.14c0 .09-.08.19-.11.29-.13.37.22-.45 0-.1-.09.17-.16.36-.25.54s-.32.6-.51.9-.19.29-.29.44c-.33.49.26-.27 0 .06s-.39.44-.61.65a2.1 2.1 0 00-.31.25c0-.17.49-.32.19-.15l-.2.13-.31.17c-.33.21.56-.14.08 0a1.47 1.47 0 00-.28.08c-.33.12.64 0 .08 0a1.42 1.42 0 00-.28 0c.29-.16.58.14.14 0s.32.21.16.07a2.32 2.32 0 00-.38-.21c-.33-.17.36.36.1.07-.09-.1-.2-.2-.3-.3s-.15-.16-.14-.17.3.47.17.22-.22-.33-.32-.5-.15-.27-.22-.4-.07-.18-.12-.27c-.18-.33.16.48 0 .11s-.3-.86-.42-1.3-.23-1-.32-1.43c0-.29-.1-.58-.14-.87.08.53 0-.42-.06-.58a39.72 39.72 0 01-.16-5c0-1 .08-2 .15-3a7.32 7.32 0 000-1.81 17.52 17.52 0 00-.5-1.89c-.72-2.35-1.73-4.59-2.49-6.93a12.58 12.58 0 01-.74-6.42 2.06 2.06 0 00-1.41-2.47 2 2 0 00-2.47 1.4z" fill="#797a7a"/><path d="M447.38 861c-3 9.56.13 23.31-9.86 28.58-4.63 7.19 10.16 22-13.16 15.68-7.67 11.6 14.2 17.3 18.34 6.42 2.11-6.1.05-13.44 6.08-17.6 5.71-8.59 3.58-25.84-2.94-33.57" fill="#c6c6c6"/><path d="M445.44 860.49c-1.59 5.15-1.48 10.61-2.32 15.89a21.38 21.38 0 01-2.11 7 11.08 11.08 0 01-2 2.68c-1 .92-2.53 1.44-3.24 2.54-1.73 2.68-1.25 6.16-.66 9.1.27 1.35.59 2.7.8 4.06v.48a7.38 7.38 0 010 .94v.38c0 .13.11-.43 0-.05-.07.22-.32.88-.07.33a1.86 1.86 0 01-.19.34c.06-.09.29-.18 0 0s.29-.15 0 0l-.39.22s.29-.06-.09 0l-.52.14c-.13 0-.62.1-.23.05l-.78.06a30.39 30.39 0 01-8.71-1.45 2.07 2.07 0 00-2.27.92A9.8 9.8 0 00421 912a9.35 9.35 0 004.28 5.4 15 15 0 0014.54.47 10.5 10.5 0 005-6.12c1.07-3.46.9-7.14 1.73-10.64a9 9 0 012.18-4.33 14.24 14.24 0 002-1.91 15.12 15.12 0 001.2-2.29 28.44 28.44 0 002.2-10.47c.29-7.92-1.65-16.8-6.81-23-1.65-2-4.48.87-2.84 2.84 3.43 4.13 5 10 5.48 15.22s.15 11.29-2.86 15.91l.73-.72c-4 2.85-5.2 7-5.75 11.61a42.37 42.37 0 01-1 6.24 6.62 6.62 0 01-2 3.3 7.52 7.52 0 01-3 1.58 10.21 10.21 0 01-3.74.39 10.11 10.11 0 01-6.33-2.54 4.53 4.53 0 01-1.28-2.56 6.77 6.77 0 011.33-4.09l-2.27.93c3.27.87 6.85 1.83 10.28 1.56 2-.16 4.12-.86 5.16-2.76 1.74-3.16 0-7.4-.56-10.67-.1-.59 0 .13-.06-.46 0-.25 0-.49-.06-.74v-1.52-.31c0 .26-.05.25 0 0s.09-.45.16-.67.33-.83.11-.37c.11-.23.23-.45.36-.67l-.72.72c10.94-5.92 7.7-19.8 10.78-29.77.77-2.48-3.11-3.54-3.87-1.07zM486.77 880.58a34.94 34.94 0 01-18.9-1.93c-.21 6.25 9.68 7.8 12.17 13 2.94 5.43 3.71 12.67 10.7 14.37 13.05 6.46 17-11.18 14.87-20.7-2.87-8.84-12.66-13.75-19.91-18.86-6.36 3.33 2.23 10.46 1.89 14.44" fill="#c6c6c6"/><path d="M486.23 878.64a33.42 33.42 0 01-17.83-1.93 2 2 0 00-2.54 1.94c0 3.55 2.32 6 5 7.93 2.34 1.66 5.61 3 7.12 5.55 1.82 3 2.65 6.57 4.41 9.64A13.64 13.64 0 00486 906a21.63 21.63 0 005.2 2.43 11 11 0 009.15 0 12.74 12.74 0 005.55-6.36 27.41 27.41 0 002.18-9.32 21.06 21.06 0 00-1-9.2c-3.66-8.94-12.86-13.52-20.35-18.76a2 2 0 00-2 0c-3.4 1.88-3.93 5.26-2.51 8.64a46.47 46.47 0 002.24 4.32c.29.53.67 1.25.84 1.67a7.21 7.21 0 01.3.93c.09.37 0 0 0 .15a2.36 2.36 0 010 .46c-.13 2.58 3.89 2.58 4 0s-1.77-5.24-3-7.51a16.27 16.27 0 01-.77-1.57 9.49 9.49 0 01-.47-1.54 1.42 1.42 0 01.13-1.08 3 3 0 011.2-1h-2c5.9 4.13 13 7.65 17.1 13.83a14.12 14.12 0 012.36 8.06 25.82 25.82 0 01-1 8 12.51 12.51 0 01-3.49 6 6 6 0 01-2.52 1.22 7.19 7.19 0 01-3.28-.22 13.78 13.78 0 01-1.92-.72c-.85-.39-1.77-.56-2.6-1a8.43 8.43 0 01-3-3c-1.76-2.78-2.64-6-4.08-8.93-1.58-3.21-4.25-5.07-7.18-7a23.12 23.12 0 01-3.63-2.65 4.12 4.12 0 01-1.51-3.2l-2.55 1.94a37.57 37.57 0 0020 1.93 2 2 0 001.4-2.48 2.05 2.05 0 00-2.47-1.4zM392.81 707.27c-56.21 40.73-59.12 123.12-54.9 186.65 24.24-5.46 10.74-116.28 40-146.42 8.19-11.79 27.66-20.36 25.45-36.6-1.25-3.51-6-5.79-8.9-3.49" fill="#c6c6c6"/><path d="M391.79 705.54a116.87 116.87 0 00-27.71 28.63 145.69 145.69 0 00-17.27 35.28 215.05 215.05 0 00-9.09 39.28 336.19 336.19 0 00-3.08 41.09c-.22 13.16.18 26.32 1 39.45.09 1.55.19 3.1.29 4.65a2 2 0 002.55 1.94c3.85-.89 6.64-4 8.53-7.3 2.57-4.49 4-9.63 5.14-14.64 3.25-14.31 4.39-29.11 5.89-43.67 1.64-15.94 3.24-32 6.7-47.64a115.81 115.81 0 016.06-20 56.91 56.91 0 014.29-8.23c1.64-2.58 3.32-4.26 5.24-6.79 5.4-7.1 13.18-12 18.86-18.82a26.12 26.12 0 005.95-11.35 16.86 16.86 0 00.17-7.07c-.6-2.44-3-4.43-5.22-5.32a6.94 6.94 0 00-6.62.63 2.06 2.06 0 00-.72 2.75 2 2 0 002.75.72c1.53-1.11 3.38-.6 4.72.61a3.17 3.17 0 011.26 2.25 16.75 16.75 0 010 3.32 20.69 20.69 0 01-4.9 10.38C391 732.45 383.56 737.3 378 744c-1.9 2.33-3.92 4.6-5.68 7.17a53.58 53.58 0 00-4.24 7.58 104.66 104.66 0 00-6.48 19.34c-3.7 15.24-5.42 30.93-7.06 46.49-1.53 14.55-2.64 29.12-5.33 43.42a77.07 77.07 0 01-4.21 15.6c.19-.46-.13.3-.18.39s-.21.47-.32.71c-.24.49-.48 1-.75 1.46a24.82 24.82 0 01-1.54 2.43c-.33.47.21-.22-.16.2l-.4.48c-.29.32-.6.64-.92.94l-.44.38c-.39.36.3-.18-.13.1a9.79 9.79 0 01-1 .65c-.16.09-.33.16-.48.25-.46.25.37-.1-.12 0s-.74.25-1.13.34l2.54 1.94c-.85-12.84-1.36-25.72-1.31-38.59a350.63 350.63 0 012.3-40.2 224.77 224.77 0 018-39.12 149.47 149.47 0 0115.66-35.24A113.58 113.58 0 01390 711.94c1.26-1 2.55-2 3.85-2.93a2.06 2.06 0 00.72-2.75 2 2 0 00-2.75-.72zM561 790c-3.3-5.56-10.05-.05-10.59 4.88-3.72 6.83 1 29.88-7.58 30.23-96.67-16.37-5.52 54.36 27.77 20.62 7.69-17.38 9.1-48.79-11.52-57.47" fill="#c6c6c6"/><path d="M562.71 789a6.35 6.35 0 00-8.84-2.35 11.12 11.12 0 00-5.5 8.25l.27-1c-2 3.71-1.86 8.44-2 12.53-.16 4.55 0 9.29-1.27 13.59-.07.23-.14.45-.22.68s-.21.53-.08.24a10.67 10.67 0 01-.59 1.11 1.1 1.1 0 01-.14.21c-.17.25.2-.23 0 0l-.33.35c-.09.1-.51.38-.13.13-.16.1-.31.19-.47.27s.11 0 .13 0l-.3.09a4.15 4.15 0 01-.48.11c.5 0-.3-.1-.44-.12l-1.38-.22c-1.69-.27-3.38-.53-5.07-.76a137.88 137.88 0 00-17-1.42 52 52 0 00-11.48.95 16.51 16.51 0 00-7.07 3.11c-3.41 2.83-3.23 7.25-1.18 10.83 2.62 4.59 7.21 8.06 11.59 10.83a71 71 0 0018.84 8.27 57 57 0 0021.43 2 34.86 34.86 0 0019.52-8.15 7.2 7.2 0 002-2.28c.5-1.17 1-2.34 1.39-3.53a61.34 61.34 0 002.14-7.4 68.86 68.86 0 001.74-16.25c-.17-10.28-3-21.61-11.15-28.51a26.52 26.52 0 00-6.57-4.07 2.1 2.1 0 00-2.75.72A2 2 0 00558 790a23 23 0 0110.86 9.48 35.73 35.73 0 014.54 14.41 60.48 60.48 0 01-.43 16.07 67 67 0 01-1.72 7.8 35.65 35.65 0 01-2.3 6.61 4 4 0 01-.68.77c-.35.33-.72.65-1.09 1a17.51 17.51 0 01-1.79 1.37 29.77 29.77 0 01-4.5 2.55l-.51.23a1.76 1.76 0 01-.29.13l-1.23.47a33.75 33.75 0 01-4.98 1.38l-1.21.22-.56.09-.41.06a50.75 50.75 0 01-15.58-.59c-1.78-.34-3.55-.75-5.29-1.23s-3.39-1-5.05-1.6c-.85-.3-1.69-.62-2.53-1s-1.09-.44-2.06-.87a64 64 0 01-8.64-4.63c-.66-.41-1.31-.85-1.94-1.29l-.85-.61c-.16-.12-1-.73-.6-.45a37.06 37.06 0 01-3.08-2.65 28.11 28.11 0 01-2.39-2.61s.22.31 0 0l-.21-.29-.49-.71a14.33 14.33 0 01-.72-1.27c-.06-.13-.33-.74-.19-.4s-.11-.3-.16-.45c-.13-.41-.21-.82-.3-1.24.08.35 0 .31 0-.11V830v-.25c0-.28-.12.53 0 .17.05-.19.08-.38.13-.56s.27-.61 0-.1a5.85 5.85 0 01.28-.56c.1-.16.21-.31.31-.46-.33.51 0 .06.15-.15s.29-.28.44-.42c.45-.42-.2.09.23-.19s.87-.56 1.33-.8l.73-.34c-.54.24.3-.11.5-.18.62-.22 1.25-.4 1.89-.56s1.51-.34 2.27-.47l.54-.09h.29l1.35-.15a79.54 79.54 0 0113.63 0c3 .23 6.07.56 9.08 1q2.44.33 4.89.72c1.51.24 3 .69 4.55.29 4-1 5.21-5.73 5.71-9.31.69-4.9.56-9.86.87-14.79a23.64 23.64 0 01.85-5.81c.05-.17.11-.35.17-.52s.08-.22.13-.33-.13.31 0 .1a12 12 0 00.57-1.82 7.15 7.15 0 011.83-3.13c1.53-1.57 3.56-2.44 4.91-.3s4.85.17 3.47-2zM312.59 780c-34.21 85.64-12.29 131.65 12 215.33 1.32 8.47 10.52 10.83 12.95 1.54-21.66-64.54-26.21-133.87-14.79-202.27.68-4.87 1.26-10.34-1.75-14.23s-11-3.21-11.23 1.7" fill="#c6c6c6"/><path d="M310.66 779.49a256.07 256.07 0 00-14.61 49.29 191.61 191.61 0 00-2.89 43.3 243.92 243.92 0 006 41.39c3.31 14.73 7.56 29.23 11.9 43.69 2.4 8 4.83 16 7.22 23.94q1.9 6.38 3.77 12.76c.9 3.08 1.42 6.18 3.82 8.53a8 8 0 007 2.34 8.25 8.25 0 005.8-5.06 8.41 8.41 0 00.84-2.52c.11-1.12-.57-2.4-.92-3.46q-1.05-3.23-2.05-6.47-2-6.48-3.77-13a400.62 400.62 0 01-10.58-53 418.41 418.41 0 01-3.47-54.22 436.48 436.48 0 013.49-54.68q.85-6.81 1.94-13.6c.63-4 1.48-8.07 1.11-12.12-.31-3.49-1.56-7.19-4.62-9.2a9.87 9.87 0 00-8-1.1 6.52 6.52 0 00-4.84 5.83c-.22 2.58 3.8 2.56 4 0a2 2 0 01.86-1.45 4.31 4.31 0 012.49-.74 5.16 5.16 0 014.85 2.56c1.59 2.79 1.4 6.28 1.07 9.36-.39 3.81-1.15 7.59-1.71 11.39a449.78 449.78 0 00-4.36 47.92 425.61 425.61 0 00.88 47.65 417.1 417.1 0 006.24 47.09 401.48 401.48 0 0011.66 46c.6 1.86 1.2 3.71 1.82 5.56v-1.07a7.62 7.62 0 01-1.84 3.55 3.1 3.1 0 01-2.26 1 4.06 4.06 0 01-2.35-.9 7 7 0 01-2-2.73 12.63 12.63 0 01-.59-2.08c-.26-1.17-.63-2.32-1-3.47l-1.94-6.77q-1.92-6.42-3.85-12.83c-4.77-15.69-9.62-31.37-13.77-47.26a282.48 282.48 0 01-8.13-43 187.24 187.24 0 01.78-44.26 237.84 237.84 0 0113.18-50.18q1.29-3.45 2.66-6.87a2 2 0 00-1.4-2.47 2 2 0 00-2.47 1.4z" fill="#c6c6c6"/><path d="M457.37 684c-109.84-6.39-196.16 137.79-151.31 242.86 19.73 36.44 20.31 54.33 22.87 68.78s58 65 135.36 63.21S585 1019 588.23 1007.1s-.48-26 7.76-34.69C677.15 886.88 631.93 682 457.37 684z" fill="none" stroke="#fdfdfd" stroke-linecap="round" stroke-linejoin="round" stroke-width="5.32"/><path d="M327.72 988.06c37.62-83.7-44.76-335.47 197.53-292M560.27 714.47c144.33 140-4.06 221.28-96 344.33" fill="none" stroke="#fdfdfd" stroke-linecap="round" stroke-linejoin="round" stroke-width="2.66"/><path d="M607.61 818.94s11.12 4.39 13.77 10.82c0 0 7-1.41 10.78 1.87M607.23 834.07s8.71 2.38 11.18 15.09c0 0 8.18.62 12 3.9M603.84 853.93s7.7-1.67 10.17 11c0 0 8.28 3.52 12.08 6.79M596.22 868.4s8.23 4.07 10.25 13.41c0 0 7.46 5.89 11.27 9.17M589.36 884.92c1.23-.26 7.38 8.31 7.3 14.76 0 0 7.13 1.05 8.15 5.18M601.36 800.3s7.17-6.83 17.92 6.59c0 0 2.09-2.67 7.67-1.79M597.85 784.57s7.6-5.19 15.31 4.6c0 0 2.67-3.95 6.39-3.37M592 766.63s3.17-4.67 12.49 5.4a6.11 6.11 0 015.71-3.59M581.74 751.36s2.61-3.36 10.68 1.9l4.21-5.64M569.78 735.3s7.29-.7 11.53 3.16l2.84-4.42M554.68 721.17s9.21-4.22 17.94 4M537.27 712.83s11.58-5.82 17.29-2.09" fill="none" stroke="#fdfdfd" stroke-linecap="round" stroke-linejoin="round" stroke-width="3.99"/><path d="M582.1 900.72s4.27 11.94 3.21 17.77c0 0 6.06-.12 8.23 3.47M575.05 915.89s3.75 8.29 3.35 14.06c0 0 6 4.66 6.06 7.85M567.23 931.29s3.14 8.3 2.93 12.68c0 0 7.76 3.42 8.39 8.66M554.69 943s2.45 11.87.55 16.55c0 0 8.93.65 10.42 4.15M539.59 954.9a31.77 31.77 0 013 16.23 12.53 12.53 0 0110.81 3.15" fill="none" stroke="#fdfdfd" stroke-linecap="round" stroke-linejoin="round" stroke-width="2.66"/><path d="M525.18 965.71c2.58 1.36 4.06 4.33 5 6.95a20.49 20.49 0 011.62 7.27 1.52 1.52 0 001.5 1.5 15.87 15.87 0 019.79 3.52 1.53 1.53 0 002.11 0 1.49 1.49 0 000-2.11 19.19 19.19 0 00-11.9-4.41l1.49 1.5a22.8 22.8 0 00-1.89-8.51c-1.26-3.19-3.09-6.63-6.25-8.3-1.7-.89-3.21 1.69-1.51 2.59zM509.86 980.55a19.22 19.22 0 016.43 15.25 1.49 1.49 0 001.49 1.49A27.73 27.73 0 01530.6 999c1.8.7 2.58-2.19.8-2.88a29.57 29.57 0 00-13.62-1.86l1.5 1.5a22.08 22.08 0 00-7.28-17.32c-1.43-1.28-3.56.83-2.11 2.11zM496.27 992.4a19.49 19.49 0 017.45 14.26 2 2 0 002 2 23 23 0 0112.66 3c2.23 1.28 4.24-2.17 2-3.45a26.89 26.89 0 00-14.67-3.55l2 2a23.33 23.33 0 00-8.62-17.08 2.06 2.06 0 00-2.82 0 2 2 0 000 2.82zM483.66 1009c3.11 2.38 8.92 6.07 7.25 10.57-.58 1.57 1.11 2.69 2.46 2.46a41.24 41.24 0 0112.4-.17 2 2 0 002-2 2.05 2.05 0 00-2-2 44.67 44.67 0 00-13.46.31l2.45 2.45c2.47-6.66-4.57-11.62-9.09-15.07a2 2 0 00-2.72.71 2 2 0 00.71 2.73zM472.07 1022.56a74.12 74.12 0 004.5 6.34 12.56 12.56 0 003.43 3.1c2.32 1.31 5 1 7.54 1a39.22 39.22 0 017 .7 2.05 2.05 0 002.46-1.39 2 2 0 00-1.4-2.46 60.33 60.33 0 00-11-.81c-.51 0-1 0-1.53-.08.6.06 0 0-.26-.07s-.81-.28-.52-.16-.34-.18-.47-.26l-.3-.19c-.34-.21 0 0-.06 0a13.89 13.89 0 01-1.5-1.47 54.92 54.92 0 01-4.44-6.19c-1.4-2.14-4.85-.14-3.44 2zM463 1033.22a30 30 0 006.53 7.06 13 13 0 009.08 2.47 2.07 2.07 0 002-2 2 2 0 00-2-2 11.77 11.77 0 01-2.22 0 4.23 4.23 0 01-.5 0h-.15c-.35-.07-.7-.15-1-.25s-.61-.2-.9-.32c.26.1 0 0-.14-.06l-.42-.21a13 13 0 01-1.7-1.06s-.38-.29-.13-.09l-.38-.31c-.24-.21-.49-.43-.72-.65a20.39 20.39 0 01-1.45-1.49 31.12 31.12 0 01-2.41-3.08 2 2 0 00-2.73-.72 2 2 0 00-.72 2.73zM456.79 1041.22a21.33 21.33 0 0010.52 8 2 2 0 002.45-1.39 2 2 0 00-1.39-2.46l-.7-.25-.27-.11c-.45-.18.25.12 0 0-.43-.2-.85-.4-1.27-.62a18.28 18.28 0 01-2.44-1.55l-.09-.07c.22.19-.1-.08-.15-.12l-.57-.48c-.35-.31-.69-.64-1-1s-.64-.69-.94-1.05l-.24-.28-.09-.12.09.11c-.16-.07-.34-.46-.44-.6a2 2 0 00-2.73-.72 2 2 0 00-.72 2.73z" fill="#fdfdfd"/><path d="M470.21 1051.38a31.59 31.59 0 008.17-.64 1.51 1.51 0 001-1.84 1.54 1.54 0 00-1.84-1.05c-.64.14-1.28.25-1.92.34s.29 0-.2 0h-.45l-1 .09a30.58 30.58 0 01-3.83 0 1.49 1.49 0 00-1.49 1.49 1.54 1.54 0 001.49 1.5zM450.56 1049.78a44.31 44.31 0 0013.85 8.63 2 2 0 002.46-1.39 2 2 0 00-1.39-2.45 40.26 40.26 0 01-12.1-7.61 2 2 0 00-2.82 0 2 2 0 000 2.82zM513.93 694.38a62.06 62.06 0 015.26 4.6c.4.4.79.81 1.17 1.24l.55.64a4.19 4.19 0 00.26.33c.15.18-.17-.23.05.07a18.5 18.5 0 011.84 3 2 2 0 002.73.71 2 2 0 00.72-2.73c-2.15-4.42-6-7.66-9.76-10.69a2 2 0 00-2.82 0 2 2 0 000 2.82zM499 695c.51.48 1 1 1.47 1.52.12.13.23.27.35.41l.15.19s.27.35.07.08l.18.24.32.44c.39.58.76 1.18 1.1 1.8.16.3.32.61.46.92.08.16.16.32.23.49s.17.4 0 .09 0 .06 0 .1a2.14 2.14 0 00.92 1.19 2 2 0 002.73-.72 2 2 0 00.2-1.53 22.5 22.5 0 00-5.46-8.08A2 2 0 10499 695zM478.86 685.69c-.22.57.16-.24-.13.3-.1.19-.2.38-.31.56s-.18.3-.28.45-.12.17-.19.25c.08-.09.07-.09 0 0a6.24 6.24 0 01-1.6 1.41 2 2 0 00.48 3.64 25.76 25.76 0 013.43 1.51 31.33 31.33 0 013.55 2.15 27 27 0 012.91 2.37 31.21 31.21 0 012.84 3 2 2 0 002.83 0 2 2 0 000-2.82 33.53 33.53 0 00-14.5-10.07l.48 3.64a10.75 10.75 0 004.36-5.36 2 2 0 00-1.39-2.45 2 2 0 00-2.46 1.39zM458.72 685.73a9.78 9.78 0 01-1.37 4.09 2 2 0 001.72 3h.07l.4.07a8.63 8.63 0 01.88.2c.26.07.51.16.77.25 0 0 .37.14.23.08l.22.1a12.17 12.17 0 011.5.83c.09.07.6.43.41.28.24.19.47.39.69.59a12.39 12.39 0 011.11 1.18c.22.25-.14-.2.07.07.08.1.15.21.23.32s.34.51.49.77.26.47.38.71l.17.36c-.09-.19 0 0 0 .09a12.81 12.81 0 01.49 1.74 2 2 0 002.45 1.39 2 2 0 001.4-2.45 13.63 13.63 0 00-12-10.57l1.72 3a13.87 13.87 0 001.92-6.1 2 2 0 00-2-2 2 2 0 00-2 2zM436.89 688.12a18.87 18.87 0 004.68 5.79 37.93 37.93 0 005 3.37c.74.44 1.47.9 2.18 1.39l.24.18h-.05l.34.28c.29.26.53.54.8.81s-.17-.3.11.16c.09.16.19.32.29.48l.12.26c-.1-.26-.11-.28 0-.08s.13.38.18.58.09.4.13.61c-.09-.52 0 .21 0 .31a9.8 9.8 0 01-.07 1.53 2 2 0 002 2 2 2 0 002-2 8.53 8.53 0 00-3.21-7.9 33.07 33.07 0 00-3.75-2.45c-.65-.39-1.3-.78-1.93-1.2a17.28 17.28 0 01-1.7-1.24 15.5 15.5 0 01-3.9-4.85 2 2 0 00-3.44 2zM419.35 693.07c1.55 3.43 5 5.33 8.3 6.86 1.6.75 3.22 1.45 4.74 2.34.34.19.66.4 1 .62.06 0 .56.4.35.24s.28.23.36.31a9.08 9.08 0 01.76.76c.15.16.29.41.08.09.13.2.27.39.38.59a4.74 4.74 0 01.26.5c-.24-.48.05.18.1.34s.09.39.14.58c.09.34 0 0 0-.07v.4a6.26 6.26 0 010 .75v.35c0 .12-.06.53 0 .28s0 .16 0 .21-.06.33-.1.49c-.08.35-.17.69-.28 1-.74 2.46 3.11 3.51 3.85 1.06a10.62 10.62 0 00.2-6.43 9.56 9.56 0 00-3.49-4.54c-2.91-2.2-6.51-3.21-9.6-5.09-.44-.27-.86-.56-1.28-.86.36.27-.18-.15-.27-.23s-.35-.31-.52-.48l-.48-.51c-.07-.07-.13-.15-.2-.23s.19.28 0 0a9.19 9.19 0 01-.78-1.36 2 2 0 00-2.73-.71 2 2 0 00-.71 2.73zM396.5 699.56c1.19 3.76 2.86 9.73 7.39 10.72a13.22 13.22 0 004 0 16 16 0 012.19 0c.17 0 .58.07.17 0l.65.11a11.55 11.55 0 011.39.4 2.72 2.72 0 01.45.17c.29.14.59.28.87.44a17.1 17.1 0 011.78 1.11 28.45 28.45 0 014.19 3.87c1.75 1.89 4.56-.94 2.82-2.82-3.41-3.69-7.66-7.18-12.92-7.31-1.28 0-2.55.21-3.83.23a7.68 7.68 0 01-.83 0c.65 0-.12-.08-.36-.12-.42-.07.27.17 0 0l-.4-.23c-.35-.18 0 0 0 0s-.31-.28-.45-.44-.43-.52-.19-.19c-.14-.19-.27-.39-.4-.59a14.88 14.88 0 01-.86-1.57 35.21 35.21 0 01-1.79-4.78c-.78-2.44-4.63-1.4-3.85 1.06zM383.22 708.37a39.17 39.17 0 016.63 9.35 2 2 0 002.25.91 10.65 10.65 0 017.48-.22 10.45 10.45 0 015.33 5c1.23 2.25 4.68.24 3.45-2a14.52 14.52 0 00-7.45-6.73 14.15 14.15 0 00-9.87.12l2.26.91a42.84 42.84 0 00-7.3-10.16c-1.78-1.86-4.6 1-2.82 2.82zM367.08 725.82a11.88 11.88 0 016.57 4c1 1.11 1.69 2.36 3.37 2.2 1.06-.09 2.12-.18 3.18-.23 3.51-.15 8.22 0 9.6 3.94.85 2.4 4.7 1.37 3.85-1.06-2.58-7.35-10.67-7.2-17.14-6.59l1.41.59c-2.57-3.11-5.68-6-9.78-6.71a2 2 0 00-2.45 1.4 2 2 0 001.39 2.45zM356.07 743.64a15.17 15.17 0 007 3.75 31.93 31.93 0 007.24.49 24 24 0 016.77.55 11.89 11.89 0 016.25 4.52 2.06 2.06 0 002.73.72 2 2 0 00.72-2.73 17 17 0 00-6.92-5.75 19.69 19.69 0 00-7.41-1.3c-4.85-.07-9.7.47-13.57-3.07-1.89-1.74-4.72 1.08-2.82 2.82zM349.57 765a28.08 28.08 0 014.64 4.67 2 2 0 002.73.72c4.84-3.15 11.46-5.71 16.63-1.86a2 2 0 002.73-.71 2 2 0 00-.72-2.73c-6.29-4.69-14.69-2-20.65 1.85l2.73.72a32.54 32.54 0 00-5.26-5.49 2.08 2.08 0 00-2.83 0 2 2 0 000 2.83zM342.24 785.86a39.89 39.89 0 016 6.37 2 2 0 003.45 0 14.36 14.36 0 0115.08-6.13c2.5.59 3.56-3.26 1.06-3.85a18.5 18.5 0 00-19.59 8h3.45a45.18 45.18 0 00-6.65-7.17c-1.94-1.66-4.77 1.15-2.82 2.82zM338.94 808.16q3.88 2.7 7.48 5.74a2 2 0 002.82 0c3-3.69 7.41-8.47 12.73-7.2 2.5.6 3.56-3.24 1.06-3.84-6.9-1.66-12.53 3.26-16.61 8.22h2.82a108.22 108.22 0 00-8.28-6.36 2 2 0 00-2 3.44zM337.5 827.57a44 44 0 018.5 5.83 2 2 0 003.13-.4 3.17 3.17 0 01.23-.36 2.4 2.4 0 01.18-.26c.15-.22-.23.28 0 .06.32-.38.64-.75 1-1.11.82-.88 1.7-1.71 2.6-2.51a21.22 21.22 0 012.51-2c.41-.27.84-.49 1.26-.74.21-.13.06 0-.08 0l.3-.11c.05 0 .19 0 .23-.06s-.45 0-.18 0c2.56-.09 2.57-4.08 0-4s-4.77 2.19-6.53 3.71a21.27 21.27 0 00-4.88 5.27l3.13-.4a48 48 0 00-9.29-6.45c-2.26-1.21-4.28 2.24-2 3.44zM336 844.71a40.62 40.62 0 018.41 7.94 2 2 0 003.14-.4 15.48 15.48 0 018.06-6.93 2 2 0 001.39-2.45 2 2 0 00-2.45-1.39 19.71 19.71 0 00-10.45 8.76l3.13-.41a43.89 43.89 0 00-9.22-8.57 2 2 0 00-2.73.72 2 2 0 00.72 2.73zM336.39 862.73c-.43-.08-.55-.09-.34 0-.34-.15-.42-.18-.22-.09a3.3 3.3 0 00.32.18c.32.19.64.41 1 .63.85.61 1.41 1.06 2.25 1.75 1.59 1.29 3.16 2.63 4.65 4a2 2 0 003.13-.41 10.67 10.67 0 019.31-4.34c2.56.15 2.56-3.84 0-4a14.73 14.73 0 00-12.75 6.32l3.13-.41c-1.67-1.57-3.43-3.06-5.21-4.5-1.46-1.17-3.26-3-5.22-3.14a2 2 0 00-2 2 2 2 0 002 2zM334.76 879.64a13.29 13.29 0 0010.15 4.41c3.46 0 6.87-.74 10.3.05 2.5.58 3.57-3.27 1.06-3.84-3.49-.81-6.88-.39-10.41-.22a11.5 11.5 0 01-4.16-.38 9.76 9.76 0 01-4.12-2.84c-1.75-1.88-4.57.95-2.82 2.82zM331.23 897q3.28 4.51 7 8.74a2 2 0 002.42.31 10.83 10.83 0 0111.1.2c2.19 1.35 4.19-2.1 2-3.45a14.88 14.88 0 00-15.13-.19l2.42.31q-3.34-3.82-6.35-7.93a2.06 2.06 0 00-2.73-.72 2 2 0 00-.71 2.73zM332.21 918.07c-.33-.24.26.23.32.29.21.2.41.41.61.63a15.07 15.07 0 011 1.29c.68.92 1.3 1.87 1.92 2.83a5.79 5.79 0 001.58 2 3.82 3.82 0 002.09.35c2.12-.06 4.24-.29 6.36-.35 2.34-.07 4.48-.17 6.52.61a2 2 0 002.45-1.39 2 2 0 00-1.39-2.45 18.78 18.78 0 00-7-.77c-2.19 0-4.37.24-6.56.34h-.95c-.23 0-.57-.12.14 0-.82-.2 1.19.71.95.76a12.45 12.45 0 01-1.23-1.9 20.66 20.66 0 00-4.88-5.8 2 2 0 00-2.73.72 2 2 0 00.72 2.73zM331 930.4c.19 3.25.73 7.1 3.77 8.94 2.29 1.4 5.22 1.34 7.77 1.86a19.73 19.73 0 015.71 2.06c1.68.93 3.19-1.65 1.51-2.59a27 27 0 00-9.4-2.85 20.25 20.25 0 01-3.44-.73c-.27-.09 0 0-.08 0l-.36-.18-.3-.18c-.06 0-.36-.26-.23-.15a3.64 3.64 0 01-.82-1 6.13 6.13 0 01-.71-1.92 18.68 18.68 0 01-.43-3.24c-.11-1.91-3.1-1.92-3 0zM328.37 946.3a41.61 41.61 0 003.63 10.27 1.49 1.49 0 102.58-1.51 39.08 39.08 0 01-3.34-9.55 1.49 1.49 0 10-2.88.79z" fill="#fdfdfd"/><path d="M333 956.64a20.78 20.78 0 0014 2.56 1.5 1.5 0 001-1.84 1.53 1.53 0 00-1.84-1 17.56 17.56 0 01-11.66-2.26 1.5 1.5 0 00-1.51 2.58zM331.44 967.06a18.33 18.33 0 0016.1 7.29 1.53 1.53 0 001.49-1.49 1.5 1.5 0 00-1.49-1.5 15.38 15.38 0 01-13.54-5.81 1.55 1.55 0 00-2-.53 1.5 1.5 0 00-.53 2zM329.17 975.07a24.13 24.13 0 0014.89 10 1.53 1.53 0 001.84-1 1.5 1.5 0 00-1-1.84 21 21 0 01-13.1-8.62 1.54 1.54 0 00-2.05-.53 1.51 1.51 0 00-.54 2.05zM327.25 983.94c2.55 4.42 5.67 9.14 10.91 10.52a1.49 1.49 0 00.8-2.88c-.29-.08-.57-.16-.85-.26l-.41-.15c.26.1-.12-.06-.17-.08a10.89 10.89 0 01-1.48-.85l-.35-.24s-.35-.27-.15-.11c-.23-.18-.44-.37-.65-.56a15.34 15.34 0 01-1.27-1.28c-.4-.46-.72-.85-.95-1.17s-.69-1-1-1.44c-.65-1-1.25-2-1.83-3a1.5 1.5 0 10-2.59 1.51z" fill="#fdfdfd"/><path d="M588.3 637.91c-6 9.38-10.67 37.57 8.55 25.86.68 5.45-4 34.67 6.79 20.43 7.72 10.06 7.83 23.4 20.82 27.77 3.58 11.44 3.34 23.94 18.69 26.92-2.95-16 3.27-45.11-11-55.06-7.15-3.32 4.25-29.32-7.35-23-15.64 2.53-6.82-21.37-17.14-26.24-4.68-2.24-12.17-.11-14-5a51.9 51.9 0 01-4.51 8.85" fill="#f9f9f9"/><path d="M288.68 1052.1c-4.13 18.21-9 39.79-13.91 55.27-9.83 31-13.09 105-15.36 135.22-1 12.66 4.65 27 4.65 27l-61 1.5c-16.33-18.74-8.92-129.52-14.45-197.94A619.79 619.79 0 01192.25 945s-18.05-297.29 26.68-324.24 145.46-89.52 145.46-89.52-.24-.24.73 2.61c4.11 12.15 21.13 51.38 86.21 51.38 80.35 0 82.84-55 82.84-55s131.41 49.11 142.29 56.21c38.3 25 52.89 331.94 52.89 331.94s19 68.76 22.88 124.63c5.58 81.26 18.66 177.57 17.85 189.79s-5.3 18.89-5.3 18.89h-58.1s-1.25-8-2.89-34.36c-1.9-30.61-17.15-87.17-32.81-134.19" fill="none" stroke="#262521" stroke-linecap="round" stroke-linejoin="round" stroke-width="3"/><path d="M711 1219s30.63-3.83 52.36 0M200.27 1236.49s30.63-3.83 52.37 0" fill="none" stroke="#636363" stroke-linecap="round" stroke-linejoin="round"/><path d="M285.65 807.61s5.34 199.1 3.83 238.13c-.83 21.49-26.59 142.54-14.28 169.72 0 13-1.32 43-1.32 43s73.26 22.14 150.26 21.22C561.66 1278 687.51 1253 687.51 1253s-6.69-30-7.46-43.63c14.49-25-20.78-164.55-22.58-234.5-1.22-47.59-16.09-167.28-16.09-167.28" fill="none" stroke="#262521" stroke-linecap="round" stroke-linejoin="round" stroke-width="3"/><path d="M286.18 1219s168.08 32.87 378.15-4.33M353 546.43s21.5 56.9 100.8 56.9 94.27-62 94.27-62" fill="none" stroke="#636363" stroke-linecap="round" stroke-linejoin="round"/></svg>