<svg xmlns="http://www.w3.org/2000/svg" xmlns:xlink="http://www.w3.org/1999/xlink" width="1250" height="1550" viewBox="0 0 1250 1550"><defs><clipPath id="a"><rect width="46.34" height="28.36" fill="none"/></clipPath><pattern id="b" width="46.34" height="28.36" patternTransform="translate(22.82 66.04) scale(1.45 1.44)" patternUnits="userSpaceOnUse" viewBox="0 0 46.34 28.36"><rect width="46.34" height="28.36" fill="none"/><g clip-path="url(#a)"><rect width="46.34" height="28.36" fill="#757572"/><path d="M4.14,11.8h3.8a1.13,1.13,0,0,0,0-2.25H4.14a1.13,1.13,0,0,0,0,2.25Z" fill="#cecec6"/><path d="M26,16.82h5.52a1.13,1.13,0,0,0,0-2.25H26a1.13,1.13,0,1,0,0,2.25Z" fill="#cecec6"/><path d="M32.93,5.22h3.8a1.13,1.13,0,0,0,0-2.25h-3.8a1.13,1.13,0,0,0-1.12,1.12,1.15,1.15,0,0,0,1.12,1.13Z" fill="#cecec6"/><path d="M19.21,10.8a9.37,9.37,0,0,1,2,.06l-.3,0c.2,0,.39.06.59.09a1.17,1.17,0,0,0,.86-.11,1.12,1.12,0,0,0,.52-.67,1.15,1.15,0,0,0-.11-.87,1.11,1.11,0,0,0-.67-.51,10.66,10.66,0,0,0-2.87-.2,1.13,1.13,0,0,0-1.13,1.13,1.16,1.16,0,0,0,.33.79,1.14,1.14,0,0,0,.8.33Z" fill="#cecec6"/><path d="M4.48,2.3c.91,0,1.83.05,2.74.14l.7.07.32,0,.13,0c.46.06.92.14,1.38.22A1.16,1.16,0,0,0,11.14,2,1.15,1.15,0,0,0,10.35.62,33.07,33.07,0,0,0,4.48.05,1.13,1.13,0,0,0,3.35,1.17,1.16,1.16,0,0,0,4.48,2.3Z" fill="#cecec6"/><path d="M15.58,20.06h1.79a1.17,1.17,0,0,0,.79-.33,1.15,1.15,0,0,0,.33-.8,1.11,1.11,0,0,0-.33-.79,1.17,1.17,0,0,0-.79-.33H15.58a1.11,1.11,0,0,0-.79.33,1.07,1.07,0,0,0-.33.79,1.09,1.09,0,0,0,.33.8,1.17,1.17,0,0,0,.79.33Z" fill="#cecec6"/><path d="M1.92,23.93q3.6.09,7.2,0a1.13,1.13,0,1,0,0-2.25q-3.6.1-7.2,0a1.13,1.13,0,0,0,0,2.25Z" fill="#cecec6"/><path d="M14.41,28.12c1.49-.05,3-.15,4.46-.32a1.2,1.2,0,0,0,.8-.33,1.16,1.16,0,0,0,.33-.79c0-.56-.5-1.2-1.13-1.13-1.48.17-3,.27-4.46.32a1.13,1.13,0,1,0,0,2.25Z" fill="#cecec6"/><path d="M27.56,24.91c1.27.24,2.53.5,3.79.8a1.13,1.13,0,1,0,.6-2.17c-1.26-.3-2.52-.56-3.79-.8a1.26,1.26,0,0,0-.87.12,1.17,1.17,0,0,0-.52.67,1.14,1.14,0,0,0,.79,1.38Z" fill="#cecec6"/><path d="M42.7,27.61c.44,0,.88-.1,1.32-.16l-.3,0a.43.43,0,0,1,.16,0l-.3,0,.15,0-.27-.11c.41.17.82.36,1.23.51a1.11,1.11,0,0,0,.87-.11,1.11,1.11,0,0,0,.4-1.54L45.79,26a1.18,1.18,0,0,0-.5-.28l-.54-.22.27.11-.38-.16a2.39,2.39,0,0,0-.44-.18,1.55,1.55,0,0,0-.48,0l-.64.09.3,0-.68.07a1.17,1.17,0,0,0-.79.33,1.07,1.07,0,0,0-.33.79,1.13,1.13,0,0,0,1.12,1.13Z" fill="#cecec6"/><path d="M40.23,22.14c1.48-.06,3-.07,4.46,0a1.13,1.13,0,1,0,0-2.25c-1.49,0-3,0-4.46,0A1.14,1.14,0,0,0,39.1,21a1.16,1.16,0,0,0,1.13,1.13Z" fill="#cecec6"/><path d="M43,14.54h2.29a1.11,1.11,0,0,0,.79-.33,1.07,1.07,0,0,0,.33-.79,1.14,1.14,0,0,0-1.12-1.13H43a1.13,1.13,0,0,0-1.13,1.13A1.15,1.15,0,0,0,43,14.54Z" fill="#cecec6"/><path d="M37.68,9.7c.83,0,1.67,0,2.51,0A1.11,1.11,0,0,0,41,9.35a1.07,1.07,0,0,0,.33-.79,1.15,1.15,0,0,0-1.12-1.13c-.84,0-1.68,0-2.51,0a1.18,1.18,0,0,0-.8.33,1.2,1.2,0,0,0-.33.8,1.11,1.11,0,0,0,.33.79,1.15,1.15,0,0,0,.8.33Z" fill="#cecec6"/><path d="M41.81,2.46h3A1.12,1.12,0,0,0,46,1.34,1.14,1.14,0,0,0,44.83.21h-3a1.14,1.14,0,0,0-1.12,1.13,1.14,1.14,0,0,0,1.12,1.12Z" fill="#cecec6"/><path d="M28.14,10.52h.94a1,1,0,0,0,.44-.1.86.86,0,0,0,.36-.23.82.82,0,0,0,.23-.36.84.84,0,0,0,.1-.44l0-.3a1.07,1.07,0,0,0-.29-.49l-.23-.18a1.1,1.1,0,0,0-.57-.15h-.94a.83.83,0,0,0-.44.09.88.88,0,0,0-.36.24.77.77,0,0,0-.23.36.8.8,0,0,0-.1.43l0,.3a1.1,1.1,0,0,0,.29.5l.23.17a1.11,1.11,0,0,0,.57.16Z" fill="#cecec6"/><path d="M7.25,15.57a2.71,2.71,0,0,0,.17.39l0,.06c.07.09.14.19.22.28l.1.09a2.18,2.18,0,0,0,.34.26,3.17,3.17,0,0,0,.38.17l.15,0a2,2,0,0,0,.43.05,1.54,1.54,0,0,0,.43-.05.81.81,0,0,0,.39-.2.86.86,0,0,0,.29-.31.9.9,0,0,0,.13-.42.86.86,0,0,0,0-.45l-.11-.27a1.12,1.12,0,0,0-.41-.4l-.27-.12a1.18,1.18,0,0,0-.59,0h0l.3,0H9l.3,0-.21-.06.27.11a1.18,1.18,0,0,1-.19-.11l.22.17a.93.93,0,0,1-.14-.14l.17.22a1.19,1.19,0,0,1-.09-.15l.11.26v0a.87.87,0,0,0-.2-.38.81.81,0,0,0-.32-.29.81.81,0,0,0-.42-.14.93.93,0,0,0-.44,0l-.27.12a1.12,1.12,0,0,0-.41.4L7.25,15a1.22,1.22,0,0,0,0,.6Z" fill="#cecec6"/><path d="M2.19,6.4a20.82,20.82,0,0,1,2.62,0c.43,0,.85.07,1.27.12-.25,0,.09,0,.11,0l.31.05.7.13a1.13,1.13,0,1,0,.6-2.17,20.7,20.7,0,0,0-5.61-.38,1.13,1.13,0,0,0,0,2.25Z" fill="#262521"/><path d="M13.57,14H16.7a1.13,1.13,0,0,0,1.12-1.12,1.15,1.15,0,0,0-1.12-1.13H13.57a1.13,1.13,0,0,0,0,2.25Z" fill="#262521"/><path d="M16.14,7.5h3.63a1.13,1.13,0,0,0,1.12-1.12,1.15,1.15,0,0,0-1.12-1.13H16.14a1.13,1.13,0,1,0,0,2.25Z" fill="#262521"/><path d="M14.8,2.64h3a1.12,1.12,0,0,0,1.12-1.12A1.15,1.15,0,0,0,17.76.39h-3a1.15,1.15,0,0,0-1.13,1.13A1.15,1.15,0,0,0,14.8,2.64Z" fill="#262521"/><path d="M20.88,16.29c.8,0,1.6.05,2.4,0a1.14,1.14,0,0,0,.8-.33,1.16,1.16,0,0,0,.33-.79,1.13,1.13,0,0,0-1.13-1.13c-.8,0-1.6,0-2.4,0a1.11,1.11,0,0,0-1.12,1.12,1.14,1.14,0,0,0,.32.8,1.25,1.25,0,0,0,.8.33Z" fill="#262521"/><path d="M31,20.67h4.35a1.13,1.13,0,0,0,0-2.25H31a1.13,1.13,0,1,0,0,2.25Z" fill="#262521"/><path d="M35.45,12.69c.2,0,.4,0,.6,0a8.55,8.55,0,0,0,.87-.09.82.82,0,0,0,.38-.2.86.86,0,0,0,.29-.31.8.8,0,0,0,.13-.42.77.77,0,0,0,0-.45L37.59,11a1.1,1.1,0,0,0-.4-.4l-.27-.12a1.22,1.22,0,0,0-.6,0h0l.3,0a5.53,5.53,0,0,1-1.15,0,.83.83,0,0,0-.44.09.88.88,0,0,0-.36.24.77.77,0,0,0-.23.36.91.91,0,0,0-.1.43l0,.3a1.1,1.1,0,0,0,.29.5l.23.17a1,1,0,0,0,.57.16Z" fill="#262521"/><path d="M26.8,7.59c1,0,2,0,3.07,0A1.12,1.12,0,0,0,31,6.44a1.15,1.15,0,0,0-1.12-1.13c-1,0-2.05,0-3.07,0a1.18,1.18,0,0,0-.8.33,1.12,1.12,0,0,0,.8,1.92Z" fill="#262521"/><path d="M32.6,2.26h3.74a1.13,1.13,0,0,0,1.12-1.13A1.13,1.13,0,0,0,36.34,0H32.6a1.15,1.15,0,0,0-1.13,1.12A1.16,1.16,0,0,0,32.6,2.26Z" fill="#262521"/><path d="M42.53,5.91q1.42.06,2.85,0a1.17,1.17,0,0,0,.79-.33,1.11,1.11,0,0,0,.33-.8,1.12,1.12,0,0,0-1.12-1.12q-1.43,0-2.85,0a1.13,1.13,0,0,0,0,2.25Z" fill="#262521"/><path d="M41.69,17.63c.86,0,1.72-.05,2.57,0a1.14,1.14,0,0,0,1.13-1.13,1.15,1.15,0,0,0-1.13-1.12c-.85,0-1.71,0-2.57,0a1.22,1.22,0,0,0-.79.33,1.13,1.13,0,0,0,0,1.6,1.12,1.12,0,0,0,.79.32Z" fill="#262521"/><path d="M37.62,25.28l2.85.07a1.12,1.12,0,0,0,1.12-1.12,1.15,1.15,0,0,0-1.12-1.13L37.62,23a1.12,1.12,0,0,0-1.12,1.12,1.14,1.14,0,0,0,1.12,1.13Z" fill="#262521"/><path d="M33.05,28.21h3.07a1.13,1.13,0,0,0,0-2.25H33.05a1.14,1.14,0,0,0-1.13,1.12,1.16,1.16,0,0,0,1.13,1.13Z" fill="#262521"/><path d="M23.5,27.65h1.62a1.13,1.13,0,0,0,1.13-1.13,1.16,1.16,0,0,0-.33-.79,1.14,1.14,0,0,0-.8-.33H23.5a1.13,1.13,0,0,0-.79.33,1.11,1.11,0,0,0-.33.79,1.15,1.15,0,0,0,.33.8,1.17,1.17,0,0,0,.79.33Z" fill="#262521"/><path d="M20,22.53c.32-.07.64-.13,1-.17l-.3,0a12.27,12.27,0,0,1,1.71-.11,1.16,1.16,0,0,0,.79-.33,1.11,1.11,0,0,0,.33-.8A1.13,1.13,0,0,0,22.39,20a13.6,13.6,0,0,0-3,.32,1.12,1.12,0,0,0-.67.51,1.21,1.21,0,0,0-.12.87,1.16,1.16,0,0,0,1.39.79Z" fill="#262521"/><path d="M12.34,24.44c1.06,0,2.12,0,3.18,0a1.13,1.13,0,1,0,0-2.25c-1.06,0-2.12,0-3.18,0a1.12,1.12,0,0,0-1.12,1.12,1.15,1.15,0,0,0,1.12,1.13Z" fill="#262521"/><path d="M7.43,27.65h2a1.13,1.13,0,0,0,1.12-1.13,1.11,1.11,0,0,0-.33-.79,1.13,1.13,0,0,0-.79-.33h-2a1.13,1.13,0,0,0-.79.33,1.11,1.11,0,0,0-.33.79,1.15,1.15,0,0,0,.33.8,1.17,1.17,0,0,0,.79.33Z" fill="#262521"/><path d="M.77,15.38a9.46,9.46,0,0,1,1.46.45.73.73,0,0,0,.44,0,.8.8,0,0,0,.42-.13.89.89,0,0,0,.32-.29.93.93,0,0,0,.2-.38,1.2,1.2,0,0,0-.11-.87L3.32,14a1.2,1.2,0,0,0-.5-.29,9,9,0,0,0-1.45-.45,1.17,1.17,0,0,0-.86.12.75.75,0,0,0-.32.29A.78.78,0,0,0,0,14a1.15,1.15,0,0,0,.11.87,1.13,1.13,0,0,0,.67.51Z" fill="#262521"/><path d="M2.36,19l.57.06c.07,0,.32.06,0,0l.24,0c.35.05.7.11,1,.18.69.13,1.38.3,2.06.49a1.13,1.13,0,0,0,.6-2.17,26.79,26.79,0,0,0-4.53-.85,1.12,1.12,0,0,0-1.12,1.13A1.14,1.14,0,0,0,2.36,19Z" fill="#262521"/></g></pattern></defs><title>s03e04-03</title><path d="M401.89,1235.47s59.7-17.78,201.6-22.29,198.12,9.94,198.12,9.94l21.11,287.24c-209.14,38.46-397.55,3.9-397.55,3.9Z" fill="#262521" stroke="#262521" stroke-linecap="round" stroke-linejoin="round" stroke-width="3"/><path d="M489.67,531.26l0,0S489.68,531.23,489.67,531.26Z" fill="#262521"/><path d="M801.77,586.45c-11.7-5.66-142.3-56.21-142.3-56.21s-2.49,55-82.84,55c-65.08,0-82.1-39.23-86.21-51.38a10.79,10.79,0,0,1-.75-2.59c-1.05.66-133.79,83.87-145.44,89.5-2.17,1-15.49,16.94-15.81,45.24l0,0C326.69,673,807.2,589.07,801.77,586.45Z" fill="#262521" stroke="#262521" stroke-linecap="round" stroke-linejoin="round" stroke-width="3"/><path d="M420.14,1018.52c.49,23.68-51.08,150.6-11.29,400.23,0,0,80.47,13.89,157.46,13,137.53-1.66,260.13-14.49,260.13-14.49s-13.14-284.42-36.8-361.94c17.07,47.16,22.93,239.27,22.93,239.27s74.22,29.37,87.12,13.16c5.69-8.11-9.66-70.1-8.84-82.32s-6-95-11.56-176.21c-3.83-55.87-26.78-131.77-26.78-131.77s-11.82-306.5-50.12-331.49c-10.88-7.1-96.54-40.73-96.54-40.73S661.81,607,581.46,607c-65.08,0-132.1-34.36-136.21-46.51a11.55,11.55,0,0,1-.75-2.59c-1,.65-55.15,35.56-99.65,62.37-44.73,27-27.06,316.62-27.06,316.62s-6.05,70-.53,138.46,1.85,234.37,12.22,247.81c24,21,78.36-19,78.36-19" fill="#848484"/><path d="M419.07,1019c.49,23.68-51.08,150.6-11.29,400.23,0,0,80.47,13.89,157.46,13,137.53-1.66,260.13-14.49,260.13-14.49s-13.14-284.42-36.8-361.94c17.07,47.16,27.65,239.64,27.65,239.64s74,28.32,82.39,12.79c4.33-6.75-9.65-70.1-8.83-82.32s-6-95-11.56-176.21c-3.83-55.87-26.78-131.77-26.78-131.77s-11.82-306.5-50.12-331.49c-10.89-7.1-96.54-40.73-96.54-40.73s-44,61.77-124.39,61.77c-65.08,0-132.1-34.36-136.21-46.51a10.94,10.94,0,0,1-.75-2.59c-1,.65-55.15,35.56-99.65,62.37-44.73,27-27.06,316.61-27.06,316.61s-6.06,70-.53,138.47,1.17,233,12.22,247.81c21.33,19.61,74.9-17.6,74.9-17.6" opacity="0.2" fill="url(#b)"/><path d="M818.46,1296.31s72,28.38,80.3,11.93c3.62-7.19-9.65-70.1-8.84-82.32s-6-95-11.55-176.21c-3.84-55.87-26.78-131.77-26.78-131.77s-11.83-306.5-50.13-331.49c-10.88-7.1-96.54-40.73-96.54-40.73s-44,61.77-124.38,61.77c-65.09,0-132.1-34.36-136.21-46.51a10.94,10.94,0,0,1-.75-2.59c-1,.65-55.15,35.56-99.65,62.37-44.73,27-27.06,316.61-27.06,316.61s-6.06,70-.53,138.47,1,240.73,13.14,247.29c25,19.7,65.86-11.68,65.86-11.68" fill="none" stroke="#262521" stroke-linecap="round" stroke-linejoin="round" stroke-width="3"/><path d="M419.22,1019c.49,23.68-51.08,150.6-11.29,400.23,0,0,80.46,13.89,157.46,13,137.52-1.66,260.13-14.49,260.13-14.49s-13.14-284.42-36.8-361.94" fill="none" stroke="#262521" stroke-linecap="round" stroke-linejoin="round" stroke-width="3"/><path d="M419.22,1019c-.71-48.94.82-141.35-4-169.93s-7.89-80.81-7.89-80.81" fill="none" stroke="#262521" stroke-linecap="round" stroke-linejoin="round" stroke-width="3"/><path d="M788.72,1055.81s-6.91-79.65-6.91-122.74-8.43-172.89-8.43-172.89" fill="none" stroke="#262521" stroke-linecap="round" stroke-linejoin="round" stroke-width="3"/></svg>