<svg xmlns="http://www.w3.org/2000/svg" width="1250" height="1550" viewBox="0 0 1250 1550"><title>s03e02-03</title><path d="M667.72,358.7s-3.46-101.94-101.64-101.94c-4.86.36-168.76,83.6-168.76,83.6L387.3,149H735.13Z" fill="#ffc802"/><path d="M653,236.65c-3.21-3.5-7.15-7.5-6.09-12,.5-2.11,2.09-3.88,2.83-5.93,1.42-3.9-.48-8.31-3.68-11.19s-7.49-4.48-11.76-5.76c-23-6.86-47.78-5.92-71.94-4.91-8.35.35-16.83.72-24.74,3.2-7.15,2.23-13.55,6.1-19.85,9.93-9.38,5.7-19.64,10.16-28.15,17.1-25.58,20.86-24.8,66.37-23.45,78.46l99-59,99,47.34C663.78,280.57,662.39,246.83,653,236.65Z" fill="#465652" stroke="#262521" stroke-linecap="round" stroke-linejoin="round" stroke-width="3"/><path d="M488.78,535.38c10.38-5.26,17.73-10.2,19.27-14.15,2.32-6,3-14.93,3-24.11-14.32.79-25.64,2.81-28.64,6.92-9.9,13.57-12.16,13.57-12.16,13.57s-8.2-8.2-14.7,0-35.63,29.41-30,40.15,70.9,32.33,70.9,32.33C497.55,577.76,490.26,539.47,488.78,535.38Z" fill="#c1bfbd"/><path d="M721.25,542.44c-8.85-5.58-8-14.34-11.34-21s-13.84,1.66-13.84,1.66-10.79-15.77-17.71-24.44c-3-3.78-20.84-3.88-40-2.79.85,13.67,2.77,26.49,6.85,30,1.88,1.61,7.6,4.25,15.59,7.46-.83,3.65,72.94,28.08,74,24.64C737,551.07,730.1,548,721.25,542.44Z" fill="#c1bfbd"/><path d="M800.54,1223.65l-26.64-647-124.34-50.1s-7.62,55.38-75,58.47-73.43-58.47-73.43-58.47L385.82,607.22l39,405.79-14.17,333.31s100.87,16.5,214.68,12,180.87-13.77,180.87-13.77Z" fill="#828282" stroke="#262521" stroke-linecap="round" stroke-linejoin="round" stroke-width="3"/><path d="M860.35,918.39s-1.41-298-58.89-331.94c-11.18-6.61-142.4-59-142.4-59s-2.9,146.06-24.23,187.67c-36.38,81.94,36,782.51,36,782.51,120-4.44,149.53-106,149.53-106s0-200.33-30.63-324.22c13.83,47.61,28.27,153.84,38.48,163,1.64,26.39,1.88,36.36,1.88,36.36l64.1-1.5s-1-14.3-2.6-35.73C917.24,1146.38,860.35,918.39,860.35,918.39Z" fill="#c1bfbd"/><path d="M734.81,558c2.21-6.91-4.71-10-13.56-15.54s-8-14.34-11.34-21-13.84,1.66-13.84,1.66-10.79-15.77-17.71-24.44c-3-3.78-20.84-3.88-40-2.79.85,13.67,2.77,26.49,6.85,30a22.3,22.3,0,0,0,4.06,2.43" fill="none" stroke="#262521" stroke-linecap="round" stroke-linejoin="round" stroke-width="3"/><path d="M547.23,717.36c-24.29-69.4-53.3-172.25-57.11-183.51a10.79,10.79,0,0,1-.75-2.59c-1,.65-101,62.61-145.44,89.5C288.65,654.21,317.25,945,317.25,945s-24.38,212.36,1,296.39c2.37,15.93,3.05,28,6.44,41.4l63.95-1.5s-4.06-29.79-3.11-42.46c12.87-27.53,10.41-100.55,20.24-131.5,6-18.8,10.39-47.35,12.93-66.86a163.78,163.78,0,0,1-1.32,19.9c-25.31,154.75-12.94,356-12.94,356s117,87.39,154.76,77.26C559.2,1493.69,588.78,828.92,547.23,717.36Z" fill="#c1bfbd"/><path d="M431.93,566.78c-31,19.16-65.36,40.28-88,54C288.65,654.21,317.25,945,317.25,945s-24.38,212.36,1,296.39c2.37,15.93,3.05,28,6.44,41.4l63.95-1.5s-4.06-29.79-3.11-42.46c12.87-27.53,10.41-100.55,20.24-131.5,6-18.8,10.39-47.35,12.93-66.86a163.78,163.78,0,0,1-1.32,19.9c-22.54,204.27-12.94,356-12.94,356s117,87.39,154.76,77.26c0,0,29.58-680.56-12-776.33-24.29-69.4-57.88-186-57.86-186.1" fill="none" stroke="#262521" stroke-linecap="round" stroke-linejoin="round" stroke-width="3"/><path d="M659.17,528.74s-3,144.76-24.34,186.37c-36.38,98,36,782.51,36,782.51,120-4.44,149.53-106,149.53-106s-6.89-250.83-30.63-324.22c13.83,47.61,28.27,153.84,38.48,163,1.64,26.39,1.88,36.36,1.88,36.36l64.1-1.5s-1-14.3-2.6-35.73c25.63-83.13-31.26-311.12-31.26-311.12s-1.41-298-58.89-331.94c-5.14-3-35.63-15.16-67.07-27.38l-6.87,18.51" fill="none" stroke="#262521" stroke-linecap="round" stroke-linejoin="round" stroke-width="3"/><path d="M723,590.09S634.83,761,632.74,933.92" fill="none" stroke="#636363" stroke-linecap="round" stroke-linejoin="round"/><path d="M455.49,590S556.81,760.18,562.81,942.84" fill="none" stroke="#636363" stroke-linecap="round" stroke-linejoin="round"/><path d="M789.75,1067.39C788.52,1019.81,762.91,755,762.91,755" fill="none" stroke="#262521" stroke-linecap="round" stroke-linejoin="round" stroke-width="3"/><path d="M410.65,770.51s9.57,231,8.05,270" fill="none" stroke="#262521" stroke-linecap="round" stroke-linejoin="round" stroke-width="3"/><path d="M501.09,528.27c3.68-2.56,6.14-4.94,7-7,2.32-6,3-14.93,3-24.11-14.32.79-25.64,2.81-28.64,6.92-9.9,13.57-12.16,13.57-12.16,13.57s-8.2-8.2-14.7,0-35.63,29.41-30,40.15,16.8,8,25,23.3" fill="none" stroke="#262521" stroke-linecap="round" stroke-linejoin="round" stroke-width="3"/><rect x="752.21" y="1162.29" width="27.43" height="126.99" fill="none" stroke="#636363" stroke-linecap="round" stroke-linejoin="round" transform="translate(-171.89 125.92) rotate(-8.45)"/><rect x="437.11" y="1172.85" width="25.93" height="126.78" fill="none" stroke="#636363" stroke-linecap="round" stroke-linejoin="round" transform="translate(687.04 2530.34) rotate(-170.37)"/><path d="M471.92,267.51c-12.93,33.62-.61,92.85,4.21,91.15,2.54-.9-5.22-83.14,90.5-83.14s84.26,71,94.72,81.16c0,0,10.77-70.52-6.36-102.36S549.11,155.76,471.92,267.51Z" fill="#465652" stroke="#262521" stroke-linecap="round" stroke-linejoin="round" stroke-width="3"/><path d="M529.64,273s105.7-43.57,133.12,64.05" fill="none" stroke="#262521" stroke-linecap="round" stroke-linejoin="round" stroke-width="3"/><path d="M553.25,261.25s-71.66,5-83.62,84.29" fill="none" stroke="#262521" stroke-linecap="round" stroke-linejoin="round" stroke-width="3"/></svg>