<svg xmlns="http://www.w3.org/2000/svg" width="1000" height="1550" viewBox="0 0 1000 1550"><path fill="#5b5745" stroke="#262521" stroke-linecap="round" stroke-linejoin="round" stroke-width="3" d="M475.31 1570.52l7.65-169.93 25.52-8.68 26.26 178.61h160.18l-18.94-322.39-396.54 16.39 37.54 306h158.33z"/><path d="M679.54 1251s14.09 107.47 11 119.16c-1.22 4.65-22.34-70.94-42.35-69.91s-10.94 71.65-17.83 69.91c-85.14-21.55-159.46-67-276.59 19-18 13.21-20.92-71.45-34.42-68.63s-28 80-29.91 74.56c-3.89-10.84-9.26-144.1-9.26-144.1z" fill="#262521" stroke="#262521" stroke-linecap="round" stroke-linejoin="round" stroke-width="3"/><path d="M752.23 1043c-3.83-55.87-22.88-124.63-22.88-124.63s-14.59-306.95-52.89-331.94C665.58 579.35 530 529 530 529s-1.63 53.94-77 52.21c-65.07-1.5-80.64-40-84.76-52.13-1-2.85-104.64 64.72-149.37 91.67S192.25 945 192.25 945a619.73 619.73 0 00-3.6 128.12c5.53 68.42-1.88 179.2 14.45 197.94l61-1.5s-5.6-14.35-4.65-27c2.27-30.22 5.53-104.27 15.36-135.22 4.75-14.95 9.92-36.08 14-53.92-3.91 31.43 391 79.4 383.19 32.69 14.79 45.71 30.06 102.55 31.84 131.2 1.64 26.39 2.89 34.36 2.89 34.36h58.1s4.48-6.67 5.3-18.89-12.32-108.5-17.9-189.78z" fill="#262521" stroke="#262521" stroke-linecap="round" stroke-linejoin="round" stroke-width="3"/><path d="M463.78 641.06c-279.84-131.88-198.84 497.26-189 466.31 4.75-14.95 9.92-36.08 14-53.92-3.91 31.43-21.46 116.57-10.26 141.27 0 13-6.32 69.65-6.32 69.65s73.26 22.15 150.25 21.22C560 1283.93 685.8 1259 685.8 1259s-6.68-56.7-7.46-70.3c8-13.74 1.42-55.8-6.39-102.51 14.79 45.66 56.57-606.82-208.17-445.13z" fill="#b5b5b5"/><path d="M726.1 1054.28c-3.83-55.87-30.72-128.11-30.72-128.11s-8.49-281.5-46.79-306.49c-10.89-7.11-98.13-56.56-103-54S529.32 605.49 458 608c-65 2.27-91.08-31.27-92.83-35.08-1.26-2.73-59.06 36.1-101.77 66.15-51.35 36.07-32.4 305.44-32.4 305.44a1154.58 1154.58 0 00-6.71 129.85c.62 72.82-5.75 123.63.46 129.12s37 3.28 37 3.28c1.1-14.57 2.71-46.3 7.62-74.8 5.27-30.62 14-58.24 19.39-78.51-1.85 14.82-6.72 41.6-10.19 68.34 40.33-33.2 39.69-185.09 34.32-263.1-7.61-110.52-46.28-270.59 149.55-179 176.82-110.29 161.37 58.4 160.67 169.18-.48 76.56 14.22 230.34 53.16 263.82-1.33-8.56-2.8-17.46-4.32-26.55 14.79 45.71 24.13 76.25 28.91 105.2 1.1 3.73 32.75 5.3 36-4.16s-5.18-51.63-10.76-132.9z" fill="#fff"/><path d="M280.18 1111.5c38.24-37 31.08-181.8 25.71-259.81-7.61-110.52-39.28-270.59 156.55-179 176.82-110.29 167.87 58.4 167.17 169.18-.48 76.56 9.93 225.59 44.74 258.8" fill="none" stroke="#b5b5b5" stroke-linecap="round" stroke-linejoin="round" stroke-width="1.02"/><path d="M703.79 1217.34c-1.72-27.77-16.12-82-30.47-126.95M288.3 1057c-3.84 16.48-9.28 37-13.53 50.41-9.83 31-13.09 105-15.36 135.22" fill="none" stroke="#262521" stroke-linecap="round" stroke-linejoin="round" stroke-width="3"/><path d="M285.65 807.61s5.34 199.1 3.83 238.13c-.83 21.49-23.3 121.8-11 149 0 13-6.32 69.65-6.32 69.65s73.26 22.15 150.25 21.22C560 1283.93 685.8 1259 685.8 1259s-6.68-56.7-7.46-70.3c14.5-25-19.07-143.81-20.87-213.76-1.22-47.59-16.09-167.28-16.09-167.28" fill="none" stroke="#262521" stroke-linecap="round" stroke-linejoin="round" stroke-width="3"/><path d="M289.48 1199.78S455 1230.3 662.63 1195" fill="none" stroke="#636363" stroke-linecap="round" stroke-linejoin="round"/></svg>