<svg xmlns="http://www.w3.org/2000/svg" xmlns:xlink="http://www.w3.org/1999/xlink" width="1250" height="1550" viewBox="0 0 1250 1550"><defs><clipPath id="a"><path d="M801.46,586.45c12.91,8,30.55,80.56,37.22,143.73s15.67,188.21,15.67,188.21c18.92,38.94,36.38,272.67,36.38,272.67l-62.94,1.62c-8.41-44.34-32.16-110.58-32.16-110.58,17.57,84.88,6.59,98,6.59,98L810,1253l-412.13,5.42,4.58-74.09c-8.65-10.36,4.3-97.09,4.3-97.09C386,1124.92,386,1213.18,386,1213.18s-66.77,9.14-68.72-1.11c-2.21-28.17,0-64.89-3-131.45-7.42-36.89,3.06-135.58,3.06-135.58l-3.93-112.49s-1.45-187.77,30.61-211.79l121.88-74.89S499,617.16,584.1,614.34C664.58,611.67,687.67,541,687.67,541S788.56,578.4,801.46,586.45Z" fill="none"/></clipPath></defs><title>s03e11-01</title><path d="M402.41,1253.81s61.38,6.09,203.29,1.59S801,1248.13,801,1248.13l19,231.09c-209.13,38.46-397.54,3.9-397.54,3.9Z" fill="#262521" stroke="#262521" stroke-linecap="round" stroke-linejoin="round" stroke-width="3"/><path d="M489.37,531.26l0,0S489.38,531.23,489.37,531.26Z" fill="#262521"/><path d="M877.23,1043c-3.83-55.87-22.88-124.63-22.88-124.63s-14.59-306.95-52.89-331.94c-10.88-7.1-142.29-56.21-142.29-56.21s-2.49,55-82.84,55c-65.08,0-82.1-39.23-86.21-51.38a10.79,10.79,0,0,1-.75-2.59c-1,.65-100.94,62.69-145.44,89.5C299.2,647.71,317.25,945,317.25,945a619.73,619.73,0,0,0-3.6,128.12c5.53,68.42-1.88,179.2,14.45,197.94l61-1.5s-5.6-14.35-4.65-27c2.27-30.22,5.53-104.27,15.36-135.22,4.73-14.91,9.88-35.95,14-53.76-4.31,34.21-22.49,106-11.26,130.74,0,13-4.58,74.09-4.58,74.09s74.26,22.14,151.26,21.22C686.66,1278,810,1253,810,1253s-7-59.34-7.79-72.93c8.61-14.87,2.48-40.88-6.59-98,15.19,46.35,31.33,105.74,33.16,135.24,1.64,26.39,2.89,34.36,2.89,34.36h58.1s4.48-6.67,5.3-18.89S882.81,1124.28,877.23,1043Z" fill="#262521"/><g clip-path="url(#a)"><path d="M521.8,605.94a37.55,37.55,0,0,1-15.28,7.33,2.18,2.18,0,0,1-2.24-.39,3.06,3.06,0,0,1-.46-1.41,8,8,0,0,0-5.7-6.28,7.42,7.42,0,0,0-7.66,3.11,2,2,0,0,0-.45,1.21c.07,1.49,2.33,1.35,3.19,2.52s-.24,3.2.37,4.65c.77,1.83,3.44,1.34,4.82,2.67,1.63,1.56.58,4.54-1,6.16s-3.69,2.89-4.36,5.13c1.68-.49,3.1,1.8,2.7,3.62s-1.87,3.09-3.25,4.23L482.1,647l19.27-.22a6.11,6.11,0,0,1,2.37.28c2.1.83,2.85,3.68,2.62,6.08s-1.13,4.71-1.12,7.12a2.44,2.44,0,0,0,.56,1.8c.67.62,1.7.32,2.53,0l5.46-2.24c-1.27,2.57,1.61,5.51,4.31,5.6s5.24-1.36,7.93-1.69c6.56-.78,11.91,5.09,16.79,9.86,2.09,2,5.16,4,7.53,2.38,2.7-1.89,1.92-6.85,4.48-9,1.85-1.51,4.62-.83,6.6-2.13,2.91-1.92,2.46-6.7,4.42-9.71,1.72-2.63,5.31-4,5.75-7.16s-2.4-5.39-5-6.72-5.62-2.81-6.25-5.82c-.33-1.59.13-3.27-.05-4.89-.52-4.65-5.59-6.67-9.75-8.06a89.05,89.05,0,0,1-26.74-14.41" fill="#33322e"/><path d="M520.86,605a37.54,37.54,0,0,1-7.2,4.45,35,35,0,0,1-3.82,1.53c-.61.2-1.21.38-1.83.55a7.62,7.62,0,0,1-2.18.52c-.71,0-.62-.47-.75-1.11a10,10,0,0,0-.5-1.58,9.8,9.8,0,0,0-1.94-3,8.47,8.47,0,0,0-5.89-2.68,8.89,8.89,0,0,0-6.18,2.45c-1.45,1.36-2.82,3.67-1,5.3a15.37,15.37,0,0,0,2.13,1.11c.92.58.36,1.89.32,2.8-.09,2.26,1.31,3.54,3.34,4.15.92.28,2.2.43,2.45,1.54a4.33,4.33,0,0,1-1.18,3.29c-1.75,2-4,3.27-4.93,6a1.36,1.36,0,0,0,1.65,1.65c1.3-.26,1,2.27.74,2.84-.7,1.42-2.17,2.42-3.36,3.41l-9.61,7.91a1.35,1.35,0,0,0,1,2.28l13.83-.15c2.07,0,4.19-.19,6.25-.06,1.76.11,2.54,1.38,2.8,3,.58,3.53-2.09,7.29-.82,10.75A3,3,0,0,0,508,663.6a62.1,62.1,0,0,0,6.12-2.47l-1.51-2a5.09,5.09,0,0,0,1.73,6.17c2.21,1.77,4.83,1.62,7.43.9,2.79-.78,5.27-1.65,8.15-.78a18.39,18.39,0,0,1,6.46,3.91c2.11,1.8,4,3.87,6,5.72,1.84,1.65,4.38,3.32,7,2.75,2.33-.51,3.53-2.56,4.18-4.67.55-1.75.73-4.39,2.53-5.37a12.9,12.9,0,0,1,3.61-.82,6.43,6.43,0,0,0,3.34-1.69c1.61-1.61,2.08-4,2.65-6.08a12.13,12.13,0,0,1,1.12-3.05,11,11,0,0,1,2.45-2.61c1.65-1.46,3.31-3,3.63-5.32.34-2.51-1-4.72-2.92-6.27s-4.33-2.35-6.3-3.86a5.17,5.17,0,0,1-2-2.61c-.44-1.56.07-3.27-.08-4.87a8.24,8.24,0,0,0-3-5.53,21,21,0,0,0-6.81-3.51c-3.1-1.08-6.18-2.18-9.17-3.55a89.06,89.06,0,0,1-17.88-10.83c-1.34-1-3.25.84-1.89,1.9a93,93,0,0,0,14.25,9.22,131.63,131.63,0,0,0,14.9,6.17,14.88,14.88,0,0,1,5.29,3c1.85,1.82,1.64,3.83,1.59,6.25a7.38,7.38,0,0,0,2.63,6c1.71,1.45,3.78,2.23,5.64,3.42s3.83,3.12,2.9,5.43c-.75,1.85-2.81,3-4.15,4.37a12.31,12.31,0,0,0-2.84,5.66c-.46,1.76-.8,4.16-2.49,5.19-2,1.24-4.64.57-6.58,2.15-1.61,1.3-2.16,3.34-2.67,5.25-.45,1.68-1,4.28-3.31,4s-4.33-2.65-5.95-4.24c-3.75-3.7-8-7.91-13.53-8.58-2.94-.35-5.5.78-8.3,1.43a4.73,4.73,0,0,1-4-.43c-.87-.61-1.81-1.79-1.32-2.91.39-.92-.29-2.47-1.51-2a48,48,0,0,1-6.12,2.47c-.33.08-.48.19-.68-.09s-.06-1,0-1.31a19.8,19.8,0,0,1,.5-3c.67-3.11,1.26-6.76-1-9.42a5.18,5.18,0,0,0-3.93-1.75c-2.24-.1-4.51,0-6.74.07l-13.34.15L483,648l6.73-5.54c1.92-1.58,4.16-3.07,5.76-5a5.62,5.62,0,0,0,1.33-5.39,3.66,3.66,0,0,0-4.19-2.7l1.64,1.65c.75-2.2,3.05-3.33,4.46-5s2.21-3.89,1.57-5.94-2.65-2.54-4.51-3.19c-1-.35-1.16-.8-1.07-1.84a5.82,5.82,0,0,0-.24-3.36A3.79,3.79,0,0,0,492.6,610a4,4,0,0,1-1-.43c-.39-.34-.32-.18.1-.74a6.08,6.08,0,0,1,5.86-2.38,6.46,6.46,0,0,1,4.67,4.3c.37,1.1.32,2.33,1.2,3.2a3.42,3.42,0,0,0,3.07.68c5.91-1,11.57-4.08,16.22-7.75,1.35-1.06-.55-3-1.89-1.89Z" fill="#33322e"/><path d="M457.92,561.7c3,.31,6.17.73,8.83,2.34s4.77,4.69,4.49,8a4.92,4.92,0,0,0,0,1.48c.39,2,3.27,2,4.09,3.8.7,1.52-.5,3.43,0,5,1,2.86,6.13,2,6.58,5a3.84,3.84,0,0,1-1.63,3.23,13.18,13.18,0,0,1-16.14.78,1.68,1.68,0,0,0-1.21-.47c-.63.15-.84,1-1.05,1.64a6.75,6.75,0,0,1-4.59,4.2,18.22,18.22,0,0,1-6.21.4l-10.41-.54c-3.87-.19-7.83-.38-11.54.83-5.77,1.89-11.13,7.13-17,5.58-1.45-.39-2.82-1.19-4.31-1.27-2.84-.15-5.16,2.27-7.76,3.53-3,1.45-6.38,1.38-9.62,1.07a18,18,0,0,1-7.65-2.06,2.85,2.85,0,0,1-1.57-2,3.32,3.32,0,0,1,1.35-2.52c7.93-7.59,17.89-12.7,24.78-21.38,2-2.48,3.65-5.21,5.84-7.44,5.81-5.91,14.22-7.49,22.11-8.81,6.78-1.12,13.83-2.24,20.38-.09" fill="#33322e"/><path d="M457.92,563c3.84.4,8.17,1.06,10.62,4.41a7.21,7.21,0,0,1,1.3,5.11,3.82,3.82,0,0,0,2,3.68c.55.36,1.19.6,1.71,1,.71.53.71,1.14.6,2-.23,1.62-.52,3.18.52,4.59a6.5,6.5,0,0,0,3.2,2c.78.29,2.38.57,2.71,1.47.54,1.52-2.19,3.08-3.21,3.64a11.83,11.83,0,0,1-5,1.41,12.07,12.07,0,0,1-5.11-.85c-1.43-.58-3-2.35-4.63-2s-1.7,2.51-2.57,3.73a6.7,6.7,0,0,1-4.89,2.47,46.09,46.09,0,0,1-6.75-.15l-7.2-.37c-4.38-.22-8.92-.46-13.1,1.11-3.54,1.32-6.64,3.61-10.2,4.86a9.07,9.07,0,0,1-5.17.5c-1.88-.45-3.57-1.51-5.58-1.34-3.83.32-6.47,3.74-10.2,4.5a21.75,21.75,0,0,1-6,.12,19.8,19.8,0,0,1-6.27-1.33c-.57-.25-1.86-.74-2-1.44s1-1.64,1.53-2.11c1.51-1.4,3.08-2.72,4.69-4,6.13-4.87,12.8-9.17,18-15.08,2.73-3.07,4.76-6.74,7.73-9.6a25.08,25.08,0,0,1,9.82-5.54,76.09,76.09,0,0,1,11.08-2.46,64,64,0,0,1,13.3-1.27,25.15,25.15,0,0,1,6.56,1.14c1.65.52,2.36-2.06.72-2.58a33.87,33.87,0,0,0-14.13-.93,132.36,132.36,0,0,0-13.12,2.16,39.32,39.32,0,0,0-11.48,4.12c-3.8,2.19-6.5,5.33-9.05,8.84a55.39,55.39,0,0,1-8.91,9.64c-3.29,2.8-6.81,5.32-10.24,8-1.66,1.27-3.31,2.57-4.9,3.94s-3.52,2.67-4.15,4.56c-1.45,4.41,5.38,6,8.35,6.39,4.22.59,8.78.85,12.67-1.19,1.78-.93,3.36-2.41,5.31-3,2.14-.63,4.06.83,6.11,1.2,3.91.69,7.56-1.08,10.92-2.87a41.34,41.34,0,0,1,5.69-2.74,21.76,21.76,0,0,1,7.34-1c5,0,10.05.46,15.06.7,4.06.19,8.67-.26,11-4.12a12.16,12.16,0,0,0,1-2.3c-.21.62-.37,0,0,.45a3.82,3.82,0,0,0,.61.41,11.11,11.11,0,0,0,1.44.78,14.67,14.67,0,0,0,5.37,1.36,14.5,14.5,0,0,0,10.48-3.67c1.34-1.23,2.33-3,1.72-4.87a4.64,4.64,0,0,0-3-2.66c-1-.4-2.61-.63-3.31-1.53a2.78,2.78,0,0,1-.14-2.16,6.34,6.34,0,0,0,0-3c-.52-1.57-1.93-2.23-3.25-3a1.42,1.42,0,0,1-.85-1.71,9.77,9.77,0,0,0-.17-3c-.92-4-4.37-6.75-8.13-7.94a31.36,31.36,0,0,0-6.32-1.12c-1.71-.17-1.7,2.5,0,2.68Z" fill="#33322e"/><g opacity="0.13"><path d="M403.69,589c7.36-1.82,14.44-4.85,21.81-6.63,6.29-1.53,12.55-1.18,18.91-1.86,5.79-.61,11.94-2.38,14.08-9.13a24,24,0,0,0,.84-9.53l-1.41-.16-2.23.29c-6.55-2.15-13.6-1-20.38.09-7.89,1.32-16.3,2.9-22.11,8.81-2.19,2.23-3.88,5-5.84,7.44-3.78,4.75-8.47,8.43-13.25,12A50.16,50.16,0,0,0,403.69,589Z" fill="#fff"/></g><path d="M384,613.29a52.19,52.19,0,0,0-14.29,2.06,8.06,8.06,0,0,0-4.23,2.34c-.83,1-1.27,2.49-2.36,3.21-1.87,1.23-4.95-.18-6.13,1.82,4.35,3.76,10.75,1.6,16.29,2.38a29.62,29.62,0,0,1,7.37,2.37c3.83,1.6,8.21,3.88,8.93,8.24.68,4-2.24,8.22-1.13,12.16.76,2.66,3.15,4.35,5.44,5.64a55.43,55.43,0,0,0,15.49,5.9c3.56.77,7.66,1.52,9.51,4.88a7,7,0,0,0,1.59,2.51c1.75,1.29,3.91-.67,5.53-2.14a14.9,14.9,0,0,1,11.3-3.86c2.88.28,5.7,1.43,8.59,1.17s5.35-1.81,7.68-3.51a27.78,27.78,0,0,0,7.68-7.86,14.76,14.76,0,0,0,2-10.94c-.67-2.69-2.29-5.64-.93-8,.44-.77,1.13-1.33,1.63-2.06a2.27,2.27,0,0,0,.2-2.51,2.31,2.31,0,0,0-1.43-.71,33.55,33.55,0,0,0-11.86-.57,5.44,5.44,0,0,1-2.78-.09,7.84,7.84,0,0,1-2.08-1.63c-4.08-3.62-10.06-2.4-15.32-1.69-1.46.2-3.08.31-4.28-.61a12.72,12.72,0,0,1-1.93-2.46c-2-2.56-5.39-3.21-8.5-3.4-6.53-.41-13.15.48-19.57-.82-4.53-.91-9.14-2.91-13.61-1.66" fill="#33322e"/><path d="M384,612a55.91,55.91,0,0,0-9.4.88c-2.75.5-5.93,1-8.36,2.48a7.5,7.5,0,0,0-2.53,2.63c-.61,1-1,2-2.3,2.16-2.15.32-4.18-.11-5.58,1.94a1.33,1.33,0,0,0,.21,1.62c3.09,2.56,6.89,2.79,10.75,2.67a44.13,44.13,0,0,1,5.75,0,23.9,23.9,0,0,1,6.7,2c3.06,1.26,6.82,2.75,8.44,5.86,1.9,3.64-.75,7.8-.82,11.57-.07,4.07,2.74,6.83,6,8.74a56.52,56.52,0,0,0,12.65,5.34c3.43,1,7.88,1.12,10.76,3.44,1.51,1.22,1.77,3.26,3.22,4.48a4,4,0,0,0,4.76,0c1.74-1.06,3.06-2.67,4.82-3.72a13.38,13.38,0,0,1,5.85-1.9c4.47-.34,8.67,2.08,13.15.79,3.93-1.14,7.59-4.07,10.49-6.89a20,20,0,0,0,6.12-11,14.53,14.53,0,0,0-.3-6.12c-.5-1.84-1.76-4.12-1.19-6.06s2.47-2.64,2.53-4.73-1.8-2.91-3.63-3.28a36,36,0,0,0-7.24-.69c-1.12,0-2.23.07-3.34.19s-2.36.51-3.32-.09c-.79-.49-1.41-1.29-2.17-1.84a10.44,10.44,0,0,0-2.58-1.36,15.23,15.23,0,0,0-5.48-.81,47.86,47.86,0,0,0-6,.59c-1.95.28-4.16.9-5.51-.91a11.49,11.49,0,0,0-3.9-3.82,15.52,15.52,0,0,0-5.4-1.45c-4.7-.51-9.47-.06-14.2-.21a37.32,37.32,0,0,1-7.37-.9c-2.28-.53-4.52-1.24-6.83-1.6a15.51,15.51,0,0,0-6.4.18,1.34,1.34,0,0,0,.71,2.58c4.36-1.11,8.68.81,12.9,1.66,4.52.91,9.12.8,13.7.76,3.82,0,8.58-.49,12,1.55,1.67,1,2.26,2.83,3.71,4a6.48,6.48,0,0,0,5,1c3.61-.45,7.45-1.36,11.07-.47a11,11,0,0,1,4.61,2.78c1.67,1.39,3.36,1.2,5.39,1a33.25,33.25,0,0,1,6.91,0,30.38,30.38,0,0,1,3.42.53c1.09.24,1.55.46.76,1.52-1.14,1.55-2.21,2.69-2.21,4.75s.82,3.79,1.35,5.64c2.43,8.45-5,16-11.78,19.76a10.18,10.18,0,0,1-6.14,1.41c-2.21-.23-4.34-.94-6.55-1.15a16,16,0,0,0-10.73,3c-1.37,1-2.76,2.9-4.45,3.33-1,.23-1.29-.6-1.66-1.34a9.76,9.76,0,0,0-1.43-2.27c-2.24-2.57-5.79-3.32-9-4A55,55,0,0,1,397.8,654c-3.07-1.48-7.7-3.44-8.2-7.31-.25-2,.47-4,.91-5.92a13.35,13.35,0,0,0,.36-5.62c-.62-3.26-3.23-5.62-6-7.19a34.11,34.11,0,0,0-11-4.15c-3.67-.58-7.36.1-11-.24a8.84,8.84,0,0,1-4.89-1.83l.21,1.62c.43-.62,1.45-.52,2.11-.55a8.55,8.55,0,0,0,2.88-.45c2.24-.92,2.51-3.57,4.46-4.76,2.13-1.31,5.07-1.73,7.49-2.18a51.39,51.39,0,0,1,8.92-.82,1.34,1.34,0,0,0,0-2.68Z" fill="#33322e"/><g opacity="0.13"><path d="M441.93,658c-4.48-5.23-8.87-10.57-13.51-15.63-4-4.31-8.2-9-13.24-11.69-1.39-.74-3.17-1.46-4.57-1-2.26.8-2.18,4.5-2.27,6.82-.15,4.11,0,8.18-.72,12.23a67.72,67.72,0,0,1-2.61,9.45c1.45.45,2.92.84,4.4,1.16,3.56.77,7.66,1.52,9.51,4.88a7,7,0,0,0,1.59,2.51c1.75,1.29,3.91-.67,5.53-2.14a14.9,14.9,0,0,1,11.3-3.86c2.71.26,5.36,1.28,8.06,1.19C444.22,660.69,443.07,659.37,441.93,658Z" fill="#fff"/></g><path d="M585.93,793.4c-.82-1.64.51-4.17-.84-5.32-.93-.8-2.28-.15-3.28.54a64.87,64.87,0,0,0-6.16,4.84,2.67,2.67,0,0,0-1.92-3.21,5,5,0,0,0-3.81,1,1.89,1.89,0,0,1-1.37.49c-.87-.19-1-1.48-.79-2.42.08-.4.19-.8.31-1.2a5.39,5.39,0,0,0,1.09-.26c4.47-1.67,5.7-8.9,10.3-10.06-3.15-2.53-1.18-8,1.59-11.06s6.45-6.16,6.12-10.38c-.38-4.8-5.66-7.1-10.11-7.56-4.83-.5-10.29-.32-13.7-4-4.42-4.79-3-13.74-7.75-18.14-2.61-2.4-6.32-2.7-9.75-2.88l-24.77-1.3c-8-.42-16.05-.82-23.73,1.47-2.23.67-4.56,1.69-5.81,3.79-1.85,3.12-.62,7.2-.91,10.88a12.23,12.23,0,0,1-5.83,9.48,3.41,3.41,0,0,1-2.06.57c-2.06-.26-2.55-3.14-3.22-5.26-1.92-6.11-8.69-8.66-14.68-9.06s-12.3.46-17.76-2.2A16.94,16.94,0,0,1,454.8,718c2.39-1.45,5.25-2.31,6.86-4.7l-5.71-4.5a17.62,17.62,0,0,0,13.17-8.64,7.75,7.75,0,0,1,2.07-2.72c1.6-1,3.64-.3,5.51-.28a7.41,7.41,0,0,0,6.55-4.34c.63-1.36.88-2.91,1.61-4.22,1.7-3,5.31-3.9,8.47-4.87s6.7-3,7-6.49a6.46,6.46,0,0,0-3.4-5.94,12.81,12.81,0,0,0-6.72-1.26,39,39,0,0,0-16.7,4.31c-5.74,2.94-10.82,7.29-16.72,9.84s-13.29,2.91-18-1.67c-2.25-2.2-3.89-5.48-6.84-6.31-4.67-1.31-8.44,4.31-13.06,5.86-3,1-6.22.22-9.32-.29a52.72,52.72,0,0,0-25.43,2.1L382,685.56c-1.45-1.14-3.52.47-4.15,2.28s-.59,3.91-1.56,5.55c-.81,1.39-2.27,2.28-2.94,3.75-1,2.23.13,5,1.78,6.67s3.77,2.85,5.39,4.61a3.39,3.39,0,0,1,.95,1.65c.27,1.59-1.24,2.79-2.15,4.08-1.51,2.13-1.47,5.11-.8,7.68s1.88,4.95,2.55,7.52c2.07,7.91-1.21,16.59.8,24.52,3,11.72,16.06,17.33,20.39,28.54,1.52,3.93,1.87,8.37,3.85,12.05,1.59,3,4.11,5.18,6.58,7.34,2.31,2,4.78,4.12,7.74,4.49s6-1.12,8.83-2.37a57.67,57.67,0,0,1,18.94-4.7c5.39-.38,10.8,0,16.18-.45s10.87-1.82,15.2-5.3a5.85,5.85,0,0,0,2.06-2.6c.78-2.34-.89-4.69-1.85-7a12.64,12.64,0,0,1,2-12.85l1.64-3.69a14.51,14.51,0,0,1,13.64-.41,19.65,19.65,0,0,1,4.48,2.93,5.08,5.08,0,0,1-.41.51,10.56,10.56,0,0,0-1.76,1.9,1.79,1.79,0,0,0,.34,2.36c1,.56,2.69-.71,3.28.36a1.87,1.87,0,0,1,.16.75,19.82,19.82,0,0,1-.07,2.78,3.6,3.6,0,0,0,.16,2,2.41,2.41,0,0,0,.94.88,8.14,8.14,0,0,0,7.1.6,10.45,10.45,0,0,0,5.71.87,80.67,80.67,0,0,0,18.64-3.24,13.83,13.83,0,0,1,5.47-.93,13.29,13.29,0,0,1,4,1.38c1.86.86,3.74,1.68,5.63,2.48l-.43,1.06a4,4,0,0,0-.42,1.79c.19,2.55,4.34,2.49,5.06,4.92.31,1-.15,2.17,0,3.24a4,4,0,0,0,2.92,3,37.87,37.87,0,0,0,4.27.63,2.43,2.43,0,0,1,1.38.62c.54.59.57,1.53,1,2.21,1.38,2.1,5-.14,6.73,1.63,1,1,.79,2.7.24,4a18.52,18.52,0,0,0-1.68,3.89,1.65,1.65,0,0,0,.1,1.1c.39.71,1.39.56,2.1.24,3.15-1.43,6.24-4.42,9.47-3.28a8.63,8.63,0,0,0,2.2.78c1.45.1,2.59-1.26,3.49-2.5l4.52-6.26a3.77,3.77,0,0,0,1-2.68C592.21,794.22,587.2,795.94,585.93,793.4Z" fill="#33322e"/><path d="M587.22,793c-.54-1.29,0-2.73-.23-4.09a3,3,0,0,0-3-2.57c-1.72,0-3.23,1.32-4.54,2.29q-2.46,1.82-4.74,3.84l2.23,1.3a4,4,0,0,0-3.25-4.92,5.86,5.86,0,0,0-3.55.67,3.46,3.46,0,0,0-.89.52c-.33.06-.42.15-.26.28s.09.1,0,0a4,4,0,0,1,.32-1.86l-.94.94c2.86-.5,4.69-2.71,6.25-5,1.35-2,2.67-4.65,5.15-5.34a1.35,1.35,0,0,0,.59-2.24c-2.24-1.93-1-5.33.32-7.45,1.69-2.78,4.47-4.71,6.22-7.48a8.66,8.66,0,0,0,.69-8.66c-1.33-2.59-4.06-4.17-6.74-5-5.56-1.78-13.65.28-17.36-5.37-3.26-5-2.29-11.68-6.23-16.35-2.2-2.61-5.49-3.52-8.75-3.88-4.17-.45-8.42-.5-12.61-.72-8.52-.44-17.12-1.24-25.66-1.09a51.17,51.17,0,0,0-12.38,1.57c-3.21.87-6.54,2.28-8,5.53-1.5,3.49-.3,7.26-.68,10.88a10.72,10.72,0,0,1-5.14,8.13c-1.73.94-2.26-.43-2.73-1.89a24.88,24.88,0,0,0-1.44-4,13.81,13.81,0,0,0-6.48-5.88c-6.42-3-13.3-1.71-20.1-2.58a18.5,18.5,0,0,1-5.62-1.56l.66,1.16a16,16,0,0,1,4.74-11.21c2.91-2.82,7.21-3.58,9.64-7a1.35,1.35,0,0,0-.21-1.63l-5.71-4.49L456,710.1c6.4-.7,11.48-4.53,14.71-10a3.85,3.85,0,0,1,1.6-1.78,5.12,5.12,0,0,1,2.4-.07,10.17,10.17,0,0,0,4.81-.31c3.12-1.16,4.77-3.72,5.78-6.76a7,7,0,0,1,2.35-3.75,13.64,13.64,0,0,1,4.09-1.86c2.74-.87,5.52-1.66,7.66-3.69a7,7,0,0,0,1.78-7.87c-1.31-3.09-4.29-4.76-7.51-5.2a31.62,31.62,0,0,0-10.79.73,40.84,40.84,0,0,0-10.37,3.79c-6.31,3.32-11.83,8.48-18.77,10.5a17,17,0,0,1-9,.4c-3.1-.79-5.11-2.74-7.08-5.15-1.81-2.2-3.87-4.36-6.92-4.46-2.81-.09-5.24,1.69-7.41,3.25a22.6,22.6,0,0,1-4.14,2.62,11.2,11.2,0,0,1-6.1.47,81.05,81.05,0,0,0-12.63-1.27,55.07,55.07,0,0,0-12.65,1.66c-1.53.39-3.5.68-4.76,1.66l-2,1.59,1.63-.21a3.7,3.7,0,0,0-4.66.75c-1.61,1.56-1.77,3.71-2.25,5.77a5.77,5.77,0,0,1-1.32,2.69,17.26,17.26,0,0,0-2,2.36,6.35,6.35,0,0,0-.25,5.74,11.77,11.77,0,0,0,3.85,4.69c1.1.87,4.64,2.86,4,4.56a11.14,11.14,0,0,1-1.66,2.23,7.7,7.7,0,0,0-1.28,2.6,12.27,12.27,0,0,0,0,6c.54,2.35,1.61,4.53,2.33,6.82a23.23,23.23,0,0,1,1,7c0,4.8-.87,9.57-.52,14.37a23.09,23.09,0,0,0,3.6,10.89,51.87,51.87,0,0,0,7,8.27,76.39,76.39,0,0,1,7.36,8.11,29.66,29.66,0,0,1,4.66,10.8,33.71,33.71,0,0,0,2.07,6.33,19.81,19.81,0,0,0,4,5.43,59.48,59.48,0,0,0,4.95,4.43,15.32,15.32,0,0,0,5.57,3.14c4.77,1.24,9.23-1.78,13.51-3.38a56,56,0,0,1,14.25-3.33c9.67-.93,19.73.83,28.87-3.29,3.5-1.57,8.11-4.36,7.37-8.83-.35-2.17-1.73-4-2.38-6a11.45,11.45,0,0,1-.15-6.09,11.11,11.11,0,0,1,1-2.61c.42-.77,1-1.39,1.47-2.13a29.85,29.85,0,0,0,1.31-2.94c.07-.16.13-.35.22-.51.21-.35-.28,0,.14,0a10,10,0,0,0,1.54-.7,12.92,12.92,0,0,1,1.75-.48,13.64,13.64,0,0,1,6.5.35,17.18,17.18,0,0,1,6.17,3.45l-.21-1.62c-.69.91-1.7,1.49-2.23,2.54a3.4,3.4,0,0,0-.11,3,2.55,2.55,0,0,0,2.32,1.43,5.78,5.78,0,0,0,1.37-.17l.28-.06c.24,0,.24,0,0-.07s-.26-.09-.18.16,0,.47,0,.7c0,1.25-.37,2.64,0,3.87a4,4,0,0,0,2.24,2.36,9.72,9.72,0,0,0,7.59.43l-1-.13c2.86,1.47,6.12,1.12,9.22.84a81.28,81.28,0,0,0,10.41-1.6c1.71-.37,3.39-.8,5.07-1.28a17.73,17.73,0,0,1,5.11-1.12,12,12,0,0,1,4.66,1.53c1.65.75,3.32,1.47,5,2.18l-.62-1.51c-.56,1.38-1.22,2.77-.68,4.26a4.78,4.78,0,0,0,2.32,2.37,6.78,6.78,0,0,1,2.39,1.52c.41.58.2,1.34.15,2a5.12,5.12,0,0,0,.32,2.57,5.38,5.38,0,0,0,2.92,2.73,8.72,8.72,0,0,0,2.26.57,10.84,10.84,0,0,1,3,.39c.73.37.69,1.14,1,1.83a3.35,3.35,0,0,0,1.21,1.35,6.14,6.14,0,0,0,3.64.54c1.11-.06,2.48-.23,2.55,1.25.08,1.73-1.33,3.26-1.86,4.84-.45,1.32-.52,3,.89,3.81s2.89,0,4.11-.67a46,46,0,0,1,4.17-2.32,5.17,5.17,0,0,1,2.15-.5,9,9,0,0,1,2.51.82c3.59,1.13,5.72-2.91,7.45-5.3,1.23-1.7,2.87-3.44,3.69-5.38A3.47,3.47,0,0,0,593,795a6,6,0,0,0-3.2-1.21c-.9-.15-2.24-.19-2.75-1.08a1.34,1.34,0,0,0-2.31,1.35c1.06,1.86,3.08,2.06,5,2.42.49.1,1.36.16,1.59.69s-.51,1.44-.82,1.89c-.6.85-1.23,1.69-1.84,2.54-1,1.34-1.9,2.72-2.92,4a4,4,0,0,1-1.59,1.45c-.81.27-1.61-.4-2.35-.65-2.75-.92-5.4.52-7.72,1.88-.57.34-1.15.69-1.74,1-.38.21-1.05.71-1.54.62.5.09.32-.26.48-.73a9,9,0,0,1,.57-1.22,19.63,19.63,0,0,0,1-2.18c.81-2.36.21-5.28-2.49-6a11.63,11.63,0,0,0-3.12-.08,2.81,2.81,0,0,1-1.41-.12c-.47-.31-.53-1-.73-1.49-1.32-3.18-5.09-1.7-7.56-3-1.73-.94-1.17-2.3-1.2-3.94a4.15,4.15,0,0,0-1.74-3.31c-.83-.62-1.8-1-2.65-1.55-1.34-.89-.48-2.1,0-3.35a1.33,1.33,0,0,0-.61-1.51c-2.09-.88-4.15-1.81-6.22-2.75a11,11,0,0,0-5.93-1.26,47.75,47.75,0,0,0-6.51,1.65q-3.33.87-6.72,1.47t-6.92.87c-2.05.17-4.35.49-6.34-.18a7.25,7.25,0,0,0-1.31-.51,3.18,3.18,0,0,0-1.32.27,6.94,6.94,0,0,1-3.14.12c-.71-.14-2.11-.46-2.51-1.15s0-2.41,0-3.3c0-2-.66-3.7-2.94-3.41-.22,0-1,.29-1.16.18a1.31,1.31,0,0,1,.23-.66c.5-.84,1.46-1.45,2.05-2.24a1.32,1.32,0,0,0-.21-1.62,18.87,18.87,0,0,0-11.71-4.82,15.13,15.13,0,0,0-6.2,1.16,5.1,5.1,0,0,0-2.31,1.41,7.1,7.1,0,0,0-.43,1,22.25,22.25,0,0,1-1.19,2.68c-.42.68-1,1.25-1.37,1.95a13.88,13.88,0,0,0-1.15,2.69,14.28,14.28,0,0,0-.54,5.7,17.78,17.78,0,0,0,1.91,5.79,8.36,8.36,0,0,1,1,2.82,3.39,3.39,0,0,1-1.44,2.85,18.71,18.71,0,0,1-5.51,3.26,38.07,38.07,0,0,1-13.09,2.22c-5.07.13-10.15-.09-15.19.53a59.14,59.14,0,0,0-13.61,3.34c-4,1.51-8.65,4.8-13,2.9a21.27,21.27,0,0,1-5.3-3.83,34.78,34.78,0,0,1-4.67-4.65c-2.79-3.57-3.25-8.08-4.56-12.28a28.45,28.45,0,0,0-5.17-9.34c-4.35-5.42-10.17-9.69-13.69-15.76a21.69,21.69,0,0,1-2.71-11.41c.06-4.64.86-9.28.5-13.93a24.43,24.43,0,0,0-1.41-6.53,37.14,37.14,0,0,1-2.06-6.33,7.38,7.38,0,0,1,1-5.67c1.05-1.41,2.44-2.69,2.23-4.61-.23-2.1-2.26-3.55-3.8-4.75s-3.43-2.51-4.28-4.48a4.21,4.21,0,0,1-.33-2.66,5.87,5.87,0,0,1,1.7-2.4,10,10,0,0,0,2.5-5.36c.18-.94,1-4.84,2.73-3.7a1.38,1.38,0,0,0,1.62-.21l1.75-1.36a3.57,3.57,0,0,1,.38-.3c.14-.07.09.07-.07.13a30,30,0,0,1,3.11-.91,50.26,50.26,0,0,1,10.77-1.63,51.19,51.19,0,0,1,10.85.67c3.38.57,6.91,1.32,10.21,0,2.51-1,4.53-2.84,6.78-4.28s4.69-2.18,6.94-.18c2.06,1.84,3.4,4.3,5.64,6a14.76,14.76,0,0,0,7.93,2.73c6.31.39,12.05-2.53,17.22-5.83,2.87-1.82,5.65-3.77,8.63-5.41a38.52,38.52,0,0,1,10.07-3.84,28.66,28.66,0,0,1,10.22-.77c2.92.43,6.31,2.66,5.62,6.06-.54,2.65-3.5,4.07-5.82,4.82-2.57.82-5.28,1.47-7.42,3.2a8.66,8.66,0,0,0-2.65,3.77c-.62,1.64-.95,3.33-2.22,4.63a5.89,5.89,0,0,1-4.54,1.82c-1.74-.09-3.44-.56-5.12.14s-2.37,2.12-3.22,3.53a17.18,17.18,0,0,1-3.11,3.84,15.83,15.83,0,0,1-8.9,4.14c-1,.11-2,1.49-.95,2.29l5.71,4.5-.21-1.62c-1.27,1.76-3.4,2.6-5.26,3.58a17.22,17.22,0,0,0-5,3.92,19,19,0,0,0-4.52,12,1.3,1.3,0,0,0,.66,1.15,26.82,26.82,0,0,0,10.87,2.2c3.5.1,7.07-.12,10.52.58a15.83,15.83,0,0,1,8,3.81,9.44,9.44,0,0,1,2.32,3.55,35.53,35.53,0,0,0,1.4,4.11,4.17,4.17,0,0,0,2.73,2.39c1.73.39,3.41-.68,4.7-1.7a13.53,13.53,0,0,0,4.85-8.32,25.09,25.09,0,0,0,.1-5.48,12.66,12.66,0,0,1,.42-5.27c1.36-3.45,6.06-4.26,9.26-4.86,8.34-1.57,17-.62,25.44-.18l13.13.69c3.74.2,7.84,0,11.45,1.11,6.45,2,6.17,9.78,8.08,15.07a12,12,0,0,0,5.58,6.91c2.89,1.5,6.2,1.77,9.4,2,3,.24,5.9.58,8.43,2.27a5.62,5.62,0,0,1,2.07,7.43c-1.46,2.92-4.2,4.85-6.1,7.44-1.71,2.32-3,5.43-2.44,8.35a5.57,5.57,0,0,0,1.89,3.32l.59-2.24c-2.64.75-4.29,2.92-5.76,5.09s-2.86,4.76-5.64,5.24a1.33,1.33,0,0,0-.94.94c-.5,1.79-.89,5.07,1.78,5.31,1.31.12,2.23-1,3.38-1.37s2.8-.06,2.43,1.41a1.35,1.35,0,0,0,2.24,1.31c1-.92,2.1-1.81,3.19-2.66a20.24,20.24,0,0,1,3.5-2.46c1.27-.6,1.12.46,1.07,1.43a6.61,6.61,0,0,0,.28,3C585.29,795.32,587.88,794.63,587.22,793Z" fill="#33322e"/><g opacity="0.13"><path d="M517.82,771.46c-2.59-5.49-5.53-11.15-9.57-15.48-2.9-3.12-6.85-5.64-10.5-2.43-3.24,2.86-3.79,7.72-3.54,12.42a16.46,16.46,0,0,1,2.84,1,19.65,19.65,0,0,1,4.48,2.93,5.08,5.08,0,0,1-.41.51,10.56,10.56,0,0,0-1.76,1.9,1.79,1.79,0,0,0,.34,2.36c1,.56,2.69-.71,3.28.36a1.87,1.87,0,0,1,.16.75,19.82,19.82,0,0,1-.07,2.78,3.6,3.6,0,0,0,.16,2,2.41,2.41,0,0,0,.94.88,8.14,8.14,0,0,0,7.1.6,10.45,10.45,0,0,0,5.71.87c1.81-.1,3.62-.28,5.43-.5C521,778.7,519.5,775,517.82,771.46Z" fill="#fff"/></g><g opacity="0.13"><path d="M454.63,788.23a11.11,11.11,0,0,0-7.5-4.53c-6.09-1.21-12.38-.37-18.34-2.55a21.09,21.09,0,0,1-8.65-5.87c-3-3.46-5-7.79-7-12s-4-8.75-7.7-11.34a12.72,12.72,0,0,0-12.54-1c-3.08,1.36-5.87,3.74-9.27,4a8,8,0,0,1-1.55,0c3.43,11.07,15.88,16.69,20.09,27.59,1.52,3.93,1.87,8.37,3.85,12.05,1.59,3,4.11,5.18,6.58,7.34,2.31,2,4.78,4.12,7.74,4.49s6-1.12,8.83-2.37a57.67,57.67,0,0,1,18.94-4.7c3.19-.22,6.39-.19,9.58-.21C457.42,795.18,456.67,791.28,454.63,788.23Z" fill="#fff"/></g><path d="M646.76,596.6c-7,.68-14.21,1.53-20.06,5.65-3.14,2.21-5.69,5.26-8.67,7.72-6.65,5.52-15,7.9-22.72,11.52-1.72.81-3.66,2.08-3.7,4.09-.06,2.81,3.53,4.06,4.36,6.72.62,2-.43,4-1.65,5.64s-2.7,3.1-3.16,5.1.81,4.6,2.71,4.37c-1.59,1.9-3.24,3.91-3.78,6.39s.46,5.56,2.74,6.27A18.82,18.82,0,0,1,587,673c-1.86,1.72-4,3-5.88,4.74s-3.31,4.23-3.08,6.85A50.87,50.87,0,0,0,591.86,672c1.5-2,3.08-4.18,5.39-4.65,1.55-.32,3.12.23,4.68.52,6.36,1.17,12.6-2.16,18.78-4.22a13.3,13.3,0,0,1,6.27-.89,6,6,0,0,1,4.83,3.91c.29,1,.31,2,.67,2.91,1.25,3.2,5.44,3.06,8.61,2.37l-.52,6.11a2.08,2.08,0,0,0,.19,1.4,1.83,1.83,0,0,0,1.4.61,51.73,51.73,0,0,0,15-.62,15.89,15.89,0,0,1,6-.48,5,5,0,0,1,4.14,4.1,10,10,0,0,0,.19,2.27c.59,1.69,2.85,1.71,4.4,1s3.13-1.84,4.77-1.46c2.73.62,3.18,4.54,4.75,7,1.2,1.91,3.2,3,5.12,4.05l10.23,5.53c2.23,1.21,4.65,2.45,7.11,2s4.64-3.46,3.45-5.82c-.3-.6-.79-1.16-.74-1.83a2.37,2.37,0,0,1,.85-1.43c2.32-2.43,4.34-6.39,2.41-9.18-1.43-2.06-4.19-2.19-6.57-2.42s-5.23-1.22-5.7-3.74a10.71,10.71,0,0,0-.33-2.21,3.8,3.8,0,0,0-2.24-1.77c-2.81-1.19-5.76-2.48-7.58-5.07a5.4,5.4,0,0,1-1.08-2.72A8,8,0,0,1,687,664c1.62-4.53,3.33-9.2,6.48-12.69s7.58-5.73,9.18-10.2a12.41,12.41,0,0,1-5.79.4,4.77,4.77,0,0,1-3.72-4.25c0-1.35.66-2.67.44-4-.37-2.2-2.85-3-4.91-3.28a34,34,0,0,0-8.78.16,12.7,12.7,0,0,1-4.94.22,3.94,3.94,0,0,1-3.13-3.61,10.56,10.56,0,0,0,.09-1.77,2.59,2.59,0,0,0-2.59-1.9c-1.13-.05-2.25.32-3.38.26-3.56-.19-5.88-4.32-9.33-5.26-1.85-.5-4.15-.18-5.33-1.79-1.47-2,.16-4.79,1.1-7.13,1.94-4.79-.05-11.41-4.71-12.84" fill="#33322e"/><path d="M646.76,595.26c-6.49.64-13.22,1.41-19,4.71a41.44,41.44,0,0,0-7.83,6.45,40.76,40.76,0,0,1-8.15,6.17,83.68,83.68,0,0,1-9.15,4.29,80.1,80.1,0,0,0-8.95,3.93c-2.32,1.32-4.22,3.72-3.11,6.5a7.87,7.87,0,0,0,1.91,2.63c.87.89,2,1.8,2.27,3.1.32,1.83-1.1,3.57-2.16,4.9a12.26,12.26,0,0,0-2.75,4.74c-.58,2.61.92,6.21,4,6.07l-.94-2.28c-2,2.44-4.22,5.16-4.32,8.5a6.37,6.37,0,0,0,3.86,6.39l-1-1.29A17.61,17.61,0,0,1,585,672.89c-3.79,3.09-8.65,6.06-8.33,11.66a1.35,1.35,0,0,0,2,1.16,52.76,52.76,0,0,0,11.91-10.08c1.64-1.88,3-4.14,4.83-5.81,2.15-1.94,4.45-.86,7-.52,5.45.74,10.67-1.43,15.67-3.3,2.56-1,5.4-2.22,8.19-2a4.79,4.79,0,0,1,4.49,4.26c.44,2.42,1.62,4.25,4.05,5a13.22,13.22,0,0,0,6.61,0l-1.7-1.3-.44,5.17c-.12,1.35-.29,2.85,1,3.73,1.12.78,3,.68,4.27.75a52.45,52.45,0,0,0,5.32,0c1.74-.08,3.46-.25,5.18-.5s3.51-.71,5.28-.9a5.86,5.86,0,0,1,4.29.84c1.24.95,1.21,2.11,1.31,3.53.2,2.7,2.59,3.87,5.07,3.41,2.11-.41,4.86-3.26,6.59-.82,1.38,1.95,1.72,4.42,3.26,6.31,1.9,2.34,4.9,3.61,7.49,5,3.08,1.67,6.12,3.46,9.27,5,2.56,1.24,5.73,2.2,8.34.57,2-1.24,3.47-3.76,2.82-6.15a9.4,9.4,0,0,0-.7-1.51c-.35-.75.23-1,.72-1.59a14.25,14.25,0,0,0,2.26-3.48c1-2.38,1.26-5.24-.54-7.33s-4.49-2.26-7-2.5a8.09,8.09,0,0,1-3.37-.93c-1.24-.75-1.31-1.68-1.48-3-.37-3-3.22-3.6-5.55-4.73a13.87,13.87,0,0,1-3.85-2.57,4.62,4.62,0,0,1-1.33-5.11,49.44,49.44,0,0,1,4-9.46,28.33,28.33,0,0,1,6.5-7.18,18,18,0,0,0,5.48-7c.38-1-.75-1.85-1.65-1.65-1.72.39-3.69.91-5.42.3a3.32,3.32,0,0,1-2.39-3.27c.11-1.58.78-3,.21-4.57a5,5,0,0,0-2.55-2.7c-2.89-1.45-6.7-1.29-9.83-1.05-1.72.13-3.42.53-5.14.64-1.45.09-3.32-.17-3.91-1.76-.29-.77.06-1.63,0-2.43a3.27,3.27,0,0,0-.77-1.81,4.5,4.5,0,0,0-3.58-1.43c-1.49,0-2.84.53-4.28-.08a15.72,15.72,0,0,1-3.37-2.36,14.77,14.77,0,0,0-3.05-2,20.05,20.05,0,0,0-4.32-1c-3.58-.8-.85-4.94-.09-7C655.64,604,653.6,596.9,648,595c-1.64-.54-2.34,2-.72,2.59,2.44.81,3.78,3.21,4.27,5.59.6,2.87-.37,5.18-1.42,7.79s-1.32,6,1.74,7.43a14.82,14.82,0,0,0,3.68.79,8.65,8.65,0,0,1,3.78,2c2.08,1.66,4.16,3.54,7,3.49,1.06,0,3.54-.92,4.19.37.27.53-.1,1.46-.06,2.05a4.67,4.67,0,0,0,.8,2.25c2,2.93,5.46,2.61,8.51,2.15a34.79,34.79,0,0,1,6-.38,14,14,0,0,1,4.77.65,2.82,2.82,0,0,1,1.6,1.27,4.46,4.46,0,0,1-.14,2.65,5.79,5.79,0,0,0,.82,4.57c2.41,3.41,6.63,3,10.21,2.14l-1.65-1.64c-.92,2.43-2.87,4.2-4.78,5.87a33.66,33.66,0,0,0-5.57,5.62,34.29,34.29,0,0,0-4,7.79c-1,2.55-2.63,5.65-1.87,8.45.72,2.63,3,4.63,5.3,5.94a34.72,34.72,0,0,0,3.48,1.67,8.27,8.27,0,0,1,1.53.73c.67.5.6,1.09.68,1.87a5.79,5.79,0,0,0,4.2,4.85c2.24.81,4.79.37,7,1.34,2.67,1.2,2,4.22.84,6.28s-3.88,3.63-2.54,6.29c.57,1.12.93,1.83.23,3a3.49,3.49,0,0,1-2.88,1.77,9.19,9.19,0,0,1-4.38-1.27c-1.56-.78-3.07-1.65-4.61-2.48-2.83-1.53-5.75-3-8.51-4.63a9,9,0,0,1-3-2.62,20.27,20.27,0,0,1-1.47-3.17c-.81-1.91-1.88-3.93-4.07-4.47a5.58,5.58,0,0,0-3.63.54c-1.14.5-2.3,1.4-3.61,1.3-1.55-.11-1-1.79-1.21-2.9a5.77,5.77,0,0,0-2-3.36c-2.69-2.27-6.14-1.72-9.33-1.11A51.84,51.84,0,0,1,646,679c-1,0-1.93-.09-2.9-.17a3.35,3.35,0,0,1-1.1-.12c-.27-.2-.1-.75-.07-1.11.15-1.88.32-3.76.48-5.64a1.36,1.36,0,0,0-1.7-1.29c-1.77.37-4,.7-5.66-.13-2.08-1-1.54-3.89-2.6-5.66-2.92-4.83-9-3.65-13.38-2.08-5.07,1.81-10.33,4.44-15.86,3.92-2.64-.25-5.07-1.41-7.65-.2-2.12,1-3.49,3-4.88,4.81a50.12,50.12,0,0,1-13.33,12.06l2,1.16c-.32-5.61,6.14-8,9.38-11.45a20.52,20.52,0,0,0,5.41-13,1.37,1.37,0,0,0-1-1.29c-1.67-.61-2.1-2.93-1.84-4.47.38-2.3,2-4.22,3.47-5.95a1.36,1.36,0,0,0-1-2.29c-1,0-1.44-1.24-1.46-2.1,0-1.44,1-2.75,1.85-3.82,1.72-2.2,3.67-4.62,3.14-7.62-.43-2.39-2.41-3.57-3.81-5.35-1.92-2.44,1.23-4,3.15-4.89,5.46-2.49,11.18-4.43,16.42-7.39a39.67,39.67,0,0,0,7.28-5.26,73.12,73.12,0,0,1,6.94-6.23c5.65-4,12.68-4.82,19.38-5.47,1.7-.17,1.72-2.85,0-2.68Z" fill="#33322e"/><path d="M730.41,553.08a11.19,11.19,0,0,0-5.43,4.6c-1.18,2.18-1.2,5.22.43,7,1.25,1.37,3.17,1.8,4.51,3.07a32.38,32.38,0,0,1,2.17,2.75c2.39,2.78,6.26,3.29,9.78,3.36,1.76,0,3.62,0,5.12,1a13.29,13.29,0,0,1,2.27,2.17c3.69,4,8.79,6,13.88,7.17s10.34,1.5,15.45,2.57a55,55,0,0,1,9.28,2.78,11.44,11.44,0,0,0,4.15,1.11,3.63,3.63,0,0,0,3.49-2.23,4.89,4.89,0,0,0,0-2.52,16.64,16.64,0,0,0-6.67-10.07,36,36,0,0,0-10.78-5c-11.23-3.56-23.36-5.74-32.46-13.67-2.22-1.93-4.24-4.19-6.8-5.57s-5.89-1.67-8.1.29" fill="#33322e"/><path d="M729.73,551.93a12.15,12.15,0,0,0-6.07,5.39,7.9,7.9,0,0,0,.17,7.51,8,8,0,0,0,3,2.51,9,9,0,0,1,3.31,2.77,11,11,0,0,0,6.44,4.49,20.91,20.91,0,0,0,3.85.56,25.82,25.82,0,0,1,4.57.32c1.49.38,2.33,1.47,3.34,2.53a22,22,0,0,0,3.53,3c5.29,3.66,11.73,4.84,18,5.73,3.43.49,6.87.93,10.24,1.75,1.49.36,3,.79,4.43,1.27,1.71.57,3.36,1.35,5.09,1.87,2.5.76,5.65.41,7-2.17s0-5.93-1.22-8.23c-2.87-5.46-8.31-8.62-13.92-10.66s-11.66-3.45-17.44-5.33c-6.36-2.07-12.62-4.78-17.67-9.26-2.51-2.23-4.86-4.86-8.06-6.1a8.21,8.21,0,0,0-8.42,1.1c-1.32,1.1.58,3,1.9,1.89,2-1.63,4.81-1.07,6.84.12,2.39,1.39,4.24,3.51,6.32,5.3a46.55,46.55,0,0,0,13.76,7.89c5,1.93,10.13,3.3,15.23,4.8,5.29,1.55,11,3.09,15.28,6.79a15.86,15.86,0,0,1,4.45,6.08,7.7,7.7,0,0,1,.75,3.85,2.37,2.37,0,0,1-2.73,1.64,15.51,15.51,0,0,1-4-1.31c-1.51-.57-3.05-1.09-4.6-1.53a68,68,0,0,0-8.71-1.81c-5.78-.86-11.79-1.38-17.18-3.81a21.54,21.54,0,0,1-6.6-4.46,19,19,0,0,0-2.66-2.57,8,8,0,0,0-3.91-1.22c-2.78-.26-5.6,0-8.23-1.12s-3.6-4-6-5.57c-1.05-.71-2.36-1.13-3.24-2.06a4.32,4.32,0,0,1-1-3.63c.42-3,3-4.83,5.55-6,1.56-.73.2-3-1.35-2.31Z" fill="#33322e"/><path d="M660.27,563.35c-2.3-.67-4.8-1.33-7-.37s-3.66,4.29-2,6.19c1,1.13,2.61,1.34,3.57,2.48,1.77,2.09.12,5.33-1.21,7.77a2.91,2.91,0,0,0-.46,2.38,2.74,2.74,0,0,0,1.16,1.15l17,10.95c-.68-.21-1.28.7-1.15,1.44a3.33,3.33,0,0,0,1.23,1.79c4.55,4.2,10.16,8.68,16,7a7.09,7.09,0,0,1,3-.58,5.28,5.28,0,0,1,2.36,1.36l5,4.16a3.66,3.66,0,0,1,1.33,1.68c.18.61.05,1.29.17,1.93.53,2.89,4.85,2.36,6.65,4.58.85,1.05,1,2.56,1.7,3.72,1.43,2.35,4.49,2.5,7.06,3,3.84.67,7.5,2.53,11.4,2.61s8.35-2.58,8.45-6.78c.07-3.29-2.53-6.69-1-9.57,1.27-2.47,4.86-2.39,6.84-.55s2.77,4.71,3.46,7.43l2.52,9.92c.66,2.6,1.24,5.67-.33,7.79-1.29,1.73-3.56,2.14-5.27,3.39-3,2.21-3.82,7-2.48,10.63s4.34,6.35,7.56,8.21a8.79,8.79,0,0,0-3.58,3.14,9.39,9.39,0,0,1,4.56,2.16c1.21,1.26,1.65,3.57.47,4.86-.5.55-1.27.94-1.39,1.7-.14.94.8,1.6,1.59,2A102.15,102.15,0,0,0,758.7,676c5.6,1.95,11.71,2.89,17.39,1.15s10.8-6.56,11.92-12.79c.39-2.17,1.19-4.32,1-6.53-1.23-19.43,9.41-17.6,9.23-19.84s.25-4.83,2-6c2-1.31,4.61-.24,6.83-1,3.39-1.15,4.33-6.35,2.44-9.58s-5.55-4.71-9.06-5.28c-2.2-.35-4.56-.48-6.37-1.88a28.66,28.66,0,0,1-3.16-3.66c-4.07-4.51-10.73-4.26-16.36-5.95-6.48-2-12.06-6.78-18.68-8.08-5.16-1-10.62.2-15.65-1.4-3-1-5.72-2.9-8.63-4.24s-6.35-2-9.19-.52a6.78,6.78,0,0,1,2.26,5.25c-4.35.42-8.3-2.59-12.57-3.57-3.13-.72-6.49-.35-9.44-1.7s-5.12-5.62-3-8.24c1.46-1.82,4.38-2.06,5.27-4.27,1-2.41-1.26-4.8-3.23-6.32-4.87-3.73-10.36-7.64-16.3-6.84-4.4.59-8.16,3.7-12.43,5s-10.14-.63-10.45-5.38" fill="#33322e"/><path d="M660.63,562.06c-3.24-.93-7.33-1.75-9.86,1.13-1.93,2.2-2.3,5.72.24,7.6,1.16.86,3,1.19,3.18,2.87s-.94,3.48-1.7,4.93-1.32,3.31,0,4.7a11.37,11.37,0,0,0,2.1,1.48l3.11,2,12.85,8.27.67-2.49a2.37,2.37,0,0,0-2.42,1.94,3.65,3.65,0,0,0,1.42,3.45,39.91,39.91,0,0,0,7,5.54,14.69,14.69,0,0,0,7.72,2.35,17.57,17.57,0,0,0,3.93-.79c1.82-.45,3,1,4.29,2.12s2.52,2,3.71,3.11a2,2,0,0,1,.77,1.65,5.47,5.47,0,0,0,.38,2c.85,1.82,2.81,2.38,4.56,3a4.44,4.44,0,0,1,2.17,1.34c.79,1.09.9,2.58,1.67,3.71,1.42,2,3.87,2.67,6.19,3,3.06.49,5.91,1.5,8.91,2.25a13.78,13.78,0,0,0,7.87.09,9.6,9.6,0,0,0,5.29-4.11c1.31-2.3,1-4.79.3-7.23-.54-1.86-1.93-5.42.8-6.23,2.52-.75,4.36,1.59,5.23,3.61,1.26,2.91,1.8,6.2,2.58,9.26.72,2.86,2,6,1.82,9-.18,3.43-3.45,3.77-5.73,5.47a9.61,9.61,0,0,0-3.58,6.86c-.67,6.23,3.75,11.24,8.79,14.2V655.9a10.72,10.72,0,0,0-4.07,3.61,1.36,1.36,0,0,0,.8,2c1.78.47,4.19,1.06,4.66,3.14s-1.86,2.43-2,4.29c-.16,2.24,2.29,3.17,3.93,4,2.08,1,4.18,2,6.31,2.92,8.1,3.43,17.85,5.53,25.91.86a18.57,18.57,0,0,0,7.51-8,27.57,27.57,0,0,0,1.69-5.71,24.32,24.32,0,0,0,.65-6.64c-.16-4.82.19-10.81,4.18-14.18a15.47,15.47,0,0,1,3-1.75c.85-.41,1.78-.89,2-1.87a5.86,5.86,0,0,0,0-1.45,6.7,6.7,0,0,1,.51-2.8c1-2.08,3.25-1.61,5.14-1.67a6.6,6.6,0,0,0,6.52-5.89,9.3,9.3,0,0,0-3.62-9,14.64,14.64,0,0,0-5-2.44c-1.91-.55-3.89-.62-5.81-1.11-2.27-.57-3.37-2.06-4.76-3.81a12.79,12.79,0,0,0-4.32-3.55c-3.38-1.71-7.17-2.11-10.82-2.91-8.33-1.82-14.89-8.16-23.51-9-4.63-.47-9.43.34-13.9-1.28-4.21-1.53-7.68-4.65-12.22-5.31a9.86,9.86,0,0,0-6,.9,1.35,1.35,0,0,0-.27,2.1,5.62,5.62,0,0,1,1.87,4.3l1.34-1.33c-3.38.24-6.39-1.48-9.45-2.65a20.24,20.24,0,0,0-4.84-1.23,52,52,0,0,1-5.29-.66c-2.47-.57-5.2-2.55-4.94-5.43.23-2.47,3.56-3,5-4.5,2.25-2.38,1.14-5.54-.81-7.67a35.24,35.24,0,0,0-8.08-6,18.93,18.93,0,0,0-9.27-2.93c-3.15,0-6,1.24-8.77,2.62s-5.83,3.2-9.16,2.79c-2.41-.3-5-1.71-5.26-4.37-.15-1.7-2.83-1.72-2.68,0,.5,5.51,6.39,7.83,11.29,6.88,3.21-.62,6.06-2.56,9-3.88a12.74,12.74,0,0,1,10-.49,34.88,34.88,0,0,1,9.2,5.64c1.18.92,2.68,2.11,3.06,3.64s-1,2.39-2.19,3.05c-2.41,1.33-4.33,3.11-4,6.1a8.24,8.24,0,0,0,4.48,6.3c3.66,1.76,7.94,1.08,11.74,2.42,3.6,1.27,7,3.32,10.94,3a1.37,1.37,0,0,0,1.34-1.34,8.35,8.35,0,0,0-2.65-6.2l-.27,2.11c4-2,8.43.76,11.91,2.67a24.6,24.6,0,0,0,6,2.52,29.79,29.79,0,0,0,6.59.67,65.06,65.06,0,0,1,6.55.22,21.25,21.25,0,0,1,6.09,1.7c3.71,1.59,7.12,3.81,10.83,5.4,3.46,1.48,7.06,2,10.71,2.82a21.51,21.51,0,0,1,5.12,1.63,12.08,12.08,0,0,1,4.18,3.67,9.89,9.89,0,0,0,4.24,3.55,34.33,34.33,0,0,0,5.7,1.18c3.24.67,7,2.35,7.94,5.83.75,2.77-.28,6.35-3.56,6.52-1.91.1-3.89-.23-5.62.79a6,6,0,0,0-2.67,4,11.64,11.64,0,0,0-.23,2.7,2.65,2.65,0,0,0,0,.64c-.05,0,.12-.56.1-.41s.14-.31.07-.09-.15.06.08,0c-.17.07-.32.2-.48.28-.92.5-1.89.88-2.77,1.45-3.47,2.25-5.24,6-5.89,10a32.76,32.76,0,0,0-.43,5,32.7,32.7,0,0,1-.14,6.18c-.78,3.87-1.57,7.55-4.31,10.56-5.89,6.48-15,6.5-22.82,4a71.49,71.49,0,0,1-12.57-5.45c-1.17-.64-.44-.79.22-1.51a4.17,4.17,0,0,0,1-2.22,5.57,5.57,0,0,0-1.49-4.53,10.57,10.57,0,0,0-5.15-2.51l.8,2a8,8,0,0,1,3.1-2.65,1.35,1.35,0,0,0,0-2.31c-4.32-2.53-8.32-6.83-7.42-12.23a6.77,6.77,0,0,1,3.86-5.2c2.17-1.1,4.2-2.14,5-4.6s.11-5.4-.53-7.91c-.81-3.2-1.61-6.4-2.44-9.59-1.1-4.27-3.35-9.94-8.77-9.33a5,5,0,0,0-4.38,3.85c-.59,2.6.77,5.06,1.23,7.55a5.24,5.24,0,0,1-2.68,5.65,9.49,9.49,0,0,1-7.05.8c-2.91-.62-5.68-1.77-8.62-2.27-2-.34-4.89-.42-6-2.45-.58-1-.76-2.25-1.4-3.26a5.61,5.61,0,0,0-2.42-2c-1.18-.56-3.77-.88-4.25-2.28-.21-.62,0-1.35-.19-2a3.86,3.86,0,0,0-.92-1.71,37,37,0,0,0-4-3.46,15.34,15.34,0,0,0-3.93-2.92c-1.54-.6-2.91-.07-4.41.34-3.06.85-6.08-.29-8.68-1.9a33.66,33.66,0,0,1-3.8-2.82q-1-.82-1.89-1.68a7.15,7.15,0,0,1-.57-.53,2.52,2.52,0,0,1-.5-.58c0-.33-.08-.37-.26-.11,1.41.11,1.71-1.83.68-2.5l-12.43-8-2.91-1.87c-.88-.57-2.61-1.12-2.07-2.39.72-1.71,1.79-3.21,2.18-5.07a5.28,5.28,0,0,0-1-4.7,7.88,7.88,0,0,0-2.21-1.53c-.62-.33-1.32-.65-1.57-1.36a3.29,3.29,0,0,1,1.72-3.55c1.92-1,4.34-.17,6.26.38a1.34,1.34,0,0,0,.71-2.58Z" fill="#33322e"/><g opacity="0.13"><path d="M724.55,601.7c3-2.47,6.55-3.16,9.87-4.76a5,5,0,0,0,2.81-3.14c-1.85-.94-3.65-2-5.54-2.91-2.91-1.34-6.35-2-9.19-.52a6.78,6.78,0,0,1,2.26,5.25c-4.35.42-8.29-2.59-12.57-3.57-3.13-.72-6.49-.35-9.43-1.7s-5.13-5.62-3-8.24c1.46-1.82,4.38-2.06,5.27-4.27,1-2.41-1.26-4.8-3.23-6.32-4.87-3.73-10.36-7.64-16.3-6.84-4.4.59-8.16,3.7-12.43,5s-10.14-.63-10.45-5.38l-2.31-.92a21.2,21.2,0,0,0-3.51-.79,8.15,8.15,0,0,0,0,2.51,11.49,11.49,0,0,0,3.77,6c8,7.55,19.14,9.59,28.5,14.27,6.3,3.15,12,9.25,15.7,15.73,1.9,3.38,3.64,7.61,3.36,11.71a16.48,16.48,0,0,1-1.68,5.82,14.84,14.84,0,0,0,1,2.36c1.43,2.35,4.49,2.5,7.06,3a25.1,25.1,0,0,1,2.82.67C716.73,616,717.71,607.4,724.55,601.7Z" fill="#fff"/></g><path d="M681.11,720.42c-4.21-3.14-9.57,3.15-14.68,2.57-2-.23-3.68-1.47-5.54-2.16-7.35-2.76-15.71,3.15-23.09.49-2-.74-4.13-2.93-3.29-5.08.41-1.06,1.46-1.8,1.62-2.94a3.84,3.84,0,0,0-.73-2.4,41.2,41.2,0,0,0-10-11.51c-2-1.53-4.15-3-5.37-5.21s-1-5.7,1.1-6.95c-3.18-.09-6.28.95-9.32,2l-27.08,9.1c2.84,2.63,6.56,3.82,10.16,4.94-2.74,2.09-2.39,7.35.59,9,3.36,1.85,8.7-.28,10.44,3.33.74,1.54.33,3.53,1.14,5,1.44,2.65,5.33,1.89,7.63,3.7,4.13,3.25,1.61,13,6.66,13.85.2,3.41-4.06,4.59-7.2,5.07s-7.07,3.64-5.17,6.37c.76,1.1,2.26,1.52,2.73,2.79,1.25,3.4-5.6,3.58-6.74,7-.84,2.59,2.07,4.67,4.49,5.48a56.74,56.74,0,0,0,37.11-.44,15.48,15.48,0,0,1-3.81,7.68c2.17,3.26,9.09.27,9.63,4.24.24,1.73-1.34,3.33-1,5a3.83,3.83,0,0,0,2.55,2.55c6.46,2.8,14,.83,20.62,3,5.19,1.67,9.41,5.69,14.34,8.12s11.63,2.74,14.95-1.89c2.21-3.09,2.18-7.34,3.47-11,1.87-5.31,6.36-8.92,10.13-12.9,7-7.4,11.92-16.75,16.73-26,1-1.87,1.88-4.47.42-5.93a3.75,3.75,0,0,0-2.41-.91,14.76,14.76,0,0,0-12.28,5.08c-1.46,1.68-2.59,3.68-4.25,5.13-5.54,4.85-13.71,1.42-20-2.14a5.41,5.41,0,0,1-2.52-2.27c-1-2.19.89-4.62,2.78-5.95s4.21-2.62,4.66-5c.38-2-.77-4-1.86-5.63-2-3-4-6.15-7.1-7.84s-7.35-1.38-9.29,1.67" fill="#33322e"/><path d="M681.79,719.27c-4.47-3.13-9.16,1.49-13.56,2.31-2.94.55-5.34-1.67-8.06-2.39a20,20,0,0,0-8.51,0,66.48,66.48,0,0,1-8.73,1.44c-2.31.1-6.17-.17-7.14-2.78-.49-1.31.79-2.2,1.31-3.27.74-1.53.24-3-.55-4.4a40.81,40.81,0,0,0-5.87-7.79c-2.39-2.52-5.28-4.35-7.78-6.72-1.66-1.58-3.87-5.55-1.13-7.32a1.35,1.35,0,0,0-.68-2.5,27.1,27.1,0,0,0-8.8,1.73c-3.1,1-6.19,2.07-9.28,3.11L584.34,697a1.35,1.35,0,0,0-.59,2.24c3,2.75,6.88,4.08,10.74,5.28l-.59-2.24c-2.86,2.35-3,7.22-.56,9.93a7.39,7.39,0,0,0,5,2.14c1.7.19,3.87-.11,5.41.76,2,1.14,1.12,4.33,2.13,6.14s2.68,2.38,4.44,2.82,3.46.71,4.43,2.33a13.59,13.59,0,0,1,1.38,4.69c.55,3.16,1,7.55,4.84,8.33l-1-1.29c0,2.47-3.13,3.18-5,3.57-2.51.5-4.85,1.19-6.56,3.24a4.33,4.33,0,0,0,.29,6.3c.48.41,1.94,1.14,1.82,1.92-.09.59-1,1-1.44,1.26-1.67,1-3.57,1.69-4.73,3.31a4.67,4.67,0,0,0,.92,6.26c2.25,2.07,5.49,2.79,8.37,3.49A57.47,57.47,0,0,0,624,769a58.21,58.21,0,0,0,22.92-3.29l-1.64-1.65a14.73,14.73,0,0,1-3.47,7.1,1.35,1.35,0,0,0-.21,1.62c1.77,2.44,4.65,2.27,7.35,2.58.77.09,1.93.17,2.11,1.1a4.93,4.93,0,0,1-.63,2.38,5.3,5.3,0,0,0-.38,2.72c.66,4,6.6,4.82,9.81,5.17,4.35.48,8.81.06,13.08,1.12,7.92,2,13.28,9.35,21.65,10.19a11.42,11.42,0,0,0,9.29-2.91c3-3,3.21-7.24,4.23-11.07,1.08-4.1,3.73-7.23,6.65-10.19a94.31,94.31,0,0,0,8.39-9.37,100.89,100.89,0,0,0,7.16-11.21c1.12-2,2.2-4,3.26-6a34.53,34.53,0,0,0,2.74-5.68,5.2,5.2,0,0,0-.57-4.94c-1.27-1.5-3.44-1.66-5.27-1.59a16.33,16.33,0,0,0-10.59,4.52c-2.92,2.8-4.45,6.92-8.75,7.9-3.82.88-8-.68-11.36-2.31a19.16,19.16,0,0,1-4.91-2.78c-1.66-1.58.18-3.77,1.55-4.82s3.08-2,4.24-3.46a6,6,0,0,0,1.08-5.3,18.92,18.92,0,0,0-3.11-5.67,25.07,25.07,0,0,0-3.89-4.69c-2.64-2.36-6.29-3.76-9.79-2.57a7.48,7.48,0,0,0-3.8,2.93c-1,1.43,1.35,2.77,2.32,1.35,1.94-2.85,6-2.33,8.44-.57a16.86,16.86,0,0,1,3.83,4.07,24.92,24.92,0,0,1,3.2,5.2c1.62,4.21-3.69,5.61-5.8,8.18a5.9,5.9,0,0,0-1.53,4.86,5.76,5.76,0,0,0,3.05,3.59c5.75,3.38,14.09,7.24,20.46,3.22,3.3-2.09,4.77-5.94,7.87-8.26a13.76,13.76,0,0,1,5-2.38c1.44-.34,4.14-.86,5.44.11s0,3.52-.57,4.62q-1.47,2.83-3,5.64c-2,3.73-4.1,7.42-6.45,11a66.4,66.4,0,0,1-7.67,9.61c-2.64,2.72-5.47,5.28-7.6,8.44s-2.8,6.87-3.72,10.63c-.87,3.53-2.66,6.39-6.42,7.15-7.53,1.53-13.54-5-19.65-8.14a27.53,27.53,0,0,0-11.68-2.69c-4-.18-8.27,0-12.06-1.61-.68-.28-1.64-.71-1.92-1.45s.26-1.76.53-2.47a4.74,4.74,0,0,0-.09-4.25c-1.31-2.13-4.27-1.92-6.43-2.14-.94-.09-2.23-.24-2.84-1.07l-.21,1.62a17.25,17.25,0,0,0,4.16-8.28c.18-.92-.61-2-1.65-1.64a56.19,56.19,0,0,1-19.52,3.29,55,55,0,0,1-9.91-1c-2.82-.55-6.15-1.11-8.63-2.63-.84-.51-2-1.35-2-2.45a2.52,2.52,0,0,1,1.25-1.91c1.44-1.06,3.23-1.57,4.57-2.78a3.43,3.43,0,0,0,.37-4.82c-.67-.82-1.92-1.26-2.38-2.21s.49-2.1,1.25-2.7c2.06-1.65,4.8-1.49,7.18-2.43s4.35-2.64,4.29-5.37a1.37,1.37,0,0,0-1-1.29c-2.57-.53-2.63-4.55-3-6.59-.53-3-1.38-6.33-4.37-7.74-1.58-.75-3.38-.8-4.94-1.55-2.06-1-1.41-3.59-2-5.41-1.31-3.81-5.41-3.52-8.69-3.84-1.82-.18-3.42-.77-4-2.62a4.5,4.5,0,0,1,1.21-4.92,1.34,1.34,0,0,0-.59-2.23c-3.39-1.06-6.87-2.17-9.56-4.59l-.59,2.23,18.21-6.12,8.87-3a27.38,27.38,0,0,1,9-1.92l-.67-2.49c-2.33,1.5-2.92,4.41-2.29,7,.74,3,3.27,5,5.61,6.77a41.64,41.64,0,0,1,7.29,7.06,40.9,40.9,0,0,1,3,4.31c.44.74,1,1.5.61,2.36-.29.61-.82,1.1-1.14,1.7-1.51,2.87.7,5.88,3.31,7.08s5.85,1.15,8.74.75c3.05-.43,6-1.32,9.12-1.59a13.78,13.78,0,0,1,4.44.19,28.17,28.17,0,0,1,4.63,1.9c3.13,1.31,5.95.58,8.93-.73,2.33-1,5.33-3,7.77-1.28,1.42,1,2.76-1.33,1.36-2.31Z" fill="#33322e"/><g opacity="0.13"><path d="M712.1,763.41c-6.77-1.19-13.17-4.07-20-4.75a59.69,59.69,0,0,0-9-.15,11.48,11.48,0,0,0-5.9,1.53c-1.83,1.24-2.67,3.39-3.05,5.66-.61,3.59-.58,7.36-.95,11a94.91,94.91,0,0,1-1.44,9.58,18.56,18.56,0,0,1,2.74.67c5.19,1.67,9.41,5.69,14.34,8.12s11.63,2.74,14.95-1.89c2.21-3.09,2.18-7.34,3.47-11,1.87-5.31,6.36-8.92,10.13-12.9a61.24,61.24,0,0,0,4.33-5.16A53.5,53.5,0,0,1,712.1,763.41Z" fill="#fff"/></g><path d="M770,745c-3.65.51-7.45,1.07-10.53,3.3s-5.16,6.67-3.71,10.28c.51,1.25,1.38,2.29,1.9,3.53,1.78,4.22-.84,9.07-3.34,12.94l-11.87,18.34a2.17,2.17,0,0,0-.49,1.78c.17.5.68.74,1.12,1,3.3,2,4,6.94,3,10.93s-3.22,7.54-4.35,11.5a2.3,2.3,0,0,0,0,1.73c.36.67,1.21.74,1.93.69,11.84-.71,21.06-11.24,28.92-21a24.85,24.85,0,0,0,4.37-6.89,24.16,24.16,0,0,0,.92-8.77A166.32,166.32,0,0,0,772,745.4" fill="#33322e"/><path d="M769.61,743.68c-5.89.82-12.22,2.37-14.81,8.37a9.08,9.08,0,0,0,.12,7.9c.68,1.34,1.61,2.48,1.87,4a9.51,9.51,0,0,1-.65,4.77c-1.18,3.23-3.31,6.1-5.16,9l-6.21,9.59-2.83,4.37c-.79,1.23-1.88,2.65-1.17,4.17.51,1.1,1.77,1.42,2.56,2.26a6.88,6.88,0,0,1,1.59,3.47c.56,2.92-.24,5.8-1.31,8.51-.59,1.5-1.27,3-1.89,4.45a16,16,0,0,0-1.56,4.78c-.4,6.25,11.28,1.35,13.81,0,5.11-2.72,9.43-6.79,13.3-11,2.05-2.27,4-4.62,5.92-7s4.09-5.08,5.1-8.2c1.19-3.71.9-7.78.72-11.61-.19-4-.51-8-1-12a168.17,168.17,0,0,0-4.71-24.36,1.34,1.34,0,0,0-2.59.71,156,156,0,0,1,5.75,40.35,16.77,16.77,0,0,1-2.08,9,58.2,58.2,0,0,1-5.35,7,73.08,73.08,0,0,1-11.7,11.82,32.06,32.06,0,0,1-6.7,4,23.43,23.43,0,0,1-3.46,1.16c-1,.26-2.84.84-3.92.58-.49-.12-.38.2-.4-.39a3.58,3.58,0,0,1,.28-1c.22-.69.47-1.38.74-2.06.6-1.5,1.28-3,1.9-4.45a21.62,21.62,0,0,0,2-8,11.19,11.19,0,0,0-1.93-6.86,7.43,7.43,0,0,0-1.07-1.17c-.37-.32-1-.56-1.31-.92s-.17,0-.08-.46a4.53,4.53,0,0,1,.74-1.17l1.62-2.5c3.67-5.68,7.64-11.27,11-17.13,1.58-2.75,3-6,2.76-9.2a9.63,9.63,0,0,0-1.28-4c-.77-1.35-1.6-2.55-1.64-4.16a8.73,8.73,0,0,1,4.21-7.21c2.85-1.78,6.25-2.24,9.51-2.7,1.7-.24,1-2.82-.71-2.58Z" fill="#33322e"/><path d="M788,665.76a45.11,45.11,0,0,1,15.18-4.41c1.58-.17,3.62.07,4.07,1.7.57,2-2,4.13-1.16,6,4.84-.57,10.42-.87,13.78,2.9,2,2.23,3.11,5.79,5.91,6.45,1.07.25,2.58.32,2.71,1.49.1.81-.65,1.42-1.31,1.82A23.63,23.63,0,0,1,813.53,685c-2.58-.19-5.82-.48-7.08,1.95-1.17,2.26.37,5.4-1,7.55-2.06,3.27-8.21.58-9.76,4.15-1.38,3.2,3.21,6.83,1.71,10a5.3,5.3,0,0,1-2.84,2.22c-2.48,1.11-5.36,2.22-7.74.89-2-1.11-2.93-3.55-3.62-5.84a83,83,0,0,1-2.85-33.92" fill="#33322e"/><path d="M788.69,666.92A43.25,43.25,0,0,1,803,662.71c1.5-.16,3.56-.15,2.81,1.88-.58,1.61-1.63,3.08-1,4.85a1.37,1.37,0,0,0,1.29,1c3.86-.45,8.67-1,11.92,1.63,2.86,2.31,3.6,6.72,7.55,7.7a11.11,11.11,0,0,1,1.3.28c.38.14.4.11-.07.37a30.74,30.74,0,0,1-3.49,1.75,22,22,0,0,1-7.21,1.52c-3.44.14-8.42-1.29-10.64,2.3-1.12,1.79-.73,3.86-.73,5.85a2.73,2.73,0,0,1-2.62,3.08c-2.92.53-6.81.16-7.82,3.77a7.32,7.32,0,0,0,.85,4.92c.57,1.28,1.87,3.26,1,4.65a5.63,5.63,0,0,1-2.55,1.58,12.66,12.66,0,0,1-3.65,1.12c-2.5.26-3.91-1.5-4.75-3.62a51.08,51.08,0,0,1-2.25-8.16,78.59,78.59,0,0,1-1.39-8.91,84.28,84.28,0,0,1,.21-18.31c.21-1.7-2.47-1.69-2.67,0a82,82,0,0,0,3.13,35c.7,2.13,1.66,4.31,3.55,5.63,2.12,1.48,4.79,1.21,7.11.39,2.06-.72,4.68-1.63,5.76-3.7.92-1.79.32-3.74-.43-5.46-.58-1.32-2.07-3.54-1-5,.85-1.17,3-1,4.26-1.16,1.71-.19,3.52-.51,4.73-1.84,1.53-1.68,1.28-3.92,1.21-6a3.5,3.5,0,0,1,.82-2.93,4.27,4.27,0,0,1,2.63-.71c2.37-.07,4.67.3,7,0a25.59,25.59,0,0,0,7.73-2.12c1.83-.83,5-2.24,4.19-4.81-.7-2.29-3.58-1.61-5-3-1.68-1.58-2.51-3.88-4.12-5.54-3.74-3.85-9.56-3.59-14.47-3l1.29,1c-.34-.92.3-1.84.67-2.67a5.29,5.29,0,0,0,.56-3.07c-.42-2.21-2.64-3-4.66-3a32.51,32.51,0,0,0-8.23,1.43,47.59,47.59,0,0,0-8.39,3.21c-1.55.75-.2,3.06,1.35,2.31Z" fill="#33322e"/><path d="M868.46,720.07c-4.54-2.4-10.66-.47-13.3,4.2-2.19,3.88-2.22,9.24-5.51,12.07a11.36,11.36,0,0,1-5.77,2.2,56.48,56.48,0,0,1-12.59.58c-1.23-.08-2.76,0-3.29,1.17a3.64,3.64,0,0,0,0,2.12l1.44,6.91-12.11-.53a9.59,9.59,0,0,0-4.79.61,3.88,3.88,0,0,0-2.17,4.21,12.81,12.81,0,0,0,1.29,2.35c1.65,3.08-.14,7.11-2.66,9.43s-5.73,3.7-8.16,6.13-3.91,6.7-1.92,9.54c.69,1,1.69,1.66,2.38,2.64,1.36,1.93,1.2,4.65.54,7-1.81,6.39-6.92,12.48-5,18.81a25.53,25.53,0,0,1,1.32,4c.39,3-1.74,5.67-3.61,8a89.81,89.81,0,0,0-8.17,11.9c-1.15,2-2.22,4.65-1,6.6.59.93-.29,23.26.7,23.61,5.85,2.08,14.56-22.23,20.08-19.31,1.64.87,3.19,2.21,5,2.15a6.91,6.91,0,0,0,3.39-1.4,128.31,128.31,0,0,0,24.62-20.71c7.3-7.88,13.68-16.7,20.87-24.71,3.64-4.05,7.49-7.91,10.65-12.41,4.41-6.29,7.33-13.66,9.54-21.17,1.27-4.29,2.34-8.79,1.89-13.26-1.17-11.69-12.25-20.46-12.31-32.22" fill="#33322e"/><path d="M869.14,718.92a11.38,11.38,0,0,0-10.38.12c-3.5,1.8-5.29,5.07-6.43,8.7a31.74,31.74,0,0,1-2,5.54,7,7,0,0,1-4.54,3.49c-5,1.36-10.09,1-15.16,1-2.09,0-4.13,1-4.16,3.35a20,20,0,0,0,.74,4.19l.91,4.38,1.29-1.7-12.11-.53c-3.06-.12-6.45.25-7.92,3.36a4.56,4.56,0,0,0-.07,3.84c.69,1.54,1.75,2.56,1.61,4.37-.25,3.2-2.73,5.52-5.21,7.22s-5.37,3.34-7.18,6c-1.56,2.25-2.46,5.34-1.55,8a9.67,9.67,0,0,0,2.57,3.53A5.41,5.41,0,0,1,801,788.2c-.28,3.29-2.05,6.39-3.37,9.35s-2.48,5.77-2.51,8.91a11.49,11.49,0,0,0,.75,4.18c.64,1.75,1.37,3.28.77,5.16-1,3.08-3.8,5.64-5.69,8.19a77.78,77.78,0,0,0-5.87,9,11.18,11.18,0,0,0-1.51,4.42,5.65,5.65,0,0,0,.24,2.2,5,5,0,0,0,.37.82c.28.53-.06-.34,0,0s0-.27,0,.13c0,.22,0,.44,0,.65,0,.65,0,1.3,0,1.94,0,3.82,0,7.64,0,11.46,0,1.79,0,3.58.07,5.37a16.36,16.36,0,0,0,.3,3.49c.81,3,4.69.93,6.1-.35,2.75-2.5,4.74-5.91,6.77-9,1.83-2.77,3.66-6.16,6.37-8.19a3.16,3.16,0,0,1,1.11-.59c.38-.09-.05,0,.33,0s-.24-.07.09,0c.14.05.15,0,0,0,.15.08.31.16.45.25a14.68,14.68,0,0,0,4.22,2,6.33,6.33,0,0,0,4.48-1,108.39,108.39,0,0,0,17.26-13.13c11.09-10,19.55-22.25,29.51-33.28,4.81-5.34,9.79-10.46,13.33-16.77a82.15,82.15,0,0,0,7.77-20.2,30.56,30.56,0,0,0,1-10.84,28.49,28.49,0,0,0-2.37-8.22c-2.34-5.31-5.85-10-8.06-15.4a22.35,22.35,0,0,1-1.84-8.24,1.34,1.34,0,0,0-2.68,0c.17,11.69,10.14,19.83,12.13,31,1.23,6.83-1.42,14.14-3.72,20.48a60.33,60.33,0,0,1-10.2,18.22c-4.53,5.42-9.48,10.47-14,15.93-4.67,5.67-9.19,11.47-14.17,16.88a130,130,0,0,1-15.15,14.06c-2.71,2.14-5.52,4.16-8.4,6.06-1.31.86-2.92,2.26-4.61,1.85-1.39-.34-2.48-1.4-3.77-2-2.62-1.18-5,1.17-6.61,3a104.27,104.27,0,0,0-6.53,9.31c-1.55,2.3-3.4,5.56-5.93,6.82a2.7,2.7,0,0,1-.54.18l-.29,0c.08-.1-.08.09-.17,0s.91.62.7.72c0,0-.11-.47-.12-.5s0-.25,0,.05c0-.12,0-.24,0-.35l-.06-.85c0-.72-.07-1.45-.08-2.17-.09-3.71,0-7.43,0-11.14,0-1.72,0-3.44,0-5.17a14.27,14.27,0,0,0-.19-3.06,7.57,7.57,0,0,1-.57-2c0-1.64,1-3.2,1.82-4.58a89.7,89.7,0,0,1,5.9-8.82c1.9-2.49,4.32-4.86,5.28-7.93a7.59,7.59,0,0,0,.1-4.2c-.42-1.61-1.29-3-1.48-4.72-.34-3,.9-6,2.1-8.69,1.3-2.91,2.88-5.84,3.5-9,.58-2.95.22-5.82-1.92-8-1-1-1.93-1.82-2.12-3.3a6.84,6.84,0,0,1,.94-4.07c1.49-2.73,4.31-4.23,6.79-5.93a14.8,14.8,0,0,0,5.91-6.71,8.83,8.83,0,0,0,.61-3.87,9.65,9.65,0,0,0-1.6-4,2.38,2.38,0,0,1,1.2-3.42c1.51-.75,3.47-.46,5.08-.39l11.15.49a1.35,1.35,0,0,0,1.29-1.7c-.46-2.22-.93-4.45-1.39-6.68-.2-1-.31-1.71.83-1.83a22.36,22.36,0,0,1,3.06.1,44.69,44.69,0,0,0,13.49-1.25c3.63-1,5.73-3.6,7-7.06,1.17-3.23,1.64-6.93,4.26-9.39a8.81,8.81,0,0,1,9.82-1.62c1.53.78,2.89-1.53,1.35-2.31Z" fill="#33322e"/><g opacity="0.13"><path d="M882.14,752.76a22.56,22.56,0,0,0-.44-2.61,43.73,43.73,0,0,1-5.14,3.84c-4.3,2.68-8.75,3.26-13.62,3-4.64-.2-10.72-1.61-15.05.92-3.16,1.84-5.19,5.87-6.69,9.31a97.22,97.22,0,0,0-4.28,12.81c-6,21.51-13.53,42.31-23.9,61.67l-1.53,4.62a7.56,7.56,0,0,0,3.08-1.35,128.31,128.31,0,0,0,24.62-20.71c7.3-7.88,13.68-16.7,20.87-24.71,3.64-4.05,7.49-7.91,10.65-12.41,4.41-6.29,7.33-13.66,9.54-21.17C881.52,761.73,882.59,757.23,882.14,752.76Z" fill="#fff"/></g><path d="M342,620.22l17.66,24.67c3.29,4.6,6.67,9.37,8,15s.24,12.39-4.14,15.84-12,1.45-13.07-4.24c-.56-2.94.49-6.37-1.17-8.78-2.66-3.84-9.64-1.3-11.89-5.44-.81-1.47-.67-3.37-1.43-4.87-1.72-3.38-7-2.4-8.87.88s-1.46,7.47-.76,11.25,1.53,7.8.22,11.4c-1,2.92-3.36,5.06-5.24,7.45s-3.44,5.57-2.58,8.56c.29,1,.83,2,.52,3a2.94,2.94,0,0,1-2.2,1.66c-8.16,2.28-17.24-5.61-16.9-14.65.37-9.81,9.19-16.32,14.68-24.18,4.36-6.25,6.75-13.79,10.25-20.64s8.72-13.41,15.81-15.06" fill="#33322e"/><path d="M340.86,620.89c6.46,9,13,18,19.38,27.11,4.75,6.84,9.81,16.57,4.45,24.56A7.49,7.49,0,0,1,356,675.7a6.32,6.32,0,0,1-3.55-2.72c-1.05-1.78-.8-3.9-.81-5.88s-.3-4.19-1.74-5.77a7.79,7.79,0,0,0-4.2-2.15c-1.59-.34-3.23-.43-4.8-.9-1.87-.56-2.52-1.74-2.89-3.59s-.9-3.77-2.62-4.88a6.15,6.15,0,0,0-4.69-.66c-4.1.94-6,4.85-6.25,8.74-.35,4.94,1.72,9.68,1.45,14.62s-4.44,7.84-6.88,11.86a11,11,0,0,0-1.83,6.39,8.59,8.59,0,0,0,.27,1.53,5.59,5.59,0,0,1,.52,2c-.12.92-1.45,1.1-2.23,1.23-3.65.64-7.39-1-10-3.52a13.48,13.48,0,0,1-4.23-10.43c.24-4.05,2.22-7.69,4.57-10.91s5.38-6.36,8-9.63a57.88,57.88,0,0,0,7.13-12.09c3.67-8.11,6.87-17.7,14.51-23a16.52,16.52,0,0,1,5.56-2.55c1.67-.41,1-3-.71-2.58-9.21,2.26-14.63,11.17-18.31,19.21-2.17,4.76-4.06,9.67-6.69,14.2a76.49,76.49,0,0,1-8.25,10.73c-5.31,6.24-10.77,14.25-7.51,22.79a17.06,17.06,0,0,0,7.84,8.93c3.22,1.7,8,2.62,11.3.64a3.51,3.51,0,0,0,1.71-2.41c.23-1.3-.45-2.43-.7-3.67-.49-2.45.88-4.93,2.3-6.82s3.18-3.58,4.44-5.62a13.41,13.41,0,0,0,1.92-7.12c0-5-2.36-10.15-1.27-15.19a5.71,5.71,0,0,1,3.39-4.5c1.42-.53,3.22-.45,4,1a13.05,13.05,0,0,1,.84,3.22A6.47,6.47,0,0,0,337,659a7.78,7.78,0,0,0,4.27,2.12,32.15,32.15,0,0,1,5.06,1c2,.76,2.57,2.52,2.62,4.56,0,2.21-.2,4.46.66,6.55a8.46,8.46,0,0,0,3.32,3.94,10.28,10.28,0,0,0,10.06.48c3.63-1.88,5.68-6,6.3-9.92a22.94,22.94,0,0,0-2.09-13.19c-2.18-4.84-5.5-9.09-8.58-13.38l-10.27-14.36-5.21-7.28c-1-1.39-3.32,0-2.31,1.35Z" fill="#33322e"/><path d="M290.69,775.54l-2.07-15.77a9.52,9.52,0,0,1,.11-4.35c1.1-3.18,5.18-4.32,6.13-7.56.84-2.83-1.16-5.69-1.19-8.66,0-3.68,3.14-6.75,6.51-7.44s6.81.47,9.93,1.94a52.22,52.22,0,0,1,16,11.77c-2.09,1.09-2.24,4.47-.91,6.49s3.57,3,5.66,4.08c10.69,5.3,20.9,15,21.54,27.72.14,2.81-.18,5.76.81,8.36,2,5.34,8.35,6.69,13.7,7.32s11.66,2,13.63,7.4c1.47,4-.18,8.46-1.52,12.53s-2.21,9,.37,12.31c1.41,1.78,3.55,2.62,5.5,3.65,6.27,3.31,11.06,9.06,15.68,14.68a11.2,11.2,0,0,1,2.59,4.39,10.9,10.9,0,0,1-.58,5.52c-1.54,5.09-3.85,10-7.48,13.71s-8.74,5.9-13.61,5c-4-.78-7.42-3.56-10.65-6.24-16.17-13.46-32.36-27-47.3-42-14.47-14.52-28.14-31.2-33.63-51.73" fill="#33322e"/><path d="M292,775.54l-1.19-9.12c-.37-2.84-1-5.76-1.06-8.63-.14-4.45,5.22-5.6,6.38-9.57.7-2.37-.25-4.69-.82-7a6.12,6.12,0,0,1,1.64-6.33c4.07-3.9,10.11-1.35,14.35.87a51.79,51.79,0,0,1,13.85,10.63l.27-2.1a5.35,5.35,0,0,0-2.39,5.3,7.72,7.72,0,0,0,3.42,5.49c1.92,1.41,4.21,2.27,6.28,3.45a46.26,46.26,0,0,1,6,4,35.57,35.57,0,0,1,9.43,11,25.37,25.37,0,0,1,2.4,6.51c.6,2.73.45,5.44.6,8.21a12.05,12.05,0,0,0,2.18,6.83,12.31,12.31,0,0,0,5.12,3.77c4.07,1.71,8.46,1.65,12.69,2.67,4.5,1.08,8.6,3.6,8.63,8.72,0,5.52-3.38,10.43-3.39,16a9.87,9.87,0,0,0,2.31,6.72c1.68,1.88,4.1,2.74,6.23,4,4.8,2.72,8.61,6.84,12.14,11,1.62,1.92,3.94,4,4.69,6.49.86,2.76-.71,6.21-1.7,8.77-1.95,5-5,9.86-9.81,12.53a13.25,13.25,0,0,1-7.22,1.77,14.92,14.92,0,0,1-7.53-3.12c-2.39-1.68-4.58-3.64-6.82-5.5s-4.74-4-7.1-5.94c-9.46-8-18.84-16-27.85-24.46-16-15-32.16-31.64-40.08-52.54a77.45,77.45,0,0,1-2.45-7.56,1.34,1.34,0,0,0-2.58.71c5.84,21.6,20.55,39.1,36.17,54.51,9,8.85,18.41,17.23,28,25.41q7.23,6.16,14.54,12.22c4.18,3.48,8.58,7.85,14.18,8.77,5.19.86,10.36-1.4,14.09-4.93,3.94-3.74,6.38-8.83,8-13.94.89-2.77,1.58-5.7.32-8.47-1.1-2.41-3.16-4.45-4.84-6.45-3.55-4.19-7.38-8.3-12.11-11.17-2.18-1.32-5.11-2.14-6.67-4.27s-1.43-4.84-1-7.22c1-5.4,4.31-10.75,2.7-16.38-1.27-4.45-5.28-6.88-9.51-8s-8.9-1-13-2.71a9,9,0,0,1-4.7-4c-1.35-2.62-.89-5.76-1-8.6A28.2,28.2,0,0,0,349.19,770a40.44,40.44,0,0,0-10-10.41,49.36,49.36,0,0,0-6.19-3.93c-2.07-1.11-4.54-1.94-6.14-3.73-1.18-1.31-1.93-4.17-.06-5.27a1.35,1.35,0,0,0,.27-2.1,54.36,54.36,0,0,0-13.27-10.45c-4.69-2.6-10.64-5.34-15.94-2.94a9.62,9.62,0,0,0-4.88,4.93c-1.06,2.51-.49,4.95.22,7.48a7.59,7.59,0,0,1,.43,3.77,5.34,5.34,0,0,1-1.77,2.57c-1.52,1.41-3.3,2.6-4.17,4.56-1.31,3-.22,6.7.18,9.76l1.49,11.33c.22,1.68,2.9,1.7,2.67,0Z" fill="#33322e"/><g opacity="0.13"><path d="M358.33,836.33c1.55-6.69,2.31-14.2.31-20.88a18.82,18.82,0,0,0-7.74-10.13c-3.7-2.6-7.6-4.8-11-7.92a39.72,39.72,0,0,1-9.6-14.42c-2.59-6.22-5.19-11.76-10.89-15-5.14-2.91-10.87-4.33-16.54-5.21a104.59,104.59,0,0,0-14-1.12l1.82,13.88-.77,3.13c5.49,20.53,19.16,37.21,33.63,51.73,8.71,8.75,17.85,17,27.16,25A73.51,73.51,0,0,0,358.33,836.33Z" fill="#fff"/></g><path d="M472.94,878.55c20.42-4.06,40.91-8.14,60.77-14.73,3.64-1.21,8.12-4.14,7-8-1.45-4.92-8.88-2.61-12.62-5.83-1.28-1.1-2-2.79-3.1-4.11-2.81-3.38-7.55-3.82-11.76-3.49s-8.6,1.17-12.53-.44-6.9-7-4.58-10.78c1.41-2.3,4.38-3.51,4.89-6.2.26-1.4-.25-2.85-.12-4.28.28-3.14,3.4-4.95,6.16-6a76.71,76.71,0,0,1,25.91-5.32c4-.11,8.84.78,10.11,4.81.86,2.73-.24,6.31,1.75,8.24a5.91,5.91,0,0,0,3.53,1.24l20,2.38c5.79.69,11.67,1.38,17.44.41,7.53-1.28,14.51-5.32,22.07-6.34,2.53-.33,5.34-.23,7.27,1.54s2.13,5.73-.16,6.94c2.63,3.14,7.06,3.34,11,3.27q23-.42,45.9-3.12a6,6,0,0,1,3.84.4A12.13,12.13,0,0,1,678,831.5c4.89,5.28,15,.42,19.36,6.19,2.46,3.22,1.51,8.32-1.05,11.47s-6.32,4.82-9.94,6.38l1.7,5.21-10.7.71a3.44,3.44,0,0,0-2.59.94,8.11,8.11,0,0,0-.86,2.68c-.85,2.66-4,3.49-6.62,3.21s-5.24-1.25-7.77-.49-4.44,4.42-2.58,6.39c1.57,1.68,5.2,1.72,4.9,4.09a6.57,6.57,0,0,1-.91,1.91c-1.59,3.16,1.76,6.69,5,7.59s7,.8,9.34,3.28c3.09,3.2,2,9.05-.8,12.55-4,4.92-10.44,6.75-16.49,6.54s-11.89-2.19-17.77-3.68a114.29,114.29,0,0,0-34.59-3.33c-1.61.1-3.34.27-4.58,1.38-1.58,1.41-1.88,3.82-2.61,5.88-2.3,6.49-9.09,9.6-15.31,11.44a108.54,108.54,0,0,1-28.86,4.47c1.66,1.38,1.12,4.43-.5,5.87s-3.85,1.7-5.94,1.88c-12.28,1.07-25.26,1.24-36.09-5-6.74-3.9-12.1-10-17.34-16l-16.16-18.53c-2.95-3.39-6.1-7.38-5.71-12" fill="#33322e"/><path d="M473.29,879.84c10.7-2.13,21.39-4.25,32-6.74,5.31-1.25,10.6-2.58,15.85-4.05q3.95-1.11,7.86-2.32a60.6,60.6,0,0,0,6.92-2.35c3.24-1.45,6.84-4.35,6.18-8.32-.57-3.46-3.74-4.65-6.8-5.17a24.75,24.75,0,0,1-4.76-1c-2-.76-2.79-2.45-3.95-4.08-2.53-3.54-6.62-4.8-10.83-4.87-4.72-.07-9.76,1.59-14.34-.15-3.2-1.21-6.23-5.63-4.18-9,.95-1.55,2.63-2.53,3.76-3.95,1.38-1.75,1.43-3.55,1.23-5.69a4.87,4.87,0,0,1,2.55-4.95,28.43,28.43,0,0,1,6.33-2.67,75.37,75.37,0,0,1,15.55-3.47c3.89-.44,8.81-1.22,12.49.6a4.91,4.91,0,0,1,2.84,4c.25,2,0,4,.7,5.87a5.51,5.51,0,0,0,4.7,3.28c2.66.39,5.34.65,8,1,5.53.66,11.05,1.37,16.58,2,5.3.56,10.66.77,15.9-.4,4.91-1.1,9.53-3.17,14.33-4.63,3.2-1,10.52-3.36,12.63.69.63,1.21.79,3.19-.55,4a1.37,1.37,0,0,0-.27,2.1c2.17,2.46,5.31,3.34,8.48,3.59a106.88,106.88,0,0,0,11.87-.16q13.23-.48,26.41-1.72c2.22-.2,4.44-.43,6.65-.67a55.31,55.31,0,0,1,6-.62c2,0,2.62,1.66,3.91,2.89a9.42,9.42,0,0,0,3.33,2c2.62,1,5.51.89,8.26,1,2.47.15,5.3.4,7.06,2.36,2.39,2.67,1.51,6.93-.35,9.62-2.3,3.35-6.38,5.05-10,6.6a1.35,1.35,0,0,0-.62,1.52l1.7,5.21,1.29-1.69-6.56.43a32.39,32.39,0,0,0-5.74.48,3.93,3.93,0,0,0-2.9,3.34,3.51,3.51,0,0,1-2.56,3c-3.51,1.09-7.1-1.13-10.69-.32a6.25,6.25,0,0,0-4.74,6.15,4.32,4.32,0,0,0,2,3.33c1,.68,2.26.93,3.23,1.64.4.3.47.43.28.92a20.22,20.22,0,0,0-1,2.2,5.74,5.74,0,0,0,.74,4.31c1.72,2.89,4.71,4.06,7.86,4.65s6.64,1.17,7.6,4.64c.82,3-.35,6.43-2.29,8.73a16.36,16.36,0,0,1-8.41,5.11c-7.62,2-15.36-.53-22.71-2.48a118.07,118.07,0,0,0-25.08-3.86,88.34,88.34,0,0,0-12.39.15,7.7,7.7,0,0,0-4.59,1.69,8.77,8.77,0,0,0-2.19,4,19.92,19.92,0,0,1-1.75,4.55,14,14,0,0,1-3,3.47,25.94,25.94,0,0,1-8.2,4.29,98.73,98.73,0,0,1-24.19,4.79q-3.23.26-6.46.31a1.35,1.35,0,0,0-.94,2.29,2.63,2.63,0,0,1,.09,3.27c-.91,1.46-2.82,1.87-4.41,2.08a98.44,98.44,0,0,1-10.16.65c-6.8.17-13.7-.32-20.18-2.54-6.64-2.27-12.07-6.55-16.9-11.54-5.18-5.35-9.93-11.14-14.82-16.75-2.85-3.26-5.74-6.49-8.54-9.8-2.44-2.89-4.79-6.19-4.54-10.15.1-1.72-2.57-1.71-2.68,0-.23,3.67,1.43,7,3.58,9.87,2.47,3.28,5.32,6.29,8,9.38,5.6,6.42,11,13,16.94,19.19,5.35,5.55,11.42,10.18,18.83,12.58s15.21,2.71,22.87,2.34c2.13-.1,4.27-.25,6.4-.44a13.58,13.58,0,0,0,5.64-1.37c2.91-1.65,4.46-6.12,1.75-8.67l-1,2.29a110.56,110.56,0,0,0,25.27-3.43c6.14-1.57,13-3.57,17.31-8.55a15.21,15.21,0,0,0,2.49-3.93c.63-1.46.91-3,1.51-4.51a4.14,4.14,0,0,1,3.84-2.68c2.05-.21,4.13-.22,6.19-.25a112.91,112.91,0,0,1,25.26,2.58c7.86,1.72,15.73,4.94,23.9,4.6,6.39-.27,13.35-2.94,16.65-8.76a12.52,12.52,0,0,0,1.5-9c-.8-3.16-3.32-5.15-6.37-6s-6.64-.71-8.9-3.38a3.21,3.21,0,0,1-.45-4,3.62,3.62,0,0,0,.33-3.78,5.89,5.89,0,0,0-2.9-2.06c-1-.46-2.4-.94-2.33-2.3a3.67,3.67,0,0,1,2.11-2.94c1.87-.81,4.24-.07,6.13.24,2.87.47,6.24.36,8.31-2a5.35,5.35,0,0,0,1-1.82c.25-.71.19-1.8.72-2.36s1.77-.45,2.48-.5l3.16-.21,6.56-.43a1.35,1.35,0,0,0,1.29-1.69l-1.7-5.22L687,856.7c3.37-1.46,6.8-3,9.4-5.69a12.59,12.59,0,0,0,3.67-9.15,8.44,8.44,0,0,0-4.54-7.34c-2.58-1.29-5.53-1.34-8.35-1.48-2.64-.12-5.77-.18-7.85-2.06-1.27-1.15-2-2.73-3.67-3.39-1.83-.74-3.91-.25-5.8,0q-13.78,1.56-27.63,2.31-7.65.4-15.32.56c-3.82.08-8.28.27-11-2.85l-.27,2.1c3.14-1.86,2.91-6.71.43-9-3.51-3.3-9.18-2-13.31-.89-5,1.38-9.72,3.55-14.75,4.79-5.52,1.37-11.17,1.05-16.77.43s-11.38-1.34-17.07-2l-4.39-.52c-1.18-.14-2.68-.12-3.72-.78-1.66-1-1.22-3.8-1.34-5.46-.76-10.24-13.64-8.46-20.72-7.45a77.66,77.66,0,0,0-15.81,4c-3.66,1.36-8.2,3.31-8.66,7.75-.13,1.22.21,2.39.17,3.6a3.85,3.85,0,0,1-1.21,2.59c-1.31,1.38-2.92,2.48-3.8,4.22-1.81,3.57-.15,7.94,2.69,10.47,3.68,3.29,8.81,3,13.4,2.55,4.14-.4,9.31-1,12.59,2.2,1.62,1.56,2.38,3.8,4.22,5.17a11.06,11.06,0,0,0,4.57,1.79c2.44.47,7.19.4,7.35,3.82.09,1.87-1.66,3.32-3.1,4.21a29,29,0,0,1-6.51,2.55q-8,2.54-16.21,4.62c-11,2.83-22,5.16-33.1,7.39l-8,1.6c-1.69.34-1,2.92.71,2.58Z" fill="#33322e"/><g opacity="0.13"><path d="M503.18,828.12c1.8,4.8,3.34,9.71,4.66,14.69,1.79-.1,3.59-.32,5.36-.46,4.21-.33,8.95.11,11.76,3.49,1.1,1.32,1.82,3,3.1,4.11,1.72,1.48,4.21,1.79,6.54,2.18-.4-14.23-2-29-6.05-42.57A76.56,76.56,0,0,0,507,814.61c-2.76,1.09-5.88,2.9-6.16,6a9.5,9.5,0,0,0,.08,1.92C501.71,824.41,502.47,826.25,503.18,828.12Z" fill="#fff"/></g><g opacity="0.13"><path d="M534.67,863.47c-.33.13-.65.25-1,.35-7.07,2.34-14.21,4.36-21.4,6.18q.36,5.32.4,10.73c.16,16.57-.76,33.76,2.49,50.06.74.33,1.49.63,2.24.91A73.26,73.26,0,0,0,527,912.34C532.24,896.9,534.36,880.05,534.67,863.47Z" fill="#fff"/></g><g opacity="0.13"><path d="M589.1,918.49c0-8.24.25-16.48.41-24.72.15-7.45.28-14.91.21-22.36a125.72,125.72,0,0,0-.91-17.25,21.77,21.77,0,0,0-1-3.93s0,0,0-.06,0,0,0,0a5.63,5.63,0,0,0-2.15.47c-3.63,1.65-5.65,6.55-7,10.34a99.6,99.6,0,0,0-4.46,19c-1.17,7.53-1.91,15.14-2.42,22.76-.48,7.26-.85,14.59-.92,21.91a107.16,107.16,0,0,0,12.34-2.88,41.74,41.74,0,0,0,6-2.23C589.09,919.24,589.1,918.86,589.1,918.49Z" fill="#fff"/></g><g opacity="0.13"><path d="M669.37,847.7a5.69,5.69,0,0,0-2.67-4.8,4.4,4.4,0,0,0-3.07-.86c-2.72.55-4.73,3.82-6.13,6.5A77,77,0,0,0,652.08,863a312.22,312.22,0,0,0-7.6,36.55q-.62,3.85-1.18,7.72a75.51,75.51,0,0,0,13,2.74,110,110,0,0,1-.18-19,55.64,55.64,0,0,1,2.74-13.81c.18-.51.39-1,.59-1.52a7.43,7.43,0,0,1-2.47-1.48c-1.86-2,.06-5.64,2.58-6.39a8.48,8.48,0,0,1,3.51-.19c1.57-3.39,3.1-6.81,4.37-10.36C668.46,854.28,669.52,850.94,669.37,847.7Z" fill="#fff"/></g><path d="M690.61,962.65l-19.48,1.1a6.59,6.59,0,0,0-3.65.93c-1.91,1.4-2.05,4.28-2.43,6.73-2.12,13.59-15.85,20.72-27.8,25.71-4,1.68-8.3,3.61-10.52,7.58s-.77,10.44,3.49,11.07l-24.45,7c-1.81.52-3.73,1.11-5,2.6-1.06,1.25-1.53,3-2.61,4.22-2,2.26-5.27,2.18-8.11,1.76a69.37,69.37,0,0,1-15.44-4.19c-2.56-1-5.34-2.54-6.09-5.36s.73-5.48,1-8.28c.58-7.29-6.79-12.08-13.24-14.38a104.38,104.38,0,0,0-50.73-4.88c-3,.46-6.13,1.09-8.73,2.84-5.87,3.94-7.53,12.1-10.39,18.88-6.29,14.94-19.66,24.65-31.28,35.27s-22.73,25-21.48,41.29c.35,4.62,3.3,10.22,7.5,9.14,2.21-.57,4.92-2.74,6.25-.77s-1.5,4.89-.36,7c.68,1.26,2.37,1.3,3.69.92,4.75-1.39,8.08-6,10.19-10.83s3.38-10,6-14.53c5.41-9.46,15.79-14.38,26-16.22,4.33-.79,8.81-1.15,12.78-3.15s7.42-6.19,7.14-10.89c3.28-2.49,7.76-.62,11.34,1.3L566,1077.05c2,1.08,4.09,2.23,5.43,4.17s1.63,4.94,0,6.67l13.38-.73a6.09,6.09,0,0,1,4.12.76c2.78,2.13.88,6.83-1.28,9.68-3.69,4.86-7.83,11.7-4.37,16.72,1.56,2.26,4.25,3.24,6.82,3.81,4.49,1,9.33,1.12,13.5-.94s7.5-6.66,7.23-11.59c-.12-2.11-.83-4.39.13-6.24a5.64,5.64,0,0,1,3.12-2.43c6.77-2.65,14.94-.3,21-4.55,5.31-3.75,7-11.33,7-18.15,0-3.63-.28-7.45,1.25-10.69a13.23,13.23,0,0,1,5.38-5.51,20.5,20.5,0,0,1,18.56-1.2c3.8,1.67,7.55,4.58,11.59,3.77s6.86-5.54,6.76-10-2.49-8.59-5.49-11.69c-1.1-1.14-2.39-2.43-2.27-4.07a4.55,4.55,0,0,1,1.9-3c4.33-3.64,10-4.8,15.21-6.48,10.31-3.29,20.93-10.32,23.3-21.61,1.32-6.28-.18-12.86-2.47-18.8-4.21-10.92-12.42-21.39-23.38-22.42" fill="#33322e"/><path d="M690.61,961.31l-13.92.79c-2,.11-4,.18-6,.33a6.87,6.87,0,0,0-4.71,1.79c-2.18,2.31-1.91,5.91-2.62,8.79a22,22,0,0,1-4,8.17c-3.87,5-9.37,8.41-14.91,11.21-2.82,1.43-5.72,2.66-8.62,3.9-3.08,1.32-6.23,2.85-8.51,5.37a10.72,10.72,0,0,0-2.78,9c.46,2.91,2.26,5.81,5.35,6.37v-2.58l-24.17,6.94a16,16,0,0,0-4.26,1.67,9.05,9.05,0,0,0-3.11,3.74c-.75,1.42-1.52,2.61-3.1,3.12a11.15,11.15,0,0,1-4.81.13,65.89,65.89,0,0,1-11.42-2.72c-2.84-.94-7-2-8.68-4.74-1.85-3,.65-7,.52-10.25a12.24,12.24,0,0,0-3-7.32c-3.92-4.75-10.08-6.93-15.78-8.67a105.4,105.4,0,0,0-45.37-3.62c-3.5.48-7.14,1-10.21,2.94a17.44,17.44,0,0,0-5.83,6.35c-3.12,5.49-4.41,11.8-7.4,17.37a67.22,67.22,0,0,1-12.11,15.52c-9.47,9.39-20.42,17.18-28.55,27.88a52.11,52.11,0,0,0-9.14,17.76c-1.55,5.73-2.32,12.82.61,18.25,1.17,2.16,3.13,4.19,5.73,4.33a7.76,7.76,0,0,0,3.43-.82c.86-.37,3.19-1.76,3.15.05,0,1.11-.69,2.22-.89,3.31a4,4,0,0,0,1,3.7c2.06,1.95,5.44.68,7.51-.56,5.74-3.46,8.23-10.18,10.39-16.16a45.57,45.57,0,0,1,4.54-10,27.82,27.82,0,0,1,6.48-6.82,41.48,41.48,0,0,1,17-7.16c6.64-1.31,14-1.64,18.72-7.24a12.21,12.21,0,0,0,3-8.24l-.66,1.15c3.54-2.48,8,.23,11.23,2l13,7,26.21,14.08c2,1.08,4.26,2.07,5.83,3.75,1.36,1.46,2.31,4.06.88,5.8-.67.82-.31,2.35,1,2.28l10.31-.56c2.08-.12,6.79-1.22,7.22,1.84.32,2.27-1.19,4.69-2.47,6.42a39.19,39.19,0,0,0-4.28,6.86c-2.1,4.63-2.41,10.21,2.17,13.47a17.23,17.23,0,0,0,7.3,2.54,23.67,23.67,0,0,0,8.8-.11,15,15,0,0,0,11.06-9.64c.89-2.61.45-5,.29-7.67a3.55,3.55,0,0,1,1.48-3.58,11.66,11.66,0,0,1,3.88-1.4c5.26-1.14,10.86-.33,15.91-2.45,4.69-2,7.56-6.19,9-10.94a32.67,32.67,0,0,0,1.24-7.68c.16-2.85-.13-5.73.2-8.58.73-6.17,6.17-9.72,11.88-10.88a19,19,0,0,1,8.81.31c2.8.77,5.21,2.35,7.84,3.52,2.4,1.08,5.06,1.82,7.68,1a9.54,9.54,0,0,0,5.31-4.28c2.79-4.5,2.17-10-.28-14.54a23,23,0,0,0-2.23-3.3c-.9-1.12-2.07-2.07-2.87-3.26-1.81-2.71,2.66-4.92,4.6-5.91,4.8-2.43,10.23-3.28,15.17-5.35a40.72,40.72,0,0,0,12.58-8,25.86,25.86,0,0,0,7.32-12.22c1.53-6.11.45-12.53-1.57-18.39-3.23-9.37-9.2-19.34-18.61-23.55a22.11,22.11,0,0,0-6.77-1.8c-1.71-.17-1.7,2.5,0,2.68,10.15,1.06,17.15,10.35,21.06,19,2.43,5.36,4.22,11.37,3.91,17.31a22.16,22.16,0,0,1-6.1,14,36.31,36.31,0,0,1-11.73,8.08c-4.77,2.15-10,3.08-14.78,5.13-3.9,1.66-10.78,5.5-7.27,10.59,1.5,2.19,3.55,3.83,4.87,6.18a13.37,13.37,0,0,1,1.86,7.72,9.36,9.36,0,0,1-3.33,6.42c-2.17,1.67-4.83,1.28-7.21.29s-4.81-2.58-7.39-3.49a21.56,21.56,0,0,0-8.2-1.17c-5.09.27-10.59,2.31-14,6.21-3.94,4.46-3.16,10.14-3.37,15.64-.17,4.8-1.15,10.22-4.49,13.9-3.67,4.05-9.16,4.14-14.23,4.52-4.29.32-11.61.83-12.67,6.13-.51,2.56.59,5.12.07,7.69a11.58,11.58,0,0,1-3.67,6.25c-4.34,3.93-10.88,3.85-16.22,2.4-2.45-.66-4.9-1.89-5.78-4.45s0-5.16,1.06-7.41c2.05-4.33,6.25-7.86,6.86-12.79a5.26,5.26,0,0,0-2.33-5.41c-2.31-1.35-5.56-.65-8.06-.51l-9.76.54,1,2.28a7.1,7.1,0,0,0-.32-8.92c-2.49-3.12-6.76-4.73-10.18-6.57l-25-13.41c-4.21-2.26-8.39-4.56-12.62-6.78-3-1.57-6.68-3.19-10.12-2.17a6.25,6.25,0,0,0-2.18,1.07c-.78.63-.61,1.3-.67,2.22a9.32,9.32,0,0,1-1.91,4.89c-2.46,3.33-6.34,4.81-10.26,5.63s-7.68,1.19-11.44,2.24a44.81,44.81,0,0,0-9.67,3.9,32.11,32.11,0,0,0-14.32,15.8c-2.87,6.78-4.48,16.08-11.51,20-.84.47-3.79,1.91-4.2.24-.3-1.21.77-2.87.93-4.08a3.61,3.61,0,0,0-1.42-3.61c-1.27-.82-2.79-.46-4.09.06s-2.81,1.51-4.26,1a5.81,5.81,0,0,1-2.93-3.06c-1.68-3.23-1.64-7.12-1.28-10.65.78-7.6,4.27-14.66,8.66-20.81,9-12.55,22.11-21,32.48-32.23a59.83,59.83,0,0,0,12-18.42c2.47-6.25,4.17-14.51,10.78-17.77,3.77-1.86,8.44-2.16,12.57-2.54a103.33,103.33,0,0,1,39.37,3.93c6,1.82,14.54,4.48,16.83,11.19,1.3,3.8-1.08,7.3-.66,11.1.4,3.54,3.29,5.69,6.34,7A65.12,65.12,0,0,0,586,1032c3.36.69,7.31,1.62,10.63.26a7.22,7.22,0,0,0,3.55-3.28c1-1.84,1.75-3.38,3.83-4.23a62.66,62.66,0,0,1,6.44-1.92l6.79-2,13.31-3.83c1.2-.34,1.35-2.33,0-2.58-2.42-.44-3.43-2.93-3.52-5.17a8.69,8.69,0,0,1,3.67-7.2c2.44-1.94,5.43-3.07,8.27-4.28,2.66-1.13,5.29-2.33,7.85-3.67,5-2.64,9.94-5.87,13.66-10.21a26.5,26.5,0,0,0,4.35-6.94c1.14-2.75,1.37-5.55,2-8.42.43-2,1.27-3.2,3.43-3.45s4.28-.25,6.41-.37l13.92-.78c1.71-.09,1.72-2.77,0-2.68Z" fill="#33322e"/><g opacity="0.13"><path d="M539.2,1049.24c.3-8,3.57-15.37,4.39-23.31.58-5.63-1-10.93-5.93-13.23a11.06,11.06,0,0,0-8.74.07c-7.81,3-14.15,10.41-19.34,17.26a141.78,141.78,0,0,0-16,27.29,100.63,100.63,0,0,0-4.18,10.68c1.14-.28,2.28-.54,3.42-.74,4.33-.79,8.81-1.15,12.78-3.15s7.42-6.19,7.14-10.89c3.28-2.49,7.76-.62,11.34,1.3l15.47,8.31A128.33,128.33,0,0,1,539.2,1049.24Z" fill="#fff"/></g><g opacity="0.13"><path d="M592,1099.43c-.72-2.06-1.38-4.14-2-6.22a14.37,14.37,0,0,1-2.3,4.39c-3.69,4.86-7.83,11.7-4.37,16.72,1.56,2.26,4.25,3.24,6.82,3.81a22.93,22.93,0,0,0,10.32.2A118.09,118.09,0,0,1,592,1099.43Z" fill="#fff"/></g><g opacity="0.13"><path d="M584.88,1087.16a7,7,0,0,1,3.61.49c-4.88-18.83-6.39-38.5-7.19-58.2a69.28,69.28,0,0,1-6.69-2.27,16.59,16.59,0,0,1-3.53-1.87A234.18,234.18,0,0,1,560.34,1074l5.68,3c2,1.08,4.09,2.23,5.43,4.17s1.63,4.94,0,6.67Z" fill="#fff"/></g><path d="M759.41,1012.94l-13.08,7.36a6.15,6.15,0,0,0-2.89,2.6,7.8,7.8,0,0,0-.25,3.73,27,27,0,0,1-2.43,13.22c-1.17,2.5-3.19,5.05-5.78,4.92-3.94-.18-6.11-6.28-10-6-2.37.16-4,2.59-5.33,4.68-4,6.07-9.28,11.27-15.58,14.3-5.43,2.61-11.41,3.55-17,5.62s-11.24,5.67-13.6,11.54c-.89,2.24-1.22,5,0,7s3.63,3.08,4,5.38-1.44,4.23-1.84,6.49c-.83,4.66,4.41,7.81,8.79,8.35,10.11,1.26,20.06-2.77,29.82-5.94s20.59-5.46,29.86-1c3.82,1.86,7.12,4.76,10.89,6.71,4.92,2.55,10.45,3.39,15.89,3.93,6.44.64,13.62.65,18.55-3.9,4.09-3.78,5.61-9.91,5.87-15.71.61-13.81-4.71-27.22-11.93-38.62s-16.35-21.24-24.59-31.81" fill="#33322e"/><path d="M758.74,1011.78l-9.71,5.47c-2.35,1.32-5.82,2.58-6.88,5.3a9.75,9.75,0,0,0-.29,4.3,25.08,25.08,0,0,1-.16,5.05,21.92,21.92,0,0,1-3,9,5.32,5.32,0,0,1-3,2.53,3.54,3.54,0,0,1-2.84-1c-1.66-1.3-2.91-3.07-4.74-4.16-5.4-3.22-8.63,3.34-11.27,6.86a37.14,37.14,0,0,1-13.86,11.66c-5.86,2.72-12.4,3.55-18.33,6.1-5.12,2.2-9.92,5.77-12.21,11-1.14,2.59-1.69,5.73-.35,8.36a11.27,11.27,0,0,0,2.35,2.84c.84.83,1.77,1.7,1.74,3s-.92,2.68-1.4,3.92a7.31,7.31,0,0,0-.47,3.89,8.44,8.44,0,0,0,4,5.48c4.89,3.19,11.5,2.67,17,1.75,13.15-2.2,25.35-9.75,39-9a24.29,24.29,0,0,1,9.36,2.38c3,1.47,5.6,3.54,8.41,5.29,5.6,3.49,11.93,4.72,18.41,5.38,5.53.57,11.51.75,16.59-1.88s7.81-7.83,8.91-13.24c2.53-12.42-1.17-25.66-6.71-36.76-6-12-14.74-22.28-23.2-32.57-2.13-2.59-4.24-5.18-6.3-7.82-1.06-1.36-3,.55-1.9,1.89,15.35,19.64,35.45,39.35,36.16,66,.14,5.5-.45,11.52-3.67,16.17s-8.79,5.92-14.13,5.91a51.38,51.38,0,0,1-18-2.91c-5.81-2.22-10.25-6.88-16.13-9-12.21-4.36-25.07,1.06-36.66,4.76-6.19,2-12.61,3.68-19.16,3.27-4-.26-10.89-2.61-9-7.94.87-2.47,2.39-4.69,1.11-7.34-1.09-2.26-3.84-3.37-4.28-6s1-5.64,2.59-7.75a20.19,20.19,0,0,1,6-5.1c5.3-3.07,11.44-4.06,17.19-6a37.81,37.81,0,0,0,14.71-9,47.64,47.64,0,0,0,5.57-6.69c1.16-1.69,2.7-5.06,5.13-5.05,1.85,0,3.33,2,4.53,3.16,1.45,1.4,3.13,2.78,5.24,2.85,5.7.2,8.23-7.73,9.08-12.12a28.77,28.77,0,0,0,.52-4.72c0-1.58-.27-3.19-.14-4.76s1.06-2.18,2.25-2.88c1.5-.87,3-1.7,4.53-2.55l8.87-5a1.34,1.34,0,0,0-1.35-2.32Z" fill="#33322e"/><path d="M400.61,1167.54l2.2-6.23a23.1,23.1,0,0,1,3.76-7.52,10,10,0,0,1,8-3.7c3.46.23,6.19,2.55,8.87,4.5s6.24,3.7,9.46,2.59c2.86-1,4.19-3.8,5.09-6.36a90.47,90.47,0,0,0,4.68-20.88c.28-2.81.81-6.15,3.72-7.35,5-2.09,10.87,4.58,15.89,2.47a7.49,7.49,0,0,0,2.9-2.53c2.45-3.2,4.08-6.84,6.56-10s6.16-6,10.57-6.3a6.3,6.3,0,0,1,3.6.66,6.07,6.07,0,0,1,2.1,2.32,20.16,20.16,0,0,1-.44,21.32c-4.28,6.56-12.05,10.74-17.68,16.47a11.89,11.89,0,0,0-3.13,4.68c-1.27,4.38,2.26,8.65,5.59,12.15a72.32,72.32,0,0,0-10.29,9.27c-.51.56-1.05,1.25-.86,2s1.3,1.2,2.23,1.42c5.08,1.18,10.52,1.21,15.35,3,8.85,3.31,13.56,11.63,17.52,19.28-5.36,3.55-12.82,2.83-19.57,2.62-16.76-.55-78-.66-78.68-6.09a86.08,86.08,0,0,1,1.06-21.68" fill="#33322e"/><path d="M401.77,1167.86c1.25-3.53,2.26-7.28,4-10.62,1.53-3,4.16-5.61,7.66-5.93,3.27-.3,6,1.8,8.5,3.63s5.64,3.87,9,3.79c7-.15,8.75-8.64,10.2-14a88.63,88.63,0,0,0,2.29-11.18c.38-2.72.15-6.54,2-8.8s4.85-1.27,7.09-.39,4.64,2.14,7.2,2.3c3.18.19,5.31-1.82,7-4.25,2.07-2.89,3.61-6.12,5.76-9a15.32,15.32,0,0,1,7.79-5.7c1.54-.43,3.55-.71,5,.14s2.19,2.66,2.79,4.06a19.22,19.22,0,0,1-2.21,18.88c-4.34,6-11.08,9.63-16.28,14.72-2.63,2.58-4.84,5.6-4.17,9.47s3.51,6.92,6.06,9.63l.25-1.9a73.93,73.93,0,0,0-10.23,9.13c-1.22,1.32-2.33,3.17-.69,4.68,1.38,1.27,3.84,1.39,5.6,1.67,4.47.72,9.18,1,13.34,3a24.92,24.92,0,0,1,8.76,7.16,65,65,0,0,1,6.74,11l.44-1.65c-5.45,3.49-12.42,2.68-18.56,2.46-2.77-.09-5.54-.14-8.31-.2-8-.16-16-.3-24-.53-8.67-.25-17.34-.57-26-1.19-5.86-.42-12.12-.64-17.77-2.38-.25-.07-.49-.16-.74-.24l-.28-.11c-.3-.12.23.11,0,0s-1-.54-.67-.35c-.08-.05-.47-.42-.13-.08-.2-.2,0,.14,0,0,.07-.92-.18-2.19-.21-3.21a74.72,74.72,0,0,1,1.25-17.92c.33-1.52-2-2.16-2.32-.64a77.2,77.2,0,0,0-1.39,16.56c0,1.18,0,2.36.12,3.54a10,10,0,0,0,.27,2.44,3,3,0,0,0,1.49,1.57,18.81,18.81,0,0,0,5.95,1.69c3.25.57,6.55.92,9.84,1.21,17.26,1.54,34.65,1.7,52,2,3.37.07,6.75.12,10.12.23,6.84.21,14.53,1.12,20.59-2.76a1.25,1.25,0,0,0,.44-1.66c-3.17-6.11-6.68-12.31-12.26-16.55a25.28,25.28,0,0,0-10.47-4.52c-2.14-.42-4.3-.68-6.45-1-1-.16-2.07-.32-3.1-.52-.56-.11-2.2-.2-2.54-.72s1.62-2.25,2.06-2.7c.83-.84,1.68-1.67,2.55-2.47a72.31,72.31,0,0,1,5.81-4.84,1.22,1.22,0,0,0,.25-1.89c-2.33-2.47-5.36-5.57-5.49-9.19s3.11-6.15,5.5-8.25c5-4.43,10.9-8.08,14.86-13.61a21.54,21.54,0,0,0,2.95-19c-1-2.92-2.53-6.61-5.71-7.62s-6.79.17-9.45,1.83a22.69,22.69,0,0,0-6.83,7.13c-1,1.55-1.91,3.16-2.89,4.72a17.54,17.54,0,0,1-3.23,4.27c-2.28,1.92-5.26.66-7.65-.33s-4.94-2.22-7.61-1.89a6.69,6.69,0,0,0-5.53,5.07,22.44,22.44,0,0,0-.69,4.08c-.21,2-.49,4-.84,6a92,92,0,0,1-2.92,11.8c-.89,2.75-1.82,6.54-4.72,7.87-3.29,1.52-6.95-.88-9.52-2.78s-5.31-3.89-8.66-4.19a11,11,0,0,0-8.57,3.49c-2.47,2.56-3.63,6-4.79,9.27l-2,5.56c-.52,1.46,1.81,2.09,2.32.64Z" fill="#33322e"/><g opacity="0.13"><path d="M478.78,1179.49c-4.83-1.82-10.27-1.85-15.35-3-.93-.22-2-.6-2.23-1.42s.35-1.4.86-2a72.93,72.93,0,0,1,10.29-9.27c-3.33-3.5-6.86-7.77-5.59-12.15a11.89,11.89,0,0,1,3.13-4.68c5.63-5.73,13.4-9.91,17.68-16.47a20.17,20.17,0,0,0,2.58-16.25c-12.3,10.73-21.8,24.74-32.39,37.41-2.86,3.42-6,6.5-8.54,10.28a27.75,27.75,0,0,0-4.71,13.59c-.22,3.3.06,6.62,0,9.93,0,2.77-.17,5.54-.36,8.31-.15,2.28-.35,4.56-.55,6.84,13.64.41,26.68.56,33.12.77,6.75.21,14.21.93,19.57-2.62C492.34,1191.12,487.63,1182.8,478.78,1179.49Z" fill="#fff"/></g><path d="M550.6,1187.84c-1.13-3.26-2.26-6.58-2.18-10a10.76,10.76,0,0,1,4.78-9c4.79-3,12.44-2,15.68-6.34,1-1.34,1.36-3,2.18-4.41,2.35-4.13,8-5.9,13.23-6.51s10.68-.5,15.44-2.5c7.7-3.25,11.24-10.92,16.08-17.09,12.41-15.85,37.59-23,58-16.56a25.65,25.65,0,0,1,9.8,5.15c2,1.8,3.38,4,5.35,5.82,5.16,4.67,13.34,5.73,20.8,5.21s14.81-2.33,22.29-2.34a15.58,15.58,0,0,1,6.47,1.06c3.8,1.71,5.44,5.57,7.57,8.8a31.6,31.6,0,0,0,17.2,12.42c5.38,1.62,11.36,2,16.06,4.83s7.11,9.43,2.73,12.68c3.21.89,6.67.71,10,.88s6.94.78,9.32,2.86,2.83,6,.15,7.84a10.16,10.16,0,0,1-4.31,1.31c-41.66,6.06-161.58,14.26-179.47,17-18.64,2.89-37.59,3.79-56.49,4-3.88,0-7.88,0-11.49-1.18s-6.79-4-7.09-7.34,3.27-7,7.09-6.35" fill="#33322e"/><path d="M551.76,1187.52c-1.69-4.89-3.62-10.72-.31-15.39,2.65-3.74,7.61-4,11.68-5.09a14.13,14.13,0,0,0,5.29-2.37c1.94-1.53,2.46-3.7,3.58-5.78,2.2-4.05,7.46-5.43,11.68-6,5.39-.75,11-.46,16.16-2.54,4.25-1.71,7.53-4.82,10.3-8.4s5-7.46,8-10.83a44.78,44.78,0,0,1,9.81-8.29,56.5,56.5,0,0,1,25.55-8.36A54.82,54.82,0,0,1,667,1115c4.73.82,9.66,2.18,13.71,4.82a27.84,27.84,0,0,1,5.59,5.52,19.83,19.83,0,0,0,5.5,4.48,30.55,30.55,0,0,0,13.86,3.1c5.71.09,11.35-1,17-1.71a72.17,72.17,0,0,1,8.93-.74c2.64,0,5.43.1,7.69,1.63a15.68,15.68,0,0,1,4.26,5.13,42,42,0,0,0,3.83,5.51,32.54,32.54,0,0,0,11.47,8.4c4.74,2.09,9.82,2.72,14.76,4.14,4.15,1.2,8.73,3.45,9.53,8.18a4.72,4.72,0,0,1-1.87,4.74,1.22,1.22,0,0,0,.54,2c3.68,1,7.46.69,11.21,1,2.9.21,6.79.81,8.52,3.47a4.21,4.21,0,0,1,.6,3.36c-.46,1.57-2,2.16-3.46,2.47-1.74.38-3.55.56-5.31.8-7.31,1-14.64,1.79-22,2.56-19,2-38,3.66-57,5.3s-38.18,3.2-57.26,4.82c-12.37,1-24.78,1.93-37.1,3.49-4.41.56-8.8,1.28-13.22,1.78-7.87.91-15.78,1.51-23.7,1.9s-15.76.65-23.64.65c-3.5,0-7.24-.11-10.47-1.62-2.4-1.11-5.26-3.41-5-6.37s3.17-4.82,5.89-4.48c1.53.19,1.52-2.22,0-2.42a7.64,7.64,0,0,0-7.33,3.76,7,7,0,0,0,.44,7.64c4.16,6,12.39,6,18.89,5.88a421.72,421.72,0,0,0,49.48-3.08c2.55-.33,5.1-.73,7.65-1.09l1-.13,1.46-.17c2.35-.28,4.69-.52,7-.76,7-.7,14-1.31,21.07-1.92,19.46-1.68,38.92-3.26,58.38-4.92,20.27-1.72,40.53-3.48,60.77-5.57,7.83-.81,15.66-1.66,23.47-2.68,1.65-.22,3.31-.44,5-.68,2.69-.39,5.72-.94,7-3.65a6.63,6.63,0,0,0-1.53-7.36c-2.28-2.26-5.65-3-8.73-3.32-3.81-.39-7.68,0-11.42-1l.53,2c3.37-2.65,3.19-7.24,1.06-10.62-2.65-4.21-7.5-5.83-12.09-6.93-5.26-1.26-10.43-2.22-15.17-5A29.91,29.91,0,0,1,746.19,1137c-2.51-4.11-5.15-7.82-10.24-8.64-5.92-.95-12.2.31-18.06,1.14-5.63.8-11.37,1.52-17,.68a20.39,20.39,0,0,1-13.12-6.84,27.75,27.75,0,0,0-5.79-5.56,30.58,30.58,0,0,0-7.36-3.35,53.13,53.13,0,0,0-13.58-2.47,60.2,60.2,0,0,0-27.5,5.16,50.23,50.23,0,0,0-20.75,17c-2.71,3.85-5.23,7.94-8.87,11-4.39,3.72-9.87,4.42-15.42,4.87-4.92.41-10.13.85-14.44,3.52a11.3,11.3,0,0,0-4.46,4.9c-1,2.18-1.69,4-3.93,5.19-3.9,2-8.57,1.77-12.46,3.88-4.34,2.35-6.3,7.31-5.9,12.07a36.24,36.24,0,0,0,2.16,8.61c.51,1.46,2.84.83,2.33-.64Z" fill="#33322e"/><g opacity="0.13"><path d="M792.16,1170c-3.38-.17-6.84,0-10-.88,4.38-3.25,2-9.89-2.73-12.68a20.94,20.94,0,0,0-3.63-1.66c-4.83,4.21-10.11,8-16.16,9.24a17.15,17.15,0,0,1-10.74-1.36c-4-1.85-7.17-5.19-10.59-8s-7.15-5.32-11.47-4.33a16.29,16.29,0,0,0-7.17,4.16c-1.13,1.06-2.44,2.57-2.26,4.37.33,3.39,4.45,6.09,6.67,7.86,3.07,2.45,6.3,4.73,8.84,7.89a2,2,0,0,1-.06,2.16c-5.84,7.41-14.65,8.9-22.82,11.1a32,32,0,0,0-9.49,3.78c36.91-3.12,76.33-6.62,96.82-9.6a10.16,10.16,0,0,0,4.31-1.31c2.68-1.84,2.22-5.76-.15-7.84S795.53,1170.12,792.16,1170Z" fill="#fff"/></g><path d="M804.35,992.29c-3.75.51-18.35-14.59-20.12-11s5.83,51.25,7.78,61.74c.22,1.19,3.07,2.55,4.08,3.09a3.89,3.89,0,0,0,2.67,0,24.23,24.23,0,0,1,17.64,3.07c2.43,1.49,4.64,3.42,7.17,4.71,9.39,4.8,20.34,0,30.5-2.6,3.14-.8,7-1.1,9,1.66,2.27,3.26,0,8.25,1.72,11.86,1.6,3.33,5.77,3.93,9.28,3.81s7.47-.39,10,2.21c3.22,3.32,2.43,9.76,6.06,12.54a10.2,10.2,0,0,0,4.65,1.58c6.14,1,13.47,1.58,17.53-3.49,3.16-3.94,3-9.75,2.27-14.88-1.95-14.64-6.87-29.77-17.8-38.78-5.15-4.25-11.31-6.86-17.39-9.34-13.65-5.58-27.4-10.85-41.15-16.12-5.3-2-10.67-4.08-16.28-4.68s-12,.23-16.95-2.88" fill="#33322e"/><path d="M804.35,991H804s.09,0-.14,0a4.25,4.25,0,0,1-.88-.34,20,20,0,0,1-2.4-1.43c-2-1.32-3.86-2.78-5.75-4.21a69.16,69.16,0,0,0-5.71-4c-1.26-.77-3-1.8-4.52-1.45-2.49.57-2,4.09-1.93,6,.18,4.07.66,8.14,1.14,12.19,1.29,10.72,2.9,21.4,4.6,32.05.63,4,1.27,7.91,2,11.85a15.78,15.78,0,0,0,.36,1.94c.42,1.37,1.86,2.24,3,2.91,1.42.82,2.68,1.48,4.37,1.22a33.89,33.89,0,0,1,6.11-.65,23.27,23.27,0,0,1,12,3.73c3.57,2.31,6.71,5,10.94,6,8.29,2,16.77-1.2,24.66-3.4,2.78-.78,7.64-2.53,9.9.24,1.14,1.39,1,3.37,1,5.06a18.07,18.07,0,0,0,.32,5.59c.94,3.34,3.95,5.1,7.21,5.6,3.41.52,7-.42,10.33.58,3.49,1,4.21,4.56,5.08,7.64s2.18,6.2,5.47,7.49a23.51,23.51,0,0,0,5.47,1.11,37.28,37.28,0,0,0,5.18.39,15.49,15.49,0,0,0,9.51-2.75c6.33-4.85,5.18-13.83,4.08-20.74a77.47,77.47,0,0,0-6.63-22.08,42.87,42.87,0,0,0-14.58-17.11,68.55,68.55,0,0,0-11.35-5.8c-4.29-1.82-8.62-3.54-13-5.26-8.9-3.54-17.83-7-26.77-10.41-4.32-1.66-8.62-3.43-13.06-4.77a50.74,50.74,0,0,0-13-2c-4-.15-8-.32-11.48-2.41a1.33,1.33,0,0,0-1.35,2.3c3.32,2,7.13,2.51,10.94,2.7a58.22,58.22,0,0,1,12.55,1.53,131.24,131.24,0,0,1,12.58,4.43q6.52,2.5,13.06,5c8.55,3.3,17.08,6.65,25.56,10.12,7.5,3.07,14.94,6.44,20.5,12.52,4.95,5.4,8.21,12.16,10.4,19.1a88.08,88.08,0,0,1,2.63,10.86,49.66,49.66,0,0,1,1.07,11.07c-.16,3.53-1.3,7.2-4.42,9.2-2.74,1.75-6.15,1.94-9.31,1.74a47.09,47.09,0,0,1-5.17-.64c-1.75-.3-3.55-.7-4.68-2.19-1.78-2.35-1.94-5.66-3-8.32a8.84,8.84,0,0,0-7-5.64c-3.35-.53-6.79.31-10.1-.49a5.7,5.7,0,0,1-3.69-2.36c-.91-1.5-.8-3.39-.75-5.07.12-3.34.1-7.1-3.11-9.06-2.81-1.73-6.42-1-9.41-.24-4,1.07-8,2.38-12.09,3.31s-8.2,1.52-12.24.69-7.15-3.35-10.57-5.62a26.05,26.05,0,0,0-11-4.12,25,25,0,0,0-6.11,0c-.89.1-1.77.26-2.65.44a2.91,2.91,0,0,1-2.29-.36c-.9-.48-2.33-1-2.66-2.08a12.42,12.42,0,0,1-.33-1.84c-.3-1.66-.58-3.33-.86-5q-2.48-14.85-4.52-29.78c-.64-4.73-1.25-9.47-1.72-14.22a59.37,59.37,0,0,1-.5-9c0-.23.08-.62,0-.32a3.63,3.63,0,0,0,.1-.45c0-.06-.1.15-.14.18s-.17.17-.08.06c-.11.13-.19,0,.13,0-.29-.05.39.11.53.17a6.71,6.71,0,0,1,.91.41,24.93,24.93,0,0,1,2.42,1.49c3.76,2.56,7.19,5.63,11.08,8,1.14.7,2.64,1.63,4.05,1.49,1.69-.17,1.71-2.84,0-2.67Z" fill="#33322e"/><g opacity="0.13"><path d="M828.28,1016.92c3.6,5.92,7.5,10.65,13,13.33s11.15,3.34,16.75,4.64a44.29,44.29,0,0,1,16.83,7.42,62.23,62.23,0,0,1,13.12,14c3.73,5.18,7,11.12,11.13,15.77a28.13,28.13,0,0,0,12.26,8.43c.43.14.85.25,1.28.35,2.68-3.92,2.49-9.37,1.85-14.24-1.95-14.64-6.87-29.77-17.8-38.78-5.15-4.25-11.31-6.86-17.39-9.34-13.65-5.58-27.4-10.85-41.15-16.12-5.3-2-10.67-4.08-16.28-4.68-1.39-.14-2.81-.21-4.23-.26Q822.56,1007.54,828.28,1016.92Z" fill="#fff"/></g><path d="M811.78,1168.73c9.46-7.37,13.19-25,8.05-37.92-1.51-3.82-3.74-7.8-3-11.93.61-3.33,3-5.47,5.17-7.31,2.81-2.35,5.74-4.76,9.08-5.31a7.68,7.68,0,0,1,8.47,5.44c.82,2.62.47,5.56.54,8.37s.85,6,2.87,7.1a3.64,3.64,0,0,0,3.17-.08c6-2.7,7.14-14.17,12.94-17.48,3.73-2.13,8.2-.07,11.49,3.19s6.11,8.47,5.57,13.85c-.69,6.72-6.23,13.14-3.49,19,1.6,3.4,5.35,4,8.18,2.63s5.06-4.2,7.51-6.48c1.47-1.37,3.2-2.61,5-2.25,3.71.75,4.77,7.08,4.77,12s.51,11.14,4.09,12.68,6.71-3.1,8.25-7.46,3-9.59,6.51-11,7.13,1.94,8.7,6.17,1.53,9.11,1.45,13.78c-.13,8.3-114.91,22.73-113,12.37" fill="#33322e"/><path d="M812.82,1169.77c6.23-4.93,9.4-13,10.43-20.71a40.19,40.19,0,0,0-.34-12.9,32.33,32.33,0,0,0-1.73-5.94,52,52,0,0,1-2.68-7.1,8.47,8.47,0,0,1,1.08-7,23.52,23.52,0,0,1,4.85-4.65c3.13-2.54,7.58-5.51,11.45-2.63,4.13,3.08,2.31,9.12,3,13.48a8.86,8.86,0,0,0,2.48,5.45,5.18,5.18,0,0,0,6,.35c6.29-3.43,6.34-12.18,11.53-16.58,3.68-3.13,8.45-.09,11.18,2.82,3.21,3.43,5.32,8.27,4.5,13-.78,4.55-3.41,8.56-4,13.15-.52,4,1.09,8.34,5.2,9.58,4.52,1.35,8.29-1.94,11.23-4.91,1.42-1.43,3.54-4.35,5.8-4.26,1.5.06,2.34,1.73,2.78,3,1.41,3.92.87,8.08,1.29,12.14.34,3.39,1.17,7.81,4.62,9.41,4.4,2,7.91-2.64,9.52-6.12,1.68-3.64,2.21-8.59,5.29-11.42,3.74-3.45,7.48,2.54,8.39,5.63a29.83,29.83,0,0,1,1,7.81c0,1.29,0,2.58,0,3.87s0-.15,0,.39c.06-.9.09.13-.06,0s.33-.33.08-.11l-.18.19-.17.15c-.25.25.27-.19,0,0s-.37.25-.56.37c-.42.25-.86.48-1.3.69l-.51.22-.91.37c-7.61,2.9-15.89,4.32-23.88,5.75-11.18,2-22.44,3.55-33.73,4.76-10.53,1.13-21.12,2-31.72,2.17a95.86,95.86,0,0,1-11.37-.38,23.17,23.17,0,0,1-3.62-.61,12,12,0,0,1-1.44-.45c-.22-.09.34.17,0,0-.08,0-.17-.07-.25-.12s-.33-.19-.49-.3c.38.25.08.07-.08-.09s.28.27,0-.06.23.36,0,0c.32.58,0,.37,0,.26v-.08s.1-.69,0,.13c.31-1.86-2.54-2.66-2.85-.79-.38,2.34,1.63,3.55,3.58,4.17a35,35,0,0,0,9,1.19c9.9.46,19.88-.28,29.73-1.14q17.82-1.56,35.5-4.35c9.5-1.5,19.09-3.12,28.32-5.83a29.69,29.69,0,0,0,7.73-3.06,4.92,4.92,0,0,0,1.84-1.81c.55-1.08.32-2.5.33-3.64a44.16,44.16,0,0,0-.62-8.28c-.8-4.29-3.17-9.45-7.77-10.72-4.42-1.22-7.43,2.59-9,6.18-.9,2.07-1.54,4.23-2.34,6.35s-2,4.49-3.85,5.76c-3.82,2.57-5.08-4.48-5.29-6.78-.39-4.21.09-8.51-1.36-12.58a8.34,8.34,0,0,0-3-4.28,5.4,5.4,0,0,0-5.83.09c-2.24,1.31-3.93,3.46-5.78,5.24-1.54,1.48-3.38,3.15-5.62,3.29a4.29,4.29,0,0,1-4.28-2.58,9,9,0,0,1,0-6.23c1.32-4.56,3.84-8.82,3.73-13.69a19.69,19.69,0,0,0-5.94-13.08c-3.12-3.14-7.9-5.84-12.38-4-3.45,1.4-5.41,4.88-7,8-1.51,3-2.79,6.61-5.37,8.89a4.78,4.78,0,0,1-2,1.16,2.13,2.13,0,0,1-2.48-1.44c-1.09-2.17-.93-4.77-.9-7.12,0-4.63-.81-9.6-5.46-11.78-4.44-2.08-8.85,0-12.47,2.75s-7.78,6-8.37,11c-.6,5.09,2.49,9.52,3.92,14.2a36.34,36.34,0,0,1-1.76,25.33,24.11,24.11,0,0,1-6.73,8.85c-1.49,1.18.62,3.25,2.09,2.08Z" fill="#33322e"/><path d="M281.49,1063l14.63-16.76c3.49-4,7.11-8.11,11.7-10.28,10.41-4.92,22,1.33,33,4.15,9.83,2.52,21.08,2.76,28.13,10.93,2.09,2.41,3.68,6.13,2.27,9.1-1.1,2.33-3.6,3.27-5.9,3.74a31.09,31.09,0,0,1-16.14-1c1.29,2.38.13,5.67-1.85,7.32s-4.55,2.08-7,2.46l-7,1.09a4.82,4.82,0,0,0-2.86,1.13c-2.2,2.23.25,6.27,2.82,7.92,5.92,3.81,13.15,4.92,18.42,9.8,2.47,2.29,4.3,6.84,1.92,9.24-1.05,1.06-2.82,1.55-3,3.12-.16,1.28.85,2.31,1.77,3.08l6.64,5.58a42.4,42.4,0,0,1-24,7.35c-6,0-13.39-.57-16.2,5.36-1.23,2.58-1.09,5.68-1.48,8.58-1.55,11.51-11.15,19-19.89,25.19a5.88,5.88,0,0,1-3,1.36c-2.8.08-4.24-3.69-4.92-6.77" fill="#33322e"/><path d="M282.32,1063.83l9.92-11.36c3.07-3.53,6.05-7.2,9.38-10.49,3.14-3.09,6.73-5.55,11.13-6.37s8.76,0,12.94,1.14,8.45,2.69,12.72,3.92c3.71,1.07,7.5,1.76,11.29,2.53,7,1.43,15.43,3.54,19.47,10.12,1.13,1.85,2,4.32.95,6.39-.92,1.86-3,2.59-4.94,3a30.2,30.2,0,0,1-15.69-1c-1-.34-1.75.87-1.33,1.73,1.24,2.5-.53,5.4-2.75,6.6-2.69,1.45-6.16,1.57-9.13,2-2.61.4-6.26.35-7.49,3.19-1,2.19.17,4.64,1.55,6.37,1.66,2.09,4.15,3.3,6.53,4.39,2.63,1.21,5.36,2.21,8,3.46s5.18,2.67,6.92,4.87c1.3,1.64,2.77,4.79,1,6.62-.84.88-2,1.28-2.75,2.3a3.43,3.43,0,0,0-.17,3.66c.78,1.44,2.28,2.42,3.5,3.45l4.79,4,.24-1.85a41.8,41.8,0,0,1-20.38,7.11c-5.35.35-11.34-.83-16.26,1.88a9.81,9.81,0,0,0-4.75,6.45c-.82,3.45-.58,7-1.64,10.43-1.85,5.94-6.09,10.72-10.73,14.71a84.22,84.22,0,0,1-8.29,6.27c-1.57,1-2.87,1.09-4-.52a13.15,13.15,0,0,1-1.72-4.55c-.33-1.48-2.6-.85-2.26.62.57,2.54,1.54,5.8,4,7.13,3,1.63,6-1.23,8.28-2.9,5.14-3.76,10.15-7.92,13.67-13.29a26.49,26.49,0,0,0,3.79-8.84c.78-3.54.18-7.7,2.08-10.91,3-5.07,10.47-4,15.44-4a43.9,43.9,0,0,0,23.91-7.51,1.19,1.19,0,0,0,.24-1.85l-4.06-3.4c-1.18-1-2.84-2-3.68-3.28s.23-1.83,1.17-2.49a5.69,5.69,0,0,0,2.25-2.58c2-5-2.9-9.75-6.72-12-4.8-2.9-10.65-4-15.18-7.37-1.44-1-4.23-4.41-2.13-6,1.1-.86,3.15-.83,4.49-1l5.07-.79c2.94-.47,6.07-1.22,8-3.65a7.27,7.27,0,0,0,1.12-7.79l-1.32,1.73a33.06,33.06,0,0,0,15,1.3c3.78-.55,8.17-2,8.95-6.29s-2.07-8.3-5.14-11a28.45,28.45,0,0,0-10.37-5.44c-4-1.24-8.14-1.91-12.24-2.76a131.45,131.45,0,0,1-13.43-3.81c-8.88-2.84-18.73-5.23-27.07.42-4.52,3.07-8,7.45-11.54,11.52l-12.35,14.16c-1,1.13.66,2.8,1.66,1.66Z" fill="#33322e"/><path d="M404.55,995.85l-31.73,23.65c-4.56,3.41-9.6,7.69-9.8,13.66a4.85,4.85,0,0,0,1,3.41,4.72,4.72,0,0,0,3,1.27c6.3.87,12.83-1.5,19,0a2.94,2.94,0,0,1,2.11,1.38,3.74,3.74,0,0,1,.06,2.2l-1.67,9.71a3.31,3.31,0,0,0,0,1.95,2.68,2.68,0,0,0,1.61,1.2c6.32,2.25,13.49-1,18-6.32s6.74-12.35,8.41-19.3a156.54,156.54,0,0,0,3.08-16.85c.47-3.76.78-7.74-.65-11.19s-5.2-6.07-8.5-4.73" fill="#33322e"/><path d="M403.87,994.69l-17.64,13.16c-5.57,4.15-11.32,8.14-16.7,12.53-4,3.3-8.18,7.91-7.84,13.52.45,7.23,9.91,5.49,14.82,5a46.38,46.38,0,0,1,5-.26,12.5,12.5,0,0,1,4.74.67c1.37.62.38,3.06.19,4.17l-.92,5.34c-.25,1.43-.82,3.18-.28,4.61a4.2,4.2,0,0,0,2.9,2.25,14.82,14.82,0,0,0,7.9.21c12.4-2.88,17.27-16.38,19.87-27.36q1.36-5.71,2.28-11.52a57,57,0,0,0,1.11-11.35c-.14-3.28-1-6.63-3.43-9a7.56,7.56,0,0,0-7.79-2.1c-1.6.58-.91,3.17.72,2.58,2.28-.83,4.5.41,5.91,2.23,1.73,2.23,2,5.28,1.92,8-.19,6.34-1.57,12.81-3,19-2.25,9.93-5.83,22.59-16.55,26.4a13.11,13.11,0,0,1-7.2.6,8.87,8.87,0,0,1-1.57-.48c-.71-.32-.66-.75-.57-1.44.22-1.78.61-3.56.92-5.34.25-1.45.52-2.91.75-4.37a4.56,4.56,0,0,0-.47-3.65c-1.46-2-4.8-2.07-7-2.14a89.27,89.27,0,0,0-9.1.57,31.4,31.4,0,0,1-4.55.05c-1.17-.08-2.91-.14-3.57-1.32-1.15-2,0-5.19,1.11-7a22.32,22.32,0,0,1,5-5.54c2.5-2.1,5.2-4,7.82-5.93l8.72-6.51L405.22,997c1.37-1,0-3.34-1.35-2.31Z" fill="#33322e"/><path d="M387.9,1166.65c-5.53-5.11-11.69-10.44-17.94-9.33-5.08.89-9.19,5.93-14.12,7.63-4.75,1.64-9.86.1-14.81,0-12.63-.24-24.63,9.75-30.48,25.38a4,4,0,0,0-.35,2.07,2.77,2.77,0,0,0,1.88,2c16.55,7.11,80.12,3.44,81.78-5.37s-.9-19.83-6.66-24.52" fill="#33322e"/><path d="M389,1165.55c-3.83-3.53-7.89-7.29-12.86-9.11-4.68-1.71-9-.37-13,2.28-1.92,1.28-3.74,2.71-5.77,3.82a14.22,14.22,0,0,1-7.53,1.59c-4.82-.18-9.41-1.17-14.22-.24-8.13,1.57-15,7-19.85,13.48a47.87,47.87,0,0,0-6.76,12.55c-.83,2.3-.29,4.56,2,5.71a19.14,19.14,0,0,0,2.93,1.1,71,71,0,0,0,15.48,2.48,198.94,198.94,0,0,0,20,.43c6.78-.17,13.57-.6,20.32-1.38a105.72,105.72,0,0,0,16.4-2.93c2.93-.83,7.08-1.95,8.77-4.77a8.58,8.58,0,0,0,.8-3.5,31.65,31.65,0,0,0,0-6.88,30,30,0,0,0-3.79-12.39,17,17,0,0,0-3.66-4.38c-1.53-1.28-3.75.92-2.21,2.21,6,5,7.49,14.62,6.45,21.93-.06.39-.17.78-.2,1.17,0,.06-.14.41,0,.12s-.17.28-.26.41c.28-.41-.19.16-.33.29s-.38.32-.18.16-.2.14-.27.19a15.43,15.43,0,0,1-4.1,1.86,79.39,79.39,0,0,1-14.14,3c-6.07.84-12.19,1.32-18.31,1.6-6.42.3-12.86.36-19.29.1a108.68,108.68,0,0,1-16-1.59,36.59,36.59,0,0,1-5.84-1.52,8.1,8.1,0,0,1-1-.39c-1.21-.62-.84-1.45-.41-2.57a46.68,46.68,0,0,1,2.89-6.16c3.78-6.81,9.49-13.06,16.86-16a24.36,24.36,0,0,1,10.88-1.61c5,.38,10,1.43,14.82-.71,3.91-1.75,7-5.15,11-6.61,4.45-1.61,8.77.79,12.28,3.42a74.2,74.2,0,0,1,5.88,5c1.48,1.36,3.69-.85,2.21-2.21Z" fill="#33322e"/></g><polygon points="311.97 1038.25 311.87 1004.75 414.11 963.75 414.58 997.11 311.97 1038.25" fill="#fff"/><polygon points="414.56 915.96 313.78 840.11 313.32 800.79 412.32 875.31 414.56 915.96" fill="#fff"/><polygon points="407.26 1090.76 415.29 1038.49 512.42 937.57 412.14 855.63 409.63 813.37 558.36 934.91 407.26 1090.76" fill="#fff"/><polygon points="873.26 1016.79 782.69 992.6 781.89 961.67 869.21 983.8 873.26 1016.79" fill="#fff"/><polygon points="776.09 894.15 771.95 855.29 844.77 786.74 848.23 826.24 776.09 894.15" fill="#fff"/><polygon points="793.1 1062.56 633.81 930.86 764.12 797.99 768.62 837.87 679.77 928.46 786.43 1016.65 793.1 1062.56" fill="#fff"/><path d="M489.37,531.26l0,0S489.38,531.23,489.37,531.26Z" fill="#262521" stroke="#262521" stroke-linecap="round" stroke-linejoin="round" stroke-width="3"/><path d="M795.63,1082.1c15.19,46.35,31.33,105.74,33.16,135.24,1.64,26.39,2.89,34.36,2.89,34.36h58.1s4.48-6.67,5.3-18.89S882.81,1124.28,877.23,1043c-3.83-55.87-22.88-124.63-22.88-124.63s-14.59-306.95-52.89-331.94c-10.88-7.1-142.29-56.21-142.29-56.21s-2.49,55-82.84,55c-65.08,0-82.1-39.23-86.21-51.38a10.79,10.79,0,0,1-.75-2.59c-1,.65-100.94,62.69-145.44,89.5C299.2,647.71,317.25,945,317.25,945a619.79,619.79,0,0,0-3.6,128.12c5.53,68.42-1.88,179.2,14.45,197.94l61-1.5s-5.6-14.35-4.65-27c2.27-30.22,5.53-104.27,15.36-135.22,4.73-14.91,9.88-35.95,14-53.76" fill="none" stroke="#262521" stroke-linecap="round" stroke-linejoin="round" stroke-width="3"/><path d="M410.65,807.61s5.34,199.1,3.83,238.13c-.83,21.49-24.34,111.43-12,138.61,0,13-4.58,74.09-4.58,74.09s74.26,22.14,151.26,21.22C686.66,1278,810,1253,810,1253s-7-59.34-7.79-72.93c14.49-25-18-135.25-19.75-205.2-1.22-47.59-17.58-180.24-17.58-180.24" fill="none" stroke="#262521" stroke-linecap="round" stroke-linejoin="round" stroke-width="3"/><path d="M397.88,1258.44s74.26,22.14,151.26,21.22C686.66,1278,810,1253,810,1253" fill="none" stroke="#636363" stroke-linecap="round" stroke-linejoin="round"/></svg>