<svg xmlns="http://www.w3.org/2000/svg" width="1250" height="1550" viewBox="0 0 1250 1550"><title>s03e08-02</title><path d="M489.37,531.26l0,0S489.38,531.23,489.37,531.26Z" fill="#8e8e8e"/><path d="M877.23,1043c-3.83-55.87-22.88-124.63-22.88-124.63s-14.59-306.95-52.89-331.94c-10.88-7.1-142.29-56.21-142.29-56.21s-2.49,55-82.84,55c-65.08,0-82.1-39.23-86.21-51.38a10.79,10.79,0,0,1-.75-2.59c-1,.65-100.94,62.69-145.44,89.5C299.2,647.71,317.25,945,317.25,945a619.73,619.73,0,0,0-3.6,128.12c5.53,68.42-1.88,179.2,14.45,197.94l61-1.5s-5.6-14.35-4.65-27c2.27-30.22,5.53-104.27,15.36-135.22,4.76-15,10-36.21,14-54.09-4.18,35.82-25.19,153.63-13.89,178.58,0,13-1.32,43-1.32,43s73.26,22.14,150.26,21.22c137.52-1.66,263.37-26.64,263.37-26.64s-6.69-30-7.46-43.63c9.13-15.76-1.37-83.46-10.84-148.89,15.66,47,33,109.83,34.87,140.44,1.64,26.39,2.89,34.36,2.89,34.36h58.1s4.48-6.67,5.3-18.89S882.81,1124.28,877.23,1043Z" fill="#8e8e8e"/><path d="M370.86,951c12.67-49.63-10.92-231.4,13.09-277.05s98.55-90.44,112.76-100.14c-9.93-10.24-20.1-28.08-21.92-33.45-.71-2.08-86.36,53.64-130.86,80.45C299.2,647.71,317.25,945,317.25,945a619.73,619.73,0,0,0-3.6,128.12c5.53,68.42-1.88,179.2,14.45,197.94l28.26-.7c-2-48.65,2.1-97.48,4.41-146" fill="#262521"/><path d="M877.23,1043c-3.83-55.87-22.88-124.63-22.88-124.63s-14.59-306.95-52.89-331.94c-10.88-7.1-126.86-50.72-126.86-50.72s-4,15.75-12.65,28.48c.12,0,84.74,28.28,113.27,67.73s24.64,235.42,37,296S866.41,1166.35,862,1251.7h27.83s4.48-6.67,5.3-18.89S882.81,1124.28,877.23,1043Z" fill="#262521"/><path d="M414.91,1032.59c-.23-16.61-.59-33.22-.9-49.82q-.4-21.16-.54-42.34c-8.5-3.36-95-17.39-97.7-18.1,1,26.32,1.48,22.71,1.48,22.71s-7.93,78.9-2.4,147.32c.17,2.14,59.93,8.73,85,14.87,4.09-12.93,8.49-30.42,12.24-46.42a.83.83,0,0,1-.24-.94,60.79,60.79,0,0,0,2.77-10.54.84.84,0,0,1,.47-.6Q415,1040.66,414.91,1032.59Z" fill="#fff"/><path d="M880.15,1080s-2.09-24.86-2.92-37c-3.83-55.87-24.38-129.13-24.38-129.13l-74.32,5.94s3.09,67.53,6.75,98.53c2.86,24.2,10.34,58,15,76.62C801.64,1094.8,880.15,1080,880.15,1080Z" fill="#fff"/><path d="M783,977.2c.07-4.09-4.73-62.39-4.73-62.39l-124.06,2.62,8.63,195.74,134.71-5.89S782.84,984.53,783,977.2Z" fill="#fff"/><polyline points="778.25 914.81 654.19 917.43 662.82 1104.67 798.03 1098.78" fill="none" stroke="#262521" stroke-linejoin="round" stroke-width="24"/><polyline points="412.62 923.33 539.66 920.39 539.6 1116.32 404.76 1116.32" fill="#fff"/><path d="M413.8,1053.28c-4.14,18.22-9.12,38.61-14,54.09-9.83,31-13.09,105-15.36,135.22-1,12.66,4.65,27,4.65,27l-61,1.5c-16.33-18.74-8.92-129.52-14.45-197.94A619.79,619.79,0,0,1,317.25,945S299.2,647.71,343.93,620.76s145.46-89.52,145.46-89.52-.24-.24.73,2.61c4.11,12.15,21.13,51.38,86.21,51.38,80.35,0,82.84-55,82.84-55s131.41,49.11,142.29,56.21c38.3,25,52.89,331.94,52.89,331.94s19,68.76,22.88,124.63c5.58,81.26,18.66,177.57,17.85,189.79s-5.3,18.89-5.3,18.89h-58.1s-1.25-8-2.89-34.36c-1.9-30.61-19.21-93.42-34.87-140.44" fill="none" stroke="#262521" stroke-linecap="round" stroke-linejoin="round" stroke-width="3"/><path d="M836,1220.48s30.63-3.83,52.36,0" fill="none" stroke="#636363" stroke-linecap="round" stroke-linejoin="round"/><path d="M325.27,1238s30.63-3.83,52.37,0" fill="none" stroke="#636363" stroke-linecap="round" stroke-linejoin="round"/><path d="M478,546.43s21.5,56.9,100.8,56.9,94.27-62,94.27-62" fill="none" stroke="#636363" stroke-linecap="round" stroke-linejoin="round"/><path d="M410.65,807.61s5.34,199.1,3.83,238.13c-.83,21.49-26.88,158.94-14.57,186.12,0,13-1.32,43-1.32,43s73.26,22.14,150.26,21.22c137.52-1.66,263.37-26.64,263.37-26.64s-6.69-30-7.46-43.63c14.49-25-20.49-181-22.29-250.9-1.22-47.59-16.09-167.28-16.09-167.28" fill="none" stroke="#262521" stroke-linecap="round" stroke-linejoin="round" stroke-width="3"/><path d="M410.89,1236.91S578.6,1271.1,793,1227.58" fill="none" stroke="#636363" stroke-linecap="round" stroke-linejoin="round"/><path d="M539.6,1118.82H404.76l2-24H527.6l.06-162.15-114.77,2.65-.55-24,127.05-2.94a12,12,0,0,1,12.27,12l-.06,186.44A12,12,0,0,1,539.6,1118.82Z" fill="#262521"/><polygon points="413.94 947.21 316.75 938.73 316.79 914.81 415.99 923.3 413.94 947.21" fill="#262521"/><polygon points="397.74 1113.17 314.64 1109 315.78 1085.03 403.38 1089.2 397.74 1113.17" fill="#262521"/><line x1="779.03" y1="925.39" x2="854.34" y2="914.27" fill="none" stroke="#262521" stroke-linejoin="round" stroke-width="24"/><polygon points="803.78 1104.67 796.44 1081.56 878.4 1070.73 881.51 1094.53 803.78 1104.67" fill="#262521"/></svg>