<svg xmlns="http://www.w3.org/2000/svg" width="1250" height="1550" viewBox="0 0 1250 1550"><title>s03e01-01</title><polyline points="800.98 1248.13 821.08 1590.37 662.38 1588.52 633.48 1391.91 607.96 1400.59 599.12 1596.83 445.18 1596.61 404.44 1264.52" fill="#fff" stroke="#262521" stroke-linecap="round" stroke-linejoin="round" stroke-width="3"/><g opacity="0.2"><path d="M778,1412.88c-7.44,1.72-16.49,3.66-19.88-4.78.39,1.67-2.65,5.42-3.63,2.65a8.84,8.84,0,0,0-.88-4.58c-.76-.8.35-1.72.29-2.59a1,1,0,0,1,1.43-.89,12,12,0,0,0-7.16-5.46c2.59,6.22-4.81.72-6.85-.23-1.45-.52-4.48,1.08-5-.45-7.72.85-18.46.72-21.45-7.12-8.31,1.68-7.18-4.7-4.94-10.11,2.25-2.92,2.66,4.45,4.27,5.51.38-15.14,22.42-45.95,1.31-54.27-8.48,9.34-1.82,28.27-13,34.17-5,2.64-12.38,1.54-15.2,6.43-4,26.78-37.29,1.09-32.67-13.54-1.86-5.1,9.3-8.21,8.67-4.43,13.51-.56,12.31-7.15,6.89-16.67-.24,2.43-3.66,3.1-4.05.38-.32-1.63-.48-7.37,2.28-5.9a1,1,0,0,1,1.78.59c3.47-6.4,17.22.43,19.12-9-2.36-1.41-4.31-11.7-.29-10.79,1.42-1.8,4.33-1,6,0,6-1.77,14.92-5.13,7.44-11a5.4,5.4,0,0,1-4.69-1.61c-10.38.34-12.5-7.39-13.16-16.45-1.65-7.84-9.81-12.11-13.45-4,2.64,3.51,5.79,10.07.82,12.94-2.69-.14-2.37-6.87-3.46-9.12-7.44,8.53-16.42,33.33-30.52,22.45-1.7-2.17-1.93-5.09-2.6-7.75-3.23-12.73-19.63-19.45-31.26-14.18-7.64,13.53-21.26,4.78-12.4,29.73-15.89,3.94-22.35,8.53-22.1,24.4-1.52,3.8-6.69,6.11-6.26,10.18.59,5.52,9,4.31,14.09,6.52,10.75,5.62,5,19.81-1.15,27.07,21.8,9.45,17-3,31-6.54a139.32,139.32,0,0,0,1.14-16.46,43.33,43.33,0,0,0-7.23-12.58c8-7.06,13.82,6.83,19.06,11,3.44,2.41,9.72,1.36,9.94-2.84,10.19,5.4,5.83,22.89,14.8,30.13,8.06,5.48,9.76,7.36,2.64,14.28-3.1,8.35,10.64,10.07,12.68,16.47,1.45,4.4-1.11,11,1.81,13.5,5.24,1.34,5.71-6.59,8-5.17a8.23,8.23,0,0,1,4.29-.52c12.13-13.71,16.12,1.85,29.09,9.93,5.49.34,8.82-12.47,13-8,7.73,5.33,17.4,11.3,26.75,7.08,2-2.16,10.08-.31,11.29,2.49,11.35-1.75,14.33,16.85,26.09,13.61,2.29-1,1.7-4.23,2.69-6.23-3.35-8.3,2.37-6.4,3.34,0a5.71,5.71,0,0,0,1.19-.25,32.75,32.75,0,0,0-.13-7.1.87.87,0,0,1-.09-1,5,5,0,0,0-.22-1.54c-.79-1.32-4.65-8.71.44-5.48C793.36,1417.5,787.51,1411.82,778,1412.88Zm-92.64-114.82c1.25-1.42,5.22,1.48,5.12,3.09-1.44,2.47-6,.51-5.19-2.28A1.08,1.08,0,0,1,685.36,1298.06Zm-83.66,60.15c-.29-1.82,2.86-1.59,2.32.16,1.86,3.69,4.12,10.57-1.09,12a1,1,0,0,1-1.27-1C601.44,1365.65,602.16,1361.86,601.7,1358.21Zm28.87-9.09c-.46,3.85-6.14,6.27-4.93.39C623.07,1344.64,630.81,1342.84,630.57,1349.12Zm19.8-32.77c-2.38-2.56,3.24-6.48,2.36-9.86.06-1.64,2.45-1,2,.52C656.9,1310,654.84,1317.15,650.37,1316.35Zm14.51,102.75a1,1,0,0,1-1,1c-1.66-.18-.76-2.37-1-3.48-.06-.86-.75-2.06.45-2.44C665.53,1414.15,664.73,1417.63,664.88,1419.1Zm14.35-6.08c-1,.91-.38,3.49-2.16,3.24C674.49,1415.24,679.39,1408.48,679.23,1413Zm4.93-4.19a1,1,0,0,1-1.15.7h0c-.94,0-2.4,1.19-2.58-.53C680.53,1407.32,684.46,1406.73,684.16,1408.83Zm-2.28-20.2a1,1,0,0,1-.37-1.92C688.69,1379.27,692.94,1390.4,681.88,1388.63Zm8.18,22.19c-.39,1-3.62.09-3.48-.94C686.68,1407.92,691,1409.08,690.06,1410.82Zm5.11-38.73c-2.91.52-1.55,2.35-3.46,2.31C688.42,1372.45,696.54,1367.9,695.17,1372.09Zm11.83,34.3c.77-3.44,6.83,2,3.56,2.88-1.08-.12-3.43.37-3.31-1.31A1.65,1.65,0,0,1,707,1406.39Zm5.61,11.51c-9.24-.34-14-6.4-1-4.93a1,1,0,0,1,.93,1.19C713.44,1415,714.44,1417.63,712.61,1417.9Zm7-19.76c-.59,1.67-4.8,0-4-1.65C715.85,1395.32,720.22,1397.06,719.57,1398.14Zm19,33.52c-2.45,2.12-7.28-2.9-9.81-4.09C725.7,1424.06,740.69,1425.2,738.6,1431.66Zm-.22-30.94c-1.34-1.76-3.29.94-4.66,1.52-1.2,1.36-11.76,1.66-7.5-1.12,6.25,2,10.37-6.23,13.89-1.41C740.83,1400.79,739.09,1401.79,738.38,1400.72Zm24.4,33a1,1,0,0,1-1.19-.63v0c-.69-1-3.05.6-3.16-1.26C758.93,1429.18,765.73,1431.55,762.78,1433.67Zm.76-16.5c-1.54-.36-5.16.09-5.21-2,1-1.76,3.59.37,5.21,0A1,1,0,0,1,763.54,1417.17ZM779,1443.38c-.27.13-.56.24-.85.35-1.07,2.16-4,.44-5.43-.5h0c-1.47-1.1.58-2.58,1.65-1.34a1,1,0,0,1,1.27,0,.87.87,0,0,0,.82.17C776.82,1440.07,780.89,1442,779,1443.38Zm6.81-22a5.42,5.42,0,0,1-1.45-.37c-3.24,3.93-4.88-3.74-3.3-5.7a1,1,0,0,1,1.45-.61h0C784.71,1415.44,788.83,1419.77,785.78,1421.41Z" fill="#314251"/></g><g opacity="0.2"><path d="M603.89,1272.06l-3.75,13.45a18.17,18.17,0,0,1,4-2.44A13.23,13.23,0,0,0,603.89,1272.06Z" fill="#262521"/></g><g opacity="0.2"><path d="M811.38,1411.64c-2.36,0-3.48-2.88-3.92-4.89-3-2.49-1.29-5.28,1.46-6.74a1,1,0,0,1,1.49-.25h.06c-2.43-31.62-8.16-106.72-8.31-121.09-11.7,3-11.41,12.46-7.44,21.7.93,6.64-4.83,12.52-7.32,18.67,1.43.6.74,1.57-.16,2.36-.26.74.17,1.42.52,2.11,3.87.06,2.33,4.37-.26,5.34,6.5,8.63,7.49,14.24-.84,22.17-4.06,3.83-6.26,14,1.22,13.8,3.32-3.16,7.12.43,2.37,3.09a38.44,38.44,0,0,1,8.77,9.57c6.12,1.08,6.12,18.65,6.3,24-.81,5.06-.44,12.89,6.22,12.29C811.53,1413.53,811.47,1412.8,811.38,1411.64Zm-14.46-43.43c-.56,2.66-3.45.31-2.23-1.4C794.5,1363.81,797.76,1366.29,796.92,1368.21Zm1.08-11.47c-1.5,1-3.38,1.37-4.83,2.49-1.09.68-2.14-1.09-1-1.73.15-.55.7-.71,1.19-.78,1-.52,1.77-1.57,2.91-1.92C797.47,1354.26,799.43,1355.65,798,1356.74Zm1.19-73.19c-.73,1.13-2.45,1.46-3.12,2.78-.42.68-.54,1.85-1.63,1.58C791.44,1286.58,799.07,1279.6,799.19,1283.55Z" fill="#314251"/></g><g opacity="0.2"><path d="M752.83,1535.91a14,14,0,0,0-4.19-4.09c-.56.39-1.09.84-1.66,1.23.25.59,1.21.89,1,1.62,1.13.63,1.72,2.63-.13,2.52-1.64-.22-5.63-.33-7.87-1.33a1,1,0,0,1-1.28-1.3c-.76-3.28,3.51-3,5.49-3.91.07-.24.14-.48.22-.71-13.53-4.16-11.61,11.75-20.07,12.62-4.07-.49-5.95-5.85-10-7,1,7.77-5.36,2.84-6.26-1.47a84.76,84.76,0,0,1-8.54-1.11c-6.12-1.38-12-9.08-7.43-13.37-6-4.07-16.64,15.54-17.44-5.37-1.25-11.23-15.09-16.4-17.08-27.32-4,3.7-4.21-12.36-.48-11.28a1,1,0,0,1,.35,1.37c-1.14,2.86-1.64,6.45,0,9.19-.44-4.71,2-9.91,6.59-10.74a13,13,0,0,0,3.4,13.45h1.59c1.47-3.37,11.45-.95,14.3.55,5.57-5.61,4.44-8.24,13.5-10.09,10.84-4.89,4.29-21.79-7-18.06-14,7.8-10.36-1.42-19.05-7.52-14.22-.06-12.31,7.37-21.8-9.31-3.64-4.91-2.41-8.87-8.11-6.69,4.31,32.87,17.46,124,17.57,124.81,31.71.2,66-.29,97.79-4.43C756.73,1550.49,757,1542.31,752.83,1535.91Zm-65.36-71.25c.72-1.5,9.77-1.54,8,1.27-1.68,1.52-7.61,2.93-7.81-.25A1,1,0,0,1,687.47,1464.66Zm-15.34-4.83c1-1.45,4.75,1.29,3.56,2.66C675.05,1463.51,671.25,1460.77,672.13,1459.83Zm-5.67-2.6c1-2.5,5.66-.45,2.88,1.41a1,1,0,0,1-1.34.4l.1,0C667.3,1458.84,666,1458.27,666.46,1457.23Zm12.23,70.36c-9.52,3-12-14.7-6.36-11,.83,2.72.88,5.77,2.54,8.17a2.79,2.79,0,0,0,3.29.91A1,1,0,0,1,678.69,1527.59Zm72.25,25.93c-.47,1.35-1.92.44-2.77,0-1.33.29-2.55,1.36-4,.53-1.28,0-3.1,0-3.78-1.28-3.06-.56.6-4,2.38-3.23C744.73,1549.51,750.72,1551.57,750.94,1553.52Z" fill="#314251"/></g><g opacity="0.2"><path d="M603.42,1428.68a18.15,18.15,0,0,0-.87,1.77c1.9,2,0,10.08-3.08,6.68a4.41,4.41,0,0,1-.84-1.19,18.57,18.57,0,0,0-.18,12.14c4.14,1.25,2.59,6.61-.89,7.62-18.33,21.88,5.9,15.6-3.31,28.57.67-.64,1.73-1.6,2.15-2.13a3.67,3.67,0,0,0,.86-2.14c.07-1.28,2.07-1.29,2,0,0,4.33-5.85,5.69-5.74,9.94a.9.9,0,0,1-.94,1c-.34,5.61,4.76,10.44,10.27,10.19.26-4.4,3.17-64.7,3.3-74.45A17.08,17.08,0,0,0,603.42,1428.68Zm-8.64,44.73c-2.52,1.47-3.91-5.26-1.64-5.74,1.67.16.68,2.27,1,3.34C594.36,1471.86,595.65,1472.5,594.78,1473.41Z" fill="#314251"/></g><g opacity="0.6"><path d="M722.69,1349.12a7.48,7.48,0,0,0-1-7.95c3.13,11.72-8.48,12.78-5.29,24C717,1359,718.28,1353.6,722.69,1349.12Z" fill="#262521"/></g><g opacity="0.6"><path d="M678.42,1400.46h0s0,0,0-.06Z" fill="#314251"/></g><g opacity="0.6"><path d="M776.11,1431.32c-3-1.35-7.63.51-9.19-2.4-1.07-2,.68-4.21,2.84-5.27a2.86,2.86,0,0,1-.73-.7,1,1,0,0,1-1.1-1c1.71-2.64,6.58,0,9.31-.23a5.52,5.52,0,0,0,1.58-1c-8.47-4.19-26.52,6.53-28.09-7.22-6.7,16.32-17.41-3.37-.55-6.65-4.81-6.8-10.31,3.67-13.91,6.58-2.58,1.7-7.3.38-6.82-2.68,1.43-3.32,3-6.26-2.16-6.1-8.88,1-12.64-9.56-19.94-11.11-7.63,2-11.06-2.47-4.93-8.49,2.77-2.08,6.53-3.69,7.24-7.08-1.41-2.32-5.07,1.37-7.57.32s-.72-5.08,1.84-5.77c3.77-.77,8.63.65,10.88-3.42-4.23-19.24,8.1-13.06,4.69-29.88a6.37,6.37,0,0,0-3.31-1c4,3.2,4,10.27,0,13.47-3.54,1.67-4,5-4.54,8.53-2.31,7.58-17.55,8.38-15.66,17.91.93,2,1.26,4.14-.77,5.58l-7.54,7.19c-1.49,1.92-3.05,0-4.51-.8.06,2.79,2.48,5.31,1.44,8.21-.87,1.77-3.3,0-3.69-1.38-.75-2.72-.76-5.84-2.54-8.17a24.56,24.56,0,0,1-15.92-7.14,3.13,3.13,0,0,1-3.14,2.17c-1.79-.32-.75-3-1.12-4.24-1.46-5.72-8.37-9-9.3-15.17-4.26-24.29,26.16-5.4,12.84-29.38a5.4,5.4,0,0,0-.4.75c2.44.36.76,5.1-.52,6.1-3.69,2.88-2.06-7.9.06-8.9-3.6-11.41,14.22-12.29,21.67-10.69,2.23-3.83-4.54-9.79-.89-12.31,6.19-1.75,13-1.62,19.36-2.68-1.87-3-6.23-2.73-9.74-2.34-20.1,1.38,2.55-17.33-13-30.44,0,2.25-.13,4.49-.32,6.74a3,3,0,0,1,.75,1.14c4.66.43.17,16.25-1.4,4.65-1.07,5-4.39,27.51-11.08,25.44-1.42-5.64,2.09-12.31,2.55-18.21-8.69,4.89-7.22,17.19-12.75,24.44-4.51,6.1-11.93,5.49-16.3,0-4.4-2.91-10.13-.16-15.15,1.48-2.78,1.41-8.13.35-6.91-3.56,7.87-6.39,20.65-5.39,29.56-1.43,1.74-6.77-21.5-5.72-26.42-7.56-1.35-4.49,6.3-3.45,7.77-6.25,1.08-2-1.41-4.64-3.44-3.73l-1.09-1.94c-3.74-1.59-5.69-7.06-9.74-6.74-4.29.35-4.87,6.38-4.16,10.62l-11.39.27c-.95,4.27,2.94,13.88-3.29,14.47-16.76,2.35-21.38,20.09-26.1,33.73,17.93-5.36,23.66,16.57,13.47,28.63,15.59,1.2,19.09-20.55,7.15-28.29,3.69.93,5.87-4.34,5-8.05s-3-7.58-1.46-11.07c2,6.24,8.48,6.63,13.85,6.81,2.77,2.41,3.72,2.37,7.2,2.55,3.67,1.44.56,9.18,4.4,10,2.35-3,7.66-26.31,12.5-18.59,2.23,4.46-1.34,10.74,2.35,14.67,1.77,1.82,5.64,1.39,6-1.11,2.81,7.89,1.66,33.09,10.68,34.51,2.78-.46,5.9-.7,5.94,2.92-.06,5.38,4,12.77.52,17.29-6.54,1.55-1.35,7.82,2.55,9.52a6.12,6.12,0,0,1-.2-1.83c-3-2.68-4.36-7.44,1.44-4.9,1.36.22,5.47.14,3.16,2.2-.12.32-.23.65-.33,1a4.89,4.89,0,0,1-1.19,4.92c8.82,1.81,2.77,5.19,6.2,8.4,5.5-1.57,5.23-10.88,10.63-12.77s10.72,5.73,16.32,4.22c4.94-1.34,7.25-9.25,12.27-8.21,11.47,3.82,6.57,20.84,17.54,20.32-6.29-3.2-3.78-9.49-7.83-13.89a1,1,0,0,1,.83-1.78c3.63,1.86,3.85,7.09,5.67,10.4,1,2.88,4.47,3.07,6.06,5.36a43.18,43.18,0,0,1,10.27,1.78c1.91-.77,4.17-1.46,5.51.67.62.83,2.7,1.12,2.17,2.52,5.2,4.08,8,1.28,13.33.49,6.31.53,6.29,12.51,12.61,12.85C778.76,1439.93,780.4,1433.17,776.11,1431.32Zm-71.63-62.53c1.45-2.32,9.31-6.54,6.71-.56C710.57,1369.51,702.87,1371.88,704.48,1368.79Zm-28.12-65.67c1-6.27,3.7-5,3.43.54C679.42,1308.7,674.47,1308.3,676.36,1303.12Zm-.94,12.22c1.47-.66,4.78.18,5.14,1.85,1.72.8.79,3.88-1.08,2.75C677.6,1319.35,672.88,1317.87,675.42,1315.34Zm-7.11,2.66.1-.24a1.39,1.39,0,0,0-.06.13c.47-1.38,4.11-1.41,3.67.43,1.38,2.69-5.09,2.33-3.67-.43C668.34,1317.93,668.32,1318,668.31,1318Zm-85.12,17.14c-.58,2.32-.64,5.35-3,6.64-1.26.51-5.38,2.66-4.79-.19C577.44,1336,586.3,1316.86,583.19,1335.14Zm9.14,27.57s.19-.34.06-.12a4.7,4.7,0,0,0,.29-1.1h0c.35-1.24-.79-3.67,1-4a1,1,0,0,1,1,1c-.08,1.62.61,6.06-2,5.54A1,1,0,0,1,592.33,1362.71Zm-2-8.6c1.55-.19,2.06,3.4.38,3.46C589.46,1357.54,588.92,1354.28,590.35,1354.11Zm-.1-10.84a1,1,0,0,1-1.71.71c-.51-.39-.22-2.14-.29-2.68a1,1,0,0,1,2,0Zm15-13.46c-2,5.31-10.24-2.1-6.15-5C600.65,1322.36,606.13,1327.55,605.27,1329.81Zm-1.12-17c-1.79-2.65-3.14-7.47-.27-9.8,1-.57,3.14-.94,3.52.44.84.51.14,1.44-.06,2.13,1.54-1.7,6.21-5.35,7.16-1.5C613.1,1307.47,607.79,1313.08,604.15,1312.82Zm17.61,19.65c-.28,4.89-5,10-4.83,1.76.41-.92-1.25-9,1.72-7C620.58,1328.43,622.82,1329.93,621.76,1332.47Zm16.72,11c-2.92,3.11-6.75.07-4.58-3.62,1.72-4.45,1.28-9.32,0-13.81,3.1-4.61,3.6,10.4,2.53,12.09C638.67,1338.39,639.67,1341.91,638.48,1343.51Zm.4-19.32c-1.23.69-1.57-1.21-2.51-1.49a4.56,4.56,0,0,0-3,.16,1,1,0,0,1-1.23-.7c-.14-1.92,3-1.68,4.29-1.52S640.39,1322.84,638.88,1324.19Zm20.64-4.83a27.73,27.73,0,0,0,2.66-9.43c.42-1.4,2.41-.54,1.89.78-1,4.88-.28,14.1-6.81,14.81C654,1324,658.57,1320.93,659.52,1319.36ZM653,1333.62c.68-1.17,1.27-4,3.05-3.46.83.47.38,1.34.07,2-.53,2.07.66,4.9-1.3,6.44C651.86,1339.8,652.1,1335.28,653,1333.62ZM647.26,1353c-3.53.72-1-8.34,1.64-7.25,3-2.4,6.51,1.89,2,3C649.29,1349.63,649.08,1352.17,647.26,1353Zm19.45,33c1.91-.19,4.64,2.31,4.15,4.37-.88,1.66-3.87,5.11-5.79,3.62C664.08,1392.81,664.2,1384.43,666.71,1386Zm3.64,26.61c-2.57,1.28-1.34-2.58-2.08-3.73-.83-.77-2.19-1.13-2.33-2.42s.43-4.33,2.13-4C671.69,1403.32,674.13,1410.16,670.35,1412.62Zm8-10.24c-1.26,1.42-3.25-1-4.12-2-1.37-3.48,3.76-2.26,4.19.07A1.7,1.7,0,0,1,678.34,1402.38Zm20.82-20.59c.56-.86,2.19-1.93,2.85-.65C708.17,1380,696.43,1389,699.16,1381.79Zm-3.7,4.32c1.42-2,4,.2,2.72,2.16C697.13,1389.79,695.05,1387.32,695.46,1386.11Zm-.14,4.61a1.06,1.06,0,0,1,1.73,1c.81.76.67,2.59-.74,2.29A2.51,2.51,0,0,1,695.32,1390.72Zm-2.74-1.57c1-2.12,3.07-.1,1.52,1.36C692.85,1392.54,690.15,1390.29,692.58,1389.15Zm10.55,10.62c-2.84,2-4.38,5.62-7.38,7.39-3.54-.08-.47-4.2,1.11-5.13C697.72,1395.41,705.81,1397.14,703.13,1399.77Zm25.83,7.89c-1.44,4.25-7.51,3.06-3.64-.91,1-.36,1.72-2.2,2.84-1.25C729.25,1405.56,729.5,1406.86,729,1407.66Zm12.77,12.63c-1,1.33-2.43-.4-3.22-1.12-2.54,1.78-2.89-4.64-.49-4.44,1.42-.7,1.53,1.29,1.5,2C739.58,1418.25,742.42,1418.65,741.73,1420.29Zm6.46,2.64c-.51,1.49-2.31.36-2.39-.79C746,1420.24,748.52,1421.51,748.19,1422.93Zm1.64-.68a1.59,1.59,0,0,1-.06-2.52l-.14.1.2-.15-.06,0c1.63-1.4,6.65,2.78,2.68,2.65A1.87,1.87,0,0,1,749.83,1422.25Zm4.1,2.49a.82.82,0,0,1-.12.2c.17,1.86-2.68,1.24-2.56-.32C751,1422.84,754.61,1422.93,753.93,1424.74Zm11.93.4c-1.6,1.84-2.73-1-.88-2C766.47,1422.07,767.33,1424.39,765.86,1425.14Zm8.13,13c-.54,1.19-2.31.44-2.81-.44a1,1,0,0,1,1.67-1.07l0,0C773.45,1436.83,774.41,1437.19,774,1438.11Zm2.92-1.71c-.88,1.24-2-.17-2.55-1a12.32,12.32,0,0,0-1.36-1.28l.06.06a1.89,1.89,0,0,0-.75-.4,1,1,0,0,1-.93-1.48C773.08,1430.14,778.92,1433.62,776.91,1436.4Z" fill="#314251"/></g><g opacity="0.6"><path d="M600.34,1499.37c-2.27-3.7-1.1-8.95,3.37-10.21-.22-17.2,3.59-34.11,2.67-51.35-2.52,2.29-6.88,4.34-7.54,7.85,5.28.12,7.26,6,4.27,10-2.71,4.16-8.7,7.26-8.18,12.88,2.86-.42,4.88-2.59,7.22-3.92,5.25,2.58-2.44,8.24-6.06,8.88,1.25,1.8,3.43,1.78,5.33,2,4.11,8-13.19,18.42-1,24Z" fill="#314251"/></g><g opacity="0.6"><path d="M808.54,1373c-1.39-19,0-38.22-2.86-57.16-7.31,2.07-4.35-4.53-.93-7.36-1-8-2-15.91-2.3-23.93-10.58,2.82-5.29,13-3.87,20.21,1.31,5.54-15.48,22.85-.35,15.94a9.22,9.22,0,0,1-7.11,10.09c-1,4.31,7,6.36,6.55,10.75-.84,4.73-15.37,13.58-9,17.83,4.54-11.2,18-8.19,12.31-.3-10.14,3.49-.58,4.69-.43,9.4-1.56,2.92-5,5.1.58,5.5,7.95,2.07.67,15.46,9.06,17.15Q809.1,1382.07,808.54,1373Zm-9.19-37.76a1.45,1.45,0,0,1-.15-2.9c1.49-.62,4.45,2,1.95,2.6C800.74,1335.61,800,1335.18,799.35,1335.24Zm2.77,9.1c-.48,2-2.48.73-2-1C800.61,1341.38,802.61,1342.62,802.12,1344.34Zm.46-15.3c-2.84,1.82-2-6.12.46-3.94C805,1325.45,803.33,1328.14,802.58,1329Zm5.79,46.35c-.75,1.15-2-.07-2.87-.5-2,3.79-3.42-3.92.13-2.24C806.54,1373.44,809,1373.8,808.37,1375.39Z" fill="#314251"/></g><g opacity="0.6"><path d="M749.75,1542.09c-13.2-13.3-21.86,8.71-32.28,5.13-4.78-3.54-9.74-6.61-15.74-7.81-5-1.8-9.85-1.2-12.6,3.39-7.5,4.3.76-11.09-2.28-17.57-3.05,2.35-3.84,7.1-7.32,8.75-8.75,2.71-15.53-8.83-15.38-16.5,1.63-10.48-3.53-9-6.88-16.56l-6-14.05c-10.73-23.59,24.75-15,20.37-5.45,2.84,3.48,7.88,3.73,10.24-.22,2.67-4.48,21.87-6.71,15.4-13.6-5.73,1.12-10,7.24-16.1,8.07-5,1.14-11.22-1-12.53-5.91a30.73,30.73,0,0,0,13.21,1c-8-7.49-9-5.78-17.84-7a5.9,5.9,0,0,0-6.42-3.51c-6.42-.53-11-7.46-16.78-9.53,5,34.3,12,68.23,16.39,102.68,8.49,5.43,16.73-8.78,6.09-11.37a40.77,40.77,0,0,1,15.45-2.2,15.05,15.05,0,0,0,3.07,17.14c24.22-16,30,1.7,46-7.2a4.73,4.73,0,0,1,.69-.86c-4.86-.22,7.51-8.54,7.89-5.67a1,1,0,0,1,1,1.43C741.54,1542.57,751.68,1551.28,749.75,1542.09Zm-100.51-80a1,1,0,0,1,.7-.66,1.06,1.06,0,0,1,1.29-1.16c1.91,1.32,6.42,1.9,6.64,4.34.44,1.25-1.29,2-2.29,1.57-1.77,1.69-5.31-.6-5.54-2.84A1,1,0,0,1,649.24,1462.09Zm8.26,61.73c-.52-1.48-2.41-12,.11-11.37C663.05,1513.3,660.77,1527.39,657.5,1523.82Zm7.65,24.35c.27,1.68-3.12,5.82-3.52,2.52a2.85,2.85,0,0,0-.7-2.4C656.76,1544.68,665.16,1544.16,665.15,1548.17Zm.61-14.85c-.23.68-1.07.64-1.65.62-1.25,1.26-2.93-1.3-2.89-2.51C661.64,1529.07,666.26,1531.6,665.76,1533.32Zm29.83,14.21c-1.28,1.8-8.7,7.7-9.56,3.91.32-2.27,2.3-4.83,4.7-4.8C692,1545.85,696.88,1544.75,695.59,1547.53Z" fill="#314251"/></g><g opacity="0.2"><path d="M674.52,1428.26a25.4,25.4,0,0,0,.6,7.41l1.61,8.86a5.8,5.8,0,0,0,1.21,3.09,4.37,4.37,0,0,0,4.27.81c1.47-.39,2.8-1.19,4.24-1.65a1.94,1.94,0,0,1,1.55,0c.69.39.73,1.34.94,2.1.64,2.31,3.31,3.37,5.68,3.67s4.94.22,6.94,1.54a11.18,11.18,0,0,1,2.87,3.17l4.7,6.73c1.25,1.81,2.79,3.78,5,4,3.08.27,5.34-3.11,8.4-3.61-1.57-2.53-5.54-1.65-8.13-3.13a9.55,9.55,0,0,1-2.3-2.1l-6.84-7.76a14,14,0,0,1,9.91,1.2c1.7.9,3.3,2.18,5.22,2.33,1.64.14,3.21-.59,4.82-.9a10,10,0,0,1,7.73,1.76,15.16,15.16,0,0,0-10.84-6.81c-2.39-.32-4.87-.11-7.19-.8a19.18,19.18,0,0,1-6.25-3.76,1.2,1.2,0,0,1-.46-.54c-.2-.59.48-1.06,1.05-1.29a21,21,0,0,1,4.46-1.19,11,11,0,0,0,3.32-.78,2.77,2.77,0,0,0,1.67-2.72c-.26-1.54-2.14-2.18-3.7-2.18a11.72,11.72,0,0,0-10.66,7.19c-.52,1.29-.83,2.73-1.8,3.73-1.7,1.78-4.73,1.41-6.84.13s-3.73-3.26-5.79-4.61-5-2-6.9-.41c-.18-2.57,1.54-4.83,2.68-7.14s1.52-5.59-.6-7l-2.81,4.3c-.53.81-1.27,1.72-2.23,1.61a2.57,2.57,0,0,1-1.41-.9,50.54,50.54,0,0,1-3.75-4.26" fill="#314251"/></g><g opacity="0.2"><path d="M702.18,1495.05l-4.79-.34a8.43,8.43,0,0,0-2.88.12,2.9,2.9,0,0,0-2.08,1.83,4,4,0,0,1-.33,1.15,2,2,0,0,1-1.64.66,39.06,39.06,0,0,1-8.23-.29c-.55-.07-1.27-.07-1.47.45s.55,1.11,1.19,1.31l9.48,3a6.8,6.8,0,0,0,2.55.45,2.3,2.3,0,0,0,2-1.38c.27-.82-.06-1.83.5-2.49a1.94,1.94,0,0,1,1.13-.54c2.29-.43,4.69.42,7-.16.85-.22,1.8-1.11,1.29-1.84a1.48,1.48,0,0,0-.61-.43,9.4,9.4,0,0,0-2.64-.76" fill="#314251"/></g><g opacity="0.2"><path d="M702.65,1515.46a8.36,8.36,0,0,0-3,1.66,2.87,2.87,0,0,0-.77,3.14,4.19,4.19,0,0,0,1.42,1.45l5.8,4.28a1.87,1.87,0,0,0,1,.47c.8,0,1.26-.87,1.74-1.52,1.15-1.55,3.34-2.15,4.29-3.83a.64.64,0,0,0,.11-.46c-.08-.28-.46-.34-.75-.34l-7.11,0a2,2,0,0,1-1-.17,1.67,1.67,0,0,1-.57-.58,6,6,0,0,1-1-3.66" fill="#314251"/></g><g opacity="0.2"><path d="M721.27,1498.33c.24,1.06-.37,2.09-.82,3.09s-.67,2.31.15,3a1.91,1.91,0,0,0,2.31,0,4,4,0,0,0,1.33-2.06,4.37,4.37,0,0,0,.2-2.5,2.18,2.18,0,0,0-1.73-1.66" fill="#314251"/></g><g opacity="0.2"><path d="M615.78,1395.93a7.85,7.85,0,0,1,4.67-10.53c1.49-.42,3.25-.47,4.24-1.65.81-1,.79-2.35,1-3.59s.92-2.66,2.18-2.73c2.06-.14,2.4,3,3.83,4.46a9.21,9.21,0,0,0,3,1.64c4.51,2.09,6.57,7.47,6.77,12.44.18,4.5-.69,9.47,1.92,13.14,2.08,2.93,6,4.34,7.58,7.55a3.06,3.06,0,0,1,.37,1.95,3.46,3.46,0,0,1-1.56,1.94,13.2,13.2,0,0,1-9,2.28,3,3,0,0,1-1.53-.5,3.32,3.32,0,0,1-.94-1.66c-2.69-8.59-2.34-17.89-5-26.49a2.72,2.72,0,0,0-.87-1.5,2.76,2.76,0,0,0-1.78-.3,38.14,38.14,0,0,0-13.66,3.55" fill="#314251"/></g><g opacity="0.2"><path d="M811.34,1485.59a1,1,0,0,1-1.86-.51c-.42-3.69-1-7.78.92-11.21.79-1.44,2.42-2.3,3.6-3.44l-1.68-32.35c-3.17,0-4.47,4-5.41,7-2.25,7.29-7.3,13.4-10.06,20.52a9.8,9.8,0,0,0-.78,3.23,20.84,20.84,0,0,0,.3,2.7,11.84,11.84,0,0,1-3.17,9.36c2.64.42,5.09-1.78,6.08-4.26s1-5.24,1.37-7.89a24.64,24.64,0,0,1,8.52-15.09c.32,3.66.63,7.31.94,11,.18,2.12.31,4.45-1,6.15-.75,1-1.9,1.63-2.72,2.57-2.43,2.79-1.25,7-.51,10.66,1.27,6.19,1.76,13.81-1.32,18.67,1.46,1.13,3.45-.79,3.78-2.61s.1-3.93,1.41-5.23c3,3.8,2.42,9.38.66,13.92s0,8.83-5.46,13.51c1.82.42,3.33-1.37,4.34-3l6.69-10.41L814.45,1479A22.89,22.89,0,0,1,811.34,1485.59Z" fill="#314251"/></g><path d="M800.54,1223.65l5.66,56.15s-67.06,9.28-180.87,13.77-226.51-13.77-226.51-13.77l4.64-34.94Z" fill="#fff" stroke="#262521" stroke-linecap="round" stroke-miterlimit="10" stroke-width="3"/><path d="M877.22,1043.63C873.39,987.76,854.34,919,854.34,919s-14.59-307-52.89-331.94c-10.88-7.1-142.29-56.21-142.29-56.21s-2.49,55-82.84,55c-65.09,0-82.1-39.23-86.22-51.38a11.08,11.08,0,0,1-.74-2.59c-1.05.65-100.94,62.69-145.44,89.5-44.74,27-26.68,324.28-26.68,324.28a619.73,619.73,0,0,0-3.6,128.12c5.53,68.42-1.88,179.2,14.45,197.94l61-1.5s-5.6-14.35-4.65-27c2.27-30.23,5.53-104.27,15.36-135.22s21.44-88.32,21.45-88.33c.48,23.68.29,42.23-1,50.32-3.59,21.92-31.66,102.79-17.77,133.08-3.34,29.28-5.69,57.35-5.69,57.35s71,13.9,148,13c137.52-1.66,264.08-24.63,264.08-24.63s-1.48-25.35-4.53-50.16c9.94-22.62-4.2-83.52-17.91-143,17.07,47.16,40.24,126.63,42.46,162.32,1.64,26.39,2.88,34.37,2.88,34.37h58.1s4.49-6.67,5.3-18.89S882.8,1124.89,877.22,1043.63Z" fill="#262521"/><path d="M489.37,531.26l0,0S489.38,531.23,489.37,531.26Z" fill="#262521" stroke="#262521" stroke-linecap="round" stroke-linejoin="round" stroke-width="3"/><path d="M824.27,641.43c-1.92-8.16-5-34-22.81-55-47-22.15-123.24-48.55-123.24-48.55l-.29,10.35L674,552.92l0,5.86-5.69,4.65.29,6-6,3.81-2.5,6.85-5.21,2.5-2.83,5.09-5.89,2.83L643.35,596l-6.45,1.25-3.47,4.42L626.37,603l-4.23,3.24-6.53,1.63-5.1,3-7-.56-4.44,3.55-6.55-2.07-5.66,2.49-6.16-2.14-6.3,2.59-5.9-3.12-5.86,1.93-5.8-2.67h-6l-5.32-2.5-6.8-.55-4.87-4.3-6.57.45-3.87-4.64-6.66-1.47-4.3-5.1-5.78-1L503.44,586l-6.19-2.84-2.72-5.77-5.81-3.3-1.81-5.37-5.33-3.88-1.64-6.62-4.9-3.88-2.39-12.08c-41.56,25.11-94.33,56.88-132,81.15-16.59,20.4-20.18,69.67-20.18,69.67l16.92,42.45L361,740.91l10.45,22.7L399,768.28l16.87,22.36,25.11-.22L458.71,810l29.34-3.11,20.19,17.08,27-4.57,22.6,14.19,23.85-10.82,25,8.42,21.89-13.23,25.77,4.57,20.17-15.64h26.45l15.83-20.51L741,784.2l15.67-24L783,754.9l9.32-24.53,26.28-8.9L833.05,702Z" fill="#7c7c7c"/><polygon points="568.17 710.71 582.01 689.76 591.19 710.21 619.1 709.14 593.43 722.07 608.27 728.9 584.06 729.42 566.91 744.48 566.67 733.37 551.22 734.9 562.89 723.53 544.19 710.36 568.17 710.71" fill="#262521" stroke="#bfbfaf" stroke-linecap="round" stroke-linejoin="round" stroke-width="2"/><polygon points="637.38 697.01 620.46 709.5 645.83 708.79 668.23 726.44 670.35 699.42 688.12 689.72 667.08 689.93 674.5 677.55 651.57 686.5 635.97 675.14 638.88 688.21 625.37 687.55 637.38 697.01" fill="#262521" stroke="#bfbfaf" stroke-linecap="round" stroke-linejoin="round" stroke-width="2"/><polygon points="524.98 699.18 542.58 710.7 517.21 711.42 495.84 730.3 492.19 703.45 473.9 694.77 494.92 693.78 486.81 681.85 510.22 689.49 525.14 677.27 522.98 690.48 536.42 689.06 524.98 699.18" fill="#262521" stroke="#bfbfaf" stroke-linecap="round" stroke-linejoin="round" stroke-width="2"/><polyline points="473.66 547.82 475.36 554.72 480.07 558.97 481.66 565.1 486.82 568.79 489.07 574.72 494.59 577.84 497.45 583.5 503.27 586.01 506.73 591.32 512.8 593.18 516.82 598.09 523.05 599.27 527.58 603.71 533.9 604.21 538.88 608.14 545.22 607.98 550.58 611.37 556.87 610.58 562.53 613.45 568.73 612.09 574.62 614.45 580.68 612.57 586.68 614.44 592.49 612.04 598.64 613.34 604.18 610.38 610.42 611.02 615.6 607.46 621.88 607.37 626.59 603.2 632.8 602.31 636.93 597.58 642.98 595.89 646.45 590.65 652.22 588.19 654.99 582.55 660.41 579.38 662.46 573.44 667.46 569.64 668.8 563.51 673.34 559.16 673.98 552.92 677.97 548.08 677.77 541.84" fill="none" stroke="#bfbfaf" stroke-linecap="round" stroke-linejoin="round" stroke-width="2"/><polyline points="435.6 570.4 433.33 580.37 442.56 584.99 441.86 595.28 451.61 598.67 452.18 608.97 462.27 611.16 464.07 621.32 474.35 622.29 477.35 632.16 487.67 631.92 491.8 641.37 502.02 639.95 507.19 648.88 517.19 646.34 523.27 654.67 532.97 651.13 539.84 658.84 549.16 654.41 556.69 661.47 565.61 656.28 573.67 662.72 582.18 656.87 590.89 662.7 599.1 656.18 608.28 661.24 615.87 654.01 625.49 658.16 632.3 650.2 642.31 653.3 648.19 644.63 658.49 646.55 663.29 637.24 673.75 637.9 677.37 628.07 687.83 627.42 690.19 617.21 700.49 615.27 701.59 604.86 711.58 601.69 711.44 591.22 720.99 586.9 719.61 576.52 728.56 571.07 725.71 561.08" fill="none" stroke="#bfbfaf" stroke-linecap="round" stroke-linejoin="round" stroke-width="4"/><polyline points="335.51 653.54 336.68 668.49 354.43 672.57 358.57 690.31 376.61 692.79 382.24 710.11 400.43 711.07 407.5 727.86 425.7 727.26 434.2 743.38 452.27 741.17 462.2 756.45 480 752.58 491.32 766.86 508.66 761.29 521.32 774.39 538.04 767.15 551.93 778.94 567.85 770.08 582.83 780.45 597.34 770.02 612.97 778.68 626.14 766.61 642.68 773.35 654.33 759.8 671.55 764.55 681.56 749.75 699.2 752.52 707.54 736.72 725.37 737.62 732.06 721.05 749.9 720.2 754.99 703.07 772.69 700.61 776.25 683.1 793.66 679.12 795.7 661.37 812.69 655.85 817.09 635.71" fill="none" stroke="#51504c" stroke-linecap="round" stroke-linejoin="round" stroke-width="4"/><polyline points="324.93 707.81 333.85 733.45 360.32 740.2 372.78 764.5 399.88 767.98 415.18 790.6 442.5 790.72 460.55 811.22 487.64 807.73 508.34 825.56 534.66 818.28 557.72 832.92 582.69 821.85 607.17 832.75 629.31 817.67 655.32 824.09 674.55 805.43 701.26 807.47 717.33 786.02 744.06 784.1 756.99 760.63 783.24 755.22 793.11 730.31 818.49 721.68 829.62 705.38" fill="none" stroke="#bfbfaf" stroke-linecap="round" stroke-linejoin="round" stroke-width="4"/><polyline points="721.51 651.5 698.63 648.55 708.11 668.86 689.06 689.28 715.63 678.3 711.1 694 727.32 676.01 741.32 674.07" fill="#262521" stroke="#bfbfaf" stroke-linecap="round" stroke-linejoin="round" stroke-width="2"/><polyline points="740.93 656.68 735.69 657.14 736.29 651.04" fill="none" stroke="#bfbfaf" stroke-linecap="round" stroke-linejoin="round" stroke-width="2"/><polyline points="442.09 658.12 460.17 654.45 452.17 675.39 472.65 694.4 445.36 685.36 451.01 700.68 433.54 683.91 421.62 683.13" fill="#262521" stroke="#bfbfaf" stroke-linecap="round" stroke-linejoin="round" stroke-width="2"/><polyline points="408 672.4 419.23 671.15 415.38 657.41" fill="none" stroke="#bfbfaf" stroke-linecap="round" stroke-linejoin="round" stroke-width="2"/><polyline points="725.12 653.32 726.42 649.66 718.42 628.28 728.9 632 732.95 617.02 739.44 631.96 758.39 619.15 749.55 641.45 764.23 661.82 741.85 663.14 739.74 669.4" fill="#262521" stroke="#bfbfaf" stroke-linecap="round" stroke-linejoin="round" stroke-width="2"/><polyline points="771.03 573.22 751.06 575.59 766.67 595.25 758.9 617.93 777.22 604.25 784.41 618.87 787.75 603.71 798.39 606.93 789.39 585.96 790.03 582.24" fill="#262521" stroke="#bfbfaf" stroke-linecap="round" stroke-linejoin="round" stroke-width="2"/><polyline points="433.7 665.64 432.94 663.22 440.94 641.84 430.46 645.56 426.41 630.57 419.92 645.51 400.97 632.71 409.81 655 395.14 675.38 417.51 676.7 419.26 683.6" fill="#262521" stroke="#bfbfaf" stroke-linecap="round" stroke-linejoin="round" stroke-width="2"/><polyline points="366.31 608.04 360.97 620.49 371.61 617.26 374.95 632.43 382.14 617.81 400.46 631.49 392.69 608.81 408.31 589.15 398.96 588.15" fill="#262521" stroke="#bfbfaf" stroke-linecap="round" stroke-linejoin="round" stroke-width="2"/><path d="M523.39,576.89S399,682.34,384.55,749.72l-1.26,50.56" fill="none" stroke="#636363" stroke-linecap="round" stroke-linejoin="round"/><path d="M633.43,576.16s133.28,89.2,145,170.32L783,788.3" fill="none" stroke="#636363" stroke-linecap="round" stroke-linejoin="round"/><path d="M877.23,1043c-3.83-55.87-22.88-124.63-22.88-124.63s-14.59-306.95-52.89-331.94c-10.88-7.1-142.29-56.21-142.29-56.21s-2.49,55-82.84,55c-65.08,0-82.1-39.23-86.21-51.38a10.79,10.79,0,0,1-.75-2.59c-1,.65-100.94,62.69-145.44,89.5C299.2,647.71,317.25,945,317.25,945a619.79,619.79,0,0,0-3.6,128.12c5.53,68.42-1.88,179.2,14.45,197.94l61-1.5s-5.6-14.35-4.65-27c2.27-30.22,5.53-104.27,15.36-135.22s21.45-88.31,21.45-88.33c.49,23.68.3,42.23-1,50.33-3.6,21.92-31.66,102.78-17.78,133.07-3.34,29.28-5.68,57.36-5.68,57.36s71,13.89,148,13c137.53-1.66,264.08-24.63,264.08-24.63s-1.48-25.34-4.52-50.16c9.94-22.62-4.2-83.52-17.92-143,17.07,47.16,40.25,126.63,42.46,162.33,1.64,26.39,2.89,34.36,2.89,34.36h58.1s4.48-6.67,5.3-18.89S882.81,1124.28,877.23,1043Z" fill="none" stroke="#262521" stroke-linecap="round" stroke-linejoin="round" stroke-width="3"/></svg>