<svg xmlns="http://www.w3.org/2000/svg" width="1250" height="1550" viewBox="0 0 1250 1550"><title>s03e07-01</title><path d="M406.44,1264.52s59.79,24.3,201.69,19.79S801,1248.13,801,1248.13l19,248.39c-209.13,38.46-397.54,3.9-397.54,3.9Z" fill="#262521" stroke="#262521" stroke-linecap="round" stroke-linejoin="round" stroke-width="3"/><path d="M421.22,1019s-11.62,57.38-21.45,88.33-13.09,105-15.36,135.22c-1,12.66,4.65,27,4.65,27l-61,1.5c-16.33-18.74-8.92-129.52-14.45-197.94A619.79,619.79,0,0,1,317.25,945S299.2,647.71,343.93,620.76s145.46-89.52,145.46-89.52-.24-.24.73,2.61c4.11,12.15,21.13,51.38,86.21,51.38,80.35,0,82.84-55,82.84-55s131.41,49.11,142.29,56.21c38.3,25,52.89,331.94,52.89,331.94s19,68.76,22.88,124.63c5.58,81.26,18.66,177.57,17.85,189.79s-5.3,18.89-5.3,18.89h-58.1s-1.25-8-2.89-34.36c-2.47-39.8-31-134-48.07-177.22" fill="#d8d8d8" stroke="#262521" stroke-linecap="round" stroke-linejoin="round" stroke-width="3"/><path d="M836,1220.48s30.63-3.83,52.36,0" fill="none" stroke="#636363" stroke-linecap="round" stroke-linejoin="round"/><path d="M325.27,1238s30.63-3.83,52.37,0" fill="none" stroke="#636363" stroke-linecap="round" stroke-linejoin="round"/><path d="M478,546.43s21.5,56.9,100.8,56.9,94.27-62,94.27-62" fill="none" stroke="#636363" stroke-linecap="round" stroke-linejoin="round"/><path d="M410.65,807.61s5.34,199.1,3.83,238.13c-.83,21.49-26.88,158.94-14.57,186.12,0,13-1.32,43-1.32,43s73.26,22.14,150.26,21.22c137.52-1.66,263.37-26.64,263.37-26.64s-6.69-30-7.46-43.63c14.49-25-20.49-181-22.29-250.9-1.22-47.59-16.09-167.28-16.09-167.28" fill="#d8d8d8" stroke="#262521" stroke-linecap="round" stroke-linejoin="round" stroke-width="3"/><path d="M410.89,1236.91S578.6,1271.1,793,1227.58" fill="none" stroke="#636363" stroke-linecap="round" stroke-linejoin="round"/><polygon points="682.07 544.74 694.45 529.55 695.13 549.13 682.07 544.74" fill="#636363" stroke="#262521" stroke-linecap="round" stroke-linejoin="round" stroke-width="1.21"/><polygon points="693.5 533.4 688.4 545.15 693.94 546.99 693.5 533.4" fill="#fff" opacity="0.6"/><polygon points="712.4 554.65 724.64 539.35 725.5 558.92 712.4 554.65" fill="#636363" stroke="#262521" stroke-linecap="round" stroke-linejoin="round" stroke-width="1.21"/><polygon points="723.73 543.2 718.74 555 724.3 556.78 723.73 543.2" fill="#fff" opacity="0.6"/><polygon points="772.22 577.99 786.55 564.62 784.57 584.12 772.22 577.99" fill="#636363" stroke="#262521" stroke-linecap="round" stroke-linejoin="round" stroke-width="1.21"/><polygon points="785.09 568.3 778.44 579.25 783.68 581.83 785.09 568.3" fill="#fff" opacity="0.6"/><polygon points="804.26 596.23 823.78 594.48 810.24 608.65 804.26 596.23" fill="#636363" stroke="#262521" stroke-linecap="round" stroke-linejoin="round" stroke-width="1.21"/><polygon points="820.37 596.49 808.39 601.05 810.95 606.3 820.37 596.49" fill="#fff" opacity="0.6"/><polygon points="816.3 627.97 835.79 630.02 819.77 641.3 816.3 627.97" fill="#636363" stroke="#262521" stroke-linecap="round" stroke-linejoin="round" stroke-width="1.21"/><polygon points="832.05 631.33 819.42 633.49 820.92 639.14 832.05 631.33" fill="#fff" opacity="0.6"/><polygon points="824.76 664.94 844.05 668.34 827.29 678.49 824.76 664.94" fill="#636363" stroke="#262521" stroke-linecap="round" stroke-linejoin="round" stroke-width="1.21"/><polygon points="840.24 669.39 827.49 670.67 828.59 676.41 840.24 669.39" fill="#fff" opacity="0.6"/><polygon points="832.05 707.88 851.22 711.93 834.13 721.5 832.05 707.88" fill="#636363" stroke="#262521" stroke-linecap="round" stroke-linejoin="round" stroke-width="1.21"/><polygon points="847.37 712.84 834.59 713.69 835.49 719.46 847.37 712.84" fill="#fff" opacity="0.6"/><polygon points="837.48 748.98 856.35 754.26 838.67 762.71 837.48 748.98" fill="#636363" stroke="#262521" stroke-linecap="round" stroke-linejoin="round" stroke-width="1.21"/><polygon points="852.45 754.93 839.64 754.95 840.16 760.76 852.45 754.93" fill="#fff" opacity="0.6"/><polygon points="842.19 792.29 861.15 797.23 843.63 806 842.19 792.29" fill="#636363" stroke="#262521" stroke-linecap="round" stroke-linejoin="round" stroke-width="1.21"/><polygon points="857.26 797.96 844.46 798.22 845.09 804.03 857.26 797.96" fill="#fff" opacity="0.6"/><polygon points="846.16 834.78 864.86 840.61 846.95 848.54 846.16 834.78" fill="#636363" stroke="#262521" stroke-linecap="round" stroke-linejoin="round" stroke-width="1.21"/><polygon points="860.94 841.16 848.14 840.81 848.5 846.64 860.94 841.16" fill="#fff" opacity="0.6"/><polygon points="848.59 877.29 867.22 883.37 849.2 891.06 848.59 877.29" fill="#636363" stroke="#262521" stroke-linecap="round" stroke-linejoin="round" stroke-width="1.21"/><polygon points="863.29 883.87 850.49 883.35 850.77 889.18 863.29 883.87" fill="#fff" opacity="0.6"/><polygon points="851.36 920.8 870.81 923.21 854.59 934.2 851.36 920.8" fill="#636363" stroke="#262521" stroke-linecap="round" stroke-linejoin="round" stroke-width="1.21"/><polygon points="867.05 924.45 854.38 926.38 855.77 932.06 867.05 924.45" fill="#fff" opacity="0.6"/><polygon points="860.96 962.34 880.29 965.57 863.62 975.86 860.96 962.34" fill="#636363" stroke="#262521" stroke-linecap="round" stroke-linejoin="round" stroke-width="1.21"/><polygon points="876.48 966.65 863.75 968.04 864.89 973.77 876.48 966.65" fill="#fff" opacity="0.6"/><polygon points="869.92 1007.58 889.12 1011.5 872.09 1021.19 869.92 1007.58" fill="#636363" stroke="#262521" stroke-linecap="round" stroke-linejoin="round" stroke-width="1.21"/><polygon points="885.27 1012.45 872.5 1013.38 873.44 1019.14 885.27 1012.45" fill="#fff" opacity="0.6"/><polygon points="875.02 1052.76 893.82 1058.26 876.05 1066.5 875.02 1052.76" fill="#636363" stroke="#262521" stroke-linecap="round" stroke-linejoin="round" stroke-width="1.21"/><polygon points="889.91 1058.88 877.1 1058.75 877.57 1064.57 889.91 1058.88" fill="#fff" opacity="0.6"/><polygon points="879.12 1105.01 898.06 1110.05 880.49 1118.72 879.12 1105.01" fill="#636363" stroke="#262521" stroke-linecap="round" stroke-linejoin="round" stroke-width="1.21"/><polygon points="894.16 1110.77 881.35 1110.95 881.96 1116.76 894.16 1110.77" fill="#fff" opacity="0.6"/><polygon points="884.36 1157.41 903.29 1162.46 885.72 1171.13 884.36 1157.41" fill="#636363" stroke="#262521" stroke-linecap="round" stroke-linejoin="round" stroke-width="1.21"/><polygon points="899.4 1163.17 886.59 1163.36 887.19 1169.17 899.4 1163.17" fill="#fff" opacity="0.6"/><polygon points="889.43 1201.74 908.36 1206.78 890.79 1215.45 889.43 1201.74" fill="#636363" stroke="#262521" stroke-linecap="round" stroke-linejoin="round" stroke-width="1.21"/><polygon points="904.47 1207.5 891.66 1207.68 892.26 1213.49 904.47 1207.5" fill="#fff" opacity="0.6"/><polygon points="741.86 565.7 755.17 551.32 754.62 570.91 741.86 565.7" fill="#636363" stroke="#262521" stroke-linecap="round" stroke-linejoin="round" stroke-width="1.21"/><polygon points="753.98 555.1 748.16 566.51 753.58 568.69 753.98 555.1" fill="#fff" opacity="0.6"/><polygon points="461.68 552.26 445.95 540.57 450.09 559.72 461.68 552.26" fill="#636363" stroke="#262521" stroke-linecap="round" stroke-linejoin="round" stroke-width="1.21"/><polygon points="447.81 544.07 455.64 554.21 450.71 557.35 447.81 544.07" fill="#fff" opacity="0.6"/><polygon points="428.9 572.48 413.46 560.42 417.14 579.67 428.9 572.48" fill="#636363" stroke="#262521" stroke-linecap="round" stroke-linejoin="round" stroke-width="1.21"/><polygon points="415.24 563.96 422.82 574.29 417.82 577.31 415.24 563.96" fill="#fff" opacity="0.6"/><polygon points="370.48 609.53 355.13 597.35 358.67 616.62 370.48 609.53" fill="#636363" stroke="#262521" stroke-linecap="round" stroke-linejoin="round" stroke-width="1.21"/><polygon points="356.88 600.9 364.38 611.29 359.36 614.27 356.88 600.9" fill="#fff" opacity="0.6"/><polygon points="338.43 630.55 318.84 630.17 333.33 643.36 338.43 630.55" fill="#636363" stroke="#262521" stroke-linecap="round" stroke-linejoin="round" stroke-width="1.21"/><polygon points="322.39 631.93 334.64 635.65 332.46 641.06 322.39 631.93" fill="#fff" opacity="0.6"/><polygon points="326.79 669.88 307.61 673.92 324.7 683.51 326.79 669.88" fill="#636363" stroke="#262521" stroke-linecap="round" stroke-linejoin="round" stroke-width="1.21"/><polygon points="311.46 674.84 324.24 675.7 323.33 681.47 311.46 674.84" fill="#fff" opacity="0.6"/><polygon points="320.59 715.93 301.97 722.05 320.01 729.71 320.59 715.93" fill="#636363" stroke="#262521" stroke-linecap="round" stroke-linejoin="round" stroke-width="1.21"/><polygon points="305.9 722.54 318.7 722 318.43 727.83 305.9 722.54" fill="#fff" opacity="0.6"/><polygon points="318.44 759.73 299.89 766.04 318 773.5 318.44 759.73" fill="#636363" stroke="#262521" stroke-linecap="round" stroke-linejoin="round" stroke-width="1.21"/><polygon points="303.82 766.49 316.61 765.81 316.4 771.64 303.82 766.49" fill="#fff" opacity="0.6"/><polygon points="317.59 805.03 299.32 812.1 317.73 818.81 317.59 805.03" fill="#636363" stroke="#262521" stroke-linecap="round" stroke-linejoin="round" stroke-width="1.21"/><polygon points="303.27 812.39 316.02 811.18 316.05 817.02 303.27 812.39" fill="#fff" opacity="0.6"/><polygon points="317.25 844.22 298.86 850.97 317.15 858 317.25 844.22" fill="#636363" stroke="#262521" stroke-linecap="round" stroke-linejoin="round" stroke-width="1.21"/><polygon points="302.8 851.33 315.57 850.34 315.5 856.18 302.8 851.33" fill="#fff" opacity="0.6"/><polygon points="318.42 884.27 300.23 891.55 318.71 898.05 318.42 884.27" fill="#636363" stroke="#262521" stroke-linecap="round" stroke-linejoin="round" stroke-width="1.21"/><polygon points="304.18 891.79 316.92 890.44 317.02 896.28 304.18 891.79" fill="#fff" opacity="0.6"/><polygon points="319.78 923.83 301.42 930.67 319.74 937.61 319.78 923.83" fill="#636363" stroke="#262521" stroke-linecap="round" stroke-linejoin="round" stroke-width="1.21"/><polygon points="305.36 931 318.13 929.96 318.09 935.8 305.36 931" fill="#fff" opacity="0.6"/><polygon points="318.46 961.91 299.74 967.69 317.63 975.67 318.46 961.91" fill="#636363" stroke="#262521" stroke-linecap="round" stroke-linejoin="round" stroke-width="1.21"/><polygon points="303.66 968.25 316.46 967.94 316.09 973.77 303.66 968.25" fill="#fff" opacity="0.6"/><polygon points="315.6 999.04 296.92 1004.93 314.86 1012.8 315.6 999.04" fill="#636363" stroke="#262521" stroke-linecap="round" stroke-linejoin="round" stroke-width="1.21"/><polygon points="300.84 1005.47 313.64 1005.07 313.3 1010.9 300.84 1005.47" fill="#fff" opacity="0.6"/><polygon points="315.26 1038.99 297.03 1046.18 315.48 1052.77 315.26 1038.99" fill="#636363" stroke="#262521" stroke-linecap="round" stroke-linejoin="round" stroke-width="1.21"/><polygon points="300.98 1046.44 313.73 1045.15 313.8 1050.99 300.98 1046.44" fill="#fff" opacity="0.6"/><polygon points="317.25 1081.13 299.2 1088.77 317.81 1094.9 317.25 1081.13" fill="#636363" stroke="#262521" stroke-linecap="round" stroke-linejoin="round" stroke-width="1.21"/><polygon points="303.15 1088.93 315.87 1087.33 316.08 1093.16 303.15 1088.93" fill="#fff" opacity="0.6"/><polygon points="318.58 1127.04 300.48 1134.56 319.05 1140.82 318.58 1127.04" fill="#636363" stroke="#262521" stroke-linecap="round" stroke-linejoin="round" stroke-width="1.21"/><polygon points="304.44 1134.75 317.16 1133.23 317.33 1139.07 304.44 1134.75" fill="#fff" opacity="0.6"/><polygon points="319.88 1174.57 301.66 1181.77 320.11 1188.35 319.88 1174.57" fill="#636363" stroke="#262521" stroke-linecap="round" stroke-linejoin="round" stroke-width="1.21"/><polygon points="305.61 1182.03 318.35 1180.73 318.42 1186.57 305.61 1182.03" fill="#fff" opacity="0.6"/><polygon points="321.36 1220.51 303.28 1228.08 321.87 1234.28 321.36 1220.51" fill="#636363" stroke="#262521" stroke-linecap="round" stroke-linejoin="round" stroke-width="1.21"/><polygon points="307.24 1228.26 319.95 1226.7 320.14 1232.53 307.24 1228.26" fill="#fff" opacity="0.6"/><polygon points="400.16 590.64 384.27 579.17 388.68 598.26 400.16 590.64" fill="#636363" stroke="#262521" stroke-linecap="round" stroke-linejoin="round" stroke-width="1.21"/><polygon points="386.18 582.64 394.15 592.67 389.27 595.88 386.18 582.64" fill="#fff" opacity="0.6"/></svg>