<svg xmlns="http://www.w3.org/2000/svg" width="1250" height="1550" viewBox="0 0 1250 1550"><defs><clipPath id="a"><path d="M767.14 804.3l-356.49 11.08s-34-169.75-66.72-194.62c60.36-38.06 96.22-60.84 149.37-91.67 1.44-.83 11.39 51.92 89.86 52.16C655.44 581.47 655 529 655 529c57.39 19.5 88.17 33.37 146.43 57.44-27.16 33.15-34.29 217.86-34.29 217.86z" fill="none"/></clipPath></defs><path d="M421.22 1019s-11.62 57.38-21.45 88.33-13.09 105-15.36 135.22c-1 12.66 4.65 27 4.65 27l-61 1.5c-16.33-18.74-8.92-129.52-14.45-197.94A619.79 619.79 0 01317.25 945s-18.05-297.29 26.68-324.24 148.41-94.52 149.37-91.67c4.12 12.15 19.69 50.63 84.76 52.13C653.4 583 655 529 655 529s135.55 50.34 146.43 57.44c38.3 25 52.89 331.94 52.89 331.94s19 68.76 22.88 124.63c5.58 81.26 18.66 177.57 17.85 189.79s-5.3 18.89-5.3 18.89h-58.1s-1.25-8-2.89-34.36c-2.47-39.8-31-134-48.07-177.22" fill="#fff"/><g clip-path="url(#a)"><path fill="#a3a3a3" d="M278.46 499.224l552.532-20.453 12.87 347.682-552.53 20.453z"/><path fill="#262521" d="M252.056 592.138l623.842-23.093 1.02 27.551-623.843 23.093zM250.016 536.971l623.843-23.093 1.02 27.551-623.843 23.094zM256.112 701.883l623.843-23.093 1.02 27.551-623.843 23.093zM258.119 755.882L881.96 732.79l1.02 27.551-623.843 23.094zM253.287 625.166l623.843-23.093.173 4.697-623.842 23.093z"/><path fill="#fff" opacity=".6" d="M343.386 515.719l11.248 303.872-17.907.663-11.25-303.872zM515.508 509.346l11.249 303.872-17.908.663L497.6 510.009zM430.184 512.51l11.249 303.873-17.908.663-11.249-303.872zM602.442 506.138l11.249 303.872-17.908.662-11.249-303.871zM773.837 499.796l11.25 303.872-17.909.663-11.248-303.872zM690.05 502.898L701.3 806.77l-17.908.663-11.248-303.872z"/><path fill="#262521" d="M371.839 514.666l11.249 303.872-28.45 1.053-11.25-303.871zM382.331 514.268L393.58 818.14l-4.847.179-11.249-303.872zM497.598 510.008l11.248 303.872-28.45 1.053-11.249-303.872zM463.502 511.27l11.248 303.873-4.846.18-11.249-303.873zM543.951 508.293l11.25 303.872-28.451 1.053-11.25-303.871zM554.454 507.914l11.249 303.872-4.847.18-11.249-303.872zM672.14 503.56l11.249 303.872-28.451 1.053-11.249-303.872zM638.044 504.813l11.248 303.872-4.846.179-11.25-303.872zM718.504 501.845l11.248 303.872-28.45 1.053-11.249-303.872zM730.295 503.811l12.163 304.08-4.85.194-12.163-304.08z"/><path fill="#262521" d="M255.723 691.32l623.842-23.093.174 4.697-623.843 23.093z"/><path fill="#fff" opacity=".6" d="M251.034 564.515l623.843-23.093 1.02 27.55-623.843 23.094zM257.131 729.437l623.843-23.093.979 26.442-623.843 23.093z"/><path d="M884.35 705.48a35.29 35.29 0 00-23.22-2.25c-3.9 1-7.69 3.65-11.83 2.82-1.94-.39-3.79-1.13-5.71-1.57a31.7 31.7 0 00-6.37-.77 30.64 30.64 0 00-12 2.21c-1.85.76-3.68 1.78-5.7 2a12.6 12.6 0 01-5.24-.64c-3.31-1-6.34-2.72-9.6-3.88a20.45 20.45 0 00-10.14-1c-7.46 1.18-15.14 6.66-22.84 4.37a1.7 1.7 0 00-2.14.91l-8.56-1.36-13.29-2.12a120.77 120.77 0 00-13-1.75 22.7 22.7 0 00-11.34 2.2c-3.61 1.78-6.69 4.26-10.71 5.19s-8.61.95-12.84 1-8.43 0-12.63-.26a191.88 191.88 0 01-25.8-3.87 58.12 58.12 0 00-12.33-1.4 44.73 44.73 0 00-11.93 2.09c-7.76 2.32-15.17 5.7-23.39 6.1-8.69.42-17.42-1.09-26.09-1.52a246.12 246.12 0 00-59.1 4.29l-30.36-2.24c-9.38-.69-18.86-1.48-28.18.22a47.82 47.82 0 00-6.46 1.66c-2.23.75-4.48 1.7-6.88 1.61-2.18-.07-4.27-.87-6.37-1.34a30.47 30.47 0 00-7-.71c-4.63.05-9.17 1-13.74 1.6a57.52 57.52 0 01-14 .1c-4.6-.5-9.13-.94-13.73-.19a78.55 78.55 0 00-12.76 3.6c-4.35 1.48-8.76 2.92-13.39 3.26a34.58 34.58 0 01-13.91-1.84c-7.24-2.48-15.89-7-23.24-2.24-1.55 1-2.82 2.32-4.26 3.43a7.46 7.46 0 01-6.24 1.5c-4.34-.69-8.62-1.91-12.94-2.73-18.87-3.57-39.42-4.78-56.79 4.64a1.66 1.66 0 00-.66 2.44h-.55v.41L881 706.39l.07 1.85c.49.19 1 .4 1.45.62 2.25 1.07 4.13-2.32 1.83-3.38zM444.16 551.31a28.18 28.18 0 00-4.5-.63q-3.56 3.65-7.26 7.14l308.52-11.4c-4.43-3-9-5.84-13.44-8.91a22.18 22.18 0 00-10.22 2.22c-3.61 1.78-6.68 4.26-10.7 5.19s-8.62 1-12.85 1-8.43 0-12.63-.26a191.88 191.88 0 01-25.8-3.87 58.12 58.12 0 00-12.33-1.4 44.8 44.8 0 00-11.95 2.13c-7.76 2.32-15.16 5.7-23.39 6.1-8.69.42-17.42-1.09-26.08-1.52a246.08 246.08 0 00-59.1 4.29l-30.36-2.24c-9.38-.69-18.85-1.48-28.18.22a47.82 47.82 0 00-6.46 1.66c-2.23.75-4.48 1.7-6.88 1.61-2.19-.06-4.29-.86-6.39-1.33z" fill="#fff" opacity=".4"/><path fill="#fff" opacity=".6" d="M254.313 653.202l623.843-23.093.536 14.49-623.842 23.093zM260.075 808.523l623.843-23.093.536 14.49-623.843 23.093z"/><path d="M391.47 823.16c12.16-6.21 21.79-13 32.46-21.45 12.13-9.56 26-13.65 41.42-16 17.75-2.74 18.18-1 32.22-11.86 3.16-2.46 6.06-5.43 9.86-6.8 6.88-2.5 15.05-4.81 20.64-9.43 2.36-2 3.57-4.92 5.79-7 5.34-5.07 21.59-5.66 21.59-5.66l84.18-3.12s30.87 25.28 47.52 28.16c8.59 1.5 21.32-1 29.18 2.66 10.71 5 8.65 8.18 20.54 8.52 8.06.23 43.69 22.84 37 23.08-33.19 1.17-382.37 18.86-382.37 18.86" fill="#fff" opacity=".84"/><path d="M522.43 850.82l-.69-21.35a18.26 18.26 0 00-.62-5 28 28 0 00-1.46-3.33c-3-6.46-3.24-13.76-3.43-20.84a29.3 29.3 0 01.77-9.44 24.22 24.22 0 015.1-8.42 62.28 62.28 0 0123.42-16.87c3.37-1.39 6.89-2.5 10-4.35s5.89-4.62 6.7-8.08c.45-2 .48-4.4 2.29-5.39a22.92 22.92 0 003.52-3.37l61.27-2.27s12.21 21.58 18.46 28.24a44.4 44.4 0 017.34 11.44 99.17 99.17 0 019.52 47 10.44 10.44 0 01-1 4.78c-1.37 2.36-4.25 3.43-6.94 4.19a88.25 88.25 0 01-25.36 3.29" fill="#fff"/><path fill="#fff" d="M576.527 717.606l51.824-1.919.979 26.442-51.825 1.919z"/></g><path d="M421.22 1019s-11.62 57.38-21.45 88.33-13.09 105-15.36 135.22c-1 12.66 4.65 27 4.65 27l-61 1.5c-16.33-18.74-8.92-129.52-14.45-197.94A619.79 619.79 0 01317.25 945s-18.05-297.29 26.68-324.24 148.41-94.52 149.37-91.67c4.12 12.15 19.69 50.63 84.76 52.13C653.4 583 655 529 655 529s135.55 50.34 146.43 57.44c38.3 25 52.89 331.94 52.89 331.94s19 68.76 22.88 124.63c5.58 81.26 18.66 177.57 17.85 189.79s-5.3 18.89-5.3 18.89h-58.1s-1.25-8-2.89-34.36c-2.47-39.8-31-134-48.07-177.22" fill="none" stroke="#262521" stroke-linecap="round" stroke-linejoin="round" stroke-width="3"/><path d="M836 1220.48s30.63-3.83 52.36 0M325.27 1238s30.63-3.83 52.37 0M478 546.43s21.5 56.9 100.8 56.9 94.27-62 94.27-62" fill="none" stroke="#636363" stroke-linecap="round" stroke-linejoin="round"/><path d="M803 1225.79s9.18 34.21 6.13 45.9-62.43-5.22-174.82 13.26c-114 18.74-231.65 7.83-235.53-3s4.9-56.15 4.9-56.15z" fill="#fff" stroke="#262521" stroke-linecap="round" stroke-miterlimit="10" stroke-width="3"/><path d="M410.65 807.61s5.34 199.1 3.83 238.13c-.83 21.49-23.3 121.8-11 149 0 13-6.32 43-6.32 43s73.26 22.14 150.25 21.21c137.53-1.65 263.37-26.63 263.37-26.63s-6.68-30-7.46-43.64c14.5-25-19.07-143.81-20.87-213.76-1.22-47.59-16.09-167.28-16.09-167.28" fill="#fff" stroke="#262521" stroke-linecap="round" stroke-linejoin="round" stroke-width="3"/><path d="M414.48 1199.78S580 1230.3 787.63 1195" fill="none" stroke="#636363" stroke-linecap="round" stroke-linejoin="round"/></svg>