<svg xmlns="http://www.w3.org/2000/svg" width="1250" height="1550" viewBox="0 0 1250 1550"><defs><clipPath id="a"><path d="M877.22 1043c-3.84-55.87-22.89-124.63-22.89-124.63s-14.58-307-52.88-331.94C790.57 579.32 663 530.7 663 530.7s-6.65-31.34-14.63-30.18c-9.44 1.38-32 34.6-75.25 34.6s-72.84-32.95-72.84-32.95c-7.2-.67-13.69 23.11-12.79 30-9.1 4.94-98.86 61.61-143.6 88.56S317.24 945 317.24 945a619.73 619.73 0 00-3.6 128.12c5.52 68.42-1.88 179.2 14.45 197.93l61-1.5s-5.61-14.34-4.66-27c2.28-30.22 5.54-104.26 15.36-135.21 4.76-15 9.94-36.17 14-54-4.31 36.75-26.37 161.14-15.06 186.11 0 13 1 44.83 1 44.83s35.46 23.25 90.75 19c9.18-.71 223.75-8.53 233.07-9.54s85-12.36 85-12.36.07-30.33-.71-43.93c9.18-15.85-2.76-88.91-13.21-158.13 15.45 46.74 32.21 107.93 34.08 138 1.63 26.39 2.88 34.36 2.88 34.36h58.1s4.49-6.66 5.3-18.88-12.2-108.54-17.77-189.8z" fill="none"/></clipPath><clipPath id="b"><path fill="none" d="M769.8 844.9l-359.16 31.41V727.9l343.38-43.21L769.8 844.9z"/></clipPath><clipPath id="c"><path transform="rotate(-4.49 829.234 763.554)" fill="none" d="M762.71 699.95h133.78v127.72H762.71z"/></clipPath><clipPath id="d"><path fill="none" d="M277.99 862.28l133.74 3.06-2.8-133.69-133.75 2.94 2.81 127.69z"/></clipPath><clipPath id="e"><path fill="none" d="M812.74 1205.66l-424.77 20.9 11.31-102.04 399.2-25.2 14.26 106.34z"/></clipPath><clipPath id="f"><path fill="none" d="M897.31 1167.03l-82.81 3.24-18.29-81.02 92.69-7.82 8.41 85.6z"/></clipPath></defs><path fill="#eeeee9" stroke="#262521" stroke-linecap="round" stroke-linejoin="round" stroke-width="3" d="M649.44 500.48l-11.18-4.03.65 10.1 10.53-6.07z"/><g clip-path="url(#a)"><path fill="#eeeee9" d="M175.842 494.943l777.726-61.072 68.36 870.54-777.726 61.072z"/><path fill="none" stroke="#813b4a" stroke-linecap="round" stroke-linejoin="round" stroke-width="14.02" d="M395.66 1143.28l-26.1-35.11-26.25 34.99-26.1-35.1-26.25 34.99-26.1-35.11"/><path fill="none" stroke="#262521" stroke-linecap="round" stroke-linejoin="round" stroke-width="12.27" d="M395.62 1160.81l-26.1-35.11-26.25 34.99-26.09-35.11-26.26 34.99-26.1-35.11"/><g clip-path="url(#b)" fill="none" stroke-linecap="round" stroke-linejoin="round"><path stroke="#813b4a" stroke-width="14.02" d="M375.67 796.63l31.85 32.66 26.37-37.23 31.85 32.66 26.36-37.23 31.86 32.66 26.36-37.23 31.85 32.66 26.36-37.23 31.86 32.66 26.36-37.23 31.86 32.66 26.37-37.23 31.86 32.66 26.37-37.23 31.86 32.66"/><path stroke="#262521" stroke-width="12.27" d="M376.97 813.23l31.8 32.66 26.3-37.22 31.8 32.66 26.3-37.22 31.8 32.66 26.31-37.22 31.79 32.66 26.3-37.22 31.79 32.66 26.32-37.22 31.79 32.66 26.32-37.22 31.79 32.66 26.32-37.22 31.8 32.66"/></g><path d="M410.64 807.59s5.34 199.1 3.82 238.13c-.83 21.49-28.06 166.52-15.75 193.7 0 13 1 44.83 1 44.83s35.46 23.25 90.75 19c9.18-.71 223.75-8.53 233.07-9.54s85-12.36 85-12.36.07-30.33-.71-43.93c14.5-25-23.65-192.6-25.45-262.56-1.22-47.58-16.1-167.27-16.1-167.27" fill="none" stroke="#262521" stroke-linecap="round" stroke-linejoin="round" stroke-width="3"/><g clip-path="url(#c)" fill="none" stroke-linecap="round" stroke-linejoin="round"><path stroke="#813b4a" stroke-width="14.02" d="M756.49 780.01l39.34 16.83 2.34-42.72 39.34 16.82 2.35-42.72 39.34 16.82"/><path stroke="#262521" stroke-width="12.27" d="M765.74 794.9l39.33 16.82 2.35-42.72 39.34 16.83 2.35-42.72 39.34 16.82"/></g><g clip-path="url(#d)" fill="none" stroke-linecap="round" stroke-linejoin="round"><path stroke="#813b4a" stroke-width="14.02" d="M423.58 844.34L415 801.15l-39.33 19.8-8.59-43.19-39.33 19.8-8.59-43.2"/><path stroke="#262521" stroke-width="12.27" d="M415.87 860.08l-8.58-43.19-39.34 19.8-8.58-43.19-39.33 19.8-8.59-43.2"/></g><path d="M306.11 707.78S435.83 741 593.45 728.61 870.79 665 870.79 665" fill="none" stroke="#262521" stroke-miterlimit="10" stroke-width="19.28" stroke-dasharray="26.29 8.76"/><path fill="none" stroke="#813b4a" stroke-linecap="round" stroke-linejoin="round" stroke-width="14.02" d="M851.73 623.03l-32.93-27.05-14.25 40.1-32.03-28.02-15.3 39.72-31.27-28.87-16.42 39.27-30.37-29.82-17.77 38.68-29.16-31-19.55 37.82-27.37-32.58-21.64 36.43-24.89-34.31-23.65 35.17-23.26-35.44-25.05 34.18-21.98-36.24-26.14 33.36-20.9-36.87-27.05 32.62-19.88-37.43-28.13 31.79"/><path d="M322.52 608.49l7.3-5.48s161 19.32 253.43 12.06c115.78-9.09 231-44 231-44s22 20.13 25.59 31.36-23.48-3.83-23.48-3.83l-15 29.74-28.89-20.32-13.58 34.2-31-23.37-20.82 31.59-28-22.12L662 662.06l-29.79-26-21.61 31.7-23.6-27.27-23.65 33.2-26.13-29-21.14 31.07-22.56-32.91-26.13 27.55-25.24-24.65-22.25 23.94-23.85-31.27-23.5 23.58-24.4-23.25-25.27 18.95-18.25-21.46z" fill="#813b4a"/><path d="M298.54 604.88s139.22 31.44 287.06 19.83c157.61-12.37 279.7-60.87 279.7-60.87" fill="none" stroke="#262521" stroke-miterlimit="10" stroke-width="19.28" stroke-dasharray="26.29 8.76"/><path fill="none" stroke="#262521" stroke-linecap="round" stroke-linejoin="round" stroke-width="3.51" stroke-dasharray="26.29 8.76" d="M601.3 588.55l3.04 2.59 2.53-2.96M592.41 581.64l3.03 2.59 2.53-2.96M610.18 593.66l3.03 2.59 2.53-2.96M619.34 598.64l3.03 2.59 2.53-2.96M628.1 603.34l3.03 2.59 2.53-2.96M566.76 592.68l3.03 2.59 2.53-2.96M575.63 597.79l3.03 2.59 2.53-2.96M549.68 580.29l3.03 2.59 2.53-2.96M558.55 585.4l3.03 2.6 2.53-2.96M584.79 602.77l3.03 2.59 2.53-2.96M593.55 607.47l3.03 2.59 2.53-2.96M389.38 588.97l3.04 2.59 2.53-2.96M397.38 594.15l3.04 2.59 2.53-2.96M405.67 599.2l3.03 2.59 2.53-2.96M414.5 604.77l3.03 2.59 2.53-2.96M372.17 596.58l3.03 2.59 2.53-2.96M380.99 602.15l3.04 2.6 2.53-2.97M634.1 584.56l3.03 2.59 2.53-2.96M642.98 589.67l3.03 2.59 2.53-2.96M616.26 572.92l3.03 2.59 2.53-2.96M625.13 578.03l3.03 2.59 2.53-2.96M652.13 594.65l3.04 2.59 2.53-2.96M660.89 599.35l3.04 2.59 2.53-2.96M667.75 577.18l3.04 2.59 2.53-2.96M676.63 582.29l3.03 2.6 2.53-2.97M649.39 564.68l3.03 2.59 2.53-2.96M641.54 557.98l3.04 2.6 2.53-2.97M658.26 569.79l3.03 2.59 2.53-2.96M685.79 587.27l3.03 2.59 2.53-2.96M694.55 591.97l3.03 2.59 2.53-2.96M765.9 555.37l3.03 2.59 2.53-2.96M774.77 560.49l3.03 2.59 2.53-2.96M783.93 565.46l3.03 2.6 2.53-2.97M792.69 570.16l3.03 2.59 2.53-2.96M703.13 570.16l3.03 2.59 2.54-2.96M693.32 565.16l3.04 2.59 2.53-2.96M685 559.74l3.03 2.59 2.53-2.96M675.38 552.93l3.04 2.59 2.53-2.96M667.06 547.51l3.04 2.59 2.53-2.96M712 575.27l3.04 2.59 2.53-2.96M721.16 580.25l3.04 2.59 2.53-2.96M729.92 584.95l3.04 2.59 2.53-2.96M734.84 562.74l3.03 2.59 2.53-2.96M725.03 557.75l3.03 2.59 2.53-2.96M716.71 552.32l3.03 2.59 2.53-2.96M743.71 567.85l3.03 2.6 2.53-2.97M752.87 572.83l3.03 2.59 2.53-2.96M761.63 577.53l3.03 2.59 2.53-2.96M462.83 593.5l3.04 2.6 2.53-2.97M453.02 588.51l3.04 2.59 2.53-2.96M444.7 583.08l3.04 2.59 2.53-2.96M426.65 592.86l3.04 2.59 2.53-2.96M416.85 587.86l3.03 2.59 2.53-2.96M408.52 582.43l3.04 2.59 2.53-2.96M435.53 597.97l3.03 2.59 2.53-2.96M444.69 602.95l3.03 2.59 2.53-2.96M453.45 607.65l3.03 2.59 2.53-2.96M436.39 576.96l3.04 2.59 2.53-2.96M428.62 571.06l3.03 2.59 2.53-2.96M471.71 598.62l3.03 2.59 2.53-2.96M480.87 603.6l3.03 2.59 2.53-2.96M489.63 608.29l3.03 2.59 2.53-2.96M496.16 594.61l3.03 2.59 2.53-2.96M486.35 589.62l3.03 2.59 2.54-2.96M478.03 584.19l3.03 2.59 2.53-2.96M469.72 578.07l3.03 2.59 2.53-2.96M461.13 571.8l3.03 2.59 2.53-2.96M452.96 565.76l3.03 2.59 2.53-2.96M505.03 599.73l3.04 2.59 2.53-2.96M514.19 604.7l3.04 2.6 2.53-2.96M522.95 609.4l3.04 2.59 2.53-2.96M530.24 594.15l3.03 2.59 2.53-2.96M520.43 589.16l3.04 2.59 2.53-2.96M512.11 583.73l3.03 2.59 2.53-2.96M503.8 577.6l3.03 2.6 2.54-2.96M495.21 571.34l3.04 2.59 2.52-2.96M487.04 565.3l3.03 2.59 2.53-2.96M478.83 558.33l3.04 2.59 2.53-2.96M470.66 552.29l3.03 2.59 2.53-2.96M539.12 599.26l3.03 2.6 2.53-2.97M548.28 604.24l3.03 2.6 2.53-2.97M557.03 608.94l3.04 2.59 2.53-2.96"/><g clip-path="url(#e)" fill="none" stroke-linecap="round" stroke-linejoin="round"><path stroke="#813b4a" stroke-width="14.24" d="M395.1 1147.62l33.43 33.79 30.7-36.29 33.43 33.79 30.71-36.28 33.43 33.78 30.7-36.28 33.43 33.78 30.7-36.28 33.44 33.78 30.7-36.28 33.44 33.79 30.71-36.29 33.44 33.79"/><path stroke="#262521" stroke-width="12.46" d="M396.4 1164.22l33.43 33.78 30.7-36.28 33.43 33.79 30.71-36.29 33.43 33.79 30.7-36.28 33.43 33.78 30.71-36.28 33.43 33.78 30.71-36.28 33.43 33.78 30.71-36.28 33.44 33.79"/></g><g clip-path="url(#f)" fill="none" stroke-linecap="round" stroke-linejoin="round"><path stroke="#813b4a" stroke-width="14.02" d="M794.86 1108.16l29.97 30.53 18.43-38.61 29.98 30.54 18.43-38.61 29.97 30.53"/><path stroke="#262521" stroke-width="12.27" d="M797.75 1125.44l29.97 30.54 18.43-38.61 29.97 30.53 18.44-38.61 29.97 30.54"/></g></g><path fill="#eeeee9" stroke="#262521" stroke-linecap="round" stroke-linejoin="round" stroke-width="3" d="M500.31 502.17l10.23-1.15-.47 8.12"/><path d="M413.77 1053.31c-4.08 17.87-9.26 39-14 54-9.82 31-13.08 105-15.36 135.21-.95 12.67 4.66 27 4.66 27l-61 1.5c-16.33-18.73-8.93-129.51-14.45-197.93A619.73 619.73 0 01317.24 945s-18.06-297.33 26.67-324.28 134.5-83.62 143.6-88.56c-.9-6.9 5.59-30.68 12.79-30 0 0 29.62 32.95 72.84 32.95s65.81-33.22 75.25-34.6c8-1.16 14.63 30.18 14.63 30.18s127.55 48.62 138.43 55.73c38.3 25 52.88 331.94 52.88 331.94s19 68.76 22.89 124.63c5.57 81.26 18.66 177.57 17.84 189.79s-5.3 18.88-5.3 18.88h-58.1s-1.25-8-2.88-34.36c-1.87-30.08-18.63-91.29-34.08-138" fill="none" stroke="#262521" stroke-linecap="round" stroke-linejoin="round" stroke-width="3"/><path d="M410.64 793.36s5.34 213.33 3.82 252.36c-.83 21.49-28.06 166.52-15.75 193.7 0 13 1 44.83 1 44.83s35.46 23.25 90.75 19c9.18-.71 223.75-8.53 233.07-9.54s85-12.36 85-12.36.07-30.33-.71-43.93c14.5-25-23.65-192.6-25.45-262.56-1.22-47.58-19.57-201-19.57-201" fill="none" stroke="#262521" stroke-linecap="round" stroke-linejoin="round" stroke-width="3"/><path fill="none" stroke="#d5d5d1" stroke-linecap="round" stroke-linejoin="round" stroke-width="6" d="M869.95 1214.65v29.47M854.25 1214.72l.84 29.33M884.87 1214.53l-1.9 29.71M839.58 1214.91l2.74 28.95M359.54 1233.66l1.98 29.4M345.18 1234.37l3.05 28.75M330.24 1234.48l3.88 29.51M373.63 1233.6l.21 29.06M608.67 1257.66l1.78 33.63M628.16 1256.42l1.78 33.62M647.66 1255.93l1.79 33.62M667.17 1255.19l1.78 33.63M686.66 1254.51l1.78 33.63M706.16 1254.02l1.78 33.63M723.45 1252.57l.89 33.63M742.05 1248.92V1285M472.96 1261.15l1 36.09M492.6 1260.13l1 36.09M511.67 1261.13l1.79 33.63M530.69 1260.57l1.78 33.63M412.01 1246.06l.01 35.03M432.07 1251.99l-.5 38.17M452.44 1258.36v36.08M550.19 1260.08l1.78 33.63M569.64 1258.95l1.78 33.63M589.24 1258.19l1.78 33.63M761.05 1246.3l.22 36.07M779.81 1243.05l-.16 36.02M796.36 1240.15l1.05 36.06M570.57 543.99v25.5M588.53 543.19l1.32 25.47M604.41 538.93l4.26 25.15M617.12 533.08l9.11 23.32M630.56 525.28l10.34 22.1M552.38 541.96l-1.32 25.47M535.17 536.83l-5.76 25.14M520.14 529.87l-9.1 23.82M506.8 521.67l-11.1 22.82M643.85 515.27l10.58 22.85"/></svg>