<svg xmlns="http://www.w3.org/2000/svg" width="1250" height="1550" viewBox="0 0 1250 1550"><title>s04e13-01</title><path d="M325.37,1264.77l3.44,22s50.27,9.39,64.94-5.41c3.48-3.51,0-31.27,0-31.27Z" fill="#fff" stroke="#262521" stroke-linecap="round" stroke-linejoin="round" stroke-width="3"/><path d="M828.39,1228.08l3.44,22s50.26,9.39,64.93-5.41c3.48-3.51,0-31.28,0-31.28Z" fill="#fff" stroke="#262521" stroke-linecap="round" stroke-linejoin="round" stroke-width="3"/><rect x="526.13" y="1153.18" width="149.27" height="133.77" stroke-width="3" stroke="#262521" stroke-linecap="round" stroke-linejoin="round" fill="#262521"/><path d="M660.72,532.87s-63,24.42-84.61,24.42-81.06-23.87-81.06-23.87L398,598.69,584,846,772,575.75Z" fill="#fff" stroke="#262521" stroke-linecap="round" stroke-linejoin="round" stroke-width="3"/><line x1="561.63" y1="570.63" x2="561.63" y2="794.46" fill="none" stroke="#636363" stroke-linecap="round" stroke-linejoin="round"/><circle cx="570.88" cy="707.14" r="4.3" fill="none" stroke="#636363" stroke-linecap="round" stroke-linejoin="round"/><circle cx="570.88" cy="634.38" r="4.3" fill="none" stroke="#636363" stroke-linecap="round" stroke-linejoin="round"/><path d="M507.79,508.85s26.26,38.42,66.82,48.44l-69,73.33S478.39,555.16,487,538.5A147.58,147.58,0,0,1,507.79,508.85Z" fill="#fff" stroke="#262521" stroke-linecap="round" stroke-linejoin="round" stroke-width="3"/><path d="M645.6,508.85s-15.38,39.68-67.8,48.44l70,73.33s30.79-73,22.19-89.66S645.6,508.85,645.6,508.85Z" fill="#fff" stroke="#262521" stroke-linecap="round" stroke-linejoin="round" stroke-width="3"/><path d="M879.72,1045c-3.84-55.87-37.47-431.58-75.77-456.57-33.33-21.71-85.46-43.44-122.72-56.14-13.69-19.43-40.16-28.18-40-26,0,0,14.32,10.12,13.16,25.65-7.45,22.84-54,195-81.35,289.55C547.32,729,508.18,543.54,507,529c-1-11.83,5.61-16.15,5.61-16.15l.28-6.85s-28.55,8-37.45,26.87c0,0-103.14,71.12-129,89.87-44.73,27-35.8,384-30.27,452.4,5.65,69.91,2.94,199.59,6.16,203.57,6.51,8.08,84.32-2.58,84.32-2.58l.52,25.49c18.34.81,403.58-15.43,403.58-15.43l-3-78.55,9.37,36.59c25.11.15,90.22-.41,90.88-10.27C908.76,1221.75,885.29,1126.26,879.72,1045Z" fill="#262521" stroke="#262521" stroke-linecap="round" stroke-linejoin="round" stroke-width="3"/><path d="M407.14,1301.62s106.27,11.57,155.16-26.56c24.19-18.87,27.08-111,27.08-111" fill="none" stroke="#636363" stroke-linecap="round" stroke-linejoin="round"/><path d="M573.08,821.48c-11.45,57.27-1.78,389.68,52.37,444.92,44.09,45,185.27,19.79,185.27,19.79" fill="none" stroke="#636363" stroke-linecap="round" stroke-linejoin="round"/><polygon points="648.74 741.39 660.82 717.03 727.07 724.58 729.5 730.7 747.34 734.18 748.94 741.39 648.74 741.39" fill="#fff"/><polyline points="648.74 741.39 753.13 741.39 753.13 764.98 636.41 764.98" fill="none" stroke="#636363" stroke-linecap="round" stroke-linejoin="round"/><circle cx="584.99" cy="894.27" r="5.63" fill="none" stroke="#636363" stroke-linecap="round" stroke-linejoin="round"/><circle cx="592.22" cy="1034.84" r="5.63" fill="none" stroke="#636363" stroke-linecap="round" stroke-linejoin="round"/><path d="M792.82,1087.11h-98A12.11,12.11,0,0,1,682.74,1075v-15.47c0-5.32,74.28-7,106.57-3.76" fill="none" stroke="#636363" stroke-linecap="round" stroke-linejoin="round"/><path d="M410.14,1061c35.53-2.54,88.2-.66,88.2,4.34v15.46a12.1,12.1,0,0,1-12.07,12.07l-75.4-.64" fill="none" stroke="#636363" stroke-linecap="round" stroke-linejoin="round"/><path d="M566.81,585.83c-6.44,43.43-33.41,46-33.41,46-24.84-27.57-13.71-74.59-13.71-74.59,19.78-4.66,49.77,11.57,49.77,11.57s10-3.88,15.52,0c0,0,30-16.23,49.78-11.57,0,0,11.13,47-13.72,74.59,0,0-27-2.62-33.41-46a17.59,17.59,0,0,1-20.82,0Z" fill="#b67284" stroke="#262521" stroke-linecap="round" stroke-linejoin="round" stroke-width="3"/><path d="M588.94,576.87s8.68-3.7,11.5,0" fill="none" stroke="#262521" stroke-linecap="round" stroke-linejoin="round"/><path d="M564.23,577.86a16.23,16.23,0,0,0-13.41,0" fill="none" stroke="#262521" stroke-linecap="round" stroke-linejoin="round"/><path d="M617.57,579.51a33.28,33.28,0,0,0-4.82,3.61c-.53.51-2.84,2.85-1.38,3.23.74.19,2-.5,2.7-.78,1-.43,2-1,3-1.46a20.87,20.87,0,0,1,5-2.19,1.58,1.58,0,0,1,2,1.49,3.09,3.09,0,0,0,.24.89,7,7,0,0,1,6.37-3.1,27.51,27.51,0,0,1,6.53,1.83,126,126,0,0,0-.82-15.52c-.14,0-.29,0-.43,0-1.74.44-2.53,2.14-3.05,3.7a1.56,1.56,0,0,1-2.27.93c-2-1.43-3.81-3.51-6-4.83a15.21,15.21,0,0,0-.61,3,1.57,1.57,0,0,1-2,1.49c-3.12-.83-6.08-2.18-9.19-3,.13,1.65-.71,3.11-2.63,4.17l-.58.36c.38.36,1,1.13,1.25,1.32a15.52,15.52,0,0,0,6.22,2.06C618.61,576.93,618.57,578.85,617.57,579.51Z" fill="#262521" stroke="#262521" stroke-linecap="round" stroke-linejoin="round" stroke-width="3"/><path d="M537.56,566c-1.13.07-2.2,1.75-2.78,2.55-1.66,2.24-3.16,5.41-6,6.37a1.57,1.57,0,0,1-1.9-1.08c-.58-1.57-1.52-3.25-3.33-3.53a8.27,8.27,0,0,0-4.64,1.15c-.47.23-.91.5-1.35.76a117,117,0,0,0,.07,19.44,13.33,13.33,0,0,0,7,3.34,6.21,6.21,0,0,0,4.84-1.12c1.67-1.41,2-3.75,2-5.81a1.58,1.58,0,0,1,2-1.49c2.84.47,9.29,1.67,10.34-2.14.79-2.9-3.41-3.76-4.79-5.63-2.24-3,.36-6.87.48-10.1C539.57,567.7,538.9,566,537.56,566Z" fill="#262521" stroke="#262521" stroke-linecap="round" stroke-linejoin="round" stroke-width="3"/><path d="M587.13,573.7s4,4.3.5,12.13" fill="none" stroke="#262521" stroke-linecap="round" stroke-linejoin="round"/><path d="M565.36,573.7a16.7,16.7,0,0,0,1.45,12.13" fill="none" stroke="#262521" stroke-linecap="round" stroke-linejoin="round"/><path d="M589.07,579.76s5.37-1.07,6.75,2" fill="none" stroke="#262521" stroke-linecap="round" stroke-linejoin="round"/><path d="M564.82,580.58s-4.46-1.34-7.29.1" fill="none" stroke="#262521" stroke-linecap="round" stroke-linejoin="round"/><path d="M682.77,537.62l37.72,36-41.84,13.49,30.76,20.19s-70.94,178.81-130,245.27" fill="none" stroke="#636363" stroke-linecap="round" stroke-linejoin="round"/><path d="M475,537.62l-33.12,38.11L481.11,588l-26.92,20S524,798.4,563.31,833.59" fill="none" stroke="#636363" stroke-linecap="round" stroke-linejoin="round"/><path d="M669.16,631.3c-1-1.32-14.23-4.23-19-3.21-4.51,1-2.76,4.54-.1,4.19,1-.13,2.09-.21,3.25-.26v6.29c-.23,4.19-3.51,2.29-3.44,3.16s1.07,1.31,1.9,1.31h.13a5.65,5.65,0,0,0,1.41-.3v9.77c-1.12,0-5.14.86-5.14,1.64s3.41.13,7.71.62,7.19,2.16,8.42,2.41c1.6.32-.57-1.78-.57-1.78a8.52,8.52,0,0,0,4.89-1.81l.53-.49-.41-20S670.2,632.63,669.16,631.3Zm-3.53,6.59a8.35,8.35,0,0,1-9.09-.07V632c3.71.1,7.41.69,9,2.08Zm0,1.81.09,4.33a9.89,9.89,0,0,0-9.22-.15v-4.27a11,11,0,0,0,4.83,1.2A9.23,9.23,0,0,0,665.67,639.7Zm-9.13,12.57v-6.55a8.41,8.41,0,0,1,9.26.14l.11,5.42C664.41,651.92,660.69,652.24,656.54,652.27Z" fill="#d7b98a"/><path d="M566.83,286.5c-3.38-3.65-80-27.87-78.5,31.21.49,19.63,19.29,23,38.37,21.54,4.9,5.71,12.37,10.31,23.37,13a90.64,90.64,0,0,1-7.5-15.17,188.2,188.2,0,0,0,21.13-5.26C510.78,300.35,566.83,286.5,566.83,286.5Z" fill="#262521" stroke="#262521" stroke-linecap="round" stroke-linejoin="round" stroke-width="3"/></svg>