<svg xmlns="http://www.w3.org/2000/svg" width="1000" height="1550" viewBox="0 0 1000 1550"><path d="M279.43 1264.5L676 1248.11l21.74 262.23c-209.14 38.46-397.55 3.9-397.55 3.9z" fill="#262521" stroke="#262521" stroke-linecap="round" stroke-linejoin="round" stroke-width="3"/><path d="M676.32 601.23C665.44 594.13 526.79 528 526.79 528s-9 42.68-63.91 47.58c-64.83 5.79-86.64-36-90.75-48.14l-87.92 73.81" fill="#fff" stroke="#262521" stroke-linecap="round" stroke-linejoin="round" stroke-width="3"/><path d="M296.2 1019s-11.62 57.37-21.45 88.33-13.08 105-15.36 135.21c-.95 12.67 4.66 27 4.66 27l-61 1.5c-16.33-18.73-8.93-129.51-14.45-197.93A619.73 619.73 0 01192.24 945s-18.06-297.33 26.67-324.28 145.47-89.52 145.47-89.52-.25-.24.72 2.61c4.12 12.15 21.13 51.38 86.21 51.38 80.36 0 82.85-55 82.85-55s131.41 49.1 142.29 56.21c38.3 25 52.88 331.94 52.88 331.94s19 68.76 22.89 124.63c5.57 81.26 18.66 177.57 17.84 189.79s-5.3 18.88-5.3 18.88h-58.1s-1.25-8-2.88-34.36c-2.47-39.8-31-134-48.07-177.22" fill="#d7d7d7" stroke="#262521" stroke-linecap="round" stroke-linejoin="round" stroke-width="3"/><path d="M711 1220.46s30.63-3.83 52.37 0M200.25 1238s30.64-3.84 52.37 0M350.15 547.91s20.27 58.73 99.57 58.73c84.32 0 101.92-65.12 101.92-65.12" fill="none" stroke="#636363" stroke-linecap="round" stroke-linejoin="round"/><path d="M285.64 807.59s5.34 199.1 3.82 238.13c-.83 21.49-26.88 158.93-14.57 186.11.05 13-1.31 43-1.31 43S346.83 1297 423.83 1296c137.52-1.65 263.37-26.63 263.37-26.63s-6.68-30-7.46-43.64c14.5-25-20.48-180.94-22.28-250.9-1.22-47.58-16.1-167.27-16.1-167.27" fill="#d7d7d7" stroke="#262521" stroke-linecap="round" stroke-linejoin="round" stroke-width="3"/><path d="M285.88 1236.89s170.48 30.52 378.14-4.83" fill="none" stroke="#636363" stroke-linecap="round" stroke-linejoin="round"/><path stroke-width="4.09" stroke="#262521" stroke-linecap="round" stroke-linejoin="round" fill="#262521" d="M343.66 692.202l233.967-8.988 8.989 233.967-233.968 8.988z"/><path d="M422 911.81c-23.62-23.3-18.35-54.83-37.17-63.34-3.39 26.29 10.24 50.8 15.8 75.87l30.1-1.16c-2.88-3.84-5.84-7.6-8.73-11.37zM534.27 891.81c11.4-68.7 23.05-138 23.85-207.84l-13.76.53c-11.9 33.34-5.88 69.45-8.42 104-2.75 45.14-6.76 93.08-32.11 131.82l23.68-.91q3.9-13.63 6.76-27.6zM567.51 823.77c-4.77 14.78-3.26 30.8-7.23 45.83-3.16 16-7.35 32.43-6.86 48.87l25.24-1c-.77-19.14-2.3-38.21-1.53-57.38 0-13.33 0-28.59-6.77-40.55a9.39 9.39 0 00-2.85 4.23z" fill="#fff" stroke="#fff" stroke-linecap="round" stroke-linejoin="round" stroke-width="4.09" opacity=".3"/><path d="M391.16 781.73s26.15 3 48.1 28.17M441.67 775.81s-11.47 24.88-31.21 40.78M451.11 779.43s37 23.55 43.38 29.68" fill="none" stroke="#fff" stroke-linecap="round" stroke-linejoin="round" stroke-width="9.67"/><path d="M500.44 770.36s-13 6.61-22.2 23.83-25.41 30.07-25.41 30.07M367.59 818.23s183.84 13.93 196.55 12.91" fill="none" stroke="#fff" stroke-linecap="round" stroke-linejoin="round" stroke-width="9.67"/></svg>