<svg xmlns="http://www.w3.org/2000/svg" xmlns:xlink="http://www.w3.org/1999/xlink" width="1250" height="1550" viewBox="0 0 1250 1550"><defs><clipPath id="a"><path d="M879.72,1045c-3.84-55.87-22.89-124.63-22.89-124.63s-14.58-307-52.88-331.94c-10.88-7.11-138.43-55.73-138.43-55.73s-6.65-31.34-14.63-30.18c-9.44,1.38-32,34.6-75.25,34.6s-72.84-32.95-72.84-32.95c-7.2-.67-13.69,23.11-12.79,30-9.1,4.94-98.86,61.61-143.6,88.56S319.74,947,319.74,947a619.73,619.73,0,0,0-3.6,128.12c5.52,68.42-1.88,179.2,14.45,197.93l61-1.5s-5.61-14.34-4.66-27c2.28-30.22,5.54-104.26,15.36-135.21,4.76-15,9.94-36.17,14-54-4.31,36.75-26.37,161.14-15.06,186.11,0,13,1,44.83,1,44.83s35.46,23.25,90.75,19c9.18-.71,223.75-8.53,233.07-9.54s85-12.36,85-12.36.07-30.33-.71-43.93c9.18-15.85-2.76-88.91-13.21-158.13,15.45,46.74,32.21,107.93,34.08,138,1.63,26.39,2.88,34.36,2.88,34.36h58.1s4.49-6.66,5.3-18.88S885.29,1126.26,879.72,1045Z" fill="none"/></clipPath><clipPath id="b"><polygon points="772.3 846.9 413.14 878.31 413.14 729.9 756.52 686.69 772.3 846.9" fill="none"/></clipPath><clipPath id="c"><rect x="765.21" y="701.95" width="133.78" height="127.72" transform="translate(-57.37 67.46) rotate(-4.49)" fill="none"/></clipPath><clipPath id="d"><polygon points="280.49 864.28 414.23 867.34 411.43 733.65 277.68 736.59 280.49 864.28" fill="none"/></clipPath><clipPath id="e"><polygon points="815.24 1207.66 390.47 1228.56 401.78 1126.52 800.98 1101.32 815.24 1207.66" fill="none"/></clipPath><clipPath id="f"><polygon points="899.81 1169.03 817 1172.27 798.71 1091.25 891.4 1083.43 899.81 1169.03" fill="none"/></clipPath></defs><title>s04e13-02</title><polygon points="651.94 502.48 640.76 498.45 641.41 508.55 651.94 502.48" fill="#eeeee9" stroke="#262521" stroke-linecap="round" stroke-linejoin="round" stroke-width="3"/><g clip-path="url(#a)"><rect x="209.76" y="465.15" width="780.12" height="833.79" transform="translate(-67.18 49.64) rotate(-4.49)" fill="#eeeee9"/><polyline points="398.16 1145.28 372.06 1110.17 345.81 1145.16 319.71 1110.06 293.46 1145.05 267.36 1109.94" fill="none" stroke="#813b4a" stroke-linecap="round" stroke-linejoin="round" stroke-width="14.02"/><polyline points="398.12 1162.81 372.02 1127.7 345.77 1162.69 319.68 1127.58 293.42 1162.57 267.32 1127.46" fill="none" stroke="#262521" stroke-linecap="round" stroke-linejoin="round" stroke-width="12.27"/><g clip-path="url(#b)"><polyline points="378.17 798.63 410.02 831.29 436.39 794.06 468.24 826.72 494.6 789.49 526.46 822.15 552.82 784.92 584.67 817.58 611.03 780.35 642.89 813.01 669.25 775.78 701.11 808.44 727.48 771.21 759.34 803.87 785.71 766.64 817.57 799.3" fill="none" stroke="#813b4a" stroke-linecap="round" stroke-linejoin="round" stroke-width="14.02"/><polyline points="379.47 815.23 411.27 847.89 437.57 810.67 469.37 843.33 495.67 806.11 527.47 838.77 553.78 801.55 585.57 834.21 611.87 796.99 643.66 829.65 669.98 792.43 701.77 825.09 728.09 787.87 759.88 820.53 786.2 783.31 818 815.97" fill="none" stroke="#262521" stroke-linecap="round" stroke-linejoin="round" stroke-width="12.27"/></g><path d="M413.14,809.59s5.34,199.1,3.82,238.13c-.83,21.49-28.06,166.52-15.75,193.7,0,13,1,44.83,1,44.83s35.46,23.25,90.75,19c9.18-.71,223.75-8.53,233.07-9.54s85-12.36,85-12.36.07-30.33-.71-43.93c14.5-25-23.65-192.6-25.45-262.56-1.22-47.58-16.1-167.27-16.1-167.27" fill="none" stroke="#262521" stroke-linecap="round" stroke-linejoin="round" stroke-width="3"/><g clip-path="url(#c)"><polyline points="758.99 782.01 798.33 798.84 800.67 756.12 840.01 772.94 842.36 730.22 881.7 747.04" fill="none" stroke="#813b4a" stroke-linecap="round" stroke-linejoin="round" stroke-width="14.02"/><polyline points="768.24 796.9 807.57 813.72 809.92 771 849.26 787.83 851.61 745.11 890.95 761.93" fill="none" stroke="#262521" stroke-linecap="round" stroke-linejoin="round" stroke-width="12.27"/></g><g clip-path="url(#d)"><polyline points="426.08 846.34 417.5 803.15 378.17 822.95 369.58 779.76 330.25 799.56 321.66 756.36" fill="none" stroke="#813b4a" stroke-linecap="round" stroke-linejoin="round" stroke-width="14.02"/><polyline points="418.37 862.08 409.79 818.89 370.45 838.69 361.87 795.5 322.54 815.3 313.95 772.1" fill="none" stroke="#262521" stroke-linecap="round" stroke-linejoin="round" stroke-width="12.27"/></g><path d="M308.61,709.78S438.33,743,596,730.61,873.29,667,873.29,667" fill="none" stroke="#262521" stroke-miterlimit="10" stroke-width="19.28" stroke-dasharray="26.29 8.76"/><polyline points="854.23 625.03 821.3 597.98 807.05 638.08 775.02 610.06 759.72 649.78 728.45 620.91 712.03 660.18 681.66 630.36 663.89 669.04 634.73 638.04 615.18 675.86 587.81 643.28 566.17 679.71 541.28 645.4 517.63 680.57 494.37 645.13 469.32 679.31 447.34 643.07 421.2 676.43 400.3 639.56 373.25 672.18 353.37 634.75 345.23 649.18" fill="none" stroke="#813b4a" stroke-linecap="round" stroke-linejoin="round" stroke-width="14.02"/><path d="M325,610.49l7.3-5.48s161,19.32,253.43,12.06c115.78-9.09,231-44,231-44s22,20.13,25.59,31.36-23.48-3.83-23.48-3.83l-15,29.74L775,610.05l-13.58,34.2-31-23.37-20.82,31.59-28-22.12-17.15,33.71-29.79-26L613.1,669.76l-23.6-27.27-23.65,33.2-26.13-29-21.14,31.07L496,644.83,469.89,672.4l-25.24-24.65L422.4,671.69l-23.85-31.27L375.05,664l-24.4-23.25L325.38,659.7l-18.25-21.46Z" fill="#813b4a"/><path d="M301,606.88s139.22,31.44,287.06,19.83c157.61-12.37,279.7-60.87,279.7-60.87" fill="none" stroke="#262521" stroke-miterlimit="10" stroke-width="19.28" stroke-dasharray="26.29 8.76"/><polyline points="603.8 590.55 606.84 593.14 609.37 590.18" fill="none" stroke="#262521" stroke-linecap="round" stroke-linejoin="round" stroke-width="3.51" stroke-dasharray="26.29 8.76"/><polyline points="594.91 583.64 597.94 586.23 600.47 583.27" fill="none" stroke="#262521" stroke-linecap="round" stroke-linejoin="round" stroke-width="3.51" stroke-dasharray="26.29 8.76"/><polyline points="612.68 595.66 615.71 598.25 618.24 595.29" fill="none" stroke="#262521" stroke-linecap="round" stroke-linejoin="round" stroke-width="3.51" stroke-dasharray="26.29 8.76"/><polyline points="621.84 600.64 624.87 603.23 627.4 600.27" fill="none" stroke="#262521" stroke-linecap="round" stroke-linejoin="round" stroke-width="3.51" stroke-dasharray="26.29 8.76"/><polyline points="630.6 605.34 633.63 607.93 636.16 604.97" fill="none" stroke="#262521" stroke-linecap="round" stroke-linejoin="round" stroke-width="3.51" stroke-dasharray="26.29 8.76"/><polyline points="569.26 594.68 572.29 597.27 574.82 594.31" fill="none" stroke="#262521" stroke-linecap="round" stroke-linejoin="round" stroke-width="3.51" stroke-dasharray="26.29 8.76"/><polyline points="578.13 599.79 581.16 602.38 583.69 599.42" fill="none" stroke="#262521" stroke-linecap="round" stroke-linejoin="round" stroke-width="3.51" stroke-dasharray="26.29 8.76"/><polyline points="552.18 582.29 555.21 584.88 557.74 581.92" fill="none" stroke="#262521" stroke-linecap="round" stroke-linejoin="round" stroke-width="3.51" stroke-dasharray="26.29 8.76"/><polyline points="561.05 587.4 564.08 590 566.61 587.04" fill="none" stroke="#262521" stroke-linecap="round" stroke-linejoin="round" stroke-width="3.51" stroke-dasharray="26.29 8.76"/><polyline points="587.29 604.77 590.32 607.36 592.85 604.4" fill="none" stroke="#262521" stroke-linecap="round" stroke-linejoin="round" stroke-width="3.51" stroke-dasharray="26.29 8.76"/><polyline points="596.05 609.47 599.08 612.06 601.61 609.1" fill="none" stroke="#262521" stroke-linecap="round" stroke-linejoin="round" stroke-width="3.51" stroke-dasharray="26.29 8.76"/><polyline points="391.88 590.97 394.92 593.56 397.45 590.6" fill="none" stroke="#262521" stroke-linecap="round" stroke-linejoin="round" stroke-width="3.51" stroke-dasharray="26.29 8.76"/><polyline points="399.88 596.15 402.92 598.74 405.45 595.78" fill="none" stroke="#262521" stroke-linecap="round" stroke-linejoin="round" stroke-width="3.51" stroke-dasharray="26.29 8.76"/><polyline points="408.17 601.2 411.2 603.79 413.73 600.83" fill="none" stroke="#262521" stroke-linecap="round" stroke-linejoin="round" stroke-width="3.51" stroke-dasharray="26.29 8.76"/><polyline points="417 606.77 420.03 609.36 422.56 606.4" fill="none" stroke="#262521" stroke-linecap="round" stroke-linejoin="round" stroke-width="3.51" stroke-dasharray="26.29 8.76"/><polyline points="374.67 598.58 377.7 601.17 380.23 598.21" fill="none" stroke="#262521" stroke-linecap="round" stroke-linejoin="round" stroke-width="3.51" stroke-dasharray="26.29 8.76"/><polyline points="383.49 604.15 386.53 606.75 389.06 603.78" fill="none" stroke="#262521" stroke-linecap="round" stroke-linejoin="round" stroke-width="3.51" stroke-dasharray="26.29 8.76"/><polyline points="636.6 586.56 639.63 589.15 642.16 586.19" fill="none" stroke="#262521" stroke-linecap="round" stroke-linejoin="round" stroke-width="3.51" stroke-dasharray="26.29 8.76"/><polyline points="645.48 591.67 648.51 594.26 651.04 591.3" fill="none" stroke="#262521" stroke-linecap="round" stroke-linejoin="round" stroke-width="3.51" stroke-dasharray="26.29 8.76"/><polyline points="618.76 574.92 621.79 577.51 624.32 574.55" fill="none" stroke="#262521" stroke-linecap="round" stroke-linejoin="round" stroke-width="3.51" stroke-dasharray="26.29 8.76"/><polyline points="627.63 580.03 630.66 582.62 633.19 579.66" fill="none" stroke="#262521" stroke-linecap="round" stroke-linejoin="round" stroke-width="3.51" stroke-dasharray="26.29 8.76"/><polyline points="654.63 596.65 657.67 599.24 660.2 596.28" fill="none" stroke="#262521" stroke-linecap="round" stroke-linejoin="round" stroke-width="3.51" stroke-dasharray="26.29 8.76"/><polyline points="663.39 601.35 666.43 603.94 668.96 600.98" fill="none" stroke="#262521" stroke-linecap="round" stroke-linejoin="round" stroke-width="3.51" stroke-dasharray="26.29 8.76"/><polyline points="670.25 579.18 673.29 581.77 675.82 578.81" fill="none" stroke="#262521" stroke-linecap="round" stroke-linejoin="round" stroke-width="3.51" stroke-dasharray="26.29 8.76"/><polyline points="679.13 584.29 682.16 586.89 684.69 583.92" fill="none" stroke="#262521" stroke-linecap="round" stroke-linejoin="round" stroke-width="3.51" stroke-dasharray="26.29 8.76"/><polyline points="651.89 566.68 654.92 569.27 657.45 566.31" fill="none" stroke="#262521" stroke-linecap="round" stroke-linejoin="round" stroke-width="3.51" stroke-dasharray="26.29 8.76"/><polyline points="644.04 559.98 647.08 562.58 649.61 559.61" fill="none" stroke="#262521" stroke-linecap="round" stroke-linejoin="round" stroke-width="3.51" stroke-dasharray="26.29 8.76"/><polyline points="660.76 571.79 663.79 574.38 666.32 571.42" fill="none" stroke="#262521" stroke-linecap="round" stroke-linejoin="round" stroke-width="3.51" stroke-dasharray="26.29 8.76"/><polyline points="688.29 589.27 691.32 591.86 693.85 588.9" fill="none" stroke="#262521" stroke-linecap="round" stroke-linejoin="round" stroke-width="3.51" stroke-dasharray="26.29 8.76"/><polyline points="697.05 593.97 700.08 596.56 702.61 593.6" fill="none" stroke="#262521" stroke-linecap="round" stroke-linejoin="round" stroke-width="3.51" stroke-dasharray="26.29 8.76"/><polyline points="768.4 557.37 771.43 559.96 773.96 557" fill="none" stroke="#262521" stroke-linecap="round" stroke-linejoin="round" stroke-width="3.51" stroke-dasharray="26.29 8.76"/><polyline points="777.27 562.49 780.3 565.08 782.83 562.12" fill="none" stroke="#262521" stroke-linecap="round" stroke-linejoin="round" stroke-width="3.51" stroke-dasharray="26.29 8.76"/><polyline points="786.43 567.46 789.46 570.06 791.99 567.09" fill="none" stroke="#262521" stroke-linecap="round" stroke-linejoin="round" stroke-width="3.51" stroke-dasharray="26.29 8.76"/><polyline points="795.19 572.16 798.22 574.75 800.75 571.79" fill="none" stroke="#262521" stroke-linecap="round" stroke-linejoin="round" stroke-width="3.51" stroke-dasharray="26.29 8.76"/><polyline points="705.63 572.16 708.66 574.75 711.2 571.79" fill="none" stroke="#262521" stroke-linecap="round" stroke-linejoin="round" stroke-width="3.51" stroke-dasharray="26.29 8.76"/><polyline points="695.82 567.16 698.86 569.75 701.39 566.79" fill="none" stroke="#262521" stroke-linecap="round" stroke-linejoin="round" stroke-width="3.51" stroke-dasharray="26.29 8.76"/><polyline points="687.5 561.74 690.53 564.33 693.06 561.37" fill="none" stroke="#262521" stroke-linecap="round" stroke-linejoin="round" stroke-width="3.51" stroke-dasharray="26.29 8.76"/><polyline points="677.88 554.93 680.92 557.52 683.45 554.56" fill="none" stroke="#262521" stroke-linecap="round" stroke-linejoin="round" stroke-width="3.51" stroke-dasharray="26.29 8.76"/><polyline points="669.56 549.51 672.6 552.1 675.13 549.14" fill="none" stroke="#262521" stroke-linecap="round" stroke-linejoin="round" stroke-width="3.51" stroke-dasharray="26.29 8.76"/><polyline points="714.5 577.27 717.54 579.86 720.07 576.9" fill="none" stroke="#262521" stroke-linecap="round" stroke-linejoin="round" stroke-width="3.51" stroke-dasharray="26.29 8.76"/><polyline points="723.66 582.25 726.7 584.84 729.23 581.88" fill="none" stroke="#262521" stroke-linecap="round" stroke-linejoin="round" stroke-width="3.51" stroke-dasharray="26.29 8.76"/><polyline points="732.42 586.95 735.46 589.54 737.99 586.58" fill="none" stroke="#262521" stroke-linecap="round" stroke-linejoin="round" stroke-width="3.51" stroke-dasharray="26.29 8.76"/><polyline points="737.34 564.74 740.37 567.33 742.9 564.37" fill="none" stroke="#262521" stroke-linecap="round" stroke-linejoin="round" stroke-width="3.51" stroke-dasharray="26.29 8.76"/><polyline points="727.53 559.75 730.56 562.34 733.09 559.38" fill="none" stroke="#262521" stroke-linecap="round" stroke-linejoin="round" stroke-width="3.51" stroke-dasharray="26.29 8.76"/><polyline points="719.21 554.32 722.24 556.91 724.77 553.95" fill="none" stroke="#262521" stroke-linecap="round" stroke-linejoin="round" stroke-width="3.51" stroke-dasharray="26.29 8.76"/><polyline points="746.21 569.85 749.24 572.45 751.77 569.48" fill="none" stroke="#262521" stroke-linecap="round" stroke-linejoin="round" stroke-width="3.51" stroke-dasharray="26.29 8.76"/><polyline points="755.37 574.83 758.4 577.42 760.93 574.46" fill="none" stroke="#262521" stroke-linecap="round" stroke-linejoin="round" stroke-width="3.51" stroke-dasharray="26.29 8.76"/><polyline points="764.13 579.53 767.16 582.12 769.69 579.16" fill="none" stroke="#262521" stroke-linecap="round" stroke-linejoin="round" stroke-width="3.51" stroke-dasharray="26.29 8.76"/><polyline points="465.33 595.5 468.37 598.1 470.9 595.13" fill="none" stroke="#262521" stroke-linecap="round" stroke-linejoin="round" stroke-width="3.51" stroke-dasharray="26.29 8.76"/><polyline points="455.52 590.51 458.56 593.1 461.09 590.14" fill="none" stroke="#262521" stroke-linecap="round" stroke-linejoin="round" stroke-width="3.51" stroke-dasharray="26.29 8.76"/><polyline points="447.2 585.08 450.24 587.67 452.77 584.71" fill="none" stroke="#262521" stroke-linecap="round" stroke-linejoin="round" stroke-width="3.51" stroke-dasharray="26.29 8.76"/><polyline points="429.15 594.86 432.19 597.45 434.72 594.49" fill="none" stroke="#262521" stroke-linecap="round" stroke-linejoin="round" stroke-width="3.51" stroke-dasharray="26.29 8.76"/><polyline points="419.35 589.86 422.38 592.45 424.91 589.49" fill="none" stroke="#262521" stroke-linecap="round" stroke-linejoin="round" stroke-width="3.51" stroke-dasharray="26.29 8.76"/><polyline points="411.02 584.43 414.06 587.02 416.59 584.06" fill="none" stroke="#262521" stroke-linecap="round" stroke-linejoin="round" stroke-width="3.51" stroke-dasharray="26.29 8.76"/><polyline points="438.03 599.97 441.06 602.56 443.59 599.6" fill="none" stroke="#262521" stroke-linecap="round" stroke-linejoin="round" stroke-width="3.51" stroke-dasharray="26.29 8.76"/><polyline points="447.19 604.95 450.22 607.54 452.75 604.58" fill="none" stroke="#262521" stroke-linecap="round" stroke-linejoin="round" stroke-width="3.51" stroke-dasharray="26.29 8.76"/><polyline points="455.95 609.65 458.98 612.24 461.51 609.28" fill="none" stroke="#262521" stroke-linecap="round" stroke-linejoin="round" stroke-width="3.51" stroke-dasharray="26.29 8.76"/><polyline points="438.89 578.96 441.93 581.55 444.46 578.59" fill="none" stroke="#262521" stroke-linecap="round" stroke-linejoin="round" stroke-width="3.51" stroke-dasharray="26.29 8.76"/><polyline points="431.12 573.06 434.15 575.65 436.68 572.69" fill="none" stroke="#262521" stroke-linecap="round" stroke-linejoin="round" stroke-width="3.51" stroke-dasharray="26.29 8.76"/><polyline points="474.21 600.62 477.24 603.21 479.77 600.25" fill="none" stroke="#262521" stroke-linecap="round" stroke-linejoin="round" stroke-width="3.51" stroke-dasharray="26.29 8.76"/><polyline points="483.37 605.6 486.4 608.19 488.93 605.23" fill="none" stroke="#262521" stroke-linecap="round" stroke-linejoin="round" stroke-width="3.51" stroke-dasharray="26.29 8.76"/><polyline points="492.13 610.29 495.16 612.88 497.69 609.92" fill="none" stroke="#262521" stroke-linecap="round" stroke-linejoin="round" stroke-width="3.51" stroke-dasharray="26.29 8.76"/><polyline points="498.66 596.61 501.69 599.2 504.22 596.24" fill="none" stroke="#262521" stroke-linecap="round" stroke-linejoin="round" stroke-width="3.51" stroke-dasharray="26.29 8.76"/><polyline points="488.85 591.62 491.88 594.21 494.42 591.25" fill="none" stroke="#262521" stroke-linecap="round" stroke-linejoin="round" stroke-width="3.51" stroke-dasharray="26.29 8.76"/><polyline points="480.53 586.19 483.56 588.78 486.09 585.82" fill="none" stroke="#262521" stroke-linecap="round" stroke-linejoin="round" stroke-width="3.51" stroke-dasharray="26.29 8.76"/><polyline points="472.22 580.07 475.25 582.66 477.78 579.7" fill="none" stroke="#262521" stroke-linecap="round" stroke-linejoin="round" stroke-width="3.51" stroke-dasharray="26.29 8.76"/><polyline points="463.63 573.8 466.66 576.39 469.19 573.43" fill="none" stroke="#262521" stroke-linecap="round" stroke-linejoin="round" stroke-width="3.51" stroke-dasharray="26.29 8.76"/><polyline points="455.46 567.76 458.49 570.35 461.02 567.39" fill="none" stroke="#262521" stroke-linecap="round" stroke-linejoin="round" stroke-width="3.51" stroke-dasharray="26.29 8.76"/><polyline points="507.53 601.73 510.57 604.32 513.1 601.36" fill="none" stroke="#262521" stroke-linecap="round" stroke-linejoin="round" stroke-width="3.51" stroke-dasharray="26.29 8.76"/><polyline points="516.69 606.7 519.73 609.3 522.26 606.34" fill="none" stroke="#262521" stroke-linecap="round" stroke-linejoin="round" stroke-width="3.51" stroke-dasharray="26.29 8.76"/><polyline points="525.45 611.4 528.49 613.99 531.02 611.03" fill="none" stroke="#262521" stroke-linecap="round" stroke-linejoin="round" stroke-width="3.51" stroke-dasharray="26.29 8.76"/><polyline points="532.74 596.15 535.77 598.74 538.3 595.78" fill="none" stroke="#262521" stroke-linecap="round" stroke-linejoin="round" stroke-width="3.51" stroke-dasharray="26.29 8.76"/><polyline points="522.93 591.16 525.97 593.75 528.5 590.79" fill="none" stroke="#262521" stroke-linecap="round" stroke-linejoin="round" stroke-width="3.51" stroke-dasharray="26.29 8.76"/><polyline points="514.61 585.73 517.64 588.32 520.17 585.36" fill="none" stroke="#262521" stroke-linecap="round" stroke-linejoin="round" stroke-width="3.51" stroke-dasharray="26.29 8.76"/><polyline points="506.3 579.6 509.33 582.2 511.87 579.24" fill="none" stroke="#262521" stroke-linecap="round" stroke-linejoin="round" stroke-width="3.51" stroke-dasharray="26.29 8.76"/><polyline points="497.71 573.34 500.75 575.93 503.27 572.97" fill="none" stroke="#262521" stroke-linecap="round" stroke-linejoin="round" stroke-width="3.51" stroke-dasharray="26.29 8.76"/><polyline points="489.54 567.3 492.57 569.89 495.1 566.93" fill="none" stroke="#262521" stroke-linecap="round" stroke-linejoin="round" stroke-width="3.51" stroke-dasharray="26.29 8.76"/><polyline points="481.33 560.33 484.37 562.92 486.9 559.96" fill="none" stroke="#262521" stroke-linecap="round" stroke-linejoin="round" stroke-width="3.51" stroke-dasharray="26.29 8.76"/><polyline points="473.16 554.29 476.19 556.88 478.72 553.92" fill="none" stroke="#262521" stroke-linecap="round" stroke-linejoin="round" stroke-width="3.51" stroke-dasharray="26.29 8.76"/><polyline points="541.62 601.26 544.65 603.86 547.18 600.89" fill="none" stroke="#262521" stroke-linecap="round" stroke-linejoin="round" stroke-width="3.51" stroke-dasharray="26.29 8.76"/><polyline points="550.78 606.24 553.81 608.84 556.34 605.87" fill="none" stroke="#262521" stroke-linecap="round" stroke-linejoin="round" stroke-width="3.51" stroke-dasharray="26.29 8.76"/><polyline points="559.53 610.94 562.57 613.53 565.1 610.57" fill="none" stroke="#262521" stroke-linecap="round" stroke-linejoin="round" stroke-width="3.51" stroke-dasharray="26.29 8.76"/><g clip-path="url(#e)"><polyline points="397.6 1149.62 431.03 1183.41 461.73 1147.12 495.16 1180.91 525.87 1144.63 559.3 1178.41 590 1142.13 623.43 1175.91 654.13 1139.63 687.57 1173.41 718.27 1137.13 751.71 1170.92 782.42 1134.63 815.86 1168.42" fill="none" stroke="#813b4a" stroke-linecap="round" stroke-linejoin="round" stroke-width="14.24"/><polyline points="398.9 1166.22 432.33 1200 463.03 1163.72 496.46 1197.51 527.17 1161.22 560.6 1195.01 591.3 1158.73 624.73 1192.51 655.44 1156.23 688.87 1190.01 719.58 1153.73 753.01 1187.51 783.72 1151.23 817.16 1185.02" fill="none" stroke="#262521" stroke-linecap="round" stroke-linejoin="round" stroke-width="12.46"/></g><g clip-path="url(#f)"><polyline points="797.36 1110.16 827.33 1140.69 845.76 1102.08 875.74 1132.62 894.17 1094.01 924.14 1124.54" fill="none" stroke="#813b4a" stroke-linecap="round" stroke-linejoin="round" stroke-width="14.02"/><polyline points="800.25 1127.44 830.22 1157.98 848.65 1119.37 878.62 1149.9 897.06 1111.29 927.03 1141.83" fill="none" stroke="#262521" stroke-linecap="round" stroke-linejoin="round" stroke-width="12.27"/></g></g><polyline points="502.81 504.17 513.04 503.02 512.57 511.14" fill="#eeeee9" stroke="#262521" stroke-linecap="round" stroke-linejoin="round" stroke-width="3"/><path d="M416.27,1055.31c-4.08,17.87-9.26,39-14,54-9.82,31-13.08,105-15.36,135.21-.95,12.67,4.66,27,4.66,27l-61,1.5c-16.33-18.73-8.93-129.51-14.45-197.93A619.73,619.73,0,0,1,319.74,947s-18.06-297.33,26.67-324.28,134.5-83.62,143.6-88.56c-.9-6.9,5.59-30.68,12.79-30,0,0,29.62,32.95,72.84,32.95s65.81-33.22,75.25-34.6c8-1.16,14.63,30.18,14.63,30.18S793.07,581.32,804,588.43c38.3,25,52.88,331.94,52.88,331.94s19,68.76,22.89,124.63c5.57,81.26,18.66,177.57,17.84,189.79s-5.3,18.88-5.3,18.88h-58.1s-1.25-8-2.88-34.36c-1.87-30.08-18.63-91.29-34.08-138" fill="none" stroke="#262521" stroke-linecap="round" stroke-linejoin="round" stroke-width="3"/><path d="M413.14,795.36s5.34,213.33,3.82,252.36c-.83,21.49-28.06,166.52-15.75,193.7,0,13,1,44.83,1,44.83s35.46,23.25,90.75,19c9.18-.71,223.75-8.53,233.07-9.54s85-12.36,85-12.36.07-30.33-.71-43.93c14.5-25-23.65-192.6-25.45-262.56-1.22-47.58-19.57-201-19.57-201" fill="none" stroke="#262521" stroke-linecap="round" stroke-linejoin="round" stroke-width="3"/><line x1="872.45" y1="1216.65" x2="872.45" y2="1246.12" fill="none" stroke="#d5d5d1" stroke-linecap="round" stroke-linejoin="round" stroke-width="6"/><line x1="856.75" y1="1216.72" x2="857.59" y2="1246.05" fill="none" stroke="#d5d5d1" stroke-linecap="round" stroke-linejoin="round" stroke-width="6"/><line x1="887.37" y1="1216.53" x2="885.47" y2="1246.24" fill="none" stroke="#d5d5d1" stroke-linecap="round" stroke-linejoin="round" stroke-width="6"/><line x1="842.08" y1="1216.91" x2="844.82" y2="1245.86" fill="none" stroke="#d5d5d1" stroke-linecap="round" stroke-linejoin="round" stroke-width="6"/><line x1="362.04" y1="1235.66" x2="364.02" y2="1265.06" fill="none" stroke="#d5d5d1" stroke-linecap="round" stroke-linejoin="round" stroke-width="6"/><line x1="347.68" y1="1236.37" x2="350.73" y2="1265.12" fill="none" stroke="#d5d5d1" stroke-linecap="round" stroke-linejoin="round" stroke-width="6"/><line x1="332.74" y1="1236.48" x2="336.62" y2="1265.99" fill="none" stroke="#d5d5d1" stroke-linecap="round" stroke-linejoin="round" stroke-width="6"/><line x1="376.13" y1="1235.6" x2="376.34" y2="1264.66" fill="none" stroke="#d5d5d1" stroke-linecap="round" stroke-linejoin="round" stroke-width="6"/><line x1="611.17" y1="1259.66" x2="612.95" y2="1293.29" fill="none" stroke="#d5d5d1" stroke-linecap="round" stroke-linejoin="round" stroke-width="6"/><line x1="630.66" y1="1258.42" x2="632.44" y2="1292.04" fill="none" stroke="#d5d5d1" stroke-linecap="round" stroke-linejoin="round" stroke-width="6"/><line x1="650.16" y1="1257.93" x2="651.95" y2="1291.55" fill="none" stroke="#d5d5d1" stroke-linecap="round" stroke-linejoin="round" stroke-width="6"/><line x1="669.67" y1="1257.19" x2="671.45" y2="1290.82" fill="none" stroke="#d5d5d1" stroke-linecap="round" stroke-linejoin="round" stroke-width="6"/><line x1="689.16" y1="1256.51" x2="690.94" y2="1290.14" fill="none" stroke="#d5d5d1" stroke-linecap="round" stroke-linejoin="round" stroke-width="6"/><line x1="708.66" y1="1256.02" x2="710.44" y2="1289.65" fill="none" stroke="#d5d5d1" stroke-linecap="round" stroke-linejoin="round" stroke-width="6"/><line x1="725.95" y1="1254.57" x2="726.84" y2="1288.2" fill="none" stroke="#d5d5d1" stroke-linecap="round" stroke-linejoin="round" stroke-width="6"/><line x1="744.55" y1="1250.92" x2="744.55" y2="1287" fill="none" stroke="#d5d5d1" stroke-linecap="round" stroke-linejoin="round" stroke-width="6"/><line x1="475.46" y1="1263.15" x2="476.46" y2="1299.24" fill="none" stroke="#d5d5d1" stroke-linecap="round" stroke-linejoin="round" stroke-width="6"/><line x1="495.1" y1="1262.13" x2="496.1" y2="1298.22" fill="none" stroke="#d5d5d1" stroke-linecap="round" stroke-linejoin="round" stroke-width="6"/><line x1="514.17" y1="1263.13" x2="515.96" y2="1296.76" fill="none" stroke="#d5d5d1" stroke-linecap="round" stroke-linejoin="round" stroke-width="6"/><line x1="533.19" y1="1262.57" x2="534.97" y2="1296.2" fill="none" stroke="#d5d5d1" stroke-linecap="round" stroke-linejoin="round" stroke-width="6"/><line x1="414.51" y1="1248.06" x2="414.52" y2="1283.09" fill="none" stroke="#d5d5d1" stroke-linecap="round" stroke-linejoin="round" stroke-width="6"/><line x1="434.57" y1="1253.99" x2="434.07" y2="1292.16" fill="none" stroke="#d5d5d1" stroke-linecap="round" stroke-linejoin="round" stroke-width="6"/><line x1="454.94" y1="1260.36" x2="454.94" y2="1296.44" fill="none" stroke="#d5d5d1" stroke-linecap="round" stroke-linejoin="round" stroke-width="6"/><line x1="552.69" y1="1262.08" x2="554.47" y2="1295.71" fill="none" stroke="#d5d5d1" stroke-linecap="round" stroke-linejoin="round" stroke-width="6"/><line x1="572.14" y1="1260.95" x2="573.92" y2="1294.58" fill="none" stroke="#d5d5d1" stroke-linecap="round" stroke-linejoin="round" stroke-width="6"/><line x1="591.74" y1="1260.19" x2="593.52" y2="1293.82" fill="none" stroke="#d5d5d1" stroke-linecap="round" stroke-linejoin="round" stroke-width="6"/><line x1="763.55" y1="1248.3" x2="763.77" y2="1284.37" fill="none" stroke="#d5d5d1" stroke-linecap="round" stroke-linejoin="round" stroke-width="6"/><line x1="782.31" y1="1245.05" x2="782.15" y2="1281.07" fill="none" stroke="#d5d5d1" stroke-linecap="round" stroke-linejoin="round" stroke-width="6"/><line x1="798.86" y1="1242.15" x2="799.91" y2="1278.21" fill="none" stroke="#d5d5d1" stroke-linecap="round" stroke-linejoin="round" stroke-width="6"/><line x1="573.07" y1="545.99" x2="573.07" y2="571.49" fill="none" stroke="#d5d5d1" stroke-linecap="round" stroke-linejoin="round" stroke-width="6"/><line x1="591.03" y1="545.19" x2="592.35" y2="570.66" fill="none" stroke="#d5d5d1" stroke-linecap="round" stroke-linejoin="round" stroke-width="6"/><line x1="606.91" y1="540.93" x2="611.17" y2="566.08" fill="none" stroke="#d5d5d1" stroke-linecap="round" stroke-linejoin="round" stroke-width="6"/><line x1="619.62" y1="535.08" x2="628.73" y2="558.4" fill="none" stroke="#d5d5d1" stroke-linecap="round" stroke-linejoin="round" stroke-width="6"/><line x1="633.06" y1="527.28" x2="643.4" y2="549.38" fill="none" stroke="#d5d5d1" stroke-linecap="round" stroke-linejoin="round" stroke-width="6"/><line x1="554.88" y1="543.96" x2="553.56" y2="569.43" fill="none" stroke="#d5d5d1" stroke-linecap="round" stroke-linejoin="round" stroke-width="6"/><line x1="537.67" y1="538.83" x2="531.91" y2="563.97" fill="none" stroke="#d5d5d1" stroke-linecap="round" stroke-linejoin="round" stroke-width="6"/><line x1="522.64" y1="531.87" x2="513.54" y2="555.69" fill="none" stroke="#d5d5d1" stroke-linecap="round" stroke-linejoin="round" stroke-width="6"/><line x1="509.3" y1="523.67" x2="498.2" y2="546.49" fill="none" stroke="#d5d5d1" stroke-linecap="round" stroke-linejoin="round" stroke-width="6"/><line x1="646.35" y1="517.27" x2="656.93" y2="540.12" fill="none" stroke="#d5d5d1" stroke-linecap="round" stroke-linejoin="round" stroke-width="6"/></svg>