<svg xmlns="http://www.w3.org/2000/svg" width="1250" height="1550" viewBox="0 0 1250 1550"><title>s04e07-01</title><path d="M877.22,1043c-3.84-55.87-22.89-124.63-22.89-124.63s-14.58-307-52.88-331.94c-10.88-7.11-142.29-56.21-142.29-56.21s-2.49,55-82.85,55c-65.08,0-82.09-39.23-86.21-51.38a11.73,11.73,0,0,1-.75-2.59c-1,.64-100.94,62.69-145.44,89.5C299.18,647.69,317.24,945,317.24,945a619.73,619.73,0,0,0-3.6,128.12c5.52,68.42-1.88,179.2,14.45,197.93l61-1.5s-5.61-14.34-4.66-27c2.28-30.22,5.54-104.26,15.36-135.21S421.2,1019,421.2,1019c.49,23.68.3,42.22-1,50.32-3.6,21.92-31.66,102.79-17.78,133.07-3.34,29.29-5.7,66.94-5.7,66.94s95.7,25.59,172.7,24.66c137.52-1.66,240.17-35.54,240.17-35.54s-2.28-35.71-5.33-60.53c9.94-22.61-4.2-83.51-17.91-143,17.07,47.16,40.24,126.63,42.46,162.32,1.63,26.39,2.88,34.36,2.88,34.36h58.1s4.49-6.66,5.3-18.88S882.79,1124.26,877.22,1043Z" fill="#262521"/><polygon points="460.79 663.83 531.44 682.86 512.09 712.68 459.42 665.95 460.79 663.83" fill="none" stroke="#494949" stroke-linecap="round" stroke-linejoin="round" stroke-width="1.55"/><polygon points="465.93 649.74 531.23 635.27 531.66 659.08 465.85 654.43 465.93 649.74" fill="none" stroke="#494949" stroke-linecap="round" stroke-linejoin="round" stroke-width="1.55"/><polygon points="467.14 640.16 524.9 612.4 530.08 630.85 467 646.28 467.14 640.16" fill="none" stroke="#494949" stroke-linecap="round" stroke-linejoin="round" stroke-width="1.55"/><polygon points="457.24 668.53 502.1 709.41 491.5 717.29 455.51 669.63 457.24 668.53" fill="none" stroke="#494949" stroke-linecap="round" stroke-linejoin="round" stroke-width="1.55"/><polygon points="443.36 673.65 446.58 673.47 463.53 724.95 447.35 727.38 443.36 673.65" fill="none" stroke="#494949" stroke-linecap="round" stroke-linejoin="round" stroke-width="1.55"/><polygon points="437.81 673.36 440.14 673.23 442.97 722.16 434.59 721.56 437.81 673.36" fill="none" stroke="#494949" stroke-linecap="round" stroke-linejoin="round" stroke-width="1.55"/><polygon points="457.83 616.84 462.31 624.29 506.1 591.42 490.66 575.45 457.83 616.84" fill="none" stroke="#494949" stroke-linecap="round" stroke-linejoin="round" stroke-width="1.55"/><polygon points="449.2 607.7 454.88 614.07 487.71 573.68 471.74 561.56 449.2 607.7" fill="none" stroke="#494949" stroke-linecap="round" stroke-linejoin="round" stroke-width="1.55"/><polygon points="425.58 607.2 435.57 605.26 442.27 560.4 416.19 576.87 425.58 607.2" fill="none" stroke="#494949" stroke-linecap="round" stroke-linejoin="round" stroke-width="1.55"/><polygon points="389.49 592.94 412.4 578.85 423.46 608.08 415.7 611.11 389.49 592.94" fill="none" stroke="#494949" stroke-linecap="round" stroke-linejoin="round" stroke-width="1.55"/><path d="M421.7,622.71c-5.31,4.88-9.28,11.42-8.85,19.16A22.48,22.48,0,1,0,434,618.17l-.37-6.59s-14.72,1.5-24.56,10.4l-16-.73-.57,13.89,13.58.77-.18-3.24-9.73-.49.22-8,14.25.69s11-8.37,19.33-9.36l.43,3.7S424.77,619.89,421.7,622.71Z" fill="none" stroke="#494949" stroke-linecap="round" stroke-linejoin="round" stroke-width="1.55"/><circle cx="435.28" cy="640.46" r="18.48" fill="none" stroke="#494949" stroke-linecap="round" stroke-linejoin="round" stroke-width="1.28"/><line x1="435.87" y1="702.49" x2="583.87" y2="694.19" fill="none" stroke="#494949" stroke-linecap="round" stroke-linejoin="round" stroke-width="1.55"/><line x1="571.89" y1="699.86" x2="584.15" y2="699.17" fill="none" stroke="#494949" stroke-linecap="round" stroke-linejoin="round" stroke-width="1.55"/><line x1="436.15" y1="707.47" x2="567.38" y2="700.11" fill="none" stroke="#494949" stroke-linecap="round" stroke-linejoin="round" stroke-width="1.55"/><path d="M539.12,624.44s10,36.35-3.2,66.85l-3.48-1.63L515.53,718.1l-4.07-1.93-25.71,15.55-1.95-2.47-23,12.91-1.54-4.56-26.77,6.14-.24-4.37-27.8-3.09-.27-4.89-10.87-5.07" fill="none" stroke="#494949" stroke-linecap="round" stroke-linejoin="round" stroke-width="1.55"/><path d="M544.2,624.16s10.71,42.77-5.74,73.52L535,696.05l-17.93,29L513,723.14l-26.94,16-2-2.46-26.5,13.61-1.54-4.56-27.35,4.95-.24-4.38-28.55-5-.27-4.88L393.72,734" fill="none" stroke="#494949" stroke-linecap="round" stroke-linejoin="round" stroke-width="1.55"/><line x1="314.04" y1="858.34" x2="392.15" y2="859.95" fill="none" stroke="#494949" stroke-linecap="round" stroke-linejoin="round" stroke-width="1.55"/><path d="M375.61,679.05c-19.48,49.74-41.48,98.74-61.89,149.15" fill="none" stroke="#494949" stroke-linecap="round" stroke-linejoin="round" stroke-width="1.55"/><polyline points="373.64 674.72 325.15 785.26 314.13 775.91" fill="none" stroke="#494949" stroke-linecap="round" stroke-linejoin="round" stroke-width="1.55"/><line x1="314.05" y1="853.82" x2="391.87" y2="854.87" fill="none" stroke="#494949" stroke-linecap="round" stroke-linejoin="round" stroke-width="1.55"/><path d="M378,684.75c-20.87,52-43.87,103-64.23,155.5" fill="none" stroke="#494949" stroke-linecap="round" stroke-linejoin="round" stroke-width="1.55"/><polyline points="525.31 783.72 495.77 806.07 555.14 855.45" fill="none" stroke="#494949" stroke-linecap="round" stroke-linejoin="round" stroke-width="1.55"/><line x1="591.79" y1="836.6" x2="624.47" y2="862.84" fill="none" stroke="#494949" stroke-linecap="round" stroke-linejoin="round" stroke-width="1.55"/><line x1="525.31" y1="783.72" x2="581.92" y2="828.74" fill="none" stroke="#494949" stroke-linecap="round" stroke-linejoin="round" stroke-width="1.55"/><line x1="556.32" y1="866.66" x2="595.16" y2="897.56" fill="none" stroke="#494949" stroke-linecap="round" stroke-linejoin="round" stroke-width="1.55"/><line x1="562.14" y1="866.15" x2="597.81" y2="894.56" fill="none" stroke="#494949" stroke-linecap="round" stroke-linejoin="round" stroke-width="1.55"/><line x1="518.17" y1="892.68" x2="598.47" y2="956.56" fill="none" stroke="#494949" stroke-linecap="round" stroke-linejoin="round" stroke-width="1.55"/><line x1="524.55" y1="892.62" x2="598.37" y2="951.39" fill="none" stroke="#494949" stroke-linecap="round" stroke-linejoin="round" stroke-width="1.55"/><line x1="515.59" y1="901.39" x2="599.1" y2="967.81" fill="none" stroke="#494949" stroke-linecap="round" stroke-linejoin="round" stroke-width="1.55"/><line x1="514.85" y1="895.65" x2="598.85" y2="962.53" fill="none" stroke="#494949" stroke-linecap="round" stroke-linejoin="round" stroke-width="1.55"/><path d="M419.46,950.86c15.67,12.93,32.67,23.93,48.67,37.93,10,9,20,16,30.12,24.74" fill="none" stroke="#494949" stroke-linecap="round" stroke-linejoin="round" stroke-width="1.55"/><path d="M419.49,945.74c26.64,20,52.64,42,78.65,62.62" fill="none" stroke="#494949" stroke-linecap="round" stroke-linejoin="round" stroke-width="1.55"/><path d="M419.52,961.65c26.61,20.14,51.61,43.14,79.61,63.14,24-24,49-49,72.93-73" fill="none" stroke="#494949" stroke-linecap="round" stroke-linejoin="round" stroke-width="1.55"/><path d="M419.55,956.54c15.58,12.25,30.58,24.25,46.58,36.25,11,10,22,18,33,27,22-24,46-47,69.36-70.41" fill="none" stroke="#494949" stroke-linecap="round" stroke-linejoin="round" stroke-width="1.55"/><line x1="671.46" y1="884" x2="598.7" y2="956.55" fill="none" stroke="#494949" stroke-linecap="round" stroke-linejoin="round" stroke-width="1.55"/><line x1="665.16" y1="884.6" x2="598.23" y2="951.4" fill="none" stroke="#494949" stroke-linecap="round" stroke-linejoin="round" stroke-width="1.55"/><line x1="559.31" y1="947.32" x2="498.14" y2="1008.27" fill="none" stroke="#494949" stroke-linecap="round" stroke-linejoin="round" stroke-width="1.55"/><line x1="565.2" y1="946.99" x2="498.43" y2="1013.52" fill="none" stroke="#494949" stroke-linecap="round" stroke-linejoin="round" stroke-width="1.55"/><line x1="674.96" y1="892.39" x2="599.33" y2="967.8" fill="none" stroke="#494949" stroke-linecap="round" stroke-linejoin="round" stroke-width="1.55"/><line x1="674.76" y1="886.91" x2="598.99" y2="962.52" fill="none" stroke="#494949" stroke-linecap="round" stroke-linejoin="round" stroke-width="1.55"/><line x1="505.83" y1="904.63" x2="559.31" y2="947.32" fill="none" stroke="#494949" stroke-linecap="round" stroke-linejoin="round" stroke-width="1.55"/><line x1="512.32" y1="904.81" x2="565.2" y2="946.99" fill="none" stroke="#494949" stroke-linecap="round" stroke-linejoin="round" stroke-width="1.55"/><path d="M774.16,932.19c-23,23.6-46,46.6-70,69.79" fill="none" stroke="#494949" stroke-linecap="round" stroke-linejoin="round" stroke-width="1.55"/><path d="M774,926.63c-23.91,23.16-46.91,46.16-70.34,70.2" fill="none" stroke="#494949" stroke-linecap="round" stroke-linejoin="round" stroke-width="1.55"/><path d="M774.74,943.5c-24.61,22.29-45.61,48.29-70.61,69.29-27-21-53-43-80.22-63.93" fill="none" stroke="#494949" stroke-linecap="round" stroke-linejoin="round" stroke-width="1.55"/><path d="M774.59,938c-22.46,23.83-47.46,46.83-70.46,69.83-26-20-51-41-76.93-61.7" fill="none" stroke="#494949" stroke-linecap="round" stroke-linejoin="round" stroke-width="1.55"/><line x1="636.09" y1="943.02" x2="703.69" y2="996.75" fill="none" stroke="#494949" stroke-linecap="round" stroke-linejoin="round" stroke-width="1.55"/><line x1="630.2" y1="943.35" x2="703.99" y2="1001.99" fill="none" stroke="#494949" stroke-linecap="round" stroke-linejoin="round" stroke-width="1.55"/><line x1="684.54" y1="894.41" x2="636.09" y2="943.02" fill="none" stroke="#494949" stroke-linecap="round" stroke-linejoin="round" stroke-width="1.55"/><line x1="678.41" y1="895.13" x2="630.2" y2="943.35" fill="none" stroke="#494949" stroke-linecap="round" stroke-linejoin="round" stroke-width="1.55"/><line x1="630.49" y1="862.5" x2="595.35" y2="897.55" fill="none" stroke="#494949" stroke-linecap="round" stroke-linejoin="round" stroke-width="1.55"/><line x1="624.47" y1="862.84" x2="592.38" y2="894.86" fill="none" stroke="#494949" stroke-linecap="round" stroke-linejoin="round" stroke-width="1.55"/><polyline points="588.25 828.71 517.59 772.54 480 799.65 477.08 795.33 457.61 806.42 455.55 801.41 431.48 806.9 431.14 800.86 408.71 802.27 408.42 797.11 398.22 794.65" fill="none" stroke="#494949" stroke-linecap="round" stroke-linejoin="round" stroke-width="1.55"/><line x1="630.49" y1="862.5" x2="591.49" y2="831.28" fill="none" stroke="#494949" stroke-linecap="round" stroke-linejoin="round" stroke-width="1.55"/><polyline points="591.18 825.79 517.95 767.58 481.99 792.83 478.67 788.76 459.75 799.9 458.23 795.99 435.6 801.05 435.36 796.69 413.38 797.77 413.14 793.55 397.98 790.39" fill="none" stroke="#494949" stroke-linecap="round" stroke-linejoin="round" stroke-width="1.55"/><line x1="665.16" y1="884.6" x2="595.04" y2="828.86" fill="none" stroke="#494949" stroke-linecap="round" stroke-linejoin="round" stroke-width="1.55"/><line x1="678.41" y1="895.13" x2="671.79" y2="889.87" fill="none" stroke="#494949" stroke-linecap="round" stroke-linejoin="round" stroke-width="1.55"/><polyline points="590.85 819.84 541.98 780.93 571.89 699.86" fill="none" stroke="#494949" stroke-linecap="round" stroke-linejoin="round" stroke-width="1.55"/><line x1="684.54" y1="894.41" x2="597.86" y2="825.42" fill="none" stroke="#494949" stroke-linecap="round" stroke-linejoin="round" stroke-width="1.55"/><line x1="536.94" y1="782.6" x2="569.21" y2="695.15" fill="none" stroke="#494949" stroke-linecap="round" stroke-linejoin="round" stroke-width="1.55"/><polyline points="408.75 858.23 464.69 826.2 509.72 900.01" fill="none" stroke="#494949" stroke-linecap="round" stroke-linejoin="round" stroke-width="1.55"/><polygon points="702.68 650.27 634.59 677.07 657.16 704.54 704.27 652.22 702.68 650.27" fill="none" stroke="#494949" stroke-linecap="round" stroke-linejoin="round" stroke-width="1.55"/><polygon points="696 636.84 629.49 629.76 631.71 653.47 696.6 641.49 696 636.84" fill="none" stroke="#494949" stroke-linecap="round" stroke-linejoin="round" stroke-width="1.55"/><polygon points="693.71 627.45 633.22 606.33 630.13 625.24 694.54 633.52 693.71 627.45" fill="none" stroke="#494949" stroke-linecap="round" stroke-linejoin="round" stroke-width="1.55"/><polygon points="706.72 654.54 666.72 700.18 678.13 706.82 708.57 655.44 706.72 654.54" fill="none" stroke="#494949" stroke-linecap="round" stroke-linejoin="round" stroke-width="1.55"/><polygon points="721.09 658.08 717.87 658.26 706.79 711.31 723.13 711.92 721.09 658.08" fill="none" stroke="#494949" stroke-linecap="round" stroke-linejoin="round" stroke-width="1.55"/><polygon points="726.57 657.16 724.24 657.29 726.9 706.24 735.16 704.71 726.57 657.16" fill="none" stroke="#494949" stroke-linecap="round" stroke-linejoin="round" stroke-width="1.55"/><polygon points="700.36 603.24 696.74 611.15 649.56 583.37 663.11 565.78 700.36 603.24" fill="none" stroke="#494949" stroke-linecap="round" stroke-linejoin="round" stroke-width="1.55"/><polygon points="707.92 593.19 702.98 600.15 665.84 563.69 683.07 554.14 707.92 593.19" fill="none" stroke="#494949" stroke-linecap="round" stroke-linejoin="round" stroke-width="1.55"/><polygon points="731.33 590.05 721.19 589.24 709.37 549.55 735.97 559.42 731.33 590.05" fill="none" stroke="#494949" stroke-linecap="round" stroke-linejoin="round" stroke-width="1.55"/><polygon points="763.48 571.07 741.01 561.38 733.53 590.69 741.59 592.84 763.48 571.07" fill="none" stroke="#494949" stroke-linecap="round" stroke-linejoin="round" stroke-width="1.55"/><path d="M736.92,605c5.82,4.26,10.5,10.31,10.94,18.05a22.48,22.48,0,1,1-23.7-21.18l-.37-6.59s14.79-.16,25.57,7.59l15.83-2.52,2.13,13.74-13.41,2.28-.18-3.24,9.61-1.57-1.12-8-14.09,2.29s-11.9-7.09-20.25-7.14l0,3.71S733.55,602.57,736.92,605Z" fill="none" stroke="#494949" stroke-linecap="round" stroke-linejoin="round" stroke-width="1.55"/><circle cx="725.41" cy="624.19" r="18.48" fill="none" stroke="#494949" stroke-linecap="round" stroke-linejoin="round" stroke-width="1.28"/><line x1="731.76" y1="685.9" x2="583.76" y2="694.2" fill="none" stroke="#494949" stroke-linecap="round" stroke-linejoin="round" stroke-width="1.55"/><line x1="596.3" y1="698.49" x2="584.04" y2="699.18" fill="none" stroke="#494949" stroke-linecap="round" stroke-linejoin="round" stroke-width="1.55"/><line x1="732.04" y1="690.88" x2="600.81" y2="698.24" fill="none" stroke="#494949" stroke-linecap="round" stroke-linejoin="round" stroke-width="1.55"/><path d="M620.43,619.88s-5.9,37.25,10.65,66.07l3.28-2,20,26.37,3.83-2.37,27.29,12.58,1.66-2.67,24.32,10.25,1-4.7,27.28,3.11-.25-4.37L766.78,716l-.28-4.89,10.24-6.25" fill="none" stroke="#494949" stroke-linecap="round" stroke-linejoin="round" stroke-width="1.55"/><path d="M615.35,620.17s-5.86,43.69,13.92,72.42l3.28-2,21.06,26.83,3.83-2.37L686,727.91l1.66-2.67,27.86,10.56,1-4.7L744.27,733l-.25-4.38,27.8-8.21-.27-4.88,5.61-3" fill="none" stroke="#494949" stroke-linecap="round" stroke-linejoin="round" stroke-width="1.55"/><polyline points="651.96 776.62 683.82 795.52 630.82 850.73" fill="none" stroke="#494949" stroke-linecap="round" stroke-linejoin="round" stroke-width="1.55"/><line x1="591.79" y1="836.6" x2="562.14" y2="866.15" fill="none" stroke="#494949" stroke-linecap="round" stroke-linejoin="round" stroke-width="1.55"/><line x1="651.96" y1="776.62" x2="601.09" y2="827.99" fill="none" stroke="#494949" stroke-linecap="round" stroke-linejoin="round" stroke-width="1.55"/><polyline points="556.15 866.49 658.38 764.64 698.77 787.38 701.18 782.76 721.78 791.61 723.26 786.4 747.8 789.16 747.46 783.12 769.9 782.01 769.61 776.86 779.48 773.27" fill="none" stroke="#494949" stroke-linecap="round" stroke-linejoin="round" stroke-width="1.55"/><polyline points="524.32 892.4 657.47 759.75 696.03 780.83 698.88 776.41 718.92 785.37 719.99 781.31 743.05 783.81 742.8 779.45 764.76 778.07 764.53 773.85 779.24 769.01" fill="none" stroke="#494949" stroke-linecap="round" stroke-linejoin="round" stroke-width="1.55"/><line x1="512.32" y1="904.81" x2="518.38" y2="898.47" fill="none" stroke="#494949" stroke-linecap="round" stroke-linejoin="round" stroke-width="1.55"/><polyline points="590.85 819.84 635.09 775.71 596.3 698.49" fill="none" stroke="#494949" stroke-linecap="round" stroke-linejoin="round" stroke-width="1.55"/><line x1="505.83" y1="904.63" x2="584.75" y2="825.92" fill="none" stroke="#494949" stroke-linecap="round" stroke-linejoin="round" stroke-width="1.55"/><line x1="640.28" y1="776.8" x2="598.37" y2="693.38" fill="none" stroke="#494949" stroke-linecap="round" stroke-linejoin="round" stroke-width="1.55"/><polyline points="776.91 841.57 716.72 812.57 684.2 882.4" fill="none" stroke="#494949" stroke-linecap="round" stroke-linejoin="round" stroke-width="1.55"/><polyline points="371.98 671.37 323.12 777.69 314.54 770.56" fill="none" stroke="#494949" stroke-linecap="round" stroke-linejoin="round" stroke-width="1.55"/><line x1="392.42" y1="864.76" x2="319.65" y2="863.21" fill="none" stroke="#494949" stroke-linecap="round" stroke-linejoin="round" stroke-width="1.55"/><line x1="392.69" y1="869.6" x2="319.92" y2="868.06" fill="none" stroke="#494949" stroke-linecap="round" stroke-linejoin="round" stroke-width="1.55"/><path d="M848.52,830.14l-51.11,6.71-5,.65" fill="none" stroke="#494949" stroke-linecap="round" stroke-linejoin="round" stroke-width="1.55"/><line x1="788.64" y1="655.89" x2="841.04" y2="750.61" fill="none" stroke="#494949" stroke-linecap="round" stroke-linejoin="round" stroke-width="1.55"/><line x1="790.11" y1="651.37" x2="839.41" y2="736.41" fill="none" stroke="#494949" stroke-linecap="round" stroke-linejoin="round" stroke-width="1.55"/><path d="M847.65,825.42,797,831.81l-4.88.61" fill="none" stroke="#494949" stroke-linecap="round" stroke-linejoin="round" stroke-width="1.55"/><line x1="786.9" y1="661.82" x2="842.32" y2="762.37" fill="none" stroke="#494949" stroke-linecap="round" stroke-linejoin="round" stroke-width="1.55"/><line x1="791.38" y1="647.85" x2="838.05" y2="725.21" fill="none" stroke="#494949" stroke-linecap="round" stroke-linejoin="round" stroke-width="1.55"/><path d="M792.69,842.31c19.44-3.52,37.44-4.52,56.25-7.54" fill="none" stroke="#494949" stroke-linecap="round" stroke-linejoin="round" stroke-width="1.55"/><path d="M793,847.16c19.16-2.37,37.16-5.37,56.58-7.59" fill="none" stroke="#494949" stroke-linecap="round" stroke-linejoin="round" stroke-width="1.55"/><path d="M404.43,1264.5s61.78,24.3,203.69,19.79S801,1248.11,801,1248.11L817,1399.33A1103.91,1103.91,0,0,1,686.6,1415c-153.15,9.56-273.63-11.8-273.63-11.8Z" fill="#262521" stroke="#262521" stroke-linecap="round" stroke-linejoin="round" stroke-width="3"/><polygon points="463.2 628 508.15 594.35 522.93 609.65 466.04 637.61 463.2 628" fill="#fff"/><polygon points="446.13 560.58 438.63 605.46 446.37 606.03 471.05 558.26 446.13 560.58" fill="#fff"/><polygon points="385.44 594.98 413.29 612.14 406.57 616.05 370.56 604.54 385.44 594.98" fill="#fff"/><polygon points="464.52 657.5 461.9 661.6 529.05 678.13 531.87 662.77 464.52 657.5" fill="#fff"/><polygon points="448.93 672.22 453.45 670.52 488.09 719.45 469.25 731.6 448.93 672.22" fill="#fff"/><polygon points="430.96 672.59 435.34 672.91 431.74 721.72 418.27 720.73 430.96 672.59" fill="#fff"/><path d="M323.74,663.52s-6.53,28.9-6.53,50.94l53.29-48-.05-22.34Z" fill="#fff"/><polygon points="383.27 714.46 354.25 848.6 391.93 849.04 390.98 717.54 383.27 714.46" fill="#fff"/><polygon points="469.42 827.97 492.73 809.17 549.31 855.63 510.2 893.13 469.42 827.97" fill="#fff"/><polygon points="696.27 614.93 647.84 586.51 634.87 603.38 694.53 624.79 696.27 614.93" fill="#fff"/><polygon points="706.05 547.28 718.17 589.78 710.54 591.22 682.83 549.72 706.05 547.28" fill="#fff"/><polygon points="771.18 571.58 744.1 593.59 751.21 596.72 790.11 579.24 771.18 571.58" fill="#fff"/><polygon points="698.26 644.39 701.32 648.17 636.45 672.11 631.92 657.16 698.26 644.39" fill="#fff"/><polygon points="715.4 657.28 710.71 656.1 681.76 708.59 701.84 718.55 715.4 657.28" fill="#fff"/><polygon points="733.29 655.63 728.98 656.44 738.02 704.54 751.29 702.05 733.29 655.63" fill="#fff"/><path d="M822.32,631.07l-32.08-10.52,2.45,22.21,37.42,28.38C829,668.27,825.67,638.81,822.32,631.07Z" fill="#fff"/><polygon points="785.36 691.92 829.2 821.96 791.81 826.62 778.05 695.83 785.36 691.92" fill="#fff"/><polygon points="712.45 814.34 687.18 798.26 635.9 851.02 679.06 883.96 712.45 814.34" fill="#fff"/><path d="M877.22,1043c-3.84-55.87-22.89-124.63-22.89-124.63s-14.58-307-52.88-331.94c-10.88-7.11-142.29-56.21-142.29-56.21s-2.49,55-82.85,55c-65.08,0-82.09-39.23-86.21-51.38a11.73,11.73,0,0,1-.75-2.59c-1,.64-100.94,62.69-145.44,89.5C299.18,647.69,317.24,945,317.24,945a619.73,619.73,0,0,0-3.6,128.12c5.52,68.42-1.88,179.2,14.45,197.93l61-1.5s-5.61-14.34-4.66-27c2.28-30.22,5.54-104.26,15.36-135.21S421.2,1019,421.2,1019c.49,23.68.3,42.22-1,50.32-3.6,21.92-31.66,102.79-17.78,133.07-3.34,29.29-5.7,66.94-5.7,66.94s95.7,25.59,172.7,24.66c137.52-1.66,240.17-35.54,240.17-35.54s-2.28-35.71-5.33-60.53c9.94-22.61-4.2-83.51-17.91-143,17.07,47.16,40.24,126.63,42.46,162.32,1.63,26.39,2.88,34.36,2.88,34.36h58.1s4.49-6.66,5.3-18.88S882.79,1124.26,877.22,1043Z" fill="none" stroke="#262521" stroke-linecap="round" stroke-linejoin="round" stroke-width="3"/><path d="M396.69,1269.35s95.7,25.59,172.7,24.66c137.52-1.66,240.17-35.54,240.17-35.54" fill="none" stroke="#636363" stroke-linecap="round" stroke-linejoin="round"/></svg>