<svg xmlns="http://www.w3.org/2000/svg" width="1250" height="1550" viewBox="0 0 1250 1550"><title>s04e04-01</title><path d="M491.85,533.24l0,0S491.86,533.2,491.85,533.24Z" fill="#262521" stroke="#262521" stroke-linecap="round" stroke-linejoin="round" stroke-width="3"/><path d="M879.72,1045c-3.84-55.87-22.89-124.63-22.89-124.63s-14.58-307-52.88-331.94c-10.88-7.11-142.29-56.21-142.29-56.21s-2.49,55-82.85,55c-65.08,0-82.09-39.23-86.21-51.38a11.73,11.73,0,0,1-.75-2.59c-1,.64-100.94,62.69-145.44,89.5C301.68,649.69,319.74,947,319.74,947a619.73,619.73,0,0,0-3.6,128.12c5.52,68.42-1.88,179.2,14.45,197.93l61-1.5s-5.61-14.34-4.66-27c2.28-30.22,5.54-104.26,15.36-135.21S423.7,1021,423.7,1021c.49,23.68-7.1,56.24-15.77,212s9.72,298.21,9.72,298.21,86,5.88,163,5c137.53-1.66,249.05-16.62,249.05-16.62s-27.17-403.1-40.88-462.54c17.07,47.16,40.24,126.63,42.46,162.32,1.63,26.39,2.88,34.36,2.88,34.36h58.1s4.49-6.66,5.3-18.88S885.29,1126.26,879.72,1045Z" fill="#262521" stroke="#262521" stroke-linecap="round" stroke-linejoin="round" stroke-width="3"/><ellipse cx="585.56" cy="698.68" rx="23.99" ry="28.52" fill="#242938"/><ellipse cx="585.56" cy="617.83" rx="23.99" ry="28.52" fill="#242938"/><path d="M554.56,613.84c0,14,5.43,26.28,13.6,33.35v22c-8.17,7.07-13.6,19.35-13.6,33.35,0,31.95,13.28,39.7,29.65,39.7s29.65-17.77,29.65-39.7-13.27-39.69-29.65-39.69c-.31,0-.61.05-.91.06v-9.48c.3,0,.6.06.91.06,16.38,0,29.65-17.77,29.65-39.69s-13.27-39.7-29.65-39.7S554.56,581.89,554.56,613.84Zm54.5,84.75c0,14.87-11.78,29.06-23.67,29.06s-23.67-10.24-23.67-29.06c0-14.87,11.78-29.07,23.67-29.07S609.06,683.72,609.06,698.59Zm0-80.76c0,14.87-11.78,29.07-23.67,29.07s-23.67-14.2-23.67-29.07c0-18.82,11.78-29.06,23.67-29.06S609.06,603,609.06,617.83Z" fill="#fff" stroke="#636363" stroke-linecap="round" stroke-linejoin="round" stroke-width="2"/></svg>