<svg xmlns="http://www.w3.org/2000/svg" width="1250" height="1550" viewBox="0 0 1250 1550"><title>s04e13-03</title><path d="M491.85,533.24l0,0S491.86,533.2,491.85,533.24Z" fill="#ffc702"/><path d="M879.72,1045c-3.84-55.87-22.89-124.63-22.89-124.63s-14.58-307-52.88-331.94c-10.88-7.11-142.29-56.21-142.29-56.21s-2.49,55-82.84,55c-65.09,0-82.1-39.23-86.22-51.38a11.73,11.73,0,0,1-.75-2.59c-1,.64-100.94,62.69-145.44,89.5C301.68,649.69,319.74,947,319.74,947a619.73,619.73,0,0,0-3.6,128.12c5.52,68.42-1.88,179.2,14.45,197.93l61-1.5s-5.61-14.34-4.66-27c2.28-30.22,5.54-104.26,15.36-135.21,4.77-15,9.95-36.21,14-54.09-4.18,35.82-24.17,140.91-12.87,165.85,0,13-.31,50.49-.31,50.49s71.52,17.46,148.52,16.53c137.52-1.65,262.1-22.4,262.1-22.4s-3.18-37-4-50.63c5.42-9.36-1.69-73.84-13.36-136.22,15.66,47,33,109.82,34.88,140.43,1.63,26.39,2.88,34.36,2.88,34.36h58.1s4.49-6.66,5.3-18.88S885.29,1126.26,879.72,1045Z" fill="#262521"/><path d="M489.26,534.34l0,0S489.26,534.3,489.26,534.34Z" fill="#262521" stroke="#262521" stroke-linecap="round" stroke-linejoin="round" stroke-width="3"/><line x1="829.01" y1="1200.87" x2="894.65" y2="1199.27" fill="none" stroke="#838180" stroke-miterlimit="10" stroke-width="11"/><line x1="822.54" y1="1169.56" x2="891.76" y2="1167.89" fill="none" stroke="#838180" stroke-miterlimit="10" stroke-width="11"/><line x1="814.74" y1="1138.39" x2="888.93" y2="1136.55" fill="none" stroke="#838180" stroke-miterlimit="10" stroke-width="11"/><line x1="806.22" y1="1106.85" x2="884.86" y2="1105.08" fill="none" stroke="#838180" stroke-miterlimit="10" stroke-width="11"/><line x1="797.26" y1="1075.79" x2="882.46" y2="1073.76" fill="none" stroke="#838180" stroke-miterlimit="10" stroke-width="11"/><line x1="791.73" y1="1044.47" x2="880.02" y2="1042.33" fill="none" stroke="#838180" stroke-miterlimit="10" stroke-width="11"/><line x1="788.29" y1="1013.04" x2="876.46" y2="1010.96" fill="none" stroke="#838180" stroke-miterlimit="10" stroke-width="11"/><line x1="785.63" y1="981.66" x2="870.85" y2="979.66" fill="none" stroke="#838180" stroke-miterlimit="10" stroke-width="11"/><line x1="783.78" y1="950.28" x2="864" y2="948.3" fill="none" stroke="#838180" stroke-miterlimit="10" stroke-width="11"/><line x1="780.86" y1="918.89" x2="857.48" y2="917.06" fill="none" stroke="#838180" stroke-miterlimit="10" stroke-width="11"/><line x1="776.48" y1="887.73" x2="855.96" y2="885.63" fill="none" stroke="#838180" stroke-miterlimit="10" stroke-width="11"/><line x1="773.01" y1="856.25" x2="853.27" y2="854.3" fill="none" stroke="#838180" stroke-miterlimit="10" stroke-width="11"/><line x1="769.02" y1="824.8" x2="850.77" y2="822.81" fill="none" stroke="#838180" stroke-miterlimit="10" stroke-width="11"/><line x1="768.39" y1="793.34" x2="848.12" y2="791.45" fill="none" stroke="#838180" stroke-miterlimit="10" stroke-width="11"/><line x1="766" y1="761.9" x2="844.26" y2="760.17" fill="none" stroke="#838180" stroke-miterlimit="10" stroke-width="11"/><line x1="764.82" y1="730.47" x2="840.73" y2="728.65" fill="none" stroke="#838180" stroke-miterlimit="10" stroke-width="11"/><line x1="389.62" y1="1212.99" x2="319.21" y2="1214.28" fill="none" stroke="#838180" stroke-miterlimit="10" stroke-width="11"/><line x1="392.06" y1="1181.63" x2="318.11" y2="1182.35" fill="none" stroke="#838180" stroke-miterlimit="10" stroke-width="11"/><line x1="395.31" y1="1150.19" x2="317.7" y2="1151.69" fill="none" stroke="#838180" stroke-miterlimit="10" stroke-width="11"/><line x1="399.69" y1="1118.75" x2="317.11" y2="1120.73" fill="none" stroke="#838180" stroke-miterlimit="10" stroke-width="11"/><line x1="408.37" y1="1087.43" x2="316.16" y2="1089.44" fill="none" stroke="#838180" stroke-miterlimit="10" stroke-width="11"/><line x1="415.8" y1="1056" x2="314.04" y2="1057.74" fill="none" stroke="#838180" stroke-miterlimit="10" stroke-width="11"/><line x1="417.23" y1="1024.97" x2="313.37" y2="1026.26" fill="none" stroke="#838180" stroke-miterlimit="10" stroke-width="11"/><line x1="416.56" y1="993.07" x2="314.66" y2="995.45" fill="none" stroke="#838180" stroke-miterlimit="10" stroke-width="11"/><line x1="417.24" y1="961.53" x2="317.02" y2="963.96" fill="none" stroke="#838180" stroke-miterlimit="10" stroke-width="11"/><line x1="416.97" y1="930.26" x2="317.97" y2="932.64" fill="none" stroke="#838180" stroke-miterlimit="10" stroke-width="11"/><line x1="415.98" y1="898.94" x2="316.66" y2="901.33" fill="none" stroke="#838180" stroke-miterlimit="10" stroke-width="11"/><line x1="413.68" y1="867.65" x2="315.66" y2="870.01" fill="none" stroke="#838180" stroke-miterlimit="10" stroke-width="11"/><line x1="412.41" y1="836.34" x2="315.16" y2="838.67" fill="none" stroke="#838180" stroke-miterlimit="10" stroke-width="11"/><line x1="413.14" y1="804.98" x2="315.4" y2="807.31" fill="none" stroke="#838180" stroke-miterlimit="10" stroke-width="11"/><line x1="410.89" y1="773.71" x2="315.68" y2="775.99" fill="none" stroke="#838180" stroke-miterlimit="10" stroke-width="11"/><line x1="409.3" y1="742.38" x2="316.9" y2="744.61" fill="none" stroke="#838180" stroke-miterlimit="10" stroke-width="11"/><path d="M402.6,1218.49s107.58,2.39,232.45-1.92,175.86-8.16,175.86-8.16" fill="none" stroke="#838180" stroke-miterlimit="10" stroke-width="11"/><path d="M400.1,1186.76s103.93,1.71,203.22-1.56c102.28-3.37,206.76-7.71,206.76-7.71" fill="none" stroke="#838180" stroke-miterlimit="10" stroke-width="11"/><path d="M402.35,1155.61s98.2-.88,200.48-3.57,203.39-6.45,203.39-6.45" fill="none" stroke="#838180" stroke-miterlimit="10" stroke-width="11"/><line x1="406.31" y1="1124.31" x2="801.74" y2="1114.23" fill="none" stroke="#838180" stroke-miterlimit="10" stroke-width="11"/><line x1="410.58" y1="1092.72" x2="797.26" y2="1082.87" fill="none" stroke="#838180" stroke-miterlimit="10" stroke-width="11"/><line x1="415.47" y1="1060.77" x2="792.51" y2="1051.52" fill="none" stroke="#838180" stroke-miterlimit="10" stroke-width="11"/><line x1="415.97" y1="1029.03" x2="788.38" y2="1020.15" fill="none" stroke="#838180" stroke-miterlimit="10" stroke-width="11"/><line x1="417" y1="996.5" x2="785.35" y2="988.76" fill="none" stroke="#838180" stroke-miterlimit="10" stroke-width="11"/><line x1="416.56" y1="967.1" x2="783.78" y2="958.01" fill="none" stroke="#838180" stroke-miterlimit="10" stroke-width="11"/><line x1="415.27" y1="934.9" x2="781.07" y2="925.92" fill="none" stroke="#838180" stroke-miterlimit="10" stroke-width="11"/><line x1="415.27" y1="903.38" x2="777.82" y2="893.99" fill="none" stroke="#838180" stroke-miterlimit="10" stroke-width="11"/><line x1="413.75" y1="872" x2="774.37" y2="863.15" fill="none" stroke="#838180" stroke-miterlimit="10" stroke-width="11"/><line x1="413.75" y1="840.53" x2="769.96" y2="831.31" fill="none" stroke="#838180" stroke-miterlimit="10" stroke-width="11"/><line x1="413.14" y1="809.14" x2="767.76" y2="800.1" fill="none" stroke="#838180" stroke-miterlimit="10" stroke-width="11"/><line x1="411.06" y1="778.52" x2="765.24" y2="768.27" fill="none" stroke="#838180" stroke-miterlimit="10" stroke-width="11"/><line x1="409.42" y1="746.29" x2="762.39" y2="736.22" fill="none" stroke="#838180" stroke-miterlimit="10" stroke-width="11"/><path d="M331.68,743.13a.75.75,0,0,0,0-1.5.75.75,0,0,0,0,1.5Z" fill="#fff"/><path d="M389.82,742.19a.75.75,0,0,0,0-1.5.75.75,0,0,0,0,1.5Z" fill="#fff"/><path d="M365.34,747a.75.75,0,0,0,0-1.5.75.75,0,0,0,0,1.5Z" fill="#fff"/><path d="M348.27,745.4a.75.75,0,0,0,0-1.5.75.75,0,0,0,0,1.5Z" fill="#fff"/><path d="M385.1,778.78a.75.75,0,0,0,0-1.5.75.75,0,0,0,0,1.5Z" fill="#fff"/><path d="M366.06,775.85a.75.75,0,0,0,0-1.5.75.75,0,0,0,0,1.5Z" fill="#fff"/><path d="M330.84,776.64a.75.75,0,0,0,0-1.5.75.75,0,0,0,0,1.5Z" fill="#fff"/><path d="M348.27,745.4a.75.75,0,0,0,0-1.5.75.75,0,0,0,0,1.5Z" fill="#fff"/><path d="M418.53,746.13a.75.75,0,0,0,0-1.5.75.75,0,0,0,0,1.5Z" fill="#fff"/><path d="M441,780.71a.75.75,0,0,0,0-1.5.75.75,0,0,0,0,1.5Z" fill="#fff"/><path d="M461.4,745.54a.75.75,0,0,0,0-1.5.75.75,0,0,0,0,1.5Z" fill="#fff"/><path d="M488.24,747.64a.75.75,0,0,0,0-1.5.75.75,0,0,0,0,1.5Z" fill="#fff"/><path d="M327.65,807.4a.75.75,0,0,0,0-1.5.75.75,0,0,0,0,1.5Z" fill="#fff"/><path d="M345.12,809.82a.75.75,0,0,0,0-1.5.75.75,0,0,0,0,1.5Z" fill="#fff"/><path d="M368.14,805.16a.75.75,0,0,0,0-1.5.75.75,0,0,0,0,1.5Z" fill="#fff"/><path d="M404.64,804.35a.75.75,0,0,0,0-1.5.75.75,0,0,0,0,1.5Z" fill="#fff"/><path d="M403,838a.75.75,0,0,0,0-1.5.75.75,0,0,0,0,1.5Z" fill="#fff"/><path d="M394.2,834.44a.75.75,0,0,0,0-1.5.75.75,0,0,0,0,1.5Z" fill="#fff"/><path d="M349.08,839.85a.75.75,0,0,0,0-1.5.75.75,0,0,0,0,1.5Z" fill="#fff"/><path d="M336,836.42a.75.75,0,0,0,0-1.5.75.75,0,0,0,0,1.5Z" fill="#fff"/><path d="M322.83,870.6a.75.75,0,0,0,0-1.5.75.75,0,0,0,0,1.5Z" fill="#fff"/><path d="M345.63,871.55a.75.75,0,0,0,0-1.5.75.75,0,0,0,0,1.5Z" fill="#fff"/><path d="M359.3,868.5a.75.75,0,0,0,0-1.5.75.75,0,0,0,0,1.5Z" fill="#fff"/><path d="M380.72,867.34a.75.75,0,0,0,0-1.5.75.75,0,0,0,0,1.5Z" fill="#fff"/><path d="M406.57,869.91a.75.75,0,0,0,0-1.5.75.75,0,0,0,0,1.5Z" fill="#fff"/><path d="M404.44,898.6a.75.75,0,0,0,0-1.5.75.75,0,0,0,0,1.5Z" fill="#fff"/><path d="M387,897.47a.75.75,0,0,0,0-1.5.75.75,0,0,0,0,1.5Z" fill="#fff"/><path d="M348.24,902.23a.75.75,0,0,0,0-1.5.75.75,0,0,0,0,1.5Z" fill="#fff"/><path d="M336.78,899.18a.75.75,0,0,0,0-1.5.75.75,0,0,0,0,1.5Z" fill="#fff"/><path d="M324.51,904.91a.75.75,0,0,0,0-1.5.75.75,0,0,0,0,1.5Z" fill="#fff"/><path d="M412,931a.75.75,0,0,0,0-1.5.75.75,0,0,0,0,1.5Z" fill="#fff"/><path d="M391.87,929.57a.75.75,0,0,0,0-1.5.75.75,0,0,0,0,1.5Z" fill="#fff"/><path d="M351.11,934.83a.75.75,0,0,0,0-1.5.75.75,0,0,0,0,1.5Z" fill="#fff"/><path d="M341,933.88a.75.75,0,0,0,0-1.5.75.75,0,0,0,0,1.5Z" fill="#fff"/><path d="M326.4,932.2a.75.75,0,0,0,0-1.5.75.75,0,0,0,0,1.5Z" fill="#fff"/><path d="M322.94,963.12a.75.75,0,0,0,0-1.5.75.75,0,0,0,0,1.5Z" fill="#fff"/><path d="M348.43,964.4a.75.75,0,0,0,0-1.5.75.75,0,0,0,0,1.5Z" fill="#fff"/><path d="M374.15,960.94a.75.75,0,0,0,0-1.5.75.75,0,0,0,0,1.5Z" fill="#fff"/><path d="M379.91,963.76a.75.75,0,0,0,0-1.5.75.75,0,0,0,0,1.5Z" fill="#fff"/><path d="M412,960.52a.75.75,0,0,0,0-1.5.75.75,0,0,0,0,1.5Z" fill="#fff"/><path d="M404.52,995.18a.75.75,0,0,0,0-1.5.75.75,0,0,0,0,1.5Z" fill="#fff"/><path d="M391.79,991.47a.75.75,0,0,0,0-1.5.75.75,0,0,0,0,1.5Z" fill="#fff"/><path d="M358.29,995.46a.75.75,0,0,0,0-1.5.75.75,0,0,0,0,1.5Z" fill="#fff"/><path d="M329.86,997.29a.75.75,0,0,0,0-1.5.75.75,0,0,0,0,1.5Z" fill="#fff"/><path d="M322.1,995a.75.75,0,0,0,0-1.5.75.75,0,0,0,0,1.5Z" fill="#fff"/><path d="M372.74,1025a.75.75,0,0,0,0-1.5.75.75,0,0,0,0,1.5Z" fill="#fff"/><path d="M394.57,1027.71a.75.75,0,0,0,0-1.5.75.75,0,0,0,0,1.5Z" fill="#fff"/><path d="M408.27,1026a.75.75,0,0,0,0-1.5.75.75,0,0,0,0,1.5Z" fill="#fff"/><path d="M342.52,1025.72a.75.75,0,0,0,0-1.5.75.75,0,0,0,0,1.5Z" fill="#fff"/><path d="M319.83,1026a.75.75,0,0,0,0-1.5.75.75,0,0,0,0,1.5Z" fill="#fff"/><path d="M321.47,1060.27a.75.75,0,0,0,0-1.5.75.75,0,0,0,0,1.5Z" fill="#fff"/><path d="M352.88,1056.19a.75.75,0,0,0,0-1.5.75.75,0,0,0,0,1.5Z" fill="#fff"/><path d="M363.31,1058.42a.75.75,0,0,0,0-1.5.75.75,0,0,0,0,1.5Z" fill="#fff"/><path d="M393.41,1055.67a.75.75,0,0,0,0-1.5.75.75,0,0,0,0,1.5Z" fill="#fff"/><path d="M373.65,1211.68a.75.75,0,0,0,0-1.5.75.75,0,0,0,0,1.5Z" fill="#fff"/><path d="M332.13,1089a.75.75,0,0,0,0-1.5.75.75,0,0,0,0,1.5Z" fill="#fff"/><path d="M342.52,1089.51a.75.75,0,0,0,0-1.5.75.75,0,0,0,0,1.5Z" fill="#fff"/><path d="M370.68,1090.28a.75.75,0,0,0,0-1.5.75.75,0,0,0,0,1.5Z" fill="#fff"/><path d="M384.37,1088.09a.75.75,0,0,0,0-1.5.75.75,0,0,0,0,1.5Z" fill="#fff"/><path d="M398.47,1089.76a.75.75,0,0,0,0-1.5.75.75,0,0,0,0,1.5Z" fill="#fff"/><path d="M390.1,1117.19a.75.75,0,0,0,0-1.5.75.75,0,0,0,0,1.5Z" fill="#fff"/><path d="M371.3,1123.51a.75.75,0,0,0,0-1.5.75.75,0,0,0,0,1.5Z" fill="#fff"/><path d="M347.71,1119.5a.75.75,0,0,0,0-1.5.75.75,0,0,0,0,1.5Z" fill="#fff"/><path d="M326.08,1124.19a.75.75,0,0,0,0-1.5.75.75,0,0,0,0,1.5Z" fill="#fff"/><path d="M328.09,1213.74a.75.75,0,0,0,0-1.5.75.75,0,0,0,0,1.5Z" fill="#fff"/><path d="M325.65,1150.94a.75.75,0,0,0,0-1.5.75.75,0,0,0,0,1.5Z" fill="#fff"/><path d="M350.85,1155.22a.75.75,0,0,0,0-1.5.75.75,0,0,0,0,1.5Z" fill="#fff"/><path d="M378.58,1152.14a.75.75,0,0,0,0-1.5.75.75,0,0,0,0,1.5Z" fill="#fff"/><path d="M380.86,1181.79a.75.75,0,0,0,0-1.5.75.75,0,0,0,0,1.5Z" fill="#fff"/><path d="M367.79,1181.38a.75.75,0,0,0,0-1.5.75.75,0,0,0,0,1.5Z" fill="#fff"/><path d="M325.65,1185a.75.75,0,0,0,0-1.5.75.75,0,0,0,0,1.5Z" fill="#fff"/><path d="M338.64,1181.07a.75.75,0,0,0,0-1.5.75.75,0,0,0,0,1.5Z" fill="#fff"/><path d="M826.27,727.61a.75.75,0,0,0,0-1.5.75.75,0,0,0,0,1.5Z" fill="#fff"/><path d="M775.18,729.87a.75.75,0,0,0,0-1.5.75.75,0,0,0,0,1.5Z" fill="#fff"/><path d="M799.83,733a.75.75,0,0,0,0-1.5.75.75,0,0,0,0,1.5Z" fill="#fff"/><path d="M816.81,730.24a.75.75,0,0,0,0-1.5.75.75,0,0,0,0,1.5Z" fill="#fff"/><path d="M776.3,763.9a.75.75,0,0,0,0-1.5.75.75,0,0,0,0,1.5Z" fill="#fff"/><path d="M795.2,759.68a.75.75,0,0,0,0-1.5.75.75,0,0,0,0,1.5Z" fill="#fff"/><path d="M818.08,763.44a.75.75,0,0,0,0-1.5.75.75,0,0,0,0,1.5Z" fill="#fff"/><path d="M816.81,730.24a.75.75,0,0,0,0-1.5.75.75,0,0,0,0,1.5Z" fill="#fff"/><path d="M813.72,794.77a.75.75,0,0,0,0-1.5.75.75,0,0,0,0,1.5Z" fill="#fff"/><path d="M844.07,792.85a.75.75,0,0,0,0-1.5.75.75,0,0,0,0,1.5Z" fill="#fff"/><path d="M820.89,789.76a.75.75,0,0,0,0-1.5.75.75,0,0,0,0,1.5Z" fill="#fff"/><path d="M784.41,791.44a.75.75,0,0,0,0-1.5.75.75,0,0,0,0,1.5Z" fill="#fff"/><path d="M787.44,824.94a.75.75,0,0,0,0-1.5.75.75,0,0,0,0,1.5Z" fill="#fff"/><path d="M796.06,820.77a.75.75,0,0,0,0-1.5.75.75,0,0,0,0,1.5Z" fill="#fff"/><path d="M841.34,823.11a.75.75,0,0,0,0-1.5.75.75,0,0,0,0,1.5Z" fill="#fff"/><path d="M818.66,825.55a.75.75,0,0,0,0-1.5.75.75,0,0,0,0,1.5Z" fill="#fff"/><path d="M847.51,853a.75.75,0,0,0,0-1.5.75.75,0,0,0,0,1.5Z" fill="#fff"/><path d="M824.78,855.54a.75.75,0,0,0,0-1.5.75.75,0,0,0,0,1.5Z" fill="#fff"/><path d="M811,853.42a.75.75,0,0,0,0-1.5.75.75,0,0,0,0,1.5Z" fill="#fff"/><path d="M800.17,857.91a.75.75,0,0,0,0-1.5.75.75,0,0,0,0,1.5Z" fill="#fff"/><path d="M785,853a.75.75,0,0,0,0-1.5.75.75,0,0,0,0,1.5Z" fill="#fff"/><path d="M783.18,887.43a.75.75,0,0,0,0-1.5.75.75,0,0,0,0,1.5Z" fill="#fff"/><path d="M800.55,885.11a.75.75,0,0,0,0-1.5.75.75,0,0,0,0,1.5Z" fill="#fff"/><path d="M839.46,887.24a.75.75,0,0,0,0-1.5.75.75,0,0,0,0,1.5Z" fill="#fff"/><path d="M850.77,883.41a.75.75,0,0,0,0-1.5.75.75,0,0,0,0,1.5Z" fill="#fff"/><path d="M824.78,888.48a.75.75,0,0,0,0-1.5.75.75,0,0,0,0,1.5Z" fill="#fff"/><path d="M829.9,917.81a.75.75,0,0,0,0-1.5.75.75,0,0,0,0,1.5Z" fill="#fff"/><path d="M850.77,920.2a.75.75,0,0,0,0-1.5.75.75,0,0,0,0,1.5Z" fill="#fff"/><path d="M813.72,914.93a.75.75,0,0,0,0-1.5.75.75,0,0,0,0,1.5Z" fill="#fff"/><path d="M788.09,916.64a.75.75,0,0,0,0-1.5.75.75,0,0,0,0,1.5Z" fill="#fff"/><path d="M788.29,947.07a.75.75,0,0,0,0-1.5.75.75,0,0,0,0,1.5Z" fill="#fff"/><path d="M800,951a.75.75,0,0,0,0-1.5.75.75,0,0,0,0,1.5Z" fill="#fff"/><path d="M821.7,946.37a.75.75,0,0,0,0-1.5.75.75,0,0,0,0,1.5Z" fill="#fff"/><path d="M844.4,947.07a.75.75,0,0,0,0-1.5.75.75,0,0,0,0,1.5Z" fill="#fff"/><path d="M857.48,951a.75.75,0,0,0,0-1.5.75.75,0,0,0,0,1.5Z" fill="#fff"/><path d="M865.17,981.41a.75.75,0,0,0,0-1.5.75.75,0,0,0,0,1.5Z" fill="#fff"/><path d="M856.3,979.91a.75.75,0,0,0,0-1.5.75.75,0,0,0,0,1.5Z" fill="#fff"/><path d="M830.47,978.2a.75.75,0,0,0,0-1.5.75.75,0,0,0,0,1.5Z" fill="#fff"/><path d="M824.84,981.41a.75.75,0,0,0,0-1.5.75.75,0,0,0,0,1.5Z" fill="#fff"/><path d="M792.65,980.35a.75.75,0,0,0,0-1.5.75.75,0,0,0,0,1.5Z" fill="#fff"/><path d="M795,1013.14a.75.75,0,0,0,0-1.5.75.75,0,0,0,0,1.5Z" fill="#fff"/><path d="M805.72,1011.48a.75.75,0,0,0,0-1.5.75.75,0,0,0,0,1.5Z" fill="#fff"/><path d="M841.21,1010.27a.75.75,0,0,0,0-1.5.75.75,0,0,0,0,1.5Z" fill="#fff"/><path d="M857.48,1013.79a.75.75,0,0,0,0-1.5.75.75,0,0,0,0,1.5Z" fill="#fff"/><path d="M868.89,1010.27a.75.75,0,0,0,0-1.5.75.75,0,0,0,0,1.5Z" fill="#fff"/><path d="M832.7,1040a.75.75,0,0,0,0-1.5.75.75,0,0,0,0,1.5Z" fill="#fff"/><path d="M811,1044.15a.75.75,0,0,0,0-1.5.75.75,0,0,0,0,1.5Z" fill="#fff"/><path d="M797.26,1043.32a.75.75,0,0,0,0-1.5.75.75,0,0,0,0,1.5Z" fill="#fff"/><path d="M842.84,1071.79a.75.75,0,0,0,0-1.5.75.75,0,0,0,0,1.5Z" fill="#fff"/><path d="M813.72,1014.77a.75.75,0,0,0,0-1.5.75.75,0,0,0,0,1.5Z" fill="#fff"/><path d="M859,1042.36a.75.75,0,0,0,0-1.5.75.75,0,0,0,0,1.5Z" fill="#fff"/><path d="M873.56,1045.22a.75.75,0,0,0,0-1.5.75.75,0,0,0,0,1.5Z" fill="#fff"/><path d="M819.23,1047.47a.75.75,0,0,0,0-1.5.75.75,0,0,0,0,1.5Z" fill="#fff"/><path d="M835.16,1076.54a.75.75,0,0,0,0-1.5.75.75,0,0,0,0,1.5Z" fill="#fff"/><path d="M869.31,1076.84a.75.75,0,0,0,0-1.5.75.75,0,0,0,0,1.5Z" fill="#fff"/><path d="M859,1078.06a.75.75,0,0,0,0-1.5.75.75,0,0,0,0,1.5Z" fill="#fff"/><path d="M806.22,1074.51a.75.75,0,0,0,0-1.5.75.75,0,0,0,0,1.5Z" fill="#fff"/><path d="M817.1,1079.48a.75.75,0,0,0,0-1.5.75.75,0,0,0,0,1.5Z" fill="#fff"/><path d="M812.05,1111.11a.75.75,0,0,0,0-1.5.75.75,0,0,0,0,1.5Z" fill="#fff"/><path d="M830.75,1107.89a.75.75,0,0,0,0-1.5.75.75,0,0,0,0,1.5Z" fill="#fff"/><path d="M848.87,1109.42a.75.75,0,0,0,0-1.5.75.75,0,0,0,0,1.5Z" fill="#fff"/><path d="M875.92,1105.49a.75.75,0,0,0,0-1.5.75.75,0,0,0,0,1.5Z" fill="#fff"/><path d="M860.05,1102.23a.75.75,0,0,0,0-1.5.75.75,0,0,0,0,1.5Z" fill="#fff"/><path d="M881.85,1133.3a.75.75,0,0,0,0-1.5.75.75,0,0,0,0,1.5Z" fill="#fff"/><path d="M852.48,1138.61a.75.75,0,0,0,0-1.5.75.75,0,0,0,0,1.5Z" fill="#fff"/><path d="M824.64,1137a.75.75,0,0,0,0-1.5.75.75,0,0,0,0,1.5Z" fill="#fff"/><path d="M830.61,1168.64a.75.75,0,0,0,0-1.5.75.75,0,0,0,0,1.5Z" fill="#fff"/><path d="M841.42,1169.48a.75.75,0,0,0,0-1.5.75.75,0,0,0,0,1.5Z" fill="#fff"/><path d="M882.51,1169.48a.75.75,0,0,0,0-1.5.75.75,0,0,0,0,1.5Z" fill="#fff"/><path d="M869.72,1140.91a.75.75,0,0,0,0-1.5.75.75,0,0,0,0,1.5Z" fill="#fff"/><path d="M460.76,776.64a.75.75,0,0,0,0-1.5.75.75,0,0,0,0,1.5Z" fill="#fff"/><path d="M423.32,777.92a.75.75,0,0,0,0-1.5.75.75,0,0,0,0,1.5Z" fill="#fff"/><path d="M500.45,778.79a.75.75,0,0,0,0-1.5.75.75,0,0,0,0,1.5Z" fill="#fff"/><path d="M537.83,774.72a.75.75,0,0,0,0-1.5.75.75,0,0,0,0,1.5Z" fill="#fff"/><path d="M519.84,744.6a.75.75,0,0,0,0-1.5.75.75,0,0,0,0,1.5Z" fill="#fff"/><path d="M569.73,741.51a.75.75,0,0,0,0-1.5.75.75,0,0,0,0,1.5Z" fill="#fff"/><path d="M613.72,741.41a.75.75,0,0,0,0-1.5.75.75,0,0,0,0,1.5Z" fill="#fff"/><path d="M664.71,739a.75.75,0,0,0,0-1.5.75.75,0,0,0,0,1.5Z" fill="#fff"/><path d="M677.78,740.62a.75.75,0,0,0,0-1.5.75.75,0,0,0,0,1.5Z" fill="#fff"/><path d="M751.53,736a.75.75,0,0,0,0-1.5.75.75,0,0,0,0,1.5Z" fill="#fff"/><path d="M728.23,738.21a.75.75,0,0,0,0-1.5.75.75,0,0,0,0,1.5Z" fill="#fff"/><path d="M736.5,770.76a.75.75,0,0,0,0-1.5.75.75,0,0,0,0,1.5Z" fill="#fff"/><path d="M744.59,768.39a.75.75,0,0,0,0-1.5.75.75,0,0,0,0,1.5Z" fill="#fff"/><path d="M701.72,769.85a.75.75,0,0,0,0-1.5.75.75,0,0,0,0,1.5Z" fill="#fff"/><path d="M648.57,773.05a.75.75,0,0,0,0-1.5.75.75,0,0,0,0,1.5Z" fill="#fff"/><path d="M589.93,773a.75.75,0,0,0,0-1.5.75.75,0,0,0,0,1.5Z" fill="#fff"/><path d="M604.62,774.54a.75.75,0,0,0,0-1.5.75.75,0,0,0,0,1.5Z" fill="#fff"/><path d="M524.38,807.31a.75.75,0,0,0,0-1.5.75.75,0,0,0,0,1.5Z" fill="#fff"/><path d="M559.69,808.2a.75.75,0,0,0,0-1.5.75.75,0,0,0,0,1.5Z" fill="#fff"/><path d="M598.12,802a.75.75,0,0,0,0-1.5.75.75,0,0,0,0,1.5Z" fill="#fff"/><path d="M623.15,804.65a.75.75,0,0,0,0-1.5.75.75,0,0,0,0,1.5Z" fill="#fff"/><path d="M638.35,804.13a.75.75,0,0,0,0-1.5.75.75,0,0,0,0,1.5Z" fill="#fff"/><path d="M701.28,801.29a.75.75,0,0,0,0-1.5.75.75,0,0,0,0,1.5Z" fill="#fff"/><path d="M688.26,801.74a.75.75,0,0,0,0-1.5.75.75,0,0,0,0,1.5Z" fill="#fff"/><path d="M750.15,801a.75.75,0,0,0,0-1.5.75.75,0,0,0,0,1.5Z" fill="#fff"/><path d="M774.37,796.61a.75.75,0,0,0,0-1.5.75.75,0,0,0,0,1.5Z" fill="#fff"/><path d="M496.75,810.34a.75.75,0,0,0,0-1.5.75.75,0,0,0,0,1.5Z" fill="#fff"/><path d="M474.43,807.61a.75.75,0,0,0,0-1.5.75.75,0,0,0,0,1.5Z" fill="#fff"/><path d="M426.2,812.74a.75.75,0,0,0,0-1.5.75.75,0,0,0,0,1.5Z" fill="#fff"/><path d="M422,843.62a.75.75,0,0,0,0-1.5.75.75,0,0,0,0,1.5Z" fill="#fff"/><path d="M446.84,839.28a.75.75,0,0,0,0-1.5.75.75,0,0,0,0,1.5Z" fill="#fff"/><path d="M459.93,842.33a.75.75,0,0,0,0-1.5.75.75,0,0,0,0,1.5Z" fill="#fff"/><path d="M502.79,840.17a.75.75,0,0,0,0-1.5.75.75,0,0,0,0,1.5Z" fill="#fff"/><path d="M550.57,840a.75.75,0,0,0,0-1.5.75.75,0,0,0,0,1.5Z" fill="#fff"/><path d="M540.22,838.2a.75.75,0,0,0,0-1.5.75.75,0,0,0,0,1.5Z" fill="#fff"/><path d="M594,839.17a.75.75,0,0,0,0-1.5.75.75,0,0,0,0,1.5Z" fill="#fff"/><path d="M637.33,834.2a.75.75,0,0,0,0-1.5.75.75,0,0,0,0,1.5Z" fill="#fff"/><path d="M653.14,837.16a.75.75,0,0,0,0-1.5.75.75,0,0,0,0,1.5Z" fill="#fff"/><path d="M702,834.1a.75.75,0,0,0,0-1.5.75.75,0,0,0,0,1.5Z" fill="#fff"/><path d="M739.89,830.71a.75.75,0,0,0,0-1.5.75.75,0,0,0,0,1.5Z" fill="#fff"/><path d="M754.06,833a.75.75,0,0,0,0-1.5.75.75,0,0,0,0,1.5Z" fill="#fff"/><path d="M762.83,863.46a.75.75,0,0,0,0-1.5.75.75,0,0,0,0,1.5Z" fill="#fff"/><path d="M727.57,865.36a.75.75,0,0,0,0-1.5.75.75,0,0,0,0,1.5Z" fill="#fff"/><path d="M717.19,862.22a.75.75,0,0,0,0-1.5.75.75,0,0,0,0,1.5Z" fill="#fff"/><path d="M671.09,865.18a.75.75,0,0,0,0-1.5.75.75,0,0,0,0,1.5Z" fill="#fff"/><path d="M619.57,868.33a.75.75,0,0,0,0-1.5.75.75,0,0,0,0,1.5Z" fill="#fff"/><path d="M562.09,872.38a.75.75,0,0,0,0-1.5.75.75,0,0,0,0,1.5Z" fill="#fff"/><path d="M544.63,868.09a.75.75,0,0,0,0-1.5.75.75,0,0,0,0,1.5Z" fill="#fff"/><path d="M499.12,873.13a.75.75,0,0,0,0-1.5.75.75,0,0,0,0,1.5Z" fill="#fff"/><path d="M462.76,874.36a.75.75,0,0,0,0-1.5.75.75,0,0,0,0,1.5Z" fill="#fff"/><path d="M441,873a.75.75,0,0,0,0-1.5.75.75,0,0,0,0,1.5Z" fill="#fff"/><path d="M754.26,895.88a.75.75,0,0,0,0-1.5.75.75,0,0,0,0,1.5Z" fill="#fff"/><path d="M726,894.75a.75.75,0,0,0,0-1.5.75.75,0,0,0,0,1.5Z" fill="#fff"/><path d="M695.68,899.27a.75.75,0,0,0,0-1.5.75.75,0,0,0,0,1.5Z" fill="#fff"/><path d="M612,898.62a.75.75,0,0,0,0-1.5.75.75,0,0,0,0,1.5Z" fill="#fff"/><path d="M638.09,897.74a.75.75,0,0,0,0-1.5.75.75,0,0,0,0,1.5Z" fill="#fff"/><path d="M525.28,904.37a.75.75,0,0,0,0-1.5.75.75,0,0,0,0,1.5Z" fill="#fff"/><path d="M499.14,901.07a.75.75,0,0,0,0-1.5.75.75,0,0,0,0,1.5Z" fill="#fff"/><path d="M467.73,904.93a.75.75,0,0,0,0-1.5.75.75,0,0,0,0,1.5Z" fill="#fff"/><path d="M426.46,904.93a.75.75,0,0,0,0-1.5.75.75,0,0,0,0,1.5Z" fill="#fff"/><path d="M436.87,936a.75.75,0,0,0,0-1.5.75.75,0,0,0,0,1.5Z" fill="#fff"/><path d="M458.65,938.76a.75.75,0,0,0,0-1.5.75.75,0,0,0,0,1.5Z" fill="#fff"/><path d="M497.13,935.36a.75.75,0,0,0,0-1.5.75.75,0,0,0,0,1.5Z" fill="#fff"/><path d="M537.24,931.9a.75.75,0,0,0,0-1.5.75.75,0,0,0,0,1.5Z" fill="#fff"/><path d="M570.44,935.66a.75.75,0,0,0,0-1.5.75.75,0,0,0,0,1.5Z" fill="#fff"/><path d="M584.48,931.69a.75.75,0,0,0,0-1.5.75.75,0,0,0,0,1.5Z" fill="#fff"/><path d="M645.8,929.61a.75.75,0,0,0,0-1.5.75.75,0,0,0,0,1.5Z" fill="#fff"/><path d="M684.91,930.37a.75.75,0,0,0,0-1.5.75.75,0,0,0,0,1.5Z" fill="#fff"/><path d="M725.08,929.7a.75.75,0,0,0,0-1.5.75.75,0,0,0,0,1.5Z" fill="#fff"/><path d="M738,925.77a.75.75,0,0,0,0-1.5.75.75,0,0,0,0,1.5Z" fill="#fff"/><path d="M766.28,926.21a.75.75,0,0,0,0-1.5.75.75,0,0,0,0,1.5Z" fill="#fff"/><path d="M768.61,960.35a.75.75,0,0,0,0-1.5.75.75,0,0,0,0,1.5Z" fill="#fff"/><path d="M745.18,956.26a.75.75,0,0,0,0-1.5.75.75,0,0,0,0,1.5Z" fill="#fff"/><path d="M737.65,960a.75.75,0,0,0,0-1.5.75.75,0,0,0,0,1.5Z" fill="#fff"/><path d="M690.38,958.82a.75.75,0,0,0,0-1.5.75.75,0,0,0,0,1.5Z" fill="#fff"/><path d="M655.15,962.12a.75.75,0,0,0,0-1.5.75.75,0,0,0,0,1.5Z" fill="#fff"/><path d="M612.78,961.46a.75.75,0,0,0,0-1.5.75.75,0,0,0,0,1.5Z" fill="#fff"/><path d="M575.41,966.22a.75.75,0,0,0,0-1.5.75.75,0,0,0,0,1.5Z" fill="#fff"/><path d="M544.44,965.18a.75.75,0,0,0,0-1.5.75.75,0,0,0,0,1.5Z" fill="#fff"/><path d="M536.8,963.35a.75.75,0,0,0,0-1.5.75.75,0,0,0,0,1.5Z" fill="#fff"/><path d="M484.73,966.51a.75.75,0,0,0,0-1.5.75.75,0,0,0,0,1.5Z" fill="#fff"/><path d="M447.85,968.47a.75.75,0,0,0,0-1.5.75.75,0,0,0,0,1.5Z" fill="#fff"/><path d="M430.39,994.05a.75.75,0,0,0,0-1.5.75.75,0,0,0,0,1.5Z" fill="#fff"/><path d="M452.29,999.75a.75.75,0,0,0,0-1.5.75.75,0,0,0,0,1.5Z" fill="#fff"/><path d="M481.08,996.2a.75.75,0,0,0,0-1.5.75.75,0,0,0,0,1.5Z" fill="#fff"/><path d="M507.6,995.77a.75.75,0,0,0,0-1.5.75.75,0,0,0,0,1.5Z" fill="#fff"/><path d="M517.42,998.23a.75.75,0,0,0,0-1.5.75.75,0,0,0,0,1.5Z" fill="#fff"/><path d="M555.41,996.94a.75.75,0,0,0,0-1.5.75.75,0,0,0,0,1.5Z" fill="#fff"/><path d="M607,995.19a.75.75,0,0,0,0-1.5.75.75,0,0,0,0,1.5Z" fill="#fff"/><path d="M620,994.05a.75.75,0,0,0,0-1.5.75.75,0,0,0,0,1.5Z" fill="#fff"/><path d="M659,989.93a.75.75,0,0,0,0-1.5.75.75,0,0,0,0,1.5Z" fill="#fff"/><path d="M685.67,993.91a.75.75,0,0,0,0-1.5.75.75,0,0,0,0,1.5Z" fill="#fff"/><path d="M726.33,990.43a.75.75,0,0,0,0-1.5.75.75,0,0,0,0,1.5Z" fill="#fff"/><path d="M762.15,989.91a.75.75,0,0,0,0-1.5.75.75,0,0,0,0,1.5Z" fill="#fff"/><path d="M770.44,1023.15a.75.75,0,0,0,0-1.5.75.75,0,0,0,0,1.5Z" fill="#fff"/><path d="M755.7,1019.46a.75.75,0,0,0,0-1.5.75.75,0,0,0,0,1.5Z" fill="#fff"/><path d="M706.89,1022.52a.75.75,0,0,0,0-1.5.75.75,0,0,0,0,1.5Z" fill="#fff"/><path d="M659.17,1025.54a.75.75,0,0,0,0-1.5.75.75,0,0,0,0,1.5Z" fill="#fff"/><path d="M639,1024.13a.75.75,0,0,0,0-1.5.75.75,0,0,0,0,1.5Z" fill="#fff"/><path d="M600.56,1027.53a.75.75,0,0,0,0-1.5.75.75,0,0,0,0,1.5Z" fill="#fff"/><path d="M563.63,1027.39a.75.75,0,0,0,0-1.5.75.75,0,0,0,0,1.5Z" fill="#fff"/><path d="M530.56,1029.92a.75.75,0,0,0,0-1.5.75.75,0,0,0,0,1.5Z" fill="#fff"/><path d="M493.62,1029.08a.75.75,0,0,0,0-1.5.75.75,0,0,0,0,1.5Z" fill="#fff"/><path d="M466,1031.41a.75.75,0,0,0,0-1.5.75.75,0,0,0,0,1.5Z" fill="#fff"/><path d="M440.44,1030.89a.75.75,0,0,0,0-1.5.75.75,0,0,0,0,1.5Z" fill="#fff"/><path d="M431.85,1062.61a.75.75,0,0,0,0-1.5.75.75,0,0,0,0,1.5Z" fill="#fff"/><path d="M452.29,1057.62a.75.75,0,0,0,0-1.5.75.75,0,0,0,0,1.5Z" fill="#fff"/><path d="M478,1060.34a.75.75,0,0,0,0-1.5.75.75,0,0,0,0,1.5Z" fill="#fff"/><path d="M515.46,1061.86a.75.75,0,0,0,0-1.5.75.75,0,0,0,0,1.5Z" fill="#fff"/><path d="M537.68,1059.71a.75.75,0,0,0,0-1.5.75.75,0,0,0,0,1.5Z" fill="#fff"/><path d="M576.77,1059.08a.75.75,0,0,0,0-1.5.75.75,0,0,0,0,1.5Z" fill="#fff"/><path d="M609.33,1058a.75.75,0,0,0,0-1.5.75.75,0,0,0,0,1.5Z" fill="#fff"/><path d="M635.39,1057.78a.75.75,0,0,0,0-1.5.75.75,0,0,0,0,1.5Z" fill="#fff"/><path d="M667.89,1053.88a.75.75,0,0,0,0-1.5.75.75,0,0,0,0,1.5Z" fill="#fff"/><path d="M698.91,1057a.75.75,0,0,0,0-1.5.75.75,0,0,0,0,1.5Z" fill="#fff"/><path d="M717.84,1053.58a.75.75,0,0,0,0-1.5.75.75,0,0,0,0,1.5Z" fill="#fff"/><path d="M751.5,1053.14a.75.75,0,0,0,0-1.5.75.75,0,0,0,0,1.5Z" fill="#fff"/><path d="M755.94,1084.42a.75.75,0,0,0,0-1.5.75.75,0,0,0,0,1.5Z" fill="#fff"/><path d="M767.89,1084.71a.75.75,0,0,0,0-1.5.75.75,0,0,0,0,1.5Z" fill="#fff"/><path d="M710.32,1083.87a.75.75,0,0,0,0-1.5.75.75,0,0,0,0,1.5Z" fill="#fff"/><path d="M654.49,1089.26a.75.75,0,0,0,0-1.5.75.75,0,0,0,0,1.5Z" fill="#fff"/><path d="M617.57,1089.12a.75.75,0,0,0,0-1.5.75.75,0,0,0,0,1.5Z" fill="#fff"/><path d="M595.92,1092.65a.75.75,0,0,0,0-1.5.75.75,0,0,0,0,1.5Z" fill="#fff"/><path d="M549.74,1091.43a.75.75,0,0,0,0-1.5.75.75,0,0,0,0,1.5Z" fill="#fff"/><path d="M516.63,1092.55a.75.75,0,0,0,0-1.5.75.75,0,0,0,0,1.5Z" fill="#fff"/><path d="M500.4,1095.2a.75.75,0,0,0,0-1.5.75.75,0,0,0,0,1.5Z" fill="#fff"/><path d="M463.43,1093a.75.75,0,0,0,0-1.5.75.75,0,0,0,0,1.5Z" fill="#fff"/><path d="M442,1096a.75.75,0,0,0,0-1.5.75.75,0,0,0,0,1.5Z" fill="#fff"/><path d="M726.74,1116.84a.75.75,0,0,0,0-1.5.75.75,0,0,0,0,1.5Z" fill="#fff"/><path d="M752.27,1117.37a.75.75,0,0,0,0-1.5.75.75,0,0,0,0,1.5Z" fill="#fff"/><path d="M682.26,1119.05a.75.75,0,0,0,0-1.5.75.75,0,0,0,0,1.5Z" fill="#fff"/><path d="M612.28,1122.83a.75.75,0,0,0,0-1.5.75.75,0,0,0,0,1.5Z" fill="#fff"/><path d="M571,1120.74a.75.75,0,0,0,0-1.5.75.75,0,0,0,0,1.5Z" fill="#fff"/><path d="M527.59,1123.61a.75.75,0,0,0,0-1.5.75.75,0,0,0,0,1.5Z" fill="#fff"/><path d="M488.57,1127.73a.75.75,0,0,0,0-1.5.75.75,0,0,0,0,1.5Z" fill="#fff"/><path d="M452.16,1126.18a.75.75,0,0,0,0-1.5.75.75,0,0,0,0,1.5Z" fill="#fff"/><path d="M445.76,1158.53a.75.75,0,0,0,0-1.5.75.75,0,0,0,0,1.5Z" fill="#fff"/><path d="M459.71,1158.53a.75.75,0,0,0,0-1.5.75.75,0,0,0,0,1.5Z" fill="#fff"/><path d="M506,1157.18a.75.75,0,0,0,0-1.5.75.75,0,0,0,0,1.5Z" fill="#fff"/><path d="M562.93,1152.45a.75.75,0,0,0,0-1.5.75.75,0,0,0,0,1.5Z" fill="#fff"/><path d="M584.16,1155.22a.75.75,0,0,0,0-1.5.75.75,0,0,0,0,1.5Z" fill="#fff"/><path d="M636.77,1152a.75.75,0,0,0,0-1.5.75.75,0,0,0,0,1.5Z" fill="#fff"/><path d="M650.88,1151.55a.75.75,0,0,0,0-1.5.75.75,0,0,0,0,1.5Z" fill="#fff"/><path d="M712.7,1147.35a.75.75,0,0,0,0-1.5.75.75,0,0,0,0,1.5Z" fill="#fff"/><path d="M746.43,1150.4a.75.75,0,0,0,0-1.5.75.75,0,0,0,0,1.5Z" fill="#fff"/><path d="M767,1147.6a.75.75,0,0,0,0-1.5.75.75,0,0,0,0,1.5Z" fill="#fff"/><path d="M767.11,1179a.75.75,0,0,0,0-1.5.75.75,0,0,0,0,1.5Z" fill="#fff"/><path d="M739.46,1181.37a.75.75,0,0,0,0-1.5.75.75,0,0,0,0,1.5Z" fill="#fff"/><path d="M696.59,1182.83a.75.75,0,0,0,0-1.5.75.75,0,0,0,0,1.5Z" fill="#fff"/><path d="M676,1184.92a.75.75,0,0,0,0-1.5.75.75,0,0,0,0,1.5Z" fill="#fff"/><path d="M661.82,1181.91a.75.75,0,0,0,0-1.5.75.75,0,0,0,0,1.5Z" fill="#fff"/><path d="M600,1185.41a.75.75,0,0,0,0-1.5.75.75,0,0,0,0,1.5Z" fill="#fff"/><path d="M558.79,1188.91a.75.75,0,0,0,0-1.5.75.75,0,0,0,0,1.5Z" fill="#fff"/><path d="M546.76,1185.13a.75.75,0,0,0,0-1.5.75.75,0,0,0,0,1.5Z" fill="#fff"/><path d="M496.9,1189.62a.75.75,0,0,0,0-1.5.75.75,0,0,0,0,1.5Z" fill="#fff"/><path d="M462.17,1190.8a.75.75,0,0,0,0-1.5.75.75,0,0,0,0,1.5Z" fill="#fff"/><path d="M437.76,1192.33a.75.75,0,0,0,0-1.5.75.75,0,0,0,0,1.5Z" fill="#fff"/><path d="M438.35,1220.94a.75.75,0,0,0,0-1.5.75.75,0,0,0,0,1.5Z" fill="#fff"/><path d="M465.57,1224.21a.75.75,0,0,0,0-1.5.75.75,0,0,0,0,1.5Z" fill="#fff"/><path d="M493.13,1217.68a.75.75,0,0,0,0-1.5.75.75,0,0,0,0,1.5Z" fill="#fff"/><path d="M506.76,1220.71a.75.75,0,0,0,0-1.5.75.75,0,0,0,0,1.5Z" fill="#fff"/><path d="M506.76,1220.71a.75.75,0,0,0,0-1.5.75.75,0,0,0,0,1.5Z" fill="#fff"/><path d="M549.05,1217.18a.75.75,0,0,0,0-1.5.75.75,0,0,0,0,1.5Z" fill="#fff"/><path d="M590.3,1216.48a.75.75,0,0,0,0-1.5.75.75,0,0,0,0,1.5Z" fill="#fff"/><path d="M627.26,1218a.75.75,0,0,0,0-1.5.75.75,0,0,0,0,1.5Z" fill="#fff"/><path d="M679.24,1210.66a.75.75,0,0,0,0-1.5.75.75,0,0,0,0,1.5Z" fill="#fff"/><path d="M702.12,1214.07a.75.75,0,0,0,0-1.5.75.75,0,0,0,0,1.5Z" fill="#fff"/><path d="M747.11,1210.44a.75.75,0,0,0,0-1.5.75.75,0,0,0,0,1.5Z" fill="#fff"/><path d="M346.44,1211.89a.75.75,0,0,0,0-1.5.75.75,0,0,0,0,1.5Z" fill="#fff"/><path d="M362.26,1215.9a.75.75,0,0,0,0-1.5.75.75,0,0,0,0,1.5Z" fill="#fff"/><path d="M408.67,1058.34a.75.75,0,0,0,0-1.5.75.75,0,0,0,0,1.5Z" fill="#fff"/><path d="M838.86,763.19a.75.75,0,0,0,0-1.5.75.75,0,0,0,0,1.5Z" fill="#fff"/><path d="M864.17,1168.35a.75.75,0,0,0,0-1.5.75.75,0,0,0,0,1.5Z" fill="#fff"/><path d="M836,1203.05a.75.75,0,0,0,0-1.5.75.75,0,0,0,0,1.5Z" fill="#fff"/><path d="M848.81,1198.65a.75.75,0,0,0,0-1.5.75.75,0,0,0,0,1.5Z" fill="#fff"/><path d="M862.32,1201.21a.75.75,0,0,0,0-1.5.75.75,0,0,0,0,1.5Z" fill="#fff"/><path d="M889.06,1201.63a.75.75,0,0,0,0-1.5.75.75,0,0,0,0,1.5Z" fill="#fff"/><path d="M416.16,1054.08c-4.13,18.21-9,39.79-13.91,55.27-9.82,31-13.08,105-15.36,135.21-.95,12.67,4.66,27,4.66,27l-61,1.5c-16.33-18.73-8.93-129.51-14.45-197.93A619.73,619.73,0,0,1,319.74,947s-18.06-297.33,26.67-324.28,145.47-89.52,145.47-89.52-.25-.24.72,2.61c4.12,12.15,21.13,51.38,86.21,51.38,80.36,0,82.85-55,82.85-55S793.07,581.32,804,588.43c38.3,25,52.88,331.94,52.88,331.94s19,68.76,22.89,124.63c5.57,81.26,18.66,177.57,17.84,189.79s-5.3,18.88-5.3,18.88h-58.1s-1.25-8-2.88-34.36c-1.9-30.61-17.16-87.16-32.82-134.18" fill="none" stroke="#262521" stroke-linecap="round" stroke-linejoin="round" stroke-width="3"/><path d="M762.47,718.23l6.39,91.36S781.07,929.93,785,976.86c5,60.95,34.19,222,24.8,238.24.78,13.6,4,50.63,4,50.63s-124.58,20.75-262.1,22.4c-77,.93-148.52-16.53-148.52-16.53s.36-37.51.31-50.49c-12.31-27.18,12.72-151.9,13.55-173.39,1.52-39-3.82-238.13-3.82-238.13l-4.64-78.08" fill="none" stroke="#262521" stroke-linecap="round" stroke-linejoin="round" stroke-width="3"/><path d="M403.1,1271.6s71.52,17.46,148.52,16.53c137.52-1.65,262.1-22.4,262.1-22.4" fill="none" stroke="#636363" stroke-linecap="round" stroke-linejoin="round"/><path d="M480.43,548.4s21.5,56.91,100.81,56.91,94.26-62,94.26-62" fill="none" stroke="#636363" stroke-linecap="round" stroke-linejoin="round"/></svg>