<svg xmlns="http://www.w3.org/2000/svg" width="1000" height="1550" viewBox="0 0 1000 1550"><path d="M279.43 1259.19L676 1242.8l24.8 312.66c-209.14 38.46-397.55 3.91-397.55 3.91z" fill="#262521" stroke="#262521" stroke-linecap="round" stroke-linejoin="round" stroke-width="3"/><path d="M676.51 1234.76l4.89 48.52s-66.3 16.92-180.1 21.41-225-13.77-225-13.77l1.64-34.94z" fill="#fff" stroke="#262521" stroke-linecap="round" stroke-miterlimit="10" stroke-width="3"/><path d="M676.32 601.23C665.44 594.13 526.79 528 526.79 528s-9 42.68-63.91 47.58c-64.83 5.79-86.64-36-90.75-48.14l-87.92 73.81" fill="#fff" stroke="#262521" stroke-linecap="round" stroke-linejoin="round" stroke-width="3"/><path d="M752.22 1043c-3.84-55.87-22.89-124.63-22.89-124.63s-14.58-307-52.88-331.94c-10.88-7.11-142.29-56.21-142.29-56.21s-2.49 55-82.85 55c-65.08 0-82.09-39.23-86.21-51.38a11.73 11.73 0 01-.75-2.59c-1 .64-100.94 62.69-145.44 89.5C174.18 647.69 192.24 945 192.24 945a619.73 619.73 0 00-3.6 128.12c5.52 68.42-1.88 179.2 14.45 197.93l61-1.5s-5.61-14.34-4.66-27c2.28-30.22 5.54-104.26 15.36-135.21S296.2 1019 296.2 1019c.49 23.68.3 42.22-1 50.32-3.6 21.92-31.66 102.79-17.78 133.07-3.34 29.29-5.7 66.94-5.7 66.94s101 22.75 178 21.82c137.52-1.66 234.85-32.7 234.85-32.7s-2.28-35.71-5.33-60.53c9.94-22.61-4.2-83.51-17.91-143 17.07 47.16 40.24 126.63 42.46 162.32 1.63 26.39 2.88 34.36 2.88 34.36h58.1s4.49-6.66 5.3-18.88-12.28-108.46-17.85-189.72z" fill="#262521" stroke="#262521" stroke-linecap="round" stroke-linejoin="round" stroke-width="3"/><path d="M711 1219s30.63-3.83 52.37 0M200.25 1236.47s30.64-3.84 52.37 0M286.17 1219s168.07 32.86 378.14-4.33M352.93 546.4s21.5 56.91 100.81 56.91 94.26-62 94.26-62" fill="none" stroke="#636363" stroke-linecap="round" stroke-linejoin="round"/><path d="M447.89 696s1.23-15.7 3.49-16 8.71 62 8.71 62 17.45-65 32.26-75.11c0 0-4.06 14-4 15.79s3.35 2.16 3.16 3.93-10.24 25.11-10.28 31.17-14.38 51.51-14 61.6 3.31 22.87 1.27 29.5a111.71 111.71 0 01-4.63 12.28s-6.2-4.07-6.64-9.61.43-16.69-1.83-23.68-11.26-25.37-11.46-30.87l-.48-13.87s-2.25 22.55-3.43 24.86-4 8-3.82 13.52-3.72 9.47-2.89 11.47 2.43 4.46 1.75 6.75-8.22 18-10.64 20.83a14.55 14.55 0 01-5.68 4s4.27-15.3 4.95-17.59-3.85-1.89-1.76-7.27-.17-33.83 1.82-42 12.07-67.39 24.13-61.7z" fill="#fff" stroke="#fff" stroke-linecap="round" stroke-linejoin="round" stroke-width="1.31"/><path d="M518.74 743.5c-2.14-3.21-9.89-8.49-3-13.53 0 0-6.13-9.39-11.92-8.93s-12.61 7.76-13.73 12.09-11.65 13.53-12.47 19.12-4.62 26.93-.95 38.17 13 18.23 13.06 19.75 10 4.7 12-3.2 8.66-19.74 11.78-24.4 7.36-35.86 5.23-39.07zm-9.12 14c-4.84-1.34-11.54 9.5-12 18.35s-.78 14.42-7.12 13.88-3.63-17.55.17-31.57S504 740 507 740.62s2.62 16.83 2.62 16.83zM385.92 831.69s-17.65.86-19.67.68-1.1 4.84-1.1 4.84-4.68 3.44-2.32 5.89-3.16 3.64-3.16 3.64 6.41 2.81 9 4 6.53 6.34 7.47 4.29a5.23 5.23 0 015.45-3.22s-.41 10.12-5.66 26.21 2.8 51.67 2.8 51.67-5.47 9.79-3.52 15.28 4 5.16 4.06 7.69.76 7.29 3.26 6.7 1.57-20.26 1.57-20.26 6.42-4.26 5.39-4.73-8.17-2.75-6.28-6.35 6.11 2.57 6.12-1.47 4.86-68.1 12.49-73.92c0 0 30.13 2.24 29.79-.28a19.61 19.61 0 01-.15-4.28s14.93 1 14.89-.27-1.82-1.45-3.14-3.17 6.58.53 6.51-1.74-17.72-1.43-17.72-1.43 4.63-5-1.7-5.24-26-2.64-26-2.64.46-4.81-2.07-5-5.66 2.22-5.66 2.22 5.18-8.77 3.14-9.2-13.79 10.09-13.79 10.09z" fill="#fff" stroke="#fff" stroke-linecap="round" stroke-linejoin="round" stroke-width="1.31"/><path d="M444.83 877.38c-1.14-3.75-9.45-10.28-9.45-10.28l-.15-4.54s-10.16-1.67-12.36.43-6.24 9.56-9.6 14.73-13.8 24.47-12.67 35a121.78 121.78 0 003.7 19.32l-5.24 1.96s5.65 10.16 11.7 9.7 13.73 2.8 23.14-10.15 10.53-16.78 10.26-24.6 1.84-27.82.67-31.57zm-11.55 16.56c-.56 5.58-3.51 22.6-15.09 31.08s-8.27-20-8.27-20 1.31 8.43 4.72 5 10-10.44 6.31-21.93a6.66 6.66 0 016.18-4c4.55.06 6.72 4.28 6.15 9.85zM469 854.07s-9.47-3.71-13.36.46-7.67 41.18-7.46 54.56 8.77 27.22 13.95 27.29 8.89-2.21 12.34-11.86 14.23-48.66 14.05-53.7-1.18-12.34-6.49-12.66-4.23 1.92-5.81 7.53-2.68 31.79-4.83 35.46-6.83-.46-5.9 4.56-.45 16.18-3.85 16.55-4.58-56.41 7.36-68.19zM525.24 865.76l5-.18s-2.58 5.9-4.83 6.49 1.59 9.54.35 10.09-10.09 7.67-10.54 1.88 2.08-14.72-1.61-14.6-14.61 26.95-14.37 33.17l.63 18.07s10-12 15.14-12.14 10 1 5.84 5.4-12.19 27.4-19 28.39-16.85 2.18-13.57-27.27 19.16-66.62 26.65-69.15 10.31 19.85 10.31 19.85zM554.26 872.33s-3.66-10.76-3.54-14.66 5.46-17.48 5.32-21.26-11.59-14-11.59-14-10.62 14.19-8.56 22.59-2.71 16.67-2.59 20.2-5.78 44.39-2.17 61.19 9 19.64 10.13 22.88a7.91 7.91 0 004.46 4.43s2.81-6.2.93-9.41-2.25-43.11-.37-47.22 7.54-1 7.54-1 .94 34.56 1.32 38.34 3.24 13.27 6.27 13.16 1.37 10.56 4.15 10.47.94-23.77.94-23.77a14 14 0 005.68-11.06c.24-7.59 2.37-33.67 3.32-42.79s6.86-35.35 5.21-39.08-12.5-3.6-13-2.07-7.71 30.34-7.71 32.36-5.74.7-5.74.7z" fill="#fff" stroke="#fff" stroke-linecap="round" stroke-linejoin="round" stroke-width="1.31"/><path d="M536.58 966.3c-1.9 2.53-3.7 5.14-5.36 7.84a32.21 32.21 0 00-4.09 8.27c-.38 1.41-.49 3 1 3.81s2.86-.16 4-.82a74.18 74.18 0 008-5.22 2 2 0 00-.47-3.58 14.35 14.35 0 00-8.58-.14c-2.44.71-1.42 4.32 1 3.78l4.31-.94 1.92-.41c.42-.09 1.18-.39 1.5-.26l-.87-.5.19.18-.31-2.38q-1.83 2.91-3.77 5.73c-1.23 1.8 1.09 3.4 2.69 2.69 3.86-1.71 6.61-5.15 10.48-6.86l-2.69-2.68q-1.26 2.9-2.74 5.69c-1 1.86 1.65 4.21 3.08 2.37a71.06 71.06 0 007.36-12.44c1-1.92-1.46-4.07-3.08-2.38a79 79 0 00-7 8.38c-1.84 2.55-5 6.05-3.88 9.44a2 2 0 002.88 1.17 46 46 0 0010.79-7l-3.28-.87.5 1.38a2 2 0 002.88 1.18c.21-.09.56-.11.71-.24a.2.2 0 01.17 0q.35.09-.36-.36c-.2.08.09 1.67.11 1.74a2.84 2.84 0 002.7 2.16c1.27 0 2.38-.95 3.34-1.7a18.9 18.9 0 002.56-2.42 29.23 29.23 0 006.14-12.91 2 2 0 00-3.29-1.91c-4.71 4.76-5.86 11.49-9.13 17.12-1.28 2.19 2.12 4.17 3.39 2 3.06-5.27 4.12-11.88 8.52-16.33l-3.28-1.91a29.61 29.61 0 01-3 8.25 18.76 18.76 0 01-2.42 3.38 15.6 15.6 0 01-1.61 1.54c-.2.17-.42.33-.63.49l-.47.32c-.44.21-.42.27.06.17l.87.5c.12.44.16.42.13-.06v-.38a4.39 4.39 0 00-.18-1.25 3.24 3.24 0 00-1.53-1.84c-1.57-.87-3.19-.36-4.72.3l2.88 1.18-.5-1.38a2 2 0 00-3.28-.87 41.82 41.82 0 01-10 6.36l2.88 1.17c-.37-1.16.84-2.5 1.44-3.42.82-1.26 1.69-2.5 2.59-3.72a70.72 70.72 0 015.85-6.85l-3.08-2.38a67.5 67.5 0 01-6.74 11.65l3.08 2.38q1.49-2.79 2.75-5.69a2 2 0 00-2.69-2.69c-3.87 1.71-6.62 5.15-10.49 6.86l2.69 2.68q1.93-2.82 3.77-5.72a2 2 0 00-.31-2.38c-1.38-1.39-3.2-.75-4.87-.39l-6 1.31 1 3.78a10.58 10.58 0 016.49.14l-.47-3.59q-2.28 1.71-4.7 3.24c-.77.48-1.55 1-2.34 1.41l-1.19.68-.6.33c-.44.26-.53.3-.28.11l1.39.57-.21-.16.51.86c0 .13.19-.5.21-.58.1-.36.22-.71.35-1a17.07 17.07 0 01.9-1.94c.74-1.41 1.56-2.79 2.4-4.14 1.65-2.7 3.45-5.31 5.35-7.83a2 2 0 00-.7-2.69 2 2 0 00-2.69.7z" fill="#fff"/><path d="M526.6 1007.12a18.29 18.29 0 012.22-5.8c1-1.88 2-3.71 3.15-5.51s2.27-3.57 3.47-5.32a19.13 19.13 0 013.32-4.31 2.94 2.94 0 01.86-.53c.84-.29.26.05.3-.3a5.32 5.32 0 01-.36 1.83 15.19 15.19 0 01-3.29 4.39 45 45 0 01-9.18 6.54 2 2 0 00-.71 2.69 17.89 17.89 0 0010.26 8.71c1.81.6 5.19 1.68 6.39-.44a21.15 21.15 0 001.33-4l1.33-4.25c.76-2.41-3-3.45-3.78-1l-1.27 4-.56 1.79a13 13 0 01-.57 1.69l1.17-.9c-.69.26-2.28-.4-3-.64a13.34 13.34 0 01-3.25-1.62 13.75 13.75 0 01-4.66-5.29l-.7 2.69a53.44 53.44 0 009.25-6.46c2.52-2.32 5.62-5.77 5.56-9.43a3.81 3.81 0 00-3.08-3.92 6.13 6.13 0 00-5.09 2 28 28 0 00-3.41 4.48c-1.2 1.75-2.37 3.51-3.48 5.31s-2.34 3.89-3.39 5.9a21.77 21.77 0 00-2.62 6.74 2 2 0 001.37 2.42 2 2 0 002.42-1.38z" fill="#fff"/><path d="M541.25 995.22a36.29 36.29 0 00-3.87 6.19c-.82 1.68.91 3.76 2.69 2.68a58.86 58.86 0 0010.59-8.19l-3.08-2.38a69.29 69.29 0 00-3.54 6.71c-.79 1.94-.5 4.36 1.57 5.37a4 4 0 005.12-2.05c1-2.13 1-4.92 1-7.24l-3.86.52a7.61 7.61 0 001.58 2.58 17.73 17.73 0 002.43 1.71l-.71-.71c0 .05-.2 1.18-.2 1.55a3 3 0 001.38 2.44 2 2 0 002.68-.7c2.05-3.46 4-7 5.88-10.53.92-1.75 1.83-3.5 2.68-5.27a3.43 3.43 0 00.45-2.76 2.56 2.56 0 00-1.88-1.58c-2-.44-3.2 1.47-4.18 2.89a41.8 41.8 0 00-2.86 4.77 45.54 45.54 0 00-3.81 10.3 43.88 43.88 0 00-1 6c-.17 1.92.64 3.91 2.81 4a2 2 0 001.7-1 68.22 68.22 0 006.52-14.44l-3.59.47 2.1 3.13a2 2 0 003.39 0l1.35-2.52-3.66-1c.07 2.21.07 4.43 0 6.65a2 2 0 002.95 1.69c1.64-.95 2.34-2.76 3.19-4.36l3-5.66h-3.37a3.85 3.85 0 01.54 1.61 2 2 0 002.42 1.37 2 2 0 001.37-2.41 6.66 6.66 0 00-.94-2.55 2 2 0 00-3.39 0l-2.54 4.82-1.21 2.3c-.27.51-.5 1.19-1 1.49l2.95 1.7q.14-3.33 0-6.65c-.07-1.87-2.71-2.79-3.66-1l-1.35 2.53h3.39l-2.1-3.13a2 2 0 00-3.59.47 63.88 63.88 0 01-6.12 13.5l1.69-1h-.24l1 .27c.55.25.28.68.37-.32 0-.43.08-.85.14-1.28.13-1 .31-1.91.51-2.86a42.7 42.7 0 011.72-6 39.53 39.53 0 012.48-5.37c.48-.88 1-1.74 1.54-2.57.26-.41 1.15-2.1 1.5-2.15h-1l-.71-.7.12.23-.27-1a9.29 9.29 0 01-.92 1.71l-1.08 2.11q-1 2-2.09 4-2.19 4.06-4.55 8l2.69-.71-.19-.14.71.71c.24.34-.07.58.06.12a6.68 6.68 0 00.15-1.08 3.51 3.51 0 00-.36-2c-.72-1.31-2.46-1.39-3-2.84-.78-1.94-3.86-1.86-3.86.52a28.26 28.26 0 01-.25 4.11c-.07.46-.31.93-.36 1.37 0-.07-.12.27-.13.19s.29.36.43.31.42-1.16.49-1.29c.3-.57.61-1.13.91-1.69l2.03-3.68a2 2 0 00-3.08-2.38 54.14 54.14 0 01-9.8 7.58l2.69 2.69a36 36 0 013.86-6.19 2 2 0 10-3.39-2z" fill="#fff"/></svg>