<svg xmlns="http://www.w3.org/2000/svg" width="1000" height="1550" viewBox="0 0 1000 1550"><path d="M279.43 1264.5L676 1248.11l22.8 267.08c-209.14 38.46-397.55 3.91-397.55 3.91z" fill="#262521" stroke="#262521" stroke-linecap="round" stroke-linejoin="round" stroke-width="3"/><path d="M752.22 1043c-3.84-55.87-22.89-124.63-22.89-124.63s-14.58-307-52.88-331.94c-10.88-7.11-144.79-56.71-144.79-56.71s-2.9 48.75-79.69 48.75c-65.08 0-80.13-33.31-84.24-45.45a10.75 10.75 0 01-.75-2.6c-1 .65-103.57 63.51-148.07 90.32C174.18 647.69 192.24 945 192.24 945a619.73 619.73 0 00-3.6 128.12c5.52 68.42-1.88 179.2 14.45 197.93l61-1.5s-5.61-14.34-4.66-27c2.28-30.22 5.54-104.26 15.36-135.21S296.2 1019 296.2 1019c.49 23.68.3 42.22-1 50.32-3.6 21.92-31.66 102.79-17.78 133.07-3.34 29.29-5.7 66.94-5.7 66.94s95.7 25.59 172.7 24.66c137.52-1.66 240.17-35.54 240.17-35.54s-2.28-35.71-5.33-60.53c9.94-22.61-4.2-83.51-17.91-143 17.07 47.16 40.24 126.63 42.46 162.32 1.63 26.39 2.88 34.36 2.88 34.36h58.1s4.49-6.66 5.3-18.88-12.3-108.46-17.87-189.72z" fill="#262521" stroke="#262521" stroke-linecap="round" stroke-linejoin="round" stroke-width="3"/><path d="M271.69 1269.35s95.7 25.59 172.7 24.66c137.52-1.66 240.17-35.54 240.17-35.54" fill="none" stroke="#636363" stroke-linecap="round" stroke-linejoin="round"/><path d="M362.62 618.11a52.37 52.37 0 01-9.43 23 31.67 31.67 0 01-8.09 7.7c-1.24.8-.09 2.8 1.16 2 9.88-6.42 15.43-18 18-29.15.22-1 .44-2 .58-3 .22-1.45-2-2.07-2.21-.61z" fill="#44433f"/><path d="M347.19 627.51a84.28 84.28 0 01-.16 10 49.74 49.74 0 01-1.16 8.05c-.51 2-1.18 4.39-2.68 6s-3.5 1.3-5.46.13a1.16 1.16 0 00-1.17 2c12 7.1 12.94-15.21 13-21.85 0-1.45 0-2.89-.07-4.34s-2.37-1.48-2.3 0z" fill="#44433f"/><path d="M340.29 627.75a80.3 80.3 0 01-.81 11.49 41.28 41.28 0 01-2 8.64 13.24 13.24 0 01-1.68 3.23 5.3 5.3 0 01-1.9 1.6 3.65 3.65 0 01-2.95-.2 14.7 14.7 0 01-4.51-3.56c-1-1.08-2.65.55-1.63 1.63 2.09 2.21 5 4.89 8.31 4.64 2.62-.2 4.45-2.26 5.59-4.46 2.81-5.41 3.37-12.07 3.74-18.07.1-1.64.17-3.29.17-4.94a1.15 1.15 0 00-2.3 0z" fill="#44433f"/><path d="M334.59 626.6a68.72 68.72 0 01-3.71 11.26 32.64 32.64 0 01-4.33 7.68c-1.44 1.78-3.37 3.49-5.63 3.42-3.61-.11-6.41-4.28-8.15-7.05-.78-1.26-2.77-.1-2 1.16 2 3.17 4.63 6.86 8.43 7.93 2.78.78 5.44-.36 7.47-2.24A25.06 25.06 0 00332 641a67 67 0 003.46-8.89c.51-1.61 1-3.24 1.38-4.89.34-1.44-1.88-2.06-2.22-.61z" fill="#44433f"/><path d="M325.57 618.31a101 101 0 01-5.43 11.77 45.61 45.61 0 01-5.23 8.06 14.15 14.15 0 01-2.8 2.63 3.77 3.77 0 01-2.48.8 2 2 0 01-.56-.13.76.76 0 01-.23-.1l-.39-.23a5.6 5.6 0 01-1.21-1.22 18.64 18.64 0 01-2.59-6 1.15 1.15 0 00-2.22.62c.89 3.14 2.23 7.49 5.5 9 2.54 1.15 5.08-.26 7-2a33.45 33.45 0 006.05-8.11 95.9 95.9 0 004.6-9.11c.79-1.76 1.56-3.54 2.25-5.34.53-1.39-1.7-2-2.22-.61z" fill="#44433f"/><path d="M319.67 612.25a68 68 0 01-6.24 10.39 31.67 31.67 0 01-6.11 6.6c-1.84 1.42-4.21 2.69-6.59 2.11-3.85-.94-6-5.59-7.26-8.88-.54-1.36-2.77-.76-2.22.61 1.46 3.67 3.5 8 7.22 9.86a8.63 8.63 0 008.21-.52c5.53-3.08 9.41-9.13 12.52-14.46.87-1.48 1.71-3 2.46-4.55.63-1.33-1.35-2.5-2-1.16z" fill="#44433f"/><path d="M310.88 602.76a38.74 38.74 0 01-9.19 14.53c-3.06 2.88-7.06 4.88-11.36 4.23a4.6 4.6 0 01-3.69-2.26 6.67 6.67 0 01-.43-3.75 18.17 18.17 0 012-6.15c.68-1.31-1.3-2.47-2-1.16-2.26 4.35-4.43 12.26 1.34 14.88 4.24 1.93 9.48.55 13.14-2a31.62 31.62 0 008.81-10.15 46.07 46.07 0 003.63-7.56c.5-1.39-1.73-2-2.22-.61z" fill="#44433f"/><path d="M305.45 592.6a58.57 58.57 0 01-6.52 7.84 32.29 32.29 0 01-6.16 5.08c-1.78 1.07-4 2.06-6.08 1.62-3.15-.64-4.69-4.11-5.59-6.84-.47-1.4-2.69-.8-2.22.61 1 3 2.57 6.41 5.6 7.88a8.79 8.79 0 007.48-.26c5.11-2.24 9.23-6.8 12.67-11.06 1-1.2 1.93-2.43 2.81-3.7s-1.15-2.38-2-1.17z" fill="#44433f"/><path d="M301.17 584.93a78.87 78.87 0 01-8.29 7.54 39.76 39.76 0 01-7.24 4.74c-1.83.88-4.23 1.8-6.16 1.09-2.7-1-3-5.07-3.1-7.6a1.15 1.15 0 00-2.3 0c.08 3.11.52 7 3.21 9 2 1.5 4.63 1.31 6.9.58 5.73-1.86 10.71-6.23 15.06-10.25 1.21-1.12 2.41-2.27 3.54-3.47s-.6-2.7-1.62-1.62zM348.65 647.37a21.86 21.86 0 012.27 7.93 76.85 76.85 0 01.55 11.45 241.66 241.66 0 01-2.14 27.14c-1 8.13-2.25 16.23-3.48 24.32a45.11 45.11 0 00-.49 12.6 60.83 60.83 0 003.64 14 88.69 88.69 0 008.92 17.66 1.16 1.16 0 002.1-.28c2.11-8.77 2.94-17.87 3.67-26.84.94-11.49 1.44-23 1.78-34.53.33-11.09.49-22.2.54-33.3q0-11.52-.08-23c0-1.61 0-3.22-.06-4.83a2.26 2.26 0 00-.58-1.46c-1.34-1.63-2.69-3.24-4-4.86l-1.15-1.37c-.95-1.14-2.57.5-1.63 1.63l5.39 6.51-.34-.81c.06 3.1.09 6.2.11 9.3q.09 11.7 0 23.41c-.07 10.25-.24 20.51-.57 30.76-.33 10.46-.8 20.92-1.62 31.35a201 201 0 01-3.15 25.08c-.17.8-.35 1.59-.54 2.38l2.11-.28a85.21 85.21 0 01-7.71-14.64 66.67 66.67 0 01-4.19-13.77 39.66 39.66 0 01-.07-13.09c2.56-17 5.4-34.06 5.82-51.27a87.4 87.4 0 00-.47-12.94 25.58 25.58 0 00-2.63-9.41 1.15 1.15 0 00-2 1.16z" fill="#44433f"/><path d="M330.63 735.7a10.3 10.3 0 012.91 5.7c.84 3.93-.15 8-.76 11.85-1.3 8.38-2.56 17-1.84 25.51.33 4 1.1 8.16 3.63 11.38a1.16 1.16 0 001.62 0c1.58-1.45 2.61-3.75 3.48-5.64 3.27-7.09 5-14.88 6.33-22.53 1.37-7.84 2.21-15.77 2.79-23.71.11-1.48-2.19-1.47-2.3 0-.87 11.91-2.23 23.93-5.43 35.47-1.28 4.62-2.8 9.46-5.49 13.5-.15.23-.32.45-.48.68s.15-.18 0 .06a1.63 1.63 0 00-.17.2 2 2 0 01-.31.34h1.62c-2.13-2.71-2.69-6.57-3-9.9a75.41 75.41 0 01.29-13.27c.38-4.11 1-8.19 1.6-12.26s1.45-7.86.73-11.84c-.45-2.5-1.58-5.47-3.59-7.17-1.12-1-2.76.67-1.63 1.63z" fill="#44433f"/><path d="M339 653.85c-.07 2.91-.22 5.83-.37 8.74q-.61 11.6-1.66 23.17-1.47 16.37-3.74 32.63c-1.77 12.52-3.93 25-6.63 37.34a322.86 322.86 0 01-10.35 37.42c-.51 1.45-1 2.9-1.56 4.34l1.41-.8c-.2-.07-.1-.07 0 0-.21-.14-.49-.23-.71-.35a11.42 11.42 0 01-1.89-1.34 13.68 13.68 0 01-4.28-7c-1.25-4.81-.28-9.88.64-14.65.84-4.42 2.06-8.77 2.68-13.22.55-4 .32-7.94-1.71-11.53a1.15 1.15 0 00-2 1.16c1.81 3.21 1.92 6.77 1.38 10.34-.71 4.74-2 9.37-2.86 14.09-1.37 7.64-2.09 16.55 4.26 22.26a11.92 11.92 0 003.87 2.46 1.18 1.18 0 001.42-.8A304.48 304.48 0 00327.78 761c2.88-12.48 5.17-25.09 7.06-37.76q2.49-16.75 4.08-33.62 1.17-12.35 1.89-24.72c.14-2.5.27-5 .38-7.49 0-1.13.18-2.31.12-3.44v-.15a1.15 1.15 0 00-2.3 0z" fill="#44433f"/><path d="M332.66 654.29a218.73 218.73 0 01-3.66 28.05 266.54 266.54 0 01-18.62 61.41 184.33 184.33 0 01-21.3 36.25l2.11.28a108.4 108.4 0 01-2.38-12.28 54.15 54.15 0 01-.57-9.77c.16-3.35 1.08-6.6 1.07-10 0-1.14.05-2.86-.66-3.86-.85-1.19-2.85 0-2 1.16a.37.37 0 01.07.12c-.11-.34 0 .05.06.23a9.54 9.54 0 01.22 2.23c0 3.36-.89 6.6-1.07 9.93-.33 6.11.77 12.35 2 18.31.32 1.53.65 3.07 1 4.59a1.17 1.17 0 002.1.28c14.9-19.55 25.18-42.32 32.31-65.74A291.44 291.44 0 00334.08 664c.37-3.23.72-6.47.88-9.71.08-1.48-2.23-1.48-2.3 0z" fill="#44433f"/><path d="M324.48 649.46c-2.36 9-5.22 17.92-8.21 26.75-6.3 18.63-13.57 37-22.69 54.48a166.13 166.13 0 01-18 28.19l1.8.23a52 52 0 01-2.81-7 46.85 46.85 0 01-2.67-15.68 23.3 23.3 0 012.11-9.52c.64-1.33-1.34-2.5-2-1.16-4.75 9.9-2 22 2.08 31.67.4 1 .81 1.94 1.29 2.88a1.15 1.15 0 001.8.23c12.92-15.83 22-34.64 29.88-53.38A475.82 475.82 0 00324 659.59c.94-3.16 1.88-6.33 2.71-9.52a1.15 1.15 0 00-2.22-.61z" fill="#44433f"/><path d="M303.13 655.47c-2.56 7.41-5.33 14.76-8.2 22-5.16 13.12-10.61 26.27-17.54 38.56-2.71 4.79-5.69 10.14-10.07 13.63H269a20.57 20.57 0 01-3.86-19.93c.48-1.4-1.74-2-2.22-.61a22.73 22.73 0 004.45 22.17 1.18 1.18 0 001.63 0c3.86-3.08 6.62-7.63 9.11-11.81a197 197 0 009.41-18.48c5.5-12.06 10.39-24.42 15-36.87 1-2.67 1.95-5.35 2.87-8 .49-1.4-1.74-2-2.21-.61z" fill="#44433f"/><path d="M302.55 633.58c-1.56 3.53-3.17 7-4.79 10.55q-5.64 12.18-11.66 24.2c-4.53 9-9.22 18-14.39 26.62-2.19 3.67-4.48 7.31-7 10.8a43.27 43.27 0 01-6.12 7.19 10.13 10.13 0 01-1.23 1 2.87 2.87 0 00-.58.37c-.29.36.53-.15.28 0 .14-.06.27.06-.05 0l-.55-.13a11.81 11.81 0 01-1.42-.47c-4.07-1.73-6.88-5.68-8.5-9.7a35.59 35.59 0 01-1.6-5.24c-.33-1.44-2.55-.83-2.22.61 1.3 5.64 3.79 11.32 8.58 14.82a14 14 0 004.08 2.07 3.52 3.52 0 002.34.2c2.34-1 4.34-3.58 5.91-5.48a96.57 96.57 0 007-9.83c5.45-8.56 10.26-17.53 14.9-26.55q6.64-12.94 12.78-26.16c2.08-4.46 4.17-8.93 6.14-13.44l.09-.2c.59-1.34-1.39-2.51-2-1.16zM274.82 593.65a108 108 0 00-16.42 21.13 50.74 50.74 0 00-4 8.45 43.6 43.6 0 00-1.51 6.5 67.15 67.15 0 01-3.19 10.49A290.27 290.27 0 01236.47 670c-4.53 9-9.27 18.14-15.15 26.38a39.75 39.75 0 01-3 3.75 10.81 10.81 0 01-2.32 2 1.79 1.79 0 01-.24.12c.23-.11-.1.05-.29.11a8.89 8.89 0 01-2.44.49 6.46 6.46 0 01-3.54-.91 10.56 10.56 0 01-3.8-4.23c-.12-.23-.23-.46-.34-.69s0 .09 0-.09c-.53-1.36-2.76-.77-2.21.61 1.31 3.35 4.14 6.61 7.77 7.4 3.83.84 6.89-.74 9.32-3.49a69.36 69.36 0 006.81-9.59c2.84-4.56 5.45-9.26 8-14a342.27 342.27 0 0014.7-31.34 129 129 0 004.53-12.67 35.25 35.25 0 001-4.41 31.21 31.21 0 012.22-7.82 76.12 76.12 0 0110.22-16.29c2.62-3.33 5.39-6.56 8.32-9.62l.44-.45c1.05-1.06-.58-2.69-1.62-1.63z" fill="#44433f"/><path d="M279.17 599.8a61.48 61.48 0 00-12.57 15.91 27 27 0 00-3.31 12.82c-.06 5 .43 10 .7 15a98 98 0 01-.16 16.7 39.88 39.88 0 01-1.68 7.86 48.63 48.63 0 01-3.3 7.28 137.2 137.2 0 01-8.74 14.63c-2.36 3.42-4.93 7.21-8.28 9.76-1.14.86-1.77 1.18-3 .68a20.08 20.08 0 01-5-3.43 77.57 77.57 0 01-6.92-6.77c-1-1.1-2.62.53-1.63 1.63a80.58 80.58 0 005.86 5.83 37.39 37.39 0 004.92 3.87 7.1 7.1 0 004 1.44 6.77 6.77 0 003.56-1.82 30.49 30.49 0 004.05-4.22 105.72 105.72 0 009.33-13.44c2.85-4.82 5.89-9.91 7.57-15.29a55.54 55.54 0 002-16.68c0-5.56-.49-11.09-.79-16.63-.24-4.52-.58-9.24.86-13.59 1.68-5.06 4.91-9.62 8.31-13.67a66.56 66.56 0 015.86-6.25c1.09-1-.54-2.63-1.63-1.62zM287.15 631.78a160.56 160.56 0 00-12 15.51 10.52 10.52 0 00-1.91 3.79c-.21 1.44 2 2.07 2.22.61a3.44 3.44 0 01.15-.55c.07-.2 0-.08 0-.1s.13-.29.2-.43c.31-.61.67-1.19 1-1.77 1-1.58 2.11-3.1 3.22-4.6 2.26-3 4.62-6 7-8.87.54-.66 1.08-1.31 1.63-2 1-1.13-.67-2.76-1.63-1.63z" fill="#44433f"/><path d="M280 614.84a50.91 50.91 0 00-8.18 11.78 14.87 14.87 0 00-1.44 4.68 1.16 1.16 0 001.15 1.16 1.19 1.19 0 001.15-1.16 13.73 13.73 0 011.67-4.6 42.81 42.81 0 013.09-4.93 60.93 60.93 0 014.19-5.3c1-1.11-.64-2.74-1.63-1.63zM547.48 598.53a53.75 53.75 0 009.07 24.89 34.46 34.46 0 008.14 8.29c1.21.86 2.36-1.13 1.16-2-9.11-6.51-13.74-17.93-15.68-28.63-.13-.68-.24-1.37-.33-2.06 0 .28-.05-.34-.06-.5-.15-1.46-2.45-1.48-2.3 0z" fill="#44433f"/><path d="M562.45 608.29a81.57 81.57 0 00-.24 11.27 44.28 44.28 0 001.13 8.81c.56 2.27 1.45 4.79 3.27 6.37 2.27 2 5.16 1.53 7.64.21 1.31-.7.15-2.69-1.16-2-1.7.91-3.56 1.29-5 .06-1.57-1.38-2.22-3.68-2.67-5.64a57 57 0 01-1-15.38c.05-1.23.11-2.47.23-3.71.14-1.47-2.17-1.46-2.3 0z" fill="#44433f"/><path d="M569.33 608.83a81.69 81.69 0 00.43 12.8 36.15 36.15 0 002 9.26c.92 2.32 2.36 4.78 4.9 5.56 3.58 1.09 7.1-1.81 9.48-4.12 1.06-1-.57-2.66-1.63-1.63a15.65 15.65 0 01-4.16 3.12 5.9 5.9 0 01-1.65.53 5.18 5.18 0 01-1.12 0 3.69 3.69 0 01-2.11-1.4 10.75 10.75 0 01-1.57-2.84c-2-5.25-2.28-11.25-2.34-16.82v-4.42c0-1.42-2.23-1.48-2.3 0z" fill="#44433f"/><path d="M575.14 608.54a68.34 68.34 0 003.68 12.62c1.9 4.75 5.43 12.52 11.69 12.05 4.42-.33 7.64-4.42 10-7.77.84-1.22-1.16-2.38-2-1.16-1.8 2.62-4.38 6.11-7.79 6.61-2.08.3-4-1.09-5.45-2.8-3.67-4.32-5.44-10.37-6.85-15.74-.38-1.46-.74-2.93-1-4.42s-2.49-.84-2.22.61z" fill="#44433f"/><path d="M584.52 600.66a103.33 103.33 0 005.57 13.46 40.9 40.9 0 005.54 8.78c1.66 1.9 4 3.85 6.73 3.36 3.94-.73 5.73-5.79 6.81-9 .46-1.41-1.76-2-2.22-.62a20.84 20.84 0 01-2.48 5.4 4.85 4.85 0 01-2.32 2 3 3 0 01-2.23-.37 10.24 10.24 0 01-2.71-2.36 38.86 38.86 0 01-5-8c-1.39-2.76-2.62-5.6-3.74-8.48-.61-1.55-1.2-3.11-1.72-4.69-.47-1.39-2.69-.8-2.22.62z" fill="#44433f"/><path d="M590.9 595.42a65.8 65.8 0 006.47 11.67c3.1 4.46 8.38 11 14.65 9.25 4.38-1.23 7-5.9 8.71-9.74.6-1.34-1.38-2.51-2-1.16-1.41 3.13-3.41 7.21-6.87 8.53-2.32.87-4.66-.12-6.55-1.5-4.69-3.42-7.86-9.06-10.48-14.12-.69-1.34-1.36-2.7-2-4.09s-2.56-.19-2 1.16z" fill="#44433f"/><path d="M599.88 585.77c1.93 6.19 5.37 12.64 10.21 17 3.51 3.17 8.2 5.15 13 4.2 3.79-.74 5.59-4 5.43-7.62a20.45 20.45 0 00-2-7.67c-.63-1.34-2.61-.18-2 1.16.05.1.23.53.1.21.18.44.35.87.5 1.32a20.36 20.36 0 011 3.76c.38 2.64 0 5.61-3 6.46-4.08 1.19-8.43-.75-11.43-3.45a32.54 32.54 0 01-6.93-9.58 42.33 42.33 0 01-2.68-6.41c-.44-1.41-2.66-.81-2.22.61z" fill="#44433f"/><path d="M606 576.42a62 62 0 007.24 9.36c3.37 3.59 8.67 8.5 14.08 7 3.66-1 5.64-4.72 6.9-8 .53-1.38-1.7-2-2.22-.61-.94 2.46-2.42 5.49-5.13 6.36-2.08.68-4.26-.2-6-1.26-4.31-2.58-7.73-6.75-10.65-10.76-.76-1-1.51-2.1-2.19-3.19-.78-1.26-2.77-.1-2 1.16z" fill="#44433f"/><path d="M610.93 569.41a77.19 77.19 0 009.06 8.84 34.31 34.31 0 007.86 5.21c2.26 1 4.94 1.7 7.29.55 3.33-1.63 4-6 4.27-9.28.1-1.48-2.2-1.48-2.3 0-.17 2.37-.57 5.9-2.89 7.17-1.67.9-4 .18-5.7-.65-5-2.37-9.21-6.4-13-10.31-1-1-2-2.07-2.94-3.16s-2.59.52-1.63 1.63zM560.45 626.91a23.29 23.29 0 00-2.79 8 75.85 75.85 0 00-1.17 11.05 228.32 228.32 0 00.79 27.18c.63 8.31 1.51 16.61 2.4 24.9a48.78 48.78 0 01.31 11.83 55.55 55.55 0 01-4.1 14.22 86.17 86.17 0 01-9.76 17.46l2.1.27a164.86 164.86 0 01-2.32-24c-.45-10.3-.51-20.61-.42-30.92s.34-20.84.7-31.26q.42-12.36 1-24.71c.13-2.58.26-5.17.41-7.75a24.5 24.5 0 00.21-3.62 1 1 0 010-.17l-.34.82 5.68-6.27c1-1.1-.64-2.73-1.63-1.63l-3.5 3.87c-.78.86-2.33 2-2.51 3.24s-.14 2.34-.21 3.49q-.58 10.54-1 21.08-.69 16.29-1 32.58c-.21 11.6-.27 23.21.06 34.82a218.39 218.39 0 002.18 28.45c.13.86.29 1.72.45 2.58.21 1.08 1.58 1 2.11.28a86.62 86.62 0 008.33-14.27c4-8.54 6.87-17.74 5.87-27.27-1.77-16.89-3.84-33.86-3.64-50.87a90.22 90.22 0 01.92-13.14c.48-3.09 1.15-6.37 2.84-9.07.79-1.26-1.2-2.41-2-1.16z" fill="#44433f"/><path d="M575.17 715.31c-5.25 4.05-4.73 11.61-4.07 17.44 1 8.46 1.91 17.08 1.12 25.59-.35 3.82-1 8.34-3.6 11.36h1.62a1.09 1.09 0 01-.22-.26c-.1-.23.17.24 0 0l-.16-.21-.36-.55a26.55 26.55 0 01-2.08-4.12c-2.86-7.07-4.22-14.77-5.18-22.3-1-7.74-1.47-15.54-1.69-23.34 0-1.48-2.35-1.48-2.3 0 .35 12.17 1.2 24.51 4 36.4 1.12 4.83 2.51 9.92 5.11 14.2a9.28 9.28 0 001.28 1.77 1.15 1.15 0 001.62 0c2.3-2.67 3.31-6.19 3.86-9.6a67.09 67.09 0 00.63-13.06c-.14-4.2-.51-8.39-1-12.57-.4-3.79-1.25-7.8-.74-11.6a13.41 13.41 0 012-5.61 9 9 0 011-1.29c.13-.13.79-.69.29-.3 1.16-.9 0-2.9-1.16-2z" fill="#44433f"/><path d="M569.46 635c-.06 3 0 5.92 0 8.88q.1 11.63.65 23.25.75 16.54 2.33 33c1.22 12.59 2.83 25.16 5 37.63a324.28 324.28 0 008.71 38q.68 2.22 1.38 4.44a1.17 1.17 0 001.42.8c3.85-1.18 6.85-4.78 8.33-8.37 1.81-4.39 1.63-9.1 1.1-13.73-.57-5-1.66-10-2.34-15-.55-4.09-.56-8.16 1.69-11.77.79-1.26-1.2-2.42-2-1.16-4.33 6.92-1.55 15.53-.36 23s2.71 17.12-3.77 22.82a11.61 11.61 0 01-2.41 1.63 2.82 2.82 0 01-.88.37l1.42.81a303 303 0 01-9.2-37.44c-2.33-12.59-4.07-25.28-5.39-38q-1.74-16.73-2.56-33.51-.63-12.32-.8-24.64v-7.44c0-1.12.1-2.28 0-3.39a.75.75 0 010-.15 1.15 1.15 0 00-2.3 0z" fill="#44433f"/><path d="M575.78 635.68a223.11 223.11 0 002.45 28.63 268.09 268.09 0 0016 62.51 185.54 185.54 0 0019.86 37.58 1.17 1.17 0 002.1-.28 110.7 110.7 0 002.81-11.93 61.78 61.78 0 001.14-9.49c.1-3.4-.65-6.74-.64-10.14a12.35 12.35 0 01.27-3 3.31 3.31 0 01.12-.42c.06-.22 0-.2 0 0 0-.08.38-.54-.06 0 .91-1.15-.71-2.79-1.63-1.63a5.8 5.8 0 00-.9 3c-.36 3.29.34 6.5.52 9.77.34 6.22-1.13 12.6-2.63 18.6-.39 1.56-.8 3.12-1.27 4.66l2.1-.27c-13.94-20.06-23.14-43.08-29.19-66.66a287.88 287.88 0 01-8.34-51.28c-.22-3.2-.42-6.41-.44-9.62a1.16 1.16 0 00-2.31 0z" fill="#44433f"/><path d="M584.23 631.82c2 9.21 4.48 18.32 7.11 27.35 5.52 19 12 37.8 20.41 55.72a167 167 0 0016.91 29.19 1.17 1.17 0 002 0 55.35 55.35 0 003.5-7.82 47.19 47.19 0 003.32-16.62 25.58 25.58 0 00-2-9.93c-.58-1.36-2.57-.19-2 1.16 4 9.37.54 20.84-3.59 29.58-.4.84-.8 1.67-1.25 2.47h2c-12.15-16.31-20.38-35.48-27.34-54.47a476.88 476.88 0 01-14.61-47.78c-.79-3.14-1.56-6.29-2.25-9.46-.31-1.45-2.53-.83-2.22.61z" fill="#44433f"/><path d="M605.31 638.77c2.24 7.6 4.72 15.14 7.3 22.64 4.64 13.5 9.58 27.07 16.07 39.81 2.55 5 5.4 10.57 9.7 14.32a1.17 1.17 0 001.63 0 22.74 22.74 0 005.37-22 1.15 1.15 0 00-2.22.61 20.42 20.42 0 01-4.78 19.73H640c-3.67-3.21-6.15-7.81-8.4-12a198.67 198.67 0 01-8.55-18.88c-4.87-12.09-9.12-24.44-13.06-36.86-.84-2.66-1.67-5.32-2.46-8a1.15 1.15 0 00-2.22.61z" fill="#44433f"/><path d="M607 617.21c1.48 3.8 3 7.58 4.57 11.35 3.57 8.67 7.25 17.29 11.11 25.83 4.25 9.4 8.67 18.75 13.65 27.79 2.06 3.73 4.21 7.41 6.63 10.92a33.85 33.85 0 005.92 7 3.42 3.42 0 002.37 1.15 11 11 0 003.37-1c4.44-2 7.58-6 9.51-10.37a37.94 37.94 0 001.87-5.27 1.15 1.15 0 00-2.22-.62c-1.44 5.18-4 10.62-8.77 13.48a11.34 11.34 0 01-3.45 1.38 4.89 4.89 0 01-.53.09c.28 0 .06.07-.07 0s.46.34.32 0-.47-.32-.6-.42a29.19 29.19 0 01-5.41-6.2 118.84 118.84 0 01-6.37-10.33c-4.86-8.68-9.16-17.69-13.29-26.75q-5.76-12.63-11-25.47c-1.79-4.33-3.42-8.75-5.28-13.06a1.07 1.07 0 01-.07-.19c-.53-1.36-2.76-.77-2.22.62zM636.88 579.28a102.7 102.7 0 0115.84 22.78 39.85 39.85 0 013.27 8.72c.42 1.85.5 3.74.85 5.6a88.24 88.24 0 003.22 11.6 319.1 319.1 0 0012.67 31.53c4.09 8.93 8.34 18.13 14 26.18 1.56 2.21 3.28 4.62 5.93 5.56 5.08 1.82 9.77-1 12.32-5.43a9.26 9.26 0 00.49-.94c.59-1.34-1.39-2.51-2-1.16-1.39 3.15-4.44 6.08-8.09 5.8a7.2 7.2 0 01-3-.88 3.86 3.86 0 01-1-.78 21.34 21.34 0 01-2.55-3.06c-5.56-7.75-9.7-16.66-13.68-25.28a319.18 319.18 0 01-12.55-30.9 102 102 0 01-3.46-11.87c-.35-1.67-.43-3-.69-4.7a34 34 0 00-2.54-8.31c-4-9.39-10.38-18-17.09-25.61-.14-.16-.28-.32-.43-.47-1-1.1-2.62.53-1.62 1.62z" fill="#44433f"/><path d="M632.25 585.23a57.31 57.31 0 0112.06 17.18 21.81 21.81 0 011.86 6.81 43.31 43.31 0 01-.11 6.64c-.39 5.44-1.15 10.84-1.58 16.28a72.09 72.09 0 00.33 17.12c.89 5.45 3.27 10.43 5.71 15.33a123 123 0 008.58 14.84c2 3 4.42 6.7 7.67 8.5s7-1.42 9.45-3.32a78.05 78.05 0 007.45-6.63c1-1.06-.59-2.69-1.63-1.63a81.397 81.397 0 01-5.9 5.39 35.22 35.22 0 01-4.83 3.48c-1 .56-2.22 1.23-3.13.85a9.87 9.87 0 01-3-2.52 44.74 44.74 0 01-3.9-5 123.46 123.46 0 01-8.42-14.41c-2.49-4.95-4.93-10-5.83-15.49a69.6 69.6 0 01-.25-16.51c.42-5.33 1.16-10.63 1.56-16 .34-4.52.3-8.85-1.31-13.15-2.72-7.24-7.71-14-13.15-19.43a1.15 1.15 0 00-1.63 1.63zM622.69 616.6a166.77 166.77 0 0110.9 15.4c.45.74.88 1.49 1.26 2.26a4.93 4.93 0 01.3.68c0 .11.07.22.1.33s.08.51 0 .11c.15 1.46 2.46 1.47 2.3 0a9.34 9.34 0 00-1.4-3.5c-.94-1.66-2-3.25-3.06-4.83-2.19-3.24-4.5-6.4-6.86-9.52q-.78-1-1.59-2.1a1.18 1.18 0 00-1.57-.41 1.15 1.15 0 00-.42 1.57z" fill="#44433f"/><path d="M630.72 600.22c.12.14.23.29.34.43l.2.24.11.15.49.65q1.47 2 2.81 4a44.23 44.23 0 012.89 5.1 13.29 13.29 0 011.42 4.64c.09 1.48 2.39 1.49 2.3 0-.25-3.86-2.48-7.56-4.52-10.74a67.76 67.76 0 00-4.41-6.12c-.94-1.14-2.56.49-1.63 1.63z" fill="#44433f"/></svg>