<svg xmlns="http://www.w3.org/2000/svg" width="1250" height="1550" viewBox="0 0 1250 1550"><title>s04e10-02</title><path d="M503.57,528.55s6,61.56,73.42,58.47,75-58.47,75-58.47l124.35,50.1L587.07,747.82,399.21,619Z" fill="#262521" stroke="#262521" stroke-linecap="round" stroke-linejoin="round" stroke-width="3"/><path d="M674.81,525.42c-3-3.77-14.09-17.94-33.28-16.85.85,13.67,2.06,15.79,6.14,19.29,1.88,1.61,7.6,4.25,15.59,7.45-.84,3.66-5.75,48.41-5.85,60.79,39.36-16,27.45-31.78,28.55-35.22C688.17,554,681.73,534.09,674.81,525.42Z" fill="#262521"/><path d="M608.58,622.33l0,0c-.42.32-.85.63-1.28.93a4.32,4.32,0,0,0-1.53,2,4.15,4.15,0,0,0-2.45.57l-1.37.77a3.7,3.7,0,0,1-4.24,2l-1.46.59a4.16,4.16,0,0,0-2,1.54,4.33,4.33,0,0,0-2.5-.07c-.5.14-1,.28-1.52.4a3.7,3.7,0,0,1-4.61.89l-1.56.2a4.18,4.18,0,0,0-2.3,1,4.12,4.12,0,0,0-2.4-.69h-1.59a4.52,4.52,0,0,0-2.41.72,4.3,4.3,0,0,0-2.32-1c-.52,0-1-.11-1.55-.18a3.7,3.7,0,0,1-4.62-.85c-.51-.11-1-.24-1.52-.38a4.3,4.3,0,0,0-2.49.08,4.18,4.18,0,0,0-2-1.52c-.49-.18-1-.38-1.46-.58a4.18,4.18,0,0,0-2.48-.24,4.25,4.25,0,0,0-1.77-1.77c-.47-.25-.93-.51-1.38-.77a4.22,4.22,0,0,0-2-.55c0,3-.08,6-.16,9a4.29,4.29,0,0,0,2.42.23,4.18,4.18,0,0,0,2.13,1.94c.57.24,1.14.47,1.72.69a4.92,4.92,0,0,1,5.26,1.7c.59.16,1.19.31,1.79.45a5,5,0,0,1,5.43,1l1.83.22a4.9,4.9,0,0,1,5.51.3h1.83a4.26,4.26,0,0,0,2.69-1,4.21,4.21,0,0,0,2.8.66c.61-.07,1.22-.14,1.82-.23a4.94,4.94,0,0,1,5.43-1l1.78-.47a4.25,4.25,0,0,0,2.36-1.67,4.29,4.29,0,0,0,2.89-.07c.58-.22,1.14-.45,1.71-.69a4.89,4.89,0,0,1,5-2.4c.54-.3,1.08-.6,1.61-.91a4.25,4.25,0,0,0,1.85-2.2h.21C609.34,628.13,609,625.23,608.58,622.33Z" fill="#262521"/><path d="M553.26,627.42l-1.42-.84-.07,0c0,1.3,0,2.6-.07,3.9a1.65,1.65,0,0,0,.71.17,1.71,1.71,0,0,0,.85-3.19Z" fill="#b6b5af"/><path d="M565.43,632.27c-.53-.13-1.07-.27-1.59-.42a1.72,1.72,0,0,0-2.11,1.19,1.7,1.7,0,0,0,1.19,2.1q.84.24,1.71.45a1.83,1.83,0,0,0,.4,0,1.71,1.71,0,0,0,.4-3.37Z" fill="#b6b5af"/><path d="M559.18,630.27c-.51-.2-1-.42-1.52-.64a1.71,1.71,0,1,0-1.38,3.13c.53.24,1.08.46,1.62.68a1.63,1.63,0,0,0,.64.13,1.71,1.71,0,0,0,.64-3.3Z" fill="#b6b5af"/><path d="M603.71,626.2l-1.45.8a1.71,1.71,0,0,0,.8,3.22,1.79,1.79,0,0,0,.8-.2c.52-.28,1-.56,1.55-.86a1.71,1.71,0,1,0-1.7-3Z" fill="#b6b5af"/><path d="M597.77,629.14c-.5.21-1,.42-1.53.62a1.71,1.71,0,0,0,.62,3.3,1.87,1.87,0,0,0,.61-.11l1.64-.67a1.71,1.71,0,0,0-1.34-3.14Z" fill="#b6b5af"/><path d="M571.9,633.34c-.55-.05-1.09-.11-1.63-.18a1.71,1.71,0,1,0-.44,3.39c.58.07,1.17.14,1.76.19h.16a1.71,1.71,0,0,0,.15-3.41Z" fill="#b6b5af"/><path d="M585.09,632.79l-1.64.25a1.71,1.71,0,0,0,.22,3.4h.23l1.74-.26a1.71,1.71,0,0,0-.55-3.38Z" fill="#b6b5af"/><path d="M578.5,633.49c-.56,0-1.11,0-1.66,0a1.71,1.71,0,0,0,0,3.42h0c.59,0,1.18,0,1.77-.05a1.71,1.71,0,1,0-.15-3.41Z" fill="#b6b5af"/><path d="M591.54,631.34c-.53.15-1.06.3-1.6.43a1.71,1.71,0,0,0,.42,3.37,2.1,2.1,0,0,0,.43,0c.57-.15,1.14-.3,1.69-.46a1.71,1.71,0,1,0-.94-3.29Z" fill="#b6b5af"/><path d="M609.29,622.59l-1.36,1a1.71,1.71,0,0,0-.44,2.37,1.69,1.69,0,0,0,1.41.74,1.66,1.66,0,0,0,1-.3c.48-.33,1-.66,1.43-1a1.71,1.71,0,1,0-2-2.76Z" fill="#b6b5af"/><path d="M571.92,635.71c-.55-.07-1.1-.15-1.64-.24a1.69,1.69,0,0,0-2,1.4,1.7,1.7,0,0,0,1.4,2l1.75.26.22,0a1.71,1.71,0,0,0,.23-3.41Z" fill="#7f7e78"/><path d="M559.17,632.32l-1.52-.65a1.71,1.71,0,0,0-1.39,3.12l1.62.69a1.64,1.64,0,0,0,.65.13,1.71,1.71,0,0,0,.64-3.29Z" fill="#7f7e78"/><path d="M565.44,634.42c-.54-.14-1.06-.29-1.59-.45a1.71,1.71,0,0,0-1,3.28c.56.17,1.13.33,1.7.48a1.67,1.67,0,0,0,.44.06,1.71,1.71,0,0,0,.44-3.37Z" fill="#7f7e78"/><path d="M578.53,636.18l-1.66,0a1.71,1.71,0,1,0-.14,3.41c.58,0,1.17,0,1.76.05h0a1.71,1.71,0,0,0,0-3.42Z" fill="#7f7e78"/><path d="M553.21,629.45l-1.43-.83,0,0c0,1.3,0,2.59-.08,3.88a1.65,1.65,0,0,0,.72.17,1.71,1.71,0,0,0,.83-3.2Z" fill="#7f7e78"/><path d="M603.94,630c-.48.26-1,.52-1.47.76a1.72,1.72,0,0,0-.76,2.3,1.71,1.71,0,0,0,2.29.76c.53-.26,1-.54,1.57-.82a1.71,1.71,0,1,0-1.63-3Z" fill="#7f7e78"/><path d="M609.57,626.47c-.45.32-.9.63-1.36.93a1.71,1.71,0,0,0,.94,3.14,1.73,1.73,0,0,0,.94-.29c.49-.32,1-.65,1.45-1a1.71,1.71,0,1,0-2-2.79Z" fill="#7f7e78"/><path d="M597.94,632.73c-.51.2-1,.39-1.55.57a1.71,1.71,0,0,0,.56,3.33,1.9,1.9,0,0,0,.57-.1c.55-.2,1.11-.4,1.65-.61a1.71,1.71,0,1,0-1.23-3.19Z" fill="#7f7e78"/><path d="M591.64,634.7c-.53.14-1.07.26-1.61.37a1.71,1.71,0,0,0,.35,3.38l.35,0c.58-.12,1.15-.25,1.72-.39a1.71,1.71,0,0,0-.81-3.33Z" fill="#7f7e78"/><path d="M585.13,635.85l-1.64.16a1.71,1.71,0,0,0,.13,3.41h.14c.59,0,1.17-.1,1.75-.16a1.71,1.71,0,0,0-.38-3.4Z" fill="#7f7e78"/><g opacity="0.86"><path d="M603.06,630.22a1.71,1.71,0,0,1-.81-3.22l1.46-.8a1.71,1.71,0,1,1,1.7,3c-.51.3-1,.58-1.55.86A1.79,1.79,0,0,1,603.06,630.22Zm5.84-3.56a1.69,1.69,0,0,1-1.41-.74,1.71,1.71,0,0,1,.44-2.37l1.36-1a1.71,1.71,0,1,1,2,2.76c-.47.35-.95.68-1.43,1A1.66,1.66,0,0,1,608.9,626.66Z" fill="#fff"/></g><g opacity="0.86"><path d="M609.15,630.54a1.71,1.71,0,0,1-.94-3.14c.46-.3.91-.61,1.36-.93a1.71,1.71,0,1,1,2,2.79c-.48.34-1,.67-1.45,1A1.73,1.73,0,0,1,609.15,630.54Z" fill="#fff"/></g><path d="M420.07,1021s-5.62,57.37-15.45,88.33c-6.13,19.28-3.38,94.33-7.88,147.08.8,30.63,6.53,40,5.51,47.56s-56.84,32.74-74.53,22.39c0,0-3.67-41.33-6-57.26-25.38-84-5.58-322.1-5.58-322.1s-28.6-290.83,26.68-324.28c44.68-27,145.46-89.52,145.46-89.52s-.24-.24.72,2.61c4.12,12.15,66.55,150.83,92.44,151.4s76.62-155,76.62-155,131.1,49.6,142.29,56.21c57.48,33.94,58.89,331.94,58.89,331.94s47.92,242.26,31.42,338.53c6.4,19.17,5.82,52.14,5.82,52.14s-75.8,3.64-76.51-1.56c1.76-12.52,1.93-28.77.94-47.13-12.18-71.21-27.59-185.56-41.3-220.26" fill="#262521" stroke="#262521" stroke-linecap="round" stroke-linejoin="round" stroke-width="3"/><path d="M413.14,809.59s12.42,218.05,6.72,252.8c-18.62,136.08-18.62,509.46-18.62,509.46s71,16.39,148,15.47c137.52-1.66,276-33.37,276-33.37S797,1090,774.56,991.24c-12-52.81-5.7-181.65-5.7-181.65" fill="#262521" stroke="#262521" stroke-linecap="round" stroke-linejoin="round" stroke-width="3"/><path d="M500.27,554.94a78.71,78.71,0,0,1-9-17.58c10.39-5.26,17.73-10.2,19.27-14.15,2.33-6,3-5.53,3-14.71-14.33.78-25.65,8.3-28.65,12.41-9.89,13.57-12.29,22.14-6.63,32.89s14.27,35.63,14.27,35.63l6.42,2.63C500,579.73,500.23,567.33,500.27,554.94Z" fill="#262521"/><path d="M503.13,522.87c2,12.42-.84,32.74,54.62,55.41,6.34,4.5,28.4,226.85,28.4,226.85L603.86,604s-15.83.4-17.23-1.52,1.3-20.9,2.16-21.31c84.78-40.71,56.93-57.8,56.93-57.8l32.2,24.34,31,109.37S581.29,871.69,581.29,868.48c0-2.34-68.29-190.62-88.69-289.82C485,541.85,497.42,524,503.13,522.87Z" fill="#262521" stroke="#262521" stroke-linecap="round" stroke-linejoin="round" stroke-width="3"/><path d="M557.75,578.28c6.34,4.5,28.4,226.85,28.4,226.85L603.86,604s-15.83.4-17.23-1.52,1.29-20.91,2.16-21.31" fill="none" stroke="#636363" stroke-linecap="round" stroke-linejoin="round"/><circle cx="597.45" cy="591.87" r="5.13" fill="#8d8d8d"/><circle cx="549.24" cy="587.05" r="5.13" fill="#8d8d8d"/><line x1="605.74" y1="606.55" x2="587.79" y2="809.59" fill="none" stroke-dasharray="2 5" stroke-linecap="round" stroke-linejoin="round" stroke-width="3" stroke="#95875a"/><path d="M561.14,601.6c5.78,33,23.66,208,23.66,208" fill="none" stroke="#95875a" stroke-linecap="round" stroke-linejoin="round" stroke-width="3" stroke-dasharray="2 5"/><line x1="586.15" y1="805.13" x2="608.16" y2="1506.86" fill="none" stroke-dasharray="2 5" stroke-linecap="round" stroke-linejoin="round" stroke-width="3" stroke="#95875a"/><polyline points="755.65 723.7 640.38 723.7 640.38 893.45" fill="none" stroke="#636363" stroke-linecap="round" stroke-linejoin="round"/><line x1="638.08" y1="727.98" x2="638.08" y2="893.45" fill="none" stroke-dasharray="2 5" stroke-linecap="round" stroke-linejoin="round" stroke-width="3" stroke="#95875a"/><path d="M589,805.13h-5.82a2.89,2.89,0,0,0-2.6,2.39q-.55,10.17-1.12,20.35c-.05,1-.11,1.92-.16,2.89a3,3,0,0,0,3.1,3.37h8.45a2.62,2.62,0,0,0,2.17-1.34l.06-.1a1.14,1.14,0,0,0,.1-.19,2.17,2.17,0,0,0,.16-.38.53.53,0,0,0,0-.12,2.6,2.6,0,0,0,.1-.4,2.41,2.41,0,0,0,0-.6q-.6-10.17-1.19-20.35c-.06-1-.11-1.92-.17-2.89A3,3,0,0,0,589,805.13ZM590,823l-.09,5.35a1.93,1.93,0,0,1-2,1.9l-2.89-.05a1.93,1.93,0,0,1-1.9-2l.08-5.34a1.93,1.93,0,0,1,2-1.9l2.9,0A1.94,1.94,0,0,1,590,823Z" fill="#a9a8a4"/><rect x="584.3" y="801.86" width="4.17" height="12.56" rx="0.68" transform="translate(1172.77 1616.28) rotate(180)" fill="#cbcac5"/><path d="M640.18,727.92h-5.82a2.91,2.91,0,0,0-2.6,2.4q-.56,10.17-1.12,20.34c0,1-.11,1.93-.16,2.89a3,3,0,0,0,3.1,3.38l8.45,0a2.61,2.61,0,0,0,2.17-1.34l.06-.09a1.74,1.74,0,0,0,.1-.19,2.54,2.54,0,0,0,.16-.38.53.53,0,0,0,0-.12,1.79,1.79,0,0,0,.09-.4,2.52,2.52,0,0,0,0-.61q-.6-10.17-1.19-20.34c-.06-1-.12-1.93-.17-2.89A3,3,0,0,0,640.18,727.92Zm1,17.85-.09,5.34a1.93,1.93,0,0,1-2,1.9l-2.89,0a1.93,1.93,0,0,1-1.9-2l.08-5.35a1.94,1.94,0,0,1,2-1.9l2.9,0A1.93,1.93,0,0,1,641.19,745.77Z" fill="#a9a8a4"/><rect x="635.49" y="724.66" width="4.17" height="12.56" rx="0.68" transform="translate(1275.15 1461.87) rotate(180)" fill="#cbcac5"/></svg>