<svg xmlns="http://www.w3.org/2000/svg" width="1000" height="1550" viewBox="0 0 1000 1550"><path d="M277.39 1253.79l398.61-5.68 18.49 197.11c-209.14 38.46-398.8 10.35-398.8 10.35zM364.35 531.24h0s.01-.04 0 0z" fill="#262521" stroke="#262521" stroke-linecap="round" stroke-linejoin="round" stroke-width="3"/><path d="M752.22 1043c-3.84-55.87-22.89-124.63-22.89-124.63s-14.58-307-52.88-331.94c-10.88-7.11-142.29-56.21-142.29-56.21s-2.49 55-82.85 55c-65.08 0-82.09-39.23-86.21-51.38a11.73 11.73 0 01-.75-2.59c-1 .64-100.94 62.69-145.44 89.5C174.18 647.69 192.24 945 192.24 945a619.73 619.73 0 00-3.6 128.12c5.52 68.42-1.88 179.2 14.45 197.93l61-1.5s-5.61-14.34-4.66-27c2.28-30.22 5.54-104.26 15.36-135.21S296.2 1019 296.2 1019c.49 23.68.3 42.22-1 50.32-3.6 21.92-31.66 102.79-17.78 133.07-3.34 29.29-5.7 66.94-5.7 66.94s95.7 25.59 172.7 24.66c137.52-1.66 240.17-35.54 240.17-35.54s-2.28-35.71-5.33-60.53c9.94-22.61-4.2-83.51-17.91-143 17.07 47.16 40.24 126.63 42.46 162.32 1.63 26.39 2.88 34.36 2.88 34.36h58.1s4.49-6.66 5.3-18.88-12.3-108.46-17.87-189.72z" fill="#262521" stroke="#262521" stroke-linecap="round" stroke-linejoin="round" stroke-width="3"/><path d="M271.69 1269.35s95.7 25.59 172.7 24.66c137.52-1.66 240.17-35.54 240.17-35.54" fill="none" stroke="#636363" stroke-linecap="round" stroke-linejoin="round"/><path d="M495.14 759.85c3.1 4.84 22.58-11.33 27.22-14 1.39-.73 7.4-.52 6.74 1.87-1.41 11.36-13.76 53.93 10.33 33.14a1.86 1.86 0 00.27-2.45c-3.12-6.27-2.78-13.79-.9-20.37 2.18-11.41 20.52-25.85 29.08-12.92 6.74 14.67-9.9 26.32-16.5 35.55 20.73 10.73 19.87-3.44 22.91-19 1.94-5.89 2-13.91 5.62-18.6 5.39.43 5.3.86 3.74 5.84l.24.11c6.43-10.36 19.94-14.79 18.19 2.25-.51 10.16-8 19.92-5.83 30 2.2 3.36 6.31.48 7.63-2.2.35-.57.54-1.19 1.38-.72 2.39 2.82-3.51 7.2-6.08 8.3-17.73 2.05-4.14-24.76-2.61-33.35s-2.7-12.33-8.68-4.47c-9.52 10.94-9.14 26.93-13.25 39.25a37.54 37.54 0 01-4.25-.83c-.74-1.17-1.47-.5-2.28 0-7.87 3.85-18.88 2.81-25-3.74-2-1.87-6.63 6.45-10.65 6.83-22.57 6.63-12.6-25-11.55-36.88-6.51 2.63-12.64 6.71-18.91 10-.6 2.21 4.67 4 5.73 6.24 16.42 19.76-30.3 35.83-25.76 9.39-11.44 21.91-34.83 23.1-29.97-6.19-5.95 8.73-17.12 4.82-20.19-4.22-12.1 3.89-6.74 17.6-14.24 25.53-4.87 5.45-15.13 7.81-19.66.73-.58-.79-.71-.77-1.38 0-35.25 25.65-34.6-47 1.17-26.59 1.6-24.73-9-5.25-12.57-10.17-.64-1.48-3.46-3.48-1.46-4.81 38.48-21.08 8 47.86 26.91 40.08 9.69-9 4.86-32.32 11.08-41.84 8.72-1.08 3.79 8 3.89 13.23 0 2 2.9-.33 4-.48a1.61 1.61 0 001.15-1.86c-.49-6.1 1.59-15.13 9-15.72 4.35 0 4.39 6 3 9.08-.56 3.62-5.48 5.66-4.9 9.18 3 10.72 15.48 6.38 16.08-3.22 2-5.56-1.1-14.69 7.64-11.61 2.38 8.81-3.65 21.31-3 31.37.92 21 19.59-1.23 23.83-9 8.38-11.72 6.91-4.83.51-15.74-3.31-19.84 24.94-16.91 12.28 3.01zm-97.69 19.38c.95-10-11.54-13.91-17.06-5.76-4.82 6.57-5 21.47 5 22.66 9.07.3 12.37-9.44 12.06-16.9zm150.69-2.4c9-3.85 22.89-33.68 4.84-30.52-10.12 5.87-11.22 21.56-4.84 30.52zm-52.51 12.33c12.07-1.19 9.77-18.82-.47-19.83-6.95 4.67-11.6 19.31.47 19.83zm-6-35.78c1.6 8.67 5.36-1.37 2.88-3.12-1.8-.69-3.07 1.57-2.86 3.12zm-1.37 16.39l.25.24c1.05-1.3 3.67-2.13 3.57-3.87-1.83-.06-2.6 2.44-3.8 3.63zM340.07 763.37c-.91 8.36-1.34 31.37-1.14 39 .5 3.38-6.42.8-6.27-1.25-.06-8.62.09-66.12-.13-75.06.87-4.49-2.41-12.3 2.5-14.62 6.08-2.5 4.91-1.45 5 4.15 23.83-20.78 40.62 11.62 31.17 33.22-2.9 12.42-20.69 29.64-30.81 14.51zM352.73 714c-17.71 1.43-17.31 43-5.14 49.29 19.81 2.13 25.41-47.79 5.14-49.29z" fill="#fff"/><path d="M465.81 741.24c.37 6.8-10.14 7.65-10.19.37-.49-7.07 10-7.27 10.19-.37zM522.79 737.48c-.51-7.05 9.59-7.79 10.08-.86.72 6.82-9.95 7.58-10.08.86z" fill="#fff"/></svg>