<svg xmlns="http://www.w3.org/2000/svg" width="1250" height="1550" viewBox="0 0 1250 1550"><title>s04e07-01</title><path d="M879.72,1045c-3.84-55.87-22.89-124.63-22.89-124.63s-14.58-307-52.88-331.94c-10.88-7.11-142.29-56.21-142.29-56.21s-2.49,55-82.85,55c-65.08,0-82.09-39.23-86.21-51.38a11.73,11.73,0,0,1-.75-2.59c-1,.64-100.94,62.69-145.44,89.5C301.68,649.69,319.74,947,319.74,947a619.73,619.73,0,0,0-3.6,128.12c5.52,68.42-1.88,179.2,14.45,197.93l61-1.5s-5.61-14.34-4.66-27c2.28-30.22,5.54-104.26,15.36-135.21S423.7,1021,423.7,1021c.49,23.68.3,42.22-1,50.32-3.6,21.92-31.66,102.79-17.78,133.07-3.34,29.29-5.7,66.94-5.7,66.94s95.7,25.59,172.7,24.66c137.52-1.66,240.17-35.54,240.17-35.54s-2.28-35.71-5.33-60.53c9.94-22.61-4.2-83.51-17.91-143,17.07,47.16,40.24,126.63,42.46,162.32,1.63,26.39,2.88,34.36,2.88,34.36h58.1s4.49-6.66,5.3-18.88S885.29,1126.26,879.72,1045Z" fill="#262521"/><polygon points="463.29 665.83 533.94 684.86 514.59 714.68 461.92 667.95 463.29 665.83" fill="none" stroke="#494949" stroke-linecap="round" stroke-linejoin="round" stroke-width="1.55"/><polygon points="468.43 651.74 533.73 637.27 534.16 661.08 468.35 656.43 468.43 651.74" fill="none" stroke="#494949" stroke-linecap="round" stroke-linejoin="round" stroke-width="1.55"/><polygon points="469.64 642.16 527.4 614.4 532.58 632.85 469.5 648.28 469.64 642.16" fill="none" stroke="#494949" stroke-linecap="round" stroke-linejoin="round" stroke-width="1.55"/><polygon points="459.74 670.53 504.6 711.41 494 719.29 458.01 671.63 459.74 670.53" fill="none" stroke="#494949" stroke-linecap="round" stroke-linejoin="round" stroke-width="1.55"/><polygon points="445.86 675.65 449.08 675.47 466.03 726.95 449.85 729.38 445.86 675.65" fill="none" stroke="#494949" stroke-linecap="round" stroke-linejoin="round" stroke-width="1.55"/><polygon points="440.31 675.36 442.64 675.23 445.47 724.16 437.09 723.56 440.31 675.36" fill="none" stroke="#494949" stroke-linecap="round" stroke-linejoin="round" stroke-width="1.55"/><polygon points="460.33 618.84 464.81 626.29 508.6 593.42 493.16 577.45 460.33 618.84" fill="none" stroke="#494949" stroke-linecap="round" stroke-linejoin="round" stroke-width="1.55"/><polygon points="451.7 609.7 457.38 616.07 490.21 575.68 474.24 563.56 451.7 609.7" fill="none" stroke="#494949" stroke-linecap="round" stroke-linejoin="round" stroke-width="1.55"/><polygon points="428.08 609.2 438.07 607.26 444.77 562.4 418.69 578.87 428.08 609.2" fill="none" stroke="#494949" stroke-linecap="round" stroke-linejoin="round" stroke-width="1.55"/><polygon points="391.99 594.94 414.9 580.85 425.96 610.08 418.2 613.11 391.99 594.94" fill="none" stroke="#494949" stroke-linecap="round" stroke-linejoin="round" stroke-width="1.55"/><path d="M424.2,624.71c-5.31,4.88-9.28,11.42-8.85,19.16a22.48,22.48,0,1,0,21.18-23.7l-.37-6.59s-14.72,1.5-24.56,10.4l-16-.73L395,637.14l13.58.77-.18-3.24-9.73-.49.22-8,14.25.69s11-8.37,19.33-9.36l.43,3.7S427.27,621.89,424.2,624.71Z" fill="none" stroke="#494949" stroke-linecap="round" stroke-linejoin="round" stroke-width="1.55"/><circle cx="437.78" cy="642.46" r="18.48" fill="none" stroke="#494949" stroke-linecap="round" stroke-linejoin="round" stroke-width="1.28"/><line x1="438.37" y1="704.49" x2="586.37" y2="696.19" fill="none" stroke="#494949" stroke-linecap="round" stroke-linejoin="round" stroke-width="1.55"/><line x1="574.39" y1="701.86" x2="586.65" y2="701.17" fill="none" stroke="#494949" stroke-linecap="round" stroke-linejoin="round" stroke-width="1.55"/><line x1="438.65" y1="709.47" x2="569.88" y2="702.11" fill="none" stroke="#494949" stroke-linecap="round" stroke-linejoin="round" stroke-width="1.55"/><path d="M541.62,626.44s10,36.35-3.2,66.85l-3.48-1.63L518,720.1,514,718.17l-25.71,15.55-1.95-2.47-23,12.91-1.54-4.56L435,745.74l-.24-4.37-27.8-3.09-.27-4.89-10.87-5.07" fill="none" stroke="#494949" stroke-linecap="round" stroke-linejoin="round" stroke-width="1.55"/><path d="M546.7,626.16s10.71,42.77-5.74,73.52l-3.48-1.63-17.93,29-4.07-1.92-26.94,16-2-2.46-26.5,13.61-1.54-4.56-27.35,4.95-.24-4.38-28.55-5-.27-4.88L396.22,736" fill="none" stroke="#494949" stroke-linecap="round" stroke-linejoin="round" stroke-width="1.55"/><line x1="316.54" y1="860.34" x2="394.65" y2="861.95" fill="none" stroke="#494949" stroke-linecap="round" stroke-linejoin="round" stroke-width="1.55"/><path d="M378.11,681.05c-19.48,49.74-41.48,98.74-61.89,149.15" fill="none" stroke="#494949" stroke-linecap="round" stroke-linejoin="round" stroke-width="1.55"/><polyline points="376.14 676.72 327.65 787.26 316.63 777.91" fill="none" stroke="#494949" stroke-linecap="round" stroke-linejoin="round" stroke-width="1.55"/><line x1="316.55" y1="855.82" x2="394.37" y2="856.87" fill="none" stroke="#494949" stroke-linecap="round" stroke-linejoin="round" stroke-width="1.55"/><path d="M380.5,686.75c-20.87,52-43.87,103-64.23,155.5" fill="none" stroke="#494949" stroke-linecap="round" stroke-linejoin="round" stroke-width="1.55"/><polyline points="527.81 785.72 498.27 808.07 557.64 857.45" fill="none" stroke="#494949" stroke-linecap="round" stroke-linejoin="round" stroke-width="1.55"/><line x1="594.29" y1="838.6" x2="626.97" y2="864.84" fill="none" stroke="#494949" stroke-linecap="round" stroke-linejoin="round" stroke-width="1.55"/><line x1="527.81" y1="785.72" x2="584.42" y2="830.74" fill="none" stroke="#494949" stroke-linecap="round" stroke-linejoin="round" stroke-width="1.55"/><line x1="558.82" y1="868.66" x2="597.66" y2="899.56" fill="none" stroke="#494949" stroke-linecap="round" stroke-linejoin="round" stroke-width="1.55"/><line x1="564.64" y1="868.15" x2="600.31" y2="896.56" fill="none" stroke="#494949" stroke-linecap="round" stroke-linejoin="round" stroke-width="1.55"/><line x1="520.67" y1="894.68" x2="600.97" y2="958.56" fill="none" stroke="#494949" stroke-linecap="round" stroke-linejoin="round" stroke-width="1.55"/><line x1="527.05" y1="894.62" x2="600.87" y2="953.39" fill="none" stroke="#494949" stroke-linecap="round" stroke-linejoin="round" stroke-width="1.55"/><line x1="518.09" y1="903.39" x2="601.6" y2="969.81" fill="none" stroke="#494949" stroke-linecap="round" stroke-linejoin="round" stroke-width="1.55"/><line x1="517.35" y1="897.65" x2="601.35" y2="964.53" fill="none" stroke="#494949" stroke-linecap="round" stroke-linejoin="round" stroke-width="1.55"/><path d="M422,952.86c15.67,12.93,32.67,23.93,48.67,37.93,10,9,20,16,30.12,24.74" fill="none" stroke="#494949" stroke-linecap="round" stroke-linejoin="round" stroke-width="1.55"/><path d="M422,947.74c26.64,20,52.64,42,78.65,62.62" fill="none" stroke="#494949" stroke-linecap="round" stroke-linejoin="round" stroke-width="1.55"/><path d="M422,963.65c26.61,20.14,51.61,43.14,79.61,63.14,24-24,49-49,72.93-73" fill="none" stroke="#494949" stroke-linecap="round" stroke-linejoin="round" stroke-width="1.55"/><path d="M422.05,958.54c15.58,12.25,30.58,24.25,46.58,36.25,11,10,22,18,33,27,22-24,46-47,69.36-70.41" fill="none" stroke="#494949" stroke-linecap="round" stroke-linejoin="round" stroke-width="1.55"/><line x1="673.96" y1="886" x2="601.2" y2="958.55" fill="none" stroke="#494949" stroke-linecap="round" stroke-linejoin="round" stroke-width="1.55"/><line x1="667.66" y1="886.6" x2="600.73" y2="953.4" fill="none" stroke="#494949" stroke-linecap="round" stroke-linejoin="round" stroke-width="1.55"/><line x1="561.81" y1="949.32" x2="500.64" y2="1010.27" fill="none" stroke="#494949" stroke-linecap="round" stroke-linejoin="round" stroke-width="1.55"/><line x1="567.7" y1="948.99" x2="500.93" y2="1015.52" fill="none" stroke="#494949" stroke-linecap="round" stroke-linejoin="round" stroke-width="1.55"/><line x1="677.46" y1="894.39" x2="601.83" y2="969.8" fill="none" stroke="#494949" stroke-linecap="round" stroke-linejoin="round" stroke-width="1.55"/><line x1="677.26" y1="888.91" x2="601.49" y2="964.52" fill="none" stroke="#494949" stroke-linecap="round" stroke-linejoin="round" stroke-width="1.55"/><line x1="508.33" y1="906.63" x2="561.81" y2="949.32" fill="none" stroke="#494949" stroke-linecap="round" stroke-linejoin="round" stroke-width="1.55"/><line x1="514.82" y1="906.81" x2="567.7" y2="948.99" fill="none" stroke="#494949" stroke-linecap="round" stroke-linejoin="round" stroke-width="1.55"/><path d="M776.66,934.19c-23,23.6-46,46.6-70,69.79" fill="none" stroke="#494949" stroke-linecap="round" stroke-linejoin="round" stroke-width="1.55"/><path d="M776.54,928.63c-23.91,23.16-46.91,46.16-70.34,70.2" fill="none" stroke="#494949" stroke-linecap="round" stroke-linejoin="round" stroke-width="1.55"/><path d="M777.24,945.5c-24.61,22.29-45.61,48.29-70.61,69.29-27-21-53-43-80.22-63.93" fill="none" stroke="#494949" stroke-linecap="round" stroke-linejoin="round" stroke-width="1.55"/><path d="M777.09,940c-22.46,23.83-47.46,46.83-70.46,69.83-26-20-51-41-76.93-61.7" fill="none" stroke="#494949" stroke-linecap="round" stroke-linejoin="round" stroke-width="1.55"/><line x1="638.59" y1="945.02" x2="706.19" y2="998.75" fill="none" stroke="#494949" stroke-linecap="round" stroke-linejoin="round" stroke-width="1.55"/><line x1="632.7" y1="945.35" x2="706.49" y2="1003.99" fill="none" stroke="#494949" stroke-linecap="round" stroke-linejoin="round" stroke-width="1.55"/><line x1="687.04" y1="896.41" x2="638.59" y2="945.02" fill="none" stroke="#494949" stroke-linecap="round" stroke-linejoin="round" stroke-width="1.55"/><line x1="680.91" y1="897.13" x2="632.7" y2="945.35" fill="none" stroke="#494949" stroke-linecap="round" stroke-linejoin="round" stroke-width="1.55"/><line x1="632.99" y1="864.5" x2="597.85" y2="899.55" fill="none" stroke="#494949" stroke-linecap="round" stroke-linejoin="round" stroke-width="1.55"/><line x1="626.97" y1="864.84" x2="594.88" y2="896.86" fill="none" stroke="#494949" stroke-linecap="round" stroke-linejoin="round" stroke-width="1.55"/><polyline points="590.75 830.71 520.09 774.54 482.5 801.65 479.58 797.33 460.11 808.42 458.05 803.41 433.98 808.9 433.64 802.86 411.21 804.27 410.92 799.11 400.72 796.65" fill="none" stroke="#494949" stroke-linecap="round" stroke-linejoin="round" stroke-width="1.55"/><line x1="632.99" y1="864.5" x2="593.99" y2="833.28" fill="none" stroke="#494949" stroke-linecap="round" stroke-linejoin="round" stroke-width="1.55"/><polyline points="593.68 827.79 520.45 769.58 484.49 794.83 481.17 790.76 462.25 801.9 460.73 797.99 438.1 803.05 437.86 798.69 415.88 799.77 415.64 795.55 400.48 792.39" fill="none" stroke="#494949" stroke-linecap="round" stroke-linejoin="round" stroke-width="1.55"/><line x1="667.66" y1="886.6" x2="597.54" y2="830.86" fill="none" stroke="#494949" stroke-linecap="round" stroke-linejoin="round" stroke-width="1.55"/><line x1="680.91" y1="897.13" x2="674.29" y2="891.87" fill="none" stroke="#494949" stroke-linecap="round" stroke-linejoin="round" stroke-width="1.55"/><polyline points="593.35 821.84 544.48 782.93 574.39 701.86" fill="none" stroke="#494949" stroke-linecap="round" stroke-linejoin="round" stroke-width="1.55"/><line x1="687.04" y1="896.41" x2="600.36" y2="827.42" fill="none" stroke="#494949" stroke-linecap="round" stroke-linejoin="round" stroke-width="1.55"/><line x1="539.44" y1="784.6" x2="571.71" y2="697.15" fill="none" stroke="#494949" stroke-linecap="round" stroke-linejoin="round" stroke-width="1.55"/><polyline points="411.25 860.23 467.19 828.2 512.22 902.01" fill="none" stroke="#494949" stroke-linecap="round" stroke-linejoin="round" stroke-width="1.55"/><polygon points="705.18 652.27 637.09 679.07 659.66 706.54 706.77 654.22 705.18 652.27" fill="none" stroke="#494949" stroke-linecap="round" stroke-linejoin="round" stroke-width="1.55"/><polygon points="698.5 638.84 631.99 631.76 634.21 655.47 699.1 643.49 698.5 638.84" fill="none" stroke="#494949" stroke-linecap="round" stroke-linejoin="round" stroke-width="1.55"/><polygon points="696.21 629.45 635.72 608.33 632.63 627.24 697.04 635.52 696.21 629.45" fill="none" stroke="#494949" stroke-linecap="round" stroke-linejoin="round" stroke-width="1.55"/><polygon points="709.22 656.54 669.22 702.18 680.63 708.82 711.07 657.44 709.22 656.54" fill="none" stroke="#494949" stroke-linecap="round" stroke-linejoin="round" stroke-width="1.55"/><polygon points="723.59 660.08 720.37 660.26 709.29 713.31 725.63 713.92 723.59 660.08" fill="none" stroke="#494949" stroke-linecap="round" stroke-linejoin="round" stroke-width="1.55"/><polygon points="729.07 659.16 726.74 659.29 729.4 708.24 737.66 706.71 729.07 659.16" fill="none" stroke="#494949" stroke-linecap="round" stroke-linejoin="round" stroke-width="1.55"/><polygon points="702.86 605.24 699.24 613.15 652.06 585.37 665.61 567.78 702.86 605.24" fill="none" stroke="#494949" stroke-linecap="round" stroke-linejoin="round" stroke-width="1.55"/><polygon points="710.42 595.19 705.48 602.15 668.34 565.69 685.57 556.14 710.42 595.19" fill="none" stroke="#494949" stroke-linecap="round" stroke-linejoin="round" stroke-width="1.55"/><polygon points="733.83 592.05 723.69 591.24 711.87 551.55 738.47 561.42 733.83 592.05" fill="none" stroke="#494949" stroke-linecap="round" stroke-linejoin="round" stroke-width="1.55"/><polygon points="765.98 573.07 743.51 563.38 736.03 592.69 744.09 594.84 765.98 573.07" fill="none" stroke="#494949" stroke-linecap="round" stroke-linejoin="round" stroke-width="1.55"/><path d="M739.42,607c5.82,4.26,10.5,10.31,10.94,18.05a22.48,22.48,0,1,1-23.7-21.18l-.37-6.59s14.79-.16,25.57,7.59l15.83-2.52,2.13,13.74-13.41,2.28-.18-3.24,9.61-1.57-1.12-8-14.09,2.29s-11.9-7.09-20.25-7.14l0,3.71S736.05,604.57,739.42,607Z" fill="none" stroke="#494949" stroke-linecap="round" stroke-linejoin="round" stroke-width="1.55"/><circle cx="727.91" cy="626.19" r="18.48" fill="none" stroke="#494949" stroke-linecap="round" stroke-linejoin="round" stroke-width="1.28"/><line x1="734.26" y1="687.9" x2="586.26" y2="696.2" fill="none" stroke="#494949" stroke-linecap="round" stroke-linejoin="round" stroke-width="1.55"/><line x1="598.8" y1="700.49" x2="586.54" y2="701.18" fill="none" stroke="#494949" stroke-linecap="round" stroke-linejoin="round" stroke-width="1.55"/><line x1="734.54" y1="692.88" x2="603.31" y2="700.24" fill="none" stroke="#494949" stroke-linecap="round" stroke-linejoin="round" stroke-width="1.55"/><path d="M622.93,621.88S617,659.13,633.58,688l3.28-2,20,26.37,3.83-2.37L688,722.52l1.66-2.67,24.32,10.25,1-4.7,27.28,3.11-.25-4.37L769.28,718l-.28-4.89,10.24-6.25" fill="none" stroke="#494949" stroke-linecap="round" stroke-linejoin="round" stroke-width="1.55"/><path d="M617.85,622.17s-5.86,43.69,13.92,72.42l3.28-2,21.06,26.83,3.83-2.37,28.56,12.87,1.66-2.67L718,737.8l1-4.7L746.77,735l-.25-4.38,27.8-8.21-.27-4.88,5.61-3" fill="none" stroke="#494949" stroke-linecap="round" stroke-linejoin="round" stroke-width="1.55"/><polyline points="654.46 778.62 686.32 797.52 633.32 852.73" fill="none" stroke="#494949" stroke-linecap="round" stroke-linejoin="round" stroke-width="1.55"/><line x1="594.29" y1="838.6" x2="564.64" y2="868.15" fill="none" stroke="#494949" stroke-linecap="round" stroke-linejoin="round" stroke-width="1.55"/><line x1="654.46" y1="778.62" x2="603.59" y2="829.99" fill="none" stroke="#494949" stroke-linecap="round" stroke-linejoin="round" stroke-width="1.55"/><polyline points="558.65 868.49 660.88 766.64 701.27 789.38 703.68 784.76 724.28 793.61 725.76 788.4 750.3 791.16 749.96 785.12 772.4 784.01 772.11 778.86 781.98 775.27" fill="none" stroke="#494949" stroke-linecap="round" stroke-linejoin="round" stroke-width="1.55"/><polyline points="526.82 894.4 659.97 761.75 698.53 782.83 701.38 778.41 721.42 787.37 722.49 783.31 745.55 785.81 745.3 781.45 767.26 780.07 767.03 775.85 781.74 771.01" fill="none" stroke="#494949" stroke-linecap="round" stroke-linejoin="round" stroke-width="1.55"/><line x1="514.82" y1="906.81" x2="520.88" y2="900.47" fill="none" stroke="#494949" stroke-linecap="round" stroke-linejoin="round" stroke-width="1.55"/><polyline points="593.35 821.84 637.59 777.71 598.8 700.49" fill="none" stroke="#494949" stroke-linecap="round" stroke-linejoin="round" stroke-width="1.55"/><line x1="508.33" y1="906.63" x2="587.25" y2="827.92" fill="none" stroke="#494949" stroke-linecap="round" stroke-linejoin="round" stroke-width="1.55"/><line x1="642.78" y1="778.8" x2="600.87" y2="695.38" fill="none" stroke="#494949" stroke-linecap="round" stroke-linejoin="round" stroke-width="1.55"/><polyline points="779.41 843.57 719.22 814.57 686.7 884.4" fill="none" stroke="#494949" stroke-linecap="round" stroke-linejoin="round" stroke-width="1.55"/><polyline points="374.48 673.37 325.62 779.69 317.04 772.56" fill="none" stroke="#494949" stroke-linecap="round" stroke-linejoin="round" stroke-width="1.55"/><line x1="394.92" y1="866.76" x2="322.15" y2="865.21" fill="none" stroke="#494949" stroke-linecap="round" stroke-linejoin="round" stroke-width="1.55"/><line x1="395.19" y1="871.6" x2="322.42" y2="870.06" fill="none" stroke="#494949" stroke-linecap="round" stroke-linejoin="round" stroke-width="1.55"/><path d="M851,832.14l-51.11,6.71-5,.65" fill="none" stroke="#494949" stroke-linecap="round" stroke-linejoin="round" stroke-width="1.55"/><line x1="791.14" y1="657.89" x2="843.54" y2="752.61" fill="none" stroke="#494949" stroke-linecap="round" stroke-linejoin="round" stroke-width="1.55"/><line x1="792.61" y1="653.37" x2="841.91" y2="738.41" fill="none" stroke="#494949" stroke-linecap="round" stroke-linejoin="round" stroke-width="1.55"/><path d="M850.15,827.42l-50.63,6.39-4.88.61" fill="none" stroke="#494949" stroke-linecap="round" stroke-linejoin="round" stroke-width="1.55"/><line x1="789.4" y1="663.82" x2="844.82" y2="764.37" fill="none" stroke="#494949" stroke-linecap="round" stroke-linejoin="round" stroke-width="1.55"/><line x1="793.88" y1="649.85" x2="840.55" y2="727.21" fill="none" stroke="#494949" stroke-linecap="round" stroke-linejoin="round" stroke-width="1.55"/><path d="M795.19,844.31c19.44-3.52,37.44-4.52,56.25-7.54" fill="none" stroke="#494949" stroke-linecap="round" stroke-linejoin="round" stroke-width="1.55"/><path d="M795.47,849.16c19.16-2.37,37.16-5.37,56.58-7.59" fill="none" stroke="#494949" stroke-linecap="round" stroke-linejoin="round" stroke-width="1.55"/><path d="M406.93,1266.5s61.78,24.3,203.69,19.79,192.84-36.18,192.84-36.18l16.06,151.22A1103.91,1103.91,0,0,1,689.1,1417c-153.15,9.56-273.63-11.8-273.63-11.8Z" fill="#262521" stroke="#262521" stroke-linecap="round" stroke-linejoin="round" stroke-width="3"/><polygon points="465.7 630 510.65 596.35 525.43 611.65 468.54 639.61 465.7 630" fill="#fff"/><polygon points="448.63 562.58 441.13 607.46 448.87 608.03 473.55 560.26 448.63 562.58" fill="#fff"/><polygon points="387.94 596.98 415.79 614.14 409.07 618.05 373.06 606.54 387.94 596.98" fill="#fff"/><polygon points="467.02 659.5 464.4 663.6 531.55 680.13 534.37 664.77 467.02 659.5" fill="#fff"/><polygon points="451.43 674.22 455.95 672.52 490.59 721.45 471.75 733.6 451.43 674.22" fill="#fff"/><polygon points="433.46 674.59 437.84 674.91 434.24 723.72 420.77 722.73 433.46 674.59" fill="#fff"/><path d="M326.24,665.52s-6.53,28.9-6.53,50.94l53.29-48L373,646.09Z" fill="#fff"/><polygon points="385.77 716.46 356.75 850.6 394.43 851.04 393.48 719.54 385.77 716.46" fill="#fff"/><polygon points="471.92 829.97 495.23 811.17 551.81 857.63 512.7 895.13 471.92 829.97" fill="#fff"/><polygon points="698.77 616.93 650.34 588.51 637.37 605.38 697.03 626.79 698.77 616.93" fill="#fff"/><polygon points="708.55 549.28 720.67 591.78 713.04 593.22 685.33 551.72 708.55 549.28" fill="#fff"/><polygon points="773.68 573.58 746.6 595.59 753.71 598.72 792.61 581.24 773.68 573.58" fill="#fff"/><polygon points="700.76 646.39 703.82 650.17 638.95 674.11 634.42 659.16 700.76 646.39" fill="#fff"/><polygon points="717.9 659.28 713.21 658.1 684.26 710.59 704.34 720.55 717.9 659.28" fill="#fff"/><polygon points="735.79 657.63 731.48 658.44 740.52 706.54 753.79 704.05 735.79 657.63" fill="#fff"/><path d="M824.82,633.07l-32.08-10.52,2.45,22.21,37.42,28.38C831.54,670.27,828.17,640.81,824.82,633.07Z" fill="#fff"/><polygon points="787.86 693.92 831.7 823.96 794.31 828.62 780.55 697.83 787.86 693.92" fill="#fff"/><polygon points="714.95 816.34 689.68 800.26 638.4 853.02 681.56 885.96 714.95 816.34" fill="#fff"/><path d="M879.72,1045c-3.84-55.87-22.89-124.63-22.89-124.63s-14.58-307-52.88-331.94c-10.88-7.11-142.29-56.21-142.29-56.21s-2.49,55-82.85,55c-65.08,0-82.09-39.23-86.21-51.38a11.73,11.73,0,0,1-.75-2.59c-1,.64-100.94,62.69-145.44,89.5C301.68,649.69,319.74,947,319.74,947a619.73,619.73,0,0,0-3.6,128.12c5.52,68.42-1.88,179.2,14.45,197.93l61-1.5s-5.61-14.34-4.66-27c2.28-30.22,5.54-104.26,15.36-135.21S423.7,1021,423.7,1021c.49,23.68.3,42.22-1,50.32-3.6,21.92-31.66,102.79-17.78,133.07-3.34,29.29-5.7,66.94-5.7,66.94s95.7,25.59,172.7,24.66c137.52-1.66,240.17-35.54,240.17-35.54s-2.28-35.71-5.33-60.53c9.94-22.61-4.2-83.51-17.91-143,17.07,47.16,40.24,126.63,42.46,162.32,1.63,26.39,2.88,34.36,2.88,34.36h58.1s4.49-6.66,5.3-18.88S885.29,1126.26,879.72,1045Z" fill="none" stroke="#262521" stroke-linecap="round" stroke-linejoin="round" stroke-width="3"/><path d="M399.19,1271.35s95.7,25.59,172.7,24.66c137.52-1.66,240.17-35.54,240.17-35.54" fill="none" stroke="#636363" stroke-linecap="round" stroke-linejoin="round"/></svg>