<svg xmlns="http://www.w3.org/2000/svg" width="1250" height="1550" viewBox="0 0 1250 1550"><title>s04e09-01</title><path d="M404.43,1264.5s57.14,5.35,199.05.84S801,1248.11,801,1248.11l22.8,267.08c-209.14,38.46-397.55,3.91-397.55,3.91Z" fill="#262521" stroke="#262521" stroke-linecap="round" stroke-linejoin="round" stroke-width="3"/><path d="M877.22,1043c-3.84-55.87-22.89-124.63-22.89-124.63s-14.58-307-52.88-331.94c-10.88-7.11-142.29-56.21-142.29-56.21s-2.49,55-82.85,55c-65.08,0-82.09-39.23-86.21-51.38a11.73,11.73,0,0,1-.75-2.59c-1,.64-100.94,62.69-145.44,89.5C299.18,647.69,317.24,945,317.24,945a619.73,619.73,0,0,0-3.6,128.12c5.52,68.42-1.88,179.2,14.45,197.93l61-1.5s-5.61-14.34-4.66-27c2.28-30.22,5.54-104.26,15.36-135.21S421.2,1019,421.2,1019c.49,23.68.3,42.22-1,50.32-3.6,21.92-31.66,125.93-17.78,156.22-3.34,29.28-3.7,60.94-3.7,60.94s93.7,31.58,170.7,30.65c137.52-1.66,240.17-35.54,240.17-35.54s-2.28-35.71-5.33-60.52c9.94-22.62-4.2-106.66-17.91-166.1,17.07,47.16,40.24,126.63,42.46,162.32,1.63,26.39,2.88,34.36,2.88,34.36h58.1s4.49-6.66,5.3-18.88S882.79,1124.26,877.22,1043Z" fill="#262521"/><path d="M825.76,1194.58c3.78,0,48.24,2.85,65.83-2.54-4.1-38.34-10.79-96.8-14.37-149-3.84-55.87-22.89-124.63-22.89-124.63s-14.58-307-52.88-331.94c-10.88-7.11-122.28-48.69-122.28-48.69s-17.95,73.38-101.95,73.38-106.88-68-106.87-68.1c-1,.65-81.94,50.91-126.44,77.72C299.18,647.69,317.24,945,317.24,945a619.73,619.73,0,0,0-3.6,128.12c3.45,42.71,1.86,100.92,4.15,143.95,20.83,7.67,64.45,2,68.15,1.55,2.31-35.42,6-86.58,13.81-111.29,9.83-30.95,21.45-88.32,21.45-88.33.49,23.68.3,42.22-1,50.32-3.6,21.92-31.66,125.93-17.78,156.22,84.61,45.69,317.22,47.48,401.84-4.47,9.94-22.62-4.2-106.66-17.91-166.1C800.35,1093.78,818.52,1154.41,825.76,1194.58Z" fill="#33322e"/><path d="M316.35,1161.93c.24,19.47.55,38.46,1.44,55.16,20.83,7.67,64.45,2,68.15,1.55,1.11-17.08,2.54-35.82,4.6-55.5A199.24,199.24,0,0,1,316.35,1161.93Z" fill="#fff"/><path d="M315.75,1120.57c.16,7.58.28,15.27.38,23,14.25,3.6,62.51,3.6,76.44.36,1.05-7.93,2.23-15.41,3.58-22.08C390.74,1122.24,350.63,1125.7,315.75,1120.57Z" fill="#fff"/><path d="M803.35,1106.59c2.11,6.91,3.61,12,5.63,19,25.3,5.87,66.4-1.9,75.08-4.42-.62-6.13-1.51-15.2-2.11-21.47C877.39,1103.82,821,1112.57,803.35,1106.59Z" fill="#fff"/><path d="M813.92,1143.44c4.94,18.43,9.15,36.2,11.84,51.14,3.78,0,48.24,2.85,65.83-2.54-1.65-15.4-3.71-32.54-5.82-52.72C885.77,1139.32,858.07,1148.4,813.92,1143.44Z" fill="#fff"/><path d="M317.21,1185.24c.23,12.7,0,20.66.58,31.85,20.83,7.67,64.45,2,68.15,1.55.68-10.46,1.4-20.53,2.39-32.64C383.91,1187,331,1192.51,317.21,1185.24Z" fill="#ae3333"/><path d="M819.2,1164.58c2.64,10.9,4.89,20.75,6.56,30,3.78,0,48.24,2.85,65.83-2.54-1-9.46-2.18-19.64-3.42-31.15C885.44,1161.4,851.5,1167.53,819.2,1164.58Z" fill="#ae3333"/><path d="M415.53,874.12c2.13-4.9,4.42-9.75,6.7-14.59a214.33,214.33,0,0,0,9.33-22c2.16-6.33,4.12-13,2.24-19.65a56.92,56.92,0,0,0-4.13-9.84,41.3,41.3,0,0,1-3.89-12.2c-1.23-8.22.05-16.49,1.94-24.51,2-8.38,4.39-16.66,6.6-25s4.33-16.63,6.25-25c1.32-5.77,2.57-11.58,3.66-17.42-.68,1.09-1.38,2.16-2.06,3.24A315.71,315.71,0,0,0,420,748.39c-4,9.19-7.25,21.67-8.47,38-.05.64,3.06,46.07,3.35,64.05C415,856.31,415.23,864.49,415.53,874.12Z" fill="#fff" opacity="0.13"/><path d="M796.43,1099.81a1,1,0,0,1-.78-.91c-.08-1.19-.13-2.37-.19-3.56-2.88-13.21-6-26.82-9.14-40.35,2.75,7.6-1.34-36.17-3.23-54-3-28.36-12-147.19-13.5-168.29-1.24-17.87-6.21-67.35-5.11-65.72-3.41-8.79-13.16-33.47-18.6-43.24-7.84-14.09-16.15-28-26.17-40.65-1.28-1.63-2.59-3.25-3.9-4.86,9.51,28.37,19.66,56.57,25.64,85.94,3.57,17.52,5.6,35.44,7.53,53.2,2,18.08,3.5,36.21,5,54.33,3,35.86,11.89,71.77,11.84,107.79a329.4,329.4,0,0,1-4.11,52.86c-1.42,8.68-3.57,17.22-4.78,25.95a113,113,0,0,0-.81,27.56c1.77,16.36,16.2,35.31,18.85,51.5,1.63,10,1.84,21-1.87,30.61-5.89,15.25-23.2,80.88-321.22,76.11,123.49,32.54,323.8,8.87,352.34-23C811.65,1204.2,805.65,1142.84,796.43,1099.81Z" fill="#fff" opacity="0.13"/><path d="M527.86,619.29c10.94,12.22,25.12,22.8,41.19,27a45.19,45.19,0,0,0,37.54-6.08c10.22-6.67,33.55-31.5,36.5-39.52,0,0-32.36,21.9-58.42,23.62-24.88,1.64-50.73-8.4-66.55-17.94A120.93,120.93,0,0,0,527.86,619.29Z" fill="#fff" opacity="0.2"/><path d="M877.22,1043c-3.84-55.87-22.89-124.63-22.89-124.63s-14.58-307-52.88-331.94c-10.88-7.11-142.29-56.21-142.29-56.21s-2.49,55-82.85,55c-65.08,0-82.09-39.23-86.21-51.38a11.73,11.73,0,0,1-.75-2.59c-1,.64-100.94,62.69-145.44,89.5C299.18,647.69,317.24,945,317.24,945a619.73,619.73,0,0,0-3.6,128.12c5.52,68.42-1.88,179.2,14.45,197.93l61-1.5s-5.61-14.34-4.66-27c2.28-30.22,5.54-104.26,15.36-135.21S421.2,1019,421.2,1019c.49,23.68.3,42.22-1,50.32-3.6,21.92-31.66,125.93-17.78,156.22-3.34,29.28-3.7,60.94-3.7,60.94s93.7,31.58,170.7,30.65c137.52-1.66,240.17-35.54,240.17-35.54s-2.28-35.71-5.33-60.52c9.94-22.62-4.2-106.66-17.91-166.1,17.07,47.16,40.24,126.63,42.46,162.32,1.63,26.39,2.88,34.36,2.88,34.36h58.1s4.49-6.66,5.3-18.88S882.79,1124.26,877.22,1043Z" fill="none" stroke="#262521" stroke-linecap="round" stroke-linejoin="round" stroke-width="3"/><path d="M398.69,1286.5s93.7,31.58,170.7,30.65c137.52-1.66,240.17-35.54,240.17-35.54" fill="none" stroke="#636363" stroke-linecap="round" stroke-linejoin="round"/><path d="M489.35,531.24l0,0S489.36,531.2,489.35,531.24Z" fill="#262521" stroke="#262521" stroke-linecap="round" stroke-linejoin="round" stroke-width="3"/><path d="M786.32,1055c-1.23-47.59-23.43-300-23.43-300" fill="none" stroke="#262521" stroke-linecap="round" stroke-linejoin="round" stroke-width="3"/><path d="M410.64,770.48s12.18,215.25,10.67,254.29" fill="none" stroke="#262521" stroke-linecap="round" stroke-linejoin="round" stroke-width="3"/><polygon points="632.64 638.87 676.42 640.64 642.57 613.04 654.53 654.78 669.22 614 632.64 638.87" fill="#fff" stroke="#fff" stroke-linecap="round" stroke-linejoin="round" stroke-width="3"/><line x1="580.6" y1="615.1" x2="607.46" y2="1255.29" fill="none" stroke="#636363" stroke-linecap="round" stroke-linejoin="round" opacity="0.43"/><polygon points="677.76 578.83 721.53 577.06 687.68 604.66 699.64 562.92 714.33 603.71 677.76 578.83" fill="#fff" stroke="#fff" stroke-linecap="round" stroke-linejoin="round" stroke-width="3"/><polygon points="558.71 653.95 602.49 652.19 568.64 679.78 580.6 638.05 595.28 678.83 558.71 653.95" fill="#fff" stroke="#fff" stroke-linecap="round" stroke-linejoin="round" stroke-width="3"/><polygon points="427.9 582.83 471.67 581.07 437.82 608.66 449.79 566.93 464.47 607.71 427.9 582.83" fill="#fff" stroke="#fff" stroke-linecap="round" stroke-linejoin="round" stroke-width="3"/><polygon points="473.84 646.16 518.12 647.93 484.26 620.33 495.73 662.07 510.41 621.28 473.84 646.16" fill="#fff" stroke="#fff" stroke-linecap="round" stroke-linejoin="round" stroke-width="3"/></svg>