<svg xmlns="http://www.w3.org/2000/svg" width="1250" height="1550" viewBox="0 0 1250 1550"><title>s04e05-01</title><path d="M421.2,1019s-9.26,285.28-11.09,296.17-88.18,5.87-88.18,5.87c-9.74-21.32-2.77-179.5-8.29-247.92A619.73,619.73,0,0,1,317.24,945s-18.06-297.33,26.67-324.28,145.47-89.52,145.47-89.52-.25-.24.72,2.61c4.12,12.15,21.13,51.38,86.21,51.38,80.36,0,82.85-55,82.85-55s131.41,49.1,142.29,56.21c38.3,25,52.88,331.94,52.88,331.94s19,68.76,22.89,124.63c5.57,81.26,33.91,236.51,25.25,251.31s-75,19-84.93,9.83-19.77-220.87-36.83-264.05" fill="#f8f8f3" stroke="#262521" stroke-linecap="round" stroke-linejoin="round" stroke-width="3"/><path d="M410.64,729.17s5.34,277.52,3.82,316.55c-.83,21.49-24,238.18-5.84,246.45,16.7,7.6,98.36,4.27,175.29,1,133.05-5.72,221.32.47,229.49-15s-29.14-233.3-30.94-303.26c-1.22-47.58-21.21-260.47-21.21-260.47" fill="#f8f8f3" stroke="#262521" stroke-linecap="round" stroke-linejoin="round" stroke-width="3"/><path d="M478.53,544.39c4.44,23,39.21,59.94,100.25,59.94,62.09,0,89.84-42.77,93.3-62.31" fill="none" stroke="#cbcbcb" stroke-linecap="round" stroke-linejoin="round"/><path d="M509.51,585s-70.07,46.47-84.85,64.13-21.24,20.33-24.44,80.33" fill="none" stroke="#cbcbcb" stroke-linecap="round" stroke-linejoin="round"/><path d="M649.71,579s69.95,35.76,84.72,53.42,25.45,61.77,28.65,121.77" fill="none" stroke="#cbcbcb" stroke-linecap="round" stroke-linejoin="round"/><path d="M655.61,572.23s69.82,35.86,84.72,53.42C781.8,674.54,793.85,877.07,797,937.08l42.84,362.11" fill="none" stroke="#cbcbcb" stroke-linecap="round" stroke-linejoin="round"/><path d="M660.71,566.11s71.81,35.33,86.7,52.89c41.47,48.89,55,258.07,58.16,318.08l42.85,365.11" fill="none" stroke="#cbcbcb" stroke-linecap="round" stroke-linejoin="round"/><path d="M666.05,559.2s70.66,36.37,86.7,52.89c45.37,46.72,60,260.07,63.16,320.08L857.11,1301" fill="none" stroke="#cbcbcb" stroke-linecap="round" stroke-linejoin="round"/><path d="M669.52,552.21s74.73,38.25,92.72,52.62c45.6,36.42,60.1,258.69,63.29,318.69l42.34,375.67" fill="none" stroke="#cbcbcb" stroke-linecap="round" stroke-linejoin="round"/><path d="M672.08,544.8s79.84,39.55,97.83,53.92c45.6,36.41,61.94,256.33,65.13,316.34l43.12,383.07" fill="none" stroke="#cbcbcb" stroke-linecap="round" stroke-linejoin="round"/><path d="M710.32,553.92s51.38,25.46,69.37,39.83c45.6,36.42,62.43,259.34,65.63,319.34l43.11,383.07" fill="none" stroke="#cbcbcb" stroke-linecap="round" stroke-linejoin="round"/><path d="M579.65,604.33c-.15,226.67-.15,452.67,0,679.56" fill="none" stroke="#cbcbcb" stroke-linecap="round" stroke-linejoin="round"/><path d="M590.21,603.83c.29,227.17.29,453.17,0,680.06" fill="none" stroke="#cbcbcb" stroke-linecap="round" stroke-linejoin="round"/><path d="M600.77,602.4c-.27,226.6-.27,454.6,0,681.51" fill="none" stroke="#cbcbcb" stroke-linecap="round" stroke-linejoin="round"/><path d="M611.33,599.92q.25,342.12,0,683.93" fill="none" stroke="#cbcbcb" stroke-linecap="round" stroke-linejoin="round"/><path d="M621.9,596.22c-.4,228.78-.4,458.78,0,687.67" fill="none" stroke="#cbcbcb" stroke-linecap="round" stroke-linejoin="round"/><path d="M632.46,591.06q.06,346.41,0,692.8" fill="none" stroke="#cbcbcb" stroke-linecap="round" stroke-linejoin="round"/><path d="M643,584.09c.48,232.91.48,466.91,0,699.77" fill="none" stroke="#cbcbcb" stroke-linecap="round" stroke-linejoin="round"/><path d="M653.58,582q-.12,351,0,701.89" fill="none" stroke="#cbcbcb" stroke-linecap="round" stroke-linejoin="round"/><path d="M664.15,587c.35,232,.35,465,0,696.86" fill="none" stroke="#cbcbcb" stroke-linecap="round" stroke-linejoin="round"/><path d="M674.71,592.56c-.21,230.44-.21,461.44,0,691.29" fill="none" stroke="#cbcbcb" stroke-linecap="round" stroke-linejoin="round"/><path d="M685.27,598.75c.23,228.25.23,457.25,0,685.11" fill="none" stroke="#cbcbcb" stroke-linecap="round" stroke-linejoin="round"/><path d="M695.83,604.83c-.33,226.17-.33,453.17,0,679.05" fill="none" stroke="#cbcbcb" stroke-linecap="round" stroke-linejoin="round"/><path d="M706.4,611c.1,224,.1,449,0,672.83" fill="none" stroke="#cbcbcb" stroke-linecap="round" stroke-linejoin="round"/><path d="M717,618q-.69,333,0,665.88" fill="none" stroke="#cbcbcb" stroke-linecap="round" stroke-linejoin="round"/><path d="M727.52,625.86c0,219.14,0,439.14,0,658" fill="none" stroke="#cbcbcb" stroke-linecap="round" stroke-linejoin="round"/><line x1="738.08" y1="637.47" x2="738.08" y2="1283.52" fill="none" stroke="#cbcbcb" stroke-linecap="round" stroke-linejoin="round"/><line x1="748.64" y1="661.32" x2="748.64" y2="1280.16" fill="none" stroke="#cbcbcb" stroke-linecap="round" stroke-linejoin="round"/><line x1="421.21" y1="653.75" x2="421.21" y2="1280.16" fill="none" stroke="#cbcbcb" stroke-linecap="round" stroke-linejoin="round"/><line x1="431.77" y1="642.28" x2="431.77" y2="1278.92" fill="none" stroke="#cbcbcb" stroke-linecap="round" stroke-linejoin="round"/><line x1="410.58" y1="1124.18" x2="410.58" y2="1280.16" fill="none" stroke="#cbcbcb" stroke-linecap="round" stroke-linejoin="round"/><line x1="410.58" y1="682.77" x2="410.58" y2="722.25" fill="none" stroke="#cbcbcb" stroke-linecap="round" stroke-linejoin="round"/><line x1="421.14" y1="653.75" x2="421.14" y2="1278.92" fill="none" stroke="#cbcbcb" stroke-linecap="round" stroke-linejoin="round"/><line x1="442.34" y1="633.07" x2="442.34" y2="1283.11" fill="none" stroke="#cbcbcb" stroke-linecap="round" stroke-linejoin="round"/><line x1="452.9" y1="624.87" x2="452.9" y2="1283.11" fill="none" stroke="#cbcbcb" stroke-linecap="round" stroke-linejoin="round"/><line x1="463.46" y1="617.03" x2="463.46" y2="1283.92" fill="none" stroke="#cbcbcb" stroke-linecap="round" stroke-linejoin="round"/><line x1="474.02" y1="609.42" x2="474.02" y2="1288.65" fill="none" stroke="#cbcbcb" stroke-linecap="round" stroke-linejoin="round"/><line x1="484.59" y1="601.98" x2="484.59" y2="1288.65" fill="none" stroke="#cbcbcb" stroke-linecap="round" stroke-linejoin="round"/><path d="M495.15,594.68c.35,230.32.35,459.32,0,689.13" fill="none" stroke="#cbcbcb" stroke-linecap="round" stroke-linejoin="round"/><path d="M505.71,588q-.31,348,0,695.84" fill="none" stroke="#cbcbcb" stroke-linecap="round" stroke-linejoin="round"/><path d="M516.27,588.5c.23,232.5.23,463.5,0,695.32" fill="none" stroke="#cbcbcb" stroke-linecap="round" stroke-linejoin="round"/><path d="M526.84,594q-.51,345,0,689.93" fill="none" stroke="#cbcbcb" stroke-linecap="round" stroke-linejoin="round"/><path d="M537.4,598c.1,229,.1,457,0,685.84" fill="none" stroke="#cbcbcb" stroke-linecap="round" stroke-linejoin="round"/><path d="M548,600.94c-.46,228.06-.46,455.06,0,682.94" fill="none" stroke="#cbcbcb" stroke-linecap="round" stroke-linejoin="round"/><path d="M558.52,602.91q0,340.64,0,681" fill="none" stroke="#cbcbcb" stroke-linecap="round" stroke-linejoin="round"/><path d="M569.08,604.18c.42,226.82.42,452.82,0,679.71" fill="none" stroke="#cbcbcb" stroke-linecap="round" stroke-linejoin="round"/><line x1="759.21" y1="714.39" x2="759.21" y2="1281.4" fill="none" stroke="#cbcbcb" stroke-linecap="round" stroke-linejoin="round"/><path d="M769.77,883.64s1.29,120.74-1.43,252.49c-.68,32.74.85,142-.81,144" fill="none" stroke="#cbcbcb" stroke-linecap="round" stroke-linejoin="round"/><line x1="780.64" y1="1006.67" x2="780.64" y2="1272.41" fill="none" stroke="#cbcbcb" stroke-linecap="round" stroke-linejoin="round"/><line x1="791.2" y1="1100.7" x2="791.2" y2="1273.65" fill="none" stroke="#cbcbcb" stroke-linecap="round" stroke-linejoin="round"/><line x1="801.76" y1="1177.22" x2="801.76" y2="1268.52" fill="none" stroke="#cbcbcb" stroke-linecap="round" stroke-linejoin="round"/><path d="M773.14,771.82s8.84,88.72,13.39,156.92S832,1299.19,832,1299.19" fill="none" stroke="#cbcbcb" stroke-linecap="round" stroke-linejoin="round"/><line x1="818.17" y1="1269.52" x2="823.91" y2="1300.5" fill="none" stroke="#cbcbcb" stroke-linecap="round" stroke-linejoin="round"/><path d="M766.55,577.12s23,9.44,31.57,21.63,28.09,60.16,35.22,123.47" fill="none" stroke="#cbcbcb" stroke-linecap="round" stroke-linejoin="round"/><path d="M857.44,945.46s16.33,90.8,16.59,125.09,23.32,217.69,23.32,217.69" fill="none" stroke="#cbcbcb" stroke-linecap="round" stroke-linejoin="round"/><path d="M502.29,579s-74.62,47.33-87.54,66.39c-36,53.07-29.41,252-26.13,312l-3.57,356.46" fill="none" stroke="#cbcbcb" stroke-linecap="round" stroke-linejoin="round"/><path d="M495.15,573.18s-77.06,48.49-90,67.55c-36,53.07-28.32,257.56-25,317.56l-3.25,359.44" fill="none" stroke="#cbcbcb" stroke-linecap="round" stroke-linejoin="round"/><path d="M489.5,566.11s-77.41,48.81-91.58,67c-40.08,51.33-31.87,261.45-28.59,321.45l-1.21,363" fill="none" stroke="#cbcbcb" stroke-linecap="round" stroke-linejoin="round"/><path d="M484.59,559.08s-78,49.57-94.39,65.79C348.79,666,355.56,887,358.84,947l-1.62,369.89" fill="none" stroke="#cbcbcb" stroke-linecap="round" stroke-linejoin="round"/><path d="M480.2,550.2s-82.31,54.19-98.65,70.42c-41.42,41.11-36.36,259-33.08,318.94l-1.59,377.33" fill="none" stroke="#cbcbcb" stroke-linecap="round" stroke-linejoin="round"/><path d="M445.17,562.61s-59.91,35.33-76.26,51.56c-41.41,41.11-34.15,264.55-30.86,324.55L336.46,1316" fill="none" stroke="#cbcbcb" stroke-linecap="round" stroke-linejoin="round"/><path d="M400.22,729.43s-6.82,141.66-2,218.52c4.24,68.22-5.31,365-5.31,365" fill="none" stroke="#cbcbcb" stroke-linecap="round" stroke-linejoin="round"/><line x1="403.4" y1="1287.65" x2="401.07" y2="1313.41" fill="none" stroke="#cbcbcb" stroke-linecap="round" stroke-linejoin="round"/><path d="M326.74,1312.63s3.14-180.17-.29-214.28,2.09-147.52,2.09-147.52c-1-17.54-6.36-155.82-1.14-203.16,6-54.41,4.43-110.2,25.2-125.83" fill="none" stroke="#cbcbcb" stroke-linecap="round" stroke-linejoin="round"/><path d="M406.6,877.32s1.12,180.74-2.17,223.38" fill="none" stroke="#cbcbcb" stroke-linecap="round" stroke-linejoin="round"/><path d="M661.36,538.43l7.79,2.78" fill="none" stroke="#cbcbcb" stroke-linecap="round" stroke-linejoin="round"/><path d="M573.07,589.89V601" fill="none" stroke="#cbcbcb" stroke-linecap="round" stroke-linejoin="round"/><path d="M590.24,589.43c.21,4.05.41,7.59.62,11.63" fill="none" stroke="#cbcbcb" stroke-linecap="round" stroke-linejoin="round"/><path d="M605.73,586.41l1.73,10.2" fill="none" stroke="#cbcbcb" stroke-linecap="round" stroke-linejoin="round"/><path d="M620.58,582.16l3.61,9.45" fill="none" stroke="#cbcbcb" stroke-linecap="round" stroke-linejoin="round"/><path d="M635,575.08l4.93,7.25" fill="none" stroke="#cbcbcb" stroke-linecap="round" stroke-linejoin="round"/><path d="M647.44,564.71l6.44,4.89" fill="none" stroke="#cbcbcb" stroke-linecap="round" stroke-linejoin="round"/><path d="M657,552.23l6.8,3" fill="none" stroke="#cbcbcb" stroke-linecap="round" stroke-linejoin="round"/><path d="M488.81,540.28l-7.43,4.41" fill="none" stroke="#cbcbcb" stroke-linecap="round" stroke-linejoin="round"/><path d="M556,587.65,555.43,598" fill="none" stroke="#cbcbcb" stroke-linecap="round" stroke-linejoin="round"/><path d="M541.14,585.54l-1.5,8.83" fill="none" stroke="#cbcbcb" stroke-linecap="round" stroke-linejoin="round"/><path d="M527.31,579.73l-2.94,7.72" fill="none" stroke="#cbcbcb" stroke-linecap="round" stroke-linejoin="round"/><path d="M514.33,573.43l-4.11,6.05" fill="none" stroke="#cbcbcb" stroke-linecap="round" stroke-linejoin="round"/><path d="M504.21,563.49l-6.82,5.84" fill="none" stroke="#cbcbcb" stroke-linecap="round" stroke-linejoin="round"/><path d="M494.91,552.23l-7.52,4.92" fill="none" stroke="#cbcbcb" stroke-linecap="round" stroke-linejoin="round"/><path d="M411.45,737.23c0,.86,0,1.72,0,2.57,0,.68,0,1.36,0,2,0,.49,0,1,0,1.48,0,.28,0,.56,0,.85h0c.05,1.84.11,3.68.15,5.52,0,.74,0,1.48,0,2.22,0,2.07.06,4.13.07,6.2,0,.88,0,1.76,0,2.64,0,1.7,0,3.4,0,5.09a4.16,4.16,0,0,0,1.64.31,4.92,4.92,0,0,0,3.9-2.49l4.22-.11a4.49,4.49,0,0,0,7.92-.2l4.14-.11a4.88,4.88,0,0,0,4,2.28,4.93,4.93,0,0,0,3.91-2.49l4.22-.11a4.48,4.48,0,0,0,7.91-.2l4.39-.12a4.48,4.48,0,0,0,7.91-.2l4.22-.11a4.48,4.48,0,0,0,7.92-.21l4.22-.11a4.48,4.48,0,0,0,7.91-.2l4.23-.11a4.48,4.48,0,0,0,7.91-.21l4.07-.11a4.48,4.48,0,0,0,7.91-.2l4.23-.11a4.47,4.47,0,0,0,7.91-.21l4.38-.11a4.48,4.48,0,0,0,7.92-.21l4.22-.11a4.48,4.48,0,0,0,7.91-.2l4.23-.11a4.48,4.48,0,0,0,7.91-.21l4.23-.11a4.47,4.47,0,0,0,7.91-.21l4.07-.1a4.47,4.47,0,0,0,7.91-.21l4.23-.11a4.48,4.48,0,0,0,7.91-.2l4.38-.12a4.48,4.48,0,0,0,7.91-.2l4.23-.11a4.48,4.48,0,0,0,7.91-.21l4.23-.11A4.47,4.47,0,0,0,636,758l4.23-.11a4.48,4.48,0,0,0,7.91-.2l4.07-.11a4.48,4.48,0,0,0,7.91-.2l4.22-.11a4.49,4.49,0,0,0,7.92-.21l4.38-.11a4.48,4.48,0,0,0,7.91-.21l4.23-.11a4.47,4.47,0,0,0,7.91-.21l4.23-.11a4.48,4.48,0,0,0,7.91-.2L713,756a4.88,4.88,0,0,0,4,2.28,4.93,4.93,0,0,0,3.9-2.49l4.06-.1a4.49,4.49,0,0,0,7.92-.21l4.22-.11a4.47,4.47,0,0,0,7.91-.21l4.39-.11a4.47,4.47,0,0,0,7.91-.21l4.23-.11a5.14,5.14,0,0,0,3.29,2.22c1,6.45,2.12,12.89,2.6,19.39l3.65-.1A4.48,4.48,0,0,0,779,776l4.22-.11a4.49,4.49,0,0,0,7.92-.21l4.22-.11a4.47,4.47,0,0,0,7.91-.21l4.23-.11a4.48,4.48,0,0,0,7.91-.2l4.15-.11a4.47,4.47,0,0,0,7.91-.21l4.23-.11a4.48,4.48,0,0,0,7.91-.2l4.38-.12a6.51,6.51,0,0,0,.51.64c0-.22-.07-.43-.1-.65h0c-.18-1.21-.36-2.42-.55-3.63-.28-1.82-.57-3.63-.87-5.45h0a184.32,184.32,0,0,1-2.76-23.28l-1.44,0a4.47,4.47,0,0,0-7.79.2l-4.35.12a4.47,4.47,0,0,0-7.79.2l-4.27.11a4.46,4.46,0,0,0-7.78.2l-4.36.12a4.46,4.46,0,0,0-7.78.2l-4.36.11a4.46,4.46,0,0,0-7.78.21l-4.35.11a4.47,4.47,0,0,0-7.79.2l-4.53.12a5.53,5.53,0,0,0-2.15-1.79c-.43-6.62-.89-13.26-2.63-19.84l-4.58.12a4.47,4.47,0,0,0-7.79.2l-4.51.12a4.46,4.46,0,0,0-7.78.2l-4.36.11a4.46,4.46,0,0,0-7.78.21l-4.2.11a4.46,4.46,0,0,0-7.78.2l-4.35.11a4.47,4.47,0,0,0-7.79.2l-4.35.12a4.47,4.47,0,0,0-7.79.2l-4.35.11a4.46,4.46,0,0,0-7.78.21l-4.52.11a4.46,4.46,0,0,0-7.78.21l-4.35.11a4.47,4.47,0,0,0-7.79.2l-4.19.11a4.47,4.47,0,0,0-7.79.2l-4.35.12a4.47,4.47,0,0,0-7.79.2l-4.35.11a4.46,4.46,0,0,0-7.78.21l-4.36.11a4.46,4.46,0,0,0-7.78.2l-4.51.12a4.47,4.47,0,0,0-7.79.2l-4.35.12a4.47,4.47,0,0,0-7.79.2l-4.19.11a4.47,4.47,0,0,0-7.79.2l-4.35.11a4.46,4.46,0,0,0-7.78.21l-4.36.11a4.46,4.46,0,0,0-7.78.2l-4.36.12a4.46,4.46,0,0,0-7.78.2l-4.51.12a4.47,4.47,0,0,0-7.79.2l-4.35.11a4.46,4.46,0,0,0-7.78.2l-4.2.11a4.46,4.46,0,0,0-7.78.21l-4.36.11a4.46,4.46,0,0,0-7.78.2l-4.36.11a4.47,4.47,0,0,0-7.78.21l-4.35.11a4.47,4.47,0,0,0-7.79.2l-4.51.12a4.46,4.46,0,0,0-7.78.2l-4.36.12a4.46,4.46,0,0,0-7.78.2l-4.28.11a4.82,4.82,0,0,0-3.94-2.18,4.88,4.88,0,0,0-3.84,2.38l-4.35.12a4.83,4.83,0,0,0-3.95-2.18,3.91,3.91,0,0,0-.9.13c-.06.73-.09,1.45-.13,2.18h0c0,.44,0,.88-.06,1.33,0,.14,0,.28,0,.42,0,1.1-.06,2.2-.06,3.31Z" fill="#262521"/><path d="M314.16,788.5a4.92,4.92,0,0,0,3.9-2.48l4.22-.11a4.48,4.48,0,0,0,7.91-.2l4.23-.11a4.48,4.48,0,0,0,7.91-.21l4.07-.11a4.48,4.48,0,0,0,7.91-.2l4.23-.11a4.86,4.86,0,0,0,4,2.28,4.92,4.92,0,0,0,3.9-2.49l4.38-.11a4.89,4.89,0,0,0,4,2.28,5,5,0,0,0,3.9-2.49l4.22-.11a4.48,4.48,0,0,0,7.91-.2l4.23-.11a4.48,4.48,0,0,0,7.91-.21l4.23-.11a4.86,4.86,0,0,0,4,2.28l.24,0c0-.78,0-1.57,0-2.36h0c0-3.34-.06-6.68-.1-10,0-1,0-2,0-2.93h0c-.05-4.49-.08-9-.12-13.48,0-2.74-.05-5.48-.07-8.23a4,4,0,0,0-.78-.06,4.88,4.88,0,0,0-3.84,2.38l-4.35.11a4.46,4.46,0,0,0-7.78.2l-4.36.12a4.46,4.46,0,0,0-7.78.2l-4.36.11a4.46,4.46,0,0,0-7.78.21l-4.51.11a4.46,4.46,0,0,0-7.78.21l-4.36.11a4.46,4.46,0,0,0-7.78.2l-4.2.11a4.46,4.46,0,0,0-7.78.2l-4.36.12a4.46,4.46,0,0,0-7.78.2l-4.37.11a5.48,5.48,0,0,0-2.33-1.88c0,2-.09,3.94-.15,5.92l-.09,2.61c-.07,1.84-.15,3.69-.24,5.53-.12,2.47-.23,4.94-.35,7.41h0c-.05,1-.09,2-.14,3,0,.79-.07,1.57-.11,2.36-.08,1.81-.14,3.61-.2,5.42,0,.73-.06,1.45-.08,2.18h0c0,.77,0,1.54-.07,2.31A3.25,3.25,0,0,0,314.16,788.5Z" fill="#262521"/><path d="M311.66,1009.43c.08,1.65.17,3.31.27,5l3.58-.1a4.47,4.47,0,0,0,7.85-.2l4.29-.11a4.86,4.86,0,0,0,4,2.23,4.91,4.91,0,0,0,3.87-2.44l4.29-.11a4.83,4.83,0,0,0,4,2.23,4.88,4.88,0,0,0,3.87-2.43l4.14-.11a4.46,4.46,0,0,0,7.84-.21l4.29-.11a4.47,4.47,0,0,0,7.85-.2l4.45-.12a4.47,4.47,0,0,0,7.85-.2l4.29-.11a4.86,4.86,0,0,0,4,2.23,4.91,4.91,0,0,0,3.87-2.44l4.29-.11a4.83,4.83,0,0,0,4,2.23,4.88,4.88,0,0,0,3.87-2.43l4.32-.12a5.21,5.21,0,0,0,2.78,2.08c0-3.59.06-7.18.1-10.77,0-3.42.07-6.85.1-10.27a4.48,4.48,0,0,0,3.22,1.35,4.88,4.88,0,0,0,3.87-2.43l4.29-.11a4.47,4.47,0,0,0,7.85-.2l4.21-.11a4.85,4.85,0,0,0,4,2.22,4.9,4.9,0,0,0,3.87-2.43l4.29-.11a4.83,4.83,0,0,0,4,2.23,4.88,4.88,0,0,0,3.87-2.43l4.45-.12a4.47,4.47,0,0,0,7.85-.21l4.29-.11a4.47,4.47,0,0,0,7.85-.2l4.29-.11a4.46,4.46,0,0,0,7.84-.21l4.3-.11a4.83,4.83,0,0,0,4,2.23,4.88,4.88,0,0,0,3.87-2.43l4.14-.11a4.83,4.83,0,0,0,4,2.23,4.88,4.88,0,0,0,3.87-2.43l4.29-.12a4.47,4.47,0,0,0,7.85-.2l4.45-.12a4.47,4.47,0,0,0,7.85-.2l4.29-.11a4.46,4.46,0,0,0,7.84-.21l4.29-.11a4.47,4.47,0,0,0,7.85-.2l4.29-.11a4.48,4.48,0,0,0,7.85-.21l4.13-.11a4.47,4.47,0,0,0,7.85-.2l4.29-.11a4.47,4.47,0,0,0,7.85-.21l4.45-.11a4.83,4.83,0,0,0,4,2.23,4.89,4.89,0,0,0,3.87-2.44l4.29-.11a4.47,4.47,0,0,0,7.85-.2l4.29-.11a4.48,4.48,0,0,0,7.85-.21l4.29-.11a4.47,4.47,0,0,0,7.85-.2l4.13-.11a4.47,4.47,0,0,0,7.85-.21l4.29-.11a4.47,4.47,0,0,0,7.85-.2L682,985a4.47,4.47,0,0,0,7.85-.2l4.29-.11a4.48,4.48,0,0,0,7.85-.21l4.29-.11a4.47,4.47,0,0,0,7.85-.2l4.29-.12a4.47,4.47,0,0,0,7.85-.2l4.13-.11a4.47,4.47,0,0,0,7.85-.2l4.29-.11a4.47,4.47,0,0,0,7.84-.21l4.45-.11a4.48,4.48,0,0,0,7.85-.21l4.29-.11a4.47,4.47,0,0,0,7.85-.2l4.29-.12a5.24,5.24,0,0,0,2.95,2.12c.3,2.71.61,5.42.91,8.13.08.79.17,1.59.26,2.39,0,.44.08.88.13,1.32.08.84.17,1.67.24,2.51l0,.26c.21,2.34.38,4.69.49,7a4.11,4.11,0,0,0,1.21.16c2,0,3.79-1.67,4.67-4l2.78-.06c1,2.29,2.81,3.81,4.85,3.76s3.76-1.65,4.65-4l2.66-.06c1,2.27,2.8,3.77,4.83,3.71s3.73-1.63,4.63-3.93l2.7-.06c1,2.25,2.79,3.73,4.8,3.68s3.72-1.61,4.62-3.89l2.74-.06c1,2.22,2.78,3.68,4.78,3.63s3.69-1.59,4.6-3.84l2.69-.06c1,2.2,2.78,3.64,4.77,3.59s3.67-1.57,4.58-3.8l2.81-.06c1,2.17,2.78,3.59,4.75,3.54s3.65-1.55,4.56-3.75l3-.07c1,2.15,2.76,3.55,4.73,3.5a3.93,3.93,0,0,0,1.32-.27c-.08-.49-.15-1-.23-1.47s-.16-1.26-.22-1.89h0c-.12-1.19-.21-2.38-.32-3.58-.08-.83-.18-1.66-.29-2.49l-.12-.81c-.08-.57-.16-1.14-.26-1.71,0-.29-.09-.58-.14-.87-.12-.74-.26-1.47-.4-2.21-.18-1-.38-2-.58-3-.26-1.24-.49-2.49-.7-3.74-.43-2.45-.8-4.91-1.2-7.35-.07-.46-.14-.94-.22-1.41,0,0,0-.07,0-.1-.07-.45-.14-.91-.22-1.36a2,2,0,0,1,0-.26c-.07-.39-.16-.78-.25-1.16l-.09-.35c-.06-.23-.11-.47-.19-.7h0c-.06-.17-.1-.35-.16-.52a6.55,6.55,0,0,0-.39.53l-4.45.12a4.47,4.47,0,0,0-7.85.2l-4.29.12a4.47,4.47,0,0,0-7.85.2l-4.21.11a4.46,4.46,0,0,0-7.84.2l-4.29.12a4.47,4.47,0,0,0-7.85.2l-4.29.11a4.47,4.47,0,0,0-7.85.21l-4.29.11a4.47,4.47,0,0,0-7.85.2l-4.45.12a4.83,4.83,0,0,0-4-2.23,4.12,4.12,0,0,0-1.31.26v-.06c-.15-2.27-.27-4.53-.37-6.8s-.18-4.79-.24-7.19c0-.14,0-.27,0-.41,0-2.49-.09-5-.1-7.49h-.22a4.87,4.87,0,0,0-3.87,2.44l-4.29.11a4.47,4.47,0,0,0-7.85.2l-4.29.11a4.47,4.47,0,0,0-7.85.21l-4.44.11a4.47,4.47,0,0,0-7.85.21l-4.29.11a4.47,4.47,0,0,0-7.85.2l-4.13.11a4.47,4.47,0,0,0-7.85.2l-4.29.12a4.47,4.47,0,0,0-7.85.2l-4.29.11a4.47,4.47,0,0,0-7.85.21l-4.29.11a4.83,4.83,0,0,0-4-2.23,4.88,4.88,0,0,0-3.87,2.43l-4.45.12a4.47,4.47,0,0,0-7.85.2l-4.29.11a4.48,4.48,0,0,0-7.85.21l-4.13.11a4.47,4.47,0,0,0-7.85.2l-4.29.11a4.47,4.47,0,0,0-7.85.21l-4.29.11a4.83,4.83,0,0,0-4-2.23,4.88,4.88,0,0,0-3.87,2.43l-4.29.11a4.48,4.48,0,0,0-7.85.21l-4.45.11a4.48,4.48,0,0,0-7.85.21l-4.29.11a4.47,4.47,0,0,0-7.85.2l-4.13.11a4.47,4.47,0,0,0-7.85.21l-4.29.11a4.83,4.83,0,0,0-4-2.23,4.88,4.88,0,0,0-3.87,2.43l-4.29.11a4.48,4.48,0,0,0-7.85.21l-4.29.11a4.47,4.47,0,0,0-7.85.2l-4.45.12a4.46,4.46,0,0,0-7.84.2l-4.3.12a4.83,4.83,0,0,0-4-2.23,4.88,4.88,0,0,0-3.87,2.43l-4.14.11a4.83,4.83,0,0,0-4-2.23,4.88,4.88,0,0,0-3.87,2.43l-4.29.11a4.82,4.82,0,0,0-4-2.22A4.88,4.88,0,0,0,487,957.6l-4.29.11a4.47,4.47,0,0,0-7.85.2l-4.29.12a4.47,4.47,0,0,0-7.85.2l-4.44.12a4.47,4.47,0,0,0-7.85.2l-4.29.11a4.47,4.47,0,0,0-7.85.21l-4.21.11a4.47,4.47,0,0,0-7.85.2l-4.29.11a4.86,4.86,0,0,0-4-2.23,4.66,4.66,0,0,0-3.46,1.88v.66c0,3.36,0,6.73,0,10.09v.67h0c0,2.26,0,4.52,0,6.77a5.38,5.38,0,0,0-2.67,2.21l-4.29.11a4.83,4.83,0,0,0-4-2.23,4.88,4.88,0,0,0-3.87,2.43l-4.29.11a4.47,4.47,0,0,0-7.85.21l-4.29.11a4.47,4.47,0,0,0-7.85.2l-4.45.12a4.46,4.46,0,0,0-7.84.2l-4.3.11a4.47,4.47,0,0,0-7.84.21l-4.14.11a4.83,4.83,0,0,0-4-2.23,4.88,4.88,0,0,0-3.87,2.43l-4.29.11a4.47,4.47,0,0,0-7.85.21l-4.29.11a4.46,4.46,0,0,0-7.83.2l-.84,0c0,.72-.1,1.44-.17,2.15h0c-.1,1-.24,2-.4,3-.66,4.29-1.62,8.55-1.8,12.89-.07,1.54-.07,3.09-.05,4.63h0c0,.15,0,.3,0,.44,0,1.21.06,2.42.12,3.64Z" fill="#262521"/><path d="M417.44,1010.11q.94-5.25,1.46-10.53a4.94,4.94,0,0,0-1.34-.71Q417.49,1004.48,417.44,1010.11Z" fill="#262521"/><path d="M321.13,1092.86a4.9,4.9,0,0,0,3.89-2.47l4.24-.11a4.48,4.48,0,0,0,7.9-.21l4.24-.11a4.47,4.47,0,0,0,7.9-.21l4.24-.11a4.85,4.85,0,0,0,4,2.27,4.9,4.9,0,0,0,3.9-2.47l4.08-.11a4.48,4.48,0,0,0,7.9-.2l4.24-.11a4.86,4.86,0,0,0,4,2.26,4.92,4.92,0,0,0,3.9-2.47l4.39-.11a4.48,4.48,0,0,0,7.9-.21l4.24-.11a4.47,4.47,0,0,0,7.9-.21l.9,0c.13-1,.23-2.06.31-3.09a.06.06,0,0,0,0,0l0-.38.09-1.44c0-.22,0-.43,0-.64v0c.18-3.34.21-6.69.43-10,.1-1.41.24-2.83.4-4.24a2,2,0,0,0,.16-.24l4.25-.11a4.47,4.47,0,0,0,7.9-.21l4.24-.11a4.48,4.48,0,0,0,7.9-.2l4.16-.11a4.47,4.47,0,0,0,7.9-.21L453,1067a4.85,4.85,0,0,0,4,2.27,4.9,4.9,0,0,0,3.89-2.47l4.4-.12a4.48,4.48,0,0,0,7.9-.2l4.24-.11a4.48,4.48,0,0,0,7.9-.21l4.24-.11a4.48,4.48,0,0,0,7.9-.2l4.24-.11a4.47,4.47,0,0,0,7.89-.21l4.09-.11a4.47,4.47,0,0,0,7.89-.2l4.24-.11a4.48,4.48,0,0,0,7.9-.21l4.4-.11a4.48,4.48,0,0,0,7.9-.21l4.24-.11a4.48,4.48,0,0,0,7.9-.2l4.24-.11a4.47,4.47,0,0,0,7.89-.21l4.24-.11a4.47,4.47,0,0,0,7.9-.21l4.08-.1a4.48,4.48,0,0,0,7.9-.21l4.24-.11a4.48,4.48,0,0,0,7.9-.2l4.4-.12a4.48,4.48,0,0,0,7.9-.2l4.24-.11a4.47,4.47,0,0,0,7.89-.21l4.24-.11a4.47,4.47,0,0,0,7.9-.21l4.24-.11a4.48,4.48,0,0,0,7.9-.2l4.08-.11a4.48,4.48,0,0,0,7.9-.2l4.24-.11a4.48,4.48,0,0,0,7.9-.21l4.4-.11a4.47,4.47,0,0,0,7.89-.21l4.24-.11a4.47,4.47,0,0,0,7.9-.21l4.24-.11a4.48,4.48,0,0,0,7.9-.2l4.24-.11a4.48,4.48,0,0,0,7.9-.21l4.08-.1a4.48,4.48,0,0,0,7.9-.21l4.24-.11a4.47,4.47,0,0,0,7.9-.21l4.39-.11a4.47,4.47,0,0,0,7.9-.21l4.24-.11a4.48,4.48,0,0,0,7.9-.2l4.24-.11a4.48,4.48,0,0,0,7.9-.21l2.26-.06c.18,2.19.4,4.36.71,6.55q1.08,7.55,1.63,15.15l1.24,0a4.48,4.48,0,0,0,7.9-.21l4.4-.11a4.86,4.86,0,0,0,4,2.26,4.92,4.92,0,0,0,3.9-2.47l4.24-.11a4.47,4.47,0,0,0,7.89-.21l4.24-.11a4.48,4.48,0,0,0,7.9-.2l4.24-.11a4.48,4.48,0,0,0,7.9-.21l4.16-.11a4.48,4.48,0,0,0,7.9-.2l4.24-.11a4.48,4.48,0,0,0,7.9-.21l4.41-.11a6,6,0,0,0,1.57,1.54c-.06-.53-.14-1.05-.2-1.58h0c-.32-2.44-.73-4.87-1.17-7.29,0-.08,0-.16,0-.24-1.52-8.24-3.46-16.43-3.65-24.8l-1.74,0a4.46,4.46,0,0,0-7.8.2l-4.34.11a4.81,4.81,0,0,0-3.95-2.19,4.87,4.87,0,0,0-3.85,2.39l-4.26.12a4.82,4.82,0,0,0-4-2.2,4.88,4.88,0,0,0-3.85,2.4l-4.34.11a4.46,4.46,0,0,0-7.79.2l-4.34.12a4.47,4.47,0,0,0-7.8.2l-4.34.11a4.46,4.46,0,0,0-7.8.21l-4.5.11a4.81,4.81,0,0,0-3.95-2.19,4.88,4.88,0,0,0-3.85,2.4l-3.28.08c-.3-1.82-.6-3.64-.87-5.46-.33-2.19-.62-4.39-.92-6.58h0c-.17-1.18-.33-2.37-.5-3.55-.08-.54-.16-1.08-.25-1.62s-.18-1.12-.26-1.68l0-.19c-.08-.48-.14-1-.21-1.43,0-.12,0-.24,0-.36-.06-.5-.12-1-.16-1.5a4.58,4.58,0,0,0-3.37-1.51,4.88,4.88,0,0,0-3.85,2.4l-4.34.11a4.81,4.81,0,0,0-3.95-2.19,4.87,4.87,0,0,0-3.85,2.39l-4.34.12a4.81,4.81,0,0,0-3.95-2.19,4.87,4.87,0,0,0-3.85,2.39l-4.49.12a4.47,4.47,0,0,0-7.8.2l-4.34.11a4.46,4.46,0,0,0-7.8.21l-4.18.1a4.46,4.46,0,0,0-7.8.21l-4.34.11a4.81,4.81,0,0,0-4-2.19,4.87,4.87,0,0,0-3.85,2.39L703,1028a4.46,4.46,0,0,0-7.79.2l-4.34.11a4.46,4.46,0,0,0-7.8.21l-4.5.11a4.46,4.46,0,0,0-7.8.21l-4.34.11a4.81,4.81,0,0,0-4-2.19,4.87,4.87,0,0,0-3.85,2.39l-4.18.11a4.81,4.81,0,0,0-3.95-2.19,4.87,4.87,0,0,0-3.85,2.39l-4.34.12a4.46,4.46,0,0,0-7.79.2l-4.34.11a4.46,4.46,0,0,0-7.8.21l-4.34.11a4.47,4.47,0,0,0-7.8.2l-4.5.12a4.81,4.81,0,0,0-4-2.19,4.87,4.87,0,0,0-3.85,2.39l-4.34.11a4.45,4.45,0,0,0-7.79.21l-4.19.11a4.45,4.45,0,0,0-7.79.2l-4.34.11a4.46,4.46,0,0,0-7.8.21l-4.34.11a4.47,4.47,0,0,0-7.8.2l-4.34.11a4.46,4.46,0,0,0-7.8.21l-4.5.11a4.45,4.45,0,0,0-7.79.21l-4.34.11a4.47,4.47,0,0,0-7.8.2l-4.18.11a4.47,4.47,0,0,0-7.8.2l-4.34.12a4.47,4.47,0,0,0-7.8.2l-4.34.11a4.46,4.46,0,0,0-7.8.21l-4.34.11a4.81,4.81,0,0,0-3.95-2.19,4.87,4.87,0,0,0-3.85,2.39l-4.49.12a4.47,4.47,0,0,0-7.8.2l-4.34.12a4.46,4.46,0,0,0-7.8.2l-4.26.11a4.47,4.47,0,0,0-7.8.2l-4.34.12a4.46,4.46,0,0,0-7.8.2l-2.14,0c-.45,5.92-.56,11.86-.92,17.78,0,.78-.1,1.56-.16,2.35l-3.5.09a4.81,4.81,0,0,0-3.95-2.19,4.87,4.87,0,0,0-3.85,2.39l-4.34.11a4.45,4.45,0,0,0-7.79.21l-4.5.11a4.46,4.46,0,0,0-7.8.21l-4.34.11a4.47,4.47,0,0,0-7.8.2l-4.18.11a4.47,4.47,0,0,0-7.8.2l-4.34.12a4.81,4.81,0,0,0-3.95-2.19,4.87,4.87,0,0,0-3.85,2.39l-4.34.11a4.45,4.45,0,0,0-7.79.21l-4.34.11a4.47,4.47,0,0,0-7.8.2l-4,.11c0,.34.07.68.1,1v0c0,.09,0,.18,0,.28.1.93.21,1.86.35,2.79l.12.84c.09.62.19,1.25.28,1.87,0,.25.08.5.11.74h0c.36,2.32.71,4.64.87,7,.43,5.94.57,11.92.61,17.88l2.21-.06A4.87,4.87,0,0,0,321.13,1092.86Z" fill="#262521"/><path d="M318.78,1166.57a4.59,4.59,0,0,0,8.43-.22l3.71-.1a4.59,4.59,0,0,0,8.43-.22l3.7-.09a4.59,4.59,0,0,0,8.43-.22l3.55-.1a4.58,4.58,0,0,0,8.43-.21l3.71-.1a4.59,4.59,0,0,0,8.43-.22l3.87-.1a4.59,4.59,0,0,0,8.43-.22l3.71-.1a5,5,0,0,0,4.28,2.67,5.06,5.06,0,0,0,4.15-2.89l3.72-.09a6.07,6.07,0,0,0,2.23,2.17c.08-.74.13-1.49.18-2.24h0c0-.42,0-.84.06-1.26a1.48,1.48,0,0,0,0-.21c0-.55.05-1.11.06-1.66V1161c0-1.39.05-2.77.07-4.16,0-.1,0-.21,0-.31,0-.43,0-.86,0-1.3s0-.63,0-.94,0-.61,0-.92,0-.66,0-1c.05-1.12.11-2.23.21-3.34s.23-2.12.38-3.17a4.47,4.47,0,0,0,3.18,1.33,5.08,5.08,0,0,0,4.15-2.89l3.71-.1a4.59,4.59,0,0,0,8.43-.22l3.71-.09a5,5,0,0,0,4.28,2.67,5.11,5.11,0,0,0,4.15-2.89l3.63-.1a4.59,4.59,0,0,0,8.43-.22l3.7-.09a4.59,4.59,0,0,0,8.44-.22l3.86-.1a4.59,4.59,0,0,0,8.43-.22l3.71-.1a4.59,4.59,0,0,0,8.43-.22l3.71-.1a5,5,0,0,0,4.28,2.67,5.06,5.06,0,0,0,4.15-2.89l3.7-.09a4.59,4.59,0,0,0,8.43-.22l3.55-.09a4.59,4.59,0,0,0,8.43-.22l3.71-.1a4.59,4.59,0,0,0,8.43-.22l3.87-.1a4.59,4.59,0,0,0,8.43-.22l3.71-.1a5,5,0,0,0,4.28,2.67,5.06,5.06,0,0,0,4.15-2.89l3.7-.09a4.59,4.59,0,0,0,8.43-.22l3.71-.1a4.59,4.59,0,0,0,8.43-.22l3.55-.09a4.59,4.59,0,0,0,8.43-.22l3.71-.1a4.59,4.59,0,0,0,8.43-.22l3.86-.1a4.59,4.59,0,0,0,8.44-.22l3.7-.09a4.59,4.59,0,0,0,8.43-.22l3.71-.1a4.59,4.59,0,0,0,8.43-.22l3.71-.09a4.59,4.59,0,0,0,8.43-.22l3.55-.1a4.58,4.58,0,0,0,8.43-.22l3.71-.09a5,5,0,0,0,4.28,2.67,5.11,5.11,0,0,0,4.15-2.89l3.86-.1a4.59,4.59,0,0,0,8.43-.22l3.71-.1a4.59,4.59,0,0,0,8.43-.22l3.71-.09a4.59,4.59,0,0,0,8.43-.22l3.71-.1a5,5,0,0,0,4.28,2.67,5.09,5.09,0,0,0,4.15-2.89l3.55-.09a4.59,4.59,0,0,0,8.43-.22l3.7-.1a4.59,4.59,0,0,0,8.44-.22l3.86-.1a4.59,4.59,0,0,0,8.43-.22l3.71-.09a4.59,4.59,0,0,0,8.43-.22l3.71-.1a4.59,4.59,0,0,0,8.43-.22l3.7-.1a5.05,5.05,0,0,0,4.28,2.68,4.22,4.22,0,0,0,1.32-.29q.33,3.39.75,6.77h0v0c.31,2.45.66,4.89,1,7.33l0,.27q.36,2.37.75,4.74h0c.14.88.27,1.78.42,2.66a5.42,5.42,0,0,0,3.28-2.76l3.87-.1a4.59,4.59,0,0,0,8.43-.22l3.71-.1a5,5,0,0,0,4.28,2.68,5.08,5.08,0,0,0,4.15-2.9l3.71-.09a4.59,4.59,0,0,0,8.43-.22l3.7-.1a4.59,4.59,0,0,0,8.44-.22l3.62-.09a4.59,4.59,0,0,0,8.43-.22l3.71-.1a4.59,4.59,0,0,0,8.43-.22l3.87-.1a5,5,0,0,0,4.28,2.67,4.07,4.07,0,0,0,1.73-.44c-.09-.8-.2-1.59-.3-2.38h0c0-.25-.07-.51-.1-.77l-.3-2.13c-.07-.41-.13-.83-.19-1.24-.4-2.65-.83-5.28-1.2-7.93-.1-.71-.21-1.43-.3-2.14-.2-1.59-.39-3.18-.56-4.77h0c-.26-2.39-.49-4.79-.71-7.19,0-.17,0-.33,0-.5-.22-2.39-.42-4.78-.62-7.17a5.36,5.36,0,0,0-1.81,1.54l-5.15.13a4.34,4.34,0,0,0-7.16.19l-5,.13a4.35,4.35,0,0,0-7.16.18l-4.9.13a4.34,4.34,0,0,0-7.16.19l-5,.13a4.36,4.36,0,0,0-7.17.18l-5,.13a4.35,4.35,0,0,0-7.17.19l-5,.13a4.65,4.65,0,0,0-3.63-1.79,4.73,4.73,0,0,0-3.54,2l-5.13.14a4.61,4.61,0,0,0-3.62-1.79,4.19,4.19,0,0,0-2.08.64l0,1.3h0v.12c0,1.33.07,2.66.13,4,0-.18,0-.35-.07-.53-.14-1.16-.29-2.32-.43-3.47-.09-.65-.16-1.3-.25-2h0l-.39-3c-.34-2.62-.78-5.24-1.21-7.87-.16-.93-.31-1.86-.45-2.8a.59.59,0,0,1,0-.13c-.37-2.41-.69-4.83-.88-7.26a5.69,5.69,0,0,0-1.37,1.28l-5,.13a4.65,4.65,0,0,0-3.63-1.79,4.71,4.71,0,0,0-3.54,2l-5,.13a4.37,4.37,0,0,0-7.17.19l-5,.13a4.34,4.34,0,0,0-7.16.19l-5.14.13a4.34,4.34,0,0,0-7.16.19l-5,.13a4.36,4.36,0,0,0-7.17.18l-4.81.13a4.65,4.65,0,0,0-3.63-1.79,4.71,4.71,0,0,0-3.54,2l-5,.13a4.37,4.37,0,0,0-7.17.19l-5,.13a4.34,4.34,0,0,0-7.16.19l-5,.13a4.35,4.35,0,0,0-7.16.18l-5.13.14a4.65,4.65,0,0,0-3.63-1.79,4.7,4.7,0,0,0-3.54,2l-5,.13a4.35,4.35,0,0,0-7.17.19l-4.81.12a4.37,4.37,0,0,0-7.17.19l-5,.13a4.34,4.34,0,0,0-7.16.19l-5,.13a4.35,4.35,0,0,0-7.16.18l-5,.13a4.34,4.34,0,0,0-7.16.19l-5.13.13a4.35,4.35,0,0,0-7.17.19l-5,.13a4.63,4.63,0,0,0-3.63-1.79,4.69,4.69,0,0,0-3.53,2l-4.82.13a4.34,4.34,0,0,0-7.16.19l-5,.13a4.35,4.35,0,0,0-7.16.18l-5,.13a4.34,4.34,0,0,0-7.16.19l-5,.13a4.65,4.65,0,0,0-3.63-1.79,4.71,4.71,0,0,0-3.54,2l-5.13.14a4.63,4.63,0,0,0-3.62-1.79,4.7,4.7,0,0,0-3.54,2l-5,.13a4.63,4.63,0,0,0-3.62-1.78,4.68,4.68,0,0,0-3.54,2l-4.82.13a4.61,4.61,0,0,0-3.62-1.79,4.68,4.68,0,0,0-3.54,2l-5,.13a4.34,4.34,0,0,0-7.16.19l-5,.13a4.65,4.65,0,0,0-3.63-1.79,4.73,4.73,0,0,0-3.54,2l-5,.13a4.37,4.37,0,0,0-7.17.19l-5.13.13a4.63,4.63,0,0,0-3.62-1.78,4.68,4.68,0,0,0-3.54,2l-5,.13a4.35,4.35,0,0,0-7.17.19l-4.89.12a4.37,4.37,0,0,0-7.17.19l-5,.13a4.35,4.35,0,0,0-7.17.19l-5,.13a4.63,4.63,0,0,0-3.63-1.79,3.89,3.89,0,0,0-1.39.3c-.07.54-.11,1.08-.16,1.62h0c-.61,5.94-.6,12-.89,17.94a4.71,4.71,0,0,0-3.31,2l-5,.13a4.34,4.34,0,0,0-7.16.19l-5,.13a4.65,4.65,0,0,0-3.63-1.79,4.7,4.7,0,0,0-3.54,2l-5.13.14a4.35,4.35,0,0,0-7.16.18l-5,.13a4.67,4.67,0,0,0-3.62-1.79,4.72,4.72,0,0,0-3.54,2l-4.82.12a4.63,4.63,0,0,0-3.62-1.78,4.68,4.68,0,0,0-3.54,2l-5,.13a4.34,4.34,0,0,0-7.16.19l-5,.13a4.65,4.65,0,0,0-3.63-1.79,4.7,4.7,0,0,0-3.54,2l-2.72.07c.06,10.82.35,21.63.48,32.45Z" fill="#262521"/><path d="M316.46,1242.79l.09-.14,4.3-.12a4.83,4.83,0,0,0,4,2.23,4.88,4.88,0,0,0,3.87-2.43l4.29-.11a4.47,4.47,0,0,0,7.85-.21l4.29-.11a4.47,4.47,0,0,0,7.85-.2l4.13-.11a4.47,4.47,0,0,0,7.85-.2l4.29-.12a4.47,4.47,0,0,0,7.85-.2l4.45-.12a4.83,4.83,0,0,0,4,2.23,4.88,4.88,0,0,0,3.87-2.43l4.29-.11a4.46,4.46,0,0,0,7.84-.21l1.34,0c0-1.13,0-2.27,0-3.4a.2.2,0,0,1,0-.07c0-1.18,0-2.36-.05-3.54,0,0,0-.05,0-.07-.13-8.46-.33-16.91-.4-25.37l-1.6,0a4.47,4.47,0,0,0-7.85.2l-4.29.11a4.46,4.46,0,0,0-7.84.21l-4.45.11a4.47,4.47,0,0,0-7.85.21l-4.29.11a4.47,4.47,0,0,0-7.85.2l-4.13.11a4.47,4.47,0,0,0-7.85.2l-4.29.12a4.84,4.84,0,0,0-4-2.23,4.9,4.9,0,0,0-3.87,2.43l-4.28.11a4.47,4.47,0,0,0-7.85.21l-3.79.09c0,.28,0,.55,0,.82h0q0,4.7.05,9.39h0q.06,10.89.1,21.77C316.45,1242.37,316.45,1242.58,316.46,1242.79Z" fill="#262521"/><path d="M841.64,818.08a4.37,4.37,0,0,0-7.27.19l-4.87.13a4.37,4.37,0,0,0-7.27.19l-4.79.12a4.37,4.37,0,0,0-7.27.19l-4.87.13a4.36,4.36,0,0,0-7.26.19l-4.88.13a4.68,4.68,0,0,0-3.68-1.86,4.73,4.73,0,0,0-3.58,2l-4.88.13a4.67,4.67,0,0,0-3.67-1.85,4.74,4.74,0,0,0-3.59,2l-3.26.09c0,.8,0,1.62,0,2.43-.1-.82-.21-1.63-.3-2.45q-.57-5.13-1-10.29c-.13-1.67-.25-3.35-.36-5l-.12-1.69c-.13-2-.25-4.11-.38-6.16a4.11,4.11,0,0,0-1.89-.42,4.71,4.71,0,0,0-3.59,2l-4.87.12a4.37,4.37,0,0,0-7.27.19l-5,.13a4.36,4.36,0,0,0-7.26.19l-4.88.13a4.36,4.36,0,0,0-7.26.19l-4.72.12A4.67,4.67,0,0,0,718,797.6a4.74,4.74,0,0,0-3.59,2l-4.87.13a4.37,4.37,0,0,0-7.27.19l-4.87.12a4.37,4.37,0,0,0-7.27.19l-4.87.13a4.67,4.67,0,0,0-3.68-1.85,4.72,4.72,0,0,0-3.59,2l-5,.13a4.36,4.36,0,0,0-7.26.19l-4.87.13a4.36,4.36,0,0,0-7.27.18l-4.71.13a4.37,4.37,0,0,0-7.27.19l-4.87.12a4.37,4.37,0,0,0-7.27.19l-4.87.13a4.67,4.67,0,0,0-3.68-1.85,4.72,4.72,0,0,0-3.59,2l-4.87.13a4.68,4.68,0,0,0-3.68-1.86,4.73,4.73,0,0,0-3.58,2l-5,.14a4.36,4.36,0,0,0-7.27.18l-4.87.13a4.69,4.69,0,0,0-3.68-1.85,4.74,4.74,0,0,0-3.59,2l-4.71.12a4.37,4.37,0,0,0-7.27.19l-4.87.13a4.67,4.67,0,0,0-3.68-1.85,4.72,4.72,0,0,0-3.59,2l-4.87.13A4.68,4.68,0,0,0,548,802a4.73,4.73,0,0,0-3.58,2l-4.88.13a4.67,4.67,0,0,0-3.67-1.85,4.74,4.74,0,0,0-3.59,2l-5,.13a4.69,4.69,0,0,0-3.68-1.85,4.74,4.74,0,0,0-3.59,2l-4.87.13a4.36,4.36,0,0,0-7.26.19l-4.72.12a4.36,4.36,0,0,0-7.26.19l-4.88.13a4.68,4.68,0,0,0-3.68-1.86,4.73,4.73,0,0,0-3.58,2l-4.87.13a4.37,4.37,0,0,0-7.27.19l-4.87.13a4.37,4.37,0,0,0-7.27.19l-5,.13a4.36,4.36,0,0,0-7.26.19l-4.88.12a4.36,4.36,0,0,0-7.26.19l-4.8.13a4.36,4.36,0,0,0-7.26.19l-4.87.12a4.73,4.73,0,0,0-3.68-1.85,4.34,4.34,0,0,0-2.57,1c0,.35,0,.69,0,1h0c0,6.89,0,13.79-.05,20.68,0-.16,0-.33,0-.5,0-.77,0-1.54,0-2.32a4.89,4.89,0,0,0-3.16,2l-4.87.13a4.67,4.67,0,0,0-3.68-1.85,4.72,4.72,0,0,0-3.59,2l-4.87.12a4.36,4.36,0,0,0-7.26.19l-4.87.13a4.37,4.37,0,0,0-7.27.19l-5,.13a4.69,4.69,0,0,0-3.68-1.85,4.74,4.74,0,0,0-3.59,2l-4.87.13a4.36,4.36,0,0,0-7.26.19l-4.72.12a4.36,4.36,0,0,0-7.26.19l-4.88.12a4.36,4.36,0,0,0-7.26.19l-4.87.13a4.7,4.7,0,0,0-3.68-1.85,4,4,0,0,0-1.1.18v1.79h0c0,1.47,0,2.94,0,4.41q0,4.38,0,8.74h0l.06,12c0,3.19,0,6.37,0,9.56a4,4,0,0,0,1.79.38,5,5,0,0,0,4.11-2.83l3.79-.09a4.57,4.57,0,0,0,8.35-.22l3.79-.1a4.57,4.57,0,0,0,8.35-.22l3.63-.09a4.57,4.57,0,0,0,8.35-.22l3.79-.1a4.57,4.57,0,0,0,8.35-.22l3.95-.1a4.56,4.56,0,0,0,8.34-.22l3.79-.09a4.57,4.57,0,0,0,8.35-.22l3.79-.1a4.57,4.57,0,0,0,8.35-.22l3.79-.1a5,5,0,0,0,4.24,2.61,2.58,2.58,0,0,0,.29,0c0-.9-.07-1.79-.1-2.69h0c-.05-1.44-.12-2.87-.19-4.31,0-.91-.09-1.83-.14-2.74-.08-1.7-.18-3.41-.27-5.11,0-.15,0-.31,0-.46h0l-.3-5.64a4.35,4.35,0,0,0,3,1.14,5.05,5.05,0,0,0,4.11-2.82l3.79-.1a4.56,4.56,0,0,0,8.34-.22l3.72-.09a4.57,4.57,0,0,0,8.34-.22l3.79-.1a4.57,4.57,0,0,0,8.35-.22l3.95-.1a4.57,4.57,0,0,0,8.35-.22l3.79-.1a4.56,4.56,0,0,0,8.34-.21l3.79-.1a4.57,4.57,0,0,0,8.35-.22l3.79-.1a4.57,4.57,0,0,0,8.35-.22l3.63-.09a4.57,4.57,0,0,0,8.35-.22l3.79-.1a5,5,0,0,0,4.24,2.61,5.05,5.05,0,0,0,4.11-2.82l3.95-.11a4.56,4.56,0,0,0,8.34-.21l3.79-.1a4.57,4.57,0,0,0,8.35-.22l3.79-.1a4.57,4.57,0,0,0,8.35-.22l3.79-.09a5,5,0,0,0,4.24,2.6,5.05,5.05,0,0,0,4.11-2.82l3.63-.1a5,5,0,0,0,4.24,2.61,5.05,5.05,0,0,0,4.11-2.82l3.79-.1a4.57,4.57,0,0,0,8.35-.22l3.94-.1a4.57,4.57,0,0,0,8.35-.22l3.79-.1a4.57,4.57,0,0,0,8.35-.22l3.79-.09a5,5,0,0,0,4.24,2.6,5.05,5.05,0,0,0,4.11-2.82l3.79-.1a4.57,4.57,0,0,0,8.35-.22l3.63-.09a4.57,4.57,0,0,0,8.35-.22l3.79-.1a4.56,4.56,0,0,0,8.34-.22l3.95-.1a4.57,4.57,0,0,0,8.35-.22l3.79-.09a5,5,0,0,0,4.24,2.6,5.05,5.05,0,0,0,4.11-2.82l3.79-.1a4.57,4.57,0,0,0,8.35-.22l3.79-.1a5,5,0,0,0,4.23,2.61,5,5,0,0,0,4.11-2.82l3.64-.1a4.56,4.56,0,0,0,8.34-.22l3.79-.09a4.57,4.57,0,0,0,8.35-.22l4-.1a5,5,0,0,0,4.24,2.6,5.05,5.05,0,0,0,4.11-2.82l3.79-.1a5,5,0,0,0,4.23,2.61,4.62,4.62,0,0,0,3.29-1.68,202.55,202.55,0,0,0,1.49,20.59l1.83-.05a5,5,0,0,0,4.23,2.61,5,5,0,0,0,4.11-2.82l3.8-.1a4.56,4.56,0,0,0,8.34-.22l3.79-.1a4.57,4.57,0,0,0,8.35-.22l3.79-.09a5,5,0,0,0,4.24,2.6,5.05,5.05,0,0,0,4.11-2.82l3.71-.1a4.57,4.57,0,0,0,8.35-.22l3.79-.09a4.56,4.56,0,0,0,8.34-.22l4-.1a5.08,5.08,0,0,0,4,2.59c-.08-1.18-.14-2.36-.2-3.55-.12-2.58-.24-5.16-.43-7.74a1.34,1.34,0,0,0,0-.2c-.08-1.13-.2-2.27-.33-3.4,0-.1,0-.21,0-.32h0c-.06-.5-.11-1-.18-1.48-.88-6.11-2-12.22-2-18.39h0c0-.34,0-.68,0-1a6.13,6.13,0,0,0-1,1Z" fill="#262521"/><path d="M846.25,893.83a4.47,4.47,0,0,0-7.85.2l-4.29.11a4.83,4.83,0,0,0-4-2.23,4.89,4.89,0,0,0-3.87,2.44l-4.21.11a4.47,4.47,0,0,0-7.85.2l-4.29.11a4.47,4.47,0,0,0-7.85.21l-4.29.11a4.47,4.47,0,0,0-7.85.2l-4.29.11a4.46,4.46,0,0,0-7.77.1l-.09-.79h0c-.39-3.68-.74-7.38-1-11.07-.07-1-.14-1.95-.2-2.93,0-.67-.08-1.34-.11-2-.05-1-.09-1.94-.12-2.92,0-.62-.06-1.25-.07-1.88l-4,.11a4.47,4.47,0,0,0-7.85.2l-4.29.11a4.47,4.47,0,0,0-7.85.21l-4.44.11a4.47,4.47,0,0,0-7.85.21l-4.29.11a4.47,4.47,0,0,0-7.85.2l-4.13.11a4.47,4.47,0,0,0-7.85.21l-4.29.11a4.47,4.47,0,0,0-7.85.2l-4.29.11a4.86,4.86,0,0,0-4-2.23,4.91,4.91,0,0,0-3.87,2.44l-4.29.11a4.83,4.83,0,0,0-4-2.23,4.88,4.88,0,0,0-3.87,2.43l-4.45.12a4.47,4.47,0,0,0-7.85.2l-4.29.12a4.47,4.47,0,0,0-7.85.2l-4.13.11a4.47,4.47,0,0,0-7.85.2l-4.29.11a4.86,4.86,0,0,0-4-2.23,4.91,4.91,0,0,0-3.87,2.44l-4.29.11a4.83,4.83,0,0,0-4-2.23,4.88,4.88,0,0,0-3.87,2.43l-4.29.11a4.48,4.48,0,0,0-7.85.21l-4.45.12a4.47,4.47,0,0,0-7.85.2l-4.29.11a4.47,4.47,0,0,0-7.85.21l-4.13.1a4.86,4.86,0,0,0-4-2.23,4.91,4.91,0,0,0-3.87,2.44l-4.29.11a4.83,4.83,0,0,0-4-2.23,4.88,4.88,0,0,0-3.87,2.43l-4.29.12a4.83,4.83,0,0,0-4-2.23,4.88,4.88,0,0,0-3.87,2.43l-4.29.11a4.47,4.47,0,0,0-7.85.21l-4.45.11a4.46,4.46,0,0,0-7.84.21l-4.3.11a4.83,4.83,0,0,0-4-2.23,4.88,4.88,0,0,0-3.87,2.43l-4.14.11a4.83,4.83,0,0,0-4-2.23,4.88,4.88,0,0,0-3.87,2.43l-4.29.11a4.48,4.48,0,0,0-7.85.21l-4.29.11a4.47,4.47,0,0,0-7.85.21l-4.29.11a4.47,4.47,0,0,0-7.85.2l-4.44.12a4.47,4.47,0,0,0-7.85.2l-4.29.11a4.47,4.47,0,0,0-7.85.21l-4.21.11a4.47,4.47,0,0,0-7.85.2l-4.29.11a4.86,4.86,0,0,0-4-2.23,4.31,4.31,0,0,0-2.5.94c0,1.35,0,2.7,0,4q0,3.45-.08,6.9l0,2.3h0c0,1.93-.06,3.87-.07,5.8,0,2.48,0,5,0,7.44h0c0,1.08,0,2.15,0,3.22,0,.25,0,.5,0,.75,0,1-.05,2-.1,3v.12c-.16-2.59-.35-5.17-.5-7.75,0-.29,0-.58,0-.87-.05-1-.1-2-.13-3s-.06-1.9-.06-2.86a5.44,5.44,0,0,0-2.58,2.19l-4.32.11a4.83,4.83,0,0,0-4-2.23,4.88,4.88,0,0,0-3.87,2.43l-4.29.11a4.48,4.48,0,0,0-7.85.21l-4.29.11a4.47,4.47,0,0,0-7.85.2l-4.45.12a4.46,4.46,0,0,0-7.84.2l-4.29.12a4.47,4.47,0,0,0-7.85.2l-4.13.11a4.47,4.47,0,0,0-7.85.2l-4.29.11a4.82,4.82,0,0,0-4-2.22,4.88,4.88,0,0,0-3.87,2.43l-4.29.11a4.86,4.86,0,0,0-4-2.23,4.05,4.05,0,0,0-1.89.54c0,.61,0,1.23,0,1.84h0q0,2.42.06,4.83l0,1.19c.05,2.12.11,4.24.2,6.36a.71.71,0,0,0,0,.14h0c.28,6.65.78,13.29,1.61,19.89h0c.1.76.19,1.53.3,2.29a3,3,0,0,0,.52,0,4.88,4.88,0,0,0,3.87-2.43l4.29-.11a4.84,4.84,0,0,0,4,2.23,4.91,4.91,0,0,0,3.87-2.44l4.29-.11a4.83,4.83,0,0,0,4,2.23,4.88,4.88,0,0,0,3.87-2.43l4.14-.11a4.46,4.46,0,0,0,7.84-.21l4.29-.11a4.47,4.47,0,0,0,7.85-.2l4.45-.12a4.47,4.47,0,0,0,7.85-.2l4.29-.11a4.86,4.86,0,0,0,4,2.23,4.91,4.91,0,0,0,3.87-2.44l4.28-.11a4.47,4.47,0,0,0,7.85-.2l4.3-.12A5.16,5.16,0,0,0,414,937.8c0-.74,0-1.49,0-2.24h0c0-1,0-1.91-.05-2.87s0-2.19-.05-3.28c-.06-3.15-.13-6.3-.24-9.45,0-1.23-.11-2.47-.18-3.7a4.66,4.66,0,0,0,3.61,1.77,4.88,4.88,0,0,0,3.87-2.43l4.29-.11a4.47,4.47,0,0,0,7.85-.2l4.21-.11a4.85,4.85,0,0,0,4,2.22,4.9,4.9,0,0,0,3.87-2.43l4.29-.11a4.83,4.83,0,0,0,4,2.23,4.88,4.88,0,0,0,3.87-2.43l4.45-.12a4.47,4.47,0,0,0,7.85-.2l4.29-.12a4.47,4.47,0,0,0,7.85-.2l4.29-.11a4.46,4.46,0,0,0,7.84-.21l4.3-.11a4.83,4.83,0,0,0,4,2.23,4.88,4.88,0,0,0,3.87-2.43l4.14-.11a4.83,4.83,0,0,0,4,2.23,4.88,4.88,0,0,0,3.87-2.43l4.29-.12a4.47,4.47,0,0,0,7.85-.2l4.45-.12a4.47,4.47,0,0,0,7.85-.2l4.29-.11a4.47,4.47,0,0,0,7.85-.21l4.28-.11a4.47,4.47,0,0,0,7.85-.2l4.29-.11a4.82,4.82,0,0,0,4,2.22,4.88,4.88,0,0,0,3.87-2.43l4.13-.11a4.47,4.47,0,0,0,7.85-.2l4.29-.11a4.47,4.47,0,0,0,7.85-.21l4.45-.11a4.46,4.46,0,0,0,7.84-.21l4.29-.11a4.47,4.47,0,0,0,7.85-.2l4.29-.11a4.47,4.47,0,0,0,7.85-.21l4.29-.11a4.47,4.47,0,0,0,7.85-.2l4.13-.11a4.47,4.47,0,0,0,7.85-.21l4.29-.11a4.47,4.47,0,0,0,7.85-.2l4.44-.12a4.47,4.47,0,0,0,7.85-.2l4.29-.11a4.47,4.47,0,0,0,7.85-.21l4.29-.11a4.47,4.47,0,0,0,7.85-.2l4.29-.12a4.47,4.47,0,0,0,7.85-.2l4.13-.11a4.47,4.47,0,0,0,7.85-.2l4.29-.11a4.46,4.46,0,0,0,7.84-.21L753,907a4.47,4.47,0,0,0,7.85-.21l4.29-.11a4.47,4.47,0,0,0,7.85-.2l4.3-.12a4.51,4.51,0,0,0,.44.54c0,2.59.1,5.18.3,7.77.25,3.15.78,6.26,1.27,9.38.29,1.84.56,3.67.75,5.52a4.22,4.22,0,0,0,2.46.75c2.4-.07,4.38-2.29,5.05-5.32l1.8,0c.81,3,2.89,5.09,5.29,5s4.34-2.24,5-5.23l1.84,0c.83,2.95,2.89,5,5.27,5s4.3-2.21,5-5.16l1.88,0c.84,2.9,2.89,4.93,5.24,4.87s4.28-2.17,5-5.07l1.84,0c.86,2.86,2.89,4.86,5.22,4.8s4.24-2.13,5-5l2,0c.88,2.81,2.89,4.77,5.2,4.71s4.2-2.09,5-4.91l2.17,0c.89,2.77,2.89,4.69,5.18,4.63a4.15,4.15,0,0,0,1.85-.52c-.86-4.84-1.75-9.68-2.54-14.54-.4-2.42-.77-4.85-1.09-7.28-.11-.82-.21-1.63-.31-2.45l-.15-1.25c-.09-.81-.17-1.62-.25-2.42l-.12-1.23c-.07-.83-.14-1.65-.2-2.47,0-.4,0-.8-.08-1.2-.06-1-.12-2-.16-3a6,6,0,0,0-1.68,1.73Z" fill="#262521"/><path d="M885.87,1194a4.93,4.93,0,0,0-3.85,2.65l-4.33.24a4.48,4.48,0,0,0-7.94.44l-4.19.23a4.49,4.49,0,0,0-7.93.43l-4.12.23a4.48,4.48,0,0,0-7.91.44l-4.23.23a4.84,4.84,0,0,0-4.07-2.15,4.89,4.89,0,0,0-3.82,2.58l-4.24.23a4.48,4.48,0,0,0-7.87.44l-4.27.23a4.86,4.86,0,0,0-4.05-2.12,4.77,4.77,0,0,0-3.6,2.25c-.05-.46-.1-.93-.16-1.4l0-.32h0c-.12-1-.24-1.93-.39-2.89-.9-6-2.25-12-2.57-18.07l-2.65.07a4.47,4.47,0,0,0-7.85.2l-4.29.11a4.46,4.46,0,0,0-7.84.21l-4.29.11a4.47,4.47,0,0,0-7.85.2l-4.29.11a4.48,4.48,0,0,0-7.85.21l-4.45.11a4.85,4.85,0,0,0-4-2.22,4.9,4.9,0,0,0-3.87,2.43l-4.29.11a4.83,4.83,0,0,0-4-2.23,4.88,4.88,0,0,0-3.87,2.43l-4.14.11a4.46,4.46,0,0,0-7.84.21l-4.29.11a4.47,4.47,0,0,0-7.85.2l-4.29.11a4.48,4.48,0,0,0-7.85.21l-4.29.11a4.47,4.47,0,0,0-7.85.2l-4.45.12a4.83,4.83,0,0,0-4-2.23,4.88,4.88,0,0,0-3.87,2.43l-4.29.12a4.47,4.47,0,0,0-7.85.2l-4.13.11a4.47,4.47,0,0,0-7.85.2l-4.29.11a4.48,4.48,0,0,0-7.85.21l-4.29.11a4.47,4.47,0,0,0-7.85.2l-4.29.12a4.47,4.47,0,0,0-7.85.2l-4.44.12a4.47,4.47,0,0,0-7.85.2l-4.29.11a4.47,4.47,0,0,0-7.85.21l-4.13.1a4.48,4.48,0,0,0-7.85.21l-4.29.11a4.47,4.47,0,0,0-7.85.2l-4.29.12a4.47,4.47,0,0,0-7.85.2l-4.29.11a4.46,4.46,0,0,0-7.84.21l-4.45.11a4.47,4.47,0,0,0-7.85.21l-4.29.11a4.47,4.47,0,0,0-7.85.2l-4.13.11a4.47,4.47,0,0,0-7.85.2l-4.29.12a4.47,4.47,0,0,0-7.85.2l-4.29.11a4.46,4.46,0,0,0-7.84.21l-4.29.11a4.47,4.47,0,0,0-7.85.2l-4.45.12a4.47,4.47,0,0,0-7.85.2l-4.29.11a4.81,4.81,0,0,0-4-2.22,4.87,4.87,0,0,0-3.86,2.43l-4.22.11a4.83,4.83,0,0,0-4-2.23,4.88,4.88,0,0,0-3.87,2.43l-4.29.11a4.47,4.47,0,0,0-7.85.21l-4.29.11a4.47,4.47,0,0,0-7.85.2l-4.29.12,0,0v.11c0,7-.06,13.94-.11,20.92h0c0,2.24,0,4.47,0,6.71l0,4.77h0v1.14a6.23,6.23,0,0,0,1-1.17l4.3-.11a4.47,4.47,0,0,0,7.85-.2l4.29-.11a4.83,4.83,0,0,0,4,2.23A4.88,4.88,0,0,0,428,1220l4.29-.11a4.47,4.47,0,0,0,7.85-.2l4.21-.11a4.47,4.47,0,0,0,7.85-.21l4.29-.11a4.47,4.47,0,0,0,7.85-.2l4.45-.12a4.47,4.47,0,0,0,7.85-.2l4.29-.12a4.83,4.83,0,0,0,4,2.23,4.88,4.88,0,0,0,3.87-2.43l4.29-.11a4.47,4.47,0,0,0,7.85-.21l4.29-.11a4.47,4.47,0,0,0,7.85-.2l4.13-.11a4.47,4.47,0,0,0,7.85-.2l4.29-.11a4.48,4.48,0,0,0,7.85-.21l4.44-.12a4.83,4.83,0,0,0,4,2.23,4.88,4.88,0,0,0,3.87-2.43l4.29-.11a4.47,4.47,0,0,0,7.85-.21l4.29-.11a4.47,4.47,0,0,0,7.85-.2l4.29-.11a4.47,4.47,0,0,0,7.85-.21l4.13-.1a4.48,4.48,0,0,0,7.85-.21l4.29-.11a4.47,4.47,0,0,0,7.85-.2l4.44-.12a4.47,4.47,0,0,0,7.85-.21l4.29-.11a4.47,4.47,0,0,0,7.85-.2l4.29-.11a4.47,4.47,0,0,0,7.85-.21l4.29-.11a4.46,4.46,0,0,0,7.84-.2l4.14-.11a4.46,4.46,0,0,0,7.84-.2l4.3-.12a4.83,4.83,0,0,0,4,2.23,4.88,4.88,0,0,0,3.87-2.43l4.45-.12a4.47,4.47,0,0,0,7.85-.2l4.29-.11a4.47,4.47,0,0,0,7.85-.21l4.29-.11a4.83,4.83,0,0,0,4,2.23,4.88,4.88,0,0,0,3.87-2.43l4.29-.11a4.48,4.48,0,0,0,7.85-.21l4.13-.11a4.47,4.47,0,0,0,7.85-.2l4.29-.11a4.47,4.47,0,0,0,7.85-.21l4.45-.11a4.47,4.47,0,0,0,7.85-.21l4.29-.11a4.83,4.83,0,0,0,4,2.23,4.88,4.88,0,0,0,3.87-2.43l4.29-.11a4.48,4.48,0,0,0,7.85-.21l4.29-.11a4.47,4.47,0,0,0,7.85-.2l4.21-.11c.79,2.67,1.62,5.33,2.16,8,.21,1,.4,2.07.58,3.11h0c.8,4.51,1.39,9,1.85,13.6a3.92,3.92,0,0,0,1.85.35,4.87,4.87,0,0,0,3.79-2.55l4.29-.24a4.47,4.47,0,0,0,7.84-.44l4.28-.24a4.47,4.47,0,0,0,7.84-.44l4.28-.24a4.47,4.47,0,0,0,7.84-.45l4.21-.23a4.47,4.47,0,0,0,7.84-.44l4.28-.24a4.48,4.48,0,0,0,7.84-.45l4.44-.25a4.47,4.47,0,0,0,7.84-.44l4.29-.24a5,5,0,0,0,3.7,2.11c-.13-1.26-.25-2.52-.43-3.77a2.7,2.7,0,0,1,0-.28c-.08-.54-.17-1.08-.28-1.61-.62-3-1.29-5.91-1.93-8.87-.15-.67-.3-1.34-.44-2-1.21-5.95-.22-11.92-1-17.93l-5.5.3A5,5,0,0,0,885.87,1194Z" fill="#262521"/><path d="M905.13,1276.93c0-.1,0-.2,0-.3a43,43,0,0,0,0-4.55l-.88.05c-.69-1.67-1.79-2.69-3.5-2.59a5.1,5.1,0,0,0-4,3l-3.75.21a4.57,4.57,0,0,0-8.33.46l-4,.22a4.54,4.54,0,0,0-8.24.46l-3.92.22a4.53,4.53,0,0,0-8.16.45l-3.93.22a4.5,4.5,0,0,0-8.07.44l-4.09.23a4.5,4.5,0,0,0-8,.44l-4.17.23a4.48,4.48,0,0,0-7.91.44l-4.25.23a4.87,4.87,0,0,0-4.07-2.1,4,4,0,0,0-1.92.64,30.39,30.39,0,0,0,.18-5.82c0-.9-.06-1.81-.08-2.71h0c-.1-3.61-.12-7.23-.12-10.85,0-.72,0-1.44,0-2.16h0c0-.77,0-1.55,0-2.33h-.06a4.88,4.88,0,0,0-3.87,2.43l-4.53.12a4.47,4.47,0,0,0-7.85.21l-4.29.11a4.47,4.47,0,0,0-7.85.2l-4.29.11a4.47,4.47,0,0,0-7.85.21L769,1255a4.47,4.47,0,0,0-7.85.2l-4.44.12a4.47,4.47,0,0,0-7.85.2l-4.29.12a4.47,4.47,0,0,0-7.85.2l-4.13.11a4.47,4.47,0,0,0-7.85.2l-4.29.11a4.47,4.47,0,0,0-7.85.21l-4.29.11a4.47,4.47,0,0,0-7.85.2l-4.29.12a4.46,4.46,0,0,0-7.84.2l-4.45.12a4.47,4.47,0,0,0-7.85.2l-4.29.11a4.47,4.47,0,0,0-7.85.21l-4.13.1a4.47,4.47,0,0,0-7.85.21l-4.29.11a4.47,4.47,0,0,0-7.85.2l-4.29.12a4.83,4.83,0,0,0-4-2.23,4.88,4.88,0,0,0-3.87,2.43l-4.29.11a4.47,4.47,0,0,0-7.85.21l-4.45.11a4.47,4.47,0,0,0-7.85.21l-4.29.11a4.47,4.47,0,0,0-7.85.2l-4.13.11a4.47,4.47,0,0,0-7.85.2l-4.29.12a4.8,4.8,0,0,0-4-2.23,4.88,4.88,0,0,0-3.87,2.43l-4.29.11a4.47,4.47,0,0,0-7.85.21l-4.29.11a4.47,4.47,0,0,0-7.85.2l-4.45.12a4.47,4.47,0,0,0-7.85.2l-4.29.11a4.83,4.83,0,0,0-4-2.23,4.89,4.89,0,0,0-3.87,2.44l-4.14.1a4.47,4.47,0,0,0-7.84.21l-4.29.11a4.47,4.47,0,0,0-7.85.21l-4.29.11a4.47,4.47,0,0,0-7.85.2l-4.29.11a4.47,4.47,0,0,0-7.85.21l-4.45.11a4.83,4.83,0,0,0-4-2.23,4.89,4.89,0,0,0-3.87,2.44l-4.29.11a4.47,4.47,0,0,0-7.85.2l-4.21.11a4.47,4.47,0,0,0-7.85.21l-4.29.11a4.47,4.47,0,0,0-7.85.2l-4.29.11a4.85,4.85,0,0,0-4-2.22,4.9,4.9,0,0,0-3.87,2.43l-4.29.11a5.64,5.64,0,0,0-2.27-1.89c0,.65.06,1.3.1,2h0c.33,6.73.91,13.38,2.72,19.71l-2.77.07a4.47,4.47,0,0,0-7.85.2l-4.29.12a4.47,4.47,0,0,0-7.85.2l-4.45.12a4.46,4.46,0,0,0-7.84.2l-4.3.11a4.46,4.46,0,0,0-7.84.21l-4.14.1a4.79,4.79,0,0,0-4-2.22,4.88,4.88,0,0,0-3.87,2.43l-4.29.11a4.47,4.47,0,0,0-7.85.2l-4.29.12a4.47,4.47,0,0,0-7.85.2l-5.37.14a84.79,84.79,0,0,0,1.09,13.68c.77,4.32,1.31,15.58,4,20s45.23,2,64.37,2c9.24,0,16.67-2.73,24.65-5.33a139.57,139.57,0,0,0,2-20.2l.1,0c0-1.05.05-2.11.06-3.16,18.55,4.94,107.21.6,163.59-.3,97.88-1.58,219.08-2,229.22-7a14.23,14.23,0,0,0,7-6.57,128.19,128.19,0,0,0,5,24.48c2.82,8.41,71,5.41,84.15-8.2.59-.6,2.09-6.87,2.92-13.56A14.31,14.31,0,0,0,905.13,1276.93Zm-91.4-.76c0,.32,0,.64,0,1l-.26,0C813.6,1276.82,813.67,1276.5,813.73,1276.17Z" fill="#262521"/><path d="M408.62,1292.17c16.7,7.6,98.36,4.27,175.29,1,133.05-5.72,221.32.47,229.49-15" fill="none" stroke="#636363" stroke-linecap="round" stroke-linejoin="round"/></svg>