<svg xmlns="http://www.w3.org/2000/svg" width="1250" height="1550" viewBox="0 0 1250 1550"><title>s04e10-01</title><polyline points="803.46 1250.11 823.57 1592.35 664.86 1590.49 635.96 1393.89 610.44 1402.56 601.61 1598.81 447.67 1598.59 406.93 1266.5" fill="#fff" stroke="#262521" stroke-linecap="round" stroke-linejoin="round" stroke-width="3"/><path d="M803.82,603.23C792.94,596.13,654.29,530,654.29,530s-9,42.68-63.91,47.58c-64.83,5.79-86.64-36-90.75-48.14l-87.92,73.81" fill="#fff" stroke="#262521" stroke-linecap="round" stroke-linejoin="round" stroke-width="3"/><path d="M423.7,1021s-11.62,57.37-21.45,88.33-13.08,105-15.36,135.21c-.95,12.67,4.66,27,4.66,27l-61,1.5c-16.33-18.73-8.93-129.51-14.45-197.93A619.73,619.73,0,0,1,319.74,947s-18.06-297.33,26.67-324.28,145.47-89.52,145.47-89.52-.25-.24.72,2.61c4.12,12.15,21.13,51.38,86.21,51.38,80.36,0,82.85-55,82.85-55S793.07,581.32,804,588.43c38.3,25,52.88,331.94,52.88,331.94s19,68.76,22.89,124.63c5.57,81.26,18.66,177.57,17.84,189.79s-5.3,18.88-5.3,18.88h-58.1s-1.25-8-2.88-34.36c-2.47-39.8-31-134-48.07-177.22" fill="#fff" stroke="#262521" stroke-linecap="round" stroke-linejoin="round" stroke-width="3"/><path d="M838.52,1222.46s30.63-3.83,52.37,0" fill="none" stroke="#636363" stroke-linecap="round" stroke-linejoin="round"/><path d="M327.75,1240s30.64-3.84,52.37,0" fill="none" stroke="#636363" stroke-linecap="round" stroke-linejoin="round"/><path d="M480.43,548.4s21.5,56.91,100.81,56.91,94.26-62,94.26-62" fill="none" stroke="#636363" stroke-linecap="round" stroke-linejoin="round"/><path d="M665,565.23s79.7,67.61,93.92,112.55" fill="none" stroke="#636363" stroke-linecap="round" stroke-linejoin="round"/><path d="M493.85,569.2s-80,73.56-94.19,118.5" fill="none" stroke="#636363" stroke-linecap="round" stroke-linejoin="round"/><path d="M805.53,1227.76s9.17,34.22,6.12,45.91-62.42-5.22-174.81,13.26c-114,18.73-231.65,7.82-235.54-3s4.9-56.15,4.9-56.15Z" fill="#fff" stroke="#262521" stroke-linecap="round" stroke-miterlimit="10" stroke-width="3"/><path d="M413.14,809.59s5.34,199.1,3.82,238.13c-.83,21.49-23.29,121.8-11,149,0,13-6.32,43-6.32,43s73.26,22.14,150.26,21.21c137.52-1.66,263.37-26.64,263.37-26.64s-6.69-30-7.46-43.63c14.49-25-19.07-143.81-20.87-213.77-1.22-47.58-16.1-167.27-16.1-167.27" fill="#fff" stroke="#262521" stroke-linecap="round" stroke-linejoin="round" stroke-width="3"/><path d="M417,1201.76s165.48,30.52,373.15-4.84" fill="none" stroke="#636363" stroke-linecap="round" stroke-linejoin="round"/><path d="M469.4,744.29c0,.2-.38.31-1.15.36a1.86,1.86,0,0,0-1.71.91,31.87,31.87,0,0,0-1.2,3.5c-.92,3.12-1.75,5.78-2.47,8q-1.86,5.63-3.37,10.86-.12.45-.33.45c-.12,0-.24-.1-.35-.32s-.45-1-1-2.33c-.7-1.74-1.46-3.48-2.27-5.24q-1-2.07-1.89-4.28-2.19,5.8-4.33,12.11c-.09.27-.2.41-.34.42s-.26-.19-.43-.56q-1.16-2.48-8.62-20.47a8.17,8.17,0,0,0-.78-1.58c-.16-.21-.57-.31-1.21-.31-1.1,0-1.65-.15-1.66-.42s.17-.31.54-.32a1.76,1.76,0,0,1,.41,0c1.21,0,2.52,0,3.92,0,.27,0,.74,0,1.42-.11s1.55-.13,2.62-.16l.38,0c.39,0,.59.09.59.29s-.34.41-1,.45c-1.41.1-2.1.31-2.09.63q0,.95,6.92,17.41,2.1-5.79,3.13-8.54l-3.69-8.55a1.79,1.79,0,0,0-.67-.89,3.57,3.57,0,0,0-1.34-.19c-.64,0-1-.09-1-.27s.22-.37.7-.39.82,0,1.34,0,1.45,0,2.75,0l2.61-.09,3.78-.13c.84,0,1.86-.1,3.05-.22l.48,0c.55,0,.83.09.83.33s-.18.33-.57.34l-.58,0a5.28,5.28,0,0,0-2.32.49,7,7,0,0,0-1.19,2.47c-.25.64-.68,1.73-1.27,3.26-.12.35-.31.86-.55,1.55.17.45.72,1.68,1.63,3.71q1.77,3.85,2.92,6.62,1.74-5.54,4.1-13.11a33.53,33.53,0,0,0,1.23-4.47c0-.43-.42-.63-1.22-.6-1.12,0-1.69-.07-1.7-.32s.22-.34.68-.36a9,9,0,0,1,.93,0,11,11,0,0,0,1.37,0l2.75-.1a3.88,3.88,0,0,1,1.13,0A.2.2,0,0,1,469.4,744.29Zm-14.5.9h-.41l-.59,0c-.82.08-1.23.24-1.22.49,0,0,.75,2,2.23,5.81q.72-1.72,1.68-4.54c.09-.25.22-.58.4-1l.06-.27C457,745.31,456.32,745.14,454.9,745.19Z"/><path d="M479.09,766.92c0,.19-.12.29-.4.3h-.34a46.68,46.68,0,0,0-4.67.06c-.58,0-1.15.07-1.72.13-.29,0-.75.06-1.37.08-.3,0-.45-.08-.46-.29s.29-.29.89-.33c.91-.06,1.44-.18,1.6-.38a4.32,4.32,0,0,0,.17-2l-.62-17.85a4.93,4.93,0,0,0-.24-1.86c-.15-.22-.79-.33-1.93-.34-.44,0-.66-.08-.67-.22s.13-.27.41-.28l4.67-.16,2,0,1.31-.08c.37,0,.56.08.56.27s-.5.3-1.51.38c-.58,0-.93.15-1,.34a3,3,0,0,0-.15,1.42l.63,18.07a5.89,5.89,0,0,0,.25,2.09,4.09,4.09,0,0,0,2.25.36C479,766.63,479.09,766.73,479.09,766.92Z"/><path d="M498.92,763.84q0,.88,0,2.91h-.38c-.14,0-.47,0-1,0a17.55,17.55,0,0,0-1.78,0l-14.25.39c-.39,0-.59-.08-.6-.28s.3-.27.92-.34a3.37,3.37,0,0,0,1.55-.34c.17-.15.24-.58.21-1.28l-.66-19c0-.84-.13-1.32-.31-1.45a4.45,4.45,0,0,0-1.84-.14c-.44,0-.66-.1-.67-.35s.13-.3.4-.31l.31,0c.76,0,2.26,0,4.5-.05l1.2-.09c.6-.06,1.09-.09,1.48-.11h.38c.41,0,.62.09.62.32a.23.23,0,0,1-.18.26,7.43,7.43,0,0,1-1.18.12c-.66.05-1.05.17-1.17.37a4.6,4.6,0,0,0-.13,1.78l.7,20q.93,0,2.58-.06a26.61,26.61,0,0,0,5.64-.6,3.19,3.19,0,0,0,2.18-1.6,7.25,7.25,0,0,0,.58-3c0-.3.14-.45.38-.46s.43.16.42.5l0,.84v.78Z"/><path d="M522.11,754a11.2,11.2,0,0,1-3.89,9.45,13,13,0,0,1-8.19,2.73l-1.22,0-3.14.11-1.72.06-2.71.09-.51,0c-.44,0-.66-.09-.67-.31s.36-.32,1.09-.35c.94,0,1.52-.22,1.73-.57a3.37,3.37,0,0,0,.1-1.29l-.64-18.23a4,4,0,0,0-.32-1.92,3.28,3.28,0,0,0-1.78-.21c-.53,0-.79-.09-.8-.34s.18-.28.57-.29l.76,0,1.54,0,3.67-.13a31.4,31.4,0,0,1,8.79.54,9.35,9.35,0,0,1,5.18,3.85A12.5,12.5,0,0,1,522.11,754Zm-3.84,0q-.21-5.62-2.52-8.18c-1.55-1.71-3.91-2.5-7.06-2.39-1.54,0-2.46.24-2.77.57a3.53,3.53,0,0,0-.15,1.64l.63,18a10.18,10.18,0,0,0,.09,1.15.55.55,0,0,0,.31.33,9.41,9.41,0,0,0,3.48.29,7.59,7.59,0,0,0,5.88-2.79Q518.47,759.82,518.27,754Z"/><path d="M552.52,764.42c0,.2-.17.3-.51.31a6.2,6.2,0,0,1-.62,0l-4.36,0-4.36.28a2.76,2.76,0,0,1-.51.05c-.46,0-.69-.09-.7-.33s.3-.4.91-.42c2-.09,3-.32,3-.7a1.1,1.1,0,0,0-.08-.26l-.31-.89-.19-.46c-.23-.7-.79-2.22-1.67-4.59l-7.34.26a36.46,36.46,0,0,0-1.84,6.29.52.52,0,0,0,.43.56c.07,0,.65.05,1.72.08.67,0,1,.1,1,.3s-.28.35-.88.37c-1.05,0-2.28,0-3.68,0-.34,0-.7,0-1.06,0a4.59,4.59,0,0,0-1.06.15,2.26,2.26,0,0,1-.45.07c-.32,0-.48-.09-.49-.29s.35-.33,1.07-.38a3.33,3.33,0,0,0,1.55-.37,1.92,1.92,0,0,0,.72-1.13q4-12.65,6.49-20.31a3.51,3.51,0,0,1,.29-.91l.12-.63c.06-.25.15-.37.26-.38s.13.06.18.2q.5,1.31,2.22,5.44Q543.73,750,549.1,763a1.57,1.57,0,0,0,.74,1,5.18,5.18,0,0,0,1.77.19C552.21,764.14,552.51,764.23,552.52,764.42Zm-9.59-7.77c-.4-1-1.08-2.66-2-5L539.09,747q-1.3,3.8-3.14,9.85Z"/><path d="M569.9,761.36c0,.59,0,1.56,0,2.92h-.38l-1,0c-.53,0-1.12,0-1.79,0l-14.25.4c-.39,0-.59-.08-.6-.29s.3-.27.92-.33a3.28,3.28,0,0,0,1.55-.35c.17-.15.24-.57.22-1.27l-.67-19c0-.83-.13-1.31-.31-1.44a4.27,4.27,0,0,0-1.84-.14c-.43,0-.66-.1-.66-.35s.12-.31.4-.32h.31q1.13.06,4.5-.06.3,0,1.2-.09c.59-.05,1.08-.09,1.47-.1h.38c.41,0,.62.09.63.31a.24.24,0,0,1-.18.26,8.69,8.69,0,0,1-1.18.13c-.67,0-1.06.17-1.18.36a4.5,4.5,0,0,0-.12,1.78l.69,20c.62,0,1.48,0,2.58,0a27.52,27.52,0,0,0,5.65-.6,3.18,3.18,0,0,0,2.17-1.61,7.33,7.33,0,0,0,.59-3c0-.29.13-.45.38-.45s.42.15.41.49l0,.85V760Z"/><path d="M593.21,751.61a12.45,12.45,0,0,1-2.78,8.63A9.68,9.68,0,0,1,583,764a10.37,10.37,0,0,1-8.09-3.26,12.47,12.47,0,0,1-3.53-8.6,12.23,12.23,0,0,1,2.81-8.75,10.3,10.3,0,0,1,7.82-3.64,9.75,9.75,0,0,1,7.78,3.25A12.81,12.81,0,0,1,593.21,751.61Zm-3.84.3q-.23-6.21-2.91-9.58a5.29,5.29,0,0,0-4.58-2,5.43,5.43,0,0,0-4.19,1.81q-2.69,3.15-2.44,10c.13,3.64.87,6.44,2.24,8.41a6.12,6.12,0,0,0,5.54,2.83,5.31,5.31,0,0,0,4.81-3A16.81,16.81,0,0,0,589.37,751.91Z"/><path d="M617.92,750.75a12.41,12.41,0,0,1-2.78,8.63,9.68,9.68,0,0,1-7.41,3.75,10.38,10.38,0,0,1-8.09-3.26,12.47,12.47,0,0,1-3.53-8.6,12.26,12.26,0,0,1,2.81-8.75,10.35,10.35,0,0,1,7.83-3.65,9.82,9.82,0,0,1,7.78,3.26A12.74,12.74,0,0,1,617.92,750.75Zm-3.84.3q-.21-6.21-2.91-9.58a5.28,5.28,0,0,0-4.57-2,5.43,5.43,0,0,0-4.2,1.81q-2.67,3.15-2.44,10,.19,5.46,2.24,8.41a6.12,6.12,0,0,0,5.55,2.83,5.32,5.32,0,0,0,4.8-3A16.83,16.83,0,0,0,614.08,751.05Z"/><path d="M637.78,743.79c0,.31-.1.48-.33.48s-.4-.27-.51-.84a6,6,0,0,0-1.8-3.53,4.58,4.58,0,0,0-2.58-.81c-.41,0-1.33,0-2.74,0-1.06,0-2.31.12-3.78.23l.35,9.95q4.4-.12,5.4-.75c.68-.42,1.05-1.54,1.12-3.37,0-.52.16-.79.39-.8s.35.16.36.5a2.67,2.67,0,0,1,0,.51c0,1.56,0,3,.05,4.33.06,1.72.14,3.07.25,4.06a1.82,1.82,0,0,1,0,.4c0,.27-.1.41-.32.42a.31.31,0,0,1-.35-.19,14.93,14.93,0,0,1-.3-1.55c-.23-1.37-.61-2.21-1.16-2.53a6.77,6.77,0,0,0-3.21-.4q-1.27,0-2.22.15l.12,3.45.23,6.63a1.17,1.17,0,0,0,.82,1.22,5.51,5.51,0,0,0,1.67,0c.36,0,.55.07.55.25s-.22.31-.67.33h-.35l-1.3.05-1.07,0-5.11.18c-.43,0-.66-.07-.66-.25s.38-.31,1.17-.38,1.25-.2,1.38-.37a3.37,3.37,0,0,0,.15-1.58l-.68-19.48q-.06-.62-.39-.75a6,6,0,0,0-1.8-.13c-.37,0-.56-.09-.56-.31s.19-.32.6-.33l.55,0,3.31-.12,5.55-.19a66.43,66.43,0,0,0,7.1-.45c0,.29.13,1.14.29,2.53.1.95.22,1.79.36,2.53A5.55,5.55,0,0,1,637.78,743.79Z"/><path d="M665.14,759.7c0,.95-.75,1.45-2.35,1.51a4.83,4.83,0,0,1-4.27-2.06,5.11,5.11,0,0,1-.9-1.79c-.15-.59-.39-2.07-.72-4.45a4.11,4.11,0,0,0-1.52-3,6.92,6.92,0,0,0-3.94-.83l.37,10.66c0,.45.39.72,1.12.8.21,0,.74,0,1.59,0,.29,0,.45.07.45.25s-.18.31-.57.33H654l-3,.11-1.75.06-1.58.05-1.34,0c-.5,0-.76-.08-.76-.28s.32-.26,1-.31c1.08-.06,1.66-.21,1.74-.46a3.19,3.19,0,0,0,.09-1.33l-.65-18.67c0-.9-.15-1.44-.35-1.61a3.32,3.32,0,0,0-1.78-.25q-.86,0-.87-.27t.54-.36l.31,0,4.57,0,1.92-.12q1.36-.13,1.92-.15a8.22,8.22,0,0,1,5.11,1.22,4.54,4.54,0,0,1,2,3.74,4.84,4.84,0,0,1-1.79,4,9.43,9.43,0,0,1-5.15,2c-.21,0-.32.07-.35.11s.12.14.35.13c2.42.32,4.1,1.1,5.05,2.32s1.63,3.47,2,6.74c.25,1.85.92,2.75,2,2.71.34,0,.51-.08.51-.22s0,0,0-.07a1.45,1.45,0,0,1-.19-.6c0-.47.22-.72.73-.74A.74.74,0,0,1,665.14,759.7Zm-7.7-16.7c-.11-3.22-1.58-4.79-4.42-4.69a2.84,2.84,0,0,0-1.54.36,1.28,1.28,0,0,0-.37,1.1l.3,8.59q3.3-.08,4.71-1.35A4.85,4.85,0,0,0,657.44,743Z"/><path d="M684.07,754.6c0,.1,0,.65,0,1.66s0,2,0,2.92l0,1.11q-3.37-.07-13.32.26l-2.37.09-1.58.05h-.34c-.44,0-.66-.06-.67-.25a.2.2,0,0,1,.2-.21l1.3-.14c.6-.07.95-.2,1.07-.41a3.85,3.85,0,0,0,.14-1.6L667.89,739c0-.66-.13-1-.33-1.16a5.1,5.1,0,0,0-1.88-.13c-.37,0-.55-.07-.56-.26s.24-.3.75-.32l5.87-.2,3.87-.14,4.81-.17a11.66,11.66,0,0,0,1.88-.2q.12,1.45.45,4l.19,1.45a2.33,2.33,0,0,1,0,.44c0,.22-.09.34-.3.35s-.44-.27-.58-.84c-.5-2-1.26-3.29-2.26-3.8-.75-.39-2.68-.52-5.79-.41l-2.81.09.34,10,.83,0c2.56-.09,4.12-.33,4.66-.74s.9-1.53,1-3.39c0-.47.14-.71.35-.72s.38.19.4.6,0,1,0,1.79,0,1.39,0,1.8c.08,2.41.18,4.07.28,5,0,.22,0,.41.05.57s-.11.44-.36.45-.27-.08-.34-.27-.18-.82-.35-1.87a2.69,2.69,0,0,0-1.76-2.41,14.55,14.55,0,0,0-3.22-.09l-1.54,0,.39,11.33a66.25,66.25,0,0,0,8.85-.61c1.5-.38,2.31-1.84,2.43-4.36,0-.56.16-.84.41-.85S684.05,754.13,684.07,754.6Z"/><path d="M702.75,753.24a5.42,5.42,0,0,1-3,5.22,11.42,11.42,0,0,1-4.39,1.17c-.53,0-2.09.11-4.67.2l-4.19.14c-.39,0-.59-.07-.59-.26s.34-.3,1.05-.33,1.31-.13,1.45-.3a3.06,3.06,0,0,0,.17-1.55l-.64-18.3a5.27,5.27,0,0,0-.2-1.72c-.17-.27-.75-.39-1.76-.38-.62,0-.93-.09-.94-.33s.27-.33.85-.35h.41a2.93,2.93,0,0,0,.69.08l6.69-.24a10.48,10.48,0,0,1,5.57,1,4.51,4.51,0,0,1,2.27,4,4.73,4.73,0,0,1-1.62,3.83,9.07,9.07,0,0,1-4.84,2v.2a10.58,10.58,0,0,1,4.92,1.12A5.37,5.37,0,0,1,702.75,753.24Zm-5-11.51c-.08-2.16-.63-3.59-1.67-4.28a5.48,5.48,0,0,0-3-.47c-.39,0-1,.07-1.82.17l.34,9.81h.31l1.89-.14a3.93,3.93,0,0,0,3-1.47A5.47,5.47,0,0,0,697.75,741.73ZM699.13,753c-.09-2.85-1.32-4.56-3.68-5.16a15.42,15.42,0,0,0-3.82-.17l.35,10.08c0,.65.1,1,.25,1.11a4.36,4.36,0,0,0,1.93.17,5,5,0,0,0,3.72-1.62A6.14,6.14,0,0,0,699.13,753Z"/><path d="M723.65,753.22c0,.1,0,.65,0,1.66s0,2,0,2.92l0,1.11q-3.37-.07-13.33.26l-2.37.09-1.58,0h-.34c-.43,0-.65-.06-.66-.25s.06-.19.2-.21l1.3-.14c.59-.07,1-.2,1.07-.41a3.92,3.92,0,0,0,.13-1.6l-.66-19.07c0-.66-.14-1-.34-1.16a5,5,0,0,0-1.87-.13c-.37,0-.56-.07-.56-.26s.24-.3.74-.32l5.87-.2,3.88-.14,4.81-.17a11.78,11.78,0,0,0,1.88-.2q.12,1.46.45,4l.19,1.45a3.62,3.62,0,0,1,.05.44c0,.22-.1.34-.3.35s-.45-.27-.58-.84q-.77-3-2.26-3.8c-.75-.39-2.68-.52-5.79-.41l-2.82.09.35,9.95.82,0c2.57-.09,4.12-.33,4.67-.74s.89-1.53,1-3.39q0-.71.36-.72t.39.6c0,.4,0,1,0,1.79s0,1.39,0,1.8c.09,2.41.18,4.07.29,5,0,.22,0,.41,0,.57s-.11.44-.36.45-.27-.08-.33-.27-.18-.82-.36-1.87a2.67,2.67,0,0,0-1.76-2.41,14.51,14.51,0,0,0-3.22-.09l-1.53,0,.39,11.33a66.6,66.6,0,0,0,8.85-.61c1.49-.38,2.3-1.84,2.42-4.36,0-.56.17-.84.42-.85S723.63,752.75,723.65,753.22Z"/><path d="M743.45,755.31c0,.59,0,1.56,0,2.91l-.37,0-1,0c-.53,0-1.12,0-1.78,0l-14.26.39c-.39,0-.58-.08-.59-.28s.3-.27.92-.34a3.41,3.41,0,0,0,1.55-.34c.16-.15.23-.58.21-1.28l-.66-19c0-.83-.14-1.31-.31-1.44a4.29,4.29,0,0,0-1.84-.14c-.44,0-.66-.1-.67-.35s.13-.31.4-.32h.31q1.14.06,4.5-.06c.21,0,.61,0,1.2-.09s1.08-.09,1.47-.1l.38,0c.41,0,.62.1.63.32a.23.23,0,0,1-.18.26,8.46,8.46,0,0,1-1.18.13q-1,.06-1.17.36a4.63,4.63,0,0,0-.13,1.78l.7,20c.61,0,1.47,0,2.57,0a27.25,27.25,0,0,0,5.65-.61,3.19,3.19,0,0,0,2.18-1.6,7.38,7.38,0,0,0,.58-3c0-.3.14-.45.38-.46s.42.16.41.5l0,.84v.31l0,.47Z"/></svg>