<svg xmlns="http://www.w3.org/2000/svg" width="1000" height="1550" viewBox="0 0 1000 1550"><path fill="#fff" stroke="#262521" stroke-linecap="round" stroke-linejoin="round" stroke-width="3" d="M279.43 1264.5l396.53-16.39 20.11 342.24-158.71-1.86-28.9-196.6-25.52 8.67-8.83 196.25-153.94-.22-40.74-332.09z"/><path d="M751.22 1043c-3.84-55.87-22.89-124.63-22.89-124.63s-14.58-307-52.88-331.94c-10.88-7.11-142.29-56.21-142.29-56.21s-2.49 55-82.85 55c-65.08 0-82.09-39.23-86.21-51.38a11.73 11.73 0 01-.75-2.59c-1 .64-100.94 62.69-145.44 89.5C173.18 647.69 191.24 945 191.24 945a619.73 619.73 0 00-3.6 128.12c5.52 68.42-1.88 179.2 14.45 197.93l61-1.5s-5.61-14.34-4.66-27c2.28-30.22 5.54-104.26 15.36-135.21 4.77-15 9.95-36.22 14-54.1-4.17 35.81-25.19 153.64-13.89 178.58.05 13-1.31 43-1.31 43S345.83 1297 422.83 1296c137.52-1.65 263.37-26.63 263.37-26.63s-6.68-30-7.46-43.64c9.13-15.76-1.37-83.45-10.84-148.88 15.66 47 33 109.82 34.88 140.43 1.63 26.39 2.88 34.36 2.88 34.36h58.1s4.49-6.66 5.3-18.88-12.27-108.5-17.84-189.76z" fill="#262521"/><path d="M761.31 1152.37s-6.14-.58-9-1.87l8.26-4.71c-.42-3.35-1-6.67-1.29-10a4.51 4.51 0 00-3-1.37l-.38-14.24s-4.82 8.6-18.39 6.2c0 0-5.85-10.16-8.74-10.82l-.24-4.46s11.81 7.49 19.59 8.29c2.83.29 5.83-1.08 9.13-2.93-5.79-115.73-28.71-198.79-28.71-198.79l-.41-5.29c-1.2 1.34-12.95 14.63-12.49 23.1.49 8.92.37 29 10.89 35.27 0 0 6.85 13.37-4.05 15.22 0 0-4.49 7.19 3.46 11 0 0-9.38 14.59-8.69 19.83 0 0-16.47 4.15-16 12.67 0 0-18-1-17.56 14 0 0-16.42-24.76-31.09-17.44s-9.81 22.94-6.53 22.76 6.58.45 5.37-6.81 10.88-9.56 15.63-4.52 11.15 17.71 11.15 17.71l-7.53 3.67a24 24 0 00-4.8.1s6.15 24.36 6.57 32.08c12.64 31.9 28.14 108.72 28.14 108.72l2.65-.15s-.14-32.16-8.66-39l13.08 8.25s2.09 18.2-1.3 20.84c0 0 13.12 1.72 12.9-2.34l9.36 7.22 3.14-16.87 3.67 14.87 30-1.64zM714.07 757.4l.75 13.57s-8-12.59-12-9.93-4.29 10.82-4.29 10.82 9.88-5.47 12.31 9.28c0 0-15.73 24.9-4.45 37.62 8.81 9.94 14.08 16.08 16 18.31L716 753.23z" fill="#e0e0e0"/><path d="M701.25 820.65s-5-1.23-4.64 4.56c0 0-14.94 2.23-13.1 13.49 0 0-14.93 2.57-13.72 9.76 1.06 6.28 4.58 15.14 7 16.43-4.75-.21-25.29-.25-24.46 14.9 0 0-7.82 6 .51 9.3 0 0 10.27 16.62 27.26 6.95a13 13 0 00-1.76 12.6s-7.59 10.11 11.19 10.92c0 0 9.72 13.9 18.59 12.21s7.13-18.43 15.1-21.65a3.66 3.66 0 014.89 1.83l-5.38-70.27c-4.36-3.55-20.54-16.8-21.48-21.03zM723.23 838l-.81-1 .35 4.61 1.11.88zM651.8 899.75s-20.45-15-34.88 12.78c0 0-4.06 2.66-1.51-5.59 0 0-5.11-3.7-7.92 4.32 0 0-8.71-6.72-.11-17.49 0 0 .54-9.15-12.73-8.26 0 0-5.65-9.84-9.87-10.37s-14.59 9.34-14.59 9.34-13.31-.1-14.85 8.85c0 0 7.17 5.57 1.28 16.21 0 0-3-6.51-8-6.27l-.55 8.9s-9.51-23.2-30.75-19l.48-5.2-5.55 2.49s.44-26.65-31.56-10.3c0 0-5.18-9.57-14.84-8.38l8.15 140.97 16.66 1 1.79-16.55s14.55-3.2 14.28-15.72c0 0 10.66-3.91 7.62-7.3s-10.44-2.37-10.44-2.37-17.14-8.32-15.78-20.68 5 1.33 5 1.33 9.26 18.38 28.43 19.93S549 955.76 549 955.76s15.8-3.25 15 12.22c0 0 10.32-.72 7-8.88s-14.33-12.17-14.33-12.17l12.77-6.14s-3.71 13.34 5.55 22.67 9.31 10.38 9.31 10.38 11.67-14.69 12.09-20-1.19-12.72-1.19-12.72l13.38 6.51s-13.73 2.41-13.37 17.68c0 0-9.82 3.19-9.39 11.88s6.7 18.45 6.7 18.45 1 20.56 9.4 20.15c0 0-7.21 18.85-3.68 37.34s9.09 34.49 13.14 29.26 4.09-14.31-.78-11.2c0 0-13.06-22.57-3.22-46.74 0 0 2.55 8.25 6.58 7.58l.14 2.86s-5.09 3.6.27 5.49l.15 3.11s-2.46-1.32-2.29 2 2.54 3.23 2.54 3.23l.14 2.86s-2.38.12-2 3.21 2.26 2.28 2.26 2.28l.13 2.63s-.78 3.62.21 4.29 2.79-1.57 2.79-1.57 0 5.26 1.45 5.19 2.36-5.61 2.36-5.61 1.35 5 2.86 4.9 1.49-5.43 1.49-5.43l1.51-.08s-1.57 3.69.17 3.61 3.15-2.37 3.15-2.37l2.67-.13s-2.06 5.46-.43 5.5 3.53-1.69 3.53-1.69-1.91 3.94-.27 4 4.09-2.18 4.09-2.18l.18 3.72s-12 20.27-17.19 20.34-5.61-15.87-7.22-15.79-4.56 6-3 12.16 3.62 11.85 9.17 11.58 22.8-21.92 22.8-21.92 7.56 12.54 23.28 11.06c0 0-6.74-39.57-10.38-80.47-4.75-53.81-6.73-112.14-6.72-109.06zm-160.48 22.08l-1.49-6.83 4.82-7.26-6.52-7.45-4.78 3.19-4-4.48s7.78-4.82 8.52-4.86 6.66 10.28 13.72 8.46c-.04 0-10.06 15.03-10.27 19.23zM529.75 829.33a.08.08 0 000 .06z" fill="#e0e0e0"/><path d="M530 826.77c-.41-.35-.85-.67-1.29-1a13.47 13.47 0 00-1.29-.83c-.27-2.67-.75-5.17-.75-5.17a74.86 74.86 0 00-8.86-5.64c1.26-1.27.58-3.49-.21-4.83a5.72 5.72 0 00-3.13-2.58 52.11 52.11 0 00-.62-9.79c-1.74-.93-5.09-1.44-8-1.72a3.46 3.46 0 00.89-1.43 6.13 6.13 0 00-.23-3.31 2.62 2.62 0 00-2.13-2 5 5 0 00-1.49 0l-.52.06c.89-7.45-.57-17.26-.57-17.26-5.9-.49-12 1-16.62 2.55a6.12 6.12 0 00-.84-2.52 4.11 4.11 0 00-1-1.23 2.94 2.94 0 00-1.87-.52 11.82 11.82 0 00-4.91.92c-.9-3.86-2.06-7.27-2.06-7.27a68.65 68.65 0 00-10.79 1.41 4.89 4.89 0 00-.71-2.31 6.12 6.12 0 00-3.17-2 1 1 0 00-1.15.72 1 1 0 00.71 1.14l.18.08.36.15c.24.11.48.22.71.35l.3.16.13.09.13.11a.36.36 0 00.08.09l.09.12c0 .08.08.17.13.25 0 .05 0 .1.05.15a4.21 4.21 0 01.16.61.59.59 0 010 .14 3.11 3.11 0 010 .32 1.41 1.41 0 010 .2c-1.14.27-1.83.45-1.83.45l2.57 67.9 64.58-2.45a7.17 7.17 0 00.49-3.55c.35.25.69.5 1 .77.17.14.34.3.5.46l.26.26.09.13a1.59 1.59 0 01.18.27l.08.13c0 .09 0 .08 0 0s.07.19.09.26a.5.5 0 000 .13 1 1 0 001 .92 1 1 0 00.92-1 4.62 4.62 0 00-1.64-2.89zm-53-54.39a8.84 8.84 0 014-1 2.85 2.85 0 011.09 0 1.94 1.94 0 01.66.76 4.35 4.35 0 01.6 2.22 52.18 52.18 0 00-5.75 2.54 32.3 32.3 0 00-.6-4.52zm25.12 18a2.82 2.82 0 00.41 0 8.52 8.52 0 011.23-.11h.31a2 2 0 00.23.06h.06l.11.07.07.06.1.15c-.07-.13 0 .15.05.19a5.66 5.66 0 01.15.59l.08.32s.06.33 0 .23a3.47 3.47 0 01.06.64 1.5 1.5 0 010 .3 1.22 1.22 0 000 .17l-.06.23-.12.21-.16.17-.1.06-.25.07a.94.94 0 00-.65 1 65.72 65.72 0 00-3.06-.14 12.19 12.19 0 001.51-4.24zm12.22 18.27a4.23 4.23 0 01.41.23 4.07 4.07 0 011.26 1.34 4.42 4.42 0 01.4.82c.06.15.11.31.16.47a1.74 1.74 0 01.05.22 3.4 3.4 0 010 .45v.16a.25.25 0 000 .1v.31l-.16.15a.75.75 0 00-.15.24c-1.71-.92-2.86-1.48-2.86-1.48a8 8 0 00.86-2.98z" fill="#e0e0e0"/><path d="M461.53 763.54c-.03-.07-.09-.13 0 0zM576.7 831.24s3.94-16.24 2.3-22.71a23.56 23.56 0 00-5.23-10 10.25 10.25 0 017 9.16s11.81-3.38 11.7-6.29a22 22 0 00-1.84-6.7s3.58-4.48 1.41-4.48-8.86 4.1-18.21 1.86c0 0 11.3-3.52 17.63-4s5.37-8.22 2.7-10.29-5.9-3.61-7.19-2.48-4.65 7.36-12.29 10.74c0 0 6.25-11.43 10.37-12.92 0 0-4.34-2-6.25-4s-3.94-.27-5.11-.39-3.74.56-3.62 1.39 1.25 8.89.38 10.17 2.65-3.3-4.45-13.88-19.57-11.87-19.57-11.87 2.61-3.94 3.74-2.64 2.47 3.49 3 3 1-4.71 1-4.71 8 2.53 11.8-1.54-.93-13.49-.93-13.49.5-14.25-4.34-19.08-15.8-1.19-15.8-1.19-13.34-7-17.46.66-1.05 13.31-1.05 13.31-2.64-3.27-3.7-3 .18 4.72.18 4.72l-1.09 4.51a26.49 26.49 0 00-8.67-14.9c-7.37-6.17-10.07-6.47-10.07-6.47s4.49-9.32 3.39-10-3.85-2.16-3.85-2.16.2-4-1.23-4-2.52 4.5-14.86 10.17c0 0 8.9-11.57 12.42-13.08s-1.73-2.94-1.73-2.94.39-4-1.63-5.12-6.27.23-6.27.23l-3.55.86a58.12 58.12 0 01-1.08 9.36 46.11 46.11 0 01-3.95 9.42s-3-8.52 1.9-16.2c0 0-1.13-1.3-5.7-1.33 0 0-3.09-3.56-5.95-3.06s-3.32 7-3.32 7L464.2 696s9.68 4.71 10.25 10.07c0 0-8.84-9.16-19.61-6.71l1.31 25.52s6.48.65 8.43-.14c0 0 3.92 13.66 19.58 5.71 0 0 9 10.46 19.59-3.86 0 0 13.28 4.95 17.44 15.55l.5 3.66s-3.82-1.56-4.88-1.16 0 3.41 4.78 3.22c0 0 2.51 5.26 4.46 6.64s6.41.84 6.41.84-1.59 5.36.2 5.51 2.48-5.61 2.48-5.61l4.3-.16s13.82 9.66 15.68 16.24c0 0-11.71 8-4.13 18.65 0 0-6 13 4.41 17.16 0 0-.19 13.88 14.89 9.37 0 0 5.69 3.37 5.15 8a10.87 10.87 0 01-3.15 6.87z" fill="#e0e0e0"/><path d="M363.2 565.24S343 579.38 337 590.28c0 0-2.89-1.91-2-4.16a24.55 24.55 0 00-8.14 5.75s-12.46-4.93-2.05-8.72c0 0 .64-6.78-14.89-.3 0 0-8.89-2.57-14.45-2.71s-47.91 18.31-32.5 18.09c0 0 .66 3-3.2 3s-12.9 2.64-12.9 2.64-38.87 21.34-40.26 31.8l6.78 15.56 3.28-12.86s27.52-2.66 32.88-22.23c0 0 4.09 4 9.1 3.6s6.24 8.37 7.91 9.92 10.34-.86 7.95-4.53-8.82-10.63-8.82-10.63l8.83-1s-4.76 3.11-2.08 6.54 20.19 15.38 23.94 15.17 19-12.9 19.19-16.88a10.76 10.76 0 00-2.44-6.89l7.5-.21s-3.47 4.86-2 5.17 3.79-4.09 3.79-4.09l8.08.05s-14.8 7.2-15.24 9.72a33 33 0 00-.32 5.75s-15 1.65-16.78 11.58 11.07 12.67 11.07 12.67-1.72 16.21 15.82 15.36c0 0-15.19 15.47-14.67 29.26s4.84 28.15 15.65 24.69 9.4-12.19 5.62-12.59-3.76 5-3.76 5-13.14-10.62-7.48-22.32S337 669.67 337 669.67s-.5 5.94 6.18 7.12c0 0-4.76 6.64-2.24 7.08a27.69 27.69 0 005 .35 7.8 7.8 0 01-3.83 3 2 2 0 00.5 3.93 28.32 28.32 0 013.59 0 2.16 2.16 0 01-1.87 2.58c-2.32.45-4.67 4.48-1.63 4.37a13 13 0 003.93-.51s.44 2.32-1.33 2.92a3 3 0 00-.52 5.22c2.4 1.7 5.55-5 5.55-5l1.61-.24s-.1 6.82 2.55 6 1.59-5.62 1.59-5.62l3.58-.14s.17 4.66 3 4 2.81-6.2 2.81-6.2l1.79-.07s0 4.13 2 4 2.6-2.43 2.6-2.43l4.83-.18a11 11 0 007.38 5.46s-7.72 13.74-22.95 19-21.09-3-21.09-3 3.7-1.76 1.76-5.45-9.44 1.79-10.17 6.12.86 13.06 20.2 12.33 40.55-23.06 40.55-23.06.76 15.22 21.77 11.37c0 0 3.95 9.35 22.15 7 0 0 11.2 16.07 19.32 19.89 0 0-9.68-2.32-8.9 9l12.54-.48L450.31 637s-4.88-1.07-13.57 6.26l-1-3s8.71-6.79 9.12-10c0 0 7.9.24 9-13.43 0 0 12.34.67 17.28-11 0 0 7.75 1.14 8.11-3.72 0 0-41.84 8.56-77.15-6.82l.41 5.9s-5.38 0-11.91 7.63l-2.72-.79s8.45-7.81 6.33-16.34c-.01-.01-24.63-12.83-31.01-26.45z" fill="#e0e0e0"/><path d="M420.6 646.08s-16.77 22.84-17.26 32.65-11 32.6-11 32.6" fill="none" stroke="#262521" stroke-linecap="round" stroke-linejoin="round" stroke-width="1.27" stroke-dasharray="1.27 2.55"/><path d="M404.11 674.88s9.24 26.76 21.19 26.31c8.26-.32 10.11-26.91 10.11-26.91" fill="none" stroke="#262521" stroke-linecap="round" stroke-linejoin="round" stroke-width="1.27" stroke-dasharray="1.27 2.55"/><path d="M413.33 656.84s-4.19 20.82-.05 25.8 6.8 8.7 9 8.62 8-7.81 7-14.23-10.3-17.28 1.36-32.82M419.74 667.5l.41 10.69" fill="none" stroke="#262521" stroke-linecap="round" stroke-linejoin="round" stroke-width="1.27" stroke-dasharray="1.27 2.55"/><path d="M436.74 643.29s-8.87 7.33-7.7 19.3 25.17 27.46 25.17 27.46M449.58 646.36s-2.66.49-2.25 6.57" fill="none" stroke="#262521" stroke-linecap="round" stroke-linejoin="round" stroke-width="1.27" stroke-dasharray="1.27 2.55"/><path d="M450.4 652.75s-7.53-.37-9.52 4.55.83 13 4.71 16 8.22 6.28 8.22 6.28" fill="none" stroke="#262521" stroke-linecap="round" stroke-linejoin="round" stroke-width="1.27" stroke-dasharray="1.27 2.55"/><path d="M449.74 639.9s-15.34 8-14.19 19.39 17.58 26.06 17.58 26.06" fill="none" stroke="#262521" stroke-linecap="round" stroke-linejoin="round" stroke-width="1.27" stroke-dasharray="1.27 2.55"/><path d="M451.6 661.57s-.16-1.8-1.72-1.57-1 2.78.12 3.16M453.13 605.17s-9.05 4.66-9.46 8.08-1 11.88-7.75 18-18.67 14.26-31.35 6.31-12.28-17.93-11.48-21.72 5.94-12.35 14.08-14.35 4.28-1.25 4.28-1.25" fill="none" stroke="#262521" stroke-linecap="round" stroke-linejoin="round" stroke-width="1.27" stroke-dasharray="1.27 2.55"/><path d="M415.2 605.19c4.66-.18 14.44 1.78 17.89 7.93s3.85 14-5.26 18.67-21.81 5.49-26.91-6.15 5.51-20.12 14.28-20.45zM433.05 604.39c1.72 1.89 3.35 3.8 3.45 4.29s1.39-1.35 2.65-3.37" fill="none" stroke="#262521" stroke-linecap="round" stroke-linejoin="round" stroke-width="1.27" stroke-dasharray="1.27 2.55"/><path fill="none" stroke="#262521" stroke-linecap="round" stroke-linejoin="round" stroke-width="1.27" stroke-dasharray="1.27 2.55" d="M421.54 611.4l.15 4.12 5.52-.21M414.73 611.66l.16 4.12-5.66.21M410.48 622.4l4.65-.17.15 3.94M421.94 621.97l.11 3.04 5.52-.21M406 612s-8.52 11.8 4.83 18.65M402.52 600.29l4.24-1.9"/><path d="M390.59 608.81a30.2 30.2 0 00-1.29 22.65c4.24 12.57 28.28 16.23 34.8 14.49s23.15-14.78 23.47-20 .66-9.5.66-9.5M451.83 611a11 11 0 0012-6.29M454.89 708.17l-7.45 5.25M435 729.89a15.92 15.92 0 008-16.3M455.81 711.87s-13.47 14.59-13.47 17.74 16.14 18.58 16.14 18.58" fill="none" stroke="#262521" stroke-linecap="round" stroke-linejoin="round" stroke-width="1.27" stroke-dasharray="1.27 2.55"/><path d="M457.54 723.48s-8.11 1.7-8.25 6.85 8.41 7.19 8.41 7.19" fill="none" stroke="#262521" stroke-linecap="round" stroke-linejoin="round" stroke-width="1.27" stroke-dasharray="1.27 2.55"/><path d="M457 728.36s-2.58 0-2.17 2.24a1.72 1.72 0 002.44 1.47M449.75 757.83s.69-4.75 4-4.88M453 759.2s-.13-4.22 6.59-4.11" fill="none" stroke="#262521" stroke-linecap="round" stroke-linejoin="round" stroke-width="1.27" stroke-dasharray="1.27 2.55"/><circle cx="407.15" cy="708.05" r="3.54" fill="none" stroke="#262521" stroke-linecap="round" stroke-linejoin="round" stroke-width="1.27" stroke-dasharray="1.27 2.55"/><circle cx="385.63" cy="691.45" r="3.54" fill="none" stroke="#262521" stroke-linecap="round" stroke-linejoin="round" stroke-width="1.27" stroke-dasharray="1.27 2.55"/><circle cx="349.64" cy="666.97" r="3.54" fill="none" stroke="#262521" stroke-linecap="round" stroke-linejoin="round" stroke-width="1.27" stroke-dasharray="1.27 2.55"/><circle cx="326.82" cy="653.96" r="3.54" fill="none" stroke="#262521" stroke-linecap="round" stroke-linejoin="round" stroke-width="1.27" stroke-dasharray="1.27 2.55"/><circle cx="330.96" cy="623.3" r="3.54" fill="none" stroke="#262521" stroke-linecap="round" stroke-linejoin="round" stroke-width="1.27" stroke-dasharray="1.27 2.55"/><circle cx="330.96" cy="623.3" r="3.54" fill="none" stroke="#262521" stroke-linecap="round" stroke-linejoin="round" stroke-width="1.27" stroke-dasharray="1.27 2.55"/><circle cx="314.71" cy="638.83" r="3.54" fill="none" stroke="#262521" stroke-linecap="round" stroke-linejoin="round" stroke-width="1.27" stroke-dasharray="1.27 2.55"/><circle cx="363.54" cy="683.01" r="4.79" fill="none" stroke="#262521" stroke-linecap="round" stroke-linejoin="round" stroke-width="1.27" stroke-dasharray="1.27 2.55"/><circle cx="428.23" cy="715.76" r="3.54" fill="none" stroke="#262521" stroke-linecap="round" stroke-linejoin="round" stroke-width="1.27" stroke-dasharray="1.27 2.55"/><circle cx="443.94" cy="698.26" r="3.54" fill="none" stroke="#262521" stroke-linecap="round" stroke-linejoin="round" stroke-width="1.27" stroke-dasharray="1.27 2.55"/><path fill="none" stroke-dasharray="1.27 2.55" stroke-linecap="round" stroke-linejoin="round" stroke-width="1.27" stroke="#262521" d="M427.02 715.8l2.23-.08M405.97 708.1l2.24-.09M443.01 698.29l1.74-.07M433.78 686.08l7.23 8.74M425.3 701.19l1.59 11.22M412.09 691.41l-3.37 13.04M396 703.62s.82 12.67 7.36 14.42 14.22-1.88 14.22-1.88 2.54 9.14 12.06 8.38 10.33-17.73 10.33-17.73 7 2.51 11-2.22.15-13.11.15-13.11M437.59 682.89l7.43 7.51M432.53 694.19l4.54 5.83M428.67 700.34l4.39 7.95M420.73 700.06l.12 9.4M414.74 694.86l-1.16 9.41M410.02 687.84l-4.37 11.87"/><path d="M402.75 703.36s-5.29 9.15 2.89 11.65 8.06-7.74 8.06-7.74M421.5 712.47s.55 11.66 7.63 9.64 4-11.5 4-11.5M438.31 702s7 5.51 10.73.91-1.21-10.67-1.21-10.67" fill="none" stroke="#262521" stroke-linecap="round" stroke-linejoin="round" stroke-width="1.27" stroke-dasharray="1.27 2.55"/><path d="M394.81 712.06s1.26 13 20.12 7.74c0 0 7.33 12.41 17.27 7.16s9.4-16.67 9.4-16.67 8.89 2.3 13.71-7.61M408.4 645.05s-16.35 27.74-20.4 41.18M396.13 639.61s-23.5 29.76-28 35.2M398.47 641.03l-30.21 37.94M389.3 631.46s-21.6 23.11-34.59 30.9M390.22 633.53s-26.32 23.47-35.4 31.75M411.35 645.42s-17.62 28.22-20 40.68M360.62 674.35s-10.05 3.55-6.57 9c0 0-4.2 10.57 5.05 9.09 0 0 13.14.19 12.86-7.07M385.63 691.45l.57-.02M362.34 681.93l2.29 2.1M348.5 666.54l2.2.39M385.81 628.33s-37 29-40 31.11-7.18 6.4-7.78 9.76" fill="none" stroke="#262521" stroke-linecap="round" stroke-linejoin="round" stroke-width="1.27" stroke-dasharray="1.27 2.55"/><path d="M402.9 643.05s-22.46 40.38-23.43 43.51-6.87 11.38-18.25 13.24-14.93 2-14.23-9.57.09-13.19.09-13.19 6.34-4.39 14.66-11 30.84-29.35 30.84-29.35M375.76 699.25l-.62-6.43M385 702.72s7.17-3 10.45-12.4 9.57-29.88 11.08-31.2 9.54-12.59 9.54-12.59" fill="none" stroke="#262521" stroke-linecap="round" stroke-linejoin="round" stroke-width="1.27" stroke-dasharray="1.27 2.55"/><path d="M336.88 720s-3.5 3.67 2.12 8 22.4.28 31-3.45 20.42-19.78 22.78-24S399 687.4 399 687.4M337.81 663s-18 8.92-21.38 26.6.39 29.23 13.54 25.79M354.1 622.34s-24.28 12.31-24.33 15.92 10 5.55 10 5.55M388.42 608.18s-16.36 16.25-27.42 14.94-24.79-7-25.26-16 16.58-8.83 16.58-8.83-16.57 3.14-15.76-8.37" fill="none" stroke="#262521" stroke-linecap="round" stroke-linejoin="round" stroke-width="1.27" stroke-dasharray="1.27 2.55"/><path d="M354.13 596.55a7.3 7.3 0 014.08-1c2.62 0 4.67 1.45 2.59 2.4s-6.57 1.33-6.57 1.33M356.09 602.05s-1.63 6.6-4.12 6.69M360.78 574.06s-20.41 11.5-17.72 18.14 9.13.61 9.13.61" fill="none" stroke="#262521" stroke-linecap="round" stroke-linejoin="round" stroke-width="1.27" stroke-dasharray="1.27 2.55"/><path d="M350.76 603s-8.76 1.27-8.58 6.14 14 9.14 19.94 8.67 26.08-12.68 26.52-26.1" fill="none" stroke="#262521" stroke-linecap="round" stroke-linejoin="round" stroke-width="1.27" stroke-dasharray="1.27 2.55"/><path d="M381.07 599.67c-2 4-13.47 11.45-21.39 12s-11.27-5.09-11.27-5.09M346.78 591.58s-2.93-3.69 7.5-8.41 14.12-8.38 14.12-8.38M355.26 591.26s9.63-1.44 10 5.78-5.11 5.57-5.11 5.57" fill="none" stroke="#262521" stroke-linecap="round" stroke-linejoin="round" stroke-width="1.27" stroke-dasharray="1.27 2.55"/><path d="M350.24 589.36s7.89-4.66 12.64-3.65 8.86 6.81 9 10.77-4.81 9.38-12.35 10.82M370 582.21s7.12 8 5.92 14.11M379.37 584.88s3.38 5.36 2 10.9M357 626s-18.4 8-17.43 10.83 15.28 5.07 15.28 5.07M353.67 634.92s27.07-8 31.68-18.68M357.06 638.69s8.42-3.85 10.8-4.31" fill="none" stroke="#262521" stroke-linecap="round" stroke-linejoin="round" stroke-width="1.27" stroke-dasharray="1.27 2.55"/><path d="M340.26 619.32a13.66 13.66 0 00-13.08-2.27c-7.42 2.71-7 12.73-7 12.73s-15.65 2.39-15.4 9S316.59 649 316.59 649s-7 9.31 10 15.66c0 0 12.16-8 19-10.68s40.94-31.84 40.94-31.84M330.15 623.25l1.86-.07M312.91 638.9l2.78-.11M326.19 653.98l1.75-.06M318.25 638.69l11.52-.43" fill="none" stroke="#262521" stroke-linecap="round" stroke-linejoin="round" stroke-width="1.27" stroke-dasharray="1.27 2.55"/><path d="M323.08 648.77s-6 3.76-3.12 7.92 8.28 6.3 11.55 2.44M332.01 650.94l12.75-8.7M343.6 646.39l6.37 1.36M333.16 653.33l8.97-5.29M320.72 640.77l7.35-.28M334.61 626.03l4.01 4.09M336.64 624.17l4.77 4.8M325.6 621.76a12.14 12.14 0 00-.41 5.85M309.58 635.67s-2.63 2.73-.47 5.54M288.16 616.46s5.54-2.65 1.22-3.81-14 0-13.86 4.29 20.06 14.82 20.06 14.82 18.71-9.47 16.52-14.14-10.63-10.93-14.28-3.57" fill="none" stroke="#262521" stroke-linecap="round" stroke-linejoin="round" stroke-width="1.27" stroke-dasharray="1.27 2.55"/><path d="M285.48 618s3.71 9.3 8.77 8.83 9.7-8.88 9.7-8.88l-2.72-4" fill="none" stroke="#262521" stroke-linecap="round" stroke-linejoin="round" stroke-width="1.27" stroke-dasharray="1.27 2.55"/><path d="M293.88 617s.13-8.63-5.15-8.16l4.14-3.49 5.76 3s-5.53.38-4.75 8.65zM290.17 619.85s2 3.35 4.73 3.07 4.1-4.8 4.1-4.8M256.25 615.62s14.21.72 14.5 8.23M248.62 604.69s-1 5.65-3.51 5.75c0 0 6.51 2.38 6.73 7.4M209.21 635l4.61-3.2s21.18.76 26.12-6.83-.51-13.33-.51-13.33l5.41-8.28M221.16 628.64s14.36-2 16.31-9.47M218.69 622.57s3.64 4 8.52 1.42M227.86 615s6.95-.54 5.86 3.54M212.75 636.55l-1.61 9.75M312.35 587.42s10 8.15 14 6.63a26.81 26.81 0 006.93-4" fill="none" stroke="#262521" stroke-linecap="round" stroke-linejoin="round" stroke-width="1.27" stroke-dasharray="1.27 2.55"/><path d="M333.46 595.83s-2 3.61-11 2.83-17.83-12.1-17.83-12.1M300 586.74s.55 7.82-9.52 4.89-16-2.77-16-2.77M295.02 588.08l-10.77-2.62M292.06 595.34s-12-2-18.7-1l-10.74 2.07M252.78 609.24s21.09-8.21 31-9.9M265.38 600.52s9.63-2 13.1-2.6M251.39 606.02l9.85-3.24M295.53 601.48s30.18 14.12 40.16 5.6M303.08 595.08s15.58 9.47 32.39 6.32M301.69 597.66l9.09 4.67M318.49 604.41s7.91 2.2 12.85.94M289.44 600.63s-3.83 9.2-27.09 13.42M256.11 611.77s24.08-7.28 26.3-9.28M288.32 598.17s2.86-2.46 9.07.08" fill="none" stroke="#262521" stroke-linecap="round" stroke-linejoin="round" stroke-width="1.27" stroke-dasharray="1.27 2.55"/><path d="M680.59 591.62a30.29 30.29 0 00-4.87 3.43l-2.57-1.21a18.87 18.87 0 005.11-5.38c-2.25-3.34-55.11-22.41-53.85-24.49a24.57 24.57 0 00-8.94 4.4s-8.52-5-4-7.79c.73-.45-19.69-7.68-25.17-8.7s-50.18 10.62-34.91 12.8c0 0 .17 3.09-3.64 2.45s-13.15.6-13.15.6l-2.87-.23c-.5.74-7.2 8.8-10.21 11.72a58.42 58.42 0 01-10.36 7.78c-6.25 3.81-14 6.71-20.55 9.92l3.46 12.4 5.24-12.19s27.6 1.67 35.95-16.83c0 0 3.42 4.56 8.43 5s4.85 9.24 6.26 11 10.35.77 8.56-3.22-7-11.88-7-11.88l8.88.38s-5.2 2.33-3.08 6.13S574.8 606 578.53 606.4s20.83-9.76 21.59-13.68a10.71 10.71 0 00-1.33-7.18l7.45 1s-4.19 4.26-2.81 4.79 4.38-3.45 4.38-3.45l8 1.31s-15.81 4.81-16.6 7.19A32.76 32.76 0 00598 602s-15.08-.72-18.38 8.82 8.94 14.24 8.94 14.24-4.22 15.74 13.24 17.64c0 0-17.42 12.91-19.06 26.61s.38 28.56 11.6 26.83 11.19-10.58 7.51-11.56-4.49 4.34-4.49 4.34-11.31-12.54-3.9-23.21 19.77-18.93 19.77-18.93-1.42 5.78 5 8c0 0-5.75 5.82-3.32 6.65a27.31 27.31 0 004.92 1.13 7.85 7.85 0 01-4.26 2.38 2 2 0 00-.11 3.95 28.3 28.3 0 013.54.61 2.16 2.16 0 01-2.26 2.25c-2.35.08-5.31 3.7-2.29 4.06a12.8 12.8 0 004 .11s.08 2.36-1.76 2.68a3 3 0 00-1.33 5.08c2.1 2.05 6.27-4.13 6.27-4.13h1.62s-1.16 6.72 1.59 6.33 2.44-5.3 2.44-5.3l3.56.42s-.56 4.63 2.36 4.43 3.74-5.68 3.74-5.68l1.78.21S638 684 640 684.27s2.95-2 2.95-2l4.8.57a11 11 0 006.44 6.55s-9.78 12.37-25.63 15.17-20.38-6.23-20.38-6.23 3.93-1.15 2.6-5.1-9.6.29-11 4.46-1.2 13 18 15.33 43.66-16.45 43.66-16.45-1.63 15.15 19.73 14.63c0 0 2.43 9.86 20.77 10.42 0 0 5.51 11.35 11.52 18.44 1.47 1.75-9.74-120.73-32.87-148.44z" fill="#e0e0e0"/><path d="M697.6 638.52s-18.19 18-20.21 27.58-16 30.48-16 30.48" fill="none" stroke="#262521" stroke-linecap="round" stroke-linejoin="round" stroke-width="1.27" stroke-dasharray="1.27 2.55"/><path d="M678.75 662.41s5 27.88 16.83 29.3c3.85.46 7.21-5 9.7-11" fill="none" stroke="#262521" stroke-linecap="round" stroke-linejoin="round" stroke-width="1.27" stroke-dasharray="1.27 2.55"/><path d="M690.67 646s-7.38 19.91-4.07 25.48 5.36 9.65 7.57 9.92 9.12-6.47 9.1-13c0-3.23-1.86-7.86-2-13.36M695.35 657.57l-1.27 10.62M695.57 630.7a20.35 20.35 0 01-10.54-5c-11.28-9.83-9.33-19.63-7.95-23.24a20.62 20.62 0 015.79-7.37" fill="none" stroke="#262521" stroke-linecap="round" stroke-linejoin="round" stroke-width="1.27" stroke-dasharray="1.27 2.55"/><path d="M694 624.31a14.64 14.64 0 01-10.7-11 13.08 13.08 0 012.6-12.44M687.79 604.33c-1.94 3.8-3.11 9.91 4.47 15.43" fill="none" stroke="#262521" stroke-linecap="round" stroke-linejoin="round" stroke-width="1.27" stroke-dasharray="1.27 2.55"/><path d="M675.72 595.05a30.14 30.14 0 00-4.82 22.17c1.77 10.36 16.69 17.14 26.15 19.16M700.72 721.58s7.92-.84 9.77-11" fill="none" stroke="#262521" stroke-linecap="round" stroke-linejoin="round" stroke-width="1.27" stroke-dasharray="1.27 2.55"/><circle cx="676.58" cy="695.66" r="3.54" fill="none" stroke="#262521" stroke-linecap="round" stroke-linejoin="round" stroke-width="1.27" stroke-dasharray="1.27 2.55"/><circle cx="657.91" cy="675.9" r="3.54" fill="none" stroke="#262521" stroke-linecap="round" stroke-linejoin="round" stroke-width="1.27" stroke-dasharray="1.27 2.55"/><circle cx="626.19" cy="646.1" r="3.54" fill="none" stroke="#262521" stroke-linecap="round" stroke-linejoin="round" stroke-width="1.27" stroke-dasharray="1.27 2.55"/><circle cx="605.68" cy="629.69" r="3.54" fill="none" stroke="#262521" stroke-linecap="round" stroke-linejoin="round" stroke-width="1.27" stroke-dasharray="1.27 2.55"/><circle cx="614.55" cy="600.05" r="3.54" fill="none" stroke="#262521" stroke-linecap="round" stroke-linejoin="round" stroke-width="1.27" stroke-dasharray="1.27 2.55"/><circle cx="614.55" cy="600.05" r="3.54" fill="none" stroke="#262521" stroke-linecap="round" stroke-linejoin="round" stroke-width="1.27" stroke-dasharray="1.27 2.55"/><circle cx="596.08" cy="612.85" r="3.54" fill="none" stroke="#262521" stroke-linecap="round" stroke-linejoin="round" stroke-width="1.27" stroke-dasharray="1.27 2.55"/><circle cx="637.41" cy="664.11" r="4.79" fill="none" stroke="#262521" stroke-linecap="round" stroke-linejoin="round" stroke-width="1.27" stroke-dasharray="1.27 2.55"/><circle cx="696.19" cy="706.56" r="3.54" fill="none" stroke="#262521" stroke-linecap="round" stroke-linejoin="round" stroke-width="1.27" stroke-dasharray="1.27 2.55"/><path fill="none" stroke-dasharray="1.27 2.55" stroke-linecap="round" stroke-linejoin="round" stroke-width="1.27" stroke="#262521" d="M694.99 706.42l2.22.26M675.4 695.52l2.22.26M695.58 691.71l-.19 11.34M684.05 680l-5.37 12.34M666.2 689.53s-1.16 12.64 5 15.4 14.34.36 14.34.36 1.08 9.42 10.61 10.16 13-15.9 13-15.9M703.81 685.93l3.58 6.47M699.04 691.4l3.09 8.54M691.24 689.89l-1.35 9.3M686.14 683.82l-2.62 9.1M682.57 676.14l-6.17 11.04"/><path d="M673 690.34s-6.65 8.21 1 11.95 9.18-6.38 9.18-6.38M690.06 702.26s-1.28 11.61 6 10.72 5.77-10.74 5.77-10.74" fill="none" stroke="#262521" stroke-linecap="round" stroke-linejoin="round" stroke-width="1.27" stroke-dasharray="1.27 2.55"/><path d="M663.76 697.69s-.79 13.06 18.67 10.79c0 0 5.3 13.4 15.93 9.76s11.38-13 11.38-13M687.64 633.62s-20.48 24.85-26.57 37.5M676.37 626.34s-27.86 25.72-33.17 30.39M678.47 628.1l-35.77 32.76M670.9 617.22s-24.94 19.45-39 25.12M671.49 619.41s-29.66 19.08-39.93 25.83M690.5 634.45s-21.81 25.12-26.08 37.07M635.88 655.11S625.39 657 628 663c0 0-5.8 9.78 3.57 9.76 0 0 12.94 2.25 13.81-5M657.91 675.9l.57.07M636.4 662.86l1.93 2.43M625.12 645.5l2.11.73M667.94 613.58s-41.1 22.86-44.36 24.49-8.08 5.19-9.2 8.42" fill="none" stroke="#262521" stroke-linecap="round" stroke-linejoin="round" stroke-width="1.27" stroke-dasharray="1.27 2.55"/><path d="M682.53 630.79S654 667.16 652.59 670.1s-8.59 10.18-20.09 10.24-15.06-.37-12.57-11.68 2.15-13 2.15-13 6.95-3.35 16.2-8.58 35.05-24.17 35.05-24.17M646.95 682.06l.38-6.45M655.52 686.93s7.55-1.84 12.26-10.62 14.11-28 15.81-29.08 11.39-11 11.39-11" fill="none" stroke="#262521" stroke-linecap="round" stroke-linejoin="round" stroke-width="1.27" stroke-dasharray="1.27 2.55"/><path d="M605.3 696.51s-4 3.08.85 8.2 22.07 3.78 31.15 1.43 23.26-16.35 26.24-20.14 8.24-12 8.24-12M615.12 640.33s-19.21 6-25.27 22.93-4.18 28.94 9.35 27.6M637.56 602.71s-25.91 8.38-26.52 11.93 9.05 7.05 9.05 7.05M673.67 594.08s-18.7 13.5-29.46 10.47-23.4-10.76-22.46-19.78 17.77-6.14 17.77-6.14-16.86.52-14.26-10.73" fill="none" stroke="#262521" stroke-linecap="round" stroke-linejoin="round" stroke-width="1.27" stroke-dasharray="1.27 2.55"/><path d="M641.61 577.25a7.22 7.22 0 014.2-.38c2.58.43 4.39 2.16 2.18 2.77s-6.7.29-6.7.29M642.69 583s-2.63 6.27-5.11 6M631.77 568.57a3.92 3.92 0 00-.41 2.65c1.63 7 8.92 2 8.92 2" fill="none" stroke="#262521" stroke-linecap="round" stroke-linejoin="round" stroke-width="1.27" stroke-dasharray="1.27 2.55"/><path d="M637.28 583.06s-8.85-.11-9.43 4.73 12.37 11.2 18.34 11.67c4.69.37 19.17-5.07 26.37-13.83" fill="none" stroke="#262521" stroke-linecap="round" stroke-linejoin="round" stroke-width="1.27" stroke-dasharray="1.27 2.55"/><path d="M667.74 584.53c-2.56 3.61-15.09 9.21-23 8.54s-10.34-6.79-10.34-6.79M652.55 579.47c-.74 7.19-5.91 4.71-5.91 4.71M659.14 579.94c-.5 3.92-6.21 8.51-13.89 8.76M639.85 606.74s-19.41 5-18.91 8 14.3 7.39 14.3 7.39M635.17 615.07s28-3.72 34.21-13.5M637.93 619.33s8.92-2.49 11.34-2.58" fill="none" stroke="#262521" stroke-linecap="round" stroke-linejoin="round" stroke-width="1.27" stroke-dasharray="1.27 2.55"/><path d="M624.36 597.57a13.66 13.66 0 00-12.57-4.29c-7.75 1.52-8.94 11.48-8.94 11.48s-15.83-.09-16.6 6.43 10.09 12 10.09 12-8.37 8.11 7.44 17c0 0 13.26-6.05 20.45-7.58s45.41-25.06 45.41-25.06M613.76 599.87l1.85.22M594.29 612.64l2.76.33M605.05 629.61l1.74.21M599.6 613.27l11.44 1.37" fill="none" stroke="#262521" stroke-linecap="round" stroke-linejoin="round" stroke-width="1.27" stroke-dasharray="1.27 2.55"/><path d="M602.8 624s-6.53 2.78-4.33 7.34 7.2 7.52 11 4.22M611.27 627.52l13.96-6.61M623.43 624.83l6.08 2.33M612.04 630.06l9.69-3.83M601.72 615.71l7.3.87M617.73 603.32l3.32 4.67M620.03 601.8l3.96 5.48M609.5 597.69a12.22 12.22 0 00-1.32 5.72M591.51 608.93s-3 2.28-1.33 5.4M573.35 586.61s5.89-1.75 1.8-3.57-13.85-2.21-14.36 2.08 17.5 17.76 17.5 17.76 20-6.43 18.52-11.39-8.81-12.49-13.55-5.75" fill="none" stroke="#262521" stroke-linecap="round" stroke-linejoin="round" stroke-width="1.27" stroke-dasharray="1.27 2.55"/><path d="M570.46 587.7s2.21 9.76 7.28 10.09 11-7.26 11-7.26l-2.05-4.4" fill="none" stroke="#262521" stroke-linecap="round" stroke-linejoin="round" stroke-width="1.27" stroke-dasharray="1.27 2.55"/><path d="M578.9 588.07s1.48-8.51-3.81-8.87l4.64-2.8 5.21 3.89s-5.51-.54-6.04 7.78zM574.8 590.28s1.46 3.61 4.2 3.77 4.79-4.11 4.79-4.11M542 580.8s13.93 2.93 13 10.39M536.13 568.81s-1.9 5.43-4.37 5.13c0 0 6.07 3.37 5.49 8.36M505.16 591.19c6.58.53 15.57.39 19.22-3.66 6.06-6.73 3.08-13.25 3.08-13.25l4.8-5.71M511 588.07s11.13 0 12.41-9.19M495.4 595.65l-1.78 7.91M601.77 561.7s8.6 9.61 12.76 8.73a26.63 26.63 0 007.47-2.92" fill="none" stroke="#262521" stroke-linecap="round" stroke-linejoin="round" stroke-width="1.27" stroke-dasharray="1.27 2.55"/><path d="M621.31 573.31s-2.56 3.24-11.27 1.08-15.72-14.74-15.72-14.74M589.63 559.09s-.68 7.81-10.16 3.34-15.35-5.22-15.35-5.22M584.56 559.65l-10.24-4.27M580.5 566.36s-11.56-3.85-18.32-3.86l-10.94.37M539.52 574s22.11-4.81 32.15-4.94M553.34 567.31s9.83-.5 13.33-.52M538.65 570.56l10.24-1.67M583 573s27.6 18.66 38.78 11.81M591.43 567.82s13.91 11.79 31 11.3M589.65 570.15l8.24 6.04M605.19 579.44s7.46 3.42 12.54 2.93M577.08 571.18s-5.22 8.48-28.85 9M542.42 577s24.92-3.43 27.42-5.05M576.36 568.57s3.21-2 8.94 1.5M474.45 706.06s3.57 13.82-9.87 18.67M505.53 713s-12.37-1.32-18.79 1.71-6.88 10.43-2.58 15.7M483.3 707.69s11.19-13.17 11.27-14.9-3.37-4.2-4.58-2.79-6.69 17.69-6.69 17.69zM476.74 705s3.07-11 1.48-12.56-6.93-1-8.54 3.33c-.68 1.88 7.06 9.23 7.06 9.23z" fill="none" stroke="#262521" stroke-linecap="round" stroke-linejoin="round" stroke-width="1.27" stroke-dasharray="1.27 2.55"/><path d="M455.29 702.05s13-.35 14.81 6.14-2.39 12.48-5.67 12.76-8.69-1.05-8.58-4 .3-9.88 4.49-9.71 3.62 1.16 3.62 1.16-7.3 3.58-4.29 6.14 5.94-1 5.94-1M518.87 733.29s-10.3-17.48-19-17.43-14.65 3.88-14.49 8.08 9.14 8.29 13.13.35 20.36 9 20.36 9z" fill="none" stroke="#262521" stroke-linecap="round" stroke-linejoin="round" stroke-width="1.27" stroke-dasharray="1.27 2.55"/><path d="M499.74 718.79s-9.05.63-9.06 4.12 9.06-4.12 9.06-4.12zM486.58 710.49l12.55-7.78a8.14 8.14 0 012.19 4.29c.15 2.23.17 4.37.17 4.37zM468 723.09s3.56 10 14.62 5M470.9 720.53s2.83 7.43 10.49 3.68" fill="none" stroke="#262521" stroke-linecap="round" stroke-linejoin="round" stroke-width="1.27" stroke-dasharray="1.27 2.55"/><circle cx="478.25" cy="718.89" r="2.23" fill="none" stroke="#262521" stroke-linecap="round" stroke-linejoin="round" stroke-width="1.27" stroke-dasharray="1.27 2.55"/><path d="M475.67 709.86s6.74.26 9.4 4.94M526.75 727.6s6.68-4.31 10.22.84 3.69 8.91 3.69 8.91 12.82-.77 11.6 11.29" fill="none" stroke="#262521" stroke-linecap="round" stroke-linejoin="round" stroke-width="1.27" stroke-dasharray="1.27 2.55"/><path d="M538.5 739.11s-4-14-10.44-8.26-2.1 21.3-2.1 21.3 23.71 1.75 22.91-4.64-10.37-8.4-10.37-8.4z" fill="none" stroke="#262521" stroke-linecap="round" stroke-linejoin="round" stroke-width="1.27" stroke-dasharray="1.27 2.55"/><path d="M534.28 738.43s-4.53-8.77-5.9 1.06-.09 10.34 5.76 9.84 12.25-4.52 6.33-6-6.19-4.9-6.19-4.9z" fill="none" stroke="#262521" stroke-linecap="round" stroke-linejoin="round" stroke-width="1.27" stroke-dasharray="1.27 2.55"/><path fill="none" stroke="#262521" stroke-linecap="round" stroke-linejoin="round" stroke-width="1.27" stroke-dasharray="1.27 2.55" d="M531.77 742.13l.1 2.67 2.65-.09M534.42 720.57l6.07 15.6 17.36 4.97"/><path fill="none" stroke="#262521" stroke-linecap="round" stroke-linejoin="round" stroke-width="1.27" stroke-dasharray="1.27 2.55" d="M542.22 729.06l1.54 5.28 6.63 1.66M549.18 730.74l9.23-11.04M551.33 719.92l1.06 6.98 6.31.29M559 735.68s5.51 4.8 4.89 9.25M532.11 716.29s5.36-1.23 9.11 4.87M547.3 758.71s17.22 4.94 17.78 14.95-3.75 14.74-6.81 14.54-10.07-3-1.69-11.9c6.52-6.96-9.28-17.59-9.28-17.59z"/><path d="M560.36 771.11s0 6.83-2.16 10.32 5.66 5.14 2.16-10.32z" fill="none" stroke="#262521" stroke-linecap="round" stroke-linejoin="round" stroke-width="1.27" stroke-dasharray="1.27 2.55"/><path d="M569.43 772.83s-1.58 17.74-7.63 18.69a18.39 18.39 0 01-11.34-2.35M556.12 807.09s1.44-9.31 11.32-9 8.85 1.67 8.85 1.67" fill="none" stroke="#262521" stroke-linecap="round" stroke-linejoin="round" stroke-width="1.27" stroke-dasharray="1.27 2.55"/><path d="M577.05 818.92s2.47-14.26-4-15.81-15.94.24-14.2 6.19 12.06 1.51 12.06 1.51" fill="none" stroke="#262521" stroke-linecap="round" stroke-linejoin="round" stroke-width="1.27" stroke-dasharray="1.27 2.55"/><path d="M568 808s-6.31 3.28-4.81.18 6.68-3.48 8.77-.33 2.88 13.39 2.88 13.39M552.44 790.16s-2 9.5 4.34 13.75" fill="none" stroke="#262521" stroke-linecap="round" stroke-linejoin="round" stroke-width="1.27" stroke-dasharray="1.27 2.55"/><circle cx="563.82" cy="794.78" r="1.9" fill="none" stroke="#262521" stroke-linecap="round" stroke-linejoin="round" stroke-width="1.27" stroke-dasharray="1.27 2.55"/><path d="M556.32 791.83s-2.59 3.76 2.17 9M569.94 786.37l9.35-11.48s-3.48-3.09-3.32-3.1-3 .91-3 .91zM572.31 789.4s14-10.27 15.59-9.61 3.8.72 3.83 1.44-2.36 4-3.78 4.46-15.64 3.71-15.64 3.71zM575.14 794.35s9.94.87 11.2.86-.22 3.82-1.08 4.57-10.12-5.43-10.12-5.43zM565.69 787.92s5.58 1.07 4.67 9.54M478.24 777.65l-14.22 26.78M499.21 796.05l-27.58 22.39M512.37 812.05l-29.84 19.78" fill="none" stroke="#262521" stroke-linecap="round" stroke-linejoin="round" stroke-width="1.27" stroke-dasharray="1.27 2.55"/><circle cx="466.52" cy="777.16" r="3.54" fill="none" stroke="#262521" stroke-linecap="round" stroke-linejoin="round" stroke-width="1.27" stroke-dasharray="1.27 2.55"/><circle cx="487.79" cy="786.48" r="3.54" fill="none" stroke="#262521" stroke-linecap="round" stroke-linejoin="round" stroke-width="1.27" stroke-dasharray="1.27 2.55"/><circle cx="503.2" cy="806.57" r="3.54" fill="none" stroke="#262521" stroke-linecap="round" stroke-linejoin="round" stroke-width="1.27" stroke-dasharray="1.27 2.55"/><circle cx="513.87" cy="826.39" r="3.54" fill="none" stroke="#262521" stroke-linecap="round" stroke-linejoin="round" stroke-width="1.27" stroke-dasharray="1.27 2.55"/><path fill="none" stroke-dasharray="1.27 2.55" stroke-linecap="round" stroke-linejoin="round" stroke-width="1.27" stroke="#262521" d="M499.66 806.7l-24.49 17.62M500.83 809.19l-25.52 18.67M484.75 789.6l-17.6 21.88M487.92 790.01l-19.25 23.7M465.59 812.84s11 11.33 11.63 21.17M466.82 821.49s5.31 3 5.95 12.69M468.16 784.85l-5.47 10.53M460.17 770.45s9.26-2.86 10.87-2.92 2.27 11 2.14 12.92M465.41 808s14.94-26.3 19.19-28 12.63-3.08 12.63-3.08 1.51 13-1 15.36-26.91 23.91-26.91 23.91"/><path d="M473.44 821.24S498.08 799 502.91 799a34.41 34.41 0 019 1.2s-1.55 8.26-2.71 9.69-32.14 20-32.14 20M490.94 833.49s19.6-16 22.59-15.93 8.65 2.45 8.88 3.93-.81 6.93-1.25 9.62" fill="none" stroke="#262521" stroke-linecap="round" stroke-linejoin="round" stroke-width="1.27" stroke-dasharray="1.27 2.55"/><path d="M553.4 1229.42a.14.14 0 000 .06.14.14 0 010-.06z" fill="#e0e0e0"/><path d="M553.69 1226.85c-.41-.35-.85-.67-1.29-1s-.85-.58-1.29-.84c-.27-2.66-.76-5.16-.76-5.16a74 74 0 00-8.85-5.64c1.26-1.28.57-3.49-.21-4.83a5.85 5.85 0 00-3.13-2.59 52.11 52.11 0 00-.62-9.79c-1.74-.92-5.1-1.44-8-1.72a3.3 3.3 0 00.88-1.42 6.07 6.07 0 00-.22-3.32 2.62 2.62 0 00-2.13-2 5 5 0 00-1.49 0l-.52.06c.89-7.45-.58-17.26-.58-17.26-5.89-.5-12 1-16.61 2.54a6.08 6.08 0 00-.84-2.51 4.44 4.44 0 00-1-1.24 2.93 2.93 0 00-1.87-.51 11.63 11.63 0 00-4.91.92c-.9-3.87-2.06-7.27-2.06-7.27a69.79 69.79 0 00-10.79 1.4 5 5 0 00-.71-2.31 6.11 6.11 0 00-3.17-2 1 1 0 00-1.15.71 1 1 0 00.71 1.15l.18.07.36.16c.24.1.48.22.71.34l.29.17.14.08a.63.63 0 01.12.11.57.57 0 01.08.09l.09.13a1.83 1.83 0 00.13.24l.06.14a4.57 4.57 0 01.16.61v.67c-1.15.26-1.83.45-1.83.45l2.57 67.9 64.57-2.45a7.17 7.17 0 00.5-3.55c.34.25.69.49 1 .76s.35.3.51.46l.26.27.09.12a2.11 2.11 0 01.18.27l.08.14c.05.08 0 .08 0 0s.07.18.09.26 0 .09 0 .13a1 1 0 001.91-.07 4.67 4.67 0 00-1.64-2.87zm-53.08-54.38a8.92 8.92 0 014-1 2.85 2.85 0 011.09 0 1.9 1.9 0 01.65.75 4.28 4.28 0 01.61 2.23 54.37 54.37 0 00-5.76 2.53 29.7 29.7 0 00-.59-4.51zm25.13 18h.41a10.24 10.24 0 011.23-.12h.31l.23.06h.06l.1.06.08.07s.08.12.09.15c-.06-.13 0 .15.06.18.06.2.1.4.15.6s0 .21.08.32.06.32 0 .23a3.39 3.39 0 01.06.64v.29a1.68 1.68 0 000 .18c0 .07 0 .15-.07.23a2.12 2.12 0 01-.11.21l-.16.18h-.09a1.36 1.36 0 01-.25.07.94.94 0 00-.65 1 89.94 89.94 0 00-3.06-.14 12.14 12.14 0 001.53-4.18zm12.26 18.29l.42.23a4.25 4.25 0 011.25 1.34 4.48 4.48 0 01.41.82c.06.16.11.32.16.48s0 .14 0 .21v.05c0 .05 0 0 0 0a3.4 3.4 0 010 .45 1 1 0 010 .17v.1a1.24 1.24 0 010 .16.59.59 0 010 .08v.06l-.16.16a.7.7 0 00-.15.23c-1.71-.91-2.86-1.47-2.86-1.47a8.27 8.27 0 00.93-3.07z" fill="#e0e0e0"/><path d="M485.17 1163.63c-.02-.07-.09-.13 0 0zM600.34 1231.33s3.95-16.29 2.28-22.71a23.47 23.47 0 00-5.23-10 10.21 10.21 0 017 9.15s11.82-3.37 11.71-6.29a22.09 22.09 0 00-1.85-6.69s3.59-4.48 1.42-4.48-8.86 4.09-18.22 1.86c0 0 11.31-3.52 17.64-4s5.37-8.22 2.7-10.29-5.9-3.62-7.19-2.48-4.65 7.36-12.29 10.73c0 0 6.25-11.42 10.37-12.91 0 0-4.34-2-6.25-4s-3.94-.26-5.11-.39-3.74.56-3.62 1.39 1.25 8.89.38 10.18 2.64-3.28-4.45-13.86-19.57-11.87-19.57-11.87 2.61-3.94 3.74-2.65 2.47 3.5 3 3 1-4.72 1-4.72 8 2.54 11.8-1.53-.93-13.49-.93-13.49.5-14.25-4.35-19.09-15.8-1.19-15.8-1.19-13.33-7-17.46.67-1 13.3-1 13.3-2.64-3.26-3.7-3 .18 4.72.18 4.72l-1.09 4.5a26.48 26.48 0 00-8.67-14.89c-7.37-6.18-10.07-6.48-10.07-6.48s4.48-9.31 3.38-10-3.84-2.15-3.84-2.15.2-4-1.24-4-2.51 4.51-14.85 10.18c0 0 8.9-11.58 12.42-13.09s-1.73-2.93-1.73-2.93.39-4-1.63-5.13-6.27.24-6.27.24l-3.55.85a58 58 0 01-1.08 9.36 46.64 46.64 0 01-3.95 9.43s-3-8.53 1.9-16.2c0 0-1.13-1.3-5.7-1.33 0 0-3.1-3.56-5.95-3.06s-3.32 7-3.32 7l-3.47 3.13s9.68 4.72 10.25 10.08c0 0-8.84-9.17-19.61-6.72l1.33 25.52s6.48.66 8.43-.14c0 0 3.92 13.66 19.58 5.72 0 0 9 10.46 19.58-3.86 0 0 13.28 4.94 17.45 15.54l.5 3.67s-3.83-1.57-4.89-1.17-.05 3.41 4.79 3.23c0 0 2.51 5.26 4.45 6.63s6.41.85 6.41.85-1.59 5.36.21 5.51 2.48-5.62 2.48-5.62l4.3-.16s13.82 9.67 15.68 16.25c0 0-11.71 8-4.13 18.64 0 0-6 13 4.41 17.16 0 0-.19 13.89 14.89 9.37 0 0 5.68 3.37 5.14 8.06a10.89 10.89 0 01-3.14 6.87z" fill="#e0e0e0"/><path d="M498.1 1106.15s3.57 13.82-9.87 18.66M529.18 1113.12s-12.37-1.33-18.79 1.71-6.88 10.43-2.58 15.7M507 1107.77s11.19-13.16 11.26-14.89-3.37-4.21-4.57-2.79-6.69 17.68-6.69 17.68zM500.39 1105.09s3.07-11 1.47-12.55-6.92-1-8.53 3.33c-.7 1.87 7.06 9.22 7.06 9.22z" fill="none" stroke="#262521" stroke-linecap="round" stroke-linejoin="round" stroke-width="1.27" stroke-dasharray="1.27 2.55"/><path d="M478.94 1102.14s13-.36 14.81 6.14-2.39 12.47-5.67 12.76-8.69-1-8.58-4 .3-9.88 4.49-9.72 3.62 1.17 3.62 1.17-7.3 3.57-4.29 6.14 5.94-1 5.94-1M542.51 1133.38s-10.3-17.49-19-17.44-14.66 3.89-14.5 8.08 9.15 8.3 13.14.35 20.36 9.01 20.36 9.01z" fill="none" stroke="#262521" stroke-linecap="round" stroke-linejoin="round" stroke-width="1.27" stroke-dasharray="1.27 2.55"/><path d="M523.39 1118.88s-9 .62-9.06 4.11 9.06-4.11 9.06-4.11zM510.23 1110.58l12.55-7.78a8.16 8.16 0 012.19 4.29c.15 2.23.16 4.37.16 4.37zM491.66 1123.18s3.56 10 14.62 5M494.55 1120.61s2.83 7.44 10.49 3.69" fill="none" stroke="#262521" stroke-linecap="round" stroke-linejoin="round" stroke-width="1.27" stroke-dasharray="1.27 2.55"/><circle cx="501.89" cy="1118.98" r="2.23" fill="none" stroke="#262521" stroke-linecap="round" stroke-linejoin="round" stroke-width="1.27" stroke-dasharray="1.27 2.55"/><path d="M499.32 1110s6.74.26 9.4 4.94M550.4 1127.68s6.68-4.31 10.22.84 3.69 8.92 3.69 8.92 12.82-.77 11.6 11.29" fill="none" stroke="#262521" stroke-linecap="round" stroke-linejoin="round" stroke-width="1.27" stroke-dasharray="1.27 2.55"/><path d="M562.14 1139.19s-4-14-10.44-8.26-2.09 21.31-2.09 21.31 23.71 1.75 22.91-4.64-10.38-8.41-10.38-8.41z" fill="none" stroke="#262521" stroke-linecap="round" stroke-linejoin="round" stroke-width="1.27" stroke-dasharray="1.27 2.55"/><path d="M557.93 1138.52s-4.53-8.77-5.9 1.06-.09 10.33 5.75 9.83 12.26-4.51 6.34-6-6.19-4.89-6.19-4.89z" fill="none" stroke="#262521" stroke-linecap="round" stroke-linejoin="round" stroke-width="1.27" stroke-dasharray="1.27 2.55"/><path fill="none" stroke="#262521" stroke-linecap="round" stroke-linejoin="round" stroke-width="1.27" stroke-dasharray="1.27 2.55" d="M555.42 1142.21l.1 2.68 2.65-.1M558.07 1120.66l6.07 15.6 17.35 4.96"/><path fill="none" stroke="#262521" stroke-linecap="round" stroke-linejoin="round" stroke-width="1.27" stroke-dasharray="1.27 2.55" d="M565.87 1129.14l1.54 5.28 6.63 1.67M572.83 1130.83l9.23-11.04M574.97 1120l1.07 6.99 6.3.29M582.66 1135.76s5.52 4.8 4.9 9.25M555.76 1116.37s5.35-1.22 9.1 4.88M571 1158.8s17.22 4.93 17.78 14.94-3.75 14.75-6.81 14.55-10.08-3-1.7-11.91c6.48-6.95-9.27-17.58-9.27-17.58z"/><path d="M584 1171.2s0 6.83-2.17 10.32 5.68 5.13 2.17-10.32z" fill="none" stroke="#262521" stroke-linecap="round" stroke-linejoin="round" stroke-width="1.27" stroke-dasharray="1.27 2.55"/><path d="M593.07 1172.92s-1.57 17.74-7.62 18.69a18.41 18.41 0 01-11.34-2.36M579.77 1207.18s1.44-9.31 11.32-9 8.85 1.67 8.85 1.67" fill="none" stroke="#262521" stroke-linecap="round" stroke-linejoin="round" stroke-width="1.27" stroke-dasharray="1.27 2.55"/><path d="M600.7 1219s2.47-14.27-4-15.81-15.94.24-14.2 6.18 12.06 1.52 12.06 1.52" fill="none" stroke="#262521" stroke-linecap="round" stroke-linejoin="round" stroke-width="1.27" stroke-dasharray="1.27 2.55"/><path d="M591.62 1208.05s-6.31 3.29-4.82.18 6.69-3.48 8.78-.33 2.88 13.4 2.88 13.4M576.09 1190.24s-2 9.51 4.34 13.75" fill="none" stroke="#262521" stroke-linecap="round" stroke-linejoin="round" stroke-width="1.27" stroke-dasharray="1.27 2.55"/><circle cx="587.47" cy="1194.87" r="1.9" fill="none" stroke="#262521" stroke-linecap="round" stroke-linejoin="round" stroke-width="1.27" stroke-dasharray="1.27 2.55"/><path d="M580 1191.91s-2.6 3.77 2.17 9M593.59 1186.46l9.35-11.48s-3.48-3.1-3.33-3.1-3 .91-3 .91zM596 1189.49s13.95-10.27 15.59-9.62 3.8.73 3.82 1.45-2.35 4-3.77 4.45-15.64 3.72-15.64 3.72zM598.78 1194.44s10 .86 11.21.86-.22 3.81-1.09 4.56-10.12-5.42-10.12-5.42zM589.34 1188s5.58 1.07 4.67 9.54M501.89 1177.74l-14.23 26.78M522.86 1196.13l-27.58 22.39M536.02 1212.13l-29.84 19.79" fill="none" stroke="#262521" stroke-linecap="round" stroke-linejoin="round" stroke-width="1.27" stroke-dasharray="1.27 2.55"/><circle cx="490.17" cy="1177.24" r="3.54" fill="none" stroke="#262521" stroke-linecap="round" stroke-linejoin="round" stroke-width="1.27" stroke-dasharray="1.27 2.55"/><circle cx="511.44" cy="1186.56" r="3.54" fill="none" stroke="#262521" stroke-linecap="round" stroke-linejoin="round" stroke-width="1.27" stroke-dasharray="1.27 2.55"/><circle cx="526.85" cy="1206.65" r="3.54" fill="none" stroke="#262521" stroke-linecap="round" stroke-linejoin="round" stroke-width="1.27" stroke-dasharray="1.27 2.55"/><circle cx="537.52" cy="1226.48" r="3.54" fill="none" stroke="#262521" stroke-linecap="round" stroke-linejoin="round" stroke-width="1.27" stroke-dasharray="1.27 2.55"/><path fill="none" stroke-dasharray="1.27 2.55" stroke-linecap="round" stroke-linejoin="round" stroke-width="1.27" stroke="#262521" d="M523.31 1206.79l-24.49 17.62M524.47 1209.28l-25.51 18.66M508.4 1189.69l-17.6 21.88M511.57 1190.1l-19.25 23.69M489.24 1212.92s11 11.33 11.63 21.17M490.46 1221.58s5.32 3 6 12.68M491.81 1184.94l-5.47 10.53M483.82 1170.54s9.26-2.87 10.87-2.93 2.27 11 2.13 12.92M489.06 1208.09s14.94-26.3 19.19-28 12.63-3.08 12.63-3.08 1.51 13-1 15.36-26.9 23.9-26.9 23.9"/><path d="M497.09 1221.32s24.64-22.2 29.47-22.24a34.41 34.41 0 019 1.2s-1.55 8.26-2.72 9.69-32.14 20-32.14 20M514.59 1233.57s19.6-16 22.59-15.93 8.65 2.46 8.88 3.93-.81 6.94-1.25 9.62" fill="none" stroke="#262521" stroke-linecap="round" stroke-linejoin="round" stroke-width="1.27" stroke-dasharray="1.27 2.55"/><path d="M245.12 1122v.06zM245.59 1119.41c-.39-.38-.8-.72-1.22-1.07a13.57 13.57 0 00-1.23-.92c-.09-2.68-.4-5.2-.4-5.2a74.37 74.37 0 00-8.45-6.23c1.35-1.19.81-3.45.12-4.84a5.73 5.73 0 00-2.95-2.79 51.87 51.87 0 000-9.81c-1.67-1-5-1.79-7.88-2.26a3.6 3.6 0 001-1.37 6 6 0 000-3.32 2.63 2.63 0 00-2-2.18 5.26 5.26 0 00-1.48-.12h-.53c1.4-7.37.61-17.26.61-17.26-5.85-.9-12 .15-16.75 1.4a6.23 6.23 0 00-.66-2.56 4.44 4.44 0 00-1-1.3 2.93 2.93 0 00-1.77-.58 11.59 11.59 0 00-5 .58c-.63-3.92-1.56-7.4-1.56-7.4-3.95-.12-8.14 0-8.14 0l3.41 69.55 52.63 1.6a7.16 7.16 0 00.74-3.51c.32.27.65.54 1 .83.16.16.32.32.47.49l.24.29.08.13.17.28.06.14c0 .09 0 .09 0 0s.06.19.08.27a.69.69 0 000 .13 1 1 0 101.91 0 4.68 4.68 0 00-1.5-2.97zm-49.24-57.88a8.89 8.89 0 014.06-.69 3 3 0 011.08.12 2 2 0 01.61.8 4.34 4.34 0 01.45 2.26 52.67 52.67 0 00-5.92 2.14 30.36 30.36 0 00-.28-4.63zm23.83 19.7a3 3 0 00.42 0 10.1 10.1 0 011.23 0h.31l.22.07h.06l.1.07.07.07.09.15c-.06-.13 0 .16 0 .19 0 .2.08.41.11.61a3.06 3.06 0 010 .32v.23a4.71 4.71 0 010 .65 2.58 2.58 0 010 .29v.17a2.09 2.09 0 01-.08.23l-.13.2-.17.16h-.36a.93.93 0 00-.71 1c-1.78-.24-3.05-.35-3.05-.35a12.07 12.07 0 001.89-4.06zm10.95 19.06a4.4 4.4 0 01.39.26 4.75 4.75 0 011.51 2.26c.05.16.09.33.13.49a1.7 1.7 0 000 .22 3.38 3.38 0 010 .45.88.88 0 010 .16.44.44 0 010 .1l-.06.16v.08l-.06.06-.17.14a.81.81 0 00-.17.23c-1.64-1-2.75-1.67-2.75-1.67a8.22 8.22 0 001.18-2.94zM273.44 1106.55c.77-2.11 12.34-44.57 12.16-44.89-6.35-11-18.72-13.17-18.72-13.17s2.87-3.76 3.91-2.39 2.23 3.66 2.83 3.18 1.31-4.64 1.31-4.64 7.84 3.08 11.87-.72 0-13.53 0-13.53 1.47-14.18-3-19.34-15.68-2.26-15.68-2.26-12.82-7.91-17.47-.53-2 13.2-2 13.2-2.41-3.43-3.49-3.22-.16 4.76-.16 4.76l-1.39 4.41a26.49 26.49 0 00-7.64-15.44c-6.93-6.67-9.61-7.15-9.61-7.15s5.12-9 4.06-9.72-3.69-2.41-3.69-2.41.47-4-1-4.09-2.82 4.32-15.52 9.14c0 0 9.67-11 13.29-12.21s-1.53-3-1.53-3 .66-3.91-1.27-5.22-6.27-.19-6.27-.19l-3.61.6a57.85 57.85 0 01-1.71 9.27 46.77 46.77 0 01-4.58 9.13s-2.43-8.71 3-16c0 0-1-1.37-5.59-1.72 0 0-2.85-3.76-5.72-3.45s-3.79 6.71-3.79 6.71l-3.68 2.89s9.34 5.37 9.53 10.75a26.37 26.37 0 00-11.86-7.59v25.69a4.18 4.18 0 00.74-.15s3 13.9 19.15 7c0 0 8.27 11.05 19.8-2.52 0 0 12.91 5.84 16.35 16.71l.25 3.69s-3.71-1.83-4.8-1.5-.28 3.4 4.55 3.54c0 0 2.15 5.43 4 6.93s6.33 1.28 6.33 1.28-2 5.24-.16 5.51 2.85-5.43 2.85-5.43l4.3.13s13.13 10.59 14.54 17.28c0 0-12.23 7.17-5.4 18.32 0 0-6.84 12.56 3.23 17.42a27.61 27.61 0 001.29 4.94z" fill="#e0e0e0"/><path d="M198.36 995.19s2.62 14-11.12 17.95M228.9 1004.27s-12.26-2.17-18.86.42-7.58 9.94-3.65 15.49M207.08 997.42s12.07-12.37 12.26-14.09-3.08-4.43-4.37-3.1-7.89 17.19-7.89 17.19zM200.72 994.3s3.82-10.77 2.33-12.43-6.84-1.45-8.74 2.74c-.82 1.82 6.41 9.69 6.41 9.69zM185.86 1000.77c2.82 2.77 6-.63 6-.63" fill="none" stroke="#262521" stroke-linecap="round" stroke-linejoin="round" stroke-width="1.27" stroke-dasharray="1.27 2.55"/><path d="M187.78 990.89a9.83 9.83 0 016.1 6.13c2.16 6.39-3.23 12.28-6.52 12.35M240.82 1025.39s-9.08-18.15-17.72-18.69-14.89 2.88-15 7.08 8.55 8.9 13.08 1.24 19.64 10.37 19.64 10.37z" fill="none" stroke="#262521" stroke-linecap="round" stroke-linejoin="round" stroke-width="1.27" stroke-dasharray="1.27 2.55"/><path d="M222.73 1009.62s-9.07 0-9.32 3.49 9.32-3.49 9.32-3.49zM210.17 1000.44l13.05-6.91a8.14 8.14 0 011.89 4.44c0 2.23-.13 4.36-.13 4.36zM190.78 1011.75s2.87 10.21 14.24 6M193.84 1009.38s2.31 7.62 10.21 4.39" fill="none" stroke="#262521" stroke-linecap="round" stroke-linejoin="round" stroke-width="1.27" stroke-dasharray="1.27 2.55"/><circle cx="201.28" cy="1008.26" r="2.23" fill="none" stroke="#262521" stroke-linecap="round" stroke-linejoin="round" stroke-width="1.27" stroke-dasharray="1.27 2.55"/><path d="M199.32 999.07s6.71.72 9 5.57M249.07 1020.25s7-3.84 10.15 1.53 3.07 9.15 3.07 9.15 12.84.11 10.8 12" fill="none" stroke="#262521" stroke-linecap="round" stroke-linejoin="round" stroke-width="1.27" stroke-dasharray="1.27 2.55"/><path d="M260 1032.53s-3.07-14.19-9.85-8.95-3.55 21.11-3.55 21.11 23.54 3.37 23.17-3.06-9.77-9.1-9.77-9.1z" fill="none" stroke="#262521" stroke-linecap="round" stroke-linejoin="round" stroke-width="1.27" stroke-dasharray="1.27 2.55"/><path d="M255.85 1031.57s-3.92-9-6 .66-.8 10.3 5.07 10.2 12.54-3.67 6.73-5.52-5.8-5.34-5.8-5.34z" fill="none" stroke="#262521" stroke-linecap="round" stroke-linejoin="round" stroke-width="1.27" stroke-dasharray="1.27 2.55"/><path fill="none" stroke="#262521" stroke-linecap="round" stroke-linejoin="round" stroke-width="1.27" stroke-dasharray="1.27 2.55" d="M253.09 1035.09l-.08 2.68 2.65.08M257.21 1013.76l4.99 15.98 16.97 6.14"/><path fill="none" stroke="#262521" stroke-linecap="round" stroke-linejoin="round" stroke-width="1.27" stroke-dasharray="1.27 2.55" d="M264.41 1022.76l1.18 5.37 6.49 2.12M271.24 1024.91l9.96-10.38M274.12 1014.26l.58 7.04 6.27.72M280.71 1030.51s5.18 5.17 4.25 9.56M255.2 1009.33s5.42-.86 8.75 5.48M276.39 1082.86c-3-.4-9.85-3.66-.88-12 7-6.49-8.06-18.18-8.06-18.18s16.85 6.1 16.72 16.13"/><path d="M279.64 1066s-.44 6.81-2.87 10.15 5.31 5.47 2.87-10.15zM279.68 1086.42a18.36 18.36 0 01-11.15-3.13M273 1101.56a11.48 11.48 0 011.18-2.85M270.44 1084.42s-2.68 9.34 3.39 14M274.2 1086.35s-2.85 3.58 1.54 9.09M197.27 1066.88l-8.92 14.32M216.92 1086.66l-27.27 19.22M228.96 1103.52l-31.12 17.7M186.21 1062.05a3.54 3.54 0 01-.21 7.07" fill="none" stroke="#262521" stroke-linecap="round" stroke-linejoin="round" stroke-width="1.27" stroke-dasharray="1.27 2.55"/><circle cx="206.19" cy="1076.33" r="3.54" fill="none" stroke="#262521" stroke-linecap="round" stroke-linejoin="round" stroke-width="1.27" stroke-dasharray="1.27 2.55"/><circle cx="220.19" cy="1097.43" r="3.54" fill="none" stroke="#262521" stroke-linecap="round" stroke-linejoin="round" stroke-width="1.27" stroke-dasharray="1.27 2.55"/><circle cx="229.48" cy="1117.94" r="3.54" fill="none" stroke="#262521" stroke-linecap="round" stroke-linejoin="round" stroke-width="1.27" stroke-dasharray="1.27 2.55"/><path fill="none" stroke-dasharray="1.27 2.55" stroke-linecap="round" stroke-linejoin="round" stroke-width="1.27" stroke="#262521" d="M216.65 1097.32l-25.63 15.91M217.64 1099.88l-26.73 16.88M202.94 1079.24l-13.53 14.65M206.08 1079.87l-17.44 18.7M189.82 1113.08a24.67 24.67 0 012.58 10M186.71 1056.92a17.27 17.27 0 014.06-.64c1.62 0 1.51 11.17 1.25 13M188.6 1087.76s10.49-16.7 14.84-18.09 12.81-2.21 12.81-2.21.62 13.07-2 15.25-25 19.35-25 19.35M189.5 1110s26.1-20.47 30.92-20.18a34.36 34.36 0 018.9 1.81s-2.1 8.13-3.37 9.49-33.43 17.76-33.43 17.76M209.73 1120.94s17-12.12 20-11.84 8.45 3 8.59 4.52-1.29 6.87-1.9 9.51M469.81 878.5s2.82-1.62 4-.19-3.72 6.59-3.72 6.59M471.91 894.92l7.4 4.08M474.71 892.81s10.73-14.68 23.15-12.79 8.75 14.2 5.8 14.83-9-5.23-13.76-5-15.19 2.96-15.19 2.96z"/><path d="M488.42 886s11-2.31 13.8 1.25-13.8-1.25-13.8-1.25zM471 903.1s12.29 4.33 12.87 16.14-3.67 23.34-13.48 30.76M484.96 904.39l4.86 10.61.88-8.67-5.74-1.94zM490.34 925.58s1.26 15.47-19.06 31.25M469.79 907.59a10.16 10.16 0 013.13 8.23" fill="none" stroke="#262521" stroke-linecap="round" stroke-linejoin="round" stroke-width="1.27" stroke-dasharray="1.27 2.55"/><path d="M470.19 916s7.74 1.84 6.89 5.09-7.19 7.25-7.19 7.25M469.6 922.15l4.42-.22M472 926.79s5.87 12 .83 14.8M503.2 901.53s5.63-6.38 8.8-7M481.63 946.83s2.93 27.35 23.73 34.23M488.18 954.26s2.15 21.86 20.43 22.7M477.65 953.56s11.14 31 17.52 30.71 1.53 6.33 1.53 6.33-9.49-10.38-14.44-19.51a158.8 158.8 0 00-8.65-14.38M471.54 962.24s20.6 27.84 20.52 30.31M471.7 972.83l17.69 22.81" fill="none" stroke="#262521" stroke-linecap="round" stroke-linejoin="round" stroke-width="1.27" stroke-dasharray="1.27 2.55"/><circle cx="480.64" cy="1002.94" r="4.65" fill="none" stroke="#262521" stroke-linecap="round" stroke-linejoin="round" stroke-width="1.27" stroke-dasharray="1.27 2.55"/><path fill="none" stroke-dasharray="1.27 2.55" stroke-linecap="round" stroke-linejoin="round" stroke-width="1.27" stroke="#262521" d="M480.64 1002.94l2.4-.12M474.1 996.38s6.86-4.77 9.86-1.46 6.74 9.16 4.18 12.31-8 7.1-11.81 2.85-6.33-9.08-4.27-11.38zM471.28 982.71l6.29 8.82M470.59 985.71l4.96 8.3M492.55 930.16s6.7-24.24 19.82-28.09 28.66 1.33 29.68 12.12 2.25 15.92-3.28 13.72l-5.53-2.19s4.11-1.68 3.25-4.11-8.3-3.54-8.52 2.14 2.74 10.72 9.61 10.14 14.06-10 11.14-19.53c0 0 8.71-2.39 8.66-6.33"/><path d="M537.75 916.93c-.62-7.55-9.43-6.26-9.43-6.26s-12.81-10.44-18.52 4.24c0 0-10.83 1.37-8.3 15.06 0 0-9.91.52-8.47 10.17s11.87 29.34 27.36 28.58c22-1.06 29.33-18.36 25.32-24.85s-10 .34-10 .34 4.72 7.54-5.52 4.83.74-15.32 7.4-15.15 15.66 7.62 12.27 19.12c0 0 14.09-3.27 16.74 8.32" fill="none" stroke="#262521" stroke-linecap="round" stroke-linejoin="round" stroke-width="1.27" stroke-dasharray="1.27 2.55"/><path d="M534.77 949.56s5.74 3.91-6.82 9.94-18.31-7.5-18.31-7.5c-22.57-8.28-.52-22.66-.52-22.66-.06-13.8 13.62-11.69 13.62-11.69 2.57-3 8.12-.39 8.12-.39M528 923.75s-25.86 11.84-2 20.55M529.25 929.87s-15 5.44.39 8M520.9 921.63s-6.58.32-6.82 5.51" fill="none" stroke="#262521" stroke-linecap="round" stroke-linejoin="round" stroke-width="1.27" stroke-dasharray="1.27 2.55"/><path d="M513.7 929.38s-11.81 6.08-3.94 13.17c0 0-.67 10.17 9.11 10.22s8.5-5.1 8.5-5.1M514.82 942.31s3.38 8.3 7.27 5.15M518.2 956s3.67 4.75 9.51-1.94M517.11 916.65s4.37-7.25 5.63 1M542.73 931.85s37.53-15.39 38.74-24.44c0 0 22.7 23.46 34.88 24.52" fill="none" stroke="#262521" stroke-linecap="round" stroke-linejoin="round" stroke-width="1.27" stroke-dasharray="1.27 2.55"/><path d="M615.3 925.69s-30.88-19.12-34-27.83c0 0-11.7 19.86-31.87 25.93M550.73 919s15.44-11.84 15.25-15.88" fill="none" stroke="#262521" stroke-linecap="round" stroke-linejoin="round" stroke-width="1.27" stroke-dasharray="1.27 2.55"/><path d="M574.81 906.5s-11.91-11.36-14.5-12.14.28-6.75 8.75-4.91c0 0 9.55-10.05 13.28-10.23s8.57 9.92 8.57 9.92 7.62-3.52 13.05 3.4l-13.59 13.2M598.11 907.8s9.1 11.57 15.1 11.94" fill="none" stroke="#262521" stroke-linecap="round" stroke-linejoin="round" stroke-width="1.27" stroke-dasharray="1.27 2.55"/><path d="M609.16 913.46a6.13 6.13 0 015.85 6.19c.29 6-.22 14 6 13.33s10.94.14 10.47-6.58-5.84-9.3-7.13-4.9-5-3.23.32-8.79 13.68-8.33 20.51-3.21a66.4 66.4 0 013.53 2.86" fill="none" stroke="#262521" stroke-linecap="round" stroke-linejoin="round" stroke-width="1.27" stroke-dasharray="1.27 2.55"/><path d="M647.65 904.36c-2.86-1.8-5.62-3.15-7.48-3.18-5.7-.08-20.16 4.23-20.72 14.43s2 13.81 6.66 10.6M550.45 944.89s28.68-14.94 29.93-18.75c0 0 23.31 17.89 30.26 17.65" fill="none" stroke="#262521" stroke-linecap="round" stroke-linejoin="round" stroke-width="1.27" stroke-dasharray="1.27 2.55"/><ellipse cx="553.57" cy="937.85" rx="3.45" ry="5.11" transform="rotate(-2.78 553.325 937.323)" fill="none" stroke-dasharray="1.27 2.55" stroke-linecap="round" stroke-linejoin="round" stroke-width="1.27" stroke="#262521"/><ellipse cx="562.84" cy="932.25" rx="3.45" ry="5.11" transform="rotate(-2.78 562.532 931.773)" fill="none" stroke-dasharray="1.27 2.55" stroke-linecap="round" stroke-linejoin="round" stroke-width="1.27" stroke="#262521"/><ellipse cx="573.05" cy="926.5" rx="3.45" ry="5.11" transform="rotate(-2.78 572.774 926.042)" fill="none" stroke-dasharray="1.27 2.55" stroke-linecap="round" stroke-linejoin="round" stroke-width="1.27" stroke="#262521"/><ellipse cx="589.4" cy="926.95" rx="3.45" ry="5.11" transform="rotate(-2.78 589.052 926.437)" fill="none" stroke-dasharray="1.27 2.55" stroke-linecap="round" stroke-linejoin="round" stroke-width="1.27" stroke="#262521"/><ellipse cx="599.38" cy="934.03" rx="3.45" ry="5.11" transform="rotate(-2.78 599.185 933.693)" fill="none" stroke-dasharray="1.27 2.55" stroke-linecap="round" stroke-linejoin="round" stroke-width="1.27" stroke="#262521"/><ellipse cx="608.15" cy="938.72" rx="3.45" ry="5.11" transform="rotate(-2.78 607.941 938.235)" fill="none" stroke-dasharray="1.27 2.55" stroke-linecap="round" stroke-linejoin="round" stroke-width="1.27" stroke="#262521"/><path fill="none" stroke="#262521" stroke-linecap="round" stroke-linejoin="round" stroke-width="1.27" stroke-dasharray="1.27 2.55" d="M580.38 926.14l-1.99-7.3 3.58-2.17 1.95 3.73-3.54 5.74zM629 937.7c13.92-4.05 2.49-11.3 2.49-11.3M631.93 923.64s22.18 8.37-1.7 19.2"/><path d="M629.12 919.89s17-5.27 17.64 8.71c0 0 5.56 10.91-2 13.53 0 0-.26 14.33-16.73 5.37M654.82 1006.32l-24.59 33.74M653.61 966.5c-2.15 7.2-3.06 16 1 23.92" fill="none" stroke="#262521" stroke-linecap="round" stroke-linejoin="round" stroke-width="1.27" stroke-dasharray="1.27 2.55"/><path d="M623.37 939.58s-3.9 8.34.4 8.13 9.44-7.46 2.22-13.37-16.34 4.37-15.35 9.45 8.81 28.37 22.45 28.43c7.31 0 14.59-5.79 19.77-11.19" fill="none" stroke="#262521" stroke-linecap="round" stroke-linejoin="round" stroke-width="1.27" stroke-dasharray="1.27 2.55"/><path d="M652 949.84c-1.47.67-3.52.83-6.37.22 0 0-.53 11.29-8.73 10.73s-7.23-10-7.23-10-6.89 9.31-7.75-4.27M634 918s2.46-10 8.39-6.12 4.15 6.52 4.15 6.52M582.26 946.14s-10.68-8.93-10.27-.48 11.49 21.75 11.49 21.75 12.27-15.39 8.37-21.66-9.59.39-9.59.39z" fill="none" stroke="#262521" stroke-linecap="round" stroke-linejoin="round" stroke-width="1.27" stroke-dasharray="1.27 2.55"/><path fill="none" stroke="#262521" stroke-linecap="round" stroke-linejoin="round" stroke-width="1.27" stroke-dasharray="1.27 2.55" d="M579.83 948.6l-2.11 3.06 6.33 7.89 3.07-8.34M612.28 952.6s-13-2.07-13.38 10.09M599 964.91s-13.73 6.76-10.45 15.69a49.7 49.7 0 007.59 14s-3.93 14.78 10.45 16.72M622.86 966.24s-19.19 8.3-17.65 16.75 20.56 15.9 20.56 15.9"/><path d="M629.21 971.1s-14.85 4.11-14.15 11.41 8.55 11.23 13.92 8.57 23.17-18 23.17-18M625 982.54s20.62-5.47 26.83-16.49" fill="none" stroke="#262521" stroke-linecap="round" stroke-linejoin="round" stroke-width="1.27" stroke-dasharray="1.27 2.55"/><circle cx="607.82" cy="962.06" r="3.66" fill="none" stroke="#262521" stroke-linecap="round" stroke-linejoin="round" stroke-width="1.27" stroke-dasharray="1.27 2.55"/><circle cx="598.08" cy="978.53" r="3.66" fill="none" stroke="#262521" stroke-linecap="round" stroke-linejoin="round" stroke-width="1.27" stroke-dasharray="1.27 2.55"/><circle cx="604.37" cy="999.93" r="3.66" fill="none" stroke="#262521" stroke-linecap="round" stroke-linejoin="round" stroke-width="1.27" stroke-dasharray="1.27 2.55"/><path fill="none" stroke-dasharray="1.27 2.55" stroke-linecap="round" stroke-linejoin="round" stroke-width="1.27" stroke="#262521" d="M613.51 992.5l-5.48 7.25M610.66 990.42l-3.92 5.73M605.21 982.99l-4.41-2M605.06 980.78l-3.32-2.43M612.47 971.05l-4.48-5.33M614.49 970.77l-2.86-6.47M597.68 970.11s6.9.77 5.48 4.51M594.77 985.84s3.22 3.58 6.49 1.41M598.88 994.93s.83-3.49 5.38-2.65M606.37 1007.73s7.51-4.91 6.93-8.23M602.25 966.5s-1.58 1.81 4.32 3.18M651.8 977.22s-24.08 22.29-30.85 25.85-16.54 12.41-16.54 12.41"/><circle cx="616.87" cy="1019.82" r="3.66" fill="none" stroke="#262521" stroke-linecap="round" stroke-linejoin="round" stroke-width="1.27" stroke-dasharray="1.27 2.55"/><circle cx="626.57" cy="1042.63" r="3.66" fill="none" stroke="#262521" stroke-linecap="round" stroke-linejoin="round" stroke-width="1.27" stroke-dasharray="1.27 2.55"/><circle cx="641.82" cy="1053.62" r="3.66" fill="none" stroke="#262521" stroke-linecap="round" stroke-linejoin="round" stroke-width="1.27" stroke-dasharray="1.27 2.55"/><circle cx="655.32" cy="1071.62" r="3.66" fill="none" stroke="#262521" stroke-linecap="round" stroke-linejoin="round" stroke-width="1.27" stroke-dasharray="1.27 2.55"/><path fill="none" stroke-dasharray="1.27 2.55" stroke-linecap="round" stroke-linejoin="round" stroke-width="1.27" stroke="#262521" d="M652.2 985.44l-31.85 30.54M652.86 987.71l-32.34 31.93M655.21 993.8l-39.03 39.05M655.21 1001.13l-25.2 34.4M656.8 1012.13s-16.07 30.93-25.83 45.68M657.54 1023.48l-13.86 26.98M658.55 1028.17l-12.86 23.1M657.56 1042.09S644 1065.86 642.47 1067"/><path d="M654.37 1055.64s-19.16 34.18-24.06 36.81-7.21 5.08-11.92.58-2.22-12-2.22-12M648.46 1072s1.32 12.2 8.12 10.89M624.14 1034.3s-6 0-4.78 5-1.17 12 2.71 12.19 10.16 1.53 10.77-5.51" fill="none" stroke="#262521" stroke-linecap="round" stroke-linejoin="round" stroke-width="1.27" stroke-dasharray="1.27 2.55"/><path d="M650.94 981.28s-39.35 30.91-42.49 35.28-7.69 15.12-7.15 28.26.8 33.08 9.32 31.3" fill="none" stroke="#262521" stroke-linecap="round" stroke-linejoin="round" stroke-width="1.27" stroke-dasharray="1.27 2.55"/><path d="M284.45 840.51v-12.06c-4.2-5.35-10.92-8.27-10.92-8.27l9.68-3.94v-56.73c-3.36 1-6.77 3-7.75 7.09 0 0 6.82 6 .29 16.26 0 0-2.62-6.68-7.55-6.75l-1.1 8.89s-8.07-23.74-29.53-20.81l.8-5.16-5.69 2.14s2.07-26.57-30.87-12.21c0 0-3.48-9.89-13.2-9.3L187 811.89l.44 68.93 16.06 2 2.8-16.41s14.68-2.3 15.23-14.83c0 0 10.88-3.26 8-6.82s-10.28-3-10.28-3-16.59-9.36-14.48-21.61 4.94 1.63 4.94 1.63 8.12 18.91 27.16 21.64 28.4-14.92 28.4-14.92 16-2.28 14.2 13.11a12.87 12.87 0 004.98-1.1zm-74.63-49.38l-1.07-6.91 5.26-7-6.01-7.78-5 2.89-3.76-4.73s8.06-4.33 8.8-4.32 6 10.67 13.18 9.28c-.01 0-10.93 14.44-11.4 18.57z" fill="#e0e0e0"/><path d="M191 746.56s2.92-1.44 4 .05-4.12 6.35-4.12 6.35M192.09 763.08l7.14 4.52M195 761.14s11.62-14 23.9-11.35 7.86 14.71 4.88 15.17-8.69-5.78-13.43-5.84-15.35 2.02-15.35 2.02z" fill="none" stroke="#262521" stroke-linecap="round" stroke-linejoin="round" stroke-width="1.27" stroke-dasharray="1.27 2.55"/><path d="M209.12 755.17s11.15-1.64 13.7 2.09-13.7-2.09-13.7-2.09zM190.69 771.19s12 5.07 11.85 16.89-5.09 23.08-15.34 29.85M204.54 773.33l4.21 10.89 1.4-8.6-5.61-2.29zM208.61 794.81s.32 15.52-20.93 30M189.2 775.6a10.17 10.17 0 012.63 8.41" fill="none" stroke="#262521" stroke-linecap="round" stroke-linejoin="round" stroke-width="1.27" stroke-dasharray="1.27 2.55"/><path d="M189.09 784s7.62 2.31 6.56 5.5-7.61 6.8-7.61 6.8M188.12 790.11l4.43.06M190.27 794.89s5.13 12.31-.07 14.83M222.92 771.6s6-6 9.22-6.51M198.62 815.49s1.25 27.48 21.59 35.62M204.7 823.3s.81 22 19 23.91M194.24 822s9.22 31.64 15.61 31.72 1.15 6.38 1.15 6.38-8.84-11-13.22-20.36a157.89 157.89 0 00-7.78-14.88M187.61 830.25s18.85 29 18.62 31.51M187.12 840.83l16.26 23.85" fill="none" stroke="#262521" stroke-linecap="round" stroke-linejoin="round" stroke-width="1.27" stroke-dasharray="1.27 2.55"/><circle cx="194.2" cy="871.43" r="4.65" fill="none" stroke="#262521" stroke-linecap="round" stroke-linejoin="round" stroke-width="1.27" stroke-dasharray="1.27 2.55"/><path fill="none" stroke-dasharray="1.27 2.55" stroke-linecap="round" stroke-linejoin="round" stroke-width="1.27" stroke="#262521" d="M194.2 871.43l2.4.03M188.07 864.49s7.14-4.35 9.93-.86 6.17 9.56 3.42 12.54-8.44 6.6-12 2.12M187.12 852.31l4.71 7.55M187.44 857.91l2.22 4.3M210.54 799.51s8.17-23.78 21.5-26.81 28.53 3.07 28.89 13.91 1.27 16-4.12 13.49l-5.38-2.53s4.2-1.42 3.49-3.89-8.07-4-8.63 1.61 2.07 10.86 9 10.7 14.65-9.17 12.31-18.8c0 0 8.84-1.85 9-5.79"/><path d="M256.46 789.08c-.15-7.57-9-6.83-9-6.83s-12.15-11.2-18.75 3.1c0 0-10.89.71-9.2 14.52 0 0-9.93-.09-9.08 9.63s10.05 30 25.56 30.21c22 .28 30.4-16.53 26.79-23.25s-10-.28-10-.28S257 824 247 820.66s1.67-15.24 8.31-14.67 15.16 8.57 11.08 19.85c0 0 14.25-2.41 16.2 9.32" fill="none" stroke="#262521" stroke-linecap="round" stroke-linejoin="round" stroke-width="1.27" stroke-dasharray="1.27 2.55"/><path d="M251.49 821.46s5.49 4.26-7.42 9.51-17.81-8.6-17.81-8.6c-22-9.64.87-22.65.87-22.65.78-13.78 14.31-10.83 14.31-10.83 2.75-2.86 8.13.1 8.13.1M246.29 795.29s-26.54 10.24-3.25 20.39M247.19 801.47s-15.32 4.51-.1 8M239.36 792.74s-6.59-.09-7.15 5.08" fill="none" stroke="#262521" stroke-linecap="round" stroke-linejoin="round" stroke-width="1.27" stroke-dasharray="1.27 2.55"/><path d="M231.69 800s-12.16 5.35-4.73 12.91c0 0-1.29 10.11 8.46 10.75s8.8-4.57 8.8-4.57M232 813s2.87 8.5 6.95 5.59M234.56 826.91s3.37 5 9.61-1.36M235.88 787.53s4.8-7 5.56 1.36M260.52 804.28s11.19-3.81 21.76-8.72M282 790.63a48.31 48.31 0 01-14.26 6M269.29 791.89a119.29 119.29 0 0012.39-9.63M282.54 769.45a9.78 9.78 0 00-2.17-1.52c-1.58-.58-.92-3.06 1.84-4.26M267.43 817.76s7.11-3.16 14.53-6.83" fill="none" stroke="#262521" stroke-linecap="round" stroke-linejoin="round" stroke-width="1.27" stroke-dasharray="1.27 2.55"/><ellipse cx="270.97" cy="810.93" rx="5.11" ry="3.45" transform="rotate(-89.27 270.965 810.929)" fill="none" stroke-dasharray="1.27 2.55" stroke-linecap="round" stroke-linejoin="round" stroke-width="1.27" stroke="#262521"/><path d="M280.5 811c-1.9 0-3.42-2.33-3.38-5.15s2.65-5.1 4.56-5.07M701.57 765.85s6.75-.82 9.5 8.08M713.07 777.14a39.3 39.3 0 014.49-1.65M718.41 782.5c-1.4-1-3.71-1.94-6.87 0M719 789.06c.15 2.62-2.8-6.58-7.07 0M708.5 809.7s10.11 23.31 13.92 22.87M722.33 825.22c-5.76 1-.37-6.83-.37-6.83s-3.6-5.88-7.22-10.71 4.53-6.94 4.53-6.94a7.59 7.59 0 01-5.31-7.37c-.05-3.49 2.94-1.77 5.44.27M723.34 843.69c-.19.53-.43 1.12-.7 1.76-4.17 10-16.2 33.34-16.2 33.34s14.13 13.54 20.82 21.5" fill="none" stroke="#262521" stroke-linecap="round" stroke-linejoin="round" stroke-width="1.27" stroke-dasharray="1.27 2.55"/><path d="M723.41 853.66c-.61 1.27-1.19 2.65-1.73 4.14-5.3 14.65-7.53 17.64-7.53 17.64s5.85 8.67 11.62 16.56M695.93 826.71s19.55 20.72 26.38 19.54M719.78 851.86c-7.87.86-24.45-18-24.45-18l-3.7 6.18s22.49 14.26 26.86 14.54M684.2 839.75l32.51 18.55M677.81 864.95l35.81.83" fill="none" stroke="#262521" stroke-linecap="round" stroke-linejoin="round" stroke-width="1.27" stroke-dasharray="1.27 2.55"/><circle cx="682.02" cy="852.54" r="4.05" fill="none" stroke="#262521" stroke-linecap="round" stroke-linejoin="round" stroke-width="1.27" stroke-dasharray="1.27 2.55"/><circle cx="675.37" cy="879.43" r="4.05" fill="none" stroke="#262521" stroke-linecap="round" stroke-linejoin="round" stroke-width="1.27" stroke-dasharray="1.27 2.55"/><circle cx="687.76" cy="904.74" r="4.05" fill="none" stroke="#262521" stroke-linecap="round" stroke-linejoin="round" stroke-width="1.27" stroke-dasharray="1.27 2.55"/><path fill="none" stroke-dasharray="1.27 2.55" stroke-linecap="round" stroke-linejoin="round" stroke-width="1.27" stroke="#262521" d="M679.45 894.82l34.78-8.37M706.44 878.79l-27.02.42M680.66 875.69l25.63.33M686.07 852.32l27.4 10.67-27.23-7.56"/><path d="M690 849.6s-5.76-5-9.55-4.1-6.69 4.36-6.53 7.48 2.24 10.31 8.61 8.7M679 872.1s-9.66-1.62-10.35 3.2c0 0-5.57 7.6-1 8.61 0 0 9.5 11.62 16-.88M691.66 901.8l25.6-12.29" fill="none" stroke="#262521" stroke-linecap="round" stroke-linejoin="round" stroke-width="1.27" stroke-dasharray="1.27 2.55"/><path d="M666.89 868.94s-5.78 8.11-6.08 11.29 7.53 15.19 7.53 15.19" fill="none" stroke="#262521" stroke-linecap="round" stroke-linejoin="round" stroke-width="1.27" stroke-dasharray="1.27 2.55"/><path d="M663.54 869.12s-9.49 10.11-8 14.69 8.46 10.83 8.46 10.83M692.5 917.07l26.04-25.42-26.73 12.87" fill="none" stroke="#262521" stroke-linecap="round" stroke-linejoin="round" stroke-width="1.27" stroke-dasharray="1.27 2.55"/><path d="M688.51 896.88s-8.48 2.21-7.82 5.53c0 0-1.1 14.74 4.7 11.39 0 0 10.29-2.12 9.81-6.4M723.8 896.37l-25.4 22.71L706 924s8.77-17.54 19.16-25.61M727.31 904.75s-16.62 12.21-18 26.32M728.29 910s-15.81 13.76-15.19 22.74M728.59 916s-10 9.5-9.78 26.92 13.25 23.85 13.25 23.85" fill="none" stroke="#262521" stroke-linecap="round" stroke-linejoin="round" stroke-width="1.27" stroke-dasharray="1.27 2.55"/><path d="M730.57 926.86c-1.05 3.52-1.75 6.65-1.75 6.65s-6.93.86-4.07 9.08 7.77 19 7.77 19l4.77-.27M729.9 971.86s8.79 2.35 9.33-5.5" fill="none" stroke="#262521" stroke-linecap="round" stroke-linejoin="round" stroke-width="1.27" stroke-dasharray="1.27 2.55"/><path d="M728.29 942.39c2 4 2.76 6.07 2.76 6.07l3.62-7.91M727.11 994.87s.08-3.84 7-3.5M733.38 977.29s.38 8.84-6.5 13.28M646.78 1039s.21-9.35 10.5-9.19 21.8 13.4 29.4 29.74 18.21 48.53 26.36 53.11M684.79 1047s6.06 5.85 11.11 23.66 20.24 41.86 20.24 41.86M737.18 988.09l6.06 11.16M739.2 1005s-4.31-10.77-7.83-6.27-9.91 18.73-9.91 18.73 7.52 15.86 11.21 12.79M719 1020.44s7.16 3.92 6.35 15.45M735.05 1033.92s-1.35 7.49-9.72-1.86" fill="none" stroke="#262521" stroke-linecap="round" stroke-linejoin="round" stroke-width="1.27" stroke-dasharray="1.27 2.55"/><path d="M735 1006.88s-9.4 3.15-8.85 8.86 5 9.54 6 5.89 2.08-9.63-.41-7.49M739.54 1011.18s1.73 6.12-.55 10.08M745.29 1009.9s-.56 1-1.76 9.19-8 11.21-6.84 18.57M748.25 1030.8l-6.21-3.73M748.43 1024.77l-6.3-1.05M750.39 1034.41s-4.47 7.29-4.09 15.64M732 1036.75s1.67 13.76.52 17.41M687.26 1050.18c-1.56-17.86 16.85-13.13 16.85-13.13s2.34-9.7 7.26-11.64 11.06 5.71 11.06 5.71l.63 11.58s5.75-7.28 7.43 13.83l-9 10s-3.62-13.68-10.19-11.17-12.86 22.87-12.86 22.87" fill="none" stroke="#262521" stroke-linecap="round" stroke-linejoin="round" stroke-width="1.27" stroke-dasharray="1.27 2.55"/><circle cx="713.38" cy="1036.54" r="3.07" fill="none" stroke="#262521" stroke-linecap="round" stroke-linejoin="round" stroke-width="1.27" stroke-dasharray="1.27 2.55"/><circle cx="695.75" cy="1049.71" r="3.07" fill="none" stroke="#262521" stroke-linecap="round" stroke-linejoin="round" stroke-width="1.27" stroke-dasharray="1.27 2.55"/><path d="M690.05 1047s3.61-8.37 11.75-4M719.65 1032.37s-9-6.63-12 3.2M714.61 1051.79l-1.07-12.18M698.98 1052.65l5.51 8.79M695.91 1052.78l7.03 10.9M715.41 1038.82l2.05 16.17M728 1080.26c.76-15.84 10.58-8.72 10.58-8.72s-5.61 11.31 1.63 8 8.55-19.14 2.73-20.26-15.68-2.19-20.82 17.57 4.48 33.82 4.48 33.82M704.06 1084.2s6.88-18.57 9.5-18.71 8.53 11.41 8.53 11.41M713 1078.21s-2.23 20 6.19 28.61M726.21 1048s-.92 5.08-2.43 7.8" fill="none" stroke="#262521" stroke-linecap="round" stroke-linejoin="round" stroke-width="1.27" stroke-dasharray="1.27 2.55"/><path d="M751.86 1059.46c-3.36 1.55-6 4.54-5.55 10.18.6 8.2 4.42 10.31 7.44 9.27M742.83 1077.59s3.34 12.78 8.06 1.3" fill="none" stroke="#262521" stroke-linecap="round" stroke-linejoin="round" stroke-width="1.27" stroke-dasharray="1.27 2.55"/><path d="M740.18 1079.59s-1.79 12.3 8.28 9.83c3.09-.75 4.9-2.05 5.92-3.47" fill="none" stroke="#262521" stroke-linecap="round" stroke-linejoin="round" stroke-width="1.27" stroke-dasharray="1.27 2.55"/><path d="M734.88 1084.34s4.07 13.26 12.88 11.82c2.93-.48 5.35-2.45 7.27-4.87" fill="none" stroke="#262521" stroke-linecap="round" stroke-linejoin="round" stroke-width="1.27" stroke-dasharray="1.27 2.55"/><path d="M731.8 1080.28s-10.75 13.38 1.9 16.7c0 0 2.56 26.85 15 8.22 0 0 3.79 2.49 7.12 1.7" fill="none" stroke="#262521" stroke-linecap="round" stroke-linejoin="round" stroke-width="1.27" stroke-dasharray="1.27 2.55"/><path fill="none" stroke="#262521" stroke-linecap="round" stroke-linejoin="round" stroke-width="1.27" stroke-dasharray="1.27 2.55" d="M740.97 1098.69l.22 4.05 3.27-2M752 1099.26l3.03 2.72-.22-4.05M731.14 1089.25l3.17 2.26M726.24 1100.67s8.43 23 29.83 12.31M727 1115.09s-13.75-9.95-27.33 6.71-3.57 36.07-3.57 36.07M707.72 1168.83s14.58-4.15 24.1 8.85"/><path fill="none" stroke="#262521" stroke-linecap="round" stroke-linejoin="round" stroke-width="1.27" stroke-dasharray="1.27 2.55" d="M712.12 1171.17l.79 14.43 7.49-7.29 4.25 7.8 2.3-13.43M737.56 1126.36s.59 3.1 1.77 7.11c1.84 6.27 5.11 14.77 9.76 17.16"/><path fill="none" stroke="#262521" stroke-linecap="round" stroke-linejoin="round" stroke-width="1.27" stroke-dasharray="1.27 2.55" d="M747.01 1147.27l12.54-6.47-7.34-4.81 1.34-8.46-14.22 5.94"/><circle cx="718.18" cy="1141.04" r="15.6" fill="none" stroke="#262521" stroke-linecap="round" stroke-linejoin="round" stroke-width="1.27" stroke-dasharray="1.27 2.55"/><path fill="none" stroke="#262521" stroke-linecap="round" stroke-linejoin="round" stroke-width="1.27" stroke-dasharray="1.27 2.55" d="M715.25 1132.81l.36 6.49-5.23.29M720.64 1134.22l.3 5.5 4.58-.25M710.68 1144.92l5.22-.29.3 5.49M721.5 1149.83l-.3-5.48 4.18-.23"/><path d="M760.37 1159.09c-6.73 1-16.52.53-20.13-9.13-5.73-15.31-7.72-34.88-21.94-30.92s-25.77 12.81-21.22 29.38 24.61 16.15 29.89 17.6 14.06 12.54 14 22.09M734.16 1161.86l2.15-6.19M729.44 1159.08l12.43-.68" fill="none" stroke="#262521" stroke-linecap="round" stroke-linejoin="round" stroke-width="1.27" stroke-dasharray="1.27 2.55"/><circle cx="744.04" cy="1165.65" r="4.32" fill="none" stroke="#262521" stroke-linecap="round" stroke-linejoin="round" stroke-width="1.27" stroke-dasharray="1.27 2.55"/><path fill="none" stroke="#262521" stroke-linecap="round" stroke-linejoin="round" stroke-width="1.27" stroke-dasharray="1.27 2.55" d="M744.28 1169.96l3.32 8.24 13.42 2.73-.65-11.85-12.02-3.67"/><path fill="none" stroke="#262521" stroke-linecap="round" stroke-linejoin="round" stroke-width="1.27" stroke-dasharray="1.27 2.55" d="M751.51 1174.8l4.62-.25-2.5-3.34M686.4 1137.2c1.81 1.94 3.37 3.75 4.57 5.33M694.09 1167.76c3.76 5.83 6.27 13.79 5.21 24.28M669.43 1063.43s.63 4.56 11.13 24.18 22 31 22 31M681.8 1070.29s14.74 40.47 25.62 44.61M680.76 1118c5.21 6.19 10.38 11.37 13.87 12.5M685 1132.34a16.6 16.6 0 005.64 3.53M665 1071.21s-5.24 2.68-5.24 6M699.7 1121.8c-5.48-.28-27.67-34.9-27.67-34.9M674.17 1097.93s13.4 25.09 22.64 27.2"/><path d="M322.93 828.54l.32 3.76s-3.81-1.79-4.91-1.44c-.6.19-.61 1.18.27 2.06h51.31c.18-4.28-2-9.2-2-9.2s1.25-14.47-3.43-19.65-16-2-16-2-13.21-7.84-17.81-.24-1.68 13.46-1.68 13.46-2.51-3.46-3.61-3.22-.06 4.82-.06 4.82l-1.34 4.52a27 27 0 00-8.05-15.61c-7.18-6.67-9.91-7.11-9.91-7.11s5-9.25 4-10-3.8-2.4-3.8-2.4.41-4.05-1-4.15-2.8 4.46-15.65 9.59c0 0 9.66-11.32 13.32-12.67s-1.61-3.08-1.61-3.08.6-4-1.39-5.3-6.39-.09-6.39-.09l-3.66.68a58.63 58.63 0 01-1.59 9.47 40 40 0 01-3.68 8q.09 13.25.13 26.49c.42-.16.84-.33 1.28-.53 0 0 8.62 11.12 20.13-2.91-.12.02 13.12 5.75 16.81 16.75z" fill="#e0e0e0"/><path d="M308.51 798.12s-12.52-2-19.21.76a9.29 9.29 0 00-5.09 4.69M286.16 791.52s12.08-12.81 12.25-14.57-3.22-4.46-4.51-3.08-7.74 17.65-7.74 17.65z" fill="none" stroke="#262521" stroke-linecap="round" stroke-linejoin="round" stroke-width="1.3" stroke-dasharray="1.3 2.59"/><path d="M321 819.43s-9.57-18.33-18.38-18.73-15.11 3.19-15.17 7.47 8.88 8.92 13.35 1 20.2 10.26 20.2 10.26z" fill="none" stroke="#262521" stroke-linecap="round" stroke-linejoin="round" stroke-width="1.3" stroke-dasharray="1.3 2.59"/><path d="M302.32 803.68s-9.25.16-9.44 3.72 9.44-3.72 9.44-3.72zM289.36 794.54l13.17-7.26a8.29 8.29 0 012 4.48c0 2.28-.06 4.45-.06 4.45zM329.34 814.05s7-4 10.37 1.38 3.29 9.27 3.29 9.27 9.11-.08 11 7" fill="none" stroke="#262521" stroke-linecap="round" stroke-linejoin="round" stroke-width="1.3" stroke-dasharray="1.3 2.59"/><path d="M349.35 831.69c-2.81-3.78-8.65-5.32-8.65-5.32s-3.37-14.41-10.19-9c-3.77 3-4.37 9.26-4.15 14.26" fill="none" stroke="#262521" stroke-linecap="round" stroke-linejoin="round" stroke-width="1.3" stroke-dasharray="1.3 2.59"/><path d="M342.49 830.8c-5.95-1.78-6-5.34-6-5.34s-4.16-9.15-6.06.78a43 43 0 00-.79 5.45" fill="none" stroke="#262521" stroke-linecap="round" stroke-linejoin="round" stroke-width="1.3" stroke-dasharray="1.3 2.59"/><path fill="none" stroke="#262521" stroke-linecap="round" stroke-linejoin="round" stroke-width="1.3" stroke-dasharray="1.3 2.59" d="M333.7 829.1l-.04 2.73 2.7.03M337.52 807.3l5.36 16.19 17.41 5.96"/><path fill="none" stroke="#262521" stroke-linecap="round" stroke-linejoin="round" stroke-width="1.3" stroke-dasharray="1.3 2.59" d="M345.02 816.34l1.29 5.45 6.65 2.04M352.01 818.41l9.97-10.75M354.75 807.51l.73 7.16 6.4.63M361.76 824s5.37 5.17 4.5 9.67M335.39 802.81s5.51-1 9 5.44"/><path d="M667.9 1076.88c15.66 47 33 109.82 34.88 140.43 1.63 26.39 2.88 34.36 2.88 34.36h58.1s4.49-6.66 5.3-18.88-12.27-108.53-17.84-189.79c-3.84-55.87-22.89-124.63-22.89-124.63s-14.58-307-52.88-331.94c-10.88-7.11-142.29-56.21-142.29-56.21s-2.49 55-82.85 55c-65.08 0-82.09-39.23-86.21-51.38a11.73 11.73 0 01-.75-2.59c-1 .64-100.94 62.69-145.44 89.5C173.18 647.69 191.24 945 191.24 945a619.73 619.73 0 00-3.6 128.12c5.52 68.42-1.88 179.2 14.45 197.93l61-1.5s-5.61-14.34-4.66-27c2.28-30.22 5.54-104.26 15.36-135.21 4.89-15.4 10.22-37.33 14.35-55.49" fill="none" stroke="#262521" stroke-linecap="round" stroke-linejoin="round" stroke-width="3"/><path d="M283.11 746.72s6.87 260 5.35 299c-.83 21.49-26.88 158.93-14.57 186.11.05 13-1.31 43-1.31 43S345.83 1297 422.83 1296c137.52-1.65 263.37-26.63 263.37-26.63s-6.68-30-7.46-43.64c14.5-25-20.48-180.94-22.28-250.9-1.22-47.58-24-239.48-24-239.48" fill="none" stroke="#262521" stroke-linecap="round" stroke-linejoin="round" stroke-width="3"/></svg>