<svg xmlns="http://www.w3.org/2000/svg" width="1000" height="1550" viewBox="0 0 1000 1550"><path d="M197.87 1262.77l3.44 22s50.27 9.39 64.94-5.41c3.48-3.51 0-31.27 0-31.27zM700.89 1226.08l3.44 22s50.26 9.39 64.93-5.41c3.48-3.51 0-31.28 0-31.28z" fill="#fff" stroke="#262521" stroke-linecap="round" stroke-linejoin="round" stroke-width="3"/><path stroke-width="3" stroke="#262521" stroke-linecap="round" stroke-linejoin="round" fill="#262521" d="M398.63 1151.18H547.9v133.77H398.63z"/><path d="M533.22 530.87s-63 24.42-84.61 24.42-81.06-23.87-81.06-23.87l-97.08 65.27L456.54 844l188-270.23z" fill="#fff" stroke="#262521" stroke-linecap="round" stroke-linejoin="round" stroke-width="3"/><path fill="none" stroke="#636363" stroke-linecap="round" stroke-linejoin="round" d="M434.13 568.63v223.83"/><circle cx="443.38" cy="705.14" r="4.3" fill="none" stroke="#636363" stroke-linecap="round" stroke-linejoin="round"/><circle cx="443.38" cy="632.38" r="4.3" fill="none" stroke="#636363" stroke-linecap="round" stroke-linejoin="round"/><path d="M380.29 506.85s26.26 38.42 66.82 48.44l-69 73.33s-27.25-75.46-18.65-92.12a147.58 147.58 0 0120.83-29.65zM518.1 506.85s-15.38 39.68-67.8 48.44l69.95 73.33s30.79-73 22.19-89.66-24.34-32.11-24.34-32.11z" fill="#fff" stroke="#262521" stroke-linecap="round" stroke-linejoin="round" stroke-width="3"/><path d="M752.22 1043c-3.84-55.87-37.47-431.58-75.77-456.57C643.12 564.72 591 543 553.73 530.29c-13.69-19.43-40.16-28.18-40-26 0 0 14.32 10.12 13.16 25.65-7.45 22.84-54 195-81.35 289.55C419.82 727 380.68 541.54 379.49 527c-1-11.83 5.61-16.15 5.61-16.15l.28-6.85s-28.55 8-37.45 26.87c0 0-103.14 71.12-129 89.87-44.73 27-35.8 384-30.27 452.4 5.65 69.91 2.94 199.59 6.16 203.57 6.51 8.08 84.32-2.58 84.32-2.58l.52 25.49c18.34.81 403.58-15.43 403.58-15.43l-3-78.55 9.37 36.59c25.11.15 90.22-.41 90.88-10.27.77-12.21-22.7-107.7-28.27-188.96z" fill="#262521" stroke="#262521" stroke-linecap="round" stroke-linejoin="round" stroke-width="3"/><path d="M279.64 1299.62s106.27 11.57 155.16-26.56c24.19-18.87 27.08-111 27.08-111" fill="none" stroke="#636363" stroke-linecap="round" stroke-linejoin="round"/><path d="M445.58 819.48c-11.45 57.27-1.78 389.68 52.37 444.92 44.09 45 185.27 19.79 185.27 19.79" fill="none" stroke="#636363" stroke-linecap="round" stroke-linejoin="round"/><path fill="#fff" d="M521.24 739.39l12.08-24.36 66.25 7.55 2.43 6.12 17.84 3.48 1.6 7.21h-100.2z"/><path fill="none" stroke="#636363" stroke-linecap="round" stroke-linejoin="round" d="M521.24 739.39h104.39v23.59H508.92"/><circle cx="457.49" cy="892.27" r="5.63" fill="none" stroke="#636363" stroke-linecap="round" stroke-linejoin="round"/><circle cx="464.72" cy="1032.84" r="5.63" fill="none" stroke="#636363" stroke-linecap="round" stroke-linejoin="round"/><path d="M665.32 1085.11h-98a12.11 12.11 0 01-12.08-12.11v-15.47c0-5.32 74.28-7 106.57-3.76M282.64 1059c35.53-2.54 88.2-.66 88.2 4.34v15.46a12.1 12.1 0 01-12.07 12.07l-75.4-.64" fill="none" stroke="#636363" stroke-linecap="round" stroke-linejoin="round"/><path d="M439.31 583.83c-6.44 43.43-33.41 46-33.41 46-24.84-27.57-13.71-74.59-13.71-74.59C412 550.63 442 566.86 442 566.86s10-3.88 15.52 0c0 0 30-16.23 49.78-11.57 0 0 11.13 47-13.72 74.59 0 0-27-2.62-33.41-46a17.59 17.59 0 01-20.82 0z" fill="#b67284" stroke="#262521" stroke-linecap="round" stroke-linejoin="round" stroke-width="3"/><path d="M461.44 574.87s8.68-3.7 11.5 0M436.73 575.86a16.23 16.23 0 00-13.41 0" fill="none" stroke="#262521" stroke-linecap="round" stroke-linejoin="round"/><path d="M490.07 577.51a33.28 33.28 0 00-4.82 3.61c-.53.51-2.84 2.85-1.38 3.23.74.19 2-.5 2.7-.78 1-.43 2-1 3-1.46a20.87 20.87 0 015-2.19 1.58 1.58 0 012 1.49 3.09 3.09 0 00.24.89 7 7 0 016.37-3.1 27.51 27.51 0 016.53 1.83 126 126 0 00-.82-15.52h-.43c-1.74.44-2.53 2.14-3.05 3.7a1.56 1.56 0 01-2.27.93c-2.05-1.43-3.81-3.51-6-4.83a15.21 15.21 0 00-.61 3 1.57 1.57 0 01-2 1.49c-3.12-.83-6.08-2.18-9.19-3 .13 1.65-.71 3.11-2.63 4.17l-.58.36c.38.36 1 1.13 1.25 1.32a15.52 15.52 0 006.22 2.06c1.51.22 1.47 2.14.47 2.8zM410.06 564c-1.13.07-2.2 1.75-2.78 2.55-1.66 2.24-3.16 5.41-6 6.37a1.57 1.57 0 01-1.9-1.08c-.58-1.57-1.52-3.25-3.33-3.53a8.27 8.27 0 00-4.64 1.15c-.47.23-.91.5-1.35.76a117 117 0 00.07 19.44 13.33 13.33 0 007 3.34 6.21 6.21 0 004.84-1.12c1.67-1.41 2-3.75 2-5.81a1.58 1.58 0 012-1.49c2.84.47 9.29 1.67 10.34-2.14.79-2.9-3.41-3.76-4.79-5.63-2.24-3 .36-6.87.48-10.1.07-1.01-.6-2.71-1.94-2.71z" fill="#262521" stroke="#262521" stroke-linecap="round" stroke-linejoin="round" stroke-width="3"/><path d="M459.63 571.7s4 4.3.5 12.13M437.86 571.7a16.7 16.7 0 001.45 12.13M461.57 577.76s5.37-1.07 6.75 2M437.32 578.58s-4.46-1.34-7.29.1" fill="none" stroke="#262521" stroke-linecap="round" stroke-linejoin="round"/><path d="M555.27 535.62l37.72 36-41.84 13.49 30.76 20.19S511 784.15 451.86 850.61M347.54 535.62l-33.12 38.11L353.61 586l-26.92 20s69.8 190.44 109.12 225.63" fill="none" stroke="#636363" stroke-linecap="round" stroke-linejoin="round"/><path d="M541.66 629.3c-1-1.32-14.23-4.23-19-3.21-4.51 1-2.76 4.54-.1 4.19 1-.13 2.09-.21 3.25-.26v6.29c-.23 4.19-3.51 2.29-3.44 3.16s1.07 1.31 1.9 1.31h.13a5.65 5.65 0 001.41-.3v9.77c-1.12 0-5.14.86-5.14 1.64s3.41.13 7.71.62 7.19 2.16 8.42 2.41c1.6.32-.57-1.78-.57-1.78a8.52 8.52 0 004.89-1.81l.53-.49-.41-20s1.46-.21.42-1.54zm-3.53 6.59a8.35 8.35 0 01-9.09-.07V630c3.71.1 7.41.69 9 2.08zm0 1.81l.09 4.33a9.89 9.89 0 00-9.22-.15v-4.27a11 11 0 004.83 1.2 9.23 9.23 0 004.34-1.11zM529 650.27v-6.55a8.41 8.41 0 019.26.14l.11 5.42c-1.46.64-5.18.96-9.37.99z" fill="#d7b98a"/><path d="M439.33 284.5c-3.38-3.65-80-27.87-78.5 31.21.49 19.63 19.29 23 38.37 21.54 4.9 5.71 12.37 10.31 23.37 13a90.64 90.64 0 01-7.5-15.17 188.2 188.2 0 0021.13-5.26c-52.92-31.47 3.13-45.32 3.13-45.32z" fill="#262521" stroke="#262521" stroke-linecap="round" stroke-linejoin="round" stroke-width="3"/></svg>