<svg xmlns="http://www.w3.org/2000/svg" width="1250" height="1550" viewBox="0 0 1250 1550"><title>s04e08-01</title><path d="M406.93,1261.19s61.78,24.3,203.69,19.8,192.84-36.19,192.84-36.19l24.8,312.66c-209.14,38.46-397.55,3.91-397.55,3.91Z" fill="#262521" stroke="#262521" stroke-linecap="round" stroke-linejoin="round" stroke-width="3"/><path d="M879.72,1045c-3.84-55.87-22.89-124.63-22.89-124.63s-14.58-307-52.88-331.94c-10.88-7.11-152.19-62.72-152.19-62.72l-3.54-26.61c-11,2.5-40.39,29.83-72.67,29.83-30.9,0-58-23.25-66.77-28.33,0,0-1.32,23.13-4.44,25.15s-113.43,70.18-157.93,97C301.68,649.69,319.74,947,319.74,947a619.73,619.73,0,0,0-3.6,128.12c5.52,68.42-1.88,179.2,14.45,197.93l61-1.5s-5.61-14.34-4.66-27c2.28-30.22,5.54-104.26,15.36-135.21S423.7,1021,423.7,1021c.49,23.68.3,42.22-1,50.32-3.6,21.92-31.66,102.79-17.78,133.07-3.34,29.29-5.7,66.94-5.7,66.94s101,22.75,178,21.82c137.52-1.66,234.85-32.7,234.85-32.7s-2.28-35.71-5.33-60.53c9.94-22.61-4.2-83.51-17.91-143,17.07,47.16,40.24,126.63,42.46,162.32,1.63,26.39,2.88,34.36,2.88,34.36h58.1s4.49-6.66,5.3-18.88S885.29,1126.26,879.72,1045Z" fill="#262521" stroke="#262521" stroke-linecap="round" stroke-linejoin="round" stroke-width="3"/><path d="M399.19,1271.35s101,22.75,178,21.82c137.52-1.66,234.85-32.7,234.85-32.7" fill="none" stroke="#636363" stroke-linecap="round" stroke-linejoin="round"/><path d="M648.22,499.1c-11,2.5-40.39,29.83-72.67,29.83-30.9,0-58-23.25-66.77-28.33" fill="none" stroke="#636363" stroke-linecap="round" stroke-linejoin="round"/></svg>