<svg xmlns="http://www.w3.org/2000/svg" width="1250" height="1550" viewBox="0 0 1250 1550"><path d="M489.35 531.24s.01-.04 0 0z" fill="#ffc702"/><path d="M877.22 1043c-3.84-55.87-22.89-124.63-22.89-124.63s-14.58-307-52.88-331.94c-10.88-7.11-142.29-56.21-142.29-56.21s-2.49 55-82.84 55c-65.09 0-82.1-39.23-86.22-51.38a11.73 11.73 0 01-.75-2.59c-1 .64-100.94 62.69-145.44 89.5C299.18 647.69 317.24 945 317.24 945a619.73 619.73 0 00-3.6 128.12c5.52 68.42-1.88 179.2 14.45 197.93l61-1.5s-5.61-14.34-4.66-27c2.28-30.22 5.54-104.26 15.36-135.21 4.77-15 9.95-36.21 14-54.09-4.18 35.82-24.17 140.91-12.87 165.85 0 13-.31 50.49-.31 50.49s71.52 17.46 148.52 16.53c137.52-1.65 262.1-22.4 262.1-22.4s-3.18-37-4-50.63c5.42-9.36-1.69-73.84-13.36-136.22 15.66 47 33 109.82 34.88 140.43 1.63 26.39 2.88 34.36 2.88 34.36h58.1s4.49-6.66 5.3-18.88-12.24-108.52-17.81-189.78z" fill="#262521"/><path d="M486.76 532.34h0s0-.04 0 0z" fill="#262521" stroke="#262521" stroke-linecap="round" stroke-linejoin="round" stroke-width="3"/><path fill="none" stroke="#838180" stroke-miterlimit="10" stroke-width="11" d="M826.51 1198.87l65.64-1.6M820.04 1167.56l69.22-1.67M812.24 1136.39l74.19-1.84M803.72 1104.85l78.64-1.77M794.76 1073.79l85.2-2.03M789.23 1042.47l88.29-2.14M785.79 1011.04l88.17-2.08M783.13 979.66l85.22-2M781.28 948.28l80.22-1.98M778.36 916.89l76.62-1.83M773.98 885.73l79.48-2.1M770.51 854.25l80.26-1.95M766.52 822.8l81.75-1.99M765.89 791.34l79.73-1.89M763.5 759.9l78.26-1.73M762.32 728.47l75.91-1.82M387.12 1210.99l-70.41 1.29M389.56 1179.63l-73.95.72M392.81 1148.19l-77.61 1.5M397.19 1116.75l-82.58 1.98M405.87 1085.43l-92.21 2.01M413.3 1054l-101.76 1.74M414.73 1022.97l-103.86 1.29M414.06 991.07l-101.9 2.38M414.74 959.53l-100.22 2.43M414.47 928.26l-99 2.38M413.48 896.94l-99.32 2.39M411.18 865.65l-98.02 2.36M409.91 834.34l-97.25 2.33M410.64 802.98l-97.74 2.33M408.39 771.71l-95.21 2.28M406.8 740.38l-92.4 2.23M400.1 1216.49s107.58 2.39 232.45-1.92 175.86-8.16 175.86-8.16M397.6 1184.76s103.93 1.71 203.22-1.56c102.28-3.37 206.76-7.71 206.76-7.71M399.85 1153.61s98.2-.88 200.48-3.57 203.39-6.45 203.39-6.45M403.81 1122.31l395.43-10.08M408.08 1090.72l386.68-9.85M412.97 1058.77l377.04-9.25M413.47 1027.03l372.41-8.88M414.5 994.5l368.35-7.74M414.06 965.1l367.22-9.09M412.77 932.9l365.8-8.98M412.77 901.38l362.55-9.39M411.25 870l360.62-8.85M411.25 838.53l356.21-9.22M410.64 807.14l354.62-9.04M408.56 776.52l354.18-10.25M406.92 744.29l352.97-10.07"/><path d="M329.18 741.13a.75.75 0 000-1.5.75.75 0 000 1.5zM387.32 740.19a.75.75 0 000-1.5.75.75 0 000 1.5zM362.84 745a.75.75 0 000-1.5.75.75 0 000 1.5zM345.77 743.4a.75.75 0 000-1.5.75.75 0 000 1.5zM382.6 776.78a.75.75 0 000-1.5.75.75 0 000 1.5zM363.56 773.85a.75.75 0 000-1.5.75.75 0 000 1.5zM328.34 774.64a.75.75 0 000-1.5.75.75 0 000 1.5z" fill="#fff"/><path d="M345.77 743.4a.75.75 0 000-1.5.75.75 0 000 1.5zM416 744.13a.75.75 0 000-1.5.75.75 0 000 1.5zM438.51 778.71a.75.75 0 000-1.5.75.75 0 000 1.5zM458.9 743.54a.75.75 0 000-1.5.75.75 0 000 1.5zM485.74 745.64a.75.75 0 000-1.5.75.75 0 000 1.5zM325.15 805.4a.75.75 0 000-1.5.75.75 0 000 1.5zM342.62 807.82a.75.75 0 000-1.5.75.75 0 000 1.5zM365.64 803.16a.75.75 0 000-1.5.75.75 0 000 1.5zM402.14 802.35a.75.75 0 000-1.5.75.75 0 000 1.5zM400.48 836a.75.75 0 000-1.5.75.75 0 000 1.5zM391.7 832.44a.75.75 0 000-1.5.75.75 0 000 1.5zM346.58 837.85a.75.75 0 000-1.5.75.75 0 000 1.5zM333.45 834.42a.75.75 0 000-1.5.75.75 0 000 1.5zM320.33 868.6a.75.75 0 000-1.5.75.75 0 000 1.5zM343.13 869.55a.75.75 0 000-1.5.75.75 0 000 1.5zM356.8 866.5a.75.75 0 000-1.5.75.75 0 000 1.5zM378.22 865.34a.75.75 0 000-1.5.75.75 0 000 1.5zM404.07 867.91a.75.75 0 000-1.5.75.75 0 000 1.5zM401.94 896.6a.75.75 0 000-1.5.75.75 0 000 1.5zM384.5 895.47a.75.75 0 000-1.5.75.75 0 000 1.5zM345.74 900.23a.75.75 0 000-1.5.75.75 0 000 1.5zM334.28 897.18a.75.75 0 000-1.5.75.75 0 000 1.5zM322 902.91a.75.75 0 000-1.5.75.75 0 000 1.5zM409.5 929a.75.75 0 000-1.5.75.75 0 000 1.5zM389.37 927.57a.75.75 0 000-1.5.75.75 0 000 1.5zM348.61 932.83a.75.75 0 000-1.5.75.75 0 000 1.5zM338.54 931.88a.75.75 0 000-1.5.75.75 0 000 1.5zM323.9 930.2a.75.75 0 000-1.5.75.75 0 000 1.5zM320.44 961.12a.75.75 0 000-1.5.75.75 0 000 1.5zM345.93 962.4a.75.75 0 000-1.5.75.75 0 000 1.5zM371.65 958.94a.75.75 0 000-1.5.75.75 0 000 1.5zM377.41 961.76a.75.75 0 000-1.5.75.75 0 000 1.5zM409.5 958.52a.75.75 0 000-1.5.75.75 0 000 1.5zM402 993.18a.75.75 0 000-1.5.75.75 0 000 1.5zM389.29 989.47a.75.75 0 000-1.5.75.75 0 000 1.5zM355.79 993.46a.75.75 0 000-1.5.75.75 0 000 1.5zM327.36 995.29a.75.75 0 000-1.5.75.75 0 000 1.5zM319.6 993a.75.75 0 000-1.5.75.75 0 000 1.5zM370.24 1023a.75.75 0 000-1.5.75.75 0 000 1.5zM392.07 1025.71a.75.75 0 000-1.5.75.75 0 000 1.5zM405.77 1024a.75.75 0 000-1.5.75.75 0 000 1.5zM340 1023.72a.75.75 0 000-1.5.75.75 0 000 1.5zM317.33 1024a.75.75 0 000-1.5.75.75 0 000 1.5zM319 1058.27a.75.75 0 000-1.5.75.75 0 000 1.5zM350.38 1054.19a.75.75 0 000-1.5.75.75 0 000 1.5zM360.81 1056.42a.75.75 0 000-1.5.75.75 0 000 1.5zM390.91 1053.67a.75.75 0 000-1.5.75.75 0 000 1.5zM371.15 1209.68a.75.75 0 000-1.5.75.75 0 000 1.5zM329.63 1087a.75.75 0 000-1.5.75.75 0 000 1.5zM340 1087.51a.75.75 0 000-1.5.75.75 0 000 1.5zM368.18 1088.28a.75.75 0 000-1.5.75.75 0 000 1.5zM381.87 1086.09a.75.75 0 000-1.5.75.75 0 000 1.5zM396 1087.76a.75.75 0 000-1.5.75.75 0 000 1.5zM387.6 1115.19a.75.75 0 000-1.5.75.75 0 000 1.5zM368.8 1121.51a.75.75 0 000-1.5.75.75 0 000 1.5zM345.21 1117.5a.75.75 0 000-1.5.75.75 0 000 1.5zM323.58 1122.19a.75.75 0 000-1.5.75.75 0 000 1.5zM325.59 1211.74a.75.75 0 000-1.5.75.75 0 000 1.5zM323.15 1148.94a.75.75 0 000-1.5.75.75 0 000 1.5zM348.35 1153.22a.75.75 0 000-1.5.75.75 0 000 1.5zM376.08 1150.14a.75.75 0 000-1.5.75.75 0 000 1.5zM378.36 1179.79a.75.75 0 000-1.5.75.75 0 000 1.5zM365.29 1179.38a.75.75 0 000-1.5.75.75 0 000 1.5zM323.15 1183a.75.75 0 000-1.5.75.75 0 000 1.5zM336.14 1179.07a.75.75 0 000-1.5.75.75 0 000 1.5zM823.77 725.61a.75.75 0 000-1.5.75.75 0 000 1.5zM772.68 727.87a.75.75 0 000-1.5.75.75 0 000 1.5zM797.33 731a.75.75 0 000-1.5.75.75 0 000 1.5zM814.31 728.24a.75.75 0 000-1.5.75.75 0 000 1.5zM773.8 761.9a.75.75 0 000-1.5.75.75 0 000 1.5zM792.7 757.68a.75.75 0 000-1.5.75.75 0 000 1.5zM815.58 761.44a.75.75 0 000-1.5.75.75 0 000 1.5z" fill="#fff"/><path d="M814.31 728.24a.75.75 0 000-1.5.75.75 0 000 1.5zM811.22 792.77a.75.75 0 000-1.5.75.75 0 000 1.5zM841.57 790.85a.75.75 0 000-1.5.75.75 0 000 1.5zM818.39 787.76a.75.75 0 000-1.5.75.75 0 000 1.5zM781.91 789.44a.75.75 0 000-1.5.75.75 0 000 1.5zM784.94 822.94a.75.75 0 000-1.5.75.75 0 000 1.5zM793.56 818.77a.75.75 0 000-1.5.75.75 0 000 1.5zM838.84 821.11a.75.75 0 000-1.5.75.75 0 000 1.5zM816.16 823.55a.75.75 0 000-1.5.75.75 0 000 1.5zM845 851a.75.75 0 000-1.5.75.75 0 000 1.5zM822.28 853.54a.75.75 0 000-1.5.75.75 0 000 1.5zM808.5 851.42a.75.75 0 000-1.5.75.75 0 000 1.5zM797.67 855.91a.75.75 0 000-1.5.75.75 0 000 1.5zM782.5 851a.75.75 0 000-1.5.75.75 0 000 1.5zM780.68 885.43a.75.75 0 000-1.5.75.75 0 000 1.5zM798.05 883.11a.75.75 0 000-1.5.75.75 0 000 1.5zM837 885.24a.75.75 0 000-1.5.75.75 0 000 1.5zM848.27 881.41a.75.75 0 000-1.5.75.75 0 000 1.5zM822.28 886.48a.75.75 0 000-1.5.75.75 0 000 1.5zM827.4 915.81a.75.75 0 000-1.5.75.75 0 000 1.5zM848.27 918.2a.75.75 0 000-1.5.75.75 0 000 1.5zM811.22 912.93a.75.75 0 000-1.5.75.75 0 000 1.5zM785.59 914.64a.75.75 0 000-1.5.75.75 0 000 1.5zM785.79 945.07a.75.75 0 000-1.5.75.75 0 000 1.5zM797.52 949a.75.75 0 000-1.5.75.75 0 000 1.5zM819.2 944.37a.75.75 0 000-1.5.75.75 0 000 1.5zM841.9 945.07a.75.75 0 000-1.5.75.75 0 000 1.5zM855 949a.75.75 0 000-1.5.75.75 0 000 1.5zM862.67 979.41a.75.75 0 000-1.5.75.75 0 000 1.5zM853.8 977.91a.75.75 0 000-1.5.75.75 0 000 1.5zM828 976.2a.75.75 0 000-1.5.75.75 0 000 1.5zM822.34 979.41a.75.75 0 000-1.5.75.75 0 000 1.5zM790.15 978.35a.75.75 0 000-1.5.75.75 0 000 1.5zM792.53 1011.14a.75.75 0 000-1.5.75.75 0 000 1.5zM803.22 1009.48a.75.75 0 000-1.5.75.75 0 000 1.5zM838.71 1008.27a.75.75 0 000-1.5.75.75 0 000 1.5zM855 1011.79a.75.75 0 000-1.5.75.75 0 000 1.5zM866.39 1008.27a.75.75 0 000-1.5.75.75 0 000 1.5zM830.2 1038a.75.75 0 000-1.5.75.75 0 000 1.5zM808.51 1042.15a.75.75 0 000-1.5.75.75 0 000 1.5zM794.76 1041.32a.75.75 0 000-1.5.75.75 0 000 1.5zM840.34 1069.79a.75.75 0 000-1.5.75.75 0 000 1.5zM811.22 1012.77a.75.75 0 000-1.5.75.75 0 000 1.5zM856.45 1040.36a.75.75 0 000-1.5.75.75 0 000 1.5zM871.06 1043.22a.75.75 0 000-1.5.75.75 0 000 1.5zM816.73 1045.47a.75.75 0 000-1.5.75.75 0 000 1.5zM832.66 1074.54a.75.75 0 000-1.5.75.75 0 000 1.5zM866.81 1074.84a.75.75 0 000-1.5.75.75 0 000 1.5zM856.45 1076.06a.75.75 0 000-1.5.75.75 0 000 1.5zM803.72 1072.51a.75.75 0 000-1.5.75.75 0 000 1.5zM814.6 1077.48a.75.75 0 000-1.5.75.75 0 000 1.5zM809.55 1109.11a.75.75 0 000-1.5.75.75 0 000 1.5zM828.25 1105.89a.75.75 0 000-1.5.75.75 0 000 1.5zM846.37 1107.42a.75.75 0 000-1.5.75.75 0 000 1.5zM873.42 1103.49a.75.75 0 000-1.5.75.75 0 000 1.5zM857.55 1100.23a.75.75 0 000-1.5.75.75 0 000 1.5zM879.35 1131.3a.75.75 0 000-1.5.75.75 0 000 1.5zM850 1136.61a.75.75 0 000-1.5.75.75 0 000 1.5zM822.14 1135a.75.75 0 000-1.5.75.75 0 000 1.5zM828.11 1166.64a.75.75 0 000-1.5.75.75 0 000 1.5zM838.92 1167.48a.75.75 0 000-1.5.75.75 0 000 1.5zM880 1167.48a.75.75 0 000-1.5.75.75 0 000 1.5zM867.22 1138.91a.75.75 0 000-1.5.75.75 0 000 1.5zM458.26 774.64a.75.75 0 000-1.5.75.75 0 000 1.5zM420.82 775.92a.75.75 0 000-1.5.75.75 0 000 1.5zM498 776.79a.75.75 0 000-1.5.75.75 0 000 1.5zM535.33 772.72a.75.75 0 000-1.5.75.75 0 000 1.5zM517.34 742.6a.75.75 0 000-1.5.75.75 0 000 1.5zM567.23 739.51a.75.75 0 000-1.5.75.75 0 000 1.5zM611.22 739.41a.75.75 0 000-1.5.75.75 0 000 1.5zM662.21 737a.75.75 0 000-1.5.75.75 0 000 1.5zM675.28 738.62a.75.75 0 000-1.5.75.75 0 000 1.5zM749 734a.75.75 0 000-1.5.75.75 0 000 1.5zM725.73 736.21a.75.75 0 000-1.5.75.75 0 000 1.5zM734 768.76a.75.75 0 000-1.5.75.75 0 000 1.5zM742.09 766.39a.75.75 0 000-1.5.75.75 0 000 1.5zM699.22 767.85a.75.75 0 000-1.5.75.75 0 000 1.5zM646.07 771.05a.75.75 0 000-1.5.75.75 0 000 1.5zM587.43 771a.75.75 0 000-1.5.75.75 0 000 1.5zM602.12 772.54a.75.75 0 000-1.5.75.75 0 000 1.5zM521.88 805.31a.75.75 0 000-1.5.75.75 0 000 1.5zM557.19 806.2a.75.75 0 000-1.5.75.75 0 000 1.5zM595.62 800a.75.75 0 000-1.5.75.75 0 000 1.5zM620.65 802.65a.75.75 0 000-1.5.75.75 0 000 1.5zM635.85 802.13a.75.75 0 000-1.5.75.75 0 000 1.5zM698.78 799.29a.75.75 0 000-1.5.75.75 0 000 1.5zM685.76 799.74a.75.75 0 000-1.5.75.75 0 000 1.5zM747.65 799a.75.75 0 000-1.5.75.75 0 000 1.5zM771.87 794.61a.75.75 0 000-1.5.75.75 0 000 1.5zM494.25 808.34a.75.75 0 000-1.5.75.75 0 000 1.5zM471.93 805.61a.75.75 0 000-1.5.75.75 0 000 1.5zM423.7 810.74a.75.75 0 000-1.5.75.75 0 000 1.5zM419.45 841.62a.75.75 0 000-1.5.75.75 0 000 1.5zM444.34 837.28a.75.75 0 000-1.5.75.75 0 000 1.5zM457.43 840.33a.75.75 0 000-1.5.75.75 0 000 1.5zM500.29 838.17a.75.75 0 000-1.5.75.75 0 000 1.5zM548.07 838a.75.75 0 000-1.5.75.75 0 000 1.5zM537.72 836.2a.75.75 0 000-1.5.75.75 0 000 1.5zM591.49 837.17a.75.75 0 000-1.5.75.75 0 000 1.5zM634.83 832.2a.75.75 0 000-1.5.75.75 0 000 1.5zM650.64 835.16a.75.75 0 000-1.5.75.75 0 000 1.5zM699.45 832.1a.75.75 0 000-1.5.75.75 0 000 1.5zM737.39 828.71a.75.75 0 000-1.5.75.75 0 000 1.5zM751.56 831a.75.75 0 000-1.5.75.75 0 000 1.5zM760.33 861.46a.75.75 0 000-1.5.75.75 0 000 1.5zM725.07 863.36a.75.75 0 000-1.5.75.75 0 000 1.5zM714.69 860.22a.75.75 0 000-1.5.75.75 0 000 1.5zM668.59 863.18a.75.75 0 000-1.5.75.75 0 000 1.5zM617.07 866.33a.75.75 0 000-1.5.75.75 0 000 1.5zM559.59 870.38a.75.75 0 000-1.5.75.75 0 000 1.5zM542.13 866.09a.75.75 0 000-1.5.75.75 0 000 1.5zM496.62 871.13a.75.75 0 000-1.5.75.75 0 000 1.5zM460.26 872.36a.75.75 0 000-1.5.75.75 0 000 1.5zM438.51 871a.75.75 0 000-1.5.75.75 0 000 1.5zM751.76 893.88a.75.75 0 000-1.5.75.75 0 000 1.5zM723.5 892.75a.75.75 0 000-1.5.75.75 0 000 1.5zM693.18 897.27a.75.75 0 000-1.5.75.75 0 000 1.5zM609.54 896.62a.75.75 0 000-1.5.75.75 0 000 1.5zM635.59 895.74a.75.75 0 000-1.5.75.75 0 000 1.5zM522.78 902.37a.75.75 0 000-1.5.75.75 0 000 1.5zM496.64 899.07a.75.75 0 000-1.5.75.75 0 000 1.5zM465.23 902.93a.75.75 0 000-1.5.75.75 0 000 1.5zM424 902.93a.75.75 0 000-1.5.75.75 0 000 1.5zM434.37 934a.75.75 0 000-1.5.75.75 0 000 1.5zM456.15 936.76a.75.75 0 000-1.5.75.75 0 000 1.5zM494.63 933.36a.75.75 0 000-1.5.75.75 0 000 1.5zM534.74 929.9a.75.75 0 000-1.5.75.75 0 000 1.5zM567.94 933.66a.75.75 0 000-1.5.75.75 0 000 1.5zM582 929.69a.75.75 0 000-1.5.75.75 0 000 1.5zM643.3 927.61a.75.75 0 000-1.5.75.75 0 000 1.5zM682.41 928.37a.75.75 0 000-1.5.75.75 0 000 1.5zM722.58 927.7a.75.75 0 000-1.5.75.75 0 000 1.5zM735.54 923.77a.75.75 0 000-1.5.75.75 0 000 1.5zM763.78 924.21a.75.75 0 000-1.5.75.75 0 000 1.5zM766.11 958.35a.75.75 0 000-1.5.75.75 0 000 1.5zM742.68 954.26a.75.75 0 000-1.5.75.75 0 000 1.5zM735.15 958a.75.75 0 000-1.5.75.75 0 000 1.5zM687.88 956.82a.75.75 0 000-1.5.75.75 0 000 1.5zM652.65 960.12a.75.75 0 000-1.5.75.75 0 000 1.5zM610.28 959.46a.75.75 0 000-1.5.75.75 0 000 1.5zM572.91 964.22a.75.75 0 000-1.5.75.75 0 000 1.5zM541.94 963.18a.75.75 0 000-1.5.75.75 0 000 1.5zM534.3 961.35a.75.75 0 000-1.5.75.75 0 000 1.5zM482.23 964.51a.75.75 0 000-1.5.75.75 0 000 1.5zM445.35 966.47a.75.75 0 000-1.5.75.75 0 000 1.5zM427.89 992.05a.75.75 0 000-1.5.75.75 0 000 1.5zM449.79 997.75a.75.75 0 000-1.5.75.75 0 000 1.5zM478.58 994.2a.75.75 0 000-1.5.75.75 0 000 1.5zM505.1 993.77a.75.75 0 000-1.5.75.75 0 000 1.5zM514.92 996.23a.75.75 0 000-1.5.75.75 0 000 1.5zM552.91 994.94a.75.75 0 000-1.5.75.75 0 000 1.5zM604.46 993.19a.75.75 0 000-1.5.75.75 0 000 1.5zM617.47 992.05a.75.75 0 000-1.5.75.75 0 000 1.5zM656.48 987.93a.75.75 0 000-1.5.75.75 0 000 1.5zM683.17 991.91a.75.75 0 000-1.5.75.75 0 000 1.5zM723.83 988.43a.75.75 0 000-1.5.75.75 0 000 1.5zM759.65 987.91a.75.75 0 000-1.5.75.75 0 000 1.5zM767.94 1021.15a.75.75 0 000-1.5.75.75 0 000 1.5zM753.2 1017.46a.75.75 0 000-1.5.75.75 0 000 1.5zM704.39 1020.52a.75.75 0 000-1.5.75.75 0 000 1.5zM656.67 1023.54a.75.75 0 000-1.5.75.75 0 000 1.5zM636.54 1022.13a.75.75 0 000-1.5.75.75 0 000 1.5zM598.06 1025.53a.75.75 0 000-1.5.75.75 0 000 1.5zM561.13 1025.39a.75.75 0 000-1.5.75.75 0 000 1.5zM528.06 1027.92a.75.75 0 000-1.5.75.75 0 000 1.5zM491.12 1027.08a.75.75 0 000-1.5.75.75 0 000 1.5zM463.47 1029.41a.75.75 0 000-1.5.75.75 0 000 1.5zM437.94 1028.89a.75.75 0 000-1.5.75.75 0 000 1.5zM429.35 1060.61a.75.75 0 000-1.5.75.75 0 000 1.5zM449.79 1055.62a.75.75 0 000-1.5.75.75 0 000 1.5zM475.46 1058.34a.75.75 0 000-1.5.75.75 0 000 1.5zM513 1059.86a.75.75 0 000-1.5.75.75 0 000 1.5zM535.18 1057.71a.75.75 0 000-1.5.75.75 0 000 1.5zM574.27 1057.08a.75.75 0 000-1.5.75.75 0 000 1.5zM606.83 1056a.75.75 0 000-1.5.75.75 0 000 1.5zM632.89 1055.78a.75.75 0 000-1.5.75.75 0 000 1.5zM665.39 1051.88a.75.75 0 000-1.5.75.75 0 000 1.5zM696.41 1055a.75.75 0 000-1.5.75.75 0 000 1.5zM715.34 1051.58a.75.75 0 000-1.5.75.75 0 000 1.5zM749 1051.14a.75.75 0 000-1.5.75.75 0 000 1.5zM753.44 1082.42a.75.75 0 000-1.5.75.75 0 000 1.5zM765.39 1082.71a.75.75 0 000-1.5.75.75 0 000 1.5zM707.82 1081.87a.75.75 0 000-1.5.75.75 0 000 1.5zM652 1087.26a.75.75 0 000-1.5.75.75 0 000 1.5zM615.07 1087.12a.75.75 0 000-1.5.75.75 0 000 1.5zM593.42 1090.65a.75.75 0 000-1.5.75.75 0 000 1.5zM547.24 1089.43a.75.75 0 000-1.5.75.75 0 000 1.5zM514.13 1090.55a.75.75 0 000-1.5.75.75 0 000 1.5zM497.9 1093.2a.75.75 0 000-1.5.75.75 0 000 1.5zM460.93 1091a.75.75 0 000-1.5.75.75 0 000 1.5zM439.47 1094a.75.75 0 000-1.5.75.75 0 000 1.5zM724.24 1114.84a.75.75 0 000-1.5.75.75 0 000 1.5zM749.77 1115.37a.75.75 0 000-1.5.75.75 0 000 1.5zM679.76 1117.05a.75.75 0 000-1.5.75.75 0 000 1.5zM609.78 1120.83a.75.75 0 000-1.5.75.75 0 000 1.5zM568.47 1118.74a.75.75 0 000-1.5.75.75 0 000 1.5zM525.09 1121.61a.75.75 0 000-1.5.75.75 0 000 1.5zM486.07 1125.73a.75.75 0 000-1.5.75.75 0 000 1.5zM449.66 1124.18a.75.75 0 000-1.5.75.75 0 000 1.5zM443.26 1156.53a.75.75 0 000-1.5.75.75 0 000 1.5zM457.21 1156.53a.75.75 0 000-1.5.75.75 0 000 1.5zM503.51 1155.18a.75.75 0 000-1.5.75.75 0 000 1.5zM560.43 1150.45a.75.75 0 000-1.5.75.75 0 000 1.5zM581.66 1153.22a.75.75 0 000-1.5.75.75 0 000 1.5zM634.27 1150a.75.75 0 000-1.5.75.75 0 000 1.5zM648.38 1149.55a.75.75 0 000-1.5.75.75 0 000 1.5zM710.2 1145.35a.75.75 0 000-1.5.75.75 0 000 1.5zM743.93 1148.4a.75.75 0 000-1.5.75.75 0 000 1.5zM764.51 1145.6a.75.75 0 000-1.5.75.75 0 000 1.5zM764.61 1177a.75.75 0 000-1.5.75.75 0 000 1.5zM737 1179.37a.75.75 0 000-1.5.75.75 0 000 1.5zM694.09 1180.83a.75.75 0 000-1.5.75.75 0 000 1.5zM673.5 1182.92a.75.75 0 000-1.5.75.75 0 000 1.5zM659.32 1179.91a.75.75 0 000-1.5.75.75 0 000 1.5zM597.49 1183.41a.75.75 0 000-1.5.75.75 0 000 1.5zM556.29 1186.91a.75.75 0 000-1.5.75.75 0 000 1.5zM544.26 1183.13a.75.75 0 000-1.5.75.75 0 000 1.5zM494.4 1187.62a.75.75 0 000-1.5.75.75 0 000 1.5zM459.67 1188.8a.75.75 0 000-1.5.75.75 0 000 1.5zM435.26 1190.33a.75.75 0 000-1.5.75.75 0 000 1.5zM435.85 1218.94a.75.75 0 000-1.5.75.75 0 000 1.5zM463.07 1222.21a.75.75 0 000-1.5.75.75 0 000 1.5zM490.63 1215.68a.75.75 0 000-1.5.75.75 0 000 1.5zM504.26 1218.71a.75.75 0 000-1.5.75.75 0 000 1.5z" fill="#fff"/><path d="M504.26 1218.71a.75.75 0 000-1.5.75.75 0 000 1.5zM546.55 1215.18a.75.75 0 000-1.5.75.75 0 000 1.5zM587.8 1214.48a.75.75 0 000-1.5.75.75 0 000 1.5zM624.76 1216a.75.75 0 000-1.5.75.75 0 000 1.5zM676.74 1208.66a.75.75 0 000-1.5.75.75 0 000 1.5zM699.62 1212.07a.75.75 0 000-1.5.75.75 0 000 1.5zM744.61 1208.44a.75.75 0 000-1.5.75.75 0 000 1.5zM343.94 1209.89a.75.75 0 000-1.5.75.75 0 000 1.5zM359.76 1213.9a.75.75 0 000-1.5.75.75 0 000 1.5zM406.17 1056.34a.75.75 0 000-1.5.75.75 0 000 1.5zM836.36 761.19a.75.75 0 000-1.5.75.75 0 000 1.5zM861.67 1166.35a.75.75 0 000-1.5.75.75 0 000 1.5zM833.51 1201.05a.75.75 0 000-1.5.75.75 0 000 1.5zM846.31 1196.65a.75.75 0 000-1.5.75.75 0 000 1.5zM859.82 1199.21a.75.75 0 000-1.5.75.75 0 000 1.5zM886.56 1199.63a.75.75 0 000-1.5.75.75 0 000 1.5z" fill="#fff"/><path d="M413.66 1052.08c-4.13 18.21-9 39.79-13.91 55.27-9.82 31-13.08 105-15.36 135.21-.95 12.67 4.66 27 4.66 27l-61 1.5c-16.33-18.73-8.93-129.51-14.45-197.93A619.73 619.73 0 01317.24 945s-18.06-297.33 26.67-324.28 145.47-89.52 145.47-89.52-.25-.24.72 2.61c4.12 12.15 21.13 51.38 86.21 51.38 80.36 0 82.85-55 82.85-55s131.41 49.1 142.29 56.21c38.3 25 52.88 331.94 52.88 331.94s19 68.76 22.89 124.63c5.57 81.26 18.66 177.57 17.84 189.79s-5.3 18.88-5.3 18.88h-58.1s-1.25-8-2.88-34.36c-1.9-30.61-17.16-87.16-32.82-134.18" fill="none" stroke="#262521" stroke-linecap="round" stroke-linejoin="round" stroke-width="3"/><path d="M760 716.23l6.39 91.36s12.21 120.34 16.1 167.27c5 60.95 34.19 222 24.8 238.24.78 13.6 4 50.63 4 50.63s-124.58 20.75-262.1 22.4c-77 .93-148.52-16.53-148.52-16.53s.36-37.51.31-50.49c-12.31-27.18 12.72-151.9 13.55-173.39 1.52-39-3.82-238.13-3.82-238.13L406 729.51" fill="none" stroke="#262521" stroke-linecap="round" stroke-linejoin="round" stroke-width="3"/><path d="M400.6 1269.6s71.52 17.46 148.52 16.53c137.52-1.65 262.1-22.4 262.1-22.4M477.93 546.4s21.5 56.91 100.81 56.91 94.26-62 94.26-62" fill="none" stroke="#636363" stroke-linecap="round" stroke-linejoin="round"/></svg>