<svg xmlns="http://www.w3.org/2000/svg" width="1000" height="1550" viewBox="0 0 1000 1550"><path fill="#fff" stroke="#262521" stroke-linecap="round" stroke-linejoin="round" stroke-width="3" d="M675.96 1248.11l20.11 342.24-158.71-1.86-28.9-196.6-25.52 8.67-8.83 196.25-153.94-.22-40.74-332.09M676.32 601.23C665.44 594.13 526.79 528 526.79 528s-9 42.68-63.91 47.58c-64.83 5.79-86.64-36-90.75-48.14l-87.92 73.81"/><path d="M296.2 1019s-11.62 57.37-21.45 88.33-13.08 105-15.36 135.21c-.95 12.67 4.66 27 4.66 27l-61 1.5c-16.33-18.73-8.93-129.51-14.45-197.93A619.73 619.73 0 01192.24 945s-18.06-297.33 26.67-324.28 145.47-89.52 145.47-89.52-.25-.24.72 2.61c4.12 12.15 21.13 51.38 86.21 51.38 80.36 0 82.85-55 82.85-55s131.41 49.1 142.29 56.21c38.3 25 52.88 331.94 52.88 331.94s19 68.76 22.89 124.63c5.57 81.26 18.66 177.57 17.84 189.79s-5.3 18.88-5.3 18.88h-58.1s-1.25-8-2.88-34.36c-2.47-39.8-31-134-48.07-177.22" fill="#fff" stroke="#262521" stroke-linecap="round" stroke-linejoin="round" stroke-width="3"/><path d="M711 1220.46s30.63-3.83 52.37 0M200.25 1238s30.64-3.84 52.37 0M352.93 546.4s21.5 56.91 100.81 56.91 94.26-62 94.26-62M537.51 563.23s79.7 67.61 93.92 112.55M366.35 567.2s-80 73.56-94.19 118.5" fill="none" stroke="#636363" stroke-linecap="round" stroke-linejoin="round"/><path d="M678 1225.76s9.17 34.22 6.12 45.91-62.42-5.22-174.81 13.26c-114 18.73-231.65 7.82-235.54-3s4.9-56.15 4.9-56.15z" fill="#fff" stroke="#262521" stroke-linecap="round" stroke-miterlimit="10" stroke-width="3"/><path d="M285.64 807.59s5.34 199.1 3.82 238.13c-.83 21.49-23.29 121.8-11 149 0 13-6.32 43-6.32 43s73.26 22.14 150.26 21.21c137.52-1.66 263.37-26.64 263.37-26.64s-6.69-30-7.46-43.63c14.49-25-19.07-143.81-20.87-213.77-1.22-47.58-16.1-167.27-16.1-167.27" fill="#fff" stroke="#262521" stroke-linecap="round" stroke-linejoin="round" stroke-width="3"/><path d="M289.46 1199.76s165.48 30.52 373.15-4.84" fill="none" stroke="#636363" stroke-linecap="round" stroke-linejoin="round"/><path d="M341.9 742.29c0 .2-.38.31-1.15.36a1.86 1.86 0 00-1.71.91 31.87 31.87 0 00-1.2 3.5c-.92 3.12-1.75 5.78-2.47 8q-1.86 5.63-3.37 10.86-.12.45-.33.45c-.12 0-.24-.1-.35-.32s-.45-1-1-2.33c-.7-1.74-1.46-3.48-2.27-5.24q-1-2.07-1.89-4.28-2.19 5.8-4.33 12.11c-.09.27-.2.41-.34.42s-.26-.19-.43-.56q-1.16-2.48-8.62-20.47a8.17 8.17 0 00-.78-1.58c-.16-.21-.57-.31-1.21-.31-1.1 0-1.65-.15-1.66-.42s.17-.31.54-.32a1.76 1.76 0 01.41 0h3.92c.27 0 .74 0 1.42-.11s1.55-.13 2.62-.16h.38c.39 0 .59.09.59.29s-.34.41-1 .45c-1.41.1-2.1.31-2.09.63q0 .95 6.92 17.41 2.1-5.79 3.13-8.54l-3.69-8.55a1.79 1.79 0 00-.67-.89 3.57 3.57 0 00-1.34-.19c-.64 0-1-.09-1-.27s.22-.37.7-.39.82 0 1.34 0h2.75l2.61-.09 3.78-.13c.84 0 1.86-.1 3.05-.22h.48c.55 0 .83.09.83.33s-.18.33-.57.34h-.58a5.28 5.28 0 00-2.32.49 7 7 0 00-1.19 2.47c-.25.64-.68 1.73-1.27 3.26-.12.35-.31.86-.55 1.55.17.45.72 1.68 1.63 3.71q1.77 3.85 2.92 6.62 1.74-5.54 4.1-13.11a33.53 33.53 0 001.23-4.47c0-.43-.42-.63-1.22-.6-1.12 0-1.69-.07-1.7-.32s.22-.34.68-.36a9 9 0 01.93 0 11 11 0 001.37 0l2.75-.1a3.88 3.88 0 011.13 0 .2.2 0 01.09.17zm-14.5.9h-.99c-.82.08-1.23.24-1.22.49 0 0 .75 2 2.23 5.81q.72-1.72 1.68-4.54c.09-.25.22-.58.4-1l.06-.27c-.03-.37-.74-.54-2.16-.49z"/><path d="M351.59 764.92c0 .19-.12.29-.4.3h-.34a46.68 46.68 0 00-4.67.06c-.58 0-1.15.07-1.72.13-.29 0-.75.06-1.37.08-.3 0-.45-.08-.46-.29s.29-.29.89-.33c.91-.06 1.44-.18 1.6-.38a4.32 4.32 0 00.17-2l-.62-17.85a4.93 4.93 0 00-.24-1.86c-.15-.22-.79-.33-1.93-.34-.44 0-.66-.08-.67-.22s.13-.27.41-.28l4.67-.16h2l1.31-.08c.37 0 .56.08.56.27s-.5.3-1.51.38c-.58 0-.93.15-1 .34a3 3 0 00-.15 1.42l.63 18.07a5.89 5.89 0 00.25 2.09 4.09 4.09 0 002.25.36c.21 0 .34.1.34.29zM371.42 761.84v2.91H370a17.55 17.55 0 00-1.78 0l-14.25.39c-.39 0-.59-.08-.6-.28s.3-.27.92-.34a3.37 3.37 0 001.55-.34c.17-.15.24-.58.21-1.28l-.66-19c0-.84-.13-1.32-.31-1.45a4.45 4.45 0 00-1.84-.14c-.44 0-.66-.1-.67-.35s.13-.3.4-.31h.31c.76 0 2.26 0 4.5-.05l1.2-.09c.6-.06 1.09-.09 1.48-.11h.38c.41 0 .62.09.62.32a.23.23 0 01-.18.26 7.43 7.43 0 01-1.18.12c-.66.05-1.05.17-1.17.37a4.6 4.6 0 00-.13 1.78l.7 20q.93 0 2.58-.06a26.61 26.61 0 005.64-.6 3.19 3.19 0 002.18-1.6 7.25 7.25 0 00.58-3c0-.3.14-.45.38-.46s.43.16.42.5v1.62zM394.61 752a11.2 11.2 0 01-3.89 9.45 13 13 0 01-8.19 2.73h-1.22l-3.14.11-1.72.06-2.71.09h-.51c-.44 0-.66-.09-.67-.31s.36-.32 1.09-.35c.94 0 1.52-.22 1.73-.57a3.37 3.37 0 00.1-1.29l-.64-18.23a4 4 0 00-.32-1.92 3.28 3.28 0 00-1.78-.21c-.53 0-.79-.09-.8-.34s.18-.28.57-.29h2.3l3.67-.13a31.4 31.4 0 018.79.54 9.35 9.35 0 015.18 3.85 12.5 12.5 0 012.16 6.81zm-3.84 0q-.21-5.62-2.52-8.18c-1.55-1.71-3.91-2.5-7.06-2.39-1.54 0-2.46.24-2.77.57a3.53 3.53 0 00-.15 1.64l.63 18a10.18 10.18 0 00.09 1.15.55.55 0 00.31.33 9.41 9.41 0 003.48.29 7.59 7.59 0 005.88-2.79q2.34-2.8 2.11-8.62zM425 762.42c0 .2-.17.3-.51.31a6.2 6.2 0 01-.62 0h-4.36l-4.36.28a2.76 2.76 0 01-.51.05c-.46 0-.69-.09-.7-.33s.3-.4.91-.42c2-.09 3-.32 3-.7a1.1 1.1 0 00-.08-.26l-.31-.89-.19-.46c-.23-.7-.79-2.22-1.67-4.59l-7.34.26a36.46 36.46 0 00-1.84 6.29.52.52 0 00.43.56c.07 0 .65.05 1.72.08.67 0 1 .1 1 .3s-.28.35-.88.37h-4.74a4.59 4.59 0 00-1.06.15 2.26 2.26 0 01-.45.07c-.32 0-.48-.09-.49-.29s.35-.33 1.07-.38a3.33 3.33 0 001.55-.37 1.92 1.92 0 00.72-1.13q4-12.65 6.49-20.31a3.51 3.51 0 01.29-.91l.12-.63c.06-.25.15-.37.26-.38s.13.06.18.2q.49 1.31 2.22 5.44 1.38 3.27 6.75 16.27a1.57 1.57 0 00.74 1 5.18 5.18 0 001.77.19c.6-.05.89.04.89.23zm-9.59-7.77c-.4-1-1.08-2.66-2-5l-1.82-4.65q-1.3 3.8-3.14 9.85z"/><path d="M442.4 759.36v2.92h-3.19l-14.25.4c-.39 0-.59-.08-.6-.29s.3-.27.92-.33a3.28 3.28 0 001.55-.35c.17-.15.24-.57.22-1.27l-.67-19c0-.83-.13-1.31-.31-1.44a4.27 4.27 0 00-1.84-.14c-.43 0-.66-.1-.66-.35s.12-.31.4-.32h.31q1.13.06 4.5-.06.3 0 1.2-.09c.59-.05 1.08-.09 1.47-.1h.38c.41 0 .62.09.63.31a.24.24 0 01-.18.26 8.69 8.69 0 01-1.18.13c-.67 0-1.06.17-1.18.36a4.5 4.5 0 00-.12 1.78l.69 20h2.58a27.52 27.52 0 005.65-.6 3.18 3.18 0 002.17-1.61 7.33 7.33 0 00.59-3c0-.29.13-.45.38-.45s.42.15.41.49V758zM465.71 749.61a12.45 12.45 0 01-2.78 8.63 9.68 9.68 0 01-7.41 3.75 10.37 10.37 0 01-8.09-3.26 12.47 12.47 0 01-3.53-8.6 12.23 12.23 0 012.81-8.75 10.3 10.3 0 017.82-3.64 9.75 9.75 0 017.78 3.25 12.81 12.81 0 013.4 8.62zm-3.84.3q-.22-6.21-2.91-9.58a5.29 5.29 0 00-4.58-2 5.43 5.43 0 00-4.19 1.81q-2.69 3.15-2.44 10c.13 3.64.87 6.44 2.24 8.41a6.12 6.12 0 005.54 2.83 5.31 5.31 0 004.81-3 16.81 16.81 0 001.53-8.47zM490.42 748.75a12.41 12.41 0 01-2.78 8.63 9.68 9.68 0 01-7.41 3.75 10.38 10.38 0 01-8.09-3.26 12.47 12.47 0 01-3.53-8.6 12.26 12.26 0 012.81-8.75 10.35 10.35 0 017.83-3.65 9.82 9.82 0 017.78 3.26 12.74 12.74 0 013.39 8.62zm-3.84.3q-.21-6.21-2.91-9.58a5.28 5.28 0 00-4.57-2 5.43 5.43 0 00-4.2 1.81q-2.67 3.15-2.44 10 .19 5.46 2.24 8.41a6.12 6.12 0 005.55 2.83 5.32 5.32 0 004.8-3 16.83 16.83 0 001.53-8.47zM510.28 741.79c0 .31-.1.48-.33.48s-.4-.27-.51-.84a6 6 0 00-1.8-3.53 4.58 4.58 0 00-2.58-.81h-2.74c-1.06 0-2.31.12-3.78.23l.35 9.95q4.39-.12 5.4-.75c.68-.42 1-1.54 1.12-3.37 0-.52.16-.79.39-.8s.35.16.36.5a2.67 2.67 0 010 .51c0 1.56 0 3 .05 4.33.06 1.72.14 3.07.25 4.06a1.82 1.82 0 010 .4c0 .27-.1.41-.32.42a.31.31 0 01-.35-.19 14.93 14.93 0 01-.3-1.55c-.23-1.37-.61-2.21-1.16-2.53a6.77 6.77 0 00-3.21-.4q-1.27 0-2.22.15l.12 3.45.23 6.63a1.17 1.17 0 00.82 1.22 5.51 5.51 0 001.67 0c.36 0 .55.07.55.25s-.22.31-.67.33h-.35l-1.3.05h-1.07l-5.11.18c-.43 0-.66-.07-.66-.25s.38-.31 1.17-.38 1.25-.2 1.38-.37a3.37 3.37 0 00.15-1.58l-.68-19.48q-.06-.62-.39-.75a6 6 0 00-1.8-.13c-.37 0-.56-.09-.56-.31s.19-.32.6-.33h.55l3.31-.12 5.55-.19a66.43 66.43 0 007.1-.45c0 .29.13 1.14.29 2.53.1.95.22 1.79.36 2.53a5.55 5.55 0 01.12.91zM537.64 757.7c0 .95-.75 1.45-2.35 1.51a4.83 4.83 0 01-4.27-2.06 5.11 5.11 0 01-.9-1.79c-.15-.59-.39-2.07-.72-4.45a4.11 4.11 0 00-1.52-3 6.92 6.92 0 00-3.94-.83l.37 10.66c0 .45.39.72 1.12.8h1.59c.29 0 .45.07.45.25s-.18.31-.57.33h-.41l-3 .11-1.75.06-1.58.05h-1.34c-.5 0-.76-.08-.76-.28s.32-.26 1-.31c1.08-.06 1.66-.21 1.74-.46a3.19 3.19 0 00.09-1.33l-.65-18.67c0-.9-.15-1.44-.35-1.61a3.32 3.32 0 00-1.78-.25q-.86 0-.87-.27t.54-.36h4.88l1.92-.12q1.36-.13 1.92-.15a8.22 8.22 0 015.11 1.22 4.54 4.54 0 012 3.74 4.84 4.84 0 01-1.79 4 9.43 9.43 0 01-5.15 2c-.21 0-.32.07-.35.11s.12.14.35.13c2.42.32 4.1 1.1 5.05 2.32s1.63 3.47 2 6.74c.25 1.85.92 2.75 2 2.71.34 0 .51-.08.51-.22v-.07a1.45 1.45 0 01-.19-.6c0-.47.22-.72.73-.74a.74.74 0 01.87.83zm-7.7-16.7c-.11-3.22-1.58-4.79-4.42-4.69a2.84 2.84 0 00-1.54.36 1.28 1.28 0 00-.37 1.1l.3 8.59q3.3-.08 4.71-1.35a4.85 4.85 0 001.32-4.01zM556.57 752.6v5.69q-3.37-.07-13.32.26l-2.37.09-1.58.05h-.3c-.44 0-.66-.06-.67-.25a.2.2 0 01.2-.21l1.3-.14c.6-.07.95-.2 1.07-.41a3.85 3.85 0 00.14-1.6l-.65-19.08c0-.66-.13-1-.33-1.16a5.1 5.1 0 00-1.88-.13c-.37 0-.55-.07-.56-.26s.24-.3.75-.32l5.87-.2 3.87-.14 4.81-.17a11.66 11.66 0 001.88-.2q.12 1.45.45 4l.19 1.45a2.33 2.33 0 010 .44c0 .22-.09.34-.3.35s-.44-.27-.58-.84c-.5-2-1.26-3.29-2.26-3.8-.75-.39-2.68-.52-5.79-.41l-2.81.09.34 10h.83c2.56-.09 4.12-.33 4.66-.74s.9-1.53 1-3.39c0-.47.14-.71.35-.72s.38.19.4.6 0 1 0 1.79v1.8c.08 2.41.18 4.07.28 5 0 .22 0 .41.05.57s-.11.44-.36.45-.27-.08-.34-.27-.18-.82-.35-1.87a2.69 2.69 0 00-1.76-2.41 14.55 14.55 0 00-3.22-.09h-1.54l.39 11.33a66.25 66.25 0 008.85-.61c1.5-.38 2.31-1.84 2.43-4.36 0-.56.16-.84.41-.85s.43.2.45.67zM575.25 751.24a5.42 5.42 0 01-3 5.22 11.42 11.42 0 01-4.39 1.17c-.53 0-2.09.11-4.67.2L559 758c-.39 0-.59-.07-.59-.26s.34-.3 1.05-.33 1.31-.13 1.45-.3a3.06 3.06 0 00.17-1.55l-.64-18.3a5.27 5.27 0 00-.2-1.72c-.17-.27-.75-.39-1.76-.38-.62 0-.93-.09-.94-.33s.27-.33.85-.35h.41a2.93 2.93 0 00.69.08l6.69-.24a10.48 10.48 0 015.57 1 4.51 4.51 0 012.27 4 4.73 4.73 0 01-1.62 3.83 9.07 9.07 0 01-4.84 2v.2a10.58 10.58 0 014.92 1.12 5.37 5.37 0 012.77 4.77zm-5-11.51c-.08-2.16-.63-3.59-1.67-4.28a5.48 5.48 0 00-3-.47c-.39 0-1 .07-1.82.17l.34 9.81h.31l1.89-.14a3.93 3.93 0 003-1.47 5.47 5.47 0 00.95-3.62zm1.38 11.27c-.09-2.85-1.32-4.56-3.68-5.16a15.42 15.42 0 00-3.82-.17l.35 10.08c0 .65.1 1 .25 1.11a4.36 4.36 0 001.93.17 5 5 0 003.72-1.62 6.14 6.14 0 001.25-4.41zM596.15 751.22v5.69q-3.37-.07-13.33.26l-2.37.09H578.53c-.43 0-.65-.06-.66-.25s.06-.19.2-.21l1.3-.14c.59-.07 1-.2 1.07-.41a3.92 3.92 0 00.13-1.6l-.57-19.01c0-.66-.14-1-.34-1.16a5 5 0 00-1.87-.13c-.37 0-.56-.07-.56-.26s.24-.3.74-.32l5.87-.2 3.88-.14 4.81-.17a11.78 11.78 0 001.88-.2q.12 1.46.45 4l.19 1.45a3.62 3.62 0 01.05.44c0 .22-.1.34-.3.35s-.45-.27-.58-.84q-.77-3-2.26-3.8c-.75-.39-2.68-.52-5.79-.41l-2.82.09.35 9.95h.82c2.57-.09 4.12-.33 4.67-.74s.89-1.53 1-3.39q0-.71.36-.72t.39.6v3.59c.09 2.41.18 4.07.29 5v.57c0 .16-.11.44-.36.45s-.27-.08-.33-.27-.18-.82-.36-1.87a2.67 2.67 0 00-1.76-2.41 14.51 14.51 0 00-3.22-.09h-1.53l.39 11.33a66.6 66.6 0 008.85-.61c1.49-.38 2.3-1.84 2.42-4.36 0-.56.17-.84.42-.85s.38.23.4.7zM616 753.31v2.91H612.85l-14.26.39c-.39 0-.58-.08-.59-.28s.3-.27.92-.34a3.41 3.41 0 001.55-.34c.16-.15.23-.58.21-1.28l-.66-19c0-.83-.14-1.31-.31-1.44a4.29 4.29 0 00-1.84-.14c-.44 0-.66-.1-.67-.35s.13-.31.4-.32h.31q1.14.06 4.5-.06c.21 0 .61 0 1.2-.09s1.08-.09 1.47-.1h.38c.41 0 .62.1.63.32a.23.23 0 01-.18.26 8.46 8.46 0 01-1.18.13q-1 .06-1.17.36a4.63 4.63 0 00-.13 1.78l.7 20h2.57a27.25 27.25 0 005.65-.61 3.19 3.19 0 002.18-1.6 7.38 7.38 0 00.58-3c0-.3.14-.45.38-.46s.42.16.41.5V752.17z"/></svg>