<svg xmlns="http://www.w3.org/2000/svg" width="1000" height="1550" viewBox="0 0 1000 1550"><path d="M376.07 526.55s6 61.56 73.42 58.47 75-58.47 75-58.47l124.35 50.1-189.27 169.17L271.71 617z" fill="#262521" stroke="#262521" stroke-linecap="round" stroke-linejoin="round" stroke-width="3"/><path d="M547.31 523.42c-3-3.77-14.09-17.94-33.28-16.85.85 13.67 2.06 15.79 6.14 19.29 1.88 1.61 7.6 4.25 15.59 7.45-.84 3.66 21.6 29 22.7 25.57 2.21-6.88-4.23-26.79-11.15-35.46zM481.08 620.33c-.42.32-.85.63-1.28.93a4.32 4.32 0 00-1.53 2 4.15 4.15 0 00-2.45.57l-1.37.77a3.7 3.7 0 01-4.24 2l-1.46.59a4.16 4.16 0 00-2 1.54 4.33 4.33 0 00-2.5-.07c-.5.14-1 .28-1.52.4a4.24 4.24 0 00-2.14 1.27 4.21 4.21 0 00-2.47-.38l-1.56.2a4.18 4.18 0 00-2.3 1 4.12 4.12 0 00-2.4-.69h-1.59a4.52 4.52 0 00-2.41.72 4.3 4.3 0 00-2.32-1c-.52 0-1-.11-1.55-.18a4.28 4.28 0 00-2.47.4 4.27 4.27 0 00-2.15-1.25c-.51-.11-1-.24-1.52-.38a4.3 4.3 0 00-2.49.08 4.18 4.18 0 00-2-1.52c-.49-.18-1-.38-1.46-.58a4.18 4.18 0 00-2.48-.24 4.25 4.25 0 00-1.77-1.77c-.47-.25-.93-.51-1.38-.77a4.22 4.22 0 00-2-.55c0 3-.08 6-.16 9a4.29 4.29 0 002.42.23 4.18 4.18 0 002.13 1.94c.57.24 1.14.47 1.72.69a4.23 4.23 0 002.89 0 4.21 4.21 0 002.37 1.66c.59.16 1.19.31 1.79.45a4.26 4.26 0 002.87-.33 4.27 4.27 0 002.56 1.32l1.83.22a4.27 4.27 0 002.8-.7 4.26 4.26 0 002.71 1h1.8a4.26 4.26 0 002.69-1 4.21 4.21 0 002.8.66c.61-.07 1.22-.14 1.82-.23a4.25 4.25 0 002.55-1.35 4.29 4.29 0 002.88.31l1.78-.47a4.25 4.25 0 002.36-1.67 4.29 4.29 0 002.89-.07c.58-.22 1.14-.45 1.71-.69a4.89 4.89 0 015-2.4c.54-.3 1.08-.6 1.61-.91A4.25 4.25 0 00482 629h.21c-.37-2.87-.75-5.77-1.13-8.67z" fill="#262521"/><path d="M425.76 625.42l-1.42-.84h-.07c0 1.3 0 2.6-.07 3.9a1.65 1.65 0 00.71.17 1.71 1.71 0 00.85-3.19zM437.93 630.27c-.53-.13-1.07-.27-1.59-.42a1.72 1.72 0 00-2.11 1.19 1.7 1.7 0 001.19 2.1q.84.24 1.71.45a1.83 1.83 0 00.4 0 1.71 1.71 0 00.4-3.37zM431.68 628.27c-.51-.2-1-.42-1.52-.64a1.71 1.71 0 10-1.38 3.13c.53.24 1.08.46 1.62.68a1.63 1.63 0 00.64.13 1.71 1.71 0 00.64-3.3zM476.21 624.2l-1.45.8a1.71 1.71 0 00.8 3.22 1.79 1.79 0 00.8-.2c.52-.28 1-.56 1.55-.86a1.71 1.71 0 00-1.7-3zM470.27 627.14c-.5.21-1 .42-1.53.62a1.71 1.71 0 00.62 3.3 1.87 1.87 0 00.64-.06l1.64-.67a1.71 1.71 0 00-1.34-3.14zM444.4 631.34c-.55-.05-1.09-.11-1.63-.18a1.71 1.71 0 10-.44 3.39c.58.07 1.17.14 1.76.19h.16a1.71 1.71 0 00.15-3.41zM457.59 630.79L456 631a1.71 1.71 0 00.22 3.4h.23l1.74-.26a1.71 1.71 0 00-.55-3.38zM451 631.49h-1.66a1.71 1.71 0 000 3.42c.59 0 1.18 0 1.77-.05a1.71 1.71 0 10-.15-3.41zM464 629.34c-.53.15-1.06.3-1.6.43a1.71 1.71 0 00.42 3.37 2.1 2.1 0 00.43 0c.57-.15 1.14-.3 1.69-.46a1.71 1.71 0 10-.94-3.29zM481.79 620.59l-1.36 1a1.71 1.71 0 00-.44 2.37 1.69 1.69 0 001.41.74 1.66 1.66 0 001-.3c.48-.33 1-.66 1.43-1a1.71 1.71 0 10-2-2.76z" fill="#b6b5af"/><path d="M444.42 633.71c-.55-.07-1.1-.15-1.64-.24a1.69 1.69 0 00-2 1.4 1.7 1.7 0 001.4 2l1.75.26h.22a1.71 1.71 0 00.23-3.41zM431.67 630.32l-1.52-.65a1.71 1.71 0 00-1.39 3.12l1.62.69a1.64 1.64 0 00.65.13 1.71 1.71 0 00.64-3.29zM437.94 632.42c-.54-.14-1.06-.29-1.59-.45a1.71 1.71 0 00-1 3.28c.56.17 1.13.33 1.7.48a1.67 1.67 0 00.44.06 1.71 1.71 0 00.44-3.37zM451 634.18h-1.66a1.71 1.71 0 10-.14 3.41c.58 0 1.17 0 1.76.05a1.71 1.71 0 000-3.42zM425.71 627.45l-1.43-.83c0 1.3-.05 2.59-.08 3.88a1.65 1.65 0 00.72.17 1.71 1.71 0 00.83-3.2zM476.44 628c-.48.26-1 .52-1.47.76a1.72 1.72 0 00-.76 2.3 1.71 1.71 0 002.29.76c.53-.26 1.05-.54 1.57-.82a1.71 1.71 0 10-1.63-3zM482.07 624.47c-.45.32-.9.63-1.36.93a1.71 1.71 0 00.94 3.14 1.73 1.73 0 00.94-.29c.49-.32 1-.65 1.45-1a1.71 1.71 0 10-2-2.79zM470.44 630.73c-.51.2-1 .39-1.55.57a1.71 1.71 0 00.56 3.33 1.9 1.9 0 00.57-.1c.55-.2 1.11-.4 1.65-.61a1.71 1.71 0 10-1.23-3.19zM464.14 632.7c-.53.14-1.07.26-1.61.37a1.71 1.71 0 00.35 3.38h.35c.58-.12 1.15-.25 1.72-.39a1.71 1.71 0 00-.81-3.33zM457.63 633.85L456 634a1.71 1.71 0 00.13 3.41h.14c.59 0 1.17-.1 1.75-.16a1.71 1.71 0 00-.38-3.4z" fill="#7f7e78"/><path d="M475.56 628.22a1.71 1.71 0 01-.81-3.22l1.46-.8a1.71 1.71 0 011.7 3c-.51.3-1 .58-1.55.86a1.79 1.79 0 01-.8.16zm5.84-3.56a1.69 1.69 0 01-1.41-.74 1.71 1.71 0 01.44-2.37l1.36-1a1.71 1.71 0 112 2.76c-.47.35-.95.68-1.43 1a1.66 1.66 0 01-.96.35z" fill="#fff" opacity=".86"/><path d="M481.65 628.54a1.71 1.71 0 01-.94-3.14c.46-.3.91-.61 1.36-.93a1.71 1.71 0 112 2.79c-.48.34-1 .67-1.45 1a1.73 1.73 0 01-.97.28z" fill="#fff" opacity=".86"/><path d="M292.57 1019s-5.62 57.37-15.45 88.33c-6.13 19.28-3.38 94.33-7.88 147.08.8 30.63 6.53 40 5.51 47.56s-56.84 32.74-74.53 22.39c0 0-3.67-41.33-6-57.26-25.38-84-5.58-322.1-5.58-322.1S160 654.19 215.28 620.74c44.68-27 145.46-89.52 145.46-89.52s-.24-.24.72 2.61C365.58 546 428 684.66 453.9 685.23s76.62-155 76.62-155 131.1 49.6 142.29 56.21c57.48 33.94 58.89 331.94 58.89 331.94s47.92 242.26 31.42 338.53c6.4 19.17 5.82 52.14 5.82 52.14s-75.8 3.64-76.51-1.56c1.76-12.52 1.93-28.77.94-47.13-12.18-71.21-27.59-185.56-41.3-220.26" fill="#262521" stroke="#262521" stroke-linecap="round" stroke-linejoin="round" stroke-width="3"/><path d="M285.64 807.59s12.42 218.05 6.72 252.8c-18.62 136.08-18.62 509.46-18.62 509.46s71 16.39 148 15.47c137.52-1.66 276-33.37 276-33.37s-28.17-464-50.64-562.71c-12-52.81-5.7-181.65-5.7-181.65" fill="#262521" stroke="#262521" stroke-linecap="round" stroke-linejoin="round" stroke-width="3"/><path d="M363.76 535.36c10.39-5.26 17.73-10.2 19.27-14.15 2.33-6 3-5.53 3-14.71-14.33.78-25.65 8.3-28.65 12.41-9.89 13.57-12.29 22.14-6.63 32.89s14.49-12.35 13.01-16.44z" fill="#262521"/><path d="M375.63 520.87c2 12.42-.84 32.74 54.62 55.41 6.34 4.5 28.4 226.85 28.4 226.85L476.36 602s-15.83.4-17.23-1.52 1.3-20.9 2.16-21.31c84.78-40.71 56.93-57.8 56.93-57.8l32.2 24.34s-96.63 324-96.63 320.77c0-2.34-68.29-190.62-88.69-289.82-7.57-36.81 4.82-54.66 10.53-55.79z" fill="#262521" stroke="#262521" stroke-linecap="round" stroke-linejoin="round" stroke-width="3"/><path d="M430.25 576.28c6.34 4.5 28.4 226.85 28.4 226.85L476.36 602s-15.83.4-17.23-1.52 1.29-20.91 2.16-21.31" fill="none" stroke="#636363" stroke-linecap="round" stroke-linejoin="round"/><circle cx="469.95" cy="589.87" r="5.13" fill="#8d8d8d"/><circle cx="421.74" cy="585.05" r="5.13" fill="#8d8d8d"/><path fill="none" stroke-dasharray="2 5" stroke-linecap="round" stroke-linejoin="round" stroke-width="3" stroke="#95875a" d="M478.24 604.55l-17.95 203.04M433.64 599.6c5.78 33 23.66 208 23.66 208M458.65 803.13l22.01 701.73"/><path fill="none" stroke="#636363" stroke-linecap="round" stroke-linejoin="round" d="M628.15 721.7H512.88v169.75"/><path fill="none" stroke-dasharray="2 5" stroke-linecap="round" stroke-linejoin="round" stroke-width="3" stroke="#95875a" d="M510.58 725.98v165.47"/><path d="M461.49 803.13h-5.82a2.89 2.89 0 00-2.6 2.39l-1.12 20.35c-.05 1-.11 1.92-.16 2.89a3 3 0 003.1 3.37h8.45a2.62 2.62 0 002.17-1.34l.06-.1a1.14 1.14 0 00.1-.19 2.17 2.17 0 00.16-.38.53.53 0 000-.12 2.6 2.6 0 00.1-.4 2.41 2.41 0 000-.6q-.6-10.17-1.19-20.35c-.06-1-.11-1.92-.17-2.89a3 3 0 00-3.08-2.63zm1 17.84l-.09 5.35a1.93 1.93 0 01-2 1.9l-2.89-.05a1.93 1.93 0 01-1.9-2l.08-5.34a1.93 1.93 0 012-1.9h2.9a1.94 1.94 0 011.91 2.07z" fill="#a9a8a4"/><rect x="456.8" y="799.86" width="4.17" height="12.56" rx=".68" transform="rotate(180 458.885 806.14)" fill="#cbcac5"/><path d="M512.68 725.92h-5.82a2.91 2.91 0 00-2.6 2.4l-1.12 20.34c-.05 1-.11 1.93-.16 2.89a3 3 0 003.1 3.38h8.45a2.61 2.61 0 002.17-1.34l.06-.09a1.74 1.74 0 00.1-.19 2.54 2.54 0 00.16-.38.53.53 0 000-.12 1.79 1.79 0 00.09-.4 2.52 2.52 0 000-.61q-.6-10.17-1.19-20.34c-.06-1-.12-1.93-.17-2.89a3 3 0 00-3.07-2.65zm1 17.85l-.09 5.34a1.93 1.93 0 01-2 1.9h-2.89a1.93 1.93 0 01-1.9-2l.08-5.35a1.94 1.94 0 012-1.9h2.9a1.93 1.93 0 011.91 2.01z" fill="#a9a8a4"/><rect x="507.99" y="722.66" width="4.17" height="12.56" rx=".68" transform="rotate(180 510.075 728.935)" fill="#cbcac5"/></svg>