<svg xmlns="http://www.w3.org/2000/svg" width="1250" height="1550" viewBox="0 0 1250 1550"><title>s04e08-03</title><path d="M410.48,584.55c6.84,11.32,184.23,347.7,184.23,347.7S776.75,586.17,779,578c-41.3-16.48-117-45.78-117-45.78s-2.49,55-82.84,55c-65.09,0-87-52.89-87-53C491.56,534.61,449.38,560.73,410.48,584.55Z" fill="#262521"/><path d="M492.15,534.24l0,0S492.16,534.2,492.15,534.24Z" fill="#262521"/><path d="M488.33,518.62S336.4,605.9,330.59,628.48s-7.87,311.52-15,349.68,1.18,190.61,1.18,190.61l487.89-10.23,87.63-22.26s-9.24-170.44-23.37-204-41.89-334.2-54.61-345S657.47,519,657.47,519,690,802.06,616.82,818.73,488.33,518.62,488.33,518.62Z" fill="#fff" stroke="#262521" stroke-linecap="round" stroke-linejoin="round" stroke-width="3"/><path d="M416.78,1099.31s-109.51-14-110.59,0-3.26,63.92,2.71,72.06,111,0,111,0" fill="#fff" stroke="#262521" stroke-linecap="round" stroke-linejoin="round" stroke-width="3"/><path d="M801.33,1175.48s110.41-.23,109.67-14.3-5-63.8-12-71.1-110,14.35-110,14.35" fill="#fff" stroke="#262521" stroke-linecap="round" stroke-linejoin="round" stroke-width="3"/><path d="M412.47,1075.28c-2.89,162.43-7.58,484-7.58,484H834.16s-23.58-313.76-37.22-484Z" fill="#fff"/><path d="M416.53,744.31s-3.1,44.58-.73,71.33c1.08,12.1-10.91,743.68-10.91,743.68H834.16S775.53,774.41,772.41,756.8" fill="none" stroke="#262521" stroke-linecap="round" stroke-linejoin="round" stroke-width="3"/><path d="M669.59,714.23c-1,1.68-4.33,8.47.26,8.29a6.52,6.52,0,0,0,3.88-2.15,16.75,16.75,0,0,0,3.62-5.61l-2.17-.6c-.71,2.65-1.45,5.28-2.33,7.87-.69,2-1.45,5-3.14,6.42-.23.2-.18.08-.11.12a.83.83,0,0,1-.2-.34,2.94,2.94,0,0,1,.14-.48,4.63,4.63,0,0,1,.79-1.17,51,51,0,0,1,6.19-5.65c2.48-2.12,5.09-4.35,6.76-7.21l-2.09-.56c0,2.17.69,4.28.71,6.45,0,.53,0,1.39-.46,1.71-.88.55-2.58-.24-3.39-.55-1.37-.51-1.92,1.63-.6,2.17a8.62,8.62,0,0,0,10.2-2.3c2.57-2.9,4-6.59,5.75-10l-2.06-.87a27.78,27.78,0,0,1-1.62,4.47,29.64,29.64,0,0,0-1.84,5.8c-.23,1.39-.28,3.34,1.37,3.87,2,.64,3.84-1.26,5-2.64,1.53-1.83,3.46-5.46,6.33-4.69v-2.16c-2.28.61-4.67,1.71-6,3.78a3.8,3.8,0,0,0-.26,4.14c1,1.37,2.72,1.18,4,.32,2.33-1.6,3.54-4.63,4.48-7.17l-2.17-.59c-.47,1.72-1.44,4.49-.46,6.22.81,1.43,2.44,1,3.53.17a20.34,20.34,0,0,0,4-4.35,41.24,41.24,0,0,0,3.66-5.82A12.2,12.2,0,0,0,713.1,706a2.23,2.23,0,0,0-2.88-2.35c-1.94.49-3,2.67-3.59,4.37a24.94,24.94,0,0,0-1.4,7.46c-.09,2.13-.16,5.12,1.34,6.84,1.69,2,4,.35,5.26-1.17.94-1.09-.64-2.69-1.59-1.59a7.08,7.08,0,0,1-1.65,1.42c-.17.1-.14,0-.16,0s-.18-.16-.19-.18a8.89,8.89,0,0,1-.78-4.38,24.58,24.58,0,0,1,.78-6c.38-1.45.91-3.34,2.07-4.31.05,0,.39-.24.4-.25.28-.09.06,0,.22,0s0,0,0,0-.21-.19-.09-.05c-.13-.15,0-.14,0,0v.14a5.29,5.29,0,0,1-.33,1.53,16.08,16.08,0,0,1-.84,2,34.71,34.71,0,0,1-6.06,8.87,8.67,8.67,0,0,1-1.51,1.3c-.23.15-.38.07-.43.2,0-.07.27,0,.39.15s0,0,.07.14a1.58,1.58,0,0,1-.09-.31c0,.27,0-.2,0-.27s0-.39,0-.58a18.6,18.6,0,0,1,.72-3.47c.39-1.41-1.67-1.93-2.17-.59-.72,2-1.63,4.29-3.28,5.68a3,3,0,0,1-.93.53c-.21,0-.21,0-.22,0a1.42,1.42,0,0,1-.1-.57,2.88,2.88,0,0,1,.65-1.43,8.22,8.22,0,0,1,4.43-2.48,1.13,1.13,0,0,0,0-2.16c-3.17-.86-5.41,1.36-7.23,3.66a14.55,14.55,0,0,1-2.94,3.31,3.76,3.76,0,0,1-1.1.37c.16,0,.16.18.15,0-.23-3.9,2.73-7.6,3.48-11.42.24-1.18-1.43-2.06-2-.87-1.56,3-2.8,6.23-4.88,8.9a8.17,8.17,0,0,1-3.39,2.77,7,7,0,0,1-5.14-.42l-.6,2.17c2.44.92,5.94,1.41,6.59-1.92.51-2.6-.54-5.27-.6-7.86a1.14,1.14,0,0,0-2.1-.57c-1.72,2.94-4.57,5.19-7.13,7.37-2.21,1.88-5,3.79-6.46,6.36-1,1.65-.59,4.56,1.88,4.49s3.65-3.66,4.37-5.44a87.09,87.09,0,0,0,3.35-10.61c.38-1.44-1.63-1.89-2.17-.6-.91,2.18-2.67,5.24-5.08,6-.35.12-.47,0-.36.14,0,0,0,.06,0,0s0-.29,0-.44c0-1.56,1.08-3.23,1.82-4.53a1.12,1.12,0,0,0-1.94-1.13Z" fill="#3b4f44"/><path d="M688.7,714.27c1.71,0,3.42,0,5.13,0a1.13,1.13,0,0,0,0-2.25c-1.71,0-3.42,0-5.13,0a1.13,1.13,0,0,0,0,2.25Z" fill="#3b4f44"/><path d="M728.5,707.56c-1.36-1.12-3-2.12-4.87-1.77a4.13,4.13,0,0,0-3,2.72c-1.28,3.4.93,6.69,4,8l-.27-2.06c-2.64,1.47-8,5.4-4.71,8.85,2.55,2.64,7.26,1.6,10-.09a13.77,13.77,0,0,0,5-5.53,21.13,21.13,0,0,0,2.25-10c-.08-1.44-1.55-2.92-3-2.12s-1.78,3.86-2,5.46a26.19,26.19,0,0,0,.14,6.44,12.08,12.08,0,0,0,1.35,4.64c.69,1.13,2,1.81,3.11.81s1.62-2.65,2.15-4,1.21-2.86,1.67-4.3c0-.08.13-.19.14-.27,0-.46-.9-.44-1.1.08a7.14,7.14,0,0,0,0,1.31,30.43,30.43,0,0,1-.73,3.9,1.13,1.13,0,0,0,2.17.6c.66-1.69,1.1-3.5,1.91-5.12a6.12,6.12,0,0,0,.58-.92c.06-.27.63,0-.12-.27-.38-.12,0-.27-.08.07a2.57,2.57,0,0,0,.09.6c.23,2.55-.38,5.12-.24,7.68.07,1.21,1.92,1.59,2.21.29s.64-2.64,1-3.95c.28-1,.57-2,.93-3a8.18,8.18,0,0,1,.39-1c.29-.59.51-.47-.37-.59s-.66-.21-.53.41c.07.35.1.71.14,1.06.11,1,.21,2,.38,3,.29,1.64.86,3.85,2.68,4.4,2.15.66,4.14-1.17,5.28-2.77a10.81,10.81,0,0,0,2.19-6.78c0-.21,0-.83-.2-1,.38.39-1.55,1.26-1.5,1.13,0,.07-.16-.25,0,0a6.36,6.36,0,0,0,.7.82,18.84,18.84,0,0,1,2,3.25,8.62,8.62,0,0,1,.64,1.85,3.05,3.05,0,0,1,0,.71s-.1.32-.05.18c0,.05,0,.1-.26.11a4.08,4.08,0,0,1-.86,0,13.1,13.1,0,0,1-3.55-1.17l-.87,2c3.58,1.46,8.15,1.32,11-1.53,1-1-.57-2.63-1.59-1.6-2.28,2.31-6,2.12-8.79,1-1.17-.47-2,1.54-.87,2.06,1.82.81,4.26,2,6.31,1.36A2.8,2.8,0,0,0,761,719.2a14,14,0,0,0-3.89-7.24c-1.09-1-2.5-.37-2.23,1.15a8.28,8.28,0,0,1-2.82,7c-.58.48-1.45,1-2,.32a6.35,6.35,0,0,1-.85-2.87c-.17-1.08-.24-2.16-.4-3.24a2.8,2.8,0,0,0-.82-2c-2.79-2.12-4.66,8-5,9.55l2.21.3a51.6,51.6,0,0,1,.23-5.42c.06-1.32.27-3.16-.54-4.32-1-1.39-2.69-.62-3.52.48-1.41,1.87-1.88,4.47-2.73,6.62l2.17.6a21.44,21.44,0,0,0,.85-5.5c-.06-1.17-.74-2.73-2.22-2.32-.85.24-1.16,1.28-1.45,2-.49,1.21-.92,2.45-1.4,3.66-.23.6-.47,1.19-.75,1.76a10.47,10.47,0,0,0-.68,1.22c-.06.16-.24.37.18.08.24-.17.09.24.11,0s-.54-1.13-.64-1.45a21,21,0,0,1-.32-10.53,5.11,5.11,0,0,0,.35-1.25c0-.2.4-.3-.28-.33.21,0,0,.14.08,0a11.45,11.45,0,0,0-.16,2.48,20.5,20.5,0,0,1-.94,4.45,13.21,13.21,0,0,1-3.55,5.68,9.56,9.56,0,0,1-4.49,2.3,6.05,6.05,0,0,1-3.5-.26,3.84,3.84,0,0,1-.39-.22c-.25-.16-.09-.05-.18-.13-.31-.27-.25-.21-.38-.46A1.11,1.11,0,0,1,721,721c0-.35,0-.28.12-.71.55-1.61,2.86-3,4.46-3.92a1.14,1.14,0,0,0-.27-2,4.13,4.13,0,0,1-2.61-4.86c.71-2.22,2.87-1.46,4.26-.31,1.11.91,2.71-.67,1.59-1.59Z" fill="#3b4f44"/><path d="M666.51,731.63h1.55v7.76h4.22v1.41h-5.77Z" fill="#3b4f44"/><path d="M673.23,736.22c0-3.09,1.82-4.76,4.15-4.76s4.13,1.67,4.13,4.76S679.7,741,677.38,741,673.23,739.3,673.23,736.22Zm6.72,0c0-2.16-1-3.34-2.57-3.34s-2.59,1.18-2.59,3.34,1,3.36,2.59,3.36S680,738.37,680,736.22Z" fill="#3b4f44"/><path d="M683.15,731.63h2.61c2.88,0,4.76,1.34,4.76,4.55s-1.92,4.62-4.76,4.62h-2.61Zm2.75,7.78c2.09,0,3.07-.91,3.07-3.23s-1-3.11-3.09-3.11H684.7v6.34Z" fill="#3b4f44"/><path d="M691.73,736.18c0-2.94,1.6-4.72,4-4.72a3.39,3.39,0,0,1,3.56,2.88l-1.44.39c-.41-1.38-1-1.84-2.13-1.84s-2.47.67-2.47,3.25,1.23,3.45,2.53,3.45a2,2,0,0,0,2.14-2.07h-1.84v-1.25h3.33v4.53h-1.27v-1.32h0a2.65,2.65,0,0,1-2.5,1.5C693,741,691.73,739,691.73,736.18Z" fill="#3b4f44"/><path d="M701.41,731.63h5.93v1.44H703v2.28h3.21v1.37H703v2.67h4.63v1.41h-6.18Z" fill="#3b4f44"/><path d="M711.51,738.53c0-1.42,1-2.19,2.12-2.76a4.25,4.25,0,0,1-.6-2.06,2.2,2.2,0,0,1,2.41-2.25,1.92,1.92,0,0,1,2.19,1.9c0,1.33-1,2.06-2.19,2.66.18.27.4.57.66.89a18.83,18.83,0,0,0,1.24,1.43,5.17,5.17,0,0,0,.75-2.2h1.35a6.93,6.93,0,0,1-1.07,2.94,3.06,3.06,0,0,0,1.76.57v1.28a4.69,4.69,0,0,1-2.71-.81,4.31,4.31,0,0,1-2.74.86C712.67,741,711.51,740,711.51,738.53Zm4.89.8a17.65,17.65,0,0,1-1.45-1.64c-.28-.36-.53-.68-.75-1a2,2,0,0,0-1.15,1.65c0,.95.66,1.4,1.77,1.4A2.73,2.73,0,0,0,716.4,739.33Zm-.08-5.84a.82.82,0,0,0-.86-.86.89.89,0,0,0-1,1,3.07,3.07,0,0,0,.45,1.55C715.7,734.74,716.32,734.29,716.32,733.49Z" fill="#3b4f44"/><path d="M724,738.65l1.23-.65a2.66,2.66,0,0,0,2.53,1.6c1.12,0,1.87-.36,1.87-1.19s-.57-1.17-2.08-1.61c-1.77-.52-3.2-1-3.2-2.75,0-1.57,1.28-2.59,3.14-2.59a3.61,3.61,0,0,1,3.43,2l-1.13.78a2.52,2.52,0,0,0-2.31-1.34c-1,0-1.6.37-1.6,1,0,.86.65,1.14,2.15,1.59,1.74.5,3.13,1.08,3.13,2.8,0,1.5-1.28,2.68-3.46,2.68A3.83,3.83,0,0,1,724,738.65Z" fill="#3b4f44"/><path d="M732.8,731.63H736c2,0,3.53.69,3.53,2.81s-1.7,2.88-3.58,2.88h-1.63v3.48H732.8ZM736,736c1.36,0,2-.42,2-1.48s-.62-1.45-2-1.45h-1.69V736Z" fill="#3b4f44"/><path d="M743.53,731.59h1.53l3.25,9.21h-1.59l-.74-2.18h-3.49l-.75,2.18h-1.45Zm2,5.67-1.26-3.72h0L743,737.26Z" fill="#3b4f44"/><path d="M662.08,709.12a3.91,3.91,0,0,0-3.76-2.74,5.34,5.34,0,0,0-4.25,2.55,13.65,13.65,0,0,0-1.75,5.69c-.29,2-.76,4.4.19,6.26a5.72,5.72,0,0,0,3.77,3,4.3,4.3,0,0,0,4.1-1.74,19.28,19.28,0,0,0,2.82-4.58c.69-1.56,1.87-3.84.52-5.38a2.41,2.41,0,0,0-2.26-.82,1.86,1.86,0,0,0-1.44,2.24,2.15,2.15,0,0,0,1.84,1.38,32.59,32.59,0,0,0,3.57.25l-1-1.69c-.82,1.55-1.64,3.23-1.37,5,.24,1.61,1.62,3.18,3.38,2.91a4.71,4.71,0,0,0,2.68-2.07,12.57,12.57,0,0,0,1.84-3.09,1.12,1.12,0,0,0-.78-1.38,1.15,1.15,0,0,0-1.39.78,9.33,9.33,0,0,1-2.45,3.4c-.25.19-.21.21-.43.09a1.31,1.31,0,0,1-.66-1.21,6.72,6.72,0,0,1,1.12-3.33,1.14,1.14,0,0,0-1-1.69l-2.47-.15a3.9,3.9,0,0,0-.89-.09c-.31-.17-.39.1-.25.81a.23.23,0,0,1,.17.08c.2,1.33-.77,3-1.42,4.17a14.47,14.47,0,0,1-2.09,3.09,1.93,1.93,0,0,1-2.84.28c-1.29-.93-1.46-2.14-1.37-3.64a26.68,26.68,0,0,1,.75-5,5.21,5.21,0,0,1,2.23-3.53,1.79,1.79,0,0,1,2.66.79,1.13,1.13,0,0,0,2.17-.6Z" fill="#3b4f44"/><path d="M580.13,884.16S448.06,676.84,439,645.15s-9.05-103-4.52-117.71,58.81-46.62,76.92-47.75c7,59.43-13.9,52.57-13.9,52.57q.18,3,.39,6.33c2.13,32.78,62.37,226,101.79,278.09" fill="#fff" stroke="#262521" stroke-linecap="round" stroke-linejoin="round" stroke-width="3"/><path d="M594.71,932.25s110.58-255.41,119.63-287.1,9.06-103,4.53-117.71-60.32-46.62-78.43-47.75c-2.1,59.43,15.41,52.57,15.41,52.57q-.18,3-.4,6.33c-2.12,32.78-7.26,88.3-19.41,144.39-19,87.81-94.8,314-98.7,377.43l-30.73,498.91" fill="#fff" stroke="#262521" stroke-linecap="round" stroke-linejoin="round" stroke-width="3"/><polyline points="787.51 1084.1 695.98 1084.1 695.98 1186.51 796.93 1186.51" fill="none" stroke="#636363" stroke-linecap="round" stroke-linejoin="round"/><line x1="696.99" y1="1103.19" x2="789.49" y2="1103.19" fill="none" stroke="#636363" stroke-linecap="round" stroke-linejoin="round"/><polyline points="428.24 1084.1 519.78 1084.1 519.78 1186.51 419.82 1186.51" fill="none" stroke="#636363" stroke-linecap="round" stroke-linejoin="round"/><line x1="518.76" y1="1103.19" x2="426.27" y2="1103.19" fill="none" stroke="#636363" stroke-linecap="round" stroke-linejoin="round"/><path d="M663.69,1165.73c0-20.1-26.57-81-26.57-81l-55.54-6.3,24.17,228.27c0,16.42,47.45,11.83,65.19,5.91S663.69,1185.84,663.69,1165.73Z" fill="#fff" stroke="#262521" stroke-linecap="round" stroke-linejoin="round" stroke-width="3"/><path d="M410.41,985.61s-15,56.07-3.5,59.35,200.73,24.49,200.73,24.49v-31.24Z" fill="#fff" stroke="#262521" stroke-linecap="round" stroke-linejoin="round" stroke-width="3"/><path d="M650.91,1034.92s134.73-39.45,143-36.16,19.73,54.25,8.22,62.47-159.46,0-159.46,0Z" fill="#fff" stroke="#262521" stroke-linecap="round" stroke-linejoin="round" stroke-width="3"/><path d="M616.82,1006.13s-51.38,4.39-51.5,16.64-25.56,280-17.34,284.93,49.24,0,54.21-9.87S583.64,1052,616.82,1006.13Z" fill="#fff" stroke="#262521" stroke-linecap="round" stroke-linejoin="round" stroke-width="3"/><path d="M626.12,990.72s4.47-1.25,19.29,5,45.11,24,45,26.38S651.09,1044,651.09,1049s12.06,20,1.66,27-46.18,23.3-46.18,23.3S572.93,998.56,626.12,990.72Z" fill="#fff" stroke="#262521" stroke-linecap="round" stroke-linejoin="round" stroke-width="3"/></svg>