<svg xmlns="http://www.w3.org/2000/svg" xmlns:xlink="http://www.w3.org/1999/xlink" width="1250" height="1550" viewBox="0 0 1250 1550"><defs><pattern id="a" width="20.13" height="16.91" patternTransform="matrix(3.14, -0.16, 0.16, 3.14, -57.64, -18.84)" patternUnits="userSpaceOnUse" viewBox="0 0 20.13 16.91"><rect width="20.13" height="16.91" fill="none"/><rect y="12.68" width="20.13" height="8.46" fill="#444341"/><line y1="13.71" x2="5.05" y2="13.71" fill="none" stroke="#6d6b69" stroke-linejoin="round"/><line x1="8.46" y1="13.71" x2="20.13" y2="13.71" fill="none" stroke="#6d6b69" stroke-linejoin="round"/><line x1="1.52" y1="15.73" x2="11.74" y2="15.73" fill="none" stroke="#6d6b69" stroke-linejoin="round"/><line x1="16.44" y1="15.73" x2="19.33" y2="15.73" fill="none" stroke="#6d6b69" stroke-linejoin="round"/><line x1="12.57" y1="16.91" x2="15.46" y2="16.91" fill="none" stroke="#6d6b69" stroke-linejoin="round"/><line x1="6.38" y1="14.7" x2="7.61" y2="14.7" fill="none" stroke="#6d6b69" stroke-linejoin="round"/><rect y="4.23" width="20.13" height="8.46" fill="#444341"/><line y1="5.25" x2="5.05" y2="5.25" fill="none" stroke="#6d6b69" stroke-linejoin="round"/><line x1="8.46" y1="5.25" x2="20.13" y2="5.25" fill="none" stroke="#6d6b69" stroke-linejoin="round"/><line x1="1.52" y1="7.27" x2="11.74" y2="7.27" fill="none" stroke="#6d6b69" stroke-linejoin="round"/><line x1="16.44" y1="7.27" x2="19.33" y2="7.27" fill="none" stroke="#6d6b69" stroke-linejoin="round"/><line x1="12.57" y1="8.45" x2="15.46" y2="8.45" fill="none" stroke="#6d6b69" stroke-linejoin="round"/><line x1="16.44" y1="9.51" x2="19.33" y2="9.51" fill="none" stroke="#6d6b69" stroke-linejoin="round"/><line x1="6.38" y1="6.25" x2="7.61" y2="6.25" fill="none" stroke="#6d6b69" stroke-linejoin="round"/><line x1="4.23" y1="10.47" x2="5.46" y2="10.47" fill="none" stroke="#6d6b69" stroke-linejoin="round"/><line x1="12.44" y1="12.15" x2="13.67" y2="12.15" fill="none" stroke="#6d6b69" stroke-linejoin="round"/><line x1="1.8" y1="11.43" x2="11.9" y2="11.43" fill="none" stroke="#6d6b69" stroke-linejoin="round"/><line x1="6.7" y1="9.51" x2="13.85" y2="9.51" fill="none" stroke="#6d6b69" stroke-linejoin="round"/><line x1="15.14" y1="11.43" x2="20.13" y2="11.43" fill="none" stroke="#6d6b69" stroke-linejoin="round"/><line y1="9.51" x2="3.15" y2="9.51" fill="none" stroke="#6d6b69" stroke-linejoin="round"/><rect y="-4.23" width="20.13" height="8.46" fill="#444341"/><line x1="12.57" x2="15.46" fill="none" stroke="#6d6b69" stroke-linejoin="round"/><line x1="16.44" y1="1.06" x2="19.33" y2="1.06" fill="none" stroke="#6d6b69" stroke-linejoin="round"/><line x1="4.23" y1="2.01" x2="5.46" y2="2.01" fill="none" stroke="#6d6b69" stroke-linejoin="round"/><line x1="12.44" y1="3.69" x2="13.67" y2="3.69" fill="none" stroke="#6d6b69" stroke-linejoin="round"/><line x1="1.8" y1="2.98" x2="11.9" y2="2.98" fill="none" stroke="#6d6b69" stroke-linejoin="round"/><line x1="6.7" y1="1.06" x2="13.85" y2="1.06" fill="none" stroke="#6d6b69" stroke-linejoin="round"/><line x1="15.14" y1="2.98" x2="20.13" y2="2.98" fill="none" stroke="#6d6b69" stroke-linejoin="round"/><line y1="1.06" x2="3.15" y2="1.06" fill="none" stroke="#6d6b69" stroke-linejoin="round"/></pattern></defs><title>s05e03-02</title><path d="M801.32,601.23C790.44,594.13,651.79,528,651.79,528s-9,42.68-63.91,47.58c-64.83,5.79-86.64-36-90.75-48.14l-87.92,73.81" fill="#262521" stroke="#262521" stroke-linecap="round" stroke-linejoin="round" stroke-width="3"/><path d="M403.44,1252.94s58.13,16.91,200,12.4S801,1248.11,801,1248.11l22.8,267.08c-209.14,38.46-397.55,3.91-397.55,3.91Z" fill="#262521" stroke="#262521" stroke-linecap="round" stroke-linejoin="round" stroke-width="3"/><path d="M877.22,1043c-3.84-55.87-22.89-124.63-22.89-124.63s-14.58-307-52.88-331.94c-10.88-7.11-148.63-58.32-148.63-58.32s4.72,52.64-75.63,52.64c-65.09,0-77.84-37.88-82-50a12.42,12.42,0,0,1-.75-2.59c-1,.66-106.06,65.8-150.57,92.61C299.18,647.69,317.24,945,317.24,945a619.73,619.73,0,0,0-3.6,128.12c5.52,68.42-1.88,179.2,14.45,197.93l61-1.5s-5.61-14.34-4.66-27c2.28-30.22,5.54-104.26,15.36-135.21,4.83-15.2,10.09-36.77,14.19-54.79-3.35,34.76-22,135.5-10.62,160.6,0,13-2.36,59.86-2.36,59.86s88.48,20.67,165.47,19.75c137.53-1.66,242.89-30.38,242.89-30.38s-3.23-43.82-4-57.41c8.88-15.34-1-63.45-10.45-125.17,15.4,46.66,32,107.53,33.91,137.5,1.63,26.39,2.88,34.36,2.88,34.36h58.1s4.49-6.66,5.3-18.88S882.79,1124.26,877.22,1043Z" fill="url(#a)"/><path d="M494.48,528.13l0,0S494.49,528.1,494.48,528.13Z" fill="#262521"/><path d="M413.68,1053.71c-4.14,18.21-9,38.16-13.93,53.64-9.82,31-13.08,105-15.36,135.21-.95,12.67,4.66,27,4.66,27l-61,1.5c-16.33-18.73-8.93-129.51-14.45-197.93A619.73,619.73,0,0,1,317.24,945s-18.06-297.33,26.67-324.28,150.6-92.63,150.6-92.63-.25-.24.72,2.61c4.12,12.15,16.87,50,82,50,80.35,0,75.64-52.64,75.64-52.64s137.74,51.21,148.62,58.32c38.3,25,52.88,331.94,52.88,331.94s19,68.76,22.89,124.63c5.57,81.26,18.66,177.57,17.84,189.79s-5.3,18.88-5.3,18.88h-58.1s-1.25-8-2.88-34.36c-1.86-29.85-17-86.23-32.37-132.82" fill="none" stroke="#262521" stroke-linecap="round" stroke-linejoin="round" stroke-width="3"/><path d="M410.64,807.59s5.34,199.1,3.82,238.13c-.83,21.49-23.46,140.26-11.15,167.44.05,13-2.35,59.86-2.35,59.86s88.48,20.67,165.47,19.75c137.53-1.66,242.89-30.38,242.89-30.38s-3.23-43.82-4-57.41c14.49-25-21.06-160.16-22.86-230.12-1.22-47.58-16.1-167.27-16.1-167.27" fill="none" stroke="#262521" stroke-linecap="round" stroke-linejoin="round" stroke-width="3"/><line x1="656.17" y1="536.57" x2="668.17" y2="540.86" fill="none" stroke="#262521" stroke-linecap="round" stroke-linejoin="round" stroke-width="2"/><line x1="573.07" y1="586.19" x2="573.07" y2="600.95" fill="none" stroke="#262521" stroke-linecap="round" stroke-linejoin="round" stroke-width="2"/><line x1="590.03" y1="584.89" x2="590.79" y2="599.58" fill="none" stroke="#262521" stroke-linecap="round" stroke-linejoin="round" stroke-width="2"/><line x1="605.04" y1="582.33" x2="607.27" y2="595.54" fill="none" stroke="#262521" stroke-linecap="round" stroke-linejoin="round" stroke-width="2"/><line x1="618.65" y1="577.12" x2="623.04" y2="588.62" fill="none" stroke="#262521" stroke-linecap="round" stroke-linejoin="round" stroke-width="2"/><line x1="630.81" y1="568.94" x2="637.57" y2="578.89" fill="none" stroke="#262521" stroke-linecap="round" stroke-linejoin="round" stroke-width="2"/><line x1="640.99" y1="559.81" x2="650.28" y2="566.87" fill="none" stroke="#262521" stroke-linecap="round" stroke-linejoin="round" stroke-width="2"/><line x1="649.6" y1="549.01" x2="660.52" y2="553.75" fill="none" stroke="#262521" stroke-linecap="round" stroke-linejoin="round" stroke-width="2"/><line x1="488.81" y1="540.28" x2="476.69" y2="547.46" fill="none" stroke="#262521" stroke-linecap="round" stroke-linejoin="round" stroke-width="2"/><line x1="556.11" y1="584.89" x2="555.35" y2="599.58" fill="none" stroke="#262521" stroke-linecap="round" stroke-linejoin="round" stroke-width="2"/><line x1="541.6" y1="582.83" x2="539.31" y2="596.32" fill="none" stroke="#262521" stroke-linecap="round" stroke-linejoin="round" stroke-width="2"/><line x1="528.05" y1="577.8" x2="523.3" y2="590.25" fill="none" stroke="#262521" stroke-linecap="round" stroke-linejoin="round" stroke-width="2"/><line x1="515.45" y1="571.78" x2="508.65" y2="581.79" fill="none" stroke="#262521" stroke-linecap="round" stroke-linejoin="round" stroke-width="2"/><line x1="504.21" y1="563.49" x2="495.42" y2="571.01" fill="none" stroke="#262521" stroke-linecap="round" stroke-linejoin="round" stroke-width="2"/><line x1="494.91" y1="552.23" x2="484.55" y2="559" fill="none" stroke="#262521" stroke-linecap="round" stroke-linejoin="round" stroke-width="2"/><line x1="869.95" y1="1213.15" x2="869.95" y2="1242.62" fill="none" stroke="#262521" stroke-linecap="round" stroke-linejoin="round" stroke-width="2"/><line x1="854.25" y1="1213.22" x2="855.09" y2="1242.55" fill="none" stroke="#262521" stroke-linecap="round" stroke-linejoin="round" stroke-width="2"/><line x1="884.87" y1="1213.03" x2="882.97" y2="1242.74" fill="none" stroke="#262521" stroke-linecap="round" stroke-linejoin="round" stroke-width="2"/><line x1="839.58" y1="1213.41" x2="842.32" y2="1242.36" fill="none" stroke="#262521" stroke-linecap="round" stroke-linejoin="round" stroke-width="2"/><line x1="359.54" y1="1232.16" x2="361.52" y2="1261.56" fill="none" stroke="#262521" stroke-linecap="round" stroke-linejoin="round" stroke-width="2"/><line x1="345.18" y1="1232.87" x2="348.23" y2="1261.62" fill="none" stroke="#262521" stroke-linecap="round" stroke-linejoin="round" stroke-width="2"/><line x1="330.24" y1="1232.98" x2="334.12" y2="1262.49" fill="none" stroke="#262521" stroke-linecap="round" stroke-linejoin="round" stroke-width="2"/><line x1="373.63" y1="1232.1" x2="373.84" y2="1261.16" fill="none" stroke="#262521" stroke-linecap="round" stroke-linejoin="round" stroke-width="2"/><line x1="608.67" y1="1248.52" x2="610.45" y2="1282.15" fill="none" stroke="#262521" stroke-linecap="round" stroke-linejoin="round" stroke-width="2"/><line x1="628.16" y1="1247.58" x2="629.94" y2="1281.2" fill="none" stroke="#262521" stroke-linecap="round" stroke-linejoin="round" stroke-width="2"/><line x1="647.66" y1="1245.58" x2="649.45" y2="1279.2" fill="none" stroke="#262521" stroke-linecap="round" stroke-linejoin="round" stroke-width="2"/><line x1="667.17" y1="1244.11" x2="668.95" y2="1277.74" fill="none" stroke="#262521" stroke-linecap="round" stroke-linejoin="round" stroke-width="2"/><line x1="686.66" y1="1240.7" x2="688.44" y2="1274.32" fill="none" stroke="#262521" stroke-linecap="round" stroke-linejoin="round" stroke-width="2"/><line x1="706.16" y1="1237.35" x2="707.94" y2="1270.98" fill="none" stroke="#262521" stroke-linecap="round" stroke-linejoin="round" stroke-width="2"/><line x1="723.45" y1="1234.91" x2="724.34" y2="1268.53" fill="none" stroke="#262521" stroke-linecap="round" stroke-linejoin="round" stroke-width="2"/><line x1="742.05" y1="1230.25" x2="742.05" y2="1266.34" fill="none" stroke="#262521" stroke-linecap="round" stroke-linejoin="round" stroke-width="2"/><line x1="472.96" y1="1240.99" x2="473.96" y2="1277.07" fill="none" stroke="#262521" stroke-linecap="round" stroke-linejoin="round" stroke-width="2"/><line x1="492.6" y1="1244.44" x2="493.6" y2="1280.53" fill="none" stroke="#262521" stroke-linecap="round" stroke-linejoin="round" stroke-width="2"/><line x1="511.67" y1="1246.17" x2="513.46" y2="1279.8" fill="none" stroke="#262521" stroke-linecap="round" stroke-linejoin="round" stroke-width="2"/><line x1="530.69" y1="1248.02" x2="532.47" y2="1281.65" fill="none" stroke="#262521" stroke-linecap="round" stroke-linejoin="round" stroke-width="2"/><line x1="412.01" y1="1225.9" x2="412.02" y2="1260.92" fill="none" stroke="#262521" stroke-linecap="round" stroke-linejoin="round" stroke-width="2"/><line x1="432.07" y1="1231.82" x2="431.57" y2="1270" fill="none" stroke="#262521" stroke-linecap="round" stroke-linejoin="round" stroke-width="2"/><line x1="452.44" y1="1238.19" x2="452.44" y2="1274.28" fill="none" stroke="#262521" stroke-linecap="round" stroke-linejoin="round" stroke-width="2"/><line x1="550.19" y1="1250.72" x2="551.97" y2="1284.35" fill="none" stroke="#262521" stroke-linecap="round" stroke-linejoin="round" stroke-width="2"/><line x1="569.64" y1="1250.22" x2="571.42" y2="1283.85" fill="none" stroke="#262521" stroke-linecap="round" stroke-linejoin="round" stroke-width="2"/><line x1="589.74" y1="1249.74" x2="591.52" y2="1283.37" fill="none" stroke="#262521" stroke-linecap="round" stroke-linejoin="round" stroke-width="2"/><line x1="761.05" y1="1226.14" x2="761.27" y2="1262.2" fill="none" stroke="#262521" stroke-linecap="round" stroke-linejoin="round" stroke-width="2"/><line x1="779.81" y1="1222.89" x2="779.65" y2="1258.91" fill="none" stroke="#262521" stroke-linecap="round" stroke-linejoin="round" stroke-width="2"/><line x1="796.36" y1="1219.99" x2="797.41" y2="1256.04" fill="none" stroke="#262521" stroke-linecap="round" stroke-linejoin="round" stroke-width="2"/><path d="M658.15,522.61a31.23,31.23,0,0,0,.62,4.29,29.6,29.6,0,0,0,.91,3.94,1.53,1.53,0,0,0,1.85,1,1.51,1.51,0,0,0,1-1.84,29.54,29.54,0,0,1-.89-3.83c-.14-.74-.27-1.48-.38-2.23a2.51,2.51,0,0,1,0-.27c0-.06,0-.32,0-.05s0,0,0-.09a1.23,1.23,0,0,1,0-.19c0-.26-.06-.52-.07-.77a1.5,1.5,0,0,0-3,0Z" fill="#636363"/><path d="M667.44,533.21l7.16-7.77a1.5,1.5,0,0,0-2.12-2.12l-7.16,7.77a1.5,1.5,0,0,0,2.12,2.12Z" fill="#636363"/><path d="M673.26,528.93c0,.06,0,.12,0,.18s.07-.49,0-.26a.69.69,0,0,1,0,.13c0,.22-.09.45-.14.67-.14.57-.29,1.14-.43,1.71s-.3,1.12-.43,1.69a5.75,5.75,0,0,0-.22,1.42,1.5,1.5,0,0,0,3,0,.62.62,0,0,1,0-.19c0-.19-.08.49,0,.26a.5.5,0,0,0,0-.12c0-.23.1-.45.15-.67.13-.58.28-1.14.43-1.71s.29-1.13.42-1.69a5.33,5.33,0,0,0,.23-1.42,1.53,1.53,0,0,0-1.5-1.5,1.51,1.51,0,0,0-1.5,1.5Z" fill="#636363"/><path d="M677.76,538a9.43,9.43,0,0,0,1.43-1.66c.47-.63.91-1.29,1.33-2,.78-1.2,1.48-2.47,2.34-3.61a1.49,1.49,0,0,0-.53-2,1.55,1.55,0,0,0-2.06.53c-.84,1.12-1.53,2.36-2.29,3.54-.42.66-.86,1.32-1.33,2a2.43,2.43,0,0,0-.14.2c-.19.24.22-.28,0,0s-.21.27-.33.4a5.2,5.2,0,0,1-.58.57,1.51,1.51,0,0,0,0,2.12,1.55,1.55,0,0,0,2.13,0Z" fill="#636363"/><path d="M682.63,533.9a2.46,2.46,0,0,1,0,.54l.06-.4c-.12.85-.31,1.68-.48,2.52-.08.4-.16.81-.23,1.21a6.22,6.22,0,0,0-.13,1.21,1.5,1.5,0,0,0,1.5,1.5,1.52,1.52,0,0,0,1.5-1.5,2.46,2.46,0,0,1,0-.54l-.06.4c.12-.84.31-1.68.48-2.51.08-.41.16-.81.23-1.22a6.14,6.14,0,0,0,.13-1.21,1.5,1.5,0,0,0-3,0Z" fill="#636363"/><path d="M688.7,541c1.09-.76,2.13-1.59,3.17-2.42s1.92-1.51,2.83-2.33a1.5,1.5,0,0,0-2.12-2.12c-.89.8-1.84,1.54-2.77,2.29l-.82.64-.23.18s-.3.23-.07,0,0,0-.07.05l-.21.17c-.4.3-.8.61-1.22.9A1.5,1.5,0,0,0,688.7,541Z" fill="#636363"/><path d="M698.05,537.82v7a1.5,1.5,0,1,0,3,0v-7a1.5,1.5,0,1,0-3,0Z" fill="#636363"/><path d="M702.11,547.22a1.75,1.75,0,0,0,1.38.18,4.53,4.53,0,0,0,.71-.32l.87-.48,1.76-1a1.53,1.53,0,0,0,.69-.89,1.56,1.56,0,0,0-.15-1.16,1.53,1.53,0,0,0-2-.54l-1.46.81c-.48.26-1,.55-1.44.78l.36-.15-.14,0,.4-.06H703l.4,0h-.05l.36.15,0,0a1.5,1.5,0,0,0-2,.54,1.52,1.52,0,0,0,.54,2.05Z" fill="#636363"/><path d="M709.57,545.52v3.36a1.56,1.56,0,0,0,.44,1.06,1.5,1.5,0,0,0,2.56-1.06v-3.36a1.56,1.56,0,0,0-.44-1.06,1.5,1.5,0,0,0-2.56,1.06Z" fill="#636363"/><path d="M716.23,552.1a9.61,9.61,0,0,0,2.37-2.39c.76-1,1.51-2,2.23-3a1.45,1.45,0,0,0,.15-1.15,1.49,1.49,0,0,0-.69-.9,1.54,1.54,0,0,0-1.15-.15,1.76,1.76,0,0,0-.9.69c-.48.67-1,1.34-1.49,2l.24-.31c-.38.49-.75,1-1.14,1.44a7.55,7.55,0,0,1-1.11,1.15l.31-.24a3.15,3.15,0,0,1-.33.22,1.5,1.5,0,0,0,1.51,2.6Z" fill="#636363"/><path d="M723.77,546.7v7.89a1.5,1.5,0,1,0,3,0V546.7a1.5,1.5,0,0,0-3,0Z" fill="#636363"/><path d="M723.28,553.45l-.37-1.88a1.26,1.26,0,0,0-.27-.51,1.18,1.18,0,0,0-.42-.38,1.16,1.16,0,0,0-.56-.18,1.11,1.11,0,0,0-.6,0,1.59,1.59,0,0,0-.9.69l-.15.36a1.55,1.55,0,0,0,0,.8l.38,1.88a1.26,1.26,0,0,0,.27.51,1.1,1.1,0,0,0,.42.38,1.12,1.12,0,0,0,.56.18,1,1,0,0,0,.6,0,1.47,1.47,0,0,0,.89-.69l.15-.35a1.55,1.55,0,0,0,0-.8Z" fill="#636363"/><path d="M733.3,556.46l2.3-5.24a1.69,1.69,0,0,0,.15-1.15,1.56,1.56,0,0,0-.69-.9,1.52,1.52,0,0,0-1.16-.15,1.44,1.44,0,0,0-.89.69l-2.3,5.23a1.62,1.62,0,0,0-.15,1.16,1.52,1.52,0,0,0,.69.9,1.56,1.56,0,0,0,1.16.15,1.44,1.44,0,0,0,.89-.69Z" fill="#636363"/><path d="M738.35,559.78l1.5-1.51a1,1,0,0,0,.31-.48,1.15,1.15,0,0,0,.13-.58,1.14,1.14,0,0,0-.13-.57,1.11,1.11,0,0,0-.31-.49,1.56,1.56,0,0,0-1.06-.44l-.4.06a1.57,1.57,0,0,0-.66.38l-1.5,1.51a1,1,0,0,0-.31.48,1.06,1.06,0,0,0-.13.58,1,1,0,0,0,.13.57,1.11,1.11,0,0,0,.31.49,1.54,1.54,0,0,0,1.06.44l.4-.06a1.57,1.57,0,0,0,.66-.38Z" fill="#636363"/><path d="M742.3,557.72v3a1.54,1.54,0,0,0,.44,1.06,1.52,1.52,0,0,0,1.06.44,1.48,1.48,0,0,0,1.07-.44,1.58,1.58,0,0,0,.43-1.06v-3a1.49,1.49,0,0,0-1.5-1.5,1.52,1.52,0,0,0-1.06.44,1.54,1.54,0,0,0-.44,1.06Z" fill="#636363"/><path d="M749.6,563.93l3.65-5.29a1.51,1.51,0,0,0-.54-2,1.53,1.53,0,0,0-2.05.53l-3.65,5.3a1.51,1.51,0,0,0,.54,2.05,1.54,1.54,0,0,0,2.05-.54Z" fill="#636363"/><path d="M753,561.63v4.86a1.5,1.5,0,0,0,3,0v-4.86a1.5,1.5,0,1,0-3,0Z" fill="#636363"/><path d="M760.09,568.21l3.4-3.48a1.52,1.52,0,0,0,.44-1.06,1.5,1.5,0,0,0-1.5-1.5,1.58,1.58,0,0,0-1.06.44l-3.4,3.48a1.56,1.56,0,0,0-.44,1.06,1.5,1.5,0,0,0,.44,1.06,1.47,1.47,0,0,0,1.06.44,1.5,1.5,0,0,0,1.06-.44Z" fill="#636363"/><path d="M765.19,571.33a21.88,21.88,0,0,0,4.46-3.74,1.61,1.61,0,0,0,.44-1.06,1.54,1.54,0,0,0-.44-1.06,1.52,1.52,0,0,0-2.12,0,21.2,21.2,0,0,1-2.65,2.45l.3-.24a17.61,17.61,0,0,1-1.5,1.06,1.55,1.55,0,0,0-.69.9,1.49,1.49,0,0,0,.15,1.15,1.52,1.52,0,0,0,2.05.54Z" fill="#636363"/><path d="M774.89,572.59v-5.17a1.5,1.5,0,0,0-3,0v5.17a1.5,1.5,0,0,0,3,0Z" fill="#636363"/><path d="M779.25,576.85a4.88,4.88,0,0,0,.76.07,3.85,3.85,0,0,0,.76-.09l.37-.11a4.22,4.22,0,0,0,.68-.32,1,1,0,0,0,.42-.39,1,1,0,0,0,.27-.51,1.18,1.18,0,0,0,0-.59,1.12,1.12,0,0,0-.18-.56l-.23-.31a1.54,1.54,0,0,0-.67-.38l-.39,0a1.42,1.42,0,0,0-.76.2l-.3.16.36-.16a2.18,2.18,0,0,1-.54.15l.4-.05a2.62,2.62,0,0,1-.56,0l.4.05h0a1,1,0,0,0-.6,0,1.16,1.16,0,0,0-.56.18,1.18,1.18,0,0,0-.42.38,1.26,1.26,0,0,0-.27.51l-.05.4a1.45,1.45,0,0,0,.21.76l.23.3a1.49,1.49,0,0,0,.66.39Z" fill="#636363"/><path d="M786.94,577.44v-2.19a1.56,1.56,0,0,0-.44-1.06,1.52,1.52,0,0,0-1.06-.44,1.5,1.5,0,0,0-1.5,1.5v2.19a1.54,1.54,0,0,0,.44,1.06,1.52,1.52,0,0,0,1.06.44,1.5,1.5,0,0,0,1.06-.44,1.54,1.54,0,0,0,.44-1.06Z" fill="#636363"/><path d="M791.75,581.65a22.41,22.41,0,0,0,2.15-4.76,1.5,1.5,0,0,0-1-1.84,1.52,1.52,0,0,0-1.84,1c-.19.59-.41,1.17-.64,1.74l.15-.35a20.7,20.7,0,0,1-1.36,2.65,1.5,1.5,0,1,0,2.59,1.52Z" fill="#636363"/><path d="M794.67,583.39l5.15-4.24a1.52,1.52,0,0,0,.44-1.06,1.5,1.5,0,0,0-.44-1.06,1.46,1.46,0,0,0-1.06-.44,1.63,1.63,0,0,0-1.06.44l-5.15,4.24a1.5,1.5,0,0,0-.44,1.06,1.54,1.54,0,0,0,.44,1.06,1.52,1.52,0,0,0,1.06.44,1.68,1.68,0,0,0,1.06-.44Z" fill="#636363"/><path d="M802.35,587.39h3a1.55,1.55,0,0,0,1.06-.43,1.51,1.51,0,0,0,0-2.13,1.54,1.54,0,0,0-1.06-.44h-3a1.54,1.54,0,0,0-1.06.44,1.52,1.52,0,0,0-.44,1.06,1.5,1.5,0,0,0,.44,1.07,1.58,1.58,0,0,0,1.06.43Z" fill="#636363"/><path d="M806.41,591.93a10.6,10.6,0,0,0,3.52,1.52,1.54,1.54,0,0,0,1.15-.15,1.49,1.49,0,0,0,.69-.89,1.5,1.5,0,0,0-1-1.85,9.87,9.87,0,0,1-1.54-.49l.35.15a9.42,9.42,0,0,1-1.62-.88,1.54,1.54,0,0,0-1.15-.15,1.56,1.56,0,0,0-.9.69,1.52,1.52,0,0,0-.15,1.16,1.61,1.61,0,0,0,.69.89Z" fill="#636363"/><path d="M812,600a17.32,17.32,0,0,1,2.34-2.35,1.11,1.11,0,0,0,.31-.49,1,1,0,0,0,.13-.57,1.5,1.5,0,0,0-.44-1.06,1.46,1.46,0,0,0-1.06-.44l-.4.05a1.49,1.49,0,0,0-.66.39,16.77,16.77,0,0,0-2.34,2.35,1.14,1.14,0,0,0-.31.48,1.17,1.17,0,0,0-.13.58,1.54,1.54,0,0,0,.44,1.06,1.52,1.52,0,0,0,1.06.44A1.48,1.48,0,0,0,812,600Z" fill="#636363"/><path d="M814.81,608.05l5.16-1.76a1.5,1.5,0,0,0-.8-2.9L814,605.16a1.5,1.5,0,0,0,.79,2.89Z" fill="#636363"/><path d="M816,612.71a18.53,18.53,0,0,0,3.67,1.84,1.49,1.49,0,0,0,1.15-.15,1.55,1.55,0,0,0,.69-.9,1.52,1.52,0,0,0-.15-1.16,1.73,1.73,0,0,0-.9-.69c-.2-.07-.41-.15-.61-.24l.36.15a16.94,16.94,0,0,1-2.69-1.44,1.5,1.5,0,0,0-2,.54,1.46,1.46,0,0,0-.15,1.15,1.62,1.62,0,0,0,.68.9Z" fill="#636363"/><path d="M818.5,619.89a18.5,18.5,0,0,0,5.35,1.77,1.61,1.61,0,0,0,1.16-.15,1.53,1.53,0,0,0,.69-.89,1.51,1.51,0,0,0-.15-1.16,1.45,1.45,0,0,0-.9-.69,17.22,17.22,0,0,1-3.92-1.12l.36.15c-.37-.15-.72-.32-1.08-.5a1.54,1.54,0,0,0-2,.54,1.52,1.52,0,0,0,.54,2Z" fill="#636363"/><path d="M822.71,629.19l2.61-1.79a1.5,1.5,0,0,0,.54-2,1.55,1.55,0,0,0-.9-.69,1.53,1.53,0,0,0-1.15.15l-2.62,1.79a1.67,1.67,0,0,0-.69.9,1.56,1.56,0,0,0,.15,1.16,1.5,1.5,0,0,0,.9.68,1.47,1.47,0,0,0,1.16-.15Z" fill="#636363"/><path d="M823.16,635.18a4.6,4.6,0,0,0,1.94-.58,13.08,13.08,0,0,0,1.32-.87l2.8-2a1.55,1.55,0,0,0,.69-.9,1.49,1.49,0,0,0-.15-1.15,1.51,1.51,0,0,0-2-.54l-2.59,1.8c-.4.28-.8.57-1.22.84l-.23.14c-.07,0-.28.1-.32.16.22-.09.26-.1.11,0l-.17,0a2.21,2.21,0,0,1-.35.08l.4-.05h-.18a1.54,1.54,0,0,0-1.5,1.5,1.52,1.52,0,0,0,1.5,1.5Z" fill="#636363"/><path d="M823.7,640.43l4.87,1.5a1.53,1.53,0,0,0,1.85-1,1.55,1.55,0,0,0-1-1.85l-4.87-1.5a1.5,1.5,0,1,0-.8,2.9Z" fill="#636363"/><path d="M824.28,644.34l.79.46a1.09,1.09,0,0,0,.55.18,1.22,1.22,0,0,0,.6,0,1.14,1.14,0,0,0,.51-.27,1.31,1.31,0,0,0,.39-.42l.15-.36a1.55,1.55,0,0,0,0-.8l-.15-.35a1.55,1.55,0,0,0-.54-.54l-.79-.46a1.12,1.12,0,0,0-.56-.18,1,1,0,0,0-.59,0,1,1,0,0,0-.51.26,1.08,1.08,0,0,0-.39.43l-.15.35a1.55,1.55,0,0,0,0,.8l.15.36a1.55,1.55,0,0,0,.54.54Z" fill="#636363"/><path d="M825.34,650.24c1.14,1.19,2.24,2.4,3.31,3.65.53.61,1.05,1.24,1.56,1.86l.77,1,.35.45.22.28.07.09a1.63,1.63,0,0,0,.9.69,1.49,1.49,0,0,0,1.15-.15,1.52,1.52,0,0,0,.54-2,93.93,93.93,0,0,0-6.75-7.89,1.51,1.51,0,0,0-2.12,0,1.53,1.53,0,0,0,0,2.12Z" fill="#636363"/><path d="M829.34,662.6l1.88.34a1.11,1.11,0,0,0,.6,0,1.16,1.16,0,0,0,.56-.18,1.18,1.18,0,0,0,.42-.38,1.13,1.13,0,0,0,.26-.51,1.51,1.51,0,0,0-.15-1.16A1.47,1.47,0,0,0,832,660l-1.88-.33a1.22,1.22,0,0,0-.6,0,1.09,1.09,0,0,0-.55.18,1.13,1.13,0,0,0-.42.39,1,1,0,0,0-.27.51,1.49,1.49,0,0,0,.15,1.15,1.42,1.42,0,0,0,.89.69Z" fill="#636363"/><path d="M830.36,668.16h2.35a1.5,1.5,0,0,0,1.5-1.5,1.47,1.47,0,0,0-.44-1.06,1.54,1.54,0,0,0-1.06-.44h-2.35a1.58,1.58,0,0,0-1.06.44,1.56,1.56,0,0,0-.44,1.06,1.54,1.54,0,0,0,.44,1.06,1.58,1.58,0,0,0,1.06.44Z" fill="#636363"/><path d="M832.22,673.76l3.09-1.94a1.55,1.55,0,0,0,.69-.9,1.52,1.52,0,0,0-.15-1.16,1.5,1.5,0,0,0-.89-.69,1.56,1.56,0,0,0-1.16.16l-3.09,1.94a1.5,1.5,0,0,0,.36,2.74,1.49,1.49,0,0,0,1.15-.15Z" fill="#636363"/><path d="M832.87,679.43h1.88a1.52,1.52,0,0,0,1.06-.44,1.11,1.11,0,0,0,.31-.48,1.15,1.15,0,0,0,.13-.58,1.56,1.56,0,0,0-.44-1.06,1.58,1.58,0,0,0-1.06-.44h-1.88a1.54,1.54,0,0,0-1.06.44,1.11,1.11,0,0,0-.31.49,1,1,0,0,0-.13.57,1.5,1.5,0,0,0,.44,1.06,1.54,1.54,0,0,0,1.06.44Z" fill="#636363"/><path d="M832,684.5a38.41,38.41,0,0,0,3.1,4.19,1.52,1.52,0,0,0,1.06.44,1.54,1.54,0,0,0,1.06-.44,1.52,1.52,0,0,0,.44-1.06,1.66,1.66,0,0,0-.44-1.06c-.36-.43-.7-.85-1-1.29l.23.3c-.64-.83-1.25-1.7-1.82-2.59a1.59,1.59,0,0,0-.9-.69,1.5,1.5,0,0,0-1.69,2.2Z" fill="#636363"/><path d="M834.84,696.86l4.83,1.94a1.5,1.5,0,0,0,1.84-1,1.52,1.52,0,0,0-.15-1.16,1.72,1.72,0,0,0-.9-.68L835.64,694a1.52,1.52,0,0,0-1.16.16,1.5,1.5,0,0,0-.54,2,1.82,1.82,0,0,0,.9.69Z" fill="#636363"/><path d="M834.92,701.16l1.24.65a1.14,1.14,0,0,0,.56.17,1.11,1.11,0,0,0,.6,0,1.26,1.26,0,0,0,.51-.27,1.31,1.31,0,0,0,.39-.42l.15-.36a1.55,1.55,0,0,0,0-.8l-.15-.36a1.74,1.74,0,0,0-.54-.54l-1.25-.64a1,1,0,0,0-.56-.17,1.08,1.08,0,0,0-.59,0,1.14,1.14,0,0,0-.51.27,1.12,1.12,0,0,0-.39.42l-.15.36a1.55,1.55,0,0,0,0,.8l.15.36a1.45,1.45,0,0,0,.54.53Z" fill="#636363"/><path d="M834.77,710.5c1.55,3,4.61,4.76,6.7,7.35a1.49,1.49,0,0,0,2.12,0,1.54,1.54,0,0,0,0-2.12,31.63,31.63,0,0,0-3.4-3.35c-.58-.54-1.15-1.09-1.67-1.68l-.35-.41c-.23-.28.19.26,0,0L838,710a10.2,10.2,0,0,1-.63-1.06,1.51,1.51,0,0,0-2.05-.54,1.55,1.55,0,0,0-.54,2.06Z" fill="#636363"/><path d="M836.86,718.72a25,25,0,0,0,1.93,6,1.5,1.5,0,1,0,2.59-1.51c-.1-.22-.18-.45-.29-.67.19.39,0,0-.05-.12a2.49,2.49,0,0,1-.11-.29c-.18-.45-.34-.9-.48-1.37a24.54,24.54,0,0,1-.7-2.81,1.49,1.49,0,0,0-1.84-1,1.54,1.54,0,0,0-1,1.84Z" fill="#636363"/><path d="M838.89,732.11l3.44.65a1.67,1.67,0,0,0,1.16-.15,1.5,1.5,0,0,0-.36-2.75l-3.44-.64a1.67,1.67,0,0,0-1.16.15,1.52,1.52,0,0,0-.69.9,1.54,1.54,0,0,0,.15,1.15,1.48,1.48,0,0,0,.9.69Z" fill="#636363"/><path d="M839.41,739.79a13.8,13.8,0,0,0,3.05,2.49,1.56,1.56,0,0,0,1.16.15,1.5,1.5,0,0,0,.89-.69,1.46,1.46,0,0,0,.15-1.15,1.58,1.58,0,0,0-.68-.9,13.15,13.15,0,0,1-1.16-.79l.3.24a13.85,13.85,0,0,1-1.59-1.47,1.5,1.5,0,0,0-2.56,1.06,1.63,1.63,0,0,0,.44,1.06Z" fill="#636363"/><path d="M841,750.24a4.84,4.84,0,0,0,.62.58,7,7,0,0,0,1,.7,1,1,0,0,0,.55.17,1.11,1.11,0,0,0,.6,0,1.14,1.14,0,0,0,.51-.27,1.31,1.31,0,0,0,.39-.42l.15-.36a1.55,1.55,0,0,0,0-.8l-.15-.36a1.61,1.61,0,0,0-.54-.53,6.65,6.65,0,0,1-.62-.41l.3.23a5.77,5.77,0,0,1-.68-.63,1,1,0,0,0-.48-.31,1.15,1.15,0,0,0-.58-.13,1.17,1.17,0,0,0-.58.13,1.14,1.14,0,0,0-.48.31l-.23.3a1.48,1.48,0,0,0-.21.76l.06.4a1.51,1.51,0,0,0,.38.66Z" fill="#636363"/><path d="M841.49,756.57l.5.37-.31-.23a17.79,17.79,0,0,1,3.22,3.21l-.23-.3c.23.3.46.61.68.93a1.56,1.56,0,0,0,.89.69,1.5,1.5,0,0,0,1.7-2.2A20.44,20.44,0,0,0,843,754a1.47,1.47,0,0,0-1.16-.15,1.51,1.51,0,0,0-.9.69,1.54,1.54,0,0,0-.15,1.15,1.72,1.72,0,0,0,.69.9Z" fill="#636363"/><path d="M844.68,769.06l3.29.64a1.59,1.59,0,0,0,1.15-.15,1.52,1.52,0,0,0,.69-.9,1.49,1.49,0,0,0-.15-1.15,1.45,1.45,0,0,0-.9-.69l-3.28-.64a1.49,1.49,0,0,0-1.69,2.2,1.5,1.5,0,0,0,.89.69Z" fill="#636363"/><path d="M844.36,774.43a10.14,10.14,0,0,0,2.91.16,1.15,1.15,0,0,0,.58-.13,1.14,1.14,0,0,0,.48-.31,1.52,1.52,0,0,0,.44-1.06,1.54,1.54,0,0,0-.44-1.06,1.47,1.47,0,0,0-1.06-.44,8.52,8.52,0,0,1-2.08,0l.4.06-.43-.07a1.22,1.22,0,0,0-.6,0,1.12,1.12,0,0,0-.56.18,1.52,1.52,0,0,0-.69.9,1.5,1.5,0,0,0,1.05,1.84Z" fill="#636363"/><path d="M845.17,782l6.71-1.11a1.51,1.51,0,0,0,1-1.84,1.55,1.55,0,0,0-1.85-1l-6.7,1.11a1.5,1.5,0,0,0-1,1.84,1.54,1.54,0,0,0,1.84,1.05Z" fill="#636363"/><path d="M844.73,788.88a8.14,8.14,0,0,0,1,1.34,7.7,7.7,0,0,0,1.25,1.1,1.12,1.12,0,0,0,.56.18,1.22,1.22,0,0,0,.6,0,1.26,1.26,0,0,0,.51-.27,1,1,0,0,0,.38-.42,1.47,1.47,0,0,0,.15-1.16l-.15-.35a1.4,1.4,0,0,0-.54-.54l-.15-.12.31.24a5.81,5.81,0,0,1-1.08-1.08l.24.31a6.33,6.33,0,0,1-.48-.71,1.5,1.5,0,0,0-.89-.69,1.66,1.66,0,0,0-1.16.15,1.53,1.53,0,0,0-.69.89,1.61,1.61,0,0,0,.15,1.16Z" fill="#636363"/><path d="M844.92,795.25c.14.1.28.2.41.31l-.3-.24a27.41,27.41,0,0,1,4.39,4.29,1.5,1.5,0,0,0,2.56-1.06,1.76,1.76,0,0,0-.44-1.06,28.46,28.46,0,0,0-5.1-4.83,1.5,1.5,0,0,0-2.05.54,1.49,1.49,0,0,0-.16,1.15,1.76,1.76,0,0,0,.69.9Z" fill="#636363"/><path d="M846.74,805.24l6,2.18a1.5,1.5,0,0,0,1.84-1,1.53,1.53,0,0,0-1-1.85l-6-2.18a1.5,1.5,0,0,0-1.84,1,1.52,1.52,0,0,0,1,1.84Z" fill="#636363"/><path d="M848.4,811.25h4.1a1.5,1.5,0,0,0,0-3h-4.1a1.5,1.5,0,0,0,0,3Z" fill="#636363"/><path d="M850.77,819.6a3.27,3.27,0,0,1,.17-.53l-.15.36a3,3,0,0,1,.39-.67l-.24.31a2.87,2.87,0,0,1,.55-.55l-.3.23.18-.13a1.52,1.52,0,0,0,.69-.9,1.12,1.12,0,0,0,0-.6,1.09,1.09,0,0,0-.18-.55,1.47,1.47,0,0,0-.89-.69,1.51,1.51,0,0,0-1.16.15,4.34,4.34,0,0,0-.75.59,4.88,4.88,0,0,0-.61.75,3.2,3.2,0,0,0-.29.51,5,5,0,0,0-.33.92,1.22,1.22,0,0,0,0,.6,1.09,1.09,0,0,0,.18.55,1.24,1.24,0,0,0,.39.43,1,1,0,0,0,.51.26,1.52,1.52,0,0,0,1.16-.15,1.49,1.49,0,0,0,.68-.89Z" fill="#636363"/><path d="M850.38,828.56l2.51-.39a1,1,0,0,0,.51-.27,1.06,1.06,0,0,0,.39-.42,1.5,1.5,0,0,0-.54-2.05l-.36-.15a1.55,1.55,0,0,0-.8,0l-2.51.38a1.26,1.26,0,0,0-.51.27,1.18,1.18,0,0,0-.38.42,1.52,1.52,0,0,0-.15,1.16,1.47,1.47,0,0,0,.69.89l.35.16a1.55,1.55,0,0,0,.8,0Z" fill="#636363"/><path d="M849.89,834.52a17.78,17.78,0,0,1,4,1.15l-.36-.16.14.06a1.64,1.64,0,0,0,1.15.16,1.56,1.56,0,0,0,.9-.69,1.52,1.52,0,0,0,.15-1.16,1.49,1.49,0,0,0-.69-.9,18.9,18.9,0,0,0-4.47-1.35,1.62,1.62,0,0,0-1.16.15,1.56,1.56,0,0,0-.69.9,1.54,1.54,0,0,0,.16,1.15,1.41,1.41,0,0,0,.89.69Z" fill="#636363"/><path d="M848.82,837.56a14.22,14.22,0,0,0,3.85,6.35,1.5,1.5,0,0,0,2.12-2.12,12.62,12.62,0,0,1-1.11-1.2l-.12-.14,0,0-.22-.3c-.16-.23-.31-.47-.46-.71a14.37,14.37,0,0,1-.74-1.4c0-.05-.13-.31,0-.08s0,0,0,0l-.15-.39c-.1-.27-.18-.54-.26-.81a1.5,1.5,0,0,0-2.89.8Z" fill="#636363"/><path d="M850,849.86l2.24,3.76a1.52,1.52,0,0,0,.9.69,1.5,1.5,0,0,0,1.15-.15,1.52,1.52,0,0,0,.54-2l-2.24-3.76a1.53,1.53,0,0,0-.89-.69,1.56,1.56,0,0,0-1.16.15,1.52,1.52,0,0,0-.54,2.05Z" fill="#636363"/><path d="M852.18,863.22h1a1.08,1.08,0,0,0,.58-.13,1.14,1.14,0,0,0,.48-.31,1,1,0,0,0,.31-.48,1.15,1.15,0,0,0,.13-.58l-.06-.4a1.57,1.57,0,0,0-.38-.66l-.3-.23a1.48,1.48,0,0,0-.76-.21h-1a1.72,1.72,0,0,0-1.06.44,1.24,1.24,0,0,0-.31.48,1.29,1.29,0,0,0-.13.58l.06.4a1.51,1.51,0,0,0,.38.66l.31.24a1.5,1.5,0,0,0,.75.2Z" fill="#636363"/><path d="M852.5,869.21h1.89a1.56,1.56,0,0,0,1.06-.44,1.72,1.72,0,0,0,.44-1.06,1.54,1.54,0,0,0-.44-1.06,1.56,1.56,0,0,0-1.06-.44H852.5a1.5,1.5,0,0,0-1.06.44,1,1,0,0,0-.31.48,1.06,1.06,0,0,0-.13.58,1.52,1.52,0,0,0,.44,1.06,1.54,1.54,0,0,0,1.06.44Z" fill="#636363"/><path d="M851.76,873.87a85.15,85.15,0,0,0,5.35,7.5,1.51,1.51,0,0,0,2.12,0,1.56,1.56,0,0,0,0-2.13c-.23-.28-.45-.56-.67-.85.19.24-.15-.19-.18-.24l-.33-.43c-.44-.58-.86-1.16-1.28-1.76q-1.26-1.77-2.42-3.61a1.5,1.5,0,1,0-2.59,1.52Z" fill="#636363"/><path d="M852.66,887.7l1.91,1.87a1.56,1.56,0,0,0,1.06.44,1.15,1.15,0,0,0,.58-.13,1.21,1.21,0,0,0,.49-.31,1.51,1.51,0,0,0,.43-1.06,1.53,1.53,0,0,0-.43-1.06l-1.92-1.87a1.56,1.56,0,0,0-1.06-.44,1.27,1.27,0,0,0-.58.13,1.17,1.17,0,0,0-.48.31,1.52,1.52,0,0,0-.44,1.06,1.54,1.54,0,0,0,.44,1.06Z" fill="#636363"/><path d="M853.92,895.18a9.74,9.74,0,0,0,4.25,1.37,1.46,1.46,0,0,0,1.06-.44,1.5,1.5,0,0,0,.44-1.06,1.46,1.46,0,0,0-.44-1.06l-.3-.23a1.45,1.45,0,0,0-.76-.21l-.24,0,.4.06a9,9,0,0,1-2.21-.61l.36.16a9.29,9.29,0,0,1-1-.54,1.62,1.62,0,0,0-1.16-.15,1.56,1.56,0,0,0-.9.69,1.53,1.53,0,0,0,.54,2Z" fill="#636363"/><path d="M854.39,903.54h2.83a1.54,1.54,0,0,0,1.06-.44,1.52,1.52,0,0,0,.44-1.06,1.46,1.46,0,0,0-.44-1.06,1.54,1.54,0,0,0-1.06-.44h-2.83a1.5,1.5,0,0,0-1.06,2.56,1.54,1.54,0,0,0,1.06.44Z" fill="#636363"/><path d="M855.33,908.89h1.26a1.06,1.06,0,0,0,.58-.13A1.36,1.36,0,0,0,858,908a1.06,1.06,0,0,0,.13-.58L858,907a1.49,1.49,0,0,0-.39-.66l-.3-.23a1.45,1.45,0,0,0-.76-.21h-1.26a1.72,1.72,0,0,0-1.06.44,1.24,1.24,0,0,0-.31.48,1.29,1.29,0,0,0-.13.58l.06.4a1.51,1.51,0,0,0,.38.66l.31.24a1.5,1.5,0,0,0,.75.2Z" fill="#636363"/><path d="M856.6,919.15l1.6-2.5a1.5,1.5,0,0,0-.54-2,1.47,1.47,0,0,0-1.16-.15,1.53,1.53,0,0,0-.89.69l-1.6,2.5a1.51,1.51,0,0,0,.53,2.05,1.52,1.52,0,0,0,1.16.15,1.63,1.63,0,0,0,.9-.69Z" fill="#636363"/><path d="M856.14,928.23c.45.32.9.64,1.33,1l-.3-.24a35.74,35.74,0,0,1,3.44,3.07,1.52,1.52,0,0,0,2.12,0,1.54,1.54,0,0,0,0-2.12,35.21,35.21,0,0,0-5.08-4.28,1.5,1.5,0,0,0-2,.54,1.54,1.54,0,0,0,.54,2.05Z" fill="#636363"/><path d="M858.29,936.14a10,10,0,0,0,2.27,4.13,1.52,1.52,0,0,0,2.13,0,1.54,1.54,0,0,0,0-2.12,6.4,6.4,0,0,1-.42-.49l.23.3a8.32,8.32,0,0,1-1.09-1.87l.15.36a8.5,8.5,0,0,1-.37-1.11,1.59,1.59,0,0,0-.69-.9,1.61,1.61,0,0,0-1.16-.15,1.54,1.54,0,0,0-1.05,1.85Z" fill="#636363"/><path d="M861.32,945.74h2.52a1.52,1.52,0,0,0,1.06-.44,1.5,1.5,0,0,0,0-2.12,1.58,1.58,0,0,0-1.06-.44h-2.52a1.54,1.54,0,0,0-1.06.44,1.52,1.52,0,0,0-.44,1.06,1.46,1.46,0,0,0,.44,1.06,1.54,1.54,0,0,0,1.06.44Z" fill="#636363"/><path d="M863.52,952H866a1.54,1.54,0,0,0,1.06-.44,1.5,1.5,0,0,0,0-2.12A1.54,1.54,0,0,0,866,949h-2.52a1.5,1.5,0,0,0-1.5,1.5,1.54,1.54,0,0,0,.44,1.06,1.56,1.56,0,0,0,1.06.44Z" fill="#636363"/><path d="M865.1,956.14h3.78a1.5,1.5,0,0,0,0-3H865.1a1.5,1.5,0,0,0,0,3Z" fill="#636363"/><path d="M863.41,962l2.81,3.17a1.52,1.52,0,0,0,1.06.44,1.5,1.5,0,0,0,1.06-.44,1.46,1.46,0,0,0,.44-1.06,1.63,1.63,0,0,0-.44-1.06l-2.81-3.17a1.5,1.5,0,0,0-1.06-.44,1.54,1.54,0,0,0-1.06.44,1.52,1.52,0,0,0-.44,1.06,1.68,1.68,0,0,0,.44,1.06Z" fill="#636363"/><path d="M866.22,969.26l2.54,2.19a1.61,1.61,0,0,0,1.06.44,1.54,1.54,0,0,0,1.06-.44,1.52,1.52,0,0,0,.44-1.06,1.48,1.48,0,0,0-.44-1.06l-2.54-2.19a1.59,1.59,0,0,0-1.06-.44,1.56,1.56,0,0,0-1.06.44,1.52,1.52,0,0,0-.44,1.06,1.5,1.5,0,0,0,.44,1.06Z" fill="#636363"/><path d="M869.12,980.31l.47.17-.36-.15a6.46,6.46,0,0,1,1.37.8l-.3-.23a6.69,6.69,0,0,1,1,.94,1.5,1.5,0,0,0,1.06.44,1.5,1.5,0,0,0,1.5-1.5l-.06-.4a1.57,1.57,0,0,0-.38-.66,7.57,7.57,0,0,0-3.49-2.3,1.49,1.49,0,0,0-1.15.15,1.52,1.52,0,0,0-.69.9,1.49,1.49,0,0,0,.15,1.15,1.64,1.64,0,0,0,.9.69Z" fill="#636363"/><path d="M871.94,992.62l2.52.94a1,1,0,0,0,.6,0,1.12,1.12,0,0,0,.56-.18,1.53,1.53,0,0,0,.69-.89,1.56,1.56,0,0,0-.15-1.16l-.24-.3a1.49,1.49,0,0,0-.66-.39l-2.52-.94a1,1,0,0,0-.6,0,1.16,1.16,0,0,0-.56.18,1.48,1.48,0,0,0-.53,2l.23.3a1.49,1.49,0,0,0,.66.39Z" fill="#636363"/><path d="M873.92,1001.49h1.89a1.58,1.58,0,0,0,1.06-.44,1.11,1.11,0,0,0,.31-.48,1.27,1.27,0,0,0,.13-.58,1.54,1.54,0,0,0-.44-1.06,1.58,1.58,0,0,0-1.06-.44h-1.89a1.54,1.54,0,0,0-1.06.44,1.14,1.14,0,0,0-.31.48,1.08,1.08,0,0,0-.13.58,1.46,1.46,0,0,0,.44,1.06,1.54,1.54,0,0,0,1.06.44Z" fill="#636363"/><path d="M874.55,1010.31h1.26a1,1,0,0,0,.57-.13,1.11,1.11,0,0,0,.49-.31,1.17,1.17,0,0,0,.31-.48,1.27,1.27,0,0,0,.13-.58l-.06-.4a1.57,1.57,0,0,0-.38-.66l-.31-.23a1.42,1.42,0,0,0-.75-.21h-1.26a1.15,1.15,0,0,0-.58.13,1,1,0,0,0-.48.31,1.14,1.14,0,0,0-.31.48,1.06,1.06,0,0,0-.13.58l.05.4a1.49,1.49,0,0,0,.39.66l.3.24a1.54,1.54,0,0,0,.76.2Z" fill="#636363"/><path d="M873.82,1015.27a21.68,21.68,0,0,0,4.13,5.25,1.5,1.5,0,0,0,2.12-2.12,20.91,20.91,0,0,1-2.12-2.29l-.1-.13s.19.26.07.1-.15-.21-.23-.32-.3-.42-.44-.64c-.3-.44-.58-.9-.84-1.36a1.5,1.5,0,1,0-2.59,1.51Z" fill="#636363"/><path d="M877.32,1028.78l2.52.93a1.66,1.66,0,0,0,1.16-.15,1.53,1.53,0,0,0,.69-.89,1.51,1.51,0,0,0-.15-1.16l-.24-.3a1.44,1.44,0,0,0-.66-.39l-2.52-.94a1.82,1.82,0,0,0-1.16.15,1.51,1.51,0,0,0-.54,2.06l.24.3a1.59,1.59,0,0,0,.66.39Z" fill="#636363"/><path d="M876.75,1035.19h3.78a1.5,1.5,0,0,0,0-3h-3.78a1.5,1.5,0,0,0,0,3Z" fill="#636363"/><path d="M876.08,1041.07a7.84,7.84,0,0,1,.89,1.57l-.15-.36a8.25,8.25,0,0,1,.4,1.25,1.52,1.52,0,0,0,.69.9,1.49,1.49,0,0,0,1.15.15,1.46,1.46,0,0,0,.9-.69,1.63,1.63,0,0,0,.15-1.15,9.15,9.15,0,0,0-.64-1.82,7.7,7.7,0,0,0-.8-1.36,1.24,1.24,0,0,0-.39-.43,1,1,0,0,0-.51-.26,1.49,1.49,0,0,0-1.15.15,1.47,1.47,0,0,0-.69.89,1.43,1.43,0,0,0,.15,1.16Z" fill="#636363"/><path d="M877.67,1052.4a8.07,8.07,0,0,0,2.73,2.75,1.5,1.5,0,0,0,1.15.16,1.56,1.56,0,0,0,.9-.69,1.52,1.52,0,0,0,.15-1.16,1.59,1.59,0,0,0-.69-.9,5.72,5.72,0,0,1-.57-.39l.3.23a7,7,0,0,1-1.19-1.18l.24.3a5.39,5.39,0,0,1-.43-.63,1.55,1.55,0,0,0-.9-.69,1,1,0,0,0-.6,0,1.16,1.16,0,0,0-.56.18,1.5,1.5,0,0,0-.69.89,1.57,1.57,0,0,0,.16,1.16Z" fill="#636363"/><path d="M878.61,1061.85l1.57,2.21a1.12,1.12,0,0,0,.39.42,1.14,1.14,0,0,0,.51.27,1.08,1.08,0,0,0,.59,0,1.12,1.12,0,0,0,.56-.18,1.5,1.5,0,0,0,.69-.89,1.47,1.47,0,0,0-.15-1.16l-1.57-2.2a1.13,1.13,0,0,0-.39-.42,1.06,1.06,0,0,0-.51-.27,1.22,1.22,0,0,0-.6,0,1.16,1.16,0,0,0-.56.18,1.52,1.52,0,0,0-.69.9,1.45,1.45,0,0,0,.16,1.15Z" fill="#636363"/><path d="M881.57,1073l2.2-.32a1.72,1.72,0,0,0,.9-.69,1.12,1.12,0,0,0,.18-.56,1.22,1.22,0,0,0,0-.6,1.5,1.5,0,0,0-.69-.89l-.36-.15a1.55,1.55,0,0,0-.8,0l-2.2.32a1.05,1.05,0,0,0-.51.27,1.13,1.13,0,0,0-.39.42,1,1,0,0,0-.17.56,1.08,1.08,0,0,0,0,.59,1.49,1.49,0,0,0,.69.9l.36.15a1.55,1.55,0,0,0,.8,0Z" fill="#636363"/><path d="M879.54,1078.55a5.89,5.89,0,0,0,.65.84,6.08,6.08,0,0,0,.83.69,3.38,3.38,0,0,0,.62.34,4.58,4.58,0,0,0,1,.36,1.5,1.5,0,0,0,1.84-1,1.51,1.51,0,0,0-.15-1.16,1.46,1.46,0,0,0-.9-.69,3.31,3.31,0,0,1-.61-.19l.36.15a3.84,3.84,0,0,1-.79-.45l.3.23a3.64,3.64,0,0,1-.62-.62l.24.3-.2-.27a1.53,1.53,0,0,0-.89-.69,1,1,0,0,0-.6,0,1.12,1.12,0,0,0-.56.18,1.5,1.5,0,0,0-.69.89,1.56,1.56,0,0,0,.15,1.16Z" fill="#636363"/><path d="M880.16,1085.49l2.53,3.46a1.62,1.62,0,0,0,.9.68,1.49,1.49,0,0,0,1.15-.15,1.47,1.47,0,0,0,.69-.89,1.43,1.43,0,0,0-.15-1.16l-2.53-3.45a1.63,1.63,0,0,0-.9-.69,1.5,1.5,0,0,0-1.85,1,1.45,1.45,0,0,0,.16,1.15Z" fill="#636363"/><path d="M881.13,1094.29a22.13,22.13,0,0,0,3.37,5,1.5,1.5,0,0,0,2.13,0,1.55,1.55,0,0,0,0-2.12c-.3-.33-.58-.68-.86-1l.24.31a21.09,21.09,0,0,1-2.29-3.7,1.5,1.5,0,0,0-2.05-.54,1.53,1.53,0,0,0-.54,2Z" fill="#636363"/><path d="M883.68,1107.63h4.72a1.5,1.5,0,1,0,0-3h-4.72a1.5,1.5,0,1,0,0,3Z" fill="#636363"/><path d="M885.43,1112.61l2.2-2.21a1.5,1.5,0,0,0,.44-1.06,1.52,1.52,0,0,0-.44-1.06,1.5,1.5,0,0,0-1.06-.44,1.63,1.63,0,0,0-1.06.44l-2.2,2.21a1.54,1.54,0,0,0-.44,1.06,1.5,1.5,0,0,0,1.5,1.5,1.56,1.56,0,0,0,1.06-.44Z" fill="#636363"/><path d="M885.25,1118.66h1.58a1.15,1.15,0,0,0,.58-.13,1.36,1.36,0,0,0,.79-.79,1.15,1.15,0,0,0,.13-.58l-.05-.4a1.59,1.59,0,0,0-.39-.66,1.54,1.54,0,0,0-1.06-.44h-1.58a1,1,0,0,0-.57.13,1.34,1.34,0,0,0-.8.79,1.27,1.27,0,0,0-.13.58l.06.4a1.49,1.49,0,0,0,1.44,1.1Z" fill="#636363"/><path d="M883.69,1122.64a7,7,0,0,0,.55,1.18,7.79,7.79,0,0,0,.77,1,6.14,6.14,0,0,0,1.75,1.38,1.54,1.54,0,0,0,1.15.15,1.48,1.48,0,0,0,1.05-1.84,1.55,1.55,0,0,0-.69-.9,4.32,4.32,0,0,1-.73-.47l.3.23a5.17,5.17,0,0,1-.93-.94l.23.3a5.13,5.13,0,0,1-.65-1.11l.15.36-.06-.15a1.14,1.14,0,0,0-.27-.51,1.12,1.12,0,0,0-.42-.39,1.52,1.52,0,0,0-1.16-.15,1.5,1.5,0,0,0-.89.69,1.42,1.42,0,0,0-.15,1.15Z" fill="#636363"/><path d="M885.32,1132.91a4.63,4.63,0,0,0,2,4.11,1.47,1.47,0,0,0,1.16.15,1.51,1.51,0,0,0,.9-.69,1.54,1.54,0,0,0,.15-1.15l-.15-.36a1.55,1.55,0,0,0-.54-.54.39.39,0,0,1-.1-.08l.3.24a3.13,3.13,0,0,1-.54-.55l.24.31a3.29,3.29,0,0,1-.41-.7l.15.36a3.44,3.44,0,0,1-.22-.82l.05.4a3.1,3.1,0,0,1,0-.68,1.48,1.48,0,0,0-.44-1.06,1.52,1.52,0,0,0-1.06-.44,1.46,1.46,0,0,0-1.06.44l-.24.3a1.54,1.54,0,0,0-.2.76Z" fill="#636363"/><path d="M886.35,1144.73l4.86,4.57a1.5,1.5,0,1,0,2.13-2.12l-4.87-4.58a1.5,1.5,0,0,0-2.12,2.13Z" fill="#636363"/><path d="M888.05,1159.18l3.2,4.69a1.57,1.57,0,0,0,.89.69,1.5,1.5,0,0,0,1.7-2.2l-3.2-4.69a1.55,1.55,0,0,0-.9-.69,1.49,1.49,0,0,0-1.15.15,1.51,1.51,0,0,0-.54,2Z" fill="#636363"/><path d="M889.6,1170.45l2.78,2.57a1.56,1.56,0,0,0,1.06.44,1.5,1.5,0,0,0,1.06-.44,1.5,1.5,0,0,0,0-2.12l-2.78-2.57a1.56,1.56,0,0,0-1.06-.44,1.5,1.5,0,0,0-1.06.44,1.47,1.47,0,0,0-.44,1.06,1.46,1.46,0,0,0,.44,1.06Z" fill="#636363"/><path d="M890.8,1179.56l3.15,1.56a1.62,1.62,0,0,0,1.16.15,1.5,1.5,0,0,0,1-1.85,1.47,1.47,0,0,0-.69-.89l-3.16-1.56a1.54,1.54,0,0,0-1.15-.15,1.51,1.51,0,0,0-.9.68,1.47,1.47,0,0,0-.15,1.16,1.46,1.46,0,0,0,.69.9Z" fill="#636363"/><path d="M892,1185.74a5,5,0,0,0,.37,3.31,3.88,3.88,0,0,0,.38.69,1.59,1.59,0,0,0,.9.69,1.54,1.54,0,0,0,1.15-.15,1.51,1.51,0,0,0,.69-.9,1.45,1.45,0,0,0-.15-1.15,3.64,3.64,0,0,1-.38-.7l.15.36a3.86,3.86,0,0,1-.26-.94l.06.4a4.13,4.13,0,0,1,0-.93l0,.39a2.56,2.56,0,0,1,0-.27,1.61,1.61,0,0,0-.15-1.16,1.5,1.5,0,0,0-2.75.36Z" fill="#636363"/><path d="M893.45,1201.44l2.52.3a1.06,1.06,0,0,0,.58-.13,1,1,0,0,0,.48-.31,1.5,1.5,0,0,0,0-2.12l-.3-.23a1.48,1.48,0,0,0-.76-.21l-2.52-.3a1.06,1.06,0,0,0-.58.13,1.14,1.14,0,0,0-.48.31,1.5,1.5,0,0,0-.44,1.06,1.56,1.56,0,0,0,.44,1.06l.3.23a1.48,1.48,0,0,0,.76.21Z" fill="#636363"/><path d="M893.62,1209.9l2.21,1.89a1,1,0,0,0,.48.31,1.15,1.15,0,0,0,.58.13,1.53,1.53,0,0,0,1.06-.44,1.56,1.56,0,0,0,.44-1.06,1.48,1.48,0,0,0-.44-1.06l-2.21-1.89a1,1,0,0,0-.48-.31,1.06,1.06,0,0,0-.58-.13,1.5,1.5,0,0,0-1.06,2.56Z" fill="#636363"/><path d="M894,1217.14a10.58,10.58,0,0,0,5,6.41,1.5,1.5,0,0,0,1.52-2.59c-.26-.14-.51-.3-.75-.46l-.35-.25.08.06-.2-.16a11.62,11.62,0,0,1-1.19-1.24c-.11-.13.23.31.06.07a1.09,1.09,0,0,1-.13-.17l-.23-.34a8.46,8.46,0,0,1-.44-.77c-.07-.12-.13-.25-.19-.37s-.13-.3,0-.06l0,0a9.06,9.06,0,0,1-.29-.88,1.5,1.5,0,0,0-2.89.8Z" fill="#636363"/><path d="M895.08,1227.08a8.59,8.59,0,0,0,1.49,5.16,1.59,1.59,0,0,0,.9.69,1.54,1.54,0,0,0,1.15-.15,1.51,1.51,0,0,0,.54-2,7.75,7.75,0,0,1-.73-1.32l.15.36a7.6,7.6,0,0,1-.5-1.81l.06.4a6.86,6.86,0,0,1-.06-1.28,1.5,1.5,0,0,0-3,0Z" fill="#636363"/><path d="M894.24,1237.94l2.85,3.44a1.5,1.5,0,0,0,2.12,0,1.46,1.46,0,0,0,.44-1.06l0-.4a1.49,1.49,0,0,0-.39-.66l-2.85-3.45a1.49,1.49,0,0,0-1.06-.43,1.53,1.53,0,0,0-1.06.43,1.5,1.5,0,0,0-.44,1.07l.05.39a1.47,1.47,0,0,0,.39.67Z" fill="#636363"/><path d="M893.41,1244.53l1.89,2.83a1.55,1.55,0,0,0,.9.69,1.5,1.5,0,0,0,1.85-1,1.49,1.49,0,0,0-.16-1.15L896,1243a1.67,1.67,0,0,0-.9-.69,1.51,1.51,0,0,0-1.7,2.21Z" fill="#636363"/><path d="M801.55,1109.6v3.15a1.56,1.56,0,0,0,.44,1.06,1.5,1.5,0,0,0,2.56-1.06v-3.15a1.54,1.54,0,0,0-.44-1.06,1.5,1.5,0,0,0-2.56,1.06Z" fill="#636363"/><path d="M803.75,1114.64v6.61a1.5,1.5,0,0,0,3,0v-6.61a1.51,1.51,0,0,0-1.5-1.5,1.53,1.53,0,0,0-1.5,1.5Z" fill="#636363"/><path d="M807.85,1125v9.45a1.5,1.5,0,0,0,3,0V1125a1.5,1.5,0,0,0-3,0Z" fill="#636363"/><path d="M813.54,1146.85h0l0,.26,0,.39q0,.46,0,.93c0,.3,0,.61,0,.92,0,.15,0,.31,0,.46s0,.09,0-.07c0,.08,0,.17,0,.26a13.34,13.34,0,0,1-.43,1.79c-.1.3-.21.59-.32.87.1-.24,0,0-.06.13s-.15.32-.22.47a1.5,1.5,0,1,0,2.59,1.52,14.51,14.51,0,0,0,1.35-8.72,1.5,1.5,0,0,0-1.84-1,1.55,1.55,0,0,0-1.05,1.84Z" fill="#636363"/><path d="M811.49,1141.36l-1.08,4.06a1.5,1.5,0,0,0,2.89.8l1.09-4.06a1.5,1.5,0,0,0-2.9-.8Z" fill="#636363"/><path d="M816,1162.2v5.67a1.5,1.5,0,0,0,3,0v-5.67a1.5,1.5,0,0,0-3,0Z" fill="#636363"/><path d="M819.84,1173.23a1.94,1.94,0,0,1,0,.24l0-.4a9.67,9.67,0,0,1-.65,2.41l.15-.36a9.65,9.65,0,0,1-1.21,2.09,1.51,1.51,0,0,0-.15,1.16,1.49,1.49,0,0,0,.69.89,1.45,1.45,0,0,0,1.15.15,1.76,1.76,0,0,0,.9-.69,10.83,10.83,0,0,0,2.09-5.49,1.47,1.47,0,0,0-1.5-1.5,1.51,1.51,0,0,0-1.06.43,1.83,1.83,0,0,0-.44,1.07Z" fill="#636363"/><path d="M821.73,1181.41a7.44,7.44,0,0,1-.05,1.33l.06-.4a7.83,7.83,0,0,1-.52,1.91l.15-.35a8.25,8.25,0,0,1-.45.89c-.08.14-.17.28-.26.42l-.12.17c-.21.29.18-.24,0,0a1.65,1.65,0,0,0-.43,1.06,1.5,1.5,0,0,0,2.56,1.06,9.44,9.44,0,0,0,1.64-3,8.58,8.58,0,0,0,.42-3.1,1.5,1.5,0,0,0-3,0Z" fill="#636363"/><path d="M823,1194.33v6.61a1.5,1.5,0,0,0,3,0v-6.61a1.5,1.5,0,0,0-3,0Z" fill="#636363"/><path d="M825.07,1205.54a12.39,12.39,0,0,1-.87,1.6c-.15.25-.32.5-.49.74a2,2,0,0,0-.28.38c0-.1.2-.25,0,0l-.15.18a15,15,0,0,1-1.21,1.31c-.22.21-.45.42-.69.62l-.33.27c-.2.16-.05,0,0,0-.07,0-.17.13-.23.17a1.68,1.68,0,0,0-.69.9,1.54,1.54,0,0,0,.16,1.15,1.51,1.51,0,0,0,2,.54,16.49,16.49,0,0,0,5.23-6.25,1.62,1.62,0,0,0,.16-1.16,1.59,1.59,0,0,0-.69-.9,1.53,1.53,0,0,0-2.06.54Z" fill="#636363"/><path d="M826.56,1211.22l-1.26,1.26a1,1,0,0,0-.31.48,1.06,1.06,0,0,0-.13.58,1.08,1.08,0,0,0,.13.58,1.14,1.14,0,0,0,.31.48l.3.23a1.45,1.45,0,0,0,.76.21l.39-.06a1.54,1.54,0,0,0,.67-.38l1.26-1.26a1.24,1.24,0,0,0,.31-.48,1.29,1.29,0,0,0,.13-.58,1.27,1.27,0,0,0-.13-.58,1.11,1.11,0,0,0-.31-.48l-.31-.24a1.5,1.5,0,0,0-.75-.2l-.4,0a1.39,1.39,0,0,0-.66.39Z" fill="#636363"/><path d="M827.54,1219.05a5.53,5.53,0,0,1-1.2.29l.4,0a6.19,6.19,0,0,1-1.49,0l.4,0-.15,0a1.22,1.22,0,0,0-.6,0,1.12,1.12,0,0,0-.56.18,1.51,1.51,0,0,0-.54,2.06,1.43,1.43,0,0,0,.9.68,7.09,7.09,0,0,0,1.84.1,7.39,7.39,0,0,0,1.8-.37,1.63,1.63,0,0,0,.9-.69,1.59,1.59,0,0,0,.15-1.15,1.49,1.49,0,0,0-.69-.9,1.47,1.47,0,0,0-1.16-.15Z" fill="#636363"/><path d="M828.78,1227.73l-3.14,2.2a1.55,1.55,0,0,0-.69.9,1.49,1.49,0,0,0,.15,1.15,1.5,1.5,0,0,0,2,.54l3.15-2.2a1.67,1.67,0,0,0,.69-.9,1.5,1.5,0,0,0-1-1.85,1.51,1.51,0,0,0-1.16.16Z" fill="#636363"/><path d="M828.78,1232.82l-1.57.33a1.72,1.72,0,0,0-.9.69,1.12,1.12,0,0,0-.18.56,1.18,1.18,0,0,0,0,.59l.15.36a1.4,1.4,0,0,0,.54.54l.36.15a1.55,1.55,0,0,0,.8,0l1.57-.33a1.06,1.06,0,0,0,.51-.27,1,1,0,0,0,.38-.42,1.12,1.12,0,0,0,.18-.56,1,1,0,0,0,0-.59l-.15-.36a1.45,1.45,0,0,0-.53-.54l-.36-.15a1.55,1.55,0,0,0-.8,0Z" fill="#636363"/><path d="M829,1245c0,.26,0,.51-.07.77l0,.21c0-.2,0-.24,0-.13l-.06.38a13.63,13.63,0,0,1-.31,1.44c-.12.48-.27,1-.43,1.41a7.49,7.49,0,0,1-.28.71c.18-.35,0,0,0,0s-.12.26-.19.39a1.51,1.51,0,0,0,2.6,1.52A18.86,18.86,0,0,0,832,1245a1.52,1.52,0,0,0-1.5-1.5,1.54,1.54,0,0,0-1.5,1.5Z" fill="#636363"/><path d="M809,1258.72a20.5,20.5,0,0,0,4,4.4,1.61,1.61,0,0,0,1.06.44,1.5,1.5,0,0,0,1.5-1.5,1.48,1.48,0,0,0-.44-1.06,19,19,0,0,1-3.11-3.17l.24.3c-.24-.3-.46-.61-.68-.93a1.62,1.62,0,0,0-.89-.69,1.56,1.56,0,0,0-1.16.15,1.54,1.54,0,0,0-.54,2.06Z" fill="#636363"/><path d="M809.34,1249.09l2.52.33a1.27,1.27,0,0,0,.58-.13,1.11,1.11,0,0,0,.48-.31,1.52,1.52,0,0,0,.44-1.06,1.5,1.5,0,0,0-.44-1.06l-.3-.24a1.57,1.57,0,0,0-.76-.2l-2.52-.33a1.11,1.11,0,0,0-.57.12,1.32,1.32,0,0,0-.49.31,1.59,1.59,0,0,0-.44,1.07,1.56,1.56,0,0,0,.44,1.06l.31.23a1.51,1.51,0,0,0,.75.21Z" fill="#636363"/><path d="M809,1241.49h3.47a1.49,1.49,0,0,0,1.5-1.5,1.53,1.53,0,0,0-1.5-1.5H809a1.5,1.5,0,0,0-1.5,1.5,1.52,1.52,0,0,0,1.5,1.5Z" fill="#636363"/><path d="M810.41,1231.92l3.15-2.52a1.5,1.5,0,0,0,.44-1.06,1.54,1.54,0,0,0-.44-1.06,1.52,1.52,0,0,0-1.06-.44l-.4.05a1.47,1.47,0,0,0-.66.39l-3.15,2.52a1.5,1.5,0,0,0,1.06,2.56l.4,0a1.49,1.49,0,0,0,.66-.39Z" fill="#636363"/><path d="M809.16,1225a13.32,13.32,0,0,1,2.09-2l-.3.23c.23-.18.47-.35.72-.52a1.61,1.61,0,0,0,.69-.89,1.56,1.56,0,0,0-.15-1.16,1.5,1.5,0,0,0-2.05-.54,14.77,14.77,0,0,0-3.12,2.78,1.56,1.56,0,0,0-.44,1.06,1.5,1.5,0,0,0,1.5,1.5,1.52,1.52,0,0,0,1.06-.44Z" fill="#636363"/><path d="M807.92,1218.64l2.19-1.28a1.56,1.56,0,0,0,.69-.9,1.11,1.11,0,0,0,0-.6,1,1,0,0,0-.17-.55,1.51,1.51,0,0,0-.9-.69,1.57,1.57,0,0,0-1.16.15l-2.19,1.28a1.56,1.56,0,0,0-.69.9,1.11,1.11,0,0,0,0,.6,1.09,1.09,0,0,0,.18.55,1.47,1.47,0,0,0,.89.69,1.56,1.56,0,0,0,1.16-.15Z" fill="#636363"/><path d="M806.74,1205.24l5,1.6a1.53,1.53,0,0,0,1.85-1,1.55,1.55,0,0,0-1-1.85l-5-1.59a1.51,1.51,0,0,0-1.85,1,1.54,1.54,0,0,0,1,1.85Z" fill="#636363"/><path d="M808.72,1194.57l2.83-.32a1.15,1.15,0,0,0,.58-.13,1,1,0,0,0,.48-.31,1.52,1.52,0,0,0,.44-1.06,1.5,1.5,0,0,0-1.5-1.5l-2.83.32a1.14,1.14,0,0,0-.58.12,1.11,1.11,0,0,0-.48.31,1.51,1.51,0,0,0,0,2.13,1.46,1.46,0,0,0,1.06.44Z" fill="#636363"/><path d="M811.74,1184c.37-1.22.78-2.42,1.24-3.61l.36-.89.06-.14c.07-.17.14-.34.22-.51.25-.58.52-1.16.8-1.73a1.5,1.5,0,0,0-2.59-1.52,51.09,51.09,0,0,0-3,7.61,1.5,1.5,0,0,0,1,1.84,1.53,1.53,0,0,0,1.85-1Z" fill="#636363"/><path d="M810.36,1172.42l1.25-2.21a1.54,1.54,0,0,0,.15-1.15,1.52,1.52,0,0,0-.69-.9,1.5,1.5,0,0,0-1.15-.15,1.52,1.52,0,0,0-.9.69l-1.25,2.21a1.54,1.54,0,0,0-.16,1.15,1.51,1.51,0,0,0,2.75.36Z" fill="#636363"/><path d="M808.34,1163.59l2.49,1a1,1,0,0,0,.6,0,1.12,1.12,0,0,0,.56-.18,1.53,1.53,0,0,0,.69-.89,1.51,1.51,0,0,0-.15-1.16l-.24-.3a1.44,1.44,0,0,0-.66-.39l-2.49-1a1,1,0,0,0-.6,0,1.16,1.16,0,0,0-.56.18,1.48,1.48,0,0,0-.53,2.05l.23.3a1.49,1.49,0,0,0,.66.39Z" fill="#636363"/><path d="M805.9,1152.12a4.27,4.27,0,0,0,.1.79,4.44,4.44,0,0,0,.27.72,3.82,3.82,0,0,0,.67,1,1.93,1.93,0,0,0,.3.27,4.44,4.44,0,0,0,.62.45,4.55,4.55,0,0,0,.72.3,4.89,4.89,0,0,0,.78.14,1.11,1.11,0,0,0,.57-.13,1.21,1.21,0,0,0,.49-.31,1.24,1.24,0,0,0,.31-.48,1.29,1.29,0,0,0,.13-.58,1.54,1.54,0,0,0-.44-1.06l-.31-.24a1.5,1.5,0,0,0-.75-.2h0l.4.06a3.07,3.07,0,0,1-.52-.14l.36.15a2.11,2.11,0,0,1-.52-.31l.31.24a2.85,2.85,0,0,1-.43-.42l.24.3a2.67,2.67,0,0,1-.31-.51l.16.36a2.16,2.16,0,0,1-.16-.55l.06.4a1.49,1.49,0,0,1,0-.21,1.61,1.61,0,0,0-.44-1.06,1.72,1.72,0,0,0-1.06-.44,1.54,1.54,0,0,0-1.06.44,1.47,1.47,0,0,0-.44,1.06Z" fill="#636363"/><path d="M805.73,1140.56l1.25.64a1.14,1.14,0,0,0,.56.17,1.11,1.11,0,0,0,.6,0,1.26,1.26,0,0,0,.51-.27,1.31,1.31,0,0,0,.39-.42l.15-.36a1.55,1.55,0,0,0,0-.8l-.15-.36a1.61,1.61,0,0,0-.54-.53l-1.26-.64a1.69,1.69,0,0,0-1.15-.16,1.14,1.14,0,0,0-.51.27,1.12,1.12,0,0,0-.39.42l-.15.36a1.55,1.55,0,0,0,0,.8l.15.36a1.55,1.55,0,0,0,.54.54Z" fill="#636363"/><path d="M479.06,527.52c0,.24-.05-.43,0-.17a1.11,1.11,0,0,0,0,.19l0,.4c0,.32.05.63.06.94q.06,1.14.06,2.28a28.58,28.58,0,0,1-.13,3.93,1.49,1.49,0,0,0,1.5,1.5,1.54,1.54,0,0,0,1.5-1.5,30.16,30.16,0,0,0,.13-4,31.27,31.27,0,0,0-.26-4.33,1.5,1.5,0,0,0-1.84-1.05,1.55,1.55,0,0,0-1.05,1.84Z" fill="#636363"/><path d="M476.52,536.5,468,530.28a1.51,1.51,0,0,0-2.06.53,1.55,1.55,0,0,0,.54,2.06l8.54,6.22a1.5,1.5,0,0,0,2.05-.53,1.55,1.55,0,0,0-.54-2.06Z" fill="#636363"/><path d="M465.47,536.67A5.4,5.4,0,0,0,466,538c.24.53.49,1,.75,1.57s.51,1.06.75,1.6l.15.34c.12.26-.15-.37-.07-.17l.06.13a2.91,2.91,0,0,1,.12.39,1.5,1.5,0,0,0,2.74.36,1.75,1.75,0,0,0,.15-1.15,5.4,5.4,0,0,0-.52-1.33c-.24-.53-.49-1-.74-1.57s-.52-1.06-.76-1.6l-.15-.34c-.12-.27.15.37.07.17a.69.69,0,0,1-.05-.13,2.67,2.67,0,0,1-.13-.4,1.5,1.5,0,0,0-2.74-.35,1.75,1.75,0,0,0-.15,1.15Z" fill="#636363"/><path d="M467.34,543.24c-.12-.07-.24-.14-.35-.22s-.52-.4-.09,0c-.25-.2-.5-.41-.74-.63-.59-.53-1.15-1.1-1.7-1.68-1-1-1.9-2.08-2.94-3a1.53,1.53,0,0,0-2.12,0,1.51,1.51,0,0,0,0,2.12c1.06,1,2,2.06,3,3.09.55.57,1.11,1.13,1.7,1.66a9.28,9.28,0,0,0,1.74,1.32,1.5,1.5,0,1,0,1.51-2.59Z" fill="#636363"/><path d="M457.24,543.37a5.82,5.82,0,0,0,.32,1c.19.47.39.94.59,1.42l.58,1.41a5.82,5.82,0,0,1,.32,1,1.49,1.49,0,0,0,.69.9,1.59,1.59,0,0,0,1.15.15,1.53,1.53,0,0,0,.9-.69,1.72,1.72,0,0,0,.15-1.16,5,5,0,0,0-.32-1c-.18-.48-.38-.95-.58-1.42s-.4-.94-.58-1.42a4.32,4.32,0,0,1-.32-1,1.5,1.5,0,0,0-1.85-1,1.47,1.47,0,0,0-.89.69,1.75,1.75,0,0,0-.16,1.15Z" fill="#636363"/><path d="M456.84,548.11c-1.11-.48-2.19-1-3.27-1.59s-2.16-1.1-3.2-1.73a1.5,1.5,0,0,0-1.51,2.59c1,.63,2.12,1.17,3.2,1.73s2.15,1.11,3.26,1.59a1.62,1.62,0,0,0,1.16.15,1.49,1.49,0,0,0,.36-2.74Z" fill="#636363"/><path d="M442.88,550.23l1.37,6.87a1.5,1.5,0,0,0,1.84,1,1.52,1.52,0,0,0,1.05-1.84l-1.36-6.87a1.53,1.53,0,0,0-1.85-1,1.55,1.55,0,0,0-1.05,1.85Z" fill="#636363"/><path d="M441.6,557.36l0,0,.3-.24,0,0,.36-.16,0,0,.4-.06h-.15l.4.06a6.65,6.65,0,0,1-.76-.23l-.82-.26L439.6,556a1.5,1.5,0,0,0-.8,2.89l1.95.62,1,.31a2.19,2.19,0,0,0,.72.14,1.81,1.81,0,0,0,1.27-.51,1.5,1.5,0,0,0,0-2.12,1.53,1.53,0,0,0-2.12,0Z" fill="#636363"/><path d="M433.09,560l.65,3.3a1.5,1.5,0,0,0,1.85,1,1.47,1.47,0,0,0,.89-.69,1.64,1.64,0,0,0,.16-1.15l-.66-3.29a1.52,1.52,0,0,0-.69-.9,1.5,1.5,0,0,0-2.05.54,1.64,1.64,0,0,0-.15,1.15Z" fill="#636363"/><path d="M431.64,564.21l-.16-.06.36.15a5.07,5.07,0,0,1-.61-.32l-.32-.22s-.21-.16,0,0,0,0,0,0c-.4-.31-.78-.64-1.17-1-.78-.68-1.56-1.37-2.32-2.08a1.5,1.5,0,0,0-2.12,2.12c.82.76,1.65,1.51,2.5,2.23.48.41,1,.81,1.46,1.19a6.4,6.4,0,0,0,1.62.89A1.57,1.57,0,0,0,432,567a1.5,1.5,0,0,0,.69-.89,1.55,1.55,0,0,0-1.05-1.85Z" fill="#636363"/><path d="M417.67,566.39l1.27,7.78a1.51,1.51,0,0,0,1.85,1.05,1.53,1.53,0,0,0,1-1.84l-1.27-7.78a1.5,1.5,0,0,0-1.84-1.05,1.53,1.53,0,0,0-1.05,1.84Z" fill="#636363"/><path d="M427.1,569.89V568a1.56,1.56,0,0,0-.44-1.06,1.11,1.11,0,0,0-.48-.31,1.27,1.27,0,0,0-.58-.13,1.56,1.56,0,0,0-1.06.44,1.58,1.58,0,0,0-.44,1.06v1.92a1.56,1.56,0,0,0,.44,1.06,1,1,0,0,0,.48.31,1.15,1.15,0,0,0,.58.13,1.54,1.54,0,0,0,1.06-.44,1.58,1.58,0,0,0,.44-1.06Z" fill="#636363"/><path d="M415.22,575.21l-3.11-4.8a1.5,1.5,0,1,0-2.59,1.51l3.11,4.8a1.5,1.5,0,0,0,2.59-1.51Z" fill="#636363"/><path d="M410,578.5l-1.73-1.24a1.62,1.62,0,0,0-1.15-.15,1,1,0,0,0-.51.27,1,1,0,0,0-.39.42A1.49,1.49,0,0,0,406,579l.15.36a1.4,1.4,0,0,0,.54.54l1.72,1.24a1.16,1.16,0,0,0,.56.18,1.22,1.22,0,0,0,.6,0,1.26,1.26,0,0,0,.51-.27,1.21,1.21,0,0,0,.39-.42,1.56,1.56,0,0,0,.15-1.16l-.15-.35a1.55,1.55,0,0,0-.54-.54Z" fill="#636363"/><path d="M401.16,580.26l.48,2.94a1.5,1.5,0,0,0,.69.89,1.52,1.52,0,0,0,1.16.15,1.47,1.47,0,0,0,.89-.69l.16-.35a1.55,1.55,0,0,0,0-.8l-.49-2.94a1.48,1.48,0,0,0-.68-.89,1.51,1.51,0,0,0-2.06.54l-.15.35a1.55,1.55,0,0,0,0,.8Z" fill="#636363"/><path d="M400.11,584.91l-4.45-4.63a1.52,1.52,0,0,0-2.13,0,1.54,1.54,0,0,0,0,2.12L398,587a1.52,1.52,0,0,0,2.13,0,1.54,1.54,0,0,0,0-2.12Z" fill="#636363"/><path d="M391.29,585.84l.78,4.79a1.5,1.5,0,0,0,1.85,1,1.55,1.55,0,0,0,.9-.69,1.72,1.72,0,0,0,.15-1.16l-.79-4.78a1.45,1.45,0,0,0-.69-.9,1.5,1.5,0,0,0-2.05.54,1.69,1.69,0,0,0-.15,1.15Z" fill="#636363"/><path d="M389.86,590.34l-3.92-2.89a1.49,1.49,0,0,0-1.15-.15,1.52,1.52,0,0,0-.9.69,1.5,1.5,0,0,0-.15,1.15,1.72,1.72,0,0,0,.69.9l3.92,2.89a1.51,1.51,0,0,0,1.16.15,1.53,1.53,0,0,0,.89-.69,1.46,1.46,0,0,0,.15-1.15,1.67,1.67,0,0,0-.69-.9Z" fill="#636363"/><path d="M385,594.06a20.27,20.27,0,0,1-4.4-2.59l.3.24-.26-.21a1.63,1.63,0,0,0-1.06-.44,1.54,1.54,0,0,0-1.06.44,1.47,1.47,0,0,0-.44,1.06,1.4,1.4,0,0,0,.44,1.06,21.69,21.69,0,0,0,5,3,1.73,1.73,0,0,0,1.16.15,1.59,1.59,0,0,0,.9-.69,1.56,1.56,0,0,0,.15-1.16,1.47,1.47,0,0,0-.69-.89Z" fill="#636363"/><path d="M377.26,598.92l-.83-5.1a1.5,1.5,0,0,0-.69-.89,1.52,1.52,0,0,0-1.16-.15,1.49,1.49,0,0,0-.89.68,1.72,1.72,0,0,0-.15,1.16l.83,5.1a1.5,1.5,0,0,0,.69.89,1.56,1.56,0,0,0,1.16.16,1.54,1.54,0,0,0,.89-.69,1.72,1.72,0,0,0,.15-1.16Z" fill="#636363"/><path d="M369.69,601.66a2.09,2.09,0,0,1-.34.08l.39-.06a2,2,0,0,1-.55,0l.4,0a2,2,0,0,1-.54-.14,1,1,0,0,0-.6,0,1.12,1.12,0,0,0-.56.18,1.18,1.18,0,0,0-.42.38,1.26,1.26,0,0,0-.27.51l-.05.4a1.54,1.54,0,0,0,.2.76l.24.3a1.39,1.39,0,0,0,.66.39,1.65,1.65,0,0,0,.36.11,3.86,3.86,0,0,0,.75.1,1.59,1.59,0,0,0,.38,0,3.68,3.68,0,0,0,.75-.13,1,1,0,0,0,.51-.27,1.13,1.13,0,0,0,.39-.42,1,1,0,0,0,.17-.55,1.11,1.11,0,0,0,0-.6l-.15-.36a1.55,1.55,0,0,0-.54-.54l-.36-.15a1.55,1.55,0,0,0-.8,0Z" fill="#636363"/><path d="M366.15,605.66l-.35-2.17a1.26,1.26,0,0,0-.27-.51,1.18,1.18,0,0,0-.42-.38,1.66,1.66,0,0,0-1.16-.15,1.47,1.47,0,0,0-.89.69l-.15.35a1.36,1.36,0,0,0,0,.8l.35,2.16a1.14,1.14,0,0,0,.27.51,1,1,0,0,0,.42.39,1.12,1.12,0,0,0,.56.18,1.22,1.22,0,0,0,.6,0,1.5,1.5,0,0,0,.89-.69l.15-.36a1.51,1.51,0,0,0,0-.79Z" fill="#636363"/><path d="M360.69,608.29c-.21-.43-.41-.85-.6-1.29l.15.36a20.57,20.57,0,0,1-1.06-3.25,1.53,1.53,0,0,0-1.85-1.05,1.55,1.55,0,0,0-1.05,1.85,23,23,0,0,0,1.82,4.89,1.51,1.51,0,0,0,2,.54,1.53,1.53,0,0,0,.54-2.05Z" fill="#636363"/><path d="M358,610.49l-4.41-5a1.51,1.51,0,0,0-2.12,0,1.53,1.53,0,0,0,0,2.12l4.4,5a1.52,1.52,0,0,0,2.13,0,1.55,1.55,0,0,0,0-2.12Z" fill="#636363"/><path d="M351.53,613.54l-3-.22a1.54,1.54,0,0,0-1.06.44,1.52,1.52,0,0,0-.44,1.06,1.5,1.5,0,0,0,.44,1.06,1.64,1.64,0,0,0,1.06.44l3,.22a1.46,1.46,0,0,0,1.06-.44A1.5,1.5,0,0,0,353,615a1.47,1.47,0,0,0-.44-1.06,1.64,1.64,0,0,0-1.06-.44Z" fill="#636363"/><path d="M344.35,617.36a10.36,10.36,0,0,1-1,.5l.36-.15a9.86,9.86,0,0,1-2.26.63,1.53,1.53,0,0,0-.89.69,1.57,1.57,0,0,0-.16,1.16,1.54,1.54,0,0,0,.69.89l.36.16a1.55,1.55,0,0,0,.8,0,10.76,10.76,0,0,0,3.61-1.29,1.5,1.5,0,0,0,.69-.89,1.5,1.5,0,0,0-2.2-1.7Z" fill="#636363"/><path d="M338.91,624.72a19.56,19.56,0,0,0-2.39-2.83A1.51,1.51,0,0,0,334,623a1.54,1.54,0,0,0,.44,1.06,17.91,17.91,0,0,1,1.7,1.89l-.24-.3.47.63a1.61,1.61,0,0,0,.89.69,1.52,1.52,0,0,0,1.16-.15,1.5,1.5,0,0,0,.69-.89,1.47,1.47,0,0,0-.15-1.16Z" fill="#636363"/><path d="M335.33,627.39l-5.15-1.78a1.52,1.52,0,0,0-1.84,1,1.53,1.53,0,0,0,1,1.85l5.15,1.77a1.5,1.5,0,0,0,1.84-1,1.54,1.54,0,0,0-1-1.85Z" fill="#636363"/><path d="M331.83,632.35a16.3,16.3,0,0,1-2.64,1.41l.36-.15-.67.26a1.65,1.65,0,0,0-.89.69,1.51,1.51,0,0,0,.54,2.06,1.49,1.49,0,0,0,1.15.15,18.77,18.77,0,0,0,3.67-1.83,1.6,1.6,0,0,0,.69-.9,1.54,1.54,0,0,0-.15-1.15,1.51,1.51,0,0,0-2.06-.54Z" fill="#636363"/><path d="M329.3,639.53q-.48.24-1,.45l.36-.15a17,17,0,0,1-4,1.15,1.5,1.5,0,0,0-.36,2.74,1.72,1.72,0,0,0,1.16.15,18.62,18.62,0,0,0,5.36-1.75,1.5,1.5,0,0,0-1.52-2.59Z" fill="#636363"/><path d="M327.71,647.13l-2.54-1.89a1.73,1.73,0,0,0-1.16-.16,1.54,1.54,0,0,0-.89.69,1.47,1.47,0,0,0-.15,1.16l.15.36a1.61,1.61,0,0,0,.53.54l2.54,1.89a1.12,1.12,0,0,0,.56.18,1,1,0,0,0,.6,0,1.49,1.49,0,0,0,.89-.68,1.52,1.52,0,0,0,.16-1.16l-.16-.36a1.61,1.61,0,0,0-.53-.54Z" fill="#636363"/><path d="M325.5,652.66h-.09l.4.05-.33-.07-.17-.06.12,0a6.21,6.21,0,0,1-.6-.35c-.4-.27-.79-.58-1.18-.87l-2.56-1.95a1.47,1.47,0,0,0-1.16-.15,1.54,1.54,0,0,0-.9.68,1.56,1.56,0,0,0-.15,1.16,1.76,1.76,0,0,0,.69.9l2.73,2.07c.41.31.81.63,1.24.9a4.84,4.84,0,0,0,2,.65,1.52,1.52,0,0,0,1.06-.44,1.56,1.56,0,0,0,.44-1.06,1.54,1.54,0,0,0-.44-1.06,1.74,1.74,0,0,0-1.06-.44Z" fill="#636363"/><path d="M323.94,658,319,659.26a1.5,1.5,0,0,0,.8,2.9l4.93-1.3a1.5,1.5,0,1,0-.8-2.89Z" fill="#636363"/><path d="M322.48,662.14l-.81.42a1.31,1.31,0,0,0-.42.39,1,1,0,0,0-.26.51,1,1,0,0,0,0,.6,1.16,1.16,0,0,0,.18.56l.23.3a1.47,1.47,0,0,0,.66.38l.4.06a1.48,1.48,0,0,0,.76-.21l.81-.42a1.31,1.31,0,0,0,.42-.39,1,1,0,0,0,.26-.51,1,1,0,0,0,0-.6,1.16,1.16,0,0,0-.18-.56l-.23-.3a1.47,1.47,0,0,0-.66-.38l-.4-.06a1.48,1.48,0,0,0-.76.21Z" fill="#636363"/><path d="M321.31,669a94,94,0,0,0-5.37,8.44,1.5,1.5,0,1,0,2.59,1.51,95.44,95.44,0,0,1,5.37-8.44,1.51,1.51,0,0,0-.54-2,1.54,1.54,0,0,0-2.05.54Z" fill="#636363"/><path d="M319.86,682.63l-1.81.59a1.64,1.64,0,0,0-.9.69,1.16,1.16,0,0,0-.18.56,1.22,1.22,0,0,0,0,.6,1.5,1.5,0,0,0,1.85,1l1.8-.6a1.59,1.59,0,0,0,.9-.69,1.12,1.12,0,0,0,.18-.56,1.08,1.08,0,0,0,0-.59,1.46,1.46,0,0,0-.69-.9,1.49,1.49,0,0,0-1.15-.15Z" fill="#636363"/><path d="M319,687.91l-2.32.33a1.14,1.14,0,0,0-.51.27,1.31,1.31,0,0,0-.39.42,1.56,1.56,0,0,0-.15,1.16,1.5,1.5,0,0,0,.69.89l.36.15a1.36,1.36,0,0,0,.8,0l2.32-.33a1.14,1.14,0,0,0,.51-.27,1.31,1.31,0,0,0,.39-.42,1.52,1.52,0,0,0,.15-1.16,1.5,1.5,0,0,0-.69-.89l-.36-.15a1.36,1.36,0,0,0-.8,0Z" fill="#636363"/><path d="M318,694.36l-3.33-1.48a1.12,1.12,0,0,0-.56-.18,1.22,1.22,0,0,0-.6,0,1.47,1.47,0,0,0-.89.69,1.5,1.5,0,0,0-.16,1.15,1.47,1.47,0,0,0,.69.9l3.34,1.48a1.12,1.12,0,0,0,.56.18,1,1,0,0,0,.6,0,1.49,1.49,0,0,0,.89-.69,1.5,1.5,0,0,0-.54-2Z" fill="#636363"/><path d="M316.63,698.81l-1.86.27a1.26,1.26,0,0,0-.51.27,1.31,1.31,0,0,0-.39.42,1.82,1.82,0,0,0-.15,1.16,1.54,1.54,0,0,0,.69.89l.36.16a1.55,1.55,0,0,0,.8,0l1.86-.27a1.26,1.26,0,0,0,.51-.27,1.18,1.18,0,0,0,.38-.42,1.12,1.12,0,0,0,.18-.56,1,1,0,0,0,0-.6,1.54,1.54,0,0,0-.68-.9l-.36-.15a1.55,1.55,0,0,0-.8,0Z" fill="#636363"/><path d="M314.85,705.59a37,37,0,0,1-2.29,4.25,1.5,1.5,0,1,0,2.59,1.51,35.44,35.44,0,0,0,2.29-4.25,1.65,1.65,0,0,0,.15-1.15,1.56,1.56,0,0,0-.69-.9,1.52,1.52,0,0,0-1.16-.15,1.44,1.44,0,0,0-.89.69Z" fill="#636363"/><path d="M315.14,716.87l-4.5,2.61a1.5,1.5,0,0,0,1.51,2.59l4.5-2.61a1.5,1.5,0,1,0-1.51-2.59Z" fill="#636363"/><path d="M315.34,721.35l-1.14.81a1.18,1.18,0,0,0-.42.38,1.26,1.26,0,0,0-.27.51,1.11,1.11,0,0,0,0,.6,1,1,0,0,0,.17.56l.24.3a1.49,1.49,0,0,0,.66.39l.4.05a1.57,1.57,0,0,0,.76-.2l1.14-.81a1.31,1.31,0,0,0,.42-.39,1.26,1.26,0,0,0,.27-.51,1.11,1.11,0,0,0,0-.6,1.16,1.16,0,0,0-.18-.56l-.23-.3a1.59,1.59,0,0,0-.66-.39l-.4-.05a1.48,1.48,0,0,0-.76.21Z" fill="#636363"/><path d="M313.45,732.07c0,.09-.07.19-.1.29s-.14.33,0,0c-.07.17-.15.34-.23.5-.18.34-.37.67-.58,1s-.46.67-.71,1c-.09.12-.07.09,0,0l-.19.24-.39.48a34.64,34.64,0,0,0-3,4,1.5,1.5,0,0,0,2.59,1.52c.21-.36.44-.7.68-1l.36-.5c.1-.12.08-.09,0,0,.08-.09.15-.19.23-.29.51-.63,1-1.24,1.54-1.87a15,15,0,0,0,2.73-4.58,1.5,1.5,0,0,0-1-1.84,1.53,1.53,0,0,0-1.85,1.05Z" fill="#636363"/><path d="M312.41,741.28c0,.49-.05,1-.1,1.45l0,.33s-.06.49,0,.25,0,.2,0,.24l-.06.33a23.05,23.05,0,0,1-.66,2.82,1.53,1.53,0,0,0,1.05,1.85,1.54,1.54,0,0,0,1.85-1,25.26,25.26,0,0,0,1-6.22,1.5,1.5,0,0,0-3,0Z" fill="#636363"/><path d="M312.8,752.19l-3.31,1.13a1.64,1.64,0,0,0-.9.69,1.52,1.52,0,0,0-.15,1.16,1.5,1.5,0,0,0,.69.89,1.47,1.47,0,0,0,1.16.15l3.31-1.12a1.67,1.67,0,0,0,.9-.69,1.61,1.61,0,0,0,.15-1.16,1.59,1.59,0,0,0-.69-.9,1.52,1.52,0,0,0-1.16-.15Z" fill="#636363"/><path d="M311.89,761l-.46.63.24-.31a12.24,12.24,0,0,1-1.94,2,1.5,1.5,0,0,0,1.06,2.56l.4,0a1.49,1.49,0,0,0,.66-.39,13.6,13.6,0,0,0,2.63-2.93,1.49,1.49,0,0,0,.15-1.15,1.56,1.56,0,0,0-.69-.9,1.52,1.52,0,0,0-1.16-.15,1.64,1.64,0,0,0-.89.69Z" fill="#636363"/><path d="M311.8,771.6l-.2.28.23-.3a5.23,5.23,0,0,1-.94.94,1.21,1.21,0,0,0-.31.48,1.14,1.14,0,0,0-.12.58,1.11,1.11,0,0,0,.12.57,1.32,1.32,0,0,0,.31.49l.31.23a1.43,1.43,0,0,0,.76.21l.39-.06a1.54,1.54,0,0,0,.67-.38,6.76,6.76,0,0,0,.62-.57c.1-.1.18-.21.27-.31s.33-.42.48-.64a1.12,1.12,0,0,0,.18-.56,1.22,1.22,0,0,0,0-.6,1.26,1.26,0,0,0-.27-.51,1.18,1.18,0,0,0-.42-.38l-.36-.16a1.55,1.55,0,0,0-.8,0l-.35.16a1.45,1.45,0,0,0-.54.53Z" fill="#636363"/><path d="M312.73,777.36a19.38,19.38,0,0,0-3.94,5.4,1.62,1.62,0,0,0-.15,1.16,1.5,1.5,0,0,0,2.74.36,18.07,18.07,0,0,1,1.6-2.68l.21-.28c.14-.19,0,0-.05,0l.11-.13.51-.61c.35-.4.71-.78,1.09-1.15a1.5,1.5,0,0,0-2.12-2.12Z" fill="#636363"/><path d="M312.35,789.59l-3.16,1.1a1.57,1.57,0,0,0-.89.69,1.49,1.49,0,0,0,.53,2,1.52,1.52,0,0,0,1.16.15l3.16-1.1a1.5,1.5,0,0,0,1.05-1.85,1.54,1.54,0,0,0-.69-.89,1.48,1.48,0,0,0-1.16-.15Z" fill="#636363"/><path d="M311.41,794.86a8.85,8.85,0,0,1-1.76.42l.4,0-.7.07a1.56,1.56,0,0,0-1.06.44,1.5,1.5,0,0,0-.44,1.06,1.52,1.52,0,0,0,.44,1.06,1.5,1.5,0,0,0,1.06.44,10.73,10.73,0,0,0,2.86-.55,1.63,1.63,0,0,0,.9-.69,1.52,1.52,0,0,0,.15-1.16,1.5,1.5,0,0,0-.69-.89,1.47,1.47,0,0,0-1.16-.15Z" fill="#636363"/><path d="M312.47,802.25l-6.8,0a1.5,1.5,0,0,0,0,3l6.8,0a1.5,1.5,0,0,0,0-3Z" fill="#636363"/><path d="M309.46,811.06c0,.06,0,.13-.08.2l.16-.36a6.61,6.61,0,0,1-.78,1.34l.23-.3a5,5,0,0,1-.53.59,1.51,1.51,0,0,0,1.07,2.57,1.63,1.63,0,0,0,1.06-.44,8.59,8.59,0,0,0,1-1.3,8.41,8.41,0,0,0,.73-1.51,1.08,1.08,0,0,0,0-.59,1,1,0,0,0-.17-.56,1.55,1.55,0,0,0-.9-.69,1.52,1.52,0,0,0-1.16.15l-.3.23a1.56,1.56,0,0,0-.39.67Z" fill="#636363"/><path d="M311.1,816.1a28.59,28.59,0,0,0-4.26,5.59,1.51,1.51,0,0,0,.54,2,1.53,1.53,0,0,0,2.05-.53,26,26,0,0,1,1.82-2.74l.11-.15-.06.08.26-.33.51-.61c.37-.42.75-.84,1.15-1.24a1.5,1.5,0,0,0-2.12-2.12Z" fill="#636363"/><path d="M311.49,825.81l-5.58,3.09a1.51,1.51,0,0,0-.54,2.05,1.53,1.53,0,0,0,2.06.54L313,828.4a1.51,1.51,0,0,0,.54-2,1.55,1.55,0,0,0-2.06-.54Z" fill="#636363"/><path d="M311.52,831.74l-4,.64a1.5,1.5,0,0,0-.36,2.74l.36.15a1.55,1.55,0,0,0,.8,0l4-.63a1.52,1.52,0,0,0,.9-.69,1.61,1.61,0,0,0,.15-1.16,1.5,1.5,0,0,0-.69-.89l-.36-.16a1.55,1.55,0,0,0-.8,0Z" fill="#636363"/><path d="M313.92,842.27a4.7,4.7,0,0,0-.41-.88,5.34,5.34,0,0,0-.59-.76,4.3,4.3,0,0,0-.73-.61,2.7,2.7,0,0,0-.52-.3,1.66,1.66,0,0,0-1.16-.15,1.06,1.06,0,0,0-.51.27,1,1,0,0,0-.38.42,1.5,1.5,0,0,0-.16,1.15l.16.36a1.45,1.45,0,0,0,.53.54,3,3,0,0,1,.6.36l-.3-.24a3.18,3.18,0,0,1,.55.55l-.24-.3a2.84,2.84,0,0,1,.38.65L311,843l0,.09a1,1,0,0,0,.27.51,1.06,1.06,0,0,0,.42.39,1.12,1.12,0,0,0,.56.18,1.19,1.19,0,0,0,.59,0,1.49,1.49,0,0,0,.9-.69l.15-.36a1.51,1.51,0,0,0,0-.79Z" fill="#636363"/><path d="M313.06,849.08h-2.54a1.59,1.59,0,0,0-1.06.44,1.52,1.52,0,0,0-.44,1.06,1.46,1.46,0,0,0,.44,1.06,1.5,1.5,0,0,0,1.06.44h2.54a1.5,1.5,0,0,0,1.06-2.56,1.58,1.58,0,0,0-1.06-.44Z" fill="#636363"/><path d="M312.36,855.17a18.93,18.93,0,0,0-4.33,1.76,1.5,1.5,0,1,0,1.52,2.59,16.71,16.71,0,0,1,1.7-.83l-.36.15a17.87,17.87,0,0,1,2.27-.78,1.5,1.5,0,1,0-.8-2.89Z" fill="#636363"/><path d="M311.76,860.27a14.4,14.4,0,0,1-.39,1.57c-.08.25-.17.51-.27.76l-.07.18c-.07.19,0,0,0-.08-.07.13-.12.28-.19.41a12.06,12.06,0,0,1-.78,1.41,7.75,7.75,0,0,1-.46.66s-.17.22,0,.05l0,0-.29.34a1.5,1.5,0,0,0,2.12,2.13,14.3,14.3,0,0,0,3.26-6.68,1.5,1.5,0,0,0-2.89-.8Z" fill="#636363"/><path d="M312.13,871.9l-1.85,4a1.64,1.64,0,0,0-.15,1.15,1.56,1.56,0,0,0,.69.9,1.52,1.52,0,0,0,1.16.15,1.44,1.44,0,0,0,.89-.69l1.85-4a1.64,1.64,0,0,0,.15-1.15,1.5,1.5,0,0,0-1.85-1,1.44,1.44,0,0,0-.89.69Z" fill="#636363"/><path d="M313.79,883.8l-.94.1a1,1,0,0,0-.57.13,1.34,1.34,0,0,0-.8.79,1.27,1.27,0,0,0-.13.58l.06.4a1.57,1.57,0,0,0,.38.66l.31.23a1.42,1.42,0,0,0,.75.21l.94-.1a1.15,1.15,0,0,0,.58-.13,1,1,0,0,0,.48-.31,1.14,1.14,0,0,0,.31-.48,1.06,1.06,0,0,0,.13-.58l-.05-.4a1.49,1.49,0,0,0-.39-.66l-.3-.24a1.54,1.54,0,0,0-.76-.2Z" fill="#636363"/><path d="M314.09,889.79l-1.88.19a1.06,1.06,0,0,0-.58.13,1.08,1.08,0,0,0-.48.31,1,1,0,0,0-.31.48,1.06,1.06,0,0,0-.13.58,1.5,1.5,0,0,0,.44,1.06l.3.23a1.48,1.48,0,0,0,.76.21l1.88-.19a1.27,1.27,0,0,0,.58-.13,1.24,1.24,0,0,0,.48-.31,1.11,1.11,0,0,0,.31-.49,1.14,1.14,0,0,0,.13-.57,1.59,1.59,0,0,0-.44-1.07l-.3-.23a1.47,1.47,0,0,0-.76-.2Z" fill="#636363"/><path d="M312.79,896a80.59,80.59,0,0,1-4.35,7.68,1.51,1.51,0,0,0,.53,2.05,1.54,1.54,0,0,0,2.06-.54,80.59,80.59,0,0,0,4.35-7.68,1.5,1.5,0,1,0-2.59-1.51Z" fill="#636363"/><path d="M313.24,909.32l-1.63,2.12a1.12,1.12,0,0,0-.18.56,1.08,1.08,0,0,0,0,.59,1.5,1.5,0,0,0,1.84,1l.36-.15a1.4,1.4,0,0,0,.54-.54l1.63-2.12a1.09,1.09,0,0,0,.18-.55,1.22,1.22,0,0,0,0-.6,1.5,1.5,0,0,0-1.85-1l-.35.15a1.4,1.4,0,0,0-.54.54Z" fill="#636363"/><path d="M313.56,916.32l-.18.14.31-.23a9.22,9.22,0,0,1-1.9,1.1l.36-.15a8.74,8.74,0,0,1-1.22.41,1.55,1.55,0,0,0-.9.69,1.49,1.49,0,0,0-.15,1.15,1.52,1.52,0,0,0,1.84,1.05,9.88,9.88,0,0,0,2.1-.8,10,10,0,0,0,1.86-1.23,1.51,1.51,0,0,0,0-2.13,1.56,1.56,0,0,0-1.06-.44l-.4.06a1.57,1.57,0,0,0-.66.38Z" fill="#636363"/><path d="M315.67,924l-2.8.41a1.5,1.5,0,0,0-1.05,1.84,1.55,1.55,0,0,0,.69.9l.36.15a1.51,1.51,0,0,0,.79,0l2.81-.41a1.49,1.49,0,0,0,.9-.69,1.5,1.5,0,0,0-.54-2l-.36-.15a1.55,1.55,0,0,0-.8,0Z" fill="#636363"/><path d="M315.5,929.4l-1.24.18a1,1,0,0,0-.51.26,1.08,1.08,0,0,0-.39.43,1.09,1.09,0,0,0-.18.55,1.22,1.22,0,0,0,0,.6l.15.36a1.55,1.55,0,0,0,.54.54l.36.15a1.51,1.51,0,0,0,.79,0l1.25-.18a1.14,1.14,0,0,0,.51-.27,1.31,1.31,0,0,0,.39-.42,1,1,0,0,0,.17-.56,1.11,1.11,0,0,0,0-.6l-.15-.35a1.55,1.55,0,0,0-.54-.54l-.36-.15a1.36,1.36,0,0,0-.8,0Z" fill="#636363"/><path d="M317.07,940.67l-1.95-2.25a1,1,0,0,0-.48-.31,1.06,1.06,0,0,0-.58-.13,1.5,1.5,0,0,0-1.5,1.5l.06.4a1.57,1.57,0,0,0,.38.66l1.94,2.25a1.11,1.11,0,0,0,.49.31,1.14,1.14,0,0,0,.57.13,1.54,1.54,0,0,0,1.07-.44,1.51,1.51,0,0,0,.43-1.06l-.05-.4a1.51,1.51,0,0,0-.38-.66Z" fill="#636363"/><path d="M314.59,949.35a35.26,35.26,0,0,0-4.38,5,1.45,1.45,0,0,0-.15,1.15,1.49,1.49,0,0,0,.69.9,1.54,1.54,0,0,0,1.15.15,1.76,1.76,0,0,0,.9-.69c.18-.25.37-.51.56-.75l-.23.3a33.32,33.32,0,0,1,3.58-3.93,1.5,1.5,0,0,0-2.12-2.12Z" fill="#636363"/><path d="M312.59,959.53c0,.06,0,.13,0,.19l.05-.4a8,8,0,0,1-.58,2.1l.15-.35a8.73,8.73,0,0,1-.76,1.41,1.51,1.51,0,0,0,.53,2A1.54,1.54,0,0,0,314,964a10.33,10.33,0,0,0,1.06-2.13,9.7,9.7,0,0,0,.51-2.33,1.5,1.5,0,0,0-.44-1.06,1.52,1.52,0,0,0-1.06-.44,1.5,1.5,0,0,0-1.06.44l-.23.3a1.48,1.48,0,0,0-.21.76Z" fill="#636363"/><path d="M313.35,966.72l-2.5.36a1.26,1.26,0,0,0-.51.27,1.18,1.18,0,0,0-.38.42,1.52,1.52,0,0,0-.15,1.16,1.54,1.54,0,0,0,.68.9l.36.15a1.55,1.55,0,0,0,.8,0l2.49-.36a1.14,1.14,0,0,0,.51-.27,1.12,1.12,0,0,0,.39-.42,1.52,1.52,0,0,0,.15-1.16,1.55,1.55,0,0,0-.69-.9l-.36-.15a1.51,1.51,0,0,0-.79,0Z" fill="#636363"/><path d="M312.07,973.27l-2.5.36a1.26,1.26,0,0,0-.51.27,1.31,1.31,0,0,0-.39.42,1.61,1.61,0,0,0-.15,1.16,1.59,1.59,0,0,0,.69.9l.36.15a1.55,1.55,0,0,0,.8,0l2.49-.36a1.14,1.14,0,0,0,.51-.27,1.21,1.21,0,0,0,.39-.42,1.52,1.52,0,0,0,.15-1.16,1.55,1.55,0,0,0-.69-.9l-.36-.15a1.51,1.51,0,0,0-.79,0Z" fill="#636363"/><path d="M311.09,977.55l-3.74.54a1.51,1.51,0,0,0-.9.69,1.61,1.61,0,0,0-.15,1.16,1.54,1.54,0,0,0,.69.89l.36.15a1.36,1.36,0,0,0,.8,0l3.74-.54a1.51,1.51,0,0,0,.9-.69,1.5,1.5,0,0,0-.54-2l-.36-.15a1.55,1.55,0,0,0-.8,0Z" fill="#636363"/><path d="M311.71,984.38l-2.33,3.54a1.61,1.61,0,0,0-.15,1.16,1.57,1.57,0,0,0,.69.89,1.54,1.54,0,0,0,2.06-.53l2.33-3.54a1.61,1.61,0,0,0,.15-1.16,1.59,1.59,0,0,0-.69-.9,1.55,1.55,0,0,0-2.06.54Z" fill="#636363"/><path d="M310.21,991.68,308,994.2a1.56,1.56,0,0,0-.44,1.06,1.5,1.5,0,0,0,2.56,1.06l2.2-2.52a1.63,1.63,0,0,0,.44-1.06,1.54,1.54,0,0,0-.44-1.06,1.47,1.47,0,0,0-1.06-.44,1.44,1.44,0,0,0-1.06.44Z" fill="#636363"/><path d="M309.82,1002.31a7.65,7.65,0,0,0-3.05,2.84,1.56,1.56,0,0,0-.15,1.16,1.51,1.51,0,0,0,.69.9,1.54,1.54,0,0,0,1.15.15,1.64,1.64,0,0,0,.9-.69,5.72,5.72,0,0,1,.39-.57l-.24.31a6.14,6.14,0,0,1,1.11-1.11l-.3.24a6,6,0,0,1,1-.64,1.5,1.5,0,0,0,.54-2,1.55,1.55,0,0,0-.9-.69l-.4,0a1.57,1.57,0,0,0-.76.2Z" fill="#636363"/><path d="M308.79,1014.9l-2.36,1.29a1.55,1.55,0,0,0-.69.9,1.5,1.5,0,0,0,1.05,1.85,1.59,1.59,0,0,0,1.15-.16l2.36-1.29a1.52,1.52,0,0,0,.69-.9,1.54,1.54,0,0,0-.15-1.15,1.51,1.51,0,0,0-.9-.69,1.59,1.59,0,0,0-1.15.15Z" fill="#636363"/><path d="M308.85,1023.7,307,1024a1.14,1.14,0,0,0-.51.27,1.34,1.34,0,0,0-.57,1,1.22,1.22,0,0,0,0,.6,1.5,1.5,0,0,0,.69.89l.36.15a1.33,1.33,0,0,0,.79,0l1.87-.27a1,1,0,0,0,.51-.26,1.08,1.08,0,0,0,.39-.43,1.09,1.09,0,0,0,.18-.55,1.22,1.22,0,0,0,0-.6,1.55,1.55,0,0,0-.69-.9l-.36-.15a1.51,1.51,0,0,0-.79,0Z" fill="#636363"/><path d="M309.48,1032.52l-1.24.18a1.14,1.14,0,0,0-.51.27,1,1,0,0,0-.39.42,1.12,1.12,0,0,0-.18.56,1.18,1.18,0,0,0,0,.59l.15.36a1.4,1.4,0,0,0,.54.54l.36.15a1.51,1.51,0,0,0,.79,0l1.25-.18a1,1,0,0,0,.51-.27,1.34,1.34,0,0,0,.57-1,1.22,1.22,0,0,0,0-.6l-.15-.36a1.55,1.55,0,0,0-.54-.54l-.36-.15a1.55,1.55,0,0,0-.8,0Z" fill="#636363"/><path d="M308.69,1039.29c0,.12-.09.24-.14.36l-.07.18c.09-.21.1-.24,0-.1s-.21.47-.32.7c-.23.46-.46.91-.72,1.36s-.53.87-.82,1.29l-.44.63-.11.15.06-.08s-.22.28-.24.3a1.65,1.65,0,0,0-.44,1.07,1.53,1.53,0,0,0,.44,1.06,1.52,1.52,0,0,0,2.12,0,23.1,23.1,0,0,0,3.54-6.12,1.5,1.5,0,0,0-.16-1.15,1.5,1.5,0,0,0-2.74.35Z" fill="#636363"/><path d="M308.63,1051.45l-2.36,1.29a1.52,1.52,0,0,0-.69.9,1.54,1.54,0,0,0,.15,1.15,1.49,1.49,0,0,0,.9.69,1.59,1.59,0,0,0,1.15-.15l2.37-1.29a1.49,1.49,0,0,0,.68-.89,1.52,1.52,0,0,0-.15-1.16,1.5,1.5,0,0,0-.89-.69,1.62,1.62,0,0,0-1.16.15Z" fill="#636363"/><path d="M310.86,1057.46l-3.74.54a1.49,1.49,0,0,0-.9.69,1.52,1.52,0,0,0-.15,1.16,1.5,1.5,0,0,0,.69.89l.36.15a1.33,1.33,0,0,0,.79,0l3.75-.54a1.5,1.5,0,0,0,1-1.84,1.51,1.51,0,0,0-.69-.9l-.35-.15a1.55,1.55,0,0,0-.8,0Z" fill="#636363"/><path d="M310.29,1064.79a9.6,9.6,0,0,0-1.08,3.74,1.52,1.52,0,0,0,.44,1.06,1.56,1.56,0,0,0,1.06.44,1.54,1.54,0,0,0,1.06-.44,1.68,1.68,0,0,0,.44-1.06c0-.15,0-.29.05-.43l-.06.4a7.92,7.92,0,0,1,.53-1.92l-.15.36a6.09,6.09,0,0,1,.3-.63,1.57,1.57,0,0,0,.15-1.16,1.49,1.49,0,0,0-.69-.9,1.54,1.54,0,0,0-1.15-.15,1.52,1.52,0,0,0-.9.69Z" fill="#636363"/><path d="M310.19,1076.59l0,0,.15-.36a6.2,6.2,0,0,1-.83,1.43l.23-.31a6.22,6.22,0,0,1-1,1,1.5,1.5,0,0,0-.44,1.06,1.53,1.53,0,0,0,.44,1.06,1.56,1.56,0,0,0,1.06.44l.4-.06a1.57,1.57,0,0,0,.66-.38,8.18,8.18,0,0,0,1.31-1.45,7.94,7.94,0,0,0,.93-1.72,1.22,1.22,0,0,0,0-.6,1.12,1.12,0,0,0-.18-.56,1.52,1.52,0,0,0-.9-.69,1.49,1.49,0,0,0-1.15.15l-.31.24a1.57,1.57,0,0,0-.38.66Z" fill="#636363"/><path d="M310.76,1085.72l-1.24,2.41a1.54,1.54,0,0,0-.15,1.15,1.5,1.5,0,0,0,2.74.36l1.24-2.4a1.56,1.56,0,0,0,.15-1.16,1.49,1.49,0,0,0-.69-.9,1.54,1.54,0,0,0-1.15-.15,1.52,1.52,0,0,0-.9.69Z" fill="#636363"/><path d="M312.3,1095.5h-2.23a1.54,1.54,0,0,0-1.06.44,1.52,1.52,0,0,0-.44,1.06,1.5,1.5,0,0,0,.44,1.06,1.54,1.54,0,0,0,1.06.44h2.23a1.5,1.5,0,0,0,1.06-2.56,1.58,1.58,0,0,0-1.06-.44Z" fill="#636363"/><path d="M312.22,1102.38a3.27,3.27,0,0,1-.43.72l.24-.31a3.47,3.47,0,0,1-.64.63l.31-.23a3.48,3.48,0,0,1-.75.43l.36-.15-.17.07a1.06,1.06,0,0,0-.51.27,1,1,0,0,0-.38.42,1.12,1.12,0,0,0-.18.56,1,1,0,0,0,0,.59,1.48,1.48,0,0,0,1.84,1,5.11,5.11,0,0,0,1-.45,5.32,5.32,0,0,0,.85-.65,5.91,5.91,0,0,0,.69-.81,4.26,4.26,0,0,0,.35-.62,1.16,1.16,0,0,0,.18-.56,1.22,1.22,0,0,0,0-.6,1,1,0,0,0-.27-.51,1.13,1.13,0,0,0-.42-.39,1.54,1.54,0,0,0-1.15-.15l-.36.15a1.55,1.55,0,0,0-.54.54Z" fill="#636363"/><path d="M312.61,1109.34l-2,3.78a1.56,1.56,0,0,0-.15,1.16,1.5,1.5,0,0,0,2.74.35l2-3.78a1.59,1.59,0,0,0,.15-1.15,1.56,1.56,0,0,0-.69-.9,1.52,1.52,0,0,0-2.05.54Z" fill="#636363"/><path d="M312.75,1118.55c-.14.44-.29.87-.46,1.3,0,.11-.09.22-.13.34s-.05.11,0-.11c0,.06-.05.12-.07.17-.09.21-.19.42-.29.63a20.86,20.86,0,0,1-1.37,2.44,1.5,1.5,0,0,0,.54,2,1.52,1.52,0,0,0,2.05-.54,22.05,22.05,0,0,0,2.58-5.49,1.51,1.51,0,0,0-1-1.84,1.54,1.54,0,0,0-1.85,1Z" fill="#636363"/><path d="M314.36,1130.15l-4.68.68a1.47,1.47,0,0,0-.9.68,1.52,1.52,0,0,0-.15,1.16,1.55,1.55,0,0,0,.69.9,1.78,1.78,0,0,0,1.16.15l4.67-.68a1.5,1.5,0,0,0,.36-2.74,1.75,1.75,0,0,0-1.15-.15Z" fill="#636363"/><path d="M315.6,1135.76l-2.49-1.87a1.16,1.16,0,0,0-.56-.18,1.22,1.22,0,0,0-.6,0,1.51,1.51,0,0,0-.9.69,1.54,1.54,0,0,0-.15,1.15l.15.36a1.55,1.55,0,0,0,.54.54l2.5,1.87a1.12,1.12,0,0,0,.56.18,1.22,1.22,0,0,0,.6,0,1.57,1.57,0,0,0,.89-.69,1.47,1.47,0,0,0,.15-1.16l-.15-.36a1.45,1.45,0,0,0-.54-.53Z" fill="#636363"/><path d="M314.37,1141.29l-1.56.22a1.26,1.26,0,0,0-.51.27,1.1,1.1,0,0,0-.38.42,1.12,1.12,0,0,0-.18.56,1,1,0,0,0,0,.6l.15.35a1.4,1.4,0,0,0,.54.54l.35.15a1.55,1.55,0,0,0,.8,0l1.56-.22a1.26,1.26,0,0,0,.51-.27,1.31,1.31,0,0,0,.39-.42,1,1,0,0,0,.17-.56,1.11,1.11,0,0,0,0-.6l-.15-.36a1.61,1.61,0,0,0-.54-.53l-.36-.15a1.36,1.36,0,0,0-.8,0Z" fill="#636363"/><path d="M314.17,1147.35a6.45,6.45,0,0,1-.27.85l.15-.36a6.07,6.07,0,0,1-.66,1.13l.23-.3a5.4,5.4,0,0,1-.92.93l.3-.24-.11.09a1,1,0,0,0-.42.39,1,1,0,0,0-.27.51,1.49,1.49,0,0,0,.15,1.15,1.52,1.52,0,0,0,.9.69,1.41,1.41,0,0,0,1.15-.15,7.61,7.61,0,0,0,1-.82,8,8,0,0,0,.8-1,5.47,5.47,0,0,0,.45-.82,8.22,8.22,0,0,0,.44-1.23,1.57,1.57,0,0,0-.16-1.16,1.5,1.5,0,0,0-.89-.69,1.5,1.5,0,0,0-1.85,1Z" fill="#636363"/><path d="M314,1158.94l.06.31-.06-.4a2.75,2.75,0,0,1,0,.81l.06-.4a3.33,3.33,0,0,1-.23.82l.16-.36a3.06,3.06,0,0,1-.41.7l.24-.3a2.35,2.35,0,0,1-.3.33,1.51,1.51,0,0,0,1.06,2.57,1.61,1.61,0,0,0,1.06-.44,4.73,4.73,0,0,0,1.25-4.44,1.54,1.54,0,0,0-.69-.89,1.57,1.57,0,0,0-1.16-.16,1.53,1.53,0,0,0-1,1.85Z" fill="#636363"/><path d="M315.36,1168.21l-4.15,5.23a1.61,1.61,0,0,0-.44,1.06,1.5,1.5,0,0,0,2.56,1.06l4.15-5.22a1.63,1.63,0,0,0,.44-1.07,1.5,1.5,0,0,0-2.56-1.06Z" fill="#636363"/><path d="M315.33,1183.4l-2.5,5.1a1.61,1.61,0,0,0-.15,1.16,1.57,1.57,0,0,0,.69.89,1.5,1.5,0,0,0,2.05-.54l2.5-5.1a1.59,1.59,0,0,0,.15-1.15,1.5,1.5,0,0,0-2.74-.36Z" fill="#636363"/><path d="M315.83,1194.14l-2.39,2.94a1.11,1.11,0,0,0-.31.49,1.14,1.14,0,0,0-.13.57,1.54,1.54,0,0,0,.44,1.07,1.51,1.51,0,0,0,1.06.43,1.43,1.43,0,0,0,1.06-.43l2.39-3a1.08,1.08,0,0,0,.31-.48,1.06,1.06,0,0,0,.13-.58,1.5,1.5,0,0,0-2.56-1.06Z" fill="#636363"/><path d="M316.51,1202.81l-2.9,2a1.62,1.62,0,0,0-.69.89,1.51,1.51,0,0,0,2.21,1.7l2.9-2a1.62,1.62,0,0,0,.69-.89,1.51,1.51,0,0,0-2.21-1.7Z" fill="#636363"/><path d="M315.06,1212.58a3.84,3.84,0,0,1,.19.76l-.05-.4a3.94,3.94,0,0,1,0,1l.06-.39a4.08,4.08,0,0,1-.25.89l.16-.36c0,.09-.08.18-.13.27a1.61,1.61,0,0,0-.15,1.16,1.57,1.57,0,0,0,.69.89,1.47,1.47,0,0,0,1.16.15,1.44,1.44,0,0,0,.89-.69,5.2,5.2,0,0,0,.34-4,1.67,1.67,0,0,0-.69-.9,1.52,1.52,0,0,0-1.16-.15,1.55,1.55,0,0,0-.9.69,1.52,1.52,0,0,0-.15,1.16Z" fill="#636363"/><path d="M318.09,1224.38l-2.45.67a1.5,1.5,0,0,0-.89.69,1.49,1.49,0,0,0,.53,2,1.56,1.56,0,0,0,1.16.15l2.45-.66a1.59,1.59,0,0,0,.9-.69,1.61,1.61,0,0,0,.15-1.16,1.5,1.5,0,0,0-.69-.89,1.62,1.62,0,0,0-1.16-.16Z" fill="#636363"/><path d="M317.49,1233.76l-1.92,2.18a1.61,1.61,0,0,0-.44,1.06,1.54,1.54,0,0,0,.44,1.06,1.47,1.47,0,0,0,1.06.44,1.44,1.44,0,0,0,1.06-.44l1.92-2.18a1.61,1.61,0,0,0,.44-1.06,1.54,1.54,0,0,0-.44-1.06,1.52,1.52,0,0,0-1.06-.44,1.48,1.48,0,0,0-1.06.44Z" fill="#636363"/><path d="M317.42,1242.75c0-.13.05-.31,0-.07l0,.19-.09.42a8.46,8.46,0,0,1-.24.82c0,.13-.09.26-.14.4s-.11.25,0,0,0,0,0,.08c-.12.26-.25.51-.39.76s-.28.46-.44.68l-.14.19a1,1,0,1,0,.07-.08c-.1.1-.19.22-.28.33s-.38.42-.59.61l-.32.29-.14.12c-.26.22.27-.2,0,0a1.67,1.67,0,0,0-.69.9,1.54,1.54,0,0,0,.15,1.15,1.52,1.52,0,0,0,2.06.54,10.43,10.43,0,0,0,4.26-7.37,1.47,1.47,0,0,0-.44-1.06,1.5,1.5,0,0,0-1.06-.44,1.54,1.54,0,0,0-1.06.44,1.77,1.77,0,0,0-.44,1.06Z" fill="#636363"/><path d="M317.83,1253.54a2.63,2.63,0,0,1,.06.39l-.05-.4a7.11,7.11,0,0,1,0,1.9l.06-.4a7.76,7.76,0,0,1-.5,1.83l.15-.36c-.07.14-.13.29-.2.43a1.5,1.5,0,1,0,2.59,1.51,9,9,0,0,0,.79-5.7,1.47,1.47,0,0,0-.69-.89,1.49,1.49,0,0,0-1.15-.15,1.51,1.51,0,0,0-.9.69,1.69,1.69,0,0,0-.15,1.15Z" fill="#636363"/><path d="M321.65,1261.9l-2.33,3.82a1.52,1.52,0,0,0,.53,2,1.53,1.53,0,0,0,2.06-.54l2.33-3.82a1.5,1.5,0,1,0-2.59-1.51Z" fill="#636363"/><path d="M323.22,1268.64l-1.47,3.07a1.67,1.67,0,0,0-.15,1.16,1.5,1.5,0,0,0,1.85,1.05,1.47,1.47,0,0,0,.89-.69l1.47-3.08A1.65,1.65,0,0,0,326,1269a1.56,1.56,0,0,0-.69-.9,1.52,1.52,0,0,0-1.16-.15,1.44,1.44,0,0,0-.89.69Z" fill="#636363"/><path d="M396,1115.34l.45,3.11a1.5,1.5,0,0,0,1.85,1,1.5,1.5,0,0,0,.89-.69l.16-.36a1.51,1.51,0,0,0,0-.79l-.45-3.12a1.52,1.52,0,0,0-.69-.9,1.62,1.62,0,0,0-1.16-.15,1.55,1.55,0,0,0-.9.69l-.15.36a1.55,1.55,0,0,0,0,.8Z" fill="#636363"/><path d="M394.14,1129.2l.95,6.55a1.47,1.47,0,0,0,.69.89,1.49,1.49,0,0,0,2.05-.53A1.79,1.79,0,0,0,398,1135l-.94-6.55a1.5,1.5,0,0,0-.69-.89,1.52,1.52,0,0,0-1.16-.15,1.47,1.47,0,0,0-.89.69,1.7,1.7,0,0,0-.16,1.15Z" fill="#636363"/><path d="M391.58,1140.07l1.35,9.36a1.5,1.5,0,0,0,1.84,1,1.54,1.54,0,0,0,1.05-1.84l-1.35-9.35a1.5,1.5,0,0,0-1.85-1,1.54,1.54,0,0,0-1,1.84Z" fill="#636363"/><path d="M388.5,1161.68a14.19,14.19,0,0,0,2.48,8.08,1.53,1.53,0,0,0,2.06.53,1.51,1.51,0,0,0,.54-2,12.5,12.5,0,0,1-1-1.61l-.21-.46c-.07-.16-.07-.15,0,0l-.09-.23a8.15,8.15,0,0,1-.29-.83,14.3,14.3,0,0,1-.43-1.83c-.06-.36,0,.23,0-.1,0-.17,0-.34,0-.5,0-.34,0-.67,0-1a1.52,1.52,0,0,0-1.5-1.5,1.54,1.54,0,0,0-1.5,1.5Z" fill="#636363"/><path d="M390.06,1157.5l1.66,3.86a1.47,1.47,0,0,0,.89.69,1.5,1.5,0,0,0,1.85-1l.05-.4a1.5,1.5,0,0,0-.2-.75l-1.66-3.86a1.47,1.47,0,0,0-.89-.69,1.5,1.5,0,0,0-1.85,1l-.05.39a1.54,1.54,0,0,0,.2.76Z" fill="#636363"/><path d="M387.78,1178l.82,5.61a1.47,1.47,0,0,0,.68.9,1.62,1.62,0,0,0,1.16.15,1.59,1.59,0,0,0,.9-.69,1.78,1.78,0,0,0,.15-1.16l-.81-5.61a1.55,1.55,0,0,0-.69-.9,1.61,1.61,0,0,0-1.16-.15,1.54,1.54,0,0,0-.89.69,1.73,1.73,0,0,0-.16,1.16Z" fill="#636363"/><path d="M385.59,1189.49a11,11,0,0,0,2.94,5.08,1.5,1.5,0,0,0,2.12-2.12,10.15,10.15,0,0,1-.87-1l.23.31a9.94,9.94,0,0,1-1.24-2.14l.15.36a10,10,0,0,1-.43-1.31,1.52,1.52,0,0,0-1.85-1,1.54,1.54,0,0,0-1.05,1.85Z" fill="#636363"/><path d="M384.84,1197.46a9,9,0,0,0,2.77,5.79,1.5,1.5,0,0,0,2.12-2.12,6.92,6.92,0,0,1-.82-.89l.23.3a7.88,7.88,0,0,1-.95-1.64l.15.36a7.75,7.75,0,0,1-.52-1.9l.05.4,0-.3a1.61,1.61,0,0,0-.44-1.06,1.5,1.5,0,0,0-2.56,1.06Z" fill="#636363"/><path d="M385.52,1210.82l.94,6.54a1.5,1.5,0,0,0,1.85,1.05,1.55,1.55,0,0,0,.9-.69,1.78,1.78,0,0,0,.15-1.16l-.95-6.54a1.5,1.5,0,0,0-2.74-.36,1.78,1.78,0,0,0-.15,1.16Z" fill="#636363"/><path d="M384.5,1223.3a16.56,16.56,0,0,0,6,5.52,1.5,1.5,0,1,0,1.52-2.59,15.45,15.45,0,0,1-1.56-1l-.36-.26c-.18-.14,0,0,.06,0l-.18-.13c-.24-.2-.48-.4-.71-.61A16.68,16.68,0,0,1,388,1223c-.09-.11-.19-.22-.28-.34l-.17-.21c.08.1.18.24.05.06s-.37-.51-.54-.77a1.5,1.5,0,1,0-2.59,1.52Z" fill="#636363"/><path d="M384.66,1229.93l1.42,1.07a1.16,1.16,0,0,0,.56.18,1.22,1.22,0,0,0,.6,0,1.14,1.14,0,0,0,.51-.27,1.31,1.31,0,0,0,.39-.42l.15-.36a1.55,1.55,0,0,0,0-.8l-.15-.35a1.55,1.55,0,0,0-.54-.54l-1.43-1.07a1.12,1.12,0,0,0-.56-.18,1.18,1.18,0,0,0-.59,0,1.14,1.14,0,0,0-.51.27,1,1,0,0,0-.39.42l-.15.36a1.51,1.51,0,0,0,0,.79l.15.36a1.4,1.4,0,0,0,.54.54Z" fill="#636363"/><path d="M385.87,1238.26a7.4,7.4,0,0,0,3.65-.13,1.51,1.51,0,0,0,.36-2.75,1.56,1.56,0,0,0-1.16-.15,7.21,7.21,0,0,1-.92.21l.4-.06a6,6,0,0,1-1.52,0l.4,0-.41-.07a1.61,1.61,0,0,0-1.16.15,1.52,1.52,0,0,0-.69.9,1.49,1.49,0,0,0,.15,1.15,1.51,1.51,0,0,0,.9.69Z" fill="#636363"/><path d="M385.15,1246.78l3.43,1.73a1.59,1.59,0,0,0,1.15.15,1.5,1.5,0,0,0,1-1.84,1.52,1.52,0,0,0-.69-.9l-3.43-1.73a1.48,1.48,0,0,0-2.05.53,1.51,1.51,0,0,0,.54,2.06Z" fill="#636363"/><path d="M387,1252.12l1.6.1a1.06,1.06,0,0,0,.58-.13,1.36,1.36,0,0,0,.79-.79,1.06,1.06,0,0,0,.13-.58l-.05-.4a1.49,1.49,0,0,0-.39-.66l-.3-.23a1.45,1.45,0,0,0-.76-.21l-1.6-.1a1.15,1.15,0,0,0-.58.13,1.36,1.36,0,0,0-.79.79,1.15,1.15,0,0,0-.13.58l.05.4a1.59,1.59,0,0,0,.39.66l.3.24a1.57,1.57,0,0,0,.76.2Z" fill="#636363"/><path d="M385.85,1261.86a17.65,17.65,0,0,0,2.56,6.06,1.5,1.5,0,1,0,2.59-1.52c-.28-.41-.54-.84-.78-1.28-.13-.24-.25-.48-.37-.72l-.17-.36-.08-.19c.1.23-.06-.16-.08-.2s-.1-.25-.14-.37-.17-.47-.24-.71c-.16-.5-.29-1-.4-1.51a1.51,1.51,0,0,0-1.85-1,1.55,1.55,0,0,0-1,1.85Z" fill="#636363"/><path d="M398.75,1271.22a19.39,19.39,0,0,1-2.06,3.3l.24-.3c-.35.44-.72.88-1.11,1.29a1.5,1.5,0,0,0,2.12,2.13,20.72,20.72,0,0,0,3.4-4.91,1.59,1.59,0,0,0,.15-1.15,1.56,1.56,0,0,0-.69-.9,1.51,1.51,0,0,0-2.05.54Z" fill="#636363"/><path d="M401.74,1259.77l-2.45.69a1.48,1.48,0,0,0-1.05,1.84,1.59,1.59,0,0,0,.69.9,1.61,1.61,0,0,0,1.16.15l2.44-.69a1.52,1.52,0,0,0,.9-.69,1.5,1.5,0,0,0-.54-2,1.54,1.54,0,0,0-1.15-.15Z" fill="#636363"/><path d="M401.85,1251.45l-3.43.49a1.52,1.52,0,0,0-.9.69,1.57,1.57,0,0,0-.15,1.16,1.55,1.55,0,0,0,.69.9l.36.15a1.55,1.55,0,0,0,.8,0l3.43-.5a1.5,1.5,0,0,0,1-1.84,1.46,1.46,0,0,0-.69-.9l-.35-.15a1.55,1.55,0,0,0-.8,0Z" fill="#636363"/><path d="M403.41,1243.12l-3.48-2a1.51,1.51,0,0,0-1.16-.15,1.49,1.49,0,0,0-.89.69,1.52,1.52,0,0,0,.54,2.05l3.47,2a1.5,1.5,0,1,0,1.52-2.59Z" fill="#636363"/><path d="M404,1236.33a14.93,14.93,0,0,0-3.45-2.35,1.61,1.61,0,0,0-1.16-.15,1.49,1.49,0,0,0-.9.69,1.54,1.54,0,0,0-.15,1.15,1.49,1.49,0,0,0,.69.9,13.86,13.86,0,0,1,2.38,1.47l-.3-.24c.26.21.52.42.77.65a1.61,1.61,0,0,0,1.06.44,1.54,1.54,0,0,0,1.06-.44,1.52,1.52,0,0,0,.44-1.06,1.48,1.48,0,0,0-.44-1.06Z" fill="#636363"/><path d="M403.28,1229.28l-2.35-1a1.11,1.11,0,0,0-.6,0,1.09,1.09,0,0,0-.55.18,1.47,1.47,0,0,0-.69.89,1.51,1.51,0,0,0,.15,1.16l.23.3a1.49,1.49,0,0,0,.66.39l2.36,1a1,1,0,0,0,.59,0,1.12,1.12,0,0,0,.56-.18,1.53,1.53,0,0,0,.69-.89,1.51,1.51,0,0,0-.15-1.16l-.23-.3a1.47,1.47,0,0,0-.67-.39Z" fill="#636363"/><path d="M400.86,1214.86l-4.75,2.3a1.51,1.51,0,0,0-.54,2.06,1.54,1.54,0,0,0,2.05.53l4.75-2.3a1.47,1.47,0,0,0,.69-.89,1.52,1.52,0,0,0-.15-1.16,1.55,1.55,0,0,0-2.05-.54Z" fill="#636363"/><path d="M401.37,1205.42l-2.85.09a1.61,1.61,0,0,0-1.06.44A1.52,1.52,0,0,0,397,1207a1.54,1.54,0,0,0,.44,1.06,1.47,1.47,0,0,0,1.06.44l2.85-.09a1.56,1.56,0,0,0,1.06-.44,1.52,1.52,0,0,0,.44-1.06,1.5,1.5,0,0,0-.44-1.06,1.52,1.52,0,0,0-1.06-.44Z" fill="#636363"/><path d="M399.76,1197a49,49,0,0,0-3.84-6.76,1.54,1.54,0,0,0-2.06-.54,1.51,1.51,0,0,0-.53,2,48.53,48.53,0,0,1,3.84,6.77,1.51,1.51,0,0,0,2.05.54,1.56,1.56,0,0,0,.54-2.06Z" fill="#636363"/><path d="M400.3,1184.72l-1.56-2a1,1,0,0,0-.48-.31,1.06,1.06,0,0,0-.58-.13,1,1,0,0,0-.57.13,1.11,1.11,0,0,0-.49.31,1.54,1.54,0,0,0-.44,1.06l.06.4a1.57,1.57,0,0,0,.38.66l1.56,2a1.24,1.24,0,0,0,.48.31,1.36,1.36,0,0,0,1.16,0,1.17,1.17,0,0,0,.48-.31,1.53,1.53,0,0,0,.44-1.06l-.05-.4a1.47,1.47,0,0,0-.39-.67Z" fill="#636363"/><path d="M397.91,1174.34l-2.32,1.36a1.52,1.52,0,0,0-.69.9,1,1,0,0,0,0,.6,1.09,1.09,0,0,0,.18.55,1.47,1.47,0,0,0,.89.69,1.56,1.56,0,0,0,1.16-.15l2.32-1.36a1.53,1.53,0,0,0,.69-.89,1.22,1.22,0,0,0,0-.6,1.12,1.12,0,0,0-.18-.56,1.5,1.5,0,0,0-2-.54Z" fill="#636363"/><path d="M399.26,1164.14a2.9,2.9,0,0,1,0,.51l.05-.4a2.64,2.64,0,0,1-.15.55l.15-.36a2.39,2.39,0,0,1-.32.56l.23-.31a2.59,2.59,0,0,1-.4.41l.3-.24a2.22,2.22,0,0,1-.49.3l.36-.16a1.14,1.14,0,0,1-.26.09,1.5,1.5,0,0,0-1,1.85,1.47,1.47,0,0,0,.69.89,1.49,1.49,0,0,0,1.15.15,3.7,3.7,0,0,0,.72-.28,2.5,2.5,0,0,0,.35-.21,5.57,5.57,0,0,0,.59-.5,4.51,4.51,0,0,0,.47-.59,3.39,3.39,0,0,0,.48-1.06,3.24,3.24,0,0,0,.13-1.2,1.14,1.14,0,0,0-.13-.57,1.21,1.21,0,0,0-.31-.49,1.56,1.56,0,0,0-1.06-.44,1.54,1.54,0,0,0-1.06.44,1.44,1.44,0,0,0-.44,1.06Z" fill="#636363"/><path d="M401.43,1151.24l-1.15.81a1.31,1.31,0,0,0-.42.39,1.14,1.14,0,0,0-.27.51,1.11,1.11,0,0,0,0,.6,1.09,1.09,0,0,0,.18.55l.23.31a1.57,1.57,0,0,0,.66.38l.4.06a1.48,1.48,0,0,0,.76-.21l1.15-.81a1.12,1.12,0,0,0,.42-.39,1.14,1.14,0,0,0,.27-.51,1.08,1.08,0,0,0,0-.59,1,1,0,0,0-.17-.56l-.24-.31a1.51,1.51,0,0,0-.66-.38l-.4-.06a1.58,1.58,0,0,0-.76.21Z" fill="#636363"/><path d="M401.21,1139.4c-.27.38-.54.76-.83,1.12l.24-.3c-.41.53-.84,1-1.28,1.53a1.56,1.56,0,0,0-.44,1.06,1.5,1.5,0,0,0,2.56,1.06,29.26,29.26,0,0,0,2.34-3,1.49,1.49,0,0,0,.15-1.15,1.5,1.5,0,0,0-1.85-1l-.35.15a1.4,1.4,0,0,0-.54.54Z" fill="#636363"/><path d="M403.8,1125.44H399a1.5,1.5,0,1,0,0,3h4.76a1.5,1.5,0,0,0,0-3Z" fill="#636363"/><path d="M405.54,1109.84H403.8a1,1,0,0,0-.57.13,1.11,1.11,0,0,0-.49.31,1.17,1.17,0,0,0-.31.48,1.27,1.27,0,0,0-.13.58,1.54,1.54,0,0,0,.44,1.06,1.58,1.58,0,0,0,1.06.44h1.74a1.17,1.17,0,0,0,.58-.13,1.14,1.14,0,0,0,.48-.31,1.24,1.24,0,0,0,.31-.48,1.27,1.27,0,0,0,.13-.58,1.54,1.54,0,0,0-.44-1.06,1.58,1.58,0,0,0-1.06-.44Z" fill="#636363"/><path d="M401.8,1092.63c.18.34.34.68.49,1l-.15-.36a12.8,12.8,0,0,1,.86,3.15l-.06-.4c0,.11,0,.22,0,.33a1.66,1.66,0,0,0,.44,1.06,1.56,1.56,0,0,0,1.06.44,1.54,1.54,0,0,0,1.06-.44,1.41,1.41,0,0,0,.44-1.06,14.33,14.33,0,0,0-1.59-5.27,1.5,1.5,0,1,0-2.59,1.51Z" fill="#636363"/><path d="M400.62,1101.56a4.84,4.84,0,0,0,.17.54,6.74,6.74,0,0,0,.38.87,4,4,0,0,0,.32.48,6.94,6.94,0,0,0,.6.72,1.54,1.54,0,0,0,1.06.44,1.06,1.06,0,0,0,.58-.13,1.14,1.14,0,0,0,.48-.31,1.5,1.5,0,0,0,.44-1.06,1.54,1.54,0,0,0-.44-1.06,3.52,3.52,0,0,1-.36-.41l.24.31a3.88,3.88,0,0,1-.51-.88l.15.36a4,4,0,0,1-.21-.67,1.14,1.14,0,0,0-.27-.51,1.21,1.21,0,0,0-.42-.39,1.12,1.12,0,0,0-.56-.18,1.22,1.22,0,0,0-.6,0,1.5,1.5,0,0,0-.89.69l-.16.36a1.55,1.55,0,0,0,0,.8Z" fill="#636363"/></svg>