<svg xmlns="http://www.w3.org/2000/svg" width="1250" height="1550" viewBox="0 0 1250 1550"><title>s05e08-01</title><path d="M803.82,603.23C792.94,596.13,654.29,530,654.29,530s-9,42.68-63.91,47.58c-64.83,5.79-86.64-36-90.75-48.14l-87.92,73.81" fill="#fff" stroke="#262521" stroke-linecap="round" stroke-linejoin="round" stroke-width="3"/><path d="M879.72,1045c-3.84-55.87-22.89-124.63-22.89-124.63s-14.58-307-52.88-331.94c-10.88-7.11-142.29-56.21-142.29-56.21s-2.49,55-82.85,55c-65.08,0-82.09-39.23-86.21-51.38a11.73,11.73,0,0,1-.75-2.59c-1,.64-100.94,62.69-145.44,89.5C301.68,649.69,319.74,947,319.74,947a619.73,619.73,0,0,0-3.6,128.12c5.52,68.42-1.88,179.2,14.45,197.93l61-1.5s-5.61-14.34-4.66-27c2.28-30.22,5.54-104.26,15.36-135.21S423.7,1021,423.7,1021c.49,23.68.3,42.22-1,50.32-3.6,21.92-31.66,102.79-17.78,133.07-3.34,29.29-5.7,66.94-5.7,66.94s101,22.75,178,21.82c137.52-1.66,234.85-32.7,234.85-32.7s-2.28-35.71-5.33-60.53c9.94-22.61-4.2-83.51-17.91-143,17.07,47.16,40.24,126.63,42.46,162.32,1.63,26.39,2.88,34.36,2.88,34.36h58.1s4.49-6.66,5.3-18.88S885.29,1126.26,879.72,1045Z" fill="#262521" stroke="#262521" stroke-linecap="round" stroke-linejoin="round" stroke-width="3"/><path d="M399.19,1271.35s101,22.75,178,21.82c137.52-1.66,234.85-32.7,234.85-32.7" fill="none" stroke="#636363" stroke-linecap="round" stroke-linejoin="round"/><path d="M838.52,1221s30.63-3.83,52.37,0" fill="none" stroke="#636363" stroke-linecap="round" stroke-linejoin="round"/><path d="M327.75,1238.47s30.64-3.84,52.37,0" fill="none" stroke="#636363" stroke-linecap="round" stroke-linejoin="round"/><path d="M413.67,1221s165.59,49.16,378.14-4.33" fill="none" stroke="#636363" stroke-linecap="round" stroke-linejoin="round"/><path d="M422.41,731.06l5.92-.18,15.23,20.7h.09L443,730.45l5.33-.16.85,28.68-5.92.17L428.1,738.49H428l.63,21.09-5.34.16Z" fill="#fff"/><path d="M468.6,729a16.28,16.28,0,0,1,6.46,1,14.45,14.45,0,0,1,4.92,3.11,14.16,14.16,0,0,1,3.16,4.69,15.87,15.87,0,0,1,1.23,5.75,16,16,0,0,1-.88,5.86,14,14,0,0,1-7.61,8.25,18.11,18.11,0,0,1-12.86.38,13.92,13.92,0,0,1-8.08-7.78,16.44,16.44,0,0,1-.34-11.61,13.92,13.92,0,0,1,2.88-4.87,14.3,14.3,0,0,1,4.72-3.4A16.48,16.48,0,0,1,468.6,729Zm.12,4.1a9.71,9.71,0,0,0-4.39,1.06,8.26,8.26,0,0,0-2.95,2.56,10.41,10.41,0,0,0-1.62,3.56,14.71,14.71,0,0,0,.24,8,10.7,10.7,0,0,0,1.82,3.46,8.39,8.39,0,0,0,3.1,2.38,11.06,11.06,0,0,0,8.83-.26,8.36,8.36,0,0,0,2.95-2.56,10.37,10.37,0,0,0,1.62-3.57,14.38,14.38,0,0,0,.45-4,14.65,14.65,0,0,0-.68-4,10.81,10.81,0,0,0-1.83-3.46,8.39,8.39,0,0,0-3.1-2.38A9.82,9.82,0,0,0,468.72,733.1Z" fill="#fff"/><path d="M488.83,729.09l5.91-.18L510,749.61h.09l-.63-21.13,5.34-.16.85,28.68-5.92.18-15.19-20.66h-.13l.62,21.09-5.33.16Z" fill="#fff"/><path d="M543.28,736.6a9.94,9.94,0,0,0-1-2.26,6.65,6.65,0,0,0-1.67-1.76,7.58,7.58,0,0,0-2.34-1.12,10.47,10.47,0,0,0-3.09-.33,9.83,9.83,0,0,0-4.38,1.06,8.29,8.29,0,0,0-3,2.56,10.8,10.8,0,0,0-1.62,3.56,14.86,14.86,0,0,0-.44,4,14.71,14.71,0,0,0,.68,4,10.53,10.53,0,0,0,1.83,3.46,8.39,8.39,0,0,0,3.1,2.38,9.82,9.82,0,0,0,4.44.8,8.92,8.92,0,0,0,3.3-.68,7.32,7.32,0,0,0,4-4.12,10.23,10.23,0,0,0,.67-3l5.47-.16a12.48,12.48,0,0,1-1.09,4.74,11.57,11.57,0,0,1-2.74,3.76,12.86,12.86,0,0,1-4.14,2.51,16,16,0,0,1-5.31,1,16.65,16.65,0,0,1-6.46-1,13.84,13.84,0,0,1-8.08-7.78A16.52,16.52,0,0,1,521,736.7a14.07,14.07,0,0,1,7.61-8.27A16.29,16.29,0,0,1,535,727a18.38,18.38,0,0,1,5.09.51,13.74,13.74,0,0,1,4.24,1.8,10.41,10.41,0,0,1,3,3,9.86,9.86,0,0,1,1.51,4.1Z" fill="#fff"/><path d="M553.63,727.17l5.6-.17.34,11.41,14.57-.43-.34-11.41,5.6-.17.85,28.69-5.6.16-.39-12.93-14.56.43.38,12.93-5.6.17Z" fill="#fff"/><path d="M594.68,726l6-.18,13.18,28.32-6,.18-3.23-7.5-12.77.37L589,754.83l-5.78.17Zm-1.46,17.33L603,743l-5.16-12.19h-.13Z" fill="#fff"/><path d="M616,725.32l5.6-.17.73,24.35L638.6,749l.13,4.34-21.87.65Z" fill="#fff"/><path d="M651.75,724.26l6-.18,13.18,28.32-6,.18-3.23-7.51-12.77.38-2.78,7.68-5.78.18Zm-1.46,17.33,9.77-.29-5.16-12.19h-.13Z" fill="#fff"/><path d="M672.86,723.63l5.92-.17L694,744.16h.09L693.48,723l5.33-.15.85,28.68-5.92.17-15.19-20.66h-.13l.62,21.09-5.33.16Z" fill="#fff"/><path d="M726.58,731.17a9.35,9.35,0,0,0-1.05-2.26,6.35,6.35,0,0,0-1.67-1.76,7.47,7.47,0,0,0-2.34-1.12,10.44,10.44,0,0,0-3.08-.33,9.74,9.74,0,0,0-4.39,1.06,8.35,8.35,0,0,0-2.95,2.56,10.41,10.41,0,0,0-1.62,3.56,14.71,14.71,0,0,0,.24,8,10.53,10.53,0,0,0,1.83,3.46,8.35,8.35,0,0,0,3.09,2.38,9.84,9.84,0,0,0,4.45.79,8.62,8.62,0,0,0,3.3-.68,7.16,7.16,0,0,0,2.41-1.68,7.28,7.28,0,0,0,1.54-2.44,10.17,10.17,0,0,0,.68-3l5.47-.16a12.43,12.43,0,0,1-1.1,4.73,11.58,11.58,0,0,1-2.73,3.76,12.92,12.92,0,0,1-4.14,2.52,16.22,16.22,0,0,1-5.31,1,16.71,16.71,0,0,1-6.47-1,13.9,13.9,0,0,1-8.08-7.79,16.15,16.15,0,0,1-1.23-5.79,15.9,15.9,0,0,1,.89-5.81,14,14,0,0,1,2.88-4.87,14.3,14.3,0,0,1,4.72-3.4,16.35,16.35,0,0,1,6.4-1.4,18.69,18.69,0,0,1,5.08.52,13.56,13.56,0,0,1,4.25,1.8,10.37,10.37,0,0,1,3,3,9.87,9.87,0,0,1,1.52,4.09Z" fill="#fff"/><path d="M736.34,721.75l23-.68.13,4.34-17.44.52.22,7.51,16.14-.48.12,4.1-16.13.47.24,8.4,17.75-.53.13,4.34-23.35.69Z" fill="#fff"/></svg>