<svg xmlns="http://www.w3.org/2000/svg" width="1250" height="1550" viewBox="0 0 1250 1550"><title>s05e11-02</title><path d="M403.44,1252.94s58.13,16.91,200,12.4S801,1248.11,801,1248.11l22.8,267.08c-209.14,38.46-397.55,3.91-397.55,3.91Z" fill="#262521" stroke="#262521" stroke-linecap="round" stroke-linejoin="round" stroke-width="3"/><path d="M877.22,1043c-3.84-55.87-22.89-124.63-22.89-124.63s-14.58-307-52.88-331.94c-10.88-7.11-145.4-57.49-145.4-57.49s-2.85,48.17-78.36,50.46c-65.06,2-81.84-51.2-81.82-51.28-1.05.65-107.46,65.81-152,92.62C299.18,647.69,317.24,945,317.24,945a619.73,619.73,0,0,0-3.6,128.12c5.52,68.42-1.88,179.2,14.45,197.93l61-1.5s-5.61-14.34-4.66-27c2.28-30.22,5.54-104.26,15.36-135.21S421.2,1019,421.2,1019c.49,23.68.3,42.22-1,50.32-3.6,21.92-31,90.79-17.16,121.08-3.34,29.28-6,66.77-6,66.77s126.39,23.45,203.34,20.62c141.2-5.19,209.52-31.5,209.52-31.5s-4.89-41.92-7.94-66.74c9.94-22.61-1.94-65.14-15.65-124.58,17.07,47.16,40.24,126.63,42.46,162.32,1.63,26.39,2.88,34.36,2.88,34.36h58.1s4.49-6.66,5.3-18.88S882.79,1124.26,877.22,1043Z" fill="#262521" stroke="#262521" stroke-linecap="round" stroke-linejoin="round" stroke-width="3"/><polygon points="580.61 687.34 574.95 681.99 580.16 676.17 585.82 681.51 580.61 687.34" fill="#fff" stroke="#fff" stroke-linecap="round" stroke-linejoin="round" stroke-width="1.29"/><polygon points="619.68 659.27 596.11 673.71 623.75 672.51 619.68 659.27" fill="#fff" stroke="#fff" stroke-linecap="round" stroke-linejoin="round" stroke-width="1.29"/><polygon points="587.02 658.64 600.16 668.75 593 673.85 581.58 665.78 587.02 658.64" fill="#fff" stroke="#fff" stroke-linecap="round" stroke-linejoin="round" stroke-width="1.29"/><polygon points="579.67 664.25 583.27 659.75 575.62 660.09 579.58 664.26 579.58 664.37 579.63 664.31 579.68 664.36 579.67 664.25" fill="#fff" stroke="#fff" stroke-linecap="round" stroke-linejoin="round" stroke-width="1.29"/><polygon points="595.91 651.83 606.66 645.79 615.03 659.47 606.95 664.61 595.91 651.83" fill="#fff" stroke="#fff" stroke-linecap="round" stroke-linejoin="round" stroke-width="1.29"/><polygon points="584.08 695.73 591.26 676.75 597.26 685 584.08 695.73" fill="#fff" stroke="#fff" stroke-linecap="round" stroke-linejoin="round" stroke-width="1.29"/><polygon points="628.07 670.23 654.71 654.83 655.23 667.74 628.07 670.23" fill="#fff" stroke="#fff" stroke-linecap="round" stroke-linejoin="round" stroke-width="1.29"/><polygon points="617.88 643.17 629.45 637.59 635.25 654.7 626.13 657.88 617.88 643.17" fill="#fff" stroke="#fff" stroke-linecap="round" stroke-linejoin="round" stroke-width="1.29"/><polygon points="642.08 630.66 652.22 629.07 653.16 652.11 645.7 652.85 642.08 630.66" fill="#fff" stroke="#fff" stroke-linecap="round" stroke-linejoin="round" stroke-width="1.29"/><polygon points="661.39 654.54 693.63 659.19 690.66 672.41 661.39 654.54" fill="#fff" stroke="#fff" stroke-linecap="round" stroke-linejoin="round" stroke-width="1.29"/><polygon points="665.91 628.47 665.46 652.64 674.44 653.97 677.25 628.96 665.91 628.47" fill="#fff" stroke="#fff" stroke-linecap="round" stroke-linejoin="round" stroke-width="1.29"/><polygon points="695.23 632.1 686.13 655.26 693.5 656.04 705.09 635.44 695.23 632.1" fill="#fff" stroke="#fff" stroke-linecap="round" stroke-linejoin="round" stroke-width="1.29"/><polygon points="715.45 639.24 703.25 660.57 709.9 663.39 725.19 643.49 715.45 639.24" fill="#fff" stroke="#fff" stroke-linecap="round" stroke-linejoin="round" stroke-width="1.29"/><polygon points="698.53 673.87 730.83 676.23 724.72 686.64 698.53 673.87" fill="#fff" stroke="#fff" stroke-linecap="round" stroke-linejoin="round" stroke-width="1.29"/><polygon points="741.88 681.8 762.33 707.42 756.13 714.08 741.88 681.8" fill="#fff" stroke="#fff" stroke-linecap="round" stroke-linejoin="round" stroke-width="1.14"/><polygon points="720.18 666.21 735.78 649.57 743.61 653.86 727.59 669.92 720.18 666.21" fill="#fff" stroke="#fff" stroke-linecap="round" stroke-linejoin="round" stroke-width="1.29"/><polygon points="735.98 673.58 753.88 658.67 761.58 665.18 741.75 677.97 735.98 673.58" fill="#fff" stroke="#fff" stroke-linecap="round" stroke-linejoin="round" stroke-width="1.29"/><polygon points="750.1 685.53 768.6 673.37 772.75 680.76 756.71 691.21 750.1 685.53" fill="#fff" stroke="#fff" stroke-linecap="round" stroke-linejoin="round" stroke-width="1.29"/><polygon points="759.5 699.14 775.98 686.93 780.27 694.6 763.87 704.99 759.5 699.14" fill="#fff" stroke="#fff" stroke-linecap="round" stroke-linejoin="round" stroke-width="1.14"/><polygon points="769.11 713.51 787.08 703.97 791.57 711.87 773.25 721.1 769.11 713.51" fill="#fff" stroke="#fff" stroke-linecap="round" stroke-linejoin="round" stroke-width="1.14"/><polygon points="768.6 719.49 781.91 750.74 771.34 752.81 768.6 719.49" fill="#fff" stroke="#fff" stroke-linecap="round" stroke-linejoin="round" stroke-width="1.14"/><polygon points="777.18 731 780.23 738.32 800.29 731.39 797 721.87 777.18 731" fill="#fff" stroke="#fff" stroke-linecap="round" stroke-linejoin="round" stroke-width="1.14"/><polygon points="781.61 743.5 784.56 750.62 803.57 751.39 802.59 742.57 781.61 743.5" fill="#fff" stroke="#fff" stroke-linecap="round" stroke-linejoin="round" stroke-width="1.14"/><polygon points="782.88 762.17 780.44 798.34 770.84 791.72 782.88 762.17" fill="#fff" stroke="#fff" stroke-linecap="round" stroke-linejoin="round" stroke-width="1.14"/><polygon points="784.96 760.27 785.25 767.31 804.52 774.52 804.87 764.43 784.96 760.27" fill="#fff" stroke="#fff" stroke-linecap="round" stroke-linejoin="round" stroke-width="1.14"/><polygon points="784.66 775.39 783.93 783.68 802.93 795.54 804.95 784.98 784.66 775.39" fill="#fff" stroke="#fff" stroke-linecap="round" stroke-linejoin="round" stroke-width="1.14"/><polygon points="783.59 791.56 783.1 800.64 798.49 813.87 800.82 803.69 783.59 791.56" fill="#fff" stroke="#fff" stroke-linecap="round" stroke-linejoin="round" stroke-width="1.14"/><polygon points="776.39 812.42 780.29 806.61 792.75 821.37 787.81 829.65 776.39 812.42" fill="#fff" stroke="#fff" stroke-linecap="round" stroke-linejoin="round" stroke-width="1.14"/><polygon points="736.75 754.33 678.92 670.1 672.56 670.38 718.81 737.11 736.75 754.33" fill="#fff" stroke="#fff" stroke-linecap="round" stroke-linejoin="round" stroke-width="1.29"/><polygon points="713.47 734.28 669.69 670.5 663.33 670.78 700.66 726.09 713.47 734.28" fill="#fff" stroke="#fff" stroke-linecap="round" stroke-linejoin="round" stroke-width="1.29"/><path d="M745.36,766.43s25.13,32.11,32.9,44.56L781,824.48l3.68,15.08s-18.87-34.73-29.48-46.64Z" fill="#fff" stroke="#fff" stroke-linecap="round" stroke-linejoin="round" stroke-width="1.14"/><polygon points="618.8 676.04 584.96 748.51 596.96 736.89 624.5 675.3 618.8 676.04" fill="#fff" stroke="#fff" stroke-linecap="round" stroke-linejoin="round" stroke-width="1.29"/><polygon points="627.12 675.19 600.3 735.43 608.17 729.42 632.27 674.08 627.12 675.19" fill="#fff" stroke="#fff" stroke-linecap="round" stroke-linejoin="round" stroke-width="1.29"/><polygon points="584.18 698.31 603.76 702.97 601.9 707.06 582.28 702.19 584.18 698.31" fill="#fff" stroke="#fff" stroke-linecap="round" stroke-linejoin="round" stroke-width="1.29"/><polygon points="581.3 704.35 600.88 709 599.02 713.1 581.46 707.95 581.3 704.35" fill="#fff" stroke="#fff" stroke-linecap="round" stroke-linejoin="round" stroke-width="1.29"/><polygon points="620.32 707.41 653.49 715.44 638.66 716.39 618.42 711.29 620.32 707.41" fill="#fff" stroke="#fff" stroke-linecap="round" stroke-linejoin="round" stroke-width="1.29"/><polygon points="617.53 713.36 634.98 717.59 624.59 719.5 615.63 717.24 617.53 713.36" fill="#fff" stroke="#fff" stroke-linecap="round" stroke-linejoin="round" stroke-width="1.29"/><polygon points="615.05 719.46 611.78 726.86 622.37 721.39 615.05 719.46" fill="#fff" stroke="#fff" stroke-linecap="round" stroke-linejoin="round" stroke-width="1.29"/><polygon points="584.44 781.01 595.61 812.21 586.22 824.75 584.44 781.01" fill="#fff" stroke="#fff" stroke-linecap="round" stroke-linejoin="round" stroke-width="1.29"/><path d="M584.28,777.24l27.3,16.2-7-38.68S595.27,760.58,584.28,777.24Z" fill="#fff" stroke="#fff" stroke-linecap="round" stroke-linejoin="round" stroke-width="1.29"/><path d="M606.4,753l29.14,25.83,14.29-40.42S624.05,738.18,606.4,753Z" fill="#fff" stroke="#fff" stroke-linecap="round" stroke-linejoin="round" stroke-width="1.29"/><polygon points="594.45 742.98 583.3 753.23 591.49 762.64 602.1 752.64 594.45 742.98" fill="#fff" stroke="#fff" stroke-linecap="round" stroke-linejoin="round" stroke-width="1.29"/><polygon points="609.05 731.4 622.49 724.34 628.62 737.98 615.23 743.84 609.05 731.4" fill="#fff" stroke="#fff" stroke-linecap="round" stroke-linejoin="round" stroke-width="1.29"/><polygon points="640.34 719.14 643.92 735.76 657.53 735.16 657.94 717.89 640.34 719.14" fill="#fff" stroke="#fff" stroke-linecap="round" stroke-linejoin="round" stroke-width="1.29"/><path d="M653.27,738.18l12.94,39.26,34.49-25.33S678.59,735.54,653.27,738.18Z" fill="#fff" stroke="#fff" stroke-linecap="round" stroke-linejoin="round" stroke-width="1.29"/><polygon points="676.83 720.39 674.42 737.16 687.32 741.51 694.35 725.68 676.83 720.39" fill="#fff" stroke="#fff" stroke-linecap="round" stroke-linejoin="round" stroke-width="1.29"/><path d="M703.74,753.62,693,796.33,733.2,796S726.15,766.66,703.74,753.62Z" fill="#fff" stroke="#fff" stroke-linecap="round" stroke-linejoin="round" stroke-width="1.29"/><polygon points="711.71 735.53 704.01 750.37 715.2 758 725.33 746.39 711.71 735.53" fill="#fff" stroke="#fff" stroke-linecap="round" stroke-linejoin="round" stroke-width="1.29"/><polygon points="727.36 773.55 734.24 789.09 747.53 781.76 741.51 764.83 727.36 773.55" fill="#fff" stroke="#fff" stroke-linecap="round" stroke-linejoin="round" stroke-width="1.29"/><path d="M734.15,800.38l-32.7,26.53,36,13S738.06,814,734.15,800.38Z" fill="#fff" stroke="#fff" stroke-linecap="round" stroke-linejoin="round" stroke-width="1.29"/><polygon points="754.88 804.31 739.62 809.22 741.16 825.93 756.83 825.25 754.88 804.31" fill="#fff" stroke="#fff" stroke-linecap="round" stroke-linejoin="round" stroke-width="1.29"/><path d="M736.89,845l-34.14,13.75L733,881S737.83,862.85,736.89,845Z" fill="#fff" stroke="#fff" stroke-linecap="round" stroke-linejoin="round" stroke-width="1.29"/><path d="M732.5,884.22l-38.42,5.29L723,915.16S731,897.18,732.5,884.22Z" fill="#fff" stroke="#fff" stroke-linecap="round" stroke-linejoin="round" stroke-width="1.29"/><polygon points="740.76 849.4 739.09 867.41 754.84 868.93 757.84 849.92 740.76 849.4" fill="#fff" stroke="#fff" stroke-linecap="round" stroke-linejoin="round" stroke-width="1.29"/><polygon points="735.7 887.95 730.21 905.57 744.9 910.8 750.61 893.02 735.7 887.95" fill="#fff" stroke="#fff" stroke-linecap="round" stroke-linejoin="round" stroke-width="1.29"/><path d="M721.76,919.27l-37.93.09,25.44,30S718,934.39,721.76,919.27Z" fill="#fff" stroke="#fff" stroke-linecap="round" stroke-linejoin="round" stroke-width="1.29"/><polygon points="723.41 925.63 716.26 942.12 731.08 948.43 738.01 931.43 723.41 925.63" fill="#fff" stroke="#fff" stroke-linecap="round" stroke-linejoin="round" stroke-width="1.29"/><path d="M707.89,953.43l-37.22-4.7,23.7,30.81S702.89,966.27,707.89,953.43Z" fill="#fff" stroke="#fff" stroke-linecap="round" stroke-linejoin="round" stroke-width="1.29"/><polygon points="707.01 963.06 698.98 979.34 712.88 985.96 721.22 969.11 707.01 963.06" fill="#fff" stroke="#fff" stroke-linecap="round" stroke-linejoin="round" stroke-width="1.29"/><path d="M692.73,983l-36.49.22,20.53,28.69A189,189,0,0,0,692.73,983Z" fill="#fff" stroke="#fff" stroke-linecap="round" stroke-linejoin="round" stroke-width="1.29"/><polygon points="690 996.56 681.6 1011.72 694.19 1018.85 702.84 1003.79 690 996.56" fill="#fff" stroke="#fff" stroke-linecap="round" stroke-linejoin="round" stroke-width="1.29"/><path d="M674.54,1016.54l-36.78-6.47,20.89,32.24S667.31,1033.35,674.54,1016.54Z" fill="#fff" stroke="#fff" stroke-linecap="round" stroke-linejoin="round" stroke-width="1.29"/><polygon points="671.37 1030.46 662.72 1044.84 676.05 1053.52 685.11 1038.44 671.37 1030.46" fill="#fff" stroke="#fff" stroke-linecap="round" stroke-linejoin="round" stroke-width="1.29"/><path d="M656.66,1047.37l-34-9.36,18.25,34.89S652.33,1059.75,656.66,1047.37Z" fill="#fff" stroke="#fff" stroke-linecap="round" stroke-linejoin="round" stroke-width="1.29"/><polygon points="652.29 1064.27 641.19 1080.57 658.39 1089.75 665.58 1071.82 652.29 1064.27" fill="#fff" stroke="#fff" stroke-linecap="round" stroke-linejoin="round" stroke-width="1.29"/><polygon points="638.76 1077.74 603.2 1068.67 598.86 1134.36 599.57 1151.72 611.66 1162.27 620.4 1144.94 608.48 1133.49 638.76 1077.74" fill="#fff" stroke="#fff" stroke-linecap="round" stroke-linejoin="round" stroke-width="1.29"/><polygon points="630.63 1099.55 620.39 1118.07 632.86 1127.01 643.99 1108.9 630.63 1099.55" fill="#fff" stroke="#fff" stroke-linecap="round" stroke-linejoin="round" stroke-width="1.29"/><polygon points="758.41 863.91 761.75 913.43 757.08 918.08 754.94 889.82 758.41 863.91" fill="#fff" stroke="#fff" stroke-linecap="round" stroke-linejoin="round" stroke-width="1.29"/><polygon points="752.89 893.7 754.55 920.2 749.88 924.85 748.56 908.72 752.89 893.7" fill="#fff" stroke="#fff" stroke-linecap="round" stroke-linejoin="round" stroke-width="1.29"/><polygon points="776.18 904.07 738.26 938.85 733.84 949.46 776.14 912.1 776.18 904.07" fill="#fff" stroke="#fff" stroke-linecap="round" stroke-linejoin="round" stroke-width="1.29"/><polygon points="776.12 915.66 730.95 955.54 724.62 969.38 776.08 923.44 776.12 915.66" fill="#fff" stroke="#fff" stroke-linecap="round" stroke-linejoin="round" stroke-width="1.29"/><polygon points="762.81 939.35 764.97 992.12 760.65 1000.04 758.34 943.23 762.81 939.35" fill="#fff" stroke="#fff" stroke-linecap="round" stroke-linejoin="round" stroke-width="1.29"/><polygon points="755.95 944.98 758.26 1001.6 753.95 1009.52 751.47 948.85 755.95 944.98" fill="#fff" stroke="#fff" stroke-linecap="round" stroke-linejoin="round" stroke-width="1.29"/><polygon points="778.11 992.72 754.22 1016.23 763.83 1021.14 778.09 997.16 778.11 992.72" fill="#fff" stroke="#fff" stroke-linecap="round" stroke-linejoin="round" stroke-width="1.29"/><polygon points="749.21 1024.71 733.38 1056.39 743.36 1062.55 749.21 1024.71" fill="#fff" stroke="#fff" stroke-linecap="round" stroke-linejoin="round" stroke-width="1.29"/><polygon points="738.81 1071.34 711.12 1094.02 720.72 1101.65 738.81 1071.34" fill="#fff" stroke="#fff" stroke-linecap="round" stroke-linejoin="round" stroke-width="1.29"/><polygon points="697.48 1136.7 706.92 1103.87 688.81 1128.97 697.48 1136.7" fill="#fff" stroke="#fff" stroke-linecap="round" stroke-linejoin="round" stroke-width="1.29"/><polygon points="662.63 1173.33 667.92 1178.6 675.53 1178.27 692.75 1144.06 662.63 1173.33" fill="#fff" stroke="#fff" stroke-linecap="round" stroke-linejoin="round" stroke-width="1.29"/><polygon points="708.86 999.95 703.12 1010.78 699.72 1108.01 706.2 1100.65 708.86 999.95" fill="#fff" stroke="#fff" stroke-linecap="round" stroke-linejoin="round" stroke-width="1.29"/><polygon points="700.13 1014.02 694.39 1024.85 690.28 1120.23 696.73 1112.22 700.13 1014.02" fill="#fff" stroke="#fff" stroke-linecap="round" stroke-linejoin="round" stroke-width="1.29"/><polygon points="669.32 1070.06 690.22 1059.33 689.93 1065.76 665.84 1078.13 669.32 1070.06" fill="#fff" stroke="#fff" stroke-linecap="round" stroke-linejoin="round" stroke-width="1.29"/><polygon points="662.4 1088.57 665.44 1081.32 689.69 1069.17 689.35 1075.3 662.4 1088.57" fill="#fff" stroke="#fff" stroke-linecap="round" stroke-linejoin="round" stroke-width="1.29"/><polygon points="710.19 1048.86 743.44 1030.54 738.92 1038.29 710.13 1054.3 710.19 1048.86" fill="#fff" stroke="#fff" stroke-linecap="round" stroke-linejoin="round" stroke-width="1.29"/><polygon points="710.24 1057.05 737.42 1042.31 731.86 1052.32 709.89 1064.02 710.24 1057.05" fill="#fff" stroke="#fff" stroke-linecap="round" stroke-linejoin="round" stroke-width="1.29"/><polygon points="600.55 1175.59 683.19 1131.64 678.59 1141.18 600.79 1181.53 600.55 1175.59" fill="#fff" stroke="#fff" stroke-linecap="round" stroke-linejoin="round" stroke-width="1.29"/><polygon points="600.91 1184.54 678 1144.7 673.6 1153.01 612.49 1183.86 600.91 1184.54" fill="#fff" stroke="#fff" stroke-linecap="round" stroke-linejoin="round" stroke-width="1.29"/><polygon points="641.52 1117.96 648.41 1106.42 643.99 1149.16 637.22 1153.14 641.52 1117.96" fill="#fff" stroke="#fff" stroke-linecap="round" stroke-linejoin="round" stroke-width="1.29"/><polygon points="643.65 1170.91 643.13 1180.51 636.17 1180.81 636.75 1174.71 643.65 1170.91" fill="#fff" stroke="#fff" stroke-linecap="round" stroke-linejoin="round" stroke-width="1.29"/><polygon points="638.42 1123.07 632.79 1132.29 629.47 1156.97 634.73 1154.03 638.42 1123.07" fill="#fff" stroke="#fff" stroke-linecap="round" stroke-linejoin="round" stroke-width="1.29"/><polygon points="634.24 1176.11 633.71 1180.83 626.49 1181.33 627.01 1179.77 634.24 1176.11" fill="#fff" stroke="#fff" stroke-linecap="round" stroke-linejoin="round" stroke-width="1.29"/><path d="M779.38,1013.89l-3.62-4.79-3.31,5.2,6.93,9.12Z" fill="#fff" stroke="#fff" stroke-linecap="round" stroke-linejoin="round" stroke-width="1.29"/><path d="M779.86,1034.59l-11-13.67-4.43,5L780,1045.25C780,1041.7,780,1038.14,779.86,1034.59Z" fill="#fff" stroke="#fff" stroke-linecap="round" stroke-linejoin="round" stroke-width="1.29"/><polygon points="762.53 1032.94 757.46 1038.69 772.17 1059.87 776.24 1054.74 762.53 1032.94" fill="#fff" stroke="#fff" stroke-linecap="round" stroke-linejoin="round" stroke-width="1.29"/><polygon points="755.44 1046.02 750.76 1051.47 764.73 1073.16 768.76 1067.17 755.44 1046.02" fill="#fff" stroke="#fff" stroke-linecap="round" stroke-linejoin="round" stroke-width="1.29"/><polygon points="748.05 1060.12 744.89 1065.92 756.08 1086.21 759.65 1080.43 748.05 1060.12" fill="#fff" stroke="#fff" stroke-linecap="round" stroke-linejoin="round" stroke-width="1.29"/><polygon points="741.01 1074.19 736.99 1080.28 746.11 1095.8 750.29 1089.99 741.01 1074.19" fill="#fff" stroke="#fff" stroke-linecap="round" stroke-linejoin="round" stroke-width="1.29"/><polygon points="733.5 1087.87 729.8 1092.89 738.32 1112.91 743.2 1107.37 733.5 1087.87" fill="#fff" stroke="#fff" stroke-linecap="round" stroke-linejoin="round" stroke-width="1.29"/><polygon points="724.74 1103.09 720.31 1108.17 728.64 1128.21 733.42 1122.38 724.74 1103.09" fill="#fff" stroke="#fff" stroke-linecap="round" stroke-linejoin="round" stroke-width="1.29"/><polygon points="715.06 1116.16 710.3 1122.24 719.11 1144.83 724.35 1138.88 715.06 1116.16" fill="#fff" stroke="#fff" stroke-linecap="round" stroke-linejoin="round" stroke-width="1.29"/><polygon points="705.01 1133.53 700.34 1139.83 709.77 1161.55 714.43 1155.23 705.01 1133.53" fill="#fff" stroke="#fff" stroke-linecap="round" stroke-linejoin="round" stroke-width="1.29"/><polygon points="695.54 1147.1 690.78 1155.6 700.31 1176.43 703.78 1176.28 707.55 1170.97 695.54 1147.1" fill="#fff" stroke="#fff" stroke-linecap="round" stroke-linejoin="round" stroke-width="1.29"/><polygon points="686.53 1165.31 682.28 1172.65 685.65 1177.83 692.32 1177.54 693.34 1175.11 686.53 1165.31" fill="#fff" stroke="#fff" stroke-linecap="round" stroke-linejoin="round" stroke-width="1.29"/><path d="M784.1,1056.23l-4.36,7.21a28.14,28.14,0,0,0,7,1.68A52.56,52.56,0,0,0,784.1,1056.23Z" fill="#fff" stroke="#fff" stroke-linecap="round" stroke-linejoin="round" stroke-width="1.29"/><path d="M738.78,1124l18.78-25.87s13.24,9.73,4.73,23.12S738.78,1124,738.78,1124Z" fill="#fff" stroke="#fff" stroke-linecap="round" stroke-linejoin="round" stroke-width="1.29"/><path d="M760.25,1095.18,776.73,1067s14.54,11.18,7,23S760.25,1095.18,760.25,1095.18Z" fill="#fff" stroke="#fff" stroke-linecap="round" stroke-linejoin="round" stroke-width="1.29"/><path d="M737.66,1128.56l-16.91,28.94s16.08,7.29,23.21-5.53S737.66,1128.56,737.66,1128.56Z" fill="#fff" stroke="#fff" stroke-linecap="round" stroke-linejoin="round" stroke-width="1.29"/><path d="M712.46,1175.14l6.17-12.48s7.84.25,9,11.81Z" fill="#fff" stroke="#fff" stroke-linecap="round" stroke-linejoin="round" stroke-width="1.29"/><path d="M751.1,1145.63s16.43,6.78,19.46,29.32l-12.27.53s-2.63-13.6-13-17Z" fill="#fff" stroke="#fff" stroke-linecap="round" stroke-linejoin="round" stroke-width="1.29"/><path d="M760.18,1128.61s24.12,7.76,24.06,44.92" fill="none" stroke="#fff" stroke-linejoin="round" stroke-width="2.58"/><path d="M787,1092.05a40.55,40.55,0,0,1,8.17,6" fill="none" stroke="#fff" stroke-linejoin="round" stroke-width="2.58"/><path d="M659.55,856.27l-1.08-26.5,3.13-.14,4.73,15h0l-.62-15.16,3-.13,1.08,26.5L667,856l-5-16.37h-.06l.68,16.56Z" fill="#fff"/><path d="M663,888.82l-1.08-26.51,9.41-.41.16,4-6,.26.28,6.83,4.52-.2.16,4-4.51.19.47,11.75Z" fill="#fff"/><polygon points="580.22 687.35 585.43 681.53 579.76 676.19 574.55 682.01 580.22 687.35" fill="#fff" stroke="#fff" stroke-linecap="round" stroke-linejoin="round" stroke-width="1.29"/><polygon points="539 662.79 563.66 675.13 536.02 676.34 539 662.79" fill="#fff" stroke="#fff" stroke-linecap="round" stroke-linejoin="round" stroke-width="1.29"/><polygon points="571.49 659.32 559.23 670.53 566.77 674.99 577.5 665.95 571.49 659.32" fill="#fff" stroke="#fff" stroke-linecap="round" stroke-linejoin="round" stroke-width="1.29"/><polygon points="579.27 664.27 575.32 660.1 582.97 659.77 579.37 664.27 579.37 664.38 579.32 664.33 579.28 664.38 579.27 664.27" fill="#fff" stroke="#fff" stroke-linecap="round" stroke-linejoin="round" stroke-width="1.29"/><polygon points="562.08 653.3 550.87 648.23 543.65 662.59 552.12 667 562.08 653.3" fill="#fff" stroke="#fff" stroke-linecap="round" stroke-linejoin="round" stroke-width="1.29"/><polygon points="577.45 696.02 568.75 677.74 563.44 686.48 577.45 696.02" fill="#fff" stroke="#fff" stroke-linecap="round" stroke-linejoin="round" stroke-width="1.29"/><polygon points="531.53 674.45 503.74 661.42 504.27 674.33 531.53 674.45" fill="#fff" stroke="#fff" stroke-linecap="round" stroke-linejoin="round" stroke-width="1.29"/><polygon points="539.49 646.6 527.5 642.04 523.12 659.59 532.46 661.97 539.49 646.6" fill="#fff" stroke="#fff" stroke-linecap="round" stroke-linejoin="round" stroke-width="1.29"/><polygon points="514.35 636.23 504.12 635.53 505.06 658.58 512.55 658.66 514.35 636.23" fill="#fff" stroke="#fff" stroke-linecap="round" stroke-linejoin="round" stroke-width="1.29"/><polygon points="497.06 661.71 465.31 669.15 469.35 682.07 497.06 661.71" fill="#fff" stroke="#fff" stroke-linecap="round" stroke-linejoin="round" stroke-width="1.29"/><polygon points="490.43 636.13 492.85 660.17 484 662.28 479.17 637.61 490.43 636.13" fill="#fff" stroke="#fff" stroke-linecap="round" stroke-linejoin="round" stroke-width="1.29"/><polygon points="461.5 642.31 472.46 664.59 465.18 666.01 451.95 646.49 461.5 642.31" fill="#fff" stroke="#fff" stroke-linecap="round" stroke-linejoin="round" stroke-width="1.29"/><polygon points="441.94 651.18 455.84 671.37 449.44 674.76 432.58 656.26 441.94 651.18" fill="#fff" stroke="#fff" stroke-linecap="round" stroke-linejoin="round" stroke-width="1.29"/><polygon points="461.62 684.21 429.63 689.37 436.56 699.22 461.62 684.21" fill="#fff" stroke="#fff" stroke-linecap="round" stroke-linejoin="round" stroke-width="1.29"/><polygon points="419.55 696.39 401.61 723.71 408.21 729.8 419.55 696.39" fill="#fff" stroke="#fff" stroke-linecap="round" stroke-linejoin="round" stroke-width="1.13"/><polygon points="439.43 678.47 422.52 663.24 415.07 668.2 432.35 682.81 439.43 678.47" fill="#fff" stroke="#fff" stroke-linecap="round" stroke-linejoin="round" stroke-width="1.29"/><polygon points="424.29 687.19 408.01 674.62 400.05 681.51 418.89 692.06 424.29 687.19" fill="#fff" stroke="#fff" stroke-linecap="round" stroke-linejoin="round" stroke-width="1.29"/><polygon points="413.06 700.25 395.94 688.03 392 694.69 408.43 706.42 413.06 700.25" fill="#fff" stroke="#fff" stroke-linecap="round" stroke-linejoin="round" stroke-width="1.13"/><polygon points="403.2 714.71 386.07 703.98 382.49 712 399.4 720.92 403.2 714.71" fill="#fff" stroke="#fff" stroke-linecap="round" stroke-linejoin="round" stroke-width="1.13"/><polygon points="394.95 729.86 376.58 721.93 372.82 730.18 391.52 737.79 394.95 729.86" fill="#fff" stroke="#fff" stroke-linecap="round" stroke-linejoin="round" stroke-width="1.13"/><polygon points="396.45 735.78 385.95 768.07 396.47 769.22 396.45 735.78" fill="#fff" stroke="#fff" stroke-linecap="round" stroke-linejoin="round" stroke-width="1.13"/><polygon points="388.48 747.99 386.09 755.55 365.87 750.4 368.33 740.62 388.48 747.99" fill="#fff" stroke="#fff" stroke-linecap="round" stroke-linejoin="round" stroke-width="1.13"/><polygon points="385.16 760.83 382.85 768.19 364.3 770.62 364.53 761.74 385.16 760.83" fill="#fff" stroke="#fff" stroke-linecap="round" stroke-linejoin="round" stroke-width="1.13"/><polygon points="385.94 779.06 391.27 814.88 400.13 807.44 385.94 779.06" fill="#fff" stroke="#fff" stroke-linecap="round" stroke-linejoin="round" stroke-width="1.13"/><polygon points="383.24 777.84 383.53 784.88 365.25 793.74 364.08 783.72 383.24 777.84" fill="#fff" stroke="#fff" stroke-linecap="round" stroke-linejoin="round" stroke-width="1.13"/><polygon points="384.76 792.88 386.15 801.08 368.51 814.55 365.68 804.2 384.76 792.88" fill="#fff" stroke="#fff" stroke-linecap="round" stroke-linejoin="round" stroke-width="1.13"/><polygon points="387.13 808.89 388.35 817.9 374.36 832.42 371.24 822.49 387.13 808.89" fill="#fff" stroke="#fff" stroke-linecap="round" stroke-linejoin="round" stroke-width="1.13"/><polygon points="395.88 829.06 391.59 823.61 380.59 839.4 386.1 847.22 395.88 829.06" fill="#fff" stroke="#fff" stroke-linecap="round" stroke-linejoin="round" stroke-width="1.13"/><polygon points="430.1 767.72 480.85 678.75 487.22 678.47 446.57 748.99 430.1 767.72" fill="#fff" stroke="#fff" stroke-linecap="round" stroke-linejoin="round" stroke-width="1.29"/><polygon points="451.66 745.71 490.08 678.34 496.45 678.06 463.75 736.43 451.66 745.71" fill="#fff" stroke="#fff" stroke-linecap="round" stroke-linejoin="round" stroke-width="1.29"/><path d="M422.53,780.53s-22,34.18-28.59,47.26l-1.61,13.68L390,856.82s16.1-36.47,25.53-49.26Z" fill="#fff" stroke="#fff" stroke-linecap="round" stroke-linejoin="round" stroke-width="1.13"/><polygon points="541.25 679.43 580.88 748.68 567.96 738.16 535.5 679.19 541.25 679.43" fill="#fff" stroke="#fff" stroke-linecap="round" stroke-linejoin="round" stroke-width="1.29"/><polygon points="532.89 679.3 564.52 736.99 556.19 731.69 527.66 678.65 532.89 679.3" fill="#fff" stroke="#fff" stroke-linecap="round" stroke-linejoin="round" stroke-width="1.29"/><polygon points="577.56 698.6 558.43 704.94 560.61 708.86 579.76 702.3 577.56 698.6" fill="#fff" stroke="#fff" stroke-linecap="round" stroke-linejoin="round" stroke-width="1.29"/><polygon points="580.92 704.37 561.79 710.71 563.97 714.63 581.06 707.97 580.92 704.37" fill="#fff" stroke="#fff" stroke-linecap="round" stroke-linejoin="round" stroke-width="1.29"/><polygon points="542.28 710.81 509.89 721.71 524.75 721.36 544.49 714.51 542.28 710.81" fill="#fff" stroke="#fff" stroke-linecap="round" stroke-linejoin="round" stroke-width="1.29"/><polygon points="545.56 716.5 528.51 722.23 539.02 723.24 547.76 720.2 545.56 716.5" fill="#fff" stroke="#fff" stroke-linecap="round" stroke-linejoin="round" stroke-width="1.29"/><polygon points="548.52 722.36 552.38 729.46 541.38 724.92 548.52 722.36" fill="#fff" stroke="#fff" stroke-linecap="round" stroke-linejoin="round" stroke-width="1.29"/><polygon points="584.04 781.03 575.45 813.09 585.83 824.77 584.04 781.03" fill="#fff" stroke="#fff" stroke-linecap="round" stroke-linejoin="round" stroke-width="1.29"/><path d="M583.89,777.25,558,795.78l3.8-39.15S571.59,761.61,583.89,777.25Z" fill="#fff" stroke="#fff" stroke-linecap="round" stroke-linejoin="round" stroke-width="1.29"/><path d="M559.87,755l-26.93,28.28-17.53-39S541.08,741.8,559.87,755Z" fill="#fff" stroke="#fff" stroke-linecap="round" stroke-linejoin="round" stroke-width="1.29"/><polygon points="570.96 744 582.91 753.25 575.51 763.34 564.13 754.3 570.96 744" fill="#fff" stroke="#fff" stroke-linecap="round" stroke-linejoin="round" stroke-width="1.29"/><polygon points="555.48 733.74 541.5 727.88 536.51 742 550.33 746.67 555.48 733.74" fill="#fff" stroke="#fff" stroke-linecap="round" stroke-linejoin="round" stroke-width="1.29"/><polygon points="523.29 724.25 521.08 741.12 507.47 741.72 505.66 724.53 523.29 724.25" fill="#fff" stroke="#fff" stroke-linecap="round" stroke-linejoin="round" stroke-width="1.29"/><path d="M512,744.34l-9.7,40.26-36.43-22.24S486.51,743.93,512,744.34Z" fill="#fff" stroke="#fff" stroke-linecap="round" stroke-linejoin="round" stroke-width="1.29"/><polygon points="487.04 728.67 490.8 745.17 478.31 750.64 470.01 735.47 487.04 728.67" fill="#fff" stroke="#fff" stroke-linecap="round" stroke-linejoin="round" stroke-width="1.29"/><path d="M462.93,764.13l14.19,41.62L437,808.91S441.66,779.08,462.93,764.13Z" fill="#fff" stroke="#fff" stroke-linecap="round" stroke-linejoin="round" stroke-width="1.29"/><polygon points="453.52 746.8 462.4 760.91 451.87 769.49 440.83 758.81 453.52 746.8" fill="#fff" stroke="#fff" stroke-linecap="round" stroke-linejoin="round" stroke-width="1.29"/><polygon points="441.02 786.05 435.43 802.13 421.59 795.99 426.2 778.59 441.02 786.05" fill="#fff" stroke="#fff" stroke-linecap="round" stroke-linejoin="round" stroke-width="1.29"/><path d="M436.44,813.37,471.19,837,436.4,853S433.65,827.24,436.44,813.37Z" fill="#fff" stroke="#fff" stroke-linecap="round" stroke-linejoin="round" stroke-width="1.29"/><polygon points="416.11 819.1 431.71 822.66 431.54 839.45 415.86 840.13 416.11 819.1" fill="#fff" stroke="#fff" stroke-linecap="round" stroke-linejoin="round" stroke-width="1.29"/><path d="M437.34,858.05l35.15,10.72-28.37,24.81S437.87,875.94,437.34,858.05Z" fill="#fff" stroke="#fff" stroke-linecap="round" stroke-linejoin="round" stroke-width="1.29"/><path d="M444.92,896.77l38.71,1.93-26.71,28.07S447.46,909.56,444.92,896.77Z" fill="#fff" stroke="#fff" stroke-linecap="round" stroke-linejoin="round" stroke-width="1.29"/><polygon points="433.85 862.8 436.99 880.6 421.42 883.48 416.87 864.8 433.85 862.8" fill="#fff" stroke="#fff" stroke-linecap="round" stroke-linejoin="round" stroke-width="1.29"/><polygon points="442.04 900.77 448.94 917.85 434.73 924.34 427.59 907.12 442.04 900.77" fill="#fff" stroke="#fff" stroke-linecap="round" stroke-linejoin="round" stroke-width="1.29"/><path d="M458.47,930.76l37.81-3.21-22.91,32.13S463.48,945.5,458.47,930.76Z" fill="#fff" stroke="#fff" stroke-linecap="round" stroke-linejoin="round" stroke-width="1.29"/><polygon points="457.35 937.25 465.82 953.05 451.56 960.63 443.27 944.3 457.35 937.25" fill="#fff" stroke="#fff" stroke-linecap="round" stroke-linejoin="round" stroke-width="1.29"/><path d="M475.08,963.59l36.7-7.93-21.09,32.77S481.11,976,475.08,963.59Z" fill="#fff" stroke="#fff" stroke-linecap="round" stroke-linejoin="round" stroke-width="1.29"/><polygon points="476.75 973.12 486.07 988.63 472.75 996.44 463.08 980.38 476.75 973.12" fill="#fff" stroke="#fff" stroke-linecap="round" stroke-linejoin="round" stroke-width="1.29"/><path d="M492.6,991.76l36.37-3-18.11,30.38A187.17,187.17,0,0,1,492.6,991.76Z" fill="#fff" stroke="#fff" stroke-linecap="round" stroke-linejoin="round" stroke-width="1.29"/><polygon points="496.42 1005.01 506.03 1019.38 494.07 1027.58 484.22 1013.33 496.42 1005.01" fill="#fff" stroke="#fff" stroke-linecap="round" stroke-linejoin="round" stroke-width="1.29"/><path d="M513.46,1023.58l36.12-9.66-18.19,33.94S522,1039.69,513.46,1023.58Z" fill="#fff" stroke="#fff" stroke-linecap="round" stroke-linejoin="round" stroke-width="1.29"/><polygon points="517.75 1037.17 527.54 1050.74 514.97 1060.55 504.71 1046.32 517.75 1037.17" fill="#fff" stroke="#fff" stroke-linecap="round" stroke-linejoin="round" stroke-width="1.29"/><path d="M533.78,1052.73l33.16-12.29-15.35,36.36S539.11,1064.69,533.78,1052.73Z" fill="#fff" stroke="#fff" stroke-linecap="round" stroke-linejoin="round" stroke-width="1.29"/><polygon points="539.52 1069.19 551.91 1084.46 535.51 1095.12 526.89 1077.88 539.52 1069.19" fill="#fff" stroke="#fff" stroke-linecap="round" stroke-linejoin="round" stroke-width="1.29"/><polygon points="554.09 1081.43 588.79 1069.3 598.47 1134.38 599.17 1151.74 587.99 1163.3 577.87 1146.8 588.81 1134.35 554.09 1081.43" fill="#fff" stroke="#fff" stroke-linecap="round" stroke-linejoin="round" stroke-width="1.29"/><polygon points="563.97 1102.46 575.69 1120.02 564 1130.01 551.42 1112.94 563.97 1102.46" fill="#fff" stroke="#fff" stroke-linecap="round" stroke-linejoin="round" stroke-width="1.29"/><polygon points="417.44 878.79 418.15 928.43 423.19 932.66 423.02 904.31 417.44 878.79" fill="#fff" stroke="#fff" stroke-linecap="round" stroke-linejoin="round" stroke-width="1.29"/><polygon points="425.37 908 425.87 934.54 430.91 938.77 430.91 922.59 425.37 908" fill="#fff" stroke="#fff" stroke-linecap="round" stroke-linejoin="round" stroke-width="1.29"/><path d="M412.51,934.89l36.39,27-5.27-10.19-31.9-24.62C411.93,929.7,412.21,932.29,412.51,934.89Z" fill="#fff" stroke="#fff" stroke-linecap="round" stroke-linejoin="round" stroke-width="1.29"/><path d="M413.82,946.51,459.71,981l-7.44-13.24-39.33-29.19C413.25,941.18,413.57,943.84,413.82,946.51Z" fill="#fff" stroke="#fff" stroke-linecap="round" stroke-linejoin="round" stroke-width="1.29"/><polygon points="419.21 954.35 421.36 1007.12 426.3 1014.64 423.98 957.83 419.21 954.35" fill="#fff" stroke="#fff" stroke-linecap="round" stroke-linejoin="round" stroke-width="1.29"/><polygon points="426.51 959.36 428.82 1015.98 433.76 1023.5 431.28 962.83 426.51 959.36" fill="#fff" stroke="#fff" stroke-linecap="round" stroke-linejoin="round" stroke-width="1.29"/><path d="M421.85,1020.1c-.46,3-.25,6-.9,9l3.91,6.88,9.17-5.74Z" fill="#fff" stroke="#fff" stroke-linecap="round" stroke-linejoin="round" stroke-width="1.29"/><polygon points="439.72 1038.22 458.07 1068.41 448.63 1075.42 439.72 1038.22" fill="#fff" stroke="#fff" stroke-linecap="round" stroke-linejoin="round" stroke-width="1.29"/><polygon points="453.88 1083.78 483.32 1103.96 474.38 1112.4 453.88 1083.78" fill="#fff" stroke="#fff" stroke-linecap="round" stroke-linejoin="round" stroke-width="1.29"/><polygon points="500.39 1145.3 488.31 1113.41 508.4 1136.85 500.39 1145.3" fill="#fff" stroke="#fff" stroke-linecap="round" stroke-linejoin="round" stroke-width="1.29"/><polygon points="538.1 1178.77 533.26 1184.48 525.65 1184.81 505.7 1152.22 538.1 1178.77" fill="#fff" stroke="#fff" stroke-linecap="round" stroke-linejoin="round" stroke-width="1.29"/><polygon points="477.91 1010.03 484.51 1020.32 495.82 1116.91 488.77 1110.14 477.91 1010.03" fill="#fff" stroke="#fff" stroke-linecap="round" stroke-linejoin="round" stroke-width="1.29"/><polygon points="487.75 1023.29 494.35 1033.59 506.23 1128.27 499.15 1120.85 487.75 1023.29" fill="#fff" stroke="#fff" stroke-linecap="round" stroke-linejoin="round" stroke-width="1.29"/><polygon points="523.02 1076.45 501.31 1067.57 502.13 1073.96 527.15 1084.19 523.02 1076.45" fill="#fff" stroke="#fff" stroke-linecap="round" stroke-linejoin="round" stroke-width="1.29"/><polygon points="531.42 1094.29 527.8 1087.33 502.64 1077.34 503.49 1083.41 531.42 1094.29" fill="#fff" stroke="#fff" stroke-linecap="round" stroke-linejoin="round" stroke-width="1.29"/><polygon points="480.57 1058.88 445.94 1043.53 451.07 1050.85 481.07 1064.3 480.57 1058.88" fill="#fff" stroke="#fff" stroke-linecap="round" stroke-linejoin="round" stroke-width="1.29"/><polygon points="481.18 1067.04 452.9 1054.73 459.25 1064.22 482.1 1073.96 481.18 1067.04" fill="#fff" stroke="#fff" stroke-linecap="round" stroke-linejoin="round" stroke-width="1.29"/><polygon points="600.15 1175.61 514.22 1139.02 519.58 1148.12 600.39 1181.55 600.15 1175.61" fill="#fff" stroke="#fff" stroke-linecap="round" stroke-linejoin="round" stroke-width="1.29"/><polygon points="600.51 1184.56 520.46 1151.58 525.52 1159.47 588.92 1184.89 600.51 1184.56" fill="#fff" stroke="#fff" stroke-linecap="round" stroke-linejoin="round" stroke-width="1.29"/><polygon points="554.62 1121.75 546.82 1110.86 554.71 1153.06 561.77 1156.43 554.62 1121.75" fill="#fff" stroke="#fff" stroke-linecap="round" stroke-linejoin="round" stroke-width="1.29"/><polygon points="556.81 1174.7 558.12 1184.22 565.07 1183.92 564 1177.89 556.81 1174.7" fill="#fff" stroke="#fff" stroke-linecap="round" stroke-linejoin="round" stroke-width="1.29"/><polygon points="558.13 1126.57 564.49 1135.27 569.81 1159.57 564.33 1157.1 558.13 1126.57" fill="#fff" stroke="#fff" stroke-linecap="round" stroke-linejoin="round" stroke-width="1.29"/><polygon points="566.61 1179.06 567.53 1183.72 574.77 1183.59 574.12 1182.08 566.61 1179.06" fill="#fff" stroke="#fff" stroke-linecap="round" stroke-linejoin="round" stroke-width="1.29"/><path d="M424.6,1040.73l-3.49-3.3c.2,2.42.5,4.82.85,7.22Z" fill="#fff" stroke="#fff" stroke-linecap="round" stroke-linejoin="round" stroke-width="1.29"/><path d="M427.11,1047.58l-5.77,11.13c0,.36-1.78,12.85-2.58,15.55l.94,1,12.94-22.39Z" fill="#fff" stroke="#fff" stroke-linecap="round" stroke-linejoin="round" stroke-width="1.29"/><polygon points="435.25 1060 440.35 1065.02 428.2 1087.85 423.7 1082.23 435.25 1060" fill="#fff" stroke="#fff" stroke-linecap="round" stroke-linejoin="round" stroke-width="1.29"/><polygon points="443.76 1073.4 447.38 1078.91 437.89 1100.1 433.86 1094.66 443.76 1073.4" fill="#fff" stroke="#fff" stroke-linecap="round" stroke-linejoin="round" stroke-width="1.29"/><polygon points="451.92 1086.82 456.42 1092.53 448.6 1108.79 443.96 1103.37 451.92 1086.82" fill="#fff" stroke="#fff" stroke-linecap="round" stroke-linejoin="round" stroke-width="1.29"/><polygon points="460.52 1099.78 464.61 1104.47 457.75 1125.16 452.44 1120.06 460.52 1099.78" fill="#fff" stroke="#fff" stroke-linecap="round" stroke-linejoin="round" stroke-width="1.29"/><polygon points="470.49 1114.19 475.32 1118.87 468.64 1139.56 463.41 1134.16 470.49 1114.19" fill="#fff" stroke="#fff" stroke-linecap="round" stroke-linejoin="round" stroke-width="1.29"/><polygon points="481.19 1126.37 486.44 1132.01 479.5 1155.29 473.8 1149.82 481.19 1126.37" fill="#fff" stroke="#fff" stroke-linecap="round" stroke-linejoin="round" stroke-width="1.29"/><polygon points="492.63 1142.8 497.79 1148.67 490.17 1171.14 485.01 1165.24 492.63 1142.8" fill="#fff" stroke="#fff" stroke-linecap="round" stroke-linejoin="round" stroke-width="1.29"/><polygon points="503.17 1155.5 508.61 1163.55 500.81 1185.14 497.34 1185.3 493.14 1180.33 503.17 1155.5" fill="#fff" stroke="#fff" stroke-linecap="round" stroke-linejoin="round" stroke-width="1.29"/><polygon points="513.63 1172.86 518.46 1179.8 515.53 1185.26 508.86 1185.55 507.65 1183.21 513.63 1172.86" fill="#fff" stroke="#fff" stroke-linecap="round" stroke-linejoin="round" stroke-width="1.29"/><path d="M458.21,1136.21l-20.83-24.13s-12.4,10.85-2.83,23.45S458.21,1136.21,458.21,1136.21Z" fill="#fff" stroke="#fff" stroke-linecap="round" stroke-linejoin="round" stroke-width="1.29"/><path d="M417,1084.52c-.79,3.12-5.39,17.63-6.25,21.92,8.48,10.91,23.72,3,23.72,3Z" fill="#fff" stroke="#fff" stroke-linecap="round" stroke-linejoin="round" stroke-width="1.29"/><path d="M459.69,1140.7l19.21,27.36s-15.43,8.67-23.58-3.49S459.69,1140.7,459.69,1140.7Z" fill="#fff" stroke="#fff" stroke-linecap="round" stroke-linejoin="round" stroke-width="1.29"/><path d="M488.6,1184.91,481.43,1173s-7.79.92-8,12.55Z" fill="#fff" stroke="#fff" stroke-linecap="round" stroke-linejoin="round" stroke-width="1.29"/><path d="M447.69,1158.88s-15.82,8.18-17,30.9l12.26-.53s1.52-13.78,11.58-18.06Z" fill="#fff" stroke="#fff" stroke-linecap="round" stroke-linejoin="round" stroke-width="1.29"/><path d="M437.25,1142.71s-23.4,9.83-20.31,46.85" fill="none" stroke="#fff" stroke-linejoin="round" stroke-width="2.58"/><path d="M504.74,863l-1.08-26.5,3.37-.15,1.08,26.5Z" fill="#fff"/><path d="M533.83,835.21l5-.22c3.62-.16,5.33,2.27,5.51,6.78.09,2.28-.52,4.7-2.11,5.65,1.75,1,2.84,2.74,3,6.16.18,4.37-1.12,7.73-5,7.9l-5.33.23Zm3.82,10.72,1.23-.06c1.28,0,2.21-1.27,2.12-3.47-.1-2.46-.86-3.71-2.36-3.65l-1.28.06Zm.49,11.89,1.41-.06c1.8-.08,2.39-1.5,2.28-4.18s-.92-4-2.94-4l-1.08,0Z" fill="#fff"/><path d="M549.93,861.06l-1.08-26.5,9-.4.16,4-5.66.25.28,6.83L557,845l.16,4-4.36.19.32,7.79,6-.27.16,4Z" fill="#fff"/><path d="M563,860.49,562,834l3.37-.14.92,22.53,5.3-.23.17,4Z" fill="#fff"/><path d="M576,859.92l-1.09-26.5,3.38-.15,1.08,26.5Z" fill="#fff"/><path d="M583.85,859.58l-1.08-26.51,9-.39.16,4-5.66.25.28,6.83,4.35-.19.17,4-4.36.19.32,7.78,6-.26.16,4Z" fill="#fff"/><path d="M604.05,832.15l3.32-.15-3,26.68-3.37.15-5.2-26.32,3.32-.15,3.2,18.28h.06Z" fill="#fff"/><path d="M612.45,858.33l-1.08-26.5,9-.4.17,4-5.66.24.27,6.83,4.36-.19.16,4-4.35.19.31,7.79,6-.27.17,4Z" fill="#fff"/><path d="M649,856.73l-1.08-26.5,3.37-.14,1.08,26.5Z" fill="#fff"/><path d="M508.42,873l-3.27.14-.16-4,9.91-.43.16,4-3.27.14.92,22.54-3.37.14Z" fill="#fff"/><path d="M518.14,895.14l-1.08-26.5,3.37-.15.44,10.79,3.59-.16L524,868.33l3.38-.14,1.08,26.5-3.37.15-.48-11.75-3.6.16.48,11.74Z" fill="#fff"/><path d="M531.28,894.57l-1.08-26.51,9-.39.17,4-5.66.25.28,6.83,4.35-.19.16,4-4.35.19.32,7.78,6-.26.16,4Z" fill="#fff"/><path d="M560.43,893.29l-1.08-26.5,4.84-.21c4.16-.18,6.18,1.9,6.41,7.55s-1.61,7.91-5.77,8.09l-1.47.06.44,10.87Zm2.77-14.75,1.31-.06c2.2-.1,2.85-1,2.72-4.2s-.85-4-3.05-3.95l-1.31.06Z" fill="#fff"/><path d="M572.75,872.64c-.15-3.74,1.36-6.86,4.89-7s5.3,2.82,5.45,6.56l.56,13.65c.15,3.75-1.36,6.87-4.9,7s-5.29-2.82-5.44-6.56Zm3.93,13.4c.08,2,.55,2.92,1.91,2.86s1.76-1,1.68-3l-.55-13.43c-.08-2-.55-2.92-1.92-2.86s-1.75,1-1.67,3Z" fill="#fff"/><path d="M591.48,865.39l2.78-.12,3,16.78h.06l1.18-17,3.16-.13-2.37,26.65-2.83.12-3.17-17.4h0l-1.57,17.61-2.83.12L584,865.72l3.16-.14,2.75,16.79H590Z" fill="#fff"/><path d="M605,891.35,604,864.84l9-.39.16,4-5.66.25.28,6.83,4.35-.19.16,4-4.35.19.32,7.78,6-.26.16,4Z" fill="#fff"/><path d="M620,890.69l-3.37.15-1.09-26.5,4.74-.21c3.78-.16,5.8,1.92,6,7.57.18,4.26-1,6-2.09,6.78l3.34,11.88-3.42.15-2.85-10.87a13.05,13.05,0,0,1-1.73.19Zm-.6-14.61,1.2-.05c1.82-.08,2.47-1,2.34-4.18s-.85-4.05-2.67-4l-1.2,0Z" fill="#fff"/><path d="M646.5,869.42c-.15-3.74,1.36-6.86,4.9-7s5.29,2.82,5.44,6.56l.56,13.66c.15,3.74-1.36,6.86-4.89,7s-5.3-2.82-5.45-6.56Zm3.93,13.4c.08,2,.56,2.92,1.92,2.86s1.75-1,1.67-3l-.55-13.43c-.08-2-.55-2.92-1.91-2.86s-1.76,1-1.68,3Z" fill="#fff"/><path d="M512.42,982.48l-3.22-78.73,10-.44,2.73,67,15.76-.69.48,11.77Z" fill="#fff"/><path d="M551.56,921c-.45-11.12,4-20.39,14.53-20.84s15.72,8.38,16.18,19.5l1.65,40.56c.46,11.12-4,20.39-14.53,20.84s-15.72-8.38-16.17-19.5Zm11.66,39.8c.24,5.89,1.65,8.66,5.69,8.49s5.22-3.07,5-9l-1.63-39.91c-.24-5.89-1.65-8.66-5.69-8.49s-5.22,3.07-5,9Z" fill="#fff"/><path d="M618.91,899l9.86-.43-9,79.26-10,.44L594.34,900l9.86-.43,9.5,54.32h.16Z" fill="#fff"/><path d="M648,976.56l-3.21-78.73,26.83-1.17.48,11.78-16.81.73.83,20.28,12.93-.56.48,11.78-12.93.56.94,23.12,17.94-.79.48,11.78Z" fill="#fff"/><path d="M397.05,1257.19s129.48,11,206.43,8.15c141.19-5.19,206.43-19,206.43-19" fill="none" stroke="#636363" stroke-linecap="round" stroke-linejoin="round"/><path d="M802,1179.57c9.94-22.61-1.94-65.14-15.65-124.58" fill="none" stroke="#262521" stroke-linecap="round" stroke-linejoin="round" stroke-width="3"/><path d="M421.2,1019c.49,23.68.3,42.22-1,50.32-3.6,21.92-31,90.79-17.16,121.08" fill="none" stroke="#262521" stroke-linecap="round" stroke-linejoin="round" stroke-width="3"/></svg>