<svg xmlns="http://www.w3.org/2000/svg" width="1000" height="1550" viewBox="0 0 1000 1550"><path d="M638.19 849.61c58.38 11.42 118.49-39.89 118.49-39.89s-68.23-217.64-79.93-223.29-142.29-56.21-142.29-56.21-2.49 55-82.84 55c-65.09 0-82.1-39.23-86.22-51.38a12.64 12.64 0 01-.75-2.59c-1 .65-133.78 83.87-145.44 89.5-2.17 1-15.48 16.93-15.8 45.23h0c-15.73 64.38-38.09 172.8-38.09 172.8s103.21 50.51 123.26 10.34h0l4.1 7.63-20 406s91.48 29 210.72 25 195.84-40.68 195.84-40.68l-41.07-397.5z" fill="#262521" stroke="#262521" stroke-linecap="round" stroke-linejoin="round" stroke-width="3"/><path d="M279.45 1264.71c23.21 6.47 103.79 26.44 204 23.08 104.33-3.5 176-32 192.32-39.1" fill="none" stroke="#636363" stroke-linecap="round" stroke-linejoin="round"/></svg>