<svg xmlns="http://www.w3.org/2000/svg" width="1250" height="1550" viewBox="0 0 1250 1550"><title>s05e09-01</title><path d="M423.7,1021s-11.62,57.37-21.45,88.33-13.08,105-15.36,135.21c-.95,12.67,4.66,27,4.66,27l-61,1.5c-16.33-18.73-8.93-129.51-14.45-197.93A619.73,619.73,0,0,1,319.74,947s-18.06-297.33,26.67-324.28,145.47-89.52,145.47-89.52-.25-.24.72,2.61c4.12,12.15,21.13,51.38,86.21,51.38,80.36,0,82.85-55,82.85-55S793.07,581.32,804,588.43c38.3,25,52.88,331.94,52.88,331.94s19,68.76,22.89,124.63c5.57,81.26,18.66,177.57,17.84,189.79s-5.3,18.88-5.3,18.88h-58.1s-1.25-8-2.88-34.36c-2.47-39.8-31-134-48.07-177.22" fill="#fff" stroke="#262521" stroke-linecap="round" stroke-linejoin="round" stroke-width="3"/><path d="M838.52,1222.46s30.63-3.83,52.37,0" fill="none" stroke="#636363" stroke-linecap="round" stroke-linejoin="round"/><path d="M327.75,1240s30.64-3.84,52.37,0" fill="none" stroke="#636363" stroke-linecap="round" stroke-linejoin="round"/><path d="M480.43,548.4s21.5,56.91,100.81,56.91,94.26-62,94.26-62" fill="none" stroke="#636363" stroke-linecap="round" stroke-linejoin="round"/><path d="M413.14,809.59s5.34,199.1,3.82,238.13c-.83,21.49-23.29,149.62-11,176.79,0,13-5.32,43-5.32,43s72.26,22.14,149.26,21.21c137.52-1.65,260.87-26.63,260.87-26.63s-4.19-30-5-43.64c14.49-25-19.07-171.62-20.87-241.58-1.22-47.58-16.1-167.27-16.1-167.27" fill="#fff" stroke="#262521" stroke-linecap="round" stroke-linejoin="round" stroke-width="3"/><path d="M417,1229.57s167,28.52,374.65-6.83" fill="none" stroke="#636363" stroke-linecap="round" stroke-linejoin="round"/><path d="M516.25,715.58q5.14.23,7.69,2.32a6.93,6.93,0,0,1,2.66,5.37,7.47,7.47,0,0,1-1.54,5,7.74,7.74,0,0,1-4.24,2.82,31.1,31.1,0,0,1-7,.85l-11.82.36,0-1,1.15,0a5.21,5.21,0,0,0,2.66-.57,2.21,2.21,0,0,0,.9-1.55,34.11,34.11,0,0,0,.05-4.82l-.44-14.66a31.16,31.16,0,0,0-.36-4.72,2,2,0,0,0-.93-1.44,6.75,6.75,0,0,0-3-.31h-.58l0-1,4.95-.28,5.64-.35q12.36-.37,12.57,6.73a5.84,5.84,0,0,1-2,4.78A12.71,12.71,0,0,1,516.25,715.58Zm-5.46-.26h.93q4.8-.15,6.51-1.71t1.61-4.94A8,8,0,0,0,519,705a4.74,4.74,0,0,0-2.13-1.92,11.2,11.2,0,0,0-4.73-.56q-.87,0-1.77.12Zm0,1.09.21,6.71c.09,2.86.19,4.67.32,5.44a2.73,2.73,0,0,0,.89,1.73,4.19,4.19,0,0,0,2.69.52,7.11,7.11,0,0,0,5.28-2c1.15-1.25,1.68-3.09,1.61-5.51s-.8-4.31-2.18-5.44-3.75-1.66-7.13-1.55C512,716.33,511.42,716.37,510.82,716.41Z" fill="#42413b"/><path d="M555.44,721.24l1.07,0-.36,9.4-24.95.76,0-1,.62,0a4.72,4.72,0,0,0,2.88-.69,2.72,2.72,0,0,0,.79-1.55,34.85,34.85,0,0,0,0-4.7L535,708.6a33,33,0,0,0-.33-4.52,2.12,2.12,0,0,0-.91-1.5,6.09,6.09,0,0,0-2.87-.34l0-1,21.53-.65.94,7.49-1,0a11.91,11.91,0,0,0-1.88-4.43,4.44,4.44,0,0,0-2.51-1.59,21.31,21.31,0,0,0-4.59-.2l-4.17.12.38,12.65,3.2-.1a8.82,8.82,0,0,0,3.07-.47,2,2,0,0,0,1.12-1.18,10.32,10.32,0,0,0,.18-3l1,0,.31,10.31-1,0a8.71,8.71,0,0,0-.53-3.35,2.08,2.08,0,0,0-1.26-1.08,10.47,10.47,0,0,0-2.76-.17l-3.31.1.22,7.13c.11,3.57.4,5.67.88,6.28s1.73.89,3.74.83l2.24-.07a10.5,10.5,0,0,0,3.9-.73,6.91,6.91,0,0,0,2.84-2.6A14.69,14.69,0,0,0,555.44,721.24Z" fill="#42413b"/><path d="M578.38,718.8l-11.45.35-.72,1.94c-1.07,2.8-1.59,4.63-1.56,5.47a2.41,2.41,0,0,0,1,2,3.87,3.87,0,0,0,2.39.62l0,1-8.95.27,0-1A4.86,4.86,0,0,0,562,728a17.31,17.31,0,0,0,2.21-4.71q.1-.33,1-2.61l8.12-21.17.86,0L585,723.09l1.47,3.12a4.24,4.24,0,0,0,1.31,1.64,4.55,4.55,0,0,0,2.39.69l0,1-11.84.36,0-1a8.77,8.77,0,0,0,2.94-.41,1.25,1.25,0,0,0,.73-1.3,12.81,12.81,0,0,0-1.11-2.88Zm-.41-1-5.73-12.67-4.91,13Z" fill="#42413b"/><path d="M607.12,698.89l10.06-.3,0,1a5.46,5.46,0,0,0-3,1,3.12,3.12,0,0,0-1.16,1.76,20.16,20.16,0,0,0-.11,3.71l.31,10a39.28,39.28,0,0,1-.13,5.72,7.9,7.9,0,0,1-1.62,3.72,9.71,9.71,0,0,1-3.94,3,15.85,15.85,0,0,1-6,1.25,15.44,15.44,0,0,1-6.85-1.16,8.69,8.69,0,0,1-4.09-3.41,12.15,12.15,0,0,1-1.36-5.77l-.07-3.09L589,707a30.76,30.76,0,0,0-.35-4.64,2,2,0,0,0-.93-1.41,6.78,6.78,0,0,0-3-.31l-.69,0,0-1,13.75-.42,0,1-.6,0a7.43,7.43,0,0,0-2.9.45,2,2,0,0,0-.88,1.4,29.6,29.6,0,0,0-.09,4.76l.29,9.49a36.55,36.55,0,0,0,.67,7,6.12,6.12,0,0,0,2.68,3.53,9.28,9.28,0,0,0,5.66,1.38,12,12,0,0,0,5-1.19,8.1,8.1,0,0,0,3.28-2.68,7.33,7.33,0,0,0,1.25-3.22,37.33,37.33,0,0,0,.08-5.15l-.31-10.26a14.56,14.56,0,0,0-.4-3.57,2.71,2.71,0,0,0-1.29-1.58,6.71,6.71,0,0,0-3-.65Z" fill="#42413b"/><path d="M620,705.75l-1,0-.06-7.25,29.24-.89.37,7.24-1,0a11.66,11.66,0,0,0-1.53-4.25,3.71,3.71,0,0,0-2-1.57,14,14,0,0,0-3.5-.19l-4.84.15.64,21.26a39.84,39.84,0,0,0,.31,4.63,2.34,2.34,0,0,0,1,1.62,5,5,0,0,0,2.77.45l1.47,0,0,1-15,.46,0-1,1.56,0a5.26,5.26,0,0,0,2.66-.57,2.29,2.29,0,0,0,.91-1.56,31.86,31.86,0,0,0,.06-4.81l-.65-21.26-4.46.13a17.31,17.31,0,0,0-3.9.4,3.54,3.54,0,0,0-1.83,1.73A11.84,11.84,0,0,0,620,705.75Z" fill="#42413b"/><path d="M667.82,714l5.63-10.16a8.34,8.34,0,0,0,1.36-3.51,2.35,2.35,0,0,0-.83-1.68,3.85,3.85,0,0,0-2.8-.7l0-1,9.84-.3,0,1a5.73,5.73,0,0,0-3.25,1.63,23.89,23.89,0,0,0-3.07,4.57l-6.41,11.47.12,4a30.32,30.32,0,0,0,.38,4.89,2.14,2.14,0,0,0,1.05,1.46,6.9,6.9,0,0,0,3,.34l0,1-12.84.39,0-1h.49a5.23,5.23,0,0,0,2.66-.57,2.25,2.25,0,0,0,.9-1.55,34.16,34.16,0,0,0,0-4.82l-.11-3.71-7.89-12.1a29.88,29.88,0,0,0-3.18-4.36,4,4,0,0,0-2.73-.69l0-1,12.22-.37,0,1c-2.28.07-3.41.62-3.38,1.66a6.85,6.85,0,0,0,1.21,2.45Z" fill="#42413b"/><path d="M600.34,766.09l14.64-.44,0,1.57a11.82,11.82,0,0,0-4.77,2.82q-2,1.9-4,7.34a31.5,31.5,0,0,1-3.19,6.54c2.54,3.43,4.53,5.59,5.94,6.46a8,8,0,0,0,4.49,1.27,5.45,5.45,0,0,0,4.87-3.2l1.57-.05a8,8,0,0,1-2.94,4.65,8.89,8.89,0,0,1-5.35,1.87q-6.68.21-11.93-6.35-5.79,6.88-12.53,7.1a12.55,12.55,0,0,1-4.81-.75,13.55,13.55,0,0,1-4.29-2.49,13.21,13.21,0,0,1-3.1-3.94,11.08,11.08,0,0,1-1.21-5.12,11.27,11.27,0,0,1,2.1-7.29q2.24-3,8.77-7.66-4.17-5.46-4.31-10a8.85,8.85,0,0,1,2.55-6.41,9.12,9.12,0,0,1,6.79-3,11.22,11.22,0,0,1,6.73,1.88,6.43,6.43,0,0,1,3.14,5.38q.16,5.26-9.54,10.53,3.21,4,6.19,7.93t5.79,7.66a24.44,24.44,0,0,0,2.91-5.74,13.86,13.86,0,0,0,1-4.62q-.12-3.93-5.48-4.38Zm-14.65,3.7a17.9,17.9,0,0,0-5.35,5.3,10.31,10.31,0,0,0-1.78,5.7,11.74,11.74,0,0,0,3.63,7.87,10.19,10.19,0,0,0,7.78,3.5q4.72-.15,8.65-5-3.79-5.4-7-9.73T585.69,769.79Zm3.3-4.24q6.72-4.21,6.57-8.86a7.42,7.42,0,0,0-.47-2.51,5.69,5.69,0,0,0-1.18-1.93,5.15,5.15,0,0,0-1.8-1.21,5.67,5.67,0,0,0-2.28-.38,5,5,0,0,0-3.91,1.77,5.78,5.78,0,0,0-1.35,4.11Q584.67,759.9,589,765.55Z" fill="#42413b"/></svg>