<svg xmlns="http://www.w3.org/2000/svg" width="1000" height="1550" viewBox="0 0 1000 1550"><path d="M296.2 1019s-11.62 57.37-21.45 88.33-13.08 105-15.36 135.21c-.95 12.67 4.66 27 4.66 27l-61 1.5c-16.33-18.73-8.93-129.51-14.45-197.93A619.73 619.73 0 01192.24 945s-18.06-297.33 26.67-324.28 145.47-89.52 145.47-89.52-.25-.24.72 2.61c4.12 12.15 21.13 51.38 86.21 51.38 80.36 0 82.85-55 82.85-55s131.41 49.1 142.29 56.21c38.3 25 52.88 331.94 52.88 331.94s19 68.76 22.89 124.63c5.57 81.26 18.66 177.57 17.84 189.79s-5.3 18.88-5.3 18.88h-58.1s-1.25-8-2.88-34.36c-2.47-39.8-31-134-48.07-177.22" fill="#fff" stroke="#262521" stroke-linecap="round" stroke-linejoin="round" stroke-width="3"/><path d="M711 1220.46s30.63-3.83 52.37 0M200.25 1238s30.64-3.84 52.37 0M352.93 546.4s21.5 56.91 100.81 56.91 94.26-62 94.26-62" fill="none" stroke="#636363" stroke-linecap="round" stroke-linejoin="round"/><path d="M285.64 807.59s5.34 199.1 3.82 238.13c-.83 21.49-23.29 149.62-11 176.79 0 13-5.32 43-5.32 43s72.26 22.14 149.26 21.21c137.52-1.65 260.87-26.63 260.87-26.63s-4.19-30-5-43.64c14.49-25-19.07-171.62-20.87-241.58-1.22-47.58-16.1-167.27-16.1-167.27" fill="#fff" stroke="#262521" stroke-linecap="round" stroke-linejoin="round" stroke-width="3"/><path d="M289.46 1227.57s167 28.52 374.65-6.83" fill="none" stroke="#636363" stroke-linecap="round" stroke-linejoin="round"/><path d="M388.75 713.58q5.14.23 7.69 2.32a6.93 6.93 0 012.66 5.37 7.47 7.47 0 01-1.54 5 7.74 7.74 0 01-4.24 2.82 31.1 31.1 0 01-7 .85l-11.82.36v-1h1.15a5.21 5.21 0 002.66-.57 2.21 2.21 0 00.9-1.55 34.11 34.11 0 00.05-4.82l-.44-14.66a31.16 31.16 0 00-.36-4.72 2 2 0 00-.93-1.44 6.75 6.75 0 00-3-.31h-.58v-1l4.95-.28 5.64-.35q12.36-.37 12.57 6.73a5.84 5.84 0 01-2 4.78 12.71 12.71 0 01-6.36 2.47zm-5.46-.26h.93q4.8-.15 6.51-1.71t1.61-4.94a8 8 0 00-.8-3.63 4.74 4.74 0 00-2.13-1.92 11.2 11.2 0 00-4.73-.56q-.87 0-1.77.12zm0 1.09l.21 6.71c.09 2.86.19 4.67.32 5.44a2.73 2.73 0 00.89 1.73 4.19 4.19 0 002.69.52 7.11 7.11 0 005.28-2c1.15-1.25 1.68-3.09 1.61-5.51s-.8-4.31-2.18-5.44-3.75-1.66-7.13-1.55c-.5.02-1.06.06-1.66.1zM427.94 719.24h1.07l-.36 9.4-24.95.76v-1h.62a4.72 4.72 0 002.88-.69 2.72 2.72 0 00.79-1.55 34.85 34.85 0 000-4.7l-.45-14.78a33 33 0 00-.33-4.52 2.12 2.12 0 00-.91-1.5 6.09 6.09 0 00-2.87-.34v-1l21.53-.65.94 7.49h-1a11.91 11.91 0 00-1.88-4.43 4.44 4.44 0 00-2.51-1.59 21.31 21.31 0 00-4.59-.2l-4.17.12.38 12.65 3.2-.1a8.82 8.82 0 003.07-.47 2 2 0 001.12-1.18 10.32 10.32 0 00.18-3h1.05l.31 10.31h-1a8.71 8.71 0 00-.53-3.35 2.08 2.08 0 00-1.26-1.08 10.47 10.47 0 00-2.76-.17l-3.31.1.22 7.13c.11 3.57.4 5.67.88 6.28s1.73.89 3.74.83l2.24-.07a10.5 10.5 0 003.9-.73 6.91 6.91 0 002.84-2.6 14.69 14.69 0 001.92-5.37zM450.88 716.8l-11.45.35-.72 1.94c-1.07 2.8-1.59 4.63-1.56 5.47a2.41 2.41 0 001 2 3.87 3.87 0 002.39.62v1l-8.95.27v-1a4.86 4.86 0 002.93-1.5 17.31 17.31 0 002.21-4.71q.1-.33 1-2.61l8.12-21.17h.86l10.8 23.62 1.47 3.12a4.24 4.24 0 001.31 1.64 4.55 4.55 0 002.39.69v1l-11.84.36v-1a8.77 8.77 0 002.94-.41 1.25 1.25 0 00.73-1.3 12.81 12.81 0 00-1.11-2.88zm-.41-1l-5.73-12.67-4.91 13zM479.62 696.89l10.06-.3v1a5.46 5.46 0 00-3 1 3.12 3.12 0 00-1.16 1.76 20.16 20.16 0 00-.11 3.71l.31 10a39.28 39.28 0 01-.13 5.72 7.9 7.9 0 01-1.62 3.72 9.71 9.71 0 01-3.94 3 15.85 15.85 0 01-6 1.25 15.44 15.44 0 01-6.85-1.16 8.69 8.69 0 01-4.09-3.41 12.15 12.15 0 01-1.36-5.77l-.07-3.09-.29-9.38a30.76 30.76 0 00-.35-4.64 2 2 0 00-.93-1.41 6.78 6.78 0 00-3-.31h-.69v-1l13.75-.42v1h-.6a7.43 7.43 0 00-2.9.45 2 2 0 00-.88 1.4 29.6 29.6 0 00-.09 4.76l.29 9.49a36.55 36.55 0 00.67 7 6.12 6.12 0 002.68 3.53 9.28 9.28 0 005.66 1.38 12 12 0 005-1.19 8.1 8.1 0 003.28-2.68 7.33 7.33 0 001.25-3.22 37.33 37.33 0 00.08-5.15l-.31-10.26a14.56 14.56 0 00-.4-3.57 2.71 2.71 0 00-1.29-1.58 6.71 6.71 0 00-3-.65zM492.45 703.75h-1l-.06-7.25 29.24-.89.37 7.24h-1a11.66 11.66 0 00-1.53-4.25 3.71 3.71 0 00-2-1.57 14 14 0 00-3.5-.19l-4.84.15.64 21.26a39.84 39.84 0 00.31 4.63 2.34 2.34 0 00.95 1.62 5 5 0 002.77.45h1.47v1l-15 .46v-1h1.56a5.26 5.26 0 002.66-.57 2.29 2.29 0 00.91-1.56 31.86 31.86 0 00.06-4.81l-.65-21.26-4.46.13a17.31 17.31 0 00-3.9.4 3.54 3.54 0 00-1.83 1.73 11.84 11.84 0 00-1.17 4.28zM540.32 712l5.68-10.15a8.34 8.34 0 001.36-3.51 2.35 2.35 0 00-.83-1.68 3.85 3.85 0 00-2.8-.7v-1l9.84-.3v1a5.73 5.73 0 00-3.25 1.63 23.89 23.89 0 00-3.07 4.57l-6.41 11.47.12 4a30.32 30.32 0 00.38 4.89 2.14 2.14 0 001.05 1.46 6.9 6.9 0 003 .34v1l-12.84.39v-1h.45a5.23 5.23 0 002.66-.57 2.25 2.25 0 00.9-1.55 34.16 34.16 0 000-4.82l-.11-3.71-7.89-12.1a29.88 29.88 0 00-3.18-4.36 4 4 0 00-2.73-.69v-1l12.22-.37v1c-2.28.07-3.41.62-3.38 1.66a6.85 6.85 0 001.21 2.45zM472.84 764.09l14.64-.44v1.57a11.82 11.82 0 00-4.77 2.82q-2 1.9-4 7.34a31.5 31.5 0 01-3.19 6.54c2.54 3.43 4.53 5.59 5.94 6.46a8 8 0 004.49 1.27 5.45 5.45 0 004.87-3.2l1.57-.05a8 8 0 01-2.94 4.65 8.89 8.89 0 01-5.35 1.87q-6.67.21-11.93-6.35-5.79 6.88-12.53 7.1a12.55 12.55 0 01-4.81-.75 13.55 13.55 0 01-4.29-2.49 13.21 13.21 0 01-3.1-3.94 11.08 11.08 0 01-1.21-5.12 11.27 11.27 0 012.1-7.29q2.23-3 8.77-7.66-4.17-5.46-4.31-10a8.85 8.85 0 012.55-6.41 9.12 9.12 0 016.79-3 11.22 11.22 0 016.73 1.88 6.43 6.43 0 013.14 5.38q.17 5.26-9.54 10.53 3.21 4 6.19 7.93t5.79 7.66a24.44 24.44 0 002.91-5.74 13.86 13.86 0 001-4.62q-.12-3.93-5.48-4.38zm-14.65 3.7a17.9 17.9 0 00-5.35 5.3 10.31 10.31 0 00-1.78 5.7 11.74 11.74 0 003.63 7.87 10.19 10.19 0 007.78 3.5q4.72-.15 8.65-5-3.8-5.4-7-9.73t-5.93-7.64zm3.3-4.24q6.72-4.21 6.57-8.86a7.42 7.42 0 00-.47-2.51 5.69 5.69 0 00-1.18-1.93 5.15 5.15 0 00-1.8-1.21 5.67 5.67 0 00-2.28-.38 5 5 0 00-3.91 1.77 5.78 5.78 0 00-1.35 4.11q.1 3.36 4.42 9.01z" fill="#42413b"/></svg>