<svg xmlns="http://www.w3.org/2000/svg" width="1250" height="1550" viewBox="0 0 1250 1550"><title>s05e07-01</title><path d="M587.59,1245.33q-3.71,42.5-5.5,85.12t-1.64,85.28q.09,23.88.77,47.74a4.5,4.5,0,0,0,9,0q-1.23-42.63-.52-85.29T593,1293q1.47-23.84,3.55-47.62a4.53,4.53,0,0,0-4.5-4.5,4.61,4.61,0,0,0-4.5,4.5Z" fill="#c0b790"/><path d="M584.32,1449.26a1.93,1.93,0,0,1,.34.11l-1.07-.45a1.76,1.76,0,0,1,.44.26l-.91-.7a2.52,2.52,0,0,1,.4.4l-.7-.91a3.25,3.25,0,0,1,.33.57l-.45-1.07a2.73,2.73,0,0,1,.18.68l-.16-1.19a2.43,2.43,0,0,1,0,.66l.16-1.2a2.39,2.39,0,0,1-.15.54l.46-1.07a2.14,2.14,0,0,1-.25.41l.7-.91a1.82,1.82,0,0,1-.34.34l.91-.7a2.09,2.09,0,0,1-.44.25l1.08-.45a2.91,2.91,0,0,1-.58.15l1.19-.16a2.84,2.84,0,0,1-.65,0l1.2.17a3,3,0,0,1-.72-.2l1.08.45a2.43,2.43,0,0,1-.52-.3l.91.7a2.4,2.4,0,0,1-.4-.38l.71.91a1.69,1.69,0,0,1-.24-.41l.45,1.08a2.35,2.35,0,0,1-.14-.52l.16,1.2a2.79,2.79,0,0,1,0-.5l-.16,1.2a1.92,1.92,0,0,1,.16-.58l-.46,1.07a2.77,2.77,0,0,1,.34-.57l-.71.91a3,3,0,0,1,.47-.47l-.91.7a2.49,2.49,0,0,1,.57-.33l-1.08.45a2.46,2.46,0,0,1,.53-.15l-1.19.16a2.09,2.09,0,0,1,.5,0l-1.2-.16.15,0a3.34,3.34,0,0,0,1.8.08,4,4,0,0,0,2.93-1.69,3.34,3.34,0,0,0,.81-1.53l.16-1.2a4.54,4.54,0,0,0-.61-2.27l-.71-.91a4.41,4.41,0,0,0-2-1.15,12.88,12.88,0,0,0-1.35-.19l-.2,0a9.52,9.52,0,0,0-1.55.19,2.79,2.79,0,0,0-.39.1c-.4.15-.82.33-1.21.51l-.18.09a4,4,0,0,0-.34.23,8.56,8.56,0,0,0-1.2,1,12.78,12.78,0,0,0-.92,1.17,2.77,2.77,0,0,0-.22.37c-.12.22-.21.47-.31.7s-.2.45-.28.67a3.2,3.2,0,0,0-.1.42,6.86,6.86,0,0,0,0,3.09,5.52,5.52,0,0,0,.34.88,5.22,5.22,0,0,0,.39.83,6.34,6.34,0,0,0,.43.56,6.26,6.26,0,0,0,.45.57,2,2,0,0,0,.26.25,7,7,0,0,0,1.47,1,7.23,7.23,0,0,0,1.7.63,12.55,12.55,0,0,0,1.5.19h.35a12.71,12.71,0,0,0,1.49-.21l.33-.1c.4-.15.81-.32,1.19-.5l.15-.08a8.56,8.56,0,0,0,1.16-.87,2,2,0,0,0,.25-.25c.28-.31.54-.67.79-1l.1-.15a8.81,8.81,0,0,0,.59-1.34,2.42,2.42,0,0,0,.1-.36,6.74,6.74,0,0,0,.21-1.85,7.49,7.49,0,0,0-.32-1.93,7.68,7.68,0,0,0-.82-1.74,10.57,10.57,0,0,0-.93-1.17,8.7,8.7,0,0,0-1.18-.92,2.33,2.33,0,0,0-.34-.2,7.34,7.34,0,0,0-1.43-.56,3.45,3.45,0,0,0-1.8-.09,3.37,3.37,0,0,0-1.67.54,3.28,3.28,0,0,0-1.26,1.16,3.34,3.34,0,0,0-.81,1.53l-.16,1.19a4.55,4.55,0,0,0,.61,2.28l.71.91a4.5,4.5,0,0,0,2,1.15Z" fill="#c0b790"/><path d="M598.61,1238.39q.82,42.67.59,85.37-.24,42.43-1.53,84.86-.74,24-1.79,47.9a4.53,4.53,0,0,0,4.5,4.5,4.61,4.61,0,0,0,4.5-4.5q1.89-42.64,2.72-85.33.82-42.43.6-84.88-.12-24-.59-47.92a4.5,4.5,0,0,0-9,0Z" fill="#c0b790"/><path d="M598.78,1426.48a12.46,12.46,0,0,0-1.84,5.65,7.33,7.33,0,0,0,.86,3.58,4.3,4.3,0,0,0,.39.65,7.13,7.13,0,0,0,1.16,1.35,7,7,0,0,0,2.43,1.41,5.86,5.86,0,0,0,1.81.29,6.05,6.05,0,0,0,3.16-.83,6.61,6.61,0,0,0,2.26-2.29,8.82,8.82,0,0,0,.64-1.48,3.77,3.77,0,0,0,.16-.6,8.7,8.7,0,0,0,0-3.41,4.26,4.26,0,0,0-.14-.54,7.41,7.41,0,0,0-5.56-5.13,13.46,13.46,0,0,0-2.75-.43,16.83,16.83,0,0,0-1.74,0,14.4,14.4,0,0,0-2.61.3,6.8,6.8,0,0,0-2.66,1.29,5.57,5.57,0,0,0-2.22,4.49,5.65,5.65,0,0,0,2.66,4.64l.29.15a7.81,7.81,0,0,0,1.31.53,7.05,7.05,0,0,0,1.83.22,7.46,7.46,0,0,0,3.51-.94,4.48,4.48,0,0,0,1.61-6.15,4.52,4.52,0,0,0-2.68-2.07,4.76,4.76,0,0,0-3.47.45c-.08.05-.16.08-.24.12l1.07-.45a3.47,3.47,0,0,1-.72.19l1.2-.17a2.83,2.83,0,0,1-.65,0l1.2.16a2.93,2.93,0,0,1-.51-.13l1.08.46a2,2,0,0,1-.35-.2l.91.7-.16-.16.71.91a.76.76,0,0,1-.12-.19l.45,1.08a1.18,1.18,0,0,1-.08-.31l.16,1.19a1.22,1.22,0,0,1,0-.27l-.16,1.2a2.5,2.5,0,0,1,.07-.26l-.46,1.08a1.59,1.59,0,0,1,.13-.22l-.7.91a1.14,1.14,0,0,1,.24-.25l-.91.7a2.74,2.74,0,0,1,.49-.29l-1.07.46a4.76,4.76,0,0,1,1-.27l-1.2.16a13.33,13.33,0,0,1,3.34,0l-1.2-.16a6.46,6.46,0,0,1,1.62.43l-1.08-.46a4.85,4.85,0,0,1,.91.54l-.91-.7a3.25,3.25,0,0,1,.5.48l-.7-.91a2.66,2.66,0,0,1,.34.59l-.46-1.08a3.25,3.25,0,0,1,.2.74L601,1432a3.7,3.7,0,0,1,0,.94l.17-1.2a3.09,3.09,0,0,1-.2.72l.46-1.08a3.26,3.26,0,0,1-.31.55l.7-.91a1.87,1.87,0,0,1-.31.32l.91-.7a2.4,2.4,0,0,1-.38.23l1.07-.46a2.47,2.47,0,0,1-.36.11l1.19-.16a1.88,1.88,0,0,1-.53,0l1.19.17-.4-.11,1.08.45a2.46,2.46,0,0,1-.45-.25l.91.7a3.12,3.12,0,0,1-.45-.44l.7.91a3.56,3.56,0,0,1-.38-.65l.45,1.07a3.49,3.49,0,0,1-.23-.84l.16,1.2a3.69,3.69,0,0,1,0-.88l-.17,1.2a6.13,6.13,0,0,1,.43-1.46l-.45,1.07c.22-.51.49-1,.76-1.5a4.72,4.72,0,0,0,.45-3.47,4.5,4.5,0,0,0-8.22-1.08Z" fill="#c0b790"/><path d="M803.82,603.23C792.94,596.13,654.29,530,654.29,530s-9,42.68-63.91,47.58c-64.83,5.79-86.64-36-90.75-48.14l-87.92,73.81" fill="#fff" stroke="#262521" stroke-linecap="round" stroke-linejoin="round" stroke-width="3"/><path d="M879.72,1045c-3.84-55.87-22.89-124.63-22.89-124.63s-14.58-307-52.88-331.94c-10.88-7.11-142.29-56.21-142.29-56.21s-2.49,55-82.85,55c-65.08,0-82.09-39.23-86.21-51.38a11.73,11.73,0,0,1-.75-2.59c-1,.64-100.94,62.69-145.44,89.5C301.68,649.69,319.74,947,319.74,947a619.73,619.73,0,0,0-3.6,128.12c5.52,68.42-1.88,179.2,14.45,197.93l61-1.5s-5.61-14.34-4.66-27c2.28-30.22,5.54-104.26,15.36-135.21S423.7,1021,423.7,1021c.49,23.68.3,42.22-1,50.32-3.6,21.92-31.66,102.79-17.78,133.07-3.34,29.29-5.7,66.94-5.7,66.94s101,22.75,178,21.82c137.52-1.66,234.85-32.7,234.85-32.7s-2.28-35.71-5.33-60.53c9.94-22.61-4.2-83.51-17.91-143,17.07,47.16,40.24,126.63,42.46,162.32,1.63,26.39,2.88,34.36,2.88,34.36h58.1s4.49-6.66,5.3-18.88S885.29,1126.26,879.72,1045Z" fill="#262521" stroke="#262521" stroke-linecap="round" stroke-linejoin="round" stroke-width="3"/><path d="M399.19,1271.35s101,22.75,178,21.82c137.52-1.66,234.85-32.7,234.85-32.7" fill="none" stroke="#636363" stroke-linecap="round" stroke-linejoin="round"/><path d="M838.52,1221s30.63-3.83,52.37,0" fill="none" stroke="#636363" stroke-linecap="round" stroke-linejoin="round"/><path d="M327.75,1238.47s30.64-3.84,52.37,0" fill="none" stroke="#636363" stroke-linecap="round" stroke-linejoin="round"/><path d="M413.67,1221s165.59,49.16,378.14-4.33" fill="none" stroke="#636363" stroke-linecap="round" stroke-linejoin="round"/><rect x="584.91" y="662.66" width="7.91" height="13.51" transform="translate(-26.79 24.55) rotate(-2.34)" fill="#fff"/><rect x="579.48" y="675.09" width="7.91" height="13.51" transform="translate(-27.3 24.34) rotate(-2.34)" fill="#fff"/><rect x="591.15" y="674.61" width="7.91" height="13.51" transform="matrix(1, -0.04, 0.04, 1, -27.27, 24.81)" fill="#fff"/><rect x="598.09" y="686.45" width="7.91" height="13.51" transform="translate(-27.74 25.11) rotate(-2.34)" fill="#fff"/><rect x="573.61" y="687.45" width="7.91" height="13.51" transform="translate(-27.81 24.11) rotate(-2.34)" fill="#fff"/><rect x="580.45" y="699.03" width="7.91" height="13.51" transform="translate(-28.27 24.4) rotate(-2.34)" fill="#fff"/><rect x="592.12" y="698.55" width="7.91" height="13.51" transform="translate(-28.24 24.87) rotate(-2.34)" fill="#fff"/><rect x="586.86" y="710.64" width="7.91" height="13.51" transform="translate(-28.74 24.67) rotate(-2.34)" fill="#fff"/><path d="M755.81,675.4c2.89-2.09,16.54-11.57,16.75-15s-2.84-3.55-5.61-2-20.76,10.76-20.76,10.76l-.08,8.63s-9.68,5.59-11.32,4.7,10.73-10.93,10.73-10.93l.1-10.21a66.64,66.64,0,0,1-7.68,5.09c-2.88,1.44-13.17,9.26-13.17,9.26l.05-4.81s7.31-9.1,6.45-12.14c-.39-1.41-6.65,2.87-6.65,2.87l-.2,8.15s-17.86,14.26-21.13,19l0,9.27-18.6,18.82.17,8.9L663.46,749l.21,4.85s-9.09,14.72-10.62,14.45,3.44-11.45,2.43-12.48-10.3,8.06-10.3,8.06a47.64,47.64,0,0,0-.2-5.1c-.24-1.79-7,9.81-7.59,14.3s0,12.61-3.63,16.49a23.32,23.32,0,0,1-6.85,5.31l0-2.73a22.82,22.82,0,0,0-5.92,2.6c-2.45,1.67-2.76,2.78-4.3,2.69s-9.62-11.6-9.62-11.6l.1-4.41h0s-6-6.55-8.72-12.07-5.08-11.62-11-11.65-9,4-8.58,7,2.35,10.67.83,13.24a26.78,26.78,0,0,1-3.23,4.37h0l.35,4.39s-7.43,11.94-9,12.11-1.9-.91-4.44-2.44a22.94,22.94,0,0,0-6.05-2.27l.17,2.73a23.38,23.38,0,0,1-7.13-4.93c-3.78-3.67-3.65-11.81-4.53-16.26s-8.23-15.67-8.37-13.87a48.43,48.43,0,0,0,.08,5.12s-9.77-8.58-10.72-7.49,4.61,12,3.1,12.33-11.39-13.84-11.39-13.84l-.06-4.86-22.68-22.06-.32-8.89L476,704.28l-.49-9.26c-3.53-4.59-22.15-17.84-22.15-17.84l-.65-8.13s-6.48-3.92-6.8-2.49c-.69,3.08,7.11,11.76,7.11,11.76l.32,4.8s-10.7-7.24-13.67-8.51a66.86,66.86,0,0,1-7.94-4.66l.66,10.19s12.9,9.33,11.31,10.31-11.55-4.07-11.55-4.07l-.56-8.6s-18.47-8.26-21.32-9.6-5.89-1.09-5.49,2.35,14.55,12.16,17.55,14.08S427,688,426,688.49s-10.62-4.19-15.23-6.3-5.19-1.19-4.52,2.83,12.51,12.41,15.15,14.12,2.7,2.58,1.58,2.6-14.36-5.65-14.26-3.3,4.64,11.69,7.39,13.27,7,4.83,8.76,5.43,3.22,2.55,2,2.51-10-1.76-13.2-1.31-1.66,3.28.93,7.87,13.3,8.25,15.18,9.23-.39,1.21-2,1.32-6.32-.59-10.14-.51-3.4,1.1.15,6.81a16.6,16.6,0,0,0,9.1,7.1s-2.55.52-3.18,2.62,3,5.69,5.45,8.76,10.49,4,10.49,4v1.06s-6.43,1.36-6.19,4.22,4.73,4.87,4.73,4.87c.12,1.93,3.95,3,3.95,3s.67,6.66.8,8.53,4.62,1.47,4.62,1.47-3.18,1.73-3.11,3.73,3.11,5.32,5.17,6.19,5.24,2,8.76,0,5.48-1.53,5.48-1.53a10.08,10.08,0,0,1-3.71,4.42c-2.6,1.58-3.26,2.21-2.15,2.13l2.05-.13s-5.88,2.79-5.65,6.31a5.73,5.73,0,0,0,4.45,5.06c1,.17,2.15-2.14,3.55.41s5.91,3.14,5.91,3.14l.51,7.79c3.52-.11,3.79,1.4,4.13,3.9a3.12,3.12,0,0,0,3.49,3c1.47,0,1.49-.63,3.71-1.77s1.65,1.89,1.8,3.29,2.45,4.25,4.15,4.14,4.16-3,4.16-3l.51,7.91,1.05-.07.16,1.46c.15,1.46.7,1.72.7,1.72s-.24,4.48,2,4.33l4.39-.29a6.36,6.36,0,0,0,.08,1.29,4.87,4.87,0,0,0,2.76,2.7c.59,0,3.91-4.07,4.26-4.1s2.59,6.36,2.59,6.36.35,7.21.56,8.55a1.89,1.89,0,0,0,2.23,1.68c1.05-.07,2.34-2.86,3.07-3.26s1.26,2.15,1.31,2.85,4.23,4.43,5.34,4.42,2.38-2.34,2.4-1.16.38,6,.38,6l5.23,2.54,2.81-3.67a9.94,9.94,0,0,1,2.65,1.85c1.32,1.26,5.76,3.5,5.63,1.51s-.37-5.56-.37-5.56,2.7-2.88,3-3.14,6.65,2.68,7.29,2.7,2.8-2.18,2.8-2.18l3.17-.15c.47,1.91,3,1.74,3,1.74l-.21-3.16,1.45,1.49,1.76-.93c-1.54,2.86.82,2.83.82,2.83l-2.48,2.94s2.27,3.51,3.34,3,1.07.35,1.07.35l-6,3.06.2,3-19.39,9.32.34,5.21s-5.53,2.56-8.22,3.89-7.5,3.84-7.5,3.84l-.29-5.38a43.21,43.21,0,0,1-5.66,3.1c-3,1.29-7.37,5-7.37,5l-.54-8.24c-1.66,1-4.29,6.3-4.29,6.3l.05,1.62,1.1,0,.18,2.87,1.56-.16s-3.61,7.93-3.29,11.26,5.13,7.36,5.13,7.36l.07,1s-1.47,1.51-1.56,2.46-.1,4.87.57,4.83,1.33,2,1.33,2-1.16-.18-1.13.34,1.5,1.31,1.5,1.31.16,4.81.61,9.28,5,4.12,5,4.12.35,4.64.41,5.52,2.94,3.37,4.38,4.64a1.68,1.68,0,0,0,2.51,0,10.83,10.83,0,0,0,.35,2.91,18.58,18.58,0,0,0,2.15,4l.29,5.27s4.24,3.28,6.39,3.3,4.21-2,5-1.69.13,1.2.2,2.34,6.77,5.89,6.77,5.89l-.31-5.58s4.15.26,7.18.11,6.09-4.53,7.18-7.9,2.47-2.93,2.47-2.93l0,1.09c-1,.38-.4,4.32-.4,4.32s-2,2.49.52,2.32,2-5.41,2-5.41c1.2-.08,1.15-3.16,1.15-3.16s1.13,2.8,3,2.68,6.61-7.26,7-6.94,0,.88.43,6.46,7.86,9,7.86,9l-.31-4.69c8.07,1.83,11.95-2.93,11.95-2.93.05.73,1.45.85,1.64.86h0c.19,0,1.58-.22,1.59-.95,0,0,4.13,4.54,12.09,2.26l0,4.7s7.25-3.84,7.36-9.43-.28-6.14.06-6.47,5.47,6.53,7.35,6.55,2.85-2.85,2.85-2.85.13,3.08,1.33,3.1c0,0-.32,5.27,2.24,5.29s.39-2.34.39-2.34.41-4-.64-4.29l0-1.1s1.37-.51,2.64,2.79S639,980,642,979.92s7.16-.5,7.16-.5V985s6.42-5.11,6.43-6.26-.71-2,.08-2.35,3,1.55,5.1,1.41,6.2-3.65,6.2-3.65v-5.27a18.56,18.56,0,0,0,1.92-4.16,10.53,10.53,0,0,0,.19-2.92,1.67,1.67,0,0,0,2.5-.13c1.37-1.35,4.12-4,4.13-4.87s.1-5.54.1-5.54,4.54.1,4.75-4.39.09-9.29.09-9.29,1.42-.88,1.42-1.4-1.15-.27-1.15-.27.55-2,1.23-2,.45-3.91.3-4.85-1.7-2.37-1.7-2.37v-1s4.59-4.29,4.73-7.63-3.91-11.06-3.91-11.06l1.56.07,0-2.87,1.1,0,0-1.62s-2.93-5.15-4.64-6.06l-.08,8.25s-4.61-3.49-7.63-4.61a42.38,42.38,0,0,1-5.82-2.78v5.38s-4.94-2.24-7.7-3.42-8.43-3.42-8.43-3.42l.06-5.22-19.87-8.24,0-3L624,876.66s-.05-.84,1-.41,3.16-3.21,3.16-3.21l-2.63-2.79s2.36-.11.66-2.88l1.81.84,1.36-1.57,0,3.17s2.58,0,2.95-1.91l3.17,0s2.27,2.08,2.91,2,6.78-3.34,7.13-3.1,3.2,3,3.2,3,0,3.58-.05,5.58,4.28-.49,5.53-1.83a10,10,0,0,1,2.54-2l3,3.5,5.07-2.82s.11-4.81.06-6,1.34,1.07,2.45,1,5.09-4,5.09-4.7.39-3.29,1.15-2.93,2.2,3.08,3.25,3.09a1.89,1.89,0,0,0,2.13-1.8c.13-1.35.09-8.57.09-8.57s1.88-6.49,2.23-6.49,3.89,3.86,4.48,3.86a4.85,4.85,0,0,0,2.61-2.85,6,6,0,0,0,0-1.29l4.4,0c2.29,0,1.81-4.45,1.81-4.45s.53-.28.6-1.75l.07-1.47h1.06l.08-7.91s2.61,2.72,4.31,2.74,3.85-3,3.92-4.36S704,824,706.23,825s2.33,1.61,3.79,1.56a3.12,3.12,0,0,0,3.32-3.19c.2-2.52.39-4,3.91-4.13l.08-7.8s4.47-.84,5.72-3.46,2.53-.39,3.53-.62a5.7,5.7,0,0,0,4.16-5.29c0-3.52-6-6-6-6l2,0c1.11,0,.42-.58-2.27-2a10.09,10.09,0,0,1-3.95-4.21s1.94-.57,5.56,1.23,6.75.48,8.75-.5,4.86-4.47,4.82-6.47-3.31-3.55-3.31-3.55,4.51.16,4.53-1.71.32-8.57.32-8.57,3.77-1.25,3.79-3.19c0,0,4.36-2.24,4.45-5.11s-6.42-3.88-6.42-3.88l-.05-1.06s7.94-1.33,10.26-4.53,5.7-7,5-9.05-3.32-2.43-3.32-2.43a16.59,16.59,0,0,0,8.69-7.6c3.23-5.9,3.59-7-.22-6.81s-8.46,1.09-10.1,1.07-3.93-.13-2.1-1.21,12.31-5.32,14.65-10,3.72-7.64.49-7.91-11.88,1.94-13.11,2,.14-1.93,1.85-2.62,5.79-4.17,8.44-5.9,6.69-11.32,6.65-13.67-12.95,4-14.06,4.09-1.11-.83,1.43-2.68,13.9-10.9,14.35-14.94-.19-4.93-4.67-2.57-13.8,7.55-14.85,7.13S752.91,677.48,755.81,675.4Z" fill="#fff"/><path d="M723.86,707.06c-2.46-8.66-12.32-12.75-20.55-10.09v1l-18.6,18.82.17,8.9L663.46,749l.21,4.85s-3.08,5-6,9.11c-1.82,5.19-2.56,10.87-5.83,15.43-3.6,5-9.94,6.68-14,11.24-3.71,7.42-11.29,12.45-12,21.45-1.61,8.64-10.59,44.38-19,20.68-6.27-18.07-1.8-41.69-16.4-56-10.93,5.3-.39,40.12-16,43.8-5.62.31-11.15-1.82-16.65.45-15.44-1.84-8.67-25.65-19.67-33.14-6.07,14.21-6.45-14.32-11-17.68-3.43-4-8.52-11.31-8.52-11.31l-.06-4.86-22.68-22.06-.32-8.89-8.12-7.35c-38.85-10.52-42.26,2.67-27.56,36,4.29,28.67,1.85,24.33,17.61,49.71,12.33,17.13,25.32,35.67,43.69,46.68,14.56,9.91,40.86,5,50.17,17.79,4.29,7.51,1.18,18.31-5.68,23.24-7.42,5.78-18,1.59-25.84,5.5l.34,5.21c-1.22.45-14.51,7-15.72,7.73l-.17-3.09c-4.49,12.92-6.3,26.7,0,39.37,3.2,6.67,6.2,22.29,16.25,18.46,10.11-2.56,18.88-9.1,28.78-11.77,6.53-7.61,11-18,11.1-27.17,2.48-20.4,13.4-26.1,24.61-6.8,14.74,21.17-1.56,32.4,18.48,28,9.16,2.43,12.45,14.34,21.75,16.19,10.52.2,14.56-10.18,18.09-18.2,3.61-3.81,9.93-3.42,11.09-9.78,3.8-10.46,3.42-23.68-3.82-32.19a43.74,43.74,0,0,1-4.6-2.29v5.38c-1.25-.69-14.88-6.46-16.13-6.84l.06-5.22-16.31-6.77c-5.81-.38-13.12,0-17.06-5.06-2.34-3.38-1.16-7.92.21-11.42,6.52-15.13,25.65-7.89,38.29-10.2,16.92-5.14,16.4-27.59,33.56-34.9C710.57,804.06,730.51,734.62,723.86,707.06Z" fill="#ececec"/><path d="M759.73,646.82c-.45-.77-14.05,6.7-14.05,6.7l-.06,6.53C755.21,658.32,760.18,647.58,759.73,646.82Z" fill="#fff"/><path d="M431.62,668.73l-.42-6.52s-14-6.7-14.4-5.92S422,667.54,431.62,668.73Z" fill="#fff"/><ellipse cx="592.41" cy="766" rx="1" ry="2.71" transform="translate(-30.72 24.77) rotate(-2.34)" fill="#474641"/><path d="M531.54,773.33Z" fill="#e1e1e1"/><path d="M526.82,776.09l.12,0-.12-.06a2.44,2.44,0,0,1,.43.21,1.43,1.43,0,0,0,.51,1.06q.69.57,1.35,1.2c1.35,2.26,3.25,5.35,5.43,3.81,1-2.05-1-4-2.85-5.63-1-1.59-2.17-3.19-4.16-3.7A1.57,1.57,0,0,0,526.82,776.09Z" fill="#e1e1e1"/><path d="M548.86,805.54c6-2.17.51-11.38-3.48-13.41-2.09-1.76-5.1-2.53-7,0-2.12,3.32,1.27,8.23-1,11.28-3.21,1.72-8.07,3.09-10.88.12-3.73-1.83-7.27,1-9.75,3.54-1.51,4.68,7.75,4.51,11.12,2.64C534.89,809.41,541.81,805.91,548.86,805.54Z" fill="#e1e1e1"/><path d="M554.82,816c3.93-2.69,8.63,3.88,12.39-.28,2-2.13,1.62-5.12,2.4-7.75a1.28,1.28,0,0,0,0-.67,1.58,1.58,0,0,0-2.71-1.12c-3,4.91-2.77,3.36-7.44,1.78-3.15-.58-5.49,1.69-8,3.18-6.92,1.51-14.57-.85-20.53,5a1.59,1.59,0,0,0-.21,2.48c5.62,4.58,11.51-3,17.45-1.77a1.71,1.71,0,0,1,0,.45c-.48.73-.94,1.48-1.36,2.23-1.45,1.3-3.47,2.55-3.17,4.73a3.34,3.34,0,0,0,4,3.48C553,826.37,550.85,818.87,554.82,816Z" fill="#e1e1e1"/><path d="M564.07,822c-1.85,1.81-3.22,7.31.52,7.58,2.68-.53,2.63-4.72,2.32-6.82-.1-.09-.2-.16-.29-.23A1.49,1.49,0,0,0,564.07,822Z" fill="#e1e1e1"/><path d="M666.24,807.55a8.85,8.85,0,0,0-5.61-2.44C647,804,659.14,788.5,656.8,780.62q-.21-4.54-.44-9.1a1.43,1.43,0,0,0-.8-1.27,1.46,1.46,0,0,0-2.55-.58c-3.28,4.24-6.45,8.6-9.88,12.72l0,0c-1.45-1.06-3.32,0-4,1.44-1.45,4.59-5.28,9.39-4,14.34,2.3,5.61,8.36,6.62,13.06,9,.69.8.34,1.66,0,2.54-4.17,7.49,6.69,9.84,12.11,10.1,3.3.49,7.54-1.31,6.36-5.26C667.69,812.17,668.4,809.6,666.24,807.55Z" fill="#e1e1e1"/><path d="M649.26,822.1a1.55,1.55,0,0,0-1.57.53,2.76,2.76,0,0,0-3,2c-.58,2.74,3.19,5.11,5.46,3.58S651.44,823.07,649.26,822.1Z" fill="#e1e1e1"/><path d="M588.52,766.84l-.14.38a6.72,6.72,0,0,1,1.94-2.83c1.59-1.1,0-3.74-1.74-2.63C582.61,766.16,586.37,772.24,588.52,766.84Z" fill="#e1e1e1"/><path d="M586.55,823c3.19-.26,2,4.9,2.44,6.94a74.22,74.22,0,0,0,4.31,19.42c.76,4.41,6.09,5.71,7.9,1.23,2.1-4.85-.48-10.68,2-15.42,5.59-5,4.83-9,4.43-16-.27-19.65-.49-37.63-22.52-43.91l-.07,0a1.67,1.67,0,0,0-2.92,1c-.16,2.67,1.63,4.69,3.32,6.53,8.63,9.86-.65,23.22-4.46,33.26C579.08,819.79,582.05,825.35,586.55,823Z" fill="#e1e1e1"/><path d="M581.83,849.24c-.59-1.21-1.09-3.52-2-5.17.47-1.25-1.28-3-2.48-1.9a2.61,2.61,0,0,0-.64.11c-1,.58-.74,1.6-.27,2.54C576.37,849.25,581.07,854.35,581.83,849.24Z" fill="#e1e1e1"/><path d="M614.28,847c.91-1,1.13-3.68.64-5.52-.06-1.4-.51-2.56-1.89-2.86a1.59,1.59,0,0,0-1.51,1.64c0,.18.05.39.08.6a2.31,2.31,0,0,0,.06.92,16.28,16.28,0,0,1-.06,2.65C610.63,846.45,612.46,849.34,614.28,847ZM612,843.9c0-.18,0-.1,0,0Z" fill="#e1e1e1"/><path d="M617,889.71c-2.67,2.79-3.94,7.15-7.74,8.69-3.87,1.26-3.08-2.41-1.67-4.52,12.3-35-19.22,11.26-5.61-26.43a1.38,1.38,0,0,0,0-1.06c.07-1-.54-1.47-2-.76a1.45,1.45,0,0,0-.46.24c-.17.1-.35.2-.54.33a6.65,6.65,0,0,1-10.92,2.43c-4.2-2-3.4,5.63-1.94,7.74,1,2,3,4.52,1.82,6.81-.54,1.08-1.5,1-2.57.93a13.67,13.67,0,0,0-10.45,4.42c-2.15,3.16,4.51,2.78,3.75,6.44-.07,1.48-1.46,3.77-3.15,3.37-1.15-.6-1.33-3.24-1.84-4.32-7.66-12.74-11.26,22.52-15.6,26.5-1.63,4.73-7.34,7.08-8.12,12,1.39,8.33,13,8.7,17.58,2.68,5.18-2.89,4.41,4.31,7.59,3,8.24-6.52,2.31-21.6,10.25-29.48,10.91-10.23,18.21,7.55,20.38,16.32,2.76,6.12,6.18,12.89,11.84,16.7,1.42.44,2.63-.24,3.9-.78,2.73-1.15,5.66.17,8.35.8,4.57,1.07,10.53.09,10.94-5.63s-4.95-9.1-7.43-13.62C628.49,916.92,624.06,888.43,617,889.71Z" fill="#e1e1e1"/><line x1="725.25" y1="692.72" x2="738.35" y2="686.39" fill="none" stroke="#cbcbcb" stroke-linecap="round" stroke-linejoin="round" stroke-width="1.05"/><line x1="724.76" y1="705.35" x2="740.38" y2="698.08" fill="none" stroke="#cbcbcb" stroke-linecap="round" stroke-linejoin="round" stroke-width="1.05"/><line x1="724.25" y1="718.38" x2="739.79" y2="713.39" fill="none" stroke="#cbcbcb" stroke-linecap="round" stroke-linejoin="round" stroke-width="1.05"/><line x1="703.94" y1="734.38" x2="722.02" y2="727.83" fill="none" stroke="#cbcbcb" stroke-linecap="round" stroke-linejoin="round" stroke-width="1.05"/><line x1="704.38" y1="723.21" x2="722.55" y2="714.38" fill="none" stroke="#cbcbcb" stroke-linecap="round" stroke-linejoin="round" stroke-width="1.05"/><line x1="704.81" y1="712.03" x2="723.01" y2="702.38" fill="none" stroke="#cbcbcb" stroke-linecap="round" stroke-linejoin="round" stroke-width="1.05"/><line x1="705.21" y1="701.68" x2="725.43" y2="688.17" fill="none" stroke="#cbcbcb" stroke-linecap="round" stroke-linejoin="round" stroke-width="1.05"/><line x1="723.74" y1="731.53" x2="734.58" y2="729.98" fill="none" stroke="#cbcbcb" stroke-linecap="round" stroke-linejoin="round" stroke-width="1.05"/><line x1="723.24" y1="744.46" x2="727.38" y2="744.62" fill="none" stroke="#cbcbcb" stroke-linecap="round" stroke-linejoin="round" stroke-width="1.05"/><line x1="686.68" y1="725.21" x2="702.98" y2="711.13" fill="none" stroke="#cbcbcb" stroke-linecap="round" stroke-linejoin="round" stroke-width="1.05"/><line x1="683.6" y1="735.04" x2="702.56" y2="721.89" fill="none" stroke="#cbcbcb" stroke-linecap="round" stroke-linejoin="round" stroke-width="1.05"/><line x1="684.33" y1="742.94" x2="702.15" y2="732.45" fill="none" stroke="#cbcbcb" stroke-linecap="round" stroke-linejoin="round" stroke-width="1.05"/><line x1="685.71" y1="750.05" x2="701.72" y2="743.62" fill="none" stroke="#cbcbcb" stroke-linecap="round" stroke-linejoin="round" stroke-width="1.05"/><line x1="703.54" y1="744.73" x2="721.54" y2="740.25" fill="none" stroke="#cbcbcb" stroke-linecap="round" stroke-linejoin="round" stroke-width="1.05"/><line x1="703.38" y1="748.87" x2="712.3" y2="748.59" fill="none" stroke="#cbcbcb" stroke-linecap="round" stroke-linejoin="round" stroke-width="1.05"/><line x1="703.13" y1="755.28" x2="721.01" y2="753.7" fill="none" stroke="#cbcbcb" stroke-linecap="round" stroke-linejoin="round" stroke-width="1.05"/><line x1="699.9" y1="763.66" x2="720.54" y2="765.91" fill="none" stroke="#cbcbcb" stroke-linecap="round" stroke-linejoin="round" stroke-width="1.05"/><line x1="698.05" y1="773.95" x2="703.99" y2="775.63" fill="none" stroke="#cbcbcb" stroke-linecap="round" stroke-linejoin="round" stroke-width="1.05"/><line x1="701.25" y1="768.89" x2="704.25" y2="769.01" fill="none" stroke="#cbcbcb" stroke-linecap="round" stroke-linejoin="round" stroke-width="1.05"/><line x1="695.66" y1="782.14" x2="704.62" y2="786.22" fill="none" stroke="#cbcbcb" stroke-linecap="round" stroke-linejoin="round" stroke-width="1.05"/><line x1="690.68" y1="790.24" x2="697.33" y2="792.36" fill="none" stroke="#cbcbcb" stroke-linecap="round" stroke-linejoin="round" stroke-width="1.05"/><line x1="681.28" y1="794.64" x2="691.64" y2="800.02" fill="none" stroke="#cbcbcb" stroke-linecap="round" stroke-linejoin="round" stroke-width="1.05"/><line x1="630.09" y1="885.51" x2="648.17" y2="892.27" fill="none" stroke="#cbcbcb" stroke-linecap="round" stroke-linejoin="round" stroke-width="1.05"/><line x1="649.28" y1="897.24" x2="665.29" y2="904.27" fill="none" stroke="#cbcbcb" stroke-linecap="round" stroke-linejoin="round" stroke-width="1.05"/><line x1="667.38" y1="899.6" x2="670.14" y2="900.77" fill="none" stroke="#cbcbcb" stroke-linecap="round" stroke-linejoin="round" stroke-width="1.05"/><line x1="640.79" y1="929.57" x2="649.49" y2="937.92" fill="none" stroke="#cbcbcb" stroke-linecap="round" stroke-linejoin="round" stroke-width="1.05"/><line x1="686.46" y1="717.74" x2="696.54" y2="708.05" fill="none" stroke="#cbcbcb" stroke-linecap="round" stroke-linejoin="round" stroke-width="1.05"/><path d="M603.69,871.47s-1.08,2.4-.56,8" fill="none" stroke="#a3a3a4" stroke-linecap="round" stroke-linejoin="round" stroke-width="1.05"/><path d="M605.68,871.39s-1.47,5.37-.45,8.73" fill="none" stroke="#a3a3a4" stroke-linecap="round" stroke-linejoin="round" stroke-width="1.05"/><line x1="607.55" y1="868.36" x2="607.14" y2="880.04" fill="none" stroke="#a3a3a4" stroke-linecap="round" stroke-linejoin="round" stroke-width="1.05"/><path d="M609.56,874.11s-.41,4.52.26,6.41" fill="none" stroke="#a3a3a4" stroke-linecap="round" stroke-linejoin="round" stroke-width="1.05"/><line x1="611.65" y1="871.14" x2="611.72" y2="872.91" fill="none" stroke="#a3a3a4" stroke-linecap="round" stroke-linejoin="round" stroke-width="1.05"/><path d="M613.72,873.4a4.56,4.56,0,0,0,.19,4.51c1.48,2.1,1.21,6,1.21,6" fill="none" stroke="#a3a3a4" stroke-linecap="round" stroke-linejoin="round" stroke-width="1.05"/><path d="M606.1,860s-.56,8.16-6.25,10.62" fill="none" stroke="#a3a3a4" stroke-linecap="round" stroke-linejoin="round" stroke-width="1.05"/><line x1="453.13" y1="700.67" x2="439.56" y2="695.43" fill="none" stroke="#cbcbcb" stroke-linecap="round" stroke-linejoin="round" stroke-width="1.05"/><line x1="454.65" y1="713.22" x2="438.49" y2="707.24" fill="none" stroke="#cbcbcb" stroke-linecap="round" stroke-linejoin="round" stroke-width="1.05"/><line x1="456.22" y1="726.17" x2="440.33" y2="722.46" fill="none" stroke="#cbcbcb" stroke-linecap="round" stroke-linejoin="round" stroke-width="1.05"/><line x1="477.76" y1="740.46" x2="459.21" y2="735.4" fill="none" stroke="#cbcbcb" stroke-linecap="round" stroke-linejoin="round" stroke-width="1.05"/><line x1="476.42" y1="729.36" x2="457.59" y2="722.04" fill="none" stroke="#cbcbcb" stroke-linecap="round" stroke-linejoin="round" stroke-width="1.05"/><line x1="475.08" y1="718.25" x2="456.15" y2="710.11" fill="none" stroke="#cbcbcb" stroke-linecap="round" stroke-linejoin="round" stroke-width="1.05"/><line x1="473.83" y1="707.97" x2="452.58" y2="696.15" fill="none" stroke="#cbcbcb" stroke-linecap="round" stroke-linejoin="round" stroke-width="1.05"/><line x1="457.8" y1="739.22" x2="446.87" y2="738.57" fill="none" stroke="#cbcbcb" stroke-linecap="round" stroke-linejoin="round" stroke-width="1.05"/><line x1="459.35" y1="752.08" x2="455.24" y2="752.57" fill="none" stroke="#cbcbcb" stroke-linecap="round" stroke-linejoin="round" stroke-width="1.05"/><line x1="494.22" y1="729.91" x2="476.83" y2="717.21" fill="none" stroke="#cbcbcb" stroke-linecap="round" stroke-linejoin="round" stroke-width="1.05"/><line x1="498.09" y1="739.46" x2="478.12" y2="727.9" fill="none" stroke="#cbcbcb" stroke-linecap="round" stroke-linejoin="round" stroke-width="1.05"/><line x1="498" y1="747.4" x2="479.39" y2="738.38" fill="none" stroke="#cbcbcb" stroke-linecap="round" stroke-linejoin="round" stroke-width="1.05"/><line x1="497.21" y1="754.59" x2="480.73" y2="749.49" fill="none" stroke="#cbcbcb" stroke-linecap="round" stroke-linejoin="round" stroke-width="1.05"/><line x1="479.01" y1="750.74" x2="460.7" y2="747.74" fill="none" stroke="#cbcbcb" stroke-linecap="round" stroke-linejoin="round" stroke-width="1.05"/><line x1="479.51" y1="754.85" x2="470.59" y2="755.3" fill="none" stroke="#cbcbcb" stroke-linecap="round" stroke-linejoin="round" stroke-width="1.05"/><line x1="480.28" y1="761.23" x2="462.32" y2="761.1" fill="none" stroke="#cbcbcb" stroke-linecap="round" stroke-linejoin="round" stroke-width="1.05"/><line x1="484.18" y1="769.31" x2="463.79" y2="773.23" fill="none" stroke="#cbcbcb" stroke-linecap="round" stroke-linejoin="round" stroke-width="1.05"/><line x1="486.86" y1="779.41" x2="481.07" y2="781.57" fill="none" stroke="#cbcbcb" stroke-linecap="round" stroke-linejoin="round" stroke-width="1.05"/><line x1="483.26" y1="774.63" x2="480.27" y2="774.99" fill="none" stroke="#cbcbcb" stroke-linecap="round" stroke-linejoin="round" stroke-width="1.05"/><line x1="489.91" y1="787.39" x2="481.31" y2="792.18" fill="none" stroke="#cbcbcb" stroke-linecap="round" stroke-linejoin="round" stroke-width="1.05"/><line x1="495.53" y1="795.05" x2="489.07" y2="797.71" fill="none" stroke="#cbcbcb" stroke-linecap="round" stroke-linejoin="round" stroke-width="1.05"/><line x1="505.25" y1="798.67" x2="495.36" y2="804.88" fill="none" stroke="#cbcbcb" stroke-linecap="round" stroke-linejoin="round" stroke-width="1.05"/><line x1="558.5" y1="886.86" x2="541.03" y2="895.07" fill="none" stroke="#cbcbcb" stroke-linecap="round" stroke-linejoin="round" stroke-width="1.05"/><line x1="540.34" y1="900.11" x2="524.95" y2="908.42" fill="none" stroke="#cbcbcb" stroke-linecap="round" stroke-linejoin="round" stroke-width="1.05"/><line x1="522.48" y1="903.94" x2="519.83" y2="905.33" fill="none" stroke="#cbcbcb" stroke-linecap="round" stroke-linejoin="round" stroke-width="1.05"/><line x1="551.43" y1="931.64" x2="543.44" y2="940.67" fill="none" stroke="#cbcbcb" stroke-linecap="round" stroke-linejoin="round" stroke-width="1.05"/><line x1="493.83" y1="722.45" x2="482.99" y2="713.61" fill="none" stroke="#cbcbcb" stroke-linecap="round" stroke-linejoin="round" stroke-width="1.05"/><path d="M583.78,873.33s1.27,2.31,1.21,7.92" fill="none" stroke="#a3a3a4" stroke-linecap="round" stroke-linejoin="round" stroke-width="1.05"/><path d="M581.79,873.41s1.91,5.24,1.16,8.66" fill="none" stroke="#a3a3a4" stroke-linecap="round" stroke-linejoin="round" stroke-width="1.05"/><line x1="579.68" y1="870.54" x2="581.04" y2="882.15" fill="none" stroke="#a3a3a4" stroke-linecap="round" stroke-linejoin="round" stroke-width="1.05"/><path d="M578.15,876.44s.77,4.47.26,6.41" fill="none" stroke="#a3a3a4" stroke-linecap="round" stroke-linejoin="round" stroke-width="1.05"/><line x1="575.82" y1="873.65" x2="575.89" y2="875.42" fill="none" stroke="#a3a3a4" stroke-linecap="round" stroke-linejoin="round" stroke-width="1.05"/><path d="M573.94,876.07a4.58,4.58,0,0,1,.18,4.51c-1.31,2.21-.72,6.07-.72,6.07" fill="none" stroke="#a3a3a4" stroke-linecap="round" stroke-linejoin="round" stroke-width="1.05"/><path d="M580.44,862.09s1.22,8.08,7.1,10.07" fill="none" stroke="#a3a3a4" stroke-linecap="round" stroke-linejoin="round" stroke-width="1.05"/><path d="M586.89,767.38l-.06.15.08-.19a5.25,5.25,0,0,1-.41.78c0,.07.13-.16,0,0l-.06.08-.07.07c-.07,0-.13.06,0,0l-.18.12-.24.11.18-.08c-.43.18-.89.31-1.33.46a.78.78,0,1,0,.42,1.51l1-.32a3.67,3.67,0,0,0,1-.45,2.71,2.71,0,0,0,.76-.82,7.84,7.84,0,0,0,.43-.93.81.81,0,0,0-.08-.61.85.85,0,0,0-.47-.36.83.83,0,0,0-.6.08,1,1,0,0,0-.37.47Z" fill="#a3a3a4"/><path d="M586.29,773a2.72,2.72,0,0,1,.37.13l-.18-.08a3,3,0,0,1,.73.43l-.16-.13a3.52,3.52,0,0,1,.61.61l-.12-.16.1.14a.85.85,0,0,0,.47.36.84.84,0,0,0,.6-.08.79.79,0,0,0,.28-1.08,4.35,4.35,0,0,0-1.06-1.08,4,4,0,0,0-1.23-.58.79.79,0,0,0-.6.08.78.78,0,0,0-.36.47.8.8,0,0,0,.55,1Z" fill="#a3a3a4"/><path d="M590.34,776.38l.12,0-.19-.07a.92.92,0,0,1,.24.13l-.16-.12a1,1,0,0,1,.21.21l-.13-.16a1.09,1.09,0,0,1,.14.23l-.08-.19a1.09,1.09,0,0,1,0,.17.61.61,0,0,0,.15.26.5.5,0,0,0,.22.21.7.7,0,0,0,.29.09.55.55,0,0,0,.31,0l.19-.07a.78.78,0,0,0,.28-.29l.08-.18a.75.75,0,0,0,0-.42c0-.05,0-.1,0-.14s-.09-.21-.14-.31a2.19,2.19,0,0,0-.29-.39l-.11-.1-.27-.2a1.79,1.79,0,0,0-.45-.19.55.55,0,0,0-.31,0,.59.59,0,0,0-.29.1.48.48,0,0,0-.22.2.5.5,0,0,0-.14.27l0,.2a.77.77,0,0,0,.1.4l.13.16a.7.7,0,0,0,.34.2Z" fill="#a3a3a4"/><path d="M591.55,778.62a14.62,14.62,0,0,1-3.38-2.84,2.34,2.34,0,0,0-2.81-1.2l-1.37.23a.8.8,0,0,0-.19,1.44,6,6,0,0,1,1.64,1.41c.49.6.75,1.33,1.41,1.78A.79.79,0,0,0,588,779a1.31,1.31,0,0,1,.38-.69,1.09,1.09,0,0,0,.15-1.29,5.38,5.38,0,0,0-.72-.86l-.85-1a.78.78,0,1,0-1.11,1.11l.76.87a4.16,4.16,0,0,1,.6.72l-.11-.39q.21-.36,0-.15l-.07.08a2.82,2.82,0,0,0-.29.39,2.48,2.48,0,0,0-.28.76l1.15-.47c-.23-.15-.35-.51-.49-.73a7.76,7.76,0,0,0-.74-1,7.47,7.47,0,0,0-1.82-1.49l-.18,1.44,1.16-.2a1.87,1.87,0,0,1,.69-.07,1.46,1.46,0,0,1,.54.51c.22.26.42.52.64.77a18,18,0,0,0,3.32,2.63.78.78,0,1,0,.79-1.35Z" fill="#a3a3a4"/><path d="M584,772.6a2.59,2.59,0,0,0-.48,0,1.86,1.86,0,0,0-.33,0l-.15,0a2.11,2.11,0,0,0-.44.17,2.16,2.16,0,0,0-.4.27.56.56,0,0,0-.16.25.67.67,0,0,0-.07.31.63.63,0,0,0,.07.3.51.51,0,0,0,.16.25.79.79,0,0,0,.56.23l.21,0a.7.7,0,0,0,.34-.2h0l-.16.12a1.35,1.35,0,0,1,.29-.16l-.19.07a1.89,1.89,0,0,1,.34-.09l-.21,0a1.09,1.09,0,0,1,.36,0l-.21,0h0a.55.55,0,0,0,.31,0,.75.75,0,0,0,.3-.09.63.63,0,0,0,.22-.21.6.6,0,0,0,.14-.26.86.86,0,0,0-.08-.61l-.12-.16a.82.82,0,0,0-.35-.2Z" fill="#a3a3a4"/><path d="M584.09,767.18c0,.1-.09.21-.12.31a1.86,1.86,0,0,0,0,.34,1.46,1.46,0,0,0,.06.46,1.51,1.51,0,0,0,.49.77,1.24,1.24,0,0,0,.26.19,1.69,1.69,0,0,0,.31.13,1.06,1.06,0,0,0,.56,0,1,1,0,0,0,.55-.42,1.27,1.27,0,0,0,.17-.66,1.41,1.41,0,0,0-.07-.5,1.69,1.69,0,0,0-.76-1,.79.79,0,0,0-.6-.08.78.78,0,0,0-.47.36.76.76,0,0,0-.08.61.84.84,0,0,0,.36.47l.1.07-.15-.13a1,1,0,0,1,.14.15l-.12-.16a.82.82,0,0,1,.12.2l-.08-.19a1,1,0,0,1,.06.23l0-.21a.81.81,0,0,1,0,.22l0-.21,0,.14.08-.19,0,.06.13-.16,0,0,.16-.12h0l.19-.08h0l.21,0h-.08l.21,0-.12,0,.19.08a.71.71,0,0,1-.15-.08l.16.12a.54.54,0,0,1-.15-.15l.12.16a.81.81,0,0,1-.1-.18l.08.18a.66.66,0,0,1-.06-.2l0,.21a.74.74,0,0,1,0-.21l0,.21a1,1,0,0,1,0-.17l-.08.19h0a.53.53,0,0,0,.09-.3.55.55,0,0,0,0-.31.81.81,0,0,0-.36-.47.86.86,0,0,0-.61-.08l-.19.08a.93.93,0,0,0-.28.28Z" fill="#a3a3a4"/><path d="M583.79,771.73a.79.79,0,0,0,0-1.57.79.79,0,0,0,0,1.57Z" fill="#a3a3a4"/><path d="M580.75,768.64l.07,1.76a.83.83,0,0,0,.23.55.79.79,0,0,0,.56.23.79.79,0,0,0,.78-.78l-.07-1.76a.83.83,0,0,0-.23-.56.78.78,0,0,0-1.11,0,.79.79,0,0,0-.23.56Z" fill="#a3a3a4"/></svg>