<svg xmlns="http://www.w3.org/2000/svg" width="1000" height="1550" viewBox="0 0 1000 1550"><path fill="#ffc702" d="M614.54 368.95L430.05 250.34 279.37 368.6l-.45-195.06h335.62v195.41z"/><path fill="#fff" d="M415.11 554.06l-22.98 20.34 70.82 31.64 50.46-35.41-19.95-23.36-78.35 6.79z"/><path d="M693.66 1234.52c.9 8.07 6.06 21.6 6.57 27.5.29 3.27.51 6.17.66 8.61 1.64 26.39 69.21 24.72 69.21 24.72s.15-3.37.32-8.73c.1-3.26 3.7-7.25 3.78-11.67.11-6.18-3.34-13.18-3.42-20.15-.09-6.72 3.84-6.35 3.42-12.25-.34-4.74-4.23-9.86-5.17-19-.73-7.08 6.17-4.34 5.2-13.51-.35-3.3-4.89-4.8-7.2-12.79-2.84-9.83.92-24.42.44-29.07-.7-6.74-5.89-15.79-6.62-23.07-.48-4.84 3-9.79 2.53-14.82-.76-7.84-4.78-7.71-5.52-15.89-.79-8.61 1.7-25.55 1-34.38-1-11.4-1.72-2.26-2.51-13.69-.05-.85-4.22-22.36-4.29-23.22-.32-4.22.63-11.47.16-15.78-.73-6.63-3-10.35-4-17a853.72 853.72 0 00-18.89-89.27s-14.58-306.95-52.88-331.94c-5.15-3.36-37.33-16.14-69.78-28.66 1.86-1.12 3-2 3.12-2.5 2.22-6.92-4.7-10-13.56-15.54s-8-14.34-11.34-21-13.84 1.66-13.84 1.66-10.79-15.78-17.7-24.45c-3-3.77-20.85-3.87-40-2.78.86 13.66 2.78 26.49 6.86 30 1.88 1.61 7.6 4.25 15.59 7.45v.19l-1.55-.58S478.07 599.06 463 600s-93.73-51.34-97.85-63.49c-.24-.7-.4-1.21-.51-1.59 9.94-5.1 17-9.88 18.44-13.72 2.33-6 3-14.93 3-24.11-14.33.78-25.65 2.8-28.65 6.91-9.89 13.58-12.16 13.58-12.16 13.58s-8.2-8.2-14.7 0-35.63 29.4-30 40.15c1.33 2.54 5.64 5.54 11.44 8.63-31.48 19.46-69.82 43.06-93.06 57.06-44.73 27-26.67 324.28-26.67 324.28a619.79 619.79 0 00-3.6 128.12c.74 9.27 1.44 20.58 2.09 33.22.31 6.07-4.38 12.44-4.09 19 .2 4.63 5.4 9.38 5.6 14.21.34 8.48-2.56 19.44-2.42 30 .09 6.22 3.19 12.28 3.37 17.58.11 3.44-4.46 27.63-4.35 31.07.31 9.37 5.25 9.54 5.53 18.69.48 15.6-2.55 19.22-2.13 32.85.28 9.11 4.66 11.82 4.92 19.43s-3.49 14.29-3.24 19.88a40 40 0 005.32 18c5.48 14.09 73.17-23.31 72.57-33.48-.34-5.78 1.54-16.56-1.91-25-2.62-6.43-5.88-5-5.47-10.44.72-9.53 2.46-3.7 4-17.07.55-4.89-5.7-15.68-5.07-21 .51-4.27 9.88-25.65 10.44-30.18" fill="#a8a8a9" stroke="#262521" stroke-linecap="round" stroke-linejoin="round" stroke-width="3"/><path d="M285.64 1022.57c7.5 35.69-46.71 147.61 28.73 534.92 12.94 27.83 380.08 22.69 386-5.54 6.33-346.83-21.82-434.94-35.51-494.27M364.35 533.93h0s.01-.03 0 0zM278.31 733.31s-2.1 104 2.56 149.11 6.12 129.79 4.77 140.15" fill="#a8a8a9" stroke="#262521" stroke-linecap="round" stroke-linejoin="round" stroke-width="3"/><path d="M633 733.31s13.92 116.86 17.26 143.05 2.93 130.58 14.59 181.32" fill="#a8a8a9" stroke="#262521" stroke-linecap="round" stroke-linejoin="round" stroke-width="3"/><path d="M319.54 569.56c26.83-3.21 131.79 43.64 144.22 43.64S533 573.36 597.3 563.14" fill="none" stroke="#636363" stroke-linecap="round" stroke-linejoin="round" opacity=".95"/><path d="M506.05 578.51c2.34 33.3 2.8 66.69 2.82 100.06s-.37 66.51.26 99.77c.36 18.85 1.06 37.69 2.33 56.5.16 2.49 4.07 2.51 3.9 0-2.26-33.49-2.68-67.07-2.69-100.62 0-33.21.38-66.41-.3-99.61-.38-18.72-1.11-37.43-2.42-56.1-.18-2.49-4.08-2.51-3.9 0zM400.2 580.92q3.54 50.1 4.7 100.34 1.17 50 0 99.94-.66 28-2.07 56c-.13 2.51 3.77 2.5 3.9 0q2.51-50.16 2.67-100.41.13-50-2.06-99.92-1.23-28-3.21-56c-.17-2.49-4.07-2.51-3.9 0z" fill="#d3d5d5"/><path d="M323 877.62s55.78 31.43 74.74 62.86M323.51 1077.28s-5.42 37.32 34.42 83.16M484.68 870s6.5 300.26-100.56 428.22c0 0-17.54 20.07-28.18-13.16M504.1 870.07s68.29 434.14 7.32 541.9M513.41 871.31s128.32 578.42 67.34 686.18M550.32 875.49s17.67 163 80 222.15" fill="none" stroke="#636363" stroke-linecap="round" stroke-linejoin="round" stroke-width="3" opacity=".95"/><path d="M329.45 754.5c14.28 27.33-29.21 124.07-6.41 123.12s85.18 2.86 127.35-5.73 152.67 6.29 172 25.34c20.82 20.5 24.48 51.43 24.48 51.43M465.2 870s-42.9 156-173.75 227.66" fill="none" stroke="#636363" stroke-linecap="round" stroke-linejoin="round" stroke-width="3" opacity=".95"/><path d="M386.4 895.5s25 17.68 37.93 5.54 26.06-29.15 26.06-29.15M380.35 1280.77s-36.28-5.14-66.52 29.09c-17.5 19.82 72.57 252.2 72.57 252.2M538.86 873.63s47.1 355.71 145.46 406.08" fill="none" stroke="#636363" stroke-linecap="round" stroke-linejoin="round" stroke-width="3" opacity=".95"/><path d="M693.36 1076.67s46.14 3.29 54.14-5.82M684.32 1119.62s44.77 5.21 59.15 0M722.6 1139.13s30.91 2.13 35.14-2.79M703.78 1169.73s32.47 16.11 54.2 13.42M730.88 1205.52s15.66.9 27.1-8.27M711.71 1236.84s38.5-1.14 50.11-11.18M703.78 1251.16s20 5.81 35 3.58M737.69 1261.45s15.69-.77 27.07-6.2M711 1268.61s29.38 15.21 53.1 13.87M196.92 1137.13s49.05.41 60.79-11.37M267.26 1143.76s-26.78 4.53-39.95 3.39M198.44 1186.26s31.08-2.24 45.12-14.63M217.57 1192.16s37.85-3.83 52-11.8M263.33 1209.62s-38.23 7.54-46.33 4.78M200.29 1232.9s23.35-.75 38.64-4.55M260.81 1254s-23.71 6.07-31.81 8.38M201.53 1315.64s55.65-19.92 61.8-28.62M203.55 1289.45s32.75 1.35 50.9-2.43M200.29 1275.63s47.51 4.43 60.52-4" fill="none" stroke="#636363" stroke-linecap="round" stroke-linejoin="round"/><path d="M450.6 219.65S384 209 349.89 261.23C339.65 277 334.51 301.51 330 325.35c-16.13 44-10.43 115.92-10.43 115.92s27.62 5.6 34.76 2.22 20.15-5.06 20.15-5.06-17.4-64.42.95-128l10.11 5.07s26.87-19.71 29.69-19.71 18.48 7.32 26.41 5.63 19.76-7.32 26-7.32 20.05 23.72 23.08 20.84c11.83-11.27 20.51 13 20.51 13s17.81 52.71 2.25 102.43c0 0 22.79 14.23 29 10.29s39.45-18.34 39.45-18.34-12.39-26.43-13-44.69S559.59 210 450.6 219.65z" fill="#dacd99" stroke="#262521" stroke-linecap="round" stroke-linejoin="round" stroke-width="3"/><path d="M401.82 229.16c-7.19.62-12.74 6.75-16.8 12.14-6.78 9-11.48 19.55-15.33 30.06a233.32 233.32 0 00-11.11 44 283.54 283.54 0 00-3.27 53.11 268.16 268.16 0 008.11 57.69c.62 2.44 1.29 4.88 2 7.31a1.5 1.5 0 002.89-.8 261.52 261.52 0 01-9.65-56.92 281.66 281.66 0 011.87-53 243 243 0 0110-44.59c3.63-11 8.14-22 14.54-31.72a50.59 50.59 0 017.87-9.57 22 22 0 013.72-2.85 11.92 11.92 0 013.63-1.61c.3-.08.6-.15.91-.21.09 0 .57-.09.19 0l.48-.05c1.9-.16 1.92-3.16 0-3zM348.72 348.56c-.26 6.8-.21 13.61-.07 20.41A312.65 312.65 0 00352 411a124.23 124.23 0 005.39 22.51c.64 1.8 3.54 1 2.89-.8-4.72-13.23-6.45-27.51-7.56-41.43-.95-11.87-1.3-23.8-1.17-35.7 0-2.33.05-4.67.14-7 .07-1.93-2.93-1.92-3 0zM344 367.28c-.18 6-.19 12.07-.13 18.1a327.84 327.84 0 001.8 34.75 84.43 84.43 0 003.11 16.38c.6 1.83 3.49 1.05 2.9-.8a75.35 75.35 0 01-2.81-13.89c-.73-5.79-1.16-11.62-1.46-17.44-.53-10.25-.65-20.51-.53-30.77 0-2.11.06-4.22.12-6.33.06-1.93-2.94-1.93-3 0z" fill="#bbaa75"/><path d="M400.52 251.9a86 86 0 00-6.29 10.69 97.29 97.29 0 00-9.08 25.4 65 65 0 00-1.15 17.66c.15 1.91 3.15 1.93 3 0-1.37-17.11 5-34.36 13.86-48.78.71-1.17 1.44-2.34 2.24-3.46 1.12-1.57-1.48-3.07-2.59-1.51z" fill="#bbaa75"/><path d="M396.68 270.85a50.93 50.93 0 00-2.72 9.54c-1.26 6.33-1.6 13 .14 19.26a1.5 1.5 0 002.9-.79c-1.66-6-1.27-12.33 0-18.33a51.62 51.62 0 012.59-8.88c.72-1.79-2.18-2.57-2.89-.8zM477.66 235.39c3.16 5.14 6 10.47 8.78 15.83a247.7 247.7 0 0115.34 35.88 125.28 125.28 0 015.44 22.66 1.54 1.54 0 001.5 1.5 1.5 1.5 0 001.5-1.5c-1.84-14-6.51-27.54-12-40.52a293.25 293.25 0 00-14.72-29.8c-1.05-1.87-2.12-3.73-3.24-5.56-1-1.64-3.6-.14-2.59 1.51z" fill="#bbaa75"/><path d="M493.54 254.07a65.73 65.73 0 013.74 6.25 172.77 172.77 0 018.72 18.86 262.6 262.6 0 0110.39 32.24 350.72 350.72 0 018.47 46.15 456 456 0 012.87 60q-.06 4.22-.2 8.45c-.06 1.93 2.94 1.93 3 0a470.41 470.41 0 00-2-62.36 367.15 367.15 0 00-8-48 274.05 274.05 0 00-10.44-34.23 189 189 0 00-9.36-21 59.23 59.23 0 00-4.58-7.86.36.36 0 01-.07-.1c-1.1-1.57-3.7-.07-2.59 1.52zM526.53 329.81c2.06 7.9 3.71 15.93 5.22 23.95 3.12 16.54 5.46 33.33 5.93 50.18a127.18 127.18 0 01-1.79 27.7c-.37 1.89 2.53 2.7 2.89.8 3.3-16.92 2.13-34.66.15-51.67a418.34 418.34 0 00-7.49-43.31c-.64-2.82-1.29-5.65-2-8.45a1.5 1.5 0 00-2.89.8zM485.37 270.45l.27.29.29.34c.13.17.41.54.23.29a32 32 0 012.34 3.63 48.31 48.31 0 015.09 14.74 69.94 69.94 0 011.08 13.48 1.5 1.5 0 003 0c.1-11.23-1.86-23.76-8.7-33a16.22 16.22 0 00-1.48-1.83c-1.35-1.39-3.47.73-2.12 2.12z" fill="#bbaa75"/></svg>