<svg xmlns="http://www.w3.org/2000/svg" width="1250" height="1550" viewBox="0 0 1250 1550"><title>s05e14-03</title><path d="M406.93,1266.5s61.78,24.3,203.69,19.79,192.84-36.18,192.84-36.18l20.11,342.24-158.71-1.85L636,1393.89l-25.52,8.67-8.83,196.25-153.94-.22Z" fill="#fff" stroke="#262521" stroke-linecap="round" stroke-linejoin="round" stroke-width="3"/><path d="M879.72,1045c-3.84-55.87-22.89-124.63-22.89-124.63s-14.58-307-52.88-331.94c-10.88-7.11-142.79-55.71-142.79-55.71s-24.29,51.13-81.69,51.13-82.75-35.87-86.87-48c-.7-2.08-.77-2-.75-2.09-1,.64-100.94,62.19-145.44,89C301.68,649.69,319.74,947,319.74,947a619.73,619.73,0,0,0-3.6,128.12c5.52,68.42-1.88,179.2,14.45,197.93l61-1.5s-5.61-14.34-4.66-27c2.28-30.22,5.54-104.26,15.36-135.21S423.7,1021,423.7,1021c.49,23.68.3,42.22-1,50.32-3.6,21.92-31.66,102.79-17.78,133.07-3.34,29.29-5.7,66.94-5.7,66.94s101,22.75,178,21.82c137.52-1.66,234.85-32.7,234.85-32.7s-2.28-35.71-5.33-60.53c9.94-22.61-4.2-83.51-17.91-143,17.07,47.16,40.24,126.63,42.46,162.32,1.63,26.39,2.88,34.36,2.88,34.36h58.1s4.49-6.66,5.3-18.88S885.29,1126.26,879.72,1045Z" fill="#262521" stroke="#262521" stroke-linecap="round" stroke-linejoin="round" stroke-width="3"/><path d="M838.52,1221s30.63-3.83,52.37,0" fill="none" stroke="#636363" stroke-linecap="round" stroke-linejoin="round"/><path d="M327.75,1238.47s30.64-3.84,52.37,0" fill="none" stroke="#636363" stroke-linecap="round" stroke-linejoin="round"/><path d="M413.67,1221s165.59,49.16,378.14-4.33" fill="none" stroke="#636363" stroke-linecap="round" stroke-linejoin="round"/><path d="M735.73,763.14l-5.43-7.57-2.63-.32V752h-2.46v-4.11l-2.3-4.44H721.1l2.46-2.79v-5.26H721.1l-.17-6.09L715,725.49v-2.13l-7.56-1-.33-2.14H701l.17-1.8h2.3l6.24-5.76.17-9.37-1.64-2.13H701v3.12l-3-1-1.48,2.47-5.26,3.94.33,10h-4.76l-1.48,2.8-3.62-.33,5.1-6.09h2.3v-7.56l4.44-5.42V692.29h-2.8l-.16,3.94h-3.78l-3.46,3.46-2.79-1.48v-2h-4.44l-.33-2H671v-2H660.77v2l-4.6-.16-2.47,1.64h-2.63l-4.6,2.47-.16,3.12,1.8-.16V705l6.58,3.45-.49,2.3L647,707.58h-3l-.16-1.81-5.75.16-.17,2-6.24-.5,1.48,3.13h3v3.12H624v3.94l4.93,3,.33,2.47,7.23.16v1.65l11.51,2-13.64,1-.17-1.81H627.9v3.28h-3.79v2.31l-4.43.65-.5,3.13h-3.12l.17,3.61-2.31.33v3.29h-1.64v3.29h2v2.46H612v3.45l-1.48.17v4.11l2.14,1v2.8L607.84,762h-4.27v2.79h-7.73v2.14h-5.59l-2,1.8.82,1.48v8.55h2.14v4.11l1.81,3,4.6,3.62h6.9l2.14,3.94h3.45l-.16-3.62,2.63-.16V787l4.11.33,1.81-4.11,7.89.16v-3.28h-1.81v-3h-1.48V774h-1.48v-2.3l-3.45-1.31-1.81-2v-2.31h1.81l3.29.33,4.93,7.4,1.64-.16v-4.11l2.63-2,2-.16v2.47l3.62,2.79,1.81-1.15V774l2.46,1.48-2.13,1.48,2.13,3.46v3.94l3,.16,1.32,4.11v2.63h-2.3v3h-2.47l.82,6.58h2.47v3.61h1.48v6.25l2.63,1,4.75-4v-3.29l4.12-.32v-7.24l1.48-.16V783.85l-1.64-2.06v-3l1.64-.16,2.14,4.6,1.48.82v7.73l-1.65,1.31v5.76l-2,.65.17,5.59,3.45,4.77v4.44l5.92,1v-2.3l2.3-.16v-2.63l2-.66V800l-1.48-1.81V794.2l-1.64-.33v-3.45l-3.62-1v-10h-2.3l-.17-5.75,1.65-2.14.49,4.11H667v2.63h1.64v-2.14l3-2.79,6.08.16v2h-3v2H670.8v2.13l-1.65.66v7.56l1.32,4.28,1.81-.33-.17,3h1.65l.49,8.71h3.45v2.79l3.12-.33v1.81h3.46v2H693V808l11.18,2.14,5.26-.17v-2.3l3.12-.16V799.3l2.46-3.95V788l-1.47-5.76,3.94,3.62v3.62l3.45,1,2,10L725,800l1.32-11.18,1.48-2V780.4l-1.48-2.14,2.63-1.81-2.3-1.64v-3.95l-2.63-2.14v-2.46l-2.8-.33V764.1h-2.14v-2.44l1.65-.33,8.22,7.56,4.44.33,1.47,6.57,1.81-.16ZM604,776.12h1.49V772h.79l.23-2.06h2.06v6.44H606.5l-1,2.61H604Zm13,.93v2.43h-2.52v2.33l-2.89,1.86h-1.4v1.49h-4.1v1.22h-3L599,784v-2h1.78v-2.7h1.95v3.82H607v-1.3h3.45V779.1h1.21V770h1V773h1.58v4Zm8.58-14.36h-4.2v-2.33L617,758.31v-4.95h1.49v-3.63h2.24v-3.27H622v12.13l3.64,2.61Zm83.3-19.47h1.72l1.5-1.94v-1.5h-1.5V738h2.14v1.93h.93v1.71L711.57,744h-2.65Zm-5.37-11.55v-2.86h2.24v2.36h3v1.49h-7v3.42l-2.12,2.43v4.1l2.86,3h4.36l3.73.87v2h-9.58l-1.37-.87v-2h-4l-1.75-3.1V741h1.5V735.4h1.74v-3.73Zm-8.83,34.07v-2.12l3.08.78,1.89,1.9V769h-2.23v-3.23Zm0-50.61,2.49-4.72h3l3.92-4.85h1.62v1.74l-4.36,5v2.86l-2.73,1.74h-2.61v3h-1.37ZM687,723.59h3.36v-1.25h3v1.25h4.11l-.87,3-5.1-1.11H687Zm-3,3V732l-2.86.75v3.29h-1.62v-3.67l-1.49-.87v-3.73h1.49v1.37h2.24v-2.62h-1.37v-2.11l1.14-1.53ZM662.5,711.65h4.62l1.24-1.37v-8.83l1.74-.12v8.08l1.62,1.37,3.48-2.24v-7.83h1.87l2.48,2.49v5.34h-1.61v3.11h-4.36v2.24H662.5Zm-2.84,14.91,2.84-2,2.39,1v4.67h-1.5v-2.56h-3.73Zm-30.5,22.8v-2.9h3.55v2.9Zm6.25,6.34v-1.93h-2.7v-3.2l4.47,0v2.55h2.24l2.52-2.52.84,1.3H644v-2h1.21V744.6h-1.39v-2.52h-2.29l-3.12-2.61h6.34l4.38,4.57v4.1l1.21,1.22v2.14h-1.77l-1.12,2.27h-3v1.93Zm15.67,35.65h-1.37v5.22h-1.37v6.59l-2.73-5.84v-1.49h1.24v-4.11h1.49v-5.34l-2.73-6.22v-2H644v-3.68h4.23l2.86,3.68Zm0-67.76h-9.56l-3.12-1.37v-2.49H649v-4.85l-2.24-2.48,2-.75,3.49,2.86h4.09l2.74,4.1v1.25h-2l-2.24-3.24h-2.6v3.49h2.6v1.36h-2.6Zm12.3,71.73V792h1.51v3.28l1.27.12,3.27,5.67v3.4l-1.13.13v-1.48l-1.18-1.92H662.5l.69,4.16,1.7,1.26h-2.45l-1-3.5v-7.84Zm3.74-49.73h-3.86v-5h-2.61v-3.48h-1.12V734.4h-2.11v-2.11h-5.21v-5.72c4.25-.24,8.82,4.73,8.82,4.73v1.86h2.48V737h1.74v4.11h1.87Zm-4.84-24.12V720l3.22-.25v-1.37h14v-1.49h1.62v1.87L671,721.47Zm15.78,41.9h-1.24v3.73H674.7l-3,1.25-1.49-1.25,3.29-1.74v-2.67h1.8v-3.17L673,754.58h-1.24v-1.77h2.42l1.68,4.1h2.24Zm-3.85-12.18v-9.08h-1.75v-3.23h-2.23v-3.36h2.23v-4h1.25v-3.35h-1.37l.12-3.74h2.74v11.63h2.86v3.39l1.49,1.52v6.92l2.61,2.78v3.08H684v1.93h2v1.58h2.86v4.23h1.49v4.1H688.5v1.49h-2.86v-2.23h-2.23v-3.61h-2V755.7l-3.36-4.51Zm29.12,43.44h-4.05v1.58l-4,1.18-2.47-2v-3.06l-2.4-2.27h-1.84v-1.27h-2.47v-2.48h-1.48v-3.65h-2.46v-2.17H680.3V778h1.52v-2.47l3.26-3.16H689v-1h4.27v.89h5.8v-.89h3.22v1.83l2.11,1.83v6.21h1.28l.59,10.66Zm19.63-19v3.75h-1.08v-2.57l-2-1.87H718v2.17l2.17,2.17v4.24H719v-2.07l-3.55-3v-2H712.7v-3.75L710,771.25V769h-3.75V764.1h3.16l1.87,1.33v-2.57h2.76v2.57l4.54,3.54Zm9.28-9.29h-2.17v-1.47H727v-2.37h-2.27l-2.37-4.73,1.88-.89.19,2.47,2,.2,1.87,2-.2,1.48H731l.09,2.17h1.19Z" fill="#fff"/><polygon points="689.12 776.08 692.28 776.08 692.28 775.09 700.27 775.09 700.27 776.67 702.84 778.94 702.84 783.48 704.02 783.48 704.02 787.52 701.55 792.56 697.71 792.56 697.71 791.08 693.98 791.08 691.69 788.82 691.59 786.34 687.74 786.34 687.74 782.59 685.77 782.59 685.77 779.24 688.83 779.24 689.12 776.08" fill="#fff"/><polygon points="603.52 768.97 600.88 768.97 600 771.35 597.1 771.35 597.1 773.17 594.45 773.77 594.45 777.17 596.22 777.17 596.22 774.49 598.23 774.49 598.23 777.17 600 777.17 599.87 773.17 601.63 770.74 603.52 770.74 603.52 768.97" fill="#a7a7a7"/><polygon points="633.26 759.78 633.26 764.1 635.28 764.1 635.28 766.3 637.42 766.3 637.42 768.97 639.44 768.97 639.44 770.62 643.22 770.62 643.22 772.13 645.62 772.13 645.62 769.96 643.99 769.93 643.99 767.61 640.63 767.61 639.44 765.61 639.44 763.87 643.25 763.62 645.17 762.69 645.17 760.58 648.59 760.58 648.59 759.15 652.51 755.23 651.83 753.77 647.53 758.46 641.52 758.21 641.52 760.58 633.26 759.78" fill="#a7a7a7"/><polygon points="663.66 752.24 663.66 760.02 664.89 764.1 666.77 764.46 666.77 752.24 663.66 752.24" fill="#a7a7a7"/><polygon points="663.66 764.85 660.78 764.85 659.66 768.04 658.21 768.97 656.81 769.44 652.51 769.96 652.76 772.13 659.3 772.13 664.36 766.3 663.66 764.85" fill="#a7a7a7"/><polygon points="644.51 733.01 644.51 735.43 646.77 735.43 646.77 737.68 649.26 737.68 654.01 745.59 656.42 745.59 656.42 744 654.71 744 654.71 739.79 652.51 739.79 652.51 736.08 648.72 736.08 648.72 733.33 644.51 733.01" fill="#a7a7a7"/><polygon points="638.05 729.5 635.02 729.5 634.32 731.54 628.17 731.54 624.2 735.43 621.94 739.47 621.94 742.43 623.65 742.43 623.65 739.3 627.31 739.3 627.31 735.04 630 733.01 635.56 732.7 635.56 731.3 637.43 731.3 638.05 729.5" fill="#a7a7a7"/><polygon points="627 745 624.82 745 624.82 746.46 627.86 746.46 627.86 745 630.94 745 632.12 743.82 636.11 743.82 636.11 748.97 637.04 748.97 637.04 750.53 638.05 750.53 638.05 748.45 640.86 745.59 638.05 744.77 638.05 741.89 627.55 742.43 627 745" fill="#a7a7a7"/><polygon points="634.24 718.23 634.24 720.48 638.05 720.48 638.05 718.77 634.24 718.23" fill="#a7a7a7"/><polygon points="651.83 698.3 651.83 699.78 650.82 701.73 650.82 703.59 653.15 704.37 653.15 706.01 655.72 706.01 655.72 698.92 655.25 697.76 653.27 697.76 651.83 698.3" fill="#a7a7a7"/><polygon points="688.8 699.39 687.01 699.39 686 701.03 681.04 701.03 681.04 703.98 682.34 704.84 682.73 711.14 681.17 713.17 681.17 715.66 679.55 715.66 679.55 716.87 682.73 716.87 682.73 713.89 684.18 712 684.6 705.15 685.53 702.97 687.01 700.71 688.8 700.71 688.8 699.39" fill="#a7a7a7"/><polygon points="698.14 722.92 700.25 722.92 700.25 723.59 701.49 723.59 701.49 725.23 697.46 725.23 698.14 722.92" fill="#a7a7a7"/><rect x="690.05" y="730.6" width="2.57" height="1.56" fill="#a7a7a7"/><polygon points="690.05 733.01 687.48 733.01 687.48 743.45 685.07 743.45 685.07 745.24 693.98 755.2 700.87 759.25 702.3 759.25 702.3 756.84 700.25 756.84 689.07 745.66 689.07 743.37 690.98 743.37 690.98 740.18 690.05 740.18 690.05 733.01" fill="#a7a7a7"/><polygon points="705.79 736.08 704.02 736.08 704.02 738 702.3 738 702.3 739.24 704.05 739.24 704.05 741.89 707.33 744 708.92 744 708.92 742.36 706.29 742.36 705.61 740.04 706.29 738.63 705.79 736.08" fill="#a7a7a7"/><polygon points="712.23 727.1 712.23 733.33 714.63 733.33 715.5 736.08 715.5 741 717.52 741 717.52 735.74 714.88 730.6 713.71 727.1 712.23 727.1" fill="#a7a7a7"/><polygon points="714.88 752.08 711.32 752.08 711.32 753.77 708.65 753.77 708.65 752.8 707.48 752.8 707.48 753.77 706 753.77 706 752.8 702.3 752.8 702.3 753.77 709.27 757.77 711.68 758.62 713.94 760.58 715.26 760.58 714.88 752.08" fill="#a7a7a7"/><polygon points="671.75 781.89 671.75 789.44 673.08 790.85 677.28 791.31 676.97 796.76 678.37 796.76 678.37 799.35 679.14 800.12 679.14 802.52 683.2 802.52 683.2 805.4 687.55 805.4 687.55 801.98 681.72 801.98 681.8 800.11 680.3 800.11 680.3 796.29 679.3 796.29 679.23 788.82 674.14 788.82 673.39 787.19 672.77 781.89 671.75 781.89" fill="#a7a7a7"/><polygon points="689.35 793.65 692.69 797.39 692.69 801.04 696.74 801.04 696.74 799.35 698.53 799.35 698.53 797.39 701.41 797.39 701.41 799.35 700.4 799.35 700.4 801.9 696.66 804.39 693.68 804.39 693.68 803.14 690.37 803.14 690.37 797.93 688.72 795.83 689.35 793.65" fill="#a7a7a7"/><polygon points="707.64 777.07 707.64 779.95 709.35 780.49 709.35 787.34 711.29 787.34 711.29 792.04 712.7 792.04 712.7 785.86 710.67 785.86 710.67 780.18 707.64 777.07" fill="#a7a7a7"/><polygon points="707.64 802.75 707.64 805.4 701.95 805.4 701.95 807.66 703.2 808.2 703.12 806.66 710.17 806.66 710.17 801.51 707.64 802.75" fill="#a7a7a7"/><polygon points="691.52 779.72 691.52 781.43 695.73 781.43 695.73 783.48 698.76 783.48 698.76 786.1 695.65 786.1 695.65 788.82 698.14 790.14 698.76 788.28 700.71 788.28 700.71 781.89 699.15 781.89 699.15 778.08 696.66 777.07 694.25 777.07 694.25 778.94 691.52 779.72" fill="#a7a7a7"/></svg>