<svg xmlns="http://www.w3.org/2000/svg" width="1250" height="1550" viewBox="0 0 1250 1550"><title>s05e05-02</title><path d="M408.93,1266.5s59.78,24.3,201.69,19.79,192.84-36.18,192.84-36.18l28.37,338.5-176.71,1.77-27.64-185.24-17,1.24,4.81,188.48-177.46,4Z" fill="#fff" stroke="#262521" stroke-linecap="round" stroke-linejoin="round" stroke-width="3"/><path d="M801.08,598c-3.22-7.32-6.66-12.46-10.33-14.86-10.25-6.69-140-54.94-140-54.94s4.44,49.6-71.25,49.6c-61.32,0-73.33-35.69-77.21-47.14a10.27,10.27,0,0,1-.7-2.44c-.8.5-66.12,41-113.13,69.78l187.19,91.63Z" fill="#fff" stroke="#262521" stroke-linecap="round" stroke-linejoin="round" stroke-width="2.83"/><path d="M407.79,1126.22l-9,153.37s-51.1,19.93-78.09,0c-5.11-3.77-19-629.9,25.72-656.85S478,539.12,478,539.12s17.06-32.68,35-34.1l-2.67,18.87c-20.79,16.88-19.55,69.39,68.91,145.8l-.11-.06C613.47,609.92,686,566.12,646,526.68L641.16,505c26.6,6.51,40,34.1,40,34.1s111.92,42.2,122.8,49.31c38.3,25,67.28,401.22,75.77,456.57,12.54,81.82,26.58,219.39,26.58,219.39s-51.64,20.95-84.18,8.68L798.4,1116" fill="#fff" stroke="#262521" stroke-linecap="round" stroke-linejoin="round" stroke-width="3"/><path d="M497,530.13l0,0S497,530.1,497,530.13Z" fill="#262521"/><path d="M406.64,809.59s3.5,211.79,2,250.82c-.83,21.49-2.23,268.72-2.23,268.72S498,1349.62,575,1348.7c137.52-1.66,245.89-30.38,245.89-30.38S792.59,1084,790.8,1014c-1.23-47.59-21.94-204.45-21.94-204.45" fill="#fff" stroke="#262521" stroke-linecap="round" stroke-linejoin="round" stroke-width="3"/><path d="M583.09,663c-7.52,12.17-13.82,24.52-17.66,36.95-21.9,70.88,21,648.63,21,648.63" fill="#fff" stroke="#262521" stroke-linecap="round" stroke-linejoin="round" stroke-width="3"/><path d="M684.37,546.8s21.25,37,15.85,41.73-45.64,12.59-45.64,12.59S678,628,676.83,633.51s-102.15,46.85-108.69,79" fill="none" stroke="#262521" stroke-linecap="round" stroke-linejoin="round" stroke-width="2"/><path d="M476.58,546.8s-29.35,42.14-23.67,47.81,44.53,16.1,44.53,16.1-25.42,25-24.7,30.57,80,15.34,95.2,47.08" fill="none" stroke="#262521" stroke-linecap="round" stroke-linejoin="round" stroke-width="2"/><rect x="633.94" y="759.28" width="103.9" height="118.9" transform="matrix(1, -0.07, 0.07, 1, -53.96, 48.41)" opacity="0.5" stroke="#636363" stroke-linecap="round" stroke-linejoin="round" fill="none"/><line x1="631.68" y1="787.33" x2="735.35" y2="780.28" fill="none" stroke="#262521" stroke-linecap="round" stroke-linejoin="round" stroke-width="2"/><circle cx="579.54" cy="720.83" r="8.84" fill="none" stroke="#636363" stroke-linecap="round" stroke-linejoin="round" opacity="0.5"/><circle cx="577.54" cy="898.51" r="8.84" fill="none" stroke="#636363" stroke-linecap="round" stroke-linejoin="round" opacity="0.5"/><circle cx="584.38" cy="1062.39" r="8.84" fill="none" stroke="#636363" stroke-linecap="round" stroke-linejoin="round" opacity="0.5"/><circle cx="594.77" cy="1218.62" r="8.84" fill="none" stroke="#636363" stroke-linecap="round" stroke-linejoin="round" opacity="0.5"/><path d="M415.61,1315.48s193.28,42.23,397.1-12.28" fill="none" stroke="#636363" stroke-linecap="round" stroke-linejoin="round" opacity="0.5"/><path d="M816.59,1234.94s60.82,5.88,85.41-10.83" fill="none" stroke="#262521" stroke-linecap="round" stroke-linejoin="round" stroke-width="2"/><path d="M318,1239.32s36.66,16.22,83.07,1.23" fill="none" stroke="#262521" stroke-linecap="round" stroke-linejoin="round" stroke-width="2"/></svg>