<svg xmlns="http://www.w3.org/2000/svg" width="1250" height="1550" viewBox="0 0 1250 1550"><title>s05e10-01</title><path d="M406.93,1266.5s57.14,5.35,199.05.84,197.48-17.23,197.48-17.23l22.8,267.08c-209.14,38.46-397.55,3.91-397.55,3.91Z" fill="#262521" stroke="#262521" stroke-linecap="round" stroke-linejoin="round" stroke-width="3"/><path d="M879.72,1045c-3.84-55.87-22.89-124.63-22.89-124.63s-14.58-307-52.88-331.94c-10.88-7.11-148.63-58.32-148.63-58.32s4.72,52.64-75.63,52.64c-65.09,0-77.84-37.88-82-50a12.42,12.42,0,0,1-.75-2.59c-1,.66-106.06,65.8-150.57,92.61C301.68,649.69,319.74,947,319.74,947a619.73,619.73,0,0,0-3.6,128.12c5.52,68.42-1.88,179.2,14.45,197.93l61-1.5s-5.61-14.34-4.66-27c2.28-30.22,5.54-104.26,15.36-135.21,4.83-15.2,10.09-36.77,14.19-54.79-3.35,34.76-22,135.5-10.62,160.6,0,13-2.36,59.86-2.36,59.86s88.48,20.67,165.47,19.75c137.53-1.66,242.89-30.38,242.89-30.38s-3.23-43.82-4-57.41c8.88-15.34-1-63.45-10.45-125.17,15.4,46.66,32,107.53,33.91,137.5,1.63,26.39,2.88,34.36,2.88,34.36h58.1s4.49-6.66,5.3-18.88S885.29,1126.26,879.72,1045Z" fill="#989898"/><path d="M477.37,542.28c-1.72,0-119.6,73.62-131,80.46-44.73,27-26.82,321.69-26.82,321.69s-9.07,72.15-3.54,140.57c3.31,41-1.69,168.67,14.54,188.07l61-1.5c-6.69-21.46-4.06-50.63-2.38-61,1.06-15.63,2.4-33.3,4.2-50a.8.8,0,0,1-.2-1.21l.39-.52c2.14-19.56,4.94-37.68,8.69-49.5,4.83-15.2,10.09-36.77,14.19-54.79-.76,7.9,2.56-232.4-3.3-245-3.1-13.76-4.12-55.36-7.14-68.7C377.87,616.48,473.86,579,490.09,564.7,484.35,558.55,479.72,543.56,477.37,542.28Z" fill="#262521"/><path d="M834.16,1253.67c3-.05,58.1,0,58.1,0,2.53-6,7.52-16.25,3.65-42.15-7.53-50.45-14.2-137-16.52-170.87-3.83-55.87-22.56-120.28-22.56-120.28s-14.58-307-52.88-331.94c-4.19-2.74-100.32-39.67-127-50-.84,5.85-5.89,16.3-5.89,16.3,75.89,41.3,122.35,118.72,94.37,177.9-3.75,7.92-1.48,31.93-2.45,26.11,10.44,58.47,21.36,249.2,34.43,323.12C797.37,1081.81,831.48,1190.39,834.16,1253.67Z" fill="#262521"/><path d="M510.81,614.16c-.72-1.94-4.24-3.28-9.24-9.59s-19.18-8.81-23.51-8.87-19.92-5.32-30.93-4.25-43.4,9.42-63.74,21.67-32.81,32.21-32.81,32.21l49.24,93.9s2.13-11.92,2.15-18.1-5.68-34.8,7.88-37.08,21.79,4.3,28.21,10.75,13.86,5.66,22.07,1.75,7.3-8.77,7.3-8.77c11.86-7.2,9.55-15.78,8.41-16.17-1.16,1.43-4.41,2.24-4.41,2.24v0c-.08-1.09-1.08-1.59-1.93-.46-1.07,1.42-13.9,10.66-13.9,10.66h0c-11.85,1.74-14-8.36-13.13-20.74s13.84-18.07,21.16-19.21,10,1.14,10,1.14c4.18,1.58,18.89,1,24.27.18s14.14-10.07,16.59-14.06S511.54,616.11,510.81,614.16Z" fill="#262521"/><path d="M467.29,689.5S460,684,452,691.32c0,0-7-2.7-10.48.39,0,0-12.8-14.21-29.66-8.11,0,0,13.63-2.2,25.1,10.12s26.83.62,26.83.62" fill="#fff" stroke="#fff" stroke-linejoin="round" stroke-width="0.69"/><path d="M475.84,671.61c-1.16,1.43-4.41,2.24-4.41,2.24v.06c-.05-1.11-1.07-1.65-1.93-.5-1.07,1.42-9.1,7.88-9.1,7.88-8.86-7-5.45-15.83-5.45-15.83h-.07a14.88,14.88,0,0,1,1.44-.91c10.68-5.77,17.32-19.28,17.32-19.28l0-.1,1.3.45,7.38.64s-5.11-8-10.52-8.27-17.76-.4-22.32,11.73l-3.6,4.47s-7.75,4.15-7.23,15.42,8.59,24.33,17,14.47c0,0,7.59-.55,10.14.87s1.7,2.84,1.7,2.84C479.29,680.58,477,672,475.84,671.61Z" fill="#fff" stroke="#fff" stroke-linejoin="round" stroke-width="0.69"/><path d="M486.76,646.24s-1.92,6.66-4.9,8.25-.83,3.15,3.35,1.52a19.62,19.62,0,0,1,.36,2.67c.05,1.12,15.39-5.87,14.05-13.74" fill="#fff" stroke="#fff" stroke-linejoin="round" stroke-width="0.69"/><path d="M357.05,642.2c1.63-2.43,3.26-4.84,5.09-7.13,1.62-2,3.31-4,5-6,1.28-1.53,11-8.8,14.43-10.77,2.46-1.41,4.89-2.88,7.27-4.42a38.09,38.09,0,0,1,6.5-3.78c5-2,10.17-3.6,15.17-5.66,2.64-1.09,5.26-2.27,8-3.24,1.38-.5,9.19-2.84,10.71-3.12,4-.74,7.94-1.69,12-2.17,4.29-.51,8.58-.66,12.88-.92,2.78-.17,5.81-.34,8.38.87,3.5,1.07,6.79,3.06,10.48,3.34,4,.31,8.17-.52,12.06.45a31.13,31.13,0,0,1,9.79,4.93,25.06,25.06,0,0,1,3.95,3.46c.42-.56.84-1.12,1.25-1.69.08-.11.13-.2.27-.39l.38-.55c.24-.36.48-.73.71-1.1-5.2-6.1-19-8.53-23.26-8.59s-19.92-5.32-30.93-4.25-43.4,9.42-63.74,21.67-32.81,32.21-32.81,32.21-3,9.52-3.63,14.59c-5.17,21.58-16.13,18.93-16.13,18.93l-3.44,8.74c16.68,1.16,22.81-21.35,22.81-21.35s2,3.48,2.43,3.06-1.34-5.46-1.34-5.46C352.07,662.28,352.71,645.11,357.05,642.2Z" fill="#fff" stroke="#fff" stroke-linejoin="round" stroke-width="0.69"/><path d="M455.59,684.07l-10.66-3.93C446.94,683.24,450.29,684.85,455.59,684.07Z" fill="#fff" opacity="0.49"/><path d="M455.59,684.07s12.83-9.24,13.9-10.66,2.41-.27,1.78,1.4" fill="none" stroke="#262521" stroke-linecap="round" stroke-linejoin="round" stroke-width="1.03"/><path d="M464.86,686.23s5.75-8.27,6.41-11.42" fill="none" stroke="#262521" stroke-linecap="round" stroke-linejoin="round" stroke-width="0.69"/><path d="M455.59,684.07c-11.85,1.74-14-8.36-13.13-20.74s13.84-18.07,21.16-19.21,10,1.14,10,1.14c4.18,1.58,18.89,1,24.27.18s14.14-10.07,16.59-14.06-2.95-15.27-3.68-17.22-4.24-3.28-9.24-9.59-19.18-8.81-23.51-8.87-19.92-5.32-30.93-4.25-43.4,9.42-63.74,21.67-32.81,32.21-32.81,32.21-4.18,12.89-4.88,17.56C343,680.14,328,678.64,328,678.64" fill="none" stroke="#262521" stroke-linecap="round" stroke-linejoin="round" stroke-width="1.03"/><path d="M471.43,673.86s3.25-.82,4.41-2.25c1.14.39,3.45,9-8.41,16.17,0,0,.91,4.86-7.3,8.77s-15.65,4.71-22.07-1.75-14.65-13-28.21-10.75S402,715,402,721.13s-4.42,26.81-4.42,26.81" fill="none" stroke="#262521" stroke-linecap="round" stroke-linejoin="round" stroke-width="1.03"/><path d="M454.94,665.46s-3.92,8,4.94,15" fill="none" stroke="#262521" stroke-linecap="round" stroke-linejoin="round" stroke-width="1.03"/><path d="M473.63,645.26s-6.64,13.51-17.32,19.28-1.4,17.65,1.12,17.73" fill="none" stroke="#262521" stroke-linecap="round" stroke-linejoin="round" stroke-width="1.03"/><path d="M444.51,656.26s5.1,2.38,5.65,3.23c0,0-1.23,2.59-7.58,2.68" fill="none" stroke="#262521" stroke-linecap="round" stroke-linejoin="round" stroke-width="0.69"/><path d="M442.39,664.63l6.74-.25s1.81,1.84-6.59,4.41" fill="none" stroke="#262521" stroke-linecap="round" stroke-linejoin="round" stroke-width="0.69"/><path d="M443.36,676.66s4.82-.77,5.36-.2-.52,6.73-.52,6.73" fill="none" stroke="#262521" stroke-linecap="round" stroke-linejoin="round" stroke-width="0.69"/><path d="M486.76,646.24s-1.92,6.66-4.9,8.25-.83,3.15,3.35,1.52a19.62,19.62,0,0,1,.36,2.67c.05,1.12,15.39-5.87,14.05-13.74" fill="none" stroke="#262521" stroke-linecap="round" stroke-linejoin="round" stroke-width="1.03"/><path d="M493,646s-.05,5.52-7.77,10.06" fill="none" stroke="#262521" stroke-linecap="round" stroke-linejoin="round" stroke-width="0.69"/><path d="M501.54,610.3s1.14,2.14,2.81,2.08a3.3,3.3,0,0,1,2.48.81S506.81,610.74,501.54,610.3Z" fill="#fff" stroke="#fff" stroke-linejoin="round" stroke-width="0.69"/><path d="M499.63,613.46s1.53,3,3.58,2.83S507,618,507,618,508.5,613.13,499.63,613.46Z" fill="#fff" stroke="#fff" stroke-linejoin="round" stroke-width="0.69"/><path d="M496.42,613.58s1.76,3.8,5.42,4.56,3.71,5.65,3.71,5.65-1.67-3.41-5-3.67S496.42,613.58,496.42,613.58Z" fill="#fff" stroke="#fff" stroke-linejoin="round" stroke-width="0.69"/><path d="M510.54,626.44s-.82-1.39-2.31.08-2.54,4.35.11,3.09,2.36.94,1.37,2,.12,3.21,2.05-.08S514.68,626.93,510.54,626.44Z" fill="#fff" stroke="#fff" stroke-linejoin="round" stroke-width="0.69"/><path d="M476.79,612.77l-4.91,2.89,3.24,1.52S475.19,614,476.79,612.77Z" fill="#fff" stroke="#fff" stroke-linejoin="round" stroke-width="0.69"/><path d="M488.81,616.67c3.7-7.09-1.2-8.84-4.31-9.21s-7.54,2.22-12.76,4.63-14.43,1.23-14.43,1.23,5.33,3.17,9.41,3.76,8.43,6.08,12.52,5.83,6.78-3.34,8.65-4.25,3,1.5,3.23.4S488.81,616.67,488.81,616.67Zm-9.72,3.64c-4.39.52-11.53-5-11.53-5s9.69-3.86,13.38-4.61,8-.27,7.94,3.18S483.49,619.8,479.09,620.31Z" fill="#fff" stroke="#fff" stroke-linejoin="round" stroke-width="0.69"/><path d="M480.6,612.16s-4.11,4.13-2,6,7.9-2.22,8.27-3.28-.4-2.27-1.86-1.24-4.14,5.32-5.46,3.92S482.05,612.92,480.6,612.16Z" fill="#fff" stroke="#fff" stroke-linejoin="round" stroke-width="0.69"/><path d="M414.62,612.26a56.33,56.33,0,0,1,16.88-3.35c9.09-.28,12.67,2.43,11.7,3.58s-6.58-1.91-12.76-1.53S414.62,612.26,414.62,612.26Z" fill="#fff" stroke="#fff" stroke-linejoin="round" stroke-width="0.69"/><path d="M384.64,619.24c.81-.81,2.6,4.18,13.81,3.66s18.49-3.46,23.37-3.72,17.41-1.58,19.17-.72a1.61,1.61,0,0,1-.8,3.11c-2.16-.06-4.55-1.22-5.64.65s-.62,5.11-1,5.46-4.77,2.1-4.64,5.45,1.9,3.77,1.1,5.24-2.72.24-3.1-2.38a7.32,7.32,0,0,1,1.49-6.34c1.63-2.37,3.23-3.39,3.17-4.95s-1.89-3.07-4.19-3-9.84,0-15.58,1.74a68.87,68.87,0,0,1-15.41,2.3c-3.35.18-8.92.29-12.3-2.85,0,0-3.54,6.47,4.08,7.57a34.39,34.39,0,0,1,16.81,6.81c4,3.11,7.91,5.08,10.45,5l.25,6.42s-4.21.5-11.3-7-11.11-7-13.7-7.12S374.13,629.67,384.64,619.24Z" fill="#fff" stroke="#fff" stroke-linejoin="round" stroke-width="0.69"/><path d="M365.89,806.91c.88-.91,1.63,3.81,1.33,6.37s3.7,5,3.6,5.85l-.44,3.84a4.9,4.9,0,0,0,4.25-4.3,11.17,11.17,0,0,1,6.3-8.6c3.27-1.44,3.63-4.5,4.22-7.41s3.13-1.32,2.94.34-.38,3.32,1,5-.34,4.13-2.38,4.92-10.2,4.25-9.25,9.53,3.66.82,6.18-.84,7.32-.58,7.55.75-1.94,2.23-4.47,2.85-6.14,3.82-6.52,6-3.24,2.34-4.54,2.32-4.44,2.6-4.44,2.6a9.31,9.31,0,0,1,.76-5.48c1.35-2.7,1.71-4.73-.11-3.51s-.55,2.53-3.26,1.31c0,0,.25,2.36-1.12,3s-8.22,1.65-6.88,21.48c0,0-4.82-5.34-.41-23.35,0,0,1.2-4.78,2.63-4.88s3.38,3.24,4.28,0,.5-5.51-.81-8.77S364.42,808.42,365.89,806.91Z" fill="#fff" stroke="#fff" stroke-linejoin="round" stroke-width="0.69"/><path d="M416.48,914.75c-3.57,3.77-12,12.55-15.65,15.87,3.55-2.33,11.52-7.24,15.68-10.61Z" fill="#fff" stroke="#fff" stroke-linejoin="round" stroke-width="0.69"/><path d="M416.57,923.91c-3.65,3.38-10.82,10-11.62,10.49-1.07.71-13.47,9.51-13.26,10.52s13.88-7.31,18.15-9.95c2.29-1.42,4.92-3.37,6.87-4.87C416.64,928,416.6,926,416.57,923.91Z" fill="#fff" stroke="#fff" stroke-linejoin="round" stroke-width="0.69"/><path d="M404.19,878c2.61.3.26,3.49-.64,5.54s.75,9.32-.52,10.33-22.87,19.32-31.78,29.35-25.4,32.72-25.53,33.86.65,5.85-.65,5.7-.36-5.49-1.35-6.93,17.35-33.15,32.47-45.43,22.83-24.77,24.35-29.38S404.19,878,404.19,878Z" fill="#fff" stroke="#fff" stroke-linejoin="round" stroke-width="0.69"/><polyline points="322.28 1000.9 318.02 1013.1 314.73 1011.45" fill="none" stroke="#fff" stroke-linecap="round" stroke-linejoin="round" stroke-width="2.74"/><path d="M324.91,978c-1.87.14-7.31-.27-6.85,2s1.14,3.24,5.92,1.26S329.51,977.68,324.91,978Z" fill="#fff" stroke="#fff" stroke-linejoin="round" stroke-width="0.69"/><path d="M363.2,868.37c1.69,11.2-.44,17.3-2.92,21.93s-23,22.21-35.66,28.52a23.26,23.26,0,0,0-6.78,5c.07,1.63.14,3.27.2,4.9,5.5-6.32,10.59-7.6,14.58-9.64,5.37-2.75,21.75-16.78,29.59-25.33S363.2,868.37,363.2,868.37Z" fill="#fff" stroke="#fff" stroke-linejoin="round" stroke-width="0.69"/><path d="M647.54,619.18c.35-2,3.55-4,7.29-11.15s17.2-12.24,21.45-13.1S694.85,586,705.87,585s44.4,1.17,66.67,9.41,38.23,25.53,38.23,25.53L787.93,740l-8-18.62s-4.31-11.32-5.48-17.39-.91-35.24-14.65-35-20.61,8.29-25.71,15.83-12.56,8.14-21.36,5.83-8.81-7.26-8.81-7.26c-13-4.87-12.32-13.73-11.28-14.32,1.41,1.19,4.75,1.38,4.75,1.38h0c-.13-1.08.77-1.76,1.81-.81,1.32,1.2,15.64,7.88,15.64,7.88h0c12-.49,12.16-10.81,9-22.82s-17-15.17-24.37-14.93-9.62,3-9.62,3c-3.8,2.33-18.36,4.53-23.81,4.69s-15.76-7.25-18.92-10.71S647.19,621.22,647.54,619.18Z" fill="#262521"/><path d="M704.34,685.08s6.13-6.74,15.36-1.06c0,0,6.4-4,10.37-1.57,0,0,9.93-16.34,27.63-13.5,0,0-13.81.39-22.77,14.62s-26.25,5.61-26.25,5.61" fill="#fff" stroke="#fff" stroke-linejoin="round" stroke-width="0.69"/><path d="M692.6,669.1c1.41,1.19,4.75,1.38,4.75,1.38l0,0c-.16-1.1.74-1.81,1.8-.85,1.32,1.2,10.41,6.05,10.41,6.05,7.39-8.57,2.41-16.57,2.41-16.57l.06,0a12.68,12.68,0,0,0-1.58-.62c-11.58-3.69-20.62-15.72-20.62-15.72l0-.11-1.2.69-7.12,2s3.52-8.8,8.79-10.09,17.37-3.7,24.11,7.37l4.37,3.72s8.39,2.64,10,13.8-3.9,25.51-14,17.38c0,0-7.56.88-9.8,2.75s-1.14,3.11-1.14,3.11C690.89,678.55,691.56,669.69,692.6,669.1Z" fill="#fff" stroke="#fff" stroke-linejoin="round" stroke-width="0.69"/><path d="M677.15,646.2s3.13,6.19,6.35,7.2,1.4,2.94-3,2.12a19.52,19.52,0,0,0,.14,2.69c.17,1.11-16.21-2.9-16.36-10.89" fill="#fff" stroke="#fff" stroke-linejoin="round" stroke-width="0.69"/><path d="M827.39,647.55c-3.19-2.11-6.84-6.21-10.33-14-1.57-4.86-6.29-13.66-6.29-13.66s-16-17.29-38.23-25.53S716.88,584,705.87,585s-25.34,9.08-29.59,9.94S659,600.74,655,607.71c.29.32.59.63.9.94l.47.48.34.32c.51.49,1,1,1.55,1.44a23.47,23.47,0,0,1,3.24-4.14,30.88,30.88,0,0,1,8.7-6.67c3.63-1.68,7.92-1.65,11.76-2.69,3.56-1,6.43-3.53,9.67-5.23,2.3-1.67,5.31-2.07,8.07-2.42,4.28-.55,8.52-1.2,12.82-1.5,4.09-.28,8.12-.08,12.2-.1,1.54,0,9.65.84,11.11,1.07,2.83.45,5.62,1.12,8.42,1.7,5.29,1.09,10.66,1.72,16,2.73a38.43,38.43,0,0,1,7.1,2.51q3.93,1.61,8,3c3.76,1.29,14.64,6.63,16.18,7.89,2,1.65,4,3.29,6,5,2.22,1.9,4.27,4,6.32,6.06,4.81,2,8.64,18.8,9.71,20.18,0,0-.79,5.27-.31,5.61s1.82-3.45,1.82-3.45,5.49,11.25,14.79,15.59C829.11,653.17,828.19,650.37,827.39,647.55Z" fill="#fff" stroke="#fff" stroke-linejoin="round" stroke-width="0.69"/><path d="M714.82,677.56l9.74-5.85C723.16,675.14,720.18,677.34,714.82,677.56Z" fill="#fff" opacity="0.49"/><path d="M714.82,677.56s-14.32-6.68-15.64-7.88-2.42.19-1.49,1.72" fill="none" stroke="#262521" stroke-linecap="round" stroke-linejoin="round" stroke-width="1.03"/><path d="M706.12,681.42s-7.2-7.06-8.43-10" fill="none" stroke="#262521" stroke-linecap="round" stroke-linejoin="round" stroke-width="0.69"/><path d="M714.82,677.56c12-.49,12.16-10.81,9-22.82s-17-15.17-24.37-14.93-9.62,3-9.62,3c-3.8,2.33-18.36,4.53-23.81,4.69s-15.76-7.25-18.92-10.71.06-15.56.41-17.6,3.55-4,7.29-11.15,17.2-12.24,21.45-13.1S694.85,586,705.87,585s44.4,1.17,66.67,9.41,38.23,25.53,38.23,25.53,6.51,11.89,8.07,16.35c5.58,11.56,9,10.4,9,10.4" fill="none" stroke="#262521" stroke-linecap="round" stroke-linejoin="round" stroke-width="1.03"/><path d="M697.35,670.48s-3.34-.19-4.75-1.38c-1,.59-1.71,9.45,11.28,14.32,0,0,0,4.94,8.81,7.26s16.25,1.7,21.36-5.83,12-15.54,25.71-15.83,13.47,28.9,14.65,35,13.52,36,13.52,36" fill="none" stroke="#262521" stroke-linecap="round" stroke-linejoin="round" stroke-width="1.03"/><path d="M712,659.16s5.33,7.13-2.06,15.7" fill="none" stroke="#262521" stroke-linecap="round" stroke-linejoin="round" stroke-width="1.03"/><path d="M689.86,642.8s9,12,20.62,15.72,4.66,17.07,2.2,17.62" fill="none" stroke="#262521" stroke-linecap="round" stroke-linejoin="round" stroke-width="1.03"/><path d="M720.53,648.18s-4.57,3.29-5,4.22c0,0,1.7,2.32,7.95,1.23" fill="none" stroke="#262521" stroke-linecap="round" stroke-linejoin="round" stroke-width="0.69"/><path d="M724.17,656l-6.67,1s-1.44,2.14,7.29,3.1" fill="none" stroke="#262521" stroke-linecap="round" stroke-linejoin="round" stroke-width="0.69"/><path d="M725.45,668s-4.87.14-5.29.8,1.76,6.51,1.76,6.51" fill="none" stroke="#262521" stroke-linecap="round" stroke-linejoin="round" stroke-width="0.69"/><path d="M677.15,646.2s3.13,6.19,6.35,7.2,1.4,2.94-3,2.12a19.52,19.52,0,0,0,.14,2.69c.17,1.11-16.21-2.9-16.36-10.89" fill="none" stroke="#262521" stroke-linecap="round" stroke-linejoin="round" stroke-width="1.03"/><path d="M671,647.08s1.08,5.42,9.51,8.44" fill="none" stroke="#262521" stroke-linecap="round" stroke-linejoin="round" stroke-width="0.69"/><path d="M655.93,613.65s-.72,2.32-2.37,2.57a3.28,3.28,0,0,0-2.29,1.26S650.83,615.07,655.93,613.65Z" fill="#fff" stroke="#fff" stroke-linejoin="round" stroke-width="0.69"/><path d="M658.4,616.4s-.94,3.26-3,3.44-3.42,2.34-3.42,2.34S649.62,617.73,658.4,616.4Z" fill="#fff" stroke="#fff" stroke-linejoin="round" stroke-width="0.69"/><path d="M661.58,615.92s-1,4.06-4.48,5.49-2.6,6.25-2.6,6.25,1-3.67,4.26-4.55S661.58,615.92,661.58,615.92Z" fill="#fff" stroke="#fff" stroke-linejoin="round" stroke-width="0.69"/><path d="M650.09,631.19s.55-1.52,2.29-.35,3.31,3.79.46,3-2.13,1.37-1,2.23.48,3.18-2,.31S646.12,632.44,650.09,631.19Z" fill="#fff" stroke="#fff" stroke-linejoin="round" stroke-width="0.69"/><path d="M680.71,611.47l5.36,1.92-2.9,2.1S682.5,612.37,680.71,611.47Z" fill="#fff" stroke="#fff" stroke-linejoin="round" stroke-width="0.69"/><path d="M667.8,620.31c.45,1,1.1-1.53,3.1-1s5.22,3.09,9.29,2.57,7.32-6.73,11.22-8.07,8.54-5.45,8.54-5.45-8.83,2.89-14.41,1.49-10.42-3.11-13.4-2.17-7.47,3.57-2.52,9.84C669.62,617.53,667.35,619.28,667.8,620.31Zm1.23-5.52c-.74-3.37,3.45-4.66,7.21-4.61s14,2,14,2-6,6.77-10.4,7.08S669.78,618.16,669,614.79Z" fill="#fff" stroke="#fff" stroke-linejoin="round" stroke-width="0.69"/><path d="M676.85,611.57s4.8,3.3,3,5.54-8.17-.71-8.73-1.68,0-2.3,1.59-1.57,5.07,4.46,6.1,2.83S675.57,612.59,676.85,611.57Z" fill="#fff" stroke="#fff" stroke-linejoin="round" stroke-width="0.69"/><path d="M741.69,599.38a56.14,56.14,0,0,0-17.2-.15c-9,1.43-12,4.76-10.83,5.7s6.11-3.1,12.25-3.88S741.69,599.38,741.69,599.38Z" fill="#fff" stroke="#fff" stroke-linejoin="round" stroke-width="0.69"/><path d="M772.45,600.65c-1-.64-1.78,4.59-12.89,6.17s-18.81,0-23.65.7-17.4,1.69-19,2.86-.75,3.38,1.36,2.92,4.25-2,5.66-.42,1.57,4.9,2,5.17,5.07,1.17,5.57,4.49-1.16,4.06-.1,5.35,2.71-.26,2.6-2.92a7.34,7.34,0,0,0-2.64-6c-2.05-2-3.81-2.73-4-4.26s1.28-3.37,3.56-3.72,9.67-1.8,15.63-1.19a69.38,69.38,0,0,0,15.57-.61c3.33-.46,8.81-1.38,11.55-5.09,0,0,4.69,5.69-2.59,8.2a34.13,34.13,0,0,0-15.25,9.82c-3.35,3.8-6.83,6.46-9.34,6.89l1,6.35s4.23-.3,9.8-8.95,9.62-8.92,12.14-9.54S784.71,608.93,772.45,600.65Z" fill="#fff" stroke="#fff" stroke-linejoin="round" stroke-width="0.69"/><path d="M812.72,794.64c-1-.73-.89,4.05-.12,6.5s-2.72,5.57-2.45,6.43l1.15,3.68a4.9,4.9,0,0,1-5-3.43,11.18,11.18,0,0,0-7.79-7.28c-3.48-.8-4.4-3.74-5.53-6.49s-3.32-.72-2.82.88,1,3.19,0,5.13,1.11,4,3.25,4.39,10.82,2.27,10.88,7.64-3.45,1.48-6.24.33-7.29.79-7.28,2.13,2.33,1.84,4.93,2,6.74,2.61,7.51,4.66,3.63,1.7,4.9,1.44,4.85,1.72,4.85,1.72a9.29,9.29,0,0,0-1.77-5.24c-1.83-2.4-2.56-4.32-.54-3.47s1,2.38,3.44.68c0,0,.2,2.36,1.66,2.72s8.38.08,10.76,19.82c0,0,3.74-6.16-4-23,0,0-2.07-4.47-3.49-4.3s-2.72,3.82-4.21.78-1.52-5.32-.85-8.77S814.45,795.85,812.72,794.64Z" fill="#fff" stroke="#fff" stroke-linejoin="round" stroke-width="0.69"/><path d="M781.14,908.59s20.66,15,22.22,15.06-21-7.88-22.4-10.7S781.14,908.59,781.14,908.59Z" fill="#fff" stroke="#fff" stroke-linejoin="round" stroke-width="0.69"/><path d="M782.3,917.51s14.62,9.18,15.8,9.67,15,6.82,15,7.86-15-4.6-19.68-6.4a112.29,112.29,0,0,1-10.9-5.19Z" fill="#fff" stroke="#fff" stroke-linejoin="round" stroke-width="0.69"/><path d="M788.35,871.66c-2.51.78.39,3.48,1.66,5.32s1,9.31,2.44,10.06,26.06,14.71,36.69,22.9,31,27.42,31.39,28.51.45,5.87,1.7,5.48-.67-5.46,0-7S839,907.54,821.9,898.29s-27-20.08-29.4-24.32S788.35,871.66,788.35,871.66Z" fill="#fff" stroke="#fff" stroke-linejoin="round" stroke-width="0.69"/><path d="M855.69,889.24c-10.27-5.17-19.9-11.21-21.92-13.72-3.3-4.09-6.53-9.69-7-21,0,0-3.6,17.83,5.7,24.76a213.49,213.49,0,0,0,23.18,14.41Z" fill="#fff" stroke="#fff" stroke-linejoin="round" stroke-width="0.69"/><path d="M497,530.13l0,0S497,530.1,497,530.13Z" fill="#262521"/><path d="M416.18,1055.71c-4.14,18.21-9,38.16-13.93,53.64-9.82,31-13.08,105-15.36,135.21-.95,12.67,4.66,27,4.66,27l-61,1.5c-16.33-18.73-8.93-129.51-14.45-197.93A619.73,619.73,0,0,1,319.74,947s-18.06-297.33,26.67-324.28S497,530.11,497,530.11s-.25-.24.72,2.61c4.12,12.15,16.87,50,82,50,80.35,0,75.64-52.64,75.64-52.64S793.07,581.32,804,588.43c38.3,25,52.88,331.94,52.88,331.94s19,68.76,22.89,124.63c5.57,81.26,18.66,177.57,17.84,189.79s-5.3,18.88-5.3,18.88h-58.1s-1.25-8-2.88-34.36c-1.86-29.85-17-86.23-32.37-132.82" fill="none" stroke="#262521" stroke-linecap="round" stroke-linejoin="round" stroke-width="3"/><path d="M413.14,809.59s5.34,199.1,3.82,238.13c-.83,21.49-23.46,140.26-11.15,167.44.05,13-2.35,59.86-2.35,59.86s88.48,20.67,165.47,19.75c137.53-1.66,242.89-30.38,242.89-30.38s-3.23-43.82-4-57.41c14.49-25-21.06-160.16-22.86-230.12-1.22-47.58-22-218.17-22-218.17" fill="none" stroke="#262521" stroke-linecap="round" stroke-linejoin="round" stroke-width="3"/><path d="M403.46,1275s88.48,20.67,165.47,19.75c137.53-1.66,242.89-30.38,242.89-30.38" fill="none" stroke="#636363" stroke-linecap="round" stroke-linejoin="round"/><path d="M838.52,1221s30.63-3.83,52.37,0" fill="none" stroke="#636363" stroke-linecap="round" stroke-linejoin="round"/><path d="M327.75,1238.47s30.64-3.84,52.37,0" fill="none" stroke="#636363" stroke-linecap="round" stroke-linejoin="round"/><path d="M413.67,1221s168.07,32.86,378.14-4.33" fill="none" stroke="#636363" stroke-linecap="round" stroke-linejoin="round"/><path d="M480.43,548.4s21.5,56.91,100.81,56.91,94.26-62,94.26-62" fill="none" stroke="#636363" stroke-linecap="round" stroke-linejoin="round"/><polyline points="558.75 603.7 588.51 641.79 610.61 602.39" fill="none" stroke="#636363" stroke-linecap="round" stroke-linejoin="round"/></svg>