<svg xmlns="http://www.w3.org/2000/svg" width="1000" height="1550" viewBox="0 0 1000 1550"><path d="M369.69 527.67s0-.03 0 0z" fill="#262521"/><path d="M752.22 1043c-3.84-55.87-22.89-124.63-22.89-124.63s-14.58-307-52.88-331.94c-2.79-1.82-17.13-14.61-32.13-20.62-8.35-3.34-24.83-2.94-34.81-6.81-42.07-16.31-89.29-35.29-89.29-35.29s11.3 10.12-7.49 39.25c-10.78 9.78-29.19 17.79-60.54 17.79-55.62 0-73.79-39.92-77.89-51.59-.33-.92 5.85-3.74 8.48-8.58 3-5.54 1.57-13.64 1.57-13.64s-11.84 19.55-13.12 20.35C355.88 536.78 260 596 218.91 620.74 174.18 647.69 192.24 945 192.24 945a619.73 619.73 0 00-3.6 128.12c5.52 68.42 7.51 230.27 14 240.15 11.76 18 69.64.26 72.14-9.88s-12.81-48.18-11.86-60.85c2.28-30.22 2-104.26 11.86-135.21 4.92-15.48 9.79-35.43 13.93-53.64h.07c-36.13 137.94 9.32 461.17 9.32 461.17s150.24-7.52 227.23-8.45c137.53-1.66 183.66-79 183.66-79s-25.72-174.7-26.5-188.3c18.43-44.24-2.17-100.25-11.09-154.65h0c15.34 46.59 27 103 28.87 132.82 1.63 26.39-7.51 68.21-4.21 75.31s50.86 20.46 73.83 3.07c2.05-12.62-2.15-50.68-1.34-62.9s-10.76-108.5-16.33-189.76z" fill="#262521" stroke="#262521" stroke-linecap="round" stroke-linejoin="round" stroke-width="3"/><path d="M298.07 1514.89s150.24-7.52 227.23-8.45c137.53-1.66 183.66-79 183.66-79" fill="none" stroke="#636363" stroke-linecap="round" stroke-linejoin="round"/><path d="M508.32 1101.05c-102.91 35.36-324.47-435-321.46-465.67 37.92-46.57 148.59-94.87 148.59-94.87s32.85-35.65 48.9-33.57c0 0-19.32 12-13.21 34.58" fill="#262521" stroke="#262521" stroke-linecap="round" stroke-linejoin="round" stroke-width="3"/><path d="M530.13 1197.25c-102.28 123-275.47-388.58-330.49-519.63M499.21 1216.66s75.18 52.86 176.89 23.91M291.36 1276.54s150.66-27.37 160.18-81.78M301.51 1459.68S554.19 1344 554.19 1240.83M483.13 1214.68s-50 62.09-141.64 61.86M529.82 1232.46S549 1294 356.11 1412M332.66 545.7s-30.28 48-36.8 89.5M349.15 537.12s-25.62 118.41-9.49 209.65M364.22 567.26s29.72 260 100.72 417.21M355.18 552.66s59.4 111.26 204.57 113.56M388.36 568.81s88.1 66.57 197.88 41.78M520.22 576.05l90.83-13.96M620.16 712s-68.15-3.82-90-9.18M620.84 721.75s-50.4.52-71.7 3.85M627.37 731.58s-66.47.24-94.65 16.69M628.53 768.12s-17.48 290.29-74.34 341.33M257.66 824.63s7.33 45.66 10.59 73.3M656.52 581.43s-32.21 34.69-32.21 72.65M574.64 574.71l45.7-4M637.89 816.73s-4.2 276.64-36.86 356.91M277.39 1024.78s-2.71 83.77 12.07 142.18" fill="none" stroke="#636363" stroke-linecap="round" stroke-linejoin="round"/></svg>