<svg xmlns="http://www.w3.org/2000/svg" width="1250" height="1550" viewBox="0 0 1250 1550"><title>s05e14-01</title><path d="M492.15,533.24l0,0S492.16,533.2,492.15,533.24Z" fill="#262521"/><path d="M765.69,851.61c58.38,11.42,118.49-39.89,118.49-39.89S816,594.08,804.25,588.43,662,532.22,662,532.22s-2.49,55-82.84,55C514,587.21,497,548,492.9,535.83a12.64,12.64,0,0,1-.75-2.59c-1,.65-133.78,83.87-145.44,89.5-2.17,1-15.48,16.93-15.8,45.23l0,0c-15.73,64.38-38.09,172.8-38.09,172.8S396,891.25,416.06,851.08h0l4.1,7.63-20,406s91.48,29,210.72,25,195.84-40.68,195.84-40.68l-41.07-397.5Z" fill="#262521" stroke="#262521" stroke-linecap="round" stroke-linejoin="round" stroke-width="3"/><path d="M407,1266.71c23.21,6.47,103.79,26.44,204,23.08,104.33-3.5,176-32,192.32-39.1" fill="none" stroke="#636363" stroke-linecap="round" stroke-linejoin="round"/></svg>