<svg xmlns="http://www.w3.org/2000/svg" width="1000" height="1550" viewBox="0 0 1000 1550"><path d="M279.43 1264.5L676 1248.11l22.8 267.08c-209.14 38.46-397.55 3.91-397.55 3.91z" fill="#262521" stroke="#262521" stroke-linecap="round" stroke-linejoin="round" stroke-width="3"/><path d="M676.45 586.43c-10.88-7.11-148.63-58.32-148.63-58.32s4.72 52.64-75.63 52.64c-65.09 0-77.84-37.88-82-50a12.42 12.42 0 01-.75-2.59c-1 .66-106.06 65.8-150.57 92.61-44.73 27 65.93 449.84 70 431.82-3.35 34.76-22 135.5-10.62 160.6 0 13-2.36 59.86-2.36 59.86s88.48 20.67 165.47 19.75c137.53-1.66 242.89-30.38 242.89-30.38s-3.23-43.82-4-57.41c8.88-15.34-1-63.45-10.45-125.17 15.47 46.63 44.95-468.42 6.65-493.41z" fill="#989898"/><path d="M349.87 540.28c-1.72 0-119.6 73.62-131 80.46-44.73 27-26.82 321.69-26.82 321.69s-9.05 72.15-3.5 140.57c3.31 41-1.69 168.67 14.54 188.07l61-1.5c-6.69-21.46-4.06-50.63-2.38-61 1.06-15.63 2.4-33.3 4.2-50a.8.8 0 01-.2-1.21l.39-.52c2.14-19.56 4.94-37.68 8.69-49.5 4.83-15.2 10.09-36.77 14.19-54.79-.76 7.9 2.56-232.4-3.3-245-3.1-13.76-4.12-55.36-7.14-68.7C250.37 614.48 346.36 577 362.59 562.7c-5.74-6.15-10.37-21.14-12.72-22.42zM706.66 1251.67c3-.05 58.1 0 58.1 0 2.53-6 7.52-16.25 3.65-42.15-7.53-50.45-14.2-137-16.52-170.87-3.83-55.87-22.56-120.28-22.56-120.28s-14.58-307-52.88-331.94c-4.19-2.74-100.32-39.67-127-50-.84 5.85-5.89 16.3-5.89 16.3 75.89 41.3 122.35 118.72 94.37 177.9-3.75 7.92-1.48 31.93-2.45 26.11 10.44 58.47 21.36 249.2 34.43 323.12-.04-.05 34.09 108.53 36.75 171.81z" fill="#262521"/><path d="M383.31 612.16c-.72-1.94-4.24-3.28-9.24-9.59s-19.18-8.81-23.51-8.87-19.92-5.32-30.93-4.25-43.4 9.42-63.74 21.67-32.81 32.21-32.81 32.21l49.24 93.9s2.13-11.92 2.15-18.1-5.68-34.8 7.88-37.08 21.79 4.3 28.21 10.75 13.86 5.66 22.07 1.75 7.3-8.77 7.3-8.77c11.86-7.2 9.55-15.78 8.41-16.17-1.16 1.43-4.41 2.24-4.41 2.24-.08-1.09-1.08-1.59-1.93-.46-1.07 1.42-13.9 10.66-13.9 10.66-11.85 1.74-14-8.36-13.13-20.74s13.84-18.07 21.16-19.21 10 1.14 10 1.14c4.18 1.58 18.89 1 24.27.18s14.14-10.07 16.59-14.06-2.99-15.25-3.68-17.2z" fill="#262521"/><path d="M339.79 687.5s-7.28-5.49-15.29 1.82c0 0-7-2.7-10.48.39 0 0-12.8-14.21-29.66-8.11 0 0 13.63-2.2 25.1 10.12s26.83.62 26.83.62" fill="#fff" stroke="#fff" stroke-linejoin="round" stroke-width=".69"/><path d="M348.34 669.61c-1.16 1.43-4.41 2.24-4.41 2.24v.06c-.05-1.11-1.07-1.65-1.93-.5-1.07 1.42-9.1 7.88-9.1 7.88-8.86-7-5.45-15.83-5.45-15.83h-.07a14.88 14.88 0 011.44-.91c10.68-5.77 17.32-19.28 17.32-19.28v-.1l1.3.45 7.38.64s-5.11-8-10.52-8.27-17.76-.4-22.32 11.73l-3.6 4.47s-7.75 4.15-7.23 15.42 8.59 24.33 17 14.47c0 0 7.59-.55 10.14.87s1.7 2.84 1.7 2.84c11.8-7.21 9.49-15.79 8.35-16.18z" fill="#fff" stroke="#fff" stroke-linejoin="round" stroke-width=".69"/><path d="M359.26 644.24s-1.92 6.66-4.9 8.25-.83 3.15 3.35 1.52a19.62 19.62 0 01.36 2.67c.05 1.12 15.39-5.87 14.05-13.74M229.55 640.2c1.63-2.43 3.26-4.84 5.09-7.13 1.62-2 3.31-4 5-6 1.28-1.53 11-8.8 14.43-10.77 2.46-1.41 4.89-2.88 7.27-4.42a38.09 38.09 0 016.5-3.78c5-2 10.17-3.6 15.17-5.66 2.64-1.09 5.26-2.27 8-3.24 1.38-.5 9.19-2.84 10.71-3.12 4-.74 7.94-1.69 12-2.17 4.29-.51 8.58-.66 12.88-.92 2.78-.17 5.81-.34 8.38.87 3.5 1.07 6.79 3.06 10.48 3.34 4 .31 8.17-.52 12.06.45a31.13 31.13 0 019.79 4.93 25.06 25.06 0 013.95 3.46c.42-.56.84-1.12 1.25-1.69.08-.11.13-.2.27-.39l.38-.55c.24-.36.48-.73.71-1.1-5.2-6.1-19-8.53-23.26-8.59s-19.92-5.32-30.93-4.25-43.4 9.42-63.74 21.67-32.81 32.21-32.81 32.21-3 9.52-3.63 14.59c-5.17 21.58-16.13 18.93-16.13 18.93l-3.44 8.74c16.68 1.16 22.81-21.35 22.81-21.35s2 3.48 2.43 3.06-1.34-5.46-1.34-5.46c.74-1.58 1.38-18.75 5.72-21.66z" fill="#fff" stroke="#fff" stroke-linejoin="round" stroke-width=".69"/><path d="M328.09 682.07l-10.66-3.93c2.01 3.1 5.36 4.71 10.66 3.93z" fill="#fff" opacity=".49"/><path d="M328.09 682.07s12.83-9.24 13.9-10.66 2.41-.27 1.78 1.4" fill="none" stroke="#262521" stroke-linecap="round" stroke-linejoin="round" stroke-width="1.03"/><path d="M337.36 684.23s5.75-8.27 6.41-11.42" fill="none" stroke="#262521" stroke-linecap="round" stroke-linejoin="round" stroke-width=".69"/><path d="M328.09 682.07c-11.85 1.74-14-8.36-13.13-20.74s13.84-18.07 21.16-19.21 10 1.14 10 1.14c4.18 1.58 18.89 1 24.27.18s14.14-10.07 16.59-14.06-2.95-15.27-3.68-17.22-4.24-3.28-9.24-9.59-19.18-8.81-23.51-8.87-19.92-5.32-30.93-4.25-43.4 9.42-63.74 21.67-32.81 32.21-32.81 32.21-4.18 12.89-4.88 17.56c-2.71 17.25-17.68 15.75-17.68 15.75" fill="none" stroke="#262521" stroke-linecap="round" stroke-linejoin="round" stroke-width="1.03"/><path d="M343.93 671.86s3.25-.82 4.41-2.25c1.14.39 3.45 9-8.41 16.17 0 0 .91 4.86-7.3 8.77s-15.65 4.71-22.07-1.75-14.65-13-28.21-10.75-7.85 30.9-7.88 37.08-4.42 26.81-4.42 26.81M327.44 663.46s-3.92 8 4.94 15" fill="none" stroke="#262521" stroke-linecap="round" stroke-linejoin="round" stroke-width="1.03"/><path d="M346.13 643.26s-6.64 13.51-17.32 19.28-1.4 17.65 1.12 17.73" fill="none" stroke="#262521" stroke-linecap="round" stroke-linejoin="round" stroke-width="1.03"/><path d="M317 654.26s5.1 2.38 5.65 3.23c0 0-1.23 2.59-7.58 2.68M314.89 662.63l6.74-.25s1.81 1.84-6.59 4.41M315.86 674.66s4.82-.77 5.36-.2-.52 6.73-.52 6.73" fill="none" stroke="#262521" stroke-linecap="round" stroke-linejoin="round" stroke-width=".69"/><path d="M359.26 644.24s-1.92 6.66-4.9 8.25-.83 3.15 3.35 1.52a19.62 19.62 0 01.36 2.67c.05 1.12 15.39-5.87 14.05-13.74" fill="none" stroke="#262521" stroke-linecap="round" stroke-linejoin="round" stroke-width="1.03"/><path d="M365.48 644s-.05 5.52-7.77 10.06" fill="none" stroke="#262521" stroke-linecap="round" stroke-linejoin="round" stroke-width=".69"/><path d="M374 608.3s1.14 2.14 2.81 2.08a3.3 3.3 0 012.48.81s.02-2.45-5.29-2.89zM372.13 611.46s1.53 3 3.58 2.83 3.8 1.66 3.8 1.66 1.49-4.82-7.38-4.49zM368.92 611.58s1.76 3.8 5.42 4.56 3.71 5.65 3.71 5.65-1.67-3.41-5-3.67-4.13-6.54-4.13-6.54zM383 624.44s-.82-1.39-2.31.08-2.54 4.35.11 3.09 2.36.94 1.37 2 .12 3.21 2.05-.08 2.96-4.6-1.22-5.09zM349.29 610.77l-4.91 2.89 3.24 1.52s.07-3.18 1.67-4.41z" fill="#fff" stroke="#fff" stroke-linejoin="round" stroke-width=".69"/><path d="M361.31 614.67c3.7-7.09-1.2-8.84-4.31-9.21s-7.54 2.22-12.76 4.63-14.43 1.23-14.43 1.23 5.33 3.17 9.41 3.76 8.43 6.08 12.52 5.83 6.78-3.34 8.65-4.25 3 1.5 3.23.4-2.31-2.39-2.31-2.39zm-9.72 3.64c-4.39.52-11.53-5-11.53-5s9.69-3.86 13.38-4.61 8-.27 7.94 3.18-5.38 5.92-9.79 6.43z" fill="#fff" stroke="#fff" stroke-linejoin="round" stroke-width=".69"/><path d="M353.1 610.16s-4.11 4.13-2 6 7.9-2.22 8.27-3.28-.4-2.27-1.86-1.24-4.14 5.32-5.46 3.92 2.5-4.64 1.05-5.4zM287.12 610.26a56.33 56.33 0 0116.88-3.35c9.09-.28 12.67 2.43 11.7 3.58s-6.58-1.91-12.76-1.53-15.82 1.3-15.82 1.3zM257.14 617.24c.81-.81 2.6 4.18 13.81 3.66s18.49-3.46 23.37-3.72 17.41-1.58 19.17-.72a1.61 1.61 0 01-.8 3.11c-2.16-.06-4.55-1.22-5.64.65s-.62 5.11-1 5.46-4.77 2.1-4.64 5.45 1.9 3.77 1.1 5.24-2.72.24-3.1-2.38a7.32 7.32 0 011.49-6.34c1.63-2.37 3.23-3.39 3.17-4.95s-1.89-3.07-4.19-3-9.84 0-15.58 1.74a68.87 68.87 0 01-15.41 2.3c-3.35.18-8.92.29-12.3-2.85 0 0-3.54 6.47 4.08 7.57a34.39 34.39 0 0116.81 6.81c4 3.11 7.91 5.08 10.45 5l.25 6.42s-4.21.5-11.3-7-11.11-7-13.7-7.12-16.55-4.9-6.04-15.33zM238.39 804.91c.88-.91 1.63 3.81 1.33 6.37s3.7 5 3.6 5.85l-.44 3.84a4.9 4.9 0 004.25-4.3 11.17 11.17 0 016.3-8.6c3.27-1.44 3.63-4.5 4.22-7.41s3.13-1.32 2.94.34-.38 3.32 1 5-.34 4.13-2.38 4.92-10.2 4.25-9.25 9.53 3.66.82 6.18-.84 7.32-.58 7.55.75-1.94 2.23-4.47 2.85-6.14 3.82-6.52 6-3.24 2.34-4.54 2.32-4.44 2.6-4.44 2.6a9.31 9.31 0 01.76-5.48c1.35-2.7 1.71-4.73-.11-3.51s-.55 2.53-3.26 1.31c0 0 .25 2.36-1.12 3s-8.22 1.65-6.88 21.48c0 0-4.82-5.34-.41-23.35 0 0 1.2-4.78 2.63-4.88s3.38 3.24 4.28 0 .5-5.51-.81-8.77-1.88-7.51-.41-9.02zM289 912.75c-3.57 3.77-12 12.55-15.65 15.87 3.55-2.33 11.52-7.24 15.68-10.61zM289.07 921.91c-3.65 3.38-10.82 10-11.62 10.49-1.07.71-13.47 9.51-13.26 10.52s13.88-7.31 18.15-9.95c2.29-1.42 4.92-3.37 6.87-4.87-.07-2.1-.11-4.1-.14-6.19zM276.69 876c2.61.3.26 3.49-.64 5.54s.75 9.32-.52 10.33-22.87 19.32-31.78 29.35-25.4 32.72-25.53 33.86.65 5.85-.65 5.7-.36-5.49-1.35-6.93 17.35-33.15 32.47-45.43 22.83-24.77 24.35-29.38 3.65-3.04 3.65-3.04z" fill="#fff" stroke="#fff" stroke-linejoin="round" stroke-width=".69"/><path fill="none" stroke="#fff" stroke-linecap="round" stroke-linejoin="round" stroke-width="2.74" d="M194.78 998.9l-4.26 12.2-3.29-1.65"/><path d="M197.41 976c-1.87.14-7.31-.27-6.85 2s1.14 3.24 5.92 1.26 5.52-3.58.93-3.26zM235.7 866.37c1.69 11.2-.44 17.3-2.92 21.93s-23 22.21-35.66 28.52a23.26 23.26 0 00-6.78 5c.07 1.63.14 3.27.2 4.9 5.5-6.32 10.59-7.6 14.58-9.64 5.37-2.75 21.75-16.78 29.59-25.33s.99-25.38.99-25.38z" fill="#fff" stroke="#fff" stroke-linejoin="round" stroke-width=".69"/><path d="M520 617.18c.35-2 3.55-4 7.29-11.15s17.2-12.24 21.45-13.1 18.61-8.93 29.63-9.93 44.4 1.17 66.67 9.41 38.23 25.53 38.23 25.53L660.43 738l-8-18.62s-4.31-11.32-5.48-17.39-.91-35.24-14.65-35-20.61 8.29-25.71 15.83-12.59 8.18-21.4 5.86-8.81-7.26-8.81-7.26c-13-4.87-12.32-13.73-11.28-14.32 1.41 1.19 4.75 1.38 4.75 1.38-.13-1.08.77-1.76 1.81-.81 1.32 1.2 15.64 7.88 15.64 7.88 12-.49 12.16-10.81 9-22.82s-17-15.17-24.37-14.93-9.62 3-9.62 3c-3.8 2.33-18.36 4.53-23.81 4.69s-15.76-7.25-18.92-10.71.11-15.56.42-17.6z" fill="#262521"/><path d="M576.84 683.08s6.16-6.74 15.36-1.08c0 0 6.4-4 10.37-1.57 0 0 9.93-16.34 27.63-13.5 0 0-13.81.39-22.77 14.62s-26.25 5.61-26.25 5.61" fill="#fff" stroke="#fff" stroke-linejoin="round" stroke-width=".69"/><path d="M565.1 667.1c1.41 1.19 4.75 1.38 4.75 1.38h0c-.16-1.1.74-1.81 1.8-.85 1.32 1.2 10.41 6.05 10.41 6.05 7.39-8.57 2.41-16.57 2.41-16.57h.06a12.68 12.68 0 00-1.58-.62c-11.58-3.69-20.62-15.72-20.62-15.72v-.11l-1.2.69-7.12 2s3.52-8.8 8.79-10.09 17.37-3.7 24.11 7.37l4.37 3.72s8.39 2.64 10 13.8-3.9 25.51-14 17.38c0 0-7.56.88-9.8 2.75s-1.14 3.11-1.14 3.11c-12.95-4.84-12.28-13.7-11.24-14.29z" fill="#fff" stroke="#fff" stroke-linejoin="round" stroke-width=".69"/><path d="M549.65 644.2s3.13 6.19 6.35 7.2 1.4 2.94-3 2.12a19.52 19.52 0 00.14 2.69c.17 1.11-16.21-2.9-16.36-10.89M699.89 645.55c-3.19-2.11-6.84-6.21-10.33-14-1.57-4.86-6.29-13.66-6.29-13.66s-16-17.29-38.23-25.53S589.38 582 578.37 583s-25.34 9.08-29.59 9.94-17.28 5.81-21.25 12.78c.29.32.59.63.9.94l.47.48.34.32c.51.49 1 1 1.55 1.44a23.47 23.47 0 013.24-4.14 30.88 30.88 0 018.7-6.67c3.63-1.68 7.92-1.65 11.76-2.69 3.56-1 6.43-3.53 9.67-5.23 2.3-1.67 5.31-2.07 8.07-2.42 4.28-.55 8.52-1.2 12.82-1.5 4.09-.28 8.12-.08 12.2-.1 1.54 0 9.65.84 11.11 1.07 2.83.45 5.62 1.12 8.42 1.7 5.29 1.09 10.66 1.72 16 2.73a38.43 38.43 0 017.1 2.51q3.93 1.61 8 3c3.76 1.29 14.64 6.63 16.18 7.89 2 1.65 4 3.29 6 5 2.22 1.9 4.27 4 6.32 6.06 4.81 2 8.64 18.8 9.71 20.18 0 0-.79 5.27-.31 5.61s1.82-3.45 1.82-3.45 5.4 11.21 14.74 15.55c-.73-2.83-1.65-5.63-2.45-8.45z" fill="#fff" stroke="#fff" stroke-linejoin="round" stroke-width=".69"/><path d="M587.32 675.56l9.74-5.85c-1.4 3.43-4.38 5.63-9.74 5.85z" fill="#fff" opacity=".49"/><path d="M587.32 675.56s-14.32-6.68-15.64-7.88-2.42.19-1.49 1.72" fill="none" stroke="#262521" stroke-linecap="round" stroke-linejoin="round" stroke-width="1.03"/><path d="M578.62 679.42s-7.2-7.06-8.43-10" fill="none" stroke="#262521" stroke-linecap="round" stroke-linejoin="round" stroke-width=".69"/><path d="M587.32 675.56c12-.49 12.16-10.81 9-22.82s-17-15.17-24.37-14.93-9.62 3-9.62 3c-3.8 2.33-18.36 4.53-23.81 4.69s-15.76-7.25-18.92-10.71.06-15.56.41-17.6 3.55-4 7.29-11.15 17.2-12.24 21.45-13.1 18.6-8.94 29.62-9.94 44.4 1.17 66.67 9.41 38.23 25.53 38.23 25.53 6.51 11.89 8.07 16.35c5.58 11.56 9 10.4 9 10.4" fill="none" stroke="#262521" stroke-linecap="round" stroke-linejoin="round" stroke-width="1.03"/><path d="M569.85 668.48s-3.34-.19-4.75-1.38c-1 .59-1.71 9.45 11.28 14.32 0 0 0 4.94 8.81 7.26s16.25 1.7 21.36-5.83 12-15.54 25.71-15.83 13.47 28.9 14.65 35 13.52 36 13.52 36M584.5 657.16s5.33 7.13-2.06 15.7" fill="none" stroke="#262521" stroke-linecap="round" stroke-linejoin="round" stroke-width="1.03"/><path d="M562.36 640.8s9 12 20.62 15.72 4.66 17.07 2.2 17.62" fill="none" stroke="#262521" stroke-linecap="round" stroke-linejoin="round" stroke-width="1.03"/><path d="M593 646.18s-4.57 3.29-5 4.22c0 0 1.7 2.32 7.95 1.23M596.67 654l-6.67 1s-1.44 2.14 7.29 3.1M598 666s-4.87.14-5.29.8 1.76 6.51 1.76 6.51" fill="none" stroke="#262521" stroke-linecap="round" stroke-linejoin="round" stroke-width=".69"/><path d="M549.65 644.2s3.13 6.19 6.35 7.2 1.4 2.94-3 2.12a19.52 19.52 0 00.14 2.69c.17 1.11-16.21-2.9-16.36-10.89" fill="none" stroke="#262521" stroke-linecap="round" stroke-linejoin="round" stroke-width="1.03"/><path d="M543.48 645.08s1.08 5.42 9.51 8.44" fill="none" stroke="#262521" stroke-linecap="round" stroke-linejoin="round" stroke-width=".69"/><path d="M528.43 611.65s-.72 2.32-2.37 2.57a3.28 3.28 0 00-2.29 1.26s-.44-2.41 4.66-3.83zM530.9 614.4s-.94 3.26-3 3.44-3.42 2.34-3.42 2.34-2.36-4.45 6.42-5.78zM534.08 613.92s-1 4.06-4.48 5.49-2.6 6.25-2.6 6.25 1-3.67 4.26-4.55 2.82-7.19 2.82-7.19zM522.59 629.19s.55-1.52 2.29-.35 3.31 3.79.46 3-2.13 1.37-1 2.23.48 3.18-2 .31-3.72-3.94.25-5.19zM553.21 609.47l5.36 1.92-2.9 2.1s-.67-3.12-2.46-4.02z" fill="#fff" stroke="#fff" stroke-linejoin="round" stroke-width=".69"/><path d="M540.3 618.31c.45 1 1.1-1.53 3.1-1s5.22 3.09 9.29 2.57 7.32-6.73 11.22-8.07 8.54-5.45 8.54-5.45-8.83 2.89-14.41 1.49-10.42-3.11-13.4-2.17-7.47 3.57-2.52 9.84c0 .01-2.27 1.76-1.82 2.79zm1.23-5.52c-.74-3.37 3.45-4.66 7.21-4.61s14 2 14 2-6 6.77-10.4 7.08-10.06-1.1-10.81-4.47z" fill="#fff" stroke="#fff" stroke-linejoin="round" stroke-width=".69"/><path d="M549.35 609.57s4.8 3.3 3 5.54-8.17-.71-8.73-1.68 0-2.3 1.59-1.57 5.07 4.46 6.1 2.83-3.24-4.1-1.96-5.12zM614.19 597.38a56.14 56.14 0 00-17.2-.15c-9 1.43-12 4.76-10.83 5.7s6.11-3.1 12.25-3.88 15.78-1.67 15.78-1.67zM645 598.65c-1-.64-1.78 4.59-12.89 6.17s-18.81 0-23.65.7-17.4 1.69-19 2.86-.75 3.38 1.36 2.92 4.25-2 5.66-.42 1.57 4.9 2 5.17 5.07 1.17 5.57 4.49-1.16 4.06-.1 5.35 2.71-.26 2.6-2.92a7.34 7.34 0 00-2.64-6c-2.05-2-3.81-2.73-4-4.26s1.28-3.37 3.56-3.72 9.67-1.8 15.63-1.19a69.38 69.38 0 0015.57-.61c3.33-.46 8.81-1.38 11.55-5.09 0 0 4.69 5.69-2.59 8.2a34.13 34.13 0 00-15.25 9.82c-3.35 3.8-6.83 6.46-9.34 6.89l1 6.35s4.23-.3 9.8-8.95 9.62-8.92 12.14-9.54 15.23-7.94 3.02-16.22zM685.22 792.64c-1-.73-.89 4.05-.12 6.5s-2.72 5.57-2.45 6.43l1.15 3.68a4.9 4.9 0 01-5-3.43 11.18 11.18 0 00-7.79-7.28c-3.48-.8-4.4-3.74-5.53-6.49s-3.32-.72-2.82.88 1 3.19 0 5.13 1.11 4 3.25 4.39 10.82 2.27 10.88 7.64-3.45 1.48-6.24.33-7.29.79-7.28 2.13 2.33 1.84 4.93 2 6.74 2.61 7.51 4.66 3.63 1.7 4.9 1.44 4.85 1.72 4.85 1.72a9.29 9.29 0 00-1.77-5.24c-1.83-2.4-2.56-4.32-.54-3.47s1 2.38 3.44.68c0 0 .2 2.36 1.66 2.72s8.38.08 10.76 19.82c0 0 3.74-6.16-4-23 0 0-2.07-4.47-3.49-4.3s-2.72 3.82-4.21.78-1.52-5.32-.85-8.77.54-7.74-1.24-8.95zM653.64 906.59s20.66 15 22.22 15.06-21-7.88-22.4-10.7.18-4.36.18-4.36zM654.8 915.51s14.62 9.18 15.8 9.67 15 6.82 15 7.86-15-4.6-19.68-6.4a112.29 112.29 0 01-10.9-5.19zM660.85 869.66c-2.51.78.39 3.48 1.66 5.32s1 9.31 2.44 10.06 26.06 14.71 36.69 22.9 31 27.42 31.39 28.51.45 5.87 1.7 5.48-.67-5.46 0-7-23.23-29.34-40.37-38.59-27-20.08-29.4-24.32-4.11-2.36-4.11-2.36zM728.19 887.24c-10.27-5.17-19.9-11.21-21.92-13.72-3.3-4.09-6.53-9.69-7-21 0 0-3.6 17.83 5.7 24.76a213.49 213.49 0 0023.18 14.41z" fill="#fff" stroke="#fff" stroke-linejoin="round" stroke-width=".69"/><path d="M369.48 528.13s.01-.03 0 0z" fill="#262521"/><path d="M288.68 1053.71c-4.14 18.21-9 38.16-13.93 53.64-9.82 31-13.08 105-15.36 135.21-.95 12.67 4.66 27 4.66 27l-61 1.5c-16.33-18.73-8.93-129.51-14.45-197.93A619.73 619.73 0 01192.24 945s-18.06-297.33 26.67-324.28 150.6-92.63 150.6-92.63-.25-.24.72 2.61c4.12 12.15 16.87 50 82 50 80.35 0 75.64-52.64 75.64-52.64s137.74 51.21 148.62 58.32c38.3 25 52.88 331.94 52.88 331.94s19 68.76 22.89 124.63c5.57 81.26 18.66 177.57 17.84 189.79s-5.3 18.88-5.3 18.88h-58.1s-1.25-8-2.88-34.36c-1.86-29.85-17-86.23-32.37-132.82" fill="none" stroke="#262521" stroke-linecap="round" stroke-linejoin="round" stroke-width="3"/><path d="M285.64 807.59s5.34 199.1 3.82 238.13c-.83 21.49-23.46 140.26-11.15 167.44.05 13-2.35 59.86-2.35 59.86s88.48 20.67 165.47 19.75c137.53-1.66 242.89-30.38 242.89-30.38s-3.23-43.82-4-57.41c14.49-25-21.06-160.16-22.86-230.12-1.22-47.58-22-218.17-22-218.17" fill="none" stroke="#262521" stroke-linecap="round" stroke-linejoin="round" stroke-width="3"/><path d="M276 1273s88.48 20.67 165.47 19.75c137.53-1.66 242.89-30.38 242.89-30.38M711 1219s30.63-3.83 52.37 0M200.25 1236.47s30.64-3.84 52.37 0M286.17 1219s168.07 32.86 378.14-4.33M352.93 546.4s21.5 56.91 100.81 56.91 94.26-62 94.26-62" fill="none" stroke="#636363" stroke-linecap="round" stroke-linejoin="round"/><path fill="none" stroke="#636363" stroke-linecap="round" stroke-linejoin="round" d="M431.25 601.7l29.76 38.09 22.1-39.4"/></svg>