<svg xmlns="http://www.w3.org/2000/svg" width="1250" height="1550" viewBox="0 0 1250 1550"><title>s05e05-01</title><path d="M879.72,1045c-3.84-55.87-22.89-124.63-22.89-124.63s-14.58-307-52.88-331.94c-10.88-7.11-148.63-58.32-148.63-58.32s4.72,52.64-75.63,52.64c-65.09,0-77.84-37.88-82-50a12.42,12.42,0,0,1-.75-2.59c-1,.66-106.06,65.8-150.57,92.61C301.68,649.69,319.74,947,319.74,947a619.73,619.73,0,0,0-3.6,128.12c5.52,68.42-1.88,179.2,14.45,197.93l61-1.5s-5.61-14.34-4.66-27c2.28-30.22,5.54-104.26,15.36-135.21,4.83-15.2,10.09-36.77,14.19-54.79-3.35,34.76-22,135.5-10.62,160.6,0,13-2.36,59.86-2.36,59.86s88.48,20.67,165.47,19.75c137.53-1.66,242.89-30.38,242.89-30.38s-3.23-43.82-4-57.41c8.88-15.34-1-63.45-10.45-125.17,15.4,46.66,32,107.53,33.91,137.5,1.63,26.39,2.88,34.36,2.88,34.36h58.1s4.49-6.66,5.3-18.88S885.29,1126.26,879.72,1045Z" fill="#302f2d"/><circle cx="884.7" cy="1236.02" r="4.73" fill="none" stroke="#9d9d9d" stroke-linecap="round" stroke-linejoin="round" stroke-width="1.78"/><circle cx="883.78" cy="1191.24" r="4.73" fill="none" stroke="#9d9d9d" stroke-linecap="round" stroke-linejoin="round" stroke-width="1.78"/><circle cx="878.98" cy="1143.41" r="4.73" fill="none" stroke="#9d9d9d" stroke-linecap="round" stroke-linejoin="round" stroke-width="1.78"/><circle cx="873.15" cy="1101.44" r="4.73" fill="none" stroke="#9d9d9d" stroke-linecap="round" stroke-linejoin="round" stroke-width="1.78"/><circle cx="867.94" cy="1057.63" r="4.73" fill="none" stroke="#9d9d9d" stroke-linecap="round" stroke-linejoin="round" stroke-width="1.78"/><circle cx="864.71" cy="1014.09" r="4.73" fill="none" stroke="#9d9d9d" stroke-linecap="round" stroke-linejoin="round" stroke-width="1.78"/><circle cx="856.93" cy="973.62" r="4.73" fill="none" stroke="#9d9d9d" stroke-linecap="round" stroke-linejoin="round" stroke-width="1.78"/><circle cx="846.36" cy="928.02" r="4.73" fill="none" stroke="#9d9d9d" stroke-linecap="round" stroke-linejoin="round" stroke-width="1.78"/><circle cx="842.44" cy="881.55" r="4.73" fill="none" stroke="#9d9d9d" stroke-linecap="round" stroke-linejoin="round" stroke-width="1.78"/><circle cx="839.52" cy="831.63" r="4.73" fill="none" stroke="#9d9d9d" stroke-linecap="round" stroke-linejoin="round" stroke-width="1.78"/><circle cx="836.71" cy="783.72" r="4.73" fill="none" stroke="#9d9d9d" stroke-linecap="round" stroke-linejoin="round" stroke-width="1.78"/><circle cx="831.98" cy="730.37" r="4.73" fill="none" stroke="#9d9d9d" stroke-linecap="round" stroke-linejoin="round" stroke-width="1.78"/><circle cx="828.18" cy="678.51" r="4.73" fill="none" stroke="#9d9d9d" stroke-linecap="round" stroke-linejoin="round" stroke-width="1.78"/><path d="M823.08,628.46a4.73,4.73,0,1,0,1.75,6.79" fill="none" stroke="#9d9d9d" stroke-linecap="round" stroke-linejoin="round" stroke-width="1.78"/><circle cx="802.04" cy="592.93" r="4.73" fill="none" stroke="#9d9d9d" stroke-linecap="round" stroke-linejoin="round" stroke-width="1.78"/><path d="M761.63,571.93a4.77,4.77,0,0,0-1.67,2.36,4.73,4.73,0,1,0,9,2.85,4.58,4.58,0,0,0,.2-1.86" fill="none" stroke="#9d9d9d" stroke-linecap="round" stroke-linejoin="round" stroke-width="1.78"/><path d="M725.85,557.29a4.72,4.72,0,0,0,5.67,5.47,4.67,4.67,0,0,0,2.6-1.58" fill="none" stroke="#9d9d9d" stroke-linecap="round" stroke-linejoin="round" stroke-width="1.78"/><circle cx="338.48" cy="1250.26" r="4.73" fill="none" stroke="#9d9d9d" stroke-linecap="round" stroke-linejoin="round" stroke-width="1.78"/><circle cx="333.75" cy="1204.36" r="4.73" fill="none" stroke="#9d9d9d" stroke-linecap="round" stroke-linejoin="round" stroke-width="1.78"/><circle cx="332.21" cy="1157.48" r="4.73" fill="none" stroke="#9d9d9d" stroke-linecap="round" stroke-linejoin="round" stroke-width="1.78"/><circle cx="329.38" cy="1114.65" r="4.73" fill="none" stroke="#9d9d9d" stroke-linecap="round" stroke-linejoin="round" stroke-width="1.78"/><circle cx="327.88" cy="1069.74" r="4.73" fill="none" stroke="#9d9d9d" stroke-linecap="round" stroke-linejoin="round" stroke-width="1.78"/><circle cx="325.88" cy="1026.52" r="4.73" fill="none" stroke="#9d9d9d" stroke-linecap="round" stroke-linejoin="round" stroke-width="1.78"/><circle cx="327.38" cy="979.31" r="4.73" fill="none" stroke="#9d9d9d" stroke-linecap="round" stroke-linejoin="round" stroke-width="1.78"/><circle cx="329.48" cy="928.81" r="4.73" fill="none" stroke="#9d9d9d" stroke-linecap="round" stroke-linejoin="round" stroke-width="1.78"/><circle cx="327.32" cy="882.01" r="4.73" fill="none" stroke="#9d9d9d" stroke-linecap="round" stroke-linejoin="round" stroke-width="1.78"/><circle cx="325.98" cy="833.84" r="4.73" fill="none" stroke="#9d9d9d" stroke-linecap="round" stroke-linejoin="round" stroke-width="1.78"/><circle cx="325.66" cy="787.68" r="4.73" fill="none" stroke="#9d9d9d" stroke-linecap="round" stroke-linejoin="round" stroke-width="1.78"/><circle cx="327.16" cy="740.08" r="4.73" fill="none" stroke="#9d9d9d" stroke-linecap="round" stroke-linejoin="round" stroke-width="1.78"/><circle cx="330.39" cy="692.9" r="4.73" fill="none" stroke="#9d9d9d" stroke-linecap="round" stroke-linejoin="round" stroke-width="1.78"/><circle cx="337.46" cy="651.28" r="4.73" fill="none" stroke="#9d9d9d" stroke-linecap="round" stroke-linejoin="round" stroke-width="1.78"/><circle cx="356.05" cy="623" r="4.73" fill="none" stroke="#9d9d9d" stroke-linecap="round" stroke-linejoin="round" stroke-width="1.78"/><path d="M388.18,597.29a4.64,4.64,0,0,1,2.07,2,4.73,4.73,0,1,1-8.89,2.6" fill="none" stroke="#9d9d9d" stroke-linecap="round" stroke-linejoin="round" stroke-width="1.78"/><path d="M420.8,576.53a4.56,4.56,0,0,1,.3,1.85,4.73,4.73,0,0,1-4.9,4.54,4.67,4.67,0,0,1-2.85-1.1" fill="none" stroke="#9d9d9d" stroke-linecap="round" stroke-linejoin="round" stroke-width="1.78"/><path d="M477.37,542.28c-1.72,0-97.66,80.33-109,87.17C323.63,656.4,344.81,947.3,344.81,947.3s-8.28,61.85-2.75,130.27c3.31,41-1.88,175.58,14.35,195l35.14-1c-6.69-21.46-4.06-50.63-2.38-61,1.06-15.63,2.4-33.3,4.2-50a.8.8,0,0,1-.2-1.21l.39-.52c2.14-19.56,4.94-37.68,8.69-49.5,4.83-15.2,10.09-36.77,14.19-54.79-.76,7.9,2.56-232.4-3.3-245-25.86-114.85,68.6-217.4,87.05-233.59C481.39,557.22,479.72,543.56,477.37,542.28Z" fill="#262521"/><path d="M834.16,1253.67c3-.05,36.48,0,36.48,0,8.9-21.17-9.95-157.61-13.2-205-3.84-55.87-26-126.37-26-126.37s-8.9-297.52-47.2-322.51c-4.19-2.74-81.19-51.44-107.91-61.82-.83,5.85-4.25,18.62-15.57,33.11,50.83,53.48,101.58,72.12,108.56,238.5,10.44,58.46,14.94,198.3,28,272.22C797.37,1081.81,831.48,1190.39,834.16,1253.67Z" fill="#262521"/><path d="M497,530.13l0,0S497,530.1,497,530.13Z" fill="#262521"/><path d="M416.18,1055.71c-4.14,18.21-9,38.16-13.93,53.64-9.82,31-13.08,105-15.36,135.21-.95,12.67,4.66,27,4.66,27l-61,1.5c-16.33-18.73-8.93-129.51-14.45-197.93A619.73,619.73,0,0,1,319.74,947s-18.06-297.33,26.67-324.28S497,530.11,497,530.11s-.25-.24.72,2.61c4.12,12.15,16.87,50,82,50,80.35,0,75.64-52.64,75.64-52.64S793.07,581.32,804,588.43c38.3,25,52.88,331.94,52.88,331.94s19,68.76,22.89,124.63c5.57,81.26,18.66,177.57,17.84,189.79s-5.3,18.88-5.3,18.88h-58.1s-1.25-8-2.88-34.36c-1.86-29.85-17-86.23-32.37-132.82" fill="none" stroke="#262521" stroke-linecap="round" stroke-linejoin="round" stroke-width="3"/><path d="M413.14,809.59s5.34,199.1,3.82,238.13c-.83,21.49-23.46,140.26-11.15,167.44.05,13-2.35,59.86-2.35,59.86s88.48,20.67,165.47,19.75c137.53-1.66,242.89-30.38,242.89-30.38s-3.23-43.82-4-57.41c14.49-25-21.06-160.16-22.86-230.12-1.22-47.58-16.1-167.27-16.1-167.27" fill="none" stroke="#262521" stroke-linecap="round" stroke-linejoin="round" stroke-width="3"/><path d="M403.46,1275s88.48,20.67,165.47,19.75c137.53-1.66,242.89-30.38,242.89-30.38" fill="none" stroke="#636363" stroke-linecap="round" stroke-linejoin="round"/><path d="M838.52,1221s30.63-3.83,52.37,0" fill="none" stroke="#636363" stroke-linecap="round" stroke-linejoin="round"/><path d="M327.75,1238.47s30.64-3.84,52.37,0" fill="none" stroke="#636363" stroke-linecap="round" stroke-linejoin="round"/><path d="M413.67,1221s168.07,32.86,378.14-4.33" fill="none" stroke="#636363" stroke-linecap="round" stroke-linejoin="round"/><path d="M480.43,548.4s21.5,56.91,100.81,56.91,94.26-62,94.26-62" fill="none" stroke="#636363" stroke-linecap="round" stroke-linejoin="round"/><rect x="688.41" y="1085.83" width="92.38" height="21.43" transform="matrix(0.99, -0.11, 0.11, 0.99, -114.08, 85.71)" fill="#262521"/><line x1="686.69" y1="1090.97" x2="779.36" y2="1080.91" fill="none" stroke="#636363" stroke-linecap="round" stroke-linejoin="round" stroke-width="2"/><line x1="781.67" y1="1102.21" x2="689" y2="1112.28" fill="none" stroke="#636363" stroke-linecap="round" stroke-linejoin="round" stroke-width="2"/><rect x="695.02" y="1115.05" width="92.38" height="84.86" transform="translate(-120.61 86.78) rotate(-6.2)" fill="#262521"/><line x1="691.02" y1="1123.11" x2="782.86" y2="1113.14" fill="none" stroke="#494847" stroke-linecap="round" stroke-linejoin="round" stroke-width="2"/><line x1="699.5" y1="1201.21" x2="791.34" y2="1191.24" fill="none" stroke="#494847" stroke-linecap="round" stroke-linejoin="round" stroke-width="2"/><line x1="736.94" y1="1118.12" x2="789.02" y2="1191.49" fill="none" stroke="#494847" stroke-linecap="round" stroke-linejoin="round"/><line x1="780.54" y1="1113.39" x2="745.42" y2="1196.23" fill="none" stroke="#494847" stroke-linecap="round" stroke-linejoin="round" stroke-width="1.78"/><line x1="693.34" y1="1122.86" x2="745.42" y2="1196.23" fill="none" stroke="#494847" stroke-linecap="round" stroke-linejoin="round"/><line x1="736.94" y1="1118.12" x2="701.82" y2="1200.96" fill="none" stroke="#494847" stroke-linecap="round" stroke-linejoin="round"/><path d="M475.13,550.05s-102.2,80.56-109.41,91.64-15.79,59.42-17.72,123c-2.12,69.84,2.89,169,3.74,180.88s-5.86,35.6-5.86,63.18,3.39,97.92,3.39,120.38,1.7,100.43,4.67,116.54,5.08,22.75,5.08,22.75" fill="none" stroke="#636363" stroke-linecap="round" stroke-linejoin="round" stroke-width="1.34" opacity="0.3"/><path d="M478.76,553.83s-100.7,79.57-107.91,90.64-14.79,60.42-16.72,124c-2.12,69.84,2.89,169,3.74,180.88s-5.86,35.6-5.86,63.18,3.39,97.92,3.39,120.38,1.2,98.93,4.17,115,4.09,20.47,4.09,20.47" fill="none" stroke="#636363" stroke-linecap="round" stroke-linejoin="round" stroke-width="1.34" opacity="0.3"/><path d="M481.81,558.23s-98.55,77.09-105.76,88.16-13.95,62.9-15.87,126.43c-2.12,69.85,2.45,164.91,3.29,176.84s-5.42,40.07-5.42,67.64,3.7,96.52,3.7,119-1,94.11,2,110.21,4.05,21.39,4.05,21.39" fill="none" stroke="#636363" stroke-linecap="round" stroke-linejoin="round" stroke-width="1.34" opacity="0.3"/><path d="M484.78,562.86s-96.14,75.35-103.35,86.42-13.35,64.64-15.28,128.18c-2.12,69.84,2.3,159.88,3.15,171.81s-5.72,45.38-5.72,73,4.19,95.4,4.19,117.86-2.95,88.5,0,104.6,3.18,23.19,3.18,23.19" fill="none" stroke="#636363" stroke-linecap="round" stroke-linejoin="round" stroke-width="1.34" opacity="0.3"/><path d="M488.33,566.93s-92.45,70.81-100.6,86.36S374.85,718.41,372.92,782c-2.12,69.84,2.45,149,2.45,169.7s-5.64,47.17-5.64,74.74,4.59,95.31,4.59,117.77-4.19,76.44-3.15,92.78a269.62,269.62,0,0,0,3.9,30.44" fill="none" stroke="#636363" stroke-linecap="round" stroke-linejoin="round" stroke-width="1.34" opacity="0.3"/><path d="M491.47,571.34s-88.94,69.43-97.09,85-12.86,65.5-14.79,129c-2.12,69.85,2,149.74,2,170.43s-5.18,48.21-5.18,75.79,4.25,93.82,4.25,116.28-3.76,62.78-4.25,79.9,3.27,39.62,3.27,39.62" fill="none" stroke="#636363" stroke-linecap="round" stroke-linejoin="round" stroke-width="1.34" opacity="0.3"/><path d="M494.88,574.29s-44.68,44.15-72.32,97.51c-6.82,13.16-8.36,26.6-10.39,41.79" fill="none" stroke="#636363" stroke-linecap="round" stroke-linejoin="round" stroke-width="1.34" opacity="0.3"/><path d="M474.26,590s-49,56.29-59.87,78.24S400.84,802.8,400.84,802.8s-.46,37.63,0,58.55,4.54,86.39,3.66,107.8-5.53,40.29-5.24,63.16,1.75,69.9,1.75,69.9" fill="none" stroke="#636363" stroke-linecap="round" stroke-linejoin="round" stroke-width="1.34" opacity="0.3"/><path d="M452.82,607.31s-39.82,45-46.24,59.14-11.68,56.29-11.68,71.72-3.17,85.07-2,114,3.16,72.78,3.16,97.63-5.81,62.06-5.23,86.75,4.23,89.66,4.23,89.66" fill="none" stroke="#636363" stroke-linecap="round" stroke-linejoin="round" stroke-width="1.34" opacity="0.3"/><path d="M431.61,625s-28,28.11-32.06,37.75-8,39.83-9.23,59.1-3.87,67.53-4.74,89.66c0,0,1.17,90.82,2,115.57s1.16,46.28,0,54.43-4.66,34.64-4.08,55.9,6.61,96.79,4.95,114.26-5.68,84-5.95,89,2.75,27.24,2.75,27.24" fill="none" stroke="#636363" stroke-linecap="round" stroke-linejoin="round" stroke-width="1.34" opacity="0.3"/><path d="M408.29,810.82s1.53,46.46,2.22,85,1.31,55.11.42,73.32-5.56,62.34-5.12,77,1.26,37.26,1.26,37.26" fill="none" stroke="#636363" stroke-linecap="round" stroke-linejoin="round" stroke-width="1.34" opacity="0.3"/><path d="M413.14,997s-.1,27.19,0,36.16-1.77,36.62-1.77,36.62" fill="none" stroke="#636363" stroke-linecap="round" stroke-linejoin="round" stroke-width="1.34" opacity="0.3"/><path d="M681.11,544.12s94.39,53,102.93,63.08,21.54,74.71,31.45,137.5c10.89,69,11.53,162.08,12.19,174s8,35.19,14.76,61.93c7,27.68,13.27,102.22,16.09,124.5s10.91,105.29,11,117.27-1.18,27.21-1.18,27.21" fill="none" stroke="#636363" stroke-linecap="round" stroke-linejoin="round" stroke-width="1.34" opacity="0.3"/><path d="M678,548.33s92.77,52.19,101.31,62.27S800,686.43,809.89,749.22c10.89,69,11.52,162.08,12.18,174s9.11,35,14.77,61.94c5.89,28.13,13.26,102.21,16.09,124.49s13.19,99.37,12.28,115.72-1.48,24.33-1.48,24.33" fill="none" stroke="#636363" stroke-linecap="round" stroke-linejoin="round" stroke-width="1.34" opacity="0.3"/><path d="M675.52,553.07s90.32,50,98.86,60.09,20.15,78.4,30.06,141.19c10.9,69,11.46,158,12.12,169.94s9.19,39.44,14.89,66.42c5.85,27.74,12.78,100.86,15.61,123.14s14.77,94.31,13.86,110.66-.83,25.73-.83,25.73" fill="none" stroke="#636363" stroke-linecap="round" stroke-linejoin="round" stroke-width="1.34" opacity="0.3"/><path d="M673.15,558s87.72,48.58,96.26,58.67,19.78,80.2,29.69,143c10.89,69,11,153,11.63,164.94s11.1,44.49,15.86,71.66c4.89,28,12.16,99.8,15,122.09s14.54,88.47,14.58,104.85c.05,17.45-.24,26.4-.24,26.4" fill="none" stroke="#636363" stroke-linecap="round" stroke-linejoin="round" stroke-width="1.34" opacity="0.3"/><path d="M670.14,562.53s83.49,44.54,93.53,58.94S783,702.21,793,765c10.89,69,9.46,142.24,12.06,162.76s12.52,46.09,16,73.44,11.76,99.77,14.59,122,14.94,80.52,16,96.86a289.56,289.56,0,0,1,.23,29.55" fill="none" stroke="#636363" stroke-linecap="round" stroke-linejoin="round" stroke-width="1.34" opacity="0.3"/><path d="M667.59,567.3s79.82,43.62,89.86,58,19.4,81.12,29.31,143.91c10.89,69,10,142.89,12.63,163.41s13.21,47.18,16.68,74.54,11.9,98.25,14.73,120.54,11.56,62.88,14.21,79.8,2.73,42.72,2.73,42.72" fill="none" stroke="#636363" stroke-linecap="round" stroke-linejoin="round" stroke-width="1.34" opacity="0.3"/><path d="M665.18,570.89s69.33,40.91,85.29,59.49c13.68,15.94,28,139.85,28,139.85s6.48,48.4,8.65,69.21,4.63,90.42,8.19,111.55,13.06,39.28,15.65,62,13.51,102.73,18.43,138.36,16.28,65.05,14.65,98.38" fill="none" stroke="#636363" stroke-linecap="round" stroke-linejoin="round" stroke-width="1.34" opacity="0.3"/><path d="M681.11,587.21s58.89,39.41,63,46.37,14.74,42.07,21.29,87,14.33,102.05,16.79,126.9,2.46,72.91,4.91,92.49,16,60.26,20.07,89.05,15.82,121.17,19.16,139.58,11.24,40.64,12,55.06,1.23,26,1.23,26" fill="none" stroke="#636363" stroke-linecap="round" stroke-linejoin="round" stroke-width="1.34" opacity="0.3"/><path d="M710.82,615.61s21.79,14,28.72,28.84,15.13,48.45,15.13,48.45" fill="none" stroke="#636363" stroke-linecap="round" stroke-linejoin="round" stroke-width="1.34" opacity="0.3"/><path d="M787.65,968.82s13.94,55.14,13.94,66.68,14.88,99.81,14.88,99.81" fill="none" stroke="#636363" stroke-linecap="round" stroke-linejoin="round" stroke-width="1.34" opacity="0.3"/><path d="M789,993.25s9.18,71.4,11.52,83.62,4.9,25.34,4.9,25.34" fill="none" stroke="#636363" stroke-linecap="round" stroke-linejoin="round" stroke-width="1.34" opacity="0.3"/><path d="M337.79,1250s-18.05-15.58-21.07-34.41" fill="none" stroke="#636363" stroke-linecap="round" stroke-linejoin="round" stroke-width="3.56"/><path d="M327.46,1227.17s-10.74,9.59-7.79,19.36" fill="none" stroke="#636363" stroke-linecap="round" stroke-linejoin="round" stroke-width="3.56"/><path d="M333.75,1205.39s-21.57-24.88-17-38.05" fill="none" stroke="#636363" stroke-linecap="round" stroke-linejoin="round" stroke-width="3.56"/><path d="M316.33,1197.8s-1-11.47,8.43-15.65" fill="none" stroke="#636363" stroke-linecap="round" stroke-linejoin="round" stroke-width="3.56"/><path d="M331.59,1158.49s-19.44-18-15.41-36.46" fill="none" stroke="#636363" stroke-linecap="round" stroke-linejoin="round" stroke-width="3.56"/><path d="M315.63,1150.76s1.45-8.79,7.48-14.48" fill="none" stroke="#636363" stroke-linecap="round" stroke-linejoin="round" stroke-width="3.56"/><path d="M329.38,1114.65s-15.78-17.88-15-36.51" fill="none" stroke="#636363" stroke-linecap="round" stroke-linejoin="round" stroke-width="3.56"/><path d="M316.3,1109.93s0-15.75,5.55-19.89" fill="none" stroke="#636363" stroke-linecap="round" stroke-linejoin="round" stroke-width="3.56"/><path d="M327.88,1069.74s-17.65-11-15.44-35.31" fill="none" stroke="#636363" stroke-linecap="round" stroke-linejoin="round" stroke-width="3.56"/><path d="M314.33,1065s-2.71-12.24,3-21" fill="none" stroke="#636363" stroke-linecap="round" stroke-linejoin="round" stroke-width="3.56"/><path d="M325.88,1026.52s-19.49-16.66-11.55-39.16" fill="none" stroke="#636363" stroke-linecap="round" stroke-linejoin="round" stroke-width="3.56"/><path d="M312.43,1020.46s.28-14.51,4.9-24.83" fill="none" stroke="#636363" stroke-linecap="round" stroke-linejoin="round" stroke-width="3.56"/><path d="M327.38,979.31s-19.39-12.9-10.05-34.89" fill="none" stroke="#636363" stroke-linecap="round" stroke-linejoin="round" stroke-width="3.56"/><path d="M315.51,974.59s-7.49-11.13,3.25-20.26" fill="none" stroke="#636363" stroke-linecap="round" stroke-linejoin="round" stroke-width="3.56"/><path d="M329.48,928.81s-19.44-12.32-14-35.6" fill="none" stroke="#636363" stroke-linecap="round" stroke-linejoin="round" stroke-width="3.56"/><path d="M317.33,926.31s-7.95-7-2.54-24.72" fill="none" stroke="#636363" stroke-linecap="round" stroke-linejoin="round" stroke-width="3.56"/><path d="M327.32,882s-21.69-11-12.2-40.79" fill="none" stroke="#636363" stroke-linecap="round" stroke-linejoin="round" stroke-width="3.56"/><path d="M315.12,880.79s-4.05-16,0-26.9" fill="none" stroke="#636363" stroke-linecap="round" stroke-linejoin="round" stroke-width="3.56"/><path d="M326,833.84s-16.2-17.45-11.76-39.7" fill="none" stroke="#636363" stroke-linecap="round" stroke-linejoin="round" stroke-width="3.56"/><path d="M315.12,827.51s-8.71-21.47,0-26.64" fill="none" stroke="#636363" stroke-linecap="round" stroke-linejoin="round" stroke-width="3.56"/><path d="M325.66,787.68s-19.17-16.69-9.6-42.88" fill="none" stroke="#636363" stroke-linecap="round" stroke-linejoin="round" stroke-width="3.56"/><path d="M314.54,784.05s-7.35-15.77.58-26.64" fill="none" stroke="#636363" stroke-linecap="round" stroke-linejoin="round" stroke-width="3.56"/><path d="M327.16,740.08s-21.39-30.33-7.45-42.45" fill="none" stroke="#636363" stroke-linecap="round" stroke-linejoin="round" stroke-width="3.56"/><path d="M317.1,730s-6.53-16.3,2.42-22.77" fill="none" stroke="#636363" stroke-linecap="round" stroke-linejoin="round" stroke-width="3.56"/><path d="M330.39,692.9s-12.45-11.72-3.23-34.81" fill="none" stroke="#636363" stroke-linecap="round" stroke-linejoin="round" stroke-width="3.56"/><path d="M337.46,651.28s-10.53-24.49,7.31-30.18" fill="none" stroke="#636363" stroke-linecap="round" stroke-linejoin="round" stroke-width="3.56"/><path d="M329,646.56s-4.2-16.87,10.57-18.84" fill="none" stroke="#636363" stroke-linecap="round" stroke-linejoin="round" stroke-width="3.56"/><path d="M321.08,689.33s-5.68-18.94,4.58-25.83" fill="none" stroke="#636363" stroke-linecap="round" stroke-linejoin="round" stroke-width="3.56"/><path d="M356.05,623s-3.88-14.21,16.21-17.69" fill="none" stroke="#636363" stroke-linecap="round" stroke-linejoin="round" stroke-width="3.56"/><path d="M351.33,617.22s-1.4-7.89,12.67-7.7" fill="none" stroke="#636363" stroke-linecap="round" stroke-linejoin="round" stroke-width="3.56"/><path d="M386.07,601.76s3.27-15.89,19.23-17.39" fill="none" stroke="#636363" stroke-linecap="round" stroke-linejoin="round" stroke-width="3.56"/><path d="M380.52,600.32s2.63-9.85,16.14-10.37" fill="none" stroke="#636363" stroke-linecap="round" stroke-linejoin="round" stroke-width="3.56"/><path d="M417.23,579.73s3.64-12.78,18.66-12.8" fill="none" stroke="#636363" stroke-linecap="round" stroke-linejoin="round" stroke-width="3.56"/><path d="M885.15,1236.08s13.67-19.54,12-38.54" fill="none" stroke="#636363" stroke-linecap="round" stroke-linejoin="round" stroke-width="3.56"/><path d="M891.79,1210s10.72,9.61,7.76,19.37" fill="none" stroke="#636363" stroke-linecap="round" stroke-linejoin="round" stroke-width="3.56"/><path d="M884,1191.8s15-29.3,7.48-41" fill="none" stroke="#636363" stroke-linecap="round" stroke-linejoin="round" stroke-width="3.56"/><path d="M895.18,1181s-1-11.47-11.07-13.9" fill="none" stroke="#636363" stroke-linecap="round" stroke-linejoin="round" stroke-width="3.56"/><path d="M879.42,1143.41s16.56-19.25,7.5-38.23" fill="none" stroke="#636363" stroke-linecap="round" stroke-linejoin="round" stroke-width="3.56"/><path d="M890.8,1139.09s-.88-8.86-6.54-14.93" fill="none" stroke="#636363" stroke-linecap="round" stroke-linejoin="round" stroke-width="3.56"/><path d="M873.31,1102.27s15.66-19,10-38" fill="none" stroke="#636363" stroke-linecap="round" stroke-linejoin="round" stroke-width="3.56"/><path d="M885.52,1093.34s-2.75-15.5-9-18.59" fill="none" stroke="#636363" stroke-linecap="round" stroke-linejoin="round" stroke-width="3.56"/><path d="M868.36,1057.63s19.17-13.63,8.93-37.49" fill="none" stroke="#636363" stroke-linecap="round" stroke-linejoin="round" stroke-width="3.56"/><path d="M882.11,1049.53s-.87-12.51-8.85-19.29" fill="none" stroke="#636363" stroke-linecap="round" stroke-linejoin="round" stroke-width="3.56"/><path d="M864.92,1014s17.72-18.53,7.56-40.13" fill="none" stroke="#636363" stroke-linecap="round" stroke-linejoin="round" stroke-width="3.56"/><path d="M877.88,1010.88s-2.85-14.23-9.23-23.56" fill="none" stroke="#636363" stroke-linecap="round" stroke-linejoin="round" stroke-width="3.56"/><path d="M857.31,973.62s18.67-16.14,5.58-36.12" fill="none" stroke="#636363" stroke-linecap="round" stroke-linejoin="round" stroke-width="3.56"/><path d="M870.31,964.55s2.63-13.16-10.81-17.45" fill="none" stroke="#636363" stroke-linecap="round" stroke-linejoin="round" stroke-width="3.56"/><path d="M846.88,928s19.85-14.94,10.34-36.88" fill="none" stroke="#636363" stroke-linecap="round" stroke-linejoin="round" stroke-width="3.56"/><path d="M859.22,923.8s6.59-8.32-1.88-24.78" fill="none" stroke="#636363" stroke-linecap="round" stroke-linejoin="round" stroke-width="3.56"/><path d="M842.2,880.8s19-10.39,11.14-40.61" fill="none" stroke="#636363" stroke-linecap="round" stroke-linejoin="round" stroke-width="3.56"/><path d="M857.08,879.45s1.14-16.5-4.77-26.48" fill="none" stroke="#636363" stroke-linecap="round" stroke-linejoin="round" stroke-width="3.56"/><path d="M839.94,831.63s18.34-17.54,10-38.65" fill="none" stroke="#636363" stroke-linecap="round" stroke-linejoin="round" stroke-width="3.56"/><path d="M852.51,829.37s2.15-23.06-7.68-25.51" fill="none" stroke="#636363" stroke-linecap="round" stroke-linejoin="round" stroke-width="3.56"/><path d="M837.61,783.72s19.25-16.34,6.56-37.47" fill="none" stroke="#636363" stroke-linecap="round" stroke-linejoin="round" stroke-width="3.56"/><path d="M847.71,781.38s6.25-16.24-2.4-26.54" fill="none" stroke="#636363" stroke-linecap="round" stroke-linejoin="round" stroke-width="3.56"/><path d="M832.25,731.27s19-27.52,5.89-36.94" fill="none" stroke="#636363" stroke-linecap="round" stroke-linejoin="round" stroke-width="3.56"/><path d="M843.59,729.69s5.21-16.76-4.23-22.5" fill="none" stroke="#636363" stroke-linecap="round" stroke-linejoin="round" stroke-width="3.56"/><path d="M828.25,678.77s9-10.1.84-33.58" fill="none" stroke="#636363" stroke-linecap="round" stroke-linejoin="round" stroke-width="3.56"/><path d="M821,633.81s10.16-28.22-4.81-30.63" fill="none" stroke="#636363" stroke-linecap="round" stroke-linejoin="round" stroke-width="3.56"/><path d="M826.6,632.65s8.36-15.24-5.41-20.91" fill="none" stroke="#636363" stroke-linecap="round" stroke-linejoin="round" stroke-width="3.56"/><path d="M835.82,681.88s6-18.85-4.19-25.9" fill="none" stroke="#636363" stroke-linecap="round" stroke-linejoin="round" stroke-width="3.56"/><path d="M802.67,592s1.3-14.67-19.08-14.54" fill="none" stroke="#636363" stroke-linecap="round" stroke-linejoin="round" stroke-width="3.56"/><path d="M804.78,586.89s.83-8-13.19-6.77" fill="none" stroke="#636363" stroke-linecap="round" stroke-linejoin="round" stroke-width="3.56"/><path d="M765.21,575.13s-6.12-15-22.08-13.59" fill="none" stroke="#636363" stroke-linecap="round" stroke-linejoin="round" stroke-width="3.56"/><path d="M770,572.23s-4.33-9.24-17.73-7.35" fill="none" stroke="#636363" stroke-linecap="round" stroke-linejoin="round" stroke-width="3.56"/><path d="M730.74,558.38s-5.85-11.92-20.63-9.28" fill="none" stroke="#636363" stroke-linecap="round" stroke-linejoin="round" stroke-width="3.56"/></svg>