<svg xmlns="http://www.w3.org/2000/svg" width="1000" height="1550" viewBox="0 0 1000 1550"><path fill="#fff" d="M448.14 549.5l-56.05 35.71 63.78 25.4 55.57-35.2-63.3-25.91z"/><path d="M752.22 1043c-3.84-55.87-22.89-124.63-22.89-124.63s-14.58-307-52.88-331.94c-10.88-7.11-148.63-58.32-148.63-58.32S481 594 453.05 594s-78.7-51.13-82.82-63.28a12.42 12.42 0 01-.75-2.59c-1 .65-106.06 65.79-150.57 92.61C174.18 647.69 192.24 945 192.24 945a619.73 619.73 0 00-3.6 128.12c5.52 68.42-1.88 179.2 14.45 197.93l61-1.5s-5.61-14.34-4.66-27c2.28-30.22 5.54-104.26 15.36-135.21 4.92-15.48 9.79-35.43 13.93-53.64h.07c-21.87 96-7.88 262.6-7.88 262.6s90.73 3.82 167.72 2.9c137.53-1.66 238.54-18.26 238.54-18.26s-6.84-162.07-15.76-216.47h0c15.34 46.59 30.51 103 32.37 132.82 1.63 26.39 2.88 34.36 2.88 34.36h58.1s4.49-6.66 5.3-18.88-12.27-108.51-17.84-189.77z" fill="#262521" stroke="#262521" stroke-linecap="round" stroke-linejoin="round" stroke-width="3"/><path d="M280.87 1316.32s90.73 3.82 167.72 2.9c137.53-1.66 238.54-18.26 238.54-18.26" fill="none" stroke="#636363" stroke-linecap="round" stroke-linejoin="round"/><path d="M384.43 505.56c-9.76.89-16.24 2.61-18.33 5.58-7.68 10.89-16.72 12.57-16.72 12.57s-19.3 5.48-26.11 10.22c-9.13 6.35-25.57 26.91-20.95 35.37 41.38 4.29 141.28 80.7 155.57 80.49 8.12-.12 53.71-61.83 95.26-84.57 19.67-10.76 35.74-11.81 37.73-12.43 6.77-2.12-2-4.86-9.3-9.27s-6.69-11.52-9.47-16.86-13.87-2-13.87-2-.45-1.75-13.18-13.56-20.95-10.07-31-9.79l3.76 20.56c8.3 2.91 15.06 9.07 12.58 16.37-3.23 9.52-59.78 86.62-74.16 86.85s-88.64-82.13-90.61-90.35c-1.6-6.7 8.47-3.26 15.36-11.17z" fill="#262521" stroke="#262521" stroke-linecap="round" stroke-linejoin="round" stroke-width="3"/><path d="M302.32 569.3c41.38 4.29 139.59 56 153.88 55.75 8.12-.13 55.4-37.09 96.95-59.83 19.67-10.76 35.74-11.81 37.73-12.43" fill="none" stroke="#636363" stroke-linecap="round" stroke-linejoin="round" stroke-width="1.34" opacity=".95"/><path d="M486.33 596c4.41 20.8 7.25 41.92 9.77 63 3.2 26.78 5.71 53.65 7.95 80.53 2.38 28.67 4.43 57.37 6.32 86.08q2.65 40.38 5 80.78c1.26 21.45 2.48 42.91 3.88 64.35.14 2.09.27 4.17.41 6.26.26 3.83 6.27 3.86 6 0-1.39-20.66-2.57-41.33-3.78-62q-2.34-39.72-4.83-79.42c-1.86-28.87-3.87-57.73-6.2-86.57-2.2-27.28-4.65-54.53-7.75-81.72-2.53-22.21-5.37-44.44-9.63-66.4q-.63-3.25-1.32-6.49c-.8-3.78-6.58-2.18-5.79 1.59z" fill="#fff"/><path fill="none" stroke="#fff" stroke-linecap="round" stroke-linejoin="round" stroke-width="2" d="M522.63 973.27l1.47 17.71"/><path d="M411.9 601.2c-1.28 21.91-1.52 43.89-1.52 65.84 0 26.13.47 52.27 1.05 78.4.61 27.22 1.37 54.44 2.07 81.66.66 25.4 1.28 50.8 1.57 76.21.24 20.59.33 41.21-.46 61.8q-.12 3.15-.28 6.3c-.19 3.86 5.81 3.85 6 0 1-19.83 1-39.72.83-59.58-.21-25.06-.78-50.12-1.41-75.18-.69-27.16-1.46-54.32-2.1-81.48-.62-26.35-1.13-52.7-1.25-79-.09-22.56.05-45.13 1.12-67.66q.17-3.63.38-7.26c.23-3.86-5.77-3.85-6 0z" fill="#fff"/><path fill="none" stroke="#fff" stroke-linecap="round" stroke-linejoin="round" stroke-width="2" d="M417.6 965.8l-1.18 20.4"/><ellipse cx="523.87" cy="550.95" rx="6.38" ry="3.33" transform="rotate(-33.2 518.404 546.8)" fill="none" opacity=".95" stroke-linecap="round" stroke-linejoin="round" stroke-width="2" stroke="#7c7c7c"/><ellipse cx="533.46" cy="561.3" rx="6.38" ry="3.2" transform="rotate(-33.05 533.407 561.266)" fill="none" opacity=".95" stroke-linecap="round" stroke-linejoin="round" stroke-width="2" stroke="#7c7c7c"/><ellipse cx="543.46" cy="529.54" rx="6.38" ry="5.28" transform="rotate(-78.97 543.48 529.543)" fill="none" opacity=".95" stroke-linecap="round" stroke-linejoin="round" stroke-width="2" stroke="#7c7c7c"/><ellipse cx="562.72" cy="544.37" rx="6.38" ry="4.87" transform="rotate(-23.23 562.759 544.399)" fill="none" opacity=".95" stroke-linecap="round" stroke-linejoin="round" stroke-width="2" stroke="#7c7c7c"/><ellipse cx="499.27" cy="574.55" rx="6.38" ry="2.59" transform="rotate(-33.05 499.22 574.52)" fill="none" opacity=".95" stroke-linecap="round" stroke-linejoin="round" stroke-width="2" stroke="#7c7c7c"/><ellipse cx="507.5" cy="582.77" rx="6.38" ry="2.25" transform="rotate(-33.05 507.453 582.738)" fill="none" opacity=".95" stroke-linecap="round" stroke-linejoin="round" stroke-width="2" stroke="#7c7c7c"/><ellipse cx="407.22" cy="581.37" rx="1.97" ry="6.38" transform="rotate(-63.05 407.19 581.36)" fill="none" opacity=".95" stroke-linecap="round" stroke-linejoin="round" stroke-width="2" stroke="#7c7c7c"/><ellipse cx="399.86" cy="589.97" rx="2.13" ry="6.38" transform="rotate(-63.05 399.828 589.96)" fill="none" opacity=".95" stroke-linecap="round" stroke-linejoin="round" stroke-width="2" stroke="#7c7c7c"/><ellipse cx="377.89" cy="561.61" rx="3.42" ry="6.38" transform="rotate(-63.05 377.86 561.597)" fill="none" opacity=".95" stroke-linecap="round" stroke-linejoin="round" stroke-width="2" stroke="#7c7c7c"/><ellipse cx="369.36" cy="573.11" rx="3.35" ry="6.38" transform="rotate(-63.05 369.333 573.104)" fill="none" opacity=".95" stroke-linecap="round" stroke-linejoin="round" stroke-width="2" stroke="#7c7c7c"/><ellipse cx="352.06" cy="540.64" rx="5.55" ry="6.38" transform="rotate(-18.99 352.046 540.622)" fill="none" opacity=".95" stroke-linecap="round" stroke-linejoin="round" stroke-width="2" stroke="#7c7c7c"/><ellipse cx="334.63" cy="557.45" rx="5.54" ry="6.38" transform="rotate(-67.64 334.65 557.466)" fill="none" opacity=".95" stroke-linecap="round" stroke-linejoin="round" stroke-width="2" stroke="#7c7c7c"/><path d="M499.92 575.17a28.71 28.71 0 016.72 7.1M523.7 550.93s5.83 2.67 9.78 10.41M542.49 529.32A34.84 34.84 0 01563 545.1M406.32 582a28.72 28.72 0 00-5.93 7.77M377.93 561.64s-5.52 3.28-8.62 11.39M352.64 540.39s-11.11.92-18.67 17.86" fill="none" stroke="#fff" stroke-linecap="round" stroke-linejoin="round" stroke-width="6"/><circle cx="429.19" cy="675.95" r="6.38" fill="none" stroke="#7c7c7c" stroke-linecap="round" stroke-linejoin="round" stroke-width="2" opacity=".95"/><circle cx="482.85" cy="673.09" r="6.38" fill="none" stroke="#7c7c7c" stroke-linecap="round" stroke-linejoin="round" stroke-width="2" opacity=".95"/><path d="M429.19 676s32-7.28 53.66-2.86" fill="none" stroke="#fff" stroke-linecap="round" stroke-linejoin="round" stroke-width="6"/><circle cx="432.22" cy="732.87" r="6.38" fill="none" stroke="#7c7c7c" stroke-linecap="round" stroke-linejoin="round" stroke-width="2" opacity=".95"/><circle cx="485.88" cy="730.01" r="6.38" fill="none" stroke="#7c7c7c" stroke-linecap="round" stroke-linejoin="round" stroke-width="2" opacity=".95"/><path d="M432.22 732.87s32-7.28 53.66-2.86" fill="none" stroke="#fff" stroke-linecap="round" stroke-linejoin="round" stroke-width="6"/><circle cx="435.11" cy="787.07" r="6.38" fill="none" stroke="#7c7c7c" stroke-linecap="round" stroke-linejoin="round" stroke-width="2" opacity=".95"/><circle cx="488.76" cy="784.21" r="6.38" fill="none" stroke="#7c7c7c" stroke-linecap="round" stroke-linejoin="round" stroke-width="2" opacity=".95"/><path d="M435.11 787.07s32-7.27 53.65-2.86" fill="none" stroke="#fff" stroke-linecap="round" stroke-linejoin="round" stroke-width="6"/><circle cx="437.98" cy="840.95" r="6.38" fill="none" stroke="#7c7c7c" stroke-linecap="round" stroke-linejoin="round" stroke-width="2" opacity=".95"/><circle cx="491.63" cy="838.09" r="6.38" fill="none" stroke="#7c7c7c" stroke-linecap="round" stroke-linejoin="round" stroke-width="2" opacity=".95"/><path d="M438 841s32-7.27 53.65-2.86" fill="none" stroke="#fff" stroke-linecap="round" stroke-linejoin="round" stroke-width="6"/><circle cx="441.26" cy="902.64" r="6.38" fill="none" stroke="#7c7c7c" stroke-linecap="round" stroke-linejoin="round" stroke-width="2" opacity=".95"/><circle cx="494.91" cy="899.78" r="6.38" fill="none" stroke="#7c7c7c" stroke-linecap="round" stroke-linejoin="round" stroke-width="2" opacity=".95"/><path d="M441.26 902.64s32-7.27 53.65-2.86" fill="none" stroke="#fff" stroke-linecap="round" stroke-linejoin="round" stroke-width="6"/><circle cx="444.56" cy="964.59" r="6.38" fill="none" stroke="#7c7c7c" stroke-linecap="round" stroke-linejoin="round" stroke-width="2" opacity=".95"/><circle cx="498.21" cy="961.73" r="6.38" fill="none" stroke="#7c7c7c" stroke-linecap="round" stroke-linejoin="round" stroke-width="2" opacity=".95"/><path d="M444.56 964.59s32-7.28 53.65-2.86" fill="none" stroke="#fff" stroke-linecap="round" stroke-linejoin="round" stroke-width="6"/><circle cx="447.85" cy="1026.36" r="6.38" fill="none" stroke="#7c7c7c" stroke-linecap="round" stroke-linejoin="round" stroke-width="2" opacity=".95"/><circle cx="501.5" cy="1023.5" r="6.38" fill="none" stroke="#7c7c7c" stroke-linecap="round" stroke-linejoin="round" stroke-width="2" opacity=".95"/><path d="M447.85 1026.36s32-7.28 53.65-2.86" fill="none" stroke="#fff" stroke-linecap="round" stroke-linejoin="round" stroke-width="6"/><circle cx="451.28" cy="1090.82" r="6.38" fill="none" stroke="#7c7c7c" stroke-linecap="round" stroke-linejoin="round" stroke-width="2" opacity=".95"/><circle cx="504.93" cy="1087.96" r="6.38" fill="none" stroke="#7c7c7c" stroke-linecap="round" stroke-linejoin="round" stroke-width="2" opacity=".95"/><path d="M451.28 1090.82s32-7.28 53.65-2.86" fill="none" stroke="#fff" stroke-linecap="round" stroke-linejoin="round" stroke-width="6"/><circle cx="454.71" cy="1155.17" r="6.38" fill="none" stroke="#7c7c7c" stroke-linecap="round" stroke-linejoin="round" stroke-width="2" opacity=".95"/><circle cx="508.36" cy="1152.31" r="6.38" fill="none" stroke="#7c7c7c" stroke-linecap="round" stroke-linejoin="round" stroke-width="2" opacity=".95"/><path d="M454.71 1155.17s32-7.27 53.65-2.86" fill="none" stroke="#fff" stroke-linecap="round" stroke-linejoin="round" stroke-width="6"/><circle cx="457.96" cy="1216.23" r="6.38" fill="none" stroke="#7c7c7c" stroke-linecap="round" stroke-linejoin="round" stroke-width="2" opacity=".95"/><circle cx="511.61" cy="1213.37" r="6.38" fill="none" stroke="#7c7c7c" stroke-linecap="round" stroke-linejoin="round" stroke-width="2" opacity=".95"/><path d="M458 1216.23s32-7.28 53.65-2.86" fill="none" stroke="#fff" stroke-linecap="round" stroke-linejoin="round" stroke-width="6"/></svg>