<svg xmlns="http://www.w3.org/2000/svg" width="1000" height="1550" viewBox="0 0 1000 1550"><defs><clipPath id="a"><path d="M676.45 586.43c-10.88-7.11-148.63-58.32-148.63-58.32s4.72 52.64-75.63 52.64c-65.09 0-77.84-37.88-82-50a12.42 12.42 0 01-.75-2.59c-1 .66-106.06 65.8-150.57 92.61 27 32.14 66.73 186.85 66.73 186.85l3.3 245 380.93 27.25-29.47-272.28s17.45-175.36 36.09-221.16z" fill="none"/></clipPath></defs><path d="M279.43 1264.5L676 1248.11l22.8 267.08c-209.14 38.46-397.55 3.91-397.55 3.91zM369.48 528.13h0s.01-.03 0 0z" fill="#262521" stroke="#262521" stroke-linecap="round" stroke-linejoin="round" stroke-width="3"/><path d="M752.22 1043c-3.84-55.87-22.89-124.63-22.89-124.63s-14.58-307-52.88-331.94c-10.88-7.11-148.63-58.32-148.63-58.32s4.72 52.64-75.63 52.64c-65.09 0-77.84-37.88-82-50a12.42 12.42 0 01-.75-2.59c-1 .65-106.06 65.79-150.57 92.61C174.18 647.69 192.24 945 192.24 945a619.73 619.73 0 00-3.6 128.12c5.52 68.42-1.88 179.2 14.45 197.93l61-1.5s-5.61-14.34-4.66-27c2.28-30.22 5.54-104.26 15.36-135.21 4.92-15.48 9.79-35.43 13.93-53.64h.07c-3.9 34-21.64 134.69-10.44 159.44.05 13-2.35 59.86-2.35 59.86s88.48 20.67 165.47 19.75c137.53-1.66 242.89-30.38 242.89-30.38s-3.23-43.82-4-57.41c8.41-14.52 0-66.09-9-120.49h0c15.34 46.59 30.51 103 32.37 132.82 1.63 26.39 2.88 34.36 2.88 34.36h58.1s4.49-6.66 5.3-18.88-12.22-108.51-17.79-189.77z" fill="#262521" stroke="#262521" stroke-linecap="round" stroke-linejoin="round" stroke-width="3"/><g clip-path="url(#a)"><path fill="#fff" d="M406.88 602.09l8.26 3.03-13.19 20.6 10.64-2.78-31.49 37.57 14.78-27.17-7.89 2.96 18.89-34.21zM428.48 608.12l8.72 1.17-8.4 22.97 9.77-5.02-22.59 43.5 8.53-29.73-7.06 4.61 11.03-37.5zM496.58 668.38l13.14-3.96 2.85 38.04 10.66-13.42-4.09 76.33-7.01-47.72-7.06 11.09-8.49-60.36zM483.48 776.41l23.5-3.9-5.62 51.8 24.05-16.38-21.78 137.38-1.22-95.79-17.57 18.06-1.36-91.17zM535.05 765.21l22.35-8.25 4.22 51.93 20.53-20.61 4.46 139.02-19.22-93.85-13.86 21.05-18.48-89.29zM590.75 741.54l20.4-12.29 13.88 50.22 16.31-24.1 30.44 135.72-36.47-88.58-9.67 23.27-34.89-84.24zM637.84 709.49l17.32-16.35 24.25 46.11 10.81-27.01 58.63 126.13-54.49-78.79-4.49 24.8-52.03-74.89zM425.3 777.44l23.8.96-16.04 49.58 26.88-11.15-49.25 130.08 18.28-94.04-20.88 14.12 17.21-89.55zM367.41 766.25l23.1 5.8-25.83 45.26 28.59-5.43-74.8 117.28 37.11-88.32-23.32 9.55 35.15-84.14zM260.82 706.89l18.48 15.02L236.75 752l28.2 7.17-117.37 74.64 70.98-64.34-25.17-1.2 67.43-61.38zM309.03 741.34l21.09 11.08-35.76 37.89 29.06 1.46-100.31 96.36 56.87-77.09-24.92 3.79 53.97-73.49zM451.35 609.42l8.8-.42-4.15 24.11 8.72-6.69-14.42 46.85 3.06-30.78-6.12 5.8 4.11-38.87zM388.36 592.27l7.31 4.91-17.72 16.87 11-.16-39.53 28.99 20.82-22.87-8.37 1 26.49-28.74zM373.61 579.74l6.07 6.38-20.95 12.64 10.77 2.21-44.86 19.76 25.27-17.83-8.39-.83 32.09-22.33zM363.19 564.78l4.5 7.57-23.23 7.67 10.01 4.55-48.14 9.29 28.61-11.77-8-2.67 36.25-14.64zM355.74 548.53l3.03 8.27-24.25 3.24 9 6.32-49.02.24 30.28-6.27-7.36-4.11 38.32-7.69zM472.83 607.72l8.56-2.05.42 24.46 7.32-8.21-5.42 48.72-2.74-30.81-4.92 6.84-3.22-38.95zM493.33 602.58l7.97-3.75 5.38 23.86 5.49-9.52 4.59 48.81-8.94-29.61-3.43 7.7-11.06-37.49zM513.66 592.17l6.97-5.39 10.44 22.12 3.3-10.49 15.09 46.64-15.17-26.95-1.67 8.26-18.96-34.19zM529.58 578.07l5.62-6.78 15.03 19.31.92-10.96 24.92 42.22-20.69-22.99.17 8.42-25.97-29.22zM539.54 564.95l4.16-7.77 18.56 15.93-1.27-10.92 32.82 36.42-24.85-18.42 1.84 8.22-31.26-23.46zM547.58 549.32l2.48-8.45 21.42 11.81-3.47-10.43 39.55 28.96-28.08-12.96 3.48 7.67-35.38-16.6zM461.79 673.72l14.06-1.43-4.56 38.99 13.39-11.48-19.05 76.31 2.24-49.58-9.3 9.83 3.22-62.64zM424.92 672.74l14.07 1.29-11.93 37.39 15.34-8.71-33.29 71.27 11.68-48.24-11.01 7.87 15.14-60.87zM354.94 647.88l12.23 7.08-26.54 28.92 17.58-1.46-60.16 50.68 30.87-38.86-13.29 2.51 39.31-48.87zM389.41 664.39l13.47 4.25-19.63 33.99 16.85-5.23-47.73 62.52 21.7-44.63-12.43 5.33 27.77-56.23zM328.47 626.63l10.29 9.68-32.42 22.12 17.45 2.58-70.11 35.66 38.9-30.82-13.51-.58 49.4-38.64zM292.2 576.66l6.58 12.5-37.86 10.35 15.65 8.12-77.9 10.87 46.82-16.46-12.59-4.95 59.3-20.43zM306.95 601.13l8.3 11.43-35.98 15.68 16.66 5.79-75.54 21.94 43.97-23.01-13.17-3.1 55.76-28.73zM529.73 656.38l12.37-6.81 11.07 37.65 7.83-15.8 12.36 77.68L556 702.6l-4.71 12.68-21.56-58.9zM561.24 636.49l10.61-9.33 18.93 34.38 4.23-17.12 28.83 73.19-26.98-41.66-1.86 13.4-33.76-52.86zM583.45 614.82l8.86-11.01 24.55 30.63 1.23-17.6L659.04 684l-33.72-36.41.46 13.51-42.33-46.28zM601.84 589.36l6.83-12.37 29.45 25.95-1.81-17.54 51.88 59.12-39.48-30.08 2.78 13.24-49.65-38.32z"/><path d="M285.64 807.59s5.34 199.1 3.82 238.13c-.83 21.49-23.46 140.26-11.15 167.44.05 13-2.35 59.86-2.35 59.86s88.48 20.67 165.47 19.75c137.53-1.66 242.89-30.38 242.89-30.38s-3.23-43.82-4-57.41c14.49-25-21.06-160.16-22.86-230.12-1.22-47.58-16.1-167.27-16.1-167.27" fill="none" stroke="#262521" stroke-linecap="round" stroke-linejoin="round" stroke-width="3"/></g><path d="M369.48 528.13s.01-.03 0 0z" fill="#262521"/><path d="M285.64 807.59s5.34 199.1 3.82 238.13c-.83 21.49-23.46 140.26-11.15 167.44.05 13-2.35 59.86-2.35 59.86s88.48 20.67 165.47 19.75c137.53-1.66 242.89-30.38 242.89-30.38s-3.23-43.82-4-57.41c14.49-25-21.06-160.16-22.86-230.12-1.22-47.58-16.1-167.27-16.1-167.27" fill="none" stroke="#262521" stroke-linecap="round" stroke-linejoin="round" stroke-width="3"/><path d="M276 1273s88.48 20.67 165.47 19.75c137.53-1.66 242.89-30.38 242.89-30.38" fill="none" stroke="#636363" stroke-linecap="round" stroke-linejoin="round"/><path d="M527.83 528.11s137.74 51.21 148.62 58.32M192.24 945s-18.06-297.33 26.67-324.28 150.6-92.63 150.6-92.63" fill="none" stroke="#262521" stroke-linecap="round" stroke-linejoin="round" stroke-width="3"/></svg>