<svg xmlns="http://www.w3.org/2000/svg" width="1250" height="1550" viewBox="0 0 1250 1550"><title>s05e09-02</title><path d="M484.33,556.77c-137.92,66-83.67,318.44-83.67,318.44l410.13-12.48C824.1,655.15,670.2,550,670.2,550S609.24,655.15,484.33,556.77Z" fill="#fff"/><rect x="549.47" y="1235.07" width="269" height="341.83" transform="translate(-97.8 51.94) rotate(-4.06)" fill="#ffc702"/><path d="M602,1573.13,605.41,1345l25.52-8.68,31.61,236.79H822.27L790.8,1106s-44.56-4.3-186.47.2-161.49,4.13-176.29,23.62c-56.9,78.8,6,328.11,12.13,443.29Z" fill="#fff" stroke="#262521" stroke-linecap="round" stroke-linejoin="round" stroke-width="3"/><path d="M456.42,1578.58C452.09,1466,386.22,1209.9,444,1129.84" fill="none" stroke="#262521" stroke-linecap="round" stroke-linejoin="round" stroke-width="3"/><path d="M491.85,533.24l0,0S491.86,533.2,491.85,533.24Z" fill="#3d664a"/><path d="M879.72,1045c-3.84-55.87-22.89-124.63-22.89-124.63s-14.58-307-52.88-331.94c-10.88-7.11-142.29-56.21-142.29-56.21s-2.49,55-82.84,55c-65.09,0-82.1-39.23-86.22-51.38a11.73,11.73,0,0,1-.75-2.59c-1,.64-100.94,62.69-145.44,89.5C301.68,649.69,319.74,947,319.74,947a619.73,619.73,0,0,0-3.6,128.12c.91,11.33,1.47,23.83,1.84,36.88,8.89,15.36,65.22,26.13,77.78,29.11,1.78-12.52,3.91-23.64,6.49-31.78,9.83-31,21.45-88.33,21.45-88.33L413.14,809.59S397.66,643.54,494,574.29c0,0,16.93,35.49,86.59,35.49s90.36-44.88,90.36-44.88c95.46,53.88,97.93,244.69,97.93,244.69l14.35,232.5c9,22.79,21.21,59.81,31.09,95.55,3.67-.31,7.34-.78,11-1.4a149,149,0,0,0,42.6-14.35,151.15,151.15,0,0,0,17.5-10.53C883.23,1089.42,881.2,1066.67,879.72,1045Z" fill="#3d664a"/><path d="M423.7,1021c-6.07,38.77-20.52,80.77-27.94,120.11,0,0-59.32-8.41-78.48-28.36,0,0-2.37-49.55-3-72-.65-22.21.7-44.41,2.48-66.55.9-11.21,2.44-22.51,2.83-33.76.38-10.83-1.16-22-1.69-32.88-1.07-22.14-1.85-44.31-2.14-66.48-.6-44.57.78-89.21,5.45-133.56,2-18.58,3.46-38,8.48-56.06,2.28-8.2,5.61-16.2,10.82-23,6.08-7.92,16.59-12.33,25-17.44,37.67-22.79,75.56-45.22,112.64-69q6.87-4.41,13.72-8.88c.77,3.15-1.74,1.31,0,0,6.67,27.31,30.83,44.6,56.92,51.21,28.8,7.31,60.31,5.4,85.86-10.78A59.36,59.36,0,0,0,652.6,556.7c5.23-7.75,7.63-15.31,9.06-24.48a10.63,10.63,0,0,1,1.83.7c-.61-.22-1.23-.44-1.83-.7,14,5.57,28,10.57,42,15.57,4,2,9,4,13,6,7,1,12,4,19,7q27,9,54,21c6,2,13,4,18,10,10,12,13,26,16,40,24,98,28,192,33,289,9,33,17,65,21,99,3,31,5,61,8,91-20,17-46,22-71,26-9-32-21-63-31.42-94.7" fill="none" stroke="#262521" stroke-linecap="round" stroke-linejoin="round" stroke-width="3"/><path d="M413.14,809.59s5.34,199.1,3.82,238.13c-.83,21.49-14.5,57.74-2.19,84.92,0,6,83.58,26.51,176.48,25.59,106.33-1,203.23-23.71,202.81-31,14.5-25-7.3-80.44-9.1-150.4-1.22-47.58-16.1-167.27-16.1-167.27" fill="#fff" stroke="#262521" stroke-linecap="round" stroke-linejoin="round" stroke-width="3"/><path d="M700.31,703.49s10.47-.83,15.15.65c0,0-3.35-12.6-21.76-1.57,0,0-.08-6.76,4.26-6.65l6.63.18-2.5-2.07,8.66.73s-4.24-13.63-15.46-3.91c0,0-5.36-.14-1.42-4.3s.38-5,.38-5-8.07,6.29-7.86,8.05,2.56,9.08,2.52,10.83-9.38-12.26-12.17-12.83l2.79.57a8.92,8.92,0,0,0-6-6.41c-5.06-1.64-21.93-.58-21.93-.58s2.73-6.69,5-5.37a20.77,20.77,0,0,1,4,3.11s-.17-3,.59-3,15.68,5.66,15.68,5.66-8.63-11.49-16-11.18-12.52,10.19-12.52,10.19.48-8.75,5.15-11.64c0,0-13.3-4-9.93,11.17,0,0-6.67-6.18-7.92-6.22s-9.78,4.27-9.78,4.27l3.15,1.57s-6.77,4.35-6.9,9c0,0,5,1.61,5.4-.56a3.45,3.45,0,0,1,2.24-2.73l.69,4s2.33-4,3.13-4.25,1,3.08,1.43,3.09,2-3.6,3.82-3.56a4,4,0,0,1,2.31.5l-.08,2.87s-10.41,3.91-10.5,7.39.62,10.11.62,10.11,4.15-10.86,6-11.25c-.18,7-1.09,19.4,3.19,19.51l.18-6.88,1.85.05s1.4-19.1,3.2-19.81-1.38,13.73.57,17.29,5.62,9.65,5.62,9.65-.2-12,.32-12.5,5,14.18,11.11,14.45c0,0,15,36.29,5.78,62.9s12.61-2.31,12.61-2.31l-.8-10.95s11.41-17,12-30.48.58-22,.58-22,11.22,10.1,13.67,14.15c0,0,2-8.49-14-20.42,0,0,7.44-1.31,21.9,11.84C715,718.9,717.49,710.45,700.31,703.49Zm-37.1-17.89,7.63,1.39s6.66,5.12,6.29,6.83-4.62.63-5.92-.16-6.22-5.21-7.52-5.79S663.21,685.6,663.21,685.6Zm10.27,17.9s-4.06.22-4.81-2.6-11.73-10.52-11.73-10.52C677.23,702.63,673.48,703.5,673.48,703.5Zm6.07,54.44-1.91-.05s-1.27-18.6-5.29-28.13-16.8-36.3-16.8-36.3,9.11,12.07,10.47,14.25a33.77,33.77,0,0,0,5.12,5.4s-3.1,5.73-1.88,7c0,0,3.81-1.09,5-3.53s9.18-7.28,10.6-7.24c0,0-1.23,9.42-.33,12.67s2.79,7.3,4.41,8.14C688.91,730.2,690.86,746.3,679.55,757.94Z" fill="#262521"/><path d="M626.61,717.62c-.47-2.62-2.84-5.73-7.94-5.86-2.3-.06-4.36.86-7.81,3.29a9.36,9.36,0,0,0-2.16-8.24c-2.94-3.29-8-4.31-12.7-2.52-5.09,2-8.16,4.21-14.08,8.74a16.91,16.91,0,0,0-6.64,13.33l-1.95,1.5c-.47-.24-.94-.45-1.42-.64,2.3-5.73,5.37-13.53,6.31-16.61.76-2.45,2.85-12.56-.6-17.24a6.86,6.86,0,0,0-5.42-2.82c-7.86-.39-9.69,7.11-12.29,17.47a70,70,0,0,1-7.53,18.07l-4.6-3.73c-.14-.37-2.28-4.19-4.82-5.25-6.24-2.62-13.12,1.89-17.81,5.65-11.51,9.23-14.31,18.34-15,22.6-9.25,11.21-19,11.45-19.29,11.46h-.15c-1,0-1.3-.29-1.49-.48-2.87-2.91-2.4-13.85-2.17-19.1.07-1.67.13-3.24.14-4.59.73-17.83,9.41-24.6,13.33-26.75a8.66,8.66,0,0,0,9.62,6.06c2-.32,5.54-1.65,7.52-6.91,2.07-5.5-1.22-12-7.81-15.37-8.54-4.42-21.89-3.29-33.74,13.12l-.1.14c-10.55,15.55-11.15,41.78-8.49,50.91,3.85,13.23,12.34,20.88,23.15,21.16a24.52,24.52,0,0,0,4.07-.23c10.27-1.4,19-8.9,24.16-14.27a13.33,13.33,0,0,0,5.66,1.52c3.56.17,7.32-2,11.23-6.46a10.65,10.65,0,0,0,6.44,2.28c3.1,0,6.17-1.75,9-4.42a18.33,18.33,0,0,0,4.88,12.84,13.6,13.6,0,0,0,9.68,4.62c8.67,0,15.73-12.95,17-22.21a26.76,26.76,0,0,0,0-7.38c3.28,2.59,7.68,4.73,12.62,3.59,4.79-1.11,10.82-6.17,19.48-13.75,2.15-1.89,5.06-4.44,6.1-5.13C625.88,724,627.1,720.38,626.61,717.62Z" fill="#fff" stroke="#262521" stroke-linejoin="round" stroke-width="2.02"/><path d="M618.51,717.76c-2.75-.08-16.3,12.53-22.1,15.08s-7.16-4.18-7.16-4.18,11.88-7.47,14.76-12.58-1.55-7.82-5.78-6.2-6.81,3.49-12.55,7.88-4,11.35-4,11.35l-8.32,6.37c-2.33-3.63-9.72-4-9.72-4s7.32-17.89,8.77-22.6,1.42-12.28-.23-12.33-2.84-.83-6.29,12.91a79.77,79.77,0,0,1-14.75,29.22c-3.53,4.23-7.74,5.09-8.84,1s3.48-11.15,3.48-11.15l-3.45-2.79s-.21-8.76-13.26,1.7-13,20.28-13,20.28c-11.75,15.36-25.3,15.14-25.3,15.14-12.78.09-9.69-21.65-9.69-30.3,1-25.9,17.5-33,20.27-33.39s6,1.24,5.08,3.7,3.37,5.81,5.5.14c2.39-6.35-14.5-19.29-30.82,3.3-9.51,14-9.82,38.64-7.7,45.93,1.89,6.53,7.23,18.45,20.49,16.64s24.67-17.29,24.67-17.29a7.07,7.07,0,0,0,6.29,4.49c4.84.23,12.93-14.14,12.93-14.14-1.45,9,3.14,9.94,4.48,10,5.18,0,13.7-14.79,13.7-14.79,3.08.19,2.1,8.83,1.48,15.62s4.42,12.21,8.38,12.21,9.82-8.82,10.91-17-2.14-10.76-2.14-10.76l7.52-5.31s6,8.59,11.93,7.23,21.5-17.37,24.39-18.49S621.26,717.83,618.51,717.76ZM531.8,743.58c-4.35,6.44-10.13,8.27-9.63,1.8S537.7,728.5,537.7,728.5C538.93,732,536.38,736.78,531.8,743.58Zm35.33,13.78a5,5,0,0,1-4.61-5l.3-11.23s9.57-3.53,9.31,6.29C572,753.6,569.22,757.31,567.13,757.36Zm26.36-41c5.71-3.74,6.47-1.29,4.26,1.08s-9.1,6.89-9.1,6.89S587.77,720.14,593.49,716.4Z" fill="#328d57"/><path d="M743.83,783.92c-2.89-3.42-6.47-5.51-9.83-5.73-6.22-.4-10.67,5.08-16.26,12-.2.25-.41.5-.61.76-.17-.61-.33-1.27-.47-1.92,3.23-5.28,8.75-14.6,9.61-17.93.8-3.09,4.43-18.74-2.93-23.11-2.4-1.41-6.38-2.11-11.7,2.62-7.44,6.6-10.34,20.34-11.47,30.29a7.8,7.8,0,0,0-1.11-1.72c.12-2.9-.48-6.74-3.85-9.12-5.7-4-13.56.2-19,3.71-8.65,5.61-13.44,10.84-16.07,15.13a6,6,0,0,0,.11-1v-.21c.06-1.94.26-7.84-4.71-10.43-5.18-2.71-11.21.82-15.3,3.72a36.34,36.34,0,0,0-11.58,13.45,11.64,11.64,0,0,0-1.69-5.58,9.94,9.94,0,0,0,4.37-5.16,9.28,9.28,0,0,0-5.31-12.1,9.55,9.55,0,0,0-12,5.93,9.65,9.65,0,0,0,.7,8.29c-5.3,2.16-8.64,7.19-10.71,12.23a11.26,11.26,0,0,0-.51-1.84,7.67,7.67,0,0,0-5.88-5.07,9.15,9.15,0,0,0-5.53,1.14c1.08-2.68,1.45-5,0-7.43a6.83,6.83,0,0,0-6-3.14c-7.61-.2-11.48,8.25-16.84,19.95-1.58,3.45-3.22,7-5,10.51q-1,2-1.95,3.63a15.88,15.88,0,0,0-4.48-7.75,13.11,13.11,0,0,0-2.12-1.6l-2.28-1.11a14.07,14.07,0,0,0-7-.72l-.32.06c-14.13,3.42-19.06,25-20.24,31.44-.27.31-.55.61-.83.92,0-.43.07-.86.11-1.28,3.24-8.34,3.77-13.37-1.82-17.38-1.86-1.33-4.58-3.29-16.65,4a6.56,6.56,0,0,0-1.91-.19c-5.81.31-9.16,7.72-9.89,14.93-.2,1.88-.77,7.44,2.84,10.77-.4,1.34-1,3.26-2.06,6-1.94,5.1-5.31,7.07-7.29,7.6-.47-5.09.28-18.44,2.79-37.58,1.49-11.34,7.48-13.34,8.28-13.55,0,0,6.09,1.86,6.43-.67s-2.26-6.34-2.26-6.34a15.13,15.13,0,0,0-3.06-5c2.19-.77,4.18-1.45,5.91-2,1,6.32,4.56,12.06,7.87,14.65,4.28,3.35,7.89,1.72,8.89,1.14,2.19-1.27,5.37-4.29,2.08-10.38a10,10,0,0,1-1.45-6.82,28.15,28.15,0,0,1,2.53-4.74c2.69-4.46,5.47-9.07,4.26-13.68a8.31,8.31,0,0,0-4-5.16,9.92,9.92,0,0,0-8.13-.91c-3.79,1.24-6.4,4.6-7.87,7-9.43,2.22-42.29,10.8-61.35,26.64-12.54,10.43-14.08,20.65-13.17,27.39,1.19,8.86,7.23,15.53,10.93,17.24a21,21,0,0,0,8.12,2c3.73.1,7.09-1.06,8.71-4a6.22,6.22,0,0,0,.15-5.75c-1.7-3.45-5.77-4.45-10.15-5.25-.82-.14-1.74-.31-1.47-2.8.42-4,6.54-16.79,21.44-24.24a27.87,27.87,0,0,0-3.05,14.72c-.63,12.82-1.58,42.37,2.42,49.54,2.34,4.19,5.14,6.61,8.57,7.37,4.6,1,8.74-1.3,12.18-3.72,4.8-3.38,12.1-11,16.05-22.13a12.27,12.27,0,0,0,4.49,5.52,9.54,9.54,0,0,0,8,1.26c5.15-1.46,9.51-7.27,12.39-12.19a15.11,15.11,0,0,0,10.8,2.25c6.8-1.23,11.19-7.14,13.41-11.05.24-.06.47-.13.71-.21a11.31,11.31,0,0,0,3-1.68c-1.9,9.2-2.53,15-1.88,17.18a10,10,0,0,0,2.22,4.14c-9.9,8.17-19.14,21.28-19.14,21.28l11.64-1.44c36.79-2,39.52,7.55,39.52,7.55l5.11-3.5c.25-.17,24.79-16.92,43.74-24.22,7.92-3.06,18.34-4.41,29.37-5.84,15.59-2,31.71-4.12,45.33-11.24,26.44-13.82,29.12-34.62,30-41.46A21.92,21.92,0,0,0,743.83,783.92ZM625.41,804.06c0,.07,0,.15,0,.22C624.85,804.77,625,804.64,625.41,804.06ZM734,804.6c-1.23,7.08-10.58,11.89-18.2,14.67a117.25,117.25,0,0,1-24.74,5.67c-1.44.16-4.39.31-8.12.5-18.67.94-57.51,2.91-84.65,13.93A149.74,149.74,0,0,0,577,850c.29-2.77,1.11-7.61,2-12.33,3.6-.34,8.85-.9,12.87-1.56,5.66-.93,11.43-7.31,15.48-12.85,2.69,2.4,6.26,4.6,10.35,4.71,5.47.14,10.58-4.83,14.21-9.59a18.23,18.23,0,0,0,11.47,4.72c6.64.18,13.83-6.28,18.76-11.83a12,12,0,0,0,9.44,3.79c3.83-.17,7.57-2.64,10.75-5.65a9.09,9.09,0,0,0,1.36,1.79,8.45,8.45,0,0,0,7,2.49c4.69-.48,9.79-4.44,13.61-8.14,2.32,2.84,5.66,5.39,10.2,5.26,6.69-.18,11.67-7.54,16.06-14,.77-1.13,1.75-2.58,2.39-3.42l.19.15C733.45,793.73,735.48,796,734,804.6Z" fill="#fff" stroke="#262521" stroke-linejoin="round" stroke-width="2.02"/><path d="M520.53,807.47c3.08-1.78-3.13-4.1-2-13.29.6-4.91,11-15.09,5.39-18.3s-9.57,6.19-9.57,6.19-40.35,8.48-61.51,26.07-7.32,34-3.45,35.74,8.73,2.08,9.72.26-3.22-2.7-6.19-3.24-6.51-2.79-5.89-8.61,8.59-22.38,28.55-30.32,36.72-13.24,36.72-13.24C509.4,797.68,517.44,809.26,520.53,807.47Z" fill="#328d57"/><path d="M733.65,783.51c-4.07-.26-8.47,6.24-14.46,13.46s-8.23-9-8.23-9,9.17-14.83,10-18.19,4.56-24.33-5.72-15.22-10.39,37.71-10.39,37.71-2.84,6.7-9.77,7.13-2.43-8.37-.28-12.62-1.58-5.27-1.58-5.27,4-15-14-3.29-16.69,20.63-16.69,20.63c-17.4,18.15-26.93,10.52-25.16,3.65s10.26-9.42,10.26-9.42c3.15,5.47,7.14-3.2,7.2-5.35s.76-11-11.38-2.45a30.92,30.92,0,0,0-13,21.5c-15.62,15.58-17.14,1.7-17.14,1.7s15.9-20.19,5.35-18.31-12.48,21.51-12.48,21.51c-10.39,13.26-16.6,10.94-16.6,10.94,9.55-11.43,11.33-25.53,7.12-26.26s-17.49,15.38-17.49,15.38c2.29-15.62,12.24-24.59,6.76-24.73s-10,14.36-16.87,27.54c-9.41,18.21-11.66,14.15-11.66,14.15,2.59-21.15-10-18.87-10-18.87-12.62,3-16.43,28.59-16.43,28.59s-6.14,7.27-9.42,8.66-1.76-12.6-1.76-12.6c3.69-9.28,2.31-10.39.31-11.83s-13.81,6.25-13.81,6.25c-.83-3.87-5.18.48-6,8.72s3.42,6.9,3.42,6.9,1.09.49-3,11.15S487.16,868.4,484.25,866s-.56-26.47,1.59-42.87S498.54,805,498.54,805s-2-5.74-7.53-5.58-16,12.19-14.73,23.76c0,0-2,40.39,1.74,47.1s7.54,5.58,12.81,1.88,15.92-15.27,16.52-32.33l8.6-5.15s-5.28,16.16,1.65,20.8,15.6-15,15.6-15c14.18,15.29,22.57-5.71,22.57-5.71,7,3.72,20.49-28.07,20.49-28.07s-11.45,42.3-10,47.26,5.43,2.14,5.22-1.87,3-19.45,3-19.45,10-.81,16.51-1.87,15.79-16.46,15.79-16.46,5.28,8.09,11.08,8.24,13.51-13.17,13.51-13.17,4.49,8.11,12.17,8.31,19.39-16.1,19.39-16.1,2,8.36,8.41,8.06,14.78-13.6,14.78-13.6-1.9,12.87,4.07,12.25,15.21-11.9,15.21-11.9,3.21,9.16,9,9,12.93-14.88,15.65-16.81,12.42-1.21,9.28,16.85-38.72,23.74-47.68,24.74-59.29,1.06-91.31,14.06-45,30.5-45,30.5c38.32-2.53,41.91,4.33,41.91,4.33s25.06-17.19,44.86-24.82,51.72-5.1,74.13-16.82,26-28.23,27.16-37.42S737.72,783.77,733.65,783.51ZM718.4,761.28c3.54,3.32-5.06,19.57-6.78,19.52S714.69,757.79,718.4,761.28ZM540,839.33c-6.27-6.31,8.39-21.15,8.39-21.15s-1.5,9.34,2.59,14.68C551,832.86,546.24,845.65,540,839.33ZM578.5,823s2.77-13.76,12.36-16.9c7-2.28-4.21,17.11-4.21,17.11Zm100.07-25.52c-7.25,7.07-10,5-9.07-.85s18.56-14.28,18.56-14.28S688.71,787.56,678.57,797.45Z" fill="#328d57"/><path d="M621.25,784.61a4.09,4.09,0,0,0,5-2.74,4,4,0,0,0-2-5.27,4.1,4.1,0,0,0-5,2.75A4,4,0,0,0,621.25,784.61Z" fill="#328d57"/><polygon points="586.03 859.83 602.17 859.74 589.55 869.51 593.98 853.77 599.62 868.55 586.03 859.83" fill="#fff" stroke="#fff" stroke-linecap="round" stroke-linejoin="round" stroke-width="1.35"/><polygon points="608.09 851.14 618.17 851.08 610.29 857.18 613.05 847.35 616.58 856.59 608.09 851.14" fill="#fff" stroke="#fff" stroke-linecap="round" stroke-linejoin="round" stroke-width="0.84"/><path d="M455.46,1163s185.47,24,313-10.08l2.4,38.91S595.64,1231,450.79,1198.7Z" fill="#3d664a" stroke="#262521" stroke-linecap="round" stroke-linejoin="round" stroke-width="3"/><rect x="489.22" y="1157.14" width="21.39" height="64.56" transform="translate(34.34 -13.86) rotate(1.64)" fill="#fff"/><line x1="490.04" y1="1160.67" x2="488.54" y2="1213.25" fill="#3d664a" stroke="#262521" stroke-linecap="round" stroke-linejoin="round" stroke-width="3"/><line x1="511.43" y1="1161.28" x2="509.92" y2="1213.87" fill="#3d664a" stroke="#262521" stroke-linecap="round" stroke-linejoin="round" stroke-width="3"/><rect x="721.64" y="1151.63" width="21.39" height="64.56" transform="translate(-113.2 78) rotate(-5.66)" fill="#fff"/><line x1="718.89" y1="1156.65" x2="724.08" y2="1208.99" fill="#3d664a" stroke="#262521" stroke-linecap="round" stroke-linejoin="round" stroke-width="3"/><line x1="740.18" y1="1154.54" x2="745.37" y2="1206.88" fill="#3d664a" stroke="#262521" stroke-linecap="round" stroke-linejoin="round" stroke-width="3"/><path d="M622.83,1167.56c-4.14-.15-25.48.2-25.48.2s-15.1,16.84-15.25,22,12.54,25.08,16.5,25.13,25.65-1.36,25.65-1.36" fill="none" stroke="#bebdb9" stroke-linecap="round" stroke-linejoin="round" stroke-width="4"/><path d="M557.48,1170.56s-15,14.42-15.15,18.71,12.67,21,16.62,21.08" fill="none" stroke="#262521" stroke-linecap="round" stroke-linejoin="round" stroke-width="2.74"/><line x1="583.81" y1="1189.79" x2="599.91" y2="1189.56" fill="none" stroke="#bebdb9" stroke-linecap="round" stroke-linejoin="round" stroke-width="4"/><path d="M676.44,1168.23s38,12.8,2.06,37.43" fill="none" stroke="#262521" stroke-linecap="round" stroke-linejoin="round" stroke-width="2.74"/><rect x="651.67" y="1164.08" width="15.73" height="48.34" transform="translate(-89.84 54.51) rotate(-4.43)" stroke-width="2.92" stroke="#262521" stroke-linecap="round" stroke-linejoin="round" fill="#3d664a"/><path d="M485,364s50-32,82.25-32,92.59,32,92.59,32L653,330.05,566,287.6l-74.77,47.87Z" fill="#262521" stroke="#262521" stroke-linecap="round" stroke-miterlimit="10" stroke-width="3"/><polygon points="725.9 365.68 568.41 313.99 411.38 365.32 387.63 184.32 735.46 184.32 725.9 365.68" fill="#ffc702"/><path d="M468.05,345.08s4.67,22.5,13.22,18,41.15-37,82.43-38.35S647.63,360,657.47,360s12-15.54,12-15.54L566.58,244.8Z" fill="#3d664a" stroke="#262521" stroke-linecap="round" stroke-linejoin="round" stroke-width="3"/><path d="M467.92,344.67s4.39-57.44,19.72-81.44,44.41-33.31,74.24-33.31,51.4-1.53,78.61,27.54,29,87,29,87S586,261.12,467.92,344.67Z" fill="#3d664a" stroke="#262521" stroke-linecap="round" stroke-linejoin="round" stroke-width="3"/><ellipse cx="562.24" cy="231.6" rx="10.66" ry="5.87" fill="#3d664a" stroke="#262521" stroke-linecap="round" stroke-linejoin="round" stroke-width="3"/><path d="M596.7,256.76c1.64-1.77,3.5-3.78,3.38-6.26a4.58,4.58,0,0,0-1.55-3.19,5.21,5.21,0,0,0-4.07-1.31,7.59,7.59,0,0,0-4.37,2.44c-4.78.14-19.83,1-29.79,6.18a8.91,8.91,0,0,0-2.92-2.47c-1.53-.82-9.58-4.36-17.62,6.77l0,.07c-5.52,8.13-5.83,21.84-4.44,26.6,2,7,6.59,11,12.35,11a13.38,13.38,0,0,0,1.77-.12c6-.82,11.06-5.7,13.56-8.54l.2-.26a6.64,6.64,0,0,0,.64-1.1,7.64,7.64,0,0,0,.26,2.12c1,3.24,3.08,5,5.81,5a7.5,7.5,0,0,0,2-.28l.81-.22.2-.2a6.45,6.45,0,0,0,1.52-.91A5.19,5.19,0,0,0,576,289.4a4.65,4.65,0,0,0-.47-3.66,3.68,3.68,0,0,0-2.23-1.56c.39-2.38,1.74-7.55,4.62-15.82,1.52-4.38,3.87-4.81,4.35-4.85l4.93-.61a8.72,8.72,0,0,0,1.18,2,4.18,4.18,0,0,0,4.6,1.6,3.71,3.71,0,0,0,2.65-3.19,5.34,5.34,0,0,0-.31-2.15,3.92,3.92,0,0,1,0-2.71A14.59,14.59,0,0,1,596.7,256.76ZM557.46,281.2c-4.83,5.8-9.89,5.92-10.07,5.93h-.08a1,1,0,0,1-.85-.28c-1.48-1.54-1.24-7.21-1.12-9.94,0-.87.07-1.69.07-2.39.39-9.45,5.06-12.94,7.07-14a4.53,4.53,0,0,0,.3.8,11.78,11.78,0,0,0-1.56,6.72c.23,3.51,2,6.54,3.56,7.73a10.86,10.86,0,0,0,2.89,1.53Zm10.1-15.3a147.93,147.93,0,0,0-3.45,16.41,6.58,6.58,0,0,0-1.14-2l-2.13-2.61a4,4,0,0,0,2.53-1.37,3.55,3.55,0,0,0,.76-3.18c-.54-2.2-2.89-3.15-4.45-3.78a.5.5,0,0,1-.13-.07,1.64,1.64,0,0,1,.1-.48c.29-.92,3.21-5.61,9.69-7.91A12.89,12.89,0,0,0,567.56,265.9Z" fill="#fff"/><path d="M561.24,283.8a3,3,0,0,0-.7-1.56,1.09,1.09,0,0,0,0,.12c-6.13,8-13.19,7.9-13.19,7.9-6.67.05-5.06-11.3-5.06-15.81.53-13.52,9.13-17.24,10.57-17.42s3.15.64,2.66,1.93,1.76,3,2.87.07c1.24-3.31-7.57-10.06-16.08,1.72-5,7.31-5.13,20.16-4,24,1,3.4,3.77,9.63,10.69,8.68,5-.69,9.53-5.12,11.63-7.51A3,3,0,0,0,561.24,283.8Z" fill="#328d57"/><path d="M592,263.52c1.55-.51-1-2.13.34-6.15.73-2.15,6.33-5.76,4.13-7.72s-4.88,1.89-4.88,1.89-18.91.05-30.05,6-6.45,14.56-4.87,15.72,3.72,1.75,4.33,1-1.19-1.51-2.47-2-2.67-1.85-1.84-4.41,5.93-9.25,15.64-11S590,254.34,590,254.34C587.89,258.09,590.43,264,592,263.52Z" fill="#328d57"/><path d="M572.32,289.71a2,2,0,0,0,.61-1c.08-.34.33-1.35-.47-1.49a2.85,2.85,0,0,1-2.22-.77c-1.09-1.34,2.21-11.94,4.7-19.1s7.4-6.95,7.4-6.95-.39-2.77-2.87-3.21-8.32,4-8.83,9.3c0,0-4.66,17.95-3.6,21.31.83,2.65,2.14,3.11,4,2.61A8.85,8.85,0,0,0,572.32,289.71Z" fill="#328d57"/></svg>