<svg xmlns="http://www.w3.org/2000/svg" width="1250" height="1550" viewBox="0 0 1250 1550"><title>s05e02-02</title><polyline points="803.46 -349.89 823.57 -7.65 664.86 -9.51 635.96 -206.11 610.44 -197.44 601.61 -1.2 447.67 -1.41 406.93 -333.5" fill="#fff" stroke="#262521" stroke-linecap="round" stroke-linejoin="round" stroke-width="3"/><path d="M803,1225.63l-26.64-647L652,528.55s-7.62,55.38-75,58.47-73.42-58.47-73.42-58.47L399.21,619l28.09,396-14.16,268.54s100.86,16.5,214.67,12,180.87-13.77,180.87-13.77Z" fill="#fff" stroke="#262521" stroke-linecap="round" stroke-miterlimit="10" stroke-width="3"/><path d="M529.15,769.49c-31.7-167-14-237.52-17.83-248.78-.7-2.07-120.46,75.13-164.91,102C291.13,656.19,319.74,947,319.74,947s-27.68,203.28-2.3,287.31c2.37,15.93,3.05,28,6.43,41.39l64-1.5s-4.07-29.78-3.11-42.45c12.87-27.53,13.71-91.47,23.53-122.42,6-18.8,10.39-47.35,12.94-66.87a165.61,165.61,0,0,1-1.33,19.91c-3.73,22.74-25,83.8-14.05,144.17-3,26.45,2.81,153.15,2.81,153.15s152.61,54.81,160-122.61C573.36,1121.58,560.58,935.1,529.15,769.49Z" fill="#262521"/><path d="M862.83,914.32s-1.4-298-58.88-331.94c-11.19-6.61-158.61-67.76-158.61-67.76s8.21,105.2-4.85,267.77c-13,162,2.23,251.47,31.16,482.47,13.23,105.59,148.54,78.29,148.54,78.29s-7.61-122-11.51-153.31c3.94-36.14-5.66-81.16-16.45-126.52,13.84,47.61,27,143,37.17,152.17,1.64,26.39,1.89,36.36,1.89,36.36l64.1-1.5s-1-14.31-2.6-35.73C918.41,1131.48,862.83,914.32,862.83,914.32Z" fill="#262521"/><path d="M807.76,607.66l-2,.08-.09-2.08,4.78-.2-.06-1.24-2.46.11-.1-2.23-1.39.06-.05-1.16-1.46.07.07,1.61-1.62.07-.13-3.15-2.39.1-.12-2.77-5.55.24-.13-2.93-4.77.21.06,1.46-.92,0-.09-1.84-2.61.11-.13-2.85-2,.09.16,3.62-2.55.11-.15-3.62-2.24.1-.09-2-1.31.06-.06-1.39-9.62.42-.07-1.46-7.63.33-.06-1.54-2.85.13.11,2.54-2.85.12,0-.84-4.24.18-.07-1.69-3.24.14.11,2.46-3.46.15-.06-1.23-3.7.16.1,2.16-3.39.15-.15-3.39,3.54-.16-.09-2.23,1.31-.06.06,1.47,4.72-.21-.11-2.54,3.21-.14.05,1,2-.09,0-1,3.77-.16.06,1.23,7.16-.32-.13-3,1.77-.08-.07-1.69-1.39.06-.15-3.39,2.54-.11.13,2.85,2.77-.12.08,1.69-2.24.1.07,1.54,1.08,0,0,1.24,1.7-.08L769,581l.85,0,.08,1.77,1.31-.06.07,1.62,2.54-.11-.11-2.46,3.47-.16-.09-1.92,2.31-.1-.08-1.85,2.93-.13.19,4.39-2.69.12,0,.85-1.54.06.06,1.39,2.24-.1-.06-1.38,2.77-.12-.06-1.31,1.54-.07,0-.93,1.39-.06-.07-1.69,1.07,0,.14,3.16-2,.09.09,2.15,2.78-.12-.06-1.38,2.38-.11-.1-2.38,2.23-.1.11,2.46,2.62-.11-.07-1.7,1.08,0,0,1.07,1.54-.06.09,1.92,2.46-.1.12,2.77,4.24-.19-.07-1.69,1.84-.08-.06-1.58c-.52-.38-35-16.66-41-19.34l.18,3.1-1.54.07-.07-1.62-4.47.2.1,2.15-1.31.06,0,.77-.92,0,0,1.23-1.69.08-.08-1.7-3.39.15.1,2.16-3.32.14.09,1.93-2.08.09.07,1.69-2.77.12.15,3.55-3,.13.08,1.77-2.78.12.06,1.31-3.54.16.07,1.69-2.62.11.18,4.17-3.39.14-.16-3.77,2.31-.1-.13-3.08,3.46-.16-.07-1.69,3.7-.16-.13-2.85,3.47-.15-.15-3.39-2.23.09-.14-3.15,2.62-.12.12,2.78,2.44-.11-.19-4.32,2.64-.11-.13-3.16,2.15-.09,0,1,2.85-.13-.1-2.15,3.09-.14-.08-1.69-2.54.11v-2.47c-.44-.17-1,.53-1.4.37l-4.1.18.07,1.46-5.09.22-.1-2.38,2.28-.1v-2.89c-.67-.25-11.94-4.51-13.92-5.2l0,1.45-2.83.12.08,1.8L730,553l.4,9-2.86.13-.3-7-3,.13L724,550.7l3.17-.14,0-2c-1-.37-9-3.62-12.11-5.08l.31,7.11-3.45.15s.47,25.61.47,29.7l1.47-.06.12,2.76-1.66.07c-.61,8.12-.28,28.11-.28,28.11h-.23c1.15,16.07-2.12,61.21-2.33,63.33l1,.08.28,6.38,1.75-.07-.15-3.3,2.28-.1.19,4.35-2.6.12.27,6.26,3.21-.15-.09-2,1.34-.06.3,6.91,3-.13-.28-6.54,1.34-.06,0-1.06,2.6-.11-.19-4.51-2.57.11-.08-2-1.06,0-.25-5.68,2.07-.1.13,2.85,1.1,0,0,1.1,2.24-.1-.5-11.42-2.2.1.15,3.37-5.81.25-.13-2.88,2.2-.1-.06-1.38,3.66-.16-.32-7.15,2.56-.11-.12-2.89,3-.13-.12-2.72-5.08.22.08,1.83-3.34.14-.14-3.25,3-.13-.08-1.91,2.88-.12.07,1.58,3.74-.16-.21-4.88-3.25.14-.11-2.35,3.46-.15-.31-7.07,3-.14L731,626l-1.92.08-.07-1.62-.93,0-.37-8.54,4.32-.23.38,8.9,1.94-.08.16,3.61,5.23-3.58.66,15,1.67-.07-.18-4.15,3.52-.15.28,6.26,2.73-.12.23,5.29,2.47-.11.28,6.34,2.37-.1-.36-8.37,3-.13.29,6.78,2.29-.1.55,12.6,2.91-.12-.17-4,3.26-.14.29,6.61,2.64-.12.13,2.82,2-.08.25,5.64,3.26-.15-.46-10.57-2.56.11-.21-4.85-2.47.11-.16-3.79,2.46-.11-.1-2.38-2.55.11-.17-3.7,3.35-.14-.1-2.38-4.88.21-.35-8,2.62-.12-.18-2.3-2.85.12,0,1.08-2.62.11-.12-2.61,2.24-.1-.07-1.62-2.39.1-.07-1.46-.92,0-.1-2.16,1,0-.11-2.39-1.46.07-.1-2.32,1.62-.07-.08-1.61-2.69.11.08,1.78-3,.13-.13-3,3.16-.14-.15-3.46-2.55.11-.13-3-2.77.12-.06-1.29-1.46.07-.06-1.34-2.08.09,0-1.23,2.23-.1-.06-1.46,4-.18,0-1.15-2.15.09-.08-1.69-5.77.25L748.5,606l-3.47.15-.13-2.93-2.54.11-.12-2.77-2.54.11-.1-2.15-1.69.07,0-.92-3.32.14-.18-4.16,5.24-.23.06,1.46,1.47-.06.08,1.77,6-.26.21,4.78,1.78-.08-.12-2.54,3.13-.14.23,5.31,1.39-.06-.11-2.54,2.39-.1-.08-1.77,4.62-.21.14,3.24,4.39-.19-.07-1.62,3.7-.16.15,3.31-3.24.14.07,1.7-2.15.09,0,1,1.85-.08.14,3.16,1.77-.08-.07-1.62,2.62-.11-.1-2.16,1.18-.05,0-.61,1.75-.08.21,4.78-1.92.08.1,2.46,4.24-.18-.26-5.93,2.24-.1.18,4.24,2.54-.11.25,5.54,2.77-.12-.18-4-2.23.09-.21-4.77,1.23-.06-.13-3.08,2.93-.13.13,3,2.77-.12-.13-2.93,1.77-.08.18,4.09-2,.08.13,3.09,2.7-.12-.13-3,2-.08-.18-4.16,1.85-.09,0,1,1.24-.06.14,3.24-.93,0,.09,1.92-2.16.1.1,2.23,1,0,0,1.08,2.08-.09-.16-3.62,2.16-.1.17,4.08L799,613l-.05-1.08,1.16,0-.18-4,4.85-.22.16,3.47,2.23-.1,0-1.23.77,0Z" fill="#e4e4e2"/><path d="M511.12,1210.57l-2,.28-.28-2.07,4.73-.66-.17-1.22-2.44.34-.31-2.21-1.38.19-.16-1.15-1.45.21.23,1.6-1.61.22-.44-3.13-2.36.34-.39-2.75-5.5.76-.4-2.9-4.74.67.21,1.45-.92.12-.26-1.83-2.59.36-.4-2.82-2,.28.5,3.59-2.52.35L484,1197l-2.22.31-.28-2-1.29.18-.2-1.37-9.54,1.33-.2-1.45-7.56,1.06-.22-1.53-2.82.4.35,2.52-2.83.39-.11-.84-4.2.59-.24-1.68-3.21.45.35,2.44-3.44.48-.17-1.22-3.67.51.3,2.14-3.36.47-.47-3.36,3.51-.49-.3-2.21,1.29-.19.21,1.46,4.68-.66-.36-2.52,3.19-.44.14,1,2-.28-.14-1,3.75-.52.17,1.22,7.1-1-.42-3,1.76-.25-.23-1.68-1.38.19-.47-3.36,2.52-.35.4,2.83,2.74-.39.24,1.68-2.22.31.22,1.53,1.07-.15.17,1.22,1.68-.23-.27-1.91.84-.12.25,1.76,1.3-.19.22,1.61,2.52-.36-.34-2.44,3.43-.48-.26-1.91,2.29-.32-.26-1.83,2.9-.41.61,4.36-2.67.37.12.84-1.53.21.19,1.38,2.22-.31-.2-1.38,2.75-.38-.18-1.3,1.53-.21-.13-.92,1.38-.19-.24-1.68,1.07-.15.44,3.13-2,.28.3,2.14,2.75-.39-.19-1.37,2.37-.33-.34-2.37,2.22-.31.34,2.44,2.6-.36-.24-1.68,1.07-.15.15,1.07,1.53-.21.26,1.9,2.45-.34.38,2.75,4.2-.59-.23-1.67,1.83-.26-.28-2,2.91-.4.41,3,2.75-.39-.46-3.28-1.91.26-.51-3.66-5.57.78-.39-2.75-3.51.49-.37-2.6-1.9.27.11.84-2.29.32-.2-1.45-2.52.35-.14-1-3.13.44.12.84-2,.28-.21-1.53-1.38.19-.25-1.83,2.52-.35-.25-1.76-3.89.54-.32-2.29-1.53.22-.26-1.84-3.36.47.32,2.29-4.88.69-.32-2.29-1.07.15-.23-1.61-3.74.53.3,2.13-2.12.3-.17-1.22-3.07.43.36,2.59-1.53.22-.22-1.61-4.43.62.3,2.14-1.3.18.11.77-.92.13.17,1.22-1.68.23-.23-1.68-3.36.47.29,2.14-3.28.46.27,1.91-2.06.29.23,1.68-2.75.38.49,3.51-3,.42.25,1.76-2.75.38.18,1.3-3.51.49.23,1.68-2.59.36.57,4.13-3.35.47-.53-3.74,2.29-.33-.42-3,3.43-.48-.23-1.68,3.66-.51-.39-2.83,3.43-.48-.47-3.36-2.21.31-.44-3.13,2.6-.36.38,2.75,2.42-.34-.6-4.28,2.62-.37-.43-3.13,2.13-.3.14,1,2.83-.4-.3-2.14,3-.42-.23-1.68-2.52.35-.25-1.76,3.06-.42-.21-1.53,3.13-.44-.37-2.6-3.2.45.23,1.68-3.44.48.29,2.07-4.88.68.2,1.45-5,.7-.33-2.36,2.26-.32-.39-2.82-2.8.39-.3-2.14,3.51-.49.31,2.21,3.67-.51-.22-1.53-1.45.2-.29-2.06,4.05-.56-.22-1.61-2.83.4-.23-1.68-1.45.2-.19-1.3,6.57-.92-.15-1.06-3,.41-.31-2.21,3.52-.49.34,2.44,3.05-.43.18,1.3,2.07-.29-.39-2.75-4.12.58-.32-2.29,1.91-.27-.53-3.74,1.76-.25-.16-1.14,3.36-.47-.49-3.51-2.37.33.23,1.6-3,.42-.47-3.36,2.59-.37-.43-3.12-3.61.5.31,2.21-2,.28.42,3-2.74.38.28,2-2.62.37-.31-2.2-3.28.46.25,1.78-1.37.19.26,1.85-4.17.58.25,1.79-2.32.32.46,3.28-3.63.51.79,5.65-2.86.4.32,2.26-2.8.39.25,1.79,2.5-.35,1.25,8.93-2.83.4-1-6.94-3,.42-.63-4.5,3.15-.44-.43-3.1-2.82.39-.45-3.18,3.47-.48-.5-3.59,2.9-.41-.23-1.65-2.46.35-.31-2.22-2.54.36-.6-4.27,3.23-.46-.69-4.91,3.18-.45-.6-4.31-3.91.55.36,2.54-2.3.32.48,3.42-6,.85,1.23,8.78-4.36.61,1.69,12-3.43.47,1,7-2.9.41-.73-5.2-2.3.32-.52-3.74-1.48.2c.11,6.59.29,13.18.49,19.77H404l.32,2.34,5-.69.48,3.46-2.62.37.26,1.81,2.45-.35.17,1.21,2.54-.35.44,3.1,2.13-.3.38,2.74-2.45.34-.29-2-2.42.34-.33-2.38-3.18.45-.23-1.62-2.42.34.36,10.92,3.85-.54.22,1.61-4,.57c.27,8.48.49,17,.59,25.46l.33,0-.25-1.82,2.41-.34-.42-3,5.6-.78-.7-5,3.22-.45.88,6.25-3.06.43.71,5.07-3.11.44.56,3.94-3.19.45,1,7.25-1.94.27.6,4.27,2.9-.4.63,4.51-2.33.32.18,1.33-1.09.15.66,4.68,2.9-.41.4,2.9,1.61-.22.6,4.27-2,.29,1.23,8.78,1.49-.21.26,1.89,1.29-.18.78,5.56-2.34.33,1.61,11.52,1.25-.17.19,1.37,1.25-.18-.65-4.67,2.13-.3.89,6.32,1.73-.24-.46-3.26,2.26-.32.6,4.31-2.58.36L424,1300l3.18-.45-.28-2,1.33-.19,1,6.85,3-.42-.91-6.48,1.33-.19-.14-1,2.57-.37-.62-4.47-2.54.36-.28-2-1.05.15-.79-5.64,2.06-.29.39,2.82,1.09-.15.15,1.09,2.22-.31-1.58-11.32-2.18.3.47,3.35-5.76.8-.4-2.86,2.17-.3-.19-1.37,3.63-.51-1-7.09,2.54-.35L433,1265l3-.41-.37-2.7-5,.7.25,1.82-3.3.46-.45-3.22,2.94-.42-.26-1.89,2.86-.4.22,1.57,3.7-.52-.67-4.83-3.23.45-.32-2.34,3.42-.47-1-7,3-.42-1.3-9.31-1.89.27-.23-1.61-.92.13-1.19-8.46,4.28-.65,1.23,8.83,1.93-.27.5,3.58,4.86-4.06,2.08,14.85,1.66-.23-.58-4.11,3.5-.49.87,6.2,2.7-.37L456,1255l2.44-.34.88,6.29,2.36-.33-1.16-8.3,3-.42.94,6.73,2.27-.32,1.75,12.49,2.88-.4-.54-3.93L474,1266l.91,6.55,2.62-.37.4,2.8,2-.28.78,5.59,3.23-.45-1.47-10.49-2.53.36-.67-4.81-2.45.34-.52-3.75,2.44-.34-.33-2.36-2.53.35-.51-3.67,3.32-.46-.33-2.36-4.85.68-1.1-7.89,2.6-.36-.4-2.28-2.82.4.15,1.06-2.6.37L469,1242l2.21-.31-.22-1.6-2.37.33-.2-1.45-.92.13-.3-2.14,1-.14-.33-2.37-1.45.2-.32-2.29,1.61-.22-.23-1.6-2.67.37.24,1.76-3,.41-.42-3,3.13-.43-.48-3.44-2.52.35-.42-3-2.75.38-.17-1.27-1.45.2-.19-1.33-2.06.29-.17-1.22,2.21-.31-.2-1.45,4-.55-.16-1.15-2.14.3-.23-1.68-5.73.8-.29-2.06-3.44.48-.4-2.9-2.52.35-.38-2.75-2.53.35-.29-2.14-1.68.24-.13-.92-3.29.46-.57-4.12,5.19-.73.2,1.45,1.45-.2.25,1.76,6-.84.66,4.73,1.77-.24-.36-2.52,3.1-.44.74,5.27,1.37-.19-.35-2.52,2.37-.33-.25-1.76,4.59-.64.44,3.21,4.36-.61-.23-1.6,3.67-.51.46,3.28-3.21.45.23,1.68-2.13.3.14,1,1.83-.26.44,3.14,1.75-.25-.22-1.6,2.59-.37-.29-2.14,1.16-.16-.08-.61,1.73-.24.66,4.73-1.91.27.35,2.44,4.2-.58-.83-5.89,2.22-.3.59,4.2,2.52-.36.76,5.5,2.75-.38-.55-4-2.22.31-.66-4.74,1.22-.17-.42-3.05,2.9-.41.42,3,2.74-.39-.4-2.9,1.75-.24.57,4-2,.28.42,3.06,2.68-.38-.42-3,2-.27-.57-4.13,1.83-.25.14,1,1.22-.17.45,3.21-.92.12.27,1.91-2.14.3.31,2.22,1-.14.15,1.07,2.07-.29-.51-3.59,2.14-.3.57,4.05,1.45-.2-.15-1.07,1.15-.16-.56-4,4.81-.67.48,3.44,2.22-.31-.18-1.22.77-.11Z" fill="#e4e4e2"/><path d="M418.61,893.48q0,1.56,0,3.12l.47-.06-.41-3.07Z" fill="#e4e4e2"/><path d="M520.28,895c-.58-4.34-1.12-8.68-1.66-13l-2.79.37-.39-3,2.8-.37c-.14-1.15-.27-2.3-.41-3.45l-2.23.3-.39-3-2.75.36-.17-1.28-1.45.19-.18-1.32-2.06.27-.16-1.23,2.21-.29-.19-1.45,4-.52-.15-1.15-2.14.28-.22-1.68-5.74.75-.27-2.06-3.44.45-.38-2.9-2.52.33-.37-2.75-2.52.33-.28-2.14-1.68.22-.12-.92-3.29.43-.54-4.13,5.2-.68.19,1.45,1.45-.19.23,1.76,6-.78.62,4.73,1.77-.23-.34-2.52,3.11-.41.69,5.28,1.38-.18-.33-2.53,2.37-.31-.24-1.76,2.57-.33c-.52-4.26-1.31-10.25-1.31-10.25l-2.83.37-.11-.84-4.21.55-.22-1.68-3.21.42.32,2.45-3.44.45-.16-1.22-3.67.48.28,2.14-3.36.44-.44-3.36,3.52-.47-.3-2.21,1.3-.17.19,1.45,4.69-.62-.33-2.52,3.19-.42.13,1,2-.27-.13-1,3.74-.49.16,1.22,2.34-.3c-.23-1.85-1.54-11.69-2-14.75l-1.54.2-.22-1.69-3.37.45.28,2.14-3.28.43.25,1.91-2.07.27.23,1.68-2.76.37.46,3.51-3,.39.23,1.76-2.75.36.17,1.3-3.51.47.22,1.68-2.6.34.54,4.13-3.36.44-.5-3.75,2.3-.3-.4-3.06,3.44-.45-.22-1.68,3.66-.48-.37-2.83,3.44-.45-.44-3.37-2.22.29-.41-3.13,2.6-.34.36,2.75,2.42-.32-.56-4.28,2.63-.34-.41-3.14,2.14-.28.13,1,2.82-.38-.28-2.14,3.06-.4-.22-1.68L506,818l-.23-1.76,3.06-.4-.21-1.53-.41-2.59.22,1.68-3.44.46.27,2.06-4.89.64.19,1.45-5.05.67-.31-2.37,2.27-.3-.37-2.83-2.81.37-.28-2.14,3.52-.46.29,2.21,3.67-.48-.2-1.53-1.46.19-.27-2.06,4.06-.53-.22-1.61-2.82.37-.23-1.68-1.45.19-.17-1.3,6.58-.86-.14-1.07-3,.39-.29-2.22,3.52-.46.32,2.45,1.64-.22c-.11-.48-.21-1-.31-1.43,0,0-1.73-9.66-1.9-13.37l-1.74.23.4,3-2.74.36.26,2-2.63.34-.29-2.2-3.27.43.23,1.78-1.37.18.24,1.85-4.17.55.23,1.79-2.32.3.43,3.28-3.63.48.74,5.66-2.86.38.3,2.26-2.81.37.24,1.79,2.5-.33,1.18,8.94-2.83.37-.92-6.94-3,.4-.59-4.51,3.15-.42-.4-3.1-2.83.37-.42-3.19,3.47-.45-.47-3.59,2.9-.38-.21-1.66-2.46.33-.29-2.22-2.55.33-.56-4.27,3.23-.43-.65-4.92,3.19-.42-.57-4.31-3.91.51.33,2.54-2.29.31.45,3.42-6.05.8,1.15,8.79-4.36.57,1.59,12.06-3.43.45.92,7-2.91.38-.68-5.2-2.3.3-.49-3.75L456,811l-.51-3.87-5.16.68-.66-5-2.54.33.28,2.18-1.93.25-.46-3.46,1.7-.23-.34-2.54-3.14.42.11.88-1.93.26.23,1.73-4,.53-.61-4.64-7.09.94.25,1.93,2.94-.38.39,2.94,2.9-.38.33,2.46,3.22-.43.33,2.46-3.31.44-.2-1.53-4.2.55.24,1.77-2,.26.22,1.65,3.47-.45.18,1.37,4.47-.59.54,4.12,3.67-.49.23,1.74,6.58-.87.31,2.38-4.88.65.25,1.89,2.54-.33.35,2.7,4.72-.62.18,1.33-4.8.63.39,3,3.55-.47.27,2.06,2.34-.31.26,2,2.5-.32.31,2.34,5-.66.45,3.47-2.62.35.24,1.81,2.46-.32.16,1.21,2.54-.34.41,3.11,2.13-.28.36,2.74-2.45.32-.28-2-2.42.32-.31-2.38-3.18.42-.22-1.62-3.1.41-.19-1.41-1.53.2-.22-1.66-4.92.65-.23-1.77-5.69.75-.12-1-2.95.38.21,1.58-5,.66.2,1.57-3.46.46-.26-2-3.88.51-.2-1.53-2.78.36.29,2.22-2.54.33-.26-2-3.63.47.35,2.67-3.88.51.24,1.81-.9.12c0,6.35,1.19,19,1.19,19l1.63-2.63-.36-2.7,3.51-.47.49,3.71,3.39-.44L425,851.61l3.43-.45.51,3.91,1.54-.2-.58-4.35,3.47-.46.7,5.29,1.93-.26-.34-2.62L439,852l-.48-3.67,2.22-.29.3,2.26,1.81-.24.43,3.27,2.86-.38-.44-3.38,2.46-.33.37,2.79,7.66-1-.42-3.15,1.54-.2.34,2.62,4.8-.63.21,1.62-4.68.61.44,3.35-1.61.21-.26-2-2.58.34-.12-.92-3.31.43.22,1.69-1.65.22.22,1.65-2.14.28-.38-2.86L442,855l.43,3.26-2.66.35.15,1.15-3.31.43.23,1.72-2.06.27.23,1.7-2.18.28.45,3.43-2.54.33L431,870l-5.12.67.93,7.14-3.5.46.16,1.25-3.47.46.17,1.29-2.08.27c.14,3,.34,6.09.47,9.13l1.83-.24.39,3,2.26-.3-.43-3.27,1.82-.24.55,4.2,3.43-.45-.41-3.07,2.5-.33.37,2.79,3.27-.43-.54-4,3-.4-.61-4.61,3.07-.4.63,4.81,2.26-.29-.76-5.77,2.83-.37.56,4.31,2.38-.31-.63-4.8,2-.26.36,2.74,1-.13.18,1.37,1-.13-.86-6.62,2.21-.29,1,7.26,2.38-.31-1-7.9,2.34-.31.23,1.73,2.29-.3-.23-1.81,2.42-.32-.4-3,5.6-.73-.65-5,3.22-.43.83,6.25-3.07.41.67,5.08-3.11.41.52,3.95-3.18.42.95,7.26L461,890l.57,4.27,2.9-.38.59,4.52-2.34.31.18,1.33-1.09.14.61,4.68,2.91-.38.38,2.9,1.61-.21.56,4.28-2,.27,1.15,8.79,1.49-.2.25,1.9L470,922l.74,5.56-2.34.31,1.51,11.54,1.25-.17.18,1.37,1.25-.16-.61-4.68,2.13-.28.84,6.33,1.73-.23-.43-3.26,2.26-.3.57,4.32-2.58.33.81,6.22,3.19-.42-.27-2,1.33-.17.9,6.85,3-.39-.85-6.49,1.33-.18-.14-1.05,2.58-.34-.59-4.47-2.54.33-.26-2-1.05.14-.74-5.64,2-.27.37,2.82,1.09-.14.15,1.08,2.21-.29-1.48-11.33-2.18.29.44,3.34-5.77.76-.38-2.86,2.18-.29-.18-1.37,3.63-.48-.93-7.09,2.54-.34-.38-2.86,3-.39-.36-2.71-5,.67.24,1.81-3.31.44-.42-3.23,2.94-.39-.25-1.89,2.87-.38.2,1.57,3.71-.48-.63-4.84-3.23.42-.3-2.34,3.42-.45-.92-7,3-.39-1.23-9.32-1.89.25-.22-1.61-.92.12L486,875.39l4.29-.6,1.16,8.83,1.92-.25.47,3.58,4.9-4,2,14.87,1.67-.22-.54-4.11,3.49-.46.82,6.21,2.71-.36.69,5.25,2.45-.32.83,6.3,2.36-.31-1.09-8.31,3-.39.89,6.73,2.27-.3L521.89,920l.39,0C521.48,911.65,521.38,903.25,520.28,895Z" fill="#e4e4e2"/><path d="M842.79,1150.3l-1.87.46-.88-3.6-5.46,1.33-.66-2.69-3.45.84-.62-2.55-1.87.46.2.82-2.25.55-.35-1.42-2.47.6-.24-1-3.07.75.2.83-1.94.47-.37-1.5-1.35.33-.44-1.8,2.48-.6-.42-1.72-3.82.93-.55-2.25-1.5.37-.44-1.8-1.33.32c.23,4.7,0,9.42.46,14.1l1.89-.46,1,4.27-2.25.55c.14.73.31,1.46.47,2.18l.37-.09-.33-1.34,2.69-.66-.31-1.28,1.5-.36-.22-.9,1.35-.33-.4-1.65,1-.25.75,3.07-2,.47.51,2.1,2.7-.66-.33-1.34,2.32-.57-.57-2.32,2.18-.53.58,2.4,2.55-.62-.4-1.65,1-.26.25,1,1.5-.36.46,1.87,2.39-.59.66,2.7,4.12-1-.4-1.65,1.8-.44-.48-2,2.85-.69.71,2.92,2.7-.66Z" fill="#e4e4e2"/><path d="M843.51,1176.71l-1.94.48-.5-2,4.65-1.13-.29-1.2-2.4.59-.53-2.17-1.35.32-.27-1.12-1.43.35.39,1.57-1.58.38-.74-3.07-2.33.57-.65-2.7-5.4,1.32-.69-2.85-4.65,1.13.35,1.42-.9.22-.44-1.79-2.54.62-.68-2.78-2,.48.86,3.52-2.47.6-.86-3.52-1.44.35c.11.44.23.88.34,1.32,1.07,4.2,1.76,9,3.14,13.47l.66-.16-.73-3,2.85-.69.71,2.92,2.69-.66-.69-2.84,1.72-.42,1,4-1.95.47.73,3,2.63-.64-.72-2.92,1.95-.48-1-4,1.79-.44.24,1,1.2-.29.77,3.15-.9.22.45,1.87-2.09.51.53,2.17,1-.23.25,1,2-.5-.86-3.52,2.1-.51,1,4,1.43-.35-.26-1.05,1.13-.27-.95-3.9,4.72-1.14.82,3.37,2.17-.53-.29-1.2.75-.18Z" fill="#e4e4e2"/><path d="M385.09,735.53l-1.78.93-1-1.84,4.23-2.22-.57-1.09-2.19,1.14-1-2-1.23.64-.53-1-1.3.67.75,1.44L379,733l-1.46-2.8-2.12,1.1-1.29-2.46-4.92,2.57-1.35-2.6L363.66,731l.68,1.3-.82.43-.86-1.64-2.32,1.21L359,729.74l-1.78.93,1.67,3.21-2.25,1.18L355,731.85l-2,1-.93-1.77-1.16.6-.64-1.23-8.55,4.46-.67-1.3-6.77,3.53-.72-1.36L331,737.13l1.17,2.25-2.53,1.32-.39-.75-3.76,2-.78-1.5-2.88,1.5,1.15,2.18-3.08,1.61-.57-1.09-3.28,1.71,1,1.91-3,1.57-1.57-3,3.14-1.64-1-2,1.16-.61.68,1.3,4.19-2.18-1.18-2.26,2.85-1.49.47.89,1.78-.93-.47-.89,3.35-1.74.57,1.09,6.36-3.32L333,730.37l1.57-.82-.79-1.51-1.23.65-1.57-3,2.26-1.18,1.32,2.53,2.46-1.28.79,1.5-2,1,.72,1.37,1-.5.57,1.09,1.51-.78-.89-1.71.75-.39.82,1.57,1.16-.61.75,1.44,2.26-1.18-1.15-2.19,3.08-1.6-.89-1.71L347.5,722l-.86-1.64,2.6-1.35,2,3.89-2.39,1.25.4.75-1.37.71.64,1.24,2-1-.64-1.23,2.46-1.28-.61-1.17,1.37-.71-.43-.82,1.23-.64-.78-1.51,1-.5,1.46,2.81-1.78.92,1,1.92,2.46-1.29-.64-1.22,2.12-1.11-1.11-2.12,2-1,1.14,2.18,2.32-1.21-.78-1.5,1-.5.5,1,1.37-.71.89,1.71,2.19-1.14,1.28,2.46,3.76-2-.78-1.51,1.64-.85-.93-1.78,2.6-1.36,1.39,2.67,2.46-1.28-1.53-3-1.71.9-1.71-3.28-5,2.6-1.29-2.46-3.14,1.64L364,707.14l-1.71.89.4.75-2.05,1.07-.68-1.3-2.26,1.18-.46-.89-2.8,1.46.39.75-1.78.93-.71-1.37-1.23.65-.86-1.64,2.26-1.18-.82-1.57-3.49,1.82-1.07-2.05-1.37.71-.85-1.64-3,1.57,1.07,2.05-4.38,2.28-1.07-2.05-.95.5-.75-1.44-3.35,1.75,1,1.92-1.9,1-.57-1.1-2.75,1.44,1.21,2.32-1.37.72-.75-1.44-4,2.07,1,1.91-1.16.61.35.68-.82.43.57,1.1-1.5.78-.79-1.5-3,1.57,1,1.91-2.94,1.53L317,728l-1.85,1,.79,1.5-2.46,1.29s-.66,73.43-1,92l1.09,2.09,1.33-.69.89,1.69,1.15-.6,2.6,5-2.09,1.09,5.38,10.31,1.12-.58.64,1.22,1.11-.58-2.18-4.18,1.91-1,3,5.66,1.55-.81-1.53-2.92,2-1.05,2,3.86-2.31,1.2,2.9,5.55,2.85-1.48-.94-1.81,1.19-.62,3.19,6.13,2.67-1.39L339,844l1.19-.62-.49-.93,2.31-1.21-2.09-4-2.27,1.18-.94-1.8-.94.49-2.63-5,1.84-1,1.31,2.53,1-.51.51,1,2-1L334.45,823l-1.95,1,1.57,3-5.16,2.69-1.34-2.56,1.95-1-.64-1.23,3.25-1.69-3.32-6.35,2.27-1.19-1.33-2.55,2.67-1.4-1.26-2.41-4.51,2.35.85,1.62-3,1.54L323,811.89l2.64-1.37-.89-1.7,2.56-1.34.74,1.41,3.31-1.73-2.26-4.33-2.88,1.51-1.09-2.09,3.06-1.6L325,794.37l2.67-1.39-4.35-8.33-1.69.88-.76-1.44-.83.43L316,777l3.81-2,4.13,7.9,1.72-.9,1.67,3.21,3.22-5.46L337.53,793l1.49-.77-1.92-3.68,3.13-1.63,2.89,5.55,2.43-1.26,2.45,4.69,2.19-1.14,2.93,5.63,2.12-1.1-3.88-7.44,2.66-1.38,3.14,6,2-1.06L365,806.56l2.58-1.34-1.84-3.52,2.9-1.51,3.06,5.86,2.35-1.22,1.3,2.5,1.8-.94,2.61,5,2.9-1.51-4.9-9.39-2.27,1.18-2.24-4.3-2.19,1.15-1.76-3.37,2.19-1.14-1.1-2.11-2.27,1.18-1.71-3.28,3-1.55-1.1-2.11L364,788.41l-3.68-7.06,2.32-1.21-1.13-2L359,779.44l.5,1-2.33,1.21-1.21-2.32,2-1-.75-1.43-2.12,1.1-.67-1.29-.82.42-1-1.91.88-.46-1.1-2.12-1.3.68-1.07-2.06,1.44-.75-.75-1.43-2.4,1.25.82,1.57-2.66,1.39L345,770.55l2.8-1.47L346.19,766l-2.25,1.17-1.39-2.66-2.46,1.29-.6-1.15-1.3.68-.62-1.18-1.84,1-.57-1.09,2-1-.68-1.3,3.56-1.85-.54-1-1.91,1-.79-1.5L331.66,761l-1-1.84-3.07,1.6-1.36-2.6L324,759.32l-1.29-2.46L320.47,758l-1-1.92-1.51.79-.43-.82-2.93,1.53-1.93-3.69,4.65-2.43.67,1.3,1.3-.67.82,1.57,5.36-2.79,2.21,4.23,1.58-.82-1.18-2.26,2.78-1.44,2.46,4.71,1.23-.64-1.18-2.26,2.12-1.1-.82-1.57,4.1-2.14,1.5,2.87,3.89-2-.74-1.43,3.28-1.72,1.53,2.94-2.87,1.5.78,1.51-1.91,1,.46.89,1.65-.85,1.46,2.8,1.57-.82-.75-1.44,2.33-1.21-1-1.91,1-.55-.28-.54,1.55-.81,2.21,4.23-1.71.89,1.14,2.19,3.76-2-2.74-5.26,2-1,2,3.76,2.26-1.18,2.56,4.93,2.47-1.29-1.86-3.55-2,1-2.21-4.24,1.09-.57L359.76,743l2.6-1.36,1.39,2.67,2.46-1.29-1.35-2.59,1.57-.82,1.89,3.62-1.78.93L368,746.9l2.39-1.25L369,743l1.78-.93-1.93-3.69,1.64-.86.47.89,1.09-.57,1.5,2.87-.82.43.89,1.71-1.91,1,1,2,.89-.46.5.95,1.84-1-1.67-3.21,1.91-1,1.89,3.62,1.3-.68-.5-1,1-.54L378,739l4.31-2.25,1.6,3.07,2-1-.57-1.09.68-.36Z" fill="#e4e4e2"/><path d="M447.34,660.67l-1.95.49-.51-2,4.64-1.17-.31-1.2-2.39.6-.55-2.16-1.34.34-.29-1.12-1.42.35.4,1.57-1.57.4-.77-3.06-2.32.58-.68-2.69-5.38,1.36-.72-2.84-4.64,1.18.36,1.41-.89.23-.46-1.79-2.54.64-.7-2.77-1.94.5.88,3.51-2.46.62-.89-3.51-2.17.55-.49-1.95-1.27.33-.34-1.35-9.34,2.36-.36-1.42-7.41,1.88-.37-1.5-2.77.7.62,2.47-2.76.7-.21-.83-4.11,1-.42-1.64-3.14.79.61,2.39-3.36.86-.31-1.2-3.59.91.53,2.09-3.29.83-.83-3.29,3.44-.87L377,651.8l1.27-.32.36,1.42,4.59-1.16-.63-2.46,3.12-.79.25,1,1.94-.49-.25-1,3.67-.93.3,1.2,6.95-1.76-.74-2.92,1.72-.43-.41-1.65-1.35.34-.83-3.28,2.47-.63.7,2.77,2.69-.68.41,1.64-2.17.55.38,1.5,1.05-.27.3,1.2,1.65-.42-.48-1.87.83-.21.43,1.72,1.27-.32.4,1.57,2.47-.62-.61-2.39,3.36-.85-.47-1.87,2.24-.57-.45-1.79,2.84-.72,1.08,4.26-2.62.66.21.82-1.49.38.34,1.35,2.16-.55-.34-1.35,2.69-.68-.32-1.27,1.5-.38-.23-.89,1.35-.34-.42-1.65,1.05-.26.77,3.06-1.94.49.53,2.1,2.69-.69L423,640l2.32-.59-.59-2.31,2.17-.55.6,2.39,2.54-.64-.41-1.65,1.05-.26.26,1,1.49-.37.48,1.87,2.39-.61.68,2.69,4.11-1-.41-1.64,1.79-.46-.49-1.94,2.84-.72.74,2.92,2.69-.68-.82-3.22-1.86.47-.91-3.58-5.46,1.38-.68-2.69-3.44.87-.64-2.55-1.87.48.21.82-2.24.57-.36-1.43-2.47.63-.25-1-3.06.77.21.82-1.95.5-.37-1.5-1.35.34-.45-1.79,2.46-.63-.43-1.72-3.81,1-.57-2.24-1.5.37-.45-1.79-3.29.83.57,2.24-4.79,1.21-.56-2.24-1.05.27-.4-1.57L402,624l.53,2.09-2.07.53-.31-1.2-3,.76.65,2.55-1.5.37-.4-1.57-4.33,1.1.53,2.09-1.27.32.19.75-.9.23.3,1.2-1.64.41-.42-1.64-3.29.83.53,2.09-3.21.81.47,1.87-2,.51.42,1.65-2.69.68.87,3.44-2.92.73.43,1.72-2.69.69.33,1.27-3.44.87.41,1.64-2.54.64,1,4-3.29.83-.92-3.66,2.24-.57-.76-3,3.37-.85-.42-1.64,3.59-.91-.7-2.77,3.36-.85-.83-3.29-2.17.55-.77-3.06,2.54-.65.68,2.69,2.37-.59-1.06-4.19,2.57-.65-.78-3.06,2.09-.53.25,1,2.77-.7-.53-2.1,3-.75-.42-1.65-2.47.63-.43-1.72,3-.76-.38-1.49,3.07-.78-.65-2.54-3.14.8.42,1.64-3.36.85.51,2-4.79,1.21.36,1.42-4.93,1.25-.59-2.32,2.22-.56-.7-2.77-2.74.7-.53-2.1,3.44-.87.55,2.17,3.58-.91-.37-1.49-1.42.36-.51-2,4-1-.4-1.57-2.77.7-.41-1.65-1.42.36-.32-1.27,6.42-1.63-.26-1-2.92.74-.54-2.17,3.44-.87.6,2.39,3-.76.32,1.27,2-.51-.68-2.69-4,1-.56-2.24,1.86-.47-.92-3.66,1.72-.44-.29-1.12,3.29-.83-.57-2.28c-4.6,2.17-26,14.52-26,14.52l1.4,5.54-2.79.71.56,2.21-2.74.69.44,1.75,2.45-.62,2.21,8.75-2.77.7-1.72-6.79-2.94.74-1.12-4.4,3.09-.78-.77-3-2.76.7-.36-1.42a54.89,54.89,0,0,0-10.13,10.36l.88,3.51-1.4.36A148.89,148.89,0,0,0,354.05,652c4.36,6.44,9.12,12.58,13.32,19.14a180.5,180.5,0,0,1,12.83,23.93l3.92-4.08,3.67,14.54,1.63-.41-1-4,3.42-.86,1.54,6.07,2.65-.67,1.3,5.13,2.39-.6,1.56,6.15,2.31-.58-2.06-8.13,2.91-.73,1.67,6.59,2.22-.57,3.09,12.23,2.83-.71-1-3.85,3.17-.8,1.62,6.41,2.56-.64.7,2.73,2-.5,1.39,5.48,3.16-.8-2.59-10.26-2.48.62-1.19-4.7-2.4.6-.93-3.67,2.4-.61-.59-2.31-2.48.63-.91-3.59,3.25-.83-.58-2.3-4.74,1.2-1.95-7.72,2.54-.64-.64-2.23-2.77.7.27,1-2.54.64-.65-2.54,2.17-.55-.4-1.57-2.31.59-.36-1.42-.9.22-.53-2.09,1-.24-.58-2.32-1.42.36-.57-2.25,1.57-.39-.4-1.57-2.61.66.43,1.72-2.91.74-.74-2.92,3.06-.78-.85-3.36-2.46.62-.74-2.91-2.69.68-.32-1.24-1.42.35-.33-1.29-2,.51-.31-1.2,2.17-.55-.36-1.42,3.89-1-.28-1.12-2.1.53-.41-1.65-5.61,1.42-.51-2-3.36.85-.72-2.84-2.47.63-.68-2.69-2.47.62-.53-2.09-1.64.41-.23-.89-3.21.81-1-4,5.08-1.28.36,1.42,1.42-.36.43,1.72,5.86-1.48,1.17,4.63,1.73-.44-.63-2.46,3-.77,1.3,5.16,1.35-.34-.63-2.47,2.32-.58-.43-1.72,4.48-1.14.8,3.14,4.26-1.08-.4-1.57,3.59-.9.81,3.21-3.14.79.42,1.65-2.1.53.25,1,1.79-.45.78,3.06,1.72-.43-.4-1.57,2.54-.65-.53-2.09L411,666l-.16-.59,1.7-.43,1.17,4.63-1.86.47.6,2.39,4.11-1-1.45-5.76,2.16-.55,1,4.11,2.47-.62,1.36,5.38,2.69-.68-1-3.89-2.17.55-1.17-4.63,1.2-.31-.76-3,2.84-.72.74,2.92,2.69-.68-.72-2.84,1.72-.44,1,4-1.94.49.75,3,2.62-.66-.74-2.92,1.95-.49-1-4,1.79-.45.25,1,1.19-.3.8,3.14-.9.23.47,1.86-2.09.53.55,2.17,1-.24.26,1,2-.51-.89-3.51,2.1-.53,1,4,1.42-.36-.27-1,1.13-.28-1-3.89,4.71-1.19.85,3.37,2.17-.55-.3-1.2.75-.19Z" fill="#e4e4e2"/><path d="M811.05,1205.82l-3.67,1-.41-2-3.4.67-.57-2.87-2.5.49-.53-2.72-2.5.49-.42-2.12-1.66.33-.18-.91-3.26.65-.8-4.09,5.14-1,.28,1.44,1.44-.28.35,1.74,5.92-1.17.93,4.69,1.74-.35-.49-2.5,3.07-.6.25,1.28s.82-.07.82-.09c-.15-3.85-1.13-7.68-1.28-11.53l-2.44.49-.33-1.67-3.18.63.48,2.42-3.41.67-.23-1.21-3.64.72.42,2.12-3.33.66-.65-3.33,3.48-.69-.44-2.19,1.29-.26.28,1.44,4.64-.92-.49-2.49,3.15-.63.19,1,2-.39-.19-1,3.26-.44c-.15-4.62-.24-9.25-.23-13.87l-1.22,0-.33-1.66-3.32.66.42,2.12-3.26.64.38,1.89-2.05.4.33,1.67-2.72.54.69,3.47-3,.59.34,1.74-2.72.54.25,1.28-3.48.69.33,1.66-2.57.51.81,4.09-3.33.66-.73-3.71,2.27-.45-.6-3,3.4-.68-.33-1.66,3.63-.72-.55-2.8,3.4-.67-.65-3.33-2.2.43-.61-3.1,2.57-.51.54,2.73,2.4-.48-.84-4.23,2.59-.52-.61-3.1,2.12-.42.19,1,2.8-.56-.42-2.11,3-.6-.33-1.67-2.5.5-.34-1.74,3-.6-.3-1.51,3.1-.62-.51-2.57-3.18.63.33,1.66-3.4.68.4,2-4.84,1,.28,1.43-5,1-.46-2.34,2.24-.45-.55-2.8-2.77.55-.42-2.12,3.48-.68.43,2.19,3.63-.72-.3-1.51-1.44.28-.4-2,4-.79-.31-1.59-2.8.55-.33-1.66-1.44.28-.25-1.28,6.5-1.29-.21-1.06-2.95.58-.43-2.19,3.48-.69.48,2.42,3-.59.26,1.28,2-.4-.54-2.72-4.08.8-.45-2.27L805,1140l-.73-3.71,1.74-.34-.23-1.14,3.33-.65-.69-3.48-2.34.46.31,1.59-2.95.58-.66-3.33,2.57-.51-.61-3.09-3.57.71.43,2.18-2,.39.59,3-2.71.54.38,1.94-2.59.52-.43-2.18-3.25.64.35,1.77-1.35.26L791,1138l-4.13.82.35,1.77-2.3.45.64,3.25-3.6.71,1.11,5.6-2.83.56.44,2.24-2.77.55.35,1.77,2.48-.49,1.75,8.85-2.81.55-1.35-6.87-3,.59-.88-4.46,3.12-.62-.61-3.07-2.79.55-.63-3.15,3.43-.68-.7-3.55,2.87-.57-.32-1.63-2.43.48-.44-2.2-2.51.5-.84-4.23,3.2-.63-1-4.87,3.16-.62-.85-4.27-3.87.76.5,2.52-2.28.44.67,3.4-6,1.18,1.72,8.7-4.31.85,2.36,11.93-3.39.67,1.36,6.91-2.87.57-1-5.15-2.28.45-.73-3.71-3.19.63-.76-3.83-5.11,1-1-5-2.52.5.43,2.15-1.92.38-.68-3.43,1.68-.33-.5-2.52-3.11.62.18.88-1.92.37.34,1.72-4,.79-.91-4.59-7,1.39.38,1.91,2.91-.57.58,2.91,2.87-.57.48,2.44,3.19-.63.48,2.43-3.27.65-.3-1.52-4.15.82.35,1.76-2,.38.33,1.64,3.43-.68.27,1.36L737,1157l.8,4.07,3.63-.72.34,1.72,6.51-1.29.46,2.36-4.83.95.37,1.88,2.52-.5.53,2.68,4.67-.93.26,1.32-4.75.94.58,3,3.51-.69.4,2,2.32-.46.39,2,2.47-.49.46,2.31,4.91-1,.67,3.44-2.59.51.36,1.79,2.43-.48.24,1.2,2.51-.5.61,3.08,2.11-.42.54,2.71-2.43.48-.41-2-2.39.47-.47-2.35-3.15.62-.32-1.6-3.07.61-.27-1.4-1.52.31-.32-1.64-4.87,1-.35-1.75-5.63,1.11-.19-1-2.91.58.31,1.55-5,1,.31,1.55-3.43.68-.39-2-3.83.76-.3-1.52-2.75.54.43,2.2-2.51.49-.4-2-3.59.71.52,2.63-3.83.76.36,1.8-2.8.55.23,1.16-2.79.55.24,1.24-2,.4.2,1-3,.6.72,3.64-2.36.46,3,15.25,2.11-.42-.4-2,3.11-.61-1.13-5.75,2.35-.47.8,4.08,3.28-.65-.47-2.36,1.92-.37-.53-2.68L723,1203l.73,3.67,3.35-.67-1.59-8,3.39-.67.77,3.87,1.52-.3-.86-4.31,3.44-.67,1,5.22,1.91-.38-.51-2.59,3.27-.65-.71-3.63,2.19-.43.44,2.23,1.8-.35.64,3.23,2.83-.56-.66-3.35,2.43-.48.55,2.75,7.58-1.5-.62-3.11,1.52-.3.51,2.59,4.75-.94.32,1.6-4.63.91.65,3.32-1.59.31-.39-2-2.55.5-.19-.92-3.27.65.33,1.68-1.63.32.32,1.64-2.11.41-.56-2.83-4.79,1,.64,3.23-2.64.52.23,1.13-3.28.65.34,1.7-2,.4.34,1.68L734,1210l.67,3.39-2.51.49.4,2-5.07,1,1.4,7.06-3.47.69.24,1.24-3.43.68.25,1.27-3,.6.5,2.55-2.35.47.55,2.79-3.79.75,1.35,6.82,3.55-.7.51,2.59,2.6-.51-.6-3-1.36.27-.55-2.8,3.39-.67.59,3,2.23-.45-.64-3.23,1.8-.35.82,4.15,3.39-.67-.6-3,2.47-.49.55,2.76,3.23-.64-.79-4,2.95-.59-.9-4.56,3-.6.95,4.76,2.23-.44-1.13-5.7,2.8-.56.84,4.27,2.36-.46-.94-4.75,2-.39.54,2.72,1-.2.26,1.36,1-.2-1.29-6.55,2.19-.43,1.42,7.18,2.36-.46-1.55-7.82,2.31-.46.34,1.71,2.28-.45-.36-1.79,2.4-.47-.59-3,5.54-1.09-1-5,3.19-.63,1.22,6.18-3,.6,1,5-3.07.61.77,3.91-3.15.62,1.42,7.18-1.92.38.84,4.23,2.87-.57.89,4.47-2.32.46.26,1.32-1.07.21.91,4.63,2.87-.57.57,2.88,1.6-.32.83,4.23-2,.4,1.72,8.7,1.48-.29.37,1.87,1.27-.25,1.09,5.51-2.31.46,2.25,11.41,1.24-.25.27,1.36,1.24-.24-.92-4.63,2.12-.42,1.23,6.27,1.72-.34-.64-3.24,2.24-.44.84,4.27-2.55.51,1.21,6.14,3.15-.62-.39-2,1.32-.26,1.34,6.79,3-.59L791,1288.6l1.32-.26-.21-1,2.56-.5-.88-4.43-2.51.49-.4-2-1,.2-1.1-5.58,2-.41.56,2.8,1.07-.22.22,1.08,2.19-.43-2.21-11.22-2.16.43.66,3.31-5.71,1.13-.56-2.83,2.15-.43-.26-1.35,3.59-.72-1.39-7,2.51-.5-.56-2.83,3-.58-.53-2.68-5,1,.35,1.8-3.27.64-.63-3.19,2.91-.58-.37-1.87,2.84-.56.3,1.55,3.67-.72-.94-4.79-3.19.63-.46-2.31,3.39-.67-1.37-7,3-.58-1.82-9.22-1.88.37-.31-1.59-.92.18-1.66-8.38,4.24-.88,1.73,8.74,1.9-.38.7,3.55,4.63-4.33,2.91,14.71,1.64-.33-.8-4.06,3.46-.69,1.21,6.15,2.69-.53,1,5.19,1.45-.29C814.32,1240.43,811.1,1207.28,811.05,1205.82Z" fill="#e4e4e2"/><polygon points="776.74 858.69 773.78 859.38 772.74 854.96 775.84 854.23 775.12 851.18 772.35 851.83 771.62 848.71 775.02 847.9 774.19 844.38 777.04 843.71 776.66 842.09 774.25 842.65 773.74 840.48 771.24 841.06 770.25 836.87 773.42 836.12 772.29 831.29 775.42 830.55 774.42 826.32 770.58 827.22 771.17 829.72 768.91 830.25 769.7 833.61 763.76 835.01 765.79 843.64 761.51 844.64 764.29 856.49 760.93 857.27 762.54 864.13 759.68 864.8 758.48 859.69 756.23 860.22 755.36 856.53 752.19 857.28 751.3 853.48 746.23 854.67 745.07 849.72 742.58 850.3 743.08 852.44 741.18 852.89 740.38 849.48 742.04 849.09 741.45 846.6 738.37 847.32 738.57 848.2 736.67 848.64 737.07 850.34 733.11 851.27 732.04 846.72 725.07 848.36 725.52 850.26 728.41 849.58 729.09 852.47 731.94 851.8 732.5 854.22 735.67 853.47 736.24 855.89 732.99 856.65 732.64 855.15 728.52 856.11 728.93 857.86 726.99 858.31 727.37 859.94 730.78 859.13 731.09 860.48 735.49 859.45 736.44 863.49 740.04 862.64 740.44 864.34 746.9 862.83 747.45 865.16 742.65 866.29 743.09 868.15 745.59 867.57 746.21 870.22 750.84 869.13 751.15 870.44 746.44 871.54 747.13 874.47 750.61 873.66 751.08 875.67 753.38 875.13 753.84 877.08 756.29 876.5 756.83 878.79 761.7 877.65 762.5 881.06 759.93 881.66 760.35 883.44 762.76 882.88 763.04 884.06 765.54 883.48 766.25 886.53 768.35 886.03 768.98 888.73 766.57 889.29 766.09 887.27 763.72 887.83 763.17 885.5 760.04 886.23 759.67 884.65 756.62 885.36 756.29 883.98 754.79 884.33 754.41 882.71 749.58 883.84 749.17 882.1 743.58 883.41 743.36 882.46 740.47 883.14 740.83 884.68 735.88 885.85 736.25 887.39 732.84 888.19 732.38 886.25 728.58 887.14 728.23 885.64 725.5 886.28 726.01 888.46 723.51 889.05 723.05 887.07 719.48 887.9 720.1 890.52 716.3 891.41 716.72 893.19 713.94 893.84 714.21 894.99 711.44 895.64 711.73 896.87 709.71 897.35 709.95 898.37 706.94 899.08 707.79 902.68 705.45 903.23 709.01 918.36 711.11 917.87 710.63 915.85 713.72 915.12 712.38 909.42 714.72 908.87 715.66 912.91 718.91 912.15 718.36 909.81 720.26 909.37 719.64 906.71 723.09 905.9 723.94 909.54 727.27 908.76 725.4 900.8 728.76 900.01 729.67 903.86 731.17 903.5 730.17 899.23 733.57 898.42 734.79 903.61 736.69 903.17 736.09 900.59 739.33 899.83 738.49 896.23 740.66 895.71 741.19 897.93 742.97 897.51 743.72 900.72 746.53 900.06 745.75 896.73 748.17 896.17 748.81 898.9 756.33 897.13 755.61 894.04 757.11 893.69 757.72 896.26 762.43 895.15 762.8 896.74 758.21 897.82 758.98 901.11 757.4 901.48 756.94 899.54 754.41 900.13 754.19 899.22 750.95 899.98 751.34 901.65 749.71 902.03 750.09 903.65 748 904.14 747.33 901.33 742.58 902.45 743.34 905.66 740.72 906.27 740.99 907.39 737.74 908.16 738.14 909.85 736.12 910.32 736.51 911.98 734.37 912.49 735.16 915.85 732.66 916.44 733.14 918.46 728.11 919.64 729.76 926.65 726.31 927.46 726.6 928.68 723.19 929.49 723.49 930.75 720.52 931.45 721.12 933.99 718.78 934.53 719.43 937.3 715.67 938.19 717.26 944.96 720.78 944.13 721.39 946.71 723.96 946.1 723.26 943.09 721.91 943.41 721.26 940.64 724.63 939.85 725.31 942.78 727.53 942.25 726.78 939.05 728.56 938.63 729.53 942.75 732.89 941.96 732.19 938.95 734.64 938.37 735.28 941.1 738.49 940.35 737.56 936.39 740.49 935.7 739.43 931.17 742.44 930.46 743.55 935.19 745.76 934.67 744.43 929.01 747.21 928.36 748.2 932.59 750.54 932.04 749.43 927.33 751.37 926.88 752 929.57 752.99 929.34 753.31 930.68 754.3 930.45 752.77 923.96 754.95 923.45 756.63 930.57 758.96 930.02 757.14 922.26 759.44 921.72 759.84 923.43 762.09 922.9 761.67 921.11 764.05 920.55 763.35 917.59 768.86 916.29 767.7 911.38 770.87 910.64 772.31 916.78 769.3 917.48 770.48 922.47 767.43 923.19 768.34 927.07 765.21 927.8 766.89 934.93 764.99 935.38 765.97 939.58 768.82 938.91 769.86 943.34 767.57 943.88 767.87 945.19 766.8 945.44 767.88 950.03 770.74 949.36 771.4 952.21 772.99 951.84 773.98 956.04 771.96 956.51 773.98 965.15 775.45 964.8 775.89 966.66 777.15 966.37 778.44 971.83 776.14 972.37 778.8 983.7 780.03 983.41 780.35 984.75 781.57 984.47 780.49 979.87 782.59 979.38 784.05 985.6 785.75 985.2 785 981.99 785.68 986.3 776.74 858.69" fill="#e4e4e2"/><path d="M810.88,753l.75-5.81,2.38.3-.53,4.12,3.31.42.31-2.38,1.93.25.35-2.71,3.51.45-.48,3.71,3.39.44,1-8.11,3.43.44-.5,3.91,1.53.2.56-4.36,3.47.44-.68,5.29,1.94.25.34-2.63,3.3.43.47-3.67,2.22.28-.29,2.26,1.82.23L844,750l2.87.37.43-3.39,2.46.31-.35,2.79,3.58.46c0-.07,0-.12,0-.19-.13-1.8-.79-15.33-.93-15.8a2.78,2.78,0,0,0-.2-.55v0l-1.86-.24.12-1-2.94-.37-.21,1.57-5-.65-.2,1.58-3.47-.45.25-2-3.87-.5.2-1.53-2.79-.36-.28,2.22L829.2,732l.25-2-3.63-.47-.34,2.67-3.87-.5-.23,1.82-2.83-.37-.15,1.17-2.82-.36-.16,1.25-2.06-.26-.13,1.05-3.07-.39-.47,3.67-2.38-.31-2,15.42,2.13.27.27-2.06Z" fill="#e4e4e2"/><path d="M855.55,775.6a3.08,3.08,0,0,1,0-.43c.12-.85-1.42-21-1.91-22.72a1.67,1.67,0,0,1,0-.31l-2.57-.33-.21,1.7-1.66-.21L849,755l-2.14-.27.37-2.87-4.84-.62-.42,3.27-2.66-.34-.15,1.14-3.31-.42-.22,1.72-2.06-.26-.21,1.69-2.18-.28-.44,3.43-2.54-.32-.27,2-5.12-.65-.91,7.14-3.51-.45-.16,1.25-3.48-.44-.16,1.29-3-.39-.33,2.58-2.38-.3-.36,2.82-3.83-.49-.88,6.9,3.59.46-.34,2.62,2.62.34.4-3.07-1.38-.17.36-2.83,3.43.44-.38,3,2.26.29.42-3.27,1.82.23-.54,4.2,3.43.44.39-3.07,2.5.32-.35,2.79,3.26.41.52-4,3,.38.59-4.61,3.06.39-.61,4.81,2.26.29.74-5.77,2.82.37-.55,4.31,2.38.31.61-4.8,2,.25-.35,2.74,1,.13-.18,1.37,1,.13.85-6.61,2.22.28-.93,7.26,2.38.31,1-7.91,2.34.3-.22,1.73,2.3.3.23-1.82Z" fill="#e4e4e2"/><path d="M861,850.44c1.76-12.69-4.09-61.86-4-67.28l-2.27-.29-.93,7.26-1.94-.25-.55,4.28,2.91.37-.58,4.52-2.34-.3-.17,1.33-1.09-.14-.6,4.68,2.91.37-.38,2.91,1.62.21-.55,4.27-2.06-.26-1.12,8.8,1.49.19-.24,1.89,1.29.17-.72,5.57-2.34-.3L847.81,840l1.25.16-.18,1.37,1.25.16.6-4.68,2.14.27-.81,6.34,1.73.22.42-3.27,2.26.29-.55,4.32-2.58-.33-.8,6.21,3.19.41.26-2,1.33.17-.88,6.86,3,.38.83-6.49Z" fill="#e4e4e2"/><path d="M306.86,1116.42c0,1-.05,2.08-.07,3.13l1.12-.16-.43-3.06Z" fill="#fff"/><path d="M421.69,1043.17l-3.83.53-.32-2.29-1.07.15-.22-1.6-3.75.52.3,2.14-2.11.29-.17-1.22-3.08.43.36,2.6-1.52.21-.23-1.6-4.43.62.3,2.14-1.3.18.11.76-.92.13.17,1.22-1.68.24-.23-1.68-3.36.47.3,2.14-3.29.45.27,1.91-2.06.29.23,1.68-2.74.39.49,3.51-3,.41.24,1.76-2.74.39.18,1.29-3.52.5.24,1.67-2.6.37.58,4.12-3.36.47-.52-3.74,2.29-.32-.43-3.06,3.44-.48-.24-1.68,3.67-.51-.4-2.82,3.44-.48-.47-3.36-2.22.31-.43-3.14,2.59-.36.39,2.75,2.42-.34-.6-4.27,2.62-.37-.44-3.13,2.14-.3.14,1,2.82-.39-.3-2.14,3.06-.43-.24-1.68-2.52.35-.24-1.75L397,1038l-.21-1.53,3.13-.43-.36-2.6-3.21.45.23,1.68-3.43.48.29,2.06-4.89.68.2,1.45-5,.71-.33-2.37,2.27-.31-.4-2.83-2.8.39-.3-2.14,3.52-.49.31,2.22,3.66-.52-.21-1.52-1.45.2-.29-2.06,4-.57-.23-1.6-2.82.39-.24-1.68-1.45.21-.18-1.3,6.57-.92-.15-1.07-3,.42-.31-2.22,3.51-.49.34,2.44,3.06-.42L397,1026l2.06-.28-.38-2.75-4.13.58-.32-2.3,1.91-.26-.52-3.74,1.75-.25-.16-1.15,3.36-.47-.49-3.51-2.36.33.22,1.61-3,.41-.47-3.36,2.6-.36-.44-3.13-3.6.51.3,2.2-2,.28.42,3-2.73.38.27,2-2.62.37-.31-2.21-3.27.46.25,1.79-1.37.19.26,1.84-4.17.59.25,1.78-2.32.33.45,3.27-3.63.51.79,5.66-2.85.4.31,2.26-2.8.39.25,1.79,2.5-.35,1.25,8.93-2.83.39-1-6.93-3,.42-.63-4.5,3.15-.44-.44-3.11-2.82.4-.44-3.19,3.46-.48-.5-3.59,2.9-.4-.23-1.65-2.46.34-.31-2.21-2.53.35-.6-4.27,3.22-.45-.69-4.92,3.19-.44-.61-4.31-3.9.55.35,2.53-2.3.32.48,3.43-6,.84,1.23,8.79-4.35.6,1.68,12-3.42.48,1,7-2.9.4-.73-5.19-2.29.32-.52-3.75-3.23.45-.54-3.87-5.16.73-.7-5-2.54.35.31,2.18-1.94.27-.48-3.46,1.69-.24-.35-2.54-3.15.44.13.89-1.94.27.25,1.73-4,.56-.65-4.63-7.09,1,.27,1.94,2.94-.42.41,3,2.9-.41.35,2.46,3.22-.45.34,2.45-3.3.47-.22-1.54-4.18.59.24,1.77-2,.28.23,1.65,3.46-.48.2,1.37,4.47-.63.57,4.11,3.67-.51.24,1.73,6.57-.92.33,2.38-4.87.68.26,1.89,2.54-.35.37,2.7,4.72-.66.18,1.33-4.79.67.42,3,3.54-.5.29,2.06,2.34-.33.27,2,2.5-.35.33,2.33,4.95-.69.49,3.46-2.62.37.25,1.81,2.46-.34.17,1.21,2.54-.36.43,3.11,2.13-.3.39,2.74-2.46.34-.29-2.06-2.41.34-.34-2.37-3.18.44-.23-1.61-3.1.43-.19-1.41-1.53.22-.24-1.65-4.91.68-.25-1.77-5.68.8-.13-1-2.95.41.22,1.57-5,.7.22,1.58-3.47.48-.27-2-3.87.54-.21-1.53-2.78.38.31,2.22-2.54.36-.28-2-3.49.49c0,.31,0,.62,0,.93l.24,1.75-.26,0q-.08,4-.21,8c-.08,2.62-.18,5.25-.29,7.87l2.33-.33.52,3.71,3.38-.48-1.13-8.09,3.42-.48.55,3.91,1.53-.22-.61-4.35,3.47-.48.73,5.27,1.94-.27-.37-2.62,3.3-.46-.51-3.66,2.22-.31.31,2.25,1.82-.25.45,3.26,2.86-.4-.47-3.38,2.46-.34.39,2.78,7.65-1.08-.44-3.14,1.53-.21.37,2.62,4.79-.67.23,1.61-4.68.65.47,3.35-1.61.22-.28-2-2.57.36-.13-.93-3.31.46.24,1.69-1.65.24.23,1.65-2.14.3-.4-2.86-4.83.67.46,3.26-2.66.38.16,1.14-3.31.46.24,1.72-2,.29.23,1.69-2.17.3.48,3.43-2.54.35.29,2.06-5.12.71,1,7.13L312,1101l.18,1.25-3.47.48.18,1.29-1.56.22c-.13,3.08-.24,6.17-.34,9.25l2.2-.31.42,3,2.25-.31-.45-3.26,1.81-.26.58,4.19,3.43-.48-.43-3.06,2.5-.35.39,2.78,3.26-.45-.56-4,3-.42-.65-4.61,3.06-.43.68,4.81,2.25-.31-.8-5.76,2.82-.4.6,4.31,2.38-.33L335,1103l2-.28.38,2.74,1-.14.19,1.37,1-.14-.92-6.61,2.21-.31,1,7.25,2.37-.33-1.1-7.89,2.34-.33.24,1.73,2.29-.32-.25-1.81,2.42-.34-.43-3,5.6-.79-.69-5,3.22-.45.87,6.24-3.06.43.71,5.08-3.1.43.55,4-3.18.44,1,7.26-1.93.27.59,4.26,2.91-.4.63,4.51-2.34.33.19,1.33-1.09.15.65,4.67,2.9-.4.41,2.9,1.61-.23.6,4.27-2.06.29,1.23,8.78,1.49-.21.26,1.9,1.29-.18.78,5.56-2.34.32,1.62,11.53,1.24-.18.2,1.37,1.25-.17-.66-4.68,2.14-.3.88,6.33,1.73-.24-.45-3.27,2.25-.31.61,4.31-2.58.36.87,6.2,3.18-.44-.28-2,1.33-.18,1,6.85,3-.42-.9-6.49,1.33-.18-.15-1.05,2.58-.36-.63-4.47-2.53.35-.29-2-1,.14-.79-5.64,2-.28.4,2.82,1.08-.15.16,1.08,2.21-.31-1.58-11.32-2.18.31.47,3.34-5.76.81-.4-2.86,2.18-.31-.2-1.37,3.63-.5-1-7.09,2.54-.36-.4-2.86,3-.42-.38-2.7-5,.71.26,1.81-3.31.46-.45-3.22,2.94-.41-.26-1.89,2.86-.4.22,1.57,3.71-.52-.68-4.84-3.22.46-.33-2.34,3.42-.48-1-7,3-.42-1.31-9.3-1.89.26-.22-1.61-.93.13-1.18-8.46,4.27-.64,1.24,8.82,1.92-.27.5,3.59,4.87-4.07,2.07,14.85,1.66-.23-.57-4.11,3.49-.48.87,6.2,2.71-.38.73,5.24,2.45-.34.88,6.29.19,0a59.65,59.65,0,0,1,1.14-7.64l-.13-1,.35,0c.56-2.48,1.24-5,2-7.37,1.09-3.54,2.31-7,3.52-10.52l-.27-2,1-.14c.15-.42.3-.85.44-1.27l-.05-.42-2.68.37.25,1.76-3,.42-.42-3,3.13-.44-.48-3.44-2.52.36-.41-3-2.75.39-.18-1.28-1.45.2-.19-1.32-2.06.29-.17-1.22,2.22-.31-.21-1.45,4-.56-.16-1.15-2.13.3-.24-1.68-5.73.81-.28-2.07-3.44.48-.41-2.9-2.52.35-.38-2.75-2.52.36-.3-2.14-1.68.23-.13-.91-3.28.46-.58-4.13,5.19-.72.21,1.45,1.45-.2.24,1.75,6-.83.66,4.73,1.77-.25-.35-2.52,3.1-.43.73,5.27,1.38-.19-.35-2.52,2.36-.33-.24-1.76,4.58-.64.45,3.21,4.35-.61-.22-1.61,3.66-.51.46,3.28-3.21.45.24,1.68-2.14.3.14,1,1.83-.25.44,3.13,1.76-.25-.23-1.6,1.24-.17c.61-2.59,1.19-5.18,1.77-7.76.9-4,1.73-8,2.46-12.06l-6,.83-.2-1.45-7.56,1.06-.21-1.53-2.83.39.35,2.52-2.82.4-.12-.84-4.2.59-.23-1.68-3.21.44.34,2.45-3.44.48-.17-1.22-3.66.51.3,2.14-3.36.47-.47-3.36,3.51-.49-.31-2.22,1.3-.18.2,1.45,4.68-.65-.35-2.52,3.18-.45.14,1,2-.27-.14-1,3.74-.52.17,1.22,7.1-1-.41-3,1.75-.24-.23-1.68-1.38.19-.47-3.36,2.52-.35.4,2.82,2.75-.38.23,1.68-2.21.31.21,1.52,1.07-.15.17,1.22,1.68-.23-.26-1.91.84-.12.24,1.76,1.3-.18.22,1.6,2.52-.35-.34-2.44,2.81-.4C420.88,1053.62,421.43,1048.41,421.69,1043.17Z" fill="#fff"/><path d="M868.37,1017.17l-2,.27-.29-2.06,4.74-.66-.18-1.22-2.44.34-.31-2.21-1.37.19-.16-1.15-1.45.21.22,1.6-1.6.22-.44-3.13-2.37.33-.38-2.75-5.5.77-.41-2.9-4.73.66.2,1.45-.91.13-.26-1.83-2.6.36-.39-2.82-2,.28.5,3.58-2.52.36-.5-3.59-2.21.31-.28-2-1.3.18-.19-1.37-9.55,1.33-.2-1.45-7.56,1.06-.21-1.53-2.83.4.35,2.52-2.82.39-.12-.84-4.2.59-.23-1.68-3.21.45.34,2.44-3.44.48-.17-1.22-3.66.51.3,2.14-3.36.47-.47-3.36,3.51-.49-.31-2.22,1.3-.18.2,1.45,4.68-.65-.35-2.52,3.18-.45.14,1,2-.28-.14-1,3.74-.53.17,1.23,7.1-1-.41-3,1.75-.25-.23-1.68-1.38.19-.47-3.36,2.52-.35.4,2.82,2.75-.38.23,1.68-2.21.31.21,1.53,1.07-.15.17,1.22,1.68-.24-.26-1.9.84-.12.24,1.75,1.3-.18.22,1.61,2.52-.36-.34-2.44,3.44-.48-.27-1.91,2.29-.32-.25-1.83,2.9-.41.61,4.35-2.68.38.12.84-1.53.21.2,1.38,2.21-.31-.19-1.38,2.75-.38-.18-1.3,1.52-.21-.12-.92,1.37-.19-.24-1.68,1.07-.15.44,3.13-2,.28.3,2.13,2.74-.38-.19-1.37,2.37-.34-.33-2.36,2.21-.31.35,2.44,2.59-.36-.23-1.68,1.07-.15.15,1.07,1.52-.22.27,1.91,2.44-.34.39,2.75,4.2-.59-.24-1.68,1.84-.25-.28-2,2.9-.4.42,3,2.75-.38-.46-3.28-1.91.26-.52-3.66-5.57.78-.38-2.75-3.52.49-.36-2.6-1.91.27.12.84-2.29.32-.21-1.45-2.52.35-.14-1-3.13.44.12.84-2,.27-.22-1.52-1.37.19-.26-1.83,2.52-.36-.24-1.75-3.9.54-.32-2.29-1.53.21-.25-1.83-3.36.47.32,2.29-4.89.69-.32-2.29-1.07.15-.22-1.61-3.74.52.29,2.14-2.11.3-.17-1.22-3.08.43.36,2.59-1.52.22-.23-1.61-4.43.62.3,2.14-1.3.18.11.77-.92.12.18,1.23-1.68.23-.24-1.68-3.36.47.3,2.14-3.28.46.26,1.91-2.06.29.24,1.67-2.75.39.49,3.51-3,.42.25,1.76-2.75.38.18,1.3-3.52.49.24,1.68-2.6.36.58,4.13-3.36.47-.52-3.75,2.29-.32-.43-3,3.44-.48-.24-1.68,3.67-.51-.4-2.83,3.44-.48-.47-3.36-2.22.31-.43-3.13,2.59-.36.39,2.74,2.42-.33-.6-4.28,2.62-.37-.44-3.13,2.14-.3.14,1,2.82-.4-.3-2.14,3.06-.42-.24-1.68-2.51.35-.25-1.76,3.05-.43-.21-1.52,3.13-.44-.36-2.6-3.21.45.24,1.68-3.44.48.29,2.06-4.89.69.2,1.45-5,.7-.33-2.36,2.27-.32-.4-2.83-2.8.4-.3-2.14,3.52-.49.31,2.21,3.66-.51-.21-1.53-1.45.2-.29-2.06,4.05-.56-.23-1.61-2.82.4-.24-1.68-1.45.2-.18-1.3,6.57-.92-.15-1.07-3,.42-.31-2.21,3.51-.5.34,2.45,3.06-.43.18,1.3,2.06-.29-.38-2.75-4.13.58-.32-2.29,1.91-.27-.52-3.74,1.76-.25-.16-1.14,3.35-.47-.49-3.51-2.36.33.22,1.6-3,.42-.47-3.36,2.6-.37-.44-3.12-3.6.5.3,2.21-2,.28.42,3-2.73.38.27,2-2.62.37-.31-2.2-3.27.45.25,1.79-1.37.19.26,1.85-4.17.58.25,1.79-2.32.32.45,3.28-3.63.5.79,5.66-2.85.4.31,2.26,0,1.83,1.25,8.93-1.73.24C788.63,997,790,1033,790,1033l3.76-.57,1.24,8.83,1.92-.27.5,3.58,4.87-4.07,2.07,14.86,1.66-.23-.57-4.11,3.49-.49.87,6.2,2.71-.38.73,5.25,2.45-.35.88,6.3,2.36-.34-1.16-8.3,3-.41.94,6.73,2.27-.32,1.75,12.49,2.88-.4L828,1073l3.23-.45.92,6.55,2.62-.37.39,2.8,2-.28.78,5.59,3.23-.45-1.46-10.49-2.54.36-.67-4.81-2.44.34-.53-3.75,2.45-.34-.33-2.36-2.54.35-.51-3.67,3.32-.46-.33-2.36-4.84.68-1.1-7.89,2.59-.36-.39-2.28-2.83.39.15,1.07-2.6.37-.36-2.6,2.22-.31-.23-1.6-2.37.33-.2-1.45-.91.12-.3-2.13,1-.14-.33-2.37-1.45.2-.32-2.29,1.6-.22-.22-1.61-2.68.38.25,1.75-3,.42-.42-3,3.13-.43-.48-3.44-2.52.35-.41-3-2.75.38-.18-1.27-1.45.2-.18-1.33-2.07.29-.17-1.22L814,1027l-.21-1.45,4-.56-.16-1.14-2.13.3-.24-1.68-5.73.8-.28-2.06-3.44.48-.41-2.9-2.52.35-.38-2.75-2.52.35-.3-2.14-1.68.24-.13-.92-3.28.46-.58-4.12,5.19-.73.21,1.45,1.45-.2.24,1.76,6-.84.67,4.73,1.76-.24-.35-2.52,3.1-.44.73,5.27,1.38-.19-.35-2.52,2.36-.33-.24-1.76,4.58-.64.45,3.21,4.35-.61-.22-1.6,3.66-.52.46,3.29-3.21.45.24,1.68-2.14.3.14,1,1.83-.26.44,3.13,1.76-.24-.23-1.61,2.6-.36-.3-2.14,1.17-.16-.09-.61,1.74-.24.66,4.73-1.91.27.34,2.44,4.2-.59-.82-5.88,2.21-.31.59,4.2,2.52-.35.77,5.5,2.75-.38-.56-4-2.21.31-.66-4.74,1.22-.17-.43-3.06,2.9-.4.42,3,2.75-.39-.41-2.9,1.76-.24.57,4-2,.28.43,3.06,2.67-.38-.42-3,2-.28-.58-4.12,1.84-.25.13,1,1.23-.17.44,3.2-.91.13.26,1.91-2.13.3.31,2.22,1-.14.15,1.07,2.06-.29-.5-3.59,2.14-.3.56,4,1.45-.21-.15-1.07,1.15-.16-.56-4,4.82-.67.48,3.44,2.21-.31-.17-1.22.76-.11Z" fill="#e4e4e2"/><path d="M529.15,769.49c-31.7-167-14-237.52-17.83-248.78-.7-2.07-120.46,75.13-164.91,102C291.13,656.19,319.74,947,319.74,947s-27.68,203.28-2.3,287.31c2.37,15.93,3.05,28,6.43,41.39l64-1.5s-4.07-29.78-3.11-42.45c12.87-27.53,13.71-91.47,23.53-122.42,6-18.8,10.39-47.35,12.94-66.87a165.61,165.61,0,0,1-1.33,19.91c-3.73,22.74-25,83.8-14.05,144.17-3,26.45,2.81,153.15,2.81,153.15s152.61,54.81,160-122.61C573.36,1121.58,560.58,935.1,529.15,769.49Z" fill="none" stroke="#262521" stroke-linecap="round" stroke-linejoin="round" stroke-width="3"/><path d="M408.62,1359.71s152.61,54.81,160-122.61c4.78-115.52-8-302-39.43-467.61-31.7-167-14-237.52-17.83-248.78" fill="none" stroke="#636363" stroke-linecap="round" stroke-linejoin="round"/><path d="M862.83,914.32s-1.4-298-58.88-331.94c-11.19-6.61-158.61-67.76-158.61-67.76s8.21,105.2-4.85,267.77c-13,162,2.23,251.47,31.16,482.47,13.23,105.59,148.54,78.29,148.54,78.29s-7.61-122-11.51-153.31c3.94-36.14-5.66-81.16-16.45-126.52,13.84,47.61,27,143,37.17,152.17,1.64,26.39,1.89,36.36,1.89,36.36l64.1-1.5s-1-14.31-2.6-35.73C918.41,1131.48,862.83,914.32,862.83,914.32Z" fill="none" stroke="#262521" stroke-linecap="round" stroke-linejoin="round" stroke-width="3"/><path d="M645.34,514.62s8.21,105.2-4.85,267.77c-13,162,2.23,251.47,31.16,482.47,13.23,105.59,148.54,78.29,148.54,78.29" fill="none" stroke="#636363" stroke-linecap="round" stroke-linejoin="round"/><path d="M413.3,1337.53s107.37,26.48,118.21-59.72c16.58-131.82-8.4-393.92-27.33-493.7-31.7-167.05-16.65-248-16.65-248" fill="none" stroke="#636363" stroke-linecap="round" stroke-linejoin="round"/><path d="M670.66,528.42s7.71,110.19-5.35,272.76c-6.76,84.13,11.32,263.05,25.32,380.59,5.76,48.38,8.92,91.44,27.58,111.19,36.08,38.17,94.78,22.44,94.78,22.44" fill="none" stroke="#636363" stroke-linecap="round" stroke-linejoin="round"/><circle cx="651.4" cy="906.31" r="6.13" fill="none" stroke="#636363" stroke-linecap="round" stroke-linejoin="round" stroke-width="0.74"/><circle cx="657.72" cy="1019.32" r="6.13" fill="none" stroke="#636363" stroke-linecap="round" stroke-linejoin="round" stroke-width="0.74"/><circle cx="669.98" cy="1125.28" r="6.13" fill="none" stroke="#636363" stroke-linecap="round" stroke-linejoin="round" stroke-width="0.74"/><circle cx="684.61" cy="1243.98" r="6.13" fill="none" stroke="#636363" stroke-linecap="round" stroke-linejoin="round" stroke-width="0.74"/><path d="M792.23,1063.32s-2.89-43.72-9.6-114.93c-4.46-47.39-8.56-138.8-8.56-138.8" fill="none" stroke="#262521" stroke-linecap="round" stroke-linejoin="round" stroke-width="3"/><path d="M413.14,809.59s6.17,50.77,6.72,100.52,2.1,112.51,1.33,132.37" fill="none" stroke="#262521" stroke-linecap="round" stroke-linejoin="round" stroke-width="3"/></svg>