<svg xmlns="http://www.w3.org/2000/svg" width="1250" height="1550" viewBox="0 0 1250 1550"><title>s05e01-01</title><polygon points="742.04 370.95 557.55 252.34 406.87 370.6 406.42 175.54 742.04 175.54 742.04 370.95" fill="#ffc702"/><polygon points="542.61 556.06 519.63 576.4 590.45 608.04 640.91 572.63 620.96 549.27 542.61 556.06" fill="#fff"/><path d="M821.16,1236.52c.9,8.07,6.06,21.6,6.57,27.5.29,3.27.51,6.17.66,8.61,1.64,26.39,69.21,24.72,69.21,24.72s.15-3.37.32-8.73c.1-3.26,3.7-7.25,3.78-11.67.11-6.18-3.34-13.18-3.42-20.15-.09-6.72,3.84-6.35,3.42-12.25-.34-4.74-4.23-9.86-5.17-19-.73-7.08,6.17-4.34,5.2-13.51-.35-3.3-4.89-4.8-7.2-12.79-2.84-9.83.92-24.42.44-29.07-.7-6.74-5.89-15.79-6.62-23.07-.48-4.84,3-9.79,2.53-14.82-.76-7.84-4.78-7.71-5.52-15.89-.79-8.61,1.7-25.55,1-34.38-1-11.4-1.72-2.26-2.51-13.69-.05-.85-4.22-22.36-4.29-23.22-.32-4.22.63-11.47.16-15.78-.73-6.63-3-10.35-4-17a853.72,853.72,0,0,0-18.89-89.27S842.25,616.11,804,591.12c-5.15-3.36-37.33-16.14-69.78-28.66,1.86-1.12,3-2,3.12-2.5,2.22-6.92-4.7-10-13.56-15.54s-8-14.34-11.34-21-13.84,1.66-13.84,1.66-10.79-15.78-17.7-24.45c-3-3.77-20.85-3.87-40-2.78.86,13.66,2.78,26.49,6.86,30,1.88,1.61,7.6,4.25,15.59,7.45,0,.06,0,.13,0,.19l-1.55-.58S605.57,601.06,590.45,602s-93.73-51.34-97.85-63.49c-.24-.7-.4-1.21-.51-1.59,9.94-5.1,17-9.88,18.44-13.72,2.33-6,3-14.93,3-24.11-14.33.78-25.65,2.8-28.65,6.91-9.89,13.58-12.16,13.58-12.16,13.58s-8.2-8.2-14.7,0-35.63,29.4-30,40.15c1.33,2.54,5.64,5.54,11.44,8.63-31.48,19.46-69.82,43.06-93.06,57.06-44.73,27-26.67,324.28-26.67,324.28a619.79,619.79,0,0,0-3.6,128.12c.74,9.27,1.44,20.58,2.09,33.22.31,6.07-4.38,12.44-4.09,19,.2,4.63,5.4,9.38,5.6,14.21.34,8.48-2.56,19.44-2.42,30,.09,6.22,3.19,12.28,3.37,17.58.11,3.44-4.46,27.63-4.35,31.07.31,9.37,5.25,9.54,5.53,18.69.48,15.6-2.55,19.22-2.13,32.85.28,9.11,4.66,11.82,4.92,19.43s-3.49,14.29-3.24,19.88a40,40,0,0,0,5.32,18c5.48,14.09,73.17-23.31,72.57-33.48-.34-5.78,1.54-16.56-1.91-25-2.62-6.43-5.88-5-5.47-10.44.72-9.53,2.46-3.7,4-17.07.55-4.89-5.7-15.68-5.07-21,.51-4.27,9.88-25.65,10.44-30.18" fill="#a8a8a9" stroke="#262521" stroke-linecap="round" stroke-linejoin="round" stroke-width="3"/><path d="M413.14,1024.57c7.5,35.69-46.71,147.61,28.73,534.92,12.94,27.83,380.08,22.69,386-5.54,6.33-346.83-21.82-434.94-35.51-494.27" fill="#a8a8a9" stroke="#262521" stroke-linecap="round" stroke-linejoin="round" stroke-width="3"/><path d="M491.85,535.93h0S491.86,535.9,491.85,535.93Z" fill="#a8a8a9" stroke="#262521" stroke-linecap="round" stroke-linejoin="round" stroke-width="3"/><path d="M405.81,735.31s-2.1,104,2.56,149.11,6.12,129.79,4.77,140.15" fill="#a8a8a9" stroke="#262521" stroke-linecap="round" stroke-linejoin="round" stroke-width="3"/><path d="M760.47,735.31s13.92,116.86,17.26,143.05,2.93,130.58,14.59,181.32" fill="#a8a8a9" stroke="#262521" stroke-linecap="round" stroke-linejoin="round" stroke-width="3"/><path d="M447,571.56c26.83-3.21,131.79,43.64,144.22,43.64s69.19-39.84,133.54-50.06" fill="none" stroke="#636363" stroke-linecap="round" stroke-linejoin="round" opacity="0.95"/><path d="M633.55,580.51c2.34,33.3,2.8,66.69,2.82,100.06s-.37,66.51.26,99.77c.36,18.85,1.06,37.69,2.33,56.5.16,2.49,4.07,2.51,3.9,0-2.26-33.49-2.68-67.07-2.69-100.62,0-33.21.38-66.41-.3-99.61-.38-18.72-1.11-37.43-2.42-56.1-.18-2.49-4.08-2.51-3.9,0Z" fill="#d3d5d5"/><path d="M527.7,582.92q3.54,50.1,4.7,100.34,1.17,50,0,99.94-.66,28-2.07,56c-.13,2.51,3.77,2.5,3.9,0q2.5-50.16,2.67-100.41.14-50-2.06-99.92-1.23-28-3.21-56c-.17-2.49-4.07-2.51-3.9,0Z" fill="#d3d5d5"/><path d="M450.54,879.62s55.78,31.43,74.74,62.86" fill="none" stroke="#636363" stroke-linecap="round" stroke-linejoin="round" stroke-width="3" opacity="0.95"/><path d="M451,1079.28s-5.42,37.32,34.42,83.16" fill="none" stroke="#636363" stroke-linecap="round" stroke-linejoin="round" stroke-width="3" opacity="0.95"/><path d="M612.18,872s6.5,300.26-100.56,428.22c0,0-17.54,20.07-28.18-13.16" fill="none" stroke="#636363" stroke-linecap="round" stroke-linejoin="round" stroke-width="3" opacity="0.95"/><path d="M631.6,872.07s68.29,434.14,7.32,541.9" fill="none" stroke="#636363" stroke-linecap="round" stroke-linejoin="round" stroke-width="3" opacity="0.95"/><path d="M640.91,873.31s128.32,578.42,67.34,686.18" fill="none" stroke="#636363" stroke-linecap="round" stroke-linejoin="round" stroke-width="3" opacity="0.95"/><path d="M677.82,877.49s17.67,163,80,222.15" fill="none" stroke="#636363" stroke-linecap="round" stroke-linejoin="round" stroke-width="3" opacity="0.95"/><path d="M457,756.5c14.28,27.33-29.21,124.07-6.41,123.12s85.18,2.86,127.35-5.73,152.67,6.29,172,25.34c20.82,20.5,24.48,51.43,24.48,51.43" fill="none" stroke="#636363" stroke-linecap="round" stroke-linejoin="round" stroke-width="3" opacity="0.95"/><path d="M592.7,872S549.8,1028,419,1099.64" fill="none" stroke="#636363" stroke-linecap="round" stroke-linejoin="round" stroke-width="3" opacity="0.95"/><path d="M513.9,897.5s25,17.68,37.93,5.54,26.06-29.15,26.06-29.15" fill="none" stroke="#636363" stroke-linecap="round" stroke-linejoin="round" stroke-width="3" opacity="0.95"/><path d="M507.85,1282.77s-36.28-5.14-66.52,29.09c-17.5,19.82,72.57,252.2,72.57,252.2" fill="none" stroke="#636363" stroke-linecap="round" stroke-linejoin="round" stroke-width="3" opacity="0.95"/><path d="M666.36,875.63s47.1,355.71,145.46,406.08" fill="none" stroke="#636363" stroke-linecap="round" stroke-linejoin="round" stroke-width="3" opacity="0.95"/><path d="M820.86,1078.67S867,1082,875,1072.85" fill="none" stroke="#636363" stroke-linecap="round" stroke-linejoin="round"/><path d="M811.82,1121.62s44.77,5.21,59.15,0" fill="none" stroke="#636363" stroke-linecap="round" stroke-linejoin="round"/><path d="M850.1,1141.13s30.91,2.13,35.14-2.79" fill="none" stroke="#636363" stroke-linecap="round" stroke-linejoin="round"/><path d="M831.28,1171.73s32.47,16.11,54.2,13.42" fill="none" stroke="#636363" stroke-linecap="round" stroke-linejoin="round"/><path d="M858.38,1207.52s15.66.9,27.1-8.27" fill="none" stroke="#636363" stroke-linecap="round" stroke-linejoin="round"/><path d="M839.21,1238.84s38.5-1.14,50.11-11.18" fill="none" stroke="#636363" stroke-linecap="round" stroke-linejoin="round"/><path d="M831.28,1253.16s20,5.81,35,3.58" fill="none" stroke="#636363" stroke-linecap="round" stroke-linejoin="round"/><path d="M865.19,1263.45s15.69-.77,27.07-6.2" fill="none" stroke="#636363" stroke-linecap="round" stroke-linejoin="round"/><path d="M838.46,1270.61s29.38,15.21,53.1,13.87" fill="none" stroke="#636363" stroke-linecap="round" stroke-linejoin="round"/><path d="M324.42,1139.13s49.05.41,60.79-11.37" fill="none" stroke="#636363" stroke-linecap="round" stroke-linejoin="round"/><path d="M394.76,1145.76s-26.78,4.53-39.95,3.39" fill="none" stroke="#636363" stroke-linecap="round" stroke-linejoin="round"/><path d="M325.94,1188.26s31.08-2.24,45.12-14.63" fill="none" stroke="#636363" stroke-linecap="round" stroke-linejoin="round"/><path d="M345.07,1194.16s37.85-3.83,52-11.8" fill="none" stroke="#636363" stroke-linecap="round" stroke-linejoin="round"/><path d="M390.83,1211.62s-38.23,7.54-46.33,4.78" fill="none" stroke="#636363" stroke-linecap="round" stroke-linejoin="round"/><path d="M327.79,1234.9s23.35-.75,38.64-4.55" fill="none" stroke="#636363" stroke-linecap="round" stroke-linejoin="round"/><path d="M388.31,1256s-23.71,6.07-31.81,8.38" fill="none" stroke="#636363" stroke-linecap="round" stroke-linejoin="round"/><path d="M329,1317.64s55.65-19.92,61.8-28.62" fill="none" stroke="#636363" stroke-linecap="round" stroke-linejoin="round"/><path d="M331.05,1291.45s32.75,1.35,50.9-2.43" fill="none" stroke="#636363" stroke-linecap="round" stroke-linejoin="round"/><path d="M327.79,1277.63s47.51,4.43,60.52-4" fill="none" stroke="#636363" stroke-linecap="round" stroke-linejoin="round"/><path d="M578.1,221.65S511.45,211,477.39,263.23C467.15,279,462,303.51,457.47,327.35,441.34,371.37,447,443.27,447,443.27s27.62,5.6,34.76,2.22S502,440.43,502,440.43s-17.4-64.42.95-128L513,317.45s26.87-19.71,29.69-19.71,18.48,7.32,26.41,5.63,19.76-7.32,26-7.32,20,23.72,23.08,20.84c11.83-11.27,20.51,13,20.51,13s17.81,52.71,2.25,102.43c0,0,22.79,14.23,29,10.29s39.45-18.34,39.45-18.34-12.39-26.43-13-44.69S687.09,212,578.1,221.65Z" fill="#dacd99" stroke="#262521" stroke-linecap="round" stroke-linejoin="round" stroke-width="3"/><path d="M529.32,231.16c-7.19.62-12.74,6.75-16.8,12.14-6.78,9-11.48,19.55-15.33,30.06a233.32,233.32,0,0,0-11.11,44,283.54,283.54,0,0,0-3.27,53.11,268.16,268.16,0,0,0,8.11,57.69c.62,2.44,1.29,4.88,2,7.31a1.5,1.5,0,0,0,2.89-.8,261.52,261.52,0,0,1-9.65-56.92,281.66,281.66,0,0,1,1.87-53,243,243,0,0,1,10-44.59c3.63-11,8.14-22,14.54-31.72a50.59,50.59,0,0,1,7.87-9.57,22,22,0,0,1,3.72-2.85,11.92,11.92,0,0,1,3.63-1.61c.3-.08.6-.15.91-.21.09,0,.57-.09.19,0l.48-.05c1.9-.16,1.92-3.16,0-3Z" fill="#bbaa75"/><path d="M476.22,350.56c-.26,6.8-.21,13.61-.07,20.41a312.65,312.65,0,0,0,3.38,42,124.23,124.23,0,0,0,5.39,22.51c.64,1.8,3.54,1,2.89-.8-4.72-13.23-6.45-27.51-7.56-41.43-.95-11.87-1.3-23.8-1.17-35.7,0-2.33.05-4.67.14-7,.07-1.93-2.93-1.92-3,0Z" fill="#bbaa75"/><path d="M471.49,369.28c-.18,6-.19,12.07-.13,18.1a327.84,327.84,0,0,0,1.8,34.75,84.43,84.43,0,0,0,3.11,16.38c.6,1.83,3.49,1.05,2.9-.8a75.35,75.35,0,0,1-2.81-13.89c-.73-5.79-1.16-11.62-1.46-17.44-.53-10.25-.65-20.51-.53-30.77,0-2.11.06-4.22.12-6.33.06-1.93-2.94-1.93-3,0Z" fill="#bbaa75"/><path d="M528,253.9a86,86,0,0,0-6.29,10.69,97.29,97.29,0,0,0-9.08,25.4,65,65,0,0,0-1.14,17.66c.15,1.91,3.15,1.93,3,0-1.37-17.11,5-34.36,13.86-48.78.71-1.17,1.44-2.34,2.24-3.46,1.12-1.57-1.48-3.07-2.59-1.51Z" fill="#bbaa75"/><path d="M524.18,272.85a50.93,50.93,0,0,0-2.72,9.54c-1.26,6.33-1.6,13,.14,19.26a1.5,1.5,0,0,0,2.9-.79c-1.66-6-1.27-12.33,0-18.33a51.62,51.62,0,0,1,2.59-8.88c.72-1.79-2.18-2.57-2.89-.8Z" fill="#bbaa75"/><path d="M605.16,237.39c3.16,5.14,6,10.47,8.78,15.83a247.7,247.7,0,0,1,15.34,35.88,125.28,125.28,0,0,1,5.44,22.66,1.54,1.54,0,0,0,1.5,1.5,1.5,1.5,0,0,0,1.5-1.5c-1.84-14-6.51-27.54-12-40.52A293.25,293.25,0,0,0,611,241.44c-1-1.87-2.12-3.73-3.24-5.56-1-1.64-3.6-.14-2.59,1.51Z" fill="#bbaa75"/><path d="M621,256.07a65.73,65.73,0,0,1,3.74,6.25,172.77,172.77,0,0,1,8.76,18.86,262.6,262.6,0,0,1,10.39,32.24,350.72,350.72,0,0,1,8.47,46.15,456,456,0,0,1,2.87,60q-.06,4.22-.2,8.45c-.06,1.93,2.94,1.93,3,0a470.41,470.41,0,0,0-2-62.36,367.15,367.15,0,0,0-8-48,274.05,274.05,0,0,0-10.44-34.23,189,189,0,0,0-9.36-21,59.23,59.23,0,0,0-4.58-7.86.36.36,0,0,1-.07-.1c-1.1-1.57-3.7-.07-2.59,1.52Z" fill="#bbaa75"/><path d="M654,331.81c2.06,7.9,3.71,15.93,5.22,23.95,3.12,16.54,5.46,33.33,5.93,50.18a127.18,127.18,0,0,1-1.79,27.7c-.37,1.89,2.53,2.7,2.89.8,3.3-16.92,2.13-34.66.15-51.67a418.34,418.34,0,0,0-7.49-43.31c-.64-2.82-1.29-5.65-2-8.45a1.5,1.5,0,0,0-2.89.8Z" fill="#bbaa75"/><path d="M612.87,272.45l.27.29.29.34c.13.17.41.54.23.29A32,32,0,0,1,616,277a48.31,48.31,0,0,1,5.09,14.74,69.94,69.94,0,0,1,1.08,13.48,1.5,1.5,0,0,0,3,0c.1-11.23-1.86-23.76-8.7-33a16.22,16.22,0,0,0-1.48-1.83c-1.35-1.39-3.47.73-2.12,2.12Z" fill="#bbaa75"/></svg>