<svg xmlns="http://www.w3.org/2000/svg" width="1000" height="1550" viewBox="0 0 1000 1550"><path d="M296.2 1019s-11.62 57.37-21.45 88.33-13.08 105-15.36 135.21c-.95 12.67 4.66 27 4.66 27l-61 1.5c-16.33-18.73-8.93-129.51-14.45-197.93A619.73 619.73 0 01192.24 945s-18.06-297.33 26.67-324.28 149.6-93.13 149.6-93.13-.25-.24.72 2.61c4.12 12.15 18.37 50.53 83.46 50.53 80.35 0 75.14-53.14 75.14-53.14s137.74 51.71 148.62 58.82c38.3 25 52.88 331.94 52.88 331.94s19 68.76 22.89 124.63c5.57 81.26 18.66 177.57 17.84 189.79s-5.3 18.88-5.3 18.88h-58.1s-1.25-8-2.88-34.36c-2.47-39.8-31-134-48.07-177.22" fill="#fff" stroke="#262521" stroke-linecap="round" stroke-linejoin="round" stroke-width="3"/><path d="M711 1220.46s30.63-3.83 52.37 0M200.25 1238s30.64-3.84 52.37 0" fill="none" stroke="#636363" stroke-linecap="round" stroke-linejoin="round"/><path d="M285.64 807.59s5.34 199.1 3.82 238.13c-.83 21.49-22 157.13-9.69 184.31.05 13-6.31 43-6.31 43s91 20.67 168 19.75c137.53-1.66 246.39-30.38 246.39-30.38s-6.68-30-7.46-43.63c14.5-25-21.1-173.94-22.9-243.9-1.22-47.58-16.1-167.27-16.1-167.27" fill="#fff" stroke="#262521" stroke-linecap="round" stroke-linejoin="round" stroke-width="3"/><path d="M290.76 1235.09s171.06 37.78 379.51-12.18" fill="none" stroke="#636363" stroke-linecap="round" stroke-linejoin="round"/><path d="M320.48 609c-4.48.42-6.86 4.39-8.68 8.08a53.75 53.75 0 00-4.08 11.92c-.93 4.12-1.52 8.3-2.09 12.49-.38 2.76-.26 7.74-3.33 9.06-3.44 1.48-7.76-.62-11.2-1.08a13.84 13.84 0 00-6.78.67c-2 .72-3.85 1.66-6 1.83-4.25.35-8.25.11-12.15 2.16a17.23 17.23 0 00-7.48 7.85c-1.62 3.52-2.81 8.87 1.34 11.16a58.76 58.76 0 006.46 2.65c2 .78 4.26 1.39 6 2.6.73.5 1.31 1.2 2 1.77a10.4 10.4 0 003.17 1.84c1.75.66 3.65.85 5.43 1.47 2.61.92 5.64 2.74 6.52 5.29.6 1.74.07 3.5-.53 5.28-.76 2.25-1.52 4.48-2.21 6.75-1.31 4.38-2.43 8.82-3.33 13.31-.94 4.64-1.65 9.32-2.16 14-.24 2.23-.67 4.64.05 6.82a8.13 8.13 0 003.87 4.5c4.18 2.23 8.85.88 12.82-1.14a22.71 22.71 0 005.25-3.64c1.53-1.43 2.8-3.11 4.19-4.67A85.86 85.86 0 01327 713.73a17.29 17.29 0 015.54-2.66c1.83-.35 3.36.56 4.86 1.52 4 2.56 8 5.24 11.95 7.86 1.9 1.25 3.74 2.49 6 2.85a30.76 30.76 0 015.75 1.26c3.63 1.29 7 3.29 10.78 4.19s8.72.94 11.19-2.71c2.11-3.12 1.24-7.35.19-10.68a137.24 137.24 0 00-10.5-24.65c-1-1.92-2.17-3.79-3.27-5.67-.85-1.46-1.94-3.21-1.71-5 .46-3.57 4.86-5.45 7.53-7a21.48 21.48 0 005-3.85 43.34 43.34 0 003.62-5 17.68 17.68 0 013.41-4.05c1.27-1 2.74-1.8 4.09-2.71 3.58-2.43 5.9-5.63 6-10.1a26.51 26.51 0 00-.86-6.32 5.49 5.49 0 00-4.51-4.43c-8.87-2-17.87.11-26.61 1.71a59.51 59.51 0 01-12.95 1.39 5.59 5.59 0 01-4.27-1.79 15.67 15.67 0 01-2.31-4.23 122.06 122.06 0 00-5.78-12 66.64 66.64 0 00-7.27-11.09c-2.56-3-7.69-4.56-10.57-1.07a2.73 2.73 0 000 3.75 2.68 2.68 0 003.76 0c.64-.78 1.54-.41 2.38.36a23.18 23.18 0 013.34 4.52 108.25 108.25 0 016.32 11c.94 1.9 1.83 3.83 2.65 5.78a34.4 34.4 0 002.24 4.71c2.32 3.69 5.85 5.3 10.14 5.33 8.51.07 16.74-2.56 25.13-3.55a37 37 0 0112.16.21c.4.08.79.22 1.19.3-.06 0-.34-.17-.34-.29a2.7 2.7 0 00.14.56 29.56 29.56 0 01.6 3.09 8.2 8.2 0 01-.49 4.8c-1.46 2.76-5.1 4.07-7.46 5.93-2.89 2.28-4.49 5.55-6.68 8.42-2.35 3.1-5.92 4.4-9 6.59s-6 5.56-5.85 9.67c.14 4.33 3.13 8 5.16 11.67s4 7.51 5.66 11.39 3.14 7.72 4.44 11.68a24.27 24.27 0 011.26 4.76c.13 1.25.08 2.57-.59 3.17-.86.78-2.78.64-4 .47a21.9 21.9 0 01-5-1.53c-3.39-1.38-6.68-3.18-10.32-3.84-2.08-.38-3.74-.44-5.56-1.6s-3.78-2.49-5.67-3.73l-5.73-3.77a27.89 27.89 0 00-5.49-3.13c-4.36-1.64-8.53.53-12.21 2.76a94.06 94.06 0 00-10.11 7.15 88.27 88.27 0 00-8.76 8.09c-2.67 2.83-4.92 6.28-8.27 8.37-2.59 1.61-6.85 3.92-9.77 1.9-1.36-.94-1.22-2.34-1.09-3.87q.29-3.18.72-6.35a147 147 0 016-25.78c1.35-4.1 3-8.1 1.17-12.33a14.39 14.39 0 00-7.2-6.83 23.42 23.42 0 00-4.94-1.75 27.06 27.06 0 01-2.69-.66 5.87 5.87 0 01-2.15-1.46c-3.18-3-7.66-4.19-11.65-5.79-.91-.36-1.86-.67-2.73-1.1-.61-.29-.52-.39-.46-1.1a10.05 10.05 0 011.35-4 12 12 0 016.6-5.47c3.9-1.23 8.13-.21 12-1.53 1.8-.6 3.54-1.64 5.45-1.86 2.09-.25 4.19.39 6.2.86 3.71.86 8 1.45 11.42-.72s4.34-6 4.85-9.76c1.06-7.79 2-15.8 5-23.13a35.61 35.61 0 012.46-4.85c.52-.86 1.45-2.56 2.57-2.66a2.73 2.73 0 002.66-2.66 2.68 2.68 0 00-2.66-2.65z" fill="#262521" opacity=".35"/><path d="M288.92 739.33a8.42 8.42 0 01-8.14-8.78c.24-3.82 7.35-29.42 12-45.69-11.66-6.09-21-11.56-24.44-12.24-5 .91-7.95-2-8.68-5.85a8 8 0 016-9.21c1.09-.26 17.84-4.26 37.39-7.88 10.88-36.13 12.79-36.93 16.35-38.41a8.49 8.49 0 018.67 1.38c3.59 2.88 11.14 16.1 18.93 31 23.22-2.48 38.44-4.9 38.63-4.93 3.47-.49 8.63 1.34 10.12 4.53s-.18 8.72-2.8 11.06c-.17.16-12.13 9.88-28.45 24.28 16.31 33.94 15.64 37.64 15.23 40a8.31 8.31 0 01-5.52 6.45c-4.43 1.48-5.75 1.14-41.6-18.55-8.61 7.43-15.87 13.6-21.69 18.41-12.75 10.42-17.78 14.43-22 14.43zm17.28-47.73c-1.94 6.89-5.49 18.12-7.05 23.86 4.58-3.82 13.45-12.16 19.37-17.24-3.42-1.87-8.75-4.69-12.32-6.62zm39.17 3.67c4.24 2.32 8.5 4.65 12.38 6.73-1.7-3.77-4.55-8-6.68-12.49-2.18 1.91-3.5 3.84-5.7 5.76zm-34.7-18.45c5.58 3 13.63 6.41 20.72 10.29 4.58-4 7.59-7.27 12.49-11.57-2.33-4.71-4.72-10.36-7.07-15-6.95.7-14.65 1.82-22.29 3.1-1.37 4.65-2.61 8.91-3.85 13.18zm-21.9-9.17c1 .51 7.36 2.81 8.43 3.36.24-.79.46-3.35.69-4.12-1.29.25-7.89.51-9.12.76zm33.42-33.26s-2.1 8.05-3.43 12.33c3.14-.48 6.26-.91 9.3-1.29-2.06-3.8-5.87-11.04-5.87-11.04z" fill="#262521"/><path d="M323.79 630c-3.33 0-4.24 3.26-5 5.85q-1.29 4.28-2.54 8.57-2.57 8.76-5 17.56l-9.87 35.35c-.92 3.3-1.89 6.6-2.75 9.92a22.18 22.18 0 00-.66 10c.35 1.76 2.49 2.32 3.9 1.58 3.37-1.75 4.65-5.32 6-8.64a12.69 12.69 0 012-3.59c1.38-1.43 3.33-1.88 5.18-2.4 5-1.39 10-2.74 15-3.77a46.29 46.29 0 0115-1 29.65 29.65 0 0113.93 5.75 2.68 2.68 0 003.64-.95 2.71 2.71 0 00-1-3.63 33.63 33.63 0 00-13.43-6 46.24 46.24 0 00-16.34.08 155.93 155.93 0 00-15.93 3.73 38.37 38.37 0 00-7 2.31 10.79 10.79 0 00-4.5 4.33 48.4 48.4 0 00-2.42 5.55 14.48 14.48 0 01-1.23 2.31 4.18 4.18 0 01-1.57 1.32l3.9 1.59a16.11 16.11 0 01.66-7.19c.71-2.76 1.52-5.5 2.29-8.24l4.6-16.51c3-10.79 6-21.59 9.08-32.35q1.31-4.54 2.64-9.06l1.41-4.77c.24-.78.44-1.6.72-2.38 0 0 .07-.4.08-.24l.15-.27a1 1 0 01-.91.47c3.42 0 3.42-5.27 0-5.31zM594.16 552.81a19.79 19.79 0 00-11.95 12.58c-.84 2.67-1.46 5.73.17 8.23a9.29 9.29 0 007.21 3.8c3.32.25 6.59.28 9.9.78 1.83.28 3.66.6 5.49.91a34.31 34.31 0 005.73.33 28.2 28.2 0 014.41.06 12.45 12.45 0 013.68 1.22 4.21 4.21 0 012.68 4.07c.13 6.7-.22 13.39.27 20.09a61 61 0 004.64 20.29c1.15 2.61 2.33 5.56 5.33 6.4 2.57.72 5.31-.23 7.57-1.43a15.32 15.32 0 005.88-5.15c1.93-3 3.66-6.11 5.31-9.27 3.57-6.8 6.77-13.82 11-20.24 1-1.53 2.08-3 3.23-4.47a6.93 6.93 0 012.72-2.32 8.53 8.53 0 017.23.64c3 1.67 5.67-2.91 2.68-4.58-4.77-2.67-11.44-2.7-15.45 1.4a48.33 48.33 0 00-5.83 7.93c-1.74 2.75-3.32 5.6-4.82 8.49-3.12 6-6 12.07-9.48 17.83a12.9 12.9 0 01-2.29 3.22 14.31 14.31 0 01-2.34 1.64 8.7 8.7 0 01-2.65 1.12s-.9.16-.35.1a5 5 0 01-.77 0 .64.64 0 01-.47-.16c.44.34-.15-.16-.19-.23.22.37-.07-.17-.11-.25-.3-.67-.67-1.32-1-2a37.94 37.94 0 01-1.85-4.59 54.58 54.58 0 01-2.18-9.36 125.78 125.78 0 01-.84-19.21c0-2.93.51-6.31-.46-9.13a9.82 9.82 0 00-4.81-5.46 18.52 18.52 0 00-3.62-1.42 17.83 17.83 0 00-5-.58h-4.73a31.93 31.93 0 01-5.4-.77 82.23 82.23 0 00-11.6-1.22h-1.78c.24 0 .2 0-.13-.05a5.69 5.69 0 01-1.26-.42 2.33 2.33 0 01-1-.78c.27.32-.21-.37-.21-.38.18.42-.08-.75-.06-.34a11.52 11.52 0 01.81-3.64 14.38 14.38 0 011.8-3.59 14 14 0 016.33-5 2.73 2.73 0 001.86-3.26 2.68 2.68 0 00-3.27-1.86z" fill="#262521" opacity=".35"/><path d="M631.51 566.67c-3.17-1.38-10.26-4.28-10.25-4-1.2-.17-8-.28-9.06-.44.69-.4-6.93-5.84-10.48-6.9a27.22 27.22 0 01-4.3-1.55c-6 3.66-9.95 6.17-10.43 6.47a8 8 0 00-2.64 10.65c1.95 3.43 5.71 5.19 10.11 2.71 3.5-.5 14.08 1.65 27.09 3.6.94 16.89 2.56 43.41 3.58 47.1a8.41 8.41 0 0010.55 5.69c4-1.37 7.43-6.8 16-20.87 3.93-6.44 8.79-14.64 14.51-24.47l11.36 2c-2.41-2.86-33.83-14.66-46.04-19.99zm6.07 37.43c-.4-5.93-.7-17.7-1.11-24.85 4 .66 10 1.59 13.81 2.24-3.94 6.73-9.61 17.51-12.7 22.61z" fill="#262521"/><path d="M641.08 606.52c1.24-1.31 2.39-3.07 1.94-5a3.6 3.6 0 00-6.84-.61 5.61 5.61 0 00.73 5 2.68 2.68 0 004.17.54 10.68 10.68 0 002.76-6c.3-2.09.21-4.57.47-6.43a6.53 6.53 0 012.49-4.45 50 50 0 015.52-3.76 2.71 2.71 0 00.95-3.63 2.68 2.68 0 00-3.63-1c-4 2.7-8.84 5.11-10.2 10.19a31.79 31.79 0 00-.67 6.6c0 .48-.06 1-.11 1.44.05-.43-.06.33-.07.42a7.91 7.91 0 01-.19.81 4.15 4.15 0 01-1.07 2l4.17.53c-.13-.22-.26-.44-.37-.67.17.38 0 .09 0 0a2.68 2.68 0 01-.07-.27v.31c0-.17.11-.49 0-.05a2.18 2.18 0 01-.61 1 2 2 0 01-.94.36 1.76 1.76 0 01-1.76-1.66c0 .46.12-.69 0-.18s.24-.23 0-.09a2.26 2.26 0 00-.28.43c.29-.39-.16.15-.24.24-2.36 2.48 1.39 6.24 3.75 3.75zM189.32 868.46c3.94 5.23 8.06 10.79 14.41 13.19a7.87 7.87 0 005.2.5 7 7 0 003.74-3.4 25.25 25.25 0 001.77-4.49c.68-2.07.61-4.48.82-6.65.89-9 2-18.08 1-27.12-.19-1.89-.83-3.79-.11-5.57a8.52 8.52 0 012.9-3.56c2.53-1.83 6.52-1.47 9.47-1.73a27.09 27.09 0 005.86-1 19.17 19.17 0 002.85-1.17c1-.47 1.79-1.16 2.77-1.59 3.27-1.43 7-1.61 10.48-2.22 5.94-1 10.77-6.66 10.23-12.85a10.42 10.42 0 00-4.46-7.74 28.38 28.38 0 00-5.33-2.7c-1.93-.83-3.89-1.59-5.88-2.26-7.66-2.59-15.79-4-23.18-7.37a5.93 5.93 0 01-3-2.41c-.83-1.39-.72-3.7-.77-5.28a118.49 118.49 0 01.65-12c.16-2.12.27-4.26.24-6.39 0-1-.06-2-.14-3a21.3 21.3 0 00-.67-3.25 21.78 21.78 0 00-1.76-5.46 6.09 6.09 0 00-1.95-2.29c-.24-.15-1.12-.52-1.34-.37.17-.12.87.45.71.16-.07-.14-.53-.34-.67-.42a4.77 4.77 0 00-5.34.18 2.72 2.72 0 00-1 3.63 2.67 2.67 0 003.63 1c.6-.42.28-.17 0-.23s.17.15.33.24a5.27 5.27 0 002.34.8l-1.88-.77a7.92 7.92 0 011.53 3.8c.19.81.38 1.61.6 2.41a12.79 12.79 0 01.29 3 104.21 104.21 0 01-.57 11.31 54.51 54.51 0 00-.07 11.06 11.19 11.19 0 001.62 5.3 10.66 10.66 0 003.47 3.21 51.81 51.81 0 0010.66 4c3.53 1.08 7.09 2 10.62 3.05a76.26 76.26 0 0110.52 3.8 16.2 16.2 0 014 2.22 4.78 4.78 0 011.38 2.18c.07.25.13.51.18.77-.07-.41 0 .21 0 .35V812.75a6.81 6.81 0 01-1.12 2.77 8 8 0 01-1.87 1.94 7.72 7.72 0 01-3.52 1.24c-3.35.57-6.8.83-10 2.06-1.77.69-3.25 1.86-5 2.57a17.35 17.35 0 01-4.56 1.09c-3.31.38-6.74.24-10 1.22a12.91 12.91 0 00-7.84 6.92 9.38 9.38 0 00-.91 5.36q.45 3 .61 6a99.64 99.64 0 01-.22 12.58c-.3 4.12-.74 8.22-1.14 12.33a22.36 22.36 0 01-.8 5 10.91 10.91 0 01-1.4 3.12c-.26.3-.55.56-.66.42s.86.18.32 0a3.18 3.18 0 00-.52-.1c-.39-.1-.78-.21-1.17-.34a13.54 13.54 0 01-3.51-1.89 31.65 31.65 0 01-6-6.15c-.73-.93-1.45-1.9-2.19-2.88a2.74 2.74 0 00-3.63-.95 2.67 2.67 0 00-1 3.63z" fill="#262521" opacity=".35"/><path d="M206.53 748.37c-3.24-1.34-6.95.36-9.61 2.22a50.8 50.8 0 00-7.06 6.3 2.66 2.66 0 003.76 3.75c.86-.88 1.72-1.77 2.62-2.62.55-.53 1.11-1 1.69-1.53l.86-.72c.13-.1.53-.51.06 0a5.22 5.22 0 01.45-.33 18.88 18.88 0 011.85-1.2c.3-.17.62-.34.93-.49.56-.26.11.06 0 0 .06 0 .38-.14.47-.17a5.82 5.82 0 01.93-.26c.47-.1.18 0-.1 0a3.52 3.52 0 00.45 0h.52c.58 0-.35-.1-.13 0s.61.16.91.29a2.67 2.67 0 003.27-1.86 2.75 2.75 0 00-1.86-3.27z" fill="#262521" opacity=".35"/><path d="M251.5 804.59c-.18-.07-14.83-4.84-36.64-13.19-.18-16.78-.89-32-2.78-36.18a8.48 8.48 0 00-7.09-5.17c-2.73-.21-4.57-.34-14.76 9.34-.24 7.11-.74 14.2-1.22 21.3 3.18-3.33 8-8.75 8-8.75s.13 8.19.2 12.5c-2.69-1-5.46-1.94-8.27-2.88v.47c-.37 5.39-.68 10.79-.84 16.2 3.49 1.21 6.88 2.44 10 3.68 0 5.17-.44 11.29-.52 16.54-3.56.91-6.44 1.8-9.34 2.66.08 2.39.16 4.79.26 7.17.49 12.23 1.3 24.46 1.65 36.7 7.36 10.21 8.85 10.77 11.92 11.24a8.31 8.31 0 007.84-3.23c1.42-1.88 3.7-4.87 4.61-42.51 21.09-5.4 36.16-8.62 36.38-8.68 3.4-.9 7.4-5.08 7.52-8.59s-3.6-7.49-6.92-8.62zm-53.56 43.74c-2.51-3.62-5.25-7.63-8-11.63 2.84-.71 4.89-1.82 7.7-2.53-.11 4.96.5 10.03.3 14.16z" fill="#262521"/><path d="M189.34 841.38a32.85 32.85 0 014.82 4.83 3 3 0 00.22.28c-.44-.44-.13-.17 0 0l.48.65c.33.46.65.93.95 1.42a29.51 29.51 0 011.71 3.06 2.67 2.67 0 003.63.95 2.72 2.72 0 00.95-3.63 33.72 33.72 0 00-9-11.28 2.87 2.87 0 00-1.88-.78 2.71 2.71 0 00-1.88.78c-.89 1-1.15 2.82 0 3.75zM200 768.52a4.14 4.14 0 00-2.92.11 10.29 10.29 0 00-2.93 1.87 32.15 32.15 0 00-3.62 3.94c-.46.56-.91 1.14-1.4 1.67a2.65 2.65 0 003.75 3.75c1.87-2 3.36-4.32 5.54-6l-.54.41a6.67 6.67 0 011.25-.77l-.64.27a3.13 3.13 0 01.68-.2l-.71.09a1.77 1.77 0 01.46 0l-.71-.1a1.56 1.56 0 01.37.1 2.65 2.65 0 003-3.9 3.09 3.09 0 00-1.58-1.22z" fill="#262521" opacity=".35"/><path d="M510.06 836.78c-3.78.38-6.38-.45-7.95-1.49a8 8 0 01-3.24-8.94l13.62-45.23-31.41-17.79c-4.75 2-13.27-1.76-8.95-12.71a8 8 0 017.19-6.1l45.13-3.13 13.83-45.92c-3.79-10.12 5.71-11.32 9.16-11.41a8 8 0 017.7 5.28l17.43 48.71 35-2.43a8 8 0 015.66 14.06l-28.11 23.53 15.77 44.07a8 8 0 01-2.44 8.83c-2.59 2.13-8.52 3.53-11.41 1.81l-37.62-24.83-31.06 27.2c.5 1.96-4.52 6.11-8.3 6.49zm52.32-44.53l9.13 2.56-2.09-8.45zm-35.78-2.74l-.28 9.81 8.61-4.86zm4.73-15.72l16.54 9.83 16.91-14.14-4.86-14.58-23.39 1.62zm-20.5-13.93l6.39 5.54 2.32-7.7zm67.31-6.23l1.28 3.59 2.33-3.09zm-36.69-13.42l13.06-.91-6.81-19.86z" fill="#262521"/><path d="M526.91 739.24c-12.83.31-25.66.49-38.48 1-5.44.23-12.06-.19-16.66 3.26a14.12 14.12 0 00-5.51 12 12.6 12.6 0 002.21 6.64 7.68 7.68 0 003 2.62c1.54.7 3.12.54 4.76.63 4.41.24 8.37 2.92 11.94 5.32 4.1 2.75 8.15 5.54 12.92 7 4.38 1.38 9.42 2 11.6 6.62a17.69 17.69 0 011.36 7 75.57 75.57 0 01-.32 8.9 27.85 27.85 0 01-.77 4.88 5 5 0 01-.49 1.22c-.33.58 0 .09-.25.4l-.34.34a.19.19 0 01.16-.1h.25c.07 0 .32.31.42.37-.34-.21 0 0-.05-.15s0-.16 0 .06a2.8 2.8 0 010-.41 8.59 8.59 0 01.85-2.46c1.09-1.89-.74-4.7-3-3.9-5.6 2-9.57 6.54-11.81 11.94a36.49 36.49 0 00-2.28 9.26 47.65 47.65 0 00-.61 9.23c.24 3.45 2 5.92 5.34 6.91a32.39 32.39 0 007.5 1.3 14.59 14.59 0 007.45-1.39c2.61-1.36 3.77-3.65 4.93-6.2s3.41-3.3 5.63-4.6a42.61 42.61 0 006.85-5.1c4.26-3.81 7.93-8.21 12.2-12 1.65-1.47 4.29-4 6.31-4.16a3.41 3.41 0 012.17.59 12.74 12.74 0 012.41 2 48.62 48.62 0 005.49 5.25c2.33 1.71 5.14 2.58 7.83 3.55a15.61 15.61 0 017.35 5c2.07 2.55 3.75 5.35 6.36 7.4 2.8 2.2 6.25 3.42 9.78 2.44a44 44 0 004.11-1.64 9 9 0 011.6-.53 4.32 4.32 0 00.58 0c-.35 0 .32.2.09 0 1.42 1.15 4 1 4.43-1.17 2.21-10.65-3.56-20.66-7.94-30-3.95-8.38-9.44-18.09-6.5-27.65 2.46-8 10.79-11 17.92-13.51 3.27-1.16 7.13-2.24 9.71-4.69 2.92-2.76 3.47-7 2.49-10.69a18 18 0 00-2.43-5.38 14.24 14.24 0 00-4.63-4.85c-2.7-1.49-5.37-.78-8.16 0-2.48.7-5 1.27-7.55 1.73a78.93 78.93 0 01-15.19 1.17c-1.25 0-2.51-.07-3.76-.15-1-.07-2.57.1-3.48-.34-.61-.29-1-1.36-1.29-2q-.95-1.8-1.8-3.63c-4.2-8.94-6.85-18.51-9.69-27.94-2.37-7.88-4.8-19.86-15.18-20a11.89 11.89 0 00-10.32 5.64c-2.46 4.22-2.22 9.61-3.11 14.29-2 10.58-5.48 20.92-8.47 31.26l-2.27 7.86c-.95 3.28 4.17 4.69 5.12 1.41 2.91-10.07 6-20.11 8.68-30.24a110.93 110.93 0 003-15.21c.43-3.63.91-7.69 4.53-9.19a6.44 6.44 0 017.86 2.25c2.46 3.35 3.37 7.9 4.55 11.81 2.83 9.3 5.47 18.67 9.3 27.64 1 2.2 2 4.38 3.08 6.51s2.42 4.28 5.14 4.73a65.93 65.93 0 0015.12.39 85.18 85.18 0 0015.05-2.2c1.22-.31 2.42-.67 3.63-1a3 3 0 012.83.14 12 12 0 013.18 4.06A11.81 11.81 0 01615 745a5.22 5.22 0 01-.76 3.38 7.83 7.83 0 01-3.39 2.24c-1.27.54-3 1.19-4.48 1.72-7.49 2.72-15.37 5.66-19.77 12.86-5.23 8.68-2.56 19.14 1.2 27.79 2.05 4.71 4.33 9.32 6.52 14 2.06 4.37 4.09 8.84 4.88 13.64a18.3 18.3 0 01-.11 6.64l4.44-1.17c-2.39-1.93-5-1.81-7.77-.7-2 .84-4.18 2.19-6.44 1.43-2.41-.82-4.18-2.93-5.65-4.9a33.22 33.22 0 00-5.5-6.38c-4.26-3.39-10.34-3.61-14.25-7.26-3.35-3.12-6.38-7.76-11.46-7.85-3.14 0-5.71 1.85-8.08 3.7a66.31 66.31 0 00-6 5.45c-3.74 3.75-7.26 7.87-11.57 11-2.15 1.57-4.61 2.61-6.76 4.15a10.69 10.69 0 00-3 3.12c-.74 1.2-1.09 2.6-1.83 3.8a5.28 5.28 0 01-4.18 2.2 20.61 20.61 0 01-6.55-.61c-.82-.18-2.47-.31-3-1.06s-.36-2.44-.31-3.43a58.75 58.75 0 011.17-10.07c1.22-5.32 4.13-11.07 9.62-13l-3-3.9c-1.15 2-2 4.6-1.4 6.91a4.77 4.77 0 006.13 3.3c2.69-.94 4-3.8 4.57-6.39a58.33 58.33 0 001-9.5c.24-5 .2-10.53-2.33-15.07-2.87-5.16-8.22-6.63-13.51-8.16-9.62-2.8-16.37-11.86-26.68-12.79-1-.09-2.45.25-3.29-.28a4.89 4.89 0 01-1.46-2.3 9 9 0 012.7-9.61c2.09-1.61 4.9-1.86 7.44-2 14.89-.94 29.86-1 44.77-1.35 3.41-.08 3.42-5.39 0-5.31z" fill="#262521" opacity=".35"/><path d="M567.86 767.38c-.49-2.48-.23-5.06-.71-7.55A10.06 10.06 0 00564 754c-2-1.68-4.65-2.07-7.16-2.43a16.57 16.57 0 00-8 .79c-2.14.75-4.33 1.88-6.64 1.92a9.31 9.31 0 01-3-.79 3.73 3.73 0 00-4 1.26 26 26 0 00-5.66 13.9 8.76 8.76 0 002.43 7.46c1.45 1.42 3.51 2.27 4.35 4a2.68 2.68 0 003.64.95 2.71 2.71 0 00.95-3.63c-.87-1.82-2.49-3-4.07-4.16-1.4-1-2.14-1.9-2.06-3.81a19.37 19.37 0 011.5-6.17 21.82 21.82 0 011.36-2.74c.35-.61 1-2 1.58-2.29l-1.34.36c-.26-.08-.27-.07 0 0l.82.35a7.65 7.65 0 001 .3 11.24 11.24 0 002.52.27 15.5 15.5 0 004.57-.84c3-1 5.68-2.4 8.91-2 2.23.26 4.93.44 5.91 2.77a12 12 0 01.68 4.07 35.76 35.76 0 00.51 5.26 2.66 2.66 0 005.12-1.42z" fill="#262521" opacity=".35"/><path d="M651.55 1102.81l19.85-13.5a153 153 0 01-4.87-22l-24-.73-11.14-44.76c2.46-.7 1.3-6.48-.54-8.76a10.78 10.78 0 00-7.71-4.38 10.1 10.1 0 00-8.5 5.52c-7.83 16.64-20.32 50.92-20.32 50.92l-45.21-1.37a8 8 0 00-7.77 5.36c-5.38 10.47 2.71 15.1 7.64 13.53l29.49 20.83-18.05 43.64a8 8 0 002.34 9.23c1.45 1.18 4 2.27 7.76 2.27s9.21-3.63 8.93-5.63l33.6-24 35 28.44c2.7 2 8.74 1.2 11.54-.66a8 8 0 003.3-8.55zm-31.91-57.21l4.8 20.43-13.09-.39zM591.9 1121l-.22-7.81 7.79 5.76zm6.05-23l6.89-14.9 23.44.71 3.38 13.22-18.23 12.39zm29.05 21.5l7.59-5.16 1 6.68z" fill="#262521"/><path d="M664.49 1064.79c-6.94.32-14.94.66-21-3.29l1.22 1.58c-3-10-6.71-19.94-7.81-30.36a86.28 86.28 0 00-1.76-9.42 35.68 35.68 0 00-3-8.88 13.77 13.77 0 00-6.17-6.27c-3.37-1.56-7.8-1.77-11.08.13-3.46 2-5.75 6.08-6.49 9.93a103.5 103.5 0 01-4 14.56c-3.63 10.42-8.43 20.38-11.86 30.87-1.07 3.25 4.06 4.65 5.12 1.41 3.45-10.56 8.3-20.58 11.93-31.07.91-2.64 1.74-5.3 2.46-8 .35-1.3.67-2.61 1-3.92a32.86 32.86 0 01.9-4.1 10.79 10.79 0 012.84-4.52c1.42-1.22 3-1.3 4.83-1.12.5 0-.6-.13.21 0l.5.11a8 8 0 011.18.36c-.46-.18.3.15.45.23l.51.3c.09.06.75.53.31.19a10.35 10.35 0 011.49 1.47c.06.07.31.39 0 0 .12.16.24.32.35.49.25.37.48.75.7 1.14s.36.66.52 1c.07.15.45 1 .3.65.33.82.62 1.65.88 2.49.5 1.63.89 3.3 1.24 5s.64 3.24 1 4.85c.47 2.38.68 4.79 1.1 7.22a138 138 0 004.47 17.55c.93 3 1.74 6.14 2.82 9.1.57 1.57 2.33 2.34 3.77 3a26.74 26.74 0 004 1.44c5.56 1.5 11.45 1.44 17.16 1.18 3.4-.16 3.42-5.47 0-5.31z" fill="#262521" opacity=".35"/><path d="M596.72 1063.22c-12.59-.88-25.14-2.24-37.75-2.82-3.14-.14-6.29-.24-9.44-.26a15 15 0 00-7.68 1.57 14.62 14.62 0 00-5 5 13 13 0 00-1.92 7 11.2 11.2 0 001.75 6.66 8.59 8.59 0 002.82 2.61 22 22 0 003.93 1.35 33.4 33.4 0 0113.16 7.57 29.92 29.92 0 002.92 2.82 21.16 21.16 0 002.54 1.64 49.05 49.05 0 005.83 2.6c3.3 1.31 6.85 2.57 9.09 5.37-.19-.23.1.15.11.16a8.16 8.16 0 01.56.88 8.65 8.65 0 01.61 1.22 11.48 11.48 0 01.57 3.1 56.86 56.86 0 01.35 7.83 23.27 23.27 0 01-1.2 7 13.07 13.07 0 01-1.46 3 10.12 10.12 0 01-1 1.31c-.15.17-.31.34-.47.5l-.5.47c-.35.31-.35.31 0 0l1.34-.36c-.57.08.58.31.74.28s-.07-.07-.06-.07a8.67 8.67 0 01-.57-1 1.38 1.38 0 01-.16-.73c-.08.7.17 0 .56-.3 2.4-1.69 1-5.58-2-4.85-1.23.3-2.78.57-3.73 1.49a2.74 2.74 0 001.12 4.59 5.56 5.56 0 005.19-1.64 2.77 2.77 0 00.42-3.22 2.7 2.7 0 00-3-1.22 22.09 22.09 0 00-11.8 9.37c-2.68 4.29-4.13 9.28-5.18 14.18-.25 1.18-.49 2.36-.69 3.54a8.19 8.19 0 00.74 5 10.93 10.93 0 005.87 5.07c5.41 2.35 13.36 3.06 17-2.56a22.08 22.08 0 001.38-2.75 10.78 10.78 0 01.69-1.3c.18-.25-.37.16.11-.1-.51.28.43-.16.58-.23a58.79 58.79 0 007.73-4.47c4.9-3.32 9.44-7.14 14.26-10.56a53.42 53.42 0 017.76-4.87A8.29 8.29 0 01616 1132c1.09 0 1.65.74 2.3 1.59 1.62 2.09 2.77 4.42 4.93 6.05a61.08 61.08 0 008.56 4.93 14.79 14.79 0 014.35 3 35.66 35.66 0 012.89 3.81c1.88 2.78 3.68 6 6.22 8.25s6.28 2.62 9.63 2c1.51-.26 3-.68 4.49-1a6.22 6.22 0 001-.23c-.16.62-1.68-.75-.93-.11a4.65 4.65 0 002.35 1.15 2.74 2.74 0 003.27-1.85c.6-1.86 1.64-4.35 1.15-6.35a2.86 2.86 0 00-5-1.15c-2 2.22-2.64 6.32-.64 8.67 1.36 1.59 3.89.6 4.44-1.17 3.36-10.71-1.66-21.52-5.36-31.41a86.2 86.2 0 01-4.34-14.4c-.81-4.44-.84-9.34 1.28-13.44 2.59-5 7.55-7.69 12.75-9.34 3.25-1 1.86-6.16-1.41-5.12-5.19 1.64-10.34 4.16-13.78 8.53a22.76 22.76 0 00-4.61 15.41c.52 10.77 5.71 20.54 9 30.6 1.88 5.73 3.2 11.85 1.35 17.75l4.44-1.17.26.35c-.09-.18-.09-.14 0 .09s.09.25 0 0c-.12-.44-.05.59 0 0v-.38c0-.12-.19.64 0 .17.08-.21.1-.46.16-.68s.16-.43.22-.65c-.15.53-.15.29 0-.05.05-.1.25-.32.25-.43 0 .66-2 1.09-2.53.88l-1.18-.68s-1-1.43-.66-1.54v.22c0 .19-.14.62 0-.08 0 .17-.06.35-.1.52a34.32 34.32 0 01-1 3.47l3.27-1.85c-.48-.08-.4 0-.11.14-.09 0-.26-.23-.32-.28a4.71 4.71 0 00-1.73-1c-1.56-.41-3.43.38-5 .75-2 .5-4.31 1.18-6.3.34a8 8 0 01-2.82-2.67c-.84-1.08-1.6-2.23-2.37-3.37a43 43 0 00-5.34-7.08c-2.21-2.17-5.31-3.43-8-4.83-2.33-1.19-4.85-2.46-6.43-4.6s-2.82-4.57-5.08-6.09c-2.43-1.64-5.78-1-8.32.06-5.35 2.18-10.11 6.11-14.66 9.59a108 108 0 01-14 9.65c-2.21 1.2-4.27 1.89-5.47 4.26-.45.9-.8 1.84-1.3 2.71a5.51 5.51 0 01-.71 1c-.56.59-.49.47-1.44.74a11.7 11.7 0 01-7.48-.41c-1.77-.65-3.74-1.51-4.41-3.38-.43-1.17.08-2.47.33-3.66s.55-2.57.88-3.84a38.68 38.68 0 012.47-7.17c2.13-4.43 5.3-7.92 10.06-9.54l-2.58-4.44c-.45.54.3-.14-.09.11s.48 0-.18.06c-.3 0-.84 0 0 0-.63 0 .52.16.28.06l1.17.68.77 1.88-.36 1.34c.08-.14-1 1.22-.67.75-.19.24-.39.14.07 0s1.09-.31 1.65-.44l-2.05-4.85a7 7 0 00-3.06 3.84 6.78 6.78 0 00.74 4.43c1.22 2.58 4 4.68 6.66 2.49 4.1-3.46 5.8-8.81 6.31-14a43.66 43.66 0 000-7.41c-.17-2.43-.2-5.2-1.11-7.48-1.79-4.52-5.41-7.4-9.77-9.31-3.79-1.66-8.25-2.74-11.23-5.39-1.09-1-2-2.16-3.09-3.14a36.52 36.52 0 00-3.71-2.85 42.11 42.11 0 00-8-4c-1.22-.48-2.46-.91-3.71-1.3a4.91 4.91 0 01-2.54-1.28c-1.1-1.44-1.09-3.65-.81-5.44a8.7 8.7 0 013.11-5.08c2-1.65 4.43-1.56 7-1.53 15.46.18 30.84 2 46.25 3.07a2.66 2.66 0 000-5.31z" fill="#262521" opacity=".35"/><path d="M635 1095.75c-.46-4.83 1.21-10.13-2.5-14.12-1.73-1.87-4.36-2.55-6.74-3.16a17 17 0 00-8.32 0c-2.27.53-4.63 1.51-7 1.22a7.52 7.52 0 01-2.45-1 3.82 3.82 0 00-4.46.94 25.81 25.81 0 00-6.74 12.65c-.62 2.91-.35 5.69 1.57 8.06 1.11 1.36 3.3 2.65 3.81 4.08a2.72 2.72 0 003.27 1.85 2.67 2.67 0 001.85-3.26 11.58 11.58 0 00-3.46-4.67c-1.33-1.21-2.26-2.06-2-4a17.72 17.72 0 012-5.9 24.23 24.23 0 011.72-2.85c.26-.39.54-.76.84-1.13l.54-.63.28-.31c.31-.3.15-.26-.49.1l-1.34-.36a14.75 14.75 0 004.72 1.65 15 15 0 004.43-.28c3.1-.58 6-1.94 9.21-1.22 2.3.51 5.08.88 5.81 3.45.82 2.85-.06 5.95.22 8.87a2.71 2.71 0 002.65 2.65 2.67 2.67 0 002.66-2.65z" fill="#262521" opacity=".35"/><path d="M761.05 1138.27c-.82-6.45-1.58-12.91-2-19.4-.43-6.33-.89-12.61-1.78-18.9-1.5-10.49-3.48-21-3.72-31.62l-31.94-1a8 8 0 00-7.77 5.36c-5.38 10.47 2.72 15.11 7.65 13.53L751 1107.1l-18.05 43.65a8 8 0 002.34 9.22c1.46 1.18 4 2.27 7.76 2.27s9.22-3.63 8.93-5.63l10.51-7.5c-.49-3.61-.99-7.22-1.44-10.84z" fill="#262521"/><path d="M751.56 1065.51c-9.55.42-18.79-3.55-28.34-2.72-4.56.39-9.31 1.69-12.25 5.41a15.69 15.69 0 00-3.48 12.37 11.37 11.37 0 001 2.94c.77 1.55 2 1.82 3.51 2.31a37.16 37.16 0 016.08 2.62 107.09 107.09 0 0111.63 7.55c3.85 2.74 7.64 5.59 12 7.39 1.91.78 4.07 1.42 5.7 2.73a11.51 11.51 0 013.23 4.56c1.94 4.72 1.42 10.64.13 15.47a30 30 0 01-1.33 3.95c-.33.77-.7 2-1.51 2.38 0 0-.55.19-.43 0-.95 1.27 1.13.6.85 1.21 0 0 .06-.73 0-.5a8 8 0 011.38-3c1.36-2-.88-4.4-3-3.9a20.55 20.55 0 00-5.21 1.54c-2.52 1.39-1.3 5.06 1.43 5.08 1.88 0 5.12-.68 6.36-2.18a2.76 2.76 0 00.42-3.22 2.68 2.68 0 00-3-1.22c-8.88 3.19-13.95 11.52-16 20.36a49.61 49.61 0 00-1.06 6.64c-.1 1-.17 2-.2 3-.06 1.71 0 3 1.62 4 4.58 2.87 10.48 5.19 16 4.12a7.27 7.27 0 004.35-2.27 29.82 29.82 0 012.9-3.15 43.39 43.39 0 017.54-5.51c2.93-1.75.26-6.34-2.68-4.58a42.44 42.44 0 00-12.34 10.56l.95-1c-4.49 2.55-10.42-.68-14.32-3l1.32 2.29c0-9.83 3.24-22.75 13.41-26.4l-2.58-4.43c-.33.39.42-.38.16-.11a.94.94 0 01-.28.15c-.28.13.56-.19.24-.1s-.88.3-1.33.42-.83.17-1.24.26c-.65.13.52 0 .05 0-1 0 1.25.48 1.47.75l.68 2.58-.69 1.18a1.44 1.44 0 01-.74.47 4.17 4.17 0 00.89-.28c1.11-.33 2.24-.59 3.36-.86l-3-3.9c-1.56 2.33-3.19 6.16-1.29 8.74 1.08 1.48 3.3 1.81 5 1.47a6.58 6.58 0 004-2.76 19.72 19.72 0 002.15-4.66 32.07 32.07 0 001.4-5.1 37.85 37.85 0 00.53-10.57c-.59-6.35-3.92-12.15-9.91-14.74-1.4-.61-2.83-1.15-4.24-1.74a26.73 26.73 0 01-4.25-2.44c-2.68-1.75-5.27-3.63-7.88-5.48-5.85-4.14-11.91-8-18.88-10l1.58 1.22a8 8 0 010-7.22 11.62 11.62 0 012.15-3.29 7.55 7.55 0 013.45-2c6.48-2.12 13.49-.38 20 .72a59.27 59.27 0 0012.53 1.13c3.4-.14 3.42-5.45 0-5.31z" fill="#262521" opacity=".35"/><path d="M402.68 906.28a8 8 0 00-8.53-3.87l-34.38 7.08-23.77-46a8 8 0 00-8.34-4.2c-3.41.54-12.66 3-7.55 12.53l-7.58 47.35-23.78 4.9v29.16l17.25 6.96-7.46 46.64a8 8 0 004.4 8.43c1.69.82 4.38 1.3 8.08.42s8.12-5.67 7.38-7.54L345.52 977l40.6 19.59c3.09 1.32 8.78-.85 11.07-3.31a8 8 0 001.23-9.08l-21.5-41.58 24.72-27.07a7.94 7.94 0 001.04-9.27zM308.57 944l-7.08-4.64 8.35-3.3zm24.07-49.61l9.4 18.77-12.83 2.64zm-10.53 82l-1-9.77 8.92 3.8zM341.37 958l-17.7-7.54 2.85-17.81 23-4.73 6.75 13.81zm15.54 6.62l6.19-6.78 3.19 8.09zm12.21-37l-1.75-3.38H371z" fill="#262521"/><path d="M289.72 957.25a90.57 90.57 0 019.85 1.58c2.9.75 5.43 1.94 6.91 4.48a24 24 0 011.64 4.72c.59 1.79 1.22 3.56 1.75 5.36.94 3.12 1.84 6.54.54 9.49a7.91 7.91 0 01-1.27 1.81 14.39 14.39 0 01-1.08 1c-.78.66-.2.1-.13.11.4 0 .86-.25 1.33-.09s.54.65.31 0c.17.47-.13-.74-.11-.56a2.14 2.14 0 01.47-1.68c1.62-2.34-1.46-4.74-3.63-3.64a8.05 8.05 0 00-2.93 2 2.72 2.72 0 001.44 4.28c1.83.48 4.31-1 5.12-2.64a2.67 2.67 0 00-4.17-3.22c-1.72 1.39-3.65 2.5-5.3 4s-2.25 3.74-3 5.74c-.33.83-.7 1.65-1.07 2.47a12.15 12.15 0 00-.68 3.23 58.45 58.45 0 00-.71 6.31c-.16 4.17.38 8.81 2.54 12.48a9.37 9.37 0 008 4.33 20.76 20.76 0 009.65-2.39A22.36 22.36 0 00319 1014c1.42-1.09 1.35-3.21 2-4.56 2.74-5.74 9.31-8.87 13.39-13.69 4.67-5.5 7.76-13.66 14.94-16.44l-2-.27c7 3.49 13.84 7.26 21.35 9.43a17.47 17.47 0 014.79 1.67 21.15 21.15 0 013.57 3c2.41 2.39 4.66 5.4 7.92 6.62 4.54 1.71 9.33 0 13.05-2.7l-1.34.36c1.32 0 2.64 0 4-.08a2.74 2.74 0 002.65-2.66c.14-1.78.5-4.18-.42-5.82a2.87 2.87 0 00-5 .09 6.39 6.39 0 001.47 8c1.67 1.23 4-.43 4-2.29 0-11.18-6.15-20.45-12.42-29.21-1.53-2.15-3.07-4.29-4.53-6.48a33.72 33.72 0 01-3.88-6.9c-1.94-5.34-2.69-11.53-.11-16.81 1.16-2.36 3.41-4.14 5.46-5.72 1.14-.87 2.31-1.7 3.48-2.53a25.94 25.94 0 013.54-2.36c3.83-1.83 8.3-3.3 11.08-6.69 3.46-4.22 3.07-10 0-14.33a15.52 15.52 0 00-6.07-5.24 11.59 11.59 0 00-4.17-1.3 10 10 0 00-4.34 1.08c-2.53 1.16-4.64 3.31-7.37 4-3 .77-6 1.48-9 2.11-5.77 1.22-12 1.82-17-1.84l.95 1A227.47 227.47 0 01347.06 880c-1.74-4-3.42-8-4.93-12.12a18.08 18.08 0 00-7.41-9.56c-5-2.91-13.72-3.64-16.82 2.36-1 1.93-1 4.09-1.24 6.21-.22 2.31-.41 4.61-.6 6.92-.37 4.61-.69 9.22-1.07 13.83-.82 10.07-1.95 20.12-4.48 29.92-.85 3.31 4.27 4.72 5.12 1.41 2.73-10.55 3.88-21.42 4.75-32.25.44-5.5.81-11 1.29-16.48.12-1.36.24-2.71.37-4.07.06-.64.08-1.3.2-1.93 0-.19.32-1.06.18-.76a2.65 2.65 0 01.93-1.21 3.82 3.82 0 011.68-.68 4.51 4.51 0 01.53-.1h.13a10.85 10.85 0 011.14 0 7.6 7.6 0 012.23.3 9.26 9.26 0 014.61 2.42 13.23 13.23 0 013.34 5.12c.92 2.5 1.93 5 2.94 7.43a236.09 236.09 0 0013.69 28.17 7.58 7.58 0 002.77 2.93 19 19 0 003.51 1.64 21.25 21.25 0 006.52 1.11c4.71.13 9.4-1 13.94-2.06a45.66 45.66 0 006.33-1.66 45.62 45.62 0 005.84-3.34 7.8 7.8 0 012.41-1 3.86 3.86 0 012 .44 10.32 10.32 0 014.32 3.41 8.35 8.35 0 011.78 4.79 5 5 0 01-1.31 3.51 12.06 12.06 0 01-3.58 2.6c-1.61.86-3.31 1.58-5 2.34a32.19 32.19 0 00-5.3 3.35 72.07 72.07 0 00-5.9 4.53 17.33 17.33 0 00-4.56 5.75 23.89 23.89 0 00-2 7.66 30.23 30.23 0 002.73 14.86c1.74 3.9 4.53 7.47 7 10.92 4.83 6.77 10.14 13.68 12.08 21.93a26.75 26.75 0 01.69 6.11l4-2.29c.5.37.14-.08.48.45-.31-.49 0 .11 0 .11s-.1-.42-.11-.45c.08.2 0 .59 0 .15a8.45 8.45 0 000-.87c0-.47-.17.52 0 .11a2.74 2.74 0 00.09-.39c.13-.62-.07.1-.2.26-1 1.28-3.68.75-4.23-.73.15.39 0 .12 0-.14a32 32 0 01-.09 3.79l2.66-2.65c-1.52.12-3.58-.29-5 .31-1 .42-1.79 1.19-2.72 1.69a9.4 9.4 0 01-2.77 1 5.77 5.77 0 01-4.44-.8 36.76 36.76 0 01-3.63-3.54c-2.51-2.58-5.37-5.51-8.94-6.54a86.73 86.73 0 01-11.51-3.93c-3.74-1.69-7.37-3.61-11-5.45a3.61 3.61 0 00-3.34-.29 19.55 19.55 0 00-2.72 1.33 22.34 22.34 0 00-4.19 3.32c-4.63 4.63-7.25 10.86-12.06 15.35-5.12 4.77-12.13 9-13.19 16.57l.68-1.17-.48.34-.74.49c-.61.38-1.24.72-1.88 1a18.09 18.09 0 01-3.81 1.37 10.73 10.73 0 01-3.58.35 5.3 5.3 0 01-2.34-.76 4.82 4.82 0 01-.72-.8 11.31 11.31 0 01-1-2.25 19.42 19.42 0 01-.91-5.55 38.61 38.61 0 01.3-5.69 17.07 17.07 0 01.95-4.7c.45-1 .88-2.1 1.3-3.15a10.35 10.35 0 011-2.28 12.14 12.14 0 012.64-2.07c1-.71 2-1.45 3-2.24l-4.17-3.21c-.19.38.32-.56-.07.07.16-.25.36-.25 0 0s-.24 0 .07 0l-.24.09c-.7.17-.13.26 1.7.29l1.32 2.29-.37 1.34c-.22.44-1.07.9-.22.38.48-.29 1-.54 1.48-.79l-3.64-3.63a7.52 7.52 0 00-.72 6.73c.84 2.25 3 4.11 5.49 3.06a11.09 11.09 0 004.9-5.09 13.62 13.62 0 001.29-6.83c-.29-4.65-2.12-9-3.48-13.36a18 18 0 00-3.05-6.5 13.66 13.66 0 00-4.86-3.69c-4.32-2-9.44-2.34-13.78-3a2.74 2.74 0 00-3.26 1.86 2.66 2.66 0 001.85 3.26z" fill="#262521" opacity=".35"/><path d="M314.32 916.84q-12.3 1.95-24.61 3.92a2.67 2.67 0 00-1.85 3.26 2.73 2.73 0 003.27 1.86q12.3-2 24.61-3.92a2.69 2.69 0 001.85-3.27 2.72 2.72 0 00-3.27-1.85zM359.13 939.53c-.82-2.41-.91-5-1.71-7.4a10.78 10.78 0 00-3.87-5.6c-2.09-1.47-4.78-1.52-7.24-1.58a16.67 16.67 0 00-7.71 1.63c-2.16 1-4.17 2.48-6.54 3a5.67 5.67 0 01-2.8-.23 3.78 3.78 0 00-4.1 1.37 21 21 0 00-3 7 26.1 26.1 0 00-1 7.71 9 9 0 003.57 7.31c1.4 1 3.68 1.75 4.51 3 1.86 2.85 6.46.19 4.58-2.68a11.77 11.77 0 00-4.46-3.72c-1.4-.77-2.52-1.34-2.81-3A16.47 16.47 0 01327 940a23.59 23.59 0 011.05-3.41c.2-.48.41-.95.64-1.41.14-.26.27-.53.42-.79q.47-.68 0-.18l-1.34.36a12.09 12.09 0 012.08.38 10.21 10.21 0 002.76-.07 16.24 16.24 0 004.4-1.45c2.78-1.31 5.17-3.08 8.35-3.13 2.41 0 5.08-.27 6.4 2.08 1.46 2.58 1.31 5.83 2.25 8.61 1.1 3.22 6.23 1.83 5.12-1.41z" fill="#262521" opacity=".35"/><path d="M714.52 886.77a8 8 0 00-7.84-5.12l-35.06 1.77-16.5-49a8 8 0 00-7.61-5.43 19.18 19.18 0 00-3.21.3c.86 6 .76 12.27 1.31 18.32q1.29 14.07 3.06 28.08c1.21 9.54 2.4 19.07 3.24 28.66s1.48 19 2.29 28.45c.61 7.1 1.54 14.22 2 21.35l28.24 19.43c2.86 1.77 8.82.49 11.45-1.6a8 8 0 002.6-8.78l-14.93-44.36 28.56-23a8 8 0 002.4-9.07z" fill="#262521"/><path d="M655.64 954.73A26.61 26.61 0 00664 961c3.07 1.5 6.33 2.48 8.88 4.86 4.8 4.47 8 12.9 15.91 11.89a23.74 23.74 0 004.92-1.52 16 16 0 012.2-.63h.86a1.66 1.66 0 01.38.17c1.44 1.2 4 .92 4.44-1.18 2.47-10.71-2.66-20.53-7.51-29.74-2.28-4.32-5-8.89-6-13.73-.91-4.45-1.48-9.49-.26-13.9 1.35-4.92 5.39-7.86 9.73-10.13 4.82-2.52 10.05-4.12 15.06-6.23a35.46 35.46 0 003.51-1.57c1.35-.74 1.84-2.14 2.28-3.55a16.74 16.74 0 00.67-6.25c-.33-4.06-2-8.52-5.93-10.39-2.63-1.25-5.85-1.12-8.69-1a94.8 94.8 0 00-10.45 1.21c-6.71 1.05-13.53 2.05-20.14-.08l1.58 1.22c-5.55-7.7-8.39-16.56-10.92-25.6-1.18-4.19-2.39-8.36-3.59-12.54a34.61 34.61 0 00-4-9.65 15.17 15.17 0 00-10.28-6.8 2.73 2.73 0 00-3.27 1.85 2.67 2.67 0 001.86 3.27 10.6 10.6 0 014.31 1.53 11.16 11.16 0 012.63 2.59 26.05 26.05 0 013.46 8.06c2.32 7.87 4.26 15.9 7 23.64a69.61 69.61 0 005.4 12c1.11 1.91 2.48 4.89 4.65 5.65a28.39 28.39 0 007.15 1.33c9.28.67 18.29-2.68 27.55-2.4.64 0 1.28.08 1.92.1a3 3 0 01.42 0c-.47 0 .29.06.34.07a3 3 0 011.33.6c-.22-.16.1.09.11.1a6.53 6.53 0 01.53.52 3.47 3.47 0 01.25.29c.17.2-.13-.21.11.18a9.26 9.26 0 01.58 1 2.29 2.29 0 01.3.73 10.47 10.47 0 01.57 4.34 11.85 11.85 0 01-1 4.13l.95-1c-11.22 5.55-28.53 8-31.4 22.63a31.71 31.71 0 00-.28 9.43 38.52 38.52 0 002 9.5c2.27 6.11 5.67 11.7 8.53 17.54 3 6 5.39 12.75 3.83 19.54l4.43-1.17c-3-2.49-6.39-1.73-9.74-.47a8.93 8.93 0 01-4 1 6.11 6.11 0 01-3.28-1.83c-2.41-2.32-4.05-5.31-6.37-7.72a25.34 25.34 0 00-8.77-5.6 25.32 25.32 0 01-9.31-6.36 2.68 2.68 0 00-3.75 0 2.71 2.71 0 000 3.76z" fill="#262521" opacity=".35"/><path d="M266.61 1156.28q.9-7.59 2.08-15.15l-5.59-4.13 6.9-16.67 2.34.07q2.18-11.07 4.8-22c3.85-16.23 9.76-32.31 11-49h-.09c-3.44-.26-13 0-10.25 10.45l-18.32 44.31-45.22-1.37a8 8 0 00-7.77 5.36c-5.38 10.47 2.72 15.1 7.65 13.53l29.49 20.83-18 43.64a8 8 0 002.33 9.23c1.46 1.18 4 2.27 7.77 2.27s9.21-3.63 8.92-5.63l19.44-14.02c.91-7.21 1.65-14.47 2.52-21.72zm-8.86 3.11l.6-6.09 4.75 3.51z" fill="#262521"/><path d="M287.12 1046c-3.92-.65-7.42 1.26-9.87 4.27-2.7 3.32-3.5 7.41-4.77 11.41-2.82 8.9-6 17.67-9.32 26.41-1.83 4.83-3.68 9.65-5.5 14.49a2.66 2.66 0 005.12 1.41c3-7.9 6-15.77 8.92-23.69 1.48-4.07 2.92-8.15 4.29-12.26q1-3.15 2.05-6.32c.31-1 .61-2 .92-3l.48-1.63.21-.7c.13-.44-.06.09.06-.19a10.87 10.87 0 012.67-3.65 6.32 6.32 0 011.79-1.18 3.46 3.46 0 011.54-.26 2.74 2.74 0 003.27-1.86 2.68 2.68 0 00-1.86-3.26z" fill="#262521" opacity=".35"/><path d="M261.87 1102.18l-20.87-1.62c-6.62-.49-13.24-.82-19.85-1.33-5.4-.42-11.28-.79-15.79 2.77-4.25 3.35-6.4 9.64-4.66 14.85a8.6 8.6 0 004.49 5.24 38.48 38.48 0 006 1.73c5 1.38 9.06 5.88 13.25 9.06 3.26 2.49 7.09 4 10.73 5.84a31.37 31.37 0 014.79 2.84 10.94 10.94 0 013.18 3.7 11.48 11.48 0 01.93 3 27.79 27.79 0 01.2 3.87 42.48 42.48 0 01-1.08 9.34 36.73 36.73 0 01-1.28 4.35c-.05.13-.36.86-.12.32a7.14 7.14 0 01-.37.73 4.09 4.09 0 01-.81 1.15c-.07.07-.24.33-.33.27s.52 0 .59 0c.44 0 0 .56.28 0a14 14 0 011.32-2.72c1.41-2-.91-4.41-3-3.9-11.45 2.81-16.67 16.1-17.35 26.73q-.06.93-.06 1.86a4.81 4.81 0 00.09 1.26 4.34 4.34 0 00.2.5s.18.59.1.24 0 .1 0 .16a4.27 4.27 0 00.1 1.07 3.93 3.93 0 00.92 1.46 12.26 12.26 0 001.67 1.63 15.86 15.86 0 009.3 3.53 17.26 17.26 0 005-.52c1.72-.42 4.29-1.07 5.09-2.78a11.84 11.84 0 014-5.26c4.89-3.35 10.94-4.61 15.18-9 2.38-2.45-1.37-6.21-3.75-3.76-2.83 2.91-7.15 4.39-10.94 6.3-4.34 2.19-7.89 5.25-9.53 10l1.22-1.58c-4.77 2.31-10.35 1.58-13.78-2.59l.77 1.88a9.48 9.48 0 00-.33-2.32 8.64 8.64 0 010-1.63 28.35 28.35 0 01.37-3.49 35 35 0 012.35-8.07 23.25 23.25 0 014.39-6.76 12.87 12.87 0 016.37-3.73l-3-3.9c-1.56 2.19-2.8 5.33-1.52 7.93a4.74 4.74 0 007.3 1.61c2-1.59 3-4 3.8-6.41a46.26 46.26 0 001.83-9.11c.55-5 .71-10.79-2.13-15.2-2.33-3.63-6-5.9-9.84-7.76-1.93-1-3.9-1.83-5.81-2.83a30 30 0 01-5.07-3.31c-4.46-3.65-8.82-7.81-14.57-9.23-1-.25-2.07-.45-3.08-.74l-.53-.16s-.83-.31-.37-.11l-.58-.29c-.09 0-.76-.53-.43-.25a3.17 3.17 0 01-1.14-1.86 7.74 7.74 0 01-.16-3.58 8.8 8.8 0 013.32-5.57c2.06-1.49 4.72-1.71 7.17-1.7 3.18 0 6.37.38 9.55.57q6 .36 11.92.8c8.11.59 16.22 1.25 24.33 1.87a2.66 2.66 0 100-5.31z" fill="#262521" opacity=".35"/><path d="M268.26 1119c-5.09 5.78-10.05 15.79-3 22.11a2.72 2.72 0 003.76 0 2.68 2.68 0 000-3.75c-.33-.3-.63-.6-.93-.93s0 .08-.1-.15-.22-.34-.32-.51-.18-.35-.27-.52c-.17-.36.14.55 0-.12-.1-.37-.2-.73-.29-1.11s0-.21 0 0v-.58a9 9 0 010-1.16c0-.24.07-.51 0-.12 0-.2.07-.4.11-.59.08-.4.19-.8.3-1.19s.23-.71.36-1.06c0 0 .26-.65.15-.39s.15-.33.17-.38a24.35 24.35 0 011.21-2.25c.44-.72.91-1.41 1.4-2.09l.3-.39c-.29.38 0 0 .1-.12.27-.33.54-.65.82-1a2.72 2.72 0 000-3.76 2.68 2.68 0 00-3.75 0z" fill="#262521" opacity=".35"/><path d="M363.43 538.9s14.72 50.37 94 50.37c72.17 0 78.88-51.49 78.88-51.49" fill="none" stroke="#535454" stroke-linecap="round" stroke-linejoin="round"/></svg>