<svg xmlns="http://www.w3.org/2000/svg" xmlns:xlink="http://www.w3.org/1999/xlink" width="1250" height="1550" viewBox="0 0 1250 1550"><defs><clipPath id="a"><path d="M804,588.43c-10.88-7.11-148.63-58.32-148.63-58.32s4.72,52.64-75.63,52.64c-65.09,0-77.84-37.88-82-50a12.42,12.42,0,0,1-.75-2.59c-1,.66-106.06,65.8-150.57,92.61,27,32.14,66.73,186.85,66.73,186.85l3.3,245,380.93,27.25L767.86,809.59S785.31,634.23,804,588.43Z" fill="none"/></clipPath></defs><title>s05e04-01</title><path d="M406.93,1266.5s57.14,5.35,199.05.84,197.48-17.23,197.48-17.23l22.8,267.08c-209.14,38.46-397.55,3.91-397.55,3.91Z" fill="#262521" stroke="#262521" stroke-linecap="round" stroke-linejoin="round" stroke-width="3"/><path d="M497,530.13l0,0S497,530.1,497,530.13Z" fill="#262521"/><path d="M879.72,1045c-3.84-55.87-22.89-124.63-22.89-124.63s-14.58-307-52.88-331.94c-10.88-7.11-148.63-58.32-148.63-58.32s4.72,52.64-75.63,52.64c-65.09,0-77.84-37.88-82-50a12.42,12.42,0,0,1-.75-2.59c-1,.65-106.06,65.79-150.57,92.61C301.68,649.69,319.74,947,319.74,947a619.73,619.73,0,0,0-3.6,128.12c5.52,68.42-1.88,179.2,14.45,197.93l61-1.5s-5.61-14.34-4.66-27c2.28-30.22,5.54-104.26,15.36-135.21,4.92-15.48,9.79-35.43,13.93-53.64h.07c-3.9,34-21.64,134.69-10.44,159.44.05,13-2.35,59.86-2.35,59.86s88.48,20.67,165.47,19.75c137.53-1.66,242.89-30.38,242.89-30.38s-3.23-43.82-4-57.41c8.41-14.52,0-66.09-9-120.49h0c15.34,46.59,30.51,103,32.37,132.82,1.63,26.39,2.88,34.36,2.88,34.36h58.1s4.49-6.66,5.3-18.88S885.29,1126.26,879.72,1045Z" fill="#262521"/><g clip-path="url(#a)"><polygon points="534.38 604.09 542.64 607.12 529.45 627.72 540.09 624.94 508.6 662.51 523.38 635.34 515.49 638.3 534.38 604.09" fill="#fff"/><polygon points="555.98 610.12 564.7 611.29 556.29 634.26 566.07 629.24 543.48 672.74 552.01 643.01 544.96 647.62 555.98 610.12" fill="#fff"/><polygon points="624.08 670.38 637.22 666.42 640.07 704.46 650.73 691.04 646.64 767.37 639.63 719.65 632.57 730.74 624.08 670.38" fill="#fff"/><polygon points="610.98 778.41 634.48 774.51 628.86 826.31 652.91 809.93 631.13 947.31 629.91 851.52 612.34 869.58 610.98 778.41" fill="#fff"/><polygon points="662.55 767.21 684.9 758.96 689.12 810.89 709.65 790.28 714.11 929.3 694.89 835.45 681.03 856.5 662.55 767.21" fill="#fff"/><polygon points="718.25 743.54 738.65 731.25 752.53 781.47 768.84 757.37 799.28 893.09 762.81 804.51 753.14 827.78 718.25 743.54" fill="#fff"/><polygon points="765.34 711.49 782.66 695.14 806.91 741.25 817.72 714.24 876.35 840.37 821.86 761.58 817.37 786.38 765.34 711.49" fill="#fff"/><polygon points="552.8 779.44 576.6 780.4 560.56 829.98 587.44 818.83 538.18 948.91 556.47 854.87 535.59 868.99 552.8 779.44" fill="#fff"/><polygon points="494.91 768.25 518.01 774.05 492.18 819.31 520.77 813.88 445.97 931.16 483.08 842.84 459.76 852.39 494.91 768.25" fill="#fff"/><polygon points="388.32 708.89 406.8 723.91 364.25 754 392.45 761.17 275.08 835.81 346.06 771.47 320.89 770.27 388.32 708.89" fill="#fff"/><polygon points="436.53 743.34 457.62 754.42 421.86 792.31 450.92 793.77 350.61 890.13 407.48 813.04 382.56 816.83 436.53 743.34" fill="#fff"/><polygon points="578.85 611.42 587.65 611 583.5 635.11 592.22 628.42 577.8 675.27 580.86 644.49 574.74 650.29 578.85 611.42" fill="#fff"/><polygon points="515.86 594.27 523.17 599.18 505.45 616.05 516.45 615.89 476.92 644.88 497.74 622.01 489.37 623.01 515.86 594.27" fill="#fff"/><polygon points="501.11 581.74 507.18 588.12 486.23 600.76 497 602.97 452.14 622.73 477.41 604.9 469.02 604.07 501.11 581.74" fill="#fff"/><polygon points="490.69 566.78 495.19 574.35 471.96 582.02 481.97 586.57 433.83 595.86 462.44 584.09 454.44 581.42 490.69 566.78" fill="#fff"/><polygon points="483.24 550.53 486.27 558.8 462.02 562.04 471.02 568.36 422 568.6 452.28 562.33 444.92 558.22 483.24 550.53" fill="#fff"/><polygon points="600.33 609.72 608.89 607.67 609.32 632.13 616.63 623.92 611.21 672.64 608.47 641.83 603.54 648.67 600.33 609.72" fill="#fff"/><polygon points="620.83 604.58 628.8 600.83 634.18 624.69 639.67 615.17 644.26 663.98 635.32 634.37 631.89 642.07 620.83 604.58" fill="#fff"/><polygon points="641.16 594.17 648.13 588.78 658.57 610.9 661.87 600.41 676.96 647.05 661.79 620.1 660.12 628.36 641.16 594.17" fill="#fff"/><polygon points="657.08 580.07 662.7 573.29 677.73 592.6 678.65 581.64 703.57 623.86 682.88 600.87 683.05 609.29 657.08 580.07" fill="#fff"/><polygon points="667.04 566.95 671.2 559.18 689.76 575.11 688.49 564.19 721.31 600.61 696.46 582.19 698.3 590.41 667.04 566.95" fill="#fff"/><polygon points="675.08 551.32 677.56 542.87 698.98 554.68 695.51 544.25 735.06 573.21 706.98 560.25 710.46 567.92 675.08 551.32" fill="#fff"/><polygon points="589.29 675.72 603.35 674.29 598.79 713.28 612.18 701.8 593.13 778.11 595.37 728.53 586.07 738.36 589.29 675.72" fill="#fff"/><polygon points="552.42 674.74 566.49 676.03 554.56 713.42 569.9 704.71 536.61 775.98 548.29 727.74 537.28 735.61 552.42 674.74" fill="#fff"/><polygon points="482.44 649.88 494.67 656.96 468.13 685.88 485.71 684.42 425.55 735.1 456.42 696.24 443.13 698.75 482.44 649.88" fill="#fff"/><polygon points="516.91 666.39 530.38 670.64 510.75 704.63 527.6 699.4 479.87 761.92 501.57 717.29 489.14 722.62 516.91 666.39" fill="#fff"/><polygon points="455.97 628.63 466.26 638.31 433.84 660.43 451.29 663.01 381.18 698.67 420.08 667.85 406.57 667.27 455.97 628.63" fill="#fff"/><polygon points="419.7 578.66 426.28 591.16 388.42 601.51 404.07 609.63 326.17 620.5 372.99 604.04 360.4 599.09 419.7 578.66" fill="#fff"/><polygon points="434.45 603.13 442.75 614.56 406.77 630.24 423.43 636.03 347.89 657.97 391.86 634.96 378.69 631.86 434.45 603.13" fill="#fff"/><polygon points="657.23 658.38 669.6 651.57 680.67 689.22 688.5 673.42 700.86 751.1 683.5 704.6 678.79 717.28 657.23 658.38" fill="#fff"/><polygon points="688.74 638.49 699.35 629.16 718.28 663.54 722.51 646.42 751.34 719.61 724.36 677.95 722.5 691.35 688.74 638.49" fill="#fff"/><polygon points="710.95 616.82 719.81 605.81 744.36 636.44 745.59 618.84 786.54 686 752.82 649.59 753.28 663.1 710.95 616.82" fill="#fff"/><polygon points="729.34 591.36 736.17 578.99 765.62 604.94 763.81 587.4 815.69 646.52 776.21 616.44 778.99 629.68 729.34 591.36" fill="#fff"/><path d="M413.14,809.59s5.34,199.1,3.82,238.13c-.83,21.49-23.46,140.26-11.15,167.44.05,13-2.35,59.86-2.35,59.86s88.48,20.67,165.47,19.75c137.53-1.66,242.89-30.38,242.89-30.38s-3.23-43.82-4-57.41c14.49-25-21.06-160.16-22.86-230.12-1.22-47.58-16.1-167.27-16.1-167.27" fill="none" stroke="#262521" stroke-linecap="round" stroke-linejoin="round" stroke-width="3"/></g><path d="M497,530.13l0,0S497,530.1,497,530.13Z" fill="#262521"/><path d="M416.18,1055.71c-4.14,18.21-9,38.16-13.93,53.64-9.82,31-13.08,105-15.36,135.21-.95,12.67,4.66,27,4.66,27l-61,1.5c-16.33-18.73-8.93-129.51-14.45-197.93A619.73,619.73,0,0,1,319.74,947s-18.06-297.33,26.67-324.28S497,530.11,497,530.11s-.25-.24.72,2.61c4.12,12.15,16.87,50,82,50,80.35,0,75.64-52.64,75.64-52.64S793.07,581.32,804,588.43c38.3,25,52.88,331.94,52.88,331.94s19,68.76,22.89,124.63c5.57,81.26,18.66,177.57,17.84,189.79s-5.3,18.88-5.3,18.88h-58.1s-1.25-8-2.88-34.36c-1.86-29.85-17-86.23-32.37-132.82" fill="none" stroke="#262521" stroke-linecap="round" stroke-linejoin="round" stroke-width="3"/><path d="M413.14,809.59s5.34,199.1,3.82,238.13c-.83,21.49-23.46,140.26-11.15,167.44.05,13-2.35,59.86-2.35,59.86s88.48,20.67,165.47,19.75c137.53-1.66,242.89-30.38,242.89-30.38s-3.23-43.82-4-57.41c14.49-25-21.06-160.16-22.86-230.12-1.22-47.58-16.1-167.27-16.1-167.27" fill="none" stroke="#262521" stroke-linecap="round" stroke-linejoin="round" stroke-width="3"/><path d="M403.46,1275s88.48,20.67,165.47,19.75c137.53-1.66,242.89-30.38,242.89-30.38" fill="none" stroke="#636363" stroke-linecap="round" stroke-linejoin="round"/></svg>