<svg xmlns="http://www.w3.org/2000/svg" width="1250" height="1550" viewBox="0 0 1250 1550"><title>s05e04-02</title><path d="M406.93,1266.5s61.78,24.3,203.69,19.79,192.84-36.18,192.84-36.18l20.11,342.24-158.71-1.85L636,1393.89l-25.52,8.67-8.83,196.25-153.94-.22Z" fill="#5b5951" stroke="#262521" stroke-linecap="round" stroke-linejoin="round" stroke-width="3"/><path d="M803,1225.63l5.65,56.15S733.4,1296,619.59,1300.45s-214.7-8.06-214.7-8.06l1.05-45.55Z" fill="#fff" stroke="#262521" stroke-linecap="round" stroke-linejoin="round" stroke-width="3"/><path d="M497,530.13l0,0S497,530.1,497,530.13Z" fill="#262521" stroke="#262521" stroke-linecap="round" stroke-linejoin="round" stroke-width="3"/><path d="M879.72,1045c-3.84-55.87-22.89-124.63-22.89-124.63s-14.58-307-52.88-331.94c-10.88-7.11-148.63-58.32-148.63-58.32s4.72,52.64-75.63,52.64c-65.09,0-77.84-37.88-82-50a12.42,12.42,0,0,1-.75-2.59c-1,.65-106.06,65.79-150.57,92.61C301.68,649.69,319.74,947,319.74,947a619.73,619.73,0,0,0-3.6,128.12c5.52,68.42-1.88,179.2,14.45,197.93l61-1.5s-5.61-14.34-4.66-27c2.28-30.22,5.54-104.26,15.36-135.21,4.92-15.48,9.79-35.43,13.93-53.64h.07c-3.9,34-21.64,134.69-10.44,159.44.05,13-2.35,59.86-2.35,59.86s88.48,20.67,165.47,19.75c137.53-1.66,242.89-30.38,242.89-30.38s-3.23-43.82-4-57.41c8.41-14.52,0-66.09-9-120.49h0c15.34,46.59,30.51,103,32.37,132.82,1.63,26.39,2.88,34.36,2.88,34.36h58.1s4.49-6.66,5.3-18.88S885.29,1126.26,879.72,1045Z" fill="#262521" stroke="#262521" stroke-linecap="round" stroke-linejoin="round" stroke-width="3"/><path d="M494.35,531.46s30.59,50.15,85.12,50.15,78.34-50.15,78.34-50.15l23.76,12.06-97.5,98.38L448.58,565.13Z" fill="#fff" stroke="#262521" stroke-linecap="round" stroke-linejoin="round" stroke-width="3"/><path d="M511.93,507.56c-9.76.89-16.24,2.61-18.33,5.58-7.68,10.89-16.72,12.57-16.72,12.57s-19.3,5.48-26.11,10.22c-9.13,6.35-25.57,26.91-20.95,35.37C471.2,575.59,571.1,652,585.39,651.79c8.12-.12,53.71-61.83,95.26-84.57,19.67-10.76,35.74-11.81,37.73-12.43,6.77-2.12-2-4.86-9.3-9.27s-6.69-11.52-9.47-16.86-13.87-2-13.87-2-.45-1.75-13.18-13.56-20.95-10.07-31-9.79l3.76,20.56c8.3,2.91,15.06,9.07,12.58,16.37-3.23,9.52-59.78,86.62-74.16,86.85s-88.64-82.13-90.61-90.35c-1.6-6.7,8.82-5.6,15.86-11.17Z" fill="#262521"/><path d="M511.93,507.56c-9.76.89-16.24,2.61-18.33,5.58-7.68,10.89-16.72,12.57-16.72,12.57s-19.3,5.48-26.11,10.22c-9.13,6.35-25.57,26.91-20.95,35.37C471.2,575.59,571.1,652,585.39,651.79c8.12-.12,53.71-61.83,95.26-84.57,19.67-10.76,35.74-11.81,37.73-12.43,6.77-2.12-2-4.86-9.3-9.27s-6.69-11.52-9.47-16.86-13.87-2-13.87-2-.45-1.75-13.18-13.56-20.95-10.07-31-9.79l3.76,20.56c8.3,2.91,15.06,9.07,12.58,16.37-3.23,9.52-59.78,86.62-74.16,86.85s-88.64-82.13-90.61-90.35c-1.6-6.7,8.47-3.26,15.36-11.17Z" fill="none" stroke="#262521" stroke-linecap="round" stroke-linejoin="round" stroke-width="4.03"/><path d="M429.82,571.3C471.2,575.59,571.1,652,585.39,651.79c8.12-.12,53.71-61.83,95.26-84.57,19.67-10.76,35.74-11.81,37.73-12.43" fill="none" stroke="#636363" stroke-linecap="round" stroke-linejoin="round" stroke-width="1.34" opacity="0.95"/><path d="M451.81,759.32v-4.48l-10.18,3.5-1.7,19.94,4.4-4.28-2,23.39,4.5-1.14.19,3,6.17-2,.65-12.54s15.15-6.2,15.11-16S462.44,755,451.81,759.32ZM446.42,763l3.13-.2-2.91,3.81Zm3.2,25.93c-.53,0-.38-6-.38-6l3.63-.7S450.14,788.9,449.62,788.93Zm0-13.74,1.76-10c8.59-4.45,8.22,1.78,6.54,5.41S449.66,775.19,449.66,775.19Zm13.88-2.3c-1.47,4-7.13,4.93-7.13,4.93l.2-4.4s3.78-2,3.53-6C460.14,767.38,466.14,765.77,463.54,772.89Z" fill="#fff"/><path d="M455.78,754.59v-4.48l-10.17,3.5-1.71,19.94,4.41-4.28-2,23.39,4.51-1.14.19,3,6.17-2,.64-12.53S473,773.82,473,764,466.4,750.3,455.78,754.59Zm-5.4,3.68,3.14-.2-2.91,3.81Zm3.2,25.93c-.52,0-.37-6-.37-6l3.63-.7S454.11,784.16,453.58,784.2Zm.05-13.74,1.75-10c8.59-4.45,8.22,1.78,6.54,5.41S453.63,770.46,453.63,770.46Zm13.87-2.3c-1.46,4-7.13,4.93-7.13,4.93l.2-4.4s3.79-2.05,3.54-6C464.11,762.65,470.11,761,467.5,768.16Z" fill="#b0b1b5"/><path d="M510.19,774.21s-2.93,3.68-3.72,3.65c0,0,4.25-25.07-15.29-22.27l.23-2.68s-19.54,6-16.24,31.77l3.14-.19s3.14,12.32,11.41,12.19a12.46,12.46,0,0,0,11.2-6.81,13,13,0,0,1-.89,6.18S511.9,788.88,510.19,774.21Zm-29.95.82c-.16-6.53,5.42-10.52,5.42-10.52Zm17.19,9.41C495.27,791,490,790,490,790l-.18-2.75s-4.55,2.85-5.29-7.45,4.79-13.11,7.31-13.38,3.3,5,3.3,5,1.66-1.71,2.69-1S499.58,777.93,497.43,784.44Z" fill="#fff"/><path d="M512.56,769.52s-2.93,3.69-3.72,3.66c0,0,4.24-25.08-15.29-22.27l.22-2.68s-19.53,6-16.24,31.77l3.15-.2s3.13,12.32,11.4,12.2a12.48,12.48,0,0,0,11.21-6.81,13,13,0,0,1-.9,6.18S514.26,784.2,512.56,769.52Zm-29.95.83c-.17-6.53,5.42-10.52,5.42-10.52Zm17.18,9.41c-2.15,6.51-7.44,5.52-7.44,5.52l-.17-2.75s-4.55,2.85-5.3-7.45,4.8-13.12,7.31-13.38,3.3,5,3.3,5,1.67-1.72,2.7-1S502,773.25,499.79,779.76Z" fill="#b0b1b5"/><path d="M542.07,773.4l-3.24.2s1.46-5.07-7.81-5.08c0,0-1-2.11-5.36-2.23,0,0-5.4-1.24-3.44-4.51s3.3-.62,10.14-1.82c1.75-.31,2.59.43,2.73,2.78l4.34,0s3-7.29-3.07-9.76c0,0-4.69-5.52-12.17-.72,0,0,.61-2.8,1.26-3.53,0,0-10,2.21-11.64,11s1,10,1,10l2.46-.15s.28,6.09,9.71,4l.14,2.26s9.48-1.29,6.88,6S525,788,523.66,784.65l-2.65.27s-2.48-3.49-1.63-5.56l-5.1,1.74s-.66,5.39,5.05,10,12.18-.77,12.18-.77l.41,3.51s8.15-3.66,10.12-9.9S542.07,773.4,542.07,773.4Zm-19.73-16-2.49,4.2S518.4,757.38,522.34,757.43Zm13.23,27.07c.44-.92,1.26-3.43,1.26-3.43C538.52,784.31,535.14,785.41,535.57,784.5Z" fill="#fff"/><path d="M544.74,770.32l-3.24.2s1.45-5.07-7.81-5.08c0,0-1-2.1-5.37-2.23,0,0-5.4-1.23-3.43-4.51s3.29-.62,10.13-1.82c1.76-.31,2.59.43,2.74,2.78l4.34,0s3-7.29-3.08-9.76c0,0-4.68-5.52-12.17-.72a12.75,12.75,0,0,1,1.26-3.53s-10,2.21-11.63,11,1,10,1,10l2.45-.15s.29,6.09,9.72,4l.14,2.26s9.48-1.29,6.88,6-9.07,6.19-10.37,2.82l-2.64.27s-2.49-3.48-1.63-5.56L517,778s-.67,5.4,5,10.05,12.17-.76,12.17-.76l.42,3.5s8.15-3.66,10.12-9.9S544.74,770.32,544.74,770.32Zm-19.73-16-2.5,4.2S521.06,754.31,525,754.35Zm13.23,27.07c.43-.92,1.26-3.43,1.26-3.43C541.18,781.23,537.8,782.33,538.24,781.42Z" fill="#b0b1b5"/><path d="M575.07,771.58l-3.24.2s1.46-5.07-7.81-5.08c0,0-1-2.11-5.36-2.23,0,0-5.4-1.24-3.44-4.52s3.3-.62,10.14-1.81c1.75-.31,2.59.42,2.74,2.78l4.33,0s3-7.28-3.07-9.76c0,0-4.69-5.52-12.17-.71,0,0,.61-2.8,1.26-3.53,0,0-10,2.2-11.63,11s1,10,1,10l2.45-.16s.28,6.1,9.71,4l.15,2.25s9.48-1.28,6.88,6-9.08,6.19-10.37,2.82l-2.65.26s-2.48-3.48-1.63-5.56l-5.1,1.75s-.66,5.39,5.05,10,12.18-.76,12.18-.76l.41,3.51s8.15-3.67,10.13-9.9S575.07,771.58,575.07,771.58Zm-19.73-16-2.49,4.2S551.4,755.56,555.34,755.61Zm13.23,27.06c.44-.91,1.27-3.43,1.27-3.43C571.52,782.49,568.14,783.59,568.57,782.67Z" fill="#fff"/><path d="M577.74,768.5l-3.24.2s1.45-5.07-7.81-5.08c0,0-1-2.11-5.37-2.23,0,0-5.4-1.24-3.43-4.52s3.3-.62,10.13-1.81c1.76-.31,2.59.43,2.74,2.78l4.34,0s3-7.29-3.08-9.77c0,0-4.68-5.52-12.16-.71a12.65,12.65,0,0,1,1.25-3.53s-10,2.2-11.63,11,1,10,1,10l2.46-.16s.28,6.1,9.71,4l.14,2.26s9.48-1.29,6.88,6-9.07,6.19-10.37,2.82l-2.64.26s-2.49-3.48-1.63-5.56L550,776.2s-.66,5.39,5,10,12.17-.77,12.17-.77l.42,3.51s8.15-3.67,10.12-9.9S577.74,768.5,577.74,768.5Zm-19.73-16-2.5,4.2S554.06,752.48,558,752.53Zm13.23,27.06c.43-.91,1.26-3.43,1.26-3.43C574.18,779.41,570.8,780.51,571.24,779.59Z" fill="#b0b1b5"/><path d="M641,767.15l-3.24.2s1.46-5.07-7.8-5.08c0,0-1-2.11-5.37-2.23,0,0-5.4-1.24-3.43-4.51s3.29-.62,10.13-1.82c1.76-.31,2.59.43,2.74,2.78l4.34,0s3-7.29-3.08-9.76c0,0-4.68-5.53-12.17-.72a12.75,12.75,0,0,1,1.26-3.53s-10,2.21-11.63,11,1,10,1,10l2.45-.15s.29,6.09,9.72,4l.14,2.26s9.48-1.29,6.88,6-9.07,6.19-10.37,2.82l-2.64.27s-2.49-3.49-1.63-5.56l-5.1,1.74s-.67,5.39,5,10,12.17-.77,12.17-.77l.42,3.51S639,784,641,777.74,641,767.15,641,767.15Zm-19.72-16-2.5,4.2S617.36,751.13,621.31,751.18Zm13.23,27.07c.43-.92,1.26-3.43,1.26-3.43C637.48,778.06,634.1,779.16,634.54,778.25Z" fill="#fff"/><path d="M643.7,764.07l-3.24.2s1.46-5.07-7.81-5.08c0,0-1-2.1-5.36-2.23,0,0-5.4-1.24-3.44-4.51s3.3-.62,10.14-1.82c1.75-.31,2.59.43,2.73,2.78l4.34,0s3-7.29-3.07-9.76c0,0-4.69-5.52-12.17-.72a12.65,12.65,0,0,1,1.25-3.53s-10,2.21-11.63,11,1,10,1,10l2.46-.15s.28,6.09,9.71,4l.14,2.26s9.48-1.29,6.88,6-9.07,6.19-10.37,2.82l-2.64.27S620.16,772.1,621,770l-5.1,1.74s-.66,5.4,5.05,10.05,12.17-.77,12.17-.77l.42,3.51s8.15-3.66,10.12-9.9S643.7,764.07,643.7,764.07ZM624,748.1l-2.49,4.2S620,748.06,624,748.1Zm13.23,27.07c.44-.92,1.26-3.43,1.26-3.43C640.15,775,636.77,776.08,637.2,775.17Z" fill="#b0b1b5"/><path d="M673.89,764.84l-3.23.2s1.45-5.07-7.81-5.08c0,0-1-2.1-5.37-2.22,0,0-5.4-1.24-3.43-4.52s3.29-.62,10.13-1.82c1.76-.31,2.59.43,2.74,2.79l4.34,0s3-7.28-3.08-9.76c0,0-4.68-5.52-12.17-.72a12.86,12.86,0,0,1,1.26-3.53s-10,2.21-11.63,11,1,10,1,10l2.45-.15s.29,6.09,9.72,4l.14,2.26s9.48-1.28,6.88,6-9.07,6.18-10.37,2.81l-2.64.27s-2.49-3.48-1.63-5.56l-5.1,1.74s-.67,5.4,5,10.05,12.17-.76,12.17-.76l.42,3.5s8.14-3.66,10.12-9.9S673.89,764.84,673.89,764.84Zm-19.72-16-2.5,4.19S650.22,748.83,654.17,748.88Zm13.23,27.06c.43-.92,1.26-3.43,1.26-3.43C670.34,775.75,667,776.85,667.4,775.94Z" fill="#fff"/><path d="M676.56,761.76l-3.24.21s1.46-5.08-7.81-5.09c0,0-1-2.1-5.36-2.22,0,0-5.4-1.24-3.44-4.52s3.3-.62,10.14-1.82c1.75-.3,2.59.43,2.73,2.79l4.34,0s3-7.28-3.07-9.76c0,0-4.69-5.52-12.17-.72,0,0,.61-2.79,1.26-3.52,0,0-10,2.2-11.64,11s1,10,1,10l2.46-.15s.28,6.09,9.71,4l.14,2.26s9.48-1.28,6.88,6-9.07,6.18-10.36,2.82l-2.65.26s-2.48-3.48-1.63-5.56l-5.1,1.74s-.66,5.4,5.05,10,12.18-.76,12.18-.76l.41,3.5s8.15-3.66,10.12-9.9S676.56,761.76,676.56,761.76Zm-19.73-16L654.34,750S652.89,745.75,656.83,745.8Zm13.23,27.06c.44-.92,1.26-3.43,1.26-3.43C673,772.67,669.63,773.77,670.06,772.86Z" fill="#b0b1b5"/><polygon points="581.25 750.1 580.55 771.46 583.92 766.12 582.74 788.13 586.96 786.02 586.4 789.35 600.32 785.19 599.95 789.39 607.95 786.54 608.23 782.85 603.06 783.97 603.27 779.21 592.23 782.43 592.97 778.02 590.17 778.19 588.76 780.12 589.46 770.9 593.21 769.59 593.49 774.08 605.81 768.79 605.69 762.71 598.79 764.8 598.71 761.5 590.41 763.67 590.48 756.53 600.73 752.98 600.99 757.01 608.71 753.9 608.32 747.59 605.31 748.59 604.96 744.99 592.37 747.95 592.26 746.35 581.25 750.1" fill="#fff"/><polygon points="583.37 747.11 582.66 768.47 586.03 763.12 584.86 785.13 589.07 783.03 588.51 786.36 602.44 782.19 602.06 786.4 610.06 783.55 610.34 779.86 605.17 780.98 605.38 776.22 594.34 779.44 595.09 775.02 592.28 775.2 590.87 777.13 591.57 767.91 595.32 766.59 595.61 771.09 607.93 765.8 607.8 759.71 600.9 761.81 600.82 758.5 592.52 760.67 592.59 753.54 602.84 749.98 603.1 754.02 610.83 750.91 610.43 744.6 607.43 745.6 607.07 742 594.48 744.96 594.38 743.36 583.37 747.11" fill="#b0b1b5"/><polyline points="594.48 744.96 594.38 743.36 583.37 747.11" fill="#b0b1b5"/><polygon points="680.58 744.2 679.87 765.56 683.24 760.22 682.07 782.22 686.28 780.12 685.72 783.45 699.65 779.28 699.27 783.49 707.27 780.64 707.55 776.95 702.38 778.07 702.6 773.31 691.55 776.53 692.3 772.12 689.5 772.29 688.08 774.22 688.78 765 692.53 763.68 692.82 768.18 705.14 762.89 705.01 756.81 698.11 758.9 698.03 755.59 689.74 757.76 689.8 750.63 700.05 747.07 700.31 751.11 708.04 748 707.64 741.69 704.64 742.69 704.28 739.09 691.69 742.05 691.59 740.45 680.58 744.2" fill="#fff"/><polygon points="682.69 741.21 681.98 762.56 685.36 757.22 684.18 779.23 688.39 777.13 687.84 780.46 701.76 776.29 701.38 780.5 709.38 777.65 709.66 773.96 704.5 775.08 704.71 770.31 693.66 773.54 694.41 769.12 691.61 769.3 690.2 771.22 690.89 762 694.65 760.69 694.93 765.18 707.25 759.9 707.12 753.81 700.23 755.91 700.15 752.6 691.85 754.77 691.91 747.63 702.17 744.08 702.42 748.12 710.15 745 709.75 738.7 706.75 739.7 706.4 736.09 693.8 739.05 693.7 737.46 682.69 741.21" fill="#b0b1b5"/><path d="M743.7,751.11,741,752.22s-2.07-15.49-19.71-8.65l.51-4.12-7.88,2.65-1.54,14.17,4.06-4.54-2.08,24,3.9-3-2.7,7.92,11.24-2.24-1.06,3.46s15.08-6.13,17.6-16.89S743.7,751.11,743.7,751.11Zm-20.6,22,1.13-12.44-5,5.62,3.09-17.87s12.89-.39,12.43,8.59S730.2,772.32,723.1,773.14Zm8.82.14c.17-1.45,5.86-12.6,5.86-12.6C739.15,768.26,731.76,774.74,731.92,773.28Z" fill="#fff"/><path d="M746.18,746.9,743.43,748s-1.95-15.51-19.64-8.8l.54-4.12-7.91,2.58-1.65,14.16,4.1-4.5-2.27,24,3.93-3-2.76,7.9L729,774l-1.09,3.44s15.13-6,17.73-16.74S746.18,746.9,746.18,746.9Zm-20.77,21.87,1.23-12.43-5.06,5.58,3.24-17.85s12.89-.28,12.36,8.69S732.52,768,725.41,768.77Zm8.82.21c.18-1.45,6-12.55,6-12.55C741.5,764,734.06,770.43,734.23,769Z" fill="#b0b1b5"/><polygon points="734.46 1194.4 734.06 1206.19 781.68 1208.62 782.13 1197.12 734.46 1194.4" fill="#494843"/><path d="M738.72,1201.16s-1.81,16.86-.07,32.12-.5,23.16-.5,23.16,22.73,2.37,34.89-4.32l3.46-49.22Z" fill="#fff"/><path d="M625.48,599.1c2.34,33.3,2.81,66.69,2.83,100.06s-.38,66.52.26,99.77c.36,18.85,1.06,37.69,2.32,56.5.13,1.92,3.13,1.93,3,0-2.25-33.49-2.68-67.06-2.68-100.62,0-33.21.38-66.41-.3-99.61-.39-18.72-1.11-37.42-2.43-56.1-.13-1.91-3.13-1.93-3,0Z" fill="#636363"/><path d="M632.78,829.84c-2.91,0-4.35,4.13-2.21,6.06a3.67,3.67,0,0,0,4.34.32,3.93,3.93,0,0,0,2-3.87,4.59,4.59,0,0,0-3-3.59,4.69,4.69,0,0,0-4.36.61,5.93,5.93,0,0,0-2.45,3.73,5.31,5.31,0,0,0,1.07,4.35,3.55,3.55,0,0,0,4.61.82,3.33,3.33,0,0,0,1.4-4.51,1.5,1.5,0,1,0-2.59,1.52s.07.14.09.14-.09-.3-.08-.17a.42.42,0,0,0,0,.12c0,.16-.1.06,0-.17,0,0,0,.08,0,.12s0-.24,0-.21a1.57,1.57,0,0,0-.08.31s.18-.34.05-.14l-.06.11-.06.1c-.09.15-.08,0,.08-.1-.06,0-.13.14-.17.19s-.13.09-.13.11.27-.19.09-.08a2.2,2.2,0,0,1-.26.15c-.27.16.23,0,0,0a.92.92,0,0,0-.25.06s.39,0,.15,0h-.17s-.22,0,0,0,0,0,0,0l-.13,0c-.2,0,.09,0,.11,0a1.38,1.38,0,0,0-.24-.14c-.16-.08,0-.08.09.08,0,0-.11-.09-.14-.12s-.14-.16-.22-.23.1.11.1.13-.07-.1-.08-.12l-.16-.27a.67.67,0,0,0-.08-.17s.11.31,0,.1a5.87,5.87,0,0,1-.16-.6c-.08-.36,0,.24,0,0s0-.26,0-.39,0-.22,0-.33,0,.16,0,.16,0-.11,0-.13,0-.22.08-.33a2,2,0,0,0,.13-.39s-.12.26,0,.12l.09-.19c0-.09.1-.18.16-.27s.2-.23.2-.3-.19.22-.08.1.11-.13.17-.2l.25-.25s.29-.26.13-.11.12-.09.18-.12a2.43,2.43,0,0,1,.35-.2c.23-.13-.29.1.06,0l.29-.09.2,0c.16,0-.13,0-.14,0a1.8,1.8,0,0,0,.4,0h.15c.2,0-.3-.07-.1,0l.29.07.2.06c.15,0-.12-.05-.13-.06s.25.12.36.19.17.15.25.16c-.17,0-.19-.16-.07,0l.12.1s.17.23.24.25-.17-.24-.09-.11l.14.21a1.08,1.08,0,0,0,.14.26c-.15-.16-.09-.23,0-.09s0,.1,0,.14a1.42,1.42,0,0,0,0,.2c0,.15,0-.15,0-.16a1.69,1.69,0,0,0,0,.39s.08-.32,0-.19a.61.61,0,0,0,0,.13s-.14.39,0,.15,0,.06-.08.13l-.07.11c-.08.15.22-.25,0-.07l-.18.19s-.12.09-.13.12.25-.17.13-.1a2.26,2.26,0,0,0-.26.16l-.12.06c-.15.1.33-.11.08,0l-.25.07s-.14,0-.16,0,.32,0,.18,0a2.81,2.81,0,0,0-.29,0s-.21,0,0,0,0,0,0,0l-.12,0c-.13,0,.3.18.08,0l-.11-.07c-.13,0,.19.19.12.1s-.28-.3-.11-.08,0-.07-.05-.12.08.18.08.2a.58.58,0,0,0-.06-.17c0-.07-.08-.42,0-.12s0,0,0-.09v-.15c0-.2,0,.15,0,.18s0-.2.06-.29l0-.14c.05-.19,0,.12-.07.15a2,2,0,0,0,.13-.25.47.47,0,0,0,.06-.09c0-.11-.25.26-.09.11a1.26,1.26,0,0,0,.2-.2s-.27.17-.16.14l.11-.07c.26-.17-.32.12,0,0s-.38,0,0,0a1.5,1.5,0,0,0,0-3Z" fill="#636363"/><path d="M529.15,605.1q3.54,50.11,4.7,100.34,1.17,50,0,99.94-.66,28-2.07,56c-.1,1.93,2.9,1.93,3,0q2.5-50.16,2.67-100.41.14-50-2.06-99.92-1.23-28-3.21-56c-.13-1.91-3.13-1.93-3,0Z" fill="#636363"/><path d="M534.57,835.84c-2.9,0-4.35,4.13-2.21,6.06a3.67,3.67,0,0,0,4.34.32,3.94,3.94,0,0,0,2-3.87,4.61,4.61,0,0,0-3-3.59,4.69,4.69,0,0,0-4.36.61,5.91,5.91,0,0,0-2.46,3.73,5.34,5.34,0,0,0,1.07,4.35,3.56,3.56,0,0,0,4.61.82,3.34,3.34,0,0,0,1.41-4.51,1.51,1.51,0,0,0-2.6,1.52s.08.14.09.14-.09-.3-.07-.17a.42.42,0,0,0,0,.12c0,.16-.1.06,0-.17a.48.48,0,0,0,0,.12,1.4,1.4,0,0,0,0-.21,1.57,1.57,0,0,0-.08.31s.18-.34.06-.14l-.06.11-.07.1c-.09.15-.07,0,.08-.1-.05,0-.12.14-.17.19a.75.75,0,0,0-.13.11c0-.05.28-.19.1-.08s-.17.11-.26.15c-.28.16.22,0,0,0a.92.92,0,0,0-.25.06s.39,0,.15,0h-.17c-.05,0-.21,0,0,0s0,0,0,0l-.12,0c-.21,0,.08,0,.1,0s-.21-.12-.24-.14,0-.08.09.08c0,0-.11-.09-.14-.12l-.21-.23c-.11-.1.1.11.09.13s-.06-.1-.07-.12a1.91,1.91,0,0,1-.16-.27s-.07-.16-.08-.17.11.31,0,.1-.11-.39-.16-.6c-.07-.36,0,.24,0,0s0-.26,0-.39,0-.22,0-.33,0,.16,0,.16,0-.11,0-.13,0-.22.08-.33A2,2,0,0,0,532,839s-.12.26,0,.12A1.63,1.63,0,0,1,532,839c0-.09.1-.18.15-.27s.2-.23.2-.3l-.08.1c.06-.06.11-.13.17-.2l.26-.25.12-.11c-.17.14.13-.09.18-.12s.24-.14.35-.2-.28.1.07,0a1.4,1.4,0,0,1,.29-.09l.2,0c.15,0-.14,0-.15,0a1.79,1.79,0,0,0,.4,0h.15c.21,0-.29-.07-.1,0l.3.07.19.06c.15,0-.12-.05-.13-.06s.26.12.36.19.18.15.26.16c-.17,0-.19-.16-.07,0l.11.1s.17.23.24.25-.17-.24-.08-.11l.13.21a1.59,1.59,0,0,0,.14.26c-.15-.16-.08-.23,0-.09s0,.1,0,.14a1.42,1.42,0,0,1,0,.2c0,.15,0-.15,0-.16a1.27,1.27,0,0,0,0,.39s.08-.32,0-.19l0,.13s-.13.39,0,.15,0,.06-.08.13l-.07.11c-.08.15.23-.25,0-.07l-.19.19s-.12.09-.13.12.26-.17.13-.1-.17.11-.26.16l-.12.06c-.14.1.33-.11.08,0l-.24.07a1,1,0,0,0-.17,0s.33,0,.19,0-.2,0-.3,0-.21,0,0,0,0,0-.05,0l-.12,0c-.13,0,.3.18.09,0l-.12-.07c-.13,0,.2.19.12.1s-.27-.3-.1-.08,0-.07-.06-.12.08.18.08.2,0-.13,0-.17-.08-.42,0-.12,0,0,0-.09,0-.1,0-.15,0,.15,0,.18,0-.2.06-.29,0-.09,0-.14,0,.12-.07.15a2,2,0,0,0,.13-.25.47.47,0,0,0,.06-.09c0-.11-.25.26-.08.11s.17-.14.19-.2-.27.17-.16.14l.12-.07c.25-.17-.33.12,0,0s-.39,0,0,0a1.5,1.5,0,0,0,0-3Z" fill="#636363"/></svg>