<svg xmlns="http://www.w3.org/2000/svg" width="1250" height="1550" viewBox="0 0 1250 1550"><title>s05e05-01</title><path d="M413.68,1053.71c-4.14,18.21-9,38.16-13.93,53.64-9.82,31-13.08,105-15.36,135.21-.95,12.67,4.66,27,4.66,27l-61,1.5c-16.33-18.73-8.93-129.51-14.45-197.93A619.73,619.73,0,0,1,317.24,945s-18.06-297.33,26.67-324.28,150.6-92.63,150.6-92.63-.25-.24.72,2.61c4.12,12.15,16.87,50,82,50,80.35,0,75.64-52.64,75.64-52.64s137.74,51.21,148.62,58.32c38.3,25,52.88,331.94,52.88,331.94s19,68.76,22.89,124.63c5.57,81.26,18.66,177.57,17.84,189.79s-5.3,18.88-5.3,18.88h-58.1s-1.25-8-2.88-34.36c-1.86-29.85-17-86.23-32.37-132.82" fill="#302f2d" stroke="#262521" stroke-linecap="round" stroke-linejoin="round" stroke-width="3"/><circle cx="882.2" cy="1234.02" r="4.73" fill="none" stroke="#9d9d9d" stroke-linecap="round" stroke-linejoin="round" stroke-width="1.78"/><circle cx="881.28" cy="1189.24" r="4.73" fill="none" stroke="#9d9d9d" stroke-linecap="round" stroke-linejoin="round" stroke-width="1.78"/><circle cx="876.48" cy="1141.41" r="4.73" fill="none" stroke="#9d9d9d" stroke-linecap="round" stroke-linejoin="round" stroke-width="1.78"/><circle cx="870.65" cy="1099.44" r="4.73" fill="none" stroke="#9d9d9d" stroke-linecap="round" stroke-linejoin="round" stroke-width="1.78"/><circle cx="865.44" cy="1055.63" r="4.73" fill="none" stroke="#9d9d9d" stroke-linecap="round" stroke-linejoin="round" stroke-width="1.78"/><circle cx="862.21" cy="1012.09" r="4.73" fill="none" stroke="#9d9d9d" stroke-linecap="round" stroke-linejoin="round" stroke-width="1.78"/><circle cx="854.43" cy="971.62" r="4.73" fill="none" stroke="#9d9d9d" stroke-linecap="round" stroke-linejoin="round" stroke-width="1.78"/><circle cx="843.86" cy="926.02" r="4.73" fill="none" stroke="#9d9d9d" stroke-linecap="round" stroke-linejoin="round" stroke-width="1.78"/><circle cx="839.94" cy="879.55" r="4.73" fill="none" stroke="#9d9d9d" stroke-linecap="round" stroke-linejoin="round" stroke-width="1.78"/><circle cx="837.02" cy="829.63" r="4.73" fill="none" stroke="#9d9d9d" stroke-linecap="round" stroke-linejoin="round" stroke-width="1.78"/><circle cx="834.21" cy="781.72" r="4.73" fill="none" stroke="#9d9d9d" stroke-linecap="round" stroke-linejoin="round" stroke-width="1.78"/><circle cx="829.48" cy="728.37" r="4.73" fill="none" stroke="#9d9d9d" stroke-linecap="round" stroke-linejoin="round" stroke-width="1.78"/><circle cx="825.68" cy="676.51" r="4.73" fill="none" stroke="#9d9d9d" stroke-linecap="round" stroke-linejoin="round" stroke-width="1.78"/><path d="M820.58,626.46a4.73,4.73,0,1,0,1.75,6.79" fill="none" stroke="#9d9d9d" stroke-linecap="round" stroke-linejoin="round" stroke-width="1.78"/><circle cx="799.54" cy="590.93" r="4.73" fill="none" stroke="#9d9d9d" stroke-linecap="round" stroke-linejoin="round" stroke-width="1.78"/><path d="M759.13,569.93a4.77,4.77,0,0,0-1.67,2.36,4.73,4.73,0,1,0,9,2.85,4.58,4.58,0,0,0,.2-1.86" fill="none" stroke="#9d9d9d" stroke-linecap="round" stroke-linejoin="round" stroke-width="1.78"/><path d="M723.35,555.29a4.72,4.72,0,0,0,5.67,5.47,4.67,4.67,0,0,0,2.6-1.58" fill="none" stroke="#9d9d9d" stroke-linecap="round" stroke-linejoin="round" stroke-width="1.78"/><circle cx="335.98" cy="1248.26" r="4.73" fill="none" stroke="#9d9d9d" stroke-linecap="round" stroke-linejoin="round" stroke-width="1.78"/><circle cx="331.25" cy="1202.36" r="4.73" fill="none" stroke="#9d9d9d" stroke-linecap="round" stroke-linejoin="round" stroke-width="1.78"/><circle cx="329.71" cy="1155.48" r="4.73" fill="none" stroke="#9d9d9d" stroke-linecap="round" stroke-linejoin="round" stroke-width="1.78"/><circle cx="326.88" cy="1112.65" r="4.73" fill="none" stroke="#9d9d9d" stroke-linecap="round" stroke-linejoin="round" stroke-width="1.78"/><circle cx="325.38" cy="1067.74" r="4.73" fill="none" stroke="#9d9d9d" stroke-linecap="round" stroke-linejoin="round" stroke-width="1.78"/><circle cx="323.38" cy="1024.52" r="4.73" fill="none" stroke="#9d9d9d" stroke-linecap="round" stroke-linejoin="round" stroke-width="1.78"/><circle cx="324.88" cy="977.31" r="4.73" fill="none" stroke="#9d9d9d" stroke-linecap="round" stroke-linejoin="round" stroke-width="1.78"/><circle cx="326.98" cy="926.81" r="4.73" fill="none" stroke="#9d9d9d" stroke-linecap="round" stroke-linejoin="round" stroke-width="1.78"/><circle cx="324.82" cy="880.01" r="4.73" fill="none" stroke="#9d9d9d" stroke-linecap="round" stroke-linejoin="round" stroke-width="1.78"/><circle cx="323.48" cy="831.84" r="4.73" fill="none" stroke="#9d9d9d" stroke-linecap="round" stroke-linejoin="round" stroke-width="1.78"/><circle cx="323.16" cy="785.68" r="4.73" fill="none" stroke="#9d9d9d" stroke-linecap="round" stroke-linejoin="round" stroke-width="1.78"/><circle cx="324.66" cy="738.08" r="4.73" fill="none" stroke="#9d9d9d" stroke-linecap="round" stroke-linejoin="round" stroke-width="1.78"/><circle cx="327.89" cy="690.9" r="4.73" fill="none" stroke="#9d9d9d" stroke-linecap="round" stroke-linejoin="round" stroke-width="1.78"/><circle cx="334.96" cy="649.28" r="4.73" fill="none" stroke="#9d9d9d" stroke-linecap="round" stroke-linejoin="round" stroke-width="1.78"/><circle cx="353.55" cy="621" r="4.73" fill="none" stroke="#9d9d9d" stroke-linecap="round" stroke-linejoin="round" stroke-width="1.78"/><path d="M385.68,595.29a4.64,4.64,0,0,1,2.07,2,4.73,4.73,0,1,1-8.89,2.6" fill="none" stroke="#9d9d9d" stroke-linecap="round" stroke-linejoin="round" stroke-width="1.78"/><path d="M418.3,574.53a4.56,4.56,0,0,1,.3,1.85,4.73,4.73,0,0,1-4.9,4.54,4.67,4.67,0,0,1-2.85-1.1" fill="none" stroke="#9d9d9d" stroke-linecap="round" stroke-linejoin="round" stroke-width="1.78"/><path d="M474.87,540.28c-1.72,0-97.66,80.33-109,87.17C321.13,654.4,342.31,945.3,342.31,945.3s-8.28,61.85-2.75,130.27c3.31,41-1.88,175.58,14.35,195l35.14-1c-6.69-21.46-4.06-50.63-2.38-61,1.06-15.63,2.4-33.3,4.2-50a.8.8,0,0,1-.2-1.21l.39-.52c2.14-19.56,4.94-37.68,8.69-49.5,4.83-15.2,10.09-36.77,14.19-54.79-.76,7.9,2.56-232.4-3.3-245-25.86-114.85,68.6-217.4,87.05-233.59C478.89,555.22,477.22,541.56,474.87,540.28Z" fill="#262521"/><path d="M831.66,1251.67c3-.05,36.48,0,36.48,0,8.9-21.17-9.95-157.61-13.2-205-3.84-55.87-26-126.37-26-126.37s-8.9-297.52-47.2-322.51c-4.19-2.74-81.19-51.44-107.91-61.82-.83,5.85-4.25,18.62-15.57,33.11,50.83,53.48,101.58,72.12,108.56,238.5,10.44,58.46,14.94,198.3,28,272.22C794.87,1079.81,829,1188.39,831.66,1251.67Z" fill="#262521"/><path d="M494.48,528.13l0,0S494.49,528.1,494.48,528.13Z" fill="#262521"/><path d="M410.64,807.59s5.34,199.1,3.82,238.13c-.83,21.49-23.46,140.26-11.15,167.44.05,13-2.35,59.86-2.35,59.86s88.48,20.67,165.47,19.75c137.53-1.66,242.89-30.38,242.89-30.38s-3.23-43.82-4-57.41c14.49-25-21.06-160.16-22.86-230.12-1.22-47.58-16.1-167.27-16.1-167.27" fill="#302f2d" stroke="#262521" stroke-linecap="round" stroke-linejoin="round" stroke-width="3"/><path d="M401,1273s88.48,20.67,165.47,19.75c137.53-1.66,242.89-30.38,242.89-30.38" fill="none" stroke="#636363" stroke-linecap="round" stroke-linejoin="round"/><path d="M836,1219s30.63-3.83,52.37,0" fill="none" stroke="#636363" stroke-linecap="round" stroke-linejoin="round"/><path d="M325.25,1236.47s30.64-3.84,52.37,0" fill="none" stroke="#636363" stroke-linecap="round" stroke-linejoin="round"/><path d="M411.17,1219s168.07,32.86,378.14-4.33" fill="none" stroke="#636363" stroke-linecap="round" stroke-linejoin="round"/><path d="M477.93,546.4s21.5,56.91,100.81,56.91,94.26-62,94.26-62" fill="none" stroke="#636363" stroke-linecap="round" stroke-linejoin="round"/><rect x="685.91" y="1083.83" width="92.38" height="21.43" transform="matrix(0.99, -0.11, 0.11, 0.99, -113.88, 85.42)" fill="#262521"/><line x1="684.19" y1="1088.97" x2="776.86" y2="1078.91" fill="none" stroke="#636363" stroke-linecap="round" stroke-linejoin="round" stroke-width="2"/><line x1="779.17" y1="1100.21" x2="686.5" y2="1110.28" fill="none" stroke="#636363" stroke-linecap="round" stroke-linejoin="round" stroke-width="2"/><rect x="692.52" y="1113.05" width="92.38" height="84.86" transform="translate(-120.41 86.49) rotate(-6.2)" fill="#262521"/><line x1="688.52" y1="1121.11" x2="780.36" y2="1111.14" fill="none" stroke="#494847" stroke-linecap="round" stroke-linejoin="round" stroke-width="2"/><line x1="697" y1="1199.21" x2="788.84" y2="1189.24" fill="none" stroke="#494847" stroke-linecap="round" stroke-linejoin="round" stroke-width="2"/><line x1="734.44" y1="1116.12" x2="786.52" y2="1189.49" fill="none" stroke="#494847" stroke-linecap="round" stroke-linejoin="round"/><line x1="778.04" y1="1111.39" x2="742.92" y2="1194.23" fill="none" stroke="#494847" stroke-linecap="round" stroke-linejoin="round" stroke-width="1.78"/><line x1="690.84" y1="1120.86" x2="742.92" y2="1194.23" fill="none" stroke="#494847" stroke-linecap="round" stroke-linejoin="round"/><line x1="734.44" y1="1116.12" x2="699.32" y2="1198.96" fill="none" stroke="#494847" stroke-linecap="round" stroke-linejoin="round"/><path d="M472.63,548.05s-102.2,80.56-109.41,91.64-15.79,59.42-17.72,123c-2.12,69.84,2.89,169,3.74,180.88s-5.86,35.6-5.86,63.18,3.39,97.92,3.39,120.38,1.7,100.43,4.67,116.54,5.08,22.75,5.08,22.75" fill="none" stroke="#636363" stroke-linecap="round" stroke-linejoin="round" stroke-width="1.34" opacity="0.3"/><path d="M476.26,551.83s-100.7,79.57-107.91,90.64-14.79,60.42-16.72,124c-2.12,69.84,2.89,169,3.74,180.88s-5.86,35.6-5.86,63.18,3.39,97.92,3.39,120.38,1.2,98.93,4.17,115,4.09,20.47,4.09,20.47" fill="none" stroke="#636363" stroke-linecap="round" stroke-linejoin="round" stroke-width="1.34" opacity="0.3"/><path d="M479.31,556.23s-98.55,77.09-105.76,88.16-13.95,62.9-15.87,126.43c-2.12,69.85,2.45,164.91,3.29,176.84s-5.42,40.07-5.42,67.64,3.7,96.52,3.7,119-1,94.11,2,110.21,4.05,21.39,4.05,21.39" fill="none" stroke="#636363" stroke-linecap="round" stroke-linejoin="round" stroke-width="1.34" opacity="0.3"/><path d="M482.28,560.86s-96.14,75.35-103.35,86.42-13.35,64.64-15.28,128.18c-2.12,69.84,2.3,159.88,3.15,171.81s-5.72,45.38-5.72,73,4.19,95.4,4.19,117.86-2.95,88.5,0,104.6,3.18,23.19,3.18,23.19" fill="none" stroke="#636363" stroke-linecap="round" stroke-linejoin="round" stroke-width="1.34" opacity="0.3"/><path d="M485.83,564.93s-92.45,70.81-100.6,86.36S372.35,716.41,370.42,780c-2.12,69.84,2.45,149,2.45,169.7s-5.64,47.17-5.64,74.74,4.59,95.31,4.59,117.77-4.19,76.44-3.15,92.78a269.62,269.62,0,0,0,3.9,30.44" fill="none" stroke="#636363" stroke-linecap="round" stroke-linejoin="round" stroke-width="1.34" opacity="0.3"/><path d="M489,569.34s-88.94,69.43-97.09,85-12.86,65.5-14.79,129c-2.12,69.85,2,149.74,2,170.43s-5.18,48.21-5.18,75.79,4.25,93.82,4.25,116.28-3.76,62.78-4.25,79.9,3.27,39.62,3.27,39.62" fill="none" stroke="#636363" stroke-linecap="round" stroke-linejoin="round" stroke-width="1.34" opacity="0.3"/><path d="M492.38,572.29s-44.68,44.15-72.32,97.51c-6.82,13.16-8.36,26.6-10.39,41.79" fill="none" stroke="#636363" stroke-linecap="round" stroke-linejoin="round" stroke-width="1.34" opacity="0.3"/><path d="M471.76,588s-49,56.29-59.87,78.24S398.34,800.8,398.34,800.8s-.46,37.63,0,58.55,4.54,86.39,3.66,107.8-5.53,40.29-5.24,63.16,1.75,69.9,1.75,69.9" fill="none" stroke="#636363" stroke-linecap="round" stroke-linejoin="round" stroke-width="1.34" opacity="0.3"/><path d="M450.32,605.31s-39.82,45-46.24,59.14-11.68,56.29-11.68,71.72-3.17,85.07-2,114,3.16,72.78,3.16,97.63-5.81,62.06-5.23,86.75,4.23,89.66,4.23,89.66" fill="none" stroke="#636363" stroke-linecap="round" stroke-linejoin="round" stroke-width="1.34" opacity="0.3"/><path d="M429.11,623s-28,28.11-32.06,37.75-8,39.83-9.23,59.1-3.87,67.53-4.74,89.66c0,0,1.17,90.82,2,115.57s1.16,46.28,0,54.43-4.66,34.64-4.08,55.9,6.61,96.79,4.95,114.26-5.68,84-5.95,89,2.75,27.24,2.75,27.24" fill="none" stroke="#636363" stroke-linecap="round" stroke-linejoin="round" stroke-width="1.34" opacity="0.3"/><path d="M405.79,808.82s1.53,46.46,2.22,85,1.31,55.11.42,73.32-5.56,62.34-5.12,77,1.26,37.26,1.26,37.26" fill="none" stroke="#636363" stroke-linecap="round" stroke-linejoin="round" stroke-width="1.34" opacity="0.3"/><path d="M410.64,995s-.1,27.19,0,36.16-1.77,36.62-1.77,36.62" fill="none" stroke="#636363" stroke-linecap="round" stroke-linejoin="round" stroke-width="1.34" opacity="0.3"/><path d="M678.61,542.12s94.39,53,102.93,63.08S803.08,679.91,813,742.7c10.89,69,11.53,162.08,12.19,174s8,35.19,14.76,61.93c7,27.68,13.27,102.22,16.09,124.5s10.91,105.29,11,117.27-1.18,27.21-1.18,27.21" fill="none" stroke="#636363" stroke-linecap="round" stroke-linejoin="round" stroke-width="1.34" opacity="0.3"/><path d="M675.49,546.33s92.77,52.19,101.31,62.27,20.68,75.83,30.59,138.62c10.89,69,11.52,162.08,12.18,174s9.11,35,14.77,61.94c5.89,28.13,13.26,102.21,16.09,124.49s13.19,99.37,12.28,115.72-1.48,24.33-1.48,24.33" fill="none" stroke="#636363" stroke-linecap="round" stroke-linejoin="round" stroke-width="1.34" opacity="0.3"/><path d="M673,551.07s90.32,50,98.86,60.09,20.15,78.4,30.06,141.19c10.9,69,11.46,158,12.12,169.94s9.19,39.44,14.89,66.42c5.85,27.74,12.78,100.86,15.61,123.14s14.77,94.31,13.86,110.66-.83,25.73-.83,25.73" fill="none" stroke="#636363" stroke-linecap="round" stroke-linejoin="round" stroke-width="1.34" opacity="0.3"/><path d="M670.65,556s87.72,48.58,96.26,58.67,19.78,80.2,29.69,143c10.89,69,11,153,11.63,164.94s11.1,44.49,15.86,71.66c4.89,28,12.16,99.8,15,122.09s14.54,88.47,14.58,104.85c.05,17.45-.24,26.4-.24,26.4" fill="none" stroke="#636363" stroke-linecap="round" stroke-linejoin="round" stroke-width="1.34" opacity="0.3"/><path d="M667.64,560.53s83.49,44.54,93.53,58.94S780.54,700.21,790.45,763c10.89,69,9.46,142.24,12.06,162.76s12.52,46.09,16,73.44,11.76,99.77,14.59,122,14.94,80.52,16,96.86a289.56,289.56,0,0,1,.23,29.55" fill="none" stroke="#636363" stroke-linecap="round" stroke-linejoin="round" stroke-width="1.34" opacity="0.3"/><path d="M665.09,565.3s79.82,43.62,89.86,58,19.4,81.12,29.31,143.91c10.89,69,10,142.89,12.63,163.41s13.21,47.18,16.68,74.54,11.9,98.25,14.73,120.54,11.56,62.88,14.21,79.8,2.73,42.72,2.73,42.72" fill="none" stroke="#636363" stroke-linecap="round" stroke-linejoin="round" stroke-width="1.34" opacity="0.3"/><path d="M662.68,568.89S732,609.8,748,628.38c13.68,15.94,28,139.85,28,139.85s6.48,48.4,8.65,69.21,4.63,90.42,8.19,111.55,13.06,39.28,15.65,62,13.51,102.73,18.43,138.36,16.28,65.05,14.65,98.38" fill="none" stroke="#636363" stroke-linecap="round" stroke-linejoin="round" stroke-width="1.34" opacity="0.3"/><path d="M678.61,585.21s58.89,39.41,63,46.37,14.74,42.07,21.29,87,14.33,102.05,16.79,126.9,2.46,72.91,4.91,92.49,16,60.26,20.07,89.05,15.82,121.17,19.16,139.58,11.24,40.64,12,55.06,1.23,26,1.23,26" fill="none" stroke="#636363" stroke-linecap="round" stroke-linejoin="round" stroke-width="1.34" opacity="0.3"/><path d="M708.32,613.61s21.79,14,28.72,28.84,15.13,48.45,15.13,48.45" fill="none" stroke="#636363" stroke-linecap="round" stroke-linejoin="round" stroke-width="1.34" opacity="0.3"/><path d="M785.15,966.82s13.94,55.14,13.94,66.68S814,1133.31,814,1133.31" fill="none" stroke="#636363" stroke-linecap="round" stroke-linejoin="round" stroke-width="1.34" opacity="0.3"/><path d="M786.52,991.25s9.18,71.4,11.52,83.62,4.9,25.34,4.9,25.34" fill="none" stroke="#636363" stroke-linecap="round" stroke-linejoin="round" stroke-width="1.34" opacity="0.3"/><path d="M335.29,1248s-18.05-15.58-21.07-34.41" fill="none" stroke="#636363" stroke-linecap="round" stroke-linejoin="round" stroke-width="3.56"/><path d="M325,1225.17s-10.74,9.59-7.79,19.36" fill="none" stroke="#636363" stroke-linecap="round" stroke-linejoin="round" stroke-width="3.56"/><path d="M331.25,1203.39s-21.57-24.88-17-38.05" fill="none" stroke="#636363" stroke-linecap="round" stroke-linejoin="round" stroke-width="3.56"/><path d="M313.83,1195.8s-1-11.47,8.43-15.65" fill="none" stroke="#636363" stroke-linecap="round" stroke-linejoin="round" stroke-width="3.56"/><path d="M329.09,1156.49s-19.44-18-15.41-36.46" fill="none" stroke="#636363" stroke-linecap="round" stroke-linejoin="round" stroke-width="3.56"/><path d="M313.13,1148.76s1.45-8.79,7.48-14.48" fill="none" stroke="#636363" stroke-linecap="round" stroke-linejoin="round" stroke-width="3.56"/><path d="M326.88,1112.65s-15.78-17.88-15-36.51" fill="none" stroke="#636363" stroke-linecap="round" stroke-linejoin="round" stroke-width="3.56"/><path d="M313.8,1107.93s0-15.75,5.55-19.89" fill="none" stroke="#636363" stroke-linecap="round" stroke-linejoin="round" stroke-width="3.56"/><path d="M325.38,1067.74s-17.65-11-15.44-35.31" fill="none" stroke="#636363" stroke-linecap="round" stroke-linejoin="round" stroke-width="3.56"/><path d="M311.83,1063s-2.71-12.24,3-21" fill="none" stroke="#636363" stroke-linecap="round" stroke-linejoin="round" stroke-width="3.56"/><path d="M323.38,1024.52s-19.49-16.66-11.55-39.16" fill="none" stroke="#636363" stroke-linecap="round" stroke-linejoin="round" stroke-width="3.56"/><path d="M309.93,1018.46s.28-14.51,4.9-24.83" fill="none" stroke="#636363" stroke-linecap="round" stroke-linejoin="round" stroke-width="3.56"/><path d="M324.88,977.31s-19.39-12.9-10.05-34.89" fill="none" stroke="#636363" stroke-linecap="round" stroke-linejoin="round" stroke-width="3.56"/><path d="M313,972.59s-7.49-11.13,3.25-20.26" fill="none" stroke="#636363" stroke-linecap="round" stroke-linejoin="round" stroke-width="3.56"/><path d="M327,926.81s-19.44-12.32-14-35.6" fill="none" stroke="#636363" stroke-linecap="round" stroke-linejoin="round" stroke-width="3.56"/><path d="M314.83,924.31s-7.95-7-2.54-24.72" fill="none" stroke="#636363" stroke-linecap="round" stroke-linejoin="round" stroke-width="3.56"/><path d="M324.82,880s-21.69-11-12.2-40.79" fill="none" stroke="#636363" stroke-linecap="round" stroke-linejoin="round" stroke-width="3.56"/><path d="M312.62,878.79s-4.05-16,0-26.9" fill="none" stroke="#636363" stroke-linecap="round" stroke-linejoin="round" stroke-width="3.56"/><path d="M323.48,831.84s-16.2-17.45-11.76-39.7" fill="none" stroke="#636363" stroke-linecap="round" stroke-linejoin="round" stroke-width="3.56"/><path d="M312.62,825.51s-8.71-21.47,0-26.64" fill="none" stroke="#636363" stroke-linecap="round" stroke-linejoin="round" stroke-width="3.56"/><path d="M323.16,785.68S304,769,313.56,742.8" fill="none" stroke="#636363" stroke-linecap="round" stroke-linejoin="round" stroke-width="3.56"/><path d="M312,782.05s-7.35-15.77.58-26.64" fill="none" stroke="#636363" stroke-linecap="round" stroke-linejoin="round" stroke-width="3.56"/><path d="M324.66,738.08s-21.39-30.33-7.45-42.45" fill="none" stroke="#636363" stroke-linecap="round" stroke-linejoin="round" stroke-width="3.56"/><path d="M314.6,728s-6.53-16.3,2.42-22.77" fill="none" stroke="#636363" stroke-linecap="round" stroke-linejoin="round" stroke-width="3.56"/><path d="M327.89,690.9s-12.45-11.72-3.23-34.81" fill="none" stroke="#636363" stroke-linecap="round" stroke-linejoin="round" stroke-width="3.56"/><path d="M335,649.28s-10.53-24.49,7.31-30.18" fill="none" stroke="#636363" stroke-linecap="round" stroke-linejoin="round" stroke-width="3.56"/><path d="M326.5,644.56s-4.2-16.87,10.57-18.84" fill="none" stroke="#636363" stroke-linecap="round" stroke-linejoin="round" stroke-width="3.56"/><path d="M318.58,687.33s-5.68-18.94,4.58-25.83" fill="none" stroke="#636363" stroke-linecap="round" stroke-linejoin="round" stroke-width="3.56"/><path d="M353.55,621s-3.88-14.21,16.21-17.69" fill="none" stroke="#636363" stroke-linecap="round" stroke-linejoin="round" stroke-width="3.56"/><path d="M348.83,615.22s-1.4-7.89,12.67-7.7" fill="none" stroke="#636363" stroke-linecap="round" stroke-linejoin="round" stroke-width="3.56"/><path d="M383.57,599.76s3.27-15.89,19.23-17.39" fill="none" stroke="#636363" stroke-linecap="round" stroke-linejoin="round" stroke-width="3.56"/><path d="M378,598.32s2.63-9.85,16.14-10.37" fill="none" stroke="#636363" stroke-linecap="round" stroke-linejoin="round" stroke-width="3.56"/><path d="M414.73,577.73s3.64-12.78,18.66-12.8" fill="none" stroke="#636363" stroke-linecap="round" stroke-linejoin="round" stroke-width="3.56"/><path d="M882.65,1234.08s13.67-19.54,12-38.54" fill="none" stroke="#636363" stroke-linecap="round" stroke-linejoin="round" stroke-width="3.56"/><path d="M889.29,1208s10.72,9.61,7.76,19.37" fill="none" stroke="#636363" stroke-linecap="round" stroke-linejoin="round" stroke-width="3.56"/><path d="M881.46,1189.8s15-29.3,7.48-41" fill="none" stroke="#636363" stroke-linecap="round" stroke-linejoin="round" stroke-width="3.56"/><path d="M892.68,1179s-1-11.47-11.07-13.9" fill="none" stroke="#636363" stroke-linecap="round" stroke-linejoin="round" stroke-width="3.56"/><path d="M876.92,1141.41s16.56-19.25,7.5-38.23" fill="none" stroke="#636363" stroke-linecap="round" stroke-linejoin="round" stroke-width="3.56"/><path d="M888.3,1137.09s-.88-8.86-6.54-14.93" fill="none" stroke="#636363" stroke-linecap="round" stroke-linejoin="round" stroke-width="3.56"/><path d="M870.81,1100.27s15.66-19,10-38" fill="none" stroke="#636363" stroke-linecap="round" stroke-linejoin="round" stroke-width="3.56"/><path d="M883,1091.34s-2.75-15.5-9-18.59" fill="none" stroke="#636363" stroke-linecap="round" stroke-linejoin="round" stroke-width="3.56"/><path d="M865.86,1055.63s19.17-13.63,8.93-37.49" fill="none" stroke="#636363" stroke-linecap="round" stroke-linejoin="round" stroke-width="3.56"/><path d="M879.61,1047.53s-.87-12.51-8.85-19.29" fill="none" stroke="#636363" stroke-linecap="round" stroke-linejoin="round" stroke-width="3.56"/><path d="M862.42,1012s17.72-18.53,7.56-40.13" fill="none" stroke="#636363" stroke-linecap="round" stroke-linejoin="round" stroke-width="3.56"/><path d="M875.38,1008.88s-2.85-14.23-9.23-23.56" fill="none" stroke="#636363" stroke-linecap="round" stroke-linejoin="round" stroke-width="3.56"/><path d="M854.81,971.62s18.67-16.14,5.58-36.12" fill="none" stroke="#636363" stroke-linecap="round" stroke-linejoin="round" stroke-width="3.56"/><path d="M867.81,962.55s2.63-13.16-10.81-17.45" fill="none" stroke="#636363" stroke-linecap="round" stroke-linejoin="round" stroke-width="3.56"/><path d="M844.38,926s19.85-14.94,10.34-36.88" fill="none" stroke="#636363" stroke-linecap="round" stroke-linejoin="round" stroke-width="3.56"/><path d="M856.72,921.8s6.59-8.32-1.88-24.78" fill="none" stroke="#636363" stroke-linecap="round" stroke-linejoin="round" stroke-width="3.56"/><path d="M839.7,878.8s19-10.39,11.14-40.61" fill="none" stroke="#636363" stroke-linecap="round" stroke-linejoin="round" stroke-width="3.56"/><path d="M854.58,877.45s1.14-16.5-4.77-26.48" fill="none" stroke="#636363" stroke-linecap="round" stroke-linejoin="round" stroke-width="3.56"/><path d="M837.44,829.63s18.34-17.54,10-38.65" fill="none" stroke="#636363" stroke-linecap="round" stroke-linejoin="round" stroke-width="3.56"/><path d="M850,827.37s2.15-23.06-7.68-25.51" fill="none" stroke="#636363" stroke-linecap="round" stroke-linejoin="round" stroke-width="3.56"/><path d="M835.11,781.72s19.25-16.34,6.56-37.47" fill="none" stroke="#636363" stroke-linecap="round" stroke-linejoin="round" stroke-width="3.56"/><path d="M845.21,779.38s6.25-16.24-2.4-26.54" fill="none" stroke="#636363" stroke-linecap="round" stroke-linejoin="round" stroke-width="3.56"/><path d="M829.75,729.27s19-27.52,5.89-36.94" fill="none" stroke="#636363" stroke-linecap="round" stroke-linejoin="round" stroke-width="3.56"/><path d="M841.09,727.69s5.21-16.76-4.23-22.5" fill="none" stroke="#636363" stroke-linecap="round" stroke-linejoin="round" stroke-width="3.56"/><path d="M825.75,676.77s9-10.1.84-33.58" fill="none" stroke="#636363" stroke-linecap="round" stroke-linejoin="round" stroke-width="3.56"/><path d="M818.48,631.81s10.16-28.22-4.81-30.63" fill="none" stroke="#636363" stroke-linecap="round" stroke-linejoin="round" stroke-width="3.56"/><path d="M824.1,630.65s8.36-15.24-5.41-20.91" fill="none" stroke="#636363" stroke-linecap="round" stroke-linejoin="round" stroke-width="3.56"/><path d="M833.32,679.88s6-18.85-4.19-25.9" fill="none" stroke="#636363" stroke-linecap="round" stroke-linejoin="round" stroke-width="3.56"/><path d="M800.17,590s1.3-14.67-19.08-14.54" fill="none" stroke="#636363" stroke-linecap="round" stroke-linejoin="round" stroke-width="3.56"/><path d="M802.28,584.89s.83-8-13.19-6.77" fill="none" stroke="#636363" stroke-linecap="round" stroke-linejoin="round" stroke-width="3.56"/><path d="M762.71,573.13s-6.12-15-22.08-13.59" fill="none" stroke="#636363" stroke-linecap="round" stroke-linejoin="round" stroke-width="3.56"/><path d="M767.46,570.23s-4.33-9.24-17.73-7.35" fill="none" stroke="#636363" stroke-linecap="round" stroke-linejoin="round" stroke-width="3.56"/><path d="M728.24,556.38s-5.85-11.92-20.63-9.28" fill="none" stroke="#636363" stroke-linecap="round" stroke-linejoin="round" stroke-width="3.56"/></svg>