<svg xmlns="http://www.w3.org/2000/svg" width="1250" height="1550" viewBox="0 0 1250 1550"><title>s05e14-03</title><path d="M600.47,1566.4l7.47-165.84,25.52-8.67,25.66,174.51H819.66L801,1248.11s-50.94,31.68-192.84,36.18-203.69-19.79-203.69-19.79l37,301.9Z" fill="#fff" stroke="#262521" stroke-linecap="round" stroke-linejoin="round" stroke-width="3"/><path d="M877.22,1043c-3.84-55.87-22.89-124.63-22.89-124.63s-14.58-307-52.88-331.94c-10.88-7.11-142.79-55.71-142.79-55.71S634.37,581.85,577,581.85s-82.75-35.87-86.87-48c-.7-2.08-.77-2-.75-2.09-1,.64-100.94,62.19-145.44,89C299.18,647.69,317.24,945,317.24,945a619.73,619.73,0,0,0-3.6,128.12c5.52,68.42-1.88,179.2,14.45,197.93l61-1.5s-5.61-14.34-4.66-27c2.28-30.22,5.54-104.26,15.36-135.21S421.2,1019,421.2,1019c.49,23.68.3,42.22-1,50.32-3.6,21.92-31.66,102.79-17.78,133.07-3.34,29.29-5.7,66.94-5.7,66.94s101,22.75,178,21.82c137.52-1.66,234.85-32.7,234.85-32.7s-2.28-35.71-5.33-60.53c9.94-22.61-4.2-83.51-17.91-143,17.07,47.16,40.24,126.63,42.46,162.32,1.63,26.39,2.88,34.36,2.88,34.36h58.1s4.49-6.66,5.3-18.88S882.79,1124.26,877.22,1043Z" fill="#262521" stroke="#262521" stroke-linecap="round" stroke-linejoin="round" stroke-width="3"/><path d="M836,1219s30.63-3.83,52.37,0" fill="none" stroke="#636363" stroke-linecap="round" stroke-linejoin="round"/><path d="M325.25,1236.47s30.64-3.84,52.37,0" fill="none" stroke="#636363" stroke-linecap="round" stroke-linejoin="round"/><path d="M411.17,1219s165.59,49.16,378.14-4.33" fill="none" stroke="#636363" stroke-linecap="round" stroke-linejoin="round"/><path d="M733.23,761.14l-5.43-7.57-2.63-.32V750h-2.46v-4.11l-2.3-4.44H718.6l2.46-2.79v-5.26H718.6l-.17-6.09-5.92-3.78v-2.13l-7.56-1-.33-2.14h-6.08l.17-1.8H701l6.24-5.76.17-9.37-1.64-2.13h-7.24v3.12l-3-1-1.48,2.47-5.26,3.94.33,10h-4.76l-1.48,2.8-3.62-.33,5.1-6.09h2.3v-7.56l4.44-5.42V690.29h-2.8l-.16,3.94h-3.78L681,697.69l-2.79-1.48v-2h-4.44l-.33-2h-4.93v-2H658.27v2l-4.6-.16-2.47,1.64h-2.63l-4.6,2.47-.16,3.12,1.8-.16V703l6.58,3.45-.49,2.3-7.24-3.12h-3l-.16-1.81-5.75.16-.17,2-6.24-.5,1.48,3.13h3v3.12H621.45v3.94l4.93,3,.33,2.47,7.23.16v1.65l11.51,2-13.64,1-.17-1.81H625.4v3.28h-3.79v2.31l-4.43.65-.5,3.13h-3.12l.17,3.61-2.31.33v3.29h-1.64v3.29h2v2.46h-2.3v3.45L608,750v4.11l2.14,1v2.8L605.34,760h-4.27v2.79h-7.73v2.14h-5.59l-2,1.8.82,1.48v8.55h2.14v4.11l1.81,3,4.6,3.62h6.9l2.14,3.94h3.45l-.16-3.62,2.63-.16V785l4.11.33,1.81-4.11,7.89.16v-3.28h-1.81v-3h-1.48V772h-1.48v-2.3l-3.45-1.31-1.81-2v-2.31h1.81l3.29.33,4.93,7.4,1.64-.16v-4.11l2.63-2,2-.16v2.47l3.62,2.79,1.81-1.15V772l2.46,1.48-2.13,1.48,2.13,3.46v3.94l3,.16,1.32,4.11v2.63H640v3h-2.47l.82,6.58h2.47v3.61h1.48v6.25l2.63,1,4.75-4v-3.29l4.12-.32v-7.24l1.48-.16V781.85l-1.64-2.06v-3l1.64-.16,2.14,4.6,1.48.82v7.73l-1.65,1.31v5.76l-2,.65.17,5.59,3.45,4.77v4.44l5.92,1v-2.3l2.3-.16v-2.63l2-.66V798l-1.48-1.81V792.2l-1.64-.33v-3.45l-3.62-1v-10h-2.3l-.17-5.75,1.65-2.14.49,4.11h2.47v2.63h1.64v-2.14l3-2.79,6.08.16v2h-3v2H668.3v2.13l-1.65.66v7.56l1.32,4.28,1.81-.33-.17,3h1.65l.49,8.71h3.45v2.79l3.12-.33v1.81h3.46v2h8.71V806l11.18,2.14,5.26-.17v-2.3l3.12-.16V797.3l2.46-3.95V786L711,780.2l3.94,3.62v3.62l3.45,1,2,10,2.13-.49,1.32-11.18,1.48-2V778.4l-1.48-2.14,2.63-1.81-2.3-1.64v-3.95l-2.63-2.14v-2.46l-2.8-.33V762.1h-2.14v-2.44l1.65-.33,8.22,7.56,4.44.33,1.47,6.57,1.81-.16Zm-131.74,13H603V770h.79L604,768h2.06v6.44H604L603,777h-1.49Zm13,.93v2.43H612v2.33l-2.89,1.86h-1.4v1.49h-4.1v1.22h-3L596.54,782v-2h1.78v-2.7h1.95v3.82h4.2v-1.3h3.45V777.1h1.21V768h1V771h1.58v4Zm8.58-14.36h-4.2v-2.33l-4.38-2.05v-4.95H616v-3.63h2.24v-3.27h1.21v12.13l3.64,2.61Zm83.3-19.47h1.72l1.5-1.94v-1.5h-1.5V736h2.14v1.93h.93v1.71L709.07,742h-2.65Zm-5.37-11.55v-2.86h2.24v2.36h3v1.49h-7v3.42l-2.12,2.43v4.1l2.86,3h4.36l3.73.87v2h-9.58l-1.37-.87v-2h-4l-1.75-3.1V739H693V733.4h1.74v-3.73Zm-8.83,34.07v-2.12l3.08.78,1.89,1.9V767H695v-3.23Zm0-50.61,2.49-4.72h3l3.92-4.85h1.62v1.74l-4.36,5v2.86l-2.73,1.74h-2.61v3h-1.37Zm-7.71,8.46h3.36v-1.25h3v1.25H695l-.87,3-5.1-1.11h-4.48Zm-3,3V730l-2.86.75v3.29h-1.62v-3.67l-1.49-.87v-3.73h1.49v1.37h2.24v-2.62h-1.37v-2.11l1.14-1.53ZM660,709.65h4.62l1.24-1.37v-8.83l1.74-.12v8.08l1.62,1.37,3.48-2.24v-7.83h1.87l2.48,2.49v5.34h-1.61v3.11h-4.36v2.24H660Zm-2.84,14.91,2.84-2,2.39,1v4.67h-1.5v-2.56h-3.73Zm-30.5,22.8v-2.9h3.55v2.9Zm6.25,6.34v-1.93h-2.7v-3.2l4.47,0v2.55h2.24l2.52-2.52.84,1.3h1.21v-2h1.21V742.6h-1.39v-2.52H639l-3.12-2.61h6.34l4.38,4.57v4.1l1.21,1.22v2.14h-1.77l-1.12,2.27h-3v1.93Zm15.67,35.65h-1.37v5.22h-1.37v6.59l-2.73-5.84v-1.49h1.24v-4.11h1.49v-5.34l-2.73-6.22v-2h-1.62v-3.68h4.23l2.86,3.68Zm0-67.76H639l-3.12-1.37v-2.49h10.57v-4.85l-2.24-2.48,2-.75,3.49,2.86h4.09l2.74,4.1v1.25h-2l-2.24-3.24h-2.6v3.49h2.6v1.36h-2.6Zm12.3,71.73V790h1.51v3.28l1.27.12,3.27,5.67v3.4l-1.13.13v-1.48l-1.18-1.92H660l.69,4.16,1.7,1.26h-2.45l-1-3.5v-7.84Zm3.74-49.73h-3.86v-5h-2.61v-3.48H657V732.4h-2.11v-2.11h-5.21v-5.72c4.25-.24,8.82,4.73,8.82,4.73v1.86H661V735h1.74v4.11h1.87Zm-4.84-24.12V718l3.22-.25v-1.37h14v-1.49h1.62v1.87l-10.15,2.73Zm15.78,41.9h-1.24v3.73H672.2l-3,1.25-1.49-1.25,3.29-1.74v-2.67h1.8v-3.17l-2.36-4.94h-1.24v-1.77h2.42l1.68,4.1h2.24Zm-3.85-12.18v-9.08H670v-3.23h-2.23v-3.36H670v-4h1.25v-3.35h-1.37l.12-3.74h2.74v11.63h2.86v3.39l1.49,1.52v6.92l2.61,2.78v3.08h1.87v1.93h2v1.58h2.86v4.23h1.49v4.1H686v1.49h-2.86v-2.23h-2.23v-3.61h-2V753.7l-3.36-4.51Zm29.12,43.44h-4.05v1.58l-4,1.18-2.47-2v-3.06l-2.4-2.27H686v-1.27h-2.47v-2.48h-1.48v-3.65h-2.46v-2.17H677.8V776h1.52v-2.47l3.26-3.16h3.94v-1h4.27v.89h5.8v-.89h3.22v1.83l2.11,1.83v6.21h1.28l.59,10.66Zm19.63-19v3.75h-1.08v-2.57l-2-1.87h-1.87v2.17l2.17,2.17v4.24h-1.18v-2.07l-3.55-3v-2H710.2v-3.75l-2.66-1.48V767h-3.75V762.1H707l1.87,1.33v-2.57h2.76v2.57l4.54,3.54Zm9.28-9.29h-2.17v-1.47h-3.06v-2.37h-2.27l-2.37-4.73,1.88-.89.19,2.47,2,.2,1.87,2-.2,1.48h2.87l.09,2.17h1.19Z" fill="#fff"/><polygon points="686.62 774.08 689.78 774.08 689.78 773.09 697.77 773.09 697.77 774.67 700.34 776.94 700.34 781.48 701.52 781.48 701.52 785.52 699.05 790.56 695.21 790.56 695.21 789.08 691.48 789.08 689.19 786.82 689.09 784.34 685.24 784.34 685.24 780.59 683.27 780.59 683.27 777.24 686.33 777.24 686.62 774.08" fill="#fff"/><polygon points="601.02 766.97 598.38 766.97 597.5 769.35 594.6 769.35 594.6 771.17 591.95 771.77 591.95 775.17 593.72 775.17 593.72 772.49 595.73 772.49 595.73 775.17 597.5 775.17 597.37 771.17 599.13 768.74 601.02 768.74 601.02 766.97" fill="#a7a7a7"/><polygon points="630.76 757.78 630.76 762.1 632.78 762.1 632.78 764.3 634.92 764.3 634.92 766.97 636.94 766.97 636.94 768.62 640.72 768.62 640.72 770.13 643.12 770.13 643.12 767.96 641.49 767.93 641.49 765.61 638.13 765.61 636.94 763.61 636.94 761.87 640.75 761.62 642.67 760.69 642.67 758.58 646.09 758.58 646.09 757.15 650.01 753.23 649.33 751.77 645.03 756.46 639.02 756.21 639.02 758.58 630.76 757.78" fill="#a7a7a7"/><polygon points="661.16 750.24 661.16 758.02 662.39 762.1 664.27 762.46 664.27 750.24 661.16 750.24" fill="#a7a7a7"/><polygon points="661.16 762.85 658.28 762.85 657.16 766.04 655.71 766.97 654.31 767.44 650.01 767.96 650.26 770.13 656.8 770.13 661.86 764.3 661.16 762.85" fill="#a7a7a7"/><polygon points="642.01 731.01 642.01 733.43 644.27 733.43 644.27 735.68 646.76 735.68 651.51 743.59 653.92 743.59 653.92 742 652.21 742 652.21 737.79 650.01 737.79 650.01 734.08 646.22 734.08 646.22 731.33 642.01 731.01" fill="#a7a7a7"/><polygon points="635.55 727.5 632.52 727.5 631.82 729.54 625.67 729.54 621.7 733.43 619.44 737.47 619.44 740.43 621.15 740.43 621.15 737.3 624.81 737.3 624.81 733.04 627.5 731.01 633.06 730.7 633.06 729.3 634.93 729.3 635.55 727.5" fill="#a7a7a7"/><polygon points="624.5 743 622.32 743 622.32 744.46 625.36 744.46 625.36 743 628.44 743 629.62 741.82 633.61 741.82 633.61 746.97 634.54 746.97 634.54 748.53 635.55 748.53 635.55 746.45 638.36 743.59 635.55 742.77 635.55 739.89 625.05 740.43 624.5 743" fill="#a7a7a7"/><polygon points="631.74 716.23 631.74 718.48 635.55 718.48 635.55 716.77 631.74 716.23" fill="#a7a7a7"/><polygon points="649.33 696.3 649.33 697.78 648.32 699.73 648.32 701.59 650.65 702.37 650.65 704.01 653.22 704.01 653.22 696.92 652.75 695.76 650.77 695.76 649.33 696.3" fill="#a7a7a7"/><polygon points="686.3 697.39 684.51 697.39 683.5 699.03 678.54 699.03 678.54 701.98 679.84 702.84 680.23 709.14 678.67 711.17 678.67 713.66 677.05 713.66 677.05 714.87 680.23 714.87 680.23 711.89 681.68 710 682.1 703.15 683.03 700.97 684.51 698.71 686.3 698.71 686.3 697.39" fill="#a7a7a7"/><polygon points="695.64 720.92 697.75 720.92 697.75 721.59 698.99 721.59 698.99 723.23 694.96 723.23 695.64 720.92" fill="#a7a7a7"/><rect x="687.55" y="728.6" width="2.57" height="1.56" fill="#a7a7a7"/><polygon points="687.55 731.01 684.98 731.01 684.98 741.45 682.57 741.45 682.57 743.24 691.48 753.2 698.37 757.25 699.8 757.25 699.8 754.84 697.75 754.84 686.57 743.66 686.57 741.37 688.48 741.37 688.48 738.18 687.55 738.18 687.55 731.01" fill="#a7a7a7"/><polygon points="703.29 734.08 701.52 734.08 701.52 736 699.8 736 699.8 737.24 701.55 737.24 701.55 739.89 704.83 742 706.42 742 706.42 740.36 703.79 740.36 703.11 738.04 703.79 736.63 703.29 734.08" fill="#a7a7a7"/><polygon points="709.73 725.1 709.73 731.33 712.13 731.33 713 734.08 713 739 715.02 739 715.02 733.74 712.38 728.6 711.21 725.1 709.73 725.1" fill="#a7a7a7"/><polygon points="712.38 750.08 708.82 750.08 708.82 751.77 706.15 751.77 706.15 750.8 704.98 750.8 704.98 751.77 703.5 751.77 703.5 750.8 699.8 750.8 699.8 751.77 706.77 755.77 709.18 756.62 711.44 758.58 712.76 758.58 712.38 750.08" fill="#a7a7a7"/><polygon points="669.25 779.89 669.25 787.44 670.58 788.85 674.78 789.31 674.47 794.76 675.87 794.76 675.87 797.35 676.64 798.12 676.64 800.52 680.7 800.52 680.7 803.4 685.05 803.4 685.05 799.98 679.22 799.98 679.3 798.11 677.8 798.11 677.8 794.29 676.8 794.29 676.73 786.82 671.64 786.82 670.89 785.19 670.27 779.89 669.25 779.89" fill="#a7a7a7"/><polygon points="686.85 791.65 690.19 795.39 690.19 799.04 694.24 799.04 694.24 797.35 696.03 797.35 696.03 795.39 698.91 795.39 698.91 797.35 697.9 797.35 697.9 799.9 694.16 802.39 691.18 802.39 691.18 801.14 687.87 801.14 687.87 795.93 686.22 793.83 686.85 791.65" fill="#a7a7a7"/><polygon points="705.14 775.07 705.14 777.95 706.85 778.49 706.85 785.34 708.79 785.34 708.79 790.04 710.2 790.04 710.2 783.86 708.17 783.86 708.17 778.18 705.14 775.07" fill="#a7a7a7"/><polygon points="705.14 800.75 705.14 803.4 699.45 803.4 699.45 805.66 700.7 806.2 700.62 804.66 707.67 804.66 707.67 799.51 705.14 800.75" fill="#a7a7a7"/><polygon points="689.02 777.72 689.02 779.43 693.23 779.43 693.23 781.48 696.26 781.48 696.26 784.1 693.15 784.1 693.15 786.82 695.64 788.14 696.26 786.28 698.21 786.28 698.21 779.89 696.65 779.89 696.65 776.08 694.16 775.07 691.75 775.07 691.75 776.94 689.02 777.72" fill="#a7a7a7"/></svg>