<svg xmlns="http://www.w3.org/2000/svg" width="1250" height="1550" viewBox="0 0 1250 1550"><title>s05e14-02</title><polygon points="575.64 551.5 519.59 587.21 583.37 612.61 638.94 577.41 575.64 551.5" fill="#fff"/><path d="M497,530.13l0,0S497,530.1,497,530.13Z" fill="#262521" stroke="#262521" stroke-linecap="round" stroke-linejoin="round" stroke-width="3"/><path d="M879.72,1045c-3.84-55.87-22.89-124.63-22.89-124.63s-14.58-307-52.88-331.94c-10.88-7.11-148.63-58.32-148.63-58.32S608.51,596,580.55,596s-78.7-51.13-82.82-63.28a12.42,12.42,0,0,1-.75-2.59c-1,.65-106.06,65.79-150.57,92.61C301.68,649.69,319.74,947,319.74,947a619.73,619.73,0,0,0-3.6,128.12c5.52,68.42-1.88,179.2,14.45,197.93l61-1.5s-5.61-14.34-4.66-27c2.28-30.22,5.54-104.26,15.36-135.21,4.92-15.48,9.79-35.43,13.93-53.64h.07c-21.87,96-7.88,262.6-7.88,262.6s90.73,3.82,167.72,2.9c137.53-1.66,238.54-18.26,238.54-18.26s-6.84-162.07-15.76-216.47h0c15.34,46.59,30.51,103,32.37,132.82,1.63,26.39,2.88,34.36,2.88,34.36h58.1s4.49-6.66,5.3-18.88S885.29,1126.26,879.72,1045Z" fill="#262521" stroke="#262521" stroke-linecap="round" stroke-linejoin="round" stroke-width="3"/><path d="M408.37,1318.32s90.73,3.82,167.72,2.9c137.53-1.66,238.54-18.26,238.54-18.26" fill="none" stroke="#636363" stroke-linecap="round" stroke-linejoin="round"/><path d="M511.93,507.56c-9.76.89-16.24,2.61-18.33,5.58-7.68,10.89-16.72,12.57-16.72,12.57s-19.3,5.48-26.11,10.22c-9.13,6.35-25.57,26.91-20.95,35.37C471.2,575.59,571.1,652,585.39,651.79c8.12-.12,53.71-61.83,95.26-84.57,19.67-10.76,35.74-11.81,37.73-12.43,6.77-2.12-2-4.86-9.3-9.27s-6.69-11.52-9.47-16.86-13.87-2-13.87-2-.45-1.75-13.18-13.56-20.95-10.07-31-9.79l3.76,20.56c8.3,2.91,15.06,9.07,12.58,16.37-3.23,9.52-59.78,86.62-74.16,86.85s-88.64-82.13-90.61-90.35c-1.6-6.7,8.82-5.6,15.86-11.17Z" fill="#262521"/><path d="M511.93,507.56c-9.76.89-16.24,2.61-18.33,5.58-7.68,10.89-16.72,12.57-16.72,12.57s-19.3,5.48-26.11,10.22c-9.13,6.35-25.57,26.91-20.95,35.37C471.2,575.59,571.1,652,585.39,651.79c8.12-.12,53.71-61.83,95.26-84.57,19.67-10.76,35.74-11.81,37.73-12.43,6.77-2.12-2-4.86-9.3-9.27s-6.69-11.52-9.47-16.86-13.87-2-13.87-2-.45-1.75-13.18-13.56-20.95-10.07-31-9.79l3.76,20.56c8.3,2.91,15.06,9.07,12.58,16.37-3.23,9.52-59.78,86.62-74.16,86.85s-88.64-82.13-90.61-90.35c-1.6-6.7,8.47-3.26,15.36-11.17Z" fill="none" stroke="#262521" stroke-linecap="round" stroke-linejoin="round" stroke-width="4.03"/><path d="M429.82,571.3c41.38,4.29,139.59,56,153.88,55.75,8.12-.13,55.4-37.09,96.95-59.83,19.67-10.76,35.74-11.81,37.73-12.43" fill="none" stroke="#636363" stroke-linecap="round" stroke-linejoin="round" stroke-width="1.34" opacity="0.95"/><path d="M613.83,598c4.41,20.8,7.25,41.92,9.77,63,3.2,26.78,5.71,53.65,7.95,80.53,2.38,28.67,4.43,57.37,6.32,86.08q2.65,40.38,5,80.78c1.26,21.45,2.48,42.91,3.88,64.35.14,2.09.27,4.17.41,6.26.26,3.83,6.27,3.86,6,0-1.39-20.66-2.57-41.33-3.78-62q-2.34-39.72-4.83-79.42c-1.86-28.87-3.87-57.73-6.2-86.57-2.2-27.28-4.65-54.53-7.75-81.72-2.53-22.21-5.37-44.44-9.63-66.4q-.63-3.25-1.32-6.49c-.8-3.78-6.58-2.18-5.79,1.59Z" fill="#fff"/><line x1="650.13" y1="975.27" x2="651.6" y2="992.98" fill="none" stroke="#fff" stroke-linecap="round" stroke-linejoin="round" stroke-width="2"/><path d="M539.4,603.2c-1.28,21.91-1.52,43.89-1.52,65.84,0,26.13.47,52.27,1,78.4.61,27.22,1.37,54.44,2.07,81.66.66,25.4,1.28,50.8,1.57,76.21.24,20.59.33,41.21-.46,61.8q-.12,3.15-.28,6.3c-.19,3.86,5.81,3.85,6,0,1-19.83,1-39.72.83-59.58-.21-25.06-.78-50.12-1.41-75.18-.69-27.16-1.46-54.32-2.1-81.48-.62-26.35-1.13-52.7-1.25-79-.09-22.56.05-45.13,1.12-67.66q.16-3.63.38-7.26c.23-3.86-5.77-3.85-6,0Z" fill="#fff"/><line x1="545.1" y1="967.8" x2="543.92" y2="988.2" fill="none" stroke="#fff" stroke-linecap="round" stroke-linejoin="round" stroke-width="2"/><ellipse cx="651.37" cy="552.95" rx="6.38" ry="3.33" transform="translate(-196.17 444.68) rotate(-33.05)" fill="none" opacity="0.95" stroke-linecap="round" stroke-linejoin="round" stroke-width="2" stroke="#7c7c7c"/><ellipse cx="660.96" cy="563.3" rx="6.38" ry="3.2" transform="translate(-200.26 451.58) rotate(-33.05)" fill="none" opacity="0.95" stroke-linecap="round" stroke-linejoin="round" stroke-width="2" stroke="#7c7c7c"/><ellipse cx="670.96" cy="531.54" rx="6.38" ry="5.28" transform="translate(20.89 1088.43) rotate(-78.97)" fill="none" opacity="0.95" stroke-linecap="round" stroke-linejoin="round" stroke-width="2" stroke="#7c7c7c"/><ellipse cx="690.22" cy="546.37" rx="6.38" ry="4.87" transform="translate(-159.55 316.55) rotate(-23.23)" fill="none" opacity="0.95" stroke-linecap="round" stroke-linejoin="round" stroke-width="2" stroke="#7c7c7c"/><ellipse cx="626.77" cy="576.55" rx="6.38" ry="2.59" transform="matrix(0.84, -0.55, 0.55, 0.84, -213.01, 435.07)" fill="none" opacity="0.95" stroke-linecap="round" stroke-linejoin="round" stroke-width="2" stroke="#7c7c7c"/><ellipse cx="635" cy="584.77" rx="6.38" ry="2.25" transform="translate(-216.17 440.89) rotate(-33.05)" fill="none" opacity="0.95" stroke-linecap="round" stroke-linejoin="round" stroke-width="2" stroke="#7c7c7c"/><ellipse cx="534.72" cy="583.37" rx="1.97" ry="6.38" transform="translate(-227.65 795.6) rotate(-63.05)" fill="none" opacity="0.95" stroke-linecap="round" stroke-linejoin="round" stroke-width="2" stroke="#7c7c7c"/><ellipse cx="527.36" cy="591.97" rx="2.13" ry="6.38" transform="translate(-239.34 793.74) rotate(-63.05)" fill="none" opacity="0.95" stroke-linecap="round" stroke-linejoin="round" stroke-width="2" stroke="#7c7c7c"/><ellipse cx="505.39" cy="563.61" rx="3.42" ry="6.38" transform="translate(-226.07 758.65) rotate(-63.05)" fill="none" opacity="0.95" stroke-linecap="round" stroke-linejoin="round" stroke-width="2" stroke="#7c7c7c"/><ellipse cx="496.86" cy="575.11" rx="3.35" ry="6.38" transform="translate(-240.99 757.33) rotate(-63.05)" fill="none" opacity="0.95" stroke-linecap="round" stroke-linejoin="round" stroke-width="2" stroke="#7c7c7c"/><ellipse cx="479.56" cy="542.64" rx="5.55" ry="6.38" transform="translate(-150.47 185.58) rotate(-18.99)" fill="none" opacity="0.95" stroke-linecap="round" stroke-linejoin="round" stroke-width="2" stroke="#7c7c7c"/><ellipse cx="462.13" cy="559.45" rx="5.54" ry="6.38" transform="translate(-231.05 774.03) rotate(-67.64)" fill="none" opacity="0.95" stroke-linecap="round" stroke-linejoin="round" stroke-width="2" stroke="#7c7c7c"/><path d="M627.42,577.17a28.71,28.71,0,0,1,6.72,7.1" fill="none" stroke="#fff" stroke-linecap="round" stroke-linejoin="round" stroke-width="6"/><path d="M651.2,552.93S657,555.6,661,563.34" fill="none" stroke="#fff" stroke-linecap="round" stroke-linejoin="round" stroke-width="6"/><path d="M670,531.32a34.84,34.84,0,0,1,20.46,15.78" fill="none" stroke="#fff" stroke-linecap="round" stroke-linejoin="round" stroke-width="6"/><path d="M533.82,584a28.72,28.72,0,0,0-5.93,7.77" fill="none" stroke="#fff" stroke-linecap="round" stroke-linejoin="round" stroke-width="6"/><path d="M505.43,563.64s-5.52,3.28-8.62,11.39" fill="none" stroke="#fff" stroke-linecap="round" stroke-linejoin="round" stroke-width="6"/><path d="M480.14,542.39s-11.11.92-18.67,17.86" fill="none" stroke="#fff" stroke-linecap="round" stroke-linejoin="round" stroke-width="6"/><circle cx="556.69" cy="677.95" r="6.38" fill="none" stroke="#7c7c7c" stroke-linecap="round" stroke-linejoin="round" stroke-width="2" opacity="0.95"/><circle cx="610.35" cy="675.09" r="6.38" fill="none" stroke="#7c7c7c" stroke-linecap="round" stroke-linejoin="round" stroke-width="2" opacity="0.95"/><path d="M556.69,678s32-7.28,53.66-2.86" fill="none" stroke="#fff" stroke-linecap="round" stroke-linejoin="round" stroke-width="6"/><circle cx="559.72" cy="734.87" r="6.38" fill="none" stroke="#7c7c7c" stroke-linecap="round" stroke-linejoin="round" stroke-width="2" opacity="0.95"/><circle cx="613.38" cy="732.01" r="6.38" fill="none" stroke="#7c7c7c" stroke-linecap="round" stroke-linejoin="round" stroke-width="2" opacity="0.95"/><path d="M559.72,734.87s32-7.28,53.66-2.86" fill="none" stroke="#fff" stroke-linecap="round" stroke-linejoin="round" stroke-width="6"/><circle cx="562.61" cy="789.07" r="6.38" fill="none" stroke="#7c7c7c" stroke-linecap="round" stroke-linejoin="round" stroke-width="2" opacity="0.95"/><circle cx="616.26" cy="786.21" r="6.38" fill="none" stroke="#7c7c7c" stroke-linecap="round" stroke-linejoin="round" stroke-width="2" opacity="0.95"/><path d="M562.61,789.07s32-7.27,53.65-2.86" fill="none" stroke="#fff" stroke-linecap="round" stroke-linejoin="round" stroke-width="6"/><circle cx="565.48" cy="842.95" r="6.38" fill="none" stroke="#7c7c7c" stroke-linecap="round" stroke-linejoin="round" stroke-width="2" opacity="0.95"/><circle cx="619.13" cy="840.09" r="6.38" fill="none" stroke="#7c7c7c" stroke-linecap="round" stroke-linejoin="round" stroke-width="2" opacity="0.95"/><path d="M565.48,843s32-7.27,53.65-2.86" fill="none" stroke="#fff" stroke-linecap="round" stroke-linejoin="round" stroke-width="6"/><circle cx="568.76" cy="904.64" r="6.38" fill="none" stroke="#7c7c7c" stroke-linecap="round" stroke-linejoin="round" stroke-width="2" opacity="0.95"/><circle cx="622.41" cy="901.78" r="6.38" fill="none" stroke="#7c7c7c" stroke-linecap="round" stroke-linejoin="round" stroke-width="2" opacity="0.95"/><path d="M568.76,904.64s32-7.27,53.65-2.86" fill="none" stroke="#fff" stroke-linecap="round" stroke-linejoin="round" stroke-width="6"/><circle cx="572.06" cy="966.59" r="6.38" fill="none" stroke="#7c7c7c" stroke-linecap="round" stroke-linejoin="round" stroke-width="2" opacity="0.95"/><circle cx="625.71" cy="963.73" r="6.38" fill="none" stroke="#7c7c7c" stroke-linecap="round" stroke-linejoin="round" stroke-width="2" opacity="0.95"/><path d="M572.06,966.59s32-7.28,53.65-2.86" fill="none" stroke="#fff" stroke-linecap="round" stroke-linejoin="round" stroke-width="6"/><circle cx="575.35" cy="1028.36" r="6.38" fill="none" stroke="#7c7c7c" stroke-linecap="round" stroke-linejoin="round" stroke-width="2" opacity="0.95"/><circle cx="629" cy="1025.5" r="6.38" fill="none" stroke="#7c7c7c" stroke-linecap="round" stroke-linejoin="round" stroke-width="2" opacity="0.95"/><path d="M575.35,1028.36s32-7.28,53.65-2.86" fill="none" stroke="#fff" stroke-linecap="round" stroke-linejoin="round" stroke-width="6"/><circle cx="578.78" cy="1092.82" r="6.38" fill="none" stroke="#7c7c7c" stroke-linecap="round" stroke-linejoin="round" stroke-width="2" opacity="0.95"/><circle cx="632.43" cy="1089.96" r="6.38" fill="none" stroke="#7c7c7c" stroke-linecap="round" stroke-linejoin="round" stroke-width="2" opacity="0.95"/><path d="M578.78,1092.82s32-7.28,53.65-2.86" fill="none" stroke="#fff" stroke-linecap="round" stroke-linejoin="round" stroke-width="6"/><circle cx="582.21" cy="1157.17" r="6.38" fill="none" stroke="#7c7c7c" stroke-linecap="round" stroke-linejoin="round" stroke-width="2" opacity="0.95"/><circle cx="635.86" cy="1154.31" r="6.38" fill="none" stroke="#7c7c7c" stroke-linecap="round" stroke-linejoin="round" stroke-width="2" opacity="0.95"/><path d="M582.21,1157.17s32-7.27,53.65-2.86" fill="none" stroke="#fff" stroke-linecap="round" stroke-linejoin="round" stroke-width="6"/><circle cx="585.46" cy="1218.23" r="6.38" fill="none" stroke="#7c7c7c" stroke-linecap="round" stroke-linejoin="round" stroke-width="2" opacity="0.95"/><circle cx="639.11" cy="1215.37" r="6.38" fill="none" stroke="#7c7c7c" stroke-linecap="round" stroke-linejoin="round" stroke-width="2" opacity="0.95"/><path d="M585.46,1218.23s32-7.28,53.65-2.86" fill="none" stroke="#fff" stroke-linecap="round" stroke-linejoin="round" stroke-width="6"/></svg>