<svg xmlns="http://www.w3.org/2000/svg" width="1000" height="1550" viewBox="0 0 1000 1550"><path d="M675.53 1223.63l-26.64-647-124.35-50.1s-7.62 55.38-75 58.47-73.42-58.47-73.42-58.47L271.71 617l28.09 396-14.16 268.54s100.86 16.5 214.67 12 180.87-13.77 180.87-13.77z" fill="#fff" stroke="#262521" stroke-linecap="round" stroke-miterlimit="10" stroke-width="3"/><path d="M401.65 767.49c-31.7-167-14-237.52-17.83-248.78-.7-2.07-120.46 75.13-164.91 102C163.63 654.19 192.24 945 192.24 945s-27.68 203.28-2.3 287.31c2.37 15.93 3.05 28 6.43 41.39l64-1.5s-4.07-29.78-3.11-42.45c12.87-27.53 13.71-91.47 23.53-122.42 6-18.8 10.39-47.35 12.94-66.87a165.61 165.61 0 01-1.33 19.91c-3.73 22.74-25 83.8-14.05 144.17-3 26.45 2.81 153.15 2.81 153.15s152.61 54.81 160-122.61c4.7-115.5-8.08-301.98-39.51-467.59zM735.33 912.32s-1.4-298-58.88-331.94c-11.19-6.61-158.61-67.76-158.61-67.76s8.21 105.2-4.85 267.77c-13 162 2.23 251.47 31.16 482.47 13.23 105.59 148.54 78.29 148.54 78.29s-7.61-122-11.51-153.31c3.94-36.14-5.66-81.16-16.45-126.52 13.84 47.61 27 143 37.17 152.17 1.64 26.39 1.89 36.36 1.89 36.36l64.1-1.5s-1-14.31-2.6-35.73c25.62-83.14-29.96-300.3-29.96-300.3z" fill="#262521"/><path d="M680.26 605.66l-2 .08-.09-2.08 4.78-.2-.06-1.24-2.46.11-.1-2.23-1.39.06-.05-1.16-1.46.07.07 1.61-1.62.07-.13-3.15-2.39.1-.12-2.77-5.55.24-.13-2.93-4.77.21.06 1.46h-.92l-.09-1.84-2.61.11-.13-2.85-2 .09.16 3.62-2.55.11-.15-3.62-2.24.1-.09-2-1.31.06-.06-1.39-9.62.42-.07-1.46-7.63.33-.06-1.54-2.85.13.11 2.54-2.85.12V586l-4.24.18-.07-1.69-3.24.14.11 2.46-3.46.15-.06-1.23-3.7.16.1 2.16-3.39.15-.15-3.39 3.54-.16-.09-2.23 1.31-.06.06 1.47 4.72-.21-.11-2.54 3.21-.14.05 1 2-.09v-1l3.77-.16.06 1.23 7.16-.32-.13-3 1.77-.08-.07-1.69-1.39.06-.15-3.39 2.54-.11.13 2.85 2.77-.12.08 1.69-2.24.1.07 1.54h1.08v1.24l1.7-.08-.09-1.92h.85l.08 1.77 1.31-.06.07 1.62 2.54-.11-.11-2.46 3.47-.16-.09-1.92 2.31-.1-.08-1.85 2.93-.13.19 4.39-2.69.12v.85l-1.54.06.06 1.39 2.24-.1-.06-1.38 2.77-.12-.06-1.31 1.54-.07v-.93l1.39-.06-.07-1.69h1.07l.14 3.16-2 .09.09 2.15 2.78-.12-.06-1.38 2.38-.11-.1-2.38 2.23-.1.11 2.46 2.62-.11-.07-1.7h1.08v1.07l1.54-.06.09 1.92 2.46-.1.12 2.77 4.24-.19-.07-1.69 1.84-.08-.06-1.58c-.52-.38-35-16.66-41-19.34l.18 3.1-1.54.07-.07-1.62-4.47.2.1 2.15-1.31.06v.77h-.92v1.23l-1.69.08-.08-1.7-3.39.15.1 2.16-3.32.14.09 1.93-2.08.09.07 1.69-2.77.12.15 3.55-3 .13.08 1.77-2.78.12.06 1.31-3.54.16.07 1.69-2.62.11.18 4.17-3.39.14-.16-3.77 2.31-.1-.13-3.08 3.46-.16-.07-1.69 3.7-.16-.13-2.85 3.47-.15-.15-3.39-2.23.09-.14-3.15 2.62-.12.12 2.78 2.44-.11-.19-4.32 2.64-.11-.13-3.16 2.15-.09v1l2.85-.13-.1-2.15 3.09-.14-.08-1.69-2.54.11v-2.47c-.44-.17-1 .53-1.4.37l-4.1.18.07 1.46-5.09.22-.1-2.38 2.28-.1v-2.89c-.67-.25-11.94-4.51-13.92-5.2v1.45l-2.83.12.08 1.8 2.52-.11.4 9-2.86.13-.3-7-3 .13-.19-4.54 3.17-.14v-2c-1-.37-9-3.62-12.11-5.08l.31 7.11-3.45.15s.47 25.61.47 29.7l1.47-.06.12 2.76-1.66.07c-.61 8.12-.28 28.11-.28 28.11h-.23c1.15 16.07-2.12 61.21-2.33 63.33l1 .08.28 6.38 1.75-.07-.15-3.3 2.28-.1.19 4.35-2.6.12.27 6.26 3.21-.15-.09-2 1.34-.06.3 6.91 3-.13-.28-6.54 1.34-.06v-1.06l2.6-.11-.19-4.51-2.57.11-.08-2h-1.06l-.25-5.68 2.07-.1.13 2.85h1.1v1.1l2.24-.1-.5-11.42-2.2.1.15 3.37-5.81.25-.13-2.88 2.2-.1-.06-1.38 3.66-.16-.32-7.15 2.56-.11-.12-2.89 3-.13-.12-2.72-5.08.22.08 1.83-3.34.14-.14-3.25 3-.13-.08-1.91 2.88-.12.07 1.58 3.74-.16-.21-4.88-3.25.14-.11-2.35 3.46-.15-.31-7.07 3-.14-.4-9.38-1.92.08-.07-1.62h-.93l-.37-8.54 4.32-.23.38 8.9 1.94-.08.16 3.61 5.23-3.58.66 15 1.67-.07-.18-4.15 3.52-.15.28 6.26 2.73-.12.23 5.29 2.47-.11.28 6.34 2.37-.1-.36-8.37 3-.13.29 6.78 2.29-.1.55 12.6 2.91-.12-.17-4 3.26-.14.29 6.61 2.64-.12.13 2.82 2-.08.25 5.64 3.26-.15-.46-10.57-2.56.11-.21-4.85-2.47.11-.16-3.79 2.46-.11-.1-2.38-2.55.11-.17-3.7 3.35-.14-.1-2.38-4.88.21-.35-8 2.62-.12-.18-2.3-2.85.12v1.08l-2.62.11-.12-2.61 2.24-.1-.07-1.62-2.39.1-.07-1.46h-.92l-.1-2.16h1l-.11-2.39-1.46.07-.1-2.32 1.8-.08-.08-1.61-2.69.11.08 1.78-3 .13-.13-3 3.16-.14-.15-3.46-2.55.11-.13-3-2.77.12-.06-1.29-1.46.07-.06-1.34-2.08.09v-1.23l2.23-.1-.06-1.46 4-.18v-1.15l-2.15.09-.08-1.69-5.77.25-.25-2.1-3.47.15-.13-2.93-2.54.11-.12-2.77-2.54.11-.1-2.15-1.69.07v-.92l-3.32.14-.18-4.16 5.24-.23.06 1.46 1.47-.06.08 1.77 6-.26.21 4.78 1.78-.08-.12-2.54 3.13-.14.23 5.31 1.39-.06-.11-2.54 2.39-.1-.08-1.77 4.62-.21.14 3.24 4.39-.19-.07-1.62 3.7-.16.15 3.31-3.24.14.07 1.7-2.15.09v1l1.85-.08.14 3.16 1.77-.08-.07-1.62 2.62-.11-.1-2.16 1.18-.05v-.61l1.75-.08.21 4.78-1.92.08.1 2.46L648 610l-.26-5.93 2.24-.1.18 4.24 2.54-.11.25 5.54 2.77-.12-.18-4-2.23.09-.21-4.77 1.23-.06-.13-3.08 2.93-.13.13 3 2.77-.12-.13-2.93 1.77-.08.18 4.09-2 .08.13 3.09 2.7-.12-.13-3 2-.08-.18-4.16 1.85-.09v1l1.24-.06.14 3.24h-.93l.09 1.92-2.16.1.1 2.23h1v1.08l2.08-.09-.16-3.62 2.16-.1.22 4.05 1.47-.06-.05-1.08h1.16l-.18-4 4.85-.22.16 3.47 2.23-.1v-1.23h.77zM383.62 1208.57l-2 .28-.28-2.07 4.73-.66-.17-1.22-2.44.34-.31-2.21-1.38.19-.16-1.15-1.45.21.23 1.6-1.61.22-.44-3.13-2.36.34-.39-2.75-5.5.76-.4-2.9-4.74.67.21 1.45-.92.12-.26-1.83-2.59.36-.4-2.82-2 .28.5 3.59-2.52.35-.5-3.59-2.22.31-.28-2-1.29.18-.2-1.37-9.54 1.33-.2-1.45-7.56 1.06-.22-1.53-2.82.4.35 2.52-2.83.39-.11-.84-4.2.59-.24-1.68-3.21.45.35 2.44-3.44.48-.17-1.22-3.67.51.3 2.14-3.36.47-.47-3.36 3.51-.49-.3-2.21 1.29-.19.21 1.46 4.68-.66-.36-2.52 3.19-.44.14 1 2-.28-.14-1 3.75-.52.17 1.22 7.1-1-.42-3 1.74-.19-.23-1.68-1.38.19-.47-3.36 2.52-.35.4 2.83 2.74-.39.24 1.68-2.22.31.22 1.53 1.07-.15.17 1.22 1.68-.23-.27-1.91.84-.12.25 1.76 1.3-.19.22 1.61 2.52-.36-.34-2.44 3.43-.48-.26-1.91 2.29-.32-.26-1.83 2.9-.41.61 4.36-2.67.37.12.84-1.53.21.19 1.38 2.22-.31-.2-1.38 2.75-.38-.18-1.3 1.53-.21-.13-.92 1.38-.19-.24-1.68 1.07-.15.44 3.13-2 .28.3 2.14 2.75-.39-.19-1.37 2.37-.33-.34-2.37 2.22-.31.34 2.44 2.6-.36-.24-1.68 1.07-.15.15 1.07 1.53-.21.26 1.9 2.45-.34.38 2.75 4.2-.59-.23-1.67 1.83-.26-.28-2 2.91-.4.41 3 2.75-.39-.46-3.28-1.91.26-.51-3.66-5.57.78-.39-2.75-3.51.49-.37-2.6-1.9.27.11.84-2.29.32-.2-1.45-2.52.35-.14-1-3.13.44.12.84-2 .28-.21-1.53-1.38.19-.25-1.83 2.52-.35-.25-1.76-3.89.54-.32-2.29-1.53.22-.26-1.84-3.36.47.32 2.29-4.88.69-.32-2.29-1.07.15-.23-1.61-3.74.53.3 2.13-2.12.3-.17-1.22-3.07.43.36 2.59-1.53.22-.22-1.61-4.43.62.3 2.14-1.3.18.11.77-.92.13.17 1.22-1.68.23-.23-1.68-3.36.47.29 2.14-3.28.46.27 1.91-2.06.29.23 1.68-2.75.38.49 3.51-3 .42.25 1.76-2.75.38.18 1.3-3.51.49.23 1.68-2.59.36.57 4.13-3.35.47-.53-3.74 2.29-.33-.42-3 3.43-.48-.23-1.68 3.66-.51-.39-2.83 3.43-.48-.47-3.36-2.21.31-.44-3.13 2.6-.36.38 2.75 2.42-.34-.6-4.28 2.62-.37-.43-3.13 2.13-.3.14 1 2.83-.4-.3-2.14 3-.42-.23-1.68-2.52.35-.25-1.76 3.06-.42-.21-1.53 3.13-.44-.37-2.6-3.2.45.23 1.68-3.44.48.29 2.07-4.88.68.2 1.45-5 .7-.33-2.36 2.26-.32-.39-2.82-2.8.39-.3-2.14 3.51-.49.31 2.21 3.67-.51-.22-1.53-1.45.2-.29-2.06 4.05-.56-.22-1.61-2.83.4-.23-1.68-1.45.2-.19-1.3 6.57-.92-.15-1.06-3 .41-.31-2.21 3.52-.49.34 2.44 3.05-.43.18 1.3 2.07-.29-.39-2.75-4.12.58-.32-2.29 1.91-.27-.53-3.74 1.76-.25-.16-1.14 3.36-.47-.49-3.51-2.37.33.23 1.6-3 .42-.47-3.36 2.59-.37-.43-3.12-3.61.5.31 2.21-2 .28.42 3-2.74.38.28 2-2.62.37-.31-2.2-3.28.46.25 1.78-1.37.19.26 1.85-4.17.58.25 1.79-2.32.32.46 3.28-3.63.51.79 5.65-2.86.4.32 2.26-2.8.39.25 1.79 2.5-.35 1.25 8.93-2.83.4-1-6.94-3 .42-.63-4.5 3.15-.44-.43-3.1-2.82.39-.45-3.18 3.47-.48-.5-3.59 2.9-.41-.23-1.65-2.46.35-.31-2.22-2.54.36-.6-4.27 3.23-.46-.69-4.91 3.18-.45-.6-4.31-3.91.55.36 2.54-2.3.32.48 3.42-6 .85 1.23 8.78-4.36.61 1.69 12-3.43.47 1 7-2.9.41-.73-5.2-2.3.32-.52-3.74-1.48.2c.11 6.59.29 13.18.49 19.77h.09l.32 2.34 5-.69.48 3.46-2.62.37.26 1.81 2.45-.35.17 1.21 2.54-.35.44 3.1 2.13-.3.38 2.74-2.45.34-.29-2-2.42.34-.33-2.38-3.18.45-.23-1.62-2.42.34.36 10.92 3.85-.54.22 1.61-4 .57c.27 8.48.49 17 .59 25.46h.33l-.25-1.82 2.41-.34-.42-3 5.6-.78-.7-5 3.22-.45.88 6.25-3.06.43.71 5.07-3.11.44.56 3.94-3.19.45 1 7.25-1.94.27.6 4.27 2.9-.4.63 4.51-2.33.32.18 1.33-1.09.15.66 4.68 2.9-.41.4 2.9 1.61-.22.6 4.27-2 .29 1.23 8.78 1.49-.21.26 1.89 1.29-.18.78 5.56-2.34.33 1.61 11.52 1.25-.17.19 1.37 1.25-.18-.65-4.67 2.13-.3.89 6.32 1.73-.24-.46-3.26 2.26-.32.6 4.31-2.58.36.87 6.21 3.18-.45-.28-2 1.33-.19 1 6.85 3-.42-.91-6.48 1.33-.19-.14-1 2.57-.37-.62-4.47-2.54.36-.28-2-1.05.15-.79-5.64 2.06-.29.39 2.82 1.09-.15.15 1.09 2.22-.31-1.58-11.32-2.18.3.47 3.35-5.76.8-.4-2.86 2.17-.3-.19-1.37 3.63-.51-1-7.09 2.54-.35-.4-2.87 3-.41-.37-2.7-5 .7.25 1.82-3.3.46-.45-3.22 2.94-.42-.26-1.89 2.86-.4.22 1.57 3.7-.52-.67-4.83-3.23.45-.32-2.34 3.42-.47-1-7 3-.42-1.3-9.31-1.89.27-.23-1.61-.92.13-1.19-8.46 4.28-.65 1.23 8.83 1.93-.27.5 3.58 4.86-4.06 2.08 14.85 1.66-.23-.58-4.11 3.5-.49.87 6.2 2.7-.37.74 5.24 2.44-.34.88 6.29 2.36-.33-1.16-8.3 3-.42.94 6.73 2.27-.32 1.75 12.49 2.88-.4-.54-3.93 3.23-.45.91 6.55 2.62-.37.4 2.8 2-.28.78 5.59 3.23-.45-1.59-10.74-2.53.36-.67-4.81-2.45.34-.52-3.75 2.44-.34-.33-2.36-2.53.35-.51-3.67 3.32-.46-.33-2.36-4.85.68-1.1-7.89 2.6-.36-.4-2.28-2.82.4.15 1.06-2.6.37-.36-2.6 2.21-.31-.22-1.6-2.37.33-.2-1.45-.92.13-.3-2.14 1-.14-.33-2.37-1.45.2-.32-2.29 1.61-.22-.23-1.6-2.67.37.24 1.76-3 .41-.42-3 3.13-.43-.48-3.44-2.52.35-.42-3-2.75.38-.17-1.27-1.45.2-.19-1.33-2.06.29-.17-1.22 2.21-.31-.2-1.45 4-.55-.16-1.15-2.14.3-.23-1.68-5.73.8-.29-2.06-3.52.49-.4-2.9-2.52.35-.38-2.75-2.53.35-.29-2.14-1.68.24-.13-.92-3.29.46-.57-4.12 5.19-.73.2 1.45 1.45-.2.25 1.76 6-.84.66 4.73 1.77-.24-.36-2.52 3.1-.44.74 5.27 1.37-.19-.35-2.52 2.37-.33-.25-1.76 4.59-.64.44 3.21 4.36-.61-.23-1.6 3.67-.51.46 3.28-3.21.45.23 1.68-2.13.3.14 1 1.83-.26.44 3.14 1.75-.25-.22-1.6 2.59-.37-.29-2.14 1.16-.16-.08-.61 1.73-.24.66 4.73-1.91.27.35 2.44 4.2-.58-.83-5.89 2.22-.3.59 4.2 2.52-.36.76 5.5 2.75-.38-.55-4-2.22.31-.66-4.74 1.22-.17-.42-3.05 2.9-.41.42 3 2.74-.39-.4-2.9 1.75-.24.57 4-2 .28.42 3.06 2.68-.38-.42-3 2-.27-.57-4.13 1.83-.25.14 1 1.22-.17.45 3.21-.92.12.27 1.91-2.14.3.31 2.22 1-.14.15 1.07 2.07-.29-.51-3.59 2.14-.3.57 4.05 1.45-.2-.15-1.07 1.15-.16-.56-4 4.81-.67.48 3.44 2.22-.31-.18-1.22.77-.11zM291.11 891.48v3.12l.47-.06-.41-3.07zM392.78 893c-.58-4.34-1.12-8.68-1.66-13l-2.79.37-.39-3 2.8-.37c-.14-1.15-.27-2.3-.41-3.45l-2.23.3-.39-3-2.75.36-.17-1.28-1.45.19-.18-1.32-2.06.27-.16-1.23 2.21-.29-.19-1.45 4-.52-.15-1.15-2.14.28-.22-1.68-5.74.75-.27-2.06-3.44.45-.38-2.9-2.52.33-.37-2.75-2.52.33-.28-2.14-1.68.22-.12-.92-3.29.43-.54-4.13 5.2-.68.19 1.45 1.45-.19.23 1.76 6-.78.62 4.73 1.77-.23-.34-2.52 3.11-.41.69 5.28 1.38-.18-.33-2.53 2.37-.31-.24-1.76 2.57-.33c-.52-4.26-1.31-10.25-1.31-10.25l-2.83.37-.11-.84-4.21.55-.22-1.68-3.21.42.32 2.45-3.44.45-.16-1.22-3.67.48.28 2.14-3.36.44-.44-3.36 3.52-.47-.3-2.21 1.3-.17.19 1.45 4.69-.62-.33-2.52 3.19-.42.13 1 2-.27-.13-1 3.74-.49.16 1.22 2.34-.3c-.23-1.85-1.54-11.69-2-14.75l-1.54.2-.22-1.69-3.37.45.28 2.14-3.28.43.25 1.91-2.07.27.23 1.68-2.76.37.46 3.51-3 .39.23 1.76-2.75.36.17 1.3-3.51.47.22 1.68-2.6.34.54 4.13-3.36.44-.5-3.75 2.3-.3-.4-3.06 3.44-.45-.22-1.68 3.66-.48-.37-2.83 3.44-.45-.44-3.37-2.22.29-.41-3.13 2.6-.34.36 2.75 2.42-.32-.56-4.28 2.63-.34-.41-3.14 2.14-.28.13 1 2.82-.38-.28-2.14 3.06-.4-.22-1.7-2.52.33-.23-1.76 3.06-.4-.21-1.53-.41-2.59.22 1.68-3.44.46.27 2.06-4.89.64.19 1.45-5.05.67-.31-2.37L370 814l-.37-2.83-2.81.37-.28-2.14 3.46-.4.29 2.21 3.67-.48-.2-1.53-1.46.19-.27-2.06 4.06-.53-.22-1.61-2.82.37-.23-1.68-1.45.19-.17-1.3 6.58-.86-.14-1.07-3 .39-.29-2.22 3.52-.46.32 2.45 1.64-.22c-.11-.48-.21-1-.31-1.43 0 0-1.73-9.66-1.9-13.37l-1.74.23.4 3-2.74.36.26 2-2.63.34-.29-2.2-3.27.43.23 1.78-1.37.18.24 1.85-4.17.55.23 1.79-2.32.3.43 3.28-3.63.48.75 5.65-2.86.38.3 2.26-2.81.37.24 1.79 2.5-.33 1.18 8.94-2.83.37-.92-6.94-3 .4-.59-4.51 3.15-.42-.4-3.1-2.83.37-.42-3.19 3.47-.45-.47-3.59 2.9-.38-.21-1.66-2.46.33-.29-2.22-2.55.33-.56-4.27 3.23-.43-.65-4.92 3.19-.42-.57-4.31-3.91.51.33 2.54-2.29.31.45 3.42-6.05.8 1.15 8.79-4.36.57 1.59 12.06-3.43.45.92 7-2.91.38-.68-5.2-2.3.3-.49-3.75-3.23.42-.51-3.87-5.16.68-.66-5-2.54.33.28 2.18-1.93.25-.46-3.46 1.7-.23-.34-2.54-3.14.42.11.88-1.93.26.23 1.73-4 .53-.61-4.64-7.09.94.25 1.93 2.94-.38.39 2.94 2.9-.38.33 2.46 3.22-.43.33 2.46-3.31.44-.2-1.53-4.2.55.24 1.77-2 .26.22 1.65 3.47-.45.18 1.37 4.47-.59.54 4.12 3.67-.49.23 1.74 6.58-.87.31 2.38-4.88.65.25 1.89 2.54-.33.35 2.7 4.72-.62.18 1.33-4.8.63.39 3 3.55-.47.27 2.06 2.34-.31.26 2 2.5-.32.31 2.34 5-.66.45 3.47-2.62.35.24 1.81 2.46-.32.16 1.21 2.54-.34.41 3.11 2.13-.28.36 2.74-2.45.32-.28-2-2.42.32-.31-2.38-3.18.42-.22-1.62-3.1.41L330 836l-1.53.2-.22-1.66-4.92.65-.23-1.77-5.69.75-.12-1-2.95.38.21 1.58-5 .66.2 1.57-3.46.46-.26-2-3.88.51-.2-1.53-2.78.36.29 2.22-2.54.33-.26-2-3.63.47.35 2.67-3.88.51.24 1.81-.9.12c0 6.35 1.19 19 1.19 19l1.63-2.63-.36-2.7 3.51-.47.49 3.71 3.39-.44-1.07-8.11 3.43-.45.51 3.91 1.54-.2-.58-4.35 3.47-.46.7 5.29 1.93-.26-.34-2.62 3.3-.44-.48-3.67 2.22-.29.3 2.26 1.81-.24.43 3.27 2.86-.38-.44-3.38 2.46-.33.37 2.79 7.66-1-.42-3.15 1.54-.2.34 2.62 4.8-.63.21 1.62-4.68.61.44 3.35-1.61.21-.26-2-2.58.34-.12-.92-3.31.43.22 1.69-1.65.22.22 1.65-2.14.28-.38-2.86-4.84.64.43 3.26-2.66.35.15 1.15-3.31.43.23 1.72-2.06.27.23 1.7-2.18.28.45 3.43-2.54.33.27 2.06-5.12.67.93 7.14-3.5.46.16 1.25-3.47.46.17 1.29-2.08.27c.14 3 .34 6.09.47 9.13l1.83-.24.39 3 2.26-.3-.43-3.27 1.82-.24.55 4.2 3.43-.45-.41-3.07 2.5-.33.37 2.79 3.27-.43-.54-4 3-.4-.61-4.61 3.07-.4.63 4.81 2.26-.29-.76-5.77 2.83-.37.56 4.31 2.38-.31-.63-4.8 2-.26.36 2.74 1-.13.18 1.37 1-.13-.86-6.62 2.21-.29 1 7.26L328 882l-1-7.9 2.34-.31.23 1.73 2.29-.3-.23-1.81 2.42-.32-.4-3 5.6-.73-.65-5 3.22-.43.83 6.25-3.07.41.67 5.08-3.11.41.52 3.95-3.18.42.95 7.26-1.94.25.57 4.27 2.9-.38.59 4.52-2.34.31.18 1.33-1.09.14.61 4.68 2.91-.38.38 2.9 1.61-.21.56 4.28-2 .27 1.15 8.79 1.49-.2.25 1.9 1.29-.17.74 5.56-2.34.31 1.51 11.54 1.25-.17.18 1.37 1.25-.16-.61-4.68 2.13-.28.84 6.33 1.73-.23-.43-3.26 2.26-.3.57 4.32-2.58.33.81 6.22 3.19-.42-.27-2 1.33-.17.9 6.85 3-.39-.85-6.49 1.33-.18-.14-1.05 2.58-.34-.59-4.47-2.54.33-.26-2-1.05.14-.74-5.64 2-.27.37 2.82 1.09-.14.15 1.08 2.21-.29-1.48-11.33-2.18.29.44 3.34-5.77.76-.38-2.86 2.18-.29-.18-1.37 3.63-.48-.93-7.09 2.54-.34L359 912l3-.39-.36-2.71-5 .67.24 1.81-3.31.44-.42-3.23 2.94-.39-.25-1.89 2.87-.38.2 1.57 3.71-.48-.62-4.82-3.23.42-.3-2.34 3.42-.45-.92-7 3-.39-1.23-9.32-1.89.25-.22-1.61-.92.12-1.12-8.47 4.29-.6 1.16 8.83 1.92-.25.47 3.58 4.9-4 2 14.87 1.67-.22-.54-4.11 3.49-.46.82 6.21 2.71-.36.69 5.25 2.45-.32.83 6.3 2.36-.31-1.09-8.31 3-.39.89 6.73 2.27-.3 1.51 12.45h.39c-.78-8.35-.9-16.75-2-25zM715.29 1148.3l-1.87.46-.88-3.6-5.46 1.33-.66-2.69-3.45.84-.62-2.55-1.87.46.2.82-2.25.55-.35-1.42-2.47.6-.24-1-3.07.75.2.83-1.94.47-.37-1.5-1.35.33-.44-1.8 2.48-.6-.42-1.72-3.82.93-.55-2.25-1.5.37-.44-1.8-1.33.32c.23 4.7 0 9.42.46 14.1l1.89-.46 1 4.27-2.25.55c.14.73.31 1.46.47 2.18l.37-.09-.33-1.34 2.69-.66-.31-1.28 1.5-.36-.22-.9 1.35-.33-.4-1.65 1-.25.75 3.07-2 .47.51 2.1 2.7-.66-.33-1.34 2.32-.57-.57-2.32 2.18-.53.58 2.4 2.55-.62-.4-1.65 1-.26.25 1 1.5-.36.46 1.87 2.39-.59.66 2.7 4.12-1-.4-1.65 1.8-.44-.48-2 2.85-.69.71 2.92 2.7-.66zM716 1174.71l-1.94.48-.5-2 4.65-1.13-.29-1.2-2.4.59-.53-2.17-1.35.32-.27-1.12-1.43.35.39 1.57-1.58.38-.74-3.07-2.33.57-.65-2.7-5.4 1.32-.63-2.9-4.65 1.13.35 1.42-.9.22-.44-1.79-2.54.62-.68-2.78-2 .48.86 3.52-2.47.6-.86-3.52-1.44.35c.11.44.23.88.34 1.32 1.07 4.2 1.76 9 3.14 13.47l.66-.16-.73-3 2.85-.69.71 2.92 2.69-.66-.69-2.84 1.72-.42 1 4-1.95.47.73 3 2.63-.64-.72-2.92 1.95-.48-1-4 1.79-.44.24 1 1.2-.29.77 3.15-.9.22.45 1.87-2.09.51.53 2.17 1-.23.25 1 2-.5-.86-3.52 2.1-.51 1 4 1.43-.35-.26-1.05 1.13-.27-.95-3.9 4.72-1.14.82 3.37 2.17-.53-.29-1.2.75-.18zM257.59 733.53l-1.78.93-1-1.84 4.23-2.22-.57-1.09-2.19 1.14-1-2-1.23.64-.53-1-1.3.67.75 1.44-1.44.75-1.46-2.8-2.12 1.1-1.29-2.46-4.92 2.57-1.35-2.6-4.23 2.24.68 1.3-.82.43-.86-1.64-2.32 1.21-1.32-2.53-1.78.93 1.67 3.21-2.25 1.18-1.68-3.21-2 1-.93-1.77-1.16.6-.64-1.23-8.55 4.46-.67-1.3-6.77 3.53-.72-1.36-2.52 1.32 1.17 2.25-2.53 1.32-.39-.75-3.76 2-.78-1.5-2.88 1.5 1.15 2.18-3.08 1.61-.57-1.09-3.28 1.71 1 1.91-3 1.57-1.57-3 3.14-1.64-1-2 1.16-.61.68 1.3 4.19-2.18-1.17-2.29 2.85-1.49.47.89 1.78-.93-.47-.89 3.35-1.74.57 1.09 6.36-3.32-1.39-2.66 1.57-.82-.79-1.51-1.23.65-1.57-3 2.26-1.18 1.32 2.53 2.46-1.28.79 1.5-2 1 .72 1.37.95-.5.57 1.09 1.51-.78-.89-1.71.75-.39.82 1.57 1.16-.61.75 1.44 2.26-1.18-1.15-2.19 3.08-1.6-.89-1.71L220 720l-.86-1.64 2.6-1.35 2 3.89-2.39 1.25.4.75-1.37.71.64 1.24 2-1-.64-1.23 2.46-1.28-.61-1.17 1.37-.71-.43-.82 1.23-.64-.78-1.51 1-.5 1.46 2.81-1.78.92 1 1.92 2.46-1.29-.64-1.22 2.12-1.11-1.11-2.12 2-1 1.14 2.18 2.32-1.21-.78-1.5.95-.5.5 1 1.37-.71.89 1.71 2.19-1.14 1.28 2.46 3.76-2-.78-1.51 1.64-.85-.93-1.78 2.6-1.36 1.39 2.67 2.46-1.28-1.53-3-1.71.9-1.71-3.28-5 2.6-1.29-2.46-3.14 1.64-1.22-2.32-1.71.89.4.75-2.05 1.07-.68-1.3-2.26 1.18-.46-.89-2.8 1.46.39.75-1.78.93-.71-1.37-1.23.65-.86-1.64 2.26-1.18-.82-1.57-3.49 1.82-1.07-2.05-1.37.71-.85-1.64-3 1.57 1.07 2.05-4.38 2.28-1.13-2.07-1 .5-.75-1.44-3.25 1.75 1 1.92-1.9 1-.57-1.1-2.75 1.44 1.21 2.32-1.37.72-.75-1.44-4 2.07 1 1.91-1.16.61.35.68-.82.43.57 1.1-1.5.78-.79-1.5-3 1.57 1 1.91-2.94 1.53.89 1.71-1.85 1 .79 1.5-2.41 1.25s-.66 73.43-1 92l1.09 2.09 1.33-.69.89 1.69 1.15-.6 2.6 5-2.06 1.06 5.38 10.31 1.12-.58.64 1.22 1.11-.58-2.25-4.18 1.91-1 3 5.66 1.55-.81-1.53-2.92 2-1.05 2 3.86-2.31 1.2 2.9 5.55 2.85-1.48-.94-1.81 1.19-.62 3.19 6.13 2.67-1.39-3-5.81 1.19-.62-.49-.93 2.31-1.21-2.09-4-2.27 1.18-.94-1.8-.94.49-2.63-5 1.84-1 1.31 2.53 1-.51.51 1 2-1L207 821l-2 1 1.57 3-5.16 2.69-1.34-2.56 2-1-.64-1.23 3.25-1.69-3.32-6.35 2.27-1.19-1.33-2.55 2.67-1.4-1.26-2.41-4.51 2.35.85 1.62-3 1.54-1.51-2.88 2.64-1.37-.89-1.7 2.56-1.34.74 1.41 3.31-1.73-2.26-4.33-2.88 1.51-1.09-2.09 3.06-1.6-3.27-6.28 2.67-1.39-4.35-8.33-1.69.88-.76-1.44-.83.43-4-7.57 3.81-2 4.13 7.9 1.72-.9 1.67 3.21 3.22-5.46L210 791l1.49-.77-1.92-3.68 3.13-1.63 2.89 5.55 2.43-1.26 2.45 4.69 2.19-1.14 2.93 5.63 2.12-1.1-3.88-7.44 2.66-1.38 3.14 6 2-1.06 5.84 11.18 2.58-1.34-1.84-3.52 2.9-1.51 3.06 5.86 2.35-1.22 1.3 2.5 1.8-.94 2.61 5 2.9-1.51-4.9-9.39-2.23 1.16-2.24-4.3-2.19 1.15-1.76-3.37L244 792l-1.1-2.11-2.27 1.18-1.71-3.28 3-1.55-1.1-2.11-4.34 2.26-3.68-7.06 2.32-1.21-1.13-2-2.53 1.32.5 1-2.33 1.21-1.21-2.32 2-1-.75-1.43-2.12 1.1-.67-1.29-.82.42-1-1.91.88-.46-1.1-2.12-1.3.68-1.07-2.06 1.44-.75-.75-1.43-2.4 1.25.82 1.57-2.66 1.39-1.39-2.66 2.8-1.47-1.64-3.16-2.25 1.17-1.39-2.66-2.46 1.29-.6-1.15-1.3.68-.62-1.18-1.84 1-.57-1.09 2-1-.68-1.3 3.56-1.85-.54-1-1.91 1-.79-1.5-5.14 2.59-1-1.84-3.07 1.6-1.36-2.6-2.25 1.18-1.29-2.46L193 756l-1-1.92-1.51.79-.43-.82-2.93 1.53-1.93-3.69 4.65-2.43.67 1.3 1.3-.67.82 1.57 5.36-2.79 2.21 4.23 1.58-.82-1.18-2.26 2.78-1.44 2.46 4.71 1.23-.64-1.18-2.26 2.12-1.1-.82-1.57 4.1-2.14 1.5 2.87 3.89-2-.74-1.43 3.28-1.72 1.53 2.94-2.87 1.5.78 1.51-1.91 1 .46.89 1.65-.85 1.46 2.8 1.57-.82-.75-1.44 2.33-1.21-1-1.91 1-.55-.28-.54 1.55-.81L227 750l-1.71.89 1.14 2.19 3.76-2-2.74-5.26 2-1 2 3.76 2.26-1.18 2.56 4.93 2.47-1.29-1.86-3.55-2 1-2.21-4.24 1.09-.57-1.5-2.68 2.6-1.36 1.39 2.67 2.46-1.29-1.35-2.59 1.57-.82 1.89 3.62-1.78.93 1.43 2.73 2.39-1.25-1.39-2.64 1.78-.93-1.93-3.69 1.64-.86.47.89 1.09-.57 1.5 2.87-.82.43.89 1.71-1.91 1 1 2 .89-.46.5.95 1.84-1-1.67-3.21 1.91-1 1.89 3.62 1.3-.68-.5-1 1-.54-1.8-3.53 4.31-2.25 1.6 3.07 2-1-.57-1.09.68-.36zM319.84 658.67l-1.95.49-.51-2L322 656l-.31-1.2-2.39.6-.55-2.16-1.34.34-.29-1.12-1.42.35.4 1.57-1.57.4-.77-3.06-2.32.58-.68-2.69-5.38 1.36-.72-2.84-4.66 1.15.36 1.41-.89.23-.46-1.79-2.54.64-.7-2.77-1.94.5.88 3.51-2.46.62-.89-3.51-2.17.55-.49-1.95-1.27.33-.34-1.35-9.34 2.36-.36-1.42-7.39 1.88-.37-1.5-2.77.7.62 2.47-2.76.7-.21-.83-4.11 1-.42-1.64-3.14.79.61 2.39-3.36.86-.31-1.2-3.59.91.53 2.09-3.29.83-.83-3.29 3.44-.87-.55-2.17 1.27-.32.36 1.42 4.59-1.16-.63-2.46 3.12-.79.25 1 1.94-.49-.25-1 3.67-.93.3 1.2 6.95-1.76-.74-2.92 1.72-.43-.41-1.65-1.35.34-.83-3.28 2.47-.63.7 2.77 2.69-.68.41 1.64-2.17.55.38 1.5 1.05-.27.3 1.2 1.65-.42-.48-1.87.83-.21.43 1.72 1.27-.32.4 1.57 2.47-.62-.61-2.39 3.36-.85-.47-1.87 2.24-.57-.45-1.79 2.84-.72 1.08 4.26-2.62.66.21.82-1.49.38.34 1.35 2.16-.55-.34-1.35 2.69-.68-.32-1.27 1.5-.38-.23-.89 1.35-.34-.42-1.65 1.05-.26.77 3.06-1.94.49.53 2.1 2.69-.69-.34-1.34 2.32-.59-.59-2.31 2.17-.55.67 2.46 2.54-.64-.41-1.65 1.05-.26.26 1 1.49-.37.48 1.87 2.39-.61.68 2.69 4.11-1-.41-1.64 1.79-.46-.49-1.94 2.84-.72.74 2.92 2.69-.68-.82-3.22-1.86.47-.91-3.58-5.46 1.38-.68-2.69-3.44.87-.64-2.55-1.87.48.21.82-2.28.51-.36-1.43-2.47.63-.25-1-3.06.77.21.82-1.95.5-.37-1.5-1.35.34-.45-1.79 2.46-.63-.43-1.72-3.81 1-.57-2.24-1.5.37-.45-1.79-3.29.83.57 2.24-4.79 1.21-.56-2.24-1.05.27-.4-1.57-3.66.92.53 2.09-2.07.53-.31-1.2-3 .76.65 2.55-1.5.37-.4-1.57-4.33 1.1.53 2.09-1.27.32.19.75-.9.23.3 1.2-1.64.41-.42-1.64-3.29.83.53 2.09-3.21.81.47 1.87-2 .51.42 1.65-2.69.68.87 3.44-2.92.73.43 1.72-2.69.69.33 1.27-3.44.87.41 1.64-2.54.64 1 4-3.29.83-.92-3.66 2.24-.57-.76-3 3.37-.85-.42-1.64 3.59-.91-.7-2.77 3.36-.85-.83-3.29-2.17.55-.77-3.06 2.54-.65.68 2.69 2.37-.59-1.06-4.19 2.57-.65-.78-3.06 2.09-.53.25 1 2.77-.7-.53-2.1 3-.75-.42-1.65-2.47.63-.43-1.72 3-.76-.38-1.49 3.07-.78-.65-2.54-3.14.8.42 1.64-3.36.85.51 2-4.79 1.21.36 1.42-4.93 1.25-.59-2.32 2.22-.56-.7-2.77-2.74.7-.53-2.1 3.44-.87.55 2.17 3.58-.91-.37-1.49-1.42.36-.51-2 4-1-.4-1.57-2.77.7-.41-1.65-1.42.36-.32-1.27 6.42-1.63-.26-1-2.92.74-.54-2.17 3.44-.87.6 2.39 3-.76.32 1.27 2-.51-.68-2.69-4 1-.56-2.24 1.86-.47-.92-3.66 1.72-.44-.29-1.12 3.29-.83-.57-2.28c-4.6 2.17-26 14.52-26 14.52l1.4 5.54-2.79.71.56 2.21-2.74.69.44 1.75 2.45-.62 2.21 8.75-2.77.7-1.72-6.79-2.94.74-1.12-4.4 3.09-.78-.77-3-2.76.7-.36-1.42a54.89 54.89 0 00-10.13 10.36l.88 3.51-1.4.36a148.89 148.89 0 0011.6 20.43c4.36 6.44 9.12 12.58 13.32 19.14a180.5 180.5 0 0112.83 23.93l3.92-4.08 3.67 14.54 1.63-.41-1-4 3.42-.86 1.54 6.07 2.65-.67 1.3 5.13 2.39-.6 1.56 6.15 2.31-.58-2.09-8.15 2.91-.73 1.67 6.59 2.22-.57 3.09 12.23 2.83-.71-1-3.85 3.17-.8 1.62 6.41 2.56-.64.7 2.73 2-.5 1.39 5.48 3.16-.8-2.59-10.26-2.48.62-1.19-4.7-2.4.6-.93-3.67 2.4-.61-.59-2.31-2.48.63-.91-3.59 3.25-.83-.58-2.3-4.74 1.2-1.95-7.72 2.54-.64-.64-2.23-2.77.7.27 1-2.53.66-.65-2.54 2.17-.55-.4-1.57-2.31.59-.36-1.42-.9.22-.53-2.09 1-.24-.58-2.32-1.42.36-.57-2.25 1.57-.39-.4-1.57-2.61.66.43 1.72-2.91.74-.74-2.92 3.06-.78-.85-3.36-2.46.62-.74-2.91-2.69.68-.32-1.24-1.42.35-.33-1.29-2 .51-.31-1.2 2.17-.55-.36-1.42 3.89-1-.28-1.12-2.1.53-.41-1.65-5.64 1.47-.51-2-3.36.85-.72-2.84-2.47.63-.68-2.69-2.47.62-.53-2.09-1.64.41-.23-.89-3.21.81-1-4 5.08-1.28.36 1.42 1.42-.36.43 1.72 5.86-1.48 1.17 4.63 1.73-.44-.63-2.46 3-.77 1.3 5.16 1.35-.34-.63-2.47 2.32-.58-.43-1.72 4.48-1.14.8 3.14 4.26-1.08-.4-1.57 3.59-.9.81 3.21-3.14.79.42 1.65-2.1.53.25 1 1.79-.45.78 3.06 1.72-.43-.4-1.57 2.54-.65-.53-2.09 1.15-.29-.16-.59 1.7-.43 1.17 4.63-1.86.47.6 2.39 4.11-1-1.45-5.76 2.16-.55 1 4.11 2.47-.62 1.36 5.38 2.69-.68-1-3.89-2.17.55-1.15-4.75 1.2-.31-.76-3 2.84-.72.74 2.92 2.69-.68-.72-2.84 1.72-.44 1 4-1.94.49.75 3 2.62-.66-.74-2.92 1.95-.49-1-4 1.79-.45.25 1 1.19-.3.8 3.14-.9.23.47 1.86-2.09.53.55 2.17 1-.24.26 1 2-.51-.89-3.51 2.1-.53 1 4 1.42-.36-.27-1 1.13-.28-1-3.89 4.71-1.19.85 3.37 2.17-.55-.3-1.2.75-.19zM683.55 1203.82l-3.67 1-.41-2-3.4.67-.57-2.87-2.5.49-.53-2.72-2.5.49-.42-2.12-1.66.33-.18-.91-3.26.65-.8-4.09 5.14-1 .28 1.44 1.44-.28.35 1.74 5.92-1.17.93 4.69 1.74-.35-.49-2.5 3.07-.6.25 1.28s.82-.07.82-.09c-.15-3.85-1.13-7.68-1.28-11.53l-2.44.49-.33-1.67-3.18.63.48 2.42-3.41.67-.23-1.21-3.64.72.42 2.12-3.33.66-.65-3.33 3.48-.69-.44-2.19 1.29-.26.28 1.44 4.64-.92-.49-2.49 3.15-.63.19 1 2-.39-.19-1 3.26-.44c-.15-4.62-.24-9.25-.23-13.87h-1.22l-.33-1.66-3.32.66.42 2.12-3.26.64.38 1.89-2.05.4.33 1.67-2.72.54.69 3.47-3 .59.34 1.74-2.71.51.25 1.28-3.48.69.33 1.66-2.57.51.81 4.09-3.33.66-.73-3.71 2.27-.45-.6-3 3.4-.68-.33-1.66 3.63-.72-.55-2.8 3.4-.67-.65-3.33-2.2.43-.61-3.1 2.57-.51.54 2.73 2.4-.48-.84-4.23 2.59-.52-.61-3.1 2.12-.42.19 1 2.8-.56-.42-2.11 3-.6-.33-1.67-2.5.5-.34-1.74 3-.6-.3-1.51 3.1-.62-.51-2.57-3.18.63.33 1.66-3.4.68.4 2-4.84 1 .28 1.43-5 1-.46-2.34 2.24-.45-.55-2.8-2.77.55-.42-2.12 3.48-.68.43 2.19 3.63-.72-.3-1.51-1.37.29-.4-2 4-.79-.31-1.59-2.8.55-.33-1.66-1.44.28-.25-1.28 6.5-1.29-.21-1.06-2.95.58-.43-2.19 3.48-.69.48 2.42 3-.59.26 1.28 2-.4-.54-2.72-4.08.8-.45-2.27 1.89-.37-.73-3.71 1.74-.34-.23-1.14 3.33-.65-.69-3.48-2.34.46.31 1.59-2.95.58-.66-3.33 2.57-.51-.61-3.09-3.57.71.43 2.18-2 .39.59 3-2.71.54.38 1.94-2.59.52-.43-2.18-3.25.64.35 1.77-1.35.26.36 1.83-4.13.82.35 1.77-2.3.45.64 3.25-3.6.71 1.11 5.6-2.83.56.44 2.24-2.77.55.35 1.77 2.48-.49 1.75 8.85-2.81.55-1.35-6.87-3 .59-.88-4.46 3.12-.62-.61-3.07-2.79.55-.63-3.15 3.43-.68-.7-3.55 2.87-.57-.32-1.63-2.43.48-.44-2.2-2.51.5-.84-4.23 3.2-.63-1-4.87 3.16-.62-.85-4.27-3.87.76.5 2.52-2.11.4.67 3.4-6 1.18 1.72 8.7-4.31.85 2.36 11.93-3.39.67 1.36 6.91-2.87.57-1-5.15-2.28.45-.73-3.71-3.19.63-.76-3.83-5.11 1-1-5-2.52.5.43 2.15-1.92.38-.68-3.43 1.68-.33-.5-2.52-3.11.62.18.88-1.92.37.34 1.72-4 .79-.91-4.59-7 1.39.38 1.91 2.91-.57.58 2.91 2.87-.57.48 2.44 3.19-.63.48 2.43-3.27.65-.3-1.52-4.15.82.35 1.76-2 .38.33 1.64 3.43-.68.27 1.36 4.43-.88.8 4.07 3.63-.72.34 1.72 6.51-1.29.46 2.36-4.83.95.37 1.88 2.52-.5.53 2.68 4.67-.93.26 1.32-4.75.94.58 3 3.51-.69.4 2 2.32-.46.39 2 2.47-.49.46 2.31 4.91-1 .67 3.44-2.59.51.36 1.79 2.43-.48.24 1.2 2.51-.5.61 3.08 2.11-.42.54 2.71-2.43.48-.41-2-2.39.47-.47-2.35-3.15.62-.32-1.6-3.07.61-.27-1.4-1.52.31-.32-1.64-4.87 1-.35-1.75-5.63 1.11-.19-1-2.91.58.31 1.55-5 1 .31 1.55-3.43.68-.39-2-3.83.76-.3-1.52-2.75.54.43 2.2-2.51.49-.4-2-3.59.71.52 2.63-3.83.76.36 1.8-2.8.55.23 1.16-2.79.55.24 1.24-2 .4.2 1-3 .6.72 3.64-2.36.46 3 15.25 2.11-.42-.4-2 3.11-.61-1.13-5.75 2.35-.47.8 4.08 3.28-.65-.47-2.36 1.92-.37-.53-2.68 3.47-.68.73 3.67 3.35-.67-1.59-8 3.39-.67.77 3.87 1.52-.3-.86-4.31 3.44-.67 1 5.22 1.91-.38-.51-2.59 3.27-.65-.71-3.63 2.19-.43.44 2.23 1.8-.35.64 3.23 2.83-.56-.66-3.35 2.43-.48.55 2.75 7.58-1.5-.62-3.11 1.52-.3.51 2.59 4.75-.94.32 1.6-4.63.91.65 3.32-1.59.31-.39-2-2.55.5-.19-.92-3.27.65.33 1.68-1.63.32.32 1.64-2.11.41-.56-2.83-4.79 1 .64 3.23-2.64.52.23 1.13-3.28.65.34 1.7-2 .4.34 1.68-2.16.43.67 3.39-2.51.49.4 2-5.07 1 1.4 7.06-3.47.69.24 1.24-3.43.68.25 1.27-3 .6.5 2.55-2.35.47.55 2.79-3.79.75 1.35 6.82 3.55-.7.51 2.59 2.6-.51-.6-3-1.36.27-.55-2.8 3.39-.67.59 3 2.23-.45-.64-3.23 1.8-.35.82 4.15 3.39-.67-.6-3 2.47-.49.55 2.76 3.23-.64-.79-4 2.95-.59-.9-4.56 3-.6.95 4.76 2.23-.44-1.13-5.7 2.8-.56.84 4.27 2.36-.46-.94-4.75 2-.39.54 2.72 1-.2.26 1.36 1-.2-1.29-6.55 2.19-.43 1.42 7.18 2.36-.46-1.55-7.82 2.31-.46.34 1.71 2.28-.45-.36-1.79 2.4-.47-.59-3 5.54-1.09-1-5 3.19-.63 1.22 6.18-3 .6 1 5-3.07.61.77 3.91-3.15.62 1.42 7.18-1.92.38.84 4.23 2.87-.57.89 4.47-2.32.46.26 1.32-1.07.21.91 4.63 2.87-.57.57 2.88 1.6-.32.83 4.23-2 .4 1.72 8.7 1.48-.29.37 1.87 1.27-.25 1.09 5.51-2.31.46 2.25 11.41 1.24-.25.27 1.36 1.24-.24-.92-4.63 2.12-.42 1.23 6.27 1.72-.34-.64-3.24 2.24-.44.84 4.27-2.55.51 1.21 6.14 3.15-.62-.39-2 1.32-.26 1.34 6.79 3-.59-1.27-6.42 1.32-.26-.21-1 2.56-.5-.88-4.43-2.51.49-.4-2-1 .2-1.1-5.58 2-.41.56 2.8 1.07-.22.22 1.08 2.19-.43-2.21-11.22-2.16.43.66 3.31-5.71 1.13-.56-2.83 2.15-.43-.26-1.35 3.59-.72-1.39-7 2.51-.5-.56-2.83 3-.58-.53-2.68-5 1 .35 1.8-3.27.64-.63-3.19 2.91-.58-.37-1.87 2.84-.56.3 1.55 3.67-.72-.94-4.79-3.19.63-.46-2.31 3.39-.67-1.37-7 3-.58-1.82-9.22-1.88.37-.5-1.57-.92.18-1.66-8.38 4.24-.88 1.73 8.74 1.9-.38.7 3.55 4.63-4.33 2.91 14.71 1.64-.33-.8-4.06 3.46-.69 1.21 6.15 2.69-.53 1 5.19 1.45-.29c-.36-4.22-3.58-37.37-3.63-38.83zM649.24 856.69l-2.96.69-1.04-4.42 3.1-.73-.72-3.05-2.77.65-.73-3.12 3.4-.81-.83-3.52 2.85-.67-.38-1.62-2.41.56-.51-2.17-2.5.58-.99-4.19 3.17-.75-1.13-4.83 3.13-.74-1-4.23-3.84.9.59 2.5-2.26.53.79 3.36-5.94 1.4 2.03 8.63-4.28 1 2.78 11.85-3.36.78 1.61 6.86-2.86.67-1.2-5.11-2.25.53-.87-3.69-3.17.75-.89-3.8-5.07 1.19-1.16-4.95-2.49.58.5 2.14-1.9.45-.8-3.41 1.66-.39-.59-2.49-3.08.72.2.88-1.9.44.4 1.7-3.96.93-1.07-4.55-6.97 1.64.45 1.9 2.89-.68.68 2.89 2.85-.67.56 2.42 3.17-.75.57 2.42-3.25.76-.35-1.5-4.12.96.41 1.75-1.94.45.38 1.63 3.41-.81.31 1.35 4.4-1.03.95 4.04 3.6-.85.4 1.7 6.46-1.51.55 2.33-4.8 1.13.44 1.86 2.5-.58.62 2.65 4.63-1.09.31 1.31-4.71 1.1.69 2.93 3.48-.81.47 2.01 2.3-.54.46 1.95 2.45-.58.54 2.29 4.87-1.14.8 3.41-2.57.6.42 1.78 2.41-.56.28 1.18 2.5-.58.71 3.05 2.1-.5.63 2.7-2.41.56-.48-2.02-2.37.56-.55-2.33-3.13.73-.37-1.58-3.05.71-.33-1.38-1.5.35-.38-1.62-4.83 1.13-.41-1.74-5.59 1.31-.22-.95-2.89.68.36 1.54-4.95 1.17.37 1.54-3.41.8-.46-1.94-3.8.89-.35-1.5-2.73.64.51 2.18-2.5.59-.46-1.98-3.57.83.62 2.62-3.8.89.42 1.78-2.78.65.27 1.15-2.77.65.29 1.23-2.02.48.24 1.02-3.01.71.85 3.6-2.34.55 3.56 15.13 2.1-.49-.48-2.02 3.09-.73-1.34-5.7 2.34-.55.94 4.04 3.25-.76-.55-2.34 1.9-.44-.62-2.66 3.45-.81.85 3.64 3.33-.78-1.87-7.96 3.36-.79.91 3.85 1.5-.36-1-4.27 3.4-.81 1.22 5.19 1.9-.44-.6-2.58 3.24-.76-.84-3.6 2.17-.52.53 2.22 1.78-.42.75 3.21 2.81-.66-.78-3.33 2.42-.56.64 2.73 7.52-1.77-.72-3.09 1.5-.35.61 2.57 4.71-1.11.37 1.59-4.59 1.08.77 3.29-1.58.37-.46-1.94-2.53.59-.22-.91-3.24.76.39 1.67-1.63.38.38 1.62-2.09.49-.67-2.81-4.75 1.12.76 3.21-2.62.61.27 1.12-3.25.77.4 1.69-2.02.47.39 1.66-2.14.51.79 3.36-2.5.59.48 2.02-5.03 1.18 1.65 7.01-3.45.81.29 1.22-3.41.81.3 1.26-2.97.7.6 2.54-2.34.54.65 2.77-3.76.89 1.59 6.77 3.52-.83.61 2.58 2.57-.61-.7-3.01-1.35.32-.65-2.77 3.37-.79.68 2.93 2.22-.53-.75-3.2 1.78-.42.97 4.12 3.36-.79-.7-3.01 2.45-.58.64 2.73 3.21-.75-.93-3.96 2.93-.69-1.06-4.53 3.01-.71 1.11 4.73 2.21-.52-1.33-5.66 2.78-.65.99 4.23 2.34-.55-1.11-4.71 1.94-.45.63 2.69.99-.23.32 1.34.99-.23-1.53-6.49 2.18-.51 1.68 7.12 2.33-.55-1.82-7.76 2.3-.54.4 1.71 2.25-.53-.42-1.79 2.38-.56-.7-2.96 5.51-1.3-1.16-4.91 3.17-.74 1.44 6.14-3.01.7 1.18 4.99-3.05.72.91 3.88-3.13.73 1.68 7.13-1.9.45.98 4.2 2.85-.67 1.04 4.43-2.29.54.3 1.31-1.07.25 1.08 4.59 2.86-.67.66 2.85 1.59-.37.99 4.2-2.02.47 2.02 8.64 1.47-.35.44 1.86 1.26-.29 1.29 5.46-2.3.54 2.66 11.33 1.23-.29.32 1.34 1.22-.28-1.08-4.6 2.1-.49 1.46 6.22 1.7-.4-.75-3.21.68 4.31-8.94-127.61zM683.38 751l.75-5.81 2.38.3-.53 4.12 3.31.42.31-2.38 1.93.25.35-2.71 3.51.45-.48 3.71 3.39.44 1-8.11 3.43.44-.5 3.91 1.53.2.56-4.36 3.47.44-.68 5.29 1.94.25.34-2.63 3.3.43.47-3.67 2.22.28-.29 2.26 1.82.23-.42 3.27 2.87.37.43-3.39 2.46.31-.35 2.79 3.58.46v-.19c-.13-1.8-.79-15.33-.93-15.8a2.78 2.78 0 00-.2-.55l-1.86-.24.12-1-2.94-.37-.21 1.57-5-.65-.2 1.58-3.47-.45.25-2-3.87-.5.2-1.53-2.79-.36-.28 2.22-2.6-.29.25-2-3.63-.47-.34 2.67-3.87-.5-.23 1.82-2.83-.37-.15 1.17-2.82-.36-.16 1.25-2.06-.26-.13 1.05-3.07-.39-.47 3.67-2.38-.31-2 15.42 2.13.27.27-2.06z" fill="#e4e4e2"/><path d="M728.05 773.6a3.08 3.08 0 010-.43c.12-.85-1.42-21-1.91-22.72a1.67 1.67 0 010-.31l-2.57-.33-.21 1.7-1.66-.21-.21 1.65-2.14-.27.37-2.87-4.84-.62-.42 3.27-2.66-.34-.15 1.14-3.31-.42-.22 1.72-2.12-.26-.21 1.69-2.18-.28-.44 3.43-2.54-.32-.27 2-5.12-.65-.91 7.14-3.51-.45-.16 1.25-3.48-.44-.16 1.29-3-.39-.33 2.58-2.38-.3-.36 2.82-3.83-.49-.88 6.9 3.59.46-.34 2.62 2.62.34.4-3.07-1.38-.17.36-2.83 3.43.44-.38 3 2.26.29.42-3.27 1.82.23-.54 4.2 3.43.44.39-3.07 2.5.32-.35 2.79 3.26.41.52-4 3 .38.59-4.61 3.06.39-.61 4.81 2.26.29.74-5.77 2.82.37-.55 4.31 2.38.31.61-4.8 2 .25-.35 2.74 1 .13-.18 1.37 1 .13.85-6.61 2.22.28-.93 7.26 2.38.31 1-7.91 2.34.3-.22 1.73 2.3.3.23-1.82zM733.46 848.44c1.76-12.69-4.09-61.86-4-67.28l-2.27-.29-.93 7.26-1.94-.25-.55 4.28 2.91.37-.58 4.52-2.34-.3-.17 1.33-1.09-.14-.6 4.68 2.91.37-.38 2.91 1.62.21-.55 4.27-2.06-.26-1.12 8.8 1.49.19-.24 1.89 1.29.17-.72 5.57-2.34-.3-1.49 11.56 1.25.16-.18 1.37 1.25.16.6-4.68 2.14.27-.81 6.34 1.73.22.42-3.27 2.26.29-.55 4.32-2.58-.33L725 849l3.19.41.26-2 1.33.17-.88 6.86 3 .38.83-6.49z" fill="#e4e4e2"/><path d="M179.36 1114.42c0 1-.05 2.08-.07 3.13l1.12-.16-.43-3.06zM294.19 1041.17l-3.83.53-.32-2.29-1.07.15-.22-1.6-3.75.52.3 2.14-2.11.29-.17-1.22-3.08.43.36 2.6-1.52.21-.23-1.6-4.43.62.3 2.14-1.3.18.11.76-.92.13.17 1.22-1.68.24-.23-1.68-3.36.47.3 2.14-3.29.45.27 1.91-2.06.29.23 1.68-2.74.39.49 3.51-3 .41.24 1.76-2.74.39.18 1.29-3.52.5.24 1.67-2.6.37.58 4.12-3.36.47-.52-3.74 2.29-.32-.43-3.06 3.44-.48-.24-1.68 3.67-.51-.4-2.82 3.44-.48-.47-3.36-2.22.31-.43-3.14 2.59-.36.39 2.75 2.42-.34-.6-4.27 2.62-.37-.44-3.13 2.14-.3.14 1 2.82-.39-.3-2.14 3.06-.43-.24-1.68-2.52.35-.24-1.75 3.05-.43-.21-1.53 3.13-.43-.36-2.6-3.21.45.23 1.68-3.43.48.29 2.06-4.89.68.2 1.45-5 .71-.33-2.37 2.27-.31-.4-2.83-2.8.39-.3-2.14 3.52-.49.31 2.22 3.66-.52-.21-1.52-1.45.2-.29-2.06 4-.57-.23-1.6-2.82.39-.24-1.68-1.45.21-.18-1.3 6.57-.92-.15-1.07-3 .42-.31-2.22 3.51-.49.34 2.44 3.06-.42.18 1.29 2.06-.28-.38-2.75-4.13.58-.32-2.3 1.91-.26-.52-3.74 1.75-.25-.16-1.15 3.36-.47-.49-3.51-2.36.33.22 1.61-3 .41-.47-3.36 2.6-.36-.44-3.13-3.6.51.3 2.2-2 .28.42 3-2.73.38.27 2-2.62.37-.31-2.21-3.27.46.25 1.79-1.37.19.26 1.84-4.17.59.25 1.78-2.32.33.45 3.27-3.63.51.79 5.66-2.85.4.31 2.26-2.8.39.25 1.79 2.5-.35 1.25 8.93-2.83.39-1-6.93-3 .42-.63-4.5 3.15-.44-.44-3.11-2.82.4-.44-3.19 3.46-.48-.5-3.59 2.9-.4-.23-1.65-2.34.35-.31-2.21-2.53.35-.6-4.27 3.22-.45-.69-4.92 3.19-.44-.61-4.31-3.9.55.35 2.53-2.3.32.48 3.43-6 .84 1.23 8.79-4.35.6 1.68 12-3.42.48 1 7-2.9.4-.73-5.19-2.29.32-.52-3.75-3.23.45-.54-3.87-5.16.73-.7-5-2.54.35.31 2.18-1.94.27-.48-3.46 1.69-.24-.35-2.54-3.15.44.13.89-1.94.27.25 1.73-4 .56-.65-4.63-7.09 1 .27 1.94 2.94-.42.41 3 2.9-.41.35 2.46 3.22-.45.34 2.45-3.3.47-.22-1.54-4.18.59.24 1.77-2 .28.23 1.65 3.46-.48.2 1.37 4.47-.63.57 4.11 3.67-.51.24 1.73 6.57-.92.33 2.38-4.87.68.26 1.89 2.54-.35.37 2.7 4.72-.66.18 1.33-4.79.67.42 3 3.54-.5.29 2.06 2.34-.33.27 2 2.5-.35.33 2.33 4.95-.69.49 3.46-2.62.37.25 1.81 2.46-.34.17 1.21 2.54-.36.34 3.03 2.13-.3.39 2.74-2.46.34-.29-2.06-2.41.34-.34-2.37-3.18.44-.23-1.61-3.1.43-.19-1.41-1.53.22-.24-1.65-4.91.68-.25-1.77-5.68.8-.13-1-2.95.41.22 1.57-5 .7.22 1.58-3.47.48-.27-2-3.87.54-.21-1.53-2.78.38.31 2.22-2.54.36-.28-2-3.49.49v.93l.24 1.75h-.26q-.07 4-.21 8c-.08 2.62-.18 5.25-.29 7.87l2.33-.33.52 3.71 3.38-.48-1.13-8.09 3.42-.48.55 3.91 1.53-.22-.61-4.35 3.47-.48.73 5.27 1.94-.27-.37-2.62 3.3-.46-.51-3.66 2.22-.31.28 2.29 1.82-.25.45 3.26 2.86-.4-.47-3.38 2.46-.34.39 2.78 7.65-1.08-.44-3.14 1.53-.21.37 2.62 4.79-.67.23 1.61-4.68.65.47 3.35-1.61.22-.28-2-2.57.36-.13-.93-3.31.46.24 1.69-1.65.24.23 1.65-2.14.3-.4-2.86-4.83.67.46 3.26-2.66.38.16 1.14-3.31.46.24 1.72-2.05.29.23 1.69-2.17.3.48 3.43-2.54.35.29 2.06-5.12.71 1 7.13-3.51.49.18 1.25-3.47.48.18 1.29-1.56.22c-.13 3.08-.24 6.17-.34 9.25l2.2-.31.42 3 2.25-.31-.45-3.26 1.81-.26.58 4.19 3.43-.48-.43-3.06 2.5-.35.39 2.78 3.26-.45-.56-4 3-.42-.65-4.61 3.06-.43.68 4.81 2.25-.31-.8-5.76 2.82-.4.6 4.31 2.38-.33-.67-4.79 2-.28.38 2.74 1-.14.19 1.37 1-.14-.92-6.61 2.21-.31 1 7.25 2.37-.33-1.1-7.89 2.34-.33.24 1.73 2.29-.32-.25-1.81 2.42-.34-.43-3 5.6-.79-.69-5 3.22-.45.87 6.24-3.06.43.71 5.08-3.1.43.55 4-3.18.44 1 7.26-1.93.27.59 4.26 2.91-.4.63 4.51-2.34.33.19 1.33-1.09.15.65 4.67 2.9-.4.41 2.9 1.61-.23.6 4.27-2.06.29 1.23 8.78 1.49-.21.26 1.9 1.29-.18.78 5.56-2.34.32 1.62 11.53 1.24-.18.2 1.37 1.25-.17-.66-4.68 2.14-.3.88 6.33 1.73-.24-.45-3.27 2.25-.31.61 4.31-2.58.36.87 6.2 3.18-.44-.28-2 1.33-.18.95 6.85 3-.42-.9-6.49 1.33-.18-.15-1.05 2.58-.36-.63-4.47-2.53.35-.29-2-1 .14-.79-5.64 2.05-.28.4 2.82 1.08-.15.16 1.08 2.21-.31-1.58-11.32-2.18.31.47 3.34-5.76.81-.4-2.86 2.18-.31-.2-1.37 3.63-.5-1-7.09 2.54-.36-.4-2.86 3-.42-.38-2.7-5 .71.26 1.81-3.31.46-.45-3.22 2.94-.41-.26-1.89 2.86-.4.22 1.57 3.71-.52-.68-4.84-3.22.46-.33-2.34 3.42-.48-1-7 3-.42-1.31-9.3-1.89.26-.22-1.61-.93.13-1.18-8.46 4.27-.64 1.24 8.82 1.92-.27.5 3.59 4.87-4.07 2.07 14.85 1.66-.23-.57-4.11 3.49-.48.87 6.2 2.71-.38.73 5.24 2.45-.34.88 6.29h.19a59.65 59.65 0 011.14-7.64l-.13-1h.35c.56-2.48 1.24-5 2-7.37 1.09-3.54 2.31-7 3.52-10.52l-.27-2 1-.14c.15-.42.3-.85.44-1.27l-.05-.42-2.68.37.25 1.76-3 .42-.42-3 3.13-.44-.48-3.44-2.52.36-.41-3-2.75.39-.18-1.28-1.45.2-.19-1.32-2.06.29-.17-1.22 2.22-.31-.21-1.45 4-.56-.16-1.15-2.13.3-.24-1.68-5.73.81-.28-2.07-3.44.48-.41-2.9-2.52.35-.38-2.75-2.52.36-.3-2.14-1.68.23-.13-.91-3.28.46-.58-4.13 5.19-.72.21 1.45 1.45-.2.24 1.75 6-.83.66 4.73 1.77-.25-.35-2.52 3.1-.43.73 5.27 1.38-.19-.35-2.52 2.36-.33-.24-1.76 4.58-.64.45 3.21 4.35-.61-.22-1.61 3.66-.51.46 3.28-3.21.45.24 1.68-2.14.3.14 1 1.83-.25.44 3.13 1.76-.25-.23-1.6 1.24-.17c.61-2.59 1.19-5.18 1.77-7.76.9-4 1.73-8 2.46-12.06l-6 .83-.2-1.45-7.56 1.06-.21-1.53-2.83.39.35 2.52-2.82.4-.12-.84-4.2.59-.23-1.68-3.21.44.34 2.45-3.44.48-.17-1.22-3.66.51.3 2.14-3.36.47-.47-3.36 3.51-.49-.31-2.22 1.3-.18.2 1.45 4.68-.65-.35-2.52 3.18-.45.14 1 2-.27-.14-1 3.74-.52.17 1.22 7.1-1-.41-3 1.75-.24-.23-1.68-1.38.19-.47-3.36 2.52-.35.4 2.82 2.75-.38.23 1.68-2.21.31.21 1.52 1.07-.15.17 1.22 1.68-.23-.26-1.91.84-.12.24 1.76 1.3-.18.22 1.6 2.52-.35-.34-2.44 2.81-.4c.6-5.25 1.15-10.46 1.41-15.7z" fill="#fff"/><path d="M740.87 1015.17l-2 .27-.29-2.06 4.74-.66-.18-1.22-2.44.34-.31-2.21-1.37.19-.16-1.15-1.45.21.22 1.6-1.6.22-.44-3.13-2.37.33-.38-2.75-5.5.77-.34-2.92-4.73.66.2 1.45-.91.13-.26-1.83-2.6.36-.39-2.82-2 .28.5 3.58-2.52.36-.5-3.59-2.21.31-.28-2-1.3.18-.19-1.37-9.55 1.33-.2-1.45-7.56 1.06-.21-1.53-2.83.4.35 2.52-2.82.39-.12-.84-4.2.59-.23-1.68-3.21.45.34 2.44-3.44.48-.17-1.22-3.66.51.3 2.14-3.36.47-.47-3.36 3.51-.49-.31-2.22 1.3-.18.2 1.45 4.68-.65-.35-2.52 3.18-.45.14 1 2-.28-.14-1 3.74-.53.17 1.23 7.1-1-.41-3 1.75-.25-.23-1.68-1.38.19-.47-3.36 2.52-.35.4 2.82 2.75-.38.23 1.68-2.21.31.21 1.53 1.07-.15.17 1.22 1.68-.24-.26-1.9.84-.12.24 1.75 1.3-.18.22 1.61 2.52-.36-.34-2.44 3.44-.48-.27-1.91 2.29-.32-.25-1.83 2.9-.41.61 4.35-2.68.38.12.84-1.53.21.2 1.38 2.21-.31-.19-1.38 2.75-.38-.18-1.3 1.52-.21-.12-.92 1.37-.19-.24-1.68 1.07-.15.44 3.13-2 .28.3 2.13 2.74-.38-.19-1.37 2.37-.34-.33-2.36 2.21-.31.35 2.44 2.59-.36-.23-1.68 1.07-.15.15 1.07 1.52-.22.27 1.91 2.44-.34.39 2.75 4.2-.59-.24-1.68 1.84-.25-.28-2 2.9-.4.42 3 2.75-.38-.46-3.28-1.91.26-.52-3.66-5.57.78-.38-2.75-3.52.49-.36-2.6-1.91.27.12.84-2.29.32-.21-1.45-2.52.35-.14-1-3.13.44.12.84-2 .27-.22-1.52-1.37.19-.26-1.83 2.52-.36L719 977l-3.9.54-.32-2.29-1.53.21-.25-1.83-3.36.47.32 2.29-4.89.69-.32-2.29-1.07.15-.22-1.61-3.74.52.28 2.15-2.11.3-.17-1.22-3.08.43.36 2.59-1.52.22-.23-1.61-4.43.62.3 2.14-1.3.18.11.77-.92.12.18 1.23-1.68.23-.24-1.68-3.36.47.3 2.14-3.28.46.26 1.91-2.06.29.24 1.67-2.75.39.49 3.51-3 .42.25 1.76-2.75.38.18 1.3-3.52.49.24 1.68-2.6.36.58 4.13-3.36.47-.52-3.75 2.39-.4-.43-3 3.44-.48-.24-1.68 3.67-.51-.4-2.83 3.44-.48-.47-3.36-2.22.31-.43-3.13 2.59-.36.39 2.74 2.42-.33-.6-4.28 2.62-.37-.44-3.13 2.14-.3.14 1 2.82-.4-.3-2.14 3.06-.42-.24-1.68-2.51.35-.25-1.76 3.05-.43-.21-1.52 3.13-.44-.36-2.6-3.21.45.24 1.68-3.44.48.29 2.06-4.89.69.2 1.45-5 .7-.33-2.36 2.27-.32-.4-2.83-2.8.4-.3-2.14 3.52-.49.31 2.21 3.66-.51-.21-1.53-1.45.2-.29-2.06 4.05-.56-.23-1.61-2.82.4-.24-1.68-1.45.2-.18-1.3 6.57-.92-.15-1.07-3 .42-.31-2.21 3.51-.5.34 2.45 3.06-.43.18 1.3 2.06-.29-.38-2.75-4.13.58-.32-2.29 1.91-.27-.52-3.74 1.76-.25-.16-1.14 3.35-.47-.49-3.51-2.36.33.22 1.6-3 .42-.47-3.36 2.6-.37-.44-3.12-3.6.5.3 2.21-2 .28.42 3-2.73.38.27 2-2.62.37-.31-2.2-3.27.45.25 1.79-1.37.19.26 1.85-4.17.58.25 1.79-2.32.32.45 3.28-3.63.5.79 5.66-2.91.34.31 2.26v1.83l1.25 8.93-1.73.24c3.35 17.69 4.67 53.65 4.67 53.65l3.76-.57 1.24 8.83 1.92-.27.5 3.58 4.87-4.07 2.07 14.86 1.66-.23-.57-4.11 3.49-.49.87 6.2 2.71-.38.73 5.25 2.45-.35.88 6.3 2.36-.34-1.16-8.3 3-.41.94 6.73 2.27-.32 1.75 12.49 2.88-.4-.55-3.93 3.23-.45.92 6.55 2.62-.37.39 2.8 2-.28.78 5.59 3.23-.45-1.46-10.49-2.54.36-.67-4.81-2.44.34-.53-3.75 2.45-.34-.33-2.36-2.54.35-.51-3.67 3.32-.46-.33-2.36-4.84.68-1.1-7.89 2.59-.36-.39-2.28-2.83.39.15 1.07-2.6.37-.36-2.6 2.22-.31-.23-1.6-2.37.33-.2-1.45-.91.12-.3-2.13 1-.14-.33-2.37-1.45.2-.32-2.29 1.6-.22-.22-1.61-2.68.38.25 1.75-3 .42-.42-3 3.13-.43-.48-3.44-2.52.35-.41-3-2.75.38-.18-1.27-1.45.2-.18-1.33-2.07.29-.17-1.22 2.22-.31-.21-1.45 4-.56-.16-1.14-2.13.3-.24-1.68-5.73.8-.28-2.06-3.44.48-.41-2.9-2.52.35-.38-2.75-2.52.35-.3-2.14-1.68.24-.13-.92-3.28.46-.58-4.12 5.19-.73.21 1.45 1.45-.2.24 1.76 6-.84.67 4.73 1.76-.24-.35-2.52 3.1-.44.73 5.27 1.38-.19-.35-2.52 2.36-.33-.24-1.76 4.58-.64.45 3.21 4.35-.61-.22-1.6 3.66-.52.46 3.29-3.21.45.24 1.68-2.14.3.14 1 1.83-.26.44 3.13 1.76-.24-.23-1.61 2.6-.36-.3-2.14 1.17-.16-.09-.61 1.74-.24.66 4.73-1.91.27.34 2.44 4.2-.59-.82-5.88 2.21-.31.59 4.2 2.52-.35.77 5.5 2.75-.38-.56-4-2.21.31-.66-4.74 1.22-.17-.43-3.06 2.9-.4.42 3 2.75-.39-.41-2.9 1.76-.24.57 4-2 .28.43 3.06 2.67-.38-.42-3 2-.28-.58-4.12 1.84-.25.13 1 1.23-.17.44 3.2-.91.13.26 1.91-2.13.3.31 2.22 1-.14.15 1.07 2.06-.29-.5-3.59 2.14-.3.56 4 1.45-.21-.15-1.07 1.15-.16-.56-4 4.82-.67.48 3.44 2.21-.31-.17-1.22.76-.11z" fill="#e4e4e2"/><path d="M401.65 767.49c-31.7-167-14-237.52-17.83-248.78-.7-2.07-120.46 75.13-164.91 102C163.63 654.19 192.24 945 192.24 945s-27.68 203.28-2.3 287.31c2.37 15.93 3.05 28 6.43 41.39l64-1.5s-4.07-29.78-3.11-42.45c12.87-27.53 13.71-91.47 23.53-122.42 6-18.8 10.39-47.35 12.94-66.87a165.61 165.61 0 01-1.33 19.91c-3.73 22.74-25 83.8-14.05 144.17-3 26.45 2.81 153.15 2.81 153.15s152.61 54.81 160-122.61c4.7-115.5-8.08-301.98-39.51-467.59z" fill="none" stroke="#262521" stroke-linecap="round" stroke-linejoin="round" stroke-width="3"/><path d="M281.12 1357.71s152.61 54.81 160-122.61c4.78-115.52-8-302-39.43-467.61-31.7-167-14-237.52-17.83-248.78" fill="none" stroke="#636363" stroke-linecap="round" stroke-linejoin="round"/><path d="M735.33 912.32s-1.4-298-58.88-331.94c-11.19-6.61-158.61-67.76-158.61-67.76s8.21 105.2-4.85 267.77c-13 162 2.23 251.47 31.16 482.47 13.23 105.59 148.54 78.29 148.54 78.29s-7.61-122-11.51-153.31c3.94-36.14-5.66-81.16-16.45-126.52 13.84 47.61 27 143 37.17 152.17 1.64 26.39 1.89 36.36 1.89 36.36l64.1-1.5s-1-14.31-2.6-35.73c25.62-83.14-29.96-300.3-29.96-300.3z" fill="none" stroke="#262521" stroke-linecap="round" stroke-linejoin="round" stroke-width="3"/><path d="M517.84 512.62s8.21 105.2-4.85 267.77c-13 162 2.23 251.47 31.16 482.47 13.23 105.59 148.54 78.29 148.54 78.29M285.8 1335.53S393.17 1362 404 1275.81c16.58-131.82-8.4-393.92-27.33-493.7C345 615.06 360 534.12 360 534.12" fill="none" stroke="#636363" stroke-linecap="round" stroke-linejoin="round"/><path d="M543.16 526.42s7.71 110.19-5.35 272.76c-6.76 84.13 11.32 263.05 25.32 380.59 5.76 48.38 8.92 91.44 27.58 111.19 36.08 38.17 94.78 22.44 94.78 22.44" fill="none" stroke="#636363" stroke-linecap="round" stroke-linejoin="round"/><circle cx="523.9" cy="904.31" r="6.13" fill="none" stroke="#636363" stroke-linecap="round" stroke-linejoin="round" stroke-width=".74"/><circle cx="530.22" cy="1017.32" r="6.13" fill="none" stroke="#636363" stroke-linecap="round" stroke-linejoin="round" stroke-width=".74"/><circle cx="542.48" cy="1123.28" r="6.13" fill="none" stroke="#636363" stroke-linecap="round" stroke-linejoin="round" stroke-width=".74"/><circle cx="557.11" cy="1241.98" r="6.13" fill="none" stroke="#636363" stroke-linecap="round" stroke-linejoin="round" stroke-width=".74"/><path d="M664.73 1061.32s-2.89-43.72-9.6-114.93c-4.46-47.39-8.56-138.8-8.56-138.8M285.64 807.59s6.17 50.77 6.72 100.52 2.1 112.51 1.33 132.37" fill="none" stroke="#262521" stroke-linecap="round" stroke-linejoin="round" stroke-width="3"/></svg>