<svg xmlns="http://www.w3.org/2000/svg" width="1000" height="1550" viewBox="0 0 1000 1550"><path d="M752.22 1045.69c-3.84-55.86-22.89-124.63-22.89-124.63s-14.58-306.95-52.88-331.94c-10.88-7.1-142.29-56.2-142.29-56.2S473 632.66 457.89 633.61s-104.12-81.78-92.79-97.09a11.55 11.55 0 01-.75-2.59c-1 .65-100.94 62.7-145.44 89.5-44.73 27-26.67 324.28-26.67 324.28a619.79 619.79 0 00-3.6 128.12c5.52 68.42-1.88 179.2 14.45 197.94l61-1.5s-5.61-14.34-4.66-27c2.24-30.27 5.5-104.27 15.32-135.27s21.45-88.31 21.45-88.33c-17.74 81.89-29.53 333.81-5.49 484.77 12.93 27.82 406.05 22.22 411.93-6 5.53-26.53-27.61-383.35-41.32-442.79 17.07 47.16 40.24 141.72 42.46 177.42 1.63 26.38 61 19.27 61 19.27s4.49-6.67 5.3-18.89-12.29-108.45-17.86-189.76z" fill="#262521" stroke="#262521" stroke-linecap="round" stroke-linejoin="round" stroke-width="3"/><path fill="#fff" d="M584.62 1521.77l-18.58 1.3L523.51 576l18.58-.8 42.53 946.57zM619.34 1519.85l-21.43.92-43.22-963.54 21.43-.93 43.22 963.55zM665.71 1513.54l-29.47 3.83-43.11-962.82 30.31 10.21S633.65 721 633.65 771.6s-9.32 63.82-.85 110.82 11.46 93.74 11.46 93.74z"/><path d="M366.85 529.46s30.59 50.15 85.12 50.15 78.34-50.15 78.34-50.15l23.76 12.06-97.5 98.38-135.49-76.77z" fill="#fff" stroke="#262521" stroke-linecap="round" stroke-linejoin="round" stroke-width="3"/><path d="M364.35 533.93h0s.01-.03 0 0z" fill="#262521" stroke="#262521" stroke-linecap="round" stroke-linejoin="round" stroke-width="3"/><path d="M290.71 1506.48c12.93 27.82 406.05 22.22 411.93-6" fill="none" stroke="#636363" stroke-linecap="round" stroke-linejoin="round"/><path d="M290.71 1506.48c12.93 27.82 406.05 22.22 411.93-6M676.45 589.12c-10.88-7.1-142.29-56.2-142.29-56.2" fill="none" stroke="#262521" stroke-linecap="round" stroke-linejoin="round" stroke-width="3"/><path d="M384.43 505.56c-9.76.89-16.24 2.61-18.33 5.58-7.68 10.89-16.72 12.57-16.72 12.57s-19.3 5.48-26.11 10.22c-9.13 6.35-25.57 26.91-20.95 35.37 41.38 4.29 141.28 80.7 155.57 80.49 8.12-.12 53.71-61.83 95.26-84.57 19.67-10.76 35.74-11.81 37.73-12.43 6.77-2.12-2-4.86-9.3-9.27s-6.69-11.52-9.47-16.86-13.87-2-13.87-2-.45-1.75-13.18-13.56-20.95-10.07-31-9.79l3.76 20.56c8.3 2.91 15.06 9.07 12.58 16.37-3.23 9.52-59.78 86.62-74.16 86.85s-88.64-82.13-90.61-90.35c-1.6-6.7 8.82-5.6 15.86-11.17z" fill="#262521"/><path d="M577.06 536.32s-6.63-12.94-6.84-12.44c-2.12 5.18-17.47 33.44-37.39 55.85-1.11 1.29 22.1-16.42 30.56-18.42 6.88-6.42 13.67-24.99 13.67-24.99z" fill="#fff"/><path d="M384.43 505.56c-9.76.89-16.24 2.61-18.33 5.58-7.68 10.89-16.72 12.57-16.72 12.57s-19.3 5.48-26.11 10.22c-9.13 6.35-25.57 26.91-20.95 35.37 41.38 4.29 141.28 80.7 155.57 80.49 8.12-.12 53.71-61.83 95.26-84.57 19.67-10.76 35.74-11.81 37.73-12.43 6.77-2.12-2-4.86-9.3-9.27s-6.69-11.52-9.47-16.86-13.87-2-13.87-2-.45-1.75-13.18-13.56-20.95-10.07-31-9.79l3.76 20.56c8.3 2.91 15.06 9.07 12.58 16.37-3.23 9.52-59.78 86.62-74.16 86.85s-88.64-82.13-90.61-90.35c-1.6-6.7 8.47-3.26 15.36-11.17z" fill="none" stroke="#262521" stroke-linecap="round" stroke-linejoin="round" stroke-width="3"/><path d="M302.32 569.3c41.38 4.29 141.28 80.7 155.57 80.49 8.12-.12 53.71-61.83 95.26-84.57 19.67-10.76 35.74-11.81 37.73-12.43" fill="none" stroke="#636363" stroke-linecap="round" stroke-linejoin="round" stroke-width="1.34" opacity=".95"/><path d="M498 597.1c2.34 33.3 2.81 66.69 2.83 100.06s-.38 66.52.26 99.77c.36 18.85 1.06 37.69 2.32 56.5.13 1.92 3.13 1.93 3 0-2.25-33.49-2.68-67.06-2.68-100.62 0-33.21.38-66.41-.3-99.61-.39-18.72-1.11-37.42-2.43-56.1-.13-1.91-3.13-1.93-3 0z" fill="#636363"/><path d="M505.28 827.84c-2.91 0-4.35 4.13-2.21 6.06a3.67 3.67 0 004.34.32 3.93 3.93 0 002-3.87 4.59 4.59 0 00-3-3.59 4.69 4.69 0 00-4.36.61 5.93 5.93 0 00-2.45 3.73 5.31 5.31 0 001.07 4.35 3.55 3.55 0 004.61.82 3.33 3.33 0 001.4-4.51 1.5 1.5 0 10-2.59 1.52s.07.14.09.14-.09-.3-.08-.17a.42.42 0 000 .12c.05.16-.1.06 0-.17v-.09a1.57 1.57 0 00-.08.31s.18-.34.05-.14l-.06.11-.06.1c-.09.15-.08 0 .08-.1-.06 0-.13.14-.17.19s-.13.09-.13.11.27-.19.09-.08a2.2 2.2 0 01-.26.15c-.27.16.23 0 0 0a.92.92 0 00-.25.06h.15-.17c-.05 0-.22 0 0 0s.05 0 0 0H503.27a1.38 1.38 0 00-.24-.14c-.16-.08 0-.08.09.08 0 0-.11-.09-.14-.12s-.14-.16-.22-.23.1.11.1.13-.07-.1-.08-.12l-.16-.27a.67.67 0 00-.08-.17c.05 0 .11.31.05.1a5.87 5.87 0 01-.16-.6c-.08-.36 0 .24 0 0v-.39-.33.03c0-.02 0-.22.08-.33a2 2 0 00.13-.39s-.12.26-.05.12l.09-.19c0-.09.1-.18.16-.27s.2-.23.2-.3-.19.22-.08.1.11-.13.17-.2l.25-.25s.29-.26.13-.11.12-.09.18-.12a2.43 2.43 0 01.35-.2c.23-.13-.29.1.06 0l.29-.09h.06a1.8 1.8 0 00.4 0h.15c.2 0-.3-.07-.1 0l.29.07.2.06c.15 0-.12-.05-.13-.06s.25.12.36.19.17.15.25.16c-.17 0-.19-.16-.07 0l.12.1c.05 0 .17.23.24.25s-.17-.24-.09-.11l.14.21a1.08 1.08 0 00.14.26c-.15-.16-.09-.23-.05-.09s0 .1.05.14a1.42 1.42 0 000 .2v-.16a1.69 1.69 0 000 .39s.08-.32 0-.19a.61.61 0 000 .13s-.14.39 0 .15 0 .06-.08.13l-.07.11c-.08.15.22-.25 0-.07l-.18.19s-.12.09-.13.12.25-.17.13-.1a2.26 2.26 0 00-.26.16l-.12.06c-.15.1.33-.11.08 0l-.25.07H505.49a2.81 2.81 0 00-.29 0c-.05 0-.21 0 0 0h-.12c-.13 0 .3.18.08 0l-.11-.07c-.13 0 .19.19.12.1s-.28-.3-.11-.08 0-.07-.05-.12.08.18.08.2a.58.58 0 00-.06-.17c0-.07-.08-.42 0-.12s0 0 0-.09v-.15.18c0 .03 0-.2.06-.29l.05-.14c.05-.19-.05.12-.07.15a2 2 0 00.13-.25.47.47 0 00.06-.09c0-.11-.25.26-.09.11a1.26 1.26 0 00.2-.2s-.27.17-.16.14l.11-.07c.26-.17-.32.12 0 0s-.38 0 0 0a1.5 1.5 0 000-3zM401.65 603.1q3.54 50.11 4.7 100.34 1.17 50 0 99.94-.66 28-2.07 56c-.1 1.93 2.9 1.93 3 0q2.5-50.16 2.67-100.41.13-50-2.06-99.92-1.23-28-3.21-56c-.13-1.91-3.13-1.93-3 0z" fill="#636363"/><path d="M407.07 833.84c-2.9 0-4.35 4.13-2.21 6.06a3.67 3.67 0 004.34.32 3.94 3.94 0 002-3.87 4.61 4.61 0 00-3-3.59 4.69 4.69 0 00-4.36.61 5.91 5.91 0 00-2.46 3.73 5.34 5.34 0 001.07 4.35 3.56 3.56 0 004.61.82 3.34 3.34 0 001.41-4.51 1.51 1.51 0 10-2.6 1.52s.08.14.09.14-.09-.3-.07-.17a.42.42 0 000 .12c.05.16-.1.06 0-.17a.48.48 0 000 .12 1.4 1.4 0 000-.21 1.57 1.57 0 00-.08.31s.18-.34.06-.14l-.06.11-.07.1c-.09.15-.07 0 .08-.1-.05 0-.12.14-.17.19a.75.75 0 00-.13.11c0-.05.28-.19.1-.08s-.17.11-.26.15c-.28.16.22 0 0 0a.92.92 0 00-.25.06h.15-.17s-.21 0 0 0 .05 0 0 0H405.07c.02 0-.21-.12-.24-.14s0-.08.09.08c0 0-.11-.09-.14-.12l-.21-.23c-.11-.1.1.11.09.13s-.06-.1-.07-.12a1.91 1.91 0 01-.16-.27s-.07-.16-.08-.17.11.31 0 .1-.11-.39-.16-.6c-.07-.36 0 .24 0 0v-.39-.33.03c0-.02.05-.22.08-.33a2 2 0 00.13-.39s-.12.26 0 .12a1.63 1.63 0 01.09-.19c0-.09.1-.18.15-.27s.2-.23.2-.3l-.08.1c.06-.06.11-.13.17-.2l.26-.25.12-.11c-.17.14.13-.09.18-.12s.24-.14.35-.2-.28.1.07 0a1.4 1.4 0 01.29-.09H406.25a1.79 1.79 0 00.4 0h.15c.21 0-.29-.07-.1 0l.3.07.19.06c.15 0-.12-.05-.13-.06s.26.12.36.19.18.15.26.16c-.17 0-.19-.16-.07 0l.11.1c.05 0 .17.23.24.25s-.17-.24-.08-.11l.13.21a1.59 1.59 0 00.14.26c-.15-.16-.08-.23 0-.09s0 .1 0 .14a1.42 1.42 0 010 .2v-.16a1.27 1.27 0 000 .39s.08-.32 0-.19v.13s-.13.39 0 .15 0 .06-.08.13l-.07.11c-.08.15.23-.25.05-.07l-.19.19s-.12.09-.13.12.26-.17.13-.1-.17.11-.26.16l-.12.06c-.14.1.33-.11.08 0l-.24.07a1 1 0 00-.17 0h.19-.3c-.1 0-.21 0 0 0h-.12c-.13 0 .3.18.09 0l-.12-.07c-.13 0 .2.19.12.1s-.27-.3-.1-.08 0-.07-.06-.12.08.18.08.2 0-.13-.05-.17-.08-.42 0-.12 0 0 0-.09v-.15.18c0 .03 0-.2.06-.29s0-.09 0-.14-.05.12-.07.15a2 2 0 00.13-.25.47.47 0 00.06-.09c0-.11-.25.26-.08.11s.17-.14.19-.2-.27.17-.16.14l.12-.07c.25-.17-.33.12 0 0s-.39 0 0 0a1.5 1.5 0 100-3z" fill="#636363"/></svg>