<svg xmlns="http://www.w3.org/2000/svg" width="1250" height="1550" viewBox="0 0 1250 1550"><title>s05e11-01</title><path d="M497.19,529.67l0,0S497.19,529.64,497.19,529.67Z" fill="#262521"/><path d="M879.72,1045c-3.84-55.87-22.89-124.63-22.89-124.63s-14.58-307-52.88-331.94c-2.79-1.82-17.13-14.61-32.13-20.62C763.47,564.47,747,564.87,737,561c-42.07-16.31-89.29-35.29-89.29-35.29S659,535.83,640.23,565c-10.78,9.78-29.19,17.79-60.54,17.79-55.62,0-73.79-39.92-77.89-51.59-.33-.92,5.85-3.74,8.48-8.58,3-5.54,1.57-13.64,1.57-13.64S500,528.49,498.73,529.29c-15.35,9.49-111.24,68.7-152.32,93.45C301.68,649.69,319.74,947,319.74,947a619.73,619.73,0,0,0-3.6,128.12c5.52,68.42,7.51,230.27,14,240.15,11.76,18,69.64.26,72.14-9.88s-12.81-48.18-11.86-60.85c2.28-30.22,2-104.26,11.86-135.21,4.92-15.48,9.79-35.43,13.93-53.64h.07c-36.13,137.94,9.32,461.17,9.32,461.17s150.24-7.52,227.23-8.45c137.53-1.66,183.66-79,183.66-79s-25.72-174.7-26.5-188.3c18.43-44.24-2.17-100.25-11.09-154.65h0c15.34,46.59,27,103,28.87,132.82,1.63,26.39-7.51,68.21-4.21,75.31s50.86,20.46,73.83,3.07c2.05-12.62-2.15-50.68-1.34-62.9S885.29,1126.26,879.72,1045Z" fill="#262521" stroke="#262521" stroke-linecap="round" stroke-linejoin="round" stroke-width="3"/><path d="M425.57,1516.89s150.24-7.52,227.23-8.45c137.53-1.66,183.66-79,183.66-79" fill="none" stroke="#636363" stroke-linecap="round" stroke-linejoin="round"/><path d="M635.82,1103.05c-102.91,35.36-324.47-435-321.46-465.67C352.28,590.81,463,542.51,463,542.51s32.85-35.65,48.9-33.57c0,0-19.32,12-13.21,34.58" fill="#262521" stroke="#262521" stroke-linecap="round" stroke-linejoin="round" stroke-width="3"/><path d="M657.63,1199.25c-102.28,123-275.47-388.58-330.49-519.63" fill="none" stroke="#636363" stroke-linecap="round" stroke-linejoin="round"/><path d="M626.71,1218.66s75.18,52.86,176.89,23.91" fill="none" stroke="#636363" stroke-linecap="round" stroke-linejoin="round"/><path d="M418.86,1278.54s150.66-27.37,160.18-81.78" fill="none" stroke="#636363" stroke-linecap="round" stroke-linejoin="round"/><path d="M429,1461.68S681.69,1346,681.69,1242.83" fill="none" stroke="#636363" stroke-linecap="round" stroke-linejoin="round"/><path d="M610.63,1216.68s-50,62.09-141.64,61.86" fill="none" stroke="#636363" stroke-linecap="round" stroke-linejoin="round"/><path d="M657.32,1234.46S676.54,1296,483.61,1414" fill="none" stroke="#636363" stroke-linecap="round" stroke-linejoin="round"/><path d="M460.16,547.7s-30.28,48-36.8,89.5" fill="none" stroke="#636363" stroke-linecap="round" stroke-linejoin="round"/><path d="M476.65,539.12S451,657.53,467.16,748.77" fill="none" stroke="#636363" stroke-linecap="round" stroke-linejoin="round"/><path d="M491.72,569.26s29.72,260,100.72,417.21" fill="none" stroke="#636363" stroke-linecap="round" stroke-linejoin="round"/><path d="M482.68,554.66s59.4,111.26,204.57,113.56" fill="none" stroke="#636363" stroke-linecap="round" stroke-linejoin="round"/><path d="M515.86,570.81s88.1,66.57,197.88,41.78" fill="none" stroke="#636363" stroke-linecap="round" stroke-linejoin="round"/><line x1="647.72" y1="578.05" x2="738.55" y2="564.09" fill="none" stroke="#636363" stroke-linecap="round" stroke-linejoin="round"/><path d="M747.66,714s-68.15-3.82-90-9.18" fill="none" stroke="#636363" stroke-linecap="round" stroke-linejoin="round"/><path d="M748.34,723.75s-50.4.52-71.7,3.85" fill="none" stroke="#636363" stroke-linecap="round" stroke-linejoin="round"/><path d="M754.87,733.58s-66.47.24-94.65,16.69" fill="none" stroke="#636363" stroke-linecap="round" stroke-linejoin="round"/><path d="M756,770.12s-17.48,290.29-74.34,341.33" fill="none" stroke="#636363" stroke-linecap="round" stroke-linejoin="round"/><path d="M385.16,826.63s7.33,45.66,10.59,73.3" fill="none" stroke="#636363" stroke-linecap="round" stroke-linejoin="round"/><path d="M784,583.43s-32.21,34.69-32.21,72.65" fill="none" stroke="#636363" stroke-linecap="round" stroke-linejoin="round"/><line x1="702.14" y1="576.71" x2="747.84" y2="572.71" fill="none" stroke="#636363" stroke-linecap="round" stroke-linejoin="round"/><path d="M765.39,818.73s-4.2,276.64-36.86,356.91" fill="none" stroke="#636363" stroke-linecap="round" stroke-linejoin="round"/><path d="M404.89,1026.78S402.18,1110.55,417,1169" fill="none" stroke="#636363" stroke-linecap="round" stroke-linejoin="round"/></svg>