<svg xmlns="http://www.w3.org/2000/svg" width="1000" height="1550" viewBox="0 0 1000 1550"><path d="M288.68 1053.71c-4.14 18.21-9 38.16-13.93 53.64-9.82 31-13.08 105-15.36 135.21-.95 12.67 4.66 27 4.66 27l-61 1.5c-16.33-18.73-8.93-129.51-14.45-197.93A619.73 619.73 0 01192.24 945s-18.06-297.33 26.67-324.28 150.6-92.63 150.6-92.63-.25-.24.72 2.61c4.12 12.15 16.87 50 82 50 80.35 0 75.64-52.64 75.64-52.64s137.74 51.21 148.62 58.32c38.3 25 52.88 331.94 52.88 331.94s19 68.76 22.89 124.63c5.57 81.26 18.66 177.57 17.84 189.79s-5.3 18.88-5.3 18.88h-58.1s-1.25-8-2.88-34.36c-1.86-29.85-17-86.23-32.37-132.82" fill="#302f2d" stroke="#262521" stroke-linecap="round" stroke-linejoin="round" stroke-width="3"/><circle cx="757.2" cy="1234.02" r="4.73" fill="none" stroke="#9d9d9d" stroke-linecap="round" stroke-linejoin="round" stroke-width="1.78"/><circle cx="756.28" cy="1189.24" r="4.73" fill="none" stroke="#9d9d9d" stroke-linecap="round" stroke-linejoin="round" stroke-width="1.78"/><circle cx="751.48" cy="1141.41" r="4.73" fill="none" stroke="#9d9d9d" stroke-linecap="round" stroke-linejoin="round" stroke-width="1.78"/><circle cx="745.65" cy="1099.44" r="4.73" fill="none" stroke="#9d9d9d" stroke-linecap="round" stroke-linejoin="round" stroke-width="1.78"/><circle cx="740.44" cy="1055.63" r="4.73" fill="none" stroke="#9d9d9d" stroke-linecap="round" stroke-linejoin="round" stroke-width="1.78"/><circle cx="737.21" cy="1012.09" r="4.73" fill="none" stroke="#9d9d9d" stroke-linecap="round" stroke-linejoin="round" stroke-width="1.78"/><circle cx="729.43" cy="971.62" r="4.73" fill="none" stroke="#9d9d9d" stroke-linecap="round" stroke-linejoin="round" stroke-width="1.78"/><circle cx="718.86" cy="926.02" r="4.73" fill="none" stroke="#9d9d9d" stroke-linecap="round" stroke-linejoin="round" stroke-width="1.78"/><circle cx="714.94" cy="879.55" r="4.73" fill="none" stroke="#9d9d9d" stroke-linecap="round" stroke-linejoin="round" stroke-width="1.78"/><circle cx="712.02" cy="829.63" r="4.73" fill="none" stroke="#9d9d9d" stroke-linecap="round" stroke-linejoin="round" stroke-width="1.78"/><circle cx="709.21" cy="781.72" r="4.73" fill="none" stroke="#9d9d9d" stroke-linecap="round" stroke-linejoin="round" stroke-width="1.78"/><circle cx="704.48" cy="728.37" r="4.73" fill="none" stroke="#9d9d9d" stroke-linecap="round" stroke-linejoin="round" stroke-width="1.78"/><circle cx="700.68" cy="676.51" r="4.73" fill="none" stroke="#9d9d9d" stroke-linecap="round" stroke-linejoin="round" stroke-width="1.78"/><path d="M695.58 626.46a4.73 4.73 0 101.75 6.79" fill="none" stroke="#9d9d9d" stroke-linecap="round" stroke-linejoin="round" stroke-width="1.78"/><circle cx="674.54" cy="590.93" r="4.73" fill="none" stroke="#9d9d9d" stroke-linecap="round" stroke-linejoin="round" stroke-width="1.78"/><path d="M634.13 569.93a4.77 4.77 0 00-1.67 2.36 4.73 4.73 0 109 2.85 4.58 4.58 0 00.2-1.86M598.35 555.29a4.72 4.72 0 005.67 5.47 4.67 4.67 0 002.6-1.58" fill="none" stroke="#9d9d9d" stroke-linecap="round" stroke-linejoin="round" stroke-width="1.78"/><circle cx="210.98" cy="1248.26" r="4.73" fill="none" stroke="#9d9d9d" stroke-linecap="round" stroke-linejoin="round" stroke-width="1.78"/><circle cx="206.25" cy="1202.36" r="4.73" fill="none" stroke="#9d9d9d" stroke-linecap="round" stroke-linejoin="round" stroke-width="1.78"/><circle cx="204.71" cy="1155.48" r="4.73" fill="none" stroke="#9d9d9d" stroke-linecap="round" stroke-linejoin="round" stroke-width="1.78"/><circle cx="201.88" cy="1112.65" r="4.73" fill="none" stroke="#9d9d9d" stroke-linecap="round" stroke-linejoin="round" stroke-width="1.78"/><circle cx="200.38" cy="1067.74" r="4.73" fill="none" stroke="#9d9d9d" stroke-linecap="round" stroke-linejoin="round" stroke-width="1.78"/><circle cx="198.38" cy="1024.52" r="4.73" fill="none" stroke="#9d9d9d" stroke-linecap="round" stroke-linejoin="round" stroke-width="1.78"/><circle cx="199.88" cy="977.31" r="4.73" fill="none" stroke="#9d9d9d" stroke-linecap="round" stroke-linejoin="round" stroke-width="1.78"/><circle cx="201.98" cy="926.81" r="4.73" fill="none" stroke="#9d9d9d" stroke-linecap="round" stroke-linejoin="round" stroke-width="1.78"/><circle cx="199.82" cy="880.01" r="4.73" fill="none" stroke="#9d9d9d" stroke-linecap="round" stroke-linejoin="round" stroke-width="1.78"/><circle cx="198.48" cy="831.84" r="4.73" fill="none" stroke="#9d9d9d" stroke-linecap="round" stroke-linejoin="round" stroke-width="1.78"/><circle cx="198.16" cy="785.68" r="4.73" fill="none" stroke="#9d9d9d" stroke-linecap="round" stroke-linejoin="round" stroke-width="1.78"/><circle cx="199.66" cy="738.08" r="4.73" fill="none" stroke="#9d9d9d" stroke-linecap="round" stroke-linejoin="round" stroke-width="1.78"/><circle cx="202.89" cy="690.9" r="4.73" fill="none" stroke="#9d9d9d" stroke-linecap="round" stroke-linejoin="round" stroke-width="1.78"/><circle cx="209.96" cy="649.28" r="4.73" fill="none" stroke="#9d9d9d" stroke-linecap="round" stroke-linejoin="round" stroke-width="1.78"/><circle cx="228.55" cy="621" r="4.73" fill="none" stroke="#9d9d9d" stroke-linecap="round" stroke-linejoin="round" stroke-width="1.78"/><path d="M260.68 595.29a4.64 4.64 0 012.07 2 4.73 4.73 0 11-8.89 2.6M293.3 574.53a4.56 4.56 0 01.3 1.85 4.73 4.73 0 01-4.9 4.54 4.67 4.67 0 01-2.85-1.1" fill="none" stroke="#9d9d9d" stroke-linecap="round" stroke-linejoin="round" stroke-width="1.78"/><path d="M349.87 540.28c-1.72 0-97.66 80.33-109 87.17-44.74 26.95-23.56 317.85-23.56 317.85s-8.28 61.85-2.75 130.27c3.31 41-1.88 175.58 14.35 195l35.14-1c-6.69-21.46-4.06-50.63-2.38-61 1.06-15.63 2.4-33.3 4.2-50a.8.8 0 01-.2-1.21l.39-.52c2.14-19.56 4.94-37.68 8.69-49.5 4.83-15.2 10.09-36.77 14.19-54.79-.76 7.9 2.56-232.4-3.3-245-25.86-114.85 68.6-217.4 87.05-233.59-18.8-18.74-20.47-32.4-22.82-33.68zM706.66 1251.67c3-.05 36.48 0 36.48 0 8.9-21.17-9.95-157.61-13.2-205-3.84-55.87-26-126.37-26-126.37s-8.9-297.52-47.2-322.51c-4.19-2.74-81.19-51.44-107.91-61.82-.83 5.85-4.25 18.62-15.57 33.11 50.83 53.48 101.58 72.12 108.56 238.5 10.44 58.46 14.94 198.3 28 272.22.05.01 34.18 108.59 36.84 171.87zM369.48 528.13s.01-.03 0 0z" fill="#262521"/><path d="M285.64 807.59s5.34 199.1 3.82 238.13c-.83 21.49-23.46 140.26-11.15 167.44.05 13-2.35 59.86-2.35 59.86s88.48 20.67 165.47 19.75c137.53-1.66 242.89-30.38 242.89-30.38s-3.23-43.82-4-57.41c14.49-25-21.06-160.16-22.86-230.12-1.22-47.58-16.1-167.27-16.1-167.27" fill="#302f2d" stroke="#262521" stroke-linecap="round" stroke-linejoin="round" stroke-width="3"/><path d="M276 1273s88.48 20.67 165.47 19.75c137.53-1.66 242.89-30.38 242.89-30.38M711 1219s30.63-3.83 52.37 0M200.25 1236.47s30.64-3.84 52.37 0M286.17 1219s168.07 32.86 378.14-4.33M352.93 546.4s21.5 56.91 100.81 56.91 94.26-62 94.26-62" fill="none" stroke="#636363" stroke-linecap="round" stroke-linejoin="round"/><path fill="#262521" d="M559.912 1083.222l91.456-10.162 2.358 21.215-91.457 10.162z"/><path fill="none" stroke="#636363" stroke-linecap="round" stroke-linejoin="round" stroke-width="2" d="M559.19 1088.97l92.67-10.06M654.17 1100.21l-92.67 10.07"/><path fill="#262521" d="M563.27 1118.248l91.839-9.977 9.165 84.364-91.84 9.977z"/><path fill="none" stroke="#494847" stroke-linecap="round" stroke-linejoin="round" stroke-width="2" d="M563.52 1121.11l91.84-9.97M572 1199.21l91.84-9.97"/><path fill="none" stroke="#494847" stroke-linecap="round" stroke-linejoin="round" d="M609.44 1116.12l52.08 73.37"/><path fill="none" stroke="#494847" stroke-linecap="round" stroke-linejoin="round" stroke-width="1.78" d="M653.04 1111.39l-35.12 82.84"/><path fill="none" stroke="#494847" stroke-linecap="round" stroke-linejoin="round" d="M565.84 1120.86l52.08 73.37M609.44 1116.12l-35.12 82.84"/><path d="M347.63 548.05s-102.2 80.56-109.41 91.64-15.79 59.42-17.72 123c-2.12 69.84 2.89 169 3.74 180.88s-5.86 35.6-5.86 63.18 3.39 97.92 3.39 120.38 1.7 100.43 4.67 116.54 5.08 22.75 5.08 22.75" fill="none" stroke="#636363" stroke-linecap="round" stroke-linejoin="round" stroke-width="1.34" opacity=".3"/><path d="M351.26 551.83s-100.7 79.57-107.91 90.64-14.79 60.42-16.72 124c-2.12 69.84 2.89 169 3.74 180.88s-5.86 35.6-5.86 63.18 3.39 97.92 3.39 120.38 1.2 98.93 4.17 115 4.09 20.47 4.09 20.47" fill="none" stroke="#636363" stroke-linecap="round" stroke-linejoin="round" stroke-width="1.34" opacity=".3"/><path d="M354.31 556.23s-98.55 77.09-105.76 88.16-14 62.9-15.87 126.43c-2.12 69.85 2.45 164.91 3.29 176.84s-5.42 40.07-5.42 67.64 3.7 96.52 3.7 119-1 94.11 2 110.21 4 21.39 4 21.39" fill="none" stroke="#636363" stroke-linecap="round" stroke-linejoin="round" stroke-width="1.34" opacity=".3"/><path d="M357.28 560.86s-96.14 75.35-103.35 86.42-13.35 64.64-15.28 128.18c-2.12 69.84 2.3 159.88 3.15 171.81s-5.72 45.38-5.72 73 4.19 95.4 4.19 117.86-3 88.5 0 104.6 3.18 23.19 3.18 23.19" fill="none" stroke="#636363" stroke-linecap="round" stroke-linejoin="round" stroke-width="1.34" opacity=".3"/><path d="M360.83 564.93s-92.45 70.81-100.6 86.36-12.88 65.12-14.81 128.71c-2.12 69.84 2.45 149 2.45 169.7s-5.64 47.17-5.64 74.74 4.59 95.31 4.59 117.77-4.19 76.44-3.15 92.78a269.62 269.62 0 003.9 30.44" fill="none" stroke="#636363" stroke-linecap="round" stroke-linejoin="round" stroke-width="1.34" opacity=".3"/><path d="M364 569.34s-88.94 69.43-97.09 85-12.86 65.5-14.79 129c-2.12 69.85 2 149.74 2 170.43s-5.18 48.21-5.18 75.79 4.25 93.82 4.25 116.28-3.76 62.78-4.25 79.9 3.27 39.62 3.27 39.62" fill="none" stroke="#636363" stroke-linecap="round" stroke-linejoin="round" stroke-width="1.34" opacity=".3"/><path d="M367.38 572.29s-44.68 44.15-72.32 97.51c-6.82 13.16-8.36 26.6-10.39 41.79" fill="none" stroke="#636363" stroke-linecap="round" stroke-linejoin="round" stroke-width="1.34" opacity=".3"/><path d="M346.76 588s-49 56.29-59.87 78.24-13.55 134.56-13.55 134.56-.46 37.63 0 58.55 4.54 86.39 3.66 107.8-5.53 40.29-5.24 63.16 1.75 69.9 1.75 69.9" fill="none" stroke="#636363" stroke-linecap="round" stroke-linejoin="round" stroke-width="1.34" opacity=".3"/><path d="M325.32 605.31s-39.82 45-46.24 59.14-11.68 56.29-11.68 71.72-3.17 85.07-2 114 3.16 72.78 3.16 97.63-5.81 62.06-5.23 86.75 4.23 89.66 4.23 89.66" fill="none" stroke="#636363" stroke-linecap="round" stroke-linejoin="round" stroke-width="1.34" opacity=".3"/><path d="M304.11 623s-28 28.11-32.06 37.75-8 39.83-9.23 59.1-3.87 67.53-4.74 89.66c0 0 1.17 90.82 2 115.57s1.16 46.28 0 54.43-4.66 34.64-4.08 55.9 6.61 96.79 4.95 114.26-5.68 84-6 89 2.75 27.24 2.75 27.24" fill="none" stroke="#636363" stroke-linecap="round" stroke-linejoin="round" stroke-width="1.34" opacity=".3"/><path d="M280.79 808.82s1.53 46.46 2.22 85 1.31 55.11.42 73.32-5.56 62.34-5.12 77 1.26 37.26 1.26 37.26M285.64 995s-.1 27.19 0 36.16-1.77 36.62-1.77 36.62M553.61 542.12s94.39 53 102.93 63.08 21.54 74.71 31.46 137.5c10.89 69 11.53 162.08 12.19 174s8 35.19 14.76 61.93c7 27.68 13.27 102.22 16.09 124.5s10.91 105.29 11 117.27-1.18 27.21-1.18 27.21" fill="none" stroke="#636363" stroke-linecap="round" stroke-linejoin="round" stroke-width="1.34" opacity=".3"/><path d="M550.49 546.33s92.77 52.19 101.31 62.27 20.68 75.83 30.59 138.62c10.89 69 11.52 162.08 12.18 174s9.11 35 14.77 61.94c5.89 28.13 13.26 102.21 16.09 124.49s13.19 99.37 12.28 115.72-1.48 24.33-1.48 24.33" fill="none" stroke="#636363" stroke-linecap="round" stroke-linejoin="round" stroke-width="1.34" opacity=".3"/><path d="M548 551.07s90.32 50 98.86 60.09 20.15 78.4 30.06 141.19c10.9 69 11.46 158 12.12 169.94s9.19 39.44 14.89 66.42c5.85 27.74 12.78 100.86 15.61 123.14s14.77 94.31 13.86 110.66-.83 25.73-.83 25.73" fill="none" stroke="#636363" stroke-linecap="round" stroke-linejoin="round" stroke-width="1.34" opacity=".3"/><path d="M545.65 556s87.72 48.58 96.26 58.67 19.78 80.2 29.69 143c10.89 69 11 153 11.63 164.94s11.1 44.49 15.86 71.66c4.89 28 12.16 99.8 15 122.09s14.54 88.47 14.58 104.85c.05 17.45-.24 26.4-.24 26.4" fill="none" stroke="#636363" stroke-linecap="round" stroke-linejoin="round" stroke-width="1.34" opacity=".3"/><path d="M542.64 560.53s83.49 44.54 93.53 58.94 19.37 80.74 29.28 143.53c10.89 69 9.46 142.24 12.06 162.76s12.52 46.09 16 73.44 11.76 99.77 14.59 122 14.94 80.52 16 96.86a289.56 289.56 0 01.23 29.55" fill="none" stroke="#636363" stroke-linecap="round" stroke-linejoin="round" stroke-width="1.34" opacity=".3"/><path d="M540.09 565.3s79.82 43.62 89.86 58 19.4 81.12 29.31 143.91c10.89 69 10 142.89 12.63 163.41s13.21 47.18 16.68 74.54 11.9 98.25 14.73 120.54 11.56 62.88 14.21 79.8 2.73 42.72 2.73 42.72" fill="none" stroke="#636363" stroke-linecap="round" stroke-linejoin="round" stroke-width="1.34" opacity=".3"/><path d="M537.68 568.89S607 609.8 623 628.38c13.68 15.94 28 139.85 28 139.85s6.48 48.4 8.65 69.21 4.63 90.42 8.19 111.55 13.06 39.28 15.65 62 13.51 102.73 18.43 138.36 16.28 65.05 14.65 98.38" fill="none" stroke="#636363" stroke-linecap="round" stroke-linejoin="round" stroke-width="1.34" opacity=".3"/><path d="M553.61 585.21s58.89 39.41 63 46.37 14.74 42.07 21.29 87 14.33 102.05 16.79 126.9 2.46 72.91 4.91 92.49 16 60.26 20.07 89.05 15.82 121.17 19.16 139.58 11.24 40.64 12 55.06 1.23 26 1.23 26" fill="none" stroke="#636363" stroke-linecap="round" stroke-linejoin="round" stroke-width="1.34" opacity=".3"/><path d="M583.32 613.61s21.79 14 28.72 28.84 15.13 48.45 15.13 48.45M660.15 966.82s13.94 55.14 13.94 66.68 14.91 99.81 14.91 99.81M661.52 991.25s9.18 71.4 11.52 83.62 4.9 25.34 4.9 25.34" fill="none" stroke="#636363" stroke-linecap="round" stroke-linejoin="round" stroke-width="1.34" opacity=".3"/><path d="M210.29 1248s-18-15.58-21.07-34.41M200 1225.17s-10.74 9.59-7.79 19.36M206.25 1203.39s-21.57-24.88-17-38.05M188.83 1195.8s-1-11.47 8.43-15.65M204.09 1156.49s-19.44-18-15.41-36.46M188.13 1148.76s1.45-8.79 7.48-14.48M201.88 1112.65s-15.78-17.88-15-36.51M188.8 1107.93s0-15.75 5.55-19.89M200.38 1067.74s-17.65-11-15.44-35.31M186.83 1063s-2.71-12.24 3-21M198.38 1024.52s-19.49-16.66-11.55-39.16M184.93 1018.46s.28-14.51 4.9-24.83M199.88 977.31s-19.39-12.9-10-34.89M188 972.59s-7.49-11.13 3.25-20.26M202 926.81s-19.44-12.32-14-35.6M189.83 924.31s-8-7-2.54-24.72M199.82 880s-21.69-11-12.2-40.79M187.62 878.79s-4.05-16 0-26.9M198.48 831.84s-16.2-17.45-11.76-39.7M187.62 825.51s-8.71-21.47 0-26.64M198.16 785.68S179 769 188.56 742.8M187 782.05s-7.35-15.77.58-26.64M199.66 738.08s-21.39-30.33-7.45-42.45M189.6 728s-6.53-16.3 2.42-22.77M202.89 690.9s-12.45-11.72-3.23-34.81M210 649.28s-10.53-24.49 7.31-30.18M201.5 644.56s-4.2-16.87 10.57-18.84M193.58 687.33s-5.68-18.94 4.58-25.83M228.55 621s-3.88-14.21 16.21-17.69M223.83 615.22s-1.4-7.89 12.67-7.7M258.57 599.76s3.27-15.89 19.23-17.39M253 598.32s2.63-9.85 16.14-10.37M289.73 577.73s3.64-12.78 18.66-12.8M757.65 1234.08s13.67-19.54 12-38.54M764.29 1208s10.72 9.61 7.76 19.37M756.46 1189.8s15-29.3 7.48-41M767.68 1179s-1-11.47-11.07-13.9M751.92 1141.41s16.56-19.25 7.5-38.23M763.3 1137.09s-.88-8.86-6.54-14.93M745.81 1100.27s15.66-19 10-38M758 1091.34s-2.75-15.5-9-18.59M740.86 1055.63s19.17-13.63 8.93-37.49M754.61 1047.53s-.87-12.51-8.85-19.29M737.42 1012s17.72-18.53 7.56-40.13M750.38 1008.88s-2.85-14.23-9.23-23.56M729.81 971.62s18.67-16.14 5.58-36.12M742.81 962.55s2.63-13.16-10.81-17.45M719.38 926s19.85-14.94 10.34-36.88M731.72 921.8s6.59-8.32-1.88-24.78M714.7 878.8s19-10.39 11.14-40.61M729.58 877.45s1.14-16.5-4.77-26.48M712.44 829.63s18.34-17.54 10-38.65M725 827.37s2.15-23.06-7.68-25.51M710.11 781.72s19.25-16.34 6.56-37.47M720.21 779.38s6.25-16.24-2.4-26.54M704.75 729.27s19-27.52 5.89-36.94M716.09 727.69s5.21-16.76-4.23-22.5M700.75 676.77s9-10.1.84-33.58M693.48 631.81s10.16-28.22-4.81-30.63M699.1 630.65s8.36-15.24-5.41-20.91M708.32 679.88s6-18.85-4.19-25.9M675.17 590s1.3-14.67-19.08-14.54M677.28 584.89s.83-8-13.19-6.77M637.71 573.13s-6.12-15-22.08-13.59M642.46 570.23s-4.33-9.24-17.73-7.35M603.24 556.38s-5.85-11.92-20.63-9.28" fill="none" stroke="#636363" stroke-linecap="round" stroke-linejoin="round" stroke-width="3.56"/></svg>