<svg xmlns="http://www.w3.org/2000/svg" width="1000" height="1550" viewBox="0 0 1000 1550"><path d="M752.22 1043c-3.84-55.87-37.47-431.58-75.77-456.57-8.21-5.36-156.23-62.72-156.23-62.72s1.57 49.68-70.5 49.68c-65.08 0-75.82-46.24-75.8-46.33-.11.07-120.79 73.07-155 93.68-44.73 27-35.8 384-30.27 452.4 4 49.48 3.57 175 15.83 211.14 0 0-6.79 49.21-2.27 54.4 0 0 57 9.29 77.69-1.6 2.73 15 2.54 18.71 5.22 22.81 4.84 7.4 125.05-14.12 202.05-15.05 137.52-1.65 189.76 6 200.72-2.9 6-4.84 1.26-13.83 2.19-33.87 48.13 16 82.45-7.82 82.45-7.82s-2.94-30.85-2.13-43.07c12.46-13.06-12.61-132.92-18.18-214.18z" fill="#262521" stroke="#262521" stroke-linecap="round" stroke-linejoin="round" stroke-width="3"/><path d="M778.63 1173.31c-1.89-4.08 2.42-32.89-1.18-35.33-2-1.31-8.14-14.33-21.11-6.32s-28.36 6-33.69 7.14-18.24.59-23.63 1.41c-9.75 1.48-23.22-2.86-23.22-2.86s2.25 49 4.57 67.06c4.67-1 12.92-1.19 17.65-.19 9.34 2 17.84 12 23.29 3.83 9.56 8.64 10.47 7.9 22.85 6.07 11.1-1.64 7.2-12.23 26.47-7.3 5.98 1.53 14.99-18.46 8-33.51z" fill="#3a3934" stroke="#262521" stroke-linecap="round" stroke-linejoin="round" stroke-width="3"/><path d="M285.11 1359.89c4.84 7.4 125.05-14.12 202.05-15.05 137.52-1.65 189.76 6 200.72-2.9" fill="none" stroke="#636363" stroke-linecap="round" stroke-linejoin="round"/><g opacity=".5" fill="none" stroke="#636363" stroke-linecap="round" stroke-linejoin="round" stroke-width="2"><path d="M531.17 536.57l12 4.29M448.07 586.19v14.76M465.03 584.89l.76 14.69M480.04 582.33l2.23 13.21M493.65 577.12l4.39 11.5M505.81 568.94l6.76 9.95M515.99 559.81l9.29 7.06M524.6 549.01l10.92 4.74M363.81 540.28l-12.12 7.18M431.11 584.89l-.76 14.69M416.6 582.83l-2.29 13.49M403.05 577.8l-4.75 12.45M390.45 571.78l-6.8 10.01M379.21 563.49l-8.79 7.52M369.91 552.23L359.55 559M213.34 1330.69l3.97-42.19M228.82 1332.19l2.38-41.6M244.23 1332.19l-.5-41.6M260.93 1332.28l-5.28-41.69M757.98 1258.43l2.49 38.51M743.08 1262l1.71 40.9M726.09 1262l2.42 42.88M710.15 1262.11v42.77"/></g><g opacity=".5" fill="none" stroke="#636363" stroke-linecap="round" stroke-linejoin="round" stroke-width="2"><path d="M486.58 1281.14l2.11 52.61M505.63 1280.37l2.17 53.79M524.69 1279.61l2.23 55.39M543.75 1278.84l2.26 56.16M562.77 1277.21l2.29 56.95M581.83 1276.44l2.32 57.72M601.73 1275.64l3.64 59.36M619.98 1275.77l2.29 56.99M354.9 1286.45l2.32 57.75M391.29 1284.98l2.25 55.96M372.62 1285.73l2.26 56.21M410.42 1285.94l2.15 53.5M295.16 1292.33l5.37 55.68M313.9 1289l3.83 58.04M334.98 1287.25l2.37 58.95M429.47 1285.17l2.1 52.1M448.53 1284.4l2.04 50.6M467.52 1281.91l2.14 53.09M639.73 1276.71l.04 58.29M659.29 1277.67l-.69 57.33M678.07 1278.62l1.18 54.14"/></g><path d="M274.39 891.57c-4.66 1.7-11.67 4.29-19 3.81-5.44-.36-18.25 1.37-23.66.7s-20.57 2.78-34.2-4.34-18.64 6.94-20.46 8.48c-3.38 2.85-.27 16.89-1.46 21.4-2.21 8.35-7.74 33.32-3.91 39.91 5.91 1.85 12.47 11.55 18.29 9.42 18.75-6.87 15.81 4.46 27 5.15 12.49.77 13.47 1.46 22.22-8.37 6.15 8 13.73-3.2 22.85-6.1a32 32 0 0112.32-1.27zM275.84 1034.54c-7.18.2-14.27.86-18.6 1.36-14.34 3.94-25.48 6.25-32.45 7.16-6 .78-22.11-5-27.91-3.27-6.47-1.83-20-1.44-17.43 5.12-2.39 3.3-5.3 10.47-4.35 14.51 1.05 4.46 7.36 12.15 6 17.65-1.55 6-6.3 15.3-5.18 20.2 4.54 20 15.48 7.44 28.74 6 7.52-.81 13.13 7.66 20.64 6.78 2.94-.34 16-10.87 17.76-9 3.81 3.92 20.68 8.84 24.64 5.1.75-.71 4.58-2.4 8.19-3.71zM277.3 1165.28a40.24 40.24 0 01-14.46 2.81c-5.45-.11-18.18 2.11-23.62 1.68s-20.43 3.57-34.33-2.76-18.35 7.51-20.11 9.08c-3.26 2.91 4.76 31.21 3.41 35.54-5 16 6.57 34.83 12.3 32.52 18.46-7.45 16 3.66 27.19 3.86 12.51.21 13.51.84 21.87-9.06 6.46 7.49 13.59-3.68 22.59-6.87a29.6 29.6 0 015.64-1.39c.22-12.01.39-55.64-.48-65.41zM748.45 896.18c-1.31-4.33 1.42-18-2-20.69-1.86-1.44-7.24-14.93-20.68-7.68s-28.67 4.29-34.07 5.09-18.24-.55-23.67-.06c-6 .54-16.25-2.29-16.25-2.29l6 65.87s4 .44 5.29.79c9.19 2.57 17.06 13.21 23 5.31 9 9.29 10 8.6 22.44 7.53 11.17-1 7.94-11.86 26.86-5.7 5.88 1.91 12.17-7.65 18-9.6 3.7-6.48-2.49-30.54-4.92-38.57zM337.36 543.11c5.28 1.49 7.44 7.79 7.87 13.25s.1 11.43 3.35 15.83c1.6 2.17 7 2.19 8.25 4.59 1.32 2.58-.43 2.6-.21 5.49.82 11 10.13 4.09 17 12.7 1.77 2.24 2.11 9.13 4.59 10.54s5.25 1.81 7.77 3c8.35 3.79 15.44-3.5 24.06-.38 7.21 2.61 9.82 5.21 17.44 6 3.6.37 18.85 0 22.28 1.11 25.6 8.52 25.75-1.11 36.2-3.67 2.69-.66 10.92-1.18 12.12-3.67s4.75-2.5 6-4.82c1.58-3 4.8-4.68 7.54-6.69 10.59-7.74 22-4.83 25.61-17.43 3.94-13.63 14.3-15.55 17-38.33a6.87 6.87 0 013.34-5.39c1.29-.65 3.57-2.25 5-2.12 13 1.17 30.66 10 43.19 13.48 9 2.47 18.3.7 27.12 3.9 7.56 2.74 16.05 9 23.51 12 5.73 2.32 8.17 2.77 13.86 5.14 4.31 1.79 10.21 3.64 13.69 6.75 2.56 2.29 3 10.87 4.9 13.75 5.58 8.56 9.16 12.75 13.77 21.87 3 5.93-3.39 13-.83 19.11 1.92 4.56 5.14 6.9 6.8 11.56 2.52 7 2.91 16.6-3.51 20.4-2.33 1.38-11.64 1.76-14.34 1.94-14.34 1-17-1.22-30.76 3-8.62 2.66-19.21 10.32-28.21 11-8.82.68-17.62-1.2-26.44-1.85-11.83-.86-15 .52-26.61 2.86-7.72 1.55-15.77 3.52-23.36 1.39-3.58-1-6.89-2.89-10.54-3.6-6.13-1.2-12.32 1-18.38 2.56-15.33 3.86-31.4 3.24-47.16 2.09-40.7-3-84.13-3.37-122.9 9.38-9.82 3.23-21 7.54-29.88 2.21-2.95-1.77-5.33-4.51-8.52-5.8-6.95-2.82-14.44 2.07-21.88 3.07-10.37 1.4-20.87-4.93-31.08-2.59-7.94 1.82-16.32 8.61-23.11 4.13-2.31-1.53-3.72-4.08-5.75-5.95-6.46-6-9.25 4.9-17.86 6.64s-28.1 7.5-31.15-.74c-1-2.64 1.72-19.58 6.46-27.31 3.51-5.74 4.35-5.85 5.11-7.8 2.72-7-3.55-14-.83-21 1.76-4.5-1.68-8.77.07-13.27 1.12-2.87 6.43-8 7.55-10.84.91-2.36 1.54-10 2.46-12.34 1.29-3.32 5.42.56 7.78-2.1 2.77-3.12 6.68-4.93 10.47-6.66 10.84-5 14-10.55 24.79-15.5 21-3.91 24.77-11.09 33.45-15.05 4.34-2 9-.13 13.33-2.12 9.55-4.35 15.3-11.62 24.85-16 3.39-1.54 14-1.58 14.87 2M729.42 804.76c4.81-.89 10.16-12.94 1.18-14.32-.7-.11 4.75-5.05 4.08-8.11-.33-1.52-2.79-5.43-2.15-6.89s5.4-6.23-.34-8.85c-2-.51 2.08-11.5 1.71-15.6-.42-4.68-4.67-10.74-6.21-15.21-.52-1.51-4.07-2.17-5.13-3.28l-9.86.33c-1-3.71-7.05-5.26-11.71-4.08s-8.16 4.21-11.43 7.11c-4.3-4.85-13.14-5.72-20.65-4.56s-14.63 3.91-22.21 4.75c-15.46 1.73-32.85-4.25-45.74 2.91-3 1.63-5.53 3.92-9 4.58-3 .56-6-.2-9-.73-18.24-3.25-37.63 2.55-56.28.93-4.17-.36-8.31-1.1-12.53-1a66 66 0 00-12.57 2.26 313.53 313.53 0 01-116.47 4.87c-3.82-.57-7.72-1.21-11.61-.79-5.36.58-10.36 3.29-13 7.05-5.16-2.91-12.38-1.43-18.61 0-11.74 2.69-16 .48-28.06 2-8.9 1.15-10.83 2.15-34.47 6.83a12.53 12.53 0 01-8-.94c-2.07-1.09-3.14-3-5.1-4.25-5.73-3.52-17.74-.53-22.78 3.83-2.36 2-16.12.11-20.22 0-10.49-.26-17-3.26-27.45-3.44-18.5-.32-16.49 3.61-20.77 20.57-2.48 9.8 4.5 17.79-1.89 29.6-2.09 3.84-2.56 17.26 1 20.45-3.17 7 15.63 6.22 24.52 3.79 8.16 1.33 14.08 1.69 19.8-4.67 12.07 1.46 17.65.83 29.84-.56 9.5-1.08 19-3 28.51-2.8 15.58.36 33.3 6 45.35-2.14 11.08 9.85 35.74 5.71 41.56-7 2.79 8.34 17.16 10.67 28.17 9.66 11.77-1.09 19.92-7 31.54-9 6.45-1.09 16.54 4 22.92 2.65 3.85-.82 7.54-4.95 11.49-5.16a69.3 69.3 0 0113.66 1l27.86 4c13.47-8.2 32.42-10.3 47.74-5.28 3.69 1.21 7.28 2.82 11.3 3.07 9 .55 16.38-5.65 24.81-8.47 12.36-4.12 26.13-.72 39.07 1.34s28.85 1.85 36.9-6.66c12.89 9 33.57 1.15 51-.74 7.32-.66 14.41 1.85 19.23.95z" fill="#3a3934" stroke="#262521" stroke-linecap="round" stroke-linejoin="round" stroke-width="3"/><path d="M612.93 946.88c-3.45 4.26-9.07 8.81-13.12 5.2-1.4-1.24-12.91 1.12-14.78 1.6-16.43 4.27-29.82-1.75-38 .73-4.33 1.31-18.23 6-22 6.48-2.72.35-5.45-.36-8.13-1-12-2.85-24.05 2.14-36.33 2.23-15.09.11-30.44-3.93-44.94.59-2.87.9-6.19 8.77-17.51.8-11-7.73-13.71 7.08-26.5 3.51-2.07-.58-13.53-.69-15.61-.17-2.42.59-19.48.26-30.25 1.71-5.28.71-11.54-3.64-16.78-2.61s-24.27 20-39.35 10c-10.45.23-23.35-8.86-25.22-10.27-3.48-2.62-7.77-10.78-9.22-15.19-2.69-8.17 7-13.85 2.9-21.29-3.65-6.67-6-13.43-2.65-20.25 5.64-2.23 7.87-10.64 13.68-8.89 18.7 5.6 23.21-8 34.07-9.43 12.12-1.58 13-2.33 22.18 6.88 5.48-8.36 13.58 2.29 22.65 4.58s18.76-9.7 27.33-13.6c5.84-2.66 13.08-.94 19.38-.24 2.81.32 5.34 2 7.94 3.26 10.79 5.29 19.95-2.5 33.26-4.43s25.88 6 29.08 5.8c2.76-.14 11.91-5.89 14.58-6.64 4.43-1.24 4.93 5.71 9.42 4.73 8.08-1.75 13.68-7.5 21.88-8.38 7.67-.82 17.75 1.77 19.83 10.15 3.86-12.58 21-16.28 28.92-6.24 8.28-7.87 20.76-2 31.64-1.34 14.13 3.18 36.74-7.14 43.55-6.62 5.85.44 19 .59 24.72 2.06 6.17-2.27 19.29-2.7 17.19 4.21 2.52 3.25 1.7 16.25 1 20.46-1.56 9.75 7.19 23.41 5.63 33.16-2.71 16.86-12.09 15.86-25 15.22-7.33-.37-14.84-4-22.17-4.48-2.8-.17-21.66-4.29-23.27-2.29zM758.7 1043.48c-2.12-5.77 3.13-14.86 3.59-19.8.41-4.48-3.42-11.86-6.23-15.13 1.7-7.4-11.78-6.15-18-3.38-6-1.2-21.22 7.08-27.26 7-7-.12-18.4-1.24-33.15-3.72-3.42 0-14.06.46-14.06.46l6.32 73.68a65.11 65.11 0 016.63 3c4.42 3.56 20.52-3.84 23.78-8.55 1.53-2.2 15.86 7.56 18.82 7.57 7.57 0 12-9.81 19.59-9.87 13.34-.11 25.85 12.13 27.73-10.06.54-5.46-5.46-14.86-7.76-21.2zM325.59 1183.55c3.56-4.27 20.11-10.39 24.29-6.78 1.43 1.23 13.14 5.14 15.07 4.65 16.94-4.29 26-3.49 34.43-6 4.46-1.32 21.11.11 25-.38 2.8-.36 13.21-8.71 16-8.08 12.4 2.84 15.68 7.51 28.34 7.39a160.08 160.08 0 0045.5-7.43c3-.89 11.62-6.87 23.27 1.09 11.3 7.71 14.24-12.27 27.42-8.72 2.13.58 8.61 3.91 10.75 3.4 2.5-.6 20.11 4.84 31.22 3.37 5.43-.72 11.6-7.41 17-8.45s25.29-14.2 40.81-4.2c10.77-.26 20.72-2.61 25.63 3.51s2.75 18.43 4.24 22.84c1.64 4.85 2.44 16.11 2.09 25.94-.24 6.73 1.55 13.73.16 16.5-5.82 2.24-5.13 8.8-11.11 7.07-19.27-5.58-15.59 4.65-26.78 6.09-12.5 1.61-26.52-2.3-31.19-3.45s-13.79 4-23.13 1.69-20.7-.9-29.54 3c-6 2.67-12.33 5.37-18.82 4.67-2.9-.31-5.51-2-8.18-3.25-11.1-5.26-17-3.09-30.68-1.14s-25.53 4.49-28.83 4.66c-2.85.14-19.88-4.07-22.64-3.31-4.57 1.25-1.54 7.19-6.17 8.18-8.33 1.77-14.76-.17-23.21.72-7.91.84-18.29-1.73-20.42-10.11-4 12.59-28.13-1.25-29.81 6.29s-31.27 6.92-42.49 6.31c-14.55-3.16-25.81-4.84-32.83-5.34-6-.43-21.76 6.57-27.65 5.1-6.36 2.28-19.88 2.73-17.71-4.18-2.59-3.24-5.93-10.42-5.23-14.64.78-4.65 6.62-12.95 4.88-18.53-1.91-6.11-7.22-15.33-6.4-20.44 3.32-20.87 15-8.61 28.33-8 7.55.36 12.63-8.7 20.18-8.26 2.89.21 16.55 10.22 18.21 8.22z" fill="#3a3934" stroke="#262521" stroke-linecap="round" stroke-linejoin="round" stroke-width="3"/><path d="M322.62 1045.62c3.53-4.28 15.52-5 19.68-1.39 1.42 1.23 13.22-1.14 15.14-1.63 16.83-4.29 23.29 2.28 31.65-.21 4.43-1.32 18.75-6.5 22.58-7 2.78-.36 16.53 5 19.27 5.65 12.34 2.84 24.94-12.12 37.53-12.23 15.45-.13 27.1 9.09 42 4.54 2.94-.89 6.35-8.78 17.94-.82 11.23 7.72 13.6-.68 26.7 2.87 2.13.58 21-11.06 23.11-11.58 2.48-.59 13.29 5 24.33 3.56 5.4-.72 18.29.15 23.65-.89s20.7 1.4 33.85-6.6 19 5.66 21 7.07c3.55 2.62 8.14 14.77 9.62 19.18 2.74 8.17 3.08 34.72-.32 41.55-5.78 2.23-11.7 12.33-17.64 10.6-19.16-5.58-15.5 5.51-26.63 6.94-12.42 1.6-13.34 2.35-22.71-6.85-5.62 8.37-13.9-2.27-23.19-4.55s-18.76.38-27.54 4.29c-6 2.67-13.88 10.31-20.33 9.61-2.88-.31-12.76 4.31-15.42 3-11-5.27-13.16-3.76-26.79-1.81s-26.5-5.93-29.79-5.76c-2.82.15-12.2 5.91-14.94 6.66-4.54 1.25-5-5.7-9.64-4.72-8.28 1.77-14 7.53-22.43 8.42-7.86.83-41.85 6.19-49.93-3.84-8.5 7.88-26.33 9.13-37.48 8.51-14.47-3.16-32.59.06-39.56-.45-6-.43-19.46-.56-25.32-2-6.32 2.28-19.76 2.73-17.6-4.19-1.19-1.49-6.14-17.63-5.5-26.71.76-10.67 7.31-14.71 8.18-20 2.8-16.88-5.49-21.66 7.75-21 7.51.36 23.41 10.12 30.91 10.56 2.86.19 16.25-6.78 17.87-8.78z" fill="#3a3934" stroke="#262521" stroke-linecap="round" stroke-linejoin="round" stroke-width="3"/></svg>