<svg xmlns="http://www.w3.org/2000/svg" xmlns:xlink="http://www.w3.org/1999/xlink" width="1250" height="1550" viewBox="0 0 1250 1550"><defs><pattern id="a" width="53.55" height="57.76" patternTransform="translate(-201.87 -30.31) rotate(11.36) scale(1.68)" patternUnits="userSpaceOnUse" viewBox="0 0 53.55 57.76"><rect width="53.55" height="57.76" fill="none"/><rect x="40.16" width="26.78" height="57.76" fill="#262521"/><rect x="40.16" width="13.39" height="28.88" fill="#595959"/><polygon points="53.55 13.39 40.16 0 66.94 0 53.55 13.39" fill="#444"/><polygon points="53.55 44.37 66.94 57.76 40.16 57.76 53.55 44.37" fill="#444"/><polygon points="53.55 28.88 40.16 42.27 40.16 15.49 53.55 28.88" fill="#444"/><rect x="13.39" width="26.78" height="57.76" fill="#262521"/><rect x="13.39" width="13.39" height="28.88" fill="#595959"/><rect x="26.78" y="28.88" width="13.39" height="28.88" fill="#595959"/><polygon points="26.78 13.39 13.39 0 40.16 0 26.78 13.39" fill="#444"/><polygon points="26.78 44.37 40.16 57.76 13.39 57.76 26.78 44.37" fill="#444"/><polygon points="26.78 28.88 40.16 15.49 40.16 42.27 26.78 28.88" fill="#444"/><polygon points="26.78 28.88 13.39 42.27 13.39 15.49 26.78 28.88" fill="#444"/><rect x="-13.39" width="26.78" height="57.76" fill="#262521"/><rect y="28.88" width="13.39" height="28.88" fill="#595959"/><polygon points="0 13.39 -13.39 0 13.39 0 0 13.39" fill="#444"/><polygon points="0 44.37 13.39 57.76 -13.39 57.76 0 44.37" fill="#444"/><polygon points="0 28.88 13.39 15.49 13.39 42.27 0 28.88" fill="#444"/></pattern><pattern id="b" width="53.55" height="57.76" patternTransform="translate(-114.96 -140.19) rotate(-8.99) scale(1.68)" patternUnits="userSpaceOnUse" viewBox="0 0 53.55 57.76"><rect width="53.55" height="57.76" fill="none"/><rect x="40.16" width="26.78" height="57.76" fill="#262521"/><rect x="40.16" width="13.39" height="28.88" fill="#595959"/><polygon points="53.55 13.39 40.16 0 66.94 0 53.55 13.39" fill="#444"/><polygon points="53.55 44.37 66.94 57.76 40.16 57.76 53.55 44.37" fill="#444"/><polygon points="53.55 28.88 40.16 42.27 40.16 15.49 53.55 28.88" fill="#444"/><rect x="13.39" width="26.78" height="57.76" fill="#262521"/><rect x="13.39" width="13.39" height="28.88" fill="#595959"/><rect x="26.78" y="28.88" width="13.39" height="28.88" fill="#595959"/><polygon points="26.78 13.39 13.39 0 40.16 0 26.78 13.39" fill="#444"/><polygon points="26.78 44.37 40.16 57.76 13.39 57.76 26.78 44.37" fill="#444"/><polygon points="26.78 28.88 40.16 15.49 40.16 42.27 26.78 28.88" fill="#444"/><polygon points="26.78 28.88 13.39 42.27 13.39 15.49 26.78 28.88" fill="#444"/><rect x="-13.39" width="26.78" height="57.76" fill="#262521"/><rect y="28.88" width="13.39" height="28.88" fill="#595959"/><polygon points="0 13.39 -13.39 0 13.39 0 0 13.39" fill="#444"/><polygon points="0 44.37 13.39 57.76 -13.39 57.76 0 44.37" fill="#444"/><polygon points="0 28.88 13.39 15.49 13.39 42.27 0 28.88" fill="#444"/></pattern><pattern id="c" width="53.55" height="57.76" patternTransform="translate(-206.58 -188.17) scale(1.68)" patternUnits="userSpaceOnUse" viewBox="0 0 53.55 57.76"><rect width="53.55" height="57.76" fill="none"/><rect x="40.16" width="26.78" height="57.76" fill="#262521"/><rect x="40.16" width="13.39" height="28.88" fill="#595959"/><polygon points="53.55 13.39 40.16 0 66.94 0 53.55 13.39" fill="#444"/><polygon points="53.55 44.37 66.94 57.76 40.16 57.76 53.55 44.37" fill="#444"/><polygon points="53.55 28.88 40.16 42.27 40.16 15.49 53.55 28.88" fill="#444"/><rect x="13.39" width="26.78" height="57.76" fill="#262521"/><rect x="13.39" width="13.39" height="28.88" fill="#595959"/><rect x="26.78" y="28.88" width="13.39" height="28.88" fill="#595959"/><polygon points="26.78 13.39 13.39 0 40.16 0 26.78 13.39" fill="#444"/><polygon points="26.78 44.37 40.16 57.76 13.39 57.76 26.78 44.37" fill="#444"/><polygon points="26.78 28.88 40.16 15.49 40.16 42.27 26.78 28.88" fill="#444"/><polygon points="26.78 28.88 13.39 42.27 13.39 15.49 26.78 28.88" fill="#444"/><rect x="-13.39" width="26.78" height="57.76" fill="#262521"/><rect y="28.88" width="13.39" height="28.88" fill="#595959"/><polygon points="0 13.39 -13.39 0 13.39 0 0 13.39" fill="#444"/><polygon points="0 44.37 13.39 57.76 -13.39 57.76 0 44.37" fill="#444"/><polygon points="0 28.88 13.39 15.49 13.39 42.27 0 28.88" fill="#444"/></pattern></defs><title>s05e02-03</title><path d="M877.22,1043c-3.84-55.87-22.89-124.63-22.89-124.63s-14.58-307-52.88-331.94c-10.88-7.11-148.63-58.32-148.63-58.32s4.72,52.64-75.63,52.64c-65.09,0-77.84-37.88-82-50a12.42,12.42,0,0,1-.75-2.59c-1,.66-106.06,65.8-150.57,92.61C299.18,647.69,317.24,945,317.24,945a619.73,619.73,0,0,0-3.6,128.12c5.52,68.42-1.88,179.2,14.45,197.93l61-1.5s-5.61-14.34-4.66-27c2.28-30.22,5.54-104.26,15.36-135.21,4.83-15.2,10.09-36.77,14.19-54.79-3.35,34.76-22,135.5-10.62,160.6,0,13-2.36,59.86-2.36,59.86s88.48,20.67,165.47,19.75c137.53-1.66,242.89-30.38,242.89-30.38s-3.23-43.82-4-57.41c8.88-15.34-1-63.45-10.45-125.17,15.4,46.66,32,107.53,33.91,137.5,1.63,26.39,2.88,34.36,2.88,34.36h58.1s4.49-6.66,5.3-18.88S882.79,1124.26,877.22,1043Z" fill="#262521"/><path d="M387.07,594.44c-16.5,10.12-31.8,19.46-43.16,26.3C299.18,647.69,317.24,945,317.24,945a619.73,619.73,0,0,0-3.6,128.12c3.31,41,2,97.28,3.9,139.8,31.43,4.76,61.59-1.42,69.13-4.33,1.06-15.63,2.4-33.3,4.2-50a.8.8,0,0,1-.2-1.21l.39-.52c2.14-19.56,4.94-37.68,8.69-49.5,4.83-15.2,10.09-36.77,14.19-54.79C412.21,1070.5,494.51,697.09,387.07,594.44Z" fill="url(#a)"/><path d="M826.09,1196.43c4.2-.08,49.85.67,65-9.17-4.12-38-10.61-96.89-13.86-144.26-3.84-55.87-22.89-124.63-22.89-124.63s-14.58-307-52.88-331.94c-4.19-2.74-27.22-12-53.94-22.41-4.73,33.24-38.13,189.39-39,235.61-.45,22.8,92.06,317.21,86.4,280.18C807.25,1117.32,820.42,1164,826.09,1196.43Z" fill="url(#b)"/><path d="M796,1083.09c-1.27-4.93-11.34-87-11.89-97.25C783,965.62,767,808.6,766.86,808c.74-126.1,34.45-213.93,38.37-218.08a17.69,17.69,0,0,0-3.78-3.47c-10.88-7.11-124.52-49.31-124.52-49.31s-9.57,66.16-100.44,66.23c-79.26.06-101.63-63-101.62-63.07-1,.66-86.45,53.65-131,80.46a24,24,0,0,0-7.31,7.55c12.49,15.9,57,81.57,71.7,146,1.45,12.81,2.79,26.18,3.28,39.05,1,25.82,3.19,160.07,3.65,166,1.14,14.78-.88,68.58-1.86,75.67l.57-2.49c-3.35,34.76-22,135.5-10.62,160.6,0,6.19,79.07,23.52,174.89,21.94,105-1.74,227.51-23,227.11-30.12C814.2,1189.64,795.59,1082,796,1083.09Z" fill="url(#c)"/><path d="M494.48,528.13l0,0S494.49,528.1,494.48,528.13Z" fill="#262521"/><path d="M413.68,1053.71c-4.14,18.21-9,38.16-13.93,53.64-9.82,31-13.08,105-15.36,135.21-.95,12.67,4.66,27,4.66,27l-61,1.5c-16.33-18.73-8.93-129.51-14.45-197.93A619.73,619.73,0,0,1,317.24,945s-18.06-297.33,26.67-324.28,150.6-92.63,150.6-92.63-.25-.24.72,2.61c4.12,12.15,16.87,50,82,50,80.35,0,75.64-52.64,75.64-52.64s137.74,51.21,148.62,58.32c38.3,25,52.88,331.94,52.88,331.94s19,68.76,22.89,124.63c5.57,81.26,18.66,177.57,17.84,189.79s-5.3,18.88-5.3,18.88h-58.1s-1.25-8-2.88-34.36c-1.86-29.85-17-86.23-32.37-132.82" fill="none" stroke="#262521" stroke-linecap="round" stroke-linejoin="round" stroke-width="3"/><path d="M410.64,807.59s5.34,199.1,3.82,238.13c-.83,21.49-23.46,140.26-11.15,167.44.05,13-2.35,59.86-2.35,59.86s88.48,20.67,165.47,19.75c137.53-1.66,242.89-30.38,242.89-30.38s-3.23-43.82-4-57.41c14.49-25-21.06-160.16-22.86-230.12-1.22-47.58-16.1-167.27-16.1-167.27" fill="none" stroke="#262521" stroke-linecap="round" stroke-linejoin="round" stroke-width="3"/><path d="M401,1273s88.48,20.67,165.47,19.75c137.53-1.66,242.89-30.38,242.89-30.38" fill="none" stroke="#636363" stroke-linecap="round" stroke-linejoin="round"/></svg>