<svg xmlns="http://www.w3.org/2000/svg" width="1000" height="1550" viewBox="0 0 1000 1550"><path d="M278.44 1252.94s58.13 16.91 200 12.4S676 1248.11 676 1248.11l22.8 267.08c-209.14 38.46-397.55 3.91-397.55 3.91z" fill="#262521" stroke="#262521" stroke-linecap="round" stroke-linejoin="round" stroke-width="3"/><path d="M752.22 1043c-3.84-55.87-22.89-124.63-22.89-124.63s-14.58-307-52.88-331.94c-10.88-7.11-145.4-57.49-145.4-57.49s-2.85 48.17-78.36 50.46c-65.06 2-81.84-51.2-81.82-51.28-1.05.65-107.46 65.81-152 92.62C174.18 647.69 192.24 945 192.24 945a619.73 619.73 0 00-3.6 128.12c5.52 68.42-1.88 179.2 14.45 197.93l61-1.5s-5.61-14.34-4.66-27c2.28-30.22 5.54-104.26 15.36-135.21S296.2 1019 296.2 1019c.49 23.68.3 42.22-1 50.32-3.6 21.92-31 90.79-17.16 121.08-3.34 29.28-6 66.77-6 66.77s126.39 23.45 203.34 20.62c141.2-5.19 209.52-31.5 209.52-31.5s-4.89-41.92-7.94-66.74c9.94-22.61-1.94-65.14-15.65-124.58 17.07 47.16 40.24 126.63 42.46 162.32 1.63 26.39 2.88 34.36 2.88 34.36h58.1s4.49-6.66 5.3-18.88-12.26-108.51-17.83-189.77z" fill="#262521" stroke="#262521" stroke-linecap="round" stroke-linejoin="round" stroke-width="3"/><path fill="#fff" stroke="#fff" stroke-linecap="round" stroke-linejoin="round" stroke-width="1.29" d="M455.61 687.34l-5.66-5.35 5.21-5.82 5.66 5.34-5.21 5.83zM494.68 659.27l-23.57 14.44 27.64-1.2-4.07-13.24zM462.02 658.64l13.14 10.11-7.16 5.1-11.42-8.07 5.44-7.14zM454.67 664.25l3.6-4.5-7.65.34 3.96 4.17v.11l.05-.06.05.05-.01-.11zM470.91 651.83l10.75-6.04 8.38 13.68-8.09 5.14-11.04-12.78zM459.08 695.73l7.18-18.98 6 8.25-13.18 10.73zM503.07 670.23l26.64-15.4.52 12.91-27.16 2.49zM492.88 643.17l11.57-5.58 5.8 17.11-9.12 3.18-8.25-14.71zM517.08 630.66l10.14-1.59.94 23.04-7.46.74-3.62-22.19zM536.39 654.54l32.24 4.65-2.97 13.22-29.27-17.87zM540.91 628.47l-.45 24.17 8.98 1.33 2.81-25.01-11.34-.49zM570.23 632.1l-9.1 23.16 7.37.78 11.59-20.6-9.86-3.34zM590.45 639.24l-12.2 21.33 6.65 2.82 15.29-19.9-9.74-4.25zM573.53 673.87l32.3 2.36-6.11 10.41-26.19-12.77z"/><path fill="#fff" stroke="#fff" stroke-linecap="round" stroke-linejoin="round" stroke-width="1.14" d="M616.88 681.8l20.45 25.62-6.2 6.66-14.25-32.28z"/><path fill="#fff" stroke="#fff" stroke-linecap="round" stroke-linejoin="round" stroke-width="1.29" d="M595.18 666.21l15.6-16.64 7.83 4.29-16.02 16.06-7.41-3.71zM610.98 673.58l17.9-14.91 7.7 6.51-19.83 12.79-5.77-4.39zM625.1 685.53l18.5-12.16 4.15 7.39-16.04 10.45-6.61-5.68z"/><path fill="#fff" stroke="#fff" stroke-linecap="round" stroke-linejoin="round" stroke-width="1.14" d="M634.5 699.14l16.48-12.21 4.29 7.67-16.4 10.39-4.37-5.85zM644.11 713.51l17.97-9.54 4.49 7.9-18.32 9.23-4.14-7.59zM643.6 719.49l13.31 31.25-10.57 2.07-2.74-33.32zM652.18 731l3.05 7.32 20.06-6.93-3.29-9.52-19.82 9.13zM656.61 743.5l2.95 7.12 19.01.77-.98-8.82-20.98.93zM657.88 762.17l-2.44 36.17-9.6-6.62 12.04-29.55zM659.96 760.27l.29 7.04 19.27 7.21.35-10.09-19.91-4.16zM659.66 775.39l-.73 8.29 19 11.86 2.02-10.56-20.29-9.59zM658.59 791.56l-.49 9.08 15.39 13.23 2.33-10.18-17.23-12.13zM651.39 812.42l3.9-5.81 12.46 14.76-4.94 8.28-11.42-17.23z"/><path fill="#fff" stroke="#fff" stroke-linecap="round" stroke-linejoin="round" stroke-width="1.29" d="M611.75 754.33l-57.83-84.23-6.36.28 46.25 66.73 17.94 17.22zM588.47 734.28l-43.78-63.78-6.36.28 37.33 55.31 12.81 8.19z"/><path d="M620.36 766.43s25.13 32.11 32.9 44.56l2.74 13.49 3.68 15.08s-18.87-34.73-29.48-46.64z" fill="#fff" stroke="#fff" stroke-linecap="round" stroke-linejoin="round" stroke-width="1.14"/><path fill="#fff" stroke="#fff" stroke-linecap="round" stroke-linejoin="round" stroke-width="1.29" d="M493.8 676.04l-33.84 72.47 12-11.62 27.54-61.59-5.7.74zM502.12 675.19l-26.82 60.24 7.87-6.01 24.1-55.34-5.15 1.11zM459.18 698.31l19.58 4.66-1.86 4.09-19.62-4.87 1.9-3.88zM456.3 704.35l19.58 4.65-1.86 4.1-17.57-5.15-.15-3.6zM495.32 707.41l33.17 8.03-14.83.95-20.24-5.1 1.9-3.88zM492.53 713.36l17.45 4.23-10.39 1.91-8.96-2.26 1.9-3.88zM490.06 719.46l-3.28 7.4 10.59-5.47-7.31-1.93zM459.44 781.01l11.17 31.2-9.39 12.54-1.78-43.74zM459.28 777.24l27.3 16.2-7-38.68s-9.31 5.82-20.3 22.48zM481.4 753l29.14 25.83 14.29-40.42s-25.78-.23-43.43 14.59zM469.45 742.98l-11.15 10.25 8.19 9.41 10.61-10-7.65-9.66zM484.05 731.4l13.44-7.06 6.13 13.64-13.39 5.86-6.18-12.44zM515.34 719.14l3.58 16.62 13.61-.6.41-17.27-17.6 1.25zM528.27 738.18l12.94 39.26 34.49-25.33s-22.11-16.57-47.43-13.93zM551.83 720.39l-2.41 16.77 12.9 4.35 7.03-15.83-17.52-5.29zM578.74 753.62L568 796.33l40.2-.33s-7.05-29.34-29.46-42.38zM586.71 735.53l-7.7 14.84L590.2 758l10.13-11.61-13.62-10.86zM602.36 773.55l6.88 15.54 13.29-7.33-6.02-16.93-14.15 8.72zM609.15 800.38l-32.7 26.53 36 13s.61-25.91-3.3-39.53zM629.88 804.31l-15.26 4.91 1.54 16.71 15.67-.68-1.95-20.94zM611.89 845l-34.14 13.75L608 881s4.83-18.15 3.89-36zM607.5 884.22l-38.42 5.29L598 915.16s8-17.98 9.5-30.94zM615.76 849.4l-1.67 18.01 15.75 1.52 3-19.01-17.08-.52zM610.7 887.95l-5.49 17.62 14.69 5.23 5.71-17.78-14.91-5.07zM596.76 919.27l-37.93.09 25.44 30s8.73-14.97 12.49-30.09zM598.41 925.63l-7.15 16.49 14.82 6.31 6.93-17-14.6-5.8zM582.89 953.43l-37.22-4.7 23.7 30.81s8.52-13.27 13.52-26.11zM582.01 963.06l-8.03 16.28 13.9 6.62 8.34-16.85-14.21-6.05zM567.73 983l-36.49.22 20.53 28.69A189 189 0 00567.73 983zM565 996.56l-8.4 15.16 12.59 7.13 8.65-15.06-12.84-7.23zM549.54 1016.54l-36.78-6.47 20.89 32.24s8.66-8.96 15.89-25.77zM546.37 1030.46l-8.65 14.38 13.33 8.68 9.06-15.08-13.74-7.98zM531.66 1047.37l-34-9.36 18.25 34.89s11.42-13.15 15.75-25.53zM527.29 1064.27l-11.1 16.3 17.2 9.18 7.19-17.93-13.29-7.55zM513.76 1077.74l-35.56-9.07-4.34 65.69.71 17.36 12.09 10.55 8.74-17.33-11.92-11.45 30.28-55.75z"/><path fill="#fff" stroke="#fff" stroke-linecap="round" stroke-linejoin="round" stroke-width="1.29" d="M505.63 1099.55l-10.24 18.52 12.47 8.94 11.13-18.11-13.36-9.35zM633.41 863.91l3.34 49.52-4.67 4.65-2.14-28.26 3.47-25.91zM627.89 893.7l1.66 26.5-4.67 4.65-1.32-16.13 4.33-15.02zM651.18 904.07l-37.92 34.78-4.42 10.61 42.3-37.36.04-8.03zM651.12 915.66l-45.17 39.88-6.33 13.84 51.46-45.94.04-7.78zM637.81 939.35l2.16 52.77-4.32 7.92-2.31-56.81 4.47-3.88zM630.95 944.98l2.31 56.62-4.31 7.92-2.48-60.67 4.48-3.87zM653.11 992.72l-23.89 23.51 9.61 4.91 14.26-23.98.02-4.44zM624.21 1024.71l-15.83 31.68 9.98 6.16 5.85-37.84zM613.81 1071.34l-27.69 22.68 9.6 7.63 18.09-30.31zM572.48 1136.7l9.44-32.83-18.11 25.1 8.67 7.73zM537.63 1173.33l5.29 5.27 7.61-.33 17.22-34.21-30.12 29.27zM583.86 999.95l-5.74 10.83-3.4 97.23 6.48-7.36 2.66-100.7zM575.13 1014.02l-5.74 10.83-4.11 95.38 6.45-8.01 3.4-98.2zM544.32 1070.06l20.9-10.73-.29 6.43-24.09 12.37 3.48-8.07zM537.4 1088.57l3.04-7.25 24.25-12.15-.34 6.13-26.95 13.27zM585.19 1048.86l33.25-18.32-4.52 7.75-28.79 16.01.06-5.44zM585.24 1057.05l27.18-14.74-5.56 10.01-21.97 11.7.35-6.97zM475.55 1175.59l82.64-43.95-4.6 9.54-77.8 40.35-.24-5.94zM475.91 1184.54L553 1144.7l-4.4 8.31-61.11 30.85-11.58.68zM516.52 1117.96l6.89-11.54-4.42 42.74-6.77 3.98 4.3-35.18zM518.65 1170.91l-.52 9.6-6.95.3.57-6.1 6.9-3.8zM513.42 1123.07l-5.62 9.22-3.33 24.68 5.26-2.94 3.69-30.96zM509.24 1176.11l-.53 4.72-7.22.5.52-1.56 7.23-3.66zM654.38 1013.89l-3.62-4.79-3.31 5.2 6.93 9.12zM654.86 1034.59l-11-13.67-4.43 5 15.57 19.33c0-3.55 0-7.11-.14-10.66zM637.53 1032.94l-5.07 5.75 14.71 21.18 4.07-5.13-13.71-21.8zM630.44 1046.02l-4.68 5.45 13.97 21.69 4.03-5.99-13.32-21.15zM623.05 1060.12l-3.16 5.8 11.19 20.29 3.57-5.78-11.6-20.31zM616.01 1074.19l-4.02 6.09 9.12 15.52 4.18-5.81-9.28-15.8zM608.5 1087.87l-3.7 5.02 8.52 20.02 4.88-5.54-9.7-19.5zM599.74 1103.09l-4.43 5.08 8.33 20.04 4.78-5.83-8.68-19.29zM590.06 1116.16l-4.76 6.08 8.81 22.59 5.24-5.95-9.29-22.72zM580.01 1133.53l-4.67 6.3 9.43 21.72 4.66-6.32-9.42-21.7zM570.54 1147.1l-4.76 8.5 9.53 20.83 3.47-.15 3.77-5.31-12.01-23.87zM561.53 1165.31l-4.25 7.34 3.37 5.18 6.67-.29 1.02-2.43-6.81-9.8zM659.1 1056.23l-4.36 7.21a28.14 28.14 0 007 1.68 52.56 52.56 0 00-2.64-8.89zM613.78 1124l18.78-25.87s13.24 9.73 4.73 23.12-23.51 2.75-23.51 2.75zM635.25 1095.18l16.48-28.18s14.54 11.18 7 23-23.48 5.18-23.48 5.18zM612.66 1128.56l-16.91 28.94s16.08 7.29 23.21-5.53-6.3-23.41-6.3-23.41zM587.46 1175.14l6.17-12.48s7.84.25 9 11.81zM626.1 1145.63s16.43 6.78 19.46 29.32l-12.27.53s-2.63-13.6-13-17z"/><path d="M635.18 1128.61s24.12 7.76 24.06 44.92M662 1092.05a40.55 40.55 0 018.17 6" fill="none" stroke="#fff" stroke-linejoin="round" stroke-width="2.58"/><path d="M534.55 856.27l-1.08-26.5 3.13-.14 4.73 15-.62-15.16 3-.13 1.08 26.5-2.79.16-5-16.37h-.06l.68 16.56zM538 888.82l-1.08-26.51 9.41-.41.16 4-6 .26.28 6.83 4.52-.2.16 4-4.51.19.47 11.75z" fill="#fff"/><path fill="#fff" stroke="#fff" stroke-linecap="round" stroke-linejoin="round" stroke-width="1.29" d="M455.22 687.35l5.21-5.82-5.67-5.34-5.21 5.82 5.67 5.34zM414 662.79l24.67 12.34-27.65 1.21 2.98-13.55zM446.49 659.32l-12.26 11.21 7.54 4.46 10.73-9.04-6.01-6.63zM454.27 664.27l-3.95-4.17 7.65-.33-3.6 4.5v.11l-.05-.05-.04.05-.01-.11zM437.08 653.3l-11.21-5.07-7.22 14.36 8.47 4.41 9.96-13.7zM452.45 696.02l-8.7-18.28-5.31 8.74 14.01 9.54zM406.54 674.45l-27.8-13.03.53 12.91 27.27.12zM414.49 646.6l-11.99-4.56-4.38 17.55 9.34 2.38 7.03-15.37zM389.35 636.23l-10.23-.7.94 23.05 7.5.08 1.79-22.43zM372.06 661.71l-31.75 7.44 4.04 12.92 27.71-20.36zM365.43 636.13l2.42 24.04-8.85 2.11-4.83-24.67 11.26-1.48zM336.5 642.31l10.96 22.28-7.28 1.42-13.23-19.52 9.55-4.18zM316.94 651.18l13.9 20.19-6.4 3.39-16.86-18.5 9.36-5.08zM336.62 684.21l-31.99 5.16 6.93 9.85 25.06-15.01z"/><path fill="#fff" stroke="#fff" stroke-linecap="round" stroke-linejoin="round" stroke-width="1.13" d="M294.55 696.39l-17.94 27.32 6.6 6.09 11.34-33.41z"/><path fill="#fff" stroke="#fff" stroke-linecap="round" stroke-linejoin="round" stroke-width="1.29" d="M314.43 678.47l-16.91-15.23-7.45 4.96 17.28 14.61 7.08-4.34zM299.29 687.19l-16.28-12.57-7.96 6.89 18.84 10.55 5.4-4.87z"/><path fill="#fff" stroke="#fff" stroke-linecap="round" stroke-linejoin="round" stroke-width="1.13" d="M288.06 700.25l-17.12-12.22-3.94 6.66 16.43 11.73 4.63-6.17zM278.2 714.71l-17.13-10.73-3.58 8.02 16.91 8.92 3.8-6.21zM269.95 729.86l-18.37-7.93-3.76 8.25 18.7 7.61 3.43-7.93zM271.45 735.78l-10.5 32.29 10.52 1.15-.02-33.44zM263.48 747.99l-2.39 7.56-20.22-5.15 2.46-9.78 20.15 7.37zM260.16 760.83l-2.31 7.36-18.55 2.43.23-8.88 20.63-.91zM260.94 779.06l5.33 35.82 8.86-7.44-14.19-28.38zM258.24 777.84l.29 7.04-18.28 8.86-1.17-10.02 19.16-5.88zM259.76 792.88l1.39 8.2-17.64 13.47-2.83-10.35 19.08-11.32zM262.13 808.89l1.22 9.01-13.99 14.52-3.12-9.93 15.89-13.6zM270.88 829.06l-4.29-5.45-11 15.79 5.51 7.82 9.78-18.16z"/><path fill="#fff" stroke="#fff" stroke-linecap="round" stroke-linejoin="round" stroke-width="1.29" d="M305.1 767.72l50.75-88.97 6.37-.28-40.65 70.52-16.47 18.73zM326.66 745.71l38.42-67.37 6.37-.28-32.7 58.37-12.09 9.28z"/><path d="M297.53 780.53s-22 34.18-28.59 47.26l-1.61 13.68-2.33 15.35s16.1-36.47 25.53-49.26z" fill="#fff" stroke="#fff" stroke-linecap="round" stroke-linejoin="round" stroke-width="1.13"/><path fill="#fff" stroke="#fff" stroke-linecap="round" stroke-linejoin="round" stroke-width="1.29" d="M416.25 679.43l39.63 69.25-12.92-10.52-32.46-58.97 5.75.24zM407.89 679.3l31.63 57.69-8.33-5.3-28.52-53.04 5.22.65zM452.56 698.6l-19.13 6.34 2.18 3.92 19.15-6.56-2.2-3.7zM455.92 704.37l-19.13 6.34 2.18 3.92 17.09-6.66-.14-3.6zM417.29 710.81l-32.4 10.9 14.86-.35 19.74-6.85-2.2-3.7zM420.56 716.5l-17.05 5.73 10.51 1.01 8.74-3.04-2.2-3.7zM423.52 722.36l3.86 7.1-11-4.54 7.14-2.56zM459.04 781.03l-8.59 32.06 10.38 11.68-1.79-43.74zM458.89 777.25L433 795.78l3.8-39.15s9.79 4.98 22.09 20.62zM434.87 755l-26.93 28.28-17.53-39s25.67-2.48 44.46 10.72zM445.96 744l11.95 9.25-7.4 10.09-11.38-9.04 6.83-10.3zM430.48 733.74l-13.98-5.86-4.99 14.12 13.82 4.67 5.15-12.93zM398.29 724.25l-2.21 16.87-13.61.6-1.81-17.19 17.63-.28zM387 744.34l-9.7 40.26-36.43-22.24s20.64-18.43 46.13-18.02zM362.04 728.67l3.76 16.5-12.49 5.47-8.3-15.17 17.03-6.8zM337.93 764.13l14.19 41.62-40.12 3.16s4.66-29.83 25.93-44.78zM328.52 746.8l8.88 14.11-10.53 8.58-11.04-10.68 12.69-12.01zM316.02 786.05l-5.59 16.08-13.84-6.14 4.61-17.4 14.82 7.46zM311.44 813.37L346.19 837l-34.79 16s-2.75-25.76.04-39.63zM291.11 819.1l15.6 3.56-.17 16.79-15.68.68.25-21.03zM312.34 858.05l35.15 10.72-28.37 24.81s-6.25-17.64-6.78-35.53zM319.92 896.77l38.71 1.93-26.71 28.07s-9.46-17.21-12-30zM308.85 862.8l3.14 17.8-15.57 2.88-4.55-18.68 16.98-2zM317.04 900.77l6.9 17.08-14.21 6.49-7.14-17.22 14.45-6.35zM333.47 930.76l37.81-3.21-22.91 32.13s-9.89-14.18-14.9-28.92zM332.35 937.25l8.47 15.8-14.26 7.58-8.29-16.33 14.08-7.05zM350.08 963.59l36.7-7.93-21.09 32.77s-9.58-12.43-15.61-24.84zM351.75 973.12l9.32 15.51-13.32 7.81-9.67-16.06 13.67-7.26zM367.6 991.76l36.37-3-18.11 30.38a187.17 187.17 0 01-18.26-27.38zM371.42 1005.01l9.61 14.37-11.96 8.2-9.85-14.25 12.2-8.32zM388.46 1023.58l36.12-9.66-18.19 33.94s-9.39-8.17-17.93-24.28zM392.75 1037.17l9.79 13.57-12.57 9.81-10.26-14.23 13.04-9.15zM408.78 1052.73l33.16-12.29-15.35 36.36s-12.48-12.11-17.81-24.07zM414.52 1069.19l12.39 15.27-16.4 10.66-8.62-17.24 12.63-8.69zM429.09 1081.43l34.7-12.13 9.68 65.08.71 17.36-11.19 11.56-10.12-16.5 10.94-12.45-34.72-52.92z"/><path fill="#fff" stroke="#fff" stroke-linecap="round" stroke-linejoin="round" stroke-width="1.29" d="M438.97 1102.46l11.72 17.56-11.69 9.99-12.58-17.07 12.55-10.48zM292.44 878.79l.71 49.64 5.04 4.23-.17-28.35-5.58-25.52zM300.37 908l.5 26.54 5.04 4.23v-16.18L300.37 908zM287.51 934.89l36.39 27-5.27-10.19-31.9-24.62c.2 2.62.48 5.21.78 7.81zM288.82 946.51L334.71 981l-7.44-13.24-39.33-29.19c.31 2.61.63 5.27.88 7.94zM294.21 954.35l2.15 52.77 4.94 7.52-2.32-56.81-4.77-3.48zM301.51 959.36l2.31 56.62 4.94 7.52-2.48-60.67-4.77-3.47zM296.85 1020.1c-.46 3-.25 6-.9 9l3.91 6.88 9.17-5.74zM314.72 1038.22l18.35 30.19-9.44 7.01-8.91-37.2zM328.88 1083.78l29.44 20.18-8.94 8.44-20.5-28.62zM375.39 1145.3l-12.08-31.89 20.09 23.44-8.01 8.45zM413.1 1178.77l-4.84 5.71-7.61.33-19.95-32.59 32.4 26.55zM352.91 1010.03l6.6 10.29 11.31 96.59-7.05-6.77-10.86-100.11zM362.75 1023.29l6.6 10.3 11.88 94.68-7.08-7.42-11.4-97.56zM398.02 1076.45l-21.71-8.88.82 6.39 25.02 10.23-4.13-7.74zM406.42 1094.29l-3.62-6.96-25.16-9.99.85 6.07 27.93 10.88zM355.57 1058.88l-34.63-15.35 5.13 7.32 30 13.45-.5-5.42zM356.18 1067.04l-28.28-12.31 6.35 9.49 22.85 9.74-.92-6.92zM475.15 1175.61l-85.93-36.59 5.36 9.1 80.81 33.43-.24-5.94zM475.51 1184.56l-80.06-32.98 5.07 7.89 63.4 25.42 11.59-.33zM429.62 1121.75l-7.8-10.89 7.89 42.2 7.06 3.37-7.15-34.68zM431.81 1174.7l1.31 9.52 6.95-.3-1.07-6.03-7.19-3.19zM433.13 1126.57l6.36 8.7 5.32 24.3-5.48-2.47-6.2-30.53zM441.61 1179.06l.92 4.66 7.24-.13-.65-1.51-7.51-3.02zM299.6 1040.73l-3.49-3.3c.2 2.42.5 4.82.85 7.22zM302.11 1047.58l-5.77 11.13c0 .36-1.78 12.85-2.58 15.55l.94 1 12.94-22.39zM310.25 1060l5.1 5.02-12.15 22.83-4.5-5.62 11.55-22.23zM318.76 1073.4l3.62 5.51-9.49 21.19-4.03-5.44 9.9-21.26zM326.92 1086.82l4.5 5.71-7.82 16.26-4.64-5.42 7.96-16.55zM335.52 1099.78l4.09 4.69-6.86 20.69-5.31-5.1 8.08-20.28zM345.49 1114.19l4.83 4.68-6.68 20.69-5.23-5.4 7.08-19.97zM356.19 1126.37l5.25 5.64-6.94 23.28-5.7-5.47 7.39-23.45zM367.63 1142.8l5.16 5.87-7.62 22.47-5.16-5.9 7.62-22.44zM378.17 1155.5l5.44 8.05-7.8 21.59-3.47.16-4.2-4.97 10.03-24.83zM388.63 1172.86l4.83 6.94-2.93 5.46-6.67.29-1.21-2.34 5.98-10.35zM333.21 1136.21l-20.83-24.13s-12.4 10.85-2.83 23.45 23.66.68 23.66.68zM292 1084.52c-.79 3.12-5.39 17.63-6.25 21.92 8.48 10.91 23.72 3 23.72 3zM334.69 1140.7l19.21 27.36s-15.43 8.67-23.58-3.49 4.37-23.87 4.37-23.87zM363.6 1184.91l-7.17-11.91s-7.79.92-8 12.55zM322.69 1158.88s-15.82 8.18-17 30.9l12.26-.53s1.52-13.78 11.58-18.06z"/><path d="M312.25 1142.71s-23.4 9.83-20.31 46.85" fill="none" stroke="#fff" stroke-linejoin="round" stroke-width="2.58"/><path d="M379.74 863l-1.08-26.5 3.37-.15 1.08 26.5zM408.83 835.21l5-.22c3.62-.16 5.33 2.27 5.51 6.78.09 2.28-.52 4.7-2.11 5.65 1.75 1 2.84 2.74 3 6.16.18 4.37-1.12 7.73-5 7.9l-5.33.23zm3.82 10.72l1.23-.06c1.28 0 2.21-1.27 2.12-3.47-.1-2.46-.86-3.71-2.36-3.65l-1.28.06zm.49 11.89l1.41-.06c1.8-.08 2.39-1.5 2.28-4.18s-.92-4-2.94-4h-1.08zM424.93 861.06l-1.08-26.5 9-.4.16 4-5.66.25.28 6.83L432 845l.16 4-4.36.19.32 7.79 6-.27.16 4zM438 860.49L437 834l3.37-.14.92 22.53 5.3-.23.17 4zM451 859.92l-1.09-26.5 3.38-.15 1.08 26.5zM458.85 859.58l-1.08-26.51 9-.39.16 4-5.66.25.28 6.83 4.35-.19.17 4-4.36.19.32 7.78 6-.26.16 4zM479.05 832.15l3.32-.15-3 26.68-3.37.15-5.2-26.32 3.32-.15 3.2 18.28h.06zM487.45 858.33l-1.08-26.5 9-.4.17 4-5.66.24.27 6.83 4.36-.19.16 4-4.35.19.31 7.79 6-.27.17 4zM524 856.73l-1.08-26.5 3.37-.14 1.08 26.5zM383.42 873l-3.27.14-.16-4 9.91-.43.16 4-3.27.14.92 22.54-3.37.14zM393.14 895.14l-1.08-26.5 3.37-.15.44 10.79 3.59-.16-.46-10.79 3.38-.14 1.08 26.5-3.37.15-.48-11.75-3.6.16.48 11.74zM406.28 894.57l-1.08-26.51 9-.39.17 4-5.66.25.28 6.83 4.35-.19.16 4-4.35.19.32 7.78 6-.26.16 4zM435.43 893.29l-1.08-26.5 4.84-.21c4.16-.18 6.18 1.9 6.41 7.55s-1.61 7.91-5.77 8.09l-1.47.06.44 10.87zm2.77-14.75l1.31-.06c2.2-.1 2.85-1 2.72-4.2s-.85-4-3.05-3.95l-1.31.06zM447.75 872.64c-.15-3.74 1.36-6.86 4.89-7s5.3 2.82 5.45 6.56l.56 13.65c.15 3.75-1.36 6.87-4.9 7s-5.29-2.82-5.44-6.56zm3.93 13.4c.08 2 .55 2.92 1.91 2.86s1.76-1 1.68-3l-.55-13.43c-.08-2-.55-2.92-1.92-2.86s-1.75 1-1.67 3zM466.48 865.39l2.78-.12 3 16.78h.06l1.18-17 3.16-.13-2.37 26.65-2.83.12-3.17-17.4h-.05l-1.57 17.61-2.83.12-4.84-26.3 3.16-.14 2.75 16.79h.09zM480 891.35l-1-26.51 9-.39.16 4-5.66.25.28 6.83 4.35-.19.16 4-4.35.19.32 7.78 6-.26.16 4zM495 890.69l-3.37.15-1.09-26.5 4.74-.21c3.78-.16 5.8 1.92 6 7.57.18 4.26-1 6-2.09 6.78l3.34 11.88-3.42.15-2.85-10.87a13.05 13.05 0 01-1.73.19zm-.6-14.61l1.2-.05c1.82-.08 2.47-1 2.34-4.18s-.85-4.05-2.67-4h-1.2zM521.5 869.42c-.15-3.74 1.36-6.86 4.9-7s5.29 2.82 5.44 6.56l.56 13.66c.15 3.74-1.36 6.86-4.89 7s-5.3-2.82-5.45-6.56zm3.93 13.4c.08 2 .56 2.92 1.92 2.86s1.75-1 1.67-3l-.55-13.43c-.08-2-.55-2.92-1.91-2.86s-1.76 1-1.68 3zM387.42 982.48l-3.22-78.73 10-.44 2.73 67 15.76-.69.48 11.77zM426.56 921c-.45-11.12 4-20.39 14.53-20.84s15.72 8.38 16.18 19.5l1.65 40.56c.46 11.12-4 20.39-14.53 20.84s-15.72-8.38-16.17-19.5zm11.66 39.8c.24 5.89 1.65 8.66 5.69 8.49s5.22-3.07 5-9l-1.63-39.91c-.24-5.89-1.65-8.66-5.69-8.49s-5.22 3.07-5 9zM493.91 899l9.86-.43-9 79.26-10 .44L469.34 900l9.86-.43 9.5 54.32h.16zM523 976.56l-3.21-78.73 26.83-1.17.48 11.78-16.81.73.83 20.28 12.93-.56.48 11.78-12.93.56.94 23.12 17.94-.79.48 11.78z" fill="#fff"/><path fill="none" stroke="#636363" stroke-linecap="round" stroke-linejoin="round" d="M272.05 1257.19l412.86-10.88"/><path d="M677 1179.57c9.94-22.61-1.94-65.14-15.65-124.58M296.2 1019c.49 23.68.3 42.22-1 50.32-3.6 21.92-31 90.79-17.16 121.08" fill="none" stroke="#262521" stroke-linecap="round" stroke-linejoin="round" stroke-width="3"/></svg>