<svg xmlns="http://www.w3.org/2000/svg" width="1000" height="1550" viewBox="0 0 1000 1550"><path d="M752.22 1043c-3.84-55.87-22.89-124.63-22.89-124.63s-14.58-307-52.88-331.94c-10.88-7.11-148.63-58.32-148.63-58.32s4.72 52.64-75.63 52.64c-65.09 0-77.84-37.88-82-50a12.42 12.42 0 01-.75-2.59c-1 .66-106.06 65.8-150.57 92.61C174.18 647.69 192.24 945 192.24 945a619.73 619.73 0 00-3.6 128.12c5.52 68.42-1.78 226.51 13.48 240.51 12.34 11.31 66.07-27.47 66.07-27.47s-6.25-31-5.3-43.62c2.28-30.22 2-104.26 11.86-135.21 4.83-15.2 10.09-36.77 14.19-54.79-3.35 34.76-22 135.5-10.62 160.6 0 13-2.36 59.86-2.36 59.86s88.48 20.67 165.47 19.75c137.53-1.66 242.89-30.38 242.89-30.38s-3.23-43.82-4-57.41c8.88-15.34-1-63.45-10.45-125.17 15.4 46.66 28.54 107.53 30.41 137.5 1.63 26.39-1.66 60.27-1.66 60.27s62.59 34.11 73.3 20.46c4.24-9.66-.66-30.51.42-46.84.82-12.18-14.55-126.92-20.12-208.18z" fill="#262521" stroke="#262521" stroke-linecap="round" stroke-linejoin="round" stroke-width="3"/><path d="M278.32 1213.16c0 13-2.36 59.86-2.36 59.86s88.48 20.67 165.47 19.75c137.53-1.66 242.89-30.38 242.89-30.38s-3.23-43.82-4-57.41c1.16-1.98-402.39 7.32-402 8.18z" fill="#fff"/><path d="M369.48 528.13s.01-.03 0 0z" fill="#262521"/><path d="M668.61 1072.45c-3.47-4.3-9.25-5.87-14.46-6.74-2.48-.41-5-.72-7.46-1.2a34 34 0 01-3.58-.89c-.44-.14-2-.82-.5-.11-.53-.26-1.06-.5-1.57-.81-.22-.13-.43-.3-.65-.42-.65-.34.73.83.31.24a3.41 3.41 0 00-.55-.52c-.22-.21-.8-.53-.15-.12 1.08.69-1-1.28-1.34-1.61a10.18 10.18 0 00-2.3-1.62c-3.33-1.71-6.94-1.3-10.49-.81l-1.91.28c-1.13.17 0 0 .17 0l-1 .1a16 16 0 01-1.83.08 3.74 3.74 0 01-.87 0c.82.13 1 .14.55 0a5.69 5.69 0 01-.59-.16c1.31.21.09.4-.19-.23.15.34.89.81.36.23-.18-.19-.38-.36-.56-.54-.37-.39-.72-.81-1.07-1.22-.68-.8.06.08.16.21-.25-.34-.51-.68-.76-1-1.69-2.33-3.28-4.77-5.58-6.55a8.28 8.28 0 00-11.1.68l7.27-.93c-3.68-2.63-8-.08-10.63 2.62-.88.9-1.7 1.86-2.6 2.76-.19.19-.4.38-.59.58-.68.7.1-.08.42-.28-.6.39-.86.29.6-.15-1.69.5 5 1.49 3.61.47-2.94-2.09-8.24-.07-8.82 3.58-.06.42-.17.82-.26 1.23-.22 1 .55-.78 0 0a3.12 3.12 0 00-.31.49c-.26.54.29-.41.34-.45a11.8 11.8 0 00-1.14 1.1c.65-.67.48-.35-.12 0-.36.24-.73.46-1.1.68-.84.48-1.71.92-2.58 1.35-3.87 1.9-7.93 3.74-10.75 7.15-3 3.65-4.41 8.08-7 12-.28.43-.93 1-.22.35-.34.34-.66.7-1 1-.73.74.59-.25-.34.25-.76.4-1.5.79-2.28 1.13a16.51 16.51 0 00-6.43 4.43 27 27 0 00-4 7.21c-.36.9-.73 1.81-1.08 2.71-.24.65.11-.26.14-.32-.11.21-.19.44-.3.65-.28.56-.58 1.1-.88 1.65-.11.2-.27.37-.38.58 0-.1.72-.73.25-.32-.16.14-1.09 1.15-.54.63s-1 .57-.5.33-.37.14-.4.15l-1.16.37a20.6 20.6 0 00-8.08 4.21c-3.53 3.19-5 7.76-7.22 11.83-.24.46-.5.9-.77 1.34s-1.08 1.57-.36.67a14.8 14.8 0 01-1.19 1.31c-.21.21-.43.41-.64.6s-.93.75-.54.46a41.63 41.63 0 01-6.42 3.43c-9.86 4.34-21.3 9.1-32.21 8.54l-1.05-.06c0-.11 1 .29 1 .28a3.74 3.74 0 011.1.74c-.62-.61.32.44.27.46s-1.06-1.77-1.18-2c-1.43-2.42-3.42-4.28-6.31-4.66-4.75-.64-7.8 3.37-10.92 6.24l-.91.8c-.79.72.93-.48.07 0a3.55 3.55 0 00-.77.45c.07-.29 1.35-.49 1.56-.51 1.25-.32 2.27.26 3.06 1.73q3 3.38 2.39 1.56c-.35-.76 0 1.27.05.27v-1.18c0-.9.06-1.8 0-2.7 0-2.56-.47-5.24-2.41-7.09a8.16 8.16 0 00-8.1-1.73 21.66 21.66 0 00-5.64 3c-.72.48-1.43 1-2.18 1.41l-.7.38c-.63.38 0 0 0 0 0-.14.72-.22.07-.06-.83.2.56-.08.7-.07a9.2 9.2 0 014 1.91c.54.5.39.54.21.22.32.57.44 1.31.19.36-.21-.76-.4-1.52-.56-2.29a28.72 28.72 0 00-1.11-4.57c-1.09-2.9-2.82-4.39-5.54-5.8-2.09-1.09-4.21-2.12-6.32-3.19-2-1-3.91-2-5.79-3.12-.84-.51-1.68-1-2.49-1.61-.22-.15-1.5-1.09-1-.73s-.14-.11-.21-.17c-.27-.22-.54-.44-.8-.67-3.78-3.24-6.55-7.25-10.71-10.08a34.18 34.18 0 00-14.86-5.51 21 21 0 00-7.37.37l7.38 7.38a14 14 0 00-2-12.08 21.32 21.32 0 00-4.89-5 33.86 33.86 0 00-5.36-2.83c1.15.58-.55-.37-.87-.57s-.76-.5-1.14-.76c-.78-.54.63.51-.13-.09-1.46-1.17-2.82-2.44-4.22-3.66-3.05-2.68-6.33-5.4-10.36-6.41a25.59 25.59 0 00-6.05-.63c-.94 0-1.89 0-2.83-.07-1.19-.09 1.43.19-.6-.1l-.62-.17q.43.29-.12 0c-2.75-1.25-5.29-2.78-8.13-3.87a21.68 21.68 0 00-17.35.4c-6.93 3.3-10.38 10-14.41 16.09-.19.29-.39.58-.6.86.7-.93 0 0-.2.17s-.86.91-.31.37-.52.31-.59.35c.21-.12 1.15-.35.07-.07-.22 0-1.11.21 0 0-1.07.16-2.16.21-3.22.43-4.42.88-6.12 4.3-6.74 8.37a8.26 8.26 0 00-.31 1.58c-.21-.22.83-1.47 1-1.65a4.86 4.86 0 014.2-1.46c.92 0 .74.08.36 0-.64-.15 1.58.77.73.29-.39-.21-.81-.4-1.21-.59a15 15 0 00-9.55-1.44 15.41 15.41 0 00-4.88 2c-.36.22-.7.46-1 .7s-2.59 1.39-1.49 1.16c.21 0 1.92-.79 1.25-.61a2.86 2.86 0 011.38-.07c1.29.22-.3-.13-.57-.21s-.4-.16-.61-.22c-.94-.31.42.19.47.2-1-.15-2.37-1.15-3.31-1.63-2.64-1.35-5.35-2.79-8.32-3.19a8.51 8.51 0 00-5.53.92 1.72 1.72 0 00-.35.25c-.8.74 1-.34.53-.19-.67.18 1.47 0 .76-.1a4.39 4.39 0 00-1 0c-.73.06 1.3.3.55.08-.36-.1-.75-.14-1.12-.22-.67-.16-1.33-.33-2-.51-1.34-.38-2.68-.79-4-1.11-3.14-.75-7.2-1.36-10 .74-2.5 1.88-4.05 5.27-2.15 8.21 1.59 2.48 5.52 4.17 8.21 2.15 1-.78-1.17.3-.3.09-1.85.44-.64.21.08.14s-1.3-.29-.55-.08c.24.07.5.1.75.15.59.12 1.17.27 1.76.42a67 67 0 006.7 1.68 13.16 13.16 0 005.23 0 8 8 0 002.18-.82 1.79 1.79 0 00.42-.25c.51-.6-.5.15-.8.23.58-.15-1.76 0-.44.1-2-.09-.72-.08 0 .14.19.06 1.73.6.74.25s.72.35 1 .5c4.61 2.25 10 5.93 15.2 3.24.42-.21 2.1-1.56 1.4-1.06.42-.3.84-.58 1.28-.84.15-.09 1.21-.6.49-.29s1.92-.4.69-.22c-.89.13 0 0 .2 0 1.29 0-.23-.17-.32-.1.14-.13 1.13.31 1.31.35 1.09.25-1-.57-.43-.2.16.1.35.16.52.25a21.83 21.83 0 003.05 1.36c4.05 1.26 7.63-1.21 9-5a19.73 19.73 0 00.65-3.41 3.24 3.24 0 00.16-.8c0-.56-.41.7-.6 1l-.3.36c-1.76.93-2.22 1.28-1.36 1l.66-.13-.82.12c.87-.48 2.36-.24 3.35-.46a12.35 12.35 0 002.82-1.08 13.93 13.93 0 004.05-3.27c2.33-2.74 3.85-6 5.88-8.9a10.94 10.94 0 011.18-1.57c.5-.57 1-1.13 1.55-1.66l.78-.73c.13-.12 1-.82.37-.34s.21-.15.36-.25c.33-.21.65-.42 1-.61s.53-.28.78-.43c1.18-.7-.86.22-.06 0 .53-.14 1-.35 1.57-.48.25-.07.53-.09.78-.17.77-.22-1.22 0-.42.06.59 0 1.18-.06 1.77 0h.78c1.32.05-1-.25-.22 0 .51.13 1.05.2 1.56.33a35 35 0 013.32 1.12c-1.55-.57.34.17.71.35l1.54.77a44.33 44.33 0 004.8 2.34 21 21 0 007.23 1c1 0 1.91 0 2.85.08s-.71-.19.32.06a6.15 6.15 0 011 .25c-.23-.15-.2-.14.07 0a15.87 15.87 0 012 1.21c.94.59.34.22.12.06.45.35.89.72 1.33 1.09 1.42 1.21 2.78 2.49 4.21 3.69a35.52 35.52 0 005.05 3.75c1.05.61 2.19 1 3.28 1.5-.24-.11-.91-.48.1.08.41.24.82.46 1.22.72.12.07 1.07.77.56.36s.59.55.68.64c.27.27.52.54.77.83-.74-.85.27.46.34.56s.51 1.05.09 0a8 8 0 01.43 1.5c-.15-.81.15-.38-.11-.06l.1-.56a7.24 7.24 0 01-.28 1c-1.43 4.57 3.1 8.35 7.38 7.38.66-.15 1.2-.07.21-.08.57 0 1.13-.06 1.7 0s1 .06 1.5.09c.7.05-.22 0-.31 0 .35.08.7.13 1.05.2a28.8 28.8 0 013.41 1c.25.09 1.52.6 1.09.41-.58-.25.26.13.3.15l1 .49a29.74 29.74 0 013 1.79c.22.15.43.31.65.45-.07 0-.72-.58-.2-.15s.89.74 1.3 1.14c1.74 1.67 3.18 3.63 4.92 5.31a52.46 52.46 0 0011.6 8.22c2 1.08 4.12 2.09 6.18 3.13 1.15.58 2.3 1.16 3.45 1.76.43.23 1.83 1.29.93.39a7.7 7.7 0 01-1.14-1.21c.4.63-.28-.61-.26-.71a9 9 0 00.59 2.15c.18.83.33 1.66.5 2.48a13.46 13.46 0 002.26 5.61c3.83 5 9.64 2.17 13.78-.62.72-.49 1.43-1 2.18-1.42.33-.19.7-.35 1-.56.56-.35-.65.28-.62.27.34-.15 1.11-.12.09-.08a4.3 4.3 0 01-4.17-2.22c-.87-1.47-.69-1.31-.54-.77 0 0-.06-1.43-.1-.8-.07.9 0 1.86 0 2.77a15.24 15.24 0 00.84 6.36 6.94 6.94 0 008.36 3.92c3.79-1.12 6.68-4.63 9.46-7.27.81-.77-.46.31-.3.22a2.68 2.68 0 01.28-.18 3.52 3.52 0 01-2.13.41 5.07 5.07 0 01-3.07-1.06c.37.37-.47-.64-.46-.64s.53.87.6 1a12.12 12.12 0 004.51 5c2.84 1.52 6.58 1.33 9.73 1.17a59.2 59.2 0 009.83-1.38 103 103 0 0017.35-5.87c5.56-2.3 11.2-4.42 15.87-8.31 3.94-3.29 5.75-7.9 8-12.33a28.43 28.43 0 011.65-2.82c.6-.91-.52.45.27-.3.23-.23 1.33-1.13.84-.82-.86.54 1.33-.7.31-.23a14.79 14.79 0 011.74-.58 27 27 0 004.84-1.86c4.84-2.61 6.78-7.64 8.7-12.45.19-.47.61-1.3.14-.36.22-.42.4-.86.62-1.29s.48-.8.7-1.22.69-.82-.13.1c.2-.23.42-.45.61-.69.61-.73-.72.31.37-.31.56-.32 1.12-.6 1.7-.87a25.75 25.75 0 003.87-1.91c4.36-3 6.45-7.42 8.73-12 .46-.91.93-1.81 1.47-2.67.14-.24 1.08-1.52.67-1s.65-.67.86-.87c.45-.42 1-.73.14-.18.37-.25.73-.51 1.1-.75.9-.57 1.85-1.07 2.8-1.56 3.65-1.84 7.69-3.42 10.48-6.55a13.24 13.24 0 003.34-6.57l-8.81 3.59c3.68 2.62 8 .08 10.63-2.62.89-.9 1.71-1.87 2.6-2.76.19-.2.4-.38.6-.58.68-.7-.11.07-.42.28.59-.39.85-.29-.61.14 1.69-.5-5-1.48-3.6-.46 2.18 1.55 5.46.78 7.27-.94.7-.67-.47.35-.52.38a4.26 4.26 0 01-2.11.55 3.22 3.22 0 01-1.77-.44c.58.35-1-1-.53-.43.14.16.32.29.47.44a5.24 5.24 0 011 1.2s-.73-1-.35-.45c.16.22.33.44.48.66l.86 1.18c.92 1.28 1.85 2.54 2.86 3.75a14.17 14.17 0 006.62 4.69c3.1 1 6.29.5 9.42.06.56-.08 1.12-.15 1.68-.25.88-.15-1.07.08-.19 0 .23 0 .47 0 .7-.07a17.18 17.18 0 011.77-.1 6.57 6.57 0 01.83 0c0 .14-1.5-.47-.25 0 .73.29-1.1-.56-.42-.17s-.5-.41-.48-.39c.73.62-.09-.2-.2-.33.42.48.75 1 1.17 1.51a16.2 16.2 0 003.21 2.69c4.08 2.75 9.23 3.43 14 4.14a54.49 54.49 0 017.69 1.53l.8.25c.19.07 1.35.42.43.14-.75-.23-.16-.07 0 0 .35.19.7.35 1 .56.17.09.33.2.5.3 1.12.67-.19-.06-.14-.13a15.86 15.86 0 011.31 1.38c2 2.45 6.46 2.21 8.49 0 2.39-2.61 2.11-5.87 0-8.49z" fill="#938498" opacity=".3"/><path d="M672 1079.4s1.76-3.64-11.59-4.36c-23.39-1.26-44.74-24.07-61.08-16.91s-37.52 43.5-58 63.27c-20.4 19.45-53.42 20.44-79.2 12.72-20.4-7-34.56-24-51.28-36.69-12.63-9.6-28-22.26-40.56-24.66s-25 12.64-33.33 20c-12.75 15.23-48.28-8.25-54 5.5-4.65 25.4-10.25 98.1-4.64 114.9-.23 11.24-1 32.76-1.58 44.79 0 0 129 17 170.87 15 133.76.13 235.09-28.22 235.09-28.22l-2.38-39.74c10.05-16.1-8.32-125.6-8.32-125.6z" fill="#746a77"/><path d="M286 1162.25l.66-.29c.8-.36-.93.37-.11 0 .45-.18.89-.37 1.34-.54 1-.42 2.09-.82 3.14-1.2 2.05-.76 4.11-1.49 6.17-2.22l12.95-4.61c4.18-1.48 8.33-3.13 12.56-4.45.21-.06.42-.11.63-.18 1-.32-.09 0-.33 0 1.1 0-1-.38.12-.06a23.3 23.3 0 003 .82c2.88.47 5.52 0 8.35-.58.27 0 .54-.08.81-.14.67-.13-.64.08-.62.08a9.1 9.1 0 001.16-.11 26 26 0 012.93 0c.39 0 .78 0 1.16.07l.59.05c1 .1-.32 0-.44-.06.87.24 1.8.31 2.68.53s1.64.44 2.45.71l1.11.4.73.29c.75.29-1.06-.5-.34-.14a46.19 46.19 0 014.68 2.57c.39.25.77.52 1.15.78.18.13 1.22.91.51.36s-.11-.08 0 0l.61.51c.35.3.7.6 1 .92a41.11 41.11 0 013.72 4c.68.8-.09-.1-.17-.24a5.72 5.72 0 00.37.49c.29.39.57.78.84 1.18q.82 1.18 1.56 2.43a50.5 50.5 0 012.58 5c.09.2.63 1.43.27.62s.24.6.32.82c.35.91.67 1.83 1 2.75q.87 2.67 1.52 5.42t1.08 5.57a4 4 0 01.14.94s-.14-1.14-.06-.42c.06.47.12.94.16 1.41.12 1.17.21 2.35.24 3.53v3.07q0 .71-.09 1.41c0 .23-.05.47-.07.7-.1 1.18.15-.71 0 0a44 44 0 01-1.54 6.08c-.32 1-.68 1.9-1.05 2.83-.17.44-.34.87-.52 1.3s-.24.57-.35.86c-.34.8.4-1 .06-.15q-1.29 3-2.57 6.06c-.83 1.94-1.62 3.89-2.49 5.82a19.39 19.39 0 01-1.22 2.35 3.83 3.83 0 01-.44.67c-.08 0 .83-.9.31-.43a6.14 6.14 0 00-1 1c.41-.68.81-.57.27-.24l-.5.31c-.4.24-.8.46-1.21.67-.82.43-1.67.82-2.49 1.24a39 39 0 00-4.68 2.93c-3 2.15-5.84 4.55-9.1 6.29-.42.22-.85.43-1.28.63-1 .47.95-.3-.18.05s-2 .66-3.08.89-2 .37-2.94.55 1.1-.13.22 0l-.69.09-1.83.21-13.29 1.43c-4.63.5-9.29.89-13.87 1.69a31.13 31.13 0 00-11.14 4 103.66 103.66 0 00-9 6.63l-.84.66c-1.14.88.81-.61 0 0-.56.43-1.12.85-1.69 1.26-2.55 1.81-4 5.31-2.15 8.21 1.63 2.53 5.47 4.1 8.21 2.15 1.54-1.1 3-2.28 4.52-3.44.67-.53 1.36-1 2-1.58-.1.08-1.13.86-.32.24l.45-.34 1.22-.91a48 48 0 014.22-2.85c.64-.38 1.32-.68 2-1s-.82.32-.76.32a4.88 4.88 0 00.69-.25c.58-.2 1.16-.39 1.75-.55a38.8 38.8 0 016.3-1.25s-1.15.14-.45.07l.91-.11c.54-.07 1.07-.13 1.61-.18l3.38-.37 14.06-1.52c4.73-.51 9.66-.81 14.13-2.53a44.65 44.65 0 0010.84-6.43c1.59-1.19 3.19-2.38 4.89-3.42s3.32-1.71 5-2.62a17.32 17.32 0 005.79-5.14 26.32 26.32 0 002.73-5.4c3.77-8.85 8.41-17.65 9.22-27.38a57.16 57.16 0 00-1-14.41 67.62 67.62 0 00-2.93-11.29c-2.88-8-7.26-15.73-13.76-21.35a39.15 39.15 0 00-23.3-9.85 33.74 33.74 0 00-6.66.42c-1 .15-2 .37-3 .56a4.39 4.39 0 00-.68.11c.1-.29 1.18-.05.25-.06a5.14 5.14 0 00-.68 0c-.66.08 1.08.33.06 0a14.24 14.24 0 00-8.27-.58c-2.16.54-4.27 1.46-6.36 2.2-8.88 3.16-17.81 6.2-26.63 9.5q-3.64 1.38-7.22 3a6 6 0 00-2.76 3.58 6.18 6.18 0 00.61 4.63c1.93 3 5.12 3.51 8.21 2.15zM679.61 1144.56a100.54 100.54 0 00-24.88-13l-1.51-.56a5.27 5.27 0 01-1.5-.59c.46.49.74.34.16.07l-.84-.39c-.54-.26-1.07-.54-1.6-.83a42.47 42.47 0 00-6.68-3.42 31.89 31.89 0 00-7.84-1.29c-2.42-.2-4.84-.38-7.27-.46a59.92 59.92 0 00-15.46 1.35 78 78 0 00-14 5.08c-4.2 1.86-8.87 3.63-12 7.18-3.34 3.84-5.17 8.7-6.78 13.46a82.3 82.3 0 00-4.24 27.63 80.91 80.91 0 001.55 14.39 36.35 36.35 0 004.92 12.69c5.07 7.72 13.38 11.57 20.81 16.55 7.22 4.85 14.24 10.21 22.73 12.66 9.26 2.66 18.76 1 28.19 1.25 1 0 2.09.09 3.14.18.36 0 1.17 0 1.45.15-.06 0-1.5-.23-.36 0l.82.13c1 .18 2 .41 3 .69.46.13.92.26 1.37.42.26.08.51.18.77.27a2.82 2.82 0 10-.3-.15c.88.52 1.85.88 2.73 1.41.24.15 1.14.54 1.19.79 0 0-1.11-1-.34-.21.17.17.34.33.5.5a3.18 3.18 0 00.46.52c-.09 0-.86-1.21-.34-.42l.62.93c.42.66.82 1.34 1.28 2a15.41 15.41 0 005.52 5c2.8 1.41 6.63.83 8.21-2.16 1.44-2.73.84-6.69-2.15-8.21-.41-.2-.77-.45-1.17-.66s.51.38.52.4a3.59 3.59 0 00-.49-.45c-.17-.18-1-1.22-.36-.36s-.16-.29-.33-.55a28.52 28.52 0 00-3.52-4.77c-3.19-3.2-7.84-5.16-12.17-6.18-8.75-2.07-17.56-.73-26.42-.9-1.09 0-2.18-.07-3.26-.15l-1.62-.16c-.73-.07.45 0 .44.06a6.14 6.14 0 01-1.14-.19 32 32 0 01-6-1.71l-.58-.23c-.76-.3 1 .48.3.12l-1.31-.61c-.93-.46-1.84-.94-2.74-1.45-1.76-1-3.47-2.07-5.15-3.19-3.32-2.2-6.54-4.55-9.91-6.69s-6.77-4.09-10-6.41c-.55-.39.42.33.41.32a2.93 2.93 0 01-.63-.51l-.91-.79a27.14 27.14 0 01-2.13-2.16c-.14-.17-.65-.88-.18-.18s.06.07 0-.06c-.28-.39-.56-.79-.82-1.2a25.9 25.9 0 01-1.49-2.74 7.35 7.35 0 00-.34-.76s.42 1.1.21.47c-.16-.46-.35-.91-.5-1.37-.34-1-.63-2-.89-3s-.44-1.91-.62-2.88c-.09-.48-.18-1-.26-1.45l-.09-.62c0-.22-.07-.44-.1-.66l.09.7a6.41 6.41 0 00-.18-1.57c-.06-.53-.11-1-.16-1.58-.09-1-.16-2.1-.21-3.16q-.15-3.27 0-6.56c0-1 .11-2.11.19-3.16 0-.53.09-1.05.15-1.58 0-.36.37-1.47.2-1.79 0 .08-.21 1.45 0 .25 0-.23.07-.45.1-.68.08-.52.16-1 .25-1.56q.3-1.66.66-3.33a80 80 0 013.82-12.3c.42-1.06 0 .11-.11.24a4.17 4.17 0 00.26-.57c.2-.45.41-.89.63-1.33s.46-.86.71-1.28c.14-.24.29-.48.44-.71s.67-.89.14-.23.45-.49.61-.65.41-.38.61-.57.67-.58.05 0-.07.06.07 0 .47-.31.71-.45c.48-.29 1-.56 1.47-.81 1.91-1 3.89-1.83 5.85-2.71l1.48-.65.63-.27c.8-.35-1 .39-.16.07 1.07-.43 2.13-.86 3.22-1.25a50.49 50.49 0 016.14-1.86c.52-.12 1-.24 1.58-.34a5.32 5.32 0 011.67-.28c-.12 0-1.39.16-.16 0l.72-.08c.64-.06 1.29-.12 1.93-.16a94 94 0 0114 .4l1.6.15c1.18.11-1-.2.2 0 .51.1 1 .2 1.54.34.29.07.57.2.86.26.77.17-1.24-.64-.05 0 1.8.9 3.47 2 5.27 2.94a68.12 68.12 0 007.18 3c1 .37 2 .74 3 1.13a13 13 0 011.46.58l-.4-.17 1 .45a90 90 0 0111.31 6c1.84 1.16 3.63 2.38 5.39 3.66 2.55 1.86 6.8.52 8.21-2.15 1.65-3.12.57-6.23-2.15-8.21z" fill="#fff" opacity=".4"/><path d="M682.56 1150.94c-9.21-4.48-28.45-28.75-61.36-22.81a41.43 41.43 0 00-29.65 12.15c-15.23 15.34-19.22 41.33-9.16 60.49 10.2 19.41 32.22 29 53.12 31.38 13.85 1.56 28.38-4.59 48.22 15.11.55 0-3-20.44-3.41-42.28 7.29-17.75 2.5-40.98 2.24-54.04zM361.41 1151a41.42 41.42 0 00-30.21-10.68c-24.73-3.23-43.71 11.89-55.48 21.83-.09 8.43-1.8 43 3 50.54a.84.84 0 01.13.65s-1.06 38.17-1.71 44.83c17.1-15.63 32.17-11.19 44.9-13.26 20.76-3.37 42.28-14 51.52-33.94 9.07-19.6 3.81-45.37-12.15-59.97z" fill="#fff"/><path fill="none" stroke="#625866" stroke-linecap="round" stroke-miterlimit="10" d="M305.91 1221.95l.43 44.78M298.67 1220.36l-1.2 44.77M314.15 1223.25l1.09 44.77M291.12 1217.89l-2.23 46.83M284.46 1216.32l-3 47.2M339.86 1226.36l1.09 44.77M331.29 1225.11l1.09 44.78M348.43 1226.86l1.09 44.77M322.72 1224.54l1.09 44.77M374.1 1228.12l1.13 46.17M365.57 1228.81l1.09 44.78M382.67 1229.12l1.13 46.17M357 1227.72l1.09 44.77M408.38 1231.21l1.13 46.17M399.81 1230.12l1.13 46.17M416.95 1231.71l1.13 46.17M391.26 1230.93l1.1 44.78M434.11 1233.31l1.1 44.77M425.52 1232.1l1.13 46.17M442.68 1233.81l1.1 44.77M468.38 1232.41l1.09 44.77M459.8 1233.31l1.1 44.77M476.95 1232.41l1.09 44.77M451.23 1233.33l1.1 44.77M502.66 1231.3l1.09 44.78M494.09 1231.91l1.09 44.77M511.23 1230.31l1.09 44.78M485.52 1232.41l1.09 44.77M536.94 1228.81l1.09 44.78M528.37 1229.81l1.09 44.78M545.51 1228.31l1.09 44.78M519.8 1230.3l1.09 44.78M571.23 1225.38l1.1 44.77M562.65 1226.22l1.09 44.77M579.8 1224.61l1.1 44.78M554.08 1227.36l1.09 44.77M605.53 1220.98l1.1 44.77M596.95 1222.26l1.09 44.77M614.1 1218.95l1.1 44.78M588.38 1223.11l1.09 44.78M640.31 1213.78l1.13 46.17M631.23 1214.79l1.13 46.17M648.33 1211.59l2.23 46.13M622.66 1216.5l1.13 46.17M665.15 1205.72l2.93 48.19M656.7 1208.89l2.65 46.81M673.37 1203.62l2.63 48.2"/><path d="M289.46 1045.72c-.83 21.49-23.46 140.26-11.15 167.44.05 13-2.35 59.86-2.35 59.86s88.48 20.67 165.47 19.75c137.53-1.66 242.89-30.38 242.89-30.38s-3.23-43.82-4-57.41c14.49-25-21.06-160.16-22.86-230.12" fill="none" stroke="#262521" stroke-linecap="round" stroke-linejoin="round" stroke-width="3"/></svg>