<svg xmlns="http://www.w3.org/2000/svg" width="1000" height="1550" viewBox="0 0 1000 1550"><defs><pattern id="a" width="14.25" height="9.19" patternTransform="matrix(-1.52 -.5 -.5 1.52 -1.1 -43.54)" patternUnits="userSpaceOnUse" viewBox="0 0 14.25 9.2"><path fill="none" d="M0 0h14.25v9.19H0z"/><path fill="#42413b" d="M0 0h14.25v3.5H0z"/><path fill="#fff" d="M0 3.5h14.25v5.69H0z"/></pattern><pattern id="b" width="14.25" height="9.19" patternTransform="matrix(1.52 -.5 .5 1.52 28.53 -16.99)" patternUnits="userSpaceOnUse" viewBox="0 0 14.25 9.2"><path fill="none" d="M0 0h14.25v9.19H0z"/><path fill="#42413b" d="M0 0h14.25v3.5H0z"/><path fill="#fff" d="M0 3.5h14.25v5.69H0z"/></pattern><pattern id="c" width="14.25" height="9.19" patternTransform="matrix(1.6 0 0 1.6 -28.11 -27.22)" patternUnits="userSpaceOnUse" viewBox="0 0 14.25 9.2"><path fill="none" d="M0 0h14.25v9.19H0z"/><path fill="#42413b" d="M0 0h14.25v3.5H0z"/><path fill="#fff" d="M0 3.5h14.25v5.69H0z"/></pattern></defs><path d="M366.65 530.74s.01-.04 0 0zM638.19 849.61c58.38 11.42 118.49-39.89 118.49-39.89s-68.23-217.64-79.93-223.29-143.29-56.71-143.29-56.71-1.49 55.49-81.84 55.49c-65.09 0-80.1-39.73-84.22-51.88a12.64 12.64 0 01-.75-2.59c-1 .65-135.78 84.37-147.44 90-2.17 1-15.48 16.93-15.8 45.23-15.73 64.38-38.09 172.8-38.09 172.8s103.21 50.51 123.26 10.34l4.1 7.63-20 406s91.48 25.55 210.72 21.55 195.84-37.18 195.84-37.18l-41.07-397.5z" fill="#fff"/><path d="M288.56 849.08s9.35-233.55-69.35-228.34c-2.17 1-15.48 16.93-15.8 45.23-15.73 64.38-38.09 172.8-38.09 172.8s103.19 50.48 123.24 10.31z" fill="url(#a)"/><path d="M638.19 849.61c58.38 11.42 118.49-39.89 118.49-39.89s-68.23-217.64-79.93-223.29c-135.62 90.11-38.56 263.18-38.56 263.18z" fill="url(#b)"/><path d="M638.19 849.61c-36-114.46 50.26-257.53 38.56-263.18s-125.51-49.31-125.51-49.31-11.72 67.79-99.24 69.29c-75.63 1.3-105.17-63.29-105.15-63.37-1.05.66-115.95 72.07-127.61 77.7-1.28.62 10.86 18 22.45 79.92 6.06 59.5 23.13 110.77 46.9 148.42l4.1 7.63-20 406s91.48 25.55 210.72 21.55 195.84-37.18 195.84-37.18l-41.07-397.5z" fill="url(#c)"/><path d="M203.09 665.94C187.36 730.32 165 838.74 165 838.74s103.21 50.51 123.26 10.34" fill="none" stroke="#262521" stroke-linecap="round" stroke-miterlimit="10" stroke-width="3"/><path d="M637.89 849.61c58.38 11.42 118.49-39.89 118.49-39.89s-68.23-217.64-79.93-223.29-143.29-56.71-143.29-56.71-1.49 55.49-81.85 55.49c-65.08 0-80.09-39.73-84.21-51.88-1-2.85-.72-2.61-.72-2.61s-135.77 84.36-147.47 90c-2.8 1.36-24.26 27.5-12.14 73.24" fill="none" stroke="#262521" stroke-linecap="round" stroke-linejoin="round" stroke-width="3"/><path d="M241 696.22s12.17 87.68 26.55 114.41l24.79 46.08-20 406s91.48 25.55 210.72 21.55S679 1247.11 679 1247.11l-42.4-410.37 10.18-28.49" fill="none" stroke="#262521" stroke-linecap="round" stroke-miterlimit="10" stroke-width="3"/><path d="M642 700.66S625.84 782.12 629.31 807s6.44 21.88 8.58 42.64M688.86 647s6.82-23.29-2.08-41.13" fill="none" stroke="#262521" stroke-linecap="round" stroke-miterlimit="10" stroke-width="3"/><path d="M276.31 1069.34c2.6-12 4.59-25.5 7.12-30.88 1.79-36.41 8.93-181.75 8.93-181.75l-4.1-7.63c-20.14 32-85.17 5-85.17 5l.23 27.76c98.59-27.73 72.88 185.33 72.99 187.5zM714.75 855.57l-2.3-18.17c-35.91 20.67-74.56 12.21-74.56 12.21s12 143.45 18.39 179.36a72.5 72.5 0 014.92 9.78c-1.02-10.86-22.44-178.98 53.55-183.18z" fill="#262521"/><path d="M348.77 546.51c1.31-.41 28.31 59.9 100.35 59.9 88.59 0 101-64.89 101-64.89" fill="none" stroke="#636363" stroke-linecap="round" stroke-linejoin="round" stroke-width="1.61"/></svg>