<svg xmlns="http://www.w3.org/2000/svg" width="1000" height="1550" viewBox="0 0 1000 1550"><path d="M752.22 1043c-3.84-55.87-37.47-431.58-75.77-456.57-8.21-5.36-89.35-37.64-130.5-53.51-5-19.43-31.43-22.13-31.43-22.13l5.7 12.92s1.57 49.68-70.5 49.68c-65.08 0-70.28-49.59-70.26-49.68a29.32 29.32 0 004.85-16.18c-30.21 6.73-26.8 29.51-32.16 32.75-33.73 20.41-99 59.85-133.24 80.46-44.73 27-35.8 384-30.27 452.4 4 49.48 3.57 175 15.83 211.14 0 0-6.79 49.21-2.27 54.4 0 0 57 9.29 77.69-1.6 2.73 15 2.54 18.71 5.22 22.81 4.84 7.4 125.05-14.12 202.05-15.05 137.52-1.65 189.76 6 200.72-2.9 6-4.84 1.26-13.83 2.19-33.87 48.13 16 82.45-7.82 82.45-7.82s-2.94-30.85-2.13-43.07c12.47-13.06-12.6-132.92-18.17-214.18z" fill="#262521" stroke="#262521" stroke-linecap="round" stroke-linejoin="round" stroke-width="3"/><path d="M651.65 1140.59c-4.63-1-14.19.5-19.9.29-12-.43-23.06-.21-35-.09-9.24.09-18 2.22-27.12 2.52-6.37.2-12.68-1.5-19.08-1.3-3.38.11-6.94 1.14-10.38 1.35-12.4.74-25.33 0-37.43 1.45-3.22.37-6.35 2-9.61 2.16-6.91.42-14-.78-20.68-.53-6.52.25-12.53 2.17-19.17 2.73-4.29.36-9.15-1.38-13.5-1.15-7.17.36-14.34 2.34-21.55 2.67-3.79.17-7.45-.6-11.14-.29-6.17.51-12.06 3.37-18.33 1.13-11 4.6-25.43 3.67-39.09 3.83-9.88.11-20.27 2.85-28.65.07-15.74 3.1-35.62 0-52.59 1.77l.45 12.39c15.34-1.68 35.24 1.44 46.2 1 4.74-.19 9.22.48 13.52.35 5.28-.18 10.66-2 16-2 4.45 0 8.48.59 12.73.33 5.11-.32 10.11-1 15.15-1.22 5.25-.18 10.63.7 15.91.41 11.8-.65 23.15-3.58 35.1-3.13 14.2.55 26.21-1 40.62-1.37 56.71-1.26 118.37-7.12 184.8-6.5 3.44-2.79 8.31-.88 13.56-1.27s10.55-3.27 14.41-3.65c.5 0 1.47-.08 2-.09l.07-10.52c-9.5-.18-19.87.28-27.3-1.34zM679.59 1179.42c-14.75.95-31.44-1.69-41.66-1.28-4.77.2-9.27-.48-13.6-.34-5.31.17-10.72 2-16.06 2-4.47 0-8.52-.59-12.8-.33-5.13.33-10.17 1-15.24 1.23-5.27.18-10.69-.7-16-.41-11.87.65-23.28 3.59-35.3 3.14-14.28-.55-26.37 1-40.86 1.37-57 1.27-119.06 7.15-185.87 6.55-3.46 2.78-8.36.87-13.64 1.26s-10.61 3.28-14.5 3.66a49 49 0 01-5.44 0l.84 10.51c10.33.32 21.79-.37 29.92 1.39 4.67 1 14.28-.51 20-.3 12.07.42 23.2.21 35.22.08 9.29-.09 18.15-2.23 27.28-2.52 6.4-.21 12.75 1.5 19.19 1.29 3.4-.11 7-1.14 10.44-1.35 12.47-.74 25.47 0 37.65-1.46 3.24-.37 6.38-2 9.66-2.16 7-.42 14 .77 20.8.53 6.56-.26 12.6-2.18 19.28-2.74 4.32-.36 9.2 1.38 13.58 1.15 7.21-.37 14.43-2.35 21.68-2.67 3.8-.17 7.48.6 11.2.28 6.21-.51 12.13-3.37 18.44-1.13 11-4.6 25.58-3.68 39.32-3.84 9.94-.11 20.38-2.85 28.81-.08 14.83-2.91 33.13-.38 49.34-1.5-.15-4.08-1.48-8.2-1.68-12.33z" fill="#a72727" fill-rule="evenodd"/><path d="M678.79 1214.43a7.15 7.15 0 00-2.93 1.61c-15.42-.73-29.53 2.29-44.72 2.44-7.12.07-14.77-1.06-22.32-.8-2.06.07-4.76 1.48-6.82 1.61-15.37 1-31.59-1.68-47.58 0-2.66.3-5.09 1.48-7.79 1.62-8.41.46-16.85-1.1-25.25-.79-1.37 0-3.35 1.5-4.87 1.61-2.6.18-5.13-.23-7.77 0-18 1.57-33.57 3.81-49.59 4.85-12.79.83-25.34 2.51-37.92 3.24a108.44 108.44 0 01-24.25-1.6c-11.89 3.19-24.55.52-35.94 0-7.45-.34-15.32 2-23.29-.8-1.28 2.59-4.08 1.5-5.86 1.61-14.39 1-30.51-.45-44.68.83a90.07 90.07 0 00-15.13 2.25l.71 9.44c2.8-.74 4.5-2.28 7.51-2.83 3.27-.59 7.62-.35 11.66-.81 10.65-1.21 17.71.24 26.22 0 6.54-.19 12.72-3.46 17.48 0 24.77-4.91 50.94 1.12 78.69-1.65 7.9-.77 17.32-.71 26.24-1.61 3.77-.38 7-1.43 10.7-1.62 10.81-.56 20.32-1.71 30.14-2.43 20.33-1.5 39.4-1.91 55.42-4.86 21.75 2.45 45.32-.15 68-.84 2.24-.06 3.94-.78 5.83-.8 1.39 0 1.6 1.53 2.9 1.61.93.06 3-1.69 3.89-1.61 2.18.18 3.44 1.67 5.81 1.61 8.19-.19 16.6-1.14 25.27-1.62 3-.17 6-1.49 8.76-1.62 7.2-.34 19.26 1.48 26.14 1l-.39-8.25c-.42-.16-3.88-.43-4.27-.79z" fill="#fff" fill-rule="evenodd"/><path d="M266.45 1164.67c-1.86-1.11-5.59.18-7.85-.15a118.94 118.94 0 00-13.81-.87c-3.64-.11-7.07 1.83-10.65 1.92-2.5.07-5-1.78-7.55-1.71-1.33 0-2.71 1-4.07 1.11-4.87.47-10-.53-14.73.62-1.26.31-2.46 1.83-3.74 2-2.72.27-5.53-1.08-8.17-1a10.86 10.86 0 00-3.59 1q.11 8.17.59 16.34h.12c22.34 0 46.54-4.5 72.76-2.42.53-1.11 1.18-1.42 1.9-1.42v-14.78a7.49 7.49 0 01-1.21-.64zM269.79 1203.2c-3-.67-5.78-1.41-7.83-1.32-1.87.09-3.65-.68-5.34-.64-2.08.06-4.16 1.77-6.26 1.65-1.75-.08-3.35-.77-5-.61-2 .21-4 .82-5.94.89s-4.21-.94-6.29-.76c-4.64.38-9 3.06-13.78 2.35-5.61-.86-10.31.46-16 .47-2.76 0-5.56.07-8.38.19v16.29a27.17 27.17 0 005.46.83c2.57-.11 4.9-1.89 7.5-2.31 1.69-.26 3.64 1.58 5.35 1.45 2.82-.2 5.61-2 8.45-2.19 1.49-.08 2.95.77 4.4.54 2.42-.38 4.68-3.11 7.2-.73 4.23-4.35 9.95-3.11 15.34-3 3.9.11 7.93-2.4 11.3.56 3.48-1.56 7.41-1.11 11.37-.67-.44-4.31-1.04-8.64-1.55-12.99z" fill="#a72727" fill-rule="evenodd"/><path d="M261.25 1242c-2.79-.09-5.8-1.39-8.76-1.3-.8 0-1.85 1.37-2.65 1.47-6 .7-12.4-2.39-18.65-1-1 .23-2 1.36-3 1.45-3.29.26-6.62-1.48-9.9-1.36-.54 0-1.3 1.43-1.9 1.51-1 .12-2-.35-3-.17-5.81 1-11 2.41-16.1 3.28a51 51 0 001.4 5.64c1.37-.25 2.72-.48 4.09-.66 7.95-1 15.42-1 21.67-3.63 8.54 2.93 17.75.85 26.63.67.88 0 1.54-.69 2.28-.66.54 0 .64 1.56 1.15 1.66s1.15-1.62 1.51-1.51c.85.23 1.36 1.74 2.29 1.73 3.21 0 6.5-.77 9.89-1.06 1-.09 2-1.06 3-1.35.14-2 .29-4 .39-6-3.47.55-6.83 1.44-10.34 1.29z" fill="#fff" fill-rule="evenodd"/><path d="M763.67 1147.77a7 7 0 00-2.06-.3c-1.33 0-2.71 1-4.07 1.11-4.87.47-10-.53-14.73.62-1.26.31-2.46 1.83-3.74 2-2.72.27-5.53-1.08-8.17-1s-4.9 1.89-7.5 2.31c-1.69.26-3.64-1.58-5.36-1.45-2.82.21-5.6 2-8.44 2.19-1.49.09-3-.77-4.4-.54-2.42.38-4.68 3.11-7.21.73-4.23 4.35-10 3.11-15.33 3a18.27 18.27 0 00-3.81.45 99.39 99.39 0 00.75 13.15 5.1 5.1 0 011.34-.15c1.76.09 3.36.78 5 .61 2-.21 4-.82 5.95-.89s4.21.94 6.29.77c4.64-.39 9-3.07 13.77-2.36 5.62.87 10.32-.46 16-.46 12.29 0 25.16-1.36 38.6-2.23a137.07 137.07 0 01-2.88-17.56zM769.19 1186a6.38 6.38 0 00-1.07 0c-4.64.39-9 3.07-13.78 2.36-5.61-.87-10.31.46-16 .46-17.91 0-37 2.88-57.39 3a106.62 106.62 0 002.73 17.19l2.83.08c3.64.11 7.07-1.83 10.64-1.92 2.51-.06 5 1.78 7.56 1.71 1.33 0 2.71-1 4.06-1.11 4.88-.47 10 .53 14.74-.62 1.26-.3 2.46-1.83 3.74-1.95 2.72-.27 5.52 1.09 8.17 1s4.89-1.89 7.5-2.31c1.69-.26 3.64 1.58 5.35 1.45 2.82-.21 5.61-2 8.45-2.19 1.49-.09 2.95.77 4.4.54 2.42-.38 4.68-3.11 7.2-.73a10 10 0 012.58-1.93c-.51-5.03-1.12-10.03-1.71-15.03z" fill="#a72727" fill-rule="evenodd"/><path d="M773.06 1224.81a22 22 0 00-7.85 0c-1 .23-2 1.36-3 1.45-3.29.26-6.62-1.48-9.9-1.36-.54 0-1.3 1.43-1.9 1.5-1 .13-2-.34-3-.16-7.05 1.17-13.11 3.06-19.38 3.75-5 .54-9.91 1.94-14.83 2.4a18.24 18.24 0 01-9.52-2.14c-4.62 2.92-9.61 0-14.08-.78-1.78-.31-3.6.35-5.47.26v7.56c8.37-1.29 17.21 3.21 26.44 1.38 3.09-.6 6.78-.33 10.26-1 1.48-.3 2.73-1.27 4.18-1.38 4.23-.32 7.95-1.26 11.79-1.76 7.95-1 15.42-1 21.67-3.63 4.74 1.63 9.68 1.71 14.66 1.43z" fill="#fff" fill-rule="evenodd"/><path d="M285.11 1359.89c4.84 7.4 125.05-14.12 202.05-15.05 137.52-1.65 189.76 6 200.72-2.9" fill="none" stroke="#636363" stroke-linecap="round" stroke-linejoin="round"/><path fill="none" stroke="#262521" stroke-linecap="round" stroke-linejoin="round" stroke-width="3" d="M686.5 1272.81l-10.27-177.5M274.55 1289.78l-9.27-177.51M770.39 1257.18c12.47-13.06-12.6-132.92-18.17-214.18M188.64 1073.14c4 49.48 3.57 175 15.83 211.14"/></svg>