<svg xmlns="http://www.w3.org/2000/svg" width="1000" height="1550" viewBox="0 0 1000 1550"><path fill="#5b5951" stroke="#262521" stroke-linecap="round" stroke-linejoin="round" stroke-width="3" d="M279.43 1264.5l396.53-16.39 20.11 342.24-158.71-1.86-28.9-196.6-25.52 8.67-8.83 196.25-153.94-.22-40.74-332.09z"/><path d="M675.53 1223.63l5.65 56.15s-75.28 14.22-189.09 18.67-214.7-8.06-214.7-8.06l1.05-45.55z" fill="#fff" stroke="#262521" stroke-linecap="round" stroke-linejoin="round" stroke-width="3"/><path d="M369.48 528.13h0s.01-.03 0 0zM752.22 1043c-3.84-55.87-22.89-124.63-22.89-124.63s-14.58-307-52.88-331.94c-10.88-7.11-148.63-58.32-148.63-58.32s4.72 52.64-75.63 52.64c-65.09 0-77.84-37.88-82-50a12.42 12.42 0 01-.75-2.59c-1 .65-106.06 65.79-150.57 92.61C174.18 647.69 192.24 945 192.24 945a619.73 619.73 0 00-3.6 128.12c5.52 68.42-1.88 179.2 14.45 197.93l61-1.5s-5.61-14.34-4.66-27c2.28-30.22 5.54-104.26 15.36-135.21 4.92-15.48 9.79-35.43 13.93-53.64h.07c-3.9 34-21.64 134.69-10.44 159.44.05 13-2.35 59.86-2.35 59.86s88.48 20.67 165.47 19.75c137.53-1.66 242.89-30.38 242.89-30.38s-3.23-43.82-4-57.41c8.41-14.52 0-66.09-9-120.49h0c15.34 46.59 30.51 103 32.37 132.82 1.63 26.39 2.88 34.36 2.88 34.36h58.1s4.49-6.66 5.3-18.88-12.22-108.51-17.79-189.77z" fill="#262521" stroke="#262521" stroke-linecap="round" stroke-linejoin="round" stroke-width="3"/><path d="M366.85 529.46s30.59 50.15 85.12 50.15 78.34-50.15 78.34-50.15l23.76 12.06-97.5 98.38-135.49-76.77z" fill="#fff" stroke="#262521" stroke-linecap="round" stroke-linejoin="round" stroke-width="3"/><path d="M384.43 505.56c-9.76.89-16.24 2.61-18.33 5.58-7.68 10.89-16.72 12.57-16.72 12.57s-19.3 5.48-26.11 10.22c-9.13 6.35-25.57 26.91-20.95 35.37 41.38 4.29 141.28 80.7 155.57 80.49 8.12-.12 53.71-61.83 95.26-84.57 19.67-10.76 35.74-11.81 37.73-12.43 6.77-2.12-2-4.86-9.3-9.27s-6.69-11.52-9.47-16.86-13.87-2-13.87-2-.45-1.75-13.18-13.56-20.95-10.07-31-9.79l3.76 20.56c8.3 2.91 15.06 9.07 12.58 16.37-3.23 9.52-59.78 86.62-74.16 86.85s-88.64-82.13-90.61-90.35c-1.6-6.7 8.47-3.26 15.36-11.17z" fill="#262521" stroke="#262521" stroke-linecap="round" stroke-linejoin="round" stroke-width="3"/><path d="M302.32 569.3c41.38 4.29 141.28 80.7 155.57 80.49 8.12-.12 53.71-61.83 95.26-84.57 19.67-10.76 35.74-11.81 37.73-12.43" fill="none" stroke="#636363" stroke-linecap="round" stroke-linejoin="round" stroke-width="1.34" opacity=".95"/><path d="M324.31 757.32v-4.48l-10.18 3.5-1.7 19.94 4.4-4.28-2 23.39 4.5-1.14.19 3 6.17-2 .65-12.54s15.15-6.2 15.11-16-6.51-13.71-17.14-9.39zm-5.39 3.68l3.13-.2-2.91 3.81zm3.2 25.93c-.53 0-.38-6-.38-6l3.63-.7s-2.73 6.67-3.25 6.7zm0-13.74l1.76-10c8.59-4.45 8.22 1.78 6.54 5.41s-8.26 4.59-8.26 4.59zm13.88-2.3c-1.47 4-7.13 4.93-7.13 4.93l.2-4.4s3.78-2 3.53-6c.04-.04 6.04-1.65 3.4 5.47z" fill="#fff"/><path d="M328.28 752.59v-4.48l-10.17 3.5-1.71 19.94 4.41-4.28-2 23.39 4.51-1.14.19 3 6.17-2 .64-12.53s15.16-6.2 15.12-16-6.54-13.69-17.16-9.4zm-5.4 3.68l3.14-.2-2.91 3.81zm3.2 25.93c-.52 0-.37-6-.37-6l3.63-.7s-2.73 6.66-3.26 6.7zm.05-13.74l1.75-10c8.59-4.45 8.22 1.78 6.54 5.41s-8.29 4.59-8.29 4.59zm13.87-2.3c-1.46 4-7.13 4.93-7.13 4.93l.2-4.4s3.79-2.05 3.54-6c0-.04 6-1.69 3.39 5.47z" fill="#b0b1b5"/><path d="M382.69 772.21s-2.93 3.68-3.72 3.65c0 0 4.25-25.07-15.29-22.27l.23-2.68s-19.54 6-16.24 31.77l3.14-.19s3.14 12.32 11.41 12.19a12.46 12.46 0 0011.2-6.81 13 13 0 01-.89 6.18s11.87-7.17 10.16-21.84zm-29.95.82c-.16-6.53 5.42-10.52 5.42-10.52zm17.19 9.41c-2.16 6.51-7.44 5.52-7.44 5.52l-.18-2.75s-4.55 2.85-5.29-7.45 4.79-13.11 7.31-13.38 3.3 5 3.3 5 1.66-1.71 2.69-1 1.76 7.55-.39 14.06z" fill="#fff"/><path d="M385.06 767.52s-2.93 3.69-3.72 3.66c0 0 4.24-25.08-15.29-22.27l.22-2.68s-19.53 6-16.24 31.77l3.15-.2s3.13 12.32 11.4 12.2a12.48 12.48 0 0011.21-6.81 13 13 0 01-.9 6.18s11.87-7.17 10.17-21.85zm-29.95.83c-.17-6.53 5.42-10.52 5.42-10.52zm17.18 9.41c-2.15 6.51-7.44 5.52-7.44 5.52l-.17-2.75s-4.55 2.85-5.3-7.45 4.8-13.12 7.31-13.38 3.3 5 3.3 5 1.67-1.72 2.7-1 1.76 7.55-.4 14.06z" fill="#b0b1b5"/><path d="M414.57 771.4l-3.24.2s1.46-5.07-7.81-5.08c0 0-1-2.11-5.36-2.23 0 0-5.4-1.24-3.44-4.51s3.3-.62 10.14-1.82c1.75-.31 2.59.43 2.73 2.78h4.34s3-7.29-3.07-9.76c0 0-4.69-5.52-12.17-.72 0 0 .61-2.8 1.26-3.53 0 0-10 2.21-11.64 11s1 10 1 10l2.46-.15s.28 6.09 9.71 4l.14 2.26s9.48-1.29 6.88 6-9.07 6.19-10.36 2.82l-2.65.27s-2.48-3.49-1.63-5.56l-5.1 1.74s-.66 5.39 5.05 10 12.18-.77 12.18-.77l.41 3.51s8.15-3.66 10.12-9.9.05-10.55.05-10.55zm-19.73-16l-2.49 4.2s-1.45-4.22 2.49-4.17zm13.23 27.07c.44-.92 1.26-3.43 1.26-3.43 1.67 3.27-1.69 4.37-1.26 3.46z" fill="#fff"/><path d="M417.24 768.32l-3.24.2s1.45-5.07-7.81-5.08c0 0-1-2.1-5.37-2.23 0 0-5.4-1.23-3.43-4.51s3.29-.62 10.13-1.82c1.76-.31 2.59.43 2.74 2.78h4.34s3-7.29-3.08-9.76c0 0-4.68-5.52-12.17-.72a12.75 12.75 0 011.26-3.53s-10 2.21-11.63 11 1 10 1 10l2.45-.15s.29 6.09 9.72 4l.14 2.26s9.48-1.29 6.88 6-9.07 6.19-10.37 2.82l-2.64.27s-2.49-3.48-1.63-5.56l-5.1 1.74s-.67 5.4 5.05 10.05 12.17-.76 12.17-.76l.42 3.5s8.15-3.66 10.12-9.9.05-10.6.05-10.6zm-19.73-16l-2.5 4.2s-1.45-4.21 2.5-4.17zm13.23 27.07c.43-.92 1.26-3.43 1.26-3.43 1.68 3.27-1.7 4.37-1.26 3.46z" fill="#b0b1b5"/><path d="M447.57 769.58l-3.24.2s1.46-5.07-7.81-5.08c0 0-1-2.11-5.36-2.23 0 0-5.4-1.24-3.44-4.52s3.3-.62 10.14-1.81c1.75-.31 2.59.42 2.74 2.78h4.33s3-7.28-3.07-9.76c0 0-4.69-5.52-12.17-.71 0 0 .61-2.8 1.26-3.53 0 0-10 2.2-11.63 11s1 10 1 10l2.45-.16s.28 6.1 9.71 4l.15 2.25s9.48-1.28 6.88 6-9.08 6.19-10.37 2.82l-2.65.26s-2.48-3.48-1.63-5.56l-5.1 1.75s-.66 5.39 5.05 10 12.18-.76 12.18-.76l.41 3.51s8.15-3.67 10.13-9.9.04-10.55.04-10.55zm-19.73-16l-2.49 4.2s-1.45-4.22 2.49-4.17zm13.23 27.06c.44-.91 1.27-3.43 1.27-3.43 1.66 3.28-1.7 4.38-1.27 3.46z" fill="#fff"/><path d="M450.24 766.5l-3.24.2s1.45-5.07-7.81-5.08c0 0-1-2.11-5.37-2.23 0 0-5.4-1.24-3.43-4.52s3.3-.62 10.13-1.81c1.76-.31 2.59.43 2.74 2.78h4.34s3-7.29-3.08-9.77c0 0-4.68-5.52-12.16-.71a12.65 12.65 0 011.25-3.53s-10 2.2-11.63 11 1 10 1 10l2.46-.16s.28 6.1 9.71 4l.14 2.26s9.48-1.29 6.88 6-9.07 6.19-10.37 2.82l-2.64.26s-2.49-3.48-1.63-5.56l-5.1 1.75s-.66 5.39 5.05 10 12.17-.77 12.17-.77l.42 3.51s8.15-3.67 10.12-9.9.05-10.54.05-10.54zm-19.73-16l-2.5 4.2s-1.45-4.22 2.5-4.17zm13.23 27.06c.43-.91 1.26-3.43 1.26-3.43 1.68 3.28-1.7 4.38-1.26 3.46z" fill="#b0b1b5"/><path d="M513.53 765.15l-3.24.2s1.46-5.07-7.8-5.08c0 0-1-2.11-5.37-2.23 0 0-5.4-1.24-3.43-4.51s3.29-.62 10.13-1.82c1.76-.31 2.59.43 2.74 2.78h4.34s3-7.29-3.08-9.76c0 0-4.68-5.53-12.17-.72a12.75 12.75 0 011.26-3.53s-10 2.21-11.63 11 1 10 1 10l2.45-.15s.29 6.09 9.72 4l.14 2.26s9.48-1.29 6.88 6-9.07 6.19-10.37 2.82l-2.64.27s-2.49-3.49-1.63-5.56l-5.1 1.74s-.67 5.39 5.05 10 12.17-.77 12.17-.77l.42 3.51s8.14-3.66 10.12-9.9.04-10.55.04-10.55zm-19.72-16l-2.5 4.2s-1.45-4.22 2.5-4.17zm13.19 27.1c.43-.92 1.26-3.43 1.26-3.43 1.74 3.24-1.66 4.34-1.26 3.43z" fill="#fff"/><path d="M516.2 762.07l-3.24.2s1.46-5.07-7.81-5.08c0 0-1-2.1-5.36-2.23 0 0-5.4-1.24-3.44-4.51s3.3-.62 10.14-1.82c1.75-.31 2.59.43 2.73 2.78h4.34s3-7.29-3.07-9.76c0 0-4.69-5.52-12.17-.72a12.65 12.65 0 011.25-3.53s-10 2.21-11.63 11 1 10 1 10l2.46-.15s.28 6.09 9.71 4l.14 2.26s9.48-1.29 6.88 6-9.07 6.19-10.37 2.82l-2.64.27s-2.48-3.49-1.63-5.56l-5.1 1.74s-.66 5.4 5 10.05 12.17-.77 12.17-.77l.42 3.51s8.15-3.66 10.12-9.9.1-10.6.1-10.6zm-19.73-16L494 750.3s-1.47-4.24 2.47-4.2zm13.23 27.07c.44-.92 1.26-3.43 1.26-3.43 1.69 3.29-1.69 4.37-1.26 3.46z" fill="#b0b1b5"/><path d="M546.39 762.84l-3.23.2s1.45-5.07-7.81-5.08c0 0-1-2.1-5.37-2.22 0 0-5.4-1.24-3.43-4.52s3.29-.62 10.13-1.82c1.76-.31 2.59.43 2.74 2.79h4.34s3-7.28-3.08-9.76c0 0-4.68-5.52-12.17-.72a12.86 12.86 0 011.26-3.53s-10 2.21-11.63 11 1 10 1 10l2.45-.15s.29 6.09 9.72 4l.14 2.26s9.48-1.28 6.88 6-9.07 6.18-10.37 2.81l-2.64.27s-2.49-3.48-1.63-5.56l-5.1 1.74s-.67 5.4 5 10.05 12.17-.76 12.17-.76l.42 3.5s8.14-3.66 10.12-9.9.09-10.6.09-10.6zm-19.72-16l-2.5 4.19s-1.45-4.2 2.5-4.15zm13.23 27.06c.43-.92 1.26-3.43 1.26-3.43 1.68 3.28-1.7 4.38-1.26 3.47z" fill="#fff"/><path d="M549.06 759.76l-3.24.21s1.46-5.08-7.81-5.09c0 0-1-2.1-5.36-2.22 0 0-5.4-1.24-3.44-4.52s3.3-.62 10.14-1.82c1.75-.3 2.59.43 2.73 2.79h4.34s3-7.28-3.07-9.76c0 0-4.69-5.52-12.17-.72 0 0 .61-2.79 1.26-3.52 0 0-10 2.2-11.64 11s1 10 1 10l2.46-.15s.28 6.09 9.71 4l.14 2.26s9.48-1.28 6.88 6-9.07 6.18-10.36 2.82l-2.65.26s-2.48-3.48-1.63-5.56l-5.1 1.74s-.66 5.4 5.05 10 12.18-.76 12.18-.76l.41 3.5s8.15-3.66 10.12-9.9.05-10.56.05-10.56zm-19.73-16l-2.49 4.24s-1.45-4.25 2.49-4.2zm13.23 27.06c.44-.92 1.26-3.43 1.26-3.43 1.69 3.28-1.69 4.38-1.26 3.47z" fill="#b0b1b5"/><path fill="#fff" d="M453.75 748.1l-.7 21.36 3.37-5.34-1.18 22.01 4.22-2.11-.56 3.33 13.92-4.16-.37 4.2 8-2.85.28-3.69-5.17 1.12.21-4.76-11.04 3.22.74-4.41-2.8.17-1.41 1.93.7-9.22 3.75-1.31.28 4.49 12.32-5.29-.12-6.08-6.9 2.09-.08-3.3-8.3 2.17.07-7.14 10.25-3.55.26 4.03 7.72-3.11-.39-6.31-3.01 1-.35-3.6-12.59 2.96-.11-1.6-11.01 3.75z"/><path fill="#b0b1b5" d="M455.87 745.11l-.71 21.36 3.37-5.35-1.17 22.01 4.21-2.1-.56 3.33 13.93-4.17-.38 4.21 8-2.85.28-3.69-5.17 1.12.21-4.76-11.04 3.22.74-4.42-2.79.18-1.42 1.93.7-9.22 3.75-1.32.29 4.5 12.32-5.29-.13-6.09-6.9 2.1-.08-3.31-8.3 2.17.07-7.13 10.25-3.56.26 4.04 7.73-3.11-.4-6.31-3 1-.36-3.6-12.59 2.96-.1-1.6-11.01 3.75z"/><path fill="#b0b1b5" d="M466.98 742.96l-.1-1.6-11.01 3.75"/><path fill="#fff" d="M553.08 742.2l-.71 21.36 3.37-5.34-1.17 22 4.21-2.1-.56 3.33 13.93-4.17-.38 4.21 8-2.85.28-3.69-5.17 1.12.22-4.76-11.05 3.22.75-4.41-2.8.17-1.42 1.93.7-9.22 3.75-1.32.29 4.5 12.32-5.29-.13-6.08-6.9 2.09-.08-3.31-8.29 2.17.06-7.13 10.25-3.56.26 4.04 7.73-3.11-.4-6.31-3 1-.36-3.6-12.59 2.96-.1-1.6-11.01 3.75z"/><path fill="#b0b1b5" d="M555.19 739.21l-.71 21.35 3.38-5.34-1.18 22.01 4.21-2.1-.55 3.33 13.92-4.17-.38 4.21 8-2.85.28-3.69-5.16 1.12.21-4.77-11.05 3.23.75-4.42-2.8.18-1.41 1.92.69-9.22 3.76-1.31.28 4.49 12.32-5.28-.13-6.09-6.89 2.1-.08-3.31-8.3 2.17.06-7.14 10.26-3.55.25 4.04 7.73-3.12-.4-6.3-3 1-.35-3.61-12.6 2.96-.1-1.59-11.01 3.75z"/><path d="M616.2 749.11l-2.75 1.11s-2.07-15.49-19.71-8.65l.51-4.12-7.88 2.65-1.54 14.17 4.06-4.54-2.08 24 3.9-3-2.7 7.92 11.24-2.24-1.06 3.46s15.08-6.13 17.6-16.89.41-13.87.41-13.87zm-20.6 22l1.13-12.44-5 5.62 3.09-17.87s12.89-.39 12.43 8.59-4.55 15.31-11.65 16.13zm8.82.14c.17-1.45 5.86-12.6 5.86-12.6 1.37 7.61-6.02 14.09-5.86 12.63z" fill="#fff"/><path d="M618.68 744.9l-2.75 1.1s-1.95-15.51-19.64-8.8l.54-4.12-7.91 2.58-1.65 14.16 4.1-4.5-2.27 24 3.93-3-2.76 7.9 11.25-2.22-1.09 3.44s15.13-6 17.73-16.74.52-13.8.52-13.8zm-20.77 21.87l1.23-12.43-5.06 5.58 3.24-17.85s12.89-.28 12.36 8.69S605 766 597.91 766.77zm8.82.21c.18-1.45 6-12.55 6-12.55 1.27 7.57-6.17 14-6 12.57z" fill="#b0b1b5"/><path fill="#494843" d="M606.96 1192.4l-.4 11.79 47.62 2.43.45-11.5-47.67-2.72z"/><path d="M611.22 1199.16s-1.81 16.86-.07 32.12-.5 23.16-.5 23.16 22.73 2.37 34.89-4.32l3.46-49.22z" fill="#fff"/><path d="M498 597.1c2.34 33.3 2.81 66.69 2.83 100.06s-.38 66.52.26 99.77c.36 18.85 1.06 37.69 2.32 56.5.13 1.92 3.13 1.93 3 0-2.25-33.49-2.68-67.06-2.68-100.62 0-33.21.38-66.41-.3-99.61-.39-18.72-1.11-37.42-2.43-56.1-.13-1.91-3.13-1.93-3 0z" fill="#636363"/><path d="M505.28 827.84c-2.91 0-4.35 4.13-2.21 6.06a3.67 3.67 0 004.34.32 3.93 3.93 0 002-3.87 4.59 4.59 0 00-3-3.59 4.69 4.69 0 00-4.36.61 5.93 5.93 0 00-2.45 3.73 5.31 5.31 0 001.07 4.35 3.55 3.55 0 004.61.82 3.33 3.33 0 001.4-4.51 1.5 1.5 0 10-2.59 1.52s.07.14.09.14-.09-.3-.08-.17a.42.42 0 000 .12c.05.16-.1.06 0-.17v-.09a1.57 1.57 0 00-.08.31s.18-.34.05-.14l-.06.11-.06.1c-.09.15-.08 0 .08-.1-.06 0-.13.14-.17.19s-.13.09-.13.11.27-.19.09-.08a2.2 2.2 0 01-.26.15c-.27.16.23 0 0 0a.92.92 0 00-.25.06h.15-.17c-.05 0-.22 0 0 0s.05 0 0 0H503.27a1.38 1.38 0 00-.24-.14c-.16-.08 0-.08.09.08 0 0-.11-.09-.14-.12s-.14-.16-.22-.23.1.11.1.13-.07-.1-.08-.12l-.16-.27a.67.67 0 00-.08-.17c.05 0 .11.31.05.1a5.87 5.87 0 01-.16-.6c-.08-.36 0 .24 0 0v-.39-.33.03c0-.02 0-.22.08-.33a2 2 0 00.13-.39s-.12.26-.05.12l.09-.19c0-.09.1-.18.16-.27s.2-.23.2-.3-.19.22-.08.1.11-.13.17-.2l.25-.25s.29-.26.13-.11.12-.09.18-.12a2.43 2.43 0 01.35-.2c.23-.13-.29.1.06 0l.29-.09h.06a1.8 1.8 0 00.4 0h.15c.2 0-.3-.07-.1 0l.29.07.2.06c.15 0-.12-.05-.13-.06s.25.12.36.19.17.15.25.16c-.17 0-.19-.16-.07 0l.12.1c.05 0 .17.23.24.25s-.17-.24-.09-.11l.14.21a1.08 1.08 0 00.14.26c-.15-.16-.09-.23-.05-.09s0 .1.05.14a1.42 1.42 0 000 .2v-.16a1.69 1.69 0 000 .39s.08-.32 0-.19a.61.61 0 000 .13s-.14.39 0 .15 0 .06-.08.13l-.07.11c-.08.15.22-.25 0-.07l-.18.19s-.12.09-.13.12.25-.17.13-.1a2.26 2.26 0 00-.26.16l-.12.06c-.15.1.33-.11.08 0l-.25.07H505.49a2.81 2.81 0 00-.29 0c-.05 0-.21 0 0 0h-.12c-.13 0 .3.18.08 0l-.11-.07c-.13 0 .19.19.12.1s-.28-.3-.11-.08 0-.07-.05-.12.08.18.08.2a.58.58 0 00-.06-.17c0-.07-.08-.42 0-.12s0 0 0-.09v-.15.18c0 .03 0-.2.06-.29l.05-.14c.05-.19-.05.12-.07.15a2 2 0 00.13-.25.47.47 0 00.06-.09c0-.11-.25.26-.09.11a1.26 1.26 0 00.2-.2s-.27.17-.16.14l.11-.07c.26-.17-.32.12 0 0s-.38 0 0 0a1.5 1.5 0 000-3zM401.65 603.1q3.54 50.11 4.7 100.34 1.17 50 0 99.94-.66 28-2.07 56c-.1 1.93 2.9 1.93 3 0q2.5-50.16 2.67-100.41.13-50-2.06-99.92-1.23-28-3.21-56c-.13-1.91-3.13-1.93-3 0z" fill="#636363"/><path d="M407.07 833.84c-2.9 0-4.35 4.13-2.21 6.06a3.67 3.67 0 004.34.32 3.94 3.94 0 002-3.87 4.61 4.61 0 00-3-3.59 4.69 4.69 0 00-4.36.61 5.91 5.91 0 00-2.46 3.73 5.34 5.34 0 001.07 4.35 3.56 3.56 0 004.61.82 3.34 3.34 0 001.41-4.51 1.51 1.51 0 10-2.6 1.52s.08.14.09.14-.09-.3-.07-.17a.42.42 0 000 .12c.05.16-.1.06 0-.17a.48.48 0 000 .12 1.4 1.4 0 000-.21 1.57 1.57 0 00-.08.31s.18-.34.06-.14l-.06.11-.07.1c-.09.15-.07 0 .08-.1-.05 0-.12.14-.17.19a.75.75 0 00-.13.11c0-.05.28-.19.1-.08s-.17.11-.26.15c-.28.16.22 0 0 0a.92.92 0 00-.25.06h.15-.17s-.21 0 0 0 .05 0 0 0H405.07c.02 0-.21-.12-.24-.14s0-.08.09.08c0 0-.11-.09-.14-.12l-.21-.23c-.11-.1.1.11.09.13s-.06-.1-.07-.12a1.91 1.91 0 01-.16-.27s-.07-.16-.08-.17.11.31 0 .1-.11-.39-.16-.6c-.07-.36 0 .24 0 0v-.39-.33.03c0-.02.05-.22.08-.33a2 2 0 00.13-.39s-.12.26 0 .12a1.63 1.63 0 01.09-.19c0-.09.1-.18.15-.27s.2-.23.2-.3l-.08.1c.06-.06.11-.13.17-.2l.26-.25.12-.11c-.17.14.13-.09.18-.12s.24-.14.35-.2-.28.1.07 0a1.4 1.4 0 01.29-.09H406.25a1.79 1.79 0 00.4 0h.15c.21 0-.29-.07-.1 0l.3.07.19.06c.15 0-.12-.05-.13-.06s.26.12.36.19.18.15.26.16c-.17 0-.19-.16-.07 0l.11.1c.05 0 .17.23.24.25s-.17-.24-.08-.11l.13.21a1.59 1.59 0 00.14.26c-.15-.16-.08-.23 0-.09s0 .1 0 .14a1.42 1.42 0 010 .2v-.16a1.27 1.27 0 000 .39s.08-.32 0-.19v.13s-.13.39 0 .15 0 .06-.08.13l-.07.11c-.08.15.23-.25.05-.07l-.19.19s-.12.09-.13.12.26-.17.13-.1-.17.11-.26.16l-.12.06c-.14.1.33-.11.08 0l-.24.07a1 1 0 00-.17 0h.19-.3c-.1 0-.21 0 0 0h-.12c-.13 0 .3.18.09 0l-.12-.07c-.13 0 .2.19.12.1s-.27-.3-.1-.08 0-.07-.06-.12.08.18.08.2 0-.13-.05-.17-.08-.42 0-.12 0 0 0-.09v-.15.18c0 .03 0-.2.06-.29s0-.09 0-.14-.05.12-.07.15a2 2 0 00.13-.25.47.47 0 00.06-.09c0-.11-.25.26-.08.11s.17-.14.19-.2-.27.17-.16.14l.12-.07c.25-.17-.33.12 0 0s-.39 0 0 0a1.5 1.5 0 100-3z" fill="#636363"/></svg>