<svg xmlns="http://www.w3.org/2000/svg" width="1250" height="1550" viewBox="0 0 1250 1550"><title>s06e05-01</title><path d="M404.43,1264.5s61.78,24.3,203.69,19.79S801,1248.11,801,1248.11l20.11,342.24-158.71-1.85-28.9-196.61-25.52,8.67-8.83,196.25-153.94-.22Z" fill="#fff" stroke="#262521" stroke-linecap="round" stroke-linejoin="round" stroke-width="3"/><path d="M489.35,531.24l0,0S489.36,531.2,489.35,531.24Z" fill="#262521" stroke="#262521" stroke-linecap="round" stroke-linejoin="round" stroke-width="3"/><path d="M877.22,1043c-3.84-55.87-22.89-124.63-22.89-124.63s-14.58-307-52.88-331.94c-10.88-7.11-142.29-56.21-142.29-56.21s-2.49,55-82.85,55c-65.08,0-82.09-39.23-86.21-51.38a11.73,11.73,0,0,1-.75-2.59c-1,.64-100.94,62.69-145.44,89.5C299.18,647.69,317.24,945,317.24,945a619.73,619.73,0,0,0-3.6,128.12c5.52,68.42-1.88,179.2,14.45,197.93l61-1.5s-5.61-14.34-4.66-27c2.28-30.22,5.54-104.26,15.36-135.21S421.2,1019,421.2,1019c.49,23.68.3,42.22-1,50.32-3.6,21.92-31.66,102.79-17.78,133.07-3.34,29.29-5.7,66.94-5.7,66.94s95.7,25.59,172.7,24.66c137.52-1.66,240.17-35.54,240.17-35.54s-2.28-35.71-5.33-60.53c9.94-22.61-4.2-83.51-17.91-143,17.07,47.16,40.24,126.63,42.46,162.32,1.63,26.39,2.88,34.36,2.88,34.36h58.1s4.49-6.66,5.3-18.88S882.79,1124.26,877.22,1043Z" fill="#262521" stroke="#262521" stroke-linecap="round" stroke-linejoin="round" stroke-width="3"/><path d="M836,1219s30.63-3.83,52.37,0" fill="none" stroke="#636363" stroke-linecap="round" stroke-linejoin="round"/><path d="M325.25,1236.47s30.64-3.84,52.37,0" fill="none" stroke="#636363" stroke-linecap="round" stroke-linejoin="round"/><path d="M411.17,1219s168.07,32.86,378.14-4.33" fill="none" stroke="#636363" stroke-linecap="round" stroke-linejoin="round"/><path d="M477.93,546.4s21.5,56.91,100.81,56.91,94.26-62,94.26-62" fill="none" stroke="#636363" stroke-linecap="round" stroke-linejoin="round"/><path d="M617.62,724.24s-.23,2.72,1.28,2.52S617.62,724.24,617.62,724.24Z" fill="#779623" opacity="0.19"/><path d="M482.83,729.1s14.55-28.87-7.35-28.17c-12.42.4-25,6.26-25,6.26l9.9,78.14s18.53-12.78,24.86-17.46S506.12,741.07,482.83,729.1Zm-8-13.1a28.47,28.47,0,0,1-6,18.37l-4-24.12S474.56,704.73,474.84,716Zm-3.33,53.82-2.32-24.74c2.78-5.73,12.67-9.7,13.19,2.55S471.51,769.82,471.51,769.82Z" fill="#bc413a" stroke="#fff" stroke-linecap="round" stroke-linejoin="round" stroke-width="1.9"/><path d="M499.53,696.06l5.22,63.85,34.43-12.77-.17-5.36L516.54,749,516,726.15l18.34-4.1-.33-6.19-18.5,3.39-1.29-18.71L536,697.68l-.47-6S504.81,693.64,499.53,696.06Z" fill="#bc413a" stroke="#fff" stroke-linecap="round" stroke-linejoin="round" stroke-width="1.9"/><polygon points="539.27 691.02 556.73 744.76 567.01 744.44 573.88 711.24 583.35 743.93 596.7 743.52 606.03 688.95 597.87 689.2 591.57 722.6 580.26 689.75 569.84 690.07 563.16 720.31 551.1 690.65 539.27 691.02" fill="#bc413a" stroke="#fff" stroke-linecap="round" stroke-linejoin="round" stroke-width="1.9"/><path d="M629.58,688.92l-11,.34-15.24,54,9-.28,2.92-10.24,16.76-.52,4.47,12.13L649.9,744Zm-13.49,37.93,6-24,9,23.55Z" fill="#bc413a" stroke="#fff" stroke-linecap="round" stroke-linejoin="round" stroke-width="1.9"/><path d="M690.6,701.83c-.29-9.43-14-14.54-18.91-14.39s-21.55.85-21.55.85l3.16,56.43,12.9,2-.62-20L672,724l5,24.8,13.54.29-8-30.77S690.9,711.27,690.6,701.83Zm-25.2,17.44-.81-26c3.48-3.15,14,.55,14.3,8.76S665.4,719.27,665.4,719.27Z" fill="#bc413a" stroke="#fff" stroke-linecap="round" stroke-linejoin="round" stroke-width="1.9"/><path d="M697.5,688.25l2,63.56s12.88,6.21,18.47,7.82,12.72,6.94,12.72,6.94l-.24-8s-11.18-8.77-16.73-9.13l-1-25.55,15.39.62-.22-7.14s-9.91-2.38-15.44-2l-1.15-19.8,17.18.54-.18-5.74S722.07,685.52,697.5,688.25Z" fill="#bc413a" stroke="#fff" stroke-linecap="round" stroke-linejoin="round" stroke-width="1.9"/><path d="M657.48,836.9c-.11-3.54-4.71-5.53-4.81-8.74s-4.57-10.25-6.68-14.29-6.54-14.26-6.54-14.26c4.73-7.38,3.9-16,3.9-16s.21,2.26-.38-12.18S623.05,737,623.05,737c-.73-5.23-1.94-16.67-5.29-16.82s-13,31.13-14.11,32.73-5.19.3-6.87-1-5.49-1.34-5.49-1.34-7.85-10.82-9.77-13.45-9.09-9.78-11.76-8.91-.1,6,1.11,8.25,2.21,11.84,2.21,11.84-11.86,1.78-14,1.85-8.49,4.94-8.49,4.94l-9.34.29c-2.39.07-8.28,7.77-10.2,9.67s-.59,4-.28,4.77-4.52.48-9.06.34-10.89.91-12.87,1.11S497.8,771,496.33,771s-6,5-6.56,6.16.05,1.84.22,7.23,9.59,12.17,9.59,12.17c-.32,3.27,9.05,13,14.16,17.7s8.44,2.58,7.42,1.47-4.06-9.65-4.06-9.65,8.59,9.66,10,8.76S521.55,801,525.52,801s20,12.7,20,12.7l.06,2.13c0,.85-8.38,8.45-8.38,8.45s-7.72-6.68-9.28-6.49-.46,8-.46,8-8.76-8.38-9.75-8.21,2,6,2.21,7.27-.06,2.73.12,3.72.25,8.07.25,8.07,4.58,6.24,6.74,7.3,8.94.29,14.49.83,13.81-2.55,18.9-3.14,16.59.34,17.73.3,4.83,5.1,4.83,5.1l.64,20.53L582,868s-1.48,5.71.79,5.64,5.52-4.7,5.6-6.83,3.09-1,3.93-1.12.42-7.24.42-7.24a21.54,21.54,0,0,0,3.86-1.17c.83-.5,5-3.22,5-3.22a19.62,19.62,0,0,0,2.91,2.94c.72.32,2.07-2,2.07-2s3.33,2.17,4.17,1.72-2.79-7.57-5.14-10.19-8.18-12.36-8.18-12.36.55-2.75,1.25-.75c2,5.8,17.64,20.15,18.91,20s.45-3.7.41-5.12-5.68-9.32-8.07-13.21-5.07-8.21-2.18-6.32,10.57,16.26,11.55,16-4-11.5-2.76-11.54,7.18,12.11,10,16.84,4.71,15,6.29,15.68,2.62-2.49,2.55-4.61,1.4-5.43,2.53-5.47,2.54,4.32,3.83,4.7,2.61-2.63,3.46-2.66,2.45,1.2,3.87,1.16,2.54-4.9,6.06-5.72,5.82-4.29,5.82-4.29S657.59,840.44,657.48,836.9ZM627.6,750.14c6.42,1.88,6.32,6.27,6.32,6.27a61.38,61.38,0,0,0-5.54-3.52A1.72,1.72,0,0,1,627.6,750.14ZM626,747.53c0,1.15-1.8-1.91-1.8-1.91C628.08,743.89,626,746.38,626,747.53Zm-2.2,1.8c.41,0,1.26,1.46,1.3,2.5s-2.32,0-2.45-.66C622.67,751.17,623.42,749.34,623.82,749.33Zm-3.66-4.46s1.77,16,.59,19.08-.89,8.26-1.29,6.77-.89-14-1-17.06S620.16,744.87,620.16,744.87Zm-1.25,39.27s1-.15,1,.63S618.08,786,618.91,784.14Zm-.6-6.22c0-1.85-3.26-4.06-3.26-4.06s3.68-.69,4.09,1.49S618.36,779.77,618.31,777.92Zm-.6-48.76c1.14,4.39-2.42,3.63-2.42,3.63S617.17,727.09,617.71,729.16ZM612.37,743c.26-6.31,4-8.48,4-8.48s1.71,9,.37,12-5.54,9.88-6.26,9S612.1,749.35,612.37,743Zm-4.3,32.9c-1,1.1-4.35-5.77-4.35-5.77S609.07,774.83,608.07,775.93Zm-6.63-4.38s3.61,3.07,3.53,4.59S600.24,770.44,601.44,771.55Zm-2,12.36c.63,0,4.69,5.82,5.52,5.62s-3.77-6.09-1.2-7.07c2.23-.84,2.87,1.22,2.91,2.72l.19,6.14s-2.69,0-3.93-1.67S598.8,783.93,599.42,783.91Zm-9-4.92c-.13,0-6.26-5-6.26-5s4.63.93,6.19,2.76S590.55,779,590.43,779Zm-5.29-27.2a1.31,1.31,0,0,1,.05.22c0,.22,0,.1-.05-.22-.49-2-6.88-11.29-6.88-11.29C583.55,739.84,584.9,749.88,585.14,751.79Zm-1.08,28.53c-1.33,1.61-2.47-1.37-2.47-1.37S585.4,778.71,584.06,780.32Zm-4-32.49c-.42-1.31-3.54-3.68-3.54-3.68C581.43,745.19,580.43,749.15,580,747.83Zm-11.14,2.5c3.29-.5,12.35,3.28,12.35,3.28,0,2.65-8.56-1.51-11.24-1.68S565.58,750.82,568.87,750.33Zm8.61,30c-1.11,1.4-6.73-4.51-6.73-4.51S578.59,778.92,577.48,780.33Zm-5.2-16.49c.18,1.13-4.83,4.26-5.39,4.42s-2.11-4.18-2.11-4.18C564.16,762.47,572.1,762.72,572.28,763.84ZM563,752.12c-8.31,4-15.44,13.71-17.21,16.56s-3.24-.54-3.24-.54C546.13,758.61,563,752.12,563,752.12Zm-1.79,17.18c-.1.35-3.45.45-3.59-.45s1.65-1.23,1.65-1.23S561.3,769,561.19,769.3Zm-18.08-10.22c0,1.69-5.49,4.34-5.49,4.34C538.29,759.74,543.11,759.08,543.11,759.08Zm-34.4,30.1c2.49,0,2.44-1.68,2.57-2.4s-1.67-3.21-.14-4.25a4,4,0,0,1,3.55-.11l.66,1.82-2.31.07.1,3.26,2.31-.07.86,1.44s-3.12.06-4.37,1.08-6.65.93-7.66.24S506.23,789.21,508.71,789.18Zm-16.17-12.59c-.42-.63.83-1.8.83-1.8s10-.14,11,.23.6,1.19-.37,1.22S493,777.22,492.54,776.59Zm10.19,6.2s-4.19-2.56-5.4-3.15-.05-1.67-.05-1.67S502.81,780.1,502.73,782.79Zm-5.7,7.69c-.41,0-1.27-1.84-1.27-1.84s2.41-.21,2.43.6A1.27,1.27,0,0,1,497,790.48Zm1.87-7.57s2.8,3.54,4,3.64-.47,1.35-.47,1.35S498.11,786.66,498.9,782.91Zm6.81,18.56c-1.43,0-3.66-4.71-3.66-4.71S507.15,801.42,505.71,801.47Zm-.9-6.27s3.81-2.53,5.48-2.58,2.9,4.74,2.9,4.74-2.77-2.87-4.23-2.29,1.69,2.63.12,3.75S504.81,795.2,504.81,795.2ZM516,811.78c-1.11.6-7.87-6.43-8.33-7.55s4.47-2.42,4.47-2.42S517.14,811.18,516,811.78Zm6-4.48c-1.13.06-8-12.39-8-14.4s3.83-1.86,3.83-1.86C517.12,794.28,523.15,807.23,522,807.3Zm1.77-14.17c-1.45.72-2.25-1.35-2.25-1.35C524.4,791.2,525.23,792.42,523.78,793.13Zm2.08-4.49s17.76.26,30.49,8.85,15.23,11.2,15,12.61-10.61-9.36-18.75-12.48S526.15,791.18,525.86,788.64Zm43.54,29.44a13,13,0,0,0-2.9,2.5c-.62,1-2.17.64-2.18.07s4-3.82,4-3.82ZM557,805.48c-.1,1-4.1-2.66-4.1-2.66C554.86,801.15,557.1,804.43,557,805.48Zm-29.58-11.79c2.29.33,5.65.63,5.94,2.1S527.42,793.69,527.42,793.69Zm8.4,3c-2.39-3.68,11.56,1,12.77,1.88s-.13,3.75-1.92,2.2S535.82,796.66,535.82,796.66Zm8.63,29.15,1.9,1.93a12.74,12.74,0,0,0,3.41-.1c1.13-.32-.1-3.34-.1-3.34l2.68-.47s1.2,2,2.11,1.67,4.19-4.67,5.75-4.72c0,0,1.61,1.37.12,3.83s-9.65,5-13,5.88a7.34,7.34,0,0,1-6.42-1C540.28,828.93,544.45,825.81,544.45,825.81ZM530,821.15c.44.41,8.65,8.4,8.65,8.4s.78,2.53-3,1.23S529.51,820.74,530,821.15Zm-7.87,2.66s3.63,2.58.68,2.67C521.37,826.53,522.08,823.81,522.08,823.81Zm0,7.82a9,9,0,0,0,2.92-.09c1.41-.33.75-3.16,1.32-3.17a6.67,6.67,0,0,1,2,.79l-.08,1.92,4-.77s.64,2.4-3.73,3.39A6,6,0,0,1,522.1,831.63Zm69.63,13.5c-.44.66-.89.72-1.35-.73C590.38,844.4,592.17,844.48,591.73,845.13Zm-.7-15.06s-2.77,1.21-3.38,2.55-4.56,2-4.56,2,.09,2.8-4.67,3.28a24.92,24.92,0,0,1-8.42-.57,31.39,31.39,0,0,1,5.07-1.08c2.79-.35,5.53-2.21,5.66-3.37s4.84-3.28,6-3.32,1.25-2.18,1.22-3-3.52-2-2.2-2.07,5.87-1.83,5.87-1.83Zm6.64,24.35c-.84.25-2.95-3-2.95-3S598.51,854.16,597.67,854.42Zm1.23-3.84c.1,1.69-2.79-3-2.79-3S598.8,848.89,598.9,850.58Zm-1.7-41.86a3.21,3.21,0,0,1-2.61,1.11c-1.9.06-8.05-4.45-9-5.74s-1.94-1.11-3.7-1.2-5.25-3.8-5.25-3.8a18.45,18.45,0,0,1-1.21,3.56c-.43.45,2.6,3.58,4.24,4.27s6.48,5.81,6.52,7,1.39,7-.22,7-8.66.85-8.66.85-16.17,11.68-31.89,14.36-20.65.64-20.65.64,23.54-1.7,31.77-6.58,18.5-11.15,18.5-11.15l-.24-3.76s2.81,4.29,3.51,3.29a5,5,0,0,0-.19-6.07c-2-2.37-24.78-22.81-30.39-23.25s-6.45-.53-10-2-11.13-2.33-11.87-2.55a34.34,34.34,0,0,0-4.79-.25c-.25.2-.4,1.78-1.34,1.09s-2.33-5.25-3.94-6.06-3.19,1-5.3.56-4.19-3.55,2-2.89c0,0,11,1.42,15.5,3.19s7.41,2.56,7.24,1.83a33.82,33.82,0,0,0-2-3.89s8.6,7.65,10.28,7.59l6.08-.19-2.63-4.46s6.88,4.33,7.61,4.31-2-3.6-1.17-4.66,4.44,6,7.22,5.94,4.69,0,4.69,0,1.93,5.36,5.44,5.25,5.52,3.79,7.95,3.72,7.13.36,7.11-.37.4-1.33-1-4.66a25,25,0,0,1-1.69-7.13s2.13,2.57,3.31,2.68,3.3,2.39,1.54,2.45-.06,2.93,2.64,4.9,7,12.54,7.74,13.1S597.2,808.72,597.2,808.72Zm4.87,7.07c-.82.17-2.92-3.41-2.92-3.41C601.12,811.91,602.89,815.61,602.07,815.79Zm1.5-4.22c-.16-.67-3.38-3.11-3.38-3.11C603.17,808.19,603.72,812.23,603.57,811.57Zm-5-16.86s5.68,5.3,5.76,7.78C604.36,802.49,599,799.26,598.6,794.71Zm5.73,2.1s-13.16-11-13.36-13.53,1.37-.51,1.37-.51,8.75,6.38,13.61,14Zm3.55,19.85a23.46,23.46,0,0,0-1.48-5.18s4.08,2.55,4.42,4.89S607.93,818.27,607.88,816.66ZM609.81,765c-1.18-.78-2.25-5.6-2.25-5.6s.88-1.29,1.81-1.17,3.3,5.87,3.37,8.06S611,765.79,609.81,765Zm13.53,64.05c-.4,2.44-1.71-1.31-1.4-4.27s-7-14.79-7-14.79C621,816.25,623.74,826.62,623.34,829.07Zm3.51-5.82c-.57-5.53-6.67-14.55-6.67-14.55C628.88,818.68,626.85,823.25,626.85,823.25Zm13-.17c-.67,0-.67,4.4-3.1,3.94s-6-2-6.33-5.43-8.39-15-7.8-15.84,7.08,9.87,8.19,11.29,3.89,4.44,4.69,4.2,1.41-6.53,1.41-6.53,1.78,5.55,2.18,5.54S640.52,823.09,639.85,823.08ZM637.34,792a21.13,21.13,0,0,0-.54-2.52c0,.58-5,4.2-5,4.2a13.28,13.28,0,0,0-3.41-4.06c-2.12-1.55-.9-2.51-.41-2.52s4.23,3.33,4.23,3.33,4.42-3,5.33-7.1-1.43-19.86-1.43-19.86l2.44.42c3.08,6,.87,28.05.87,28.05Zm6.58,34.67c-1.37,1-1.92-3.43-.89-4.53s.47-6.58.47-6.58C645.61,818.84,645.29,825.69,643.92,826.67Zm3.13,6c-1,.36-1.11-1.18-1.11-1.18C646.89,831.77,648.05,832.34,647.05,832.71Z" fill="#fff"/></svg>