<svg xmlns="http://www.w3.org/2000/svg" width="1000" height="1550" viewBox="0 0 1000 1550"><defs><clipPath id="a"><path d="M388.34 866.52l35.6-1.62 1.33 29.32-13.36.6c-20.34-17.74-41.16-38.57-55-59.35l-6-28.46 27-1.22zm36.86-62.87l47.23-2.14c0 .67 2.43 121 2.84 141.75l-.07.06s-20.69-13.58-45.84-33.87zm21.67 101.54l11.74-.53-3.44-75.86-11.74.53zm56.06-28.31l-4.29.19-5.15-76.52-16.21.74L487 933.5c7.22-6.19 17.16-15 28.12-25.48L527.6 799l-15.84.72zm87.62-67.29a85.3 85.3 0 0 0 4-13.62L531 798.86l2.38 91c8.34-8.7 16.74-18 24.55-27.67l-12.83.59-.76-16.69 26.66-1.25c3.52-5 6.8-10.1 9.74-15.13l-36.55 1.65-.89-19.63z" fill="none"/></clipPath></defs><title>s06e14-02</title><path d="M506.32 1555.34s-5.44-128.24-8.28-128.25 0 130.26 0 130.26l-29.67-1.83-1.53-188.15 55.84-9.64 49.06 200.06z" fill="#262521"/><path d="M453.87 1281.24q-2 33.35-3.49 66.73-1.39 32-2.26 64-.83 30.6-1.17 61.23-.33 29.35-.21 58.71.12 27.84.63 55.65l.12 6.7c.08 3.85 6.08 3.87 6 0q-.54-27.65-.71-55.3-.18-29.06.09-58.1.28-30.43 1-60.88.79-32 2.13-63.93 1.38-33.21 3.32-66.4l.51-8.41c.23-3.86-5.77-3.85-6 0zM464.89 1271.27q.83 61.24.59 122.48-.24 60.93-1.53 121.84-.74 34.35-1.8 68.69c-.12 3.86 5.88 3.86 6 0q1.91-61.2 2.73-122.42.83-60.91.6-121.85-.14-34.37-.59-68.74c-.05-3.85-6.05-3.87-6 0z" fill="#b5b4ae"/><path d="M752.23 1043c-3.83-55.86-22.88-124.63-22.88-124.63s-14.59-306.94-52.89-331.94c-10.88-7.1-148.62-58.32-148.62-58.32s4.72 52.65-75.64 52.65c-65.08 0-77.84-37.89-81.95-50a10.75 10.75 0 0 1-.75-2.6c-1 .66-106.06 65.8-150.57 92.62-44.73 26.94-26.68 324.27-26.68 324.27a619.79 619.79 0 0 0-3.6 128.12c5.53 68.42-1.78 226.52 13.49 240.51 12.34 11.31 72.63-15.33 72.63-15.33s-12.81-43.08-11.86-55.75c2.27-30.22 2-104.26 11.86-135.22 4.83-15.2 10.08-36.76 14.19-54.78-3.36 34.76-22 135.49-10.63 160.59.05 13-2.35 59.86-2.35 59.86s88.47 20.68 165.47 19.75c137.52-1.65 242.89-30.37 242.89-30.37s-3.23-43.82-4-57.42c8.89-15.33-1-63.45-10.44-125.17 15.39 46.67 28.54 107.53 30.4 137.51 1.64 26.39-3.27 70.48-3.27 70.48s64.2 23.9 74.91 10.25c4.25-9.67-.66-30.51.43-46.84.81-12.24-14.56-126.93-20.14-208.24z" fill="#262521" stroke="#262521" stroke-linecap="round" stroke-linejoin="round" stroke-width="3"/><path d="M369.5 528.17s.01-.03 0 0z" fill="#262521"/><path d="M276 1273.06s88.47 20.68 165.47 19.75c137.52-1.65 242.89-30.37 242.89-30.37" fill="none" stroke="#636363" stroke-linecap="round" stroke-linejoin="round"/><path d="M486.39 796l-143.64 6.51c-2.14-47.18 28.28-86.89 67.95-88.69s73.55 35.02 75.69 82.18z" fill="#ad1717"/><path d="M594.37 791.13l-143.64 6.5c-2.14-47.18 28.27-86.88 67.95-88.63s73.56 35 75.69 82.13z" fill="#ad1717"/><g clip-path="url(#a)"><path fill="#c4af76" d="M344.707 846.965l255.739-11.568.982 21.718-255.738 11.568z"/><path fill="#217561" d="M345.688 868.683l255.739-11.568.774 17.122-255.738 11.569z"/><path fill="#3c6ab5" d="M346.46 885.806l255.74-11.569 1.01 22.337-255.739 11.569z"/><path fill="#1d42aa" d="M347.47 908.149l255.738-11.568.925 20.449-255.739 11.568z"/><path fill="#552a82" d="M353.199 927.86l256-12.8 1.023 20.47-256 12.8z"/><path fill="#ad1717" d="M342.93 807.816l255.739-11.568.958 21.178-255.739 11.568z"/><path fill="#b25e52" d="M343.896 828.994l255.739-11.568.813 17.972-255.739 11.568z"/></g><path d="M205.65 768.36l29.17-20.66-34.91-1.79-7-27.34c-.08 2-3.72 61.44-3.72 61.44l25.13 22.25z" fill="#e0c1bd" stroke="#e0c1bd" stroke-linecap="round" stroke-linejoin="round" stroke-width="3"/><path d="M234.52 896.51l-35 1.19-9.88-28.3c.05 2.75 1.64 55.2 2.46 63.45l26.59 19.77-11.53-33z" fill="#95b3c6" stroke="#95b3c6" stroke-linecap="round" stroke-linejoin="round" stroke-width="3"/><path d="M231.84 1039.22l-35 .84-8.66-25.61c-.18 2.69 1.05 53.91 1.86 61.42l25.42 19.29-11.15-33.16z" fill="#518960" stroke="#518960" stroke-linecap="round" stroke-linejoin="round" stroke-width="3"/><path d="M207.76 1210.57l27.64-22.67-35 .68-8.9-28.22c.11 3.07.63 63 .63 63l26.65 20.42z" fill="#6b242e" stroke="#6b242e" stroke-linecap="round" stroke-linejoin="round" stroke-width="3"/><path d="M712.86 738s-5.63-48.31-6.7-54.59L701 703.83l-33 1.4 27.6 20.16-8.74 34.89z" fill="#e0c1bd" stroke="#e0c1bd" stroke-linecap="round" stroke-linejoin="round" stroke-width="3"/><path d="M728.19 903.3c0-4.21-3.8-47-4.68-64.3l-5.61 27.81-32.9 2.93 28.5 18.85-7.11 35.26z" fill="#95b3c6" stroke="#95b3c6" stroke-linecap="round" stroke-linejoin="round" stroke-width="3"/><path d="M751.57 1055.15c-.22-3.36-5.13-57.42-5.57-59l-5.44 23.75-32.95 2.1 28 19.57-8 35.07z" fill="#518960" stroke="#518960" stroke-linecap="round" stroke-linejoin="round" stroke-width="3"/><path d="M766.6 1192.36s-6-51.81-6.65-57.5l-5.59 23.51-33 1.8 27.86 19.83-8.32 35z" fill="#6b242e" stroke="#6b242e" stroke-linecap="round" stroke-linejoin="round" stroke-width="3"/><path d="M772.36 1251.25c.82-12.22-14.55-126.94-20.13-208.21-3.83-55.86-22.88-124.63-22.88-124.63s-14.59-306.94-52.89-331.94M218.93 620.79c-44.73 26.94-26.68 324.27-26.68 324.27a619.79 619.79 0 0 0-3.6 128.12c5.53 68.42-1.78 226.52 13.49 240.51" fill="none" stroke="#262521" stroke-linecap="round" stroke-linejoin="round" stroke-width="3"/></svg>