<svg xmlns="http://www.w3.org/2000/svg" width="1250" height="1550" viewBox="0 0 1250 1550"><title>s06e08-02</title><line x1="416.96" y1="1297.6" x2="451.41" y2="1576.03" fill="#fff" stroke="#fff" stroke-linecap="round" stroke-linejoin="round" stroke-width="3"/><path d="M804,1236.76l4.89,66.51s-66.3,16.92-180.1,21.41-225-13.77-225-13.77l1.64-52.93Z" fill="#494844" stroke="#262521" stroke-linecap="round" stroke-linejoin="round" stroke-width="3"/><path d="M879.72,1045c-3.84-55.87-22.89-124.63-22.89-124.63s-14.58-307-52.88-331.94c-10.88-7.11-144.61-57.61-144.61-57.61s.48,52.44-79.87,52.44c-65.08,0-85.14-51-85.12-51-1,.65-103.44,63.71-147.94,90.52C301.68,649.69,319.74,947,319.74,947a619.73,619.73,0,0,0-3.6,128.12c5.52,68.42-1.88,179.2,14.45,197.93l61-1.5s-5.61-14.34-4.66-27c2.28-30.22,5.54-104.26,15.36-135.21S423.7,1021,423.7,1021a263.9,263.9,0,0,1-4,50.32c-3.6,21.92-28.66,102.79-14.78,133.07-3.34,29.29-5.7,66.94-5.7,66.94s101,22.75,178,21.82c137.52-1.66,234.85-32.7,234.85-32.7s-4.28-35.71-7.33-60.53c3.63-23.36-2.2-83.51-15.91-143,17.07,47.16,40.24,126.63,42.46,162.32,1.63,26.39,2.88,34.36,2.88,34.36h58.1s4.49-6.66,5.3-18.88S885.29,1126.26,879.72,1045Z" fill="#cececc" stroke="#262521" stroke-linecap="round" stroke-linejoin="round" stroke-width="3"/><g opacity="0.5"><line x1="663.21" y1="543.57" x2="675.14" y2="548.07" fill="none" stroke="#636363" stroke-linecap="round" stroke-linejoin="round" stroke-width="2"/><line x1="579.26" y1="591.72" x2="579" y2="606.47" fill="none" stroke="#636363" stroke-linecap="round" stroke-linejoin="round" stroke-width="2"/><line x1="596.24" y1="590.72" x2="596.74" y2="605.42" fill="none" stroke="#636363" stroke-linecap="round" stroke-linejoin="round" stroke-width="2"/><line x1="611.29" y1="588.42" x2="613.3" y2="601.67" fill="none" stroke="#636363" stroke-linecap="round" stroke-linejoin="round" stroke-width="2"/><line x1="624.99" y1="583.45" x2="629.18" y2="595.02" fill="none" stroke="#636363" stroke-linecap="round" stroke-linejoin="round" stroke-width="2"/><line x1="637.29" y1="575.49" x2="643.88" y2="585.55" fill="none" stroke="#636363" stroke-linecap="round" stroke-linejoin="round" stroke-width="2"/><line x1="647.63" y1="566.53" x2="656.8" y2="573.75" fill="none" stroke="#636363" stroke-linecap="round" stroke-linejoin="round" stroke-width="2"/><line x1="656.43" y1="555.88" x2="667.26" y2="560.82" fill="none" stroke="#636363" stroke-linecap="round" stroke-linejoin="round" stroke-width="2"/><line x1="495.82" y1="544.34" x2="483.58" y2="551.3" fill="none" stroke="#636363" stroke-linecap="round" stroke-linejoin="round" stroke-width="2"/><line x1="562.32" y1="590.12" x2="561.31" y2="604.79" fill="none" stroke="#636363" stroke-linecap="round" stroke-linejoin="round" stroke-width="2"/><line x1="547.85" y1="587.8" x2="545.33" y2="601.26" fill="none" stroke="#636363" stroke-linecap="round" stroke-linejoin="round" stroke-width="2"/><line x1="534.4" y1="582.54" x2="529.42" y2="594.9" fill="none" stroke="#636363" stroke-linecap="round" stroke-linejoin="round" stroke-width="2"/><line x1="521.9" y1="576.3" x2="514.93" y2="586.19" fill="none" stroke="#636363" stroke-linecap="round" stroke-linejoin="round" stroke-width="2"/><line x1="510.81" y1="567.82" x2="501.89" y2="575.18" fill="none" stroke="#636363" stroke-linecap="round" stroke-linejoin="round" stroke-width="2"/><line x1="501.7" y1="556.39" x2="491.23" y2="562.99" fill="none" stroke="#636363" stroke-linecap="round" stroke-linejoin="round" stroke-width="2"/><line x1="345.38" y1="1264.56" x2="343.35" y2="1227.76" fill="none" stroke="#636363" stroke-linecap="round" stroke-linejoin="round" stroke-width="2"/><line x1="356.39" y1="1264.3" x2="355.27" y2="1228.02" fill="none" stroke="#636363" stroke-linecap="round" stroke-linejoin="round" stroke-width="2"/><line x1="368.81" y1="1264.3" x2="366.81" y2="1228.02" fill="none" stroke="#636363" stroke-linecap="round" stroke-linejoin="round" stroke-width="2"/><line x1="381.5" y1="1264.88" x2="377.72" y2="1228.02" fill="none" stroke="#636363" stroke-linecap="round" stroke-linejoin="round" stroke-width="2"/><line x1="877.14" y1="1211.27" x2="879.26" y2="1244.18" fill="none" stroke="#636363" stroke-linecap="round" stroke-linejoin="round" stroke-width="2"/><line x1="865.26" y1="1212.1" x2="866.6" y2="1243.84" fill="none" stroke="#636363" stroke-linecap="round" stroke-linejoin="round" stroke-width="2"/><line x1="853.08" y1="1212.1" x2="854.96" y2="1245.38" fill="none" stroke="#636363" stroke-linecap="round" stroke-linejoin="round" stroke-width="2"/><line x1="840.71" y1="1212.18" x2="840.71" y2="1245.38" fill="none" stroke="#636363" stroke-linecap="round" stroke-linejoin="round" stroke-width="2"/><line x1="888.84" y1="1210.77" x2="890.11" y2="1245.38" fill="none" stroke="#636363" stroke-linecap="round" stroke-linejoin="round" stroke-width="2"/><line x1="330.73" y1="1228.56" x2="334.66" y2="1265.28" fill="none" stroke="#636363" stroke-linecap="round" stroke-linejoin="round" stroke-width="2"/></g><path d="M768.86,809.59S783.74,929.28,785,976.86c0,0,.14,64,3.86,80.13" fill="none" stroke="#262521" stroke-linecap="round" stroke-linejoin="round" stroke-width="3"/><path d="M413.14,809.59S425.22,982,423.7,1021" fill="none" stroke="#262521" stroke-linecap="round" stroke-linejoin="round" stroke-width="3"/><g opacity="0.5"><line x1="611.17" y1="1247.46" x2="612.95" y2="1281.09" fill="none" stroke="#636363" stroke-linecap="round" stroke-linejoin="round" stroke-width="2"/><line x1="630.66" y1="1245.64" x2="632.44" y2="1279.27" fill="none" stroke="#636363" stroke-linecap="round" stroke-linejoin="round" stroke-width="2"/><line x1="650.16" y1="1244.01" x2="651.95" y2="1277.64" fill="none" stroke="#636363" stroke-linecap="round" stroke-linejoin="round" stroke-width="2"/><line x1="670.17" y1="1243.01" x2="671.95" y2="1276.64" fill="none" stroke="#636363" stroke-linecap="round" stroke-linejoin="round" stroke-width="2"/><line x1="690.77" y1="1239.51" x2="692.55" y2="1273.14" fill="none" stroke="#636363" stroke-linecap="round" stroke-linejoin="round" stroke-width="2"/><line x1="709.16" y1="1236.54" x2="710.94" y2="1270.17" fill="none" stroke="#636363" stroke-linecap="round" stroke-linejoin="round" stroke-width="2"/><line x1="726.95" y1="1234.03" x2="727.84" y2="1267.65" fill="none" stroke="#636363" stroke-linecap="round" stroke-linejoin="round" stroke-width="2"/><line x1="745.05" y1="1228.37" x2="745.05" y2="1264.46" fill="none" stroke="#636363" stroke-linecap="round" stroke-linejoin="round" stroke-width="2"/><line x1="475.46" y1="1238.11" x2="476.46" y2="1274.19" fill="none" stroke="#636363" stroke-linecap="round" stroke-linejoin="round" stroke-width="2"/><line x1="495.1" y1="1241.28" x2="496.1" y2="1277.36" fill="none" stroke="#636363" stroke-linecap="round" stroke-linejoin="round" stroke-width="2"/><line x1="515.07" y1="1246.34" x2="516.85" y2="1279.97" fill="none" stroke="#636363" stroke-linecap="round" stroke-linejoin="round" stroke-width="2"/><line x1="533.19" y1="1247.46" x2="534.97" y2="1281.09" fill="none" stroke="#636363" stroke-linecap="round" stroke-linejoin="round" stroke-width="2"/><line x1="414.51" y1="1223.02" x2="414.53" y2="1263.15" fill="none" stroke="#636363" stroke-linecap="round" stroke-linejoin="round" stroke-width="2"/><line x1="434.57" y1="1228.94" x2="434.07" y2="1267.12" fill="none" stroke="#636363" stroke-linecap="round" stroke-linejoin="round" stroke-width="2"/><line x1="454.94" y1="1235.31" x2="454.94" y2="1271.4" fill="none" stroke="#636363" stroke-linecap="round" stroke-linejoin="round" stroke-width="2"/><line x1="552.69" y1="1249.22" x2="554.47" y2="1282.85" fill="none" stroke="#636363" stroke-linecap="round" stroke-linejoin="round" stroke-width="2"/><line x1="572.14" y1="1249.2" x2="573.92" y2="1282.82" fill="none" stroke="#636363" stroke-linecap="round" stroke-linejoin="round" stroke-width="2"/><line x1="591.74" y1="1248.43" x2="593.52" y2="1282.06" fill="none" stroke="#636363" stroke-linecap="round" stroke-linejoin="round" stroke-width="2"/><line x1="764.05" y1="1224.26" x2="764.27" y2="1260.32" fill="none" stroke="#636363" stroke-linecap="round" stroke-linejoin="round" stroke-width="2"/><line x1="781.31" y1="1220.01" x2="782.15" y2="1256.03" fill="none" stroke="#636363" stroke-linecap="round" stroke-linejoin="round" stroke-width="2"/><line x1="797.36" y1="1217.11" x2="799.91" y2="1253.16" fill="none" stroke="#636363" stroke-linecap="round" stroke-linejoin="round" stroke-width="2"/></g></svg>