<svg xmlns="http://www.w3.org/2000/svg" width="1000" height="1550" viewBox="0 0 1000 1550"><path fill="#fff" stroke="#262521" stroke-linecap="round" stroke-linejoin="round" stroke-width="3" d="M279.43 1264.5l396.53-16.39 20.11 342.24-158.71-1.86-28.9-196.6-25.52 8.67-8.83 196.25-153.94-.22-40.74-332.09z"/><path d="M364.35 531.24h0s.01-.04 0 0zM752.22 1043c-3.84-55.87-22.89-124.63-22.89-124.63s-14.58-307-52.88-331.94c-10.88-7.11-142.29-56.21-142.29-56.21s-2.49 55-82.85 55c-65.08 0-82.09-39.23-86.21-51.38a11.73 11.73 0 01-.75-2.59c-1 .64-100.94 62.69-145.44 89.5C174.18 647.69 192.24 945 192.24 945a619.73 619.73 0 00-3.6 128.12c5.52 68.42-1.88 179.2 14.45 197.93l61-1.5s-5.61-14.34-4.66-27c2.28-30.22 5.54-104.26 15.36-135.21S296.2 1019 296.2 1019c.49 23.68.3 42.22-1 50.32-3.6 21.92-31.66 102.79-17.78 133.07-3.34 29.29-5.7 66.94-5.7 66.94s95.7 25.59 172.7 24.66c137.52-1.66 240.17-35.54 240.17-35.54s-2.28-35.71-5.33-60.53c9.94-22.61-4.2-83.51-17.91-143 17.07 47.16 40.24 126.63 42.46 162.32 1.63 26.39 2.88 34.36 2.88 34.36h58.1s4.49-6.66 5.3-18.88-12.3-108.46-17.87-189.72z" fill="#262521" stroke="#262521" stroke-linecap="round" stroke-linejoin="round" stroke-width="3"/><path d="M711 1219s30.63-3.83 52.37 0M200.25 1236.47s30.64-3.84 52.37 0M286.17 1219s168.07 32.86 378.14-4.33M352.93 546.4s21.5 56.91 100.81 56.91 94.26-62 94.26-62" fill="none" stroke="#636363" stroke-linecap="round" stroke-linejoin="round"/><path d="M492.62 724.24s-.23 2.72 1.28 2.52-1.28-2.52-1.28-2.52z" fill="#779623" opacity=".19"/><path d="M357.83 729.1s14.55-28.87-7.35-28.17c-12.42.4-25 6.26-25 6.26l9.9 78.14s18.53-12.78 24.86-17.46 20.88-26.8-2.41-38.77zm-8-13.1a28.47 28.47 0 01-6 18.37l-4-24.12s9.73-5.52 10.01 5.75zm-3.33 53.82l-2.32-24.74c2.78-5.73 12.67-9.7 13.19 2.55s-10.86 22.19-10.86 22.19zM374.53 696.06l5.22 63.85 34.43-12.77-.17-5.36-22.47 7.22-.54-22.85 18.34-4.1-.33-6.19-18.5 3.39-1.29-18.71 21.78-2.86-.47-6s-30.72 1.96-36 4.38zM414.27 691.02l17.46 53.74 10.28-.32 6.87-33.2 9.47 32.69 13.35-.41 9.34-54.57-8.17.25-6.3 33.4-11.31-32.85-10.42.32-6.68 30.24-12.06-29.66-11.83.37zM504.58 688.92l-11 .34-15.24 54 9-.28 2.92-10.24 16.76-.52 4.47 12.13 13.41-.35zm-13.49 37.93l6-24 9 23.55zM565.6 701.83c-.29-9.43-14-14.54-18.91-14.39s-21.55.85-21.55.85l3.16 56.43 12.9 2-.62-20L547 724l5 24.8 13.54.29-8-30.77s8.36-7.05 8.06-16.49zm-25.2 17.44l-.81-26c3.48-3.15 14 .55 14.3 8.76s-13.49 17.24-13.49 17.24zM572.5 688.25l2 63.56s12.88 6.21 18.47 7.82 12.72 6.94 12.72 6.94l-.24-8s-11.18-8.77-16.73-9.13l-1-25.55 15.39.62-.22-7.14s-9.91-2.38-15.44-2l-1.15-19.8 17.18.54-.18-5.74s-6.23-4.85-30.8-2.12z" fill="#bc413a" stroke="#fff" stroke-linecap="round" stroke-linejoin="round" stroke-width="1.9"/><path d="M532.48 836.9c-.11-3.54-4.71-5.53-4.81-8.74s-4.57-10.25-6.68-14.29-6.54-14.26-6.54-14.26c4.73-7.38 3.9-16 3.9-16s.21 2.26-.38-12.18S498.05 737 498.05 737c-.73-5.23-1.94-16.67-5.29-16.82s-13 31.13-14.11 32.73-5.19.3-6.87-1-5.49-1.34-5.49-1.34-7.85-10.82-9.77-13.45-9.09-9.78-11.76-8.91-.1 6 1.11 8.25 2.21 11.84 2.21 11.84-11.86 1.78-14 1.85-8.49 4.94-8.49 4.94l-9.34.29c-2.39.07-8.28 7.77-10.2 9.67s-.59 4-.28 4.77-4.52.48-9.06.34-10.89.91-12.87 1.11-11.04-.27-12.51-.27-6 5-6.56 6.16.05 1.84.22 7.23 9.59 12.17 9.59 12.17c-.32 3.27 9.05 13 14.16 17.7s8.44 2.58 7.42 1.47-4.06-9.65-4.06-9.65 8.59 9.66 10 8.76-5.55-13.84-1.58-13.84 20 12.7 20 12.7l.06 2.13c0 .85-8.38 8.45-8.38 8.45s-7.72-6.68-9.28-6.49-.46 8-.46 8-8.76-8.38-9.75-8.21 2 6 2.21 7.27-.06 2.73.12 3.72.25 8.07.25 8.07 4.58 6.24 6.74 7.3 8.94.29 14.49.83 13.81-2.55 18.9-3.14 16.59.34 17.73.3 4.83 5.1 4.83 5.1l.64 20.53-1.62.44s-1.48 5.71.79 5.64 5.52-4.7 5.6-6.83 3.09-1 3.93-1.12.42-7.24.42-7.24a21.54 21.54 0 003.86-1.17c.83-.5 5-3.22 5-3.22a19.62 19.62 0 002.91 2.94c.72.32 2.07-2 2.07-2s3.33 2.17 4.17 1.72-2.79-7.57-5.14-10.19-8.18-12.36-8.18-12.36.55-2.75 1.25-.75c2 5.8 17.64 20.15 18.91 20s.45-3.7.41-5.12-5.68-9.32-8.07-13.21-5.07-8.21-2.18-6.32 10.57 16.26 11.55 16-4-11.5-2.76-11.54 7.18 12.11 10 16.84 4.71 15 6.29 15.68 2.62-2.49 2.55-4.61 1.4-5.43 2.53-5.47 2.54 4.32 3.83 4.7 2.61-2.63 3.46-2.66 2.45 1.2 3.87 1.16 2.54-4.9 6.06-5.72 5.82-4.29 5.82-4.29-3.36-8.42-3.47-11.96zm-29.88-86.76c6.42 1.88 6.32 6.27 6.32 6.27a61.38 61.38 0 00-5.54-3.52 1.72 1.72 0 01-.78-2.75zm-1.6-2.61c0 1.15-1.8-1.91-1.8-1.91 3.88-1.73 1.8.76 1.8 1.91zm-2.2 1.8c.41 0 1.26 1.46 1.3 2.5s-2.32 0-2.45-.66c.02 0 .77-1.83 1.17-1.84zm-3.66-4.46s1.77 16 .59 19.08-.89 8.26-1.29 6.77-.89-14-1-17.06 1.72-8.79 1.72-8.79zm-1.25 39.27s1-.15 1 .63-1.81 1.23-.98-.63zm-.6-6.22c0-1.85-3.26-4.06-3.26-4.06s3.68-.69 4.09 1.49-.76 4.42-.81 2.57zm-.6-48.76c1.14 4.39-2.42 3.63-2.42 3.63s1.9-5.7 2.44-3.63zM487.37 743c.26-6.31 4-8.48 4-8.48s1.71 9 .37 12-5.54 9.88-6.26 9 1.62-6.17 1.89-12.52zm-4.3 32.9c-1 1.1-4.35-5.77-4.35-5.77s5.35 4.7 4.35 5.8zm-6.63-4.38s3.61 3.07 3.53 4.59-4.73-5.67-3.53-4.56zm-2 12.36c.63 0 4.69 5.82 5.52 5.62s-3.77-6.09-1.2-7.07c2.23-.84 2.87 1.22 2.91 2.72l.19 6.14s-2.69 0-3.93-1.67-4.13-5.69-3.51-5.71zm-9-4.92c-.13 0-6.26-5-6.26-5s4.63.93 6.19 2.76.18 2.28.06 2.28zm-5.29-27.2a1.31 1.31 0 01.05.22c0 .22 0 .1-.05-.22-.49-2-6.88-11.29-6.88-11.29 5.28-.63 6.63 9.41 6.87 11.32zm-1.08 28.53c-1.33 1.61-2.47-1.37-2.47-1.37s3.8-.21 2.46 1.4zM455 747.83c-.42-1.31-3.54-3.68-3.54-3.68 4.97 1.04 3.97 5 3.54 3.68zm-11.14 2.5c3.29-.5 12.35 3.28 12.35 3.28 0 2.65-8.56-1.51-11.24-1.68s-4.39-1.11-1.1-1.6zm8.61 30c-1.11 1.4-6.73-4.51-6.73-4.51s7.85 3.1 6.74 4.51zm-5.2-16.49c.18 1.13-4.83 4.26-5.39 4.42s-2.11-4.18-2.11-4.18c-.61-1.61 7.33-1.36 7.51-.24zM438 752.12c-8.31 4-15.44 13.71-17.21 16.56s-3.24-.54-3.24-.54c3.58-9.53 20.45-16.02 20.45-16.02zm-1.79 17.18c-.1.35-3.45.45-3.59-.45s1.65-1.23 1.65-1.23 2.03 1.38 1.92 1.68zm-18.08-10.22c0 1.69-5.49 4.34-5.49 4.34.65-3.68 5.47-4.34 5.47-4.34zm-34.4 30.1c2.49 0 2.44-1.68 2.57-2.4s-1.67-3.21-.14-4.25a4 4 0 013.55-.11l.66 1.82-2.31.07.1 3.26 2.31-.07.86 1.44s-3.12.06-4.37 1.08-6.65.93-7.66.24 1.93-1.05 4.41-1.08zm-16.17-12.59c-.42-.63.83-1.8.83-1.8s10-.14 11 .23.6 1.19-.37 1.22-11.02.98-11.48.35zm10.19 6.2s-4.19-2.56-5.4-3.15-.05-1.67-.05-1.67 5.51 2.13 5.43 4.82zm-5.7 7.69c-.41 0-1.27-1.84-1.27-1.84s2.41-.21 2.43.6a1.27 1.27 0 01-1.21 1.24zm1.87-7.57s2.8 3.54 4 3.64-.47 1.35-.47 1.35-4.34-1.24-3.55-4.99zm6.81 18.56c-1.43 0-3.66-4.71-3.66-4.71s5.08 4.66 3.64 4.71zm-.9-6.27s3.81-2.53 5.48-2.58 2.9 4.74 2.9 4.74-2.77-2.87-4.23-2.29 1.69 2.63.12 3.75-4.29-3.62-4.29-3.62zM391 811.78c-1.11.6-7.87-6.43-8.33-7.55s4.47-2.42 4.47-2.42 5 9.37 3.86 9.97zm6-4.48c-1.13.06-8-12.39-8-14.4s3.83-1.86 3.83-1.86c-.71 3.24 5.32 16.19 4.17 16.26zm1.77-14.17c-1.45.72-2.25-1.35-2.25-1.35 2.88-.58 3.71.64 2.26 1.35zm2.08-4.49s17.76.26 30.49 8.85 15.23 11.2 15 12.61-10.61-9.36-18.75-12.48-26.44-6.44-26.73-8.98zm43.54 29.44a13 13 0 00-2.9 2.5c-.62 1-2.17.64-2.18.07s4-3.82 4-3.82zM432 805.48c-.1 1-4.1-2.66-4.1-2.66 1.96-1.67 4.2 1.61 4.1 2.66zm-29.58-11.79c2.29.33 5.65.63 5.94 2.1s-5.94-2.1-5.94-2.1zm8.4 3c-2.39-3.68 11.56 1 12.77 1.88s-.13 3.75-1.92 2.2-10.85-4.11-10.85-4.11zm8.63 29.15l1.9 1.93a12.74 12.74 0 003.41-.1c1.13-.32-.1-3.34-.1-3.34l2.68-.47s1.2 2 2.11 1.67 4.19-4.67 5.75-4.72c0 0 1.61 1.37.12 3.83s-9.65 5-13 5.88a7.34 7.34 0 01-6.42-1c-.62-.59 3.55-3.71 3.55-3.71zM405 821.15c.44.41 8.65 8.4 8.65 8.4s.78 2.53-3 1.23-6.14-10.04-5.65-9.63zm-7.87 2.66s3.63 2.58.68 2.67c-1.44.05-.73-2.67-.73-2.67zm0 7.82a9 9 0 002.92-.09c1.41-.33.75-3.16 1.32-3.17a6.67 6.67 0 012 .79l-.08 1.92 4-.77s.64 2.4-3.73 3.39a6 6 0 01-6.46-2.07zm69.63 13.5c-.44.66-.89.72-1.35-.73-.03 0 1.76.08 1.32.73zm-.7-15.06s-2.77 1.21-3.38 2.55-4.56 2-4.56 2 .09 2.8-4.67 3.28a24.92 24.92 0 01-8.42-.57 31.39 31.39 0 015.07-1.08c2.79-.35 5.53-2.21 5.66-3.37s4.84-3.28 6-3.32 1.25-2.18 1.22-3-3.52-2-2.2-2.07 5.87-1.83 5.87-1.83zm6.64 24.35c-.84.25-2.95-3-2.95-3s3.76 2.74 2.92 3zm1.23-3.84c.1 1.69-2.79-3-2.79-3s2.66 1.31 2.76 3zm-1.7-41.86a3.21 3.21 0 01-2.61 1.11c-1.9.06-8-4.45-9-5.74s-1.94-1.11-3.7-1.2-5.25-3.8-5.25-3.8a18.45 18.45 0 01-1.21 3.56c-.43.45 2.6 3.58 4.24 4.27s6.48 5.81 6.52 7 1.39 7-.22 7-8.66.85-8.66.85-16.17 11.68-31.89 14.36-20.65.64-20.65.64 23.54-1.7 31.77-6.58 18.5-11.15 18.5-11.15l-.24-3.76s2.81 4.29 3.51 3.29a5 5 0 00-.19-6.07c-2-2.37-24.78-22.81-30.39-23.25s-6.45-.53-10-2-11.13-2.33-11.87-2.55a34.34 34.34 0 00-4.79-.25c-.25.2-.4 1.78-1.34 1.09s-2.33-5.25-3.94-6.06-3.19 1-5.3.56-4.19-3.55 2-2.89c0 0 11.05 1.42 15.5 3.19s7.41 2.56 7.24 1.83a33.82 33.82 0 00-2-3.89s8.6 7.65 10.28 7.59l6.08-.19-2.63-4.46s6.88 4.33 7.61 4.31-2-3.6-1.17-4.66 4.44 6 7.22 5.94 4.69 0 4.69 0 1.93 5.36 5.44 5.25 5.52 3.79 7.95 3.72 7.13.36 7.11-.37.4-1.33-1-4.66a25 25 0 01-1.69-7.13s2.13 2.57 3.31 2.68 3.3 2.39 1.54 2.45-.06 2.93 2.64 4.9 7 12.54 7.74 13.1-1.18 1.97-1.18 1.97zm4.87 7.07c-.82.17-2.92-3.41-2.92-3.41 1.94-.47 3.71 3.23 2.89 3.41zm1.5-4.22c-.16-.67-3.38-3.11-3.38-3.11 2.95-.27 3.5 3.77 3.35 3.11zm-5-16.86s5.68 5.3 5.76 7.78c0 0-5.36-3.23-5.76-7.78zm5.73 2.1s-13.16-11-13.36-13.53 1.37-.51 1.37-.51 8.75 6.38 13.61 14zm3.55 19.85a23.46 23.46 0 00-1.48-5.18s4.08 2.55 4.42 4.89-2.89 1.9-2.94.29zm1.93-51.66c-1.18-.78-2.25-5.6-2.25-5.6s.88-1.29 1.81-1.17 3.3 5.87 3.37 8.06-1.74-.5-2.93-1.29zm13.53 64.05c-.4 2.44-1.71-1.31-1.4-4.27s-7-14.79-7-14.79c6.06 6.26 8.8 16.63 8.4 19.08zm3.51-5.82c-.57-5.53-6.67-14.55-6.67-14.55 8.7 10 6.67 14.57 6.67 14.57zm13-.17c-.67 0-.67 4.4-3.1 3.94s-6-2-6.33-5.43-8.39-15-7.8-15.84 7.08 9.87 8.19 11.29 3.89 4.44 4.69 4.2 1.41-6.53 1.41-6.53 1.78 5.55 2.18 5.54 1.43 2.86.76 2.85zM512.34 792a21.13 21.13 0 00-.54-2.52c0 .58-5 4.2-5 4.2a13.28 13.28 0 00-3.41-4.06c-2.12-1.55-.9-2.51-.41-2.52s4.23 3.33 4.23 3.33 4.42-3 5.33-7.1-1.43-19.86-1.43-19.86l2.44.42c3.08 6 .87 28.05.87 28.05zm6.58 34.67c-1.37 1-1.92-3.43-.89-4.53s.47-6.58.47-6.58c2.11 3.28 1.79 10.13.42 11.11zm3.13 6c-1 .36-1.11-1.18-1.11-1.18.95.28 2.11.85 1.11 1.22z" fill="#fff"/></svg>