<svg xmlns="http://www.w3.org/2000/svg" width="1250" height="1550" viewBox="0 0 1250 1550"><title>s06e08-01</title><path d="M879.72,1045c-3.84-55.87-22.89-124.63-22.89-124.63s-14.58-307-52.88-331.94c-10.88-7.11-144.61-57.61-144.61-57.61s.48,52.44-79.87,52.44c-65.08,0-85.14-51-85.12-51-1,.65-103.44,63.71-147.94,90.52C301.68,649.69,319.74,947,319.74,947a619.73,619.73,0,0,0-3.6,128.12c5.52,68.42-1.88,179.2,14.45,197.93l61-1.5s-5.61-14.34-4.66-27c2.28-30.22,5.54-104.26,15.36-135.21S423.7,1021,423.7,1021c.49,23.68.3,42.22-1,50.32-3.6,21.92-31.66,102.79-17.78,133.07-3.34,29.29-5.7,66.94-5.7,66.94s101,22.75,178,21.82c137.52-1.66,234.85-32.7,234.85-32.7s-2.28-35.71-5.33-60.53c9.94-22.61-4.2-83.51-17.91-143,17.07,47.16,40.24,126.63,42.46,162.32,1.63,26.39,2.88,34.36,2.88,34.36h58.1s4.49-6.66,5.3-18.88S885.29,1126.26,879.72,1045Z" fill="#262521" stroke="#262521" stroke-linecap="round" stroke-linejoin="round" stroke-width="3"/><path d="M399.19,1271.35s101,22.75,178,21.82c137.52-1.66,234.85-32.7,234.85-32.7" fill="none" stroke="#636363" stroke-linecap="round" stroke-linejoin="round"/><path d="M838.52,1221s30.63-3.83,52.37,0" fill="none" stroke="#636363" stroke-linecap="round" stroke-linejoin="round"/><path d="M327.75,1238.47s30.64-3.84,52.37,0" fill="none" stroke="#636363" stroke-linecap="round" stroke-linejoin="round"/><path d="M413.67,1221s150.57,39.48,378.14-4.33" fill="none" stroke="#636363" stroke-linecap="round" stroke-linejoin="round"/><path d="M481.93,546.9s21.5,56.91,100.81,56.91,94.26-62,94.26-62" fill="none" stroke="#636363" stroke-linecap="round" stroke-linejoin="round"/><rect x="439.78" y="688.77" width="303.86" height="41.07" transform="matrix(1, -0.04, 0.04, 1, -24.6, 21.27)" stroke-width="3" stroke="#fff" stroke-linecap="round" stroke-linejoin="round" fill="#fff"/><rect x="441.83" y="746.81" width="303.86" height="41.07" transform="translate(-26.64 21.38) rotate(-2.02)" stroke-width="3" stroke="#fff" stroke-linecap="round" stroke-linejoin="round" fill="#fff"/><polygon points="565.95 833.83 620.06 831.81 578.18 867.84 593.02 813.08 611.12 866.77 565.95 833.83" fill="#fff" stroke="#fff" stroke-linecap="round" stroke-linejoin="round" stroke-width="3"/></svg>