<svg xmlns="http://www.w3.org/2000/svg" width="1000" height="1550" viewBox="0 0 1000 1550"><title>s06e13-01</title><path d="M279.44 1264.54s61.79 24.3 203.69 19.8S676 1248.15 676 1248.15l20.1 342.25-158.7-1.86-28.9-196.6-25.5 8.67-8.84 196.24-153.94-.22zM676.34 601.27C665.45 594.17 526.81 528 526.81 528s-9 42.67-63.91 47.58c-64.83 5.79-86.64-36-90.76-48.14l-87.91 73.8" fill="#fff" stroke="#262521" stroke-linecap="round" stroke-linejoin="round" stroke-width="3"/><path d="M752.23 1043c-3.83-55.86-22.88-124.63-22.88-124.63s-14.59-306.94-52.89-331.94c-10.88-7.1-142.29-56.2-142.29-56.2s-2.49 55-82.84 55c-65.08 0-82.1-39.23-86.21-51.38a10.64 10.64 0 0 1-.75-2.59c-1 .65-100.94 62.7-145.44 89.51-44.73 26.94-26.68 324.27-26.68 324.27a619.79 619.79 0 0 0-3.6 128.12c5.53 68.42-1.88 179.21 14.45 197.94l61-1.5s-5.6-14.34-4.65-27c2.27-30.22 5.53-104.26 15.36-135.22s21.45-88.31 21.45-88.33c.49 23.68.3 42.23-1 50.33-3.6 21.92-31.66 102.78-17.78 133.07-3.34 29.29-5.7 66.94-5.7 66.94s101 22.74 178 21.81c137.52-1.65 234.84-32.69 234.84-32.69s-2.28-35.71-5.32-60.53c9.94-22.61-4.2-83.52-17.92-143 17.07 47.17 40.25 126.64 42.46 162.33 1.64 26.39 2.89 34.36 2.89 34.36h58.1s4.48-6.67 5.3-18.88-12.32-108.48-17.9-189.79z" fill="#262521" stroke="#262521" stroke-linecap="round" stroke-linejoin="round" stroke-width="3"/><path d="M711 1219s30.63-3.84 52.36 0M200.27 1236.51s30.63-3.83 52.37 0M286.18 1219s168.08 32.87 378.15-4.33M353 546.45s21.5 56.9 100.8 56.9 94.27-62 94.27-62" fill="none" stroke="#636363" stroke-linecap="round" stroke-linejoin="round"/><path d="M545.7 878.81s5.21 18.14 5.21 24.6 10.41 14 15.08 13.65 6.54-9.16 7.94-20.29 17.56-24.4 36.24-27.73 43.27 1.87 45.43 12.46 1.22 16.22-18.68 20.83c-14.72 3.42-48.84 41.13-48.84 41.13s-2.34 37.71-8.62 45.61-28.55 25.5-34.84 30.89-23.16 27.29-44.89 35-49.92.72-57.83-7.54-5.2-19.57-9.33-25.14-41.48 2.69-60.7-3.23-16.7-10.6-16.88-18.68.18-29.81-3.77-48.12-2.87-61.78-3.77-64.29-4.31-11.13-2.69-14.91c0 0-24.07-21.72-33.41-43.27s-22.44-54.23-24.6-71.65-2.87-30.71 11.5-31.07 27.47 19.57 32.32 51.18c0 0 18.85 31.25 25.68 38.43s10.59 25 16.16 24.6-7.54-46.33-13.47-68.06-17.6-72-17.6-85.83 8.08-23.35 23.17-23 18.32 16.34 18.14 35.56 18.67 73.26 26.39 86.19 14.19 28.55 20.29 28.19 6.83-20.47 6.11-46.15 8.08-42 9.7-73.62S451.77 654 467.58 654c14.78 0 24.61 4.31 22.27 43.46s-8.8 112.41-7.36 120 7.36 12.39 16.7 7.54 31.24-60 36.09-79.91 5.59-55.24 24.07-61.77c21.48-7.61 28.37 9.87 25.5 33.93s-8.09 35.38-9.7 44.18-7.72 24.24-15.09 42.56-10 33.94-9.33 44.17-1.26 25.84-5.03 30.65z" fill="#b7a7a2"/><path d="M467.15 789.6c-8.73 13.14-2.62 29.88 15.19 26.28-2.22-18.43 11.54-110.27 6.11-146.86-6.47 6-16.61 6.51-22.94 12.69-9.29 9.41 4.24 16.55-4.31 48.43 2.31 29.3 33.33 17.24 5.95 59.46zM448.17 850.94c-5.87 1.35-7.89 8.33-13.56 10 .72 8.36-25.57-1.73-30-3.52-5.44-3-24.61-4.87-18.6 5.77 5 6 11 17.07-.11 20.19l.06.09c23.19 3.6 51.17-1.82 65.81-21.63 2.12-3.77 3.46-12.54-3.6-10.9z" fill="#aa958f"/><path d="M350.25 920.29c6.32 11.46 13.84 17.14 27.2 17.2 5.2 1 10.79 4.49 9.6 10.66-4.46 14.21-23.91 8.34-33.82 16.37.6 4.94 1 9.86 1.23 14.46 12.89 2.33 23.32-8.4 36-7.7 21.29 3.65 1.1 25.46-6 33.79 8.8 1.87 17.65-3.24 26.53-2.27 5.32 1.13 11.31 5.21 15.92.17 7.24-7.92 5-19.93 8.18-29.51 2.69-9.4 10.94-17.36 10.43-27.63-7.09 5.41-19 10.58-23.7-.47-6.2-9.64-29-12.69-23.6-27.44 9.39-10.13 26.63-4.66 38.42-11.41 15.79-9.58 30.56-20.57 48.95-25.45 20.27-8.62 40.84-16.91 62.78-8.35a81.08 81.08 0 0 0 2.36-24.61c-1.62-11.16 5.33-36.49 13.09-53.57-46.19 17-15 38.4-35.16 52.87-9.19 4.78-13.18 1.85-19.12 12.38-13 10.38-31.61 10.45-46.33 18-11.41 4.47-20.82 12.61-32.08 17.32-14.23 6.19-32.52 1.5-44.33 13-6.88 21-23.06 5.86-38.58 7.19 0 .88 0 1.77.07 2.66.71.75 1.33 1.52 1.96 2.34zM576.78 956.58a2.21 2.21 0 0 1-1.18-.32c-17.81 3.38-15.88-7.86-27.62-9.43-9.32 6.21-19.49 3.67-29.88 5-8.94 2.56-13.94 11.75-23.16 13.72-9.61.67-17.62 4.31-22.44 13-2.75 4.69-7.72 6-12.64 7-6.16 2.22-8.88 8.41-12.07 13.62-4.82 7.8-11.28 14.5-16.27 22.19 6.06 5.29 1.8 17.28 10.39 26 38.83 26.71 78.17 1.79 102.71-27.48 23.71-21.32 40.73-24.44 42.3-63.37z" fill="#aa958f"/><path d="M515.08 916.82c-9.62-1.73-19.4-8.16-28.57-1.6-3.19 1.72-8.1 4.88-7.42 9.14 4.27-.09 8.55-3.4 12.4-5.24 11.47-7.57 23.15 4 35 2.1l.3-.1a38.76 38.76 0 0 0-11.71-4.3z" fill="#aa958f"/><path d="M429.45 814.33c-6.25.5-12.63-15.22-20.41-28.18s-26.57-67-26.39-86.19c.08-8.71-.55-16.74-2.65-23-6.3-1.93-12.86 1.77-18.81 3.52a26.69 26.69 0 0 0-12.29 5c-2.44 9.91-3 20.09-3.44 30.27 7 36.33 18.4 72.48 26.4 108.05 5.2 4.14 11.45 2.85 17.24.91 26.95-3.47 35.38 11.76 44.79 33 6.43 6.05 20.67 5.94 24.87-2.7 4.44-19.22-15.39-31.9-29.31-40.68z" fill="#7a6f6d"/><path d="M396.37 917.25c2.73-4.62 9.68-7.29 10.45-12.81-.67-5.47-10.78-4.24-14.37-4.23-5 .6-22.32-1.89-17.65-9.31 21.34-5.6 44.7-8.25 64.5-18.43-7.61 3.52-16.26.27-24.33 1.4-14.24.51-29.74 8.89-43.55 2.58-10.6-6.82 4.47-23.54-1.73-36.44a7.28 7.28 0 0 1-.51-.58 4.48 4.48 0 0 1-.44.18c-1.58.43-3-.54-4.12-1.6-2.92-2.83-4.3-7-6.09-10.55-2.44-4.82-4.81-9.63-7-14.58-1.52-3.46-3.55-6.63-5.37-9.91-7.51-11.28-15.62-24.72-15.62-24.72-2.37-15.43-6.71-28.07-12.2-36.93-12.46.74-24.89 6.8-31.5 17.64 4.36 31.87 34.35 99 57.89 114.1-1.62 3.78 1.79 12.39 2.69 14.91.4 1.11.41 10.18.64 21.54 16.49 6.49 6.15 24.4 32.46 26.82C392 938 394 957.61 407.33 950.66c-.12.08.38-.41.33-.34.56-11.56-20.84-20.77-11.29-33.07zM370 944c-4.63.25-9 3-13.73 2.67-2.09.06-5-1.2-5.84 1.33a202 202 0 0 1 4.05 32 42.34 42.34 0 0 0 13-22.56c-3.39.31-10.86 9.16-11.69 1.79C356.85 951.3 368.2 951 370 944z" fill="#7a6f6d"/><path d="M486.75 664c-14.95 13.31-34.79-2.06-32 19.73-1.19 6.82-11.31 20.17 3.13 16.22 7.47 1.15 15.24.79 22.54 2.32a4.41 4.41 0 0 1 1.05 7.52c-5.71 5.47-15.67 0-20.78 6.18-4 10-16.17 27.07-10 37.25 3.13 3.1 8.25 3.87 12.17 5.59 8.61 3.88 14.61 14.19 14.06 23.54.14 8.88-17.53 17.25-13.1 24.27 5.68 2.83 12.93 2 18.47 5.33-1.89-26.77 14.06-112.54 4.46-147.95zM528.8 775.77c10.39-4.57 25.23-1.72 25.38 11.87-.07 13-13.36 22.07-13.19 35.07.74 7.07 9.74 14.07 4 21.23-7 4.34-9.72 8.17-10.42 16.59-.69 3.68-3.45 6.7-3.93 10.4 6.8 8.94 12.39 19.5 19.85 28.19-1.23-8-4.78-20.31-4.78-20.31 3.77-4.85 5.74-20.47 5-30.71s2-25.86 9.33-44.17C571 775.45 594.69 716 581.22 688.34c-48.23 18.11-17.85 61.3-50.44 71.55-1.79 5.26-3.92 11.08-6.24 17 1.46-.33 2.88-.74 4.26-1.12z" fill="#847977"/><path d="M435.42 903.88a39.52 39.52 0 0 0-6.07 7.17c9.57-6 20.79-9.35 29.15-17-8.67.3-15.89 5.71-23.08 9.83zM655.6 881.5a7.75 7.75 0 0 0-.58-1.72c-14.67 26.33-50-6-66.51 23.37-12.38 13.14-8.79 22.61-8.75 38.22-1.63 9-12.19 21.66-21.34 12.93-2-1.57-3.54-4.5-6.19-5-1.92.09-1.88 3.59-2 5-.68 19.13-17.24 17.38-22.68 1.25-.78 17.56 4.91 33-19 34.75-12 7.61-15.29 2.18-28 6-10.37 2.62-20.44-16.52-28.37-3.17-2.26 4.68-12.93 22.79-18.2 13.77-1.14-13.53.82-26.59 3.81-39.69-12.78 9.07-14.09 30.68-31.48 34.63-5.46.9-11.2-.58-16.33 2a2.32 2.32 0 0 1-2.8-3.62c8.14-7.55 15.19-16.24 14.22-28.1-11.4 14.82-31.8 10.88-46.52 19.74 0 2.1.05 4 .07 5.58 4.18-1.75 25.66-11.89 26.82-5.71-.61 11.53-10.7 18-19.57 23.6 17.27 11.71 64.75 1 70.37 7 4.13 5.57 1.43 16.88 9.33 25.14 38.78 26.7 78.19 1.81 102.72-27.48 19.43-15.53 31.32-21.82 37.13-32.46 5.16-9.46 5.18-22.7 6.33-44 0 0 34.12-37.71 48.84-41.13 19.91-4.68 20.83-10.3 18.68-20.9z" fill="#7a6f6d"/><path d="M534.91 943.94a68.61 68.61 0 0 1 9.74 3.6c10.12 1.26-8.28-10.36-11.35-6.44-.71.9.34 2.63 1.61 2.84z" fill="#7a6f6d"/></svg>