<svg xmlns="http://www.w3.org/2000/svg" width="1000" height="1550" viewBox="0 0 1000 1550"><path d="M770.08 1230.47c0-.58 0-1.23-.07-1.94v-.23c0-.69-.08-1.44-.13-2.24v-.37c-.05-.79-.11-1.64-.18-2.53v-.5q-.11-1.35-.24-2.82c-.07-.8-.14-1.63-.22-2.49-.21-2.31-.45-4.83-.72-7.54 0-.28-.05-.55-.08-.82-.59-5.84-1.29-12.54-2.09-19.92l-.06-.56-.93-8.64c-.11-1-.22-2.06-.34-3.1-.22-2.09-.46-4.22-.69-6.38-.82-7.58-1.69-15.61-2.58-24-.12-1.2-.25-2.39-.38-3.6-.38-3.61-.76-7.29-1.15-11-.64-6.19-1.28-12.51-1.91-18.91-2.28-23-4.45-47.08-6-69.93-.49-7.1-1.22-14.4-2.13-21.74-6.24-50.48-20.76-102.89-20.76-102.89s-3-62.8-9.79-133.89c0-.25 0-.5-.07-.75-.34-3.44-.68-6.91-1-10.39 0-.25-.05-.5-.07-.75q-.52-5.19-1.08-10.43c-.17-1.62-.34-3.24-.52-4.87q-.33-3.16-.69-6.35l-.51-4.59q-.37-3.32-.77-6.63c-.91-7.79-1.86-15.55-2.87-23.2-.28-2.12-.56-4.24-.84-6.34-1-7.46-2.08-14.8-3.18-21.95-.18-1.16-.36-2.33-.55-3.48-5.64-35.73-12.5-66.55-20.68-84.18-.29-.63-.58-1.24-.88-1.83-2.94-5.94-6.06-10.17-9.35-12.31-10.88-7.11-142.29-56.21-142.29-56.21h0s0 .75-.22 2.06c0 .2-.06.4-.1.63-.09.56-.2 1.2-.35 1.92-.06.32-.13.66-.21 1 0 .15-.07.3-.11.46-3.37 14.3-18.11 48.91-81.85 48.91-14.29 0-26.25-1.89-36.28-5-2.68-.82-5.21-1.73-7.62-2.71l-1.05-.44c-1.66-.7-3.25-1.42-4.78-2.18h-.06c-25.08-12.5-33.67-32.89-36.43-41-.08-.24-.15-.45-.22-.64v-.13l-.14-.46v-.05c-.05-.15-.08-.27-.12-.39v-.09c0-.09 0-.17-.06-.23v-.07c0-.08 0-.15-.05-.21v0a.5.5 0 010-.12v-.09h0v0h0s0 0 0 0h0c-.37.23-13.21 8.2-31.63 19.61l-.15.09c-33.42 20.69-85 52.54-113.66 69.8-6.64 4-11.89 14-16 28-.22.74-.43 1.49-.64 2.25-22.86 82.33-10 294-10 294a619.73 619.73 0 00-3.6 128.12c.5 6.3.9 13 1.22 19.89v.66c.37 8.08.62 16.49.82 25.08v.34c.2 8.67.33 17.53.44 26.38v4l.09 7.52v.18c.62 52.18 1.34 101.91 11.8 113.9h0l30.48-.75 30.48-.75a76.6 76.6 0 01-2.69-8.75c-.16-.65-.32-1.32-.47-2a57.93 57.93 0 01-1.5-16.25c.92-12.24 2-31.68 3.62-52.53v-.34c.12-1.55.24-3.11.37-4.68.07-.81.13-1.62.2-2.43.14-1.63.27-3.26.42-4.9.35-4.08.73-8.18 1.13-12.24.16-1.63.33-3.25.49-4.86s.35-3.22.52-4.82c.36-3.19.73-6.34 1.12-9.42.2-1.55.4-3.07.61-4.58 1.85-13.59 4.09-25.71 6.85-34.41 1.15-3.61 2.29-7.55 3.42-11.7.16-.6.33-1.2.49-1.81q.68-2.5 1.33-5.08l.54-2.09c.39-1.57.79-3.16 1.18-4.76.51-2.05 1-4.11 1.5-6.19 1.91-8 3.74-16.11 5.45-23.64h.23c-2.18 18.33-10.16 62.43-14.7 102-2.8 24.22-4.3 46.71-2.38 60.61v.09c.08.57.17 1.13.26 1.68l.06.31c.08.48.17.94.26 1.39 0 .17.07.33.1.49.09.38.17.77.26 1.13l.18.65c.08.29.15.59.24.87l.27.81c.07.2.13.41.2.61.17.45.34.88.53 1.29v7.34c-.07 3.94-.19 8.45-.33 13v.11l-.18 5.63c-.35 10.86-.74 20.38-.74 20.38h0s17.19 4.37 43.66 8.77l2.59.43 5.35.85 5.57.84c26.43 3.89 59.4 7.23 93.08 6.82 49.23-.59 96.63-3.79 137.21-7.65l5.77-.56 5.19-.51 10.12-1 5.46-.59c4.7-.51 9.28-1 13.71-1.55 3.07-.35 6.07-.71 9-1.06l8.59-1.06c8.38-1.06 16.11-2.09 23.1-3l9.92-1.41 3.05-.44c8.94-1.31 16.09-2.44 21.14-3.26l3-.5c3.64-.6 5.56-1 5.56-1s-3.43-27.13-4.65-42.34q-.08-.78-.12-1.53c-.07-1-.14-1.91-.19-2.76a10.74 10.74 0 00.55-1.07l.17-.36c.13-.32.27-.65.4-1s.19-.55.28-.84c0 0 0-.1.05-.14a40.58 40.58 0 001.46-7.12c3.14-24.24-3.57-76.6-11.15-124.31h.01q1.74 5.19 3.45 10.54c14.39 44.67 27.61 95.29 29.37 123.64.5 8.18 1 14.59 1.38 19.54.91 11 1.5 14.82 1.5 14.82h58.1s3-4.52 4.56-12.93a52.57 52.57 0 00.69-5.37v-.58-1.39c.05-.38.04-.69.03-1.02z" fill="#262521" stroke="#262521" stroke-linecap="round" stroke-linejoin="round" stroke-width="3"/><path d="M364.1 533.83c4.12 12.15 21.13 51.38 86.21 51.38 80.36 0 84.73-51.88 84.73-51.88" fill="none" stroke="#262521" stroke-linecap="round" stroke-linejoin="round" stroke-width="5"/><path d="M711 1219s30.63-3.83 52.37 0M200.25 1236.47s30.64-3.84 52.37 0M272.86 1270.51s73.26 18.65 150.26 17.72c137.52-1.66 260.86-23.64 260.86-23.64" fill="none" stroke="#636363" stroke-linecap="round" stroke-linejoin="round"/><path d="M617.49 636.09S339.9 650 320.71 653.36s-71.13 78.13-66.42 83.73 44.19 76 47 115.3-4.29 77.38 5.54 79.61 23.11 6.29 23.11 6.29-70.9 395.88-64.11 400.35 127.7 22.27 177 17.82 91.36-9.71 91.36-9.71l12-14.6s106.11 28.39 151.62.48l-47-267s18.81-24.05 18.47-29-46.07-151.09-53.35-162.43-61.72-33-61.72-33l51.71-185.48 21.86-11.42z" fill="#97929b" stroke="#262521" stroke-linecap="round" stroke-linejoin="round" stroke-width="3"/><path d="M262.61 733.89s65.79-.32 72 67l262.89-142.5M549.42 850.23s-42 123.14-42.83 142.92 140.7 6.12 156.29 42.31M550.97 871.11l56.53 4.49M376.54 778.21S475.93 984.36 511.94 999M305.19 747.27s9 95.3 1 130M335.12 939.21l108.35 34.62M360.83 947.43l28.46 317.16M534.21 1008.04l-37.01 43.56M557.55 1013.63l-11.31 84.16" fill="none" stroke="#636363" stroke-linecap="round" stroke-linejoin="round"/><path fill="none" stroke="#636363" stroke-linecap="round" stroke-linejoin="round" d="M596.73 1010.11l8.48 181.7-162.36 30.41M548.92 1320.59l35.81-124.94M603.09 1104.61l42-36.65M619.05 1090.68l18.84 215.61s32.29 22 52.88 22"/></svg>