<svg xmlns="http://www.w3.org/2000/svg" width="1000" height="1550" viewBox="0 0 1000 1550"><title>s06e14-03</title><path fill="#262521" stroke="#262521" stroke-linecap="round" stroke-linejoin="round" stroke-width="3" d="M283.65 1273.81l-2.5 294.25 431.01-8.32-34.15-298.25"/><path d="M197.89 1262.81l3.44 22s50.26 9.39 64.93-5.41c3.48-3.52 0-31.28 0-31.28zM700.91 1226.13l3.44 22s50.26 9.39 64.93-5.41c3.48-3.51 0-31.27 0-31.27z" fill="#fff" stroke="#262521" stroke-linecap="round" stroke-linejoin="round" stroke-width="3"/><path stroke-width="3" stroke="#262521" stroke-linecap="round" stroke-linejoin="round" fill="#262521" d="M398.65 1151.22h149.27v133.77H398.65z"/><path d="M533.24 530.91s-63 24.43-84.61 24.43-81.06-23.88-81.06-23.88l-97.08 65.27L456.55 844l188-270.24z" fill="#fff" stroke="#262521" stroke-linecap="round" stroke-linejoin="round" stroke-width="3"/><path fill="none" stroke="#636363" stroke-linecap="round" stroke-linejoin="round" d="M434.15 568.68V792.5"/><circle cx="443.4" cy="705.19" r="4.3" fill="none" stroke="#636363" stroke-linecap="round" stroke-linejoin="round"/><circle cx="443.4" cy="632.42" r="4.3" fill="none" stroke="#636363" stroke-linecap="round" stroke-linejoin="round"/><path d="M380.31 506.89s26.26 38.43 66.82 48.45l-69 73.33s-27.26-75.46-18.66-92.12a148.1 148.1 0 0 1 20.84-29.66zM518.12 506.89s-15.39 39.69-67.8 48.45l69.95 73.33s30.78-73 22.18-89.67-24.33-32.11-24.33-32.11z" fill="#fff" stroke="#262521" stroke-linecap="round" stroke-linejoin="round" stroke-width="3"/><path d="M752.23 1043c-3.83-55.86-37.47-431.57-75.77-456.57C643.14 564.77 591 543 553.75 530.34c-13.69-19.43-40.17-28.18-40-26l.72 6.25s11.76 8.65 13.76 15.6C540.3 567.91 500 683.73 447 760.39c-37.32-59.5-85.51-182.89-76.33-221.39a61.86 61.86 0 0 1 14.44-27.64l.28-6.35s-28.55 7-37.45 25.86c0 0-103.14 71.13-129 89.88-44.73 26.94-35.81 384-30.28 452.39 5.65 69.91 2.95 195.09 6.16 199.08 6.52 8.08 84.32-2.59 84.32-2.59l.52 30c18.35.81 403.59-15.42 403.59-15.42l-3-78.55 9.36 35.59c25.12.15 90.23-.41 90.88-10.27.79-12.19-22.68-106.67-28.26-187.98z" fill="#262521" stroke="#262521" stroke-linecap="round" stroke-linejoin="round" stroke-width="3"/><path d="M279.65 1299.66s106.28 11.57 155.17-26.56c24.19-18.86 27.08-111 27.08-111" fill="none" stroke="#636363" stroke-linecap="round" stroke-linejoin="round"/><path d="M444.46 760.39c-11.45 57.27-.65 448.82 53.51 504.05 44.08 45 185.27 19.8 185.27 19.8" fill="none" stroke="#636363" stroke-linecap="round" stroke-linejoin="round"/><path d="M555.28 535.66L599 577.48l-45.33 10.72L584 614.15S523.4 705.19 450.32 775M347.56 535.66l-38.41 48.22 39.1 9.23-21.64 28.61S391.84 729 437.81 762.67" fill="none" stroke="#636363" stroke-linecap="round" stroke-linejoin="round"/><path fill="#fff" d="M526.16 731.07h103.07v8.53H526.16z"/><path fill="none" stroke="#636363" stroke-linecap="round" stroke-linejoin="round" d="M520.93 739.59h113.53V752H520.93z"/><rect x="438.13" y="563.82" width="23.63" height="31.23" rx="5" transform="rotate(2.45 449.116 578.266)" stroke-width="3" stroke="#262521" stroke-linecap="round" stroke-linejoin="round" fill="#262521"/><path d="M442.42 570.27s-14.76-15.64-54.42-17.34c0 0-1.08 30.19-3.51 34s-9.79 12.54 2.54 12.86 46 9.34 60-8.95M459.33 569.35s20.47-22.35 48.82-21.16c0 0 11.36 47 7 48.22s-40.27 8.56-59.14-7" fill="#262521" stroke="#262521" stroke-linecap="round" stroke-linejoin="round" stroke-width="3"/><path d="M462.09 572.05l-.67 15.77M437.81 586.81l.67-15.76M438.07 580.62s-9.61-4.78-19.94-2.54M461.61 583.3s6.89-2.91 17.87-.91" fill="none" stroke="#636363" stroke-linecap="round" stroke-linejoin="round"/><circle cx="456.58" cy="931.98" r="5.6" fill="none" stroke="#636363" stroke-linecap="round" stroke-linejoin="round"/><path fill="none" stroke="#8c8c8c" stroke-linecap="round" stroke-linejoin="round" stroke-width=".5" d="M455.88 930.78l.68-1.01.73 1.01M457.29 933.26l-.68 1.01-.73-1.01"/><circle cx="453.3" cy="788.9" r="5.6" fill="none" stroke="#636363" stroke-linecap="round" stroke-linejoin="round"/><path fill="none" stroke="#8c8c8c" stroke-linecap="round" stroke-linejoin="round" stroke-width=".5" d="M452.6 787.7l.67-1.01.74 1.01M454.01 790.18l-.68 1-.73-1"/><circle cx="465.45" cy="1073.74" r="5.6" fill="none" stroke="#636363" stroke-linecap="round" stroke-linejoin="round"/><path fill="none" stroke="#8c8c8c" stroke-linecap="round" stroke-linejoin="round" stroke-width=".5" d="M464.74 1072.54l.68-1.01.74 1.01M466.16 1075.02l-.68 1.01-.74-1.01"/></svg>