<svg xmlns="http://www.w3.org/2000/svg" width="1250" height="1550" viewBox="0 0 1250 1550"><title>s06e02-02</title><path d="M711.68,462.22l-62.42-31.86s31-167.31-80.72-177.65l-186,121V161.15H711.68Z" fill="#ffc702"/><path d="M507.82,521.89c6.05-15.52,0-53.7,0-53.71-24.24-49.29-26-118.18-26-118.18L544.4,249.65l100.82,11.58s-20.46-62.39-68.25-63-79.45-.14-95.14,14.92-71.45,110.94-46.94,178.08,14.72,47.74,12.88,66,19.08,66.47,19.08,66.47l40.88-1.64A1.51,1.51,0,0,0,507.82,521.89Z" fill="#fff" stroke="#262521" stroke-linecap="round" stroke-linejoin="round" stroke-width="3"/><path d="M584.53,1170q-3.71,42.49-5.5,85.12t-1.64,85.28q.08,23.88.77,47.75c.1,3.85,6.11,3.87,6,0q-1.23-42.65-.52-85.3t3.34-85.23q1.47-23.83,3.55-47.62a3,3,0,0,0-3-3,3.06,3.06,0,0,0-3,3Z" fill="#d8d0ad"/><path d="M580.16,1372.48a1.93,1.93,0,0,1,.34.11l-.72-.31a2.07,2.07,0,0,1,.45.27l-.61-.47a2.52,2.52,0,0,1,.4.4l-.47-.6a2.17,2.17,0,0,1,.33.57l-.3-.72a3.2,3.2,0,0,1,.19.69l-.11-.8a2.43,2.43,0,0,1,0,.66l.11-.8a2.64,2.64,0,0,1-.15.55l.3-.72a2.75,2.75,0,0,1-.24.41l.47-.6a2.73,2.73,0,0,1-.35.33l.61-.46a2.38,2.38,0,0,1-.44.25l.71-.3a2.74,2.74,0,0,1-.58.15l.8-.11a2.83,2.83,0,0,1-.65,0l.8.11a3,3,0,0,1-.72-.2l.72.3a2.7,2.7,0,0,1-.52-.3l.61.47a2.46,2.46,0,0,1-.4-.39l.47.61a2.75,2.75,0,0,1-.24-.41l.31.72a1.94,1.94,0,0,1-.14-.51l.1.79a2.1,2.1,0,0,1,0-.5l-.11.8a2.38,2.38,0,0,1,.16-.58l-.3.72a2.66,2.66,0,0,1,.33-.57l-.47.6a3.48,3.48,0,0,1,.47-.47l-.61.47a2.77,2.77,0,0,1,.57-.34l-.72.31a2.46,2.46,0,0,1,.53-.15l-.8.11a2.18,2.18,0,0,1,.51,0l-.8-.1.15,0a2.23,2.23,0,0,0,1.2,0,2.11,2.11,0,0,0,1.11-.35,2.42,2.42,0,0,0,.85-.77,2.27,2.27,0,0,0,.53-1,3,3,0,0,0-.3-2.32,3,3,0,0,0-1.79-1.37,5.67,5.67,0,0,0-1.15-.15,6.13,6.13,0,0,0-1.15.13,2.79,2.79,0,0,0-.39.1,8,8,0,0,0-1,.45,4,4,0,0,0-.34.23,7.67,7.67,0,0,0-.89.73,5.52,5.52,0,0,0-.91,1.23,7.09,7.09,0,0,0-.43,1,1.89,1.89,0,0,0-.1.41,5.41,5.41,0,0,0,0,2.3,3.61,3.61,0,0,0,.26.69,3.66,3.66,0,0,0,.32.66,4.88,4.88,0,0,0,.9,1.08,5.66,5.66,0,0,0,1.16.79,5.46,5.46,0,0,0,1.35.49,6.42,6.42,0,0,0,1.45.13,5.36,5.36,0,0,0,1.42-.25,8.7,8.7,0,0,0,1-.43,6.75,6.75,0,0,0,.85-.64,1.42,1.42,0,0,0,.25-.24,6.06,6.06,0,0,0,.65-.86,4.36,4.36,0,0,0,.55-1.34,5.86,5.86,0,0,0,.15-1.45,5.62,5.62,0,0,0-.93-2.91,6.35,6.35,0,0,0-.7-.87,8.44,8.44,0,0,0-.88-.7,4,4,0,0,0-1.41-.6,3.15,3.15,0,0,0-2.31.3,2.33,2.33,0,0,0-.85.77,2.27,2.27,0,0,0-.53,1,3,3,0,0,0,2.09,3.69Z" fill="#d8d0ad"/><path d="M595.55,1163.05q.83,42.67.59,85.37-.24,42.45-1.53,84.87-.74,24-1.79,47.89a3,3,0,0,0,6,0q1.89-42.65,2.72-85.33.83-42.43.6-84.87-.12-24-.59-47.93c-.08-3.86-6.08-3.87-6,0Z" fill="#d8d0ad"/><path d="M595.51,1351.91a11,11,0,0,0-1.63,4.89,5.81,5.81,0,0,0,2,4.52,5.15,5.15,0,0,0,3.18,1.26,4.5,4.5,0,0,0,2.4-.64,5.16,5.16,0,0,0,2.37-3.46,6.36,6.36,0,0,0-.67-4.38,6.82,6.82,0,0,0-4-2.86,13.08,13.08,0,0,0-4.09-.39,7.23,7.23,0,0,0-4.36,1.26,4,4,0,0,0,.29,6.66,5.46,5.46,0,0,0,5.42,0,3,3,0,0,0,1.08-4.1,3.07,3.07,0,0,0-4.11-1.08l-.24.12.72-.3a3.47,3.47,0,0,1-.72.19l.8-.11a3.53,3.53,0,0,1-.65,0l.8.11a2.93,2.93,0,0,1-.51-.13l.72.31a1.9,1.9,0,0,1-.34-.2l.6.47-.16-.16.47.6a1.22,1.22,0,0,1-.12-.19l.3.72a1.57,1.57,0,0,1-.08-.31l.11.8a1.31,1.31,0,0,1,0-.28l-.11.8a1.82,1.82,0,0,1,.07-.25l-.3.72.13-.23-.47.61a1.88,1.88,0,0,1,.24-.25l-.61.47a2.5,2.5,0,0,1,.5-.29l-.72.31a3.79,3.79,0,0,1,1-.27l-.8.11a12.88,12.88,0,0,1,3.34,0l-.8-.1a6.9,6.9,0,0,1,1.62.42l-.72-.3a4.65,4.65,0,0,1,.91.54l-.61-.47a2.9,2.9,0,0,1,.5.49l-.47-.61a2.59,2.59,0,0,1,.34.58l-.3-.71a3.11,3.11,0,0,1,.2.74l-.11-.8a3.7,3.7,0,0,1,0,.94l.11-.8a3.47,3.47,0,0,1-.19.72l.3-.72a2.29,2.29,0,0,1-.31.55l.47-.61a1.57,1.57,0,0,1-.31.32l.61-.46a2.08,2.08,0,0,1-.38.22l.71-.3a2.47,2.47,0,0,1-.36.11l.79-.11a2.35,2.35,0,0,1-.53,0l.79.11-.4-.11.72.3a2.85,2.85,0,0,1-.45-.25l.61.46a2.67,2.67,0,0,1-.45-.44l.47.61a3.3,3.3,0,0,1-.39-.65l.3.71a3.49,3.49,0,0,1-.23-.84l.11.8a4.31,4.31,0,0,1,0-.88l-.1.8a6.11,6.11,0,0,1,.42-1.46l-.3.72c.23-.52.49-1,.76-1.51a3,3,0,1,0-5.18-3Z" fill="#d8d0ad"/><path d="M392.73,1339.63s24.22-15.71,13.5-23.85S387.21,1323.55,392.73,1339.63Z" fill="none" stroke="#262521" stroke-linecap="round" stroke-linejoin="round" stroke-width="2"/><rect x="378.37" y="1338.23" width="26.44" height="8.13" transform="translate(145.27 2718.68) rotate(-153.59)" stroke-width="2" stroke="#262521" stroke-linecap="round" stroke-linejoin="round" fill="#262521"/><path d="M830.92,1314.83S807.71,1299.77,818,1292,836.2,1299.42,830.92,1314.83Z" fill="none" stroke="#262521" stroke-linecap="round" stroke-linejoin="round" stroke-width="2"/><path d="M825.51,1281s62.85,8.83,71-2.64-13.76-154-19.33-235.31c-3.84-55.87-37.47-431.58-75.77-456.57-5.77-3.77-47.15-19.92-84.79-34.27,2.94-5.09-24.37-36-77.64-50.88,0,0,.06,10.92,2.25,18.14a15.53,15.53,0,0,0,9.91,10.17s-45.53,42.09-73.49,42.09-78.34-28.81-82.46-41c-.15-.43,5.89-2.23,10.45-5.84s3.75-19.32,3.75-19.32c-9.76.89-54.35,23.63-61.16,28.37-9.13,6.35-25.57,26.91-20.95,35.37.16,0-62.91,39.09-83.41,51.44-44.73,27-35.8,384-30.27,452.4s-5.57,233.25,9.09,244.21,74.54-3.1,74.54-3.1l2.48-260.54-2.22,269.79s99.07-3.36,176.06-4.28c137.53-1.66,252.94-19.29,252.94-19.29l-24.87-233.29" fill="#e8d9cf" stroke="#262521" stroke-linecap="round" stroke-linejoin="round" stroke-width="3"/><path d="M434.89,571.67c41.38,4.3,132,65.71,146.31,65.48,8.12-.13,95.41-69.71,130.48-81.17" fill="none" stroke="#636363" stroke-linecap="round" stroke-linejoin="round" stroke-width="1.34" opacity="0.95"/><line x1="577.69" y1="578.8" x2="581.3" y2="626.85" fill="none" stroke="#636363" stroke-linecap="round" stroke-linejoin="round" opacity="0.5"/><path d="M801.66,1066.64c-1.22-47.58-19.86-282.57-19.86-282.57" fill="none" stroke="#262521" stroke-linecap="round" stroke-linejoin="round" stroke-width="3"/><path d="M399.75,807.59s1.52,207.09,0,246.12" fill="none" stroke="#262521" stroke-linecap="round" stroke-linejoin="round" stroke-width="3"/><path d="M406.12,1307.22s302.58,3.81,411.36-23.38" fill="none" stroke="#636363" stroke-linecap="round" stroke-linejoin="round" opacity="0.5"/><rect x="819.34" y="1313.49" width="25.33" height="7.79" transform="translate(-499.13 507.56) rotate(-26.41)" stroke-width="2" stroke="#262521" stroke-linecap="round" stroke-linejoin="round" fill="#262521"/><g opacity="0.3"><path d="M823.73,928.41c-.14-8.51-12.34-9.07-16.05-15.74-2.84-3.8-4.12-9-8.11-11.54-2.31-1.49-5.09-1.81-7.85-2.21.48,5.09,7.72,85.87,8.63,98a56.71,56.71,0,0,1,3.73-4.4c18.11-7.67,18-13.55,13.81-31.65C817,949.84,823.75,939.45,823.73,928.41Z" fill="#262521"/><path d="M826,928.41c-.2-6.32-5.55-9.22-10.43-12-2.14-1.21-4.45-2.54-5.66-4.46-.93-1.46-1.87-2.9-2.69-4.43a38.9,38.9,0,0,0-2.71-4.63,13.15,13.15,0,0,0-4.91-4.34,24.59,24.59,0,0,0-7.26-1.82c-1.3-.19-3,.55-2.85,2.17,1,10.64,1.92,21.3,2.87,32q2.22,24.81,4.38,49.63c.48,5.46,1,10.93,1.38,16.39.13,1.72,2.52,3.26,3.84,1.59.56-.7,1.12-1.41,1.7-2.11a10.3,10.3,0,0,1,1.74-2,30.94,30.94,0,0,1,4-1.87,37.72,37.72,0,0,0,5.9-3.5,16.73,16.73,0,0,0,6.51-8.78c1.07-3.84.59-7.94-.06-11.81-.42-2.51-1-5-1.55-7.49-.66-3,.11-6.57.78-9.52,1.75-7.67,4.93-15,5-23,0-2.89-4.48-2.9-4.5,0,0,6.75-2.56,13.1-4.26,19.54a46,46,0,0,0-1.64,9.94c-.11,3.05.7,5.85,1.3,8.81a52.1,52.1,0,0,1,1,6c.08.86.12,1.72.12,2.59,0,.44,0,.88-.05,1.32q0,.32-.06.63c0,.27,0,.28,0,0,0,.13,0,.27-.07.4a13.89,13.89,0,0,1-.54,2.11c-.06.19-.13.37-.2.55.19-.48-.06.11-.09.17a10.26,10.26,0,0,1-.56,1,9.68,9.68,0,0,1-.67,1c.23-.3-.39.45-.5.58a17,17,0,0,1-2.06,1.92,37,37,0,0,1-6,3.59c-1.35.67-2.91,1.14-4.2,1.91a10.32,10.32,0,0,0-2.21,2.31c-.68.8-1.33,1.63-2,2.45l3.84,1.59c-.93-12.32-2.09-24.63-3.18-36.95q-2.13-24.12-4.29-48.23c-.39-4.27-.76-8.53-1.16-12.79l-2.85,2.17c3.61.52,7.15,1,9.48,4.09,2,2.66,3.31,5.84,5.14,8.63a17.74,17.74,0,0,0,5.65,5.39c2.15,1.35,4.46,2.43,6.56,3.86a10.73,10.73,0,0,1,2.47,2.22,5.16,5.16,0,0,1,1.06,3.13C821.58,931.3,826.08,931.31,826,928.41Z" fill="#262521"/></g><path d="M824.11,940.21c.2-4.37,1.8-9.91-1.9-12.23-7.23-1.44-8.2-8.61-11.39-14.58-4.29-5.2-12.85-10.34-20.45-10.7.36,5.67,7.21,77.72,7.7,88.9,4.48-.55,8.66-1.58,11.29-5.66C820.81,972.62,828.09,957.29,824.11,940.21Z" fill="#262521"/><path d="M824.86,940.21c.18-3.36,1.26-7.18-.14-10.4a5.4,5.4,0,0,0-1.25-1.8,5.26,5.26,0,0,0-2.38-1.1,9,9,0,0,1-4.06-2.85c-2.25-2.72-3.29-6.27-4.76-9.42-1.64-3.5-5.1-6-8.31-8A29.19,29.19,0,0,0,790.37,902a.76.76,0,0,0-.75.75c.64,9.83,1.74,19.65,2.63,29.47,1.36,14.86,2.72,29.73,4,44.61.41,4.93.88,9.88,1.1,14.82,0,.37.33.81.75.75,3.65-.46,7.41-1.25,10.17-3.87a47,47,0,0,0,4.07-4.94c1.38-1.74,2.7-3.52,3.94-5.35,4.78-7.07,8.37-15,9.41-23.55a42.61,42.61,0,0,0-.82-14.63c-.22-.94-1.66-.54-1.45.4a42.25,42.25,0,0,1-1.59,23.87,57.73,57.73,0,0,1-5.39,10.92c-2.27,3.63-5,6.82-7.58,10.21a11.8,11.8,0,0,1-4.64,4,21.89,21.89,0,0,1-6.12,1.47l.75.75c-.49-11.15-1.73-22.29-2.72-33.4-1.29-14.51-2.63-29-3.94-43.52-.36-4-.78-8-1-12l-.75.75a27.18,27.18,0,0,1,12,3.93c3.15,1.84,6.88,4.34,8.49,7.72,1.4,2.93,2.4,6.1,4.23,8.81a11.91,11.91,0,0,0,3,3.12,9.41,9.41,0,0,0,1.87,1,9.25,9.25,0,0,1,2.51,1c1.41,1.19,1.51,3.38,1.46,5.08-.06,2-.4,4-.51,6.06C823.31,941.17,824.82,941.17,824.86,940.21Z" fill="#262521"/><g opacity="0.3"><path d="M482.07,687.18c-13.91-4.93-20.16,5.74-31.69,10.18-4.79,1.4-11.67,2.32-12.91,8.08,4,22.55-10.39,11-.36,37.22-6.86,18.27,8.85,33.89,27,33.19,7.39,1.72,13.58,7.48,21.16,8.52,6.24.47,10-5.28,14.4-8.6,15.79-4.07,16.44-8.91,15.2-24.27.65-9.13,7.43-16.83,8.77-25.88.92-7-9-9-11.24-14.88-1.87-3.46-2.29-7.86-5.24-10.46-2.59-2.28-6.38-2.48-9.49-4-5.12-2.5-8.54-8.63-14.23-9" fill="#262521"/><path d="M482.67,685a21.38,21.38,0,0,0-12.06-.8,32.17,32.17,0,0,0-9.61,4.52,87.94,87.94,0,0,1-9.54,5.73c-3.18,1.52-6.77,1.89-10,3.36a11.71,11.71,0,0,0-4.19,3.07,9.59,9.59,0,0,0-1.38,2.22,5.87,5.87,0,0,0-.47,3.67,36.66,36.66,0,0,1,.51,5c0,.66,0,1.31,0,2l-.06.88c0,.13,0,.27-.05.41-.05.5.07-.33,0,.19a17,17,0,0,1-.71,2.7c0,.11-.09.23-.14.34s.22-.48.06-.14l-.24.51q-.25.51-.54,1a31.3,31.3,0,0,0-2.2,4.17,14.05,14.05,0,0,0-.62,6.72,55.18,55.18,0,0,0,3.56,12.72v-1.19a25.5,25.5,0,0,0,1.54,21.51,29.42,29.42,0,0,0,16.76,13.07,32.58,32.58,0,0,0,5.69,1.22c.86.11,1.71.19,2.57.23a15.11,15.11,0,0,1,2.78.12c4.1,1,7.78,3.44,11.52,5.27s8.19,3.77,12.52,2.92c3.86-.75,6.87-3.57,9.65-6.17.63-.58,1.25-1.16,1.89-1.72a3.74,3.74,0,0,1,2.14-1,46,46,0,0,0,4.81-1.61,19.45,19.45,0,0,0,6.83-4.21c3.67-3.79,4-9.18,3.87-14.18-.06-1.71-.18-3.41-.32-5.11a16,16,0,0,1,1-6c1.31-4.11,3.4-7.91,5.07-11.87,1.48-3.51,3.38-7.94,2.41-11.81-.76-3-3.2-5.14-5.56-7-1.21-.95-2.44-1.84-3.57-2.92a9.76,9.76,0,0,1-2.22-3.15c-1.7-3.64-2.44-8.13-5.59-10.91s-7.6-2.83-11.12-5c-3.19-2-5.56-5-8.8-6.93a12.42,12.42,0,0,0-5.39-1.71,2.25,2.25,0,0,0,0,4.5,9.69,9.69,0,0,1,5.09,2.48c1.84,1.5,3.53,3.16,5.43,4.58a21.29,21.29,0,0,0,6.75,3.16c2.13.64,4.43,1.25,5.82,3.13s1.93,4.27,2.77,6.41a18.84,18.84,0,0,0,3.15,5.66c2.31,2.65,5.93,4.38,7.94,7a4.4,4.4,0,0,1,.91,4,34.91,34.91,0,0,1-2.33,7.19c-2.13,4.9-4.84,9.68-5.9,15-.83,4.16.09,8.39-.06,12.6,0,.74-.08,1.49-.17,2.22,0-.37-.09.56-.12.68-.06.34-.14.68-.22,1s-.18.63-.29.94c-.05.15-.11.3-.17.45-.13.35.23-.47,0,.08a11.27,11.27,0,0,1-.94,1.61c-.34.49.19-.22-.05.07l-.31.36a8.84,8.84,0,0,1-.68.69,6.85,6.85,0,0,1-1.36,1,20.59,20.59,0,0,1-4.26,2.06c-.87.32-1.76.6-2.65.87a10.8,10.8,0,0,0-3.71,1.35c-1.78,1.38-3.36,3-5.05,4.48a13.31,13.31,0,0,1-5.24,3.24c-2.29.61-4.66-.21-6.8-1-5-1.89-9.31-5-14.37-6.68a10.62,10.62,0,0,0-3.53-.58,29.34,29.34,0,0,1-3.63-.21,28,28,0,0,1-6.11-1.49,25.53,25.53,0,0,1-10.19-6.8A21.13,21.13,0,0,1,438,754.66a19.87,19.87,0,0,1-.09-6.11,23.6,23.6,0,0,1,.7-3.19c.15-.53.32-1.05.5-1.58a3.3,3.3,0,0,0-.13-2.58,71.1,71.1,0,0,1-2.34-7.2c-.22-.83-.41-1.66-.57-2.5-.07-.41-.15-.82-.2-1.23,0,.38,0-.1,0-.19,0-.24-.05-.49-.06-.74a13.62,13.62,0,0,1,0-1.69c0-.28,0-.56.07-.83-.08.67,0-.21.08-.38a12.87,12.87,0,0,1,.37-1.25l.09-.25c.17-.44-.23.49,0,.07l.27-.56c.87-1.68,1.94-3.2,2.65-5a19.53,19.53,0,0,0,1.15-8.09,51.39,51.39,0,0,0-.77-6.54V706c.65-2.75,3-4,5.55-4.88,1.45-.49,2.93-.86,4.41-1.25a25.45,25.45,0,0,0,4.75-1.86c5.54-2.76,10.31-7.34,16.29-9.18a17,17,0,0,1,10.83.48c2.75.95,3.93-3.4,1.2-4.34Z" fill="#262521"/></g><path d="M481.58,692.41c-5.91-6.37-15.71,1.62-23.31-.08-8.91,4.15-15.82,14.38-21,22.51-.9,3.82,1.78,7.76,1.13,11.63-7,10.85-3.38,19.85,2.7,31,3.43,13.88,18.41,22.17,31.76,23.67,8.06-2.31,18.05,2.52,24.14-4.42,13.29-11.49,22.76-25.57,21.35-43.05.83-4.29,3.24-9.54-.08-12.38-6.94-2.49-6.84-9.73-9.12-16.1-4.54-7.56-16.33-16.1-25.35-13.44" fill="#262521"/><path d="M482.11,691.88c-3-3.13-7.13-3-11.1-2.14-2.15.48-4.27,1.14-6.43,1.6a19.4,19.4,0,0,1-3.21.46c-1,.06-2.09-.26-3.1-.22s-2.15,1-2.93,1.48a32.4,32.4,0,0,0-2.88,2,44.4,44.4,0,0,0-5.59,5.29,98.22,98.22,0,0,0-8.91,12,7.65,7.65,0,0,0-1.58,3.09,11.19,11.19,0,0,0,.2,3.6c.24,1.28.62,2.54.87,3.82a12.57,12.57,0,0,1,.27,2,5.18,5.18,0,0,1-1,2.86,22,22,0,0,0-2.62,14.52,33.62,33.62,0,0,0,2.29,7.47q.81,1.92,1.74,3.78a37.87,37.87,0,0,1,2.28,4.49,34.49,34.49,0,0,0,2.53,6.17,28.94,28.94,0,0,0,3.68,5.06c6,6.66,14.77,10.78,23.53,12.28a10.33,10.33,0,0,0,2.86.35c1.17-.14,2.3-.5,3.5-.59a63.24,63.24,0,0,1,7,.08c4.24.17,8.8.14,12.32-2.58.9-.7,1.67-1.55,2.53-2.31s2-1.77,2.91-2.68c1.86-1.8,3.65-3.67,5.33-5.65A57.52,57.52,0,0,0,514.73,756a43.6,43.6,0,0,0,4.12-13.52,42.48,42.48,0,0,0,.3-7.65c-.13-2.44.94-4.79,1.33-7.19.32-1.93.4-4.07-.72-5.78a5.1,5.1,0,0,0-2.42-1.79,8.54,8.54,0,0,1-2.55-2c-2.84-3.13-3.28-7.84-4.48-11.73-1.25-4.07-5-7.49-8.3-10a27,27,0,0,0-12.41-5.71,14.79,14.79,0,0,0-6,.35.75.75,0,0,0,.4,1.45c4.25-1.19,8.71.1,12.5,2.1a33,33,0,0,1,10.31,8.55,12.19,12.19,0,0,1,1.73,2.59,22.33,22.33,0,0,1,.9,3c.51,1.92,1,3.86,1.64,5.73a14.16,14.16,0,0,0,2.58,4.63,9.82,9.82,0,0,0,1.84,1.63c.83.58,2,.84,2.72,1.57,1.55,1.66,1,4.42.56,6.4-.23,1-.51,2-.76,3a11.29,11.29,0,0,0-.32,3.52,40.91,40.91,0,0,1-1.8,13.9c-2.81,9-8.63,16.78-15.34,23.29-1.67,1.62-3.37,3.25-5.11,4.77a11.24,11.24,0,0,1-5.83,2.5c-4.27.62-8.6-.23-12.89,0a20.84,20.84,0,0,0-2.92.38,8.51,8.51,0,0,1-3.37-.1,44.39,44.39,0,0,1-6.11-1.53,41.74,41.74,0,0,1-11.4-5.71,30.09,30.09,0,0,1-8.65-9.39,25.36,25.36,0,0,1-1.4-2.87c-.43-1.07-.65-2.21-1.06-3.27a32.39,32.39,0,0,0-1.73-3.3c-.64-1.26-1.27-2.52-1.84-3.81-2.06-4.61-3.55-9.68-2.69-14.76a22,22,0,0,1,2.85-7.51,4.8,4.8,0,0,0,.82-3.21,19.41,19.41,0,0,0-.62-3.63,23.67,23.67,0,0,1-.75-3.82,5.36,5.36,0,0,1,1.13-3.67c1.27-2,2.58-3.9,4-5.81a58.52,58.52,0,0,1,9.73-10.88,31.18,31.18,0,0,1,2.84-2.11,9.31,9.31,0,0,1,2.87-1.62,17.92,17.92,0,0,1,2.39.2,18.94,18.94,0,0,0,3.09-.32c4-.69,8-2.5,12.09-2.35a7.27,7.27,0,0,1,5.13,2.28c.67.7,1.73-.36,1.06-1.06Z" fill="#262521"/><g opacity="0.3"><path d="M688.41,676.24c-13.92-4.94-20.17,5.74-31.69,10.18-4.79,1.4-11.67,2.32-12.92,8.08,4,22.54-10.39,11-.35,37.21-6.87,18.28,8.84,33.9,27,33.2,7.39,1.72,13.58,7.48,21.16,8.52,6.23.47,10-5.28,14.4-8.61,15.79-4.07,16.44-8.9,15.19-24.26.65-9.13,7.43-16.83,8.77-25.89.93-7-9-8.95-11.23-14.87-1.87-3.47-2.29-7.86-5.24-10.46-2.6-2.28-6.39-2.48-9.49-4-5.12-2.5-8.55-8.63-14.23-9" fill="#262521"/><path d="M689,674.07a21.48,21.48,0,0,0-12.06-.81,32.19,32.19,0,0,0-9.61,4.53,89.57,89.57,0,0,1-9.54,5.73c-3.19,1.51-6.78,1.89-10,3.36a11.71,11.71,0,0,0-4.19,3.07,9.21,9.21,0,0,0-1.38,2.21,5.84,5.84,0,0,0-.47,3.68,36.65,36.65,0,0,1,.5,5c0,.65,0,1.31,0,2,0,.3,0,.59-.07.88,0,.14,0,.28,0,.42-.06.5.07-.34,0,.19a16.65,16.65,0,0,1-.71,2.69c0,.12-.09.23-.14.35,0-.05.22-.49.06-.14l-.24.51q-.26.49-.54,1a29.51,29.51,0,0,0-2.2,4.16,14.07,14.07,0,0,0-.62,6.72,54.77,54.77,0,0,0,3.56,12.73v-1.2a25.48,25.48,0,0,0,1.54,21.52,29.44,29.44,0,0,0,16.75,13.07,32.69,32.69,0,0,0,5.7,1.22c.85.11,1.71.19,2.57.23a15.15,15.15,0,0,1,2.78.12c4.1,1,7.78,3.44,11.52,5.27s8.18,3.77,12.51,2.92c3.87-.75,6.88-3.58,9.66-6.17.62-.58,1.25-1.17,1.89-1.73a3.7,3.7,0,0,1,2.13-1,47.61,47.61,0,0,0,4.81-1.61,19.49,19.49,0,0,0,6.84-4.21c3.67-3.79,4-9.19,3.86-14.19-.06-1.7-.18-3.41-.31-5.11a16,16,0,0,1,1-6c1.31-4.11,3.4-7.91,5.07-11.87,1.48-3.51,3.37-7.94,2.4-11.81-.75-3-3.2-5.15-5.55-7a42.79,42.79,0,0,1-3.57-2.91,9.76,9.76,0,0,1-2.22-3.15c-1.71-3.65-2.45-8.13-5.59-10.91s-7.6-2.83-11.12-5c-3.19-2-5.57-5-8.8-6.93a12.46,12.46,0,0,0-5.39-1.71,2.26,2.26,0,0,0-2.25,2.25,2.29,2.29,0,0,0,2.25,2.25,9.66,9.66,0,0,1,5.08,2.48c1.84,1.49,3.53,3.16,5.44,4.58a21.29,21.29,0,0,0,6.75,3.16c2.13.64,4.43,1.25,5.82,3.13s1.92,4.26,2.77,6.41a19.16,19.16,0,0,0,3.14,5.66c2.32,2.64,5.94,4.38,8,7a4.39,4.39,0,0,1,.91,4,34.91,34.91,0,0,1-2.33,7.19c-2.13,4.91-4.85,9.69-5.9,15-.83,4.17.09,8.39-.07,12.61,0,.74-.07,1.48-.16,2.22,0-.37-.1.55-.12.68-.07.34-.14.67-.23,1s-.17.64-.28.95c0,.15-.11.3-.17.45-.14.35.23-.47,0,.07a12.42,12.42,0,0,1-.94,1.62c-.35.49.19-.22,0,.06-.1.12-.2.25-.31.36s-.45.47-.68.69A6.87,6.87,0,0,1,715,759a21.06,21.06,0,0,1-4.26,2c-.88.32-1.76.61-2.65.88a11,11,0,0,0-3.72,1.34c-1.78,1.39-3.36,3-5,4.49a13.24,13.24,0,0,1-5.24,3.23c-2.29.61-4.67-.2-6.81-1-4.94-1.89-9.3-5-14.36-6.68a10.91,10.91,0,0,0-3.54-.59,27.36,27.36,0,0,1-3.62-.2,28,28,0,0,1-6.11-1.49,25.63,25.63,0,0,1-10.2-6.8,21.2,21.2,0,0,1-5.15-10.47,19.57,19.57,0,0,1-.09-6.11,21.85,21.85,0,0,1,.69-3.19c.15-.53.32-1.06.51-1.58a3.37,3.37,0,0,0-.14-2.59,72.59,72.59,0,0,1-2.33-7.19c-.22-.83-.41-1.67-.57-2.51-.08-.4-.15-.81-.2-1.22,0,.37,0-.1,0-.19,0-.25,0-.49-.06-.74a13.78,13.78,0,0,1,0-1.7c0-.27,0-.55.06-.83-.07.68.05-.2.09-.37a9.53,9.53,0,0,1,.37-1.26,2.34,2.34,0,0,1,.09-.24c.16-.45-.24.49,0,.07.1-.19.18-.38.28-.57.87-1.68,1.94-3.2,2.65-5a19.69,19.69,0,0,0,1.15-8.09,49.61,49.61,0,0,0-.78-6.55v1.2c.66-2.75,3-4,5.56-4.88,1.45-.49,2.93-.86,4.41-1.25a25.35,25.35,0,0,0,4.74-1.86c5.55-2.76,10.32-7.34,16.29-9.19a17.06,17.06,0,0,1,10.84.49c2.74.94,3.92-3.4,1.2-4.34Z" fill="#262521"/></g><path d="M687.92,681.47c-5.91-6.38-15.72,1.62-23.31-.08-8.91,4.14-15.82,14.38-21,22.5-.9,3.83,1.79,7.76,1.14,11.64-7,10.85-3.38,19.85,2.7,31,3.43,13.88,18.41,22.18,31.75,23.68,8.07-2.32,18.06,2.51,24.14-4.43,13.3-11.48,22.77-25.56,21.35-43,.84-4.28,3.25-9.53-.07-12.37-7-2.49-6.85-9.73-9.12-16.1-4.54-7.56-16.34-16.1-25.35-13.45" fill="#262521"/><path d="M688.45,680.94c-3-3.13-7.14-3-11.1-2.14-2.16.48-4.27,1.14-6.43,1.6a21.77,21.77,0,0,1-3.21.46c-1.05.06-2.09-.26-3.1-.22s-2.15,1-2.93,1.48a32,32,0,0,0-2.89,2,44.28,44.28,0,0,0-5.58,5.29,97.09,97.09,0,0,0-8.91,11.95,7.77,7.77,0,0,0-1.59,3.1,11.4,11.4,0,0,0,.2,3.59c.25,1.29.62,2.55.88,3.83a12.28,12.28,0,0,1,.26,2,5.11,5.11,0,0,1-1,2.87,22.06,22.06,0,0,0-2.62,14.51,33.05,33.05,0,0,0,2.3,7.48c.53,1.28,1.12,2.53,1.74,3.78a37.12,37.12,0,0,1,2.28,4.49,34.06,34.06,0,0,0,2.52,6.16,29.08,29.08,0,0,0,3.68,5.06c6,6.66,14.78,10.78,23.54,12.29a10.65,10.65,0,0,0,2.85.35c1.18-.14,2.31-.51,3.51-.59a63.06,63.06,0,0,1,7,.08c4.25.17,8.8.14,12.32-2.58.91-.7,1.68-1.56,2.53-2.31s2-1.77,2.91-2.69a76.88,76.88,0,0,0,5.34-5.64,58.29,58.29,0,0,0,8.09-12.11,44,44,0,0,0,4.12-13.52,41.65,41.65,0,0,0,.29-7.65c-.13-2.44.94-4.79,1.34-7.19.31-1.94.39-4.07-.73-5.78a4.9,4.9,0,0,0-2.41-1.79,8.71,8.71,0,0,1-2.56-1.95c-2.83-3.14-3.28-7.84-4.47-11.73-1.25-4.08-5-7.49-8.3-10a26.86,26.86,0,0,0-12.41-5.71,14.77,14.77,0,0,0-6,.35.75.75,0,0,0,.4,1.45c4.24-1.19,8.71.09,12.49,2.09a32.8,32.8,0,0,1,10.32,8.56,12.39,12.39,0,0,1,1.73,2.58,24,24,0,0,1,.9,3c.51,1.91,1,3.86,1.63,5.73a14.45,14.45,0,0,0,2.58,4.63,10.25,10.25,0,0,0,1.85,1.63c.83.58,2,.83,2.71,1.56,1.55,1.67,1,4.42.57,6.4-.23,1-.51,2-.76,3a11.57,11.57,0,0,0-.33,3.51,40.69,40.69,0,0,1-1.8,13.91c-2.81,9-8.62,16.77-15.33,23.29-1.67,1.62-3.37,3.24-5.12,4.77a11.17,11.17,0,0,1-5.83,2.5c-4.26.61-8.59-.23-12.88,0a22,22,0,0,0-2.92.37,8.38,8.38,0,0,1-3.38-.09,46.12,46.12,0,0,1-6.1-1.53,41.74,41.74,0,0,1-11.4-5.71,30,30,0,0,1-8.65-9.39,24.52,24.52,0,0,1-1.4-2.87c-.43-1.07-.65-2.21-1.06-3.28A35.59,35.59,0,0,0,646.4,743c-.65-1.26-1.27-2.53-1.85-3.82-2-4.6-3.54-9.68-2.68-14.75a22.16,22.16,0,0,1,2.85-7.52,4.84,4.84,0,0,0,.82-3.21,21.08,21.08,0,0,0-.62-3.62,23.69,23.69,0,0,1-.76-3.82,5.36,5.36,0,0,1,1.13-3.67c1.28-2,2.58-3.91,4-5.81A57.89,57.89,0,0,1,659,685.92a30.84,30.84,0,0,1,2.85-2.11,9.33,9.33,0,0,1,2.87-1.63,21.83,21.83,0,0,1,2.38.2,20.1,20.1,0,0,0,3.1-.31c4-.69,8-2.5,12.09-2.35a7.25,7.25,0,0,1,5.13,2.28c.67.7,1.73-.36,1.06-1.06Z" fill="#262521"/><g opacity="0.3"><path d="M500.38,917.88c-13.91-4.93-20.16,5.75-31.69,10.19-4.79,1.4-11.67,2.32-12.91,8.08,4,22.54-10.39,11-.36,37.21-6.86,18.27,8.85,33.9,27,33.2,7.39,1.71,13.59,7.48,21.16,8.52,6.24.47,10-5.28,14.4-8.61,15.79-4.07,16.44-8.9,15.2-24.26.65-9.13,7.43-16.83,8.77-25.89.92-7-9-9-11.24-14.88-1.87-3.46-2.28-7.85-5.24-10.45-2.59-2.29-6.38-2.48-9.49-4-5.12-2.5-8.54-8.63-14.23-9" fill="#262521"/><path d="M501,915.71a21.56,21.56,0,0,0-12.06-.8,32,32,0,0,0-9.61,4.53,88.58,88.58,0,0,1-9.54,5.73c-3.18,1.51-6.77,1.89-10,3.36a11.59,11.59,0,0,0-4.19,3.07,9.53,9.53,0,0,0-1.38,2.21,6,6,0,0,0-.47,3.68,36.5,36.5,0,0,1,.51,5c0,.65,0,1.31,0,2,0,.3,0,.59-.06.88,0,.14,0,.28-.05.42-.05.5.07-.34,0,.18a16.52,16.52,0,0,1-.72,2.7c0,.12-.09.23-.13.35,0,0,.21-.49.05-.14l-.24.5c-.17.34-.35.67-.53,1a29.56,29.56,0,0,0-2.21,4.16,13.94,13.94,0,0,0-.61,6.72A54.74,54.74,0,0,0,453.25,974v-1.2a25.52,25.52,0,0,0,1.54,21.52,29.46,29.46,0,0,0,16.76,13.07,32.58,32.58,0,0,0,5.69,1.22c.86.11,1.71.19,2.57.23a15.11,15.11,0,0,1,2.78.12c4.1,1,7.78,3.43,11.52,5.27s8.19,3.76,12.52,2.92c3.87-.75,6.87-3.58,9.65-6.17.63-.59,1.25-1.17,1.89-1.73a3.73,3.73,0,0,1,2.14-1,48.46,48.46,0,0,0,4.81-1.61,19.45,19.45,0,0,0,6.83-4.21c3.67-3.79,4-9.19,3.87-14.19-.06-1.7-.18-3.41-.32-5.11a16.27,16.27,0,0,1,1-6c1.31-4.1,3.4-7.9,5.07-11.86,1.48-3.51,3.38-7.94,2.41-11.81-.76-3-3.2-5.15-5.56-7-1.21-.94-2.44-1.84-3.57-2.91a9.76,9.76,0,0,1-2.22-3.15c-1.7-3.65-2.44-8.13-5.59-10.91s-7.6-2.83-11.12-5c-3.19-2-5.56-5-8.8-6.93a12.4,12.4,0,0,0-5.39-1.7,2.27,2.27,0,0,0-2.25,2.25,2.29,2.29,0,0,0,2.25,2.25,9.62,9.62,0,0,1,5.09,2.48c1.84,1.49,3.53,3.16,5.43,4.58a21,21,0,0,0,6.75,3.15c2.13.65,4.43,1.26,5.83,3.14s1.92,4.26,2.77,6.4a18.69,18.69,0,0,0,3.14,5.66c2.31,2.65,5.93,4.39,7.94,7a4.38,4.38,0,0,1,.91,4,34.91,34.91,0,0,1-2.33,7.19c-2.13,4.91-4.84,9.69-5.9,15-.83,4.16.09,8.39-.06,12.61,0,.74-.08,1.48-.17,2.22.05-.38-.09.55-.12.68-.06.34-.14.67-.22,1s-.18.64-.29,1c0,.15-.11.3-.17.45-.13.35.23-.48,0,.07a11.38,11.38,0,0,1-.94,1.62c-.34.49.19-.22,0,.06l-.31.36a8.84,8.84,0,0,1-.68.69,6.87,6.87,0,0,1-1.36,1,21.06,21.06,0,0,1-4.26,2c-.87.32-1.76.61-2.65.88a11,11,0,0,0-3.71,1.34c-1.78,1.39-3.36,3-5.05,4.49a13.4,13.4,0,0,1-5.24,3.23c-2.29.61-4.66-.21-6.8-1-4.95-1.9-9.31-5-14.37-6.68a10.9,10.9,0,0,0-3.53-.59,29.34,29.34,0,0,1-3.63-.2,28,28,0,0,1-6.11-1.49,25.53,25.53,0,0,1-10.19-6.8,21.13,21.13,0,0,1-5.16-10.47,19.87,19.87,0,0,1-.09-6.11,23,23,0,0,1,.7-3.19c.15-.53.32-1.06.5-1.58a3.33,3.33,0,0,0-.13-2.59,72,72,0,0,1-2.34-7.2c-.22-.82-.41-1.66-.57-2.5-.07-.4-.15-.81-.2-1.22,0,.37,0-.1,0-.19l-.06-.74a13.78,13.78,0,0,1,0-1.7c0-.28,0-.55.07-.83-.08.68,0-.2.08-.37.1-.43.23-.84.37-1.26l.09-.24c.17-.45-.23.49,0,.07l.27-.57a55,55,0,0,0,2.65-5,19.29,19.29,0,0,0,1.15-8.08,51.33,51.33,0,0,0-.77-6.55v1.2c.65-2.75,3-4,5.55-4.88,1.45-.49,2.94-.86,4.41-1.25a25.45,25.45,0,0,0,4.75-1.86C478.2,926,483,921.42,489,919.57a17.14,17.14,0,0,1,10.84.48c2.74,1,3.92-3.39,1.19-4.34Z" fill="#262521"/></g><path d="M499.89,923.12c-5.91-6.38-15.71,1.62-23.31-.08-8.91,4.14-15.82,14.38-21,22.5-.9,3.83,1.78,7.76,1.13,11.64-7,10.85-3.38,19.85,2.7,31,3.43,13.88,18.41,22.18,31.76,23.68,8.06-2.32,18.05,2.51,24.14-4.43,13.3-11.48,22.76-25.56,21.35-43,.83-4.28,3.24-9.53-.08-12.38-6.94-2.48-6.84-9.72-9.12-16.09-4.54-7.57-16.33-16.1-25.35-13.45" fill="#262521"/><path d="M500.43,922.59c-3-3.13-7.14-3-11.11-2.14-2.15.48-4.27,1.14-6.43,1.6a21.77,21.77,0,0,1-3.21.46c-1,.06-2.08-.26-3.1-.22s-2.15,1-2.93,1.48a30.46,30.46,0,0,0-2.88,2,45,45,0,0,0-5.59,5.28,99,99,0,0,0-8.91,12,7.69,7.69,0,0,0-1.58,3.1,11.11,11.11,0,0,0,.2,3.59c.24,1.29.62,2.54.87,3.83a12.3,12.3,0,0,1,.27,2,5.19,5.19,0,0,1-1,2.87A21.94,21.94,0,0,0,452.43,973a33.87,33.87,0,0,0,2.29,7.48c.54,1.28,1.12,2.53,1.74,3.77a39.65,39.65,0,0,1,2.29,4.5,33.35,33.35,0,0,0,2.52,6.16,28.57,28.57,0,0,0,3.68,5.06c6,6.66,14.77,10.78,23.53,12.29a10.72,10.72,0,0,0,2.86.35c1.17-.14,2.3-.51,3.5-.59a63.24,63.24,0,0,1,7,.08c4.24.17,8.8.13,12.32-2.58.9-.7,1.67-1.56,2.53-2.31s2-1.77,2.91-2.69c1.86-1.79,3.65-3.67,5.33-5.64A57.52,57.52,0,0,0,533,986.72a43.77,43.77,0,0,0,4.12-13.52,42.56,42.56,0,0,0,.3-7.65c-.13-2.44.94-4.79,1.33-7.19.32-1.94.4-4.07-.72-5.78a5,5,0,0,0-2.42-1.79,8.66,8.66,0,0,1-2.55-1.95c-2.84-3.14-3.28-7.84-4.48-11.73-1.25-4.08-5-7.49-8.3-10a26.82,26.82,0,0,0-12.41-5.71,14.73,14.73,0,0,0-6,.35.75.75,0,0,0,.39,1.45c4.25-1.19,8.71.09,12.5,2.09a32.88,32.88,0,0,1,10.31,8.56,12.39,12.39,0,0,1,1.73,2.58,22.76,22.76,0,0,1,.9,3c.52,1.92,1,3.87,1.64,5.74a14.26,14.26,0,0,0,2.58,4.63,10.19,10.19,0,0,0,1.84,1.63c.83.57,2,.83,2.72,1.56,1.55,1.67,1,4.42.56,6.4-.23,1-.51,2-.76,3a11.2,11.2,0,0,0-.32,3.51,40.69,40.69,0,0,1-1.8,13.91c-2.81,9-8.63,16.77-15.34,23.29-1.66,1.62-3.37,3.24-5.11,4.77a11.24,11.24,0,0,1-5.83,2.5c-4.27.61-8.6-.23-12.88.05a22,22,0,0,0-2.92.37,8.55,8.55,0,0,1-3.38-.1,44.35,44.35,0,0,1-6.11-1.52,41.74,41.74,0,0,1-11.4-5.71,30.09,30.09,0,0,1-8.65-9.39,26.22,26.22,0,0,1-1.4-2.87c-.43-1.07-.65-2.21-1.05-3.28a35.69,35.69,0,0,0-1.74-3.29c-.64-1.26-1.27-2.53-1.84-3.82-2.06-4.6-3.54-9.68-2.69-14.75a22.16,22.16,0,0,1,2.85-7.52,4.85,4.85,0,0,0,.83-3.21,20.17,20.17,0,0,0-.63-3.62,23.67,23.67,0,0,1-.75-3.82,5.36,5.36,0,0,1,1.13-3.67c1.27-2,2.58-3.91,4-5.81A57.89,57.89,0,0,1,471,927.57a29.42,29.42,0,0,1,2.84-2.11,9.57,9.57,0,0,1,2.87-1.63,22,22,0,0,1,2.39.2,20,20,0,0,0,3.09-.31c4-.7,8-2.51,12.09-2.35a7.23,7.23,0,0,1,5.13,2.28c.68.7,1.74-.37,1.07-1.06Z" fill="#262521"/><g opacity="0.3"><path d="M702.06,904.29c-13.91-4.93-20.16,5.75-31.69,10.18-4.79,1.41-11.67,2.33-12.91,8.09,4,22.54-10.39,11-.36,37.21-6.86,18.27,8.85,33.9,27,33.2,7.39,1.71,13.59,7.48,21.16,8.51,6.24.48,10-5.27,14.4-8.6,15.79-4.07,16.44-8.9,15.2-24.26.65-9.14,7.43-16.83,8.77-25.89.92-7-9-9-11.24-14.88-1.87-3.46-2.29-7.85-5.24-10.45-2.59-2.29-6.38-2.49-9.49-4-5.12-2.5-8.54-8.63-14.23-9" fill="#262521"/><path d="M702.66,902.12a21.56,21.56,0,0,0-12.06-.8,32,32,0,0,0-9.61,4.53,90.24,90.24,0,0,1-9.54,5.73c-3.18,1.51-6.77,1.89-10,3.36a11.56,11.56,0,0,0-4.19,3.06,9.59,9.59,0,0,0-1.38,2.22,5.9,5.9,0,0,0-.47,3.68,36.5,36.5,0,0,1,.51,5c0,.65,0,1.31,0,2,0,.3,0,.59-.06.88s0,.28-.05.42c0,.5.07-.34,0,.18a15.55,15.55,0,0,1-.71,2.7c0,.12-.09.23-.14.35,0,0,.22-.49.06-.14l-.24.5c-.17.34-.35.67-.53,1a29.56,29.56,0,0,0-2.21,4.16,14.06,14.06,0,0,0-.62,6.72,55.4,55.4,0,0,0,3.56,12.73v-1.2a25.52,25.52,0,0,0,1.54,21.52,29.5,29.5,0,0,0,16.76,13.07,31.67,31.67,0,0,0,5.69,1.21c.86.11,1.71.19,2.57.24a15.11,15.11,0,0,1,2.78.12c4.1,1,7.78,3.43,11.52,5.27s8.19,3.76,12.52,2.92c3.86-.76,6.87-3.58,9.65-6.18.63-.58,1.25-1.16,1.89-1.72a3.73,3.73,0,0,1,2.14-1A48.46,48.46,0,0,0,726.8,993a19.33,19.33,0,0,0,6.83-4.22c3.67-3.78,4-9.18,3.87-14.18-.06-1.7-.18-3.41-.32-5.11a16.07,16.07,0,0,1,1-6c1.31-4.1,3.4-7.9,5.07-11.86,1.48-3.51,3.38-7.94,2.41-11.81-.76-3-3.2-5.15-5.56-7-1.21-.94-2.44-1.84-3.57-2.91a9.76,9.76,0,0,1-2.22-3.15c-1.7-3.65-2.44-8.13-5.59-10.91s-7.6-2.83-11.12-5c-3.19-2-5.56-5-8.8-6.93a12.27,12.27,0,0,0-5.39-1.7,2.27,2.27,0,0,0-2.25,2.25,2.29,2.29,0,0,0,2.25,2.25,9.67,9.67,0,0,1,5.09,2.47c1.84,1.5,3.53,3.17,5.43,4.59a21,21,0,0,0,6.75,3.15c2.13.65,4.43,1.25,5.82,3.14s1.93,4.26,2.78,6.4a18.69,18.69,0,0,0,3.14,5.66c2.31,2.65,5.93,4.39,7.94,7a4.4,4.4,0,0,1,.91,4.05A34.91,34.91,0,0,1,739,950.3c-2.13,4.91-4.84,9.69-5.9,15-.83,4.16.09,8.39-.06,12.61,0,.74-.08,1.48-.17,2.22,0-.38-.09.55-.12.68-.06.34-.14.67-.22,1s-.18.63-.29,1c-.05.15-.11.3-.17.45-.13.35.23-.48,0,.07a10.75,10.75,0,0,1-.94,1.61c-.34.5.19-.22-.05.07l-.31.36a8.84,8.84,0,0,1-.68.69,6.49,6.49,0,0,1-1.36,1,20.59,20.59,0,0,1-4.26,2.06c-.87.32-1.76.61-2.65.88a11,11,0,0,0-3.71,1.34c-1.78,1.38-3.36,3-5,4.49a13.4,13.4,0,0,1-5.24,3.23c-2.29.61-4.66-.21-6.8-1-5-1.89-9.31-5-14.37-6.67a10.63,10.63,0,0,0-3.53-.59,29.34,29.34,0,0,1-3.63-.2,28.55,28.55,0,0,1-6.11-1.49,25.45,25.45,0,0,1-10.19-6.81A21.06,21.06,0,0,1,658,971.78a19.87,19.87,0,0,1-.09-6.11,23,23,0,0,1,.7-3.19c.15-.53.32-1.06.5-1.58a3.33,3.33,0,0,0-.13-2.59,69.5,69.5,0,0,1-2.34-7.2c-.22-.82-.41-1.66-.57-2.5-.07-.4-.15-.81-.2-1.22,0,.37,0-.1,0-.19l-.06-.74a13.78,13.78,0,0,1,0-1.7c0-.28,0-.55.07-.83-.08.68,0-.2.08-.37.1-.43.23-.84.37-1.26l.09-.24c.17-.45-.23.48,0,.06l.27-.56a55,55,0,0,0,2.65-5,19.29,19.29,0,0,0,1.15-8.08,51.33,51.33,0,0,0-.77-6.55v1.2c.65-2.76,3-4,5.55-4.89,1.45-.48,2.93-.85,4.41-1.24a26.16,26.16,0,0,0,4.75-1.86c5.54-2.76,10.31-7.34,16.29-9.19a17.14,17.14,0,0,1,10.84.48c2.74.95,3.92-3.39,1.19-4.34Z" fill="#262521"/></g><path d="M701.57,909.53c-5.91-6.38-15.71,1.62-23.31-.08-8.91,4.14-15.82,14.38-21,22.5-.9,3.83,1.78,7.76,1.13,11.64-7,10.85-3.38,19.85,2.7,31,3.43,13.88,18.41,22.17,31.76,23.68,8.06-2.32,18,2.51,24.14-4.43,13.29-11.48,22.76-25.56,21.35-43.05.83-4.29,3.24-9.54-.08-12.38-6.94-2.49-6.84-9.73-9.12-16.09-4.54-7.57-16.33-16.11-25.35-13.45" fill="#262521"/><path d="M702.1,909c-3-3.13-7.13-3-11.1-2.14-2.15.48-4.27,1.13-6.43,1.59a20.54,20.54,0,0,1-3.21.47c-1,.05-2.08-.26-3.1-.22s-2.15,1-2.93,1.48a30.46,30.46,0,0,0-2.88,2,45,45,0,0,0-5.59,5.28,99,99,0,0,0-8.91,12,7.69,7.69,0,0,0-1.58,3.1,11.12,11.12,0,0,0,.2,3.59c.24,1.29.62,2.54.87,3.83a12.3,12.3,0,0,1,.27,2,5.13,5.13,0,0,1-1,2.86,22,22,0,0,0-2.62,14.52,33.87,33.87,0,0,0,2.29,7.48c.54,1.28,1.12,2.53,1.74,3.77a37.25,37.25,0,0,1,2.28,4.5,34.1,34.1,0,0,0,2.53,6.16,28.57,28.57,0,0,0,3.68,5.06c6,6.66,14.77,10.78,23.53,12.29A10.72,10.72,0,0,0,693,999c1.17-.15,2.3-.51,3.5-.59a63.24,63.24,0,0,1,7,.08c4.24.17,8.8.13,12.32-2.58.9-.7,1.67-1.56,2.53-2.32s2-1.76,2.91-2.68c1.86-1.79,3.65-3.67,5.33-5.64a57.58,57.58,0,0,0,8.09-12.12,43.63,43.63,0,0,0,4.12-13.51,42.56,42.56,0,0,0,.3-7.65c-.13-2.44.94-4.8,1.33-7.19.32-1.94.4-4.07-.72-5.78a5,5,0,0,0-2.42-1.79,9,9,0,0,1-2.55-2c-2.84-3.14-3.28-7.84-4.48-11.73-1.25-4.08-5-7.49-8.3-10a26.76,26.76,0,0,0-12.41-5.71,14.79,14.79,0,0,0-6,.35.75.75,0,0,0,.4,1.45c4.25-1.19,8.71.09,12.5,2.09a32.88,32.88,0,0,1,10.31,8.56,12.39,12.39,0,0,1,1.73,2.58,22.76,22.76,0,0,1,.9,3c.52,1.92,1,3.87,1.64,5.74a14.26,14.26,0,0,0,2.58,4.63,10.19,10.19,0,0,0,1.84,1.63c.83.57,2,.83,2.72,1.56,1.55,1.67,1,4.42.56,6.4-.23,1-.51,2-.76,3.05a11.2,11.2,0,0,0-.32,3.51,40.6,40.6,0,0,1-1.8,13.9c-2.81,9-8.63,16.78-15.34,23.3-1.67,1.61-3.37,3.24-5.11,4.77a11.24,11.24,0,0,1-5.83,2.5c-4.27.61-8.6-.23-12.89,0a22.07,22.07,0,0,0-2.91.38,8.55,8.55,0,0,1-3.38-.1,44.35,44.35,0,0,1-6.11-1.52,41.74,41.74,0,0,1-11.4-5.71,30,30,0,0,1-8.65-9.4,25.22,25.22,0,0,1-1.4-2.86c-.43-1.07-.65-2.21-1.05-3.28a35.69,35.69,0,0,0-1.74-3.29c-.64-1.26-1.27-2.53-1.84-3.82-2.06-4.6-3.54-9.68-2.69-14.75a22.16,22.16,0,0,1,2.85-7.52,4.79,4.79,0,0,0,.82-3.21,19.3,19.3,0,0,0-.62-3.62,23.89,23.89,0,0,1-.75-3.82,5.34,5.34,0,0,1,1.13-3.67c1.27-2,2.58-3.91,3.95-5.81A57.89,57.89,0,0,1,672.63,914a27.85,27.85,0,0,1,2.84-2.11,9.45,9.45,0,0,1,2.87-1.63,22,22,0,0,1,2.39.2,18.83,18.83,0,0,0,3.09-.32c4-.69,8-2.5,12.09-2.34a7.23,7.23,0,0,1,5.13,2.28c.68.69,1.74-.37,1.06-1.06Z" fill="#262521"/><g opacity="0.3"><path d="M590.61,798.38c-13.92-4.93-20.17,5.74-31.7,10.18-4.78,1.4-11.66,2.32-12.91,8.08,4,22.55-10.39,11-.35,37.22-6.87,18.27,8.84,33.89,27,33.19,7.39,1.72,13.59,7.48,21.17,8.52,6.23.47,10-5.28,14.39-8.6,15.8-4.07,16.45-8.91,15.2-24.27.65-9.13,7.43-16.83,8.77-25.88.93-7-9-9-11.24-14.88-1.87-3.46-2.28-7.86-5.24-10.46-2.59-2.28-6.38-2.48-9.48-4-5.12-2.5-8.55-8.63-14.24-9" fill="#262521"/><path d="M591.21,796.21a21.39,21.39,0,0,0-12.06-.8,32.17,32.17,0,0,0-9.61,4.52,87.94,87.94,0,0,1-9.54,5.73c-3.19,1.52-6.78,1.89-10,3.36a11.76,11.76,0,0,0-4.18,3.07,9.31,9.31,0,0,0-1.39,2.22A5.87,5.87,0,0,0,544,818a36.65,36.65,0,0,1,.5,5c0,.66,0,1.31,0,2,0,.29,0,.58-.06.88,0,.13,0,.27,0,.41-.06.5.06-.33,0,.19a17,17,0,0,1-.71,2.7c-.05.11-.1.23-.14.34s.22-.48,0-.14c-.08.17-.15.34-.24.51-.16.34-.34.67-.53,1a30.24,30.24,0,0,0-2.21,4.17,14,14,0,0,0-.61,6.72,54.2,54.2,0,0,0,3.56,12.72v-1.19A25.46,25.46,0,0,0,545,874.77a29.45,29.45,0,0,0,16.76,13.07,32.69,32.69,0,0,0,5.7,1.22c.85.11,1.71.19,2.57.23a15.15,15.15,0,0,1,2.78.12c4.09,1,7.78,3.44,11.52,5.27s8.18,3.77,12.51,2.92c3.87-.75,6.88-3.57,9.66-6.17.62-.58,1.24-1.16,1.89-1.72a3.68,3.68,0,0,1,2.13-1,45.24,45.24,0,0,0,4.81-1.61,19.58,19.58,0,0,0,6.84-4.21c3.67-3.79,4-9.18,3.86-14.18-.06-1.71-.18-3.41-.31-5.11a16.23,16.23,0,0,1,1-6c1.32-4.11,3.41-7.91,5.08-11.87,1.48-3.51,3.37-7.94,2.4-11.81-.76-3-3.2-5.14-5.56-7-1.21-1-2.43-1.84-3.56-2.92a9.61,9.61,0,0,1-2.22-3.15c-1.71-3.64-2.45-8.13-5.59-10.91s-7.61-2.83-11.12-5c-3.19-2-5.57-5-8.81-6.93a12.38,12.38,0,0,0-5.39-1.71,2.27,2.27,0,0,0-2.25,2.25,2.3,2.3,0,0,0,2.25,2.25,9.65,9.65,0,0,1,5.09,2.48c1.84,1.5,3.53,3.16,5.44,4.58a21.13,21.13,0,0,0,6.74,3.16c2.14.64,4.44,1.25,5.83,3.13s1.92,4.27,2.77,6.41a18.81,18.81,0,0,0,3.14,5.66c2.32,2.65,5.94,4.38,7.94,7a4.4,4.4,0,0,1,.91,4.05,34.32,34.32,0,0,1-2.33,7.19c-2.12,4.9-4.84,9.68-5.89,15-.83,4.16.08,8.39-.07,12.6,0,.74-.07,1.49-.17,2.22,0-.37-.09.56-.11.68-.07.34-.14.68-.23,1s-.18.63-.28.94l-.17.45c-.14.35.23-.47,0,.08a12.24,12.24,0,0,1-.93,1.61c-.35.49.18-.22,0,.07l-.31.36q-.33.36-.69.69a6.77,6.77,0,0,1-1.35,1,20.59,20.59,0,0,1-4.26,2.06c-.88.32-1.76.6-2.66.87a10.87,10.87,0,0,0-3.71,1.35c-1.78,1.38-3.36,3-5,4.48a13.45,13.45,0,0,1-5.24,3.24c-2.29.61-4.67-.21-6.81-1-4.94-1.89-9.31-5-14.36-6.68a10.68,10.68,0,0,0-3.54-.58,29.18,29.18,0,0,1-3.62-.21,28,28,0,0,1-6.11-1.49,25.49,25.49,0,0,1-10.2-6.8,21.13,21.13,0,0,1-5.16-10.47,19.56,19.56,0,0,1-.08-6.11,22.14,22.14,0,0,1,.69-3.19c.15-.53.32-1,.5-1.58a3.3,3.3,0,0,0-.13-2.58c-.88-2.37-1.7-4.76-2.34-7.2-.21-.83-.41-1.66-.56-2.5q-.12-.62-.21-1.23c0,.38,0-.1,0-.19s0-.49-.07-.74c0-.56,0-1.13,0-1.69,0-.28,0-.56.07-.83-.07.67,0-.21.09-.38a10.54,10.54,0,0,1,.36-1.25c0-.09.07-.17.1-.25.16-.44-.24.49,0,.07.09-.19.18-.38.28-.56.87-1.68,1.94-3.2,2.65-5a19.69,19.69,0,0,0,1.15-8.09,49.66,49.66,0,0,0-.78-6.54v1.19c.66-2.75,3-4,5.55-4.88,1.45-.49,2.94-.86,4.41-1.25a25.18,25.18,0,0,0,4.75-1.86c5.54-2.76,10.32-7.34,16.29-9.18a17,17,0,0,1,10.84.48c2.74,1,3.92-3.4,1.2-4.34Z" fill="#262521"/></g><path d="M590.12,803.61c-5.91-6.37-15.72,1.62-23.31-.08-8.91,4.15-15.82,14.38-21,22.51-.9,3.82,1.78,7.76,1.13,11.63-7,10.85-3.37,19.85,2.71,31,3.43,13.88,18.4,22.17,31.75,23.67,8.06-2.31,18.06,2.52,24.14-4.42,13.3-11.49,22.76-25.57,21.35-43,.84-4.29,3.24-9.54-.07-12.38-6.95-2.49-6.85-9.73-9.12-16.1-4.54-7.56-16.34-16.1-25.35-13.44" fill="#262521"/><path d="M590.65,803.08c-3-3.13-7.14-3-11.1-2.14-2.16.48-4.27,1.14-6.43,1.6a19.4,19.4,0,0,1-3.21.46c-1,.06-2.09-.26-3.1-.22s-2.15,1-2.93,1.48a34.08,34.08,0,0,0-2.89,2,44.32,44.32,0,0,0-5.58,5.29,97.19,97.19,0,0,0-8.91,12,7.67,7.67,0,0,0-1.59,3.09,11.48,11.48,0,0,0,.2,3.6c.24,1.28.62,2.54.88,3.82a12.55,12.55,0,0,1,.26,2,5.11,5.11,0,0,1-1,2.86,22.09,22.09,0,0,0-2.62,14.52,33.62,33.62,0,0,0,2.29,7.47c.54,1.28,1.13,2.54,1.74,3.78a39.52,39.52,0,0,1,2.29,4.49,34.45,34.45,0,0,0,2.52,6.17,28.94,28.94,0,0,0,3.68,5.06c6,6.66,14.78,10.78,23.54,12.28a10.26,10.26,0,0,0,2.85.35c1.18-.14,2.31-.5,3.51-.59a63.06,63.06,0,0,1,7,.08c4.24.17,8.8.14,12.32-2.58.91-.7,1.67-1.55,2.53-2.31s2-1.77,2.91-2.68a77,77,0,0,0,5.34-5.65,57.86,57.86,0,0,0,8.08-12.11,43.89,43.89,0,0,0,4.13-13.52,41.58,41.58,0,0,0,.29-7.65c-.13-2.44.94-4.79,1.34-7.19.31-1.93.39-4.07-.73-5.78a5,5,0,0,0-2.41-1.79,8.71,8.71,0,0,1-2.56-1.95c-2.84-3.13-3.28-7.84-4.47-11.73-1.25-4.07-5-7.49-8.3-10a27,27,0,0,0-12.41-5.71,14.77,14.77,0,0,0-6,.35.75.75,0,0,0,.4,1.45c4.24-1.19,8.7.1,12.49,2.1a32.76,32.76,0,0,1,10.31,8.55A11.83,11.83,0,0,1,617,816.9a22.36,22.36,0,0,1,.91,3c.51,1.92.95,3.86,1.63,5.73a14.34,14.34,0,0,0,2.58,4.63,9.88,9.88,0,0,0,1.85,1.63c.83.58,2,.84,2.71,1.57,1.55,1.66,1,4.42.57,6.4-.23,1-.51,2-.77,3a11.29,11.29,0,0,0-.32,3.52,40.67,40.67,0,0,1-1.8,13.9c-2.81,9-8.62,16.78-15.34,23.29-1.66,1.62-3.37,3.25-5.11,4.77a11.17,11.17,0,0,1-5.83,2.5c-4.27.62-8.6-.23-12.88.05a20.47,20.47,0,0,0-2.92.38,8.56,8.56,0,0,1-3.38-.1,43.89,43.89,0,0,1-6.1-1.53,41.46,41.46,0,0,1-11.4-5.71,30,30,0,0,1-8.65-9.39,23.77,23.77,0,0,1-1.4-2.87c-.43-1.07-.65-2.21-1.06-3.27a34.52,34.52,0,0,0-1.73-3.3c-.65-1.26-1.27-2.52-1.85-3.81-2.06-4.61-3.54-9.68-2.68-14.76a21.83,21.83,0,0,1,2.85-7.51,4.92,4.92,0,0,0,.82-3.21,20.28,20.28,0,0,0-.63-3.63,24.81,24.81,0,0,1-.75-3.82,5.36,5.36,0,0,1,1.13-3.67c1.28-2,2.58-3.91,4-5.81a58.52,58.52,0,0,1,9.73-10.88A34.22,34.22,0,0,1,564,806a9.47,9.47,0,0,1,2.88-1.62,19.55,19.55,0,0,1,2.38.19,17.9,17.9,0,0,0,3.1-.31c4-.69,8-2.5,12.09-2.35a7.29,7.29,0,0,1,5.13,2.28c.67.7,1.73-.36,1.06-1.06Z" fill="#262521"/><g opacity="0.3"><path d="M505.25,1136.93c-13.91-4.93-20.16,5.75-31.69,10.18-4.79,1.41-11.67,2.33-12.91,8.09,4,22.54-10.39,11-.36,37.21-6.86,18.27,8.85,33.9,27,33.2,7.39,1.71,13.58,7.48,21.16,8.51,6.24.48,10-5.27,14.4-8.6,15.79-4.07,16.44-8.9,15.2-24.26.65-9.14,7.43-16.83,8.77-25.89.92-7-9-8.95-11.24-14.88-1.87-3.46-2.29-7.85-5.24-10.45-2.59-2.29-6.39-2.49-9.49-4-5.12-2.5-8.54-8.63-14.23-9" fill="#262521"/><path d="M505.85,1134.76a21.56,21.56,0,0,0-12.06-.8,32,32,0,0,0-9.61,4.53,91.26,91.26,0,0,1-9.54,5.73c-3.19,1.51-6.77,1.89-10,3.36a11.56,11.56,0,0,0-4.19,3.06,9.59,9.59,0,0,0-1.38,2.22,5.88,5.88,0,0,0-.47,3.67,36.81,36.81,0,0,1,.51,5c0,.65,0,1.31,0,2l-.06.88c0,.14,0,.28,0,.42-.05.5.07-.34,0,.18a16.5,16.5,0,0,1-.71,2.7c0,.12-.09.23-.14.35,0,0,.22-.49.06-.14l-.24.5c-.17.34-.35.67-.54,1a30.58,30.58,0,0,0-2.2,4.16,14.06,14.06,0,0,0-.62,6.72,55.4,55.4,0,0,0,3.56,12.73v-1.2a25.52,25.52,0,0,0,1.54,21.52,29.5,29.5,0,0,0,16.76,13.07,31.67,31.67,0,0,0,5.69,1.21c.86.11,1.71.19,2.57.23a16,16,0,0,1,2.78.13c4.1,1,7.78,3.43,11.52,5.27s8.19,3.76,12.52,2.92c3.86-.76,6.87-3.58,9.65-6.18.63-.58,1.25-1.16,1.89-1.72a3.73,3.73,0,0,1,2.13-1,44.54,44.54,0,0,0,4.81-1.62,19.21,19.21,0,0,0,6.84-4.21c3.67-3.78,4-9.18,3.86-14.18,0-1.7-.17-3.41-.31-5.11a16.07,16.07,0,0,1,1-6c1.31-4.1,3.4-7.9,5.07-11.86,1.48-3.51,3.38-7.94,2.41-11.81-.76-3-3.2-5.15-5.56-7-1.21-.94-2.44-1.84-3.57-2.91a9.76,9.76,0,0,1-2.22-3.15c-1.7-3.65-2.44-8.13-5.59-10.92s-7.6-2.82-11.12-5c-3.19-2-5.56-5-8.8-6.93a12.27,12.27,0,0,0-5.39-1.7,2.27,2.27,0,0,0-2.25,2.25,2.29,2.29,0,0,0,2.25,2.25,9.67,9.67,0,0,1,5.09,2.47c1.84,1.5,3.53,3.17,5.43,4.59a21.26,21.26,0,0,0,6.75,3.15c2.13.65,4.43,1.25,5.82,3.14s1.93,4.26,2.77,6.4a18.72,18.72,0,0,0,3.15,5.66c2.31,2.65,5.93,4.39,7.94,7a4.4,4.4,0,0,1,.91,4,34.91,34.91,0,0,1-2.33,7.19c-2.13,4.91-4.84,9.69-5.9,15-.83,4.16.09,8.39-.06,12.61,0,.74-.08,1.48-.17,2.22.05-.38-.09.55-.12.68-.06.33-.14.67-.22,1s-.18.63-.29.94-.11.31-.17.46c-.13.35.23-.48,0,.07a11.27,11.27,0,0,1-.94,1.61c-.34.5.19-.22,0,.07l-.31.36a8.84,8.84,0,0,1-.68.69,6.49,6.49,0,0,1-1.36,1,20.59,20.59,0,0,1-4.26,2.06c-.87.32-1.76.61-2.65.88a10.78,10.78,0,0,0-3.71,1.34c-1.79,1.38-3.36,3-5,4.49a13.4,13.4,0,0,1-5.24,3.23c-2.29.61-4.66-.21-6.81-1-4.94-1.89-9.3-5-14.36-6.67a10.63,10.63,0,0,0-3.53-.59,31.42,31.42,0,0,1-3.63-.2,29.15,29.15,0,0,1-6.11-1.49,25.55,25.55,0,0,1-10.2-6.81,21.13,21.13,0,0,1-5.15-10.46,19.87,19.87,0,0,1-.09-6.11,24.47,24.47,0,0,1,.69-3.19c.16-.53.33-1.06.51-1.58a3.33,3.33,0,0,0-.13-2.59,70.29,70.29,0,0,1-2.34-7.2c-.22-.83-.41-1.66-.57-2.5-.07-.41-.15-.81-.2-1.22.05.37,0-.1,0-.19,0-.25-.05-.5-.06-.74a13.8,13.8,0,0,1,0-1.7c0-.28,0-.55.07-.83-.08.67,0-.2.08-.37.1-.43.23-.84.37-1.26l.09-.24c.17-.45-.23.48,0,.06l.27-.56c.87-1.68,1.94-3.2,2.65-5a19.62,19.62,0,0,0,1.15-8.08,51.33,51.33,0,0,0-.77-6.55v1.2c.65-2.76,3-4,5.55-4.89,1.45-.48,2.93-.85,4.41-1.25a25.68,25.68,0,0,0,4.75-1.85c5.54-2.76,10.31-7.34,16.29-9.19a17.1,17.1,0,0,1,10.83.48c2.75,1,3.93-3.39,1.2-4.34Z" fill="#262521"/></g><path d="M504.76,1142.17c-5.91-6.38-15.71,1.62-23.31-.08-8.91,4.14-15.82,14.38-21,22.5-.91,3.83,1.78,7.76,1.13,11.64-7,10.85-3.38,19.85,2.7,31,3.43,13.88,18.41,22.17,31.76,23.68,8.06-2.32,18,2.51,24.13-4.43,13.3-11.48,22.77-25.57,21.36-43,.83-4.29,3.24-9.54-.08-12.38-6.94-2.49-6.84-9.73-9.12-16.09-4.54-7.57-16.33-16.11-25.35-13.45" fill="#262521"/><path d="M505.29,1141.64c-3-3.14-7.13-3-11.1-2.14-2.15.48-4.27,1.13-6.43,1.59a20.54,20.54,0,0,1-3.21.47c-1,0-2.09-.27-3.1-.22s-2.15,1-2.93,1.48a30.46,30.46,0,0,0-2.88,2,44.32,44.32,0,0,0-5.59,5.28,99,99,0,0,0-8.91,12,7.59,7.59,0,0,0-1.58,3.09,11.17,11.17,0,0,0,.2,3.6c.24,1.29.61,2.54.87,3.82a12.57,12.57,0,0,1,.27,2,5.21,5.21,0,0,1-1,2.86A22,22,0,0,0,457.3,1192a33.87,33.87,0,0,0,2.29,7.48c.54,1.28,1.12,2.53,1.74,3.77a37.25,37.25,0,0,1,2.28,4.5,34.7,34.7,0,0,0,2.53,6.16,28.57,28.57,0,0,0,3.68,5.06c6,6.66,14.77,10.78,23.53,12.29a10.67,10.67,0,0,0,2.86.35c1.17-.15,2.3-.51,3.5-.59a60.9,60.9,0,0,1,7,.08c4.24.17,8.8.13,12.32-2.58.9-.7,1.67-1.56,2.53-2.32s2-1.76,2.91-2.68c1.86-1.79,3.65-3.67,5.33-5.64a57.58,57.58,0,0,0,8.09-12.12,43.6,43.6,0,0,0,4.12-13.52,42.41,42.41,0,0,0,.3-7.64c-.13-2.45.94-4.8,1.33-7.2.32-1.93.4-4.06-.73-5.77a4.9,4.9,0,0,0-2.41-1.79,8.88,8.88,0,0,1-2.55-1.95c-2.84-3.14-3.28-7.84-4.48-11.73-1.25-4.08-5-7.49-8.3-10a26.76,26.76,0,0,0-12.41-5.71,14.62,14.62,0,0,0-6,.35.75.75,0,0,0,.4,1.44c4.25-1.18,8.71.1,12.5,2.1a32.88,32.88,0,0,1,10.31,8.56,12.39,12.39,0,0,1,1.73,2.58,22.76,22.76,0,0,1,.9,3c.51,1.92,1,3.87,1.63,5.73a14.42,14.42,0,0,0,2.59,4.64,10.19,10.19,0,0,0,1.84,1.63c.83.57,2,.83,2.72,1.56,1.55,1.67,1,4.42.56,6.4-.23,1-.51,2-.76,3a11.2,11.2,0,0,0-.32,3.51,40.85,40.85,0,0,1-1.8,13.9c-2.82,9-8.63,16.78-15.34,23.3-1.67,1.61-3.37,3.24-5.12,4.77a11.08,11.08,0,0,1-5.82,2.49c-4.27.62-8.6-.22-12.89,0a22.44,22.44,0,0,0-2.92.38,8.56,8.56,0,0,1-3.38-.1,44.57,44.57,0,0,1-6.1-1.52,41.74,41.74,0,0,1-11.4-5.71,29.9,29.9,0,0,1-8.65-9.4,24.56,24.56,0,0,1-1.4-2.87c-.43-1.06-.65-2.2-1.06-3.27a34.63,34.63,0,0,0-1.73-3.3c-.65-1.25-1.27-2.52-1.84-3.81-2.06-4.6-3.55-9.68-2.69-14.75a22.16,22.16,0,0,1,2.85-7.52,4.79,4.79,0,0,0,.82-3.21,19.3,19.3,0,0,0-.62-3.62A23.89,23.89,0,0,1,461,1167a5.34,5.34,0,0,1,1.13-3.67c1.27-2,2.58-3.91,3.95-5.81a57.89,57.89,0,0,1,9.73-10.88,27.85,27.85,0,0,1,2.84-2.11,9.14,9.14,0,0,1,2.87-1.63,22,22,0,0,1,2.39.2,18.94,18.94,0,0,0,3.09-.32c4-.69,8-2.5,12.09-2.34a7.23,7.23,0,0,1,5.13,2.28c.67.69,1.73-.37,1.06-1.06Z" fill="#262521"/><g opacity="0.3"><path d="M707.56,1129.17c-13.91-4.94-20.16,5.74-31.69,10.18-4.79,1.4-11.67,2.32-12.91,8.08,4,22.55-10.39,11-.36,37.22-6.86,18.27,8.85,33.89,27,33.19,7.39,1.72,13.59,7.48,21.16,8.52,6.24.47,10-5.28,14.4-8.6,15.79-4.07,16.44-8.91,15.2-24.27.65-9.13,7.43-16.83,8.77-25.88.92-7-9-9-11.24-14.88-1.87-3.46-2.29-7.86-5.24-10.46-2.59-2.28-6.38-2.48-9.49-4-5.12-2.5-8.54-8.63-14.23-9" fill="#262521"/><path d="M708.16,1127a21.38,21.38,0,0,0-12.06-.8,32.17,32.17,0,0,0-9.61,4.52,87,87,0,0,1-9.54,5.73c-3.18,1.52-6.77,1.89-10,3.36a11.71,11.71,0,0,0-4.19,3.07,9.59,9.59,0,0,0-1.38,2.22,5.87,5.87,0,0,0-.47,3.67,36.66,36.66,0,0,1,.51,5c0,.66,0,1.31,0,2,0,.29,0,.58-.06.88,0,.13,0,.27-.05.41,0,.5.07-.33,0,.19a16,16,0,0,1-.71,2.7c0,.11-.09.23-.14.34s.22-.48.06-.14l-.24.51c-.17.34-.35.67-.53,1a30.24,30.24,0,0,0-2.21,4.17,14.05,14.05,0,0,0-.62,6.72,55.18,55.18,0,0,0,3.56,12.72v-1.19a25.5,25.5,0,0,0,1.54,21.51,29.42,29.42,0,0,0,16.76,13.07,32.58,32.58,0,0,0,5.69,1.22c.86.11,1.71.19,2.57.23a15.11,15.11,0,0,1,2.78.12c4.1,1,7.78,3.44,11.52,5.27s8.19,3.77,12.52,2.92c3.86-.75,6.87-3.57,9.65-6.17.63-.58,1.25-1.16,1.89-1.72a3.74,3.74,0,0,1,2.14-1,46,46,0,0,0,4.81-1.61,19.45,19.45,0,0,0,6.83-4.21c3.67-3.79,4-9.18,3.87-14.18-.06-1.71-.18-3.41-.32-5.11a16,16,0,0,1,1-6c1.31-4.11,3.4-7.91,5.07-11.87,1.48-3.51,3.38-7.94,2.41-11.81-.76-3-3.2-5.14-5.56-7-1.21-1-2.44-1.84-3.57-2.92a9.76,9.76,0,0,1-2.22-3.15c-1.7-3.64-2.44-8.13-5.59-10.91s-7.6-2.83-11.12-5c-3.19-2-5.56-5-8.8-6.93a12.42,12.42,0,0,0-5.39-1.71,2.25,2.25,0,0,0,0,4.5A9.69,9.69,0,0,1,714,1134c1.84,1.5,3.53,3.16,5.43,4.58a21.29,21.29,0,0,0,6.75,3.16c2.13.64,4.43,1.25,5.82,3.13s1.93,4.27,2.78,6.41A18.81,18.81,0,0,0,738,1157c2.31,2.65,5.93,4.38,7.94,7a4.4,4.4,0,0,1,.91,4,34.91,34.91,0,0,1-2.33,7.19c-2.13,4.9-4.84,9.68-5.9,15-.83,4.16.09,8.39-.06,12.6,0,.74-.08,1.49-.17,2.22,0-.37-.09.56-.12.68-.06.34-.14.67-.22,1s-.18.63-.29.94c-.05.15-.11.3-.17.45-.13.35.23-.47,0,.08a11.85,11.85,0,0,1-.94,1.61c-.34.49.19-.22-.05.07l-.31.36a8.84,8.84,0,0,1-.68.69,6.85,6.85,0,0,1-1.36,1,20.59,20.59,0,0,1-4.26,2.06c-.87.32-1.76.6-2.65.87a10.8,10.8,0,0,0-3.71,1.35c-1.78,1.38-3.36,3-5,4.48a13.31,13.31,0,0,1-5.24,3.24c-2.29.61-4.66-.21-6.8-1-5-1.89-9.31-5-14.37-6.68a10.9,10.9,0,0,0-3.53-.59,27.51,27.51,0,0,1-3.63-.2,28,28,0,0,1-6.11-1.49,25.53,25.53,0,0,1-10.19-6.8,21.13,21.13,0,0,1-5.16-10.47,19.87,19.87,0,0,1-.09-6.11,23.6,23.6,0,0,1,.7-3.19c.15-.53.32-1.06.5-1.58a3.3,3.3,0,0,0-.13-2.58,71.1,71.1,0,0,1-2.34-7.2c-.22-.83-.41-1.66-.57-2.5-.07-.41-.15-.82-.2-1.23,0,.38,0-.1,0-.19l-.06-.74a13.62,13.62,0,0,1,0-1.69c0-.28,0-.56.07-.83-.08.67,0-.21.08-.38a12.87,12.87,0,0,1,.37-1.25l.09-.25c.17-.44-.23.49,0,.07l.27-.56a55,55,0,0,0,2.65-5,19.36,19.36,0,0,0,1.15-8.09,51.39,51.39,0,0,0-.77-6.54V1148c.65-2.75,3-4,5.55-4.88,1.45-.49,2.93-.86,4.41-1.25a25.45,25.45,0,0,0,4.75-1.86c5.54-2.76,10.31-7.34,16.29-9.18a17,17,0,0,1,10.84.48c2.74,1,3.92-3.4,1.19-4.34Z" fill="#262521"/></g><path d="M707.07,1134.4c-5.91-6.37-15.71,1.62-23.31-.08-8.91,4.15-15.82,14.38-21,22.51-.9,3.82,1.78,7.76,1.13,11.63-7,10.85-3.38,19.85,2.7,31,3.43,13.87,18.41,22.17,31.76,23.67,8.06-2.31,18,2.52,24.14-4.42,13.29-11.49,22.76-25.57,21.35-43,.83-4.29,3.24-9.54-.08-12.38-6.94-2.49-6.84-9.73-9.12-16.1-4.54-7.56-16.33-16.1-25.35-13.44" fill="#262521"/><path d="M707.6,1133.87c-3-3.13-7.13-3-11.1-2.14-2.15.48-4.27,1.14-6.43,1.6a19.4,19.4,0,0,1-3.21.46c-1,.06-2.08-.26-3.1-.22s-2.15,1-2.93,1.48a32.4,32.4,0,0,0-2.88,2,45.1,45.1,0,0,0-5.59,5.29,98.22,98.22,0,0,0-8.91,12,7.65,7.65,0,0,0-1.58,3.09,11.19,11.19,0,0,0,.2,3.6c.24,1.28.62,2.54.87,3.82a12.57,12.57,0,0,1,.27,2,5.18,5.18,0,0,1-1,2.86,22,22,0,0,0-2.62,14.52,33.62,33.62,0,0,0,2.29,7.47q.81,1.92,1.74,3.78a37.87,37.87,0,0,1,2.28,4.49,34.49,34.49,0,0,0,2.53,6.17,28.94,28.94,0,0,0,3.68,5.06c6,6.66,14.77,10.78,23.53,12.28a10.33,10.33,0,0,0,2.86.35c1.17-.14,2.3-.5,3.5-.59a63.24,63.24,0,0,1,7,.08c4.24.17,8.8.14,12.32-2.58.9-.7,1.67-1.55,2.53-2.31s2-1.77,2.91-2.68c1.86-1.8,3.65-3.67,5.33-5.65a57.52,57.52,0,0,0,8.09-12.11,43.6,43.6,0,0,0,4.12-13.52,42.48,42.48,0,0,0,.3-7.65c-.13-2.44.94-4.79,1.33-7.19.32-1.93.4-4.07-.72-5.78a5,5,0,0,0-2.42-1.79,8.66,8.66,0,0,1-2.55-2c-2.84-3.13-3.28-7.84-4.48-11.73-1.25-4.07-5-7.49-8.3-10a27,27,0,0,0-12.41-5.71,14.79,14.79,0,0,0-6,.35.75.75,0,0,0,.4,1.45c4.25-1.19,8.71.09,12.5,2.1a33,33,0,0,1,10.31,8.55,12.19,12.19,0,0,1,1.73,2.59,22.33,22.33,0,0,1,.9,3c.52,1.92,1,3.86,1.64,5.73a14.16,14.16,0,0,0,2.58,4.63,9.82,9.82,0,0,0,1.84,1.63c.83.58,2,.84,2.72,1.57,1.55,1.66,1,4.42.56,6.39-.23,1-.51,2-.76,3a11.29,11.29,0,0,0-.32,3.52,40.67,40.67,0,0,1-1.8,13.9c-2.81,9-8.63,16.78-15.34,23.29-1.67,1.62-3.37,3.25-5.11,4.77a11.24,11.24,0,0,1-5.83,2.5c-4.27.62-8.6-.23-12.89,0a20.52,20.52,0,0,0-2.91.38,8.55,8.55,0,0,1-3.38-.1,45.87,45.87,0,0,1-6.11-1.53,41.74,41.74,0,0,1-11.4-5.71,30.09,30.09,0,0,1-8.65-9.39,25.36,25.36,0,0,1-1.4-2.87c-.43-1.07-.65-2.21-1.05-3.27a34.61,34.61,0,0,0-1.74-3.3c-.64-1.26-1.27-2.52-1.84-3.81-2.06-4.61-3.54-9.68-2.69-14.76a22,22,0,0,1,2.85-7.51,4.8,4.8,0,0,0,.82-3.21,19.41,19.41,0,0,0-.62-3.63,23.67,23.67,0,0,1-.75-3.82,5.36,5.36,0,0,1,1.13-3.67c1.27-2,2.58-3.91,3.95-5.81a58.52,58.52,0,0,1,9.73-10.88,31.18,31.18,0,0,1,2.84-2.11,9.42,9.42,0,0,1,2.87-1.62,19.71,19.71,0,0,1,2.39.19,17.79,17.79,0,0,0,3.09-.31c4-.69,8-2.5,12.09-2.35a7.23,7.23,0,0,1,5.13,2.28c.68.7,1.74-.36,1.06-1.06Z" fill="#262521"/><g opacity="0.3"><path d="M780.52,787.61c-9.74-.25-15.68,7.75-25.27,11.44-4.79,1.41-11.67,2.33-12.92,8.09,4,22.54-10.38,11-.35,37.21-6.87,18.27,8.84,33.9,27,33.2,6.87,1.59,12.72,6.69,19.6,8.23C788,880.39,780.49,801,780.52,787.61Z" fill="#262521"/><path d="M780.52,785.36c-8.1-.12-14.16,5.07-20.77,9a27.13,27.13,0,0,1-5.23,2.6c-1.47.48-3,.78-4.48,1.22-3.21,1-6.41,2.33-8.43,5.13a9.05,9.05,0,0,0-1.08,2.07,5.51,5.51,0,0,0-.24,3.14,37.33,37.33,0,0,1,.49,4.61,24.87,24.87,0,0,1-.11,3.66c0,.38.06-.23-.06.37l-.12.63c-.1.44-.22.87-.36,1.3-.07.22-.5,1.26-.22.66-.16.33-.31.67-.49,1-.31.58-.65,1.15-1,1.71a16.72,16.72,0,0,0-1.83,3.9,16.26,16.26,0,0,0-.18,7.08,57.55,57.55,0,0,0,3.4,11.55v-1.2a25.54,25.54,0,0,0,5,26.26,31.18,31.18,0,0,0,18,9.42c2.47.36,5.11.06,7.48.84,6.12,2,11.3,6.2,17.65,7.68,1.28.3,3-.64,2.84-2.17-1.19-10.59-2-21.22-3-31.83-1.49-16.5-3-33-4.16-49.51-.4-5.59-.92-11.22-.91-16.83,0-2.89-4.5-2.9-4.5,0,0,4.81.41,9.64.74,14.43.54,7.7,1.16,15.39,1.81,23.08q2,24,4.28,47.92c.4,4.24.77,8.5,1.24,12.74l2.85-2.17c-5-1.17-9.26-4.08-13.88-6.18-2.35-1.06-4.78-2.12-7.37-2.11a27.53,27.53,0,0,1-6.21-.66c-7.49-1.7-14.46-6.55-17.55-13.75a20.11,20.11,0,0,1-1.35-11.08,23.56,23.56,0,0,1,.73-3.12c.14-.47.32-.94.46-1.41a3.62,3.62,0,0,0-.27-2.62c-.82-2.2-1.58-4.42-2.18-6.68-.23-.85-.43-1.69-.6-2.55-.08-.41-.16-.83-.22-1.25,0-.05-.06-.45,0-.09,0-.22,0-.44-.07-.66a17.15,17.15,0,0,1-.07-1.76c0-.23,0-.46,0-.69s0-.27,0-.41-.11.5,0,0,.18-.83.31-1.25c.06-.19.13-.37.19-.56.19-.57-.19.34.08-.17.37-.69.74-1.38,1.15-2.05a18.74,18.74,0,0,0,2.51-6,33.42,33.42,0,0,0-.42-12v1.2c.69-2.87,3.23-4.13,5.85-5,1.54-.5,3.12-.88,4.68-1.31a26.35,26.35,0,0,0,5.48-2.38c6.4-3.48,12.28-9.32,20-9.21C783.42,789.91,783.42,785.41,780.52,785.36Z" fill="#262521"/></g><path d="M781.57,791.6c-5.45-.09-12,3.64-17.43,2.43-8.91,4.14-15.82,14.38-21,22.5-.91,3.83,1.78,7.76,1.13,11.64-7,10.85-3.38,19.85,2.7,31,3.43,13.88,18.41,22.18,31.76,23.68,3.3-1,6.92-.7,10.47-.55C788.61,878.06,781.9,803.59,781.57,791.6Z" fill="#262521"/><path d="M781.57,790.85c-5.1,0-9.8,2.6-14.88,2.67-.93,0-2.06-.41-2.93-.14a14.11,14.11,0,0,0-3.17,1.77,37,37,0,0,0-5.42,4.4,73.46,73.46,0,0,0-9.36,11.51q-1,1.47-2,3a7.71,7.71,0,0,0-1.59,3.1c-.32,2.46.54,4.84,1,7.21a6.14,6.14,0,0,1-.2,4.27c-.65,1.27-1.37,2.47-1.9,3.79a21,21,0,0,0-1.52,7.17c-.15,5.13,1.68,10.06,3.87,14.62q.88,1.84,1.86,3.66a27.87,27.87,0,0,1,1.52,3.82,26.77,26.77,0,0,0,2.79,5.62,33,33,0,0,0,9,9,43.84,43.84,0,0,0,13.36,6.05c1.14.3,2.3.57,3.46.78a12.85,12.85,0,0,0,3.35.44c.82-.08,1.63-.39,2.45-.49a22.61,22.61,0,0,1,2.73-.17c1.7,0,3.4.07,5.1.14a.76.76,0,0,0,.75-.75c-.42-3.18-.65-6.39-.95-9.58q-.9-9.75-1.77-19.51c-1.36-15.35-2.7-30.71-3.87-46.08-.4-5.16-.86-10.33-1-15.51a.75.75,0,0,0-1.5,0c.13,4.42.51,8.84.84,13.25q.8,10.7,1.71,21.39,1.86,22.26,3.92,44.52c.36,3.84.63,7.7,1.13,11.52l.75-.75a46.73,46.73,0,0,0-8.28.08,12,12,0,0,1-3.63.28c-1-.16-2.1-.36-3.13-.6a43.07,43.07,0,0,1-11.86-4.57,34,34,0,0,1-9.59-7.9,26.67,26.67,0,0,1-3.35-5.22c-1-2-1.39-4.15-2.42-6.09-2.46-4.57-4.88-9.42-5.58-14.63a19.51,19.51,0,0,1,.4-7.34,21.07,21.07,0,0,1,1.16-3.35c.3-.68.64-1.35,1-2a12.22,12.22,0,0,0,1.06-1.81c.68-2.08-.33-4.83-.81-6.84a13.76,13.76,0,0,1-.47-3.61c.05-1.34.94-2.36,1.65-3.44a93.77,93.77,0,0,1,8.47-11.35,42.59,42.59,0,0,1,5.88-5.51,29.93,29.93,0,0,1,3.23-2.12,4.09,4.09,0,0,1,1.39-.68A16.05,16.05,0,0,1,766,795c5.36.24,10.29-2.67,15.62-2.66A.75.75,0,0,0,781.57,790.85Z" fill="#262521"/><g opacity="0.3"><path d="M430.65,833c-1.87-3.46-2.29-7.85-5.24-10.45-2.6-2.29-6.39-2.49-9.49-4-5.12-2.5-8.55-8.64-14.23-9l-.16,0v96.69a19.42,19.42,0,0,0,2,.39c6.23.47,10-5.27,14.4-8.6,15.79-4.07,16.44-8.91,15.19-24.27.65-9.13,7.43-16.82,8.77-25.88C442.81,840.83,432.87,838.88,430.65,833Z" fill="#262521"/><path d="M432.59,831.82c-1.7-3.24-2.24-7-4.6-9.86-2.54-3.14-6.49-3.7-10.06-5-3-1.14-5.28-3.62-7.71-5.65-2.6-2.17-5.26-3.73-8.69-4a2.28,2.28,0,0,0-2.25,2.25v84.77c0,3.9-.16,7.85,0,11.75a1,1,0,0,1,0,.17,2.29,2.29,0,0,0,1.66,2.17,13,13,0,0,0,11.46-2.61c1.62-1.23,3.07-2.63,4.56-4a13,13,0,0,1,1.9-1.66c.46-.28-.36.12.18-.07l.69-.18,1.47-.42c5.06-1.52,10.69-3.82,13-8.95a20,20,0,0,0,1.54-7.72c0-1.51,0-3-.08-4.51a30.57,30.57,0,0,1-.24-5.4c1.11-8.77,7.47-15.91,8.65-24.7.51-3.82-1.6-6.87-4.41-9.21-2.31-1.92-5.83-4-6.87-6.57a2.32,2.32,0,0,0-2.76-1.57,2.26,2.26,0,0,0-1.57,2.77c1.18,3,3.45,5,5.94,6.91,1.92,1.49,4.53,3.29,5.11,5.35.38,1.33-.06,3-.49,4.52A39.81,39.81,0,0,1,437,856c-1.72,3.89-3.72,7.69-5,11.76a19.46,19.46,0,0,0-1.11,6.35c.08,1.64.25,3.27.32,4.9.06,1.38.09,2.77,0,4.15,0,.63-.07,1.25-.14,1.87,0,.07-.05.45,0,.06,0,.11,0,.22-.05.33-.05.31-.11.62-.17.93a14.65,14.65,0,0,1-.4,1.44c0,.1-.28.74-.2.54s-.21.45-.29.58a8.14,8.14,0,0,1-.74,1.19c-.15.21.05-.06.07-.08l-.24.29c-.2.21-.39.43-.6.63l-.51.47-.31.26c.29-.24,0,0,0,0a16.36,16.36,0,0,1-1.49,1,20.81,20.81,0,0,1-3.48,1.59c-.88.32-1.76.61-2.65.88a22.81,22.81,0,0,0-3,.85c-1.79.82-3.35,2.72-4.78,4.05a21.4,21.4,0,0,1-4.66,3.54,7.49,7.49,0,0,1-5.48.51l1.65,2.17V813.48a37.25,37.25,0,0,0,0-3.81v-.17l-2.25,2.25c2.6.23,4.65,2,6.54,3.6,2.47,2.17,4.87,4.37,7.95,5.63,2.85,1.17,6.62,1.42,8.66,4s2.51,6.23,4,9.12C430,836.66,433.93,834.38,432.59,831.82Z" fill="#262521"/></g><path d="M435.48,843.49c-7-2.49-6.85-9.73-9.12-16.09C421.82,819.83,410,811.29,401,814l-.48.15v88.7c5.12.21,10.08.22,13.67-3.88,13.3-11.48,22.77-25.57,21.35-43C436.39,851.58,438.8,846.33,435.48,843.49Z" fill="#262521"/><path d="M435.68,842.77c-3.27-1.23-5.08-3.88-6.16-7.09-.51-1.53-.89-3.11-1.3-4.67a16,16,0,0,0-1.53-4.51,32.26,32.26,0,0,0-16-12.69,16.53,16.53,0,0,0-10.33-.44.78.78,0,0,0-.56.73v85.06c0,1.14-.1,2.34,0,3.48a.86.86,0,0,1,0,.16.77.77,0,0,0,.75.75,29.49,29.49,0,0,0,8-.43,12.91,12.91,0,0,0,6.24-3.67c2-1.92,4.11-3.69,6-5.68a74.69,74.69,0,0,0,5.28-6.1c6.44-8.36,10.58-18.38,10.4-29,0-.78-.09-1.57-.11-2.35a9,9,0,0,1,.43-2.29c.36-1.42.76-2.84,1-4.29.38-2.46.19-5-1.74-6.73-.71-.65-1.78.41-1.06,1.06,1.92,1.76,1.59,4.37,1.08,6.69-.24,1.08-.54,2.15-.8,3.23a11.51,11.51,0,0,0-.33,3.51,40.9,40.9,0,0,1-2.08,14.77c-3.2,9.55-9.72,17.61-17.07,24.32-2.1,1.92-4,4.05-6.81,4.91a25.52,25.52,0,0,1-8.41.6l.75.75V815.45a4.82,4.82,0,0,0,0-1.2.75.75,0,0,1,0-.15l-.55.72c6.68-2.06,13.73,1.63,18.74,5.86a33.92,33.92,0,0,1,3.68,3.61,13.39,13.39,0,0,1,2.75,4.09c1,3,1.5,6.19,2.71,9.15a11.41,11.41,0,0,0,6.67,6.69C436.18,844.55,436.57,843.11,435.68,842.77Z" fill="#262521"/><g opacity="0.3"><path d="M599,1026.28c-13.92-4.93-20.17,5.74-31.7,10.18-4.78,1.4-11.67,2.32-12.91,8.08,4,22.55-10.39,11-.35,37.22-6.87,18.27,8.84,33.89,27,33.19,7.39,1.72,13.59,7.48,21.17,8.52,6.23.47,10-5.28,14.39-8.6,15.8-4.07,16.44-8.91,15.2-24.27.65-9.13,7.43-16.83,8.77-25.88.93-7-9-9-11.24-14.88-1.87-3.46-2.28-7.86-5.24-10.46-2.59-2.28-6.38-2.48-9.49-4-5.12-2.5-8.54-8.63-14.23-9" fill="#262521"/><path d="M599.57,1024.11a21.38,21.38,0,0,0-12.06-.8,32.28,32.28,0,0,0-9.61,4.52,86.86,86.86,0,0,1-9.53,5.73c-3.19,1.52-6.78,1.89-10,3.36a11.67,11.67,0,0,0-4.18,3.07,9.31,9.31,0,0,0-1.39,2.22,5.87,5.87,0,0,0-.46,3.67,38.29,38.29,0,0,1,.5,5c0,.66,0,1.31,0,2,0,.29,0,.58-.06.88,0,.13,0,.27,0,.41-.06.5.06-.33,0,.19a17.08,17.08,0,0,1-.72,2.7l-.13.34s.22-.48,0-.14c-.08.17-.15.34-.24.51-.16.34-.34.67-.53,1a30.24,30.24,0,0,0-2.21,4.17,14,14,0,0,0-.61,6.72,54.2,54.2,0,0,0,3.56,12.72v-1.19a25.46,25.46,0,0,0,1.53,21.51,29.42,29.42,0,0,0,16.76,13.07,32.5,32.5,0,0,0,5.7,1.22c.85.11,1.71.19,2.57.23a15,15,0,0,1,2.77.12c4.1,1,7.78,3.44,11.52,5.27s8.19,3.77,12.52,2.92c3.87-.75,6.88-3.57,9.66-6.17.62-.58,1.24-1.16,1.89-1.72a3.68,3.68,0,0,1,2.13-1,45.24,45.24,0,0,0,4.81-1.61,19.45,19.45,0,0,0,6.83-4.21c3.67-3.79,4-9.18,3.87-14.18-.06-1.71-.18-3.41-.31-5.11a16,16,0,0,1,1-6c1.32-4.11,3.41-7.91,5.08-11.87,1.48-3.51,3.37-7.94,2.4-11.81-.76-3-3.2-5.14-5.56-7-1.21-1-2.43-1.84-3.56-2.92a9.47,9.47,0,0,1-2.22-3.15c-1.71-3.64-2.45-8.13-5.6-10.91s-7.6-2.83-11.12-5c-3.18-2-5.56-5-8.8-6.93a12.38,12.38,0,0,0-5.39-1.71,2.27,2.27,0,0,0-2.25,2.25,2.3,2.3,0,0,0,2.25,2.25,9.65,9.65,0,0,1,5.09,2.48c1.84,1.5,3.53,3.16,5.44,4.58a21.13,21.13,0,0,0,6.74,3.16c2.14.64,4.44,1.25,5.83,3.13s1.92,4.27,2.77,6.41a18.81,18.81,0,0,0,3.14,5.66c2.31,2.65,5.93,4.38,7.94,7a4.4,4.4,0,0,1,.91,4,34.32,34.32,0,0,1-2.33,7.19c-2.12,4.9-4.84,9.68-5.9,15-.82,4.16.09,8.39-.06,12.6,0,.74-.08,1.49-.17,2.22,0-.37-.09.56-.11.68-.07.34-.14.68-.23,1s-.18.63-.29.94c0,.15-.1.3-.16.45-.14.35.23-.47,0,.08a11.27,11.27,0,0,1-.94,1.61c-.34.49.19-.22,0,.07l-.31.36q-.33.36-.69.69a6.57,6.57,0,0,1-1.36,1,20.28,20.28,0,0,1-4.25,2.06c-.88.32-1.77.6-2.66.87a10.87,10.87,0,0,0-3.71,1.35c-1.78,1.38-3.36,3-5,4.48a13.42,13.42,0,0,1-5.25,3.24c-2.29.61-4.66-.21-6.8-1-4.94-1.89-9.31-5-14.36-6.68a10.72,10.72,0,0,0-3.54-.58,29.18,29.18,0,0,1-3.62-.21,27.83,27.83,0,0,1-6.11-1.49,25.49,25.49,0,0,1-10.2-6.8,21.13,21.13,0,0,1-5.16-10.47,19.87,19.87,0,0,1-.09-6.11,23.6,23.6,0,0,1,.7-3.19c.15-.53.32-1,.5-1.58a3.3,3.3,0,0,0-.13-2.58c-.88-2.37-1.7-4.76-2.34-7.2-.21-.83-.41-1.66-.56-2.5q-.12-.61-.21-1.23c0,.38,0-.1,0-.19,0-.24,0-.49-.07-.74a15.88,15.88,0,0,1,0-1.69c0-.28,0-.56.07-.83-.07.67,0-.21.08-.38a12.87,12.87,0,0,1,.37-1.25c0-.09.07-.17.1-.25.16-.44-.24.49,0,.07.09-.19.18-.38.28-.56.86-1.68,1.94-3.2,2.65-5a19.69,19.69,0,0,0,1.15-8.09,49.66,49.66,0,0,0-.78-6.54v1.19c.65-2.75,3-4,5.55-4.88,1.45-.49,2.94-.86,4.41-1.25a25.18,25.18,0,0,0,4.75-1.86c5.54-2.76,10.32-7.34,16.29-9.18a17,17,0,0,1,10.84.48c2.74,1,3.92-3.4,1.19-4.34Z" fill="#262521"/></g><path d="M598.49,1031.51c-5.91-6.37-15.72,1.62-23.31-.08-8.92,4.15-15.83,14.38-21,22.51-.9,3.82,1.78,7.76,1.13,11.63-7,10.85-3.37,19.85,2.7,31,3.44,13.88,18.41,22.17,31.76,23.67,8.06-2.31,18.06,2.52,24.14-4.42,13.3-11.49,22.76-25.57,21.35-43,.84-4.29,3.24-9.54-.08-12.38-6.94-2.49-6.84-9.73-9.11-16.1-4.54-7.56-16.34-16.1-25.35-13.44" fill="#262521"/><path d="M599,1031c-3-3.13-7.14-3-11.1-2.14-2.16.48-4.27,1.14-6.44,1.6a19.1,19.1,0,0,1-3.21.46c-1,.06-2.08-.26-3.09-.22s-2.15,1-2.93,1.48a32.55,32.55,0,0,0-2.89,2,44.32,44.32,0,0,0-5.58,5.29,96.18,96.18,0,0,0-8.91,12,7.67,7.67,0,0,0-1.59,3.09,11.19,11.19,0,0,0,.2,3.6c.24,1.28.62,2.54.88,3.82a12.55,12.55,0,0,1,.26,2,5.11,5.11,0,0,1-1,2.86,22,22,0,0,0-2.62,14.52,33.62,33.62,0,0,0,2.29,7.47c.54,1.28,1.13,2.54,1.74,3.78a39.52,39.52,0,0,1,2.29,4.49,34.45,34.45,0,0,0,2.52,6.17,28.94,28.94,0,0,0,3.68,5.06c6,6.66,14.77,10.78,23.53,12.28a10.38,10.38,0,0,0,2.86.35c1.18-.14,2.31-.5,3.5-.59a63.24,63.24,0,0,1,7,.08c4.24.17,8.8.14,12.32-2.58.91-.7,1.67-1.55,2.53-2.31s2-1.77,2.91-2.68a76.89,76.89,0,0,0,5.33-5.65,57.52,57.52,0,0,0,8.09-12.11,43.89,43.89,0,0,0,4.13-13.52,41.58,41.58,0,0,0,.29-7.65c-.13-2.44.94-4.79,1.33-7.19.32-1.93.4-4.07-.72-5.78a5.05,5.05,0,0,0-2.42-1.79,8.79,8.79,0,0,1-2.55-2c-2.84-3.13-3.28-7.84-4.47-11.73-1.25-4.07-5-7.49-8.3-10a27,27,0,0,0-12.42-5.71,14.73,14.73,0,0,0-6,.35.75.75,0,0,0,.4,1.45c4.24-1.19,8.7.1,12.49,2.1a32.87,32.87,0,0,1,10.31,8.55,11.83,11.83,0,0,1,1.73,2.59,21,21,0,0,1,.9,3c.52,1.92,1,3.86,1.64,5.73a14.34,14.34,0,0,0,2.58,4.63,9.57,9.57,0,0,0,1.85,1.63c.83.58,2,.84,2.71,1.57,1.55,1.66,1,4.42.57,6.4-.24,1-.51,2-.77,3a11.29,11.29,0,0,0-.32,3.52,40.67,40.67,0,0,1-1.8,13.9c-2.81,9-8.62,16.78-15.34,23.29-1.66,1.62-3.37,3.25-5.11,4.77a11.2,11.2,0,0,1-5.83,2.5c-4.27.62-8.6-.23-12.88,0a20.47,20.47,0,0,0-2.92.38,8.56,8.56,0,0,1-3.38-.1,43.89,43.89,0,0,1-6.1-1.53,41.46,41.46,0,0,1-11.4-5.71,30.12,30.12,0,0,1-8.66-9.39,25.29,25.29,0,0,1-1.39-2.87c-.44-1.07-.65-2.21-1.06-3.27a34.61,34.61,0,0,0-1.74-3.3c-.64-1.25-1.26-2.52-1.84-3.81-2.06-4.61-3.54-9.68-2.68-14.76a21.83,21.83,0,0,1,2.85-7.51,4.92,4.92,0,0,0,.82-3.21,20.28,20.28,0,0,0-.63-3.63,24.81,24.81,0,0,1-.75-3.82,5.36,5.36,0,0,1,1.13-3.67c1.28-2,2.58-3.9,3.95-5.81a58.52,58.52,0,0,1,9.73-10.88,32.63,32.63,0,0,1,2.84-2.11,9.54,9.54,0,0,1,2.87-1.62,17.92,17.92,0,0,1,2.39.2,19.06,19.06,0,0,0,3.1-.32c4-.69,8-2.5,12.08-2.35A7.31,7.31,0,0,1,598,1032c.67.7,1.73-.36,1.06-1.06Z" fill="#262521"/><g opacity="0.3"><path d="M804.62,1106c-1.68-9.25-6-78.32-6.23-89.2h-.12c-13.91-4.93-20.16,5.75-31.69,10.19-4.79,1.4-11.67,2.32-12.91,8.08,4,22.54-10.39,11-.36,37.21-6.86,18.27,8.85,33.9,27,33.2,7.39,1.71,13.58,7.48,21.16,8.51C803.34,1114.11,805,1108.31,804.62,1106Z" fill="#262521"/><path d="M806.79,1105.38c0-.25-.09-.51-.13-.77l-.06-.46c-.05-.34,0,.31,0,.3s0-.25,0-.37q-.17-1.3-.3-2.61c-.25-2.34-.47-4.69-.67-7-.58-6.59-1.07-13.19-1.55-19.79q-1.56-21.8-2.78-43.61c-.26-4.75-.56-9.5-.65-14.26a2.31,2.31,0,0,0-2.25-2.25c.2,0-.43-.23-.68-.31-.56-.16-1.12-.31-1.68-.44a23.64,23.64,0,0,0-3.24-.47,19.37,19.37,0,0,0-5.68.42,30.82,30.82,0,0,0-9.64,4.43,98.72,98.72,0,0,1-9.5,5.75c-3.19,1.55-6.78,1.95-10,3.39s-7,4.73-6.38,8.71a39.92,39.92,0,0,1,.56,5.11c0,.71,0,1.41,0,2.12,0,.29,0,.59-.05.88,0,.13-.13,1-.06.52a16,16,0,0,1-.71,2.82c0,.1-.08.19-.11.28-.17.47.17-.36,0-.07l-.24.51c-.17.34-.35.67-.53,1a33.2,33.2,0,0,0-2.22,4.16,14.07,14.07,0,0,0-.64,6.78,55.4,55.4,0,0,0,3.56,12.73v-1.2a25.59,25.59,0,0,0-.32,17.45,27.37,27.37,0,0,0,10.32,13.12,31.86,31.86,0,0,0,16.56,5.47c.7,0,1.4,0,2.09,0a8.48,8.48,0,0,1,2.37.63,36.54,36.54,0,0,1,4.35,1.91,101.59,101.59,0,0,0,9.46,4.57,16.24,16.24,0,0,0,5.59,1.39,4.18,4.18,0,0,0,3.36-2.21,13.13,13.13,0,0,0,1.87-8.62,2.26,2.26,0,0,0-2.77-1.57,2.3,2.3,0,0,0-1.57,2.77c-.07-.45,0,.58,0,.77a5.74,5.74,0,0,1-.15,1.07,10.72,10.72,0,0,1-.91,2.77l-.25.44c-.4.65.1-.17-.12.17s-.31.06,0,.07,1,0,.56-.17a16.07,16.07,0,0,0-1.73-.37c-.76-.2-1.5-.44-2.24-.71-5.09-1.86-9.55-5.13-14.73-6.81a11.39,11.39,0,0,0-3.71-.59,29.19,29.19,0,0,1-3.62-.22,28.28,28.28,0,0,1-6.4-1.65,25.2,25.2,0,0,1-10.15-7.1,20.12,20.12,0,0,1-4.64-17.21,27.51,27.51,0,0,1,1-3.48,3.26,3.26,0,0,0,.09-2.34c-.27-.83-.61-1.64-.9-2.46a58.25,58.25,0,0,1-1.95-6.61,16.85,16.85,0,0,1-.54-4.28c0-.27,0-.54,0-.8s.12-1,0-.37a10.13,10.13,0,0,1,.36-1.54c.07-.21.15-.42.22-.62s-.22.42.08-.16c.2-.37.38-.74.59-1.09a23.71,23.71,0,0,0,2.87-6.19c1-4.15.46-8.51-.26-12.66v1.2c.66-2.81,3.12-4.08,5.7-4.93,1.49-.5,3-.87,4.54-1.28a25,25,0,0,0,4.77-1.94c5.58-2.84,10.44-7.52,16.57-9.2a15.71,15.71,0,0,1,5.2-.5c2,.14,3.82,1.07,5.77,1.24l-2.25-2.25c.19,10.84,1.05,21.68,1.73,32.49.91,14.47,1.87,28.94,3.09,43.39.4,4.63.67,9.34,1.49,13.92a2.27,2.27,0,0,0,2.77,1.57A2.31,2.31,0,0,0,806.79,1105.38Z" fill="#262521"/></g><path d="M798.56,1021.77l-.78.24c-5.91-6.38-15.71,1.62-23.31-.08-8.91,4.14-15.82,14.38-21,22.5-.9,3.83,1.78,7.76,1.13,11.64-7,10.85-3.38,19.85,2.7,31,3.43,13.88,18.41,22.18,31.76,23.68,5.34-1.54,10.53.07,15.87-.7C804.64,1108.68,799,1031,798.56,1021.77Z" fill="#262521"/><path d="M798.36,1021.05l-.78.23.73.2c-3.29-3.42-7.84-3-12.08-1.91-2.3.56-4.58,1.28-6.92,1.64a14.17,14.17,0,0,1-3.62.16,4.93,4.93,0,0,0-1.42-.17,7.45,7.45,0,0,0-1.78.9c-4.62,2.59-8.41,6.48-11.71,10.57-1.75,2.18-3.39,4.45-5,6.76-.7,1-1.38,2.07-2.06,3.12a5.94,5.94,0,0,0-1.26,3.47c0,3,1.38,5.7,1.42,8.64,0,1.63-1.34,3.21-2,4.67a21.36,21.36,0,0,0-1.41,4.1c-1.25,5.39,0,10.79,2.05,15.8.58,1.38,1.21,2.73,1.88,4.07a30.89,30.89,0,0,1,2.27,4.62,28.27,28.27,0,0,0,2.78,6.41,32.52,32.52,0,0,0,10,10.14,44.2,44.2,0,0,0,15.08,6.28c1.26.27,2.53.48,3.81.65a6.78,6.78,0,0,0,2.27-.29,19.72,19.72,0,0,1,3.07-.31c3.74-.12,7.46.47,11.19,0a.77.77,0,0,0,.73-1c0,.07,0,.18,0,0s0-.36,0-.54l-.15-1.78c-.16-2-.31-4-.46-6q-.75-9.76-1.45-19.52-1.68-22.9-3.27-45.81c-.33-4.79-.69-9.58-.93-14.38,0-1-1.55-1-1.5,0,.56,11.19,1.48,22.38,2.28,33.55q1.57,22.23,3.24,44.45c.18,2.43.36,4.86.56,7.29a30.85,30.85,0,0,0,.29,3.17l.72-1a60.54,60.54,0,0,1-9.33,0,26.8,26.8,0,0,0-4.39.22,17.88,17.88,0,0,1-2.48.43,10.8,10.8,0,0,1-1.77-.26,44,44,0,0,1-13.11-4.39,34.84,34.84,0,0,1-10.8-8.56,25.83,25.83,0,0,1-3.64-5.84,24.07,24.07,0,0,1-1.21-3.36,20,20,0,0,0-1.8-3.77c-2.55-4.92-4.94-10.26-4.88-15.91a19.72,19.72,0,0,1,1.91-8.16c.57-1.22,1.73-2.51,2-3.82a10.74,10.74,0,0,0-.21-3.62c-.49-2.6-2-5.9-.48-8.34,1.37-2.11,2.76-4.21,4.22-6.25A56.88,56.88,0,0,1,769.42,1026a29,29,0,0,1,3.51-2.4,6.17,6.17,0,0,1,1.64-.87,8.88,8.88,0,0,1,1.43.18,23.4,23.4,0,0,0,7.33-1c4.52-1.16,10.15-3.24,13.92.67a.73.73,0,0,0,.73.19l.78-.24C799.68,1022.21,799.28,1020.76,798.36,1021.05Z" fill="#262521"/><g opacity="0.3"><path d="M845.68,1163.54c.25-7.06-9.83-8-12.61-13.73-2.2-3.27-3-7.61-6.22-9.91-2.8-2-6.59-1.86-9.83-3.07-2.48-.93-4.68-2.68-6.89-4.27,0,5.39,9.6,85.58,10.46,89.6,2.13-2,4-4.51,6-6.41,15.33-5.56,15.52-10.43,12.8-25.6C839.2,1181,845.21,1172.68,845.68,1163.54Z" fill="#262521"/><path d="M847.93,1163.54c.1-6.63-6.39-8.79-10.62-12.19-2.36-1.89-3.46-4.72-4.8-7.51-1.81-3.76-4.32-6.5-8.45-7.63-2.17-.59-4.47-.75-6.56-1.6a31.13,31.13,0,0,1-6.23-4c-1.42-1-3.4.36-3.39,1.94,0,3.54.6,7.13,1,10.64.75,7,1.55,14,2.36,21.06q2.64,23,5.51,45.93c.53,4.16.84,8.45,1.7,12.57a2.28,2.28,0,0,0,3.77,1c2.11-2,3.88-4.4,6-6.41l-1,.58c6.23-2.27,13.61-5.38,15.31-12.52a26.79,26.79,0,0,0,0-9.82c-.27-2-.95-4.22-.89-6.26a30,30,0,0,1,1.46-7.91c1.82-5.93,4.42-11.59,4.8-17.87.17-2.89-4.33-2.88-4.5,0-.35,5.81-3,11.18-4.64,16.68a34.44,34.44,0,0,0-1.6,8.48c-.11,2.4.58,4.82.91,7.2a36.7,36.7,0,0,1,.4,5.18,18.08,18.08,0,0,1-.12,2.21c0-.44-.09.48-.12.62-.09.39-.19.77-.31,1.14-.05.16-.38,1-.18.54-.13.29-.28.58-.43.85s-.3.49-.46.73c-.06.09-.33.44-.06.1a5.58,5.58,0,0,1-.39.46,12.26,12.26,0,0,1-3.47,2.74,39.53,39.53,0,0,1-6.24,2.86,5.9,5.9,0,0,0-2.3,1.42c-.62.61-1.21,1.25-1.79,1.9-1.19,1.33-2.35,2.68-3.63,3.92l3.76,1c-.22-1.08-.34-2.19-.49-3.28,0-.19,0-.38-.08-.57-.07-.56.07.51,0-.25-.07-.55-.15-1.09-.22-1.63-.16-1.28-.33-2.56-.49-3.84q-1.31-10.27-2.54-20.55c-1.85-15.39-3.68-30.79-5.34-46.2-.45-4.18-1.16-8.47-1.19-12.68L809,1134.5a45.94,45.94,0,0,0,5.18,3.48,20.85,20.85,0,0,0,5.75,1.93,16.49,16.49,0,0,1,5.13,1.5,8.34,8.34,0,0,1,3,3.58c1.5,2.83,2.58,6,4.81,8.39,1.84,2,4.27,3.27,6.5,4.72a12.65,12.65,0,0,1,3.08,2.52,3.39,3.39,0,0,1,.37.53,1.92,1.92,0,0,1,.18.31c.16.28.06.06.13.24a3.88,3.88,0,0,1,.3,1.84C843.38,1166.44,847.88,1166.44,847.93,1163.54Z" fill="#262521"/></g><path d="M839.88,1159.74c-7.15-1.81-7.74-9-10.62-15.15-3.88-5.25-11.76-10.64-19.13-11.68,0,5.27,9.34,84,10.06,87.34A10.69,10.69,0,0,0,824,1217c12.14-12.7,20.21-27.63,17.13-44.9C841.56,1167.71,843.45,1162.25,839.88,1159.74Z" fill="#262521"/><path d="M840.08,1159c-3.35-.91-5.39-3.25-6.8-6.32-.69-1.5-1.22-3.07-1.8-4.62a18.21,18.21,0,0,0-1.83-4.22,32.61,32.61,0,0,0-19.32-11.67.76.76,0,0,0-1,.72c0,3.46.58,7,.94,10.39q1.08,10.28,2.28,20.55,2.55,22.49,5.32,45c.48,3.86.75,7.84,1.54,11.65a.76.76,0,0,0,1.1.45c2.19-1.17,3.61-3,5.25-4.78s3.34-3.77,4.88-5.76a63.88,63.88,0,0,0,7.46-12,46.36,46.36,0,0,0,4-13.11,41.45,41.45,0,0,0,.41-6.77c0-1.2-.11-2.39-.24-3.58a15.16,15.16,0,0,1-.3-3.73c.53-4,2.09-9.19-1.74-12.07-.77-.58-1.52.72-.76,1.3,3.16,2.37,1.4,7.62,1,10.84a10.89,10.89,0,0,0,.23,3c.15,1.23.25,2.46.3,3.7a41.49,41.49,0,0,1-.26,6.4c-1.06,8.76-5.08,16.86-10.28,23.89-1.57,2.12-3.26,4.16-5,6.13s-3.32,4.06-5.64,5.3l1.1.45c-.65-3.1-.88-6.33-1.27-9.47q-1.26-10.08-2.45-20.17c-1.78-15-3.55-30-5.15-45.08-.44-4.09-1.13-8.29-1.16-12.42l-1,.73a28.2,28.2,0,0,1,11.39,4.63c3,2,6.54,4.72,7.95,8.2,2.29,5.64,3.74,12.19,10.41,14A.75.75,0,0,0,840.08,1159Z" fill="#262521"/><g opacity="0.3"><path d="M848.22,783c-.43.15-.87.31-1.32.45-4.87,1.08-11.79,1.56-13.41,7.22,2.53,22.76-11.08,10.27-2.77,37.11-8,17.79,6.63,34.4,24.8,34.89,1.79.54,1.5,1.33,3.17,2.22C858.19,860.2,849.07,793.55,848.22,783Z" fill="#262521"/><path d="M847.63,780.8c-4.74,1.68-10.47,1.37-14.14,5.39a9.58,9.58,0,0,0-2,3.25c-.53,1.44-.07,3.15,0,4.67.05,1,.06,2.1,0,3.15,0,.49-.06,1-.11,1.46,0,0-.1.78,0,.29,0,.21-.06.42-.1.62a15.86,15.86,0,0,1-.54,2.16c0,.14-.34.92-.23.64s0,.12-.07.15-.17.36-.25.53a22.91,22.91,0,0,1-1.68,2.66,14.3,14.3,0,0,0-2.67,6.65c-.61,5.3,1.17,10.94,2.7,15.93l.23-1.73c-3.25,7.32-3.45,15.41.28,22.6a29.72,29.72,0,0,0,17,14,33.56,33.56,0,0,0,6.65,1.44,9.8,9.8,0,0,1,2.64.31c.6.4,1.41,1.35,2.22,1.82,1.35.78,3.57-.19,3.38-1.95-1-9-2.34-17.91-3.53-26.85-1.82-13.71-3.65-27.42-5.35-41.15-.58-4.62-1.21-9.25-1.59-13.89a2.3,2.3,0,0,0-2.25-2.25A2.27,2.27,0,0,0,846,783c.85,10.39,2.44,20.75,3.78,31.08q2.61,20,5.29,40c.48,3.61,1,7.22,1.4,10.84l3.39-1.94c-.8-.47-1.32-1.24-2.11-1.74a7.68,7.68,0,0,0-3.8-.88,27.56,27.56,0,0,1-6.35-1.3,26.2,26.2,0,0,1-10.25-6.16,21,21,0,0,1-5.39-22.05c.43-1.29,1.24-2.47.89-3.85s-.8-2.71-1.16-4.07a50.58,50.58,0,0,1-1.22-5.82,20.17,20.17,0,0,1-.14-4.11l0-.35c.06-.58-.09.49,0-.06a6.18,6.18,0,0,1,.12-.62,13.44,13.44,0,0,1,.41-1.37c.15-.44-.18.39,0,.11,0-.09.08-.19.13-.29s.17-.34.27-.5a11.47,11.47,0,0,1,.64-1.06c.45-.67.94-1.33,1.38-2a16.32,16.32,0,0,0,2.37-6,28.89,28.89,0,0,0,.42-5.8c0-1.16-.1-2.31-.21-3.46a2.68,2.68,0,0,1,.83-2.2c2.87-3.26,8.35-2.88,12.15-4.23C851.53,784.17,850.36,779.82,847.63,780.8Z" fill="#262521"/></g><path d="M849.21,782.87c-6.11,4.61-11.33,11.41-15.56,17.13-1.15,3.76,1.28,7.86.38,11.69-7.71,10.37-4.66,19.59.68,31.09,2.34,13.08,13,22,25.34,25.08C859.3,862.22,850.05,793.48,849.21,782.87Z" fill="#262521"/><path d="M848.84,782.22a58.21,58.21,0,0,0-8.51,8.1,97.22,97.22,0,0,0-7.09,9c-.91,1.33-.71,3.35-.51,4.88a40.81,40.81,0,0,1,.75,5.7c0,2.06-1.8,3.8-2.68,5.62a21.59,21.59,0,0,0-1.7,4.84c-1.5,7,1,13.88,3.77,20.18a18.16,18.16,0,0,1,1.18,2.81c.21.82.36,1.64.59,2.45a30,30,0,0,0,1.65,4.45,30.62,30.62,0,0,0,5.24,7.79,37.34,37.34,0,0,0,18.33,10.56c.41.1,1-.22.94-.73q-1.89-14.15-3.76-28.3c-1.88-14.19-3.74-28.38-5.49-42.59-.57-4.69-1.21-9.39-1.59-14.1-.07-1-1.57-1-1.5,0,.86,10.64,2.47,21.26,3.83,31.85q2.69,20.81,5.47,41.59.76,5.78,1.54,11.55l1-.72a36.4,36.4,0,0,1-16.1-8.6,29.8,29.8,0,0,1-5.54-7.06,36.65,36.65,0,0,1-3.14-8.72,46.11,46.11,0,0,0-2.24-5.17c-.67-1.63-1.28-3.27-1.79-5a25.52,25.52,0,0,1-1.23-9.77,21,21,0,0,1,3.68-9.7,4.48,4.48,0,0,0,1-2.08,10.93,10.93,0,0,0,0-2.62c-.18-1.77-.65-3.51-.79-5.29a5.17,5.17,0,0,1,.53-3.27c.51-.78,1.12-1.51,1.68-2.25,1.28-1.68,2.58-3.35,3.94-5a59.93,59.93,0,0,1,9.32-9.18C850.35,782.94,849.6,781.63,848.84,782.22Z" fill="#262521"/><g opacity="0.3"><path d="M877.48,1068.07c-1.2-12.16-2.27-24.35-2.87-36.57-.52-10.5-.89-21.06-2.49-31.46a54.37,54.37,0,0,1-9.17,7.32c-4.49,2.17-11.12,4.22-11.4,10.11,7.66,21.57-8.44,12.53,5.79,36.76-3,15.26,7.88,26.49,21.43,28.56C878.37,1077.88,878,1073,877.48,1068.07Z" fill="#262521"/><path d="M879.73,1068.07c-.89-9-1.7-17.93-2.31-26.92s-.84-17.76-1.48-26.63c-.37-5-.89-10.08-1.65-15.08-.27-1.78-2.64-2-3.76-1-2.66,2.45-5.34,5.06-8.52,6.85-2.25,1.28-4.75,2.06-7,3.45a11.88,11.88,0,0,0-5.31,6.15,8.78,8.78,0,0,0-.4,2.09,6.46,6.46,0,0,0,.53,2.51c.43,1.33.82,2.68,1.12,4a16.72,16.72,0,0,1,.46,5.23l-.06.61c0,.14.08-.4,0,0s-.12.66-.2,1a16.32,16.32,0,0,1-.52,1.68c-.86,2.35-1.79,4.51-1.68,7.09.26,5.77,3.58,11.33,6.42,16.18l-.23-1.73a26.17,26.17,0,0,0,2.25,17.18A26.59,26.59,0,0,0,869.07,1082a31.06,31.06,0,0,0,9.1,2.93c1.31.21,3-.57,2.85-2.17-.4-4.91-.81-9.82-1.29-14.72a2.31,2.31,0,0,0-2.25-2.25,2.27,2.27,0,0,0-2.25,2.25c.48,4.9.89,9.81,1.29,14.72l2.84-2.17c-7.42-1.17-14.38-5.17-18-11.94a20.68,20.68,0,0,1-2.22-11.17c.07-1,.32-2,.4-3,.12-1.48-1.14-2.94-1.83-4.19a54.32,54.32,0,0,1-2.72-5.52,23.53,23.53,0,0,1-1.33-4.17c0-.26-.1-.51-.14-.77.1.58,0-.25,0-.37a12.51,12.51,0,0,1,0-1.5c0-.41.06-.42,0-.18,0-.2.07-.4.11-.6a10.93,10.93,0,0,1,.31-1.12c.24-.73.54-1.44.82-2.15,2-5.11,1.18-10.38-.48-15.49a3,3,0,0,1-.13-2.51,5.89,5.89,0,0,1,1.5-2.07,18.39,18.39,0,0,1,5-3,36,36,0,0,0,6.13-3.34,77.48,77.48,0,0,0,7-5.94l-3.76-1a251.49,251.49,0,0,1,2.17,26c.43,8.8,1,17.59,1.71,26.37q.64,7.53,1.4,15a2.31,2.31,0,0,0,2.25,2.25A2.27,2.27,0,0,0,879.73,1068.07Z" fill="#262521"/></g><path d="M878.48,1068.07c-1.2-12.16-2.27-24.35-2.87-36.57-.5-10.19-.87-20.44-2.36-30.55a10.87,10.87,0,0,1-2.34.15c-8.11,5.56-13.23,16.79-17,25.67-.25,3.92,3,7.36,3,11.29-5.13,11.86,0,20.13,7.78,30.11,2.89,6.68,8.49,11.44,15.06,14.4C879.36,1077.74,879,1072.9,878.48,1068.07Z" fill="#262521"/><path d="M879.23,1068.07c-.88-8.88-1.69-17.77-2.29-26.67-.59-8.72-.85-17.46-1.46-26.18-.34-4.84-.81-9.66-1.51-14.47-.06-.43-.56-.57-.92-.52-.84.12-1.92-.08-2.66.32a12.64,12.64,0,0,0-1.84,1.41,30.8,30.8,0,0,0-3.36,3.3,50.64,50.64,0,0,0-5.65,8,101.59,101.59,0,0,0-4.6,9.15,26.63,26.63,0,0,0-1.79,4.11c-.35,1.43.33,3.31.83,4.61a48.45,48.45,0,0,1,1.89,4.84,4,4,0,0,1,.14,2.25c-.28,1-.72,1.85-1,2.81a21.68,21.68,0,0,0-.67,9.37c1,6.75,5.32,12.24,9.28,17.56,1.17,1.57,1.85,3.5,3,5.11A27.08,27.08,0,0,0,870,1077a33.91,33.91,0,0,0,9.33,6.18c.47.21,1.18,0,1.13-.65-.39-4.83-.8-9.67-1.27-14.5-.1-1-1.6-1-1.5,0,.47,4.83.88,9.67,1.27,14.5l1.13-.64c-5.79-2.65-11-6.72-14-12.42-.33-.62-.58-1.29-.94-1.87-.5-.79-1.17-1.51-1.74-2.25-1.07-1.42-2.1-2.86-3.07-4.35a31.54,31.54,0,0,1-4.06-8.43,19.48,19.48,0,0,1-.37-9.2c.35-1.74,1.11-3.29,1.58-5,.36-1.33-.26-3-.72-4.26-.55-1.45-1.26-2.83-1.74-4.29a8.4,8.4,0,0,1-.48-2.37,5.55,5.55,0,0,1,.74-2.31c1.24-2.86,2.54-5.69,4-8.45a56.07,56.07,0,0,1,5.82-9.16,34.46,34.46,0,0,1,3.49-3.76,12.16,12.16,0,0,1,2-1.68,7.52,7.52,0,0,1,2.74-.48l-.92-.53c1.25,8.61,1.7,17.3,2.12,26s1,17.43,1.7,26.13c.42,4.94.89,9.88,1.38,14.81C877.82,1069,879.32,1069,879.23,1068.07Z" fill="#262521"/><g opacity="0.3"><path d="M399.15,918.88c-4.21,1.19-7.86,5-12.23,6.39-3.3,1-7.08.64-10,2.5-3.32,2.12-4.4,6.4-6.77,9.54-3.1,5.52-13.22,5.93-13.38,13,0,9.16,5.47,17.8,4.73,26.92-3.57,15-3.67,19.87,11.32,26.3,3.85,4,6.68,10.21,12.91,10.69,4.62.08,9-1.61,13.41-3.1Z" fill="#262521"/><path d="M398.55,916.72c-3,.9-5.51,2.7-8.13,4.33a21.66,21.66,0,0,1-3.36,1.79,20.83,20.83,0,0,1-4.68,1c-3,.42-5.86,1.07-8.16,3.17-2.05,1.88-3.2,4.48-4.55,6.86a13.24,13.24,0,0,1-3.64,4.57c-1.63,1.15-3.43,2-5.15,3a15.1,15.1,0,0,0-4.75,4c-1.51,2.06-1.71,4.49-1.52,7,.51,6.31,3.05,12.16,4.24,18.33a24.87,24.87,0,0,1,.47,4.38,15.38,15.38,0,0,1-.54,3.87c-.52,2.32-1,4.64-1.28,7-.42,3.39-.31,6.88,1.31,10,1.78,3.4,5.18,5.69,8.49,7.43,1.21.64,2.49,1.15,3.7,1.77a10,10,0,0,1,2.75,2.9,31.3,31.3,0,0,0,5.77,6.12c6.09,4.46,13.86,1.25,20.22-.9a2.32,2.32,0,0,0,1.66-2.17V930.25c0-3.72.15-7.48,0-11.2a1,1,0,0,1,0-.17c0-2.89-4.5-2.9-4.5,0v88.46a33.44,33.44,0,0,0,0,3.61v.16l1.65-2.17a63.75,63.75,0,0,1-9.53,2.79,8.75,8.75,0,0,1-6.85-1.16,23.47,23.47,0,0,1-4.63-4.91c-.67-.86-1.34-1.73-2.05-2.56a13.13,13.13,0,0,0-1.07-1.17,8,8,0,0,0-2.14-1.1,40.43,40.43,0,0,1-5.68-3.08,12.41,12.41,0,0,1-1.68-1.29c-.27-.25-.54-.5-.79-.77a4.48,4.48,0,0,1-.36-.4c-.06-.06-.5-.62-.23-.26a10.4,10.4,0,0,1-1-1.69c-.28-.57.15.42-.08-.18l-.13-.36a10.62,10.62,0,0,1-.31-1.14c0-.14-.18-1.06-.12-.6-.05-.35-.07-.7-.09-1a21.16,21.16,0,0,1,0-2.52c.33-4.2,2.18-8.74,2-13.2-.31-6.11-2.67-11.79-4-17.7a31.14,31.14,0,0,1-.69-4.18,9.27,9.27,0,0,1,.13-3.32,6.5,6.5,0,0,1,2.78-3c3.28-2.15,7.12-3.52,9.53-6.78,1.64-2.23,2.75-4.75,4.23-7.07,1.6-2.51,3.72-3.39,6.6-3.84a42.51,42.51,0,0,0,4.75-.83,19.61,19.61,0,0,0,4.52-2c2.66-1.54,5.12-3.61,8.09-4.51C402.51,920.22,401.33,915.88,398.55,916.72Z" fill="#262521"/></g><path d="M400.15,922.12c-8.4-2.11-19.73,4-24.9,10.2-3.22,5.95-4.22,13.12-11.46,14.52-3.72,2.3-2.14,7.86-2,12.22-4.06,17.06,3.15,32.43,14.55,45.8,4.95,7.79,15.56,4.54,23.18,8h.6Z" fill="#262521"/><path d="M400.35,921.39c-4.49-1.06-9.18-.08-13.36,1.68a33.23,33.23,0,0,0-11.43,7.76,18.16,18.16,0,0,0-3,5.39,36.3,36.3,0,0,1-2.69,5.45,9.67,9.67,0,0,1-4.54,3.94,8.35,8.35,0,0,0-2.62,1.06,5.54,5.54,0,0,0-1.56,2.17,12.86,12.86,0,0,0-.49,5.85c.09,1.13.23,2.26.32,3.39a18.06,18.06,0,0,1-.57,4.06,42.77,42.77,0,0,0,.34,15c2,10.14,7.58,19.22,14.09,27.1,1.55,1.87,2.83,3.72,5,4.93a19.06,19.06,0,0,0,6.39,2c2.38.37,4.79.53,7.17.89a25.89,25.89,0,0,1,3.5.73,12.26,12.26,0,0,0,3.2.91.76.76,0,0,0,.75-.75V925.84c0-1.17.1-2.4,0-3.57a.75.75,0,0,1,0-.15.75.75,0,0,0-1.5,0v89.41a4.68,4.68,0,0,0,0,1.24.75.75,0,0,1,0,.15l.75-.75a9.32,9.32,0,0,1-2.49-.77,25.56,25.56,0,0,0-3-.69c-2-.34-3.94-.52-5.92-.75-3.79-.43-7.9-1.1-10.62-4-.74-.8-1.35-1.73-2-2.56-.86-1-1.69-2.08-2.5-3.15-1.54-2-3-4.13-4.32-6.3a55.45,55.45,0,0,1-6.08-13.37,41.76,41.76,0,0,1-1.67-14.36c.07-1.22.2-2.43.39-3.64a24,24,0,0,0,.66-3.8c0-2-.45-4-.46-6.07,0-1.79.25-4.47,2.23-5.18a12.76,12.76,0,0,0,4.82-2.53c2.74-2.56,4-6.28,5.46-9.62a12.83,12.83,0,0,1,1.58-3,22,22,0,0,1,2.38-2.35,33.24,33.24,0,0,1,6.58-4.45c4.45-2.31,9.79-3.92,14.8-2.73C400.88,923.06,401.29,921.62,400.35,921.39Z" fill="#262521"/><g opacity="0.3"><path d="M397.93,1166c-4,1.64-7.2,5.68-11.34,7.42-3.19,1.34-7,1.32-9.7,3.45-3.1,2.43-3.77,6.79-5.83,10.14-2.56,5.79-12.6,7.17-12.07,14.21.82,9.12,7.14,17.19,7.27,26.35-2.12,15.26-1.75,20.12,13.78,25.09,4.21,3.57,6.63,9.53,12.88,9.41a20.55,20.55,0,0,0,3.91-.71C397,1256.25,397.7,1178.56,397.93,1166Z" fill="#262521"/><path d="M396.79,1164c-4.34,1.89-7.35,6.11-11.88,7.6-2.2.73-4.51,1-6.67,1.91a11.43,11.43,0,0,0-5.46,4.68c-2,3.25-2.75,7.5-5.45,10.06-2.37,2.24-5.58,3.66-7.9,6.1a9.41,9.41,0,0,0-2.49,4.37,15.55,15.55,0,0,0,.53,6.87c1.18,4.89,3.47,9.41,5,14.17a26.11,26.11,0,0,1,1.49,7.14,48.34,48.34,0,0,1-.65,6.06,29.38,29.38,0,0,0,.21,9.17c1.67,7.51,9.32,10.53,15.89,12.65l-1-.58c2.61,2.26,4.46,5.27,7.17,7.43a11.51,11.51,0,0,0,4.84,2.41,15.4,15.4,0,0,0,7-.56,2.3,2.3,0,0,0,1.65-2.17c.24-10.33.25-20.67.36-31q.26-24.06.52-48.11c.07-5.42.12-10.84.22-16.25.05-2.9-4.45-2.9-4.5,0-.22,12.12-.31,24.25-.44,36.37q-.25,23.31-.5,46.61c-.05,4.13-.06,8.25-.16,12.38l1.65-2.17c-2.33.62-4.59,1-6.76-.27a18.88,18.88,0,0,1-4.3-4.12c-1.5-1.75-3-3.8-5.23-4.54a39.39,39.39,0,0,1-5.85-2.33,15.57,15.57,0,0,1-3.61-2.37,9.63,9.63,0,0,1-.71-.72,3.58,3.58,0,0,1-.26-.29c-.42-.49.24.36-.12-.16a10.34,10.34,0,0,1-1-1.64c-.27-.56.15.43-.07-.16l-.12-.37c-.11-.31-.2-.62-.28-.94s-.14-.67-.2-1c0-.14-.05-.28-.07-.42.07.48,0-.27,0-.36a31.78,31.78,0,0,1,0-5.07c.15-2,.4-4,.67-5.92a21,21,0,0,0-1.11-8.53c-1.57-5.34-4.24-10.3-5.51-15.73a15.14,15.14,0,0,1-.54-3.59,4,4,0,0,1,.48-1.87,11.22,11.22,0,0,1,3.3-3.2c1.59-1.12,3.22-2.16,4.71-3.4a15.29,15.29,0,0,0,3.56-4.51c1.34-2.35,2-5,3.49-7.32s4.09-3,6.72-3.66a21.86,21.86,0,0,0,8.25-3.75c2.38-1.76,4.59-3.82,7.34-5a2.27,2.27,0,0,0,.8-3.08A2.32,2.32,0,0,0,396.79,1164Z" fill="#262521"/></g><path d="M398.85,1169c-8.45-.88-18.75,6.08-23.19,12.61-2.64,6.23-3,13.46-10,15.55-3.47,2.65-1.37,8-.78,12.35-2.42,17.38,6.23,32,18.85,44.2,3.74,4.8,8.46,4.59,14.2,4.68C398,1254.3,398.54,1180.59,398.85,1169Z" fill="#262521"/><path d="M398.85,1168.25c-8.35-.77-17,4.72-22.22,10.87a13.75,13.75,0,0,0-1.62,2.11,16.85,16.85,0,0,0-1,2.67c-.64,1.85-1.17,3.73-1.87,5.55a13.56,13.56,0,0,1-2.8,4.69,8.61,8.61,0,0,1-2.18,1.61,9,9,0,0,0-2.54,1.31c-2.76,2.76-1.49,7.25-.84,10.59a10.25,10.25,0,0,1,.15,3.27c-.13,1.25-.2,2.51-.22,3.76a40.54,40.54,0,0,0,.39,6.33c1.23,8.86,5.35,17,10.77,24q2.37,3.08,5,5.91c.88.94,1.78,1.85,2.69,2.75a35.67,35.67,0,0,0,2.67,2.69c3.61,2.85,8.29,2.72,12.65,2.78a.76.76,0,0,0,.75-.75c.21-9.59.19-19.2.27-28.8q.21-22.71.45-45.43c.06-5.05.1-10.11.23-15.16,0-1-1.47-1-1.5,0-.3,11.38-.32,22.77-.43,34.15q-.21,22-.4,43.92c0,3.78,0,7.55-.12,11.32l.75-.75c-3.76-.05-7.94.17-11.18-2.06a12.63,12.63,0,0,1-2.24-2.08c-.77-.86-1.61-1.65-2.41-2.47-1.54-1.59-3-3.22-4.43-4.92-5.43-6.55-9.81-14.13-11.58-22.52a40.32,40.32,0,0,1-.61-12.87,20.21,20.21,0,0,0-.68-5.77c-.33-1.83-.69-4,.14-5.74s2.68-1.83,4.07-2.82a11.09,11.09,0,0,0,3.22-3.59c1.75-3,2.47-6.51,3.69-9.75a14.48,14.48,0,0,1,3.87-5.06,34,34,0,0,1,5.7-4.42c4-2.45,8.65-4.26,13.39-3.82C399.81,1169.84,399.81,1168.34,398.85,1168.25Z" fill="#262521"/><g opacity="0.3"><path d="M336,850c8.13-26.9-5.39-14.32-3-37.09-1.65-5.66-8.58-6.09-13.45-7.14a39.46,39.46,0,0,1-6.37-2.66c-.24,5.18-.58,10.36-1,15.54-1,13.48-2.28,27-2,40.5.15,8.64.7,17.27,1.25,25.9h0C329.6,884.45,344.16,867.74,336,850Z" fill="#262521"/><path d="M338.17,850.61c1.45-4.82,3.07-10.15,2.68-15.25a14.12,14.12,0,0,0-2.7-7.23,24.37,24.37,0,0,1-1.77-2.76c-.11-.21-.22-.44-.32-.66-.23-.48.17.48,0,0-.06-.16-.12-.31-.17-.46a15.41,15.41,0,0,1-.61-2.31,15,15,0,0,1-.26-2.38,34.23,34.23,0,0,1,0-3.79c.08-1.5.4-2.89-.18-4.32a9.25,9.25,0,0,0-2.48-3.54c-2.28-2-5.24-2.88-8.15-3.48-1.35-.28-2.74-.45-4.07-.79a29.52,29.52,0,0,1-5.84-2.43,2.28,2.28,0,0,0-3.38,1.94c-.5,10.62-1.44,21.21-2.18,31.82a288.6,288.6,0,0,0-.59,31.95c.25,6.06.64,12.11,1,18.17a2.27,2.27,0,0,0,2.84,2.17c-.5.17.66,0,.84,0l1.23-.12c1.06-.13,2.13-.29,3.18-.51a30.08,30.08,0,0,0,5.06-1.53,31.91,31.91,0,0,0,9.26-5.65,26.09,26.09,0,0,0,9-18.06A26.93,26.93,0,0,0,338,848.87a2.26,2.26,0,0,0-3.08-.8,2.29,2.29,0,0,0-.81,3.07,20.83,20.83,0,0,1,.13,17.5,24.88,24.88,0,0,1-12.87,12,29.4,29.4,0,0,1-5.09,1.58c-.83.17-1.66.32-2.5.42a13.36,13.36,0,0,0-2.91.25l2.85,2.17c-.68-10.76-1.42-21.55-1.25-32.33s1.08-21.25,1.88-31.85c.44-5.92.84-11.83,1.12-17.76l-3.39,2a34.41,34.41,0,0,0,9.19,3.32,23.58,23.58,0,0,1,6.75,1.9,6,6,0,0,1,2.19,1.81c.75,1.09.45,2,.38,3.3a32.88,32.88,0,0,0,.24,6.87,17.24,17.24,0,0,0,2.91,7.31c.56.81,1.16,1.6,1.65,2.47l.35.67c.26.48-.1-.39.13.32a14.53,14.53,0,0,1,.46,1.72c0,.12.08.67,0,.07,0,.24,0,.47.07.71,0,.4,0,.79,0,1.19a24.52,24.52,0,0,1-.24,3,68.08,68.08,0,0,1-2.31,9.65C333,852.19,337.34,853.38,338.17,850.61Z" fill="#262521"/></g><path d="M332.1,833.92c-.93-3.82,1.47-7.93.3-11.69-5.38-7.18-12.35-16.08-20.69-20.11-.24,5.51-.59,11-1,16.5-1,13.49-1.2,60-.59,69.78,10.29-4.16,19.57-12.3,21.48-23.38C336.88,853.48,339.87,844.25,332.1,833.92Z" fill="#262521"/><path d="M332.82,833.72c-.77-3.64,1.2-7.24.49-10.9-.29-1.51-1.62-2.77-2.53-4s-2-2.58-3.07-3.85c-4.38-5.3-9.37-10.46-15.62-13.54a.76.76,0,0,0-1.13.65c-.31,7.13-1,14.24-1.26,21.37-.23,5.2-.34,10.41-.43,15.62q-.33,18.21-.19,36.43c0,4.28,0,8.58.3,12.86,0,.43.46.92.95.73,7.77-3.18,15.07-8.43,19.17-15.91a26.45,26.45,0,0,0,2.36-5.85,20.7,20.7,0,0,1,1-3.2c.52-1.18,1-2.37,1.53-3.57a37,37,0,0,0,3.22-13,22.66,22.66,0,0,0-4.82-14c-.57-.76-1.88,0-1.3.76a21.51,21.51,0,0,1,4.62,12.2,31.79,31.79,0,0,1-2.55,12.15c-.43,1.13-.9,2.24-1.38,3.35a20,20,0,0,0-1.32,3.18,28.87,28.87,0,0,1-1.8,5.68,29.6,29.6,0,0,1-7.25,9.55,41,41,0,0,1-11.84,7.27l.95.72c-.57-9.32-.36-18.74-.33-28.07,0-11.75.13-23.5.58-35.24.3-7.66,1-15.3,1.33-23l-1.12.65c6,3,10.81,7.9,15.06,13q1.58,1.9,3.08,3.86c1.11,1.43,2.4,2.7,2.49,4.59.15,3.36-1.31,6.54-.6,9.91C331.57,835.07,333,834.67,332.82,833.72Z" fill="#262521"/><g opacity="0.3"><path d="M339.57,1047.07c-.91-5.82-7.73-7.14-12.43-8.81-5.42-2.45-9.54-6.28-13.93-9.12q0,8.77,0,17.56c.06,23.07,3.18,46.15,3.23,69.22,16.19-.87,26.64-14.62,21.32-31.68C349.31,1058.61,334.28,1069.35,339.57,1047.07Z" fill="#262521"/><path d="M341.74,1046.47c-1-5.64-6.52-7.91-11.37-9.5a31.35,31.35,0,0,1-7.9-4c-2.75-1.88-5.34-4-8.13-5.8a2.27,2.27,0,0,0-3.38,2c0,11.29-.07,22.59.5,33.87s1.51,22.41,2.14,33.63c.35,6.42.6,12.85.62,19.28a2.26,2.26,0,0,0,2.25,2.25,27.57,27.57,0,0,0,17.24-6.91,24.58,24.58,0,0,0,7.64-16.1,30.83,30.83,0,0,0-1.39-11.52l-.23,1.74c2.51-5.61,5.86-12.53,4.47-18.87a18.68,18.68,0,0,0-1.9-4.52c-.18-.34-.36-.68-.53-1l-.22-.49c-.06-.12-.15-.39.06.15-.05-.13-.11-.26-.15-.39a16.17,16.17,0,0,1-.69-2.63c-.1-.58,0,.33,0,0,0-.16,0-.32-.05-.48,0-.34,0-.69,0-1a23.44,23.44,0,0,1,.06-2.37,38.46,38.46,0,0,1,1-6c.66-2.82-3.68-4-4.34-1.2-1.13,4.83-2.07,10.3-.23,15.09.53,1.38,1.25,2.65,1.91,4,.14.27.26.56.39.84-.28-.63.1.29.18.54s.17.61.24.92.07.38.1.57c-.09-.56,0,0,0,.25a11.1,11.1,0,0,1,0,1.29c0,.22,0,.44-.05.66l0,.29c-.07.67.08-.46,0,.24a27.61,27.61,0,0,1-.87,3.7c-.5,1.71-1.12,3.37-1.78,5-.38,1-.79,1.88-1.2,2.82a3.5,3.5,0,0,0-.46,1.86,11.58,11.58,0,0,0,.45,1.73c1.62,6.13,1.13,12.75-2.37,18.14-3.76,5.8-10.43,8.86-17.19,9.26l2.25,2.25c-.07-22.62-3-45.12-3.23-67.74-.05-6.35,0-12.7,0-19l-3.39,1.94c5.14,3.36,9.76,7.8,15.69,9.76,3.71,1.23,8.84,2.35,9.64,6.83a2.26,2.26,0,0,0,2.77,1.57A2.31,2.31,0,0,0,341.74,1046.47Z" fill="#262521"/></g><path d="M336.46,1068c-.42-3.9,2.48-7.68,1.8-11.55-4.74-8.41-11.05-19-19.71-23.67a15.3,15.3,0,0,1-6.34-.6c0,4.83,3.22,61.83,3.26,85.49,8.88-3.43,13.7-9.76,16.52-18.89C338.7,1088,342.85,1079.25,336.46,1068Z" fill="#262521"/><path d="M337.21,1068c-.27-3.41,1.68-6.45,1.89-9.81a5.23,5.23,0,0,0-.19-2.12,18.18,18.18,0,0,0-1.14-2c-.81-1.4-1.63-2.8-2.47-4.17-3.35-5.45-7.16-10.89-12.18-14.93a15.86,15.86,0,0,0-4.19-2.83c-.83-.28-1.93.06-2.82,0a19.58,19.58,0,0,1-3.7-.68.76.76,0,0,0-1,.73c0,8.14.71,16.32,1.1,24.45.65,13.82,1.28,27.65,1.74,41.48.21,6.52.41,13,.42,19.56a.76.76,0,0,0,.95.72,27,27,0,0,0,14.86-13.75c.8-1.67,1.37-3.4,2-5.13a21.23,21.23,0,0,1,1.81-3.17c.61-1,1.2-2.07,1.77-3.13a33.63,33.63,0,0,0,4.11-11.71,22.82,22.82,0,0,0-3.13-13.87c-.47-.85-1.76-.09-1.29.75a21.6,21.6,0,0,1,3,12,29,29,0,0,1-3.6,11.32c-1,2-2.12,3.84-3.27,5.71a33.86,33.86,0,0,0-2,4.93,27.91,27.91,0,0,1-5.2,8.35,25.45,25.45,0,0,1-9.46,6.27l1,.73c0-12.64-.59-25.28-1.12-37.9s-1.15-25.15-1.73-37.73c-.16-3.28-.4-6.58-.41-9.86l-.95.72a25.2,25.2,0,0,0,3.42.67,12.05,12.05,0,0,0,1.8.08,4.78,4.78,0,0,1,1.25-.05,8.87,8.87,0,0,1,2.42,1.54,25.18,25.18,0,0,1,2.15,1.71,49,49,0,0,1,7.89,9.1c2.23,3.2,4.23,6.56,6.15,10,1.07,1.89.23,4.17-.36,6.1a16.38,16.38,0,0,0-1,6C335.79,1069,337.29,1069,337.21,1068Z" fill="#262521"/><g opacity="0.3"><path d="M431.83,1059.72c-1.87-3.46-2.28-7.86-5.24-10.46-2.59-2.28-6.38-2.48-9.49-4-5.12-2.5-8.54-8.63-14.23-9l-1.38-.12-.17-.05v96.46a21.79,21.79,0,0,0,3.38.78c6.24.47,10-5.28,14.4-8.6,15.79-4.07,16.44-8.91,15.2-24.27.65-9.13,7.43-16.83,8.77-25.88C444,1067.6,434.05,1065.64,431.83,1059.72Z" fill="#262521"/><path d="M433.77,1058.58c-1.8-3.44-2.3-7.48-5.06-10.4s-7.07-3.14-10.62-4.94c-3.11-1.57-5.44-4.32-8.2-6.39a14.55,14.55,0,0,0-4.5-2.39,13.14,13.14,0,0,0-2.57-.43l-.75-.07c-.29,0-.85-.25-.15,0a2.27,2.27,0,0,0-2.85,2.17v84.57c0,3.89-.16,7.83,0,11.72a1,1,0,0,1,0,.17,2.31,2.31,0,0,0,1.66,2.17,14.3,14.3,0,0,0,7,.64,13.42,13.42,0,0,0,5.17-2.35,45.38,45.38,0,0,0,4.48-3.82c.67-.62,1.33-1.24,2-1.83.11-.1,1-.69.64-.56a16.91,16.91,0,0,1,1.69-.46c5.17-1.49,11.05-3.71,13.55-8.88a19.08,19.08,0,0,0,1.64-7.6c.06-1.48,0-3-.05-4.44a50.64,50.64,0,0,1-.3-5.35c.27-4.25,2.37-8.38,4.12-12.17,1.89-4.08,3.87-8.24,4.54-12.73.57-3.89-1.38-7-4.27-9.42-1.38-1.15-2.81-2.14-4.16-3.3a10,10,0,0,1-2.81-3.35,2.32,2.32,0,0,0-2.77-1.57,2.27,2.27,0,0,0-1.57,2.77c1.22,3.09,3.61,5.11,6.17,7.09A32.27,32.27,0,0,1,439,1070a5.83,5.83,0,0,1,1.8,2.78,3.79,3.79,0,0,1,.07,1.49,17.87,17.87,0,0,1-.68,3,41.79,41.79,0,0,1-2.18,5.8c-1.73,3.87-3.72,7.68-4.92,11.77a18.37,18.37,0,0,0-1,6.31c.13,1.66.25,3.33.32,5,.05,1.4.07,2.8,0,4.2a13,13,0,0,1-.43,3.1,13.56,13.56,0,0,1-.44,1.41c-.17.49.07-.09-.1.26s-.25.5-.39.74-.25.43-.39.64-.41.55-.15.22a9.73,9.73,0,0,1-1.12,1.19l-.47.41-.45.33a17.3,17.3,0,0,1-1.66,1,23.38,23.38,0,0,1-3.67,1.56c-1.9.65-4.3.89-5.89,2.14s-3,2.72-4.56,4.08a15.8,15.8,0,0,1-4.56,3.16c-2.11.85-4.09.46-6.21-.19l1.65,2.17v-92.52a36.66,36.66,0,0,0,0-3.78v-.16l-2.84,2.17c1,.31,2.13.16,3.15.43a10.73,10.73,0,0,1,3.74,2c2.65,2,4.91,4.63,7.9,6.24a29.25,29.25,0,0,0,5.36,2,10.39,10.39,0,0,1,4.52,2.26,11.46,11.46,0,0,1,2.31,4.24,41.77,41.77,0,0,0,2.18,5.38C431.23,1063.42,435.11,1061.15,433.77,1058.58Z" fill="#262521"/></g><path d="M436.66,1070.26c-6.94-2.49-6.84-9.73-9.12-16.1-4.54-7.56-16.33-16.1-25.35-13.44l-1.87.57v88.21c5.61.25,11.15.66,15.07-3.81,13.3-11.49,22.76-25.57,21.35-43C437.57,1078.35,440,1073.1,436.66,1070.26Z" fill="#262521"/><path d="M436.86,1069.54c-3.51-1.32-5.28-4.26-6.35-7.7-1-3.15-1.31-6.74-3.25-9.48-4.12-5.82-10.7-10.88-17.74-12.45a17.64,17.64,0,0,0-9.39.66.78.78,0,0,0-.56.72v84.61c0,1.13-.1,2.32,0,3.45a.75.75,0,0,1,0,.15.76.76,0,0,0,.75.75c5.11.23,10.75.55,14.77-3.19a105.9,105.9,0,0,0,11.66-12c6.61-8.4,10.95-18.45,10.88-29.26a17.88,17.88,0,0,1,.23-4.68c.35-1.43.76-2.84,1-4.29.45-2.56.36-5.22-1.68-7.08-.71-.65-1.77.41-1.06,1.06,1.92,1.76,1.59,4.37,1.08,6.69-.26,1.2-.6,2.38-.89,3.58a12.4,12.4,0,0,0-.22,3.55,40.82,40.82,0,0,1-2.27,14.9c-3.39,9.71-10.19,17.84-17.78,24.59a28,28,0,0,1-3.33,2.92,11,11,0,0,1-3.74,1.49,34.37,34.37,0,0,1-8.66.24l.75.75v-86.84a4.9,4.9,0,0,0,0-1.21.85.85,0,0,1,0-.16l-.55.73a15.94,15.94,0,0,1,8.27-.73,26.32,26.32,0,0,1,10.15,4.8,29.08,29.08,0,0,1,7.63,7.93,18.93,18.93,0,0,1,1.6,5,46,46,0,0,0,1.4,4.74,11.63,11.63,0,0,0,6.89,7.26C437.37,1071.32,437.76,1069.87,436.86,1069.54Z" fill="#262521"/><path d="M497.26,441.64S459.9,308,561.2,268.43c0,0-45.69-59.36-97.15,41.2C424.09,387.74,497.26,441.64,497.26,441.64Z" fill="#fff" stroke="#262521" stroke-linecap="round" stroke-linejoin="round" stroke-width="3"/><path d="M645.22,441.05s16.12-151.54-84-172.62c-56.71-11.94-37.73-26.92-8.82-35.05C648.39,209.07,733.07,344.91,645.22,441.05Z" fill="#fff" stroke="#262521" stroke-linecap="round" stroke-linejoin="round" stroke-width="3"/><path d="M497.26,441.64S457.65,427.2,460,411.9" fill="none" stroke="#262521" stroke-linecap="round" stroke-linejoin="round" stroke-width="3"/><path d="M505,464.26s-26.08,9.75-26.2,31.68" fill="none" stroke="#262521" stroke-linecap="round" stroke-linejoin="round" stroke-width="3"/><path d="M457.12,325.17s27.78-83,60-100.85" fill="none" stroke="#262521" stroke-linecap="round" stroke-linejoin="round" stroke-width="3"/><path d="M524.57,251.14s-26.24,21-28.89,38.37" fill="none" stroke="#262521" stroke-linecap="round" stroke-linejoin="round" stroke-width="3"/><path d="M797.41,1364.16s20.44-.12,20.07,9.84,12.48,114.23,10.43,123-26.25,36.9-26.25,36.9Z" fill="#262521" stroke="#262521" stroke-linecap="round" stroke-linejoin="round" stroke-width="3"/><path d="M427.71,1376.63s-14.57,1.35-17.07,13-6.14,114.6,0,125.53,47.07,12.23,47.07,12.23Z" fill="#262521" stroke="#262521" stroke-linecap="round" stroke-linejoin="round" stroke-width="3"/><path d="M822,1492s11.43,53.16,11.34,70.71" fill="none" stroke="#262521" stroke-miterlimit="10" stroke-width="6"/><path d="M426,1505.43s-2.06,34.07,9.81,57.29" fill="none" stroke="#262521" stroke-miterlimit="10" stroke-width="6"/></svg>