<svg xmlns="http://www.w3.org/2000/svg" width="1000" height="1550" viewBox="0 0 1000 1550"><path d="M459.53 1170q-3.7 42.49-5.5 85.12t-1.64 85.28q.08 23.88.77 47.75c.1 3.85 6.11 3.87 6 0q-1.23-42.65-.52-85.3t3.34-85.23q1.47-23.83 3.55-47.62a3 3 0 00-3-3 3.06 3.06 0 00-3 3z" fill="#d8d0ad"/><path d="M455.16 1372.48a1.93 1.93 0 01.34.11l-.72-.31a2.07 2.07 0 01.45.27l-.61-.47a2.52 2.52 0 01.4.4l-.47-.6a2.17 2.17 0 01.33.57l-.3-.72a3.2 3.2 0 01.19.69l-.11-.8a2.43 2.43 0 010 .66l.11-.8a2.64 2.64 0 01-.15.55l.3-.72a2.75 2.75 0 01-.24.41l.47-.6a2.73 2.73 0 01-.35.33l.61-.46a2.38 2.38 0 01-.44.25l.71-.3a2.74 2.74 0 01-.58.15l.8-.11a2.83 2.83 0 01-.65 0l.8.11a3 3 0 01-.72-.2l.72.3a2.7 2.7 0 01-.52-.3l.61.47a2.46 2.46 0 01-.4-.39l.47.61a2.75 2.75 0 01-.24-.41l.31.72a1.94 1.94 0 01-.14-.51l.1.79a2.1 2.1 0 010-.5l-.11.8a2.38 2.38 0 01.16-.58l-.3.72a2.66 2.66 0 01.33-.57l-.47.6a3.48 3.48 0 01.47-.47l-.61.47a2.77 2.77 0 01.57-.34l-.72.31a2.46 2.46 0 01.53-.15l-.8.11a2.18 2.18 0 01.51 0l-.8-.1h.15a2.23 2.23 0 001.2 0 2.11 2.11 0 001.11-.35 2.42 2.42 0 00.85-.77 2.27 2.27 0 00.53-1 3 3 0 00-.3-2.32 3 3 0 00-1.79-1.37 5.67 5.67 0 00-1.15-.15 6.13 6.13 0 00-1.15.13 2.79 2.79 0 00-.39.1 8 8 0 00-1 .45 4 4 0 00-.34.23 7.67 7.67 0 00-.89.73 5.52 5.52 0 00-.91 1.23 7.09 7.09 0 00-.43 1 1.89 1.89 0 00-.1.41 5.41 5.41 0 000 2.3 3.61 3.61 0 00.26.69 3.66 3.66 0 00.32.66 4.88 4.88 0 00.9 1.08 5.66 5.66 0 001.16.79 5.46 5.46 0 001.35.49 6.42 6.42 0 001.45.13 5.36 5.36 0 001.42-.25 8.7 8.7 0 001-.43 6.75 6.75 0 00.85-.64 1.42 1.42 0 00.25-.24 6.06 6.06 0 00.65-.86 4.36 4.36 0 00.55-1.34 5.86 5.86 0 00.15-1.45 5.62 5.62 0 00-.93-2.91 6.35 6.35 0 00-.7-.87 8.44 8.44 0 00-.88-.7 4 4 0 00-1.41-.6 3.15 3.15 0 00-2.31.3 2.33 2.33 0 00-.85.77 2.27 2.27 0 00-.53 1 3 3 0 002.09 3.69zM470.55 1163.05q.82 42.67.59 85.37-.24 42.45-1.53 84.87-.74 24-1.79 47.89a3 3 0 006 0q1.89-42.65 2.72-85.33.82-42.43.6-84.87-.12-24-.59-47.93c-.08-3.86-6.08-3.87-6 0z" fill="#d8d0ad"/><path d="M470.51 1351.91a11 11 0 00-1.63 4.89 5.81 5.81 0 002 4.52 5.15 5.15 0 003.18 1.26 4.5 4.5 0 002.4-.64 5.16 5.16 0 002.37-3.46 6.36 6.36 0 00-.67-4.38 6.82 6.82 0 00-4-2.86 13.08 13.08 0 00-4.09-.39 7.23 7.23 0 00-4.36 1.26 4 4 0 00.29 6.66 5.46 5.46 0 005.42 0 3 3 0 001.08-4.1 3.07 3.07 0 00-4.11-1.08l-.24.12.72-.3a3.47 3.47 0 01-.72.19l.8-.11a3.53 3.53 0 01-.65 0l.8.11a2.93 2.93 0 01-.51-.13l.72.31a1.9 1.9 0 01-.34-.2l.6.47a1.21 1.21 0 01-.16-.16l.47.6a1.22 1.22 0 01-.12-.19l.3.72a1.57 1.57 0 01-.08-.31l.11.8a1.31 1.31 0 010-.28l-.11.8a1.82 1.82 0 01.07-.25l-.3.72.13-.23-.47.61a1.88 1.88 0 01.24-.25l-.61.47a2.5 2.5 0 01.5-.29l-.72.31a3.79 3.79 0 011-.27l-.8.11a12.88 12.88 0 013.34 0l-.8-.1a6.9 6.9 0 011.62.42l-.72-.3a4.65 4.65 0 01.91.54l-.61-.47a2.9 2.9 0 01.5.49l-.47-.61a2.59 2.59 0 01.34.58l-.3-.71a3.11 3.11 0 01.2.74l-.11-.8a3.7 3.7 0 010 .94l.11-.8a3.47 3.47 0 01-.19.72l.3-.72a2.29 2.29 0 01-.31.55l.47-.61a1.57 1.57 0 01-.31.32l.61-.46a2.08 2.08 0 01-.38.22l.71-.3a2.47 2.47 0 01-.36.11l.79-.11a2.35 2.35 0 01-.53 0l.79.11-.4-.11.72.3a2.85 2.85 0 01-.45-.25l.61.46a2.67 2.67 0 01-.45-.44l.47.61a3.3 3.3 0 01-.39-.65l.3.71a3.49 3.49 0 01-.23-.84l.11.8a4.31 4.31 0 010-.88l-.1.8a6.11 6.11 0 01.42-1.46l-.3.72c.23-.52.49-1 .76-1.51a3 3 0 10-5.18-3z" fill="#d8d0ad"/><path d="M676.51 1234.76l11.26 80.3s-56.37 30.41-181.84 16.74-225.06-6-225.06-6l-2.94-69.8z" fill="#727570" stroke="#262521" stroke-linecap="round" stroke-linejoin="round" stroke-width="3"/><path d="M752.22 1043c-3.84-55.87-22.89-124.63-22.89-124.63s-14.58-307-52.88-331.94c-10.88-7.11-142.29-56.21-142.29-56.21s-3.43 25.11-82.85 55c-15.53 0-82.09-39.23-86.21-51.38a11.73 11.73 0 01-.75-2.59c-1 .64-100.94 62.69-145.44 89.5C174.18 647.69 192.24 945 192.24 945a619.73 619.73 0 00-3.6 128.12c5.52 68.42-1.88 179.2 14.45 197.93l61-1.5s-5.61-14.34-4.66-27c2.28-30.22 5.54-104.26 15.36-135.21S296.2 1019 296.2 1019c.49 23.68.3 42.22-1 50.32-3.6 21.92-31.66 102.79-17.78 133.07-3.34 29.29-5.7 66.94-5.7 66.94s101 22.75 178 21.82c137.52-1.66 234.85-32.7 234.85-32.7s-2.28-35.71-5.33-60.53c9.94-22.61-4.2-83.51-17.91-143 17.07 47.16 40.24 126.63 42.46 162.32 1.63 26.39 2.88 34.36 2.88 34.36h58.1s4.49-6.66 5.3-18.88-12.28-108.46-17.85-189.72z" fill="#262521" stroke="#262521" stroke-linecap="round" stroke-linejoin="round" stroke-width="3"/><path d="M711 1219s30.63-3.83 52.37 0M200.25 1236.47s30.64-3.84 52.37 0M286.17 1219s167.06 41.72 378.14-4.33" fill="none" stroke="#636363" stroke-linecap="round" stroke-linejoin="round"/><path d="M672.41 1364.16s20.44-.12 20.07 9.84 12.48 114.23 10.43 123-26.25 36.9-26.25 36.9zM302.71 1376.63s-14.57 1.35-17.07 13-6.14 114.6 0 125.53 47.07 12.23 47.07 12.23zM384.43 505.56c-9.76.89-16.24 2.61-18.33 5.58-7.68 10.89-16.72 12.57-16.72 12.57s-19.3 5.48-26.11 10.22c-9.13 6.35-25.57 26.91-20.95 35.37 41.38 4.29 141.28 80.7 155.57 80.49 8.12-.12 53.71-61.83 95.26-84.57 19.67-10.76 35.74-11.81 37.73-12.43 6.77-2.12-2-4.86-9.3-9.27s-6.69-11.52-9.47-16.86-13.87-2-13.87-2-.45-1.75-13.18-13.56-20.95-10.07-31-9.79l3.76 20.56c8.3 2.91 15.06 9.07 12.58 16.37-3.23 9.52-64.67 46.78-79.05 47s-83.75-42.29-85.72-50.51c-1.6-6.7 8.47-3.26 15.36-11.17z" fill="#262521" stroke="#262521" stroke-linecap="round" stroke-linejoin="round" stroke-width="3"/><path d="M302.32 569.3c41.38 4.29 140.07 46 154.36 45.73 8.12-.13 54.92-27.07 96.47-49.81 19.67-10.76 35.74-11.81 37.73-12.43" fill="none" stroke="#636363" stroke-linecap="round" stroke-linejoin="round" stroke-width="1.34" opacity=".95"/><path d="M509.55 730.5h-3.84v-2.87h-2.2v9.71h2.17v3H496v-3h2.15v-9.71h-2.25v2.87H492v-5.82h17.53zM510.59 740.31v-2.93h1.15V732h-1.12v-2.91h5.68v1.42c.68-1.07 2-2 4.67-2v4c-2.36 0-4.3.51-4.3 2.48v2.3H518v2.93zM529.79 729.13v5.39c0 1.92.34 2.82 1.41 2.82a1.63 1.63 0 001.65-1.7v-3.56h-1.72v-3h6.76v8.21h1.28v3h-4.94l-.7-1.41a4.66 4.66 0 01-3.71 1.72c-4 0-5.25-1.74-5.25-5.45v-3.09h-1.1v-3zM541.79 729.13v-3h4.8v3h2.48V732h-2.48v5.33H549v2.92c-.47.16-7.36-.06-7.36-.06s.11-3.09.08-4.21v-4h-1.42v-2.91zM550.3 740.31v-2.93h1.1v-10.93h-1.1v-2.91h6.33v7a6.43 6.43 0 014.1-1.79c4 0 4.57 2.57 4.57 4.92v3.73h1.23v2.93h-6.72v-6.08c0-.76 0-2.08-1.54-2.08-1.33 0-1.64 1.12-1.64 2.08v3.15h1.88v2.93zM498.88 744.23v1.69H498v5.55h.92v1.7h-5v-1.7h.94v-5.55h-.94v-1.69zM507.42 750.87h1.85c0 .68 1.05.86 1.46.86s.61-.08.61-.44-1-.44-2-.76-1.83-.85-1.83-2 1.45-1.85 2.43-1.85a2.35 2.35 0 012 1l.11-.84h1.7v2.3H512c0-.54-.72-1-1.41-1-.29 0-.54.14-.54.46s.81.51 1.7.79c1 .34 2.22.71 2.22 2s-1.23 1.92-2.57 1.92a2.58 2.58 0 01-2.11-.94l-.12.78h-1.73zM516.2 753.17v-1.67h.63v-3h-.63v-1.69h2.8l.33.76a2.73 2.73 0 011.87-.94 2.41 2.41 0 012.22.92 3.13 3.13 0 012.2-.92c2.42 0 2.79 1.51 2.79 3.07v1.77h.74v1.72h-3.8V750c0-.61.14-1.59-.57-1.59s-.79.39-.79.94v2.07h.9v1.71H521v-3.26c0-1 0-1.46-.63-1.46s-.67.25-.67.77v2.28h.9v1.67zM529.44 750c0-2 1.92-3.15 3.88-3.15 2.24 0 3.9 1.17 3.94 3.2s-1.71 3.17-3.87 3.17-3.98-1.12-3.95-3.22zm4.92 0c0-.91-.37-1.61-1-1.63s-1 .71-1 1.6.46 1.65 1 1.65 1-.71 1-1.62zM552.23 752.29a6.06 6.06 0 01-3.86 1.11c-1.85 0-3.94-1-3.94-3.46 0-2.1 1.76-3.34 4-3.34 1.78 0 3.14.78 3.57 1.85a3.25 3.25 0 010 2.17h-4.71c.09.34.29 1 1.54 1a3.36 3.36 0 002.09-.62zm-2.59-2.94c0-.49-.14-1-1.1-1a1.08 1.08 0 00-1.15 1zM554.78 753.17v-1.67h.62v-3.06h-.62v-1.66h3.46v4.72h.76v1.67zm3.46-8.89h-3.46v2h3.46zM559.46 753.17v-1.67h.62v-3h-.62v-1.69h2.82l.33.76a2.73 2.73 0 011.87-.94 2.42 2.42 0 012.22.92 3.13 3.13 0 012.2-.92c2.42 0 2.79 1.51 2.79 3.07v1.77h.74v1.72h-3.8V750c0-.61.13-1.59-.57-1.59s-.79.39-.79.94v2.07h.9v1.71h-3.87v-3.26c0-1 0-1.46-.63-1.46s-.67.25-.67.77v2.28h.89v1.67zM573.27 754.11v-5.63h-.63v-1.7h3.42l.26.45a3.29 3.29 0 011.8-.55 3.24 3.24 0 013.53 3.35 3.2 3.2 0 01-3.41 3.29 3.29 3.29 0 01-1.94-.5v1.29h.81v1.67h-4.47v-1.67zm4.09-5.63c-.58 0-1.12.63-1.06 1.64s.51 1.53 1.08 1.53 1.06-.62 1.06-1.6c0-.76-.44-1.57-1.08-1.57zM581.92 750c0-2.13 1.94-3.32 3.9-3.32 2.24 0 3.9 1.24 3.94 3.37s-1.71 3.34-3.87 3.34-3.99-1.17-3.97-3.39zm4.93 0c0-1-.37-1.7-1-1.71s-1 .74-1 1.67.45 1.74 1 1.74 1-.7 1-1.7zM611.76 753.15v-1.67h.62v-3.06h-.62v-1.66h3.53v.79a2.71 2.71 0 012.14-1c2.31 0 2.7 1.47 2.7 2.81v2.14h.71v1.67h-3.77v-3.49c0-.43.05-1.19-.84-1.19s-.94.64-.94 1.19v1.82h1.08v1.67zM493.92 764.88v-1.67h.63v-3.06h-.63v-1.66h3.53v.79a2.7 2.7 0 012.14-1c2.31 0 2.7 1.47 2.7 2.81v2.14h.7v1.67h-3.76v-3.49c0-.43 0-1.19-.84-1.19s-.94.64-.94 1.19v1.82h1.07v1.67zM503.38 761.66c0-2.14 1.95-3.33 3.93-3.33 2.27 0 3.94 1.24 4 3.38s-1.74 3.34-3.92 3.34-4.04-1.13-4.01-3.39zm5 .05c0-1-.38-1.7-1.05-1.71s-1 .74-1 1.67.46 1.74 1.06 1.74.97-.74.97-1.7zM515.27 762.92a12.13 12.13 0 01.59-3l.46-1.43H519l.55 1.66a15.69 15.69 0 01.61 2.77 13.42 13.42 0 01.39-2l.25-.75h-.59v-1.66h3.51v1.66h-.59l-1.69 4.73h-3l-1-2.89-1 2.89h-3l-1.62-4.73h-.62v-1.66h3.87v1.66h-.49l.32.93a9.76 9.76 0 01.36 1.84zM531 764.88v-1.67h.63V757H531v-1.66h3.61v4a3.72 3.72 0 012.35-1c2.32 0 2.61 1.47 2.61 2.81v2.14h.71v1.67h-3.88v-3.56c0-.43 0-1.19-.88-1.19s-.95.64-.95 1.19v1.81h1.08v1.67zM549.31 764.88v-1.67h.62v-3.06h-.62v-1.66h3.5v.79a2.71 2.71 0 012.14-1c2.32 0 2.7 1.47 2.7 2.81v2.14h.71v1.67h-3.77v-3.49c0-.43 0-1.19-.84-1.19s-.94.64-.94 1.19v1.82h1.08v1.67zM568.3 764a5.58 5.58 0 01-3.68 1.11c-1.78 0-3.78-1-3.78-3.46 0-2.1 1.69-3.34 3.85-3.34a3.48 3.48 0 013.41 1.85 3.34 3.34 0 010 2.16h-4.5c.09.35.27 1 1.47 1a3.16 3.16 0 002-.61zm-2.47-2.94c0-.49-.14-1-1.06-1a1.06 1.06 0 00-1.1 1zM573.49 762.81a4.74 4.74 0 01.44-1.41l.71-1.29h-.78v-1.62h3.79v1.62h-.76l-2.55 4.77h-2.27l-2.73-4.77h-.69v-1.62h4.46v1.62h-.73l.67 1.36a6.59 6.59 0 01.38 1.34zM585.59 764a5.73 5.73 0 01-3.74 1.11c-1.8 0-3.82-1-3.82-3.46 0-2.1 1.71-3.34 3.9-3.34a3.55 3.55 0 013.46 1.85 3.34 3.34 0 010 2.16h-4.57c.09.35.28 1 1.5 1a3.27 3.27 0 002-.61zm-2.5-2.94c0-.49-.15-1-1.08-1a1.06 1.06 0 00-1.11 1zM610.84 748.6v-1.82h-3.15v.74a3.16 3.16 0 00-2.8-.63c-1.53.49-2.13 1.64-2.15 3.33a2.93 2.93 0 002.92 3c1.69 0 2-.74 2-.74v.71h3.13v-1.77h-.63v-2.82zm-4.2 2.57a1.15 1.15 0 010-2.3 1.15 1.15 0 010 2.3zM569.65 737.05h4.08v3.26h-4.08zM500.5 746.59v-1.74h2.82v1.74h1.46v1.7h-1.46v3.13h1.45v1.71c-.28.09-4.32 0-4.32 0s.06-1.81 0-2.47v-2.33h-.82v-1.7zM597.78 746.59v-1.74h2.82v1.74h1.45v1.7h-1.45v3.13h1.4v1.71c-.28.09-4.32 0-4.32 0s.07-1.81 0-2.47v-2.33H597v-1.7zM621.65 746.59v-1.74h2.82v1.74h1.45v1.7h-1.45v3.13h1.45v1.71c-.28.09-4.31 0-4.31 0s.06-1.81 0-2.47v-2.33h-.82v-1.7zM505.56 744.58v1.88h1.02l-1.38 1.89h.98l1.24-1.88v-1.89h-1.86zM538.1 753.17v-1.65h.65v-3h-.64v-1.65h3.22v.8a2.81 2.81 0 012.64-1.12v2.28c-1.34 0-2.44.29-2.44 1.4v1.31h.74v1.65zM590.29 753.17v-1.65h.65v-3h-.64v-1.65h3.22v.8a2.83 2.83 0 012.64-1.12v2.28c-1.33 0-2.43.29-2.43 1.4v1.31h.74v1.65zM526.11 758.31v-1.74h2.81v1.74h1.46V760h-1.46v3.13h1.46v1.71c-.28.09-4.32 0-4.32 0s.07-1.81.05-2.47V760h-.83v-1.7zM548.49 760.27v-1.82h-3.15v.73a3.16 3.16 0 00-2.8-.62c-1.53.49-2.13 1.63-2.15 3.33a3 3 0 003 3c1.69.06 2-.76 2-.76v.71h3.13v-1.74h-.63v-2.83zm-4.2 2.57a1.15 1.15 0 110-2.3 1.15 1.15 0 110 2.3zM586.25 764.88v-1.66h.66v-3h-.64v-1.65h3.22v.81a2.83 2.83 0 012.65-1.13v2.28c-1.34 0-2.44.29-2.44 1.41v1.3h.74v1.66zM592.93 762.78h2.63v2.1h-2.63z" fill="#fff"/><path d="M472.19 593.07c.91 12.85 1.54 25.71 2.19 38.57q1.38 27.43 2.59 54.89 1.38 30.4 2.73 60.82 1.28 28.27 2.62 56.54c.66 13.69 1.32 27.39 2.19 41.08.07 1.16.15 2.32.23 3.48a3.07 3.07 0 003 3 3 3 0 003-3c-.88-12.92-1.5-25.85-2.14-38.77q-1.35-27.49-2.57-55-1.36-30.41-2.73-60.83-1.28-28.23-2.64-56.44c-.67-13.64-1.34-27.28-2.23-40.9l-.24-3.45a3.08 3.08 0 00-3-3 3 3 0 00-3 3zM426.81 594.17c.89 12.66 1.54 25.35 2.17 38q1.35 27 2.4 54 1.2 29.85 2.09 59.71c.53 18.31 1 36.62 1.2 54.93.16 13.52.3 27.06-.2 40.57 0 1.15-.09 2.31-.15 3.47a3 3 0 006 0c.63-12.66.53-25.37.41-38.05-.15-18-.57-36-1.07-54q-.82-29.87-2-59.71-1.07-27.47-2.38-54.92c-.66-13.52-1.34-27-2.24-40.54-.07-1.16-.15-2.31-.23-3.47a3.08 3.08 0 00-3-3 3 3 0 00-3 3z" fill="#636363"/><path fill="none" stroke="#a5a5a5" stroke-linecap="round" stroke-linejoin="round" stroke-width="6" d="M487.74 848.45l-.56-10.13M437.32 844.85l.47-10.58"/></svg>