<svg xmlns="http://www.w3.org/2000/svg" width="1000" height="1550" viewBox="0 0 1000 1550"><path fill="#262521" stroke="#262521" stroke-linecap="round" stroke-linejoin="round" stroke-width="3.24" d="M278.44 1253.73l397.52-5.62 22.8 310.88-397.55 4.55-22.77-309.81z"/><path d="M367.85 530.24s.01-.04 0 0z" fill="#262521"/><path d="M752.22 1043c-3.84-55.87-22.89-124.63-22.89-124.63s-14.58-307-52.88-331.94c-10.88-7.11-146.29-58.21-146.29-58.21s1.51 53.49-78.84 53.49c-65.09 0-78.6-36.73-82.72-48.88a11.73 11.73 0 01-.75-2.59c-1 .64-104.44 63.69-148.94 90.5C174.18 647.69 192.24 945 192.24 945a619.73 619.73 0 00-3.6 128.12c5.52 68.42-1.88 179.2 14.45 197.93l61-1.5s-5.61-14.34-4.66-27c2.28-30.22 5.54-104.26 15.36-135.21 4.92-15.48 9.78-37.06 13.91-55.27h.23c-3.88 32.6-26.11 146.78-14.71 171.94 0 13-1.32 46.49-1.32 46.49s73.26 18.64 150.25 17.71c137.53-1.66 260.87-23.64 260.87-23.64s-4.18-33-5-46.63c8.57-14.78.77-78.1-8.24-134.84h.22c15.66 47 30.92 103.57 32.82 134.18 1.63 26.39 2.88 34.36 2.88 34.36h58.1s4.49-6.66 5.3-18.88-12.31-108.5-17.88-189.76z" fill="#262521" stroke="#262521" stroke-linecap="round" stroke-linejoin="round" stroke-width="3"/><path d="M541.9 752s9.91-4 8.81-16.1c0 0 11.09-.58 15.15 2.78 0 0-16.35 16-23.96 13.32zM530.55 737.15S530 750 538.9 751.78c0 0-9.48 2-21-9-.04.01 5.96-5.73 12.65-5.63z" fill="#fff"/><circle cx="537.65" cy="738.89" r="4.21" fill="#fff"/><path d="M513.56 735.67s18.31-32.55 49.29-7.14c0 0-30.89-18.35-46.11 9.8zM464.08 700.15s9.92-4 8.81-16.1c0 0 11.1-.59 15.15 2.78-.04 0-16.35 16-23.96 13.32zM452.73 685.3s-.58 12.84 8.35 14.63c0 0-9.48 2-21-9-.03.01 5.92-5.73 12.65-5.63z" fill="#fff"/><circle cx="459.83" cy="687.04" r="4.21" fill="#fff"/><path d="M435.74 683.81s18.31-32.54 49.3-7.13c0 0-30.9-18.35-46.11 9.8zM299.27 704.41s9.92-4 8.81-16.1c0 0 11.09-.58 15.15 2.78 0 0-16.35 16-23.96 13.32zM287.92 689.56s-.58 12.84 8.35 14.63c0 0-9.48 2-21-9-.03.01 5.96-5.73 12.65-5.63z" fill="#fff"/><circle cx="295.02" cy="691.3" r="4.21" fill="#fff"/><path d="M270.93 688.08s18.31-32.54 49.29-7.14c0 0-30.89-18.35-46.1 9.8zM620.57 696.1s9.92-4 8.81-16.1c0 0 11.09-.58 15.15 2.78 0 0-16.35 16-23.96 13.32zM609.22 681.25s-.58 12.84 8.35 14.63c0 0-9.48 2-21-9-.03.01 5.96-5.73 12.65-5.63z" fill="#fff"/><circle cx="616.32" cy="682.99" r="4.21" fill="#fff"/><path d="M592.23 679.77s18.31-32.55 49.29-7.14c0 0-30.89-18.35-46.1 9.8zM296.34 591.21s9.92-4 8.81-16.1c0 0 11.1-.59 15.15 2.78 0 0-16.3 16-23.96 13.32zM285.15 579.57c-3.28 1.66-6.77 2.95-9.74 5.11 10.1 7.94 17.93 6.3 17.93 6.3-6.05-1.2-7.73-7.48-8.19-11.41zM293.67 574.19c-1.9 1.41-3.84 2.77-5.77 4.14a4.2 4.2 0 105.77-4.14zM617.64 582.9s9.92-4 8.81-16.1c0 0 9.35-.38 13.41 3 0-.01-14.61 15.78-22.22 13.1zM606.29 568.05s-.58 12.84 8.35 14.62c0 0-9.48 2-21-9-.03.02 5.96-5.67 12.65-5.62z" fill="#fff"/><circle cx="613.39" cy="569.79" r="4.21" fill="#fff"/><path d="M600.47 554.66a40.1 40.1 0 00-11.17 11.9l3.19 2.67c3.55-6.58 8-10.6 12.64-12.93a47.64 47.64 0 00-4.66-1.64zM384.18 756.08s9.92-4 8.81-16.1c0 0 11.1-.59 15.15 2.78 0 0-16.35 16-23.96 13.32zM372.83 741.23s-.58 12.84 8.35 14.63c0 0-9.47 2-21-9-.03.01 5.96-5.73 12.65-5.63z" fill="#fff"/><circle cx="379.93" cy="742.97" r="4.21" fill="#fff"/><path d="M355.85 739.74s18.3-32.54 49.29-7.13c0 0-30.9-18.35-46.11 9.8zM544.79 863.91s9.92-4 8.81-16.1c0 0 11.1-.58 15.15 2.79 0 0-16.35 15.99-23.96 13.31zM533.44 849.06s-.58 12.85 8.35 14.63c0 0-9.48 2-21-9-.03.01 5.96-5.69 12.65-5.63z" fill="#fff"/><circle cx="540.54" cy="850.8" r="4.21" fill="#fff"/><path d="M516.45 847.58s18.31-32.54 49.29-7.14c0 0-30.89-18.35-46.1 9.8zM467 812.06s9.91-4 8.81-16.1c0 0 11.09-.58 15.15 2.78-.02 0-16.37 16-23.96 13.32zM455.63 797.21s-.63 12.84 8.37 14.63c0 0-9.48 2-21-9 0 .01 5.94-5.73 12.63-5.63z" fill="#fff"/><circle cx="462.73" cy="798.95" r="4.21" fill="#fff"/><path d="M438.64 795.73s18.31-32.54 49.29-7.14c0 0-30.89-18.35-46.11 9.8zM302.17 816.33s9.91-4 8.8-16.1c0 0 11.1-.59 15.15 2.78 0-.01-16.35 15.99-23.95 13.32zM290.81 801.48a13.77 13.77 0 00-4.72.81V813c7.65 4.19 13.07 3.06 13.07 3.06-8.93-1.74-8.35-14.58-8.35-14.58z" fill="#fff"/><circle cx="297.91" cy="803.22" r="4.21" fill="#fff"/><path d="M286.09 787.36v4.51c15.92-11.56 37 1 37 1-15.93-13.11-28.53-10.81-37-5.51zM638.74 792.08a51.19 51.19 0 00-6.47-.17c1.11 12.08-8.8 16.1-8.8 16.1 4.26 1.51 11.28-2.86 16.62-7-.09-.25-1.01-6.2-1.35-8.93zM612.11 793.16s-.58 12.85 8.35 14.63c0 0-9.47 2-21-9-.03.02 5.96-5.73 12.65-5.63z" fill="#fff"/><circle cx="619.21" cy="794.9" r="4.21" fill="#fff"/><path d="M636.81 779.28c-26.35-14.85-41.68 12.4-41.68 12.4l3.18 2.67c10.59-19.6 28.77-16.67 38.85-13.07-.11-.67-.22-1.28-.35-2zM387.08 868s9.91-4 8.81-16.1c0 0 11.09-.58 15.15 2.78-.04-.01-16.35 15.99-23.96 13.32zM375.73 853.14s-.59 12.84 8.35 14.63c0 0-9.48 2-21-9-.03.01 5.92-5.77 12.65-5.63z" fill="#fff"/><circle cx="382.83" cy="854.88" r="4.21" fill="#fff"/><path d="M358.74 851.66s18.31-32.54 49.29-7.14c0 0-30.89-18.35-46.11 9.8zM547.87 982.92s9.91-4 8.81-16.1c0 0 11.09-.58 15.15 2.78 0 0-16.35 16-23.96 13.32zM536.52 968.07s-.58 12.84 8.35 14.63c0 0-9.48 2-21-9-.03.01 5.96-5.7 12.65-5.63z" fill="#fff"/><circle cx="543.62" cy="969.81" r="4.21" fill="#fff"/><path d="M519.53 966.59s18.31-32.54 49.29-7.14c0 0-30.89-18.35-46.11 9.8zM470.06 931.07s9.91-4 8.8-16.1c0 0 11.1-.58 15.16 2.78-.02 0-16.36 16-23.96 13.32zM458.71 916.22s-.59 12.84 8.34 14.63c0 0-9.47 2-21-9-.05.01 5.95-5.73 12.66-5.63z" fill="#fff"/><circle cx="465.81" cy="917.96" r="4.21" fill="#fff"/><path d="M441.72 914.74S460 882.19 491 907.6c0 0-30.9-18.35-46.11 9.8zM305.24 935.33s9.92-4 8.81-16.1c0 0 11.1-.58 15.15 2.79 0-.02-16.35 15.98-23.96 13.31zM293.89 920.48a15 15 0 00-6.26 1.43v9.23c8.45 5.26 14.61 4 14.61 4-8.93-1.81-8.35-14.66-8.35-14.66z" fill="#fff"/><circle cx="300.99" cy="922.22" r="4.21" fill="#fff"/><path d="M287.63 907.39v4.7c16.06-13.59 38.57-.23 38.57-.23-16.96-13.86-30.13-10.45-38.57-4.47zM626.54 927s9.92-4 8.81-16.1c0 0 11.1-.58 15.15 2.79 0 .02-16.35 16.01-23.96 13.31zM615.19 912.17s-.58 12.85 8.35 14.63c0 0-9.47 2-21-9-.03.02 5.96-5.73 12.65-5.63z" fill="#fff"/><circle cx="622.29" cy="913.91" r="4.21" fill="#fff"/><path d="M598.2 910.69s18.31-32.54 49.3-7.14c0 0-30.9-18.35-46.11 9.8zM390.16 987s9.91-4 8.81-16.1c0 0 11.09-.58 15.15 2.78 0 0-16.35 16-23.96 13.32zM378.81 972.15s-.59 12.84 8.35 14.63c0 0-9.48 2-21-9-.03.01 5.96-5.73 12.65-5.63z" fill="#fff"/><circle cx="385.91" cy="973.89" r="4.21" fill="#fff"/><path d="M361.82 970.67s18.31-32.55 49.29-7.14c0 0-30.89-18.35-46.11 9.8zM550.7 1092.22s9.91-4 8.81-16.1c0 0 11.09-.58 15.15 2.78 0 0-16.35 16-23.96 13.32zM539.35 1077.37s-.59 12.84 8.35 14.63c0 0-9.48 2-21-9-.03 0 5.96-5.73 12.65-5.63z" fill="#fff"/><circle cx="546.45" cy="1079.11" r="4.21" fill="#fff"/><path d="M522.36 1075.89s18.31-32.55 49.29-7.14c0 0-30.89-18.35-46.11 9.8zM472.88 1040.37s9.92-4 8.81-16.1c0 0 11.1-.58 15.15 2.78 0 0-16.35 16-23.96 13.32zM461.53 1025.52s-.58 12.84 8.35 14.63c0 0-9.48 2-21-9-.03.01 5.96-5.73 12.65-5.63z" fill="#fff"/><circle cx="468.63" cy="1027.26" r="4.21" fill="#fff"/><path d="M444.54 1024s18.31-32.55 49.3-7.14c0 0-30.9-18.35-46.11 9.8zM308.07 1044.63s9.92-4 8.81-16.1c0 0 11.1-.58 15.15 2.79-.03 0-16.35 15.99-23.96 13.31zM296.72 1029.78a15.25 15.25 0 00-6.54 1.56v8.93c8.59 5.46 14.89 4.14 14.89 4.14-8.93-1.78-8.35-14.63-8.35-14.63z" fill="#fff"/><circle cx="303.82" cy="1031.52" r="4.21" fill="#fff"/><path d="M290.18 1016.9v4.73c16.07-14 38.84-.47 38.84-.47-17.15-14.06-30.42-10.37-38.84-4.26zM629.37 1036.32s9.92-4 8.81-16.1c0 0 11.1-.58 15.15 2.79 0-.01-16.33 15.99-23.96 13.31zM618 1021.47s-.58 12.85 8.35 14.63c0 0-9.48 2-21-9-.01.01 5.98-5.73 12.65-5.63z" fill="#fff"/><circle cx="625.12" cy="1023.21" r="4.21" fill="#fff"/><path d="M601 1020s18.31-32.54 49.29-7.14c0 0-30.89-18.35-46.1 9.8zM475.94 1158.72s9.92-4 8.81-16.1c0 0 11.1-.58 15.15 2.79 0 0-16.35 15.99-23.96 13.31zM464.59 1143.87s-.58 12.85 8.35 14.63c0 0-9.47 2-21-9-.03.02 5.96-5.73 12.65-5.63z" fill="#fff"/><circle cx="471.69" cy="1145.61" r="4.21" fill="#fff"/><path d="M447.6 1142.39s18.31-32.54 49.3-7.14c0 0-30.9-18.35-46.11 9.81zM311.13 1163s9.92-4 8.81-16.1c0 0 11.1-.59 15.15 2.78 0-.01-16.35 15.99-23.96 13.32zM299.78 1148.14s-.58 12.84 8.35 14.62c0 0-9.48 2-21-9-.03.02 5.96-5.76 12.65-5.62z" fill="#fff"/><circle cx="306.88" cy="1149.88" r="4.21" fill="#fff"/><path d="M282.79 1146.65s18.31-32.54 49.29-7.14c0 0-30.89-18.35-46.1 9.81zM632.43 1154.68s9.92-4 8.81-16.1c0 0 11.1-.59 15.15 2.78 0 0-16.39 16-23.96 13.32zM621.08 1139.83s-.58 12.84 8.35 14.62c0 0-9.48 2-21-9-.03.02 5.96-5.73 12.65-5.62z" fill="#fff"/><circle cx="628.18" cy="1141.57" r="4.21" fill="#fff"/><path d="M604.09 1138.34s18.31-32.54 49.29-7.14c0 0-30.89-18.35-46.1 9.81zM393 1096.3s9.92-4 8.81-16.1c0 0 11.1-.58 15.15 2.78-.02.02-16.37 16.02-23.96 13.32zM381.63 1081.45s-.58 12.84 8.35 14.63c0 0-9.47 2-21-9 .02.01 5.96-5.73 12.65-5.63z" fill="#fff"/><circle cx="388.73" cy="1083.19" r="4.21" fill="#fff"/><path d="M364.65 1080s18.3-32.55 49.29-7.14c0 0-30.9-18.35-46.11 9.8zM538.93 637.13s9.91-4 8.8-16.1c0 0 11.1-.58 15.15 2.78 0 0-16.35 16-23.95 13.32zM527.57 622.28s-.58 12.84 8.35 14.63c0 0-9.47 2-21-9-.03.01 5.96-5.73 12.65-5.63z" fill="#fff"/><circle cx="534.67" cy="624.02" r="4.21" fill="#fff"/><path d="M510.59 620.8s18.3-32.55 49.29-7.14c0 0-30.9-18.35-46.11 9.8zM381.21 641.21s9.92-4 8.81-16.1c0 0 11.1-.58 15.15 2.78 0 0-16.35 16-23.96 13.32zM369.86 626.36s-.58 12.84 8.35 14.63c0 0-9.47 2-21-9-.03.01 5.96-5.73 12.65-5.63z" fill="#fff"/><circle cx="376.96" cy="628.1" r="4.21" fill="#fff"/><path d="M352.87 624.88s18.31-32.55 49.3-7.14c0 0-30.9-18.35-46.11 9.8zM696.06 781.07s9.49-4.93 7.26-16.85c0 0 11-1.62 15.35 1.35 0 0-14.78 17.43-22.61 15.5zM683.37 767.35s.62 12.84 9.68 13.78c0 0-9.25 2.87-21.78-7 0 .03 5.43-6.25 12.1-6.78z" fill="#fff"/><circle cx="690.6" cy="768.42" r="4.21" fill="#fff"/><path d="M666.31 767.47s15.18-34.12 48.41-11.73c0 0-32.48-15.37-45 14.08zM727.34 875.19a44.09 44.09 0 00-10.65.18c2.23 11.92-7.26 16.85-7.26 16.85 5 1.26 12.91-5.48 17.91-10.48zM696.74 878.5s.62 12.84 9.68 13.78c0 0-9.25 2.87-21.78-7 0 .03 5.42-6.28 12.1-6.78z" fill="#fff"/><circle cx="703.97" cy="879.57" r="4.21" fill="#fff"/><path d="M726.49 865.85c-32.12-20.25-46.81 12.77-46.81 12.77l3.42 2.38c10.85-25.54 36.71-17.37 43.39-14.75zM723.64 1010.42s9.5-4.94 7.26-16.85c0 0 11-1.62 15.35 1.35 0 0-14.78 17.46-22.61 15.5zM711 996.7s.62 12.84 9.68 13.78c0 0-9.25 2.87-21.78-7-.05.03 5.38-6.25 12.1-6.78z" fill="#fff"/><circle cx="718.18" cy="997.77" r="4.21" fill="#fff"/><path d="M693.9 996.81s15.18-34.11 48.4-11.72c0 0-32.47-15.38-45 14.08zM736.7 1119s9.49-4.93 7.26-16.85c0 0 10-1.62 14.34 1.35 0-.03-13.78 17.43-21.6 15.5zM724 1105.25s.62 12.84 9.68 13.78c0 0-9.25 2.87-21.78-7 .01.03 5.44-6.25 12.1-6.78z" fill="#fff"/><circle cx="731.24" cy="1106.32" r="4.21" fill="#fff"/><path d="M707 1105.37s15.18-34.12 48.41-11.73c0 0-32.48-15.37-45 14.08zM224.08 801.77s10.15-3.39 9.8-15.51c0 0 11.11.11 15 3.72-.05.02-17.37 14.94-24.8 11.79zM213.68 786.24s-1.38 12.76 7.42 15.12c0 0-9.58 1.39-20.43-10.29 0 0 6.33-5.35 13.01-4.83z" fill="#fff"/><circle cx="220.66" cy="788.42" r="4.21" fill="#fff"/><path d="M196.82 783.69s20.32-31.33 49.64-4c0 0-29.68-20.25-46.63 6.89zM219.69 920.74s10.14-3.4 9.8-15.52c0 0 11.11.12 14.94 3.73 0 .05-17.32 14.94-24.74 11.79zM209.29 905.21s-1.39 12.79 7.41 15.12c0 0-9.58 1.39-20.42-10.29 0-.04 6.34-5.35 13.01-4.83z" fill="#fff"/><circle cx="216.27" cy="907.39" r="4.21" fill="#fff"/><path d="M192.43 902.66s20.31-31.33 49.64-4c0 0-29.68-20.26-46.63 6.89zM215.65 1030s10.15-3.39 9.8-15.51c0 0 11.11.11 15 3.72-.05 0-17.37 14.94-24.8 11.79zM205.25 1014.47s-1.39 12.78 7.42 15.12c0 0-9.58 1.39-20.43-10.29 0 0 6.34-5.3 13.01-4.83z" fill="#fff"/><circle cx="212.23" cy="1016.65" r="4.21" fill="#fff"/><path d="M188.39 1011.92s20.31-31.33 49.64-4c0 0-29.68-20.25-46.63 6.89zM211.28 1148.31s10.15-3.39 9.8-15.51c0 0 11.11.11 14.95 3.73-.03 0-17.33 14.94-24.75 11.78zM200.88 1132.78c-4-.31-7.92 1.51-10.38 3v4.42c9.71 8.86 17.8 7.69 17.8 7.69-8.81-2.33-7.42-15.11-7.42-15.11z" fill="#fff"/><circle cx="207.86" cy="1134.96" r="4.21" fill="#fff"/><path d="M190.18 1123.29v5.46c17.23-20.46 43.48-2.55 43.48-2.55-19.66-18.34-35.34-10.2-43.48-2.91z" fill="#fff"/><path d="M272.86 1270.51s73.26 10.65 150.26 9.72c137.52-1.66 260.86-15.64 260.86-15.64" fill="none" stroke="#636363" stroke-linecap="round" stroke-linejoin="round"/><path fill="none" stroke="#636363" stroke-linecap="round" stroke-linejoin="round" stroke-width=".65" d="M744.95 1222.38v21.77M729.25 1222.43l.84 21.67M759.87 1222.29l-1.9 21.95M714.58 1222.57l2.74 21.39"/><path fill="none" stroke="#636363" stroke-linecap="round" stroke-linejoin="round" stroke-width=".66" d="M234.54 1240.84l1.98 22.44M220.18 1241.39l3.05 21.94M205.24 1241.47l3.88 22.52M248.63 1240.8l.21 22.18M483.67 1245.46l1.78 25.98M503.16 1244.5l1.78 25.98M522.66 1244.12l1.79 25.98M542.17 1243.55l1.78 25.98M561.66 1243.02l1.78 25.98M581.16 1242.64l1.78 25.98M598.45 1241.53l.89 25.98M617.05 1238.7v27.88M347.96 1248.16l1 24.01M367.6 1247.37l1 25.94M386.67 1248.14l1.79 25.98M405.69 1247.71l1.78 25.98M287.01 1236.5l.01 27.06M307.07 1241.08l-.5 27.56M327.44 1246v25.56M425.19 1247.33l1.78 25.98M444.64 1246.46l1.78 25.98M464.24 1245.87l1.78 25.98M636.05 1236.69l.22 27.85M654.81 1234.17l-.16 27.83M671.36 1231.93l1.05 27.86"/><path d="M367.85 530.24h0s.01-.04 0 0z" fill="none" stroke="#262521" stroke-miterlimit="10"/><path d="M770.06 1232.79c.82-12.22-12.27-108.53-17.84-189.79-3.84-55.87-22.89-124.63-22.89-124.63s-14.58-307-52.88-331.94c-10.88-7.11-146.29-58.21-146.29-58.21M188.64 1073.14c5.52 68.42-1.88 179.2 14.45 197.93M367.85 530.24c-1 .64-104.44 63.69-148.94 90.5" fill="none" stroke="#262521" stroke-linecap="round" stroke-linejoin="round" stroke-width="3"/></svg>