<svg xmlns="http://www.w3.org/2000/svg" width="1250" height="1550" viewBox="0 0 1250 1550"><title>s06e05-03</title><path d="M489.35,531.24l0,0S489.36,531.2,489.35,531.24Z" fill="#262521"/><path d="M877.22,1043c-3.84-55.87-22.89-124.63-22.89-124.63s-14.58-307-52.88-331.94c-10.88-7.11-142.29-56.21-142.29-56.21s-2.49,55-82.84,55c-65.09,0-82.1-39.23-86.22-51.38a11.73,11.73,0,0,1-.75-2.59c-1,.64-100.94,62.69-145.44,89.5C299.18,647.69,317.24,945,317.24,945a619.73,619.73,0,0,0-3.6,128.12c5.52,68.42-1.88,179.2,14.45,197.93l61-1.5s-5.61-14.34-4.66-27c2.28-30.22,5.54-104.26,15.36-135.21,4.92-15.48,9.78-37.06,13.91-55.27h.23c-3.88,32.6-26.06,146.08-14.66,171.24,0,13-1.31,46.48-1.31,46.48s73.25,18.65,150.25,17.72c137.52-1.66,260.87-23.64,260.87-23.64s-4.19-33-5-46.63c8.56-14.78.71-77.4-8.3-134.14H796c15.66,47,30.92,103.57,32.82,134.18,1.63,26.39,2.88,34.36,2.88,34.36h58.1s4.49-6.66,5.3-18.88S882.79,1124.26,877.22,1043Z" fill="#262521"/><path d="M439,979.89c5.84,32.16-15.65,178-16.11,197.22-.54,22.38-26.76,28.66-26.76,28.66-5.05-20.41,31.11-156.5,27.58-189.24-1.25-87.28-2.09-172.58-4.53-203.71,28.19-87.29-4-228.87-34.89-215.76,24.84-16,55.56-35.16,55.56-35.16,15.24,35.38,45.59,68.71,66.57,101C606.89,817.34,414.81,753.31,439,979.89Z" fill="#3a3934"/><path d="M430,979.89c5.84,32.16-15.27,178.05-16.11,197.22s-17.91,18.1-17.91,18.1c-5.05-20.4,22.26-145.94,18.73-178.68-1.25-87.28-2.09-172.58-4.53-203.71,28.19-87.29-2.54-225.16-33.46-212.05,24.84-16,56.53-34.79,56.53-34.79,15.24,35.38,45.31,63.36,64.17,96.88C597.49,814.06,405.81,753.31,430,979.89Z" fill="#adadad"/><path d="M411.41,841.43c11.38-19.73,45.45-153.3,1.25-262.15A205.31,205.31,0,0,0,376.73,603C403.55,633.37,411.41,841.43,411.41,841.43Z" fill="#878787"/><path d="M411.41,841.43c11.38-19.73,45.45-153.3,1.25-262.15A205.31,205.31,0,0,0,376.73,603C403.55,633.37,411.41,841.43,411.41,841.43Z" fill="#fff" opacity="0.5"/><path d="M411.22,830.34c6.36-15.66,38.63-142.56-4.54-247.69-13.81,7.34-37.29,20.16-49.2,29.87C403.62,646.7,411.22,830.34,411.22,830.34Z" fill="#fff"/><path d="M479.49,782.83c2.79,0,2.79-4.33,0-4.33s-2.79,4.33,0,4.33Z" fill="#fff"/><path d="M489.09,789.89c2.79,0,2.79-4.33,0-4.33s-2.79,4.33,0,4.33Z" fill="#fff"/><path d="M501.35,779.65c2.78,0,2.79-4.33,0-4.33s-2.79,4.33,0,4.33Z" fill="#fff"/><path d="M489.93,781.16c2.79,0,2.79-4.33,0-4.33s-2.79,4.33,0,4.33Z" fill="#fff"/><path d="M484.51,773.07c2.79,0,2.79-4.33,0-4.33s-2.79,4.33,0,4.33Z" fill="#fff"/><path d="M502.85,764c2.78,0,2.79-4.33,0-4.33s-2.79,4.33,0,4.33Z" fill="#fff"/><path d="M505.64,772.36c2.79,0,2.79-4.33,0-4.33s-2.79,4.33,0,4.33Z" fill="#fff"/><path d="M491.29,767.78c2.78,0,2.79-4.33,0-4.33s-2.79,4.33,0,4.33Z" fill="#fff"/><path d="M514.64,762.23c2.78,0,2.79-4.33,0-4.33s-2.79,4.33,0,4.33Z" fill="#fff"/><path d="M479.3,801.4c2.78,0,2.79-4.33,0-4.33s-2.8,4.33,0,4.33Z" fill="#fff"/><path d="M467.46,788.63c2.79,0,2.79-4.33,0-4.33s-2.79,4.33,0,4.33Z" fill="#fff"/><path d="M466.53,772.16c2.79,0,2.8-4.33,0-4.33s-2.79,4.33,0,4.33Z" fill="#fff"/><path d="M461,755.47c2.78,0,2.79-4.33,0-4.33s-2.79,4.33,0,4.33Z" fill="#fff"/><path d="M484.15,762.51c2.79,0,2.79-4.34,0-4.34s-2.79,4.34,0,4.34Z" fill="#fff"/><path d="M489.09,738.18c2.79,0,2.79-4.33,0-4.33s-2.79,4.33,0,4.33Z" fill="#fff"/><path d="M507.68,752.28c2.79,0,2.79-4.33,0-4.33s-2.79,4.33,0,4.33Z" fill="#fff"/><path d="M519.75,733.23c2.79,0,2.79-4.33,0-4.33s-2.79,4.33,0,4.33Z" fill="#fff"/><path d="M463.07,803c2.79,0,2.79-4.33,0-4.33s-2.79,4.33,0,4.33Z" fill="#fff"/><path d="M464,815c2.78,0,2.79-4.33,0-4.33s-2.8,4.33,0,4.33Z" fill="#fff"/><path d="M471.82,807.39c2.79,0,2.8-4.33,0-4.33s-2.79,4.33,0,4.33Z" fill="#fff"/><path d="M471,798.22c2.78,0,2.79-4.33,0-4.33s-2.79,4.33,0,4.33Z" fill="#fff"/><path d="M444.82,808c2.79,0,2.79-4.33,0-4.33s-2.79,4.33,0,4.33Z" fill="#fff"/><path d="M447.25,826.36c2.79,0,2.8-4.33,0-4.33s-2.79,4.33,0,4.33Z" fill="#fff"/><path d="M428.45,858c2.78,0,2.79-4.34,0-4.34s-2.8,4.34,0,4.34Z" fill="#fff"/><path d="M440.32,857.5c2.79,0,2.8-4.33,0-4.33s-2.79,4.33,0,4.33Z" fill="#fff"/><path d="M437.27,867.07c2.79,0,2.79-4.33,0-4.33s-2.79,4.33,0,4.33Z" fill="#fff"/><path d="M420.21,868.72c2.78,0,2.79-4.33,0-4.33s-2.79,4.33,0,4.33Z" fill="#fff"/><path d="M428.48,885.81c2.79,0,2.79-4.33,0-4.33s-2.79,4.33,0,4.33Z" fill="#fff"/><path d="M429.5,875.77c2.79,0,2.79-4.33,0-4.33s-2.79,4.33,0,4.33Z" fill="#fff"/><path d="M419.61,881.76c2.78,0,2.79-4.33,0-4.33s-2.79,4.33,0,4.33Z" fill="#fff"/><path d="M422,907.57c2.78,0,2.79-4.33,0-4.33s-2.8,4.33,0,4.33Z" fill="#fff"/><path d="M421.73,921.43c2.78,0,2.79-4.33,0-4.33s-2.79,4.33,0,4.33Z" fill="#fff"/><path d="M418.77,934.7c2.78,0,2.79-4.33,0-4.33s-2.8,4.33,0,4.33Z" fill="#fff"/><path d="M421.87,953.09c2.79,0,2.79-4.33,0-4.33s-2.79,4.33,0,4.33Z" fill="#fff"/><path d="M419.84,1024.31c2.79,0,2.8-4.33,0-4.33s-2.79,4.33,0,4.33Z" fill="#fff"/><path d="M425.24,1033.68c2.79,0,2.8-4.33,0-4.33s-2.79,4.33,0,4.33Z" fill="#fff"/><path d="M419.31,1048.19c2.79,0,2.79-4.33,0-4.33s-2.79,4.33,0,4.33Z" fill="#fff"/><path d="M422.19,1056.55c2.78,0,2.79-4.33,0-4.33s-2.8,4.33,0,4.33Z" fill="#fff"/><path d="M423,1070.63c2.78,0,2.79-4.33,0-4.33s-2.8,4.33,0,4.33Z" fill="#fff"/><path d="M417.13,1064.53c2.78,0,2.79-4.33,0-4.33s-2.79,4.33,0,4.33Z" fill="#fff"/><path d="M420.74,1082.31c2.79,0,2.79-4.33,0-4.33s-2.79,4.33,0,4.33Z" fill="#fff"/><path d="M414.23,1095.13c2.79,0,2.79-4.33,0-4.33s-2.79,4.33,0,4.33Z" fill="#fff"/><path d="M415.78,1121.91c2.79,0,2.79-4.33,0-4.33s-2.79,4.33,0,4.33Z" fill="#fff"/><path d="M421.76,583.52c2.79,0,2.79-4.33,0-4.33s-2.79,4.33,0,4.33Z" fill="#706f6b"/><path d="M428.72,589c2.79,0,2.79-4.33,0-4.33s-2.79,4.33,0,4.33Z" fill="#706f6b"/><path d="M428.12,580.19c2.78,0,2.79-4.33,0-4.33s-2.79,4.33,0,4.33Z" fill="#706f6b"/><path d="M435,582.74c2.79,0,2.79-4.34,0-4.34s-2.79,4.34,0,4.34Z" fill="#706f6b"/><path d="M422.78,594.06c2.79,0,2.79-4.33,0-4.33s-2.79,4.33,0,4.33Z" fill="#706f6b"/><path d="M428.77,610.05c2.79,0,2.8-4.33,0-4.33s-2.79,4.33,0,4.33Z" fill="#706f6b"/><path d="M433.37,598.72c2.78,0,2.79-4.33,0-4.33s-2.79,4.33,0,4.33Z" fill="#706f6b"/><path d="M439.36,609.52c2.78,0,2.79-4.33,0-4.33s-2.79,4.33,0,4.33Z" fill="#706f6b"/><path d="M433.18,625c2.79,0,2.79-4.33,0-4.33s-2.79,4.33,0,4.33Z" fill="#706f6b"/><path d="M439.13,846.11c2.79,0,2.8-4.33,0-4.33s-2.79,4.33,0,4.33Z" fill="#706f6b"/><path d="M438.84,835c2.79,0,2.79-4.33,0-4.33s-2.79,4.33,0,4.33Z" fill="#706f6b"/><path d="M446.08,835.11c2.79,0,2.79-4.33,0-4.33s-2.79,4.33,0,4.33Z" fill="#706f6b"/><path d="M446.57,842.81c2.78,0,2.79-4.33,0-4.33s-2.79,4.33,0,4.33Z" fill="#706f6b"/><path d="M443.88,851.11c2.79,0,2.79-4.33,0-4.33s-2.79,4.33,0,4.33Z" fill="#706f6b"/><path d="M453.25,832.13c2.78,0,2.79-4.33,0-4.33s-2.79,4.33,0,4.33Z" fill="#706f6b"/><path d="M455.65,821.78c2.78,0,2.79-4.33,0-4.33s-2.8,4.33,0,4.33Z" fill="#706f6b"/><path d="M463.07,821.78c2.79,0,2.79-4.33,0-4.33s-2.79,4.33,0,4.33Z" fill="#706f6b"/><path d="M445.53,816c2.79,0,2.79-4.33,0-4.33s-2.79,4.33,0,4.33Z" fill="#706f6b"/><path d="M433.72,819.51c2.79,0,2.79-4.33,0-4.33s-2.79,4.33,0,4.33Z" fill="#706f6b"/><path d="M436.17,807.39c2.79,0,2.79-4.33,0-4.33s-2.79,4.33,0,4.33Z" fill="#706f6b"/><path d="M430.44,798.9c2.79,0,2.79-4.33,0-4.33s-2.79,4.33,0,4.33Z" fill="#706f6b"/><path d="M427.28,817c2.79,0,2.79-4.33,0-4.33s-2.79,4.33,0,4.33Z" fill="#706f6b"/><path d="M424,825.62c2.79,0,2.79-4.33,0-4.33s-2.79,4.33,0,4.33Z" fill="#706f6b"/><path d="M431.8,829c2.78,0,2.79-4.33,0-4.33S429,829,431.8,829Z" fill="#706f6b"/><path d="M430,837.18c2.79,0,2.79-4.33,0-4.33s-2.79,4.33,0,4.33Z" fill="#706f6b"/><path d="M422.07,837.94c2.79,0,2.79-4.33,0-4.33s-2.79,4.33,0,4.33Z" fill="#706f6b"/><path d="M430.6,848.75c2.79,0,2.8-4.33,0-4.33s-2.79,4.33,0,4.33Z" fill="#706f6b"/><path d="M419.61,847.22c2.78,0,2.79-4.33,0-4.33s-2.79,4.33,0,4.33Z" fill="#706f6b"/><path d="M418.8,857.64c2.79,0,2.79-4.33,0-4.33s-2.79,4.33,0,4.33Z" fill="#706f6b"/><path d="M415.7,852.25c2.79,0,2.79-4.33,0-4.33s-2.79,4.33,0,4.33Z" fill="#706f6b"/><path d="M434.71,784.28c2.79,0,2.79-4.34,0-4.34s-2.79,4.34,0,4.34Z" fill="#706f6b"/><path d="M442.72,776.27c2.79,0,2.8-4.33,0-4.33s-2.79,4.33,0,4.33Z" fill="#706f6b"/><path d="M446.19,788.08c2.79,0,2.79-4.33,0-4.33s-2.79,4.33,0,4.33Z" fill="#706f6b"/><path d="M438.3,791.94c2.78,0,2.79-4.33,0-4.33s-2.8,4.33,0,4.33Z" fill="#706f6b"/><path d="M453.07,797.75c2.78,0,2.79-4.33,0-4.33s-2.79,4.33,0,4.33Z" fill="#706f6b"/><path d="M458.31,777.09c2.78,0,2.79-4.33,0-4.33s-2.8,4.33,0,4.33Z" fill="#706f6b"/><path d="M453.25,767.5c2.78,0,2.79-4.33,0-4.33s-2.79,4.33,0,4.33Z" fill="#706f6b"/><path d="M439.92,766c2.79,0,2.79-4.33,0-4.33s-2.79,4.33,0,4.33Z" fill="#706f6b"/><path d="M437.74,743.42c2.79,0,2.8-4.33,0-4.33s-2.79,4.33,0,4.33Z" fill="#706f6b"/><path d="M443.51,755c2.79,0,2.79-4.33,0-4.33s-2.79,4.33,0,4.33Z" fill="#706f6b"/><path d="M458.58,742.44c2.78,0,2.79-4.33,0-4.33s-2.79,4.33,0,4.33Z" fill="#706f6b"/><path d="M469.93,753c2.78,0,2.79-4.33,0-4.33s-2.79,4.33,0,4.33Z" fill="#706f6b"/><path d="M482.27,749.71c2.79,0,2.79-4.33,0-4.33s-2.79,4.33,0,4.33Z" fill="#706f6b"/><path d="M491.52,754.5c2.79,0,2.79-4.33,0-4.33s-2.79,4.33,0,4.33Z" fill="#706f6b"/><path d="M475.48,738.23c2.79,0,2.79-4.33,0-4.33s-2.79,4.33,0,4.33Z" fill="#706f6b"/><path d="M463.07,730.12c2.79,0,2.79-4.33,0-4.33s-2.79,4.33,0,4.33Z" fill="#706f6b"/><path d="M450,731.64c2.79,0,2.79-4.33,0-4.33s-2.79,4.33,0,4.33Z" fill="#706f6b"/><path d="M452,711.81c2.79,0,2.79-4.33,0-4.33s-2.79,4.33,0,4.33Z" fill="#706f6b"/><path d="M466.78,715c2.79,0,2.79-4.33,0-4.33s-2.79,4.33,0,4.33Z" fill="#706f6b"/><path d="M480.63,722c2.78,0,2.79-4.33,0-4.33s-2.79,4.33,0,4.33Z" fill="#706f6b"/><path d="M474.21,727.76c2.79,0,2.79-4.33,0-4.33s-2.79,4.33,0,4.33Z" fill="#706f6b"/><path d="M467.88,737.15c2.79,0,2.8-4.33,0-4.33s-2.79,4.33,0,4.33Z" fill="#706f6b"/><path d="M497.27,725.79c2.79,0,2.79-4.33,0-4.33s-2.79,4.33,0,4.33Z" fill="#706f6b"/><path d="M503.59,735c2.78,0,2.79-4.33,0-4.33s-2.79,4.33,0,4.33Z" fill="#706f6b"/><path d="M508.67,723.4c2.79,0,2.79-4.33,0-4.33s-2.79,4.33,0,4.33Z" fill="#706f6b"/><path d="M517.31,711.19c2.78,0,2.79-4.33,0-4.33s-2.79,4.33,0,4.33Z" fill="#706f6b"/><path d="M503,712.83c2.78,0,2.79-4.33,0-4.33s-2.79,4.33,0,4.33Z" fill="#706f6b"/><path d="M505,693.78c2.79,0,2.79-4.33,0-4.33s-2.79,4.33,0,4.33Z" fill="#706f6b"/><path d="M492.9,701.92c2.79,0,2.79-4.33,0-4.33s-2.79,4.33,0,4.33Z" fill="#706f6b"/><path d="M493.62,709.35c2.79,0,2.79-4.33,0-4.33s-2.79,4.33,0,4.33Z" fill="#706f6b"/><path d="M471.82,692.33c2.79,0,2.8-4.33,0-4.33s-2.79,4.33,0,4.33Z" fill="#706f6b"/><path d="M493.54,679.13c2.79,0,2.79-4.33,0-4.33s-2.79,4.33,0,4.33Z" fill="#706f6b"/><path d="M477.53,663.1c2.78,0,2.79-4.33,0-4.33s-2.79,4.33,0,4.33Z" fill="#706f6b"/><path d="M480.55,699.76c2.79,0,2.79-4.33,0-4.33s-2.79,4.33,0,4.33Z" fill="#706f6b"/><path d="M418.63,970.59c2.79,0,2.79-4.33,0-4.33s-2.79,4.33,0,4.33Z" fill="#706f6b"/><path d="M422.19,981.88c2.78,0,2.79-4.33,0-4.33s-2.79,4.33,0,4.33Z" fill="#706f6b"/><path d="M420.81,991c2.78,0,2.79-4.33,0-4.33s-2.8,4.33,0,4.33Z" fill="#706f6b"/><path d="M425.41,1002.55c2.79,0,2.8-4.33,0-4.33s-2.79,4.33,0,4.33Z" fill="#706f6b"/><path d="M420.41,998.58c2.79,0,2.79-4.33,0-4.33s-2.79,4.33,0,4.33Z" fill="#706f6b"/><path d="M427.28,1015c2.79,0,2.79-4.33,0-4.33s-2.79,4.33,0,4.33Z" fill="#706f6b"/><path d="M408.41,1127c2.78,0,2.79-4.33,0-4.33s-2.79,4.33,0,4.33Z" fill="#706f6b"/><path d="M413.45,1135.5c2.79,0,2.79-4.33,0-4.33s-2.79,4.33,0,4.33Z" fill="#706f6b"/><path d="M413.06,1108.72c2.79,0,2.8-4.33,0-4.33s-2.79,4.33,0,4.33Z" fill="#706f6b"/><path d="M404.53,1152.58c2.78,0,2.79-4.33,0-4.33s-2.8,4.33,0,4.33Z" fill="#706f6b"/><path d="M407.24,1143.65c2.79,0,2.79-4.33,0-4.33s-2.79,4.33,0,4.33Z" fill="#706f6b"/><path d="M411.51,1167.33c2.79,0,2.79-4.33,0-4.33s-2.79,4.33,0,4.33Z" fill="#706f6b"/><path d="M404.14,1173.92c2.78,0,2.79-4.33,0-4.33s-2.79,4.33,0,4.33Z" fill="#706f6b"/><path d="M406.85,1185.18c2.79,0,2.8-4.33,0-4.33s-2.79,4.33,0,4.33Z" fill="#706f6b"/><path d="M764.18,989.06c3.56,74.59,14.37,157.49,17.92,190.1,2.73,25,25.49,16.21,25.49,16.21.88-22.34-19-84.81-28.09-156.74-6.19-48.92-7.2-81.13-10.71-122.51,0,0-6.5-51-10.15-99.58-26.55-110-22-253.67,13.15-242.61,0,0-42.34-18.41-71.56-26.56-12.93,40.28-23.09,81.62-42.76,119C562.29,847.32,752.07,735.28,764.18,989.06Z" fill="#3a3934"/><path d="M772.57,1023.3c9.43,76.79,12.42,115.56,16,148.16,2.73,25,19.55,17,19.55,17,.88-22.34-10-77.91-19.1-149.84-6.19-48.92-7.2-81.13-10.71-122.51,0,0-6.5-51-10.15-99.58-26.55-110-24.39-246.41,10.78-235.35-25.65-16.71-41.82-21.25-71-29.4-12.93,40.28-23.83,76-40.91,114.58-84.12,158.34,59.8,90,99.32,260.46C770.64,945.62,769.5,998.27,772.57,1023.3Z" fill="#adadad"/><path d="M771,850.77s-40.38-245.16.79-274.34c-13.19-8.59-17.19-10.34-31.72-15.74C681.83,713.1,771,850.77,771,850.77Z" fill="#878787"/><path d="M771,850.77s-40.38-245.16.79-274.34c-13.19-8.59-17.19-10.34-31.72-15.74C681.83,713.1,771,850.77,771,850.77Z" fill="#fff" opacity="0.5"/><path d="M769.61,837.4c0-2.66-27.27-221.61,26-253.9-13.19-8.59-35-14-49.51-19.39C696.92,678.77,757.06,823.27,769.61,837.4Z" fill="#fff"/><path d="M730.05,790.13c3.06,0,3.07-4.75,0-4.75s-3.06,4.75,0,4.75Z" fill="#fff"/><path d="M739.86,796.66c3,0,3.06-4.75,0-4.75s-3.07,4.75,0,4.75Z" fill="#fff"/><path d="M731.69,803.2c3.06,0,3.06-4.76,0-4.76s-3.07,4.76,0,4.76Z" fill="#fff"/><path d="M743,811.34c3.05,0,3.06-4.75,0-4.75s-3.07,4.75,0,4.75Z" fill="#fff"/><path d="M732.89,817.86c3.06,0,3.06-4.75,0-4.75s-3.06,4.75,0,4.75Z" fill="#fff"/><path d="M714.07,799c3,0,3.06-4.76,0-4.76s-3.07,4.76,0,4.76Z" fill="#fff"/><path d="M714.07,819.31c3,0,3.06-4.76,0-4.76s-3.07,4.76,0,4.76Z" fill="#fff"/><path d="M739.41,826.55c3.05,0,3.06-4.76,0-4.76s-3.07,4.76,0,4.76Z" fill="#fff"/><path d="M743,840.3c3.05,0,3.06-4.75,0-4.75s-3.07,4.75,0,4.75Z" fill="#fff"/><path d="M750.27,840.3c3.05,0,3.06-4.75,0-4.75s-3.07,4.75,0,4.75Z" fill="#fff"/><path d="M750.27,822.93c3.05,0,3.06-4.76,0-4.76s-3.07,4.76,0,4.76Z" fill="#fff"/><path d="M756.78,833.06c3.06,0,3.07-4.75,0-4.75s-3.06,4.75,0,4.75Z" fill="#fff"/><path d="M745.2,832.34c3.06,0,3.06-4.75,0-4.75s-3.07,4.75,0,4.75Z" fill="#fff"/><path d="M764.57,853.14c3,0,3.06-4.75,0-4.75s-3.07,4.75,0,4.75Z" fill="#fff"/><path d="M748.09,851.89c3.06,0,3.07-4.76,0-4.76s-3.06,4.76,0,4.76Z" fill="#fff"/><path d="M761.12,842.48c3.06,0,3.07-4.76,0-4.76s-3.06,4.76,0,4.76Z" fill="#fff"/><path d="M764.57,867.75c3,0,3.06-4.76,0-4.76s-3.07,4.76,0,4.76Z" fill="#fff"/><path d="M734.54,846.1c3.06,0,3.06-4.76,0-4.76s-3.06,4.76,0,4.76Z" fill="#fff"/><path d="M731,828.19c3.06,0,3.07-4.76,0-4.76s-3.06,4.76,0,4.76Z" fill="#fff"/><path d="M653.8,768.08c3.06,0,3.07-4.76,0-4.76s-3.06,4.76,0,4.76Z" fill="#fff"/><path d="M648.67,750.7c3.06,0,3.06-4.75,0-4.75s-3.07,4.75,0,4.75Z" fill="#fff"/><path d="M669.66,751.43c3.06,0,3.07-4.76,0-4.76s-3.06,4.76,0,4.76Z" fill="#fff"/><path d="M657.35,731.88c3.06,0,3.07-4.76,0-4.76s-3.06,4.76,0,4.76Z" fill="#fff"/><path d="M770,914.57c3.06,0,3.06-4.76,0-4.76s-3.07,4.76,0,4.76Z" fill="#fff"/><path d="M774.3,927.6c3.06,0,3.07-4.76,0-4.76s-3.06,4.76,0,4.76Z" fill="#fff"/><path d="M770.68,934.11c3.06,0,3.07-4.75,0-4.75s-3.06,4.75,0,4.75Z" fill="#fff"/><path d="M772.8,952.76c3.06,0,3.07-4.75,0-4.75s-3.06,4.75,0,4.75Z" fill="#fff"/><path d="M779.11,1035.39c3.06,0,3.06-4.76,0-4.76s-3.07,4.76,0,4.76Z" fill="#fff"/><path d="M779.11,1053.52c3.06,0,3.06-4.76,0-4.76s-3.07,4.76,0,4.76Z" fill="#fff"/><path d="M783.45,1068.72c3.06,0,3.06-4.75,0-4.75s-3.06,4.75,0,4.75Z" fill="#fff"/><path d="M784,1089c3.06,0,3.06-4.75,0-4.75s-3.06,4.75,0,4.75Z" fill="#fff"/><path d="M785.08,1100.08c3.06,0,3.06-4.75,0-4.75s-3.06,4.75,0,4.75Z" fill="#fff"/><path d="M787.45,1114.71c3,0,3.06-4.76,0-4.76s-3.07,4.76,0,4.76Z" fill="#fff"/><path d="M657.36,750.05c3.06,0,3.07-4.75,0-4.75s-3.06,4.75,0,4.75Z" fill="#fff"/><path d="M681.19,762c3.06,0,3.06-4.75,0-4.75s-3.07,4.75,0,4.75Z" fill="#fff"/><path d="M775.14,943.5c3.06,0,3.06-4.75,0-4.75s-3.07,4.75,0,4.75Z" fill="#fff"/><path d="M775.57,960.85c3.06,0,3.06-4.76,0-4.76s-3.06,4.76,0,4.76Z" fill="#fff"/><path d="M790.46,1104.89c3.06,0,3.07-4.76,0-4.76s-3.06,4.76,0,4.76Z" fill="#fff"/><path d="M793.85,1119.3c3.06,0,3.07-4.76,0-4.76s-3.06,4.76,0,4.76Z" fill="#fff"/><path d="M726.34,771.92c3.06,0,3.06-4.75,0-4.75s-3.07,4.75,0,4.75Z" fill="#706f6b"/><path d="M713.89,763.23c3.06,0,3.07-4.75,0-4.75s-3.06,4.75,0,4.75Z" fill="#706f6b"/><path d="M716.47,773.93c3.06,0,3.06-4.76,0-4.76s-3.07,4.76,0,4.76Z" fill="#706f6b"/><path d="M722,764.44c3.06,0,3.06-4.75,0-4.75s-3.07,4.75,0,4.75Z" fill="#706f6b"/><path d="M723.21,782.91c3,0,3.06-4.75,0-4.75s-3.07,4.75,0,4.75Z" fill="#706f6b"/><path d="M709.73,784.16c3.06,0,3.06-4.76,0-4.76s-3.06,4.76,0,4.76Z" fill="#706f6b"/><path d="M724.7,794.14c3.06,0,3.07-4.75,0-4.75s-3.06,4.75,0,4.75Z" fill="#706f6b"/><path d="M716.72,785.66c3.06,0,3.06-4.76,0-4.76s-3.07,4.76,0,4.76Z" fill="#706f6b"/><path d="M708.23,793.89c3.06,0,3.07-4.75,0-4.75s-3.06,4.75,0,4.75Z" fill="#706f6b"/><path d="M711.73,806.38c3,0,3.06-4.76,0-4.76s-3.07,4.76,0,4.76Z" fill="#706f6b"/><path d="M719.85,566.33c3.06,0,3.07-4.75,0-4.75s-3.06,4.75,0,4.75Z" fill="#706f6b"/><path d="M728.62,567.15c3,0,3.06-4.76,0-4.76s-3.07,4.76,0,4.76Z" fill="#706f6b"/><path d="M724.12,575.17c3.06,0,3.07-4.76,0-4.76s-3.06,4.76,0,4.76Z" fill="#706f6b"/><path d="M731.36,574.08c3.06,0,3.06-4.76,0-4.76s-3.06,4.76,0,4.76Z" fill="#706f6b"/><path d="M713.21,575.51c3.06,0,3.07-4.75,0-4.75s-3.06,4.75,0,4.75Z" fill="#706f6b"/><path d="M713.79,561.6c3.06,0,3.07-4.76,0-4.76s-3.06,4.76,0,4.76Z" fill="#706f6b"/><path d="M719.07,589.13c3.06,0,3.06-4.75,0-4.75s-3.07,4.75,0,4.75Z" fill="#706f6b"/><path d="M727,583.08c3.06,0,3.06-4.75,0-4.75s-3.06,4.75,0,4.75Z" fill="#706f6b"/><path d="M717.49,581.16c3.06,0,3.07-4.75,0-4.75s-3.06,4.75,0,4.75Z" fill="#706f6b"/><path d="M717,601.15c3.06,0,3.06-4.76,0-4.76s-3.06,4.76,0,4.76Z" fill="#706f6b"/><path d="M709.25,595.12c3.06,0,3.06-4.75,0-4.75s-3.07,4.75,0,4.75Z" fill="#706f6b"/><path d="M712.64,613c3.06,0,3.07-4.75,0-4.75s-3.06,4.75,0,4.75Z" fill="#706f6b"/><path d="M696.64,614.9c3.06,0,3.06-4.76,0-4.76s-3.06,4.76,0,4.76Z" fill="#706f6b"/><path d="M706.46,638.89c3.06,0,3.07-4.76,0-4.76s-3.06,4.76,0,4.76Z" fill="#706f6b"/><path d="M684.21,796.66c3.06,0,3.07-4.75,0-4.75s-3.06,4.75,0,4.75Z" fill="#706f6b"/><path d="M670.87,790.11c3.06,0,3.06-4.76,0-4.76s-3.07,4.76,0,4.76Z" fill="#706f6b"/><path d="M685.54,787.74c3.06,0,3.07-4.76,0-4.76s-3.06,4.76,0,4.76Z" fill="#706f6b"/><path d="M661.4,781.58c3.06,0,3.06-4.75,0-4.75s-3.07,4.75,0,4.75Z" fill="#706f6b"/><path d="M663.77,766.91c3.05,0,3.06-4.76,0-4.76s-3.07,4.76,0,4.76Z" fill="#706f6b"/><path d="M669,780.16c3.06,0,3.07-4.75,0-4.75s-3.06,4.75,0,4.75Z" fill="#706f6b"/><path d="M678,780.16c3.06,0,3.06-4.75,0-4.75s-3.07,4.75,0,4.75Z" fill="#706f6b"/><path d="M690.75,803.2c3.06,0,3.06-4.76,0-4.76s-3.06,4.76,0,4.76Z" fill="#706f6b"/><path d="M724.36,822.77c3.06,0,3.07-4.75,0-4.75s-3.06,4.75,0,4.75Z" fill="#706f6b"/><path d="M723.89,832.71c3.06,0,3.06-4.75,0-4.75s-3.06,4.75,0,4.75Z" fill="#706f6b"/><path d="M729.1,837.45c3.06,0,3.06-4.76,0-4.76s-3.07,4.76,0,4.76Z" fill="#706f6b"/><path d="M717.34,828.45c3.06,0,3.07-4.75,0-4.75s-3.06,4.75,0,4.75Z" fill="#706f6b"/><path d="M706.8,815.2c3.05,0,3.06-4.76,0-4.76s-3.07,4.76,0,4.76Z" fill="#706f6b"/><path d="M728.15,815.2c3.06,0,3.06-4.76,0-4.76s-3.06,4.76,0,4.76Z" fill="#706f6b"/><path d="M723.89,808.57c3.06,0,3.06-4.76,0-4.76s-3.06,4.76,0,4.76Z" fill="#706f6b"/><path d="M731.46,809.52c3.06,0,3.07-4.76,0-4.76s-3.06,4.76,0,4.76Z" fill="#706f6b"/><path d="M746.61,861.59c3.06,0,3.07-4.75,0-4.75s-3.06,4.75,0,4.75Z" fill="#706f6b"/><path d="M756.08,858.28c3.06,0,3.07-4.76,0-4.76s-3.06,4.76,0,4.76Z" fill="#706f6b"/><path d="M754.19,867.75c3.06,0,3.06-4.76,0-4.76s-3.07,4.76,0,4.76Z" fill="#706f6b"/><path d="M751.1,874.5c3.06,0,3.06-4.75,0-4.75s-3.06,4.75,0,4.75Z" fill="#706f6b"/><path d="M755.58,886.32c3.06,0,3.07-4.75,0-4.75s-3.06,4.75,0,4.75Z" fill="#706f6b"/><path d="M765.72,877.92c3.06,0,3.07-4.76,0-4.76s-3.06,4.76,0,4.76Z" fill="#706f6b"/><path d="M758.92,876.27c3.06,0,3.07-4.76,0-4.76s-3.06,4.76,0,4.76Z" fill="#706f6b"/><path d="M768.79,886.32c3.06,0,3.06-4.75,0-4.75s-3.06,4.75,0,4.75Z" fill="#706f6b"/><path d="M763.18,894.73c3.06,0,3.07-4.75,0-4.75s-3.06,4.75,0,4.75Z" fill="#706f6b"/><path d="M763.18,903.73c3.06,0,3.07-4.76,0-4.76s-3.06,4.76,0,4.76Z" fill="#706f6b"/><path d="M773.1,971.08c3.06,0,3.07-4.75,0-4.75s-3.06,4.75,0,4.75Z" fill="#706f6b"/><path d="M776.8,978.57c3.06,0,3.06-4.75,0-4.75s-3.07,4.75,0,4.75Z" fill="#706f6b"/><path d="M775.14,996.42c3.06,0,3.06-4.75,0-4.75s-3.07,4.75,0,4.75Z" fill="#706f6b"/><path d="M779.83,1005.24c3.06,0,3.06-4.76,0-4.76s-3.06,4.76,0,4.76Z" fill="#706f6b"/><path d="M795.19,1134.28c3.06,0,3.06-4.76,0-4.76s-3.07,4.76,0,4.76Z" fill="#706f6b"/><path d="M788.55,1127.31c3.05,0,3.06-4.75,0-4.75s-3.07,4.75,0,4.75Z" fill="#706f6b"/><path d="M792,1142.85c3,0,3.06-4.76,0-4.76s-3.07,4.76,0,4.76Z" fill="#706f6b"/><path d="M791.58,1156.87c3.06,0,3.06-4.76,0-4.76s-3.07,4.76,0,4.76Z" fill="#706f6b"/><path d="M798,1168.23c3.06,0,3.06-4.75,0-4.75s-3.07,4.75,0,4.75Z" fill="#706f6b"/><path d="M796.48,1180.09c3.06,0,3.06-4.76,0-4.76s-3.07,4.76,0,4.76Z" fill="#706f6b"/><path d="M779.83,1022.35c3.06,0,3.06-4.75,0-4.75s-3.06,4.75,0,4.75Z" fill="#706f6b"/><path d="M733.22,781.36c3.06,0,3.07-4.75,0-4.75s-3.06,4.75,0,4.75Z" fill="#706f6b"/><path d="M719.58,734.38c3.06,0,3.07-4.76,0-4.76s-3.06,4.76,0,4.76Z" fill="#706f6b"/><path d="M707.08,566.9c3.06,0,3.06-4.76,0-4.76s-3.07,4.76,0,4.76Z" fill="#706f6b"/><path d="M703.67,584.71c3.06,0,3.06-4.76,0-4.76s-3.07,4.76,0,4.76Z" fill="#706f6b"/><path d="M719.58,624.87c3.06,0,3.07-4.75,0-4.75s-3.06,4.75,0,4.75Z" fill="#706f6b"/><path d="M410.64,807.59s5.34,199.1,3.82,238.13c-.83,21.49-27.59,151.13-15.28,178.31,0,13-1.32,46.48-1.32,46.48s73.26,18.65,150.26,17.72c137.52-1.66,260.86-23.64,260.86-23.64s-4.18-33-5-46.63c14.5-25-19.76-173.14-21.56-243.1-1.22-47.58-16.1-167.27-16.1-167.27" fill="none" stroke="#262521" stroke-linecap="round" stroke-linejoin="round" stroke-width="3"/><path d="M836,1219s30.63-3.83,52.37,0" fill="none" stroke="#636363" stroke-linecap="round" stroke-linejoin="round"/><path d="M325.25,1236.47s30.64-3.84,52.37,0" fill="none" stroke="#636363" stroke-linecap="round" stroke-linejoin="round"/><path d="M413.66,1052.08c-4.13,18.21-9,39.79-13.91,55.27-9.82,31-13.08,105-15.36,135.21-.95,12.67,4.66,27,4.66,27l-61,1.5c-16.33-18.73-8.93-129.51-14.45-197.93A619.73,619.73,0,0,1,317.24,945s-18.06-297.33,26.67-324.28,145.47-89.52,145.47-89.52-.25-.24.72,2.61c4.12,12.15,21.13,51.38,86.21,51.38,80.36,0,82.85-55,82.85-55s131.41,49.1,142.29,56.21c38.3,25,52.88,331.94,52.88,331.94s19,68.76,22.89,124.63c5.57,81.26,18.66,177.57,17.84,189.79s-5.3,18.88-5.3,18.88h-58.1s-1.25-8-2.88-34.36c-1.9-30.61-17.16-87.16-32.82-134.18" fill="none" stroke="#262521" stroke-linecap="round" stroke-linejoin="round" stroke-width="3"/><path d="M397.92,1269.81s73.25,18.65,150.25,17.72c137.52-1.66,260.87-23.64,260.87-23.64" fill="none" stroke="#636363" stroke-linecap="round" stroke-linejoin="round"/><path d="M411.17,1224s167.06,41.72,378.14-4.33" fill="none" stroke="#636363" stroke-linecap="round" stroke-linejoin="round"/><path d="M477.93,546.4s21.5,56.91,100.81,56.91,94.26-62,94.26-62" fill="none" stroke="#636363" stroke-linecap="round" stroke-linejoin="round"/></svg>