<svg xmlns="http://www.w3.org/2000/svg" width="1250" height="1550" viewBox="0 0 1250 1550"><title>s06e01-01</title><polygon points="823.79 1576.64 806.92 1326.87 410.1 1326.87 418.06 1576.64 823.79 1576.64" fill="#3d4244"/><line x1="417.36" y1="1495.44" x2="438.33" y2="1490.9" fill="none" stroke="#fff" stroke-linecap="round" stroke-linejoin="round" stroke-width="3"/><line x1="414.36" y1="1414.05" x2="433.4" y2="1409.93" fill="none" stroke="#fff" stroke-linecap="round" stroke-linejoin="round" stroke-width="3"/><line x1="434.17" y1="1422.6" x2="586.53" y2="1435.61" fill="none" stroke="#fff" stroke-linecap="round" stroke-linejoin="round" stroke-width="3"/><line x1="439.18" y1="1504.86" x2="579.74" y2="1516.86" fill="none" stroke="#fff" stroke-linecap="round" stroke-linejoin="round" stroke-width="3"/><path d="M430.14,1356.35c4.36,71.7,8.36,144.7,13.2,216.88" fill="none" stroke="#262521" stroke-linecap="round" stroke-linejoin="round" stroke-width="3"/><path d="M490.06,1324.78c-7.56,83.27-10.56,165.27-17,248.43" fill="none" stroke="#fff" stroke-linecap="round" stroke-linejoin="round" stroke-width="3"/><line x1="587.02" y1="1429.77" x2="701.15" y2="1428.33" fill="none" stroke="#fff" stroke-linecap="round" stroke-linejoin="round" stroke-width="3"/><line x1="580.21" y1="1511.17" x2="710.56" y2="1509.88" fill="none" stroke="#fff" stroke-linecap="round" stroke-linejoin="round" stroke-width="3"/><path d="M616.22,1326.72c1.28,82.33,2.28,164.33,3.46,246.5" fill="none" stroke="#fff" stroke-linecap="round" stroke-linejoin="round" stroke-width="3"/><line x1="754.91" y1="1421.02" x2="812.49" y2="1416.54" fill="none" stroke="#fff" stroke-linecap="round" stroke-linejoin="round" stroke-width="3"/><line x1="761.05" y1="1502.08" x2="818.19" y2="1497.79" fill="none" stroke="#fff" stroke-linecap="round" stroke-linejoin="round" stroke-width="3"/><path d="M794.81,1314.92c7.69,86.13,11.69,172.13,18.38,258.34" fill="none" stroke="#fff" stroke-linecap="round" stroke-linejoin="round" stroke-width="3"/><path d="M685.27,1326.72c1.23,82.33,2.23,164.33,3.46,246.5" fill="none" stroke="#fff" stroke-linecap="round" stroke-linejoin="round" stroke-width="3"/><line x1="703.94" y1="1434.33" x2="754.91" y2="1429.33" fill="none" stroke="#fff" stroke-linecap="round" stroke-linejoin="round" stroke-width="3"/><line x1="711.86" y1="1515.44" x2="761.05" y2="1510.74" fill="none" stroke="#fff" stroke-linecap="round" stroke-linejoin="round" stroke-width="3"/><path d="M736.45,1328.87c8,81.18,14,163.18,21.74,244.42" fill="none" stroke="#fff" stroke-linecap="round" stroke-linejoin="round" stroke-width="3"/><path d="M571.92,1324.78c-6.42,83.27-9.42,165.27-17,248.43" fill="none" stroke="#fff" stroke-linecap="round" stroke-linejoin="round" stroke-width="3"/><path d="M593.16,1356.35l-1.24,14.92-3.21,38.29-4.33,51.82-4.67,55.86-4.22,50.44-.45,5.37" fill="none" stroke="#262521" stroke-linecap="round" stroke-linejoin="round" stroke-width="3"/><path d="M749.39,1344c5.11,76,11.11,153,16.5,229.15" fill="none" stroke="#262521" stroke-linecap="round" stroke-linejoin="round" stroke-width="3"/><path d="M695.54,1348.25c7,74.8,15,149.8,22,224.81" fill="none" stroke="#262521" stroke-linecap="round" stroke-linejoin="round" stroke-width="3"/><polygon points="823.79 1576.64 806.92 1326.87 410.1 1326.87 418.06 1576.64 823.79 1576.64" fill="none" stroke="#262521" stroke-linecap="round" stroke-linejoin="round" stroke-width="3"/><path d="M404.05,1266.43l4.14,114.93,6.42-.29s4.47-47.67,7.09-48.18c2.25-.44,2.88,63,5.56,62.48,1.17-.21,6.65,4.73,7.71-1.55,1.85-10.94,5.77-55,8.21-55.46,4.36-.74,7.06,48,12.26,47.19,8.67-1.34,15.91-21.85,27-23.3,55.17-7.23,159.59,14.66,225.4,2.46s106.58,11.92,106.58,11.92l-12-128.28Z" fill="#fff" stroke="#262521" stroke-linecap="round" stroke-linejoin="round" stroke-width="3"/><path d="M502.76,520.52s24.49,39.6,69.35,42.77l-69,65.33s-35-73.46-23.12-87.94S502.76,520.52,502.76,520.52Z" fill="#fff" stroke="#262521" stroke-linecap="round" stroke-linejoin="round" stroke-width="3"/><path d="M646.89,522.71s-19.17,31.82-71.59,40.58l70,65.33s36.36-68.49,27.76-85.15C661.8,530.87,646.89,522.71,646.89,522.71Z" fill="#fff" stroke="#262521" stroke-linecap="round" stroke-linejoin="round" stroke-width="3"/><line x1="561.53" y1="574.07" x2="561.53" y2="749.37" fill="#fff" stroke="#262521" stroke-linecap="round" stroke-linejoin="round" stroke-width="3"/><circle cx="573.98" cy="575.83" r="4.65" fill="#262521" opacity="0.2"/><path d="M877.22,1043c-3.84-55.87-22.89-124.63-22.89-124.63s-14.58-307-52.88-331.94c-10.88-7.11-142.85-58.21-142.85-58.21S641.37,575.67,574,575.83c-65.09.15-85.74-48.46-85.74-48.46s-99.59,66.42-144.33,93.37S317.24,945,317.24,945a619.73,619.73,0,0,0-3.6,128.12c5.52,68.42,4.28,195.54,17.3,226.18,0,0,3.67-11.3,8.4-8.7s3.52-6.52,6.63-7.24c1.78-.41,5.85,2.11,7.69,1.77,3.78-.69,5-7.2,7.86-4.49s5.51-3.44,7.49-3.26c2.74.24,4.11,7.68,6.76,8.12,2.88.48,6.82-4.53,9.11-4a7.1,7.1,0,0,1,5.15,3.65s-6.59-29.91-5.64-42.58c2.28-30.22,5.54-104.26,15.36-135.21,4.81-15.15,10.05-36.61,14.14-54.59-3.57,34.79-21.75,150.2-10.41,175.24,0,13-1.09,67.21-1.09,67.21a41.19,41.19,0,0,1,18.47-8.67c5.25-1,11.49,6.3,18,5.12,4.25-.77,6.48-5.9,11-6.67,4-.69,13.28,2.3,17.54,1.7,5.58-.78,6.22-5.11,11.75-5.71,3.93-.42,7.07-4.21,10.77-4.53,7.08-.62,13.82,6.3,19.06,6.14,7-.22,13.53-2.75,19.75-1.93,4.48.6,7.53,9.47,12,10.38,4.87,1,11-3,16.15-1.82s12.65-.17,18.47.89c5.47,1,12.71,10.32,19.1,11,7.26.81,11.73-4.57,20.6-4.42,6.42.11,13.21,3.81,18.83,3.18,6.57-.74,11.84-5.94,17.59-7.42,3.58-.93,7-5.58,10.36-6.71,6.66-2.24,16.84,3.31,23,1.09,5.65-2,7.29-11.87,12.92-13.72,6.61-2.18,12.71-8.94,19.91-10.61,3.44-.79,7.63,3.27,11.32,2.64,7.4-1.27,15.54-5.37,22-5.93,10.24-.87,15.86,8.19,23.19,5.93,11.68-3.6,15.69,4.11,20.31,4.77a12.23,12.23,0,0,0,11.32-4.37s-1.69-30-2.46-43.63c9.14-15.78-.83-82.08-9.9-146.45h0c15.78,47.16,33.43,110.92,35.35,141.83,1.63,26.39-2.37,54.41-2.37,54.41a74.51,74.51,0,0,0,10.69-2.08c1.23-.38,2.46-4.11,3.85-4.51s2.9-2.47,4.46-2.9c2.45-.66,5,2,7.36,1.83,3.22-.25,6.16-3.21,8.31-3.27,1.9,0,4.4,2.91,7.08,3.68,1.26.36,2.5-1.71,3.83-1.24,1.52.53,3.92-1.62,5.44-1,2.34,1,1.19,6.11,3.13,7.41,1.12.76,5.34-5.23,6.26-4.51,2.75,2.17,4.09,12.63,4.09,12.63s4.19-24.35,4.15-45C895.88,1220.57,882.79,1124.26,877.22,1043Z" fill="#262521" stroke="#262521" stroke-linecap="round" stroke-linejoin="round" stroke-width="3"/><line x1="869.95" y1="1224.23" x2="869.95" y2="1253.69" fill="none" stroke="#636363" stroke-linecap="round" stroke-linejoin="round" stroke-width="2"/><line x1="854.25" y1="1224.29" x2="855.09" y2="1253.63" fill="none" stroke="#636363" stroke-linecap="round" stroke-linejoin="round" stroke-width="2"/><line x1="884.87" y1="1224.11" x2="882.97" y2="1253.81" fill="none" stroke="#636363" stroke-linecap="round" stroke-linejoin="round" stroke-width="2"/><line x1="839.58" y1="1224.49" x2="842.32" y2="1253.43" fill="none" stroke="#636363" stroke-linecap="round" stroke-linejoin="round" stroke-width="2"/><line x1="359.54" y1="1244.35" x2="361.52" y2="1273.75" fill="none" stroke="#636363" stroke-linecap="round" stroke-linejoin="round" stroke-width="2"/><line x1="345.18" y1="1245.07" x2="348.23" y2="1273.81" fill="none" stroke="#636363" stroke-linecap="round" stroke-linejoin="round" stroke-width="2"/><line x1="330.74" y1="1249.91" x2="334.62" y2="1279.42" fill="none" stroke="#636363" stroke-linecap="round" stroke-linejoin="round" stroke-width="2"/><line x1="374.13" y1="1243.79" x2="374.34" y2="1272.86" fill="none" stroke="#636363" stroke-linecap="round" stroke-linejoin="round" stroke-width="2"/><line x1="608.51" y1="1242.81" x2="611.07" y2="1292.87" fill="none" stroke="#636363" stroke-linecap="round" stroke-linejoin="round" stroke-width="2"/><line x1="628.01" y1="1241.73" x2="630.72" y2="1294.83" fill="none" stroke="#636363" stroke-linecap="round" stroke-linejoin="round" stroke-width="2"/><line x1="647.51" y1="1240.24" x2="649.85" y2="1286.08" fill="none" stroke="#636363" stroke-linecap="round" stroke-linejoin="round" stroke-width="2"/><line x1="667.01" y1="1238.46" x2="669.23" y2="1281.69" fill="none" stroke="#636363" stroke-linecap="round" stroke-linejoin="round" stroke-width="2"/><line x1="686.5" y1="1236.24" x2="688.44" y2="1274.1" fill="none" stroke="#636363" stroke-linecap="round" stroke-linejoin="round" stroke-width="2"/><line x1="706" y1="1233.75" x2="707.47" y2="1262.52" fill="none" stroke="#636363" stroke-linecap="round" stroke-linejoin="round" stroke-width="2"/><line x1="725.65" y1="1231.08" x2="726.35" y2="1259.23" fill="none" stroke="#636363" stroke-linecap="round" stroke-linejoin="round" stroke-width="2"/><line x1="742.05" y1="1229.08" x2="742.05" y2="1256.36" fill="none" stroke="#636363" stroke-linecap="round" stroke-linejoin="round" stroke-width="2"/><line x1="472.96" y1="1238.31" x2="474.07" y2="1278.1" fill="none" stroke="#636363" stroke-linecap="round" stroke-linejoin="round" stroke-width="2"/><line x1="511.01" y1="1241.31" x2="512.95" y2="1277.66" fill="none" stroke="#636363" stroke-linecap="round" stroke-linejoin="round" stroke-width="2"/><line x1="492.13" y1="1239.31" x2="493.41" y2="1271.61" fill="none" stroke="#636363" stroke-linecap="round" stroke-linejoin="round" stroke-width="2"/><line x1="530.53" y1="1241.83" x2="532.47" y2="1279.69" fill="none" stroke="#636363" stroke-linecap="round" stroke-linejoin="round" stroke-width="2"/><line x1="412.01" y1="1226.22" x2="412.03" y2="1283.43" fill="none" stroke="#636363" stroke-linecap="round" stroke-linejoin="round" stroke-width="2"/><line x1="432.07" y1="1232.15" x2="431.4" y2="1283.43" fill="none" stroke="#636363" stroke-linecap="round" stroke-linejoin="round" stroke-width="2"/><line x1="452.44" y1="1235.52" x2="452.44" y2="1280.66" fill="none" stroke="#636363" stroke-linecap="round" stroke-linejoin="round" stroke-width="2"/><line x1="550.03" y1="1243.63" x2="552.2" y2="1286.08" fill="none" stroke="#636363" stroke-linecap="round" stroke-linejoin="round" stroke-width="2"/><line x1="569.48" y1="1243.73" x2="571.65" y2="1286.08" fill="none" stroke="#636363" stroke-linecap="round" stroke-linejoin="round" stroke-width="2"/><line x1="589.01" y1="1243.63" x2="591.73" y2="1296.77" fill="none" stroke="#636363" stroke-linecap="round" stroke-linejoin="round" stroke-width="2"/><line x1="761.05" y1="1226.46" x2="761.23" y2="1254.51" fill="none" stroke="#636363" stroke-linecap="round" stroke-linejoin="round" stroke-width="2"/><line x1="779.81" y1="1223.21" x2="779.65" y2="1259.23" fill="none" stroke="#636363" stroke-linecap="round" stroke-linejoin="round" stroke-width="2"/><line x1="796.36" y1="1220.31" x2="797.68" y2="1265.66" fill="none" stroke="#636363" stroke-linecap="round" stroke-linejoin="round" stroke-width="2"/><line x1="661.17" y1="538.57" x2="672.58" y2="542.65" fill="none" stroke="#636363" stroke-linecap="round" stroke-linejoin="round" stroke-width="2"/><line x1="573.07" y1="586.19" x2="573.07" y2="598.95" fill="none" stroke="#636363" stroke-linecap="round" stroke-linejoin="round" stroke-width="2"/><line x1="590.03" y1="584.89" x2="590.69" y2="597.63" fill="none" stroke="#636363" stroke-linecap="round" stroke-linejoin="round" stroke-width="2"/><line x1="605.04" y1="582.33" x2="607.1" y2="594.48" fill="none" stroke="#636363" stroke-linecap="round" stroke-linejoin="round" stroke-width="2"/><line x1="618.65" y1="577.12" x2="623.06" y2="588.66" fill="none" stroke="#636363" stroke-linecap="round" stroke-linejoin="round" stroke-width="2"/><line x1="631.31" y1="570.44" x2="638.01" y2="580.31" fill="none" stroke="#636363" stroke-linecap="round" stroke-linejoin="round" stroke-width="2"/><line x1="641.99" y1="561.31" x2="652.14" y2="569.02" fill="none" stroke="#636363" stroke-linecap="round" stroke-linejoin="round" stroke-width="2"/><line x1="653.6" y1="551.01" x2="664.17" y2="555.6" fill="none" stroke="#636363" stroke-linecap="round" stroke-linejoin="round" stroke-width="2"/><line x1="488.81" y1="540.28" x2="476.75" y2="547.43" fill="none" stroke="#636363" stroke-linecap="round" stroke-linejoin="round" stroke-width="2"/><line x1="556.11" y1="584.89" x2="555.44" y2="597.86" fill="none" stroke="#636363" stroke-linecap="round" stroke-linejoin="round" stroke-width="2"/><line x1="541.6" y1="582.83" x2="539.57" y2="594.8" fill="none" stroke="#636363" stroke-linecap="round" stroke-linejoin="round" stroke-width="2"/><line x1="528.05" y1="577.8" x2="523.68" y2="589.26" fill="none" stroke="#636363" stroke-linecap="round" stroke-linejoin="round" stroke-width="2"/><line x1="515.45" y1="571.78" x2="508.97" y2="581.32" fill="none" stroke="#636363" stroke-linecap="round" stroke-linejoin="round" stroke-width="2"/><line x1="504.21" y1="563.49" x2="495.57" y2="570.88" fill="none" stroke="#636363" stroke-linecap="round" stroke-linejoin="round" stroke-width="2"/><line x1="494.91" y1="552.23" x2="484.59" y2="558.98" fill="none" stroke="#636363" stroke-linecap="round" stroke-linejoin="round" stroke-width="2"/><path d="M665.11,577.65l-39.77,27.22S652.87,600.51,665.11,577.65Z" fill="#d2d2d2"/><path d="M469.89,557.65s10.18,19.44,17.35,24.8C487.24,582.45,471.4,575.57,469.89,557.65Z" fill="#d2d2d2"/><path d="M762,575.24s-17.05-2.42-20.66,10.32C741.31,585.56,755.1,575,762,575.24Z" fill="#d2d2d2"/><path d="M456.49,666.34l-7.57,7.13,5.57,1.78S452.93,674.58,456.49,666.34Z" fill="#d2d2d2"/><path d="M445.81,676.36s-4.45,5.35-4.45,8.68,11.35-4.34,11.35-4.34S446.92,678.81,445.81,676.36Z" fill="#d2d2d2"/><path d="M458.5,687.05s-17.14,5.12-17.14,12.24S446.25,694.62,458.5,687.05Z" fill="#d2d2d2"/><path d="M458.5,692.39s-12.69,9.8-11.47,13.13S458.5,692.39,458.5,692.39Z" fill="#d2d2d2"/><path d="M464.51,694.27s-14.58,10-13.36,16.37Z" fill="#d2d2d2"/><path d="M470.74,697.51c-6.23,2.89-15.58,12.91-15.36,14.47s12.69-3.56,16.7-3.56S477,694.62,470.74,697.51Z" fill="#d2d2d2"/><path d="M475.25,712.28s-11,3.26-15,2.82S471.3,720.81,475.25,712.28Z" fill="#d2d2d2"/><path d="M386,960.79s8.48,4,9.87,7.62S399.72,963.91,386,960.79Z" fill="#d2d2d2"/><path d="M382.4,963.56s7.51,8.83,9.12,8.14S388.11,963.74,382.4,963.56Z" fill="#d2d2d2"/><path d="M374.61,966s8.91,10.21,12.5,10.39S380.84,965.47,374.61,966Z" fill="#d2d2d2"/><path d="M368.55,969.33c-5.24-.07,11.6,11,13.85,11S372.36,969.38,368.55,969.33Z" fill="#d2d2d2"/><path d="M377.73,983.13s-9.53-10.56-15.07-9.18-1.35,6.41,3.15,6.41S378.12,988.36,377.73,983.13Z" fill="#d2d2d2"/><path d="M377.74,989.88s-13.87-.34-15.6-1.21S369.26,995.77,377.74,989.88Z" fill="#d2d2d2"/><path d="M334.71,1181.58s-6.41,2.23-7.45,4.27S324.38,1183.33,334.71,1181.58Z" fill="#d2d2d2"/><path d="M337.45,1183.14s-5.67,4.94-6.88,4.55S333.14,1183.23,337.45,1183.14Z" fill="#d2d2d2"/><path d="M343.33,1184.49s-6.72,5.72-9.44,5.82S338.62,1184.2,343.33,1184.49Z" fill="#d2d2d2"/><path d="M627.33,1178.87l7.89,6.11s-5.33,2.17-8.88,0S627.33,1178.87,627.33,1178.87Z" fill="#d2d2d2"/><path d="M632.07,1175.9s7.89,4.32,8.09,6.51S632.85,1181.63,632.07,1175.9Z" fill="#d2d2d2"/><path d="M637.2,1174.13l8.48,6.51S642.33,1172.35,637.2,1174.13Z" fill="#d2d2d2"/><path d="M641.44,1172s5.4,1.42,6.08,4.64C647.52,1176.6,649.68,1170.11,641.44,1172Z" fill="#d2d2d2"/><path d="M428.18,1207.86a39.14,39.14,0,0,0-.33,7C428.14,1217.17,417.13,1210.3,428.18,1207.86Z" fill="#d2d2d2"/><path d="M431.12,1208.71s-.3,7.22.93,7.62,14.91,1.38,16.32,1.08,2.09-2.68,0-5.21C445.07,1210.38,436.89,1208.83,431.12,1208.71Z" fill="#d2d2d2"/><path d="M451.19,1212.42s2.26,4.95.72,5.87S464,1216.22,451.19,1212.42Z" fill="#d2d2d2"/><path d="M739.88,865.2s6.67,14.35,6.67,16.57S748.22,865.31,739.88,865.2Z" fill="#d2d2d2"/><path d="M739.88,875.38l-15.55,21.45S742.92,885.39,739.88,875.38Z" fill="#d2d2d2"/><path d="M869.63,1159.31s15.8,5.44,14.27,7.3S869.63,1159.31,869.63,1159.31Z" fill="#d2d2d2"/><path d="M862.15,1160.36s18.15,5.56,16.63,9.1Z" fill="#d2d2d2"/><path d="M854.39,1162.16c7.76,1.61,19.4,7.17,19.12,8s-15.79-2-20.78-2S846.63,1160.55,854.39,1162.16Z" fill="#d2d2d2"/><path d="M848.78,1170.36s13.65,1.82,18.63,1.57S853.69,1175.1,848.78,1170.36Z" fill="#d2d2d2"/></svg>