<svg xmlns="http://www.w3.org/2000/svg" width="1250" height="1550" viewBox="0 0 1250 1550"><path d="M489.35 531.24h0s.01-.04 0 0zM877.22 1043c-3.84-55.87-22.89-124.63-22.89-124.63s-14.58-307-52.88-331.94c-10.88-7.11-142.29-56.21-142.29-56.21s-2.49 55-82.84 55c-65.09 0-82.1-39.23-86.22-51.38a11.73 11.73 0 01-.75-2.59c-1 .64-100.94 62.69-145.44 89.5C299.18 647.69 317.24 945 317.24 945a619.73 619.73 0 00-3.6 128.12c5.52 68.42-1.88 179.2 14.45 197.93l61-1.5s-5.61-14.34-4.66-27c2.28-30.22 5.54-104.26 15.36-135.21 4.92-15.48 9.78-37.06 13.91-55.27h.23c-3.88 32.6-26.06 146.08-14.66 171.24 0 13-1.31 46.48-1.31 46.48s73.25 18.65 150.25 17.72c137.52-1.66 260.87-23.64 260.87-23.64s-4.19-33-5-46.63c8.56-14.78.71-77.4-8.3-134.14h.22c15.66 47 30.92 103.57 32.82 134.18 1.63 26.39 2.88 34.36 2.88 34.36h58.1s4.49-6.66 5.3-18.88-12.31-108.5-17.88-189.76z" fill="#262521" stroke="#262521" stroke-linecap="round" stroke-linejoin="round" stroke-width="3"/><path d="M439 979.89c5.84 32.16-15.65 178-16.11 197.22-.54 22.38-26.76 28.66-26.76 28.66-5.05-20.41 31.11-156.5 27.58-189.24-1.25-87.28-2.09-172.58-4.53-203.71 28.19-87.29-4-228.87-34.89-215.76 24.84-16 55.56-35.16 55.56-35.16 15.24 35.38 45.59 68.71 66.57 101 100.47 154.44-91.61 90.41-67.42 316.99z" fill="#3a3934"/><path d="M430 979.89c5.84 32.16-15.27 178.05-16.11 197.22s-17.91 18.1-17.91 18.1c-5.05-20.4 22.26-145.94 18.73-178.68-1.25-87.28-2.09-172.58-4.53-203.71 28.19-87.29-2.54-225.16-33.46-212.05 24.84-16 56.53-34.79 56.53-34.79 15.24 35.38 45.31 63.36 64.17 96.88 100.07 151.2-91.61 90.45-67.42 317.03z" fill="#adadad"/><path d="M411.41 841.43c11.38-19.73 45.45-153.3 1.25-262.15A205.31 205.31 0 00376.73 603c26.82 30.37 34.68 238.43 34.68 238.43z" fill="#878787"/><path d="M411.41 841.43c11.38-19.73 45.45-153.3 1.25-262.15A205.31 205.31 0 00376.73 603c26.82 30.37 34.68 238.43 34.68 238.43z" fill="#fff" opacity=".5"/><path d="M411.22 830.34c6.36-15.66 38.63-142.56-4.54-247.69-13.81 7.34-37.29 20.16-49.2 29.87 46.14 34.18 53.74 217.82 53.74 217.82zM479.49 782.83c2.79 0 2.79-4.33 0-4.33s-2.79 4.33 0 4.33zM489.09 789.89c2.79 0 2.79-4.33 0-4.33s-2.79 4.33 0 4.33zM501.35 779.65c2.78 0 2.79-4.33 0-4.33s-2.79 4.33 0 4.33zM489.93 781.16c2.79 0 2.79-4.33 0-4.33s-2.79 4.33 0 4.33zM484.51 773.07c2.79 0 2.79-4.33 0-4.33s-2.79 4.33 0 4.33zM502.85 764c2.78 0 2.79-4.33 0-4.33s-2.79 4.33 0 4.33zM505.64 772.36c2.79 0 2.79-4.33 0-4.33s-2.79 4.33 0 4.33zM491.29 767.78c2.78 0 2.79-4.33 0-4.33s-2.79 4.33 0 4.33zM514.64 762.23c2.78 0 2.79-4.33 0-4.33s-2.79 4.33 0 4.33zM479.3 801.4c2.78 0 2.79-4.33 0-4.33s-2.8 4.33 0 4.33zM467.46 788.63c2.79 0 2.79-4.33 0-4.33s-2.79 4.33 0 4.33zM466.53 772.16c2.79 0 2.8-4.33 0-4.33s-2.79 4.33 0 4.33zM461 755.47c2.78 0 2.79-4.33 0-4.33s-2.79 4.33 0 4.33zM484.15 762.51c2.79 0 2.79-4.34 0-4.34s-2.79 4.34 0 4.34zM489.09 738.18c2.79 0 2.79-4.33 0-4.33s-2.79 4.33 0 4.33zM507.68 752.28c2.79 0 2.79-4.33 0-4.33s-2.79 4.33 0 4.33zM519.75 733.23c2.79 0 2.79-4.33 0-4.33s-2.79 4.33 0 4.33zM463.07 803c2.79 0 2.79-4.33 0-4.33s-2.79 4.33 0 4.33zM464 815c2.78 0 2.79-4.33 0-4.33s-2.8 4.33 0 4.33zM471.82 807.39c2.79 0 2.8-4.33 0-4.33s-2.79 4.33 0 4.33zM471 798.22c2.78 0 2.79-4.33 0-4.33s-2.79 4.33 0 4.33zM444.82 808c2.79 0 2.79-4.33 0-4.33s-2.79 4.33 0 4.33zM447.25 826.36c2.79 0 2.8-4.33 0-4.33s-2.79 4.33 0 4.33zM428.45 858c2.78 0 2.79-4.34 0-4.34s-2.8 4.34 0 4.34zM440.32 857.5c2.79 0 2.8-4.33 0-4.33s-2.79 4.33 0 4.33zM437.27 867.07c2.79 0 2.79-4.33 0-4.33s-2.79 4.33 0 4.33zM420.21 868.72c2.78 0 2.79-4.33 0-4.33s-2.79 4.33 0 4.33zM428.48 885.81c2.79 0 2.79-4.33 0-4.33s-2.79 4.33 0 4.33zM429.5 875.77c2.79 0 2.79-4.33 0-4.33s-2.79 4.33 0 4.33zM419.61 881.76c2.78 0 2.79-4.33 0-4.33s-2.79 4.33 0 4.33zM422 907.57c2.78 0 2.79-4.33 0-4.33s-2.8 4.33 0 4.33zM421.73 921.43c2.78 0 2.79-4.33 0-4.33s-2.79 4.33 0 4.33zM418.77 934.7c2.78 0 2.79-4.33 0-4.33s-2.8 4.33 0 4.33zM421.87 953.09c2.79 0 2.79-4.33 0-4.33s-2.79 4.33 0 4.33zM419.84 1024.31c2.79 0 2.8-4.33 0-4.33s-2.79 4.33 0 4.33zM425.24 1033.68c2.79 0 2.8-4.33 0-4.33s-2.79 4.33 0 4.33zM419.31 1048.19c2.79 0 2.79-4.33 0-4.33s-2.79 4.33 0 4.33zM422.19 1056.55c2.78 0 2.79-4.33 0-4.33s-2.8 4.33 0 4.33zM423 1070.63c2.78 0 2.79-4.33 0-4.33s-2.8 4.33 0 4.33zM417.13 1064.53c2.78 0 2.79-4.33 0-4.33s-2.79 4.33 0 4.33zM420.74 1082.31c2.79 0 2.79-4.33 0-4.33s-2.79 4.33 0 4.33zM414.23 1095.13c2.79 0 2.79-4.33 0-4.33s-2.79 4.33 0 4.33zM415.78 1121.91c2.79 0 2.79-4.33 0-4.33s-2.79 4.33 0 4.33z" fill="#fff"/><path d="M421.76 583.52c2.79 0 2.79-4.33 0-4.33s-2.79 4.33 0 4.33zM428.72 589c2.79 0 2.79-4.33 0-4.33s-2.79 4.33 0 4.33zM428.12 580.19c2.78 0 2.79-4.33 0-4.33s-2.79 4.33 0 4.33zM435 582.74c2.79 0 2.79-4.34 0-4.34s-2.79 4.34 0 4.34zM422.78 594.06c2.79 0 2.79-4.33 0-4.33s-2.79 4.33 0 4.33zM428.77 610.05c2.79 0 2.8-4.33 0-4.33s-2.79 4.33 0 4.33zM433.37 598.72c2.78 0 2.79-4.33 0-4.33s-2.79 4.33 0 4.33zM439.36 609.52c2.78 0 2.79-4.33 0-4.33s-2.79 4.33 0 4.33zM433.18 625c2.79 0 2.79-4.33 0-4.33s-2.79 4.33 0 4.33zM439.13 846.11c2.79 0 2.8-4.33 0-4.33s-2.79 4.33 0 4.33zM438.84 835c2.79 0 2.79-4.33 0-4.33s-2.79 4.33 0 4.33zM446.08 835.11c2.79 0 2.79-4.33 0-4.33s-2.79 4.33 0 4.33zM446.57 842.81c2.78 0 2.79-4.33 0-4.33s-2.79 4.33 0 4.33zM443.88 851.11c2.79 0 2.79-4.33 0-4.33s-2.79 4.33 0 4.33zM453.25 832.13c2.78 0 2.79-4.33 0-4.33s-2.79 4.33 0 4.33zM455.65 821.78c2.78 0 2.79-4.33 0-4.33s-2.8 4.33 0 4.33zM463.07 821.78c2.79 0 2.79-4.33 0-4.33s-2.79 4.33 0 4.33zM445.53 816c2.79 0 2.79-4.33 0-4.33s-2.79 4.33 0 4.33zM433.72 819.51c2.79 0 2.79-4.33 0-4.33s-2.79 4.33 0 4.33zM436.17 807.39c2.79 0 2.79-4.33 0-4.33s-2.79 4.33 0 4.33zM430.44 798.9c2.79 0 2.79-4.33 0-4.33s-2.79 4.33 0 4.33zM427.28 817c2.79 0 2.79-4.33 0-4.33s-2.79 4.33 0 4.33zM424 825.62c2.79 0 2.79-4.33 0-4.33s-2.79 4.33 0 4.33zM431.8 829c2.78 0 2.79-4.33 0-4.33s-2.8 4.33 0 4.33zM430 837.18c2.79 0 2.79-4.33 0-4.33s-2.79 4.33 0 4.33zM422.07 837.94c2.79 0 2.79-4.33 0-4.33s-2.79 4.33 0 4.33zM430.6 848.75c2.79 0 2.8-4.33 0-4.33s-2.79 4.33 0 4.33zM419.61 847.22c2.78 0 2.79-4.33 0-4.33s-2.79 4.33 0 4.33zM418.8 857.64c2.79 0 2.79-4.33 0-4.33s-2.79 4.33 0 4.33zM415.7 852.25c2.79 0 2.79-4.33 0-4.33s-2.79 4.33 0 4.33zM434.71 784.28c2.79 0 2.79-4.34 0-4.34s-2.79 4.34 0 4.34zM442.72 776.27c2.79 0 2.8-4.33 0-4.33s-2.79 4.33 0 4.33zM446.19 788.08c2.79 0 2.79-4.33 0-4.33s-2.79 4.33 0 4.33zM438.3 791.94c2.78 0 2.79-4.33 0-4.33s-2.8 4.33 0 4.33zM453.07 797.75c2.78 0 2.79-4.33 0-4.33s-2.79 4.33 0 4.33zM458.31 777.09c2.78 0 2.79-4.33 0-4.33s-2.8 4.33 0 4.33zM453.25 767.5c2.78 0 2.79-4.33 0-4.33s-2.79 4.33 0 4.33zM439.92 766c2.79 0 2.79-4.33 0-4.33s-2.79 4.33 0 4.33zM437.74 743.42c2.79 0 2.8-4.33 0-4.33s-2.79 4.33 0 4.33zM443.51 755c2.79 0 2.79-4.33 0-4.33s-2.79 4.33 0 4.33zM458.58 742.44c2.78 0 2.79-4.33 0-4.33s-2.79 4.33 0 4.33zM469.93 753c2.78 0 2.79-4.33 0-4.33s-2.79 4.33 0 4.33zM482.27 749.71c2.79 0 2.79-4.33 0-4.33s-2.79 4.33 0 4.33zM491.52 754.5c2.79 0 2.79-4.33 0-4.33s-2.79 4.33 0 4.33zM475.48 738.23c2.79 0 2.79-4.33 0-4.33s-2.79 4.33 0 4.33zM463.07 730.12c2.79 0 2.79-4.33 0-4.33s-2.79 4.33 0 4.33zM450 731.64c2.79 0 2.79-4.33 0-4.33s-2.79 4.33 0 4.33zM452 711.81c2.79 0 2.79-4.33 0-4.33s-2.79 4.33 0 4.33zM466.78 715c2.79 0 2.79-4.33 0-4.33s-2.79 4.33 0 4.33zM480.63 722c2.78 0 2.79-4.33 0-4.33s-2.79 4.33 0 4.33zM474.21 727.76c2.79 0 2.79-4.33 0-4.33s-2.79 4.33 0 4.33zM467.88 737.15c2.79 0 2.8-4.33 0-4.33s-2.79 4.33 0 4.33zM497.27 725.79c2.79 0 2.79-4.33 0-4.33s-2.79 4.33 0 4.33zM503.59 735c2.78 0 2.79-4.33 0-4.33s-2.79 4.33 0 4.33zM508.67 723.4c2.79 0 2.79-4.33 0-4.33s-2.79 4.33 0 4.33zM517.31 711.19c2.78 0 2.79-4.33 0-4.33s-2.79 4.33 0 4.33zM503 712.83c2.78 0 2.79-4.33 0-4.33s-2.79 4.33 0 4.33zM505 693.78c2.79 0 2.79-4.33 0-4.33s-2.79 4.33 0 4.33zM492.9 701.92c2.79 0 2.79-4.33 0-4.33s-2.79 4.33 0 4.33zM493.62 709.35c2.79 0 2.79-4.33 0-4.33s-2.79 4.33 0 4.33zM471.82 692.33c2.79 0 2.8-4.33 0-4.33s-2.79 4.33 0 4.33zM493.54 679.13c2.79 0 2.79-4.33 0-4.33s-2.79 4.33 0 4.33zM477.53 663.1c2.78 0 2.79-4.33 0-4.33s-2.79 4.33 0 4.33zM480.55 699.76c2.79 0 2.79-4.33 0-4.33s-2.79 4.33 0 4.33zM418.63 970.59c2.79 0 2.79-4.33 0-4.33s-2.79 4.33 0 4.33zM422.19 981.88c2.78 0 2.79-4.33 0-4.33s-2.79 4.33 0 4.33zM420.81 991c2.78 0 2.79-4.33 0-4.33s-2.8 4.33 0 4.33zM425.41 1002.55c2.79 0 2.8-4.33 0-4.33s-2.79 4.33 0 4.33zM420.41 998.58c2.79 0 2.79-4.33 0-4.33s-2.79 4.33 0 4.33zM427.28 1015c2.79 0 2.79-4.33 0-4.33s-2.79 4.33 0 4.33zM408.41 1127c2.78 0 2.79-4.33 0-4.33s-2.79 4.33 0 4.33zM413.45 1135.5c2.79 0 2.79-4.33 0-4.33s-2.79 4.33 0 4.33zM413.06 1108.72c2.79 0 2.8-4.33 0-4.33s-2.79 4.33 0 4.33zM404.53 1152.58c2.78 0 2.79-4.33 0-4.33s-2.8 4.33 0 4.33zM407.24 1143.65c2.79 0 2.79-4.33 0-4.33s-2.79 4.33 0 4.33zM411.51 1167.33c2.79 0 2.79-4.33 0-4.33s-2.79 4.33 0 4.33zM404.14 1173.92c2.78 0 2.79-4.33 0-4.33s-2.79 4.33 0 4.33zM406.85 1185.18c2.79 0 2.8-4.33 0-4.33s-2.79 4.33 0 4.33z" fill="#706f6b"/><path d="M764.18 989.06c3.56 74.59 14.37 157.49 17.92 190.1 2.73 25 25.49 16.21 25.49 16.21.88-22.34-19-84.81-28.09-156.74-6.19-48.92-7.2-81.13-10.71-122.51 0 0-6.5-51-10.15-99.58-26.55-110-22-253.67 13.15-242.61 0 0-42.34-18.41-71.56-26.56-12.93 40.28-23.09 81.62-42.76 119-95.18 180.95 94.6 68.91 106.71 322.69z" fill="#3a3934"/><path d="M772.57 1023.3c9.43 76.79 12.42 115.56 16 148.16 2.73 25 19.55 17 19.55 17 .88-22.34-10-77.91-19.1-149.84-6.19-48.92-7.2-81.13-10.71-122.51 0 0-6.5-51-10.15-99.58-26.55-110-24.39-246.41 10.78-235.35-25.65-16.71-41.82-21.25-71-29.4-12.93 40.28-23.83 76-40.91 114.58-84.12 158.34 59.8 90 99.32 260.46 4.29 18.8 3.15 71.45 6.22 96.48z" fill="#adadad"/><path d="M771 850.77s-40.38-245.16.79-274.34c-13.19-8.59-17.19-10.34-31.72-15.74C681.83 713.1 771 850.77 771 850.77z" fill="#878787"/><path d="M771 850.77s-40.38-245.16.79-274.34c-13.19-8.59-17.19-10.34-31.72-15.74C681.83 713.1 771 850.77 771 850.77z" fill="#fff" opacity=".5"/><path d="M769.61 837.4c0-2.66-27.27-221.61 26-253.9-13.19-8.59-35-14-49.51-19.39-49.18 114.66 10.96 259.16 23.51 273.29zM730.05 790.13c3.06 0 3.07-4.75 0-4.75s-3.06 4.75 0 4.75zM739.86 796.66c3 0 3.06-4.75 0-4.75s-3.07 4.75 0 4.75zM731.69 803.2c3.06 0 3.06-4.76 0-4.76s-3.07 4.76 0 4.76zM743 811.34c3.05 0 3.06-4.75 0-4.75s-3.07 4.75 0 4.75zM732.89 817.86c3.06 0 3.06-4.75 0-4.75s-3.06 4.75 0 4.75zM714.07 799c3 0 3.06-4.76 0-4.76s-3.07 4.76 0 4.76zM714.07 819.31c3 0 3.06-4.76 0-4.76s-3.07 4.76 0 4.76zM739.41 826.55c3.05 0 3.06-4.76 0-4.76s-3.07 4.76 0 4.76zM743 840.3c3.05 0 3.06-4.75 0-4.75s-3.07 4.75 0 4.75zM750.27 840.3c3.05 0 3.06-4.75 0-4.75s-3.07 4.75 0 4.75zM750.27 822.93c3.05 0 3.06-4.76 0-4.76s-3.07 4.76 0 4.76zM756.78 833.06c3.06 0 3.07-4.75 0-4.75s-3.06 4.75 0 4.75zM745.2 832.34c3.06 0 3.06-4.75 0-4.75s-3.07 4.75 0 4.75zM764.57 853.14c3 0 3.06-4.75 0-4.75s-3.07 4.75 0 4.75zM748.09 851.89c3.06 0 3.07-4.76 0-4.76s-3.06 4.76 0 4.76zM761.12 842.48c3.06 0 3.07-4.76 0-4.76s-3.06 4.76 0 4.76zM764.57 867.75c3 0 3.06-4.76 0-4.76s-3.07 4.76 0 4.76zM734.54 846.1c3.06 0 3.06-4.76 0-4.76s-3.06 4.76 0 4.76zM731 828.19c3.06 0 3.07-4.76 0-4.76s-3.06 4.76 0 4.76zM653.8 768.08c3.06 0 3.07-4.76 0-4.76s-3.06 4.76 0 4.76zM648.67 750.7c3.06 0 3.06-4.75 0-4.75s-3.07 4.75 0 4.75zM669.66 751.43c3.06 0 3.07-4.76 0-4.76s-3.06 4.76 0 4.76zM657.35 731.88c3.06 0 3.07-4.76 0-4.76s-3.06 4.76 0 4.76zM770 914.57c3.06 0 3.06-4.76 0-4.76s-3.07 4.76 0 4.76zM774.3 927.6c3.06 0 3.07-4.76 0-4.76s-3.06 4.76 0 4.76zM770.68 934.11c3.06 0 3.07-4.75 0-4.75s-3.06 4.75 0 4.75zM772.8 952.76c3.06 0 3.07-4.75 0-4.75s-3.06 4.75 0 4.75zM779.11 1035.39c3.06 0 3.06-4.76 0-4.76s-3.07 4.76 0 4.76zM779.11 1053.52c3.06 0 3.06-4.76 0-4.76s-3.07 4.76 0 4.76zM783.45 1068.72c3.06 0 3.06-4.75 0-4.75s-3.06 4.75 0 4.75zM784 1089c3.06 0 3.06-4.75 0-4.75s-3.06 4.75 0 4.75zM785.08 1100.08c3.06 0 3.06-4.75 0-4.75s-3.06 4.75 0 4.75zM787.45 1114.71c3 0 3.06-4.76 0-4.76s-3.07 4.76 0 4.76zM657.36 750.05c3.06 0 3.07-4.75 0-4.75s-3.06 4.75 0 4.75zM681.19 762c3.06 0 3.06-4.75 0-4.75s-3.07 4.75 0 4.75zM775.14 943.5c3.06 0 3.06-4.75 0-4.75s-3.07 4.75 0 4.75zM775.57 960.85c3.06 0 3.06-4.76 0-4.76s-3.06 4.76 0 4.76zM790.46 1104.89c3.06 0 3.07-4.76 0-4.76s-3.06 4.76 0 4.76zM793.85 1119.3c3.06 0 3.07-4.76 0-4.76s-3.06 4.76 0 4.76z" fill="#fff"/><path d="M726.34 771.92c3.06 0 3.06-4.75 0-4.75s-3.07 4.75 0 4.75zM713.89 763.23c3.06 0 3.07-4.75 0-4.75s-3.06 4.75 0 4.75zM716.47 773.93c3.06 0 3.06-4.76 0-4.76s-3.07 4.76 0 4.76zM722 764.44c3.06 0 3.06-4.75 0-4.75s-3.07 4.75 0 4.75zM723.21 782.91c3 0 3.06-4.75 0-4.75s-3.07 4.75 0 4.75zM709.73 784.16c3.06 0 3.06-4.76 0-4.76s-3.06 4.76 0 4.76zM724.7 794.14c3.06 0 3.07-4.75 0-4.75s-3.06 4.75 0 4.75zM716.72 785.66c3.06 0 3.06-4.76 0-4.76s-3.07 4.76 0 4.76zM708.23 793.89c3.06 0 3.07-4.75 0-4.75s-3.06 4.75 0 4.75zM711.73 806.38c3 0 3.06-4.76 0-4.76s-3.07 4.76 0 4.76zM719.85 566.33c3.06 0 3.07-4.75 0-4.75s-3.06 4.75 0 4.75zM728.62 567.15c3 0 3.06-4.76 0-4.76s-3.07 4.76 0 4.76zM724.12 575.17c3.06 0 3.07-4.76 0-4.76s-3.06 4.76 0 4.76zM731.36 574.08c3.06 0 3.06-4.76 0-4.76s-3.06 4.76 0 4.76zM713.21 575.51c3.06 0 3.07-4.75 0-4.75s-3.06 4.75 0 4.75zM713.79 561.6c3.06 0 3.07-4.76 0-4.76s-3.06 4.76 0 4.76zM719.07 589.13c3.06 0 3.06-4.75 0-4.75s-3.07 4.75 0 4.75zM727 583.08c3.06 0 3.06-4.75 0-4.75s-3.06 4.75 0 4.75zM717.49 581.16c3.06 0 3.07-4.75 0-4.75s-3.06 4.75 0 4.75zM717 601.15c3.06 0 3.06-4.76 0-4.76s-3.06 4.76 0 4.76zM709.25 595.12c3.06 0 3.06-4.75 0-4.75s-3.07 4.75 0 4.75zM712.64 613c3.06 0 3.07-4.75 0-4.75s-3.06 4.75 0 4.75zM696.64 614.9c3.06 0 3.06-4.76 0-4.76s-3.06 4.76 0 4.76zM706.46 638.89c3.06 0 3.07-4.76 0-4.76s-3.06 4.76 0 4.76zM684.21 796.66c3.06 0 3.07-4.75 0-4.75s-3.06 4.75 0 4.75zM670.87 790.11c3.06 0 3.06-4.76 0-4.76s-3.07 4.76 0 4.76zM685.54 787.74c3.06 0 3.07-4.76 0-4.76s-3.06 4.76 0 4.76zM661.4 781.58c3.06 0 3.06-4.75 0-4.75s-3.07 4.75 0 4.75zM663.77 766.91c3.05 0 3.06-4.76 0-4.76s-3.07 4.76 0 4.76zM669 780.16c3.06 0 3.07-4.75 0-4.75s-3.06 4.75 0 4.75zM678 780.16c3.06 0 3.06-4.75 0-4.75s-3.07 4.75 0 4.75zM690.75 803.2c3.06 0 3.06-4.76 0-4.76s-3.06 4.76 0 4.76zM724.36 822.77c3.06 0 3.07-4.75 0-4.75s-3.06 4.75 0 4.75zM723.89 832.71c3.06 0 3.06-4.75 0-4.75s-3.06 4.75 0 4.75zM729.1 837.45c3.06 0 3.06-4.76 0-4.76s-3.07 4.76 0 4.76zM717.34 828.45c3.06 0 3.07-4.75 0-4.75s-3.06 4.75 0 4.75zM706.8 815.2c3.05 0 3.06-4.76 0-4.76s-3.07 4.76 0 4.76zM728.15 815.2c3.06 0 3.06-4.76 0-4.76s-3.06 4.76 0 4.76zM723.89 808.57c3.06 0 3.06-4.76 0-4.76s-3.06 4.76 0 4.76zM731.46 809.52c3.06 0 3.07-4.76 0-4.76s-3.06 4.76 0 4.76zM746.61 861.59c3.06 0 3.07-4.75 0-4.75s-3.06 4.75 0 4.75zM756.08 858.28c3.06 0 3.07-4.76 0-4.76s-3.06 4.76 0 4.76zM754.19 867.75c3.06 0 3.06-4.76 0-4.76s-3.07 4.76 0 4.76zM751.1 874.5c3.06 0 3.06-4.75 0-4.75s-3.06 4.75 0 4.75zM755.58 886.32c3.06 0 3.07-4.75 0-4.75s-3.06 4.75 0 4.75zM765.72 877.92c3.06 0 3.07-4.76 0-4.76s-3.06 4.76 0 4.76zM758.92 876.27c3.06 0 3.07-4.76 0-4.76s-3.06 4.76 0 4.76zM768.79 886.32c3.06 0 3.06-4.75 0-4.75s-3.06 4.75 0 4.75zM763.18 894.73c3.06 0 3.07-4.75 0-4.75s-3.06 4.75 0 4.75zM763.18 903.73c3.06 0 3.07-4.76 0-4.76s-3.06 4.76 0 4.76zM773.1 971.08c3.06 0 3.07-4.75 0-4.75s-3.06 4.75 0 4.75zM776.8 978.57c3.06 0 3.06-4.75 0-4.75s-3.07 4.75 0 4.75zM775.14 996.42c3.06 0 3.06-4.75 0-4.75s-3.07 4.75 0 4.75zM779.83 1005.24c3.06 0 3.06-4.76 0-4.76s-3.06 4.76 0 4.76zM795.19 1134.28c3.06 0 3.06-4.76 0-4.76s-3.07 4.76 0 4.76zM788.55 1127.31c3.05 0 3.06-4.75 0-4.75s-3.07 4.75 0 4.75zM792 1142.85c3 0 3.06-4.76 0-4.76s-3.07 4.76 0 4.76zM791.58 1156.87c3.06 0 3.06-4.76 0-4.76s-3.07 4.76 0 4.76zM798 1168.23c3.06 0 3.06-4.75 0-4.75s-3.07 4.75 0 4.75zM796.48 1180.09c3.06 0 3.06-4.76 0-4.76s-3.07 4.76 0 4.76zM779.83 1022.35c3.06 0 3.06-4.75 0-4.75s-3.06 4.75 0 4.75zM733.22 781.36c3.06 0 3.07-4.75 0-4.75s-3.06 4.75 0 4.75zM719.58 734.38c3.06 0 3.07-4.76 0-4.76s-3.06 4.76 0 4.76zM707.08 566.9c3.06 0 3.06-4.76 0-4.76s-3.07 4.76 0 4.76zM703.67 584.71c3.06 0 3.06-4.76 0-4.76s-3.07 4.76 0 4.76zM719.58 624.87c3.06 0 3.07-4.75 0-4.75s-3.06 4.75 0 4.75z" fill="#706f6b"/><path d="M836 1219s30.63-3.83 52.37 0M325.25 1236.47s30.64-3.84 52.37 0" fill="none" stroke="#636363" stroke-linecap="round" stroke-linejoin="round"/><path fill="none" stroke="#262521" stroke-linecap="round" stroke-linejoin="round" stroke-width="3" d="M889.76 1251.67h-58.1M659.16 530.22s131.41 49.1 142.29 56.21M343.91 620.74c44.74-27 145.47-89.52 145.47-89.52"/><path d="M397.92 1269.81s73.25 18.65 150.25 17.72c137.52-1.66 260.87-23.64 260.87-23.64M411.17 1224s167.06 41.72 378.14-4.33M477.93 546.4s21.5 56.91 100.81 56.91 94.26-62 94.26-62" fill="none" stroke="#636363" stroke-linecap="round" stroke-linejoin="round"/><path d="M804 1218c14.5-25-19.76-173.14-21.56-243.1-1.22-47.58-16.1-167.27-16.1-167.27M410.64 807.59s5.34 199.1 3.82 238.13c-.83 21.49-27.59 151.13-15.28 178.31" fill="none" stroke="#262521" stroke-linecap="round" stroke-linejoin="round" stroke-width="3"/></svg>