<svg xmlns="http://www.w3.org/2000/svg" width="1000" height="1550" viewBox="0 0 1000 1550"><path d="M364.35 531.24h0s.01-.04 0 0zM752.22 1043c-3.84-55.87-22.89-124.63-22.89-124.63s-14.58-307-52.88-331.94c-10.88-7.11-142.29-56.21-142.29-56.21s-2.49 55-82.84 55c-65.09 0-82.1-39.23-86.22-51.38a11.73 11.73 0 01-.75-2.59c-1 .64-100.94 62.69-145.44 89.5C174.18 647.69 192.24 945 192.24 945a619.73 619.73 0 00-3.6 128.12c5.52 68.42-1.88 179.2 14.45 197.93l61-1.5s-5.61-14.34-4.66-27c2.28-30.22 5.54-104.26 15.36-135.21 4.92-15.48 9.78-37.06 13.91-55.27h.23c-3.88 32.6-26.06 146.08-14.66 171.24 0 13-1.31 46.48-1.31 46.48s73.25 18.65 150.25 17.72c137.52-1.66 260.87-23.64 260.87-23.64s-4.19-33-5-46.63c8.56-14.78.71-77.4-8.3-134.14h.22c15.66 47 30.92 103.57 32.82 134.18 1.63 26.39 2.88 34.36 2.88 34.36h58.1s4.49-6.66 5.3-18.88-12.31-108.5-17.88-189.76z" fill="#262521" stroke="#262521" stroke-linecap="round" stroke-linejoin="round" stroke-width="3"/><path d="M314 979.89c5.84 32.16-15.65 178-16.11 197.22-.54 22.38-26.76 28.66-26.76 28.66-5.05-20.41 31.11-156.5 27.58-189.24-1.25-87.28-2.09-172.58-4.53-203.71 28.19-87.29-4-228.87-34.89-215.76 24.84-16 55.56-35.16 55.56-35.16 15.24 35.38 45.59 68.71 66.57 101 100.47 154.44-91.61 90.41-67.42 316.99z" fill="#3a3934"/><path d="M305 979.89c5.84 32.16-15.27 178.05-16.11 197.22s-17.91 18.1-17.91 18.1c-5.05-20.4 22.26-145.94 18.73-178.68-1.25-87.28-2.09-172.58-4.53-203.71 28.19-87.29-2.54-225.16-33.46-212.05 24.84-16 56.53-34.79 56.53-34.79 15.24 35.38 45.31 63.36 64.17 96.88 100.07 151.2-91.61 90.45-67.42 317.03z" fill="#adadad"/><path d="M286.41 841.43c11.38-19.73 45.45-153.3 1.25-262.15A205.31 205.31 0 00251.73 603c26.82 30.37 34.68 238.43 34.68 238.43z" fill="#878787"/><path d="M286.41 841.43c11.38-19.73 45.45-153.3 1.25-262.15A205.31 205.31 0 00251.73 603c26.82 30.37 34.68 238.43 34.68 238.43z" fill="#fff" opacity=".5"/><path d="M286.22 830.34c6.36-15.66 38.63-142.56-4.54-247.69-13.81 7.34-37.29 20.16-49.2 29.87 46.14 34.18 53.74 217.82 53.74 217.82zM354.49 782.83c2.79 0 2.79-4.33 0-4.33s-2.79 4.33 0 4.33zM364.09 789.89c2.79 0 2.79-4.33 0-4.33s-2.79 4.33 0 4.33zM376.35 779.65c2.78 0 2.79-4.33 0-4.33s-2.79 4.33 0 4.33zM364.93 781.16c2.79 0 2.79-4.33 0-4.33s-2.79 4.33 0 4.33zM359.51 773.07c2.79 0 2.79-4.33 0-4.33s-2.79 4.33 0 4.33zM377.85 764c2.78 0 2.79-4.33 0-4.33s-2.79 4.33 0 4.33zM380.64 772.36c2.79 0 2.79-4.33 0-4.33s-2.79 4.33 0 4.33zM366.29 767.78c2.78 0 2.79-4.33 0-4.33s-2.79 4.33 0 4.33zM389.64 762.23c2.78 0 2.79-4.33 0-4.33s-2.79 4.33 0 4.33zM354.3 801.4c2.78 0 2.79-4.33 0-4.33s-2.8 4.33 0 4.33zM342.46 788.63c2.79 0 2.79-4.33 0-4.33s-2.79 4.33 0 4.33zM341.53 772.16c2.79 0 2.8-4.33 0-4.33s-2.79 4.33 0 4.33zM336 755.47c2.78 0 2.79-4.33 0-4.33s-2.79 4.33 0 4.33zM359.15 762.51c2.79 0 2.79-4.34 0-4.34s-2.79 4.34 0 4.34zM364.09 738.18c2.79 0 2.79-4.33 0-4.33s-2.79 4.33 0 4.33zM382.68 752.28c2.79 0 2.79-4.33 0-4.33s-2.79 4.33 0 4.33zM394.75 733.23c2.79 0 2.79-4.33 0-4.33s-2.79 4.33 0 4.33zM338.07 803c2.79 0 2.79-4.33 0-4.33s-2.79 4.33 0 4.33zM339 815c2.78 0 2.79-4.33 0-4.33s-2.8 4.33 0 4.33zM346.82 807.39c2.79 0 2.8-4.33 0-4.33s-2.79 4.33 0 4.33zM346 798.22c2.78 0 2.79-4.33 0-4.33s-2.79 4.33 0 4.33zM319.82 808c2.79 0 2.79-4.33 0-4.33s-2.79 4.33 0 4.33zM322.25 826.36c2.79 0 2.8-4.33 0-4.33s-2.79 4.33 0 4.33zM303.45 858c2.78 0 2.79-4.34 0-4.34s-2.8 4.34 0 4.34zM315.32 857.5c2.79 0 2.8-4.33 0-4.33s-2.79 4.33 0 4.33zM312.27 867.07c2.79 0 2.79-4.33 0-4.33s-2.79 4.33 0 4.33zM295.21 868.72c2.78 0 2.79-4.33 0-4.33s-2.79 4.33 0 4.33zM303.48 885.81c2.79 0 2.79-4.33 0-4.33s-2.79 4.33 0 4.33zM304.5 875.77c2.79 0 2.79-4.33 0-4.33s-2.79 4.33 0 4.33zM294.61 881.76c2.78 0 2.79-4.33 0-4.33s-2.79 4.33 0 4.33zM297 907.57c2.78 0 2.79-4.33 0-4.33s-2.8 4.33 0 4.33zM296.73 921.43c2.78 0 2.79-4.33 0-4.33s-2.79 4.33 0 4.33zM293.77 934.7c2.78 0 2.79-4.33 0-4.33s-2.8 4.33 0 4.33zM296.87 953.09c2.79 0 2.79-4.33 0-4.33s-2.79 4.33 0 4.33zM294.84 1024.31c2.79 0 2.8-4.33 0-4.33s-2.79 4.33 0 4.33zM300.24 1033.68c2.79 0 2.8-4.33 0-4.33s-2.79 4.33 0 4.33zM294.31 1048.19c2.79 0 2.79-4.33 0-4.33s-2.79 4.33 0 4.33zM297.19 1056.55c2.78 0 2.79-4.33 0-4.33s-2.8 4.33 0 4.33zM298 1070.63c2.78 0 2.79-4.33 0-4.33s-2.8 4.33 0 4.33zM292.13 1064.53c2.78 0 2.79-4.33 0-4.33s-2.79 4.33 0 4.33zM295.74 1082.31c2.79 0 2.79-4.33 0-4.33s-2.79 4.33 0 4.33zM289.23 1095.13c2.79 0 2.79-4.33 0-4.33s-2.79 4.33 0 4.33zM290.78 1121.91c2.79 0 2.79-4.33 0-4.33s-2.79 4.33 0 4.33z" fill="#fff"/><path d="M296.76 583.52c2.79 0 2.79-4.33 0-4.33s-2.79 4.33 0 4.33zM303.72 589c2.79 0 2.79-4.33 0-4.33s-2.79 4.33 0 4.33zM303.12 580.19c2.78 0 2.79-4.33 0-4.33s-2.79 4.33 0 4.33zM310 582.74c2.79 0 2.79-4.34 0-4.34s-2.79 4.34 0 4.34zM297.78 594.06c2.79 0 2.79-4.33 0-4.33s-2.79 4.33 0 4.33zM303.77 610.05c2.79 0 2.8-4.33 0-4.33s-2.79 4.33 0 4.33zM308.37 598.72c2.78 0 2.79-4.33 0-4.33s-2.79 4.33 0 4.33zM314.36 609.52c2.78 0 2.79-4.33 0-4.33s-2.79 4.33 0 4.33zM308.18 625c2.79 0 2.79-4.33 0-4.33s-2.79 4.33 0 4.33zM314.13 846.11c2.79 0 2.8-4.33 0-4.33s-2.79 4.33 0 4.33zM313.84 835c2.79 0 2.79-4.33 0-4.33s-2.79 4.33 0 4.33zM321.08 835.11c2.79 0 2.79-4.33 0-4.33s-2.79 4.33 0 4.33zM321.57 842.81c2.78 0 2.79-4.33 0-4.33s-2.79 4.33 0 4.33zM318.88 851.11c2.79 0 2.79-4.33 0-4.33s-2.79 4.33 0 4.33zM328.25 832.13c2.78 0 2.79-4.33 0-4.33s-2.79 4.33 0 4.33zM330.65 821.78c2.78 0 2.79-4.33 0-4.33s-2.8 4.33 0 4.33zM338.07 821.78c2.79 0 2.79-4.33 0-4.33s-2.79 4.33 0 4.33zM320.53 816c2.79 0 2.79-4.33 0-4.33s-2.79 4.33 0 4.33zM308.72 819.51c2.79 0 2.79-4.33 0-4.33s-2.79 4.33 0 4.33zM311.17 807.39c2.79 0 2.79-4.33 0-4.33s-2.79 4.33 0 4.33zM305.44 798.9c2.79 0 2.79-4.33 0-4.33s-2.79 4.33 0 4.33zM302.28 817c2.79 0 2.79-4.33 0-4.33s-2.79 4.33 0 4.33zM299 825.62c2.79 0 2.79-4.33 0-4.33s-2.79 4.33 0 4.33zM306.8 829c2.78 0 2.79-4.33 0-4.33s-2.8 4.33 0 4.33zM305 837.18c2.79 0 2.79-4.33 0-4.33s-2.79 4.33 0 4.33zM297.07 837.94c2.79 0 2.79-4.33 0-4.33s-2.79 4.33 0 4.33zM305.6 848.75c2.79 0 2.8-4.33 0-4.33s-2.79 4.33 0 4.33zM294.61 847.22c2.78 0 2.79-4.33 0-4.33s-2.79 4.33 0 4.33zM293.8 857.64c2.79 0 2.79-4.33 0-4.33s-2.79 4.33 0 4.33zM290.7 852.25c2.79 0 2.79-4.33 0-4.33s-2.79 4.33 0 4.33zM309.71 784.28c2.79 0 2.79-4.34 0-4.34s-2.79 4.34 0 4.34zM317.72 776.27c2.79 0 2.8-4.33 0-4.33s-2.79 4.33 0 4.33zM321.19 788.08c2.79 0 2.79-4.33 0-4.33s-2.79 4.33 0 4.33zM313.3 791.94c2.78 0 2.79-4.33 0-4.33s-2.8 4.33 0 4.33zM328.07 797.75c2.78 0 2.79-4.33 0-4.33s-2.79 4.33 0 4.33zM333.31 777.09c2.78 0 2.79-4.33 0-4.33s-2.8 4.33 0 4.33zM328.25 767.5c2.78 0 2.79-4.33 0-4.33s-2.79 4.33 0 4.33zM314.92 766c2.79 0 2.79-4.33 0-4.33s-2.79 4.33 0 4.33zM312.74 743.42c2.79 0 2.8-4.33 0-4.33s-2.79 4.33 0 4.33zM318.51 755c2.79 0 2.79-4.33 0-4.33s-2.79 4.33 0 4.33zM333.58 742.44c2.78 0 2.79-4.33 0-4.33s-2.79 4.33 0 4.33zM344.93 753c2.78 0 2.79-4.33 0-4.33s-2.79 4.33 0 4.33zM357.27 749.71c2.79 0 2.79-4.33 0-4.33s-2.79 4.33 0 4.33zM366.52 754.5c2.79 0 2.79-4.33 0-4.33s-2.79 4.33 0 4.33zM350.48 738.23c2.79 0 2.79-4.33 0-4.33s-2.79 4.33 0 4.33zM338.07 730.12c2.79 0 2.79-4.33 0-4.33s-2.79 4.33 0 4.33zM325 731.64c2.79 0 2.79-4.33 0-4.33s-2.79 4.33 0 4.33zM327 711.81c2.79 0 2.79-4.33 0-4.33s-2.79 4.33 0 4.33zM341.78 715c2.79 0 2.79-4.33 0-4.33s-2.79 4.33 0 4.33zM355.63 722c2.78 0 2.79-4.33 0-4.33s-2.79 4.33 0 4.33zM349.21 727.76c2.79 0 2.79-4.33 0-4.33s-2.79 4.33 0 4.33zM342.88 737.15c2.79 0 2.8-4.33 0-4.33s-2.79 4.33 0 4.33zM372.27 725.79c2.79 0 2.79-4.33 0-4.33s-2.79 4.33 0 4.33zM378.59 735c2.78 0 2.79-4.33 0-4.33s-2.79 4.33 0 4.33zM383.67 723.4c2.79 0 2.79-4.33 0-4.33s-2.79 4.33 0 4.33zM392.31 711.19c2.78 0 2.79-4.33 0-4.33s-2.79 4.33 0 4.33zM378 712.83c2.78 0 2.79-4.33 0-4.33s-2.79 4.33 0 4.33zM380 693.78c2.79 0 2.79-4.33 0-4.33s-2.79 4.33 0 4.33zM367.9 701.92c2.79 0 2.79-4.33 0-4.33s-2.79 4.33 0 4.33zM368.62 709.35c2.79 0 2.79-4.33 0-4.33s-2.79 4.33 0 4.33zM346.82 692.33c2.79 0 2.8-4.33 0-4.33s-2.79 4.33 0 4.33zM368.54 679.13c2.79 0 2.79-4.33 0-4.33s-2.79 4.33 0 4.33zM352.53 663.1c2.78 0 2.79-4.33 0-4.33s-2.79 4.33 0 4.33zM355.55 699.76c2.79 0 2.79-4.33 0-4.33s-2.79 4.33 0 4.33zM293.63 970.59c2.79 0 2.79-4.33 0-4.33s-2.79 4.33 0 4.33zM297.19 981.88c2.78 0 2.79-4.33 0-4.33s-2.79 4.33 0 4.33zM295.81 991c2.78 0 2.79-4.33 0-4.33s-2.8 4.33 0 4.33zM300.41 1002.55c2.79 0 2.8-4.33 0-4.33s-2.79 4.33 0 4.33zM295.41 998.58c2.79 0 2.79-4.33 0-4.33s-2.79 4.33 0 4.33zM302.28 1015c2.79 0 2.79-4.33 0-4.33s-2.79 4.33 0 4.33zM283.41 1127c2.78 0 2.79-4.33 0-4.33s-2.79 4.33 0 4.33zM288.45 1135.5c2.79 0 2.79-4.33 0-4.33s-2.79 4.33 0 4.33zM288.06 1108.72c2.79 0 2.8-4.33 0-4.33s-2.79 4.33 0 4.33zM279.53 1152.58c2.78 0 2.79-4.33 0-4.33s-2.8 4.33 0 4.33zM282.24 1143.65c2.79 0 2.79-4.33 0-4.33s-2.79 4.33 0 4.33zM286.51 1167.33c2.79 0 2.79-4.33 0-4.33s-2.79 4.33 0 4.33zM279.14 1173.92c2.78 0 2.79-4.33 0-4.33s-2.79 4.33 0 4.33zM281.85 1185.18c2.79 0 2.8-4.33 0-4.33s-2.79 4.33 0 4.33z" fill="#706f6b"/><path d="M639.18 989.06c3.56 74.59 14.37 157.49 17.92 190.1 2.73 25 25.49 16.21 25.49 16.21.88-22.34-19-84.81-28.09-156.74-6.19-48.92-7.2-81.13-10.71-122.51 0 0-6.5-51-10.15-99.58-26.55-110-22-253.67 13.15-242.61 0 0-42.34-18.41-71.56-26.56-12.93 40.28-23.09 81.62-42.76 119-95.18 180.95 94.6 68.91 106.71 322.69z" fill="#3a3934"/><path d="M647.57 1023.3c9.43 76.79 12.42 115.56 16 148.16 2.73 25 19.55 17 19.55 17 .88-22.34-10-77.91-19.1-149.84-6.19-48.92-7.2-81.13-10.71-122.51 0 0-6.5-51-10.15-99.58-26.55-110-24.39-246.41 10.78-235.35-25.65-16.71-41.82-21.25-71-29.4-12.93 40.28-23.83 76-40.91 114.58-84.12 158.34 59.8 90 99.32 260.46 4.29 18.8 3.15 71.45 6.22 96.48z" fill="#adadad"/><path d="M646 850.77s-40.38-245.16.79-274.34c-13.19-8.59-17.19-10.34-31.72-15.74C556.83 713.1 646 850.77 646 850.77z" fill="#878787"/><path d="M646 850.77s-40.38-245.16.79-274.34c-13.19-8.59-17.19-10.34-31.72-15.74C556.83 713.1 646 850.77 646 850.77z" fill="#fff" opacity=".5"/><path d="M644.61 837.4c0-2.66-27.27-221.61 26-253.9-13.19-8.59-35-14-49.51-19.39-49.18 114.66 10.96 259.16 23.51 273.29zM605.05 790.13c3.06 0 3.07-4.75 0-4.75s-3.06 4.75 0 4.75zM614.86 796.66c3 0 3.06-4.75 0-4.75s-3.07 4.75 0 4.75zM606.69 803.2c3.06 0 3.06-4.76 0-4.76s-3.07 4.76 0 4.76zM618 811.34c3.05 0 3.06-4.75 0-4.75s-3.07 4.75 0 4.75zM607.89 817.86c3.06 0 3.06-4.75 0-4.75s-3.06 4.75 0 4.75zM589.07 799c3 0 3.06-4.76 0-4.76s-3.07 4.76 0 4.76zM589.07 819.31c3 0 3.06-4.76 0-4.76s-3.07 4.76 0 4.76zM614.41 826.55c3.05 0 3.06-4.76 0-4.76s-3.07 4.76 0 4.76zM618 840.3c3.05 0 3.06-4.75 0-4.75s-3.07 4.75 0 4.75zM625.27 840.3c3.05 0 3.06-4.75 0-4.75s-3.07 4.75 0 4.75zM625.27 822.93c3.05 0 3.06-4.76 0-4.76s-3.07 4.76 0 4.76zM631.78 833.06c3.06 0 3.07-4.75 0-4.75s-3.06 4.75 0 4.75zM620.2 832.34c3.06 0 3.06-4.75 0-4.75s-3.07 4.75 0 4.75zM639.57 853.14c3 0 3.06-4.75 0-4.75s-3.07 4.75 0 4.75zM623.09 851.89c3.06 0 3.07-4.76 0-4.76s-3.06 4.76 0 4.76zM636.12 842.48c3.06 0 3.07-4.76 0-4.76s-3.06 4.76 0 4.76zM639.57 867.75c3 0 3.06-4.76 0-4.76s-3.07 4.76 0 4.76zM609.54 846.1c3.06 0 3.06-4.76 0-4.76s-3.06 4.76 0 4.76zM606 828.19c3.06 0 3.07-4.76 0-4.76s-3.06 4.76 0 4.76zM528.8 768.08c3.06 0 3.07-4.76 0-4.76s-3.06 4.76 0 4.76zM523.67 750.7c3.06 0 3.06-4.75 0-4.75s-3.07 4.75 0 4.75zM544.66 751.43c3.06 0 3.07-4.76 0-4.76s-3.06 4.76 0 4.76zM532.35 731.88c3.06 0 3.07-4.76 0-4.76s-3.06 4.76 0 4.76zM645 914.57c3.06 0 3.06-4.76 0-4.76s-3.07 4.76 0 4.76zM649.3 927.6c3.06 0 3.07-4.76 0-4.76s-3.06 4.76 0 4.76zM645.68 934.11c3.06 0 3.07-4.75 0-4.75s-3.06 4.75 0 4.75zM647.8 952.76c3.06 0 3.07-4.75 0-4.75s-3.06 4.75 0 4.75zM654.11 1035.39c3.06 0 3.06-4.76 0-4.76s-3.07 4.76 0 4.76zM654.11 1053.52c3.06 0 3.06-4.76 0-4.76s-3.07 4.76 0 4.76zM658.45 1068.72c3.06 0 3.06-4.75 0-4.75s-3.06 4.75 0 4.75zM659 1089c3.06 0 3.06-4.75 0-4.75s-3.06 4.75 0 4.75zM660.08 1100.08c3.06 0 3.06-4.75 0-4.75s-3.06 4.75 0 4.75zM662.45 1114.71c3 0 3.06-4.76 0-4.76s-3.07 4.76 0 4.76zM532.36 750.05c3.06 0 3.07-4.75 0-4.75s-3.06 4.75 0 4.75zM556.19 762c3.06 0 3.06-4.75 0-4.75s-3.07 4.75 0 4.75zM650.14 943.5c3.06 0 3.06-4.75 0-4.75s-3.07 4.75 0 4.75zM650.57 960.85c3.06 0 3.06-4.76 0-4.76s-3.06 4.76 0 4.76zM665.46 1104.89c3.06 0 3.07-4.76 0-4.76s-3.06 4.76 0 4.76zM668.85 1119.3c3.06 0 3.07-4.76 0-4.76s-3.06 4.76 0 4.76z" fill="#fff"/><path d="M601.34 771.92c3.06 0 3.06-4.75 0-4.75s-3.07 4.75 0 4.75zM588.89 763.23c3.06 0 3.07-4.75 0-4.75s-3.06 4.75 0 4.75zM591.47 773.93c3.06 0 3.06-4.76 0-4.76s-3.07 4.76 0 4.76zM597 764.44c3.06 0 3.06-4.75 0-4.75s-3.07 4.75 0 4.75zM598.21 782.91c3 0 3.06-4.75 0-4.75s-3.07 4.75 0 4.75zM584.73 784.16c3.06 0 3.06-4.76 0-4.76s-3.06 4.76 0 4.76zM599.7 794.14c3.06 0 3.07-4.75 0-4.75s-3.06 4.75 0 4.75zM591.72 785.66c3.06 0 3.06-4.76 0-4.76s-3.07 4.76 0 4.76zM583.23 793.89c3.06 0 3.07-4.75 0-4.75s-3.06 4.75 0 4.75zM586.73 806.38c3 0 3.06-4.76 0-4.76s-3.07 4.76 0 4.76zM594.85 566.33c3.06 0 3.07-4.75 0-4.75s-3.06 4.75 0 4.75zM603.62 567.15c3 0 3.06-4.76 0-4.76s-3.07 4.76 0 4.76zM599.12 575.17c3.06 0 3.07-4.76 0-4.76s-3.06 4.76 0 4.76zM606.36 574.08c3.06 0 3.06-4.76 0-4.76s-3.06 4.76 0 4.76zM588.21 575.51c3.06 0 3.07-4.75 0-4.75s-3.06 4.75 0 4.75zM588.79 561.6c3.06 0 3.07-4.76 0-4.76s-3.06 4.76 0 4.76zM594.07 589.13c3.06 0 3.06-4.75 0-4.75s-3.07 4.75 0 4.75zM602 583.08c3.06 0 3.06-4.75 0-4.75s-3.06 4.75 0 4.75zM592.49 581.16c3.06 0 3.07-4.75 0-4.75s-3.06 4.75 0 4.75zM592 601.15c3.06 0 3.06-4.76 0-4.76s-3.06 4.76 0 4.76zM584.25 595.12c3.06 0 3.06-4.75 0-4.75s-3.07 4.75 0 4.75zM587.64 613c3.06 0 3.07-4.75 0-4.75s-3.06 4.75 0 4.75zM571.64 614.9c3.06 0 3.06-4.76 0-4.76s-3.06 4.76 0 4.76zM581.46 638.89c3.06 0 3.07-4.76 0-4.76s-3.06 4.76 0 4.76zM559.21 796.66c3.06 0 3.07-4.75 0-4.75s-3.06 4.75 0 4.75zM545.87 790.11c3.06 0 3.06-4.76 0-4.76s-3.07 4.76 0 4.76zM560.54 787.74c3.06 0 3.07-4.76 0-4.76s-3.06 4.76 0 4.76zM536.4 781.58c3.06 0 3.06-4.75 0-4.75s-3.07 4.75 0 4.75zM538.77 766.91c3.05 0 3.06-4.76 0-4.76s-3.07 4.76 0 4.76zM544 780.16c3.06 0 3.07-4.75 0-4.75s-3.06 4.75 0 4.75zM553 780.16c3.06 0 3.06-4.75 0-4.75s-3.07 4.75 0 4.75zM565.75 803.2c3.06 0 3.06-4.76 0-4.76s-3.06 4.76 0 4.76zM599.36 822.77c3.06 0 3.07-4.75 0-4.75s-3.06 4.75 0 4.75zM598.89 832.71c3.06 0 3.06-4.75 0-4.75s-3.06 4.75 0 4.75zM604.1 837.45c3.06 0 3.06-4.76 0-4.76s-3.07 4.76 0 4.76zM592.34 828.45c3.06 0 3.07-4.75 0-4.75s-3.06 4.75 0 4.75zM581.8 815.2c3.05 0 3.06-4.76 0-4.76s-3.07 4.76 0 4.76zM603.15 815.2c3.06 0 3.06-4.76 0-4.76s-3.06 4.76 0 4.76zM598.89 808.57c3.06 0 3.06-4.76 0-4.76s-3.06 4.76 0 4.76zM606.46 809.52c3.06 0 3.07-4.76 0-4.76s-3.06 4.76 0 4.76zM621.61 861.59c3.06 0 3.07-4.75 0-4.75s-3.06 4.75 0 4.75zM631.08 858.28c3.06 0 3.07-4.76 0-4.76s-3.06 4.76 0 4.76zM629.19 867.75c3.06 0 3.06-4.76 0-4.76s-3.07 4.76 0 4.76zM626.1 874.5c3.06 0 3.06-4.75 0-4.75s-3.06 4.75 0 4.75zM630.58 886.32c3.06 0 3.07-4.75 0-4.75s-3.06 4.75 0 4.75zM640.72 877.92c3.06 0 3.07-4.76 0-4.76s-3.06 4.76 0 4.76zM633.92 876.27c3.06 0 3.07-4.76 0-4.76s-3.06 4.76 0 4.76zM643.79 886.32c3.06 0 3.06-4.75 0-4.75s-3.06 4.75 0 4.75zM638.18 894.73c3.06 0 3.07-4.75 0-4.75s-3.06 4.75 0 4.75zM638.18 903.73c3.06 0 3.07-4.76 0-4.76s-3.06 4.76 0 4.76zM648.1 971.08c3.06 0 3.07-4.75 0-4.75s-3.06 4.75 0 4.75zM651.8 978.57c3.06 0 3.06-4.75 0-4.75s-3.07 4.75 0 4.75zM650.14 996.42c3.06 0 3.06-4.75 0-4.75s-3.07 4.75 0 4.75zM654.83 1005.24c3.06 0 3.06-4.76 0-4.76s-3.06 4.76 0 4.76zM670.19 1134.28c3.06 0 3.06-4.76 0-4.76s-3.07 4.76 0 4.76zM663.55 1127.31c3.05 0 3.06-4.75 0-4.75s-3.07 4.75 0 4.75zM667 1142.85c3 0 3.06-4.76 0-4.76s-3.07 4.76 0 4.76zM666.58 1156.87c3.06 0 3.06-4.76 0-4.76s-3.07 4.76 0 4.76zM673 1168.23c3.06 0 3.06-4.75 0-4.75s-3.07 4.75 0 4.75zM671.48 1180.09c3.06 0 3.06-4.76 0-4.76s-3.07 4.76 0 4.76zM654.83 1022.35c3.06 0 3.06-4.75 0-4.75s-3.06 4.75 0 4.75zM608.22 781.36c3.06 0 3.07-4.75 0-4.75s-3.06 4.75 0 4.75zM594.58 734.38c3.06 0 3.07-4.76 0-4.76s-3.06 4.76 0 4.76zM582.08 566.9c3.06 0 3.06-4.76 0-4.76s-3.07 4.76 0 4.76zM578.67 584.71c3.06 0 3.06-4.76 0-4.76s-3.07 4.76 0 4.76zM594.58 624.87c3.06 0 3.07-4.75 0-4.75s-3.06 4.75 0 4.75z" fill="#706f6b"/><path d="M711 1219s30.63-3.83 52.37 0M200.25 1236.47s30.64-3.84 52.37 0" fill="none" stroke="#636363" stroke-linecap="round" stroke-linejoin="round"/><path fill="none" stroke="#262521" stroke-linecap="round" stroke-linejoin="round" stroke-width="3" d="M764.76 1251.67h-58.1M534.16 530.22s131.41 49.1 142.29 56.21M218.91 620.74c44.74-27 145.47-89.52 145.47-89.52"/><path d="M272.92 1269.81s73.25 18.65 150.25 17.72c137.52-1.66 260.87-23.64 260.87-23.64M286.17 1224s167.06 41.72 378.14-4.33M352.93 546.4s21.5 56.91 100.81 56.91 94.26-62 94.26-62" fill="none" stroke="#636363" stroke-linecap="round" stroke-linejoin="round"/><path d="M679 1218c14.5-25-19.76-173.14-21.56-243.1-1.22-47.58-16.1-167.27-16.1-167.27M285.64 807.59s5.34 199.1 3.82 238.13c-.83 21.49-27.59 151.13-15.28 178.31" fill="none" stroke="#262521" stroke-linecap="round" stroke-linejoin="round" stroke-width="3"/></svg>