<svg xmlns="http://www.w3.org/2000/svg" width="1250" height="1550" viewBox="0 0 1250 1550"><defs><clipPath id="a"><path d="M801.45 586.43c-10.88-7.11-122.24-47-122.24-47s-19.31 64.33-102.52 67.21c-78 2.69-107-61.87-107-61.87-1 .64-81.56 48.66-125.75 76-26.62 16.46-29.29 139.42-29.29 139.42 5.86 94 96.93 88.66 96.93 88.66l-.91-41.23c4.73 130.5 1.89 248.22 3.68 240.33l-.43 4.17c-3.88 32.6-26.06 146.08-14.66 171.24 0 13-1.37 43.68-1.37 43.68s73.31 21.45 150.31 20.52c137.52-1.66 260.31-25.94 260.31-25.94s-3.63-30.74-4.4-44.33c8.56-14.78.71-77.4-8.3-134.14h.19s-18.19-109.49-16.2-143.24c.8-13.53-3.67-45.25-11-110.89 39.69 22.52 77.12-29.81 77.12-29.81S829 601 801.45 586.43z" fill="none"/></clipPath><clipPath id="b"><path d="M877.22 1043c-3.84-55.87-22.89-124.63-22.89-124.63s-4.62-97.4-15.51-186.93l-524.24 29.61c-3.18 87.88 2.66 184 2.66 184a619.73 619.73 0 00-3.6 128.12c5.52 68.42-1.88 179.2 14.45 197.93l61-1.5s-5.61-14.34-4.66-27c2.28-30.22 5.54-104.26 15.36-135.21 4.92-15.48 9.78-37.06 13.91-55.27h.23c-3.32 27.92 374.79-12.87 374.79-12.87l7.1 43.9h.18c15.66 47 30.92 103.57 32.82 134.18 1.63 26.39 2.88 34.36 2.88 34.36h58.1s4.49-6.66 5.3-18.88-12.31-108.55-17.88-189.81z" fill="none"/></clipPath></defs><path d="M404.43 1264.5s61.78 24.3 203.69 19.79S801 1248.11 801 1248.11l20.11 342.24-158.71-1.85-28.9-196.61-25.52 8.67-8.83 196.25-153.94-.22z" fill="#adadad" stroke="#262521" stroke-linecap="round" stroke-linejoin="round" stroke-width="3"/><path d="M584.53 1170q-4 45.55-5.75 91.24-1.62 41.74-1.37 83.53.12 21.69.75 43.38c.11 3.85 6.11 3.87 6 0q-1.14-39.57-.62-79.16.57-43.49 3.16-86.93 1.56-26.05 3.83-52.06a3 3 0 00-3-3 3.06 3.06 0 00-3 3z" fill="#d8d0ad"/><path d="M580.16 1372.48a1.93 1.93 0 01.34.11l-.72-.31a2.07 2.07 0 01.45.27l-.61-.47a2.52 2.52 0 01.4.4l-.47-.6a2.17 2.17 0 01.33.57l-.3-.72a3.2 3.2 0 01.19.69l-.11-.8a2.43 2.43 0 010 .66l.11-.8a2.64 2.64 0 01-.15.55l.3-.72a2.75 2.75 0 01-.24.41l.47-.6a2.73 2.73 0 01-.35.33l.61-.46a2.38 2.38 0 01-.44.25l.71-.3a2.74 2.74 0 01-.58.15l.8-.11a2.83 2.83 0 01-.65 0l.8.11a3 3 0 01-.72-.2l.72.3a2.7 2.7 0 01-.52-.3l.61.47a2.46 2.46 0 01-.4-.39l.47.61a2.75 2.75 0 01-.24-.41l.31.72a1.94 1.94 0 01-.14-.51l.1.79a2.1 2.1 0 010-.5l-.11.8a2.38 2.38 0 01.16-.58l-.3.72a2.66 2.66 0 01.33-.57l-.47.6a3.48 3.48 0 01.47-.47l-.61.47a2.77 2.77 0 01.57-.34l-.72.31a2.46 2.46 0 01.53-.15l-.8.11a2.18 2.18 0 01.51 0l-.8-.1h.15a2.23 2.23 0 001.2 0 2.11 2.11 0 001.11-.35 2.42 2.42 0 00.85-.77 2.27 2.27 0 00.53-1 3 3 0 00-.3-2.32 3 3 0 00-1.79-1.37 5.67 5.67 0 00-1.15-.15 6.13 6.13 0 00-1.15.13 2.79 2.79 0 00-.39.1 8 8 0 00-1 .45 4 4 0 00-.34.23 7.67 7.67 0 00-.89.73 5.52 5.52 0 00-.91 1.23 7.09 7.09 0 00-.43 1 1.89 1.89 0 00-.1.41 5.41 5.41 0 000 2.3 3.61 3.61 0 00.26.69 3.66 3.66 0 00.32.66 4.88 4.88 0 00.9 1.08 5.66 5.66 0 001.16.79 5.46 5.46 0 001.35.49 6.42 6.42 0 001.45.13 5.36 5.36 0 001.42-.25 8.7 8.7 0 001-.43 6.75 6.75 0 00.85-.64 1.42 1.42 0 00.25-.24 6.06 6.06 0 00.65-.86 4.36 4.36 0 00.55-1.34 5.86 5.86 0 00.15-1.45 5.62 5.62 0 00-.93-2.91 6.35 6.35 0 00-.7-.87 8.44 8.44 0 00-.88-.7 4 4 0 00-1.41-.6 3.15 3.15 0 00-2.31.3 2.33 2.33 0 00-.85.77 2.27 2.27 0 00-.53 1 3 3 0 002.09 3.69zM595.55 1163.05q.83 42.67.59 85.37-.24 42.45-1.53 84.87-.74 24-1.79 47.89a3 3 0 006 0q1.89-42.65 2.72-85.33.83-42.43.6-84.87-.12-24-.59-47.93c-.08-3.86-6.08-3.87-6 0z" fill="#d8d0ad"/><path d="M595.51 1351.91a11 11 0 00-1.63 4.89 5.81 5.81 0 002 4.52 5.15 5.15 0 003.18 1.26 4.5 4.5 0 002.4-.64 5.16 5.16 0 002.37-3.46 6.36 6.36 0 00-.67-4.38 6.82 6.82 0 00-4-2.86 13.08 13.08 0 00-4.09-.39 7.23 7.23 0 00-4.36 1.26 4 4 0 00.29 6.66 5.46 5.46 0 005.42 0 3 3 0 001.08-4.1 3.07 3.07 0 00-4.11-1.08l-.24.12.72-.3a3.47 3.47 0 01-.72.19l.8-.11a3.53 3.53 0 01-.65 0l.8.11a2.93 2.93 0 01-.51-.13l.72.31a1.9 1.9 0 01-.34-.2l.6.47-.16-.16.47.6a1.22 1.22 0 01-.12-.19l.3.72a1.57 1.57 0 01-.08-.31l.11.8a1.31 1.31 0 010-.28l-.11.8a1.82 1.82 0 01.07-.25l-.3.72.13-.23-.47.61a1.88 1.88 0 01.24-.25l-.61.47a2.5 2.5 0 01.5-.29l-.72.31a3.79 3.79 0 011-.27l-.8.11a12.88 12.88 0 013.34 0l-.8-.1a6.9 6.9 0 011.62.42l-.72-.3a4.65 4.65 0 01.91.54l-.61-.47a2.9 2.9 0 01.5.49l-.47-.61a2.59 2.59 0 01.34.58l-.3-.71a3.11 3.11 0 01.2.74l-.11-.8a3.7 3.7 0 010 .94l.11-.8a3.47 3.47 0 01-.19.72l.3-.72a2.29 2.29 0 01-.31.55l.47-.61a1.57 1.57 0 01-.31.32l.61-.46a2.08 2.08 0 01-.38.22l.71-.3a2.47 2.47 0 01-.36.11l.79-.11a2.35 2.35 0 01-.53 0l.79.11-.4-.11.72.3a2.85 2.85 0 01-.45-.25l.61.46a2.67 2.67 0 01-.45-.44l.47.61a3.3 3.3 0 01-.39-.65l.3.71a3.49 3.49 0 01-.23-.84l.11.8a4.31 4.31 0 010-.88l-.1.8a6.11 6.11 0 01.42-1.46l-.3.72c.23-.52.49-1 .76-1.51a3 3 0 10-5.18-3z" fill="#d8d0ad"/><path d="M800.53 1223.63l5.65 56.15s-75.28 14.22-189.09 18.67-214.7-8.06-214.7-8.06l1.05-45.55z" fill="#fff" stroke="#262521" stroke-linecap="round" stroke-linejoin="round" stroke-width="3"/><path d="M490.35 532.24s.01-.04 0 0z" fill="#262521"/><path d="M877.22 1043c-3.84-55.87-22.89-124.63-22.89-124.63s-14.58-307-52.88-331.94c-10.88-7.11-145.79-56.21-145.79-56.21s-7.59 48.33-75.66 51.18c-65 2.72-84.81-34.42-88.93-46.57a11.73 11.73 0 01-.75-2.59c-1 .64-101.94 61.69-146.44 88.5C299.18 647.69 317.24 945 317.24 945a619.73 619.73 0 00-3.6 128.12c5.52 68.42-1.88 179.2 14.45 197.93l61-1.5s-5.61-14.34-4.66-27c2.28-30.22 5.54-104.26 15.36-135.21 4.92-15.48 9.78-37.06 13.91-55.27h.23c-3.88 32.6-26.06 146.08-14.66 171.24 0 13-1.37 43.68-1.37 43.68s73.31 21.45 150.31 20.52c137.52-1.66 260.31-25.94 260.31-25.94s-3.63-30.74-4.4-44.33c8.56-14.78.71-77.4-8.3-134.14h.18c15.66 47 30.92 103.57 32.82 134.18 1.63 26.39 2.88 34.36 2.88 34.36h58.1s4.49-6.66 5.3-18.88-12.31-108.5-17.88-189.76z" fill="#848484"/><g clip-path="url(#a)"><path d="M596.85 664.32l16-7.4c-6.13-14.88-72.76 1.87-87.34 5.65a22.28 22.28 0 00-13.84 8.07 228.32 228.32 0 01-41.55 35.57c-39.46 23.37 6.37 30.3-43.19 51.72-10.94 2.21-23 9.33-22 21.4-.44 9.53 7.59 17.71 8.47 26.93-.15 3.85-7.06 32.78-1.31 42.56 9.68 13.85 25.52 32.53 42.46 38.23 20.21 4.41 35.68-11.71 52-20.62 62.55-20.66 70.87-25.27 105.26-81.69 8.71-15 21.51-19 38.56-18.86 23-5.07 35.5-18 61.23-16.62 22.59-8.19-6.23-15.84-1.35-22.69 9.41-6.57 6.72-17.57.92-26.6l20.75-2.66c-5.53-7.68-9.37-16.5-16.26-23.14-19.29-10.25-46.32-11.74-67.42-6.82-29.35 12.2-26.43 3.74-51.39-3.03z" fill="#636363"/><path d="M707 717.57c-5 2.89 4.18 8.57 6.68 11.09 5 4.9 5.85 12.35 9.38 18.28 13.68 22.95 42.63 11.33 28.29-9.92-10.14-11.09-28.35-22.93-44.35-19.45zM486.24 621.55c-3.52-3.57-8.5-4-13.16-2.58-14.15 2.26-23.11 8.47-27.68 21.8-10.69 14.1-26.56 18.36-21.88 39.73-.26 9.59 9.5 9.9 17.23 11.56 8.16 2.37 14.25 10.18 22.78 10.55 14.6-.65 23.2-16.45 33.57-25.1 9.79-7.35 7.06-19.53 6.85-30.14-.19-5.47-3.89-7.7-6.9-11.81-3.65-4.98-5.89-9.83-10.81-14.01zM495.06 602.13c0 7.71-23.46-1.18-29.33 8.11-5.29 4.52-12.46 7.76-19.39 6.38-28.59-10.77 9.64-37.53 24.78-39.29 6.16-.77 18.8-12.48 23.57-9 8.07 5.92.69 24.47.37 33.8zM632.31 588.86c3 5.52 20.83 30.18 38.13 25.71 6.32-1.63 13.21 4.59 19.73 4.27 4.33-.21 8.33-6.69 12.61-7.33s8.71-2.88 10.14-6.78c2.47-20.62 25.77-.25 35.23 4.48 27 15.41 41.32-10.92 29-33.85-11.77-21.11-38.53-26.43-60.81-29.82-48.68-8.37-53.34 25.72-84.03 43.32z" fill="#636363"/><path d="M789.52 624.13c-9.08 4.56-7.94 16.45-20.11 5.92-19.69-8.48-19.55 20.46-23.95 32.49-4.46 17.16-8.94 34.91-5.86 52.31.31 6.13 8.19 5.33 10.86.66 2-3.41 1.95-7.58 3.75-11.08 6.42-11.41 22.57-8.65 32.38-3.18a11.55 11.55 0 0018.55-10.18c-.26-3.48-1.23-8.05 2.07-9.56 9.8-1.3 11.27 13.75 11.9 20.94 1.9 22.6-4.61 48.65-26.15 60-39.34 21 33.33 31.53 45.42 3.89 5.58-9.83 4.44-21.68 4.48-32.84 0-10.67 1.31-21.35.54-32-1.73-26.39-17.4-50.5-39.06-65.5-3.97-3.09-9.45-13.24-14.82-11.87zM744.55 772c-13.57 9.1-7.38 25.2-10.53 38.32-2 7.43-7.33 14.13-9.28 21.56-3 25.8 3.68 52 11.28 76.78 7 26.9 27.21 12.21 31.39 33.55 7.18 21.58 15.61 92.47 43.89 92.46.24-53.13.47-106.49-9-158.94-3.79-20.91-28.44-31.08-33.91-51.74-3.76-13.99 7.54-72.46-23.84-51.99zM648.76 808.26c-4.06 4.31-4.25 10.12-7 15s-7.8 8.6-10.59 13.39c-6.59 11.28 1.08 24.68-2.92 36.67-5.3 8.94 5.35 14.49 14.56 11.48 6.34-2.21 10.29-7.25 13.84-12 6.79-10.85 17.86-18.92 27-27.64 7.65-9.16 12-31.1 2-39.79-8.14-6.99-29.86-4.58-36.89 2.89zM657.7 902.35c-16.06-.14-23.77 14.13-32.84 24.59-7.51 7.33-16.2 13.83-23.33 21.43-30.57 8-68 14-97.14-.36-3.77-2.71-9-2.54-11.94 1.28-7.79 5.92-9.54 15.51-1.75 22.63 32.56 22.46 66.95 45.85 89.91 77.88 12.63 19.85 9.46 80 47.1 56.71 11.64-9.47 9.92-24.81 19.46-35.61 5.65-6.33 14.76-10.4 19.93-17 6.87-8.72 14.71-22.26 13.37-32.4s-11.2-19-3.06-27c9.24-9.09 27.08-11.12 34.46-21.21 9.22-13.44-5-23.86-17.35-27.54-30.1-12.87-13.4-42.56-36.82-43.4zM414.61 970.83a60.38 60.38 0 00-6.36 37.77c4.73 15.33 3.69 35.32-14.16 41.86-19 .62-12.12-66-14.44-80.82-.2-10.41-4-23.83 8.24-31 7.74-4.52 19.89-5.47 27.48-.54 13.24 8.59 4.5 22.64-.76 32.73zM437.82 1028.86c23.89-7.09 51.31 16 53.5 38.23.22 11.58 1.16 22.9 10.55 31.25 15.35 19 50.53 17.08 51 46.5 3 29.14-22.45 23.74-43.33 23.14-13.11.82-25.16 8.93-28.38 19.12-4.59 21.73-12.86 5-18.89 24.29-6.09 5.95-25.76 6.7-34.73 7.7-5.3-3.55-5.17-10.86-8-15.76-2.76-2.52-8.22.84-8.43 4.21s2.13 6.53 2.08 9.9c-.1 6.44-8.9 11-17 11.35-21.51 5.09-15.26-103.74-13.4-119.15 2.65-33.68 13.11-39.46 35.66-62.21 5.14-6.99 9.35-15.16 19.37-18.57zM692.44 1086.65c-17.66 8.61-36.3 21.43-45 38.6-2.73 6.67-2.72 13.79-4.34 20.67-2.49 10.55-8.84 20.7-8.43 31.39 3.09 18.69 33.56 5.64 38.7-5.31 11.58-22.72 13.59-41.87 41-53.41 60.1-18.59 17.5-49.46-21.93-31.94zM762.41 1117c-40.2 14.4-28.26 29.35-47.43 43.67-7.86 2.85-19.55 5.69-21.43 14.68-2.74 13.86 16.1 17.25 26 11.61 5.89-2.62 10.73-6.5 16.22-9.64 18.17-10.41 43.08-12.65 58.25-25.76 5.41-6 12.71-9.56 19.38-13.86 5.25-4 8.3-9.72 8.19-15.43-.47-23.19-44.59-10.27-59.18-5.27zM801.53 1174.41c-14-7.4-12.14 12.84-25.7 15.81-8.76 4.66-39.66 13.1-24.36 26 12.45 2.55 25.86.78 38.59 1.64 10 .83 12.12-12.45 12.21-19.76.06-5.1 3.88-20.1-.74-23.69zM385 683.12c18.4-9.43 30.88 10.61 44.36 19.79 17.71 11.63 6 27.07-6.39 37.14-15 13.74-19.23 33-22.57 51.8a11.36 11.36 0 01-19.81 3.64c-9.14-11-8.51-28.49-19.18-38.08-4.85-2.82-11.13-.78-16.76-1.51-27.87-1-13.15-59.69 4.69-63.71 5.52-1.7 11.4-.8 17-1.83 6.76-1.23 12.46-4.69 18.66-7.24z" fill="#636363"/><path d="M658.52 575.69c4 .33 28.74-3.42 31.45-6.29s7.69-5.21 10.43-2.39c1 1 1.55 2.72 3 3.11 2.92.77 4.28-4.4 7.31-4.43 5.44 1.62 9.21 7.4 11.5 12.25-8.82 5.22-10.28-8.79-16.06 2.56-4.73 3-11.26-5.72-16.54-1.43s-1 7.81 2.85 10.58c3.7 6.05-4.58 10.33-9.81 10.85 3.54 5.81 1.71 17.42-6.89 14-4-5.3-10.43-3.93-15.9-.48 1-3.23-4.45-15-8-15.31s-9.69-16.8-12.89-15.4c-26.76 11.71-59.79 20.8-89.08 18.56 4.05 10 16.64 37.12 27.6 39.62 5.32 1.22 11.64.24 15.63 3.8 6.41 10.14 14.29-.08 23.43-.46 4.48.22 7.84 3.9 12 5.45 14.49 3.64 26.76-10.09 44.11-3.45 5.74 1.65 12.34 1.68 17.63 4.37 2.45 7.58 11 8.1 18.14 4.37 5.53-2.84 11.5-6.9 17.47-5.1 7.21 3.74 12 2.41 11.11-6.65-1.37-5.39 5.19-32.85 12.54-30 9.61 6.1 7-14.94 3.13-18.74-8.63-8.67 5-12.62 1.76-19.09-1.93-2.56-6.48-1.42-9-3.45-5.07-5.44 3.24-10.85 8.54-11.37-2.44.6-14-7.24-16.83-8.45a154 154 0 00-19.8-6.88c-4.1-1.11-37-18.19-41.19-16.45s-15.35 39.72-17.64 46.3zM494.58 591.18c.73 13-6.7 4.65-11.26 9.16-1.2 2 .06 4.83-.12 7.31-.42 5.79-7.59 6.69-10.45 11.39-3.61 10.79-1.2 23.38-2.29 34.73 6.45 5.57 15.53.64 23.32 2.61 11.11 4.79 11.39.71 18.5-6.6 12.63-5.32 20.94 5 22.66-15.28 1.79-7.31 8.17-12.21 9.46-19.68 1.49-8.62-4.62-16.93-11.51-20.47s-14.6-3.82-21.88-6c-6.46-1.89-10.81-8.09-16.68-10.14-.7 3.96.02 8.79.25 12.97z" fill="#262521"/><path d="M536.11 669.66c-5.53-12.85-23.93 2.3-33.89-.1-7-.83-14.33-5.62-20.34-2.13-4.26 2.48-6.1 8.54-11 9.24-10.16-2.36-22.8-.31-26.9 10.45 2.91-9.71-10-20.65-3.88-28.89 2.63-3.52 8.18-5.07 9.12-9.3-2.28-11.28 13.45-13 11.62-21.41a58.44 58.44 0 00-26.75 2.19c20.73-37.4 90.22-42.15 35.79-90.29-4.67-3.73-27.7 11.81-32.53 13.81-15.59 7.17-31.77 14.45-45.28 25.06-20.44 19.56-49.42 81-51 109.16.06 10.41 7 24.58 19.13 21.13 6.18-6 12.08-12.23 18.16-18.3a89.81 89.81 0 015.77 8c6.8 0 8.88 10.92 5.12 15.42-.06 5-2.85 9.33-6.15 13 2.08 9.17-9.47 9.42-12.8 15.72-1.19 2.9-3 8.51-7.09 6.51 0-.18-.07-.36-.11-.54l-.47.51c.39-4.62-2.59-8.5-6.79-10.79-6 .41-12.35 3.58-18.14.86-16.4 12.26-19.19 39.08-11.08 56.78 9.57 2.13 28.48-20 33.93-27.49 6.33 10.86 3.22 22.46-.25 33.36 6 8.21 16.93 12.45 26.49 15.67 1.39 28.5 18.12 11.56 29.69 28.49 1.31 2.67 8.29-1.94 8.47 1-1.91-37 20.13-53-1-89.85 3.1-5.09 11.36-.2 17.37-1.48 9.13-2 8.84-16.81 17.73-19.59 7-1.57 15.47 1.15 15.84-7.35 6.26-6.24 12.2 2.79 14.07-11.83 3.36-8.36 25.5-1.63 23.62-13.82a17.56 17.56 0 0015.42-5.17c-12-18.91 6.46-16.36 8.11-28.03zM398 649.54c.21-2.81 3.86-4.09 5.33-6.54 2.69-4.5-2.72-11.24 1.07-15 1.77-1.78 12.16 2.44 13.11 5.09 1.57 4.42-3.42 13.88-4.66 18.1-1.45 10-13.54 5.81-14.85-1.65zm33.16 73.18c-19.57 12.28-12.49 20-24.48 29.89-15.59 3.39-8.85 20.12-12.46 31.56.07 5.75-8.62 10-8.72 2.09s5.28-14.79 6.8-22.49c1.42-7.15-.4-14.87 2.54-21.6 9.94-16.24 17.38-12.62 18-34.85 2.24-6.55 7.76-5.4 11-1.43 2.71 8 6.18 6.54 12.54 3 2.3 4.85-1.54 10.55-5.24 13.83z" fill="#262521"/><path d="M711.74 717.08c-8.87-30-36.86-12.74-61.65-20.21-12.46-.82-19.87 5.52-30.88 8.08-12.64 3.79-9.6-7-3-9.89-12.1-9.87-27.32 3.53-49.36-5.18-6.76-.61-13.23 2.31-19.12 5.12l-61.94 29.54c-11.77 4.78-31 17.05-19.49 30.34 4.31 4.21 17.94 6.92 14.26 15.07-14.65 3.06-38 9-38.14 26.42.41 6.29 5.43 11.78 6.59 18-.12 19.35-11.29 30.67 3.59 50.61 3.38 4.54 7.93 9 8.05 14.29-14.77 3.53-26-4.91-29.89-17.33-8.05-9.81-26.58-8.55-38.82-11.14-8.64 28.29-8.59 57.62-8.49 86.61 0 2.38.17 5.05 2.38 6.61 9.17 3 13.51 2.48 16.13 13.26 2.17 7.86 10.36 11.24 17.39 6.09 10.53-6.08 23.66-5.59 35.56-6.46 18.58-5.8-1.11-31.58 16.43-38.17 5.73-2 14.62-.81 16.25-5.59-.91-8.5 1.39-12.44 11.55-13.89 18.17 1.16 35.79 7.64 54.46 4.63 11.5.19 16.95-7 24-14.34 17.31-7.75 25.82-6.12 34.19-26.35 12.75-25.34 11.45-31.58 5.81-57 .41-5.38 5.5-11.22 12.24-10.9 2.5.13 5.1 1.06 7.39.21 6.48-5.41 8.36-3.19 15.93-1 22.68-2.12 5.11-27.56 42.86-20.44 7.29.35 16.76-4.14 14.07-9.52-1.74-3.46-7.45-4.39-10.33-7.33-6.8-6.91 6.4-16.56 4.71-25.29 8.73.75 10.65-8.57 7.27-14.85zM583.9 793.81c-3.2 4.27-8.17 7.53-11.79 11.58-3.6 5.14-9.1 9.3-15.88 7.62-7.67-2.25-36.1.77-34.71-9.68-.59-4-3.67-7.51-5.38-11.34-6.23-17.28 16.17-8.31 16.33-18 9.33 2.54 20.85-3.43 21.8-11.3-.93-8.5 4.78-13.39 12.41-8.36 6.1 4.89 1.83 13.12 5.74 19 7.17 6.45 20.2 7.15 11.48 20.48z" fill="#262521"/><path d="M659.39 825.13c-4.46 4.61-17.55.66-15.18 11.68 4.21 13.07-11.68 22.47-6.41 35.34 6 11.92 13.88-7.36 21.22-8.82 10.55-1.81 15.56-11.33 15.65-20.82.56-6.14 5.43-19.93-.94-24.66-1.93-1.43-10.17-3.19-12.29-1.9-3.44 2.12.37 6.58-2.05 9.18zM727.26 792.7c-5.82 4.22-15.72 4.41-19.74 9.79s.41 12.38-2.51 18.11c-2.31 4.76-12.17 9.39-8.13 15.56l-5.82.55c-5.84 6.22.72 13.44 4.93 18.51 18.14 24 3.45 34.19 9.73 48.52 6 8.57 16.72 42.21 26.54 41.27 9.49-2 5.5 13.14 4.26 18.46 21.52.34-2.7 35.84 16.91 30.1 8.59-4.94 17.21-1.15 15.24 9.24-1 4.8-2.83 10.43 1.29 13.94 7.79 3.74 4.77 7.3 9.42 11.21 14.44 3.58 17.74-13.52 17-24.05 7.07-25.8 14.8-52.82 4.06-79-2.73-10.7-19.66-1.34-25.41-7.52-6.56-13.95-9.41-1.84-18.5-2.32-12.08-7.34 1.4-21.85 1.8-31.69 1.81-13-19.76-26.23-13.86-38.63 15.38-1.26 5.53-10.37 12.78-17 5.89-3.84 17.14 2.49 21.28-2.59 4.37-5.35-.83-18.47-3.14-23.9-4.42-10.46-18.1-18.2-28.25-22.56-11.09-2.26-13.72 9.53-19.88 14zM687.23 937.93c-39.42-5.61-4-16.61-44.16-38.91-7.22-.85-13.27 2.13-20.39-.51-4.67 2.43.22 10.16-14.76 6.34-4.16-1.4-9.23-3.19-12.85-1-5.63 3.47.21 10.91-2.62 16.1-5.48 5.54 1.49 8.62 4 13.85.63 15.73-25.17 8.55-35.22 9.16-4.5.4-9.08 1.94-13.42 1-4-.88-6.71-3.61-9.88-5.68-7.92-5.16-21.31-7.14-29.58-1.39-14.53 12.61 10.36 57.38 18.14 72.18 3.64 7.09 10.57-4.44 13.58 6.31a129.69 129.69 0 014.56 37.89c-.06 2 .26 4.51 2.62 5.14 4.12.27 9.1-3.24 11.58 2.17 3.15 4.77 6.23 10.83 2.24 15.29-5.49 4.21.68 7 6.23 5.55a17 17 0 005.54 11.79c4.73-1.83 4.53-7.24 7.42-10.73 7.43-8.1 21.9-2.77 31.52-5.77 8.87-2.79 16.48-12.46 26.46-9.06 1.09-9.81-1.39-20.76 2-30 2.12-2.4 6.37-2.54 9.83-3.5 18.91-6.26 13.71-29.26 16.48-44.62-.36-9.12 6.19-14.64 14.09-18.55 13.74-6.18 25.71-25.89 6.59-33.05zm-47 70.07c-5 10.12-7.17-5.61-16.7 2.73-2.28 1.88-4.6 4.24-7.84 4.35-8.17-2.23-17.38-6.35-25.36-.79a15.32 15.32 0 01-11.41 3.35c-7.39-1.55.55-13.09 7-13.37 4.26-.57 9-.62 10.62-5 3.39-5.1 10.08-17.26 17.13-10.24 5.05 3.56 14.46 1.58 16.83-3.53 1.76-10.39 12.38-10.68 14-1.47.78 7.75-1.5 16.47-4.23 23.97zM402.19 976.27c8.28.45 26.94-6.79 26.7 6.52 4 3.18 11.65.68 14 7.83 2 5.18-3.41 8.84-7.26 11.42-2.77 3.14.82 7.71-1.34 11.13-4.35 5.91-15 1.42-20.87 4.58-5 2.58-4.92 8.54-8.83 12.12-5 4.84-18 4-20 11.7-.51 3 1.69 6.93-1.5 8.67-4.36 2-8.08-2.43-8-6.52-1-11.75-7.13-67.09 4.2-71.25 7.8-3.72 15.43 3.09 22.9 3.8zM528.21 1082.54c-15.23-21.57 7.11-26.51.92-43.35-3-4.94-10.87-7.53-12.85-12.85-2.19-5.9 3.78-11.48 2.52-17.48-3.22-14.24-28.78-26.42-33.5-4-23.94-1.61-40.95 12.88-46.92 31.64-4.24 4.65-12.8 4.28-19.81 5.56-39.24 9.52-40.36 56.1-34.45 88.11.39 11.61 6.42 21.4 14.64 29.38 6.36 8.14-5.56 15.9-12.12 9.83a47.63 47.63 0 00.38 24.21c8.68 3.52 11.89-8.4 19.11-10.35 10.64-.46 22.75 4.12 32.65-1.34 7.19-3.49 11.18-11.72 6.41-17.12 6.71-6.14 16.09 3.47 23.73 2.23 4.85-.75 10.39-4.85 13.62-2 1.66 1.5 1.23 4.17 3.33 5.26s5-.39 6.91-1.83c9.46-7 19.8-16 17.34-26-9.95-23.77 12.12-7.37 15.2-21.68.51-3-.32-6-.45-9-.41-9.84 6.62-19.76 3.34-29.22zm-21.92-24.19c-9.93 36.22-6.23 25.42-38.74 29.14-7.17 2.79-4.88 13.12-12.19 15.66-20.47 2.17-9-21.85-1.72-30.48 9.57-13.61 12.58 7.22 20.76-3.69 1.8-3.09.15-7.39 3.16-9.81 5-1.35 10.33-2.73 14.55-6 7.89-4.62 16.12-3.72 14.18 5.18z" fill="#262521"/><path d="M496.09 1209c-6.75-7-8.24-16.31-8.76-25.18-10-7.6-29.65 1.12-25.77 14.5 1.25 4.51 4.93 9.39 1.82 13.36-2.42 3.09-7.63 3.67-12.13 4.11a172.8 172.8 0 00-60.07 17c12.9 18.88-6.79 31 15.84 68 81.94.73 171.64-8.42 252.39-15.75 44.79-3.09 97 5.16 141.36-.91 1.66-.22 3.49-.55 4.48-1.64.83-.92 15.85-10.31 15.82-11.44-.43-15.82-14.79-41.51-15.22-57.34-18.82.76-51.7-.89-54.27-23.51 7.09-4.93 21.35 3.13 26.17-3.29 2.28-6 5.1-5.61 10.82-4.37 13.7-.83 8.91-18.75 9.29-27.92 1.14-11.83-9.12-19-21.19-17.54-12.47.93-18.1 10.38-26.24 17.61-7.09 4.64-18.11 3.53-25.17 8.2-6.29 5-14.53 15.16-21.59 6.4-12-18.36 47.83-38.49 61.51-41.71 4.35-.89 8.88-1.5 12.76-3.32 12.18-5.71 12.09-19.47 10.43-30.53-.11-2.82-2.12-4.67-5-5.11-21-5.8-39.37 4.3-53.94 17.59-9.85 5.82-23.62 5.4-34 10.59-10.71 5.36-16.39 16-27.78 20.32-12.93 5.77-22.36-6.58-9.6-16 10.5-5.49 21.58-9.42 29.81-18.31 7.77-5.32 19.83-6 26.09-12.47 11.49-13.82-5.9-27.16-17.8-33.63-12.58-10.43-32-5.9-40.26 7-5.55 7.65-8.28 16.47-14.58 23.76-7.5 8.68-20.13 15.43-22 25.81-1.66 9.37 6.38 18.52 4.18 27.83-4.84 15.12-36.32 29-51.77 33.92-24.82 3.71-37 10-43.68 33.21-5.04 12.29-23.13 9.93-31.95.76zM810 626.57c2.62 5.95-5 11.07-5.5 16.73 6.63 4.25 17.46 17.76 24.17 22.12 1.5.79 7.41-4.82 9.12-4.83 4 0-2.33-8.87-2-12.66 1-13.06-12.69-26.77-24.28-32.06-3-1.39-10.12-16.51-13.38-14-4 3 .22 22.68-.5 26.87 1-.12 12.37-2.25 12.37-2.17zM769.7 646.89c-4.57-.29-11.66-5-13.75 1.52-4.78 4-6.79-8-11.4-6.34-2.48.91-1.8 4.36-2.41 6.84-1.17 4.74-8.4 7.79-6.89 12.43.71 2.18 3.36 3.89 2.8 6.11-1.17 3-6.1 5-2.06 7.49 1.54 1.67.35 4.33-1.24 6-9.94 7.38 3.81 13.79-1 26.56 5.35.31 5.88 6.72 4.82 10.84 14.23.06 1.29-34.12 17.41-36.69 2.77-.33 5.86 1.84 5.55 4.49-.36 3.54-7 6-4.75 10 5.05 3.29 2.46 4.55 5.21 7.85 8.33 1.66 17.41-4.58 21.69-11.23 6-8.59 2.75-18.32-.27-27.09 3-8.14 3.16-24.49-9.69-22.85.38 2.18-1.72 4.02-4.02 4.07z" fill="#262521"/><path d="M837.55 719.78c-18-12.12-15.37-7.59-8.92-28.76 3.72-19-31.58-26.78-35.19-7a109.05 109.05 0 002.11 36.33 5.44 5.44 0 01-8-.52c-2.19-3.16-.07-8-2.6-10.9-8.5-6.65-13.45 7.77-18.93 11.86-4.16 2.73-10.02 2.21-13.95 5.21-4.86 6.85-14.57 4.32-17.72-3.24-1.27-3.09-2.09-7.06-5.4-8-5.09-1.3-8.26 4.58-7.25 9 .93 10.18 11.47 15.17 18.88 20.84 2.25 19.63 11.64 38.08 13.84 58 21-6.12 25.36 31.18 46.74 21 4-12.67 8-24.26 2.53-27-8.86-4.49-13-14.15-10.63-19.35 10.61 6.45 17.75-4.52 22.56-12.52 10.55-9.73 39.03-29.97 21.93-44.95zM366.43 960.57c-10.11 7.74-15 9.13-7.87 21.59 3.43 17-16.62 8.5 1.05 27.08 6.41 10.71 23.25 12 21.94-3.74-2.29-10.21 13.24-73-5.18-66-5.77 3.24-4.83 16.22-9.94 21.07z" fill="#262521"/></g><g clip-path="url(#b)"><path d="M820.2 791c-8.61.81-16 5.18-19.35 12.92-5.88 11.8-13.55 23-18.26 35.27-1.66 10 1.9 20.15 2.81 30.11.54 3.63 1.68 8 5.6 9.15 12 1.8 14.3-17.62 35.61-15.8 2.64 4.89 7.5 9.29 8.64 14.75-2.88 8.33-14.59 10.25-20.42 16.1-5.81 6-3.19 15.08-1 22.76a119.54 119.54 0 014.44 36.9c-2 13.08-22.33-9-21.75 13.58.35 40.69 32.12 19.38 55.7 26.2 7.66 4 28.35 6.89 35.94 4.26 1.23-1-16.06-92.45-15-130.5 4.36-34.52-9.44-79.12-52.96-75.7zM866.22 1017.49c-7.58-2.58-13.75 8.71-14.43 14.69 0 5.81 15.55 14.73 21.27 14.06 9.1-1.43 13.61-17.71 7.47-24.14-3.4-2.88-10.16-2.88-14.31-4.61zM820.23 1012.09c7.44 8.79-.23 17.63-6.38 24.29-5.23 7.55-4.14 17.17-7.13 25.61-1.64 6.73-16.26 24.15-4.3 26.48 11.3 2 21.57-2.91 32-6.15 27.13-6.12 19.82 35.21 37.42 45.65 10.49 3 14.71 15.31 26.62 14.79 9.93-2.8 15.21 27.43 13.87 34-17.51 12.87-41.56-8.22-60.51-.17-9.14 5-17.42 11.27-28.49 11.11-13.69 1.69-26.52-2.39-25.59-17.3-12.68-42.33-16.22-58.84-4.17-102.58.73-7.43-.76-14.93 0-22.36.71-6.9 3.36-13.64 3.28-20.57-3.85-16.89 11.27-24.78 23.38-12.8z" fill="#636363"/><path d="M857.24 799.83L844 760.16c-1.2 1.41-4 .48-5.58 1.5-4.5 5.23 4.15 18.06-5.19 20.18 1 4.31-3.09 7.13-6.64 8.75-2.7 5.79 3.32 5.35-4.77 11.53-3 4.78 2.31 10.4 4 14.94.84 2.42 3.77 2 5.51.55 7-7.44 8.51 4.91 14.71 3 9.02-10.99 11.64 3.56 11.2-20.78zM809.13 829.29c-8.54.13-5.58 17.83-5.3 23.67 4.34 15-8.24 14.41-17.76 20.55-5.4 4.56-4.6 12.22-3.39 18.73l13.86 74.85c4.12 10 8.07-7.3 7.29-11.05 4.87 4.68 8.52 12.9 5.16 18.84-4 1.26-8.73 0-13 .33a301.87 301.87 0 00-6.16 56.65c15.49-18 16.42 4.71 32.52-1.31 8.7-1.75 15.37-5.4 16.58-13.58 2.52-3.75 10.09-1.65 13.18-5.06 3-5.48 3.45-12.11 5.43-18 11.06-4 29.65 13.87 34.26-5.63-2.57-27.4-4.81-55.87-15.81-81.46-1.52-10.86-.21-22-3.41-32.72-5.17-20-20.59 2-30.39 6.37C827.64 894.35 846 896.72 856 903c-1.88 3.09-6.88 2.73-10.71 3.67-10.52 2.76-15.25 18.45-12.67 27.94 1.19 2.15 3.68 3.89 3.68 6.28 0 3.52-5.36 5.69-5.27 9.2 2.34 6.61 5.22 3.93 5.23 13.57.85 2.82 3.8 4.66 6.07 6.78 4.28 2.92 3.38 11.36-2.55 8-4.78-6.94-11.28-1-16.61-4.1-3.08-2.56.17-7.48-1.89-10.74-2.51-3.2-8.45-3.7-9.07-8.64a176.75 176.75 0 01-8.21-67.21 39.62 39.62 0 0111.21 6.54c5.29-4.22 1.08-14 7.31-17 3.87-1.91 10 .09 12.36-3.19 1.93-2.63-.39-6.79 2.17-9 3-2.55 6.73.54 9.95.54 5.92 0 3.82-.52 6.2-4.76 3.59-6.4 12.19-10.56 10.35-18.91-4.42-20.19-38.88-13.37-54.42-12.68zM867.54 1026.22c1.58 11.21 9 10.78 7.36 25.66 2 5.88 7.83 10.11 6.66 16.81 5.87 9.47 7.11-14 13.68 15.23 14.83 1.88 6.62-48.4.84-56.21-4.5-9.29-27.66-16.94-28.54-1.49zM801.29 1076.11c2.28-2.18 2.44-5.82 5.21-7.52 7.16-2.4 15.2-.19 11.12-11.24 0-1.69 1.73-2.91 3-4.19 2.64-2.42 4.59-9.11-.69-9.11-12.27-4-7.74-6.26-20.68-1.65-2.28-.58-4.92-.61-5.1 2.32-1.72 8.69-4.79 18-5.31 26.75-.38 6.06 6.48 10.36 12.45 4.64zM892 1134.91a204.6 204.6 0 00-8.23-27.85c9.34 1 4.54-17.44 4.12-23l-6.12-.65c-9.63-7-8.19-26.24-17.62-25.07-3.89 2-7.43 1.58-11.17-.71-20.28-6.41-30.18 18.7-44 27.68-5.41 2.68-11.68 1.72-15.92 6.56-7 11.41-1.36 29.19-2 42.29.23 10.1 5.84 43.89 19.31 42.35 5.8-1.6 10.85-5.78 16.92-5.55 11.17 2.28 19.74 7.92 25.31-6.11 3 1.12 6.64 2.2 9.33.59 3.92-2.35 18.72-20.08 23.55-21.37a9.69 9.69 0 01-2.59-6.75zm-23-36.49c-1.62 6-8.63 3.41-13 5.44-3.07 1.65-3.67 5.64-6.75 7.28-6.22 3.11-12.84-4.75-19.16-2.55-1.3 2.45-2.59 4.91-3.89 7.37-1.63 1.71-9.79.39-10.95-2.72-1-3.23 4.11-4.18 5.45-6.34 1.72-2.67-1.09-6.12 0-9 2.28-4.32 8-2.68 9.74 1.34 3.84 3 9-6.41 12.75-6.5 5.48 1.41 10.57 1.06 15.48-2.11 6.44-3.58 13.98.1 10.27 7.79zM891.52 1183.49c-4.14 4.18-1.87 9.27-2.54 13.88-5.42 3.24-15.64 3.89-19.74-.52-1.85-2.09-2.33-5.1-4.75-6.68-4.56-3-10.56 1.61-16.21 2.13-5.31.48-10.09-2.78-15.35-3.61-7.91-1.25-17.6 2.7-23.29-2.31-2.32 11.59 1.05 23.42 4.4 34.82l8.79 30c.61 3.49 3.33 5.56 6.79 6.22 11.32 6.88 95.22.79 95-14.3 3.37-18.23 4.09-37.87.17-56.1-2.79-13.49-24.65-14.15-33.27-3.53z" fill="#262521"/><path d="M398.35 1016.06c1.9-17.32-18.67-23.3-19.05-8.36 1.11 19.8-12.07 26.1-27.53 34.6-14 9.5-25.65 29.07-15.68 44.27 6.64 6.33 11 15.43 12.66 24.32 2.82 10.6-10.5 35.88 5.63 37.71 10.22 1 18.56-7 24.89-14.18 9.57-11.55 21.13-22.21 28.8-35.07 14.36-26.57.74-55.87-3.65-83.13-.58-3.71-2.5-8.57-6.77-8.1M322 1150.93c19.16.61 21.2 11.81 15.8 28.25-2 12.72-14.28 17.48-26.24 18.38-16.54 2.74-7-34-6.74-43.62.45-4 .86-8.81 6.23-10 6.75-1.47 7.41 4.43 10.95 6.99zM352 807.63c19.26-1 3.3 24.33 43.45 30 4.39 1.09 6.21 34 5.13 38.69-6.37 11.86-15.13.89-15.33-8.3-.79-3.17-3.94-6.81-7.14-5.31-9.23 9.61 6.38 25.45-2.48 36C357 912 376.93 944.16 342 941.63c-44.82-3-28.66-60.19-28.22-90.2-3.27-19.61 20.03-39.88 38.22-43.8z" fill="#636363"/><path d="M388.76 1126.05c-3 12-10.18 24.63-8.64 37 7.48 10.25-15.84 10-21.61 9.3-10.2 35-24.5 14.26-36.16 26.93-6.59 5.92-17 10-26.2 10.88-7-3.37-14.19-2-20.8 2.22-4.64 2-7.81 5.73-6.94 10.86l2.42 60c13.79 19.75 99.23 10.77 124.94 7.79 4.27-56.41 27.85-116.18 9.3-171.26-5.88-10.43-13.63-1.5-16.31 6.28zM302.12 1041.6a27.76 27.76 0 018.46 20.26c4-1.18 8.28 1.88 7.76 5.55-.23 1.55-1.14 3.14-.77 4.61 9.57 10.57 7.53 20.3-1.07 31.47 2 11.23 7.15 47.2-11.48 47.2-14.72-7.1-5.81-63-1.76-78.29" fill="#262521"/><path d="M402.08 1022.33c-1.69-14.43-20.84-6.3-22.53-20.31-.28-1.29-.55-10.66-3.2-10.66-3.47 0-3.84 5.69-7.3 5.93-4.65-1.38-8.54-2.45-9.75 3.71 2.33 9.6 1 18.62-11.16 20.42-7.65.67-14.12-4.23-20.58-7.75-20.34-9.91-24.36 2-26.41 19.62-6.61 21.3 13.37 27.63 9.69 42.35l7 .83c-.19 9.12-1.41 18.4-1.06 27.45.93 1.82 4.08 1.1 6.23 1.77 9 5-6.2 14.88 2.78 21.39 2.33 2.66 5.42 5.61 9.26 5.12 5.07-.66 6.6-6.45 10.39-9.5 6.58-5.29 17.91-1.08 25.48-5.22s7.87-14.93 15.66-19c33.13-6.92 21.65-52.83 15.5-76.15zm-18.81 47.56c-5.14 6.53-8.92 2.48-13.54-1.61-8.29-1.63-17.14 7.85-30.14 4.92 2-3.32 7.62-3.34 10.63-6s2.94-8 6.91-9.67c4.62-2 10.12 2.73 14.92 1.08 2.46-.85 3.83-3.09 5.57-4.84 7.19-7.21 6.14 4.16 6.62 7.7.39 2.81.57 5.86-.97 8.42zM372.62 905.24c-1.31-4.19 2-8.44 2.49-12.8.6-5.51-3.37-10.6-3.63-16.12-.31-6.7 4.87-13.05 4.24-19.73-2.57-10.08-12.33-23.74-24-22.51-8.15 1.44-11.12 9.81-18 13.11-24.46 5.17-22.37 7.55-24.22 31.25-3.31 34-8.91 68.28-7.58 102.48.16 3.6.54 7.49 3.24 10.18 4.45 4.42 12.46 3.41 19.25 3.23 8.33-.22 16.66 1.37 24.94.46 26-4.76 14.24-16.26 22-23.9 3.22-1.28 6.6-2.79 5.59-6.88l-2.46-27.61c-1.48-7.94 1.77-11.4 6.52-16.81 2.21-5.33-6.69-8.93-8.38-14.35zm-19.2 20.47c-6 1.47-14.22 2.66-20.18.79-4.12-4.26-1.61-11.54-2.52-17-1.34-8.66 7.45-11 15.2-10.82-.26-6 2.85-14.08 10.25-12.84 1.15 6.76-4.13 14.58-.26 21.08 6.32 5.2 6.02 15.23-2.49 18.79zM333.86 822c-2.56 1.88-4.59 4-4 7.24-.24 5.91-6 10.43-12.11 10.57a3.56 3.56 0 01-3.89-2.29c-4-9 4.73-18.86 13-23.81 9.8-5.86 16.14.13 7 8.29z" fill="#262521"/></g><path d="M413.66 1052.08c-4.13 18.21-9 39.79-13.91 55.27-9.82 31-13.08 105-15.36 135.21-.95 12.67 4.66 27 4.66 27l-61 1.5c-16.33-18.73-8.93-129.51-14.45-197.93A619.73 619.73 0 01317.24 945s-18.06-297.33 26.67-324.28 146.47-88.52 146.47-88.52-.25-.24.72 2.61c4.12 12.15 24.35 46.49 84.21 46.88 71.76.46 80.35-51.49 80.35-51.49s134.91 49.1 145.79 56.21c38.3 25 52.88 331.94 52.88 331.94s19 68.76 22.89 124.63c5.57 81.26 18.66 177.57 17.84 189.79s-5.3 18.88-5.3 18.88h-58.1s-1.25-8-2.88-34.36c-1.9-30.61-17.16-87.16-32.82-134.18" fill="none" stroke="#262521" stroke-linecap="round" stroke-linejoin="round" stroke-width="3"/><path fill="none" stroke="#636363" stroke-linecap="round" stroke-linejoin="round" stroke-width="2" d="M661.09 540.28l11.41 4.08M574.07 588.19v12.76M591.03 586.89l.66 12.74M606.04 584.33l2.06 12.15M619.65 579.12l4.41 11.54M632.31 572.44l6.7 9.87M642.99 563.31l10.15 7.71M654.6 553.01l10.57 4.59M489.81 542.28l-12.06 7.15M557.11 586.89l-.67 12.97M542.6 584.83l-2.03 11.97M529.05 579.8l-4.37 11.46M516.45 573.78l-6.48 9.54M505.21 565.49l-8.64 7.39M495.91 554.23l-10.32 6.75"/><path d="M410.64 807.59s5.34 199.1 3.82 238.13c-.83 21.49-27.59 151.13-15.28 178.31 0 13-1.32 43-1.32 43s73.26 22.15 150.26 21.22c137.52-1.66 260.36-26.64 260.36-26.64s-3.68-30-4.46-43.63c14.5-25-19.76-173.14-21.56-243.1-1.22-47.58-16.1-167.27-16.1-167.27" fill="none" stroke="#262521" stroke-linecap="round" stroke-linejoin="round" stroke-width="3"/><path d="M397.86 1267s73.26 22.15 150.26 21.22c137.52-1.66 260.36-26.64 260.36-26.64" fill="none" stroke="#636363" stroke-linecap="round" stroke-linejoin="round"/></svg>