<svg xmlns="http://www.w3.org/2000/svg" width="1250" height="1550" viewBox="0 0 1250 1550"><title>s06e03-03</title><path d="M415.88,1141.75s57.46,39.71,199.37,35.21,181.39-40.68,181.39-40.68l26.93,456.07-158.71-1.85L636,1393.89l-25.52,8.67-8.83,196.25-153.94-.22S382.74,1251.57,415.88,1141.75Z" fill="#262521" stroke="#262521" stroke-linecap="round" stroke-linejoin="round" stroke-width="3"/><path d="M414,1151.69s-4.35,28.91-6.1,41.59c0,0,91.11,36.26,182.09,34.57s209.43-34.57,209.43-34.57l-3-51.53Z" fill="#593a26" stroke="#262521" stroke-miterlimit="10" stroke-width="3"/><polyline points="581.03 1227.91 623.39 1226.03 621.47 1193.28" fill="none" stroke="#b2b2b2" stroke-linecap="round" stroke-miterlimit="10" stroke-width="3"/><rect x="692.1" y="1179.02" width="15.27" height="54.21" transform="translate(-117.35 76.2) rotate(-5.75)" stroke-width="3" stroke="#262521" stroke-linecap="round" stroke-linejoin="round" fill="#262521"/><rect x="469.91" y="1173.07" width="15.27" height="54.21" transform="translate(280.63 -76.42) rotate(12.93)" stroke-width="3" stroke="#262521" stroke-linecap="round" stroke-linejoin="round" fill="#262521"/><line x1="606.15" y1="1210.59" x2="625.21" y2="1208.82" fill="none" stroke="#b2b2b2" stroke-linecap="round" stroke-miterlimit="10" stroke-width="3"/><polygon points="547.6 552.93 578.07 639.25 611.34 547.18 547.6 552.93" fill="#fff"/><path d="M879.72,1045c-3.84-55.87-22.89-124.63-22.89-124.63s-14.58-307-52.88-331.94l-.28-.17h.15l-.83-.38c-13.13-7.25-97.58-39.26-127.72-50.59l-6.09-2.36c-8.71-13.69-27-20.8-27-20.8s-16.68,40.28-48.78,54.78l-15.32,45.59L559.33,569.6c-32.2-14.07-51.15-50.6-51.15-50.6s-14.95,5.4-24.85,19.12c-8.14,5.09-21.17,13.44-41.41,26-29.82,18.43-66.45,41-90.58,55.6-2.38,1.37-4.12,2.34-5.06,2.79l.49,0-.36.21C301.68,649.69,319.74,947,319.74,947a619.73,619.73,0,0,0-3.6,128.12c1.53,19,5.61,179.54,7.1,202.21,1.18,17.87,68.56,13.31,68.48-7.69-.06-14,7.72-151.46,10.53-160.31,9.83-31,21.45-88.33,21.45-88.33l359.51,21.07c9.85,24.93,48.27,219.45,48.27,219.45,15.13,9.81,63.71-8.53,63.71-8.53C892.36,1225.44,881.64,1073.05,879.72,1045Z" fill="#bfd9ef" stroke="#262521" stroke-linecap="round" stroke-linejoin="round" stroke-width="3"/><path d="M413.14,809.59s10.23,227,4.53,261.75-9.95,71.13-2.24,83.29,82.2,47.68,167.32,42.59,172.45-18.67,199.24-33,16.89-64.7-7.43-173c-11.86-52.84-5.7-181.65-5.7-181.65" fill="#bfd9ef" stroke="#262521" stroke-linecap="round" stroke-linejoin="round" stroke-width="3"/><line x1="578.16" y1="619.4" x2="589.1" y2="1187.81" fill="none" stroke="#636363" stroke-linecap="round" stroke-linejoin="round"/><path d="M555.83,574.1l-37.05,35.47S484.16,557,485.22,542.68" fill="none" stroke="#636363" stroke-linecap="round" stroke-linejoin="round"/><path d="M597.19,571.94l35.35,34.53S672.77,565.39,670,541" fill="none" stroke="#636363" stroke-linecap="round" stroke-linejoin="round"/><circle cx="590.24" cy="620.25" r="5.3" fill="#fffbf8" stroke="#636363" stroke-miterlimit="10"/><circle cx="591.72" cy="704.69" r="5.3" fill="#fffbf8" stroke="#636363" stroke-miterlimit="10"/><circle cx="593.62" cy="785.58" r="5.3" fill="#fffbf8" stroke="#636363" stroke-miterlimit="10"/><circle cx="595.55" cy="870.91" r="5.3" fill="#fffbf8" stroke="#636363" stroke-miterlimit="10"/><circle cx="597.33" cy="950.95" r="5.3" fill="#fffbf8" stroke="#636363" stroke-miterlimit="10"/><circle cx="598.83" cy="1040.46" r="5.3" fill="#fffbf8" stroke="#636363" stroke-miterlimit="10"/><circle cx="601.13" cy="1136.28" r="5.3" fill="#fffbf8" stroke="#636363" stroke-miterlimit="10"/><rect x="647.11" y="698.8" width="90.93" height="61.27" rx="7" fill="#fff"/><path d="M738,717.49v-10a8.76,8.76,0,0,0-8.74-8.74H655.85a8.76,8.76,0,0,0-8.74,8.74v10Z" fill="#ce4545"/><path d="M647.12,751.59a8.76,8.76,0,0,0,8.73,8.48h73.44a8.76,8.76,0,0,0,8.73-8.48Z" fill="#ce4545"/><rect x="647.11" y="698.8" width="90.93" height="61.27" rx="7" fill="none" stroke="#262521" stroke-linecap="round" stroke-linejoin="round"/><path d="M675.56,709.5v-7.11h1.57v2.71h2.94v-2.71h1.57v7.11h-1.57v-3.18h-2.94v3.18Z" fill="#fff"/><path d="M688.75,703.65h-4v1.51h3.67v1.23h-3.67v1.83h4.18v1.28H683.2v-7.11h5.55Z" fill="#fff"/><path d="M690.16,702.39h1.58v5.83h3.78v1.28h-5.36Z" fill="#fff"/><path d="M696.58,702.39h1.58v5.83h3.78v1.28h-5.36Z" fill="#fff"/><path d="M708.82,708.87a4.11,4.11,0,0,1-5,0,3.71,3.71,0,0,1-1.15-2.94,3.62,3.62,0,0,1,1.15-2.93,4.11,4.11,0,0,1,5,0,3.62,3.62,0,0,1,1.15,2.93A3.71,3.71,0,0,1,708.82,708.87Zm-1-1.08a3.4,3.4,0,0,0,0-3.71,2,2,0,0,0-3,0,2.78,2.78,0,0,0-.56,1.85,2.81,2.81,0,0,0,.56,1.86,2,2,0,0,0,3,0Z" fill="#fff"/><path d="M684.5,712.21h.81v2.55h-.52v-2.14l-.52,2.14h-.55l-.51-2.14a1.56,1.56,0,0,0,0,.2v1.94h-.53v-2.55h.82l.5,2Z" fill="#fff"/><path d="M685.88,715.12h.21l.12,0a.22.22,0,0,0,.08-.13.36.36,0,0,0,0-.11l-.74-2h.58l.44,1.39.41-1.39h.56l-.69,1.86a2.54,2.54,0,0,1-.31.66.61.61,0,0,1-.47.13h-.23Z" fill="#fff"/><path d="M690.56,713a.6.6,0,0,1,.19.51v1.27h-.53v-1.15a.46.46,0,0,0-.05-.23.3.3,0,0,0-.29-.14.36.36,0,0,0-.36.21.6.6,0,0,0,0,.29v1h-.53v-1.89h.51v.28a.81.81,0,0,1,.19-.21.73.73,0,0,1,.41-.11A.83.83,0,0,1,690.56,713Z" fill="#fff"/><path d="M692,713.61l.21,0a.16.16,0,0,0,.11-.14.16.16,0,0,0-.09-.16.55.55,0,0,0-.25,0,.34.34,0,0,0-.27.09.29.29,0,0,0-.07.17h-.51a.65.65,0,0,1,.15-.4.88.88,0,0,1,.71-.25,1.38,1.38,0,0,1,.59.12.47.47,0,0,1,.26.46v1.09a.86.86,0,0,0,0,.13l.08,0v.08h-.57a.26.26,0,0,1,0-.11s0-.07,0-.11a.94.94,0,0,1-.25.18.7.7,0,0,1-.38.1.69.69,0,0,1-.46-.15.51.51,0,0,1-.18-.41.54.54,0,0,1,.29-.51,1.75,1.75,0,0,1,.47-.12Zm.32.23-.11,0-.14,0-.12,0a.77.77,0,0,0-.24.07.21.21,0,0,0-.12.21.19.19,0,0,0,.08.18.28.28,0,0,0,.18.06.55.55,0,0,0,.32-.1.41.41,0,0,0,.15-.34Z" fill="#fff"/><path d="M695.84,712.88a.53.53,0,0,1,.23.17.46.46,0,0,1,.12.24,1.8,1.8,0,0,1,0,.28v1.19h-.53v-1.2a.48.48,0,0,0,0-.18.26.26,0,0,0-.26-.13.32.32,0,0,0-.3.17.46.46,0,0,0,0,.21v1.13h-.53v-1.13a.49.49,0,0,0,0-.24.26.26,0,0,0-.26-.14.31.31,0,0,0-.3.14.47.47,0,0,0,0,.23v1.14h-.53v-1.89h.51v.28a.65.65,0,0,1,.18-.21.7.7,0,0,1,.4-.11.62.62,0,0,1,.37.1.47.47,0,0,1,.17.22.66.66,0,0,1,.26-.24.86.86,0,0,1,.36-.08A.8.8,0,0,1,695.84,712.88Z" fill="#fff"/><path d="M698,712.91a.77.77,0,0,1,.34.28.85.85,0,0,1,.16.39,1.84,1.84,0,0,1,0,.37h-1.46a.46.46,0,0,0,.21.4.52.52,0,0,0,.29.07.46.46,0,0,0,.29-.09.36.36,0,0,0,.11-.13h.53a.61.61,0,0,1-.19.35,1,1,0,0,1-.76.27,1.15,1.15,0,0,1-.7-.23.89.89,0,0,1-.31-.76,1,1,0,0,1,.28-.75,1,1,0,0,1,.71-.26A1.21,1.21,0,0,1,698,712.91Zm-.79.43a.5.5,0,0,0-.14.29h.9a.36.36,0,0,0-.14-.3.45.45,0,0,0-.31-.1A.41.41,0,0,0,697.21,713.34Z" fill="#fff"/><path d="M700.37,712.65h-.53v-.46h.53Zm-.53.22h.53v1.89h-.53Z" fill="#fff"/><path d="M701.29,714.16a.3.3,0,0,0,.07.18.47.47,0,0,0,.36.1.6.6,0,0,0,.25,0,.14.14,0,0,0,.09-.13.14.14,0,0,0-.08-.13,2.71,2.71,0,0,0-.54-.15,1.2,1.2,0,0,1-.49-.2.42.42,0,0,1-.14-.34A.57.57,0,0,1,701,713a.9.9,0,0,1,.62-.19,1.22,1.22,0,0,1,.61.14.58.58,0,0,1,.27.49H702a.26.26,0,0,0-.06-.15.35.35,0,0,0-.29-.1.41.41,0,0,0-.25,0,.13.13,0,0,0-.07.11.13.13,0,0,0,.08.13,4.1,4.1,0,0,0,.54.13,1.08,1.08,0,0,1,.47.21.45.45,0,0,1,.16.36.56.56,0,0,1-.22.45,1.09,1.09,0,0,1-.69.18,1,1,0,0,1-.7-.19.58.58,0,0,1-.23-.47Z" fill="#fff"/><path d="M670,729.26a23,23,0,0,0-3.39,5.45c-1.06,2.17-2.09,4.35-3.14,6.53-.24.52.53,1,.78.45,1-2.11,2-4.23,3-6.35a22.93,22.93,0,0,1,3.34-5.45c.38-.43-.25-1.07-.64-.63Z" fill="#262521"/><path d="M665,727.79c3.59.46,6.77,3.27,8.51,6.33,1,1.67,1.42,3.92.18,5.59a6.24,6.24,0,0,1-4.21,2,10.28,10.28,0,0,1-4.06.06,12.33,12.33,0,0,1-1.95-.72c-1.14-.52-2.88-1.32-3.35-2.59-.27-.72.26-1.28.82-1.67a13.83,13.83,0,0,1,4.83-1.72c.57-.13.33-1-.24-.87a15.06,15.06,0,0,0-5,1.78,2.66,2.66,0,0,0-1.4,2c0,1.7,2,2.88,3.33,3.54a15.13,15.13,0,0,0,2.48,1,10.53,10.53,0,0,0,4.33.07,7.85,7.85,0,0,0,4.72-1.92,5.33,5.33,0,0,0,1-5.41,13.25,13.25,0,0,0-4.09-5.64,11.32,11.32,0,0,0-5.93-2.77c-.58-.07-.57.83,0,.9Z" fill="#262521"/><path d="M678.18,741.1A31.32,31.32,0,0,1,682.5,733l-.7.1a1.47,1.47,0,0,1,.24,1.26c-.08.64-.2,1.28-.32,1.92-.22,1.29-.48,2.58-.77,3.85-.13.57.74.81.87.24.33-1.48.63-3,.88-4.48.18-1.07.64-2.56-.27-3.43a.46.46,0,0,0-.71.09,32.24,32.24,0,0,0-4.41,8.32c-.19.54.68.78.87.24Z" fill="#262521"/><path d="M679.35,738.29l2.71-.29a.47.47,0,0,0,.45-.45.45.45,0,0,0-.45-.45l-2.71.29a.45.45,0,0,0-.45.45.46.46,0,0,0,.45.45Z" fill="#262521"/><path d="M685.53,734.15l.71,6.47a.46.46,0,0,0,.84.23q2.64-3.69,5.22-7.41c.33-.48-.45-.93-.77-.46q-2.6,3.74-5.23,7.41l.84.23-.71-6.47c-.06-.57-1-.58-.9,0Z" fill="#262521"/><path d="M693.91,733.84c-1,2.12-1.88,4.25-2.74,6.41a.45.45,0,1,0,.87.24c.83-2.08,1.71-4.15,2.64-6.19.24-.53-.53-1-.77-.46Z" fill="#262521"/><path d="M696,741.1a36.28,36.28,0,0,1,2-8.85l-.75.2a7.09,7.09,0,0,1,2.29,5.49,4.05,4.05,0,0,1-1,2.74,1.88,1.88,0,0,1-2.67.12v.64a13.7,13.7,0,0,1,4.33-2.27c1.49-.58,3-1.1,4.55-1.58a69.93,69.93,0,0,1,9.37-2.17c.57-.1.33-1-.24-.87a69,69,0,0,0-10,2.38q-2.46.78-4.85,1.76a12.43,12.43,0,0,0-3.76,2.11.47.47,0,0,0,0,.64,2.66,2.66,0,0,0,3,.54,3.71,3.71,0,0,0,2-2.58,7.86,7.86,0,0,0-2.34-7.58.46.46,0,0,0-.76.2,37.1,37.1,0,0,0-2,9.08c0,.58.85.57.9,0Z" fill="#262521"/></svg>