<svg xmlns="http://www.w3.org/2000/svg" width="1000" height="1550" viewBox="0 0 1000 1550"><defs><pattern id="a" width="15.88" height="17.45" patternTransform="matrix(1.41 0 0 1.41 2.2 -62.42)" patternUnits="userSpaceOnUse" viewBox="0 0 15.88 17.45"><path fill="none" d="M0 0h15.88v17.45H0z"/><path fill="#262521" d="M0 2.63h15.88v14.82H0z"/><path fill="#fff" d="M0 0h15.88v2.63H0z"/></pattern></defs><title>s06e14-01</title><path d="M752.23 1043c-3.83-55.86-22.88-124.63-22.88-124.63s-14.59-306.94-52.89-331.94c-10.88-7.1-144.6-57.6-144.6-57.6s.48 52.44-79.87 52.44c-65.09 0-85.14-51-85.12-51-1 .64-103.44 63.71-147.94 90.52-44.73 26.94-26.68 324.27-26.68 324.27a619.79 619.79 0 0 0-3.6 128.12c5.53 68.42-1.88 179.21 14.45 197.94l61-1.5s-5.6-14.34-4.65-27c2.27-30.22 5.53-104.26 15.36-135.22s21.45-88.31 21.45-88.33c.49 23.68.3 42.23-1 50.33-3.6 21.92-31.66 102.78-17.78 133.07-3.34 29.29-2.64 92.11-2.64 92.11s106.39-7.58 183.38-8.58c137.53-1.66 227.38 8.78 227.38 8.78s-3.31-72-6.35-96.82c9.94-22.61-4.2-83.52-17.92-143 17.07 47.17 40.25 126.64 42.46 162.33 1.64 26.39 2.89 34.36 2.89 34.36h58.1s4.48-6.67 5.3-18.88-12.27-108.46-17.85-189.77z" fill="#262521"/><path fill="none" stroke="#e5322e" stroke-miterlimit="10" stroke-width="4" d="M706.23 1248.13h60.08M200.7 1267.38l61.76-1.22"/><path d="M259.8 1252.71a49.35 49.35 0 0 1-.39-10.1c2.27-30.22 5.53-104.26 15.36-135.22s21.45-88.31 21.45-88.33c.49 23.68.3 42.23-1 50.33-3.6 21.92-31.66 102.78-17.78 133.07-3.34 29.29-2.64 92.11-2.64 92.11l410.83.24s-3.31-72-6.35-96.82c9.94-22.61-4.2-83.52-17.92-143 17.07 47.17 40.25 126.64 42.46 162.33 1.64 26.39 66.29 15.48 66.29 15.48.81-12.22-12.27-108.53-17.85-189.8-3.83-55.86-22.88-124.63-22.88-124.63s-14.59-306.94-52.89-331.94c-10.88-7.1-120.2-48.35-120.2-48.35s-24.58 69.79-104.93 69.79c-65.08 0-108-63.08-108-63.16-1 .65-79.92 49.23-124.42 76-44.73 26.94-26.68 324.27-26.68 324.27a619.79 619.79 0 0 0-3.6 128.12c4.59 56.79.27 142.76 8 181.06" fill="url(#a)"/><path d="M752.23 1043c-3.83-55.86-22.88-124.63-22.88-124.63s-14.59-306.94-52.89-331.94c-10.88-7.1-144.6-57.6-144.6-57.6s.48 52.44-79.87 52.44c-65.09 0-85.14-51-85.12-51-1 .64-103.44 63.71-147.94 90.52-44.73 26.94-26.68 324.27-26.68 324.27a619.79 619.79 0 0 0-3.6 128.12c5.53 68.42-1.88 179.21 14.45 197.94l61-1.5s-5.6-14.34-4.65-27c2.27-30.22 5.53-104.26 15.36-135.22s21.45-88.31 21.45-88.33c.49 23.68.3 42.23-1 50.33-3.6 21.92-31.66 102.78-17.78 133.07-3.34 29.29-2.64 92.11-2.64 92.11l410.83.24s-3.31-72-6.35-96.82c9.94-22.61-4.2-83.52-17.92-143 17.07 47.17 40.25 126.64 42.46 162.33 1.64 26.39 2.89 34.36 2.89 34.36h58.1s4.48-6.67 5.3-18.88-12.34-108.5-17.92-189.81zM661.33 1055c-1.22-47.58-20-261.4-20-261.4M285.65 807.63s12.08 172.4 10.57 211.43" fill="none" stroke="#262521" stroke-linecap="round" stroke-linejoin="round" stroke-width="3"/></svg>