<svg xmlns="http://www.w3.org/2000/svg" width="1000" height="1550" viewBox="0 0 1000 1550"><defs><pattern id="a" width="13.63" height="8.94" patternTransform="matrix(2.31 0 0 2.31 -1.47 -.5)" patternUnits="userSpaceOnUse" viewBox="0 0 13.63 8.94"><path fill="none" d="M0 0h13.63v8.94H0z"/><path fill="#fff" d="M0 3.42h13.63v5.51H0z"/><path fill="#262521" d="M0 0h13.63v3.42H0z"/></pattern></defs><path fill="#fff" stroke="#262521" stroke-linecap="round" stroke-linejoin="round" stroke-width="3" d="M279.43 1264.5l396.53-16.39 20.11 342.24-158.71-1.86-28.9-196.6-25.52 8.67-8.83 196.25-153.94-.22-40.74-332.09z"/><path d="M364.35 531.24s.01-.04 0 0zM752.22 1043c-3.84-55.87-22.89-124.63-22.89-124.63s-14.58-307-52.88-331.94c-10.88-7.11-142.29-56.21-142.29-56.21s-2.49 55-82.84 55c-65.09 0-82.1-39.23-86.22-51.38a11.73 11.73 0 01-.75-2.59c-1 .64-100.94 62.69-145.44 89.5C174.18 647.69 192.24 945 192.24 945a619.73 619.73 0 00-3.6 128.12c5.52 68.42-1.88 179.2 14.45 197.93l61-1.5s-5.61-14.34-4.66-27c2.28-30.22 5.54-104.26 15.36-135.21S296.2 1019 296.2 1019c.49 23.68.3 42.22-1 50.32-5.7 34.75-24.42 66.84-18.25 210.71.35 8.28 71 16.39 148 15.46 137.45-1.64 262.05-20.87 262.05-20.87s-11-124-28.81-228c17.22 45.53 43.19 132.78 45.55 170.67 1.63 26.39 2.88 34.36 2.88 34.36h58.1s4.49-6.66 5.3-18.88-12.23-108.51-17.8-189.77z" fill="url(#a)"/><path d="M548.5 535.67l-14.34-5.45s-2.49 55-82.85 55c-65.08 0-82.09-39.23-86.21-51.38-1-2.85-.72-2.61-.72-2.61l-11.3 6.95s13.27 60 98 60c89.97-.05 97.42-62.51 97.42-62.51z" fill="#fff"/><path d="M364.1 533.83c4.12 12.15 21.13 51.38 86.21 51.38 80.36 0 84.73-51.88 84.73-51.88" fill="none" stroke="#262521" stroke-linecap="round" stroke-linejoin="round" stroke-width="5"/><path d="M296.2 1019s-11.62 57.37-21.45 88.33-13.08 105-15.36 135.21c-.95 12.67 4.66 27 4.66 27l-61 1.5c-16.33-18.73-8.93-129.51-14.45-197.93A619.73 619.73 0 01192.24 945s-18.06-297.33 26.67-324.28 145.47-89.52 145.47-89.52-.25-.24.72 2.61c4.12 12.15 21.13 51.38 86.21 51.38 80.36 0 82.85-55 82.85-55s131.41 49.1 142.29 56.21c38.3 25 52.88 331.94 52.88 331.94s19 68.76 22.89 124.63c5.57 81.26 18.66 177.57 17.84 189.79s-5.3 18.88-5.3 18.88h-58.1s-1.25-8-2.88-34.36c-2.47-39.8-28.48-127.5-45.55-170.67" fill="none" stroke="#262521" stroke-linecap="round" stroke-linejoin="round" stroke-width="3"/><path d="M285.64 807.59s15.23 227 9.53 261.75-24.42 66.84-18.25 210.71c.35 8.28 71 16.39 148 15.46 137.48-1.66 262.08-20.89 262.08-20.89s-15.66-177-40-285.38c-11.86-52.84-5.7-181.65-5.7-181.65" fill="none" stroke="#262521" stroke-linecap="round" stroke-linejoin="round" stroke-width="3"/><path d="M559.14 712.63s-15.73-16.12-28.4-4.55 15.89 52.78 30.34 52.07c11-.55 29.94-23 31.09-38.41s-18.44-28.57-33.03-9.11z" fill="#e5322e"/><path d="M584.31 716.3s-16.34-6.8-20 9.39c0 0 12.74 7.67 20-9.39zM556.25 727.05s-1.3-16.51-19.38-9.9c0 0-1.03 13.85 19.38 9.9z" fill="#fff"/><circle cx="547.47" cy="720.64" r="3.95" fill="#262522"/><circle cx="572.21" cy="720.64" r="3.95" fill="#262522"/></svg>