<svg xmlns="http://www.w3.org/2000/svg" width="1250" height="1550" viewBox="0 0 1250 1550"><title>s06e06-02</title><path d="M489.35,531.24l0,0S489.36,531.2,489.35,531.24Z" fill="#fff" stroke="#262521" stroke-linecap="round" stroke-linejoin="round" stroke-width="3"/><path d="M811.19,1282.58,761.56,836.74s47-246.89,39.89-250.31c-11.7-5.66-142.29-56.21-142.29-56.21s-2.49,55-82.85,55c-65.08,0-82.09-39.23-86.21-51.38a11.73,11.73,0,0,1-.75-2.59c-1.05.65-133.78,83.87-145.44,89.5-2.8,1.36,73.45,236,73.45,236l-15.74,447.77s59.06,24.58,204.46,24.58S811.19,1282.58,811.19,1282.58Z" fill="#fff" stroke="#262521" stroke-linecap="round" stroke-linejoin="round" stroke-width="3"/><path d="M767,700.66S750.84,782.12,754.31,807s6.44,21.88,8.58,42.64" fill="none" stroke="#262521" stroke-linecap="round" stroke-miterlimit="10" stroke-width="3"/><path d="M813.86,647s6.82-23.29-2.08-41.13" fill="none" stroke="#262521" stroke-linecap="round" stroke-miterlimit="10" stroke-width="3"/><path d="M513.28,711.54h5.62c6.38,0,10.24,3.52,10.24,15.15s-3.86,15.14-10.24,15.14h-5.62Zm3.27,27.53h1.76c4.79,0,7.56-2,7.56-12.38s-2.77-12.38-7.56-12.38h-1.76Z"/><path d="M533.21,711.54h7.3c4.87,0,8.31,2.85,8.31,7.85,0,3.39-1.51,6.25-4.87,7.42l5.12,15h-3.44l-4.86-14.35-4.29.17v14.18h-3.27Zm3.27,13.26h2.86c4.7,0,6.21-1.85,6.21-5.25s-1.51-5.24-6.21-5.24h-2.86Z"/><path d="M567,711.54v2.77H556.42v10.32h7.8v2.77h-7.8v11.67H567.5v2.76H553.14V711.54Z"/><path d="M581.55,719.34c-.25-3.1-1.51-5.45-4.66-5.45a3.88,3.88,0,0,0-4.15,4c0,6.84,12.17,6.93,12.17,16.66,0,4.83-2.77,7.72-7.76,7.72-4.75,0-7.6-3.48-7.68-8.56h3c.08,3.57,1.76,5.8,5,5.8,2.73,0,4.49-1.77,4.49-5,0-6.88-12.17-7.68-12.17-16.32,0-4.28,2.94-7,7.3-7s7.22,2.94,7.47,8.22Z"/><path d="M599.13,719.34c-.25-3.1-1.51-5.45-4.65-5.45a3.88,3.88,0,0,0-4.16,4c0,6.84,12.17,6.93,12.17,16.66,0,4.83-2.77,7.72-7.76,7.72-4.74,0-7.6-3.48-7.68-8.56h3c.08,3.57,1.76,5.8,5,5.8,2.73,0,4.49-1.77,4.49-5,0-6.88-12.17-7.68-12.17-16.32,0-4.28,2.94-7,7.31-7s7.21,2.94,7.47,8.22Z"/><path d="M618.94,711.54l5.29,22.91h.08l5.16-22.91h5.2v30.29h-3V714.06h-.08l-6.29,27.77h-2.15l-6.29-27.77h-.08v27.77h-3V711.54Z"/><path d="M652.59,711.54v2.77H642v10.32h7.8v2.77H642v11.67H653.1v2.76H638.75V711.54Z"/><path d="M758.42,890.9c13.8.51,28.23.84,40.93-5.44,1.73-.85.21-3.44-1.52-2.59-12.17,6-26.2,5.52-39.41,5-1.93-.08-1.93,2.92,0,3Z" fill="#262521"/><path d="M637.16,755.17V709.75h-.26l-1.7,0,0,1-2.12.06,0-1-1.65,0v.31a1.43,1.43,0,0,0-.21-.12l-.07-.18h-.52a4.68,4.68,0,0,0-1.22-.12,3.85,3.85,0,0,0-1.3.25l0-.06-1.85,0,0,1-1.66,0,0-1-1.67,0a5.15,5.15,0,0,0-1.22-.12,3.63,3.63,0,0,0-1.07.19l-2.82.07,0,1-1.72,0-.05-.09a2.59,2.59,0,0,0-2.21-.84l-4.47.12,0,1-.73,0s-.07-.12-.11-.18a2.3,2.3,0,0,0-.81-.57,3.8,3.8,0,0,0-1.21-.17h0l-4.17.11,0,.7a2.75,2.75,0,0,0-2-.64l-1.81,0a4.88,4.88,0,0,0-1.63-.22,4.31,4.31,0,0,0-2,.49v-.18l-6.84.19h0l-2.06.06,0,1.19-.46-1.19-2,.05-2.41,7.37-6.26.12-.06-2,2.68-5.36-2,.06L574,715.14l-1.86-3.63-2.07.06,3.06,5.19,0,2-3.72.07a2.09,2.09,0,0,0,0-.24V718a2.85,2.85,0,0,0-.28-1.32,1.55,1.55,0,0,0-.85-.64,1.7,1.7,0,0,0,1-.85,2.55,2.55,0,0,0,.27-1.19,2.19,2.19,0,0,0-.18-.88,2.67,2.67,0,0,0-.44-.7,1.93,1.93,0,0,0-.81-.57,3.43,3.43,0,0,0-1.33-.18l-4,.11.19,7.14-3.59.07-.16-5.62,2.53-.07,0-1.49-6.84.18,0,1.5,2.54-.07.15,5.6-33,.62v10.55l1.81,0,.05,2-1.86,0v11.2l24.5-.67.06,2-24.56.67v12.92l1.81-.05,0,.74a3.06,3.06,0,0,1-.16,1.23l-1.67,0v13.49l25.66-.69.05,2-25.71.7v14.63l9.29-.25.05,2-9.34.26v13.49l22.72-.62,0,2-22.77.62v12.35l10-.27.06,2-10.1.27v11.78l18.93-.52.05,2-19,.52v7.77l25.1-.69,0,2-25.15.68v18.07l14.15-.38.05,2-14.2.38V879l26.06-.7.05,2-26.11.71v9.48l25-.68.05,2-25.07.68v11.21l32.86-.9.6,1.95-33.46.91v14.06l33.52-.91.61,1.95-34.13.92v17.5l37.81-1L563,940l-38.42,1.05v16.35l25.5-.69.06,2-25.56.69v11.78l26-.71.05,2-26.1.71v9L637.16,979v-9h-.34l-.05-2h.39V938l-1.49,0,0-2,1.54,0v-17.5h-.35c-.09-.08-.2-.11-.27-.21a3.06,3.06,0,0,1-.61-1.67l0-.06,1.2,0V902.52l-1.35,0a4.07,4.07,0,0,1-.37-1.61c0-.13,0-.22,0-.34l1.69-.05V877.9l-1.07,0h0l-.63,0,0-1,1.72,0V860.56l-.15-.06h.15V842.42l-2.66.07,0-2h0l2.71-.07v-8.87a1,1,0,0,1-.2.14,2,2,0,0,1-.85.16l-1.56.05a5.55,5.55,0,0,1-.1-.61c0-.2,0-.35,0-.53l2.66-.07V819h0l0-.09V804.64l-1.19,0v-.41l1.2,0v-1.46l-1.24,0v-.1l1.24,0V772.59l-.73,0,0-2,.78,0V757.14h-.6l.39-2Zm-108.9-23.12-.06-2,3.11-.09a6.57,6.57,0,0,0,0,1,6.92,6.92,0,0,0,.1,1Zm9.24-.25-4.34.11A4.42,4.42,0,0,1,533,731a5.2,5.2,0,0,1,.09-1l4.33-.11a4.21,4.21,0,0,1,.15,1A4.75,4.75,0,0,1,537.5,731.8Zm1.81,0c0-.31.05-.62.05-1a6.12,6.12,0,0,0-.11-1l6.52-.18.05,2Zm8.28-.23-.05-2,1.55,0,.06,2ZM528.16,760.1a6.51,6.51,0,0,0,.08-1.22l0-.75,1.66,0,.06,2Zm3.42-.1-.05-2,1.14,0,1.18,1.93Zm2.68-2,.82,0,0,1.44Zm2.52,1.89,0-2,6.74-.18.06,2Zm8.52-.23,0-2,3-.08a5.27,5.27,0,0,0,.45,1.95ZM535.68,792v-.56l1.72,0a1.45,1.45,0,0,1,1,.24.88.88,0,0,1,.16.29Zm4.73-.13a2,2,0,0,0-.2-.61,1.65,1.65,0,0,0-.85-.65,1.7,1.7,0,0,0,.87-.7l2.11-.06,0,1.46c0,.19,0,.33,0,.5Zm6.93-.19-3.12.08a3.52,3.52,0,0,1-.05-.5l0-1.46,3.19-.08,0,1.45C547.36,791.32,547.35,791.47,547.34,791.63Zm-10.9,29.08,0-1,3.28-.09,0,1Zm6.19.81,0-2,.62,0,0,2Zm-2.17,43.56-.05-2,.86,0,1.17,1.93Zm2.4-2,1.11,0,0,1.93Zm2.8,1.89,0-2,2.48-.07.75,1.94Zm90.78,89.44,0,2h-.39l-.06-2Zm-.88-225.25h-.31v-.53Zm-.09,12.2,0,1-1.57,0a1.9,1.9,0,0,0-.58-.71,3,3,0,0,0-.44-.23ZM630,832.89l-.35-.9,0-1.06,2.81-.07,0,2Zm2.69,7.69,0,.72-.17,1-.29-1.33-.09-.37Zm1.23,62-3.2.09,0-1.55.21-.42,2.78-.08c0,.12,0,.23,0,.35A5.65,5.65,0,0,0,634,902.61Zm-4.48,35.61-1.14-1.93,4.59-.13.07.12,0,1.84Zm1.46,18.28-1.22,0-.05-2,1.22,0Zm-7.49-37.58-.05-2,5.1-.14.36.61,0,1.34Zm1.1,17.47-.9,1.8-1.08,0,0-1.77Zm-5.69,18.68a1.6,1.6,0,0,0,0-.21l2.37-.06-1,2-1.86.06a2.48,2.48,0,0,0,.5-1.5A2.13,2.13,0,0,0,618.85,955.07Zm.83-17.14a2.06,2.06,0,0,1-.45.38l-2.41.06a1.6,1.6,0,0,1-.47-.35,3,3,0,0,1-.56-1.39l4.38-.12A2.89,2.89,0,0,1,619.68,937.93Zm-17.9-35.38-.16.94h-.14l-.22-1-.23-1,1,0ZM602,937l-.17,1-.21-1ZM593.6,771.81l6.47-.17,0,2-6.61.18a6.61,6.61,0,0,0,.14-1.45C593.64,772.14,593.61,772,593.6,771.81Zm.07-15.45,3.68-.1,0,2-3.11.08a3,3,0,0,0,0-.43A2.08,2.08,0,0,0,593.67,756.36Zm5.45-.15.53,0,.05,2-.53,0Zm1.58,77.47h-.23l0-1h.25c0,.21,0,.4,0,.62S600.69,833.56,600.7,833.68Zm.32,7.76a4.51,4.51,0,0,0,.48,1.23,2.3,2.3,0,0,1-.32.71l0,0-1.6,0,0-2Zm5.87-37.94,2.4-.06a2,2,0,0,0,.71,1.48l0,.46-3.2.09a5.67,5.67,0,0,0,.12-1.4A5.25,5.25,0,0,0,606.89,803.5ZM609.16,790v-.38l-2.53.07,0-1.58,2.18-.06a1.89,1.89,0,0,0,.42.47,3.67,3.67,0,0,0,.8.34,2.69,2.69,0,0,0,.41,1.11Zm1.62,27.76-.49,1.5-4,.11,0-1.49Zm4.38-14.43a1.71,1.71,0,0,0,.42.51,3.77,3.77,0,0,0,1.47.58l1.49.3a5.2,5.2,0,0,1,1.13.32,1,1,0,0,1,.15.13l-4.19.11a1.78,1.78,0,0,0-.32-.35,5.38,5.38,0,0,0-1.87-.6l-.92-.18a5.09,5.09,0,0,1-.77-.19v-.54Zm-3.19-14a4.15,4.15,0,0,1,1.18.36s.06.07.1.1a2.33,2.33,0,0,1-.92-.16A1.31,1.31,0,0,1,612,789.25Zm7.36-33.59.78,0,.06,2-2,0h0a2.85,2.85,0,0,0-.28-1.32,1.18,1.18,0,0,0-.28-.31l1.71,0Zm.45,16.5,0-1.06,5.33-.14a2,2,0,0,0,.46.51,5.83,5.83,0,0,0,1.87.59l.92.18a4,4,0,0,1,1.18.36.77.77,0,0,1,.21.19l-14,.38,0-.9Zm6.16-16.54a10.45,10.45,0,0,0,1,.25l.92.18a4.13,4.13,0,0,1,1.19.36.73.73,0,0,1,.38.64,1,1,0,0,1-.08.3l-3.37.09a2.47,2.47,0,0,1-.17-.56l-1.68,0a2.62,2.62,0,0,0,.07.57l-2.34.06,0-1.65,4.1-.11Zm.59,77.36.59-2h.44l.35,1,0,1Zm1,56.25h-.35a5.44,5.44,0,0,0,.26-1.58h.05Zm-.63-46.53-1,0,.24-.77.55,0Zm1.8-38.3v.48l-1.74,0,0-.47Zm-1.4-16.9,1.74,0,.06,2-1.75.05Zm.61,88.7,1.41,0,.39,1.11-1.81.05a8.07,8.07,0,0,0,0-.87A2.13,2.13,0,0,0,627.87,876.2Zm2.6,11.38.06,2-1.3,0-.06-2Zm-2.14-24.89-.05-2,2.1-.05,0,2Zm-.08-20.28-.1-.51h.18Zm-.35-24.11,0-1.06,2.24-.06a4.81,4.81,0,0,0,.36,1.05ZM625.11,862l0,.8-1.87.05a6.08,6.08,0,0,0,.17-.81ZM624,842.78a5.45,5.45,0,0,0,.36-2h.32l-.65,2Zm.82-9.77a2,2,0,0,0-.73-1.36,3.71,3.71,0,0,0-1.33-.53l2.7-.07Zm-1.62-43.82-2.07.06v.38l-1,0-.06-2,3.07-.08c0,.16,0,.31,0,.48A6.28,6.28,0,0,0,623.18,789.19Zm2,13.82,0,1.06-3.91.11a1.91,1.91,0,0,0-.44-.5,5,5,0,0,0-1.54-.51Zm-.77,14.33.81,0,0,2-1.69,0a1.53,1.53,0,0,0,.59-.62,2.45,2.45,0,0,0,.28-1.19C624.41,817.44,624.39,817.4,624.38,817.34Zm-2.36.06h.54a1.24,1.24,0,0,1,.09.41.93.93,0,0,1-.47,1,1.06,1.06,0,0,1-.19.06,2.6,2.6,0,0,0,.14-.89A2.27,2.27,0,0,0,622,817.4Zm-2,.08a.68.68,0,0,1,.38.63.93.93,0,0,1-.51.85h-.48l-.05-1.5H620Zm.63,14.88.92.17a3.8,3.8,0,0,1,1.19.37.65.65,0,0,1,.19.18l-4.15.11.32-1.28A7.41,7.41,0,0,0,620.68,832.36Zm4.3-43.21a4.62,4.62,0,0,1-.17-1.11c0-.18,0-.31.05-.48l.67,0,.05,1.59Zm-8.61-1.36,1.87,0,0,2-2.11.06a2.4,2.4,0,0,0,.34-1.28A2.49,2.49,0,0,0,616.37,787.79Zm-1.09-30.06,0-1.25a1.23,1.23,0,0,1,.86.23,1.54,1.54,0,0,1,.3,1Zm-.15,120.78.22-1.24,1.15,0,.24,1v.22Zm1.52,40.6h-.37l0-2h.36ZM614,862.21l1.45,0a5.53,5.53,0,0,0,.22.87l-1.65,0Zm0,15.21-.18,1.12h0l-.16-.78a.86.86,0,0,1,.31-.32Zm.19-44.11.18-1.06.15-.91h.26l.19.9.25,1Zm1.43,7.73.46,2-1.17,0-.05-2Zm1-7.79-.46-2,1.5,0-.4,2Zm.54-14.45a1.76,1.76,0,0,1-.35-.86l-1.68,0a2.64,2.64,0,0,0,.52,1.55h-.54l-.75-1.94,3.31-.09.05,1.62A1.36,1.36,0,0,1,617.16,818.8Zm-7.22,58v-.06l1.8-.05.27.87a2.68,2.68,0,0,0-.26,1.09l-1.75,0,0-1.87v0Zm-.82-13.53a.86.86,0,0,1,0-.23.94.94,0,0,1,.47-1,2.17,2.17,0,0,1,.85-.16l1.89-.05,0,1.32ZM609,833.46l0-.89,1.45,0,.27.88Zm3.34-.09-.23-.89,1,0,0-1.08h.23l-.33,2Zm-.45-13.73.59-2h.2l.69,1.94Zm-.1,23.47-1.85,0,0-1.76,1.36,0Zm-5.14-11.55a4.06,4.06,0,0,1,.37,1.6c0,.13,0,.23,0,.35l-1.46,0,0-2Zm.41,9.72a2.61,2.61,0,0,1-.41.91,2.16,2.16,0,0,1-3.21.18,7.65,7.65,0,0,0,.08-1Zm-1.1,22h-.37v-.51A.71.71,0,0,1,605.93,863.3Zm-4.77-59.64,3.26-.09.05,2-3.06.09c0-.13,0-.24,0-.36A5.58,5.58,0,0,0,601.16,803.66Zm3.36,14.71,0,1.47h-.42Zm-1.56-.45-.18.89,0-.88Zm-.49,14.74,1.25,0,0,1-1.29,0c0-.12,0-.21-.05-.34A5.86,5.86,0,0,1,602.47,832.66Zm.94-43.49,0-1,1.42,0,0,1.58-2.52.07v.38l-1.46,0a3.61,3.61,0,0,0,.54-1Zm-1.56-17.58,3.54-.1.05,2-3.54.1ZM599.5,820l.13-.7.19-1.27H600l.26,1.26.16.69Zm-2,82.66-.16,1h-.13l-.2-1-.25-1,.91,0Zm.44,15,0,.21-.21,1.32-.28-1.34,0-.17ZM595.48,879l0-1.42h0l.37,1.41Zm.08,11.45-1.31,0,0-2,.86,0Zm-1-26.88,0-2,1.33,0,0,2Zm0-20,0-2,1,0a5.18,5.18,0,0,0,.46,1.95Zm.61-11.09v-.62l2.36-.06,0,.62Zm.68-44.14,1.75-.05,0,1.81a2,2,0,0,1-1.52-.7,2.82,2.82,0,0,1-.26-.49Zm.93,89.24.56,0,0,1.19V879h-.24Zm.46-36,.55,0,0,1.85A3.37,3.37,0,0,1,597.2,841.55Zm.58-21.53-.06-2,.81,0-.33,2Zm-.28-14.3,0-2,1.43,0c0,.19,0,.37,0,.57a6.55,6.55,0,0,0,.2,1.39Zm-2.35-.86h.6l0,.92-.63,0c0-.13,0-.23,0-.36A3.45,3.45,0,0,1,595.15,804.86Zm0,13.27.61,2-1.81,0a5.75,5.75,0,0,0-.36-2Zm.53,99.58.61,1.95-2.94.08,0-2Zm.19,21.42,0-1.76,3.28-.09,0,1.76Zm.31,18.31-1.46,0-.06-2,1.46,0Zm2.64-37.85.35-2,1.07,0,.46,1.95Zm-.27-16,.29-1.63,0,1.62Zm0-13.16,0-2,2.86-.08a3.34,3.34,0,0,1,.62,1.94Zm2-11.51-.06-2,1.39,0s0,.05,0,.07a5.67,5.67,0,0,0,.35,1.88Zm.48-15.56a.3.3,0,0,1,0,.1l-3.35.09,0-2,2.07-.06,0,1.09,4.1-.11,0,.87-1.11,0s0-.06,0-.1ZM603.25,937l1.27,0,.46,2-2.08.06Zm-.16-33.52.5-2,2-.05.06,2Zm.78,16,.35-2,1.08,0,.45,1.95Zm-.15-29.18a5.29,5.29,0,0,0-.42-2h.36v.42l3.06-.08,0,1.54Zm.4-11.46a3.54,3.54,0,0,1-.52-1.87s0-.05,0-.08l.5,0,0,1.18,3.93-.11a2.72,2.72,0,0,1-.31.8Zm3.46-16.72a3.61,3.61,0,0,0-.16.42,1.86,1.86,0,0,0-.72-1c-.09-.05-.24-.1-.35-.15l2.15-.06A1.66,1.66,0,0,0,607.58,862.09Zm1.25,55.27.6,0,.05,2-1.15,0Zm1.36,19.42,0,2-2.58.07,0-1.2.2-.77Zm-.66-46.67,0-2,2.11-.06v0s-.05,0-.06.08a2.59,2.59,0,0,0-.27,1.2,2.34,2.34,0,0,0,.13.66Zm2.17,11.14.74,0,.46,1.95-1.56,0Zm2.76,16,.06,2-1.65.05-.06-2Zm-.07-14.06h-.14l-.22-1-.22-1,1,0-.21,1Zm-.74-14.24a.71.71,0,0,1-.36-.55.7.7,0,0,1,.21-.21,1.08,1.08,0,0,1,.37-.11l2.37-.07,0,1.61c-.18,0-.32-.09-.53-.13l-.91-.17A3.8,3.8,0,0,1,613.65,888.9Zm2.56,14.19h-.35l.32-1.26Zm1.71-2h.45l0,2H618Zm.1-11.2,0-1.47.59,0a3.86,3.86,0,0,0-.06-.49l.87,0a5.08,5.08,0,0,0,.56,1.94Zm1.6-11.49.26-1a5,5,0,0,0,.21,1ZM618.35,863l-.05-2,1.74,0,.06,2Zm.37-20.05,0,0a2.57,2.57,0,0,1-.28-.52l.36-1.42,3.79-.1a3.39,3.39,0,0,1-.53,1.95l0,0Zm2.87,33.45,4.52-.12v0l-.64,2-3.48.09a3.8,3.8,0,0,1-.42-1.7C621.57,876.53,621.59,876.46,621.59,876.37Zm6,24.45.82,1.39v.55l-4.86.13-.06-2Zm3,17.91,0-1.35.32-.62,2.59-.07.36.6,0,1.35Zm3.64,35.71.05,2-1.13,0-.05-2Zm-3.72-113.8h.25l.4,1.68Zm.53-53.25,1.43,0,.05,2-1.57.05a5.85,5.85,0,0,0,.14-1.49A3.71,3.71,0,0,0,631.1,787.39Zm2.55,15.39,0,1.14-1.24,0,0-1.14Zm-2.12-30a2,2,0,0,0-.73-1.38,3.62,3.62,0,0,0-1.3-.52l5.11-.14,0,2Zm-1-17.38.6,0,0,1.51A2.09,2.09,0,0,0,630.51,755.36Zm2.93-.08.49,1.94-1.12,0,0-2Zm-3.08-27,2-.06,0,1-2.2.06,0-.08A2.38,2.38,0,0,0,630.36,728.24Zm0,12.24v.28h0a6.2,6.2,0,0,1-.94-.25Zm-.46,1.86.51.1h0l-1.75,0V742A8.14,8.14,0,0,0,630,742.34Zm-3.11-14.93.83,0,.57,1.62a1.08,1.08,0,0,1-.29.21,2.88,2.88,0,0,1-.81.14h-.31a3.1,3.1,0,0,1-.56-.06Zm-1.71,0-.19.6-1,0a1.8,1.8,0,0,0-.52-.58Zm-2.47,2h-.37l0-.65A.73.73,0,0,1,622.66,729.47Zm.17,11.21,0,.92,4.1-.11,0,1-8.77.24v-.22l4.11-.11,0-1.47-4.11.11v-.27Zm-2.78-12.41.56.12,0,1.15-.84,0Zm-1.85-.63a2.61,2.61,0,0,0,.69.33l-.27,1.34-.81,0-.43-1.66Zm-2.09.06.43,1.67-.78,0,0-1.68Zm-1.35,14.12a5.55,5.55,0,0,1,1.14.32.75.75,0,0,1,.43.67h0l-1.57,0,0-1.05Zm-.3,46.17a.72.72,0,0,1,.43.66.93.93,0,0,1,0,.23,1.74,1.74,0,0,0-.42-.51,3.52,3.52,0,0,0-1.18-.49l.85,0A1.68,1.68,0,0,1,614.46,788Zm-.54-16.73.06,2-1.75,0-.05-2Zm-.4-14.75,0,1.27h-.15l0-1.27ZM613,742.65l-1.63,0c0,.09,0,.17,0,.26l-1.68,0v-.3l3.28-.09Zm-2.93,15.22h-.17a4.13,4.13,0,0,0,.15-.5Zm2.47-30.07.05,2-1.53,0,0-2ZM611.87,741a3.09,3.09,0,0,0,.37.2l-2.57.07V741Zm-1.42,31.35,0,1-3.28.08,0-1Zm-2.53-14.4-1.14,0,0-1.73,1.7,0A3.12,3.12,0,0,1,607.92,757.93Zm-1.9-28,0-.42,1.49,0a2.71,2.71,0,0,1-.2.42Zm1.73-2s0,.05,0,.08l-1.78,0V728Zm-1.55,13.2,0,2-1.83,0,0-2ZM605,756.05l0,2h-.44a3.32,3.32,0,0,1-.64-1.94Zm-2.35,2-1.14,0-.05-2,.74,0A5.59,5.59,0,0,0,602.62,758.07ZM601,728.49a2.22,2.22,0,0,0,.14-.38h.24a6,6,0,0,0,.35,1.95l-.83,0,0-.08a1.24,1.24,0,0,0-.19-.21l0-.84A1.37,1.37,0,0,0,601,728.49Zm.38,12.77a3.55,3.55,0,0,1-.45,2l-3.57.09a3.51,3.51,0,0,1-.55-1.94ZM599,716.8a2.46,2.46,0,0,1-.19.4,1.88,1.88,0,0,1-.61.52l-.06-2.18.82,0Zm-.31-4a2.93,2.93,0,0,1,.21.39l0,.92-.82,0-.05-1.82A2,2,0,0,1,598.65,712.81Zm-.34,15.85v.05h-.09l-1.89.06v0h.09Zm-3-15.76a1.91,1.91,0,0,1,1-.67l.15,5.68a1.94,1.94,0,0,1-1-.62,4.14,4.14,0,0,1-.12-4.39Zm-.89,29.75a5.88,5.88,0,0,1-.08.77h-.61l0-2h.56A5.14,5.14,0,0,1,594.43,742.65Zm-.83-13.72a2.58,2.58,0,0,0-.27,1.19c0,.06,0,.1,0,.16h-.18a5.86,5.86,0,0,0,.05-.95,7.85,7.85,0,0,0-.1-1l1.09,0A1.65,1.65,0,0,0,593.6,728.93Zm0-16.51a5.11,5.11,0,0,0-.59,2.74,4.75,4.75,0,0,0,1.13,3.17l-1.51,0-.16-5.89Zm.45,76.92,0,.09,0,.93-1.77,0,0-1Zm-3.59,112.49-.65,2-1.89.05,0-2Zm-1-13.14.83,0,0,1.14a1,1,0,0,1-.57-.2A1.48,1.48,0,0,1,589.49,888.69Zm-.64-9.47a5.86,5.86,0,0,0,.24-1.89s0-.05,0-.08l1.69,0,.05,2Zm-.19-89.06a1.67,1.67,0,0,1-.82-.13,1,1,0,0,1-.51-1,1.14,1.14,0,0,1,.08-.43l1.61,0,.05,1.61Zm1.52,13.8,0,.68-1.21,0,0-.68Zm-2.09,14.36,2.56-.06.05,2-3.07.08A3.63,3.63,0,0,1,588.09,818.32Zm-.49-44.38a4.27,4.27,0,0,1-.29-1.44,4.17,4.17,0,0,1,.05-.52l4.45-.12a4.08,4.08,0,0,1,.07.52,4,4,0,0,1-.2,1.45ZM588,841.8l.59,0,0,2-1.54,0A4,4,0,0,0,588,841.8Zm.68,20-.39,2H588c0-.1,0-.24,0-.32l0-1.64ZM587.88,834a2.06,2.06,0,0,0,0-.35,6.11,6.11,0,0,0-.25-1.61l4.8-.13,0,2Zm2.8,29.69-1.19,0,.4-2,1,0,.1.4A3.5,3.5,0,0,1,590.68,863.72Zm-.3-20,0-2,2.38-.06.06,2Zm2.41,18h.08l0,1.64c0,.08,0,.21,0,.32h-.23l-.05-.19a5.81,5.81,0,0,0,.17-1.61A1,1,0,0,0,592.79,861.7Zm-.33,17.42v-.23l-.05-1.73.69,0-.39,2Zm0,9.49-.24,1.2H592a1.69,1.69,0,0,0,0-.23l0-1Zm.09-82.75a.9.9,0,0,1,.44-.8,1,1,0,0,1,.35-.11c0,.17,0,.34,0,.53s0,.23,0,.35ZM592,743.48l-2.06.06a5.79,5.79,0,0,1-.11-.76,4.09,4.09,0,0,1,.07-.72h.16l1.9,0Zm-1.18-25.09-2.42,0-.46-1.19,0-1.25,2.85-.08Zm-.16-5.88.05,1.94-2.85.07,0-1.94Zm-3.78,16.91,2.94-.08v.44a2,2,0,0,1-1.39.61,2.06,2.06,0,0,1-1.53-.61,2.7,2.7,0,0,1,0-.28S586.9,729.45,586.9,729.42Zm.13,14.2-1.77,0,0-2,2.67-.07a1.63,1.63,0,0,0-.61.64,2.55,2.55,0,0,0-.27,1.19A.9.9,0,0,0,587,743.62Zm-22.81,160-.17.94h-.14l-.21-1-.23-1,.95,0Zm.17,34.45-.16,1-.21-1ZM564,956.35l3-.08.05,2-3.72.1ZM565.33,940l.35-2,1.28,0,.46,1.95Zm-1.21-48.62.65-2,1.79-.05.05,2ZM561,880l0-1.34,4.1-.11v-.62l1.94-.06,0,2Zm-8.45-75,.05,2-.8,0L550.61,805Zm-.54-32,2.41-.06a3.38,3.38,0,0,1-.51,0L552,773Zm2.09,47.32a1.33,1.33,0,0,1-1.31.74l0-1.72,1.52,0A2.64,2.64,0,0,1,554.09,820.26Zm.4,12.71v.62l-.71,0,0-.62Zm-1.93-43.44h.36l0,.62ZM552,833v.62l-.77,0,0-.62Zm2.77,9.66,0,2-3.28.09,0-2Zm.42-37.79,1.17,1.93-1.76,0-.05-2Zm-.42-15.44,1.23,0,0,2h-.11Zm-1.55,73.3,2.48-.06.05,2-3.18.08Zm2.4-41.6a.54.54,0,0,0,.09-.12,4.19,4.19,0,0,0,.35-1.86l1.68,0,.06,2Zm2-31.47.63,1.63-.59,0Zm.62,52.9,0,2-1.75.05,0-2Zm-.25,20-.39,2h-.23c0-.1,0-.24,0-.31l0-1.65Zm1.21,15.42,0,2-1.74.05-.06-2Zm-.38-13.48.39-2,1,0,.5,1.95Zm6.23-107.45,1.67,0,0,2-1.78.05a5.77,5.77,0,0,0,.08-1.22Zm4.35,33.9-1.92.05.4-2,1.32,0c0,.17,0,.31,0,.48A6.06,6.06,0,0,0,569.41,791ZM569,806.5l-1.29,0,.4-2h.38Zm-3.53-32c0-.16,0-.3,0-.47l0-1.49,1.66-.05.06,2Zm1.17,14.6-.34,1.74c0-.16,0-.39,0-.69s0-.53,0-.69v-.35Zm-2-70.26-.06-2,1.72-.05a1.43,1.43,0,0,1,1,.25,1.64,1.64,0,0,1,.31,1.06l0,.71Zm.6,100.06a6,6,0,0,0-.25,2h-.41l0-2Zm.34,13.73,0,2h-.14l-1.17-1.93Zm-4.57-41.41.64-2,2.68-.07,0,2Zm3.24,14.62-.42-1.21h.39ZM562.92,819l0,.44-.27-.44Zm-1.28-12.31.55-1.68.63,1.64Zm1.13,26,.41.68-1.1,0,0-.69Zm-1.69-13.69,1.18,1.93-2.31.06-.06-2Zm-1.16-12.32h-.13l0-1.4.59,0Zm.5,26.07,0,.69-.71,0,0-.69ZM560,844l0-1.41,5.13-.14,0,2h-.45l0-.55Zm2.25,20.52H562l-.49-2,.66,0,0,1.64C562.25,864.25,562.26,864.39,562.26,864.49Zm1.64,0,0-2,5.17-.14,0,1.09h.41l0,.87Zm3.92-20.68,0-1.21,2.35-.07,0,1.21Zm-.25-9.18-.05-2,5.4-.15.05,2Zm4.48,9.61v-.55h-.12l0-1.41,1.29,0,.06,2Zm1.05,20-2,.06,0-.87,1.48,0Zm0-43.5,0-2,3.15-.08a4.12,4.12,0,0,0,1,1.93Zm-.1-14.3.4-2,.86,0,.51,2Zm2.53-2,.76,0,0,2h-.31Zm1.66-15.5,4.85-.14,0,1.59-4.47.12v.38h-.53a6.89,6.89,0,0,0,.14-1.48C577.27,789.16,577.25,789,577.23,788.86Zm5.26-32.2,2.65-.07a5.48,5.48,0,0,0,.45,1.95l-3.45.09,0-1.65h.4Zm3.26,33.53a2.34,2.34,0,0,0,.25.39h-.47l0-2h.17a2.2,2.2,0,0,0-.08.67A2.08,2.08,0,0,0,585.75,790.19Zm-3.19-16.12,0-2,3.07-.08a4.35,4.35,0,0,0,0,.52,6.32,6.32,0,0,0,.21,1.44Zm2.52,58.07c0,.18.07.33.08.53a4.47,4.47,0,0,1-.2,1.44l-3.34.09c0-.12,0-.22-.06-.35a4.08,4.08,0,0,1,.29-1.62Zm-.63-13.72,1.68,0a6,6,0,0,0-.25,2l-1.38,0Zm-3.11,61h-.59l0-2h.3v.08A5.67,5.67,0,0,0,581.34,879.43ZM581.22,864l-.46-1.3.86,0,0,.94-.12.39ZM579,834.27l-3.21.09-.05-2,3.07-.09c0,.18,0,.34,0,.53A6.23,6.23,0,0,0,579,834.27Zm-1-28.92,0-1.06,3.73-.1,0,1.06Zm4.3,13.13a2.67,2.67,0,0,1-.44,1v0l-2.41.06,0-1Zm-6,70.57,1.17,1.93-2.36.06-.06-2Zm-.38-11.44h.4l1.16,1.93-1.51,0Zm1.29,24.58-.21,1-.16.94h-.14l-.22-1-.23-1Zm-1.87,2H575l0-1.6Zm-.14,33.66,0,1.79-.68,0,0-1.79ZM576,956l-.61,2h-.14l-.06-2Zm-.57-35.8-.06-1.94,2.44-.07-.64,2Zm1.47-57.3a2.51,2.51,0,0,0-.27,1.18h-.32l-.05-2,1.56,0A1.77,1.77,0,0,0,576.91,862.92Zm-1.51-19.37,0-1.13,4.1-.11V842l.71,0a4,4,0,0,0,1,1.93l-2,.06v-.55ZM579.5,864l-1,0a1.57,1.57,0,0,1,0-.23.93.93,0,0,1,.47-1,.38.38,0,0,1,.15-.05Zm-1.6,13.54,1.15,0,.05,2h0Zm.73,12.67-.75-1.22.72,0Zm.77,11.9,1.26,0,.3.86v.53l-2,0Zm2,16,.2.59-1.12,0,0-.59Zm-1.06-27.59,0-1.57,2.72-.07.6,1.55Zm5.7,12.25,0,1.15-2.85.08-.44-1.14Zm-2.72-23.39a3.51,3.51,0,0,1-.52-1.87s0,0,0-.08h.39l.74,2Zm.11-15.45v-.47l.49-1.51.87,0c0,.05,0,.11,0,.16a6,6,0,0,0,.31,1.79Zm.74-20.35a2.24,2.24,0,0,1-.91-.16l0-1.48,3-.09a2.73,2.73,0,0,1-.42.91A2,2,0,0,1,584.12,843.57ZM585.74,806l-2.26.06,0-.47,2.9-.08A1.69,1.69,0,0,0,585.74,806Zm-1.09-92.94,1.15,3.3-2.16.05Zm-1.45,4.82,3-.08,0,.64-3.22.06Zm1.24,10.64a4.24,4.24,0,0,0,.79,1.86v.08l-3.1.08,0-2Zm-5,14.22,3.87-.1,0,1-6.75.18,0-2,2.87-.08Zm1,15.9-1.93.05-.05-1.65,1.93-.05Zm-1.47-30,0,1.48c0,.11,0,.3,0,.48h-.19l-.49-1.95Zm-3,.08,1.12,0,.51,2h-.38a1.85,1.85,0,0,0-.63-.9,3.08,3.08,0,0,0-.75-.37Zm.78,28,.06,2-1.75.05-.05-2Zm-1.74-12.88-.52,0-.15-.24,0-1.72.66,0Zm-.27-15.11-.07.32L574,729v-.2Zm6.08,43.33.06,2-6.75.19,0-2Zm-5.29,16.74c0,.17.07.3.08.48a4.37,4.37,0,0,1-.22,1.49l-2.44.07-.05-2Zm-2.83-45.23c0,.1,0,.21,0,.34h-.19l-.28-1.08Zm-.68,13.51,0,1.21-.72-1.19Zm.41,15.21.06,2h-.14l-1.16-1.93ZM571,789h.17v.35c0,.16,0,.39,0,.69s0,.52,0,.68l-.23-.92a2.87,2.87,0,0,1,0-.31C570.94,789.33,571,789.19,571,789Zm.37,31.71-4.57.12a3.53,3.53,0,0,1,.45-2l3.56-.1A3.63,3.63,0,0,1,571.36,820.74Zm-1.75-91.11.78,1.27-1.21,0Zm1.08,29.31-.75,0,0-1.31Zm-1.14-16.81h.12l.05,2h-.57Zm0,30.34,1.18,1.93-1.84.05-.05-2Zm-1.18-30.31-.28,1.41,0-1.4Zm-.67-11.65,0-1.49.49,0Zm-1.18-17.38a1.82,1.82,0,0,1,.82.13,1.06,1.06,0,0,1,.51,1,1,1,0,0,1-.47,1,2,2,0,0,1-.85.16l-1.9.05-.06-2.26Zm-2.38,17.53,1.34,0,.16.41-1.63.05A2.58,2.58,0,0,0,564.09,730.66Zm-.59,11.63,2.54-.07.05,2-3,.09v-.62Zm.19,30.33,0,1.49c0,.19,0,.33,0,.48l-3.13.08a3.3,3.3,0,0,1,0-.47l0-1.49Zm-2.46-30.27,0,1.65-.1.32H561l-.68-1.94Zm1.58,14.84.05,2-2.54.07a2.92,2.92,0,0,1-.22-1.21l0-.74ZM560,789.32l-.35,1.16-.4-1.14Zm-1.1-45.88.36.93H559a1.62,1.62,0,0,0-.75-.55A1.82,1.82,0,0,0,558.9,743.44Zm-2.63,14.95a5.53,5.53,0,0,0,.09-1l1.93,0v.74a6.77,6.77,0,0,0,.15,1.21l-2,.06h0A3.38,3.38,0,0,0,556.27,758.39Zm1.42-15.94a.84.84,0,0,1-.41.6,2.07,2.07,0,0,1-.84.16H556l0-.72Zm-1.06,30.37,2.07-.06,0,1.49a3.39,3.39,0,0,0,0,.47l-2,0a1.66,1.66,0,0,0-.2-.57,1.52,1.52,0,0,0-.84-.64A1.76,1.76,0,0,0,556.63,772.82Zm-1.72,2-2.86.08v-.52l1.72,0a1.45,1.45,0,0,1,1,.24A.86.86,0,0,1,554.91,774.82Zm-.48-16.25a2.58,2.58,0,0,1-.38.82l-2.42.07,0-1.27,1.72-.05a1.45,1.45,0,0,1,1,.24S554.4,758.51,554.43,758.57Zm-.56-27.71,0,.49-1,0v-.5Zm-2.79-1.39.06,2h-.27l0-2Zm.64,13.14,1.13,1.86v.07l-2,.06-.05-2Zm-.94,47,.05,2-1.41,0,0-2ZM549,805.08,550.2,807,549,807l0-2Zm-4.11,14.42h.41a1.67,1.67,0,0,1,.28,1h0l-.66,0Zm.35,13.72,2.45-.06a2.71,2.71,0,0,1-.55.06l-1.9.06Zm.05,2v-.52l1.72,0a1.36,1.36,0,0,1,1,.24.68.68,0,0,1,.13.24Zm3.68-1.34a1.86,1.86,0,0,0,.46-.27l0,.53A2,2,0,0,0,549,833.85Zm.07-12.5,0-.91-1.66,0v-.09a3.45,3.45,0,0,0-.15-1l2.07,0a4.1,4.1,0,0,0,.44,1.83s.07.07.1.11Zm1.48,43.46-.68-1.95,1.59,0-.59,2Zm.79,26.88,0-1.52.9,1.49Zm2.46-.07-1.18-1.93,2.22-.06,0,2Zm-1.32-11.41,0-1.42,3.28-.09,0,1.42Zm3.76-47.28.72,0,0,1.5c0,.18,0,.31,0,.46l-.69,0Zm.3,58.62-.06-2,1.8-.05.74,1.94Zm3.06,13.08-.21-1-.25-1,.91,0-.17,1-.15,1Zm.69,14.25-.2,1.32-.28-1.34,0-.17.57,0Zm.2-28.33,2.17-.06-.27.9-1.59,0Zm.87,12.07.74,0,.46,1.95-1.55,0Zm-.08,18,.35-2,1.07,0,.46,1.95Zm1,35.79-.28.94-.33-.93Zm-10.55.28,1.72,0,1.17,1.93-2.84.07Zm.62,13.72,2.8-.07s0,0-.05,0a2,2,0,0,1-.85.16l-1.9.05Zm.05,2V972l1.72,0a1.43,1.43,0,0,1,1,.25s0,.07.05.1Zm2.65-15.77h.23V957Zm2,15.65a1.32,1.32,0,0,0-1-1.07,1.7,1.7,0,0,0,1-.85l0-.05,2,0,0,1.65c0,.11,0,.2,0,.31ZM557,958.5l0-2,3-.08.75,1.94Zm7.09,13.55-3.15.08c0-.11,0-.19,0-.32l0-1.64,3.19-.08,0,1.64C564.12,971.85,564.11,971.94,564.11,972.05Zm1.78,0a1.67,1.67,0,0,0,0-.32l0-1.64,1.67,0,.05,2Zm.42-51.53.35-2,1.07,0,.46,1.95Zm-.78-16,.49-2,2.14-.06.06,2Zm2.67-15.2,1.11,0-.39,2-.67,0Zm.12,48.65h.41l-.18,1Zm.42,19.67h0c0-.15,0-.31,0-.54s0-.53,0-.69v-.14H569Zm.47,13.42,0-1.06.62,0,.64,1.05Zm.75-13.45.28-1.38,1.73,0,.27,1v.35ZM572,970.93l-.63-1,1.19,0,0,1.07Zm-1.26-31.16v0l-1,0,.5-2,.84,0V938l1.67-.05,0,1.8Zm-.27-36.59.36,1.14-.89,0,0-1.15Zm-.35-12,.4-2h.14l.51,1.95Zm.62,29.17.49-2,2.37-.07,0,1.95Zm1.7-29.24-.49-1.94,1.1,0,0,2Zm.22,12,0,.19-.15,1h-.13l-.2-1,0-.16Zm-3.89-23.35,0-2,5.1-.14.06,2Zm6.87,92-1.24,0,0-2,1.9-.06Zm1.24-34.05.88,0,.05,2-.88,0Zm.79,18.3,2-.06.43,1.36h-.11l0,.59-2.89.07Zm-.23,15.7.51-2,2.21-.06.62,1.94Zm2.85-32.13.51-2,1,0-.65,2Zm1.15,16.33,2.52-.07.52,1.36-2.54.06Zm2.78-18.4,1.41,0,0,.09-1.41,0ZM583,971.54l-.05-2,1.57,0,.75,1.94Zm2-32.11-.15-.41,1.38,0,.14.4Zm-.55-20.82.18-.6,1.78,0,.15.42v.16ZM586,879.3h-.37l-.68-1.94,1.65,0Zm2.77-122.81a7.08,7.08,0,0,0,1.38.38l.92.18.31.07a2.83,2.83,0,0,1-.47,1.27l-1.72.05a2.47,2.47,0,0,1-.17-.56l-1.68,0a.78.78,0,0,0,0,.16,3.54,3.54,0,0,1-.44-1.54Zm-1.16,132.25h.11A2.7,2.7,0,0,0,588,890a1.58,1.58,0,0,0,.84.65l-.08,0-1.8.05Zm.41,67a1.64,1.64,0,0,0,0,.38,2.37,2.37,0,0,0,.18.88,2.72,2.72,0,0,0,.38.61l-1.14,0Zm.52-18.41,1,0-.45,1.5Zm-.61,34a4.34,4.34,0,0,1-.09-.54l.47-1.43,3.19-.09,0,2Zm3.2-15.79,0,1.4h-.1a1.82,1.82,0,0,1-.82-.13,1.08,1.08,0,0,1-.51-1,1.43,1.43,0,0,1,0-.22Zm-.56-16.33.16-.51v.5Zm-1.64-19.42-.61-1.6v-.35l3.26-.08.05,2Zm3.26-18.08,1.26,0,.48,1.37-2.16.06Zm.28,35.48,1.63,0,.06,2-1.64,0ZM592.9,957l0-1.4h.1l0,1.4Zm1,14.27a6,6,0,0,0,.1-1.3c0-.24,0-.45-.06-.67l2.53-.07.06,2Zm4.38-.12-.05-2,2.19-.06,0,2Zm3.49-14.94a2.19,2.19,0,0,1-3.34.09,2.68,2.68,0,0,1-.44-.84l4.18-.12A2.58,2.58,0,0,1,601.81,956.18Zm.48,14.83,0-2,1,0,0,2Zm2.77-.08-.06-2,.78,0,.05,2Zm-.35-14.31v.59h0l0-2,2.57-.07,0,1.37Zm2.64-55.25h.46l.61,1.94-1,0Zm.24,69.5,0-.83.66,0,0,.83Zm2.45-.07,0-.83.84,0,0,.83ZM611.56,957v-.59l-1.9.05,0-1.37,1.49,0a4,4,0,0,0,1,1.94Zm1-20.3,1,0,0,2-1,0Zm1.14,32.56a3,3,0,0,1-.28-.53l.87,0,0,1A2.12,2.12,0,0,1,613.72,969.28Zm3-13.51a2,2,0,0,1-1.32.75,2.37,2.37,0,0,1-.64-.11,1.24,1.24,0,0,1-.72-1.07l-.91,0a2.31,2.31,0,0,1-.18-.35l4-.11.11.1A2.32,2.32,0,0,1,616.69,955.77Zm3.8,14.75-2.46.06.16-.13a4,4,0,0,0,.51-.64l1.47,0,0-1.21,1.34,0Zm-2.08-51.46,0-2,3.27-.09,0,2ZM620.17,903l0-2,1.65,0,.05,2Zm1.6-13.48a3.23,3.23,0,0,1-.6-1.67l4.45-.12a3.14,3.14,0,0,1-.46,1.59l-1.77,0v.39l-1.28,0A1.82,1.82,0,0,1,621.77,889.5Zm1.28,65.25.75,0,.69,1.35-1,0,0,.59-1.31,0Zm-.61,15.71.84-2,1,0,1,1.93Zm3.83-34.12h.24l1,1.93-.72,0v-.19l-1.27,0Zm-.61,18.34,2.27-.07,0,1.38-1.51,0Zm1.68,15.65-.53-.9a8.21,8.21,0,0,0,1,.24l.92.18a4.15,4.15,0,0,1,1.18.36l.05,0Zm3.85-1.36a3.62,3.62,0,0,0-1.48-.57l-.39-.09,1.93,0,0,.81S631.23,969,631.19,969Zm1.88,1.2-.06-2,1.65,0,.06,2ZM636,887.43l0,1.19h-.37a3.4,3.4,0,0,0,.07.46l-3,.08-.05-1.65Zm-3.25-11.36,1,0,0,2-1,0Zm2.37-14.43a4.82,4.82,0,0,1,1.13.32.69.69,0,0,1,.39.51l-3.2.09s0-.06,0-.1l-1.16,0-.05-1.71a3.71,3.71,0,0,0,1.43.55Zm1.1-44.62a2.52,2.52,0,0,1-.44,1,2,2,0,0,1-1.64.82,2,2,0,0,1-1.69-.73,2.58,2.58,0,0,1-.5-1Zm.68-28.2h0v.38l-1,0v-.56H636A1.66,1.66,0,0,1,636.85,788.82ZM636,727.16l.76,0,0,1.33Z" fill="#262521"/><path d="M535.63,790l2-.06h-.06l-1.9,0Z" fill="#262521"/><path d="M596.36,730.16l1.73,0a1.1,1.1,0,0,1,.26,0h0l-2,.06Z" fill="#262521"/><path d="M631.16,756.91v.39h0C631.14,757.17,631.16,757,631.16,756.91Z" fill="#262521"/><rect x="630.37" y="802.86" width="0.32" height="0.02" transform="translate(-21.56 17.41) rotate(-1.56)" fill="#262521"/><rect x="626.87" y="802.94" width="1.75" height="0.02" transform="translate(-20.91 16.79) rotate(-1.51)" fill="#262521"/><polygon points="612.91 841.32 612.84 841.79 612.74 841.33 612.91 841.32" fill="#262521"/><path d="M608.15,843.21h-.22a1.86,1.86,0,0,0,.21-.28Z" fill="#262521"/><path d="M599.44,789.28s0,0,0,0-.08.06-.11.09v-.13Z" fill="#262521"/><polygon points="618.41 876.46 618.54 876.45 618.43 876.99 618.41 876.46" fill="#262521"/><path d="M609.29,729.65v.2h0A1.18,1.18,0,0,0,609.29,729.65Z" fill="#262521"/><path d="M591.91,804.34v-.13l.12.06Z" fill="#262521"/><polygon points="585.72 888.79 585.87 888.79 585.74 889.26 585.72 888.79" fill="#262521"/><polygon points="583.16 939.48 582.97 939.48 583.07 939.17 583.16 939.48" fill="#262521"/><polygon points="563.95 834.68 563.86 834.68 563.86 834.54 563.95 834.68" fill="#262521"/><path d="M583.42,804.14l2,0v0l-2,0Z" fill="#262521"/><path d="M574.07,730.8s0-.06,0-.09l.21,0v0Z" fill="#262521"/><polygon points="569.79 804.51 569.8 804.51 569.81 804.57 569.79 804.51" fill="#262521"/><path d="M564.29,729.11l.55,0,0,.08-.58,0Z" fill="#262521"/><path d="M562.5,729.16v.08h-.2v-.08Z" fill="#262521"/><path d="M558,731.24h-.05v-.13S558,731.2,558,731.24Z" fill="#262521"/><polygon points="555.46 729.35 555.46 729.36 555.42 729.36 555.41 729.35 555.46 729.35" fill="#262521"/><path d="M553.26,729.41h0Z" fill="#262521"/><polygon points="586.22 956.13 586.21 955.75 586.33 955.74 586.22 956.13" fill="#262521"/><path d="M612.62,970.73v-.18l0,.05a1.67,1.67,0,0,0,.16.12Z" fill="#262521"/><path d="M650.89,827.51l0-1.31.45,1.3Z" fill="#262521"/><path d="M630,914a4.18,4.18,0,0,0,.09-.41V914Z" fill="#262521"/><path d="M620.19,912.84v-.58h.07A3.56,3.56,0,0,1,620.19,912.84Z" fill="#262521"/><path d="M629.36,783h.09a2.46,2.46,0,0,1-.09.29Z" fill="#262521"/><path d="M615.4,753.21h-.13v-.33C615.3,753,615.35,753.1,615.4,753.21Z" fill="#262521"/><path d="M607.11,753.38h0a2.58,2.58,0,0,0,0-.39Z" fill="#262521"/><polygon points="588.32 837.13 588.24 837.59 588.15 837.13 588.32 837.13" fill="#262521"/><path d="M583.55,839h-.22a3,3,0,0,0,.22-.28Z" fill="#262521"/><rect x="606.01" y="798.86" width="0.32" height="0.02" transform="translate(-16.11 12.48) rotate(-1.16)" fill="#262521"/><rect x="602.52" y="798.91" width="1.74" height="0.02" transform="translate(-16.11 12.42) rotate(-1.16)" fill="#262521"/><polygon points="615 813.06 614.95 812.96 615 812.96 615 813.06" fill="#262521"/><path d="M611.52,783.33h0Z" fill="#262521"/><path d="M567.61,799.94l.11.06a.6.6,0,0,1-.11.06Z" fill="#262521"/><polygon points="593.57 872.24 593.69 872.24 593.58 872.77 593.57 872.24" fill="#262521"/><path d="M575.09,785.22v-.13h.13s0,0,0,0S575.12,785.18,575.09,785.22Z" fill="#262521"/><path d="M561.15,799.77v0l-2,0v0Z" fill="#262521"/><polygon points="545.54 800.15 545.52 800.09 545.54 800.09 545.54 800.15" fill="#262521"/><polygon points="560.85 884.33 561 884.33 560.86 884.79 560.85 884.33" fill="#262521"/><polygon points="557.95 934.91 557.76 934.91 557.86 934.6 557.95 934.91" fill="#262521"/><polygon points="630.33 827.43 630.33 827.43 630.33 827.44 630.33 827.43" fill="#262521"/><polygon points="561 951.17 560.88 951.55 560.88 951.17 561 951.17" fill="#262521"/><path d="M613.77,933.71s0,0,.05.06h-.05Z" fill="#262521"/><polygon points="644.37 933.15 644.29 933.15 644.37 932.91 644.37 933.15" fill="#262521"/><path d="M585.42,725.83c0-.07,0-.14.05-.2v.19Z" fill="#262521"/><path d="M572.56,726.05l1.72,0,.26,0h0l-2,0Z" fill="#262521"/><path d="M550.29,726.54v-.1l.21,0v0Z" fill="#262521"/><path d="M538.56,724.9v-.08h.2v.08Z" fill="#262521"/><path d="M534.22,726.87h-.05v-.13S534.2,726.83,534.22,726.87Z" fill="#262521"/><polygon points="539.4 830.17 539.39 830.02 539.48 830.16 539.4 830.17" fill="#262521"/><path d="M541.13,724.85h-.59s0-.05,0-.08h.55Z" fill="#262521"/><path d="M543.71,951.52l-.28,1.37h0c0-.15,0-.31,0-.55s0-.53,0-.69v-.13Z" fill="#262521"/><polygon points="531.73 724.96 531.73 724.97 531.69 724.97 531.68 724.96 531.73 724.96" fill="#262521"/><path d="M587.14,966.13l0,0,.16.12h-.2Z" fill="#262521"/><path d="M562.5,743.24C561,705.43,513.43,548.37,501.83,528c3.16-2.23,5.27-4.31,6-6.15,2-5.22,2.7-13,2.69-21L505,501c-30.35-3.07-73.59,59.18-75.91,60.42h0c-29.94,19-59.31,40.57-85.19,59.32-44.73,27-35.8,384-30.27,452.4,5.65,69.91,0,198.42,5.73,218.37l89.11-1.54.28-59.69c18.34.81,48.64.61,94.44-1.47C507,1181.42,564.05,782.59,562.5,743.24Z" fill="#262521" stroke="#262521" stroke-linecap="round" stroke-linejoin="round" stroke-width="3"/><path d="M535.46,978.45c14.32-109,27.81-215.81,27-235.21-.31-7.84-2.6-20.81-6.14-36.63" fill="none" stroke="#636363" stroke-linecap="round" stroke-linejoin="round"/><path d="M877.22,1043c-3.84-55.87-37.47-431.58-75.77-456.57-33.33-21.71-70.56-35-107.81-47.67-6.52-12.33-24.82-41.19-53.24-41.19l-2.13.05c.77,12.88,2.53,25.11,6.37,28.41a36.51,36.51,0,0,0,7.29,3.9c-9.61,29.48-34.8,188.63-34.8,228.83,0,44.66,27.73,426.49,36,468.17,65-1.29,148.4-1.8,148.7-2.84,1-3.55-.47-10.89-.06-19.35,6.13,55.14,4.2,60.7,4.2,60.7s99.8,2.06,100.61-10.15S882.79,1124.26,877.22,1043Z" fill="#262521" stroke="#262521" stroke-linecap="round" stroke-linejoin="round" stroke-width="3"/><path d="M621.76,705.7c-2.83,23-4.63,42.3-4.63,53.06,0,15.45,3.32,71.24,8,139.35" fill="none" stroke="#636363" stroke-linecap="round" stroke-linejoin="round"/><path d="M499.08,799.42l.06,1" fill="none" stroke="#8e8e8e" stroke-linecap="round" stroke-linejoin="round" stroke-width="3"/><path d="M499.42,805.44c8.75,160.71,4.16,383,3.47,413.46" fill="none" stroke="#8e8e8e" stroke-linecap="round" stroke-linejoin="round" stroke-width="3" stroke-dasharray="2.01 5.04"/><path d="M502.83,1221.42c0,.66,0,1,0,1" fill="none" stroke="#8e8e8e" stroke-linecap="round" stroke-linejoin="round" stroke-width="3"/><path d="M476,656.55c.23.22.46.45.69.71" fill="none" stroke="#8e8e8e" stroke-linecap="round" stroke-linejoin="round" stroke-width="3"/><path d="M479.4,661.19c3.8,7,7.06,19.51,9.85,36.13" fill="none" stroke="#8e8e8e" stroke-linecap="round" stroke-linejoin="round" stroke-width="3" stroke-dasharray="1.9 4.76"/><path d="M489.64,699.67c.05.33.1.66.16,1" fill="none" stroke="#8e8e8e" stroke-linecap="round" stroke-linejoin="round" stroke-width="3"/><path d="M401,738c-17.92-115.81-55.42-114.08-55.42-114.08" fill="none" stroke="#636363" stroke-linecap="round" stroke-linejoin="round"/><path d="M319.47,1238.8s43.31,6,86-3.39" fill="none" stroke="#636363" stroke-linecap="round" stroke-linejoin="round"/><path d="M497.62,1197.8s-45.45,7.55-111.62,1.25" fill="none" stroke="#636363" stroke-linecap="round" stroke-linejoin="round"/><path d="M802.45,589.82s-20.07,31.36-23.94,131" fill="none" stroke="#636363" stroke-linecap="round" stroke-linejoin="round"/><path d="M807.09,1210.85s59.21,4.08,90-4" fill="none" stroke="#636363" stroke-linecap="round" stroke-linejoin="round"/><path d="M655.6,1195.28s96.19,8,144.49-4.66" fill="none" stroke="#636363" stroke-linecap="round" stroke-linejoin="round"/><path d="M641.42,1223.65c.05.85.09,1.7.14,2.54l1,17.93a1.89,1.89,0,0,0,.08.53,3.4,3.4,0,0,0,.12.34.3.3,0,0,0,0,.1,1.65,1.65,0,0,0,.18.32l.11.16.06.08a2.31,2.31,0,0,0,2,.95l7.4-.84a2.61,2.61,0,0,0,2.38-3.27c-.15-.84-.29-1.68-.44-2.52q-1.51-8.84-3-17.69a2.55,2.55,0,0,0-2.52-1.84l-5.09.58A2.62,2.62,0,0,0,641.42,1223.65Zm4.86,11.19,2.53-.34a1.71,1.71,0,0,1,1.91,1.47l.61,4.67a1.71,1.71,0,0,1-1.46,1.91l-2.53.33a1.71,1.71,0,0,1-1.91-1.46l-.62-4.68A1.7,1.7,0,0,1,646.28,1234.84Z" fill="#84837e"/><path d="M429.43,565.28s-12.92,30.52-23.58,45.45c-7.8,10.91,75.69,21,122.81,72.09" fill="none" stroke="#636363" stroke-linecap="round" stroke-linejoin="round"/><path d="M694.35,542.45s65.52,67.32,66.16,79.52c0,0-91,60.25-92.11,72" fill="none" stroke="#636363" stroke-linecap="round" stroke-linejoin="round"/><path d="M721.4,723.84s-68.91,56-92.1,188.83c0,0,8,111.53,26.09,309.75" fill="none" stroke="#8e8e8e" stroke-linecap="round" stroke-linejoin="round" stroke-width="3" stroke-dasharray="2 5"/><rect x="641.11" y="1202.29" width="9.14" height="23.71" rx="1" transform="translate(-71.93 41.08) rotate(-3.45)" stroke-width="3" stroke="#262521" stroke-linecap="round" stroke-linejoin="round" fill="#262521"/><path d="M726.19,721.5s-80.07-33.76-93.65-51.91" fill="none" stroke="#636363" stroke-linecap="round" stroke-linejoin="round"/><path d="M545,669.59c-13.57,18.15-94.8,54.25-94.8,54.25s65.4,47.6,88.55,183" fill="none" stroke="#636363" stroke-linecap="round" stroke-linejoin="round"/><circle cx="700.94" cy="721.5" r="4.12" fill="#636363"/><circle cx="471.12" cy="725.34" r="4.12" fill="#636363"/><circle cx="421.48" cy="607.41" r="4.12" fill="#636363"/><circle cx="744.22" cy="618.19" r="4.12" fill="#636363"/><path d="M445.77,1275.23c-2.21-17.32-8.85-62.52-8.85-62.52H405.49s4.45,46.61,9.54,68.57c1.72,7.44,22.07,21.13,22.07,21.13S446.4,1280.12,445.77,1275.23Zm-25.12-29.94a5,5,0,1,1,5,5A5,5,0,0,1,420.65,1245.29Zm2.8,18.15a5,5,0,1,1,5,5A5,5,0,0,1,423.45,1263.44Zm8.6,25.53a5,5,0,1,1,5-5A5,5,0,0,1,432.05,1289Z" fill="#262521" stroke="#262521" stroke-linecap="round" stroke-linejoin="round" stroke-width="3"/><line x1="791.37" y1="1281.95" x2="791.69" y2="1293.89" fill="none" stroke="#84837e" stroke-linecap="round" stroke-miterlimit="10" stroke-width="3"/><rect x="771.82" y="1279.62" width="39.63" height="24.49" rx="3" transform="translate(-35.17 22.22) rotate(-1.57)" fill="none" stroke="#84837e" stroke-miterlimit="10" stroke-width="3"/><rect x="776.05" y="1215.69" width="28.85" height="67.49" transform="translate(-34 22.17) rotate(-1.57)" stroke-width="3" stroke="#262521" stroke-linecap="round" stroke-linejoin="round" fill="#262521"/><line x1="678.39" y1="925.3" x2="693.63" y2="1066.23" fill="none" stroke-dasharray="2 5" stroke-linecap="round" stroke-linejoin="round" stroke-width="3" stroke="#8e8e8e"/><path d="M674.75,924.85l.12,2.12q.42,7.47.85,14.94a2.12,2.12,0,0,0,.06.44,2,2,0,0,0,.11.29s0,.06,0,.08a1.43,1.43,0,0,0,.15.27l.09.13.05.06a1.94,1.94,0,0,0,1.69.8l6.17-.7a2.17,2.17,0,0,0,2-2.73l-.36-2.09q-1.26-7.38-2.53-14.76a2.12,2.12,0,0,0-2.1-1.52l-4.25.48A2.18,2.18,0,0,0,674.75,924.85Zm4,9.32,2.11-.27a1.41,1.41,0,0,1,1.59,1.22L683,939a1.41,1.41,0,0,1-1.22,1.59l-2.11.28a1.43,1.43,0,0,1-1.59-1.22l-.51-3.9A1.43,1.43,0,0,1,678.8,934.17Z" fill="#84837e"/><line x1="462.15" y1="930.41" x2="458.8" y2="1072.12" fill="none" stroke-dasharray="2 5" stroke-linecap="round" stroke-linejoin="round" stroke-width="3" stroke="#8e8e8e"/><path d="M463.49,927.44l-4.27-.12a2.11,2.11,0,0,0-2,1.69L456,943.93l-.18,2.12a2.17,2.17,0,0,0,2.2,2.55l6.2.18a1.92,1.92,0,0,0,1.62-.94.18.18,0,0,0,.05-.07l.08-.13a2.39,2.39,0,0,0,.13-.28s0-.06,0-.09a2.45,2.45,0,0,0,.08-.29,1.66,1.66,0,0,0,0-.44q-.21-7.49-.41-15l-.06-2.12A2.17,2.17,0,0,0,463.49,927.44Zm.34,13.12-.19,3.93a1.42,1.42,0,0,1-1.48,1.35l-2.13-.1a1.43,1.43,0,0,1-1.35-1.48l.19-3.93a1.42,1.42,0,0,1,1.48-1.35l2.13.1A1.43,1.43,0,0,1,463.83,940.56Z" fill="#84837e"/></svg>