<svg xmlns="http://www.w3.org/2000/svg" width="1000" height="1550" viewBox="0 0 1000 1550"><path d="M752.23 1043c-3.83-55.86-22.88-124.63-22.88-124.63s-14.59-306.94-52.89-331.94c-10.88-7.1-142.29-56.2-142.29-56.2s-3.42 25.11-82.84 55c-15.53 0-82.1-39.23-86.21-51.38a10.64 10.64 0 01-.75-2.59c-1 .65-100.94 62.7-145.44 89.51-44.73 26.94-26.68 324.27-26.68 324.27a619.79 619.79 0 00-3.6 128.12c5.53 68.42-1.88 179.21 14.45 197.94l61-1.5s-5.6-14.34-4.65-27c2.27-30.22 5.53-104.26 15.36-135.22s21.45-88.31 21.45-88.33c.49 23.68.3 42.23-1 50.33-3.6 21.92-31.66 102.78-17.78 133.07-3.34 29.29-5.7 66.94-5.7 66.94s101 22.74 178 21.81c137.52-1.65 234.84-32.69 234.84-32.69s-2.28-35.71-5.32-60.53c9.94-22.61-4.2-83.52-17.92-143 17.07 47.17 40.25 126.64 42.46 162.33 1.64 26.39 2.89 34.36 2.89 34.36h58.1s4.48-6.67 5.3-18.88-12.32-108.48-17.9-189.79z" fill="#262521" stroke="#262521" stroke-linecap="round" stroke-linejoin="round" stroke-width="3"/><path d="M545.49 718.41c4.55-6.14 12.15-4.35 18.94-5 10.83-.09 28.71-4.59 33.83 7.74 6.31 15.71-9.57 16.42-3.69 23.15 6.26 6.36 2.09 16.87 10.31 21.76 2.16 1.12 1 3.7-.86 5.17-9.14 7.32-22 2.61-24.37-8.9-.93-4.86-.77-12.43-6.81-13.55-2.93-.17-2.69 2.81-2.74 5-.15 4.18-1 9.05 2 12.48 9.91 11.84-19.94 10.58-26.06 9.28-3.38-.5-6.91.55-10.25.94q-18.37.57-36.75 1a31.07 31.07 0 01-6.18-.12c-3.66-.63-5.24-5.22-2.21-7.09 10-6.55 7-26.51 8.94-37.3.55-3.29-2.7-6.08-4.88-7.91-6.43 1.4-13.91 25.26-18.15 32-3.2 6-5.25 12.94-10.14 17.82-4.73 4.35-10.79 3.2-13-2.79-3.06-8.25-5.55-16.71-8.21-25.11-3-5.92-1.92-18.23-10.09-19.16 9.44 30.78-24.23 64.54-53.6 46.34-2.47-1.49-4.1-2.07-5.66.79-2.2 4.05-5.52 4.7-10 4.63-11.69-.16-23.38.51-35.07.86-2.81.57-7.06-.64-8.72-2.43-2.75-4.3 6.67-8 6.69-12.88 1.47-9.5 2.42-19.09 3.5-28.66.32-2.86-.75-4.86-3.43-6.41-3.68-2.13-3.52-5.91.48-7.51 5.91-2.56 29.07-6.66 31 1.52-.8 3.2-6.75 6.72-7.17 10.17-1.12 10.11-1.59 20.29-2.2 30.46.59 8.68 14.43 3.79 17.87-1.36 4.35-4.92 5.27-10.37 6.7-16.18 4.17-23.75 34.82-40.85 54.79-23.65.6.51 1.33.86 1.55.16 8.31-7.78 19.9-9.59 30.57-6 9 4.18-3.46 7.61-.92 13.39 1.44 5.17 2.76 10.37 4.32 15.5 1 2.36 3.19 3.31 4.57.32 2.24-5.62 4.51-11.24 6.29-17 .78-5-7.57-10.56.85-13 8.48-2.27 17.49-1 26.17-1.47 11-.36 22-1.14 33-1.12 2.64-.03 5.3 2.42 8.79 4.12zm1.88 44.81c1-1.58 1.8-2.33 1.87-3.14.88-10.25 1.74-20.5 2.4-30.76.16-2.57-.7-5.27-3.88-5.38-3.36-.11-1.63 3.12-2.54 4.65s-2.27 4-3.73 4.28c-2.08 0-5.6-1.74-6.67-4-2.59-3.61-6.7-4.87-11.38-3.64-5.88 1.58-4.64 10.73-2.47 14.7 2.29-1.71 5.28-6.43 7.37-7.25 8 2.1 4.44 13.35 4.86 19.52-.25 3.15-1.84 6.37-5.71 6.59-4.87.08-2.69-5.87-6.43-7.81-.81.79-2.25 1.54-2.32 2.39 0 4.68-2.06 12 4.22 13.29 6.24 1 10.28-2.21 13.53-7.36a8.07 8.07 0 015.9-3.16c2.03.72 3.78 4.28 4.98 7.08zm-150.14-1.55c2 10.4 8.71 4.13 12 .31 3.78-7.39 9.09-31.69-.54-34.53-3.32-.44-7.28 3.2-8.6 8.68-1.53 6.5-3.53 23.87-2.86 25.54zM571.3 731.1c-.3 3.1.14 10 4.67 6.43 3.34-3.22 4.72-15.52-2.15-15.26-2.91 1.41-2.46 8.83-2.52 8.83z" fill="#9b2727"/><path d="M545.49 718.41c4.55-6.14 12.15-4.35 18.94-5 10.83-.09 28.71-4.59 33.83 7.74 6.31 15.71-9.57 16.42-3.69 23.15 6.26 6.36 2.09 16.87 10.31 21.76 2.16 1.12 1 3.7-.86 5.17-9.14 7.32-22 2.61-24.37-8.9-.93-4.86-.77-12.43-6.81-13.55-2.93-.17-2.69 2.81-2.74 5-.15 4.18-1 9.05 2 12.48 9.91 11.84-19.94 10.58-26.06 9.28-3.38-.5-6.91.55-10.25.94q-18.37.57-36.75 1a31.07 31.07 0 01-6.18-.12c-3.66-.63-5.24-5.22-2.21-7.09 10-6.55 7-26.51 8.94-37.3.55-3.29-2.7-6.08-4.88-7.91-6.43 1.4-13.91 25.26-18.15 32-3.2 6-5.25 12.94-10.14 17.82-4.73 4.35-10.79 3.2-13-2.79-3.06-8.25-5.55-16.71-8.21-25.11-3-5.92-1.92-18.23-10.09-19.16 9.44 30.78-24.23 64.54-53.6 46.34-2.47-1.49-4.1-2.07-5.66.79-2.2 4.05-5.52 4.7-10 4.63-11.69-.16-23.38.51-35.07.86-2.81.57-7.06-.64-8.72-2.43-2.75-4.3 6.67-8 6.69-12.88 1.47-9.5 2.42-19.09 3.5-28.66.32-2.86-.75-4.86-3.43-6.41-3.68-2.13-3.52-5.91.48-7.51 5.91-2.56 29.07-6.66 31 1.52-.8 3.2-6.75 6.72-7.17 10.17-1.12 10.11-1.59 20.29-2.2 30.46.59 8.68 14.43 3.79 17.87-1.36 4.35-4.92 5.27-10.37 6.7-16.18 4.17-23.75 34.82-40.85 54.79-23.65.6.51 1.33.86 1.55.16 8.31-7.78 19.9-9.59 30.57-6 9 4.18-3.46 7.61-.92 13.39 1.44 5.17 2.76 10.37 4.32 15.5 1 2.36 3.19 3.31 4.57.32 2.24-5.62 4.51-11.24 6.29-17 .78-5-7.57-10.56.85-13 8.48-2.27 17.49-1 26.17-1.47 11-.36 22-1.14 33-1.12 2.64-.03 5.3 2.42 8.79 4.12zm1.88 44.81c1-1.58 1.8-2.33 1.87-3.14.88-10.25 1.74-20.5 2.4-30.76.16-2.57-.7-5.27-3.88-5.38-3.36-.11-1.63 3.12-2.54 4.65s-2.27 4-3.73 4.28c-2.08 0-5.6-1.74-6.67-4-2.59-3.61-6.7-4.87-11.38-3.64-5.88 1.58-4.64 10.73-2.47 14.7 2.29-1.71 5.28-6.43 7.37-7.25 8 2.1 4.44 13.35 4.86 19.52-.25 3.15-1.84 6.37-5.71 6.59-4.87.08-2.69-5.87-6.43-7.81-.81.79-2.25 1.54-2.32 2.39 0 4.68-2.06 12 4.22 13.29 6.24 1 10.28-2.21 13.53-7.36a8.07 8.07 0 015.9-3.16c2.03.72 3.78 4.28 4.98 7.08zm-150.14-1.55c2 10.4 8.71 4.13 12 .31 3.78-7.39 9.09-31.69-.54-34.53-3.32-.44-7.28 3.2-8.6 8.68-1.53 6.5-3.53 23.87-2.86 25.54zM571.3 731.1c-.3 3.1.14 10 4.67 6.43 3.34-3.22 4.72-15.52-2.15-15.26-2.91 1.41-2.46 8.83-2.52 8.83z" fill="none" stroke="#d11919" stroke-miterlimit="10" stroke-width="3.44"/><path d="M337.36 729.46a1.94 1.94 0 000-3.88c-2.49 0-2.49 3.88 0 3.88zM348.93 773.73a1.94 1.94 0 000-3.88c-2.49 0-2.49 3.88 0 3.88z" fill="#fff"/><path d="M352.72 774.45a1.94 1.94 0 000-3.87c-2.49 0-2.5 3.87 0 3.87zM344.51 777.5a1.94 1.94 0 000-3.88c-2.49 0-2.49 3.88 0 3.88zM342.11 769.75a1.94 1.94 0 000-3.87c-2.49 0-2.49 3.87 0 3.87zM357.24 777.22c2.49 0 2.5-3.88 0-3.88s-2.5 3.88 0 3.88zM362.11 774.57a1.94 1.94 0 000-3.88c-2.49 0-2.49 3.88 0 3.88zM366.94 776.85c2.49 0 2.5-3.88 0-3.88s-2.5 3.88 0 3.88zM374.93 766.42c2.49 0 2.5-3.88 0-3.88s-2.5 3.88 0 3.88zM391.61 775.11a1.94 1.94 0 000-3.88c-2.49 0-2.49 3.88 0 3.88zM394.39 768.9c2.49 0 2.49-3.87 0-3.87a1.94 1.94 0 000 3.87zM397.38 772.71c2.49 0 2.5-3.87 0-3.87s-2.5 3.87 0 3.87zM419.36 728.26c2.49 0 2.5-3.88 0-3.88s-2.5 3.88 0 3.88zM424.48 725.88c2.49 0 2.5-3.88 0-3.88s-2.5 3.88 0 3.88zM428.77 729.67c2.49 0 2.5-3.88 0-3.88a1.94 1.94 0 000 3.88z" fill="#fff"/><path d="M422.63 730.12a1.94 1.94 0 000-3.87c-2.49 0-2.49 3.87 0 3.87zM424.7 735.9a1.94 1.94 0 000-3.88c-2.49 0-2.5 3.88 0 3.88zM418.2 734.1c2.49 0 2.49-3.87 0-3.87a1.94 1.94 0 000 3.87zM457.11 724.51c2.49 0 2.5-3.87 0-3.87s-2.5 3.87 0 3.87z" fill="#fff"/><path d="M460.32 723.47c2.49 0 2.5-3.87 0-3.87s-2.5 3.87 0 3.87zM458.89 746.79a1.94 1.94 0 000-3.88c-2.49 0-2.49 3.88 0 3.88zM463.14 749a1.94 1.94 0 000-3.88c-2.49 0-2.49 3.88 0 3.88zM459.31 751c2.49 0 2.5-3.87 0-3.87s-2.5 3.87 0 3.87zM466.83 754.7c2.49 0 2.49-3.88 0-3.88a1.94 1.94 0 000 3.88zM462.39 758.67c2.49 0 2.5-3.87 0-3.87a1.94 1.94 0 000 3.87z" fill="#fff"/><path d="M459.1 756.16c2.49 0 2.5-3.88 0-3.88s-2.5 3.88 0 3.88zM494.85 720.45c2.49 0 2.5-3.87 0-3.87s-2.5 3.87 0 3.87zM500.1 723.89c2.49 0 2.5-3.87 0-3.87s-2.5 3.87 0 3.87zM512.39 753.37c2.49 0 2.5-3.88 0-3.88s-2.5 3.88 0 3.88zM518.08 747.42c2.49 0 2.5-3.87 0-3.87s-2.5 3.87 0 3.87zM524.89 748.57a1.94 1.94 0 000-3.88c-2.49 0-2.49 3.88 0 3.88zM511.86 744c2.49 0 2.5-3.87 0-3.87s-2.5 3.87 0 3.87zM531.74 721.58c2.49 0 2.5-3.88 0-3.88a1.94 1.94 0 000 3.88zM537.89 721.77c2.49 0 2.49-3.88 0-3.88a1.94 1.94 0 000 3.88zM538.34 727.58c2.49 0 2.49-3.88 0-3.88a1.94 1.94 0 000 3.88zM576 718.67a1.94 1.94 0 000-3.88c-2.49 0-2.5 3.88 0 3.88zM582.11 718.53a1.94 1.94 0 000-3.88c-2.49 0-2.49 3.88 0 3.88zM582.22 723.38c2.49 0 2.5-3.88 0-3.88s-2.5 3.88 0 3.88zM563.25 742.87c2.49 0 2.5-3.87 0-3.87a1.94 1.94 0 000 3.87zM567.51 745.69a1.94 1.94 0 000-3.88c-2.49 0-2.49 3.88 0 3.88zM562.81 752.26c2.49 0 2.5-3.88 0-3.88a1.94 1.94 0 000 3.88z" fill="#fff"/><path d="M349.52 727.21c2.49 0 2.49-3.88 0-3.88a1.94 1.94 0 000 3.88zM346.4 731.8c2.49 0 2.5-3.88 0-3.88s-2.5 3.88 0 3.88z" fill="#491212"/><path d="M348.85 735.47c2.49 0 2.5-3.87 0-3.87s-2.5 3.87 0 3.87zM342 740.37a1.94 1.94 0 000-3.88c-2.49 0-2.49 3.88 0 3.88zM346.34 744.51c2.49 0 2.5-3.88 0-3.88s-2.5 3.88 0 3.88zM347.29 749.23c2.49 0 2.5-3.88 0-3.88s-2.5 3.88 0 3.88zM343.81 752.69c2.49 0 2.5-3.87 0-3.87s-2.5 3.87 0 3.87zM347 758.89c2.49 0 2.49-3.87 0-3.87a1.94 1.94 0 000 3.87zM387.86 737.49c2.49 0 2.5-3.87 0-3.87s-2.5 3.87 0 3.87zM382.89 742.69c2.49 0 2.5-3.88 0-3.88s-2.5 3.88 0 3.88zM384 747.74c2.49 0 2.5-3.87 0-3.87s-2.5 3.87 0 3.87zM379.89 752.58c2.49 0 2.5-3.88 0-3.88s-2.5 3.88 0 3.88zM383.27 760a1.94 1.94 0 000-3.88c-2.49 0-2.5 3.88 0 3.88zM391.28 762.15a1.94 1.94 0 000-3.87c-2.49 0-2.5 3.87 0 3.87zM388.54 752.9c2.49 0 2.49-3.88 0-3.88a1.94 1.94 0 000 3.88zM393.88 749.22c2.49 0 2.5-3.87 0-3.87a1.94 1.94 0 000 3.87zM392.2 742.48a1.94 1.94 0 000-3.87c-2.49 0-2.49 3.87 0 3.87zM422.65 755.87a1.94 1.94 0 000-3.87c-2.49 0-2.49 3.87 0 3.87zM417.88 762.08c2.49 0 2.5-3.88 0-3.88a1.94 1.94 0 000 3.88zM418 767c2.49 0 2.49-3.88 0-3.88a1.94 1.94 0 000 3.88zM423.33 763.65a1.94 1.94 0 000-3.88c-2.49 0-2.49 3.88 0 3.88zM417.16 752.6c2.49 0 2.5-3.87 0-3.87s-2.5 3.87 0 3.87zM409.93 770.38c2.49 0 2.5-3.87 0-3.87s-2.5 3.87 0 3.87zM445.39 726.91a1.94 1.94 0 000-3.87c-2.49 0-2.49 3.87 0 3.87zM453.08 729.62c2.49 0 2.5-3.87 0-3.87a1.94 1.94 0 000 3.87zM446.3 737.05c2.49 0 2.49-3.87 0-3.87a1.94 1.94 0 000 3.87zM449.6 741.05a1.94 1.94 0 000-3.88c-2.49 0-2.5 3.88 0 3.88zM452.64 755.89c2.49 0 2.5-3.88 0-3.88s-2.5 3.88 0 3.88zM457.83 761a1.94 1.94 0 000-3.88c-2.49 0-2.49 3.88 0 3.88zM456.11 767.33c2.49 0 2.5-3.87 0-3.87s-2.5 3.87 0 3.87zM459.07 771c2.49 0 2.5-3.87 0-3.87s-2.5 3.87 0 3.87zM469.52 760.94a1.94 1.94 0 000-3.88c-2.49 0-2.5 3.88 0 3.88zM475.25 752a1.94 1.94 0 000-3.87c-2.49 0-2.49 3.87 0 3.87zM483.28 723.87c2.49 0 2.49-3.87 0-3.87a1.94 1.94 0 000 3.87zM513.46 725.07c2.49 0 2.49-3.87 0-3.87a1.94 1.94 0 000 3.87zM508.1 728.07c2.49 0 2.5-3.87 0-3.87s-2.5 3.87 0 3.87zM511.44 733.42c2.49 0 2.5-3.88 0-3.88a1.94 1.94 0 000 3.88zM504.71 750.85c2.49 0 2.49-3.88 0-3.88a1.94 1.94 0 000 3.88zM504.41 768c2.49 0 2.49-3.87 0-3.87a1.94 1.94 0 000 3.87zM497.44 774.55c2.49 0 2.49-3.87 0-3.87a1.94 1.94 0 000 3.87zM505.56 774.21c2.49 0 2.5-3.88 0-3.88s-2.5 3.88 0 3.88zM500 769.08c2.49 0 2.49-3.88 0-3.88a1.94 1.94 0 000 3.88zM502.72 760.55c2.49 0 2.49-3.88 0-3.88a1.94 1.94 0 000 3.88zM536.33 771.5a1.94 1.94 0 000-3.88c-2.49 0-2.5 3.88 0 3.88zM539.11 767a1.94 1.94 0 000-3.88c-2.49 0-2.49 3.88 0 3.88zM543.12 772.19a1.94 1.94 0 000-3.87c-2.49 0-2.49 3.87 0 3.87zM557.77 767.81c2.49 0 2.49-3.88 0-3.88a1.94 1.94 0 000 3.88z" fill="#491212"/><path d="M558.52 771.52a1.94 1.94 0 000-3.88c-2.49 0-2.49 3.88 0 3.88zM564.62 771.55a1.94 1.94 0 000-3.87c-2.49 0-2.49 3.87 0 3.87zM564.43 762.75c2.49 0 2.5-3.88 0-3.88s-2.5 3.88 0 3.88zM556.55 758.68c2.49 0 2.5-3.87 0-3.87a1.94 1.94 0 000 3.87zM558.19 725.61a1.94 1.94 0 000-3.87c-2.49 0-2.5 3.87 0 3.87zM565.19 720.38a1.94 1.94 0 000-3.88c-2.49 0-2.5 3.88 0 3.88zM565.35 727.49c2.49 0 2.5-3.88 0-3.88s-2.5 3.88 0 3.88zM585.74 738.05c2.49 0 2.5-3.87 0-3.87s-2.5 3.87 0 3.87zM589.13 730.35c2.49 0 2.5-3.87 0-3.87s-2.5 3.87 0 3.87zM593.26 733.31c2.49 0 2.5-3.87 0-3.87s-2.5 3.87 0 3.87zM593.14 727.89c2.49 0 2.5-3.87 0-3.87s-2.5 3.87 0 3.87zM591.6 750.29c2.49 0 2.5-3.88 0-3.88s-2.5 3.88 0 3.88zM586.42 753.45c2.49 0 2.5-3.87 0-3.87a1.94 1.94 0 000 3.87zM592.68 760.94a1.94 1.94 0 000-3.88c-2.49 0-2.5 3.88 0 3.88zM593 767.54c2.49 0 2.49-3.88 0-3.88a1.94 1.94 0 000 3.88zM598.26 768.1c2.49 0 2.5-3.88 0-3.88s-2.5 3.88 0 3.88z" fill="#491212"/><path d="M271.71 1269.4s101 22.74 178 21.81c137.52-1.65 234.84-32.69 234.84-32.69M711 1219s30.63-3.84 52.36 0M200.27 1236.51s30.63-3.83 52.37 0M286.18 1219s167.07 41.73 378.15-4.33" fill="none" stroke="#636363" stroke-linecap="round" stroke-linejoin="round"/><path d="M369.5 528.17h0s.01-.03 0 0z" fill="#262521" stroke="#262521" stroke-linecap="round" stroke-linejoin="round" stroke-width="3"/><path d="M384.45 505.6c-9.77.9-16.24 2.61-18.34 5.58-7.68 10.89-16.71 12.58-16.71 12.58s-19.3 5.47-26.12 10.22c-9.13 6.35-25.56 26.91-20.94 35.36 41.38 4.3 141.28 80.73 155.57 80.5 8.12-.13 53.71-61.84 95.26-84.57 19.66-10.76 35.74-11.81 37.73-12.44 6.76-2.12-2.06-4.86-9.31-9.27s-6.69-11.56-9.46-16.86-13.87-2-13.87-2-.45-1.75-13.18-13.57-21-10.07-31.05-9.78l3.77 20.55c4.76 6 4.92 13 2.44 20.35-3.24 9.51-49.65 82.65-64 82.88s-74.38-79.74-76.35-88c-1.6-6.7-1.6-6.7 1.59-13.56z" fill="#262521"/><path d="M384.45 505.6c-9.77.9-16.24 2.61-18.34 5.58-7.68 10.89-16.71 12.58-16.71 12.58s-19.3 5.47-26.12 10.22c-9.13 6.35-25.56 26.91-20.94 35.36 41.38 4.3 141.28 80.73 155.57 80.5 8.12-.13 53.71-61.84 95.26-84.57 19.66-10.76 35.74-11.81 37.73-12.44 6.76-2.12-2.06-4.86-9.31-9.27s-6.69-11.56-9.46-16.86-13.87-2-13.87-2-.45-1.75-13.18-13.57-21-10.07-31.05-9.78l3.77 20.55c8.3 2.91 15.06 9.08 12.58 16.38-3.24 9.51-64.67 46.77-79.05 47s-83.75-42.29-85.72-50.5c-1.61-6.7 8.47-3.26 15.35-11.17z" fill="none" stroke="#262521" stroke-linecap="round" stroke-linejoin="round" stroke-width="4.03"/><path d="M302.34 569.34c41.38 4.3 140.07 46 154.36 45.74 8.12-.13 54.92-27.08 96.47-49.81 19.66-10.76 35.74-11.81 37.73-12.44" fill="none" stroke="#636363" stroke-linecap="round" stroke-linejoin="round" stroke-width="1.34" opacity=".95"/><path d="M472.21 593.12c.9 12.84 1.54 25.71 2.18 38.57q1.38 27.43 2.59 54.88 1.39 30.42 2.74 60.83 1.27 28.27 2.61 56.53c.67 13.7 1.33 27.4 2.19 41.09.08 1.16.15 2.31.23 3.47a3.07 3.07 0 003 3 3 3 0 003-3c-.87-12.91-1.5-25.84-2.14-38.77q-1.35-27.48-2.56-55-1.38-30.42-2.73-60.84-1.27-28.21-2.64-56.44c-.67-13.63-1.34-27.27-2.24-40.89-.07-1.15-.15-2.3-.23-3.45a3.08 3.08 0 00-3-3 3 3 0 00-3 3zM426.82 594.22c.89 12.66 1.55 25.34 2.18 38q1.35 27 2.4 54 1.19 29.85 2.08 59.71c.54 18.3 1 36.62 1.21 54.93.16 13.51.29 27-.2 40.56l-.15 3.48a3 3 0 006 0c.63-12.67.52-25.38.41-38-.16-18-.57-36-1.07-54q-.82-29.85-2-59.7-1.07-27.46-2.38-54.93c-.65-13.51-1.34-27-2.23-40.53l-.24-3.47a3.06 3.06 0 00-3-3 3 3 0 00-3 3z" fill="#636363"/><path fill="none" stroke="#a5a5a5" stroke-linecap="round" stroke-linejoin="round" stroke-width="6" d="M487.75 848.49l-.56-10.12M437.34 844.9l.46-10.59"/></svg>