<svg xmlns="http://www.w3.org/2000/svg" width="1000" height="1550" viewBox="0 0 1000 1550"><path fill="#3d4244" d="M698.79 1576.64l-16.87-249.77H285.1l7.96 249.77h405.73z"/><path fill="none" stroke="#fff" stroke-linecap="round" stroke-linejoin="round" stroke-width="3" d="M292.36 1495.44l20.97-4.54M289.36 1414.05l19.04-4.12M309.17 1422.6l152.36 13.01M314.18 1504.86l140.56 12"/><path d="M305.14 1356.35c4.36 71.7 8.36 144.7 13.2 216.88" fill="none" stroke="#262521" stroke-linecap="round" stroke-linejoin="round" stroke-width="3"/><path d="M365.06 1324.78c-7.56 83.27-10.56 165.27-17 248.43M462.02 1429.77l114.13-1.44M455.21 1511.17l130.35-1.29M491.22 1326.72c1.28 82.33 2.28 164.33 3.46 246.5M629.91 1421.02l57.58-4.48M636.05 1502.08l57.14-4.29M669.81 1314.92c7.69 86.13 11.69 172.13 18.38 258.34M560.27 1326.72c1.23 82.33 2.23 164.33 3.46 246.5M578.94 1434.33l50.97-5M586.86 1515.44l49.19-4.7M611.45 1328.87c8 81.18 14 163.18 21.74 244.42M446.92 1324.78c-6.42 83.27-9.42 165.27-17 248.43" fill="none" stroke="#fff" stroke-linecap="round" stroke-linejoin="round" stroke-width="3"/><path d="M468.16 1356.35l-1.24 14.92-3.21 38.29-4.33 51.82-4.67 55.86-4.22 50.44-.45 5.37M624.39 1344c5.11 76 11.11 153 16.5 229.15M570.54 1348.25c7 74.8 15 149.8 22 224.81" fill="none" stroke="#262521" stroke-linecap="round" stroke-linejoin="round" stroke-width="3"/><path fill="none" stroke="#262521" stroke-linecap="round" stroke-linejoin="round" stroke-width="3" d="M698.79 1576.64l-16.87-249.77H285.1l7.96 249.77h405.73z"/><path d="M279.05 1266.43l4.14 114.93 6.42-.29s4.47-47.67 7.09-48.18c2.25-.44 2.88 63 5.56 62.48 1.17-.21 6.65 4.73 7.71-1.55 1.85-10.94 5.77-55 8.21-55.46 4.36-.74 7.06 48 12.26 47.19 8.67-1.34 15.91-21.85 27-23.3 55.17-7.23 159.59 14.66 225.4 2.46s106.58 11.92 106.58 11.92l-12-128.28zM377.76 520.52s24.49 39.6 69.35 42.77l-69 65.33s-35-73.46-23.12-87.94 22.77-20.16 22.77-20.16zM521.89 522.71s-19.17 31.82-71.59 40.58l69.95 65.33s36.36-68.49 27.76-85.15c-11.21-12.6-26.12-20.76-26.12-20.76z" fill="#fff" stroke="#262521" stroke-linecap="round" stroke-linejoin="round" stroke-width="3"/><circle cx="448.98" cy="575.83" r="4.65" fill="#262521" opacity=".2"/><path d="M752.22 1043c-3.84-55.87-22.89-124.63-22.89-124.63s-14.58-307-52.88-331.94c-10.88-7.11-142.85-58.21-142.85-58.21s-17.23 47.45-84.6 47.61c-65.09.15-85.74-48.46-85.74-48.46s-99.59 66.42-144.33 93.37S192.24 945 192.24 945a619.73 619.73 0 00-3.6 128.12c5.52 68.42 4.28 195.54 17.3 226.18 0 0 3.67-11.3 8.4-8.7s3.52-6.52 6.63-7.24c1.78-.41 5.85 2.11 7.69 1.77 3.78-.69 5-7.2 7.86-4.49s5.51-3.44 7.49-3.26c2.74.24 4.11 7.68 6.76 8.12 2.88.48 6.82-4.53 9.11-4a7.1 7.1 0 015.15 3.65s-6.59-29.91-5.64-42.58c2.28-30.22 5.54-104.26 15.36-135.21 4.81-15.15 10.05-36.61 14.14-54.59-3.57 34.79-21.75 150.2-10.41 175.24 0 13-1.09 67.21-1.09 67.21a41.19 41.19 0 0118.47-8.67c5.25-1 11.49 6.3 18 5.12 4.25-.77 6.48-5.9 11-6.67 4-.69 13.28 2.3 17.54 1.7 5.58-.78 6.22-5.11 11.75-5.71 3.93-.42 7.07-4.21 10.77-4.53 7.08-.62 13.82 6.3 19.06 6.14 7-.22 13.53-2.75 19.75-1.93 4.48.6 7.53 9.47 12 10.38 4.87 1 11-3 16.15-1.82s12.65-.17 18.47.89c5.47 1 12.71 10.32 19.1 11 7.26.81 11.73-4.57 20.6-4.42 6.42.11 13.21 3.81 18.83 3.18 6.57-.74 11.84-5.94 17.59-7.42 3.58-.93 7-5.58 10.36-6.71 6.66-2.24 16.84 3.31 23 1.09 5.65-2 7.29-11.87 12.92-13.72 6.61-2.18 12.71-8.94 19.91-10.61 3.44-.79 7.63 3.27 11.32 2.64 7.4-1.27 15.54-5.37 22-5.93 10.24-.87 15.86 8.19 23.19 5.93 11.68-3.6 15.69 4.11 20.31 4.77a12.23 12.23 0 0011.32-4.37s-1.69-30-2.46-43.63c9.14-15.78-.83-82.08-9.9-146.45h0c15.78 47.16 33.43 110.92 35.35 141.83 1.63 26.39-2.37 54.41-2.37 54.41a74.51 74.51 0 0010.69-2.08c1.23-.38 2.46-4.11 3.85-4.51s2.9-2.47 4.46-2.9c2.45-.66 5 2 7.36 1.83 3.22-.25 6.16-3.21 8.31-3.27 1.9 0 4.4 2.91 7.08 3.68 1.26.36 2.5-1.71 3.83-1.24 1.52.53 3.92-1.62 5.44-1 2.34 1 1.19 6.11 3.13 7.41 1.12.76 5.34-5.23 6.26-4.51 2.75 2.17 4.09 12.63 4.09 12.63s4.19-24.35 4.15-45c.81-12.18-12.28-108.49-17.85-189.75z" fill="#262521" stroke="#262521" stroke-linecap="round" stroke-linejoin="round" stroke-width="3"/><path fill="none" stroke="#636363" stroke-linecap="round" stroke-linejoin="round" stroke-width="2" d="M744.95 1224.23v29.46M729.25 1224.29l.84 29.34M759.87 1224.11l-1.9 29.7M714.58 1224.49l2.74 28.94M234.54 1244.35l1.98 29.4M220.18 1245.07l3.05 28.74M205.74 1249.91l3.88 29.51M249.13 1243.79l.21 29.07M483.51 1242.81l2.56 50.06M503.01 1241.73l2.71 53.1M522.51 1240.24l2.34 45.84M542.01 1238.46l2.22 43.23M561.5 1236.24l1.94 37.86M581 1233.75l1.47 28.77M600.65 1231.08l.7 28.15M617.05 1229.08v27.28M347.96 1238.31l1.11 39.79M386.01 1241.31l1.94 36.35M367.13 1239.31l1.28 32.3M405.53 1241.83l1.94 37.86M287.01 1226.22l.02 57.21M307.07 1232.15l-.67 51.28M327.44 1235.52v45.14M425.03 1243.63l2.17 42.45M444.48 1243.73l2.17 42.35M464.01 1243.63l2.72 53.14M636.05 1226.46l.18 28.05M654.81 1223.21l-.16 36.02M671.36 1220.31l1.32 45.35M536.17 538.57l11.41 4.08M448.07 586.19v12.76M465.03 584.89l.66 12.74M480.04 582.33l2.06 12.15M493.65 577.12l4.41 11.54M506.31 570.44l6.7 9.87M516.99 561.31l10.15 7.71M528.6 551.01l10.57 4.59M363.81 540.28l-12.06 7.15M431.11 584.89l-.67 12.97M416.6 582.83l-2.03 11.97M403.05 577.8l-4.37 11.46M390.45 571.78l-6.48 9.54M379.21 563.49l-8.64 7.39M369.91 552.23l-10.32 6.75"/><path d="M540.11 577.65l-39.77 27.22s27.53-4.36 39.77-27.22zM344.89 557.65s10.18 19.44 17.35 24.8c0 0-15.84-6.88-17.35-24.8zM637 575.24s-17.05-2.42-20.66 10.32c-.03 0 13.76-10.56 20.66-10.32zM331.49 666.34l-7.57 7.13 5.57 1.78s-1.56-.67 2-8.91zM320.81 676.36s-4.45 5.35-4.45 8.68 11.35-4.34 11.35-4.34-5.79-1.89-6.9-4.34zM333.5 687.05s-17.14 5.12-17.14 12.24 4.89-4.67 17.14-12.24zM333.5 692.39s-12.69 9.8-11.47 13.13 11.47-13.13 11.47-13.13zM339.51 694.27s-14.58 10-13.36 16.37zM345.74 697.51c-6.23 2.89-15.58 12.91-15.36 14.47s12.69-3.56 16.7-3.56 4.92-13.8-1.34-10.91zM350.25 712.28s-11 3.26-15 2.82 11.05 5.71 15-2.82zM261 960.79s8.48 4 9.87 7.62 3.85-4.5-9.87-7.62zM257.4 963.56s7.51 8.83 9.12 8.14-3.41-7.96-9.12-8.14zM249.61 966s8.91 10.21 12.5 10.39-6.27-10.92-12.5-10.39zM243.55 969.33c-5.24-.07 11.6 11 13.85 11s-10.04-10.95-13.85-11zM252.73 983.13s-9.53-10.56-15.07-9.18-1.35 6.41 3.15 6.41 12.31 8 11.92 2.77zM252.74 989.88s-13.87-.34-15.6-1.21 7.12 7.1 15.6 1.21zM209.71 1181.58s-6.41 2.23-7.45 4.27-2.88-2.52 7.45-4.27zM212.45 1183.14s-5.67 4.94-6.88 4.55 2.57-4.46 6.88-4.55zM218.33 1184.49s-6.72 5.72-9.44 5.82 4.73-6.11 9.44-5.82zM502.33 1178.87l7.89 6.11s-5.33 2.17-8.88 0 .99-6.11.99-6.11zM507.07 1175.9s7.89 4.32 8.09 6.51-7.31-.78-8.09-6.51zM512.2 1174.13l8.48 6.51s-3.35-8.29-8.48-6.51zM516.44 1172s5.4 1.42 6.08 4.64c0-.04 2.16-6.53-6.08-4.64zM303.18 1207.86a39.14 39.14 0 00-.33 7c.29 2.31-10.72-4.56.33-7zM306.12 1208.71s-.3 7.22.93 7.62 14.91 1.38 16.32 1.08 2.09-2.68 0-5.21c-3.3-1.82-11.48-3.37-17.25-3.49zM326.19 1212.42s2.26 4.95.72 5.87 12.09-2.07-.72-5.87zM614.88 865.2s6.67 14.35 6.67 16.57 1.67-16.46-6.67-16.57zM614.88 875.38l-15.55 21.45s18.59-11.44 15.55-21.45zM744.63 1159.31s15.8 5.44 14.27 7.3-14.27-7.3-14.27-7.3zM737.15 1160.36s18.15 5.56 16.63 9.1zM729.39 1162.16c7.76 1.61 19.4 7.17 19.12 8s-15.79-2-20.78-2-6.1-7.61 1.66-6zM723.78 1170.36s13.65 1.82 18.63 1.57-13.72 3.17-18.63-1.57z" fill="#d2d2d2"/></svg>