<svg xmlns="http://www.w3.org/2000/svg" width="1250" height="1550" viewBox="0 0 1250 1550"><path d="M403.44 1252.94l397.56-4.83 22.8 267.08c-209.14 38.46-397.55 3.91-397.55 3.91z" fill="#262521" stroke="#262521" stroke-linecap="round" stroke-linejoin="round" stroke-width="3"/><path d="M877.22 1043c-3.84-55.87-22.89-124.63-22.89-124.63s-14.58-307-52.88-331.94c-10.88-7.11-142.29-56.21-142.29-56.21s-2.49 55-82.84 55c-65.09 0-82.1-39.23-86.22-51.38a11.73 11.73 0 01-.75-2.59c-1 .64-100.94 62.69-145.44 89.5C299.18 647.69 317.24 945 317.24 945a619.73 619.73 0 00-3.6 128.12c5.52 68.42-1.88 179.2 14.45 197.93l61-1.5s-5.61-14.34-4.66-27c2.28-30.22 5.54-104.26 15.36-135.21 4.92-15.48 9.78-37.06 13.91-55.27h.23c-3.88 32.6-26.11 146.78-14.71 171.94 0 13-1.32 46.49-1.32 46.49s73.26 18.64 150.25 17.71c137.53-1.66 260.87-23.64 260.87-23.64s-4.18-33-5-46.63c8.57-14.78.77-78.1-8.24-134.84h.22c15.66 47 30.92 103.57 32.82 134.18 1.63 26.39 2.88 34.36 2.88 34.36h58.1s4.49-6.66 5.3-18.88-12.31-108.5-17.88-189.76z" fill="#262521" stroke="#262521" stroke-linecap="round" stroke-linejoin="round" stroke-width="3"/><path d="M766.36 807.59s-6.48-155.7 27.7-208.66c-10.88-7.11-120-49.91-120-49.91S655.92 606 575.57 606c-65.09 0-96.26-51.38-96.24-51.47-1.05.65-80 46.8-124.46 73.61 55.77 82.8 55.77 179.49 55.77 179.49s6.72 200.59 3 244.49h.23c-3.88 32.6-26.11 146.78-14.71 171.94 0 13 114.69 22.54 191.58 18.43 143.72-7.7 199.85-7.7 213.26-24.5 8.57-14.78.77-78.1-8.24-134.84h.24c-14.22-80.5-5.89-93.95-29.64-275.56z" fill="#3a3934" stroke="#262521" stroke-linecap="round" stroke-linejoin="round" stroke-width="3"/><path d="M836 1219s30.63-3.83 52.37 0M325.25 1236.47s30.64-3.84 52.37 0" fill="none" stroke="#636363" stroke-linecap="round" stroke-linejoin="round"/><path d="M804 1218c14.5-25-19.76-173.14-21.56-243.1-1.22-47.58-16.1-167.27-16.1-167.27M410.64 807.59s5.34 199.1 3.82 238.13c-.83 21.49-27.59 151.13-15.28 178.31" fill="none" stroke="#262521" stroke-linecap="round" stroke-linejoin="round" stroke-width="3"/><path d="M397.86 1270.51s73.26 18.65 150.26 17.72c137.52-1.66 260.86-23.64 260.86-23.64" fill="none" stroke="#636363" stroke-linecap="round" stroke-linejoin="round"/><g opacity=".7" fill="#fff"><path d="M436.46 613.88c3.44 0 3.45-5.35 0-5.35s-3.45 5.35 0 5.35zM464.5 587c3.44 0 3.45-5.34 0-5.34s-3.44 5.34 0 5.34zM483.4 592.14c3.44 0 3.45-5.35 0-5.35s-3.45 5.35 0 5.35zM401 648c3.45 0 3.45-5.35 0-5.35s-3.44 5.35 0 5.35zM424.11 658.87c3.44 0 3.45-5.35 0-5.35s-3.45 5.35 0 5.35zM403 698.24c3.44 0 3.45-5.35 0-5.35s-3.45 5.35 0 5.35zM716.16 589c3.44 0 3.44-5.35 0-5.35s-3.45 5.35 0 5.35zM744.55 594.8c3.44 0 3.45-5.35 0-5.35s-3.45 5.35 0 5.35zM745 643.2c3.44 0 3.45-5.34 0-5.34s-3.45 5.34 0 5.34zM786.05 607.47c3.44 0 3.45-5.35 0-5.35s-3.45 5.35 0 5.35zM683.32 565.5c3.44 0 3.45-5.35 0-5.35s-3.45 5.35 0 5.35zM690.44 625.47c3.45 0 3.45-5.35 0-5.35s-3.44 5.35 0 5.35zM666.65 682.06c3.44 0 3.45-5.34 0-5.34s-3.45 5.34 0 5.34zM742.24 741.36c3.44 0 3.45-5.34 0-5.34s-3.44 5.34 0 5.34zM422.14 1069.86c3.44 0 3.45-5.35 0-5.35s-3.45 5.35 0 5.35zM447.79 1089.15c3.44 0 3.45-5.35 0-5.35s-3.45 5.35 0 5.35zM434.66 1145.35c3.44 0 3.45-5.35 0-5.35s-3.45 5.35 0 5.35zM489.77 1126.88c3.44 0 3.45-5.35 0-5.35s-3.45 5.35 0 5.35zM497.19 1211c3.44 0 3.45-5.35 0-5.35s-3.45 5.35 0 5.35zM543.58 1201.87c3.44 0 3.45-5.35 0-5.35s-3.44 5.35 0 5.35zM474.88 1175.6c3.44 0 3.44-5.34 0-5.34s-3.45 5.34 0 5.34zM429.16 1204.3c3.44 0 3.44-5.35 0-5.35s-3.45 5.35 0 5.35zM416 1160c3.45 0 3.45-5.35 0-5.35s-3.44 5.35 0 5.35zM432.33 1120.6c3.45 0 3.45-5.35 0-5.35s-3.44 5.35 0 5.35zM410.53 1144.67c3.44 0 3.44-5.34 0-5.34s-3.45 5.34 0 5.34zM410.53 1120.6c3.44 0 3.44-5.35 0-5.35s-3.45 5.35 0 5.35zM443.32 1178.2c3.45 0 3.45-5.35 0-5.35s-3.44 5.35 0 5.35zM411.87 1227.5c3.45 0 3.45-5.35 0-5.35s-3.44 5.35 0 5.35zM438.91 1231.58c3.44 0 3.44-5.35 0-5.35s-3.45 5.35 0 5.35zM435.8 1222.15c3.44 0 3.44-5.35 0-5.35s-3.45 5.35 0 5.35zM462.73 1216.7c3.44 0 3.45-5.34 0-5.34s-3.45 5.34 0 5.34zM485.67 1226.46c3.44 0 3.44-5.35 0-5.35s-3.45 5.35 0 5.35zM523.4 1184.48c3.44 0 3.44-5.35 0-5.35s-3.45 5.35 0 5.35zM472.28 1144.05c3.44 0 3.45-5.35 0-5.35s-3.45 5.35 0 5.35zM413.17 1177.73c3.44 0 3.45-5.35 0-5.35s-3.44 5.35 0 5.35zM679.44 1209.24c3.44 0 3.45-5.35 0-5.35s-3.45 5.35 0 5.35zM707.78 1157c3.44 0 3.44-5.34 0-5.34s-3.45 5.34 0 5.34zM718.94 1131c3.44 0 3.44-5.35 0-5.35s-3.45 5.35 0 5.35zM744.31 1167.83c3.44 0 3.45-5.35 0-5.35s-3.45 5.35 0 5.35zM757 1141.78c3.44 0 3.45-5.35 0-5.35s-3.44 5.35 0 5.35zM735.85 1141c3.44 0 3.45-5.35 0-5.35s-3.44 5.35 0 5.35zM722 1176.13c3.44 0 3.44-5.35 0-5.35s-3.45 5.35 0 5.35zM688.63 1169.75c3.44 0 3.44-5.35 0-5.35s-3.45 5.35 0 5.35zM700 1193.46c3.44 0 3.45-5.34 0-5.34s-3.45 5.34 0 5.34zM776.65 1222.23c3.44 0 3.44-5.35 0-5.35s-3.45 5.35 0 5.35zM653 1232.05c3.44 0 3.44-5.35 0-5.35s-3.45 5.35 0 5.35zM772.46 1133.74c3.44 0 3.44-5.35 0-5.35s-3.45 5.35 0 5.35zM791.64 1185.79c3.44 0 3.44-5.35 0-5.35s-3.45 5.35 0 5.35zM783 1144.79c3.45 0 3.45-5.35 0-5.35s-3.44 5.35 0 5.35zM761.54 1186.82c3.44 0 3.45-5.34 0-5.34s-3.45 5.34 0 5.34zM649.45 1169.59c3.44 0 3.44-5.35 0-5.35s-3.45 5.35 0 5.35zM420.77 760c3.44 0 3.44-5.35 0-5.35s-3.45 5.35 0 5.35zM444.53 819.56c3.44 0 3.45-5.35 0-5.35s-3.45 5.35 0 5.35zM476.19 776.28c3.44 0 3.44-5.35 0-5.35s-3.45 5.35 0 5.35zM400.9 631c3.44 0 3.44-5.35 0-5.35s-3.45 5.35 0 5.35zM420.77 618.26c3.44 0 3.44-5.35 0-5.35s-3.45 5.35 0 5.35zM407.2 609.75c3.44 0 3.45-5.35 0-5.35s-3.45 5.35 0 5.35zM389.21 621.44c3.44 0 3.44-5.35 0-5.35s-3.45 5.35 0 5.35zM371.79 626.47c3.44 0 3.45-5.35 0-5.35s-3.45 5.35 0 5.35zM445.39 642.1c3.45 0 3.45-5.35 0-5.35s-3.44 5.35 0 5.35zM418 644.13c3.45 0 3.45-5.34 0-5.34s-3.44 5.34 0 5.34zM430.66 651.17c3.44 0 3.45-5.35 0-5.35s-3.44 5.35 0 5.35zM433.11 599.7c3.44 0 3.44-5.35 0-5.35s-3.45 5.35 0 5.35zM431 629c3.44 0 3.44-5.34 0-5.34s-3.45 5.34 0 5.34zM410.09 629.3c3.44 0 3.45-5.35 0-5.35s-3.44 5.35 0 5.35zM415.32 653.3c3.44 0 3.45-5.35 0-5.35s-3.45 5.35 0 5.35zM403.32 662.52c3.44 0 3.44-5.35 0-5.35s-3.45 5.35 0 5.35zM380.67 643.55c3.45 0 3.45-5.35 0-5.35s-3.44 5.35 0 5.35zM439.19 672.94c3.44 0 3.44-5.35 0-5.35s-3.45 5.35 0 5.35zM460.89 676.85c3.44 0 3.45-5.35 0-5.35s-3.45 5.35 0 5.35zM459.07 607.89c3.44 0 3.45-5.35 0-5.35s-3.45 5.35 0 5.35zM454.65 584.2c3.44 0 3.45-5.34 0-5.34s-3.45 5.34 0 5.34zM481.17 581.09c3.44 0 3.44-5.35 0-5.35s-3.45 5.35 0 5.35zM480.35 624.65c3.45 0 3.45-5.35 0-5.35s-3.44 5.35 0 5.35zM766.78 640.29c3.44 0 3.45-5.34 0-5.34s-3.44 5.34 0 5.34zM753 633c3.44 0 3.44-5.35 0-5.35s-3.45 5.35 0 5.35zM766.38 628.7c3.45 0 3.45-5.35 0-5.35s-3.44 5.35 0 5.35zM763.05 610.62c3.44 0 3.45-5.35 0-5.35s-3.45 5.35 0 5.35zM752.67 590.08c3.44 0 3.45-5.35 0-5.35s-3.45 5.35 0 5.35zM773.05 597.5c3.44 0 3.45-5.34 0-5.34s-3.45 5.34 0 5.34zM773.18 612.59c3.44 0 3.45-5.34 0-5.34s-3.44 5.34 0 5.34zM744.31 605.85c3.44 0 3.45-5.35 0-5.35s-3.45 5.35 0 5.35zM743.39 624.07c3.44 0 3.45-5.35 0-5.35s-3.45 5.35 0 5.35zM768.13 656.89c3.44 0 3.45-5.35 0-5.35s-3.45 5.35 0 5.35zM752.64 679.1c3.44 0 3.45-5.35 0-5.35s-3.45 5.35 0 5.35zM758.52 713.31c3.44 0 3.45-5.34 0-5.34s-3.44 5.34 0 5.34zM707.4 975.8c3.44 0 3.45-5.35 0-5.35s-3.45 5.35 0 5.35zM759.55 1208.93c3.44 0 3.45-5.35 0-5.35s-3.44 5.35 0 5.35zM755.31 1198.24c3.44 0 3.45-5.35 0-5.35s-3.44 5.35 0 5.35zM755.31 1227.47c3.44 0 3.45-5.35 0-5.35s-3.44 5.35 0 5.35zM743.54 1204.84c3.44 0 3.45-5.35 0-5.35s-3.44 5.35 0 5.35zM717.07 1229.33c3.44 0 3.45-5.35 0-5.35s-3.44 5.35 0 5.35zM772.68 1208.09c3.44 0 3.45-5.34 0-5.34s-3.44 5.34 0 5.34zM772.46 1190.3c3.44 0 3.44-5.35 0-5.35s-3.45 5.35 0 5.35zM797.81 1218.45c3.44 0 3.45-5.35 0-5.35s-3.45 5.35 0 5.35zM790.72 1203.6c3.44 0 3.45-5.35 0-5.35s-3.45 5.35 0 5.35zM783 1192.26c3.45 0 3.45-5.35 0-5.35s-3.44 5.35 0 5.35zM800.77 1194.51c3.44 0 3.45-5.35 0-5.35s-3.45 5.35 0 5.35zM800.77 1176.13c3.44 0 3.45-5.35 0-5.35s-3.45 5.35 0 5.35zM793.23 1164c3.44 0 3.44-5.35 0-5.35s-3.45 5.35 0 5.35zM774.94 1172.41c3.44 0 3.44-5.35 0-5.35s-3.45 5.35 0 5.35zM762.05 1157.76c3.44 0 3.44-5.35 0-5.35s-3.45 5.35 0 5.35zM791.48 1135.84c3.44 0 3.45-5.34 0-5.34s-3.45 5.34 0 5.34zM791.48 1091.37c3.44 0 3.45-5.34 0-5.34s-3.45 5.34 0 5.34zM787.68 1116.52c3.44 0 3.45-5.35 0-5.35s-3.44 5.35 0 5.35zM424.76 1231.3c3.44 0 3.45-5.35 0-5.35s-3.44 5.35 0 5.35zM416 1213c3.45 0 3.45-5.35 0-5.35s-3.44 5.35 0 5.35zM480 1239.14c3.44 0 3.45-5.35 0-5.35s-3.44 5.35 0 5.35zM416.54 1194.82c3.44 0 3.45-5.35 0-5.35s-3.45 5.35 0 5.35zM426.66 1218.85c3.44 0 3.44-5.35 0-5.35s-3.45 5.35 0 5.35zM442.13 1207.48c3.44 0 3.45-5.35 0-5.35s-3.44 5.35 0 5.35zM452.8 1224.92c3.44 0 3.44-5.35 0-5.35s-3.45 5.35 0 5.35zM459 1202.26c3.44 0 3.45-5.35 0-5.35s-3.45 5.35 0 5.35zM404.43 1200.36c3.44 0 3.45-5.35 0-5.35s-3.45 5.35 0 5.35zM490.73 1191.49c3.45 0 3.45-5.35 0-5.35s-3.44 5.35 0 5.35zM474.76 1222.23c3.45 0 3.45-5.35 0-5.35s-3.44 5.35 0 5.35zM513.05 1227.47c3.44 0 3.45-5.35 0-5.35s-3.45 5.35 0 5.35zM525.62 1215.44c3.44 0 3.45-5.35 0-5.35s-3.45 5.35 0 5.35z"/></g><g opacity=".3" fill="#fff"><path d="M398.36 610.62c3.44 0 3.44-5.35 0-5.35s-3.45 5.35 0 5.35zM423.7 627.29c3.44 0 3.45-5.34 0-5.34s-3.45 5.34 0 5.34zM461.11 619.21c3.44 0 3.45-5.35 0-5.35s-3.44 5.35 0 5.35zM446.07 592.08c3.44 0 3.45-5.35 0-5.35s-3.45 5.35 0 5.35zM419.88 598.48c3.44 0 3.44-5.34 0-5.34s-3.45 5.34 0 5.34zM495.26 602.2c3.44 0 3.45-5.35 0-5.35s-3.45 5.35 0 5.35zM389.21 679.1c3.44 0 3.44-5.35 0-5.35s-3.45 5.35 0 5.35zM403.82 722.07c3.44 0 3.44-5.35 0-5.35s-3.45 5.35 0 5.35zM454.65 776.28c3.44 0 3.45-5.35 0-5.35s-3.45 5.35 0 5.35zM426.9 798c3.44 0 3.44-5.35 0-5.35s-3.45 5.35 0 5.35zM446.07 722.07c3.44 0 3.45-5.35 0-5.35s-3.45 5.35 0 5.35zM450 746.27c3.45 0 3.45-5.35 0-5.35s-3.44 5.35 0 5.35zM372.46 633.05c3.44 0 3.44-5.34 0-5.34s-3.45 5.34 0 5.34zM696.91 587c3.44 0 3.45-5.34 0-5.34s-3.45 5.34 0 5.34zM733.15 587c3.44 0 3.45-5.34 0-5.34s-3.44 5.34 0 5.34zM749.46 613.88c3.44 0 3.45-5.35 0-5.35s-3.44 5.35 0 5.35zM720.79 609c3.44 0 3.44-5.35 0-5.35s-3.45 5.35 0 5.35zM740.83 651.65c3.44 0 3.44-5.35 0-5.35s-3.45 5.35 0 5.35zM717.3 657.62c3.44 0 3.45-5.35 0-5.35s-3.45 5.35 0 5.35zM728.85 633.49c3.44 0 3.45-5.34 0-5.34s-3.45 5.34 0 5.34zM756.1 694.29c3.44 0 3.45-5.35 0-5.35s-3.45 5.35 0 5.35zM664.74 647.17c3.45 0 3.45-5.35 0-5.35s-3.44 5.35 0 5.35zM775.83 619.49c3.44 0 3.44-5.34 0-5.34s-3.45 5.34 0 5.34zM756.1 795.57c3.44 0 3.45-5.35 0-5.35s-3.45 5.35 0 5.35zM426.44 1109.22c3.44 0 3.44-5.35 0-5.35s-3.45 5.35 0 5.35zM428.68 1084.38c3.44 0 3.44-5.35 0-5.35s-3.45 5.35 0 5.35zM446.08 1069.86c3.45 0 3.45-5.35 0-5.35s-3.44 5.35 0 5.35zM403.44 1190.78c3.44 0 3.45-5.35 0-5.35s-3.45 5.35 0 5.35zM426.86 1151.5c3.44 0 3.45-5.35 0-5.35s-3.45 5.35 0 5.35zM436.81 1170.76c3.44 0 3.45-5.35 0-5.35s-3.45 5.35 0 5.35zM480 1107.37c3.44 0 3.45-5.35 0-5.35s-3.44 5.35 0 5.35zM500.2 1154.13c3.45 0 3.45-5.34 0-5.34s-3.44 5.34 0 5.34zM512 1198.09c3.44 0 3.44-5.35 0-5.35s-3.45 5.35 0 5.35zM472.81 1197.38c3.44 0 3.44-5.35 0-5.35s-3.45 5.35 0 5.35zM446.08 1200.36c3.45 0 3.45-5.35 0-5.35s-3.44 5.35 0 5.35zM457.56 1234c3.44 0 3.45-5.35 0-5.35s-3.45 5.35 0 5.35zM563.7 1140.6c3.45 0 3.45-5.35 0-5.35s-3.44 5.35 0 5.35zM570.92 1170.27c3.44 0 3.44-5.35 0-5.35s-3.45 5.35 0 5.35zM528.85 1147c3.44 0 3.44-5.35 0-5.35s-3.45 5.35 0 5.35zM474.38 1033.28c3.44 0 3.44-5.35 0-5.35s-3.45 5.35 0 5.35zM422.14 1014.45c3.44 0 3.45-5.35 0-5.35s-3.45 5.35 0 5.35zM689.43 1016.59c3.44 0 3.45-5.35 0-5.35s-3.45 5.35 0 5.35zM682.39 1081.83c3.44 0 3.45-5.35 0-5.35s-3.45 5.35 0 5.35zM738.86 1043.77c3.44 0 3.44-5.35 0-5.35s-3.45 5.35 0 5.35zM766.68 993.6c3.44 0 3.45-5.35 0-5.35s-3.45 5.35 0 5.35zM764.83 1108.91c3.44 0 3.45-5.35 0-5.35s-3.45 5.35 0 5.35zM717.07 1100.24c3.44 0 3.45-5.35 0-5.35s-3.44 5.35 0 5.35zM689.21 1130.08c3.44 0 3.45-5.34 0-5.34s-3.44 5.34 0 5.34zM664.48 1190.78c3.44 0 3.45-5.35 0-5.35s-3.45 5.35 0 5.35zM621.2 1192.27c3.44 0 3.44-5.35 0-5.35s-3.45 5.35 0 5.35zM743.61 1211.78c3.44 0 3.45-5.35 0-5.35s-3.44 5.35 0 5.35zM735.8 1194.51c3.44 0 3.44-5.35 0-5.35s-3.45 5.35 0 5.35zM710.74 1216c3.44 0 3.45-5.35 0-5.35s-3.44 5.35 0 5.35zM780.89 1155.81c3.44 0 3.45-5.34 0-5.34s-3.45 5.34 0 5.34zM772.46 1076.65c3.44 0 3.44-5.35 0-5.35s-3.45 5.35 0 5.35z"/></g></svg>