<svg xmlns="http://www.w3.org/2000/svg" width="1250" height="1550" viewBox="0 0 1250 1550"><title>s06e04-01</title><path d="M403.44,1252.94s58.13,16.91,200,12.4S801,1248.11,801,1248.11l22.8,267.08c-209.14,38.46-397.55,3.91-397.55,3.91Z" fill="#262521" stroke="#262521" stroke-linecap="round" stroke-linejoin="round" stroke-width="3"/><path d="M489.35,531.24l0,0S489.36,531.2,489.35,531.24Z" fill="#262521"/><path d="M877.22,1043c-3.84-55.87-22.89-124.63-22.89-124.63s-14.58-307-52.88-331.94c-10.88-7.11-142.29-56.21-142.29-56.21s-2.49,55-82.84,55c-65.09,0-82.1-39.23-86.22-51.38a11.73,11.73,0,0,1-.75-2.59c-1,.64-100.94,62.69-145.44,89.5C299.18,647.69,317.24,945,317.24,945a619.73,619.73,0,0,0-3.6,128.12c5.52,68.42-1.88,179.2,14.45,197.93l61-1.5s-5.61-14.34-4.66-27c2.28-30.22,5.54-104.26,15.36-135.21,4.92-15.48,9.78-37.06,13.91-55.27h.23c-3.88,32.6-26.11,146.78-14.71,171.94,0,13-1.32,46.49-1.32,46.49s73.26,18.64,150.25,17.71c137.53-1.66,260.87-23.64,260.87-23.64s-4.18-33-5-46.63c8.57-14.78.77-78.1-8.24-134.84H796c15.66,47,30.92,103.57,32.82,134.18,1.63,26.39,2.88,34.36,2.88,34.36h58.1s4.49-6.66,5.3-18.88S882.79,1124.26,877.22,1043Z" fill="#262521" stroke="#262521" stroke-linecap="round" stroke-linejoin="round" stroke-width="3"/><path d="M766.36,807.59s-6.48-155.7,27.7-208.66c-10.88-7.11-120-49.91-120-49.91S655.92,606,575.57,606c-65.09,0-96.26-51.38-96.24-51.47-1.05.65-80,46.8-124.46,73.61,55.77,82.8,55.77,179.49,55.77,179.49s6.72,200.59,3,244.49h.23c-3.88,32.6-26.11,146.78-14.71,171.94,0,13,114.69,22.54,191.58,18.43,143.72-7.7,199.85-7.7,213.26-24.5,8.57-14.78.77-78.1-8.24-134.84H796C781.78,1002.65,790.11,989.2,766.36,807.59Z" fill="#3a3934" stroke="#262521" stroke-linecap="round" stroke-linejoin="round" stroke-width="3"/><path d="M489.1,533.83c4.12,12.15,21.13,51.38,86.21,51.38,80.36,0,84.73-51.88,84.73-51.88" fill="none" stroke="#262521" stroke-linecap="round" stroke-linejoin="round" stroke-width="5"/><path d="M836,1219s30.63-3.83,52.37,0" fill="none" stroke="#636363" stroke-linecap="round" stroke-linejoin="round"/><path d="M325.25,1236.47s30.64-3.84,52.37,0" fill="none" stroke="#636363" stroke-linecap="round" stroke-linejoin="round"/><path d="M804,1218c14.5-25-19.76-173.14-21.56-243.1-1.22-47.58-16.1-167.27-16.1-167.27" fill="none" stroke="#262521" stroke-linecap="round" stroke-linejoin="round" stroke-width="3"/><path d="M410.64,807.59s5.34,199.1,3.82,238.13c-.83,21.49-27.59,151.13-15.28,178.31" fill="none" stroke="#262521" stroke-linecap="round" stroke-linejoin="round" stroke-width="3"/><path d="M397.86,1270.51s73.26,18.65,150.26,17.72c137.52-1.66,260.86-23.64,260.86-23.64" fill="none" stroke="#636363" stroke-linecap="round" stroke-linejoin="round"/><g opacity="0.7"><path d="M436.46,613.88c3.44,0,3.45-5.35,0-5.35s-3.45,5.35,0,5.35Z" fill="#fff"/><path d="M464.5,587c3.44,0,3.45-5.34,0-5.34s-3.44,5.34,0,5.34Z" fill="#fff"/><path d="M483.4,592.14c3.44,0,3.45-5.35,0-5.35s-3.45,5.35,0,5.35Z" fill="#fff"/><path d="M401,648c3.45,0,3.45-5.35,0-5.35s-3.44,5.35,0,5.35Z" fill="#fff"/><path d="M424.11,658.87c3.44,0,3.45-5.35,0-5.35s-3.45,5.35,0,5.35Z" fill="#fff"/><path d="M403,698.24c3.44,0,3.45-5.35,0-5.35s-3.45,5.35,0,5.35Z" fill="#fff"/><path d="M716.16,589c3.44,0,3.44-5.35,0-5.35s-3.45,5.35,0,5.35Z" fill="#fff"/><path d="M744.55,594.8c3.44,0,3.45-5.35,0-5.35s-3.45,5.35,0,5.35Z" fill="#fff"/><path d="M745,643.2c3.44,0,3.45-5.34,0-5.34s-3.45,5.34,0,5.34Z" fill="#fff"/><path d="M786.05,607.47c3.44,0,3.45-5.35,0-5.35s-3.45,5.35,0,5.35Z" fill="#fff"/><path d="M683.32,565.5c3.44,0,3.45-5.35,0-5.35s-3.45,5.35,0,5.35Z" fill="#fff"/><path d="M690.44,625.47c3.45,0,3.45-5.35,0-5.35s-3.44,5.35,0,5.35Z" fill="#fff"/><path d="M666.65,682.06c3.44,0,3.45-5.34,0-5.34s-3.45,5.34,0,5.34Z" fill="#fff"/><path d="M742.24,741.36c3.44,0,3.45-5.34,0-5.34s-3.44,5.34,0,5.34Z" fill="#fff"/><path d="M422.14,1069.86c3.44,0,3.45-5.35,0-5.35s-3.45,5.35,0,5.35Z" fill="#fff"/><path d="M447.79,1089.15c3.44,0,3.45-5.35,0-5.35s-3.45,5.35,0,5.35Z" fill="#fff"/><path d="M434.66,1145.35c3.44,0,3.45-5.35,0-5.35s-3.45,5.35,0,5.35Z" fill="#fff"/><path d="M489.77,1126.88c3.44,0,3.45-5.35,0-5.35s-3.45,5.35,0,5.35Z" fill="#fff"/><path d="M497.19,1211c3.44,0,3.45-5.35,0-5.35s-3.45,5.35,0,5.35Z" fill="#fff"/><path d="M543.58,1201.87c3.44,0,3.45-5.35,0-5.35s-3.44,5.35,0,5.35Z" fill="#fff"/><path d="M474.88,1175.6c3.44,0,3.44-5.34,0-5.34s-3.45,5.34,0,5.34Z" fill="#fff"/><path d="M429.16,1204.3c3.44,0,3.44-5.35,0-5.35s-3.45,5.35,0,5.35Z" fill="#fff"/><path d="M416,1160c3.45,0,3.45-5.35,0-5.35s-3.44,5.35,0,5.35Z" fill="#fff"/><path d="M432.33,1120.6c3.45,0,3.45-5.35,0-5.35s-3.44,5.35,0,5.35Z" fill="#fff"/><path d="M410.53,1144.67c3.44,0,3.44-5.34,0-5.34s-3.45,5.34,0,5.34Z" fill="#fff"/><path d="M410.53,1120.6c3.44,0,3.44-5.35,0-5.35s-3.45,5.35,0,5.35Z" fill="#fff"/><path d="M443.32,1178.2c3.45,0,3.45-5.35,0-5.35s-3.44,5.35,0,5.35Z" fill="#fff"/><path d="M411.87,1227.5c3.45,0,3.45-5.35,0-5.35s-3.44,5.35,0,5.35Z" fill="#fff"/><path d="M438.91,1231.58c3.44,0,3.44-5.35,0-5.35s-3.45,5.35,0,5.35Z" fill="#fff"/><path d="M435.8,1222.15c3.44,0,3.44-5.35,0-5.35s-3.45,5.35,0,5.35Z" fill="#fff"/><path d="M462.73,1216.7c3.44,0,3.45-5.34,0-5.34s-3.45,5.34,0,5.34Z" fill="#fff"/><path d="M485.67,1226.46c3.44,0,3.44-5.35,0-5.35s-3.45,5.35,0,5.35Z" fill="#fff"/><path d="M523.4,1184.48c3.44,0,3.44-5.35,0-5.35s-3.45,5.35,0,5.35Z" fill="#fff"/><path d="M472.28,1144.05c3.44,0,3.45-5.35,0-5.35s-3.45,5.35,0,5.35Z" fill="#fff"/><path d="M413.17,1177.73c3.44,0,3.45-5.35,0-5.35s-3.44,5.35,0,5.35Z" fill="#fff"/><path d="M679.44,1209.24c3.44,0,3.45-5.35,0-5.35s-3.45,5.35,0,5.35Z" fill="#fff"/><path d="M707.78,1157c3.44,0,3.44-5.34,0-5.34s-3.45,5.34,0,5.34Z" fill="#fff"/><path d="M718.94,1131c3.44,0,3.44-5.35,0-5.35s-3.45,5.35,0,5.35Z" fill="#fff"/><path d="M744.31,1167.83c3.44,0,3.45-5.35,0-5.35s-3.45,5.35,0,5.35Z" fill="#fff"/><path d="M757,1141.78c3.44,0,3.45-5.35,0-5.35s-3.44,5.35,0,5.35Z" fill="#fff"/><path d="M735.85,1141c3.44,0,3.45-5.35,0-5.35s-3.44,5.35,0,5.35Z" fill="#fff"/><path d="M722,1176.13c3.44,0,3.44-5.35,0-5.35s-3.45,5.35,0,5.35Z" fill="#fff"/><path d="M688.63,1169.75c3.44,0,3.44-5.35,0-5.35s-3.45,5.35,0,5.35Z" fill="#fff"/><path d="M700,1193.46c3.44,0,3.45-5.34,0-5.34s-3.45,5.34,0,5.34Z" fill="#fff"/><path d="M776.65,1222.23c3.44,0,3.44-5.35,0-5.35s-3.45,5.35,0,5.35Z" fill="#fff"/><path d="M653,1232.05c3.44,0,3.44-5.35,0-5.35s-3.45,5.35,0,5.35Z" fill="#fff"/><path d="M772.46,1133.74c3.44,0,3.44-5.35,0-5.35s-3.45,5.35,0,5.35Z" fill="#fff"/><path d="M791.64,1185.79c3.44,0,3.44-5.35,0-5.35s-3.45,5.35,0,5.35Z" fill="#fff"/><path d="M783,1144.79c3.45,0,3.45-5.35,0-5.35s-3.44,5.35,0,5.35Z" fill="#fff"/><path d="M761.54,1186.82c3.44,0,3.45-5.34,0-5.34s-3.45,5.34,0,5.34Z" fill="#fff"/><path d="M649.45,1169.59c3.44,0,3.44-5.35,0-5.35s-3.45,5.35,0,5.35Z" fill="#fff"/><path d="M420.77,760c3.44,0,3.44-5.35,0-5.35s-3.45,5.35,0,5.35Z" fill="#fff"/><path d="M444.53,819.56c3.44,0,3.45-5.35,0-5.35s-3.45,5.35,0,5.35Z" fill="#fff"/><path d="M476.19,776.28c3.44,0,3.44-5.35,0-5.35s-3.45,5.35,0,5.35Z" fill="#fff"/><path d="M400.9,631c3.44,0,3.44-5.35,0-5.35s-3.45,5.35,0,5.35Z" fill="#fff"/><path d="M420.77,618.26c3.44,0,3.44-5.35,0-5.35s-3.45,5.35,0,5.35Z" fill="#fff"/><path d="M407.2,609.75c3.44,0,3.45-5.35,0-5.35s-3.45,5.35,0,5.35Z" fill="#fff"/><path d="M389.21,621.44c3.44,0,3.44-5.35,0-5.35s-3.45,5.35,0,5.35Z" fill="#fff"/><path d="M371.79,626.47c3.44,0,3.45-5.35,0-5.35s-3.45,5.35,0,5.35Z" fill="#fff"/><path d="M445.39,642.1c3.45,0,3.45-5.35,0-5.35s-3.44,5.35,0,5.35Z" fill="#fff"/><path d="M418,644.13c3.45,0,3.45-5.34,0-5.34s-3.44,5.34,0,5.34Z" fill="#fff"/><path d="M430.66,651.17c3.44,0,3.45-5.35,0-5.35s-3.44,5.35,0,5.35Z" fill="#fff"/><path d="M433.11,599.7c3.44,0,3.44-5.35,0-5.35s-3.45,5.35,0,5.35Z" fill="#fff"/><path d="M431,629c3.44,0,3.44-5.34,0-5.34s-3.45,5.34,0,5.34Z" fill="#fff"/><path d="M410.09,629.3c3.44,0,3.45-5.35,0-5.35s-3.44,5.35,0,5.35Z" fill="#fff"/><path d="M415.32,653.3c3.44,0,3.45-5.35,0-5.35s-3.45,5.35,0,5.35Z" fill="#fff"/><path d="M403.32,662.52c3.44,0,3.44-5.35,0-5.35s-3.45,5.35,0,5.35Z" fill="#fff"/><path d="M380.67,643.55c3.45,0,3.45-5.35,0-5.35s-3.44,5.35,0,5.35Z" fill="#fff"/><path d="M439.19,672.94c3.44,0,3.44-5.35,0-5.35s-3.45,5.35,0,5.35Z" fill="#fff"/><path d="M460.89,676.85c3.44,0,3.45-5.35,0-5.35s-3.45,5.35,0,5.35Z" fill="#fff"/><path d="M459.07,607.89c3.44,0,3.45-5.35,0-5.35s-3.45,5.35,0,5.35Z" fill="#fff"/><path d="M454.65,584.2c3.44,0,3.45-5.34,0-5.34s-3.45,5.34,0,5.34Z" fill="#fff"/><path d="M481.17,581.09c3.44,0,3.44-5.35,0-5.35s-3.45,5.35,0,5.35Z" fill="#fff"/><path d="M480.35,624.65c3.45,0,3.45-5.35,0-5.35s-3.44,5.35,0,5.35Z" fill="#fff"/><path d="M766.78,640.29c3.44,0,3.45-5.34,0-5.34s-3.44,5.34,0,5.34Z" fill="#fff"/><path d="M753,633c3.44,0,3.44-5.35,0-5.35s-3.45,5.35,0,5.35Z" fill="#fff"/><path d="M766.38,628.7c3.45,0,3.45-5.35,0-5.35s-3.44,5.35,0,5.35Z" fill="#fff"/><path d="M763.05,610.62c3.44,0,3.45-5.35,0-5.35s-3.45,5.35,0,5.35Z" fill="#fff"/><path d="M752.67,590.08c3.44,0,3.45-5.35,0-5.35s-3.45,5.35,0,5.35Z" fill="#fff"/><path d="M773.05,597.5c3.44,0,3.45-5.34,0-5.34s-3.45,5.34,0,5.34Z" fill="#fff"/><path d="M773.18,612.59c3.44,0,3.45-5.34,0-5.34s-3.44,5.34,0,5.34Z" fill="#fff"/><path d="M744.31,605.85c3.44,0,3.45-5.35,0-5.35s-3.45,5.35,0,5.35Z" fill="#fff"/><path d="M743.39,624.07c3.44,0,3.45-5.35,0-5.35s-3.45,5.35,0,5.35Z" fill="#fff"/><path d="M768.13,656.89c3.44,0,3.45-5.35,0-5.35s-3.45,5.35,0,5.35Z" fill="#fff"/><path d="M752.64,679.1c3.44,0,3.45-5.35,0-5.35s-3.45,5.35,0,5.35Z" fill="#fff"/><path d="M758.52,713.31c3.44,0,3.45-5.34,0-5.34s-3.44,5.34,0,5.34Z" fill="#fff"/><path d="M707.4,975.8c3.44,0,3.45-5.35,0-5.35s-3.45,5.35,0,5.35Z" fill="#fff"/><path d="M759.55,1208.93c3.44,0,3.45-5.35,0-5.35s-3.44,5.35,0,5.35Z" fill="#fff"/><path d="M755.31,1198.24c3.44,0,3.45-5.35,0-5.35s-3.44,5.35,0,5.35Z" fill="#fff"/><path d="M755.31,1227.47c3.44,0,3.45-5.35,0-5.35s-3.44,5.35,0,5.35Z" fill="#fff"/><path d="M743.54,1204.84c3.44,0,3.45-5.35,0-5.35s-3.44,5.35,0,5.35Z" fill="#fff"/><path d="M717.07,1229.33c3.44,0,3.45-5.35,0-5.35s-3.44,5.35,0,5.35Z" fill="#fff"/><path d="M772.68,1208.09c3.44,0,3.45-5.34,0-5.34s-3.44,5.34,0,5.34Z" fill="#fff"/><path d="M772.46,1190.3c3.44,0,3.44-5.35,0-5.35s-3.45,5.35,0,5.35Z" fill="#fff"/><path d="M797.81,1218.45c3.44,0,3.45-5.35,0-5.35s-3.45,5.35,0,5.35Z" fill="#fff"/><path d="M790.72,1203.6c3.44,0,3.45-5.35,0-5.35s-3.45,5.35,0,5.35Z" fill="#fff"/><path d="M783,1192.26c3.45,0,3.45-5.35,0-5.35s-3.44,5.35,0,5.35Z" fill="#fff"/><path d="M800.77,1194.51c3.44,0,3.45-5.35,0-5.35s-3.45,5.35,0,5.35Z" fill="#fff"/><path d="M800.77,1176.13c3.44,0,3.45-5.35,0-5.35s-3.45,5.35,0,5.35Z" fill="#fff"/><path d="M793.23,1164c3.44,0,3.44-5.35,0-5.35s-3.45,5.35,0,5.35Z" fill="#fff"/><path d="M774.94,1172.41c3.44,0,3.44-5.35,0-5.35s-3.45,5.35,0,5.35Z" fill="#fff"/><path d="M762.05,1157.76c3.44,0,3.44-5.35,0-5.35s-3.45,5.35,0,5.35Z" fill="#fff"/><path d="M791.48,1135.84c3.44,0,3.45-5.34,0-5.34s-3.45,5.34,0,5.34Z" fill="#fff"/><path d="M791.48,1091.37c3.44,0,3.45-5.34,0-5.34s-3.45,5.34,0,5.34Z" fill="#fff"/><path d="M787.68,1116.52c3.44,0,3.45-5.35,0-5.35s-3.44,5.35,0,5.35Z" fill="#fff"/><path d="M424.76,1231.3c3.44,0,3.45-5.35,0-5.35s-3.44,5.35,0,5.35Z" fill="#fff"/><path d="M416,1213c3.45,0,3.45-5.35,0-5.35s-3.44,5.35,0,5.35Z" fill="#fff"/><path d="M480,1239.14c3.44,0,3.45-5.35,0-5.35s-3.44,5.35,0,5.35Z" fill="#fff"/><path d="M416.54,1194.82c3.44,0,3.45-5.35,0-5.35s-3.45,5.35,0,5.35Z" fill="#fff"/><path d="M426.66,1218.85c3.44,0,3.44-5.35,0-5.35s-3.45,5.35,0,5.35Z" fill="#fff"/><path d="M442.13,1207.48c3.44,0,3.45-5.35,0-5.35s-3.44,5.35,0,5.35Z" fill="#fff"/><path d="M452.8,1224.92c3.44,0,3.44-5.35,0-5.35s-3.45,5.35,0,5.35Z" fill="#fff"/><path d="M459,1202.26c3.44,0,3.45-5.35,0-5.35s-3.45,5.35,0,5.35Z" fill="#fff"/><path d="M404.43,1200.36c3.44,0,3.45-5.35,0-5.35s-3.45,5.35,0,5.35Z" fill="#fff"/><path d="M490.73,1191.49c3.45,0,3.45-5.35,0-5.35s-3.44,5.35,0,5.35Z" fill="#fff"/><path d="M474.76,1222.23c3.45,0,3.45-5.35,0-5.35s-3.44,5.35,0,5.35Z" fill="#fff"/><path d="M513.05,1227.47c3.44,0,3.45-5.35,0-5.35s-3.45,5.35,0,5.35Z" fill="#fff"/><path d="M525.62,1215.44c3.44,0,3.45-5.35,0-5.35s-3.45,5.35,0,5.35Z" fill="#fff"/></g><g opacity="0.3"><path d="M398.36,610.62c3.44,0,3.44-5.35,0-5.35s-3.45,5.35,0,5.35Z" fill="#fff"/><path d="M423.7,627.29c3.44,0,3.45-5.34,0-5.34s-3.45,5.34,0,5.34Z" fill="#fff"/><path d="M461.11,619.21c3.44,0,3.45-5.35,0-5.35s-3.44,5.35,0,5.35Z" fill="#fff"/><path d="M446.07,592.08c3.44,0,3.45-5.35,0-5.35s-3.45,5.35,0,5.35Z" fill="#fff"/><path d="M419.88,598.48c3.44,0,3.44-5.34,0-5.34s-3.45,5.34,0,5.34Z" fill="#fff"/><path d="M495.26,602.2c3.44,0,3.45-5.35,0-5.35s-3.45,5.35,0,5.35Z" fill="#fff"/><path d="M389.21,679.1c3.44,0,3.44-5.35,0-5.35s-3.45,5.35,0,5.35Z" fill="#fff"/><path d="M403.82,722.07c3.44,0,3.44-5.35,0-5.35s-3.45,5.35,0,5.35Z" fill="#fff"/><path d="M454.65,776.28c3.44,0,3.45-5.35,0-5.35s-3.45,5.35,0,5.35Z" fill="#fff"/><path d="M426.9,798c3.44,0,3.44-5.35,0-5.35s-3.45,5.35,0,5.35Z" fill="#fff"/><path d="M446.07,722.07c3.44,0,3.45-5.35,0-5.35s-3.45,5.35,0,5.35Z" fill="#fff"/><path d="M450,746.27c3.45,0,3.45-5.35,0-5.35s-3.44,5.35,0,5.35Z" fill="#fff"/><path d="M372.46,633.05c3.44,0,3.44-5.34,0-5.34s-3.45,5.34,0,5.34Z" fill="#fff"/><path d="M696.91,587c3.44,0,3.45-5.34,0-5.34s-3.45,5.34,0,5.34Z" fill="#fff"/><path d="M733.15,587c3.44,0,3.45-5.34,0-5.34s-3.44,5.34,0,5.34Z" fill="#fff"/><path d="M749.46,613.88c3.44,0,3.45-5.35,0-5.35s-3.44,5.35,0,5.35Z" fill="#fff"/><path d="M720.79,609c3.44,0,3.44-5.35,0-5.35s-3.45,5.35,0,5.35Z" fill="#fff"/><path d="M740.83,651.65c3.44,0,3.44-5.35,0-5.35s-3.45,5.35,0,5.35Z" fill="#fff"/><path d="M717.3,657.62c3.44,0,3.45-5.35,0-5.35s-3.45,5.35,0,5.35Z" fill="#fff"/><path d="M728.85,633.49c3.44,0,3.45-5.34,0-5.34s-3.45,5.34,0,5.34Z" fill="#fff"/><path d="M756.1,694.29c3.44,0,3.45-5.35,0-5.35s-3.45,5.35,0,5.35Z" fill="#fff"/><path d="M664.74,647.17c3.45,0,3.45-5.35,0-5.35s-3.44,5.35,0,5.35Z" fill="#fff"/><path d="M775.83,619.49c3.44,0,3.44-5.34,0-5.34s-3.45,5.34,0,5.34Z" fill="#fff"/><path d="M756.1,795.57c3.44,0,3.45-5.35,0-5.35s-3.45,5.35,0,5.35Z" fill="#fff"/><path d="M426.44,1109.22c3.44,0,3.44-5.35,0-5.35s-3.45,5.35,0,5.35Z" fill="#fff"/><path d="M428.68,1084.38c3.44,0,3.44-5.35,0-5.35s-3.45,5.35,0,5.35Z" fill="#fff"/><path d="M446.08,1069.86c3.45,0,3.45-5.35,0-5.35s-3.44,5.35,0,5.35Z" fill="#fff"/><path d="M403.44,1190.78c3.44,0,3.45-5.35,0-5.35s-3.45,5.35,0,5.35Z" fill="#fff"/><path d="M426.86,1151.5c3.44,0,3.45-5.35,0-5.35s-3.45,5.35,0,5.35Z" fill="#fff"/><path d="M436.81,1170.76c3.44,0,3.45-5.35,0-5.35s-3.45,5.35,0,5.35Z" fill="#fff"/><path d="M480,1107.37c3.44,0,3.45-5.35,0-5.35s-3.44,5.35,0,5.35Z" fill="#fff"/><path d="M500.2,1154.13c3.45,0,3.45-5.34,0-5.34s-3.44,5.34,0,5.34Z" fill="#fff"/><path d="M512,1198.09c3.44,0,3.44-5.35,0-5.35s-3.45,5.35,0,5.35Z" fill="#fff"/><path d="M472.81,1197.38c3.44,0,3.44-5.35,0-5.35s-3.45,5.35,0,5.35Z" fill="#fff"/><path d="M446.08,1200.36c3.45,0,3.45-5.35,0-5.35s-3.44,5.35,0,5.35Z" fill="#fff"/><path d="M457.56,1234c3.44,0,3.45-5.35,0-5.35s-3.45,5.35,0,5.35Z" fill="#fff"/><path d="M563.7,1140.6c3.45,0,3.45-5.35,0-5.35s-3.44,5.35,0,5.35Z" fill="#fff"/><path d="M570.92,1170.27c3.44,0,3.44-5.35,0-5.35s-3.45,5.35,0,5.35Z" fill="#fff"/><path d="M528.85,1147c3.44,0,3.44-5.35,0-5.35s-3.45,5.35,0,5.35Z" fill="#fff"/><path d="M474.38,1033.28c3.44,0,3.44-5.35,0-5.35s-3.45,5.35,0,5.35Z" fill="#fff"/><path d="M422.14,1014.45c3.44,0,3.45-5.35,0-5.35s-3.45,5.35,0,5.35Z" fill="#fff"/><path d="M689.43,1016.59c3.44,0,3.45-5.35,0-5.35s-3.45,5.35,0,5.35Z" fill="#fff"/><path d="M682.39,1081.83c3.44,0,3.45-5.35,0-5.35s-3.45,5.35,0,5.35Z" fill="#fff"/><path d="M738.86,1043.77c3.44,0,3.44-5.35,0-5.35s-3.45,5.35,0,5.35Z" fill="#fff"/><path d="M766.68,993.6c3.44,0,3.45-5.35,0-5.35s-3.45,5.35,0,5.35Z" fill="#fff"/><path d="M764.83,1108.91c3.44,0,3.45-5.35,0-5.35s-3.45,5.35,0,5.35Z" fill="#fff"/><path d="M717.07,1100.24c3.44,0,3.45-5.35,0-5.35s-3.44,5.35,0,5.35Z" fill="#fff"/><path d="M689.21,1130.08c3.44,0,3.45-5.34,0-5.34s-3.44,5.34,0,5.34Z" fill="#fff"/><path d="M664.48,1190.78c3.44,0,3.45-5.35,0-5.35s-3.45,5.35,0,5.35Z" fill="#fff"/><path d="M621.2,1192.27c3.44,0,3.44-5.35,0-5.35s-3.45,5.35,0,5.35Z" fill="#fff"/><path d="M743.61,1211.78c3.44,0,3.45-5.35,0-5.35s-3.44,5.35,0,5.35Z" fill="#fff"/><path d="M735.8,1194.51c3.44,0,3.44-5.35,0-5.35s-3.45,5.35,0,5.35Z" fill="#fff"/><path d="M710.74,1216c3.44,0,3.45-5.35,0-5.35s-3.44,5.35,0,5.35Z" fill="#fff"/><path d="M780.89,1155.81c3.44,0,3.45-5.34,0-5.34s-3.45,5.34,0,5.34Z" fill="#fff"/><path d="M772.46,1076.65c3.44,0,3.44-5.35,0-5.35s-3.45,5.35,0,5.35Z" fill="#fff"/></g></svg>