<svg xmlns="http://www.w3.org/2000/svg" width="1000" height="1550" viewBox="0 0 1000 1550"><path d="M279.44 1264.54L676 1248.15l20.1 342.25-375.9 6.23-30.7-241.55s-13.83-38.02-10.06-90.54z" fill="#ada8af" stroke="#262521" stroke-linecap="round" stroke-linejoin="round" stroke-width="3"/><path d="M495.61 1516.22s6.49 33.84 4.39 39.79M510.03 1523.05l2.17 38.06M482.83 1509.5s-2.84 29.07 0 51.61M424.38 1477.54s5.94 61.54-7.51 80.8M562.89 1291.24s3.39 199.42-35 202.12M341.07 1288.1s79.57 50.05 151.6 29.77M555.7 1291.24s-26 40.49-55.7 42.8M637.91 1279.92s15.3 50.16 12 75.9" fill="none" stroke="#6d6970" stroke-linecap="round" stroke-linejoin="round"/><path d="M627.3 1285.48s-3.32 7.06 6 27" fill="none" stroke="#7a767c" stroke-linecap="round" stroke-linejoin="round"/><path fill="none" stroke="#6d6970" stroke-linecap="round" stroke-linejoin="round" d="M321.19 1395.06h-22.11M295.13 1367.37h3.83M361.89 1433.16l5.24 52.91H310.7"/><path d="M696.08 1590.4s-299.29-75-401-228.64" fill="none" stroke="#88808c" stroke-linecap="round" stroke-linejoin="round" stroke-width="3"/><path d="M571.13 1291.24l9.33 122.45s30.58 2.66 30.58-17.07c0-13.88-8.7-111.14-8.7-111.14" fill="none" stroke="#6d6970" stroke-linecap="round" stroke-linejoin="round"/><path d="M452.16 1266.22c-1.73 19.82-2.57 39.72-3.25 59.61-.86 25.1-1.35 50.22-1.66 75.33q-.51 40.17-.45 80.35 0 36.56.41 73.1c.2 18.17.46 36.35.92 54.52.05 1.62.09 3.24.14 4.86.13 4.82 7.63 4.84 7.5 0-.5-17.2-.75-34.41-1-51.62q-.44-35.61-.49-71.24-.07-40.07.32-80.11c.28-25.58.71-51.16 1.5-76.73.64-20.68 1.44-41.38 3-62 .16-2 .32-4 .5-6a3.75 3.75 0 00-7.5 0z" fill="#c9bcc0"/><path d="M459.18 1259.28c-.55 10-.88 20.08-1.14 30.13q-.5 18.87-.69 37.75-.25 21.31-.31 42.63-.07 22.62 0 45.24t.21 45.45q.15 21.72.36 43.44.18 19.3.42 38.62.19 15.8.41 31.59l.33 22.15c.06 3.43 0 6.88.17 10.31v.45c.08 4.82 7.58 4.83 7.5 0l-.12-7-.3-19.57q-.21-14.76-.4-29.52-.23-18.57-.42-37.14-.22-21.16-.38-42.34-.17-22.67-.25-45.34t-.05-45.51q0-21.73.23-43.48c.13-13 .3-26 .59-39 .24-10.73.54-21.46 1-32.19q.15-3.3.33-6.6a3.75 3.75 0 00-7.5 0z" fill="#c9bcc0"/><path d="M675.54 1223.67l5.66 56.15s-84 19.1-197.81 23.59-207.72-24.3-207.72-24.3l2.79-34.23z" fill="#fff" stroke="#262521" stroke-linecap="round" stroke-linejoin="round" stroke-width="3"/><path d="M752.23 1043c-3.83-55.86-22.88-124.63-22.88-124.63s-14.59-306.94-52.89-331.94c-10.88-7.1-144.6-57.6-144.6-57.6s.48 52.44-79.87 52.44c-65.09 0-85.14-51-85.12-51-1 .64-103.44 63.71-147.94 90.52-44.73 26.94-26.68 324.27-26.68 324.27a619.79 619.79 0 00-3.6 128.12c5.53 68.42-1.88 179.21 14.45 197.94l61-1.5s-5.6-14.34-4.65-27c2.27-30.22 5.53-104.26 15.36-135.22s21.45-88.31 21.45-88.33c.49 23.68.3 42.23-1 50.33-3.6 21.92-31.66 102.78-17.78 133.07-3.34 29.29-5.7 66.94-5.7 66.94s101 22.74 178 21.81c137.52-1.65 234.84-32.69 234.84-32.69s-2.28-35.71-5.32-60.53c9.94-22.61-4.2-83.52-17.92-143 17.07 47.17 40.25 126.64 42.46 162.33 1.64 26.39 2.89 34.36 2.89 34.36h58.1s4.48-6.67 5.3-18.88-12.32-108.5-17.9-189.81z" fill="#262521" stroke="#262521" stroke-linecap="round" stroke-linejoin="round" stroke-width="3"/><path d="M711 1219s30.63-3.84 52.36 0M200.27 1236.51s30.63-3.83 52.37 0M286.18 1219s150.58 39.49 378.15-4.33" fill="none" stroke="#636363" stroke-linecap="round" stroke-linejoin="round"/><path d="M318.47 811.15l-4-92.88 12.8-.55 4 92.88zM374 795l-2.82-65.4 9.57-14.18 29.9-1.28 10.75 13.3.63 14.78-12.8.55-.43-10-5.14-6.36-15.12.65-4.54 6.62 2.42 56.15 5 6.22 15.12-.65 4.57-6.78-.4-9.41 13-.56.61 14.19-9.49 14.16-30.13 1.3zM465.89 791.05l-2.81-65.41 9.56-14.17 29.91-1.29 10.75 13.3 2.81 65.41-9.56 14.18-29.91 1.28zm17.52 1l15.23-.65 4.47-6.63-2.41-56-5.14-6.36-15.12.65-4.44 6.67 2.42 56.15zM559.08 800.81l-4-92.89 13.24-.57 31.35 63-2.76-64.22 12.58-.54 4 92.89-13.68.59-30.63-61.82 2.71 63z" fill="#fff" stroke="#fff" stroke-linecap="round" stroke-linejoin="round" stroke-width="2.57"/><path d="M582.44 1422.48s13.66 115 44.86 141.75M436.28 1509.5s-4.22 35.22-2.34 48.84" fill="none" stroke="#6d6970" stroke-linecap="round" stroke-linejoin="round"/></svg>