<svg xmlns="http://www.w3.org/2000/svg" width="1250" height="1550" viewBox="0 0 1250 1550"><title>s06e02-01</title><path d="M492.65,533.74l0,0S492.66,533.7,492.65,533.74Z" fill="#262521" stroke="#262521" stroke-linecap="round" stroke-linejoin="round" stroke-width="3"/><path d="M765.69,851.61c58.38,11.42,118.49-39.89,118.49-39.89S816,594.08,804.25,588.43,662,532.22,662,532.22s-2.49,55-82.84,55c-65.09,0-81.6-38.73-85.72-50.88a12.64,12.64,0,0,1-.75-2.59c-1,.65-134.28,83.37-145.94,89-2.17,1-15.48,16.93-15.8,45.23l0,0c-15.73,64.38-38.09,172.8-38.09,172.8S396,891.25,416.06,851.08h0l4.1,7.63-20,406s91.48,29,210.72,25,195.84-40.68,195.84-40.68l-41.07-397.5Z" fill="#262521" stroke="#262521" stroke-linecap="round" stroke-linejoin="round" stroke-width="3"/><path d="M407,1266.71c23.21,6.47,103.79,26.44,204,23.08,104.33-3.5,176-32,192.32-39.1m-396.29,16c23.21,6.47,103.79,26.44,204,23.08,104.33-3.5,176-32,192.32-39.1" fill="none" stroke="#636363" stroke-linecap="round" stroke-linejoin="round"/><path d="M691.71,704.05c1.3-1.84,3.54-1.36,5.54-1.6,3.18-.1,8.41-1.56,10,2,2,4.58-2.7,4.9-.92,6.84s.74,4.94,3.19,6.32c.64.32.31,1.08-.22,1.53a4.4,4.4,0,0,1-7.23-2.44c-.31-1.43-.31-3.65-2.1-3.94-.86,0-.77.85-.77,1.49,0,1.23-.21,2.67.67,3.66,3,3.41-5.79,3.25-7.6,2.91a11.78,11.78,0,0,0-3,.36l-10.8.55a9.23,9.23,0,0,1-1.82,0c-1.08-.16-1.58-1.5-.7-2.07,2.89-2,1.87-7.85,2.36-11,.14-1-.84-1.77-1.49-2.3-1.88.46-3.91,7.53-5.11,9.53-.9,1.79-1.45,3.85-2.85,5.32a2.23,2.23,0,0,1-3.85-.73c-1-2.41-1.75-4.88-2.59-7.33-.93-1.72-.7-5.34-3.1-5.56,3,9-6.67,19.15-15.44,14-.73-.42-1.22-.58-1.65.27-.62,1.21-1.6,1.42-2.92,1.44-3.44,0-6.87.31-10.31.5a3.25,3.25,0,0,1-2.58-.65c-.84-1.25,1.9-2.4,1.88-3.84.36-2.8.57-5.63.82-8.45a1.78,1.78,0,0,0-1-1.86c-1.1-.6-1.08-1.71.08-2.21,1.72-.8,8.5-2.17,9.14.22-.21,1-1.94,2-2,3.05-.25,3-.32,6-.43,9,.24,2.55,4.27,1,5.25-.53,1.24-1.48,1.48-3.09,1.85-4.81,1.06-7,10-12.26,16-7.34.18.14.4.24.45,0a8.83,8.83,0,0,1,8.95-2c2.67,1.17-1,2.26-.17,4,.46,1.51.88,3,1.38,4.52.31.69,1,1,1.34.06.62-1.66,1.25-3.33,1.73-5,.2-1.47-2.3-3,.16-3.84s5.13-.43,7.68-.62c3.23-.19,6.46-.5,9.69-.57C689.87,702.88,690.68,703.58,691.71,704.05Zm.88,13.17c.27-.48.51-.7.52-.94.19-3,.37-6,.49-9.06,0-.76-.24-1.55-1.18-1.56s-.46.93-.71,1.39-.64,1.2-1.07,1.28a2.5,2.5,0,0,1-2-1.13,3,3,0,0,0-3.37-1c-1.72.51-1.29,3.19-.62,4.34.66-.52,1.5-1.93,2.11-2.18,2.37.56,1.4,3.89,1.57,5.7a1.85,1.85,0,0,1-1.63,2c-1.43.06-.84-1.71-2-2.25-.23.24-.65.47-.66.72,0,1.37-.52,3.53,1.33,3.88s3-.73,3.93-2.26a2.33,2.33,0,0,1,1.71-1C691.67,715.37,692.21,716.4,692.59,717.22Zm-44.17.61c.66,3,2.6,1.16,3.55,0,1.06-2.2,2.44-9.38-.41-10.15-1-.11-2.12,1-2.47,2.61A38.92,38.92,0,0,0,648.42,717.83Zm51-10.23c-.06.91.11,2.95,1.42,1.86,1-1,1.28-4.6-.74-4.48C699.23,705.42,699.41,707.6,699.39,707.6Z" fill="#b63737"/><path d="M624.62,733.44l87.91-4.08,4,86.34s-26.46,12.87-43.41,13.65-44.49-9.58-44.49-9.58Z" fill="none" stroke="#636363" stroke-linecap="round" stroke-linejoin="round"/><line x1="625.33" y1="748.63" x2="713.23" y2="744.55" fill="none" stroke="#636363" stroke-linecap="round" stroke-linejoin="round"/></svg>