<svg xmlns="http://www.w3.org/2000/svg" width="1250" height="1550" viewBox="0 0 1250 1550"><title>s06e06-02</title><path d="M368.52,698.22s12.17,87.68,26.55,114.41l24.79,46.08-20,406s91.48,25.55,210.72,21.55,195.84-37.18,195.84-37.18l-42.4-410.37,10.18-28.49" fill="none" stroke="#262521" stroke-linecap="round" stroke-miterlimit="10" stroke-width="3"/><path d="M769.52,702.66S753.34,784.12,756.81,809s6.44,21.88,8.58,42.64" fill="none" stroke="#262521" stroke-linecap="round" stroke-miterlimit="10" stroke-width="3"/><path d="M816.36,649s6.82-23.29-2.08-41.13" fill="none" stroke="#262521" stroke-linecap="round" stroke-miterlimit="10" stroke-width="3"/><path d="M477.4,542.28s18,59.57,102.32,59.57,98.2-63.32,98.2-63.32" fill="none" stroke="#262521" stroke-linecap="round" stroke-linejoin="round" stroke-width="3"/><path d="M401.12,1247.61s119.27,30.67,228.94,21.42c109-9.19,173.83-37.27,173.83-37.27" fill="none" stroke="#262521" stroke-linecap="round" stroke-linejoin="round" stroke-width="3"/><path d="M515.78,713.54h5.62c6.38,0,10.24,3.52,10.24,15.15s-3.86,15.14-10.24,15.14h-5.62Zm3.27,27.53h1.76c4.79,0,7.56-2,7.56-12.38s-2.77-12.38-7.56-12.38h-1.76Z"/><path d="M535.71,713.54H543c4.87,0,8.31,2.85,8.31,7.85,0,3.39-1.51,6.25-4.87,7.42l5.12,15h-3.44l-4.86-14.35-4.29.17v14.18h-3.27ZM539,726.8h2.86c4.7,0,6.21-1.85,6.21-5.25s-1.51-5.24-6.21-5.24H539Z"/><path d="M569.49,713.54v2.77H558.92v10.32h7.8v2.77h-7.8v11.67H570v2.76H555.64V713.54Z"/><path d="M584.05,721.34c-.25-3.1-1.51-5.45-4.66-5.45a3.88,3.88,0,0,0-4.15,4c0,6.84,12.17,6.93,12.17,16.66,0,4.83-2.77,7.72-7.76,7.72-4.75,0-7.6-3.48-7.68-8.56h3c.08,3.57,1.76,5.8,5,5.8,2.73,0,4.49-1.77,4.49-5,0-6.88-12.17-7.68-12.17-16.32,0-4.28,2.94-7,7.3-7s7.22,2.94,7.47,8.22Z"/><path d="M601.63,721.34c-.25-3.1-1.51-5.45-4.65-5.45a3.88,3.88,0,0,0-4.16,4c0,6.84,12.17,6.93,12.17,16.66,0,4.83-2.77,7.72-7.76,7.72-4.74,0-7.6-3.48-7.68-8.56h3c.08,3.57,1.76,5.8,5,5.8,2.73,0,4.49-1.77,4.49-5,0-6.88-12.17-7.68-12.17-16.32,0-4.28,2.94-7,7.31-7s7.21,2.94,7.47,8.22Z"/><path d="M621.44,713.54l5.29,22.91h.08L632,713.54h5.2v30.29h-3V716.06h-.08l-6.29,27.77h-2.15l-6.29-27.77h-.08v27.77h-3V713.54Z"/><path d="M655.09,713.54v2.77H644.52v10.32h7.8v2.77h-7.8v11.67H655.6v2.76H641.25V713.54Z"/><path d="M760.92,892.9c13.8.51,28.23.84,40.93-5.44,1.73-.85.21-3.44-1.52-2.59-12.17,6-26.2,5.52-39.41,5-1.93-.08-1.93,2.92,0,3Z" fill="#262521"/><path d="M491.85,533.24l0,0S491.86,533.2,491.85,533.24Z" fill="#fff" stroke="#262521" stroke-linecap="round" stroke-linejoin="round" stroke-width="3"/><path d="M813.69,1284.58,764.06,838.74S811,591.85,804,588.43c-11.7-5.66-142.29-56.21-142.29-56.21s-2.49,55-82.85,55c-65.08,0-82.09-39.23-86.21-51.38a11.73,11.73,0,0,1-.75-2.59c-1.05.65-133.78,83.87-145.44,89.5-2.8,1.36,73.45,236,73.45,236l-15.74,447.77s59.06,24.58,204.46,24.58S813.69,1284.58,813.69,1284.58Z" fill="#fff" stroke="#262521" stroke-linecap="round" stroke-linejoin="round" stroke-width="3"/><path d="M757,968.88l-60.55,1.64,0-2,60.55-1.64-.32-11.77-60.72,1.65-.06-2,60.73-1.65-.45-16.34-63.75,1.73v-.19l-2,.05-.55-1.75,66.27-1.8-.48-17.49-67,1.82,0-1.86,4.1-.12v-.09l62.92-1.71-.38-14.05L695.84,903l0-1.07,4.1-.11,0-.9,55.18-1.49-.31-11.2-35.63,1,0-2,35.63-1-.26-9.48-34.86,1-.06-2,34.87-.95L754,861.35l-38.87,1,0-2L754,859.39l-.49-18.06L693.56,843a6,6,0,0,0,.09-1.25l0-.72,59.8-1.62-.21-7.76-63.94,1.73,0-2,63.94-1.73-.32-11.77-66.26,1.8-.05-2,66.26-1.8-.34-12.34L698.62,805l0-2,53.84-1.46L752,788.14l-58.58,1.59-.05-2L752,786.18l-.4-14.63L696,773.06l0-2,55.58-1.51-.37-13.48-55.58,1.51-.05-2,55.58-1.51-.35-12.91-52.24,1.42,0-2,52.24-1.42-.31-11.2-49.22,1.34-.05-2,49.22-1.34-.24-8.93,5.15-.14-.22-8.44-7.23.2,0,1-1.7.05,0-1-1.64,0,0,.84-.32-.83-2,.05-.33,1h-.14l-.59-1-1.85,0h0l-1.14,0h0l-2.54.07h-.06a5.27,5.27,0,0,0-3.24.09l-2.33.06,0,1-2.3.06,0-1-1.75,0,0,1-.76,0,0-1-1.65.05a4.2,4.2,0,0,0-1.4-.21,4.47,4.47,0,0,0-1.52.29l-1.62,0h0l-.91,0,0,1-.61,0,0-1-1.76,0v.18a3.76,3.76,0,0,0-1.18-.15l-2.79.08a4.58,4.58,0,0,0-1.63-.21,4.4,4.4,0,0,0-1.61.3l-1.82,0a4.78,4.78,0,0,0-1.62-.22,4.67,4.67,0,0,0-1.62.31l-2.93.08h0l-8.11.22a5.05,5.05,0,0,0-1.62-.21,5.67,5.67,0,0,0-.86.09,2.09,2.09,0,0,0-.36,0,3.57,3.57,0,0,0-2.44.81,2.65,2.65,0,0,0-.31.46l0-.95-1.75,0,0,1h-.49a2,2,0,0,0-.34-.38,3.85,3.85,0,0,0-2.6-.75,4.38,4.38,0,0,0-1.35.25l-8.26.23h0l-.84,0,0,1-.9,0,.06,2.22-1.47,0-.06-2.22h-.07l0-1-6.31.17a4.58,4.58,0,0,0-1.63-.21,4.44,4.44,0,0,0-1.61.3h-.06v0a2.25,2.25,0,0,0-.38.19,3.83,3.83,0,0,0-1.81-.41,4.53,4.53,0,0,0-1.53.29l-1.35,0-.26.6a3.77,3.77,0,0,0-2.62-.78,4.63,4.63,0,0,0-1.62.3l-1,0,.25.41a2.22,2.22,0,0,0-.36.32,3,3,0,0,0-.23.27l-.93,0,0-1-7.85.21h0l-1.7,0,0,1-2.12.06,0-1-1.65,0v.31a1.43,1.43,0,0,0-.21-.12l-.07-.18h-.52a4.68,4.68,0,0,0-1.22-.12,3.85,3.85,0,0,0-1.3.25l0-.06-1.85,0,0,1-1.66,0,0-1-1.67,0a5.15,5.15,0,0,0-1.22-.12,3.63,3.63,0,0,0-1.07.19l-2.82.07,0,1-1.72,0-.05-.09a2.59,2.59,0,0,0-2.21-.84l-4.47.12,0,1-.73,0s-.07-.12-.11-.18a2.3,2.3,0,0,0-.81-.57,3.8,3.8,0,0,0-1.21-.17h0l-4.17.11,0,.7a2.75,2.75,0,0,0-2-.64l-1.81,0a4.88,4.88,0,0,0-1.63-.22,4.31,4.31,0,0,0-2,.49v-.18l-6.84.19h0l-2.06.06,0,1.19-.46-1.19-2,.05-2.41,7.37-6.26.12-.06-2,2.68-5.36-2,.06-1.57,3.72-1.86-3.63-2.07.06,3.06,5.19,0,2-3.72.07a2.09,2.09,0,0,0,0-.24V720a2.85,2.85,0,0,0-.28-1.32,1.55,1.55,0,0,0-.85-.64,1.7,1.7,0,0,0,1-.85,2.55,2.55,0,0,0,.27-1.19,2.37,2.37,0,0,0-.18-.88,2.67,2.67,0,0,0-.44-.7,1.93,1.93,0,0,0-.81-.57,3.43,3.43,0,0,0-1.33-.18l-4,.11.19,7.14-3.59.07-.16-5.62,2.53-.07,0-1.49-6.84.18,0,1.5,2.54-.07.15,5.6L480,722.52l.3,10.94,18.16-.5,0,2-18.16.5.31,11.19,71-1.93,0,2-71,1.93.35,12.91,34.44-.93.06,2-34.45.93.37,13.48L552.78,775l.05,2-71.29,1.93.4,14.63L536.41,792l.05,2L482,795.47l.37,13.48,67.48-1.83,0,2-67.48,1.83.34,12.34,54.41-1.47.06,2-54.42,1.47.32,11.77,62.93-1.71.05,2-62.93,1.71.21,7.76,68.84-1.87,0,2-68.83,1.86.49,18.06,57.34-1.55.05,2L484,868.68l.37,13.49,68.83-1.87.05,2-68.83,1.87.26,9.47,67.48-1.83.05,2-67.48,1.84.31,11.19,75-2,.61,1.95-75.52,2.05.38,14,75.19-2,.61,1.95-75.75,2.05.48,17.49,78.95-2.14.61,1.94L486,944.18l.45,16.34,66.14-1.79.06,2-66.15,1.79.32,11.77,66.31-1.8.06,2-66.32,1.8.24,8.95,270.05-7.33Zm-62.82-164.5a2,2,0,0,1,.85-.16l1.89-.05,0,.92-3.21.09A.91.91,0,0,1,694.13,804.38Zm56-88.7-.06-2.17,1.28,0,1.3,2.14Zm3.48-1.14-.67-1.11.64,0Zm-.12-4.39,0,1.79L752,712l-1.07-1.77Zm-3,1.88H750l0-.76ZM500.25,734.88v0l1.73-.05a2.91,2.91,0,0,1,.32,0Zm2.7-1.65a2,2,0,0,1-.85.16l-1.89.05,0-.52,3.13-.09A.84.84,0,0,1,503,733.23Zm1.86,1.52a.47.47,0,0,0,0-.09,1.56,1.56,0,0,0-.84-.64,1.76,1.76,0,0,0,1-.85,3,3,0,0,0,.13-.39l1.85,0,.05,2Zm3.93-.1-.05-2,3.19-.08.05,2Zm5-.14-.05-2,1.67,0,0,2Zm3.32-.09-.06-2h.43l1.18,1.93Zm3.14-.09L519,732.4l1.53,0,.05,2Zm2.05-.05-.05-2,6.75-.19.05,2Zm8.53-.23-.06-2,3.11-.09a6.57,6.57,0,0,0,0,1,6.92,6.92,0,0,0,.1,1Zm9.24-.25-4.34.11a4.42,4.42,0,0,1-.14-.95,5.2,5.2,0,0,1,.09-1l4.33-.11a4.21,4.21,0,0,1,.15,1A4.75,4.75,0,0,1,540,733.8Zm1.81,0c0-.31.05-.62.05-1a6.12,6.12,0,0,0-.11-1l6.52-.18.05,2Zm8.28-.23-.05-2,1.55,0,.06,2Zm-32.8,28.94,0-1.27,1.72-.05a1.45,1.45,0,0,1,1,.24,1.53,1.53,0,0,1,.3,1Zm4.78-.13h0a2.69,2.69,0,0,0-.28-1.31,1.53,1.53,0,0,0-.78-.61l2.93-.08,0,.74a6.77,6.77,0,0,0,.15,1.21Zm6.72-.18-2.81.07a2.92,2.92,0,0,1-.22-1.21l0-.74,3.19-.09,0,.74A3.06,3.06,0,0,1,528.79,762.15Zm1.87,0a6.51,6.51,0,0,0,.08-1.22l0-.75,1.66,0,.06,2Zm3.42-.1-.05-2,1.14,0,1.18,1.93Zm2.68-2,.82,0,0,1.44Zm2.52,1.89,0-2,6.74-.18.06,2Zm8.52-.23,0-2,3-.08a5.27,5.27,0,0,0,.45,1.95ZM538.13,792l2-.06H540l-1.9,0Zm0,2v-.56l1.72,0a1.45,1.45,0,0,1,1,.24.88.88,0,0,1,.16.29Zm4.73-.13a1.74,1.74,0,0,0-.21-.61,1.58,1.58,0,0,0-.84-.65,1.66,1.66,0,0,0,.87-.7l2.11-.06,0,1.46c0,.19,0,.33,0,.5Zm6.93-.19-3.12.08a3.52,3.52,0,0,1-.05-.5l0-1.46,3.19-.08,0,1.45C549.86,793.32,549.85,793.47,549.84,793.63Zm-10.9,29.08,0-1,3.28-.09,0,1Zm6.19.81,0-2,.62,0,0,2ZM543,867.08l-.05-2,.86,0,1.17,1.93Zm2.4-2,1.11,0,0,1.93Zm2.8,1.89,0-2,2.48-.07.75,1.94Zm140.37,71.55-.88,0,0-1.77.47,0Zm-3.83-75.26-.05-2,6.75-.18.05,2Zm-4.53,27-1.67,0,0-2,1.77-.05a5.82,5.82,0,0,0-.07,1.14Zm-1.84-70.36-.74-1.94,2.1-.06,0,2Zm.12,13.35H678l0-1.31Zm-.55,10.13h-.17l.1-.14S677.88,843.34,677.9,843.38Zm-.77-39.71.72,1.18,0,.76-1.32,0,0-2Zm-.41-15.45,1.22,0,.06,2h-.11Zm8,43.29,1.18,1.93-1.83,0-.05-2Zm-.09-13.74h.25v.45Zm2.22-28.26c.07.14.17.26.25.39L685,790l0-2,1.79,0a2.59,2.59,0,0,0-.09.68A2.42,2.42,0,0,0,686.86,789.51Zm0,51.67,0,.72a5.61,5.61,0,0,0,.15,1.24l-1.89.05a5.45,5.45,0,0,0,.35-2Zm-2.78,37.52a6.05,6.05,0,0,0,.19-1.71c0-.09,0-.17,0-.25l3-.09.05,2Zm2.78,10a5.58,5.58,0,0,0-.07-.62h.06Zm-5.47-68.92,0-2,1.71-.05,1.18,1.93Zm1,11.75.06,2-2,.06-.74-2Zm-2.48-26-.25-.41,0-.91a5.93,5.93,0,0,1,0-.63h.41l.05,2Zm1.8-2,1.06,0a5.4,5.4,0,0,1,.06.63l0,1.33-1.1,0Zm-1.65-13.45-.06-2,3.19-.08.06,2Zm1.07-16.62-2,0-.05-2,2.73-.07Zm2.6,67.79a3.35,3.35,0,0,1-.54,2l0,0-3.28.09,0,0a3.26,3.26,0,0,1-.65-1.92Zm-.64,61.51h0v-.09Zm-3.27-40.4c.06-.07.1-.15.19-.19a1.91,1.91,0,0,1,.84-.16l1.9,0,0,1.31-3.15.09A5.08,5.08,0,0,0,679.81,862.37Zm3.21,74.5.72,0,.46,1.95-1.79.05Zm.75-48.67,1.16,0a3.09,3.09,0,0,1,.2,1.13l0,.82-1.83,0A4.93,4.93,0,0,0,683.77,888.2Zm3.37,14V902l.45,1.22-2.47.07-.41-1.06Zm1.68-14.1a2.72,2.72,0,0,0,.27,1.24,1.56,1.56,0,0,0,.85.65l-.08,0-1.18,0-.06-2Zm.68,15.11h-.34l-.61-1.95,1.46,0ZM690.61,888l3-.08,0,1.2-1.72,0a1.4,1.4,0,0,1-1-.24A1.47,1.47,0,0,1,690.61,888Zm.42,15.12.61-2,2.42-.07.05,2Zm4.34-13.29,0-2h0l0,2Zm-6.24-11.27-.06-2,6.75-.19,0,2Zm10.72,9.19.72,0,0,1.25Zm2.41,1.9,0-2,1.67-.05,0,2Zm.46-11.46-.06-2,1.67,0,0,2Zm9.93,9.33a2.44,2.44,0,0,0-.27,1.19,2.28,2.28,0,0,0,.13.66l-1.81,0-.05-2,2.09-.06A.54.54,0,0,0,712.65,887.53Zm2.44-10.76a1.91,1.91,0,0,1,.84-.16l1.9-.06,0,1.24-3.22.08s0-.08,0-.14A1,1,0,0,1,715.09,876.77Zm-.48,10.69a1.57,1.57,0,0,1,.38-.11l2.37-.06,0,2-2.88.07a1.09,1.09,0,0,1-.39-.89A1,1,0,0,1,714.61,887.46ZM714.1,876a1.7,1.7,0,0,0-1,.85,2.39,2.39,0,0,0-.26,1.09l-1.7.05-.06-2,2.9-.08S714.06,876,714.1,876Zm-3.44-14.64a2.17,2.17,0,0,1,.84-.15l1.9-.06,0,1.32-3.2.09a.86.86,0,0,1,0-.23A1,1,0,0,1,710.66,861.34Zm-1-.75a1.77,1.77,0,0,0-.92.82,2.51,2.51,0,0,0-.27,1.18l-1.69,0-.05-2Zm-.3,15.47.05,2-3.18.08-.06-2Zm-.45,11.46,0,2-3.19.08-.05-2Zm-4-26.8.05,2-3.19.09,0-2Zm-3.82,17.52h0l-1.17-1.93,1.15,0Zm-1.16-17.38.05,2-1.67,0,0-2Zm-1.64,15.5,1.17,1.93-1.92.05-.06-2Zm0,11.44,1.17,1.93-2.37.07,0-2ZM696.6,861l0,1.92L695.49,861Zm-2.7.07,1.17,1.93-2,0-.05-2Zm-2.06-20,0,.72a2.94,2.94,0,0,1-.17,1.25l-2.79.08a2.92,2.92,0,0,1-.23-1.25l0-.71Zm-4.26-9.61.06,2h-.14l-1.17-1.93Zm-.73-26.07-1.64,0-.05-2,1.4,0a2.1,2.1,0,0,0,.22.73,1.61,1.61,0,0,0,.85.65A1.77,1.77,0,0,0,686.85,805.36Zm3.31-1.37,0-.68,1.16,0,0,.68Zm2.87-.33v-.13a.6.6,0,0,0,.11.06Zm3.34-60.95-1.17-1.93,1.63,0,.06,2ZM703.44,712a2,2,0,0,1,.63-.54l.78,0,.15,5.64a2,2,0,0,1-1.44-.69,2.47,2.47,0,0,1-.38-.7l-.08-3A2.39,2.39,0,0,1,703.44,712Zm-3.44,6-.08-2.81a1.33,1.33,0,0,1,1,.24,1.54,1.54,0,0,1,.31,1.07l0,.78a3.83,3.83,0,0,0,.09.69Zm.42-6.47a1.29,1.29,0,0,1,.44.11,1,1,0,0,1,.46.78v.07a5.47,5.47,0,0,0-.16.86.64.64,0,0,1-.27.27,1.91,1.91,0,0,1-.84.16h-.17l-.06-2.24Zm-3.73,16.6a2.07,2.07,0,0,1,.84-.16l1.9,0,0,1.49-3.17.08a1.12,1.12,0,0,1-.09-.39A1,1,0,0,1,696.69,728.19Zm-1.36-.57a1.64,1.64,0,0,0-.54.54v-.53Zm-1,45.49h-.13l-1.17-1.93,1.25,0Zm-.43-16-.86-1.43.82,0Zm-.8-29.47,0,.63-.38-.62Zm-.47,30-2.27.06,0-2,1.14,0Zm0,15.45-1.84.05,0-2,.71,0Zm-1-31.79,0,1.48-1.73,0a1.57,1.57,0,0,1-.08-.4.93.93,0,0,1,.47-1,2,2,0,0,1,.85-.16Zm-.73-13.62.05,2-1.34,0,0-2Zm.76,60.08.05,1.61-2,.05a1.82,1.82,0,0,1-.82-.12,1.06,1.06,0,0,1-.51-1,1.15,1.15,0,0,1,.08-.44Zm-2.51-14.57-2,0-.75-1.94,2.72-.07ZM689,741a1.24,1.24,0,0,0-.26.19l-.07-.18Zm-1.07-13.13.06,2h-.21l0-2Zm-1,13.19.69,1.94-1.19,0,0-2Zm1.76,14.83.06,2-1.77.05-.75-1.94Zm-2.75-28v.5l-.19-.49ZM685.17,773,683,773l.47-1.57,1.15,0Zm-2.6-16.13.25-.82,1.63,0,.28.8Zm1.89-27.45.17.5h-.31v-.5Zm-1.79.35-.18-.3h.18Zm-.88-1.74.84,0h0l-.84,0Zm2.74,13.09-.64,2-2.27.07-.06-2ZM680,728h0l-.64,2h-.27l0-2Zm-.36,15.14h-.49l.39-2h0Zm1.42,12.88-.65,2-1.76.05,0-2Zm-2.75-14.81L678,743l0-1.72Zm-.88,32.33-1,0,.39-2,.52,0ZM677,756.16l0,2-1.13,0,.39-2Zm-.52,122.75-2.08.06a3.65,3.65,0,0,1-.12-.91l0-1,2,0c0,.08,0,.16,0,.25A6.16,6.16,0,0,0,676.46,878.91ZM674,863.52a3.79,3.79,0,0,1-.46-1.78,1,1,0,0,1,0-.17l.69,0,.06,2Zm.19,26.9-.86,0,0-1.52Zm-1.12-56.64,0-2,2-.05-.64,2Zm.89,9.15v-.59l.4-.82,2.1-.06a2.36,2.36,0,0,1-.16.95,1.35,1.35,0,0,1-1.36.75A1.74,1.74,0,0,1,673.94,842.93Zm-1.05-22.88.21-.7,3.11-.08.24.68Zm.14-48.33.49,1.95-.95,0-.05-2Zm-.88-13.47,0-2h.68l.49,1.94Zm3.5,13.4-.39,2-.46,0-.5-1.95Zm-.37-30.32h.12l.08.33Zm-.37,47.57-.38-.62h.36Zm-.24-30.71h-.11l-.51-2,1,0Zm-.16,45.55,0,2-.8,0-1.18-1.93Zm.84-75.58.87,0,0,2-1.31,0Zm-1.23,0-.28,1.4-.36-1.38Zm-.72,13.19.05,2-.66,0,0-2Zm-1.2-13.14.49,2-1.3,0,0-2Zm.54,60.09.06,2-1.41,0,0-2Zm-6.39,131.49-1.75,0-.05-2,2.44-.06Zm.63,18.59-.38-1.09H667ZM659.57,920l-.05-2,3.28-.09.05,1.95Zm2.4,19.35-.89,0-.05-1.92.89,0Zm-1.88-48.56a5.5,5.5,0,0,0-.25-1.47l2.39-.06,0,1.47Zm2.3,12,0,1.15-2.14.06a3.85,3.85,0,0,1-.06-.63l0-.52Zm-2.85-23.38,0-.72,3.18-.08,0,.71ZM655,864l0-.81,3.28-.08,0,.8Zm2.81,56h-.1a4.18,4.18,0,0,0,.09-.41ZM645.58,891.2l-.06-2,4.09-.11v.41l2.59-.07A5.79,5.79,0,0,0,652,891Zm5.47,27.6a3,3,0,0,1-.18,1.28c0,.07-.11.1-.15.17l-1.45,0a5.2,5.2,0,0,0,.43-2l1.33,0Zm-3.55-14.49a5.38,5.38,0,0,1-.06-.64l0-1.32,1.57,0c0,.12,0,.22,0,.35a6,6,0,0,0,.26,1.6Zm.42,14.05a4.93,4.93,0,0,1-.06.58v-.05l0-.53Zm-9.33-38.42-.63,0,0-1,1.72,0a1.36,1.36,0,0,1,1,.24,1.24,1.24,0,0,1,.26.69h-.64l-1.7,0Zm-.4,11.15-3,.08-.05-1.65,3.28-.09,0,1.19h-.37A3.4,3.4,0,0,0,638.19,891.09ZM632,940.22l-1.14-1.93,4.59-.13.07.12,0,1.84Zm1.46,18.28-1.22,0-.05-2,1.22,0Zm-7.49-37.58-.05-2,5.1-.14.36.61,0,1.34Zm1.1,17.47-.9,1.8-1.08,0,0-1.77Zm-5.69,18.68a1.6,1.6,0,0,0,0-.21l2.37-.06-1,2-1.86.06a2.41,2.41,0,0,0,.49-1.5A1.18,1.18,0,0,0,621.35,957.07Zm.83-17.14a2.06,2.06,0,0,1-.45.38l-2.41.06a1.6,1.6,0,0,1-.47-.35,3,3,0,0,1-.56-1.39l4.38-.12A2.89,2.89,0,0,1,622.18,939.93Zm-17.9-35.38-.16.94H604l-.22-1-.23-1,1,0Zm.18,34.45-.17,1-.21-1ZM596.1,773.81l6.47-.17,0,2-6.61.18a6.61,6.61,0,0,0,.14-1.45C596.14,774.14,596.11,774,596.1,773.81Zm3.75-15.55,0,2-3.11.08a3,3,0,0,0,0-.43,2.08,2.08,0,0,0-.65-1.51Zm-1-26.1,1.73,0a1.1,1.1,0,0,1,.26,0h0l-2,.06Zm2.76,26.05.53,0,.05,2-.53,0Zm1.58,77.47H603l0-1h.25c0,.21,0,.4,0,.62S603.19,835.56,603.2,835.68Zm.32,7.76a4.51,4.51,0,0,0,.48,1.23,2.3,2.3,0,0,1-.32.71l0,0-1.6,0,0-2Zm5.87-37.94,2.4-.06a2,2,0,0,0,.71,1.48l0,.46-3.2.09a5.67,5.67,0,0,0,.12-1.4A5.25,5.25,0,0,0,609.39,805.5ZM611.66,792v-.38l-2.53.07,0-1.58,2.18-.06a1.75,1.75,0,0,0,.43.47,3.36,3.36,0,0,0,.79.34,2.69,2.69,0,0,0,.41,1.11Zm1.62,27.76-.49,1.5-4,.11,0-1.49Zm4.38-14.43a1.85,1.85,0,0,0,.42.51,3.77,3.77,0,0,0,1.47.58l1.49.3a5.55,5.55,0,0,1,1.14.32,1.79,1.79,0,0,1,.14.13l-4.19.11a1.78,1.78,0,0,0-.32-.35,5.38,5.38,0,0,0-1.87-.6l-.92-.18a5.09,5.09,0,0,1-.77-.19v-.54Zm-3.19-14a4.15,4.15,0,0,1,1.18.36s.06.07.1.1a2.33,2.33,0,0,1-.92-.16A1.31,1.31,0,0,1,614.47,791.25Zm7.36-33.59.78,0,.06,2-2,0h0a2.85,2.85,0,0,0-.28-1.32,1.18,1.18,0,0,0-.28-.31l1.71,0Zm.45,16.5,0-1.06,5.33-.14a2,2,0,0,0,.46.51,5.83,5.83,0,0,0,1.87.59l.92.18a4,4,0,0,1,1.18.36.77.77,0,0,1,.21.19l-14,.38,0-.9Zm6.16-16.54a10.45,10.45,0,0,0,1,.25l.92.18a4,4,0,0,1,1.18.36.68.68,0,0,1,.31.94l-3.37.09a2.47,2.47,0,0,1-.17-.56l-1.68,0a2.62,2.62,0,0,0,.07.57l-2.34.06,0-1.65,4.1-.11Zm4.57-.26.6,0,0,1.51A2.09,2.09,0,0,0,633,757.36Zm.65,1.55v.39h0C633.64,759.17,633.66,759,633.66,758.91Zm3.45,13.79,0,2-3.13.08a2,2,0,0,0-.73-1.38,3.64,3.64,0,0,0-1.29-.52Zm4.84-.13c0,.17,0,.33,0,.51a5.8,5.8,0,0,0,.22,1.44l-3.22.09,0-2Zm-.13-13.83a2.52,2.52,0,0,0,.14.33h-.13Zm-5.93,105.82s0-.06,0-.1l-1.16,0-.05-1.71a3.71,3.71,0,0,0,1.43.55l1.49.31a4.82,4.82,0,0,1,1.13.32.69.69,0,0,1,.39.51Zm.35,15.44-1,0,0-2,1,0Zm.21,24.61-3.2.09,0-1.55.21-.42,2.78-.08c0,.12,0,.23,0,.35A5.65,5.65,0,0,0,636.45,904.61ZM629,835l.59-2h.44l.35,1,0,1Zm1,56.25h-.35a5.44,5.44,0,0,0,.26-1.58H630Zm-.63-46.53-1,0,.24-.77.55,0ZM633,820.23l-2.58.07,0-1.06,2.24-.06A4.81,4.81,0,0,0,633,820.23Zm-.11-15.36h.33v0h-.33Zm-2.12,39.54-.1-.51h.19Zm2.13,18.27,0,2-2.1.05-.05-2Zm-3.45-55.76,0-.47,1.75-.05v.48Zm.38-15.46,0-2,1.74,0,.06,2Zm1.31,13.45v0l-1.75.05v0Zm-.75,73.29,1.41,0,.39,1.11-1.81.05a8.07,8.07,0,0,0,0-.87A2.13,2.13,0,0,0,630.37,878.2Zm2.6,11.38.06,2-1.3,0-.06-2Zm-.44-54.69-.35-.9,0-1.06,2.81-.07,0,2Zm1.07-45.5,1.43,0,.05,2-1.57.05a5.85,5.85,0,0,0,.14-1.49A3.71,3.71,0,0,0,633.6,789.39Zm2.55,15.39,0,1.14L635,806l0-1.14Zm-.93,37.8,0,.72-.17,1-.29-1.33-.09-.37Zm-1.9,0,.4,1.68-.65-1.67Zm3.68,1.86,0-2h0l2.78-.07a1.74,1.74,0,0,1,.25,1l0,.78,0,.21Zm4.49-38.3v.4l-3,.09v-.41Zm-3.07-1.37v-.1l3-.09v.1Zm1.92,14.71.82,1.38-1.55.05A4,4,0,0,0,640.34,819.53Zm-.42,13.19s0,0,0,0a1,1,0,0,1-.47,1,2,2,0,0,1-.85.16l-1.56.05a5.55,5.55,0,0,1-.1-.61c0-.2,0-.35,0-.53Zm1.18,29.73c0,.06,0,.11,0,.17a6,6,0,0,0,.31,1.79l-.65,0a2,2,0,0,0-.89-1.78,3.05,3.05,0,0,0-.35-.15Zm.23-27.8h-.62c-.09,0-.16-.1-.27-.14a1.67,1.67,0,0,0,1-.85c0-.08.06-.16.09-.23A4.4,4.4,0,0,1,641.33,834.65Zm.08-43.88a1.34,1.34,0,0,0-.09-.24,1.56,1.56,0,0,0-.84-.64,1.77,1.77,0,0,0,.87-.71h.48l0,1.58Zm1.51,51.6-.65,2h-.47a3.43,3.43,0,0,1,0-.5l0-.57a3.46,3.46,0,0,0-.12-.88Zm-1-23.44h0v.1Zm-2.58-28.11h0v.38l-1,0v-.56h.18A1.66,1.66,0,0,1,639.35,790.82Zm-.68,28.2a2.52,2.52,0,0,1-.44,1,2,2,0,0,1-1.64.82,2,2,0,0,1-1.69-.73,2.58,2.58,0,0,1-.5-1Zm-11.06,45,0,.8-1.87.05a6.08,6.08,0,0,0,.17-.81Zm-1.13-19.2a5.45,5.45,0,0,0,.36-2h.32l-.65,2Zm.82-9.77a2,2,0,0,0-.73-1.36,3.71,3.71,0,0,0-1.33-.53l2.7-.07Zm-1.62-43.82-2.07.06v.38l-1,0-.06-2,3.07-.08c0,.16,0,.31,0,.48A6.28,6.28,0,0,0,625.68,791.19Zm2,13.82,0,1.06-3.91.11a1.91,1.91,0,0,0-.44-.5,5,5,0,0,0-1.54-.51Zm-.77,14.33.81,0,0,2-1.69,0a1.53,1.53,0,0,0,.59-.62,2.45,2.45,0,0,0,.28-1.19C626.91,819.44,626.89,819.4,626.88,819.34Zm-2.36.06h.54a1.24,1.24,0,0,1,.09.41.93.93,0,0,1-.47,1,1.06,1.06,0,0,1-.19.06,2.6,2.6,0,0,0,.14-.89A2.27,2.27,0,0,0,624.52,819.4Zm-2,.08a.68.68,0,0,1,.38.63.93.93,0,0,1-.51.85h-.48l-.05-1.5h.61Zm.63,14.88.92.17a3.8,3.8,0,0,1,1.19.37.65.65,0,0,1,.19.18l-4.15.11.32-1.28A7.41,7.41,0,0,0,623.18,834.36Zm4.3-43.21a4.62,4.62,0,0,1-.17-1.11c0-.18,0-.31.05-.48l.67,0,.05,1.59Zm-8.61-1.36,1.87,0,0,2-2.11.06a2.4,2.4,0,0,0,.34-1.28A2.49,2.49,0,0,0,618.87,789.79Zm-1.09-30.06,0-1.25a1.23,1.23,0,0,1,.86.23,1.54,1.54,0,0,1,.3,1Zm-.15,120.78.22-1.24,1.15,0,.24,1v.22Zm1.52,40.6h-.37l0-2h.36Zm-2.63-56.9,1.45,0a5.53,5.53,0,0,0,.22.87l-1.65,0Zm0,15.21-.18,1.12h0l-.16-.79a.92.92,0,0,1,.31-.31Zm.19-44.11.18-1.06.15-.91h.26l.19.9.25,1Zm1.43,7.73.46,2-1.17,0-.05-2Zm1-7.79-.46-2,1.5,0-.4,2Zm.54-14.45a1.76,1.76,0,0,1-.35-.86l-1.68,0a2.64,2.64,0,0,0,.52,1.55h-.54l-.75-1.94,3.31-.09.05,1.62A1.36,1.36,0,0,1,619.66,820.8Zm-4.85,14.57-.23-.89,1,0,0-1.08h.23l-.34,2Zm.6,8-.07.47-.1-.46Zm-3.79,21.9a.86.86,0,0,1,0-.23.94.94,0,0,1,.47-1,2.17,2.17,0,0,1,.85-.16l1.89-.05,0,1.32Zm2.88,14.29a2.68,2.68,0,0,0-.26,1.09l-1.75,0,0-1.87v0h0v-.06l1.8-.05Zm-3-44,0-.89,1.45,0,.28.88Zm2.89-13.82.59-2h.2l.69,1.94Zm-.1,23.47-1.85,0,0-1.76,1.36,0Zm-3.61.1h-.22a1.86,1.86,0,0,0,.21-.28Zm-1.53-11.65a4.06,4.06,0,0,1,.37,1.6c0,.13,0,.23,0,.35l-1.45,0,0-2Zm.41,9.72a2.61,2.61,0,0,1-.41.91,2,2,0,0,1-1.65.81,2,2,0,0,1-1.56-.63,7.65,7.65,0,0,0,.08-1Zm-1.1,22h-.37v-.51A.71.71,0,0,1,608.43,865.3Zm-4.77-59.64,3.26-.09.05,2-3.06.09c0-.13,0-.24,0-.36A5.58,5.58,0,0,0,603.66,805.66ZM607,820.37l0,1.47h-.42Zm-1.56-.45-.18.89,0-.88ZM605,834.66l1.25,0,0,1-1.28,0a3.43,3.43,0,0,1-.06-.34A5.86,5.86,0,0,1,605,834.66Zm.94-43.49,0-1,1.42,0,0,1.58-2.52.07v.38l-1.46,0a3.61,3.61,0,0,0,.54-1Zm-1.56-17.58,3.54-.1.05,2-3.54.1ZM602,822l.13-.7.19-1.27h.13l.27,1.26.16.69Zm-.06-30.7s0,0,0,0-.08.06-.11.09v-.13Zm-2,113.36-.16,1h-.13l-.2-1-.25-1,.9,0Zm.44,15,0,.21-.21,1.32-.28-1.34,0-.17ZM598,881l0-1.42h0l.37,1.41Zm.08,11.45-1.3,0-.06-2,.86,0Zm-1-26.88,0-2,1.33,0,0,2Zm0-20,0-2,1,0a5.18,5.18,0,0,0,.46,1.95Zm.61-11.09v-.62l2.36-.06,0,.62Zm.68-44.14,1.75-.05,0,1.81a2,2,0,0,1-1.52-.7,2.82,2.82,0,0,1-.26-.49Zm.93,89.24.56,0,0,1.19V881h-.24Zm.46-36,.55,0,0,1.85A3.37,3.37,0,0,1,599.7,843.55Zm.58-21.53-.06-2,.81,0-.33,2Zm-.28-14.3,0-2,1.43,0c0,.19,0,.37,0,.57a6.55,6.55,0,0,0,.2,1.39Zm-2.35-.86h.61l0,.92-.63,0c0-.13,0-.23,0-.36A5,5,0,0,1,597.65,806.86Zm0,13.27.61,2-1.81,0a5.75,5.75,0,0,0-.36-2Zm.53,99.58.61,1.95-2.94.08,0-2Zm.19,21.42,0-1.76,3.28-.09,0,1.76Zm.31,18.31-1.46,0-.06-2,1.46,0Zm2.64-37.85.35-2,1.07,0,.46,1.95Zm-.27-16,.29-1.63,0,1.62Zm0-13.16,0-2,2.86-.08a3.34,3.34,0,0,1,.62,1.94Zm2-11.51-.06-2,1.39,0s0,.05,0,.07a5.67,5.67,0,0,0,.35,1.88Zm.48-15.56a.3.3,0,0,1,0,.1l-3.35.09-.06-2,2.08-.06,0,1.09,4.1-.11,0,.87-1.11,0s0-.06,0-.1ZM605.75,939l1.27,0,.46,2-2.08.06Zm-.16-33.52.5-2,2-.05.06,2Zm.78,16,.35-2,1.08,0,.45,1.95Zm-.15-29.18a5.29,5.29,0,0,0-.42-2h.36v.42l3.06-.08,0,1.54Zm.39-11.46a3.63,3.63,0,0,1-.51-1.87s0-.05,0-.08l.5,0,0,1.18,3.93-.11a2.72,2.72,0,0,1-.31.8Zm3.47-16.72a3.61,3.61,0,0,0-.16.42,1.86,1.86,0,0,0-.72-1c-.09-.05-.24-.1-.35-.15l2.14-.06A1.67,1.67,0,0,0,610.08,864.09Zm1.25,55.27.6,0,.05,2-1.15,0Zm1.36,19.42,0,2-2.58.07,0-1.2.2-.77ZM612,892.11l0-2,2.11-.06v0s-.05,0-.06.08a2.59,2.59,0,0,0-.27,1.2,2.34,2.34,0,0,0,.13.66Zm2.17,11.14.74,0,.46,1.95-1.56,0Zm2.76,16,.06,2-1.65.05-.06-2Zm-.07-14.06h-.14l-.22-1-.22-1,1,0-.21,1Zm-.74-14.24a.71.71,0,0,1-.36-.55.8.8,0,0,1,.2-.21,1.22,1.22,0,0,1,.38-.11l2.37-.07,0,1.61c-.18,0-.32-.09-.53-.13l-.91-.17A3.8,3.8,0,0,1,616.15,890.9Zm2.56,14.19h-.35l.32-1.26Zm1.71-2h.45l0,2h-.44Zm.1-11.2,0-1.47.59,0a3.86,3.86,0,0,0-.06-.49l.88,0a4.91,4.91,0,0,0,.55,1.94Zm.39-13.42H621l-.11.54Zm1.21,1.93.26-1a5,5,0,0,0,.21,1ZM620.85,865l-.05-2,1.75,0,.05,2Zm.37-20.05,0,0a2.57,2.57,0,0,1-.28-.52l.36-1.42,3.79-.1a3.39,3.39,0,0,1-.53,1.95l0,0Zm2.87,33.45,4.52-.12v0l-.64,2-3.48.09a3.94,3.94,0,0,1-.42-1.7C624.07,878.53,624.09,878.46,624.09,878.37Zm6,24.45.83,1.39v.55l-4.86.13-.06-2Zm3,17.91,0-1.35.32-.62,2.59-.07.36.6,0,1.35Zm3.64,35.71.05,2-1.13,0-.05-2Zm4.74-66.68a5,5,0,0,1,1.13.32.73.73,0,0,1,.43.66.93.93,0,0,1-.17.53l-2.66.07,0-1.85ZM643.4,938l-.29,1.14a2.85,2.85,0,0,1-.47-1.12Zm-.68-58.12a3.21,3.21,0,0,0-.1-.62,3,3,0,0,1,.51.17.72.72,0,0,1,.36.43Zm.6-15.47a3.71,3.71,0,0,1-.47-1.79c0-.06,0-.1,0-.16l2.77-.08,0,1.09,1.67,0a2.76,2.76,0,0,1-.28.88Zm-.08-31.73h.2l0,2h-.33a6,6,0,0,0,.13-1.44A4.53,4.53,0,0,0,643.24,832.63ZM649.33,789l.81,0a4.07,4.07,0,0,0,.9,1.94l-4.84.13v-.37l-.92,0v-.56l4.1-.11Zm5.18-.14,0,1.75a2.73,2.73,0,0,1-.41.1,2,2,0,0,1-1.69-.73,2.75,2.75,0,0,1-.5-1.06Zm-1.39-16.57,2.41-.06a2.51,2.51,0,0,1-.51,0l-1.9,0Zm0,2v-.52l1.72-.05a1.4,1.4,0,0,1,1,.25,1,1,0,0,1,.14.25Zm3.25,44.32,0,1.48-1.38,0a5.87,5.87,0,0,0-.31-1.48Zm-.27-29.76h.1l-.09.29Zm4.64,15.33.05,2-3.06.08c0-.12,0-.23,0-.35a6.37,6.37,0,0,0-.26-1.6Zm-.6-13.85.31-1.6H661l0,1.58Zm-1.49.41h-.26L658,789l.06-.23,1.23,0-.32,1.59h-.27Zm-.81-16.57a1.72,1.72,0,0,0-.2-.58,1.56,1.56,0,0,0-.84-.64,1.69,1.69,0,0,0,.89-.74l2.13-.06.06,2Zm-.46,59.22h0Zm-1-76.6.59,0v.42A1.58,1.58,0,0,0,656.46,756.72Zm.3,85.28v.47a1.58,1.58,0,0,0-.62-.46Zm-.61-7.76-1.23,0,0-.89.73,0ZM655.09,843a1.65,1.65,0,0,1,.3,1l-3,.08,0-1.3,1.72,0A1.5,1.5,0,0,1,655.09,843Zm-2.7,59.24,2.85-.07c0,.12,0,.21,0,.34a4,4,0,0,1-.29,1.63l-2.61.07c0-.21,0-.4,0-.64Zm-5.94-22.48,0-1.34,3.67-.1v.55l4.1-.11,0,.78Zm-1.36-60.89,1.35,0a1.62,1.62,0,0,1,.29,1l0,.78a.68.68,0,0,1,0,.14l-2.68.07Zm-1.58-12.3-.06-2,3.55-.1,0,2Zm2.8,35.74.27.77-1.13,0,0-.78Zm.08-9.68v-.05l2.45-.07a2.74,2.74,0,0,1-.55.07Zm3.35-26.23-.91,0-.06-2,1.11,0a5.89,5.89,0,0,0-.17,1.62C649.71,806.14,649.73,806.25,649.74,806.37Zm.71,12.33.06,2-1.72.05a3.55,3.55,0,0,1,.46-2Zm.16,23.46,0,2-.51,0v-.55l-1.51,0-.54-1.4Zm-.82,22-.82,0a4.58,4.58,0,0,0,.17-.88h.63Zm1.67-2,.75,0,.06,2-.76,0Zm1.69-29.81.05,2-2,.06a1.48,1.48,0,0,0-1-1.21,1.61,1.61,0,0,0,.9-.75Zm-1-13.71.62,0a3.36,3.36,0,0,1,.49,1.48l-1.07,0Zm-4.13-44.29-4.08.11a4.21,4.21,0,0,1-.29-1.43c0-.2,0-.34.05-.52l4.45-.12c0,.17.07.32.08.51A4.19,4.19,0,0,1,648.05,774.36Zm-4.33-15.72a3.54,3.54,0,0,1-.44-1.56l1,0Zm2,145.72h-.23l0-.54.17-.34v.24C645.66,904,645.7,904.15,645.72,904.36Zm9.47,33.27v0a3,3,0,0,1-.17,1.27,1.26,1.26,0,0,1-1.12.69l-.51,0a1.91,1.91,0,0,1-.62-.11l-.57-1.82Zm-1.9-17.45c0-.06-.13-.09-.16-.16a2.82,2.82,0,0,1-.24-1.27l0-.52,3.19-.09,0,.53a3.16,3.16,0,0,1-.17,1.27c0,.08-.11.11-.16.17Zm2.2-29.25-.06-2,1.75-.05.05,2ZM657,902.09h.31l0,2h-.5a5.85,5.85,0,0,0,.17-1.61C657.05,902.31,657,902.21,657,902.09Zm-1.08-22.62-.06-2,1.2,0,.58,1,0,1Zm2.32-59,0-2,3.19-.09.05,2Zm7-64,5.18-.14,0,2-9.28.25,0-1.65,4.1-.11Zm6.78,107.1-1,0-.06-2,.73,0c0,.06,0,.11,0,.17A6.08,6.08,0,0,0,672.06,863.58Zm-3-20a4,4,0,0,0,.91-2l1.51,0a4,4,0,0,0,.44,1.76,1.3,1.3,0,0,0,.15.18ZM663.26,804l3.08-.08,0,2-3.19.09a6.93,6.93,0,0,0,.12-1.41C663.31,804.4,663.28,804.23,663.26,804Zm2.57,14.24-.24,1.21-.31-1.19ZM666.3,832l.49,1.94-.95,0-.05-2Zm.38-11.79.39-2,.91,0,0,2Zm0-30.2.46-1.54,1.17,0,.53,1.51Zm1.13,42a3.89,3.89,0,0,1,.37,1.6c0,.13,0,.23,0,.35h0l-.51-1.95Zm.34-28.06,1.2,0,.05,2-1.2,0Zm1.77,29.37.27-1.38h.52l.05,2-.83,0c0-.12,0-.23,0-.35Zm1.2-13.18-1.41,0,0-2,2.1-.06ZM661.65,774l0-.9,4.1-.11,0-1.06,5.17-.14.06,2Zm-3,60.18,1-2,2.29-.07a6.77,6.77,0,0,0-.17,1.62c0,.12,0,.23,0,.35Zm.45,9.72-.57,0-.05-2,.57,0Zm1.65,20-.74,0-.06-2,.74,0Zm0-21.71,1.44,0a3.89,3.89,0,0,0,.93,1.65l-2.32.07Zm2.17-52,0-1.58,2.44-.07-.53,1.6Zm1,28.15.49,1.95-1.24,0-.06-2Zm.91,23.44,3.28-.08a2.58,2.58,0,0,1-.42.9,2.18,2.18,0,0,1-3.33.09,2.65,2.65,0,0,1-.33-.6l.81,0ZM666,863.7l-.65-1.06,0-.84.62,0Zm-.83,38.17,1.69,0-.65,2-1,0c0-.21,0-.4,0-.64Zm-.24-11.2-.06-2,2.65-.07,0,2Zm.35-11.46a3.6,3.6,0,0,1-.52-1.87s0-.05,0-.07l3.2-.09,0,2Zm2.36-15.51,0-2,1.66,0,.06,2Zm.94,38.08,1.25,0,.31.86v.52l-2,.06Zm1.94,16,.21.58-1.12,0,0-.6Zm-1.17-27.2-.06-2,2.33-.06,0,2Zm1.51-11.49a5.6,5.6,0,0,0,.24-1.89s0,0,0-.08l1.35,0,0,1.05a6.13,6.13,0,0,0,.11.91Zm1.31-73.3-1.15,0-.06-2h0Zm-1.76-90.17.06,2.35a1.94,1.94,0,0,1-.68.16A1.81,1.81,0,0,1,669,718l-.07-2.33Zm-4.53,12.83,3-.09.05,2-3.34.1A6,6,0,0,0,665.87,728.42Zm5.22,13,.06,2-6.75.18v-.22l3.87-.1,0-1.47-3.87.11v-.28Zm-7-13a3.86,3.86,0,0,1-.32,1.69l-3.34.09,0-1.68Zm-4.7,14.68a1.74,1.74,0,0,0,1-.83,2.74,2.74,0,0,0,.2-.59l1.83,0,.05,2-2.31.06a1.58,1.58,0,0,0-.73-.53Zm0,13.5.06,2-.76,0,0-2Zm-1.67-28a6,6,0,0,0,.35,2l-1.35,0a2,2,0,0,1,0-.25l0-.57a2.8,2.8,0,0,0-.22-1.14Zm0,13.16a7.11,7.11,0,0,1-.07.71l-.16,0-1.9.05,0-.72Zm-2.06,16.76c0,.05,0,.08,0,.14l-2.2.06,0-1.27.93,0a2.51,2.51,0,0,1,.67.08Zm-2.52-16.64h.71l.05,2h-.21A3.63,3.63,0,0,1,653.21,741.92Zm1.16-13.19a.93.93,0,0,1,.3.14,1.61,1.61,0,0,1,.31,1.07l0,.73-3,.09,0-2Zm-2.62,75.62,3.5-.09c0,.19,0,.36,0,.56a7.26,7.26,0,0,0,.2,1.4l-3.9.1c0-.12,0-.22,0-.35A4,4,0,0,1,651.75,804.35Zm-.36-32,.06,2-1.56,0a6,6,0,0,0,.13-1.45,4.2,4.2,0,0,0,0-.51ZM651,758.83l-.89,0-.59-1.53c0-.13,0-.27,0-.41l1.4,0Zm-2.28-30,.82,0,0,2-1.61,0A4.4,4.4,0,0,0,648.75,728.88ZM650.62,742a4.65,4.65,0,0,1,.18,1.19,4.37,4.37,0,0,1-.07.76l-4.39.12a4.17,4.17,0,0,1-.12-.76,4.48,4.48,0,0,1,.12-1.2Zm-3.68-13.07a2.87,2.87,0,0,1-.46,1.17,1.78,1.78,0,0,1-.42.36l0-1.5ZM646,757l1.63,0,.15.41c0,.13,0,.28,0,.4l-2,.05Zm-1.68-27,0,.84a2,2,0,0,1-1.18-.64s0-.11-.09-.16Zm-1.06,12.21,0,2-1.83.05-.06-2Zm-3.79,15,.69,0,.05,2-1.13,0Zm-.21-28,0,1.33-.79-1.31Zm-.53,60.11h-.42Zm-.65-58.12h-.31v-.53Zm-.09,12.2,0,1-1.57,0a1.9,1.9,0,0,0-.58-.71,3,3,0,0,0-.44-.23Zm-2,13.95.49,1.94-1.12,0,0-2Zm-3.08-27,2-.05,0,1-2.2.06,0-.08A2.39,2.39,0,0,0,632.86,730.23Zm0,12.25v.28h0a6.2,6.2,0,0,1-.94-.25Zm-.46,1.86.51.1h0l-1.75,0V744A8.14,8.14,0,0,0,632.45,744.34Zm-3.11-14.93.83,0,.57,1.62a.88.88,0,0,1-.29.2,2.54,2.54,0,0,1-.81.15h-.31a3.1,3.1,0,0,1-.56-.06Zm-1.7,0-.2.6-1,0a1.92,1.92,0,0,0-.52-.58Zm-2.48,2h-.37l0-.65A.73.73,0,0,1,625.16,731.47Zm.17,11.21,0,.92,4.1-.11,0,1-8.77.24v-.22l4.1-.11,0-1.47-4.1.11v-.27Zm-2.78-12.41.56.12,0,1.15-.84,0Zm-1.85-.63a2.61,2.61,0,0,0,.69.33l-.27,1.34-.81,0-.43-1.66Zm-2.09.06.43,1.67-.78,0,0-1.68Zm-1.35,14.12a5.55,5.55,0,0,1,1.14.32.71.71,0,0,1,.42.67h0l-1.57,0,0-1.05ZM617,790a.71.71,0,0,1,.42.66.93.93,0,0,1,0,.23,1.74,1.74,0,0,0-.42-.51,3.52,3.52,0,0,0-1.18-.49l.85,0A2.08,2.08,0,0,1,617,790Zm-.55-16.73.06,2-1.75,0-.05-2Zm-.4-14.75,0,1.27h-.15l0-1.27Zm-.53-13.86-1.63,0a2.34,2.34,0,0,0,0,.26l-1.68,0v-.3l3.28-.09Zm-2.93,15.22h-.17a4.13,4.13,0,0,0,.15-.5ZM615,729.8l.06,2-1.54,0,0-2ZM614.37,743a3.09,3.09,0,0,0,.37.2l-2.57.07V743Zm-2.58-11.33v.2h0A1.18,1.18,0,0,0,611.79,731.65ZM613,774.33l0,1-3.28.08,0-1Zm-2.53-14.4-1.14,0,0-1.73,1.7,0A3.2,3.2,0,0,1,610.42,759.93Zm-1.9-28,0-.42,1.49,0a2.71,2.71,0,0,1-.2.42Zm1.73-2s0,.05,0,.08l-1.77,0V730Zm-1.55,13.2,0,2-1.83,0,0-2Zm-1.23,14.92,0,2h-.44a3.32,3.32,0,0,1-.64-1.94Zm-2.35,2-1.14,0-.05-2,.74,0A5.59,5.59,0,0,0,605.12,760.07Zm-1.59-29.58a2.22,2.22,0,0,0,.14-.38h.24a6,6,0,0,0,.35,1.95l-.83,0,0-.08a1.24,1.24,0,0,0-.19-.21l0-.84A1.37,1.37,0,0,0,603.53,730.49Zm.38,12.77a3.55,3.55,0,0,1-.45,2l-3.57.09a3.51,3.51,0,0,1-.55-1.94Zm-2.45-24.46a2.46,2.46,0,0,1-.19.4,1.88,1.88,0,0,1-.61.52l-.06-2.18.83,0Zm-.31-4a2.93,2.93,0,0,1,.21.39l0,.92-.82,0-.05-1.82A2,2,0,0,1,601.15,714.81Zm-.34,15.85v.05h-.09l-1.89.06v0h.09Zm-3-15.76a1.91,1.91,0,0,1,1-.67l.15,5.68a1.94,1.94,0,0,1-1-.62,4.14,4.14,0,0,1-.12-4.39Zm-.89,29.75a5.88,5.88,0,0,1-.08.77h-.61l0-2h.56A5.14,5.14,0,0,1,596.93,744.65Zm-.83-13.72a2.58,2.58,0,0,0-.27,1.19c0,.06,0,.1,0,.16h-.18a5.86,5.86,0,0,0,.05-.95,7.85,7.85,0,0,0-.1-1l1.09,0A1.59,1.59,0,0,0,596.1,730.93Zm0-16.51a5.2,5.2,0,0,0-.59,2.74,4.75,4.75,0,0,0,1.13,3.17l-1.51,0-.16-5.89Zm.45,76.92,0,.09,0,.93-1.77,0,0-1ZM593,903.83l-.65,2-1.89.05,0-2Zm-1-13.14.83,0,0,1.14a1,1,0,0,1-.57-.2A1.48,1.48,0,0,1,592,890.69Zm-.64-9.47a5.86,5.86,0,0,0,.24-1.89s0-.05,0-.08l1.69,0,.05,2Zm-.19-89.06a1.67,1.67,0,0,1-.82-.13,1,1,0,0,1-.51-1,1.14,1.14,0,0,1,.08-.43l1.61,0,.05,1.61Zm1.52,13.8,0,.68-1.21,0,0-.68Zm-2.09,14.36,2.56-.07.05,2-3.06.08A3.47,3.47,0,0,1,590.59,820.32Zm-.49-44.38a4.27,4.27,0,0,1-.29-1.44,4.17,4.17,0,0,1,.05-.52l4.45-.12c0,.18.07.32.08.52a4.26,4.26,0,0,1-.21,1.45Zm.38,67.86.59,0,0,2-1.54,0A4,4,0,0,0,590.48,843.8Zm.68,20-.39,2h-.23c0-.1,0-.24,0-.32l0-1.64ZM590.39,836c0-.12,0-.23,0-.35a6.11,6.11,0,0,0-.25-1.61l4.8-.13,0,2Zm2.79,29.69-1.19,0,.4-2,1,0,.1.4A3.5,3.5,0,0,1,593.18,865.72Zm-.3-20,0-2,2.38-.06.06,2Zm2.41,18h.08l0,1.64c0,.08,0,.21,0,.32h-.23l-.05-.2a5.7,5.7,0,0,0,.17-1.6A1,1,0,0,0,595.29,863.7ZM595,881.12v-.23l-.05-1.73.69,0-.39,2Zm0,9.49-.24,1.2h-.25a1.69,1.69,0,0,0,0-.23l0-1Zm.09-82.75a.89.89,0,0,1,.44-.8,1,1,0,0,1,.35-.11c0,.17,0,.34,0,.53s0,.23,0,.35Zm-.66-1.52v-.13l.12.06Zm.11-60.86-2,.06a4.47,4.47,0,0,1-.12-.76,4.09,4.09,0,0,1,.07-.72h.16l1.9,0Zm-1.18-25.09-2.42,0-.46-1.19,0-1.25,2.85-.08Zm-.16-5.89.05,2-2.85.07,0-1.94Zm-3.78,16.92,2.94-.08v.44a2,2,0,0,1-1.39.61,2.06,2.06,0,0,1-1.53-.61,2.7,2.7,0,0,1,0-.28S589.4,731.45,589.4,731.42Zm.13,14.2-1.77,0,0-2,2.67-.07a1.63,1.63,0,0,0-.61.64,2.55,2.55,0,0,0-.27,1.19A.9.9,0,0,0,589.53,745.62Zm-1,159.14,0,1.15-2.85.08-.44-1.14Zm-.27-14h.15l-.14.47Zm-2.56,50.69h-.19l.1-.31Zm-18.94-35.91-.17.94h-.14l-.21-1-.23-1,1,0Zm.17,34.45-.16,1-.21-1Zm-.37,18.33,3-.08.05,2-3.72.1ZM567.83,942l.35-2,1.28,0,.46,1.95Zm-1.21-48.62.65-2,1.79-.05.05,2ZM563.49,882l0-1.34,4.1-.11,0-.62,2-.06,0,2ZM555,807l.05,2-.8,0L553.11,807Zm-.54-32,2.41-.06a3.38,3.38,0,0,1-.51,0l-1.9.05Zm2.09,47.32a1.35,1.35,0,0,1-1.31.74l0-1.72,1.52,0A2.64,2.64,0,0,1,556.59,822.26ZM557,835v.62l-.71,0,0-.62Zm-1.93-43.44h.36l0,.62ZM554.48,835v.62l-.77,0,0-.62Zm2.77,9.66,0,2-3.28.09,0-2Zm.42-37.79,1.17,1.93-1.75,0-.06-2Zm-.42-15.44,1.23,0,0,2h-.11Zm-1.55,73.3,2.48-.06.05,2-3.18.08Zm2.4-41.6a.54.54,0,0,0,.09-.12,4.19,4.19,0,0,0,.35-1.86l1.68,0,.06,2Zm2-31.47.63,1.63-.59,0Zm.62,52.9,0,2-1.75.05,0-2Zm-.26,20-.38,2h-.23c0-.1,0-.24,0-.31l0-1.65Zm1.22,15.42,0,2-1.74.05-.06-2Zm-.38-13.48.39-2,1,0,.5,1.95Zm6.23-107.45,1.67,0,0,2-1.78.05a5.77,5.77,0,0,0,.08-1.22Zm4.35,33.9-1.92.05.4-2,1.32,0a3.77,3.77,0,0,0,0,.48A6.06,6.06,0,0,0,571.91,793Zm-.39,15.47-1.29,0,.4-2H571Zm-3.53-32c0-.16,0-.3,0-.47l0-1.49,1.66-.05.06,2Zm1.17,14.6-.34,1.74c0-.17,0-.39,0-.69s0-.53,0-.69v-.35Zm-2-70.26-.06-2,1.72-.05a1.43,1.43,0,0,1,1,.25,1.59,1.59,0,0,1,.3,1.06l0,.71Zm.6,100.06a6,6,0,0,0-.25,2h-.41l0-2Zm.34,13.73,0,2H568l-1.17-1.93Zm-4.57-41.41.64-2,2.67-.07.06,2Zm2.82,13.41h.39l0,1.22Zm.07,30h-.08v-.14Zm-1-15.67,0,.44-.27-.44Zm-1.28-12.31.55-1.68.63,1.64Zm1.13,26,.41.68-1.1,0,0-.69Zm-1.69-13.69,1.18,1.93-2.31.06-.06-2Zm-1.16-12.32h-.14l0-1.4.59,0Zm.5,26.07,0,.69-.71,0,0-.69ZM562.51,846l0-1.41,5.13-.14,0,2h-.45l0-.55Zm2.25,20.52h-.23l-.49-2,.66,0,0,1.64C564.75,866.25,564.76,866.39,564.76,866.49Zm1.64,0,0-2,5.17-.14,0,1.09H572l0,.87Zm3.92-20.69,0-1.2,2.35-.07,0,1.21Zm-.25-9.17-.05-2,5.4-.15.05,2Zm4.48,9.61v-.55h-.11l0-1.41,1.29,0,.06,2Zm1.05,20-2,.06,0-.87,1.48,0Zm0-43.5,0-2,3.15-.08a4.12,4.12,0,0,0,1,1.93Zm-.1-14.3.4-2,.86,0,.51,2Zm2.53-2,.76,0,0,2h-.31Zm1.66-15.5,4.85-.14,0,1.59-4.47.12v.38h-.53a6.89,6.89,0,0,0,.14-1.48C579.77,791.16,579.75,791,579.73,790.86Zm5.26-32.2,2.65-.07a5.7,5.7,0,0,0,.45,1.95l-3.45.09,0-1.65H585Zm3.26,33.53a2.34,2.34,0,0,0,.25.39H588l0-2h.17a2.2,2.2,0,0,0-.08.67A2.08,2.08,0,0,0,588.25,792.19Zm-3.19-16.12,0-2,3.07-.08a4.35,4.35,0,0,0,0,.52,6.32,6.32,0,0,0,.21,1.44Zm2.52,58.07c0,.18.07.33.08.53a4.47,4.47,0,0,1-.2,1.44l-3.34.09c0-.12,0-.22-.06-.35a4.08,4.08,0,0,1,.29-1.62ZM587,820.42l1.68,0a6,6,0,0,0-.25,2l-1.38,0Zm-3.11,61h-.59l0-2h.3v.08A5.94,5.94,0,0,0,583.84,881.43ZM583.72,866l-.46-1.3.86,0,0,.94L584,866Zm-2.18-29.7-3.21.09-.05-2,3.07-.09c0,.18,0,.34,0,.53A6.23,6.23,0,0,0,581.54,836.27Zm-1-28.92,0-1.06,3.73-.1,0,1.06Zm4.3,13.13a2.67,2.67,0,0,1-.44,1v0l-2.41.06,0-1Zm1.12-14.34,2,0v0l-2,0Zm-7.13,84.91L580,893l-2.36.06-.06-2Zm-.38-11.44h.4l1.16,1.93-1.51,0Zm1.29,24.58-.21,1-.16.94h-.14l-.22-1-.23-1Zm-1.87,2h-.33l0-1.6Zm-.14,33.66,0,1.79-.68,0,0-1.79Zm.82,18.16-.61,2h-.14l-.06-2Zm-.57-35.8-.06-1.94,2.44-.07-.64,2Zm1.47-57.3a2.51,2.51,0,0,0-.27,1.18h-.32l-.05-2,1.56,0A1.77,1.77,0,0,0,579.41,864.92Zm-1.51-19.37,0-1.13,4.1-.11V844l.71,0a4,4,0,0,0,1,1.93l-2,.06v-.55ZM582,866l-1,0a1.57,1.57,0,0,1,0-.23.93.93,0,0,1,.47-1,.38.38,0,0,1,.15-.05Zm-1.6,13.54,1.15,0,.05,2h0Zm.73,12.67-.75-1.23h.72Zm.77,11.9,1.26,0,.3.86v.53l-2,0Zm2,16,.2.59-1.12,0,0-.59Zm-1.06-27.59,0-1.57,2.73-.07.59,1.55Zm3-11.14a3.6,3.6,0,0,1-.52-1.87s0,0,0-.08h.39l.74,2Zm.11-15.45v-.47l.49-1.51.87,0c0,.05,0,.11,0,.16a6,6,0,0,0,.31,1.79Zm.74-20.35a2.24,2.24,0,0,1-.91-.16l0-1.48,3-.09a2.73,2.73,0,0,1-.42.91A2,2,0,0,1,586.62,845.57ZM588.24,808l-2.26.06,0-.47,2.9-.08A1.69,1.69,0,0,0,588.24,808Zm-1.09-92.94,1.15,3.3-2.16.05Zm-1.45,4.82,3-.08,0,.64-3.22.06Zm1.24,10.64a4.24,4.24,0,0,0,.79,1.86v.08l-3.1.08-.06-2Zm-5,14.22,3.87-.1,0,1-6.75.18,0-2,2.87-.08Zm1,15.9-1.93.05-.05-1.65,1.93-.05Zm-1.47-30,0,1.48c0,.11,0,.3,0,.48h-.19l-.49-1.95Zm-3,.08,1.12,0,.51,2h-.38a1.85,1.85,0,0,0-.63-.9,3.08,3.08,0,0,0-.75-.37Zm.78,28,.06,2-1.75.05-.05-2Zm-1.74-12.88-.52,0-.15-.24,0-1.72.66,0Zm-.85-13.14s0-.06,0-.09l.21,0v0Zm.58-2-.07.32-.56-.11v-.2Zm6.08,43.33.06,2-6.75.19,0-2Zm-5.29,16.74c0,.17.07.3.08.48a4.37,4.37,0,0,1-.22,1.49l-2.44.07-.05-2Zm-2.83-45.23c0,.1,0,.21,0,.34h-.19l-.28-1.08Zm-.68,13.51,0,1.21-.72-1.19Zm.41,15.21.06,2h-.14l-1.16-1.93ZM573.49,791h.17v.35c0,.16,0,.39,0,.69s0,.52,0,.68l-.23-.92a2.87,2.87,0,0,1,0-.31C573.44,791.33,573.48,791.19,573.49,791Zm.37,31.71-4.57.12a3.53,3.53,0,0,1,.45-2l3.56-.1A3.63,3.63,0,0,1,573.86,822.74Zm-1.57-16.23h0v.06Zm-.18-74.88.78,1.27-1.21,0Zm1.08,29.31-.75,0,0-1.31Zm-1.14-16.81h.12l.05,2h-.57Zm0,30.34,1.18,1.93-1.84.05-.05-2Zm-1.18-30.31-.28,1.41,0-1.4Zm-.67-11.65,0-1.49.49,0ZM569,715.13a1.82,1.82,0,0,1,.82.13,1.06,1.06,0,0,1,.51,1,1,1,0,0,1-.47,1,2,2,0,0,1-.85.16l-1.9.05-.06-2.26Zm-2.18,16,.55,0,0,.08-.58,0Zm-.2,1.55,1.34,0,.16.41-1.63.05A2.58,2.58,0,0,0,566.59,732.66ZM566,744.29l2.54-.07.05,2-3,.09v-.62Zm.19,30.33,0,1.49c0,.19,0,.33,0,.48l-3.13.08a3.3,3.3,0,0,1,0-.47l0-1.49ZM565,731.16v.08h-.2v-.08Zm-1.27,13.19,0,1.65-.1.32h-.2l-.69-1.94Zm1.58,14.84.05,2-2.54.07a2.92,2.92,0,0,1-.22-1.21l0-.74Zm-2.82,32.13-.34,1.16-.4-1.14Zm-1.09-45.88.36.93h-.24a1.62,1.62,0,0,0-.75-.55A1.82,1.82,0,0,0,561.4,745.44ZM561,761.27l-2,.06h0a3.38,3.38,0,0,0-.14-.93,5.53,5.53,0,0,0,.09-1l1.92,0,0,.74A6.77,6.77,0,0,0,561,761.27Zm-.48-28h-.05v-.13S560.45,733.2,560.47,733.24Zm-.28,11.21a.84.84,0,0,1-.41.6,2.07,2.07,0,0,1-.84.16h-.45l0-.72Zm-1.06,30.37,2.07-.06,0,1.49c0,.18,0,.31.06.47l-2,0a1.66,1.66,0,0,0-.2-.57,1.52,1.52,0,0,0-.84-.64A1.76,1.76,0,0,0,559.13,774.82ZM558,731.35h0Zm-.55,45.47-2.86.08v-.52l1.72,0a1.45,1.45,0,0,1,1,.24A.86.86,0,0,1,557.41,776.82Zm-.48-16.25a2.58,2.58,0,0,1-.38.82l-2.42.07,0-1.27,1.72-.05a1.45,1.45,0,0,1,1,.24A.85.85,0,0,1,556.93,760.57Zm-.54-27.22-1,0v-.5l1,0Zm-.63-1.94h0Zm-2.18.06.06,2h-.27l0-2Zm.64,13.14,1.13,1.86v.07l-2,.06-.05-2Zm-.94,47,.05,2-1.41,0,0-2Zm-1.75,15.51L552.7,809l-1.16,0,0-2Zm-4.11,14.42h.41a1.67,1.67,0,0,1,.28,1h0l-.66,0Zm.35,13.72,2.45-.06a2.71,2.71,0,0,1-.55.06l-1.9.06Zm.05,2v-.52l1.72,0a1.36,1.36,0,0,1,1,.24.68.68,0,0,1,.13.24Zm3.68-1.34a2.06,2.06,0,0,0,.46-.27l0,.53A2,2,0,0,0,551.5,835.85Zm.07-12.5,0-.91-1.66,0v-.09a3.87,3.87,0,0,0-.15-1l2.07,0a4.1,4.1,0,0,0,.44,1.83s.07.07.1.11Zm1.48,43.46-.68-1.95,1.59,0-.59,2Zm.79,26.88,0-1.52.9,1.49Zm2.46-.07-1.18-1.93,2.22-.06,0,2ZM555,882.21l0-1.42,3.28-.09,0,1.42Zm3.76-47.28.72,0,0,1.5c0,.18,0,.31,0,.46l-.69,0Zm.3,58.62-.06-2,1.8-.05.74,1.94Zm3.06,13.08-.21-1-.25-1,.91,0-.17,1-.15,1Zm.69,14.25-.2,1.32-.28-1.34,0-.17.57,0Zm.2-28.33,2.17-.06-.27.9-1.59,0Zm.87,12.07.74,0,.46,1.95-1.55,0Zm-.08,18,.35-2,1.07,0,.46,1.95Zm1,35.79-.28.94-.33-.93Zm-10.55.28,1.72,0,1.17,1.93-2.84.07Zm.62,13.72,2.8-.07s0,0-.05,0a2,2,0,0,1-.85.16l-1.9.05Zm.05,2V974l1.72,0a1.43,1.43,0,0,1,1,.25s0,.07.05.1Zm2.65-15.77h.23V959Zm2,15.65a1.32,1.32,0,0,0-1-1.07,1.67,1.67,0,0,0,1-.85l0-.05,2,0,0,1.65c0,.11,0,.2,0,.31Zm-.1-13.74,0-2,3-.08.75,1.94Zm7.09,13.55-3.15.08c0-.11,0-.19,0-.32l0-1.64,3.19-.08,0,1.64C566.62,973.85,566.61,973.94,566.61,974.05Zm1.78,0a1.67,1.67,0,0,0,0-.32l0-1.64,1.66,0,.06,2Zm.42-51.53.35-2,1.07,0,.46,1.95Zm-.78-16,.49-2,2.14-.06.06,2Zm2.67-15.2,1.11,0-.39,2-.67,0Zm.12,48.65h.41l-.18,1Zm.42,19.67h0c0-.15,0-.31,0-.54s0-.53,0-.69v-.14h.33Zm.47,13.42,0-1.06.62,0,.64,1.05Zm.75-13.45.28-1.38,1.73,0,.27,1v.35Zm2.07,13.37-.63-1,1.19,0,0,1.07Zm-1.26-31.16v0l-1,0,.5-2,.84,0V940l1.67-.05,0,1.8ZM573,905.18l.36,1.14-.89,0,0-1.15Zm-.35-12,.4-2h.14l.51,1.95Zm.62,29.17.49-2,2.37-.07,0,1.95Zm1.7-29.24-.49-1.94,1.1,0,0,2Zm.22,12,0,.19-.15,1h-.13l-.2-1,0-.16Zm-3.89-23.35,0-2,5.1-.14.06,2Zm6.87,92-1.24,0,0-2,1.9-.06Zm1.24-34.05.88,0,.05,2-.88,0Zm.79,18.3,2-.06.43,1.36h-.11l0,.59-2.89.07Zm-.23,15.7.51-2,2.21-.06.62,1.94Zm2.85-32.13.51-2,1,0-.65,2ZM584,957.88l2.52-.07.52,1.36-2.54.06Zm2.78-18.4,1.41,0,0,.09-1.41,0Zm-1.3,34.06-.05-2,1.57,0,.75,1.94Zm3.27-15.41,0-.38h.13Zm-1.25-16.7-.15-.41,1.38,0,.14.4Zm-.55-20.82.18-.6,1.78,0,.15.42v.16Zm1.56-39.31h-.37l-.68-1.94,1.65,0Zm2.77-122.81a7.08,7.08,0,0,0,1.38.38l.92.18.31.07a2.83,2.83,0,0,1-.47,1.27l-1.72.05a2.47,2.47,0,0,1-.17-.56l-1.68,0a.78.78,0,0,0,0,.16,3.54,3.54,0,0,1-.44-1.54Zm-1.16,132.25h.11a2.7,2.7,0,0,0,.28,1.24,1.58,1.58,0,0,0,.84.65l-.08,0-1.8.05Zm.41,67a1.64,1.64,0,0,0,0,.38,2.37,2.37,0,0,0,.18.88,2.72,2.72,0,0,0,.38.61l-1.14,0Zm.52-18.41,1,0-.45,1.5Zm-.61,34a4.34,4.34,0,0,1-.09-.54l.47-1.43,3.19-.09,0,2Zm3.2-15.79,0,1.4h-.1a1.82,1.82,0,0,1-.82-.13,1.08,1.08,0,0,1-.51-1,1.43,1.43,0,0,1,0-.22Zm-.56-16.33.16-.51v.5Zm-1.64-19.42-.61-1.6v-.35l3.26-.08.05,2Zm3.26-18.08,1.26,0,.48,1.37-2.16.06Zm.28,35.48,1.63,0,.06,2-1.64,0ZM595.4,959l0-1.4h.1l0,1.4Zm1,14.27a6,6,0,0,0,.1-1.3c0-.24,0-.45-.06-.67l2.53-.07.06,2Zm4.38-.12-.05-2,2.19-.06,0,2Zm3.49-14.94a2.19,2.19,0,0,1-3.34.09,2.68,2.68,0,0,1-.44-.84l4.18-.12A2.58,2.58,0,0,1,604.31,958.18Zm.48,14.83,0-2,1,0,0,2Zm2.77-.08-.06-2,.78,0,.05,2Zm-.35-14.31v.59h0l0-2,2.57-.07,0,1.37Zm2.64-55.25h.46l.61,1.94-1,0Zm.24,69.5,0-.83.66,0,0,.83Zm2.45-.07,0-.83.84,0,0,.83ZM614.06,959v-.59l-1.9.05,0-1.37,1.49,0a3.89,3.89,0,0,0,1,1.94Zm2-20.33,0,2-1,0-.06-2Zm-1,34v-.18l0,.05a1.67,1.67,0,0,0,.16.12Zm1.1-1.45a3,3,0,0,1-.28-.53l.87,0,0,1A2.12,2.12,0,0,1,616.22,971.28Zm3-13.51a2,2,0,0,1-1.33.75,2.36,2.36,0,0,1-.63-.11,1.24,1.24,0,0,1-.72-1.07l-.91,0a2.31,2.31,0,0,1-.18-.35l4-.11.11.1A2.32,2.32,0,0,1,619.19,957.77Zm3.8,14.75-2.46.06.16-.13a3.5,3.5,0,0,0,.51-.64l1.47,0,0-1.21,1.34,0Zm-2.08-51.46,0-2,3.27-.09,0,2ZM622.67,905l0-2,1.65,0,.05,2Zm1.6-13.48a3.23,3.23,0,0,1-.6-1.67l4.45-.12a3.14,3.14,0,0,1-.46,1.59l-1.77,0v.39l-1.28,0A2.19,2.19,0,0,1,624.27,891.5Zm1.28,65.25.75,0,.69,1.35-1,0,0,.59-1.32,0Zm-.61,15.71.84-2,1,0,1,1.93Zm3.83-34.12H629l1,1.93-.72,0v-.19l-1.27,0Zm-.61,18.34,2.27-.07,0,1.37L629,958Zm1.68,15.65-.53-.9a8.21,8.21,0,0,0,1,.24l.92.18a4.15,4.15,0,0,1,1.18.36l.05,0Zm3.85-1.36a3.62,3.62,0,0,0-1.48-.57l-.39-.09,1.93,0,0,.81S633.73,971,633.69,971Zm1.88,1.2-.06-2,1.65,0,.06,2Zm2.4-69.56,4.49-.13c0,.13,0,.22,0,.35a3.92,3.92,0,0,1-.28,1.62l-3.92.11a4.07,4.07,0,0,1-.37-1.61C637.94,902.82,638,902.73,638,902.61Zm1.34,17.95c-.09-.08-.2-.11-.27-.21a3.06,3.06,0,0,1-.61-1.67l0-.06,3.22-.09a5,5,0,0,0,.51,1.89l-.08.06Zm2.31,19.4h0v-.06Zm-3.5-1.87,1.64,0,.06,2-1.65,0Zm.48,20.26-.06-2h.4l0,2Zm1.46,13.7-.74,0-.05-2,1.29,0Zm1.76,0,.4-2h.14c0,.22,0,.43,0,.67a7.16,7.16,0,0,0,.18,1.29Zm-.08-14.32,0,.59h-.24l.4-2,1.39,0,.32,1.37Zm2.93-79.87,0,.71a1.76,1.76,0,0,0-.41-.45,2.7,2.7,0,0,0-.53-.23Zm-.41,42.55a5.07,5.07,0,0,0,.41-1.91l1.38,0v.53a5.63,5.63,0,0,0,.23,1.43l-1.95,0ZM645,937.9l1.15,0,.3,1.28a1.94,1.94,0,0,1-1.27.71l-.58,0Zm.22,32.73-.15-.68h.25Zm1.09-14.45,1.33,0,.35,1.36-1.91,0Zm2.19,15.64-2.21.06.33-2,1.46,0,.45,1.73A1.66,1.66,0,0,1,648.52,971.82Zm.89-34,.8,0v0a4.33,4.33,0,0,0,.41,1.91l-1.54,0Zm0,18.32,3.21-.09a4,4,0,0,0,1,1.94l-3.63.1Zm1.07,15.67-.08-.27a6.7,6.7,0,0,0,0-1c0-.24,0-.45-.07-.67l1.43,0,.06,2Zm3.11-.08v-.38h.62v.37Zm2.7-2a2,2,0,0,1-.85.16l-1.9.06v-.2l2.8-.07Zm-.76-12.39a2.1,2.1,0,0,1-.65-.51,2.51,2.51,0,0,1-.45-.84l1.88-.05,0,1.37Zm1.17-17.76a4.48,4.48,0,0,0,.31-1.94v0l2.28-.06,0,1.92-2.53.06v0Zm1.41,17.25,0-.94h.53a2.8,2.8,0,0,1-.41.87S658.11,956.76,658.08,956.8Zm.38,13.85,0-1.06,1.84-.05,0,1.06Zm2.19-12.89,0-.59-.72,0a4.31,4.31,0,0,0,.48-1.39l1.68,0,.52,1.35-1.51,0,0,.59Zm1.39,13.7,0-.75,1,0,.29.74Zm.39-107.62,0-2,.86,0,.31.52,0,1.44Zm1.14-30.15a4,4,0,0,1,.28-1.62h.3l.05,2h-.58C663.61,833.92,663.57,833.82,663.57,833.69Zm.16,105.67-.06-2,1.18,0,.75,1.95Zm2.37,16.29,3.09-.09,0,2-1.3,0,0-.59-2.27.06Zm-.38,15.71.25-.76h.15v-.43l.26-.78,3.19-.09.06,2Zm3-32.14v-.37l.52-1.61,1.71,0-.65,2ZM671,957.48l-.06-2,1.15,0,0,2Zm1.14-18.35.07-.24v.24Zm-.24-36.63,2.49-.07.42,1.14-2.48.06ZM675,918.22l-1.42,0,.18-.6,1,0Zm-2,52.94-.05-2h.48l.49,1.94Zm.83-13.76,0-2h.48l.06,2Zm.18-18.32v-.41l1.41,0,.14.41Zm.61-50.63,1.18,0a5.08,5.08,0,0,0,.55,1.94l-.55,0ZM676,957.34l0-1.05.62,1Zm1.17-20.11,0,1.39-.53-1.38Zm-.31-35.68h.35l-.32,1.23Zm.4,53.79v.41l-.25-.4Zm.33,15.69-.7,0,.39-2h.48l0,1.18Zm-.29-53.47h.11l0,.17Zm.7-55.32h0a2.59,2.59,0,0,0-.26,1.07,1.17,1.17,0,0,1,0,.11l-1.65.05-.05-2,2.05-.06c0,.06,0,.1,0,.17A4.07,4.07,0,0,1,678,862.24Zm.84,39.26.75,0-.65,2-.71,0Zm.16,16,.8,0,.72,1.94-2.13.06ZM679,937h.17l.72,1.94-.84,0Zm.53,18.3,1.12,0,0,2-1.56,0Zm2.09,15.64-2.09.06v-.41l.32-1.56,1.52,0,.38,1.58Zm-.61-34-.1.4-.12-.4Zm0-34.1.37-1.25,0,1.24Zm.55,14.62h.25l0,.89Zm-2.29-38.61a5.22,5.22,0,0,0,.06-.91l0-1.06,3.27-.09a2.34,2.34,0,0,1,0,.26,3.78,3.78,0,0,1-.33,1.71Zm3.26,77.36,0-.1,0-.9h.2Zm1.48,14.41.29-1.72.76,0,.6,1.69Zm-.36-13.48.33-2,1.33,0,.4,1.54,0,.41Zm1.86-18.78-.32-1.54h.56Zm-1.92-19v-.15l.54-1.74,2.72-.07,0,1.87ZM688,970.75l-.6-2,2.09,0,.06,2ZM687.55,957l-.13-.45,0-1.51,1.75-.05a2.38,2.38,0,0,0,0,.46,2.28,2.28,0,0,0,.18.89,2.53,2.53,0,0,0,.38.6Zm3.29-1.84a1.7,1.7,0,0,1,0-.22l3.2-.08,0,1.4-2,.05a1.69,1.69,0,0,1-.82-.13A1.05,1.05,0,0,1,690.84,955.19Zm.36,15.47-.05-2h.62l1.18,1.93Zm3.34-.09-1.17-1.93,1.33,0,.06,2Z" fill="#262521"/><path d="M653.39,829.51l0-1.31.45,1.3Z" fill="#262521"/><path d="M632.53,916a4.18,4.18,0,0,0,.09-.41V916Z" fill="#262521"/><path d="M622.69,914.84v-.58h.07A3.56,3.56,0,0,1,622.69,914.84Z" fill="#262521"/><path d="M631.86,785H632a2.46,2.46,0,0,1-.09.29Z" fill="#262521"/><path d="M617.9,755.21h-.13v-.33C617.8,755,617.85,755.1,617.9,755.21Z" fill="#262521"/><path d="M609.61,755.38h0a2.58,2.58,0,0,0,0-.39Z" fill="#262521"/><polygon points="590.82 839.13 590.74 839.59 590.65 839.13 590.82 839.13" fill="#262521"/><path d="M586.05,841h-.22a3,3,0,0,0,.22-.28Z" fill="#262521"/><rect x="608.51" y="800.86" width="0.32" height="0.02" transform="translate(-16.15 12.53) rotate(-1.16)" fill="#262521"/><rect x="605.02" y="800.91" width="1.74" height="0.02" transform="translate(-16.15 12.48) rotate(-1.16)" fill="#262521"/><polygon points="617.5 815.06 617.45 814.96 617.5 814.96 617.5 815.06" fill="#262521"/><path d="M614,785.33h0Z" fill="#262521"/><path d="M570.11,801.94l.11.06a.6.6,0,0,1-.11.06Z" fill="#262521"/><polygon points="596.07 874.24 596.19 874.24 596.08 874.77 596.07 874.24" fill="#262521"/><path d="M577.59,787.22v-.13h.13s0,0,0,0S577.62,787.18,577.59,787.22Z" fill="#262521"/><path d="M563.65,801.77v0l-2,0v0Z" fill="#262521"/><polygon points="548.04 802.15 548.02 802.09 548.04 802.09 548.04 802.15" fill="#262521"/><polygon points="563.35 886.33 563.5 886.33 563.36 886.79 563.35 886.33" fill="#262521"/><polygon points="560.45 936.91 560.26 936.91 560.36 936.6 560.45 936.91" fill="#262521"/><polygon points="632.83 829.43 632.83 829.43 632.83 829.44 632.83 829.43" fill="#262521"/><polygon points="563.5 953.17 563.38 953.55 563.38 953.17 563.5 953.17" fill="#262521"/><path d="M616.27,935.71s0,0,.05.06h-.05Z" fill="#262521"/><polygon points="646.87 935.15 646.79 935.15 646.87 934.91 646.87 935.15" fill="#262521"/><path d="M587.92,727.83c0-.07,0-.14.05-.2v.19Z" fill="#262521"/><path d="M575.06,728.05l1.72,0,.26,0h0l-2,0Z" fill="#262521"/><path d="M552.79,728.54v-.1l.21,0v0Z" fill="#262521"/><path d="M541.06,726.9v-.08h.2v.08Z" fill="#262521"/><path d="M536.72,728.87h-.05v-.13S536.7,728.83,536.72,728.87Z" fill="#262521"/><polygon points="541.9 832.17 541.89 832.02 541.98 832.16 541.9 832.17" fill="#262521"/><path d="M543.63,726.85H543s0-.05,0-.08h.55Z" fill="#262521"/><path d="M546.21,953.52l-.28,1.37h0c0-.15,0-.31,0-.55s0-.53,0-.69v-.13Z" fill="#262521"/><polygon points="534.23 726.96 534.23 726.97 534.19 726.97 534.18 726.96 534.23 726.96" fill="#262521"/><path d="M589.64,968.13l0,0,.16.12h-.2Z" fill="#262521"/><path d="M565,745.24c-1.49-37.81-49.07-194.87-60.67-215.2,3.16-2.23,5.27-4.31,6-6.15,2-5.22,2.7-13,2.69-21l-5.5.14c-30.35-3.07-73.59,59.18-75.91,60.42h0c-29.94,19-59.31,40.57-85.19,59.32-44.73,27-35.8,384-30.27,452.4,5.65,69.91,0,198.42,5.73,218.37L411,1292l.28-59.69c18.34.81,48.64.61,94.44-1.47C509.51,1183.42,566.55,784.59,565,745.24Z" fill="#262521" stroke="#262521" stroke-linecap="round" stroke-linejoin="round" stroke-width="3"/><path d="M538,980.45c14.32-109,27.81-215.81,27-235.21-.31-7.84-2.6-20.81-6.14-36.63" fill="none" stroke="#636363" stroke-linecap="round" stroke-linejoin="round"/><path d="M879.72,1045c-3.84-55.87-37.47-431.58-75.77-456.57-33.33-21.71-70.56-35-107.81-47.67-6.52-12.33-24.82-41.19-53.24-41.19l-2.13.05c.77,12.88,2.53,25.11,6.37,28.41a36.51,36.51,0,0,0,7.29,3.9c-9.61,29.48-34.8,188.63-34.8,228.83,0,44.66,27.73,426.49,36,468.17,65-1.29,148.4-1.8,148.7-2.84,1-3.55-.47-10.89-.06-19.35,6.13,55.14,4.2,60.7,4.2,60.7s99.8,2.06,100.61-10.15S885.29,1126.26,879.72,1045Z" fill="#262521" stroke="#262521" stroke-linecap="round" stroke-linejoin="round" stroke-width="3"/><path d="M624.26,707.7c-2.83,23-4.63,42.3-4.63,53.06,0,15.45,3.32,71.24,8,139.35" fill="none" stroke="#636363" stroke-linecap="round" stroke-linejoin="round"/><path d="M501.58,801.42l.06,1" fill="none" stroke="#8e8e8e" stroke-linecap="round" stroke-linejoin="round" stroke-width="3"/><path d="M501.92,807.44c8.75,160.71,4.16,383,3.47,413.46" fill="none" stroke="#8e8e8e" stroke-linecap="round" stroke-linejoin="round" stroke-width="3" stroke-dasharray="2.01 5.04"/><path d="M505.33,1223.42c0,.66,0,1,0,1" fill="none" stroke="#8e8e8e" stroke-linecap="round" stroke-linejoin="round" stroke-width="3"/><path d="M478.54,658.55c.23.22.46.45.69.71" fill="none" stroke="#8e8e8e" stroke-linecap="round" stroke-linejoin="round" stroke-width="3"/><path d="M481.9,663.19c3.8,7,7.06,19.51,9.85,36.13" fill="none" stroke="#8e8e8e" stroke-linecap="round" stroke-linejoin="round" stroke-width="3" stroke-dasharray="1.9 4.76"/><path d="M492.14,701.67c.05.33.1.66.16,1" fill="none" stroke="#8e8e8e" stroke-linecap="round" stroke-linejoin="round" stroke-width="3"/><path d="M403.51,740c-17.92-115.81-55.42-114.08-55.42-114.08" fill="none" stroke="#636363" stroke-linecap="round" stroke-linejoin="round"/><path d="M322,1240.8s43.31,6,86-3.39" fill="none" stroke="#636363" stroke-linecap="round" stroke-linejoin="round"/><path d="M500.12,1199.8s-45.45,7.55-111.62,1.25" fill="none" stroke="#636363" stroke-linecap="round" stroke-linejoin="round"/><path d="M805,591.82s-20.07,31.36-23.94,131" fill="none" stroke="#636363" stroke-linecap="round" stroke-linejoin="round"/><path d="M809.59,1212.85s59.21,4.08,90-4" fill="none" stroke="#636363" stroke-linecap="round" stroke-linejoin="round"/><path d="M658.1,1197.28s96.19,8,144.49-4.66" fill="none" stroke="#636363" stroke-linecap="round" stroke-linejoin="round"/><path d="M643.92,1225.65c.05.85.09,1.7.14,2.54l1,17.93a1.89,1.89,0,0,0,.08.53,3.4,3.4,0,0,0,.12.34.3.3,0,0,0,0,.1,1.65,1.65,0,0,0,.18.32l.11.16.06.08a2.31,2.31,0,0,0,2,.95l7.4-.84a2.61,2.61,0,0,0,2.38-3.27c-.15-.84-.29-1.68-.44-2.52q-1.51-8.84-3-17.69a2.55,2.55,0,0,0-2.52-1.84l-5.09.58A2.62,2.62,0,0,0,643.92,1225.65Zm4.86,11.19,2.53-.34a1.71,1.71,0,0,1,1.91,1.47l.61,4.67a1.71,1.71,0,0,1-1.46,1.91l-2.53.33a1.71,1.71,0,0,1-1.91-1.46l-.62-4.68A1.7,1.7,0,0,1,648.78,1236.84Z" fill="#84837e"/><path d="M431.93,567.28S419,597.8,408.35,612.73c-7.8,10.91,75.69,21,122.81,72.09" fill="none" stroke="#636363" stroke-linecap="round" stroke-linejoin="round"/><path d="M696.85,544.45S762.37,611.77,763,624c0,0-91,60.25-92.11,72" fill="none" stroke="#636363" stroke-linecap="round" stroke-linejoin="round"/><path d="M723.9,725.84s-68.91,56-92.1,188.83c0,0,8,111.53,26.09,309.75" fill="none" stroke="#8e8e8e" stroke-linecap="round" stroke-linejoin="round" stroke-width="3" stroke-dasharray="2 5"/><rect x="643.61" y="1204.29" width="9.14" height="23.71" rx="1" transform="translate(-72.04 41.23) rotate(-3.45)" stroke-width="3" stroke="#262521" stroke-linecap="round" stroke-linejoin="round" fill="#262521"/><path d="M728.69,723.5S648.62,689.74,635,671.59" fill="none" stroke="#636363" stroke-linecap="round" stroke-linejoin="round"/><path d="M547.5,671.59c-13.57,18.15-94.8,54.25-94.8,54.25s65.4,47.6,88.55,183" fill="none" stroke="#636363" stroke-linecap="round" stroke-linejoin="round"/><circle cx="703.44" cy="723.5" r="4.12" fill="#636363"/><circle cx="473.62" cy="727.34" r="4.12" fill="#636363"/><circle cx="423.98" cy="609.41" r="4.12" fill="#636363"/><circle cx="746.72" cy="620.19" r="4.12" fill="#636363"/><path d="M448.27,1277.23c-2.21-17.32-8.85-62.52-8.85-62.52H408s4.45,46.61,9.54,68.57c1.72,7.44,22.07,21.13,22.07,21.13S448.9,1282.12,448.27,1277.23Zm-25.12-29.94a5,5,0,1,1,5,5A5,5,0,0,1,423.15,1247.29Zm2.8,18.15a5,5,0,1,1,5,5A5,5,0,0,1,426,1265.44Zm8.6,25.53a5,5,0,1,1,5-5A5,5,0,0,1,434.55,1291Z" fill="#262521" stroke="#262521" stroke-linecap="round" stroke-linejoin="round" stroke-width="3"/><line x1="793.87" y1="1283.95" x2="794.19" y2="1295.89" fill="none" stroke="#84837e" stroke-linecap="round" stroke-miterlimit="10" stroke-width="3"/><rect x="774.32" y="1281.62" width="39.63" height="24.49" rx="3" transform="translate(-35.22 22.29) rotate(-1.57)" fill="none" stroke="#84837e" stroke-miterlimit="10" stroke-width="3"/><rect x="778.55" y="1217.69" width="28.85" height="67.49" transform="translate(-34.05 22.24) rotate(-1.57)" stroke-width="3" stroke="#262521" stroke-linecap="round" stroke-linejoin="round" fill="#262521"/><line x1="680.89" y1="927.3" x2="696.13" y2="1068.23" fill="none" stroke-dasharray="2 5" stroke-linecap="round" stroke-linejoin="round" stroke-width="3" stroke="#8e8e8e"/><path d="M677.25,926.85l.12,2.12q.42,7.47.85,14.94a2.12,2.12,0,0,0,.06.44,2,2,0,0,0,.11.29s0,.06,0,.08a1.43,1.43,0,0,0,.15.27l.09.13.05.06a1.94,1.94,0,0,0,1.69.8l6.17-.7a2.17,2.17,0,0,0,2-2.73l-.36-2.09q-1.26-7.38-2.53-14.76a2.12,2.12,0,0,0-2.1-1.52l-4.25.48A2.18,2.18,0,0,0,677.25,926.85Zm4,9.32,2.11-.27a1.41,1.41,0,0,1,1.59,1.22l.51,3.89a1.41,1.41,0,0,1-1.22,1.59l-2.11.28a1.43,1.43,0,0,1-1.59-1.22l-.51-3.9A1.43,1.43,0,0,1,681.3,936.17Z" fill="#84837e"/><line x1="464.65" y1="932.41" x2="461.3" y2="1074.12" fill="none" stroke-dasharray="2 5" stroke-linecap="round" stroke-linejoin="round" stroke-width="3" stroke="#8e8e8e"/><path d="M466,929.44l-4.27-.12a2.11,2.11,0,0,0-2,1.69l-1.29,14.92-.18,2.12a2.17,2.17,0,0,0,2.2,2.55l6.2.18a1.92,1.92,0,0,0,1.62-.94.18.18,0,0,0,.05-.07l.08-.13a2.39,2.39,0,0,0,.13-.28s0-.06,0-.09a2.45,2.45,0,0,0,.08-.29,1.66,1.66,0,0,0,0-.44q-.21-7.49-.41-15l-.06-2.12A2.17,2.17,0,0,0,466,929.44Zm.34,13.12-.19,3.93a1.42,1.42,0,0,1-1.48,1.35l-2.13-.1a1.43,1.43,0,0,1-1.35-1.48l.19-3.93a1.42,1.42,0,0,1,1.48-1.35l2.13.1A1.43,1.43,0,0,1,466.33,942.56Z" fill="#84837e"/></svg>