<svg xmlns="http://www.w3.org/2000/svg" width="1000" height="1550" viewBox="0 0 1000 1550"><title>s06e13-02</title><path d="M676.34 601.27C665.45 594.17 526.81 528 526.81 528s-9 42.67-63.91 47.58c-64.83 5.79-86.64-36-90.76-48.14l-87.91 73.8" fill="#fff" stroke="#262521" stroke-linecap="round" stroke-linejoin="round" stroke-width="3"/><path d="M752.23 1043c-3.83-55.86-22.88-124.63-22.88-124.63s-14.59-306.94-52.89-331.94c-10.88-7.1-142.29-56.2-142.29-56.2s-2.49 55-82.84 55c-65.08 0-82.1-39.23-86.21-51.38a10.64 10.64 0 0 1-.75-2.59c-1 .65-100.94 62.7-145.44 89.51-44.73 26.94-26.68 324.27-26.68 324.27a619.79 619.79 0 0 0-3.6 128.12c5.53 68.42-1.88 179.21 14.45 197.94l61-1.5s-5.6-14.34-4.65-27c2.27-30.22 5.53-104.26 15.36-135.22s21.45-88.31 21.45-88.33c.49 23.68.3 42.23-1 50.33-3.6 21.92-31.66 102.78-17.78 133.07-3.34 29.29-5.7 66.94-5.7 66.94s101 22.74 178 21.81c137.52-1.65 234.84-32.69 234.84-32.69s-2.28-35.71-5.32-60.53c9.94-22.61-4.2-83.52-17.92-143 17.07 47.17 40.25 126.64 42.46 162.33 1.64 26.39 2.89 34.36 2.89 34.36h58.1s4.48-6.67 5.3-18.88-12.32-108.48-17.9-189.79z" fill="#262521" stroke="#262521" stroke-linecap="round" stroke-linejoin="round" stroke-width="3"/><path d="M271.71 1269.4s101 22.74 178 21.81c137.52-1.65 234.84-32.69 234.84-32.69M711 1219s30.63-3.84 52.36 0M200.27 1236.51s30.63-3.83 52.37 0M286.18 1219s168.08 32.87 378.15-4.33M353 546.45s21.5 56.9 100.8 56.9 94.27-62 94.27-62" fill="none" stroke="#636363" stroke-linecap="round" stroke-linejoin="round"/><path d="M479.19 701.3c-16.74 10.51-5 18.56-2.68 31.47.49 2.68 4.75-15.36 2.72-30.48" fill="#e2bf7d"/><path d="M428.13 892.88c12-35.31 30.33-70 28.86-108.22 2.36-17.07-15.25-43.09-32.28-26.71a14.17 14.17 0 0 0 2.7 3.55s-3.22 15.08-1.9 21.66 3.06 28 3.06 28a10.7 10.7 0 0 0-6.63-2.89c13.33 10.38-8.61 33.6 1.79 50.82 0-.01-3.4 17.07 4.4 33.79zm-.72-131.38s-3.22 15.08-1.9 21.66m9.6-7c2.39 14.4 4.28.83 7.08 3.68 3.59 5-5.17 9.12-2.09 19.46 0 0-7-12.52-9.83-16.59s4.84-6.51 4.84-6.51z" fill="#b1846d"/><path d="M427.41 761.5c.88-.48-7 21 2.85 21.23-2.81-4.06 4.85-6.53 4.85-6.53a24.16 24.16 0 0 0 1.4 5.64 5.45 5.45 0 0 1 2.21.26c2.55-4.89 5.46-1.61 4 2.39 4.51 2.41 10.47.85 14.19-2.41 1.65-16.55-16.49-39.8-32.18-24.13a14.17 14.17 0 0 0 2.68 3.55z" fill="#7c503f"/><path d="M506.41 750.11a53.82 53.82 0 0 1-.53-15 23.81 23.81 0 0 0-5.94 18.62s-5.29-11.89-8.67-19.73c-3.27.21-6.35-2.39-8.09-5.08-1.07 13.6 1.59 30.25 1.59 30.25-17.38-13.29-25.41-13.13-21.2-41.55 1.7-17-15.93-9.34-5.54-33.36 0 0-10.36 7.24-6.95 20.38-15.67 9.42-6.57 28.22-13.27 29.72-1.94-1.44-6.6-4.72-6.48-6.68s-3.2-8.73-.38-10.79c0 0-6.28-3.71-9.17 13.3 3 13 12.62 24.43 9.39 38.46 3.81-.49 9.05-.42 10 4.17 17.62-3.56 6.46 19.25 2.85 27.15-.37 6-5.75 17.45-11.55 8.52-.41 9.38 1.18 18.64-3.06 27.51-1.7 14.53 5.24 26.68-6 39.84 8.57 58.14 81.37 59.49 84.73 6-.3-8.34 1.35-23.71-2.58-31.35s-5.22-29.75-3.17-34c-5.48-33.44 15.18-19.75 4.02-66.38z" fill="#d89e5b"/><path d="M440.1 732.09a16.79 16.79 0 0 0 2.34 4.86 28.78 28.78 0 0 0 5.56-29.87c-6.73 6.39-6.56 11.37-7.9 25.01zM448.61 759.18c-3.21 7.88-3.05 20.93 8.62 13.85 9.61-2 12 11.4 20.65 12.37 10.4 4.13 11.28-7.72 14.29-14.49 9.16-12.71 7.13-23.52-9-27.38.49 8.66 1.62 15.69 1.62 15.69-1.1-1.41-21.62-13.68-21.19-19.62-2.06 1.73-12.74 14.34-14.99 19.58zM498.89 892.56c-.28 2.91-.07 7.57 3.89 7.33 7.5-14.91 7.14-35.43 2.79-49.36-3.94-7.65-5.22-29.75-3.17-34 0 0-2.22-13 .55-21.67-9.34-17.36-20.72 16-21.81 24.12-2.47 9.8 7.43 16.21 11.58 23.91 6.28 15.37 6.5 33.23 6.17 49.67zM449.5 829.75a15.27 15.27 0 0 0-9.81-8c-2.87 2.27-3.36 7.23-1.81 10.46 3.06 6.41-.55 12.71-1.08 19.13 3.92 14.14 14.55-3.26 13.36-10.52-.08-3.62.84-7.59-.66-11.07z" fill="#7c503f"/><path d="M453.9 840.05a2.44 2.44 0 0 1-.09.47c1.89 14.11-17 31.38-20.83 10.11 5.67-16.42-2.68-17.13 1.63-28.41 5.59-12.5 23.45 5.23 19.29 17.83z" fill="#7c503f"/><path d="M477.75 708.24c-9.53 7.38-1.07 16.16-1.24 24.53.49 2.68 5.84-9.8 1.24-24.53" fill="#c65a4f"/><path d="M460.85 775.34c8.81 28.12-8.49 56.92 13.09 83.15-.95-6-7.37-14.11-.62-18.8a2 2 0 0 1 2.65.59c8.14 14.34 10 29.85 3.73 45.12-6.38 6.26-1.39-12-2.1-17.71s-6.39-9.6-9.71-4.47 3.55 23.44 1.26 33.26c.09 2.43 2.72 2.93 3.92 4.84 1.47 2.31 1 5.16 1.92 7.63 2.07-4.43 7.82-3.73 9.06.91 4.37-1.63 9-24.63 13.06-13.21 5.15-9.49 2.22-20.36.35-30.25-.19 5-5.17 10.36-7.7 3.36-1-5.39.14-11-.34-16.44.6-9.24-4.81-18.22-11.37-24.19-1.27 1.93.36 5.77-2.25 6.58a1.93 1.93 0 0 1-3.31.16c-9.26-17.63 11.25-34.45 15-51.27 3.76-8.52-.89-18.8 4.08-26.67 6.85-7.12-9.36-23.25-7.63-35-2.77 14.07.79 36.31.79 36.31s-10.73-7.68-16.63-12.75c-3.73 7 2.19 24.3-5.28 27.35-3.76-.83-5.3-4.58-6-8-.2 3.83.38 7.62 4.03 9.5zM431.33 727.73a13.14 13.14 0 0 0-.65-3.14 35.15 35.15 0 0 0 2.73 30c-.8-8-2.47-16-.31-24-1.05-1.02-1.82-2.05-1.77-2.86zM446.79 708.32c2.61 12.57 1.57 24.2-5.93 34.76-.23.63-1.32 3-.68 3.64 15.26-6.49 17-27.67 8.9-40.61a20.75 20.75 0 0 0-2.29 2.21z" fill="#c65a4f"/><path d="M454.28 738.18c1.8 12.11-13.42 20.43-11.89 31.19 13.4 10.2 3.35 12.88 1 24.33 2.16 7.56-3.45 37.93-15.25 26 1.45 6.09 6.84 11.2 5.1 17.83-.5 4.41-7.1 13.2-.14 14.94 12.25-1 6.81-14.27 5.71-22-.15-6.09 3.63-11.34 4.07-17.36-.65-5.86 2-9.93 3.68-15-.06-2.48 0-5.93 3.26-6.12 5.15.37 5.8 7.12 7.79 10.79 2-7.36.63-14.71 1-22.15.52-3.47-3.7-3.74-4.45-6.78-4.17-8.7 2.28-34.23 6-10.71.31 1.72.67 4.61 2.09 6.08 1.65-8.51-.74-17.5 2.7-25.81-1.12-1.47-1.17-2.92-1.66-5.89a27.17 27.17 0 0 1-6-7.58 30.47 30.47 0 0 1-3 8zM463.33 900.46c-1.55 6.39-9.11 9.8-10.6 1.38.07-4.27-1.52-2-4.23-2.61-10.28-4 4.22-20.85.29-29.3-4.77 2.26-12.17 3.18-10.66-4.51 1.12-3.7 4.74-5.87 6.91-8.88a82.3 82.3 0 0 1 6-11.71c1-3.88 7.63-2.32 9.56.31 5.09 6.53-.15 14.66-.32 21.86-.49 11.32 7.34 22.26 3.05 33.46zM503.05 762.64c6.83 16.07-5.13 29-9.73 43.44-.81 9-2.73 23.43 5.63 29.17 4.06-23.43-6.17-37 10.73-59.92-.09-14-5.69-31.88-3.8-40.17-5.98 5.31-4.17 19.69-2.83 27.48z" fill="#c65a4f"/><path d="M452.54 701.45c6.48 7.4 4.11 18.74 10.14 26.09-.24-5.84 1.48-9.82.83-15-3.25-11.29-14.17-7.21-5.48-28.22a19.78 19.78 0 0 0-7.55 13.36c.64 1.32 1.34 2.53 2.06 3.77z" fill="#eddf7a"/><path d="M441.24 734a22.84 22.84 0 0 0-.6-3.95c-.77 3.73-1.92 5.93-4.65 3-3.71 6.44-3.77 12.89-.44 19.46 2.53 6-.53 13.4 2.76 19 2.42-7.36-.46-15.35.61-22.88.65-4.99 2.6-9.54 2.32-14.63zM447.33 749.34c.57-2.44-1.8-4.5-3.29-6.27-1.05 3.9-1.86 7.86-1.37 11.92 1.8-1.56 4.08-3.31 4.66-5.65z" fill="#e2bf7d"/><path d="M473.73 756.79c1.08 7.43-.23 16 3.86 22.63 4.28-6.66 3.08-15.76 2.81-23.37-2.24-1.64-5-3.74-7.67-5.8a57 57 0 0 1 1 6.54z" fill="#eddf7a"/><path d="M430.41 756.48c1.58-3.73-.75-7.87-2.12-11.3a57.11 57.11 0 0 1-1-27.84c-9.48 7.26-6.73 40.19-.67 43.29a9.74 9.74 0 0 0 3.79-4.15z" fill="#eacea2"/><path d="M506.07 789.49a10.16 10.16 0 0 0 2.58-4.68c-.91 1.53-1.8 3.08-2.58 4.68z" fill="#954a46" opacity=".31"/><path d="M506.66 887.77c-.58 3.34-10.78 23-13.47 14.12.4-5 3.07-10.15 1.36-15.14-5.71 12.2-8.39 32.79-26.71 28.46-18.76-1.34-20.06-14.1-29.27-27.46-2.06-9.82 8.08-20.83.87-30.2-54.84 25.77 50.85 113.6 68.63 26-.44 1.45-.9 2.82-1.41 4.22z" fill="#d6c669"/><path d="M461.56 812.76c3.9-7.34 5.44-15.23 2.5-23.29-.38 6-5.91 22.16-12.35 11.47 1.16 13.76 5.82 29.6-6.83 39.58 7.1 7.36 10.62 17.81 13.78 27.32 2-5.12-.46-19.47 9.33-14.33-7.55-11.9-8.5-27.12-6.43-40.75z" fill="#e2bf7d"/><path d="M492.58 793.21c3.26-5.39 3.67-24.6 6.49-26.53a85.18 85.18 0 0 1 4.29 8.77c.59-14.49-8.48-33.52-14-46-3.26 5.26 15.21 38.84 5.42 33.87.25 28.58-29.26 54-20.19 74.49-1.07-36.14 13.69 4.1 17.94 15 2.13 2.93 1 7.94 2.06 11.54 7.41-38.47-26.59-25.96-2.01-71.14z" fill="#eddf7a"/><path d="M466.46 773.73c.86-6.29-1.15-12.61-3.56-18.54-.61 7.92-3 16.2 1 23.43a5.88 5.88 0 0 0 2.56-4.89z" fill="#e2bf7d"/><path d="M382.62 854.7s7.42 16.68 8.08 29.21 3.56 13.53 3.56 13.53a14.84 14.84 0 0 0 .31 8.8c1.7 4.34 4.57 10.85 3.58 20.35s.45 25.09 9.4 29.18 23.71-8.54 28.37-13.55 18.14-10.33 23.19-16.9 14.34-18 14.19-22.37c0 0 3.9-8-.28-8.07s-10.57 12.7-12.49 14.31-20.2 14.37-23.08 13.81-3.65-3.61-.67-6.36 19.05-15.65 22.61-21.06 7.87-13.93 7.1-17-4.17-5.8-9 .1-27.86 28.07-31.14 28.85 1.16-4.67 5-8.55 27.55-24.31 30-28.81-1.43-9.42-6.87-7.46-18 13-23 16.89-13 13.23-15.4 12.87 2.7-10.88 8.22-16.59 16.06-13.12 20.76-17.25 2.53-9.34-2.09-9.17-20 6.87-28.14 14-8.89 16.4-11.1 16-2.12-10.05-2.93-14.21-11.6-23.75-18.18-10.55z" fill="#b5726b"/><path d="M426.36 908.72a16.91 16.91 0 0 0 .88-1.62c-1.14.8-2.71.74-1.77-.93-2.96 1.99-1.9 7.28.89 2.55z" fill="#efc6bb"/><path d="M435 919.53c-1.71 1.48-3.53 2.31-2.81 4.18s3 .12 4.47-1a2.72 2.72 0 0 1-1.64-3.23z" fill="#e0cb4f"/><path d="M385.74 854.36c2.72.6 5.39 1 7.59 2.86 3 2.57 4.41 6.7 5.18 10.45.81 3.92 1.07 8.32 3.28 11.78.93 1.44 2.8 2.56 4.35 1.24 1.28-1.1 1.05-3.23 2.48-4.36s2.83-1.09 4.51-.75a5.26 5.26 0 0 0 4.32-1.51c3-2.49 4.85-6 7.78-8.59 1.74-1.52 3.61-2.88 5.44-4.29a63.9 63.9 0 0 0 4.93-4.67c1.53-1.45 3.21-2 5-3 .77-.45 1.78-1.56 1.21-2.44a3.38 3.38 0 0 0-1.51-1.08c-6.32 1.67-18.51 7.43-25.44 13.49-8.11 7.12-8.89 16.4-11.1 16s-2.12-10.05-2.93-14.21c-.77-4-10.8-22.26-17.42-11.94a4.11 4.11 0 0 0 2.33 1.02zM422.86 887.65a16.68 16.68 0 0 1 3.45.34c1.28.28 2.45.86 3.69 1.25a8.84 8.84 0 0 1 1.13.27c.05-.06.11-.11.1-.09.13-.24.28-.47.41-.7.42-.76.8-1.53 1.24-2.28a17.78 17.78 0 0 1 3.81-4.65c3.06-2.61 6.73-4.22 10.22-6.14s6.78-3.95 7.34-8a27.94 27.94 0 0 0 .1-4.84c-5.5 2.08-18 13-22.84 16.84-2.51 1.92-5.71 5.23-8.65 8zM458.1 878.94c-3.44 4.17-16.53 16.92-24.72 24v.74c-.24 2.48 1.57 2.68 3.64 3.67 1.26.6 3.45 1.55 4.6.32s1.56-3 2.26-4.41a22.07 22.07 0 0 1 4.29-5.69 49.84 49.84 0 0 1 10-7.67c1.29-.77 2.84-1.67 2.72-3.39-.09-1.4-.9-2.48-.17-3.91.82-1.59 2.73-2.86 4.26-3.7.46-.25.93-.48 1.4-.71-.92-2.85-3.61-4.92-8.28.75z" fill="#e5a898"/><path d="M394.57 906.24l.28.7c.67-3.77 4.12-6.42 4.4-10.32a4.5 4.5 0 0 0-.07-1.27h-.05c-4.37 1.16-6.6 6.59-4.56 10.89zM398.71 918c-.07.13-.13.27-.2.41a3 3 0 0 1 .2.64v-.2a6.41 6.41 0 0 0 .92 2.64.23.23 0 0 1 .13.07.47.47 0 0 1 .22 0 9.5 9.5 0 0 0 2.58-2.4c1.23-2.34 4-5.71 2.14-8.31h-.1c-1.31.29-3.46 3.19-3.57 3.36a25.12 25.12 0 0 0-2.32 3.79zM421.06 922.38c-.84-1.43-2.47.19-3.58.16-9.48 12.56 2.43 9.93 3.58-.16z" fill="#e2a48f"/><path d="M460.53 909.19c-.27.22-.84.66-1.63 1.23a25.27 25.27 0 0 1-3.74 7.51c-.86 1.21-2.42 2.89-2.6 4.43 0 .29.23.7-.06.59.48.19 1.44-.41 1.83-.62 3.47-1.92 4.55-5.73 6.67-8.82a9.2 9.2 0 0 1 4.49-3.82 13.24 13.24 0 0 0 3-1 4.87 4.87 0 0 0 1.55-2.53 36.86 36.86 0 0 0 1.63-11c-4.1 2.16-9.42 12.59-11.14 14.03z" fill="#e5a898"/><path d="M414.91 870.26a9.14 9.14 0 0 1-5.71 0c-.31.51-.6 1-.86 1.51a11.55 11.55 0 0 0 .32 1.53 7.48 7.48 0 0 0 1.13 2.32 5.72 5.72 0 0 1 3.34-.08 5.26 5.26 0 0 0 4.32-1.51 36 36 0 0 0 4.69-5.24c.23-.48.46-1 .68-1.43a18.85 18.85 0 0 0-2.55.8c-1.78.72-3.51 1.57-5.36 2.1zM425.64 856.21c.36.11.73.22 1.1.31 2.17.52 4.72 1 6.57-.6a8.41 8.41 0 0 0 2.39-4.42 89.29 89.29 0 0 0-10.06 4.71zM431.43 883.45a4.39 4.39 0 0 0-2.54.38 4.3 4.3 0 0 0-1.31 2 15.35 15.35 0 0 0-.67 2.33c1 .3 2 .75 3.09 1.08a8.84 8.84 0 0 1 1.13.27c.05-.06.11-.11.1-.09.13-.24.28-.47.41-.7.42-.76.8-1.53 1.24-2.28a18.39 18.39 0 0 1 2.6-3.5 18.41 18.41 0 0 1-4.05.51zM453.28 865.91c.12-.85.16-1.79.21-2.76a64.59 64.59 0 0 0-10.23 6.93l1.15.23c2.06.39 4.62.9 6.58-.15 1.64-.88 2.01-2.44 2.29-4.25zM454.52 891c-.17.56-.32 1.11-.47 1.65 1.33-1 2.7-1.88 4.13-2.72 1.27-.75 2.76-1.64 2.72-3.28-2.82.27-5.39 1.18-6.38 4.35zM442.12 903.43a27.42 27.42 0 0 0-5.18 2.91l-.79.58q.44.26.9.48c1.26.6 3.45 1.55 4.6.32s1.56-3 2.26-4.41c.12-.24.27-.47.4-.71-.73.27-1.47.53-2.19.83z" fill="#efc6bb"/><path d="M413.79 894.37a32.52 32.52 0 0 0 1.72-3.18 4.68 4.68 0 0 1 .09-.69 3.71 3.71 0 0 0-.48.39l-.24.21A13.83 13.83 0 0 0 413 893c-.05.06-.27.4-.1.12s0 0-.06.08-.16.25-.23.38-.17.32-.25.48c-.05.19-.1.36-.14.55a.25.25 0 0 1 0 .08v.43a.42.42 0 0 1 0 .06 7.35 7.35 0 0 0 .27.79c.21-.22.42-.43.61-.67l.23-.31-.08.1.07-.09z" fill="#e2a48f"/><path d="M462 879.88a7 7 0 0 1 .75-.68l-.25.19a6.45 6.45 0 0 1 1.24-.74.87.87 0 0 0 .34-.32.82.82 0 0 0 .22-.41 1.26 1.26 0 0 0-.12-.95 1.24 1.24 0 0 0-.73-.56h-.33a1.22 1.22 0 0 0-.62.16 6.43 6.43 0 0 0-1.08.62 8.41 8.41 0 0 0-1.15 1 1.29 1.29 0 0 0-.36.87 1.2 1.2 0 0 0 .36.86 1.19 1.19 0 0 0 .87.36 1.22 1.22 0 0 0 .86-.36zM470.7 900.29l.06-.08-.19.25A8 8 0 0 1 472 899l-.25.19c.15-.11.3-.23.46-.33a1.33 1.33 0 0 0 .57-.73 1.26 1.26 0 0 0-.13-.95 1.23 1.23 0 0 0-1.67-.44 9 9 0 0 0-2.39 2.28.82.82 0 0 0-.14.45.9.9 0 0 0 0 .49 1.25 1.25 0 0 0 .56.73 1.26 1.26 0 0 0 1 .13l.29-.13a1.24 1.24 0 0 0 .44-.44z" fill="#ead7d6"/><path d="M520.1 851.73s-9.51-10-15.53-14.79-11.27-9.45-13-8.37-6.69 5.07-2.42 10.77S509 861 513 865.46s-.05 13.23-1.88 18.89-2.77 15.11 6.86 21.38 19.1 15.1 26.53 9.24 10.07-17.4 4.46-24.83-7-11.45-4.11-15.63 8.67-13.78 8.54-17.34l-.2-5.85s4.64-5.5 2.92-11-1.31-29.71-4-33.69a95.71 95.71 0 0 0-6.4-8.17s2-7.45-5.6-7.43c0 0-6.55-5.37-12.47-7.45 0 0-10.81-6.86-11.55 1.05 0 0-6.93-5.48-10.58-.78s-1.56 6.17 4 12.07 21.73 24.68 21.19 31c0 0-16.77-13.9-27.07-17.61s-13.5-.54-12.83 4 5.42 5.9 12.69 8.51 18.68 17 18.58 19.44 2.35 9.93-1.98 10.47z" fill="#e2a48f"/><path d="M519 864.13c4.44 1.76 10.14 1 14.19-1.42 4.22-2.5 7.22-6.79 9.63-11s4.44-8.91 6.72-13.34c1.74-3.38 4.16-6.92 5.19-10.7-.52-8.67-1-18.68-2.64-21.11-.65-1-1.35-1.93-2.05-2.85-.36.35-.72.69-1.09 1-1.44 1.27-3.22 2.8-5.22 3a5.56 5.56 0 0 1-3.12-.72 19 19 0 0 0 .41 2.1c.75 2.72.93 5-.31 7.64a16.61 16.61 0 0 1-2.19 3.26 8 8 0 0 0-1.32 2.58c-.75 2.12-2 3.58-4.44 3.49a7.27 7.27 0 0 1-2.17-.48 4.43 4.43 0 0 1 .08 1.28l-1.29-1a17.15 17.15 0 0 0 1.23 1.77 14 14 0 0 1 2.91 5.27c1 4.51-2.59 7.49-6.35 9h-.11a8.71 8.71 0 0 1-4.73 2.06c.45 3.13 1 7.3-2.23 7.7 0 0-.93-1-2.4-2.48v.09a15.72 15.72 0 0 1-1.19 4.47 17.08 17.08 0 0 1-4.27 5.91c2.15 1.7 4.21 3.47 6.76 4.48z" fill="#efc6bb"/><path d="M553.22 810.22a4.5 4.5 0 0 1-.74.56c-4.23 2.48-8.2-3.7-9.81-6.7a55.29 55.29 0 0 0-3.65-6.57 16.84 16.84 0 0 0-4.52-4.1c-5.89-3.83-13.13-5.87-17.7-11.16a5.21 5.21 0 0 0-.73 2.34s-.24-.19-.66-.47l1 1.1a45.3 45.3 0 0 0 5.36 4.91c3.92 3.19 7.92 6.3 11.61 9.76s6.08 7.18 8.72 11.29c1.06 1.66 2.47 3.36 2.38 5.44-.07 1.8-1.31 3.36-2.06 4.94a1.94 1.94 0 0 1-3.32.12 82.9 82.9 0 0 1-3.9-8.45 31.44 31.44 0 0 0-4.89-7.36c-2.85-3.31-6.36-7-10-9.12-2.77-1.6-5.78-2.77-8.66-4.16a36 36 0 0 1-7.91-4.86c-.05 2.26 3.73 5 7.43 9 5.11 5.44 18.13 19.82 19.37 28.47q1.43 2 2.86 3.92c1.42 1.93 2.86 4.32 2.12 6.82-1.65 5.51-8.88 1.75-11.59-.52-4-3.37-6.84-7.89-10.6-11.51-1.86-1.79.35-9.2-1.77-7.71-3.52 2.48-9.6 1.86-12.25 1.53a37.55 37.55 0 0 1-7.29-1.55c1.94 2.46 6.53 2.89 12 4.86 7.27 2.61 18.39 17.8 18.28 20.19-.08 2 2.71 7.08-2.17 10.52.61 1.59 1.1 5.86-2.62 6.31-2.2.26-1-2.39-2.36-4.13s-10.72-10.22-13.49-11c-2.5-.74-6.22.93-8.52-.3a23.82 23.82 0 0 1-2.77-1.73c5.43 6.61 20 21.44 23.67 25.54 4 4.44-1.1 12.3-2.93 18s-2.77 15.11 6.86 21.38 19.1 15.1 26.53 9.24 9.44-15.89 3.84-23.32-6.19-14.13-2.81-17.93c5-5.63 7.35-13 7.22-16.53l-.2-5.84s5.28-5.53 3.56-11.07c-1.46-4.68-1.42-22.06-2.89-30.15z" fill="#b5726b"/><path d="M527.5 855.92a6.39 6.39 0 0 0 .62-6 13.7 13.7 0 0 0-5.63-7.1c.49 2.29.79 6.26-2.39 9 2.54 6.62 6.36 5.49 7.4 4.1z" fill="#e0cb4f"/><path d="M488.81 834.24c1.16.74 2.31 1.49 3.48 2.21a5.75 5.75 0 0 0 1.29.7c1.21.34 2.21-.68 2.69-1.67a1.27 1.27 0 0 0-.44-1.68 1.25 1.25 0 0 0-1.68.44 5.05 5.05 0 0 1-.28.51c-.08.11-.06.09 0 0l-.11.12c-.14.17.21-.14 0 0s-.09.05.09 0h.18c-.27 0 .29.07.15 0 .42.12.29.13.14.05-.4-.21-.78-.46-1.16-.69l-3.16-2a1.24 1.24 0 0 0-1.68.44 1.27 1.27 0 0 0 .44 1.68zM491.89 811.8a12 12 0 0 0 3.9 2.12 6.64 6.64 0 0 0 1.31.41 1.46 1.46 0 0 0 1.35-.36 4 4 0 0 0 .54-.74c.39-.63.75-1.28 1.11-1.93a1.23 1.23 0 0 0-2.12-1.23c-.36.66-.72 1.32-1.13 1.95-.07.13-.16.24-.24.36.21-.34.18-.2.09-.12a1.13 1.13 0 0 1 .8-.33c-.15 0 .41.08.2 0h-.14l-.36-.1c-.32-.1-.64-.22-.95-.35l-.28-.11c.36.11 0 0-.05 0l-.57-.26a11.13 11.13 0 0 1-1.08-.57l-.46-.29c-.26-.19.16.14 0 0l-.17-.15a1.22 1.22 0 1 0-1.73 1.73zM514 786.13a4.08 4.08 0 0 1-.34.57s-.15.2 0 0l-.22.24a4.68 4.68 0 0 1-.46.43c-.15.12 0 0 .07-.05l-.13.1-.28.18a5.86 5.86 0 0 1-.55.3s-.24.1 0 0l-.31.1a7.4 7.4 0 0 1-.64.15h.13-.53a1.23 1.23 0 1 0 0 2.45 6.38 6.38 0 0 0 5.51-3.34 1.23 1.23 0 1 0-2.12-1.24zM523.77 784.11l.2.86a1.06 1.06 0 0 0 .22.42 1 1 0 0 0 .35.31.93.93 0 0 0 .45.15.91.91 0 0 0 .49 0l.29-.12a1.16 1.16 0 0 0 .44-.44l.13-.29a1.2 1.2 0 0 0 0-.65l-.21-.86a1 1 0 0 0-.22-.42 1 1 0 0 0-.34-.32 1.07 1.07 0 0 0-.46-.14.91.91 0 0 0-.49 0l-.29.12a1.32 1.32 0 0 0-.44.44l-.12.3a1.2 1.2 0 0 0 0 .65z" fill="#937e7c"/><path d="M494.19 808.32a.86.86 0 0 1-.2.8c.14-.15-.24.23 0 0-.2.07-.23.09-.11.05h.09c.28-.09-.25 0 0 0a10.68 10.68 0 0 1 1.37.11q.21 0 0 0h.2l.31.05.8.15c.49.1 1 .23 1.48.37a1.22 1.22 0 0 0 .65-2.36 21.91 21.91 0 0 0-4-.75 3.59 3.59 0 0 0-1.75.18 1.93 1.93 0 0 0-.91.73 1.81 1.81 0 0 0-.21 1.31 1.24 1.24 0 0 0 .56.73 1.26 1.26 0 0 0 .95.12 1.24 1.24 0 0 0 .73-.56 1.47 1.47 0 0 0 .12-.95zM491.85 827.64l-2.58 2.36a1.21 1.21 0 0 0-.31 1.19 1.29 1.29 0 0 0 .85.85h-.07l.15.07.22.1.51.23c.31.15.62.31.92.48a21.51 21.51 0 0 1 1.83 1.14 1.23 1.23 0 0 0 1.68-.43 1.26 1.26 0 0 0-.44-1.68 22.09 22.09 0 0 0-4.14-2.24l.54 2 2.57-2.3a1.24 1.24 0 0 0 0-1.74 1.26 1.26 0 0 0-1.73 0zM508.42 781.62a26.55 26.55 0 0 0-2.07 2c-.29.31-.58.62-.84.94-.41.51-.8 1-.5 1.72a3.58 3.58 0 0 0 1.05 1.11c.4.33.81.65 1.22 1a1.3 1.3 0 0 0 1 .12 1.28 1.28 0 0 0 .72-.51 1.26 1.26 0 0 0 .12-1 1.4 1.4 0 0 0-.56-.73l-.11-.08-.28-.22c-.16-.13-.32-.26-.47-.4s-.35-.33-.54-.48c-.32-.32-.26 0 .19 1 0-.06 0 0-.06.13-.12.29-.06.13 0 .09s.25-.32-.06.07l.15-.19c.15-.18.31-.36.47-.53a26.62 26.62 0 0 1 2.38-2.37 1.23 1.23 0 0 0 0-1.73 1.26 1.26 0 0 0-1.74 0zM518.7 782.52a8.92 8.92 0 0 1 1.16.08l-.32-.05a9.08 9.08 0 0 1 2.17.6l-.29-.12c.24.11.48.22.72.35a1.23 1.23 0 0 0 1.23-2.12 9.88 9.88 0 0 0-4.67-1.19 1.23 1.23 0 0 0 0 2.45z" fill="#ead7d6"/><path d="M455.9 845.13s1.81-12.1 3.15-10.88 8.65 10.29 5.09 10.59-1.27-12.84-8.24.29zM438.2 737.55s-7 1.15-5.27 4.11 4 13.12 4.5 7.58.77-11.69.77-11.69zM493.2 747.92s5.15 14.84 4.35 20.42 4.5-9.94-4.35-20.42zM491.5 846.56s1.24 17.07-.25 20.13 5.8-7.69.25-20.13z" fill="#ffec7b"/><g opacity=".5" fill="#fff"><path d="M400.82 787.54a1.23 1.23 0 0 0 0-2.45 1.23 1.23 0 0 0 0 2.45zM412.3 831a1.23 1.23 0 0 0 0-2.45 1.23 1.23 0 0 0 0 2.45zM400.93 830.52a1.23 1.23 0 0 0 0-2.45 1.23 1.23 0 0 0 0 2.45zM401.49 846.38a1.23 1.23 0 0 0 0-2.45 1.23 1.23 0 0 0 0 2.45zM416.06 847.69a1.23 1.23 0 0 0 0-2.45 1.23 1.23 0 0 0 0 2.45zM382.78 830.7a1.23 1.23 0 0 0 0-2.45 1.23 1.23 0 0 0 0 2.45zM413.81 809.64a1.23 1.23 0 0 0 0-2.45 1.23 1.23 0 0 0 0 2.45zM419.66 795.36a1.23 1.23 0 0 0 0-2.45 1.23 1.23 0 0 0 0 2.45zM399.76 771.55a1.23 1.23 0 0 0 0-2.45 1.23 1.23 0 0 0 0 2.45zM469.49 741a1.23 1.23 0 0 0 0-2.45 1.23 1.23 0 0 0 0 2.45zM493.17 717.42a1.23 1.23 0 0 0 0-2.45 1.23 1.23 0 0 0 0 2.45zM483.72 694.15a1.23 1.23 0 0 0 0-2.45 1.23 1.23 0 0 0 0 2.45zM508.29 708.71a1.23 1.23 0 0 0 0-2.45 1.23 1.23 0 0 0 0 2.45zM517 735.64a1.23 1.23 0 0 0 0-2.45 1.23 1.23 0 0 0 0 2.45zM512.94 750.31a1.23 1.23 0 0 0 0-2.45 1.23 1.23 0 0 0 0 2.45zM529.48 756.08a1.23 1.23 0 0 0 0-2.45 1.23 1.23 0 0 0 0 2.45zM523.07 767.2a1.23 1.23 0 0 0 0-2.45 1.23 1.23 0 0 0 0 2.45zM536.23 767.19a1.23 1.23 0 0 0 0-2.45 1.23 1.23 0 0 0 0 2.45zM529.93 768.77a1.23 1.23 0 0 0 0-2.45 1.23 1.23 0 0 0 0 2.45zM543.54 781.45a1.23 1.23 0 0 0 0-2.45 1.23 1.23 0 0 0 0 2.45zM478.21 938.23a1.23 1.23 0 0 0 0-2.45 1.23 1.23 0 0 0 0 2.45zM492.07 926a1.23 1.23 0 0 0 0-2.45 1.23 1.23 0 0 0 0 2.45zM506.78 938.25a1.23 1.23 0 0 0 0-2.45 1.23 1.23 0 0 0 0 2.45zM508.15 919.32a1.23 1.23 0 0 0 0-2.45 1.23 1.23 0 0 0 0 2.45zM414.91 777.15a.62.62 0 0 0 0-1.23.62.62 0 0 0 0 1.23zM411 790.14a.62.62 0 0 0 0-1.23.62.62 0 0 0 0 1.23zM411.11 782.54a.62.62 0 0 0 0-1.23.62.62 0 0 0 0 1.23zM406.1 782.11a.61.61 0 0 0 0-1.22.61.61 0 0 0 0 1.22zM406 795.72a.62.62 0 0 0 0-1.23.62.62 0 0 0 0 1.23zM411.66 797.92a.62.62 0 0 0 0-1.23.62.62 0 0 0 0 1.23zM417.79 790.5a.62.62 0 0 0 0-1.23.62.62 0 0 0 0 1.23zM421.16 783.78a.61.61 0 0 0 0-1.22.61.61 0 0 0 0 1.22zM422.53 800.13a.61.61 0 0 0 0-1.22.61.61 0 0 0 0 1.22zM418.7 816.27a.62.62 0 0 0 0-1.23.62.62 0 0 0 0 1.23zM409.6 819a.62.62 0 0 0 0-1.23.62.62 0 0 0 0 1.23zM407.66 826.46a.62.62 0 0 0 0-1.23.62.62 0 0 0 0 1.23zM407 835.68a.62.62 0 0 0 0-1.23.62.62 0 0 0 0 1.23zM394.78 841.11a.62.62 0 0 0 0-1.23.62.62 0 0 0 0 1.23zM395.22 825.29a.61.61 0 0 0 0-1.22.61.61 0 0 0 0 1.22zM399.39 813a.62.62 0 0 0 0-1.23.62.62 0 0 0 0 1.23zM388.08 810a.62.62 0 0 0 0-1.23.62.62 0 0 0 0 1.23zM383.74 845.7a.62.62 0 0 0 0-1.23.62.62 0 0 0 0 1.23zM407 858.68a.62.62 0 0 0 0-1.23.62.62 0 0 0 0 1.23zM414 857.83a.61.61 0 0 0 0-1.22.61.61 0 0 0 0 1.22zM419 835.26a.62.62 0 0 0 0-1.23.62.62 0 0 0 0 1.23zM420.4 824.61a.62.62 0 0 0 0-1.23.62.62 0 0 0 0 1.23zM477.15 744a.62.62 0 0 0 0-1.23.62.62 0 0 0 0 1.23zM472.83 735a.62.62 0 0 0 0-1.23.62.62 0 0 0 0 1.23zM472.78 727.76a.61.61 0 0 0 0-1.22.61.61 0 0 0 0 1.22zM468.69 730.91a.62.62 0 0 0 0-1.23.62.62 0 0 0 0 1.23zM480.7 736.88a.61.61 0 0 0 0-1.22.61.61 0 0 0 0 1.22zM487.14 715.45a.61.61 0 0 0 0-1.22.61.61 0 0 0 0 1.22zM484.6 711.34a.61.61 0 0 0 0-1.22.61.61 0 0 0 0 1.22zM487.94 704.23a.62.62 0 0 0 0-1.23.62.62 0 0 0 0 1.23zM494.93 709.58a.62.62 0 0 0 0-1.23.62.62 0 0 0 0 1.23zM498.37 704.86a.62.62 0 0 0 0-1.23.62.62 0 0 0 0 1.23zM492.73 698.26a.62.62 0 0 0 0-1.23.62.62 0 0 0 0 1.23zM473.7 697.13a.62.62 0 0 0 0-1.23.62.62 0 0 0 0 1.23zM471.34 692.81a.61.61 0 0 0 0-1.22.61.61 0 0 0 0 1.22zM469.46 701.88a.62.62 0 0 0 0-1.23.62.62 0 0 0 0 1.23zM499.71 714.61a.61.61 0 0 0 0-1.22.61.61 0 0 0 0 1.22zM504.5 686a.61.61 0 0 0 0-1.22.61.61 0 0 0 0 1.22zM498.53 732.25a.61.61 0 0 0 0-1.22.61.61 0 0 0 0 1.22zM506.93 726.56a.62.62 0 0 0 0-1.23.62.62 0 0 0 0 1.23zM511.69 736.79a.62.62 0 0 0 0-1.23.62.62 0 0 0 0 1.23zM509.46 741.47a.62.62 0 0 0 0-1.23.62.62 0 0 0 0 1.23zM517.08 742.2a.62.62 0 0 0 0-1.23.62.62 0 0 0 0 1.23zM514.58 756.28a.61.61 0 0 0 0-1.22.61.61 0 0 0 0 1.22zM524 756a.61.61 0 0 0 0-1.22.61.61 0 0 0 0 1.22zM511.48 764.59a.61.61 0 0 0 0-1.22.61.61 0 0 0 0 1.22zM516.45 763.82a.62.62 0 0 0 0-1.23.62.62 0 0 0 0 1.23zM515 772.87a.62.62 0 0 0 0-1.23.62.62 0 0 0 0 1.23zM525.79 773.49a.62.62 0 0 0 0-1.23.62.62 0 0 0 0 1.23zM527.22 780a.62.62 0 0 0 0-1.23.62.62 0 0 0 0 1.23zM535.51 776.94a.61.61 0 0 0 0-1.22.61.61 0 0 0 0 1.22zM536.45 758.11a.61.61 0 0 0 0-1.22.61.61 0 0 0 0 1.22zM542.63 768.89a.61.61 0 0 0 0-1.22.61.61 0 0 0 0 1.22zM538.64 786.23a.61.61 0 0 0 0-1.22.61.61 0 0 0 0 1.22zM544.24 752.44a.62.62 0 0 0 0-1.23.62.62 0 0 0 0 1.23zM531.6 734.28a.61.61 0 0 0 0-1.22.61.61 0 0 0 0 1.22zM536.56 721.71a.62.62 0 0 0 0-1.23.62.62 0 0 0 0 1.23zM498.51 918.64a.61.61 0 0 0 0-1.22.61.61 0 0 0 0 1.22zM507.12 907.54a.61.61 0 0 0 0-1.22.61.61 0 0 0 0 1.22zM515.17 914.66a.62.62 0 0 0 0-1.23.62.62 0 0 0 0 1.23zM515.67 928.64a.62.62 0 0 0 0-1.23.62.62 0 0 0 0 1.23zM504.77 925.82a.61.61 0 0 0 0-1.22.61.61 0 0 0 0 1.22zM497.75 936.67a.62.62 0 0 0 0-1.23.62.62 0 0 0 0 1.23zM484.3 923.94a.61.61 0 0 0 0-1.22.61.61 0 0 0 0 1.22zM465.37 931.61a.61.61 0 0 0 0-1.22.61.61 0 0 0 0 1.22zM464.3 946.65a.62.62 0 0 0 0-1.23.62.62 0 0 0 0 1.23zM485.47 945.7a.61.61 0 0 0 0-1.22.61.61 0 0 0 0 1.22zM485.34 936.31a.62.62 0 0 0 0-1.23.62.62 0 0 0 0 1.23zM517.85 939.36a.61.61 0 0 0 0-1.22.61.61 0 0 0 0 1.22z"/></g></svg>