<svg xmlns="http://www.w3.org/2000/svg" width="1250" height="1550" viewBox="0 0 1250 1550"><path d="M489.35 531.24s.01-.04 0 0z" fill="#262521"/><path d="M877.22 1043c-3.84-55.87-22.89-124.63-22.89-124.63s-14.58-307-52.88-331.94c-10.88-7.11-147.05-58.79-147.05-58.79S656.67 575 576.31 575c-65.08 0-76.92-33.9-81-46a10.89 10.89 0 01-.74-2.6c-1 .65-106.12 67.59-150.62 94.4-44.77 26.89-26.71 324.2-26.71 324.2a619.73 619.73 0 00-3.6 128.12c5.52 68.42-1.88 179.2 14.45 197.93l61-1.5s-5.61-14.34-4.66-27c2.28-30.22 5.54-104.26 15.36-135.21 4.92-15.48 9.78-37.06 13.91-55.27h.23c-3.88 32.6-26.11 146.78-14.71 171.94 0 13-1.32 46.49-1.32 46.49s73.26 18.64 150.25 17.71c137.53-1.66 260.87-23.64 260.87-23.64s-4.18-33-5-46.63c8.57-14.78.77-78.1-8.24-134.84h.22c15.66 47 30.92 103.57 32.82 134.18 1.63 26.39 2.88 34.36 2.88 34.36h58.1s4.49-6.66 5.3-18.88-12.31-108.5-17.88-189.76z" fill="#262521" stroke="#262521" stroke-linecap="round" stroke-linejoin="round" stroke-width="3"/><path d="M371.29 685.24c-3.06-9.88-21.17-50.67-28.84-63.49C299.58 654.27 317.24 945 317.24 945a619.73 619.73 0 00-3.6 128.12c3.6 44.54 1.71 107 4.47 150.4 1.29.26 24 2.47 37.69.06-3.6-142.42 8.28-213.23 11.5-257 1.77-23.99 7.24-270.83 3.99-281.34zM893.26 1208c-3.67-36.43-11.92-104.83-16-165-3.84-55.87-22.89-124.63-22.89-124.63s-14.58-307-52.88-331.94c-1.37-.9-15 48.29-15.6 58.46-.63 10.6 28.23 281.92 33.77 306.87 4.56 20.53 31.34 165.61 38.93 258.72 22.41 2.68 31.41-1.58 34.67-2.48z" fill="#fff"/><path d="M397.86 1270.52s73.26 18.64 150.25 17.71c137.53-1.66 260.87-23.64 260.87-23.64" fill="none" stroke="#636363" stroke-linecap="round" stroke-linejoin="round"/><path d="M676.63 538.18s2.16 13.84-21.91 42.46l56.76 306.69 51.41-316.66zM477.49 537.28L383 599.35 467.44 901 506 581.44c-25.07-21.17-28.51-44.16-28.51-44.16z" fill="#595959" stroke="#595959" stroke-linejoin="round" stroke-width="1.74"/><path fill="#fff" d="M438.95 1223.51l99.61-376.88 16.21 381.88-115.82-5zM760.55 1218.51L660.43 845.63l-16.21 380.38 116.33-7.5z"/><path fill="#d82e2e" stroke="#d82e2e" stroke-linejoin="round" stroke-width="1.74" d="M315.37 905.03l63.98 68-66.03 11 3.92-39.01-1.87-39.99zM852.48 885.74l-59.51 63.25 71.63 11.94-10.27-42.56-1.85-32.63z"/><path d="M895.06 1232.79c.82-12.22-12.27-108.53-17.84-189.79-3.84-55.87-22.89-124.63-22.89-124.63s-14.58-307-52.88-331.94c-10.88-7.11-147.05-58.79-147.05-58.79M494.53 526.34c-1 .65-106.12 67.59-150.62 94.4C299.18 647.69 317.24 945 317.24 945a619.73 619.73 0 00-3.6 128.12c5.52 68.42-1.88 179.2 14.45 197.93" fill="none" stroke="#262521" stroke-linecap="round" stroke-linejoin="round" stroke-width="3"/></svg>