<svg xmlns="http://www.w3.org/2000/svg" width="1250" height="1550" viewBox="0 0 1250 1550"><title>s06e09-02</title><polygon points="403.44 1253.73 800.96 1248.11 823.76 1558.99 426.21 1563.54 403.44 1253.73" fill="#262521" stroke="#262521" stroke-linecap="round" stroke-linejoin="round" stroke-width="3.24"/><path d="M492.85,530.24l0,0S492.86,530.2,492.85,530.24Z" fill="#262521"/><path d="M877.22,1043c-3.84-55.87-22.89-124.63-22.89-124.63s-14.58-307-52.88-331.94c-10.88-7.11-146.29-58.21-146.29-58.21s1.51,53.49-78.84,53.49c-65.09,0-78.6-36.73-82.72-48.88a11.73,11.73,0,0,1-.75-2.59c-1,.64-104.44,63.69-148.94,90.5C299.18,647.69,317.24,945,317.24,945a619.73,619.73,0,0,0-3.6,128.12c5.52,68.42-1.88,179.2,14.45,197.93l61-1.5s-5.61-14.34-4.66-27c2.28-30.22,5.54-104.26,15.36-135.21,4.92-15.48,9.78-37.06,13.91-55.27h.23c-3.88,32.6-26.11,146.78-14.71,171.94,0,13-1.32,46.49-1.32,46.49s73.26,18.64,150.25,17.71c137.53-1.66,260.87-23.64,260.87-23.64s-4.18-33-5-46.63c8.57-14.78.77-78.1-8.24-134.84H796c15.66,47,30.92,103.57,32.82,134.18,1.63,26.39,2.88,34.36,2.88,34.36h58.1s4.49-6.66,5.3-18.88S882.79,1124.26,877.22,1043Z" fill="#262521" stroke="#262521" stroke-linecap="round" stroke-linejoin="round" stroke-width="3"/><path d="M666.9,752s9.91-4,8.81-16.1c0,0,11.09-.58,15.15,2.78C690.86,738.68,674.51,754.68,666.9,752Z" fill="#fff"/><path d="M655.55,737.15S655,750,663.9,751.78c0,0-9.48,2-21-9C642.86,742.79,648.86,737.05,655.55,737.15Z" fill="#fff"/><circle cx="662.65" cy="738.89" r="4.21" fill="#fff"/><path d="M638.56,735.67s18.31-32.55,49.29-7.14c0,0-30.89-18.35-46.11,9.8Z" fill="#fff"/><path d="M589.08,700.15s9.92-4,8.81-16.1c0,0,11.1-.59,15.15,2.78C613,686.83,596.69,702.83,589.08,700.15Z" fill="#fff"/><path d="M577.73,685.3s-.58,12.84,8.35,14.63c0,0-9.48,2-21-9C565.05,690.94,571,685.2,577.73,685.3Z" fill="#fff"/><circle cx="584.83" cy="687.04" r="4.21" fill="#fff"/><path d="M560.74,683.81s18.31-32.54,49.3-7.13c0,0-30.9-18.35-46.11,9.8Z" fill="#fff"/><path d="M424.27,704.41s9.92-4,8.81-16.1c0,0,11.09-.58,15.15,2.78C448.23,691.09,431.88,707.09,424.27,704.41Z" fill="#fff"/><path d="M412.92,689.56s-.58,12.84,8.35,14.63c0,0-9.48,2-21-9C400.24,695.2,406.23,689.46,412.92,689.56Z" fill="#fff"/><circle cx="420.02" cy="691.3" r="4.21" fill="#fff"/><path d="M395.93,688.08s18.31-32.54,49.29-7.14c0,0-30.89-18.35-46.1,9.8Z" fill="#fff"/><path d="M745.57,696.1s9.92-4,8.81-16.1c0,0,11.09-.58,15.15,2.78C769.53,682.78,753.18,698.78,745.57,696.1Z" fill="#fff"/><path d="M734.22,681.25s-.58,12.84,8.35,14.63c0,0-9.48,2-21-9C721.54,686.89,727.53,681.15,734.22,681.25Z" fill="#fff"/><circle cx="741.32" cy="682.99" r="4.21" fill="#fff"/><path d="M717.23,679.77s18.31-32.55,49.29-7.14c0,0-30.89-18.35-46.1,9.8Z" fill="#fff"/><path d="M421.34,591.21s9.92-4,8.81-16.1c0,0,11.1-.59,15.15,2.78C445.3,577.89,429,593.89,421.34,591.21Z" fill="#fff"/><path d="M410.15,579.57c-3.28,1.66-6.77,2.95-9.74,5.11,10.1,7.94,17.93,6.3,17.93,6.3C412.29,589.78,410.61,583.5,410.15,579.57Z" fill="#fff"/><path d="M418.67,574.19c-1.9,1.41-3.84,2.77-5.77,4.14a4.2,4.2,0,1,0,5.77-4.14Z" fill="#fff"/><path d="M742.64,582.9s9.92-4,8.81-16.1c0,0,9.35-.38,13.41,3C764.86,569.79,750.25,585.58,742.64,582.9Z" fill="#fff"/><path d="M731.29,568.05s-.58,12.84,8.35,14.62c0,0-9.48,2-21-9C718.61,573.69,724.6,568,731.29,568.05Z" fill="#fff"/><circle cx="738.39" cy="569.79" r="4.21" fill="#fff"/><path d="M725.47,554.66a40.1,40.1,0,0,0-11.17,11.9l3.19,2.67c3.55-6.58,8-10.6,12.64-12.93A47.64,47.64,0,0,0,725.47,554.66Z" fill="#fff"/><path d="M509.18,756.08s9.92-4,8.81-16.1c0,0,11.1-.59,15.15,2.78C533.14,742.76,516.79,758.76,509.18,756.08Z" fill="#fff"/><path d="M497.83,741.23s-.58,12.84,8.35,14.63c0,0-9.47,2-21-9C485.15,746.87,491.14,741.13,497.83,741.23Z" fill="#fff"/><circle cx="504.93" cy="742.97" r="4.21" fill="#fff"/><path d="M480.85,739.74s18.3-32.54,49.29-7.13c0,0-30.9-18.35-46.11,9.8Z" fill="#fff"/><path d="M669.79,863.91s9.92-4,8.81-16.1c0,0,11.1-.58,15.15,2.79C693.75,850.6,677.4,866.59,669.79,863.91Z" fill="#fff"/><path d="M658.44,849.06s-.58,12.85,8.35,14.63c0,0-9.48,2-21-9C645.76,854.7,651.75,849,658.44,849.06Z" fill="#fff"/><circle cx="665.54" cy="850.8" r="4.21" fill="#fff"/><path d="M641.45,847.58s18.31-32.54,49.29-7.14c0,0-30.89-18.35-46.1,9.8Z" fill="#fff"/><path d="M592,812.06s9.91-4,8.81-16.1c0,0,11.09-.58,15.15,2.78C615.94,798.74,599.59,814.74,592,812.06Z" fill="#fff"/><path d="M580.63,797.21S580,810.05,589,811.84c0,0-9.48,2-21-9C568,802.85,573.94,797.11,580.63,797.21Z" fill="#fff"/><circle cx="587.73" cy="798.95" r="4.21" fill="#fff"/><path d="M563.64,795.73s18.31-32.54,49.29-7.14c0,0-30.89-18.35-46.11,9.8Z" fill="#fff"/><path d="M427.17,816.33s9.91-4,8.8-16.1c0,0,11.1-.59,15.15,2.78C451.12,803,434.77,819,427.17,816.33Z" fill="#fff"/><path d="M415.81,801.48a13.77,13.77,0,0,0-4.72.81V813c7.65,4.19,13.07,3.06,13.07,3.06C415.23,814.32,415.81,801.48,415.81,801.48Z" fill="#fff"/><circle cx="422.91" cy="803.22" r="4.21" fill="#fff"/><path d="M411.09,787.36v4.51c15.92-11.56,37,1,37,1C432.16,779.76,419.56,782.06,411.09,787.36Z" fill="#fff"/><path d="M763.74,792.08a51.19,51.19,0,0,0-6.47-.17c1.11,12.08-8.8,16.1-8.8,16.1,4.26,1.51,11.28-2.86,16.62-7C765,800.76,764.08,794.81,763.74,792.08Z" fill="#fff"/><path d="M737.11,793.16s-.58,12.85,8.35,14.63c0,0-9.47,2-21-9C724.43,798.81,730.42,793.06,737.11,793.16Z" fill="#fff"/><circle cx="744.21" cy="794.9" r="4.21" fill="#fff"/><path d="M761.81,779.28c-26.35-14.85-41.68,12.4-41.68,12.4l3.18,2.67c10.59-19.6,28.77-16.67,38.85-13.07C762.05,780.61,761.94,780,761.81,779.28Z" fill="#fff"/><path d="M512.08,868s9.91-4,8.81-16.1c0,0,11.09-.58,15.15,2.78C536,854.67,519.69,870.67,512.08,868Z" fill="#fff"/><path d="M500.73,853.14s-.59,12.84,8.35,14.63c0,0-9.48,2-21-9C488.05,858.78,494,853,500.73,853.14Z" fill="#fff"/><circle cx="507.83" cy="854.88" r="4.21" fill="#fff"/><path d="M483.74,851.66s18.31-32.54,49.29-7.14c0,0-30.89-18.35-46.11,9.8Z" fill="#fff"/><path d="M672.87,982.92s9.91-4,8.81-16.1c0,0,11.09-.58,15.15,2.78C696.83,969.6,680.48,985.6,672.87,982.92Z" fill="#fff"/><path d="M661.52,968.07s-.58,12.84,8.35,14.63c0,0-9.48,2-21-9C648.84,973.71,654.83,968,661.52,968.07Z" fill="#fff"/><circle cx="668.62" cy="969.81" r="4.21" fill="#fff"/><path d="M644.53,966.59s18.31-32.54,49.29-7.14c0,0-30.89-18.35-46.11,9.8Z" fill="#fff"/><path d="M595.06,931.07s9.91-4,8.8-16.1c0,0,11.1-.58,15.16,2.78C619,917.75,602.66,933.75,595.06,931.07Z" fill="#fff"/><path d="M583.71,916.22s-.59,12.84,8.34,14.63c0,0-9.47,2-21-9C571,921.86,577,916.12,583.71,916.22Z" fill="#fff"/><circle cx="590.81" cy="917.96" r="4.21" fill="#fff"/><path d="M566.72,914.74S585,882.19,616,907.6c0,0-30.9-18.35-46.11,9.8Z" fill="#fff"/><path d="M430.24,935.33s9.92-4,8.81-16.1c0,0,11.1-.58,15.15,2.79C454.2,922,437.85,938,430.24,935.33Z" fill="#fff"/><path d="M418.89,920.48a15,15,0,0,0-6.26,1.43v9.23c8.45,5.26,14.61,4,14.61,4C418.31,933.33,418.89,920.48,418.89,920.48Z" fill="#fff"/><circle cx="425.99" cy="922.22" r="4.21" fill="#fff"/><path d="M412.63,907.39v4.7c16.06-13.59,38.57-.23,38.57-.23C434.24,898,421.07,901.41,412.63,907.39Z" fill="#fff"/><path d="M751.54,927s9.92-4,8.81-16.1c0,0,11.1-.58,15.15,2.79C775.5,913.71,759.15,929.7,751.54,927Z" fill="#fff"/><path d="M740.19,912.17s-.58,12.85,8.35,14.63c0,0-9.47,2-21-9C727.51,917.82,733.5,912.07,740.19,912.17Z" fill="#fff"/><circle cx="747.29" cy="913.91" r="4.21" fill="#fff"/><path d="M723.2,910.69s18.31-32.54,49.3-7.14c0,0-30.9-18.35-46.11,9.8Z" fill="#fff"/><path d="M515.16,987s9.91-4,8.81-16.1c0,0,11.09-.58,15.15,2.78C539.12,973.68,522.77,989.68,515.16,987Z" fill="#fff"/><path d="M503.81,972.15s-.59,12.84,8.35,14.63c0,0-9.48,2-21-9C491.13,977.79,497.12,972.05,503.81,972.15Z" fill="#fff"/><circle cx="510.91" cy="973.89" r="4.21" fill="#fff"/><path d="M486.82,970.67s18.31-32.55,49.29-7.14c0,0-30.89-18.35-46.11,9.8Z" fill="#fff"/><path d="M675.7,1092.22s9.91-4,8.81-16.1c0,0,11.09-.58,15.15,2.78C699.66,1078.9,683.31,1094.9,675.7,1092.22Z" fill="#fff"/><path d="M664.35,1077.37s-.59,12.84,8.35,14.63c0,0-9.48,2-21-9C651.67,1083,657.66,1077.27,664.35,1077.37Z" fill="#fff"/><circle cx="671.45" cy="1079.11" r="4.21" fill="#fff"/><path d="M647.36,1075.89s18.31-32.55,49.29-7.14c0,0-30.89-18.35-46.11,9.8Z" fill="#fff"/><path d="M597.88,1040.37s9.92-4,8.81-16.1c0,0,11.1-.58,15.15,2.78C621.84,1027.05,605.49,1043.05,597.88,1040.37Z" fill="#fff"/><path d="M586.53,1025.52s-.58,12.84,8.35,14.63c0,0-9.48,2-21-9C573.85,1031.16,579.84,1025.42,586.53,1025.52Z" fill="#fff"/><circle cx="593.63" cy="1027.26" r="4.21" fill="#fff"/><path d="M569.54,1024s18.31-32.55,49.3-7.14c0,0-30.9-18.35-46.11,9.8Z" fill="#fff"/><path d="M433.07,1044.63s9.92-4,8.81-16.1c0,0,11.1-.58,15.15,2.79C457,1031.32,440.68,1047.31,433.07,1044.63Z" fill="#fff"/><path d="M421.72,1029.78a15.25,15.25,0,0,0-6.54,1.56v8.93c8.59,5.46,14.89,4.14,14.89,4.14C421.14,1042.63,421.72,1029.78,421.72,1029.78Z" fill="#fff"/><circle cx="428.82" cy="1031.52" r="4.21" fill="#fff"/><path d="M415.18,1016.9v4.73c16.07-14,38.84-.47,38.84-.47C436.87,1007.1,423.6,1010.79,415.18,1016.9Z" fill="#fff"/><path d="M754.37,1036.32s9.92-4,8.81-16.1c0,0,11.1-.58,15.15,2.79C778.33,1023,762,1039,754.37,1036.32Z" fill="#fff"/><path d="M743,1021.47s-.58,12.85,8.35,14.63c0,0-9.48,2-21-9C730.34,1027.11,736.33,1021.37,743,1021.47Z" fill="#fff"/><circle cx="750.12" cy="1023.21" r="4.21" fill="#fff"/><path d="M726,1020s18.31-32.54,49.29-7.14c0,0-30.89-18.35-46.1,9.8Z" fill="#fff"/><path d="M600.94,1158.72s9.92-4,8.81-16.1c0,0,11.1-.58,15.15,2.79C624.9,1145.41,608.55,1161.4,600.94,1158.72Z" fill="#fff"/><path d="M589.59,1143.87s-.58,12.85,8.35,14.63c0,0-9.47,2-21-9C576.91,1149.52,582.9,1143.77,589.59,1143.87Z" fill="#fff"/><circle cx="596.69" cy="1145.61" r="4.21" fill="#fff"/><path d="M572.6,1142.39s18.31-32.54,49.3-7.14c0,0-30.9-18.35-46.11,9.81Z" fill="#fff"/><path d="M436.13,1163s9.92-4,8.81-16.1c0,0,11.1-.59,15.15,2.78C460.09,1149.67,443.74,1165.67,436.13,1163Z" fill="#fff"/><path d="M424.78,1148.14s-.58,12.84,8.35,14.62c0,0-9.48,2-21-9C412.1,1153.78,418.09,1148,424.78,1148.14Z" fill="#fff"/><circle cx="431.88" cy="1149.88" r="4.21" fill="#fff"/><path d="M407.79,1146.65s18.31-32.54,49.29-7.14c0,0-30.89-18.35-46.1,9.81Z" fill="#fff"/><path d="M757.43,1154.68s9.92-4,8.81-16.1c0,0,11.1-.59,15.15,2.78C781.39,1141.36,765,1157.36,757.43,1154.68Z" fill="#fff"/><path d="M746.08,1139.83s-.58,12.84,8.35,14.62c0,0-9.48,2-21-9C733.4,1145.47,739.39,1139.72,746.08,1139.83Z" fill="#fff"/><circle cx="753.18" cy="1141.57" r="4.21" fill="#fff"/><path d="M729.09,1138.34s18.31-32.54,49.29-7.14c0,0-30.89-18.35-46.1,9.81Z" fill="#fff"/><path d="M518,1096.3s9.92-4,8.81-16.1c0,0,11.1-.58,15.15,2.78C541.94,1083,525.59,1099,518,1096.3Z" fill="#fff"/><path d="M506.63,1081.45s-.58,12.84,8.35,14.63c0,0-9.47,2-21-9C494,1087.09,499.94,1081.35,506.63,1081.45Z" fill="#fff"/><circle cx="513.73" cy="1083.19" r="4.21" fill="#fff"/><path d="M489.65,1080s18.3-32.55,49.29-7.14c0,0-30.9-18.35-46.11,9.8Z" fill="#fff"/><path d="M663.93,637.13s9.91-4,8.8-16.1c0,0,11.1-.58,15.15,2.78C687.88,623.81,671.53,639.81,663.93,637.13Z" fill="#fff"/><path d="M652.57,622.28s-.58,12.84,8.35,14.63c0,0-9.47,2-21-9C639.89,627.92,645.88,622.18,652.57,622.28Z" fill="#fff"/><circle cx="659.67" cy="624.02" r="4.21" fill="#fff"/><path d="M635.59,620.8s18.3-32.55,49.29-7.14c0,0-30.9-18.35-46.11,9.8Z" fill="#fff"/><path d="M506.21,641.21s9.92-4,8.81-16.1c0,0,11.1-.58,15.15,2.78C530.17,627.89,513.82,643.89,506.21,641.21Z" fill="#fff"/><path d="M494.86,626.36s-.58,12.84,8.35,14.63c0,0-9.47,2-21-9C482.18,632,488.17,626.26,494.86,626.36Z" fill="#fff"/><circle cx="501.96" cy="628.1" r="4.21" fill="#fff"/><path d="M477.87,624.88s18.31-32.55,49.3-7.14c0,0-30.9-18.35-46.11,9.8Z" fill="#fff"/><path d="M821.06,781.07s9.49-4.93,7.26-16.85c0,0,11-1.62,15.35,1.35C843.67,765.57,828.89,783,821.06,781.07Z" fill="#fff"/><path d="M808.37,767.35s.62,12.84,9.68,13.78c0,0-9.25,2.87-21.78-7C796.27,774.16,801.7,767.88,808.37,767.35Z" fill="#fff"/><circle cx="815.6" cy="768.42" r="4.21" fill="#fff"/><path d="M791.31,767.47s15.18-34.12,48.41-11.73c0,0-32.48-15.37-45,14.08Z" fill="#fff"/><path d="M852.34,875.19a44.09,44.09,0,0,0-10.65.18c2.23,11.92-7.26,16.85-7.26,16.85,5,1.26,12.91-5.48,17.91-10.48Z" fill="#fff"/><path d="M821.74,878.5s.62,12.84,9.68,13.78c0,0-9.25,2.87-21.78-7C809.64,885.31,815.06,879,821.74,878.5Z" fill="#fff"/><circle cx="828.97" cy="879.57" r="4.21" fill="#fff"/><path d="M851.49,865.85c-32.12-20.25-46.81,12.77-46.81,12.77L808.1,881c10.85-25.54,36.71-17.37,43.39-14.75Z" fill="#fff"/><path d="M848.64,1010.42s9.5-4.94,7.26-16.85c0,0,11-1.62,15.35,1.35C871.25,994.92,856.47,1012.38,848.64,1010.42Z" fill="#fff"/><path d="M836,996.7s.62,12.84,9.68,13.78c0,0-9.25,2.87-21.78-7C823.85,1003.51,829.28,997.23,836,996.7Z" fill="#fff"/><circle cx="843.18" cy="997.77" r="4.21" fill="#fff"/><path d="M818.9,996.81s15.18-34.11,48.4-11.72c0,0-32.47-15.38-45,14.08Z" fill="#fff"/><path d="M861.7,1119s9.49-4.93,7.26-16.85c0,0,10-1.62,14.34,1.35C883.3,1103.47,869.52,1120.93,861.7,1119Z" fill="#fff"/><path d="M849,1105.25s.62,12.84,9.68,13.78c0,0-9.25,2.87-21.78-7C836.91,1112.06,842.34,1105.78,849,1105.25Z" fill="#fff"/><circle cx="856.24" cy="1106.32" r="4.21" fill="#fff"/><path d="M832,1105.37s15.18-34.12,48.41-11.73c0,0-32.48-15.37-45,14.08Z" fill="#fff"/><path d="M349.08,801.77s10.15-3.39,9.8-15.51c0,0,11.11.11,14.95,3.72C373.83,790,356.51,804.92,349.08,801.77Z" fill="#fff"/><path d="M338.68,786.24S337.3,799,346.1,801.36c0,0-9.58,1.39-20.43-10.29C325.67,791.07,332,785.72,338.68,786.24Z" fill="#fff"/><circle cx="345.66" cy="788.42" r="4.21" fill="#fff"/><path d="M321.82,783.69s20.32-31.33,49.64-4c0,0-29.68-20.25-46.63,6.89Z" fill="#fff"/><path d="M344.69,920.74s10.14-3.4,9.8-15.52c0,0,11.11.12,14.94,3.73C369.43,909,352.11,923.89,344.69,920.74Z" fill="#fff"/><path d="M334.29,905.21S332.9,918,341.7,920.33c0,0-9.58,1.39-20.42-10.29C321.28,910,327.62,904.69,334.29,905.21Z" fill="#fff"/><circle cx="341.27" cy="907.39" r="4.21" fill="#fff"/><path d="M317.43,902.66s20.31-31.33,49.64-4c0,0-29.68-20.26-46.63,6.89Z" fill="#fff"/><path d="M340.65,1030s10.15-3.39,9.8-15.51c0,0,11.11.11,14.95,3.72C365.4,1018.21,348.08,1033.15,340.65,1030Z" fill="#fff"/><path d="M330.25,1014.47s-1.39,12.78,7.42,15.12c0,0-9.58,1.39-20.43-10.29C317.24,1019.3,323.58,1014,330.25,1014.47Z" fill="#fff"/><circle cx="337.23" cy="1016.65" r="4.21" fill="#fff"/><path d="M313.39,1011.92s20.31-31.33,49.64-4c0,0-29.68-20.25-46.63,6.89Z" fill="#fff"/><path d="M336.28,1148.31s10.15-3.39,9.8-15.51c0,0,11.11.11,14.95,3.73C361,1136.53,343.7,1151.47,336.28,1148.31Z" fill="#fff"/><path d="M325.88,1132.78c-4-.31-7.92,1.51-10.38,3v4.42c9.71,8.86,17.8,7.69,17.8,7.69C324.49,1145.56,325.88,1132.78,325.88,1132.78Z" fill="#fff"/><circle cx="332.86" cy="1134.96" r="4.21" fill="#fff"/><path d="M315.18,1123.29v5.46c17.23-20.46,43.48-2.55,43.48-2.55C339,1107.86,323.32,1116,315.18,1123.29Z" fill="#fff"/><path d="M397.86,1270.51s73.26,10.65,150.26,9.72c137.52-1.66,260.86-15.64,260.86-15.64" fill="none" stroke="#636363" stroke-linecap="round" stroke-linejoin="round"/><line x1="869.95" y1="1222.38" x2="869.95" y2="1244.15" fill="none" stroke="#636363" stroke-linecap="round" stroke-linejoin="round" stroke-width="0.65"/><line x1="854.25" y1="1222.43" x2="855.09" y2="1244.1" fill="none" stroke="#636363" stroke-linecap="round" stroke-linejoin="round" stroke-width="0.65"/><line x1="884.87" y1="1222.29" x2="882.97" y2="1244.24" fill="none" stroke="#636363" stroke-linecap="round" stroke-linejoin="round" stroke-width="0.65"/><line x1="839.58" y1="1222.57" x2="842.32" y2="1243.96" fill="none" stroke="#636363" stroke-linecap="round" stroke-linejoin="round" stroke-width="0.65"/><line x1="359.54" y1="1240.84" x2="361.52" y2="1263.28" fill="none" stroke="#636363" stroke-linecap="round" stroke-linejoin="round" stroke-width="0.66"/><line x1="345.18" y1="1241.39" x2="348.23" y2="1263.33" fill="none" stroke="#636363" stroke-linecap="round" stroke-linejoin="round" stroke-width="0.66"/><line x1="330.24" y1="1241.47" x2="334.12" y2="1263.99" fill="none" stroke="#636363" stroke-linecap="round" stroke-linejoin="round" stroke-width="0.66"/><line x1="373.63" y1="1240.8" x2="373.84" y2="1262.98" fill="none" stroke="#636363" stroke-linecap="round" stroke-linejoin="round" stroke-width="0.66"/><line x1="608.67" y1="1245.46" x2="610.45" y2="1271.44" fill="none" stroke="#636363" stroke-linecap="round" stroke-linejoin="round" stroke-width="0.66"/><line x1="628.16" y1="1244.5" x2="629.94" y2="1270.48" fill="none" stroke="#636363" stroke-linecap="round" stroke-linejoin="round" stroke-width="0.66"/><line x1="647.66" y1="1244.12" x2="649.45" y2="1270.1" fill="none" stroke="#636363" stroke-linecap="round" stroke-linejoin="round" stroke-width="0.66"/><line x1="667.17" y1="1243.55" x2="668.95" y2="1269.53" fill="none" stroke="#636363" stroke-linecap="round" stroke-linejoin="round" stroke-width="0.66"/><line x1="686.66" y1="1243.02" x2="688.44" y2="1269" fill="none" stroke="#636363" stroke-linecap="round" stroke-linejoin="round" stroke-width="0.66"/><line x1="706.16" y1="1242.64" x2="707.94" y2="1268.62" fill="none" stroke="#636363" stroke-linecap="round" stroke-linejoin="round" stroke-width="0.66"/><line x1="723.45" y1="1241.53" x2="724.34" y2="1267.51" fill="none" stroke="#636363" stroke-linecap="round" stroke-linejoin="round" stroke-width="0.66"/><line x1="742.05" y1="1238.7" x2="742.05" y2="1266.58" fill="none" stroke="#636363" stroke-linecap="round" stroke-linejoin="round" stroke-width="0.66"/><line x1="472.96" y1="1248.16" x2="473.96" y2="1272.17" fill="none" stroke="#636363" stroke-linecap="round" stroke-linejoin="round" stroke-width="0.66"/><line x1="492.6" y1="1247.37" x2="493.6" y2="1273.31" fill="none" stroke="#636363" stroke-linecap="round" stroke-linejoin="round" stroke-width="0.66"/><line x1="511.67" y1="1248.14" x2="513.46" y2="1274.12" fill="none" stroke="#636363" stroke-linecap="round" stroke-linejoin="round" stroke-width="0.66"/><line x1="530.69" y1="1247.71" x2="532.47" y2="1273.69" fill="none" stroke="#636363" stroke-linecap="round" stroke-linejoin="round" stroke-width="0.66"/><line x1="412.01" y1="1236.5" x2="412.02" y2="1263.56" fill="none" stroke="#636363" stroke-linecap="round" stroke-linejoin="round" stroke-width="0.66"/><line x1="432.07" y1="1241.08" x2="431.57" y2="1268.64" fill="none" stroke="#636363" stroke-linecap="round" stroke-linejoin="round" stroke-width="0.66"/><line x1="452.44" y1="1246" x2="452.44" y2="1271.56" fill="none" stroke="#636363" stroke-linecap="round" stroke-linejoin="round" stroke-width="0.66"/><line x1="550.19" y1="1247.33" x2="551.97" y2="1273.31" fill="none" stroke="#636363" stroke-linecap="round" stroke-linejoin="round" stroke-width="0.66"/><line x1="569.64" y1="1246.46" x2="571.42" y2="1272.44" fill="none" stroke="#636363" stroke-linecap="round" stroke-linejoin="round" stroke-width="0.66"/><line x1="589.24" y1="1245.87" x2="591.02" y2="1271.85" fill="none" stroke="#636363" stroke-linecap="round" stroke-linejoin="round" stroke-width="0.66"/><line x1="761.05" y1="1236.69" x2="761.27" y2="1264.54" fill="none" stroke="#636363" stroke-linecap="round" stroke-linejoin="round" stroke-width="0.66"/><line x1="779.81" y1="1234.17" x2="779.65" y2="1262" fill="none" stroke="#636363" stroke-linecap="round" stroke-linejoin="round" stroke-width="0.66"/><line x1="796.36" y1="1231.93" x2="797.41" y2="1259.79" fill="none" stroke="#636363" stroke-linecap="round" stroke-linejoin="round" stroke-width="0.66"/><path d="M492.85,530.24l0,0S492.86,530.2,492.85,530.24Z" fill="none" stroke="#262521" stroke-miterlimit="10"/><path d="M895.06,1232.79c.82-12.22-12.27-108.53-17.84-189.79-3.84-55.87-22.89-124.63-22.89-124.63s-14.58-307-52.88-331.94c-10.88-7.11-146.29-58.21-146.29-58.21" fill="none" stroke="#262521" stroke-linecap="round" stroke-linejoin="round" stroke-width="3"/><path d="M313.64,1073.14c5.52,68.42-1.88,179.2,14.45,197.93" fill="none" stroke="#262521" stroke-linecap="round" stroke-linejoin="round" stroke-width="3"/><path d="M492.85,530.24c-1,.64-104.44,63.69-148.94,90.5" fill="none" stroke="#262521" stroke-linecap="round" stroke-linejoin="round" stroke-width="3"/></svg>