<svg xmlns="http://www.w3.org/2000/svg" width="1250" height="1550" viewBox="0 0 1250 1550"><path fill="#fff" stroke="#fff" stroke-linecap="round" stroke-linejoin="round" stroke-width="3" d="M414.46 1295.6l34.45 278.43"/><path d="M801.51 1234.76l4.89 66.51s-66.3 16.92-180.1 21.41-225-13.77-225-13.77l1.64-52.93z" fill="#494844" stroke="#262521" stroke-linecap="round" stroke-linejoin="round" stroke-width="3"/><path d="M877.22 1043c-3.84-55.87-22.89-124.63-22.89-124.63s-14.58-307-52.88-331.94c-10.88-7.11-144.61-57.61-144.61-57.61s.48 52.44-79.87 52.44c-65.08 0-85.14-51-85.12-51-1 .65-103.44 63.71-147.94 90.52C299.18 647.69 317.24 945 317.24 945a619.73 619.73 0 00-3.6 128.12c5.52 68.42-1.88 179.2 14.45 197.93l61-1.5s-5.61-14.34-4.66-27c2.28-30.22 5.54-104.26 15.36-135.21S421.2 1019 421.2 1019a263.9 263.9 0 01-4 50.32c-3.6 21.92-28.66 102.79-14.78 133.07-3.34 29.29-5.7 66.94-5.7 66.94s101 22.75 178 21.82c137.52-1.66 234.85-32.7 234.85-32.7s-4.28-35.71-7.33-60.53c3.63-23.36-2.2-83.51-15.91-143 17.07 47.16 40.24 126.63 42.46 162.32 1.63 26.39 2.88 34.36 2.88 34.36h58.1s4.49-6.66 5.3-18.88-12.28-108.46-17.85-189.72z" fill="#cececc" stroke="#262521" stroke-linecap="round" stroke-linejoin="round" stroke-width="3"/><g opacity=".5" fill="none" stroke="#636363" stroke-linecap="round" stroke-linejoin="round" stroke-width="2"><path d="M660.71 541.57l11.93 4.5M576.76 589.72l-.26 14.75M593.74 588.72l.5 14.7M608.79 586.42l2.01 13.25M622.49 581.45l4.19 11.57M634.79 573.49l6.59 10.06M645.13 564.53l9.17 7.22M653.93 553.88l10.83 4.94M493.32 542.34l-12.24 6.96M559.82 588.12l-1.01 14.67M545.35 585.8l-2.52 13.46M531.9 580.54l-4.98 12.36M519.4 574.3l-6.97 9.89M508.31 565.82l-8.92 7.36M499.2 554.39l-10.47 6.6M342.88 1262.56l-2.03-36.8M353.89 1262.3l-1.12-36.28M366.31 1262.3l-2-36.28M379 1262.88l-3.78-36.86M874.64 1209.27l2.12 32.91M862.76 1210.1l1.34 31.74M850.58 1210.1l1.88 33.28M838.21 1210.18v33.2M886.34 1208.77l1.27 34.61M328.23 1226.56l3.93 36.72"/></g><path d="M766.36 807.59s14.88 119.69 16.1 167.27c0 0 .14 64 3.86 80.13M410.64 807.59S422.72 980 421.2 1019" fill="none" stroke="#262521" stroke-linecap="round" stroke-linejoin="round" stroke-width="3"/><g opacity=".5" fill="none" stroke="#636363" stroke-linecap="round" stroke-linejoin="round" stroke-width="2"><path d="M608.67 1245.46l1.78 33.63M628.16 1243.64l1.78 33.63M647.66 1242.01l1.79 33.63M667.67 1241.01l1.78 33.63M688.27 1237.51l1.78 33.63M706.66 1234.54l1.78 33.63M724.45 1232.03l.89 33.62M742.55 1226.37v36.09M472.96 1236.11l1 36.08M492.6 1239.28l1 36.08M512.57 1244.34l1.78 33.63M530.69 1245.46l1.78 33.63M412.01 1221.02l.02 40.13M432.07 1226.94l-.5 38.18M452.44 1233.31v36.09M550.19 1247.22l1.78 33.63M569.64 1247.2l1.78 33.62M589.24 1246.43l1.78 33.63M761.55 1222.26l.22 36.06M778.81 1218.01l.84 36.02M794.86 1215.11l2.55 36.05"/></g></svg>