<svg xmlns="http://www.w3.org/2000/svg" width="1250" height="1550" viewBox="0 0 1250 1550"><title>s06e05-03</title><path d="M406.93-333.5s61.78,24.3,203.69,19.79,192.84-36.18,192.84-36.18L823.57-7.65,664.86-9.5,636-206.11l-25.52,8.67L601.61-1.19,447.67-1.41Z" fill="#fff" stroke="#262521" stroke-linecap="round" stroke-linejoin="round" stroke-width="3"/><path d="M491.85,533.24l0,0S491.86,533.2,491.85,533.24Z" fill="#262521"/><path d="M879.72,1045c-3.84-55.87-22.89-124.63-22.89-124.63s-14.58-307-52.88-331.94c-10.88-7.11-142.29-56.21-142.29-56.21s-2.49,55-82.84,55c-65.09,0-82.1-39.23-86.22-51.38a11.73,11.73,0,0,1-.75-2.59c-1,.64-100.94,62.69-145.44,89.5C301.68,649.69,319.74,947,319.74,947a619.73,619.73,0,0,0-3.6,128.12c5.52,68.42-1.88,179.2,14.45,197.93l61-1.5s-5.61-14.34-4.66-27c2.28-30.22,5.54-104.26,15.36-135.21,4.92-15.48,9.78-37.06,13.91-55.27h.23c-3.88,32.6-26.06,146.08-14.66,171.24,0,13-1.31,46.48-1.31,46.48s73.25,18.65,150.25,17.72c137.52-1.66,260.87-23.64,260.87-23.64s-4.19-33-5-46.63c8.56-14.78.71-77.4-8.3-134.14h.18c15.66,47,30.92,103.57,32.82,134.18,1.63,26.39,2.88,34.36,2.88,34.36h58.1s4.49-6.66,5.3-18.88S885.29,1126.26,879.72,1045Z" fill="#262521"/><path d="M441.51,981.89c5.84,32.16-15.65,178-16.11,197.22-.54,22.38-26.76,28.66-26.76,28.66-5.05-20.41,31.11-156.5,27.58-189.24C425,931.25,424.13,846,421.69,814.82c28.19-87.29-4-228.87-34.89-215.76,24.84-16,55.56-35.16,55.56-35.16,15.24,35.38,45.59,68.71,66.57,101C609.39,819.34,417.31,755.31,441.51,981.89Z" fill="#3a3934"/><path d="M432.51,981.89c5.84,32.16-15.27,178.05-16.11,197.22s-17.91,18.1-17.91,18.1c-5.05-20.4,22.26-145.94,18.73-178.68C416,931.25,415.13,846,412.69,814.82c28.19-87.29-2.54-225.16-33.46-212.05,24.84-16,56.53-34.79,56.53-34.79,15.24,35.38,45.31,63.36,64.17,96.88C600,816.06,408.31,755.31,432.51,981.89Z" fill="#adadad"/><path d="M413.91,843.43c11.38-19.73,45.45-153.3,1.25-262.15A205.31,205.31,0,0,0,379.23,605C406.05,635.37,413.91,843.43,413.91,843.43Z" fill="#878787"/><path d="M413.91,843.43c11.38-19.73,45.45-153.3,1.25-262.15A205.31,205.31,0,0,0,379.23,605C406.05,635.37,413.91,843.43,413.91,843.43Z" fill="#fff" opacity="0.5"/><path d="M413.72,832.34c6.36-15.66,38.63-142.56-4.54-247.69-13.81,7.34-37.29,20.16-49.2,29.87C406.12,648.7,413.72,832.34,413.72,832.34Z" fill="#fff"/><path d="M482,784.83c2.79,0,2.79-4.33,0-4.33s-2.79,4.33,0,4.33Z" fill="#fff"/><path d="M491.59,791.89c2.79,0,2.79-4.33,0-4.33s-2.79,4.33,0,4.33Z" fill="#fff"/><path d="M503.85,781.65c2.78,0,2.79-4.33,0-4.33s-2.79,4.33,0,4.33Z" fill="#fff"/><path d="M492.43,783.16c2.79,0,2.79-4.33,0-4.33s-2.79,4.33,0,4.33Z" fill="#fff"/><path d="M487,775.07c2.79,0,2.79-4.33,0-4.33s-2.79,4.33,0,4.33Z" fill="#fff"/><path d="M505.35,766c2.78,0,2.79-4.33,0-4.33s-2.79,4.33,0,4.33Z" fill="#fff"/><path d="M508.14,774.36c2.79,0,2.79-4.33,0-4.33s-2.79,4.33,0,4.33Z" fill="#fff"/><path d="M493.79,769.78c2.78,0,2.79-4.33,0-4.33s-2.79,4.33,0,4.33Z" fill="#fff"/><path d="M517.14,764.23c2.78,0,2.79-4.33,0-4.33s-2.79,4.33,0,4.33Z" fill="#fff"/><path d="M481.8,803.4c2.78,0,2.79-4.33,0-4.33s-2.8,4.33,0,4.33Z" fill="#fff"/><path d="M470,790.63c2.79,0,2.79-4.33,0-4.33s-2.79,4.33,0,4.33Z" fill="#fff"/><path d="M469,774.16c2.79,0,2.8-4.33,0-4.33s-2.79,4.33,0,4.33Z" fill="#fff"/><path d="M463.45,757.47c2.78,0,2.79-4.33,0-4.33s-2.79,4.33,0,4.33Z" fill="#fff"/><path d="M486.65,764.51c2.79,0,2.79-4.34,0-4.34s-2.79,4.34,0,4.34Z" fill="#fff"/><path d="M491.59,740.18c2.79,0,2.79-4.33,0-4.33s-2.79,4.33,0,4.33Z" fill="#fff"/><path d="M510.18,754.28c2.79,0,2.79-4.33,0-4.33s-2.79,4.33,0,4.33Z" fill="#fff"/><path d="M522.25,735.23c2.79,0,2.79-4.33,0-4.33s-2.79,4.33,0,4.33Z" fill="#fff"/><path d="M465.57,805c2.79,0,2.79-4.33,0-4.33s-2.79,4.33,0,4.33Z" fill="#fff"/><path d="M466.49,817c2.78,0,2.79-4.33,0-4.33s-2.8,4.33,0,4.33Z" fill="#fff"/><path d="M474.32,809.39c2.79,0,2.8-4.33,0-4.33s-2.79,4.33,0,4.33Z" fill="#fff"/><path d="M473.54,800.22c2.78,0,2.79-4.33,0-4.33s-2.79,4.33,0,4.33Z" fill="#fff"/><path d="M447.32,810c2.79,0,2.79-4.33,0-4.33s-2.79,4.33,0,4.33Z" fill="#fff"/><path d="M449.75,828.36c2.79,0,2.8-4.33,0-4.33s-2.79,4.33,0,4.33Z" fill="#fff"/><path d="M431,860c2.78,0,2.79-4.34,0-4.34s-2.8,4.34,0,4.34Z" fill="#fff"/><path d="M442.82,859.5c2.79,0,2.8-4.33,0-4.33s-2.79,4.33,0,4.33Z" fill="#fff"/><path d="M439.77,869.07c2.79,0,2.79-4.33,0-4.33s-2.79,4.33,0,4.33Z" fill="#fff"/><path d="M422.71,870.72c2.78,0,2.79-4.33,0-4.33s-2.79,4.33,0,4.33Z" fill="#fff"/><path d="M431,887.81c2.79,0,2.79-4.33,0-4.33s-2.79,4.33,0,4.33Z" fill="#fff"/><path d="M432,877.77c2.79,0,2.79-4.33,0-4.33s-2.79,4.33,0,4.33Z" fill="#fff"/><path d="M422.11,883.76c2.78,0,2.79-4.33,0-4.33s-2.79,4.33,0,4.33Z" fill="#fff"/><path d="M424.54,909.57c2.78,0,2.79-4.33,0-4.33s-2.8,4.33,0,4.33Z" fill="#fff"/><path d="M424.23,923.43c2.78,0,2.79-4.33,0-4.33s-2.79,4.33,0,4.33Z" fill="#fff"/><path d="M421.27,936.7c2.78,0,2.79-4.33,0-4.33s-2.8,4.33,0,4.33Z" fill="#fff"/><path d="M424.37,955.09c2.79,0,2.79-4.33,0-4.33s-2.79,4.33,0,4.33Z" fill="#fff"/><path d="M422.34,1026.31c2.79,0,2.8-4.33,0-4.33s-2.79,4.33,0,4.33Z" fill="#fff"/><path d="M427.74,1035.68c2.79,0,2.8-4.33,0-4.33s-2.79,4.33,0,4.33Z" fill="#fff"/><path d="M421.81,1050.19c2.79,0,2.79-4.33,0-4.33s-2.79,4.33,0,4.33Z" fill="#fff"/><path d="M424.69,1058.55c2.78,0,2.79-4.33,0-4.33s-2.8,4.33,0,4.33Z" fill="#fff"/><path d="M425.47,1072.63c2.78,0,2.79-4.33,0-4.33s-2.8,4.33,0,4.33Z" fill="#fff"/><path d="M419.63,1066.53c2.78,0,2.79-4.33,0-4.33s-2.79,4.33,0,4.33Z" fill="#fff"/><path d="M423.24,1084.31c2.79,0,2.79-4.33,0-4.33s-2.79,4.33,0,4.33Z" fill="#fff"/><path d="M416.73,1097.13c2.79,0,2.79-4.33,0-4.33s-2.79,4.33,0,4.33Z" fill="#fff"/><path d="M418.28,1123.91c2.79,0,2.79-4.33,0-4.33s-2.79,4.33,0,4.33Z" fill="#fff"/><path d="M424.26,585.52c2.79,0,2.79-4.33,0-4.33s-2.79,4.33,0,4.33Z" fill="#706f6b"/><path d="M431.22,591c2.79,0,2.79-4.33,0-4.33s-2.79,4.33,0,4.33Z" fill="#706f6b"/><path d="M430.62,582.19c2.78,0,2.79-4.33,0-4.33s-2.79,4.33,0,4.33Z" fill="#706f6b"/><path d="M437.54,584.74c2.79,0,2.79-4.34,0-4.34s-2.79,4.34,0,4.34Z" fill="#706f6b"/><path d="M425.28,596.06c2.79,0,2.79-4.33,0-4.33s-2.79,4.33,0,4.33Z" fill="#706f6b"/><path d="M431.27,612.05c2.79,0,2.8-4.33,0-4.33s-2.79,4.33,0,4.33Z" fill="#706f6b"/><path d="M435.87,600.72c2.78,0,2.79-4.33,0-4.33s-2.79,4.33,0,4.33Z" fill="#706f6b"/><path d="M441.86,611.52c2.78,0,2.79-4.33,0-4.33s-2.79,4.33,0,4.33Z" fill="#706f6b"/><path d="M435.68,627c2.79,0,2.79-4.33,0-4.33s-2.79,4.33,0,4.33Z" fill="#706f6b"/><path d="M441.63,848.11c2.79,0,2.8-4.33,0-4.33s-2.79,4.33,0,4.33Z" fill="#706f6b"/><path d="M441.34,837c2.79,0,2.79-4.33,0-4.33s-2.79,4.33,0,4.33Z" fill="#706f6b"/><path d="M448.58,837.11c2.79,0,2.79-4.33,0-4.33s-2.79,4.33,0,4.33Z" fill="#706f6b"/><path d="M449.07,844.81c2.78,0,2.79-4.33,0-4.33s-2.79,4.33,0,4.33Z" fill="#706f6b"/><path d="M446.38,853.11c2.79,0,2.79-4.33,0-4.33s-2.79,4.33,0,4.33Z" fill="#706f6b"/><path d="M455.75,834.13c2.78,0,2.79-4.33,0-4.33s-2.79,4.33,0,4.33Z" fill="#706f6b"/><path d="M458.15,823.78c2.78,0,2.79-4.33,0-4.33s-2.8,4.33,0,4.33Z" fill="#706f6b"/><path d="M465.57,823.78c2.79,0,2.79-4.33,0-4.33s-2.79,4.33,0,4.33Z" fill="#706f6b"/><path d="M448,818c2.79,0,2.79-4.33,0-4.33s-2.79,4.33,0,4.33Z" fill="#706f6b"/><path d="M436.22,821.51c2.79,0,2.79-4.33,0-4.33s-2.79,4.33,0,4.33Z" fill="#706f6b"/><path d="M438.67,809.39c2.79,0,2.79-4.33,0-4.33s-2.79,4.33,0,4.33Z" fill="#706f6b"/><path d="M432.94,800.9c2.79,0,2.79-4.33,0-4.33s-2.79,4.33,0,4.33Z" fill="#706f6b"/><path d="M429.78,819c2.79,0,2.79-4.33,0-4.33s-2.79,4.33,0,4.33Z" fill="#706f6b"/><path d="M426.48,827.62c2.79,0,2.79-4.33,0-4.33s-2.79,4.33,0,4.33Z" fill="#706f6b"/><path d="M434.3,831c2.78,0,2.79-4.33,0-4.33s-2.79,4.33,0,4.33Z" fill="#706f6b"/><path d="M432.5,839.18c2.79,0,2.79-4.33,0-4.33s-2.79,4.33,0,4.33Z" fill="#706f6b"/><path d="M424.57,839.94c2.79,0,2.79-4.33,0-4.33s-2.79,4.33,0,4.33Z" fill="#706f6b"/><path d="M433.1,850.75c2.79,0,2.8-4.33,0-4.33s-2.79,4.33,0,4.33Z" fill="#706f6b"/><path d="M422.11,849.22c2.78,0,2.79-4.33,0-4.33s-2.79,4.33,0,4.33Z" fill="#706f6b"/><path d="M421.3,859.64c2.79,0,2.79-4.33,0-4.33s-2.79,4.33,0,4.33Z" fill="#706f6b"/><path d="M418.2,854.25c2.79,0,2.79-4.33,0-4.33s-2.79,4.33,0,4.33Z" fill="#706f6b"/><path d="M437.21,786.28c2.79,0,2.79-4.34,0-4.34s-2.79,4.34,0,4.34Z" fill="#706f6b"/><path d="M445.22,778.27c2.79,0,2.8-4.33,0-4.33s-2.79,4.33,0,4.33Z" fill="#706f6b"/><path d="M448.69,790.08c2.79,0,2.79-4.33,0-4.33s-2.79,4.33,0,4.33Z" fill="#706f6b"/><path d="M440.8,793.94c2.78,0,2.79-4.33,0-4.33s-2.8,4.33,0,4.33Z" fill="#706f6b"/><path d="M455.57,799.75c2.78,0,2.79-4.33,0-4.33s-2.79,4.33,0,4.33Z" fill="#706f6b"/><path d="M460.81,779.09c2.78,0,2.79-4.33,0-4.33s-2.8,4.33,0,4.33Z" fill="#706f6b"/><path d="M455.75,769.5c2.78,0,2.79-4.33,0-4.33s-2.79,4.33,0,4.33Z" fill="#706f6b"/><path d="M442.42,768c2.79,0,2.79-4.33,0-4.33s-2.79,4.33,0,4.33Z" fill="#706f6b"/><path d="M440.24,745.42c2.79,0,2.8-4.33,0-4.33s-2.79,4.33,0,4.33Z" fill="#706f6b"/><path d="M446,757c2.79,0,2.79-4.33,0-4.33s-2.79,4.33,0,4.33Z" fill="#706f6b"/><path d="M461.08,744.44c2.78,0,2.79-4.33,0-4.33s-2.79,4.33,0,4.33Z" fill="#706f6b"/><path d="M472.43,755c2.78,0,2.79-4.33,0-4.33s-2.79,4.33,0,4.33Z" fill="#706f6b"/><path d="M484.77,751.71c2.79,0,2.79-4.33,0-4.33s-2.79,4.33,0,4.33Z" fill="#706f6b"/><path d="M494,756.5c2.79,0,2.79-4.33,0-4.33s-2.79,4.33,0,4.33Z" fill="#706f6b"/><path d="M478,740.23c2.79,0,2.79-4.33,0-4.33s-2.79,4.33,0,4.33Z" fill="#706f6b"/><path d="M465.57,732.12c2.79,0,2.79-4.33,0-4.33s-2.79,4.33,0,4.33Z" fill="#706f6b"/><path d="M452.54,733.64c2.79,0,2.79-4.33,0-4.33s-2.79,4.33,0,4.33Z" fill="#706f6b"/><path d="M454.5,713.81c2.79,0,2.79-4.33,0-4.33s-2.79,4.33,0,4.33Z" fill="#706f6b"/><path d="M469.28,717c2.79,0,2.79-4.33,0-4.33s-2.79,4.33,0,4.33Z" fill="#706f6b"/><path d="M483.13,724c2.78,0,2.79-4.33,0-4.33s-2.79,4.33,0,4.33Z" fill="#706f6b"/><path d="M476.71,729.76c2.79,0,2.79-4.33,0-4.33s-2.79,4.33,0,4.33Z" fill="#706f6b"/><path d="M470.38,739.15c2.79,0,2.8-4.33,0-4.33s-2.79,4.33,0,4.33Z" fill="#706f6b"/><path d="M499.77,727.79c2.79,0,2.79-4.33,0-4.33s-2.79,4.33,0,4.33Z" fill="#706f6b"/><path d="M506.09,737c2.78,0,2.79-4.33,0-4.33s-2.79,4.33,0,4.33Z" fill="#706f6b"/><path d="M511.17,725.4c2.79,0,2.79-4.33,0-4.33s-2.79,4.33,0,4.33Z" fill="#706f6b"/><path d="M519.81,713.19c2.78,0,2.79-4.33,0-4.33s-2.79,4.33,0,4.33Z" fill="#706f6b"/><path d="M505.5,714.83c2.78,0,2.79-4.33,0-4.33s-2.79,4.33,0,4.33Z" fill="#706f6b"/><path d="M507.53,695.78c2.79,0,2.79-4.33,0-4.33s-2.79,4.33,0,4.33Z" fill="#706f6b"/><path d="M495.4,703.92c2.79,0,2.79-4.33,0-4.33s-2.79,4.33,0,4.33Z" fill="#706f6b"/><path d="M496.12,711.35c2.79,0,2.79-4.33,0-4.33s-2.79,4.33,0,4.33Z" fill="#706f6b"/><path d="M474.32,694.33c2.79,0,2.8-4.33,0-4.33s-2.79,4.33,0,4.33Z" fill="#706f6b"/><path d="M496,681.13c2.79,0,2.79-4.33,0-4.33s-2.79,4.33,0,4.33Z" fill="#706f6b"/><path d="M480,665.1c2.78,0,2.79-4.33,0-4.33s-2.79,4.33,0,4.33Z" fill="#706f6b"/><path d="M483.05,701.76c2.79,0,2.79-4.33,0-4.33s-2.79,4.33,0,4.33Z" fill="#706f6b"/><path d="M421.13,972.59c2.79,0,2.79-4.33,0-4.33s-2.79,4.33,0,4.33Z" fill="#706f6b"/><path d="M424.69,983.88c2.78,0,2.79-4.33,0-4.33s-2.79,4.33,0,4.33Z" fill="#706f6b"/><path d="M423.31,993c2.78,0,2.79-4.33,0-4.33s-2.8,4.33,0,4.33Z" fill="#706f6b"/><path d="M427.91,1004.55c2.79,0,2.8-4.33,0-4.33s-2.79,4.33,0,4.33Z" fill="#706f6b"/><path d="M422.91,1000.58c2.79,0,2.79-4.33,0-4.33s-2.79,4.33,0,4.33Z" fill="#706f6b"/><path d="M429.78,1017c2.79,0,2.79-4.33,0-4.33s-2.79,4.33,0,4.33Z" fill="#706f6b"/><path d="M410.91,1129c2.78,0,2.79-4.33,0-4.33s-2.79,4.33,0,4.33Z" fill="#706f6b"/><path d="M416,1137.5c2.79,0,2.79-4.33,0-4.33s-2.79,4.33,0,4.33Z" fill="#706f6b"/><path d="M415.56,1110.72c2.79,0,2.8-4.33,0-4.33s-2.79,4.33,0,4.33Z" fill="#706f6b"/><path d="M407,1154.58c2.78,0,2.79-4.33,0-4.33s-2.8,4.33,0,4.33Z" fill="#706f6b"/><path d="M409.74,1145.65c2.79,0,2.79-4.33,0-4.33s-2.79,4.33,0,4.33Z" fill="#706f6b"/><path d="M414,1169.33c2.79,0,2.79-4.33,0-4.33s-2.79,4.33,0,4.33Z" fill="#706f6b"/><path d="M406.64,1175.92c2.78,0,2.79-4.33,0-4.33s-2.79,4.33,0,4.33Z" fill="#706f6b"/><path d="M409.35,1187.18c2.79,0,2.8-4.33,0-4.33s-2.79,4.33,0,4.33Z" fill="#706f6b"/><path d="M766.68,991.06c3.56,74.59,14.37,157.49,17.92,190.1,2.73,25,25.49,16.21,25.49,16.21.88-22.34-19-84.81-28.09-156.74-6.19-48.92-7.2-81.13-10.71-122.51,0,0-6.5-51-10.15-99.58-26.55-110-22-253.67,13.15-242.61,0,0-42.34-18.41-71.56-26.56C689.8,589.65,679.64,631,660,668.37,564.79,849.32,754.57,737.28,766.68,991.06Z" fill="#3a3934"/><path d="M775.07,1025.3c9.43,76.79,12.42,115.56,16,148.16,2.73,25,19.55,17,19.55,17,.88-22.34-10-77.91-19.1-149.84-6.19-48.92-7.2-81.13-10.71-122.51,0,0-6.5-51-10.15-99.58-26.55-110-24.39-246.41,10.78-235.35-25.65-16.71-41.82-21.25-71-29.4-12.93,40.28-23.83,76-40.91,114.58-84.12,158.34,59.8,90,99.32,260.46C773.14,947.62,772,1000.27,775.07,1025.3Z" fill="#adadad"/><path d="M773.5,852.77s-40.38-245.16.79-274.34c-13.19-8.59-17.19-10.34-31.72-15.74C684.33,715.1,773.5,852.77,773.5,852.77Z" fill="#878787"/><path d="M773.5,852.77s-40.38-245.16.79-274.34c-13.19-8.59-17.19-10.34-31.72-15.74C684.33,715.1,773.5,852.77,773.5,852.77Z" fill="#fff" opacity="0.5"/><path d="M772.11,839.4c0-2.66-27.27-221.61,26-253.9-13.19-8.59-35-14-49.51-19.39C699.42,680.77,759.56,825.27,772.11,839.4Z" fill="#fff"/><path d="M732.55,792.13c3.06,0,3.07-4.75,0-4.75s-3.06,4.75,0,4.75Z" fill="#fff"/><path d="M742.36,798.66c3,0,3.06-4.75,0-4.75s-3.07,4.75,0,4.75Z" fill="#fff"/><path d="M734.19,805.2c3.06,0,3.06-4.76,0-4.76s-3.07,4.76,0,4.76Z" fill="#fff"/><path d="M745.53,813.34c3.05,0,3.06-4.75,0-4.75s-3.07,4.75,0,4.75Z" fill="#fff"/><path d="M735.39,819.86c3.06,0,3.06-4.75,0-4.75s-3.06,4.75,0,4.75Z" fill="#fff"/><path d="M716.57,801c3,0,3.06-4.76,0-4.76s-3.07,4.76,0,4.76Z" fill="#fff"/><path d="M716.57,821.31c3,0,3.06-4.76,0-4.76s-3.07,4.76,0,4.76Z" fill="#fff"/><path d="M741.91,828.55c3.05,0,3.06-4.76,0-4.76s-3.07,4.76,0,4.76Z" fill="#fff"/><path d="M745.53,842.3c3.05,0,3.06-4.75,0-4.75s-3.07,4.75,0,4.75Z" fill="#fff"/><path d="M752.77,842.3c3.05,0,3.06-4.75,0-4.75s-3.07,4.75,0,4.75Z" fill="#fff"/><path d="M752.77,824.93c3.05,0,3.06-4.76,0-4.76s-3.07,4.76,0,4.76Z" fill="#fff"/><path d="M759.28,835.06c3.06,0,3.07-4.75,0-4.75s-3.06,4.75,0,4.75Z" fill="#fff"/><path d="M747.7,834.34c3.06,0,3.06-4.75,0-4.75s-3.07,4.75,0,4.75Z" fill="#fff"/><path d="M767.07,855.14c3,0,3.06-4.75,0-4.75s-3.07,4.75,0,4.75Z" fill="#fff"/><path d="M750.59,853.89c3.06,0,3.07-4.76,0-4.76s-3.06,4.76,0,4.76Z" fill="#fff"/><path d="M763.62,844.48c3.06,0,3.07-4.76,0-4.76s-3.06,4.76,0,4.76Z" fill="#fff"/><path d="M767.07,869.75c3,0,3.06-4.76,0-4.76s-3.07,4.76,0,4.76Z" fill="#fff"/><path d="M737,848.1c3.06,0,3.06-4.76,0-4.76s-3.06,4.76,0,4.76Z" fill="#fff"/><path d="M733.46,830.19c3.06,0,3.07-4.76,0-4.76s-3.06,4.76,0,4.76Z" fill="#fff"/><path d="M656.3,770.08c3.06,0,3.07-4.76,0-4.76s-3.06,4.76,0,4.76Z" fill="#fff"/><path d="M651.17,752.7c3.06,0,3.06-4.75,0-4.75s-3.07,4.75,0,4.75Z" fill="#fff"/><path d="M672.16,753.43c3.06,0,3.07-4.76,0-4.76s-3.06,4.76,0,4.76Z" fill="#fff"/><path d="M659.85,733.88c3.06,0,3.07-4.76,0-4.76s-3.06,4.76,0,4.76Z" fill="#fff"/><path d="M772.46,916.57c3.06,0,3.06-4.76,0-4.76s-3.07,4.76,0,4.76Z" fill="#fff"/><path d="M776.8,929.6c3.06,0,3.07-4.76,0-4.76s-3.06,4.76,0,4.76Z" fill="#fff"/><path d="M773.18,936.11c3.06,0,3.07-4.75,0-4.75s-3.06,4.75,0,4.75Z" fill="#fff"/><path d="M775.3,954.76c3.06,0,3.07-4.75,0-4.75s-3.06,4.75,0,4.75Z" fill="#fff"/><path d="M781.61,1037.39c3.06,0,3.06-4.76,0-4.76s-3.07,4.76,0,4.76Z" fill="#fff"/><path d="M781.61,1055.52c3.06,0,3.06-4.76,0-4.76s-3.07,4.76,0,4.76Z" fill="#fff"/><path d="M786,1070.72c3.06,0,3.06-4.75,0-4.75s-3.06,4.75,0,4.75Z" fill="#fff"/><path d="M786.45,1091c3.06,0,3.06-4.75,0-4.75s-3.06,4.75,0,4.75Z" fill="#fff"/><path d="M787.58,1102.08c3.06,0,3.06-4.75,0-4.75s-3.06,4.75,0,4.75Z" fill="#fff"/><path d="M790,1116.71c3,0,3.06-4.76,0-4.76s-3.07,4.76,0,4.76Z" fill="#fff"/><path d="M659.86,752.05c3.06,0,3.07-4.75,0-4.75s-3.06,4.75,0,4.75Z" fill="#fff"/><path d="M683.69,764c3.06,0,3.06-4.75,0-4.75s-3.07,4.75,0,4.75Z" fill="#fff"/><path d="M777.64,945.5c3.06,0,3.06-4.75,0-4.75s-3.07,4.75,0,4.75Z" fill="#fff"/><path d="M778.07,962.85c3.06,0,3.06-4.76,0-4.76s-3.06,4.76,0,4.76Z" fill="#fff"/><path d="M793,1106.89c3.06,0,3.07-4.76,0-4.76s-3.06,4.76,0,4.76Z" fill="#fff"/><path d="M796.35,1121.3c3.06,0,3.07-4.76,0-4.76s-3.06,4.76,0,4.76Z" fill="#fff"/><path d="M728.84,773.92c3.06,0,3.06-4.75,0-4.75s-3.07,4.75,0,4.75Z" fill="#706f6b"/><path d="M716.39,765.23c3.06,0,3.07-4.75,0-4.75s-3.06,4.75,0,4.75Z" fill="#706f6b"/><path d="M719,775.93c3.06,0,3.06-4.76,0-4.76s-3.07,4.76,0,4.76Z" fill="#706f6b"/><path d="M724.46,766.44c3.06,0,3.06-4.75,0-4.75s-3.07,4.75,0,4.75Z" fill="#706f6b"/><path d="M725.71,784.91c3,0,3.06-4.75,0-4.75s-3.07,4.75,0,4.75Z" fill="#706f6b"/><path d="M712.23,786.16c3.06,0,3.06-4.76,0-4.76s-3.06,4.76,0,4.76Z" fill="#706f6b"/><path d="M727.2,796.14c3.06,0,3.07-4.75,0-4.75s-3.06,4.75,0,4.75Z" fill="#706f6b"/><path d="M719.22,787.66c3.06,0,3.06-4.76,0-4.76s-3.07,4.76,0,4.76Z" fill="#706f6b"/><path d="M710.73,795.89c3.06,0,3.07-4.75,0-4.75s-3.06,4.75,0,4.75Z" fill="#706f6b"/><path d="M714.23,808.38c3,0,3.06-4.76,0-4.76s-3.07,4.76,0,4.76Z" fill="#706f6b"/><path d="M722.35,568.33c3.06,0,3.07-4.75,0-4.75s-3.06,4.75,0,4.75Z" fill="#706f6b"/><path d="M731.12,569.15c3,0,3.06-4.76,0-4.76s-3.07,4.76,0,4.76Z" fill="#706f6b"/><path d="M726.62,577.17c3.06,0,3.07-4.76,0-4.76s-3.06,4.76,0,4.76Z" fill="#706f6b"/><path d="M733.86,576.08c3.06,0,3.06-4.76,0-4.76s-3.06,4.76,0,4.76Z" fill="#706f6b"/><path d="M715.71,577.51c3.06,0,3.07-4.75,0-4.75s-3.06,4.75,0,4.75Z" fill="#706f6b"/><path d="M716.29,563.6c3.06,0,3.07-4.76,0-4.76s-3.06,4.76,0,4.76Z" fill="#706f6b"/><path d="M721.57,591.13c3.06,0,3.06-4.75,0-4.75s-3.07,4.75,0,4.75Z" fill="#706f6b"/><path d="M729.49,585.08c3.06,0,3.06-4.75,0-4.75s-3.06,4.75,0,4.75Z" fill="#706f6b"/><path d="M720,583.16c3.06,0,3.07-4.75,0-4.75s-3.06,4.75,0,4.75Z" fill="#706f6b"/><path d="M719.46,603.15c3.06,0,3.06-4.76,0-4.76s-3.06,4.76,0,4.76Z" fill="#706f6b"/><path d="M711.75,597.12c3.06,0,3.06-4.75,0-4.75s-3.07,4.75,0,4.75Z" fill="#706f6b"/><path d="M715.14,615c3.06,0,3.07-4.75,0-4.75s-3.06,4.75,0,4.75Z" fill="#706f6b"/><path d="M699.14,616.9c3.06,0,3.06-4.76,0-4.76s-3.06,4.76,0,4.76Z" fill="#706f6b"/><path d="M709,640.89c3.06,0,3.07-4.76,0-4.76s-3.06,4.76,0,4.76Z" fill="#706f6b"/><path d="M686.71,798.66c3.06,0,3.07-4.75,0-4.75s-3.06,4.75,0,4.75Z" fill="#706f6b"/><path d="M673.37,792.11c3.06,0,3.06-4.76,0-4.76s-3.07,4.76,0,4.76Z" fill="#706f6b"/><path d="M688,789.74c3.06,0,3.07-4.76,0-4.76s-3.06,4.76,0,4.76Z" fill="#706f6b"/><path d="M663.9,783.58c3.06,0,3.06-4.75,0-4.75s-3.07,4.75,0,4.75Z" fill="#706f6b"/><path d="M666.27,768.91c3.05,0,3.06-4.76,0-4.76s-3.07,4.76,0,4.76Z" fill="#706f6b"/><path d="M671.47,782.16c3.06,0,3.07-4.75,0-4.75s-3.06,4.75,0,4.75Z" fill="#706f6b"/><path d="M680.47,782.16c3.06,0,3.06-4.75,0-4.75s-3.07,4.75,0,4.75Z" fill="#706f6b"/><path d="M693.25,805.2c3.06,0,3.06-4.76,0-4.76s-3.06,4.76,0,4.76Z" fill="#706f6b"/><path d="M726.86,824.77c3.06,0,3.07-4.75,0-4.75s-3.06,4.75,0,4.75Z" fill="#706f6b"/><path d="M726.39,834.71c3.06,0,3.06-4.75,0-4.75s-3.06,4.75,0,4.75Z" fill="#706f6b"/><path d="M731.6,839.45c3.06,0,3.06-4.76,0-4.76s-3.07,4.76,0,4.76Z" fill="#706f6b"/><path d="M719.84,830.45c3.06,0,3.07-4.75,0-4.75s-3.06,4.75,0,4.75Z" fill="#706f6b"/><path d="M709.3,817.2c3.05,0,3.06-4.76,0-4.76s-3.07,4.76,0,4.76Z" fill="#706f6b"/><path d="M730.65,817.2c3.06,0,3.06-4.76,0-4.76s-3.06,4.76,0,4.76Z" fill="#706f6b"/><path d="M726.39,810.57c3.06,0,3.06-4.76,0-4.76s-3.06,4.76,0,4.76Z" fill="#706f6b"/><path d="M734,811.52c3.06,0,3.07-4.76,0-4.76s-3.06,4.76,0,4.76Z" fill="#706f6b"/><path d="M749.11,863.59c3.06,0,3.07-4.75,0-4.75s-3.06,4.75,0,4.75Z" fill="#706f6b"/><path d="M758.58,860.28c3.06,0,3.07-4.76,0-4.76s-3.06,4.76,0,4.76Z" fill="#706f6b"/><path d="M756.69,869.75c3.06,0,3.06-4.76,0-4.76s-3.07,4.76,0,4.76Z" fill="#706f6b"/><path d="M753.6,876.5c3.06,0,3.06-4.75,0-4.75s-3.06,4.75,0,4.75Z" fill="#706f6b"/><path d="M758.08,888.32c3.06,0,3.07-4.75,0-4.75s-3.06,4.75,0,4.75Z" fill="#706f6b"/><path d="M768.22,879.92c3.06,0,3.07-4.76,0-4.76s-3.06,4.76,0,4.76Z" fill="#706f6b"/><path d="M761.42,878.27c3.06,0,3.07-4.76,0-4.76s-3.06,4.76,0,4.76Z" fill="#706f6b"/><path d="M771.29,888.32c3.06,0,3.06-4.75,0-4.75s-3.06,4.75,0,4.75Z" fill="#706f6b"/><path d="M765.68,896.73c3.06,0,3.07-4.75,0-4.75s-3.06,4.75,0,4.75Z" fill="#706f6b"/><path d="M765.68,905.73c3.06,0,3.07-4.76,0-4.76s-3.06,4.76,0,4.76Z" fill="#706f6b"/><path d="M775.6,973.08c3.06,0,3.07-4.75,0-4.75s-3.06,4.75,0,4.75Z" fill="#706f6b"/><path d="M779.3,980.57c3.06,0,3.06-4.75,0-4.75s-3.07,4.75,0,4.75Z" fill="#706f6b"/><path d="M777.64,998.42c3.06,0,3.06-4.75,0-4.75s-3.07,4.75,0,4.75Z" fill="#706f6b"/><path d="M782.33,1007.24c3.06,0,3.06-4.76,0-4.76s-3.06,4.76,0,4.76Z" fill="#706f6b"/><path d="M797.69,1136.28c3.06,0,3.06-4.76,0-4.76s-3.07,4.76,0,4.76Z" fill="#706f6b"/><path d="M791.05,1129.31c3.05,0,3.06-4.75,0-4.75s-3.07,4.75,0,4.75Z" fill="#706f6b"/><path d="M794.46,1144.85c3,0,3.06-4.76,0-4.76s-3.07,4.76,0,4.76Z" fill="#706f6b"/><path d="M794.08,1158.87c3.06,0,3.06-4.76,0-4.76s-3.07,4.76,0,4.76Z" fill="#706f6b"/><path d="M800.52,1170.23c3.06,0,3.06-4.75,0-4.75s-3.07,4.75,0,4.75Z" fill="#706f6b"/><path d="M799,1182.09c3.06,0,3.06-4.76,0-4.76s-3.07,4.76,0,4.76Z" fill="#706f6b"/><path d="M782.33,1024.35c3.06,0,3.06-4.75,0-4.75s-3.06,4.75,0,4.75Z" fill="#706f6b"/><path d="M735.72,783.36c3.06,0,3.07-4.75,0-4.75s-3.06,4.75,0,4.75Z" fill="#706f6b"/><path d="M722.08,736.38c3.06,0,3.07-4.76,0-4.76s-3.06,4.76,0,4.76Z" fill="#706f6b"/><path d="M709.58,568.9c3.06,0,3.06-4.76,0-4.76s-3.07,4.76,0,4.76Z" fill="#706f6b"/><path d="M706.17,586.71c3.06,0,3.06-4.76,0-4.76s-3.07,4.76,0,4.76Z" fill="#706f6b"/><path d="M722.08,626.87c3.06,0,3.07-4.75,0-4.75s-3.06,4.75,0,4.75Z" fill="#706f6b"/><path d="M413.14,809.59s5.34,199.1,3.82,238.13c-.83,21.49-27.59,151.13-15.28,178.31,0,13-1.32,46.48-1.32,46.48s73.26,18.65,150.26,17.72c137.52-1.66,260.86-23.64,260.86-23.64s-4.18-33-5-46.63c14.5-25-19.76-173.14-21.56-243.1-1.22-47.58-16.1-167.27-16.1-167.27" fill="none" stroke="#262521" stroke-linecap="round" stroke-linejoin="round" stroke-width="3"/><path d="M838.52,1221s30.63-3.83,52.37,0" fill="none" stroke="#636363" stroke-linecap="round" stroke-linejoin="round"/><path d="M327.75,1238.47s30.64-3.84,52.37,0" fill="none" stroke="#636363" stroke-linecap="round" stroke-linejoin="round"/><path d="M416.16,1054.08c-4.13,18.21-9,39.79-13.91,55.27-9.82,31-13.08,105-15.36,135.21-.95,12.67,4.66,27,4.66,27l-61,1.5c-16.33-18.73-8.93-129.51-14.45-197.93A619.73,619.73,0,0,1,319.74,947s-18.06-297.33,26.67-324.28,145.47-89.52,145.47-89.52-.25-.24.72,2.61c4.12,12.15,21.13,51.38,86.21,51.38,80.36,0,82.85-55,82.85-55S793.07,581.32,804,588.43c38.3,25,52.88,331.94,52.88,331.94s19,68.76,22.89,124.63c5.57,81.26,18.66,177.57,17.84,189.79s-5.3,18.88-5.3,18.88h-58.1s-1.25-8-2.88-34.36c-1.9-30.61-17.16-87.16-32.82-134.18" fill="none" stroke="#262521" stroke-linecap="round" stroke-linejoin="round" stroke-width="3"/><path d="M400.42,1271.81s73.25,18.65,150.25,17.72c137.52-1.66,260.87-23.64,260.87-23.64" fill="none" stroke="#636363" stroke-linecap="round" stroke-linejoin="round"/><path d="M413.67,1226s167.06,41.72,378.14-4.33" fill="none" stroke="#636363" stroke-linecap="round" stroke-linejoin="round"/><path d="M480.43,548.4s21.5,56.91,100.81,56.91,94.26-62,94.26-62" fill="none" stroke="#636363" stroke-linecap="round" stroke-linejoin="round"/></svg>