<svg xmlns="http://www.w3.org/2000/svg" xmlns:xlink="http://www.w3.org/1999/xlink" width="1250" height="1550" viewBox="0 0 1250 1550"><defs><pattern id="a" width="13.63" height="8.94" patternTransform="translate(1.03 2.46) scale(2.31)" patternUnits="userSpaceOnUse" viewBox="0 0 13.63 8.94"><rect width="13.63" height="8.94" fill="none"/><rect y="3.42" width="13.63" height="5.51" fill="#fff"/><rect width="13.63" height="3.42" fill="#262521"/></pattern></defs><title>s06e02-03</title><path d="M406.93,1266.5s61.78,24.3,203.69,19.79,192.84-36.18,192.84-36.18l20.11,342.24-158.71-1.85L636,1393.89l-25.52,8.67-8.83,196.25-153.94-.22Z" fill="#fff" stroke="#262521" stroke-linecap="round" stroke-linejoin="round" stroke-width="3"/><path d="M491.85,533.24l0,0S491.86,533.2,491.85,533.24Z" fill="url(#a)"/><path d="M879.72,1045c-3.84-55.87-22.89-124.63-22.89-124.63s-14.58-307-52.88-331.94c-10.88-7.11-142.29-56.21-142.29-56.21s-2.49,55-82.84,55c-65.09,0-82.1-39.23-86.22-51.38a11.73,11.73,0,0,1-.75-2.59c-1,.64-100.94,62.69-145.44,89.5C301.68,649.69,319.74,947,319.74,947a619.73,619.73,0,0,0-3.6,128.12c5.52,68.42-1.88,179.2,14.45,197.93l61-1.5s-5.61-14.34-4.66-27c2.28-30.22,5.54-104.26,15.36-135.21S423.7,1021,423.7,1021c.49,23.68.3,42.22-1,50.32-5.7,34.75-24.42,66.84-18.25,210.71.35,8.28,71,16.39,148,15.46,137.52-1.66,262.16-20.89,262.16-20.89s-11-124-28.81-228c17.22,45.53,43.19,132.78,45.55,170.67,1.63,26.39,2.88,34.36,2.88,34.36h58.1s4.49-6.66,5.3-18.88S885.29,1126.26,879.72,1045Z" fill="url(#a)"/><path d="M676,537.67l-14.34-5.45s-2.49,55-82.85,55c-65.08,0-82.09-39.23-86.21-51.38-1-2.85-.72-2.61-.72-2.61l-11.3,6.95s13.27,60,98,60C668.55,600.13,676,537.67,676,537.67Z" fill="#fff"/><path d="M491.6,535.83c4.12,12.15,21.13,51.38,86.21,51.38,80.36,0,84.73-51.88,84.73-51.88" fill="none" stroke="#262521" stroke-linecap="round" stroke-linejoin="round" stroke-width="5"/><path d="M423.7,1021s-11.62,57.37-21.45,88.33-13.08,105-15.36,135.21c-.95,12.67,4.66,27,4.66,27l-61,1.5c-16.33-18.73-8.93-129.51-14.45-197.93A619.73,619.73,0,0,1,319.74,947s-18.06-297.33,26.67-324.28,145.47-89.52,145.47-89.52-.25-.24.72,2.61c4.12,12.15,21.13,51.38,86.21,51.38,80.36,0,82.85-55,82.85-55S793.07,581.32,804,588.43c38.3,25,52.88,331.94,52.88,331.94s19,68.76,22.89,124.63c5.57,81.26,18.66,177.57,17.84,189.79s-5.3,18.88-5.3,18.88h-58.1s-1.25-8-2.88-34.36c-2.47-39.8-28.48-127.5-45.55-170.67" fill="none" stroke="#262521" stroke-linecap="round" stroke-linejoin="round" stroke-width="3"/><path d="M413.14,809.59s15.23,227,9.53,261.75-24.42,66.84-18.25,210.71c.35,8.28,71,16.39,148,15.46,137.52-1.66,262.16-20.89,262.16-20.89s-15.66-177-40-285.38c-11.86-52.84-5.7-181.65-5.7-181.65" fill="none" stroke="#262521" stroke-linecap="round" stroke-linejoin="round" stroke-width="3"/><path d="M686.64,714.63s-15.73-16.12-28.4-4.55,15.89,52.78,30.34,52.07c11-.55,29.94-23,31.09-38.41S701.23,695.17,686.64,714.63Z" fill="#e5322e"/><path d="M711.81,718.3s-16.34-6.8-20,9.39C691.81,727.69,704.55,735.36,711.81,718.3Z" fill="#fff"/><path d="M683.75,729.05s-1.3-16.51-19.38-9.9C664.37,719.15,663.34,733,683.75,729.05Z" fill="#fff"/><circle cx="674.97" cy="722.64" r="3.95" fill="#262522"/><circle cx="699.71" cy="722.64" r="3.95" fill="#262522"/></svg>