<svg xmlns="http://www.w3.org/2000/svg" width="1000" height="1550" viewBox="0 0 1000 1550"><title>s06e14-04</title><path d="M198.53 1149.21l1.42 16.63s50.18 8.32 57.1 31.27l1.84-41.28zM694.88 1146.34l8.2 44.36s27.95-32.2 50.51-37.17l-1.34-21.2z" fill="#262521"/><path fill="#262521" stroke="#262521" stroke-linecap="round" stroke-linejoin="round" stroke-width="3" d="M279.44 1236.55l1.71 331.51 431.01-8.32-35.97-355.32"/><path fill="#fff" d="M385.78 550.41l66.95 173.6 53.54-179.98-120.49 6.38z"/><path d="M752.23 1043c-3.83-55.86-22.88-124.63-22.88-124.63s-14.59-306.94-52.89-331.94l-.27-.16h.14l-.82-.38c-13.14-7.25-97.58-39.25-127.72-50.59l-6.1-2.36c-8.71-13.69-27-20.79-27-20.79S516 562 483.86 576.5l-22.44 33.41-9.13 87.52-12-75.83L417 579.92c-32.2-14.07-36.28-62.87-36.28-62.87s-14.95 5.4-24.84 19.11c-8.14 5.1-21.17 13.45-41.42 26.05-29.82 18.44-66.44 41-90.57 55.6-2.38 1.38-4.12 2.34-5.06 2.8h.48l-.35.22c-44.73 26.94-26.68 324.27-26.68 324.27a619.79 619.79 0 0 0-3.6 128.12c.41 5 1 19.82 1.65 39.33h83.63a36.4 36.4 0 0 1 .84-5.12c9.83-31 21.45-88.33 21.45-88.33l359.5 21.08c4.42 11.17 14.57 56.42 24.44 102.94h79.17c-3.2-43.68-6.19-86.48-7.13-100.12z" fill="#fff" stroke="#262521" stroke-linecap="round" stroke-linejoin="round" stroke-width="3"/><path d="M285.65 807.63s10.24 227 4.54 261.76-14.38 172.8-14.38 172.8c61-6.12 92.16 65.11 201.48 65.43s151.55-81.83 206.72-94.44c0 0-12.62-115.56-36.93-223.9-11.86-52.84-5.7-181.65-5.7-181.65" fill="#fff" stroke="#262521" stroke-linecap="round" stroke-linejoin="round" stroke-width="3"/><path d="M452.29 701s6.15 440.64 9.33 484.88c.07 1 .15 2.07.23 3.13" fill="none" stroke="#636363" stroke-linecap="round" stroke-linejoin="round"/><circle cx="470.94" cy="630.02" r="5.3" fill="#fffbf8" stroke="#636363" stroke-miterlimit="10"/><circle cx="464.23" cy="702.74" r="5.3" fill="#fffbf8" stroke="#636363" stroke-miterlimit="10"/><circle cx="466.14" cy="783.63" r="5.3" fill="#fffbf8" stroke="#636363" stroke-miterlimit="10"/><circle cx="468.06" cy="868.95" r="5.3" fill="#fffbf8" stroke="#636363" stroke-miterlimit="10"/><circle cx="469.84" cy="948.99" r="5.3" fill="#fffbf8" stroke="#636363" stroke-miterlimit="10"/><circle cx="471.34" cy="1038.51" r="5.3" fill="#fffbf8" stroke="#636363" stroke-miterlimit="10"/><circle cx="473.65" cy="1134.33" r="5.3" fill="#fffbf8" stroke="#636363" stroke-miterlimit="10"/><path d="M457.07 1316.09l5.18-122.37s13.66 114 16.7 123.62-21.88-1.25-21.88-1.25zM404.66 579.67s1.79 118.17 4.82 132.18 2.82 87.49-.67 87.87-27.78 3.41-28.9 0 1.16-80.67 5.33-87.11 7.42-123.12 7.42-123.12zM503.21 589.11s-1 121.21-4.07 135.22-2.82 87.49.68 87.87 27.78 3.41 28.89 0-1.16-80.67-5.33-87.11-7.1-138.64-7.1-138.64z" fill="#262521" stroke="#262521" stroke-linecap="round" stroke-linejoin="round" stroke-width="3"/><path d="M413.87 584.78l-41.42 39.94s-15.77-69.68-14.71-84M488 580l41.21 40.27s16.06-56.82 13.31-81.18" fill="#fff" stroke="#636363" stroke-linecap="round" stroke-linejoin="round"/><path d="M672.53 1109s74-25.78 86.74-27 20.42 0 20.42 0-10.89 11.89-10 24.37 14.1 29.75.91 35.65-78.78 22.63-88.85 23.79-9.22-56.81-9.22-56.81zM276 1111.83c-6.41-9.66-78-15.45-90.72-14.71s-20.19 3.07-20.19 3.07 12.55 10.11 13.53 22.58-9.46 31.54 4.47 35.39 76.75 9.64 86.88 9.27 12.44-45.95 6.03-55.6z" fill="#fff" stroke="#262521" stroke-linecap="round" stroke-linejoin="round" stroke-width="3"/></svg>