<svg xmlns="http://www.w3.org/2000/svg" width="1000" height="1550" viewBox="0 0 1000 1550"><path d="M424.26 173.25c-2.92-6.41-9.7-10.56-12.13-17.17l4.24 4.19a13.44 13.44 0 00-2.65-8.76 3 3 0 013.66.38l-3.5-9a8.4 8.4 0 014.39 3.27 99.51 99.51 0 01-5.93-15.2c-.26-.89-.47-2 .17-2.63a39.29 39.29 0 019.58 5.18l.73-4.93a2 2 0 01.57-1.33c.39-.3 1.14-.08 1.1.41l.5-6.36a2 2 0 002.33-1l3.15 4.59c1.4-4.79 2.86-9.7 5.85-13.69l1.62 7.27c.09.42.27.94.7 1a1.08 1.08 0 00.82-.3l3.6-2.56a44.1 44.1 0 01-1.43 13.67 17.94 17.94 0 005.88-1.94 9.17 9.17 0 01-.71 4.74l2.92-.64a2.4 2.4 0 011.19-.05 1.79 1.79 0 01.94.86c1 1.74.3 3.93-.56 5.73a32.87 32.87 0 01-5.52 8.13q4.07.32 8.15.23c-.78.91-2.1 1.07-3.22 1.49s-2.28 1.53-1.85 2.65c.27.69 1 1 1.64 1.46s1.2 1.18.86 1.85c-.56 1.11-2.72.34-3.24 1.47a7.76 7.76 0 013.11 3.42c.51 1.48-.3 3.5-1.86 3.61-.76.06-1.85-.15-2 .59a2 2 0 00.21 1c.45 1.58-1.42 2.79-3 3.26a26.39 26.39 0 01-9.1 1" fill="#f743d5"/><path d="M424.9 172.87c-3-6.37-9.52-10.36-12-17l-1.26.73 4.24 4.19a.76.76 0 001.28-.53 14.52 14.52 0 00-2.75-9.14l-.27 1a2.29 2.29 0 012.75.26c.51.45 1.55 0 1.25-.73l-3.5-9-.92.92a7.85 7.85 0 013.94 2.93.75.75 0 001.29-.75 100.592 100.592 0 01-5.15-12.8c-.37-1.14-1.42-3.2-.6-4.28l-.85.34a40.73 40.73 0 019.4 5.1.76.76 0 001.11-.44l.47-3.2c.07-.5.14-1 .22-1.48a6.7 6.7 0 00.26-1.17c.16.88 1.41.59 1.47-.2l.5-6.36-.95.72a2.88 2.88 0 003.17-1.33h-1.29l3.15 4.6a.76.76 0 001.37-.18c1.39-4.73 2.83-9.49 5.78-13.51l-1.37-.18 1.08 4.84c.23 1 .28 2.55 1 3.43a1.48 1.48 0 001.94.33 34 34 0 003.85-2.73l-1.13-.65a44.65 44.65 0 01-1.4 13.47.76.76 0 00.92.92 19.93 19.93 0 006.06-2l-1.13-.65a9.39 9.39 0 01-.68 4.54c-.24.57.42 1 .92.93.8-.18 1.62-.42 2.43-.54s1.32-.26 1.77.36a2.62 2.62 0 01.33.91c.31 1.58-.49 3.27-1.17 4.64a33.13 33.13 0 01-5.12 7.4.76.76 0 00.53 1.28q4.07.3 8.15.23l-.53-1.28c-1.08 1.1-2.82 1-4.05 1.91a2.66 2.66 0 00-1.17 3 2.87 2.87 0 001 1.19 10.55 10.55 0 01.89.59.83.83 0 01.36 1.08 2.22 2.22 0 01-.37.09c-1 .45-1.91.07-2.58 1.16a.77.77 0 00.26 1c1.37 1 4.27 3.4 2.32 5.26-1 .92-3.23-.21-3.47 1.71-.14 1.1.64 1.7-.43 2.62a7.38 7.38 0 01-3.14 1.26 26.29 26.29 0 01-7.56.62c-1-.06-1 1.44 0 1.5a26.12 26.12 0 009.3-1 6.22 6.22 0 002.92-1.75 2.94 2.94 0 00.6-1.13c.15-.53-.12-1-.07-1.46.07-.63.72-.42 1.26-.48a2.75 2.75 0 001.3-.49 3.58 3.58 0 001.31-2.29c.4-2.54-1.75-4.29-3.58-5.64l.27 1c.44-.7 2.12-.38 2.82-1a1.87 1.87 0 00.07-2.67 5.27 5.27 0 00-1.33-1.06c-1.09-.76-.67-1.79.42-2.32 1.29-.63 2.65-.67 3.72-1.75a.76.76 0 00-.54-1.28q-4.08.08-8.15-.23l.53 1.28c2.68-2.94 5.47-6.65 6.51-10.56.42-1.56.45-3.49-.72-4.76-1.36-1.47-3.86-.32-5.49 0l.92.92a10.31 10.31 0 00.74-4.94.76.76 0 00-1.13-.65 18.45 18.45 0 01-5.7 1.87l.93.92a46.31 46.31 0 001.45-13.87.76.76 0 00-1.13-.65l-2.8 2c-.1.07-.88.75-1.05.73s-.3-1-.33-1.16l-1.52-6.38a.76.76 0 00-1.37-.18c-3 4.12-4.52 9-5.94 13.87l1.37-.18L428 120a.75.75 0 00-1.29 0 1.36 1.36 0 01-1.48.64.76.76 0 00-.95.72l-.5 6.36 1.47-.2a1.46 1.46 0 00-2.61-.46 5 5 0 00-.65 2.37l-.58 3.94 1.1-.45a42 42 0 00-9.76-5.26.77.77 0 00-.84.35c-.84 1.1-.48 2.44-.11 3.65.51 1.72 1.08 3.42 1.69 5.1a106.27 106.27 0 004.17 9.84l1.29-.75a9.53 9.53 0 00-4.83-3.62.76.76 0 00-.93.92l3.51 9 1.25-.73a3.83 3.83 0 00-4.56-.49.74.74 0 00-.27 1 13.26 13.26 0 012.54 8.38l1.28-.53-4.24-4.19c-.5-.5-1.53 0-1.25.73 2.58 6.79 9.15 10.85 12.2 17.35.41.87 1.7.11 1.29-.76z" fill="#dd009f"/><path d="M464.2 225.15l9.26 4.78-.5-10.62s13.71-13.92-2.69-12" fill="none" stroke="#cecece" stroke-linecap="round" stroke-linejoin="round" stroke-width="4"/><path d="M469.63 209.11c17.29-4.45 1.6 17.65.1 1.21M470 210.56c.64-.17 1.29-.31 1.94-.42l.49-.07-.4.05c.39-.05.78-.09 1.17-.11s.69 0 1 0h.51-.4a5.09 5.09 0 011 .23l.24.09-.36-.15a3.1 3.1 0 01.57.3l.13.1-.3-.23a2.4 2.4 0 01.45.45l-.23-.3a2.17 2.17 0 01.31.53l-.15-.36a3.24 3.24 0 01.16.53.88.88 0 010 .16v-.4a4.24 4.24 0 010 .71v.21l.06-.4a4.79 4.79 0 01-.25 1c0 .09-.07.19-.11.28l.15-.36a3.77 3.77 0 01-.28.57 3.87 3.87 0 01-.34.55c-.06.1-.14.2-.21.3l.23-.3a5.58 5.58 0 01-.39.46c-.14.15-.28.28-.43.42l-.26.21.31-.24a4 4 0 01-.76.48l-.22.1.36-.15a2.77 2.77 0 01-.62.19h-.18l.4-.05a2.83 2.83 0 01-.5 0h-.15l.4.06a2.38 2.38 0 01-.58-.16l.36.15a2.06 2.06 0 01-.55-.33l.3.24a3.12 3.12 0 01-.45-.44l-.13-.15.24.31a5.42 5.42 0 01-.54-.89c0-.09-.09-.19-.13-.3l.15.36a9.12 9.12 0 01-.35-1 10.73 10.73 0 01-.28-1.22c0-.27-.09-.53-.13-.79l.06.4c0-.3-.07-.59-.1-.89a1.72 1.72 0 00-.44-1.06 1.24 1.24 0 00-.48-.31 1.27 1.27 0 00-.58-.13l-.4.06a1.57 1.57 0 00-.66.38l-.24.31a1.5 1.5 0 00-.2.75 21.58 21.58 0 00.37 2.54 10.43 10.43 0 00.49 1.65 7 7 0 00.77 1.52 5.23 5.23 0 00.59.73 5.1 5.1 0 00.67.56 3.26 3.26 0 00.4.24 4.14 4.14 0 00.76.3 4.41 4.41 0 00.81.13 2 2 0 00.42 0 4.28 4.28 0 001.24-.26 6.23 6.23 0 001.18-.6c.24-.17.46-.34.69-.53s.25-.22.36-.34a7.7 7.7 0 00.9-1.08 5.94 5.94 0 00.53-.87 8.5 8.5 0 00.36-.82 3.75 3.75 0 00.17-.47 6.63 6.63 0 00.24-1.33 5 5 0 00-.1-1.28 3.31 3.31 0 00-.06-.38 4.91 4.91 0 00-.33-.74 4.09 4.09 0 00-.5-.66 2.5 2.5 0 00-.33-.32 5.2 5.2 0 00-.72-.51l-.24-.12a6.5 6.5 0 00-.61-.25 6.42 6.42 0 00-1.67-.33 9.43 9.43 0 00-1.68 0 20.87 20.87 0 00-2.48.36l-1.17.27a1.14 1.14 0 00-.51.27 1.34 1.34 0 00-.57 1 1.22 1.22 0 000 .6l.15.36a1.45 1.45 0 00.54.53l.36.16a1.51 1.51 0 00.79 0z" fill="#dd009f"/><path d="M398.66 228.45l-6.49 3.35-2.27-9.19s-13.71-13.92 2.69-12" fill="none" stroke="#cecece" stroke-linecap="round" stroke-linejoin="round" stroke-width="4"/><path fill="#fff" d="M693.35 1536.17h-71.72l-5.36-52.61h74.2l2.88 52.61z"/><path d="M390.34 212.57c-2.21-.51-4.76.53-4.34 3.18.65 4.15 10 7.28 8.55.72-.07-1.7-.81-4.18-2.9-4" fill="#dd009f"/><path d="M390.74 211.13a6 6 0 00-4.19.48 4.07 4.07 0 00-2.09 3.67 6.43 6.43 0 003.15 5 7.85 7.85 0 005 1.47 3.91 3.91 0 002.55-1.17 4.2 4.2 0 001-2.92 7.75 7.75 0 00-.11-1.08v-.33V215.94a8 8 0 00-.48-2.1 4 4 0 00-3.87-2.84 1.5 1.5 0 000 3 2.32 2.32 0 00.37 0c.18 0-.28-.08-.11 0h.14l.18.06s-.24-.16-.15-.06a.29.29 0 00.12.07c.25.13-.15-.15-.05 0l.23.22c.18.17-.14-.25 0 0l.18.29.09.18c.1.19 0-.05 0-.09.12.1.18.53.22.68s.1.49.15.74 0-.15 0-.16a1.37 1.37 0 000 .19v.33c0 .11.06.42.1.63a.77.77 0 010 .15v-.09a5.83 5.83 0 000 .59 2.44 2.44 0 010 .27v.11c0 .26.06-.3 0-.16s-.07.3-.11.44.16-.3.05-.11-.07.14-.11.2-.19.27 0 0l-.14.12c-.07.09.21-.15.2-.15l-.11.08c-.08 0-.46.23-.18.11l-.22.05h-.75c-.07 0-.36-.05-.06 0h-.06l-.27-.05a7 7 0 01-1-.31c-.13-.05-.32-.19.06 0l-.2-.09a5.28 5.28 0 01-.53-.27 9.9 9.9 0 01-.87-.56c-.17-.12.29.24 0 0l-.17-.14c-.14-.12-.28-.26-.41-.39s-.21-.23-.31-.35.17.26 0 .06l-.16-.22c-.08-.13-.16-.27-.23-.41s-.15-.33 0-.05 0 0 0-.1a3 3 0 01-.13-.52c.06.32 0-.06 0-.18V215c0-.34 0 0 0 0l.11-.38s-.15.28-.06.14.07-.14.11-.2.1-.15.1-.16-.23.25-.07.09a1.63 1.63 0 00.27-.25s-.31.2-.09.07l.16-.1a2 2 0 00.33-.17c0 .09-.29.1-.09 0l.19-.06.43-.1h-.15H389.64a1.21 1.21 0 01.31.06 1.53 1.53 0 001.85-1.05 1.52 1.52 0 00-1.05-1.84z" fill="#dd009f"/><path d="M276.89 1235.47l399.72-12.35 20.21 242.27c-209.14 38.46-397.55 3.9-397.55 3.9z" fill="#262521" stroke="#262521" stroke-linecap="round" stroke-linejoin="round" stroke-width="3"/><path fill="#fff" d="M697.02 1596.18H581.1l-5.36-52.61h118.39l2.89 52.61z"/><path fill="none" stroke="#262521" stroke-linecap="round" stroke-linejoin="round" stroke-width="3" d="M675.98 1248.13l20.1 342.24"/><path d="M752.23 1043c-3.83-55.86-22.88-124.63-22.88-124.63S725.9 845.9 718 768.49c-8.39-81.85-529.15-37.75-529.31 45.74-.12 69.48 3.6 130.83 3.6 130.83a619.79 619.79 0 00-3.6 128.12c5.53 68.42-1.88 179.21 14.45 197.94l61-1.5s-5.6-14.34-4.65-27c2.27-30.22 5.53-104.26 15.36-135.22s21.45-88.31 21.45-88.33c.49 23.68 378.83 95.41 365.11 36 17.07 47.17 40.25 126.64 42.46 162.33 1.64 26.39 2.89 34.36 2.89 34.36h58.1s4.48-6.67 5.3-18.88-12.35-108.57-17.93-189.88z" fill="#262521" stroke="#262521" stroke-linecap="round" stroke-linejoin="round" stroke-width="3"/><path fill="none" stroke="#fff" stroke-miterlimit="10" stroke-width="3" d="M221.74 902.5l-32.51-1.37M221.28 970.58l-32.5-1.36M218.81 1033.75l-32.5-1.36M222.13 1106.72l-32.5-1.36"/><path d="M188.65 814.23c-.12 69.48 3.6 130.83 3.6 130.83a619.79 619.79 0 00-3.6 128.12c5.53 68.42-1.88 179.21 14.45 197.94" fill="none" stroke="#262521" stroke-linecap="round" stroke-linejoin="round" stroke-width="3"/><path fill="none" stroke="#fff" stroke-miterlimit="10" stroke-width="3" d="M695.38 889.37l31.89-6.42M705 956.91l31.89-6.42M716.32 1019.14l31.89-6.42M723.46 1092.03l31.89-6.42"/><path d="M770.08 1232.84c.81-12.22-12.27-108.53-17.85-189.8-3.83-55.86-22.88-124.63-22.88-124.63S725.9 845.9 718 768.49" fill="none" stroke="#262521" stroke-linecap="round" stroke-linejoin="round" stroke-width="3"/><path d="M711 1219s30.63-3.84 52.36 0M200.27 1236.51s30.63-3.83 52.37 0" fill="none" stroke="#636363" stroke-linecap="round" stroke-linejoin="round"/><path d="M365.17 531.78h0s.01-.03 0 0zM638.21 849.66c58.38 11.41 118.48-39.9 118.48-39.9s-68.23-217.63-79.93-223.29-142.29-56.2-142.29-56.2-2.49 55-82.84 55c-65.08 0-81.6-38.73-85.71-50.88a10.64 10.64 0 01-.75-2.59c-1.05.66-134.29 83.37-145.94 89-2.17 1-15.49 16.93-15.81 45.23h0c-15.72 64.39-38.08 172.81-38.08 172.81s103.21 50.5 123.26 10.34h0l4.1 7.63-20 406s91.48 29 210.72 25 195.84-40.69 195.84-40.69l-41.05-397.46z" fill="#262521" stroke="#262521" stroke-linecap="round" stroke-linejoin="round" stroke-width="3"/><path d="M165.32 838.79s103.21 50.5 123.26 10.34h0l4.1 7.63-20 406s91.48 29 210.72 25 195.84-40.69 195.84-40.69l-41.03-397.41h0c58.38 11.41 118.48-39.9 118.48-39.9M203.42 666" fill="none" stroke="#636363" stroke-linecap="round" stroke-linejoin="round"/><path d="M345.24 703l.89 26.7-7 .23-.89-26.7zM357.62 702.56l.19 5.72a5.26 5.26 0 01-.35 2.34 5.89 5.89 0 01-1.24 2 7.08 7.08 0 01-2 1.43 8.2 8.2 0 01-2.53.78l-.09-2.47a3.88 3.88 0 002.26-1.52 4.14 4.14 0 00.55-2.36l-2.93.1-.19-5.76zM373.51 702l8 18.11h.09l6.4-18.59 9.81-.33.89 26.7-6.52.22-.63-18.92h-.09l-7.14 19.18-5.37.18-8.39-18.48h-.09l.63 18.73-6.53.22-.89-26.7zM422.29 720.54a4.52 4.52 0 001.58 1.46 7.24 7.24 0 002.27.79 12.5 12.5 0 002.68.19 16.55 16.55 0 002-.2 7.83 7.83 0 002-.57 4.37 4.37 0 001.52-1.08 2.28 2.28 0 00.56-1.68 2.12 2.12 0 00-.88-1.73 6.77 6.77 0 00-2.19-1.05 24.66 24.66 0 00-3-.69c-1.13-.18-2.28-.39-3.44-.63s-2.36-.48-3.5-.8a13.23 13.23 0 01-3.06-1.3 7 7 0 01-2.22-2.08 5.65 5.65 0 01-.93-3.1 6.1 6.1 0 01.92-3.6 8.72 8.72 0 012.65-2.62 13 13 0 013.77-1.62 19.23 19.23 0 014.24-.63 24.27 24.27 0 014.79.31 13.1 13.1 0 014.11 1.38 8.36 8.36 0 012.91 2.58 7.14 7.14 0 011.17 3.91l-6.75.22a4.07 4.07 0 00-.66-2 3.6 3.6 0 00-1.4-1.19 6.35 6.35 0 00-1.95-.57 13.93 13.93 0 00-2.38-.11 9.65 9.65 0 00-1.68.21 5.14 5.14 0 00-1.51.57 3.61 3.61 0 00-1.1 1 2.16 2.16 0 00-.4 1.43 2.08 2.08 0 00.4 1.26 3 3 0 001.43.85 19.59 19.59 0 002.91.73c1.23.23 2.85.53 4.85.88.59.09 1.42.24 2.48.47a12.47 12.47 0 013.17 1.14 8.78 8.78 0 012.76 2.21 5.78 5.78 0 011.26 3.65 7.07 7.07 0 01-.73 3.43 7.68 7.68 0 01-2.42 2.79 12.93 12.93 0 01-4.07 1.92 22.73 22.73 0 01-5.68.82 23.28 23.28 0 01-5.1-.37 14 14 0 01-4.41-1.55 9 9 0 01-3.09-2.86 7.71 7.71 0 01-1.21-4.23l6.75-.22a4.3 4.3 0 00.58 2.28zM442.78 704.66l-.17-4.94 26-.87.16 4.94-9.5.32.73 21.76-7 .23-.72-21.76zM496.34 722.61q-3.51 2.76-9.85 3t-10.05-2.28q-3.62-2.5-3.8-8l-.56-16.6 7-.24.56 16.61a10 10 0 00.29 2.12 4 4 0 001 1.82 5.15 5.15 0 002 1.24 9.28 9.28 0 003.41.39q3.74-.12 5.11-1.57a6 6 0 001.27-4.44l-.56-16.6 7-.24.56 16.61c.07 3.62-1.04 6.35-3.38 8.18zM519.4 697.15a15.86 15.86 0 015.08.56 9.69 9.69 0 013.46 1.82 7.2 7.2 0 012 2.66 8.64 8.64 0 01.7 3.16 8.53 8.53 0 01-.49 3.18 7.07 7.07 0 01-1.82 2.81 9.52 9.52 0 01-3.33 2 15 15 0 01-5 .9l-7.33.25.32 9.57-7 .23-.9-26.7zm-1.49 12.63a16.92 16.92 0 002.3-.22 6 6 0 001.93-.65 3.4 3.4 0 001.32-1.26 4.4 4.4 0 00-.14-4.11 3.47 3.47 0 00-1.4-1.17 6.12 6.12 0 00-2-.52 17.51 17.51 0 00-2.31-.07l-5.42.18.27 8zM541.68 696.41l.89 26.7-7 .23-.89-26.7zM561.47 695.75a19 19 0 015.73.63 12.84 12.84 0 014.66 2.32 11.3 11.3 0 013.15 4 14.21 14.21 0 011.28 5.76 15.59 15.59 0 01-.71 5.41 11.19 11.19 0 01-2.54 4.35 12.67 12.67 0 01-4.39 3 17.71 17.71 0 01-6.29 1.24l-13.67.45-.89-26.69zm.24 21.78a10.59 10.59 0 002.92-.51 6.82 6.82 0 002.48-1.45 6.74 6.74 0 001.69-2.57 9.34 9.34 0 00.54-3.76 13 13 0 00-.59-3.63 6.71 6.71 0 00-1.62-2.73 7 7 0 00-2.88-1.69 13.14 13.14 0 00-4.35-.47l-5 .17.57 16.83z" fill="#fff" stroke="#fff" stroke-linecap="round" stroke-miterlimit="10" stroke-width="1.89"/><path d="M203.29 673a108.81 108.81 0 003.49 21M638.21 849.63l-1.63-12.87 10.17-28.49M241 696.25s12.17 87.67 26.55 114.4l24.8 46.09" fill="none" stroke="#636363" stroke-linecap="round" stroke-linejoin="round"/><path d="M642 700.68S625.86 782.15 629.32 807c2.52 18.07 5.39 21.3 7.26 29.77M688.88 647.07s6.82-23.29-2.08-41.13" fill="none" stroke="#636363" stroke-linecap="round" stroke-linejoin="round"/><path d="M358.45 274.9s75.18-76.35 158.56-4.11" fill="none" stroke="#dd009f" stroke-linecap="round" stroke-miterlimit="10" stroke-width="2"/><path d="M360.43 279.8s62.68-68.6 152.24-8.69" fill="none" stroke="#cecece" stroke-linecap="round" stroke-miterlimit="10" stroke-width="2"/><path d="M389.85 196.44s-22-5.4-20.86 14.44c.87 15.2 18.79 19.94 18.79 19.94l1.15 3s-16.4 12.39-23.35 24.08" fill="none" stroke="#cecece" stroke-linecap="round" stroke-linejoin="round" stroke-width="4"/><path d="M379.1 240.56s.08-14.06-5.24-18.5-19.48-6.26-16.86 7.74c2.31 12.42 11.32 9.43 11.32 9.43l1.89 3 1.72 7.2" fill="none" stroke="#cecece" stroke-linecap="round" stroke-linejoin="round" stroke-width="4"/><path d="M362.62 238.83s-7.55-2.16-7.83-3.44-3.79 3.45-2.79 10.08a12.42 12.42 0 002.34 6c2 2.55 5.46 3.82 11.06 4" fill="none" stroke="#cecece" stroke-linecap="round" stroke-miterlimit="10" stroke-width="4"/><path d="M356 269l-2.46-2s4.67-2.95 4.12-6.33-5-5.34-5-5.34l2.41-2.57M466.66 189.89s27.52-9.68 25 15.57c-1.51 15.16-15.76 22.42-15.76 22.42l-.72 3.1s18 9.93 26.54 20.51" fill="none" stroke="#cecece" stroke-linecap="round" stroke-linejoin="round" stroke-width="4"/><path d="M485.87 236.28s-2.08-13.91 2.54-19.06 19.06-10.71 17.82 5.26c-1 12.6-9.86 11-9.86 11l-1.45 3.26-.67 7.38" fill="none" stroke="#cecece" stroke-linecap="round" stroke-linejoin="round" stroke-width="4"/><path d="M502.38 231.74s6.72-2.72 6.81-4 4.3 2.86 4.2 9.57a12.6 12.6 0 01-1.46 6.28c-1.66 2.81-4.87 4.56-10.38 5.52" fill="none" stroke="#cecece" stroke-linecap="round" stroke-miterlimit="10" stroke-width="4"/><path d="M512.79 261.15l2.14-2.39s-5-2.25-5-5.67 4.17-6 4.17-6l-2.75-2.2" fill="none" stroke="#cecece" stroke-linecap="round" stroke-linejoin="round" stroke-width="3"/><path d="M385.83 236.74s5.46 8.45 8.64 6.17 5.8-4.64 5.8-4.64l1.36 3.25M418.3 230.71s.32 4.3 4.57 3.8a16.7 16.7 0 016.72.34M450.7 232s4.35 8.43 14.27 1.55" fill="none" stroke="#cecece" stroke-linecap="round" stroke-linejoin="round" stroke-width="4"/><path d="M402 171.76s-9.91-3.67-16.21 3L386 181l1.61-.05 1.39 17.22-2.43.4 1.62 6.43a9.65 9.65 0 005.2.73l.7 5s-3.72 3.94-.5 7.57l.59 2.38 2.72-.09s.27 8.52.4 12.18 13.57 5.06 16.53.1l17.58-3.46 1.07 7.35s18.83-1.21 20.16-11.32c0 0 8.49 12.44 18.27-1.41l-4-4.56s8.58-3.41 1.3-16.69l6.84-.22 1.1-10.66-7.88-.13.11-2.89 6.42-.21-.16-9.3h1.73l-.06-10.46-21.41-1.68-.17 1.22s-6.29-6.27-19.95-3.52l.07 2.24-12.49-.36.09 2.76s-3.35-2.27-5.28-2.21-14.84.68-14.84.68z" fill="#262521"/><path fill="none" stroke="#dd009f" stroke-miterlimit="10" stroke-width="3.5" d="M392.75 175.66l1.27 24.68M389.85 175.75s10.78-2.79 11.54 3.11-8 8.79-8 8.79 9.79-3.1 9.3 4.92-11.33 9.08-11.33 9.08M410.74 172.29l-.26 26.56M406.64 198.97l7.77-.25M407.34 171.7s10.55-1.56 13.26 4.1-9.88 13.12-9.88 13.12"/><path fill="none" stroke="#dd009f" stroke-miterlimit="10" stroke-width="3.5" d="M417.66 196.44l3.26-2.2-6.9-7.57M426.43 170.56l7.14.18M430.2 170.64l-.81 27.59M425.38 198.89l7.63.18M438 168.79s13.89-2.82 15.17 8c1.37 11.62 3.09 17-10.94 18.29l-.83-25.74M459.09 171.33l12.78.89.09 2.95M462.16 172.27l-.08 24.9M458.34 197.29l13.05.54.28-2.45M462.53 183.88l7.56.15.6-1.85M398.23 206.51l7.41-.63M402 206.75s-1.25 23.6 1 24.46 5.81-.19 5.81-.19M396.74 214.7l9.87-1.98M419.3 207.11c3.9.1 5.51 6.07 4.2 11.88s-2.93 8.78-6.67 8.9-5.91-4.6-4.29-12.5 4.36-8.34 6.76-8.28zM437.54 204.29l1.74 26.16M434.25 204.4s12.76-3.4 13 3.82-8.85 8.61-8.85 8.61 9.51-2.17 9.7 3.59-1 8.43-11.56 10.44M455.35 213.86l11 .47s1.81-9-3.61-9.88-8.49 3.54-6.57 14.45 9.68 4.2 9.68 4.2"/><path d="M361 240.94c-8 .15-4.14 12.52 2.74 11.47 2.73.32 3.24-3.68 3.54-5.7.39-3.24-3.11-5.08-5.71-6" fill="#dd009f"/><path d="M361 239.44c-2.66.07-5.1 1.45-5.77 4.16a8.68 8.68 0 001.49 6.85 7.65 7.65 0 006.53 3.52l.58-.07c.64-.05-.2 0 .1 0h.25a3.77 3.77 0 001.47-.38 4.19 4.19 0 001.7-1.64 11 11 0 001.28-4.17 6.72 6.72 0 000-3 6.27 6.27 0 00-1.58-2.61 13.65 13.65 0 00-5.07-2.93 1.5 1.5 0 10-.8 2.89 11.66 11.66 0 011.62.7c.31.16.62.33.92.51l.44.29.18.13c-.16-.11 0 0 .1.09a6 6 0 01.68.65c.06.07.13.14.18.21s-.11-.16 0 0 .2.32.29.48a1.62 1.62 0 01.1.18c-.11-.23 0 0 0 0l.12.4c.08.26 0 .11 0 0a1.49 1.49 0 010 .21v.7c0 .05 0 .27-.07.4 0 .31-.1.61-.16.91a14.88 14.88 0 01-.48 1.77c-.09.27.08-.14-.05.11a2.75 2.75 0 01-.2.38c-.07.12-.14.24-.22.35.18-.26-.07 0-.14.13s.2-.12-.08.06.13 0-.09.06-.3.05-.05 0h-.5c-.16 0-.73.07-.22 0h-.9c-.18 0-.36-.05-.06 0l-.69-.15-.33-.11-.14-.05c-.26-.09.19.11 0 0s-.39-.2-.57-.31l-.29-.18-.12-.09c-.28-.18.17.15 0 0a7.72 7.72 0 01-1-1c-.11-.13-.21-.28-.05-.05l-.21-.29c-.14-.21-.27-.42-.39-.64s-.2-.39-.3-.59.06.2 0-.06-.1-.24-.14-.37a8.47 8.47 0 01-.32-1.32c.05.28 0 .16 0 0v-.33-.64c0-.22.08-.34 0 0 0-.11 0-.24.06-.35s.14-.44.21-.66c-.09.29-.07.16 0 0l.18-.29c.18-.3-.13.12 0 0l.23-.25.26-.23c-.22.21-.1.08.07 0l.28-.16.17-.08c.15-.08-.26.07-.09 0s.54-.16.81-.22-.2 0 .17 0h.55c1.92-.05 1.93-3.05 0-3zM508.45 233.35c-3.18-1.81-5.83 1.15-8.54 2.2-2.52 1.76-2.53 6.77-.88 9.17 3.36 2.62 9.92-.26 10.58-4.4 0 0 2.02-5.17-1.16-6.97z" fill="#dd009f"/><path d="M509.3 231.9a6.54 6.54 0 00-6.14 0c-.84.39-1.62.88-2.42 1.34-.34.19-.69.39-1.05.56l-.28.13H499.26a3.88 3.88 0 00-.83.58c-2.54 2.21-2.73 6.66-1.54 9.59a4.26 4.26 0 001.81 2.32 6.34 6.34 0 002.2.77 9.31 9.31 0 005-.67 9.79 9.79 0 003.94-2.94 7.33 7.33 0 001.19-2.2c.1-.31.15-.64.26-1 1-2.95 1-6.83-2-8.61a1.72 1.72 0 00-2.3.6 1.7 1.7 0 00.61 2.29c.11.07.45.36.19.12.12.11.23.24.35.35-.27-.25 0 0 .08.14l.12.21c.18.32-.09-.32 0 0 0 .15.09.3.13.45s.07.6 0 .14v1a3.55 3.55 0 010 .46v.22c0 .23.06-.34 0-.12s-.1.56-.17.84-.2.74-.31 1.11l-.06.14c0 .16-.06.32-.1.48s-.05.16-.07.23-.14.38-.05.15-.09.18-.12.24-.17.29-.26.43-.34.45-.11.17c-.14.17-.28.33-.43.48a4.27 4.27 0 01-.38.36c-.08.08-.48.38-.17.16-.31.22-.63.43-1 .62l-.48.25-.25.11c-.22.11.26-.08 0 0s-.72.25-1.09.35l-.66.13c.4-.08-.14 0-.27 0H502c-.13 0-.76-.09-.31 0-.37-.07-.72-.18-1.08-.28.32.09.16.08.06 0l-.32-.17a4.52 4.52 0 01-.51-.34l.6.6a5.66 5.66 0 01-.44-.69c.18.4 0-.13-.07-.21l-.15-.52-.09-.41c0-.07-.11-.67-.06-.25a10.92 10.92 0 01-.07-1.15c0-.33 0-.67.06-1 0 .42 0-.18.05-.26a5.29 5.29 0 01.13-.54c.05-.18.11-.35.16-.52.14-.41-.15.27 0-.1.09-.15.16-.31.25-.46s.4-.49.11-.18c.11-.12.22-.25.34-.36l.19-.16c-.53.28-.53.29 0 .05.34-.14.66-.3 1-.47.72-.38 1.41-.82 2.12-1.21l.57-.3c.05 0 .63-.27.33-.15a7.23 7.23 0 011-.32c.2 0 .2 0 0 0h.63a2.7 2.7 0 011.05.35 1.67 1.67 0 101.69-2.89z" fill="#dd009f"/><path d="M360 242.66l.39-.09h.13a.34.34 0 00.14 0H361.96h-.08.16l.39.09.35.11.16.06.14.06a4.68 4.68 0 01.71.44c-.12-.09.07.07.1.09l.17.16a4.48 4.48 0 01.36.4c-.06-.07.08.11.11.15s.12.18.17.27.22.39.32.59a.75.75 0 001 .27.77.77 0 00.27-1 5.44 5.44 0 00-3.15-2.91 6.22 6.22 0 00-3-.2 5.41 5.41 0 00-.55.12c-.92.28-.52 1.73.4 1.45zM508.32 234.8a9.31 9.31 0 01-.72 5.87.75.75 0 001.29.75 10.48 10.48 0 00.93-6.62.78.78 0 00-.75-.75.76.76 0 00-.75.75z" fill="#fff" opacity=".5"/><path d="M382.39 196.62a1.5 1.5 0 000-3 1.5 1.5 0 000 3zM369.1 206.18a1.5 1.5 0 000-3 1.5 1.5 0 000 3zM375.59 223.65a1.5 1.5 0 000-3 1.5 1.5 0 000 3zM362.17 220.58a1.5 1.5 0 000-3 1.5 1.5 0 000 3zM379.46 240.94a1.5 1.5 0 000-3 1.5 1.5 0 000 3zM365.41 257.77a1.5 1.5 0 000-3 1.5 1.5 0 000 3zM396.57 243.73a1.5 1.5 0 000-3 1.5 1.5 0 000 3zM395.13 230.22a1.5 1.5 0 000-3 1.5 1.5 0 000 3zM391.53 234.72a1.5 1.5 0 000-3 1.5 1.5 0 000 3zM457.89 236.25a1.5 1.5 0 000-3 1.5 1.5 0 000 3zM477.25 229a1.5 1.5 0 000-3 1.5 1.5 0 000 3zM487.61 225.09a1.5 1.5 0 000-3 1.5 1.5 0 000 3zM492.29 202.13a1.5 1.5 0 000-3 1.5 1.5 0 000 3zM483.37 190.24a1.5 1.5 0 000-3 1.5 1.5 0 000 3zM478.33 209.06a1.5 1.5 0 000-3 1.5 1.5 0 000 3zM505.35 227.34a1.5 1.5 0 000-3 1.5 1.5 0 000 3zM507 221.31a1.5 1.5 0 000-3 1.5 1.5 0 000 3zM513.36 234.72a1.5 1.5 0 000-3 1.5 1.5 0 000 3zM492.83 244.81a1.5 1.5 0 000-3 1.5 1.5 0 000 3zM509.85 251.11a1.5 1.5 0 000-3 1.5 1.5 0 000 3zM352.2 240.39a.75.75 0 000-1.5.75.75 0 000 1.5zM353.61 243.59a.75.75 0 000-1.5.75.75 0 000 1.5zM351 244.79a.75.75 0 000-1.5.75.75 0 000 1.5zM354.72 249a.75.75 0 000-1.5.75.75 0 000 1.5zM358.66 237.43a.75.75 0 000-1.5.75.75 0 000 1.5zM358.14 229.56a.75.75 0 000-1.5.75.75 0 000 1.5zM356.52 226.05a.75.75 0 000-1.5.75.75 0 000 1.5zM376.54 227.17a.75.75 0 000-1.5.75.75 0 000 1.5zM383.47 228.79a.75.75 0 000-1.5.75.75 0 000 1.5zM385.52 238.63a.75.75 0 000-1.5.75.75 0 000 1.5zM388.77 238.89a.75.75 0 000-1.5.75.75 0 000 1.5zM389.45 243.42a.75.75 0 000-1.5.75.75 0 000 1.5zM383.21 241.88a.75.75 0 000-1.5.75.75 0 000 1.5zM376 245.65a.75.75 0 000-1.5.75.75 0 000 1.5zM376.36 248a.75.75 0 000-1.5.75.75 0 000 1.5zM390.82 226.14a.75.75 0 000-1.5.75.75 0 000 1.5zM388.68 224.43a.75.75 0 000-1.5.75.75 0 000 1.5zM386.72 220.32a.75.75 0 000-1.5.75.75 0 000 1.5zM375.34 197.22a.75.75 0 000-1.5.75.75 0 000 1.5zM378.25 194.57a.75.75 0 000-1.5.75.75 0 000 1.5zM380.39 199.19a.75.75 0 000-1.5.75.75 0 000 1.5zM369.78 202.44a.75.75 0 000-1.5.75.75 0 000 1.5zM371.15 212.88a.75.75 0 000-1.5.75.75 0 000 1.5zM477.74 189.61a.75.75 0 000-1.5.75.75 0 000 1.5zM489.8 193.72a.75.75 0 000-1.5.75.75 0 000 1.5zM493.06 197a.75.75 0 000-1.5.75.75 0 000 1.5zM489 206.55a.75.75 0 000-1.5.75.75 0 000 1.5zM493.23 208.34a.75.75 0 000-1.5.75.75 0 000 1.5zM491.52 212.37a.75.75 0 000-1.5.75.75 0 000 1.5zM488.61 213.05a.75.75 0 000-1.5.75.75 0 000 1.5zM488.44 218.78a.75.75 0 000-1.5.75.75 0 000 1.5zM474.32 220.84a.75.75 0 000-1.5.75.75 0 000 1.5zM472.18 226.05a.75.75 0 000-1.5.75.75 0 000 1.5zM481.08 224.26a.75.75 0 000-1.5.75.75 0 000 1.5zM486 229.65a.75.75 0 000-1.5.75.75 0 000 1.5zM477.06 233a.75.75 0 000-1.5.75.75 0 000 1.5zM482.28 233.5a.75.75 0 000-1.5.75.75 0 000 1.5zM482.53 237.18a.75.75 0 000-1.5.75.75 0 000 1.5zM464.57 234.27a.75.75 0 000-1.5.75.75 0 000 1.5zM453 234.27a.75.75 0 000-1.5.75.75 0 000 1.5zM426.5 233.5a.75.75 0 000-1.5.75.75 0 000 1.5zM422.48 234.78a.75.75 0 000-1.5.75.75 0 000 1.5zM401.26 239.91a.75.75 0 000-1.5.75.75 0 000 1.5zM489.46 239.31a.75.75 0 000-1.5.75.75 0 000 1.5zM497.33 234a.75.75 0 000-1.5.75.75 0 000 1.5zM503.32 232a.75.75 0 000-1.5.75.75 0 000 1.5zM502.47 229.56a.75.75 0 000-1.5.75.75 0 000 1.5zM503.84 217.5a.75.75 0 000-1.5.75.75 0 000 1.5zM500.93 213a.75.75 0 000-1.5.75.75 0 000 1.5zM507.6 223.4a.75.75 0 000-1.5.75.75 0 000 1.5zM510.51 229.56a.75.75 0 000-1.5.75.75 0 000 1.5zM512.56 229.56a.75.75 0 000-1.5.75.75 0 000 1.5zM514.1 242.65a.75.75 0 000-1.5.75.75 0 000 1.5zM512.05 245.65a.75.75 0 000-1.5.75.75 0 000 1.5zM513.42 247.18a.75.75 0 000-1.5.75.75 0 000 1.5zM511.11 253.17a.75.75 0 000-1.5.75.75 0 000 1.5zM514.87 258.39a.75.75 0 000-1.5.75.75 0 000 1.5z" fill="#fff"/></svg>