<svg xmlns="http://www.w3.org/2000/svg" width="1250" height="1550" viewBox="0 0 1250 1550"><title>s06e05-02</title><path d="M587,1172q-4,45.55-5.75,91.24-1.62,41.74-1.37,83.53.12,21.69.75,43.38c.11,3.85,6.11,3.87,6,0q-1.14-39.57-.62-79.16.57-43.49,3.16-86.93Q590.76,1198,593,1172a3,3,0,0,0-3-3,3.06,3.06,0,0,0-3,3Z" fill="#d8d0ad"/><path d="M582.66,1374.48a1.93,1.93,0,0,1,.34.11l-.72-.31a2.07,2.07,0,0,1,.45.27l-.61-.47a2.52,2.52,0,0,1,.4.4l-.47-.6a2.17,2.17,0,0,1,.33.57l-.3-.72a3.2,3.2,0,0,1,.19.69l-.11-.8a2.43,2.43,0,0,1,0,.66l.11-.8a2.64,2.64,0,0,1-.15.55l.3-.72a2.75,2.75,0,0,1-.24.41l.47-.6a2.73,2.73,0,0,1-.35.33l.61-.46a2.38,2.38,0,0,1-.44.25l.71-.3a2.74,2.74,0,0,1-.58.15l.8-.11a2.83,2.83,0,0,1-.65,0l.8.11a3,3,0,0,1-.72-.2l.72.3a2.7,2.7,0,0,1-.52-.3l.61.47a2.46,2.46,0,0,1-.4-.39l.47.61a2.75,2.75,0,0,1-.24-.41l.31.72a1.94,1.94,0,0,1-.14-.51l.1.79a2.1,2.1,0,0,1,0-.5l-.11.8a2.38,2.38,0,0,1,.16-.58l-.3.72a2.66,2.66,0,0,1,.33-.57l-.47.6a3.48,3.48,0,0,1,.47-.47l-.61.47a2.77,2.77,0,0,1,.57-.34l-.72.31a2.46,2.46,0,0,1,.53-.15l-.8.11a2.18,2.18,0,0,1,.51,0l-.8-.1.15,0a2.23,2.23,0,0,0,1.2,0,2.11,2.11,0,0,0,1.11-.35,2.42,2.42,0,0,0,.85-.77,2.27,2.27,0,0,0,.53-1,3,3,0,0,0-.3-2.32,3,3,0,0,0-1.79-1.37,5.67,5.67,0,0,0-1.15-.15,6.13,6.13,0,0,0-1.15.13,2.79,2.79,0,0,0-.39.1,8,8,0,0,0-1,.45,4,4,0,0,0-.34.23,7.67,7.67,0,0,0-.89.73,5.52,5.52,0,0,0-.91,1.23,7.09,7.09,0,0,0-.43,1,1.89,1.89,0,0,0-.1.41,5.41,5.41,0,0,0,0,2.3,3.61,3.61,0,0,0,.26.69,3.66,3.66,0,0,0,.32.66,4.88,4.88,0,0,0,.9,1.08,5.66,5.66,0,0,0,1.16.79,5.46,5.46,0,0,0,1.35.49,6.42,6.42,0,0,0,1.45.13,5.36,5.36,0,0,0,1.42-.25,8.7,8.7,0,0,0,1-.43,6.75,6.75,0,0,0,.85-.64,1.42,1.42,0,0,0,.25-.24,6.06,6.06,0,0,0,.65-.86,4.36,4.36,0,0,0,.55-1.34,5.86,5.86,0,0,0,.15-1.45,5.62,5.62,0,0,0-.93-2.91,6.35,6.35,0,0,0-.7-.87,8.44,8.44,0,0,0-.88-.7,4,4,0,0,0-1.41-.6,3.15,3.15,0,0,0-2.31.3,2.33,2.33,0,0,0-.85.77,2.27,2.27,0,0,0-.53,1,3,3,0,0,0,2.09,3.69Z" fill="#d8d0ad"/><path d="M598.05,1165.05q.83,42.67.59,85.37-.24,42.45-1.53,84.87-.74,24-1.79,47.89a3,3,0,0,0,6,0q1.89-42.65,2.72-85.33.83-42.43.6-84.87-.12-24-.59-47.93c-.08-3.86-6.08-3.87-6,0Z" fill="#d8d0ad"/><path d="M598,1353.91a11,11,0,0,0-1.63,4.89,5.81,5.81,0,0,0,2,4.52,5.15,5.15,0,0,0,3.18,1.26,4.5,4.5,0,0,0,2.4-.64,5.16,5.16,0,0,0,2.37-3.46,6.36,6.36,0,0,0-.67-4.38,6.82,6.82,0,0,0-4-2.86,13.08,13.08,0,0,0-4.09-.39,7.23,7.23,0,0,0-4.36,1.26,4,4,0,0,0,.29,6.66,5.46,5.46,0,0,0,5.42,0,3,3,0,0,0,1.08-4.1,3.07,3.07,0,0,0-4.11-1.08l-.24.12.72-.3a3.47,3.47,0,0,1-.72.19l.8-.11a3.53,3.53,0,0,1-.65,0l.8.11a2.93,2.93,0,0,1-.51-.13l.72.31a1.9,1.9,0,0,1-.34-.2l.6.47-.16-.16.47.6a1.22,1.22,0,0,1-.12-.19l.3.72a1.57,1.57,0,0,1-.08-.31l.11.8a1.31,1.31,0,0,1,0-.28l-.11.8a1.82,1.82,0,0,1,.07-.25l-.3.72.13-.23-.47.61a1.88,1.88,0,0,1,.24-.25l-.61.47a2.5,2.5,0,0,1,.5-.29l-.72.31a3.79,3.79,0,0,1,1-.27l-.8.11a12.88,12.88,0,0,1,3.34,0l-.8-.1a6.9,6.9,0,0,1,1.62.42l-.72-.3a4.65,4.65,0,0,1,.91.54l-.61-.47a2.9,2.9,0,0,1,.5.49l-.47-.61a2.59,2.59,0,0,1,.34.58l-.3-.71a3.11,3.11,0,0,1,.2.74l-.11-.8a3.7,3.7,0,0,1,0,.94l.11-.8a3.47,3.47,0,0,1-.19.72l.3-.72a2.29,2.29,0,0,1-.31.55l.47-.61a1.57,1.57,0,0,1-.31.32l.61-.46a2.08,2.08,0,0,1-.38.22l.71-.3a2.47,2.47,0,0,1-.36.11l.79-.11a2.35,2.35,0,0,1-.53,0l.79.11-.4-.11.72.3a2.85,2.85,0,0,1-.45-.25l.61.46a2.67,2.67,0,0,1-.45-.44l.47.61a3.3,3.3,0,0,1-.39-.65l.3.71a3.49,3.49,0,0,1-.23-.84l.11.8a4.31,4.31,0,0,1,0-.88l-.1.8a6.11,6.11,0,0,1,.42-1.46l-.3.72c.23-.52.49-1,.76-1.51a3,3,0,1,0-5.18-3Z" fill="#d8d0ad"/><path d="M799.91,1366.16S820.35,1366,820,1376s12.48,114.23,10.43,123-26.25,36.9-26.25,36.9Z" fill="#262521" stroke="#262521" stroke-linecap="round" stroke-linejoin="round" stroke-width="3"/><path d="M430.21,1378.63s-14.57,1.35-17.07,13-6.14,114.6,0,125.53,47.07,12.23,47.07,12.23Z" fill="#262521" stroke="#262521" stroke-linecap="round" stroke-linejoin="round" stroke-width="3"/><path d="M491.85,533.24l0,0S491.86,533.2,491.85,533.24Z" fill="#262521" stroke="#262521" stroke-linecap="round" stroke-linejoin="round" stroke-width="3"/><path d="M879.72,1045c-3.84-55.87-22.89-124.63-22.89-124.63s-14.58-307-52.88-331.94c-10.88-7.11-142.29-56.21-142.29-56.21s-2.49,55-82.85,55c-65.08,0-82.09-39.23-86.21-51.38a11.73,11.73,0,0,1-.75-2.59c-1,.64-100.94,62.69-145.44,89.5C301.68,649.69,319.74,947,319.74,947a619.73,619.73,0,0,0-3.6,128.12c5.52,68.42-1.88,179.2,14.45,197.93l61-1.5s-5.61-14.34-4.66-27c2.28-30.22,5.54-104.26,15.36-135.21S423.7,1021,423.7,1021c.49,23.68.46,42.25-1,50.32-15.74,85.28-16.73,252.52-16.73,252.52s120.51,9.19,197.51,8.27c137.52-1.66,211.82-24.72,211.82-24.72s-12.74-191-26.45-250.42c17.07,47.16,40.24,126.63,42.46,162.32,1.63,26.39,2.88,34.36,2.88,34.36h58.1s4.49-6.66,5.3-18.88S885.29,1126.26,879.72,1045Z" fill="#262521" stroke="#262521" stroke-linecap="round" stroke-linejoin="round" stroke-width="3"/><path d="M405.94,1323.86s120.51,9.19,197.51,8.27c137.52-1.66,211.82-24.72,211.82-24.72" fill="none" stroke="#636363" stroke-linecap="round" stroke-linejoin="round"/><path d="M500.51,733.35c-36.25,15.38-87.37,19.31-87.37,19.31-1.46,3-.88,33.38-.61,74.28.23,35.55,10.89,165.41,11.17,194.08.75,76.68-25.2,176-17.27,240.78,2.51,20.5-6.61,80.07,2.19,78.88,14.94,2.47,59.49-12.25,59.49-12.25s32.21,12.53,40.62,12.25c16.18-.54,11-12.66,11-18.08-1.45-20,7.25-213.9-9.33-377.24C498.25,825.56,501.24,733.38,500.51,733.35Z" fill="#3a3934" stroke="#262521" stroke-miterlimit="10" stroke-width="3"/><g opacity="0.1"><path d="M505.16,1226.3c-1.39,4.34-2.3,8.86-3.33,13.3-2.09,9-4.19,18.13-8,26.61a58.68,58.68,0,0,1-3.17,6.16,26.8,26.8,0,0,1-3.88,5.34c-2.89,2.94-6.56,4.88-10.14,6.86a44.92,44.92,0,0,0-5,3.13,10,10,0,0,0-3.72,4.32,15.27,15.27,0,0,0-.65,5.9c.07,2.11.26,4.21.3,6.32.74-.19,1.48-.39,2.21-.63,7.79-2.55,14.46-7.81,19.8-13.92a62.3,62.3,0,0,0,12-20.37c2.3-6.7,3.48-13.71,4.87-20.63,1.35-6.68,2.87-13.42,5.92-19.56,2.06-4.16,3.4-6.44,6.84-9.41,0-5.78.18-11.51.19-17.61a68.69,68.69,0,0,0-8.73,12.07A61.23,61.23,0,0,0,505.16,1226.3Z" fill="#fff"/></g><g opacity="0.1"><path d="M419.92,1310.16c31.71-4.62,25.61-22.78,45.91-31,.47-17.19,16.05-27.87,22.23-42.81,12.54-36.4,3.85-78,30.64-109-.29-16-.65-31.54-1.23-48.22-8,15-15,27.12-21.47,42.85-8.71,20-11,41.82-15.66,62.93-2,10.62-6.48,20.48-9,30.9-1.71,9.27-.81,19.33-4.49,28.16-5.7,10.48-16.46,17.08-24.6,25.55-9.95,11.93-19.16,23.63-34.91,27.5-.28,4.81-.44,9.38-.65,14A62.76,62.76,0,0,0,419.92,1310.16Z" fill="#fff"/></g><g opacity="0.1"><path d="M500.67,828.5s-.45-7.13-.87-27.93c-26.79-1.83-49-26.8-63.5-49.07-6.31.94-11.48,1.53-15.35,2C482.94,829.93,500.67,828.5,500.67,828.5Z" fill="#fff"/></g><path d="M781.19,587.21C621.32,627.76,585,695.05,524.22,723.39s-111.08,29.27-111.08,29.27S383.4,653.09,348,627.76" fill="none" stroke="#636363" stroke-linecap="round" stroke-linejoin="round"/><line x1="451.91" y1="751.78" x2="451.93" y2="752.77" fill="none" stroke="#636363" stroke-linecap="round" stroke-linejoin="round"/><line x1="452.02" y1="755.77" x2="467.58" y2="1318.23" fill="none" stroke="#636363" stroke-linecap="round" stroke-linejoin="round" stroke-dasharray="2 3"/><line x1="467.62" y1="1319.72" x2="467.65" y2="1320.72" fill="none" stroke="#636363" stroke-linecap="round" stroke-linejoin="round"/><path d="M377.26,665.19s43.09-27.92,83.86-25.47,92.47-9.91,100.75-16.32" fill="none" stroke="#636363" stroke-linecap="round" stroke-linejoin="round"/><path d="M394.73,701.82s27.36,4.6,68.19-16.58,53.7-24.31,53.7-24.31" fill="none" stroke="#636363" stroke-linecap="round" stroke-linejoin="round"/><path d="M380.65,671.48s12.59-7,23.86-7.61" fill="none" stroke="#636363" stroke-linecap="round" stroke-linejoin="round"/><path d="M382.18,674.44s9.2-3.3,12.34-2.65" fill="none" stroke="#636363" stroke-linecap="round" stroke-linejoin="round"/><path d="M389,688.64a41.82,41.82,0,0,1,23.45-9.34" fill="none" stroke="#636363" stroke-linecap="round" stroke-linejoin="round"/><path d="M391.65,694.61s6.76-4.16,13.76-4.94" fill="none" stroke="#636363" stroke-linecap="round" stroke-linejoin="round"/><path d="M393.21,698.21s21.41-.46,37.59-6.51" fill="none" stroke="#636363" stroke-linecap="round" stroke-linejoin="round"/><path d="M368.92,651.33s.42-7.71,20.07-18.61" fill="none" stroke="#636363" stroke-linecap="round" stroke-linejoin="round"/><path d="M372.9,627.76c-7.1,7.34-8,17.82-8,17.82" fill="none" stroke="#636363" stroke-linecap="round" stroke-linejoin="round"/><path d="M360.89,640.34s-1.68-5.32,1.26-9.55" fill="none" stroke="#636363" stroke-linecap="round" stroke-linejoin="round"/><path d="M402.66,721.53a82.88,82.88,0,0,0,36.43-2.24" fill="none" stroke="#636363" stroke-linecap="round" stroke-linejoin="round"/><path d="M400.31,715.75s13.22,3.94,19.73,1.94" fill="none" stroke="#636363" stroke-linecap="round" stroke-linejoin="round"/><path d="M405.44,728.94s17.33,12.82,43.61,4.77" fill="none" stroke="#636363" stroke-linecap="round" stroke-linejoin="round"/><path d="M408.25,737.61s6.61,5.83,14,4.31" fill="none" stroke="#636363" stroke-linecap="round" stroke-linejoin="round"/><path d="M633.61,596.11s22-14.42,51.07-15.92,45.16-.17,63.07-6.68" fill="none" stroke="#636363" stroke-linecap="round" stroke-linejoin="round"/><path d="M664.91,595.38s12.52-6.57,45.13-8.25c16.05-.82,29.42-2.58,29.42-2.58" fill="none" stroke="#636363" stroke-linecap="round" stroke-linejoin="round"/></svg>