<svg xmlns="http://www.w3.org/2000/svg" width="1000" height="1550" viewBox="0 0 1000 1550"><defs><clipPath id="a"><path fill="none" d="M0 0h19.5v19.5H0z"/></clipPath><pattern id="b" width="19.5" height="19.5" patternTransform="rotate(-37.79 -58.166 115.346) scale(1.27)" patternUnits="userSpaceOnUse" viewBox="0 0 19.5 19.5"><path fill="none" d="M0 0h19.5v19.5H0z"/><g clip-path="url(#a)" fill="none" stroke="#fff" stroke-miterlimit="10"><path d="M.5-.53v37.19M5.4-.53v37.19M10.29-.53v37.19M15.16-.53v37.19M28.61.47H-8.58M28.61 5.37H-8.58M28.61 10.27H-8.58M28.61 15.13H-8.58"/></g></pattern><pattern id="c" width="19.5" height="19.5" patternTransform="rotate(-37.79 -34.712 86.443) scale(1.27)" patternUnits="userSpaceOnUse" viewBox="0 0 19.5 19.5"><path fill="none" d="M0 0h19.5v19.5H0z"/><g clip-path="url(#a)" fill="none" stroke="#fff" stroke-miterlimit="10"><path d="M.5-.53v37.19M5.4-.53v37.19M10.29-.53v37.19M15.16-.53v37.19M28.61.47H-8.58M28.61 5.37H-8.58M28.61 10.27H-8.58M28.61 15.13H-8.58"/></g></pattern><pattern id="d" width="19.5" height="19.5" patternTransform="rotate(-46.24 -64.147 158.838) scale(1.27)" patternUnits="userSpaceOnUse" viewBox="0 0 19.5 19.5"><path fill="none" d="M0 0h19.5v19.5H0z"/><g clip-path="url(#a)" fill="none" stroke="#fff" stroke-miterlimit="10"><path d="M.5-.53v37.19M5.4-.53v37.19M10.29-.53v37.19M15.16-.53v37.19M28.61.47H-8.58M28.61 5.37H-8.58M28.61 10.27H-8.58M28.61 15.13H-8.58"/></g></pattern></defs><title>s06e12-01</title><path d="M279.44 1259.24s61.79 24.3 203.69 19.79S676 1242.85 676 1242.85l32.38 321.83c-50 9.2-182.52 13.72-182.52 13.72s-31.75-53.91-31.94-54c0 0-1.33 57.35-8.59 57.24-113.22-1.78-195.83-16.93-195.83-16.93z" fill="#262a30" stroke="#262521" stroke-linecap="round" stroke-linejoin="round" stroke-width="3"/><path d="M478.49 1334.94s16.73 190.85 9.27 218.76M484.69 1338.7l11.27 178.96 33.89 56.59" fill="none" stroke="#444b51" stroke-linecap="round" stroke-linejoin="round"/><path d="M676.53 1234.81l16.16 135.31s-134-14.3-259.61 14c-111.12 25-153.21-16.73-153.21-16.73L277.94 1256z" fill="#fff" stroke="#262521" stroke-linecap="round" stroke-miterlimit="10" stroke-width="3"/><path d="M676.34 601.27C665.45 594.17 526.81 528 526.81 528s-9 42.67-63.91 47.58c-64.83 5.79-86.64-36-90.76-48.14l-87.91 73.8" fill="#fff" stroke="#262521" stroke-linecap="round" stroke-linejoin="round" stroke-width="3"/><path d="M752.23 1043c-3.83-55.86-22.88-124.63-22.88-124.63s-14.59-306.94-52.89-331.94c-10.88-7.1-142.29-56.2-142.29-56.2s-2.49 55-82.84 55c-65.08 0-82.1-39.23-86.21-51.38a10.64 10.64 0 0 1-.75-2.59c-1 .65-100.94 62.7-145.44 89.51-44.73 26.94-26.68 324.27-26.68 324.27a619.79 619.79 0 0 0-3.6 128.12c5.53 68.42-1.88 179.21 14.45 197.94l61-1.5s-5.6-14.34-4.65-27c2.27-30.22 5.53-104.26 15.36-135.22s21.45-88.31 21.45-88.33c.49 23.68.3 42.23-1 50.33-3.6 21.92-31.66 102.78-17.78 133.07-3.34 29.29-5.7 66.94-5.7 66.94s101 22.74 178 21.81c137.52-1.65 234.84-32.69 234.84-32.69s-2.28-35.71-5.32-60.53c9.94-22.61-4.2-83.52-17.92-143 17.07 47.17 40.25 126.64 42.46 162.33 1.64 26.39 2.89 34.36 2.89 34.36h58.1s4.48-6.67 5.3-18.88-12.32-108.48-17.9-189.79z" fill="#262521" stroke="#262521" stroke-linecap="round" stroke-linejoin="round" stroke-width="3"/><path d="M711 1219s30.63-3.84 52.36 0M200.27 1236.51s30.63-3.83 52.37 0M286.18 1219s168.08 32.87 378.15-4.33M353 546.45s21.5 56.9 100.8 56.9 94.27-62 94.27-62" fill="none" stroke="#636363" stroke-linecap="round" stroke-linejoin="round"/><path d="M188.06 988.39c3.39 18.2 10.24 36.32 24 39.6 24.55 5.85 37.47-27.14 84.19-24.84l-.74-25.32c-37.37 4-52.46 23.51-69.37 22-14.48-1.24-28.34-24.82-35.76-39.86z" opacity=".7" fill="url(#b)"/><path d="M284.48 1063.39c-16.87-1.39-71.66-6-95.43 15.13l2.82 81.18c19.93 13.59 54.8-11.7 76.36-20.2l2.57-15.69c-20.43 6.85-44 20-55.49 18.61-15.66-1.85-31.51-35.82-9.58-48.46s52.28-3.94 75.83-8.79z" opacity=".7" fill="url(#c)"/><path d="M679.47 627.63c-4.6.49-6.15-1.5-27.21-32.44s-84.57-27.12-90.41-14 2.8 35.4 33.31 50.66c60.82 30.41 58.36 85.39 47.16 92.46s-20.35-2.93-44.47-43.59-50.73-64.14-80-61.47-36.54 26.47-28.33 47.91 76.08 67.67 80.58 87.14 6.8 31.66-10.26 34.88-36.23-16.34-37.57-21.61-2.18-25.64-17.46-34.69-21.67-2.79-18 15.07 9.8 19.76 17.37 30.61 31.21 47.84 68.47 36.44 21.76-68.56 7.85-89.87-60.16-48-66.25-65.44 26.12-18.1 42-.09 55.44 102.52 86.27 95.51c52-11.82 28.1-86.06 12.55-107.38s-75.48-40-74.35-53.9S614 577.26 631 591.57s26.74 48.45 50.68 43.19c-.02 0 19.42-9.44-2.21-7.13z" opacity=".7" fill="url(#d)"/><path d="M495.33 745.44s-1.52 3.1-.49 3.93 5.75 4.41 5.24 2.35-1.85-7.67-4.75-6.28zM503.35 743c-1.86-.24-3.24-.31-2.74 1.53s4 7.14 4.38 5.17.7-6.44-1.64-6.7zM495.27 738.71c-1.12 1.07.16 4.33 2.3 4s-.18-6.01-2.3-4z" fill="#262521" stroke="#262521" stroke-linecap="round" stroke-linejoin="round" stroke-width="1.52"/><path d="M285.65 807.63s12.08 172.4 10.57 211.43M259.41 1242.61c2.27-30.22 5.53-104.26 15.36-135.22s21.45-88.31 21.45-88.33M192.25 945.06a619.79 619.79 0 0 0-3.6 128.12c5.53 68.42-1.88 179.21 14.45 197.94" fill="none" stroke="#262521" stroke-linecap="round" stroke-linejoin="round" stroke-width="3"/><path fill="#262521" stroke="#262521" stroke-linecap="round" stroke-linejoin="round" stroke-width="3" d="M692.69 1405.03l-108.62 6.7 15.44 152.58 108.85-8.25-15.67-151.03z"/><path d="M637.91 1419.73s66.66-2.92 77.23-.06-5.66 50.27-5.66 69.66c0 4.84 6.6 10.7 4.35 17.58C707.08 1527.54 687 1552 687 1552s-49.7-30.37-49.09-132.27z" fill="#262521" stroke="#262521" stroke-linecap="round" stroke-linejoin="round" stroke-width="3"/><path d="M595 1436s46.69.46 76-1.55c20.66-1.42 32.83-10.86 44.81-3.38" fill="none" stroke="#4e5154" stroke-linecap="round" stroke-linejoin="round" stroke-dasharray="2 4"/><path d="M595 1437.49v.92c.12 2.17.25 4.33.37 6.5a.63.63 0 0 0 0 .19v.13l.06.12a.84.84 0 0 0 .74.35l2.68-.31a.94.94 0 0 0 .86-1.18l-.15-.91-1.11-6.42a.92.92 0 0 0-.91-.66l-1.84.21a.94.94 0 0 0-.7 1.06zm1.76 4l.92-.12a.62.62 0 0 1 .69.53l.22 1.7a.61.61 0 0 1-.53.69l-.92.12a.63.63 0 0 1-.69-.53l-.22-1.69a.63.63 0 0 1 .54-.65z" fill="#84837e"/><path fill="none" stroke="#424242" stroke-linecap="round" stroke-linejoin="round" d="M600.98 1448.38l17.81 104.98"/><path fill="none" stroke="#444b51" stroke-linecap="round" stroke-linejoin="round" d="M688.33 1401.99l-108.76 5.43 15.93 153.47"/><path fill="none" stroke="#444b51" stroke-linecap="round" stroke-linejoin="round" d="M688.33 1397.99l-112.76 5.43 15.93 153.47"/></svg>