<svg xmlns="http://www.w3.org/2000/svg" width="857.68" height="408.71" viewBox="0 0 857.68 408.71"><title>bolts</title><polygon points="466.36 243.06 489.39 238.89 484.6 289.87 508 273.43 488.56 408.71 486 314.62 469 332.61 466.36 243.06" fill="#fff"/><polygon points="524.2 228.04 545.8 219.03 552.05 269.85 571.38 248.78 581.38 385.08 558.71 293.72 545.96 314.95 524.2 228.04" fill="#fff"/><polygon points="576.6 201.25 595.83 187.91 612.62 236.28 627.09 211.62 665.52 342.77 624.15 258.22 616.15 281.65 576.6 201.25" fill="#fff"/><polygon points="621.99 166.59 638.85 150.36 663.12 195.44 673.48 168.79 732.27 292.18 677.99 215.27 673.81 239.68 621.99 166.59" fill="#fff"/><polygon points="653.05 128.55 665.37 108.65 700.04 146.32 703.48 117.93 791.01 222.9 719.37 161.84 721.36 186.52 653.05 128.55" fill="#fff"/><polygon points="205.83 112.98 219.28 132.14 171 149.18 195.74 163.52 64.78 202.64 149.12 160.83 125.65 152.95 205.83 112.98" fill="#fff"/><polygon points="179.02 65.53 190.15 86.11 140.23 97.46 163.14 114.56 28.55 138.28 117.15 106.5 94.75 95.96 179.02 65.53" fill="#fff"/><polygon points="159.63 16.24 167.58 38.26 116.52 42.03 136.63 62.36 0 65.74 92.35 47.53 71.77 33.76 159.63 16.24" fill="#fff"/><polygon points="679.54 86.22 688.53 64.62 728.76 96.28 727.64 67.71 830.76 157.4 750.31 108.53 756.21 132.58 679.54 86.22" fill="#fff"/><polygon points="699.66 36.14 706.27 13.69 749.68 40.82 745.48 12.54 857.68 90.57 772.43 50.67 780.89 73.94 699.66 36.14" fill="#fff"/><polygon points="403.88 242.65 427.2 244.69 409.17 292.61 436.06 282.9 381.71 408.3 404 316.85 382.86 329.74 403.88 242.65" fill="#fff"/><polygon points="342.81 228.14 364.97 235.69 336.01 277.91 364.45 274.91 281.73 383.7 325.21 300.22 301.6 307.69 342.81 228.14" fill="#fff"/><polygon points="291.72 201.1 311.72 213.25 274.34 248.23 302.75 251.44 198.49 339.81 258.97 267.68 234.31 269.88 291.72 201.1" fill="#fff"/><polygon points="434.64 76.91 443.29 76.69 438.72 100.28 447.43 93.89 432.29 139.61 435.93 109.44 429.81 115.01 434.64 76.91" fill="#fff"/><polygon points="389.67 66.78 397.51 70.43 382.91 89.52 393.55 87.67 359.64 121.87 376.34 96.48 368.37 98.74 389.67 66.78" fill="#fff"/><polygon points="410.67 74.36 419.18 75.88 409.95 98.07 419.76 93.56 395.73 135.3 405.37 106.48 398.25 110.7 410.67 74.36" fill="#fff"/><polygon points="371.61 54.03 378.22 59.6 359.14 74.21 369.89 75.2 328.21 99.34 350.97 79.2 342.69 79.3 371.61 54.03" fill="#fff"/><polygon points="357.92 38.41 363.09 45.36 341.16 55.2 351.4 58.63 305.29 72.57 332.06 58.19 323.98 56.38 357.92 38.41" fill="#fff"/><polygon points="348.62 21.39 352.42 29.16 329.06 34.81 338.49 40.07 290.61 45.31 319.57 36.08 311.95 32.82 348.62 21.39" fill="#fff"/><polygon points="342.18 2.82 344.72 11.09 320.76 13.01 329.25 19.68 281.14 17.35 311.19 12.78 304.18 8.37 342.18 2.82" fill="#fff"/><polygon points="456.42 75.06 464.88 73.22 464.79 97.25 472.15 89.34 465.82 137.09 463.76 106.77 458.78 113.39 456.42 75.06" fill="#fff"/><polygon points="478.12 68.33 486.02 64.82 490.82 88.37 496.42 79.13 499.91 127.17 491.74 97.9 488.21 105.39 478.12 68.33" fill="#fff"/><polygon points="496.49 57.94 503.21 52.49 513.96 73.99 516.96 63.62 532.82 109.1 517.33 82.95 515.86 91.1 496.49 57.94" fill="#fff"/><polygon points="511.35 43.45 516.68 36.64 531.96 55.19 532.57 44.41 558.19 85.2 537.25 63.17 537.64 71.45 511.35 43.45" fill="#fff"/><polygon points="523.05 26.05 526.98 18.34 545.52 33.64 544.07 22.94 576.99 58.1 552.23 40.47 554.19 48.52 523.05 26.05" fill="#fff"/><polygon points="530.71 8.28 533.23 0 554.17 11.78 550.85 1.51 589.47 30.29 561.99 17.32 565.34 24.89 530.71 8.28" fill="#fff"/><polygon points="479.15 136.33 491.94 132.03 495.94 169.29 505.98 155.77 504.39 230.86 495.99 184.22 489.41 195.34 479.15 136.33" fill="#fff"/><polygon points="243.33 160.37 260.3 176.49 216.36 202.75 243.44 211.91 122.83 276.19 197.22 218.51 172.65 215.43 243.33 160.37" fill="#fff"/><polygon points="443.71 141.68 457.54 140.57 452.26 178.77 465.65 167.77 445.37 242.34 448.59 193.69 439.25 203.14 443.71 141.68" fill="#fff"/><polygon points="405.66 139.61 419.38 141.74 405.38 177.68 420.95 170.08 383.92 237.92 398.34 191.34 387.07 198.37 405.66 139.61" fill="#fff"/><polygon points="339.24 110 350.53 118.07 321.87 143.87 339.19 144.09 275.61 188.02 309.44 152.9 296.21 154.11 339.24 110" fill="#fff"/><polygon points="371.39 129.17 384.24 134.42 362.27 166.12 379.19 162.35 327.42 219.74 352.26 177.78 339.66 182 371.39 129.17" fill="#fff"/><polygon points="312.78 83.55 321.97 93.95 288.24 112.65 305.08 116.76 233.24 145.27 274.1 118.66 260.94 116.86 312.78 83.55" fill="#fff"/><polygon points="279.81 29.24 285.64 41.84 247.97 50.09 262.92 58.85 185.93 65.6 232.7 51.8 220.6 46.31 279.81 29.24" fill="#fff"/><polygon points="271.7 1.88 275.91 15.11 237.5 18.58 251.23 29.14 174 26.19 222.13 18.36 210.82 11.4 271.7 1.88" fill="#fff"/><polygon points="293.27 54.93 300.44 66.82 263.89 79.14 279.71 86.21 203.91 101.33 248.9 82.5 236.27 78.37 293.27 54.93" fill="#fff"/><polygon points="512.8 122.27 524.77 115.25 536.62 151.95 543.9 136.22 558.05 212.2 539.8 166.98 535.5 179.56 512.8 122.27" fill="#fff"/><polygon points="542.51 100.9 552.36 91.11 573 123.69 576.12 106.64 608.79 176.68 579.83 137.45 578.8 150.7 542.51 100.9" fill="#fff"/><polygon points="565.72 76.15 573.74 64.82 599.66 93.38 599.81 76.05 644.01 139.45 608.75 105.77 610.01 118.99 565.72 76.15" fill="#fff"/><polygon points="584.94 44.65 591.51 32.42 620.75 57.57 618.76 40.36 670.42 97.84 631.29 68.75 634.17 81.72 584.94 44.65" fill="#fff"/><polygon points="596.85 17.53 600.53 4.14 634.63 22.16 628.86 5.82 692.02 50.37 647.39 30.71 653.09 42.72 596.85 17.53" fill="#fff"/></svg>