<svg xmlns="http://www.w3.org/2000/svg" width="16" height="16" viewBox="0 0 16 16"><title>icon-twitter</title><path d="M16,3a5.85,5.85,0,0,1-1.89.49A2.78,2.78,0,0,0,15.5,1.74a4.88,4.88,0,0,1-2.08.79,3.46,3.46,0,0,0-2.39-1A3.29,3.29,0,0,0,7.85,4.82a1.44,1.44,0,0,0,.1.69A9,9,0,0,1,1.19,2.13a3.05,3.05,0,0,0-.4,1.69A3.66,3.66,0,0,0,2.38,6.51c-.49,0-1.29-.2-1.29-.4h0A3.12,3.12,0,0,0,3.58,9.29a3.4,3.4,0,0,1-1,.1,1.68,1.68,0,0,1-.69-.1,3.19,3.19,0,0,0,3,2.29A6.53,6.53,0,0,1,.8,13H0a9.44,9.44,0,0,0,5.07,1.49,9.2,9.2,0,0,0,9.24-9.24v-.4A5.86,5.86,0,0,0,16,3Z" fill="#262521"/></svg>